<?xml version="1.0"?>
<svg xmlns="http://www.w3.org/2000/svg" version="1.2" baseProfile="tiny" width="800" height="923" viewBox="0 0 800 923" stroke-linecap="round" stroke-linejoin="round">
<g id="sido">
<path d="M 290.12 921.5 290.07 921.87 289.47 922 289.26 921.28 289.59 921.01 289.96 921.11 290.12 921.5 Z M 320.89 832.78 321.5 832.91 321.38 833.68 320.34 833.96 319.92 833.62 319.52 832.85 320.04 832.53 321.05 832.31 320.89 832.78 Z M 323.65 832.99 323.3 832.83 324.42 832.26 324.31 832.82 323.65 832.99 Z M 323.96 832.27 323.75 832.55 322.81 832.77 322.83 832.48 323.96 832.27 Z M 323.13 831.62 323.79 831.86 323.26 832.34 322.86 832.33 322.51 831.97 323.13 831.62 Z M 352.06 745.88 352.18 746.27 351.72 746.51 351.69 746.01 352.06 745.88 Z M 343.1 744.59 342.9 745.07 343.38 745.93 343.36 746.34 344.04 746.63 344.39 746.23 345.83 746.21 345.86 745.52 346.5 744.98 347.13 744.6 347.72 744.57 348.05 744.73 348.67 744.62 348.87 745.13 348.53 745.63 348.7 746.38 348.08 746.93 347.06 747.16 347.3 746.63 346.95 746.35 346.42 746.5 346.56 746.98 346.31 747.48 345.96 747.39 345.74 747.97 346.13 748.22 346.2 748.63 345.85 749.05 345.41 749.05 344.74 749.49 344.63 749.13 343.94 749.13 343.68 749.3 343.66 750.24 343.18 750.49 342.84 749.66 342.18 749.9 341.95 750.26 341.21 750.49 341.19 751.17 340.81 751.15 339.96 750.54 340.21 749.81 340.01 749.52 340.71 748.97 341.16 748.91 341.03 748.51 341.61 747.98 341.39 747.45 341.68 746.71 341.99 746.92 342.46 745.96 342.16 745.64 342.47 744.59 343.1 744.59 Z M 347.47 743.94 347.21 744.51 346.74 744.55 346.69 744.17 347.47 743.94 Z M 30.19 701.69 30.67 701.56 30.81 701.94 29.89 701.95 29.66 701.48 30.03 701.31 30.19 701.69 Z M 29.4 701.83 28.63 701.53 28.51 700.89 28.72 700.41 29.58 701.2 29.4 701.83 Z M 24.09 697.7 23.75 697.6 23.52 697.08 24.17 697.24 24.09 697.7 Z M 95.32 696.56 95.46 697.48 95.13 697.57 94.98 696.43 95.32 696.56 Z M 12.51 689.67 12.78 690.18 13.08 690.02 14.84 689.58 14.9 689.68 17.13 689.18 17.64 689.54 17.41 690.05 16.95 690.09 16.54 690.41 16.67 691.17 16.9 691.37 17.31 691.12 18.36 690.76 19.62 690.62 19.77 690.97 20.4 691.2 21.11 692.35 21.65 692.49 21.88 693.53 22.63 694.24 22.67 695.45 22.38 695.9 22.77 696.22 23.15 696.22 23.2 696.99 23.51 697.43 23.65 698.14 23.5 698.47 23.01 698.59 22.52 698.12 21.9 698.34 21.4 698.11 21.32 698.71 20.69 699.11 19.9 699.3 19.2 698.84 18.54 698.09 17.98 698.25 18 699.16 17.33 698.95 17.08 698.46 17.32 697.78 17.03 697.6 16.86 696.7 16.9 695.85 16.05 694.84 15.8 693.83 16.02 692.79 15.51 692.85 14.86 693.22 12.56 693.8 11.7 693.58 10.88 694.2 10.79 694.87 10.4 695.99 9.43 696.76 7.41 696.49 7.14 696.12 7.4 695.21 7.7 694.8 7.26 694.54 7.08 693.49 7.46 692.1 7.89 691.76 7.87 691.17 8.55 690.48 8.81 690.05 9.19 690.05 9.56 689.73 9.93 689.73 10.53 689.26 11.31 688.87 11.75 688.85 12.51 689.67 Z M 2.98 686.15 3.19 686.94 4.05 687.61 4.07 688.31 2.9 689.36 1.56 688.6 1.55 688.16 1 687.23 1.28 686.51 2.04 686.11 2.98 686.15 Z M 313.16 663.83 312.84 663.84 312.63 664.48 312.1 664.37 311.69 664.62 311.71 663.86 311.92 663.14 312.35 662.73 312.97 662.88 313.2 663.32 313.16 663.83 Z M 322.55 657.04 322.93 657.73 322.54 657.91 322.28 659.08 321.94 659.41 321.86 659.96 321.28 659.9 321.23 659.3 321.5 658.24 321.66 657.25 321.93 656.85 322.55 657.04 Z M 323.36 656.95 322.93 656.95 323.01 656.47 323.4 656.3 323.36 656.95 Z M 317.48 656.16 317.8 656.51 317.91 657 318.68 657.6 318.72 658.19 319.05 658.16 319.1 659.39 318.76 659.5 318.76 660.1 318.36 660.73 318.5 661.27 318.16 661.59 317.62 662.59 317.58 663.13 317.09 663.13 317.01 663.69 317.25 665.23 317.11 666.42 316.47 666.73 316.08 665.84 315.65 665.9 315.21 665.36 314.96 664.74 315 663.2 314.25 663.24 313.89 663.56 313.13 662.54 313.22 662.04 313.55 661.45 314.1 661.03 313.82 660.72 313.78 660.13 313.94 659.29 314.24 658.84 314.59 659.07 315.28 658.11 315.7 656.9 316.47 656.22 316.94 656 317.48 656.16 Z M 330.49 643.89 330.12 643.95 330.11 645.4 330.29 646.22 330.12 646.68 329.63 646.74 328.69 646.4 328.36 645.49 328.68 645.18 328.81 644.38 329.33 644.07 329.55 643.7 330.04 643.49 330.49 643.89 Z M 494.72 640.48 494.9 641.2 494.48 642.03 493.88 642.18 493.24 642.05 493.02 641.27 493.16 640.87 493.62 640.54 494.16 640.36 494.72 640.48 Z M 328.46 629.28 328.86 629.63 328.98 630.1 328.56 631.56 327.56 631.8 327.82 630.61 327.58 629.99 328.09 629.29 328.46 629.28 Z M 370.25 629.13 370.18 629.58 364.52 628.7 364.58 628.25 370.25 629.13 Z M 340.41 627.63 340.3 628.05 338.8 628.54 338.69 628 339.42 627.97 340.41 627.63 Z M 377.19 619.99 377.47 619.95 377.91 620.52 378.63 621.22 378.18 621.82 378.76 621.99 378.67 622.46 379.15 622.9 378.95 623.52 378.91 624.16 378.56 624.78 377.91 625.27 377.59 625.28 377.8 624.59 376.77 624.35 376.18 624.12 376.33 623.35 376.25 622.87 376.47 622.34 376.3 621.98 376.59 620.83 376.46 620.56 376.67 620.04 377.19 619.99 Z M 114.28 616.1 113.9 616.03 113.45 615.6 113.11 614.82 113.67 614.24 114.38 614.3 114.74 614.66 115.12 615.38 114.59 616.02 114.28 616.1 Z M 45.81 601.81 46.37 602.19 46.46 602.65 46.83 602.79 46.53 603.24 46.91 603.85 46.37 604.45 45.85 604.23 45.23 604.39 44.58 603.99 44.34 603.65 44.3 603.03 43.96 602.23 44.24 601.89 45.57 601.69 45.81 601.81 Z M 388.96 599.25 388.24 599.02 388.32 598.38 388.76 598.26 389.41 598.5 389.56 598.89 388.96 599.25 Z M 222.46 599.1 223.33 599.21 223.65 599.7 223.55 599.99 223.1 599.99 222.05 600.43 221.77 600.79 221.67 601.93 221.89 602.17 222.57 602.41 223.12 602.4 223.64 602.23 224.57 602.15 225.04 602.23 225.6 601.88 226.16 602.09 226.93 601.65 228.44 601.54 229.02 601.29 229.96 601.53 230.64 601.6 231 601.89 231.78 602.03 231.9 602.2 232.86 602.49 232.69 602.92 233.24 603.3 232.36 604.3 232.55 604.47 233.16 603.81 233.73 603.55 234.11 603.79 234.43 603.47 235.34 602.94 235.04 602.77 234.41 603.13 234.43 602.37 235.07 601.84 235.7 602.39 235.77 602.96 235.28 605.04 234.77 606.19 233.6 608.51 233.03 610.21 232.91 611.51 232.23 611.72 231.87 612.05 231.27 612.21 230.5 611.85 230.14 611.21 229.64 610.8 229.6 610 229.17 609.39 228.98 610.62 228.46 610.79 228.19 610.27 227.37 610.34 226.84 610.52 225.82 610.19 224.98 609.7 224.31 609.64 223.72 609.24 223.4 609.39 219.11 608.1 218.45 607.97 217.32 606.87 215.71 606.12 215.49 605.13 215.13 604.96 214.45 604.27 214.04 603.53 213.9 602.56 213.69 602.09 213.8 601.57 214.77 600.9 215.85 600.58 216.92 600.64 217.64 600.39 218.29 599.97 219.14 599.87 219.69 599.6 220.93 599.33 221.74 599.4 222.13 598.97 222.46 599.1 Z M 210.86 599.65 211.05 600.11 210.66 600.75 210.23 600.83 209.92 600.58 209.78 600.01 209.41 599.55 209.89 598.9 210.41 599.18 210.86 599.65 Z M 194.11 603.16 194.65 602.87 194.36 602.18 193.96 600.89 193.26 600.2 192.68 599.98 192.56 599.39 193.31 598.15 193.77 598.09 194.92 598.56 195.37 598.96 196.16 599.44 197.93 600.18 199.62 600.65 200.78 601.14 202.05 601.06 202.4 601.29 203.42 602.46 203.77 603.72 204.16 604.45 205.05 604.95 206.41 605.27 208.53 605.62 209.01 605.78 210.03 605.56 210.82 605.76 211.47 606.09 211.67 606.42 212.29 606.27 213.48 606.21 213.88 606.37 214.2 607 215.08 607.84 216.04 608.53 217.58 609.41 218.54 610.36 219.13 610.82 220.41 611.29 222.04 611.72 223.01 612.09 224.48 612.99 225.37 613.31 226.91 613.73 228.84 613.56 229.49 613.63 230.14 614.02 231.11 614.45 232.19 615.27 232.99 615.48 234.08 615.21 234.77 614.69 235.5 614.49 235.36 615.59 234.6 617.2 233.51 618.81 231.82 620.45 231.47 620.51 231.16 620.23 232.06 620.11 232.44 619.71 232.36 619 230.85 618.41 229.39 617.64 225.69 615.31 224.13 614.56 223.36 614.29 221.93 613.95 219.63 613.5 218.15 613.36 215.66 613.02 213.33 612.75 211.88 612.43 210.5 612.24 208.54 612.14 207.39 611.97 205.7 611.46 203.72 611 202.06 610.76 200.88 610.49 199.25 609.83 198.9 609.41 195.66 608.93 193.66 608.44 192.61 607.92 192.13 607.81 191.55 607.45 190.51 607.09 189.73 606.66 186.36 604.44 185.81 603.93 185.49 603.3 185 600.46 185.24 599.26 185.98 598.27 186.82 597.65 187.76 597.11 188.06 597.09 188.87 597.41 189.43 597.88 190.05 598.89 190.44 599.92 191.48 601.39 192.48 602.11 193.36 602.63 193.79 603.09 194.11 603.16 Z M 42.97 590.33 42.94 590.68 42.58 591.35 42.66 592.31 42.9 592.77 42.77 593.11 41.94 593.71 41.35 592.55 41.37 592.19 40.94 591.37 40.99 590.83 41.48 590.33 43.14 589.2 43.21 589.8 42.97 590.33 Z M 159.25 584.75 160.56 585.22 162.42 585.77 163.51 586.15 164.65 586.36 167.11 586.7 170.5 586.9 171.37 587.1 172.28 587.57 173.14 587.72 175.37 587.87 176.54 588.33 177.42 588.52 181.15 590.17 181.74 590.39 181.52 591 180.8 591.96 180.62 592.38 180.87 592.79 181.57 592.73 181.57 592.06 181.77 591.43 182.26 590.62 182.55 590.79 183.88 590.7 184.28 590.76 184.35 591.25 184.2 591.72 184.36 592.25 184.51 593.76 184.78 595.08 184.54 595.58 183.86 596.28 181.74 597.63 179.73 598.47 177.76 599.2 176.17 599.61 174.17 599.83 172.12 599.87 167.35 599.68 166.6 599.55 164.74 599.05 162.33 598.61 161.09 598.27 159 597.14 156.94 596.25 155.59 595.47 153.18 594.2 149.23 592.6 147.61 592.06 145.9 591.67 144.63 591.54 143.52 591.5 142.99 591.35 142.96 590.85 143.1 589.58 143.46 588.51 144.1 587.75 144.78 587.34 145.88 587.09 146.88 586.45 147.73 586.84 148.18 587.16 150 587.2 150.12 587 152.78 586.88 153.15 586.72 153.83 587.01 153.8 586.18 155.77 585.11 156.83 584.81 158.69 584.61 159.25 584.75 Z M 285.59 600.65 285.97 601.99 286.06 604.5 286.25 607.1 286.08 607.97 286.39 608.98 286.76 610.9 286.8 612.11 286.14 612.14 285.72 612.46 285.04 612.11 284.46 610.8 284.31 609.37 284.93 608.19 285.05 606.79 284.98 606.31 284.16 606.01 283.41 605.24 283.11 605.12 282.68 605.53 282.83 606.05 282.61 606.19 281.51 605.11 280.52 604.63 278.67 603.05 277.86 602.57 275.7 601.78 274.09 601.15 273.69 601.26 273.83 601.71 274.92 602.61 274.79 602.92 273.88 602.9 273.04 602.76 272.65 603.21 273 603.39 274.58 603.78 276.96 604.55 277.67 604.9 279.14 606.05 279.65 606.55 280.12 607.35 280.96 608.47 281.73 609.71 282.04 610.46 282.14 611.07 281.92 611.75 281.32 612.45 281.11 613.37 281.17 613.83 280.95 614.33 280.53 614.63 279.68 614.84 279.24 614.77 278.71 614.07 277.82 612.36 277.01 611.47 276.13 610.98 274.69 610.9 274.1 611.09 273.4 611.67 272.9 612.4 272.68 613.07 272.35 613.37 271.45 612.98 270.78 612.88 270.77 612.62 272.09 612.43 271.21 611.13 270.71 611.2 270.73 610.59 269.15 610.51 267.8 610.73 266.38 611.18 265.08 611.89 264.02 612.7 263.68 613.22 262.61 614.39 262.55 615 263.38 615.85 264.24 616.31 264.86 616.15 267.12 616.03 267.95 615.79 269.35 615.18 270.58 615.19 270.85 615.06 271.35 614.43 274.19 612.64 274.51 612.54 274.52 611.9 274.91 611.58 275.97 611.79 276.74 612.3 277.2 612.79 278.14 614.89 278.55 615.49 279.37 616.02 278.99 616.46 278.36 617.61 278.03 617.87 277.12 618.24 276.16 618.34 275.88 617.93 275.02 618.15 273.88 618.76 273.26 619.65 273.6 619.78 274.04 619.11 274.85 618.45 275.47 618.36 276.69 618.59 277.14 618.59 278.07 618.23 278.53 617.91 279.03 617.23 279.35 616.54 279.97 616.13 281.18 616.37 281.81 616.78 282.04 617.57 282.91 618.85 283.48 618.79 283.75 618.33 284.06 617.15 284.48 616.72 285.45 616.45 286.29 616.63 287.57 617.59 288.08 618.21 289.13 620.31 288.82 620.67 287.82 621.09 286.62 621.28 285.58 621.54 284.75 621.94 283.54 622.69 283.25 622.97 283.63 623.3 285.86 621.96 286.25 621.81 287.94 621.42 288.66 621.33 289.39 621.47 290.24 622.1 290.82 622.99 290.89 623.61 290.76 624.7 290.77 627.45 290.4 627.98 288.85 627.83 289.34 627.45 289.41 627.15 288.9 626.55 287.89 626.71 289.16 627.08 289.19 627.3 288.47 627.86 287.34 627.85 286.74 628.11 285.87 627.95 285.75 627.57 285.13 627.19 284.62 626.61 284.09 626.28 281.95 625.74 279.84 625.43 278.37 625.27 275.54 625.31 274.17 625.47 271.59 625.47 270.33 625.56 268.56 625.82 267.73 625.88 265.97 625.78 263.67 625.94 262.8 625.77 260.36 625.62 259.45 625.45 256.97 625.26 255.06 624.92 252.94 624.77 252.05 624.44 253.83 624.36 254.44 624.25 257.61 624.08 259.49 624.17 259.85 623.79 255.99 623.4 253.4 622.9 249.8 621.96 249.07 621.7 247.65 620.99 246.54 619.97 245.38 618.22 244.45 617.03 242.77 615.59 242.45 615.08 242.29 614.48 242.42 613.99 242.9 613.47 244.14 612.66 245.1 611.91 247.1 610.74 248.34 610.51 249.01 610.76 250.67 612.09 251.93 612.91 252.28 613.36 251.18 615.26 250.75 615.77 250.66 616.26 250.83 617.07 250.74 618.62 251.96 620.01 252.92 620.21 253.13 620.52 253.6 620.71 254.39 620.77 254.96 620.45 253.84 618.59 252.3 616.12 251.64 615.45 251.76 614.76 252.11 614.15 252.76 613.55 252.91 613.08 253.3 612.78 253.95 612.78 254.62 613.12 254.89 613.62 255.14 614.9 255 615.91 255.15 616.39 255.5 616.79 256.92 618.74 257.46 620.15 258.47 621.63 258.85 621.87 259.31 621.83 260.05 622 259.99 621.33 259.31 620.07 258.5 619.08 257.74 618.34 257.2 617.61 256.9 617.02 256.34 615.5 256.07 611.99 255.81 611.15 255.19 610.32 254.32 610.55 253.78 611.39 252.72 611.57 252.14 611.36 251.32 610.46 251.09 610 250.96 609.23 251.02 608.27 251.41 607.06 252.39 605.29 252.79 604.4 254.34 602.23 255.13 600.61 255.65 599.74 257.32 597.8 259.01 595.9 260.25 594.71 262.13 592.2 264.42 588.66 264.91 587.75 265.79 586.6 267.71 582.38 268.44 581.35 269.04 580.36 269.48 579.83 271.47 578.2 271.89 578.21 272.37 578.86 273.02 579.94 274.17 581.59 274.6 582.36 275.3 584.03 275.91 584.71 276.46 585.82 277 586.65 277.78 588.31 278.9 590.05 279.75 591.05 280.73 592.4 281.45 593.61 282.02 594.76 282.83 595.77 283.61 597.35 284.09 598.15 284.77 598.95 285.59 600.65 Z M 227.9 574.38 227.14 575.36 226.21 575.65 225.34 576.08 224.22 576.4 223.09 576.87 221.56 577.87 221.09 578.54 219.31 579.34 218.68 579.68 218.2 580.17 217.46 580.59 215.33 582.26 215.13 582.59 214.58 582.97 213.5 584.12 212.84 584.63 211.9 585.14 210.89 585.58 210.04 585.06 210.21 584.71 210.95 584.46 211.57 584.07 212.79 583.8 213.27 583.45 213.94 582.35 215.1 581.77 215.59 581.26 216.63 580.6 217.02 580.09 217.18 579.4 217.64 579.19 218.29 579.22 218.84 578.84 219.38 578.15 220.01 577.93 220.19 577.55 220.88 577.12 221.45 576.34 222.38 575.86 223.15 575.79 224.46 575.36 225.15 575.24 225.99 574.8 226.44 574.68 227.27 574.23 227.9 574.38 Z M 390.56 574.03 389.65 574.28 388.79 574.28 388.25 574.47 388.28 574.77 387.42 575.16 386.99 574.66 387.27 574.51 387.08 573.93 386.83 573.73 386.8 573.09 387.6 573.42 388.09 573.85 388.26 574.26 388.7 574.05 390.04 573.98 390.81 573.61 391.31 572.93 391.49 573.06 391.15 573.76 390.56 574.03 Z M 238.12 572.91 238.32 573.32 238.6 574.53 239.08 575.28 239.13 575.57 238.76 575.89 238.37 577.64 237.74 578.05 237.67 578.5 237.23 578.62 236.97 578.2 237.17 577.78 236.57 577.13 236.67 576.64 235.71 576.37 234.36 576.41 233.59 576.23 233.12 576.44 232.51 576.29 231.81 576.32 231.25 576.59 230.55 576.69 230.07 576.62 229.52 576.85 228.08 577.23 226.91 577.68 225.54 578.06 224.1 578.82 222.69 579.4 221.88 579.96 221.23 580.26 220.14 580.96 219.64 581.17 218.85 581.94 218.16 582.17 217.5 582.77 216.81 583.12 216.54 583.55 215.54 584.43 215.11 584.66 214.78 585.07 213.97 585.54 213.41 587.13 211.9 588.36 211.36 588.52 210.69 588.51 210.18 587.78 210.03 586.62 210.24 585.92 210.53 586.73 210.91 586.9 211.49 586.44 212.06 586.21 212.78 585.76 214.08 584.61 214.83 583.79 216.63 582.44 217.39 581.78 218.57 580.91 219.28 580.62 220.87 579.63 222.32 578.46 223.62 577.85 224.66 577.48 225.05 577.25 226.23 576.99 227.65 576.42 228.75 576.2 229.82 576.17 230.4 576.01 231.47 575.38 232.32 575.16 235.11 574.86 236.05 574.9 236.9 575.13 238.08 575.02 238.17 574.64 238.04 574.07 237.8 573.9 235.73 573.66 235.56 573.77 234.46 573.79 233.37 573.72 232.5 573.82 231.2 574.2 228.91 574.78 228.47 574.39 228.17 573.26 228.39 573.08 229.29 573.36 229.54 573.13 230.24 573.38 230.83 573.35 232.54 573.06 232.86 572.83 233.48 572.78 235.17 572.93 236.5 572.9 237.41 572.68 238.12 572.91 Z M 235.65 569.78 236.52 569.84 236.73 570.1 236.6 570.64 236.94 571.05 236.86 571.82 236.41 572.2 235.63 572.31 234.4 572.15 234.58 571.5 233.93 571.15 234.46 570.74 234.95 571.18 235.53 570.73 235.47 569.79 235.65 569.78 Z M 510.91 564.62 510.93 564.95 499.55 566.17 499.52 565.85 500.51 565.76 505.92 565.18 510.91 564.62 Z M 232.14 555.06 231.67 555.09 231.29 554.76 231.37 554.15 232.17 553.97 232.5 554.36 232.14 555.06 Z M 234.23 553.51 234.41 553.96 234.21 554.37 233.81 554.55 232.96 554.42 232.56 554.15 232.71 553.68 233.57 553.39 234.23 553.51 Z M 73.71 576.42 73.51 566.64 83.97 566.42 83.84 565.74 83.8 563.96 83.94 563.82 88.41 563.73 88.35 561.19 92.85 561.1 92.83 560.4 95.63 560.39 95.56 557.29 95.66 556.97 98.88 553.53 103 557.4 103.14 557.65 104.02 558.15 105.29 558.71 106 558.06 106.42 558.01 106.68 558.47 107.25 558.68 107.5 558.47 108.13 558.85 108.12 559.5 108.62 559.85 108.62 560.94 108.48 562.17 108.52 563.78 108.73 564.29 108.78 564.85 109.19 564.91 109.47 565.51 109.89 565.77 110.16 566.91 110.14 567.79 109.06 567.93 109.2 575.75 108.62 575.78 108.71 580.53 109.1 580.56 109.23 586.21 109.38 594.41 109.24 594.58 107.27 595.48 106.82 596.2 107.64 597.17 107.47 597.51 107.71 597.9 108.45 598 109.01 597.08 109.3 597.19 109.24 598.32 109.35 599.28 109.54 599.9 109.43 601.02 109.06 601.27 109.54 601.71 109.35 602.85 108.56 603.01 107.57 603.75 106.56 604.86 106.57 605.16 106.02 606.29 105.86 607.09 105.87 608.41 106.04 608.93 106.39 609.37 105.82 610.12 105.71 610.95 105.82 611.56 106.07 612 107.02 612.35 107.14 613.26 107.11 613.85 108.03 614.06 108.03 614.61 107.48 614.8 107.61 615.19 109.04 616.25 110.31 616.88 111.71 617.8 112.29 617.46 112.78 617.46 113.07 617.79 112.61 618.35 113.21 618.79 113.65 618.72 113.83 619.11 114.58 618.91 115.16 618.29 116.29 618.25 117.35 617.98 118.47 618.18 119.56 618.15 120.25 617.83 120.7 616.99 121.01 616.86 121.65 616.11 123.77 615.18 125.6 613.77 125.61 612.56 125.78 612.17 125.67 611.67 125.2 610.98 125.08 610.49 125.13 609.82 124.98 608.83 124.77 608.71 124.62 607.96 124.76 606.75 125.22 606.03 124.74 605.62 124.9 605.37 126.46 604.36 127.17 603.45 127.6 603.35 128.11 602.83 127.9 602.34 127.32 602.24 126.13 600.81 125.51 600.44 124.77 600.3 124.13 599.98 121.76 599.56 121.48 599.72 120.68 599.64 120.39 599.99 119.59 599.84 119.18 599.36 118.1 599.29 117.8 597.98 117.19 597.67 117.09 596.48 116.8 596.23 116.93 595.61 116.59 595.24 115.75 594.87 115.38 595.02 115.06 594.69 114.17 594.56 114.08 594.9 113.5 595.05 112.74 594.79 111.71 594.23 111.47 593.61 111.43 592.56 111.6 591.57 111.61 590.75 112.11 588.28 112.07 587.78 112.24 586.8 112.06 585.4 111.88 584.8 111.92 582.73 111.72 582.44 112.43 581.27 112.5 580.75 113.05 580.62 114.27 580.72 115.89 581.41 116.46 582.28 116.62 582.76 117.18 583.85 117.49 584.12 118.62 586.69 118.44 586.8 118.46 587.98 118.78 588.26 119.47 589.27 119.37 589.72 119.72 590.13 120.22 590.24 121.92 590.4 123.29 590.76 124.04 590.56 124.87 591.03 125.52 591.11 126.56 591.63 127.01 591.67 127.86 591.33 128.82 591.71 130.39 591.96 131.05 591.76 132.19 590.91 132.83 590.97 134.07 590.77 134.36 590.62 135.69 590.79 135.76 590.55 136.5 590.63 136.81 590.28 137.48 590.68 138.78 590.93 138.83 592.74 139.1 593.13 139.88 593.84 140.41 594.6 140.46 595.27 140.7 595.46 141.01 596.37 141.39 596.49 141.61 597 142.31 597.1 142.93 597.82 143.26 598.54 143.97 598.57 144.01 599.12 144.29 599.38 143.61 600.14 142.99 600.47 141.93 600.39 141.71 600.18 140.09 600.53 139.5 601.13 138.4 601.82 138.26 601.53 137.67 601.97 137.25 601.67 136.66 601.87 135.84 601.74 133.89 602.4 132.62 602.58 131.1 603.02 128.47 604.34 127.45 605.22 126.23 606.59 125.36 607.86 125.31 608.05 125.52 609.83 125.73 610.9 126.28 611.71 126.5 612.41 126.57 613.96 127.36 615.28 128.4 616.52 128.89 616.5 129.23 617.03 129.52 618.19 130 618.89 130.52 619.97 131.19 620.65 131.71 621.33 131.94 622.56 132.2 622.9 132.1 624.77 132.1 626.04 132.22 627.97 132.11 628.22 131.98 629.54 132.24 630.79 132.09 632.89 132.12 633.68 132.42 633.93 132.4 634.71 132.56 635.15 132.92 635.26 132.97 635.66 132.55 636.07 132.52 637.83 132.83 637.91 132.97 638.45 133.4 638.74 133.49 639.09 133.98 639.65 133.85 640.07 133.47 640.06 132.99 641.07 133.33 641.76 132.79 642.96 133.09 643.16 132.55 643.8 132.78 644.83 132.11 644.98 132.07 645.66 131.37 645.62 130.8 646.32 130.69 647.38 131.25 648.02 130.89 648.6 130.26 648.96 129.87 650.07 130.4 650.49 130.6 651.02 130.33 651.32 130.75 651.68 130.25 652.26 130.25 652.66 130.57 653.74 130.9 653.82 130.38 654.65 129.9 654.99 129.48 655.06 129.06 655.42 128.81 655.86 128.06 655.69 127.54 656.51 127.09 656.84 126.41 656.8 125.72 657.1 124.73 657.68 124.28 658.41 123.45 658.95 122.47 660.34 122.19 661.13 122.13 661.66 122.32 662.7 122.82 663.31 122.98 664.27 122.68 665.28 122.99 665.43 122.83 666.52 122.47 666.58 122.63 667.15 122.36 667.9 121.91 668.12 122.11 668.5 121.66 668.93 121.28 668.96 120.7 670.46 120.71 671.35 120.29 671.87 120.53 672.38 120.14 672.91 119.02 673.79 118.36 674.64 118.14 675.29 118.25 675.77 117.63 676.38 117.64 677.06 117.5 677.58 117.86 677.85 117.65 679.13 117.07 679.86 117.19 680.54 116.53 681.5 116.79 681.85 116.68 682.27 116.25 682.32 115.92 683.85 115.69 684.1 114.84 684.24 114.76 684.53 114.13 684.53 113.56 685.07 113.11 685.08 112.39 685.49 112.23 685.86 111.8 686.09 111.37 686.54 110.77 687.51 110.53 688.92 110.66 690.27 111.25 690.44 111.61 688.83 111.91 689.03 111.52 690.66 111.18 690.82 111.72 691.56 111.22 691.58 110.48 691.94 110.14 692.97 109.98 693.79 109.9 695.11 110.05 696.05 110.49 696.85 111.81 697.39 112.25 697.42 112.35 697.84 113.28 698.88 114.47 699.36 115.04 699.94 115.57 700.26 116.44 700.39 116.93 700.27 117.41 700.6 118.25 701.56 118.81 701.65 119.01 702.28 120 703.66 119.87 704.18 120.17 704.5 120.08 704.96 120.26 705.39 120.22 706.41 119.77 707.3 118.86 707.51 118.55 707.83 118.68 708.48 117.7 709.62 117.67 710.11 117.33 710.3 117.71 711.01 117.36 711.52 116.95 712.47 116.89 712.98 117.14 713.18 116.44 714.31 116.08 714.57 115.79 715.54 115.29 715.51 114.82 716.08 115.22 716.74 115.55 717.56 115.91 717.94 116.44 718.05 116.97 718.61 116.88 719.14 117.55 719.93 117.32 720.26 117.48 720.66 117.85 720.77 118.45 720.65 119.32 720.78 119.29 721.97 118.9 722.31 118.3 722.36 117.82 722.19 117.29 721.79 116.99 721.03 116.71 720.74 115.07 721.34 114.9 721.98 114.51 721.98 114.78 722.69 114.67 723.16 114.18 723.76 113.57 724.01 112.92 723.74 112.14 724.4 111.8 724.99 110.97 725.58 110.76 726.29 111.21 726.44 111.03 726.97 111.3 727.43 111.13 728.12 111.34 728.49 111 728.84 111.02 729.44 109.97 729.47 109.77 729.26 109.05 729.76 108.51 729.39 107.68 729.38 107.3 730.72 106.31 731.52 106.01 731.58 105.9 732.31 105.42 732.8 105.02 732.91 104.79 733.39 104.41 733.6 104.38 734.03 103.56 734.92 103.71 735.77 103.45 736.24 102.95 736.42 101.99 736.99 100.81 736.9 100.39 736.24 100.71 735.84 100.1 735.08 101.11 734.29 100.82 733.76 101.4 731.99 101.91 731.65 102.25 731.22 102.86 730.9 102.46 730.68 102.66 729.94 103.59 729.06 103.3 728.84 103.37 728.32 103.65 727.62 104.11 726.97 103.8 726.71 104.25 726.31 104.19 726.08 103.59 725.74 103.6 725.15 103.26 724.84 102.26 724.94 101.58 725.36 101.32 725.19 101.18 724.59 100.91 724.47 101.04 723.92 100.21 723.88 99.43 723.61 99.36 724.06 98.97 724.06 98.33 724.4 97.64 724.56 97.24 724.51 96.16 725.47 95.63 725.67 94.77 725.38 94.39 726.26 93.68 726.48 93.2 726.03 92.02 726.49 91.61 726.11 91.58 725.61 92.46 724.49 92.12 724.02 91.93 721.55 92.28 721.13 93.16 720.79 93.58 720.26 93.43 719.41 93.11 719.3 92.91 718.8 92.54 718.67 92.04 717.75 92.4 717.32 92.46 716.76 92.82 716.37 92.23 716.07 92.14 715.26 92.29 714.98 91.91 714.18 91.54 713.92 90.38 714.12 90.15 714.35 89.52 714.26 89.89 713.83 89.02 713.33 88.43 713.26 88.04 712.57 87.43 712.09 87.41 710.81 87.56 710.5 86.28 710.52 86.29 709.86 86.7 709.62 86.11 709.09 86.08 708.68 86.94 708.27 87.42 708.57 87.44 709.07 88.28 709.11 89.09 708.81 90.21 708.77 90.87 708.37 91.58 708.12 92.34 708.1 92.46 707.24 92.71 707.27 92.62 708.07 93.46 708.12 94.06 707.19 94.12 706.21 94.3 705.8 94.3 704.62 94.11 703.87 93.89 703.56 92.81 702.91 92.19 702.91 91.57 702.11 90.49 700.89 90.38 700.48 89.51 700.63 89.38 700.32 88.71 700.17 89.09 699.53 90.37 699.39 90.59 699.14 91.48 698.79 92.06 698.83 92.84 698.53 94.11 698.22 94.21 698.01 95.16 697.73 96.27 697.65 96.7 697.45 97.14 697.89 97.86 697.54 98.28 697.53 98.71 696.97 98.52 696.68 98.72 696.05 98.97 695.87 99.3 694.91 98.81 694.3 96.51 694.25 96.26 695.06 95.95 695.17 96.25 694.14 96.69 694.06 98.75 694.12 99.49 693.63 99.44 692.59 99.22 691.77 98.27 690.77 97.6 690.85 97 690.38 96.68 690.3 95.74 688.67 95.43 688.62 95.18 687.83 93.92 686.47 93.39 686.08 92.62 686.02 92.2 686.31 91.42 687.16 91.21 686.96 90.53 687 90 686.88 89.18 686.47 88.62 686.51 88.07 686.06 88.34 685.86 87.94 685.42 88.01 685.2 87.27 684.28 86.7 684.38 86.32 683.98 84.95 683.19 83.09 683.47 83.04 683.71 81.98 683.84 81.52 683.69 80.56 683.07 80.18 682.69 80.14 682.19 79.54 682.21 79.27 681.82 78.96 682.06 78.78 681.5 78.36 681.72 77.02 682.03 76.94 682.17 75.94 682.5 74.97 682.1 75 681.3 74.7 680.98 74.74 679.72 75.03 679.32 74.7 679.02 74.75 677.99 74.67 677.61 74.22 677.24 72.59 677.72 71.85 678 70.41 678.33 69.28 678.16 67.83 678.51 67.35 678.56 67.17 678.01 66.74 677.6 67.28 676.84 67.71 676.45 67.98 675.61 67 675.08 66.32 674.83 65.53 674.26 65.3 673.77 65.55 673.31 67.09 673.29 67.67 672.44 68.33 672.07 69.22 671.84 70.95 672.54 71.7 673.16 72.59 673.45 73.32 673.57 73.78 673.47 73.75 674.19 74.05 674.54 74.77 674.5 74.83 674.04 76.32 674 76.71 674.3 77.19 674.06 77.89 674 78.3 673.68 79.35 672.4 79.78 672.21 80.32 671.72 80.19 671.25 80.71 669.52 80.73 668.94 80.25 668.56 80.26 667.87 81.02 667.43 81.04 666 80.34 665.66 80.01 664.67 80.71 663.86 80.55 663.62 79.95 664.17 78.26 663.16 73.65 663.43 72.54 662.86 72.5 663.3 72.02 664.1 71.8 663.94 71.41 664.9 71.07 666.58 71.35 666.74 71.26 668.02 70.96 668.08 70.81 666.51 71.05 665.24 71.36 664.28 72.41 662.51 73.18 663.02 73.48 662.57 73.48 662.02 72.65 662.15 72 661.87 71.62 661.28 70.69 661.03 69.76 660.39 69.25 659.57 69.04 658.04 68.9 657.56 69.56 655.6 70.62 655.76 71.95 656.19 72.56 656.14 74.05 656.38 74.55 655.91 75.09 655.1 75.53 654.17 75.93 652.95 76.15 651.9 76.14 651.5 76.41 651.08 76.6 649.75 76.68 647.04 76.55 645.85 76.16 644.55 75.01 642.6 73.92 641.4 73.46 640.76 71.01 638.71 70.16 638.32 69.45 638.33 69.12 638.5 68.74 637.55 68.76 637.12 68.15 636.42 67.61 636.24 67.45 635.62 67.02 635.7 66.86 635.13 66.82 634.26 67.25 634.02 67.03 633.44 67.22 633.2 67.05 632.7 66.64 632.17 66.29 631.4 65.54 630.87 64.65 630.5 62.98 630.12 61.09 630 60.7 630.09 60.19 630.49 59.64 630.31 59.67 630.75 59.07 630.97 58.3 630.82 57.43 630.79 57.02 630.95 56.2 630.56 55.48 629.68 55.94 629.38 55.2 628.71 54.52 628.89 53.77 628.2 53.22 626.44 53.39 625.56 53.75 625.22 53.86 624.69 53.77 624.04 54.03 623.63 53.83 622.84 53.13 621.32 52.47 621.43 52.64 620.74 52.71 619.65 53.5 619.47 53.42 619.1 53.95 618.95 54.31 619.08 55.17 618.98 55.61 618.75 55.88 618.37 56.34 618.43 56.61 618.15 57.57 617.7 58.47 617.71 58.56 617.51 59.22 617.47 60.25 617.15 61.1 617.04 62.05 617.11 61.76 616.72 59.65 616.89 58.2 617.17 57.12 617.51 55.55 618.21 54.87 618.39 53.04 618.51 52.7 618.67 52.1 619.33 52.06 620.41 51.8 620.64 43.95 620.76 43.68 618.92 43.86 617.78 43.71 614.44 43.56 605.92 43.62 605.75 45.9 604.86 47.07 604.45 48.57 604.13 47.83 599.94 64.34 596.19 71.32 594.64 86.09 591.39 89.48 590.63 104.99 587.2 104.77 575.8 86.6 576.16 73.71 576.42 Z M 234.77 552.08 235.52 552.12 235.91 552.31 235.68 552.69 235.11 552.87 234.34 553.35 233.89 553.32 233.41 552.93 232.32 552.75 232.21 553.03 231.69 553.07 231.52 553.51 230.94 553.78 230.37 553.68 230.29 553.02 230.82 552.77 231.38 552.76 231.54 552.47 232.43 552.17 233.26 552.19 233.51 552.08 234.77 552.08 Z M 513.68 552.86 511.4 555.45 511.14 555.21 518.33 547.11 518.32 547.08 522.03 542.89 522.32 543.15 518.56 547.36 513.68 552.86 Z M 543.34 542 543.01 542.9 542.22 543 541.94 542.8 542.43 542.18 543.34 542 Z M 543.35 540.25 543.74 540.69 543.52 541.2 543.12 541.37 542.46 541.93 541.67 541.64 541.92 541.13 541.7 540.65 542.14 540.35 543.35 540.25 Z M 542.68 539.66 542.21 539.68 542.29 539.19 543.19 538.94 543.05 539.55 542.68 539.66 Z M 541.74 538.87 541.28 538.76 541.53 538.17 541.51 537.51 542 536.51 542.22 536.83 542.38 537.82 542.06 538.59 541.74 538.87 Z M 531.18 531.76 530.75 532.07 529.82 531.93 529.62 531.31 530.63 531.19 531.18 531.76 Z M 537.94 529.69 538.25 529.68 538.53 530.08 538.47 530.38 539.05 530.49 539.19 530.82 539.03 531.4 538.24 532.01 537.91 531.76 537.8 530.8 537.54 529.91 537.94 529.69 Z M 447.3 522.48 445.37 524.28 445.34 524.72 445.77 525.24 445.92 526.08 445.54 526.79 445.05 527.07 444.56 527.12 443.9 526.85 443.31 526.33 441.79 527.8 441.48 527.97 445.55 530.34 444.58 532.18 445.01 532.41 446.08 530.62 450.34 532.92 451.86 533.63 451.83 533.72 455.43 535.71 459.23 539.28 463.8 545.25 464.68 546.43 467.68 550.32 469.56 551.77 472 549.76 471.09 548.65 469.44 547.22 469.38 546.88 471.98 549.13 472.35 549.57 472.31 550 470.73 551.29 470.24 551.41 470.31 552.29 470.06 552.5 470.18 552.99 472.14 555.23 472.2 555.62 469.92 557.6 469.53 558.08 470.03 558.43 470.75 558.28 472.14 560.59 477.18 557.58 477.95 555.37 477.64 553.77 477.88 553.72 478.26 555.48 478.55 555.57 477.82 557.67 477.87 558.01 478.69 557.52 478.86 557.82 472.27 561.76 472.64 562.39 473.01 562.63 473.06 563.08 475.56 567.27 476.07 567.82 476.48 568.81 478.42 572.07 478.7 572.59 478.59 572.9 479.55 574.57 479.58 574.92 480.21 575.04 482.12 573.91 481.79 573.21 484.4 568.48 484.62 568.61 484.23 569.32 484.44 569.62 485.13 569.09 485.19 568.87 487.22 567.33 489.96 565.19 490.78 564.28 491.92 563.47 492.03 563.23 493.93 562.73 494.09 562.85 494.85 562.59 495.35 562.91 496.87 562.78 497.22 563.59 496.83 563.74 497.24 564.27 497.14 564.94 496.34 565.81 496.67 566.14 496.54 566.95 496.18 568.19 495.83 568.84 495.77 569.42 495.25 570.23 494.02 570.24 492.42 570.75 491.96 571.18 491.54 571.22 490.88 571.84 490.42 572.53 490 573.54 490.04 574.49 489.76 574.73 488.99 574.59 488.82 575.11 487.61 575.71 487.41 575.72 485.7 576.55 484.14 577.23 483.73 577.24 482.46 574.82 482.21 574.74 479.09 576.6 477.11 577.76 474.27 579.47 473.61 579.84 473.69 580.83 473.84 581.2 474.37 581.64 475.35 582.72 475.85 581.83 475.39 580.3 475.62 580.39 476.08 581.94 480 582.67 480.31 582.68 479.43 580.13 479.15 579.62 479.73 579.48 480.83 582.67 480.76 583.62 480.78 585.6 480.62 586.11 480.77 586.84 481.48 587.33 481.31 587.49 481.94 588.64 482.35 589.2 482.21 589.76 482.75 591.04 482.95 591.74 483.46 592.12 483.71 592.7 484.36 593.84 485.76 595.35 486.14 595.21 487.65 596.25 487.71 596.49 488.49 597.08 489.29 597.23 490.07 597.94 490.87 598.39 491.63 598.29 492.55 598.79 492.98 598.86 493.67 598.52 493.81 598.97 494.25 598.61 494.57 598.73 495.07 599.5 495.51 599.5 496.07 599.94 496.86 599.86 497.68 600.02 498.54 600.33 498.41 600.89 497.8 601.56 497.74 602.01 498.12 602.73 497.67 602.97 497.42 603.44 496.43 603.75 496.57 604.52 496.21 604.62 496.03 605.08 496.5 605.95 496.34 606.27 495.59 606.47 495.12 607.39 494.55 607.8 494.74 608.22 493.86 608.36 493.69 608.98 494.2 609.57 493.95 609.88 493.04 610.2 492.82 610.49 492.48 611.51 492.47 612.19 493.06 612.57 493.12 613.08 493.9 613.64 493.74 614.24 493.33 614.27 492.55 614.74 492.84 614.98 491.57 616.35 491.15 616.46 490.67 616.98 489.95 616.97 489.44 617.45 488.61 617.49 487.69 618.19 487.34 618.6 485.81 619.36 485.3 619.1 484.94 619.44 484.03 619.67 483.21 619.54 483.25 619.04 482.68 618.47 481.81 618.2 481.03 618.11 480.78 617.76 479.9 617.96 479.14 617.93 478.45 617.61 477.47 616.63 477.59 616.08 477.4 615.69 477.53 614.94 477.08 614.62 477.33 613.99 476.79 614.06 476.47 613.4 476.38 612.04 476.53 611.46 476.97 611.37 477.17 611.02 477.03 610.66 477.24 609.95 476.98 609.71 476.76 609.02 476.96 608.61 476.43 607.81 475.46 607.1 475 607.72 474.56 607.85 474.01 607.05 473.6 606.87 473.62 604.96 472.88 603.95 472.34 603.34 472.94 602.98 471.81 602.3 471.09 601.03 470.21 600.95 470.34 600.23 469.61 599.6 468.85 599.31 468.09 599.16 467.01 599.12 466.49 599.21 466.23 599.51 465.88 599.38 465.65 599.76 465.02 599.82 464.49 600.26 463.86 601.46 463.46 602.02 462.95 602.31 462.36 602.98 461.76 602.83 461.3 603.1 460.42 603.36 460.41 602.94 460.76 602.59 460.5 602.11 459.73 601.97 459.89 601.46 459.42 600.52 459.15 600.35 458.45 600.3 458.39 599.51 457.37 599.28 456.63 599.51 456.09 599.52 455.6 599.02 454.89 598.82 454.4 598.37 453.83 598.25 451.91 598.41 451.31 597.99 450.96 597.47 450.92 596.44 451.4 595.05 451.24 594.93 451.35 593.89 451.15 593.47 451.44 593.19 451.25 591.51 451.42 590.87 451.94 590.23 452.08 589.43 451.99 588.37 452.06 587.89 452.39 587.22 452.18 586.74 451.91 586.68 450.7 587.01 449.89 586.61 450.01 586.22 450.45 586.31 450.64 586.62 451.71 586.32 451.55 585.68 452.08 585.43 451.69 585.05 451.1 585.62 450.79 585.2 449.42 584.28 447.94 583.8 447.25 583.68 446.32 583.73 445.49 584.06 445.27 583.8 444.36 583.82 444.06 583.56 443.35 583.32 442.13 583.18 441.88 583.79 441.28 583.91 440.47 583.84 439.38 584.02 439.17 583.4 439.54 582.83 439.16 582.41 438.51 582.36 438.37 581.99 437.99 581.91 437.5 581.5 436.99 581.6 436.68 581.26 436.04 581.56 435.62 580.94 434.47 580.61 434.21 580.19 433.48 579.94 433.42 579.73 432.71 579.22 431.96 579.08 431.86 578.47 430.67 577.9 430.47 577.42 429.54 577.06 429.63 576.88 428.6 576.26 428.12 575.87 427.2 574.75 426.55 574.25 425.73 573.93 425.63 574.07 424.87 573.74 424.68 573.24 423.83 572.57 422.6 571.3 421.72 570.11 420.09 568.49 419.55 567.83 418.57 566.91 417.42 566.12 417.21 565.83 416.31 565.16 415.82 564.35 415.13 564.11 414.44 564.34 414.24 564.18 413.41 564.59 411.41 562.72 410.94 562.04 410.73 562.06 408.34 559.63 405.25 556.56 404.5 556.54 403.68 557.35 403.33 557.33 403.23 556.62 403.74 556.41 404.74 555.49 404.85 555.1 404.72 554.4 405 553.85 404.69 552.97 404.97 552.22 404.63 551.33 404.14 550.87 402.83 550.01 401.87 550 401.69 549.79 402.85 549.68 403.94 549.04 403.95 548.72 404.75 548.46 405.34 548.57 407.21 549.36 407.63 549.2 408.07 548.16 405.64 547.16 405.26 547.8 403.7 548.32 403.4 548.24 402.88 547.4 402.33 547.65 401.53 546.17 401.83 545.83 401.47 545.2 401.23 545.13 400.49 543.6 400.27 543.54 400.06 542.82 400.19 540.9 400.75 540.34 403.02 539.68 403.59 540.26 403.13 540.59 403.48 541.16 403.02 541.23 403.12 541.61 404.36 541.49 405.45 542.6 409.02 544.09 409.45 543.14 408.4 542.69 407.36 539.34 409.48 538.69 410.11 540.75 410.84 541.04 411.02 540.91 411.33 538.78 413.23 537.31 414.29 536.73 419.4 534.64 420.46 535.04 420.53 534.78 421.08 534.83 421.28 534.29 423.6 535.25 423.85 535.57 423.7 536.13 424.24 536.32 424.8 536.94 425.61 537.12 426.43 537.47 426.9 536.18 424.95 535.46 424.45 534.03 424.69 532.79 427.29 531.81 425.68 527.62 425.91 527.54 428.34 533.89 429.96 533.3 430.65 535.1 431.43 534.8 431.41 534.62 429.52 529.79 429.6 529.61 431.05 529.02 435.66 527.23 435.77 527.31 437.4 527.1 438.03 527.8 438.8 527.38 440.18 525.33 440.33 525.35 441.52 523.46 442.63 524.16 440.74 527.12 440.65 527.39 441.11 527.75 441.42 527.13 443.63 524.57 444.48 523.69 445.09 524.18 446.92 522.52 447.09 522.22 446.21 521.43 446.9 520.55 448.01 521.54 447.87 521.94 447.3 522.48 Z M 557.3 420.13 558.09 420.08 558.73 420.74 559.23 421.09 558.93 421.36 557.91 420.38 556.77 420.5 556.71 420.04 557.3 420.13 Z M 684.37 367.42 683.72 368.42 683.67 367.74 684.16 367.23 684.37 367.42 Z M 685.65 353.27 685.46 353.01 686.94 352.05 687.04 352.34 686.55 352.6 685.65 353.27 Z M 697.7 317.68 697.78 318.02 697.48 318.46 697.04 318.32 695.48 318.29 693.2 318.17 692.96 317.82 693.18 317.53 693.78 317.6 696.72 317.71 697.45 317.47 697.7 317.68 Z M 691.97 311.68 691.95 312.07 691.47 312.11 691.27 311.82 691.6 311.39 691.97 311.68 Z M 691.33 309.53 691.51 310.19 690.99 310.21 691.49 310.92 691.26 311.75 691.06 311.89 690.05 311.24 689.85 309.83 689.88 309.11 689.67 308.2 691.23 307.74 691.54 308.6 691.33 309.53 Z M 723.91 260.52 723.71 261.16 723.24 261 723.91 260.52 Z M 736.13 166.78 736.02 165.64 735.27 164.12 735.52 164.02 736.43 165.66 736.37 166.28 736.13 166.78 Z M 735.45 157.12 735.95 159.01 735.63 159.06 735.12 157.21 735.45 157.12 Z M 797.53 104.52 798.03 107.61 798.16 107.99 798.44 110.28 798.95 113.65 799 114.31 798.89 115.29 798.59 115.95 797.92 116.98 797.06 118.58 796.38 118.63 796.06 118.31 796.4 117.53 797.01 117.24 798.16 115.33 798.35 114.09 797.81 110.24 797.45 107.87 797.41 107.33 797.04 104.7 796.66 104.19 795.54 104.85 795.64 106.41 795.33 106.43 795.39 107.31 795.7 107.29 795.8 108.81 795.49 108.83 795.54 109.62 795.85 109.6 796.06 112.79 795.77 113.97 794.96 114.72 794.68 114.55 794.01 115.67 794.27 116.42 794.2 116.76 793.71 117.56 791.91 118.6 792.89 119.19 793.32 119.56 793.13 119.9 791.89 119.21 791.02 119.18 790.82 119.74 790.83 121.5 791.08 122.1 792.8 121.66 793.12 121.44 793.87 120.09 794.33 119.95 794.44 120.34 793.52 122.08 791.4 122.65 789.97 125.26 789.64 125.59 781.87 126.4 778.18 126.4 775.33 125.64 773.98 124.87 773.58 123.7 773.08 123.47 771.93 123.47 771.41 123.19 770.81 122.63 770.75 122.09 771.01 121.97 772.03 122.91 772.78 123.13 773.34 122.92 773 122.04 773.17 121.88 773.01 120.89 772.33 120.72 771.66 121.41 771.5 121.18 772.04 120.64 772.46 120.49 772.51 118.66 773.11 118.63 773.12 116.96 773.04 116.8 772.05 116.39 771.75 115.64 771.52 116.41 770.49 116.48 768.53 116.39 768.11 116.2 768.16 114.65 767.29 114.45 767.37 114.21 768.02 114.11 768.2 112.68 768.23 111.82 767.85 111.73 767.43 113.19 767.27 113.1 767.53 112.24 766.5 112.14 766.41 111.86 765.28 111.8 764.84 111.97 763.56 111.86 763.33 111.21 761.58 111.48 761.23 112.35 758.8 113.14 758.35 112.65 756.7 113.21 756.2 113.61 756.66 114.68 757.06 115.07 758.29 115.05 759.03 114.72 759.32 114.89 758.36 115.32 756.96 115.34 756.54 114.92 755.61 115.22 755.44 114.73 754.16 114.95 753.75 115.29 753.44 115.85 752.9 116.42 751.68 117.3 750.22 117.58 749.37 117.82 749.13 117.77 747.71 118.23 747.51 118.82 747.03 119.24 746.91 119.79 745.99 120.18 745.84 120.7 745.45 120.76 745.31 120.24 744.83 120.11 744.43 120.39 743.72 120.45 743.04 121 742.47 121.75 742.32 122.21 742.83 122.65 742.69 122.85 741.82 122.13 741.1 122.69 741.73 123.49 742.73 123.75 743.07 122.97 743.52 123.06 743.03 123.85 742.79 124.03 741.47 123.64 741.07 123.15 740.67 123.13 740.07 123.55 738.39 125.47 737.28 127.36 736.72 128.64 735.55 131.9 735.59 132.24 736.6 132.87 736.25 132.97 735.12 132.22 734.88 131.78 734.43 131.95 734.53 132.77 734.9 133.57 735.41 134.2 734.73 135.28 734.74 136.13 734.18 136.48 734.28 137.01 734.04 137.13 733.74 138.14 733.7 138.81 733.43 139.77 733.13 142.12 733.52 142.95 733.33 143.56 732.88 143.96 732.06 145.04 731.58 146 731.32 147.09 731 147.58 731.01 148.23 732.04 148.91 732.3 149.65 732.01 150.25 731.72 150.14 732.02 149.59 731.72 149.16 730.89 148.53 730.24 148.26 728.92 149.75 728.91 150.73 729.21 151.55 729.62 152.36 730.08 153.81 730.84 154.7 731.25 154.61 731.73 154.03 732.04 154.29 731.56 154.88 731.99 155.23 732.66 154.46 733.81 152.27 734.01 152.23 733.92 150.87 734.28 151.05 734.33 152.49 733.37 154.08 732.95 154.58 732.61 155.98 731.83 157.71 731.67 158.49 731.79 159.71 732.03 160.38 732.01 161.2 732.97 161.78 733.07 163.19 733.24 163.83 733.74 163.79 733.82 164.1 734.63 163.89 736.27 161.25 735.97 160.7 736.36 160.61 736.66 161.47 735.72 163.03 735.23 163.48 734.67 164.41 733.72 164.67 733.54 164.84 733.99 165.59 735.05 165.07 735.24 165.56 734.74 166.08 734.08 166.37 733.72 167.7 733.67 168.37 733.84 168.89 733.67 169.26 734.03 169.92 734.4 170.25 733.86 170.81 734.18 171.22 733.51 171.77 734.02 171.89 733.33 172.44 733.44 173.02 733.11 173.34 733.19 174.17 733.55 175.14 734.32 174.82 734.09 175.51 733.54 175.52 733.16 176.05 733.35 176.32 732.94 177.36 732.38 177.25 731.02 178.5 730.73 179.07 731.6 179.97 731.15 180.08 730.35 179.11 729.92 179.05 729.15 179.46 728.64 180.3 728.55 180.94 729.13 182.4 729.72 183.05 731.01 183.02 731.09 182.73 730.83 181.03 731.33 181.27 731.52 182.39 731.64 183.76 731.35 184.44 730.53 185.32 730.61 185.7 731.03 186.24 731.08 187.41 731.45 188.33 733.29 190.33 733.71 190.24 734 190.51 733.78 191.2 732.57 191.68 732.96 192.22 732.29 192.55 730.99 192.47 731.01 193.39 730.83 193.39 730.8 192.31 730.37 192.02 729.83 192.02 729.24 192.36 728.76 192.29 728.51 192.9 727.94 192.9 727.57 193.29 727.46 193.81 727.08 194.31 727.04 194.88 726.48 195.84 726.41 196.69 726.67 198.04 726.55 199.04 726.18 199.81 726.57 199.89 726.53 200.54 726.67 201.24 726.56 201.62 726.7 202.94 726.61 204.46 726.83 205.92 726.31 206.43 725.87 207.23 726.04 207.71 725.48 208.23 725.74 208.62 724.92 209.29 725.06 209.7 724.36 209.83 724.03 210.15 723.75 210.98 723.18 211.9 722.73 212.25 722.19 212.32 721.56 212.89 720.85 212.86 720.28 212.08 719.6 211.61 719.24 211.22 718.49 211.44 718.22 211.98 717.95 211.5 716.44 211.44 716.43 211 715.25 211.65 714.1 211.37 713.77 213.08 713.8 215.15 713.18 214.94 713.1 213.38 713.71 210.47 713.08 210.35 712 210.68 710.39 212.31 709.75 213.59 709.41 213.98 709.24 214.82 709.05 214.82 709.03 216.11 709.48 216.78 709.54 217.14 710.16 217.63 710.84 218.4 711.03 218.88 710.71 219.27 710.48 220.11 710.57 220.27 710.48 221.47 710.23 221.98 708.86 222.53 709.44 223.8 709.9 223.92 708.79 224.97 708.61 225.41 708.6 226.32 708.3 226.47 708.11 225.68 708.24 224.6 708.04 224.37 706.58 223.8 705.53 223.9 704.91 224.37 704.38 225.2 704.34 226.35 704.09 227.02 703.86 226.83 704.16 225.39 703.89 225.32 703.88 224.71 702.52 224.53 701.83 224.74 700.25 225.94 699.85 225.46 700.16 225.09 699.88 224.58 698.18 224.54 697.79 224.6 697 225.13 697.21 225.88 696.7 226.14 696.29 226.65 695.46 228.1 695.09 229.52 694.95 230.52 695.05 231.98 695.46 233.58 696.02 235.02 696.89 236.3 697.65 236.96 698.83 237.45 699.15 237.35 699.58 236.84 700.57 236.6 701.31 237.34 702.59 237.98 703.16 238.04 703.78 237.86 704.28 237.31 704.71 237.07 706.19 235.11 706.94 234.51 707.22 234.77 707.78 234.83 708.62 234.6 708.73 234.14 709.13 234.02 709.15 233.57 709.74 233.09 711.3 233.6 712.25 232.73 712.42 232.9 711.39 233.84 711.93 236.47 712.91 236.68 713.9 236.24 714.79 234.58 715.72 233.76 715.71 233.58 714.25 231.19 713.3 231.21 713.2 230.82 714.37 230.75 714.56 230.88 716.08 233.37 716.24 233.73 716.75 233.85 717.03 233.56 717.35 233.8 718.62 233.53 718.73 234.17 719.25 233.97 719.52 234.84 719.96 235.01 720.52 234.63 720.68 234.25 720.4 233.96 720.54 233.32 721.29 232.59 722.01 232.39 721.99 233.24 722.66 233.3 722.97 233.86 722.75 234.42 722.2 234.86 722.57 235.36 722.55 235.84 722.22 235.89 722.5 236.76 721.99 236.83 722.35 237.56 722.58 237.42 724.22 238.39 724.24 238.79 723.1 239.1 722.77 239.58 722.44 239.54 722.14 239.92 721.97 240.69 722.11 241.68 722.5 242.54 722.98 243.3 722.87 243.98 723.12 245.49 723.26 245.82 723.75 245.9 723.63 246.34 723.16 246.37 723.24 247.48 723.66 248.4 723.83 249.2 724.16 249.63 724.36 250.22 724.23 250.78 724.3 252.61 724.11 252.79 723.87 253.6 724.09 254.88 723.82 255.8 724.13 256.6 724.76 256.49 724.81 257.32 724.35 257.23 723.97 257.95 723.54 257.72 723.36 258.04 723.49 258.86 722.95 259.05 723.14 259.66 722.55 259.9 721.51 261.23 720.31 261.99 719.66 262.14 718.91 261.91 717.95 261.19 717.21 261.05 717.33 260.66 717.24 259.84 716.78 259.88 716.34 259.49 716.27 258.85 715.68 258.57 714.51 259.23 714.97 260.55 714.89 261.29 714.32 261.68 713.78 261.82 713.51 262.15 712.74 262.26 712.56 261.89 711.96 261.53 711.57 261.57 711.37 262.12 711.83 262.6 711.93 263.49 712.23 264.54 713.08 265.47 713.58 265.68 714.18 265.73 714.02 264.8 714.8 264.51 715.72 263.99 716.07 263.54 716.6 262.27 716.99 262.34 716.26 263.85 716.18 264.32 715.75 264.89 715.92 265.73 716.55 265.65 716.4 266.44 717.45 266.92 718.38 266.87 718.87 267.52 719.67 267.67 719.35 268.19 718.86 268.4 718.4 268.06 717.67 268.34 717.72 268.8 717.43 269.36 717.85 269.47 718 270.02 717.82 270.37 717.29 270.77 716.9 270.33 716.33 270.7 715.36 270.92 714.87 270.88 714.64 271.14 714.69 271.56 715.23 272.07 715.08 272.53 714.27 273.83 713.83 274.09 713.3 273.85 712.46 274.39 712.36 274.03 712.97 273.64 712.29 272.71 710.75 273.15 710.43 272.27 709.7 272.36 709.92 273.74 709.55 274.9 709.82 275.35 710.67 274.86 710.5 275.67 710.63 276.12 710.35 276.49 710.99 276.58 710.65 277.36 710.93 277.88 711.34 278.09 711.92 278.77 712.38 278.48 712.72 278.49 712.96 279.2 713.91 279.08 714.27 279.39 714.31 279.73 713.94 280.03 713.47 279.7 713.01 280.69 712.8 282.1 712.34 282.12 712.26 282.61 712.81 282.61 712.98 282.86 712.82 283.36 712.44 283.79 712.57 284.84 713.56 284.97 713.65 285.63 713.2 286.2 712.87 286.26 712.53 286.74 711.8 286.69 710.63 287.07 710.56 287.89 710.17 287.76 709.64 288.54 708.77 289.03 708.24 288.79 707.85 289.09 707.44 288.83 707.17 288.95 706.71 288.58 706.29 288.99 706.45 289.3 706.24 289.8 706.41 290.18 706.78 290.01 706.63 290.99 706.91 291.23 706.71 291.79 707.11 291.99 706.79 292.44 706.41 292.45 705.73 292.73 705.62 293.11 705.1 293.41 705.41 294 705.65 293.68 706.4 293.85 706.6 294.22 706.07 294.63 705.87 294.97 706.46 295.97 706.6 296.95 706.99 297.15 706.62 297.72 705.89 297.96 705.42 298.56 705.73 299.17 705.46 299.55 705.88 299.79 705.83 300.85 705.37 301.18 704.72 301.04 704.97 301.6 704.54 302.21 704.99 302.94 704.57 303.19 704.49 303.73 703.57 304.21 703.25 305.03 702.88 304.78 701.95 305.08 701.21 304.67 700.88 305.05 700.56 304.86 699.91 305.91 699.71 305.97 699.14 308.14 699.22 308.39 698.39 312.03 698.21 312.5 697.74 313.08 696.45 314.41 695.98 314.44 695.71 314 695.99 313.65 696.32 313.72 697.57 312.39 697.53 312.08 697.8 310.96 697.79 310.28 697.95 309.64 698.29 309.72 699.02 306.73 698.5 306.6 698.55 306.31 697.27 306.11 697.29 305.94 692.15 305.08 691.13 303.38 690.32 303.86 689.91 303.58 689.89 303.14 691.76 302.01 691.36 298.63 689.78 298.09 686.75 298.23 686.72 299.79 686.88 300.51 687.36 303.47 688.64 306.33 687.46 307.45 688.93 309.09 688.75 309.74 688.09 310.28 687.36 310.16 686.7 310.33 685.98 311.1 685.61 311.87 684.62 312.42 683.83 313.48 683.74 313.91 683.96 314.22 683.81 315.21 683.57 315.54 683.52 316.52 683.23 316.6 683.34 315.77 682.75 315.71 682.7 315.33 681.35 315.95 681.59 316.4 680.98 316.74 680.92 317.72 680.21 317.74 679.95 317.98 679.44 318.84 679.34 319.4 679.46 320 679.97 320.01 680.56 320.4 681.21 321.01 680.83 322.3 680.9 322.82 680.64 323.25 681.2 323.31 681.41 324.12 681.13 324.5 681.74 325.35 682.02 326.18 682.34 326.42 683.11 326.54 683.34 326.87 683.17 327.2 683.44 327.54 683.75 327.48 683.95 328.42 684.41 328.88 685.36 329.25 685.73 329.19 686.4 329.77 686.63 330.37 687.39 329.99 687.31 330.74 687.09 331.01 687.51 331.53 687.91 331.75 688.59 331.18 688.66 331.6 689.24 331.7 690 331.22 690.2 331.48 689.77 331.86 689.82 332.98 689.13 333.33 689.36 334.11 689.88 333.82 690.34 333.76 690.16 334.5 690.6 334.3 690.75 334.77 691.68 334.75 691.93 335.54 691.7 335.79 691.87 336.28 691.47 337.09 690.86 337.75 690.99 338.16 691.61 338.14 691.33 338.87 691.51 339.23 692.61 339.96 693.51 339.28 694.12 339.17 694.35 339.55 693.58 341.11 692.82 340.63 692.44 341.11 692.11 341.88 692.31 342.51 691.82 342.84 692.31 343.08 692.31 343.46 691.74 343.6 692.12 344.05 691.79 344.23 691.87 344.81 692.17 345.38 692.62 345.69 692.3 346.15 691.96 346.1 691.69 346.52 691.3 347.53 691.6 348.38 690.95 348.44 690.59 348.28 690.24 348.44 689.63 349.03 688.36 349.18 688.13 350.03 687.52 351.39 687.13 351.28 688 349.4 687.49 348.91 686.73 348.66 686.18 349.25 686.07 348.9 686.52 348.47 685.63 348.01 685.16 348.32 685.71 348.98 685.09 348.92 684.83 349.19 684.49 349.93 684.54 351.42 683.92 351.55 684.07 352.04 684.06 353 684.9 353.83 685.12 354.26 684.81 354.58 684.6 355.45 684.77 355.89 685.45 355.64 685.58 356.42 685.33 356.89 684.47 357.3 684.14 357.08 683.59 357.15 682.93 357.96 683.37 358.97 683.25 359.32 682.5 360.19 682.18 360.36 682.25 361.25 682.66 361.29 682.87 361.64 682.67 362.18 682.68 362.74 682.9 363.27 683.6 363.22 683.72 363.79 683.12 365.05 682.91 365.1 682.3 366.46 682.92 367.05 683.37 366.37 683.8 366.83 683.49 367.33 683.6 367.98 682.58 368.64 682.59 369.25 682.27 369.6 681.54 369.75 681.28 369.09 680.8 369.31 680.6 369.75 679.95 369.92 679.77 370.48 679.9 371.17 678.99 371.15 678.93 370.83 678.22 371.12 678.4 371.41 678.13 371.78 676.45 371.85 675.87 371.13 675.85 370.65 675.36 370.34 674.81 369.79 674.65 369.27 674.61 368.37 674.41 367.79 673.91 367.18 673.44 367.55 673.21 367.15 672.94 365.65 671.9 365.54 671.23 365.8 670.77 366.89 670.51 367.01 669.75 366.76 669.36 366.89 668.88 367.57 668.84 367.86 668.22 367.87 668.16 368.44 667.4 368.85 667.43 369.69 667.94 370.22 668 371.27 667.58 371.63 668.39 372.44 668.13 372.72 666.62 371.38 666.25 371.74 666.02 371.21 665.6 370.67 665.22 370.82 664.79 371.29 664.72 371.61 665.91 372.11 665.62 372.49 666.71 373.19 667.23 373.83 667.42 374.27 666.56 374.95 666.26 374.98 665.77 374.62 665.47 375.15 665.58 375.9 666.17 375.9 666.21 376.28 665.83 376.73 665.62 376.53 665.03 377.08 664.69 376.89 665.16 376.49 664.82 376.1 664.33 376.41 663.81 376.41 663.91 375.97 664.25 375.48 664.1 374.67 663.79 374.45 662.97 374.43 662 374.6 661.3 375.09 659.33 375.98 658.07 376.17 657.75 376.78 657.16 377.05 656.66 378.07 656.74 378.38 657.74 379.3 658.54 378.91 659.09 378.05 659.35 378.22 659.1 378.85 658.78 379.22 657.45 379.81 657.48 380.46 657.79 381.3 657.15 381.27 656.96 381.81 656.58 381.51 656.52 380.78 655.91 380.88 655.42 380.69 655.57 380.16 655.41 379.28 654.65 378.74 653.69 378.7 652.39 378.85 650.52 379.53 649.33 380.36 647.73 382.03 646.6 383.64 645.76 385.21 645.04 386.89 644.6 388.28 645.04 389.15 645.39 389.15 645.4 389.63 646.62 389.59 646.63 389.73 645.4 389.72 645.38 390.63 645.24 390.76 645.32 391.6 645.66 392.61 645.05 393.59 645.47 393.76 645.4 394.43 645.65 394.85 645.13 395.92 644.83 396.25 644.57 397.54 644.64 398.06 644.34 398.27 644.43 399.13 645.1 398.86 645.88 398.97 645.77 399.33 645.14 399.13 644.82 399.7 644.57 399.78 644.24 400.88 644.18 401.34 643.82 401.78 643.86 402.47 643.56 403.74 644.08 403.91 644.26 404.33 643.92 404.58 643.72 406.35 643.78 406.75 643.22 407.94 643.19 408.78 642.88 409.06 642.32 409.24 642.02 410.01 642.3 410.3 641.95 410.74 641.25 410.87 640.51 411.75 640.82 412.15 640.51 412.55 640.6 412.92 640.45 414.2 640.53 414.94 640.42 415.39 639.37 415.54 638.7 415.24 638.1 415.6 637.88 415.51 636.34 417.39 635.9 417.21 636.41 416.7 637.24 415.65 636.67 415.14 635.75 415.5 635.55 415.83 634.57 416.33 634.17 416.22 634.96 417.54 635.5 418.05 635.14 418.35 634.65 417.82 633.82 416.48 633.25 416.48 632.42 416.73 631.48 416.55 630.27 416.75 629.02 417.41 628.23 418.53 626.94 420.09 626.54 420.65 626.16 421.44 626.12 422.29 625.65 422.78 624.11 424 623.66 424.1 622.83 424.75 622.2 425.09 621.89 425.46 621.37 425.68 620.32 425.8 619.94 425.66 619.11 425.68 618.21 425.41 617.4 425.52 616.73 425.47 615.74 425.55 615.24 425.38 614.33 424.68 614.3 424.44 613.42 424.21 613.23 424.01 610.24 422.67 609.49 422.24 608.61 421.43 607.4 420.97 607.02 421.09 606.49 420.86 605.49 421.15 605.21 420.72 606.83 420.42 606.99 419.95 606.56 419.64 605.89 420.02 604.24 418.44 604.01 418.46 602.79 419.76 602.49 419.59 603.81 418.25 601.83 418.17 599.65 418.39 596.69 418.5 595.51 418.61 592.93 419.04 591.71 419.29 590.61 419.59 586.77 420.86 585.41 421.4 584.59 421.8 583.26 422.62 581.75 423.82 581.7 425.13 581.79 425.34 581.56 426.5 581.31 426.85 580.89 426.98 579.99 428.05 580.16 428.71 579.67 429.54 579.87 429.97 579.22 431.6 579.41 431.93 577.99 432.01 577.28 432.43 577.07 432.2 576.12 432.23 575.93 432.72 575.16 432.64 574.67 432.85 574.43 432.62 574.22 431.5 574.6 430.41 574.31 429.99 574.67 429.75 574.76 429.06 575.14 428.38 574.89 427.57 574.46 427.44 574.44 426.94 575.27 426.85 575.51 426.44 575.97 424.33 576.28 423.55 579.62 421.1 579.19 420.71 578.4 421.35 576.44 422.14 572.85 423.3 572.68 423.64 572.23 423.67 571.82 423.99 571.12 424.9 570.8 427.18 570.99 427.61 571.43 427.37 571.62 427.63 570.82 427.95 570.56 428.65 570.19 429.06 569.74 429.27 569.18 429.29 563.97 427.61 563.2 427.31 562.61 426.88 561.93 426.1 561.64 425.56 561.23 424.31 560.41 422.92 559.7 422.24 558.52 422.25 558.6 421.88 559.89 421.91 560.6 422.64 561.13 422.2 562.61 420.76 562.61 420.08 560.67 418.11 560.09 418.11 559.78 417.92 559.74 417.17 557.8 415.2 557.12 415.2 556.1 416.19 556.19 416.29 555.21 417.17 556.88 418.87 556.62 418.99 552.83 415.14 553.13 415.12 554.29 413.97 553.23 412.77 551.07 413.59 551.75 414.09 551.7 414.29 550.18 413.21 545.99 415.52 547.34 417.2 551.95 423.22 552.47 423.8 552.73 424.93 552.71 425.64 552.33 426.43 551.73 427.06 550.85 427.53 546.8 428.75 547.04 429.03 546.83 429.42 544.86 430.46 544.68 430.03 546.52 429.06 546.12 428.71 545.93 428.13 542.46 429.22 540.77 429.78 540.95 430.38 543.86 431.04 545.17 431.41 546.03 431.12 546.41 430.82 546.6 431.39 545.21 431.91 544.46 431.78 540.69 430.85 540.33 430.16 536.82 431.25 536.4 431.22 536.46 430.64 535.89 428.68 535.59 428.16 534.25 427.96 533.51 427.97 532.16 428.24 530.89 428.9 529.83 429.65 528.36 431.02 527.28 432.14 526.28 433.41 524.3 436.48 523.71 437.63 523.43 438.43 523.09 439.74 522.95 441.16 523.1 442.55 523.36 443.17 523.84 443.45 526.48 443.42 526.75 443.16 527.31 443.35 527.37 444.27 527.22 445.41 527.19 450.52 527.22 453.62 527.3 454.7 526.53 455.05 526.33 454.99 524 455.68 523 457.74 522.73 457.95 522.03 459.23 521.83 459.05 522.6 457.46 522.14 457.24 521.42 458.11 521.29 458 520.62 458.87 518.74 461.06 518.81 461.32 522.35 460.67 522.49 460.81 522.68 461.91 522.06 462.4 521.88 462.18 519.68 462.58 518.52 462.84 516.76 463.98 514.99 466.61 514.34 467.68 514.71 467.93 516.74 464.93 517.25 464.46 518.23 463.91 519.26 463.51 520.04 463.69 527.59 468.72 526.77 469.94 527.4 470.36 526.67 471.49 526.5 472.05 525.95 473.05 521.06 479.55 521.27 479.6 523.67 476.48 524.32 475.75 525.8 476.91 526.82 475.41 526.65 473.92 526.8 472.16 528.36 469.86 528.98 470.25 529.22 469.8 529.63 469.8 530.33 468.88 529.61 468.39 530.05 467.58 532.74 463.75 532.57 463.37 532.53 462.61 533.2 462.63 533.38 463.58 531.9 465.64 532.36 466.62 532.24 467.21 532.44 467.59 532.39 468.21 532.91 468.16 533.15 468.8 533.19 469.96 532.8 470.42 532.49 471.17 532.62 471.68 533.11 471.93 533.43 472.5 534.44 472.98 534.24 473.5 534.41 474.76 534.03 474.97 534.63 475.7 535.51 475.59 535.76 476.46 535.02 476.6 534.72 477.5 534.7 477.99 535.02 478.51 535.02 478.88 535.51 479.44 535.35 479.94 536.09 480.22 536.39 480.81 536.84 481.01 537.08 481.92 537.53 482.8 537.32 483.87 537 483.98 537.75 485.24 537.89 485.91 539.17 485.96 539.77 486.08 539.41 486.67 539.77 486.88 539.23 487.41 540.87 488.4 541.01 489.02 541.32 489.09 541.35 490.02 541.81 490.17 541.79 490.65 542.39 491.03 542.98 492.18 543.72 492.28 544.75 493.61 544.37 493.91 544.56 494.48 544 495.11 543.48 495.48 543.85 495.82 543.78 496.13 543.21 496.54 542.92 496.92 543.12 497.18 542.7 497.51 542.72 497.96 543.41 498.61 544.18 498.99 544.1 499.85 542.77 500.89 542.73 501.21 542.26 501.89 542.32 502.6 542.67 502.51 542.6 503.57 543.01 503.57 543.32 504.12 543.21 504.67 543.56 504.84 543.65 506.46 543.33 507.35 542.8 507.79 542.91 508.3 542.61 508.78 542.79 509.16 542.31 509.95 542.57 510.27 542.63 510.76 542.28 511.31 542.19 511.81 541.68 512.8 541.84 513.81 541.62 514.19 541.21 514.4 541.01 514.95 540.52 515.15 540.23 515.65 539.69 515.61 539.62 516.59 539.26 516.96 539.49 517.54 539.51 518.19 539.11 518.51 538.63 519.16 539.29 519.59 539.01 520.14 539.04 520.61 538.3 520.64 538.27 521.62 537.8 522.25 537.88 522.64 537.43 523.16 537.46 523.7 537.68 524 538.82 524.67 538.99 525.14 539.34 525.36 538.92 525.95 538.16 526.33 538.36 526.74 537.95 527.2 537.91 527.5 538.39 527.63 537.77 528.09 537.1 527.68 536.45 528.05 536.3 527.62 535.59 527.04 534.91 527.55 534 527.75 533.19 527.53 532.42 527.5 531.5 527.77 531.04 528.13 530.67 528.16 530.01 527.8 529.42 527.04 529.01 527.1 528.57 526.74 528.23 526.76 528.07 526.28 527.71 526.16 527.21 526.51 525.64 526.62 525.36 526.54 525.45 525.91 524.68 525.94 524.63 525.14 523.79 525.27 523.71 524.91 523.35 524.64 522.77 523.46 522.27 523.02 522.35 522.49 522.1 521.71 521.4 521.62 520.76 522.34 520.55 522.3 517.9 525.02 520.27 527.31 520.13 527.59 522.36 529.74 522.58 529.52 523.44 530.35 523.97 530.48 523.98 530.88 520.27 537.4 519.93 537.34 516.8 542.84 516.72 542.44 522.85 531.56 523.24 530.89 518.08 525.87 517.52 526.44 516.99 525.94 510.74 532.4 505.94 537.32 511.3 542.53 511.34 542.93 510.22 541.85 509.48 541.9 503.07 543.22 502.12 543.39 499.87 541.79 496.05 539.22 495.97 538.6 495.43 538.65 494.87 533.43 494.25 527.78 493.09 517.04 492.81 514.27 493.02 514.25 492.85 512.25 491.5 510.85 490.85 510.91 490.2 512.65 491.57 513.16 491.26 513.96 489.13 513.15 489.69 511.63 488.65 511.85 487.67 511.95 487.83 521.17 472.1 521.49 464.97 521.64 453.83 514.05 453.56 514.88 453 515.5 452.65 515.39 452.1 514.73 453.11 513.63 450.49 512.06 450.21 510.99 451.98 508.03 452.11 508.13 450.37 511.05 450.54 511.85 453.47 513.61 456.53 508.51 457.04 507.91 455.84 507.22 455.64 507.56 455 507.2 454.84 505.87 456.45 503.02 456.97 503.33 458.82 500.68 459.72 499.11 460.54 499.54 460.99 499.27 462.69 497.89 461.88 495.4 460.31 494.28 458.5 496.8 456.3 495.23 461.37 488.11 456.77 486.48 454.88 489.13 449.87 487.06 451.71 482.58 451.22 481.61 450.9 480.24 450.59 477.38 449.7 475.47 449.02 475.27 448.07 475.33 448.19 476.26 448.53 476.23 448.89 479.31 436.27 496.15 431.36 492.46 430.63 491.77 434.93 487.34 434.95 482.97 433.74 482.05 430.94 482.35 430.64 483.11 431.02 483.64 427.02 486.36 425.14 491.52 427.91 493.53 427.46 494.13 429.6 495.67 435.24 499.81 433.83 501.74 427.37 497.03 424.71 500.7 431.16 505.43 427.72 510.19 427.31 509.92 427.48 508.77 427.39 508.07 426.74 508.88 426.44 510.18 425.84 511.34 424.19 512.19 423.74 512.54 423.23 513.5 423.11 513.92 422.56 514.94 421.78 515.19 421.36 515.2 420.79 514.97 420.3 514.14 418.76 514.2 418.78 516.61 419.11 517.63 419.68 518.23 420.21 518.51 420.83 518.63 421.2 518.9 422.73 516.79 422.93 516.84 419.75 521.22 419.77 520.89 420.23 520.23 419.04 519.33 418.38 520.19 413.8 516.82 413.24 516.55 412.49 518.72 418.23 522.9 418.26 523.03 416.35 525.63 416.22 525.64 413.26 523.49 412.88 524 411.29 522.84 412.42 521.29 410.16 521.43 409.67 522.8 409.79 524.5 410.38 524.66 410.47 526.03 410.65 526.33 412.9 526.94 412.48 528.53 412.87 528.64 412.69 529.28 410.65 528.73 410.77 530.27 412.18 530.64 412.1 530.98 410.79 530.64 410.89 531.99 411.67 532.21 411.58 532.54 410.8 532.32 410.51 533.8 410.06 534.62 409.65 535.09 408.59 535.77 406.95 536.29 406.52 536.29 405.19 535.57 404.69 535.37 399.58 536.08 398.33 536.47 398.26 536.27 396.64 536.75 396.69 536.92 393.19 538.02 393.02 537.47 391.84 538 391.29 541.53 391.72 544.05 392.08 547.4 394.19 547.17 394.34 548.49 392.22 548.72 392.5 551.42 394.64 551.21 394.78 552.52 392.64 552.75 392.91 555.34 393.22 555.58 399.57 554.86 400.25 554.29 400.63 554.81 400.27 555.37 399.7 555.62 398.46 555.72 394.54 556.17 393.83 556.32 393.48 557.45 394.23 557.57 394.2 557.95 393.48 558.08 393 560.35 392.83 561.46 392.22 564.54 391.84 567.21 392.3 567.54 392.21 568.75 391.65 568.95 391.5 569.27 390.99 572.58 390.81 573.05 390.15 573.03 389.79 573.54 389.25 573.67 388.52 573.54 387.94 573.14 386.98 572.28 387.05 571.73 386.14 571.25 385.8 571.45 384.57 571.45 383.41 571.84 382.75 572.2 381.27 573.5 380.27 574.73 379.65 576.09 379.58 576.69 379.85 577.33 380.37 577.45 380.59 578.11 381.38 579.1 381.34 580.36 381.67 581.28 382.44 581.76 382.58 582.22 383.11 583.1 383.74 582.93 383.82 582.35 383.44 581.74 383.7 581.49 384.13 582.2 384.12 582.85 383.73 583.52 385.54 583.44 386.29 584.73 385.94 586.82 385.41 588.44 386.56 590.48 386.35 591.93 385.51 592.66 385.39 593.71 385.19 594.24 387.04 597.03 387.78 597.5 388.02 597.86 387.84 598.2 388.14 598.61 387.95 599.22 387.56 599.52 387.65 599.98 387.04 600.75 386.48 600.65 386.22 601.39 385.83 601.78 385.43 601.8 384.94 602.14 384.15 602.44 383.91 603.02 383.52 603.05 382.63 603.83 382.66 604.23 383.04 604.81 382.77 605.17 382.32 606.34 381.95 606.43 381.95 607.13 381.13 607.49 379.56 607.42 378.81 607.6 378.63 608.26 378.23 608.57 378.4 608.83 378.19 609.7 378.35 609.94 377.94 610.37 378.21 610.67 377.91 611.16 377.88 611.89 378.99 612.19 379.27 612.83 379.04 613.76 378.41 614.76 377.49 615.63 376.74 615.86 376.12 615.43 375.94 615.72 374.91 615.65 368.19 619.03 367.93 618.51 372.56 616.19 371.11 611.49 370.97 611.41 369.05 612 368.7 610.88 370.62 610.29 370.7 610.16 369.93 607.64 369.79 607.58 367.87 608.17 367.48 606.9 369.41 606.31 369.47 606.18 368.11 601.78 367.59 601.43 367.17 598.07 367.2 597.61 371.4 597.08 372.67 593.15 368.64 591.84 362.73 582.63 362.58 581.46 360.19 564.13 361.85 558.5 361.25 557.9 360.8 557.7 360.41 557.25 360.29 556.63 360.04 556.58 359.69 555.78 359.23 555.47 358.58 555.33 357.94 555.53 357.74 555.33 357.16 555.51 357.97 558.1 357.78 558.31 356.65 558.04 355.7 557.93 355.38 558.09 355.38 558.5 355.76 559.65 352.7 560.65 353.69 563.67 356.7 564.42 356.58 565.35 356.39 565.73 356.08 566.97 351.65 565.88 350.11 561.21 343.75 559.75 343.25 566.64 344.88 570.14 346.87 574.5 346.99 576.65 346.44 576.69 345.07 578.02 344.78 578.15 344.74 579.03 345.13 579.11 345.16 580.13 345.02 580.83 345.7 580.78 345.93 580.94 346 581.93 346.21 582.45 347.63 582.43 347.71 587.3 347.91 596.89 348.14 597.61 351.6 607.64 352.4 607.38 352.87 608.7 352.82 609.42 353.16 610.11 353.49 611.23 353.22 611.32 353.44 611.92 353.92 611.92 354.14 613.03 356.02 618.53 356.59 620.04 356.76 619.99 357.13 621.24 356.98 621.31 357.4 622.56 356.79 622.81 357.2 623.97 364.64 622.25 364.71 622.51 365.66 622.29 365.74 622.68 363.07 623.29 357.37 624.62 357.22 624.85 356.64 625 356.15 625.35 355.48 625.35 355.96 626.22 355.96 626.82 355.4 627.2 354.71 626.96 354.26 626.64 353.7 626.98 353.43 627.34 352.96 627.31 352.72 627.69 353.01 628.13 352.92 628.91 353.18 629.52 353.63 630.12 353.6 630.68 353.34 631.17 352.5 631.13 352.25 630.62 351.66 631.1 351.14 630.86 350.39 631.51 349.96 631.39 349.57 630.98 349.5 630.56 348.51 629.53 347.72 629.26 347.13 630.19 346.69 629.83 346.85 629.23 345.98 629.91 345.39 629.62 345.15 629.95 344.45 629.6 344.01 629.63 344.19 628.97 344.17 628.17 343.58 626.95 341.09 627.69 340.92 627.43 343.27 626.71 343.74 626.31 344.41 626.13 344.34 624.48 344.07 623.98 344.23 623.55 343.95 622.43 340.19 612.88 338.05 607.53 337.7 606.91 336.71 606.95 335.32 606.56 334.42 606 333.64 605.4 331.99 603.74 327.64 605.96 325.78 606.96 325.6 607.26 325.03 607.58 325.01 607.95 326.12 610.18 326.18 610.59 325.35 610.98 325.16 610.68 325.8 610.32 324.53 607.84 323.71 608.07 322.51 608.69 321.75 608.92 321.36 609.62 321.38 610.74 321.18 610.94 321.33 611.6 320.87 611.93 320.16 611.82 319.33 611.51 319.14 610.99 318.74 610.75 318.69 609.65 317.36 609.07 316.14 609.19 315.63 609.35 314.53 609.35 314.35 611.02 315.09 611.1 314.97 612.06 314.19 612 314.04 613.74 315.36 615.33 315.96 615.77 316.98 615.84 317.47 616.03 317.8 615.64 318.36 615.72 320.35 616.71 322.48 616.58 323.29 616.14 323.43 615.56 324.26 615.7 324.23 616.26 324.75 616.29 324.97 614.36 326.03 614.48 325.83 616.41 326.18 616.45 329.34 618.43 330.97 615.82 330.76 614.83 330.4 614.6 330.8 614.19 331.08 614.58 331.44 615.69 331.39 615.94 329.58 618.93 329.64 619.16 328.91 620.25 328.83 620.96 327.99 622.24 328.05 623.42 328.25 624.04 328.51 624.28 328.22 625.37 328.81 627.19 329.75 627.27 329.44 627.93 328.8 627.92 328.48 628.17 328.2 627.78 327.16 627.81 326.65 627.59 325.66 626.88 325.35 626.28 325.3 624.94 325.11 624.76 322.88 625.24 322.69 624.37 322.44 624.54 321.71 624.55 321.67 624.82 320.64 624.74 320.11 625.58 319.75 625.83 319.43 625.68 318.69 625.85 318.29 626.23 318.03 625.95 317.28 624.11 316.79 624.01 315.82 623.38 315.14 623.17 314.33 623.44 314.19 623.85 315.63 625.45 316.75 626.61 318.88 628.96 319.02 629.29 314.05 623.86 312.63 624.44 312.53 624.64 311.77 625.05 310.86 625.95 310.28 626.66 309.87 627.54 309.53 628.7 309.49 629.18 309.74 629.96 310.19 630.82 310.47 631.13 312.1 631.74 313.01 632.35 313.97 633.14 314.99 633.54 316.05 633.52 316.57 633.73 317.35 635.13 318.08 635.62 318.99 635.68 320.12 635.92 321.59 636.88 321.85 637.58 322.69 638.25 322.88 639.37 322.69 640.14 322.21 640.19 320.95 639.57 320.08 639.45 319.48 638.69 318.73 638.28 318.17 637.48 317.64 637.2 316.3 637.73 315.78 638.04 314.8 638.87 314.69 639.14 314.84 639.73 314.24 640.37 313.99 640.39 313.26 641.01 312.73 641.9 312.99 642.26 312.59 642.48 312.54 643.26 313.52 644.24 313.71 644.8 313.13 645.33 312.01 644.19 311.31 644.59 311.11 645.38 310.28 645.63 310.1 645.4 309.25 645.42 308.64 645.31 307.69 645.92 306.75 647.24 306.89 647.82 306.59 647.9 306.75 648.52 306.76 649.51 307.29 650.42 307.42 652.12 306.52 651.61 306.82 652.4 306.79 652.95 306.43 652.85 305.94 653.38 305.19 653.72 304.7 653.79 304.89 653.27 304.66 652.71 303.51 652.16 303.43 651.73 302.95 650.37 303.45 649.82 302.78 649.25 302.81 648.1 303.17 647.57 302.86 646.46 305 644.32 305.33 643.06 306.55 640.77 306.39 640.47 305.89 640.48 306.07 639.95 305.98 639.42 306.33 638.73 306.13 637.89 305.83 637.46 306.42 637.37 306.66 637.1 306.89 636.3 306.73 635.66 306.97 635.08 307.46 634.65 307.29 634.32 307.48 633.69 307.01 632.7 306.48 632.43 305.72 631.82 304.26 631.49 302.85 631.53 301.89 631.95 301.34 631.08 300.28 629.67 298.88 628.27 297.99 627.6 295.87 626.47 294.92 625.18 294.62 624.47 294.15 622.63 294.42 622.09 294.79 621.93 295.47 622.84 295.71 623.38 296.07 623.69 296.48 623.65 296.89 623.27 297.48 623.44 297.74 624.17 299.26 625.37 300.27 625.25 301.29 625.37 301.45 624.9 301.07 624.67 299.77 624.24 299.29 624.27 298.75 623.7 296.87 623.07 296.56 623.49 295.96 623.53 295.23 622.23 294.54 621.76 294.1 621.14 293.92 620.63 293.58 620.23 293.52 619.79 292.46 618.09 291.99 617.05 291.58 615.13 291.31 614.26 291.37 613.88 291.09 612.46 290.13 608.64 288.55 601.88 291.75 601.08 292.27 600.71 292.16 600.41 288.47 601.27 288.38 601.25 287.64 598 286.48 593.09 285.6 589.44 285.2 587.62 284.7 586.82 284.38 585.5 284.58 585.17 284.11 583.04 284.08 582.49 287.02 581.79 291.56 580.78 291.82 580.9 292.22 580.56 292.04 579.89 291.73 579.98 291.31 580.47 288.15 581.26 284.07 582.2 283.92 582.16 283.07 578.68 282.31 575.34 281.62 572.21 280.9 569.59 281.04 569.37 280.71 568.06 280.21 564.93 280.17 564.3 280.33 561.77 280.73 559.94 280.98 559.1 282.01 556.78 282.75 555.27 283.21 554.58 284.41 551.47 284.84 550.23 285.62 547.55 286.11 545.5 286.41 543.97 286.79 541.38 286.96 539.67 287.55 532.02 288.02 525.61 288.06 524.08 288.4 523.89 288.47 522.99 288.25 522.8 288.34 521.23 288.15 520.75 287.8 520.65 287.83 520.13 279.58 518.81 279.41 519.48 278.84 519.85 277.07 527.18 276.86 527.7 276.3 527.51 276.67 526.11 277.9 520.9 278.4 519.28 277.07 519.09 276.79 520.58 276.42 521.99 274.99 527.88 274.86 529.57 274.9 531.21 275.11 532.5 275.42 533.6 275.38 534.1 274.89 536.15 273.76 540.49 272.93 544.05 271.65 549.28 271.1 551.21 270.65 553.05 269.96 554.66 269.27 556.82 268.71 557.95 268.14 557.98 267.6 558.45 267.41 559.12 266.91 560.05 266.23 560.98 266 561.88 265.36 563.09 265.04 563.89 264.55 564.64 264.25 564.87 263.89 564.73 263.79 564.27 263.79 562.62 264.1 560.63 263.89 560.8 263.38 563.09 263.31 564.16 263.32 565.77 262.66 567.11 261.96 568.09 261.66 568.68 259.58 570.66 257.59 573.29 256.64 575.06 256.22 575.67 254.36 579.34 254 579.67 253.32 579.9 251.54 580.31 250.79 580.32 249.5 579.96 249.1 579.4 248.67 577.83 248.1 574.35 247.87 571.66 247.93 571.11 248.27 570.28 249.85 567.45 250.24 566.49 250.55 565.41 251.11 564.01 251.84 561.31 252.61 560.11 252.97 560.01 253.13 559.34 252.51 558.54 252.17 556.14 252.14 554.85 251.98 554.04 251.64 553.72 251.37 554.58 250.95 553.62 250.89 552.57 250.99 550.18 251.16 549.23 251.81 548.08 252.34 546.19 252.47 545.27 252.29 544.35 252.48 543.47 252.92 542.51 253.09 541.88 253.52 539.27 253.67 538.59 254.17 537.25 254.09 536.67 253.72 536.04 253.74 535.53 254.03 534.89 254.64 532.48 254.62 531.33 255.14 530.98 255.78 531.52 256.24 531.44 256.61 530.94 256.49 530.58 256.03 530.66 255.95 530.22 256.51 528.45 256.68 527.58 256.99 526.75 257.17 524.94 257.53 525.1 257.6 524.23 258.2 523.67 257.64 523.64 257.83 522.62 258.17 522.25 258.34 520.97 258.84 520.18 259.48 520.07 260.48 519.71 261.26 519.26 261.83 518.73 262.28 518.12 262.27 517.67 262.51 516.74 262.24 516.47 261.5 516.29 261.6 515.89 256.83 514.53 255.7 514.5 254.85 514.13 253.57 513.76 253.01 514.09 252.74 515.71 252.75 516.12 252.47 516.81 253.3 517.13 253.53 518.39 253.14 520.29 252.7 521.14 252.19 521.51 251.58 520.88 250.68 522.98 250.72 522.29 250.37 522.15 250.72 521.14 249.99 520.31 249.79 520.49 248.86 520.83 248.75 522.09 248.91 522.68 249.33 523.32 250.35 523.73 250.3 524.37 249.91 525.56 249.84 526.22 249.98 527.22 249.9 528.55 249.22 529.34 248.84 529.56 249.07 530.49 248.92 530.99 249 531.51 249.54 531.55 249.69 531.85 249.99 533.11 249.91 534.01 250.37 534.59 250.67 535.55 250.41 535.68 250.89 536.38 251.01 536.87 250.89 538.11 250.49 538.11 250.33 538.97 250.03 539.44 250.1 541.56 250.39 541.96 250.37 543.09 250.19 543.15 249.94 544.67 249.85 545.7 249.01 546.1 248.06 546.24 244.59 546.24 241.62 546.47 241.18 546.85 241.01 547.22 240.31 547.37 239.61 548.12 238.48 548.69 238.28 548.68 237.53 549.18 237.06 549.69 235.63 550.12 234.95 550.11 234.63 549.66 234.38 550.06 233.53 550.15 232.18 550.81 230.49 551.39 229.01 552.19 228.34 552.66 226.73 553.96 224.76 555.39 224.68 555.64 223.4 557.68 223.63 568 223.78 568.1 223.8 569.85 222.05 571.21 218.48 571.3 214.6 571.37 214.42 571.29 210.82 571.37 210.05 571.48 202.04 571.62 198.35 571.7 198.27 571.63 198.24 569.84 198.32 569.56 198.08 558.11 199.3 553.79 200.18 550.62 201.29 546.73 201.65 546.38 203.34 547.08 203.96 546.83 203.82 545.77 203.19 545.59 203.23 543.64 203.01 543.51 201.97 543.44 201.83 544.71 201.64 544.7 201.77 543.41 201.99 543.08 203.13 543.17 203.13 542.54 202.42 542.35 202.75 540.14 203.57 536.59 203.8 535.09 204.66 529.9 205.25 526.17 205.56 522.88 205.93 519.42 205.53 518.01 205.09 516.06 205.01 514.99 205.06 513.83 205.3 512.51 205.51 511.99 206.64 509.67 207.39 508.59 209.74 506.61 210.13 506.19 210.93 505.05 211.2 504.5 212.41 500.55 210.54 499.9 208.5 499.25 208.27 499.51 207.38 499.22 207.47 498.95 203.31 497.69 202.25 498.89 201.84 498.83 201.85 497.35 201.7 497.15 200.43 496.73 200.22 496.81 199.28 498.11 198.42 497.83 197.78 498.11 197.15 498.24 196.89 497.99 196.74 497.17 196.95 495.75 197.41 495.1 195.86 494.17 195.57 494.61 195.1 495.71 194.95 496.92 194.95 498.2 195.21 499.13 195.97 500.78 195.87 501.01 197.02 502.78 196.93 502.82 195.89 501.22 194.96 501.98 195.21 502.26 195.24 503.88 194.93 503.9 194.94 504.96 195.27 505.2 194.93 505.53 194.78 506.19 192.87 510.99 191.75 513.2 191.16 514.14 188.73 516.91 188.76 517.31 188.28 517.64 187.55 517.67 187.56 518.19 188.36 518.24 188.7 518.47 188.72 519.51 188.38 525.32 187.27 544.93 186.89 551.46 186.73 553.08 186.46 554 185.77 554.92 184.01 556.36 184.29 557.23 182.9 560.73 181.74 562.24 180.44 565.76 180.79 566.82 180.67 568.87 181.05 569.25 181.19 569.65 182 570.46 181.94 571.06 181.51 571.31 180.37 571.03 179.82 570.77 179.03 570.83 176.25 570.88 174.29 570.69 172.71 570.46 170.41 570.07 170.02 570.33 169.85 569.97 168.16 569.6 166.99 569.91 163.46 569.2 161.02 568.97 159.53 568 159.04 567.45 159 567.14 159.48 566.14 160.47 564.41 160.61 563.85 161.61 563.12 162.83 563.05 162.85 564.33 163.77 565.2 164.16 565.19 164.1 561.77 164.03 561.62 162.8 560.61 163.19 558.55 163.15 558.24 162.36 556.18 161.79 554.87 161.55 555.21 161.71 561.14 160.09 562.69 157.94 564.67 153.95 564.76 148.57 564.85 147.95 564.97 144.79 565.03 144.3 564.71 144.12 565.03 141.76 565.09 141.23 564.77 141.04 565.1 137.53 565.17 137.23 565.11 129.97 565.24 129.43 565.01 129.51 566.28 129.3 566.28 129.13 565.26 125.32 565.33 125.1 565.03 124.66 565.34 116.03 565.53 116.04 567.69 116.25 568.42 114.74 568.44 114.06 568.56 114.3 567.57 114.25 565.45 114.05 565.35 112.02 565.39 111.71 564.5 111.84 564.25 110.51 561.32 110.46 558.91 108.94 556.57 108.6 556.16 107.79 556.28 105.61 556.33 105.24 556.5 103.97 556.33 101.18 553.69 95.02 547.85 92.4 545.41 92.35 543.49 88.31 539.66 88.19 539.99 87.04 540.66 86.71 540.99 86.41 542.14 86.34 541.62 86.67 540.72 86.89 540.43 87.94 539.78 88.22 539.5 88.48 538.84 90.52 532.36 90.94 531.93 92.76 531.26 94.19 531.16 95.34 530.98 98.44 530.83 102.75 530.51 104.1 530.87 106.26 531.96 107.56 531.95 108.65 531.33 109.06 530.97 110.44 529.35 110.96 528.92 112.04 528.61 112.04 527.65 112.66 527.51 113.14 526.83 114.23 526.32 116.78 524.79 117.69 524.18 117.13 523.62 118.04 522.7 118.37 522.17 118.55 521.29 119.33 519.23 119.77 518.39 119.77 517.41 119.88 516.68 119.85 515.61 119.24 513.47 119.2 512.83 119.33 511.17 119.04 510.53 117.35 508.66 116.64 508.2 115.97 507.98 114.95 507.51 113.79 507.8 112.91 507.77 112.6 507.59 111.1 505.8 110.95 504.71 110.41 503.8 109.99 503.33 109.85 502.38 110.05 501.69 109.87 501.45 109.1 501.35 108.67 500.63 108.92 500.17 108.9 499.73 109.36 499.35 109.29 498.93 110.1 498.43 110.23 497.94 110.61 497.83 111.04 497.34 110.76 496.26 111.19 495.91 111.12 494.85 111.59 494.22 111.44 493.68 111.89 493.33 111.34 492.7 111.22 491.72 110.71 491.54 110.01 490.47 109.04 489.82 108.07 488.82 107.21 487.83 106.43 485.45 106.32 484.6 106.24 483.15 105.02 482.01 103.91 481.07 103.61 481.38 102.43 481.64 100.62 483.13 100.32 483.81 99.23 484.27 98.18 484.1 96.69 484.21 95.48 484.45 94.62 483.68 94.46 483.05 94.4 481.99 92.28 480.56 91.94 480.01 90.86 479.34 89.97 479.11 88.09 479.42 87.69 479.34 87.23 478.95 84.82 478.06 84.49 477.91 83.21 477.66 82.78 477.37 81.47 476.93 78.22 476.9 77.61 476.67 76.06 474.66 73.31 472.07 72.37 470.83 72 470.04 71.18 469.11 69.93 468.53 69.3 468.1 67.29 466.44 65.93 465.19 65.42 464.5 65.91 462.75 65.83 461.61 65.32 461.09 65.09 459.67 64.38 459.04 64.09 459.26 62.42 459.56 62.12 459.79 61.25 460.13 59.76 460.29 57.63 460.25 58.08 457.02 57.83 456.36 57.82 455.45 57.3 452.74 56.94 451.77 56.65 451.41 55.76 451.26 55.3 450.32 54.89 449.23 54.37 448.75 53.95 448.07 52.73 446.7 52.6 446.34 52.86 445.96 52.09 445.24 51.95 444.83 50.96 443.22 49.92 442.48 49.12 442.14 48.21 440.55 46.34 439.86 45.59 438.72 46.03 435.14 45.35 433.86 44.54 432.86 45.76 430.35 49.57 429.45 50.38 430.4 51.73 431.03 53.68 430.69 54.81 431.03 56.5 430.12 56.95 428.86 57.33 428.44 58.74 428.04 59.76 427.24 62.58 426.6 64.51 428.17 65.67 428.82 66.85 429.24 68.92 428.42 70.47 428.1 71.1 427.6 72.43 427.86 72.67 428.2 73.8 428.6 75.32 427.93 77.6 426.83 78.85 427.63 79.95 427.92 80.5 429.27 81.51 429.87 82.62 429.43 84.23 430.48 85.06 430.33 85.56 431.1 86.9 431.74 87.31 432.61 88.19 433.88 90.06 433.66 91.5 434.05 92.5 434.72 94.95 434.79 96.34 432.98 97.4 432.73 98.61 432.15 101.21 432.46 102.94 432.02 104.32 431.58 104.44 430.99 105.97 429.79 107.44 428.13 108.17 428.25 109.2 427.86 110.82 428.03 112.67 428.43 114.28 428.64 115.66 429.4 116.89 429.65 117.78 430.02 118.68 429.14 118.82 428.52 119.58 426.52 119.4 425.51 119.25 422.65 119.89 421.27 120.58 420.71 122.16 419.89 121.44 419.06 122.55 417.81 126.26 416.58 126.79 416.29 129.37 416.64 130.59 415.35 131.16 414.66 132.69 414.58 134.4 414.88 135.38 414.24 137.48 413.52 139.34 413.42 141.13 411.47 142.44 411.13 143.64 411.7 145.65 411.88 147.8 411.64 147.98 411.36 148.57 411.47 149.48 412.11 150.45 412.36 151.41 412.3 152.33 411.98 153.09 411.94 153.82 411.74 155.07 413.33 155.55 413.53 156.39 413.62 157.16 414.07 158.13 415.29 158.68 415.11 160.03 416.43 160.67 417.83 160.68 419.46 160.91 419.94 161 420.84 162.27 420.97 161.92 422.14 161.97 422.34 159.97 422.84 158.5 424.43 157.4 427.31 157.32 427.99 157.01 428.21 156.66 428.06 155.55 428.1 155.26 428.26 154.41 427.59 153.71 426.6 152.81 426.2 152.33 426.6 151.82 426.62 150.99 428.07 150.99 429.07 151.52 429.99 153.03 432.08 153.67 432.66 154.37 433.93 155.95 436.16 160.77 442.85 161.82 442.08 162.27 442.03 162.69 442.62 163.83 441.8 164.25 441.75 164.78 442.47 166.17 441.48 166.73 442.25 168.17 441.23 165.17 437.08 164.89 430.06 165.16 429.64 164.54 429.17 164.73 428.6 164.28 428.38 165.2 427.46 165.44 427.09 165.94 426.77 166.53 426.69 166.74 426.96 167.38 426.9 168.36 426.36 168.75 426.46 169 426.19 169.8 426.05 170.48 426.1 171.06 425.86 171.44 425.9 171.84 426.52 172.63 426.32 173.04 426.07 174.1 426.3 174.17 426.8 174.57 426.9 174.9 426.59 175.04 426.06 174.76 424.9 174.69 423.99 174.82 423.77 174.87 422.89 175.27 422.15 173.92 421.63 173.22 421.75 172.46 422.13 171.08 421.06 169.64 417.44 168.22 416.38 166.76 415.43 166.53 413.78 167.21 411.87 168.89 410.73 169.76 410.03 169.44 409.72 168.88 410.06 167.84 409.28 168.23 407.58 167.96 407.1 167.27 406.68 166.36 406.56 165.52 406.19 164.91 405.74 164.63 405.93 164.13 405.29 163.37 404.95 162.94 404.89 163.24 404.35 161.05 403.35 162.66 399.94 166.36 401.72 171 403.59 173.09 404.47 173.71 404.6 174.14 403.88 172.97 401.67 172.65 400.27 172.51 398.79 172.52 397.2 172.41 393.53 172.26 391.2 172.38 389.62 172.55 388.6 173.13 387.49 173.99 386.5 174.58 386.08 174.58 385.11 174.17 384.01 173.16 382.67 171.12 380.35 170.39 379.31 168.82 377.45 167.52 376.42 166.61 375.6 166.02 374.61 165.75 373.96 165.61 372.76 165.46 372.77 165.49 371.6 165.39 370.66 165.94 367.89 166.07 366.39 165.7 365.43 164.15 363.16 163.43 361.9 163.03 361.36 160.64 356.47 160.35 354.92 159.93 353.65 158.58 351.91 157.08 350.4 157.79 349.08 158.58 348.32 159.41 347.72 160.56 346.36 160.95 346.03 162.01 345.61 162.91 345.02 163.26 344.58 163.46 343.86 163.76 343.47 165.13 341.3 165.98 340.11 166.43 339.14 167.08 338.15 168.06 337.26 169.62 334.89 170.46 334.62 171.18 334.8 171.79 334.73 172.44 334.3 173.52 334.1 173.87 333.77 174.99 332.15 175.33 331.8 176.76 331.09 177.15 330.64 176.99 329.27 177.17 328.8 177.85 328.13 180 326.71 180.76 326.56 181.42 326.78 182.3 326.83 182.98 326.4 183.91 326.01 184.47 325.9 194 328.3 195.71 328.69 197.87 327.92 202.16 326.47 207.61 324.55 208.14 324.45 210.9 324.85 211.83 324.82 214.96 324.18 215.07 324.12 211.73 320.29 207.96 315.91 210.03 314.17 214.57 310.32 215.58 310.56 215.34 311.06 214.62 310.67 214.43 310.83 214.4 311.78 214.5 312.41 213.42 312.81 213.7 314.57 214.11 314.9 214.67 314.83 214.65 314.52 214.08 314.03 214.09 313.39 214.8 313.13 214.67 312.73 215.53 312.25 215.07 311.71 215.69 310.65 218.25 311.17 219 311.27 219.6 312.37 220.94 314.46 225.36 321.21 226.19 320.36 227.72 319.51 227.67 319.99 227.89 320.71 228.11 320.6 228.85 321.07 230 322.09 230.55 322.08 237.1 318.91 240.1 317.53 243.96 315.29 248.19 311.65 251.99 308.81 253.26 307.18 254.84 305.24 255.96 304.28 259.39 301.91 260.69 301.4 265.6 299.85 268.18 301.74 271.86 305.06 272.45 305.29 275.64 305.23 279.05 305.13 284.58 305.04 290.48 303.84 293.05 303.28 296.01 302.7 299.45 301.98 301.72 301.59 308.34 300.98 309.59 300.72 312.74 299.78 313.64 299.9 313.84 299.44 317.24 298.42 320.26 297.41 325.22 296.08 329.32 293.98 331.53 293.11 333.39 292.44 340.13 288.02 342.66 285.58 346.68 280.57 349.27 273.99 351.44 267.41 354.34 260.83 357.04 254.26 357.66 252.61 359.43 247.67 364.81 234.5 367.13 227.92 369.29 221.35 367.18 215.55 371.94 212.62 372.52 212.36 374.04 212.16 374.38 212.33 375.03 212.22 377.1 211.57 379.02 211.06 380.63 210.93 382.45 210.5 384.15 210.36 385.7 210.13 387.61 209.74 390.91 209.4 392.61 209.38 394.32 209.82 396.22 210.1 398.81 210.37 400.43 211.77 402.75 212.04 404.62 211.88 407.88 212.83 412.46 213.23 413.37 213.25 416.27 212.7 416.81 212.99 417.69 213.69 418.05 213.12 418.16 211.91 417.3 210.46 417.66 209.95 417.62 209.47 418.3 209.08 418.89 208.47 418.95 206.72 420.83 205.2 421.47 203.78 422.31 202.54 425.16 201.27 426.82 199.3 426.82 197.83 425.83 196.43 424.64 194.9 424.32 194.14 424.18 192.46 424.99 190.96 425.03 189.77 426.04 186.74 426.62 186.21 427.24 185.24 428.3 184.32 429.07 182.96 430.29 182.07 431.48 179.31 431.99 177.81 432.74 176.36 433.04 176.03 433.91 175.75 438.25 175.69 441.53 176.51 442.65 176.21 445.25 176.42 446.6 177.53 448.88 177.45 449.37 177.57 449.81 177.4 450.59 176.55 451.16 176.22 453.53 179.33 454.25 180.67 455.83 182.78 456.81 182.91 457.4 181.98 463.55 175.38 464.66 174.36 466.04 172.55 466.17 171.68 466.59 171.27 467.08 171.16 468 170.47 468.62 170.13 469.35 169.56 469.73 169.07 469.9 168.39 470.98 168.06 472.28 166.66 472.34 165.75 473.54 163.83 474.33 163 477.28 161.01 480.51 159.48 482.56 159.91 483.6 159.6 484.31 159.84 485.56 159.41 486.81 159.11 489.23 159.25 489.68 159.2 491.29 158.69 491.93 158.86 493.17 158.13 494.01 158.33 495.51 158.16 495.86 156.77 498.64 155.38 498.88 155.09 499.58 155 501.22 154.07 503.27 153.52 503.64 153.5 504.21 153.97 504.82 154.11 505.72 154.51 507.22 155.06 507.21 156.82 507.89 155.17 508.45 154.33 509.34 153.48 510.13 152.91 510.74 152.01 511.41 150.74 511.84 148.74 512.46 146.84 512.7 146.64 512.69 144.69 512.52 142.36 512.14 141.34 512.01 140.12 511.77 138.54 511.92 135.37 511.86 134.72 512.08 133.59 512.59 132.42 513.01 131.7 513.55 130.32 514.18 128.34 514.51 127.99 516.42 126.97 517.77 126.6 518.37 125.97 519.34 125.14 520.35 124.53 521.05 123.68 521.47 122.99 522.25 120.82 522.76 119.14 523.07 116.75 523.74 115.02 524.4 113.88 524.83 112.68 525.1 112.29 525.64 112.1 526.37 111.17 527.6 110.36 529.24 109.41 530.45 108.46 531.07 107.71 531.67 106.52 531.77 106.06 531.89 104.05 531.14 100.56 530.79 99.77 530.16 98.98 529.19 98.17 528.8 97.39 528.87 95.69 529.09 95.2 530.12 93.87 531.18 93.07 531.85 92.2 532.13 91.35 532.01 89.39 532.17 88.75 532.61 87.89 533.06 87.46 534.25 87.14 534.55 86.16 535.17 85.36 534.87 84.81 533.47 83.36 533.25 82.9 533.2 82.33 533.55 81.67 534.08 81.19 534.76 80.33 535.24 79.91 535.79 78.82 535.9 78.25 536.25 77.41 537.46 75.78 538.41 75.05 538.99 74.79 540.25 74.47 540.62 74.25 541.83 73.82 542.6 73.67 543 72.67 543.21 71.7 543.84 71.41 544.02 71.15 543.82 70.55 544 69.74 543.86 69.06 544.09 68.48 543.8 67.92 543.24 67.67 542.68 67.14 542 65.83 541.94 65.2 542.22 64.83 542.1 63.66 541.85 63.19 541.95 62.7 541.81 62.31 540.95 61.48 540.44 61.26 539.68 60.46 539.64 60.13 539.06 59.67 538.7 58.68 537.91 57.56 537.43 57.22 536.99 57.22 536.51 56.98 536.14 56.6 535.33 56.66 534.63 55.81 534.25 55.13 533.19 53.69 533.02 53.02 532.56 52.25 532.38 51.56 531.84 51.35 531.04 50.45 530.56 50.15 529.94 50.01 528.52 50.22 526.87 50.17 525.25 49.24 524.2 48.07 523.55 46.65 523.51 45.82 522.99 45.11 522.66 44.19 518.91 42.48 519.21 41.22 518.98 39.84 521.29 41.49 523.53 42.76 525.99 42.49 527.12 41.86 529.07 42 531.42 41.99 532.97 41.9 533.77 42.69 534.66 43.05 535.38 43.13 536.54 43.69 537.43 44.3 538.18 44.98 539.9 45.36 541.88 45.58 544.28 45.41 546.07 45.04 547.07 44.66 547.88 44.84 549.18 44.52 549.45 45.28 549.3 46.37 549.65 46.37 549.63 45.31 549.39 44.82 549.53 44.38 549.89 44.44 550.68 45.15 551.91 45.78 553.7 46.32 555.01 46.29 555.54 46.48 556.35 46.98 557.76 47.23 559.05 47.25 559.21 47.02 559.12 46.26 559.57 46.53 560.26 47.72 560.73 47.97 561.18 48.52 561.91 48.19 562.49 48.07 563.28 47.56 564.54 47.52 566.26 48.04 566.57 48.05 567.14 48.41 568.29 48.94 568.76 48.93 571.18 50.45 571.58 50.97 574.68 52.13 575.83 52.81 580.06 54.39 583.05 55.89 582.99 56.96 583.58 57.84 585.67 60.54 587.05 61.33 588.24 62.2 590.17 62.44 590.82 62.82 591.7 63.64 593.81 65.42 594.39 65.8 596.23 65.81 596.95 65.67 598.36 66.62 599.3 66.71 599.53 67.59 601.91 68.62 603 69.38 603.88 69.32 605.67 69.9 606.99 69.53 608.7 69.15 609.68 67.96 611.51 66.84 612.36 65.47 613.65 65.54 615.44 65.05 614.82 62.89 615.73 61.65 617.46 59.95 617.89 58.57 619.61 56.61 622.25 55.22 622.95 54.43 624.46 54.11 626.13 54.3 627.14 53.09 628.41 52.9 630.84 51.51 630.9 51.01 631.29 50.17 631.37 47.7 633.02 46.25 634.82 44.73 635.84 43.6 637.39 42.56 638.63 41.83 638.23 40.61 638.51 40.33 637.94 38.28 637.43 38.29 638.05 35.81 637.05 32.96 637.97 29.87 637.76 28.47 638.68 26.48 638.87 24.65 637.66 22.62 635.81 21.69 635.07 19.89 633.42 17.53 631.86 17.05 630.34 13.77 631.56 11.95 631.4 11.28 633.4 9.19 634.39 7.86 635.4 5.73 636.55 4.44 638.62 1 641.35 3.21 643.46 4.15 644.7 5.3 645.11 5.83 646.17 7.75 646.82 8.31 647.3 9.31 649.48 10.38 650.75 11.28 651.61 12.64 652.3 12.84 657.05 15.55 658.25 15.88 658.57 15.84 661 16.33 661.78 16.1 664.43 17.98 667.46 18.62 670.32 17.94 672.39 16.93 675.08 16.64 676.71 15.75 679.71 15.33 681.36 15.56 683.27 15.1 684.67 14.27 686.97 14.37 688.01 14.92 689.36 15.25 692.42 15.7 692.7 14.76 693.4 13.02 693.84 10.72 694.69 9.66 697.17 8.96 699.41 8.21 700.49 6.8 701.39 8.27 702.06 9.87 704.97 9.29 706.3 8.84 707.22 9.11 708.01 9.57 709.24 10.8 709.85 10.71 712.17 10.01 713.7 9.03 715.01 7.5 715.2 7.09 715.07 5.07 714.26 3.44 714.74 2.32 716.63 2.85 718.11 3.2 720.84 5.21 721.08 5.62 722.52 6.55 723.64 6.92 724.99 7.76 725.75 7.94 726.48 7.78 727.84 7.13 728.21 7.1 729.98 6.48 731.23 5.98 732.05 6.05 732.86 5.05 733.64 5 734.36 4.19 735.5 2.71 736.14 2.57 736.82 2.21 736.92 3.35 737.28 4.28 737.23 5.42 737.53 6.07 737.8 7.3 737.85 8.12 738.62 9.16 739.17 10.52 740.61 12.99 740.88 13.9 740.75 14.88 743.31 15.71 744.08 17.1 745.58 18.74 747.35 19.96 747.78 20.81 748.91 23.37 749.4 23.75 749.64 24.3 751.56 25.58 751.69 25.91 752.86 27.27 754.23 28.99 755.01 30.38 755.41 32.97 756.64 36.53 757.31 37.48 758.32 39.76 760.54 40.72 763.84 41.43 764.01 42.64 763.61 43.69 762.76 43.51 762.27 43.62 762.37 45.62 762.21 47.34 761.61 48.82 761.27 49.4 760.86 52.49 760.92 55.29 760.6 56.29 760.35 57.68 761.29 58.92 762.1 59.59 762.81 60.65 763.81 61.71 764.52 62.18 765.62 63.25 766.17 64.58 765.97 64.93 766.67 66.73 767.13 67.47 766.29 68.19 765.73 70.01 764.87 71.38 765.16 71.85 765.63 73.28 765.75 74.27 765.59 74.63 765.76 75.92 765.15 77.11 763.86 77.71 763.68 78.57 763.22 79.94 761.36 81.74 761.18 81.74 760.73 82.84 760.59 83.42 759.7 84.6 760.79 85.19 761.36 85.69 762.81 86.49 763.61 86.41 764.14 86.86 766.04 87.32 768.46 88.29 769.45 88.06 771.13 87.01 772.96 86.32 773.72 85.9 774.8 88.06 776.5 88.99 776.65 90.29 778.04 92.42 778.66 90.82 779.75 90.57 781.33 90.31 781.67 91.17 782.59 91.63 783.36 92.41 784.17 92.9 785.04 92.98 786.82 92.99 787.72 93.22 788.73 93.12 790.02 93.68 790.57 93.55 791.44 92.92 792.19 92.2 792.77 92.24 794.11 93.19 795.11 93.72 795.56 94.19 794.27 95.49 793.75 96.59 793.45 97.84 793.75 98.91 794.28 100.22 794.88 101.01 795.84 102.02 796.5 104.05 797.53 104.52 Z M 501.01 538.05 501.37 541.46 501.54 542.54 502.28 543.02 504.9 542.5 505.17 541.74 505.74 540.98 506.73 540.36 507.43 539.22 505.76 537.6 504.97 537.25 500.75 535.8 501.01 538.05 Z" fill-rule="evenodd" id="21000000"/>
</g>
</svg>