<?xml version="1.0"?>
<svg xmlns="http://www.w3.org/2000/svg" version="1.2" baseProfile="tiny" width="800" height="537" viewBox="0 0 800 537" stroke-linecap="round" stroke-linejoin="round">
<g id="sido">
<path d="M 245.59 1 247.48 1.41 250.1 4.61 251.37 5.8 252.26 6.8 252.19 8.09 252.57 9.66 253.19 10.82 253.08 13.05 252.77 14.75 251.56 16.46 250.5 17.42 249.41 18.01 249.51 19.14 248.39 20.23 247.88 21.24 247.89 25.23 247.48 26.57 246.63 29.99 246.23 30.73 244.23 33.2 243.56 34.57 242.78 35.3 241.68 35.66 240.39 36.92 238.94 38.76 238.04 39.74 235.58 40.51 235.21 42.55 234.87 43.32 234.27 43.52 233.96 44.21 234.71 45.94 234.77 46.79 234.08 47.21 234.23 47.9 233.65 50.05 233.44 51.82 232.94 54.22 231.85 56.6 231.9 57.31 233.19 61.08 234.81 63.62 235.76 64.31 238.6 65.25 243.07 65.64 245.48 64.64 247.55 65.43 249.4 65.51 250.78 66.3 252.88 67.79 253.43 67.98 254.43 67.6 255.26 67.62 258.47 68.24 259.03 69.06 259.99 69.76 262.4 70.01 262.4 69.09 262.66 68.66 266.57 67.62 269.26 71.92 270.23 72.6 271.79 72.72 272.7 72.97 273.36 73.58 276.11 73.73 277.27 73.46 279.28 75.96 279.96 77.6 280.93 79.21 281.58 79.77 282.88 81.5 285.9 84.29 286.23 84.9 287.45 86.09 290.49 88.4 291.26 88.51 291.44 87.96 292.42 88.21 294.87 89.45 296.29 89.92 298.15 90.18 299.16 90.51 299.72 90.4 301.02 90.8 303.16 92.24 304.38 91.43 305.07 90.2 307.17 90.72 308 91.15 308.93 92.16 309.95 92.69 311.35 94.53 314.08 96.01 315.26 98.16 317.43 100.09 319.27 101.29 321.32 101.58 322.96 100.29 323.68 100.06 324.78 100.5 326.11 100.53 327.45 100.97 329.82 101.25 330.54 101.48 331.99 101.3 332.56 100.08 333.16 99.49 333.79 98.45 335.09 98.66 335.41 97.98 337.11 97.75 338.56 97.42 339 99.19 339.01 100.88 339.24 101.99 339.66 102.81 339.79 103.68 340.65 105.21 341.32 104.15 342.06 103.49 341.9 102.49 342.42 102.6 343.85 102.33 344.42 101.42 345.34 101.01 346.22 100.99 346.89 100.53 347.24 99.81 347.71 98.13 349.73 98.02 349.98 98.28 350.7 97.64 351.14 97.87 352.22 97.37 353.75 94.39 354.15 94 354.73 94.11 355.17 93.77 357.11 93.92 357.15 93.03 357.7 92.56 357.91 92 359.87 91.14 360.98 90.34 362.35 88.87 363.32 88.98 364.46 89.66 365.16 90.61 366.95 90.95 369.35 87.92 370.4 87.44 370.79 86.82 370.83 85.54 371.15 85.04 372.27 84.9 372.78 85.02 373.73 85.99 374.17 85.89 375.34 85.14 377.82 85.71 378.38 85.49 378.66 85.9 379.89 86.01 380.8 84.45 382.03 82.92 382.16 81.83 381.94 80.6 381.89 78.41 381.35 76.45 381.03 74.05 380.65 73.27 381.37 71.41 382.26 70.43 382.87 70.23 384.78 71.29 384.7 70.91 387.14 72.05 388.36 72.71 392.39 73.96 393.03 74.35 394.5 75.54 396.02 76.45 397.92 77.89 399.6 79.35 401.54 78.78 403.37 78.35 402.96 77.67 403.65 75.83 403.98 75.38 404.81 75.4 406.15 75.69 407.2 75.28 408.38 75.31 410.63 75.65 413.14 73.67 414.01 73.32 413.76 71.88 414.35 71.72 413.11 70.3 414.02 67.5 414.43 66.71 414.52 64.98 415.56 63.9 416.72 64.06 417.52 64.67 418.09 65.41 418.32 64.36 419.15 63.21 419.73 62.66 420.37 62.47 421.35 62.73 422.63 63.46 423.07 64.07 424.24 63.03 423.52 60.04 422.89 58.34 422.95 57.23 423.58 57.04 423.98 57.39 424.71 56.85 425.62 56.91 426.92 56.66 427.95 56.19 429.23 56.63 429.84 58.22 430.31 58.99 430.92 60.46 433.1 59.16 433.61 58.39 435.39 56.82 436.91 56.11 436.45 55.42 437.06 54.73 437.55 54.68 438.32 53.87 439.63 54.64 440.01 53.4 441.67 53.45 441.93 52.93 442.5 52.97 442.87 53.45 443.56 53.44 443.71 54.6 445.49 53.19 446 53.23 446.87 52.86 447.48 52.89 448.15 52.2 448.99 51.93 450.35 50.79 450.63 51 451.59 50.97 451.88 50.18 452.75 49.52 454.15 49.84 455.78 48.55 456.62 48.14 457.22 46.97 457.79 46.41 457.95 45.88 458.47 45.61 458.67 44.38 458.65 42.83 458.4 42.12 458.86 39.8 459.48 38.64 461.08 37.79 461.54 37.21 461.37 36.58 461.74 36.04 463.58 34.8 464.33 35.13 464.42 34.61 465.15 34.59 465.77 35.54 466.47 35.24 466.73 34.43 467.37 34.27 468.77 33.23 469.26 33.23 470.47 33.68 474.56 33.79 475.46 33.66 476.22 33.21 477.74 31.68 479.08 30.89 480.09 30.01 480.48 28.76 481.99 27.82 482.62 27.3 484.11 25.3 485.82 24.29 486.18 23.69 486.81 23.55 488.36 23.53 489.91 22.95 491.22 22.62 492.3 21.87 493.37 21.49 494.91 20.49 497.11 20.15 497.55 20.19 496.86 22.59 496.01 24.56 495.57 25.21 495.51 26.19 496.05 28.16 496.74 28.89 499.05 30.05 500.1 29.9 500.99 30.4 502.2 30.46 505.03 31.2 507.59 31.42 508.24 31.59 509.5 32.59 510.09 32.63 511.16 32.35 511.75 33.6 513.75 33.3 515.82 32.65 516.88 31.98 517.25 32.22 518.73 32.48 519.12 30.81 519.72 29.38 520.97 26.88 521.55 25.34 522.5 24.19 525.32 22.33 528.13 21.03 529.69 20.04 530.97 19.36 533.11 17.94 533.97 17.6 536.19 16.96 537.95 16.28 539.29 15.22 541.02 14.07 542.73 12.02 544.71 9.36 546.53 6.51 547.93 4.82 549.32 3.83 550.82 3.1 552.23 2.7 554.37 2.81 556.32 2.78 560.58 2.2 564.08 2.13 566.64 2.57 571.65 2.83 572.3 5.1 573.5 5.75 574.67 6.2 575.37 6.24 575.67 5.93 578.89 8.04 580.08 9.55 581.32 10.26 580.85 10.91 580.8 11.82 583.96 13.58 585.13 15.21 585.87 15.64 588.47 16.37 590.14 16.51 591.38 17.29 593.93 16.11 595.66 16.54 596.18 17.08 596.86 17.3 597.63 18.19 597.69 18.54 598.52 18.95 599.65 18.98 600.74 18.34 602.21 17.97 602.79 17.97 603.57 18.83 605.39 21.12 606.68 21.87 609.82 26.84 611.6 30.71 612 32.25 611.33 34.26 611.5 38.18 610.8 40.15 610.65 41.56 610.21 41.94 609.57 45.68 608.84 48.02 610.3 49.2 611.4 49.87 613.09 49.82 614.42 52.23 617.36 52.7 618.68 54.36 620.55 54.6 621.83 55.29 624.36 56.98 625.91 58.38 628 59.87 629.95 59.58 631.05 61.3 630.94 62.59 631.42 64.66 631.46 65.44 632.33 67.36 632.59 70.97 635.26 73.08 638.44 73.08 641.13 73.46 642.26 75.57 642.41 76.09 642.97 76.66 644.4 78.5 645.21 80.47 645.46 82.08 646.27 83.05 646.66 83.84 647.96 85.11 650.14 89.37 651.16 89.07 653.94 86.71 654.38 87.66 653.15 88.59 651.94 89.98 650.3 90.83 649.16 91.06 647.19 93.42 645.8 95.33 644.04 98.86 643.82 101.1 643.92 103.55 645.29 105.73 645.74 107.05 645.94 108.5 646.82 110.37 647.28 111.78 647.46 113.17 647.39 114.16 647.91 114.01 649.95 114.63 650.25 115.26 650.84 115.74 650.67 117.61 651.1 118.88 651.64 119.43 652.48 120.89 653.82 121.01 654.77 121.78 654.96 122.89 654.95 125.42 655.96 126.04 656.93 126.99 657.17 128.55 658.05 128.78 659.19 129.98 659.35 130.63 660 131.69 659.99 133.62 659.78 134.16 662.28 134.88 663.6 135.35 664.55 135.85 665.78 137.13 666.15 137.84 666.82 138.19 667.7 139.58 669.24 140.8 669.59 141.27 672.51 142.81 673.03 143.4 673.91 143.84 676.63 143.89 677.52 143.23 678.25 143.19 679.06 144.03 679.95 146.91 680.25 147.55 680.62 149.96 680.36 150.53 679.51 151.28 678.85 151.15 677.96 152.01 676.88 152.01 676.08 153.74 675.54 154.55 676.15 155.91 675.66 156.22 674.7 157.45 673.02 157.57 672.63 158.02 672.36 158.94 671.02 161.43 670.56 161.75 670.94 163.38 669.92 164.73 669.6 165.35 668.67 165.71 668.31 165.62 666.48 166.31 665.74 166.91 665.93 167.77 665.36 169.27 664.49 170.18 664.61 171.03 665.98 172.35 665.96 174.23 665.67 175.07 666.36 176.42 666.38 177.1 667.23 178.32 669.35 180.48 669.76 181.38 671.48 181.73 672.52 182.94 672.72 183.77 674.95 185.24 676.09 186.89 676.48 189.17 677.51 191.19 680.14 192.94 680.76 193.04 682.18 195.19 682.37 197.69 683.32 199.38 684.56 201.2 686.17 202.51 688.08 203.1 689.78 204.19 692.06 204.56 692.39 202.78 692.31 201.17 692.64 198.46 693.56 195.03 693.62 193.69 692.96 191.4 693.45 190.64 694.78 189.52 695.96 188.99 696.88 188.36 699.43 189.21 701.05 189.97 705.86 188.17 706.35 190.05 708.04 191.04 708.76 192.57 709.64 193.13 712.45 192.85 713.82 194.05 714.28 193.74 715.46 193.82 716.54 192.77 718.06 190.35 719.65 188.51 718.82 187.04 717.84 186.01 721.01 182.7 721.96 181.92 723.44 182.08 724.84 181.33 726.16 182.42 727.22 184.11 727.86 184.61 728.51 185.85 729.67 186.49 732.03 187.49 733.11 187.71 734.7 187.58 736.28 187.63 737.4 187.49 739.67 186.22 741.51 183.53 741.97 183.27 743.03 182.15 744.13 181.25 745.74 180.91 748.01 181 749.3 181.33 751.83 181.46 753.28 182.22 753.84 182.82 756.58 184.61 759.62 187.92 763.35 188.96 765.22 190.08 766.7 190.7 768.33 192.36 769.33 193.89 769.88 195.18 771.43 196.39 772.95 197.35 773.72 198.97 774.89 200.21 776.82 201.63 778.53 202.49 780.2 203.16 780.89 203.89 781.53 204.98 782.16 207.13 782.09 208.31 781.79 208.98 782.59 209.25 783.04 210.05 783.29 211.42 783.08 211.87 783.52 212.49 784.37 212.74 784.94 213.15 785.3 215.39 786.26 216.26 788.37 218.54 789.11 218.81 791.07 220.37 797.18 222.06 797.5 224.73 799 226.38 796.04 236.94 794.89 236.56 789.4 240.4 788.51 240.94 787.45 241.9 783.16 241.18 781.15 240 778.36 239.56 775.92 239.74 775.36 240.6 773.04 246.15 773.72 249.54 773.9 249.87 775.27 251.13 776.7 252.23 776.15 255.11 775.69 256.63 775.42 258.37 773 262.13 770.35 264.85 768.28 266.1 769.22 267.22 768.97 269.24 769.08 271.85 769.76 275.37 770.85 278.84 772.34 282.33 771.32 284.85 768.7 286.4 767.79 291.75 768.09 295.75 767.1 297.13 769.24 300.39 771.14 301.33 771.53 302.5 771.03 304.52 770.8 306.21 770.33 314.5 770.33 316.11 770.58 321.01 770.52 322.49 770.26 323.83 770.7 326.09 771.28 328.23 772.28 330.78 773.38 332.64 775.24 335.06 776.01 336.81 776.93 338.44 776.36 342.44 775.81 344.26 774.64 346.14 774.34 347.46 772.04 348.03 768.55 348.3 766.25 350.7 765.33 352.05 762.86 353.01 761.61 354.03 761.04 355.24 760.26 359.36 757.3 361.57 753.96 365.36 752.18 367.07 749.12 369.48 749.68 370.62 751.76 373.87 747.24 376.59 744.17 377.56 741.94 378.53 740.05 379.79 737.55 380.59 734.55 381.34 731.62 381.63 730.57 382.42 729.34 382.39 728.97 383.19 728.06 384.43 729.06 384.61 729.32 385.32 728.71 387.02 728.49 388.38 728.31 391.32 726.86 391.54 726.26 391.34 725.75 391.71 723.76 393.71 723.02 394.73 723.47 397.03 724.53 399.55 724.92 400.01 725.43 401.89 728.11 406.61 726.07 408.75 726.04 409.73 725.62 411.23 726.16 413 726.14 414.8 728.04 417.67 728.25 418.51 728.53 421.07 728.52 422.93 727.44 423.6 725.77 425.59 723.89 425.77 723.31 426.03 720.53 426.33 719.6 427 716.92 426.96 715.2 427.53 713.19 428.81 711.98 429.04 710.42 429.71 708.76 430.94 706.89 431.26 704.41 430.14 702.79 431.55 702.36 431.71 698.88 430.89 698.18 431.06 696.94 430.96 694.93 432.27 694.41 432.83 693.48 433.3 692.68 434.87 690.8 435.27 689.6 435.06 685.94 436.3 684.25 436.32 683.23 437.07 681.02 437.33 680.25 438.36 679.36 438.93 678.95 438.96 676.86 441.42 675.73 442.43 674.77 442.72 673.68 442.62 672.81 443.57 671.87 444.32 671.02 445.96 670.02 447.45 668.61 448.32 667.7 449.84 667.25 451.3 666.59 452.13 665.67 453.83 664.27 454.82 664.17 456.02 664.73 457.29 665.91 459.36 666.35 460.32 666.56 461.9 666.11 463.71 663.62 464.83 661.55 466.85 661.09 467.92 659.84 469.24 658.09 472.16 656.61 474.75 654.31 476.66 652.8 476.82 651.41 478.38 650.04 479.08 646.94 479.78 644.89 480.18 643.08 479.94 640.03 480.34 639.16 480.26 638.23 479.78 636.16 479.07 634.08 478.56 632.91 478.16 630.8 479.65 629.79 480.84 627.95 478.4 627.02 477.7 625.86 477.55 625 477.14 622.92 476.71 621.94 476.95 620.41 476.53 617.48 476.1 616.41 475.65 614.21 475.86 612.68 475.73 611.56 475.79 610.54 475.58 608.58 475.88 608.77 474.76 608.79 473.2 608.64 470.78 609.34 469.32 609.07 467.09 608.14 466.66 606.39 465.47 605.08 464.88 602.24 462.91 601.9 462.53 601.05 460.95 600.76 460.67 598.83 460.3 597.7 458.53 597.05 456.16 595.46 455.28 595.61 452.3 595.95 450.09 595.16 449.41 594.53 448.32 593.2 446.93 592.01 443.8 592.46 440.86 591.19 439.27 589.27 437.45 588.11 435.95 587.4 434.32 585.98 433.19 584.8 431.91 583.8 431.36 580.94 431.75 579.56 431.59 578.38 431.77 576.93 432.45 575.6 432.48 573.18 434.45 571.08 435.9 568.67 437.04 566.68 437.57 565.66 438.35 562.77 439.13 562.91 442.29 561.97 443.08 561.09 444.06 560.74 445.28 559.15 446.67 558.17 448.08 555.95 449.87 554.74 450.99 552.99 453.68 552.52 456.13 550.91 457 549.82 457.82 546.67 457.98 544.56 458.79 542.86 459.15 541.13 459.22 540 459.55 538.28 458.33 535.19 458.21 531.54 459.2 529.86 459.54 528.23 461.28 527.46 461.94 526.65 463.18 526.16 464.24 525.43 464.94 523.23 466.66 522.17 465.95 521.26 465.55 520.41 464.94 518.97 464.48 517.88 463.22 515.22 461.46 512.26 460.37 511.13 458.45 509.33 457.26 507.68 458.52 504.46 460.45 503.65 461.79 501.28 463.37 500.55 464.25 499.28 464.56 497.64 465.33 495.93 465.75 495.18 467.34 491.97 468.5 490.34 468.82 490.11 471.53 487.14 473.07 484.23 474.23 484.13 473.46 483.14 473.8 482.69 473.71 482.04 474.3 480.89 475.65 480.25 475.89 479.01 475.55 478.2 474.95 476.14 475.09 474.56 474.62 473.46 473.36 470.32 472.18 469.97 472.17 468.68 471.54 468.17 472.31 466.89 473.28 466.1 472.69 465.06 472.54 463.74 471.11 460.55 469.65 460.14 469.08 459.45 466.53 458.7 466.11 458.39 465.56 457.94 464.01 456.65 464.32 455.25 464.01 453.58 464.7 452.69 465.64 451.78 465.71 451 465.51 449.78 464.85 446.25 465.5 445.98 466.94 445.16 467.84 444.89 469.99 444.66 470.5 444.8 471.21 443.98 472.67 443.11 474.9 441.52 477.21 440.4 477.75 438.89 478.13 438.43 478.74 436.19 479.5 434.76 479.56 433.8 480.44 432.88 480.87 431.04 481.27 430.51 481.97 430.56 484.28 429.27 486.04 427.77 487.36 427.21 489.41 427.22 490.63 425.36 491.33 425.59 492.29 425.49 493.53 425.58 494.51 424.07 496.19 423.1 496.67 422.21 498.17 421.57 498.86 420.91 498.9 420.51 498.45 420.04 498.78 418.46 498.6 417.26 497.7 414.87 497.47 414.27 497.61 414.04 498.17 412.37 497.76 410.77 497.63 410.48 497.4 408.51 497.5 406.72 496.63 406.49 497.08 406.45 498.09 406.09 499.28 405.41 499.13 404.95 500.86 405.14 501.33 404.6 502.75 402.71 503.04 401.24 504.06 399.91 504.5 398.69 504.68 396.86 504.79 395.04 505.34 394.45 505.85 394.5 506.33 393.7 506.42 393.22 506.89 391.63 507.6 390.51 507.12 389.43 507.54 388.97 506.99 386.85 507.1 386.8 506.62 385.1 507.01 384.66 506.3 383.41 507.57 381.92 508.86 381.33 509.14 379.56 510.48 378.91 510.54 377.47 511.45 375.9 511.89 374.72 512.76 374.68 513.13 373.96 514.82 372.47 516.3 371.9 518.19 372 518.95 371.84 520.34 370.92 522.15 370.43 522.77 370.29 523.86 369.71 524.22 368.94 525.5 368.53 527.5 368.07 528.25 368.24 529.66 367.81 531.12 367.56 531.33 366.05 531.41 365.18 530.94 363.79 530.76 363.41 531.14 361.37 529.93 360.9 529.55 360.43 530.34 358.93 529.65 357.38 530.19 355.35 531.68 354.78 531.58 353.34 530.39 352.48 530.02 352.5 530.62 351.59 531.65 350.71 530.78 349.35 532.35 349 531.93 348.35 532.61 347.44 532.18 346.42 532.62 345.3 534.04 344.8 535.36 344.14 536 343.27 535.28 342.24 535.45 341.32 535.3 340.28 534.44 338.72 534.22 338.32 532.15 336.19 532.19 335.87 531.5 335.61 528.98 335.64 527.65 334.9 525.82 334.91 525.03 332.45 521.91 331.79 520.94 330.95 519.14 331.38 518.7 331.58 517.41 329.09 515.72 327.93 514.71 326.77 514.04 326.3 514.61 325.28 514.32 324.21 514.53 323.15 515.2 321.95 514.97 320.72 513.39 320.4 512.61 319.85 510.56 318.92 509.78 317.64 509.63 317.06 509.85 316.4 510.44 315.28 511.92 314.5 512.32 312.62 512.43 311.28 511.9 310.59 511.25 309.86 511.63 309.5 512.21 309.3 513.33 308.83 514.4 308.32 514.7 307.68 514.62 306.75 515.01 305.95 515.1 304.5 516.53 303.88 518.12 303.3 518.73 302.6 519.12 301.06 519.14 301.01 519.48 299.89 520.15 298.31 521.56 298.05 522.85 296.79 523.9 295.62 524.11 294.11 524.9 293.1 524.52 292.74 524.65 292.3 525.53 291.27 526.9 289.42 528.3 288.02 527.91 287.2 527.5 285.59 527.21 283.7 527.27 281.91 527.91 277.8 530.95 275.24 531.29 270.8 530.67 269.33 530.2 266.19 528.67 263.21 527.91 261.37 526.4 260.2 524.39 259.55 523.46 259.27 521.76 259.69 518.64 260.4 515.28 261.27 513.15 262.02 511.89 262.02 510.7 261.61 508.76 260.26 506.12 259.57 505 258.28 503.35 257.08 502.39 254.59 501.15 249.73 502.11 246.95 503.28 244.86 504.67 242.98 506.04 241.96 507.7 241.13 510.96 240.57 512.37 239.79 513.74 238.92 514.9 236.83 516.85 234.95 514.67 234.88 513.94 234.97 509.36 233.97 505.75 231.76 502.66 229.66 500.87 229.33 500.08 229.25 498.84 230.21 496.23 231.38 494.69 233.13 493.65 237.4 490.78 240.09 490.11 242.98 489.98 245.16 489.97 247.79 490.3 251.97 491.17 254.86 491.34 258.61 491.33 260.19 490.88 261.97 490.22 263.59 489.4 265.59 487.86 265.96 487.46 267.83 486.2 267.28 484.89 266.89 482.47 266.21 482.48 266.15 479.77 265.73 479.4 264.49 478.88 263.59 478.24 262.81 477.19 262.36 477.05 261.72 476.31 261.47 475.68 259.22 473.4 258.61 472.59 258.5 472 258.77 470.59 258.03 470.45 257.88 470.03 256.65 468.45 256.13 467.11 255.51 466.08 254.03 464.11 254.83 463.2 254.78 462.37 255.55 459.94 255.9 459.18 256.05 456.19 255.86 455.35 255.84 453.9 255.2 451.42 254.3 451.44 253.38 451.22 252.51 450.73 251.95 450.67 250.91 449.91 251.29 448.24 251.1 447.23 250.15 446.27 249.93 445.58 249.91 444.58 250.45 444.83 251.1 444.66 251.21 443.37 249.86 443.19 249.89 442.29 249.56 441.6 247.8 439.38 247.59 438.96 247.7 437.84 247.62 436.83 248.32 436.05 247.9 432.5 246.34 432.62 244.31 431.89 243.3 431.34 241.21 430.88 239 431.22 238.41 431.98 235.45 430.75 233.45 431.32 232.2 430.79 231.84 430.8 231.1 429.77 231.23 428.32 231.52 428.04 230.4 427.17 230.57 426.33 230.4 425.01 229.56 423.33 228.68 422.39 227.61 421.56 227.61 420.37 226.6 419.6 226.77 419.1 224.92 417.36 224.52 416.36 224.61 414.61 224.11 413.47 222.48 411.2 221.99 410.16 221.26 409.26 220.98 408.61 220.8 407.41 221.12 405.72 220.89 405.2 220.06 404.37 218.77 403.79 217.83 402.81 215.91 403.54 214.7 402.52 214.12 401.77 212.66 400.54 211.46 399.16 211.48 398.95 209.94 397.73 208.38 396.94 208.02 395.66 207.11 394.88 206.11 394.36 204.13 393.78 203.49 393.89 202.17 392.94 200.52 392.03 199.37 390.68 198.39 389.81 196.3 388.87 194.18 388.12 192.19 388.83 192.23 387.36 192.07 385.97 191.86 385.4 190.9 384.33 190.08 382.75 189.82 380.72 189.24 380.63 187.97 378.68 187.06 377.7 186.21 376.19 185.76 375.99 184.45 376.93 184.42 377.41 183.88 378 182.76 378.14 182.38 378.41 182.31 379.29 181.81 379.96 181.78 381.2 181.5 382.67 182.09 384.22 183.14 385.31 183.09 386.69 182.52 387.16 183.27 388.39 182.15 389.34 181.32 389.41 179.16 389.89 177.14 390.17 176.46 390.16 174.63 389.82 173.92 389.45 172.3 388.95 168.86 388.39 167.01 387.72 166.34 388.05 164.59 387.82 163.03 388.01 161.98 387.89 161.27 388.01 159.76 387.84 158.34 387.52 157.52 387.14 156.61 386.38 154.65 384.39 152.85 383.09 152.32 382.36 150.91 381.64 149.87 381.53 148.24 382.03 147.28 382.51 145.46 383.21 144.04 383.64 141.17 383.63 139.94 383.81 139.02 384.16 138.17 384.71 136.39 384.83 135.34 384.6 134.91 383.98 131.37 379.7 130.09 377.64 129.33 376.59 128.45 375.8 126.84 376.27 122.79 376.39 122.01 376.6 120.56 377.37 120.85 378.26 119.59 379.74 118.66 381.8 118.06 382.43 117.36 383.94 117.16 385.67 116.8 385.97 115.21 386.61 114.17 386.73 113.3 387.3 113.66 387.83 113.68 388.52 111.85 389.53 110.76 389.6 109.64 389.28 108.56 389.78 107.96 389.31 107.23 387.68 106.55 386.79 105.38 386.36 104.21 385.7 103.56 385.73 102.79 386.24 102.61 387.15 101.29 387.8 100.78 387.87 100.53 386.96 99.9 385.63 99.95 384.26 99.54 383.19 99.07 382.51 96.94 380.91 95.7 380.13 94.4 380.59 92.72 380.48 90.61 379.55 89.85 379.11 88.45 378.67 87.97 378.66 86.66 378.09 85.16 378.05 83 378.86 81.59 379.6 82.52 380.24 84.44 384.81 85.56 387.26 84.26 387.23 84.12 388.38 84.54 389.03 83.73 389.43 81.21 389.93 78.77 389.84 77.12 389.52 76.84 389.67 74.78 389.51 74.54 389.91 73.25 391.07 73.15 391.76 72.33 393.09 72.11 393.9 71.57 393.46 69.95 393.94 68.49 395.42 66.96 396.34 65.8 396.03 64.61 396.11 64.34 395.78 60.77 395.53 60.44 395.94 58.91 396.69 54.92 396.43 52.34 397.02 50.66 396.53 49.65 395.92 48.22 395.67 48.36 394.39 47.57 393.19 47.18 391.95 49.13 391.6 50.31 389.42 51.4 388.53 51.72 385.65 51.74 379.89 52.16 377.93 49.44 378.22 49.16 378.02 47.1 377.26 46.46 376.91 45.93 376.09 45.13 374.31 43.72 372.99 43.16 372.72 41.94 372.5 39.66 370.74 38.01 371.02 35.7 372.53 34.31 373.27 33.67 373.25 32.33 374 31.9 373.91 28.69 374.03 27.28 374.68 26.26 374.59 24.64 373.2 22.33 370.54 22.4 369.01 22.78 366.67 22.75 365.05 21.86 362.92 19.18 361.24 17.12 360.68 15.46 358.17 14.9 356.21 16.69 352.99 16.94 352.23 16.34 350.31 16.15 348.61 15.61 347.42 15.32 345.71 15.07 345.28 16.03 343 17.14 341.84 18.06 340.43 17.87 339.68 18.43 337.26 18.36 336.03 18.53 335.01 19.1 333.24 19.24 330.26 20.1 328.75 20.46 328.48 19.51 326.69 19.04 326.11 19.61 324.98 21.11 322.54 21.24 321.29 21.16 320.56 21.34 319.51 21.36 317.16 21.47 315.88 22.01 313.51 20.37 312.63 19.83 310.95 19.47 308.4 18.46 307.14 17.94 304.26 17.55 303.46 17.75 301.17 17.74 298.13 18.61 295.62 15.2 295.53 12.72 294.56 8.69 295.47 7.16 295.52 6.45 295.39 5.91 294.89 3.32 291.69 2.48 290.51 1 288.88 1.06 288.5 2.2 288.61 4.81 288.04 7.23 287.86 9.74 287.32 10.88 286.59 11.96 286.1 12.8 285.32 13.51 284.39 13.62 283.13 13.98 282.74 13.45 281.43 13.07 279.78 14.38 278.32 16.69 276.37 17.07 275.59 18.69 273.6 19.2 272.33 17.91 271.07 15.41 269.3 14.7 267.67 15.36 265.82 16.46 264.39 18.13 263.54 19.51 260.89 22.07 258.01 23.02 257.25 23.07 256.8 22.75 255.08 20.93 254.04 20.49 253.52 19.5 251.08 20.56 248.46 20.54 246.59 20.23 244.51 20.19 243.55 20.72 242.64 22.14 241.07 23.43 240.1 24.08 239.27 26.07 237.95 26.77 237.35 29.53 236.82 30.14 237.01 32.1 237.93 34.41 237.34 37.21 237.67 38.55 237.94 38.5 236.66 39.07 235.16 39.98 234.52 42.03 232.7 43.56 232.31 44.69 231.81 46 231.46 47.31 231.3 48.17 231.46 48.79 231.32 51.25 230.37 52.17 231.11 54.51 228.23 55.65 229.15 57.17 226.6 57.19 225.32 57.54 224.06 58.3 223.35 58.54 222.61 58.42 221.99 58.63 220.79 57.47 219.19 56.94 217.42 56.06 216.35 55.33 215.82 54.46 215.71 51.65 216.31 50.93 216.14 49.82 213.9 48.53 212.39 48.07 211.49 46.98 210.46 46.46 209.11 45.7 208.28 46.46 207.87 48.59 209.55 48.87 208.91 49.01 207.4 48.35 205.81 47.43 206.5 46.49 206.61 44.81 206.27 43.81 205.92 43.78 204.83 41.73 203.91 39.73 202.68 38.53 201.79 38.35 200.57 38.97 198.99 39.99 198.41 40.87 197.24 39.33 195.68 38.84 194.8 38.11 193.9 37.07 192.91 36.42 191.47 36.8 190.77 35.73 189.46 33.52 188.46 32.09 188.04 31.46 187.58 30 187.33 28.73 186.73 27.86 185.54 27.57 184.27 26.88 183.4 26.23 183.1 24.52 181.41 23.43 179.83 23.4 178.37 22.3 177.36 22.03 176.89 22.08 176.1 21.6 175.07 20.68 174.86 20.02 173.74 20.12 172.88 18.81 170.66 19.46 170.03 21.58 168.5 23.08 167.88 23.52 167.47 24.6 167.26 25.26 166.62 26.15 167.45 26.78 168.36 28.17 168.93 29.56 169.72 30.75 171.03 31.21 171.36 32.17 170.45 32.73 170.23 33.49 169.39 35.1 168.46 36.83 167.62 38.33 167.56 39.69 168.16 39.46 168.99 39.56 169.68 40.19 170.69 41.99 171.12 43.16 170.55 44.38 170.72 45.03 170.33 46.27 169.25 47.53 168.63 47.89 169.26 49.45 170.29 50.33 170.45 50.91 169.9 51.06 169.4 52.2 168.12 52.81 167.12 53.49 165.7 54.81 166.48 56 166.78 56.93 167.55 58.07 166.95 58.69 166.32 59.68 167.19 60.55 169.62 61.27 169.37 62.24 169.53 62.69 171.65 63.31 173.2 63.8 174.1 65.24 174.48 66.93 175.45 69.47 174.55 69.72 173.05 69.71 171.67 69.4 170.43 70.38 169.56 70.63 168 70.91 167.63 70.2 166.06 69.3 163.25 68.29 161.99 68.08 160.43 69.88 158.13 71.07 155.89 71.34 154.71 71.54 153.04 70.72 150.12 70.04 148.66 69.97 148.04 70.43 145.04 70.75 144.22 71.47 143.42 72.98 142.1 74.81 141.87 75.5 141.2 76.9 138.13 77.56 135.13 76.73 133.95 76.54 132.7 77.26 132.01 77.03 131.03 77.71 130.05 78.15 129.78 78.94 130.08 81.01 129.48 81.32 129.08 82.85 128.36 84.54 126.79 85.2 126.3 85.39 125.09 85.14 123.78 85.86 122.97 86.16 120.9 86.67 120.4 86.91 119.39 87.54 118.45 87.44 117.47 87.66 116.57 88.19 115.92 88.58 115.01 89.65 113.58 90.7 112.49 92.38 113.08 92.33 113.46 94.08 114.53 94.29 113.34 95.02 114.17 95.36 113.27 97.68 113.06 98.51 115.13 99.54 115.73 99.83 116.41 99.45 116.9 99.97 117.94 100.62 118.1 101.96 119.37 103.05 119.89 103.67 120.51 104.7 122.05 105.92 122.19 107.39 123.04 108.14 124.56 109.33 125.15 110.81 126.54 111.54 127.87 112.76 127.66 113.67 127.33 114.72 127.34 116.4 128.04 117.55 128.77 117.57 129.96 120.43 130.57 123.25 132.28 124.11 131.97 124.98 130.48 125.86 129.65 126.7 129.63 127.58 129.32 128.96 128.04 129.2 127 129.56 126.21 130.23 126.23 130.99 125.42 132.84 125.74 134.31 124.91 138.19 121.82 138.88 121.19 140.5 120.21 142.9 120.78 144.18 120.48 145.7 120.68 147.01 120.28 147.84 119.77 148.22 119.85 149.64 120.83 151.02 120.68 152.81 120.29 154.32 119.81 155.28 119.95 157.07 117.9 157.15 116.96 156.73 115.44 156.7 113.71 157.81 111.47 160.03 111.15 160.64 110.62 160.52 108.25 160.87 106.95 161.46 106.09 161.35 104.24 161.73 103.4 160.23 101.11 159.56 99.35 158.49 96.97 157.01 95.74 157.59 93.7 159.15 90.17 159.82 88.38 160.03 87.14 160.4 86.78 159.99 84.5 160.01 82.97 161.3 82.25 161.66 81.8 163.22 81.15 163.88 80.38 164.93 80.59 166.22 78.79 167.22 77.96 169.01 74.2 167.81 72.91 169.04 70.13 169.13 68.59 170.2 68.04 170.75 67.5 170.87 66.27 170.68 65.23 171.27 63.74 172.31 61.91 173.86 61.59 173.67 59.74 174.55 58.92 175.09 57.93 177.03 58.27 179.54 55.91 180.08 54.49 180.08 53.64 180.63 52 181.35 51.28 181.75 49 182.4 47.14 181.89 45.44 181.82 43.59 181.3 40.25 181.91 39.01 183.71 37.77 184.86 35.82 185.46 35.35 185.24 34.81 185.41 34.03 186.55 32.53 186.44 32.19 187.44 31.21 187.68 30.47 188.75 29.54 189.37 28.48 189.86 28.07 190.65 26.88 191.62 25.16 192.81 24.38 194.15 22.12 194.87 21.31 195.34 18.93 196.56 18.45 196.88 16.53 197.26 16.04 198.69 16.58 199.28 17.13 199.31 17.93 199.84 18.59 201.58 18.95 202.12 19.58 203.62 20.3 205.03 20.59 205.47 20.95 206.43 21.22 207.29 19.28 208.16 17.8 208.16 20.3 208.84 18.77 209.88 19.23 211.13 18.91 211.92 18.01 213.52 17.09 214.95 17.41 216.48 16.5 218.07 15.72 218.38 15.92 219.42 15.46 220.43 14.76 221.69 12.34 222.35 10.1 222.69 8.19 223.72 7.77 224.58 7.71 224.98 6.84 225.88 6.64 227.94 5.98 229.55 5.7 232.66 6.45 234.52 6.75 235.36 5.77 235.82 5.65 236.79 4.64 236.8 4.07 238.42 3.79 240.55 1.85 241.62 2.06 242.83 1.82 243.7 1.2 245.59 1 Z" id="24000000"/>
</g>
</svg>