<?xml version="1.0"?>
<svg xmlns="http://www.w3.org/2000/svg" version="1.2" baseProfile="tiny" width="800" height="1004" viewBox="0 0 800 1004" stroke-linecap="round" stroke-linejoin="round">
<g id="sido">
<path d="M 630.33 828.04 630.24 830.03 627.5 829.55 625.29 829.89 623.68 830.79 623.35 833 622.2 835.1 623.86 838.66 623.73 842.2 620.97 843.44 619.91 845.21 618.11 844.74 616.89 844.21 614.91 845.24 613.07 847.07 611.81 847.1 609.49 849.98 607.35 852.15 605.85 851.89 605.06 852.1 603.72 851.45 602.69 852 599.85 852.58 597.13 852.94 594.36 854 592.81 854.39 593.12 857.1 593.68 858.72 593.35 859.8 593.18 863.24 592.77 863.83 590.24 865.99 588.8 865.71 585.89 867.52 585.03 867.91 584.1 869.35 579.26 870.38 578.08 869.81 575.35 870.53 573.73 873.95 571.14 874.23 568.71 874.89 567.5 875.46 566.49 876.56 565.93 877.65 565.97 879.95 567.19 881 566.89 882.83 566.35 884.03 566.69 885.52 566.32 888.13 566.44 889.46 567.24 891.15 567.36 894.36 568.21 895.43 571.41 897.64 571.24 898 571.98 900.05 570.18 902.23 566.11 903.17 564.39 903.33 563.14 903.86 560.98 902.98 556.93 904 556.55 904.89 554.69 905.3 553.71 905.05 552.49 906.1 550.33 907.02 549.78 907.48 548.12 907.51 547.64 908.55 547.29 910.42 547.42 911.53 547.25 912.71 546.33 914.64 545.31 916 545.5 917.54 545.05 917.94 543.06 918.99 541.43 920.28 539.98 920.61 535.22 923 532.54 926.28 532.37 927.58 535.94 933.98 537.53 935.72 538.28 937 538 937.89 537.99 939.5 537.32 940.98 537.43 941.95 537.05 943.2 537.02 944.93 536.29 945.83 534.28 945.91 531.68 947.39 530.6 948.45 528.88 948.95 527.79 949.86 526.73 952.26 525.84 952.52 523.85 952.17 522.8 953.28 521.73 955.64 519.47 956.84 518.76 958.79 517.01 958.85 515.19 959.44 511.43 961.14 510.34 962.43 509.3 962.69 508.4 962.6 507.62 963.36 507.3 964.26 505.94 965.07 505.12 964.8 503.53 965.11 499.31 965 498.79 964.58 498.82 963.01 498.38 960.67 498.4 959.28 494.96 957.08 491.86 957.57 491.31 956.86 489.48 955.7 489.09 954.27 488.09 953.27 486.51 953.78 484.34 952.97 482.72 953.7 480.83 953.58 479.88 953.12 479.31 950.99 478.28 948.28 477.38 946.89 476.63 944.82 473.82 941.93 473.83 940.03 473.12 935.62 471.82 935.31 469.15 932.23 468.18 932.38 465.41 932.51 464.68 931.86 461.7 929.97 459.42 930.37 458.05 929.64 455.26 929.73 454.52 929.31 452.13 925.72 451.08 923.16 448.09 923.21 445.88 923.67 444.59 925.3 444.52 926.09 444.02 926.27 440.08 923.38 437.91 922.17 436.76 922.23 435.91 921.37 433.93 920.83 433 920.29 432.02 919.22 431.91 918.48 430.93 917.33 429.45 916.87 427.86 915.7 424.86 912.86 422.55 912.2 420.29 912.19 419.5 911.98 418.96 911 417.25 909.66 414.37 908.19 415.53 906.69 416.22 904.97 416.68 902.69 416.56 902.22 418.87 899.03 419.46 898.62 421.07 895.79 421.03 893.45 419.43 891.71 418.81 890.21 418.55 888.86 417.84 887.83 417.37 887.86 416.07 886.3 415.22 883.84 414.17 883.41 413.03 881.32 411.7 880.96 410.46 881.08 408.42 880.77 407.31 879.45 405.47 878.1 405.4 876.52 404.19 874.52 403.82 873.19 402.53 870.91 401.71 869.78 401.81 868.76 400.08 867.22 399.24 863.73 397.82 859.09 397.32 858.22 396.74 855.72 396 853.86 396.41 851.16 395.55 848.11 395.94 846.94 395.61 846.18 395.97 845.16 395.47 844.26 394.28 845.15 391.81 846.23 389.91 846.11 388.94 845.58 388.24 845.53 387.08 847.14 385.01 847.58 383.47 846.19 381.09 846.52 380.78 846.16 378.62 846.31 375.64 843.85 374.65 843.46 373.2 843.84 371.94 843.52 371.92 842.76 368.99 843.54 367.53 843.69 365.95 842.35 361.26 841.27 361.12 839.96 360.5 838.09 361.44 834.99 361.14 834.27 361.35 833.71 361 831.37 365.51 828.69 366.96 825.84 368.93 824.27 369.63 820.83 368.61 819.66 368.64 818.25 367.84 817.17 368.17 816 370.14 814.04 370.21 813.45 369.1 812.99 368.4 810.98 366.95 810.28 366.12 809.27 365.76 808.43 364.1 807.18 363.34 805.55 362.51 804.19 363.29 802.69 363.12 801.36 362.54 800.88 361.45 797.96 361.3 796.73 360.39 795.4 361.17 794.23 361.46 792.55 360.44 792.5 359.67 791.29 359.68 790.11 358.67 789.11 359.16 788.2 359.17 786.58 359.65 784.83 359.02 783.31 359.66 782.25 359.85 781.02 361.62 778.63 362.42 778.05 363.25 777.86 363.25 777 364.32 775.48 365.09 772.06 365.06 770.77 365.67 769.91 364.95 768.36 365.19 767.21 364.65 766.07 365.58 763.98 365.26 763.15 365.87 762.13 367.62 761.67 368.16 758.25 368.86 756.58 368.54 755.41 368.54 753.64 368.36 752.44 367.13 750.83 366.85 749.84 365.66 750.58 363.55 748.45 355.58 740.89 353.32 738.63 351.6 736.32 350.63 734.47 350.58 732.55 349.38 732.23 344.05 732.26 344.04 730.53 344.27 729.66 342.4 729.24 341.72 729.46 341.4 727.87 339.38 726.47 338.54 725.6 335.95 723.46 335.24 723.47 334.24 723.98 332.66 722.97 329.52 721.98 327.2 722.19 324.82 721.29 322.74 721.33 321.71 722.33 321.44 725 320.98 727.45 319.91 727.68 319.63 728.56 318.11 728.97 317.19 729 316.13 729.77 315.14 729.79 313.88 728.81 313.05 730.72 311.5 730.42 310.52 730.53 308.76 732.02 307.99 732.25 306.82 731.84 305.78 731 304.63 730.61 302.97 730.75 301.3 730.18 300.29 728.96 298.3 730.92 299.18 732.55 298.51 734.82 297.85 735.71 296.76 736.35 295.61 737.71 295.69 738.57 295.39 739.96 295.94 740.56 295.69 742.4 294.69 743.11 294.62 744.45 293.94 744.91 293.58 745.78 292.72 746.97 291.93 747.13 289.73 751.75 291.51 752.92 291.62 754.25 292.21 756.96 291.96 759.31 291 760.19 291.47 761.99 291.7 763.83 292.95 764.85 293.25 766.07 293.21 767.94 292.48 770.16 293.18 771.04 293.17 771.68 292.12 772.86 292.21 774.38 292.01 775.15 290.41 775.98 290.07 776.6 290.51 777.31 290.67 778.71 291.16 779.46 293.25 779.44 295.08 780.79 294.84 781.61 296.39 783.45 297.88 784.05 298.9 783.86 299.53 785.22 301.76 786.53 300.43 788.63 300.69 789.71 301.92 791.82 301.86 795.33 302.42 796.86 302.71 799.8 302.03 801.72 302.66 803.12 302.47 804.48 302.82 807.12 302.58 807.89 303.64 809.8 304.36 811.55 301.63 814.99 301 818.08 301.24 819.05 301.99 820.44 300.96 821.42 299.84 821.37 298.79 821.95 299.08 823.04 300.51 827.17 299.37 827.46 299.04 828.73 298.01 830.81 298.61 832.33 297.83 833.89 296.89 834.5 296.92 835.24 296.55 836.83 294.24 838.56 293.55 840.83 294.67 840.42 296.29 841.36 297.2 842.32 297.58 843.71 300.05 847.34 298.48 849.05 297.74 850.61 297.87 851.41 296.53 853.87 296.74 856.02 296.44 857.62 297.28 859.88 295.56 862.04 294.29 862.35 293.23 863.81 291.7 865.13 291.81 866.24 292.33 867.55 292.34 868.9 294.96 871.26 296.84 872.59 297.39 873.85 299.1 874.73 299.8 875.62 300.54 877.03 301.83 880.74 303.15 886.11 302.56 887.69 302.25 889.66 300.41 890.44 299.53 890.19 298.8 890.54 297.28 890.63 295.83 891.41 294.19 890.89 293.15 891.1 292.53 891.89 291.98 894.53 291.05 896.8 290.67 899.59 290.52 902.45 290.73 903.26 290.11 905.44 288.18 905.74 287.34 906.33 284.57 907.78 284.59 909.26 284.4 909.9 283.08 910.46 282.15 910.51 280.22 908.73 278.33 909.23 276.67 910.56 276 910.77 273.6 912.07 273.86 914.34 273.27 915.86 270.89 917.69 270.54 919.5 269.11 920.23 266.75 922.07 264.89 924.11 264.49 925.73 263.77 926.91 262.4 929.74 260.51 932.12 259.27 934.75 258.08 936.48 257.54 939.24 258.1 942.53 259.48 943 259.7 943.38 260.23 946.34 259.52 949.11 260.16 950.67 260.24 954.28 260.77 954.91 260 957.19 258.83 957.83 255.26 959.35 254.31 959.63 250.89 960.07 250.97 962.54 250.49 963.74 250.5 966.48 248.05 968.1 246.13 970.35 246.26 971.32 245.1 973.22 244.62 977.6 244.12 979.83 244.12 980.8 243.67 982.75 242.56 984.59 241.67 984.65 239.32 984.17 238.55 983.55 235.94 984.06 235.97 986.18 235.4 988.86 235.7 989.77 235.46 992.75 234.53 995.03 233.25 996.37 232.73 996.23 231.37 997.5 229.26 1002.13 225.48 1003 224.66 1002.5 222.02 1001.68 219.49 1000 220.09 998.07 219.87 995.23 220.12 992.75 220.1 987.66 219.01 985.17 218.95 981.85 217.8 980.71 217.87 979.42 219.23 977.46 219.04 975.73 219.41 972.74 219.23 971.78 217.25 970.31 215.68 969.64 215.02 969 214.56 968.04 216.94 966.32 216.84 965.17 217.3 963.18 220.39 961.65 220.52 959.15 220.16 956.07 219.48 953.79 219.64 953.43 224.11 950.19 223.81 949.2 224.05 947.51 221.61 946.42 220.08 944.87 218.47 945.42 217.38 945.28 215.99 944.82 215.25 944.09 214.46 943.83 214.34 942.3 213.51 940.31 212.43 939.34 210.18 936.79 207.36 937.62 204.15 938.24 201.9 939.12 200.84 939.11 199.45 939.74 198.68 938.83 197.12 937.95 196.53 936.46 197.47 932.85 197.23 931.42 196.56 929.37 195.48 928.41 194.59 927.09 194.2 924.4 192.98 922.79 191.52 921.56 191.98 918.8 191.65 916.73 192.18 915.99 192.01 914.6 190.83 913.02 191.13 911.12 193.22 908.85 193.17 907.33 191.7 904.99 189.28 903.57 188.2 901.06 185.58 900.51 184.3 899.46 183.16 896.05 181.01 892.93 181.13 891.85 180.15 889.37 179.97 888.17 179.01 886.8 178.59 885.33 178.02 884.05 176.77 882.23 175.69 881.72 174.67 880.5 174.99 879.04 173.16 879.21 172.2 879.06 171.79 878.25 170.76 877.46 169.63 877.59 167.31 876.99 167.01 876.29 164.65 874.06 162.54 872.25 161.47 871.76 160.34 871.72 159.02 870.88 157.86 869.7 157.09 869.42 156.08 866.88 155.11 867.79 154.31 867.25 153.43 865.28 152.56 864.13 152.59 863.54 150.67 860.29 150.31 859.2 147.92 858.22 147.45 857.54 148.81 856.29 147.05 855.98 146.49 858.04 146.1 861.14 145.11 864.12 145.46 866.19 145.92 867.86 146.01 869.42 147.13 872.73 147.41 874.67 147.45 876.47 146.3 878.41 144.53 880.81 140.81 882.45 137.65 882.36 135.09 882.73 133.55 882.6 131.16 881.96 129.7 880.38 127.14 879.65 126.59 879.01 124.76 877.96 124.16 877.38 121.54 876.94 121.54 874.98 120.93 873.71 121.2 873.1 121.05 872.26 120.32 870.86 120.18 869.66 119.41 868.18 118.48 867.18 117.72 866.96 117.31 866.14 116.65 866.27 116.58 865.36 117.98 864.83 118.5 863.92 119.52 863.39 120.36 861.01 120.3 860.15 119.73 859.65 119.96 858.51 118.92 857.44 118.23 855.87 115.62 854.57 114.38 853.41 112.52 852.66 111.3 850.92 110.44 850.56 109.66 849.31 109.5 847.83 109.13 846.98 107.57 846.14 107.54 845.14 106.58 843.04 105.72 842.17 105.33 840.68 104.39 840.84 102.8 840.79 102.57 841.28 101.68 841.13 100.38 839.99 99.46 839.68 97.45 839.56 94.8 838.59 94.28 838.25 94.13 837.42 93.55 837.16 91.67 837.33 91.83 836.48 93.63 834.72 94.21 834.49 95.02 833.55 94.62 833.12 94.22 831.76 94.82 830.63 94.33 829.69 94.58 827.4 93.77 827.06 92.67 825.05 92.07 824.31 91.93 821.2 91.29 819.26 92.91 817.6 90.74 815.52 88.51 813.81 88.61 812.69 87.41 810.01 88.01 809.42 90.19 806.14 90.15 805.52 89.52 805.06 89.46 803.45 88.97 802.55 87.2 802.28 86.38 801.12 87.27 798.79 87.81 797.82 89.09 796.85 89.47 796.3 89.42 795.46 87.59 794.39 87.31 793.21 87.39 791.55 87.02 790.58 86.37 789.74 86.35 787.95 86.07 786.48 85.5 784.82 84.29 783.98 84.12 783.4 84.38 782.36 87.09 780.94 88.64 779.73 91.31 776.35 92.68 773.87 93.01 770.93 92.38 770.16 92.12 769.19 92.28 766.97 93.16 765.39 95.05 763.43 96.06 762.85 98.14 760.89 98.71 760.6 99.05 761.5 100.47 760.2 101.74 759.54 102.95 759.14 103.49 757.98 105.55 756.45 107.39 755.77 110.12 754.36 112.36 752.96 113.77 751.81 114.13 751.13 115.45 750.49 116.83 749.28 116.93 747.12 116.5 745.69 114.9 743.41 113.9 742.61 112.36 741.84 110 742.22 106.3 743.2 103.09 744.9 101.45 745.34 96.81 745.49 95.3 745.43 91.81 745.01 89.64 744.2 88.9 743.64 86.59 742.6 85.54 741.99 85.03 741.38 83.91 739.44 82.98 738.27 81.62 737.21 76.49 735.79 75.2 734.95 72.38 732.82 71.11 732.21 69.69 731.19 65.7 728.88 61.86 726.28 60.34 725.51 59.19 724.67 57.62 723.13 55.46 721.43 54.2 720.18 52.67 718.36 48.93 715.34 47.63 714.62 44.75 713.54 43.41 712.85 41.24 712.14 38.2 711.57 35.32 710.92 32.1 710.05 29.78 708.07 28.86 707.07 24.8 701.88 23.81 700.45 21.96 697.48 20.42 696.11 20.25 694.27 19.66 692.71 19.35 690.95 18.92 690.15 17.85 688.87 12.84 685.02 11.44 680.26 9.99 678 6.77 675.63 5.77 673.62 5.18 669.52 2.27 664.55 1 663.05 3.58 661.49 3.88 659.25 4.39 656.67 7.47 656.91 8.7 655.86 9.93 653.57 10.11 652.49 11.52 649.98 12.49 648.72 12.53 648.11 13.93 647.75 16.97 645.86 19.88 644.33 20.58 644.95 21.41 646.45 28.7 648.28 32.28 648.41 34.68 648.13 33.47 646.42 33.21 643.46 34.56 637.32 34.98 633.72 34.9 632.63 36.71 628.55 34.97 626.37 33.75 624.64 30.97 623.35 30.91 621.37 31.21 618.98 31.23 617.13 30.83 612.99 30.75 610.54 30.81 608.59 30.5 608.09 31.06 606.89 31.48 605.33 29.87 603.05 30.81 598.96 31.61 597.96 30.83 595.54 30.91 594.16 31.32 593.24 31.41 591.93 30.58 591.2 30.16 589.17 30.32 587.65 30.98 584.52 30.69 582.68 30.84 578.71 33.5 573.49 35.13 572.87 35.96 570.54 35.94 569.66 36.38 566.53 36.84 565.89 36.45 562.89 36.86 561.29 36.6 559.19 36.11 556.95 35.06 555.34 34.19 553.38 35 551.89 34.53 549.9 34.22 549.42 34.2 548.36 37.05 548.7 39.51 548.26 42.59 548.32 44.52 547.35 46.69 545.8 47.5 545.87 50.4 544.25 50.08 542.59 50.57 540.83 52.82 538.2 54.42 535.54 55.51 535.15 54.8 532.51 51.66 528.72 51.77 524.96 51.06 523.22 49.02 521.25 48.97 519.16 48.57 516.8 49.35 514.23 51.09 512.24 53.65 509.91 55.05 508.15 56.77 504.86 61.02 503.5 63.48 501.86 66.41 498.65 68.18 494.49 74.75 495.73 77.55 494.58 81.95 493.76 83.48 492.72 82.07 491.22 80.79 489.27 80.11 487.12 79.26 485.46 79.7 481.35 80.36 480.09 79.68 478.63 79.09 476.67 78.24 476.23 76.77 474.03 76.51 472.85 75.72 472.83 72.6 469.64 71.12 467.43 69.42 466.18 68.67 465.89 67.74 465.08 66.27 463.39 66.52 460.4 65.8 458.66 64.41 456.2 62.87 452.98 62.86 450.44 62.2 448.95 62.69 446.31 62.59 443.72 61.5 442.14 61.89 441.13 63.37 440.25 64.93 439.75 66.03 436.56 68.34 435.44 69.04 434.95 75.46 431.73 75.81 431.16 77.01 430.7 79.61 428.09 78.92 426.37 79.01 424.79 78.31 422.65 78.58 421.44 77.98 418.35 79.1 417.34 80.29 416.68 82.09 416.12 83.85 415.11 83.61 413.98 83.54 411.17 83.84 409.22 84.54 407.16 85.18 406.51 85.53 404.58 86.36 402.67 86.87 399.9 88.1 397.83 86.91 395.47 86.83 394.38 87.27 391.65 86.63 389.86 86.2 385.73 85.62 384.88 84.81 384.48 82.94 383.07 82.48 381.91 82.85 375.13 81.68 374.11 81.77 372.72 82.77 369.72 82.67 367.62 82.37 365.95 81.35 364.16 81.01 361.49 80.39 360.42 78.71 359.46 81.4 356.97 82.23 354.6 82.22 351.78 82.63 351.12 82.93 349.11 82.84 346.69 83.17 345.37 82.72 343.84 82.83 342.45 82.27 338.48 82.37 335.39 81.83 334.38 81.74 331.81 82.2 329.66 81.38 328.7 82.34 324.17 82.12 322.61 83.78 318.65 84.27 316.39 85.53 312.68 87.04 307.95 86.94 306.54 87.17 304.95 87.83 303.23 87.56 302.76 87.41 300.38 86.8 299.51 86.75 296.95 88.18 294.02 88.13 292.63 89.72 290 89.58 287.51 89.1 286.77 88.65 285.3 89.77 283.22 90.59 282.08 90.97 280.57 90.51 279.35 90.68 276.19 90.09 273.88 90.51 272.29 93.67 271.06 96.14 270.89 96.81 270.42 98.36 270.19 99.71 270.57 102.48 270.06 104.31 269.44 107.49 268.63 108.58 267.83 109.53 267.58 112.53 267.59 113.36 267.36 113.48 259.83 113.75 259.36 116.29 259.18 118.61 259.72 119.46 259.68 120.6 258.96 122.79 256.85 124.11 255.9 123.79 255.35 123.76 252.48 122.24 250.82 121.28 250.65 121.23 248.23 124.52 246.74 125.22 246.06 126.9 245.04 128.27 245.47 131.48 245.26 134.42 246.05 135.03 247.37 138.11 249.13 139.81 249.31 140.77 247.13 140.94 245.26 142.7 242 144.95 240.34 146.57 240.64 148.87 239.96 152.3 239.84 153.57 240.14 155.22 239.99 157.93 240.94 160.37 240.66 161.38 239.96 162.28 239.64 163.95 240.24 165.67 242.17 165.78 243.48 169.26 245.05 172.06 245.8 173.19 246.42 174.17 247.51 174.87 248.96 176.13 250.15 176.92 250.11 177.82 251.62 177.83 253.44 178.82 253.32 180.66 252.3 182.21 251.87 184.6 250.27 184.89 250.33 186.28 246.86 187.73 245.79 188.28 244.68 191.39 243.29 192.14 244.18 195.69 246.31 199.94 247.11 200.96 246.76 201.83 247.06 203.14 248.31 204.93 247.54 205.79 246.24 207.51 245.01 210.4 244.41 213.23 242.09 213.64 241.01 214.91 240.34 216.22 239.28 216.47 238.56 218.29 237.34 219.5 234.32 221.74 233.38 224.57 232.79 227.46 230.12 229.88 228.9 231.84 228.46 233.03 227.09 233.9 226.41 235.02 225.9 235.61 224.29 236.65 223.54 237.55 223.32 238.72 221.96 240.56 220.15 240.07 217.77 239.5 216.18 239.73 214.06 239.19 212.74 239.35 210.21 239.94 208.33 238.35 203.76 240.25 202.27 240.22 201.49 241.23 200.21 242.17 197.95 243.53 197.82 244.5 198.3 245.84 195.62 245.61 194.52 245.7 192.91 246.03 190.83 247.39 187.81 247.38 187.06 247.96 185.98 248.31 183.2 248.78 181.21 249.67 180.67 249.8 179.13 250.33 177.65 251.53 177.29 253.39 175.32 254.33 173.47 256.67 171.35 259.07 170.71 260.72 169.49 260.88 168.56 262.66 166.33 265.4 166.91 266.86 166.44 269.95 167.47 270.77 167.36 272.03 166.65 273.4 164.54 273.39 163.89 274.18 162.67 274.38 161.48 276.39 160.05 276.89 160.12 278.08 159.05 278.91 156.69 278.16 154.93 278.87 151.89 277.94 148.68 278.55 147.5 279.97 147.38 282.52 145.86 283.33 144.58 283.79 142.68 285.21 141.27 284.58 138.84 283.91 138.52 283.38 137.62 283.45 136.51 283.1 135.48 282.97 134.28 281.93 133.69 280.52 132.36 280.3 131.65 280.81 130.14 280.48 129.05 280.99 128.47 281.26 126.03 282.69 123.64 281.44 122.87 281.08 120.23 278.61 115.65 280.31 114.06 281.56 114.72 283.29 113.05 284.94 112.33 285.48 112.51 286.92 110.4 287.7 108.89 286.82 105.25 286.05 104.26 287.88 102.36 287.89 101.29 288.62 99.83 288.03 97.24 289.38 96.46 290.52 95.24 292.43 94.47 294.2 94.72 294.53 94.42 293.88 92.91 293.72 91.19 294.27 90.71 295.47 87.61 295.98 85.36 297.16 84.45 298.08 83.5 298.67 81.46 298.4 80.18 295.88 77.99 294.77 77.73 294.09 76.66 294.05 75.84 292.86 74.58 292.51 74.51 291.24 70.89 289.96 69.56 289.58 68.07 289.64 67.1 290.41 65.29 290.53 63.24 289.08 60.04 287.46 59.37 286.73 58.61 285.93 58.3 286.04 57.61 285.5 57.04 283.6 57.15 282.7 55.1 283.16 52.17 284.35 50.02 285.96 48.61 286.22 45.95 286.16 42.03 288.73 38.2 288.91 34.37 288.62 33.46 290.83 30.76 293.26 32.54 294.2 32.94 297.15 34.73 301.25 36.31 302.29 36.51 307.54 38.32 309.09 39.06 311.3 37.95 311.67 37.93 311.03 34.75 315.9 32.94 320.68 29.06 324.52 25.39 333.09 15.63 337.68 7.24 340.04 3.22 349 1 356.86 6 362.99 11.65 369.78 17.76 373.29 21.96 380.37 27.75 380.6 27.93 385.48 33.67 390.73 39.51 398.03 47.37 400.97 61.16 401.02 61.56 401.07 75.52 395.71 89.02 393.26 104.67 394.02 107.99 394.14 110.36 394.02 113.13 393.73 115.52 393.78 116.81 394.2 119.45 390.67 119.36 388.61 119.43 388.85 120.62 389.83 122.09 390.31 125.74 390.58 126.42 390.56 130.48 390.44 132.35 389.98 134.84 390.01 135.66 393.01 135.56 394.39 138.28 397.24 141.87 398.65 142.66 399.52 142.9 405.61 143.81 409.76 144.21 411.06 144.42 414.55 144.37 417.24 144.19 423.98 144.14 426.88 144.45 428.91 144.44 432.29 144.11 437.12 143.17 441.43 142.22 444.11 141.52 448.99 140.67 452.63 139.87 453.73 139.41 460.72 137.47 468.8 137.99 476.89 138.45 484.49 138.85 485.19 140.12 481.97 139.67 479.68 139.83 477.49 139.66 477.32 140.85 486.21 140.85 488.76 143.51 490.64 145.36 493.2 148.18 496.19 151.21 498.97 154.97 500.39 156 503.28 157.72 509.23 160.41 511.1 161.48 521.73 161.25 530.47 157.98 539.73 151.55 546.22 144.62 550.32 139.3 552.63 126.22 552.8 119.85 552.78 116.43 553.25 112.9 556.18 106 560.56 95.31 561.2 94.6 567.22 87.38 569.37 84.32 570.92 82.77 573.54 80.64 575.14 79.61 580.7 77.05 584.55 75.43 595.97 72.6 604.7 74.42 606.02 80.97 602.9 95.31 601.87 98.52 600.57 101.27 598.68 106.69 598.01 108.01 595.97 111.21 594.88 112.27 593.9 113.65 593.09 115.13 592.31 117.17 592.13 118.06 591.29 119.78 589.82 122.36 588.77 125.34 588.31 128.28 588.22 129.75 588.54 131.99 589.33 133.77 590.34 135.57 592.07 138.02 593.48 139.57 594.91 140.85 600.15 146.24 606.38 149.23 612.4 149.66 624.42 147.81 633.23 144.23 641.65 140.88 647.25 138.68 652.87 140.85 655.47 146.59 657.22 152.44 654.72 160.26 648.85 165.87 644.3 170.13 638.65 175 629.4 186.17 629.12 186.65 626.71 191.95 621.87 203.59 619.89 208.55 620.04 210.85 620.43 213.91 621.25 216.21 623.95 223.05 625.03 225.21 625.48 226.41 628.09 231.92 629.27 234.8 630.85 237.3 634.11 241.81 634.96 243.3 635.25 244.65 637.42 251.99 638.55 254.68 638.68 255.86 638.79 259.92 638.97 263.89 639.28 266.07 639.83 267.72 643.18 272.7 645.01 275.14 646.17 277.45 650.49 288.84 657.96 290.21 667.09 289.97 670.76 288.84 673.77 284.82 674.61 283.49 675.53 280.86 676.13 277.45 678.2 267.94 678.64 266.07 681.02 255.03 683.32 245.02 685.58 245.09 687.48 244.95 688.3 245.46 688.55 246.12 690.41 247.5 691.21 248.32 691.42 249.14 694.92 252.08 694.99 252.65 697.15 253.24 698.05 251.58 697.73 251.28 699.76 247.75 703.23 246.74 705.54 242.91 706.6 242.46 707.3 241.86 708.33 241.86 709.57 242.8 710.1 244.12 710.99 244.73 711.71 245.98 712.66 246.57 712.45 249.19 712.76 249.8 713.58 249.83 715.22 248.93 716.84 248.9 718.29 249.31 719.62 251.62 719.76 253.28 721.31 255.09 723.21 255.37 725.37 254.92 728.57 254.76 729.64 254.52 730.2 255.07 731.86 255.1 733.79 254.61 735.12 254.66 736.28 255.85 739.24 254.26 739.59 252.56 741.55 251.31 742.73 252.12 743.95 251.94 746.44 251.14 747.41 250.54 754.22 254.72 753.16 266.07 755.91 277.45 762.81 287.71 764.08 288.24 765.55 287.84 766.66 288.83 770.61 290.42 770.26 291.04 774.4 293.01 778.51 298.14 780.89 306.49 782.41 311.6 787.12 315.09 788.37 315.78 790.4 316.46 792.42 316.82 795.11 316.4 796.68 315.82 797.74 318.05 799 320.98 797.68 322.25 793.28 323.89 792.77 325.35 791 326.99 787.32 330.62 784.63 331.63 781.08 330.49 777.81 331.2 777.1 330.61 774.87 326.19 774.39 325.38 770.68 324.88 769.54 325.77 766.35 326.83 764.82 326.82 764.39 326.54 760.71 327.7 758.87 327.27 758.03 327.9 756.75 325.04 755.07 325.19 751.92 324.49 749.32 324.72 748.35 322.76 746.8 322.28 746.65 324.52 744.05 328.92 742.27 331.63 740.32 332.49 739.48 332.19 736.81 332.95 733.34 335.88 732.09 336.1 731.44 337.03 731.91 337.77 732.73 338.02 732.75 338.86 732.11 341.79 730.4 343.02 727.9 344.44 726.78 344.38 725.34 343.24 723.75 343.59 723.63 344.04 721.8 345.82 721 347.07 721.88 349.4 719.64 350.59 719.11 350.45 717.6 352.36 715.99 353.58 715.27 354.8 714 355.41 713.29 355.39 712.39 355.88 710.99 354.92 710.51 355.3 709.63 358.63 712.16 362.51 711.43 364.84 710.25 367.01 710.76 369.49 710.99 372.25 710.73 374.5 711.8 377.54 711.62 379.94 713.11 382.27 712.38 383.27 712.8 386.76 711.83 387.79 711.23 389.28 710.56 390.19 710.36 391.97 710.84 393.21 710.46 394.02 710.86 394.98 713.07 398 713.13 400.54 713.43 402.46 713.31 404.11 713.04 405.02 713.47 405.58 713.27 406.66 714.04 407.66 714.17 408.83 715.01 410.36 714.87 412.27 714.33 412.67 713.86 413.82 713.88 415.24 713.53 416.85 712.18 417.73 710.95 418.76 710.59 421.66 709.61 421.81 708.73 423.51 709.59 424.48 709.72 426.21 710.52 428.79 710.71 430.72 709.79 431.49 709.48 432.55 709.82 434.62 709.26 435.56 709.75 437.49 709.23 438.72 708.81 438.91 707.52 440.92 707.78 442.05 706.1 443.73 705.67 445.29 705.58 446.87 703.76 448.14 703.53 448.9 704.93 451.39 705.77 452.29 706.35 453.74 705.91 456.35 705.47 456.69 704.6 460.13 703.69 460.78 702.6 461.97 702.4 463.3 701.67 464.44 699.66 469.3 697.96 471.11 696.94 472.72 695.21 473.06 692.73 474.7 691.44 475.93 691.2 476.82 692.52 479.71 691.65 480.13 687.79 478.05 686.09 479.47 685.55 480.89 684.01 481.7 681.51 481.47 679.83 482.7 678.78 485.48 678.1 486.2 674.57 485.7 673.85 484.61 672.51 484.32 671.57 484.41 670.91 484.13 668.67 484.71 666.59 485.72 666.52 486.61 666.9 487.22 666.5 488.56 667.85 490.25 668.16 492.75 667.72 493.7 668.21 495.33 666.14 496.36 664.82 496.71 664.26 497.74 663.04 498.29 661.85 498.12 660.6 498.82 659.2 499.07 658.97 499.91 660.1 502.47 657.43 502.92 656.58 503.52 655.08 503.77 654.01 504.33 653.2 504.41 651.07 505.44 649.8 506.61 649.08 507.9 649.06 512.71 650.47 515.05 650.59 515.79 651.71 517.57 651.32 518.52 651.25 520.19 650.9 521.43 650.48 521.96 650.89 523.15 651.04 524.41 650.69 525.08 650.11 528 651.32 529.31 651.94 530.55 652.17 531.58 651.72 532.7 651.41 534.95 652.14 536.65 651.8 538.88 652.02 540.47 653.46 544.12 653.01 545.12 655.17 548.64 655.44 551.06 653.49 555.44 653.51 556.57 652.58 557.66 651.83 559.86 650.87 560.64 650.34 560.69 649.04 563.71 647.92 565.35 647.89 566.41 637.69 569.26 639.98 570.63 640.21 571.46 639.93 573.23 640.27 574.04 640.35 575.35 641.38 577.21 641.44 577.9 642.48 580.19 642.01 581.1 642.13 582.52 640.21 585.18 640.19 586.58 639.05 588.35 638.26 588.97 637.35 591.12 633.79 592.36 633.02 593.85 634.22 594.2 635.56 595.16 637.05 597.39 638.35 598.47 638.93 601.67 640.73 605.18 643.55 607 643.42 608.22 643.69 609.34 645.06 610.67 645.59 614.1 644.37 616.42 642.68 617.29 642.43 618.68 642.43 620.52 641.45 624.38 641.87 625.32 641.7 627.05 641.12 627.07 639.45 628.53 638.53 630.33 638.13 633.91 636.15 631.25 635.53 630.78 634.98 629.59 633.81 629.31 633.34 628.79 631.89 629.04 631.62 630.24 630.54 630.51 629.91 631.28 629.1 631.54 628.7 632.96 626.87 634.33 626.38 638.13 626.4 640.23 625.8 641.51 625.86 642.89 627.51 644.25 627.97 645.44 628.67 645.97 629.02 647.25 629.68 647.89 629.93 649.44 632.01 653.21 631.81 654.49 632.35 655.86 633.29 655.91 634.06 657.18 634.15 658.55 635.13 659.92 636 662.32 637.13 663.28 636.74 665.1 637.68 670.61 639.02 671.45 642.42 674.54 642.65 675.64 642.48 677.33 642.91 680.36 645.98 685.43 645.16 686.98 644.84 691.01 643.17 692.32 641.72 694.08 640.41 697.63 638.71 699.5 636.77 700.56 635.15 702.42 630.76 706.9 630.61 708.52 629.84 709.55 626.45 711.95 625.63 713.68 624.95 714.45 623.27 715.65 622.04 716.14 620 718.33 620.12 719.5 621.6 724.97 621.8 727.43 622.59 728.26 623.03 730.43 623.9 732.01 622.93 733.97 619.88 735.41 619 735.68 618.37 738.23 618.41 738.76 617.42 741.72 616.87 747.85 616.05 748.29 615.82 750.09 615.4 751.63 613.86 752.67 613.26 754.56 614.31 756.47 613.76 757.5 613.44 759.36 613.97 760.97 616.38 762.4 617 764.02 617.55 764.24 620.69 763.66 622 764.6 622.76 764.81 623.39 766.87 622.17 771.27 622.57 774.09 623.72 775.52 624.45 777.31 623 778.03 620.97 780.64 619.77 781.9 618.24 784.11 617.4 785.52 618.65 789.17 619.57 789.99 619.25 791.14 620.43 794.03 619.78 796.67 619.86 797.81 621.67 799.36 622.06 801.02 622.11 802.63 624.32 805.82 626.34 805.79 628.12 805.27 629.56 807.75 630.58 811.91 629.83 812.97 629.48 813.99 630.11 814.65 630.94 816.81 631.91 818.21 632.02 819.93 631.73 821.49 630.48 823.2 630.33 828.04 Z" id="25000000"/>
</g>
</svg>