<?xml version="1.0"?>
<svg xmlns="http://www.w3.org/2000/svg" version="1.2" baseProfile="tiny" width="800" height="783" viewBox="0 0 800 783" stroke-linecap="round" stroke-linejoin="round">
<g id="sido">
<path d="M 565.47 778.24 565.3 779.02 564.88 778.7 565.02 778.32 565.47 778.24 Z M 627.63 726.15 627.16 727.01 626.81 726.89 627.22 726.23 627.63 726.15 Z M 625.14 664.76 624.95 665.44 625.31 665.55 625.29 666.07 624.48 666 623.62 666.3 623.11 666.81 622.28 666.51 622.31 666.15 623 665.66 623.33 665.15 623.8 664.93 625.03 664.66 625.14 664.76 Z M 666.02 565.8 665.97 569.32 665.8 571.2 665.7 575.98 665.61 576.75 665.61 578.13 665.38 582.36 665.38 583.77 664.66 583.82 664.68 583.3 664.96 582.76 664.91 581.34 665.06 579.87 665.07 577.26 665.18 576.36 665.18 574.32 665.31 573.45 665.34 570.27 665.48 568.82 665.44 567.99 665.58 564.24 665.7 561.61 665.83 557.61 666.49 555.96 669.82 547.95 669.88 547.42 670.22 546.81 670.59 546.97 669.38 550.03 666.26 557.67 666.1 561.35 666.02 565.8 Z M 648.94 544.59 647.25 548.74 646.4 548.28 644.47 547.5 645.01 546.17 647.68 544.08 648.94 544.59 Z M 667.34 547.19 667.02 547.18 664.42 546.05 661.34 544.8 660.5 544.51 660.52 543.83 660.83 543.82 666.77 546.28 667.46 546.52 667.34 547.19 Z M 623.34 538.15 623.88 538.47 624.44 538.46 624.84 538.74 624.99 539.76 624.5 540.37 624.11 540.3 623.41 541.03 622.39 541.24 621.75 540.86 621.73 540.29 622.12 539.56 622.69 538.85 622.85 538.23 623.34 538.15 Z M 675.46 516.5 675.01 516.86 673.57 519.5 669.33 526.54 667.08 536.25 666.68 536.18 666.83 535.62 668.76 527.26 668.83 526.52 674.87 516.5 674.95 516.55 685.09 502.63 685.47 501.94 685.7 502.49 684.5 504.05 684.23 504.53 682.95 506.18 681.92 507.71 681.52 508.12 680.91 509.07 680.1 510.06 678.56 512.31 677.25 513.96 676.64 514.93 675.46 516.5 Z M 707.81 500.57 699.99 503.99 699.81 503.67 707.06 500.53 707.09 500.58 710.51 499.05 710.64 499.34 707.81 500.57 Z M 772.13 452.88 772.49 452.47 773.35 452.57 772.57 453.42 773.05 453.86 772.65 454.57 771.95 453.86 771.75 452.69 772.14 452.07 772.65 452.28 772.13 452.88 Z M 753.64 441.3 753.39 441.16 754.81 437.9 755.14 438.09 753.64 441.3 Z M 790.58 270.71 790.35 270.46 791.81 268.75 792.15 268.87 790.58 270.71 Z M 771.73 135.94 771.97 136.2 772.02 136.89 771.58 136.93 770.4 138.21 770.71 138.66 770.32 139.04 769.88 139.91 770.38 140.48 769.84 141.34 769.79 141.87 769.06 142.77 768.03 143.44 767.49 144.42 766.91 144.87 766.05 145.8 765.79 146.74 765.07 147.77 764.7 147.58 765.48 146.59 765.59 146.02 764.96 145.81 764.33 145.92 764.01 145.63 763.34 145.87 762.77 146.36 761.98 146.65 761.51 147.12 761.59 147.76 761.33 147.92 761.07 146.79 760.08 147.1 759.37 147.9 758.79 149.05 758.58 150.57 758.5 152.03 758.52 153.95 758.74 156.42 759.23 160.2 759.55 162.33 760.25 164.74 760.9 166.21 761.64 166.96 762.03 167.19 762.18 167.69 761.74 168.96 761.34 168.87 760.98 169.57 761.07 170.06 760.67 170.17 760.21 170.76 759.3 170.82 758.71 171.44 758.41 172.2 758.32 172.94 758.56 174.44 758.91 175.22 758.98 176.1 759.43 177.92 761.77 183.65 762.36 185.32 762.8 186.82 763.38 187.71 763.68 188.6 764.32 189.63 765.08 190.49 765.64 191.33 766.87 192.72 767.54 193.28 768.11 193.98 768.75 194.46 769.4 195.22 770.64 196.2 771.72 196.62 772.5 196.53 772.49 197.38 773.18 198.48 773.95 198.8 774.83 198.16 774.85 198.57 774.39 199.15 774.94 199.7 775.91 200.2 776.64 200.38 777.55 200.36 778.72 201.68 779.08 202.32 780.32 203.95 780.69 204.57 780.31 205 779.78 204.68 779.76 204.2 778.29 202.13 777.59 201.24 774.86 201.28 774.75 201.35 773.14 204.23 774.02 207.79 774.88 207.94 775.1 208.54 775.7 208.41 777.25 205.82 777.65 206.03 777.96 205.23 778.53 205.4 778.2 207.23 777.9 207.66 777.13 208.01 776.88 208.5 776.9 209.12 777.76 209.47 778.3 209.36 780.79 209.3 781.51 209.43 782.78 209.46 784.14 208.77 784.52 209.1 786.01 209.01 786.64 209.39 787.51 210.36 787.83 210.59 787.13 211 786.8 210.91 786.53 211.63 786.01 211.84 786.33 212.37 786.68 212.1 787.28 212.16 787.49 211.76 787.97 211.99 787.79 213.07 787.11 213.42 787.13 214.05 786.86 214.59 786.45 214.75 786.15 215.22 786.58 215.83 786.26 216.56 786.9 216.7 786.15 217.98 785.73 218.31 785.82 219.35 786.94 219.87 786.64 220.4 786.95 220.76 787.02 221.46 787.47 221.84 788.3 221.62 788.52 220.83 789.46 221.3 788.88 221.66 787.89 222.6 788.27 223.22 789.02 223.94 790.17 223.74 790.36 222.98 790.71 220.94 791.12 220.47 791.55 220.94 792.11 221.15 792.7 221.79 793.28 222.69 793.16 222.99 793.22 224.01 793.6 224.03 794.11 223.49 794.53 223.34 794.94 223.51 794.5 224.57 794.32 225.32 794.01 225.58 793.95 226.14 794.77 226.4 795.12 227.47 796.05 227.44 796.38 228.31 795.68 229.7 795.55 231.16 796.08 231.5 796.23 232.3 796.64 232.59 797.22 232.5 797.16 233.37 796.6 234.12 797.09 234.54 796.98 235.21 797.4 235.76 797.39 236.5 797.95 237.8 797.69 238.98 797.03 240.03 796.87 240.66 796.24 241.32 796.36 241.74 795.89 242.14 796.03 242.7 796.96 242.79 796.72 244.57 796.45 245.19 796.17 246.58 796.22 247.25 796.73 247.04 796.8 248.19 796.54 248.86 795.67 249.16 795.37 250.03 795.45 250.53 795.89 250.96 796.25 251 796.67 250.62 797.39 251.32 797.26 251.77 797.51 252.19 797.03 253.2 797.27 253.75 796.77 254.64 796.65 255.93 796.47 256.66 796.63 257.6 797.49 257.86 797.39 258.44 797.78 258.88 797.8 260.14 797.64 261.3 797.38 261.58 797.7 262.3 798.74 262.81 799 263.59 798.71 264.15 798.27 264.43 798 265.67 797.51 266.14 796.43 266.82 795.74 267.08 795.44 266.88 794.16 267.66 793.08 268.01 791.57 268.09 791.52 267.84 790.21 267.23 789.62 266.39 788.75 266.26 787.9 266.61 787.43 267.06 787.51 267.35 787.09 267.8 786.77 268.57 786.76 270.28 787.38 271.23 787.18 271.96 786.42 272.29 785.89 272.91 785.51 273.95 785.8 274.19 785.49 274.65 785.58 275.11 785.35 275.64 784.4 275.5 783.56 275.19 783.03 275.6 782.88 275.22 781.83 275.52 781.19 276.33 780.51 277.73 780.3 278.43 780.47 279 780.35 280.24 780.17 280.61 781 281.77 781.6 280.79 781.74 281.3 780.64 282.85 780.62 283.88 780.9 284.68 780.44 286.72 780.37 288.55 780.83 289.41 780.42 290.6 780.48 292.45 780.69 293.3 781.34 294.88 781.98 296.72 782.36 297.31 783.04 297.77 782.76 298.07 782.87 299.21 783.23 300.06 783.58 300.52 784.43 301.14 784.28 301.3 784.39 302.36 784.93 303.64 785.36 304.42 786.39 305.73 786.87 306.21 788.54 307.15 789.16 307.13 789.2 307.74 789.49 308.02 789.33 308.49 788.78 308.91 788.48 309.57 788.37 310.25 788.53 310.5 788.22 311.03 789.6 311.85 790.23 313.41 790.25 314.04 789.78 313.86 789.5 312.83 789.05 312.09 788.09 311.6 787.85 312.24 787.76 313.05 787.84 313.8 788.16 314.48 788.43 314.68 789.02 314.03 789.17 314.31 788.53 314.89 788.46 315.23 789.33 316.67 789.36 318.06 790.29 319.04 789.68 319.18 789.63 320.21 789.88 320.45 789.95 321.27 789.85 322.53 789.58 322.75 790.09 323.37 789.83 323.99 790.34 325.45 789.96 325.45 789.74 326.43 789.88 327.76 790.36 328.54 790.3 329.1 790.57 329.48 790.37 330 789.84 330.29 789.44 330.9 789.47 331.3 789.01 331.63 787.79 331.63 786.75 332.26 786.23 332.86 785.69 334.02 785.43 335.15 785.55 336.1 785.37 336.45 786.04 336.92 785.76 337.16 785.93 338.18 785.72 338.67 786.05 339.33 786.1 339.9 785.92 340.26 786.26 340.77 785.81 341.16 785.48 340.58 784.93 341.4 784.45 340.94 783.84 341.86 783.21 342.17 783 342.64 783.16 343.01 782.66 343.86 782.36 345.77 782.7 346.49 782.01 346.87 781.6 346.87 781.94 347.71 781.37 348.06 781.32 349.24 781.83 349.65 782.99 350.22 783.3 350.51 783.77 351.53 783.52 352.6 783.24 352.94 782.55 354.61 781.71 356.47 781.21 357.87 780.94 358.27 780.5 359.66 780.37 360.89 779.94 361.94 779.84 363.18 779.94 363.99 780.36 365.61 780.9 367.45 781.02 368.38 781.01 369.5 781.2 370.69 781.73 372.48 781.76 373.09 782.28 374.43 782.46 375.36 782.79 376.12 783.66 379.31 783.99 380.07 784 380.44 785.19 383.48 784.83 384.1 784.02 383.45 783.68 382.95 780.94 380.52 780.35 380.13 779.27 379.75 778.53 379.86 778.1 380.6 777.34 380.2 777.11 379.53 776.73 378.99 775.94 378.75 775.75 378.26 772.84 377.43 772.31 378.1 759.88 379.26 760.14 387.82 760.41 396.28 760.99 396.57 761.91 396.72 761.84 395.16 762.03 395.14 762.13 393.9 762.53 391.73 763.3 391.69 763.33 392.02 765 391.96 764.99 391.62 771.86 391.31 773.01 387.72 767.93 385.62 768.19 384.97 773.41 387.08 774.37 383.86 775.49 384.12 775.34 384.81 775.69 385.81 776.19 386.28 777.16 386.49 778.15 386.32 778.52 386.04 779.32 386.16 779.46 386.64 779.29 387.09 778.6 387.64 774.91 397.34 774.66 398.83 774.23 399.65 774.14 400.3 774.17 402.83 774.29 402.99 774.29 404.07 774.03 405.16 773.53 405.7 773.05 406.63 772.86 408.17 772.46 409.53 772.31 410.76 771.85 412.66 772.21 414.13 774.13 415.93 774.42 416.02 774.67 416.73 775.57 417.55 776.74 420.32 776.46 420.44 775.34 417.82 772.56 417.58 769.42 417.2 767.39 417.02 767.02 417.22 766.09 418.17 765.32 417.66 765.2 414.02 764.68 414.04 764.51 414.43 763.66 414.54 763.63 414.12 762.43 414.16 762.4 413.81 760.98 413.86 760.61 414.24 754.53 414.42 754.5 413.8 751.74 413.86 751.16 414.43 750.96 417.02 750.13 425.59 752.96 427.78 758.62 422.67 760.74 422.6 760.74 422.05 764.76 421.93 765.51 420.48 765.92 420.74 766.47 421.88 767.17 422.98 768.51 424.11 768.69 424.38 768.91 426.04 768.83 428.06 768.95 430.38 768.92 430.97 767.95 433.12 767.13 433.71 765.83 433.81 764.77 433.6 764.28 433.73 763.01 433.81 762.47 434.26 762.44 435.33 761.94 435.73 761.55 435.14 760.38 435.54 758.77 435.58 758.24 436.08 757.03 436.54 756.29 436.56 755.82 436.88 755.37 437.45 755.08 437.04 754.58 435.89 753.7 435.35 752.84 435.88 751.83 437.15 751.48 437.92 750.69 438.63 749.5 440.57 749.01 441.96 748.89 443.47 749.03 444.63 749.28 445.78 749.94 447.47 750.87 449.32 751.84 450.48 752.61 451.09 753.42 451.51 754.11 451.64 755.68 450.76 756.94 450.66 758.09 449.69 759.44 449.09 759.71 448.71 761.02 449 761.81 448.9 762.53 448.48 763.24 447.41 762.95 446.66 763.06 445.75 763.53 445.17 764.29 444.92 765.33 444.22 766.09 444.25 766.39 444.85 767.32 445.1 766.5 446.16 767.28 445.83 768.16 446.88 768.55 446.58 768.87 446.85 769.28 447.59 769.98 448.28 770.75 448.31 770.91 449 770.22 449.39 770.25 449.97 770.59 449.98 770.64 450.72 770.98 451 771.56 450.7 771.7 451.34 770.95 451.52 771.18 452.6 770.47 452.97 770.22 452.21 769.48 451.67 769.16 451.63 767.58 451.87 766.76 452.1 765.87 452.6 764.3 454.05 763.97 454.46 763.53 455.38 763.37 456.03 763.46 457.15 763.82 457.67 763.38 458.6 763.62 459.61 763.47 460.35 763.61 461.07 763.31 461.46 762.29 463.19 761.96 464.39 762.21 464.59 761.39 465.22 760.93 465.14 760.09 465.61 759.81 466.05 759.97 466.37 759.13 466.62 758.43 467.3 757.7 468.61 757.18 469.1 756.17 470.3 755.72 471.5 755.41 473.19 754.93 473.66 754.33 473.97 751.8 474.73 751.48 475.26 750.79 477.75 750.27 479.36 751.35 480.03 751.12 480.3 749.75 480.26 749.73 479.97 749.09 479.86 747.42 480.02 745.87 480.1 744.42 480.01 744.33 479.41 744.59 479.15 745.28 479.47 748.92 479.42 750.02 479.1 751.21 475.15 750.92 474.79 750.34 474.53 750.06 474.13 750.5 473.38 750.9 473.49 751.42 473.07 751.16 472.35 750.32 472.42 750.37 472.86 749.85 472.98 749.33 470.46 749.17 470.3 748.93 468.99 748.02 468.13 747.26 468.9 747.11 468.75 748.04 467.79 747.51 467.27 746.06 466.46 742.08 466.29 742.04 467.36 741.77 467.35 741.81 466.28 740.85 466.24 738.79 467.82 740.13 470.27 740.15 472.81 741.15 472.79 741.19 473.6 744.06 473.97 744.29 474.12 745.76 475.72 746.19 475.67 746.34 476.23 745.89 476.53 745.19 475.92 743.91 474.47 743.08 474.31 739.67 473.85 738.83 474.03 737.89 474.43 736.01 474.78 735.36 474.49 734.62 474.59 733.69 473.97 732.11 473.69 732.12 473.47 733.77 473.71 733.84 472.75 733.53 472.37 733.01 472.51 732.29 472.08 731.78 472.14 731.67 471.7 730.97 471.65 730.56 472.12 731.15 472.46 731.15 472.77 729.71 471.96 729.35 471.99 728.82 472.5 728.32 473.82 727.17 474.57 726.71 474.52 726 475 725.54 475.94 725 476.34 724.41 476.57 723.93 477.32 723.7 478.37 724.38 479.39 723.92 480.01 723.81 480.75 725.38 482.61 725.62 483.19 725.77 484.78 723.32 487.44 721.68 489.33 721.58 489.76 719.14 492.5 718.67 492.94 717.62 493.61 716.16 493.98 714.9 493.94 713.58 493.63 710.62 492.78 709.67 492.72 708.18 494.18 707.72 493.86 711.3 490.24 707.55 484.39 701.7 484.54 701.69 484.17 705.1 484.09 704.49 482.55 706.49 482.52 706.46 478.86 706.38 475.25 706.16 469.42 706.06 465.77 704.42 465.82 704.59 465.59 704.5 463.65 704.29 463.3 705.98 463.24 705.95 462.43 706.51 462.67 708.1 462.62 708 459.66 712.48 450.52 707.03 442.59 703.71 437.72 696.58 436.21 695.12 435.95 691.54 435.18 692.98 428.19 691.7 427.92 691.77 427.53 693.06 427.78 694.13 422.58 693.23 414.05 693.08 413.41 692.32 411.82 692.07 411.12 691.36 409.75 690.98 409.35 686.57 400.09 684.56 396.65 683.55 394.99 681.65 391.69 679.1 387.34 679.41 387.17 677.82 384.45 677.11 383.65 675.83 382.57 673.47 379.86 672.81 379.19 672.23 378.36 671.49 377.75 670.7 376.81 670.1 375.95 669.26 374.98 668.27 373.61 664.07 368.53 662.27 366.43 661.25 365.36 661.23 365.11 660.37 364.27 660.11 364.27 658.81 363.06 660.86 381.99 662.04 383.28 662.83 384 662.99 384.34 665.81 386.21 668.36 387.93 668.15 388 662.92 384.45 661.46 382.83 657.57 381.22 657.46 381.49 658.75 382.03 659.23 382.36 662.81 385.68 662.53 385.98 658.97 382.7 656.52 381.69 652.68 391.75 658.48 393.96 657.35 399.66 657.87 399.85 657.17 403.64 674.68 405.48 674.73 405.55 675.21 414.19 675.48 418.62 676.78 423.05 678.19 422.74 678.51 424.15 677.09 424.5 677.81 427.61 679.78 428.59 679.64 428.86 678.73 428.45 678.04 428.53 678.29 429.64 680.95 429.06 679.98 429.53 679.99 430.19 677.92 431.59 677.97 434.25 681.18 434.19 681.19 434.37 678.05 434.44 677.3 434.83 676.79 435.55 676.96 435.75 675.02 436.44 674.28 436.37 673.13 435.97 666.63 433.17 666.29 432.34 662.68 433.39 660.65 434.8 658.37 435.32 656.65 435.35 653.97 436.73 652.02 436.89 649.98 436.36 649.72 436.59 648.99 436.06 649.16 435.8 646.75 434.11 645.88 433.77 644.99 432.97 645.17 431.09 644.6 430.89 644.05 431.41 641.74 429.02 639.76 428.5 639.61 428.29 638.3 430.41 639.74 431.46 640.2 432.17 642.4 436.3 641.93 435.92 641.5 436.14 641.64 436.76 645.93 442.81 646.05 442.87 648.58 441.67 648.99 441.95 650.43 441.84 651.3 442.1 651.99 442.71 652 443.23 651.63 443.97 653.46 443.77 653.81 443.09 654.32 443.04 654.3 442.38 654.58 442.35 654.74 443.37 655.38 443.31 655.29 442.27 656.57 440.54 657.64 441.31 658.02 441.23 658.41 440.14 659.01 439.32 658.7 439.11 658.75 438.48 659.4 438.29 660.56 438.42 663.38 438.42 664.96 438.54 667.46 442.96 667.53 442.92 668.97 444.77 669.5 445.29 669.76 445.06 667.85 442.76 668.04 442.56 670.19 445.14 669.65 445.49 670.23 446.24 671.75 448.44 674.11 446.18 674.13 446.38 671.81 448.55 672.11 449.2 676.21 448.73 676.64 448.75 677.33 449.38 678.27 449.74 679.21 450.33 679.82 451.1 676.2 448.91 672.21 449.36 673.91 452.03 675.39 453.04 679.12 455.39 683.08 457.86 683.24 458.14 683.26 459.32 683.48 459.33 683.51 460.36 683.02 460.36 683.01 458.61 682.84 458.02 674.62 452.8 674.16 452.45 677.81 458.06 677.62 458.44 679.84 460.91 680.16 460.9 680.71 461.44 681.04 461.34 681.58 462.11 681.42 462.54 684.34 465.69 684.6 466.19 684.6 466.83 684.24 467.63 684.31 471.23 684.85 471.57 684.89 472.81 684.69 473.4 684.37 473.77 684.4 478.19 685.01 479.26 685.09 480.88 684.56 479.99 683.95 480.01 683.73 470.7 683.63 465.4 681.14 462.68 680.49 463.44 676.03 468.08 675.83 467.94 674.72 469.14 674.45 469.25 675.05 470.01 676.21 471 676.54 471.44 677.89 470.01 678.18 470.28 676.7 471.82 676.17 472 676.21 473.63 676.47 473.93 677.47 473.95 677.69 474.32 676.49 474.31 675.91 474.61 674.18 475.87 673.55 475.89 673.36 476.35 674.06 476.36 675.85 475.02 676.17 474.91 677.55 475 677.59 475.31 676.37 475.28 675.77 475.42 674.04 476.69 673.54 477.38 673.6 481.36 673.8 481.58 675.86 481.54 676.24 481.94 673.79 482.03 673.8 482.66 676.08 482.61 676.11 484.03 677.8 484 679.97 481.74 680.13 481.9 677.9 484.22 673.86 484.3 673.95 485.73 674.64 486.42 674.19 486.76 673.57 486.33 672.09 488.87 672.12 489.09 674.76 490.06 674.63 490.36 671.97 489.32 671.53 489.73 668.92 494.3 668.39 494.76 667.66 494.74 666.67 494.15 665.01 493.03 664.59 492.97 664.26 493.52 663.73 493.65 663.43 494.41 662.99 494.84 661.48 495.93 660.73 496.15 659.85 496.8 660.32 497.51 659.38 498.23 658.88 497.77 658.18 498.95 659.56 499.46 662.67 496.74 664.43 495.15 665.67 495.89 665.69 496.01 667.83 497.3 668.59 497.7 672.83 501.1 663.96 515.81 659.71 514.1 658.87 513.86 657.46 513.3 653.5 523.21 652.56 522.83 651.87 524.6 650.3 528.1 650.14 528.96 650.41 529.56 656.69 535.22 656.2 535.09 650.03 529.54 649.9 529.46 641.19 526 630.66 521.74 627.89 520.66 627.64 521.65 627.32 521.56 627.56 520.54 626.67 520.17 626.38 520.68 626.33 517.51 626.46 517.51 626.43 515.96 626.1 515.57 625.57 515.59 625.6 516.93 624.14 516.98 623.17 514.27 623.22 514 624.1 513.3 624.18 513.07 623.14 510.82 623.19 510.38 623.7 509.91 623.22 508.89 622.35 507.34 622.02 506.55 621.14 505.43 620.05 504.47 619.49 503.11 619.47 502.71 619.8 502.31 617.45 500.38 615.88 500.18 614.39 499.46 613.32 498.55 611.52 497.3 605.43 491.66 604.8 491.04 604.65 490.23 604.8 488.5 604.29 488.24 603.59 488.17 602.06 488.65 601.67 488.58 601.98 487.6 602.14 486.27 601.93 484.58 602.13 483 602.03 482.13 601.49 481.39 601.1 480.48 601.07 479.81 600.69 478.86 599.95 477.71 599.35 476.99 598.41 475.48 598 475.1 597.26 474.75 596.96 474.11 596.21 473.56 595.77 473.44 593.67 471.91 592.85 471.75 592.22 470.88 591.67 470.86 590.45 471.12 589.64 470.75 589.36 469.83 589.8 469.34 589.6 468.77 587.56 468.81 589.32 471.83 591.33 473.49 595.2 474.67 598.22 477.83 600.42 481.17 601.05 485.99 601.12 488.81 597.16 489.59 597.78 490.22 597.81 490.96 597.3 491.11 597.58 492.67 598.51 493.77 599.38 494.02 599.78 494.4 600.41 494.59 600.68 494.38 601.3 494.58 601.76 495.11 602.38 495.45 603.02 496.17 603.74 496.53 604.19 497.41 604.26 498.76 604.42 499.24 605.18 500.24 605.68 500.59 606.73 500.88 607.06 501.13 606.87 502.77 607.2 503.86 607.79 504.25 608.35 504.43 609.83 503.86 610.85 504.74 611.44 505.84 611.72 507.02 612.31 508.26 613.08 508.72 613.34 509.52 613.41 510.6 614.85 510.31 615.54 514 616.36 513.84 616.41 514.14 615.61 514.32 615.89 514.67 616.73 518.87 615.45 519.23 615.28 519.78 616.2 524.04 617.09 528.67 617.3 528.81 617.28 529.64 617.8 532.26 618.1 532.8 617.88 533.21 618.9 533.01 619 533.43 617.98 533.62 618.4 535.43 619.7 542.08 623.47 543.57 623.93 543.29 627.22 540.36 630.54 541.44 635.76 542.34 636.36 545.49 634.42 552.47 626.69 556.31 626.47 556.58 628.82 561.65 643.83 554.99 644.01 555.24 644.56 555.07 644.82 554.75 645.68 552.72 646.96 549.48 648.76 545.19 649.92 542.23 650.83 540.24 650.85 539.63 651.22 539.58 651.73 540.09 657.19 542.38 659.48 543.27 659.66 543.5 659.27 543.99 658.48 543.67 657.86 543.26 656.28 547.07 652.62 550.21 651 554.18 646.13 552.2 645.93 552.69 650.8 554.68 647.16 563.62 655.26 566.92 655.48 574.95 658.41 574.83 659.88 574.87 659.87 575.25 659.21 575.42 655.78 575.54 649.05 575.65 648.2 577.26 647.13 577.94 647.48 578.6 646.7 579.04 646.29 578.44 645.18 579.01 644.81 579.49 644.87 580.08 643.86 580.68 643.4 581.16 642.38 580.89 642.03 581.14 642.11 583.09 642.24 583.11 642.26 584.58 641.62 585.37 641.26 585.57 640.03 585.56 639.25 585.26 636.37 585.05 633.39 584.75 632.01 584.55 631.61 584.58 626.99 584 625.56 583.93 625.41 584.52 626.59 584.73 626.75 585.49 626.81 587.84 626.96 587.94 626.94 584.88 627.05 584.82 632.5 585.78 641.39 587.46 641.54 587.54 641.57 589.53 642.95 589.5 642.92 588.06 643.92 587.83 644.09 588.1 644.14 589.82 644.15 592.27 643.71 592.48 644.01 607.1 642.24 607.67 642.46 616.93 646.72 616.95 646.93 621.49 647.68 621.44 647.69 622.29 642.59 622.51 642.8 631.02 642.81 633.93 636.83 639.64 636.17 639.84 636.07 643.51 635.76 643.57 635.49 640.13 632.68 640.18 632.68 640.66 629.4 640.81 628.93 641.68 629.37 641.96 629.51 642.34 629.2 643.08 629.58 643.81 629.61 644.6 630.06 645.18 630.59 645.48 631.22 645.44 630.8 647.26 631.09 647.88 631.26 649.03 630.87 649.59 631.04 649.97 630.24 650.12 629.6 651.4 629 651.75 628.31 651.91 627.82 651.81 627.22 652.1 625.91 652.48 625.37 652.77 624.97 652.75 623.68 653.35 622.21 653.09 621.43 653.25 620.96 653.68 620.59 654.63 620.03 654.93 619.84 655.69 619.53 655.53 619.34 656.21 619.02 656.18 618.26 656.63 618.25 657.33 617.13 657.9 616.64 659.72 617.7 660.28 618.01 660.78 617.79 661.29 618.12 663.08 618.42 663.88 619.19 664.98 620.6 665.82 619.88 666.44 618.68 667.64 617.36 669.49 616.23 671.66 615.64 673.56 615.1 675.91 614.78 678.75 614.81 680.29 615.03 681.38 615.29 681.9 615.68 681.54 616.07 682.35 615.81 683.18 615.49 683.4 615.49 684.29 615.89 684.56 615.99 685.02 615.83 685.71 615.34 685.81 615.14 686.46 615.43 687.53 617.77 688.96 618.73 689.37 619.92 689.67 620.69 689.42 621.24 689.06 622.89 688.97 623.59 688.72 624.18 689.08 624.61 690.73 625 691.47 626 692.09 627.03 692.49 627.98 692.58 628.94 692.8 629.68 692.58 630.93 693.32 632.09 693.49 632.01 694.23 631.7 695.04 632.1 695.82 632.55 695.94 632.63 697.17 632.41 697.52 632.62 698.13 633.33 698.33 634.96 698.54 635.47 698.77 635.92 699.51 636.14 700.29 635.78 700.48 635.17 699.08 633.89 698.91 633.26 699.21 632.86 698.83 631.69 700.08 631.07 701.34 631.08 702.61 631.44 703.48 631.79 703.89 632.34 704.18 632.68 703.97 633.19 704.09 633.68 704.5 634.21 703.97 634.82 704.16 634.97 703.55 635.49 703.65 636.09 704.14 636.34 704.55 636.16 705.36 636.3 706.23 636.8 706.74 637.4 707.01 638.1 707.01 639.85 707.2 640.44 707.51 640.97 708.49 640.6 708.73 640.95 709.23 641.58 709.54 642.32 710.09 642.7 711.37 642.24 711.84 642 710.5 640.56 709.55 640.24 710 640.15 711.57 639.93 712.77 640.03 713.57 640.47 714.4 641.17 715.1 641.5 714.95 641.81 715.28 642.47 715.29 642.86 715.69 643.27 715.63 643.41 716.03 643 716.39 643.45 716.9 643.55 717.48 643.93 717.99 643.74 718.61 643.4 718.62 643.13 719.12 642.42 719.56 642.39 720.02 642.04 720.65 641.96 722.02 641.54 722.35 640.3 723.96 639.53 724.46 638.96 725.4 637.91 726.06 636.24 726.44 635.61 726.23 634.39 726.42 633.61 726.87 632.62 727.63 631.55 726.82 631.04 727.02 630.03 727.64 628.64 728.03 628.47 727.65 629.89 727.19 630.81 726.73 631.11 726.24 630.57 725.7 629.79 725.5 629.23 725.62 628.67 726.25 628.16 725.93 627.65 725.85 627.08 726.01 626.85 726.44 625.49 726.21 624.58 726.66 624.55 727.38 624.34 728.57 623.6 728.65 623.09 728.98 622.35 729 622.16 729.18 621.34 728.95 620.77 729.4 620.53 729.94 619.96 730.62 619.66 731.55 619.13 732.5 617.7 732 616.74 733.21 616.19 733.45 615.77 733.09 616 732.67 615.88 732.31 616.26 731.76 615.91 730.46 616.01 730.16 615.74 729.24 614.54 728.52 613.54 728.14 613.24 728.2 612.52 728.85 612.03 729.01 610.24 729.24 608.42 729.2 608.36 728.71 610.5 728.7 611.3 728.53 612.3 726.78 610.34 725.11 609.54 724.51 608.84 724.14 608.03 723.99 607.38 724.13 607.44 725.62 607.11 725.67 607.05 724.14 606.2 723.96 604.57 724.05 603.61 724.23 601.4 725.02 600.39 725.56 599.54 726.21 598.15 727.78 597.63 728.94 597.77 729.57 598.07 730.05 597.16 730.92 597.2 731.77 597.93 732.71 598.12 733.67 597.76 734.56 597.71 735.56 597.36 736.44 596.63 737.08 595.85 739.24 596.26 739.51 595.84 740.24 595.29 740.36 595.82 741.74 596.09 742.04 595.68 742.78 594.43 742.78 593.94 742.65 593.57 743.02 592.95 742.93 590.94 743.29 590.12 744.22 589.54 744.43 588.98 744.85 588.07 745.17 588.44 744.49 588.76 744.25 588.95 743.66 588.73 742.83 588.28 742.42 587.46 742.31 585.17 742.36 585.2 742.72 584.55 742.86 584.22 742.48 583.96 744.17 586.74 744.83 586.48 745.25 583.68 744.66 582.91 744.92 582.89 745.24 582.21 745.67 582.04 745.51 582.81 744.81 582.32 744.46 581.35 744.32 580.27 744.72 580.38 745 579.62 745.38 579.29 745.81 579.42 746.39 580.2 746.23 581.19 745.8 581.3 745.99 580.42 746.5 579.46 746.8 579.62 747.45 578.71 748.32 578.63 748.83 578.92 749.29 578.16 749.74 577.66 749.61 577.47 750.01 577.57 750.48 577.41 750.94 577.83 751.44 577.53 751.76 577.04 751.52 575.49 751.7 574.96 752 575.11 752.87 575.5 753.43 576.69 754.03 577.39 753.87 578.38 752.08 578.98 751.97 578.13 753.42 577.95 753.91 578.24 754.67 578.23 755.18 576.77 756.79 576.67 757.42 576.05 758.32 576.26 759.17 577.05 759.87 577.02 760.85 576.48 760.85 575.65 761.34 575.46 761.69 574.85 762.03 574.18 761.7 573.66 761.7 573.65 761.16 572.69 760.36 571.47 760.17 570.86 760.22 570.33 760.58 570.49 761.09 570.21 761.51 570.22 762.21 569.62 763.1 569.29 764.16 568.94 764.74 569.55 765.27 569.29 765.75 569.68 766.43 568.89 767.07 568.62 767.74 567.79 768.81 567.99 770.11 567.62 770.21 567.28 770.97 567.52 771.31 566.57 772.64 565.83 773.49 565.62 774.32 565.79 774.69 565.23 775.24 565.02 775.69 565.12 777.07 565.27 777.5 564.94 777.73 565 778.19 564.09 778.79 563.16 778.97 562.36 778.82 561.62 778.45 561.04 778.6 560.19 779.17 559.92 779.8 559.46 780.43 558.58 781.19 557.58 781.67 556.27 782 555.77 781.97 555.56 781.18 556.6 780.99 557.3 781.1 558.2 780.66 559.06 779.92 559.46 779.24 559.59 778.73 558.13 778.01 557.94 778.25 557.16 778.13 557.47 777.66 557.18 776.53 555.49 776.61 554.28 776.83 552.89 777.55 552.39 777.67 552.07 778.47 550.93 777.95 550.21 775.73 549.17 774.62 548.51 773.76 547.93 772.32 547.6 771.15 547.93 769.78 548.49 768.57 549.91 767.15 549.42 766.64 548.32 766.06 546.85 765.01 546.22 764.97 545.4 765.76 544.45 766.45 543.84 766.59 542.43 765.98 541.33 766.09 540.34 765.84 538.39 765.83 537.44 765.74 536.56 765.2 535.72 764.34 534.71 763.85 534.33 762.91 532.6 763.19 531.41 763.47 530.73 765.21 529.22 762.88 529.04 761.46 527.18 760.44 526.01 758.07 525.18 758.53 523.17 759.29 521.34 760.43 520.25 760.69 517.6 759.63 515.52 759.12 514.94 758.63 514.06 758.72 512.47 757.84 511.85 757.3 510.66 756.64 511.64 755.36 511.78 754.73 512.28 753.52 512.48 753.51 514.51 751.54 515.01 750.05 515.21 749.1 516.63 748.44 517.3 747.14 517.11 745.73 517.28 745.34 517.15 744.25 516.64 742.68 516.32 742.17 517.26 740.67 517.88 738.67 518.79 737.89 518.29 737.07 517.52 735.1 517.74 734.72 517.14 733.27 515.94 732.1 515.16 731.58 514.06 730.42 513.29 729.25 512.4 728.52 511.37 727.16 511.65 725.65 512 724.54 511.93 721.48 512.38 718.1 512.75 717.46 513.41 715.84 513.59 713.96 513.47 711.76 514.01 711.65 514.94 711.84 515.38 710.69 515.19 709.37 511.58 708.58 509.15 707.54 508.05 705.04 507.31 704 505.96 700.1 505.53 697.26 504.68 695.74 503.17 693.86 501.89 692.37 501.76 692.01 499.66 690.61 499.39 690 498.85 689.58 497.61 686.78 497.15 685.85 495.21 684.51 493.56 682.72 492.73 681.2 489.92 680.29 490.06 679.21 489.77 678.22 488.2 675.51 487.59 674.02 486.75 672.88 486.7 671.99 486.4 670.63 486.06 669.93 486.13 668.67 485.73 667.66 485.62 666.41 484.88 666.8 484.18 666.96 482.93 668.58 482.14 669.47 481.28 669.52 480.39 670.61 479.5 670.54 478.13 671.09 476.2 671.77 475.79 671.8 474.3 672.51 473.5 672.68 472.67 672.48 471.19 671.57 469.97 671.16 468.39 670.14 468.13 669.7 465.14 667.49 463.52 667.11 461.45 666.53 460.92 667.75 461.82 669.54 461.95 671.75 461.75 672.21 460.32 673.88 458.64 674.95 456.1 675.72 455.44 675.82 454.09 674.47 453.22 673.97 452.21 673.67 450.76 674.16 447.57 674.8 446.84 673.04 445.86 671.44 444.68 672.98 442.23 673.8 439.51 674.57 438.58 675.73 438.1 678.24 437.33 680.16 437.03 681.18 433.68 680.69 432.21 680.33 431.07 679.73 428.54 679.62 427.01 680.53 424.93 681.03 423.12 680.78 419.84 681.24 418.05 682.21 415.11 682.54 412.84 683.64 409.71 684.38 406.39 683.68 403.49 681.63 402.64 681.88 399.98 681.34 399.62 681.38 398.31 681.02 393.12 678.05 392.37 677.83 391.42 676.35 390.03 675.36 387.65 674.19 387.12 673.09 386.41 672.48 385.24 670.38 384.8 669.79 383.44 668.53 381.13 667.51 382.08 666.15 382.15 661.85 382.38 660.78 383.59 657.87 385.13 656.59 389.52 653.06 391.55 651.4 391.65 648.82 393.19 644.13 397.66 643.12 397.96 641.38 401.01 638.7 401.99 637.43 403.23 635.62 403.18 634.06 405.86 631.63 409.03 628.82 409.3 627.4 408.93 624.2 407.68 619.8 402.11 616.97 400.63 614.9 399.91 612.79 399.21 611.08 398.8 608.43 397.99 607.37 396.4 605.77 396.44 605.11 394.44 603.8 394.2 604.02 393.33 603.89 391.83 603.23 389.08 603.4 388.38 603.07 386.93 602.95 385.96 602.27 385.92 601.31 383.09 601.54 381.21 600.52 380.88 599.54 381.18 598.18 380.1 597.61 379.32 597.31 377.88 595.44 378.35 594.52 378.88 594.3 378.46 593.28 378.61 590.78 378.97 587.63 379.23 587.47 379.16 586.71 377.26 582.95 378.52 582.45 380.7 579.65 380.37 578.64 378.7 576.32 377.9 575.3 377.7 574.72 376.9 574.45 376.85 573.71 376.47 573.43 376.09 572.79 376.05 572.23 375.57 571.63 375.25 571.58 374.49 570.95 374.55 570.33 373.82 569.85 373.81 569.36 372.67 568.87 372.11 568.39 371.93 567.75 372.71 567.29 372.07 566.33 370.52 567.28 369.23 568.19 368.92 568.65 366.27 569.24 366.28 569.75 365.11 570.25 363.49 571.6 362.22 572.9 361.75 574.09 360.56 574.51 360.1 573.9 359.49 574.07 358.63 574.82 357.44 574.66 356.33 574.74 355.1 573.9 353.69 574.09 352.79 574.56 351.93 575.51 350.74 576.2 349.37 576.6 349.34 576.87 348.12 577.5 347.26 577.85 345.07 577.93 344.44 578.5 343.19 579.14 342.16 580.14 342.31 580.98 341.67 580.9 341.18 580.16 341.01 579.53 340.66 579.12 340.7 578.21 340.23 577.31 339.8 577.09 339.48 577.47 337.67 578.32 336.52 578.54 335.57 578.02 335.25 577.61 334.34 577.99 333.13 577.65 331.36 577.98 330.29 578.1 329.58 578.41 328.71 579.74 328.49 580.27 326.83 580.62 326.53 580.93 325.46 581.43 324.74 581.44 323.96 580.78 321.54 580.87 320.9 579.16 320.74 577.93 317.91 576.25 315.42 575.31 313.57 575.09 312.8 574.3 311.33 573 309.71 572.44 308.71 571.45 307.42 569.97 305.93 568.61 304.13 567.85 301.4 565.35 300.28 564.06 299.05 562.03 296.89 560.78 295.39 559.74 293.78 558.9 292.07 557.66 289.85 558.04 288.48 557.52 286.91 555.97 286.38 555.34 284.47 554.83 282.16 552.12 280.02 551.01 278.57 549.26 276.89 544.95 275.98 542.21 273.35 541 272 539.56 267.29 535.68 266.58 534.5 264.76 534.03 264.03 530.45 260.18 526.84 256.59 523.65 249.02 520.31 247.01 516.29 247.84 514.2 248.73 512.29 247.93 507.11 243.91 503.53 243.42 502.72 241.75 499.55 241.73 498.91 241.95 498.06 241 497.25 241.47 496.03 241.21 495.62 239.04 494.22 238.62 494.35 235.4 492.82 234.11 492.09 232.59 491.48 231.47 490.7 230.82 489.95 228.66 488.9 227.84 487.31 226.47 485.82 227.09 484.6 226.93 483.44 226.55 482.67 225.84 481.52 225.74 480.21 226.06 479.71 227.34 478.25 227.82 477.26 227.76 476.49 227.94 474.83 227.25 474.17 227 472.29 226.48 472.23 225.6 471.68 224.75 470.83 223.63 469.21 223.27 466.75 222.71 465.63 222.61 464.59 223.32 462.41 222.7 460.58 223.28 457.99 221.68 457.48 220.83 457.04 220.6 456.71 220.87 455.41 218.79 453.83 217.56 453.64 216.49 453.11 215.87 453.18 214.39 453.94 213.06 455.27 211.57 455.58 209.49 454.73 208.86 454.3 207.63 453.19 207.06 452.37 205.69 452.63 203.99 452.49 203.6 453.43 203.1 453.5 203.13 453.95 201.91 453.19 200.3 452.68 198.67 452.43 197.88 452.56 196.78 452.12 194.81 450.54 194.35 449.95 191.61 447.58 189.82 445.04 188.7 444.64 187.22 444.55 186.92 444.74 186.41 444.49 185 444.28 183.22 443.86 182.33 443.56 182.06 443.66 181.11 443.54 180.17 443.62 179.23 443.34 176.78 442.31 175.14 441.99 174.62 441.35 172.67 440.01 169.72 439.34 168.77 439.24 167.54 438.6 166.07 438.37 163.66 437.19 162.42 436.7 161 435.92 160.12 435.27 158.84 434.19 157.11 433.39 155.63 432.32 154.1 431.45 149.56 430.81 144.63 427.54 140.17 424.73 136.46 422.78 134.81 421.55 133.53 416.4 133.88 414.37 132.22 412.39 132.03 410.91 133.8 407.9 134.14 405.58 133.55 401.83 135.43 399.14 136.99 398.78 140.66 396.31 140.93 389.19 139.24 386.11 135.58 387.71 133.18 388.97 129.09 390.19 127.05 391.7 126.12 391.95 123.15 392.03 120.25 393.09 118.99 392.78 117.48 393.85 112.6 396.03 108.28 397.18 104.01 398.83 103.06 399.64 101.65 399.96 97.72 398.92 93.3 397.29 88.19 400.02 86.24 400.73 82.07 403.44 80.17 403.18 80.15 402.89 79.22 403.23 77.87 404.2 76.95 404.28 75.71 403.52 75.15 403.31 74.13 403.85 73.55 404.56 72.67 404.69 71.08 405.35 70.15 405.64 68.05 405.72 66.78 405.57 65.8 404.92 64.86 404.01 63.76 404.09 63.61 402.3 63.7 401 64.02 399.09 64.41 397.99 64.67 396 64.42 395.49 62.59 394.73 61.23 393.99 60.88 393.96 57.59 394.28 55.84 393.96 51.94 394.57 45.35 396.28 41.5 396.94 40.18 396.35 40.12 393.7 40.22 391.79 41.55 389.97 42.45 388.59 42.65 388.12 42.49 386.19 42.1 384.05 42.06 382.2 42.85 380.3 44.13 378.9 45.37 377.38 46.65 375.57 46.19 374.49 46.8 372.67 46.2 371.15 45.74 369.29 44.07 368.37 42.99 366.73 42.79 364.75 43.41 362.88 39.18 361.42 38.48 358.84 38.47 358.47 36.64 358.21 35.7 358.28 34.6 356.6 33.45 355.16 32.42 353.31 30.76 349.98 27.68 351.82 24.58 354.2 22.77 355.92 21.35 357.12 19.34 358.9 17.32 360.63 16.42 359.34 15.21 356.19 14.64 355.54 13.72 354.13 10.8 350.47 9.41 349.17 9.23 348.65 7.79 347.23 5.06 343.16 3.96 341.68 2.48 341 3.03 339.6 2.77 337.98 1.81 335.78 1 333.34 2.08 333.44 8.12 330.02 10.28 328.28 11.75 326.88 14.45 326.86 16.24 326.11 17.81 325.96 20.22 323.46 23.18 324.37 26.42 322.72 28.73 321.14 30.12 320.77 30.61 321.29 31.97 320.26 36.34 318.65 37.81 319.31 39.26 318.25 40.58 317.49 42.7 313.8 43.97 312.32 46.45 309.96 49.01 308 50.6 305.83 53.14 300.79 54.28 299.18 55.6 297.6 57.56 296.51 59.7 292.69 61.74 292.4 63.12 291.19 63.61 291.13 66.6 287.58 67.88 287.02 70.2 287.76 74.73 286.33 77.31 285.14 77.78 284.25 77.14 282.69 77.5 280.35 77.25 279.3 78.02 277.52 79.01 276.77 79.74 275.56 81.49 274.01 82.16 273 83.26 270.25 83.24 267.95 82.66 263.87 82.94 260.91 83.48 260.4 84.96 255.65 85.93 253.03 85.35 249.84 83.28 248.09 82.61 247.07 82.98 244.87 83.89 234.57 83.64 232.98 83.09 230.98 82.74 229.94 82.78 226.27 81.84 224.73 78.39 222.8 76.86 222.12 75.41 221.99 72.4 220.83 66.94 222.84 64.11 221.84 61.02 221.86 59.18 221.8 58.23 221.31 55.79 216.78 54.59 215.71 52.34 214.93 49.68 213.42 51.45 210.51 52.59 209.49 54.93 206.97 55.75 206.35 59.51 203.14 60.66 202.02 61.63 201.67 65.41 199.96 68.78 198.12 72.05 196.08 74.04 194.3 74.96 192.11 77.18 185.55 78.11 183.67 78.48 183.43 79.33 183.57 82.58 182.95 84.69 181.28 87.66 180.63 88.09 181.13 90.66 183.35 91.54 184.03 93.94 185.24 94.88 185.51 97.49 185.98 98.5 186.87 101 188.3 101.41 188.64 102.2 189.01 103.64 188.7 104.58 188.09 105.13 185.81 106.1 183.28 107.06 182.43 109.48 180.56 110.23 179.83 110.37 178.42 111.68 175 112.85 174.08 113.08 173.24 113.75 172.02 114.54 171.01 114.75 169.67 115.29 168.88 115.81 167.23 116.29 165.98 116.26 165.71 116.48 164 117.17 160.37 117.82 158.22 118.42 156.69 118.63 154.74 119.44 153.21 119.91 151.95 122.51 152.56 123.83 152.96 125.19 153.01 125.91 153.89 128.29 154.67 129.48 154.24 129.94 154.27 131.01 154.99 132.78 155.7 137.44 156.07 140.76 157.38 143.9 158.52 146.61 159.1 147.75 159.51 148.9 160.76 150.54 161.01 152.88 160.73 154.14 160.91 156.36 161.31 158.39 162.3 161.12 164.59 166.68 171.13 172.12 167.43 175.15 165.2 175.89 161.4 175.44 158.09 174.68 155.89 173.14 153.62 170.21 152.16 167.25 150.17 165.84 148.39 160.59 140.94 158.79 138.12 157.52 135.06 153.83 135.28 153.52 134.82 152.75 130.67 152.9 129.61 152.39 128.51 154.22 125 154.06 122.17 153.65 119.74 153.63 118.35 154.95 114.45 151.8 109.97 153.25 106.28 154.69 105.13 158.14 101.57 161.05 97.81 159.86 97.39 157.24 95.39 156.04 92.75 155.67 89.87 155.75 88.01 158.92 84.02 160.19 82.15 162.15 79.12 162.41 78.61 162.15 77.16 162.91 75.47 164.33 74.77 164.58 74.02 164.48 73.43 164.75 72.49 165.44 71.79 165.69 71.16 165.58 70.56 166.37 69.09 167.18 66.82 167 66.6 168.85 64.56 169.35 64.29 170.3 64.13 170.99 63.85 171.29 63.55 171.63 62.35 172.3 60.82 172 60.08 173.37 59.33 173.67 59.34 175.3 58.56 176.44 57.28 179.25 56.87 180.74 56.3 183.3 54.44 185.6 51.76 187.39 50.45 187.82 47.33 187.91 47.06 193.39 46.35 195.04 45.39 196.61 44.21 203.29 42.64 206.3 39.94 208.63 39.21 211.55 39.12 214.22 39.14 215.76 38.98 217.61 38.45 220.17 36.98 221.32 37.53 223.97 34.96 225.9 35.11 228.74 34.67 231.11 37.08 231.73 38.2 235.15 37.46 237.77 36.05 239.95 35.96 240.46 36.69 240.71 36.58 240.19 35.79 242.51 34.78 243.03 31.83 244.04 30.28 244.2 28.55 244.53 27.81 244.73 26.46 245.01 26.45 245.52 25.63 245.42 24.85 245.51 24.2 246.88 23.16 247.36 23.07 249.83 24.41 249.96 24.7 251.45 25.18 251.93 25.85 252.68 26.03 253.74 25.62 255.57 25.76 258.3 26.28 258.43 26.82 260.25 26.32 262.63 25.23 261.03 23.75 261.48 22.17 262.18 20.05 263.75 18.43 264.31 16.83 266.82 14.47 263.51 9.67 264.86 7.48 267.4 6.51 268.21 5.87 269.09 4.3 268.96 3.3 269.47 2.79 270.65 2.28 274.65 1.24 277.23 1 278.25 1.44 278.99 1.47 281.48 3.77 282.87 3.75 283.64 4.31 285.84 5.46 287.54 6.07 288.25 6.62 289.45 6.4 290.15 6.57 290.74 7.69 291.47 8.58 293.85 10.86 294.02 11.22 294.84 11.62 294.97 12.04 296.07 14.3 296.81 15.01 298.23 15.67 299.05 18.2 299.21 18.49 300.13 19.24 300.6 20.54 303.11 19.86 306.72 20.37 307.96 19.86 308.67 20.08 309.5 19.97 311.12 18.89 313.19 18.81 314.97 19.95 317.99 20.48 319.43 21.85 320.15 22 321.08 21.61 321.9 20.24 323.12 19.89 323.83 19.87 324.58 18.49 325.39 18.13 326.65 18.29 327.63 17.46 327.85 16.9 329.15 15.62 329.78 15.13 329.99 14.25 330.3 13.49 330.39 12.15 330.21 11.4 330.28 10.9 332.54 8.74 333.14 7.74 333.69 6.55 334.05 4.79 333.92 2.51 334.11 1.99 334.82 2.21 337.14 3.61 337.81 3.78 340.99 5.73 342.21 6.78 342.67 8.07 342.96 10.26 345.98 10.74 349.72 11.41 351.88 11.83 352.84 12.23 354.12 13.49 353.82 14.3 354.05 15.08 354.45 15.29 356.44 15.45 358.32 16.23 360.11 16.65 360.9 17.25 361.12 17.65 361.3 18.67 361.69 19.9 364.53 17.69 365.68 17.14 366.04 16.75 366.28 15.75 366.12 13.92 366.36 12.85 367.32 10.97 368.13 10.28 370.17 9.22 372.85 6.63 373.3 6.3 375.09 5.74 375.94 5.75 378.42 6.19 378.92 6.36 378.48 7.18 379.95 8.21 379.48 8.9 379.58 9.13 379.51 10.58 379.72 11.16 380.41 11.48 381.11 11.53 381.71 11.78 382.05 12.3 382.34 12.09 383.27 12.66 383.11 13.57 386.08 16.22 387.09 17.06 388.36 17.03 389.94 18.17 390.28 18.24 391.7 19.99 392.12 20.23 393.93 21.71 395.49 20.65 396.07 20.6 397.28 19.84 397.91 20.16 399.87 22.1 400.24 23.9 401.15 25.01 402.17 26.02 404.38 28.64 407.81 30.4 408.42 29.86 409.34 29.25 410.8 29.03 413.35 29.92 414.63 30.13 414.95 29.97 416.39 30.59 417.94 32.12 418.4 32.15 418.69 33.17 419.63 35.06 419.69 36.1 419.28 36.86 419.74 38.89 420.22 39.56 421.47 39.69 426.84 39.04 427.37 39.39 429.02 39.01 432.12 39.3 433.42 40.71 436.37 41.7 440.4 42.93 441.2 43.3 442.83 42.59 444.99 43.2 445.86 43.13 447.71 42.7 451.06 43.11 457.3 45 458.06 46.34 459.66 48.88 461.08 50.01 462.17 52.46 462.79 56.25 465.77 59.29 466.55 62.48 466.92 62.91 467.02 63.77 466.82 65.9 466.21 68.38 465.92 70.56 466.6 74.1 466.11 75.32 463.63 77.54 462.22 78.61 461 79.82 461.11 81.53 462.65 85.05 462.55 85.83 465.05 87.74 464.74 91.87 464.03 95.02 463.38 98.44 463.24 101.24 462.3 103.6 461.84 104.18 460.28 105.6 458.24 108.03 458.09 109.35 456.54 112.48 455.46 113.07 455.88 115.91 456.03 118.35 456.36 120.66 456.69 122.31 456.96 124.86 460.65 127.81 461.41 130.84 463.63 133.51 464.12 134.21 464.29 135.74 465.22 136.21 473.4 138.09 474.69 139.51 475.49 139.89 477.45 140.23 479.32 141.98 480.48 142.92 482.97 141.65 486 139.84 488.75 138.74 490.8 139.16 491.1 139.78 492.29 140.39 493.38 141.3 493.98 142.48 495.16 143.26 497.3 144.3 498.12 144.41 499.71 142.3 501.02 141.62 501.68 141.13 502.11 141.79 503.11 142.83 503.87 142.94 505.79 143.42 505.95 143.82 508.11 145.3 508.74 145.54 508.68 145.9 509.86 146.2 510.76 146.82 511.01 146.62 511.72 147.05 512.06 147.57 512.69 148.14 513.6 148.51 513.74 149.04 513.59 149.48 513.92 150.46 513.54 151.59 514.51 151.71 515.97 153.76 516.6 154.19 518.33 154.11 519.69 154.5 520.56 154.89 520.87 155.39 521.44 155.8 522.52 156.05 523.4 156.83 523.94 157.05 523.6 155.53 523.61 154.49 524.54 153.72 524.72 151.05 526.11 149.66 526.9 148.65 527.45 148.6 528.21 149.14 528.98 149.08 530.23 148.19 530.8 147.9 532.26 147.65 533.61 147.75 534.28 148.21 534.46 147.17 534.29 145 534.91 144.35 534.78 143.64 533.85 143.08 532.7 141.95 532.74 141.48 533.55 140.42 535.71 140.5 535.92 140.32 535.89 138.8 535.3 136.31 535.41 134.43 535.69 133.72 535.83 132.39 535.68 131.1 535.72 130.59 536.01 129.86 536.36 129.52 537.36 129.23 538.29 128.69 541.07 129.37 541.64 129.27 541.6 128.45 542.38 127.61 543.54 127.15 543.83 126.68 543.83 125.75 544.55 124.8 545.89 123.31 546.96 122.63 548.7 123.19 549.37 123.11 551.1 124.66 553.11 127.03 555.09 124.88 555.66 124.74 557.2 125.24 558.35 125.87 559.99 127.48 560.2 128.68 559.78 129.48 560.06 130.47 560.45 130.58 561.82 130.01 562.63 129.89 562.69 129.08 562.87 128.76 563.57 128.25 565.02 126.96 565.7 127.02 567.28 125.99 570.56 127.64 572.2 126.72 572.69 126.19 574.02 125.34 575.52 126.44 576.08 126.6 577.17 125.41 577.36 124.64 577.3 123.3 577.76 123.01 577.56 122.4 576.51 121.79 575.35 122.18 575.26 118.87 575.17 117.67 576.54 116.17 577.47 115.72 577.68 115.37 577.14 114.77 577 114.22 577.82 112.87 578.9 111.89 581.4 112.85 581.87 112.6 581.88 112.11 581.42 111.17 581.31 109.9 582.1 109.14 582.36 108.43 582.14 107 583 105.65 583.24 104.16 583.65 103.43 584.76 103.71 585.71 104.15 586.4 104.61 588.14 104.43 588.91 104.57 590.19 104.24 591.27 103.67 593.31 103.45 594.03 102.89 594.83 101.83 595.69 101.34 596.15 101.24 596.9 100.26 597.91 99.69 598.01 99.13 598.39 98.76 598.78 98 599.52 97.21 600.67 95.46 602.51 94.73 602.91 94.83 603.36 94.6 603.41 94.03 604.15 93.09 604.68 91.86 605.65 91.47 605.87 89.99 606.4 88.81 607.02 88.16 608.75 86.96 609.98 86.39 610.8 85.74 612.27 84.98 613.05 85.21 614.03 84.81 614.69 83.61 616.98 83.7 618.36 83.4 619.35 83.72 619.66 83.42 621.03 83.43 621.34 83.64 622.58 83.76 623.9 83.42 625.22 83.84 626.03 84.32 630.25 84.71 631.72 84.08 631.76 84.65 632.2 85.42 632.02 87.4 631.99 88.43 633.46 90.46 633.7 90.48 636.18 91.23 637.12 92.32 637.45 93.46 638.12 95.34 638.68 95.7 640.76 95.56 642.48 95.78 644.21 97.35 646.21 101.15 646.06 103 649.03 102 651.69 101.68 653.66 101.1 654.31 100.97 659.09 99.17 660.84 98.75 663.03 99.11 664.3 99.88 667.32 100.4 668.27 100.25 669.13 100.94 669.94 100.96 671.66 101.68 672.14 102.2 673.81 102.53 677.32 103.71 678.86 103.48 679.77 103.93 680.1 104.5 682.8 104.51 684.11 104.32 684.65 104.66 685.49 104.59 686.14 104.95 687.14 104.81 688.58 104.85 689.11 105.18 690.37 105.2 690.63 105.46 691.52 105.84 691.76 106.56 692.3 107.21 693.02 109.1 693.68 110.31 693.74 110.61 695.1 112.47 695.43 113.55 695.69 114.01 696.65 114.29 698.52 114.21 698.89 114.37 700.51 114.47 701.68 114.36 703.31 112.81 705.31 112.8 706.27 112.51 707.01 112.16 708.3 112.19 710.27 113.02 712.56 113.72 713.84 114.3 714.38 114.86 716.19 115.77 717.02 116.29 718.15 117.21 718.91 118.4 719.7 118.51 721.1 118.45 722.22 118.98 722.7 119.47 723.19 120.31 723.7 120.52 725.37 120.68 726.07 121.03 727.5 122.04 728.99 122.93 731.43 124.1 732.53 124.81 734.58 124.83 736.33 125.68 736.9 127.85 737.78 127.78 738.76 127.4 739.61 127.26 742.29 125.76 743.97 125.56 744.05 126.95 744.56 128.16 744.54 130.11 745.47 131.66 746.81 133.35 747.87 133.8 750.08 132.02 750.12 131.36 750.68 130.17 751.49 129.52 754.51 128.08 756.68 129.18 757.81 129.31 758.55 129.1 759 128.54 759.52 129.1 760.98 129.99 761.56 130.08 761.9 130.43 762.66 130.49 763.5 130.87 764.41 131.44 764.94 132.04 765.56 132.23 765.52 132.62 766.16 132.98 767.01 133.63 767.75 134.43 768.44 135.03 769.91 135.88 771.24 136.06 771.73 135.94 Z" fill-rule="evenodd" id="26000000"/>
</g>
</svg>