<?xml version="1.0"?>
<svg xmlns="http://www.w3.org/2000/svg" version="1.2" baseProfile="tiny" width="800" height="1142" viewBox="0 0 800 1142" stroke-linecap="round" stroke-linejoin="round">
<g id="sido">
<path d="M 443.6 150.72 444.46 150.56 445.15 151.15 448.27 151.58 449.71 152.33 450.63 153.19 451.29 154.6 452.91 154.29 453.64 154.77 455.46 158.06 455.56 159.34 459.3 160.87 462.87 163.16 465.74 163.84 472.47 164.76 473.76 166.29 475.59 167.72 476.74 167.03 478.29 167.71 480.02 167.16 481.18 167.44 483.75 167.13 485.73 168.86 487.29 169.55 488.03 169.29 488.91 168.13 490.11 167.79 493.56 168.74 494.22 169.67 495.53 170.27 497.39 170.2 497.24 171.13 497.79 173.35 500.65 175.57 501.83 177.75 503.99 178.32 506.43 180.69 506.05 182.98 506.07 184.32 505.59 186.57 505.38 189.44 505.61 191.64 506.2 193.62 505.18 195.31 504.15 199.74 503.73 200.42 502.59 203.56 501.63 205.18 500.63 206.31 499.72 207.87 500.74 210.31 500.33 211.6 500.54 212.76 501.93 213.96 502.23 214.8 501.91 218 501.5 219.16 501.56 220.64 499.96 226.72 498.79 229.33 499.47 231.13 498.22 231.66 496.12 232.9 495.17 234.28 493.49 235.27 493.21 236.36 491.7 237.51 488.69 243.42 488.6 246.26 488.08 250.43 484.51 249.94 480.49 252.63 477.52 253.74 476.12 254.88 475.38 256.62 473.81 259.12 472.37 258.31 470.14 258.98 465.41 258.22 463.04 259.56 454.8 260.04 453.48 261.52 453.69 262.59 454.61 264.17 453.8 265.06 454.49 266.72 454.09 269.02 451.93 270.74 451.72 272.39 450.39 273.15 449.85 275.27 448.78 276.62 448.24 277.94 447.81 280.42 447.74 282.59 446.76 284.76 446.42 286.75 447.38 288.9 445.73 292.07 445.42 292.34 443.7 292.33 442.98 292.74 441.53 292.62 440.58 294.64 440.7 297.01 439.49 297.13 438.91 300.28 439.39 301.81 438.52 302.58 437.2 303.19 436.21 306.17 435.26 307.82 433.76 309.56 434.75 313.31 435.43 316.32 437.04 319.49 434.39 320.75 430.89 322.7 429.41 324.42 427.89 325.08 425.27 322.83 424.64 322.8 420.83 321.03 419.38 322.89 418.98 324.94 418 327.25 417.04 328.23 417.57 329.54 418.45 330.82 419.29 332.58 420.45 336.75 421.32 338.64 421.87 339.43 424.73 342.35 425.94 344.28 426.29 345.18 426.19 347.86 426.58 348.98 427.86 350.18 429.23 348.54 432.51 346.87 435.73 346.33 438.91 346.68 441.77 347.58 443.17 347.73 443.43 349.19 444.97 348.75 445.9 347.75 446.2 345.91 449.62 340.96 450.06 341.18 453.04 338.96 455.92 338.13 458.13 338.09 458.97 338.26 460.71 339.22 463.13 341.95 463.77 344.19 463.17 346.47 462.14 348.86 462.57 349.48 461.71 351.74 460.6 353.23 459.9 355.3 459.43 358.58 459.54 361.76 460.25 364.99 460.49 368.52 461.47 374.26 463.18 379.6 463.66 380.3 464.59 380.87 468.59 381.86 470.62 381.62 474.31 381.8 475.25 382.35 475.41 385.32 474.98 390.13 473.92 393.75 473.8 396.5 474.2 398.19 475.6 400.71 482.56 401.78 483.82 403.11 484.6 404.28 485.89 406.89 486.47 409.47 485.89 416.78 486.15 418.39 487.55 421.54 489.06 422.1 490.85 422.15 491.2 424.14 491.4 426.94 491.08 428.36 489.4 426.27 489.15 427.85 489.73 429.6 489.62 431.22 490.27 434.43 489.2 434.77 489.44 436.81 487.55 437.52 486.27 439.39 486.18 439.9 488.33 439.92 489.12 440.13 492.05 443.91 494.99 447.11 497.37 449.42 499.77 451.6 501.96 455.03 503.27 457.87 503.9 459.7 504.55 464.65 504.33 467.37 503.14 471.3 501.22 475.93 499.85 478.54 499.45 479.94 498.99 483 498.91 487.89 499.47 490.72 500.02 492.82 499.88 495.75 499.62 496.86 498.27 499.42 495.95 502.3 495.39 501.6 494.12 503.29 493.08 505.01 492.12 505.94 490.05 507.51 485.66 509.78 484.91 511.16 484.5 512.62 484.53 513.7 485.55 515.86 486.06 516.17 490.11 517.23 491.21 518.04 493.08 521.58 495.69 523.83 497.47 524.95 502.31 526.13 503.51 526.18 505.86 525.94 508.79 526.04 510.77 526.67 513.45 526.43 516.51 526.41 519.36 526.53 523.23 526.49 525.46 525.76 529 525.09 533.93 524.72 540.5 523.34 543.56 523.4 546.38 523.25 547.24 524.97 550.02 528.98 550.92 529.74 550.11 530.37 546.55 531.86 546.94 532.7 548.23 533.53 550.68 534.48 554.32 534.89 555.84 535.25 557.18 537.9 556.52 537.83 555.77 539.81 557.2 541.81 557.75 544.37 558.55 545.02 559.63 546.54 560.58 547.3 560.94 548.51 562.18 549.15 563.27 550.22 565.07 551.1 567.23 551.83 567.98 552.55 568.94 552.7 569.95 554.22 570.79 554.49 573.28 553.59 575.69 555.44 575.87 556.12 576.62 556.67 576.94 557.44 576.25 559.1 577.38 560.71 577.64 562.19 581.15 563.44 582.07 565.18 584.64 566.19 586.82 567.46 586.84 569.06 589.05 571.22 586.82 575 585.65 576.63 585.14 577.82 586.03 580.72 588.12 584.53 588.29 585.79 589.2 587.39 589.28 589.53 590.13 591.76 589.88 592.24 590.1 593.91 590.55 595.08 590.45 596.14 591.98 596.84 592.69 597.55 593.89 597.84 595.03 596.98 596.74 596.07 597.97 595.76 598.41 594.78 599.07 594.19 600.94 593.28 601.96 593.23 603.18 593.51 605.25 593.27 605.67 593.01 606.83 590.44 607.94 589.85 610.59 590.08 611.38 590.88 611.57 591.96 615.96 591.25 617.24 590.73 618.87 590.41 619.6 591.68 620.91 592.49 624.13 592.62 625.49 593.63 626.64 595.21 627.72 595.83 629.8 598.19 632.46 598.42 635.76 598.11 640.69 596.01 641.62 596.69 644.6 599.97 645.72 599.93 647.06 599.46 648.29 599.54 650.65 598.72 652.94 598.53 656.48 597.86 657.13 596.92 657.92 594.79 658.43 594.31 659.25 592.39 660.41 591.3 662.34 590.29 663.75 590.82 666.6 590.98 667.99 590.89 670.14 591.05 671.24 591.77 672.23 592.01 673.58 591.58 674.16 590.44 675.06 589.74 676.59 589.26 677.61 588.23 677.97 586.64 677.98 585.09 678.3 584.11 679.42 583.5 681.32 583.55 683.48 583.2 685.33 583.07 687.66 581.88 691.12 581.52 692.23 581.28 695.94 580.03 698.87 579.56 701.88 578.57 702.69 577.92 704.41 578.31 702.85 582.52 702.27 583.24 699.64 585.08 697.35 585.73 694.35 587.4 691.69 589.54 690.38 591.53 688.98 593.06 689.94 593.68 691.09 592.68 694.43 591.48 698.86 591.11 700.18 590.28 700.8 590.43 702.27 591.51 703.21 591.9 703.13 592.5 705.7 595.37 705.57 595.7 701.82 598.9 700.53 600.49 701.55 601.48 701.53 602.34 698.99 604.14 697.35 604.9 692.19 605.14 690.89 605.82 690.45 606.64 691.06 606.99 692 608.69 692.35 610.07 692.34 611.32 693.18 613.3 693.86 613.9 695.68 613.78 698.94 613.11 699.38 614.44 699.76 614.38 701.4 616.7 702.81 618.06 705.18 621.01 706.12 622.47 706.98 624.87 707.62 625.79 708.69 628.78 709.35 631.46 708.49 631.66 707.9 632.85 708.62 635.07 707.11 636.65 707.26 637.16 707.4 641.17 709.25 642.62 712.36 643.28 714.36 644.18 716.33 644.37 718.65 646.13 720.54 647.89 719.12 653.08 722.51 656.21 722.49 657.03 722.88 659.6 722.31 661.47 722.69 662.03 722.19 663.49 721.63 664.38 721.51 665.35 721.69 667.64 722.6 669.96 724 671.05 725.99 671.63 727.66 670.9 730.65 671.74 732.07 670.94 733.66 671.28 734.94 672.65 736.96 673.9 739.28 674.16 743.41 673.35 745.01 673.8 745.42 674.69 746.4 675.17 747.9 674.92 748.75 675.09 751.75 674.21 755.22 675.04 758.13 674.63 758.57 674.77 760.82 674.29 761.84 674.41 763.83 673.22 765.66 671.07 768.49 668.9 770.74 670.15 772.21 669.9 773.09 670.78 773.95 673.67 774.9 675.3 775.48 678.09 775.5 679.84 777.01 681.84 777.15 682.69 779.62 682.31 780.31 682.63 782.11 684.45 782.77 686.9 782.73 689.5 783.19 695.22 784.54 699.53 783.78 702.34 783.92 705.07 784.59 705.74 785.7 707.94 787.22 709.53 787.98 710.73 790.49 713.3 792.12 713.98 792.18 715.06 791.53 716.54 790.59 717.55 791.83 719.74 791.22 722.54 792.06 726.03 792.64 726.34 792.73 730.99 792.41 731.91 789.76 734.06 787.35 733.76 785.6 731.56 783.94 731.74 780.39 731.14 777.01 733.24 773.61 731.74 772.41 732.12 770.74 735.57 767.61 737.84 766.49 739 762.3 740.22 761.7 741.25 761.59 742.9 763.12 743.83 764.66 744.3 765.55 745.07 768.32 746.12 768.82 747.67 769.3 748.29 771.57 748.4 772.18 750.17 774.59 751.28 775.51 752.25 776.35 752.41 776.92 753.14 778.86 753.99 780.02 756.09 780.07 760.45 783.43 769.14 781.55 770.38 782.3 772.92 785.9 773.48 786.65 775.12 789.32 777.92 793.2 779.85 793.87 780.54 792.36 783.28 793.54 785.67 793.97 788.64 793.41 789.53 793.97 791.38 793.19 792.51 792.02 796.52 791.81 798.22 791.29 799.03 790.48 803.03 789.87 803.19 789.97 804.17 791.42 805.83 791.57 807.16 793.87 807.98 792.08 810.43 792.06 811.26 790.74 814.04 791.7 816.11 793.06 816.4 795.11 818.62 795.11 819.98 795.85 820.34 797.67 820.3 798.52 821.3 799 822.36 798.65 823.88 798.34 827.5 796.75 828.58 796.28 830.85 795.24 830.48 795.13 831.25 793.41 830.95 792.06 831.08 790.43 831.91 787.54 832.74 785.48 833.91 781.35 835.92 780.83 836.53 776.48 837.58 769.48 837.51 768.12 837.85 760.21 841.38 757.74 843.57 749.91 837.18 746.04 832.54 738.54 825.79 731.77 819.55 723.09 814.03 713.19 816.48 710.58 820.92 705.51 830.18 696.05 840.97 691.8 845.02 686.52 849.31 681.14 851.31 681.85 854.82 681.44 854.84 678.99 856.06 677.28 855.25 671.49 853.24 670.33 853.02 665.8 851.28 662.55 849.31 661.51 848.86 658.82 846.9 656.38 849.88 656.71 850.88 656.5 855.11 653.66 859.34 653.73 863.67 653.45 866.61 651.67 868.17 650.35 870.55 649.85 873.77 650.84 876.04 652.93 875.92 653.53 876.54 653.41 877.31 654.3 877.66 655.11 878.5 656.89 879.23 658.5 882.76 658.36 885.03 657.51 887.04 657.45 888.11 657.86 889.74 659.28 891.21 660.68 895.22 661.07 895.29 662.38 896.68 662.43 897.59 663.18 898.77 664.4 899.06 667.19 901.48 667.48 902.89 666.83 905.14 665.82 906.2 664.51 907.2 663.95 909.69 662.63 913.11 662.02 913.64 662.2 915.53 662.92 917.2 662.55 917.54 660.59 917.26 658.49 918.11 657.22 919.45 655.73 920.32 656.38 923.18 655.58 924.8 655.56 925.97 653.54 928.08 654.4 929.17 655.36 933.19 654.51 934.85 652.92 937.18 652.32 936.98 650.49 937.78 648.58 939.63 647.2 938.89 645.32 940.65 648.05 945.71 648.45 948.63 649.84 949.48 648.25 952.12 647.95 954.81 647.39 955.45 647.76 956.66 647.2 958.33 647.43 959.11 648.99 960.57 650.15 961.22 650.28 962.56 650.67 963.69 650.59 964.92 651.18 965.91 651.92 966.27 652.62 968.94 651.05 970.51 650.53 972.6 649.64 974.02 646.83 975.7 645.26 975.83 644.59 977.13 645.61 980.68 644.83 984.03 645.66 985.98 644.74 988.58 643.42 989.77 642.88 989.69 640.65 991.27 640.43 992.58 639.56 993.93 639.57 994.65 638.06 996.98 636.67 997.77 635.76 997.88 632.35 996.74 630.73 997.27 627.71 996.62 625.74 999.09 625.56 1000.11 623.74 1001.46 621.09 1002.17 618.5 1004.51 617.46 1006.55 615.42 1008.73 614.09 1009.13 613.5 1010.77 613.36 1012.46 612.37 1013.05 611.86 1015.25 611.47 1018.33 610.83 1019.52 610.84 1020.35 609.34 1023.69 608.97 1025.98 608.87 1027.76 609.12 1028.98 607.64 1031.94 606.57 1031.41 605.08 1031.55 604.03 1034.04 602.92 1035.46 602.95 1036.32 600.85 1037.97 602.61 1043.02 601.95 1045.09 601.78 1047.88 602.38 1049.34 602.12 1051.68 602.75 1053.43 603.3 1056.07 601.26 1058.07 599.96 1059.56 598.98 1059.81 597.82 1060.64 597.17 1062.42 595.93 1062.98 594.97 1063.73 593.65 1065.24 591.5 1065.73 588.82 1067.08 585.63 1070.02 582.5 1070.68 580.02 1071.72 578.69 1075.06 576.68 1076.4 576.4 1077.19 574.95 1078.37 573.56 1079.11 573.1 1080.3 569.98 1082.86 566.78 1083.53 564.88 1084.88 563.94 1086.32 561.96 1087.16 560.51 1085.79 559.54 1085.45 558.42 1085.84 553.72 1084.96 549.8 1082.6 548.97 1081.62 545.54 1083.16 544.93 1084.39 543.33 1085.56 541.79 1089.4 541.48 1089.33 538.83 1091.1 537.12 1091.58 535.09 1092.7 534 1092.84 533.99 1090.83 532.99 1089.15 532.12 1089.19 530.73 1087.88 529.95 1086.29 528.87 1085.08 527.63 1084.39 524.53 1083.57 520.69 1081.84 520.56 1080.38 518.67 1078.26 516.82 1077.59 515.82 1077.94 514.71 1078.72 512.01 1079.02 509.02 1077.97 507.19 1078.14 505.79 1077.81 502 1077.94 499.46 1078.7 497.68 1078.37 495.18 1080.2 493.24 1083.8 493.05 1085.86 491.99 1088.28 490.12 1088.08 486.71 1086.13 486.04 1084.67 482.79 1083.8 479.24 1084.03 477.73 1083.55 475.87 1084.68 475.11 1085.43 471.47 1087.08 471.52 1089.75 472.58 1089.94 474.26 1091.77 474.3 1094.94 474.65 1095.55 473.19 1096.6 470.77 1098.93 469.52 1099.73 468.58 1099.77 466.01 1099.18 463.21 1099.37 462.91 1099.89 462.78 1108.21 461.86 1108.46 458.55 1108.45 457.5 1108.73 456.29 1109.61 452.78 1110.5 450.76 1111.18 447.7 1111.75 446.2 1111.33 444.49 1111.58 443.76 1112.11 441.03 1112.29 437.53 1113.66 437.46 1112.3 434.7 1111.1 431.15 1110.94 426.7 1113.8 426.52 1111.54 425.59 1109.81 424.6 1110.44 425.45 1111.84 425.82 1113.42 425.22 1114.59 423.82 1115.8 421.88 1116.32 419.4 1116.02 415.49 1114.62 414.52 1113.96 411.81 1112.92 411.1 1112.46 408.91 1110.53 407.08 1109.97 401.98 1108.01 398.27 1106.41 395.78 1105.58 393.06 1104.95 390.63 1104.85 387.53 1105.53 384.6 1106.02 381.95 1106.79 380.18 1107.74 377.48 1108.95 374.62 1110.67 373.97 1111.3 371.99 1113.84 371.36 1115.13 371.17 1117.06 372.29 1122.64 373.57 1126.38 373.98 1128.68 373.27 1131.94 372.73 1133.04 370.93 1134.22 370.15 1135.44 369.34 1136.1 367.37 1136.91 364.5 1136.94 363.65 1137.12 361.81 1136.5 356.73 1138.44 356.48 1139.13 354.92 1140.19 353.43 1140.46 353.13 1139.05 351.73 1140.04 350.57 1140.31 349.38 1141 348.69 1141 346.92 1139.05 346.23 1137.84 345.48 1135.92 345.74 1132.81 345.28 1131.66 343.37 1130.2 343 1129.1 339.34 1127.59 339.28 1125.93 337.3 1122.36 336.25 1121.12 335.52 1119.42 334.54 1118.05 332.31 1115.71 331.05 1113.83 329.21 1113.41 328.05 1112.43 327.67 1110.99 327.67 1107.34 327.36 1104.23 331.51 1100.93 330.12 1100.1 329.09 1099.2 327.46 1099.27 325.13 1100 322.25 1099.29 321.18 1100.37 318.59 1100.79 316.13 1100.26 312.73 1100.17 309.97 1099.4 308.22 1099.9 306.43 1099.37 302.98 1097.31 300.04 1096.94 297.52 1095.59 296 1095.56 295.77 1094.39 295.37 1088.46 292.77 1086.89 291.05 1086.77 289.32 1087.11 288.1 1086.52 287.11 1085.51 286.17 1086.3 285.74 1087.34 284 1088.92 283.61 1089.96 281.91 1091.01 279.9 1088.38 278.27 1087.28 277.7 1084.33 277.86 1083.36 277.29 1081.37 277.76 1080.24 277.1 1079.01 277.1 1077.87 276.49 1076.91 276.74 1072.09 275.6 1071.06 275.12 1070.26 272.54 1070.06 271.37 1069.21 269.43 1066.61 269.22 1065.49 267.31 1062.43 265.69 1059.6 262.89 1058.82 260.85 1057.18 260.67 1055.63 258.61 1053.94 257.9 1052.16 256.97 1050.51 256.8 1048.89 255.81 1047.42 252.67 1047.2 250.98 1046.47 249.1 1045.16 247.14 1045 246.01 1044.36 245.04 1044.22 243.81 1044.41 243.03 1043.66 241.34 1043.18 241.63 1040.92 238.31 1040.69 234.93 1040.22 231.29 1039.83 225.96 1039.08 223.05 1037.87 220.13 1036.49 213.51 1033.13 207.26 1029.64 204.49 1027.61 202.87 1026.09 205.49 1022.72 206.34 1022.21 208.21 1021.96 208.99 1021.32 208.73 1020.21 209.77 1018.78 209.38 1016.68 209.75 1016.25 209.04 1013.76 208.58 1010.31 208.62 1008.24 210.15 1006.56 210.68 1005.46 210.94 1003.64 209.82 1001.53 208.66 1000.05 208.65 998.43 209.74 996.02 209.59 993.88 208.03 991.56 207.08 989.73 204.51 988.39 201.61 984.71 201.27 983.11 205.79 980.33 207.98 978.3 209.16 976.3 210.73 975.79 214.44 975.91 214.97 974.69 214.8 970.29 214.91 964.66 216.56 961.49 219.06 958.37 217.87 954.8 218.38 953.99 217.12 951.71 217.5 948.9 217.33 947.11 216.57 945.96 215.76 945.52 215.95 943.11 214.92 938.54 208.73 932.19 205.18 934.17 204.14 935.58 201.86 936.34 199.79 935.12 198.29 933.12 195.44 927.61 193.62 926.44 190.87 925.4 188.43 920.67 188.83 918.46 187.75 914.49 187.28 912.12 186.07 911.21 184.91 909.66 183.14 904.81 183.02 902.49 182.32 899.92 182.84 898.99 178.78 888.06 181.77 884.57 183.92 883.56 185.68 882.32 187.12 880.84 186.57 877.12 187.31 875.88 187.55 874.76 188.4 872.34 189.11 871.08 190.97 870.89 191.08 869.65 190.87 867.17 191.09 865.1 191.59 864.06 191.27 861.97 190.85 860.96 190.72 858.14 191.19 855.39 190.7 854.57 190.52 852.73 187.2 852.83 185.03 850.94 183.51 849.93 182.46 850.04 177.63 848 177.47 846.61 176.3 846.01 176.16 845.26 174.51 843.6 172.59 842.2 169.78 841.56 168.06 841.71 166.03 841.51 164.5 840.17 163.28 840.2 161.91 839.77 158.63 839.57 157.1 839.79 155.23 840.77 153.61 840.55 151.87 842.37 150.38 842.48 149.28 844.15 149.75 845.07 147.12 845.26 146.52 844.86 145.57 842.97 144.6 843.24 143.12 842.42 141.8 842.66 139.97 842.01 138.74 838.69 138.55 837.01 135.5 835.5 134.73 834.72 134.06 831.08 134.44 829.72 134.02 828.14 133.62 827.66 130.64 826.53 130.11 825.47 130.59 821.18 131.09 819.96 130.73 819.31 131.77 818.29 133.2 818.02 134.81 816.94 135.7 816.07 135.97 815.21 137 814.59 137.62 815.46 138.18 815.55 139.24 816.94 140.28 817.12 141.22 816.76 142.09 815.24 142.22 813.14 142.62 812.22 143.39 811.37 144.85 809.15 145.12 807.71 142.1 808.07 141.53 807.24 140.14 806.01 138.39 805.6 137.42 804.52 139.57 800.75 138.56 797.92 137.73 797.65 135.48 798.8 133.87 797.57 132.92 795.85 133.48 794.42 132.72 794.08 131.49 792.29 131.04 790.87 128.26 788.84 125.9 788.67 122.38 786.76 120.88 785.04 123.25 783.65 122.78 782.6 124.19 777.95 121.35 776.26 121.64 775.59 122.99 775.13 123.6 774.5 125.27 772.11 129.86 769.05 130.83 764.54 132.11 762.46 133.94 761.94 136.94 758.61 139.86 758.53 141.28 755.52 143.27 754.14 144.51 753.57 145.02 752.74 147.99 750.65 148.71 749.49 149.2 747.27 150.28 745.93 154.82 744.07 155.6 741.72 153.85 738.93 152.79 738.24 152.12 737.29 149.15 734.4 147.78 732.84 148.48 731.52 147.92 729.76 146.87 728.45 145.61 728.14 145.3 727.59 145.43 726 144.06 724.02 142.64 722.38 142.82 721.42 142 719.24 139.73 718.81 138.44 717.55 138.05 716.34 136.93 715.79 137.08 714.4 135.48 711.92 135.61 709.3 136 706.39 134.66 704.43 134.3 702.68 134.62 701.5 133.7 701.1 131.1 700.52 129.26 699.85 129.35 697.64 130.02 696.31 129.92 694.73 127.95 691.88 128.26 690.48 129.09 689.61 130.08 687.56 131.76 685.28 131.89 684.36 132.96 683.11 134.51 682.32 132.65 679.75 132.91 678.6 132.43 677.48 132.68 676.16 132.49 675 131.4 674.4 132.57 670.39 132.64 669.38 134.7 667.34 140.89 662.75 142.79 660.92 143.08 660.31 145.09 658.31 145.39 657.74 146.45 657.62 147.77 657.95 149.12 657.66 150.17 658.17 151.06 657.47 152.13 657.45 152.58 658.25 154.84 659.6 156.11 660.95 156.7 662.65 159.55 663.9 160.26 663.48 163.01 664.19 163.58 663.45 165.17 662.46 166.14 660.9 166.73 659.17 168.33 657.51 168.55 656.73 182.1 655.91 181.46 653.22 181.69 652.51 181.06 651.59 178.82 649.59 175.48 647.86 174.66 647.02 173.63 644.76 171.93 642.05 171.24 641.26 169.34 638.51 167.86 636.66 165.99 633.98 166.34 633.19 167.68 631.56 168.11 631.79 171.09 631.4 172.25 630.65 173.51 628.81 174.84 625.6 174.03 623.54 174.24 622.2 175.63 620.24 175.39 617.8 175.02 617.08 175.32 616.46 176.45 616.24 177.8 614.58 178.59 613.33 177.57 612.19 178.14 610.94 178.35 608.82 178.83 607.48 179.4 606.83 180.54 606.38 181.9 604.59 181.81 601.77 183.93 601.66 185.15 600.8 185.82 599.49 184.24 597.3 184.58 595.11 186.31 591.74 187.49 590.37 188.87 590.59 190.61 589.77 193.1 589.7 194.5 589.96 195.91 590.95 197.22 590.85 197.9 591.27 198.91 590.37 199.86 590.49 201.18 589.88 202.72 589.88 204.1 588.3 204.57 587.05 205.63 586.1 206.94 586.17 207.97 585.02 211.02 583.27 212.25 581.74 213.67 581.14 213.8 578.49 213.47 576.71 214.14 575.06 214.74 572.52 214.35 569.72 215.11 566.42 215.41 562.96 216.53 562.34 217.21 560.29 219.01 559.04 219.76 557.63 221.38 556.14 222.88 555.49 224.19 553.75 224.66 551.8 225.68 550.37 226.14 547.31 226.07 545.55 226.67 544.43 225.88 543.23 226.14 542.55 225.49 541.67 224.94 539.6 223.16 538.08 222.13 536.19 221.29 535.56 220.78 534.64 219.98 534.51 218.53 533.51 217.21 533.28 215.11 531.7 213.57 531.91 211.84 531.59 210.68 530.21 209.62 530.19 209.04 529.48 208.34 529.69 207.16 529.27 205.96 528.4 204.16 528.3 202.89 528.5 202.63 530.08 201.1 531.09 199.08 531.95 197.86 531.96 197.77 532.54 196.45 533.56 195.29 533.88 194.26 533.22 191.81 534.41 190.97 534.31 189.29 535.1 188.09 535.14 185.04 534.55 185.43 532.39 183.43 530.61 182.34 528.5 179.72 526.6 179.2 525.11 180.04 521.7 178.78 519.77 176.35 517.27 175.82 515.93 175.17 515.18 174.59 513.56 175.26 511.73 175.52 509.43 175.47 508.16 176.99 505.33 176.73 504.31 176.8 502.89 177.7 501.75 177.7 500.53 178.58 499.2 178.67 497.72 178.08 496.77 179.46 493.39 180.39 490.21 180.43 488.79 179.44 488.83 177.36 486.86 176.66 486.41 174.46 486.64 173.84 487.12 170.92 488.33 168.35 490.38 168.45 492.32 169.32 493.59 169.15 494.44 166.68 495.71 163.42 496.55 162.77 497.21 161.66 497.51 161.6 498.17 160.68 498.37 159.56 497.49 158.75 496.09 156.68 493.97 153.96 492.06 154.39 491.09 153.98 484.63 153.24 483.36 150.76 482.66 150.27 481.87 147.27 481.76 143.97 478.56 143.08 478.56 138.43 481.33 136.58 480.6 134.65 481.42 134.12 480.77 131.7 481.99 130.19 481.59 129.01 483.21 127.93 483.38 127.63 478.91 127.36 478.42 124.29 476.03 123.2 475.86 123.43 474.25 123.07 473.67 123.02 472.17 122.42 470.65 119.9 470.98 119.87 469.76 119.04 469.94 116.49 467.17 116.49 465.71 114.26 463.85 115.01 461.27 113.52 460.1 112.26 457.77 111.25 458.04 108.12 459.32 107.65 458.67 106.42 458.06 105.82 457.07 104.52 455.78 102.68 455.14 101.58 455.15 100.37 453.53 99.85 452.53 97.52 451.51 95.97 451.21 93.61 451.33 92.76 450.14 90.72 449.56 88.26 449.13 87.48 448.17 87.34 447.37 86.28 445.74 85.39 445.55 82.74 446.45 81.41 446.36 80.63 446.86 79.48 444.45 79.86 440.35 79.5 437.84 80.46 435.94 79.5 433.9 79.79 432.91 79.44 431.15 79.73 430.57 78.66 427.82 78.06 425.69 78.84 424.61 78.24 422.81 79.76 418.82 80.28 417.83 80.86 414.99 79.82 412.05 77.9 411.61 77.95 410.12 76.01 409.11 72.68 406.65 70.4 405.49 68.37 405.24 65.76 403.9 64.16 401.55 65.22 398.96 66.54 397.56 67.66 395.14 68.55 394.31 70.25 391.85 72.63 391.54 73.74 389.26 73.66 388.41 75.1 386.3 76.13 384.5 78.01 383.39 79.38 383.42 80.38 383.97 82.48 384.38 84.83 386.14 85.67 385.62 86.31 384.07 89.84 384.32 92.4 383.84 93.49 382.52 93.31 381.37 92.58 379.12 93.11 376.14 92.22 375.83 90.64 377 85.45 374.38 83.79 372.83 83.85 372.04 83.38 371.4 84.15 370.82 82.2 368.01 82.71 366.41 81.29 363.2 81.59 362.92 81.14 360.75 81.62 357.25 82.53 356.56 83.2 356.84 85.12 355.27 83.9 353.98 83.41 352.42 85.06 350.17 85.14 346.72 86.64 344.47 86.44 342.93 85.14 342.43 84.39 340.78 83.61 340.12 82.82 337.68 81.97 335.8 83.42 334.45 85.15 331.18 84.97 329.89 84.05 329.4 82.26 329.06 81.76 328.58 80.43 325.82 81.72 323.52 79.35 321.44 77.19 320.45 75.53 318.96 74.62 317.66 73.33 315.34 73.89 312.44 73.75 311.35 72.7 310.13 73.67 307.92 75.51 304.97 74.37 300.54 75.24 299.37 74.99 296.59 75.41 295.77 75.07 294.61 76.31 291.56 76.81 290.98 76.33 289.56 75.88 284.88 76.66 283.57 79.74 282.3 81.7 280.87 84.53 278.29 87.13 278.35 87.23 276.34 91.36 272.71 93.51 272.06 93.15 269.13 93.26 267.83 91.71 267.26 91 263.74 91.89 263.08 89.95 261.83 89.58 260.95 90.23 259.51 90.03 257.45 88.89 255.23 89.19 253.81 87.35 252.39 86.13 252.62 85.36 251.49 84.93 251.52 84.16 250.36 81.91 249.72 81.09 248.93 81.38 246.92 79.68 245.34 78.8 245.07 77.41 243.64 76.47 243.58 76.02 243.14 78.57 240.17 79.58 232.47 80.1 232.31 81.67 229.95 81.21 228.73 81.73 227.86 80.92 227.02 83.04 225.73 83.94 224.46 84.97 224.4 85.01 222.57 86.21 220.16 88.23 219.02 87.91 215.8 88.16 214.66 87.75 213.09 91.44 210.09 93.24 209.45 94.38 207.19 96.85 204.69 98 204.14 99.01 202.72 101.47 201.89 101.86 199.06 102.46 197.89 103.36 193.98 102.54 192.63 102.82 190.46 101.58 188.42 101.41 187.57 101.79 184.81 102.05 184.55 100.62 180.98 100.04 178.08 98.56 176.03 98.12 171.75 97.03 168.84 97.26 167.92 95.72 167.11 95.1 164.42 93.88 161.89 94.13 160.53 93.55 160.28 91.36 160.29 91.55 159.43 94.81 155.33 95.77 153.11 94.94 149.75 93.95 147.77 93.54 145.88 92.68 144.37 90.99 142.76 89.18 140.56 88.01 138.68 87.78 137.57 86.98 136.15 86.21 135.32 83.57 134.16 83.33 135.36 83.6 137.15 83.35 138.94 82.34 141.31 82.31 142.08 82.76 143.72 82.22 146.29 82.05 148.2 82.23 149.91 81.1 151.23 80.21 151.37 76.12 151.5 73.01 150.49 70.65 152.92 68.74 153.86 66.12 155.82 65.32 154.46 62.47 154.44 61.28 153 61.21 151.58 60.88 150.64 58.95 151.86 56.63 151.42 54.03 153.58 52.98 153.86 50.92 156.39 49.11 156.61 48.23 156.18 46.29 157.45 44.15 155.54 43.62 154.81 40.45 154.02 39.9 151.34 40.96 150.56 41.68 149.33 43.58 148.18 43.69 147.74 42.45 146.16 42.63 144.87 42.12 143.89 42.23 142.85 40.48 139.22 38.69 138.98 37.19 138.54 36.87 137.98 38.04 129.95 37.43 128.42 36.54 128.04 33.52 125.24 32.21 125.18 30.43 119.99 30.81 119.41 29.79 114.36 30.67 113.29 27.37 111.54 26.66 110.74 24.32 108.84 24.05 107.28 25.04 103.96 24.63 101.52 23.8 100.96 22.44 98.41 20.88 97.5 20.26 95.89 19.67 95.42 17.98 95.41 16.66 96.92 15.73 97.03 14.38 96.73 13.08 97.63 11.26 96.51 9.15 96.19 7.59 95.3 6.3 93.13 5.13 92.96 4.64 92.48 1.72 91.33 1 89.42 1.09 88.33 4.22 85.64 5.08 84.24 6.12 83.46 8.64 83.82 11.97 83.29 12.17 82.86 14.52 80.43 14.44 79.72 16.16 77.44 16.53 76.01 19.27 74.62 19.8 72.8 22.51 73.63 23.26 73.69 24.83 72.83 25.87 71.96 26.35 70.61 28.76 69.38 30.16 68.08 32.08 67 33.01 65.93 34.04 64.01 36.13 63.93 36.92 63.26 36.64 61.52 38.02 60.32 40.56 60.43 40.19 59.75 42.99 59.08 44.01 59.39 45.88 58.23 47.44 58.88 49.75 57.95 50.07 56.9 51.29 55.81 51.52 53.7 52.01 52.69 53.79 52.64 55.27 51.64 55.73 51.75 56.85 49.95 57.57 50.13 58.54 49.68 60.17 47.33 59.95 44.97 59.37 44.31 58.1 43.86 56.76 42.86 56.77 41.26 57.27 40.07 58.35 39.82 59.87 36.86 60.46 35.48 61.45 33.82 61.87 32.56 61.98 30.71 61.57 30.21 61.43 28.59 62.44 28.4 62.91 27.44 65.22 27.61 67.29 26.91 68.89 25.96 69.18 25.53 69.06 19.82 68.84 18.05 70.76 18.62 72.47 19.42 73.21 19.23 74.22 19.53 75.74 20.53 76.74 21.74 78.71 23.16 81.29 24.08 82.68 23.25 84.55 23.24 85.89 19.09 85.41 18.16 84.87 15.36 86.7 13.82 86.83 12.32 87.65 11.04 89.94 9.11 90.46 4.44 91.16 4.28 93.17 4.75 95.26 3.43 98.91 3.17 99.43 3.41 100.49 2.61 102.57 1.68 104.63 1 107.15 1.87 108.81 2.19 110.02 2.18 109.99 3.23 111.53 2.92 111.39 5.98 113.53 3.5 115.56 3.38 116.75 4.01 118.62 5.82 119.43 6 120.76 5.65 121.65 6.38 122.96 6.54 124.77 8.58 125.18 10.31 124.93 11.88 127.59 15.85 128.15 17.09 129.61 18.86 131.47 19.27 132.03 16.68 132.72 17.97 134.34 18.02 139.2 19.31 143.61 18.45 147.54 17.51 151.32 16.29 152.65 13.93 155.23 14.64 156.66 13.12 159.86 14.09 160.47 15.31 163.9 17.27 168.13 21.24 171.59 21.65 172.7 22.17 174.09 21.96 174.37 20.22 176.83 19.03 179.83 19.74 182.96 18.93 186.51 22.18 190.89 19.06 191.63 19.9 193.3 20.42 196.15 20.46 197.03 22.37 199.74 23.62 201.12 23.23 204.36 25.09 207.62 27.66 210.25 27.16 212.56 27.56 214.2 30.52 215.65 31.31 214.11 35.96 214.55 38.47 216.38 40.58 216.06 43.3 217.33 45.94 221.49 46.57 226.22 50.69 225.86 52.33 229.24 53.77 231.86 54.26 233.83 55.17 236 54.91 238.4 55.55 241.7 52.41 243.21 53.19 244.79 53.01 245.62 54.58 246.28 55.16 245.55 59.14 246.58 59.77 246.77 60.75 248.76 61.33 249 62.54 254.8 64.3 257.9 64.69 259.08 64.46 260.14 64.58 260.91 64.23 263.42 64.24 265.49 64.62 267.83 64.44 270.22 63.81 271.3 65.14 271.35 66.25 271.85 67.29 270.67 68.43 269.67 70.4 269.64 72.66 269.42 73.4 270.27 77.97 271.12 78.18 272.02 80.35 274.43 82.45 278.35 83.68 280.96 87.21 284.3 90.02 285.51 89.26 287.46 91.3 289.13 91.32 290.36 90.62 291.23 89.21 292.87 87.82 294.45 87.01 296.66 87.35 297.79 87.27 300.11 87.88 300.54 90.41 303.06 92.79 306.15 92.56 307.47 95.83 307.28 96.25 307.81 98.03 307.99 103.17 310.08 104.77 312.92 107.23 314.08 107.22 315.05 106.86 315.36 110.43 318.43 111.82 321.23 114.21 323.24 114.44 325.46 115.26 327.38 114.61 328.58 114.71 329.67 115.82 329.42 116.8 329.69 118.44 327.52 119.88 326.55 120.28 326.74 122.42 327.63 123.9 327.21 125.66 328.61 127.53 330.55 129.29 331.24 129.68 331.39 131.25 332.39 132.82 336.37 131.69 337.17 133.89 338.97 135.74 340.04 134.46 341.14 133.94 344 133.62 344.2 132.86 345.88 130.8 346.77 130.47 347.85 128.87 350.53 129.76 350.84 131.53 352.64 132.01 352.87 132.46 355.95 136.02 357.36 136.36 358.18 137.31 359.86 138.26 362.09 139 364.39 140.3 364.73 141.7 366.7 145.54 368.79 144.92 371.82 144.19 372.9 144.13 374.22 145.16 375.66 144.07 376.66 143.65 377.44 144.08 384.18 145.39 387.24 145.53 389.72 144.07 391.67 144.79 392.23 143.7 395.51 142.34 397.12 140.78 399.9 140.19 401.51 138.02 402.96 137.19 404.83 137.68 406.67 137.01 407.39 136.99 409.08 135.51 410.38 134.79 416.84 140.87 416.9 141.65 419.32 146.52 421.12 147.45 422.3 148.42 424.01 147.72 426.02 146.45 428.65 145.66 430.42 147.05 432.56 151.67 436.08 150.96 440.68 151.43 443.53 150.95 443.6 150.72 Z" id="29000000"/>
</g>
</svg>