<?xml version="1.0"?>
<svg xmlns="http://www.w3.org/2000/svg" version="1.2" baseProfile="tiny" width="800" height="898" viewBox="0 0 800 898" stroke-linecap="round" stroke-linejoin="round">
<g id="dong">
<path d="M 303.07 762.67 302.98 777.63 305.12 815.52 307.47 824.21 308.62 850.2 287.59 849.09 277.33 851.51 261.23 849.92 254.65 853.41 254.18 861.29 247.5 863.42 238.06 857.12 221.57 865.55 217.19 864.33 211.65 862.91 204.79 851.75 192.64 849.48 185.62 842.26 182.8 830.94 186.4 822.86 179.49 813.72 175.44 802.26 169.15 800.84 157.72 786.42 155.94 766.55 151.11 752.14 150.4 739.28 139.77 733.22 131.57 723.27 147.09 728.22 158.17 723.32 171.52 730.54 186.1 722.51 205.83 729.99 215.52 731.07 231.76 718.65 236.28 726.5 244.69 731.15 240.2 712.82 268.67 715.3 270.51 739.9 274.44 759 303.07 762.67 Z" id="11010530"/>
<path d="M 265.41 527.46 276.46 510.46 282.19 507.45 281.54 493.01 286.32 490.33 299.01 465.14 312.23 468.06 318.85 473.87 324.63 485.42 343.92 492.91 350.83 499.94 360.75 501.56 365.46 507.22 375.36 511.81 389.34 510.91 396.1 514.24 405.95 534.51 411.03 534.93 425.44 545.39 431.52 552.56 432.05 560.09 421.06 570.94 410.34 577.42 397.6 593.82 399.31 603.85 396.03 615.14 385.61 631.15 374.59 638.17 370.85 647.12 373.99 653.53 364.76 661.74 366.29 678.47 373.37 679.64 377.63 690.7 370.54 694.75 376.1 703.01 374.69 721.94 383.57 742.18 391.21 741.27 393.49 751.41 380.36 759.78 363.15 767.55 348.02 763.82 341.41 759.25 330.02 759.42 330.6 722.43 336.46 694.74 338.77 671.81 326.2 659.93 329.63 653.92 324.59 639.33 329.69 633.68 324.45 607.65 307.89 591.69 302.37 590.63 298.93 579.06 286.54 575.8 277.14 557.02 274.23 545.8 266.01 536.28 265.41 527.46 Z" id="11010540"/>
<path d="M 304.14 455.07 299.01 465.14 286.32 490.33 281.54 493.01 282.19 507.45 276.46 510.46 265.41 527.46 247.27 519.32 235.44 519.3 228.17 524.21 215.41 526.21 206 523.13 190.39 531.46 187.49 546.19 183.34 551.83 175.08 552.75 168.81 558.41 163.84 571.72 164.72 584.15 153.76 600.22 145.46 604.82 145.38 611.37 137.76 616.42 116.39 624.75 111 624 96.66 638.49 92.64 624.65 92.8 598.94 91.13 588.62 92.86 570.38 96.48 551.78 96.17 536.78 93.07 523.67 103.99 515.08 109.33 506.85 105.18 492.41 105.86 485.4 98.82 461.63 80.6 451.32 64.95 446.08 49.15 456.09 45.28 449.24 48.67 434.51 39.11 414.93 38.11 403.44 47.77 387.47 54.3 372.13 63.06 375.87 72.23 387.59 76.53 389.15 92.63 383.3 102.08 388.86 106.3 385.29 104.62 375.68 117.07 369.44 116.89 360.79 126.7 346.59 137.34 341.86 145.03 360.76 153.19 375.2 153.72 382.29 162.67 382.59 170.43 390.61 172.58 399.34 182.33 415.59 187.42 420.54 199.94 414.89 207.14 418.74 216.78 428.74 238.51 426.34 242.68 422.92 251.54 434.17 276.36 444.38 293.27 445.25 304.14 455.07 Z" id="11010550"/>
<path d="M 334.74 56.14 329.99 81.85 343.91 95.03 354.04 109.54 373.35 152.13 368.3 165.17 368.11 177.93 374.02 197.8 381.28 209.94 382.83 221.74 389.44 228.17 404.7 248.79 394.62 283.47 397.05 309.4 407.3 317.41 399.53 337.34 401.73 349.2 406.59 354.94 405.66 382.72 395.7 390.37 376.65 393.55 364.91 408.24 362 406.69 335.92 417.36 326 422.93 318.33 423.52 309.33 433.64 304.14 455.07 293.27 445.25 276.36 444.38 251.54 434.17 242.68 422.92 238.51 426.34 216.78 428.74 207.14 418.74 199.94 414.89 187.42 420.54 182.33 415.59 172.58 399.34 170.43 390.61 162.67 382.59 153.72 382.29 153.19 375.2 145.03 360.76 137.34 341.86 126.7 346.59 116.89 360.79 117.07 369.44 104.62 375.68 106.3 385.29 102.08 388.86 92.63 383.3 76.53 389.15 72.23 387.59 63.06 375.87 54.3 372.13 41.57 357.22 39.98 347.21 30.93 337.27 27.82 328.83 18.75 324.22 16.33 314.35 16.6 293.75 10.89 279.83 17.85 263.5 21.28 250.31 17.79 220.02 11.21 184.16 11.6 155.37 1 123.57 2.1 109.13 9.75 95.55 17.69 81.1 30.03 79.39 34.52 74.98 50.4 68.19 55.85 68.41 68.33 57.64 80.84 57.04 92.62 44.23 117.82 36.55 135.41 33.48 160.35 35.72 166.4 28.09 176.01 22.6 208.22 23.13 241.35 11.17 259.59 1 266.47 5.63 284.65 10.12 277.27 35.6 280.32 46.09 317.31 42.54 329.2 47.89 334.74 56.14 Z" id="11010560"/>
<path d="M 131.57 723.27 139.77 733.22 150.4 739.28 145.66 744.59 140.51 761.59 139.61 776.71 132.2 783.97 126.18 795.31 113.23 799.65 101.85 785.52 80.79 764.2 71.04 752.51 50.63 722.89 51.3 722.07 67.24 715.52 73.36 710.3 89.75 707.87 100.31 698.94 117.03 705.99 131.57 723.27 Z" id="11010570"/>
<path d="M 652.03 819.38 656.12 843.87 653.98 843.95 620.09 845.74 581.86 845.76 566.37 846.86 551.83 828.71 543.89 812.66 527.87 790.93 527.35 781.88 534.12 780.33 539.38 773.16 543.13 760.38 552.91 759.69 562.13 762.97 564.92 773.99 579.97 767.49 604.87 760.42 627.93 751.55 640.28 750.01 638.76 763.14 644 777.3 643.05 802.33 652.56 814.69 652.03 819.38 Z" id="11010630"/>
<path d="M 618.85 631.65 626.35 664.19 620.91 674.71 637.79 691.93 641.13 699.97 635.22 714.45 634.18 724.39 638.1 732.12 640.28 750.01 627.93 751.55 604.87 760.42 579.97 767.49 564.92 773.99 562.13 762.97 552.91 759.69 543.13 760.38 535.74 750.72 527.98 752.43 518.13 747.67 512.41 722.74 509 697.28 510.09 691.36 521.93 679.11 525.92 689.89 546.99 690.87 569.23 682.29 566.34 667.1 579.45 653.49 590.66 644.9 603.95 630.16 611.24 634.41 618.85 631.65 Z" id="11010640"/>
<path d="M 685.1 766.18 695.88 753.85 714.85 749.45 717.39 767.76 716.03 799.23 716.46 822.46 732.28 825.85 747.01 823.92 752.46 827.13 734.38 839.74 721.23 843.53 688.77 844.89 656.12 843.87 652.03 819.38 682.84 810.99 671.33 797.6 669.76 790.56 681.58 783.99 685.1 766.18 Z" id="11010670"/>
<path d="M 685.1 766.18 681.58 783.99 669.76 790.56 671.33 797.6 682.84 810.99 652.03 819.38 652.56 814.69 643.05 802.33 644 777.3 638.76 763.14 640.28 750.01 638.1 732.12 634.18 724.39 635.22 714.45 641.13 699.97 661.21 702.69 667.44 720.97 666.04 724.75 674.35 736.67 678.69 752.63 672.84 760.2 685.1 766.18 Z" id="11010680"/>
<path d="M 714.85 749.45 695.88 753.85 685.1 766.18 672.84 760.2 678.69 752.63 674.35 736.67 666.04 724.75 667.44 720.97 661.21 702.69 674.9 684.96 686.39 687.49 699.89 681.65 706.6 675.11 709.34 698.6 713.07 704.82 712.6 721.46 714.85 749.45 Z" id="11010690"/>
<path d="M 749.83 739.57 752.21 743.41 750.48 763.31 754.17 777.35 749.3 782.12 752.56 789.62 738.36 795.09 716.03 799.23 717.39 767.76 714.85 749.45 712.6 721.46 713.07 704.82 709.34 698.6 706.6 675.11 707.54 674.76 715.9 682.17 727.91 683.36 729.54 694.55 736.62 709.75 744.62 718.94 737.96 731.54 742.47 738.9 749.83 739.57 Z" id="11010700"/>
<path d="M 796.59 732.78 799 815.03 786.6 813.54 771.28 817.59 752.46 827.13 747.01 823.92 732.28 825.85 716.46 822.46 716.03 799.23 738.36 795.09 752.56 789.62 749.3 782.12 754.17 777.35 750.48 763.31 752.21 743.41 749.83 739.57 752.8 733.48 777.98 721.38 782.16 721.2 796.59 732.78 Z" id="11010710"/>
<path d="M 265.41 527.46 266.01 536.28 274.23 545.8 277.14 557.02 286.54 575.8 298.93 579.06 302.37 590.63 307.89 591.69 324.45 607.65 329.69 633.68 324.59 639.33 329.63 653.92 326.2 659.93 338.77 671.81 336.46 694.74 330.6 722.43 330.02 759.42 303.07 762.67 274.44 759 270.51 739.9 268.67 715.3 240.2 712.82 244.69 731.15 236.28 726.5 231.76 718.65 215.52 731.07 205.83 729.99 186.1 722.51 171.52 730.54 158.17 723.32 147.09 728.22 131.57 723.27 117.03 705.99 100.31 698.94 89.75 707.87 89.94 701.33 98.6 696.16 99.99 690.31 94.43 678.53 94.66 663.35 98.27 650.53 96.44 640.73 96.66 638.49 111 624 116.39 624.75 137.76 616.42 145.38 611.37 145.46 604.82 153.76 600.22 164.72 584.15 163.84 571.72 168.81 558.41 175.08 552.75 183.34 551.83 187.49 546.19 190.39 531.46 206 523.13 215.41 526.21 228.17 524.21 235.44 519.3 247.27 519.32 265.41 527.46 Z" id="11010720"/>
<path d="M 592.27 602.05 594.1 609.54 611.4 612.3 619.55 623.7 618.85 631.65 611.24 634.41 603.95 630.16 590.66 644.9 579.45 653.49 566.34 667.1 569.23 682.29 546.99 690.87 525.92 689.89 521.93 679.11 510.09 691.36 510.91 673.23 506.09 660.84 483.43 627.98 480.68 618.71 473.28 607.84 445.91 610.52 434.62 603.35 416.39 608.43 420.48 585.12 430.82 576.61 432.05 560.09 431.52 552.56 458.99 552.02 467.82 544.89 487.64 552.1 498.73 540.92 506.54 543 521.12 541.78 531.95 538.26 542.64 541.46 559.12 540.35 568.16 554.65 564.26 569.53 572.28 582.68 584.9 590.8 592.27 602.05 Z" id="11010730"/>
<path d="M 217.19 864.33 191.45 897 180.87 884.14 162.53 859.14 113.23 799.65 126.18 795.31 132.2 783.97 139.61 776.71 140.51 761.59 145.66 744.59 150.4 739.28 151.11 752.14 155.94 766.55 157.72 786.42 169.15 800.84 175.44 802.26 179.49 813.72 186.4 822.86 182.8 830.94 185.62 842.26 192.64 849.48 204.79 851.75 211.65 862.91 217.19 864.33 Z" id="11010580"/>
<path d="M 416.39 608.43 419.39 631.35 429.54 630.71 428.18 638.45 434.1 656.59 434.62 666.95 438.53 674.96 432.56 695.5 433.43 737.82 417.92 739.4 393.49 751.41 391.21 741.27 383.57 742.18 374.69 721.94 376.1 703.01 370.54 694.75 377.63 690.7 373.37 679.64 366.29 678.47 364.76 661.74 373.99 653.53 370.85 647.12 374.59 638.17 385.61 631.15 396.03 615.14 399.31 603.85 397.6 593.82 410.34 577.42 421.06 570.94 432.05 560.09 430.82 576.61 420.48 585.12 416.39 608.43 Z" id="11010600"/>
<path d="M 510.09 691.36 509 697.28 512.41 722.74 518.13 747.67 527.98 752.43 535.74 750.72 543.13 760.38 539.38 773.16 534.12 780.33 527.35 781.88 527.87 790.93 543.89 812.66 551.83 828.71 566.37 846.86 526.63 856.4 509.43 858.89 450.78 864.99 429.72 866.33 405.27 864.58 362.86 854.11 340.13 854.38 308.62 850.2 307.47 824.21 305.12 815.52 302.98 777.63 303.07 762.67 330.02 759.42 341.41 759.25 348.02 763.82 363.15 767.55 380.36 759.78 393.49 751.41 417.92 739.4 433.43 737.82 432.56 695.5 438.53 674.96 434.62 666.95 434.1 656.59 428.18 638.45 429.54 630.71 419.39 631.35 416.39 608.43 434.62 603.35 445.91 610.52 473.28 607.84 480.68 618.71 483.43 627.98 506.09 660.84 510.91 673.23 510.09 691.36 Z" id="11010610"/>
</g>
</svg>