<?xml version="1.0"?>
<svg xmlns="http://www.w3.org/2000/svg" version="1.2" baseProfile="tiny" width="800" height="436" viewBox="0 0 800 436" stroke-linecap="round" stroke-linejoin="round">
<g id="dong">
<path d="M 113.8 195.99 96.67 198.33 96.93 212.06 93.76 228.5 93.01 253.05 66.42 270.2 50.38 276.3 21.81 305.42 9.85 315.73 8.69 297.58 1.66 263.41 21.62 237.28 17.8 216.52 5.83 210.02 1 201.16 20.91 198.29 48.83 180.57 64.2 166.59 96.44 155.76 105.04 160.12 113.8 195.99 Z" id="11020680"/>
<path d="M 588.14 139.65 585.64 154.72 584.38 172.62 590.9 181.56 575.65 199.94 570.88 220.19 573.46 230.33 568.09 240.06 559.91 243.61 554.22 252.15 534.91 269.87 525.2 286.78 526.06 293.26 517.14 310.92 518.13 319.48 524.75 329.48 523.84 337.2 505.96 345.87 491.49 339.43 480.78 342.61 450.29 345.05 442.14 350.18 430.96 363.14 426.14 379.66 412.28 383.01 402.89 379.06 397.37 364.85 389 357.8 376.96 339.3 379.9 329.79 397.07 313.93 402.7 305.19 411.16 305.43 420.12 312.36 432.18 307.56 439.01 320.69 450.91 290.52 453.36 274.77 468.74 266.81 480.16 254.65 484.17 256.87 501.64 250.22 512.89 238.01 510.71 226.81 517.46 213.85 511.83 204.85 497.86 213.73 482.08 209.02 471.06 201.23 475.37 196.02 475.62 183.94 482.73 177.73 485.2 142.19 500.13 137.9 501.44 148.71 529.72 147.28 544.51 150.09 551.74 130.13 563.9 134.75 565.28 145.6 579.63 139.39 588.14 139.65 Z" id="11020580"/>
<path d="M 588.14 139.65 579.63 139.39 565.28 145.6 563.9 134.75 551.74 130.13 544.51 150.09 529.72 147.28 501.44 148.71 500.13 137.9 485.2 142.19 414.04 162.7 399.87 165.08 392.46 157.24 390.82 140.08 402.67 140.3 405.05 121.03 414.03 102.38 443.48 99.2 447.17 94.58 458.39 99.21 490.1 95.74 490.53 102.03 502.83 101.25 510.06 104.62 531.28 68.24 531.21 51.19 537.82 42.77 551.13 42.93 552.67 37.85 591.41 35.8 597.05 56.38 605.57 60.93 616.48 73.71 617.11 86.01 602.65 102.62 593.48 120.79 593.14 136.9 588.14 139.65 Z" id="11020590"/>
<path d="M 552.67 37.85 551.13 42.93 537.82 42.77 531.21 51.19 531.28 68.24 510.06 104.62 502.83 101.25 490.53 102.03 490.1 95.74 458.39 99.21 447.17 94.58 443.48 99.2 414.03 102.38 405.05 121.03 402.67 140.3 390.82 140.08 385.99 135.85 363.58 136.2 352.09 140.77 341 142.09 333.53 136.38 330 118.33 331.14 105.14 345.88 97.26 344.29 82.02 358.66 81.09 359.08 59.89 426.14 52.9 445.81 50.05 491.24 39.13 508.95 37.88 552.67 37.85 Z" id="11020600"/>
<path d="M 239.87 160.08 230.61 166.64 214.2 165.79 195.54 170.12 181.27 176.19 174.51 191.72 152.15 189.67 122.42 192.3 113.8 195.99 105.04 160.12 96.44 155.76 88.79 138.09 73.17 111.06 62.57 96.52 92.01 59.13 97.01 60.52 115.87 50.88 126.66 58.09 134.29 55.65 134.83 46.62 142.35 42.64 160.76 44.45 172.49 41.69 172.85 67.46 183.91 83.09 190.96 83.29 196.62 96.97 212.67 103.48 222.21 102.48 221.87 93.84 259.35 92.57 249.09 144.88 239.87 160.08 Z" id="11020520"/>
<path d="M 284.73 250.5 291.96 283.29 282.3 292 274.99 293.51 256.06 286.74 246.68 280.86 235.78 281.27 228.1 288.38 210.05 290.95 210.83 277.35 191.98 263.11 183.28 259.9 181.81 292.75 174.47 288.1 156.29 285.63 132.58 268.65 124.91 275.48 108.35 280.45 94.75 273.9 92.85 265.16 93.01 253.05 93.76 228.5 96.93 212.06 96.67 198.33 113.8 195.99 122.42 192.3 152.15 189.67 174.51 191.72 181.27 176.19 195.54 170.12 214.2 165.79 230.61 166.64 239.87 160.08 250.01 177.99 265.17 221.87 262.2 254.6 273.74 254.56 284.73 250.5 Z" id="11020540"/>
<path d="M 196.54 42.96 232.57 47.74 258.55 47.43 307.04 59.41 335.01 61.41 359.08 59.89 358.66 81.09 344.29 82.02 345.88 97.26 331.14 105.14 330 118.33 333.53 136.38 341 142.09 352.09 140.77 354.97 168.23 326.65 168.5 328.83 181.54 324.35 195.86 315.62 201.61 312.27 225.14 297.38 238.4 285.64 243.26 284.73 250.5 273.74 254.56 262.2 254.6 265.17 221.87 250.01 177.99 239.87 160.08 249.09 144.88 259.35 92.57 221.87 93.84 222.21 102.48 212.67 103.48 196.62 96.97 190.96 83.29 183.91 83.09 172.85 67.46 172.49 41.69 196.54 42.96 Z" id="11020550"/>
<path d="M 390.82 140.08 392.46 157.24 399.87 165.08 414.04 162.7 485.2 142.19 482.73 177.73 475.62 183.94 475.37 196.02 471.06 201.23 482.08 209.02 497.86 213.73 511.83 204.85 517.46 213.85 510.71 226.81 512.89 238.01 501.64 250.22 484.17 256.87 480.16 254.65 468.74 266.81 453.36 274.77 450.91 290.52 439.01 320.69 432.18 307.56 420.12 312.36 411.16 305.43 402.7 305.19 397.07 313.93 379.9 329.79 376.96 339.3 368.55 336.25 356.88 323.12 331.73 316.42 320.25 317.99 306.47 300.58 300.49 288.86 291.96 283.29 284.73 250.5 285.64 243.26 297.38 238.4 312.27 225.14 315.62 201.61 324.35 195.86 328.83 181.54 326.65 168.5 354.97 168.23 352.09 140.77 363.58 136.2 385.99 135.85 390.82 140.08 Z" id="11020570"/>
<path d="M 759.95 106.12 799 109.87 796.05 133.97 788.74 146.11 771.17 157.57 757.6 174.99 734.87 169.89 727.86 176.72 722.1 170.12 721.53 159.56 711.7 134.21 706.96 135.85 666.79 122.7 669.8 103.68 692.64 100.44 722.14 98.84 759.95 106.12 Z" id="11020650"/>
<path d="M 757.22 2.71 757.59 2.81 759.95 106.12 722.14 98.84 692.64 100.44 687.69 29.6 683.34 30.98 704 16.55 725.53 5.64 743.04 1 757.22 2.71 Z" id="11020670"/>
<path d="M 692.64 100.44 669.8 103.68 666.79 122.7 639.75 182.49 604.24 167.9 596.52 154.8 585.64 154.72 588.14 139.65 593.14 136.9 593.48 120.79 602.65 102.62 617.11 86.01 616.48 73.71 605.57 60.93 597.05 56.38 591.41 35.8 593.86 35.71 631.19 36.88 668.31 35.33 683.34 30.98 687.69 29.6 692.64 100.44 Z" id="11020690"/>
<path d="M 639.75 182.49 606.37 255.19 593.9 283.01 579.59 297.67 564.05 329.81 561.06 361.84 556.72 371.17 540.6 375.74 545.98 368.19 532.12 364.97 528.33 360.61 526.94 343.43 523.84 337.2 524.75 329.48 518.13 319.48 517.14 310.92 526.06 293.26 525.2 286.78 534.91 269.87 554.22 252.15 559.91 243.61 568.09 240.06 573.46 230.33 570.88 220.19 575.65 199.94 590.9 181.56 584.38 172.62 585.64 154.72 596.52 154.8 604.24 167.9 639.75 182.49 Z" id="11020700"/>
<path d="M 670.73 293.92 662.84 305.44 631.89 339.56 620.03 349.34 613.02 363.64 589.42 372.85 582.27 385.69 583.65 395.51 570.81 416.99 581.01 430.73 559.91 435 532.36 399.34 540.6 375.74 556.72 371.17 561.06 361.84 564.05 329.81 579.59 297.67 593.9 283.01 606.37 255.19 618.62 262.65 624.31 279.5 636.83 284.13 643.75 273.39 660.37 279.27 670.73 293.92 Z" id="11020710"/>
<path d="M 708.82 225.8 692.43 234.2 683.44 250.18 682.15 265 677.26 271.76 678.82 284.67 670.73 293.92 660.37 279.27 643.75 273.39 636.83 284.13 624.31 279.5 618.62 262.65 606.37 255.19 639.75 182.49 672.59 197.08 687.34 186.76 701.68 191.62 702.13 210.52 708.82 225.8 Z" id="11020720"/>
<path d="M 757.6 174.99 749.88 196.54 751.81 219.18 739.38 225.08 726.77 219.78 711.5 227.96 708.82 225.8 702.13 210.52 701.68 191.62 687.34 186.76 672.59 197.08 639.75 182.49 666.79 122.7 706.96 135.85 711.7 134.21 721.53 159.56 722.1 170.12 727.86 176.72 734.87 169.89 757.6 174.99 Z" id="11020730"/>
</g>
</svg>