<?xml version="1.0"?>
<svg xmlns="http://www.w3.org/2000/svg" version="1.2" baseProfile="tiny" width="800" height="677" viewBox="0 0 800 677" stroke-linecap="round" stroke-linejoin="round">
<g id="dong">
<path d="M 669.45 110.4 662.1 131.44 686.67 163.24 705.49 159.43 705.25 178.66 702.38 188.84 708.73 202.1 709.43 216.69 716.03 224.57 732.84 229.61 745.19 225.24 754.5 232.47 769.05 232.53 771.37 239.52 799 248.47 798.02 298.6 777.14 320.14 770.19 323.28 701.07 414.12 691 427.05 659.68 403.69 645.43 382.85 637.81 378.89 649.16 362.72 643.92 349.47 620.23 333.27 613.8 327.36 583.31 317.69 574.56 306.2 572.75 289.12 574.53 281.66 564.58 267.8 561.46 257.41 548.51 244.09 556.65 231.79 558.96 221.32 580.99 204.4 584.1 185.87 575.28 165.45 571.29 161.74 571.34 146.77 561.51 124.68 554.98 116.88 567.35 113.9 571.64 99.16 581.62 87.61 588.89 83.03 616.08 80.86 625.64 78.03 638.54 83.77 654.49 76.04 657.26 81.59 658.5 96.91 661.88 100.8 674.24 103.67 669.45 110.4 Z" id="11030740"/>
<path d="M 447.65 27.97 455.27 32.94 460.6 43.38 472.89 58.91 468.14 78.23 471.47 94.5 463.46 109.76 455.2 108.3 427.2 126.61 370.6 134.32 337.33 140.01 325.15 112.01 314.63 107.92 320.97 96.17 326.43 93.61 328.58 84.5 334 82.75 338.68 63.04 334.77 57.9 341.81 47.7 349.66 46.62 349.4 36.4 350.71 7.11 358.47 9.97 375.29 22.67 374.59 34.79 390.69 32.5 397.54 26.16 407.27 25.81 415.63 31.04 432.51 37.08 439.03 35.74 447.65 27.97 Z" id="11030510"/>
<path d="M 523.47 77.91 534.21 94.41 514.93 107.88 500.87 126.11 492.29 160.6 480.7 172.65 463.02 234.71 461.35 243.84 465.81 268.48 466.87 285.22 478.16 295.26 514.23 357.3 512.93 358.36 515.96 392.29 493.7 392.48 482.39 394.19 452.18 392.9 405.9 406.27 389.15 406.12 389.66 368.98 392.17 308.72 395.07 288.36 392.81 245.71 392.8 228.11 377.71 182.88 379.59 166.53 377.82 155.27 370.6 134.32 427.2 126.61 455.2 108.3 463.46 109.76 471.47 94.5 468.14 78.23 472.89 58.91 483.13 57.51 505.56 63.48 515.97 75.19 523.47 77.91 Z" id="11030520"/>
<path d="M 349.4 36.4 349.66 46.62 341.81 47.7 334.77 57.9 338.68 63.04 334 82.75 328.58 84.5 326.43 93.61 320.97 96.17 314.63 107.92 325.15 112.01 337.33 140.01 370.6 134.32 377.82 155.27 379.59 166.53 377.71 182.88 392.8 228.11 392.81 245.71 395.07 288.36 341.99 290.83 333.91 283.63 332.33 249.24 323.06 248.62 315.19 211.02 294.97 216.68 290.9 224.32 288.75 208.3 290.59 190.81 289.72 129.5 288.59 100.76 280.03 89.7 272.57 48.74 269.42 42.19 270.05 11.8 271.74 19.6 283.88 25.44 298.64 21.01 305.48 14.91 326.63 30.05 342.85 32.25 349.4 36.4 Z" id="11030530"/>
<path d="M 96.93 250.54 109.8 257.98 117.92 254.02 126.07 267.1 149.28 261.76 155.22 271.96 162.77 275.43 169.19 271.55 176.48 274.06 169.7 282.03 172.61 287.88 186.45 301.25 182.85 306.29 169.95 305.25 155.06 311.52 138.97 315.3 126.54 321.9 108.46 338.1 98.02 344.78 29.23 344.78 1 301.43 6.53 285.27 20.98 274.61 31.55 281.7 36.63 276.3 46.92 276.79 59.21 270.36 74.25 267.12 96.93 250.54 Z" id="11030570"/>
<path d="M 206.21 97.48 206.68 121.75 197.45 135.87 191.87 159.94 193.37 190.83 201.88 180.53 204.78 167.03 216.26 165.77 223.13 195.53 215.56 214.88 217.09 232.62 212.66 237.28 177.09 223.99 176.13 226.51 148.33 219.06 136.57 213.24 133.09 207.96 132.25 205.66 136.59 193.64 146.42 187.31 151.6 178.22 141.21 169.59 143.59 157.93 148.22 152.96 146.9 140.63 152.32 140.51 171.06 128.9 191.45 107.71 196.88 95.69 206.21 97.48 Z" id="11030580"/>
<path d="M 212.66 237.28 208.29 251.15 190.9 255.66 191.34 265.2 176.48 274.06 169.19 271.55 162.77 275.43 155.22 271.96 149.28 261.76 126.07 267.1 117.92 254.02 109.8 257.98 96.93 250.54 105.03 230.78 122.96 223.39 133.09 207.96 136.57 213.24 148.33 219.06 176.13 226.51 177.09 223.99 212.66 237.28 Z" id="11030590"/>
<path d="M 583.31 317.69 574.42 328.37 569.55 345.69 560.55 364.72 550.39 371.02 542.19 371.8 536.51 380.19 528.2 376.71 514.23 357.3 478.16 295.26 475.43 289.77 495.02 275.74 491.49 268.92 503.64 263.82 504.95 256.01 514.98 250.01 520.42 254.84 532.22 248.7 556.65 231.79 548.51 244.09 561.46 257.41 564.58 267.8 574.53 281.66 572.75 289.12 574.56 306.2 583.31 317.69 Z" id="11030650"/>
<path d="M 550.39 371.02 560.8 370.51 563.8 379.3 574.01 393.08 574.3 406.03 570.02 410.59 573.13 420.24 589.27 430.42 589.6 442.54 594.86 451.06 604.18 448.8 607.54 454.54 615.84 447.45 623.68 452.13 642.15 475.05 634.51 481.75 618.1 496.07 579.07 527.3 505.47 585.93 495.73 601.26 449.04 675.77 414.73 676 414.83 567.58 415.83 545.95 420.19 529.04 420.6 498.26 398.12 492.39 367.78 481.37 353.89 474.21 358.91 461.27 358.09 453.09 352.3 440.62 358.67 418.57 379.75 420.06 389.15 406.12 405.9 406.27 452.18 392.9 482.39 394.19 493.7 392.48 515.96 392.29 512.93 358.36 514.23 357.3 528.2 376.71 536.51 380.19 542.19 371.8 550.39 371.02 Z" id="11030690"/>
<path d="M 691 427.05 678.17 443.4 642.15 475.05 623.68 452.13 615.84 447.45 607.54 454.54 604.18 448.8 594.86 451.06 589.6 442.54 589.27 430.42 573.13 420.24 570.02 410.59 574.3 406.03 574.01 393.08 563.8 379.3 560.8 370.51 550.39 371.02 560.55 364.72 569.55 345.69 574.42 328.37 583.31 317.69 613.8 327.36 620.23 333.27 643.92 349.47 649.16 362.72 637.81 378.89 645.43 382.85 659.68 403.69 691 427.05 Z" id="11030700"/>
<path d="M 270.05 11.8 269.42 42.19 272.57 48.74 280.03 89.7 288.59 100.76 289.72 129.5 290.59 190.81 285.19 195.35 262.16 186.43 261.46 194.48 233.76 192.7 223.13 195.53 216.26 165.77 204.78 167.03 201.88 180.53 193.37 190.83 191.87 159.94 197.45 135.87 206.68 121.75 206.21 97.48 210.51 94.45 211.95 83.27 196.01 56.89 206.67 47.7 232.16 21.74 246.47 16.3 270.19 1 270.05 11.8 Z" id="11030710"/>
<path d="M 290.59 190.81 288.75 208.3 290.9 224.32 288.45 224.35 289.18 249.98 283.86 273.29 270.45 300.25 266.92 302.99 223.83 291.38 206.87 297.32 198.69 307.29 182.85 306.29 186.45 301.25 172.61 287.88 169.7 282.03 176.48 274.06 191.34 265.2 190.9 255.66 208.29 251.15 212.66 237.28 217.09 232.62 215.56 214.88 223.13 195.53 233.76 192.7 261.46 194.48 262.16 186.43 285.19 195.35 290.59 190.81 Z" id="11030720"/>
<path d="M 395.07 288.36 392.17 308.72 389.66 368.98 389.15 406.12 379.75 420.06 358.67 418.57 352.3 440.62 358.09 453.09 358.91 461.27 353.89 474.21 338.1 469.75 305.97 456.71 280.98 452.63 243.29 464.9 222.32 466.04 211.87 463.39 197.49 454.87 189.73 452.78 172.94 445.72 143.75 423.73 135.39 414.7 135.68 406.89 124.3 392.86 117.05 390.21 110.51 374.27 108.92 354.21 112.45 343.55 108.46 338.1 126.54 321.9 138.97 315.3 155.06 311.52 169.95 305.25 182.85 306.29 198.69 307.29 206.87 297.32 223.83 291.38 266.92 302.99 270.45 300.25 283.86 273.29 289.18 249.98 288.45 224.35 290.9 224.32 294.97 216.68 315.19 211.02 323.06 248.62 332.33 249.24 333.91 283.63 341.99 290.83 395.07 288.36 Z" id="11030730"/>
<path d="M 353.89 474.21 367.78 481.37 398.12 492.39 420.6 498.26 420.19 529.04 415.83 545.95 414.83 567.58 414.73 676 392.78 675.95 368.51 675.69 336.44 669.39 323.25 663.02 279.9 641.85 245.19 630.04 224.31 617.28 190.37 585.48 136.38 557.9 159.58 518.02 189.73 452.78 197.49 454.87 211.87 463.39 222.32 466.04 243.29 464.9 280.98 452.63 305.97 456.71 338.1 469.75 353.89 474.21 Z" id="11030630"/>
<path d="M 189.73 452.78 159.58 518.02 136.38 557.9 111.53 544.94 98.24 540.55 58.83 524.93 58.79 394.29 31.89 351.22 29.23 344.78 98.02 344.78 108.46 338.1 112.45 343.55 108.92 354.21 110.51 374.27 117.05 390.21 124.3 392.86 135.68 406.89 135.39 414.7 143.75 423.73 172.94 445.72 189.73 452.78 Z" id="11030640"/>
<path d="M 556.65 231.79 532.22 248.7 520.42 254.84 514.98 250.01 504.95 256.01 503.64 263.82 491.49 268.92 495.02 275.74 475.43 289.77 478.16 295.26 466.87 285.22 465.81 268.48 461.35 243.84 463.02 234.71 480.7 172.65 492.29 160.6 500.87 126.11 514.93 107.88 534.21 94.41 541.68 100.69 546.61 113.36 554.98 116.88 561.51 124.68 571.34 146.77 571.29 161.74 575.28 165.45 584.1 185.87 580.99 204.4 558.96 221.32 556.65 231.79 Z" id="11030660"/>
</g>
</svg>