<?xml version="1.0"?>
<svg xmlns="http://www.w3.org/2000/svg" version="1.2" baseProfile="tiny" width="800" height="1476" viewBox="0 0 800 1476" stroke-linecap="round" stroke-linejoin="round">
<g id="dong">
<path d="M 292.53 981.56 312.87 993.58 326.73 994.94 338.85 1005.86 339.34 1017.24 349.16 1056.25 291.09 1141.56 283.25 1126.35 249.8 1115.93 224.89 1092.02 209.16 1090.12 175.67 1099.54 161.32 1099.11 124.64 1086 111.05 1062.81 92.32 1061.24 80.92 1026.2 84.68 999.81 106.93 879.21 115.95 853.62 116.62 834.94 137.62 835.59 154.24 817.96 164.41 829.72 156.37 840.26 157.38 864.94 170.43 879.6 166.78 892.96 177.01 900.27 183.07 922.25 201.15 951.25 219.55 975.63 236.48 982.96 246.79 978.48 265.25 981.62 292.53 981.56 Z" id="11100510"/>
<path d="M 475.75 1042.45 424.97 1047.27 426.48 1025.85 419.34 1016.87 421.52 1004.57 446.63 965.69 444.24 931.13 423.91 936.47 419.5 902.23 440.94 900.61 438.93 868.19 450.17 854.87 452.06 853.79 471.84 842.92 491.27 837.07 497.67 826.53 557.17 827.27 573.81 825.32 565.79 851.97 475.75 1042.45 Z" id="11100520"/>
<path d="M 385.25 1219.32 330.71 1175.78 303.21 1160.08 293.99 1146.17 291.09 1141.56 349.16 1056.25 424.97 1047.27 475.75 1042.45 427.97 1143.5 404.79 1192.4 385.25 1219.32 Z" id="11100530"/>
<path d="M 424.97 1047.27 349.16 1056.25 339.34 1017.24 338.85 1005.86 326.73 994.94 312.87 993.58 292.53 981.56 294.96 962.49 302.43 956.92 304.71 932.52 333.97 930.58 337.16 925.44 335.54 894.45 340.68 882.63 353.36 879.7 364.59 866.92 396.16 872.53 450.17 854.87 438.93 868.19 440.94 900.61 419.5 902.23 423.91 936.47 444.24 931.13 446.63 965.69 421.52 1004.57 419.34 1016.87 426.48 1025.85 424.97 1047.27 Z" id="11100540"/>
<path d="M 596.39 659.43 595.85 663.4 677.01 672.12 683.55 705.21 706.83 742.07 720.91 780.17 728.69 780.17 729.63 823.28 731.22 850.38 644.64 820.01 614.38 818.28 573.81 825.32 557.17 827.27 497.67 826.53 491.27 837.07 471.84 842.92 452.06 853.79 448.99 807.82 449.05 789.74 456.11 774.69 520.65 718.31 529.35 656.06 573.18 656.27 596.39 659.43 Z" id="11100550"/>
<path d="M 529.35 656.06 520.65 718.31 456.11 774.69 449.05 789.74 448.99 807.82 393.44 816.16 380.08 803.04 378.28 792.04 386.37 780.36 379.62 748.37 370.36 741.04 336.2 694.3 320.03 681.22 309.11 682.22 307.59 667.27 291.4 628.27 286.88 604.72 290.61 596.46 315.21 578.54 322.76 584.98 348.38 585 362.95 571.12 376.9 575.76 384.7 556.47 396.73 547.91 414.1 576.02 429.08 568.65 457.02 566.57 467.91 569.17 473.03 590.99 469.94 596.2 483.45 622.15 496.63 624.77 509.99 612.88 533.29 617.77 529.35 656.06 Z" id="11100560"/>
<path d="M 448.99 807.82 452.06 853.79 450.17 854.87 396.16 872.53 364.59 866.92 353.36 879.7 340.68 882.63 335.54 894.45 337.16 925.44 333.97 930.58 304.71 932.52 302.43 956.92 294.96 962.49 292.53 981.56 265.25 981.62 246.79 978.48 236.48 982.96 219.55 975.63 201.15 951.25 183.07 922.25 177.01 900.27 166.78 892.96 170.43 879.6 157.38 864.94 156.37 840.26 164.41 829.72 154.24 817.96 138.6 805.64 139.19 796.16 128.34 787.59 136.35 760.34 128.75 747.65 135.58 717.67 149.59 699.24 163.81 694.91 179.17 678.36 184.11 637.3 187.24 631.89 214.01 623.06 218.35 612.96 232.63 618.91 256.81 609.57 286.88 604.72 291.4 628.27 307.59 667.27 309.11 682.22 320.03 681.22 336.2 694.3 370.36 741.04 379.62 748.37 386.37 780.36 378.28 792.04 380.08 803.04 393.44 816.16 448.99 807.82 Z" id="11100570"/>
<path d="M 673.65 1036.4 710.98 1145.27 715.75 1149.89 724.28 1178.71 708.02 1183.41 713.5 1199.75 697.88 1205.81 686.42 1234.27 665.07 1249.51 645.59 1255.66 644.09 1272.67 648.73 1285.09 643.34 1297.65 619.56 1285.77 610.71 1243.99 610.12 1229.83 603.51 1218.74 608.82 1197.96 596.91 1197.43 584.22 1195.13 579.74 1186.75 566.91 1188.61 563.21 1174.99 549.52 1177.35 532.81 1140.43 496.28 1148.1 449.56 1152.24 427.97 1143.5 475.75 1042.45 480.35 1043.52 561.26 1035.77 621.82 1047.21 637.68 1046.77 673.65 1036.4 Z" id="11100590"/>
<path d="M 596.91 1197.43 573.83 1215.65 477.33 1344.2 456.33 1335.67 446.7 1325.09 427.66 1270.7 411.17 1240.88 385.25 1219.32 404.79 1192.4 427.97 1143.5 449.56 1152.24 496.28 1148.1 532.81 1140.43 549.52 1177.35 563.21 1174.99 566.91 1188.61 579.74 1186.75 584.22 1195.13 596.91 1197.43 Z" id="11100600"/>
<path d="M 579.14 1475 565.63 1470.29 532.68 1441.23 513.13 1410.39 505.87 1398.38 500.51 1361.35 477.33 1344.2 573.83 1215.65 596.91 1197.43 608.82 1197.96 603.51 1218.74 610.12 1229.83 610.71 1243.99 619.56 1285.77 643.34 1297.65 636.21 1322.6 628.43 1327.24 619.93 1347.75 618.77 1369.15 613.37 1375.37 610.13 1394.99 602.77 1412.51 582.96 1430.78 564.04 1456.4 580.37 1468.07 579.14 1475 Z" id="11100610"/>
<path d="M 797.46 1265.81 780.16 1276.02 751.04 1244.04 741.86 1227.68 724.28 1178.71 715.75 1149.89 710.98 1145.27 673.65 1036.4 663.65 1008.59 683.45 1001.28 681.5 994.47 660.75 1000.54 625.52 894.61 615.86 850.21 614.38 818.28 644.64 820.01 731.22 850.38 731.22 863.99 758.16 914.86 760.9 943.35 767.99 960.63 768.79 977.41 763.53 1028.07 767.08 1059.37 791.77 1107.44 799 1141.65 795.2 1183.21 787.07 1206.86 784.47 1229.84 786.71 1251.32 797.46 1265.81 Z" id="11100620"/>
<path d="M 673.65 1036.4 637.68 1046.77 621.82 1047.21 561.26 1035.77 480.35 1043.52 475.75 1042.45 565.79 851.97 573.81 825.32 614.38 818.28 615.86 850.21 625.52 894.61 660.75 1000.54 681.5 994.47 683.45 1001.28 663.65 1008.59 673.65 1036.4 Z" id="11100630"/>
<path d="M 620.27 189.47 631.59 287.24 636.18 343.54 633.4 389.05 628.44 430.69 607.75 584.47 596.39 659.43 573.18 656.27 529.35 656.06 533.29 617.77 509.99 612.88 496.63 624.77 483.45 622.15 469.94 596.2 473.03 590.99 467.91 569.17 457.02 566.57 429.08 568.65 414.1 576.02 396.73 547.91 384.7 556.47 376.9 575.76 362.95 571.12 348.38 585 322.76 584.98 315.21 578.54 290.61 596.46 286.88 604.72 256.81 609.57 232.63 618.91 218.35 612.96 214.01 623.06 187.24 631.89 184.11 637.3 171.38 639.51 162.01 621.63 161.02 605.38 150.52 594.97 143.16 573.57 124.63 569.04 104.53 546.23 105.84 533.82 94.78 492.33 75.41 466.09 29.84 455.93 21.61 434.74 23.7 413.19 14.18 379.94 18.24 354.68 14.55 334.26 17 292.47 12.68 270.3 12.11 236.86 1 205.59 35.55 169.3 34.79 99.91 75.41 85.81 104.39 56.21 122.28 22.36 129.77 1 202.68 10.09 241.03 37.05 261.53 29.77 293.37 39.95 319.52 26 321.56 8.02 332.55 11.72 358.97 45.94 364.2 69.16 366.33 108.73 378.31 139.85 387.78 175.23 406.68 180.62 410.73 200.92 463.79 187.33 482.58 184.23 495.22 172.15 511.25 170.79 518.72 156.31 534.64 154.24 536.02 141.69 554.38 128.89 569.46 133.63 586.83 130.3 592.21 147.55 586.26 163.76 598.04 166.17 615.68 178.01 620.27 189.47 Z" id="11100640"/>
<path d="M 731.13 326.06 740.36 356.89 736.71 385.69 721.67 405.45 716.7 445.03 708.06 464.02 696.66 515.25 682.43 547.84 680.86 576.07 673.79 606.27 671.13 630.27 677.01 672.12 595.85 663.4 596.39 659.43 607.75 584.47 628.44 430.69 633.4 389.05 636.18 343.54 631.59 287.24 620.27 189.47 647.71 182.55 665.22 170.63 678.67 154.56 683.48 180.58 690.86 203.9 700.79 220.94 697.26 255.53 698.41 281.11 716.62 318.92 731.13 326.06 Z" id="11100650"/>
</g>
</svg>