<?xml version="1.0"?>
<svg xmlns="http://www.w3.org/2000/svg" version="1.2" baseProfile="tiny" width="800" height="826" viewBox="0 0 800 826" stroke-linecap="round" stroke-linejoin="round">
<g id="dong">
<path d="M 680.2 558.74 734.51 624.33 754.71 651.89 749.99 658.45 740.39 657.37 721.33 660.29 723.5 670.88 711.99 672.23 704.38 669.06 697.28 673.78 688.75 670.39 674.72 670.91 669.73 661.31 646.82 653.04 634.77 643.7 639.95 631.55 628.93 628.22 623.88 620.06 611.75 610.81 589.73 598.06 580.12 587.46 576.57 571.87 565.39 541.91 557.7 534.9 556.79 518.95 565.1 518.64 582.21 506.24 595.26 494 597.58 487.12 611.24 474.11 633.72 506.78 644.46 519.66 667.65 543.17 680.2 558.74 Z" id="11130520"/>
<path d="M 469.88 288.53 440.47 311.4 412.74 325.07 402.19 345.23 397.66 369.01 403.85 392.8 414.56 413.1 418.97 416.9 421.59 430.92 412.75 451.43 346.93 482.96 308.5 506.66 300.14 513.82 276.13 462.28 273.05 436.95 268.01 428.03 271.38 419.46 261.96 398.14 254.94 396.6 248.55 375.43 248.45 372.06 258 363.88 260.13 350 289.57 347.49 306.4 335.65 309.61 330.89 305.04 315.98 308.89 308.06 305.48 299.35 309.25 291.63 306.72 283.61 312.54 277.54 335.91 239.63 348.72 232.51 366.21 213.48 378.54 208.6 386.8 208.8 413.23 193.44 422.27 190.22 435.15 195.62 444.01 217.63 456.69 233.93 462.63 248.32 465.23 278.83 469.88 288.53 Z" id="11130680"/>
<path d="M 231.83 570.08 216.56 586.51 208.76 602.66 199.26 614.61 186.77 624.22 176.65 636.15 176.48 636.06 143.92 617.92 94.23 588.89 97.64 577.21 130.53 597.05 128.21 589.98 112.68 572.97 122.67 563.57 131.79 560.29 134.26 543.41 146.76 524.67 149.77 525.09 173.95 528.35 190.19 527.25 196.94 537.5 217.56 558.68 228.8 550.09 241.68 545.69 246.75 554.4 231.83 570.08 Z" id="11130690"/>
<path d="M 225.1 411.66 233.44 440.7 215.69 440.78 207.54 449.32 192.2 448.25 180.25 466.05 168.49 467.76 163.87 475.18 158.32 498.28 156.53 514.56 149.77 525.09 146.76 524.67 126.93 518.24 95.54 487.34 93.82 487.05 49.97 450.8 119.51 368.76 130.51 348 170.91 371.27 164 381.3 164.54 404.03 166.98 409.3 202.86 404.77 225.1 411.66 Z" id="11130720"/>
<path d="M 754.71 651.89 766.36 666.07 776.57 680.08 791.63 706.12 799 723.14 767.93 733.57 753.13 747.04 726.22 764.11 707.04 766.87 706.65 765.98 693.15 766.58 696.33 756.59 695.49 742.21 684.15 733.57 677.04 723.85 667.27 728.3 660.94 726.4 638.11 729.97 626.76 723.68 600.23 730.65 579.58 747.27 567.34 754.64 563.77 747.12 571.26 735.05 566.51 724.07 564.77 709.44 566.26 696.27 558.84 676.22 572.04 655.35 571.58 647.96 583.78 619.79 588.96 613.24 589.73 598.06 611.75 610.81 623.88 620.06 628.93 628.22 639.95 631.55 634.77 643.7 646.82 653.04 669.73 661.31 674.72 670.91 688.75 670.39 697.28 673.78 704.38 669.06 711.99 672.23 723.5 670.88 721.33 660.29 740.39 657.37 749.99 658.45 754.71 651.89 Z" id="11130730"/>
<path d="M 706.65 765.98 697.3 772.65 685.76 787.7 676.94 793.35 642.2 790.89 556.48 797.04 551.84 781.37 545.78 770.29 558.5 767.51 567.34 754.64 579.58 747.27 600.23 730.65 626.76 723.68 638.11 729.97 660.94 726.4 667.27 728.3 677.04 723.85 684.15 733.57 695.49 742.21 696.33 756.59 693.15 766.58 706.65 765.98 Z" id="11130740"/>
<path d="M 556.48 797.04 527.86 799.16 467.11 803.55 413.82 825 292.55 769.28 293.49 742.45 299.62 725.62 301.6 725.77 307.6 727.79 314.89 737.43 327.79 739.03 345.69 737.4 353.15 720.32 351.78 706.42 364.88 707.39 379.21 695.21 377.99 679.15 388.49 668.72 388.44 660.13 400.84 658.12 409.44 640.67 417.99 631.16 430.99 628.27 434.02 616.14 453.09 608.52 470.61 598.24 484.21 599.22 491.76 588.99 498.28 571.82 498.05 558.46 491.98 550.31 491.85 536.03 503.41 520.51 518.66 494.66 536.24 502.26 544.79 516.48 556.79 518.95 557.7 534.9 565.39 541.91 576.57 571.87 580.12 587.46 589.73 598.06 588.96 613.24 583.78 619.79 571.58 647.96 572.04 655.35 558.84 676.22 566.26 696.27 564.77 709.44 566.51 724.07 571.26 735.05 563.77 747.12 567.34 754.64 558.5 767.51 545.78 770.29 551.84 781.37 556.48 797.04 Z" id="11130750"/>
<path d="M 300.14 513.82 300.6 519.01 270.55 541.32 260.23 554.95 244.03 561.33 231.83 570.08 246.75 554.4 241.68 545.69 228.8 550.09 217.56 558.68 196.94 537.5 190.19 527.25 173.95 528.35 149.77 525.09 156.53 514.56 158.32 498.28 163.87 475.18 168.49 467.76 180.25 466.05 192.2 448.25 207.54 449.32 215.69 440.78 233.44 440.7 225.1 411.66 235.75 403.97 238.62 394.75 236.84 385.59 248.55 375.43 254.94 396.6 261.96 398.14 271.38 419.46 268.01 428.03 273.05 436.95 276.13 462.28 300.14 513.82 Z" id="11130700"/>
<path d="M 146.76 524.67 134.26 543.41 131.79 560.29 122.67 563.57 112.68 572.97 128.21 589.98 130.53 597.05 97.64 577.21 94.23 588.89 72.76 574.52 57.35 559.63 3.3 514.42 3.24 514.34 1 505.5 27.95 473.74 49.97 450.8 93.82 487.05 95.54 487.34 126.93 518.24 146.76 524.67 Z" id="11130710"/>
<path d="M 472.98 293.22 480.68 304.53 510.04 335.57 548.96 381.65 565.27 402.65 578.93 435.23 593.99 451.08 611.97 473.22 611.24 474.11 597.58 487.12 595.26 494 582.21 506.24 565.1 518.64 556.79 518.95 544.79 516.48 536.24 502.26 518.66 494.66 506.75 491.97 501.84 484.83 496.49 460.63 496.87 451.23 472.93 439.82 468.47 421.23 473.95 409.66 468.8 398.28 456.01 397.72 444.13 393.62 427.03 407.67 418.97 416.9 414.56 413.1 403.85 392.8 397.66 369.01 402.19 345.23 412.74 325.07 440.47 311.4 469.88 288.53 472.98 293.22 Z" id="11130620"/>
<path d="M 661.94 381.07 661.69 383.54 613.5 346.66 601.59 336.58 586.24 319.66 572.52 319.55 569.36 329.82 552 323.1 543.09 328.49 528.83 322.81 517.78 327.28 510.04 335.57 480.68 304.53 472.98 293.22 504.67 281.15 511.42 273.6 533.05 240.66 532.97 225.4 526.93 203.47 528.64 192.92 541.61 180.89 555.98 182.69 567.37 188.39 584.78 218.61 593.56 217.53 604.92 208.47 613.59 209.38 634.25 220.49 640.28 216.08 643.48 194.79 644.25 174.71 664.32 186.09 672.08 212.29 671.33 220.02 675.9 235.94 670.02 245.02 657.99 254.49 661.4 268.94 661.74 285.47 657.76 305.98 655.85 326.09 657.69 337.47 657.51 365.81 661.94 381.07 Z" id="11130640"/>
<path d="M 661.69 383.54 663.72 394.35 659.73 408.47 659.49 425.21 665.61 438.2 664.08 444.65 654.54 450.35 654.33 457.56 636.28 460.24 629.53 466 611.97 473.22 593.99 451.08 578.93 435.23 565.27 402.65 548.96 381.65 510.04 335.57 517.78 327.28 528.83 322.81 543.09 328.49 552 323.1 569.36 329.82 572.52 319.55 586.24 319.66 601.59 336.58 613.5 346.66 661.69 383.54 Z" id="11130650"/>
<path d="M 615.28 87.42 608.08 104.32 597.45 121.93 598.54 134.59 609.08 156.19 605.34 172.43 609.61 179.98 627.01 168.95 644.25 174.71 643.48 194.79 640.28 216.08 634.25 220.49 613.59 209.38 604.92 208.47 593.56 217.53 584.78 218.61 567.37 188.39 555.98 182.69 541.61 180.89 528.64 192.92 526.93 203.47 532.97 225.4 533.05 240.66 511.42 273.6 504.67 281.15 472.98 293.22 469.88 288.53 465.23 278.83 462.63 248.32 456.69 233.93 444.01 217.63 435.15 195.62 436.23 195.63 461.73 177.94 467.89 148.86 464.24 141.97 449.52 130.88 451.01 112.66 465.95 111.87 476.6 85.03 494.71 83.51 495.15 66 524.34 48.75 534.01 37.85 547.78 30.5 553.87 24.44 558.35 12.97 573.75 1 573.44 23.71 576.12 34.59 586.11 39.68 589.53 48.97 599.5 59.94 601.25 70.98 615.28 87.42 Z" id="11130660"/>
<path d="M 518.66 494.66 503.41 520.51 491.85 536.03 491.98 550.31 498.05 558.46 498.28 571.82 491.76 588.99 484.21 599.22 470.61 598.24 453.09 608.52 434.02 616.14 430.99 628.27 417.99 631.16 409.44 640.67 400.84 658.12 388.44 660.13 388.49 668.72 377.99 679.15 379.21 695.21 364.88 707.39 351.78 706.42 353.15 720.32 345.69 737.4 327.79 739.03 314.89 737.43 307.6 727.79 301.6 725.77 312.55 702.75 285.77 676.42 270.54 667.9 233.18 656.51 216.06 653.21 196.3 646.5 176.8 636.22 176.65 636.15 186.77 624.22 199.26 614.61 208.76 602.66 216.56 586.51 231.83 570.08 244.03 561.33 260.23 554.95 270.55 541.32 300.6 519.01 300.14 513.82 308.5 506.66 346.93 482.96 412.75 451.43 421.59 430.92 418.97 416.9 427.03 407.67 444.13 393.62 456.01 397.72 468.8 398.28 473.95 409.66 468.47 421.23 472.93 439.82 496.87 451.23 496.49 460.63 501.84 484.83 506.75 491.97 518.66 494.66 Z" id="11130760"/>
</g>
</svg>