<?xml version="1.0"?>
<svg xmlns="http://www.w3.org/2000/svg" version="1.2" baseProfile="tiny" width="800" height="521" viewBox="0 0 800 521" stroke-linecap="round" stroke-linejoin="round">
<g id="dong">
<path d="M 695.54 428.06 692.76 432.87 686.76 430.63 683.21 432.34 666.08 421.59 659.34 416.13 662.14 412.72 653.87 401.7 653.55 396.65 662.31 376.79 669.04 376.92 673.73 366.53 673.32 345.47 670.2 344.38 670.04 333.14 673.59 333.07 673.39 310.23 690.93 308.93 687.48 312.64 688.24 320.41 693.35 325.97 698.37 334.44 702.41 335.66 702.33 341.36 705.85 350.22 701.51 359.61 695.22 367.45 692.96 375.87 698.38 394.3 693.34 399.54 687.77 409.43 680.1 415.2 689.64 420.45 687.81 423.8 695.54 428.06 Z" id="11140610"/>
<path d="M 534.69 265.25 533.48 265.16 523.79 273.22 521.45 277.99 511.43 273.36 505.12 276.07 472.57 303.88 464.01 291.97 468.02 279.1 465.88 264.19 462.41 258.37 457.96 235.05 458.2 210.37 470.15 216.66 482.26 220.78 492.76 222.8 515.66 229.78 524.99 235 541.41 251.14 534.69 265.25 Z" id="11140710"/>
<path d="M 464.01 291.97 453.04 297.01 425.65 296.49 404.84 301.89 400.44 305.1 396.04 299.04 364.83 255.55 361.11 251.13 439.05 223.95 445.88 220.31 458 210.27 458.11 210.33 458.2 210.37 457.96 235.05 462.41 258.37 465.88 264.19 468.02 279.1 464.01 291.97 Z" id="11140720"/>
<path d="M 396.04 299.04 314.1 320.27 304.47 328.81 287.84 314.22 287.84 297.83 293.59 286.43 303.44 286.43 299.08 280.4 349.12 255.11 361.11 251.13 364.83 255.55 396.04 299.04 Z" id="11140700"/>
<path d="M 351.81 135.67 351.85 135.71 348.72 138.75 340.98 155.29 331.87 150.14 323.04 161.16 319.24 163.96 304.48 163.6 297.75 166.23 292.29 160.22 280.4 163.69 275.39 180.73 262.08 185.21 274.88 200.63 290.98 214.96 295.75 220.86 298.73 244.72 301.89 253.65 301.39 265.71 297.46 279.77 299.08 280.4 303.44 286.43 293.59 286.43 287.84 297.83 287.84 314.22 287.84 319.21 277 319.21 250.48 351.28 241.11 344.02 195.08 315.04 149.64 285.74 111.79 262.62 92.54 253.19 69.04 235.47 18.62 194.95 11.03 187.53 1 173.57 1 155.3 41.98 145.21 42.04 142.24 82.95 122 107.84 121.6 123.93 117.19 147.93 114.74 164.91 115.63 164.91 108.56 170.82 109.11 174.85 101.43 173.32 93.32 167.86 87.67 170.67 79.06 170.23 68.31 172.46 61.17 170.97 55.22 174.28 42.3 180.96 41.21 185.8 37.55 187.19 30.16 194.64 12.69 206.5 3.3 207.01 1 236.64 37.36 256.38 56.94 316.14 105.23 351.81 135.67 Z" id="11140740"/>
<path d="M 788.44 358.08 799 375.55 798.05 382.95 795.2 384.96 789.02 383.77 785.43 391.73 771.92 405.76 759.52 413.45 755.93 413.53 756.8 421.69 753.74 424.98 752.16 432.7 759.04 438.42 755.61 444.44 749.11 448.63 746.23 456.59 741.77 455.47 703.37 432.01 726.97 391.32 732.39 378.81 756.72 317.31 770.17 303.21 777.25 293.98 782.98 289.89 783.22 290.44 786.07 295.67 793.14 299.51 795.4 311.77 783.61 327.19 787.76 347.37 788.44 358.08 Z" id="11140770"/>
<path d="M 659.34 416.13 666.08 421.59 683.21 432.34 686.76 430.63 692.76 432.87 695.54 428.06 703.37 432.01 692.51 446.73 653.26 481.83 633.52 497.37 615.66 483.13 592.37 469.28 605.63 444.53 606.68 439.28 615.66 427.06 618.13 421.41 631.45 403.29 653.18 412.28 659.34 416.13 Z" id="11140590"/>
<path d="M 659.34 416.13 653.18 412.28 631.45 403.29 626.85 401.2 625.58 393.98 619.88 386.57 607.79 366.56 599.78 359.19 591.63 355.62 578.63 344.37 583.57 342.24 600.21 329.74 603.48 326.07 636.15 312.92 673.39 310.23 673.59 333.07 670.04 333.14 670.2 344.38 673.32 345.47 673.73 366.53 669.04 376.92 662.31 376.79 653.55 396.65 653.87 401.7 662.14 412.72 659.34 416.13 Z" id="11140600"/>
<path d="M 631.45 403.29 618.13 421.41 615.66 427.06 606.68 439.28 605.63 444.53 592.37 469.28 574.68 458.59 556.14 451.01 542.15 450.35 543.41 441.49 554.63 420.64 566.79 413.92 570.07 408.08 572.47 394.15 574.55 374.69 576.42 346.62 578.63 344.37 591.63 355.62 599.78 359.19 607.79 366.56 619.88 386.57 625.58 393.98 626.85 401.2 631.45 403.29 Z" id="11140630"/>
<path d="M 603.48 326.07 600.21 329.74 583.57 342.24 568.95 329.69 555.41 329.32 543.3 339.74 531.21 343.31 521.58 343.11 511.73 348.56 510.57 353.41 512.07 363.62 495.14 380.36 482.9 387.61 472.22 386.76 445.68 379.82 440.03 373.67 434.31 378.52 430.62 373.7 421.11 334.23 400.44 305.1 404.84 301.89 425.65 296.49 453.04 297.01 464.01 291.97 472.57 303.88 505.12 276.07 511.43 273.36 521.45 277.99 523.79 273.22 533.48 265.16 529.73 275.47 529.15 291.92 603.48 326.07 Z" id="11140660"/>
<path d="M 482.9 387.61 476.14 405.54 470.09 418.47 464.26 421.36 456.05 433.54 460.24 436.7 460.55 450.35 371.4 450.35 363.96 439.26 352.3 425.67 349.61 417.42 328.82 390.35 305.57 380.91 366.45 356.58 421.11 334.23 430.62 373.7 434.31 378.52 440.03 373.67 445.68 379.82 472.22 386.76 482.9 387.61 Z" id="11140680"/>
<path d="M 421.11 334.23 366.45 356.58 305.57 380.91 297.99 377.71 250.48 351.28 277 319.21 287.84 319.21 287.84 314.22 304.47 328.81 314.1 320.27 396.04 299.04 400.44 305.1 421.11 334.23 Z" id="11140690"/>
<path d="M 407.59 181.36 438.04 199.15 458 210.27 445.88 220.31 439.05 223.95 361.11 251.13 349.12 255.11 299.08 280.4 297.46 279.77 301.39 265.71 301.89 253.65 298.73 244.72 295.75 220.86 290.98 214.96 274.88 200.63 262.08 185.21 275.39 180.73 280.4 163.69 292.29 160.22 297.75 166.23 304.48 163.6 319.24 163.96 323.04 161.16 331.87 150.14 340.98 155.29 348.72 138.75 351.85 135.71 384.98 163.42 394.43 172.55 407.59 181.36 Z" id="11140730"/>
<path d="M 746.23 456.59 746.78 458.11 740.08 468.33 728.21 473.22 722.84 486.31 707.83 497.29 697.87 499.43 689.73 503.69 682.92 503.36 679.55 506.93 672.56 502.24 662.99 509.3 659.33 520 656.64 515.88 633.52 497.37 653.26 481.83 692.51 446.73 703.37 432.01 741.77 455.47 746.23 456.59 Z" id="11140750"/>
<path d="M 583.57 342.24 578.63 344.37 576.42 346.62 574.55 374.69 572.47 394.15 570.07 408.08 566.79 413.92 554.63 420.64 543.41 441.49 542.15 450.35 556.14 451.01 536.77 471.79 532.68 472.16 516.19 465.7 501.79 457.73 498.75 450.35 460.55 450.35 460.24 436.7 456.05 433.54 464.26 421.36 470.09 418.47 476.14 405.54 482.9 387.61 495.14 380.36 512.07 363.62 510.57 353.41 511.73 348.56 521.58 343.11 531.21 343.31 543.3 339.74 555.41 329.32 568.95 329.69 583.57 342.24 Z" id="11140760"/>
<path d="M 770.17 303.21 756.72 317.31 732.39 378.81 726.97 391.32 703.37 432.01 695.54 428.06 687.81 423.8 689.64 420.45 680.1 415.2 687.77 409.43 693.34 399.54 698.38 394.3 692.96 375.87 695.22 367.45 701.51 359.61 705.85 350.22 702.33 341.36 702.41 335.66 698.37 334.44 693.35 325.97 688.24 320.41 687.48 312.64 690.93 308.93 743.47 305.16 764.77 306.67 770.17 303.21 Z" id="11140780"/>
</g>
</svg>