<?xml version="1.0"?>
<svg xmlns="http://www.w3.org/2000/svg" version="1.2" baseProfile="tiny" width="800" height="708" viewBox="0 0 800 708" stroke-linecap="round" stroke-linejoin="round">
<g id="dong">
<path d="M 399.34 548.87 405.63 566.43 425.84 604.93 400.83 613.49 364.06 593.15 346.33 601.68 331.59 601.14 319.71 616.96 315.26 619.22 298.54 609.36 286.77 617.47 285.97 627.38 275.98 634.32 264.64 652.9 268.36 664.31 255.47 663.8 245.61 668.54 227.71 663.3 215.26 669.65 209.06 683.14 195.37 684.65 192.72 692.76 184.88 700.84 172.23 704.03 159.34 707 143.99 699.1 139.96 691.49 121.7 680.64 112.07 662.43 104.94 655.88 109.65 633.78 105.37 628.83 76.42 619.92 62.88 623.52 63.58 613.46 58.44 610.02 63.91 596.78 63.54 580.34 73.82 569.87 57.32 563.39 52.46 558.06 41.96 533.16 43.29 529.46 60.53 526.48 63.52 512.93 73.21 506.21 85.9 492.75 100.65 490.65 135.73 513.71 141.59 526.69 155.83 521.23 158.78 530.18 187.73 550.16 196.39 549.11 212.8 541.64 221.76 545.31 229.4 553.3 243.94 556.62 255.02 542.7 270.07 545.05 281.57 532.4 295.16 529.21 293.91 519.38 304.39 520.4 313.51 515.59 312.95 500.62 308.03 495.23 313.09 485.4 314.86 446.45 292.92 426.24 309.71 419.69 332.23 422.02 343.02 426.65 360.09 441.27 373.39 480.41 399.34 548.87 Z" id="11150660"/>
<path d="M 594.19 200.55 564.92 232.33 560.39 245.22 560.58 267.3 538.55 287.56 530.38 307.75 493.07 313.9 487.4 229.21 487.07 219.2 490 175.47 516.81 174.44 537.37 167.75 545.45 168.13 548.75 169.25 594.19 200.55 Z" id="11150540"/>
<path d="M 219.76 361.1 220.47 361.74 265.88 455.85 229.39 489.83 207.81 498.88 189.99 447.62 181.85 429.35 155.16 375.27 176.92 368.69 219.76 361.1 Z" id="11150600"/>
<path d="M 514.13 418.43 512.97 422.54 534.08 473.74 528.48 478.44 476.22 501.1 462.71 508.57 437.43 519.46 432.27 523.9 434.34 533.71 399.34 548.87 373.39 480.41 360.09 441.27 359.12 438.4 364.42 440.32 513.09 418.9 514.13 418.43 Z" id="11150640"/>
<path d="M 513.09 418.9 364.42 440.32 359.12 438.4 357.78 436.49 317.57 341.33 317.85 341.28 353.51 335.73 429.3 323.99 493 314.04 496.55 367.7 498.5 367.4 511.42 418.22 513.09 418.9 Z" id="11150720"/>
<path d="M 155.16 375.27 127.52 314.37 92.63 250.08 79.58 224.38 158.56 209.53 149.9 216.22 219.76 361.1 176.92 368.69 155.16 375.27 Z" id="11150570"/>
<path d="M 792.34 306.08 777.57 305 761.25 309.3 748.89 319.31 739.78 323.05 724.69 334.45 722.52 346.89 710.74 351.5 694.83 343.83 687.03 347.1 692.78 361.59 690.08 370.83 672.23 373.37 664.65 378.92 663.02 388.71 665.87 397.41 667.83 418.93 667.84 420.66 652.02 423.37 576.35 411.35 561.46 409.15 549.01 399.27 544.26 399.61 514.13 418.43 513.09 418.9 511.42 418.22 498.5 367.4 496.55 367.7 493 314.04 493.07 313.9 530.38 307.75 620.93 292.77 674.78 285.48 696.3 283.54 722.65 285.27 753.89 292.06 792.34 306.08 Z" id="11150510"/>
<path d="M 728.84 108.01 708.48 103.43 692.58 126.02 637.69 148.18 632.18 152.04 609.19 184.52 594.19 200.55 548.75 169.25 545.45 168.13 539.34 162.53 539.26 137.77 540.86 129.87 529.04 111 518.78 105.08 520.63 96.94 529.54 90.93 525.89 84.61 538.15 81.8 548.33 54.4 564.36 62.24 571.74 52.77 589.16 60.62 614.44 63.93 655.83 61.66 682.51 52.4 687.27 45.68 704.32 67.17 711.4 81.34 727.01 97.66 728.84 108.01 Z" id="11150520"/>
<path d="M 545.45 168.13 537.37 167.75 516.81 174.44 490 175.47 490.98 161.01 488.06 139.94 473.62 111.63 471.83 99.55 496.17 2.32 499.19 1 505.73 4.7 520.61 14.36 571.74 52.77 564.36 62.24 548.33 54.4 538.15 81.8 525.89 84.61 529.54 90.93 520.63 96.94 518.78 105.08 529.04 111 540.86 129.87 539.26 137.77 539.34 162.53 545.45 168.13 Z" id="11150530"/>
<path d="M 359.12 438.4 360.09 441.27 343.02 426.65 332.23 422.02 309.71 419.69 292.92 426.24 314.86 446.45 313.09 485.4 308.03 495.23 312.95 500.62 280.23 485.81 265.88 455.85 220.47 361.74 317.57 341.33 357.78 436.49 359.12 438.4 Z" id="11150580"/>
<path d="M 155.16 375.27 130.17 378.67 53.27 393.41 60.53 381.28 76.8 371.03 80.06 358.35 73.69 334.09 77.64 324.4 64.37 314.46 46.82 312.41 37.28 301.4 35.48 292.4 22.18 271.96 23.63 255.22 13.75 255.33 12.84 248.81 4.71 239.66 10.71 214.64 9.59 193.5 1 168.39 7.16 154.31 33.59 144.11 43.92 157.13 79.58 224.38 92.63 250.08 127.52 314.37 155.16 375.27 Z" id="11150590"/>
<path d="M 96.94 58.79 98.39 68.72 104.33 80.04 95.48 109.99 101.64 126.02 98.55 140.2 134.76 137.44 141.98 166.51 158.55 200.47 158.56 209.53 79.58 224.38 43.92 157.13 33.59 144.11 45.61 139.35 44.31 134.23 53.11 121.14 48.01 107.39 51.91 93.33 63.52 77.25 69.12 55.64 96.13 51.48 96.94 58.79 Z" id="11150610"/>
<path d="M 155.83 521.23 155.08 519.15 207.81 498.88 229.39 489.83 265.88 455.85 280.23 485.81 312.95 500.62 313.51 515.59 304.39 520.4 293.91 519.38 295.16 529.21 281.57 532.4 270.07 545.05 255.02 542.7 243.94 556.62 229.4 553.3 221.76 545.31 212.8 541.64 196.39 549.11 187.73 550.16 158.78 530.18 155.83 521.23 Z" id="11150620"/>
<path d="M 207.81 498.88 155.08 519.15 155.83 521.23 141.59 526.69 135.73 513.71 100.65 490.65 85.9 492.75 73.21 506.21 63.52 512.93 60.53 526.48 43.29 529.46 41.96 533.16 52.46 558.06 57.32 563.39 73.82 569.87 63.54 580.34 63.91 596.78 58.44 610.02 63.58 613.46 62.88 623.52 54.56 619.97 36.2 626.47 27.03 615.15 32.18 598.66 26.53 589.19 33 555.61 31.27 536.77 21.35 529.67 17.94 511.18 34.15 489.39 47.24 454.92 45.69 430.51 47.8 423.48 41.74 412.22 53.27 393.41 130.17 378.67 155.16 375.27 181.85 429.35 189.99 447.62 207.81 498.88 Z" id="11150630"/>
<path d="M 667.84 420.66 672.5 448.33 658.24 469.65 660.7 482.64 668.94 488.31 661 494.04 666.86 501.84 661.41 509.48 648.26 514.08 653.35 523.62 650.6 537.67 635.48 533.68 636.7 527.93 625.85 520.1 631.52 508.99 624.16 500.21 616.19 507.02 609.67 499.07 594.22 512.05 583.26 516.7 574.7 497.42 562.84 478.88 566.22 466.64 576.35 411.35 652.02 423.37 667.84 420.66 Z" id="11150650"/>
<path d="M 576.35 411.35 566.22 466.64 562.84 478.88 574.7 497.42 583.26 516.7 594.22 512.05 609.67 499.07 616.19 507.02 624.16 500.21 631.52 508.99 625.85 520.1 636.7 527.93 635.48 533.68 650.6 537.67 647.08 548.7 640 549.37 637.67 560.32 629.32 570.93 621.95 567.63 609.12 583.95 616.95 592.87 624.79 577.56 631.36 586.46 622.84 595.23 627.78 607.8 623.01 612.49 612.87 610.25 608.01 622.2 618.45 628.17 620.71 637.92 614.82 640.99 587.78 602.95 579.06 585.9 574.43 569.3 564.59 544.8 559.86 543.62 493.29 572.67 474.05 528.8 485.86 523.43 476.22 501.1 528.48 478.44 534.08 473.74 512.97 422.54 514.13 418.43 544.26 399.61 549.01 399.27 561.46 409.15 576.35 411.35 Z" id="11150690"/>
<path d="M 614.82 640.99 617.27 652.07 610.31 673.68 605.82 681.17 604.02 696.9 584.26 688.53 579.49 674.79 565.76 663.61 552.71 677.69 538.9 677.37 529.3 671.36 513.92 667.37 502.47 668.33 500.36 677.62 487.31 674.92 479.39 663.91 477.42 649.84 477.67 640.58 450.06 652.13 427.22 604.55 425.84 604.93 405.63 566.43 399.34 548.87 434.34 533.71 432.27 523.9 437.43 519.46 462.71 508.57 476.22 501.1 485.86 523.43 474.05 528.8 493.29 572.67 559.86 543.62 564.59 544.8 574.43 569.3 579.06 585.9 587.78 602.95 614.82 640.99 Z" id="11150700"/>
<path d="M 799 294.24 792.34 306.08 753.89 292.06 722.65 285.27 696.3 283.54 674.78 285.48 620.93 292.77 530.38 307.75 538.55 287.56 560.58 267.3 560.39 245.22 564.92 232.33 594.19 200.55 609.19 184.52 632.18 152.04 637.69 148.18 692.58 126.02 708.48 103.43 728.84 108.01 738.53 117.12 743.42 142.74 751.58 166.43 768.08 200.92 778.62 219.36 791 234.36 796.99 251.79 793.16 261.67 779.85 270.32 783.1 283.42 798.01 284.33 799 294.24 Z" id="11150710"/>
</g>
</svg>