<?xml version="1.0"?>
<svg xmlns="http://www.w3.org/2000/svg" version="1.2" baseProfile="tiny" width="800" height="681" viewBox="0 0 800 681" stroke-linecap="round" stroke-linejoin="round">
<g id="dong">
<path d="M 597.8 275.4 594.18 280.09 576.78 309.75 593.55 326.74 580.38 352.57 571.63 346.85 560.41 349.67 544.7 340.02 538.37 335.23 528.64 323.08 524.3 333.63 508.91 393.38 507.54 402.93 501.78 403.77 481.89 401.67 406.28 391.98 403.35 379.36 400.51 375.56 390.87 373.01 391.59 369.26 431.5 374.17 436.34 332.99 402.22 329.15 402.56 322.22 400.4 316.99 401.52 308.7 398.93 280.5 397.06 277.27 389.47 268.73 387.71 257.53 389 249.05 393.36 240.76 404.31 224.88 413.94 218.73 416.79 212.79 421.08 210.93 423.08 205.91 441.93 184.9 464.54 168.18 500.37 195.55 506.88 202.22 535.95 223.95 542.17 227.45 570.01 252.34 577.45 259.66 597.8 275.4 Z" id="11160640"/>
<path d="M 501.78 403.77 505.84 404.87 504.58 419.21 495.49 454.56 494.28 469.81 494.01 494.41 473.44 494.34 467.73 498.81 454.22 498.32 449.55 500.64 449.08 496.31 433.09 498.77 429.77 511.57 422.9 521.09 420.59 529.41 423.61 537.55 418.4 545.3 419.17 548.33 412.06 551.15 396.41 557.19 388.28 556.53 363.62 557.27 358.24 558.13 329.14 556.55 333.81 550.35 337.33 539.04 336.19 534.11 343.18 532.07 346.49 527.66 349.47 514.66 343.9 508.53 340.9 500.89 355.21 485.81 356.61 483.33 342.75 469.19 387.87 426.46 405.24 410.83 407.97 392.9 406.28 391.98 481.89 401.67 501.78 403.77 Z" id="11160670"/>
<path d="M 322.57 351.45 329.72 355.87 335.05 351.48 350.09 353.56 358.27 350.65 358.27 363.4 369.83 365.93 391.59 369.26 390.87 373.01 400.51 375.56 403.35 379.36 406.28 391.98 407.97 392.9 405.24 410.83 387.87 426.46 342.75 469.19 356.61 483.33 355.21 485.81 340.9 500.89 343.9 508.53 349.47 514.66 346.49 527.66 343.18 532.07 336.19 534.11 337.33 539.04 333.81 550.35 329.14 556.55 317.2 549.96 303.87 537.98 295.97 532.24 291.18 531.77 268.4 536.09 257.1 539.3 247.59 547.45 247.02 555.87 239.35 557.27 236.51 560.19 235.63 567.91 238.73 572.83 240.71 582.01 238.01 583.76 232.28 582.54 229.22 588.2 223.69 588.09 217.06 590.76 208.46 597.52 205.57 595.05 202.78 585.45 204.58 577.41 202.28 566.54 209.6 550.81 196.35 548.86 188.06 546.18 186.52 536.14 188.16 530.26 180.87 529.43 166.81 520.94 156.86 510.06 144.63 510.65 137.71 509.63 129.72 510.5 120.49 508 118.44 509.42 98.35 504.42 90.21 504.41 84.6 491.51 74.65 484.86 56 486.7 49.87 490.54 45.5 487.24 44.07 481.51 37.75 474.37 36.86 466.67 33.83 464.1 20.9 458.99 22.63 451.37 20.55 439.36 12.28 439.17 11.23 432.68 2.54 431.96 1 428.76 19.08 418.39 29.74 416.98 37.52 413.42 54.8 415.59 60.33 410.91 50.99 401.62 55.28 400.57 60.42 395.72 63.23 389.49 67.13 388.19 76.05 377.21 80.52 373.5 87.87 383.54 93.05 388.29 90.16 369.91 84.13 369.1 84.91 361.62 87.38 357.49 73.89 338.8 71.39 322.99 82.17 328.34 83.99 335.77 92.31 329.21 101.05 326.32 101.97 317.81 109.03 325.35 110.66 318.08 118.58 312.79 119.81 308.59 115.15 306.74 116.48 301.79 125.52 298.59 117.43 290.38 120.52 287.69 124.05 272.17 134.97 267.08 143.6 261.37 159.49 255.34 239 316.28 227.83 344.09 228.25 350.45 235.76 355.86 239.55 364 245.82 369.09 256.27 373.32 257.91 381.29 270.03 379.54 278.19 381.33 287.32 379.97 296.4 376.01 303.58 370.81 316.07 359.08 322.57 351.45 Z" id="11160690"/>
<path d="M 397.06 277.27 398.93 280.5 401.52 308.7 400.4 316.99 402.56 322.22 402.22 329.15 436.34 332.99 431.5 374.17 391.59 369.26 369.83 365.93 358.27 363.4 358.27 350.65 350.09 353.56 335.05 351.48 329.72 355.87 322.57 351.45 331.13 336.83 333.07 320.62 333.46 306.98 330.46 297.82 318.28 275.33 288.58 281.18 269.72 281.36 263.72 263.67 271.71 268.04 279.15 269.13 284.15 266.62 295.65 266.53 296.47 261.85 304.7 258.01 314.2 258.85 358.46 260.32 357.86 275.62 395.03 276.72 397.06 277.27 Z" id="11160700"/>
<path d="M 373.67 98.98 363.46 117.96 355.69 134.27 345.06 154.53 350.58 157.43 351.29 165.63 346.35 175.74 345.08 185.57 342.32 194.73 338.94 187.87 333.97 184.17 327.52 190.99 317.65 187.31 309.41 186.06 300.53 190.09 298.24 196.76 288.61 199.85 289.26 205.59 283.72 221.02 285.06 235.77 279.64 241.77 274.8 261.55 271.71 268.04 263.72 263.67 269.72 281.36 288.58 281.18 318.28 275.33 330.46 297.82 333.46 306.98 333.07 320.62 331.13 336.83 322.57 351.45 316.07 359.08 303.58 370.81 296.4 376.01 287.32 379.97 278.19 381.33 270.03 379.54 257.91 381.29 256.27 373.32 245.82 369.09 239.55 364 235.76 355.86 228.25 350.45 227.83 344.09 239 316.28 159.49 255.34 165.77 244.69 171.79 236.71 180.21 236.31 181.95 225.94 181.36 211.78 187.87 207.79 191.95 216.64 193.43 224.48 195.1 244.4 198.41 243.94 198.23 230.71 196.04 215.19 198.97 214.37 201.77 203.34 203.29 191.53 200.08 178.06 204.55 180.38 210.28 187.53 210.34 172.18 214.51 172.61 215.44 188.08 225.2 180.25 222.38 174.75 226.11 170.64 228.68 161.84 236.75 147.45 250.28 149.53 250.61 139.1 253.67 136.46 248.83 128.16 245.54 127.44 241.49 121.01 237.04 119.38 238.37 109.85 248.09 109.98 236.11 99.12 227.85 85.42 225.35 63.93 228.1 64.53 228.6 54.7 230.76 45.3 236.46 40.51 240.08 34.76 244.97 31.96 245.07 22.46 263.26 1 285.76 22.23 302.06 34.12 323.51 53.58 341.25 65.2 359.1 81.97 365.75 85.02 373.67 98.98 Z" id="11160710"/>
<path d="M 397.06 277.27 395.03 276.72 357.86 275.62 358.46 260.32 314.2 258.85 304.7 258.01 296.47 261.85 295.65 266.53 284.15 266.62 279.15 269.13 271.71 268.04 274.8 261.55 279.64 241.77 285.06 235.77 283.72 221.02 289.26 205.59 288.61 199.85 298.24 196.76 300.53 190.09 309.41 186.06 317.65 187.31 327.52 190.99 333.97 184.17 338.94 187.87 342.32 194.73 345.08 185.57 346.35 175.74 351.29 165.63 350.58 157.43 345.06 154.53 355.69 134.27 363.46 117.96 373.67 98.98 377.92 106.47 397.38 121.81 436.29 152.93 464.54 168.18 441.93 184.9 423.08 205.91 421.08 210.93 416.79 212.79 413.94 218.73 404.31 224.88 393.36 240.76 389 249.05 387.71 257.53 389.47 268.73 397.06 277.27 Z" id="11160720"/>
<path d="M 580.38 352.57 623.97 381.55 604.43 425.86 574.76 412.77 558.92 409.45 507.54 402.93 508.91 393.38 524.3 333.63 528.64 323.08 538.37 335.23 544.7 340.02 560.41 349.67 571.63 346.85 580.38 352.57 Z" id="11160540"/>
<path d="M 691.54 468.62 687.67 466.42 660.44 451.02 632.94 438.45 604.43 425.86 623.97 381.55 679.94 419.32 688.6 425.32 699.23 435.83 707.24 441.1 691.54 468.62 Z" id="11160520"/>
<path d="M 797.71 423.14 789.26 436.28 789.26 451.13 780.96 451.09 781.25 462.59 789.26 474.48 796.88 490.63 799 492.88 796.19 496.85 780.39 502.34 755.89 503.68 740.93 501.72 730.62 497.07 700.35 474.34 691.54 468.62 707.24 441.1 699.23 435.83 688.6 425.32 679.94 419.32 679.86 417.15 686.97 407.71 695.53 398.58 708.15 393.31 709.63 389.24 697.59 380.9 692.54 379.09 668.52 361.13 678.07 347.58 700.38 364.41 718.65 373.36 754.58 395.32 797.71 423.14 Z" id="11160510"/>
<path d="M 687.67 466.42 685.88 467.2 671.47 524.77 672.53 531.92 681.08 548.68 682.81 561.16 682.23 569.72 680.49 595.61 680.69 601.54 669.72 602.33 669.07 594.88 663.25 587.91 663.96 582.57 661.32 576.08 659.8 551.07 655.2 547.3 642.32 542.89 639.77 543.83 629.04 539.29 618.5 529.56 622.56 522.86 621.35 517.03 622.69 507.29 630.17 501.38 636.39 485.71 635.36 480.23 638.91 476.85 639.45 463.89 637.49 450.56 640.6 443.53 632.94 438.45 660.44 451.02 687.67 466.42 Z" id="11160530"/>
<path d="M 621.35 517.03 622.56 522.86 618.5 529.56 629.04 539.29 626.58 548.29 622.4 552.12 617.71 551.25 615.28 557.29 603.63 562.61 601.12 564 599.27 571.45 590.2 576.89 572.18 572.88 563.29 578.2 552.6 579.44 552.87 586.97 544.66 591.91 529.72 560.99 522.37 549.24 534.62 541.35 545.51 526.26 554.21 510.91 561.24 496.71 568.07 486.84 573.52 486.17 582.21 491.63 583.12 496.34 601.66 514.14 606.4 515.69 621.35 517.03 Z" id="11160550"/>
<path d="M 646.3 657.65 601.43 664.6 597.78 642.09 595.56 601.55 600.11 592.52 608.67 596.65 611.33 591.12 615.16 588.49 640.46 620.26 646.3 657.65 Z" id="11160570"/>
<path d="M 494.01 494.41 495.82 511.69 499.61 519.78 522.11 548.9 476.22 564.42 471.94 547.21 450.51 548.84 452.34 540.44 448.69 530.95 453.93 513.22 450.41 506.52 449.55 500.64 454.22 498.32 467.73 498.81 473.44 494.34 494.01 494.41 Z" id="11160580"/>
<path d="M 680.69 601.54 684.05 651.68 684.01 651.76 646.3 657.65 640.46 620.26 615.16 588.49 611.33 591.12 604.43 579.48 603.63 562.61 615.28 557.29 617.71 551.25 622.4 552.12 626.58 548.29 629.04 539.29 639.77 543.83 642.32 542.89 655.2 547.3 659.8 551.07 661.32 576.08 663.96 582.57 663.25 587.91 669.07 594.88 669.72 602.33 680.69 601.54 Z" id="11160590"/>
<path d="M 621.35 517.03 606.4 515.69 601.66 514.14 583.12 496.34 582.21 491.63 573.52 486.17 568.07 486.84 563.47 483.25 559.51 476.14 564.26 472.08 563.19 467.24 554.39 468.02 548.93 459.39 549.07 451.28 558.46 442.41 559 428.41 557.12 420.2 558.92 409.45 574.76 412.77 604.43 425.86 632.94 438.45 640.6 443.53 637.49 450.56 639.45 463.89 638.91 476.85 635.36 480.23 636.39 485.71 630.17 501.38 622.69 507.29 621.35 517.03 Z" id="11160610"/>
<path d="M 611.33 591.12 608.67 596.65 600.11 592.52 595.56 601.55 597.78 642.09 601.43 664.6 580.32 667.88 569.37 642.93 544.66 591.91 552.87 586.97 552.6 579.44 563.29 578.2 572.18 572.88 590.2 576.89 599.27 571.45 601.12 564 603.63 562.61 604.43 579.48 611.33 591.12 Z" id="11160630"/>
<path d="M 678.07 347.58 668.52 361.13 659.6 354.57 654.47 353.59 643.39 354.72 634.97 362.35 627.88 376.05 623.97 381.55 580.38 352.57 593.55 326.74 576.78 309.75 594.18 280.09 597.8 275.4 613.49 288.8 623 302.05 630.21 309.1 678.07 347.58 Z" id="11160650"/>
<path d="M 679.94 419.32 623.97 381.55 627.88 376.05 634.97 362.35 643.39 354.72 654.47 353.59 659.6 354.57 668.52 361.13 692.54 379.09 697.59 380.9 709.63 389.24 708.15 393.31 695.53 398.58 686.97 407.71 679.86 417.15 679.94 419.32 Z" id="11160660"/>
<path d="M 544.66 591.91 569.37 642.93 580.32 667.88 580.16 667.91 522.68 680 522.26 679.62 480.91 593.85 486.03 589.88 486.03 584.52 476.22 564.42 522.11 548.9 522.37 549.24 529.72 560.99 544.66 591.91 Z" id="11160730"/>
<path d="M 568.07 486.84 561.24 496.71 554.21 510.91 545.51 526.26 534.62 541.35 522.37 549.24 522.11 548.9 499.61 519.78 495.82 511.69 494.01 494.41 494.28 469.81 495.49 454.56 504.58 419.21 505.84 404.87 501.78 403.77 507.54 402.93 558.92 409.45 557.12 420.2 559 428.41 558.46 442.41 549.07 451.28 548.93 459.39 554.39 468.02 563.19 467.24 564.26 472.08 559.51 476.14 563.47 483.25 568.07 486.84 Z" id="11160740"/>
</g>
</svg>