<?xml version="1.0"?>
<svg xmlns="http://www.w3.org/2000/svg" version="1.2" baseProfile="tiny" width="800" height="664" viewBox="0 0 800 664" stroke-linecap="round" stroke-linejoin="round">
<g id="dong">
<path d="M 276.2 12.31 289.35 20.59 298.83 23.82 313.66 21.47 325.22 26.57 335.55 35.05 342 35.7 350.96 30.63 358.98 37.55 359.26 64.76 355.1 73.35 366.91 83.38 361.21 93.04 360.38 99.37 321.14 97.28 314.76 94.28 267.34 67.13 255.71 61.91 236.85 57.22 225.38 57.2 229.14 46.49 234.8 47.47 239.84 28.87 238.02 25.81 246.22 18.82 247.21 11.12 255.03 1 263.37 2.68 276.2 12.31 Z" id="11210520"/>
<path d="M 270.03 225.83 271.42 229.14 284.61 233.91 286.02 226.85 294.82 229.79 296.32 237.37 303.84 231.26 312.98 238.39 308.71 245.99 309.16 253.24 314.1 260.22 291.14 311.91 290.01 327.41 298.31 324.03 307.49 323.35 315.52 334.52 313.99 339.46 319.06 346.89 325.86 348.83 328.47 359.27 336.71 362.9 338.51 369.63 338.18 392.48 342.62 389.7 353.15 393.86 355.52 404.06 352.15 410.14 353.55 421.74 347.37 437.02 339.91 441.51 340.89 451.82 332.63 472.82 332.8 480.2 325.45 482.39 316.22 493.36 311.18 504.96 296.79 515.71 291.3 516.37 287.14 526.94 280.24 533.22 278.55 521.5 267.38 504.96 262.83 501.08 262.55 492.16 252.7 491.82 243.84 475.08 236.38 469.84 230.64 471.68 225.34 462.35 217.56 456.27 213.25 445.86 210.47 432.74 207.6 429.48 223.33 406.14 227.79 396.31 219.73 378.96 214.25 361.07 214.25 341.94 219.31 327.83 232.02 315.03 236.79 304.94 237.71 297.97 242.56 295.96 241.65 276.59 239.51 265.14 245.18 259.38 249.54 248.69 247.04 242.64 247.98 232.06 255.99 226.59 270.03 225.83 Z" id="11210820"/>
<path d="M 225.49 200.21 176.22 234.91 168.69 235.49 162.15 246.99 147.71 261.76 141.28 263.72 141.56 275.28 136.9 286.19 140.36 303.47 149.26 314.83 142.52 323.35 140.58 329.91 132.37 330.68 120.72 325.97 120.6 321.69 113.96 315.46 108.15 301.28 99.02 293.86 101.53 288.45 95.62 272.26 83.29 250.08 86.73 247.23 105.95 239.68 111.42 229.78 109.85 221.91 115.44 203.59 113.61 189.49 94.56 190.48 87.37 178.71 90.48 167.58 98.81 165.64 97.47 159.92 96.94 157.86 139.78 148.25 190.28 136.12 202.39 133.71 204.25 143.54 209.07 150 213.15 174.63 220.21 193.67 225.49 200.21 Z" id="11210830"/>
<path d="M 475.88 268.48 474.19 285.24 466.46 296.27 457 302.83 445.11 306.34 436.37 304.55 428.11 298.66 399.91 272.35 392.27 268.86 358.5 271.26 337.84 268.49 321.89 264.75 314.1 260.22 309.16 253.24 308.71 245.99 312.98 238.39 303.84 231.26 296.32 237.37 294.82 229.79 286.02 226.85 284.61 233.91 271.42 229.14 270.03 225.83 279.37 220.58 284.82 219.79 291.34 213.53 302.35 213.2 314.57 215 323.76 210.04 321.4 197.57 345.92 200.1 350.52 199.15 361.36 189.95 363.42 196.25 373.66 205.54 384.66 211.65 391.3 220.26 404.29 232.7 426.68 251.25 436.18 253.48 446.96 249.06 458.85 262.72 467.66 261.71 475.88 268.48 Z" id="11210660"/>
<path d="M 139.78 148.25 130.37 90.53 126.56 86.3 131.14 79.01 152.49 65.61 169.4 57.79 178.5 55.76 190.48 62.45 207.59 78.23 217.69 96.24 234.27 116.95 243.38 126.38 202.39 133.71 190.28 136.12 139.78 148.25 Z" id="11210680"/>
<path d="M 511.39 105.53 479.89 154.3 422.7 146.68 426.87 111.53 428.21 91.35 478.95 98.57 511.39 105.53 Z" id="11210610"/>
<path d="M 561.47 109.43 548.85 107.05 534.01 97 516.65 97.55 526.21 82.95 526.2 71.68 511.13 47 509.8 40.39 521.88 35.07 522.96 30.85 532.58 26.25 534.83 17.15 546.89 15.36 556.57 25.07 556.76 40.61 551.23 47.97 552.03 55.08 556.72 66.62 561.79 72.47 559.61 88.14 559.18 102.05 561.47 109.43 Z" id="11210540"/>
<path d="M 561.47 109.43 558.79 121.84 553.78 129.06 560.48 135.98 562.49 141.64 573.56 153.76 579.3 157.68 583.64 170.81 586.91 174.24 600.53 180.4 608.81 190.47 613.32 192.55 623.4 207.11 635.79 207.88 637.86 220.41 620.4 220.82 608.57 217.67 564.79 195.68 481.11 154.49 479.89 154.3 511.39 105.53 516.65 97.55 534.01 97 548.85 107.05 561.47 109.43 Z" id="11210570"/>
<path d="M 633 376.91 624.63 387.78 624.82 392.32 618.76 400.66 602.74 414.82 605.68 421.63 602.99 435.92 592.73 447.94 558.79 435.29 540.56 414.19 522.14 395.98 518.35 394.68 516.98 383.42 504.73 362 509.06 349.04 505.69 343.14 509.98 327.19 505.82 324.26 501.12 312.02 492.57 303.27 488.38 292.15 484.18 271.11 477.47 269.14 482.9 248.95 482.77 240.98 475.37 191.31 478.17 162.05 479.89 154.3 481.11 154.49 564.79 195.68 557.78 210.77 556.02 221.95 566.93 237.4 560.89 251.01 567.21 257.44 573.76 259.82 573.36 269.3 568.11 283.76 577.64 300.63 585.2 307.11 588.2 315.86 591.31 332.72 595.11 343.83 604.46 353.17 613.55 359.23 621.81 367.91 633 376.91 Z" id="11210580"/>
<path d="M 637.86 220.41 639.78 233.45 645.39 241.59 642.64 258.43 645.77 281.23 643.32 286.64 648.04 304.06 657.74 314.14 660.06 328.32 668.7 335.49 663.42 352.65 657.12 352.94 643.29 361.44 635.85 369.4 633 376.91 621.81 367.91 613.55 359.23 604.46 353.17 595.11 343.83 591.31 332.72 588.2 315.86 585.2 307.11 577.64 300.63 568.11 283.76 573.36 269.3 573.76 259.82 567.21 257.44 560.89 251.01 566.93 237.4 556.02 221.95 557.78 210.77 564.79 195.68 608.57 217.67 620.4 220.82 637.86 220.41 Z" id="11210620"/>
<path d="M 799 412.54 780.99 423.18 761.19 424.37 747.85 427.48 739.08 426.26 743.48 437.92 720.27 440.64 708.59 439.66 702.18 445.64 673.89 454.41 663.14 467.52 658.43 477.07 648.72 484.27 638.18 509.76 635.87 492.1 622.15 472.1 618.82 458.42 612.09 438.59 602.99 435.92 605.68 421.63 602.74 414.82 618.76 400.66 624.82 392.32 624.63 387.78 633 376.91 635.85 369.4 643.29 361.44 657.12 352.94 663.42 352.65 668.7 335.49 660.06 328.32 657.74 314.14 648.04 304.06 643.32 286.64 645.77 281.23 642.64 258.43 645.39 241.59 639.78 233.45 637.86 220.41 671.34 211.21 708.16 206.21 737.28 207.55 738.59 223.61 741.51 238.94 750.78 262.87 762.4 282.67 787.15 307.1 785.51 310.07 792.77 325.78 796.41 347.44 789.6 381.92 790.94 397.22 799 412.54 Z" id="11210630"/>
<path d="M 361.36 189.95 350.52 199.15 345.92 200.1 321.4 197.57 323.76 210.04 314.57 215 302.35 213.2 291.34 213.53 284.82 219.79 279.37 220.58 277.85 219.01 280.26 191.82 283.27 183.56 290.29 186.36 294.14 181.67 267.46 148.73 243.38 126.38 314.8 114.64 335.38 119.1 346.65 125.24 346.6 131.71 339.37 141.02 344.24 143.78 327.03 160.71 335.55 166.38 340.42 175.29 348.16 176.2 353.36 180.45 362.19 181.62 361.36 189.95 Z" id="11210640"/>
<path d="M 279.37 220.58 270.03 225.83 255.99 226.59 247.98 232.06 244.34 223.96 243.32 214.84 225.49 200.21 220.21 193.67 213.15 174.63 209.07 150 204.25 143.54 202.39 133.71 243.38 126.38 267.46 148.73 294.14 181.67 290.29 186.36 283.27 183.56 280.26 191.82 277.85 219.01 279.37 220.58 Z" id="11210650"/>
<path d="M 225.38 57.2 236.85 57.22 255.71 61.91 267.34 67.13 314.76 94.28 314.8 114.64 243.38 126.38 234.27 116.95 217.69 96.24 207.59 78.23 190.48 62.45 178.5 55.76 169.4 57.79 169.39 54.04 190.92 50.04 209.24 51.82 210.24 55.7 225.38 57.2 Z" id="11210690"/>
<path d="M 214.25 341.94 214.25 361.07 219.73 378.96 227.79 396.31 223.33 406.14 207.6 429.48 195.92 427.17 184.89 427.95 156.69 420.95 141.44 420.81 135.02 415.11 137.24 403.87 136.49 380.59 138.36 373.6 134.36 369.42 132.43 359.91 125.63 351.29 125.45 344.39 132.37 330.68 140.58 329.91 142.52 323.35 149.26 314.83 159.17 317.64 165.4 316 175.32 322.69 184.39 322.99 186.66 330.47 196.95 334 205.67 340.94 214.25 341.94 Z" id="11210710"/>
<path d="M 139.78 148.25 96.94 157.86 97.47 159.92 59.49 168.6 57.02 167.16 1 180.19 1.42 177.86 3.78 169.42 11 155.27 38.91 112.57 64.72 113.06 94.05 102.62 104.92 100.85 116.57 95.75 126.56 86.3 130.37 90.53 139.78 148.25 Z" id="11210720"/>
<path d="M 475.88 268.48 477.47 269.14 484.18 271.11 488.38 292.15 492.57 303.27 501.12 312.02 505.82 324.26 509.98 327.19 505.69 343.14 509.06 349.04 504.73 362 516.98 383.42 518.35 394.68 522.14 395.98 540.56 414.19 558.79 435.29 592.73 447.94 602.99 435.92 612.09 438.59 618.82 458.42 622.15 472.1 635.87 492.1 638.18 509.76 612.31 521.72 582.28 545.3 579.1 557.05 583.42 567.12 583.08 586.49 585.32 592.49 577.75 600.89 577.92 606.47 570.26 612.12 544.56 610.77 534.85 625.62 511.72 629.13 500.51 629.81 489.79 626.27 476.5 624.24 468.09 631.09 455.32 630.58 448.66 634.72 438.61 630.47 426.45 635.64 416.53 645.25 411.32 647.67 383.62 642.99 378.68 644.12 367.95 663 353.3 655.09 345.94 644.31 341.73 630.39 341.51 623.91 347.01 612.92 336.18 595.64 327.25 590.81 320.54 579.22 317.65 579.43 292.62 559.55 281.98 554.05 278.51 543.89 280.24 533.22 287.14 526.94 291.3 516.37 296.79 515.71 311.18 504.96 316.22 493.36 325.45 482.39 332.8 480.2 332.63 472.82 340.89 451.82 339.91 441.51 347.37 437.02 353.55 421.74 352.15 410.14 355.52 404.06 353.15 393.86 342.62 389.7 338.18 392.48 338.51 369.63 336.71 362.9 328.47 359.27 325.86 348.83 319.06 346.89 313.99 339.46 315.52 334.52 307.49 323.35 298.31 324.03 290.01 327.41 291.14 311.91 314.1 260.22 321.89 264.75 337.84 268.49 358.5 271.26 392.27 268.86 399.91 272.35 428.11 298.66 436.37 304.55 445.11 306.34 457 302.83 466.46 296.27 474.19 285.24 475.88 268.48 Z" id="11210730"/>
<path d="M 399.44 30.28 405.19 42.56 410.64 39.96 420.66 55.56 419.41 59.59 424.8 84.19 428.21 91.35 426.87 111.53 422.7 146.68 384.98 141.62 371.65 136.35 336.15 116.47 320.75 113.88 314.8 114.64 314.76 94.28 321.14 97.28 360.38 99.37 361.21 93.04 366.91 83.38 355.1 73.35 359.26 64.76 358.98 37.55 350.96 30.63 359.76 32.52 364.46 25.57 373.95 24.76 376.02 30.08 389.71 33.14 399.44 30.28 Z" id="11210780"/>
<path d="M 509.8 40.39 511.13 47 526.2 71.68 526.21 82.95 516.65 97.55 511.39 105.53 478.95 98.57 428.21 91.35 424.8 84.19 419.41 59.59 420.66 55.56 410.64 39.96 405.19 42.56 399.44 30.28 406.53 29.18 406.8 21.98 420.58 17.64 428.36 11.04 433.57 15.12 444.63 14.07 444.88 21.62 457.57 29 470.45 32.5 488.5 49.96 498.76 46.05 503.57 40.91 509.8 40.39 Z" id="11210790"/>
<path d="M 422.7 146.68 479.89 154.3 478.17 162.05 475.37 191.31 482.77 240.98 482.9 248.95 477.47 269.14 475.88 268.48 467.66 261.71 458.85 262.72 446.96 249.06 436.18 253.48 426.68 251.25 404.29 232.7 391.3 220.26 384.66 211.65 373.66 205.54 363.42 196.25 361.36 189.95 362.19 181.62 353.36 180.45 348.16 176.2 340.42 175.29 335.55 166.38 327.03 160.71 344.24 143.78 339.37 141.02 346.6 131.71 346.65 125.24 335.38 119.1 314.8 114.64 320.75 113.88 336.15 116.47 371.65 136.35 384.98 141.62 422.7 146.68 Z" id="11210800"/>
<path d="M 214.25 341.94 205.67 340.94 196.95 334 186.66 330.47 184.39 322.99 175.32 322.69 165.4 316 159.17 317.64 149.26 314.83 140.36 303.47 136.9 286.19 141.56 275.28 141.28 263.72 147.71 261.76 162.15 246.99 168.69 235.49 176.22 234.91 225.49 200.21 243.32 214.84 244.34 223.96 247.98 232.06 247.04 242.64 249.54 248.69 245.18 259.38 239.51 265.14 241.65 276.59 242.56 295.96 237.71 297.97 236.79 304.94 232.02 315.03 219.31 327.83 214.25 341.94 Z" id="11210810"/>
</g>
</svg>