<?xml version="1.0"?>
<svg xmlns="http://www.w3.org/2000/svg" version="1.2" baseProfile="tiny" width="800" height="846" viewBox="0 0 800 846" stroke-linecap="round" stroke-linejoin="round">
<g id="dong">
<path d="M 441.75 397.17 442.06 398.02 423.85 425.56 416.21 435.73 409.48 442.54 397.01 448.53 371.09 458.31 363.94 464.65 351.33 479.93 337.83 503.28 344.48 523.84 341.7 523.64 342.86 536.39 340.25 546.84 331.45 559.48 334.35 569.15 332.69 571.54 321.29 573.4 320.41 584.73 312.34 592.04 295.16 594.16 286.24 603.06 278.37 603.65 273.71 606.87 267.79 606.85 258.87 603.85 254.73 605.29 250.18 611.71 245.24 614.43 237.88 614.91 230.11 610.69 223.1 608.94 212.38 610.04 211.22 604.7 205.62 596.99 201.38 594.43 196.53 587.23 194.34 578.13 186.22 568.45 177.43 548.2 171.89 542.66 168.44 534.96 170.76 527.96 171.45 519.61 168.82 511.32 162.95 503.31 168.22 493.26 168.57 489.92 175.88 481.57 184.3 478.03 194.07 471.32 199.52 473.53 207.44 461.44 218.09 458.73 221.27 455.73 233.9 455.52 240.47 449.68 243.84 440.74 250.84 437.58 251.84 431.01 258.69 427.1 263.18 426.77 274.32 422.48 276.98 423.04 287.61 418.8 293.72 410.68 295.13 404.18 300.97 400.39 306.85 399.52 305.29 392.86 314.34 389.19 320.72 392.37 324.09 391.56 334.92 387.34 340.29 391.93 347.84 394.1 354.06 390.29 362.47 387.91 374.68 377.5 375.27 373.13 370.16 360.69 373.17 358.77 426.14 349.48 425.16 351.2 435.74 380.47 440.95 391.8 441.75 397.17 Z" id="11220660"/>
<path d="M 560.53 830.68 552.34 834.3 539.25 830.47 525.68 833.95 521.8 836.12 508.92 839.48 498.44 845 492.83 837.55 480.52 828.26 465.23 824.52 464.22 812.9 459.46 807.6 457.9 800.69 448.49 797.23 444.42 792.23 443.19 786.74 432.53 775.32 424.2 768.92 421.76 763.2 414.58 759.14 407.53 759.89 403.41 758.07 393.94 758.82 383.6 752.5 380.8 738.6 381.58 734.87 389.52 727.94 393.28 718.71 396.79 715.5 401.95 698.89 401.78 693 395.2 687.88 397.11 679.96 394.54 674.33 399.05 666.41 398.58 662.1 392.83 650.05 384.96 638 377.89 634.35 378.37 630.11 382.83 627.23 383.65 621.59 388.35 620.07 394.29 611.86 391.61 601.13 384.85 592.13 379.68 588.55 379.04 568.75 372.39 565.63 370.91 560 372.12 551.82 376.32 541.33 376.53 533.97 369.04 530.04 366.69 526.73 358.26 522.38 353.24 521.45 344.48 523.84 337.83 503.28 351.33 479.93 363.94 464.65 371.09 458.31 397.01 448.53 409.48 442.54 416.21 435.73 423.85 425.56 442.06 398.02 449.32 418.19 456.04 427.29 489.46 467.72 474.04 482.92 475.36 484.37 434.94 521.16 447.34 535.55 463.73 549.34 469.28 564.74 465.78 566.87 458.17 560.06 451.69 558.97 454.78 566.13 455.61 573.51 461.3 585.37 480.45 606.97 488.13 624.44 486.45 630.06 489.98 640.13 496.66 648.09 503.39 653.98 503.86 658.06 508.43 665.04 522.72 681.59 524.83 686.05 529.77 687.65 532.38 694.94 536.16 698.21 541.3 706.35 542.86 717.8 546.07 724.87 552.8 735.44 556.61 737.14 571.24 752.73 576.83 762.32 576.67 766.01 580.1 776.73 579.72 781.93 574.09 789.84 576.76 796.62 566.47 804.41 566.14 821.19 560.69 826.74 560.53 830.68 Z" id="11220670"/>
<path d="M 724.78 434.13 721.47 438.62 721.89 446.15 719.24 457.23 725.34 471.98 731.36 472.71 737.41 477.16 742.97 484.59 746.88 496.36 752.74 499.3 757.81 505.62 762.81 507.98 771.03 520.37 773.97 527.32 773.08 549.99 781.24 558.89 790 561.51 799 561.17 798.31 567.75 794.55 571.74 793.41 582.87 797.53 591.16 796.04 601.28 784.41 605.68 778.79 625.25 772.96 626.71 766.59 632.65 762.06 645.81 757.34 649.12 756.81 655.38 748.42 668.74 750.61 677.68 748.72 680.77 747.3 696.88 744.65 701.3 735.27 706.63 730.3 705.3 717.57 709.61 717.18 713.99 707.7 729.94 699.53 733.95 692.07 734.54 672.61 729.52 663.28 725.12 657.97 726.84 654.6 724.44 642.41 726.2 636.5 724.07 632.96 730.49 637.02 749.06 635.62 753.63 647.74 762.89 648.32 766.2 642.66 774.89 631.7 779.61 632.27 794.77 626.82 804.98 626.12 812.76 630.13 823.41 627.9 828.87 622 822.61 614.62 826.76 609.81 824.62 599.09 829.39 593.85 834.59 591.92 839.34 582.95 838.23 575.55 832.7 560.53 830.68 560.69 826.74 566.14 821.19 566.47 804.41 576.76 796.62 574.09 789.84 579.72 781.93 580.1 776.73 576.67 766.01 576.83 762.32 571.24 752.73 556.61 737.14 552.8 735.44 546.07 724.87 542.86 717.8 541.3 706.35 536.16 698.21 532.38 694.94 529.77 687.65 524.83 686.05 522.72 681.59 508.43 665.04 503.86 658.06 503.39 653.98 496.66 648.09 489.98 640.13 486.45 630.06 488.13 624.44 480.45 606.97 461.3 585.37 455.61 573.51 454.78 566.13 451.69 558.97 458.17 560.06 465.78 566.87 469.28 564.74 463.73 549.34 447.34 535.55 434.94 521.16 475.36 484.37 486.33 485.74 490.51 488.94 489.84 504.39 504.54 500.68 512.55 500.3 520.38 494.16 525.55 497.53 532.94 492.58 543.59 493.37 546.23 490.7 558.74 492.78 570.4 488.78 574.84 491.37 590.47 487.51 597.11 481.84 606.94 479.31 611.78 474.14 624.35 473.86 634.66 466.64 641.6 464.48 648.16 457.44 658.61 452.97 666.48 444.31 669.26 438.03 676.55 441.17 683.67 440.63 713.02 433.78 724.78 434.13 Z" id="11220680"/>
<path d="M 324.09 391.56 310.51 343.15 292.41 284.7 284.57 257.78 328.3 240.88 356.04 313.77 373.17 358.77 370.16 360.69 375.27 373.13 374.68 377.5 362.47 387.91 354.06 390.29 347.84 394.1 340.29 391.93 334.92 387.34 324.09 391.56 Z" id="11220520"/>
<path d="M 59.93 233.45 49.72 235.17 43.51 232.63 36.54 224.37 28.91 216.94 13.32 205.39 3.43 199.99 1 190.04 2.06 183.3 2.13 166.41 15.99 166.44 37.66 166.29 67.14 119.23 86.53 161.05 80.91 173.37 81.13 178.95 85 185.36 88.73 198.27 95.53 198.32 99.96 210.06 82.39 214.74 79.69 223.25 76.04 227.38 59.93 233.45 Z" id="11220560"/>
<path d="M 328.3 240.88 284.57 257.78 232.21 277.96 223.7 232.12 223.96 227.19 230.23 226.29 247.13 210.2 252.63 213.74 274.1 223.17 266.11 196.81 275.23 195.97 306.75 184.27 328.3 240.88 Z" id="11220540"/>
<path d="M 223.96 227.19 220.31 207.04 217.42 200.94 200.01 159.04 218.28 152.1 284.91 126.78 306.75 184.27 275.23 195.97 266.11 196.81 274.1 223.17 252.63 213.74 247.13 210.2 230.23 226.29 223.96 227.19 Z" id="11220570"/>
<path d="M 152.91 376.66 135.96 382 121.16 384.11 93.55 395.17 65.82 340.83 131.47 315.71 140.9 312.41 140.4 322.61 144.38 328.35 146.97 337.39 139.2 347.83 143.47 358.69 143.11 365.81 149.56 369.62 152.91 376.66 Z" id="11220620"/>
<path d="M 324.09 391.56 320.72 392.37 314.34 389.19 305.29 392.86 306.85 399.52 300.97 400.39 295.13 404.18 293.72 410.68 287.61 418.8 276.98 423.04 274.32 422.48 272.03 413.98 263.66 398.56 270.44 393.5 267.05 382.68 261.81 376.92 240.77 334.17 238.35 324.05 232.21 277.96 284.57 257.78 292.41 284.7 310.51 343.15 324.09 391.56 Z" id="11220510"/>
<path d="M 232.21 277.96 238.35 324.05 240.77 334.17 261.81 376.92 267.05 382.68 270.44 393.5 263.66 398.56 272.03 413.98 274.32 422.48 263.18 426.77 258.69 427.1 251.84 431.01 250.84 437.58 243.84 440.74 240.47 449.68 233.9 455.52 221.27 455.73 218.09 458.73 207.44 461.44 194.45 430.8 182.81 412.49 180.8 413.26 174.68 405.04 165.9 408.79 156.32 389.17 159.27 384.43 152.91 376.66 149.56 369.62 143.11 365.81 143.47 358.69 139.2 347.83 146.97 337.39 144.38 328.35 140.4 322.61 140.9 312.41 136.32 308.38 136.51 296.36 139.57 294.19 146.21 292.78 154.08 279.63 160.17 271.78 162.07 266.3 161.89 258.14 171.91 251.4 180.02 251.82 189.99 247.6 198.14 250.91 207.82 246.62 198.42 236.07 223.7 232.12 232.21 277.96 Z" id="11220530"/>
<path d="M 196.8 1 228.65 27.14 242.77 7.51 254.58 23.31 260.68 33.83 272.45 83.3 279.3 112.05 284.91 126.78 218.28 152.1 215.97 146.45 220.35 140.78 209.99 132.77 204.03 118.32 195.93 107.27 191.2 111.57 184.24 105.71 199 87.36 154.77 43.72 159.59 39.49 182.34 19.5 190.44 9.17 196.8 1 Z" id="11220550"/>
<path d="M 73.31 239.16 63.65 238.88 59.93 233.45 76.04 227.38 79.69 223.25 82.39 214.74 99.96 210.06 95.53 198.32 88.73 198.27 85 185.36 81.13 178.95 80.91 173.37 86.53 161.05 67.14 119.23 73.29 109.54 119.77 72.5 145.37 105.15 122.03 119.74 145.44 179.57 157.57 199.26 157.94 206.27 101.89 234.67 88.25 238.91 73.31 239.16 Z" id="11220580"/>
<path d="M 218.28 152.1 200.01 159.04 145.44 179.57 122.03 119.74 145.37 105.15 119.77 72.5 144.41 52.77 154.77 43.72 199 87.36 184.24 105.71 191.2 111.57 195.93 107.27 204.03 118.32 209.99 132.77 220.35 140.78 215.97 146.45 218.28 152.1 Z" id="11220590"/>
<path d="M 223.96 227.19 223.7 232.12 198.42 236.07 207.82 246.62 198.14 250.91 189.99 247.6 180.02 251.82 171.91 251.4 161.89 258.14 162.07 266.3 160.17 271.78 154.08 279.63 146.21 292.78 139.57 294.19 136.22 283.56 123.31 278.41 120.34 280.3 115.05 273.73 106.01 274.89 105.41 268.81 97.72 256.88 92.01 257.49 87.37 250.44 78.24 247.16 73.31 239.16 88.25 238.91 101.89 234.67 157.94 206.27 157.57 199.26 145.44 179.57 200.01 159.04 217.42 200.94 220.31 207.04 223.96 227.19 Z" id="11220600"/>
<path d="M 59.93 233.45 63.65 238.88 73.31 239.16 78.24 247.16 87.37 250.44 92.01 257.49 97.72 256.88 105.41 268.81 106.01 274.89 84.2 279.09 64.83 289.3 39.83 301.76 17.65 302.2 18.67 286.74 19.55 249.23 36.54 224.37 43.51 232.63 49.72 235.17 59.93 233.45 Z" id="11220610"/>
<path d="M 207.44 461.44 199.52 473.53 194.07 471.32 184.3 478.03 175.88 481.57 168.57 489.92 168.22 493.26 162.95 503.31 156.45 508.48 147.81 506.76 140.83 509.02 129.1 507.53 122.34 509.37 115.08 508.93 111.83 512.59 108.4 509.15 101.22 493.78 88.27 487.64 85 484.31 81.25 486.77 76.89 484.77 69.37 485.13 65.66 479.35 56.55 475.43 47.5 463.45 44.36 455.91 44.56 451.75 38.5 443.51 41.18 431.41 44.89 421.7 49.86 417.38 70.41 404.64 93.55 395.17 121.16 384.11 135.96 382 152.91 376.66 159.27 384.43 156.32 389.17 165.9 408.79 174.68 405.04 180.8 413.26 182.81 412.49 194.45 430.8 207.44 461.44 Z" id="11220640"/>
<path d="M 139.57 294.19 136.51 296.36 136.32 308.38 140.9 312.41 131.47 315.71 65.82 340.83 58.35 343.58 13.97 349.93 13.98 349.84 15.32 322.63 17.53 309.18 17.65 302.2 39.83 301.76 64.83 289.3 84.2 279.09 106.01 274.89 115.05 273.73 120.34 280.3 123.31 278.41 136.22 283.56 139.57 294.19 Z" id="11220650"/>
<path d="M 93.55 395.17 70.41 404.64 49.86 417.38 44.89 421.7 41.18 431.41 38.5 443.51 44.56 451.75 44.36 455.91 47.5 463.45 56.55 475.43 65.66 479.35 69.37 485.13 76.89 484.77 81.25 486.77 85 484.31 88.27 487.64 101.22 493.78 108.4 509.15 111.83 512.59 114.32 523.21 114.16 528.84 119.35 538.31 116.69 542.9 115.19 554.06 98.05 557.98 91.58 557.33 86.75 567.33 80.13 565.81 77.6 569.13 68.35 574.97 64.92 583.13 58.95 586.23 52.69 574.32 51.65 562.42 56.94 535.61 54.11 518.77 48.47 506.55 49.74 504.24 30.51 485.25 21.48 469.85 14.28 451.24 12.01 439.32 10.99 426.84 10.97 418.07 13.97 349.93 58.35 343.58 65.82 340.83 93.55 395.17 Z" id="11220630"/>
</g>
</svg>