<?xml version="1.0"?>
<svg xmlns="http://www.w3.org/2000/svg" version="1.2" baseProfile="tiny" width="800" height="691" viewBox="0 0 800 691" stroke-linecap="round" stroke-linejoin="round">
<g id="dong">
<path d="M 175.79 247.82 136.82 142.73 135.53 140.7 211.17 110.52 226.47 162.13 244.3 222.24 175.79 247.82 Z" id="11230530"/>
<path d="M 393.32 392.2 394.83 395.8 363.51 403.07 350.53 407 331.14 418.64 324.63 391.18 306.51 343.15 306.49 343.09 360.59 321.33 365.13 325.02 377.46 353.79 393.32 392.2 Z" id="11230600"/>
<path d="M 712.2 451.14 721.27 469.06 742.46 504.75 767.85 546.61 799 600.6 782.82 612.58 779.93 619.22 770.72 626.85 752.59 638.06 749.25 644.27 748.63 668.89 741.71 669.32 728.33 661.33 723.6 656.67 721.54 647.33 713.57 642.93 700.25 640.37 697.27 640.99 688.26 637.5 682.38 638.32 676.62 636.22 670.69 638.35 661.95 638.39 664.99 647.17 659.77 652.4 659.21 656.79 650.59 659.62 641.55 666.14 640.84 672.47 637.32 676.64 630.23 680.16 625.8 690 619.88 688.69 599.07 688.51 600.56 678.41 596.44 670.14 597.58 659.04 601.34 655.06 602.02 648.5 593.04 648.83 584.3 646.22 576.15 637.34 577.04 614.73 574.11 607.8 565.9 595.43 560.92 593.08 555.86 586.77 550.01 583.83 546.1 572.1 540.56 564.68 534.51 560.25 528.51 559.51 522.42 544.8 525.07 533.74 524.65 526.24 527.94 521.76 537.63 516.07 551.67 516.94 561.87 507.88 574.29 501.81 578.82 504.8 585.43 503.05 599.8 501.54 610.86 499.12 616.89 501.54 621.37 499.5 618.35 489.43 619.51 481.2 615.11 475.15 618.77 465.54 626.48 458.72 635.15 454.71 637.13 456.14 643.03 444.85 650.85 440.6 657.94 439.52 661.69 448.31 668.23 459.07 677.75 459.9 684.41 458.12 700.93 456.33 705.39 457.81 712.2 451.14 Z" id="11230760"/>
<path d="M 110.74 272.49 88.94 215.14 83.34 200.44 76.51 171.76 135.53 140.7 136.82 142.73 175.79 247.82 110.74 272.49 Z" id="11230520"/>
<path d="M 306.49 343.09 279.74 272.12 279.73 272.09 328.35 253.34 331.8 254.8 336.61 265.25 360.59 321.33 306.49 343.09 Z" id="11230630"/>
<path d="M 135.53 140.7 76.51 171.76 64.75 122.41 58.67 111.91 46.88 96.15 32.79 115.74 1 89.66 44.56 32.4 48.94 30.43 62.1 16.85 64.3 14.74 87.87 1.13 90.54 3.61 115.91 49.44 122.34 57.42 134.91 70.77 138.14 82.03 135.53 140.7 Z" id="11230510"/>
<path d="M 416.51 218.66 416.83 221.92 400.53 225.5 332.79 251.63 318.74 220.12 298.42 172.69 288.6 148.1 335.25 137.58 371.43 121.72 381.2 124.02 393.15 94.2 407.16 98.27 407.94 130.35 413.7 187.46 416.51 218.66 Z" id="11230580"/>
<path d="M 279.73 272.09 275.91 261.95 271.8 254.99 252.09 238.92 247.84 232.96 244.3 222.24 226.47 162.13 288.6 148.1 298.42 172.69 318.74 220.12 332.79 251.63 328.35 253.34 279.73 272.09 Z" id="11230590"/>
<path d="M 159.94 401.68 132.24 328.97 110.74 272.49 175.79 247.82 244.3 222.24 247.84 232.96 252.09 238.92 271.8 254.99 275.91 261.95 279.73 272.09 279.74 272.12 196.81 303.94 198.58 310 223.95 376.96 180.26 393.84 180.25 395.1 162.68 401.88 159.94 401.68 Z" id="11230640"/>
<path d="M 264.33 361.41 223.95 376.96 198.58 310 196.81 303.94 279.74 272.12 306.49 343.09 306.51 343.15 264.33 361.41 Z" id="11230650"/>
<path d="M 264.33 361.41 286.2 413.17 254.93 431.4 244.96 434.7 229.9 437.31 177.03 446.58 159.94 401.68 162.68 401.88 180.25 395.1 180.26 393.84 223.95 376.96 264.33 361.41 Z" id="11230660"/>
<path d="M 331.14 418.64 298.96 442.85 272.74 462.4 249.98 478.09 245.47 484.88 244.67 479.53 239.48 468.22 228.92 439.02 229.9 437.31 244.96 434.7 254.93 431.4 286.2 413.17 264.33 361.41 306.51 343.15 324.63 391.18 331.14 418.64 Z" id="11230670"/>
<path d="M 444.93 552.03 438 554.19 427.72 561.39 415.17 561.67 410.34 566.83 400.53 569.36 393.9 575.01 385.75 570.92 372.01 551.75 357.89 533.52 346.18 517.4 343.81 511.05 314.58 475.15 301.84 445.63 298.96 442.85 331.14 418.64 335.72 428.96 343.82 443.29 387.41 488.55 389.04 492.37 398.83 485.32 402.46 490.39 410.73 494.42 415.25 490.96 424.64 500.88 421.66 509.34 422.9 516.4 426.79 521.53 444.93 552.03 Z" id="11230680"/>
<path d="M 298.96 442.85 301.84 445.63 314.58 475.15 343.81 511.05 346.18 517.4 357.89 533.52 372.01 551.75 385.75 570.92 393.9 575.01 378.3 578.86 373.88 576.28 362.24 580.27 349.75 578.19 347.12 580.85 336.48 580.06 329.11 585.01 323.95 581.65 316.14 587.77 308.14 588.15 293.46 591.85 294.14 576.44 289.96 573.24 279.01 571.87 277.7 570.43 293.09 555.27 259.73 514.93 253.03 505.85 245.78 485.74 245.47 484.88 249.98 478.09 272.74 462.4 298.96 442.85 Z" id="11230710"/>
<path d="M 585.43 503.05 578.82 504.8 574.29 501.81 561.87 507.88 551.67 516.94 537.63 516.07 527.94 521.76 516.21 521.4 486.92 528.24 479.81 528.78 472.54 525.65 454.89 517.53 451.51 506.97 447.25 503.47 443.43 495.76 442.72 489.65 457.76 479.31 464.05 464.93 465.66 457.91 475.86 443.43 480.17 431.25 476.18 422.55 490.82 414.88 506.19 409.12 562.9 387.93 572.77 400.09 574.18 411.21 591.01 420.47 589.92 429.07 590.9 434.49 589.15 442.25 592.21 442.84 594.65 454.81 593.57 466.41 589.68 472.34 590.24 480.95 592.79 487.75 585.9 497.13 585.43 503.05 Z" id="11230720"/>
<path d="M 562.9 387.93 506.19 409.12 490.49 366.14 501.03 361.54 552.05 341.26 570.59 330.83 595.76 339.67 603.19 343 616.49 350.07 623.39 355.13 643.42 366.7 628.13 372.49 627.98 374.37 615.94 375.88 615.21 373.16 601.76 375.25 605.45 381.05 594.18 379.57 592.04 378.01 576 381.6 562.9 387.93 Z" id="11230730"/>
<path d="M 570.59 330.83 552.05 341.26 501.03 361.54 490.49 366.14 506.19 409.12 490.82 414.88 476.18 422.55 480.45 415.56 469.98 395.11 473.82 392 467.76 377.21 456.09 381.39 444.74 383.18 436.22 361.54 441.63 354.32 445.65 346.08 446.79 334.55 439.64 314.16 439.62 289.36 449.1 290.42 472.88 293.12 508.24 307.89 522.34 313.85 570.59 330.83 Z" id="11230511"/>
<path d="M 686.18 405.7 712.2 451.14 705.39 457.81 700.93 456.33 684.41 458.12 677.75 459.9 668.23 459.07 661.69 448.31 657.94 439.52 650.85 440.6 643.03 444.85 637.13 456.14 635.15 454.71 626.48 458.72 618.77 465.54 615.11 475.15 619.51 481.2 618.35 489.43 621.37 499.5 616.89 501.54 610.86 499.12 599.8 501.54 585.43 503.05 585.9 497.13 592.79 487.75 590.24 480.95 589.68 472.34 593.57 466.41 594.65 454.81 592.21 442.84 589.15 442.25 590.9 434.49 589.92 429.07 591.01 420.47 574.18 411.21 572.77 400.09 562.9 387.93 576 381.6 592.04 378.01 594.18 379.57 605.45 381.05 601.76 375.25 615.21 373.16 615.94 375.88 627.98 374.37 628.13 372.49 643.42 366.7 655.94 374.05 680.07 394.89 686.18 405.7 Z" id="11230750"/>
<path d="M 188.73 1 220.31 1.67 259.32 14.73 262.99 17.47 254.69 49.95 251.83 48.79 243.6 77.18 222.45 70.42 211.17 110.52 135.53 140.7 138.14 82.03 134.91 70.77 122.34 57.42 115.91 49.44 90.54 3.61 87.87 1.13 188.73 1 Z" id="11230770"/>
<path d="M 262.99 17.47 279.15 29.62 300.89 45.94 321.89 63.01 329.52 65.86 357.81 77.14 384.48 90.09 393.15 94.2 381.2 124.02 371.43 121.72 335.25 137.58 288.6 148.1 226.47 162.13 211.17 110.52 222.45 70.42 243.6 77.18 251.83 48.79 254.69 49.95 262.99 17.47 Z" id="11230780"/>
<path d="M 436.22 361.54 431.98 364.02 422.88 375.87 413.16 384.53 405.38 388.78 393.32 392.2 377.46 353.79 365.13 325.02 360.59 321.33 336.61 265.25 331.8 254.8 328.35 253.34 332.79 251.63 400.53 225.5 416.83 221.92 422.5 281.05 423.41 287.39 439.62 289.36 439.64 314.16 446.79 334.55 445.65 346.08 441.63 354.32 436.22 361.54 Z" id="11230790"/>
<path d="M 476.18 422.55 480.17 431.25 475.86 443.43 465.66 457.91 464.05 464.93 457.76 479.31 442.72 489.65 443.43 495.76 447.25 503.47 451.51 506.97 454.89 517.53 472.54 525.65 469.76 531.91 461.91 540.55 451.48 545.01 444.93 552.03 426.79 521.53 422.9 516.4 421.66 509.34 424.64 500.88 415.25 490.96 410.73 494.42 402.46 490.39 398.83 485.32 389.04 492.37 387.41 488.55 343.82 443.29 335.72 428.96 331.14 418.64 350.53 407 363.51 403.07 394.83 395.8 393.32 392.2 405.38 388.78 413.16 384.53 422.88 375.87 431.98 364.02 436.22 361.54 444.74 383.18 456.09 381.39 467.76 377.21 473.82 392 469.98 395.11 480.45 415.56 476.18 422.55 Z" id="11230800"/>
</g>
</svg>