<?xml version="1.0"?>
<svg xmlns="http://www.w3.org/2000/svg" version="1.2" baseProfile="tiny" width="800" height="849" viewBox="0 0 800 849" stroke-linecap="round" stroke-linejoin="round">
<g id="dong">
<path d="M 135.41 745.91 114.23 685.61 96.72 657.09 26.13 604.58 12.85 590.45 1 538.78 219.85 545.91 220.11 559.11 219.31 702.74 220.82 713.58 171.54 728.74 135.41 745.91 Z" id="21010560"/>
<path d="M 610.66 199.34 662.57 217.32 640.01 275.72 649.35 308.47 744.87 349.59 752.87 399.2 799 427.11 777.63 456.25 751.39 436.44 736.99 455.54 636.09 381.31 623.87 375.28 607.48 423.17 733.61 515.19 689.33 575.47 624.25 528.02 616.02 539.41 580.99 513.78 605.76 479.61 556.06 482.82 545.42 512.84 548.06 550.3 560.89 553.76 566.99 590.65 616.4 603.94 607.14 639.12 566.9 643.43 572.12 715.12 563.76 754.95 544.85 783.46 492.13 807.81 488.27 757.87 486.95 717.66 505.43 691.51 497.19 648.42 478 654.96 454.6 613.98 440.75 548.56 437.78 497.73 451.28 409.81 449.95 386.25 492.16 298.72 518.88 289.62 551.11 178.89 610.66 199.34 Z" id="21010510"/>
<path d="M 492.16 298.72 449.95 386.25 451.28 409.81 437.78 497.73 440.75 548.56 454.6 613.98 478 654.96 497.19 648.42 505.43 691.51 486.95 717.66 488.27 757.87 465.28 729.36 460 680.04 429.41 689.41 385.73 645.04 398.16 613.91 383.7 582.42 412.06 581.97 410.47 521.92 430.18 501.6 440.63 432.8 378.66 397.26 379.14 369.17 393.89 346.49 362.46 321.47 367.76 311.44 425.83 307.92 438.09 325.53 492.16 298.72 Z" id="21010520"/>
<path d="M 362.46 321.47 393.89 346.49 379.14 369.17 378.66 397.26 440.63 432.8 430.18 501.6 410.47 521.92 412.06 581.97 383.7 582.42 371.36 578.1 322.09 602.25 317.93 563.71 249.66 554.34 220.11 559.11 219.85 545.91 235.14 526.26 223.59 484.38 205.23 469.81 224.8 428.89 232.05 390.26 222.69 336.91 250.72 329.49 265.36 306.65 346.65 340.02 362.46 321.47 Z" id="21010530"/>
<path d="M 204.4 256.88 202.58 281.2 222.97 306.07 222.69 336.91 232.05 390.26 224.8 428.89 205.23 469.81 223.59 484.38 235.14 526.26 219.85 545.91 1 538.78 4.14 441.51 35.49 367.48 38.15 337.03 52.2 310.85 101.06 312.94 130 276.47 152.32 233.22 204.4 256.88 Z" id="21010540"/>
<path d="M 465.28 729.36 437.23 738.57 404.02 730.23 344.92 703.63 249.77 699.05 219.31 702.74 220.11 559.11 249.66 554.34 317.93 563.71 322.09 602.25 371.36 578.1 383.7 582.42 398.16 613.91 385.73 645.04 429.41 689.41 460 680.04 465.28 729.36 Z" id="21010570"/>
<path d="M 465.28 729.36 488.27 757.87 492.13 807.81 476.07 809.81 435.86 789.66 294.44 809.37 182.98 848 177.18 836.39 167.75 830.91 135.41 745.91 171.54 728.74 220.82 713.58 219.31 702.74 249.77 699.05 344.92 703.63 404.02 730.23 437.23 738.57 465.28 729.36 Z" id="21010580"/>
<path d="M 551.11 178.89 518.88 289.62 492.16 298.72 438.09 325.53 425.83 307.92 441.66 295.07 393.5 216.66 376.28 214.62 368.47 163.05 383.7 157.33 380.53 129.99 402.14 124.97 380.56 63.99 384.44 46.43 392.77 38.21 426.71 64.81 431.8 84.79 463.3 97.89 480.62 134 508.38 152.21 537.63 158.74 551.11 178.89 Z" id="21010590"/>
<path d="M 371.47 16.38 384.44 46.43 380.56 63.99 402.14 124.97 380.53 129.99 383.7 157.33 368.47 163.05 376.28 214.62 393.5 216.66 441.66 295.07 425.83 307.92 367.76 311.44 362.46 321.47 346.65 340.02 265.36 306.65 250.72 329.49 222.69 336.91 222.97 306.07 202.58 281.2 204.4 256.88 207.53 213.5 218.52 169.52 212.59 86.76 195.76 44.63 222.38 47.51 256.86 14.88 288.99 12.19 334.4 21.31 345.44 1 371.47 16.38 Z" id="21010600"/>
</g>
</svg>