<?xml version="1.0"?>
<svg xmlns="http://www.w3.org/2000/svg" version="1.2" baseProfile="tiny" width="800" height="2512" viewBox="0 0 800 2512" stroke-linecap="round" stroke-linejoin="round">
<g id="dong">
<path d="M 221.99 44.73 259.05 36.23 282.34 39.59 323.82 53.95 360.26 89.66 372.69 101.78 440.29 124.06 457.04 140.81 490.02 115.63 568.14 103.69 600.37 108.5 591.16 128.42 561.03 210.75 548.75 277.1 531.38 336.31 511.66 415.89 517.19 427.99 496.66 510.95 482.54 540.15 471.82 540.38 440.55 594.59 439.95 609.72 463.76 626.39 472.09 649.9 486.78 671.22 439.38 694.61 418.11 705.2 399.45 665.23 381.83 649.88 355.87 653.59 315.63 638.38 272.95 631.17 273.45 650.77 240.58 643.43 182.29 624.88 148.42 619.02 97.99 605.61 79.05 606.33 73.22 572.41 81.83 561.73 84.58 511.34 92.65 478.56 98.18 466.74 125.99 438.73 164.11 417.88 175.39 390.8 185.04 347.8 159.63 355.08 167.03 273.07 156.96 245.57 152.3 195.02 174.37 167.53 166.42 139.54 186.94 121.87 79.2 56.54 55.23 62.41 1 17.84 55.69 1 88.53 8.12 126.35 7.04 137.26 16.28 177.61 36.8 189.16 47.25 221.99 44.73 Z" id="21020570"/>
<path d="M 463.7 2439.52 485.18 2457.97 478.47 2466.88 492.93 2483 484.17 2511 448.72 2501.15 456.07 2440.39 463.7 2439.52 Z M 662.84 1754.75 636.55 1758.55 616.09 1771.65 606.83 1740.81 635.17 1755.03 662.84 1754.75 Z M 689.86 1601.31 681.92 1653.15 687.48 1676.18 676.89 1683.84 669.22 1733.23 651.42 1747.42 632.47 1747.54 597.09 1713.3 573.59 1716.3 546.63 1727.5 509.56 1765.28 500.32 1785.55 503.34 1803.93 526.21 1830.34 530.44 1862.85 541.95 1869.9 561.11 1896.21 588.03 1895 599.25 1914.3 586.2 1969.47 603.32 1999.95 600.15 2021.56 587.73 2032.43 582.88 2055.87 626.84 2120.98 619.49 2141.49 602.07 2151.41 592.42 2168.19 567.39 2178.12 544.8 2198.74 550.85 2213.38 534.67 2248 522.38 2253.29 487.95 2254.94 474.9 2296.32 474.07 2318.97 494.7 2332.86 481.98 2361.67 457.11 2377.99 429.77 2374.97 329.72 2425.23 325.88 2417.58 394.84 2383.03 373.19 2312.91 342.46 2320.61 337.33 2303.91 367.05 2293.08 355.55 2255.63 324.97 2263.47 319.16 2244.59 348.83 2233.76 328.47 2168.24 320.75 2163.06 314.92 2106.17 377.58 2098.28 396.45 2039.71 336.4 2020.15 248.43 1882.93 221.32 1685.35 261.25 1679.7 261.67 1663.74 294.68 1672.49 320.58 1706.98 346.77 1721.36 371.13 1727 371.3 1687.42 382.03 1665.16 374.38 1652.55 380.17 1622.21 375.88 1587.61 363.13 1565.84 385 1529.87 395.09 1490.43 406.33 1417.79 415.68 1383.44 449.12 1400.84 495.79 1432.12 469.7 1490.95 465.15 1529.34 490.66 1558.98 526.85 1586.52 560.16 1578.97 564.42 1593.66 596.27 1575.94 646.26 1592.64 657.02 1606.42 674.74 1593.14 689.86 1601.31 Z" fill-rule="evenodd" id="21020680"/>
<path d="M 695.07 1449.07 702.47 1479.92 797.11 1469.2 799 1480.5 711.53 1490.92 689.86 1601.31 674.74 1593.14 657.02 1606.42 646.26 1592.64 596.27 1575.94 564.42 1593.66 560.16 1578.97 526.85 1586.52 490.66 1558.98 465.15 1529.34 469.7 1490.95 495.79 1432.12 518.53 1419.28 597.33 1397.7 617.96 1411.89 634.2 1414.81 636.62 1432.78 660.82 1432.61 662.96 1451.74 695.07 1449.07 Z" id="21020690"/>
<path d="M 681.24 802.14 666.13 831.41 646.52 856.1 613.43 854.68 603.91 872.41 602.11 893.02 553.93 891.26 511.58 848.39 501.61 827.12 643.47 761.56 672.02 765.18 693.49 790.79 681.24 802.14 Z" id="21020510"/>
<path d="M 676.28 642.88 690.68 668.68 710.67 674.47 722.07 702.99 726.08 759.01 718.64 788.78 716.52 818.15 681.24 802.14 693.49 790.79 672.02 765.18 643.47 761.56 501.61 827.12 470.9 761.94 569.22 715.74 562.49 699.57 580.7 680.22 601.67 643.13 634.55 650.34 662.9 640.73 676.28 642.88 Z" id="21020520"/>
<path d="M 676.28 642.88 662.9 640.73 634.55 650.34 601.67 643.13 580.7 680.22 562.49 699.57 569.22 715.74 470.9 761.94 439.38 694.61 486.78 671.22 472.09 649.9 463.76 626.39 439.95 609.72 440.55 594.59 471.82 540.38 482.54 540.15 496.66 510.95 517.19 427.99 511.66 415.89 531.38 336.31 548.75 277.1 561.03 210.75 591.16 128.42 600.37 108.5 659.36 132.62 658.5 162.33 674.25 203.87 670.86 248.3 671.39 294.39 668.32 327.59 661.27 350.71 667.33 383.7 662 402.66 683.39 427.47 654.99 508.36 662.66 539.08 639.22 588.19 647.24 612.93 676.28 642.88 Z" id="21020530"/>
<path d="M 470.9 761.94 501.61 827.12 511.58 848.39 553.93 891.26 476.18 888.77 482.85 902.83 466.03 908.06 445.6 922.57 421 959.77 419.3 969.51 367.53 964.54 340.08 947.67 288.62 900.74 272.46 877.28 246.6 848.39 208.79 835.78 183.32 800.78 203.95 810.22 256.62 805.59 301.7 810.05 321.11 807.12 341.68 771.71 343.78 746.01 356.18 748.37 374.32 804.76 377.65 805.44 470.9 761.94 Z" id="21020540"/>
<path d="M 439.38 694.61 470.9 761.94 377.65 805.44 374.32 804.76 356.18 748.37 343.78 746.01 341.68 771.71 321.11 807.12 301.7 810.05 256.62 805.59 203.95 810.22 183.32 800.78 190.26 750.36 147.48 720.51 158.74 701.55 151.89 670.33 161.76 639.37 148.42 619.02 182.29 624.88 240.58 643.43 273.45 650.77 272.95 631.17 315.63 638.38 355.87 653.59 381.83 649.88 399.45 665.23 418.11 705.2 439.38 694.61 Z" id="21020560"/>
<path d="M 553.93 891.26 602.11 893.02 580.88 943.14 578.75 1008.98 586.77 1043.96 549.2 1043.53 483.96 1041.22 463.13 1044.1 416.54 1041.99 399.54 1035.49 396.6 1023.69 419.3 969.51 421 959.77 445.6 922.57 466.03 908.06 482.85 902.83 476.18 888.77 553.93 891.26 Z" id="21020590"/>
<path d="M 419.3 969.51 396.6 1023.69 399.54 1035.49 416.54 1041.99 463.13 1044.1 483.96 1041.22 549.2 1043.53 546.2 1131.44 519.87 1130.68 511.67 1163.52 491.73 1163.79 479.83 1174.5 476.91 1195.76 412.14 1243.17 396.29 1215.37 365.21 1179.34 361.84 1161.06 342.87 1138.2 335.57 1118.26 280.89 1118.75 271.55 1115.56 272.59 1071.24 278.05 1052.52 293.85 1023.34 307.82 1009.8 319.73 971.71 329.36 971.46 340.08 947.67 367.53 964.54 419.3 969.51 Z" id="21020610"/>
<path d="M 581.54 1279.53 548.59 1290.95 486.31 1355.99 449.12 1400.84 415.68 1383.44 415.74 1383.3 434.15 1341.45 429.17 1268.32 412.14 1243.17 476.91 1195.76 479.83 1174.5 491.73 1163.79 511.67 1163.52 519.87 1130.68 546.2 1131.44 560.05 1131.96 572.22 1144.56 571.25 1172.26 590.25 1200.52 579.67 1272.63 581.54 1279.53 Z" id="21020630"/>
<path d="M 669.79 1149.2 691.69 1206.74 698.09 1210.45 681.87 1217.98 673.9 1269.53 622.97 1277.95 602.46 1274.5 581.54 1279.53 579.67 1272.63 590.25 1200.52 571.25 1172.26 572.22 1144.56 560.05 1131.96 546.2 1131.44 549.2 1043.53 586.77 1043.96 595.77 1053.53 643.58 1089.07 655.44 1108.38 669.79 1149.2 Z" id="21020640"/>
<path d="M 695.07 1449.07 662.96 1451.74 660.82 1432.61 636.62 1432.78 634.2 1414.81 617.96 1411.89 597.33 1397.7 518.53 1419.28 495.79 1432.12 449.12 1400.84 486.31 1355.99 548.59 1290.95 581.54 1279.53 602.46 1274.5 622.97 1277.95 673.9 1269.53 685.54 1357.94 716.99 1354.59 719.14 1374.24 687.65 1377.7 691.8 1417.97 723.67 1414.75 725.7 1434.34 693.9 1437.68 695.07 1449.07 Z" id="21020650"/>
</g>
</svg>