<?xml version="1.0"?>
<svg xmlns="http://www.w3.org/2000/svg" version="1.2" baseProfile="tiny" width="800" height="1118" viewBox="0 0 800 1118" stroke-linecap="round" stroke-linejoin="round">
<g id="dong">
<path d="M 415.4 454.61 445.64 473.57 451.93 487.52 429.44 526.13 432.84 530.36 415.49 532.13 387.12 527.25 363.61 538.21 353.88 549.57 345.67 574.52 344.72 586.88 348.11 594.03 340.86 602.8 335.73 590.66 314.06 568.16 306.99 553.84 306.36 541.22 294.41 529.94 278.78 527.87 277.46 521.53 285.37 509.29 279.87 485.89 275.06 479.26 256.14 472.79 245.23 476.96 233.87 450.57 235.58 445.15 255.75 435.31 279.7 433.5 291.8 424.96 302.18 413.39 306.08 413.42 309.33 435.65 320.61 455.27 415.4 454.61 Z" id="21070540"/>
<path d="M 787.74 994.79 789.09 1002.43 780.59 1008.36 774.18 1005.95 777.97 995.64 787.74 994.79 Z M 744.25 909.96 753.13 916.37 752.99 923.67 744.03 926.57 744.25 909.96 Z M 778.78 687.82 789.43 710.3 790.14 723.32 783.3 733.94 781.91 757.86 774.33 774.23 775.55 782.35 754.81 807.63 756.87 817.56 753.08 836.98 740.16 857.51 742.12 864.25 755.47 875.16 746.03 882.93 742.84 897.07 725.36 888.64 712.6 894.38 699.88 892.39 685.81 897.7 664.96 882.55 645.37 885.32 637.27 873.38 630.51 874.47 612.24 845.22 604.88 829.93 607 802.09 600.23 787.95 607.78 781.05 602.38 772.24 585.84 720.94 585.3 650.69 645.51 659.75 650.87 669 664.85 676.29 676.42 674.04 682.15 679.6 687.97 671.86 696.12 676.51 695.27 687.11 718.25 705.43 725.09 699.15 741.79 701.58 751.21 698.08 772.32 700.54 778.78 687.82 Z" fill-rule="evenodd" id="21070580"/>
<path d="M 778.78 687.82 772.32 700.54 751.21 698.08 741.79 701.58 725.09 699.15 718.25 705.43 695.27 687.11 696.12 676.51 687.97 671.86 682.15 679.6 676.42 674.04 664.85 676.29 650.87 669 645.51 659.75 585.3 650.69 596.68 603.92 600.05 527.71 603.02 525.2 610.29 507.43 634.79 476.51 646.68 485.81 654.89 473.8 654.75 447.7 667.28 429.22 672.26 432.36 683.06 421.32 680.83 410.85 695.74 395.24 699.4 403.16 699.65 415.9 705.74 420.7 706.04 430 700.46 439.74 714.53 458.46 720.74 483.35 718.17 494.48 720.74 501.65 735.39 518.76 740.95 533.15 739.27 541.77 743.87 558.18 758.91 559.52 754.64 570.17 767.78 578.17 771.65 591.2 784.71 608.54 790.69 609.38 799 620 797.44 627.03 788.73 635.1 782.68 654.97 794.39 663.26 793.7 670.14 783.01 678.56 778.78 687.82 Z" id="21070590"/>
<path d="M 549.26 1096.17 530.96 1117 528.86 1115.04 616.41 1016.06 618.76 1018.14 549.26 1096.17 Z M 585.3 650.69 585.84 720.94 602.38 772.24 607.78 781.05 600.23 787.95 607 802.09 604.88 829.93 612.24 845.22 604.53 850.57 583.22 872.45 602.24 890.83 601.13 893.06 619.07 910.38 632.04 919.54 602.22 971.89 599.51 971.47 573.71 1012.4 626.15 919.62 584.69 879.26 575.9 879.84 487.12 971.3 521.5 1007.65 515.53 1008.04 456.38 1020.05 451.17 1016.37 454.14 1014.79 457.69 1017.09 478.78 1012.88 485.51 1000.71 493.45 995.7 499.11 986.52 485.68 973.5 445.43 959.03 439.78 903.85 450.64 908.97 453.46 883.07 461.35 873.73 469.13 870.66 473.49 858.36 491.37 852.79 510.21 811.56 516.03 784.63 530.96 773.32 528.27 761.97 533.15 759.5 537.79 746.27 534.06 726.71 527.94 707.14 527.6 692.48 522.15 686.74 507.8 687.45 500.63 680.5 492.73 657.57 499.67 653.83 506.63 671.73 517.75 658.9 536.68 643.3 585.3 650.69 Z" fill-rule="evenodd" id="21070600"/>
<path d="M 415.4 454.61 320.61 455.27 309.33 435.65 306.08 413.42 302.18 413.39 291.8 424.96 279.7 433.5 255.75 435.31 235.58 445.15 233.87 450.57 222.72 447.59 194.17 467.74 175.04 466.51 164.19 462.62 182.2 431.12 194.98 414.76 196.09 406.88 211.67 400.91 233.18 393.22 303.59 386.37 356.11 382.28 373.62 380.08 404.08 372.34 419.45 384.36 426.33 395.08 426.7 454.33 415.4 454.61 Z" id="21070700"/>
<path d="M 164.19 462.62 175.04 466.51 194.17 467.74 222.72 447.59 233.87 450.57 245.23 476.96 256.14 472.79 275.06 479.26 279.87 485.89 285.37 509.29 277.46 521.53 278.78 527.87 269.18 535.17 246.82 543.29 246.95 533.42 256.42 526.06 260.8 531.08 268.36 525.19 252.94 521.65 245.84 523.54 226.76 546.2 226.01 565.28 216.39 566.78 222.5 580.32 198.46 591.3 177.23 600.36 151.95 582.29 128.86 575.94 91.97 562.71 76.82 584.03 36.55 567.43 51.34 531.4 44.79 512.55 42.3 489.59 60.41 486.5 60.25 505.59 69.9 503.22 83.83 470.26 86.12 457.44 99.5 457.13 97.73 449.82 113.25 437.87 124.05 433.55 126.67 444.44 135.19 449.47 146.5 468.15 153.67 469.14 164.19 462.62 Z" id="21070710"/>
<path d="M 456.77 137.3 465.73 170.34 462.87 174.55 471.57 182.95 477.69 216.33 485.17 239.52 484.64 252.24 471.37 270.82 481.91 285.09 488.54 285.71 507.36 302.56 520.33 321.57 529.34 325.61 536.66 333.67 581.23 368.67 590.02 360.4 618.94 355.33 621.6 365.31 588.18 372.8 574.01 381.91 554.6 411.7 557.54 413.69 530.84 453.53 516.77 466.95 520.46 484.69 512.38 492.31 493.3 501.54 474.31 511.14 464.44 520.22 451.04 527.26 432.84 530.36 429.44 526.13 451.93 487.52 445.64 473.57 415.4 454.61 426.7 454.33 426.33 395.08 419.45 384.36 404.08 372.34 418.7 362.32 415.5 353.04 407.06 353.6 403.71 342.5 394.3 344.95 389.23 338.19 390.28 330.88 400.99 331.18 395.42 301.22 387.12 295.81 383 278.34 366.82 262.89 350.08 235.95 332.3 214.01 318.21 210.27 307.78 203.53 294.06 189.04 273.15 183.36 245.14 178.73 245.11 183.95 232.04 175.95 209.65 166.15 187.56 161.84 200.52 134.06 203.85 121.85 201.95 106.3 226.43 89.2 230.24 72.55 224.93 63.16 235.17 49.82 243.32 44.55 269.77 40.12 278.93 30.6 294.15 19.34 309.09 11.09 323.98 17.19 335.9 20.47 354.49 20.68 363.12 16.91 372.48 7.62 384.47 1 390.21 19.75 398.29 26.8 406.29 47.51 410.98 52.86 416.76 70.3 427.95 85.5 428.63 95.18 456.77 137.3 Z" id="21070530"/>
<path d="M 404.08 372.34 373.62 380.08 356.11 382.28 303.59 386.37 302.42 373.55 292.39 374.66 289.04 341.63 293.98 331.74 287.82 323.48 280.23 302.2 249 295.87 239.09 296.01 238.68 278.13 233.09 260.22 236.78 252.74 251.09 240.96 252.11 218.41 249.47 211.17 253.34 203.14 245.11 183.95 245.14 178.73 273.15 183.36 294.06 189.04 307.78 203.53 318.21 210.27 332.3 214.01 350.08 235.95 366.82 262.89 383 278.34 387.12 295.81 395.42 301.22 400.99 331.18 390.28 330.88 389.23 338.19 394.3 344.95 403.71 342.5 407.06 353.6 415.5 353.04 418.7 362.32 404.08 372.34 Z" id="21070550"/>
<path d="M 303.59 386.37 233.18 393.22 211.67 400.91 198.55 385.83 188.62 377.36 191.75 364.92 177.5 353.45 166.7 360.12 163.24 354.77 176.38 325.72 166.4 315.72 164.27 308.16 176.56 304.95 202.17 291.1 209.42 279.38 227.52 267.24 233.09 260.22 238.68 278.13 239.09 296.01 249 295.87 280.23 302.2 287.82 323.48 293.98 331.74 289.04 341.63 292.39 374.66 302.42 373.55 303.59 386.37 Z" id="21070560"/>
<path d="M 603.02 525.2 600.05 527.71 596.68 603.92 585.3 650.69 536.68 643.3 517.75 658.9 506.63 671.73 499.67 653.83 492.73 657.57 483.96 649.92 483.66 643.51 492.42 636.93 502.23 622.68 505.11 613.62 515.02 597 504.14 565.48 499.96 534.75 506.1 520.2 493.3 501.54 512.38 492.31 520.46 484.69 516.77 466.95 530.84 453.53 557.54 413.69 573.85 389.57 594.1 378.14 600.39 379.6 661.07 420.06 654.52 429.86 659.54 433.24 647.9 454.84 608.62 507.05 603.02 525.2 Z" id="21070570"/>
<path d="M 492.73 657.57 500.63 680.5 507.8 687.45 522.15 686.74 527.6 692.48 527.94 707.14 534.06 726.71 537.79 746.27 533.15 759.5 528.27 761.97 530.96 773.32 516.03 784.63 510.21 811.56 491.37 852.79 473.49 858.36 469.13 870.66 461.35 873.73 453.46 883.07 450.64 908.97 439.78 903.85 445.43 959.03 450.41 1004.53 454.14 1014.79 451.17 1016.37 407.63 986.53 402.61 981.94 381.56 786.02 381.93 769.85 371.06 758.59 365.84 759.09 360.59 773.02 371.6 777.15 369.18 783.54 352.04 777.06 356.5 764.8 340.31 769.76 323.87 771.52 320.86 732.54 315.42 728.47 311.87 714.32 311.62 699.24 316.64 687.24 311.98 677.22 313.37 662.56 309.06 639.88 315.8 631.45 313.29 625.75 336.5 607.98 340.86 602.8 348.11 594.03 344.72 586.88 345.67 574.52 353.88 549.57 363.61 538.21 387.12 527.25 415.49 532.13 432.84 530.36 451.04 527.26 464.44 520.22 474.31 511.14 493.3 501.54 506.1 520.2 499.96 534.75 504.14 565.48 515.02 597 505.11 613.62 502.23 622.68 492.42 636.93 483.66 643.51 483.96 649.92 492.73 657.57 Z" id="21070610"/>
<path d="M 198.46 591.3 207.34 609.95 196.44 614.65 200.94 625.34 213.76 619.21 223.91 604.77 236.19 602 238.34 607.05 249.18 605.94 257.06 620.44 270.01 615.64 288.9 614.87 315.8 631.45 309.06 639.88 313.37 662.56 311.98 677.22 316.64 687.24 311.62 699.24 311.87 714.32 315.42 728.47 320.86 732.54 323.87 771.52 340.31 769.76 341.6 841.51 157.89 845.26 68.34 784.29 61.67 795.95 54.5 789.78 65.52 780.75 90.07 739.78 94.16 734.92 77.73 729.25 76.47 718.56 89.45 695.64 93.63 698.11 115.68 664.21 122.29 667.7 139.59 654.38 133.07 634.44 120.46 625.41 105.89 645.64 88.2 633.02 128.86 575.94 151.95 582.29 177.23 600.36 198.46 591.3 Z" id="21070620"/>
<path d="M 340.86 602.8 336.5 607.98 313.29 625.75 315.8 631.45 288.9 614.87 270.01 615.64 257.06 620.44 249.18 605.94 238.34 607.05 236.19 602 223.91 604.77 213.76 619.21 200.94 625.34 196.44 614.65 207.34 609.95 198.46 591.3 222.5 580.32 216.39 566.78 226.01 565.28 226.76 546.2 245.84 523.54 252.94 521.65 268.36 525.19 260.8 531.08 256.42 526.06 246.95 533.42 246.82 543.29 269.18 535.17 278.78 527.87 294.41 529.94 306.36 541.22 306.99 553.84 314.06 568.16 335.73 590.66 340.86 602.8 Z" id="21070630"/>
<path d="M 245.11 183.95 253.34 203.14 249.47 211.17 252.11 218.41 251.09 240.96 236.78 252.74 233.09 260.22 227.52 267.24 209.42 279.38 202.17 291.1 176.56 304.95 164.27 308.16 157.91 302.66 167.36 290.44 161.27 282.01 172.35 278.6 174.06 272.7 161.23 267.26 148.32 267.5 136.35 273.3 127.53 281.86 98.21 282.15 97.65 298 85.5 299.43 71.95 307.51 64.9 318.29 51.54 321.21 52.47 314.28 67.35 279.47 84.93 279.28 86.59 272.01 81.34 259.61 91.95 254.21 96.06 241.78 93.42 224.88 93.44 198.34 102.76 184.83 144.36 162.43 187.56 161.84 209.65 166.15 232.04 175.95 245.11 183.95 Z" id="21070660"/>
<path d="M 93.44 198.34 93.42 224.88 96.06 241.78 91.95 254.21 81.34 259.61 86.59 272.01 84.93 279.28 67.35 279.47 52.47 314.28 51.54 321.21 65.43 362.59 41.32 362.32 42.2 342.23 38.88 328.85 21.46 298.15 8.89 277.78 5.26 266.14 2.95 199.37 1 192.49 4.11 191.04 27.28 180.64 31.14 180.76 46.44 205.38 57.21 203.63 57.42 196.12 67.02 192.64 81.88 192.89 93.44 198.34 Z" id="21070670"/>
<path d="M 164.27 308.16 166.4 315.72 176.38 325.72 163.24 354.77 166.7 360.12 177.5 353.45 191.75 364.92 188.62 377.36 198.55 385.83 211.67 400.91 196.09 406.88 183.28 405.89 120.59 368.73 109.27 362.86 65.43 362.59 51.54 321.21 64.9 318.29 71.95 307.51 85.5 299.43 97.65 298 98.21 282.15 127.53 281.86 136.35 273.3 148.32 267.5 161.23 267.26 174.06 272.7 172.35 278.6 161.27 282.01 167.36 290.44 157.91 302.66 164.27 308.16 Z" id="21070680"/>
<path d="M 65.43 362.59 109.27 362.86 120.59 368.73 183.28 405.89 196.09 406.88 194.98 414.76 182.2 431.12 164.19 462.62 153.67 469.14 146.5 468.15 135.19 449.47 126.67 444.44 124.05 433.55 113.25 437.87 97.73 449.82 99.5 457.13 86.12 457.44 83.83 470.26 69.9 503.22 60.25 505.59 60.41 486.5 42.3 489.59 37.17 478.51 43.41 478.03 41.49 459.11 43.69 458.93 36.61 395.69 34.19 391.19 41.32 362.32 65.43 362.59 Z" id="21070690"/>
</g>
</svg>