<?xml version="1.0"?>
<svg xmlns="http://www.w3.org/2000/svg" version="1.2" baseProfile="tiny" width="800" height="873" viewBox="0 0 800 873" stroke-linecap="round" stroke-linejoin="round">
<g id="dong">
<path d="M 752 464.89 746.84 470.77 741.2 473.58 736.1 479.44 731.39 481.39 726.79 490.66 720.25 494.6 719.19 498.78 721.26 507.22 717.46 512.9 709.69 520.42 707.46 545.6 699.92 556.26 695.26 559.64 687.17 572.93 683.93 573.5 675.31 588.46 659.55 590.47 655.07 587.99 641.42 586.08 633.2 595.83 613.23 601.33 600.76 611.99 594.92 623.51 595.28 633.01 592.23 644.72 587.74 646.99 579.6 645.39 572.55 653.55 569.76 665.8 563.92 672.49 557.72 673.47 553.86 678.67 543.68 680.62 532.81 686.35 524.86 672.36 511.56 671.21 504.04 674.92 495.84 674.43 495.91 664.99 501.08 650.09 485.6 637.35 469.28 631.6 471.42 637.95 469.01 641.38 451.96 645.34 435.67 646.33 435.33 642.42 413.34 641.16 413.08 646.25 394.12 646.12 386.65 626.1 384.88 602.45 387.02 592.36 391.25 587.29 403.87 571.79 409.38 572.24 416.13 562.32 432.62 549.07 431.37 556.98 449.82 555.9 459.49 548.26 464.61 539.45 466.73 540.68 470.19 525.19 479.84 528.27 482.34 518.21 486.81 506.85 484.86 497.75 486.96 493.62 499.9 487.21 496.45 481.76 507.93 457.9 521.21 457.21 532.94 453.64 535.02 443.66 541.67 442.05 546.59 443.83 560.93 441.98 563.5 443.31 573.87 435.15 579.32 432.97 607.54 418.56 622.22 407.51 634.96 400.89 656.02 398.91 661.12 399.55 685.77 411.19 707.24 408.28 714.01 408.55 722.63 420.53 747.06 408.59 757.71 408.63 760.48 416.71 755.67 435.17 750.81 441.75 753.51 449.41 752 464.89 Z" id="21110590"/>
<path d="M 523.08 17.5 542.15 21.31 548.95 25.16 565.53 27.28 568.5 31.38 584.71 41.45 592.5 35.49 603.74 40.35 617 37.74 627.26 41.89 629.38 51.3 636.54 55.93 641.13 55.15 656.64 59.2 666.55 69.98 678.8 70.9 681.8 79.06 690.51 113.84 699.22 127.9 688.24 133.63 670.57 151.46 668.69 164.73 658.75 191.62 652.88 211.17 642.97 224.61 647.32 236.62 656.74 249.27 650.17 266.51 650.6 284.86 648.26 292.45 636.56 307.89 628.25 320.38 626.91 327.01 623.87 330.17 621.59 346.36 619.92 351.05 625.75 359.94 622.6 361.67 624.62 383.95 632.22 391 634.96 400.89 622.22 407.51 607.54 418.56 579.32 432.97 573.87 435.15 563.5 443.31 560.93 441.98 546.59 443.83 541.67 442.05 535.02 443.66 532.94 453.64 521.21 457.21 507.93 457.9 498.24 455.16 491.02 450.67 489.77 442.19 492.52 434.54 505.62 420.77 497.06 415.69 491.59 418.47 481.34 411.3 459.78 416.65 457.73 415.01 441.69 408.86 435.67 391.97 436.95 387.19 444.08 373.4 439.9 363.31 440.53 355.9 437.65 349.34 437.04 341.93 442.01 333.54 441.05 326.36 442.87 320.89 440.84 310.27 440.44 300.94 429.93 287.09 431.41 281.91 441.89 273.82 442.14 267.2 448.83 257.4 457.36 255.91 463.5 251.2 459.24 244.8 460.55 239.15 459.66 231.35 463.27 223.38 473.68 219.84 484.3 208.91 490.43 209.84 492.76 216.27 501.19 213.11 503.94 209.91 500.83 203.4 498.6 193.61 487.37 176.03 483.34 156.01 480.93 149.11 473.8 136.55 472.69 127.95 484.13 107.37 479.96 104.2 446.02 90.37 445.93 85.4 441.69 78.79 440.46 64.99 444.03 57.7 439.17 53.49 434.6 45.16 437.05 36.93 436.15 29.3 447.27 27.63 453.43 24.02 465.03 24.19 466.75 17.26 493.38 3.84 505.4 1 523.14 8.75 523.08 17.5 Z" id="21110640"/>
<path d="M 440.84 310.27 432.1 314.7 429.17 311.54 419.67 309.67 416.32 311.13 402.39 311.48 400.18 299.13 384.2 299.61 380.88 302.75 380.35 287.52 375 281.27 352.28 284.09 343.63 282.07 330.45 286.13 319.02 288.18 296.39 300.32 284.16 304.46 269.51 305.19 265.38 312.84 257.24 320.21 243.23 323.22 225.69 320.25 198.3 307.31 178.35 316.49 169.13 304.43 163.39 293.65 128.31 265.74 124.63 255.81 116.02 254.06 107.23 249.99 101.84 244.53 115.94 238.26 124.17 228.45 124.18 221.15 113.36 206.62 111.09 194.5 115.07 187.05 115.27 181.13 120.32 166.11 131.5 154.05 135.34 147.33 141.4 142.91 149.81 121.74 155.06 112.88 159.33 111.5 180.88 111.23 197.17 115.28 202.73 113.79 215.64 114.82 222.31 120.36 238.26 119.72 244.95 113.83 256.69 129.31 268.14 146.43 273.01 147.06 275.92 142.46 306.46 109.66 318.82 95.64 319.46 91.33 335.21 80.79 337.93 74.99 343.32 73.34 349.75 66.4 350.06 61.85 359.92 48.2 374.56 38.33 390.6 30.72 400.77 32.86 409.44 32.52 421.84 28.87 436.15 29.3 437.05 36.93 434.6 45.16 439.17 53.49 444.03 57.7 440.46 64.99 441.69 78.79 445.93 85.4 446.02 90.37 479.96 104.2 484.13 107.37 472.69 127.95 473.8 136.55 480.93 149.11 483.34 156.01 487.37 176.03 498.6 193.61 500.83 203.4 503.94 209.91 501.19 213.11 492.76 216.27 490.43 209.84 484.3 208.91 473.68 219.84 463.27 223.38 459.66 231.35 460.55 239.15 459.24 244.8 463.5 251.2 457.36 255.91 448.83 257.4 442.14 267.2 441.89 273.82 431.41 281.91 429.93 287.09 440.44 300.94 440.84 310.27 Z" id="21110670"/>
<path d="M 507.93 457.9 496.45 481.76 499.9 487.21 486.96 493.62 484.86 497.75 486.81 506.85 482.34 518.21 479.84 528.27 470.19 525.19 466.73 540.68 464.61 539.45 459.49 548.26 449.82 555.9 431.37 556.98 432.62 549.07 416.13 562.32 409.38 572.24 403.87 571.79 391.25 587.29 367.74 570.62 360.14 566.66 356.32 559.03 347.71 553.3 339.1 553.56 325.37 557.8 316.61 557.64 308.66 552.86 296.16 550.48 288.65 545.8 270.5 542.2 262.57 534.62 250.97 525.76 245.31 519.51 242.27 509.08 237.97 505.29 230.7 498.81 252.24 492.37 262.82 491.28 274.03 494.6 281.8 492.22 282.66 497.17 278.11 509.8 297.91 513.63 306.75 507.96 318.44 506.99 318.74 502.98 325.23 499.79 346.08 493.92 355.55 497.2 359.27 502.53 360.55 516.4 392.69 516.33 395.98 513.27 396.1 497.24 405.87 496.99 410.93 492.03 421.34 472.28 428.84 462.26 440.18 453.49 445.31 454.38 455.01 442.37 465.29 437.75 467.17 427.22 460.66 422.28 457.73 415.01 459.78 416.65 481.34 411.3 491.59 418.47 497.06 415.69 505.62 420.77 492.52 434.54 489.77 442.19 491.02 450.67 498.24 455.16 507.93 457.9 Z" id="21110690"/>
<path d="M 557.81 857.03 549.88 849 539.66 830.85 549.89 793.43 555.01 786.2 548.97 780.27 541.64 776.52 544.72 772.18 539.15 760.43 535.66 760.42 529.2 752.03 520.66 747.7 516.1 741.7 513.27 731.93 514.76 722.56 519.23 709.69 523.92 706.57 507.62 698.12 500.03 690.1 494.43 683.02 495.84 674.43 504.04 674.92 511.56 671.21 524.86 672.36 532.81 686.35 543.68 680.62 553.86 678.67 557.72 673.47 563.92 672.49 569.76 665.8 572.55 653.55 579.6 645.39 587.74 646.99 592.23 644.72 595.28 633.01 594.92 623.51 600.76 611.99 613.23 601.33 633.2 595.83 641.42 586.08 655.07 587.99 659.55 590.47 675.31 588.46 683.93 573.5 687.17 572.93 695.26 559.64 699.92 556.26 707.46 545.6 709.69 520.42 717.46 512.9 721.26 507.22 719.19 498.78 720.25 494.6 726.79 490.66 731.39 481.39 736.1 479.44 741.2 473.58 746.84 470.77 752 464.89 764.14 473.52 765.73 477.19 782 489.62 795.73 492.07 799 493.99 791.13 516.67 793.2 529.98 781.69 544.72 780.47 549.55 773.75 557.98 778.38 570.28 775.42 575.74 769.97 579.09 764.71 588.67 752.01 603.12 746.93 606.71 744.78 614.35 737.81 617.88 735.98 626.49 729.33 622.64 721.38 623.69 714.69 628.99 709.44 635.63 701.94 636.38 698.55 651.93 695.32 655.5 696.23 663.86 698.97 672.73 693.78 682.6 679.48 699.19 673.95 710.76 664.33 713.76 648.91 714.56 640.46 716.63 632.72 724.57 627.63 722.47 604.52 740.61 599.67 755.67 600.7 762.83 612.35 794.08 618.33 813.72 618.59 826.11 617.07 827.35 614.65 829.29 604.7 828.13 604.27 828.42 600.22 824.65 596.57 829.4 595.09 836.89 567.54 844.55 561.36 850.21 557.81 857.03 Z" id="21110730"/>
<path d="M 474.32 813.74 470.35 821.41 465.38 826.92 461 826.33 455.34 830.18 440.08 819.92 434.47 820.9 432.62 812.95 440.37 801.36 444.28 801.62 447.24 797.04 444.66 791.26 449.39 788.86 450.95 783.93 444.5 775.81 449.17 766.46 456.48 771.46 461.67 764.19 471.31 759.14 482.04 769.96 486.98 771.76 486.87 782.38 490.04 785.71 478.73 797.64 478.41 804.72 474.32 813.74 Z" id="21110510"/>
<path d="M 539.66 830.85 549.88 849 557.81 857.03 556.62 863.86 553.5 866.11 547.4 866.15 544.79 869.52 538.26 866.9 532.38 861.01 525.03 872 515.74 865.68 504.46 859.81 494.85 856.73 496.2 848.95 487.09 844.14 477.72 844.07 473.14 847.18 465.44 836.13 455.34 830.18 461 826.33 465.38 826.92 470.35 821.41 474.32 813.74 497.82 824.48 539.66 830.85 Z" id="21110520"/>
<path d="M 494.05 719.23 490.44 726.06 484.64 750.56 478.92 751.95 471.31 759.14 461.67 764.19 456.48 771.46 449.17 766.46 444.5 775.81 438.14 775.99 436.85 771.65 440.94 765.62 423.22 762.4 413.54 762.38 406.97 759.47 396.81 769.72 383.04 759.63 389.22 748.2 388.63 738.71 390.55 733.45 391.18 721.82 414.21 728.56 447.21 730.56 461.12 722.7 472.52 718.52 476.17 722.75 488.62 719.34 494.05 719.23 Z" id="21110570"/>
<path d="M 495.84 674.43 494.43 683.02 500.03 690.1 499.24 693.67 500.95 705.7 494.05 719.23 488.62 719.34 476.17 722.75 472.52 718.52 461.12 722.7 447.21 730.56 414.21 728.56 391.18 721.82 392.15 710.2 397.07 694.37 393.42 677.51 393.03 673.13 396.41 660.02 396.42 652.56 394.12 646.12 413.08 646.25 413.34 641.16 435.33 642.42 435.67 646.33 451.96 645.34 469.01 641.38 471.42 637.95 469.28 631.6 485.6 637.35 501.08 650.09 495.91 664.99 495.84 674.43 Z" id="21110580"/>
<path d="M 444.5 775.81 450.95 783.93 449.39 788.86 444.66 791.26 447.24 797.04 444.28 801.62 440.37 801.36 432.62 812.95 434.47 820.9 431.61 821.12 418.62 811.24 397.35 805.82 390.45 801.81 378.73 807.99 371.74 806.38 366.49 800.8 363.73 805.18 358.02 806.68 362.31 798.98 372.94 790.5 380.19 772.24 381.78 764.39 383.04 759.63 396.81 769.72 406.97 759.47 413.54 762.38 423.22 762.4 440.94 765.62 436.85 771.65 438.14 775.99 444.5 775.81 Z" id="21110600"/>
<path d="M 391.25 587.29 387.02 592.36 384.88 602.45 386.65 626.1 394.12 646.12 396.42 652.56 396.41 660.02 393.03 673.13 393.42 677.51 380.1 674.97 381.72 667.03 367.11 664.15 356.56 660.05 347.6 652.92 346.75 629.34 327.22 631.03 314.58 624.73 314.81 621.4 304.9 613.54 296.72 614.69 293.88 621.31 285.93 627.83 282.54 627.86 268.47 623.06 259.47 621.29 247.29 613.82 232.6 611.64 200.51 615.33 186.27 622.66 187.98 616.71 191.8 612.48 193.2 602.36 186.77 596.75 190.82 589.31 192.35 579.12 196.6 564.19 204.33 557.72 207.78 561.52 213.27 553.9 210.42 547.44 214.07 543.12 214.88 531.83 218.72 523.81 226.84 517.3 226.88 514.33 237.97 505.29 242.27 509.08 245.31 519.51 250.97 525.76 262.57 534.62 270.5 542.2 288.65 545.8 296.16 550.48 308.66 552.86 316.61 557.64 325.37 557.8 339.1 553.56 347.71 553.3 356.32 559.03 360.14 566.66 367.74 570.62 391.25 587.29 Z" id="21110610"/>
<path d="M 440.84 310.27 442.87 320.89 441.05 326.36 442.01 333.54 437.04 341.93 437.65 349.34 440.53 355.9 439.9 363.31 444.08 373.4 436.95 387.19 435.67 391.97 441.69 408.86 436.72 415.45 433.88 423.26 424.75 429.41 418.86 445.64 410.35 440.23 406.74 439.9 406.28 418.55 374.49 413.58 370.12 407.76 368.03 400 357.69 389.23 341.14 375.68 323.78 376.5 303.46 370.41 295.89 371.06 289.11 373.77 268.42 379.4 261.22 387.41 247.53 395.09 237.5 395.26 230.87 397.41 219.29 396.53 195.97 403.72 188.94 400.33 191.92 392.44 192.38 384.02 185.3 359 180.07 351.34 177.89 338.2 175.49 332.32 178.35 316.49 198.3 307.31 225.69 320.25 243.23 323.22 257.24 320.21 265.38 312.84 269.51 305.19 284.16 304.46 296.39 300.32 319.02 288.18 330.45 286.13 343.63 282.07 352.28 284.09 375 281.27 380.35 287.52 380.88 302.75 384.2 299.61 400.18 299.13 402.39 311.48 416.32 311.13 419.67 309.67 429.17 311.54 432.1 314.7 440.84 310.27 Z" id="21110680"/>
<path d="M 441.69 408.86 457.73 415.01 460.66 422.28 467.17 427.22 465.29 437.75 455.01 442.37 445.31 454.38 440.18 453.49 428.84 462.26 421.34 472.28 410.93 492.03 405.87 496.99 396.1 497.24 395.98 513.27 392.69 516.33 360.55 516.4 359.27 502.53 355.55 497.2 346.08 493.92 325.23 499.79 318.74 502.98 318.44 506.99 306.75 507.96 297.91 513.63 278.11 509.8 282.66 497.17 281.8 492.22 274.03 494.6 262.82 491.28 252.24 492.37 230.7 498.81 220.26 489.95 219.55 480.02 217.67 475.49 218.12 459.47 225.37 447.3 227.22 441.23 217.66 436.05 195.97 403.72 219.29 396.53 230.87 397.41 237.5 395.26 247.53 395.09 261.22 387.41 268.42 379.4 289.11 373.77 295.89 371.06 303.46 370.41 323.78 376.5 341.14 375.68 357.69 389.23 368.03 400 370.12 407.76 374.49 413.58 406.28 418.55 406.74 439.9 410.35 440.23 418.86 445.64 424.75 429.41 433.88 423.26 436.72 415.45 441.69 408.86 Z" id="21110700"/>
<path d="M 195.97 403.72 217.66 436.05 227.22 441.23 225.37 447.3 218.12 459.47 217.67 475.49 219.55 480.02 220.26 489.95 230.7 498.81 237.97 505.29 226.88 514.33 226.84 517.3 218.72 523.81 214.88 531.83 214.07 543.12 210.42 547.44 213.27 553.9 207.78 561.52 204.33 557.72 196.6 564.19 192.35 579.12 190.82 589.31 186.77 596.75 193.2 602.36 191.8 612.48 187.98 616.71 186.27 622.66 184.79 631.02 171.84 659.08 172.3 666.83 178.72 686.42 177.34 689.46 182.71 696.98 169.97 704.32 159.23 708.97 156.72 713.35 151.08 710.03 146.78 713.2 121.81 713.82 97.88 709.28 89.76 704.2 84.53 696.23 70.67 693.41 68.25 694.88 63.45 691.64 65.57 687.51 61.06 672.99 79.41 652.74 83.86 626.41 88.57 618.9 99.36 612.83 103.37 606.94 106.19 595.81 102.06 584.69 103.79 576.93 99.63 570.81 99.56 560.68 93.21 557.72 88.91 552.53 73.74 547.65 69.71 542.07 69.29 536.11 76.14 530.02 70.87 518.75 67.23 504.96 70.73 495.39 83.32 477.49 87.49 475.8 90.07 470.2 84.09 459.28 76.68 453.57 67.62 452.96 54.4 449.29 43.84 451.12 41.36 446.4 31.2 437.61 26.68 435.3 17.83 436.61 10.77 432.38 7.2 428.01 1 425.22 3.82 415.87 10.02 407.97 17.4 405.95 19.61 402.97 25.76 403.94 38.78 398.54 42.91 392.93 45.19 378.09 43.94 369.57 45.4 365.25 45.34 354.57 49.42 348.15 50.29 340.8 59.83 331.79 68.99 326.13 71.77 320.2 71.94 312.67 78.85 299.91 81.19 291.08 76.91 283.87 78.51 278.98 84.81 273.98 85.12 265.31 94.45 257.74 101.84 244.53 107.23 249.99 116.02 254.06 124.63 255.81 128.31 265.74 163.39 293.65 169.13 304.43 178.35 316.49 175.49 332.32 177.89 338.2 180.07 351.34 185.3 359 192.38 384.02 191.92 392.44 188.94 400.33 195.97 403.72 Z" id="21110710"/>
<path d="M 539.66 830.85 497.82 824.48 474.32 813.74 478.41 804.72 478.73 797.64 490.04 785.71 486.87 782.38 486.98 771.76 482.04 769.96 471.31 759.14 478.92 751.95 484.64 750.56 490.44 726.06 494.05 719.23 500.95 705.7 499.24 693.67 500.03 690.1 507.62 698.12 523.92 706.57 519.23 709.69 514.76 722.56 513.27 731.93 516.1 741.7 520.66 747.7 529.2 752.03 535.66 760.42 539.15 760.43 544.72 772.18 541.64 776.52 548.97 780.27 555.01 786.2 549.89 793.43 539.66 830.85 Z" id="21110720"/>
<path d="M 393.42 677.51 397.07 694.37 392.15 710.2 391.18 721.82 390.55 733.45 388.63 738.71 389.22 748.2 383.04 759.63 381.78 764.39 369.12 762.35 365.2 764.33 354.41 753.14 351.6 752.17 342.68 742.99 338.78 752.02 329.37 743.97 325.7 743.87 320.67 736.64 309.36 725.67 303.51 727.1 296.28 733.78 280.69 737.09 274.97 736.8 264.03 740.05 261.06 739 241.65 741.14 231.05 739.44 219.96 735.92 201.12 739.42 194.96 741.49 193.09 732.52 187.78 704.46 182.71 696.98 177.34 689.46 178.72 686.42 172.3 666.83 171.84 659.08 184.79 631.02 186.27 622.66 200.51 615.33 232.6 611.64 247.29 613.82 259.47 621.29 268.47 623.06 282.54 627.86 285.93 627.83 293.88 621.31 296.72 614.69 304.9 613.54 314.81 621.4 314.58 624.73 327.22 631.03 346.75 629.34 347.6 652.92 356.56 660.05 367.11 664.15 381.72 667.03 380.1 674.97 393.42 677.51 Z" id="21110740"/>
</g>
</svg>