<?xml version="1.0"?>
<svg xmlns="http://www.w3.org/2000/svg" version="1.2" baseProfile="tiny" width="800" height="1050" viewBox="0 0 800 1050" stroke-linecap="round" stroke-linejoin="round">
<g id="dong">
<path d="M 367.03 696.6 376.87 699.84 385.22 701.1 393.06 701.57 397.16 703.12 404.31 703.81 409.05 705.33 419.05 709.65 416.45 714.26 418.65 715.06 419.12 712.07 420.92 710.58 424.91 710.5 424.74 712.73 426.08 720.52 423.95 723.29 419.05 726.41 409.84 730.06 406.16 730.98 396.78 731.59 385.76 731.15 371.28 727.9 361.68 723.21 352.98 718.46 343.84 714.76 336.14 712.62 329.42 711.88 330.5 705.29 333.55 702.6 338.41 700.53 341.42 702.17 352.07 701.53 358.98 697.43 365.73 696.28 367.03 696.6 Z M 401.47 277.91 406.65 281.83 413.17 285.42 417.05 288.42 427.58 300.83 433.27 307.17 435.93 310.99 438.82 317.13 438.04 319.52 435.78 321.98 426.11 335.24 424.48 338.4 423.17 345.28 422.64 351.55 424.47 374.02 425.99 384.81 428.27 393.16 432.05 400.17 436.16 406.51 438.45 408.85 445.01 420.44 456.72 422.57 475.87 437.29 476.86 444.75 477.83 452.36 478.41 461.85 478.25 467.47 476.95 482.64 474.15 490.79 478.1 492.06 477.3 494.54 473.34 493.4 472.45 496.13 468.93 495.08 465.54 497.71 465.21 493.81 461.79 493.04 459.61 496.05 457.62 495.38 454.68 496.35 453.74 493.87 455.3 489.08 451.71 486.91 449.95 490.49 449.6 496.25 451.95 502.22 450.21 505.66 449.2 514.75 444.79 525.87 440.84 533.15 432.5 542.53 435.15 543.16 435.19 545.57 430.96 619.55 429.97 625.42 428.36 627.55 424.29 630.87 424.94 632.9 421.72 640.99 419.04 644.49 416.04 652.65 416.84 655.1 416.57 659.83 419.65 663.51 418.51 665.48 414.61 664.22 406.35 664.5 401.8 664.06 387.63 661.53 384.92 662.24 376.75 660.59 371.11 660.06 367.66 657.82 366.45 655.84 369.86 649.52 372.5 646.53 375.31 646.36 375.36 649.33 378.39 651.32 378.24 643.4 375.23 640.71 376.05 635.22 372.35 628.21 372.72 641.95 363.99 650.11 342.31 650.53 340.9 650.81 316.8 651.28 316.1 651.13 267.06 652.1 267.57 658.8 262.51 659.12 262.95 651.93 257.78 651.79 257.36 649.15 254.3 642.35 254.19 636.77 249.87 630.41 239.16 630.8 212.41 605.53 212.28 601.1 202.94 592.21 202.67 592.99 199.25 595.3 198.55 597.95 198.4 596.75 199.66 594.02 202.1 592.5 203.34 590.31 208.05 575.32 213.23 572.77 219.19 572.13 236.35 571.04 239.46 571.87 244.45 574.41 247.47 574.38 250.95 572.12 255.33 567.36 257.84 566.64 257.83 564.43 270.9 556.39 269.62 555.08 272.47 551.74 275.71 542.98 275.9 536.56 274.49 531.59 274.69 526.27 270.11 520.45 264.57 517.79 259.14 517.99 255.65 513.85 255.3 511.32 253.09 508.12 252.82 503.77 250.04 501.88 251.48 497.93 255.51 494.26 254.86 491.77 257.49 484.97 253.13 478.37 250.89 476.86 246.65 472.24 244.85 466.73 244.42 461.41 239.02 456.59 235.61 457.9 228.21 464.01 225.77 463.62 219.53 464.41 217.54 462.65 217.02 458.73 212.12 455.41 211.35 454.15 206.77 452.07 202.44 452.78 194.12 449.27 187.13 447.01 179.61 446.94 178.19 446.41 174.62 441.76 168.25 435.76 163.32 428.91 158.97 426.57 151.18 419.83 150 418.24 151.15 414.18 149.23 407.06 146.92 406.11 140.35 408.12 131.98 408.41 133.03 400.91 131.21 391.03 129.72 387.93 127.65 387.59 125.65 382.9 120.65 377.04 116.55 368.97 112.29 366.48 110.2 362.8 105.87 361.21 104.14 358.57 105.15 350.27 101.7 345 104.53 339.18 113.35 337.1 115.21 339.32 118.33 340.76 122.85 339.97 125.47 340.77 129.37 338.65 131.3 334.78 134.55 333.84 136.92 332 143.44 330.51 147.9 334.15 153.31 336.62 163.13 332.83 166.23 333.44 169.37 335.14 178.18 331.04 183.6 333.57 184.89 336.7 187.21 338.09 189.77 337.07 193.5 339.5 199.68 342.41 202.66 347.37 206.98 346.85 212.63 349.31 218.3 349.47 221.52 345.28 226.76 343.35 232.79 344.08 239.97 342.04 240.26 340.66 243.79 337.89 247.19 334.06 251.26 333.42 263.01 335.24 266.2 337 271.11 338.44 273.18 336.38 275.26 330.31 274.52 321.37 275.99 318.16 281.23 314.97 279.56 313.05 282.14 310.15 291.96 306.63 297.91 307.45 302.07 302.86 309.54 303.37 311.81 301.9 316.67 300.22 320.98 300 325.12 295.49 328.14 294.7 330.91 296.01 335.58 296.43 342.31 295.49 346.67 297.54 354.47 296.11 357.35 299.78 362.2 301.51 364.43 304.32 365.72 303.91 368.82 306.96 370.32 310.21 371.07 317.17 374.01 317.47 373.33 320.64 368.69 321.81 365.29 325.49 362.57 333.72 358.47 333.97 355.83 332.8 352.14 329.57 349.85 330.56 347.91 333.91 347.93 336.23 352.64 343.2 370.54 368.12 372.98 366.35 374.99 367.59 377.63 365.7 379.81 367.24 383.03 364.94 384.32 366.74 387.65 364.38 380.72 354.78 380.06 338.51 378.66 334.62 382.5 330.91 385.84 331.2 388.11 329.95 395.22 328.9 396.14 330.32 398.92 329.29 403.55 329.27 402.73 324.46 404.08 320.21 400.96 319.01 397.58 320.15 394.39 317.67 391.05 309.3 384.4 304.65 383.87 300.83 385.44 296.42 389.31 292.21 386.89 290.42 387.79 286.48 385.57 284.4 383.47 284.11 378.31 281.18 376.25 279 371.19 276.69 374.91 268.81 383.48 272.91 399.04 279.28 401.47 277.91 Z" fill-rule="evenodd" id="21120560"/>
<path d="M 27.61 939.48 28.93 940.28 38.31 938.33 38.96 940.35 37.24 942.93 44.07 941.66 45.88 943.02 49.29 948.4 51.02 950.04 53.39 959.06 50.77 959.03 44.72 961.77 41.57 958.95 38.2 959.8 37.78 953.77 35.8 951.44 35.75 946.68 27.75 949.02 25.75 948.52 23.86 949.95 22.73 954.1 20.5 955.88 15.82 955.25 15.07 948.31 16.9 942.93 19.06 940.35 24.85 937.61 27.61 939.48 Z M 5.57 931.33 8.04 934.71 8.11 936.32 5.4 938.76 2.28 936.99 1 933.81 3.41 931.22 5.57 931.33 Z M 263.02 769.16 260.3 766.2 263.24 764.99 264.94 767.49 263.02 769.16 Z M 104.64 736.08 105.95 736.96 107.2 740.82 105.94 742.19 101.8 741.14 100.37 737.05 104.64 736.08 Z M 98.07 709.51 97.16 711.87 97.61 715.96 95.7 717.35 93.39 711.92 94.63 709.51 98.07 709.51 Z M 169.17 677.31 168.71 654.67 192.9 654.18 192.84 648.14 203.18 647.93 203.04 642.07 213.44 641.86 213.4 640.24 219.87 640.22 219.94 632.29 227.38 624.34 236.92 633.3 242.22 636.32 243.85 634.81 248.78 636.63 249.92 638.96 249.69 648.05 250.28 650.53 252.87 652.66 253.44 657.35 250.93 657.67 251.27 675.77 249.91 675.83 250.14 686.83 251.04 686.89 251.69 718.96 246.8 721.43 245.75 723.1 247.81 727.05 251.36 728.02 252.04 731.68 251.61 738.48 249.77 738.86 245.15 743.14 243.53 748.31 243.56 751.36 244.77 753.58 243.18 757.25 244.01 759.67 246.22 760.48 246.44 763.96 248.56 764.44 247.58 767.05 250.9 769.5 261.98 776.14 265.06 774.23 270.12 773.52 275.23 773.91 280.06 769.2 284.95 767.03 289.18 763.77 289.37 758.92 288.26 757.32 286.93 750.32 287.57 744.33 291.19 742 294.99 738.46 290.43 733.77 285.79 731.85 280.32 730.87 275.29 731.52 271.85 730.26 271.15 727.23 269.75 726.5 269.14 721.74 266.41 720.01 262.76 719.3 261.22 720.44 257.08 718.54 256.42 714.68 258.28 701.35 257.09 691.25 258.91 687.33 262.98 687.26 266.73 688.86 270.44 695.14 273.05 701.08 272.69 704.07 275.6 709.05 283.85 710.52 285.58 710.06 292.45 712.62 294.42 711.83 300.28 713.29 304.44 710.85 309.45 710.19 312.54 710.57 315.13 709.39 319.68 710.89 319.79 715.1 323.44 719.41 324.84 723.49 327.84 725.18 330.04 728.51 332.43 730.47 329.42 732.99 326.46 732.32 322.71 733.11 318.8 736.11 312.88 735.93 308.37 737.45 301.92 738.89 295.82 741.95 290.65 747.16 288.51 750.53 289.5 757.14 291.27 760.63 291.43 764.22 295.67 770.13 297.58 771.31 298.26 774 300.57 778.12 303.33 781.26 304.46 784.91 304.51 796.64 303.95 800.28 304.55 803.18 304.27 809.86 306.25 814.43 305.27 815.39 305.2 819.48 308.57 823.68 306.29 826.96 307.08 828.57 304.26 836.01 301.23 839.11 302.26 843.05 299.96 845.22 299.06 847.79 301.12 851.52 299.95 852.88 300.25 858.4 296.62 861.19 294.88 860.8 292.64 863.46 291.06 863.38 287.19 865.41 281.97 871.58 281.17 874.63 282.77 878.45 283.16 883.36 281.11 890.47 279.21 891.52 277.85 895 277.47 899.45 272.44 904.69 270.75 908.69 271.3 912.11 269.75 918.34 268.22 920.56 266.8 925.99 258.65 929.78 254.9 934.48 254.65 940.85 255.94 943.88 254.23 944.72 253.08 949 253.23 954.24 254.26 956.09 257.3 957.34 260.71 960.79 266 963.98 269.13 964 273.96 968.66 276.24 971.86 276.75 978.21 275.7 980.28 273.61 980.76 273.2 983 270.06 987.23 270.95 988.86 269.18 992.24 269.63 993.89 267.18 997.11 266.5 999.35 264.27 1000.61 265.94 1004.04 269.23 1006.45 270.41 1011.19 274.67 1011.47 274.6 1014.23 272.31 1015.14 269.98 1013.82 268.63 1011.38 264.85 1012.77 263.92 1016.99 261.36 1018.96 259.88 1018.33 255.36 1022.59 256.11 1026.87 255.47 1031.54 250.91 1032.27 247.75 1031.38 246.87 1034.49 241.6 1039.57 238.22 1044.21 237.96 1047.27 234.59 1049 231.85 1048.8 230.21 1044.59 233.22 1037.44 235.2 1035.65 236.13 1032.68 239.5 1025.8 239.68 1023.76 237.53 1020.87 233.04 1021.69 232.38 1018.76 228.66 1018.02 226.12 1019.85 223.6 1020.11 217.01 1024.17 214.26 1023.64 211.52 1024.7 210.52 1022.65 211.75 1018.98 211.32 1013.26 215.12 1010.29 214.78 1008.31 211.56 1004.46 212.54 1002.18 212.16 998.06 210.43 995.6 207.72 996.05 203.23 994.06 200.9 991.36 200.86 988.4 198.24 987.73 197.8 983.48 200.93 984.38 207.34 983.68 210.51 982.18 214.85 982.18 216.24 980.03 216.81 974.07 215.85 971.61 211.92 970.12 207.98 965.45 203.88 963.77 204.74 962.29 207.71 961.96 222.34 957.47 226 957.65 228.37 951.61 228.8 948.63 228.19 944.34 225.97 942.02 222.31 940.93 218.84 935.21 214.69 931.15 212.91 931.02 210.13 933.66 203.67 932.14 200.53 927 195.17 924.47 187.24 925.62 180.91 920.54 174.34 922.86 172.1 921.94 171.46 919.34 171.39 911.55 170.36 910.69 161.55 913.21 158.94 912.83 154.48 913.74 153.05 911.53 155.92 906.92 150.25 903.79 150.3 901.59 153.86 901.54 155.2 899.59 158.78 898.19 164.53 901.24 168.27 902.2 169.97 904.45 171.76 903.28 178.84 903.19 184.16 896.82 185.36 892.82 184.33 889.01 186.08 887.98 186.13 884.66 184.52 883.9 183.62 880.43 179.69 878.09 169.04 878.72 164.35 873.74 160.04 871.68 158.86 869.79 158.06 865.15 159.57 860.59 165.11 861.96 169.96 862.4 173.39 857.28 175.86 847.06 176.05 840.79 174.83 835.02 172.18 830.52 168.59 826.26 162.93 821.5 158.57 821.03 157.74 817.81 153.7 814.53 153.25 811.2 153.78 807.6 152 804.59 148.23 802.51 139.98 801.34 135.31 803.58 128.67 802.64 123.05 797.18 121.78 793.11 123.65 786.59 121.58 781.25 118.5 779.66 100.34 779.96 99.71 775.7 100.12 773.05 99.78 765.32 99.45 745.61 107.56 742.2 111.03 741.46 109.31 731.75 147.5 723.08 241.53 702.26 241.01 675.88 169.17 677.31 Z" fill-rule="evenodd" id="21120580"/>
<path d="M 533.14 432.23 533 436.94 541.75 442.02 544.79 450.25 548.43 457.58 551.56 461.74 557.09 467.37 564.41 474.05 570.25 480.73 573.39 486.11 581.68 495.83 587.44 512.59 591.12 525.53 592.64 533.69 590.11 533.98 585.19 532.27 583.89 533.03 582.65 539.34 584.56 540.07 585.08 542.99 584.18 547.38 581.99 550.2 578.6 549.35 576.9 547.42 574.29 548.64 574.03 551.56 575.37 554.41 577.73 555.34 576.71 559.59 576.69 566.5 574.25 568.84 574.61 573.36 575.86 573.45 579.27 585.76 576.99 591.71 577.82 597.55 576.58 606.21 572.44 607.46 564.42 607.46 557.55 607.99 552.97 608.39 534.2 616.54 520.47 623.3 518.89 622.11 516.81 623.48 515.16 622.05 478.54 622.75 460.12 623.25 464.25 608.58 465.09 607.77 469 609.4 468.53 598.88 466.88 598.46 467.63 593.33 469.53 585.11 473.42 560.99 474.99 545.38 473.06 537.6 473.53 529.37 476.64 522.79 478.38 520.31 483.82 515.72 487.18 510.83 489.98 501.69 472.45 496.13 473.34 493.4 477.3 494.54 478.1 492.06 474.15 490.79 476.95 482.64 478.25 467.47 478.41 461.85 477.83 452.36 476.86 444.75 486.8 446.47 495.63 441.43 498.77 439.03 507.27 433.6 511.15 437.06 513.61 436.28 521.38 432.27 525.32 431.46 528.87 432.28 533.14 432.23 Z" id="21120590"/>
<path d="M 513.24 729.81 515.99 731.2 512.27 732.88 511.4 736.37 513.48 737.47 528.4 734.88 532.15 735.6 537.28 737.67 540.16 740.66 540.91 737.38 544.01 738.74 542.88 743.56 539 751.6 537.39 758.55 533.61 760.17 529.83 756.91 526.49 755.67 523.35 756.25 519.06 754.34 515.4 753.63 503.96 750.35 501.35 747.79 497.62 746.07 497.11 743.76 493.74 740.07 493.19 735.52 495.44 733.98 500.41 733.39 503.59 731.84 513.24 729.81 Z M 447.65 739.22 448.91 738.55 447.3 733.96 444.35 731.84 445.8 727.62 449.53 728.57 452.4 730.61 463.08 734.53 466.03 734.36 469.19 737.59 470.89 742.2 472.97 743.35 482.11 745.29 484.49 744.76 488.26 746.75 492.47 746.26 496.16 750.05 501.95 753.68 505.52 756.94 514.51 759.88 517.89 761.97 523.52 763.68 529.49 763.45 537.59 767.72 543.38 765.44 543.07 767.99 538.78 775.43 536.13 775.87 529.25 772.72 520.69 767.33 517.08 765.6 506.69 763.16 492.12 761.42 485.57 760.23 478.37 759.6 469.88 757.36 463.32 756.19 458.73 753.69 451.23 752.56 446.63 751.43 437.52 747.3 429.74 742.17 427.73 739.53 426.57 732.96 427.15 730.18 428.85 727.89 432.98 725.22 436.84 727 439.18 731.71 441.58 735.12 447.65 739.22 Z M 525.8 672.6 524.06 674.85 514.67 678.35 510.05 682.23 504.49 684.87 496.73 690.83 490.98 696.33 486.47 698.51 484.89 696.51 490.86 694.4 493.51 691.05 499.74 687 501.02 684.21 503.58 683.81 507.57 680.81 510.9 677.13 513.05 676.01 519.44 674.57 524.35 672.25 525.8 672.6 Z M 549.45 669.18 551.79 675.35 550.02 680.14 547.26 680.45 546.1 677.83 543.87 677.2 534.84 677.08 530.82 677.77 520.35 681.12 513.76 684.2 503.29 690.63 495.47 697.34 493.6 698.43 492.29 702.1 488.82 704.96 486.01 705.31 484.82 703.62 486.52 701.58 490.83 698.93 495.58 694.36 504.23 687.7 509.54 684.74 512.9 682.04 519.23 679.22 525.23 677.31 531.6 676.36 536.04 674.41 542.48 673.71 549.35 674.07 548.72 671.49 543.92 670.93 536.45 671.28 528.16 673.53 526.43 669.99 531.23 670.27 538.72 668.88 549.45 669.18 Z M 543.73 661.94 545.74 662.08 546.53 666.66 543.69 667.81 541.27 665.92 543.46 664.14 543.73 661.94 Z M 541.7 620.97 540.7 623.92 536.04 622.53 532.84 624.91 531.35 623.14 536.29 621.19 541.7 620.97 Z M 557.55 607.99 556.14 609.72 543.69 616.43 538.83 616.51 531.8 619.37 528.38 621.22 518.56 628.64 515.41 633.95 515.93 657.83 516.33 662.11 512.27 665.26 457.47 666.39 456.84 634.93 460.12 623.25 478.54 622.75 515.16 622.05 516.81 623.48 518.89 622.11 520.47 623.3 534.2 616.54 552.97 608.39 557.55 607.99 Z" fill-rule="evenodd" id="21120600"/>
<path d="M 799 14.17 797.28 33.75 796.54 48.88 794.3 66.04 790.86 99.09 788.35 110.25 786.14 118.41 783.84 124.16 777.22 134.07 765.59 146.69 762.86 144.35 753.4 151.63 734.64 158.19 725.06 160.24 715.9 165.04 705.46 175.73 698.27 172.3 695.79 169.06 689.88 167.96 683.97 176.18 683.19 176.01 682.04 141.31 677.41 142.85 644.06 161.88 661.43 185.68 657.46 188.33 636.98 207.04 624.45 193.44 623.92 191.46 617.67 187.6 614.83 190.41 614.66 192.16 611.13 201.9 609.33 205.84 606.68 205.3 605.62 207.62 596.43 205.69 597.64 195.96 595.72 195.52 591.46 197.63 590.18 197.15 571.15 194.82 570.7 197.99 567.08 197.14 564.66 200.03 558.87 197.93 555.3 194.19 565.1 186.32 567.52 183.45 572.36 174.84 575.4 165.72 577.22 163.22 578.69 157.44 585.07 144.97 589.56 139.85 594.2 135.58 602.63 124.31 608.16 114.52 613.31 107.69 619.81 96.71 621.49 91.56 621.35 85.39 620.32 80.9 617.29 76.29 613.15 66.01 613.56 63.43 612.79 56.56 613.24 48.87 619.12 48.57 626.63 50.15 627.5 49.16 628.86 49.71 656.91 49.12 691.3 42.04 696.56 41.14 711.87 39.72 714.76 39.13 732.45 33.8 739.43 31.45 750.92 28.37 760.4 23.52 769.81 19.94 785.39 9.72 791.24 4.08 793.7 1 799 14.17 Z" id="21120510"/>
<path d="M 765.59 146.69 759.99 152.77 745.86 167.2 729.59 181.49 706.42 193.74 693.08 204.98 684.07 219.36 683.02 223.02 683.22 303.74 681.19 317.15 676.32 346.47 676.36 348.17 675.91 360.65 675.37 367.07 674.97 382.52 674.99 391.45 675.49 405.81 674.34 420.19 673.56 420.28 664.51 426.83 652.2 443.14 646.14 452.73 644.25 457.64 640.71 464.2 636.83 473.49 634.69 479.44 627.87 483 624.28 485.88 617.45 493.28 613.43 497.06 609.39 503.21 603.83 510.28 602.29 516.02 591.12 525.53 587.44 512.59 581.68 495.83 573.39 486.11 570.25 480.73 564.41 474.05 557.09 467.37 551.56 461.74 548.43 457.58 544.79 450.25 541.75 442.02 533 436.94 533.14 432.23 536.56 424.19 542.84 416.04 545.6 411.21 548.79 403.54 555.61 390.35 556.16 383.47 556.38 374.51 556.97 366.76 556.05 364 553.55 360.97 550.69 355.95 551.6 350.93 549.63 350.44 548.02 345.17 541.96 334.23 539.32 330.22 538.96 326.23 533.3 310.85 531.37 301.15 529.24 292.94 525.8 285.15 526.41 279.17 523.3 274.3 524.15 264.29 525.02 260.09 529.29 246.12 537.55 224.47 540.91 209.29 546.67 201.99 555.3 194.19 558.87 197.93 564.66 200.03 567.08 197.14 570.7 197.99 571.15 194.82 590.18 197.15 591.46 197.63 595.72 195.52 597.64 195.96 596.43 205.69 605.62 207.62 606.68 205.3 609.33 205.84 611.13 201.9 614.66 192.16 614.83 190.41 617.67 187.6 623.92 191.46 624.45 193.44 636.98 207.04 657.46 188.33 661.43 185.68 644.06 161.88 677.41 142.85 682.04 141.31 683.19 176.01 683.97 176.18 689.88 167.96 695.79 169.06 698.27 172.3 705.46 175.73 715.9 165.04 725.06 160.24 734.64 158.19 753.4 151.63 762.86 144.35 765.59 146.69 Z" id="21120520"/>
<path d="M 627.5 49.16 626.63 50.15 619.12 48.57 613.24 48.87 612.79 56.56 613.56 63.43 613.15 66.01 617.29 76.29 620.32 80.9 621.35 85.39 621.49 91.56 619.81 96.71 613.31 107.69 608.16 114.52 602.63 124.31 594.2 135.58 589.56 139.85 585.07 144.97 578.69 157.44 577.22 163.22 575.4 165.72 572.36 174.84 567.52 183.45 565.1 186.32 555.3 194.19 546.67 201.99 540.91 209.29 537.55 224.47 529.29 246.12 525.02 260.09 524.15 264.29 523.3 274.3 526.41 279.17 525.8 285.15 529.24 292.94 531.37 301.15 533.3 310.85 538.96 326.23 539.32 330.22 541.96 334.23 548.02 345.17 549.63 350.44 551.6 350.93 550.69 355.95 553.55 360.97 556.05 364 556.97 366.76 556.38 374.51 556.16 383.47 555.61 390.35 548.79 403.54 545.6 411.21 542.84 416.04 536.56 424.19 533.14 432.23 528.87 432.28 525.32 431.46 521.38 432.27 513.61 436.28 511.15 437.06 507.27 433.6 498.77 439.03 495.63 441.43 486.8 446.47 476.86 444.75 475.87 437.29 475.45 426.41 475.18 411.33 474.4 380.24 474.34 367.93 473.84 344.66 476.67 321.01 478.18 305.63 479.34 270.75 482.46 270.77 484.12 253.71 484.2 247.15 486.25 221.07 486.27 202.52 485.51 196.17 483.49 184.47 483.28 178.96 484.25 165.09 486 154.05 494.75 143.27 505.09 132.35 507.49 131.28 516.68 123.61 524.42 115.32 527.07 111.69 531.19 104.52 531.74 100.9 531.93 88.57 554.04 78.03 562.96 72.84 572.71 64.46 581.54 57.84 588.12 49.59 590.71 47.36 598.66 41.89 613.01 37.1 618.98 41.47 627.5 49.16 Z" id="21120530"/>
<path d="M 505.23 63.54 506.61 66.09 519.94 86.54 525.39 82.62 526.29 85.15 530.67 88.59 531.93 88.57 531.74 100.9 531.19 104.52 527.07 111.69 524.42 115.32 516.68 123.61 507.49 131.28 505.09 132.35 494.75 143.27 486 154.05 484.25 165.09 483.28 178.96 483.49 184.47 485.51 196.17 486.27 202.52 486.25 221.07 484.2 247.15 484.12 253.71 482.46 270.77 479.34 270.75 478.18 305.63 476.67 321.01 473.84 344.66 474.34 367.93 474.4 380.24 475.18 411.33 475.45 426.41 475.87 437.29 456.72 422.57 445.01 420.44 438.45 408.85 436.16 406.51 432.05 400.17 428.27 393.16 425.99 384.81 424.47 374.02 422.64 351.55 423.17 345.28 424.48 338.4 426.11 335.24 435.78 321.98 438.04 319.52 438.82 317.13 435.93 310.99 433.27 307.17 427.58 300.83 417.05 288.42 413.17 285.42 406.65 281.83 401.47 277.91 398.76 272.8 397.69 266.12 397.12 248.57 397.79 242.54 399.13 239.97 402.48 236.71 401.53 231.93 389.15 216.73 384.06 212.45 382.06 208.66 381.23 201.01 382.79 191.14 381.94 188.91 375.76 179.5 370.25 168.17 368.6 161.64 362.01 154.11 363.65 151.07 367.39 147.91 370.96 144 375.5 141.67 376.75 138.99 382.59 130.3 385.14 125.76 387.4 123.7 391.02 118.21 396.02 117.84 400.03 116.38 404.22 111.07 408.43 108.39 408.05 105.2 410.06 102.57 415.01 99.29 420.4 99.52 425.35 97.42 447.4 102.95 452.06 103.62 478.88 94.29 488.64 94.9 496.14 93.29 479.7 74.27 494.97 61.35 505.23 63.54 Z" id="21120550"/>
</g>
</svg>