<?xml version="1.0"?>
<svg xmlns="http://www.w3.org/2000/svg" version="1.2" baseProfile="tiny" width="800" height="589" viewBox="0 0 800 589" stroke-linecap="round" stroke-linejoin="round">
<g id="dong">
<path d="M 439.67 281.06 465.78 352.51 443.19 349.45 435.44 352.55 434.09 361.87 423.66 361.11 424.84 368.68 431.89 375.67 433.32 402.92 423.44 420.23 425.61 430.85 432.5 438.25 439.78 451.73 446.1 470.51 445.91 481.09 441.76 498.89 441.76 510.18 432.72 526.76 441.17 550.37 435.46 582.83 427.47 588 405.87 566.23 389.72 544.38 376.3 520.14 370.03 500.61 383.13 467.38 397.29 453.76 405.4 454.19 410.48 433.47 408.97 412.97 413.34 398.06 409.02 390.56 400.16 389.53 392.01 383.41 383.56 370.92 384.94 367.32 372.13 342.6 357.89 345.95 353.79 338.36 338.25 328.04 341.32 323.1 331.86 312.97 330.45 304.53 337.98 292.96 342.31 292.94 367.51 251.99 378.05 257.93 425.76 264.34 432.33 261.38 439.67 281.06 Z" id="21130560"/>
<path d="M 588.28 293.25 583.82 313.97 584.77 342.67 582.74 366.09 585.74 367.78 542.78 362.69 479.84 354.3 480.04 378.98 474.82 384.8 470.74 417.92 474.42 435.21 478.51 442.3 477.87 454.35 489.27 476.79 505.19 484.19 522.2 510.6 535.63 528.82 524.12 551.26 514.6 556 499.99 550.01 485.33 558.11 470.39 569.15 461.41 578.48 435.46 582.83 441.17 550.37 432.72 526.76 441.76 510.18 441.76 498.89 445.91 481.09 446.1 470.51 439.78 451.73 432.5 438.25 425.61 430.85 423.44 420.23 433.32 402.92 431.89 375.67 424.84 368.68 423.66 361.11 434.09 361.87 435.44 352.55 443.19 349.45 465.78 352.51 439.67 281.06 440.98 280.57 446.95 278.31 485.41 277.48 491.43 288.61 512.11 278.12 515.22 282.83 528.47 289.95 541.14 280.37 566.57 299.37 568.68 291.39 588.28 293.25 Z" id="21130600"/>
<path d="M 797.86 216.44 799 217.84 786.33 259.11 778.33 263.6 779.22 276.22 769.75 290.06 767.02 305.65 759.92 313.28 756.68 328.34 735.28 323.88 728.33 310.65 715.83 309.81 708.85 301.18 707.24 277.74 699.44 274.79 695.15 264.79 684.24 266.52 663.67 259.02 641.85 275.45 623.8 269.94 622.62 264.37 594.99 266.86 592.63 265.45 591.14 258.98 597.71 246.47 613.14 229.31 614.85 224.12 634.2 224.68 637.05 217.7 627.04 209.69 633.41 199.85 635.7 183.87 649.91 163.51 635.06 160.57 631.9 155.51 615.68 113.43 610.51 110.81 613.32 110.31 625.46 110.38 636.84 114.39 668.48 119.81 677.27 123.65 696.43 125.69 714.87 122.37 722.88 126.88 739.57 142.33 760.36 144.65 767.03 153.75 764.24 163.48 784.12 206.69 797.86 216.44 Z" id="21130630"/>
<path d="M 592.63 265.45 578.62 266.46 566.06 236.92 567.08 255.19 551.95 261.48 551.59 270.48 528.82 259.67 533.38 248.65 541.65 239.28 551.75 221.85 552.08 209.88 544.58 204.79 541.5 189.95 540.39 162.07 554.77 115.49 564 97.66 588.63 104.48 610.51 110.81 615.68 113.43 631.9 155.51 635.06 160.57 649.91 163.51 635.7 183.87 633.41 199.85 627.04 209.69 637.05 217.7 634.2 224.68 614.85 224.12 613.14 229.31 597.71 246.47 591.14 258.98 592.63 265.45 Z" id="21130620"/>
<path d="M 388.32 1 404.37 16.79 411.97 28.99 416.31 45.04 425.6 55.96 464.35 70.39 469.99 80.4 482.51 83.66 493.29 81.41 512.19 88.46 504.4 89.78 486.2 107.93 445.01 107.84 426.67 103.51 389 112.03 384.57 113.08 352.78 169.79 313.9 149.47 310.99 146.22 263.85 110.18 247.28 109.18 236.47 114.88 226.54 78.43 287.94 61.66 282.79 45.98 298.65 41.24 314.48 20.35 355.89 1.01 386.12 3.9 388.32 1 Z" id="21130510"/>
<path d="M 200.13 85.26 224.84 78.5 226.54 78.43 236.47 114.88 247.28 109.18 263.85 110.18 310.99 146.22 313.9 149.47 309.93 149.06 282.63 184.2 275.68 200.56 259.94 202.16 256.45 209.86 247.93 206.81 236.31 210.12 230.07 221.18 213.03 213.74 206.01 219.03 190.19 213.63 182.2 222.37 172.33 225.83 169.94 232.02 165.35 224.53 152 219.97 141.89 223.18 122.02 224.53 108.01 215.19 96.29 226.5 67.01 220.24 49.51 214.42 48.53 203.59 43.99 200.24 44.7 188.36 22.79 164.56 4.72 135.79 5.38 125.95 1 111.54 11.08 77.78 27.09 84.46 35.34 93.06 64.54 108.97 83.45 103.67 99.82 105.61 117.06 91.93 136.88 98.97 146.97 108.65 159.36 115.74 168.48 111.52 174.98 115.1 203.11 107.6 200.13 85.26 Z" id="21130520"/>
<path d="M 313.9 149.47 352.78 169.79 315.28 235.9 298.93 269.67 293.67 285.44 289.91 296.33 294.73 309.13 274.71 339.61 259.56 330.62 245.84 329.64 240.54 329.72 247.64 304.97 248.42 294.05 252.69 287.17 261.12 257.73 257.12 257.07 265.37 234.75 275.68 200.56 282.63 184.2 309.93 149.06 313.9 149.47 Z" id="21130530"/>
<path d="M 240.54 329.72 237.44 335.33 236.62 349.94 228.05 349.38 223.17 343.43 222.92 329.88 219.88 323.58 184.52 319.22 181.93 305.75 175.76 289.4 171.51 284.91 178.47 265.51 176.94 251.3 169.94 232.02 172.33 225.83 182.2 222.37 190.19 213.63 206.01 219.03 213.03 213.74 230.07 221.18 236.31 210.12 247.93 206.81 256.45 209.86 259.94 202.16 275.68 200.56 265.37 234.75 257.12 257.07 261.12 257.73 252.69 287.17 248.42 294.05 247.64 304.97 240.54 329.72 Z" id="21130540"/>
<path d="M 588.63 104.48 564 97.66 554.77 115.49 540.39 162.07 541.5 189.95 544.58 204.79 552.08 209.88 551.75 221.85 535.61 236.4 520.36 226 516.7 213.62 506.53 213.96 506.55 221.7 490.44 219.97 470.66 220.96 471.11 174.76 444.58 174.42 433.26 162.76 439.23 156.23 426.67 103.51 445.01 107.84 486.2 107.93 504.4 89.78 512.19 88.46 531.87 82.48 541 83.3 551.28 88.55 565.99 85.8 576.29 88.71 588.63 104.48 Z" id="21130550"/>
<path d="M 567.85 528.16 573.94 540.11 562.18 546.61 553 555.72 544.53 559.42 526.29 559.21 514.6 556 524.12 551.26 535.63 528.82 522.2 510.6 505.19 484.19 489.27 476.79 477.87 454.35 478.51 442.3 474.42 435.21 470.74 417.92 474.82 384.8 480.04 378.98 479.84 354.3 542.78 362.69 585.74 367.78 589.1 370.46 591.05 392.48 583.83 393.45 584.11 406.04 575.55 421.14 567.01 440.82 545.68 469.57 527.65 481.43 531.66 500.4 553.86 530.61 567.85 528.16 Z" id="21130570"/>
<path d="M 551.75 221.85 541.65 239.28 533.38 248.65 528.82 259.67 551.59 270.48 551.95 261.48 567.08 255.19 566.06 236.92 578.62 266.46 592.63 265.45 594.99 266.86 622.62 264.37 623.8 269.94 614.93 275.2 592.56 281.19 588.28 293.25 568.68 291.39 566.57 299.37 541.14 280.37 528.47 289.95 515.22 282.83 512.11 278.12 491.43 288.61 485.41 277.48 446.95 278.31 440.98 280.57 411.02 198.11 405.15 186.61 401.32 164.28 389 112.03 426.67 103.51 439.23 156.23 433.26 162.76 444.58 174.42 471.11 174.76 470.66 220.96 490.44 219.97 506.55 221.7 506.53 213.96 516.7 213.62 520.36 226 535.61 236.4 551.75 221.85 Z" id="21130580"/>
<path d="M 440.98 280.57 439.67 281.06 432.33 261.38 425.76 264.34 378.05 257.93 367.51 251.99 342.31 292.94 337.98 292.96 330.45 304.53 302.87 287.7 293.67 285.44 298.93 269.67 315.28 235.9 352.78 169.79 384.57 113.08 389 112.03 401.32 164.28 405.15 186.61 411.02 198.11 440.98 280.57 Z" id="21130590"/>
</g>
</svg>