<?xml version="1.0"?>
<svg xmlns="http://www.w3.org/2000/svg" version="1.2" baseProfile="tiny" width="800" height="1326" viewBox="0 0 800 1326" stroke-linecap="round" stroke-linejoin="round">
<g id="dong">
<path d="M 751.83 753.76 747.09 759.2 755.12 770.53 747.29 774.81 746.95 825.12 748.59 838.46 721.51 864.41 738.78 892.28 747.08 894.38 749.4 901.9 720.78 953.02 699.08 994.47 677.98 973.79 653.95 965.47 640.46 963.52 619 968.44 621.98 887.75 631.61 881.72 620.29 857.11 641.72 852.49 639.38 834.67 632.66 806.88 618.39 786.38 608.54 777.3 613.1 763.87 608.3 751.4 611.44 739.43 602.45 716.48 608.89 699.71 607 691.74 615.34 673.23 611.16 666.33 620.78 659.81 621.38 648.01 627.82 638.74 637.18 607.56 630.91 583.76 617.44 575.39 627.81 531.33 641.85 496.81 673.92 473.73 693.79 501.7 696.03 531.96 699.22 540.44 703.56 550 699.61 563 688.62 577.53 680.46 598.26 681.47 622.19 673.29 637.19 672.09 662.51 689.37 669.5 695.94 677.61 727.99 702.21 734.95 699.7 746.66 725.28 751.83 753.76 Z" id="21150610"/>
<path d="M 797.33 211 792.88 223.2 792.38 249.28 794.78 277.3 799 296 784.52 317.02 776.56 320.98 746.38 335.73 740.05 352.1 716.04 380.27 699.01 387.15 682.57 412.47 679.23 423.38 667.11 430.91 654.2 413.39 614.68 420.6 574.94 401.64 517.16 401.46 512.7 396.05 517.88 377.87 502.64 360.26 478.15 337.3 454.78 335.45 430.23 330.34 431.58 320.55 424.19 311.84 428.73 292.85 438.91 294.65 444.15 268.89 450.66 263.12 451.93 245.87 456.78 237.82 474.73 231.56 482.03 226.41 488.52 213.23 491.81 196.91 510.49 183.18 531.87 173.68 538.7 176.8 552.92 175.93 558.63 172.08 570.58 175.11 578.45 170.6 607.22 181.52 618.41 196.18 628.3 204.27 643.49 200.07 655.35 200.06 672.91 190.98 747.28 190.64 794.84 208.56 797.33 211 Z" id="21150540"/>
<path d="M 281.47 516.67 258.2 503.33 233.21 501.97 232.68 522.66 229.09 560.88 223.55 597.29 213.69 641.26 211.49 644.1 203.19 653.82 183.25 689.29 173.1 711.66 156.51 758.26 149.3 794.95 140.4 821.71 131.92 836.4 113.05 842.34 97.55 811.84 89.33 801.98 53.29 768.28 32.68 752.37 32.54 746.03 50.69 636.7 58.25 586.69 57.52 285.68 61.44 272.02 95.05 218.37 144.79 176.46 231.22 130.81 291.9 77.48 344.57 23.69 365.48 1 380.18 13.71 383.65 21.6 376.85 58.59 371.11 72.61 369.16 87.81 364.86 121.18 344.79 134.31 314.35 172.65 290.57 305.98 266.14 439.95 295.38 441.53 292.98 454.75 281.47 516.67 Z" id="21150510"/>
<path d="M 529.37 147.71 531.87 173.68 510.49 183.18 491.81 196.91 488.52 213.23 482.03 226.41 474.73 231.56 456.78 237.82 451.93 245.87 450.66 263.12 444.15 268.89 438.91 294.65 428.73 292.85 424.19 311.84 417.44 313.93 379.7 308.83 375.15 324.32 290.57 305.98 314.35 172.65 344.79 134.31 364.86 121.18 369.16 87.81 407.78 91.67 403.92 118.58 412.45 119.19 428.88 110.15 436.99 112.18 445.34 95.19 463.31 105.95 455.6 114.09 478.28 121.03 508.72 134.45 529.37 147.71 Z" id="21150520"/>
<path d="M 473.96 479.64 448.16 515.15 432.31 528.15 427.82 526.85 401.61 535.4 379.66 533.28 357.59 528.19 335.2 535.11 318.07 534.73 304.35 529.83 281.47 516.67 292.98 454.75 354.19 459.78 354.99 463.41 374.64 475.98 377.57 462.2 400.6 478 405.45 464.33 417.4 462.85 415.86 475.97 435.17 474.16 473.96 479.64 Z" id="21150550"/>
<path d="M 424.19 311.84 431.58 320.55 430.23 330.34 454.78 335.45 478.15 337.3 502.64 360.26 517.88 377.87 512.7 396.05 517.16 401.46 478.98 457.81 475.05 458.22 473.96 479.64 435.17 474.16 415.86 475.97 417.4 462.85 405.45 464.33 400.6 478 377.57 462.2 374.64 475.98 354.99 463.41 354.19 459.78 292.98 454.75 295.38 441.53 266.14 439.95 290.57 305.98 375.15 324.32 379.7 308.83 417.44 313.93 424.19 311.84 Z" id="21150560"/>
<path d="M 667.11 430.91 666.32 436.97 675.24 466.19 673.92 473.73 641.85 496.81 627.81 531.33 617.44 575.39 600.66 607.37 566.25 618.52 526.34 616.1 513.45 617.26 487.2 613.63 468.42 599.56 455.17 603.74 448.1 624.41 436.34 635.62 422.85 657.37 412.92 664.66 404.34 658.47 386.81 655.68 376.83 662.34 372.37 671.43 359.11 669.13 353.92 694.68 328.88 685.1 224.12 664.42 227.4 646.72 211.49 644.1 213.69 641.26 223.55 597.29 229.09 560.88 232.68 522.66 233.21 501.97 258.2 503.33 281.47 516.67 304.35 529.83 318.07 534.73 335.2 535.11 357.59 528.19 379.66 533.28 401.61 535.4 427.82 526.85 432.31 528.15 448.16 515.15 473.96 479.64 475.05 458.22 478.98 457.81 517.16 401.46 574.94 401.64 614.68 420.6 654.2 413.39 667.11 430.91 Z" id="21150570"/>
<path d="M 618.39 786.38 542.01 795.77 541.18 798.04 507.84 802.2 432.73 809.94 446.56 736.31 453.06 728.35 462.41 730.02 469.43 724.84 466.32 706.89 479.84 690.66 487.47 688.42 503.62 674.32 513.24 661.67 525.8 636.2 526.34 616.1 566.25 618.52 600.66 607.37 617.44 575.39 630.91 583.76 637.18 607.56 627.82 638.74 621.38 648.01 620.78 659.81 611.16 666.33 615.34 673.23 607 691.74 608.89 699.71 602.45 716.48 611.44 739.43 608.3 751.4 613.1 763.87 608.54 777.3 618.39 786.38 Z" id="21150600"/>
<path d="M 618.39 786.38 632.66 806.88 639.38 834.67 641.72 852.49 620.29 857.11 631.61 881.72 621.98 887.75 619 968.44 599.98 969.9 593.29 963.85 569.92 951.96 563.6 946.61 541.7 947.23 522.68 943.11 491 952.87 484.15 947.51 472.91 918.49 458.92 867.87 468.13 862.9 505.56 837.45 507.84 802.2 541.18 798.04 542.01 795.77 618.39 786.38 Z" id="21150620"/>
<path d="M 432.73 809.94 507.84 802.2 505.56 837.45 468.13 862.9 458.92 867.87 472.91 918.49 484.15 947.51 491 952.87 522.41 978.69 536.29 975.28 598.7 1013.13 586.81 1023.37 591.41 1039.59 578.63 1055.51 581.33 1084.8 587.17 1100.73 582.88 1148.25 597.6 1144.03 592 1168.94 585.48 1184.63 563.4 1196.71 547.29 1212.94 544.08 1219.79 506.3 1214.88 488.53 1215.61 433.68 1203.99 411.97 1201.42 390.43 1206.56 384.81 1155.52 375.55 1126.94 341.14 1078.73 318.64 1073.46 302.81 1078.02 270.02 1054.38 250.41 1032.68 234.86 1023.68 221.44 1020 204.06 1040.31 194.64 1059.7 184.02 1089.16 181.16 1072.83 184.68 1069.55 194.74 1034.23 189.55 1001.38 198.95 971.59 215.97 942.21 223.81 921.14 226.03 898.89 232.81 780.85 402.92 812.9 432.73 809.94 Z" id="21150630"/>
<path d="M 181.16 1072.83 184.02 1089.16 194.64 1059.7 204.06 1040.31 221.44 1020 234.86 1023.68 250.41 1032.68 270.02 1054.38 302.81 1078.02 318.64 1073.46 341.14 1078.73 375.55 1126.94 384.81 1155.52 390.43 1206.56 379.51 1208.16 359.72 1233.43 350.55 1239.43 331.84 1261.03 319.8 1270.59 312.19 1280.6 310.76 1296.63 293.37 1321.06 272.14 1320.85 254.18 1325 239.7 1322.96 188.14 1292.17 174.05 1287.77 149.25 1274.87 149.99 1269.09 128.64 1267.72 81.7 1249.88 75.72 1265.73 71.36 1264.32 58.41 1284.74 42.46 1279.16 34.84 1295.08 28.43 1316.88 12.05 1299.05 3.23 1248.85 1 1214.37 7.19 1182.91 14.49 1160.17 29.25 1126.11 38.86 1108.15 50.99 1069.31 55.32 1041.94 58.73 1036.41 58.35 1017.37 25.16 1020.95 29.43 967.34 27.59 913.76 27.5 880.46 29.01 822.86 31.02 798.92 32.68 752.37 53.29 768.28 89.33 801.98 97.55 811.84 113.05 842.34 114.45 860.09 112.88 874.25 100.66 925.45 114.1 927.38 112.49 946.98 122.59 963.19 119.4 984.97 119.06 1040.11 126.68 1069.91 135.8 1090.78 153.67 1110.94 165.81 1117.42 171.7 1107.76 163.33 1102.33 181.16 1072.83 Z" id="21150640"/>
<path d="M 526.34 616.1 525.8 636.2 513.24 661.67 503.62 674.32 487.47 688.42 479.84 690.66 466.32 706.89 469.43 724.84 462.41 730.02 453.06 728.35 446.56 736.31 432.73 809.94 402.92 812.9 232.81 780.85 226.03 898.89 223.81 921.14 215.97 942.21 198.95 971.59 189.55 1001.38 194.74 1034.23 184.68 1069.55 181.16 1072.83 163.33 1102.33 171.7 1107.76 165.81 1117.42 153.67 1110.94 135.8 1090.78 126.68 1069.91 119.06 1040.11 119.4 984.97 122.59 963.19 112.49 946.98 114.1 927.38 100.66 925.45 112.88 874.25 114.45 860.09 113.05 842.34 131.92 836.4 140.4 821.71 149.3 794.95 156.51 758.26 173.1 711.66 183.25 689.29 203.19 653.82 211.49 644.1 227.4 646.72 224.12 664.42 328.88 685.1 353.92 694.68 359.11 669.13 372.37 671.43 376.83 662.34 386.81 655.68 404.34 658.47 412.92 664.66 422.85 657.37 436.34 635.62 448.1 624.41 455.17 603.74 468.42 599.56 487.2 613.63 513.45 617.26 526.34 616.1 Z" id="21150650"/>
</g>
</svg>