<?xml version="1.0"?>
<svg xmlns="http://www.w3.org/2000/svg" version="1.2" baseProfile="tiny" width="800" height="1029" viewBox="0 0 800 1029" stroke-linecap="round" stroke-linejoin="round">
<g id="dong">
<path d="M 522.04 867.33 520.25 869.08 509.74 868.67 509.69 866.92 522.04 867.33 Z M 504.63 845.03 505.07 848.83 503.89 851.5 501.11 849.71 500.08 841.39 504.35 840.13 504.63 845.03 Z M 587.17 712.92 583.9 714.99 580.05 714.78 575.43 712.42 575.5 709.11 571.22 705.62 568.04 707.44 569.07 713.07 560.7 716.65 561.8 721.96 564.11 724.5 571.35 720.46 573.19 727.16 578.61 728.34 579.96 730.11 576.66 732.35 577.57 736.94 575.64 739 569.01 739.3 570.01 742.56 567.37 747.37 563.8 746.85 561.95 744.31 555.46 747.13 554.46 750.32 558.39 754.89 557.48 757.02 560.93 760.89 563.78 762.07 563.92 766.14 562.72 777.5 565.68 779.65 562.6 782.7 557.4 783.58 554.7 787.62 549.82 789.13 546.68 787.74 546.91 798.3 544.01 799.09 545.83 802.15 544.39 805.2 546.02 807.93 546.44 812.74 543.17 815.03 544.28 821.3 540.75 825.01 540.62 829.17 533.68 832.86 529.87 832.25 527.53 835.3 523.93 851.87 521.68 852.86 525.65 837.37 520.92 835.23 506.87 832.87 504.08 828.22 505.79 824.48 504.71 815.21 500.38 813.73 492.11 814.13 492.01 818.4 493.76 828.47 497.27 836.28 494.03 839.35 498.05 843.83 495.76 847.09 491.95 847.23 488.98 851.45 484.12 855.85 484.05 860.58 477.33 862.59 476.14 867.45 474.2 867.5 472.09 870.52 473.54 873.71 476.94 876.46 475.9 879.98 477.48 884.95 476.72 885.99 479.16 890.58 482.14 891.57 485.71 897.98 489.3 898.82 495.26 905.81 500.35 906.14 500.49 909.19 503.05 914.09 505.59 914.04 506.1 918.21 503.35 922.23 505.39 923.3 505.12 926.3 508.13 928.28 510.58 926.42 512.9 927.17 510.79 931.43 508.69 930.12 506.77 933.53 507.3 937.86 506.09 941.55 506.36 945.09 504.55 949 499.98 953.09 496.51 953.52 489.03 950.3 485.92 955.57 486.06 959.64 484.73 963.97 487.04 966.24 486.21 970.66 488.53 971.19 488.21 974.61 483.46 975.31 481.65 977.53 482.85 980.3 479.59 984.09 481.48 987.58 480.97 990.61 483.8 993.47 479.94 1000.77 483.47 1004.95 480.7 1006.74 479.83 1009.37 473.51 1010.25 473.36 1013.67 468.75 1013.52 468.53 1015.34 463.92 1015.52 462.28 1012.25 459.45 1009.89 458.88 1006 456.97 1002.75 455.07 1002.66 454.33 998.57 449.64 998.97 448.39 1001.96 444.54 1001.95 443.12 1004.61 439.17 1007.32 440.8 1013.94 437.05 1014.23 434.24 1012.31 431.85 1014.86 437.29 1019.18 439.22 1022.15 434.2 1026.59 429.36 1028 430.14 1023.25 424.39 1023.04 420.03 1025.58 416.72 1020.93 416.14 1012.89 413.69 1010.22 414.18 1005.72 417.05 999.3 411.58 996.43 413.13 992.44 412.66 984.71 410.84 978.66 413.36 971.4 414.69 963 412.73 958.02 412.36 952.06 400.87 946.25 394.34 945.56 388.54 942.31 381.14 936.7 379.59 938.95 367.01 943.11 363.08 944.81 360.76 947.96 360.21 955.84 360.57 958.93 359.37 963.05 356.73 967.55 352.71 970.33 347.36 975.35 345.95 981.67 343.37 985.66 337.12 990.83 330.67 991.41 323.15 990.47 316.55 987.94 316.95 983.07 322.23 969.69 325.16 960.94 322.73 957.71 320.16 952.27 316.48 950.23 299.35 948.84 286.25 936.48 280.31 934.83 270.3 928.59 265.82 930.81 260.35 934.97 240.67 924.31 238.24 915.71 233.46 911.64 223.6 909.12 220.88 908.93 218.88 891.06 221.45 881.7 227.73 877.44 239.48 865.17 239.29 860.28 241.17 852.17 241.38 846.47 244.9 844.67 253 843.8 256.53 844.54 258.89 843.17 261.42 843.93 272.08 843.3 280.09 841.59 285.48 835.38 286.28 825.14 287.82 818.24 293.17 808.44 295.46 807.01 298.35 808.72 305.19 809.48 307.92 807.96 310.27 799.44 312.04 797.81 319.21 798.26 322.07 797.52 324.21 794.49 327.85 792.09 333.53 785.52 333.62 776.95 335.75 769.62 336.87 763.29 335.13 756.42 338.55 755.41 338.51 748.55 339.42 744.89 342.43 741.23 345.58 739.24 347.83 735.39 353.06 729.47 349.08 721.89 347.48 711.16 345.38 705.18 339.37 697.26 336.28 690.98 334.02 689.41 329.57 690 325.64 687.94 322.3 684.82 322.88 682.48 326.08 679.11 326.7 675.24 324.51 666.71 325.21 663.55 324.05 657.59 325.35 645.58 326.22 641.12 330.36 633.71 334.74 624.48 336.16 615.84 342.7 614 346.61 616.23 355.36 614.09 358.87 603.63 367.28 598.49 387.66 594.53 392.07 593.08 404.6 594.83 411.01 620.19 412.19 627.92 413.73 632.1 415.71 634.13 425.96 640.21 430.83 640.74 432.2 639.36 438.25 639.49 441.7 644.6 454.52 648.43 459.51 651.54 458.83 654.85 458.65 662.38 467.06 667.59 472.8 672.44 474.98 672.25 481.6 677.28 482.33 684.27 487.68 680.14 487.27 677.83 489.59 673.72 492.44 671.57 492.93 668.09 497.74 667.36 505.18 669.86 509.92 663.47 517.52 659.18 518.99 655.6 525.65 654.33 528.28 656.27 534.58 655.91 545.08 658.85 555.54 669.47 556.52 672.98 556.25 680.35 557.03 685.38 563.32 685.48 569.32 684.41 573.08 681.38 575.01 683.89 574.36 691.82 577.51 700.24 587.17 712.92 Z" fill-rule="evenodd" id="21510110"/>
<path d="M 629.05 4.32 630.32 9.96 631.87 20.47 639.43 33.81 639.8 38.98 646.81 41.25 648.9 45.05 653.01 49.52 657.86 52.86 662.11 62.2 664.13 64.75 669.71 69.14 676.67 77.58 678.81 81.37 679.89 88.45 683.26 98.21 687.86 107.05 693.94 109.65 702.96 111.61 703.43 114.9 702.33 117.79 698.66 117.59 698.51 127.78 695.94 133.41 694.82 141.87 694.97 149.51 693.41 156.06 702.88 167.08 707.83 171.31 708.77 175.89 711.95 182.84 709.67 184.8 708.12 189.79 705.78 193.54 707.85 198.73 708.22 205.96 706.54 209.2 703.01 210.84 701.25 216.95 696.17 221.87 691.64 229.69 700.14 234.88 708.99 237.16 715.6 239.79 718.32 239.16 722.9 236.29 729.99 233.25 732.93 239.17 737.58 241.71 738.01 245.28 741.79 251.1 743.49 246.73 750.79 245.33 751.73 247.68 758.57 252.41 771.04 253.01 776.08 254.19 780.51 250.49 782.08 250.59 789.73 255.93 786.18 259.49 783.95 265.92 786.22 272.44 790.48 277.35 792.29 282.9 795.12 284.2 799 309.18 798.84 313.66 793.81 322.65 793.7 319.01 796.83 313.78 797.35 310.39 793.76 284.7 789.67 285.1 791.1 306.83 790.31 310.05 787.31 311.63 785.5 314.69 786.19 316.75 784.67 319.88 777.31 324.29 776.79 330.65 777.48 332.28 783.05 330.49 785.1 326.8 786.65 327.49 784.13 332.24 778.33 333.79 773.53 341.84 752.28 344.05 742.17 344.05 734.4 341.97 730.68 339.87 728.93 334.54 728.05 328.99 726.54 327.89 726.69 322.88 728.32 322.79 728.34 318.24 725.4 316.66 715.78 316.67 714.63 316.14 714.4 310.44 713.06 305.31 709.98 304.28 702.19 304.27 701.55 302.5 696.77 303.24 695.83 305.62 689.18 307.79 687.95 306.44 682.06 309.07 683.32 311.99 676.47 312.73 673.03 316.76 669.71 319.16 658.85 321.71 656.66 325.96 650.96 326.85 646.07 329.29 637.95 336.26 633.35 341.51 630.32 346.68 625.59 359.1 622.79 359.73 619.34 364.54 612.63 370.72 604.97 373.17 603.37 376.35 595.52 373 593.19 375.99 589.49 378.27 587.41 381.4 587.73 383.8 586.38 393.74 581.96 394.45 579.52 393.65 575.37 394.64 573.88 392.89 569.24 391.66 562.92 394.4 560.45 396.75 553.7 400.31 552.34 397.65 547.83 398.74 543.41 397.29 540.02 392.25 532.74 384.62 528.54 377.74 526.26 371.32 523.91 367.82 514.17 362.76 508.92 361.07 503.15 360.37 499.19 358.11 490.38 348.73 491.25 342.84 497.51 346.45 501.21 347.17 505.58 341.29 507.65 337.3 504.34 334.03 498.95 331.87 488.63 316.33 480.64 306.99 474.64 307.12 470.07 304.62 456.72 305.51 453.33 298.65 449.98 297.7 445.77 294.58 439.38 295.51 433.21 288.81 428.13 288.49 424.15 285.68 422.64 281.26 416.65 277.6 413.3 273.43 413.12 267.28 410.78 259.04 405.69 256.15 399.27 254.07 396.46 247.98 385.13 243.96 382.22 241.05 381.86 235.86 380.39 233.94 381.26 229.68 377.75 217.15 381.17 208.02 380.23 196.94 387.54 195.53 389.74 186.54 393.23 184.81 392.6 178.86 387.18 172.79 389.27 169.85 394.69 168.15 399.77 159.72 399.06 155.46 396.75 149.47 401.14 143.52 397.31 139.26 392.54 135.83 395.03 131.22 392.98 124.29 390.54 123.29 389.97 116.57 391.76 113.53 389.95 104.07 385.85 97.48 386.06 91.95 385.09 87.34 376.4 78.08 375.95 74.49 373.66 66.67 371.49 65.05 369.09 66.36 361.14 65.69 357.81 60.13 352.76 57.6 350.74 52.69 346.23 46.21 341.96 44.91 337.8 35.93 341.14 30.95 342.73 27.1 348.87 19.77 351.65 13.95 354.8 10.4 360.46 1 367.91 7.06 373.68 9.62 378.19 14.22 384.19 23.74 390.15 26.66 393.64 29.13 395.99 32.84 397.88 33.38 410.85 40.8 421.66 42.94 423.79 42.32 431.04 47.44 439.34 49.2 447.17 47.34 452.83 44.59 460.18 43.77 464.64 41.36 472.84 40.21 477.37 40.84 482.57 39.57 486.41 37.3 492.71 37.58 499.24 39.99 507.61 41.21 510.28 33.87 511.49 27.6 513.8 24.69 526.72 20.72 529.68 16.87 533.96 25.27 545.56 22.44 550.25 24.45 553.62 27.82 561.62 25.64 565.81 22.97 569.9 17.66 569.57 12.13 567.33 7.67 568.65 4.6 577.86 7.01 589.93 16.18 596.7 19.49 600.76 19.54 613.75 14.63 615.99 14.81 618.21 12.08 620.35 11.95 625.45 5.69 629.05 4.32 Z" id="21510120"/>
<path d="M 491.25 342.84 489.23 342.67 487.63 345.98 487.27 354.19 485.38 357.13 482.66 366.73 474.33 366.13 468.08 368.11 464.77 370.52 458.21 366.71 446.45 360.61 438.8 364.92 436.27 371.35 431.4 381.23 425.16 386.32 419.32 392.79 408.73 393.55 403.9 396.5 393.86 392.5 390.81 396.13 386.93 397.89 378.58 398.02 374.89 397.41 372.38 395.31 360.85 395.12 347.48 394.24 333.32 399.14 326.59 407.17 324.52 408.22 317.84 405.41 308.78 406.44 303.59 408.69 294.48 415.26 290.77 419.77 275.47 422.66 271.9 422.49 267.86 417.99 262.87 415.26 258.55 414.31 254.69 411.35 244.25 408.59 241.33 404.79 229.34 407.76 227.1 404.28 222.54 402.17 215.19 394.69 207.4 398.33 201.78 399.27 192.75 402.77 186.02 404.1 184.35 402.59 179.87 401.9 178.5 392.32 178.1 379.49 181.03 371.72 182.85 362.6 184.87 356.51 176.87 334.78 176.47 330.4 178.63 317.25 176.16 308.97 178.64 294.09 175.8 289.98 176 283.27 174.26 280.33 171.56 267.54 161.06 259.13 151.83 267.44 149.89 266.89 144.91 262.91 134.92 260.55 124.16 249.5 120.12 243.98 109.3 239.4 94.6 234.89 92.98 236.22 75.8 233.96 77.5 231.79 72.83 226.3 73.05 221.7 77.69 216.87 80.45 210.03 83.76 205.58 86.35 203.57 97.8 199.81 101.16 191.25 101.89 185.61 98.02 181.94 96.16 178.36 96.78 175.62 95.65 168.72 91.89 165.85 88.14 161.51 84.98 155.72 80.15 153.1 77.92 153.28 72.08 145.13 69.86 139.33 66.18 136.28 63.17 135.09 54.78 135.52 50.35 132.98 47.47 129.78 45.6 123.61 43.28 119.16 33 114.49 33.82 111.03 33.21 107.25 39.51 111.76 45.66 115.26 52.39 114.49 55.48 112.78 60.8 113.16 71.47 112.9 73.66 115.05 81.22 117.8 85.72 121.32 95.84 122.95 102.4 122.5 110.04 120.43 115.83 120.09 117.76 119.83 123.28 123.51 128.18 124.97 131.75 124.9 135.41 126.79 142.8 127.54 148.63 130.99 154.38 128.37 157.82 128.26 169.38 132.13 175.98 136.29 177.08 137.7 185.55 140.87 188.71 142.73 200.28 147.05 208.45 151.17 208.28 154.08 215.63 163.89 222.64 168.43 229.69 170.12 239.46 178.28 246.47 177.91 253.54 183.17 260.03 185.99 263.02 188.07 265.43 187.89 270.33 189.49 278.6 187.44 281.3 184.17 286.29 181.13 288.62 177.37 292.16 177.57 297.04 176.22 295.36 170.31 297.84 166.91 302.57 162.26 303.74 158.49 308.46 153.12 315.66 149.32 317.59 147.18 321.72 146.29 326.29 146.82 329.04 143.51 332.51 142.99 339.18 139.19 340.4 135.51 340.62 128.76 350.06 120.62 352.86 117.53 360.49 112.69 358.59 102.99 357.21 103.02 358.9 96.24 356.15 88.44 358.66 79.99 358.09 76.16 360.62 70.71 361.14 65.69 369.09 66.36 371.49 65.05 373.66 66.67 375.95 74.49 376.4 78.08 385.09 87.34 386.06 91.95 385.85 97.48 389.95 104.07 391.76 113.53 389.97 116.57 390.54 123.29 392.98 124.29 395.03 131.22 392.54 135.83 397.31 139.26 401.14 143.52 396.75 149.47 399.06 155.46 399.77 159.72 394.69 168.15 389.27 169.85 387.18 172.79 392.6 178.86 393.23 184.81 389.74 186.54 387.54 195.53 380.23 196.94 381.17 208.02 377.75 217.15 381.26 229.68 380.39 233.94 381.86 235.86 382.22 241.05 385.13 243.96 396.46 247.98 399.27 254.07 405.69 256.15 410.78 259.04 413.12 267.28 413.3 273.43 416.65 277.6 422.64 281.26 424.15 285.68 428.13 288.49 433.21 288.81 439.38 295.51 445.77 294.58 449.98 297.7 453.33 298.65 456.72 305.51 470.07 304.62 474.64 307.12 480.64 306.99 488.63 316.33 498.95 331.87 504.34 334.03 507.65 337.3 505.58 341.29 501.21 347.17 497.51 346.45 491.25 342.84 Z" id="21510130"/>
<path d="M 622.79 359.73 625.21 365.4 621.83 371.64 619.77 380.62 618.95 387.06 619.5 391.01 614.73 397.68 613.16 403.76 611.06 403.86 607.44 407.93 607.42 410.62 610.61 419.05 612.68 421.47 615.85 422.93 620.83 414.82 622.25 415.43 618.46 421.16 614.97 431.84 615.89 439.24 618.52 440.85 619.25 446.45 623.07 446.6 627.54 439.41 628.63 439.99 623.17 448.03 620.07 449.22 621.56 453.41 620.43 461.3 622.42 464.02 621.39 468.5 618.89 472.48 620.1 477.4 618.45 483.47 616.91 483.17 612.39 488.14 608.07 489.21 606.44 493.27 609.63 499.04 613.16 498.95 614.87 500.96 611.85 505.23 613.2 507.74 614.36 513.47 619.4 518.95 620.75 521.33 617.42 522.64 616.65 525.01 611.41 523.56 604.75 525.96 600.78 534.02 601.73 561.58 599.1 565.19 598.74 568.97 594.07 573.18 591.75 577.95 587.32 580.65 585.37 580.59 580.96 576.09 570.07 577.27 566.9 576.51 565.99 581.17 564.17 582 565.85 574.04 561.16 574.62 556.76 579.08 553.08 585.96 553.03 589.48 554.44 592.3 558 595.74 557.02 604.14 552.58 607.04 554.16 610.5 550.89 612.69 546.34 610.51 543.48 610.78 538.96 612.99 533.35 613.07 529.02 616.36 528.02 612.65 522.29 612.71 520.71 616.19 518.19 618.3 515.91 622.28 514.52 628.9 514.81 632.89 517.46 641.2 521.91 646.52 525.15 647.85 529.91 645.52 535.41 649.3 538.68 648.98 541.23 646.81 547.31 639.8 551.91 640.05 554.97 635.91 559.24 637.31 560.97 645.18 563.66 645.76 566.37 644.53 568.79 640.01 571.31 637.27 567.31 630.73 568.18 629.86 572.77 637.67 579.27 637.11 581.74 640.72 584.48 640.13 584.52 636.55 586.59 634.56 591.17 638.04 589.07 640.76 590.1 647.78 594.58 650.42 588.89 654.62 588.82 659.42 591.19 663.85 590.9 665.72 591.89 675.3 594.98 682.8 594.81 689.33 593.62 692.03 594.35 700.24 593.91 703.94 591.63 708.61 587.17 712.92 577.51 700.24 574.36 691.82 575.01 683.89 573.08 681.38 569.32 684.41 563.32 685.48 557.03 685.38 556.25 680.35 556.52 672.98 555.54 669.47 545.08 658.85 534.58 655.91 528.28 656.27 525.65 654.33 518.99 655.6 517.52 659.18 509.92 663.47 505.18 669.86 497.74 667.36 492.93 668.09 492.44 671.57 489.59 673.72 487.27 677.83 487.68 680.14 482.33 684.27 481.6 677.28 474.98 672.25 472.8 672.44 467.06 667.59 458.65 662.38 458.83 654.85 459.51 651.54 454.52 648.43 441.7 644.6 438.25 639.49 432.2 639.36 430.83 640.74 425.96 640.21 415.71 634.13 413.73 632.1 412.19 627.92 411.01 620.19 404.6 594.83 392.07 593.08 387.66 594.53 367.28 598.49 358.87 603.63 347.55 598.68 346.65 592.21 343.1 580.96 343.34 578.69 352.83 577.18 354.84 569.45 349.56 558.61 353.65 547.71 354.27 541.08 335.74 529.81 323.93 526.85 310.99 517.66 305.49 515.66 299.31 511.59 300.05 507.13 299.95 498.75 292.95 491.01 289.94 486.6 292.61 475.88 293.16 469.88 296.13 465.77 300.72 461.46 299.95 459.25 303.48 449.74 302.79 444.97 300.25 440.18 295.97 437.74 292.72 431.4 292.95 429.18 289.41 425.06 290.77 419.77 294.48 415.26 303.59 408.69 308.78 406.44 317.84 405.41 324.52 408.22 326.59 407.17 333.32 399.14 347.48 394.24 360.85 395.12 372.38 395.31 374.89 397.41 378.58 398.02 386.93 397.89 390.81 396.13 393.86 392.5 403.9 396.5 408.73 393.55 419.32 392.79 425.16 386.32 431.4 381.23 436.27 371.35 438.8 364.92 446.45 360.61 458.21 366.71 464.77 370.52 468.08 368.11 474.33 366.13 482.66 366.73 485.38 357.13 487.27 354.19 487.63 345.98 489.23 342.67 491.25 342.84 490.38 348.73 499.19 358.11 503.15 360.37 508.92 361.07 514.17 362.76 523.91 367.82 526.26 371.32 528.54 377.74 532.74 384.62 540.02 392.25 543.41 397.29 547.83 398.74 552.34 397.65 553.7 400.31 560.45 396.75 562.92 394.4 569.24 391.66 573.88 392.89 575.37 394.64 579.52 393.65 581.96 394.45 586.38 393.74 587.73 383.8 587.41 381.4 589.49 378.27 593.19 375.99 595.52 373 603.37 376.35 604.97 373.17 612.63 370.72 619.34 364.54 622.79 359.73 Z" id="21510111"/>
<path d="M 290.77 419.77 289.41 425.06 292.95 429.18 292.72 431.4 295.97 437.74 300.25 440.18 302.79 444.97 303.48 449.74 299.95 459.25 300.72 461.46 296.13 465.77 293.16 469.88 292.61 475.88 289.94 486.6 292.95 491.01 299.95 498.75 300.05 507.13 299.31 511.59 305.49 515.66 310.99 517.66 323.93 526.85 335.74 529.81 354.27 541.08 353.65 547.71 349.56 558.61 354.84 569.45 352.83 577.18 343.34 578.69 343.1 580.96 346.65 592.21 347.55 598.68 358.87 603.63 355.36 614.09 346.61 616.23 342.7 614 336.16 615.84 334.74 624.48 330.36 633.71 326.22 641.12 325.35 645.58 324.05 657.59 325.21 663.55 324.51 666.71 326.7 675.24 326.08 679.11 322.88 682.48 322.3 684.82 325.64 687.94 329.57 690 334.02 689.41 336.28 690.98 339.37 697.26 345.38 705.18 347.48 711.16 349.08 721.89 353.06 729.47 347.83 735.39 345.58 739.24 342.43 741.23 339.42 744.89 338.51 748.55 338.55 755.41 335.13 756.42 336.87 763.29 335.75 769.62 333.62 776.95 333.53 785.52 327.85 792.09 324.21 794.49 322.07 797.52 319.21 798.26 312.04 797.81 310.27 799.44 307.92 807.96 305.19 809.48 298.35 808.72 295.46 807.01 293.17 808.44 287.82 818.24 286.28 825.14 285.48 835.38 280.09 841.59 272.08 843.3 261.42 843.93 258.89 843.17 256.53 844.54 253 843.8 244.9 844.67 241.38 846.47 240.27 842.52 244.04 836.12 248.29 827.08 253.28 818.33 254.68 813.69 254.95 802.27 251.46 800 248.06 793.13 245.62 792.43 234.27 784.46 232.83 779.98 227.72 777.22 221.66 769.78 220.35 762.91 217.02 763.35 209.57 766.27 206.2 763.54 198.57 763.4 197.11 758.57 198.86 751.91 197.38 750.42 198.7 746.26 202.51 742.06 204.1 729.93 201.65 721.78 194.59 719.09 189.06 718.58 186.6 716.83 181.66 716.92 176.98 716.04 169.99 713.59 170.49 707.17 163.21 697.05 153.09 689.76 151.29 688.7 143.72 687.35 134.75 680.51 133.88 678.49 127.18 673.73 128.01 665.2 126.53 660.98 129.2 657.36 131.86 647.19 130.33 642.74 124.46 642.72 110.99 649.29 106.24 642.7 102.51 642.55 90.68 644.15 77.09 637.74 74.28 637.39 62.67 638.48 61.16 633.03 56.97 629.14 55.86 616.87 57.6 615.91 54.38 611.02 55.3 608.43 56.56 599.52 58.23 597.78 58.97 594.13 63.55 587.24 70 578.74 71.29 574.56 71.05 564.45 74.67 554.95 69.48 547.98 67.09 541.36 72.55 533.96 75.79 523.19 81.26 508.37 82.3 501.06 92.04 491.24 98.09 488.09 93.29 480.34 88.49 461.18 86.83 456.69 80.08 456.18 74.62 450.24 66.07 448.01 63.54 448.44 59.6 445.89 58.42 440.71 52.77 438.42 45.46 439.86 39.26 437.18 34.97 440.46 26.04 434.92 24.4 432.65 15.26 431.49 11.51 429.37 1 427.27 4.39 420.46 9 416.57 12.5 410.65 13.69 405.18 16.03 399.41 15.52 387.72 14.48 384.93 13.48 377.27 14.33 363.72 16.86 358.56 20.06 349.36 26.2 345.62 29.88 344.61 36.96 338.93 40 334.72 43.54 324.2 44.39 317.66 49.21 306.53 53.42 302.38 61.27 297.58 66.27 292.92 68.19 288.42 68.53 282.92 66.46 273.36 60.07 264.69 60.25 260.05 63.67 255.06 66.58 252.86 69.16 248.17 68.83 242.81 70.49 238.72 74.96 236.66 75.8 233.96 92.98 236.22 94.6 234.89 109.3 239.4 120.12 243.98 124.16 249.5 134.92 260.55 144.91 262.91 149.89 266.89 151.83 267.44 161.06 259.13 171.56 267.54 174.26 280.33 176 283.27 175.8 289.98 178.64 294.09 176.16 308.97 178.63 317.25 176.47 330.4 176.87 334.78 184.87 356.51 182.85 362.6 181.03 371.72 178.1 379.49 178.5 392.32 179.87 401.9 184.35 402.59 186.02 404.1 192.75 402.77 201.78 399.27 207.4 398.33 215.19 394.69 222.54 402.17 227.1 404.28 229.34 407.76 241.33 404.79 244.25 408.59 254.69 411.35 258.55 414.31 262.87 415.26 267.86 417.99 271.9 422.49 275.47 422.66 290.77 419.77 Z" id="21510330"/>
</g>
</svg>