<?xml version="1.0"?>
<svg xmlns="http://www.w3.org/2000/svg" version="1.2" baseProfile="tiny" width="800" height="585" viewBox="0 0 800 585" stroke-linecap="round" stroke-linejoin="round">
<g id="dong">
<path d="M 536.79 113.02 535.59 150.93 531.47 156.3 508.89 266.72 496.15 280.48 421.74 265.12 420.18 294.21 464.34 308.95 458.36 336.96 485.95 364.49 496.91 369.14 508.31 387.12 530.86 452.39 466.5 471.63 447.96 466.66 437.05 442.53 404.81 338.38 384.9 334.43 381.3 333.68 385.17 291.69 388.25 231.08 405.67 110.44 411.81 98.58 439.07 104.81 441.97 93.24 536.79 113.02 Z" id="22010560"/>
<path d="M 411.81 98.58 405.67 110.44 388.25 231.08 385.17 291.69 381.3 333.68 271.34 311.37 168.97 352.53 168.67 352.65 165.64 274.58 167.94 246.93 162.06 225.81 170.42 216.35 215.39 210.43 241.57 225.14 262.95 221.68 270.47 142.74 269.89 105.83 278.98 74.67 280.19 52.79 404.2 80.53 411.81 98.58 Z" id="22010590"/>
<path d="M 280.65 48.05 280.19 52.79 278.98 74.67 269.89 105.83 270.47 142.74 262.95 221.68 241.57 225.14 215.39 210.43 170.42 216.35 163.92 215.77 161.1 149.81 117.97 139.79 107.99 163.25 97.7 174.41 79.12 183.37 56.84 186.18 49.63 166.08 33.4 157.41 32.67 133.68 45.52 123.88 51.61 85.5 58.1 81.5 89.67 101.56 94.55 93.98 81.6 78.82 72.93 1 117.3 10.99 192.98 29.02 280.65 48.05 Z" id="22010610"/>
<path d="M 326.87 418.42 278.37 545.9 208.78 554.5 182.02 557.75 172.58 416.85 206.44 420.94 221.85 398.89 238.21 388.43 253.52 385.74 275.29 393.12 326.87 418.42 Z" id="22010660"/>
<path d="M 168.97 352.53 172.58 416.85 182.02 557.75 16.37 470.79 9.96 409.98 9.92 409.63 102.45 379.01 168.67 352.65 168.97 352.53 Z" id="22010670"/>
<path d="M 780.65 330.67 762.16 367.62 720.8 392.28 700.81 418.64 501.32 371.3 496.91 369.14 485.95 364.49 458.36 336.96 464.34 308.95 420.18 294.21 421.74 265.12 496.15 280.48 508.89 266.72 541.52 276.08 695.61 312.21 780.65 330.67 Z" id="22010540"/>
<path d="M 170.42 216.35 162.06 225.81 167.94 246.93 165.64 274.58 168.67 352.65 102.45 379.01 9.92 409.63 1 343.48 19.45 324.78 68.63 282.53 103.43 242.54 113.17 222.56 109.86 215.55 107.99 163.25 117.97 139.79 161.1 149.81 163.92 215.77 170.42 216.35 Z" id="22010620"/>
<path d="M 447.96 466.66 455.02 486.05 433.69 493.29 437.09 504.21 400.02 506.44 401.59 520.32 414.05 540.27 412.89 548.43 340.67 539.96 278.37 545.9 326.87 418.42 372.33 435.65 383.51 390.24 384.9 334.43 404.81 338.38 437.05 442.53 447.96 466.66 Z" id="22010640"/>
<path d="M 381.3 333.68 384.9 334.43 383.51 390.24 372.33 435.65 326.87 418.42 275.29 393.12 253.52 385.74 238.21 388.43 221.85 398.89 206.44 420.94 172.58 416.85 168.97 352.53 271.34 311.37 381.3 333.68 Z" id="22010650"/>
<path d="M 700.81 418.64 698.49 433.6 684.72 442.43 676.44 466.26 672.48 502.66 676.2 566.64 680.05 584 571.79 577.77 566.11 575.58 551.16 514 530.86 452.39 508.31 387.12 496.91 369.14 501.32 371.3 700.81 418.64 Z" id="22010680"/>
<path d="M 571.79 577.77 480.46 572.43 453.91 553.58 414.65 548.65 412.89 548.43 414.05 540.27 401.59 520.32 400.02 506.44 437.09 504.21 433.69 493.29 455.02 486.05 447.96 466.66 466.5 471.63 530.86 452.39 551.16 514 566.11 575.58 571.79 577.77 Z" id="22010690"/>
<path d="M 799 264.11 788 282.29 791.18 305.88 780.65 330.67 695.61 312.21 541.52 276.08 508.89 266.72 531.47 156.3 535.59 150.93 536.79 113.02 585.61 129.74 604.07 131.76 652.56 125.77 717.21 101.2 720.53 103.18 754.01 121.18 775.69 179.41 779.29 219.65 799 264.11 Z" id="22010700"/>
</g>
</svg>