<?xml version="1.0"?>
<svg xmlns="http://www.w3.org/2000/svg" version="1.2" baseProfile="tiny" width="800" height="1004" viewBox="0 0 800 1004" stroke-linecap="round" stroke-linejoin="round">
<g id="dong">
<path d="M 681.9 476.76 684.19 480.82 680.71 491.48 673.98 497.27 676.07 515.56 675.7 519.26 672.63 525.11 667.71 525.16 662.7 525.51 661.95 527.53 656.32 526.84 653.9 523.6 650.49 522.8 639.78 526.88 630.69 526.38 627.33 528.97 620.23 524.87 615.86 526.6 611.81 524.64 607.64 527.67 602.92 527.38 597.93 530.44 587.79 529.49 581.55 533.64 584.01 537.74 581.15 543.7 579 551.14 575.33 553.7 576.24 562.11 568.5 565.05 565.4 569.89 559.09 569.93 545.7 575.29 539.07 582.78 536.02 588.98 530.22 591.1 528.84 596.38 521.79 596.77 518.32 599.2 517.31 605.15 517.75 610.18 507.31 621.15 502.18 624.76 500.73 621.46 496.97 618.64 489.78 617.3 488.72 612.13 486.9 610.63 482.78 603.21 483.32 600.36 480.97 597.5 476.55 596.02 472.89 592.64 461.9 590.09 455.27 590.35 451.32 591.71 444.84 591.37 438.79 592.13 432.15 591.37 429.63 589.15 415.99 585.32 410.12 588.19 396.31 600.63 381.99 605.17 371.69 613.78 370.12 618.54 366.76 621.67 362.24 628.9 356.89 632.63 344.21 633.24 342.19 636.29 341.61 642.7 339.19 647.33 341.42 653.14 342.97 663.47 341.29 669.55 335.97 676.66 336.17 682.04 340.81 698.31 341.18 701.77 338.95 704 336.33 710.32 340.86 714.45 340.47 725.7 343.01 727.56 342.64 733.76 344.74 738.82 337.31 747.49 331.69 750.95 323.84 754.39 318.36 754.35 309.73 760.06 306.29 764.46 304.68 770.92 302.01 775.2 298.3 777.43 292.08 779.24 285.49 786.13 284.05 782.92 286.16 774.7 285.68 768.88 289.54 767.66 291.69 762.99 289.5 760.01 288.88 751.83 284.23 745.95 278.54 743.68 280.19 740.79 286.32 735.63 289.84 724.51 289.44 722.87 297.49 717.12 296.89 713.56 289.81 713.2 285.06 708.91 283.11 705.02 281.09 697.14 283.16 693.82 275.88 693.19 272.32 691.38 271.22 688.65 274.35 681.77 274.51 677.31 281.35 673.96 281.32 669.73 279.15 665.18 275.94 665.32 273.4 662.64 267.54 659.45 263.98 666 257.92 664.6 257.5 666.83 251.95 666.62 255.08 661.46 249.76 661.06 246.22 659.46 242.98 657.39 238.99 657.61 234.31 659.79 229.03 660.43 217.39 660.19 203.88 657.18 213.63 653.87 216.6 652.04 217.44 646.07 220.15 645.98 221.37 641.89 225.41 637.8 227.51 632.38 229.62 630.41 234.13 630.56 238.38 628.84 239.43 623.81 242.86 624.68 247.28 615.13 247.29 607.4 245.3 603.93 247.96 601.59 250.83 602.58 257.41 598.43 262.51 600.09 266.26 594.12 269.48 591.88 270.91 586.26 270.75 580.26 269.06 573.3 269.83 571.64 266.21 560.84 268.05 554.01 268.01 550.24 264.79 547.72 266.72 543.54 271.83 543.75 277.15 540.78 280.26 537.42 287.2 535.5 289.55 532.42 286.99 519.99 288.8 511.84 288.52 508.59 290.88 505.28 296.24 506.63 300.85 510.03 308.8 486.46 311.41 472.91 314.2 465.95 330.11 449.83 329.81 445.64 332 441.3 339.69 444.74 348.05 435.63 360.51 435.2 368.4 431.89 374.64 433.14 379.88 432.23 380.59 430.49 386.28 428.61 395.43 421.02 400.23 419.47 406.8 425.82 412.82 427.23 414.79 434.32 421.72 432.6 427.31 432.5 437 433.86 444.61 428.25 449.61 430.16 458.84 427.14 468.1 434.5 469.74 438.33 473.3 440.59 474.45 444.25 480.28 448.42 484.74 448.2 486.76 450.37 497.41 447.25 511.94 441.59 516.73 446.22 522.2 447.45 527 444.07 534.54 444.24 534.85 448.03 546.59 449.81 552.48 452.86 567.07 450.82 578.44 458.25 584.57 458.8 593.2 462.57 597.92 463.23 615.77 461.01 618.56 462.48 637.5 465.67 643.36 467.14 652.68 471.35 658.21 469.79 662.86 470.7 670.49 476.69 681.9 476.76 Z" id="22020620"/>
<path d="M 78.55 860.69 95.57 897.96 94.93 902.94 87.86 911.89 69.96 910.08 69.06 909.99 64.06 898.71 63.15 888.5 57.65 873.73 49.15 869.16 58.46 865.16 75.97 859.62 78.55 860.69 Z" id="22020560"/>
<path d="M 302.01 775.2 302 781.28 300.01 788.26 301.8 793.04 296.74 804.66 294.13 807.38 286.63 807.25 283.37 812.07 274.19 810.66 272.8 815.87 270.29 820.26 264.77 821.34 262.53 826.88 249.3 822.59 243.57 815.59 235.86 810.06 229.74 803.98 228.57 801.21 222.75 796.6 219.83 799.28 217.2 795.79 208.78 789.76 203.49 787.97 199.59 783.78 203.06 776.54 218.58 742.06 223.08 740.46 225.19 731.09 222.14 727.44 226.59 718.1 227.13 711.07 224.16 702.53 225.99 696 230.14 692.43 234.37 686.84 238.22 684.16 240.35 678.16 243.49 674.63 245.93 675.28 251.95 666.62 257.5 666.83 257.92 664.6 263.98 666 267.54 659.45 273.4 662.64 275.94 665.32 279.15 665.18 281.32 669.73 281.35 673.96 274.51 677.31 274.35 681.77 271.22 688.65 272.32 691.38 275.88 693.19 283.16 693.82 281.09 697.14 283.11 705.02 285.06 708.91 289.81 713.2 296.89 713.56 297.49 717.12 289.44 722.87 289.84 724.51 286.32 735.63 280.19 740.79 278.54 743.68 284.23 745.95 288.88 751.83 289.5 760.01 291.69 762.99 289.54 767.66 285.68 768.88 286.16 774.7 284.05 782.92 285.49 786.13 292.08 779.24 298.3 777.43 302.01 775.2 Z" id="22020660"/>
<path d="M 502.18 624.76 503.64 629.27 513.92 631.83 518.96 636.01 521.9 640.1 528.06 653.01 530.55 655.29 527.09 660.8 525.96 665.5 527.11 670.16 524.22 678.91 520.24 681.84 515.62 687.6 515.3 692.65 513.59 696.95 509.64 701.23 503.12 711.77 499.32 716.51 490.93 722.73 485.85 724.44 482.6 729.05 489.34 735.24 490.23 739.73 492.95 742.28 493.02 747.22 496.37 751.77 496.24 757.12 497.91 762.41 494.31 765.16 495.17 772.67 483.91 784.31 480.25 790.21 482.61 804.92 486.08 816.97 486.05 827.78 480.66 827.88 473.24 829.49 465.8 829.16 464.45 826.94 454.9 824.76 449.34 829.46 445.18 830.38 444.13 826.12 439.07 819.32 439.32 815.2 435.15 813.95 426.99 815.09 421.76 821.68 416.79 830.29 416.37 838.66 415.08 844.91 406.31 844.2 394.82 845.45 390.31 846.61 383.48 846.35 370.59 844.87 367.52 847.15 365.61 843.81 331.76 832.13 301.39 815.89 295.31 813.88 283.37 812.07 286.63 807.25 294.13 807.38 296.74 804.66 301.8 793.04 300.01 788.26 302 781.28 302.01 775.2 304.68 770.92 306.29 764.46 309.73 760.06 318.36 754.35 323.84 754.39 331.69 750.95 337.31 747.49 344.74 738.82 342.64 733.76 343.01 727.56 340.47 725.7 340.86 714.45 336.33 710.32 338.95 704 341.18 701.77 340.81 698.31 336.17 682.04 335.97 676.66 341.29 669.55 342.97 663.47 341.42 653.14 339.19 647.33 341.61 642.7 342.19 636.29 344.21 633.24 356.89 632.63 362.24 628.9 366.76 621.67 370.12 618.54 371.69 613.78 381.99 605.17 396.31 600.63 410.12 588.19 415.99 585.32 429.63 589.15 432.15 591.37 438.79 592.13 444.84 591.37 451.32 591.71 455.27 590.35 461.9 590.09 472.89 592.64 476.55 596.02 480.97 597.5 483.32 600.36 482.78 603.21 486.9 610.63 488.72 612.13 489.78 617.3 496.97 618.64 500.73 621.46 502.18 624.76 Z" id="22020690"/>
<path d="M 584.78 59.04 589.84 59.8 600.27 72.38 605.41 72.85 611.04 77.13 615.79 83.15 619.87 92.27 618.83 99.11 620.18 104.45 618.18 106.71 622.54 109.24 629.06 108.79 636.39 111.43 640.16 115.19 642.83 121.22 646.23 124.07 648.25 128.98 645.35 133.24 650.88 138.32 648.32 146.1 643.53 153 638.14 156.64 635.88 161.11 634.08 172.54 635.3 181.64 633.26 185.66 639.7 195.35 644.49 199.23 655.52 204.45 662.09 210.83 665.17 222.87 667.72 227.29 669.04 232.85 673.06 237.12 678.88 240.65 680.45 243.02 686.6 246.24 697.71 249.68 699.95 252.97 705.62 253.45 710.08 260.45 707.98 264.08 707.08 269.75 706.5 287.27 709.33 292.53 706.56 296.62 701.36 298.71 698.45 310.25 696.93 312.75 697.39 325.58 694.88 335.62 695.56 339.5 690.15 346.39 682.45 350.7 680.51 353.66 675.6 356.37 671.05 364.34 680.35 371.16 684.77 380.18 686.3 390.44 690.47 394.03 689.78 397.06 693.93 402.6 693.18 413.63 699.87 419.56 699.45 427.42 700.71 430.98 702.71 436.84 701.46 442.84 697.75 447.2 690.39 461.41 681.9 476.76 670.49 476.69 662.86 470.7 658.21 469.79 652.68 471.35 643.36 467.14 637.5 465.67 618.56 462.48 615.77 461.01 597.92 463.23 593.2 462.57 584.57 458.8 578.44 458.25 567.07 450.82 552.48 452.86 546.59 449.81 534.85 448.03 534.54 444.24 527 444.07 522.2 447.45 516.73 446.22 511.94 441.59 497.41 447.25 486.76 450.37 484.74 448.2 480.28 448.42 474.45 444.25 473.3 440.59 469.74 438.33 468.1 434.5 458.84 427.14 449.61 430.16 444.61 428.25 437 433.86 427.31 432.5 421.72 432.6 414.79 434.32 412.82 427.23 406.8 425.82 400.23 419.47 395.43 421.02 386.28 428.61 380.59 430.49 379.88 432.23 374.64 433.14 368.4 431.89 360.51 435.2 348.05 435.63 339.69 444.74 332 441.3 329.81 445.64 330.11 449.83 314.2 465.95 311.41 472.91 308.8 486.46 300.85 510.03 296.24 506.63 290.88 505.28 278.43 495.97 269.73 492.03 258.06 482.64 243.8 484.12 238.76 482.59 230.54 474.29 225.96 477.11 226.96 481.85 222.48 483.48 214.2 484.51 211.24 482.62 200.95 480.37 197.93 487.17 196.11 498.89 192.38 503.61 178.41 509.1 174.17 508.4 168.29 504.13 163.25 504.46 156.45 499.62 146.25 495.29 137.39 494.71 128.53 498.52 124.97 498.86 114.76 497.44 116.06 494.23 114.11 489.05 113.1 481.4 121.03 473.98 121.65 464.98 119.94 456.91 120.32 438.3 116.61 435.24 109.87 433.09 104.06 433.6 104.88 427.47 103.04 419.87 103.41 412.87 105.58 408.66 105.63 403.24 104.1 396.39 109.81 390.88 108.04 381.98 113.37 374.65 119.1 370.12 119.6 360.51 117.61 358.52 111.71 345.02 98.55 336.23 96.54 328.63 99.55 323.07 101.83 316.01 100.25 313.08 93.11 306.94 87.2 294.22 79.85 288.95 76.74 285.37 77.12 276.64 84.23 264.07 83.44 259.5 80.88 257.14 80.88 252.42 79.2 249.27 71.87 244.59 65.59 243.06 59.54 239.63 58.26 232.45 55.89 225.62 53.59 223.54 51.84 217.67 48.94 212.88 44.35 208.19 36.53 201.76 31.31 196.12 28.78 195.26 15.48 185.64 9.07 182.69 1.11 181.47 1 180.47 8.04 171.61 13.73 163.03 16.19 155.24 21.95 148.87 26.6 145.85 28.28 139.46 31.09 136.75 34.15 130.45 33.26 126.53 41.91 119.02 45.21 110.79 50.71 109.23 54.93 106.5 60.88 100.29 65.24 83.97 69.06 65.04 84.17 69.17 99.36 66.62 101.42 60.06 111.59 57.53 133.86 61.62 142.91 55.25 150.13 52.55 154.78 49.63 174.39 48 180.04 45.9 183.66 39.99 194.31 41.22 203.51 40 211.43 44.69 214.83 45.48 222.36 49.82 224.75 52.36 234.98 58.78 245.2 53.98 250.51 45.42 254.19 45.86 262.17 42.74 282.35 42.17 293.58 39.77 299.89 40.58 306.07 38.04 312.27 27.98 316.75 24.8 320.87 23.81 326.02 20.9 342.42 21.21 346.42 19.84 365.28 20.34 378.15 10.55 392.36 11.58 403.58 12.9 409.95 12 412.86 14.14 422.51 9.4 428.98 5.16 436.03 5.42 448.27 3.03 454.79 1 460.81 10.5 461.07 19.14 476.66 26.55 483.99 32.88 499.13 37.34 509.13 39.16 516.97 39.44 536 42.27 545.09 47.17 551.06 48 556.09 45.95 560.06 47.66 565.89 48.06 569.28 50.69 580.96 54.46 584.78 59.04 Z" id="22020710"/>
<path d="M 533.71 873.71 538.7 874.42 537 877.36 536.74 884.68 532.38 891.71 534.26 895.46 531.38 920.18 528.15 923.45 526.3 927.55 524.54 942.02 517.59 949.48 513.82 956.88 512 966.77 497.57 965.3 491.53 966 486.77 964.72 482.42 960.38 453.07 960.42 442.66 958.6 436.98 956.4 428.92 959.29 423.94 959.89 416.31 956.03 407.03 948.96 403.71 951.68 397.73 946.56 393.85 941.04 393.54 937.47 395.42 928.55 392.61 917.22 392.72 913.32 402.91 911.56 405.3 909.92 411 909.88 417.08 905.8 425.53 902.99 423.77 894.59 449.34 888.2 452.48 885.18 469.09 874.88 473.44 868.18 477.76 863.48 484.06 867.08 495.69 869.09 502.3 866.21 504.18 870.69 506.43 871.4 533.71 873.71 Z" id="22020730"/>
<path d="M 667.71 525.16 672.52 534.05 684.92 548.71 697.52 574.25 699.06 581.24 699.03 585 702.34 594.21 695.04 611.46 690.17 613.3 683.56 636.01 685.53 641.87 675.09 651.98 662.82 665.36 654.42 675.16 639.67 681.02 620.27 686.88 608.3 698.58 601.44 705.99 577.14 703.45 565.7 714.46 564.12 717.42 553.26 743.43 552.17 749.11 540.97 754.2 537.97 751.49 531.43 760.22 530.2 764.77 531.32 771.39 530.13 779.81 525.77 789.22 528.74 792.35 530.57 804.73 534.13 818.77 535.61 829.83 538.5 834.11 543.09 836.48 547.28 836.5 546.4 845.64 539.72 844.23 530.34 840.63 531.74 846.33 532.6 866.59 534.12 869.17 533.71 873.71 506.43 871.4 504.18 870.69 502.3 866.21 495.69 869.09 484.06 867.08 477.76 863.48 473.44 868.18 469.09 874.88 452.48 885.18 449.34 888.2 423.77 894.59 425.53 902.99 417.08 905.8 411 909.88 405.3 909.92 402.91 911.56 392.72 913.32 380.57 886.61 371.63 873.35 364.14 870.25 358.32 870.4 362.23 858.55 364.45 849.32 367.52 847.15 370.59 844.87 383.48 846.35 390.31 846.61 394.82 845.45 406.31 844.2 415.08 844.91 416.37 838.66 416.79 830.29 421.76 821.68 426.99 815.09 435.15 813.95 439.32 815.2 439.07 819.32 444.13 826.12 445.18 830.38 449.34 829.46 454.9 824.76 464.45 826.94 465.8 829.16 473.24 829.49 480.66 827.88 486.05 827.78 486.08 816.97 482.61 804.92 480.25 790.21 483.91 784.31 495.17 772.67 494.31 765.16 497.91 762.41 496.24 757.12 496.37 751.77 493.02 747.22 492.95 742.28 490.23 739.73 489.34 735.24 482.6 729.05 485.85 724.44 490.93 722.73 499.32 716.51 503.12 711.77 509.64 701.23 513.59 696.95 515.3 692.65 515.62 687.6 520.24 681.84 524.22 678.91 527.11 670.16 525.96 665.5 527.09 660.8 530.55 655.29 528.06 653.01 521.9 640.1 518.96 636.01 513.92 631.83 503.64 629.27 502.18 624.76 507.31 621.15 517.75 610.18 517.31 605.15 518.32 599.2 521.79 596.77 528.84 596.38 530.22 591.1 536.02 588.98 539.07 582.78 545.7 575.29 559.09 569.93 565.4 569.89 568.5 565.05 576.24 562.11 575.33 553.7 579 551.14 581.15 543.7 584.01 537.74 581.55 533.64 587.79 529.49 597.93 530.44 602.92 527.38 607.64 527.67 611.81 524.64 615.86 526.6 620.23 524.87 627.33 528.97 630.69 526.38 639.78 526.88 650.49 522.8 653.9 523.6 656.32 526.84 661.95 527.53 662.7 525.51 667.71 525.16 Z" id="22020740"/>
<path d="M 789.13 905.8 789.1 910.12 786.48 912.2 770.11 922.15 766.07 925.76 765.97 929.27 760.84 934.68 749.1 954.68 745.18 963.13 740.57 964.72 723.19 972.56 719.25 973.62 714.35 980.11 708.87 983.46 697.42 993.01 696.49 995.95 693.28 996.85 685.43 1002.06 679.9 1003 667.79 1001.5 660.01 996.17 649.97 986.24 625.52 969.24 620.38 964.02 621.89 962.69 615.39 957.39 612.78 950.65 605.92 950.12 595.07 948.06 585.24 947.86 575.66 945.8 570.59 943.56 560.12 918.65 559.9 914.61 582.28 914.53 605.22 904.45 627.93 894.78 653.7 883.41 657.62 869.5 663.42 859.16 670.6 860.39 681.08 864.17 709.51 881.66 715.56 883.98 722.64 885.52 728.97 885.59 735.55 884.28 744.96 880.54 794.35 857.01 793.38 862.4 789.89 863.53 787.11 867.93 786.91 877.93 783.37 883.24 778.53 886.24 787.69 892.67 789.21 895.58 789.13 905.8 Z" id="22020760"/>
<path d="M 533.71 873.71 534.12 869.17 532.6 866.59 531.74 846.33 530.34 840.63 539.72 844.23 546.4 845.64 546.09 848.02 600.48 852.89 650.1 857.7 663.42 859.16 657.62 869.5 653.7 883.41 627.93 894.78 605.22 904.45 582.28 914.53 559.9 914.61 560.12 918.65 570.59 943.56 565.54 946.31 549.79 946.41 535.73 955.72 530.57 962.43 520.66 963.65 512 966.77 513.82 956.88 517.59 949.48 524.54 942.02 526.3 927.55 528.15 923.45 531.38 920.18 534.26 895.46 532.38 891.71 536.74 884.68 537 877.36 538.7 874.42 533.71 873.71 Z" id="22020770"/>
<path d="M 794.35 857.01 744.96 880.54 735.55 884.28 728.97 885.59 722.64 885.52 715.56 883.98 709.51 881.66 681.08 864.17 670.6 860.39 663.42 859.16 650.1 857.7 600.48 852.89 546.09 848.02 546.4 845.64 547.28 836.5 543.09 836.48 538.5 834.11 535.61 829.83 534.13 818.77 530.57 804.73 528.74 792.35 525.77 789.22 530.13 779.81 531.32 771.39 530.2 764.77 531.43 760.22 537.97 751.49 540.97 754.2 552.17 749.11 553.26 743.43 564.12 717.42 565.7 714.46 577.14 703.45 601.44 705.99 608.3 698.58 620.27 686.88 639.67 681.02 654.42 675.16 662.82 665.36 675.09 651.98 685.53 641.87 683.56 636.01 690.17 613.3 695.04 611.46 702.34 594.21 699.03 585 699.06 581.24 705.09 586.62 711.44 589.26 712.93 591.23 720.16 592.26 727.39 595.39 729.37 597.81 734.87 597.67 739.31 601.84 745.89 602.03 761.42 612.31 763.79 617.26 767.79 621.57 772.3 631.94 772.43 639.77 775.71 642.61 777.55 649.4 781.41 652.82 784.65 661.71 775.42 666.78 769.69 675.19 768.92 681.92 769.39 687.86 771.24 692.44 770.59 698.46 772.83 712.09 774.44 726.32 776.05 731.97 780 737.48 788.47 759.02 792.33 763.35 796.28 765.92 799 771.17 795.07 777.23 794.81 785.19 792.79 789.78 793.13 803.74 789.23 815.86 784.07 824.88 782.45 834.17 779.33 837.45 773.65 838.85 776.7 850.04 782.64 848.46 794.35 857.01 Z" id="22020780"/>
<path d="M 290.88 505.28 288.52 508.59 288.8 511.84 286.99 519.99 289.55 532.42 287.2 535.5 280.26 537.42 277.15 540.78 271.83 543.75 266.72 543.54 264.79 547.72 268.01 550.24 268.05 554.01 266.21 560.84 269.83 571.64 269.06 573.3 270.75 580.26 270.91 586.26 269.48 591.88 266.26 594.12 262.51 600.09 257.41 598.43 250.83 602.58 247.96 601.59 245.3 603.93 247.29 607.4 247.28 615.13 242.86 624.68 239.43 623.81 238.38 628.84 234.13 630.56 229.62 630.41 227.51 632.38 225.41 637.8 221.37 641.89 220.15 645.98 217.44 646.07 216.6 652.04 213.63 653.87 203.88 657.18 217.39 660.19 229.03 660.43 234.31 659.79 238.99 657.61 242.98 657.39 246.22 659.46 236.98 662.1 217.72 671.98 212.15 674.08 206 674.69 192.37 673.2 166.68 714.71 158.3 709.34 150.46 707.98 131.84 713.1 128.94 694.94 126.25 689.24 128.56 678.57 131.77 669.62 144.38 653.42 147.76 645.2 150.94 641.93 152.83 628.99 153.13 617.61 151.32 588.39 150.03 583.16 148.78 569.27 148.11 553.33 145.43 546.72 140.37 540.7 134.02 536.34 134.84 534.07 126.66 534.19 131.66 529.96 129.95 520.23 123.69 514.55 121.39 508.17 114.76 497.44 124.97 498.86 128.53 498.52 137.39 494.71 146.25 495.29 156.45 499.62 163.25 504.46 168.29 504.13 174.17 508.4 178.41 509.1 192.38 503.61 196.11 498.89 197.93 487.17 200.95 480.37 211.24 482.62 214.2 484.51 222.48 483.48 226.96 481.85 225.96 477.11 230.54 474.29 238.76 482.59 243.8 484.12 258.06 482.64 269.73 492.03 278.43 495.97 290.88 505.28 Z" id="22020630"/>
<path d="M 170.13 884.71 165.21 866.06 152.56 849.53 146.57 844.89 154.29 842.58 161.17 839.18 169.62 836.41 168.23 832.2 179.13 829.7 179.7 827.54 183.21 826.23 192.77 827.19 198.85 829.63 204.32 833.67 209.52 838.99 219.36 855.4 218.42 855.85 189.21 877.73 170.13 884.71 Z" id="22020610"/>
<path d="M 128.81 851.22 125.27 852.85 116.36 853.48 101.01 852.23 100.58 852.87 78.55 860.69 75.97 859.62 77.76 858.94 64.61 830.08 66.15 830.57 94.21 823.18 109.46 817.94 112.71 817.03 129.85 836.43 132.36 843.97 128.81 851.22 Z" id="22020530"/>
<path d="M 109.46 817.94 94.21 823.18 66.15 830.57 64.61 830.08 54.33 826.88 53.82 826.01 62.43 810.57 66.15 806.72 70.36 804.58 73.74 792.14 78.49 783.75 80.5 780.72 92.62 770.55 94.75 773.13 99.21 772.42 99.21 778.63 102.04 781.58 109.74 805.03 107.33 810.23 109.46 817.94 Z" id="22020510"/>
<path d="M 199.59 783.78 196.4 789.77 181.06 797.19 158.54 801.82 157.94 801.92 132.79 778.88 135.18 775.46 146.93 762.88 150.74 756.34 165.24 768.44 175.95 771.28 194.99 780.98 199.59 783.78 Z" id="22020550"/>
<path d="M 64.61 830.08 77.76 858.94 75.97 859.62 58.46 865.16 49.15 869.16 48.31 868.66 38.55 861.69 35.62 861.26 34.13 858.78 29.31 856.96 30.16 853.05 44.7 843.97 50.51 835.23 53.19 833.05 54.33 826.88 64.61 830.08 Z" id="22020520"/>
<path d="M 132.79 778.88 157.94 801.92 158.54 801.82 179.7 827.54 179.13 829.7 168.23 832.2 169.62 836.41 161.17 839.18 154.29 842.58 146.57 844.89 143.64 844.5 133.4 847.89 128.81 851.22 132.36 843.97 129.85 836.43 112.71 817.03 109.46 817.94 107.33 810.23 109.74 805.03 102.04 781.58 99.21 778.63 99.21 772.42 94.75 773.13 92.62 770.55 103.76 761.3 126.76 773.61 132.79 778.88 Z" id="22020540"/>
<path d="M 128.81 851.22 125.89 857.84 122.31 868.92 123.65 886.06 125.06 894.95 130.86 915.11 130.75 916.33 87.86 911.89 94.93 902.94 95.57 897.96 78.55 860.69 100.58 852.87 101.01 852.23 116.36 853.48 125.27 852.85 128.81 851.22 Z" id="22020580"/>
<path d="M 146.57 844.89 152.56 849.53 165.21 866.06 170.13 884.71 165.35 887.02 163.64 890.05 144.32 917.45 130.9 916.34 130.75 916.33 130.86 915.11 125.06 894.95 123.65 886.06 122.31 868.92 125.89 857.84 128.81 851.22 133.4 847.89 143.64 844.5 146.57 844.89 Z" id="22020590"/>
<path d="M 262.53 826.88 269.68 833.41 278.99 842.91 281.19 846.59 290.04 853.39 288.27 854.8 275.3 858.5 267.43 857 253.44 846.26 247.76 843.9 243.65 843.7 241.78 846.12 219.08 856.95 218.42 855.85 219.36 855.4 209.52 838.99 204.32 833.67 198.85 829.63 192.77 827.19 183.21 826.23 179.7 827.54 158.54 801.82 181.06 797.19 196.4 789.77 199.59 783.78 203.49 787.97 208.78 789.76 217.2 795.79 219.83 799.28 222.75 796.6 228.57 801.21 229.74 803.98 235.86 810.06 243.57 815.59 249.3 822.59 262.53 826.88 Z" id="22020600"/>
<path d="M 251.95 666.62 245.93 675.28 243.49 674.63 240.35 678.16 238.22 684.16 234.37 686.84 230.14 692.43 225.99 696 224.16 702.53 227.13 711.07 226.59 718.1 222.14 727.44 225.19 731.09 223.08 740.46 218.58 742.06 203.06 776.54 199.59 783.78 194.99 780.98 175.95 771.28 165.24 768.44 150.74 756.34 151.14 750.74 136.84 731.01 135.18 720.94 131.84 713.1 150.46 707.98 158.3 709.34 166.68 714.71 192.37 673.2 206 674.69 212.15 674.08 217.72 671.98 236.98 662.1 246.22 659.46 249.76 661.06 255.08 661.46 251.95 666.62 Z" id="22020650"/>
<path d="M 367.52 847.15 364.45 849.32 362.23 858.55 358.32 870.4 357.32 874.11 352.81 876.26 329.98 879.44 323.62 878.12 312.75 875.59 304.6 871.64 297.29 866.3 290.04 853.39 281.19 846.59 278.99 842.91 269.68 833.41 262.53 826.88 264.77 821.34 270.29 820.26 272.8 815.87 274.19 810.66 283.37 812.07 295.31 813.88 301.39 815.89 331.76 832.13 365.61 843.81 367.52 847.15 Z" id="22020680"/>
</g>
</svg>