<?xml version="1.0"?>
<svg xmlns="http://www.w3.org/2000/svg" version="1.2" baseProfile="tiny" width="800" height="978" viewBox="0 0 800 978" stroke-linecap="round" stroke-linejoin="round">
<g id="dong">
<path d="M 707.24 83.4 790.71 88.19 798.91 112.09 799 134.29 794.18 158.83 791.56 194.32 787 219.14 784.94 245.15 790.37 276.35 766.6 275.89 749.05 257.44 729.84 253.21 731 237.6 677.06 232.48 649.42 177.88 641.98 180.63 603.12 184.51 594.1 169.9 597.63 147.43 578.56 126.71 572.93 107.57 574.11 87.17 586.09 60.97 616.35 64.76 636.83 79.29 707.24 83.4 Z" id="22040510"/>
<path d="M 603.12 184.51 641.98 180.63 649.42 177.88 677.06 232.48 731 237.6 729.84 253.21 749.05 257.44 766.6 275.89 770.81 305.84 741.83 305.26 730.91 299.37 725.85 282.39 682.17 279.46 617.81 274.98 525.35 269.95 525.03 226.58 527.6 225.05 548.36 209.53 552.78 224.67 584.12 221.65 598.31 205.28 603.12 184.51 Z" id="22040530"/>
<path d="M 766.6 275.89 790.37 276.35 782.77 317.35 781.49 363.87 775.65 380.47 767.33 380.88 766.32 398.26 757.61 450.5 764.78 484.88 766.38 511.04 776.64 544.55 788.73 575.98 789.31 602.83 756.68 602.46 748.68 609.12 743.75 637.91 746.99 654.96 739.01 668.45 738.81 688.5 729.44 710.92 704.32 761.88 687.58 815.58 675.12 832.59 656.82 830.39 650.21 842.09 625.26 850.51 592.19 865.4 580.33 882.16 562.87 899.66 557.61 916.48 557.44 929.77 550.93 936.78 521.88 961.96 495.88 967.32 441.33 977 436.04 974.08 433.63 939.45 428.39 940.58 410.28 902.13 473.38 865.75 489.85 837.05 487.21 815.11 523.33 774.07 555.77 739.62 571.74 715.18 586.75 681.98 601.52 669.43 612.69 640.65 597.94 617.22 593.01 592.38 607.09 575.36 621.66 580.35 632.75 535.4 629.72 529.15 633.76 510.4 641.97 502.29 664.96 495.39 672.18 487.4 689.98 478.17 694.82 469.57 688.39 450.65 689.35 438 678.57 415.65 664.24 361.1 674.64 347.47 678.86 333.3 682.17 279.46 725.85 282.39 730.91 299.37 741.83 305.26 770.81 305.84 766.6 275.89 Z" id="22040540"/>
<path d="M 410.28 902.13 401.68 888.16 408.14 887.07 408.86 870.01 421.76 856.83 441.77 826.8 438.88 815.81 445.81 784.68 471.49 747.64 474.48 723.62 465.33 682.02 475.84 659.72 490.3 652.13 503.27 637.6 520.77 581.13 516.84 572.52 512.22 541.26 505.81 518.34 491.63 490.86 485.8 484.29 485.94 471.24 475.25 421.05 465.21 394.56 467.89 388.77 483.7 386.33 508.98 376.95 539.25 370.18 549.01 340.14 553.77 315.81 533.33 316.22 525.33 322.23 525.35 269.95 617.81 274.98 682.17 279.46 678.86 333.3 674.64 347.47 664.24 361.1 678.57 415.65 689.35 438 688.39 450.65 694.82 469.57 689.98 478.17 672.18 487.4 664.96 495.39 641.97 502.29 633.76 510.4 629.72 529.15 632.75 535.4 621.66 580.35 607.09 575.36 593.01 592.38 597.94 617.22 612.69 640.65 601.52 669.43 586.75 681.98 571.74 715.18 555.77 739.62 523.33 774.07 487.21 815.11 489.85 837.05 473.38 865.75 410.28 902.13 Z" id="22040550"/>
<path d="M 603.12 184.51 598.31 205.28 584.12 221.65 552.78 224.67 548.36 209.53 527.6 225.05 527.61 210.64 509.39 189.09 477.94 199.9 474.35 209.64 451.5 216.7 447.75 198 414.13 205.74 418.14 190.13 437.82 149.86 427.37 65.48 481.02 58.85 529.05 54.27 584.73 60.8 586.09 60.97 574.11 87.17 572.93 107.57 578.56 126.71 597.63 147.43 594.1 169.9 603.12 184.51 Z" id="22040570"/>
<path d="M 311.19 811.22 300.63 794.48 256.84 766.53 241.51 764.41 235.71 754.24 239.99 731.11 238.14 705.69 223.14 684.76 212.94 664.04 201.44 652.55 178.55 587.89 160.26 563.81 174.44 559.87 161.19 539.19 144.51 506.86 141.71 469.01 111.17 469.71 108.94 459.07 93.62 426.28 79.92 405.73 138.76 388.82 211.25 382.59 239.25 384.14 241.18 533.73 276.87 550.84 280.4 561.12 292.54 553.07 300.83 566.54 330.22 605.35 351.18 613.8 356.24 627.06 349.12 639.15 361.01 664.23 356.56 685.39 353.89 724.97 357.76 732.77 355.65 762.03 347.33 785.92 311.19 811.22 Z" id="22040610"/>
<path d="M 320.03 388.7 239.25 384.14 211.25 382.59 138.76 388.82 79.92 405.73 33.64 419.9 30.34 420.24 80.54 337.63 95.04 336.93 127.31 327.8 156.27 323.32 159.62 315.26 187.42 316 206.12 307.89 213.9 298.65 224.64 311.96 315.18 385.95 320.03 388.7 Z" id="22040650"/>
<path d="M 374.39 361.7 351.9 377.14 327.58 389.41 320.03 388.7 315.18 385.95 224.64 311.96 213.9 298.65 250.5 269.71 256.39 277.11 307.59 278.14 319.32 261.89 340.67 261.88 343.96 245.42 367.86 245.7 367.94 357.44 374.39 361.7 Z" id="22040560"/>
<path d="M 367.86 245.7 343.96 245.42 353.55 230.9 339.87 225.46 338.38 196.73 330.02 186.95 323.79 168.77 268.9 164.98 280.18 2.24 279.03 1 406.74 67.98 427.37 65.48 437.82 149.86 418.14 190.13 414.13 205.74 418.78 227.59 425.2 244 440.02 252.89 442.54 266.12 435.22 272.2 417.73 266.06 409.16 257.37 392.31 255.6 389.79 248.55 367.86 245.7 Z" id="22040580"/>
<path d="M 80.54 337.63 97.83 309.76 142.24 265.13 265.53 169.7 268.9 164.98 323.79 168.77 330.02 186.95 338.38 196.73 339.87 225.46 353.55 230.9 343.96 245.42 340.67 261.88 319.32 261.89 307.59 278.14 256.39 277.11 250.5 269.71 213.9 298.65 206.12 307.89 187.42 316 159.62 315.26 156.27 323.32 127.31 327.8 95.04 336.93 80.54 337.63 Z" id="22040590"/>
<path d="M 527.6 225.05 525.03 226.58 525.35 269.95 525.33 322.23 533.33 316.22 553.77 315.81 549.01 340.14 539.25 370.18 508.98 376.95 483.7 386.33 467.89 388.77 465.21 394.56 443.81 393.76 443.34 375.84 410.5 340.24 374.39 361.7 367.94 357.44 367.86 245.7 389.79 248.55 392.31 255.6 409.16 257.37 417.73 266.06 435.22 272.2 442.54 266.12 440.02 252.89 425.2 244 418.78 227.59 414.13 205.74 447.75 198 451.5 216.7 474.35 209.64 477.94 199.9 509.39 189.09 527.61 210.64 527.6 225.05 Z" id="22040600"/>
<path d="M 465.21 394.56 475.25 421.05 485.94 471.24 485.8 484.29 491.63 490.86 505.81 518.34 512.22 541.26 516.84 572.52 520.77 581.13 503.27 637.6 490.3 652.13 475.84 659.72 465.33 682.02 474.48 723.62 471.49 747.64 445.81 784.68 438.88 815.81 441.77 826.8 421.76 856.83 408.86 870.01 408.14 887.07 401.68 888.16 375.65 893.81 367.12 888.81 357.18 867.08 339.79 856.65 311.19 811.22 347.33 785.92 355.65 762.03 357.76 732.77 353.89 724.97 356.56 685.39 361.01 664.23 349.12 639.15 356.24 627.06 351.18 613.8 330.22 605.35 300.83 566.54 292.54 553.07 280.4 561.12 276.87 550.84 241.18 533.73 239.25 384.14 320.03 388.7 327.58 389.41 351.9 377.14 374.39 361.7 410.5 340.24 443.34 375.84 443.81 393.76 465.21 394.56 Z" id="22040640"/>
<path d="M 201.44 652.55 182.05 679.62 163.01 673.18 118.77 665.06 105.79 643.08 83.5 592.41 71.61 554.57 46.16 529.44 44.69 515.91 32.53 498.98 1 480.3 8.03 459.1 24.63 427.84 33.64 419.9 79.92 405.73 93.62 426.28 108.94 459.07 111.17 469.71 141.71 469.01 144.51 506.86 161.19 539.19 174.44 559.87 160.26 563.81 178.55 587.89 201.44 652.55 Z" id="22040660"/>
</g>
</svg>