<?xml version="1.0"?>
<svg xmlns="http://www.w3.org/2000/svg" version="1.2" baseProfile="tiny" width="800" height="879" viewBox="0 0 800 879" stroke-linecap="round" stroke-linejoin="round">
<g id="dong">
<path d="M 540.47 788.19 544.67 790.14 549.6 789.1 551.8 792.1 548.29 801.17 554.95 802.78 553.63 808.36 567.68 811.66 573.33 815.52 580.32 816.8 585.53 815.68 597.02 807.89 604.55 799.59 608.78 790.35 611.29 792.71 612.88 815.43 617.25 826.32 621.31 832.09 622.67 837.55 631.87 852.32 643.25 858.18 650.74 858.87 654.44 859.42 666.75 868.22 646.05 876.08 630.52 878 624.61 877.35 608.98 872 578.61 865.67 577.69 869.37 568.96 867.38 566.52 861.6 526.81 852.72 526.96 851.2 537.69 805.58 499.75 796.67 507.71 790.44 510.34 782.28 531.61 787.26 540.47 788.19 Z" id="22050520"/>
<path d="M 552.41 732.36 534.07 739.91 538.41 747.99 545.75 765.29 546.27 769.1 542.77 778.46 540.47 788.19 531.61 787.26 510.34 782.28 507.71 790.44 499.75 796.67 485.47 793.22 489.51 775.52 492.1 759.4 491.44 755.42 497.08 753.29 497.81 737.56 501.7 733.4 510.27 717.68 511.32 711.22 524.21 685.13 521.32 670.09 535.25 672.36 543.95 671.89 558.32 668.26 557.59 675.97 554.98 688 552.54 693.88 548.41 699.03 547.31 703.82 546.54 721.1 550.29 730.39 552.41 732.36 Z" id="22050570"/>
<path d="M 750.59 399.75 758.95 413.28 761.85 421.34 769.76 428.51 771.92 440.79 765.61 446.12 762.06 447.23 761.61 453.41 754.05 454.7 744.74 458.2 732.47 464.68 730.85 466.58 707.18 483.44 693.46 494.07 677.33 509.86 670.6 517.77 664.41 521.27 651.92 534.41 646.65 542.43 638.27 551.93 627.53 559.86 615.96 573.31 615.3 580.67 617.59 593.89 614.83 604.94 607.84 614.87 598.67 619.41 589.37 627.89 580.95 631.85 560.07 634.57 549.77 633.9 545.1 632.01 530.9 629.46 513.57 628.03 482.19 632.29 468.97 636.87 470.11 641.08 461.82 646.94 459.43 650.9 432.28 651.15 430.27 634.91 419.43 637.34 405.62 641.54 403.63 632.66 401.56 616.38 398.93 608.2 393.66 597.73 391.62 590.89 398.01 585.13 399.14 574.42 396.51 563.33 402.35 547.27 405.13 531.75 402.4 526.04 400.74 512.45 405.69 499.47 410.99 495.87 412.26 486.58 420.56 485.03 423.93 487.14 433.15 481.49 435.52 472.56 443.6 462.8 447.93 459.37 451.82 449.88 455.44 448.17 465.55 448.98 477.82 447 479.06 439.69 481.89 433.82 477.12 417.27 480.13 407.15 497.22 390.68 504.06 391.24 514.21 386.12 522.2 384.6 531.38 373.05 539.03 371.14 548.67 371.46 550.58 368.02 553.84 355.68 560.01 352.85 563.64 346.07 573.33 341.38 577.88 331.1 583.33 330.48 588.48 327.05 593.04 330.25 599.2 329.6 614.92 322.43 617.45 312.66 621.58 310.62 629.14 299.26 631.54 291.28 631.48 286.72 634.17 283.16 634.04 274.9 629.31 262.42 617.52 258.53 613.38 253.03 607.35 251.54 593.37 242.45 591.83 236.1 595.24 212.24 592.41 206.11 605.4 195.32 607.1 184.87 611.34 178.32 607.48 169.77 609.08 160.82 607 153.81 610.04 146.15 607.77 134.21 607.85 116.13 610.53 109.83 601.83 100.99 598.36 98.85 596.5 89.04 598.86 84.32 601.17 74.16 599.66 53.11 600.71 41.78 605.89 28.18 603.46 23.88 604.3 15.84 608.22 14.9 607.21 1 617.24 2.55 625.33 6.26 642.11 18.4 645.31 19.5 651.9 26.61 661.75 34.72 667.55 40.64 671.2 46.69 673.42 54.1 676.32 56.72 679.31 65.33 680.92 74.4 688.56 78.72 696.48 80.66 705.72 86.57 707.85 90.54 707.85 96.49 711.08 99.48 712.08 105.24 703.1 121.1 702.62 132.12 706.55 136.64 715.82 143.29 723.28 159.35 732.29 167.09 734.28 170.79 731.4 179.7 727.61 186.71 730.14 196.3 746.74 207.39 754.18 224.43 756.69 226.94 756.07 239.07 748.84 244.79 742.11 254.04 744.35 265.27 737.14 272.23 739.07 280.87 739.01 287.7 736.27 293.02 735.81 301.86 738.13 311.44 737.1 319.18 744.42 318.54 752.92 321.26 757.61 325.12 757.12 348.6 759.28 358.78 758.5 370.14 748.5 379.5 749.77 389.16 752.24 395.69 750.59 399.75 Z" id="22050710"/>
<path d="M 412.26 486.58 410.99 495.87 405.69 499.47 400.74 512.45 402.4 526.04 405.13 531.75 402.35 547.27 396.51 563.33 399.14 574.42 398.01 585.13 391.62 590.89 393.66 597.73 398.93 608.2 401.56 616.38 403.63 632.66 405.62 641.54 419.43 637.34 430.27 634.91 432.28 651.15 414.11 654.96 405.28 658.5 394.84 664.92 379.15 678.43 363.73 694.94 353.7 703.73 350.49 705.27 340.01 704.56 326.25 708.48 318.99 712.48 307.64 716.77 305.3 716.64 296.62 703.04 262.49 720.73 246.29 724.55 228.2 732.63 215.23 748.29 212.48 761.13 207.05 773.16 199.54 787.4 190.42 792.44 185.67 793.64 180.33 794.14 160.26 793.02 154.02 791.9 148.35 786.63 138 773.86 125.36 767.7 110.73 758.14 98.81 752.83 90.37 748.08 67.55 743.07 55.6 737.45 47.84 736.69 20.98 738.03 16.06 740.41 9.33 749.98 2.9 752.04 1.82 749.85 1.46 737.11 6.3 723.13 8.65 711.7 6.04 705.22 1 701.61 2.15 691.42 8.99 683.13 6.56 669.75 3.39 664.59 7.22 661.16 8.93 654.84 12.64 649.87 14.62 643.49 14.22 639.13 22.02 627.88 26.69 625.12 31.03 617.41 33.82 609.36 44.79 605.58 54.5 596.83 58.36 596.6 64.29 600.7 68.55 597.25 76.01 594.01 77.43 588.33 88.05 578.01 90.49 572.21 95 566 109.39 557.17 114.45 549.39 114.94 533.74 122.62 527.78 124.62 520.48 129.15 514.97 130.3 507.96 136.05 509.31 148.02 501.91 153.16 502.19 155.04 507.59 160.08 503.92 168.79 494.8 178.12 488.89 182.05 488.02 186.35 494.64 186.1 511.78 189.91 514.54 194.32 529.41 200.46 535.72 200.03 542.67 202.2 551.33 215.42 554.96 220.44 555.17 226.14 552.37 231.83 553.46 232.89 568.36 235.85 569.22 239.12 583.11 241.93 595.04 244.66 596.01 252.31 605.39 261.39 609.73 268.01 617.06 274.97 621.23 285.02 621.4 291.26 624.03 299.81 615.03 295.45 602.49 302.76 593.09 305.58 587.19 318.12 577.58 319.6 572.71 327.7 565.08 327.68 552.75 329.03 547.84 335.3 539.67 343.39 528.59 353.08 526.97 354.34 524.3 366.24 517.69 371.6 508.73 380.57 504.09 383.92 494.86 391.42 484.7 390.33 480.08 398.88 474.88 404.73 478.28 407.99 477.35 410.08 485.14 412.26 486.58 Z" id="22050750"/>
<path d="M 297.83 214.05 302.83 238.07 311.49 247.76 314.07 252.34 315.98 260.6 322.63 269.06 319.17 270.56 321.92 288.09 319.44 292.41 319.18 299.34 313.73 316.14 303.6 335.55 301.87 340.07 304.84 349.18 320.79 358.24 325.97 365.32 326 371.31 323.04 377.66 313.11 392.63 311.31 400.38 309.85 422.1 305.6 435.25 277.23 432.06 270.81 429.95 272.42 414.58 271.21 414.44 274.03 389.87 279.94 367.88 274.2 369.91 266.45 364.55 262.84 363.9 263.92 334.61 252.24 320.61 247.59 318.43 246.86 311.19 248.44 288.9 243.43 284.71 238.94 277.27 235.94 269.61 235.57 264.62 227.17 244.4 213.92 235.83 202.15 232.79 193.74 232.19 182.37 234.32 173.74 215.28 169.58 212.43 157.48 210.31 154.98 207.01 150.63 183.7 147.76 176.76 146.07 154.75 136.61 134.17 139.17 120.72 136 116.96 130.8 100.76 143.48 90.18 143.39 86.05 139.07 76.33 139.37 66.01 142.09 65.72 157.38 64.09 176.15 74.03 187.98 72.23 195.5 87.04 199.7 90.57 207.51 94.02 215.24 93.86 218.95 98.43 230.4 103.87 236.2 109.94 235.89 119.75 248.73 142.19 252.54 151.92 253.79 162.73 253.46 172.02 255.63 177.14 262.47 183.7 267.77 190.82 272.66 202.59 280.37 201.4 282.5 204.45 289.79 207.91 297.83 214.05 Z" id="22050760"/>
<path d="M 477.12 417.27 481.89 433.82 479.06 439.69 477.82 447 465.55 448.98 455.44 448.17 451.82 449.88 447.93 459.37 443.6 462.8 435.52 472.56 433.15 481.49 423.93 487.14 420.56 485.03 412.26 486.58 410.08 485.14 407.99 477.35 404.73 478.28 398.88 474.88 390.33 480.08 391.42 484.7 383.92 494.86 380.57 504.09 371.6 508.73 366.24 517.69 354.34 524.3 353.08 526.97 343.39 528.59 335.3 539.67 325.14 516.62 319.05 508.02 318.14 503.01 314.24 501.59 309.65 495.34 311.19 491.19 281.89 488.28 284.82 479.99 291.26 469.23 292.95 458.48 299.9 447.29 305.22 436.15 311.08 435.74 353.7 440.05 355.65 425.57 354.53 422.3 365.8 341.1 410.03 347.08 416.11 348.49 419.81 352.13 441.15 333.83 456.73 325.47 460.71 330.59 463.03 351.16 457.63 383.19 455.27 386.92 458.3 398.89 461.01 404.48 460.57 410.57 469.75 418.28 477.12 417.27 Z" id="22050790"/>
<path d="M 491.44 755.42 492.1 759.4 489.51 775.52 485.47 793.22 470.16 785.29 448.13 774.66 401.55 766.47 366.87 760.78 320.06 753.09 311.96 748.12 296.34 727.78 305.3 716.64 307.64 716.77 318.99 712.48 326.25 708.48 340.01 704.56 350.49 705.27 353.7 703.73 363.73 694.94 379.15 678.43 394.84 664.92 405.28 658.5 414.11 654.96 432.28 651.15 459.43 650.9 464.6 652.82 468.42 682.62 467.24 683.48 460.47 714.39 457.37 730.63 463.46 732.2 466.61 744.49 474.53 752.54 477.7 754.37 484.39 753.69 491.44 755.42 Z" id="22050810"/>
<path d="M 477.12 417.27 469.75 418.28 460.57 410.57 461.01 404.48 458.3 398.89 455.27 386.92 457.63 383.19 463.03 351.16 460.71 330.59 456.73 325.47 441.15 333.83 419.81 352.13 416.11 348.49 410.03 347.08 365.8 341.1 368.25 322.68 337.27 325.59 328.64 324.55 314.37 327.85 312.18 326.58 307.97 332.38 303.6 335.55 313.73 316.14 319.18 299.34 319.44 292.41 321.92 288.09 319.17 270.56 322.63 269.06 315.98 260.6 314.07 252.34 311.49 247.76 302.83 238.07 297.83 214.05 302.22 194.36 307.57 182.25 311.3 177.57 314.87 166.53 312.98 155.13 314.65 144.59 317.45 144.68 315.26 134.63 315.46 129.47 319.77 125.62 328.78 121.48 335.62 121.43 340.42 119.03 348.47 122.85 359.81 118.81 367.44 119.41 373.4 113.2 373.21 104.06 417.57 77.26 426.78 80.87 453.32 75.76 470.13 78.46 476.94 76.8 483.1 79.72 482.58 84.14 494.22 78.74 508.21 67.47 512.15 70.62 525.67 68.4 530.06 61.85 543.5 55.75 542.46 36.38 562.29 26.93 576.42 22.76 604.3 15.84 603.46 23.88 605.89 28.18 600.71 41.78 599.66 53.11 601.17 74.16 598.86 84.32 596.5 89.04 598.36 98.85 601.83 100.99 610.53 109.83 607.85 116.13 607.77 134.21 610.04 146.15 607 153.81 609.08 160.82 607.48 169.77 611.34 178.32 607.1 184.87 605.4 195.32 592.41 206.11 595.24 212.24 591.83 236.1 593.37 242.45 607.35 251.54 613.38 253.03 617.52 258.53 629.31 262.42 634.04 274.9 634.17 283.16 631.48 286.72 631.54 291.28 629.14 299.26 621.58 310.62 617.45 312.66 614.92 322.43 599.2 329.6 593.04 330.25 588.48 327.05 583.33 330.48 577.88 331.1 573.33 341.38 563.64 346.07 560.01 352.85 553.84 355.68 550.58 368.02 548.67 371.46 539.03 371.14 531.38 373.05 522.2 384.6 514.21 386.12 504.06 391.24 497.22 390.68 480.13 407.15 477.12 417.27 Z" id="22050830"/>
<path d="M 526.96 851.2 498.89 845.11 474.65 839.34 485.47 793.22 499.75 796.67 537.69 805.58 526.96 851.2 Z" id="22050510"/>
<path d="M 560.07 634.57 559.48 645.23 557.1 652.93 558.32 668.26 543.95 671.89 535.25 672.36 521.32 670.09 524.21 685.13 511.32 711.22 510.27 717.68 501.7 733.4 497.81 737.56 497.08 753.29 491.44 755.42 484.39 753.69 477.7 754.37 474.53 752.54 466.61 744.49 463.46 732.2 457.37 730.63 460.47 714.39 467.24 683.48 468.42 682.62 464.6 652.82 459.43 650.9 461.82 646.94 470.11 641.08 468.97 636.87 482.19 632.29 513.57 628.03 530.9 629.46 545.1 632.01 549.77 633.9 560.07 634.57 Z" id="22050550"/>
<path d="M 588.42 755.1 596.13 770.74 602.09 777.21 608.78 790.35 604.55 799.59 597.02 807.89 585.53 815.68 580.32 816.8 573.33 815.52 567.68 811.66 553.63 808.36 554.95 802.78 548.29 801.17 551.8 792.1 549.6 789.1 544.67 790.14 540.47 788.19 542.77 778.46 546.27 769.1 545.75 765.29 538.41 747.99 534.07 739.91 552.41 732.36 561.43 739.92 588.42 755.1 Z" id="22050560"/>
<path d="M 634.26 661.48 631.62 668.84 623.47 668.58 617.17 671.62 618.14 676.69 613.51 679.63 603.72 694.97 596.57 704.16 601.78 705.51 599.71 721.53 595.69 727.51 591.26 730.55 586.35 737.56 600.31 738.68 594.45 746.03 593.86 750.7 588.87 750.27 588.42 755.1 561.43 739.92 552.41 732.36 550.29 730.39 546.54 721.1 547.31 703.82 548.41 699.03 552.54 693.88 554.98 688 557.59 675.97 558.32 668.26 584.86 660.79 607.08 657.91 627.34 656.64 634.26 661.48 Z" id="22050610"/>
<path d="M 736.71 732.72 722.66 744.4 707.37 757.23 704.82 761.06 694.1 753.14 686.61 750.5 686.58 747.18 674.92 735.24 676.22 722.94 679.15 717.04 675.36 712.28 692.12 693.6 728.41 727.91 736.71 732.72 Z" id="22050650"/>
<path d="M 709.21 632.38 702.86 640.32 700 646.15 696.87 665 693.95 668.42 691.45 680.37 690.51 692.81 689.93 692.98 659.47 677.81 654.28 673.81 644.11 665.29 634.26 661.48 627.34 656.64 607.08 657.91 584.86 660.79 558.32 668.26 557.1 652.93 559.48 645.23 560.07 634.57 580.95 631.85 589.37 627.89 598.67 619.41 607.84 614.87 614.83 604.94 617.59 593.89 615.3 580.67 615.96 573.31 627.53 559.86 638.27 551.93 642.41 559.9 648.52 565.54 652.38 566.84 666.09 578.96 664.16 581.73 670.21 587.15 685.94 577.69 714.88 627.03 709.21 632.38 Z" id="22050620"/>
<path d="M 690.51 692.81 692.12 693.6 675.36 712.28 679.15 717.04 676.22 722.94 674.92 735.24 686.58 747.18 686.61 750.5 694.1 753.14 704.82 761.06 698.83 771.65 694.57 787.35 689.27 790.04 679.68 781.74 661.12 780.75 660.96 784.8 657.6 788.55 650.45 785.1 646.73 779.92 629.34 778.84 623.33 764.99 623.17 756.61 631.03 749.45 630.51 710.32 630.67 700.62 632.39 697.55 654.28 673.81 659.47 677.81 689.93 692.98 690.51 692.81 Z" id="22050630"/>
<path d="M 654.28 673.81 632.39 697.55 630.67 700.62 630.51 710.32 631.03 749.45 623.17 756.61 623.33 764.99 610.16 770.14 608.78 790.35 602.09 777.21 596.13 770.74 588.42 755.1 588.87 750.27 593.86 750.7 594.45 746.03 600.31 738.68 586.35 737.56 591.26 730.55 595.69 727.51 599.71 721.53 601.78 705.51 596.57 704.16 603.72 694.97 613.51 679.63 618.14 676.69 617.17 671.62 623.47 668.58 631.62 668.84 634.26 661.48 644.11 665.29 654.28 673.81 Z" id="22050640"/>
<path d="M 768.01 628.33 765.09 641.79 768.48 648.99 772.14 671.91 776.36 681.8 778.45 694.5 796.49 719.4 795.99 726.47 791.17 734.72 776.36 750.6 773.34 754.92 765.74 748.26 736.71 732.72 728.41 727.91 692.12 693.6 690.51 692.81 691.45 680.37 693.95 668.42 696.87 665 700 646.15 702.86 640.32 709.21 632.38 717.57 630.67 720.84 627.94 725.63 619.41 735.39 621.08 739.18 616.86 746.24 617.37 749.81 625.4 756.4 625.59 768.01 628.33 Z" id="22050660"/>
<path d="M 768.01 628.33 756.4 625.59 749.81 625.4 746.24 617.37 739.18 616.86 735.39 621.08 725.63 619.41 720.84 627.94 717.57 630.67 709.21 632.38 714.88 627.03 685.94 577.69 670.21 587.15 664.16 581.73 666.09 578.96 652.38 566.84 648.52 565.54 642.41 559.9 638.27 551.93 646.65 542.43 651.92 534.41 664.41 521.27 670.6 517.77 677.33 509.86 693.46 494.07 707.18 483.44 730.85 466.58 732.47 464.68 744.74 458.2 754.05 454.7 761.61 453.41 762.06 447.23 765.61 446.12 775.92 445.97 774.89 448.83 782.9 454.34 789.29 461.93 792.66 470.28 793.51 490.4 795.09 507.92 796.72 514.52 799 551.39 798.62 565.76 796.24 582.09 792.22 586.22 787.96 596.58 772.05 617.03 768.01 628.33 Z" id="22050700"/>
<path d="M 335.3 539.67 329.03 547.84 327.68 552.75 327.7 565.08 319.6 572.71 318.12 577.58 305.58 587.19 302.76 593.09 295.45 602.49 299.81 615.03 291.26 624.03 285.02 621.4 274.97 621.23 268.01 617.06 261.39 609.73 252.31 605.39 244.66 596.01 241.93 595.04 239.12 583.11 238.29 575.86 240.81 570.2 258.64 549.69 266.34 537.23 259.79 526.14 264.31 485.8 263.21 485.68 269.61 429.56 270.81 429.95 277.23 432.06 305.6 435.25 305.22 436.15 299.9 447.29 292.95 458.48 291.26 469.23 284.82 479.99 281.89 488.28 311.19 491.19 309.65 495.34 314.24 501.59 318.14 503.01 319.05 508.02 325.14 516.62 335.3 539.67 Z" id="22050740"/>
<path d="M 270.81 429.95 269.61 429.56 253.25 424.16 246.23 422.86 222.74 421.32 215.56 424.95 208.95 424.74 204.17 421.93 201.22 425.4 196.6 425.81 189.49 418.4 185.17 416.5 182.44 411.64 182.33 398.85 186.38 391.92 186.7 387.32 183.98 378.53 184.17 361.58 181 357.93 181.57 351.78 179.74 349.5 179.5 341.44 174.85 333.37 178.91 329 175.66 316.04 177.31 311.76 176.2 305.21 172.19 302.6 169.18 294.85 170.91 287.26 173 270.61 178.13 255.51 182.37 234.32 193.74 232.19 202.15 232.79 213.92 235.83 227.17 244.4 235.57 264.62 235.94 269.61 238.94 277.27 243.43 284.71 248.44 288.9 246.86 311.19 247.59 318.43 252.24 320.61 263.92 334.61 262.84 363.9 266.45 364.55 274.2 369.91 279.94 367.88 274.03 389.87 271.21 414.44 272.42 414.58 270.81 429.95 Z" id="22050770"/>
<path d="M 269.61 429.56 263.21 485.68 264.31 485.8 259.79 526.14 266.34 537.23 258.64 549.69 240.81 570.2 238.29 575.86 239.12 583.11 235.85 569.22 232.89 568.36 231.83 553.46 226.14 552.37 220.44 555.17 215.42 554.96 202.2 551.33 200.03 542.67 200.46 535.72 194.32 529.41 189.91 514.54 186.1 511.78 186.35 494.64 182.05 488.02 178.12 488.89 168.79 494.8 160.08 503.92 155.04 507.59 153.16 502.19 154.68 495.57 154.19 490.24 156.32 486.4 157.37 469.27 160.03 460.42 168.71 445.11 174.27 440.78 177.42 433.93 178.62 415.87 182.44 411.64 185.17 416.5 189.49 418.4 196.6 425.81 201.22 425.4 204.17 421.93 208.95 424.74 215.56 424.95 222.74 421.32 246.23 422.86 253.25 424.16 269.61 429.56 Z" id="22050780"/>
<path d="M 365.8 341.1 354.53 422.3 355.65 425.57 353.7 440.05 311.08 435.74 305.22 436.15 305.6 435.25 309.85 422.1 311.31 400.38 313.11 392.63 323.04 377.66 326 371.31 325.97 365.32 320.79 358.24 304.84 349.18 301.87 340.07 303.6 335.55 307.97 332.38 312.18 326.58 314.37 327.85 328.64 324.55 337.27 325.59 368.25 322.68 365.8 341.1 Z" id="22050820"/>
<path d="M 689.27 790.04 684.56 794.91 673.71 814.39 674.35 815.49 672.91 823.28 669.53 826.02 662.2 837.05 643.85 848.51 642.78 853.45 648.86 855.75 650.74 858.87 643.25 858.18 631.87 852.32 622.67 837.55 621.31 832.09 617.25 826.32 612.88 815.43 611.29 792.71 608.78 790.35 610.16 770.14 623.33 764.99 629.34 778.84 646.73 779.92 650.45 785.1 657.6 788.55 660.96 784.8 661.12 780.75 679.68 781.74 689.27 790.04 Z" id="22050840"/>
</g>
</svg>