<?xml version="1.0"?>
<svg xmlns="http://www.w3.org/2000/svg" version="1.2" baseProfile="tiny" width="800" height="637" viewBox="0 0 800 637" stroke-linecap="round" stroke-linejoin="round">
<g id="dong">
<path d="M 219.58 69.3 219.23 72.06 219.89 72.99 222.59 74.36 223.35 75.76 223.86 79.32 225.35 81 225.05 83.7 226.87 84.61 226.81 87.73 227.11 90.25 227.11 94.35 228.79 95.97 230.47 97.01 229.88 98.15 230.35 102.99 233.39 104.35 235.21 102.76 236.52 104.5 239.66 104.77 241.73 103.52 243.9 101.73 248.65 102.1 248.97 101.06 252.18 102.64 253.27 103.77 254.55 104.24 259.72 103.26 262.55 101.81 262.23 100.49 264.89 99.47 266.17 97.77 266.4 95.63 268.42 94.11 269.03 92.55 273.53 92.9 275.97 93.7 276.85 93.28 278.74 94.1 280.32 94.21 281.18 94.91 283.93 94.87 284.68 95.72 286.84 95.24 288.33 95.49 289.99 96.68 290.18 97.52 293.16 97.76 294.48 96.78 297 97.79 299.37 96.49 301.17 97.81 302.69 100.81 303.11 104 304.37 105.22 304.75 106.37 304.29 108.35 304.65 109.19 307.58 110.82 309.81 110.9 311.42 111.62 313.99 111.83 316.8 111.15 319.47 109.35 322.92 109.13 325.67 110.14 327.33 111.19 330.48 112 332.88 114.55 333.36 115.48 335.04 116.65 337.05 116.32 340.36 115.05 342.07 116.31 345.95 116.82 348.3 117.68 350.16 118.97 350.9 119.91 352.46 120.61 353.85 122.08 355.76 123.43 357.27 126.17 359.4 125.21 361.54 127.09 363.96 127.6 366.55 127.74 367.35 127.8 368.85 129.59 369.06 130.97 369.95 131.11 370.71 132.43 372.07 133.61 373.49 134.13 374.72 135.67 373.86 139.33 374.67 141.86 374.81 144.32 373.67 145.76 373.49 146.77 371.49 147.1 371.76 150.83 371.38 152.12 372.02 153.37 372.11 155.37 373.49 155.86 374.52 158.49 376.39 161.08 373.97 161.79 373.82 163.4 372.52 164.86 373.44 168.11 370.19 169.23 368.57 170.07 367.43 170.13 365.64 171.91 363.24 173.59 366 176.25 365.24 178.08 366.8 179.56 366.73 180.26 368.72 183.53 369.15 184.62 368.3 186.38 365.65 188.59 367.01 190.51 369.51 191.13 370.16 193.98 370.01 195.62 368.96 196.79 365.83 198.88 363.34 199.91 362.89 199.23 358.69 200.16 356.08 199.49 353.7 202.05 351.2 202.01 349.64 205.5 348.36 207.76 346.16 207.18 344.79 207.37 342.43 208.3 340.03 210.49 339.56 211.25 336.96 212.98 335.35 212.82 334.79 215.97 332.44 220.35 330.01 221.62 329.15 220.75 327.77 221.31 322.55 226.95 320.99 227.4 317.99 229.45 317.34 230.33 316.04 230.29 313.46 229.36 311.96 230.09 311.49 232.79 309.9 233.44 306.74 233.6 303.97 232.91 302.87 233.16 301.05 231.25 293.91 224.51 290.72 222.76 289.66 223.46 288.47 225.65 286.71 227.05 285.72 227.31 284.78 228.52 284.39 229.93 282.93 231.07 281.91 235.57 281.36 236.52 281.87 238.52 280.87 240.64 280.6 241.98 280.94 243.78 279.52 246.34 279.01 248.26 278.71 255.07 277.59 259.18 278.06 261.8 275.44 262.71 275.33 264.49 276.19 266.22 275.7 267.8 276.59 271.03 276.56 273.76 279.63 277.53 278.6 279.19 277.84 281.62 276.1 285.2 274.25 285.76 272.92 286.81 273.88 288.75 273.89 290.11 272.92 291.79 271.51 291.96 271.84 294.79 269.64 296.67 268.45 296.96 267.7 298.45 268.41 301.03 265.49 303.68 263.86 303.23 261.89 303.32 261.23 303.9 258.73 303.62 257.92 302.92 252.07 302.72 249.44 301.44 246.56 301.49 245.92 296.75 244.56 295.74 243.14 296.48 242.33 298.06 241.57 298.57 240.21 297.51 236.86 296.85 235.25 297.27 231.15 296.86 228.59 297.59 228.22 293.14 226.96 291.54 223.83 290.24 222.68 286.04 222.14 285.35 220.33 284.49 218.74 283.27 218.63 281.01 218.12 279.27 216.51 276.01 215.33 274.13 211.97 270.8 211.73 268.66 208.24 263.64 203.38 261.06 202.34 260.96 199.33 259.15 195.16 258.33 193.39 258.76 191.9 257.09 191.47 255.5 190.06 253.35 185.73 251.12 186.2 248.39 185.87 247.16 188.38 246.7 191.29 244.28 192.3 241.25 195.09 238.95 195.09 235.13 195.74 231.38 196.71 229.4 198.17 228.47 198.12 225.94 198.64 224.88 198.07 223.71 199.26 219.16 198.4 214.26 198.78 211.4 201.65 211.45 203.75 210.53 205.57 211.09 207.22 210.23 207.85 206.87 207.97 203.53 204.52 199.76 203.56 199.57 201.92 197.89 200.04 196.87 195.81 195.43 194.2 192.84 191.21 190.39 188.09 188.47 187.91 186.65 184.6 185.28 184.3 184.08 182.51 182.18 182.37 178.95 183.85 175.51 183.89 173.1 182.58 171.27 181.01 166.13 178.85 165.65 180.14 163.08 180.87 160.67 180.94 159.2 180.46 157.62 181.2 154.47 182.71 153.4 183.8 151.15 185.36 149.29 186.99 148.04 187.4 146.84 187.41 143.23 186.93 141.47 188.6 137.83 189.01 135.67 190.16 132.58 189.69 131.68 189.91 129.89 190.88 125.65 190.17 123.3 190.54 122.04 195.05 119.21 196.55 120.05 197.5 119.15 197.43 117.31 196.58 114.96 195.73 114.11 196.82 112.02 198.01 111.79 201.06 110.55 202.82 110.4 205.19 109.05 205.05 107.9 203.21 104.78 201.12 102.67 200.12 102.16 196.01 98.94 194.26 98.08 191 97.45 187.07 98.48 186.53 98.83 185.38 93.63 187.31 92.32 187.81 90.65 187.67 87.9 187.88 85.55 192.48 80.01 192.03 73.87 192.13 72.45 191.53 71.38 191.83 70.37 193.06 69.19 193.29 66.05 194.3 65.94 199.74 63.31 200.5 63.4 203.52 61.8 204.29 63.74 208.03 64.68 210.16 63.84 215.12 65.5 215.99 67.33 219.58 69.3 Z" id="22520111"/>
<path d="M 72.68 1.66 72.74 4.63 73.24 5.39 76.3 6.19 77.29 7.05 80.37 6.93 81.51 8.58 84.23 9.72 87.56 9.88 90.57 11.46 94.1 11.52 95.7 13.28 96.63 14.85 98.1 13.21 99.44 17.72 100.54 17.98 102.19 19.11 101.58 23.67 102.17 26.41 101.85 30.66 103.29 31.61 105.93 31.55 107.63 31.95 109.01 32.74 111.5 32.82 112.38 34.74 114.37 35.3 117.28 37.2 118.74 39.08 120.15 39.77 122.21 39.32 123.02 38.44 124.72 38.78 125.52 38.44 127.76 40.04 129.84 42.55 130.68 45.88 131.19 46.52 132.82 45.43 134.21 45.11 139.35 47.46 139.77 48.54 145.91 46.77 149.08 46.78 151.87 47.79 156.16 47.48 156.89 46.88 159.31 47.5 160.23 49.75 163.06 52.75 165.12 51.39 167 52.27 168.76 51.62 169.95 49.95 171.34 50.31 174.79 50.03 175.81 51.85 177.37 53.36 178.94 53.67 180.93 52.81 183.16 54.57 186.04 53.78 187.56 55.08 188.66 57.71 188.72 59.53 191.91 63.26 193.29 66.05 193.06 69.19 191.83 70.37 191.53 71.38 192.13 72.45 192.03 73.87 192.48 80.01 187.88 85.55 187.67 87.9 187.81 90.65 187.31 92.32 185.38 93.63 186.53 98.83 187.07 98.48 191 97.45 194.26 98.08 196.01 98.94 200.12 102.16 201.12 102.67 203.21 104.78 205.05 107.9 205.19 109.05 202.82 110.4 201.06 110.55 198.01 111.79 196.82 112.02 195.73 114.11 196.58 114.96 197.43 117.31 197.5 119.15 196.55 120.05 195.05 119.21 190.54 122.04 190.17 123.3 190.88 125.65 189.91 129.89 189.69 131.68 190.16 132.58 189.01 135.67 188.6 137.83 186.93 141.47 187.41 143.23 187.4 146.84 186.99 148.04 185.36 149.29 183.8 151.15 182.71 153.4 181.2 154.47 180.46 157.62 180.94 159.2 180.87 160.67 180.14 163.08 178.85 165.65 181.01 166.13 182.58 171.27 183.89 173.1 183.85 175.51 182.37 178.95 182.51 182.18 184.3 184.08 184.6 185.28 187.91 186.65 188.09 188.47 191.21 190.39 194.2 192.84 195.81 195.43 200.04 196.87 201.92 197.89 203.56 199.57 204.52 199.76 207.97 203.53 207.85 206.87 207.22 210.23 205.57 211.09 203.75 210.53 201.65 211.45 198.78 211.4 198.4 214.26 199.26 219.16 198.07 223.71 198.64 224.88 198.12 225.94 198.17 228.47 196.71 229.4 195.74 231.38 195.09 235.13 195.09 238.95 192.3 241.25 191.29 244.28 188.38 246.7 185.87 247.16 186.2 248.39 185.73 251.12 183.45 252.57 180.03 253.3 178.21 253.21 174.69 254.64 174.34 255.8 173.68 260.78 170.73 269.64 168.18 270.91 164.9 277.94 163.83 279.62 160.71 283.13 157.9 284.12 153.96 284.61 152.07 282.23 151.9 279.81 152.17 277.99 151.77 275.71 152.16 274.41 151.04 271.87 149.35 271.01 148.33 269.12 148.27 265.9 147.03 262.44 143.12 262.56 141.44 261.62 139.71 258.99 138.38 254.55 137.71 253.21 138.55 246.63 138.92 242.13 137.86 240.48 137.5 236.29 135.53 232.16 135.6 230.44 134.66 229.19 131.28 227.19 128.69 225.28 128.37 223.55 130.39 219.51 129.84 218.15 130.96 216.34 130.53 214.12 128.69 213.05 127.63 210.77 124.55 208.4 123.77 206.25 120.43 205.52 117.82 207.27 116.41 206.99 114.8 205.98 115.11 203.68 117.66 201.62 119.81 200.2 120.95 197.89 123.32 195.91 124.47 194.25 124.9 192.78 124.64 190.82 123.5 188.38 119.77 186.81 115.82 186.65 114.53 185.65 112.73 185.52 109.29 188.38 108.44 189.95 108.49 191.78 107.07 192.26 106.25 193.38 103.86 193.95 101.81 196.79 98.96 196.85 96.14 196.22 94.95 194.71 93.63 195.56 91.7 197.49 89 199.15 86.38 202.01 84.98 202.81 82.61 201.85 81.07 203.17 80.4 202.94 77.38 204.77 72.87 206.92 72.15 208.89 71.44 209.61 69.55 210.21 68.48 212.16 61.48 213.9 59.8 213.76 58.79 212.94 57.09 213.36 56.32 215.81 55.04 216.31 54.51 217.53 53.22 218.17 52.45 219.16 50.89 216.71 49.33 214.89 47.3 210.44 46.91 208.14 47.04 201.75 45.08 198.54 43 196.93 41.7 195.01 41.7 192.24 41.29 188.98 40.72 187.34 38.11 185.39 36.41 184.84 34.45 183.48 32.96 183.82 29.95 183.02 29.05 183.83 26.81 183.92 24.1 182.27 23.29 179.82 23.63 177.87 23.63 175.55 24.57 174.64 23.98 171.77 20.47 170.79 18.62 168.68 13.89 164.7 13.49 160.54 14.03 158.01 15.58 152.98 17.8 152.23 17.58 148.79 16.16 145.44 12.81 143.52 11.95 142.75 11.15 141.06 15.24 140.02 18.22 136.9 19.75 132.58 18.82 128.08 18.29 123.93 18.91 120.94 21.17 116.72 23.39 114.32 24.54 114.54 24.81 112.23 27.04 109.58 27.4 106.91 27.25 105.35 25.55 102.82 23.35 100.57 19.54 99.01 19.14 97.19 14.19 95.74 10.79 91.21 8.97 92.3 6.11 90.7 5.67 87.97 4.56 86.41 2.67 85.13 1 82.15 2.14 80.02 5.97 75.27 6.48 73.91 5.34 72.04 4.67 69.11 6.21 66.72 6.74 64.32 8.75 61.78 10.08 60.49 10.49 58.96 12.5 57.8 12.92 58.24 15.83 57.99 17.97 59.56 20.47 58.73 22.23 58.51 23.82 59.04 25.02 57.91 28.91 58.29 32 55.09 35.21 50.74 35.28 47.24 37.64 45.23 39.59 44.58 41.3 45.58 42.18 47.07 44.03 47.25 45.95 45.66 46.58 43.95 45.83 41.99 46.41 39.75 46.07 38.49 46.48 36.18 45.57 35.5 46.63 33.76 46.84 31.2 46.17 29.15 44.9 27.78 45.8 26.5 48.33 24.3 51.24 23.83 53.46 22.02 56.22 18.9 56.47 16.43 59.16 12.35 59.21 10.26 61.04 8.46 62.54 8.79 65.59 5.95 64.98 4.01 66.5 1.13 68.83 1.82 70.13 1 72.68 1.66 Z" id="22520311"/>
<path d="M 374.54 235.72 376.93 237.4 377.46 239.59 376.67 245.6 375.46 248.63 372.1 251.38 369.05 250.32 365.45 249.96 364.45 250.97 362.4 250.73 359.36 250.81 355.12 253.86 353.52 254.61 352.98 256.25 351.92 257.29 352.26 259.25 349.88 263.35 349.36 265.14 349.28 266.84 346.41 270.81 344.41 271.58 343.27 271.18 340.64 272.19 338.73 273.75 338.11 275.56 336.14 277.36 336.22 278.62 337.26 279.7 338.03 282.88 339.04 283.29 336.55 284.57 331.98 286.46 329.99 285.86 328.84 286.72 329.72 288.12 329.29 290.04 329.6 293.21 330.03 300.53 330 302.72 329.57 303.37 329.94 308.2 330.49 308.99 332 309.46 331.71 312.49 329.19 316.63 327.96 319.61 327.97 321.5 328.53 322.45 332.34 324.1 333.67 325.39 338.74 326.63 340.53 329.55 341.32 332.2 342.08 337.17 341.92 339.52 344.75 342.34 346.42 348.16 348.14 350.11 350.98 354.87 353.36 357.07 354.47 363.21 355.62 364.11 359.54 365.12 361.4 367.62 362.97 368.64 364 369.9 368.35 370.16 372.15 369.49 373.39 370.93 376.13 372.1 378.22 374.02 380 374.55 381.94 374.61 382.96 375.4 382.73 376.58 384.49 378.17 384.81 379.88 385.41 380.53 394.74 381.36 395.7 382.41 398.92 383.71 400.87 385.69 402.25 385.44 404.78 384.35 408.19 384.22 408.6 389.08 409.17 391.32 410.97 392.6 410.51 394.03 411.96 397.88 413.82 399.63 415.29 400.32 415.67 402.59 417.7 404.34 416.85 405.03 416.93 406.47 415.33 406.7 413.8 407.46 413.42 408.26 411.45 409.21 408.77 411.37 407.57 411.64 405.15 412.79 403.35 413.99 401.31 415.87 398.14 417.04 397.46 418.18 396.26 418.73 395.37 420.52 393.36 422.11 390.52 425.3 387.52 427.49 385.93 426.57 384.33 426.77 383.25 427.78 383.16 429.07 381.16 431.71 379.85 432.5 378.94 431.03 377.79 430.79 376.08 431.69 377.11 434.12 377.23 436.84 377.87 438.71 377.87 440.04 378.81 442.66 378.05 444.68 376.16 445.91 375.24 444.6 374.72 442.93 373.29 441.13 370.68 439.73 369.55 439.59 367.71 440.6 367.35 443.07 366.31 443.88 367.15 445.11 368.99 446.37 370.41 449.42 367.81 450.52 367.64 453.77 366.93 454.92 366.23 458.02 365.18 460.74 364.29 461.8 362.28 461.65 361.71 462.72 359.38 464.17 357.82 464.16 356.15 466 355.36 466.36 354.98 467.64 355.82 469.85 355.43 472.83 353.54 478.41 351.48 481.18 351.67 482.73 353.27 487.41 354.48 489.64 355.95 490.17 354.95 491 354.83 492.89 353.74 495.22 351.1 496.71 348.45 497.22 346.79 496.92 344.46 497.58 342.92 496.73 340.15 495.73 338.22 497.19 336.05 497.39 334.58 498.6 329.48 498.54 326.52 499.54 327.5 501.04 324.75 500.55 321 500.49 315.29 501.12 313.03 502.01 311.52 502.08 310.66 503.83 310.07 508.21 310.15 510.18 309.78 511.39 310.26 514.57 311.32 518.24 309.76 519.88 309.01 520 307.87 521.68 306.36 526.43 304.71 526.19 302.8 526.57 300.98 526.46 296.62 525.38 296.02 524.71 294.19 525 290.53 519.08 288.35 516.6 286.92 518.02 283.33 519.05 282.96 521.95 281.23 524.82 279.9 525.35 278.64 526.99 275.8 527.32 275.22 528.03 271.64 530.27 269.97 532.99 269.02 534.04 265.81 536.31 265.06 534.28 264.92 528.78 261.29 521.31 261.21 518.91 259.35 517.5 256.42 513.39 256.37 509.25 257.98 506.03 259.12 504.64 258.1 500.78 258.54 498.44 261.22 494.94 262.4 493.11 260.81 491.33 260.38 489.94 260.76 488.42 262.72 485.38 263.58 478.18 264.2 475.75 262.65 471.64 262.18 467.71 262.25 465.82 261.49 463.38 261.62 461.68 260.87 460.24 258.56 457.24 257.21 456.41 254.71 456.22 254.06 455.26 253.75 453.63 253.95 451.96 255.68 450.03 256.63 447.65 257.09 445.02 256.5 439.15 257.31 435.52 257.37 433.61 254.83 431.38 253.47 430.67 253.42 428.61 253.78 425.63 254.81 424.11 255.2 421.15 254.59 418.99 253.61 417.3 251.17 414.19 249.22 413.66 247.87 412.76 247.01 413.75 245.32 414.04 243.27 411.84 240.21 409.86 239.82 407.32 236.67 402.83 236.22 401.95 236.84 397.96 235.47 395.5 233.29 394.48 231.66 391.82 229.68 391.31 229.66 388.94 231.96 384.59 234.08 381.46 234.52 379.41 236.45 375.01 233.98 372.98 229.43 372.57 228.88 371.85 229.36 370.74 229.59 367.07 231 362.69 230.59 360.58 229.43 357.16 229.88 355.18 231.1 353.92 231.67 351.9 228.98 350.43 227.12 348.57 225.83 345.66 224 345.61 222.27 344.77 218.92 344.05 219.21 342.92 217.72 337.4 216.26 332.83 214.94 331.27 215.49 330.01 218.16 325.97 221.04 323.37 221.87 321.32 222.55 321.12 226.57 324.03 228.19 324.72 231.48 324.44 234.75 323.31 236.33 319.72 237.22 316.47 237.15 312.78 236.84 309 237.42 306.13 238.35 303.71 241.57 298.57 242.33 298.06 243.14 296.48 244.56 295.74 245.92 296.75 246.56 301.49 249.44 301.44 252.07 302.72 257.92 302.92 258.73 303.62 261.23 303.9 261.89 303.32 263.86 303.23 265.49 303.68 268.41 301.03 267.7 298.45 268.45 296.96 269.64 296.67 271.84 294.79 271.51 291.96 272.92 291.79 273.89 290.11 273.88 288.75 272.92 286.81 274.25 285.76 276.1 285.2 277.84 281.62 278.6 279.19 279.63 277.53 276.56 273.76 276.59 271.03 275.7 267.8 276.19 266.22 275.33 264.49 275.44 262.71 278.06 261.8 277.59 259.18 278.71 255.07 279.01 248.26 279.52 246.34 280.94 243.78 280.6 241.98 280.87 240.64 281.87 238.52 281.36 236.52 281.91 235.57 282.93 231.07 284.39 229.93 284.78 228.52 285.72 227.31 286.71 227.05 288.47 225.65 289.66 223.46 290.72 222.76 293.91 224.51 301.05 231.25 302.87 233.16 303.97 232.91 306.74 233.6 309.9 233.44 311.49 232.79 311.96 230.09 313.46 229.36 316.04 230.29 317.34 230.33 317.99 229.45 320.99 227.4 322.55 226.95 327.77 221.31 329.15 220.75 330.01 221.62 332.44 220.35 334.79 215.97 335.35 212.82 336.96 212.98 339.56 211.25 340.03 210.49 342.43 208.3 344.79 207.37 346.16 207.18 348.36 207.76 349.64 205.5 351.2 202.01 353.7 202.05 356.08 199.49 358.69 200.16 362.89 199.23 363.34 199.91 363.9 200.85 366.1 201.52 368.85 203.19 368.21 209.28 366.79 213.94 365.12 216.08 362.19 217.24 361.88 218.54 364.72 222.47 366.01 223.56 366.41 226.53 367.95 232.89 371.9 234.27 374.54 235.72 Z" id="22520312"/>
<path d="M 441.44 418.76 440.47 420.83 441.21 422.41 441.02 424.25 441.49 425.8 439.69 428.24 439.42 430.13 440.77 432.64 440.45 436.38 442.33 437.55 442.77 439.45 445.58 438.12 447.11 439.29 448.83 438.08 453 438.8 453.38 441.13 456.37 442.45 456.94 443.47 456.47 445.37 457.15 446.13 458 448.4 459.59 449.34 460.85 452.22 461.54 455.18 460.46 456.67 458.75 460.29 457.53 462.11 456.56 462.89 456.45 464.56 456.95 465.11 461.68 467.73 463.13 466.5 466.05 466.21 466.44 467.05 467.98 466.24 469.54 464.89 471.94 465.07 472.27 464.34 474.42 463.84 475.18 463.01 475.17 461.13 479.45 460.88 480.52 461.57 479.83 462.99 480.36 464.82 478.85 465.81 479.67 467.42 479.58 468.36 477.47 469.47 478.3 470.1 478.44 471.51 477 472.03 477.46 473.49 477.02 474.37 474.98 475.36 474.27 476.77 474.16 479.77 473.52 480.39 476.37 485.69 476.48 488.19 473.55 492.27 472.9 492.51 469.71 495.81 468.59 497.41 466.21 498.86 468.3 501.1 468.54 502.24 467.75 503.61 468.29 505.64 466.91 509.03 466.53 511.1 465.84 511.63 464.19 516.07 463.22 518.14 463.1 519.68 462.2 522.42 460.97 524.77 459.61 526.63 460.7 528.79 461.27 530.83 460.88 532.85 461.34 534.51 462.62 537.1 460.48 537.94 456.26 539.99 455.04 541.53 453.39 542.52 447.7 545.34 445.99 548.76 444.14 551.33 446.01 552.9 449.32 554.19 450.42 555.54 451.71 559.53 454.1 562.34 455.96 563.68 456.76 566.4 459.68 569.4 459.6 569.88 461.8 572.42 462.72 573.85 465.11 575.54 466.57 577.15 468.73 577.77 471.51 579.21 473.03 579.13 474.38 580.35 475.3 583.74 476.52 585.47 477.32 587.59 477.48 588.96 478.25 589.97 478.7 591.92 478.35 594.64 478.69 595.07 477.63 596.88 478.02 597.77 477.38 600.25 475.83 602.61 475.09 605.78 471.78 611.54 469.83 612.97 472.24 617.03 470.1 617.7 466.08 618.48 463.77 618.4 461.64 619.79 458.48 621.34 457.52 620.64 455.43 620.94 451.75 620.5 447.08 620.17 442.86 623.38 436.67 623.21 435.36 623.67 429.97 623.56 428.28 624.52 426.93 624.84 425.46 625.89 423.42 629.19 421.39 630.02 419.32 629.76 415.64 630.54 409.01 630.73 406.39 631.76 405.18 631.61 403.44 634.42 400.09 636 396.73 633.89 395.94 633.06 393.47 631.63 392.36 631.37 389.76 629.84 386.74 630.24 383.24 629.83 380.76 625.18 377.47 620.47 376.84 617.22 372.95 613.94 368 611.02 363.5 608.53 359.66 607.51 356.69 604.65 353.41 603.22 351.29 600.94 351.91 599.11 351.02 595.29 352.13 591.64 351.95 589.42 350.93 586.12 351.59 583.56 352.97 581.42 353.73 579.52 353.79 578.13 352.89 575.74 355.06 572.9 355.73 571.39 358.48 567.51 358.68 565.99 358.26 563.95 359.83 562.69 360.92 561.26 361.26 559.88 360.48 557.98 360.23 556.06 360.96 554.6 361.67 551.94 362.71 549.71 362.66 548.03 363.36 545.87 362.38 544.82 362.44 543.33 363.06 540.75 362.01 537.26 362.18 535.28 361.42 532.77 361.64 531.3 363.5 530.71 365.14 531.22 364.84 528.4 367.07 523.85 367.15 520.67 368.33 517.38 366.5 515.78 365.13 515.26 362.61 513.49 359.96 513.18 360.09 512.46 361.81 510.8 362.4 508.93 361.02 507.09 362.45 506.3 364.24 504.05 366.1 500.38 365.82 497.67 364.13 495.96 361.11 493.52 360.55 491.56 359.86 490.87 357.15 490.81 355.95 490.17 354.48 489.64 353.27 487.41 351.67 482.73 351.48 481.18 353.54 478.41 355.43 472.83 355.82 469.85 354.98 467.64 355.36 466.36 356.15 466 357.82 464.16 359.38 464.17 361.71 462.72 362.28 461.65 364.29 461.8 365.18 460.74 366.23 458.02 366.93 454.92 367.64 453.77 367.81 450.52 370.41 449.42 368.99 446.37 367.15 445.11 366.31 443.88 367.35 443.07 367.71 440.6 369.55 439.59 370.68 439.73 373.29 441.13 374.72 442.93 375.24 444.6 376.16 445.91 378.05 444.68 378.81 442.66 377.87 440.04 377.87 438.71 377.23 436.84 377.11 434.12 376.08 431.69 377.79 430.79 378.94 431.03 379.85 432.5 381.16 431.71 383.16 429.07 383.25 427.78 384.33 426.77 385.93 426.57 387.52 427.49 390.52 425.3 393.36 422.11 395.37 420.52 396.26 418.73 397.46 418.18 398.14 417.04 401.31 415.87 403.35 413.99 405.15 412.79 407.57 411.64 408.77 411.37 411.45 409.21 413.42 408.26 413.8 407.46 415.33 406.7 416.93 406.47 416.85 405.03 417.7 404.34 419.47 402.51 420.78 400.58 421.76 400.91 422.87 399.98 424.08 399.89 428.62 405.9 431.12 407.03 431.27 409.59 430.3 413.95 432.24 415.34 433.22 414.65 434.15 415.64 435.98 415.06 438.18 413.82 439.67 415.42 440.56 417.9 441.44 418.76 Z" id="22520313"/>
<path d="M 472.47 231.4 470.99 233.3 469.98 233.63 469.32 237.15 467.67 238.66 466.8 240.23 466.98 244.9 468.24 248.06 467.64 250.41 467.86 250.9 467.42 254.5 468.64 257.33 467.63 258.99 463.39 261.5 463.42 263.3 460.34 266.51 459.6 271.94 460.74 273.54 460.48 274.6 461.04 275.57 461.45 278.49 459.84 281.27 460.15 282.94 459.48 283.64 460.54 286.61 456.45 287.69 455.18 288.57 451.71 288.9 447.82 291.68 445.13 291.55 443.02 290.07 439.48 288.26 438.37 287.98 431.93 288.32 432.03 289.43 433.71 290.66 433.38 292.03 434.64 293.15 435.39 294.71 436.19 294.99 439.88 297.77 440.86 299.32 440.08 301.39 437.89 303.84 438.57 305.73 440.69 307.78 438.91 311.39 436.83 314.25 435.8 317.57 437.24 318.24 441.31 319.25 442.6 318.93 445.7 319.48 446.22 321.14 449.28 320.7 451.41 321.26 452.39 322.02 452.15 325.08 453.35 326.68 454.92 327.57 455.85 325.65 456.64 325.58 458.17 326.73 459.33 328.15 457.82 330.14 458.27 331.42 459.42 332.63 458.63 333.55 459.02 334.64 460.77 334.38 462.35 333.21 463.31 334.02 465.61 334.95 466.4 336.43 468.44 337.35 469.65 339.61 472.08 338.78 473.31 337.22 474.94 336.58 478.83 336.33 482.36 336.99 482.88 338.26 484.23 339.47 485.13 339.69 484.7 342.09 485.82 344.36 485.74 345.39 486.39 348.16 485.37 351.1 486.6 352.45 486.72 354.07 485.6 355.33 486.41 357.44 487.6 358.81 485.1 364.46 481.67 366.23 480.54 367.26 477.98 368.69 476.37 368.95 473.97 370.31 472.79 370.57 470.46 372.56 469.97 373.58 469.95 377.88 470.87 379.47 471.11 382.5 470.65 383.76 469.79 383.98 468.55 387.85 467.63 389.97 467.7 392.06 466.19 391.82 464.14 394.55 462.99 396.88 459.25 397.1 458.02 400.73 456.15 402.39 455.81 403.72 454.37 404.07 453.36 404.98 453.89 407.1 453.18 407.54 452.75 411.56 449.16 413.62 445.75 416.52 443.33 416.93 442.14 417.65 441.44 418.76 440.56 417.9 439.67 415.42 438.18 413.82 435.98 415.06 434.15 415.64 433.22 414.65 432.24 415.34 430.3 413.95 431.27 409.59 431.12 407.03 428.62 405.9 424.08 399.89 422.87 399.98 421.76 400.91 420.78 400.58 419.47 402.51 417.7 404.34 415.67 402.59 415.29 400.32 413.82 399.63 411.96 397.88 410.51 394.03 410.97 392.6 409.17 391.32 408.6 389.08 408.19 384.22 404.78 384.35 402.25 385.44 400.87 385.69 398.92 383.71 395.7 382.41 394.74 381.36 385.41 380.53 384.81 379.88 384.49 378.17 382.73 376.58 382.96 375.4 381.94 374.61 380 374.55 378.22 374.02 376.13 372.1 373.39 370.93 372.15 369.49 368.35 370.16 364 369.9 362.97 368.64 361.4 367.62 359.54 365.12 355.62 364.11 354.47 363.21 353.36 357.07 350.98 354.87 348.14 350.11 346.42 348.16 344.75 342.34 341.92 339.52 342.08 337.17 341.32 332.2 340.53 329.55 338.74 326.63 333.67 325.39 332.34 324.1 328.53 322.45 327.97 321.5 327.96 319.61 329.19 316.63 331.71 312.49 332 309.46 330.49 308.99 329.94 308.2 329.57 303.37 330 302.72 330.03 300.53 329.6 293.21 329.29 290.04 329.72 288.12 328.84 286.72 329.99 285.86 331.98 286.46 336.55 284.57 339.04 283.29 338.03 282.88 337.26 279.7 336.22 278.62 336.14 277.36 338.11 275.56 338.73 273.75 340.64 272.19 343.27 271.18 344.41 271.58 346.41 270.81 349.28 266.84 349.36 265.14 349.88 263.35 352.26 259.25 351.92 257.29 352.98 256.25 353.52 254.61 355.12 253.86 359.36 250.81 362.4 250.73 364.45 250.97 365.45 249.96 369.05 250.32 372.1 251.38 375.46 248.63 376.67 245.6 377.46 239.59 376.93 237.4 374.54 235.72 378.45 229.23 379.4 226.46 381.59 224.52 381.77 223.46 382.76 223.15 384.43 221.55 385.57 221.06 387.31 218.66 387.06 217.12 389.18 214.37 392.01 215.45 393.67 215.32 394.62 216.24 396.23 216.13 398.32 214.26 400.37 213.61 400.76 212.18 400.41 210.08 405.87 209.74 406.99 207.44 408.89 208.06 411.47 209.34 411.44 212.07 414.99 212.14 414.88 214.66 417.06 216.25 416.27 218.54 419.82 220.54 420.14 222.89 419.71 225.69 421.93 228.63 423 231.2 425.1 231.86 427.46 233.42 428.24 231.32 428.21 229.85 429 229.37 429.33 227.78 430.22 225.94 431.54 225.25 431.75 224.34 433.9 224.31 435.2 222.66 436.49 222.72 442.5 220.02 443.22 219.09 444.41 218.97 446.28 220.05 448.31 219.98 449.22 221.11 453 221.9 454.33 224.02 456.61 224.98 458.89 224.23 461.26 221.6 463.09 221.31 464.37 222.94 466.44 223.64 467.62 225.42 469.42 225.8 469.2 228.71 472.47 231.4 Z" id="22520314"/>
<path d="M 622.58 263.83 623.41 265.85 622.87 269.32 624.06 272.36 623.26 275.21 623.98 278.96 623.56 280.65 624 286.36 625.2 288.89 624.22 291.78 625.1 292.77 623.83 294.92 623.72 298.42 622.94 299.83 620.76 300.7 620.27 301.6 618.51 302.41 616.98 303.95 620.41 306.22 620.6 307.36 620.11 309.04 620.4 310.59 620 312.22 619.13 313.82 618.12 314.69 618.15 321.81 617.3 324.38 616.14 326.24 616.41 327.83 613.66 330.08 613.07 333.34 611.34 335.41 609.8 336.43 609.14 339.8 608.06 341.16 606.1 341.18 602.47 340.28 600.93 338.68 598.73 338.04 593.56 339.9 590.21 340.61 588.37 339.99 584.89 341.02 583.67 341.94 580.9 343.11 581.36 346.58 580.33 349.32 578.15 354.31 576.14 356.42 578.05 362.28 578.98 364.2 579.44 367.35 578.89 371.39 573.67 371.39 571.04 372.04 567.44 371.38 564.04 371.41 563.15 371.92 561.16 371.8 558.26 370.82 556.61 371.88 554.42 372.1 554.54 377.67 555.46 381.33 556.54 389.78 551.22 390.19 549.31 389.82 548.47 390.69 546.14 391.55 545.17 394.17 544.53 394.57 542.12 397.66 540.87 399.7 540.54 400.97 541.23 401.95 540.77 403.74 539.58 403.85 538.05 402.19 532.71 399.03 531.28 397.56 529.86 397.02 527.06 393.58 527.08 392.03 524.21 391.08 522.51 388.09 521.73 386.21 522.37 384.24 521.8 381.1 520.68 379.75 519.89 378 520.6 373.89 520.57 372.19 521.54 371.36 521.51 367.97 520.74 366.52 520.67 364.48 521.37 362.21 519 361.13 518.29 361.32 516.78 360.24 515.86 358.16 514.14 357.7 510.94 358.34 509.97 357.78 509.97 356.04 509.46 354.58 509.57 353.13 507.81 346.93 506.92 345.98 506.48 344.66 505.24 345.06 499.51 345.98 496.65 347.08 495.26 348.3 493.37 348.69 491.13 348.62 486.39 348.16 485.74 345.39 485.82 344.36 484.7 342.09 485.13 339.69 484.23 339.47 482.88 338.26 482.36 336.99 478.83 336.33 474.94 336.58 473.31 337.22 472.08 338.78 469.65 339.61 468.44 337.35 466.4 336.43 465.61 334.95 463.31 334.02 462.35 333.21 460.77 334.38 459.02 334.64 458.63 333.55 459.42 332.63 458.27 331.42 457.82 330.14 459.33 328.15 458.17 326.73 456.64 325.58 455.85 325.65 454.92 327.57 453.35 326.68 452.15 325.08 452.39 322.02 451.41 321.26 449.28 320.7 446.22 321.14 445.7 319.48 442.6 318.93 441.31 319.25 437.24 318.24 435.8 317.57 436.83 314.25 438.91 311.39 440.69 307.78 438.57 305.73 437.89 303.84 440.08 301.39 440.86 299.32 439.88 297.77 436.19 294.99 435.39 294.71 434.64 293.15 433.38 292.03 433.71 290.66 432.03 289.43 431.93 288.32 438.37 287.98 439.48 288.26 443.02 290.07 445.13 291.55 447.82 291.68 451.71 288.9 455.18 288.57 456.45 287.69 460.54 286.61 459.48 283.64 460.15 282.94 459.84 281.27 461.45 278.49 461.04 275.57 460.48 274.6 460.74 273.54 459.6 271.94 460.34 266.51 463.42 263.3 463.39 261.5 467.63 258.99 468.64 257.33 467.42 254.5 467.86 250.9 467.64 250.41 468.24 248.06 466.98 244.9 471.52 246.73 472.96 246.53 475.98 246.87 476.4 247.72 477.72 248.52 478.89 248.46 479.96 250.88 482.44 250.47 486.91 251.68 488.53 251.22 491.03 249.88 492.74 250.5 494.85 248.63 497.69 248.4 499.99 247.72 501.99 248.5 503.16 248.33 504.02 251.17 504.05 252.37 507.07 252.27 509.67 250.05 511.8 250.51 513.48 249.77 514.39 248.63 513.11 247.34 514.35 246.83 515.82 247.58 517.48 246.78 520.86 250.61 523.02 249.58 525.54 249.34 529.67 246.62 530.62 247.74 532.28 247.88 532.81 247.39 535.33 248.09 536.58 249.49 538.56 249.56 540.68 250.82 542.9 252.97 543.22 255.4 544.52 255.83 546.28 257.84 547.61 258.87 550.02 257.26 553.51 255.74 553.86 254.19 554.76 253.39 554.93 251.45 554.01 249.89 555.21 248.09 556.31 247.48 556.92 245.31 556.56 244.27 558.28 241.94 562.03 242.61 563.63 242.53 566.85 241.68 567.96 244.09 567.87 245.08 569.56 246.94 572.48 248.54 575.68 248.58 579.7 253.23 579.84 254.02 582.57 256.43 585.43 259.33 586.62 260.21 590.51 257.55 594.5 257.11 595.55 257.83 597.93 257.84 599.15 258.3 602.93 258.28 603.94 257.98 606 259.27 609.71 258.95 611.45 259.52 615.4 260.33 622.58 263.83 Z" id="22520315"/>
<path d="M 539.58 403.85 537.08 406.41 539.99 410.73 541.74 412.51 541.84 415.62 543.23 417.05 544.07 418.55 544.46 420.26 546.2 424.71 547.49 425.97 549.43 429.36 549.46 432.11 548.86 436.3 548.16 436.99 548.54 438.14 548.33 439.63 547.38 441.21 548.02 443.19 547.4 443.91 545.48 444.66 544.42 446.35 541.79 448.75 540.36 448.75 538.56 449.82 535.47 449.31 534.59 449.86 533.95 451.82 535.19 454.11 533.91 456.99 532.18 458.13 531.23 459.69 526.42 462.33 523.98 463.24 523.24 462.74 521.44 462.74 520.11 461.87 518.81 462.52 517.39 464.08 516.34 464.43 515.28 466.49 513.99 468.08 515.91 469.29 515.64 470.98 518.47 472.93 518.5 474.29 521.57 474.77 522.74 477.59 522.56 479.78 523.41 480.14 524.65 482.87 524.26 483.64 524.84 486.4 523.98 487.01 521.88 490.06 520.55 491.05 520.95 494.27 518.79 496.77 517.27 497.03 517.67 499.47 516.03 501.03 514.47 501.96 512.22 502.32 511.5 501.07 509.27 500.56 507.98 498.86 506.3 499.68 503.76 498.34 500.12 497.82 499.83 499.75 498.94 500.89 498.22 502.98 498.92 505.2 497.34 507.15 497.38 509.84 496.2 513.23 496.94 515.36 495.9 516.15 494.28 516.41 493.6 517.12 494.14 519.7 492 521.2 492.13 522.23 491.25 523.05 490 527.12 488.4 528.2 487.69 529.41 485.45 530.42 484 533.08 484.57 534.59 483.13 536.27 482.69 538.1 483.8 538.55 483.44 539.98 484.3 540.42 483.46 542.6 484.27 545.91 485.44 549.25 486.04 551.85 485.86 554.2 485.02 558.28 485.08 560.29 483.99 562.35 482.67 565.87 481.49 567.13 480.33 569.63 477.99 572.08 476.18 573.21 475.91 574.04 474.51 575.39 473.59 576.82 473.03 579.13 471.51 579.21 468.73 577.77 466.57 577.15 465.11 575.54 462.72 573.85 461.8 572.42 459.6 569.88 459.68 569.4 456.76 566.4 455.96 563.68 454.1 562.34 451.71 559.53 450.42 555.54 449.32 554.19 446.01 552.9 444.14 551.33 445.99 548.76 447.7 545.34 453.39 542.52 455.04 541.53 456.26 539.99 460.48 537.94 462.62 537.1 461.34 534.51 460.88 532.85 461.27 530.83 460.7 528.79 459.61 526.63 460.97 524.77 462.2 522.42 463.1 519.68 463.22 518.14 464.19 516.07 465.84 511.63 466.53 511.1 466.91 509.03 468.29 505.64 467.75 503.61 468.54 502.24 468.3 501.1 466.21 498.86 468.59 497.41 469.71 495.81 472.9 492.51 473.55 492.27 476.48 488.19 476.37 485.69 473.52 480.39 474.16 479.77 474.27 476.77 474.98 475.36 477.02 474.37 477.46 473.49 477 472.03 478.44 471.51 478.3 470.1 477.47 469.47 479.58 468.36 479.67 467.42 478.85 465.81 480.36 464.82 479.83 462.99 480.52 461.57 479.45 460.88 475.17 461.13 475.18 463.01 474.42 463.84 472.27 464.34 471.94 465.07 469.54 464.89 467.98 466.24 466.44 467.05 466.05 466.21 463.13 466.5 461.68 467.73 456.95 465.11 456.45 464.56 456.56 462.89 457.53 462.11 458.75 460.29 460.46 456.67 461.54 455.18 460.85 452.22 459.59 449.34 458 448.4 457.15 446.13 456.47 445.37 456.94 443.47 456.37 442.45 453.38 441.13 453 438.8 448.83 438.08 447.11 439.29 445.58 438.12 442.77 439.45 442.33 437.55 440.45 436.38 440.77 432.64 439.42 430.13 439.69 428.24 441.49 425.8 441.02 424.25 441.21 422.41 440.47 420.83 441.44 418.76 442.14 417.65 443.33 416.93 445.75 416.52 449.16 413.62 452.75 411.56 453.18 407.54 453.89 407.1 453.36 404.98 454.37 404.07 455.81 403.72 456.15 402.39 458.02 400.73 459.25 397.1 462.99 396.88 464.14 394.55 466.19 391.82 467.7 392.06 467.63 389.97 468.55 387.85 469.79 383.98 470.65 383.76 471.11 382.5 470.87 379.47 469.95 377.88 469.97 373.58 470.46 372.56 472.79 370.57 473.97 370.31 476.37 368.95 477.98 368.69 480.54 367.26 481.67 366.23 485.1 364.46 487.6 358.81 486.41 357.44 485.6 355.33 486.72 354.07 486.6 352.45 485.37 351.1 486.39 348.16 491.13 348.62 493.37 348.69 495.26 348.3 496.65 347.08 499.51 345.98 505.24 345.06 506.48 344.66 506.92 345.98 507.81 346.93 509.57 353.13 509.46 354.58 509.97 356.04 509.97 357.78 510.94 358.34 514.14 357.7 515.86 358.16 516.78 360.24 518.29 361.32 519 361.13 521.37 362.21 520.67 364.48 520.74 366.52 521.51 367.97 521.54 371.36 520.57 372.19 520.6 373.89 519.89 378 520.68 379.75 521.8 381.1 522.37 384.24 521.73 386.21 522.51 388.09 524.21 391.08 527.08 392.03 527.06 393.58 529.86 397.02 531.28 397.56 532.71 399.03 538.05 402.19 539.58 403.85 Z" id="22520316"/>
<path d="M 769.99 246.81 769.07 249.6 768.76 253.05 769.18 256.17 768.94 258.73 767.23 260.27 766.39 263.21 770.85 266.72 772.12 273.03 771.59 273.99 771.42 275.8 773.65 275.52 775.44 275.93 776.26 276.85 781.52 278.92 783.45 281.7 783.94 286.12 783.86 290.01 783.44 290.93 784.71 292.37 786.09 292.94 787.55 294.86 788.1 294.9 790.16 296.85 789.86 302.86 789.4 304.46 791.19 308.11 794.39 312.47 795.61 313.74 797.52 316.95 799 318.34 797.58 319.27 794.12 322.17 791.45 323.6 789.92 326.48 788.3 330.6 786.42 332.78 785.35 333.29 786.43 335.64 786.38 339.23 785.06 341.18 784.08 345.48 784.28 346.76 783.11 348.93 783.39 351.05 784.15 352.24 784.79 354.58 785.77 356.43 783.63 357.22 783 358.38 779.13 357.87 777.83 358.21 774.33 356.61 771.68 358.53 769.67 358.22 766.94 358.68 763.62 358.47 761.37 358.6 757.75 358.25 754.04 356.14 750.9 354.71 748.78 354.39 747.41 353.65 742.44 355.54 738.13 354.36 737.26 353.89 732.15 354.48 728.95 360.11 728.91 361.04 724.17 366.02 721.88 367.95 719.91 368.56 719.18 371.86 719.49 372.69 719.52 375.57 721.44 379.96 722.42 380.68 723.59 383.77 724.46 387.75 724.52 390.44 722.78 391.42 721.61 394.35 720.5 396.14 721.72 398.1 723.13 402.04 722.77 403.45 720.81 408.32 715.78 410.92 713.02 411.43 711.3 412.21 709.47 415.24 710.28 416.91 709.54 418.46 708.33 419.08 705.01 418.22 703.86 418.74 702.43 418.31 699.72 418.98 698.88 421.74 697.93 425.89 698.49 429.18 697.86 431.06 695.98 434.11 695.48 434.48 694.74 436.82 693.42 439.07 691.67 441.27 690.12 440.3 687.97 439.7 685.87 440.62 683.43 442.59 680.96 443.14 680.03 443.66 678.38 443.74 677.13 444.85 674.94 444.64 671.43 448.42 670.14 449.05 668.55 451.88 668.41 452.83 669.65 456.58 669.58 457.42 667.99 457.97 666.69 459.14 665.69 461.14 661.22 462.3 659.16 464.6 657.86 465.56 657.55 467.26 656.47 467.85 653.36 468.65 651.68 469.48 646.55 469.96 643.95 473.13 642.7 474.25 636.95 475.67 635.62 473.88 633 472.48 631.51 472.28 626.76 473.21 625.55 472.96 623.87 473.24 621.42 474.72 620.6 474.31 619.1 468.34 618.65 467.45 616.91 466.77 615.17 465.19 612.49 464.24 610.71 463.11 608.67 462.78 606.74 460.38 600.78 455.61 598.23 456.5 596.87 455.34 591.8 453.75 589.29 453.33 589.21 452.8 587.23 449.85 585.61 450.67 585.71 448.19 584.97 446.86 581.17 445.99 576.47 450.07 573.11 452.31 571.68 453.8 570.05 456.17 569.73 459.47 566.03 462.23 563.92 466.07 562.34 464.59 560.94 464.09 559.4 464.11 558.34 463.59 560.82 459.45 562.24 456 561.29 453.01 562.26 451.01 561.93 449.64 559.94 449.37 559.69 446.81 560.41 443.94 560.19 441.58 558.24 439.92 556.72 437.31 555.44 436.25 554.7 434.91 552.58 434.14 552.29 431.79 550.38 429.79 549.43 429.36 547.49 425.97 546.2 424.71 544.46 420.26 544.07 418.55 543.23 417.05 541.84 415.62 541.74 412.51 539.99 410.73 537.08 406.41 539.58 403.85 540.77 403.74 541.23 401.95 540.54 400.97 540.87 399.7 542.12 397.66 544.53 394.57 545.17 394.17 546.14 391.55 548.47 390.69 549.31 389.82 551.22 390.19 556.54 389.78 555.46 381.33 554.54 377.67 554.42 372.1 556.61 371.88 558.26 370.82 561.16 371.8 563.15 371.92 564.04 371.41 567.44 371.38 571.04 372.04 573.67 371.39 578.89 371.39 579.44 367.35 578.98 364.2 578.05 362.28 576.14 356.42 578.15 354.31 580.33 349.32 581.36 346.58 580.9 343.11 583.67 341.94 584.89 341.02 588.37 339.99 590.21 340.61 593.56 339.9 598.73 338.04 600.93 338.68 602.47 340.28 606.1 341.18 608.06 341.16 609.14 339.8 609.8 336.43 611.34 335.41 613.07 333.34 613.66 330.08 616.41 327.83 616.14 326.24 617.3 324.38 618.15 321.81 618.12 314.69 619.13 313.82 620 312.22 620.4 310.59 620.11 309.04 620.6 307.36 620.41 306.22 616.98 303.95 618.51 302.41 620.27 301.6 620.76 300.7 622.94 299.83 623.72 298.42 623.83 294.92 625.1 292.77 624.22 291.78 625.2 288.89 624 286.36 623.56 280.65 623.98 278.96 623.26 275.21 624.06 272.36 622.87 269.32 623.41 265.85 622.58 263.83 626.33 264.91 629.66 264.63 632.06 259.32 633.39 254.12 637.63 250.37 640.25 243.96 640.48 241.89 640.16 241.02 641.11 239.68 639.63 237.68 638.63 236.91 637.53 234.53 640.31 233.52 643.29 231.99 642.17 229.49 641.37 226.41 642.76 225.42 647.46 225.7 652.37 225.15 653.21 225.69 654.71 224.78 656.37 224.68 657.7 223.76 659.89 221.49 662.49 217.95 663.4 217.69 664.58 215.92 666.54 214.71 668.83 213.73 669.91 212.48 671.66 211.27 673.03 210.97 675.28 209.57 677.45 208.85 681.02 209.47 684.14 209.12 687.14 213.63 690.01 215.9 691.88 215.91 693.66 214.73 697.68 214.67 700.22 213.77 702.65 212.58 704.47 212.41 705.29 213.69 708.46 215.62 712.3 215.08 713.17 215.24 715.33 217.9 717.56 219.31 719.94 219.23 720.81 221.13 723.4 222.76 727.29 224.85 727.95 226.88 729.42 228.75 731.03 229.85 732.64 230.41 734.72 229.63 738.23 230.92 741.73 233.33 746.24 232.98 750.34 233.65 751.79 236.64 753.52 239.62 755.64 244.26 758.43 246.44 762.09 246.11 766.07 245.96 769.99 246.81 Z" id="22520317"/>
</g>
</svg>