<?xml version="1.0"?>
<svg xmlns="http://www.w3.org/2000/svg" version="1.2" baseProfile="tiny" width="800" height="431" viewBox="0 0 800 431" stroke-linecap="round" stroke-linejoin="round">
<g id="dong">
<path d="M 227.73 188.39 222.43 199.35 211.34 206.99 207.08 224.94 227.58 259.8 219.83 253.7 198.26 235.4 184.6 227.77 168.45 225.01 152.9 227.03 131.77 235.85 113.47 205.06 93.32 199.98 87.03 192.11 102.4 178.66 106.51 170.41 114.56 173.71 119.77 154.6 23.5 192.48 1 132.13 27.57 121.08 42.04 160.96 55 156.48 41.28 116.52 56.97 104.61 66.45 101.51 80.44 142.47 94.5 139.63 79.41 95.25 98.45 88.29 106.74 111.39 113.68 108.35 105.22 85.8 141.06 72.09 155.53 64.56 165.75 63.32 176.25 89.63 183.6 89.66 184.81 74.81 178.46 58.55 202.97 52.64 217.68 68.44 188.3 141.93 196.64 145.45 232.47 154.68 232.1 169.56 215.89 179.14 227.73 188.39 Z" id="23020510"/>
<path d="M 292.99 262.82 281.94 272.48 274.52 282.98 270.79 297.84 266.43 298.25 255.06 290.08 229.38 265.07 227.58 259.8 207.08 224.94 211.34 206.99 222.43 199.35 227.73 188.39 235.17 190.02 238.92 198.71 265.74 205.52 275.86 201.06 290.31 202.92 280.77 222.03 292.3 231.71 281.27 249.59 281.2 257.83 292.99 262.82 Z" id="23020520"/>
<path d="M 431.18 311.4 426.7 333.87 420.72 335.17 418.08 350.47 402.15 347.89 396.28 342.71 395.05 329.23 380.58 311.93 377.13 304.21 381.28 285.29 386.11 277.97 391.69 272.52 409.05 264.16 417.7 256.22 419.37 245.9 438.37 253.01 429.79 305.24 431.18 311.4 Z" id="23020590"/>
<path d="M 343.34 210.29 340.1 213.9 301.8 250.77 292.99 262.82 281.2 257.83 281.27 249.59 292.3 231.71 280.77 222.03 290.31 202.92 275.86 201.06 265.74 205.52 238.92 198.71 235.17 190.02 227.73 188.39 215.89 179.14 232.1 169.56 232.47 154.68 196.64 145.45 188.3 141.93 217.68 68.44 245.3 104.1 273.55 133.72 322.47 165.64 353.09 192.12 355.53 195.71 343.34 210.29 Z" id="23020530"/>
<path d="M 315.2 336.24 307.64 345.44 301.72 336.65 266.43 298.25 270.79 297.84 274.52 282.98 281.94 272.48 292.99 262.82 301.8 250.77 340.1 213.9 355.11 225.26 351.4 229.64 358.96 238.88 365.3 253.26 363.94 266.52 368.7 274.8 363.87 291.5 354.61 299.23 322.07 299.02 324.33 315.3 310.73 321.06 315.92 327.03 315.2 336.24 Z" id="23020550"/>
<path d="M 374.92 6 383.72 3.18 562.2 124.67 529.43 171.62 517.93 163.91 483.56 135.86 469.99 149.6 434.94 192.79 439.2 196.43 428.7 216.13 442.57 227.83 428.72 230.3 424.45 236.03 442.39 239.06 438.37 253.01 419.37 245.9 417.7 256.22 409.05 264.16 391.69 272.52 386.11 277.97 368.7 274.8 363.94 266.52 365.3 253.26 358.96 238.88 351.4 229.64 355.11 225.26 340.1 213.9 343.34 210.29 357.43 198.31 357.31 190.4 321.38 159.05 272.15 117.48 254.58 91.74 223.42 49.71 219.49 39.57 328.96 1 336.51 16.6 365.76 7.38 374.92 6 Z" id="23020570"/>
<path d="M 386.11 277.97 381.28 285.29 377.13 304.21 380.58 311.93 395.05 329.23 396.28 342.71 359.46 355.57 353.98 345.49 336.33 354.12 322.51 338.37 315.2 336.24 315.92 327.03 310.73 321.06 324.33 315.3 322.07 299.02 354.61 299.23 363.87 291.5 368.7 274.8 386.11 277.97 Z" id="23020580"/>
<path d="M 522.22 311.63 513.2 341 526.56 347.87 529.24 365.7 525.94 377.71 528.51 385.6 524.61 409.31 505.9 405.63 500.24 411.4 483.36 414.68 469.66 407.63 440.03 404.44 446.67 396.7 424.89 392.96 415.81 387.32 424.96 372.72 416.65 361.31 418.08 350.47 420.72 335.17 426.7 333.87 431.18 311.4 437.47 322.37 446.23 313.51 469.23 305.16 468.68 297.94 492.48 289.06 490.91 307.21 507.6 305.55 522.22 311.63 Z" id="23020600"/>
<path d="M 799 297.02 797.95 317.8 754.38 301.26 744.77 295.94 611.34 210.47 558.89 186.14 534.57 221.29 534.01 255.9 549.88 261.45 551.89 271 546.54 275.96 538.12 296.4 528.96 308.38 522.22 311.63 507.6 305.55 490.91 307.21 492.48 289.06 483.57 269.99 502.05 236.37 507.2 223.29 515.93 221.47 542.78 180.58 529.43 171.62 562.2 124.67 639.68 177.34 673.72 201.21 758.83 281.33 760.53 283.87 799 297.02 Z" id="23020610"/>
<path d="M 529.43 171.62 542.78 180.58 515.93 221.47 507.2 223.29 502.05 236.37 483.57 269.99 492.48 289.06 468.68 297.94 469.23 305.16 446.23 313.51 437.47 322.37 431.18 311.4 429.79 305.24 438.37 253.01 442.39 239.06 424.45 236.03 428.72 230.3 442.57 227.83 428.7 216.13 439.2 196.43 434.94 192.79 469.99 149.6 483.56 135.86 517.93 163.91 529.43 171.62 Z" id="23020630"/>
<path d="M 396.28 342.71 402.15 347.89 418.08 350.47 416.65 361.31 424.96 372.72 415.81 387.32 424.89 392.96 446.67 396.7 440.03 404.44 428.84 410.01 414.84 408.52 400.91 399.08 396.21 408.46 409.81 421.73 405.63 430 360.67 399.62 344.95 390.47 323.47 368.72 318.09 357.74 307.64 345.44 315.2 336.24 322.51 338.37 336.33 354.12 353.98 345.49 359.46 355.57 396.28 342.71 Z" id="23020640"/>
</g>
</svg>