<?xml version="1.0"?>
<svg xmlns="http://www.w3.org/2000/svg" version="1.2" baseProfile="tiny" width="800" height="871" viewBox="0 0 800 871" stroke-linecap="round" stroke-linejoin="round">
<g id="dong">
<path d="M 358.3 346.48 357.17 355.16 351.29 357.26 348.52 364.05 344.05 366.76 340.28 374.91 330.19 380.55 326.42 374.66 317.93 370.38 310.25 373.5 303.23 379.62 304.08 385.45 298.52 387.26 296.27 392.11 298.42 397.24 294.44 401.38 287.12 400.43 279.62 366.89 281.38 365.65 280.63 354.13 282.78 338.15 282.09 325.35 292.26 237.41 368.14 244.62 364.84 284.59 363.47 284.26 360.65 313.89 358.3 346.48 Z" id="23050510"/>
<path d="M 441.52 287.73 447.09 287.64 454.98 298.98 467.26 311.31 470.8 330.95 473.59 337.49 472.81 343.86 476.01 349.73 486.03 363.1 490.81 374.19 492.31 380.92 487.22 392.74 487.05 411.24 481.85 442.6 495.24 454.88 496.29 465.74 501.82 468.73 505.64 489.78 513.07 488.53 526.66 532.17 513.45 536.91 507.37 543.04 502.2 545.88 489.64 543.54 486.18 546.5 480.74 560.15 481.58 570.82 479.26 573.98 460.24 587.76 462.05 597.15 439.23 613.37 431.63 614.49 425.22 619.65 413.81 615.12 406.96 616.85 401.79 615.14 397.47 614.39 385.48 621.88 373.79 625.82 367.88 625.68 363.09 630.85 359.08 627.91 358.48 620.36 354.27 611 356.47 604.64 346.27 602.85 338.88 588.39 331.12 592.32 327.22 584.58 329.34 578.61 326.52 568.46 328.5 558.53 323.74 545.94 307.02 603.73 300.64 614.84 298.08 614.44 220.97 568.56 201.31 553.01 224.84 531.96 262.7 484.7 269.27 472.71 271.44 463.96 271.42 453.76 273.88 453.4 274 438.33 278.98 419.61 281.17 402.08 287.12 400.43 294.44 401.38 298.42 397.24 296.27 392.11 298.52 387.26 304.08 385.45 303.23 379.62 310.25 373.5 317.93 370.38 326.42 374.66 330.19 380.55 340.28 374.91 344.05 366.76 348.52 364.05 351.29 357.26 357.17 355.16 358.3 346.48 362.12 344.08 370.03 344.53 374.2 340.96 374.2 334.53 384.58 329.87 394.69 323.44 405.91 318.06 413.78 317.9 427.24 311.17 433.57 292.91 437.92 285.01 441.52 287.73 Z" id="23050670"/>
<path d="M 405.04 695.03 422.49 691.92 436.49 688.35 447.63 688.16 463.89 692.2 467.18 689.84 476.57 696.95 481.57 705.04 495.68 723.33 500.69 720.32 502.56 731.31 490.51 735.19 471.31 756.82 460.76 769.47 452.84 784.56 439.78 796.69 417.89 825.47 382.48 858.15 371.69 854.18 348.47 856.87 356.7 859.75 358.49 866.85 353.36 870 339.09 867.66 323.96 864.19 313.19 859.57 306.02 858.02 302.93 860.01 229.11 844.07 221.02 841.92 220.15 839.35 209.71 838.67 205.25 836.05 139.82 821.98 129.29 820.44 124.6 828.42 121.42 824.67 125.28 818.45 67.17 805.69 45.39 799.64 28.27 790.94 1 771.38 2.68 769.21 5.03 770.95 22.52 752.23 80.25 689.01 96.41 677.88 114.03 669.63 123.65 661.79 128.91 653.47 131.92 644.91 133.29 635.11 138.1 618.14 142.33 610.78 158.33 608.11 170.9 611.22 194.64 630.14 208.72 638.95 222.37 650.56 234.22 658.67 261.11 668.26 259.5 674.84 288.86 692.65 318.86 711.41 324.33 714.3 348.23 709.3 387.25 702.52 400.83 698.81 405.04 695.03 Z" id="23050740"/>
<path d="M 783.68 73.78 781.34 89.36 792.28 104.53 790.52 109.09 793.38 114.78 794.93 126.25 791.93 133.62 783.97 148.21 780.32 152.97 785.81 159.6 787.92 180.13 780.42 185.43 777.59 202.43 782.38 203.87 799 221.69 796.01 226.3 795.91 235.69 789.14 256.12 783.47 256.15 752.02 260.81 737.16 271.33 730.51 278.74 728.06 287.28 732.88 292.92 733.49 296.85 727.81 304.82 716.86 316.64 713.31 322.8 716.62 325.32 721.4 336.16 720.47 340.96 724.03 346.01 726.72 357.52 728.71 372.62 733.92 384.2 733.44 399.2 727.1 415.13 718.37 423.97 722.36 426.88 733.06 428.02 731.54 433.54 729.58 443.06 723.1 452.9 719.73 463.08 711.77 465.74 706.49 470.07 695.19 472.57 686.88 475.94 671.05 473.42 673.49 465.5 663.64 456.85 656.86 452.51 651.94 438.93 650.15 422.9 605.74 421.13 603.12 417.98 586.33 417.42 584.32 419.99 570.39 419.5 560.8 421.2 540.76 420.36 537.53 413.59 531.41 414.29 527.47 412.19 537.76 403.37 537.27 399.87 541.7 389.73 549.07 383.98 545.51 376.92 539.38 376.59 539.3 364.36 544.9 356.36 554.17 355.14 557.07 360 561.52 356.55 560 346.9 555 340.62 563.54 341.13 570.55 337.35 580.97 337.05 589 322.68 587.12 317.4 588.27 311.24 586.27 306.37 577.29 304.38 565.43 306.01 559.7 302.27 551.67 290.17 549.53 283.3 553.69 270.4 552.24 264.62 523.6 257.08 520.71 255.05 533.53 229.87 536.67 219.43 539.07 202.47 535.58 196.21 534.63 185.65 531.02 182.61 536.35 173.2 533.88 166.44 529.37 162.79 536 148.49 540.32 133.32 551.29 130.12 559.65 137.87 566.82 129.48 570.8 127.54 583.6 126.01 602.54 134.51 612.55 132.29 615.79 128.76 619.69 117.79 626.23 114.99 629.58 110.38 635.51 97.33 646.66 94.37 658.74 95.37 672.48 90.74 698.51 91.87 705.15 84.09 710.5 74.06 723.11 72.04 733.01 73.55 740.02 69.13 746.05 68.55 758.44 77.01 762.84 74.59 768.72 74.88 776.08 70.02 783.68 73.78 Z" id="23050750"/>
<path d="M 527.47 412.19 531.41 414.29 537.53 413.59 540.76 420.36 560.8 421.2 570.39 419.5 584.32 419.99 586.33 417.42 603.12 417.98 605.74 421.13 650.15 422.9 651.94 438.93 656.86 452.51 663.64 456.85 673.49 465.5 671.05 473.42 658.98 473.47 648.05 468.21 644.16 472.11 645.9 477.87 644.53 484.07 636.74 486.25 627.19 492.8 621.04 500.84 607.77 505.04 620.24 544.57 615.42 550.71 609.72 555.01 569.43 531.84 560.87 527.67 547.83 523.63 526.64 521.39 516.39 488.54 513.07 488.53 505.64 489.78 501.82 468.73 496.29 465.74 495.24 454.88 481.85 442.6 487.05 411.24 498.52 413.49 504.83 411.34 520.21 412.63 527.47 412.19 Z" id="23050760"/>
<path d="M 609.72 555.01 603.53 560.72 596.64 606.93 595.32 609.86 574.11 639.47 550.21 647.19 546.94 649.66 545.61 656.24 538.43 659.78 545.25 687.85 538.73 693.17 542.36 695.81 527.98 700.83 522.13 711.36 515.98 719.14 513.96 718.51 502.56 731.31 500.69 720.32 495.68 723.33 481.57 705.04 476.57 696.95 467.18 689.84 463.89 692.2 447.63 688.16 436.49 688.35 422.49 691.92 405.04 695.03 401.85 681.01 402.29 669.2 394.77 636.2 397.57 621.62 401.79 615.14 406.96 616.85 413.81 615.12 425.22 619.65 431.63 614.49 439.23 613.37 462.05 597.15 460.24 587.76 479.26 573.98 481.58 570.82 480.74 560.15 486.18 546.5 489.64 543.54 502.2 545.88 507.37 543.04 513.45 536.91 526.66 532.17 513.07 488.53 516.39 488.54 526.64 521.39 547.83 523.63 560.87 527.67 569.43 531.84 609.72 555.01 Z" id="23050720"/>
<path d="M 388.37 170.44 386.91 213.86 370.84 213.15 368.14 244.62 292.26 237.41 293.75 221.31 293.55 204.48 295.63 203.04 324.42 201.13 322.72 170.55 333.87 169.83 360.97 170.29 376.23 169.9 376.96 168.08 388.37 170.44 Z" id="23050521"/>
<path d="M 292.26 237.41 282.09 325.35 282.78 338.15 280.63 354.13 281.38 365.65 279.62 366.89 287.12 400.43 281.17 402.08 275.94 387.59 268.87 376.83 269.82 361.06 253.48 360.65 251.74 357.31 255.56 323.83 240.56 321.65 210.24 311.27 198.61 303.69 187.47 293.11 193.06 289.04 191.53 283.64 185.29 278.59 188.27 265.35 183.27 264.97 183.74 259.06 184.17 251.75 195.14 252.52 196.39 234.24 199.66 224.39 200.63 214.03 216.75 217.65 237.96 225.92 247.82 222.18 249.82 205.27 259.76 206.41 293.55 204.48 293.75 221.31 292.26 237.41 Z" id="23050530"/>
<path d="M 386.91 213.86 391.88 214.32 411.75 232.12 417.05 247.95 421.24 260.95 441.23 276.2 443.56 283.52 441.52 287.73 437.92 285.01 433.57 292.91 427.24 311.17 413.78 317.9 405.91 318.06 394.69 323.44 384.58 329.87 374.2 334.53 374.2 340.96 370.03 344.53 362.12 344.08 358.3 346.48 360.65 313.89 363.47 284.26 364.84 284.59 368.14 244.62 370.84 213.15 386.91 213.86 Z" id="23050540"/>
<path d="M 295.63 203.04 293.55 204.48 259.76 206.41 249.82 205.27 247.82 222.18 237.96 225.92 216.75 217.65 200.63 214.03 196.87 211.14 198.38 198.16 198.08 187.51 203.07 183.32 203.93 176.03 208.7 169.21 215.97 164.72 218.1 165.29 238.87 152.56 241.92 147.72 241.94 140.19 252.43 139.98 270.06 134.56 282.06 127.03 291.37 116.84 292.5 138.52 294.02 138.86 295.87 172.4 274.3 173.6 274.67 185.65 278.33 188.98 296.22 200.99 295.63 203.04 Z" id="23050550"/>
<path d="M 295.63 203.04 296.22 200.99 278.33 188.98 274.67 185.65 274.3 173.6 295.87 172.4 294.02 138.86 292.5 138.52 291.37 116.84 293.68 116.46 365.91 162.05 376.96 168.08 376.23 169.9 360.97 170.29 333.87 169.83 322.72 170.55 324.42 201.13 295.63 203.04 Z" id="23050561"/>
<path d="M 400.77 89.2 401.78 106.85 391.17 123.98 390.1 133.29 383.36 132.26 382.19 139.9 389.29 142.03 388.37 170.44 376.96 168.08 365.91 162.05 293.68 116.46 292.97 99.13 291.58 94.17 292.03 83.19 290.76 77.37 294.25 72.74 299.55 60.64 300.43 48.59 302.5 36.26 307.7 18.79 312.14 1 315.14 7.22 318.88 23.27 329.9 27.58 335.67 32.61 345.71 32.52 359.96 43.28 367.4 55.61 374.72 59.76 376.31 65.58 382.88 71.29 384.16 79.07 389.58 87.55 400.77 89.2 Z" id="23050570"/>
<path d="M 190.67 89.87 211.61 101.75 219.76 104.5 223.39 98.32 231.58 102.43 242.46 106.07 258.43 108.67 259.61 101.04 267.97 102.53 269.94 91.7 282.24 93.93 291.58 94.17 292.97 99.13 293.68 116.46 291.37 116.84 282.06 127.03 270.06 134.56 252.43 139.98 241.94 140.19 241.92 147.72 238.87 152.56 218.1 165.29 215.97 164.72 193.5 135.6 185.85 134.56 184.32 125.67 166.16 124.3 143.09 121.28 146.32 96.67 126 91.95 135.99 73.71 139.25 67.76 154.85 80.51 167.58 81.14 175.76 85.05 187.01 92.97 190.67 89.87 Z" id="23050580"/>
<path d="M 523.6 257.08 552.24 264.62 553.69 270.4 549.53 283.3 551.67 290.17 544.67 287.82 526.76 285.98 526.49 283.19 517.35 282.22 444.22 277.55 443.56 283.52 441.23 276.2 421.24 260.95 417.05 247.95 444.24 250.03 446.6 219.75 468.92 221.73 494.47 243.76 499.28 244.8 514.99 254.93 523.6 257.08 Z" id="23050590"/>
<path d="M 442.01 198.89 426.46 185.08 446.9 163.05 440.06 159.74 433.56 154.32 436.68 142.38 429.3 137.59 437.21 134.66 445.34 137.19 454.93 137.77 455.47 133.02 466.3 134.37 478.57 115.37 483.59 112.87 482.47 105.99 486.28 105.35 490.4 112.64 498.02 110.52 503.23 114.12 507.14 100.04 525.44 99.92 528.84 106.6 533.15 104.59 536.26 115.7 539.9 120.03 551.14 122.24 551.29 130.12 540.32 133.32 536 148.49 516.21 150.58 514.38 149.6 498.77 165.49 484.82 161.84 474.77 169.85 449.25 191.65 442.01 198.89 Z" id="23050600"/>
<path d="M 533.15 104.59 528.84 106.6 525.44 99.92 507.14 100.04 503.23 114.12 498.02 110.52 490.4 112.64 486.28 105.35 482.47 105.99 483.59 112.87 478.57 115.37 466.3 134.37 455.47 133.02 454.93 137.77 445.34 137.19 437.21 134.66 429.3 137.59 436.68 142.38 433.56 154.32 440.06 159.74 446.9 163.05 426.46 185.08 416.8 177.26 408.65 174.32 388.37 170.44 389.29 142.03 382.19 139.9 383.36 132.26 390.1 133.29 391.17 123.98 401.78 106.85 400.77 89.2 418.03 87.69 422.05 85.75 425.16 77.3 435.22 72.26 438.56 68.99 449.1 69.03 452.58 62.28 465.9 71.76 496.34 79.29 502.72 81.49 508.29 80.33 520.43 90.84 528.94 94.48 533.15 104.59 Z" id="23050610"/>
<path d="M 523.6 257.08 514.99 254.93 499.28 244.8 494.47 243.76 468.92 221.73 442.01 198.89 449.25 191.65 474.77 169.85 484.82 161.84 498.77 165.49 514.38 149.6 516.21 150.58 536 148.49 529.37 162.79 533.88 166.44 536.35 173.2 531.02 182.61 534.63 185.65 535.58 196.21 539.07 202.47 536.67 219.43 533.53 229.87 520.71 255.05 523.6 257.08 Z" id="23050620"/>
<path d="M 468.92 221.73 446.6 219.75 444.24 250.03 417.05 247.95 411.75 232.12 391.88 214.32 386.91 213.86 388.37 170.44 408.65 174.32 416.8 177.26 426.46 185.08 442.01 198.89 468.92 221.73 Z" id="23050630"/>
<path d="M 441.52 287.73 443.56 283.52 444.22 277.55 517.35 282.22 526.49 283.19 526.76 285.98 544.67 287.82 551.67 290.17 559.7 302.27 565.43 306.01 577.29 304.38 586.27 306.37 588.27 311.24 587.12 317.4 589 322.68 580.97 337.05 570.55 337.35 563.54 341.13 555 340.62 560 346.9 561.52 356.55 557.07 360 554.17 355.14 544.9 356.36 539.3 364.36 539.38 376.59 545.51 376.92 549.07 383.98 541.7 389.73 537.27 399.87 537.76 403.37 527.47 412.19 520.21 412.63 504.83 411.34 498.52 413.49 487.05 411.24 487.22 392.74 492.31 380.92 490.81 374.19 486.03 363.1 476.01 349.73 472.81 343.86 473.59 337.49 470.8 330.95 467.26 311.31 454.98 298.98 447.09 287.64 441.52 287.73 Z" id="23050640"/>
<path d="M 401.79 615.14 397.57 621.62 394.77 636.2 402.29 669.2 401.85 681.01 405.04 695.03 400.83 698.81 387.25 702.52 348.23 709.3 324.33 714.3 318.86 711.41 288.86 692.65 259.5 674.84 261.11 668.26 234.22 658.67 222.37 650.56 208.72 638.95 194.64 630.14 170.9 611.22 158.33 608.11 142.33 610.78 143.38 608.04 177.23 574.54 200.72 553.54 201.31 553.01 220.97 568.56 298.08 614.44 300.64 614.84 307.02 603.73 323.74 545.94 328.5 558.53 326.52 568.46 329.34 578.61 327.22 584.58 331.12 592.32 338.88 588.39 346.27 602.85 356.47 604.64 354.27 611 358.48 620.36 359.08 627.91 363.09 630.85 367.88 625.68 373.79 625.82 385.48 621.88 397.47 614.39 401.79 615.14 Z" id="23050730"/>
</g>
</svg>