<?xml version="1.0"?>
<svg xmlns="http://www.w3.org/2000/svg" version="1.2" baseProfile="tiny" width="800" height="624" viewBox="0 0 800 624" stroke-linecap="round" stroke-linejoin="round">
<g id="dong">
<path d="M 584.46 76.87 557.88 117.61 575.98 118.92 561.81 180.29 494.34 164.63 490.46 181.26 462.15 174.33 448.38 178.97 429.31 183.38 414.12 181.66 406.6 182.53 414.34 196.74 431.09 230.1 439.16 251.13 437.24 264.22 438.97 279.91 444.17 286.09 448.5 278.9 454.89 277.25 460.58 284.28 477.93 314.59 482.55 320.86 479.06 329.48 489.01 334.8 504.12 344.95 509.42 352.81 547.41 366.92 535.13 400.06 582.81 417.43 585.17 413.39 583.11 422.17 583.54 431.03 580.86 434.62 582.45 441.5 576.3 445.43 578.42 448.74 585.72 449.93 585.83 453.66 574.44 460.48 572.68 465.03 577.79 468.64 570.59 475.75 575.79 482.53 571.7 486.79 565.23 486.48 568.91 475.86 551.62 469.41 554.58 461.4 563.15 464.6 565.9 457.1 520.23 440.08 529.12 416.07 498.35 404.77 507.17 380.72 489.49 373.43 480.79 371.82 473.5 366.94 459.58 362.73 449.56 364.03 437.57 351.11 414.12 336.07 420.43 331.2 412.97 317.69 415.62 312.29 410.09 305.22 393.23 296.31 387.58 295.81 382.08 300.95 374.62 301.94 365.55 305.14 361.59 309.45 355.99 309.34 350.49 305.89 342.26 304.19 337.11 308.66 328.71 307.33 320.89 310.93 303.99 329.66 295.55 335.6 299.76 374.98 289.74 369.51 274.23 368.41 265.08 370.07 260.48 367.16 245.75 364.05 233.31 366.16 226.08 362.24 219.55 364.96 211.98 354.02 197.82 344.08 180.53 324.78 175.73 327.31 150.16 331.47 132.34 311.24 131.44 307.56 151.24 293.4 153.2 283.02 153.56 272.09 157.83 261.97 157.34 256.36 144.13 255.29 136.15 252.16 137.05 242.85 131.36 231.25 124.05 230.33 123.57 219.19 128.9 213.65 132.39 204.31 134.87 202.8 137.91 194.06 129.35 189.36 128.9 180.84 119.81 176.84 108.11 176.86 101.11 172.13 92.84 171.66 83.68 165.33 70.11 163.53 65.8 153.32 62.08 151.93 57.89 145.44 48.81 151.61 45 151.44 35.21 156.06 20.56 147.1 7.89 143.54 7.57 132.94 1 120.1 3.3 107.83 8.47 101.72 7 90.18 7.24 87.8 19.68 88.75 24.1 84.15 37.51 84.5 56.16 93.99 63.3 95.94 66.78 93.01 76.83 99.05 87.91 99.75 100.84 109.2 124.67 109.53 130.01 113.01 136.89 112.15 147 119.05 153.86 118.02 155.89 114.77 159.94 119.61 168.67 122.79 189.55 122.14 193.37 125.31 207.77 132.43 217.69 133.93 219.37 136.12 230.89 142.2 239.21 135.73 242.67 130.52 251.5 126.36 253.33 120.38 262.06 106.43 264.31 95.58 259.67 87.07 264.1 82.6 258.69 75.95 263.82 68.93 259.39 64.36 264.85 54.34 268.01 52.25 288.53 30.36 296.94 23.66 308.94 16.18 315.89 15.7 328.54 15.48 333.12 10.08 342.43 7.95 347.34 12.76 357.4 16.83 373.11 19.52 374.16 23.24 380.94 22.03 383.74 26.5 389.57 27.45 395.8 23.8 396.04 6.15 403.3 2.17 409.96 1 414.67 6.45 428.89 5.95 430.53 14.27 449.51 10.55 456.04 44.2 462.3 44.7 467.14 57.41 473.7 64.52 471.15 66.17 480.2 77.42 484 78.99 487.94 88.95 486.88 97.64 487.42 108.86 486.08 112.22 497.93 117.08 498.28 121.1 502.97 125.47 514.13 121.22 522.7 120.74 532.34 113.95 528.94 110.38 529.51 96.23 532.2 90.6 546.29 75.54 556.9 77.56 572.61 73.65 574.48 76.61 584.46 76.87 Z" id="23070630"/>
<path d="M 603.64 351.42 599.94 353.44 605.9 361.49 600.56 365.7 599.59 371.63 591.99 379.37 591 383.96 597 384.41 599.01 390.58 586.98 389.3 587.58 393.98 591.62 397.5 587.13 403.35 587.71 409.82 585.17 413.39 582.81 417.43 535.13 400.06 547.41 366.92 509.42 352.81 504.12 344.95 489.01 334.8 479.06 329.48 482.55 320.86 477.93 314.59 460.58 284.28 454.89 277.25 448.5 278.9 444.17 286.09 438.97 279.91 437.24 264.22 439.16 251.13 431.09 230.1 414.34 196.74 406.6 182.53 414.12 181.66 429.31 183.38 448.38 178.97 462.15 174.33 490.46 181.26 494.34 164.63 561.81 180.29 575.98 118.92 557.88 117.61 584.46 76.87 584.96 73.52 593.44 66.28 608.27 57.9 612.47 48.42 626.39 56.94 637.36 68.43 652.4 77.36 660.97 76.91 665.59 78.87 674.1 77.56 678.5 80.99 690.48 81.17 699.97 83.46 708.34 87.39 716.55 88.28 731.14 99.46 751.99 72.86 785.38 98.45 799 108.44 796.11 119.8 793.09 120.65 795.35 136.63 795.53 150.26 792.12 150.74 790.4 130.22 788.88 122.14 784.67 113.02 777.96 117.13 778.56 131.73 776.77 142.41 768.09 142.82 761.89 151.04 755.4 162.01 739.03 168.22 730.12 174.11 718.88 179.35 715.23 195.34 712.05 198.11 720.38 206.58 711.06 209.87 709.69 214.97 714.5 216.88 713.23 221.21 705.06 226.66 703.38 234.15 696.11 226.38 695.16 235.15 686.15 238.12 677.57 244.88 675.7 237.23 664.58 231.71 667.16 248 681.07 267.26 678.52 271.52 677.71 279.22 683.93 280.05 686.91 299 681.57 294.1 674 283.76 669.38 287.58 660.19 298.89 656.17 300.23 653.27 306.64 647.97 311.65 643.55 312.73 653.18 322.3 647.47 327.12 629.67 324.89 621.64 328.55 610.65 330.01 592.01 340.69 593.6 343.98 602.56 344.73 603.64 351.42 Z" id="23070640"/>
<path d="M 565.23 486.48 572.23 497.45 564.19 498.69 564.37 496.64 465.43 494.15 448.59 493.22 452.49 464.03 455.58 444.64 452.92 440.81 415.33 453.72 402.3 456.25 393.3 461.49 394.93 453.4 381.12 452.59 376.04 449.05 373.59 441.43 369.01 441.07 362.22 432.26 358.18 431.02 351.28 418.26 351.82 409.99 342.95 406.79 335.57 398.3 328.63 386.86 320.83 378.2 310.04 374.58 299.76 374.98 295.55 335.6 303.99 329.66 320.89 310.93 328.71 307.33 337.11 308.66 342.26 304.19 350.49 305.89 355.99 309.34 361.59 309.45 365.55 305.14 374.62 301.94 382.08 300.95 387.58 295.81 393.23 296.31 410.09 305.22 415.62 312.29 412.97 317.69 420.43 331.2 414.12 336.07 437.57 351.11 449.56 364.03 459.58 362.73 473.5 366.94 480.79 371.82 489.49 373.43 507.17 380.72 498.35 404.77 529.12 416.07 520.23 440.08 565.9 457.1 563.15 464.6 554.58 461.4 551.62 469.41 568.91 475.86 565.23 486.48 Z" id="23070610"/>
<path d="M 376.7 529.87 377.51 520.44 380.97 479.91 388.71 466.24 393.3 461.49 402.3 456.25 415.33 453.72 452.92 440.81 455.58 444.64 452.49 464.03 448.59 493.22 442.25 535.48 376.7 529.87 Z" id="23070620"/>
<path d="M 171.61 460.63 176.04 467.75 186.13 475.16 191.8 474.63 196.41 478.28 205.62 476.11 216.8 475.74 227.11 484.66 235.39 493.26 236.71 502.62 247.19 511.23 259.15 513.44 259.25 526.02 260.86 542.74 258.12 544.99 259.27 555.94 263.81 563.79 266.12 574.25 263.13 579.03 266.19 584.01 153.44 584.84 150.26 585.12 145.51 580.14 144.97 574.38 141.5 570.36 144.47 558.74 134.44 530.39 126.41 520.27 123.25 519.61 115.24 507.84 115.88 503.18 123.61 496.1 123.46 492.41 128.74 485.77 134.05 475.41 131.69 471.57 140.54 467.65 156.03 466.65 162.21 458.63 171.61 460.63 Z" id="23070510"/>
<path d="M 131.69 471.57 134.05 475.41 128.74 485.77 123.46 492.41 123.61 496.1 115.88 503.18 115.24 507.84 123.25 519.61 126.41 520.27 134.44 530.39 144.47 558.74 141.5 570.36 144.97 574.38 145.51 580.14 150.26 585.12 153.44 584.84 266.19 584.01 272.43 583.95 269.55 621.52 169.02 622.28 72 623 56.96 622.84 56.7 622.39 52.76 609.96 50.64 609.27 45.31 599.41 45.69 581.73 40.93 559.6 12.95 554.88 9.8 545.55 13.22 536.6 19.32 526.47 17.85 519.67 24.03 515.45 38.67 514.63 42.88 515.74 49.89 512.49 58.03 511.77 65.45 513.73 74.78 511.11 81.14 502.84 78.63 492.76 77.56 481.53 82.25 466.59 91.29 465.01 97.46 460.19 107.26 461.37 111.56 458.41 118.17 458.08 121.98 464.22 131.69 471.57 Z" id="23070520"/>
<path d="M 335.83 446.68 333.09 492.12 332.32 510.66 280.01 509 273.08 509.21 271.79 515.93 264.69 523.4 259.25 526.02 259.15 513.44 247.19 511.23 236.71 502.62 235.39 493.26 227.11 484.66 216.8 475.74 205.62 476.11 196.41 478.28 191.8 474.63 186.13 475.16 176.04 467.75 171.61 460.63 179.11 460.06 185.56 452.02 183.11 444.18 176.1 433.49 193.34 422.64 194.3 419.58 210.2 428.24 238.33 441.24 246.58 442.85 266.28 443.98 266.4 442.55 335.83 446.68 Z" id="23070530"/>
<path d="M 299.76 374.98 310.04 374.58 320.83 378.2 328.63 386.86 335.57 398.3 342.95 406.79 351.82 409.99 351.28 418.26 358.18 431.02 362.22 432.26 369.01 441.07 373.59 441.43 376.04 449.05 335.83 446.68 266.4 442.55 266.28 443.98 246.58 442.85 238.33 441.24 210.2 428.24 194.3 419.58 197.4 409.49 203.45 400.81 212.14 381.24 216.4 374.53 215.78 367.52 219.55 364.96 226.08 362.24 233.31 366.16 245.75 364.05 260.48 367.16 265.08 370.07 274.23 368.41 289.74 369.51 299.76 374.98 Z" id="23070540"/>
<path d="M 377.51 520.44 364.17 518.39 357.07 518.54 347 515.27 340.54 511.05 332.32 510.66 333.09 492.12 335.83 446.68 376.04 449.05 381.12 452.59 394.93 453.4 393.3 461.49 388.71 466.24 380.97 479.91 377.51 520.44 Z" id="23070550"/>
<path d="M 377.51 520.44 376.7 529.87 374.47 560.07 368.99 560.1 368.07 566.92 371.12 572.36 368.47 606.11 369.89 607.11 368.86 620.82 316.81 621.16 317.83 607.81 312.16 607.54 311.78 567.88 320.12 559.76 331.29 559.81 332.32 510.66 340.54 511.05 347 515.27 357.07 518.54 364.17 518.39 377.51 520.44 Z" id="23070560"/>
<path d="M 332.32 510.66 331.29 559.81 320.12 559.76 311.78 567.88 312.16 607.54 317.83 607.81 316.81 621.16 288.82 621.38 269.55 621.52 272.43 583.95 266.19 584.01 263.13 579.03 266.12 574.25 263.81 563.79 259.27 555.94 258.12 544.99 260.86 542.74 259.25 526.02 264.69 523.4 271.79 515.93 273.08 509.21 280.01 509 332.32 510.66 Z" id="23070570"/>
<path d="M 564.19 498.69 563.28 508.22 566.24 510.53 560.27 518.18 563.22 523.69 561.31 532.53 561.96 554.72 560.57 559.24 561.55 571.33 560.6 586.4 562.01 588.06 559.77 607.9 561.17 619.77 479.99 620.5 382.09 621.01 368.86 620.82 369.89 607.11 368.47 606.11 371.12 572.36 368.07 566.92 368.99 560.1 374.47 560.07 376.7 529.87 442.25 535.48 448.59 493.22 465.43 494.15 564.37 496.64 564.19 498.69 Z" id="23070580"/>
</g>
</svg>