<?xml version="1.0"?>
<svg xmlns="http://www.w3.org/2000/svg" version="1.2" baseProfile="tiny" width="800" height="445" viewBox="0 0 800 445" stroke-linecap="round" stroke-linejoin="round">
<g id="dong">
<path d="M 560.18 242.38 561.94 243.68 563.82 245.47 563.93 247.09 563.17 248.15 562.05 248.4 559.32 248 556.96 246.53 555.96 243.95 556.65 242.63 557.92 242.71 560.18 242.38 Z M 498.48 207.17 499.01 207.21 500.69 208.58 501.9 207.96 503.02 208.07 503.42 209.53 502.74 211.4 497.62 211.88 495.75 211.7 494.45 209.88 494.9 208.59 496.02 207.47 496.97 207.06 498.48 207.17 Z M 337.1 191.69 338.44 192.87 337.78 193.81 338.54 194.59 338.17 197.13 338.94 198.56 337.6 199.3 335.74 199.41 335.6 197.98 336.9 197.19 336.85 194.75 335.75 193.58 336.07 191.63 337.1 191.69 Z M 371.22 175.86 372.47 176.52 371.66 179.56 371.27 179.95 374.17 192.61 376.25 192.14 378.19 193.27 379.88 194.79 380.84 195.14 382.49 196.46 385.02 196.51 385.39 197.11 387.92 198.54 389.33 198.39 389.24 199.4 387.84 200.62 384.09 200.38 381.76 200.79 380.63 201.71 379.18 201.07 378.47 201.57 375.71 202.26 373.18 201.96 370.96 200.23 369.39 200.28 367.61 202.26 366.02 202.66 364.79 201.53 362.75 201.04 361.47 199.85 359.23 199.18 357.35 199.88 355.28 198.69 354 198.72 351.22 198.05 350.61 197.2 348.4 196.02 347.79 196.33 346.7 195.02 346.63 193.77 348.68 192.9 349.69 191.86 351.91 191.81 354.23 191.2 358.76 181.14 364.67 174.24 364.38 172.95 366.29 172.44 367.43 173.51 369.86 173.87 371.22 175.86 Z M 412.68 164.75 412.77 165.94 414.04 168.09 413.89 171.02 414.3 174.15 415.24 176.52 416.29 178.22 416.04 180.1 416.29 182.18 416.09 183.26 417.47 184.7 418.3 185.98 417.52 187.01 416.15 186.73 413.85 187.85 412.95 187.85 406.56 185.06 404.2 187.36 402.41 187.14 401.64 186.02 402.4 184.92 402.29 183.11 401.44 182.47 402.36 181.01 403.4 177.24 401.72 174.51 402.64 172.02 404.18 171.33 406.4 170.92 406.43 169.32 407.36 168.15 408.52 167.77 410.74 164.6 412.5 164.07 412.68 164.75 Z M 441.11 147.46 440.24 147.51 438.36 148.63 438.06 148.07 436.21 148.29 435.75 149.28 433.8 151.14 432.64 150.75 432.71 149.49 435.06 148.58 436.01 146.57 437.71 145.44 438.31 144.59 441.83 145.24 442.45 146.3 441.11 147.46 Z M 490.5 140.37 494.15 141.4 495.61 143.07 496.26 143.18 499.09 145.34 500.15 144.77 500.07 147.47 501.63 147.2 502.01 149.79 501.88 150.59 500.62 151.73 501.07 153.27 499.95 153.47 498.98 154.63 497.27 155.74 493.87 159.34 492.71 161.37 491.98 163.21 489.41 166.52 490.03 166.99 490.14 168.82 489.48 169.19 489.11 171.46 488.71 172.11 488.13 174.66 487.38 176.21 487.53 177.27 487.09 178.39 486.13 179.12 485.74 181.83 485.81 184.06 486.8 185.34 485.76 186.24 485.57 188.42 484.36 190.85 484.64 191.71 484.69 193.91 484.06 196.43 484.63 198.86 484.16 201.12 484.82 202.69 485.06 204.76 486.07 207.72 487.27 209.5 487.03 209.94 488.01 211.32 489.39 212 490.88 214.2 492.09 215.61 495.15 216.82 495.53 217.6 496.71 218.29 499.49 218.17 499.38 219.22 502.03 221.32 502.17 222.4 502.92 222.67 504.28 225.08 507.54 227.69 509.36 230.42 510.26 230.47 512.82 232.23 513.73 233.35 518.58 235.73 520.22 236.93 521.16 236.19 522.45 236.86 524.35 237.15 527.62 238.69 528.49 239.51 530.54 239.13 531.19 239.43 534.79 239.14 540.06 239.85 539.78 241.05 540.64 242.64 542.18 243.27 543.13 243.18 543.8 244.67 544.48 241.62 546.28 240.83 547.86 239.65 549.12 240.93 551.04 241.65 552.32 241.65 554.21 242.8 552.93 244.88 553.05 247.2 555.19 249.76 557.07 250.57 560.13 251.45 562.41 253.16 564.12 253.94 565.56 255.47 567.77 259.61 567.49 260.95 569.79 263.27 569.6 265.76 569.15 266.46 567.78 271.33 567.32 272.3 567.31 273.76 566.56 276.84 565.83 277.34 566.25 278.27 565.99 279.52 566.34 280.94 564.25 284.54 564.7 285.28 564.58 286.75 563.58 288.79 561.8 291.05 561.8 291.69 560.64 293.11 559.74 293.19 558.48 295.48 556.89 296.33 554.71 295.94 552.8 297.02 550.4 297.7 545.09 301.09 543.04 303.87 542.38 305.14 538.19 309.83 533.91 312.06 532.5 310.82 526.25 317.74 519.04 318.22 519.54 319.83 519.21 320.82 519.6 322.96 519.27 326.86 521.2 328.08 521.45 329.32 518.13 331.41 517.37 330.27 515.63 330.24 513.29 329.22 512.3 329.8 511.39 328.73 512.09 326.19 513.29 324.05 511.86 322.46 510.19 322.42 509.05 321.46 508.91 320.47 507.25 319.04 505.97 316.95 504.6 316.19 499.51 314.02 498.3 315.74 497.15 315.24 496.83 314.28 495.7 313.87 497.61 312.15 496.53 309.81 496.35 308.85 495.27 308.61 494.61 304.57 493.81 302.74 494.91 302.45 496.31 299.59 497.22 300.12 498.49 298.24 497.93 295.57 498.53 292.83 499.25 286.14 499.64 284.11 493.51 278.84 489.17 270.26 487.83 267.9 489.21 265.73 487.8 264.96 485.2 262.54 483.87 260.77 482.73 260.37 481.66 258.71 479.41 257.67 478.46 258.77 476.32 257.36 474.61 254.98 472.44 254.1 471.54 254.07 469.12 252.62 468.52 252.67 467.08 251.65 465.09 250.82 463.93 250.82 460.96 248.85 458.06 247.63 455.09 245.82 452.61 244.92 450.24 243.66 449.53 242.12 447.86 240.29 446.16 240.64 444.34 239.63 443.44 238.28 441.73 236.77 441.13 235.37 441.5 234 441.5 231.61 440.27 230.21 437.71 227.79 435.65 226.21 433.6 225.7 432.88 224.9 430.39 224.07 428.91 223.36 428.2 221.31 424.99 218.14 422.47 216.17 420.15 215.28 417.88 213.33 417.5 212.52 419.42 211.97 421.41 209.6 422.55 210.37 423.49 210.05 425.41 210.06 426.73 211.07 427.22 212.83 428.12 213.53 429.74 213.87 431.12 214.84 433.04 215.28 434.43 215.14 435.14 215.56 441.69 209.07 441.61 207.52 442.85 206.99 443.25 206.04 442.88 204.37 443.09 199.94 443.65 199.82 443.57 197.97 444.02 195 445.39 191.15 444.64 190.01 445.5 189.64 445.89 187.74 444.07 184.67 443.79 181.57 444.73 179.63 444.69 174.7 445.05 170.44 445.49 169.48 445.88 162.37 446.38 160.02 445.24 157.46 445.4 156.66 446.8 156.13 447.66 155.1 449.17 154.18 450.2 153.1 452.34 152.94 455.92 151.75 459.68 151.91 462.34 150.96 463.07 151.39 464.93 151.29 467.9 150.31 469.57 149.49 470.91 148.3 472.54 147.39 474.16 147.52 475.53 146.48 477.88 145.29 479.24 143.85 479.94 143.61 481.21 142.32 484.83 140.04 485.72 139.8 489.32 139.89 490.5 140.37 Z" fill-rule="evenodd" id="23510410"/>
<path d="M 763.19 176.41 762.32 176.02 760.82 177.38 759.91 179.09 756.54 179.88 754.63 180 753.53 180.74 751.78 180.28 749.73 180.45 749.14 179.92 748.8 178.46 747.85 177.54 746.93 175.89 743.18 176.43 741.56 174.7 741.24 173.73 739.68 172.4 738.9 172.24 737.9 171.09 734.96 169.23 734.31 169.46 730.22 168.3 726.75 169.13 723.11 170.67 721.86 172.98 718.93 175.15 716.61 175.69 715.19 176.59 712.97 179.36 711.82 180.02 711.24 180.97 708.77 182.41 706.69 183.35 705.46 183.26 703.13 183.92 700.64 184.06 698.33 180.78 695.53 179.63 694.88 178.51 694.62 177.13 693.16 174.7 694.49 170.41 692.27 170.32 690.93 171.18 682.39 171.17 681.03 171.88 680.94 173.67 678.89 174.8 679.32 176.47 675.08 177.08 672.05 178.91 668.57 177.56 666.62 178.21 662.71 180.72 661.52 181.65 658.1 182.92 657.57 179.85 658.13 176.63 658.08 174.76 657.49 172.44 656.89 171.46 657.06 169.86 656.3 167.47 655.28 166.5 654.42 162.65 653.21 161.12 653.05 159.39 652.16 157.83 652.13 155.78 651.8 155.11 654.6 154.94 655.52 154.64 658.84 154.04 659.73 154.23 661.02 153.78 661.75 152.66 663.09 152.5 664.75 151.55 665.99 149.31 667.54 148.03 668.38 146.71 670 146.5 671.18 147.36 672.04 147.32 673.94 146.25 676.31 147.09 677.95 148.45 679.5 149.06 680.77 148.33 683.32 147.44 685.75 146.94 688.08 145.49 690.22 144.51 692.08 144.5 692.67 143.88 693.48 141.55 692.77 139.83 693.45 137.89 692.58 137.23 692.57 136.19 694.47 135.84 695.93 134.84 697.48 133.17 697.59 131.78 698.25 129.44 700.63 130.08 700.93 132.19 703.27 133.45 704.13 133.18 705.37 133.67 705.76 134.74 707.03 135.04 708.07 135.8 710.13 134.55 711.91 133.99 712.81 131.63 714.07 130.42 714.89 130.51 715.98 129.6 717.29 129.09 717.31 127.1 717.72 126.5 716.07 124.7 716.07 123.52 716.68 122.92 718.36 122.23 718.74 119 717.68 110.6 717.42 107.93 715.17 89.76 717.32 87.25 716.79 86.11 718.05 85.52 718.47 84.06 718.45 80.98 719.76 80.87 721.69 79.13 721.17 77.63 722.25 75.83 723.01 76.26 734.44 80.65 734.71 81.5 736.34 82.06 737.48 80.99 743.86 84.38 746.66 86.46 748.86 89 750.72 93.69 750.83 95.99 750.54 99.95 751.24 102.26 752.45 104.05 753.41 104.84 755.96 107.9 756.62 109 755.14 110.95 755.26 112.66 754.61 114.6 753.38 115.46 753.73 116.84 753.74 119.74 755.16 124.1 757.62 128.08 758.34 130.17 759.62 131.24 762.08 134.14 762.83 135.78 763.35 137.74 765.25 139.87 765.72 141.34 766.71 142.68 768.82 144.49 771.04 146.97 772.8 148.02 773.9 147.12 774.72 148.1 775.79 150.53 775.07 152.21 775.18 153.08 773.85 154.83 772.55 160.02 773.48 161.28 773.77 163.06 772.17 165.34 770.7 166.45 769.36 168 766.8 171.61 764.73 175.09 763.76 176.37 763.19 176.41 Z" id="23510110"/>
<path d="M 763.19 176.41 763.53 177.48 761.32 181.1 759.26 185.19 758.41 187.24 757.91 189.44 757.53 193.13 757.56 197.79 756.58 200.35 756.22 205.39 756.92 208.78 758.01 212.09 758.94 214.21 760.77 217.02 762.95 219.64 765.3 221.58 766.67 222.28 769.42 225.2 772.61 227.34 773.37 228.28 773.07 229.24 773.81 230.18 771.78 231.25 771.45 232.36 770.41 233.21 768.56 236.44 767.57 239.68 766.49 245.07 766.31 249.72 765.8 250.5 764.26 250.24 763.39 250.61 762.81 249.07 761.27 247.93 759.87 247.32 758.82 245.56 756.79 243.91 756.3 244.28 755.21 242.56 753.32 241.45 751.05 241.5 749.97 242.14 746.6 241.49 743.91 241.59 743.01 241.12 739.71 240.25 738.72 239.82 737.23 240.31 734.51 239.52 732.74 239.83 732.28 239.1 729.21 238.93 728.46 239.21 725.88 239.13 723.89 237.73 723.75 236.85 722.23 235.77 719.82 235.11 719.34 235.58 715.43 234.59 714.99 234.13 712.51 233.49 711.8 233.86 703.44 232.53 694.84 231.24 691.97 231.04 692.78 218.55 689.83 217.85 689.43 212.67 687.24 209.63 686.12 209.13 684.83 209.16 683.22 205.43 682.53 205.1 680.3 203.11 680.12 201.75 678.94 201.82 676.43 200.98 673.44 200.73 671.65 199.83 670.72 199.84 668.51 199.12 666.55 200.66 664.8 200.67 663.38 200.99 659.37 199.61 658.48 198.9 656.49 198.64 656.03 197.1 655.1 196.98 652.78 195.05 651.8 193.18 652.41 191.01 651.89 189.29 651.53 186.71 653.24 185.67 654.83 185.06 658.1 182.92 661.52 181.65 662.71 180.72 666.62 178.21 668.57 177.56 672.05 178.91 675.08 177.08 679.32 176.47 678.89 174.8 680.94 173.67 681.03 171.88 682.39 171.17 690.93 171.18 692.27 170.32 694.49 170.41 693.16 174.7 694.62 177.13 694.88 178.51 695.53 179.63 698.33 180.78 700.64 184.06 703.13 183.92 705.46 183.26 706.69 183.35 708.77 182.41 711.24 180.97 711.82 180.02 712.97 179.36 715.19 176.59 716.61 175.69 718.93 175.15 721.86 172.98 723.11 170.67 726.75 169.13 730.22 168.3 734.31 169.46 734.96 169.23 737.9 171.09 738.9 172.24 739.68 172.4 741.24 173.73 741.56 174.7 743.18 176.43 746.93 175.89 747.85 177.54 748.8 178.46 749.14 179.92 749.73 180.45 751.78 180.28 753.53 180.74 754.63 180 756.54 179.88 759.91 179.09 760.82 177.38 762.32 176.02 763.19 176.41 Z" id="23510310"/>
<path d="M 656.03 197.1 656.49 198.64 658.48 198.9 659.37 199.61 663.38 200.99 664.8 200.67 666.55 200.66 668.51 199.12 670.72 199.84 671.65 199.83 673.44 200.73 676.43 200.98 678.94 201.82 680.12 201.75 680.3 203.11 682.53 205.1 683.22 205.43 684.83 209.16 686.12 209.13 687.24 209.63 689.43 212.67 689.83 217.85 692.78 218.55 691.97 231.04 694.84 231.24 703.44 232.53 711.8 233.86 712.51 233.49 714.99 234.13 715.43 234.59 719.34 235.58 719.82 235.11 722.23 235.77 723.75 236.85 723.89 237.73 725.88 239.13 728.46 239.21 729.21 238.93 732.28 239.1 732.74 239.83 734.51 239.52 737.23 240.31 738.72 239.82 739.71 240.25 743.01 241.12 743.91 241.59 746.6 241.49 749.97 242.14 751.05 241.5 753.32 241.45 755.21 242.56 756.3 244.28 756.79 243.91 758.82 245.56 759.87 247.32 761.27 247.93 762.81 249.07 763.39 250.61 764.26 250.24 765.8 250.5 766.26 251.92 764.9 255.55 764.36 256.29 764.51 259.01 764.97 259.98 764.66 260.78 766 260.98 766.22 264.03 765.18 265.45 763.95 266.09 761.98 270.54 761.95 274.43 762.3 277.36 762.13 278.33 764.17 283.69 767.41 287.74 769.36 289.47 772.63 291.45 775.09 292.6 774.92 294.3 776.65 292.76 780.14 292.12 780.89 293.27 782.63 293.81 783.13 294.91 783.51 297.45 783.44 301.9 782.51 302.61 780.83 302.4 779.17 303.54 777.59 303.76 775.16 304.75 774.41 304.3 772.9 306.04 770.38 309.34 769.53 312.29 769.55 315.92 771.3 318.02 773.19 319.8 772.86 321.29 774.12 322.19 774.69 324.03 775.35 325 775.36 325.93 773.05 327.96 770.39 327.99 769 327.22 768.73 327.86 768.12 328.27 766.06 331.51 765.1 332.19 763.02 332.73 761.31 334.46 758.15 334.53 754.86 335.27 753.36 334.39 747.97 333.84 748.8 325.37 747.65 325.12 746.46 323.5 744.96 323.27 744.62 322.51 743.34 322.17 743.01 319.64 742.27 317.99 739.38 315.93 737.22 315.09 735.05 313.91 734.25 313.2 728.91 313.61 728.14 313.29 728.76 308.78 728.73 306.58 729.02 305.69 728.81 302.18 729.58 298.88 728.25 295.86 728.17 293.47 726.99 290.43 726.11 289.44 725.32 287.33 724.08 286.38 718.65 285.45 716.87 284.94 717.31 282.17 716.28 281.15 714.58 281.16 713.87 281.98 711.98 282.08 708.88 281.64 708.23 280.61 706.89 280.83 705.53 282.06 703.35 281.89 703.3 279.8 702.22 278.35 700.74 277.57 699.96 275.76 697.37 275.11 696.13 275.56 693.78 274.4 693.14 273.42 691.24 272.83 689.2 272.62 687.23 271.98 685.3 271.64 683.58 269.93 682.48 269.6 681.47 268.63 678.89 267.89 675.57 267.98 674.33 266.15 673.4 265.84 671.67 265.99 670.11 265.43 668.68 265.58 665.24 265.42 662.67 264.02 662.14 263.03 659.84 261.65 659.21 260.15 658.15 260.34 657.43 257.51 656.43 254.45 656.41 251.29 654.7 251.74 653.36 247.68 653.15 245.93 651.67 243.03 651.29 241.54 649.66 238.53 648.56 237.27 648.53 233.48 647.22 227.85 645.92 225.38 643.65 222.68 644.05 221.64 643.67 220.4 642.25 220.08 640.89 217.18 640.25 216.93 637.39 214.01 638.33 212.11 640.8 209.87 641.61 209.47 641.76 208.21 643.42 206.5 644.24 206.08 645.16 204.87 646.34 204.11 647.6 203.96 648.9 202.52 651.07 201.08 653.21 197.8 656.03 197.1 Z" id="23510320"/>
<path d="M 776.65 425.61 778.62 425.71 778.03 426.8 776.81 427.41 775.17 427.57 774.96 426.22 776.65 425.61 Z M 768.73 327.86 770.5 329.09 774.13 328.52 774.41 330.27 775.36 333.47 777.87 340.77 779.07 343.22 779.92 343.3 781.83 346.98 782.19 351.04 784.06 353.32 785.56 358.28 787.88 356.38 789.14 357.94 785.55 360.73 785.58 365.31 786.9 365.4 786.98 369.94 789.15 369.46 789.57 368.99 789.59 366.63 790.76 364.93 792.01 365.02 793.07 366.19 793.61 365.85 794.64 366.94 796.84 370.78 797.99 373.83 798.75 374.94 799 376.77 797.97 376.76 797.37 377.76 795.9 377.95 795.18 377.5 792.61 377.82 791.48 377.11 787.34 378 787.4 380.41 787.08 380.64 786.88 383.95 786.31 384.72 785.02 384.12 778.38 386.19 768.33 389.13 766.08 390.33 766.55 391.33 765.65 392.77 766.18 393.51 767.34 393.68 767.13 394.67 766.29 394.83 765.36 396.43 760.86 399.83 759.14 399.55 759.7 401.8 758.94 403.65 758.98 405.37 758.4 408.17 757.84 409.06 756.58 409.94 756.5 410.71 758.37 414.42 760.67 412.56 762.96 411.51 764.62 411.56 766.89 412.24 768.1 411.6 769.78 411.8 770.71 412.47 771.02 413.99 776.31 415.84 776.26 416.02 771.29 414.27 770.59 414.14 768.44 415.71 768.07 416.58 766.25 417.27 764.75 418.65 763.08 419.59 762.34 420.74 762.54 422.63 763.66 423.64 764.66 424 765.51 424.95 765.82 426.56 772.03 426.5 773.33 428.33 774.28 429.22 773.75 430.53 773.87 432.79 772.66 434.2 772.1 433.55 768.8 432.38 769.82 434.99 769.68 435.5 766.09 437.34 764.57 435.25 763.78 438.05 764.19 439.49 763.61 441.59 762.1 442.71 761.44 443.77 759.83 444 757.71 442.52 755.78 442.37 754.44 441.25 752.47 440.79 751.87 437.31 749.22 434.05 748.77 434.35 746.44 433.06 745.26 433.73 744.89 432.65 745.32 431.31 744.54 430.48 743.2 427.78 742.08 426.29 741.92 425.15 743.37 424.3 744.8 424.11 747 422.69 748.5 423.06 749.82 422.79 750.46 422.18 754.53 420.52 756.1 420.31 756.9 419.23 756.58 417.92 757.1 416 758.3 414.66 756.05 410.16 755.12 409.94 754.04 412.42 753.04 413.48 752.38 414.85 750.18 414.82 747.19 414.23 744.89 414.98 743.27 415.1 741.47 414.63 740.55 413.64 737.19 412.55 736.58 411.98 735.16 411.64 733.41 412.14 731.92 411.99 731.86 413.13 731.01 413.18 731.05 411.07 725.76 408.38 723.25 408.41 719.7 406.61 715.09 403.32 714.69 401.83 713.72 401.12 712.35 400.94 710.67 399.9 708.84 400.13 707.77 401.25 706.51 401.81 705.95 402.96 707.76 408.17 707.44 410.22 703.39 411.81 698.16 396.72 690.32 374.38 690.24 373.76 691.12 372.65 692.31 372.33 694.92 372.37 697.24 372.89 689.23 347.38 688.68 346 688.65 344.81 689.63 343.51 690.7 342.78 691.77 340.99 691.22 339.61 691.57 337.07 690.91 335.6 690.96 334.62 692 330.72 692.98 328.86 694.24 327.92 697.83 323.36 698.58 322.77 698.92 320.67 700.37 317.47 700.37 315.3 699.99 314.77 699.82 312.28 699 309.54 699.34 307.8 699.09 306.51 699.77 306.08 700.72 304.09 700.24 302.6 700.9 299.28 700.5 296.96 699.23 293.9 699.11 291.66 699.83 288.82 699.67 287.08 699.96 286.09 702.7 283.49 703.35 281.89 705.53 282.06 706.89 280.83 708.23 280.61 708.88 281.64 711.98 282.08 713.87 281.98 714.58 281.16 716.28 281.15 717.31 282.17 716.87 284.94 718.65 285.45 724.08 286.38 725.32 287.33 726.11 289.44 726.99 290.43 728.17 293.47 728.25 295.86 729.58 298.88 728.81 302.18 729.02 305.69 728.73 306.58 728.76 308.78 728.14 313.29 728.91 313.61 734.25 313.2 735.05 313.91 737.22 315.09 739.38 315.93 742.27 317.99 743.01 319.64 743.34 322.17 744.62 322.51 744.96 323.27 746.46 323.5 747.65 325.12 748.8 325.37 747.97 333.84 753.36 334.39 754.86 335.27 758.15 334.53 761.31 334.46 763.02 332.73 765.1 332.19 766.06 331.51 768.12 328.27 768.73 327.86 Z" fill-rule="evenodd" id="23510330"/>
<path d="M 688.65 344.81 688.68 346 689.23 347.38 697.24 372.89 694.92 372.37 692.31 372.33 691.12 372.65 690.24 373.76 690.32 374.38 698.16 396.72 703.39 411.81 690.88 416.16 687.9 415.66 686.75 416.97 687.71 418.13 686.54 419.69 685.87 421.43 685.08 422.26 685.84 422.91 684.9 426.78 683.86 427.03 682.98 425.36 683.11 424.46 681.67 422.49 676.64 419.83 675.16 419.52 673.43 419.81 671.75 419.26 669.6 420.53 667.7 420.04 666.67 419.3 663.71 417.75 662.61 417.79 662.1 418.51 658.58 418.27 658.59 417.21 657.42 417.19 657.79 418.47 657.33 419.13 653.85 420.14 652.82 420.99 651.65 421.11 618.21 419.25 614.76 417.81 613.42 418.78 612.1 418.66 610.88 417.69 609.52 417.92 608.62 417.28 605.89 418.46 603.59 418.23 601.85 417.64 592.15 410.74 588.9 406.21 588.43 405.83 583.64 404 581.48 402.38 579.76 400.71 578.46 399.12 577.99 397.03 578.44 393.91 576.32 392.87 574.4 392.66 572.13 391.44 571.63 391.68 569.57 391.04 568.35 391.24 567.73 389.56 565.94 387.46 564.26 386.96 563.25 386.29 561.56 386.46 559.08 387.3 557.63 386.42 557.12 385.69 557 383.17 558.35 382.8 562.84 382.5 563.57 381.65 565.4 381.24 566.79 380.06 567.16 378.8 567.05 373.77 565.98 373.27 564.9 371.58 563.63 370.92 564.76 370.27 564.08 363.43 560.73 361.76 560.5 360.57 561.48 360.42 562.82 359.24 563.45 359.21 563.18 356.07 562.74 355.58 562.47 353.61 560.53 350.41 558.95 349.56 557.89 349.5 555.84 348.34 554.05 348.77 551.14 347.19 550.64 346.19 552.28 344.43 553.77 344.4 555.28 342.94 556.4 342.4 557.98 343.01 560.85 343.2 562.35 343.72 566.15 343.73 568.62 342.76 571.81 341.81 571.4 340.98 571.76 339.81 573.84 340.62 575.96 340.61 577.68 340.19 579.95 339.01 580.89 337.69 585.05 336.12 585.47 335.41 588.14 336.38 587.88 337.42 591.32 338.38 595.41 337.53 596.81 336.35 598.85 335.32 601 333.62 602.63 332.62 604.06 331.17 605.02 329.71 605.01 328.91 606.7 326.59 608.81 324.63 609.14 324.96 611.42 322.54 613.42 322.37 614.27 323.63 617.16 324.15 617.9 322.11 620.24 323.35 621.08 321.97 622.73 322.19 622.99 320.75 624.55 320.59 625.3 319.64 626.41 321.1 626.39 322.94 627.11 323.93 627.48 325.35 628.09 325.85 630.44 326.04 631.58 326.49 633.44 326.07 635.11 327.08 641.56 329.39 641.84 329.37 655.68 334.45 656.28 335.12 657.13 337.73 658.98 337.94 660.51 337 662.46 337.39 681.76 341.9 685.84 342.78 686.93 344.13 688.65 344.81 Z" id="23510340"/>
<path d="M 637.39 214.01 640.25 216.93 640.89 217.18 642.25 220.08 643.67 220.4 644.05 221.64 643.65 222.68 645.92 225.38 647.22 227.85 648.53 233.48 648.56 237.27 649.66 238.53 651.29 241.54 651.67 243.03 653.15 245.93 653.36 247.68 654.7 251.74 656.41 251.29 656.43 254.45 657.43 257.51 658.15 260.34 659.21 260.15 659.84 261.65 662.14 263.03 662.67 264.02 665.24 265.42 668.68 265.58 670.11 265.43 671.67 265.99 673.4 265.84 674.33 266.15 675.57 267.98 678.89 267.89 681.47 268.63 682.48 269.6 683.58 269.93 685.3 271.64 687.23 271.98 689.2 272.62 691.24 272.83 693.14 273.42 693.78 274.4 696.13 275.56 697.37 275.11 699.96 275.76 700.74 277.57 702.22 278.35 703.3 279.8 703.35 281.89 702.7 283.49 699.96 286.09 699.67 287.08 699.83 288.82 699.11 291.66 699.23 293.9 700.5 296.96 700.9 299.28 700.24 302.6 700.72 304.09 699.77 306.08 699.09 306.51 699.34 307.8 699 309.54 699.82 312.28 699.99 314.77 700.37 315.3 700.37 317.47 698.92 320.67 698.58 322.77 697.83 323.36 694.24 327.92 692.98 328.86 692 330.72 690.96 334.62 690.91 335.6 691.57 337.07 691.22 339.61 691.77 340.99 690.7 342.78 689.63 343.51 688.65 344.81 686.93 344.13 685.84 342.78 681.76 341.9 662.46 337.39 660.51 337 658.98 337.94 657.13 337.73 656.28 335.12 655.68 334.45 641.84 329.37 641.56 329.39 635.11 327.08 633.44 326.07 631.58 326.49 630.44 326.04 628.09 325.85 627.48 325.35 627.11 323.93 626.39 322.94 626.41 321.1 625.3 319.64 624.55 320.59 622.99 320.75 622.73 322.19 621.08 321.97 620.24 323.35 617.9 322.11 617.16 324.15 614.27 323.63 613.42 322.37 611.42 322.54 609.14 324.96 608.81 324.63 608.2 323.57 606.84 322.57 606.91 322.06 608.57 320.02 610.2 320.53 611.11 315.03 613.77 315.42 612.5 311.17 611.89 307.53 610.48 307.54 610.42 303.67 610 300.35 609.55 298.21 608.5 294.87 608.8 294.61 607.73 291.93 606.61 290.18 606.56 288.67 607.24 287.06 606.2 280.84 605.48 279.02 604.74 277.96 604.14 275.23 602.94 273.59 600.93 272.27 599.62 271.08 598.54 269.33 597.49 268.21 597.09 265.96 596.33 265.4 594.99 265.65 592.88 264.64 591.6 263.09 590.62 260.31 589.95 259.72 587.01 258.05 585.69 256.18 585.67 254.17 584.4 253.23 583.83 251.86 583.64 250.26 582.52 249.97 582.43 248.52 584.48 248.24 585.94 246.56 586.89 244.81 587.22 243.35 588.08 241.72 589.04 241.42 589.11 240.14 590.54 239.64 590.84 238.86 592.45 238 593.07 237.16 594.06 236.85 593.36 235.19 593.2 233.57 592 232.74 591.36 229.75 592.17 229.31 593.22 227.64 594.28 227.55 596.55 228.69 596.94 228.28 596.29 226.08 598.11 223.59 599.12 223.16 600.14 222.04 602.12 221.29 602.38 220.62 607.29 220.36 608.05 221.36 609.66 220.89 610.61 221.18 612.19 220.59 614.47 218.61 616.02 218.01 618.77 218.69 619.73 218.16 622.91 217.61 624.73 217.53 626.66 217.96 627.82 217.03 629.97 214.56 631.17 213.71 633.53 213.76 636.94 214.24 637.39 214.01 Z" id="23510350"/>
<path d="M 651.8 155.11 652.13 155.78 652.16 157.83 653.05 159.39 653.21 161.12 654.42 162.65 655.28 166.5 656.3 167.47 657.06 169.86 656.89 171.46 657.49 172.44 658.08 174.76 658.13 176.63 657.57 179.85 658.1 182.92 654.83 185.06 653.24 185.67 651.53 186.71 651.89 189.29 652.41 191.01 651.8 193.18 652.78 195.05 655.1 196.98 656.03 197.1 653.21 197.8 651.07 201.08 648.9 202.52 647.6 203.96 646.34 204.11 645.16 204.87 644.24 206.08 643.42 206.5 641.76 208.21 641.61 209.47 640.8 209.87 638.33 212.11 637.39 214.01 636.94 214.24 633.53 213.76 631.17 213.71 629.97 214.56 627.82 217.03 626.66 217.96 624.73 217.53 622.91 217.61 619.73 218.16 618.77 218.69 616.02 218.01 614.47 218.61 612.19 220.59 610.61 221.18 609.66 220.89 608.05 221.36 607.29 220.36 602.38 220.62 602.12 221.29 600.14 222.04 599.12 223.16 598.11 223.59 596.29 226.08 596.94 228.28 596.55 228.69 594.28 227.55 593.22 227.64 592.17 229.31 591.36 229.75 592 232.74 593.2 233.57 593.36 235.19 594.06 236.85 593.07 237.16 592.45 238 590.84 238.86 590.54 239.64 589.11 240.14 589.04 241.42 588.08 241.72 587.38 240.38 582.68 234.94 581.48 233.87 579.09 232.39 577.82 232.88 574.52 231.77 572.63 231.66 568.58 231.05 568.12 230.45 563.67 231.44 562.46 230.47 561.32 228.2 559.52 227.28 554.05 225.58 553.09 225.12 551.54 225.57 548.3 224.66 544.25 225.48 542.93 226.1 541.54 224.88 540.77 222.77 539.93 221.92 537.96 221.38 537 220.05 536.63 216.4 535.78 215.66 535.96 214.31 534.74 211.64 533.06 209.74 532.85 206.74 531.69 204.72 531.4 203 533.27 201.2 533.93 200.91 534.35 199.32 534.08 196.34 534.62 192.48 534.99 191.27 533.72 188.56 532.26 172.3 532.86 171.89 532.43 167.82 532.84 161.73 534.02 160.84 535.27 160.8 535.6 160.21 538.41 160.6 539.53 161.06 539.93 160.08 540.73 160.68 549.69 157.69 550.81 157.73 564.25 160.33 565.7 161.06 574.85 167.11 576.55 164.64 577.5 165.35 578.93 163.94 583.21 162.39 584.78 162.62 586.92 163.35 587.85 164.09 589.57 163.47 595.18 164.52 598.02 163.97 599.25 163.16 601.57 163.6 603.05 164.41 604.97 165.92 606.65 166.31 608.22 165.97 609.35 164.73 611.08 164.03 612.98 164.19 613.88 163.97 614.52 162.7 616.73 162.84 617.45 162.44 621.26 161.23 621.88 161.97 623.63 161.88 625.76 160.48 628.74 160.79 629.75 160.14 631.36 160.02 631.61 158.93 632.76 157.72 634.88 157.1 637.04 156.79 637.73 155.18 639.01 154.52 642.29 153.89 643.91 154.19 646.05 153.79 649.87 155.52 651.8 155.11 Z" id="23510360"/>
<path d="M 655.52 154.64 654.6 154.94 651.8 155.11 649.87 155.52 646.05 153.79 643.91 154.19 642.29 153.89 639.01 154.52 637.73 155.18 637.04 156.79 634.88 157.1 632.76 157.72 631.61 158.93 631.36 160.02 629.75 160.14 628.74 160.79 625.76 160.48 623.63 161.88 621.88 161.97 621.26 161.23 617.45 162.44 616.73 162.84 614.52 162.7 613.88 163.97 612.98 164.19 611.08 164.03 609.35 164.73 608.22 165.97 606.65 166.31 604.97 165.92 603.05 164.41 601.57 163.6 599.25 163.16 598.02 163.97 595.18 164.52 589.57 163.47 587.85 164.09 586.92 163.35 584.78 162.62 583.21 162.39 578.93 163.94 577.5 165.35 576.55 164.64 574.85 167.11 565.7 161.06 564.25 160.33 550.81 157.73 549.69 157.69 540.73 160.68 539.93 160.08 538.65 159.97 536.89 158.98 536.67 158.31 535.36 157.36 534.55 153.51 535.63 145.17 535.88 144.42 536.42 136.69 537.22 131.83 538.5 130.16 538.09 128.08 538.64 124.29 538.09 123.37 537.39 113.44 539.39 112.97 538.85 111.34 537.79 111.11 537.58 110.22 536.53 109.69 535.69 107.31 535.94 100.3 536.25 99.2 535.8 98.17 535.83 95.13 536.35 94.9 536.12 92.91 541.91 94.82 543.43 93.94 544.23 94.16 545.9 95.35 547.08 95.04 548.44 97.13 550.06 97.76 550.27 100.05 552.61 100.93 554.09 100.25 556.77 99.87 559.73 100.91 560.47 102.67 562.77 102.97 566.29 102.87 566.96 102.29 567.46 100.05 569.09 95.87 571.3 94.99 573.94 92.54 575.38 92.8 576.79 91.56 578.16 92.46 579.98 92.77 582.72 90.1 585 90.49 586.03 91.3 587.64 90.22 588.64 88.87 590.92 88.31 592.36 86.7 593.52 86.09 593.54 84.68 594.69 83.65 598.73 81.33 599.92 80.82 602.05 79.11 601.7 77.55 602.32 76.4 606.3 76.6 609.21 74.56 610.32 74.69 611.07 76.68 613.06 78.64 615.92 79.25 617.81 81.51 618.75 81.71 620.28 82.86 621.88 85.19 623.56 86.74 624.71 86.12 626.99 85.67 628.77 84.97 629.87 82.74 631.99 81.26 635.98 77.34 638.48 74.37 641.35 74.58 642.18 74.99 644.85 75.61 645.97 76.92 647.54 77.7 648.73 77.69 650.53 76.69 654.53 76.62 655.54 78.38 657.16 78.2 657.83 80.47 657.88 82.36 658.35 83.74 656.58 84.87 656.77 86.76 657.94 86.77 656.97 90.33 657.99 90.79 661.06 90.72 661.96 93.39 661.55 94.84 660.78 95.56 661.72 97.9 661.51 99.21 661.85 100.29 660.4 102.06 659.09 103.23 658.48 104.23 658.14 106.8 656.66 107.12 660.81 111.25 662.39 111.75 660.71 113.74 662.04 117.76 664 119.25 661.2 120.98 659.89 125.45 659.41 126.52 659.18 129.2 659.72 130.3 659.33 131.51 659.99 133.74 658.56 136.35 659.42 138.08 659.65 139.62 660.23 140.68 658.88 146.43 656.77 150.78 657.24 151.87 655.52 154.64 Z" id="23510370"/>
<path d="M 670.91 36.38 670.62 37.84 668.54 39.19 667.82 40.78 666.54 41.37 665.75 42.38 664.53 45.23 663.5 45.71 660.62 45.51 659.89 46.25 657.9 50.34 655.46 51.88 654.15 54.89 653.27 55.73 652.22 55.92 650.8 57.13 648.21 58.2 645.14 61.26 644.24 61.43 642.38 62.64 640.92 64.94 640.36 66.76 641.02 68.63 640.11 70.45 638.48 74.37 635.98 77.34 631.99 81.26 629.87 82.74 628.77 84.97 626.99 85.67 624.71 86.12 623.56 86.74 621.88 85.19 620.28 82.86 618.75 81.71 617.81 81.51 615.92 79.25 613.06 78.64 611.07 76.68 610.32 74.69 609.21 74.56 606.3 76.6 602.32 76.4 601.7 77.55 602.05 79.11 599.92 80.82 598.73 81.33 594.69 83.65 593.54 84.68 593.52 86.09 592.36 86.7 590.92 88.31 588.64 88.87 587.64 90.22 586.03 91.3 585 90.49 582.72 90.1 579.98 92.77 578.16 92.46 576.79 91.56 575.38 92.8 573.94 92.54 571.3 94.99 569.09 95.87 567.46 100.05 566.96 102.29 566.29 102.87 562.77 102.97 560.47 102.67 559.73 100.91 556.77 99.87 554.09 100.25 552.61 100.93 550.27 100.05 550.06 97.76 548.44 97.13 547.08 95.04 545.9 95.35 544.23 94.16 543.43 93.94 541.91 94.82 536.12 92.91 536.36 89.02 535.54 88.77 534.87 87.8 533.76 82.52 535.41 82.43 535.14 80.5 533.22 79.15 530.05 74.74 531.55 72.07 532.13 70.58 533.67 70.18 534.3 70.77 536.05 70.94 544.48 64.46 545.57 64.48 549.25 62.06 551.75 59.93 552.23 59.08 556.25 56.29 557.1 55.22 558.49 54.4 561.27 53.31 564.15 52.42 566.39 52.28 567.63 51.89 568.24 50.22 569.52 50.9 575.77 49.39 577.51 48.35 582.33 44.7 583.62 42.32 584.14 39.89 585.47 36.88 587.46 29.58 588.7 27.11 589.89 22.53 590.43 19.29 589.94 17.88 589.06 17.06 587.84 16.69 588.68 15.66 589.74 16.24 591.72 16.35 594.78 16.05 597.18 16.06 599.22 15.6 600.03 15.73 602.05 17.6 607.64 18.49 609.51 17.83 611.58 17.66 615.31 15.85 618.18 17.94 619.94 18.93 621.95 18.11 623.2 17.24 625.92 14.63 627.32 13.86 628.5 11.26 628.58 10.34 630.44 10.8 633.21 7.91 634.25 7.25 635.04 6.06 635.74 3.88 635.85 2.53 637.21 1 637.87 2.1 641.88 3.98 645.71 4.61 648.15 5.3 649.24 5.87 650.56 5.65 650.46 6.73 652.51 6.73 652.41 8.69 652.82 10.6 653.88 12.41 654.97 12.37 654.44 14.13 655.47 15.61 656.2 15.72 658.23 18.59 660.04 17.9 660.64 19.39 661.91 19.04 662.38 19.5 662.78 22.97 663.34 24.41 665.51 27.73 666.93 29.6 669.36 33.2 671.22 35.69 670.91 36.38 Z" id="23510380"/>
<path d="M 722.25 75.83 721.17 77.63 721.69 79.13 719.76 80.87 718.45 80.98 718.47 84.06 718.05 85.52 716.79 86.11 717.32 87.25 715.17 89.76 717.42 107.93 717.68 110.6 718.74 119 718.36 122.23 716.68 122.92 716.07 123.52 716.07 124.7 717.72 126.5 717.31 127.1 717.29 129.09 715.98 129.6 714.89 130.51 714.07 130.42 712.81 131.63 711.91 133.99 710.13 134.55 708.07 135.8 707.03 135.04 705.76 134.74 705.37 133.67 704.13 133.18 703.27 133.45 700.93 132.19 700.63 130.08 698.25 129.44 697.59 131.78 697.48 133.17 695.93 134.84 694.47 135.84 692.57 136.19 692.58 137.23 693.45 137.89 692.77 139.83 693.48 141.55 692.67 143.88 692.08 144.5 690.22 144.51 688.08 145.49 685.75 146.94 683.32 147.44 680.77 148.33 679.5 149.06 677.95 148.45 676.31 147.09 673.94 146.25 672.04 147.32 671.18 147.36 670 146.5 668.38 146.71 667.54 148.03 665.99 149.31 664.75 151.55 663.09 152.5 661.75 152.66 661.02 153.78 659.73 154.23 658.84 154.04 655.52 154.64 657.24 151.87 656.77 150.78 658.88 146.43 660.23 140.68 659.65 139.62 659.42 138.08 658.56 136.35 659.99 133.74 659.33 131.51 659.72 130.3 659.18 129.2 659.41 126.52 659.89 125.45 661.2 120.98 664 119.25 662.04 117.76 660.71 113.74 662.39 111.75 660.81 111.25 656.66 107.12 658.14 106.8 658.48 104.23 659.09 103.23 660.4 102.06 661.85 100.29 661.51 99.21 661.72 97.9 660.78 95.56 661.55 94.84 661.96 93.39 661.06 90.72 657.99 90.79 656.97 90.33 657.94 86.77 656.77 86.76 656.58 84.87 658.35 83.74 657.88 82.36 657.83 80.47 657.16 78.2 655.54 78.38 654.53 76.62 650.53 76.69 648.73 77.69 647.54 77.7 645.97 76.92 644.85 75.61 642.18 74.99 641.35 74.58 638.48 74.37 640.11 70.45 641.02 68.63 640.36 66.76 640.92 64.94 642.38 62.64 644.24 61.43 645.14 61.26 648.21 58.2 650.8 57.13 652.22 55.92 653.27 55.73 654.15 54.89 655.46 51.88 657.9 50.34 659.89 46.25 660.62 45.51 663.5 45.71 664.53 45.23 665.75 42.38 666.54 41.37 667.82 40.78 668.54 39.19 670.62 37.84 670.91 36.38 676.15 41.45 683.87 47.4 693.6 53.05 696.88 56.47 699.95 59.29 705.48 63.44 708.28 65.95 709 66.12 714.76 70.54 722.25 75.83 Z" id="23510390"/>
<path d="M 343.52 39.6 342.94 40.38 341.78 39.24 342.53 37.24 343.6 38.05 343.52 39.6 Z M 412.25 24.66 412.92 24.91 413.85 26.36 414.07 27.63 414.8 29.06 417.6 30.31 419.9 30.76 421.64 31.81 421.97 32.54 424.1 31.79 426.04 33.28 426.42 33.94 429.3 36.2 438.03 42.01 440.27 43.29 445.27 45.86 447.79 46.7 452.87 49.28 453.37 52.7 453.71 53.2 455.39 52.35 458.22 52.34 461.12 51.4 463 49.71 465.08 51.13 469.46 52.12 472.18 51.92 475.36 52.45 478.45 52.53 479.79 52.81 480.37 52.32 481.95 52.37 483.46 51.6 485.32 51.04 491.54 48.7 492.67 47.62 494.05 44.71 493.63 43.3 494.91 42.03 496.1 42.67 496.48 44.19 498.21 45.68 499.7 46.26 500.35 46.06 500.93 49.98 502.76 53.51 504.22 54.31 505.91 57.07 509.54 59.54 510.13 60.76 507.7 61.95 506.09 63.92 505 64.54 503.1 67.32 503.66 68.22 503.39 69.48 503.45 71.35 503.85 73.01 504.74 74.68 504.35 75.56 503.21 75.56 500.54 77.31 499.33 77.69 497.66 79.25 496.44 79.38 493.5 78.93 493.59 79.78 495.3 79.8 496.28 80.19 495.9 81.09 490.91 87.78 490.35 88.03 488.7 91.25 486.82 92.77 485.61 95.67 484.95 98.13 485.36 99.9 484.9 101.19 483.95 102.34 482.93 101.98 480.3 103.12 478.14 103.79 475.83 104.85 469.08 108.21 468.11 107.76 465.57 110.17 461.28 112.86 460.59 113.82 459.18 114.42 457.88 114.33 456.3 115.62 454.23 116.32 452.71 117.22 450.22 118.06 449.28 119.75 448.08 121.08 445.73 119.19 444.5 117.42 442.74 116.56 442.29 115.55 438.08 113.39 438.23 112.92 433.89 110.96 430.45 110.62 427.57 111.21 426.71 110.48 426.12 109.27 423.29 108.5 422.56 109.87 420.79 109.99 420.16 110.8 416.49 111.5 415.2 112.35 413.65 111.86 411.43 112.58 409.71 112.22 409.29 114 407.06 116.35 405.81 117.96 404.67 118.54 403.56 117.98 398.18 117 392.3 116.53 391.26 115.76 390.24 116.22 388.92 115.96 387.98 118.29 383.21 120.37 382.48 120.95 380.82 119.03 380.16 119.23 377.97 122.57 379.04 125.68 378.12 127.4 377.72 129.53 375.69 131.88 373.93 133.54 372.87 134.04 371.61 135.38 371.59 136.02 367.49 141.07 365.64 140.77 358.73 136.91 356.5 135.33 352.24 131.85 350.98 129.92 350.87 128.19 342.25 119.5 339.08 117.07 332.33 110.7 330.69 110.67 329.61 111.29 328.31 111.2 328.39 109.87 326.41 109.32 328.07 108.14 328.34 105.65 327.93 104.41 327.16 103.6 328.92 102.39 330.55 102.27 331.02 101.57 332.48 100.7 333.62 101.22 335.47 100.88 336.98 100.3 341.2 97.02 342.1 95.95 344.7 93.58 344.93 92.5 344.31 91.33 345.64 90.49 346.82 87.4 346.87 84.81 348 84.47 349.44 83.28 351.75 80.39 350.94 78.65 352.42 78.85 352.96 78.3 353.2 76.45 354.09 75.37 353.48 73.35 354 70.33 352.29 69.62 351.87 69.06 349.86 69.02 348.78 67.51 348.8 65.62 348.33 63.04 349.43 62.72 350.42 61.7 350.88 59.22 351.68 58.59 352.58 59.12 353.87 56.55 355.59 55.04 355.19 52.82 354.04 50.66 354.65 46.54 361.21 41.51 363.93 39.73 369.32 36.43 368.99 34.85 369.86 34.01 371.38 31.73 373.08 30.98 375.83 27 377.55 26.7 378.88 25.24 381.26 26.47 382.64 28.03 384.39 28.72 385.59 28.82 387.14 29.82 388.8 30.18 390.87 29.82 394.5 29.52 396.46 29.99 398.58 29.27 401.63 30.18 402.25 29.46 403.95 29.43 404.56 28.76 405.82 28.52 407.06 27.66 409.06 26.75 411.12 24.8 412.25 24.66 Z" fill-rule="evenodd" id="23510400"/>
<path d="M 8.47 382.48 9.61 383.58 11.16 385.86 10.94 387.05 10.22 387.79 6.94 388.31 5.71 389.17 4.99 391.43 1.54 391.35 1 388.99 2.64 386.25 3.93 385.24 4.19 383.97 4.94 383.48 6.5 383.44 7 382.12 8.47 382.48 Z M 417.07 316.74 416.31 316.43 416.4 314.42 415.69 313 417.69 311.62 418.91 313.05 418.13 315.25 417.41 315.62 417.07 316.74 Z M 366.41 308.61 367.63 308.89 368.37 310.28 369.28 310.14 371.23 311.25 370.87 312.05 373.65 314.07 374.57 315 375.07 314.36 377.67 313.85 380.79 314.27 382.96 314.29 385.88 313.5 386.42 313.84 388.48 312.71 390.88 312.4 391.76 312.75 394.57 312.54 395.91 314.19 397.25 315.24 398.36 315.53 399.29 316.94 399.2 318.69 397.85 318.79 396.34 319.7 395.34 321.01 396.22 322.06 395.02 323.99 394.1 328.22 393.33 330.69 391.41 330.74 391.47 332.6 391.15 336.44 390.71 338.24 390.8 340.03 391.56 341.35 392.47 343.71 392.13 344.6 392.85 348.33 393.52 349.37 395.35 351.06 397.17 351.99 403.72 354.88 404.56 356.12 405.82 357.17 405.85 358.93 406.34 360.42 408 361.69 405.39 362.21 404.74 359.26 400.7 357.17 398.33 354.78 397.67 354.95 394.02 354.16 390.95 353.3 385.85 351.35 384.13 350.46 380.84 348.3 373.78 342.75 370.51 339.56 369.7 339.57 368.15 337.58 366.85 338.12 366.78 336.33 365.78 334.25 364.34 332.66 360.48 325.93 357.8 321.5 355.73 317.46 353.5 315.5 352.32 314.93 351.85 311.77 352.65 311.23 354.21 311.96 355.86 314.28 357.09 314.76 358.99 314.93 359.1 316.22 361.69 314.19 363.56 312.39 364.03 310.76 363.38 309.34 364.52 308.65 366.41 308.61 Z M 347.06 293.5 346.02 292.03 347.74 292 347.06 293.5 Z M 354.65 290.68 357.9 292.35 358.71 293.27 361.43 295.32 362.57 295.34 364.29 295.9 365.42 297.2 367.22 298.11 368.89 298.36 372 298.25 376.41 297.25 377 295.53 378.27 295.35 380.14 296.91 377.77 298.69 376.56 298.12 374.55 297.92 371.11 299 369.38 299.94 367.15 301.53 365.74 300.93 362.4 301.53 359.84 301.23 358.84 300.77 357.1 301.38 356.06 302.69 352.78 303.6 353.48 300.22 353.33 298.43 352.01 295.33 351.69 295.06 351.72 292.42 351.32 291.16 352.54 291.23 353.46 290.7 354.65 290.68 Z M 81.38 266.2 81.69 267.16 80.54 267.75 78.53 267.54 78.66 266.32 81.38 266.2 Z M 313 250.78 313.1 251.41 315.11 251.49 314.14 254.51 313.9 256.96 314.78 258.46 314.54 259.23 314.57 261.83 316.34 266.14 318.14 269.46 319.27 270.4 320.01 272.06 321.17 273.29 327.19 283.85 329.05 285.11 330.26 286.47 332.5 288.44 334.15 288.83 334.77 288.5 335.89 289.42 335.83 290.16 334.92 291.72 334.32 292.01 332.93 293.82 330.2 296.3 328.31 298.28 327.01 300.29 326.68 302.75 329.54 305.24 331.06 307.8 330.45 309.12 329.32 308.24 328.03 306.43 327.22 305.89 324.29 305.25 320.28 303.73 319.09 303.51 318.29 303.97 316.91 303.04 313.89 302.62 313.29 301.95 311.26 301.97 310.14 303.64 307.99 304.95 306.13 304.63 305.1 303.88 305.95 302.77 307.85 302.41 310.04 299.88 309.97 298.72 309.16 296.53 308.31 295.08 307.18 294.04 307.25 293.03 299.51 286.94 295.31 284.28 291.47 282.04 290.23 281.54 288.01 282.09 285.49 281.53 284.7 281.92 284.86 283.29 284.26 283.92 282.66 283.6 280.88 283.81 279.76 284.61 279.15 284.23 276.86 284.42 276.06 285.7 276.34 287.76 275.36 287.95 273.62 286.88 272.07 285.43 271.83 284.63 269.35 283.22 267.1 282.57 265.84 281.71 265.12 280.59 264.29 278.43 263.35 278.01 262.33 278.67 261.8 278.04 259.14 277.61 259.06 274.58 259.78 273.87 259.21 272.22 258.19 271.54 257.72 270.43 259.06 269.72 259.87 269.87 259.72 271.53 260.25 272.17 261.8 272.79 263.56 272.68 265.66 271.84 267.12 269.98 266.87 268.74 267.28 268.11 270.77 269.52 271.44 269.36 273.5 267.81 275.51 266.6 276.12 267.92 276.41 269.65 278.59 270.54 279.77 271.39 283.34 271.08 284.77 270.26 285.21 270.75 297.92 263.06 298.02 262.31 299.03 261.28 300.92 257.79 302 257.33 302.32 258.64 304.94 258.39 306.32 257.34 309.14 254.53 310.87 252.37 310.31 251.39 310.73 250.8 313 250.78 Z M 222.26 245.86 224.4 245.85 225.92 245.25 226.99 243.73 228.75 244.77 228.9 245.74 226.67 247.96 226.43 248.7 228.65 250.86 229.51 252.21 231.35 253.34 232.15 251.67 234 254.08 236.19 254.5 237.08 253.78 238.6 253.83 241.15 254.95 241.69 255.5 240.59 258.11 240.93 259.69 242.14 259.62 242.71 260.13 243.01 262.06 241.94 262.47 241.02 262.07 238.47 262.08 237.46 262.84 235.51 263.4 233.72 262.56 233.37 261.17 230.9 260.08 230.27 260.31 226.31 259.69 225.5 258.57 224.45 258.01 222.64 257.77 221.42 258.3 221.33 259.17 218.72 261.11 218.12 260.07 218.71 259.3 218.04 257.91 217 257.22 217.43 256.03 216.11 253.35 214.55 252.74 212.27 252.95 212.29 251.62 213.38 249.07 213.11 247.05 213.54 246.44 215.36 245.6 216.04 243.83 218.66 243.03 220.46 245.56 222.26 245.86 Z" fill-rule="evenodd" id="23510420"/>
</g>
</svg>