<?xml version="1.0"?>
<svg xmlns="http://www.w3.org/2000/svg" version="1.2" baseProfile="tiny" width="800" height="561" viewBox="0 0 800 561" stroke-linecap="round" stroke-linejoin="round">
<g id="dong">
<path d="M 64.87 108.99 64.81 109.17 65.03 109.79 64.86 110.14 63.72 110.69 63.88 111.18 63.46 111.88 63.47 112.18 63.7 112.87 63.58 113.21 63.29 113.54 62.87 113.74 63 114.08 63.83 114.28 63.67 114.57 63.08 114.68 62.92 114.93 62.29 115.19 62.14 114.65 62.42 114.33 61.98 114.25 61.53 114.55 61.14 114.51 61.12 113.88 61.25 113.57 60.8 113.42 60.04 113.65 59.58 113.54 59.05 113.89 58.74 113.93 58.43 113.31 58.43 112.75 58.08 112.61 57.2 112.58 56.06 113.55 55.67 113.58 55.21 113.27 54.86 113.42 53.8 114.31 53.52 114.03 53.28 114.05 53.04 114.56 52.53 114.8 52.21 114.74 51.88 115.19 51.36 116.12 51.35 116.42 50.93 117.19 50.78 116.95 50.45 116.86 50.14 117.34 49.49 117.47 49.2 117.37 48.6 117.61 47.86 118.34 47.87 118.76 47.67 118.84 47.31 118.21 46.74 117.99 46.81 117.68 46.78 117.12 47.91 116.59 48.33 116.3 48.85 115.7 49.52 115.3 49.76 114.82 49.77 114.47 49.99 113.55 49.85 112.81 49.6 112.18 50 112.11 50.34 112.36 51.06 112.39 51.62 111.95 52.44 112.08 52.85 111.82 53.11 111.36 53.17 110.88 53.13 110.24 53.22 109.99 52.74 109.58 52.19 109.56 52.37 108.99 52.82 108.77 52.97 108.87 53.39 109.6 53.48 110.04 54.48 110.53 54.91 110.5 55.7 109.87 55.74 110.05 56.74 109.37 57.1 109.25 57.89 109.66 59.02 109.41 59.61 109.43 61.05 109.29 61.73 108.97 62.18 109 62.52 108.9 63.03 108.42 63.55 108.34 64.28 108.68 64.65 108.7 64.87 108.99 Z M 18.57 97.54 19.26 97.87 19.28 98.03 18.48 98.1 18.17 98.04 17.89 97.6 18.57 97.54 Z M 19.64 97.5 18.73 97.57 18.54 97.13 19.64 97.5 Z M 39.49 72.63 39.54 72.93 39.88 73.55 40.67 74.36 41.48 74.13 41.74 73.69 43.32 73.84 43.52 74.06 44.17 73.84 44.61 73.37 45.4 74.03 45.86 74.95 46.03 75.45 47.18 75.41 48 76.21 48.12 76.81 47.11 76.98 46.45 77.18 44.54 78.01 43.77 78.56 42.94 79.34 42.64 79.73 42.31 80.43 42.08 81.16 42.12 81.55 41.98 82 42.34 82 42.49 82.56 42.61 83.43 43.02 83.81 42.9 84.29 43.21 84.48 43.38 84.8 43.17 85.02 43.67 85.44 44.2 85.77 44.52 86.33 44.54 86.83 44.36 87.27 43.87 87.85 43.87 88.35 44.07 88.59 44.11 88.94 43.57 90.06 43.19 90.41 42.38 90.65 41.35 91.83 40.97 92.36 40.04 92.99 39.09 93.26 38.67 93.28 37.92 94.02 37.21 94.65 36.51 94.31 35.74 93.19 35.37 92.91 35.78 92.74 35.7 92.31 34.73 92.09 34.34 92.31 33.93 92.92 33.56 93.66 33.13 93.56 33.17 93.26 32.94 92.94 32.19 92.72 31.66 93.21 31.44 93.53 31.11 93.76 30.87 94.37 30.54 94.68 29.87 94.81 29.14 95.5 29.24 95.76 29.59 95.86 29.83 96.18 30.37 96.39 30.56 96.82 30.1 97.15 29.08 97.05 28.35 97.44 28.11 97.3 28.18 96.88 27.81 96.15 27.59 95.57 28.18 95.16 28.34 94.9 28.89 94.62 29.29 94.13 29.61 93.52 29.54 92.97 29.05 92.63 29.19 92.3 29.5 92.3 29.8 92.1 30.04 91.71 30.12 91.36 29.91 90.44 29.55 89.7 28.76 89.48 28.37 89.04 28.18 88.54 27.88 88.22 27.33 89 26.97 89.81 26.68 89.94 26.12 89.84 25.59 89.52 25.8 89.26 26.03 88.59 25.68 88.46 24.9 87.95 24.83 87.64 23.92 87.61 23.45 87.44 22.97 87.1 22.95 86.74 22.16 86.39 21.43 86 20.81 85.39 21.04 84.97 21.52 84.85 22.93 85.15 23.65 85.86 24.38 86.39 25.45 86.65 26.58 86.53 27.5 85.73 27.53 85.2 27.73 85.03 28.1 84.3 28.27 83.68 28.21 83.48 28.53 83.08 28.01 82.51 28.46 82.13 29.23 81.91 29.36 81.68 29.42 80.93 29.27 80.57 29.54 80.26 30.3 79.89 30.92 79.75 31.16 79.51 31.01 79.04 31.09 78.55 31.46 78.01 32.07 77.48 32.53 77.49 32.67 77.22 33.36 76.79 33.44 76.58 33.86 76.53 33.97 76.79 34.73 76.93 35.29 76 36.33 76.29 36.84 75.95 36.73 75.61 37.26 75.49 38.07 74.53 38.1 73.9 37.95 73.21 37.73 72.53 37.95 72.31 37.5 71.53 38.04 71.25 38.75 71.37 39.32 71.91 39.49 72.63 Z" fill-rule="evenodd" id="23520340"/>
<path d="M 479.02 558.25 479.03 558.58 479.26 558.75 479.83 558.79 479.82 559.13 479.53 559.41 479.34 559.38 478.89 560 478.63 559.91 478.68 559.62 478.56 558.96 478.79 558.38 479.02 558.25 Z M 494.77 540.53 494.54 541.23 494.14 541.15 494.24 540.6 494.77 540.53 Z M 495.25 539.97 495.2 540.35 495 540.59 494.74 540.32 494.91 539.99 495.25 539.97 Z M 492.52 538.86 492.88 539.33 493.16 539.31 493.27 539.68 493.24 540.56 492.95 541.13 492.6 541.24 492.29 541.53 492.22 542.08 491.83 542.04 491.86 541.55 491.76 540.7 491.55 540.23 491.78 539.84 491.9 539.35 492.33 539.14 492.52 538.86 Z M 496.24 538.45 496.39 538.6 496.31 538.95 496.37 539.74 495.69 539.75 495.48 539.17 495.65 538.93 496.05 538.98 496.24 538.45 Z M 464.12 530.7 464.31 530.87 464.3 531.18 463.99 531.21 463.76 530.8 464.12 530.7 Z M 465.81 530.77 466.35 531.02 466.03 531.36 465.56 531.45 465.26 531.14 465.37 530.82 465.81 530.77 Z M 574.37 508.15 574.5 508.4 574.44 508.72 574.12 508.59 574.37 508.15 Z M 579.7 503 579.7 503.44 579.22 503.43 579.23 503.89 578.74 504.67 578.07 505 578.01 504.58 578.21 504.09 578.15 503.66 578.7 503.66 579.15 503.44 579.22 503.02 579.7 503 Z M 562.96 501.97 563.25 502.12 563.66 501.96 563.7 502.21 563.99 502.54 564.15 502.91 564.38 502.84 565.1 503.19 565.42 503.62 566.06 503.56 566.22 503.71 566.29 504.23 566.2 505.01 565.83 505.13 565.34 505.83 565.09 506.29 564.56 507.08 564.81 507.66 565.16 508.22 565.73 508.75 566.22 509.06 566.67 508.91 566.88 508.96 567.74 508.75 568.04 508.45 568.01 508.14 569.59 507.73 570.17 507.79 570.13 507.99 569.51 507.88 568.94 508.05 568.94 508.23 568.5 508.37 567.49 509.41 567.84 509.81 568.73 510.22 569.18 510.27 569.89 510.61 570.66 510.82 571.33 510.69 571.99 510.38 572.21 510.13 572.64 509.17 572.67 508.81 573.29 509.27 573.85 509.21 574.07 509.02 574.52 509.14 575.51 508.81 575.66 508.5 575.91 508.54 576.14 507.82 576.56 507.56 576.54 507.4 577.16 506.97 577.4 507.14 576.6 508.04 576.38 508.75 575.66 509.05 575.65 509.61 575.47 509.65 575.02 510.19 574.43 510.05 573.96 510.56 573.29 510.65 573.04 510.99 572.66 510.93 572.37 511.15 572.47 511.45 571.85 511.45 570.94 511.96 570.33 512.63 570.1 513.21 569.55 513.3 569.51 513.56 568.98 513.82 568.32 513.84 568.03 513.99 567.77 513.9 567.08 514.03 566.08 513.71 565.64 513.25 565.35 513.12 565.19 512.76 565.26 512.13 565.1 511.92 565.24 511.67 565.2 511.19 565.55 510.91 565.68 510.51 565.62 510.21 565.16 509.87 564.64 509.72 564.06 510.07 564.14 510.25 563.53 510.35 563.5 509.79 563.79 509.23 563.59 508.81 562.63 508.73 562.54 508.37 562.26 508.14 561.9 507.63 561.78 507.05 561.38 507.24 561.07 507 561.24 506.38 560.94 506.29 560.46 506.34 560.44 505.67 559.62 505.49 559.68 505.16 559.57 504.25 560.19 504.08 560.66 503.65 560.21 503.28 560.38 502.98 560.16 502.51 560.55 501.96 560.68 502.08 561.78 502.27 562.04 501.77 562.28 501.88 562.34 502.2 562.96 501.97 Z M 580.67 500.96 581 501.36 580.49 501.82 580.44 502.13 580.22 502.31 580.02 502.08 580.2 501.51 580.56 501.39 580.44 500.99 580.67 500.96 Z M 574.16 493.25 574.77 493.39 574.25 493.63 574.16 493.25 Z M 573.04 493.02 573.88 493.16 573.76 493.52 572.71 493.32 572.67 492.97 573.04 493.02 Z M 553.14 492.51 553.26 493.05 552.99 493.43 552.62 493.31 552.76 492.54 553.14 492.51 Z M 553.12 491.19 553.24 491.63 552.97 491.78 552.74 491.42 553.12 491.19 Z M 555.14 491.51 555.24 491.79 555.77 492.15 555.45 492.47 555.15 492.21 554.62 492.27 554.54 491.81 554.79 491.09 555.01 491.16 555.14 491.51 Z M 566.67 488.72 567.21 488.63 567.54 489.55 567.76 489.52 567.95 489.79 568.05 490.21 567.86 490.58 567.61 490.6 567.68 490.98 568.15 491.46 568.46 491.51 568.57 491.86 568.78 491.95 568.65 492.48 568.26 492.58 567.78 492.98 567.47 493.02 566.88 492.92 566.31 493.08 565.94 492.89 566.21 492.62 566.17 492.37 565.68 492.01 566.12 491.86 566.44 490.88 565.85 490.68 565.41 490.21 565.55 489.54 565.73 489.05 566.4 488.59 566.67 488.72 Z M 545.67 487.08 545.83 487.36 545.79 487.84 545.92 488.07 545.66 488.25 545.64 488.71 545.36 489.27 545.01 488.91 544.37 488.79 544.05 488.21 544.12 487.75 544.33 487.54 545.47 487.04 545.67 487.08 Z M 566.42 486.23 566.41 486.72 566.16 487.59 565.49 488.2 565.11 487.84 565.23 487.61 565.08 487 565.27 486.53 565.63 486.18 566.42 486.23 Z M 570.93 485.9 571.13 486.66 571 486.8 570.48 486.86 570.22 486.76 570.09 486.4 570.93 485.9 Z M 550.1 484.89 549.9 484.71 550.02 484.27 550.29 484.62 550.1 484.89 Z M 577.21 482.09 577.36 482.33 577.69 482.4 577.59 483.26 577.37 483.47 576.77 483.62 576.68 484.07 577.04 484.22 577.07 484.72 576.5 485.14 576.56 485.6 577.1 486.38 577.49 486.25 577.4 486.82 577.79 487.22 578.42 487.37 578.47 487.76 578.29 487.83 577.83 487.7 577.65 487.34 577.36 487.06 577.16 487.06 576.08 487.42 575.47 487.86 575.37 488.11 575.43 488.5 575.13 488.87 575.01 489.19 574.63 489.36 574.18 489.88 573.82 490.09 573.54 489.89 573.49 489.16 573.71 488.74 574.03 488.83 574.61 488.14 574.63 487.81 574.37 487.34 574.64 486.69 574.54 486 575.13 485.64 575.45 485.53 575.47 485.03 575.95 484.97 576.09 484.82 576.18 484.29 575.97 483.76 575.26 483.21 575.43 482.75 575.47 482.35 576.19 482.21 576.7 482.29 577.21 482.09 Z M 574.05 481.59 574.21 481.62 574.42 482.07 574.74 482.12 575.1 482.38 574.94 482.54 574.19 482.66 573.99 482.36 573.89 481.69 574.05 481.59 Z M 557.44 481.27 557.02 481.52 556.8 481.42 557.01 480.69 557.44 480.97 557.44 481.27 Z M 563.92 480.03 564.68 480.34 564.03 481.21 563.67 481.09 563.48 480.32 563.92 480.03 Z M 568.63 479.39 568.93 479.48 568.88 479.98 568.63 480.26 568.12 480.14 567.77 479.93 567.09 480.02 566.89 480.41 566.82 481.03 567.23 481.43 567.19 481.74 566.63 481.56 566.36 481.7 565.96 481.56 565.67 481.31 565.36 480.6 566.23 480.1 566.9 480.08 566.71 479.84 566.88 479.65 567.41 479.74 567.74 479.45 568.16 479.4 568.34 479.19 568.63 479.39 Z M 563.06 478.78 563.01 479.3 562.64 479.53 562.31 479.46 562.33 479.13 562.52 478.89 563.06 478.78 Z M 568.7 476.5 569.27 476.84 569.45 477.29 569.41 477.61 569.12 477.74 568.33 477.45 568.17 476.62 568.7 476.5 Z M 548.39 474.34 548.79 474.76 549.22 474.89 549.7 474.86 549.79 474.6 550.13 474.83 550.64 474.43 550.93 474.71 550.92 475.05 551.22 475.62 551.57 476.02 551.56 476.41 551.75 476.52 552.52 476.17 552.85 475.85 553.21 476.33 553.63 476.42 554.24 477.12 555.03 477.17 555.21 477.31 555.09 478.36 555.38 478.83 554.11 479.17 553.96 479.41 554.05 480.09 553.93 480.39 553.14 480.3 552.72 480.02 552.5 480.05 552.01 479.64 551.66 478.95 550.83 479.02 550.48 478.91 550.66 478.43 550.31 478.07 550.37 477.82 549.97 477.69 549.44 477.72 548.87 478.02 549.21 478.4 549.24 479.05 549.04 479.26 549.13 479.55 548.67 480.47 549.09 481.36 549.11 481.73 549.33 482.24 549.19 482.41 548.72 482.51 548.7 483.04 549.44 483.48 549.26 483.84 548.92 483.66 548.7 483.88 548.36 483.75 548.27 483.32 548.06 483.28 547.65 483.52 547.73 484.31 548.51 485.52 548.71 485.72 548.46 486.09 548.49 486.35 548.83 486.57 548.96 487.04 548.74 487.36 548.85 487.61 548.64 487.83 547.96 487.95 547.86 487.52 547.34 487.41 547.1 487.19 546.6 487 546.23 487.01 546.28 486.55 546.01 486.05 546.06 485.87 545.79 485.4 546.77 485.36 546.89 483.89 546.42 483.01 546.64 482.51 546.17 482.16 545.88 482.42 545.77 482.94 545.52 483.34 544.85 483.18 544.57 482.8 544.88 482.34 544.48 482.05 544.24 481.6 544.34 481.39 544.13 480.79 544.31 480.3 544.88 480.38 545.48 480.15 545.73 480.24 546.02 479.77 546.29 479.82 546.65 479.68 546.72 478.86 547.07 478.52 546.92 478.04 547.04 477.62 546.93 476.99 546.55 476.94 546.32 476.63 546.52 476.36 546.87 476.34 547.28 475.87 547.66 475.76 547.75 475.57 547.7 474.79 547.55 474.54 547.82 474.22 548.1 474.16 548.39 474.34 Z M 577.63 462.74 578.04 462.88 578.16 463.37 578.05 463.83 577.76 463.79 577.45 462.97 577.63 462.74 Z M 577.2 460.59 577.36 460.62 577.52 461.07 577.28 461.1 576.98 460.8 577.2 460.59 Z M 578.1 452.59 578.34 452.84 578.76 453.63 578.82 454.01 579.14 454.42 579.37 455.06 579.31 455.37 579.04 455.73 578.95 456.25 578.98 456.85 578.54 457.44 578.65 457.95 578.27 458.32 578.12 458.81 577.65 458.69 577.38 458.4 576.94 457.72 576.69 457.7 576.6 457.21 576.71 457.09 576.49 456.57 576.7 456.25 577 456.21 576.96 455.92 577.3 455.74 577.27 455.22 576.91 455.22 576.74 454.78 576.83 454.44 577.22 454.55 577.44 454.04 578.22 453.61 577.99 452.89 578.1 452.59 Z M 574.89 451.82 575 452.16 574.75 452.53 574.57 452.2 574.89 451.82 Z M 578.81 449.51 579.07 450.01 579.08 450.48 579.42 451.31 579.35 451.51 579.65 452.05 579.47 452.74 579.18 452.5 579.02 451.95 579.17 451.6 578.82 451.32 578.82 451.04 578.54 450.39 578.61 449.61 578.81 449.51 Z M 573.58 446.37 574.04 446.8 573.93 447.07 573.18 446.52 573.58 446.37 Z M 570.15 442.58 570.45 442.49 570.45 442.86 569.67 443.2 569.65 443.38 569.16 443.66 569.03 443.35 569.29 442.92 569.71 443.03 570.04 442.85 570.15 442.58 Z M 573.44 441.58 573.81 441.77 573.79 442.39 573.53 442.42 573.45 443.01 573.99 443.4 573.9 443.82 574.08 444.09 574.01 444.57 574.33 444.83 574.33 445.47 573.73 445.89 573.28 445.83 573.38 445.37 573.02 445.11 573.02 444.81 572.57 444.53 572.64 443.8 572.5 443.68 572.55 443.16 572.37 442.92 571.54 442.78 571.88 442.43 571.95 442.19 572.4 442.12 572.57 441.8 573.44 441.58 Z M 609.08 425.34 609.57 425.81 609.78 426.24 610.48 426.32 610.77 426.26 611.13 426.38 611.28 427.05 612.26 427.38 612.35 427.88 612.05 428.18 612.17 428.48 612.45 428.46 612.96 428.62 613.05 429.12 612.69 429.45 612.75 429.87 613.06 430.16 613.64 430.37 614.14 430.39 615.07 430.27 615.38 430.17 615.59 429.93 615.97 429.12 615.81 428.72 616.04 428.35 616.59 428.26 616.88 428.64 617.11 429.58 616.36 430.16 616.23 430.54 615.96 430.75 616.02 431.08 615.43 431.33 615.17 431.31 614.38 431.5 614.13 432.23 614.02 433.02 614.09 433.82 614.28 433.96 614.57 434.44 615.06 434.71 615.22 434.57 616.03 434.72 616.18 435.13 615.77 435.14 615.55 435.43 615.52 435.73 615.3 436.02 614.73 435.74 614.5 435.89 614.43 436.34 614.77 437.14 614.64 437.29 614.03 437.05 613.48 437.05 612.86 436.59 612.27 436.63 610.97 436.49 610.45 436.61 610.18 436.35 609.86 436.72 609.19 436.51 609.04 436.02 608.46 436.42 608.13 436.19 607.91 435.38 608.01 434.89 607.58 434.69 607.33 434.71 606.77 434.39 606.23 433.48 605.66 433.33 605.32 432.95 605.27 432.31 604.95 431.84 604.67 431.66 604.58 430.89 604.75 430.17 605.23 429.88 605.44 429.55 605.71 429.5 605.94 429.16 606.64 429.03 607.13 429.08 607.64 428.69 607.68 428.44 607.27 428.08 607.02 428.16 606.52 427.73 606.29 427.74 606.33 427.2 607.12 427.2 607.42 426.93 607.46 426.56 607.65 426.51 608.12 425.63 608.61 425.57 609.08 425.34 Z M 531.58 423.6 531.66 424.09 531.34 423.93 531.58 423.6 Z M 627.38 417.82 627.61 418.47 627.94 418.82 627.87 419.02 628.33 419.17 628.63 419.69 628.27 420.65 627.92 420.78 627.37 421.24 626.13 421.63 626.16 421.27 626.5 420.75 626.89 420.75 626.5 419.9 626.84 419.74 626.2 419.01 626.16 418.69 626.69 417.92 627.38 417.82 Z M 626.59 416.85 626.91 417.01 626.76 417.58 626.58 417.63 626.1 417.35 626.05 417.02 626.59 416.85 Z M 563.8 416.7 564 417.2 563.85 418.02 563.53 418.36 563.45 418.94 563.6 419.34 564.04 419.76 564.84 420.09 565.03 420.02 565.37 420.19 565.63 420.08 565.91 420.18 566.35 419.96 566.45 419.53 566.36 419.06 566.52 418.88 566.84 418.96 567.25 418.73 567.68 418.69 567.89 418.8 567.95 419.26 568.26 419.95 568.11 420.75 567.78 420.89 567.57 421.41 567.18 421.83 566.79 421.82 566.62 421.4 566.02 421.67 565.87 421.27 565.5 421.35 564.18 421.93 563.42 422.51 562.98 422.99 562.88 423.28 562.89 423.8 563.36 424.46 563.57 424.59 563.72 425.25 563.49 425.42 562.55 426.4 562.44 427.04 562.59 428.01 562.79 428.49 562.29 428.5 561.94 427.99 561.76 427.89 561.73 427.31 562.13 427.13 562.19 426.89 561.75 426.32 561.09 425.95 560.55 425.78 559.7 425.76 559.22 425.95 559.09 426.7 558.81 427.1 558.52 427.15 558.18 426.51 556.98 426.98 556.64 426.97 556.51 427.36 556.17 427.74 555.88 427.8 555.28 427.28 554.79 427.33 554.6 427.63 553.73 427.85 553.1 427.94 552.53 427.39 552.72 427.28 552.82 426.83 553.12 426.54 553.75 426.31 554.02 425.82 554.41 425.78 554.91 425.28 555 424.89 555.83 425.39 556.13 425.49 556.44 424.62 557.46 424.73 558.01 424.67 558.16 424.45 557.93 424.11 557.92 423.59 557.64 422.89 557.69 422.34 557.81 422.24 557.46 421.69 557.77 421.46 558.26 421.26 558.78 421.61 558.97 422.07 559.61 422.12 559.98 421.96 560.56 422.22 561.1 422.16 561.36 421.95 561.55 421.6 561.97 421.73 562.37 421.49 562.24 421.22 562.36 420.96 562.88 421.33 562.53 421.73 562.62 421.95 563.01 421.96 563.46 421.7 563.56 421.27 563.46 420.98 562.79 421.05 563.07 420.34 562.84 420.24 562.55 419.87 562.6 419.65 562.9 419.49 562.82 419.03 562.17 418.53 562.24 418.11 561.8 417.97 561.76 417.61 562.13 417.59 562.48 417.3 562.76 416.9 563.8 416.7 Z M 648.93 409.16 649.17 410.22 648.76 410.01 648.06 409.38 647.96 409.06 648.93 409.16 Z M 643 405.62 643.22 405.91 642.47 406.21 642.61 405.35 643 405.62 Z M 640.32 404.66 640.65 405.28 640.68 406.06 640.9 406.31 641.45 406.53 641.82 406.54 641.9 407.42 641.68 407.64 641.24 407.66 641.5 408.55 642.16 409.01 642.3 409.21 642.8 409.49 643.16 409.44 643.03 410.17 643.73 410.44 644.23 410.29 644.44 410.62 644.8 410.35 644.57 409.99 644.72 409.63 645.08 409.74 644.86 410.44 644.45 410.66 644.34 411.48 644.47 412.3 644.7 412.73 645.26 413.23 644.88 413.5 644.95 413.82 644.33 414.06 644.37 414.33 644.79 414.93 645.15 415.28 645.4 415.25 646.01 414.43 646.37 414.86 646.98 414.96 647.04 414.54 647.22 414.33 647.76 414.33 648.16 414.59 648.52 414.69 649.01 415 649.24 414.9 650.02 414.94 650.38 415.25 650.3 415.68 649.48 415.72 649.13 415.82 648.85 415.71 648.39 416.17 648.59 416.87 648.22 417.32 647.63 417.35 647.56 417.84 647.75 418.26 647.51 418.65 646.72 418.85 646.26 419.5 646 419.63 645.81 420.27 645.94 420.83 645.87 421.41 646.03 421.76 645.71 422.08 645.42 421.9 645.11 422.14 645.03 421.74 644.79 421.28 644.82 420.93 644.47 420.64 644.6 420.43 644.31 419.83 644.23 418.94 644.11 418.88 644.28 417.94 644.17 417.37 643.93 417.15 643.88 416.62 643.63 415.59 643.22 415.2 643.49 414.54 643.49 414.09 642.94 413.79 642.34 413.6 641.88 413.69 641.64 414.28 641.41 414.49 640.99 414.34 640.83 414.57 640.47 414.5 639.9 415.04 639.76 414.05 639.41 413.89 638.79 413.8 638.67 413.93 638.39 414.74 638.46 415.09 638 415.7 637.77 415.49 637.69 415.16 638.04 414.87 638.35 414.43 638.58 413.8 638.42 413.63 637.99 413.49 637.65 413.59 637.33 413.99 636.49 414.08 636.33 413.61 636.54 413.24 636.78 413.24 637.02 412.93 636.97 412.45 636.64 411.99 636.26 411.65 636.38 411.14 636.33 410.75 635.94 410.05 636.17 409.54 636.45 409.36 636.76 408.61 636.71 408.15 636.01 407.32 635.52 406.98 635.45 406.74 635.79 406.55 636.08 406.72 636.53 406.65 636.38 407.02 636.93 407.3 637.59 407.35 638.09 407.21 638.24 406.85 638.51 406.68 638.73 406.3 638.54 405.92 638.97 405.84 639.27 406.08 639.68 405.53 639.61 405.22 640.32 404.66 Z M 613.15 380.67 613.39 380.67 613.8 381.22 614.09 381.46 614.75 381.71 615.34 381.34 615.5 381.87 615.76 382.23 615.66 382.4 615.62 383.2 615.09 383.29 615.1 383.86 615.33 384.11 615.7 384.05 615.83 384.37 615.48 384.42 615.19 384.85 615.26 385.41 615.77 386.21 615.92 386.57 615.84 387.46 615.94 387.91 616.16 388.42 616.16 388.96 616.35 389.42 616.77 389.53 617.4 389.15 617.79 389.12 617.89 389.36 618.43 389.11 618.95 389.09 618.98 390.03 618.7 390.51 618.84 390.9 619.08 390.99 619.13 391.28 619.46 391.54 620.54 391.41 620.58 391.52 619.48 391.67 619.47 392.02 618.96 392.55 618.73 392.38 617.97 392.77 617.92 392.9 618.09 393.6 618.6 393.78 618.48 394.12 618.63 394.48 619.05 394.81 619.67 395 620.04 394.31 620.72 394.23 620.92 393.91 621.14 393.88 621.47 393.25 621.65 392.57 622.09 392.48 622.68 392.49 622.98 392.37 623.23 392.49 623.25 392.82 623.7 393.31 623.95 393.44 624.12 393.76 624.11 394.11 624.62 394.54 624.93 394.67 625.46 394.7 625.84 394.57 626.49 394.84 626.86 395.25 626.92 396.34 627.14 396.66 627.17 396.98 627.8 397.43 628.07 397.71 628.69 398 629.37 397.91 629.64 397.35 629.99 397.36 630.06 397.59 629.89 398.37 629.29 398.37 629 398.19 628.74 398.58 628.15 399.03 627.87 399.56 628.18 399.94 628.53 399.71 628.92 399.94 630.04 399.73 630.53 399.45 630.7 399.18 631.2 399.09 631.34 398.92 631.79 399.15 632.06 399.12 632.97 399.49 633.07 399.73 633.46 399.84 633.86 400.4 633.86 400.88 634.36 401.19 634.55 400.99 634.89 401.12 635.86 401.08 636.54 401.38 636.77 402.02 638.01 402.62 638.53 402.61 638.6 403.15 638.53 403.61 637.97 403.35 637.79 403.56 637.29 403.72 637.21 404.07 636.69 404.5 636.26 404.65 634.63 404.87 634.1 405.12 634.04 405.39 633.64 406.13 633.57 407.42 633.34 407.79 632.99 407.77 632.89 407.99 632.51 407.26 632.14 406.87 632.16 406.59 631.65 406.27 631.05 406.49 629.95 407.14 629.16 407.94 629.41 408.42 629.76 408.66 629.85 408.92 629.57 409.08 629.42 409.35 629.51 409.76 629.91 410.02 630.45 410.23 630.31 410.62 630.4 410.86 630.69 410.83 631.01 410.99 631.47 411.52 631.31 411.99 630.86 412.26 630.42 412.21 629.91 412.01 629.51 411.62 628.85 411.68 627.62 412.01 627.15 412.25 627.11 412.59 627.21 413.39 626.9 413.55 626.58 413.25 625.89 412.75 625.27 412.6 624.77 412.6 624.39 412.76 623.21 412.94 622.69 412.75 621.79 412.97 621.5 413.57 620.98 413.68 619.84 413.69 619.26 413.83 619.03 414.31 618.39 414.5 618.01 414.51 617.41 413.87 616.71 413.74 615.8 413.04 615.86 412.92 615.38 412.35 615.47 412.07 615.78 411.85 616.07 411.86 616.6 412.12 617.03 411.79 617.48 411.6 617.8 411.05 617.73 410.34 617.57 409.64 617.18 408.7 616.85 408.18 616.3 407.62 615.81 407.32 615.4 407.26 615.36 407.93 614.71 408.42 614.07 408.3 613.55 408.72 613.05 408.95 612.66 409 612.59 408.56 612.41 408.34 611.67 407.78 611.24 407.85 611.05 407.57 611.63 407.14 611.92 406.79 612.03 406.01 612.77 405.76 613.25 405.35 613.14 404.79 612.57 404.29 612.42 403.92 612.08 403.72 609.86 403.43 609.54 403.58 609.57 403.83 609.41 404.45 608.78 404.99 608.29 405.19 608.39 405.43 608.84 405.65 608.81 406.23 608.25 406.21 607.61 406.45 607.76 407.05 607.64 407.58 607.49 407.83 607.24 407.83 606.69 408.14 606.56 408.39 606.29 408.18 605.53 408.14 605.41 407.92 604.8 407.89 604.8 407.59 605.22 407.45 605.4 406.86 605.41 406.21 605.89 406 605.9 405.68 606.2 405.45 606.58 405.36 607.02 405.41 607.23 404.75 607.08 404.01 607.62 403.86 607.65 403.63 607.3 403.39 607.76 402.93 607.78 402.74 607.21 402.31 607.17 401.92 607.39 401.46 607.83 401.4 608.02 400.97 607.83 400.6 607.86 400.15 608.21 399.63 608.12 399.1 607.43 399.15 606.97 399.27 606.95 398.68 607.07 398.28 606.91 398.08 607.22 397.23 606.8 396.57 607.02 396.15 606.76 395.8 607.03 395.37 607.06 395.03 606.86 394.72 607.41 393.93 607.34 393.59 607.73 393.49 608.37 392.87 608.48 392.56 609.01 392.03 609.12 391.65 609.45 391.62 609.57 391.21 609.37 390.81 609.37 390.48 609.77 390.06 609.68 389.64 609.81 389.3 610.04 389.17 610.06 388.88 609.92 388.25 610.4 387.25 610.74 386.66 611.09 386.25 611.62 385.81 612.01 385.77 612.25 385.59 612.44 385.12 612.45 383.96 612.38 383.52 611.75 382.59 611.49 381.92 611.63 381.57 612.39 380.84 612.6 380.91 612.95 380.65 613.15 380.67 Z M 603.02 372.46 603.69 372.48 604.54 372.81 604.75 372.79 605.2 373.11 605.65 374.2 606.29 374.82 606.53 375.18 607.25 375.45 607.59 375.86 608.5 376.34 609.31 377.04 609.44 377.28 610.08 377.67 610.57 378.29 610.27 378.84 610.37 379.29 609.98 379.4 609.22 379.48 608.58 379.74 608.33 380.03 607.4 379.84 607.03 380.03 606.89 379.9 606.15 379.9 606.21 379.49 606.39 379.28 606.31 378.63 606 378.29 606 377.88 605.77 377.13 605.59 376.99 605.25 377.14 605.12 376.92 604.51 376.86 603.79 376.45 603.49 376.48 603.17 376.24 602.73 376.21 602.01 375.67 601.87 375.33 601.34 375.29 601.29 374.73 601.55 374.67 601.36 374.18 601.29 373.16 601.44 372.75 601.89 372.46 602.52 372.54 603.02 372.46 Z" fill-rule="evenodd" id="23520350"/>
<path d="M 602.27 467.11 602.63 467.36 602.87 467.14 603.28 467.23 603.87 467.73 604.2 467.46 604.51 467.42 604.6 468.01 605.05 468.32 604.63 468.85 604.71 469.6 605.14 470.15 605.44 470.13 605.62 470.68 606.33 471.29 606.48 471.61 606.2 471.89 605.81 472.78 605.91 473.2 605.55 473.58 605.4 473.91 605.11 474.17 604.92 474.61 604.55 474.63 604.12 475.2 604.34 475.69 604.24 475.91 603.91 476 603.87 475.67 603.5 475.66 603.11 476.3 602.81 476.27 602.66 476.63 602.44 476.74 602.24 477.25 601.46 478.32 601.03 478.48 600.63 478.76 600.36 479.1 600.41 479.54 599.91 479.83 599.39 479.57 599.32 479.95 599.08 479.84 598.84 479.27 598.4 479.1 598.25 479.5 597.82 479.6 597.75 479.98 597.13 480.05 596.77 479.82 596.77 479.4 596.51 479.07 595.98 479.07 595.53 478.63 595.79 478.45 595.39 477.68 594.96 477.38 594.98 476.58 595.44 476.33 595.55 476 595.9 476.04 595.81 475.47 596.16 475.53 596.16 475.06 596.7 474.78 596.7 473.92 596.62 473.05 596.31 472.71 595.67 472.49 595.36 472.84 594.86 473.21 594.34 473.88 594.01 473.76 594 473.27 594.12 472.73 594.4 472.32 594.68 472.1 594.97 472.21 595.29 471.43 596.26 470.24 596.27 470.02 596.74 469.38 596.63 469.08 596.71 468.2 596.88 467.55 597.43 467.79 597.49 468.34 597.71 468.49 598.32 468.57 598.45 468.69 599.28 468.58 599.94 468.17 599.97 467.81 600.29 467.72 600.51 468.02 600.9 468.18 600.99 467.83 601.61 467.7 601.55 467.29 601.66 467.12 602.27 467.11 Z M 694.32 456.89 694.83 457.1 694.95 457.49 694.78 457.83 694.51 457.79 694.27 458.42 693.96 458.77 693.75 458.76 693.49 458.43 693.11 458.24 693.01 458.04 693.24 457.72 693.71 457.5 693.95 457.57 694.32 456.89 Z M 693.78 451.4 694.01 451.5 694.44 452.03 694.81 452.17 695.18 452.04 695.31 451.84 695.88 452.01 696.15 452.32 696.67 452.52 697.08 453.48 696.97 454.03 697.01 454.51 697.47 455.11 697.46 455.35 696.97 455.54 697 455.98 696.61 455.74 696.48 455.83 696.14 455.46 696.23 455.02 696.02 454.42 695.75 454.37 695.58 453.31 695.4 453.03 694.61 452.83 694.25 452.66 693.99 452.37 693.9 451.95 693.58 451.57 693.78 451.4 Z M 684.7 445.77 684.89 446.19 684.72 446.38 683.94 447.91 683.89 448.98 684.23 449.44 684.67 449.68 684.65 449.99 684.25 450.12 684.05 450.64 683.66 449.86 683.42 449.85 683.35 449.34 682.6 448.3 682.65 448.17 682.25 447.3 682.34 446.8 682.11 446.5 683.33 446 683.69 445.69 683.96 445.78 684.46 445.69 684.7 445.77 Z M 703.89 443.9 704.05 443.98 704.03 444.41 703.62 444.58 703.69 445.16 703.41 445.52 703.03 445.5 702.38 445.02 702.21 445.08 701.63 444.58 702.02 444.43 702.64 444.34 702.94 444 703.17 444.01 703.62 443.76 703.89 443.9 Z M 691.97 433.04 692.14 432.98 692.29 433.8 693.04 434.27 693.44 434.37 693.82 434.32 694.38 434.05 694.46 433.82 695.33 433.87 695.66 434.07 695.93 434.42 696.08 434.83 696.53 435.22 697.16 435.34 697.59 435.2 698.37 434.63 699.23 434.69 699.56 435.14 699.9 435.33 699.91 435.69 699.74 436.05 699.94 436.28 700.04 436.75 700.59 437.24 701.1 437.44 701.85 437.87 701.93 438.39 702.52 438.87 703.28 439.04 703.39 439.37 703.85 439.68 704.19 439.74 704.63 440.15 704 440.46 703.08 441.36 702.92 441.74 703 442.02 702.94 442.44 702.59 442.23 702.85 441.92 702.8 441.64 702.4 441.27 701.34 440.62 700.66 440.38 700.18 440.48 699.92 440.96 699.54 441.06 698.85 441.61 698.39 441.54 697.95 441.23 697.15 441.09 696.85 441.3 696.79 441.71 696.56 441.64 696.5 440.94 697.06 440.5 697.12 440.23 696.93 439.62 696.58 439.24 695.54 438.58 694.21 438.01 693.77 437.98 693.5 438.4 692.36 438.29 692.03 438.45 691.83 438.25 692.25 437.82 692.47 437.06 692.16 436.47 691.73 436.13 690.89 435.82 690.42 435.45 690.34 434.79 690.22 434.43 690.44 434.27 690.33 433.43 690.58 433.63 691 433.66 691.48 433.42 691.54 432.88 691.97 433.04 Z M 675.96 429.67 676.23 430.01 676.86 430.01 677.1 429.78 677.35 429.77 677.67 430.01 678.02 429.98 678.27 429.79 678.48 430.43 679.12 430.69 679.65 431.25 679.94 431.73 679.85 432.38 680.18 432.72 680.63 432.91 681.06 432.96 681.47 432.88 681.74 432.65 682.13 432.64 681.94 433.22 682.2 433.75 682.32 435.79 682.29 436.2 682.87 436.93 682.94 437.58 682.92 438.16 683.31 438.42 684.23 438.75 685.36 438.94 686.26 438.86 687.25 439.14 687.36 439.38 686.92 440 686.62 440.26 686.5 440.77 686.28 440.87 686.22 441.27 686.35 441.66 685.89 442.09 685.46 442.13 685.16 441.94 684.97 441.49 684.2 440.76 683.75 440.81 683.63 440.95 682.84 440.85 682.65 440.36 682.68 440.09 683.02 439.5 682.95 439.09 682.77 438.81 682.08 438.08 681.61 437.81 681.38 437.42 680.88 437.01 680.19 436.59 679.09 436.03 678.62 435.88 678.22 435.93 678.03 436.42 677.84 436.48 677.19 436.31 677.12 436.01 676.66 435.35 675.96 434.85 675.63 434.84 675.42 434.65 674.96 434.7 674.52 434.98 674.4 435.38 674.16 435.15 674.13 434.76 673.96 434.68 673.62 434.91 673.43 435.36 672.73 435.34 672.29 434.86 672.11 434.44 671.84 434.41 671.55 434.09 671.18 433.84 671.09 433.56 670.69 433.41 670.73 432.58 670.94 432.2 671.68 432.65 671.96 432.38 671.76 432 671.86 431.74 671.71 431.26 672.19 431.28 672.73 430.9 672.94 431.1 673.19 431.65 673.46 431.95 673.91 431.85 674.31 431.93 674.95 431.73 675.18 431.4 675.05 431.23 675.26 430.87 675.02 430.54 675.03 430.14 674.73 429.78 675.49 429.43 675.76 429.42 675.96 429.67 Z M 659.48 425.46 659.44 425.6 659.93 425.86 660.33 425.87 660.51 426.3 660.11 427.09 660.09 427.63 659.84 427.58 659.83 428.04 660.18 428.37 660.92 428.7 660.96 428.96 661.29 429.2 662.09 429.34 662.43 429.33 662.86 429.15 663.9 427.98 664.03 427.26 663.75 426.68 663.8 426.32 664.28 426.4 664.37 426.77 664.73 426.78 665.05 426.64 665.57 426.62 665.81 426.89 666.29 426.99 666.55 427.47 666.9 427.37 666.91 427.14 667.35 427.28 667.51 427.14 668.14 427.13 668.54 426.83 669.74 427.14 670.28 427.72 670.93 427.84 671.02 428.22 671.9 427.93 672.94 428.32 673.04 428.78 672.48 428.83 671.13 428.75 670.56 429.01 670.35 429.38 669.37 429.48 668.95 430.03 668.83 430.94 669.42 431.39 669.75 431.8 669.24 431.99 669.04 431.78 669 431.44 668.55 430.9 668.25 431.01 667.81 430.99 667.58 430.72 667.14 430.86 666.73 430.61 666.73 430.24 666.37 430.03 665.84 430.37 665.53 430.76 664.77 430.91 664.56 431.2 663.99 431.31 663.85 430.81 662.63 429.97 662.27 429.95 661.81 430.45 661.59 430.4 661.39 430.73 661.12 430.82 660.85 430.59 660.55 430.52 660.57 429.95 660.8 429.74 660.94 429.22 660.12 428.94 659.86 428.77 659.23 429.05 658.98 428.92 658.92 428.42 658.77 428.37 658.56 427.77 658.73 427.65 658.67 426.69 658.89 426.4 659.08 425.74 659.48 425.46 Z M 657.75 423.58 657.96 423.71 658.21 424.13 658.83 424.53 658.41 424.81 657.45 424.57 657.46 423.99 657.75 423.58 Z M 689.13 382.34 689.64 382.57 689.62 383.04 689.34 383.62 689.84 384.78 690.06 385.01 690.8 385.07 691.36 384.74 691.98 384.93 692.25 385.26 692.76 385.27 693.35 385.64 693.86 385.56 694 385.83 694.34 385.85 694.99 385.62 695.48 385.78 695.81 386 696.06 386.55 696.4 386.99 696.92 387.18 697.24 387.41 697.77 387.27 698.02 387.08 698.17 386.38 698.75 386.16 698.84 386.56 698.82 387.07 698.95 387.47 699.57 387.65 700.3 387.47 700.59 387.68 701.07 387.55 701.24 387.32 701.58 387.61 701.49 387.85 701.94 388.49 702.3 388.59 702.43 388.84 703.17 389.45 703.46 389.51 703.78 389.89 704.45 390.04 704.53 390.21 705.06 390.44 705.57 390.51 706.03 390.29 706.23 390.08 706.21 389.41 706.46 388.89 706.62 388.92 706.79 389.39 707.08 389.44 707.18 389.75 706.84 390.41 707.22 391 707.24 391.31 707.72 391.42 708.47 391.33 708.78 391.15 709.13 390.76 709.16 390.53 708.64 390.08 708.55 389.71 708.84 389.47 708.74 388.72 708.61 388.47 708.69 387.97 709.13 387.34 709.73 387.44 710.48 387.11 710.79 387.33 711.11 387.16 711.68 387.41 712.05 387.66 712.2 387.92 712.86 388.64 713.32 388.65 713.51 388.43 713.84 388.38 714.62 388.77 714.81 389.13 714.6 389.51 714.19 389.75 713.81 390.34 713.61 391.31 713.43 391.77 713.13 392.14 712.42 392.82 712.26 393.12 712.17 393.72 711.84 394.09 711.45 394.12 710.44 394.52 709.88 394.41 709.36 394.56 708.57 395.01 708.12 395.68 707.74 395.83 707.36 396.22 706.93 396.23 706.89 395.95 706.6 395.81 705.79 395.78 705.53 396.1 705.21 396.21 705.18 395.88 705.54 395.52 705.52 395.36 705.05 394.92 704.62 395.25 704.26 395.13 703.77 395.17 703.57 395.36 703.68 395.73 703.42 395.9 703.18 395.78 702.76 395.9 702.74 396.28 702.43 396.79 702.09 396.93 701.4 396.86 701.54 395.96 701.3 395.58 701.39 394.99 700.8 394.57 699.63 394.41 698.82 394.56 698.34 394.96 698.37 395.29 698.87 395.79 698.48 395.92 697.97 395.44 697.99 394.78 698.59 394.6 698.58 394.03 698.07 394.15 697.68 393.86 697.61 393.23 697.36 392.71 697.19 392.69 696.51 392.23 696.04 392.17 695.69 392.24 694.98 392.21 694.81 392.45 694.43 392.59 694.04 393.12 693.68 392.94 693.11 393.05 692.94 392.78 692.93 391.9 692.77 391.43 692.22 391.06 692.05 390.79 691.61 390.73 690.89 390.87 690.55 391.24 690.69 391.59 690.27 391.62 690.29 391.19 690.12 390.85 690.15 390.55 689.98 389.76 689.47 389.03 688.83 388.59 688.25 388.71 687.72 389.19 687.28 389.08 686.86 389.28 686.39 389.19 686.39 388.33 686.08 387.91 685.53 387.47 685.49 386.92 685.71 386.66 686.05 386.51 686.54 386.68 686.99 386.74 687.53 386.24 687.79 385.64 687.72 385.1 687.92 384.29 687.94 383.79 687.61 383.23 687.71 382.96 688.16 382.65 688.43 382.76 689.13 382.34 Z M 685.02 380.91 685.23 381.34 685.22 381.6 684.82 381.51 684.84 381.19 685.02 380.91 Z M 683.28 357.74 683.54 357.83 683.51 358.53 684.07 359.62 684.51 360.01 684.76 360.09 685.04 360.6 684.6 361.16 684.05 360.67 683.79 359.99 683.37 359.87 682.96 359.53 682.46 359.58 682.36 359.36 682.62 358.94 682.68 358.59 682.52 358.28 682.68 357.78 683.28 357.74 Z M 679.56 355.67 679.85 355.92 679.54 356.19 678.77 356.27 678.54 355.81 679.19 355.46 679.56 355.35 679.56 355.67 Z M 680.73 356.98 680.14 356.9 680.62 356.53 680.89 355.8 681.05 355.9 680.73 356.98 Z M 681.73 351.38 681.97 351.39 682.3 351.89 682.25 352.5 682.05 352.88 681.59 353.31 681.28 353.45 680.57 354.11 680.2 354.74 679.7 354.85 679.49 353.87 679.75 353.63 679.89 353.07 680.4 352.7 680.59 352.32 680.6 351.93 680.96 351.55 681.34 351.55 681.73 351.38 Z" fill-rule="evenodd" id="23520360"/>
<path d="M 714.15 446.01 714.46 446.32 714.1 446.62 713.79 446.66 713.32 446.28 714.15 446.01 Z M 735.44 432.51 735.7 432.68 736.16 432.72 736.22 433.23 735.84 433.64 735.24 433.1 734.93 432.67 735.18 432.43 735.44 432.51 Z M 728.87 417 729.39 417.01 729.64 417.2 729.59 417.59 729.12 417.82 728.8 417.64 728.2 417.62 727.89 417.52 727.77 416.91 728.12 416.73 728.87 417 Z M 725.75 415.25 726.12 415.69 726.13 416.15 726.66 416.72 726.37 417.17 725.81 417.26 725.53 417.15 725.24 416.78 725.24 416.5 725.49 416.07 725.75 415.25 Z M 754.94 414.84 754.8 414.32 754.89 413.97 755.36 413.77 755.29 414.35 754.94 414.84 Z M 720.11 414.17 720.72 414.42 721.58 415.07 721.62 415.57 721.24 415.66 721.01 415.55 720.44 415.77 720.19 416.16 719.86 415.83 719.83 414.59 719.63 414.19 719.85 413.73 720.11 414.17 Z M 771.08 413.15 770.83 414.48 770.4 414.17 770.82 413.32 771.08 413.15 Z M 765.88 407.73 766.06 408.02 765.2 407.81 764.82 407.95 764.77 408.18 764.32 408.07 765.37 407.51 765.88 407.73 Z M 738.75 405.52 738.3 405.21 738.79 404.94 738.88 405.4 738.75 405.52 Z M 765.04 401.91 764.79 401.91 764.78 401.39 765.04 401.39 765.04 401.91 Z M 769.99 400.51 769.69 400.59 769.58 400.3 769.82 400.15 769.72 399.81 770.02 399.72 770.12 400.04 769.91 400.14 769.99 400.51 Z M 729.6 398.79 729.98 399.06 731.07 399.05 730.79 399.4 729.78 399.47 729.32 399.34 729.6 398.79 Z M 777.31 398.42 776.92 398.14 776.95 397.91 777.32 397.58 777.6 397.96 777.31 398.42 Z M 799 397.61 798.48 397.32 798.43 396.72 798.92 396.92 799 397.61 Z M 794.57 396.3 794.8 396.64 794.66 396.95 794.35 396.54 794.57 396.3 Z M 733.45 396.5 733.17 397.31 733.36 397.61 733.85 397.84 734.58 397.85 735.35 398.73 735.04 399 734.52 399.01 733.88 398.9 733.29 399.15 732.75 398.94 731.99 398.73 732.29 398.51 732.81 397.86 732.71 397.62 732.89 397.41 733 397.01 732.58 396.88 732.85 396.54 733.1 396.68 733.45 396.5 Z M 778.07 392.92 777.93 392.81 778.04 392.34 778.44 391.64 778.98 391.31 779.02 391.75 778.94 392.3 778.07 392.92 Z M 787.39 388.63 786.88 389.77 786.58 390.16 786.9 390.38 787.57 390.42 787.79 390.91 788.81 392.34 789.19 393.38 789.46 393.29 789.72 393.55 789.46 393.9 789.71 394.42 788.63 395.11 788.98 395.91 789.56 396.5 790.13 396.87 790.79 397.02 791.12 396.74 791.67 396.83 791.65 397.16 791.47 397.64 791.06 397.99 791.09 398.43 791.46 398.92 791.74 399.61 791.65 399.97 791.9 400.59 792.95 401.68 793.68 402.75 793.61 403.13 793.29 403.14 793.3 403.46 793.11 403.74 792.76 403.53 792.14 403.66 791.52 403.62 791.33 404.96 791.44 405.35 791.25 405.75 790.97 405.34 791.28 405.07 791.43 404.05 791.44 403.57 790.93 403.19 790.32 402.97 789.37 402.43 788.95 402.51 788.14 402.17 787.75 402.09 787.43 401.46 786.87 401.63 786.65 401.82 786.36 401.93 786.09 402.15 785.33 403.12 785.37 403.39 785.61 403.81 785.49 404.38 785.04 404.6 784.91 405.03 784.52 405.11 783.82 405.57 783.66 405.97 782.86 406.18 782.63 405.92 782.84 405.41 782.47 404.69 782.36 404 782.56 403.29 783.33 403 783.45 402.8 784.01 402.59 784.58 402.86 785.12 403.03 785.53 402.83 786.06 402.15 786.37 401.91 786.85 401.62 787.18 401.48 787.88 401.29 788.28 400.52 788.38 399.76 788.39 399.18 788.52 399.02 788.43 398.3 788.25 397.57 788.31 396.76 787.94 396.37 786.84 394.74 786.49 394.43 786.07 394.64 785.22 394.41 784.9 394.03 784.23 394.94 783.69 395.51 783.84 395.77 784.22 396.12 784.47 396.06 784.64 396.33 784.38 396.5 784.21 396.16 783.79 395.76 783.58 395.87 783.4 395.62 783.78 395.4 784.17 394.8 784.63 394.24 784.07 393.99 783.85 393.49 783.4 392.98 782.59 392.84 782.43 392.73 782.03 393.11 781.9 392.92 782.03 392.38 782.32 392.42 783 391.87 783.13 391.52 783.5 391.12 783.49 390.66 783.11 390.46 783.39 390.14 783.56 390.53 783.98 390.75 784.29 390.79 784.78 390.4 784.79 390.24 785.59 390.3 786.11 390.17 786.15 389.8 786.37 389.54 786.82 389.46 786.95 389.59 787.39 388.63 Z M 781.21 381.05 781 381.28 780.72 381.1 780.66 380.8 780.9 380.72 781.21 381.05 Z M 777.2 392.17 776.69 392.16 776.63 392.61 776.09 392.62 776.13 391.62 775.45 391.13 775.21 390.68 774.53 389.91 773.86 389.62 772.64 389.54 771.77 389.62 771.4 389.9 771.57 390.51 772.07 390.89 772.19 391.25 771.96 391.68 772.11 392.25 772.61 392.53 772.48 392.81 771.68 393.26 771.54 392.82 771.05 392.44 770.74 392.32 770.24 391.91 769.24 391.91 768.4 392.48 767.98 392.51 767.75 392.65 767.45 393.16 767.58 393.49 768.33 393.83 768.62 394.32 769.48 394.88 770.32 395.61 770.25 395.87 769.6 396.53 769.43 396.93 769.49 397.42 769.81 397.74 770.13 397.71 770.36 398.02 770.29 398.78 769.42 398.93 768.89 398.84 768.99 399.12 767.77 399.47 767.4 399.07 766.63 399.43 767.15 400.65 767.48 400.52 767.58 401.21 767.17 401.36 767.07 400.51 766.61 399.47 766.1 399.69 765.42 400.24 764.77 401.05 764.55 401.67 764.74 402.79 765.42 402.92 766.11 403.3 766.08 403.46 765.16 403.45 764.45 403.58 761.01 406.2 760.37 406.66 760.9 407.48 760.37 407.94 759.76 407.5 759.26 406.84 758.27 405.89 757.92 405.78 757.81 405.44 758.33 404.84 758.53 404.11 758.16 404.2 752.23 404.19 750.7 404.18 750.55 403.55 750.05 403.55 749.17 402.68 749.18 400.76 749.17 396.92 749.19 394.61 749.18 390.98 748.48 390.97 748.48 388.45 747.93 388.09 748.38 387.25 748.57 387.2 749.08 387.32 749.29 387.55 749.74 387.16 749.84 386.68 750.23 386.58 750.69 386.62 751.11 386.21 751.18 385.75 750.41 384.71 750.22 383.52 750.49 382.8 750.5 382.4 750.21 381.88 750.49 381.51 751.16 381.41 751.32 381.92 751.63 382.44 752.73 382.59 753.43 382.21 754.4 382 754.5 381.79 754.99 381.7 754.47 382.31 754.5 382.6 755.13 382.6 755.59 383.17 756.45 382.78 757.81 381.4 758.23 380.89 758.53 380.3 758.56 379.65 758.14 379.5 758 378.86 757.4 379.03 757.01 378.67 757.45 378.49 757.63 378.19 757.41 377.75 757.71 377.55 758.36 377.64 758.68 377.31 758.94 376.81 758.93 376.57 759.26 376.08 759.5 376.22 759.57 376.73 759.88 377.25 760.39 377.27 761.02 377.14 761.44 376.56 761.48 377.01 761.78 377.12 762.27 376.95 762.39 376.7 762.92 376.58 762.97 376.84 763.68 376.78 764.11 376.47 764.37 376.07 764.64 375.97 764.99 375.52 765.39 374.76 765.9 374.91 766.07 375.18 766.11 376.27 766.36 376.59 767.01 377.02 767.28 377 767.28 377.44 767.6 377.56 769.17 377.83 769.29 378.02 769.95 378.22 770.64 378.13 771.35 377.89 772.27 377.41 772.69 377.14 773.32 377 773.41 377.75 773.73 377.94 773.85 378.3 773.77 378.53 774.11 378.83 775.12 378.88 775.12 379.8 775.38 380.04 775.88 380.22 776.34 380.23 776.69 380.48 776.65 380.79 776.36 381 776.23 381.61 775.26 382.46 775.24 383.34 775.48 384.5 775.83 385.18 776.23 385.77 776.19 386.59 776.43 386.84 776.48 387.61 776.61 388.06 777.34 388.98 777.65 389.18 778.1 389.64 777.93 390.22 778.41 390.34 778.3 390.66 778.01 390.59 777.94 391.05 777.6 391.45 777.21 391.59 777.2 392.17 Z" fill-rule="evenodd" id="23520370"/>
<path d="M 709.69 262.06 709.15 262.44 708.93 262.91 708.4 263.31 707.72 263.57 707.33 263.95 706.65 263.95 706.26 263.7 705.85 263.19 706.04 262.89 706.53 262.52 707.47 262.66 707.81 262.54 708.14 262.23 708.69 262.24 709.05 262.04 709.69 262.06 Z M 705.3 256.8 705.42 256.91 705.74 257.86 705.37 258.52 704.8 258.97 704.57 258.9 704.79 258.43 704.81 257.65 704.47 257.39 704.33 257.06 704.6 256.82 705.3 256.8 Z M 747.7 255.71 747.33 255.69 747.3 254.86 747.55 254.61 747.99 255.09 747.88 255.62 747.7 255.71 Z M 745.08 254.57 744.75 254.54 744.67 254.32 745.07 254.11 745.34 253.71 745.6 254.02 745.41 254.42 745.08 254.57 Z M 735.1 246.07 735.41 246.13 735.88 246.86 735.75 247.01 735.32 247.08 735.06 246.78 734.78 246.14 735.1 246.07 Z M 762.56 241.22 762.92 241.65 763.02 242.12 763.66 242.63 764.29 242.9 764.18 243.26 764.47 243.54 764.36 244.04 764.69 244.28 765.33 244.48 765.52 244.34 765.86 244.63 766.66 244.82 767.36 244.83 767.23 245.12 767.37 245.41 767.15 245.83 767.16 247.03 767.35 247.34 767.38 247.72 767.13 248.11 767.42 249.24 767.37 249.5 766.59 249.35 766.36 249.65 765.83 249.83 765.44 249.67 765.21 249.44 764.65 249.44 764.59 249.96 764.5 251.5 764.98 252.34 765.24 252.68 766.14 252.82 765.78 253.97 765.57 254.48 765.27 255.53 764.83 256.43 765.2 257.2 765.63 257.26 766.14 257.46 766.11 258.08 765.76 258.1 765.43 257.84 764.9 257.78 764.67 258.29 764.39 258.39 764.01 258.16 763.34 258.45 762.85 258.12 762.9 257.6 763.12 257.33 762.51 256.5 761.88 255.88 761.43 255.54 760.82 255.32 760.52 255.51 759.96 255.31 760.02 254.85 759.46 254.77 759.32 254.42 758.2 254.37 757.27 254.16 756.64 254.1 755.99 253.93 755.31 254.53 755.39 255.18 753.94 255.72 753.36 255.79 753.22 256.14 753.18 256.84 752.43 256.66 752.22 256.42 751.7 256.48 751.02 256.44 749.61 256.15 749.13 255.83 749.06 255.62 749.48 255.12 749.19 254.48 749.42 253.99 749.59 253.34 749.87 253.03 750.03 252.55 750.28 252.24 750.19 251.98 750.33 251.43 749.96 250.95 750.27 250.69 750.69 250.62 751.07 250.43 751.88 249.81 752 249.32 751.47 249.04 751.56 248.9 752.09 249.2 752.69 248.93 752.81 248.38 753.72 247.87 754.11 248.18 754.44 247.89 754.9 247.97 755.28 247.7 755.52 247.31 756.34 247.3 756.45 246.97 757.09 246.95 758.13 245.4 758.68 245.07 759.19 245.05 759.64 244.51 759.93 244 759.7 243.78 759.92 243.32 760.34 242.74 760.53 242.2 760.38 242.04 760.34 241.65 760.52 241.17 761.24 241.23 762.07 241.09 762.56 241.22 Z M 750.09 240.83 750.85 241.16 751.38 241.04 751.83 240.76 752.11 240.44 752.43 240.31 752.88 240.48 753.63 240.43 754.24 240.86 754.27 241.15 754.01 241.36 753.56 241.14 753.19 241.18 752.22 241.77 751.27 242.06 751.45 243.37 750.42 245.59 750.45 245.77 750.24 247.25 749.95 248.01 750.64 248.37 750.47 248.48 750.09 248.24 749.5 248.63 749.17 249.27 748.82 249.4 748.46 249.96 747.95 250.52 747.83 250.8 747.97 251.26 748.24 251.44 748.59 252 748.16 252.4 748.16 252.55 747.68 252.93 747.25 252.86 747.27 252.5 746.57 251.95 746.38 251.88 745.95 252.3 745.1 252.4 744.2 252.24 743.85 252.46 743.53 252.27 743.8 251.74 744.09 251.42 744.67 251.42 745.09 250.98 745.02 250.34 744.56 249.71 744.7 249.45 744.83 248.78 745.08 248.3 745.76 247.48 745.73 247.34 746.15 246.66 745.96 245.89 745.45 245.38 744.86 245.16 743.81 245.44 742.94 245.45 742.67 245.58 741.99 246.1 742.27 246.67 741.88 248.19 741.13 248.82 741.16 249.3 741.45 249.7 741.86 249.76 741.75 250.05 741.34 250.02 740.67 250.34 740.28 250.22 739.72 249.57 739.41 249.48 738.83 249.64 738.69 249.25 738.66 248.64 738.1 248.1 737.62 248.06 737.61 247.83 738.16 247.06 738.42 246.82 738.55 246.33 738.52 245.77 738.64 245.57 739.38 245.37 740.05 244.9 740.3 245.03 740.86 244.45 741.14 244.25 741.48 243.7 742.37 243.16 742.5 243.28 742.33 243.95 742.62 244.51 742.87 244.64 742.88 245.08 743.09 245.34 743.83 245.35 744.77 245.13 744.83 244.89 745.37 245.01 745.42 244.47 745.85 243.22 746.28 242.47 746.34 241.98 746.52 241.82 746.95 240.87 746.79 240.42 747.12 239.8 747.85 239.09 748.42 239.1 748.57 239.56 749.95 240.1 750.09 240.83 Z M 682.99 238.24 683.1 238.43 683.53 238.71 684.46 238.98 684.78 239.17 685.72 240.01 685.8 240.46 686.03 240.77 685.81 240.96 685.04 240.92 684.54 240.63 683.77 240.28 683.53 239.93 682.82 239.34 682.1 238.36 682.3 237.82 682.99 238.24 Z M 678.74 234.03 679.16 234.45 679.45 234.92 680.01 235.48 680.27 235.92 680.94 236.23 681.48 236.6 681.63 236.93 681.2 237.21 679.62 237.35 679.42 237.33 679.34 236.91 679.35 236.08 679.18 235.67 678.34 234.78 678.37 234.14 678.74 234.03 Z M 713.25 232.57 713.69 232.81 713.36 233.25 713.12 233.14 713.01 232.81 713.25 232.57 Z M 699.47 232.55 700.06 232.72 700.14 233.03 700.73 233.11 700.98 233.32 701.82 233.64 702.37 233.78 703.01 234.12 703 234.59 703.32 234.73 704.2 234.82 704.25 235.09 704.65 235.34 705.25 236 705.98 235.9 706.32 236 706.65 236.3 707.12 236.48 707.06 237.28 707.49 237.62 707.81 237.46 708.06 237.69 708.87 237.57 709.01 237.75 709.41 237.69 711.08 236.94 711.14 237.57 711.56 237.98 711.58 238.28 711.33 238.6 711.81 239.11 712.28 239.29 712.4 239.59 712.27 239.84 712.33 240.32 712 240.67 712.44 241.39 712.51 241.72 712.97 242.23 713.48 243.01 713.55 243.53 714.29 244.01 715.11 244.33 716.17 244.57 716.69 245.06 717.17 245.22 717.43 245.65 718.16 245.82 719.18 245.84 719.33 245.96 720.6 245.9 721.19 245.82 721.42 245.67 721.81 245.69 722 245.94 722.47 246 723.16 245.92 724.22 245.66 725.14 245.36 725.54 245.12 726.48 244.77 726.64 244.62 727.18 244.54 727.69 244.85 729.13 244.44 729.96 244.08 730.2 243.59 730.41 243.71 730.54 244.77 730.39 244.94 730.57 245.61 730.13 246.94 730.18 247.3 730.66 247.66 730.54 248.12 730 248.29 729.7 248.48 729.8 249.08 729.46 249.82 728.82 249.76 728.52 249.65 728.37 249.36 727.89 249.18 725.49 248.69 724.04 248.29 723.68 248.25 723.25 248.56 722.56 248.9 722.4 248.64 720.46 248.04 719.51 248.21 719.13 248.4 718.92 248.32 718.27 248.51 717.21 248.47 716.66 248.76 716.05 248.97 716.19 249.67 715.61 249.63 715.28 249.3 714.24 249.19 713.69 249.31 713.38 249.52 713.32 250.38 712.75 250.6 712.1 250.26 712.31 249.55 712.15 248.55 711.34 248.14 710.56 248.08 710.18 248.23 709.73 248.61 709.65 248.89 709.88 249.39 710.15 249.62 710.11 249.89 709.65 250 709.03 250.01 708.7 250.35 708.38 250.34 707.77 250.49 707.65 251.04 707.48 251.29 707.21 251.26 706.86 251.51 706.64 251.84 706.35 251.48 706.13 250.91 706.12 250.53 707.23 249.8 707.34 249.47 707.23 248.25 707.04 247.35 707.15 246.92 707.63 246.73 707.7 246.08 708.02 245.22 708.06 244.8 707.88 243.52 707.64 242.6 707.36 241.86 706.55 241.57 706.07 241.45 705.76 241.19 705.46 240.58 704.97 240.64 704.2 240.3 703.79 239.04 703.53 238.78 703.37 238.3 702.98 237.84 702.7 237.9 702.37 237.77 701.87 237.35 701.11 236.29 700.95 235.87 700.35 235.51 700.14 235.18 699.58 234.7 699.2 233.88 699.25 233.5 698.99 232.97 698.97 232.57 699.47 232.55 Z" fill-rule="evenodd" id="23520310"/>
<path d="M 453.57 201.3 454.64 201.35 455.14 201.48 455.28 201.83 455.9 201.79 456.12 202.15 455.93 202.9 455.77 202.93 456.06 203.71 455.96 204.17 455.41 205.25 455.47 206.08 455.35 207.2 455.11 207.38 454.49 207.15 453.58 206.15 453.13 205.81 452.85 205.32 451.82 205.53 451.52 206.27 450.71 205.45 451.13 205.37 451.25 204.73 450.76 204.14 450.79 203.58 451.01 202.93 451.31 202.56 451.53 202.55 451.99 202.05 452.26 201.9 452.71 201.44 453.57 201.3 Z M 439.04 192.37 438.87 192.13 438.88 191.7 439.1 191.61 439.25 191.95 439.04 192.37 Z M 440.09 189.06 440.4 189.25 439.99 189.82 439.58 189.86 439.59 189.35 439.46 188.87 439.73 188.48 440.09 189.06 Z M 454.79 185.33 455.53 185.66 455.12 185.95 454.95 185.76 454.43 185.7 454.24 185.28 454.79 185.33 Z M 453.05 180.53 452.93 180.79 453.08 181.01 453.02 181.46 452.73 181.75 452.47 181.26 451.88 180.78 451.9 180.36 452.91 180.29 453.05 180.53 Z M 455.14 173.76 454.9 173.72 454.89 173.37 455.31 173.37 455.14 173.76 Z M 450.55 176.13 450.75 176.32 449.65 177.31 448.95 178.03 448.34 178.01 448.13 178.56 446.94 179.36 446.59 179.7 446.45 179.62 446.02 180.68 445.27 180.87 444.56 181.54 444.84 182.05 443.11 181.91 442.48 181.96 441.3 181.57 441.15 181.07 441.65 180.65 441.52 179.93 441.31 179.4 440.97 178.98 441.14 178.76 440.93 178.21 440.79 177.55 440.26 176.79 440.25 176.52 441.54 176 441.88 175.99 442.01 175.63 442 174.43 441.75 173.09 441.64 172.9 441.56 172.28 440.71 171.94 439.84 170.41 439.26 170.14 438.8 170.64 438.73 169.57 439.3 169.2 439.38 168.88 438.9 167.94 439.01 167.72 439.69 167.42 440.43 167.26 441.06 167.26 441.06 167.92 442.42 168.9 443.36 169.05 444.03 169.34 444.82 169.45 445.25 169.33 445.66 169.02 445.84 169.13 446.16 168.33 447.3 168.76 447.71 168.71 448.12 167.99 449.49 167.7 449.73 167.26 450.28 167.29 450.81 167.08 451.04 167.39 451.44 168.15 452.18 168.3 452.56 168.15 453.19 167.71 453.27 167.43 453.92 167.09 454.36 167.74 454.08 168.11 454.29 169.62 454.73 170.13 454.82 170.52 454.62 171.01 454.01 171.58 453.33 171.71 452.04 173.4 451.73 174.15 451.81 174.66 451.74 175.05 450.93 175.4 450.44 175.77 450.55 176.13 Z" fill-rule="evenodd" id="23520320"/>
<path d="M 33.06 2.97 33.94 3.22 34.13 3.2 34.58 3.46 35.46 3.33 35.71 3.55 36.27 3.22 36.63 2.53 37.34 1.95 37.77 2.08 38.3 1.6 39 1.69 40.34 1.49 40.75 1.54 40.91 1.74 41.42 1.72 41.7 2.13 42.41 2.3 43.28 2.1 43.82 1.83 44.76 2.16 45.04 1.99 45.44 2.13 45.92 2.13 46.29 2.34 46.38 2.59 46.73 2.53 47.01 2.67 47.3 2.43 47.36 2.92 47.64 3.48 48.34 4 48.99 4.18 49.26 3.98 49.76 4.29 50.57 4.64 50.54 5.32 50.65 5.63 51 5.88 50.86 6.54 50.82 8.15 51.1 8.34 51.11 9.67 51.3 10.35 51.64 11.13 52.2 11.35 52.23 11.7 52.73 12.36 53.52 12.96 54.12 13.08 54.78 13.47 55.74 12.99 56.28 12.9 56.3 13.19 56.82 13.49 57.08 14.03 57.14 14.7 56.96 14.88 56.75 15.56 55.46 15.76 54.99 15.56 54.77 15.05 54.33 15.06 53.54 14.55 53.49 13.71 53.21 13.33 52.82 13.04 52.29 12.82 51.72 12.99 50.42 13.64 50.49 13.86 50.28 14.59 50.27 15.01 50.56 15.65 52.24 15.96 52.65 15.99 52.58 16.97 53.42 17.03 53.4 17.36 52.6 17.34 52.41 17.21 52.18 16.62 51.97 16.65 52.34 17.28 52.48 17.95 52.24 18.47 51.78 18.25 51.53 18.34 51.39 18.69 50.56 18.71 50.86 18.11 50.63 17.98 50.55 17.07 50.08 16.88 49.31 16.86 48.2 17.14 47.84 17.15 47.55 17.35 46.62 18.16 45.3 19.52 44.32 20.3 43.52 21.01 42.85 21.38 42.19 21.6 41.67 21.95 41.16 21.85 40.26 23.37 39.48 24.82 39.09 25.14 38.75 25.09 37.85 25.18 37.73 25.54 38.61 25.23 38.97 25.28 39.02 25.73 38.79 26.65 39.01 26.91 38.96 27.19 39.33 27.54 39.41 27.95 39.15 28.45 39.18 28.91 38.66 29.15 37.74 30.25 37.34 30.87 36.96 31.67 36.81 32.12 36.76 32.68 36.92 33.58 37.36 33.91 37.62 34.37 37.55 34.65 37.26 34.99 36.65 35.12 36.17 35.67 36 36.09 35.2 36.06 34.82 35.87 33.91 36.29 33.68 36.83 33.44 37 32.9 36.92 32.77 36.4 32.56 36.06 32.78 35.69 32.26 35.03 31.61 35.13 31.43 35.32 31.27 34.46 30.69 33.52 30.42 33.46 30.1 33.2 29.99 32.93 29.4 32.98 29.1 32.89 28.44 33.1 28.11 33.1 28.02 32.87 26.88 32.67 27.06 33.02 26.71 33.26 26.76 33.53 26.45 33.62 26.26 33.99 25.99 34.22 25.44 33.9 25.5 33.72 25.07 33.39 24.89 33.09 24.51 33.11 24.32 32.74 23.96 32.52 22.93 32.28 22 32.74 21.5 32.78 20.62 33.02 20.59 33.21 20.15 33.32 19.32 33.2 19.11 32.85 19.7 32.44 19.62 32.05 18.98 31.69 18.53 31.73 18.41 32.03 17.84 31.79 17.18 32 16.9 32.38 16.39 32.46 16.13 32.4 15.49 32.51 14.67 32.34 14.53 32.1 14.12 32.22 13.88 32.02 13.21 32.03 12.63 31.95 12.43 32.13 11.78 31.91 11.6 31.1 11.68 30.53 11.59 30.3 11.18 30.04 11.46 29.8 11.21 29.31 11.19 28.99 10.85 28.96 10.97 28.31 10.57 27.73 10.35 27.27 10.22 26.54 10.28 26.4 9.97 25.84 10.03 25.44 9.52 24.64 9.14 23.66 8.39 22.8 8.37 21.95 7.92 20.34 7.97 19.47 7.82 19.16 7.67 18.26 7.37 16.92 7.49 16.68 7.43 15.93 7.02 15.57 6.89 15.25 6.6 15.25 6.3 14.55 4.37 13.42 4.13 13.37 3.15 12.71 2.26 12.63 1.7 12.12 1.69 11.91 1.99 11.73 1.6 11.23 1.56 10.75 1.75 10.61 1.91 9.83 1.64 9.34 1.96 9.02 1 7.65 1.69 6.97 2.08 7.05 2.71 6.31 2.7 5.99 3.23 5.48 3.15 5.04 3.6 4.09 3.8 4.07 4.05 2.74 4.33 2.91 4.47 3.49 4.41 4.03 4.2 4.65 4.46 5.02 5.15 5.11 5.61 5.35 5.64 4.87 5.53 4.75 5.58 3.62 6.03 3.68 6.66 4.1 7.35 4.74 8.4 5.29 9.36 5.46 9.32 5.79 9.8 6.25 10.32 6.86 11.08 6.82 12.45 8.09 12.89 8.77 13.18 8.56 13.7 8.63 14.58 8.48 14.96 8.25 15.83 7.92 16.09 7.56 16.34 6.91 16.67 7.07 17.32 6.57 17.51 6.34 17.98 6.33 18.49 5.87 18.8 6.04 19.27 6.11 19.52 6.47 19.72 6.54 20.12 6.4 20.17 6.18 21.05 6.05 21.47 6.07 21.88 5.45 21.65 5 22.55 4.96 23.11 5.1 23.67 5.03 24.02 4.88 24.34 4.46 24.68 4.64 25.1 4.48 25.6 3.99 25.96 3.76 26.38 3.08 26.33 2.52 26.79 2.57 27.33 2.42 27.65 2.54 27.84 2.25 28.27 2.36 28.12 3.1 28.39 3.38 28.64 3.33 29.52 3.46 30.35 3.27 30.87 2.98 31.3 2.58 31.48 2.74 32.05 2.82 31.29 2.28 31.66 1.7 31.56 1.23 32.07 1 32.61 1.01 32.21 1.37 32.18 1.64 32.34 2.23 32.61 2.75 33.06 2.97 Z" id="23520330"/>
</g>
</svg>