<?xml version="1.0"?>
<svg xmlns="http://www.w3.org/2000/svg" version="1.2" baseProfile="tiny" width="800" height="560" viewBox="0 0 800 560" stroke-linecap="round" stroke-linejoin="round">
<g id="dong">
<path d="M 674.32 104.59 673.62 108.71 678.13 117.9 679.13 117.79 688.19 136.83 692.79 147.99 692.65 150.62 684.03 154.89 681.75 155.14 683.08 163.7 681.68 166.48 678.07 161.66 671.71 157.78 670.49 155.54 657.14 153.82 655.03 151.43 654.49 147.04 651.02 145.87 648.67 150.98 632.27 159.27 627.43 163.84 622.7 165.94 619.5 166.02 613.18 172.43 612.03 166.56 612.59 152.93 608 147.56 606.28 141.43 606.06 132.77 604.25 124.85 604.82 122.83 611.56 118.97 620.05 116.08 630.33 111.54 638.15 106.36 661.15 98.29 669.42 105.04 674.32 104.59 Z" id="24030640"/>
<path d="M 609.48 196.42 612.99 201.59 618.12 204.52 627.87 203.74 633.64 204.29 635.45 208.87 638.16 207.39 645.68 217.35 646.62 225.63 647.85 230.44 647.79 237.07 644.99 241.17 638.04 248.9 635.57 249.39 631.92 256.92 626.89 255.27 619.66 255.27 615.88 253.45 613.91 257.75 605.51 259.04 602.21 261.82 601.77 266.92 599.9 272.18 599.69 276.27 595.77 279.17 598.13 284.35 607.67 287.67 618.69 286.39 623.5 288.4 625.05 293.62 619.32 309.26 620.16 311.18 610.19 314.76 605.16 318.51 599.01 320.22 597.64 323.16 596.34 331.6 587.78 331.86 582.61 328.95 575 329.75 573.15 331.51 568.65 332.12 557.74 330.4 546.9 330.85 544.52 319.62 542.44 315.59 542.45 311.78 538.67 303.57 529.66 297.43 529.22 291.87 526.02 287.74 518.19 288.32 514.52 293.42 512.55 291.78 508.17 292.23 506.76 288.62 500.57 285.33 494.99 286.2 493.41 281.36 495.84 276.8 496.31 270.92 495.26 269.08 491.4 268.53 490.01 262.03 487.28 254.46 490.35 249.45 488.32 245.14 482.13 243.64 486.99 239.19 490.95 240.25 498.8 236.7 501.1 239.06 509.21 237.83 511.6 231.14 519.45 232.08 523.33 234.14 528.33 233 530.49 230.64 524.47 224.6 525.59 223.69 520.68 217.94 528.25 212.43 530.36 209.02 527.31 202.71 534.38 199.18 537.77 194.67 537.83 192.36 541.73 190.36 542 188.41 545.98 182.74 544.76 179.72 549.31 179.83 552.3 184.22 557.7 185.79 566.5 192.02 570.96 192.78 582.98 199.03 584.94 201.07 590.08 201.6 595.3 197.11 600.63 195.13 609.48 196.42 Z" id="24030670"/>
<path d="M 487.28 254.46 490.01 262.03 491.4 268.53 495.26 269.08 496.31 270.92 495.84 276.8 493.41 281.36 494.99 286.2 500.57 285.33 506.76 288.62 508.17 292.23 512.55 291.78 514.52 293.42 518.19 288.32 526.02 287.74 529.22 291.87 529.66 297.43 538.67 303.57 542.45 311.78 542.44 315.59 544.52 319.62 546.9 330.85 557.74 330.4 568.65 332.12 573.15 331.51 575 329.75 582.61 328.95 587.78 331.86 596.34 331.6 596.74 339.89 598.52 345.01 604.49 344.72 609.04 340.48 614.81 344.53 615.28 347.69 623.69 351.34 627.81 356.05 633.76 355.59 638.09 359.08 647.69 360.87 653.65 362.83 662.76 367.23 663.26 372.58 665.44 380.94 665.52 384.52 663.67 389.29 660.97 393.08 654.32 392.79 642.94 395.64 637.82 400.77 635.03 405.67 628.84 410.8 619.69 406.18 617.36 403.5 611.67 399.73 605.35 397.4 602.94 393.31 599.09 390.77 588.7 397.58 586.96 400.45 580.35 405.7 570.49 408.91 568.89 412.31 558.56 415.47 558.05 421.26 545.5 427.03 542.2 425.92 536.99 430.57 532.62 428.56 524.85 427.86 522.5 425.16 512.28 421.28 508.48 424.99 504.57 423.41 501.74 420.35 494.92 417.24 492.59 410.58 489.36 405.2 483.62 405.18 478.14 408.68 471.93 406.97 464.39 408.36 462.07 413.38 461.3 420.57 457.68 428.46 454.29 433.38 447.7 436.66 439.86 438.41 430.77 443.57 430.88 448.49 424.93 455.07 423.76 462.06 419.8 463.56 420.26 470.35 414.96 474.97 411.7 479.64 405.05 479.1 402.48 477.17 397.39 476.68 395.61 478.18 388.02 476.53 383.8 476.73 379.97 474.89 377.18 480.23 375.46 487.97 371.41 488.58 365.44 491.71 355.05 493.5 347.76 498.31 345.36 497.3 333.81 497.05 332.86 495.54 327.02 501.01 321.99 504.47 314.18 507.49 311.65 509.35 310.03 513.74 306.85 516.91 305.49 525.55 299.31 536.56 297.45 542.44 296.9 548.56 294.51 549.23 288.3 547.8 282.15 545.23 274.63 546.57 270.28 549.77 266 547.02 262.26 549.71 260.37 547.85 257.48 551.21 251.21 551.78 246.34 559 244.48 557.46 240.32 557.51 234.78 555.2 233.91 550.76 229.36 550.85 228.2 541.15 226.64 535.56 219.97 526.82 218.18 522.98 219.52 519.28 209.24 512.07 201.52 514.55 198.96 514.07 196.33 510.69 194.48 504.64 189.75 502.65 184.72 507.55 179.03 508.64 174.7 506.11 172.36 508.17 170.94 512.84 164.8 514.35 161.69 517.4 160.37 520.79 157.64 522.93 154.35 522.97 148.49 528.15 147.92 530.9 145.23 533.15 139.51 535.28 137.35 534.48 133.44 539.55 129.49 542.54 121.32 540.21 113.46 541.72 107.13 546.41 104.68 548.22 99.22 548.94 89.73 547.62 79.89 543.34 73.53 541.72 69.6 538.49 65.71 532.2 65.12 528.58 67.53 514.72 70.99 507.48 70.1 500.8 65.76 492.76 60.43 487.2 55.12 484.55 44.74 486.6 38.81 489.1 30.33 494.99 28.15 498.53 25.18 508.52 21.66 513.92 17.19 518.09 13.18 513.42 13.22 502.07 11.08 494.37 6.36 487.77 1.88 483.94 1 479.6 3.07 474.02 5.55 470.74 18.41 462.39 24.16 460.95 34.99 460.66 49.52 463.22 63.71 463.57 74.34 459.44 83.39 452.6 92.18 448.64 101.42 446.72 110.79 446.24 118.58 445.18 129.46 441.74 133.85 439.65 143.05 433.3 150.05 426.81 154.23 419.05 157.45 415.16 159.2 409.78 163.53 405.06 166.55 398.01 169 399.12 171.02 396.07 173.96 387.71 184.75 375.78 185.82 375.19 194.96 354.92 201.21 349.1 205.15 348.99 214.36 343.48 223.19 335.05 225.28 328.91 224.62 324.8 228.59 324.24 237.3 314.3 237.58 308.92 242.3 302.65 244.95 308.12 246.59 314.26 251.07 324.37 255.72 328.92 256.61 331.97 261.06 335.62 263.29 338.82 272.99 331.9 277.69 326.44 286.76 323.69 295.38 333.01 303.91 338.97 309.36 334.95 315.92 332.63 323.77 326.35 327.48 327.37 333.19 323.95 335.46 320.73 341.33 319.77 340.75 317.31 345.85 312.87 351.07 306.43 352.42 302.83 355.2 300.14 365.08 301.04 372.07 300.36 378.64 296.6 379.41 290.7 381.4 287.15 382.28 282.06 385.47 276.69 391.74 281.75 398.9 283.48 404.97 278.1 405.08 274.91 410.93 269.96 412.17 266.92 422.76 264.47 424.55 260.26 429.01 257.54 432.79 257.39 438.26 258.8 442.39 256.78 446.05 256.5 453.08 254.12 459.49 252.98 463.14 249.82 465.98 250.6 471.76 257.27 473.54 255.22 478.85 255.48 487.28 254.46 Z" id="24030700"/>
<path d="M 681.68 166.48 682.74 170.58 683.01 177.51 684.05 179.33 684.14 186.66 687.11 193.61 690.79 196.06 694.54 194.36 704.02 193.21 708.45 196.32 715.21 199.4 718.7 203.66 722.36 208.04 724.83 209.43 726.6 214.07 721.09 222.23 721.79 231.82 709.6 238.18 704.7 237.89 700.89 235.94 696.04 237.4 694.55 240.31 690.55 237.08 687.71 237.58 685.35 225.95 672.79 230.06 660.64 230.12 663 238.88 664.93 241.34 664.72 248.6 665.51 253.49 670.1 253.48 671.55 248.65 676.07 250.7 677.83 253.52 674.05 255.16 674.32 257.71 666.19 260.28 663.95 257.55 656.33 257.02 653.35 255.43 647.7 258.76 645.22 259.15 642.86 262.05 636.15 261.24 631.92 256.92 635.57 249.39 638.04 248.9 644.99 241.17 647.79 237.07 647.85 230.44 646.62 225.63 645.68 217.35 638.16 207.39 635.45 208.87 633.64 204.29 627.87 203.74 618.12 204.52 612.99 201.59 609.48 196.42 612.49 191.42 609.52 184.92 611.88 180.94 613.18 172.43 619.5 166.02 622.7 165.94 627.43 163.84 632.27 159.27 648.67 150.98 651.02 145.87 654.49 147.04 655.03 151.43 657.14 153.82 670.49 155.54 671.71 157.78 678.07 161.66 681.68 166.48 Z" id="24030710"/>
<path d="M 721.79 231.82 723.93 235.59 729.63 240.88 727.95 250.29 728.26 255.18 730.65 258.26 730.95 261.32 736.06 266.74 739.26 268.82 742.82 273.12 746.64 281.08 744.81 287.15 747.67 295.52 756.56 297 760.76 304.36 759.39 308.38 758.3 318.84 754.22 325.86 754.7 328.8 752.84 332.17 752.9 336.14 746.55 336.31 740.6 337.82 730.95 345.12 719.39 350.37 713.22 352.02 713.52 358.77 709.62 362.57 708.89 365.16 703.4 371.14 696.06 377.37 692.32 383.12 691.32 388.35 685.55 391.96 678.83 392.29 674.32 394.02 664.58 395.66 660.97 393.08 663.67 389.29 665.52 384.52 665.44 380.94 663.26 372.58 662.76 367.23 653.65 362.83 647.69 360.87 638.09 359.08 633.76 355.59 627.81 356.05 623.69 351.34 615.28 347.69 614.81 344.53 609.04 340.48 604.49 344.72 598.52 345.01 596.74 339.89 596.34 331.6 597.64 323.16 599.01 320.22 605.16 318.51 610.19 314.76 620.16 311.18 619.32 309.26 625.05 293.62 623.5 288.4 618.69 286.39 607.67 287.67 598.13 284.35 595.77 279.17 599.69 276.27 599.9 272.18 601.77 266.92 602.21 261.82 605.51 259.04 613.91 257.75 615.88 253.45 619.66 255.27 626.89 255.27 631.92 256.92 636.15 261.24 642.86 262.05 645.22 259.15 647.7 258.76 653.35 255.43 656.33 257.02 663.95 257.55 666.19 260.28 674.32 257.71 674.05 255.16 677.83 253.52 676.07 250.7 671.55 248.65 670.1 253.48 665.51 253.49 664.72 248.6 664.93 241.34 663 238.88 660.64 230.12 672.79 230.06 685.35 225.95 687.71 237.58 690.55 237.08 694.55 240.31 696.04 237.4 700.89 235.94 704.7 237.89 709.6 238.18 721.79 231.82 Z" id="24030720"/>
<path d="M 660.61 75.8 655.61 77.59 649.32 82.32 652.12 86.23 649.04 88.14 643.88 79.96 633.03 86.75 624.02 72.42 621.93 73.73 615.92 64.21 636.95 51.09 639.67 55.32 642.45 51.92 643.9 47.18 645.97 47.85 650.05 46.24 652.66 48.24 655.94 58.5 655.24 61.97 659.14 69.98 660.61 75.8 Z" id="24030610"/>
<path d="M 744.36 62.64 757.1 80.95 755.83 83.2 741.86 95.75 732.9 99.21 717.49 100.68 718.26 93.31 715.97 91.72 715.58 88.12 708.38 93.73 704.6 90.11 705.12 82.34 709.16 78.59 711.87 73.48 711.59 68.81 715.04 65.31 712.85 60.88 716.14 58.99 717.97 60.4 725.3 58.88 726.63 60.75 737.27 53.35 744.36 62.64 Z" id="24030510"/>
<path d="M 763.49 94.99 745.25 106.62 747.21 120.98 747.07 123.63 739.19 125.26 738.58 123.6 730.53 124.05 727.91 123.77 727.12 113.29 721.72 113.84 721.13 107.6 715.79 108.09 715.23 102.56 717.49 100.68 732.9 99.21 741.86 95.75 755.83 83.2 757.1 80.95 758.25 80.34 760.75 89.31 763.49 94.99 Z" id="24030520"/>
<path d="M 789.35 128.37 788.9 136.6 794.01 139.22 799 144.62 795.9 147.48 775.05 153.91 772.15 148.75 773.45 144.58 771.74 142.77 764.18 139.75 761.98 134.05 759.5 132.17 747.38 136.42 741.54 139.53 738.55 139.41 734.54 136.16 731.06 134.86 730.53 124.05 738.58 123.6 739.19 125.26 747.07 123.63 747.21 120.98 745.25 106.62 763.49 94.99 776.04 105.58 779.71 111.36 784.72 125.41 789.35 128.37 Z" id="24030530"/>
<path d="M 727.84 44.25 737.27 53.35 726.63 60.75 725.3 58.88 717.97 60.4 716.14 58.99 712.85 60.88 715.04 65.31 711.59 68.81 711.87 73.48 707.26 70.03 702.62 63.45 705.32 60.59 704.9 57.88 700.39 51.72 697.76 53.41 681.59 49.18 680.36 49.81 684.08 35.21 689.64 24.17 699.44 21.33 705.52 20.88 709.38 19.2 725.46 41.5 727.84 44.25 Z" id="24030540"/>
<path d="M 689.64 24.17 684.08 35.21 680.36 49.81 674.84 69.16 671.64 68.33 662.32 73 660.61 75.8 659.14 69.98 655.24 61.97 655.94 58.5 652.66 48.24 650.05 46.24 648.96 40.63 650.17 32.66 646.83 28.02 646.63 19.69 643.8 8.91 640.9 9.81 639.74 6.65 649.56 2.76 653.77 1.47 658.44 1.98 667.61 1 669.91 1.52 673.36 4.98 677.71 14.36 681.73 19.42 689.64 24.17 Z" id="24030570"/>
<path d="M 650.05 46.24 645.97 47.85 643.9 47.18 642.45 51.92 639.67 55.32 636.95 51.09 615.92 64.21 613.55 60.46 610.36 58.24 612.59 54.31 599.51 33.51 604.15 30.62 621.18 19.97 630.39 17.94 635.23 14.3 635.53 11.99 640.9 9.81 643.8 8.91 646.63 19.69 646.83 28.02 650.17 32.66 648.96 40.63 650.05 46.24 Z" id="24030600"/>
<path d="M 711.87 73.48 709.16 78.59 705.12 82.34 704.6 90.11 708.38 93.73 706.75 94.87 701.36 88.15 672.61 86.12 672.46 78.72 674.84 69.16 680.36 49.81 681.59 49.18 697.76 53.41 700.39 51.72 704.9 57.88 705.32 60.59 702.62 63.45 707.26 70.03 711.87 73.48 Z" id="24030620"/>
<path d="M 674.84 69.16 672.46 78.72 672.61 86.12 701.36 88.15 706.75 94.87 708.38 93.73 715.58 88.12 715.97 91.72 718.26 93.31 717.49 100.68 674.87 104.72 674.32 104.59 669.42 105.04 661.15 98.29 652.12 86.23 649.32 82.32 655.61 77.59 660.61 75.8 662.32 73 671.64 68.33 674.84 69.16 Z" id="24030630"/>
<path d="M 615.92 64.21 621.93 73.73 624.02 72.42 633.03 86.75 643.88 79.96 649.04 88.14 652.12 86.23 661.15 98.29 638.15 106.36 630.33 111.54 620.05 116.08 611.56 118.97 604.82 122.83 606.08 117.46 609.26 114.01 608.11 100.46 605.35 100.77 602.66 96.43 600.73 88.18 594.67 83.05 591.42 82.72 589.38 78.46 590.46 75.16 594.23 74.23 597.19 70.97 599.41 64.34 610.36 58.24 613.55 60.46 615.92 64.21 Z" id="24030650"/>
<path d="M 730.53 124.05 731.06 134.86 734.54 136.16 738.55 139.41 741.54 139.53 735.49 144.51 726.22 142.13 724.33 140.54 713.65 141.06 711.08 143.03 697.38 143.76 697.44 145.59 692.79 147.99 688.19 136.83 679.13 117.79 678.13 117.9 673.62 108.71 674.32 104.59 674.87 104.72 717.49 100.68 715.23 102.56 715.79 108.09 721.13 107.6 721.72 113.84 727.12 113.29 727.91 123.77 730.53 124.05 Z" id="24030680"/>
<path d="M 775.05 153.91 775.93 159.99 770.95 163.27 768.16 167.32 767.87 174.52 763.28 178.39 763.88 180.51 754.43 185.23 752.72 192.31 744.29 196.44 737.79 197.12 735 195.88 731.95 198.23 727.61 199.17 726.39 201 718.7 203.66 715.21 199.4 708.45 196.32 704.02 193.21 694.54 194.36 690.79 196.06 687.11 193.61 684.14 186.66 684.05 179.33 683.01 177.51 682.74 170.58 681.68 166.48 683.08 163.7 681.75 155.14 684.03 154.89 692.65 150.62 692.79 147.99 697.44 145.59 697.38 143.76 711.08 143.03 713.65 141.06 724.33 140.54 726.22 142.13 735.49 144.51 741.54 139.53 747.38 136.42 759.5 132.17 761.98 134.05 764.18 139.75 771.74 142.77 773.45 144.58 772.15 148.75 775.05 153.91 Z" id="24030690"/>
</g>
</svg>