<?xml version="1.0"?>
<svg xmlns="http://www.w3.org/2000/svg" version="1.2" baseProfile="tiny" width="800" height="852" viewBox="0 0 800 852" stroke-linecap="round" stroke-linejoin="round">
<g id="dong">
<path d="M 517.89 537.32 518.98 540.39 518.41 550.22 517.6 554.1 513.67 563.27 509.55 568.97 504.24 573.66 499.46 582.73 499.87 597.38 502.89 606.75 501.03 608.26 501.2 612.64 500.24 615.94 501.06 619.55 505.72 627.33 501.8 632 499.04 638.33 496.08 641.19 495.63 643.94 492.22 646.2 489.48 646.37 477.26 656.81 469.76 662.74 460.43 670.86 445.09 683.78 440.8 681.26 437.02 683.35 434.59 683.2 430.77 679.84 426.18 683.02 422.8 684.07 420.75 683.41 415.14 683.98 411.68 685.01 409.83 687.29 401.05 691.89 400.27 690.97 394.57 694.65 390.5 694.19 387.74 692.84 381.56 683.9 380.51 683.87 374.74 688.98 373.25 689.58 369.51 698.13 364.09 694.63 363.46 692.39 360.11 690.1 355.53 689.28 350.33 686.01 346.59 682.13 339.23 679.17 335.73 680.42 335.16 674.41 332.05 669.76 330.58 666.06 324.48 657.92 321.2 661.45 318.57 662.17 317.02 669.62 319.9 674.24 318.81 677.5 320.13 679.65 318.17 681.3 309.4 682.77 305 682.15 300.91 680.62 294.89 679.65 291.65 678.47 284.69 678.98 278.96 678.69 275.04 677.46 265.94 669.08 261.65 667.63 251.43 671.32 244.25 671.63 241.15 673.21 236.2 673 229.26 664.43 224.32 657.27 223.48 655.62 223.11 649.63 220.76 645.33 216.55 639.68 216.34 638.16 213 635.26 209.72 633.87 202.41 636.68 200.72 633.16 199.13 632.29 204.05 628.43 205.03 620.01 202.66 614.75 199.64 612.28 198.58 609.72 201.96 604.33 206.61 605.01 209.1 602.41 211.26 593.17 208.36 586.8 207.88 582.37 205.63 580.4 200.82 568.11 198.45 560.48 199.6 559.77 199.44 553.18 204.24 551.57 207.47 551.86 211.68 547.01 216.29 544.23 216.35 539.04 222.43 532.98 225.67 532.39 227.39 528.71 230.79 529.66 234.98 524.32 235.28 521.69 237.62 521.23 245.8 516.7 252.9 515.41 259.15 511.2 260.32 508.39 263.95 507.63 266.52 508.59 269.12 507.68 274.16 504.04 278.5 505.33 282.53 502.06 288.74 502.62 295.44 509.34 299.1 516.58 304.32 516.05 310.75 519.07 315.18 522.1 320.38 520.6 333.37 514.88 337.86 515.16 340.57 516.99 339.39 520.92 339.64 523.85 342.36 523.68 347.02 525.28 348.77 524.65 355.55 528.73 359.36 525.89 359.43 523.94 366.2 517.46 374 512.65 377.09 513.74 381.68 512.01 384.79 511.76 388.44 507.37 392.59 506.87 393.21 498.4 394.94 495.59 397.3 495.79 414.3 494.23 426.44 494.81 436.24 496.24 442.21 498.95 451.96 501.61 457.1 506.59 459.95 511.17 468.79 516.81 471.2 519.33 476.2 522.45 481.74 524.12 494.89 523.56 502.41 526.37 515.58 533.97 517.89 537.32 Z" id="24050660"/>
<path d="M 338.85 418.37 340.33 434.05 342.56 446.14 342.6 449.91 340.71 455.54 340.26 458.89 345.6 470.81 346.61 476.2 349.72 478.56 356.08 481.49 363.71 484.15 373.75 489.15 375.81 488.97 389.52 494.59 394.94 495.59 393.21 498.4 392.59 506.87 388.44 507.37 384.79 511.76 381.68 512.01 377.09 513.74 374 512.65 366.2 517.46 359.43 523.94 359.36 525.89 355.55 528.73 348.77 524.65 347.02 525.28 342.36 523.68 339.64 523.85 339.39 520.92 340.57 516.99 337.86 515.16 333.37 514.88 320.38 520.6 315.18 522.1 310.75 519.07 304.32 516.05 299.1 516.58 295.44 509.34 288.74 502.62 282.53 502.06 278.5 505.33 274.16 504.04 269.12 507.68 266.52 508.59 263.95 507.63 260.32 508.39 259.15 511.2 252.9 515.41 245.8 516.7 237.62 521.23 235.28 521.69 234.98 524.32 230.79 529.66 227.39 528.71 225.67 532.39 222.43 532.98 216.35 539.04 216.29 544.23 211.68 547.01 207.47 551.86 204.24 551.57 199.44 553.18 199.6 559.77 198.45 560.48 200.82 568.11 205.63 580.4 207.88 582.37 208.36 586.8 211.26 593.17 209.1 602.41 206.61 605.01 201.96 604.33 198.58 609.72 199.64 612.28 202.66 614.75 205.03 620.01 204.05 628.43 199.13 632.29 200.72 633.16 202.41 636.68 209.72 633.87 213 635.26 216.34 638.16 216.55 639.68 220.76 645.33 223.11 649.63 223.48 655.62 224.32 657.27 221.32 658.42 214.23 658.62 210.32 660.33 210.84 661.91 208.63 664.48 204.72 671.85 204.37 674.88 197.63 677.73 198.29 679.88 195.08 681.65 188.28 681.26 185.79 676.84 181.7 674.93 178.91 677.47 175.7 678.73 174.15 674.81 174.25 672.41 172.7 669.34 166.8 665.17 161.58 665.8 156.57 663.38 150.97 661.61 148.35 661.53 142.11 664.24 143.72 665.37 149.04 677.67 146.78 677.61 145.85 681.46 141.43 682.34 130.17 681.61 127.5 684.34 125.89 687.88 121.72 689.36 116.49 693.57 111.89 692.59 105.64 692.16 102.4 694.19 95.4 693.74 90.89 694.77 87.88 693.86 83.68 692.39 83.93 690.15 81.85 685.87 85.27 685.26 87.34 681.44 89.24 679.9 89.8 674.85 89.83 664.76 90.57 661.32 85.81 661.83 80.6 659.53 78.27 654.97 75.8 652.67 72.68 651.81 68.7 648.72 65.79 649.22 59.32 653.15 55.85 654.44 49.48 654.5 45.22 655.48 38.35 648.37 39.08 638.75 37.52 635.03 32.83 632.08 29.22 631.1 26.32 626.71 25.33 623.27 28.91 616.3 27.53 609.95 25.64 604.13 27.31 600.13 30.87 595.63 31.69 586.13 32.69 583.03 32.94 577.81 35.07 574.69 32.59 570.55 36.22 564.29 36.84 552.62 37.79 548.47 34.92 546.93 33.33 539.51 31.57 537.32 29.98 530.86 30.31 521.52 31.84 517.13 25.86 516.96 21.51 515.26 14.47 516.87 10.54 516.72 1 505.32 7.66 503.85 16.3 502.58 20.18 500.45 22.9 497.45 23.72 494.57 22.13 489.38 24.31 486.95 28.48 483.41 32.87 476.33 26.24 471.02 24.98 468.16 28.07 462.42 31 460.93 33.41 456.28 39.55 449.9 39.08 446.11 35.13 443.37 33.39 439.09 35.24 434.51 34.59 425.91 38 421.56 46.12 415.04 50.95 414.11 55.45 416.06 59.49 415.03 66.74 416.09 67.65 411.22 72.83 406.91 77.49 405.34 84.66 404.48 88.98 402.83 90.59 404.11 94.69 399.07 96.69 400.68 107.38 409.26 114.29 400.66 118.77 404.29 125.97 406.62 127.61 403.19 128.34 399.1 130.95 393.69 135.7 392.62 140.49 399.68 142.17 401.11 143.03 406.65 142.21 409.73 139.79 410.51 141.73 413.96 153.49 416.55 157.76 412.67 160.45 412.58 163.78 416.4 168.07 417.72 171.09 416.11 174.47 416 178.21 417.68 185.16 416.41 189.12 414.6 196.21 406.85 201.97 402 205.9 401.92 216.81 402.67 219.74 404.95 220.39 408.69 223.73 409.72 223.49 405.65 220.27 402.37 216.74 395.82 219.02 390.74 221.98 389.55 224.16 390.19 226.71 394.68 230.9 396.62 236.95 398.07 244.75 398.04 248.18 393.7 251.97 393.65 253.37 391.27 257.14 393.21 265.42 394.26 272.38 394.02 275.4 393.2 276.39 395.21 280.83 396.17 284.77 398.54 284.46 400.42 287.43 402.51 291.23 400.29 294.68 400.2 296.89 403.28 300.29 403.69 301.18 400 305.63 402.05 311.34 401.54 314.5 400.44 316.38 402.88 321.81 400.56 326.48 400.62 329.82 401.77 330.43 405.3 332.38 410 333.2 415.15 336.73 417.91 338.85 418.37 Z" id="24050670"/>
<path d="M 170.27 197.32 173.37 204.04 177.76 208.36 179.67 209.28 182.57 213.06 187.27 214.79 188.59 217.46 193.25 220.94 194.54 223.25 200.11 222.33 205.06 224.84 205.1 226.91 210.1 227.99 215.05 230.98 216.54 230.44 219.6 226.38 222.62 225.79 225.03 223.56 226.09 220.35 228.6 218.97 231.83 219.52 234.41 218.06 242.41 211.55 245.24 209.84 249.44 210.84 254.34 210.66 258.76 209.2 261.25 210.92 269.44 209.13 270.98 209.36 270.06 219.05 276.07 220.79 278.33 222.99 278.62 227.89 283.61 235.61 287.67 237.64 290.9 242.17 294.64 244.88 297.91 248.74 302.61 242.37 306.35 238.31 313.86 232.16 320.04 232 325.66 233.16 328.81 232.92 329.19 230.69 333.17 227.26 336.02 223.85 341.87 225.91 342.91 224.19 345.84 225.75 349.72 225.57 351.3 227.02 355.65 227.45 358.5 229.55 362.83 237.63 368.07 238.66 371.14 233.72 373.47 231.81 379.56 228.94 391.12 220.52 396.57 223.67 404.53 230.21 414.05 239.83 417.75 245.89 417.69 252.31 417.79 253.97 417.95 255.86 416.64 265.84 419.88 268.04 424.67 269.48 426.67 271.72 430.98 280.41 431.04 282.56 426.51 286.92 420.25 288.95 415.04 292.47 405.21 300.36 400.86 304.86 398.23 308.82 395.61 315.91 393.84 325.31 393.95 330.34 396.55 334.19 397.16 338.92 396.06 342.72 395.08 348.66 393.09 355.17 387.75 360.74 378.56 364.22 375.76 366.13 371.57 372.95 369.89 385.11 368.14 390.04 365.3 392.79 357.43 393.64 353.78 395.07 349.6 398.52 344.84 403.94 341.69 409.09 339.46 414.04 338.85 418.37 336.73 417.91 333.2 415.15 332.38 410 330.43 405.3 329.82 401.77 326.48 400.62 321.81 400.56 316.38 402.88 314.5 400.44 311.34 401.54 305.63 402.05 301.18 400 300.29 403.69 296.89 403.28 294.68 400.2 291.23 400.29 287.43 402.51 284.46 400.42 284.77 398.54 280.83 396.17 276.39 395.21 275.4 393.2 272.38 394.02 265.42 394.26 257.14 393.21 253.37 391.27 251.97 393.65 248.18 393.7 244.75 398.04 236.95 398.07 230.9 396.62 226.71 394.68 224.16 390.19 221.98 389.55 219.02 390.74 216.74 395.82 220.27 402.37 223.49 405.65 223.73 409.72 220.39 408.69 219.74 404.95 216.81 402.67 205.9 401.92 201.97 402 196.21 406.85 189.12 414.6 185.16 416.41 178.21 417.68 174.47 416 171.09 416.11 168.07 417.72 163.78 416.4 160.45 412.58 157.76 412.67 153.49 416.55 141.73 413.96 139.79 410.51 142.21 409.73 143.03 406.65 142.17 401.11 140.49 399.68 135.7 392.62 130.95 393.69 128.34 399.1 127.61 403.19 125.97 406.62 118.77 404.29 114.29 400.66 107.38 409.26 96.69 400.68 99.34 396.22 99.99 391.76 101.33 390.52 101.89 386.04 98.95 380.13 96.11 377.33 88.41 377.9 86.48 373.98 81.5 367.94 80.6 363.41 84.32 366.35 85.06 362.58 83.91 359.79 80.64 361.2 75.95 359.99 75.9 358.07 72.31 356.46 66.71 352.75 67.48 347.85 70.81 344.78 64.15 337.19 63.68 333.46 61.8 331.15 54.32 327.87 49.55 326.38 47.52 322.06 42.19 317.06 40.27 314.28 40.22 311.72 38.29 309.96 37.07 305.95 35.45 305.58 34.48 302.11 32.37 298.53 37.04 294.43 43.47 291.13 46.13 294.18 51 296.57 53.9 299.45 57.89 295.99 63.73 292.9 68.75 293.85 69.62 298.27 72.77 299.03 76.94 298.32 82.46 294.67 87.37 297.85 90.64 293.76 92.91 289.53 98.92 292.77 102 290.62 103.73 292.14 105.25 296.39 108.22 296.24 109 299.95 110.96 304.24 116.43 306.62 120.89 305.04 121.31 299.99 123.4 292.91 120.58 285.23 118.82 283.03 118.44 280.3 121.6 276.27 123.68 272.34 124.51 267.35 121.76 258.6 123.13 251.9 127.02 248.19 131.44 246.61 133.89 241.24 135.05 235.97 133.26 231.72 134.12 228.79 141.08 226.07 148.42 220.5 148.32 216.09 150.11 211.04 152.52 206.76 152.73 203.47 158.04 196.32 163.96 199.88 166.21 197.68 170.27 197.32 Z" id="24050519"/>
<path d="M 784.69 189.26 777.46 197.11 772.22 204.85 770.42 213.06 770.5 218.08 773.12 222.24 775.78 226.26 777.24 230.08 779.35 239.33 779.31 246.16 780.31 260.2 779.5 263.5 776.17 268.78 773.95 270.69 767.87 273.93 768.75 279.54 766.93 281.96 764.74 279.94 761.81 280.64 757.13 279.93 750.66 272.73 748.08 273.97 747.15 264.3 745.2 260.81 743.76 256.15 738.15 254.16 733.46 257.35 736.02 262.22 734.28 262.79 730.71 259.22 727.89 257.58 724.36 253.47 718.13 247.44 710.49 239.02 704.07 233.22 696.7 225.19 691.99 218.88 690.48 215.46 686.16 209.08 681.6 204.66 676.57 198.04 676.84 194.04 680.74 193.98 683.53 195.64 690.77 197.14 693.66 196.43 710.9 185.49 722.33 184.95 722.34 184.05 730.4 184.09 731.97 187.45 778.81 187.78 784.69 189.26 Z" id="24050516"/>
<path d="M 517.89 537.32 515.58 533.97 502.41 526.37 494.89 523.56 481.74 524.12 476.2 522.45 471.2 519.33 468.79 516.81 459.95 511.17 457.1 506.59 451.96 501.61 442.21 498.95 436.24 496.24 426.44 494.81 414.3 494.23 397.3 495.79 394.94 495.59 389.52 494.59 375.81 488.97 373.75 489.15 363.71 484.15 356.08 481.49 349.72 478.56 346.61 476.2 345.6 470.81 340.26 458.89 340.71 455.54 342.6 449.91 342.56 446.14 340.33 434.05 338.85 418.37 339.46 414.04 341.69 409.09 344.84 403.94 349.6 398.52 353.78 395.07 357.43 393.64 365.3 392.79 368.14 390.04 369.89 385.11 371.57 372.95 375.76 366.13 378.56 364.22 387.75 360.74 393.09 355.17 395.08 348.66 396.06 342.72 401.33 344.31 401.9 345.93 406.89 350.09 410.35 357.95 412.09 359.23 418.1 361.02 420.1 362.55 423.48 362.43 425.5 363.59 428.21 362.69 433.05 362.81 437.37 367.26 441 368.47 442.09 373.51 446.39 380.26 452.09 386.63 453.98 387.45 456.87 385.62 457.79 379.96 459.53 378.46 463.36 370.4 467.22 368.6 467 366.67 469.67 364.19 475.38 367.37 476.82 366.59 483.28 367.74 487.32 371.8 489.1 376.43 491.68 380.18 494.91 382.32 500.55 387.32 503.95 385.81 506.67 385.97 509.89 384.04 511.9 384.77 513.51 388.3 512.67 390.73 515.56 394.84 515.1 399.24 520.01 402.92 519.1 408.87 523.09 410.39 525.37 412.31 528.59 417.79 533.53 418.15 536.59 422.89 536.52 425.69 537.81 429.02 541.01 428.94 543.16 430.33 547.2 431.06 552.39 431.04 553.79 434.73 561.32 440.01 569.88 438.1 571.22 434.88 575.26 434.47 575.48 436.27 574.12 443.61 574.38 446.81 571.56 459.67 575.23 460.24 576.16 456.49 579.9 458.51 584.19 458.75 589.48 464.38 595.87 466.83 593.48 471.85 596.6 475.76 599.31 474.48 602.64 474.6 602.2 482.45 602.92 483.38 602.53 489.25 596.08 489.65 594.78 492.02 592.63 499 586.23 500.21 582.74 498.96 576.89 498.82 572.63 504.93 574.93 511.83 574.84 515.11 572.3 519.67 561.24 521.13 560.97 523.39 557.95 527.49 554.56 529.12 554.18 532.2 550.91 533.46 543.48 529.69 547.43 527.22 548.76 524.55 541.38 517.69 537.85 513.68 535.89 509.6 528.68 508.09 526.15 509.34 523.48 513.62 521.37 521.5 523.6 530.42 521.82 535.54 517.89 537.32 Z" id="24050514"/>
<path d="M 668.59 456.24 670.81 457.59 669.51 460.15 668.74 465.05 669.32 468.36 668.73 475.14 675.38 482.91 680.49 490.02 681.88 494.71 682.95 497.82 683.46 504.36 682.93 511.4 683.13 520.59 684.57 525.09 684.99 530.01 684.05 532.95 680.05 531.11 654.27 525.2 642.63 522.89 643.88 514.81 622.6 511.26 626.69 507.47 628.7 501.8 626.97 500.66 624.04 502.45 620.46 501.53 617.59 502.72 613.81 500.9 611.73 498.49 610.89 493.04 607.95 489.56 608.31 487.56 606.86 483.66 602.92 483.38 602.2 482.45 602.64 474.6 599.31 474.48 596.6 475.76 593.48 471.85 595.87 466.83 589.48 464.38 584.19 458.75 579.9 458.51 576.16 456.49 575.23 460.24 571.56 459.67 574.38 446.81 574.12 443.61 575.48 436.27 577.43 432.54 577.77 427.46 579.28 426.72 581.53 416.14 606.86 419.07 607.12 419.41 605.82 430.62 622.13 432.5 624.28 428.11 634.03 424.79 634.39 422.04 636.54 421.21 641.69 421.84 642.7 413.07 652.07 415.95 652.99 418.81 655.97 420.79 653.43 425.48 653.56 426.97 657.46 434.15 660.56 438.21 659.24 443.23 660.66 445.51 664.27 447.35 666.61 449.73 668.59 456.24 Z" id="24050580"/>
<path d="M 502.89 606.75 503.86 605.91 509.12 608.99 516.92 612.28 526.26 618.93 527.47 625.45 526.26 628.08 522.64 629.87 516.45 638.68 513.78 646.19 515.68 653.95 518.9 660.25 524.23 665.56 531.52 668.37 540.27 676.57 544.36 675.91 547.43 673.96 547.78 667.96 549.72 665.62 549.13 660.65 556.41 651.03 559.85 651.59 564.14 647.42 571.27 653.05 577 660.48 580.01 658.64 581 661.73 585.16 661.51 585.83 667.18 589.05 677.14 592.76 682.98 592.31 687.82 593.52 692.27 597.67 701.43 598.13 703.9 594.35 706.71 590.85 706.24 587.22 704.13 580.66 709.11 578.09 712.76 577.1 722.71 576.95 729.02 578.67 734.55 582.53 740.98 583.97 746.21 584.51 749.58 582.8 754.61 575.55 761.52 568 766.04 564.77 766.13 559.65 770.91 552.15 787.53 551.28 788.01 542.43 797.79 540.02 804.64 538.36 807.14 536.35 806.24 533.88 812.01 530.33 815.89 528.89 820.3 526.25 823.49 522.83 829.85 517.08 835.17 509.55 840.38 505.95 842.09 497.03 844.91 490.64 845.78 482.95 846.17 475.38 847.75 468.17 851 465.23 839.73 460.74 837.04 453.1 828.56 451.84 826.11 452.32 823.65 448.6 819.91 446.61 815.75 444.01 812.3 447.3 803.65 447.54 798.41 446.07 790.07 442.88 789.72 438.54 787.42 438.88 782.72 437.22 781.04 436.19 772.86 432.74 768.24 432.79 764.5 434.01 763.14 433.28 756.92 430.56 757.13 425.22 754.88 421.56 754.08 417.69 754.69 416.66 756.01 411.48 753.85 407.98 754.85 405.16 753.95 404.09 749.6 402.64 747.57 402.64 743.8 401.17 740.86 397.76 737.75 397.76 735.66 393.04 730.4 392.51 725.57 386.14 715.07 386.4 710 384.53 707.65 380.63 704.92 377.27 706.19 371.57 700.93 369.51 698.13 373.25 689.58 374.74 688.98 380.51 683.87 381.56 683.9 387.74 692.84 390.5 694.19 394.57 694.65 400.27 690.97 401.05 691.89 409.83 687.29 411.68 685.01 415.14 683.98 420.75 683.41 422.8 684.07 426.18 683.02 430.77 679.84 434.59 683.2 437.02 683.35 440.8 681.26 445.09 683.78 460.43 670.86 469.76 662.74 477.26 656.81 489.48 646.37 492.22 646.2 495.63 643.94 496.08 641.19 499.04 638.33 501.8 632 505.72 627.33 501.06 619.55 500.24 615.94 501.2 612.64 501.03 608.26 502.89 606.75 Z" id="24050650"/>
<path d="M 628.07 392.12 630.14 394.35 630.16 399.96 634.32 403.89 636.46 404.19 641.9 410.76 642.7 413.07 641.69 421.84 636.54 421.21 634.39 422.04 634.03 424.79 624.28 428.11 622.13 432.5 605.82 430.62 607.12 419.41 607.49 418.88 609.51 400.25 609.95 392.49 611.47 391.84 623.23 392.68 628.07 392.12 Z" id="24050590"/>
<path d="M 590.83 590.58 589.73 586.26 590.64 581.97 590.63 576.28 588.38 571.12 583.83 569.46 576.17 576.49 567.7 574.09 562.59 567 562.8 563.94 562.75 563.37 562.88 563.13 563.8 561.62 565.7 558.73 570.85 549.67 574.84 541.04 564.12 526.3 560.97 523.39 561.24 521.13 572.3 519.67 572.82 521.15 578.94 520.75 581.25 522.46 584.26 522.84 588.35 522.03 583.32 530.85 594.5 537.01 614.27 554.64 615.9 556.92 621.3 561.79 621.99 565.02 618.55 571.63 616.8 576.42 615.61 582.73 616.65 586.07 617.66 594 618.71 595.75 596.56 592.69 590.83 590.58 Z" id="24050511"/>
<path d="M 560.97 523.39 564.12 526.3 574.84 541.04 570.85 549.67 565.7 558.73 563.8 561.62 562.88 563.13 562.75 563.37 562.75 563.36 562.38 560.74 556.19 557.12 550.82 556.57 545.11 559.41 544.27 563.03 545.12 567.04 540.59 571.05 533.45 573.49 527.7 571.96 523.44 567.56 522.72 562.63 522.91 555.55 517.6 554.1 518.41 550.22 518.98 540.39 517.89 537.32 521.82 535.54 523.6 530.42 521.37 521.5 523.48 513.62 526.15 509.34 528.68 508.09 535.89 509.6 537.85 513.68 541.38 517.69 548.76 524.55 547.43 527.22 543.48 529.69 550.91 533.46 554.18 532.2 554.56 529.12 557.95 527.49 560.97 523.39 Z" id="24050512"/>
<path d="M 562.75 563.36 562.8 563.94 562.59 567 567.7 574.09 576.17 576.49 583.83 569.46 588.38 571.12 590.63 576.28 590.64 581.97 589.73 586.26 590.83 590.58 586.33 590.62 584.57 589.51 579.77 591.27 573.26 596.25 569.99 597.26 568.99 601.94 574.3 603.91 575 607.16 574.55 611.7 571.64 610.7 566.85 612.45 569.28 615.24 569.02 616.79 572.62 620.87 574.09 624.98 579.29 629.31 580.05 632.7 582.97 639.37 582.2 641.77 587.38 644.91 591.58 653.5 590.66 655.15 592.22 658.57 589.1 659.54 585.16 661.51 581 661.73 580.01 658.64 577 660.48 571.27 653.05 564.14 647.42 559.85 651.59 556.41 651.03 549.13 660.65 549.72 665.62 547.78 667.96 547.43 673.96 544.36 675.91 540.27 676.57 531.52 668.37 524.23 665.56 518.9 660.25 515.68 653.95 513.78 646.19 516.45 638.68 522.64 629.87 526.26 628.08 527.47 625.45 526.26 618.93 516.92 612.28 509.12 608.99 503.86 605.91 502.89 606.75 499.87 597.38 499.46 582.73 504.24 573.66 509.55 568.97 513.67 563.27 517.6 554.1 522.91 555.55 522.72 562.63 523.44 567.56 527.7 571.96 533.45 573.49 540.59 571.05 545.12 567.04 544.27 563.03 545.11 559.41 550.82 556.57 556.19 557.12 562.38 560.74 562.75 563.36 Z" id="24050540"/>
<path d="M 684.05 532.95 679.4 539.51 673.29 545.95 662.86 558.11 657.5 559.31 651.35 562.46 648.17 564.99 645.34 568.97 644.31 574.03 644.42 579.25 645.39 582.73 648.17 586.47 654.78 591.43 657.28 596.74 654.57 604.01 652.73 607.48 643.77 613.51 640.34 617.37 637.62 623.42 638.22 627.73 637.3 631.49 637.88 634.19 641.13 636.64 636.75 641.86 630.4 640.55 627.86 641.38 623.36 640.12 619.39 641.75 611.64 641.54 609.84 646.14 609.5 652.66 610.47 654.61 609.64 661.02 603.23 659.91 596.27 663.06 593.84 661.07 589.1 659.54 592.22 658.57 590.66 655.15 591.58 653.5 587.38 644.91 582.2 641.77 582.97 639.37 580.05 632.7 579.29 629.31 574.09 624.98 572.62 620.87 569.02 616.79 569.28 615.24 566.85 612.45 571.64 610.7 574.55 611.7 575 607.16 574.3 603.91 568.99 601.94 569.99 597.26 573.26 596.25 579.77 591.27 584.57 589.51 586.33 590.62 590.83 590.58 596.56 592.69 618.71 595.75 617.66 594 616.65 586.07 615.61 582.73 616.8 576.42 618.55 571.63 621.99 565.02 621.3 561.79 615.9 556.92 614.27 554.64 594.5 537.01 583.32 530.85 588.35 522.03 584.26 522.84 581.25 522.46 578.94 520.75 572.82 521.15 572.3 519.67 574.84 515.11 574.93 511.83 572.63 504.93 576.89 498.82 582.74 498.96 586.23 500.21 592.63 499 594.78 492.02 596.08 489.65 602.53 489.25 602.92 483.38 606.86 483.66 608.31 487.56 607.95 489.56 610.89 493.04 611.73 498.49 613.81 500.9 617.59 502.72 620.46 501.53 624.04 502.45 626.97 500.66 628.7 501.8 626.69 507.47 622.6 511.26 643.88 514.81 642.63 522.89 654.27 525.2 680.05 531.11 684.05 532.95 Z" id="24050513"/>
<path d="M 622.44 356.23 621.63 358.32 621.74 363.15 625.23 387.35 628.07 392.12 623.23 392.68 611.47 391.84 609.95 392.49 609.51 400.25 607.49 418.88 607.12 419.41 606.86 419.07 581.53 416.14 579.28 426.72 577.77 427.46 577.43 432.54 575.48 436.27 575.26 434.47 571.22 434.88 569.88 438.1 561.32 440.01 553.79 434.73 552.39 431.04 555.05 427.14 560.86 421.94 565.79 423.92 574.21 423.35 575.11 417.7 576.61 412.58 582.14 415.52 586.66 395 588.42 388.16 590.87 371.65 598.84 370.23 604.86 368.28 604.32 362.69 606.58 355.04 622.44 356.23 Z" id="24050600"/>
<path d="M 672.94 124.14 673.88 126.19 672.56 129.71 673.95 141.37 674.68 150.82 677.19 160.22 676.66 165.58 677.96 171.89 677.81 175.13 678.74 181.81 676.91 181.79 677.84 188.15 676.84 194.04 676.57 198.04 681.6 204.66 686.16 209.08 690.48 215.46 691.99 218.88 696.7 225.19 704.07 233.22 710.49 239.02 718.13 247.44 724.36 253.47 727.89 257.58 730.71 259.22 734.28 262.79 730.99 265.64 723 257.66 718.13 259.98 710.73 267.02 708.07 270.23 703.94 277.03 702.75 276.28 703.09 275.64 696.29 269.67 689.63 265.66 681.22 263.31 673.14 262.29 669.85 261.03 660.22 255.97 653.12 254.48 644.89 254.5 643.74 251.82 639.91 250.42 637.72 248.27 634.33 247.59 634.67 245.48 627.31 240.85 623.82 242.03 621.26 237.9 624.07 212.66 623.94 200.64 622.52 194.82 617.92 184.85 617.67 181.94 614.71 177.14 615.03 173.08 614.02 170.7 615.93 169.83 618.6 164.6 621.09 163.51 624.48 163.78 625.9 160.41 629.32 158.92 633.66 154.94 637.35 156.31 638.58 157.98 641.71 158.58 645.92 153.27 648.43 151.35 649.07 148.23 651.93 148.19 653.59 149.88 656.41 148.4 664.37 149.92 668.12 144.5 667.87 136.61 665.7 127.61 666.97 124.34 669.59 122.27 672.94 124.14 Z" id="24050515"/>
<path d="M 552.39 431.04 547.2 431.06 543.16 430.33 541.01 428.94 537.81 429.02 536.52 425.69 536.59 422.89 533.53 418.15 528.59 417.79 525.37 412.31 523.09 410.39 519.1 408.87 520.01 402.92 515.1 399.24 515.56 394.84 512.67 390.73 513.51 388.3 511.9 384.77 509.89 384.04 506.67 385.97 503.95 385.81 500.55 387.32 494.91 382.32 491.68 380.18 489.1 376.43 487.32 371.8 483.28 367.74 476.82 366.59 475.38 367.37 469.67 364.19 472.49 359.45 474.08 355.26 474.07 350.16 475.4 348.04 475.59 343.79 477.83 339.56 479.78 337.65 489.4 333.82 499.45 328.61 501.02 327.32 501.86 322.29 499.06 318.47 500.42 317.72 503.3 320.02 507.94 319.48 510.69 316.99 513.34 316.76 520.22 314.28 519.45 302.82 518.62 300.62 518.7 295.99 521.62 294.07 521.21 290.18 517.87 286.82 521.02 279.54 522.13 278.26 511.65 261.68 509.85 255.4 509.83 241.78 502.76 241.48 499.88 240.07 495.59 234.18 494.85 230.01 508.82 221.34 508.55 212.84 510.92 210.93 509.72 207.94 507.5 206.6 501.99 199.14 499.03 196.87 495.65 196.81 490.56 192.82 495.51 191.64 502.51 191.6 513.73 186.41 517.7 187.27 520.82 182.58 520.84 179.92 518.36 173.19 527.78 165.04 530.04 160.84 533.37 157.27 537.06 158.18 541.93 161.62 544.37 164.85 549.16 167.44 551.21 171.2 558.24 176.69 561.83 177.2 564.7 174.95 570.22 175.36 577.96 177.02 580.51 176.72 583.67 171.72 592.01 169.92 592.8 175.98 594.16 180.89 595.67 183.56 598.76 178.98 606.59 175.37 608.04 171.16 614.02 170.7 615.03 173.08 614.71 177.14 617.67 181.94 617.92 184.85 622.52 194.82 623.94 200.64 624.07 212.66 621.26 237.9 623.82 242.03 627.31 240.85 634.67 245.48 634.33 247.59 637.72 248.27 639.91 250.42 643.74 251.82 644.89 254.5 615.47 254.87 613.03 261.01 612.6 263.85 612.45 307.63 610.92 320.13 612.86 331.88 606.21 354.75 606.58 355.04 604.32 362.69 604.86 368.28 598.84 370.23 590.87 371.65 588.42 388.16 586.66 395 582.14 415.52 576.61 412.58 575.11 417.7 574.21 423.35 565.79 423.92 560.86 421.94 555.05 427.14 552.39 431.04 Z" id="24050630"/>
<path d="M 270.98 209.36 274.25 205.8 273.61 198.45 275.54 194.52 280.5 193.04 280.29 188.89 281.94 185.09 282.41 180.38 279.78 176.38 276.73 169.12 274.14 166.98 275.15 163.4 280.08 151.28 279.39 144.59 285.02 141.41 288.02 140.42 292.02 135.83 295.16 129.24 293.06 126.98 295.21 122.11 295.37 119.4 298.2 117.51 298.09 113.53 300.94 107.71 303.64 107.15 303.31 103.91 305.81 100.73 309.2 101.32 313.6 97.2 315.51 90.34 316.75 89.08 318.6 81.83 317.71 78.85 316.67 69.76 317.74 67.59 320.89 65.42 323.96 61.18 323.87 58.87 327.84 52.62 331.67 48.43 334.74 43.32 336.82 41.95 340.43 36.58 341.25 32.42 343.38 31.58 343.93 27.02 347.13 28.3 349.13 31.82 352.18 32.44 355.75 34.8 360.68 36.43 363.7 30.44 366.71 32.94 368.89 32.37 373.09 29.19 375.59 29.75 385.18 25.11 387.39 20.87 389.14 13.6 392.46 12.76 393.15 11.23 401.14 9.23 409.86 11.07 413.83 7.37 416.67 5.89 420.41 2.5 424.41 2.45 429.24 1 432.54 1.72 440.66 10.88 441.45 16.18 442.54 18.2 441.81 25.09 439.69 28.09 435.93 30.8 436.09 32.79 433.24 36.45 433.26 43.45 431.06 51.78 425.67 59.81 422.39 61.72 416.02 68.87 411.71 70.22 411.06 73.8 408.87 76.69 410.19 79.72 408.33 86.93 407.09 94.23 405.18 98.4 407.53 106.24 410.36 110.7 417 113.56 424.82 114.24 429.04 112.5 432.67 113.88 435.9 114.02 442.96 118.35 446.17 117.72 451.79 118.79 454.45 121.45 458.67 121.9 459.13 119.52 465.97 117.71 470.68 125.25 477.85 128.16 484.69 127.95 488.21 132.32 491.11 138.01 494.52 142.03 502.53 150.07 507.85 154.11 509.51 153.33 518.01 156.77 526.28 158.32 530.04 160.84 527.78 165.04 518.36 173.19 520.84 179.92 520.82 182.58 517.7 187.27 513.73 186.41 502.51 191.6 495.51 191.64 490.56 192.82 495.65 196.81 499.03 196.87 501.99 199.14 507.5 206.6 509.72 207.94 510.92 210.93 508.55 212.84 508.82 221.34 494.85 230.01 495.59 234.18 499.88 240.07 502.76 241.48 509.83 241.78 509.85 255.4 511.65 261.68 522.13 278.26 521.02 279.54 517.87 286.82 521.21 290.18 521.62 294.07 518.7 295.99 518.62 300.62 519.45 302.82 520.22 314.28 513.34 316.76 510.69 316.99 507.94 319.48 503.3 320.02 500.42 317.72 499.06 318.47 501.86 322.29 501.02 327.32 499.45 328.61 489.4 333.82 479.78 337.65 477.83 339.56 475.59 343.79 475.4 348.04 474.07 350.16 474.08 355.26 472.49 359.45 469.67 364.19 467 366.67 467.22 368.6 463.36 370.4 459.53 378.46 457.79 379.96 456.87 385.62 453.98 387.45 452.09 386.63 446.39 380.26 442.09 373.51 441 368.47 437.37 367.26 433.05 362.81 428.21 362.69 425.5 363.59 423.48 362.43 420.1 362.55 418.1 361.02 412.09 359.23 410.35 357.95 406.89 350.09 401.9 345.93 401.33 344.31 396.06 342.72 397.16 338.92 396.55 334.19 393.95 330.34 393.84 325.31 395.61 315.91 398.23 308.82 400.86 304.86 405.21 300.36 415.04 292.47 420.25 288.95 426.51 286.92 431.04 282.56 430.98 280.41 426.67 271.72 424.67 269.48 419.88 268.04 416.64 265.84 417.95 255.86 417.79 253.97 417.69 252.31 417.75 245.89 414.05 239.83 404.53 230.21 396.57 223.67 391.12 220.52 379.56 228.94 373.47 231.81 371.14 233.72 368.07 238.66 362.83 237.63 358.5 229.55 355.65 227.45 351.3 227.02 349.72 225.57 345.84 225.75 342.91 224.19 341.87 225.91 336.02 223.85 333.17 227.26 329.19 230.69 328.81 232.92 325.66 233.16 320.04 232 313.86 232.16 306.35 238.31 302.61 242.37 297.91 248.74 294.64 244.88 290.9 242.17 287.67 237.64 283.61 235.61 278.62 227.89 278.33 222.99 276.07 220.79 270.06 219.05 270.98 209.36 Z" id="24050518"/>
<path d="M 705.45 136.51 708.8 142.76 710.14 142.93 716.54 158.09 717 158.35 729.51 154.17 741.28 149.52 745.56 160.12 746.66 167.24 772.02 167.42 771.9 184.95 778.83 185.35 783.84 186.21 784.69 189.26 778.81 187.78 731.97 187.45 730.4 184.09 722.34 184.05 722.33 184.95 710.9 185.49 693.66 196.43 690.77 197.14 683.53 195.64 680.74 193.98 676.84 194.04 677.84 188.15 676.91 181.79 678.74 181.81 677.81 175.13 677.96 171.89 676.66 165.58 677.19 160.22 674.68 150.82 673.95 141.37 672.56 129.71 673.88 126.19 672.94 124.14 679.21 126.63 686.25 128.82 692.62 133.18 698.87 138.26 705.45 136.51 Z" id="24050690"/>
<path d="M 716.01 368.6 714.88 371.42 715.02 379.36 713.73 390.24 714.6 394.73 713.66 397.94 709.15 401.09 701.08 402 696.66 401.97 688.81 404.35 682.9 408.54 678.65 410.4 668.29 420.18 665.87 425.7 665.89 434.2 668.54 440.41 671.75 444.48 670.21 452.69 668.59 456.24 666.61 449.73 664.27 447.35 660.66 445.51 659.24 443.23 660.56 438.21 657.46 434.15 653.56 426.97 653.43 425.48 655.97 420.79 652.99 418.81 652.07 415.95 642.7 413.07 641.9 410.76 636.46 404.19 634.32 403.89 630.16 399.96 630.14 394.35 628.07 392.12 625.23 387.35 621.74 363.15 621.63 358.32 622.44 356.23 642.64 357.98 658.26 359.13 679.56 360.63 686.42 362.48 694.52 363.32 700.32 365.42 701.86 364.56 716.01 368.6 Z" id="24050710"/>
<path d="M 768.75 279.54 770.86 281.52 775.38 283.71 780.72 283.92 791.8 289.35 795.14 295.61 796.3 301.76 794.45 310.38 795.64 319.94 798.79 328.12 799 330.91 792.71 342.29 786.76 346.19 782.79 347.5 775.57 345.77 772.52 345.65 767.64 348.43 765.79 351.17 765.41 354.61 763.65 357.38 758 358.51 749.76 358.41 745.88 355.17 741.11 346.55 728.44 348.28 728.63 345.79 730.62 341.38 730.05 332.69 721.55 332.3 721.42 329.4 713.32 329.42 713.04 326.22 713.14 309.24 699.33 309.12 694.16 309.53 694.1 304.86 696.23 292.76 699.45 283.19 702.75 276.28 703.94 277.03 708.07 270.23 710.73 267.02 718.13 259.98 723 257.66 730.99 265.64 734.28 262.79 736.02 262.22 733.46 257.35 738.15 254.16 743.76 256.15 745.2 260.81 747.15 264.3 748.08 273.97 750.66 272.73 757.13 279.93 761.81 280.64 764.74 279.94 766.93 281.96 768.75 279.54 Z" id="24050521"/>
<path d="M 644.89 254.5 653.12 254.48 660.22 255.97 669.85 261.03 673.14 262.29 681.22 263.31 689.63 265.66 696.29 269.67 703.09 275.64 702.75 276.28 699.45 283.19 696.23 292.76 694.1 304.86 694.16 309.53 695.06 329.76 688.11 328.72 682.43 328.6 682.09 333.91 680.87 334.28 664.61 342.68 661.27 343.78 658.58 352.49 658.26 359.13 642.64 357.98 622.44 356.23 606.58 355.04 606.21 354.75 612.86 331.88 610.92 320.13 612.45 307.63 612.6 263.85 613.03 261.01 615.47 254.87 644.89 254.5 Z" id="24050517"/>
<path d="M 728.44 348.28 720.28 358.94 718.71 363.51 716.01 368.6 701.86 364.56 700.32 365.42 694.52 363.32 686.42 362.48 679.56 360.63 658.26 359.13 658.58 352.49 661.27 343.78 664.61 342.68 680.87 334.28 682.09 333.91 682.43 328.6 688.11 328.72 695.06 329.76 694.16 309.53 699.33 309.12 713.14 309.24 713.04 326.22 713.32 329.42 721.42 329.4 721.55 332.3 730.05 332.69 730.62 341.38 728.63 345.79 728.44 348.28 Z" id="24050740"/>
</g>
</svg>