<?xml version="1.0"?>
<svg xmlns="http://www.w3.org/2000/svg" version="1.2" baseProfile="tiny" width="800" height="1004" viewBox="0 0 800 1004" stroke-linecap="round" stroke-linejoin="round">
<g id="dong">
<path d="M 537.63 494.1 536.61 502.23 534.65 505.24 534.57 509.81 533.29 512.32 530.21 522.18 528.58 525.67 524.63 529.07 524.07 530.2 520.47 530.23 515.98 529.75 513.78 527.94 507.9 524.76 505.82 527.51 504.3 530.92 501.34 533.23 498.99 531.9 496.6 533.1 497.37 530.47 498.52 529.38 499.73 524.59 501.5 520.07 503.36 516.18 511.39 505.74 515.36 501.08 515.52 500.07 518.79 496.32 525.27 492.47 528.76 489.75 531.85 489.97 537.63 494.1 Z" id="25010600"/>
<path d="M 515.52 500.07 515.36 501.08 511.39 505.74 503.36 516.18 501.5 520.07 499.38 518.82 498.8 516.66 494.13 513.89 489.02 513.33 488.04 510.12 485.69 505.99 487.75 502.33 489.92 505.96 492.28 504.04 490.33 500.66 491.1 500.21 491.56 496.94 491.45 492.86 490.68 486.64 488.74 486.59 489.17 479.25 488.06 476.72 497.98 472.35 499.96 471.88 509.07 489.23 515.52 500.07 Z" id="25010630"/>
<path d="M 228.37 372.01 227.46 376.09 228.09 377.41 224.25 388.32 222.85 392.85 221.19 392.98 219.81 396.23 219.02 402.98 218.01 403.7 217.37 408.66 216.98 416.68 219.02 419.34 215.5 420.14 215.29 423.61 211.41 424.05 207.38 426.11 206.45 429.19 204.03 433.01 200.54 434.93 197.06 438.64 194.05 436.57 187.7 440.64 185.27 441.15 182.65 439.02 180.43 439.97 176.41 438.29 173.91 438.15 169.72 436.33 166.03 437.43 160.35 435.37 161.28 430.08 162.63 427.83 161.18 426.8 160.95 424.39 155.77 421.62 152.56 420.82 151.67 422.75 148.94 423.56 148.57 427 147.05 429.39 145.21 429.63 146.45 435.7 148.67 439.26 148.7 442.65 147.25 442.26 146.02 439.83 144.7 439.12 138.22 439.66 133.67 441.97 129.7 446.71 127.97 449.75 124.02 451.77 123.3 453.06 118.08 455.13 116.29 454.97 109.91 458.19 106.93 458.93 104.77 457.85 99.37 460.72 97.61 463.7 94.26 463.67 91.13 466.55 91.04 467.96 89.34 469.07 86.71 473.21 85.54 476.83 80.29 479.51 79.09 476.67 72.6 469.64 71.12 467.43 67.74 465.08 66.27 463.39 66.52 460.4 62.87 452.98 62.2 448.95 62.59 443.72 61.89 441.13 64.93 439.75 66.03 436.56 75.46 431.73 79.61 428.09 78.31 422.65 77.98 418.35 80.29 416.68 83.85 415.11 83.54 411.17 84.54 407.16 85.18 406.51 86.87 399.9 88.1 397.83 86.91 395.47 87.27 391.65 86.63 389.86 86.2 385.73 82.94 383.07 82.48 381.91 82.85 375.13 87.61 375.36 92.04 373.7 93.16 372.56 95.34 372.59 99.13 374.81 103.17 374.29 105.66 375.49 106.71 377.09 110.22 378.38 115.55 376.14 118.59 376.02 119.21 377.16 123.22 378.41 128.59 376.47 131.75 380.71 134.91 379.64 135.57 383.04 134.28 385.8 137.33 391.7 137.38 394.72 138.82 396.74 143.31 398.2 145.23 399.65 144.74 404.55 148.39 405.89 151.24 404.29 155.62 404.16 158.53 402.66 161.85 402.06 162.6 403.83 161.79 405.83 163.74 408.21 168.9 405.12 171.78 405 173.3 405.65 176 405.44 174.95 403.3 174.58 398.41 173.72 396.18 174.98 395.36 174.42 393.62 193.7 393.62 199.45 391.44 201.26 389.5 206.56 379.16 208.21 379.14 209.07 376.02 211.34 374.14 211.43 370.07 213.64 368.71 216.53 367.68 218.99 367.99 220.93 369.46 221.56 366.77 224.56 369.86 228.37 372.01 Z" id="25040590"/>
<path d="M 424.97 241.98 428.66 246.74 435.97 257.91 439.83 266.14 441.6 268.83 442.97 273.92 443 277.1 441.41 281.47 435.79 293.17 433.23 290.41 431.72 285.56 431.96 284.32 429.49 283.31 428.82 284.73 420.59 279.89 419.86 281.67 421.48 283.15 421.27 285.81 416.74 285.93 416.19 283.75 414.82 282.7 413.53 285.89 407.85 288.14 404.99 288.17 401.75 292.53 399.82 292.46 397.23 291.37 393.13 291.66 388.91 292.62 386.38 290.96 383.74 291.74 376.77 289.39 375.28 289.79 372.3 283.28 359.67 279.49 361.37 285.2 360.04 288 359.92 290 357.1 289.48 354.53 289 351.96 289.84 350.19 289.52 350.47 286.67 345.36 283.51 346.09 279.24 347.39 276.84 342.27 272.8 342.16 270.54 343.18 268.3 339.94 266.46 338.96 265.16 333.62 262.87 338.18 259.35 342.26 253.31 342.9 249.33 344.93 250.04 349.77 243.64 362.27 210.61 363.82 208.64 369.99 203.34 371.4 204.31 372.46 201.27 375.3 199.19 376.66 199.02 377.78 202.97 381.55 208.28 388.02 214.16 391.73 218.77 396.08 222.8 398.01 225.15 403.1 227.23 405.62 228.81 409.26 231.92 411.06 234.67 415.53 237.92 420.45 239.61 424.97 241.98 Z" id="25040630"/>
<path d="M 387.38 594.05 382.64 595.58 373.86 598.47 371.24 589.42 365.21 592.19 361.86 592.01 359.59 593.1 358.08 588.67 357.91 583.97 370.65 579.96 374.99 565.93 378.7 564.66 387.38 594.05 Z" id="25020650"/>
<path d="M 626.71 191.95 619.89 208.55 620.43 213.91 623.95 223.05 629.27 234.8 634.11 241.81 635.25 244.65 637.42 251.99 638.55 254.68 638.97 263.89 639.83 267.72 645.01 275.14 646.17 277.45 650.49 288.84 657.96 290.21 667.09 289.97 670.76 288.84 674.61 283.49 676.13 277.45 681.02 255.03 683.32 245.02 687.48 244.95 691.21 248.32 691.42 249.14 694.92 252.08 697.15 253.24 697.73 251.28 699.76 247.75 703.23 246.74 705.54 242.91 707.3 241.86 709.57 242.8 710.1 244.12 712.66 246.57 712.45 249.19 718.29 249.31 719.76 253.28 721.31 255.09 723.21 255.37 728.57 254.76 731.86 255.1 735.12 254.66 736.28 255.85 739.24 254.26 739.59 252.56 741.55 251.31 742.73 252.12 747.41 250.54 754.22 254.72 753.16 266.07 755.91 277.45 762.81 287.71 765.55 287.84 770.26 291.04 774.4 293.01 778.51 298.14 782.41 311.6 787.12 315.09 792.42 316.82 796.68 315.82 799 320.98 797.68 322.25 793.28 323.89 792.77 325.35 787.32 330.62 783.77 331.35 781.08 330.49 777.81 331.2 777.1 330.61 774.39 325.38 770.68 324.88 766.35 326.83 764.39 326.54 760.71 327.7 758.03 327.9 756.75 325.04 751.92 324.49 749.32 324.72 748.35 322.76 746.65 324.52 742.27 331.63 736.81 332.95 733.34 335.88 732.11 341.79 727.9 344.44 725.34 343.24 723.63 344.04 721 347.07 721.88 349.4 719.11 350.45 715.27 354.8 712.39 355.88 710.51 355.3 709.63 358.63 712.16 362.51 710.25 367.01 710.99 372.25 710.73 374.5 711.8 377.54 711.62 379.94 713.11 382.27 712.38 383.27 712.8 386.76 710.56 390.19 710.86 394.98 713.07 398 713.43 402.46 713.27 406.66 715.01 410.36 713.86 413.82 713.53 416.85 710.95 418.76 710.59 421.66 708.73 423.51 709.59 424.48 710.71 430.72 709.48 432.55 709.26 435.56 709.75 437.49 707.52 440.92 707.78 442.05 706.1 443.73 705.58 446.87 703.53 448.9 706.35 453.74 704.6 460.13 702.6 461.97 699.66 469.3 696.94 472.72 695.21 473.06 692.73 474.7 691.2 476.82 692.52 479.71 691.65 480.13 687.79 478.05 685.55 480.89 684.01 481.7 681.51 481.47 679.83 482.7 678.1 486.2 674.57 485.7 673.85 484.61 670.91 484.13 666.59 485.72 666.5 488.56 667.85 490.25 668.21 495.33 664.82 496.71 664.26 497.74 659.2 499.07 660.1 502.47 653.2 504.41 651.07 505.44 649.08 507.9 649.06 512.71 651.71 517.57 650.48 521.96 651.04 524.41 650.11 528 652.17 531.58 651.41 534.95 652.14 536.65 652.02 540.47 653.46 544.12 653.01 545.12 655.17 548.64 655.44 551.06 651.83 559.86 650.34 560.69 647.89 566.41 637.69 569.26 639.98 570.63 640.35 575.35 642.48 580.19 642.13 582.52 640.21 585.18 640.19 586.58 638.26 588.97 637.35 591.12 633.79 592.36 633.02 593.85 635.56 595.16 638.35 598.47 638.93 601.67 640.73 605.18 643.55 607 643.69 609.34 645.06 610.67 645.59 614.1 644.37 616.42 642.68 617.29 642.43 620.52 641.12 627.07 638.53 630.33 638.13 633.91 634.98 629.59 633.34 628.79 628.9 632.26 622.44 630.45 619.4 627.31 618.52 627.32 613.5 631.37 609.64 630.52 607.3 632.54 604.73 631.21 601.66 632.07 599.12 631.43 597.69 630.1 596.16 628.4 595.62 625.54 596.81 617.04 598.69 612.34 598.23 608.98 600.31 607.1 598.76 603.88 599.32 602.34 598.88 599.95 599.4 598.04 598.75 596.34 603.13 593.43 601.58 589.71 602.54 588.12 604.14 582.04 602.66 579.42 602.08 576.41 600.02 574.06 600.03 571.36 598.71 568.9 598.3 566.11 596.7 562.07 596.48 555.95 598.32 551.87 596.19 550.11 597.76 544.41 600.03 540.41 598.34 539.96 600.34 536.29 599.95 532.87 600.45 531.22 599.45 527.92 599.45 525.34 600.34 523.99 598.96 521.88 594.99 523.5 593.32 525.87 584.84 533.42 581.3 536.96 572.47 534.67 571.97 531.39 572.72 528.9 576.26 523.25 575.81 518.1 571.66 517.24 570.61 511.52 565.77 507.4 567.32 497.82 565.12 495.65 563.38 496.13 559.98 493.46 557.68 490.18 558.19 488.02 557.8 485.93 555.99 483.79 556.67 480.44 555.55 476.6 556.35 473.66 555.75 472.05 558.19 469.66 557 463.63 557.21 458.39 559.32 453.24 559.26 451.72 560.82 448.89 559.98 446.28 560.62 440.46 555.07 438.3 553.7 436.72 552.12 430.69 549.83 427.61 547.14 421.55 546.77 419.28 545.11 417.91 545.08 416.41 543.53 414.59 540.83 414.48 539.46 412.12 537.89 403.49 534.04 398.87 534.17 396.45 532.21 394.05 530.39 392.78 530.31 389.51 527.36 388.39 524.66 384.38 523.29 382.19 522.38 376.74 524.65 374.36 527.73 368.94 526.98 367.35 527.75 364.19 531.61 358.55 531.18 354.61 532.71 351.96 529.83 348.17 530.42 345.95 529.79 344.53 530.15 341.02 529.84 334.9 530.9 329.45 532.9 322.42 532.39 320.69 532.64 316.65 534.11 313.84 536.58 312.04 538.5 308.96 538.35 307 540.03 305.08 545.05 302.53 546.79 302.26 551.45 295.93 554.9 294.72 556.89 292.45 561.08 289.78 563.87 285.26 565.32 285.48 566.49 282.01 571.09 276.51 576.71 268.31 577.25 265.77 579.09 263.82 581.45 260.31 578.64 256.4 580.09 254.51 585.17 256.55 586.98 250.24 589.9 246.64 590.3 243.65 594.3 236.16 594.53 233.72 595.81 232.77 598.18 228.17 597.48 226.67 597.8 223.11 599.19 219.63 600.21 218.67 601.77 215.26 605.42 210.61 605.7 209.21 608.6 205.02 614.56 194.77 616.19 193.26 617.58 193.82 619.98 192.69 622.23 190.61 626.71 191.95 Z" id="25010730"/>
<path d="M 566.72 619.79 569.93 624.2 572.38 623.82 576.35 626.15 578.02 626.28 580.85 628.09 585.77 632 590.52 633.23 596.13 633.01 597.69 630.1 599.12 631.43 601.66 632.07 604.73 631.21 607.3 632.54 609.64 630.52 613.5 631.37 618.52 627.32 619.4 627.31 622.44 630.45 628.9 632.26 626.87 634.33 626.4 640.23 625.86 642.89 627.51 644.25 629.68 647.89 629.93 649.44 633.29 655.91 636 662.32 637.13 663.28 636.74 665.1 637.68 670.61 642.42 674.54 642.91 680.36 645.98 685.43 645.16 686.98 644.84 691.01 641.72 694.08 640.41 697.63 636.77 700.56 630.76 706.9 629.84 709.55 626.45 711.95 625.63 713.68 622.04 716.14 620 718.33 621.6 724.97 623.9 732.01 622.93 733.97 619 735.68 617.42 741.72 616.87 747.85 616.05 748.29 615.4 751.63 613.86 752.67 613.26 754.56 614.31 756.47 613.44 759.36 613.97 760.97 616.38 762.4 617.55 764.24 620.69 763.66 622.76 764.81 623.39 766.87 622.17 771.27 622.57 774.09 624.45 777.31 623 778.03 619.77 781.9 617.4 785.52 620.43 794.03 619.86 797.81 621.67 799.36 622.11 802.63 624.32 805.82 628.12 805.27 629.56 807.75 630.58 811.91 629.48 813.99 631.91 818.21 631.73 821.49 630.48 823.2 630.33 828.04 630.24 830.03 627.5 829.55 623.68 830.79 622.2 835.1 623.86 838.66 623.73 842.2 620.97 843.44 619.91 845.21 616.89 844.21 613.07 847.07 611.81 847.1 607.35 852.15 602.69 852 597.13 852.94 592.81 854.39 593.68 858.72 593.18 863.24 590.24 865.99 588.8 865.71 585.03 867.91 584.1 869.35 579.26 870.38 578.08 869.81 575.35 870.53 573.73 873.95 571.14 874.23 567.5 875.46 565.93 877.65 565.97 879.95 567.19 881 566.35 884.03 566.44 889.46 567.24 891.15 567.36 894.36 571.41 897.64 571.98 900.05 570.18 902.23 563.14 903.86 560.98 902.98 556.93 904 556.55 904.89 553.71 905.05 549.78 907.48 548.12 907.51 547.25 912.71 545.31 916 545.5 917.54 541.43 920.28 539.98 920.61 535.22 923 532.54 926.28 532.37 927.58 535.94 933.98 538.28 937 537.32 940.98 537.02 944.93 534.28 945.91 530.6 948.45 527.79 949.86 526.73 952.26 523.85 952.17 521.73 955.64 519.47 956.84 518.76 958.79 515.19 959.44 511.43 961.14 510.34 962.43 508.4 962.6 505.94 965.07 503.95 965.03 499.31 965 498.4 959.28 494.96 957.08 491.86 957.57 489.48 955.7 488.09 953.27 486.51 953.78 484.34 952.97 482.72 953.7 479.88 953.12 478.28 948.28 476.63 944.82 473.82 941.93 473.12 935.62 471.82 935.31 469.15 932.23 465.41 932.51 461.7 929.97 459.42 930.37 458.05 929.64 454.52 929.31 452.13 925.72 451.11 923.28 454.18 917.92 456.1 916.89 460.8 912.04 458.99 907.77 454.82 904.81 457.02 902.19 458.25 897.59 460.26 895.12 459.82 892.59 461.96 890.38 460.81 889.45 460.66 886.47 458.71 880.57 460.52 878.3 458.96 871.59 459.32 868.86 455.28 866.3 455.21 861.22 457.06 859.19 460.21 857.01 462.22 856.6 466.27 857.59 469.5 860.29 473.36 862.77 477.17 862.1 480.22 860.8 481.09 856.11 483.72 854.13 489.92 846.41 490.4 845.02 489.29 837.87 490.29 834.35 490.02 832.89 492.6 831.27 498.99 829 500.63 829.68 501.86 827.73 504.16 826.66 501.7 825.03 500.4 821.68 501.74 816.97 501.81 813.86 500.53 811.19 501.36 808.17 496.68 807.27 493.52 804.11 490.41 798.94 490.3 797.05 488.75 793.21 484.92 791 483.63 791.14 483.15 785.93 484.69 782.09 479.08 778.14 476.61 777.93 473.24 778.54 469.78 778.48 462.49 776.63 465.13 774.35 464.17 772.88 464.23 769.9 466.02 770.1 469.59 768.64 469.04 761.09 468.05 760.37 468.18 754.34 471.14 753.9 477.26 745.65 477.69 743.83 479.15 742.35 485.83 738.32 488.42 735.53 490.94 734.37 490.78 731.5 494.23 726.67 493.66 724.59 490.91 721.81 489.72 719.63 489.6 717.06 487.63 715.89 487.61 713.42 486.81 711.7 483.53 711.1 479.06 709.71 477.97 703.56 475.42 699.29 475.62 698.17 479.72 695.12 483.44 690.68 481.9 688.24 478 687.03 473.71 681.8 472.1 680.93 471.75 675.9 469.16 672.25 467.15 672.06 464.97 670.82 462.7 668.61 462.23 666.25 462.87 661.21 463.94 658.21 465.6 657.82 469.66 660.05 472.81 660.33 476.35 661.78 480.42 660.42 481.67 657.32 484.87 655.34 487.98 656.5 489.43 655.85 492.33 652 492.06 651.42 497.08 647.97 498.17 643.13 500.99 645.68 503.21 646.68 510.11 644.31 511.24 642.9 513.65 645.07 513.87 649.23 513.33 651.14 515.63 654.95 515.92 657.73 517.94 657.75 519.37 655.92 520.37 653.3 523.19 652.07 528.02 653.54 530.46 653.11 534.07 653.34 536.53 655.51 539.76 651.14 542.01 655.07 543.32 653.12 541.47 652.32 539.08 647.58 538.49 645.22 538.48 641.74 536.69 638.18 535.82 630.63 534.59 628.38 537.33 627.19 535.27 624.72 542.54 618.4 543.42 620.89 545.67 619.57 546.87 621.97 550.84 621.33 555.21 622.35 556.36 623.5 560.25 621.32 562.38 619.35 566.72 619.79 Z" id="25010750"/>
<path d="M 501.5 520.07 499.73 524.59 498.52 529.38 497.37 530.47 496.6 533.1 496.37 534.87 492.77 540.31 494.65 543.43 490.53 545.18 488.07 546.67 489.82 553.52 485.41 555.53 482.26 548.27 475.78 551.43 471.27 544.93 466.68 537.94 461.75 533.59 457.42 529.12 465.03 524.44 472.98 518.2 475.48 516.8 477.87 518.33 478.98 520.91 481.39 520.57 485.11 515.69 489.02 513.33 494.13 513.89 498.8 516.66 499.38 518.82 501.5 520.07 Z" id="25010760"/>
<path d="M 489.82 553.52 490.98 555.46 493.03 554.63 492.39 550.41 496.43 549.8 497.78 551.17 501.41 549.45 502.73 551.61 506.4 550.08 509.38 556.58 511.34 558.5 512.55 557.4 514.55 559.51 513.31 560.63 515.3 562.84 517.12 563.81 514.68 568.3 513.01 569.08 517.89 571.82 515.38 571.41 510.56 570.8 506.09 573.96 504.54 573.94 497.95 571.99 494.99 573.35 492.7 573.34 488.75 574.53 487.09 569.96 483.6 564.5 481.51 562.05 477.88 554.97 475.78 551.43 482.26 548.27 485.41 555.53 489.82 553.52 Z" id="25010770"/>
<path d="M 524.07 530.2 525.65 532.89 524.19 538.08 521.95 540.24 521.34 542.3 518.28 544.6 517.98 545.57 514.8 544.18 513.33 544.83 513.78 550.43 517.04 553.2 513.57 556.46 512.55 557.4 511.34 558.5 509.38 556.58 506.4 550.08 502.73 551.61 501.41 549.45 497.78 551.17 496.43 549.8 492.39 550.41 493.03 554.63 490.98 555.46 489.82 553.52 488.07 546.67 490.53 545.18 494.65 543.43 492.77 540.31 496.37 534.87 496.6 533.1 498.99 531.9 501.34 533.23 504.3 530.92 505.82 527.51 507.9 524.76 513.78 527.94 515.98 529.75 520.47 530.23 524.07 530.2 Z" id="25010780"/>
<path d="M 488.04 510.12 484.51 512.05 483.52 510.04 480.45 507 480.14 505 477.64 502.69 472.52 501.95 472.09 504.16 470.93 505.19 472.97 508.93 471.26 511.32 468.02 505.88 463.44 501.01 459.46 498.38 451.59 495.08 457.26 494.94 459.17 495.54 462.6 494.49 473.78 483.04 488.06 476.72 489.17 479.25 488.74 486.59 490.68 486.64 491.45 492.86 491.56 496.94 491.1 500.21 490.33 500.66 492.28 504.04 489.92 505.96 487.75 502.33 485.69 505.99 488.04 510.12 Z" id="25010790"/>
<path d="M 488.04 510.12 489.02 513.33 485.11 515.69 481.39 520.57 478.98 520.91 477.87 518.33 475.48 516.8 472.98 518.2 465.03 524.44 457.42 529.12 455.58 527.9 453.74 522.31 451.29 519.17 445.31 514.54 442.66 510.04 436.58 508.48 432.95 506.49 430.52 503.76 427.09 494.35 435.58 491.98 439.51 491.73 446.19 492.88 451.59 495.08 459.46 498.38 463.44 501.01 468.02 505.88 471.26 511.32 472.97 508.93 470.93 505.19 472.09 504.16 472.52 501.95 477.64 502.69 480.14 505 480.45 507 483.52 510.04 484.51 512.05 488.04 510.12 Z" id="25010800"/>
<path d="M 426.31 523.69 434.29 516.52 437.88 512.93 432.65 511.6 431.85 509.58 432.95 506.49 436.58 508.48 442.66 510.04 445.31 514.54 451.29 519.17 453.74 522.31 455.58 527.9 457.42 529.12 461.75 533.59 466.68 537.94 471.27 544.93 461.72 549.21 458.44 542.36 447.44 547.46 448.23 549.35 445.28 551.75 439.51 557.4 434.93 560.21 430.81 560.7 430.42 557.95 432.38 556.91 428.74 551.03 427.14 552.14 425.09 549.86 425.06 548.72 427.83 547.15 427.58 545.97 428.03 543.11 426.78 540.68 427.08 536.08 428.09 532.75 430.22 532.63 430.79 529.35 431.64 528.25 426.31 523.69 Z" id="25020510"/>
<path d="M 471.27 544.93 475.78 551.43 477.88 554.97 476.16 555.78 477.42 558.27 472.99 560.2 471.66 556.82 470.52 557.2 472.28 562.24 473.59 563.66 473.57 565.97 472.25 569.05 472.28 570.01 461.54 575.05 459.72 575.05 458.1 576.21 454.34 575.11 450.5 576.28 447.98 576.49 446.54 577.9 442.68 578.01 439.97 577.1 437.82 575.19 438.96 566.03 438.79 562.87 434.82 562.77 434.93 560.21 439.51 557.4 445.28 551.75 448.23 549.35 447.44 547.46 458.44 542.36 461.72 549.21 471.27 544.93 Z" id="25020550"/>
<path d="M 534.59 628.38 535.82 630.63 536.69 638.18 538.48 641.74 538.49 645.22 539.08 647.58 541.47 652.32 543.32 653.12 542.01 655.07 539.76 651.14 536.53 655.51 534.07 653.34 530.46 653.11 528.02 653.54 523.19 652.07 520.37 653.3 519.37 655.92 517.94 657.75 515.92 657.73 515.63 654.95 513.33 651.14 513.87 649.23 513.65 645.07 511.24 642.9 510.11 644.31 503.21 646.68 500.99 645.68 498.17 643.13 497.08 647.97 492.06 651.42 492.33 652 489.43 655.85 487.98 656.5 484.87 655.34 481.67 657.32 480.42 660.42 476.35 661.78 472.81 660.33 469.66 660.05 465.6 657.82 463.94 658.21 459.08 656.66 457.61 653.67 457.56 650.14 455.94 648.24 453.11 647.78 451.04 645.4 449.86 645.26 449.8 643.09 451.92 637.03 453.63 637.31 456.88 635.23 458.6 633.57 459.33 630.85 461.46 629.91 465.6 629.96 464.58 628.28 464.19 624.89 465.96 623.51 468.19 620.49 471.19 618.17 472.1 616.26 475.16 613.12 476.58 610.72 477.76 610.7 482.73 608.32 483.88 606.83 485.74 601.53 488.33 603.18 491.84 597.43 494.83 592.49 495.42 592.68 496 593.74 501.2 596.64 504.45 597.79 510.63 598.52 514.25 600.45 516.35 602.89 516.92 608.71 519.74 612.23 523.39 617.78 524.47 620.61 529.32 625.54 534.59 628.38 Z" id="25020570"/>
<path d="M 472.28 570.01 473.38 571.64 470.63 574 462.84 577.88 463.99 580 462.99 582.94 463.11 586.27 465 588.39 464.81 595.89 461.31 596.66 462.43 599.9 461.56 603.83 458.49 605.88 458.3 609.41 458.92 611.37 462.17 618.14 462.27 620.59 464.19 624.89 464.58 628.28 465.6 629.96 461.46 629.91 459.33 630.85 458.6 633.57 456.88 635.23 453.63 637.31 451.92 637.03 449.49 630.07 446.51 628.49 445.29 626.28 440.53 624.94 439.4 624.07 435.94 623.66 435.5 621.72 436.16 618.26 434.71 611.14 435.76 608.73 436.06 604.27 434.25 601.5 435.66 599.4 436.5 595.64 437.71 594.55 437.5 592.74 439.51 590.14 438.2 588.75 432.84 584.77 428.51 583.25 428.55 579.61 427.88 577.08 430.25 575.04 430.82 569.55 432.7 569.69 433.73 568.47 432.25 566.94 434.82 562.77 438.79 562.87 438.96 566.03 437.82 575.19 439.97 577.1 442.68 578.01 446.54 577.9 447.98 576.49 450.5 576.28 454.34 575.11 458.1 576.21 459.72 575.05 461.54 575.05 472.28 570.01 Z" id="25020580"/>
<path d="M 382.64 595.58 384.94 603.47 382.79 604.65 382.36 606.14 380.02 607.19 379.27 608.58 382.51 613.48 384.92 612.2 384.4 619.38 389.22 620.51 391.54 623.82 394.47 625.85 397.96 623.95 401.27 623.68 401.19 627.22 402.66 629.31 405.22 630.29 406.97 627.77 411.37 627.91 416.01 623.98 421.51 626.61 423.61 629.12 427.02 630.92 432.24 635.17 434.9 635.49 435.31 637.78 438.07 642.54 438.77 645.98 440.42 647.98 442.19 646.02 446.62 646.39 449.86 645.26 451.04 645.4 453.11 647.78 455.94 648.24 457.56 650.14 457.61 653.67 459.08 656.66 463.94 658.21 462.87 661.21 462.23 666.25 462.7 668.61 464.97 670.82 467.15 672.06 469.16 672.25 471.75 675.9 472.1 680.93 473.71 681.8 478 687.03 481.9 688.24 483.44 690.68 479.72 695.12 475.62 698.17 475.42 699.29 477.97 703.56 479.06 709.71 483.53 711.1 486.81 711.7 487.61 713.42 487.63 715.89 489.6 717.06 489.72 719.63 490.91 721.81 493.66 724.59 494.23 726.67 490.78 731.5 490.94 734.37 488.42 735.53 485.83 738.32 479.15 742.35 477.69 743.83 477.26 745.65 471.14 753.9 468.18 754.34 468.05 760.37 469.04 761.09 469.59 768.64 466.02 770.1 464.23 769.9 464.17 772.88 465.13 774.35 462.49 776.63 469.78 778.48 473.24 778.54 476.61 777.93 479.08 778.14 484.69 782.09 483.15 785.93 483.63 791.14 484.92 791 488.75 793.21 490.3 797.05 490.41 798.94 493.52 804.11 496.68 807.27 501.36 808.17 500.53 811.19 501.81 813.86 501.74 816.97 500.4 821.68 501.7 825.03 504.16 826.66 501.86 827.73 500.63 829.68 498.99 829 492.6 831.27 490.02 832.89 490.29 834.35 489.29 837.87 490.4 845.02 489.92 846.41 483.72 854.13 481.09 856.11 480.22 860.8 477.17 862.1 473.36 862.77 469.5 860.29 466.27 857.59 462.22 856.6 460.21 857.01 457.06 859.19 455.21 861.22 455.28 866.3 459.32 868.86 458.96 871.59 460.52 878.3 458.71 880.57 460.66 886.47 460.81 889.45 461.96 890.38 459.82 892.59 460.26 895.12 458.25 897.59 457.02 902.19 454.82 904.81 458.99 907.77 460.8 912.04 456.1 916.89 454.18 917.92 451.11 923.28 445.88 923.67 444.02 926.27 437.91 922.17 433.93 920.83 432.02 919.22 430.93 917.33 427.86 915.7 424.86 912.86 419.5 911.98 417.25 909.66 414.37 908.19 416.22 904.97 416.56 902.22 419.46 898.62 421.07 895.79 421.03 893.45 419.43 891.71 418.55 888.86 416.07 886.3 415.22 883.84 413.03 881.32 408.42 880.77 405.47 878.1 405.4 876.52 403.82 873.19 400.08 867.22 399.24 863.73 396 853.86 396.41 851.16 395.55 848.11 395.97 845.16 391.81 846.23 388.24 845.53 387.08 847.14 385.01 847.58 383.47 846.19 378.62 846.31 375.64 843.85 373.2 843.84 371.92 842.76 367.53 843.69 365.95 842.35 361.26 841.27 360.5 838.09 361.44 834.99 361 831.37 365.51 828.69 366.96 825.84 368.93 824.27 369.63 820.83 367.84 817.17 370.14 814.04 368.4 810.98 366.95 810.28 364.1 807.18 362.51 804.19 363.29 802.69 360.39 795.4 361.17 794.23 359.68 790.11 358.67 789.11 359.65 784.83 359.02 783.31 359.85 781.02 361.62 778.63 363.25 777.86 364.32 775.48 365.67 769.91 364.65 766.07 365.87 762.13 367.62 761.67 368.86 756.58 368.36 752.44 367.13 750.83 365.66 750.58 353.32 738.63 349.38 732.23 344.05 732.26 344.27 729.66 342.4 729.24 341.4 727.87 335.95 723.46 334.24 723.98 329.52 721.98 327.2 722.19 324.82 721.29 322.74 721.33 324.14 713.68 322.27 712.43 321.57 710.44 319.64 708.46 320.23 706.59 319.4 704.55 320.32 703.06 320.18 698.27 318.52 697.93 318.02 695.71 316.43 694.4 316.63 692.98 314.46 690.59 314.38 687.06 312.85 686.67 311.59 684.63 311.27 682.47 309.84 681.12 310.52 677.84 313.78 678.08 316.21 675.93 316.75 673.96 316.3 670.95 317.66 669.86 316.31 667.62 315.69 664.92 318.08 664.16 319.83 660.81 323.38 660.57 323.06 658.8 324.59 654.59 331.38 655.48 332.74 654.3 337.44 655.64 337.86 653.07 339.94 652.22 342.95 648.59 346.5 641.74 347.39 635.32 346.71 629.38 344.23 623.93 342.91 618.33 342.21 617.7 349.56 610.49 353.22 605.5 357.9 600.01 359.35 597.41 359.59 593.1 361.86 592.01 365.21 592.19 371.24 589.42 373.86 598.47 382.64 595.58 Z" id="25020690"/>
<path d="M 321.75 602.88 318.53 606.57 320.52 608.22 319.35 610.7 316.73 611.68 318.86 616.68 318.62 620.34 319.29 625.86 321.61 626.61 319.85 629.74 319.83 633.99 318.25 636.13 317.34 640.63 318.25 644.03 320.4 645.75 320.55 650.05 322.83 650.61 324.59 654.59 323.06 658.8 323.38 660.57 319.83 660.81 318.08 664.16 315.69 664.92 316.31 667.62 317.66 669.86 316.3 670.95 316.75 673.96 316.21 675.93 313.78 678.08 310.52 677.84 309.84 681.12 311.27 682.47 311.59 684.63 312.85 686.67 314.38 687.06 314.46 690.59 316.63 692.98 316.43 694.4 318.02 695.71 318.52 697.93 320.18 698.27 320.32 703.06 319.4 704.55 320.23 706.59 319.64 708.46 321.57 710.44 322.27 712.43 324.14 713.68 322.74 721.33 321.71 722.33 320.98 727.45 319.63 728.56 313.05 730.72 310.52 730.53 308.76 732.02 306.82 731.84 304.63 730.61 301.3 730.18 300.29 728.96 298.39 731.1 295.46 730.09 293.55 730.49 290.87 728.5 288.01 725.66 287.43 723.51 288.18 719.13 286.42 718.94 284.51 717.36 283.34 714.67 281.73 714.13 280.53 717.71 275.64 719.36 274.58 718.54 270.7 719.57 269.86 722.42 267.94 721.11 265.43 721.4 264.1 717.53 257.61 714.32 258.59 713.02 264.16 712.53 267.94 711.19 274.25 710.53 277.9 708.79 282.37 704.55 283.49 702.16 283.41 697.03 283.71 692.35 280.81 692.26 281.61 685.82 281.25 683.45 282.66 679.23 282.72 676.78 283.58 672.94 283.55 666.41 284.16 661.84 284.13 658.01 286.96 656.96 288.69 651.05 291.35 646.22 292.85 644.77 297.43 626.41 294.51 620.51 293.51 619.17 293.36 618.97 292.86 618.43 287.74 612.96 283.05 606.98 280.78 599.72 280.38 597.59 276.84 590.01 279.95 586.8 282.48 580.8 284.89 579.08 285.93 573.48 285.95 571.36 289.62 572.89 295.43 573.5 298.15 578.11 301.62 577.46 303.56 579.58 303.43 582.27 305.45 582.68 313.52 590.93 311.92 596.03 311.48 599.99 311.8 601.74 313.4 602.64 321.75 602.88 Z" id="25030540"/>
<path d="M 626.71 191.95 622.23 190.61 619.98 192.69 617.58 193.82 616.19 193.26 614.56 194.77 608.6 205.02 605.7 209.21 605.42 210.61 601.77 215.26 600.21 218.67 599.19 219.63 597.8 223.11 597.48 226.67 598.18 228.17 595.81 232.77 594.53 233.72 594.3 236.16 590.3 243.65 589.9 246.64 586.98 250.24 585.17 256.55 580.09 254.51 578.64 256.4 581.45 260.31 579.09 263.82 577.25 265.77 576.71 268.31 571.09 276.51 566.49 282.01 565.32 285.48 563.87 285.26 561.08 289.78 556.89 292.45 554.9 294.72 551.45 295.93 546.79 302.26 545.05 302.53 540.03 305.08 538.35 307 536.63 303.8 529.85 295.69 528.87 292.86 528.53 289.82 529.22 288.67 528.84 285.44 529.1 282.47 527.82 282.34 526.23 279.71 526.47 276.46 524.76 274.12 524.87 271.4 527.08 266.55 528.37 262.23 529.99 260.17 530.92 256.23 524.35 252.62 522.61 250.95 518.45 248.02 516.63 245.4 514.52 244.23 510.54 239.11 507.12 238.47 505.1 237.3 501.65 239.66 498.54 240.07 495.67 237.99 491.98 237.11 492.91 232.79 493.1 227.53 495.45 224.4 495.11 222.17 497.77 222.76 502.47 221.96 501.76 219.88 502.06 217.7 503.65 215.06 502.98 214.12 503.84 210.18 506.08 207.22 504.32 205.56 501.79 206.33 498.6 204.52 497.39 201.5 498 197.08 493.8 195.61 490.61 196.82 488.72 196.28 483.52 196.75 481.36 195.27 479.58 195.11 479.35 193.09 475.55 192.27 473.47 190.58 470.57 189.27 467.35 189.06 466.99 186.08 464.12 184.53 463.73 183.12 465 178.96 464.58 175.79 465.46 171.6 464.93 166.65 463.89 161.5 462.95 158.66 459.68 142.68 459.61 140.77 461.49 139.5 453.73 139.69 460.72 137.47 484.49 138.85 481.97 139.67 477.49 139.66 477.32 140.85 486.21 140.85 496.19 151.21 498.97 154.97 503.28 157.72 511.1 161.48 521.73 161.25 530.47 157.98 539.73 151.55 546.22 144.62 550.32 139.3 552.63 126.22 552.78 116.43 553.25 112.9 560.56 95.31 570.92 82.77 575.14 79.61 584.55 75.43 595.57 72.7 596.21 72.6 604.7 74.42 606.02 80.97 602.9 95.31 598.68 106.69 595.97 111.21 593.09 115.13 592.13 118.06 589.82 122.36 588.77 125.34 588.22 129.75 588.54 131.99 590.34 135.57 592.07 138.02 600.15 146.24 606.38 149.23 612.4 149.66 624.42 147.81 647.25 138.68 652.87 140.85 655.47 146.59 657.22 152.44 654.72 160.26 644.3 170.13 638.65 175 629.4 186.17 626.71 191.95 Z" id="25050580"/>
<path d="M 439.76 163.73 443.45 165.95 446.13 168.15 448 171.76 454.15 176.45 459.05 178.51 462.53 181.45 463.73 183.12 464.12 184.53 466.99 186.08 467.35 189.06 470.57 189.27 473.47 190.58 475.55 192.27 479.35 193.09 479.58 195.11 481.36 195.27 483.52 196.75 488.72 196.28 490.61 196.82 493.8 195.61 498 197.08 497.39 201.5 498.6 204.52 501.79 206.33 504.32 205.56 506.08 207.22 503.84 210.18 502.98 214.12 503.65 215.06 502.06 217.7 501.76 219.88 502.47 221.96 497.77 222.76 495.11 222.17 495.45 224.4 493.1 227.53 492.91 232.79 491.98 237.11 489.7 239.05 490.46 241.42 486.97 245.12 486.98 248.11 485.9 249.21 482.86 250.46 481.47 253.42 479.13 256.03 480.91 260.26 478.98 262.98 476.98 263.27 476.2 264.89 477.23 266.44 475.82 271.39 476.27 272.28 475.27 275.33 473.46 275.32 472.1 272.1 468.95 268.95 464.91 266.63 461.82 264.39 458.25 259.73 454.76 257.8 451.31 257.11 448.63 253.46 443.25 257.02 443.81 258.84 440.54 259.34 444.15 261.63 440.49 262.44 439.83 266.14 435.97 257.91 428.66 246.74 424.97 241.98 425.33 239.47 425.18 234.06 428.23 232.64 429.39 229.97 429.25 226.06 428.4 224.4 423.95 220.18 426.04 213.94 428.97 212.29 430.64 212.14 431.85 210.06 433.92 208.76 434.48 204.72 433.08 199.47 430.72 198.21 433.2 196.42 433.25 189.69 431.13 189.41 433.22 186.41 432.34 185.19 434.25 182.68 435.89 178.68 433.2 174.42 434.14 173.37 433.07 168.52 434.26 166.24 435.77 165.5 436.84 162.67 439.76 163.73 Z" id="25050600"/>
<path d="M 423.95 144.14 423.77 147.65 425.28 148.2 432.61 147.94 433.86 158.06 437.51 158.2 439.62 162.46 439.76 163.73 436.84 162.67 435.77 165.5 434.26 166.24 433.07 168.52 434.14 173.37 433.2 174.42 435.89 178.68 434.25 182.68 432.34 185.19 433.22 186.41 431.13 189.41 433.25 189.69 433.2 196.42 430.72 198.21 433.08 199.47 434.48 204.72 433.92 208.76 431.85 210.06 430.64 212.14 428.97 212.29 426.04 213.94 423.95 220.18 428.4 224.4 429.25 226.06 429.39 229.97 428.23 232.64 425.18 234.06 425.33 239.47 424.97 241.98 420.45 239.61 415.53 237.92 411.06 234.67 409.26 231.92 405.62 228.81 403.1 227.23 398.01 225.15 396.08 222.8 391.73 218.77 388.02 214.16 381.55 208.28 377.78 202.97 376.66 199.02 375.3 199.19 375.31 198.71 369.05 195.35 366.69 191.81 365.84 188.8 364.05 185.33 363.6 178.16 364.14 174.87 368.39 168.27 369.86 163.62 370.94 161.88 374.3 158.4 377.06 156.98 382.99 155.95 387.21 150.73 388.62 148.45 396.05 140.37 397.24 141.87 399.52 142.9 411.06 144.42 423.95 144.14 Z" id="25050610"/>
<path d="M 293.36 618.97 293.51 619.17 294.51 620.51 297.43 626.41 292.85 644.77 291.35 646.22 288.69 651.05 286.96 656.96 284.13 658.01 284.16 661.84 283.55 666.41 283.58 672.94 282.72 676.78 282.66 679.23 281.25 683.45 281.61 685.82 280.81 692.26 283.71 692.35 283.41 697.03 283.49 702.16 282.37 704.55 277.9 708.79 274.25 710.53 267.94 711.19 264.16 712.53 258.59 713.02 257.61 714.32 255.58 716.04 254.63 713.18 251.33 710.99 249.71 708.89 245.66 701.62 243.94 700.27 238.36 698.69 236.43 697.75 233.48 698.22 231.52 699.32 230.57 697.84 222.02 698.6 222.5 697.3 221.49 694.38 221.73 692.21 217.25 684.12 222.98 680.86 226.69 679.62 230.48 677.57 232.85 675.7 235.17 676.1 238.43 674.35 248.91 673.03 257.52 669.58 255.09 666.61 253.52 663.35 253 660.88 255.55 657.15 256.97 652.57 258.61 651.66 257.78 649.49 258.58 646.01 258.16 644.61 259.93 639.93 259.79 638.81 261.39 635.51 258.67 633.14 256.27 629.7 257.04 627.7 256.17 622.75 263.01 620.26 265.75 620.45 285.92 614.3 289.78 617.54 290.25 617.39 292.96 618.83 293.36 618.97 Z" id="25030511"/>
<path d="M 461.82 394.29 462.32 397.61 467.28 419.1 467.83 420.44 455.85 423.24 450.84 423.41 449.83 421.69 450.3 419.63 447.19 418.25 445.86 416.88 446.83 414.06 449.55 409.41 453.25 405.27 453.25 399.62 451.02 398.86 451.52 396.6 454.47 394.73 459.35 393.66 461.42 392.62 461.82 394.29 Z" id="25050560"/>
<path d="M 435.79 293.17 434.15 297.24 430.54 299.91 426.28 307.84 425.94 311.61 425.95 318.3 425.28 322.99 421.45 330.38 420.83 334.38 420.09 344.23 420.65 352.09 422.06 358.36 421.73 374.74 420.05 379.84 417.01 384.84 411.06 389.77 405.61 392.03 398.76 394.13 394.08 396.26 392.28 393.69 386.98 391.69 384.57 389.96 383.8 387.58 381.11 386.76 379.95 385.07 378.49 384.71 376.37 380.89 375.3 380.74 373.88 378.21 369.84 377.95 367.31 373.83 361.63 376.3 356.59 368.74 357.06 365.5 355.11 364.88 354.6 361.39 352.23 358.78 351.9 355.42 352.4 354.29 351.75 351.6 348.34 347.61 346.77 346.97 345.57 344.85 340.6 338.53 341.99 335.1 344.24 332.86 344.88 329.46 344.2 327.39 342.46 325.21 341.27 321.64 340.53 314.78 343.21 310.42 343.79 305.89 346.46 305.54 350.5 306.47 351.93 305.46 354.94 305.46 357.15 302.51 358.29 299.86 357.67 295.73 354.75 294.95 355.08 290.57 357.1 289.48 359.92 290 360.04 288 361.37 285.2 359.67 279.49 372.3 283.28 375.28 289.79 376.77 289.39 383.74 291.74 386.38 290.96 388.91 292.62 393.13 291.66 397.23 291.37 399.82 292.46 401.75 292.53 404.99 288.17 407.85 288.14 413.53 285.89 414.82 282.7 416.19 283.75 416.74 285.93 421.27 285.81 421.48 283.15 419.86 281.67 420.59 279.89 428.82 284.73 429.49 283.31 431.96 284.32 431.72 285.56 433.23 290.41 435.79 293.17 Z" id="25040570"/>
<path d="M 451.92 637.03 449.8 643.09 449.86 645.26 446.62 646.39 442.19 646.02 440.42 647.98 438.77 645.98 438.07 642.54 435.31 637.78 434.9 635.49 432.24 635.17 427.02 630.92 423.61 629.12 421.51 626.61 416.01 623.98 418.41 619.98 417.96 617.66 416.63 615.9 417.52 611.13 418.86 608.56 416.83 607.28 414.72 607.2 413.63 605.62 413.7 603.14 410.86 602.12 405.38 596.97 403.41 592.92 404.55 589.45 402.39 588.74 399.06 589.24 400.05 585.56 401.87 573.09 401.81 570.53 409.88 567.86 423.02 563.16 424.65 562.37 430.81 560.7 434.93 560.21 434.82 562.77 432.25 566.94 433.73 568.47 432.7 569.69 430.82 569.55 430.25 575.04 427.88 577.08 428.55 579.61 428.51 583.25 432.84 584.77 438.2 588.75 439.51 590.14 437.5 592.74 437.71 594.55 436.5 595.64 435.66 599.4 434.25 601.5 436.06 604.27 435.76 608.73 434.71 611.14 436.16 618.26 435.5 621.72 435.94 623.66 439.4 624.07 440.53 624.94 445.29 626.28 446.51 628.49 449.49 630.07 451.92 637.03 Z" id="25020670"/>
<path d="M 401.81 570.53 401.18 566.06 399.27 559.74 394.5 543.62 391.71 533.79 391.91 529.08 392.31 529.77 407.46 544.98 424.65 562.37 423.02 563.16 409.88 567.86 401.81 570.53 Z" id="25020620"/>
<path d="M 358.8 518.34 374 533.97 373.44 536.07 371.38 539.28 368.39 540.42 364.97 544.16 363.29 548.38 356.64 544.98 352.78 543.84 348.41 543.58 344.81 542.67 352.47 534.36 347.63 529.31 358.8 518.34 Z" id="25030620"/>
<path d="M 326.29 450.93 326.09 450.07 325.94 437.12 310.88 437.05 308.57 433.44 305.24 430.41 307.77 428.58 339.6 428.58 339.63 451.07 326.88 451.09 326.29 450.93 Z" id="25030670"/>
<path d="M 326.09 450.07 311.39 450.03 300.26 448.37 300.25 448.79 286.87 446.75 296.95 433.39 302.61 431.61 305.24 430.41 308.57 433.44 310.88 437.05 325.94 437.12 326.09 450.07 Z" id="25030680"/>
<path d="M 399.33 452.26 400.42 456.26 403.85 464.91 402.1 476.41 401.94 478.81 397.28 478.52 379.91 478.52 379.91 451.06 395.15 451.06 399.33 452.26 Z" id="25030740"/>
<path d="M 338.28 405.99 331.54 406.43 327.27 407.63 323 411.52 315.78 415.73 313.55 418.24 310.21 425.45 307.77 428.58 305.24 430.41 302.61 431.61 296.95 433.39 290.1 435.68 287.06 437.16 285.21 440.5 283.05 441.46 274.44 442.05 267.35 445.92 263.09 446.07 258.39 445.67 255.36 444.93 245.49 445.14 243.09 446.8 243.13 448.67 237.59 453.61 234.87 454.61 227.55 455.58 217.95 453.44 217.08 452.46 212.39 450.15 210.36 450.73 207.99 447.78 201.13 446.78 196.58 446.69 191.89 445.64 191.77 442.59 187.7 440.64 194.05 436.57 197.06 438.64 200.54 434.93 204.03 433.01 206.45 429.19 207.38 426.11 211.41 424.05 215.29 423.61 215.5 420.14 219.02 419.34 216.98 416.68 217.37 408.66 218.01 403.7 219.02 402.98 219.81 396.23 221.19 392.98 222.85 392.85 224.25 388.32 228.09 377.41 227.46 376.09 228.37 372.01 230.8 372.68 233.36 376.16 236.93 376.79 237.94 375.18 239.57 374.98 239.66 378.15 241.63 384.25 243.98 385.83 245.82 386.13 247.7 388.97 249.19 389.63 250.55 388.48 253.29 388.41 253.36 390.42 256.78 392.39 260.82 393.67 260.97 398.26 262.12 399.45 262.22 401.53 264.2 402.3 264.17 405.84 264.73 408.08 267.09 408.33 269 406.52 268.69 400.82 267.11 398.43 267.61 395.32 272.26 390.89 271.71 386.49 274.75 383.79 278.47 383.88 278.48 380.55 279.13 379.4 282.66 384.14 284.21 385.52 285.57 383.89 294.22 390.02 297.52 391.76 307.75 394.19 312.85 394.52 314.87 393.81 319.68 388.8 323.25 387.49 330.75 388.33 332.68 391.24 332.95 393.15 337.52 399.79 338.26 401.32 338.28 405.99 Z" id="25040540"/>
<path d="M 342.9 249.33 342.26 253.31 338.18 259.35 333.62 262.87 338.96 265.16 339.94 266.46 343.18 268.3 342.16 270.54 342.27 272.8 347.39 276.84 346.09 279.24 345.36 283.51 350.47 286.67 350.19 289.52 351.96 289.84 354.53 289 357.1 289.48 355.08 290.57 354.75 294.95 357.67 295.73 358.29 299.86 357.15 302.51 354.94 305.46 351.93 305.46 350.5 306.47 346.46 305.54 343.79 305.89 343.21 310.42 340.53 314.78 341.27 321.64 342.46 325.21 344.2 327.39 344.88 329.46 344.24 332.86 341.99 335.1 340.6 338.53 345.57 344.85 346.77 346.97 348.34 347.61 351.75 351.6 352.4 354.29 351.9 355.42 352.23 358.78 354.6 361.39 355.11 364.88 357.06 365.5 356.59 368.74 361.63 376.3 367.31 373.83 369.84 377.95 373.88 378.21 375.3 380.74 376.37 380.89 378.49 384.71 379.95 385.07 381.11 386.76 383.8 387.58 384.57 389.96 386.98 391.69 392.28 393.69 394.08 396.26 386.67 400.25 374.63 402.55 373.57 405.34 374.17 407.96 371.78 407.29 366.06 408.64 363.31 408.56 357.25 407.73 341.14 407.51 340.5 406.09 338.28 405.99 338.26 401.32 337.52 399.79 332.95 393.15 332.68 391.24 330.75 388.33 323.25 387.49 319.68 388.8 314.87 393.81 312.85 394.52 307.75 394.19 297.52 391.76 294.22 390.02 285.57 383.89 284.21 385.52 282.66 384.14 279.13 379.4 278.48 380.55 278.47 383.88 274.75 383.79 271.71 386.49 272.26 390.89 267.61 395.32 267.11 398.43 268.69 400.82 269 406.52 267.09 408.33 264.73 408.08 264.17 405.84 264.2 402.3 262.22 401.53 262.12 399.45 260.97 398.26 260.82 393.67 256.78 392.39 253.36 390.42 253.29 388.41 250.55 388.48 249.19 389.63 247.7 388.97 245.82 386.13 243.98 385.83 241.63 384.25 239.66 378.15 239.57 374.98 237.94 375.18 236.93 376.79 233.36 376.16 230.8 372.68 228.37 372.01 224.56 369.86 221.56 366.77 220.93 369.46 218.99 367.99 216.53 367.68 213.64 368.71 215.18 367.05 221.22 356.35 222.97 354.66 220.34 352.25 219.55 350.51 220.69 348.14 222.79 346.94 216.99 345.96 214.7 344.53 211.73 343.91 209.94 341.25 201.37 339.74 198.66 336.77 197.71 334.82 197.43 330.77 199.09 329.41 202.82 323.06 202.28 319.74 201.83 311.61 203.86 307.63 202.19 304.06 201.87 301.22 199.8 298.96 199.29 294.39 194.38 290.76 195.69 288.76 199.46 287.57 202.15 284.81 205.98 285.03 207.1 277.66 208.04 276.31 207.79 273.24 205.89 268.06 204.7 266.31 203.32 261.53 204.1 257.4 203.06 251.97 203.14 248.31 204.93 247.54 207.51 245.01 210.4 244.41 213.23 242.09 213.64 241.01 218.29 237.34 219.5 234.32 224.57 232.79 227.46 230.12 231.84 228.46 235.02 225.9 235.61 224.29 237.55 223.32 240.56 220.15 243.39 221.44 245.02 220.79 247.44 223.06 249.78 223.66 252.73 225.7 259.93 226.39 261.72 227.62 263.81 227.04 266.64 227.48 266.92 225.51 270.43 219.75 275.81 217.49 279.05 214.82 279.46 213.66 283.08 211.7 287.43 211.61 288.76 210.13 292.29 209.9 294.65 213.83 298.79 216.95 301.47 221.49 302.91 221.36 305.22 218.15 304.2 216.68 304.66 212.56 307.84 211.78 309.43 209.82 313.39 209.57 314.45 206.98 319.22 205.52 319.27 208.48 321.11 210.81 324.14 212.43 325.26 214.5 323.95 219.21 327.85 224.54 329.58 226.3 330.01 228.96 331.89 230.08 332.8 233.3 335 233.89 335.72 237.39 338.27 239.04 336.53 241.66 336.79 243.98 340.12 248.2 342.9 249.33 Z" id="25040550"/>
<path d="M 187.7 440.64 191.77 442.59 191.89 445.64 196.58 446.69 201.13 446.78 207.99 447.78 210.36 450.73 212.39 450.15 217.08 452.46 217.95 453.44 227.55 455.58 234.87 454.61 237.59 453.61 243.13 448.67 243.09 446.8 245.49 445.14 255.36 444.93 258.39 445.67 263.09 446.07 267.35 445.92 274.44 442.05 283.05 441.46 285.21 440.5 287.06 437.16 290.1 435.68 296.95 433.39 286.87 446.75 286.15 447.72 284.96 453.19 274.35 462.21 271.26 462.18 266.12 464.94 264.52 467.61 262.62 473.2 262.13 476.63 260.08 476.78 261.07 471.25 259.03 470.46 243.51 465.42 242.14 467.98 240.11 474.7 240.32 480.5 239.71 480.5 236.43 479.8 205.09 479.91 203.36 480.7 201.01 485.84 197.6 490.9 195.33 491.08 194.86 489.67 192.32 489.84 190.99 487.21 186.95 487.2 186.8 485.75 185 485.4 183.24 482.37 180.86 481.77 177.69 481.9 176.3 479.35 176.27 477.74 174.22 476.57 169.6 475.86 167.76 473.63 166.57 474.31 163.84 471.1 163.66 469.97 161.32 469.68 159.73 467.07 161.06 463.94 160.33 462.04 162.37 458.09 163.51 457.92 163.64 451.39 159.17 450.11 152.89 447.72 150.81 445.96 148.7 442.65 148.67 439.26 146.45 435.7 145.21 429.63 147.05 429.39 148.57 427 148.94 423.56 151.67 422.75 152.56 420.82 155.77 421.62 160.95 424.39 161.18 426.8 162.63 427.83 161.28 430.08 160.35 435.37 166.03 437.43 169.72 436.33 173.91 438.15 176.41 438.29 180.43 439.97 182.65 439.02 185.27 441.15 187.7 440.64 Z" id="25040640"/>
<path d="M 203.14 248.31 203.06 251.97 204.1 257.4 203.32 261.53 204.7 266.31 205.89 268.06 207.79 273.24 208.04 276.31 207.1 277.66 205.98 285.03 202.15 284.81 199.46 287.57 195.69 288.76 194.38 290.76 199.29 294.39 199.8 298.96 201.87 301.22 202.19 304.06 203.86 307.63 201.83 311.61 202.28 319.74 202.82 323.06 199.09 329.41 197.43 330.77 197.71 334.82 198.66 336.77 201.37 339.74 209.94 341.25 211.73 343.91 214.7 344.53 216.99 345.96 222.79 346.94 220.69 348.14 219.55 350.51 220.34 352.25 222.97 354.66 221.22 356.35 215.18 367.05 213.64 368.71 211.43 370.07 211.34 374.14 209.07 376.02 208.21 379.14 206.56 379.16 201.26 389.5 199.45 391.44 193.7 393.62 174.42 393.62 174.1 386.83 175.12 381.12 177.32 381.65 178.56 378.42 180.54 370.38 183.88 368.03 185.14 366.39 184.1 364.67 179.79 360.79 182.33 359.38 180.99 356.66 182.5 356.42 176.14 345.72 174.04 342.93 173.61 341.48 165.41 327.67 163.22 324.77 163.13 321.02 161.67 322.03 155.56 320.58 150.05 322.11 147.27 324 145.83 322.36 143.52 317.72 137.11 316.98 136.75 316.15 133.22 317.23 130.8 319.23 127.74 319.47 122.6 321.8 120.52 321.02 115.97 318.21 114.04 318.23 109.9 320.56 104.99 321.15 103.1 320.65 99.74 322.8 95.36 323.54 92.2 322.81 86.3 328.03 81.79 329.2 81.38 328.7 82.34 324.17 82.12 322.61 87.04 307.95 87.83 303.23 86.8 299.51 86.75 296.95 88.18 294.02 88.13 292.63 89.72 290 89.58 287.51 88.65 285.3 90.59 282.08 90.51 272.29 93.67 271.06 98.36 270.19 99.71 270.57 107.49 268.63 109.53 267.58 113.36 267.36 113.48 259.83 116.29 259.18 119.46 259.68 122.79 256.85 123.79 255.35 123.76 252.48 121.28 250.65 121.23 248.23 124.52 246.74 126.9 245.04 131.48 245.26 134.42 246.05 135.03 247.37 138.11 249.13 139.81 249.31 140.94 245.26 142.7 242 144.95 240.34 148.87 239.96 155.22 239.99 157.93 240.94 160.37 240.66 162.28 239.64 163.95 240.24 165.67 242.17 165.78 243.48 172.06 245.8 174.87 248.96 176.92 250.11 177.83 253.44 182.21 251.87 184.89 250.33 186.28 246.86 188.28 244.68 191.39 243.29 195.69 246.31 201.83 247.06 203.14 248.31 Z" id="25040660"/>
<path d="M 174.42 393.62 174.98 395.36 173.72 396.18 174.58 398.41 174.95 403.3 176 405.44 173.3 405.65 171.78 405 168.9 405.12 163.74 408.21 161.79 405.83 162.6 403.83 161.85 402.06 158.53 402.66 155.62 404.16 151.24 404.29 148.39 405.89 144.74 404.55 145.23 399.65 143.31 398.2 138.82 396.74 137.38 394.72 137.33 391.7 134.28 385.8 135.57 383.04 134.91 379.64 131.75 380.71 128.59 376.47 123.22 378.41 119.21 377.16 118.59 376.02 115.55 376.14 110.22 378.38 106.71 377.09 105.66 375.49 103.17 374.29 99.13 374.81 95.34 372.59 93.16 372.56 92.04 373.7 87.61 375.36 82.85 375.13 81.68 374.11 82.77 369.72 82.37 365.95 81.35 364.16 81.01 361.49 78.71 359.46 81.4 356.97 82.23 354.6 82.22 351.78 82.93 349.11 83.17 345.37 81.83 334.38 81.79 329.2 86.3 328.03 92.2 322.81 95.36 323.54 99.74 322.8 103.1 320.65 104.99 321.15 109.9 320.56 114.04 318.23 115.97 318.21 120.52 321.02 122.6 321.8 127.74 319.47 130.8 319.23 133.22 317.23 136.75 316.15 137.11 316.98 143.52 317.72 145.83 322.36 147.27 324 150.05 322.11 155.56 320.58 161.67 322.03 163.13 321.02 163.22 324.77 165.41 327.67 173.61 341.48 174.04 342.93 176.14 345.72 182.5 356.42 180.99 356.66 182.33 359.38 179.79 360.79 184.1 364.67 185.14 366.39 183.88 368.03 180.54 370.38 178.56 378.42 177.32 381.65 175.12 381.12 174.1 386.83 174.42 393.62 Z" id="25040670"/>
<path d="M 207.69 532.02 214.48 530.62 217.74 529.32 217.62 532.06 234.35 532.08 234.36 538.62 228.66 538.61 228.66 547.17 231.45 549.88 232.26 554.31 230.89 558.45 230.61 562.13 232.42 568.35 233.38 573.08 232.67 573.84 233.52 577.56 238.59 577.83 237.68 584.6 238.99 587.6 237.26 589.3 236.86 591.94 232.87 591.31 232.95 592.92 231.76 595.11 229.65 595.76 228.03 599.73 225.64 601.06 225.21 603.97 222.37 605.27 221.61 608.97 220.48 608.96 220.49 618.27 220.21 618.41 220.23 628.1 220.23 628.79 215.45 628.91 212.36 629.94 200.46 635.2 198.67 636.68 194.84 641.66 193.51 643.9 189.26 656.45 188.29 662.78 188.58 665.11 188.12 671.85 185.92 675.71 181.57 678.66 179.66 679.13 174.17 679.04 173.31 683.69 172.13 689.22 166.3 689.25 164.71 695.47 164.91 697.84 163.71 700.96 164.3 703.02 162.32 705.48 159.35 706.16 160.12 710.05 161.3 711.78 162.79 712.16 162.74 716.95 163.16 719.39 164.39 721.05 160.3 722.32 157.64 721.03 154.16 721.97 145.06 726.58 139.46 727.81 134.67 730.83 132.14 733.2 129.27 737.51 126.66 736.86 122.25 742.45 120.98 744.57 120.47 747.34 116.98 747.1 114.9 743.41 112.36 741.84 106.3 743.2 101.45 745.34 96.81 745.49 91.81 745.01 85.54 741.99 82.98 738.27 81.62 737.21 76.49 735.79 72.38 732.82 65.7 728.88 59.19 724.67 55.46 721.43 52.67 718.36 48.93 715.34 41.24 712.14 35.17 710.88 32.1 710.05 28.86 707.07 24.8 701.88 21.96 697.48 20.42 696.09 19.35 690.95 17.85 688.87 12.84 685.02 11.44 680.26 9.99 678 6.77 675.63 5.77 673.62 5.18 669.52 2.27 664.55 1 663.05 3.58 661.49 4.39 656.67 7.47 656.91 8.7 655.86 10.11 652.49 12.53 648.11 13.93 647.75 19.88 644.33 21.41 646.45 28.7 648.28 34.68 648.13 33.47 646.42 33.21 643.46 34.56 637.32 34.9 632.63 36.71 628.55 33.75 624.64 30.97 623.35 31.23 617.13 30.81 608.59 31.48 605.33 29.87 603.05 30.81 598.96 31.61 597.96 30.83 595.54 31.41 591.93 30.16 589.17 30.98 584.52 30.84 578.71 33.5 573.49 35.13 572.87 35.96 570.54 36.45 562.89 36.86 561.29 36.11 556.95 34.19 553.38 35 551.89 34.2 548.36 37.05 548.7 42.59 548.32 46.69 545.8 50.4 544.25 50.57 540.83 54.42 535.54 55.51 535.15 57.15 534.47 58.36 535.5 61.57 536.48 62.82 535.44 69.09 536.32 76.52 534.73 78.65 533.15 81.06 537.32 83.63 540.32 87.7 541.26 90.67 542.89 90.98 539.67 92.82 537.46 95.97 536.32 98.13 537.58 102.97 536.03 107.57 532.63 110.41 531.1 112.94 531.14 113.61 533.44 117.12 536.62 119.96 543.96 123.26 549 124.05 551.03 123.86 553.29 126.54 557.16 127.78 554.51 129.71 555.02 131.78 557.28 134.01 555.71 140.92 560.35 142.13 562.2 146.81 561.84 152.28 562.1 154.57 563.26 156.22 562.9 159.29 564.87 162.45 564.42 164.01 560.04 167.1 557.96 166.29 550.21 167.12 546.88 166.91 536.09 167.91 531.15 168.54 530.63 171.95 532.51 174.71 535.24 175.81 535.55 180.53 540.7 182.07 544.7 183.49 545.43 186.84 545.28 190.19 545.9 191.18 547.06 196.09 546.27 199.23 547.55 200.95 549.29 203.94 546.3 203.7 540.68 206.11 534.52 207.69 532.02 Z" id="25040680"/>
<path d="M 148.7 442.65 150.81 445.96 152.89 447.72 159.17 450.11 163.64 451.39 163.51 457.92 162.37 458.09 160.33 462.04 161.06 463.94 159.73 467.07 161.32 469.68 163.66 469.97 163.84 471.1 166.57 474.31 167.76 473.63 169.6 475.86 174.22 476.57 176.27 477.74 176.3 479.35 177.69 481.9 180.86 481.77 183.24 482.37 185 485.4 186.8 485.75 186.95 487.2 190.99 487.21 192.32 489.84 194.86 489.67 195.33 491.08 193.84 494.21 191.22 496.22 188.3 502.05 181.92 513.16 184.99 514.94 190.55 516.37 192.7 518.26 198.3 520.73 204.57 527.1 205.15 528.82 207.69 532.02 206.11 534.52 203.7 540.68 203.94 546.3 200.95 549.29 199.23 547.55 196.09 546.27 191.18 547.06 190.19 545.9 186.84 545.28 183.49 545.43 182.07 544.7 180.53 540.7 175.81 535.55 174.71 535.24 171.95 532.51 168.54 530.63 167.91 531.15 166.91 536.09 167.12 546.88 166.29 550.21 167.1 557.96 164.01 560.04 162.45 564.42 159.29 564.87 156.22 562.9 154.57 563.26 152.28 562.1 146.81 561.84 142.13 562.2 140.92 560.35 134.01 555.71 131.78 557.28 129.71 555.02 127.78 554.51 126.54 557.16 123.86 553.29 124.05 551.03 123.26 549 119.96 543.96 117.12 536.62 113.61 533.44 112.94 531.14 110.41 531.1 107.57 532.63 102.97 536.03 98.13 537.58 95.97 536.32 92.82 537.46 90.98 539.67 90.67 542.89 87.7 541.26 83.63 540.32 81.06 537.32 78.65 533.15 76.52 534.73 69.09 536.32 62.82 535.44 61.57 536.48 58.36 535.5 57.15 534.47 55.51 535.15 54.8 532.51 51.66 528.72 51.77 524.96 51.06 523.22 49.02 521.25 48.57 516.8 49.35 514.23 55.05 508.15 56.77 504.86 61.02 503.5 63.48 501.86 66.41 498.65 68.18 494.49 74.75 495.73 77.55 494.58 81.95 493.76 83.48 492.72 80.79 489.27 79.26 485.46 80.29 479.51 85.54 476.83 86.71 473.21 89.34 469.07 91.04 467.96 91.13 466.55 94.26 463.67 97.61 463.7 99.37 460.72 104.77 457.85 106.93 458.93 109.91 458.19 116.29 454.97 118.08 455.13 123.3 453.06 124.02 451.77 127.97 449.75 129.7 446.71 133.67 441.97 138.22 439.66 144.7 439.12 146.02 439.83 147.25 442.26 148.7 442.65 Z" id="25040690"/>
<path d="M 239.71 480.5 239.73 488.53 239.31 492.9 237.55 498.3 243.03 500.3 236.89 504.87 231.53 511.76 229.41 516.07 226.93 522.76 224.04 525.84 217.75 528.55 217.74 529.32 214.48 530.62 207.69 532.02 205.15 528.82 204.57 527.1 198.3 520.73 192.7 518.26 190.55 516.37 184.99 514.94 181.92 513.16 188.3 502.05 191.22 496.22 193.84 494.21 195.33 491.08 197.6 490.9 201.01 485.84 203.36 480.7 205.09 479.91 236.43 479.8 239.71 480.5 Z" id="25040700"/>
<path d="M 262.13 476.63 263.41 482.37 266.88 489.07 268.82 493.75 270.66 505.14 273.38 513.23 274.64 518.55 276.29 523.13 275.2 529.26 274.23 532.1 234.35 532.08 217.62 532.06 217.74 529.32 217.75 528.55 224.04 525.84 226.93 522.76 229.41 516.07 231.53 511.76 236.89 504.87 243.03 500.3 237.55 498.3 239.31 492.9 239.73 488.53 239.71 480.5 240.32 480.5 240.11 474.7 242.14 467.98 243.51 465.42 259.03 470.46 261.07 471.25 260.08 476.78 262.13 476.63 Z" id="25040710"/>
<path d="M 443.07 433.24 442.82 435.47 441 440.87 436.86 447.83 441.15 449.94 444.58 452.79 452.06 452.59 452.16 455.46 455.28 458.96 462.39 459.11 463.36 466.79 461.66 467.07 461.92 468.84 459.78 470.72 458.52 472.72 456.55 477.43 454.22 479.54 448.24 479.82 442.14 480.41 441.7 482.32 439.25 486.58 446.19 492.88 439.51 491.73 435.58 491.98 427.09 494.35 430.52 503.76 429.27 502.9 425.3 497.16 424.35 493.75 422.28 489.19 421.93 487.45 419.98 484.63 417.52 482.23 413.6 480.62 407.42 478.68 402.1 476.41 403.85 464.91 400.42 456.26 399.33 452.26 396.99 446.29 394.87 439.37 398.24 440.51 401.53 440.8 405.48 441.87 405.51 437.82 408.97 438.01 411.57 438.85 414.04 437.94 418.02 438.46 425.17 437.95 427.63 435.14 433.28 434.62 434.66 433.47 437.09 434.69 440.75 433.44 443.07 433.24 Z" id="25050510"/>
<path d="M 399.27 559.74 395.86 560.8 395.43 559.29 382.53 563.43 379.18 551.72 388.83 525.92 391.91 529.08 391.71 533.79 394.5 543.62 399.27 559.74 Z" id="25020630"/>
<path d="M 399.27 559.74 401.18 566.06 401.81 570.53 401.87 573.09 400.05 585.56 399.06 589.24 398.8 589.93 387.38 594.05 378.7 564.66 382.53 563.43 395.43 559.29 395.86 560.8 399.27 559.74 Z" id="25020660"/>
<path d="M 557.68 490.18 559.98 493.46 563.38 496.13 565.12 495.65 567.32 497.82 565.77 507.4 570.61 511.52 571.66 517.24 575.81 518.1 576.26 523.25 572.72 528.9 571.97 531.39 572.47 534.67 571.5 536.11 572.83 539.5 572.61 541.71 568.72 547.42 569.46 550.01 567.22 554.69 567.06 556.19 565.06 558.57 564.59 561.61 561.33 563.56 558.11 563.36 552.32 564.39 551.95 561.46 549.54 561.74 547.29 560.49 541.03 552.08 538.66 555.06 535.71 554.17 532.82 554.63 530.82 558.61 527.16 553.99 522.49 552.76 519.72 554.55 518.23 557.66 513.57 556.46 517.04 553.2 513.78 550.43 513.33 544.83 514.8 544.18 517.98 545.57 518.28 544.6 521.34 542.3 521.95 540.24 524.19 538.08 525.65 532.89 524.07 530.2 524.63 529.07 528.58 525.67 530.21 522.18 533.29 512.32 534.57 509.81 534.65 505.24 536.61 502.23 537.63 494.1 539.9 492.04 543.85 492.25 545.32 490.2 547.29 489.58 554.1 491.6 557.68 490.18 Z" id="25010570"/>
<path d="M 555.75 472.05 554.71 472.24 550.26 469.71 542.51 467.77 541.4 465.25 532.48 465.13 529.85 464.45 531.55 460.61 517.39 461.92 516.46 464.11 512.07 462.1 510.99 463.93 509.46 463.23 508.54 467.25 509.5 467.44 507.45 472.26 501.31 469.35 505.69 459.31 505.58 456.17 508.95 449.31 514.81 441.68 516.19 439.34 519.08 436.08 518.16 432.99 516.29 430.63 514.41 429.82 514.41 427.8 512.05 422.72 514.77 417.14 514.89 414.62 515.96 413.32 517.24 409.52 519.19 407.94 516.95 405.67 515.9 402.68 515.37 398.24 517.25 392.4 517.32 390.11 523.1 386.43 524.66 384.38 527.36 388.39 530.31 389.51 530.39 392.78 532.21 394.05 534.17 396.45 534.04 398.87 537.89 403.49 539.46 412.12 540.83 414.48 543.53 414.59 545.08 416.41 545.11 417.91 546.77 419.28 547.14 421.55 549.83 427.61 552.12 430.69 553.7 436.72 555.07 438.3 560.62 440.46 559.98 446.28 560.82 448.89 559.26 451.72 559.32 453.24 557.21 458.39 557 463.63 558.19 469.66 555.75 472.05 Z" id="25050540"/>
<path d="M 497.76 467.43 496.88 468.75 498.12 469.98 497.98 472.35 488.06 476.72 473.78 483.04 474.22 476.16 466.71 475.55 464.59 475.04 463.36 466.79 462.39 459.11 462.2 457.73 466.37 457.29 466.22 453.58 470.59 453.39 470.31 446.33 475.88 445.9 481.37 441.08 482.36 440.72 484.69 441.08 485.6 442.59 489.72 443.33 490.59 444.41 492.18 448.62 491.4 452.73 493.85 455.07 493.31 458.79 497.99 463.58 497.76 467.43 Z" id="25010650"/>
<path d="M 515.38 571.41 516.63 574.74 519.29 576.34 519.96 579.45 522.48 582.5 521.83 586.6 520.98 588.32 519.78 593.22 519.71 595.26 521.98 597.5 524.2 595.27 526.82 595.84 531.22 593.87 531.55 591.97 536.49 592.12 537.62 595.19 539.66 594.51 540 593.07 542.23 593.07 543.59 594.36 555.33 590.73 558.62 593.91 559.29 596.65 563.67 603.99 563.78 612.2 563.27 613.56 564.88 615.45 566.72 619.79 562.38 619.35 560.25 621.32 556.36 623.5 555.21 622.35 550.84 621.33 546.87 621.97 545.67 619.57 543.42 620.89 542.54 618.4 535.27 624.72 537.33 627.19 534.59 628.38 529.32 625.54 524.47 620.61 523.39 617.78 519.74 612.23 516.92 608.71 516.35 602.89 514.25 600.45 510.63 598.52 504.45 597.79 501.2 596.64 496 593.74 495.42 592.68 492.25 584.82 490.84 578.53 488.75 574.53 492.7 573.34 494.99 573.35 497.95 571.99 504.54 573.94 506.09 573.96 510.56 570.8 515.38 571.41 Z" id="25010530"/>
<path d="M 597.69 630.1 596.13 633.01 590.52 633.23 585.77 632 580.85 628.09 578.02 626.28 576.35 626.15 572.38 623.82 569.93 624.2 566.72 619.79 564.88 615.45 563.27 613.56 563.78 612.2 563.67 603.99 559.29 596.65 558.62 593.91 555.33 590.73 543.59 594.36 542.23 593.07 540 593.07 539.66 594.51 537.62 595.19 536.49 592.12 531.55 591.97 531.22 593.87 526.82 595.84 524.2 595.27 521.98 597.5 519.71 595.26 519.78 593.22 520.98 588.32 521.83 586.6 522.48 582.5 519.96 579.45 519.29 576.34 516.63 574.74 515.38 571.41 517.89 571.82 520.67 572.83 525.76 575.98 532.31 579.22 536.75 579.32 537.2 574.98 538.96 569.78 541.75 570.57 543.58 571.95 546.54 568.24 549.59 565.44 552.32 564.39 558.11 563.36 561.33 563.56 564.59 561.61 565.06 558.57 567.06 556.19 567.22 554.69 569.46 550.01 568.72 547.42 572.61 541.71 572.83 539.5 571.5 536.11 572.47 534.67 581.3 536.96 584.84 533.42 593.32 525.87 594.99 523.5 598.96 521.88 600.34 523.99 599.45 525.34 599.45 527.92 600.45 531.22 599.95 532.87 600.34 536.29 598.34 539.96 600.03 540.41 597.76 544.41 596.19 550.11 598.32 551.87 596.48 555.95 596.7 562.07 598.3 566.11 598.71 568.9 600.03 571.36 600.02 574.06 602.08 576.41 602.66 579.42 604.14 582.04 602.54 588.12 601.58 589.71 603.13 593.43 598.75 596.34 599.4 598.04 598.88 599.95 599.32 602.34 598.76 603.88 600.31 607.1 598.23 608.98 598.69 612.34 596.81 617.04 595.62 625.54 596.16 628.4 597.69 630.1 Z" id="25010550"/>
<path d="M 552.32 564.39 549.59 565.44 546.54 568.24 543.58 571.95 541.75 570.57 538.96 569.78 537.2 574.98 536.75 579.32 532.31 579.22 525.76 575.98 520.67 572.83 517.89 571.82 513.01 569.08 514.68 568.3 517.12 563.81 515.3 562.84 513.31 560.63 514.55 559.51 512.55 557.4 513.57 556.46 518.23 557.66 519.72 554.55 522.49 552.76 527.16 553.99 530.82 558.61 532.82 554.63 535.71 554.17 538.66 555.06 541.03 552.08 547.29 560.49 549.54 561.74 551.95 561.46 552.32 564.39 Z" id="25010560"/>
<path d="M 555.75 472.05 556.35 473.66 555.55 476.6 556.67 480.44 555.99 483.79 557.8 485.93 558.19 488.02 557.68 490.18 554.1 491.6 547.29 489.58 545.32 490.2 543.85 492.25 539.9 492.04 537.63 494.1 531.85 489.97 528.76 489.75 525.27 492.47 518.79 496.32 515.52 500.07 509.07 489.23 499.96 471.88 497.98 472.35 498.12 469.98 496.88 468.75 497.76 467.43 501.31 469.35 507.45 472.26 509.5 467.44 508.54 467.25 509.46 463.23 510.99 463.93 512.07 462.1 516.46 464.11 517.39 461.92 531.55 460.61 529.85 464.45 532.48 465.13 541.4 465.25 542.51 467.77 550.26 469.71 554.71 472.24 555.75 472.05 Z" id="25010640"/>
<path d="M 398.62 512 396.84 512 392.19 516.66 391.05 519.69 387.48 524.79 385.98 523.46 384.55 525.39 382.37 525.56 379.99 527.95 377.67 531.57 376.16 531.81 374 533.97 358.8 518.34 370.21 507.41 375.02 512.29 397.21 490.93 398.86 487.22 400.5 495.11 402.01 499.94 401.58 503.31 399.61 512.01 398.62 512 Z" id="25030560"/>
<path d="M 473.78 483.04 462.6 494.49 459.17 495.54 457.26 494.94 451.59 495.08 446.19 492.88 439.25 486.58 441.7 482.32 442.14 480.41 448.24 479.82 454.22 479.54 456.55 477.43 458.52 472.72 459.78 470.72 461.92 468.84 461.66 467.07 463.36 466.79 464.59 475.04 466.71 475.55 474.22 476.16 473.78 483.04 Z" id="25010680"/>
<path d="M 426.31 523.69 431.64 528.25 430.79 529.35 430.22 532.63 428.09 532.75 427.08 536.08 426.78 540.68 428.03 543.11 427.58 545.97 424.55 544.31 419.49 542.87 416.86 540.97 414.61 536.9 410.98 534.69 408.57 530.65 407.24 531.98 404.88 531.29 403.7 528.91 402.7 524.49 400.93 524 399.51 522.02 398.91 519.75 401.8 516.66 403.57 513.43 405.03 513 410.35 513.18 412.63 512.84 415.58 513.42 420.37 518.6 426.31 523.69 Z" id="25020530"/>
<path d="M 430.52 503.76 432.95 506.49 431.85 509.58 432.65 511.6 437.88 512.93 434.29 516.52 426.31 523.69 420.37 518.6 415.58 513.42 412.63 512.84 410.35 513.18 405.03 513 403.57 513.43 400.99 513.29 398.62 512 399.61 512.01 401.58 503.31 402.01 499.94 400.5 495.11 398.86 487.22 400.93 483.66 401.94 478.81 402.1 476.41 407.42 478.68 413.6 480.62 417.52 482.23 419.98 484.63 421.93 487.45 422.28 489.19 424.35 493.75 425.3 497.16 429.27 502.9 430.52 503.76 Z" id="25020540"/>
<path d="M 488.75 574.53 490.84 578.53 492.25 584.82 495.42 592.68 494.83 592.49 491.84 597.43 481.72 591.31 486.06 589.21 477.05 569.87 476.31 567.81 472.25 569.05 473.57 565.97 473.59 563.66 472.28 562.24 470.52 557.2 471.66 556.82 472.99 560.2 477.42 558.27 476.16 555.78 477.88 554.97 481.51 562.05 483.6 564.5 487.09 569.96 488.75 574.53 Z" id="25020560"/>
<path d="M 491.84 597.43 488.33 603.18 485.74 601.53 483.88 606.83 482.73 608.32 477.76 610.7 476.58 610.72 475.16 613.12 472.1 616.26 471.19 618.17 468.19 620.49 465.96 623.51 464.19 624.89 462.27 620.59 462.17 618.14 458.92 611.37 458.3 609.41 458.49 605.88 461.56 603.83 462.43 599.9 461.31 596.66 464.81 595.89 465 588.39 463.11 586.27 462.99 582.94 463.99 580 462.84 577.88 470.63 574 473.38 571.64 472.28 570.01 472.25 569.05 476.31 567.81 477.05 569.87 486.06 589.21 481.72 591.31 491.84 597.43 Z" id="25020590"/>
<path d="M 403.57 513.43 401.8 516.66 398.91 519.75 399.51 522.02 400.93 524 402.7 524.49 403.7 528.91 404.88 531.29 407.24 531.98 408.57 530.65 410.98 534.69 414.61 536.9 416.86 540.97 419.49 542.87 424.55 544.31 427.58 545.97 427.83 547.15 425.06 548.72 425.09 549.86 427.14 552.14 428.74 551.03 432.38 556.91 430.42 557.95 430.81 560.7 424.65 562.37 407.46 544.98 392.31 529.77 391.91 529.08 388.83 525.92 387.48 524.79 391.05 519.69 392.19 516.66 396.84 512 398.62 512 400.99 513.29 403.57 513.43 Z" id="25020600"/>
<path d="M 387.48 524.79 388.83 525.92 379.18 551.72 382.53 563.43 378.7 564.66 374.99 565.93 370.65 579.96 357.91 583.97 355.62 575.1 355.93 570.37 357.11 567.11 359.84 561.59 361.87 561.23 363.08 556.95 362.35 553.5 362.26 550.21 363.29 548.38 364.97 544.16 368.39 540.42 371.38 539.28 373.44 536.07 374 533.97 376.16 531.81 377.67 531.57 379.99 527.95 382.37 525.56 384.55 525.39 385.98 523.46 387.48 524.79 Z" id="25020640"/>
<path d="M 416.01 623.98 411.37 627.91 406.97 627.77 405.22 630.29 402.66 629.31 401.19 627.22 401.27 623.68 397.96 623.95 394.47 625.85 391.54 623.82 389.22 620.51 384.4 619.38 384.92 612.2 382.51 613.48 379.27 608.58 380.02 607.19 382.36 606.14 382.79 604.65 384.94 603.47 382.64 595.58 387.38 594.05 398.8 589.93 399.06 589.24 402.39 588.74 404.55 589.45 403.41 592.92 405.38 596.97 410.86 602.12 413.7 603.14 413.63 605.62 414.72 607.2 416.83 607.28 418.86 608.56 417.52 611.13 416.63 615.9 417.96 617.66 418.41 619.98 416.01 623.98 Z" id="25020680"/>
<path d="M 341.33 598.41 345.13 600.07 353.22 605.5 349.56 610.49 342.21 617.7 342.91 618.33 344.23 623.93 346.71 629.38 347.39 635.32 346.5 641.74 342.95 648.59 339.94 652.22 337.86 653.07 337.44 655.64 332.74 654.3 331.38 655.48 324.59 654.59 322.83 650.61 320.55 650.05 320.4 645.75 318.25 644.03 317.34 640.63 318.25 636.13 319.83 633.99 319.85 629.74 321.61 626.61 319.29 625.86 318.62 620.34 318.86 616.68 316.73 611.68 319.35 610.7 320.52 608.22 318.53 606.57 321.75 602.88 321.58 601.82 325.06 602.01 335.57 598.35 341.33 598.41 Z" id="25030510"/>
<path d="M 357.11 567.11 355.93 570.37 355.62 575.1 357.91 583.97 358.08 588.67 359.59 593.1 359.35 597.41 357.9 600.01 353.22 605.5 345.13 600.07 341.33 598.41 341.66 591.99 338.04 581.88 335.55 572.67 319.63 572.55 319.92 564.35 316.4 564.2 317.04 545.76 317.25 544.86 322.31 546.73 326.31 543.97 328.78 547 328.2 551.13 329.2 554.53 328.9 562.76 336.1 563.02 353.72 566.78 357.11 567.11 Z" id="25030520"/>
<path d="M 299.81 534.39 301.23 541.74 302.29 542.02 304.11 545.56 311.61 544.85 313.27 546.43 314.71 544.46 317.25 544.86 317.04 545.76 316.4 564.2 319.92 564.35 319.63 572.55 335.55 572.67 338.04 581.88 341.66 591.99 341.33 598.41 335.57 598.35 325.06 602.01 321.58 601.82 321.75 602.88 313.4 602.64 311.8 601.74 311.48 599.99 311.92 596.03 313.52 590.93 305.45 582.68 303.43 582.27 303.56 579.58 301.62 577.46 298.15 578.11 295.43 573.5 289.62 572.89 285.95 571.36 286.08 569.91 288.33 569.27 289.71 567.12 289.55 561.35 290.44 557.16 289.29 550.44 290.01 545.66 292.57 544.34 296.83 534.46 299.81 534.39 Z" id="25030530"/>
<path d="M 344.81 542.67 348.41 543.58 352.78 543.84 356.64 544.98 363.29 548.38 362.26 550.21 362.35 553.5 363.08 556.95 361.87 561.23 359.84 561.59 357.11 567.11 353.72 566.78 336.1 563.02 328.9 562.76 329.2 554.53 328.2 551.13 328.78 547 326.31 543.97 322.31 546.73 317.25 544.86 314.71 544.46 313.27 546.43 311.61 544.85 304.11 545.56 302.29 542.02 301.23 541.74 299.81 534.39 299.92 530.24 300.95 524.63 300.79 522.72 305.28 523.21 306.2 523.97 309.94 523.86 313.48 527.31 315.92 526.09 316.63 528.29 319.61 533.91 320.02 535.54 322.7 534.54 330.76 538.77 333.02 534.49 344.19 542.5 344.81 542.67 Z" id="25030550"/>
<path d="M 370.21 507.41 365.4 502.63 362.97 501.1 356.54 499.27 346.47 496.69 343.87 501.2 343.61 502.77 339.75 502.18 338.61 504.05 335.79 502.48 340.94 491.89 341.42 492.19 348.56 485.78 348.56 478.53 379.91 478.52 397.28 478.52 401.94 478.81 400.93 483.66 398.86 487.22 397.21 490.93 375.02 512.29 370.21 507.41 Z" id="25030570"/>
<path d="M 379.91 451.06 379.91 478.52 348.56 478.53 348.61 471.37 352.82 471.36 352.77 457.07 358.19 457.07 358.19 451.02 379.91 451.06 Z" id="25030590"/>
<path d="M 385.74 428.58 386.1 430.81 388.47 434.44 394.87 439.37 396.99 446.29 399.33 452.26 395.15 451.06 379.91 451.06 358.19 451.02 358.19 457.07 352.77 457.07 352.82 471.36 348.61 471.37 348.56 478.53 348.56 485.78 341.42 492.19 340.94 491.89 335.33 482.89 332.51 479.33 327.96 476.07 323.66 473.83 326.44 466.73 326.29 450.93 326.88 451.09 339.63 451.07 339.6 428.58 385.74 428.58 Z" id="25030600"/>
<path d="M 370.21 507.41 358.8 518.34 347.63 529.31 334.79 515.95 333.23 517.42 326.47 524.98 325.67 524.32 324.34 518.55 322.78 518.88 320.87 517.97 313.89 516.23 313.57 514.42 312.16 513.56 311.28 508.4 311.73 507.16 312.99 503.48 315.83 503.86 318.1 502.5 319.21 499.86 324.61 505.3 327.23 503.74 332.19 503.66 332.56 505.04 334.83 504.36 335.79 502.48 338.61 504.05 339.75 502.18 343.61 502.77 343.87 501.2 346.47 496.69 356.54 499.27 362.97 501.1 365.4 502.63 370.21 507.41 Z" id="25030610"/>
<path d="M 347.63 529.31 352.47 534.36 344.81 542.67 344.19 542.5 333.02 534.49 330.76 538.77 322.7 534.54 320.02 535.54 319.61 533.91 316.63 528.29 315.92 526.09 313.48 527.31 309.94 523.86 306.2 523.97 305.28 523.21 300.79 522.72 301.11 518.4 296.82 518.04 294.78 516.42 294.18 511.81 294.38 508.27 299.71 509.83 303.94 509.15 306.19 510.21 307.55 508.84 310.24 508.42 311.73 507.16 311.28 508.4 312.16 513.56 313.57 514.42 313.89 516.23 320.87 517.97 322.78 518.88 324.34 518.55 325.67 524.32 326.47 524.98 333.23 517.42 334.79 515.95 347.63 529.31 Z" id="25030630"/>
<path d="M 311.39 450.03 326.09 450.07 326.29 450.93 326.44 466.73 323.66 473.83 315.28 467.9 313.54 470.53 313.43 472.43 314.53 494.65 319.21 499.86 318.1 502.5 315.83 503.86 312.99 503.48 311.73 507.16 310.24 508.42 307.55 508.84 306.19 510.21 303.94 509.15 299.71 509.83 294.38 508.27 295.07 506.38 293.45 503.9 292.26 503.42 292.61 498.32 293.34 496.46 292.02 492.71 291.59 492.22 296.59 486.01 295.84 485.3 296.5 484.29 295.54 477.62 296.2 474.06 297.15 471.94 299.57 471.44 299.85 468.84 298.14 468.9 297.89 464.28 303.31 462.5 307.8 462.91 310 464.09 310.32 459.08 312.41 457.82 311.45 456.65 311.39 450.03 Z" id="25030640"/>
<path d="M 335.79 502.48 334.83 504.36 332.56 505.04 332.19 503.66 327.23 503.74 324.61 505.3 319.21 499.86 314.53 494.65 313.43 472.43 313.54 470.53 315.28 467.9 323.66 473.83 327.96 476.07 332.51 479.33 335.33 482.89 340.94 491.89 335.79 502.48 Z" id="25030650"/>
<path d="M 311.39 450.03 311.45 456.65 312.41 457.82 310.32 459.08 310 464.09 307.8 462.91 303.31 462.5 297.89 464.28 298.14 468.9 299.85 468.84 299.57 471.44 297.15 471.94 296.2 474.06 295.54 477.62 296.5 484.29 295.84 485.3 296.59 486.01 291.59 492.22 292.02 492.71 293.34 496.46 292.61 498.32 292.26 503.42 293.45 503.9 295.07 506.38 294.38 508.27 294.18 511.81 294.78 516.42 296.82 518.04 301.11 518.4 300.79 522.72 300.95 524.63 299.92 530.24 299.81 534.39 296.83 534.46 292.57 544.34 290.01 545.66 288.74 543.76 288.02 540.8 288.14 534.68 288.72 532.18 284.84 531.4 281.23 532.1 276.03 534.11 275.2 529.26 276.29 523.13 274.64 518.55 273.38 513.23 270.66 505.14 268.82 493.75 266.88 489.07 263.41 482.37 262.13 476.63 262.62 473.2 264.52 467.61 266.12 464.94 271.26 462.18 274.35 462.21 284.96 453.19 286.15 447.72 286.87 446.75 300.25 448.79 300.26 448.37 311.39 450.03 Z" id="25030660"/>
<path d="M 338.28 405.99 340.5 406.09 341.14 407.51 357.25 407.73 363.31 408.56 366.06 408.64 371.78 407.29 374.17 407.96 375.88 411.09 380.21 414.74 383.17 419.68 384.72 422.9 385.74 428.58 339.6 428.58 307.77 428.58 310.21 425.45 313.55 418.24 315.78 415.73 323 411.52 327.27 407.63 331.54 406.43 338.28 405.99 Z" id="25030690"/>
<path d="M 256.17 622.75 252.16 623.71 251.43 615.36 251.75 608.56 249.98 607.84 245.85 608.05 245.22 606.46 242.97 606.53 241.77 605.16 239.82 599.49 240.84 596.5 240.58 592.72 236.86 591.94 237.26 589.3 238.99 587.6 237.68 584.6 238.59 577.83 233.52 577.56 232.67 573.84 233.38 573.08 232.42 568.35 230.61 562.13 230.89 558.45 232.26 554.31 231.45 549.88 228.66 547.17 228.66 538.61 234.36 538.62 234.35 532.08 274.23 532.1 275.2 529.26 276.03 534.11 281.23 532.1 284.84 531.4 288.72 532.18 288.14 534.68 288.02 540.8 288.74 543.76 290.01 545.66 289.29 550.44 290.44 557.16 289.55 561.35 289.71 567.12 288.33 569.27 286.08 569.91 285.95 571.36 285.93 573.48 284.89 579.08 282.48 580.8 279.95 586.8 276.84 590.01 280.38 597.59 280.78 599.72 283.05 606.98 287.74 612.96 292.86 618.43 293.36 618.97 292.96 618.83 290.25 617.39 289.78 617.54 285.92 614.3 265.75 620.45 263.01 620.26 256.17 622.75 Z" id="25030512"/>
<path d="M 217.25 684.12 221.73 692.21 221.49 694.38 222.5 697.3 222.02 698.6 230.57 697.84 231.52 699.32 233.48 698.22 236.43 697.75 238.36 698.69 243.94 700.27 245.66 701.62 249.71 708.89 251.33 710.99 254.63 713.18 255.58 716.04 257.61 714.32 264.1 717.53 265.43 721.4 267.94 721.11 269.86 722.42 270.7 719.57 274.58 718.54 275.64 719.36 280.53 717.71 281.73 714.13 283.34 714.67 284.51 717.36 286.42 718.94 288.18 719.13 287.43 723.51 288.01 725.66 290.87 728.5 293.55 730.49 295.46 730.09 298.39 731.1 299.18 732.55 298.51 734.82 295.61 737.71 295.69 742.4 294.69 743.11 292.72 746.97 291.93 747.13 289.73 751.75 291.51 752.92 292.21 756.96 291.96 759.31 291 760.19 291.7 763.83 292.95 764.85 293.21 767.94 292.48 770.16 293.17 771.68 292.12 772.86 292.01 775.15 290.41 775.98 291.16 779.46 293.25 779.44 296.39 783.45 298.9 783.86 299.53 785.22 301.76 786.53 300.43 788.63 301.92 791.82 301.86 795.33 302.71 799.8 302.03 801.72 302.66 803.12 302.58 807.89 304.36 811.55 301.63 814.99 301 818.08 301.99 820.44 298.79 821.95 300.51 827.17 299.37 827.46 298.01 830.81 298.61 832.33 296.89 834.5 296.55 836.83 294.24 838.56 294.67 840.42 297.2 842.32 297.58 843.71 300.05 847.34 298.48 849.05 296.53 853.87 296.44 857.62 297.28 859.88 295.56 862.04 294.29 862.35 291.7 865.13 292.34 868.9 299.1 874.73 300.54 877.03 301.83 880.74 303.15 886.11 302.25 889.66 300.41 890.44 294.19 890.89 292.53 891.89 291.05 896.8 290.12 905.41 288.18 905.74 284.57 907.78 284.4 909.9 282.15 910.51 280.22 908.73 278.33 909.23 273.6 912.07 273.27 915.86 270.89 917.69 270.54 919.5 266.75 922.07 264.89 924.11 262.4 929.74 260.51 932.12 258.08 936.48 257.54 939.24 258.1 942.53 259.7 943.38 260.23 946.34 259.52 949.11 260.16 950.67 260 957.19 254.31 959.63 250.89 960.07 250.5 966.48 248.05 968.1 246.13 970.35 245.1 973.22 243.67 982.75 242.56 984.59 238.55 983.55 235.94 984.06 235.4 988.86 235.46 992.75 234.53 995.03 231.37 997.5 229.26 1002.13 225.48 1003 222.02 1001.68 219.49 1000 220.09 998.07 220.1 987.66 219.01 985.17 218.95 981.85 217.87 979.42 219.23 977.46 219.23 971.78 215.68 969.64 214.56 968.04 216.94 966.32 217.3 963.18 220.39 961.65 220.52 959.15 219.64 953.43 224.11 950.19 224.05 947.51 221.61 946.42 220.08 944.87 218.47 945.42 214.46 943.83 213.51 940.31 210.18 936.79 204.15 938.24 199.45 939.74 197.12 937.95 196.53 936.46 197.47 932.85 196.56 929.37 194.59 927.09 194.2 924.4 191.52 921.56 191.98 918.8 192.01 914.6 190.83 913.02 191.13 911.12 193.22 908.85 193.17 907.33 191.7 904.99 189.28 903.57 188.2 901.06 185.58 900.51 184.3 899.46 183.16 896.05 181.01 892.93 179.97 888.17 178.02 884.05 174.67 880.5 174.99 879.04 172.2 879.06 170.76 877.46 167.01 876.29 162.54 872.25 160.34 871.72 157.09 869.42 156.08 866.88 154.31 867.25 150.31 859.2 146.49 858.04 146.1 861.14 145.11 864.12 146.01 869.42 147.13 872.73 147.45 876.47 144.53 880.81 140.81 882.45 135.09 882.73 131.16 881.96 129.7 880.38 127.14 879.65 124.16 877.38 121.54 876.94 121.05 872.26 119.41 868.18 116.58 865.36 119.52 863.39 120.36 861.01 119.96 858.51 118.23 855.87 112.52 852.66 109.66 849.31 109.13 846.98 107.57 846.14 105.33 840.68 101.68 841.13 100.38 839.99 94.8 838.59 91.83 836.48 95.02 833.55 94.22 831.76 94.58 827.4 92.07 824.31 91.29 819.26 92.91 817.6 88.51 813.81 87.41 810.01 90.18 806.14 88.97 802.55 86.38 801.12 87.81 797.82 89.42 795.46 87.59 794.39 87.39 791.55 86.37 789.74 85.5 784.82 84.38 782.36 88.64 779.73 91.31 776.35 92.68 773.87 93.01 770.93 92.12 769.19 92.28 766.97 95.05 763.43 98.14 760.89 102.95 759.14 103.49 757.98 112.36 752.96 116.83 749.28 116.98 747.1 120.47 747.34 120.98 744.57 122.25 742.45 126.66 736.86 129.27 737.51 132.14 733.2 134.67 730.83 139.46 727.81 145.06 726.58 154.16 721.97 157.64 721.03 160.3 722.32 164.39 721.05 163.16 719.39 162.74 716.95 162.79 712.16 161.3 711.78 160.12 710.05 159.35 706.16 162.32 705.48 164.3 703.02 163.71 700.96 164.91 697.84 164.71 695.47 166.3 689.25 172.13 689.22 173.31 683.69 175.6 685.68 178.78 690.14 178.91 692.45 181.17 693.99 184.06 699.8 186.19 699.37 193.26 696.48 195.25 696.06 200.28 693.52 202.24 693.14 206.69 691.32 212.14 687.05 217.25 684.12 Z" id="25030710"/>
<path d="M 252.16 623.71 249.2 624.38 234.95 628.57 225.88 628.77 220.23 628.1 220.21 618.41 220.49 618.27 220.48 608.96 221.61 608.97 222.37 605.27 225.21 603.97 225.64 601.06 228.03 599.73 229.65 595.76 231.76 595.11 232.95 592.92 232.87 591.31 236.86 591.94 240.58 592.72 240.84 596.5 239.82 599.49 241.77 605.16 242.97 606.53 245.22 606.46 245.85 608.05 249.98 607.84 251.75 608.56 251.43 615.36 252.16 623.71 Z" id="25030720"/>
<path d="M 217.25 684.12 212.14 687.05 206.69 691.32 202.24 693.14 200.28 693.52 195.25 696.06 193.26 696.48 186.19 699.37 184.06 699.8 181.17 693.99 178.91 692.45 178.78 690.14 175.6 685.68 173.31 683.69 174.17 679.04 179.66 679.13 181.57 678.66 185.92 675.71 188.12 671.85 188.58 665.11 188.29 662.78 189.26 656.45 193.51 643.9 194.84 641.66 198.67 636.68 200.46 635.2 212.36 629.94 215.45 628.91 220.23 628.79 220.23 628.1 225.88 628.77 234.95 628.57 249.2 624.38 252.16 623.71 256.17 622.75 257.04 627.7 256.27 629.7 258.67 633.14 261.39 635.51 259.79 638.81 259.93 639.93 258.16 644.61 258.58 646.01 257.78 649.49 258.61 651.66 256.97 652.57 255.55 657.15 253 660.88 253.52 663.35 255.09 666.61 257.52 669.58 248.91 673.03 238.43 674.35 235.17 676.1 232.85 675.7 230.48 677.57 226.69 679.62 222.98 680.86 217.25 684.12 Z" id="25030730"/>
<path d="M 445.86 416.88 445.42 418.52 443.07 433.24 440.75 433.44 437.09 434.69 434.66 433.47 433.28 434.62 427.63 435.14 425.17 437.95 418.02 438.46 414.04 437.94 411.57 438.85 408.97 438.01 405.51 437.82 405.48 441.87 401.53 440.8 398.24 440.51 394.87 439.37 388.47 434.44 386.1 430.81 385.74 428.58 384.72 422.9 383.17 419.68 380.21 414.74 375.88 411.09 374.17 407.96 373.57 405.34 374.63 402.55 386.67 400.25 394.08 396.26 398.76 394.13 405.61 392.03 411.06 389.77 417.01 384.84 419.1 387.69 424.14 393.09 427.86 392.73 429.02 393.52 430.8 396.39 433.62 399.82 432.62 401.32 433.52 403.51 442.61 413.66 443.7 416.34 445.86 416.88 Z" id="25050520"/>
<path d="M 538.35 307 538.5 308.96 536.58 312.04 534.11 313.84 532.64 316.65 532.39 320.69 532.9 322.42 530.9 329.45 529.84 334.9 530.15 341.02 529.79 344.53 530.42 345.95 529.83 348.17 532.71 351.96 531.18 354.61 531.61 358.55 527.75 364.19 526.98 367.35 527.73 368.94 524.65 374.36 522.38 376.74 520.84 377.82 517.5 378.51 513.21 375.68 513.49 372.97 512.48 371.18 505.22 369.94 502.82 371.08 500.9 369.21 497.82 367.98 495.52 367.79 494.83 371.92 495.23 374.17 489.12 378.41 487.58 381.16 485.2 383.95 478.91 386.67 476.23 388.59 468.99 391.13 468.45 392.41 462.17 393.49 461.82 394.29 461.42 392.62 459.35 393.66 454.47 394.73 451.52 396.6 451.02 398.86 453.25 399.62 453.25 405.27 449.55 409.41 446.83 414.06 445.86 416.88 443.7 416.34 442.61 413.66 433.52 403.51 432.62 401.32 433.62 399.82 430.8 396.39 429.02 393.52 427.86 392.73 424.14 393.09 419.1 387.69 417.01 384.84 420.05 379.84 421.73 374.74 422.06 358.36 420.65 352.09 420.09 344.23 420.83 334.38 421.45 330.38 425.28 322.99 425.95 318.3 425.94 311.61 426.28 307.84 430.54 299.91 434.15 297.24 435.79 293.17 441.41 281.47 443 277.1 442.97 273.92 441.6 268.83 439.83 266.14 440.49 262.44 444.15 261.63 440.54 259.34 443.81 258.84 443.25 257.02 448.63 253.46 451.31 257.11 454.76 257.8 458.25 259.73 461.82 264.39 464.91 266.63 468.95 268.95 472.1 272.1 473.46 275.32 475.27 275.33 476.27 272.28 475.82 271.39 477.23 266.44 476.2 264.89 476.98 263.27 478.98 262.98 480.91 260.26 479.13 256.03 481.47 253.42 482.86 250.46 485.9 249.21 486.98 248.11 486.97 245.12 490.46 241.42 489.7 239.05 491.98 237.11 495.67 237.99 498.54 240.07 501.65 239.66 505.1 237.3 507.12 238.47 510.54 239.11 514.52 244.23 516.63 245.4 518.45 248.02 522.61 250.95 524.35 252.62 530.92 256.23 529.99 260.17 528.37 262.23 527.08 266.55 524.87 271.4 524.76 274.12 526.47 276.46 526.23 279.71 527.82 282.34 529.1 282.47 528.84 285.44 529.22 288.67 528.53 289.82 528.87 292.86 529.85 295.69 536.63 303.8 538.35 307 Z" id="25050530"/>
<path d="M 467.83 420.44 468.8 420.21 470.8 428.89 484.58 425.68 487.11 437.03 483.73 437.39 482.36 440.72 481.37 441.08 475.88 445.9 470.31 446.33 470.59 453.39 466.22 453.58 466.37 457.29 462.2 457.73 462.39 459.11 455.28 458.96 452.16 455.46 452.06 452.59 444.58 452.79 441.15 449.94 436.86 447.83 441 440.87 442.82 435.47 443.07 433.24 445.42 418.52 445.86 416.88 447.19 418.25 450.3 419.63 449.83 421.69 450.84 423.41 455.85 423.24 467.83 420.44 Z" id="25050550"/>
<path d="M 522.38 376.74 523.29 382.19 524.66 384.38 523.1 386.43 517.32 390.11 517.25 392.4 515.37 398.24 512.81 396.41 511.31 396.4 509.45 398.2 505.11 398.7 501.92 399.72 499.58 401.15 496.39 404.02 495.69 406.22 492.43 408.49 490.24 412.11 485.72 411.29 482.29 411.52 484.58 425.68 470.8 428.89 468.8 420.21 467.83 420.44 467.28 419.1 462.32 397.61 461.82 394.29 462.17 393.49 468.45 392.41 468.99 391.13 476.23 388.59 478.91 386.67 485.2 383.95 487.58 381.16 489.12 378.41 495.23 374.17 494.83 371.92 495.52 367.79 497.82 367.98 500.9 369.21 502.82 371.08 505.22 369.94 512.48 371.18 513.49 372.97 513.21 375.68 517.5 378.51 520.84 377.82 522.38 376.74 Z" id="25050570"/>
<path d="M 463.73 183.12 462.53 181.45 459.05 178.51 454.15 176.45 448 171.76 446.13 168.15 443.45 165.95 439.76 163.73 439.62 162.46 437.51 158.2 433.86 158.06 432.61 147.94 425.28 148.2 423.77 147.65 423.95 144.14 428.91 144.44 432.29 144.11 444.11 141.52 453.73 139.69 461.49 139.5 459.61 140.77 459.68 142.68 462.95 158.66 463.89 161.5 464.93 166.65 465.46 171.6 464.58 175.79 465 178.96 463.73 183.12 Z" id="25050590"/>
<path d="M 501.31 469.35 497.76 467.43 497.99 463.58 493.31 458.79 493.85 455.07 491.4 452.73 492.18 448.62 490.59 444.41 489.72 443.33 485.6 442.59 484.69 441.08 482.36 440.72 483.73 437.39 487.11 437.03 484.58 425.68 482.29 411.52 485.72 411.29 490.24 412.11 492.43 408.49 495.69 406.22 496.39 404.02 499.58 401.15 501.92 399.72 505.11 398.7 509.45 398.2 511.31 396.4 512.81 396.41 515.37 398.24 515.9 402.68 516.95 405.67 519.19 407.94 517.24 409.52 515.96 413.32 514.89 414.62 514.77 417.14 512.05 422.72 514.41 427.8 514.41 429.82 516.29 430.63 518.16 432.99 519.08 436.08 516.19 439.34 514.81 441.68 508.95 449.31 505.58 456.17 505.69 459.31 501.31 469.35 Z" id="25050620"/>
<path d="M 396.05 140.37 388.62 148.45 387.21 150.73 382.99 155.95 377.06 156.98 374.3 158.4 370.94 161.88 369.86 163.62 368.39 168.27 364.14 174.87 363.6 178.16 364.05 185.33 365.84 188.8 366.69 191.81 369.05 195.35 375.31 198.71 375.3 199.19 372.46 201.27 371.4 204.31 369.99 203.34 363.82 208.64 362.27 210.61 349.77 243.64 344.93 250.04 342.9 249.33 340.12 248.2 336.79 243.98 336.53 241.66 338.27 239.04 335.72 237.39 335 233.89 332.8 233.3 331.89 230.08 330.01 228.96 329.58 226.3 327.85 224.54 323.95 219.21 325.26 214.5 324.14 212.43 321.11 210.81 319.27 208.48 319.22 205.52 314.45 206.98 313.39 209.57 309.43 209.82 307.84 211.78 304.66 212.56 304.2 216.68 305.22 218.15 302.91 221.36 301.47 221.49 298.79 216.95 294.65 213.83 292.29 209.9 288.76 210.13 287.43 211.61 283.08 211.7 279.46 213.66 279.05 214.82 275.81 217.49 270.43 219.75 266.92 225.51 266.64 227.48 263.81 227.04 261.72 227.62 259.93 226.39 252.73 225.7 249.78 223.66 247.44 223.06 245.02 220.79 243.39 221.44 240.56 220.15 239.5 216.18 239.19 212.74 239.94 208.33 238.35 203.76 240.25 202.27 242.17 197.95 244.5 198.3 245.84 195.62 246.03 190.83 247.96 185.98 248.78 181.21 249.67 180.67 250.33 177.65 251.53 177.29 254.33 173.47 256.67 171.35 259.07 170.71 262.66 166.33 265.4 166.91 266.86 166.44 269.95 167.47 272.03 166.65 273.4 164.54 274.38 161.48 278.08 159.05 278.91 156.69 278.16 154.93 278.87 151.89 277.94 148.68 282.52 145.86 283.79 142.68 285.21 141.27 284.58 138.84 283.38 137.62 282.97 134.28 280.52 132.36 281.26 126.03 282.69 123.64 281.44 122.87 281.08 120.23 278.61 115.65 280.31 114.06 281.56 114.72 283.29 113.05 285.48 112.51 287.7 108.89 286.82 105.25 286.05 104.26 287.88 102.36 288.62 99.83 288.03 97.24 290.52 95.24 294.2 94.72 293.72 91.19 295.47 87.61 295.98 85.36 298.08 83.5 298.4 80.18 292.51 74.51 291.24 70.89 289.96 69.56 289.64 67.1 290.53 63.24 289.08 60.04 283.6 57.15 282.7 55.1 283.16 52.17 285.96 48.61 286.16 42.03 288.73 38.2 288.62 33.46 290.83 30.76 297.15 34.73 307.54 38.32 309.09 39.06 311.67 37.93 311.04 34.84 315.9 32.94 320.68 29.06 324.52 25.39 333.09 15.63 340.04 3.22 349 1 356.86 6 369.78 17.76 373.29 21.96 380.37 27.75 390.73 39.51 398.03 47.37 401.02 61.56 401.07 75.52 395.71 89.02 393.26 104.67 394.14 110.36 393.73 115.52 394.2 119.45 388.61 119.43 389.83 122.09 390.58 126.42 390.56 130.48 390.01 135.66 393.01 135.56 396.05 140.37 Z" id="25040610"/>
</g>
</svg>