<?xml version="1.0"?>
<svg xmlns="http://www.w3.org/2000/svg" version="1.2" baseProfile="tiny" width="800" height="1663" viewBox="0 0 800 1663" stroke-linecap="round" stroke-linejoin="round">
<g id="dong">
<path d="M 238.18 651.9 236 669.35 231.79 675.79 231.61 685.6 228.88 690.98 222.25 712.12 218.76 719.61 210.29 726.89 209.08 729.33 201.36 729.4 191.73 728.37 187.01 724.47 174.38 717.66 169.93 723.57 166.67 730.86 160.31 735.83 155.27 732.98 150.14 735.54 151.79 729.9 154.26 727.56 156.85 717.29 160.66 707.59 164.65 699.26 181.88 676.87 190.41 666.87 190.74 664.7 197.75 656.66 211.66 648.41 219.16 642.57 225.79 643.05 238.18 651.9 Z" id="25010600"/>
<path d="M 190.74 664.7 190.41 666.87 181.88 676.87 164.65 699.26 160.66 707.59 156.1 704.93 154.86 700.29 144.85 694.34 133.88 693.16 131.78 686.27 126.73 677.4 131.14 669.55 135.81 677.35 140.87 673.21 136.69 665.98 138.34 665.01 139.34 657.99 139.08 649.25 137.45 635.9 133.27 635.8 134.2 620.06 131.82 614.63 153.12 605.26 157.36 604.25 176.89 641.46 190.74 664.7 Z" id="25010630"/>
<path d="M 429.32 3.87 414.68 39.48 415.84 50.97 423.39 70.58 434.81 95.78 445.2 110.82 447.65 116.9 452.29 132.66 454.73 138.43 455.63 158.17 457.46 166.38 468.58 182.3 471.08 187.26 480.35 211.67 496.38 214.62 515.97 214.11 523.83 211.67 532.1 200.21 535.36 187.26 545.86 139.16 550.79 117.7 559.72 117.55 567.72 124.79 568.17 126.54 575.69 132.85 580.45 135.33 581.71 131.13 586.07 123.56 593.5 121.39 598.46 113.18 602.24 110.92 607.11 112.95 608.24 115.77 613.74 121.03 613.3 126.64 625.82 126.9 628.97 135.42 632.31 139.29 636.38 139.9 647.89 138.59 654.95 139.31 661.93 138.39 664.42 140.93 670.78 137.51 671.52 133.87 675.74 131.19 678.27 132.92 688.3 129.54 702.92 138.5 700.64 162.84 706.53 187.26 721.36 209.25 727.23 209.53 737.33 216.39 746.21 220.63 755.02 231.63 763.4 260.5 773.51 267.97 784.89 271.7 794.01 269.54 799 280.6 796.17 283.34 786.73 286.85 785.64 289.98 773.94 301.29 766.31 302.86 760.55 301.01 753.54 302.54 752.02 301.26 746.2 290.05 738.24 288.98 728.95 293.15 724.75 292.54 716.83 295.03 711.1 295.45 708.33 289.31 697.99 288.13 692.4 288.63 690.31 284.43 686.67 288.2 677.28 303.45 665.56 306.28 658.12 312.57 655.47 325.25 646.45 330.93 640.96 328.36 637.29 330.06 631.63 336.56 633.53 341.56 627.58 343.82 619.34 353.14 613.16 355.46 609.13 354.23 607.25 361.36 612.68 369.69 608.56 379.32 610.17 390.58 609.6 395.39 611.9 401.92 611.51 407.06 614.7 412.06 613.14 414.22 614.05 421.68 609.24 429.04 609.88 439.33 614.63 445.8 615.39 455.35 615.04 464.37 618.78 472.3 616.31 479.72 615.6 486.23 610.07 490.33 609.3 496.54 605.3 500.52 607.15 502.59 609.55 515.97 606.93 519.9 606.44 526.36 607.51 530.49 602.72 537.84 603.27 540.26 599.66 543.87 598.55 550.6 594.16 554.97 600.19 565.34 596.44 579.05 592.15 582.99 585.85 598.72 580.01 606.04 576.31 606.79 570.97 610.31 567.69 614.84 570.53 621.04 568.66 621.95 560.38 617.49 555.58 623.57 552.26 625.31 546.9 624.81 543.31 627.46 539.6 634.96 532.01 633.88 530.46 631.55 524.17 630.52 514.9 633.93 514.7 640.01 517.6 643.65 518.36 654.55 511.1 657.51 509.88 659.71 499.02 662.56 500.96 669.86 486.16 674.02 481.59 676.21 477.33 681.49 477.29 691.82 482.96 702.25 480.32 711.66 481.53 716.92 479.53 724.62 483.95 732.28 482.32 739.51 483.88 743.16 483.63 751.35 486.72 759.19 485.75 761.32 490.39 768.87 490.96 774.07 483.22 792.95 480.02 794.71 474.77 806.99 452.89 813.1 457.79 816.03 458.59 826.16 463.16 836.55 462.4 841.54 458.29 847.25 458.25 850.25 454.11 855.37 452.14 859.99 444.51 862.64 442.86 865.84 448.31 868.65 454.29 875.74 455.55 882.61 459.41 890.15 465.46 894.04 465.75 899.05 468.68 901.9 469.83 909.26 467.21 914.24 463.59 916.11 463.05 923.05 460.23 937.07 454.69 944.08 453.82 951.75 447.06 942.5 443.55 940.76 434.01 948.22 420.16 944.34 413.64 937.59 411.74 937.62 400.97 946.31 392.7 944.48 387.67 948.82 382.15 945.97 375.57 947.82 370.12 946.43 367.06 943.59 363.78 939.94 362.6 933.8 365.17 915.57 369.19 905.5 368.2 898.29 372.67 894.25 369.36 887.34 370.56 884.04 369.61 878.93 370.72 874.83 369.33 871.17 378.72 864.94 375.39 856.95 377.45 853.55 380.9 840.51 377.71 834.89 376.47 828.44 372.04 823.4 372.07 817.61 369.25 812.33 368.35 806.34 364.93 797.69 364.45 784.55 368.4 775.81 363.83 772.03 367.19 759.81 372.07 751.23 368.44 750.26 372.74 742.39 371.9 735.05 372.97 731.52 370.83 724.44 370.82 718.91 372.73 716 369.78 711.48 361.26 714.96 357.68 720.04 339.49 736.22 331.89 743.83 312.94 738.91 311.87 731.88 313.47 726.54 321.06 714.43 320.1 703.38 311.2 701.53 308.94 689.26 298.56 680.42 301.88 659.87 297.17 655.22 293.42 656.26 286.15 650.53 281.19 643.5 282.3 638.87 281.45 634.37 277.57 629.8 279.03 622.6 276.62 614.38 278.35 608.08 277.05 604.61 282.29 599.48 279.75 586.54 280.18 575.31 284.72 564.26 284.6 561.01 287.94 554.94 286.13 549.34 287.52 536.87 275.6 532.24 272.65 528.84 269.26 515.91 264.35 509.3 258.58 496.32 257.8 491.44 254.24 488.5 254.18 485.27 250.84 481.38 245.04 481.15 242.1 476.08 238.74 457.56 230.48 447.66 230.75 442.48 226.54 437.33 222.64 434.61 222.47 427.59 216.15 425.18 210.35 416.59 207.42 411.89 205.46 400.21 210.33 395.1 216.95 383.46 215.33 380.07 216.98 373.29 225.27 361.18 224.35 352.73 227.63 347.06 221.45 338.92 222.71 334.16 221.35 331.12 222.14 323.59 221.47 310.48 223.74 298.78 228.04 283.71 226.93 279.98 227.47 271.33 230.63 265.31 235.93 261.45 240.04 254.84 239.73 250.64 243.33 246.5 254.1 241.04 257.84 240.47 267.82 226.89 275.23 224.3 279.51 219.43 288.5 213.7 294.48 204.01 297.59 204.48 300.1 197.03 309.98 185.25 322.03 167.65 323.2 162.21 327.15 158.03 332.2 150.5 326.17 142.1 329.28 138.05 340.18 142.44 344.08 128.89 350.35 121.17 351.2 114.76 359.78 98.69 360.27 93.46 363.01 91.42 368.11 81.56 366.59 78.34 367.3 70.7 370.26 63.25 372.47 61.19 375.81 53.88 383.64 43.91 384.24 40.91 390.46 31.9 403.24 9.93 406.75 6.7 409.74 7.9 414.87 5.46 419.7 1 429.32 3.87 Z" id="25010730"/>
<path d="M 300.6 921.46 307.48 930.93 312.74 930.11 321.26 935.11 324.85 935.4 330.92 939.27 341.48 947.65 351.67 950.3 363.69 949.82 367.06 943.59 370.12 946.43 375.57 947.82 382.15 945.97 387.67 948.82 392.7 944.48 400.97 946.31 411.74 937.62 413.64 937.59 420.16 944.34 434.01 948.22 429.65 952.65 428.65 965.3 427.49 971.01 431.04 973.92 435.7 981.74 436.23 985.06 443.44 998.93 449.26 1012.68 451.69 1014.74 450.83 1018.64 452.87 1030.45 463.03 1038.9 464.08 1051.37 470.67 1062.26 468.91 1065.57 468.22 1074.21 461.52 1080.8 458.71 1088.42 450.91 1094.7 438 1108.29 436.03 1113.99 428.75 1119.12 427 1122.83 419.31 1128.12 414.91 1132.8 418.36 1147.04 423.3 1162.16 421.21 1166.36 412.78 1170.02 409.38 1182.96 408.2 1196.13 406.44 1197.07 405.05 1204.22 401.74 1206.45 400.46 1210.51 402.72 1214.61 400.85 1220.81 401.99 1224.27 407.16 1227.32 409.66 1231.28 416.41 1230.02 420.85 1232.5 422.19 1236.91 419.57 1246.35 420.43 1252.39 424.47 1259.31 421.37 1260.84 414.43 1269.14 409.35 1276.91 415.85 1295.17 414.61 1303.26 418.51 1306.59 419.44 1313.62 424.18 1320.44 432.35 1319.28 435.44 1324.59 437.62 1333.51 435.26 1337.98 440.47 1347.03 440.1 1354.06 437.41 1357.73 437.08 1368.11 436.9 1372.38 431.01 1371.34 422.81 1373.99 419.65 1383.25 423.21 1390.88 422.93 1398.47 417 1401.14 414.72 1404.93 408.25 1402.78 400.05 1408.93 397.35 1408.99 387.78 1419.81 377.78 1419.49 365.84 1421.51 356.59 1424.63 358.44 1433.91 357.37 1443.6 351.08 1449.49 347.98 1448.89 339.89 1453.62 337.89 1456.7 327.5 1458.91 324.98 1457.69 319.11 1459.24 315.64 1466.57 310.08 1467.16 302.28 1469.81 298.9 1474.5 299 1479.43 301.61 1481.68 299.8 1488.18 299.99 1499.82 301.71 1503.46 301.98 1510.34 310.65 1517.37 311.89 1522.55 308.02 1527.22 292.92 1530.71 288.29 1528.84 279.6 1531.02 278.77 1532.92 272.68 1533.27 264.25 1538.49 260.69 1538.54 258.81 1549.71 254.67 1556.76 255.07 1560.06 246.33 1565.93 243.23 1566.64 233 1571.76 227.27 1578.79 226.9 1581.59 234.55 1595.3 239.58 1601.79 237.51 1610.33 236.87 1618.8 230.99 1620.9 223.1 1626.36 217.07 1629.38 214.79 1634.51 208.61 1634.32 204.05 1641.76 199.23 1644.34 197.7 1648.53 190.03 1649.91 181.97 1653.57 179.62 1656.34 175.47 1656.69 170.19 1662 165.91 1661.9 155.96 1661.84 154 1649.57 146.62 1644.85 139.98 1645.91 134.86 1641.9 131.89 1636.67 128.5 1637.77 123.83 1636.05 120.36 1637.61 114.27 1636.36 110.84 1625.97 107.28 1618.56 101.27 1612.37 99.77 1598.84 96.97 1598.17 91.24 1591.56 83.21 1592.16 75.27 1586.72 70.37 1587.58 67.43 1586.01 59.85 1585.29 54.73 1577.59 52.54 1572.37 59.12 1560.87 63.25 1558.67 73.32 1548.26 69.45 1539.09 60.49 1532.75 65.22 1527.13 67.87 1517.26 72.16 1511.97 71.23 1506.54 75.83 1501.81 73.34 1499.8 73.02 1493.41 68.85 1480.77 72.72 1475.9 69.37 1461.5 70.14 1455.66 61.48 1450.16 61.32 1439.26 65.31 1434.91 72.06 1430.25 76.37 1429.36 85.06 1431.48 92 1437.28 100.28 1442.58 108.45 1441.15 115 1438.36 116.86 1428.3 122.51 1424.07 135.81 1407.49 136.85 1404.51 134.45 1389.18 136.61 1381.63 136.03 1378.51 141.55 1375.03 155.27 1370.17 158.8 1371.62 161.43 1367.44 166.37 1365.14 161.1 1361.64 158.29 1354.47 161.16 1344.35 161.33 1337.69 158.57 1331.97 160.35 1325.5 150.32 1323.57 143.54 1316.78 136.86 1305.7 136.63 1301.63 133.31 1293.4 125.09 1288.67 122.31 1288.97 121.28 1277.79 124.6 1269.56 112.56 1261.09 107.25 1260.63 100.01 1261.93 92.6 1261.82 76.95 1257.84 82.63 1252.95 80.55 1249.8 80.69 1243.42 84.52 1243.84 92.19 1240.7 91 1224.51 88.89 1222.98 89.16 1210.03 95.52 1209.09 108.65 1191.4 109.56 1187.51 112.71 1184.33 127.03 1175.69 132.6 1169.7 138 1167.21 137.66 1161.06 145.05 1150.69 143.83 1146.24 137.92 1140.27 135.38 1135.6 135.11 1130.09 130.91 1127.57 130.86 1122.28 129.14 1118.58 122.1 1117.31 112.52 1114.33 110.17 1101.13 104.7 1091.98 105.12 1089.58 113.93 1083.03 121.9 1073.51 118.6 1068.27 110.22 1065.68 101.04 1054.47 97.57 1052.61 96.83 1041.82 91.26 1033.98 86.96 1033.58 82.29 1030.92 77.39 1026.18 76.39 1021.11 77.78 1010.31 80.06 1003.87 83.62 1003.03 92.35 1007.83 99.09 1008.41 106.69 1011.52 115.42 1008.62 118.11 1001.96 124.97 997.72 131.65 1000.21 134.75 998.81 140.97 990.55 140.4 989.32 151.17 981.91 153.52 971.53 159.56 977 164.33 979.15 179.13 974.05 181.57 971.04 186.74 975.7 187.21 984.61 186.05 988.7 190.97 996.87 191.61 1002.85 195.93 1002.87 199 998.95 201.15 993.33 207.2 990.71 217.56 993.85 222.8 992.94 230.54 993.43 235.81 998.07 242.75 988.7 247.58 997.14 250.38 992.96 246.42 991.23 241.3 981.06 240.03 976.01 240.01 968.54 236.16 960.91 234.3 944.72 231.66 939.89 237.55 937.34 233.12 932.05 248.71 918.5 250.6 923.84 255.43 921 258 926.14 266.53 924.77 275.9 926.96 278.38 929.42 286.71 924.75 291.28 920.53 300.6 921.46 Z" id="25010750"/>
<path d="M 160.66 707.59 156.85 717.29 154.26 727.56 151.79 729.9 150.14 735.54 149.65 739.35 141.92 751 145.95 757.69 137.12 761.46 131.85 764.66 135.59 779.35 126.13 783.66 119.37 768.07 105.48 774.87 95.78 760.93 85.93 745.94 75.37 736.6 66.08 727.02 82.41 716.97 99.47 703.6 104.82 700.59 109.96 703.87 112.34 709.4 117.51 708.68 125.49 698.21 133.88 693.16 144.85 694.34 154.86 700.29 156.1 704.93 160.66 707.59 Z" id="25010760"/>
<path d="M 135.59 779.35 138.09 783.5 142.49 781.73 141.11 772.67 149.78 771.37 152.67 774.3 160.46 770.62 163.29 775.25 171.17 771.97 177.57 785.92 181.77 790.03 184.36 787.66 188.65 792.19 186.01 794.6 190.27 799.33 194.17 801.41 188.94 811.05 185.36 812.7 195.83 818.58 190.45 817.71 180.11 816.41 170.52 823.18 167.19 823.13 153.05 818.96 146.68 821.86 141.77 821.84 133.3 824.41 129.73 814.6 122.26 802.89 117.76 797.64 109.97 782.46 105.48 774.87 119.37 768.07 126.13 783.66 135.59 779.35 Z" id="25010770"/>
<path d="M 209.08 729.33 212.47 735.11 209.35 746.23 204.53 750.86 203.22 755.27 196.66 760.21 196.02 762.3 189.19 759.32 186.05 760.7 187.02 772.72 194 778.67 186.55 785.65 184.36 787.66 181.77 790.03 177.57 785.92 171.17 771.97 163.29 775.25 160.46 770.62 152.67 774.3 149.78 771.37 141.11 772.67 142.49 781.73 138.09 783.5 135.59 779.35 131.85 764.66 137.12 761.46 145.95 757.69 141.92 751 149.65 739.35 150.14 735.54 155.27 732.98 160.31 735.83 166.67 730.86 169.93 723.57 174.38 717.66 187.01 724.47 191.73 728.37 201.36 729.4 209.08 729.33 Z" id="25010780"/>
<path d="M 131.78 686.27 124.2 690.39 122.07 686.08 115.49 679.56 114.84 675.27 109.46 670.33 98.47 668.75 97.55 673.47 95.07 675.7 99.45 683.7 95.77 688.85 88.82 677.17 78.99 666.72 70.45 661.08 53.58 654 65.73 653.7 69.84 654.99 77.2 652.73 101.18 628.17 131.82 614.63 134.2 620.06 133.27 635.8 137.45 635.9 139.08 649.25 139.34 657.99 138.34 665.01 136.69 665.98 140.87 673.21 135.81 677.35 131.14 669.55 126.73 677.4 131.78 686.27 Z" id="25010790"/>
<path d="M 131.78 686.27 133.88 693.16 125.49 698.21 117.51 708.68 112.34 709.4 109.96 703.87 104.82 700.59 99.47 703.6 82.41 716.97 66.08 727.02 62.12 724.4 58.17 712.4 52.91 705.67 40.08 695.75 34.4 686.1 21.36 682.74 13.57 678.48 8.35 672.62 1 652.44 19.22 647.36 27.65 646.82 41.98 649.29 53.58 654 70.45 661.08 78.99 666.72 88.82 677.17 95.77 688.85 99.45 683.7 95.07 675.7 97.55 673.47 98.47 668.75 109.46 670.33 114.84 675.27 115.49 679.56 122.07 686.08 124.2 690.39 131.78 686.27 Z" id="25010800"/>
<path d="M 281.19 643.5 286.15 650.53 293.42 656.26 297.17 655.22 301.88 659.87 298.56 680.42 308.94 689.26 311.2 701.53 320.1 703.38 321.06 714.43 313.47 726.54 311.87 731.88 312.94 738.91 310.86 742 313.71 749.28 313.23 754.01 304.89 766.27 306.48 771.82 301.68 781.85 301.33 785.08 297.03 790.17 296.04 796.69 289.03 800.88 282.13 800.45 269.69 802.66 268.91 796.38 263.75 796.98 258.91 794.28 245.49 776.26 240.4 782.65 234.05 780.73 227.85 781.73 223.57 790.25 215.72 780.34 205.69 777.72 199.75 781.56 196.56 788.21 186.55 785.65 194 778.67 187.02 772.72 186.05 760.7 189.19 759.32 196.02 762.3 196.66 760.21 203.22 755.27 204.53 750.86 209.35 746.23 212.47 735.11 209.08 729.33 210.29 726.89 218.76 719.61 222.25 712.12 228.88 690.98 231.61 685.6 231.79 675.79 236 669.35 238.18 651.9 243.05 647.49 251.52 647.94 254.68 643.53 258.9 642.21 273.53 646.55 281.19 643.5 Z" id="25010570"/>
<path d="M 152.63 594.7 150.75 597.54 153.4 600.18 153.12 605.26 131.82 614.63 101.18 628.17 102.13 613.43 86.02 612.12 81.46 611.03 78.82 593.33 76.73 576.87 76.34 573.89 85.28 572.96 84.96 564.99 94.33 564.6 93.73 549.45 105.69 548.54 117.46 538.19 119.59 537.42 124.59 538.2 126.54 541.44 135.38 543.02 137.26 545.34 140.67 554.35 138.99 563.17 144.25 568.2 143.08 576.17 153.13 586.44 152.63 594.7 Z" id="25010650"/>
<path d="M 190.45 817.71 193.11 824.86 198.83 828.28 200.27 834.96 205.67 841.5 204.28 850.29 202.45 853.97 199.88 864.48 199.72 868.87 204.61 873.66 209.36 868.89 214.98 870.1 224.42 865.89 225.13 861.8 235.73 862.13 238.16 868.72 242.54 867.25 243.27 864.17 248.06 864.16 250.96 866.93 276.15 859.15 283.23 865.96 284.67 871.85 294.05 887.58 294.29 905.19 293.2 908.1 296.65 912.16 300.6 921.46 291.28 920.53 286.71 924.75 278.38 929.42 275.9 926.96 266.53 924.77 258 926.14 255.43 921 250.6 923.84 248.71 918.5 233.12 932.05 237.55 937.34 231.66 939.89 220.35 933.8 209.94 923.24 207.62 917.15 199.79 905.25 193.73 897.7 192.53 885.22 188.02 880 180.25 875.86 166.98 874.29 160.01 871.83 148.86 865.61 147.62 863.32 140.81 846.47 137.78 832.98 133.3 824.41 141.77 821.84 146.68 821.86 153.05 818.96 167.19 823.13 170.52 823.18 180.11 816.41 190.45 817.71 Z" id="25010530"/>
<path d="M 367.06 943.59 363.69 949.82 351.67 950.3 341.48 947.65 330.92 939.27 324.85 935.4 321.26 935.11 312.74 930.11 307.48 930.93 300.6 921.46 296.65 912.16 293.2 908.1 294.29 905.19 294.05 887.58 284.67 871.85 283.23 865.96 276.15 859.15 250.96 866.93 248.06 864.16 243.27 864.17 242.54 867.25 238.16 868.72 235.73 862.13 225.13 861.8 224.42 865.89 214.98 870.1 209.36 868.89 204.61 873.66 199.72 868.87 199.88 864.48 202.45 853.97 204.28 850.29 205.67 841.5 200.27 834.96 198.83 828.28 193.11 824.86 190.45 817.71 195.83 818.58 201.79 820.76 212.71 827.52 226.76 834.45 236.29 834.68 237.27 825.36 241.04 814.22 247.03 815.9 250.95 818.86 257.31 810.91 263.85 804.9 269.69 802.66 282.13 800.45 289.03 800.88 296.04 796.69 297.03 790.17 301.33 785.08 301.68 781.85 306.48 771.82 304.89 766.27 313.23 754.01 313.71 749.28 310.86 742 312.94 738.91 331.89 743.83 339.49 736.22 357.68 720.04 361.26 714.96 369.78 711.48 372.73 716 370.82 718.91 370.83 724.44 372.97 731.52 371.9 735.05 372.74 742.39 368.44 750.26 372.07 751.23 367.19 759.81 363.83 772.03 368.4 775.81 364.45 784.55 364.93 797.69 368.35 806.34 369.25 812.33 372.07 817.61 372.04 823.4 376.47 828.44 377.71 834.89 380.9 840.51 377.45 853.55 375.39 856.95 378.72 864.94 369.33 871.17 370.72 874.83 369.61 878.93 370.56 884.04 369.36 887.34 372.67 894.25 368.2 898.29 369.19 905.5 365.17 915.57 362.6 933.8 363.78 939.94 367.06 943.59 Z" id="25010550"/>
<path d="M 269.69 802.66 263.85 804.9 257.31 810.91 250.95 818.86 247.03 815.9 241.04 814.22 237.27 825.36 236.29 834.68 226.76 834.45 212.71 827.52 201.79 820.76 195.83 818.58 185.36 812.7 188.94 811.05 194.17 801.41 190.27 799.33 186.01 794.6 188.65 792.19 184.36 787.66 186.55 785.65 196.56 788.21 199.75 781.56 205.69 777.72 215.72 780.34 223.57 790.25 227.85 781.73 234.05 780.73 240.4 782.65 245.49 776.26 258.91 794.28 263.75 796.98 268.91 796.38 269.69 802.66 Z" id="25010560"/>
<path d="M 277.05 604.61 278.35 608.08 276.62 614.38 279.03 622.6 277.57 629.8 281.45 634.37 282.3 638.87 281.19 643.5 273.53 646.55 258.9 642.21 254.68 643.53 251.52 647.94 243.05 647.49 238.18 651.9 225.79 643.05 219.16 642.57 211.66 648.41 197.75 656.66 190.74 664.7 176.89 641.46 157.36 604.25 153.12 605.26 153.4 600.18 150.75 597.54 152.63 594.7 160.26 598.83 173.43 605.07 177.82 594.72 175.76 594.33 177.73 585.69 181.03 587.2 183.33 583.27 192.76 587.58 194.76 582.88 225.14 580.08 221.49 588.3 227.12 589.77 246.28 590.03 248.64 595.44 265.28 599.6 274.84 605.02 277.05 604.61 Z" id="25010640"/>
<path d="M 101.18 628.17 77.2 652.73 69.84 654.99 65.73 653.7 53.58 654 41.98 649.29 27.08 635.79 32.35 626.64 33.29 622.53 46.37 621.27 59.21 620.68 64.2 616.14 68.43 606.05 71.14 601.76 75.73 597.73 75.17 593.93 78.82 593.33 81.46 611.03 86.02 612.12 102.13 613.43 101.18 628.17 Z" id="25010680"/>
</g>
</svg>