<?xml version="1.0"?>
<svg xmlns="http://www.w3.org/2000/svg" version="1.2" baseProfile="tiny" width="800" height="1539" viewBox="0 0 800 1539" stroke-linecap="round" stroke-linejoin="round">
<g id="dong">
<path d="M 266.03 402.92 249.8 408.15 219.82 418.03 210.85 387.09 190.26 396.58 178.81 395.93 171.04 399.68 165.89 384.55 165.3 368.5 208.84 354.78 223.68 306.85 236.35 302.51 266.03 402.92 Z" id="25020650"/>
<path d="M 399.07 162.54 426.37 138.02 438.64 125.75 420.74 121.22 418.01 114.32 421.77 103.77 434.18 110.55 454.96 115.9 464.01 131.28 484.45 147.08 492.82 157.8 499.11 176.92 505.42 181.09 520.22 196.36 537.05 211.23 552.74 235.11 520.12 249.72 508.9 226.33 471.3 243.74 474 250.2 463.92 258.4 444.21 277.69 428.55 287.32 414.46 288.98 413.13 279.57 419.85 276.03 407.4 255.94 401.92 259.73 394.91 251.95 394.81 248.06 404.28 242.67 403.41 238.65 404.97 228.88 400.7 220.58 401.71 204.86 405.16 193.48 412.44 193.07 414.39 181.86 417.28 178.1 399.07 162.54 Z" id="25020510"/>
<path d="M 552.74 235.11 568.18 257.32 575.33 269.41 569.47 272.16 573.77 280.69 558.64 287.27 554.08 275.73 550.2 277.02 556.21 294.24 560.69 299.08 560.63 306.98 556.11 317.5 556.2 320.79 519.48 338.01 513.27 337.99 507.73 341.96 494.89 338.21 481.77 342.21 473.13 342.91 468.24 347.73 455.05 348.12 445.76 345.01 438.41 338.49 442.3 307.19 441.75 296.4 428.19 296.04 428.55 287.32 444.21 277.69 463.92 258.4 474 250.2 471.3 243.74 508.9 226.33 520.12 249.72 552.74 235.11 Z" id="25020550"/>
<path d="M 769.17 520.2 773.39 527.9 776.35 553.69 782.48 565.86 782.51 577.75 784.53 585.8 792.68 602 799 604.75 794.55 611.4 786.84 597.97 775.8 612.89 767.4 605.49 755.07 604.72 746.72 606.17 730.22 601.17 720.58 605.34 717.15 614.3 712.27 620.55 705.38 620.5 704.37 610.99 696.53 597.96 698.37 591.46 697.62 577.25 689.38 569.83 685.5 574.63 661.93 582.74 654.33 579.32 644.7 570.61 640.96 587.15 623.8 598.95 624.72 600.91 614.81 614.07 609.87 616.3 599.23 612.33 588.3 619.09 584.02 629.7 570.11 634.32 558.01 629.36 547.26 628.43 533.36 620.8 527.69 622.12 511.1 616.82 506.08 606.64 505.89 594.58 500.37 588.07 490.69 586.51 483.61 578.37 479.57 577.89 479.38 570.49 486.6 549.75 492.46 550.71 503.56 543.63 509.43 537.93 511.94 528.66 519.23 525.43 533.37 525.62 529.88 519.88 528.54 508.28 534.6 503.58 542.24 493.25 552.49 485.34 555.6 478.81 566.06 468.07 570.92 459.89 574.94 459.81 591.91 451.68 595.86 446.58 602.2 428.47 611.07 434.11 623.06 414.47 633.28 397.58 635.31 398.23 637.29 401.87 655.05 411.78 666.15 415.7 687.29 418.2 699.66 424.79 706.85 433.12 708.77 453 718.41 465.02 730.89 483.98 734.59 493.68 751.16 510.51 769.17 520.2 Z" id="25020570"/>
<path d="M 556.2 320.79 559.98 326.34 550.57 334.41 523.94 347.69 527.88 354.91 524.45 364.98 524.86 376.33 531.31 383.58 530.69 409.21 518.72 411.83 522.53 422.91 519.55 436.32 509.09 443.35 508.42 455.41 510.55 462.08 521.65 485.24 522 493.61 528.54 508.28 529.88 519.88 533.37 525.62 519.23 525.43 511.94 528.66 509.43 537.93 503.56 543.63 492.46 550.71 486.6 549.75 478.3 525.98 468.13 520.6 463.96 513.05 447.7 508.45 443.81 505.5 431.98 504.09 430.49 497.46 432.73 485.63 427.81 461.32 431.37 453.07 432.41 437.84 426.21 428.37 431.03 421.21 433.91 408.35 438.06 404.61 437.34 398.46 444.2 389.56 439.71 384.81 421.39 371.22 406.59 366.02 406.72 353.6 404.46 344.94 412.55 337.96 414.48 319.23 420.92 319.71 424.43 315.53 419.37 310.29 428.19 296.04 441.75 296.4 442.3 307.19 438.41 338.49 445.76 345.01 455.05 348.12 468.24 347.73 473.13 342.91 481.77 342.21 494.89 338.21 507.73 341.96 513.27 337.99 519.48 338.01 556.2 320.79 Z" id="25020580"/>
<path d="M 249.8 408.15 257.69 435.12 250.34 439.14 248.86 444.21 240.87 447.83 238.31 452.57 249.38 469.29 257.6 464.92 255.85 489.46 272.31 493.34 280.24 504.63 290.26 511.58 302.18 505.08 313.5 504.15 313.22 516.23 318.24 523.39 327 526.73 332.97 518.14 348.02 518.61 363.88 505.19 382.67 514.16 389.86 522.75 401.51 528.88 419.34 543.4 428.46 544.51 429.83 552.34 439.28 568.61 441.67 580.35 447.3 587.19 453.37 580.49 468.51 581.76 479.57 577.89 483.61 578.37 490.69 586.51 500.37 588.07 505.89 594.58 506.08 606.64 511.1 616.82 527.69 622.12 524.05 632.39 521.84 649.59 523.45 657.67 531.24 665.22 538.68 669.45 545.53 670.1 554.41 682.59 555.59 699.77 561.11 702.74 575.74 720.6 589.08 724.72 594.34 733.07 581.64 748.23 567.62 758.68 566.94 762.49 575.66 777.08 579.39 798.09 594.66 802.84 605.88 804.87 608.61 810.76 608.69 819.19 615.39 823.21 615.81 831.98 619.87 839.42 629.28 848.94 631.22 856.02 619.44 872.55 619.99 882.34 611.38 886.31 602.52 895.85 579.7 909.61 574.69 914.68 573.23 920.87 552.32 949.05 542.18 950.56 541.76 971.18 545.11 973.62 547.01 999.42 534.8 1004.42 528.7 1003.74 528.48 1013.91 531.78 1018.93 522.74 1026.73 547.67 1033.05 559.47 1033.24 571.01 1031.17 579.46 1031.9 598.63 1045.39 593.35 1058.5 594.99 1076.32 599.41 1075.83 612.51 1083.37 617.8 1096.49 618.18 1102.96 628.8 1120.61 639.61 1131.43 655.59 1134.5 652.75 1144.82 657.15 1153.92 656.89 1164.54 652.31 1180.66 656.78 1192.08 665.18 1197.66 657.31 1201.32 653.12 1207.98 647.49 1205.66 625.64 1213.41 616.85 1218.95 617.77 1223.93 614.34 1235.96 618.15 1260.38 616.49 1265.13 595.31 1291.53 586.31 1298.27 583.35 1314.3 572.91 1318.74 559.89 1321.02 546.71 1312.58 535.65 1303.33 521.82 1299.96 514.95 1301.37 504.19 1308.81 497.84 1315.73 498.1 1333.1 511.89 1341.86 510.67 1351.17 516 1374.11 509.83 1381.87 516.48 1402 516.99 1412.18 520.95 1415.37 513.62 1422.92 515.11 1431.56 508.27 1440 504.05 1455.71 496.52 1464.66 510.79 1474.77 516.96 1489.37 500.91 1505.96 494.34 1509.46 483.85 1527.78 465.96 1529.12 459.61 1538 438.74 1523.98 425.12 1519.41 418.58 1513.92 414.88 1507.44 404.39 1501.88 394.14 1492.19 375.8 1489.16 368.13 1481.24 358.26 1476.22 364.61 1465.21 365.76 1455.84 375.67 1443.54 381.18 1433.84 381.03 1425.85 375.57 1419.91 372.55 1410.16 364.09 1401.42 361.18 1393.03 353.68 1384.43 337.93 1382.52 327.86 1373.4 327.6 1368.03 322.2 1356.65 309.45 1336.23 306.56 1324.33 295.5 1290.6 296.88 1281.37 293.96 1270.96 295.39 1260.86 281.15 1264.52 268.95 1262.14 264.98 1267.64 257.91 1269.14 252.65 1264.39 236.09 1264.79 225.91 1256.38 217.54 1256.37 213.18 1252.66 198.17 1255.83 192.78 1251.27 176.74 1247.57 174.14 1236.7 177.37 1226.11 175.85 1213.75 191.28 1204.6 196.22 1194.87 202.97 1189.5 205.35 1177.75 199.24 1165.22 207.1 1154.54 201.13 1144.08 196.18 1141.68 186.44 1131.12 181.02 1120.9 183.68 1115.75 173.76 1090.84 176.44 1086.87 171.34 1072.78 167.89 1069.36 171.23 1054.73 169.08 1049.54 171.94 1041.74 177.97 1033.56 183.55 1030.94 187.21 1022.79 191.83 1003.77 188.32 990.65 192.51 977.18 198.47 975.61 202.72 958.22 201 944.08 196.8 938.57 191.8 937.71 149.59 896.9 136.15 875.04 117.93 875.12 118.69 866.24 112.29 864.82 108.86 860.15 90.25 845.08 84.38 846.83 68.27 840.03 60.33 840.74 52.21 837.65 45.07 837.79 49.87 811.64 43.49 807.4 41.08 800.58 34.48 793.83 36.49 787.41 33.68 780.44 36.82 775.38 36.33 758.99 30.66 757.85 28.95 750.27 23.52 745.78 24.19 740.91 16.77 732.77 16.52 720.71 11.27 719.38 6.98 712.4 5.89 705.02 1 700.42 3.31 689.19 14.47 690.01 22.77 682.69 24.6 675.96 23.06 665.68 27.73 661.94 23.1 654.29 20.97 645.06 29.16 642.46 35.15 631.03 47.27 630.2 46.17 624.16 51.41 609.76 74.61 612.79 79.25 608.79 95.32 613.34 96.78 604.58 103.89 601.65 114.18 589.26 126.31 565.87 129.35 543.91 127.03 523.61 118.54 505.01 114.04 485.88 111.62 483.73 136.76 459.1 149.27 442.03 165.25 423.29 170.21 414.39 171.04 399.68 178.81 395.93 190.26 396.58 210.85 387.09 219.82 418.03 249.8 408.15 Z" id="25020690"/>
<path d="M 486.6 549.75 479.38 570.49 479.57 577.89 468.51 581.76 453.37 580.49 447.3 587.19 441.67 580.35 439.28 568.61 429.83 552.34 428.46 544.51 419.34 543.4 401.51 528.88 389.86 522.75 382.67 514.16 363.88 505.19 372.07 491.51 370.53 483.58 366 477.59 369.04 461.29 373.61 452.51 366.68 448.14 359.47 447.83 355.73 442.45 355.98 433.99 346.29 430.48 327.55 412.89 320.82 399.05 324.72 387.21 317.31 384.77 305.95 386.47 309.34 373.9 315.55 331.31 315.36 322.55 342.91 313.43 387.84 297.39 393.4 294.7 414.46 288.98 428.55 287.32 428.19 296.04 419.37 310.29 424.43 315.53 420.92 319.71 414.48 319.23 412.55 337.96 404.46 344.94 406.72 353.6 406.59 366.02 421.39 371.22 439.71 384.81 444.2 389.56 437.34 398.46 438.06 404.61 433.91 408.35 431.03 421.21 426.21 428.37 432.41 437.84 431.37 453.07 427.81 461.32 432.73 485.63 430.49 497.46 431.98 504.09 443.81 505.5 447.7 508.45 463.96 513.05 468.13 520.6 478.3 525.98 486.6 549.75 Z" id="25020670"/>
<path d="M 315.36 322.55 313.17 307.28 306.66 285.69 290.34 230.62 280.84 197.03 281.51 180.94 282.87 183.32 334.65 235.26 393.4 294.7 387.84 297.39 342.91 313.43 315.36 322.55 Z" id="25020620"/>
<path d="M 306.66 285.69 295.02 289.31 293.53 284.15 249.44 298.31 238 258.28 270.98 170.14 281.51 180.94 280.84 197.03 290.34 230.62 306.66 285.69 Z" id="25020630"/>
<path d="M 306.66 285.69 313.17 307.28 315.36 322.55 315.55 331.31 309.34 373.9 305.95 386.47 305.06 388.83 266.03 402.92 236.35 302.51 249.44 298.31 293.53 284.15 295.02 289.31 306.66 285.69 Z" id="25020660"/>
<path d="M 399.07 162.54 417.28 178.1 414.39 181.86 412.44 193.07 405.16 193.48 401.71 204.86 400.7 220.58 404.97 228.88 403.41 238.65 393.08 232.98 375.77 228.07 366.79 221.56 359.11 207.66 346.67 200.12 338.44 186.31 333.91 190.85 325.82 188.51 321.8 180.36 318.37 165.26 312.34 163.57 307.48 156.81 305.41 149.07 315.31 138.5 321.35 127.49 326.35 125.99 344.53 126.63 352.32 125.46 362.39 127.44 378.77 145.14 399.07 162.54 Z" id="25020530"/>
<path d="M 413.46 94.43 421.77 103.77 418.01 114.32 420.74 121.22 438.64 125.75 426.37 138.02 399.07 162.54 378.77 145.14 362.39 127.44 352.32 125.46 344.53 126.63 326.35 125.99 321.35 127.49 312.54 127 304.43 122.57 307.81 122.64 314.55 92.9 316.04 81.37 310.86 64.86 305.27 37.93 312.35 25.75 315.78 9.18 316.33 1 334.52 8.76 355.66 15.36 369.04 20.88 377.46 29.07 384.12 38.72 385.31 44.64 392.38 60.23 395.64 71.89 409.21 91.5 413.46 94.43 Z" id="25020540"/>
<path d="M 612.5 336.23 619.63 349.89 624.47 371.38 635.31 398.23 633.28 397.58 623.06 414.47 588.47 393.55 603.3 386.38 572.52 320.31 569.98 313.27 556.11 317.5 560.63 306.98 560.69 299.08 556.21 294.24 550.2 277.02 554.08 275.73 558.64 287.27 573.77 280.69 569.47 272.16 575.33 269.41 587.74 293.59 594.91 301.95 606.82 320.62 612.5 336.23 Z" id="25020560"/>
<path d="M 623.06 414.47 611.07 434.11 602.2 428.47 595.86 446.58 591.91 451.68 574.94 459.81 570.92 459.89 566.06 468.07 555.6 478.81 552.49 485.34 542.24 493.25 534.6 503.58 528.54 508.28 522 493.61 521.65 485.24 510.55 462.08 508.42 455.41 509.09 443.35 519.55 436.32 522.53 422.91 518.72 411.83 530.69 409.21 531.31 383.58 524.86 376.33 524.45 364.98 527.88 354.91 523.94 347.69 550.57 334.41 559.98 326.34 556.2 320.79 556.11 317.5 569.98 313.27 572.52 320.31 603.3 386.38 588.47 393.55 623.06 414.47 Z" id="25020590"/>
<path d="M 321.35 127.49 315.31 138.5 305.41 149.07 307.48 156.81 312.34 163.57 318.37 165.26 321.8 180.36 325.82 188.51 333.91 190.85 338.44 186.31 346.67 200.12 359.11 207.66 366.79 221.56 375.77 228.07 393.08 232.98 403.41 238.65 404.28 242.67 394.81 248.06 394.91 251.95 401.92 259.73 407.4 255.94 419.85 276.03 413.13 279.57 414.46 288.98 393.4 294.7 334.65 235.26 282.87 183.32 281.51 180.94 270.98 170.14 266.37 166.28 278.57 148.86 282.45 138.51 298.35 122.6 304.43 122.57 312.54 127 321.35 127.49 Z" id="25020600"/>
<path d="M 266.37 166.28 270.98 170.14 238 258.28 249.44 298.31 236.35 302.51 223.68 306.85 208.84 354.78 165.3 368.5 157.48 338.19 158.51 322.03 162.57 310.89 171.9 292.03 178.84 290.79 182.95 276.16 180.47 264.39 180.17 253.12 183.67 246.87 189.44 232.47 201.12 219.69 211.35 215.79 218.39 204.84 220.31 197.66 227.66 190.26 232.82 189.43 240.76 177.09 248.91 168.9 256.33 168.33 261.25 161.75 266.37 166.28 Z" id="25020640"/>
<path d="M 363.88 505.19 348.02 518.61 332.97 518.14 327 526.73 318.24 523.39 313.22 516.23 313.5 504.15 302.18 505.08 290.26 511.58 280.24 504.63 272.31 493.34 255.85 489.46 257.6 464.92 249.38 469.29 238.31 452.57 240.87 447.83 248.86 444.21 250.34 439.14 257.69 435.12 249.8 408.15 266.03 402.92 305.06 388.83 305.95 386.47 317.31 384.77 324.72 387.21 320.82 399.05 327.55 412.89 346.29 430.48 355.98 433.99 355.73 442.45 359.47 447.83 366.68 448.14 373.61 452.51 369.04 461.29 366 477.59 370.53 483.58 372.07 491.51 363.88 505.19 Z" id="25020680"/>
</g>
</svg>