<?xml version="1.0"?>
<svg xmlns="http://www.w3.org/2000/svg" version="1.2" baseProfile="tiny" width="800" height="1349" viewBox="0 0 800 1349" stroke-linecap="round" stroke-linejoin="round">
<g id="dong">
<path d="M 411.51 670.61 409.86 677.97 411 680.34 404.07 700.05 401.54 708.21 398.54 708.45 396.04 714.31 394.62 726.5 392.8 727.8 391.65 736.76 390.93 751.22 394.62 756.02 388.27 757.46 387.88 763.73 380.88 764.52 373.6 768.24 371.93 773.81 367.55 780.69 361.26 784.16 354.97 790.86 349.54 787.12 338.08 794.46 333.68 795.39 328.95 791.55 324.95 793.26 317.68 790.23 313.18 789.98 305.61 786.69 298.95 788.68 288.69 784.96 290.38 775.41 292.8 771.35 290.2 769.5 289.77 765.15 280.42 760.14 274.64 758.69 273.02 762.18 268.09 763.64 267.43 769.85 264.68 774.16 261.36 774.6 263.61 785.55 267.61 791.97 267.67 798.09 265.05 797.39 262.82 793.01 260.44 791.73 248.75 792.71 240.53 796.87 233.36 805.43 230.24 810.9 223.11 814.56 221.8 816.89 212.39 820.62 209.15 820.34 197.63 826.14 192.24 827.47 188.34 825.53 178.61 830.7 175.42 836.1 169.37 836.04 163.72 841.23 163.57 843.77 160.5 845.79 155.74 853.25 153.64 859.79 144.15 864.62 141.98 859.49 130.27 846.81 127.59 842.81 121.49 838.58 118.84 835.54 119.3 830.13 112.7 816.75 111.5 809.47 112.19 800.02 110.93 795.35 116.42 792.87 118.41 787.1 135.43 778.38 142.92 771.82 140.57 761.99 139.99 754.23 144.15 751.23 150.58 748.4 150.02 741.28 151.82 734.05 152.98 732.86 156.03 720.94 158.25 717.21 156.1 712.95 156.76 706.06 155.6 702.83 154.82 695.37 148.94 690.56 148.11 688.47 148.77 676.23 157.37 676.65 165.37 673.66 167.39 671.6 171.33 671.65 178.17 675.66 185.47 674.71 189.95 676.89 191.85 679.78 198.19 682.1 207.82 678.06 213.3 677.84 214.43 679.89 221.66 682.16 231.35 678.65 237.06 686.31 242.77 684.37 243.96 690.52 241.63 695.5 247.13 706.14 247.22 711.58 249.83 715.23 257.94 717.88 261.39 720.49 260.51 729.32 267.09 731.75 272.26 728.87 280.15 728.63 285.41 725.93 291.4 724.84 292.76 728.03 291.29 731.63 294.81 735.94 304.14 730.36 309.34 730.15 312.08 731.31 316.94 730.95 315.06 727.08 314.39 718.25 312.83 714.23 315.12 712.75 314.1 709.61 348.91 709.6 359.29 705.67 362.55 702.17 372.12 683.51 375.1 683.47 376.66 677.85 380.75 674.44 380.91 667.1 384.91 664.65 390.12 662.78 394.56 663.36 398.07 666 399.2 661.14 404.62 666.71 411.51 670.61 Z" id="25040590"/>
<path d="M 766.46 435.92 773.11 444.51 786.3 464.67 793.28 479.53 796.48 484.38 798.95 493.57 799 499.31 796.14 507.2 785.98 528.31 781.36 523.33 778.63 514.57 779.07 512.33 774.62 510.52 773.4 513.07 758.55 504.34 757.23 507.56 760.16 510.22 759.77 515.03 751.6 515.24 750.6 511.31 748.13 509.41 745.8 515.17 735.54 519.24 730.37 519.28 724.52 527.17 721.04 527.03 716.37 525.07 708.97 525.59 701.35 527.32 696.77 524.33 692.01 525.72 679.42 521.49 676.74 522.22 671.36 510.46 648.56 503.61 651.62 513.94 649.22 518.99 649 522.59 643.92 521.64 639.27 520.78 634.63 522.31 631.43 521.73 631.95 516.58 622.71 510.87 624.03 503.18 626.38 498.84 617.15 491.54 616.94 487.46 618.77 483.42 612.93 480.1 611.17 477.77 601.52 473.62 609.75 467.28 617.11 456.37 618.28 449.18 621.95 450.46 630.68 438.93 653.25 379.31 656.04 375.75 667.19 366.19 669.73 367.94 671.64 362.45 676.78 358.69 679.22 358.39 681.24 365.53 688.07 375.1 699.73 385.71 706.44 394.04 714.28 401.31 717.77 405.55 726.96 409.3 731.52 412.16 738.09 417.77 741.33 422.74 749.4 428.6 758.29 431.65 766.46 435.92 Z" id="25040630"/>
<path d="M 785.98 528.31 783.02 535.66 776.5 540.48 768.82 554.79 768.19 561.59 768.22 573.67 767.02 582.13 760.09 595.47 758.97 602.68 757.63 620.47 758.64 634.66 761.2 645.96 760.6 675.53 757.57 684.74 752.08 693.76 741.34 702.67 731.5 706.73 719.12 710.52 710.67 714.37 707.44 709.73 697.86 706.12 693.52 703 692.13 698.71 687.26 697.22 685.16 694.18 682.53 693.53 678.7 686.63 676.78 686.36 674.21 681.8 666.92 681.32 662.35 673.88 652.1 678.35 642.99 664.7 643.85 658.86 640.32 657.73 639.41 651.43 635.13 646.73 634.52 640.67 635.43 638.62 634.26 633.77 628.11 626.57 625.26 625.42 623.09 621.59 614.12 610.17 616.64 603.98 620.7 599.95 621.85 593.81 620.62 590.07 617.49 586.14 615.33 579.69 613.99 567.31 618.83 559.45 619.88 551.27 624.71 550.64 631.99 552.32 634.59 550.5 640.02 550.5 644 545.17 646.07 540.38 644.95 532.93 639.67 531.53 640.27 523.61 643.92 521.64 649 522.59 649.22 518.99 651.62 513.94 648.56 503.61 671.36 510.46 676.74 522.22 679.42 521.49 692.01 525.72 696.77 524.33 701.35 527.32 708.97 525.59 716.37 525.07 721.04 527.03 724.52 527.17 730.37 519.28 735.54 519.24 745.8 515.17 748.13 509.41 750.6 511.31 751.6 515.24 759.77 515.03 760.16 510.22 757.23 507.56 758.55 504.34 773.4 513.07 774.62 510.52 779.07 512.33 778.63 514.57 781.36 523.33 785.98 528.31 Z" id="25040570"/>
<path d="M 609.93 731.93 597.77 732.73 590.05 734.89 582.34 741.92 569.31 749.5 565.28 754.05 559.25 767.05 554.86 772.71 550.28 776.01 545.53 778.17 535.31 781.38 522.96 785.52 517.46 788.19 514.13 794.22 510.21 795.94 494.68 797.01 481.88 804 474.19 804.27 465.7 803.54 460.23 802.2 442.42 802.6 438.08 805.59 438.15 808.96 428.15 817.89 423.23 819.68 410.01 821.43 392.69 817.57 391.13 815.81 382.65 811.64 378.98 812.68 374.71 807.35 362.33 805.55 354.11 805.38 345.63 803.5 345.42 797.99 338.08 794.46 349.54 787.12 354.97 790.86 361.26 784.16 367.55 780.69 371.93 773.81 373.6 768.24 380.88 764.52 387.88 763.73 388.27 757.46 394.62 756.02 390.93 751.22 391.65 736.76 392.8 727.8 394.62 726.5 396.04 714.31 398.54 708.45 401.54 708.21 404.07 700.05 411 680.34 409.86 677.97 411.51 670.61 415.88 671.81 420.51 678.09 426.96 679.23 428.78 676.33 431.72 675.97 431.89 681.68 435.44 692.69 439.68 695.55 443.01 696.08 446.4 701.22 449.09 702.4 451.54 700.32 456.5 700.21 456.61 703.82 462.78 707.39 470.09 709.69 470.36 717.98 472.43 720.12 472.62 723.88 476.2 725.28 476.14 731.67 477.15 735.69 481.4 736.15 484.85 732.9 484.29 722.6 481.44 718.29 482.35 712.68 490.75 704.68 489.76 696.74 495.24 691.86 501.95 692.02 501.97 686.01 503.14 683.94 509.51 692.5 512.31 694.99 514.77 692.05 530.39 703.1 536.34 706.24 554.81 710.64 564.03 711.22 567.67 709.95 576.36 700.9 582.8 698.54 596.34 700.06 599.82 705.31 600.31 708.76 608.57 720.74 609.9 723.5 609.93 731.93 Z" id="25040540"/>
<path d="M 618.28 449.18 617.11 456.37 609.75 467.28 601.52 473.62 611.17 477.77 612.93 480.1 618.77 483.42 616.94 487.46 617.15 491.54 626.38 498.84 624.03 503.18 622.71 510.87 631.95 516.58 631.43 521.73 634.63 522.31 639.27 520.78 643.92 521.64 640.27 523.61 639.67 531.53 644.95 532.93 646.07 540.38 644 545.17 640.02 550.5 634.59 550.5 631.99 552.32 624.71 550.64 619.88 551.27 618.83 559.45 613.99 567.31 615.33 579.69 617.49 586.14 620.62 590.07 621.85 593.81 620.7 599.95 616.64 603.98 614.12 610.17 623.09 621.59 625.26 625.42 628.11 626.57 634.26 633.77 635.43 638.62 634.52 640.67 635.13 646.73 639.41 651.43 640.32 657.73 643.85 658.86 642.99 664.7 652.1 678.35 662.35 673.88 666.92 681.32 674.21 681.8 676.78 686.36 678.7 686.63 682.53 693.53 685.16 694.18 687.26 697.22 692.13 698.71 693.52 703 697.86 706.12 707.44 709.73 710.67 714.37 697.3 721.58 675.57 725.72 673.66 730.75 674.74 735.48 670.42 734.27 660.08 736.71 655.13 736.57 644.18 735.07 615.1 734.67 613.95 732.12 609.93 731.93 609.9 723.5 608.57 720.74 600.31 708.76 599.82 705.31 596.34 700.06 582.8 698.54 576.36 700.9 567.67 709.95 564.03 711.22 554.81 710.64 536.34 706.24 530.39 703.1 514.77 692.05 512.31 694.99 509.51 692.5 503.14 683.94 501.97 686.01 501.95 692.02 495.24 691.86 489.76 696.74 490.75 704.68 482.35 712.68 481.44 718.29 484.29 722.6 484.85 732.9 481.4 736.15 477.15 735.69 476.14 731.67 476.2 725.28 472.62 723.88 472.43 720.12 470.36 717.98 470.09 709.69 462.78 707.39 456.61 703.82 456.5 700.21 451.54 700.32 449.09 702.4 446.4 701.22 443.01 696.08 439.68 695.55 435.44 692.69 431.89 681.68 431.72 675.97 428.78 676.33 426.96 679.23 420.51 678.09 415.88 671.81 411.51 670.61 404.62 666.71 399.2 661.14 398.07 666 394.56 663.36 390.12 662.78 384.91 664.65 387.69 661.66 398.6 642.33 401.75 639.29 397 634.94 395.58 631.8 397.64 627.53 401.43 625.37 390.96 623.59 386.82 621 381.45 619.89 378.23 615.09 362.76 612.37 357.87 607 356.15 603.47 355.63 596.18 358.63 593.73 365.38 582.26 364.4 576.27 363.58 561.59 367.26 554.42 364.23 547.96 363.66 542.84 359.91 538.76 359 530.51 350.14 523.96 352.49 520.36 359.3 518.21 364.17 513.23 371.07 513.62 373.09 500.32 374.81 497.87 374.34 492.35 370.92 482.99 368.77 479.83 366.27 471.21 367.69 463.75 365.8 453.95 365.95 447.34 369.19 445.96 373.84 441.4 379.06 440.3 384.17 436.13 384.91 434.17 393.31 427.56 395.48 422.11 404.64 419.33 409.86 414.52 417.76 411.52 423.5 406.9 424.57 404 428.07 402.24 433.52 396.52 438.62 398.86 441.56 397.68 445.94 401.78 450.16 402.87 455.49 406.54 468.48 407.79 471.71 410.01 475.49 408.96 480.6 409.75 481.11 406.2 487.45 395.8 497.16 391.72 503.01 386.91 503.74 384.81 510.28 381.28 518.13 381.11 520.54 378.43 526.9 378.02 531.16 385.13 538.64 390.76 543.48 398.95 546.08 398.71 550.25 392.91 548.4 390.26 549.25 382.83 554.97 381.42 557.86 377.89 565 377.44 566.92 372.76 575.53 370.13 575.61 375.46 578.94 379.67 584.41 382.59 586.44 386.32 584.07 394.83 591.11 404.45 594.22 407.63 595.01 412.43 598.4 414.45 600.04 420.25 604.01 421.33 605.32 427.64 609.92 430.61 606.78 435.34 607.24 439.54 613.25 447.14 618.28 449.18 Z" id="25040550"/>
<path d="M 338.08 794.46 345.42 797.99 345.63 803.5 354.11 805.38 362.33 805.55 374.71 807.35 378.98 812.68 382.65 811.64 391.13 815.81 392.69 817.57 410.01 821.43 423.23 819.68 428.15 817.89 438.15 808.96 438.08 805.59 442.42 802.6 460.23 802.2 465.7 803.54 474.19 804.27 481.88 804 494.68 797.01 510.21 795.94 514.13 794.22 517.46 788.19 522.96 785.52 535.31 781.38 517.12 805.5 515.82 807.25 513.68 817.11 494.52 833.4 488.94 833.34 479.65 838.32 476.77 843.14 473.34 853.23 472.45 859.43 468.75 859.69 470.54 849.72 466.86 848.3 438.83 839.19 436.36 843.81 432.69 855.94 433.07 866.4 431.97 866.4 426.06 865.14 369.47 865.34 366.35 866.76 362.1 876.05 355.95 885.18 351.84 885.51 351 882.96 346.41 883.26 344.01 878.52 336.71 878.51 336.46 875.88 333.2 875.26 330.02 869.78 325.72 868.71 320.01 868.94 317.49 864.33 317.44 861.43 313.74 859.31 305.4 858.04 302.07 854.02 299.93 855.23 295.01 849.44 294.68 847.4 290.45 846.88 287.58 842.18 289.97 836.52 288.66 833.1 292.34 825.97 294.41 825.65 294.64 813.88 286.56 811.56 275.22 807.25 271.47 804.07 267.67 798.09 267.61 791.97 263.61 785.55 261.36 774.6 264.68 774.16 267.43 769.85 268.09 763.64 273.02 762.18 274.64 758.69 280.42 760.14 289.77 765.15 290.2 769.5 292.8 771.35 290.38 775.41 288.69 784.96 298.95 788.68 305.61 786.69 313.18 789.98 317.68 790.23 324.95 793.26 328.95 791.55 333.68 795.39 338.08 794.46 Z" id="25040640"/>
<path d="M 365.95 447.34 365.8 453.95 367.69 463.75 366.27 471.21 368.77 479.83 370.92 482.99 374.34 492.35 374.81 497.87 373.09 500.32 371.07 513.62 364.17 513.23 359.3 518.21 352.49 520.36 350.14 523.96 359 530.51 359.91 538.76 363.66 542.84 364.23 547.96 367.26 554.42 363.58 561.59 364.4 576.27 365.38 582.26 358.63 593.73 355.63 596.18 356.15 603.47 357.87 607 362.76 612.37 378.23 615.09 381.45 619.89 386.82 621 390.96 623.59 401.43 625.37 397.64 627.53 395.58 631.8 397 634.94 401.75 639.29 398.6 642.33 387.69 661.66 384.91 664.65 380.91 667.1 380.75 674.44 376.66 677.85 375.1 683.47 372.12 683.51 362.55 702.17 359.29 705.67 348.91 709.6 314.1 709.61 313.51 697.35 315.36 687.05 319.34 688.01 321.58 682.17 325.15 667.66 331.17 663.42 333.45 660.45 331.58 657.36 323.79 650.35 328.37 647.81 325.96 642.89 328.69 642.46 317.21 623.16 313.41 618.12 312.63 615.5 297.83 590.58 293.87 585.35 293.71 578.57 291.08 580.4 280.06 577.77 270.11 580.55 265.09 583.96 262.47 580.99 258.31 572.62 246.73 571.29 246.09 569.78 239.71 571.74 235.35 575.34 229.82 575.77 220.55 579.99 216.79 578.57 208.57 573.5 205.09 573.53 197.61 577.75 188.74 578.82 185.33 577.91 179.26 581.79 171.35 583.12 165.65 581.81 155 591.23 146.87 593.34 146.12 592.44 147.86 584.25 147.45 581.44 156.35 554.98 157.77 546.47 155.91 539.75 155.82 535.14 158.4 529.85 158.3 527.34 161.18 522.59 160.93 518.1 159.24 514.11 162.74 508.3 162.6 490.63 168.31 488.41 176.77 486.83 179.22 487.52 193.25 484.02 196.95 482.13 203.86 481.73 204.08 468.15 209.14 466.97 214.87 467.88 220.88 462.76 222.7 460.06 222.63 454.87 218.16 451.57 218.06 447.2 224.01 444.51 228.3 441.44 236.57 441.84 241.88 443.27 242.98 445.65 248.54 448.83 251.61 449.16 253.65 441.84 256.82 435.96 260.9 432.97 267.96 432.27 279.44 432.32 284.33 434.04 288.74 433.55 292.19 431.69 295.2 432.79 298.3 436.26 298.51 438.63 309.85 442.81 314.91 448.51 318.61 450.59 320.26 456.61 328.16 453.77 333 450.99 335.51 444.72 339.12 440.79 344.73 438.29 352.5 443.74 363.59 445.09 365.95 447.34 Z" id="25040660"/>
<path d="M 314.1 709.61 315.12 712.75 312.83 714.23 314.39 718.25 315.06 727.08 316.94 730.95 312.08 731.31 309.34 730.15 304.14 730.36 294.81 735.94 291.29 731.63 292.76 728.03 291.4 724.84 285.41 725.93 280.15 728.63 272.26 728.87 267.09 731.75 260.51 729.32 261.39 720.49 257.94 717.88 249.83 715.23 247.22 711.58 247.13 706.14 241.63 695.5 243.96 690.52 242.77 684.37 237.06 686.31 231.35 678.65 221.66 682.16 214.43 679.89 213.3 677.84 207.82 678.06 198.19 682.1 191.85 679.78 189.95 676.89 185.47 674.71 178.17 675.66 171.33 671.65 167.39 671.6 165.37 673.66 157.37 676.65 148.77 676.23 146.66 674.39 148.62 666.47 147.91 659.67 146.06 656.43 145.46 651.62 141.3 647.95 146.16 643.45 147.66 639.18 147.63 634.09 148.91 629.27 149.35 622.51 146.94 602.69 146.87 593.34 155 591.23 165.65 581.81 171.35 583.12 179.26 581.79 185.33 577.91 188.74 578.82 197.61 577.75 205.09 573.53 208.57 573.5 216.79 578.57 220.55 579.99 229.82 575.77 235.35 575.34 239.71 571.74 246.09 569.78 246.73 571.29 258.31 572.62 262.47 580.99 265.09 583.96 270.11 580.55 280.06 577.77 291.08 580.4 293.71 578.57 293.87 585.35 297.83 590.58 312.63 615.5 313.41 618.12 317.21 623.16 328.69 642.46 325.96 642.89 328.37 647.81 323.79 650.35 331.58 657.36 333.45 660.45 331.17 663.42 325.15 667.66 321.58 682.17 319.34 688.01 315.36 687.05 313.51 697.35 314.1 709.61 Z" id="25040670"/>
<path d="M 374.16 959.39 386.42 956.86 392.32 954.51 392.09 959.47 422.29 959.5 422.32 971.3 412.03 971.29 412.03 986.74 417.05 991.62 418.52 999.62 416.05 1007.1 415.54 1013.74 418.8 1024.97 420.55 1033.5 419.26 1034.88 420.8 1041.59 429.95 1042.08 428.31 1054.3 430.67 1059.7 427.55 1062.76 426.83 1067.54 419.63 1066.4 419.76 1069.3 417.62 1073.25 413.81 1074.42 410.89 1081.6 406.58 1084 405.8 1089.24 400.67 1091.59 399.29 1098.28 397.25 1098.26 397.28 1115.05 396.76 1115.32 396.8 1132.8 396.8 1134.05 388.18 1134.26 382.59 1136.13 361.1 1145.62 357.88 1148.29 350.96 1157.28 348.56 1161.31 340.89 1183.97 339.14 1195.39 339.67 1199.6 338.83 1211.75 334.85 1218.72 327 1224.05 323.56 1224.9 313.64 1224.73 312.09 1233.13 309.96 1243.1 299.43 1243.17 296.56 1254.39 296.93 1258.67 294.75 1264.3 295.83 1268.01 292.25 1272.46 286.88 1273.68 288.28 1280.7 290.41 1283.83 293.1 1284.5 293.02 1293.15 293.76 1297.56 295.98 1300.56 288.6 1302.84 283.8 1300.52 277.52 1302.22 261.09 1310.53 250.99 1312.76 242.34 1318.21 237.76 1322.49 232.59 1330.26 227.87 1329.09 219.9 1339.19 217.61 1343 216.69 1348 210.39 1347.57 206.63 1340.91 202.06 1338.08 191.11 1340.53 182.35 1344.39 173.98 1344.68 164.95 1343.8 153.63 1338.34 149 1331.64 146.55 1329.73 137.29 1327.15 129.87 1321.79 117.81 1314.68 106.07 1307.09 99.33 1301.25 94.29 1295.7 87.54 1290.25 73.65 1284.48 62.69 1282.2 57.14 1280.7 51.31 1275.33 43.98 1265.96 38.83 1258.01 36.07 1255.51 34.13 1246.24 31.42 1242.47 22.37 1235.54 19.85 1226.93 17.24 1222.86 11.42 1218.58 9.61 1214.95 8.54 1207.56 3.3 1198.59 1 1195.87 5.67 1193.07 7.12 1184.36 12.69 1184.8 14.91 1182.9 17.45 1176.81 21.82 1168.91 24.34 1168.26 35.08 1162.1 37.85 1165.91 51.01 1169.21 61.81 1168.95 59.62 1165.87 59.16 1160.51 61.6 1149.43 62.2 1140.98 65.48 1133.62 60.13 1126.56 55.1 1124.22 55.57 1113.01 54.82 1097.59 56.04 1091.71 53.12 1087.59 54.82 1080.2 56.26 1078.41 54.85 1074.03 55.91 1067.53 53.64 1062.53 55.12 1054.14 54.88 1043.66 59.67 1034.25 62.63 1033.13 64.12 1028.91 65 1015.1 65.74 1012.22 64.39 1004.39 60.93 997.95 62.38 995.26 60.95 988.88 66.09 989.49 76.08 988.81 83.49 984.27 90.19 981.47 90.49 975.29 97.45 965.75 99.41 965.04 102.37 963.81 104.56 965.67 110.36 967.44 112.6 965.56 123.93 967.15 137.35 964.29 141.19 961.43 145.55 968.96 150.18 974.37 157.53 976.06 162.89 979.01 163.45 973.2 166.77 969.21 172.46 967.16 176.37 969.43 185.11 966.63 193.4 960.5 198.52 957.73 203.09 957.8 204.31 961.95 210.65 967.69 215.77 980.95 221.74 990.04 223.16 993.71 222.82 997.79 227.65 1004.77 229.89 999.99 233.37 1000.9 237.12 1004.98 241.15 1002.15 253.62 1010.52 255.8 1013.87 264.26 1013.22 274.12 1013.68 278.26 1015.78 281.23 1015.13 286.79 1018.68 292.5 1017.86 295.31 1009.96 300.89 1006.21 299.43 992.22 300.92 986.21 300.54 966.74 302.34 957.83 303.49 956.89 309.64 960.27 314.62 965.21 316.61 965.76 325.12 975.06 327.91 982.28 330.48 983.59 336.52 983.33 342.56 984.45 344.35 986.54 353.23 985.1 358.88 987.42 362 990.57 367.4 985.17 366.97 975.02 371.3 963.9 374.16 959.39 Z" id="25040680"/>
<path d="M 267.67 798.09 271.47 804.07 275.22 807.25 286.56 811.56 294.64 813.88 294.41 825.65 292.34 825.97 288.66 833.1 289.97 836.52 287.58 842.18 290.45 846.88 294.68 847.4 295.01 849.44 299.93 855.23 302.07 854.02 305.4 858.04 313.74 859.31 317.44 861.43 317.49 864.33 320.01 868.94 325.72 868.71 330.02 869.78 333.2 875.26 336.46 875.88 336.71 878.51 344.01 878.52 346.41 883.26 351 882.96 351.84 885.51 349.17 891.15 344.43 894.78 339.16 905.31 327.65 925.35 333.18 928.57 343.22 931.14 347.1 934.55 357.21 939.01 368.53 950.52 369.59 953.62 374.16 959.39 371.3 963.9 366.97 975.02 367.4 985.17 362 990.57 358.88 987.42 353.23 985.1 344.35 986.54 342.56 984.45 336.52 983.33 330.48 983.59 327.91 982.28 325.12 975.06 316.61 965.76 314.62 965.21 309.64 960.27 303.49 956.89 302.34 957.83 300.54 966.74 300.92 986.21 299.43 992.22 300.89 1006.21 295.31 1009.96 292.5 1017.86 286.79 1018.68 281.23 1015.13 278.26 1015.78 274.12 1013.68 264.26 1013.22 255.8 1013.87 253.62 1010.52 241.15 1002.15 237.12 1004.98 233.37 1000.9 229.89 999.99 227.65 1004.77 222.82 997.79 223.16 993.71 221.74 990.04 215.77 980.95 210.65 967.69 204.31 961.95 203.09 957.8 198.52 957.73 193.4 960.5 185.11 966.63 176.37 969.43 172.46 967.16 166.77 969.21 163.45 973.2 162.89 979.01 157.53 976.06 150.18 974.37 145.55 968.96 141.19 961.43 137.35 964.29 123.93 967.15 112.6 965.56 110.36 967.44 104.56 965.67 102.37 963.81 99.41 965.04 98.13 960.28 92.47 953.44 92.67 946.64 91.38 943.51 87.69 939.96 86.89 931.92 88.29 927.28 98.59 916.32 101.68 910.37 109.37 907.91 113.81 904.96 119.09 899.17 122.29 891.66 134.16 893.89 139.21 891.81 147.15 890.33 149.9 888.46 145.05 882.24 142.3 875.36 144.15 864.62 153.64 859.79 155.74 853.25 160.5 845.79 163.57 843.77 163.72 841.23 169.37 836.04 175.42 836.1 178.61 830.7 188.34 825.53 192.24 827.47 197.63 826.14 209.15 820.34 212.39 820.62 221.8 816.89 223.11 814.56 230.24 810.9 233.36 805.43 240.53 796.87 248.75 792.71 260.44 791.73 262.82 793.01 265.05 797.39 267.67 798.09 Z" id="25040690"/>
<path d="M 431.97 866.4 432 880.91 431.26 888.79 428.07 898.53 437.97 902.15 426.88 910.4 417.2 922.82 413.37 930.6 408.9 942.68 403.69 948.24 392.32 953.14 392.32 954.51 386.42 956.86 374.16 959.39 369.59 953.62 368.53 950.52 357.21 939.01 347.1 934.55 343.22 931.14 333.18 928.57 327.65 925.35 339.16 905.31 344.43 894.78 349.17 891.15 351.84 885.51 355.95 885.18 362.1 876.05 366.35 866.76 369.47 865.34 426.06 865.14 431.97 866.4 Z" id="25040700"/>
<path d="M 472.45 859.43 474.75 869.78 481.03 881.87 484.53 890.33 487.86 910.87 492.76 925.48 495.04 935.08 498.02 943.35 496.05 954.41 494.29 959.54 422.29 959.5 392.09 959.47 392.32 954.51 392.32 953.14 403.69 948.24 408.9 942.68 413.37 930.6 417.2 922.82 426.88 910.4 437.97 902.15 428.07 898.53 431.26 888.79 432 880.91 431.97 866.4 433.07 866.4 432.69 855.94 436.36 843.81 438.83 839.19 466.86 848.3 470.54 849.72 468.75 859.69 472.45 859.43 Z" id="25040710"/>
<path d="M 714.23 252.54 700.82 267.12 698.28 271.23 690.65 280.65 679.96 282.52 674.97 285.08 668.9 291.35 666.95 294.49 664.29 302.89 656.63 314.8 655.65 320.73 656.46 333.68 659.7 339.94 661.23 345.38 665.49 351.76 676.79 357.84 676.78 358.69 671.64 362.45 669.73 367.94 667.19 366.19 656.04 375.75 653.25 379.31 630.68 438.93 621.95 450.46 618.28 449.18 613.25 447.14 607.24 439.54 606.78 435.34 609.92 430.61 605.32 427.64 604.01 421.33 600.04 420.25 598.4 414.45 595.01 412.43 594.22 407.63 591.11 404.45 584.07 394.83 586.44 386.32 584.41 382.59 578.94 379.67 575.61 375.46 575.53 370.13 566.92 372.76 565 377.44 557.86 377.89 554.97 381.42 549.25 382.83 548.4 390.26 550.25 392.91 546.08 398.71 543.48 398.95 538.64 390.76 531.16 385.13 526.9 378.02 520.54 378.43 518.13 381.11 510.28 381.28 503.74 384.81 503.01 386.91 497.16 391.72 487.45 395.8 481.11 406.2 480.6 409.75 475.49 408.96 471.71 410.01 468.48 407.79 455.49 406.54 450.16 402.87 445.94 401.78 441.56 397.68 438.62 398.86 433.52 396.52 431.6 389.35 431.04 383.15 432.39 375.2 429.52 366.95 432.95 364.26 436.42 356.46 440.62 357.1 443.04 352.26 443.39 343.61 446.87 334.86 448.35 326.24 449.96 325.27 451.15 319.82 453.32 319.16 458.36 312.27 462.59 308.45 466.92 307.29 473.41 299.39 478.36 300.44 481 299.58 486.58 301.44 490.32 299.98 492.8 296.16 494.56 290.64 501.24 286.25 502.75 282 501.39 278.81 502.67 273.33 501 267.53 509.26 262.45 511.57 256.71 514.12 254.15 512.98 249.78 510.81 247.58 510.08 241.54 505.65 238.08 506.99 226.66 509.58 222.34 507.32 220.96 506.66 216.18 502.2 207.92 505.27 205.05 507.53 206.24 510.65 203.23 514.61 202.25 518.61 195.73 517.03 189.16 515.63 187.37 518.94 183.93 520.27 179.38 519.21 174.7 523.71 171.09 530.36 170.15 529.48 163.78 532.64 157.32 533.56 153.26 537.36 149.89 537.93 143.91 527.3 133.68 525.01 127.13 522.7 124.73 522.12 120.3 523.73 113.32 521.11 107.55 511.22 102.34 509.6 98.63 510.41 93.36 515.48 86.93 515.83 75.05 520.47 68.13 520.28 59.58 524.27 54.72 535.67 61.88 554.43 68.36 557.23 69.69 561.9 67.65 560.76 62.07 569.53 58.65 578.16 51.65 585.1 45.02 600.57 27.4 613.12 5 629.29 1 643.48 10.02 666.81 31.25 673.14 38.83 685.93 49.27 704.63 70.5 717.81 84.7 723.2 110.3 723.3 135.49 713.62 159.85 709.19 188.11 710.78 198.37 710.05 207.69 710.89 214.78 700.81 214.74 703.01 219.55 704.36 227.35 704.33 234.68 703.34 244.04 708.75 243.86 714.23 252.54 Z" id="25040610"/>
</g>
</svg>