<?xml version="1.0"?>
<svg xmlns="http://www.w3.org/2000/svg" version="1.2" baseProfile="tiny" width="800" height="1173" viewBox="0 0 800 1173" stroke-linecap="round" stroke-linejoin="round">
<g id="dong">
<path d="M 716.08 325.13 703.89 321.49 697.78 327.14 691.27 330.23 687.49 328.7 683.05 332.8 666.85 360.63 658.97 372.03 658.22 375.83 648.3 388.46 644.06 397.71 641.27 400.32 637.51 409.76 636.62 419.43 638.54 423.51 632.09 436 628.61 438.58 627.99 445.2 617.13 465.55 616.04 473.67 608.1 483.45 603.17 500.6 589.36 495.04 585.43 500.18 593.06 510.81 586.66 520.34 581.66 525.64 580.17 532.52 564.92 554.81 552.4 569.73 549.22 579.17 545.28 578.57 537.7 590.84 526.32 598.1 520.91 604.27 511.52 607.55 498.87 624.75 494.13 625.46 480.49 632.38 475.93 637.62 471.25 628.92 452.84 606.89 450.15 599.21 449.25 590.96 451.12 587.82 450.08 579.06 450.78 570.98 447.31 570.64 443 563.49 443.64 554.66 439 548.3 439.29 540.92 445.3 527.76 448.81 516.01 453.2 510.43 455.75 499.72 437.87 489.91 433.16 485.39 421.83 477.41 416.89 470.3 411.17 467.13 400.34 453.22 391.06 451.5 385.57 448.31 376.17 454.71 367.74 455.83 359.94 450.17 349.91 447.79 352.43 436.06 352.96 421.78 359.33 413.27 358.42 407.2 365.65 408.81 378.41 406.64 376.47 400.99 377.29 395.08 381.61 387.92 379.81 385.35 382.14 374.64 388.22 366.62 383.44 362.1 376.56 364.2 367.89 359.27 364.6 351.07 366.28 339.08 354.85 335.09 346.18 338.36 341.05 336.91 326.91 338.17 321.05 334.16 316.2 333.71 315.57 328.23 305.26 326 299.6 321.41 291.71 317.86 282.96 317.3 281.98 309.2 274.18 304.98 273.12 301.15 276.57 289.87 275.44 281.24 277.82 269.87 276.39 256.42 273.56 242.44 271 234.74 262.11 191.34 261.92 186.15 267.03 182.7 245.95 183.2 264.94 177.19 329.56 180.91 322.71 183.15 310.52 183.12 310.06 186.35 334.22 186.35 361.35 214.49 368.89 224.71 380.63 232.17 401.87 242.4 430.77 241.76 454.51 232.89 479.68 215.41 497.31 196.61 508.46 182.13 514.75 146.62 515.16 120.02 516.44 110.45 536.29 62.67 564.46 28.6 575.92 20.03 601.5 8.67 631.43 1.26 633.18 1 656.26 5.95 659.84 23.73 651.37 62.67 639.89 93.59 632.53 105.84 624.71 116.51 622.1 124.46 615.81 136.15 612.96 144.24 611.47 156.21 612.35 162.3 617.21 172.01 621.94 178.67 643.9 201 660.81 209.11 677.17 210.28 709.85 205.26 771.91 180.46 787.16 186.34 794.24 201.95 799 217.83 792.21 239.08 763.88 265.89 748.51 279.1 723.4 309.45 716.08 325.13 Z" id="25050580"/>
<path d="M 207.99 248.5 218.01 254.51 225.29 260.51 230.36 270.31 247.09 283.03 260.41 288.65 269.87 296.61 273.12 301.15 274.18 304.98 281.98 309.2 282.96 317.3 291.71 317.86 299.6 321.41 305.26 326 315.57 328.23 316.2 333.71 321.05 334.16 326.91 338.17 341.05 336.91 346.18 338.36 354.85 335.09 366.28 339.08 364.6 351.07 367.89 359.27 376.56 364.2 383.44 362.1 388.22 366.62 382.14 374.64 379.81 385.35 381.61 387.92 377.29 395.08 376.47 400.99 378.41 406.64 365.65 408.81 358.42 407.2 359.33 413.27 352.96 421.78 352.43 436.06 349.91 447.79 343.71 453.07 345.78 459.5 336.3 469.55 336.31 477.67 333.39 480.66 325.11 484.06 321.34 492.09 314.99 499.18 319.81 510.66 314.56 518.07 309.15 518.85 307.02 523.24 309.82 527.44 305.99 540.9 307.21 543.32 304.49 551.6 299.57 551.56 295.88 542.83 287.32 534.27 276.32 527.97 267.94 521.88 258.23 509.22 248.75 503.98 239.38 502.1 232.09 492.21 217.46 501.87 219 506.81 210.11 508.16 219.92 514.38 209.97 516.59 208.18 526.64 197.67 504.27 177.81 473.94 167.8 461.01 168.77 454.2 168.37 439.5 176.66 435.66 179.8 428.4 179.43 417.78 177.11 413.26 165.01 401.8 170.7 384.87 178.66 380.39 183.19 379.96 186.48 374.34 192.11 370.8 193.64 359.82 189.82 345.57 183.41 342.15 190.16 337.27 190.29 319.01 184.53 318.25 190.21 310.1 187.83 306.78 193 299.95 197.45 289.11 190.15 277.52 192.71 274.67 189.8 261.5 193.04 255.31 197.13 253.3 200.06 245.61 207.99 248.5 Z" id="25050600"/>
<path d="M 165.01 195.3 164.52 204.81 168.63 206.31 188.55 205.62 191.94 233.09 201.87 233.48 207.61 245.06 207.99 248.5 200.06 245.61 197.13 253.3 193.04 255.31 189.8 261.5 192.71 274.67 190.15 277.52 197.45 289.11 193 299.95 187.83 306.78 190.21 310.1 184.53 318.25 190.29 319.01 190.16 337.27 183.41 342.15 189.82 345.57 193.64 359.82 192.11 370.8 186.48 374.34 183.19 379.96 178.66 380.39 170.7 384.87 165.01 401.8 177.11 413.26 179.43 417.78 179.8 428.4 176.66 435.66 168.37 439.5 168.77 454.2 167.8 461.01 155.51 454.6 142.12 450 129.98 441.18 125.09 433.7 115.2 425.26 108.34 420.96 94.5 415.31 89.26 408.94 77.46 397.98 67.35 385.46 49.79 369.5 39.52 355.08 36.48 344.35 32.8 344.79 32.82 343.51 15.81 334.37 9.4 324.76 7.09 316.59 2.21 307.17 1 287.68 2.47 278.74 14 260.82 18 248.19 20.94 243.47 30.08 234.02 37.59 230.17 53.69 227.36 65.17 213.18 68.99 206.99 89.18 185.05 92.42 189.13 98.63 191.92 129.97 196.06 165.01 195.3 Z" id="25050610"/>
<path d="M 267.94 874.69 269.3 883.7 282.78 942.08 284.26 945.7 251.71 953.31 238.09 953.78 235.35 949.1 236.62 943.52 228.18 939.77 224.57 936.05 227.21 928.39 234.6 915.74 244.63 904.52 244.64 889.17 238.59 887.11 239.95 880.97 247.95 875.88 261.23 872.97 266.84 870.14 267.94 874.69 Z" id="25050560"/>
<path d="M 216.99 980.48 216.29 986.52 211.36 1001.2 200.09 1020.09 211.75 1025.82 221.09 1033.57 241.41 1033.04 241.67 1040.81 250.16 1050.34 269.48 1050.75 272.12 1071.58 267.5 1072.35 268.21 1077.17 262.4 1082.26 258.97 1087.7 253.61 1100.48 247.28 1106.22 231.02 1106.97 214.45 1108.57 213.27 1113.77 206.59 1125.35 225.46 1142.45 207.3 1139.33 196.64 1140.01 173.55 1146.44 182.86 1172 179.49 1169.67 168.69 1154.08 166.1 1144.81 160.48 1132.42 159.53 1127.71 154.23 1120.04 147.54 1113.53 136.9 1109.14 120.09 1103.9 105.63 1097.73 110.39 1066.48 101.06 1043 98.1 1032.14 91.73 1015.91 85.99 997.12 95.14 1000.22 104.07 1001.01 114.83 1003.9 114.88 992.91 124.3 993.43 131.37 995.7 138.07 993.25 148.89 994.64 168.34 993.26 175.01 985.63 190.38 984.21 194.11 981.09 200.72 984.41 210.67 981.02 216.99 980.48 Z" id="25050510"/>
<path d="M 523.21 1085.88 520.4 1086.4 508.3 1079.53 487.23 1074.26 484.23 1067.42 459.96 1067.08 452.83 1065.23 457.46 1054.81 418.97 1058.36 416.44 1064.3 404.5 1058.85 401.58 1063.83 397.41 1061.92 394.91 1072.85 397.52 1073.35 391.96 1086.45 375.27 1078.56 387.18 1051.28 386.86 1042.75 396.03 1024.13 411.94 1003.39 415.7 997.04 423.55 988.18 421.06 979.8 415.98 973.38 410.85 971.17 410.88 965.69 404.46 951.9 411.85 936.74 412.17 929.9 415.07 926.38 418.57 916.06 423.85 911.77 417.78 905.6 414.93 897.46 413.47 885.42 418.58 869.54 418.77 863.34 434.48 853.34 438.72 847.77 446.07 858.65 454.08 861.7 454.29 870.6 459.23 874.04 464.56 880.56 464.21 887.12 474.68 899.66 478.94 923.11 482.66 929.53 490.01 929.83 494.23 934.75 494.31 938.83 498.83 942.56 499.81 948.73 507.12 965.18 513.34 973.55 517.63 989.92 521.37 994.23 536.46 1000.09 534.71 1015.88 537 1022.98 532.77 1030.66 532.92 1034.78 527.18 1048.77 526.63 1063 529.84 1079.37 523.21 1085.88 Z" id="25050540"/>
<path d="M 224.57 936.05 223.36 940.51 216.99 980.48 210.67 981.02 200.72 984.41 194.11 981.09 190.38 984.21 175.01 985.63 168.34 993.26 148.89 994.64 138.07 993.25 131.37 995.7 124.3 993.43 114.88 992.91 114.83 1003.9 104.07 1001.01 95.14 1000.22 85.99 997.12 68.58 983.73 62.15 973.87 61.18 967.81 58.38 952.38 54.17 943.65 46.13 930.22 34.38 920.3 29.73 911.8 28.1 904.69 30.98 897.12 63.69 890.88 83.82 880.03 96.55 874.24 115.17 868.54 129.98 862.42 146.15 849.01 151.82 856.77 165.53 871.42 175.65 870.44 178.78 872.6 183.63 880.39 191.3 889.71 188.59 893.77 191.01 899.74 215.72 927.28 218.68 934.56 224.57 936.05 Z" id="25050520"/>
<path d="M 475.93 637.62 476.33 642.95 471.12 651.31 464.41 656.2 460.41 663.82 459.73 674.78 461.12 679.5 455.68 698.58 452.8 713.4 453.66 730 452.65 739.53 454.37 743.39 452.78 749.42 460.61 759.72 456.45 766.91 457.62 777.61 447.12 792.94 445.02 801.53 447.08 805.82 438.69 820.57 432.53 827.03 428.33 829.96 419.26 831.82 407.59 824.15 408.38 816.79 405.63 811.93 385.88 808.57 379.37 811.66 374.16 806.56 365.78 803.24 359.53 802.72 357.66 813.94 358.75 820.03 342.13 831.55 337.94 839.03 331.48 846.59 314.37 853.99 307.09 859.22 287.43 866.1 285.95 869.59 268.89 872.51 267.94 874.69 266.84 870.14 261.23 872.97 247.95 875.88 239.95 880.97 238.59 887.11 244.64 889.17 244.63 904.52 234.6 915.74 227.21 928.39 224.57 936.05 218.68 934.56 215.72 927.28 191.01 899.74 188.59 893.77 191.3 889.71 183.63 880.39 178.78 872.6 175.65 870.44 165.53 871.42 151.82 856.77 146.15 849.01 154.41 835.45 158.98 821.59 159.89 777.09 156.04 760.08 154.51 738.73 156.53 711.96 158.22 701.11 168.64 681.04 170.45 668.3 170.41 650.12 171.35 639.9 182.91 618.36 192.73 611.1 197.18 600.05 212.48 568.28 216.79 556.4 216.71 547.76 212.99 533.94 208.18 526.64 209.97 516.59 219.92 514.38 210.11 508.16 219 506.81 217.46 501.87 232.09 492.21 239.38 502.1 248.75 503.98 258.23 509.22 267.94 521.88 276.32 527.97 287.32 534.27 295.88 542.83 299.57 551.56 304.49 551.6 307.21 543.32 305.99 540.9 309.82 527.44 307.02 523.24 309.15 518.85 314.56 518.07 319.81 510.66 314.99 499.18 321.34 492.09 325.11 484.06 333.39 480.66 336.31 477.67 336.3 469.55 345.78 459.5 343.71 453.07 349.91 447.79 359.94 450.17 367.74 455.83 376.17 454.71 385.57 448.31 391.06 451.5 400.34 453.22 411.17 467.13 416.89 470.3 421.83 477.41 433.16 485.39 437.87 489.91 455.75 499.72 453.2 510.43 448.81 516.01 445.3 527.76 439.29 540.92 439 548.3 443.64 554.66 443 563.49 447.31 570.64 450.78 570.98 450.08 579.06 451.12 587.82 449.25 590.96 450.15 599.21 452.84 606.89 471.25 628.92 475.93 637.62 Z" id="25050530"/>
<path d="M 284.26 945.7 286.89 945.08 292.34 968.66 329.79 959.94 336.66 990.78 327.48 991.75 323.76 1000.79 321.06 1001.76 306.15 1014.87 291.01 1016.02 291.77 1035.2 279.89 1035.71 280.31 1045.79 268.98 1046.97 269.48 1050.75 250.16 1050.34 241.67 1040.81 241.41 1033.04 221.09 1033.57 211.75 1025.82 200.09 1020.09 211.36 1001.2 216.29 986.52 216.99 980.48 223.36 940.51 224.57 936.05 228.18 939.77 236.62 943.52 235.35 949.1 238.09 953.78 251.71 953.31 284.26 945.7 Z" id="25050550"/>
<path d="M 432.53 827.03 435.01 841.83 438.72 847.77 434.48 853.34 418.77 863.34 418.58 869.54 413.47 885.42 406.52 880.43 402.45 880.41 397.4 885.3 385.6 886.65 376.93 889.45 370.57 893.32 361.88 901.11 359.98 907.08 351.12 913.24 345.17 923.09 332.9 920.87 323.57 921.48 329.79 959.94 292.34 968.66 286.89 945.08 284.26 945.7 282.78 942.08 269.3 883.7 267.94 874.69 268.89 872.51 285.95 869.59 287.43 866.1 307.09 859.22 314.37 853.99 331.48 846.59 337.94 839.03 342.13 831.55 358.75 820.03 357.66 813.94 359.53 802.72 365.78 803.24 374.16 806.56 379.37 811.66 385.88 808.57 405.63 811.93 408.38 816.79 407.59 824.15 419.26 831.82 428.33 829.96 432.53 827.03 Z" id="25050570"/>
<path d="M 273.12 301.15 269.87 296.61 260.41 288.65 247.09 283.03 230.36 270.31 225.29 260.51 218.01 254.51 207.99 248.5 207.61 245.06 201.87 233.48 191.94 233.09 188.55 205.62 168.63 206.31 164.52 204.81 165.01 195.3 178.5 196.12 187.69 195.21 219.8 188.18 245.95 183.2 267.03 182.7 261.92 186.15 262.11 191.34 271 234.74 273.56 242.44 276.39 256.42 277.82 269.87 275.44 281.24 276.57 289.87 273.12 301.15 Z" id="25050590"/>
<path d="M 375.27 1078.56 365.61 1073.33 366.24 1062.87 353.51 1049.86 355 1039.77 348.33 1033.4 350.46 1022.23 346.14 1010.82 343.76 1007.87 332.57 1005.88 330.1 1001.78 323.76 1000.79 327.48 991.75 336.66 990.78 329.79 959.94 323.57 921.48 332.9 920.87 345.17 923.09 351.12 913.24 359.98 907.08 361.88 901.11 370.57 893.32 376.93 889.45 385.6 886.65 397.4 885.3 402.45 880.41 406.52 880.43 413.47 885.42 414.93 897.46 417.78 905.6 423.85 911.77 418.57 916.06 415.07 926.38 412.17 929.9 411.85 936.74 404.46 951.9 410.88 965.69 410.85 971.17 415.98 973.38 421.06 979.8 423.55 988.18 415.7 997.04 411.94 1003.39 396.03 1024.13 386.86 1042.75 387.18 1051.28 375.27 1078.56 Z" id="25050620"/>
</g>
</svg>