<?xml version="1.0"?>
<svg xmlns="http://www.w3.org/2000/svg" version="1.2" baseProfile="tiny" width="800" height="528" viewBox="0 0 800 528" stroke-linecap="round" stroke-linejoin="round">
<g id="dong">
<path d="M 750.46 34.48 751.74 54.36 747.82 56.85 753.17 66.71 753.13 96.92 750.05 97.01 750.68 127.69 753.02 138.03 754.08 154.97 760.28 180 765.91 188.41 774.69 205.55 779.13 212.65 784.26 229.65 785.86 248.83 779.49 249.34 775.6 254.52 768.19 254.17 764.1 259.56 758.36 260.15 751.49 265.58 743.98 264.98 725.99 257.84 724.39 253.61 715.89 242.78 706.98 234.47 705.48 224.6 711.22 214.89 697.75 208.48 692.63 220.63 687.13 227.61 679.4 234.02 669.06 224.21 678.19 214.16 682.16 205.34 683.71 188.26 674.6 186.13 669.22 181.81 657.56 166.28 640.14 145.98 617.85 148.08 612.37 147.27 603.48 141.57 599.13 134.61 595.39 122.79 586.28 111.1 579.4 106.51 578.58 97.15 581.36 92.57 581.49 81.67 578.72 76.94 578.11 61.64 574.52 55.36 574.26 42.74 568.89 34.53 556.82 23.95 550.11 21.43 545.83 22.98 545.87 16.83 549.33 11.2 558.09 6.82 566.88 8.25 579.1 15.22 590.72 10.61 600.6 4.96 613.31 1 618.87 4.31 620.58 12.59 612.85 30.14 615.36 35.19 630.98 47.6 640.43 51.37 650.55 48.91 658.57 42.48 678.91 31.2 701.45 26.58 729.01 27.69 737.09 31.77 750.46 34.48 Z" id="26010630"/>
<path d="M 679.4 234.02 684.26 249.26 690.98 278.46 695.93 287.67 703.5 290.15 711.12 289.12 711.53 293.91 696.8 304.22 692.13 309.78 677.13 319.32 660.1 332.21 658.05 332.63 644.62 315.02 637.8 304.16 644.28 299.55 644.88 291.07 642.66 276.45 637.94 272.68 622.94 286.38 617.08 279.51 604.63 289.76 586.31 278.99 579.3 266.16 578.82 265.1 584.36 253.15 596.47 253.77 602.01 249.15 595.96 241.78 590.74 239.37 591.07 234.25 587.78 228.99 592.11 220.25 585.88 209.65 576.34 203.5 569.47 204.31 581.1 185.88 573.09 178.42 584.92 165.28 592.7 166.09 588.97 159.32 582.55 158.73 569.59 148.54 560.86 148.42 547.34 138.75 548.28 131.62 552.44 121.85 541.54 120.69 531.42 113.28 534.65 104.47 534.8 97.79 523.74 82.12 513.32 73.05 511.61 62.64 513.92 51.74 524.72 53.24 536.45 47.24 543.8 37.86 546.12 30.14 545.83 22.98 550.11 21.43 556.82 23.95 568.89 34.53 574.26 42.74 574.52 55.36 578.11 61.64 578.72 76.94 581.49 81.67 581.36 92.57 578.58 97.15 579.4 106.51 586.28 111.1 595.39 122.79 599.13 134.61 603.48 141.57 612.37 147.27 617.85 148.08 640.14 145.98 657.56 166.28 669.22 181.81 674.6 186.13 683.71 188.26 682.16 205.34 678.19 214.16 669.06 224.21 679.4 234.02 Z" id="26010640"/>
<path d="M 578.82 265.1 572.05 264.16 563.12 267.58 555.08 274.53 553.63 279.81 554.23 299.36 548.73 300.32 553.18 318.1 543.44 320.39 551.51 354.12 529.12 360.44 521.18 360.42 500.55 351.16 488.26 351.01 485.36 350.39 475.36 305.57 481.12 292.1 487.58 280.71 479.4 281.02 475.71 278.79 470.7 268.84 466.14 269.09 454.41 256.16 442.53 263.47 435.69 263.24 423.35 256.27 414.44 254.31 407.24 259.08 391.3 258.41 383.17 261.93 368.68 251.83 364.18 245.14 354.27 236.41 346.49 234.49 332.5 227.96 329.57 224.78 325.22 207.3 325.24 200.63 321.86 186.76 316.19 181.74 312.4 171.22 316.29 156.04 322.2 148.56 325.15 138.97 322.03 130.57 314.92 118.97 306.12 109.78 303.51 101.52 301.39 76.44 295.22 73.84 296.62 64.62 304.78 69.8 314.3 69.93 325.79 73.41 333.43 70.58 341.96 59.07 353.77 53.37 378.08 53 388.94 55 400.93 54.81 401.92 61.85 414.85 71.27 410.89 75.57 418.38 90.61 423.18 92.76 429.71 101.52 441.41 99.33 447.45 101.61 458.35 95.37 464.95 84.95 471.76 77.86 487.25 64.39 502.66 54.36 507.21 49.84 513.92 51.74 511.61 62.64 513.32 73.05 523.74 82.12 534.8 97.79 534.65 104.47 531.42 113.28 541.54 120.69 552.44 121.85 548.28 131.62 547.34 138.75 560.86 148.42 569.59 148.54 582.55 158.73 588.97 159.32 592.7 166.09 584.92 165.28 573.09 178.42 581.1 185.88 569.47 204.31 576.34 203.5 585.88 209.65 592.11 220.25 587.78 228.99 591.07 234.25 590.74 239.37 595.96 241.78 602.01 249.15 596.47 253.77 584.36 253.15 578.82 265.1 Z" id="26010660"/>
<path d="M 551.51 354.12 558.61 352.18 559.33 360.44 556.39 364.22 555.24 371.78 557.88 381.23 557.6 387.26 565.38 395.69 569.52 395.21 585.96 386.27 596.51 385.12 599.76 389.99 601.31 408.92 599.16 414.18 614.09 416.21 621.27 421.15 628.67 420.79 626.13 453.09 615.63 452.12 605.49 457.7 604.78 460.05 620.62 463.38 627.23 467.57 595.96 474.99 580.58 476.76 553.39 474.27 532.59 471.44 512.59 470.28 498.15 468.35 476.14 459.96 454.65 455.37 447.93 452.97 448.37 442.22 449.49 443.24 475.62 448.25 492.71 444.62 504.56 435.87 502.5 432.91 509.2 427.92 513.83 420.21 508.87 415.87 505.07 405.4 494.22 383.42 488.41 368.12 488.26 351.01 500.55 351.16 521.18 360.42 529.12 360.44 551.51 354.12 Z" id="26010670"/>
<path d="M 659.8 381.79 666.57 382.39 668.17 385.76 675.69 387.51 678.93 405.73 681.15 409.27 688.41 405.22 691.52 408.43 701.05 411.87 697.27 458.74 683.18 457.55 680.39 463.6 688.55 470.75 690.56 476.7 669.38 474.74 640.83 470.97 627.23 467.57 620.62 463.38 604.78 460.05 605.49 457.7 615.63 452.12 626.13 453.09 628.67 420.79 621.27 421.15 614.09 416.21 599.16 414.18 601.31 408.92 599.76 389.99 596.51 385.12 601.29 389.05 620.64 394.53 623.7 389.35 623.17 368.95 625.63 366.28 629.36 371.17 633.39 365.55 639.79 372.09 647.35 376.36 653.42 382.61 659.8 381.79 Z" id="26010510"/>
<path d="M 796.51 365.67 795.93 369.2 788.29 375.22 772.5 382.77 767.9 387.25 767.09 393.91 768.75 402.84 775.4 420.23 776.77 430.03 769.07 447.89 771.7 449.58 780.56 463.35 780.36 466.39 786.9 476.5 787.58 481.09 773.05 472.76 766.54 473.44 759.07 470.2 758.49 475.72 742.49 471.86 724.6 475.42 714.57 478.53 698.06 478.93 690.56 476.7 688.55 470.75 680.39 463.6 683.18 457.55 697.27 458.74 701.05 411.87 691.52 408.43 688.41 405.22 681.15 409.27 678.93 405.73 686.35 399.3 691.93 391.81 695.09 384.42 707.21 387.6 720.31 378.97 721.65 381.19 736.15 371.61 744.73 367.21 784.34 366.69 796.51 365.67 Z" id="26010520"/>
<path d="M 720.31 378.97 707.21 387.6 695.09 384.42 691.93 391.81 686.35 399.3 678.93 405.73 675.69 387.51 668.17 385.76 666.57 382.39 659.8 381.79 663.13 370.9 672.53 369.15 651.78 342.28 659.94 336.1 658.05 332.63 660.1 332.21 677.13 319.32 692.13 309.78 696.8 304.22 711.53 293.91 716.29 294.37 710.04 305.95 708.1 333.37 708.61 342.15 704.23 352.6 720.31 378.97 Z" id="26010530"/>
<path d="M 578.82 265.1 579.3 266.16 577.51 280.38 579.75 289.79 585.04 302.55 591.01 312.09 598.34 320.68 601.81 327.7 600.44 331.74 609.66 343.93 613.95 352.31 625.63 366.28 623.17 368.95 623.7 389.35 620.64 394.53 601.29 389.05 596.51 385.12 585.96 386.27 569.52 395.21 565.38 395.69 557.6 387.26 557.88 381.23 555.24 371.78 556.39 364.22 559.33 360.44 558.61 352.18 551.51 354.12 543.44 320.39 553.18 318.1 548.73 300.32 554.23 299.36 553.63 279.81 555.08 274.53 563.12 267.58 572.05 264.16 578.82 265.1 Z" id="26010540"/>
<path d="M 785.86 248.83 784.7 265.71 784.17 290.47 787.54 305.65 793.26 317.6 799 346.27 796.51 365.67 784.34 366.69 744.73 367.21 736.15 371.61 721.65 381.19 720.31 378.97 704.23 352.6 708.61 342.15 708.1 333.37 710.04 305.95 716.29 294.37 711.53 293.91 711.12 289.12 703.5 290.15 695.93 287.67 690.98 278.46 684.26 249.26 679.4 234.02 687.13 227.61 692.63 220.63 697.75 208.48 711.22 214.89 705.48 224.6 706.98 234.47 715.89 242.78 724.39 253.61 725.99 257.84 743.98 264.98 751.49 265.58 758.36 260.15 764.1 259.56 768.19 254.17 775.6 254.52 779.49 249.34 785.86 248.83 Z" id="26010620"/>
<path d="M 658.05 332.63 659.94 336.1 651.78 342.28 672.53 369.15 663.13 370.9 659.8 381.79 653.42 382.61 647.35 376.36 639.79 372.09 633.39 365.55 629.36 371.17 625.63 366.28 613.95 352.31 609.66 343.93 600.44 331.74 601.81 327.7 598.34 320.68 591.01 312.09 585.04 302.55 579.75 289.79 577.51 280.38 579.3 266.16 586.31 278.99 604.63 289.76 617.08 279.51 622.94 286.38 637.94 272.68 642.66 276.45 644.88 291.07 644.28 299.55 637.8 304.16 644.62 315.02 658.05 332.63 Z" id="26010550"/>
<path d="M 488.26 351.01 488.41 368.12 494.22 383.42 505.07 405.4 508.87 415.87 513.83 420.21 509.2 427.92 502.5 432.91 504.56 435.87 492.71 444.62 475.62 448.25 449.49 443.24 448.37 442.22 449.67 441.54 454.13 414.52 431.64 412.95 429.02 400.63 431.45 390.21 429.37 384.74 426.73 366.65 435.18 366.61 433.1 344.17 428.98 344.5 429.29 334.95 427.23 330.01 424.6 312.02 418.86 306.12 419.62 294.28 406.61 280.39 409.68 266.51 407.24 259.08 414.44 254.31 423.35 256.27 435.69 263.24 442.53 263.47 454.41 256.16 466.14 269.09 470.7 268.84 475.71 278.79 479.4 281.02 487.58 280.71 481.12 292.1 475.36 305.57 485.36 350.39 488.26 351.01 Z" id="26010590"/>
<path d="M 332.5 227.96 346.49 234.49 354.27 236.41 364.18 245.14 368.68 251.83 383.17 261.93 391.3 258.41 407.24 259.08 409.68 266.51 406.61 280.39 419.62 294.28 418.86 306.12 424.6 312.02 427.23 330.01 429.29 334.95 428.98 344.5 433.1 344.17 435.18 366.61 426.73 366.65 429.37 384.74 431.45 390.21 429.02 400.63 431.64 412.95 454.13 414.52 449.67 441.54 448.37 442.22 447.93 452.97 436.62 448.39 426.57 449.25 416.05 454.57 406.04 463.73 405.16 480.99 407.52 506.06 404.11 510.83 395.62 517.57 378.88 522.76 358.02 526.7 349.82 527 340.41 524.39 330.46 517.62 322.92 517.47 315.54 513.57 300.73 498.01 298.74 493.12 309.29 484.28 326.02 448.47 334.07 441.09 334.35 435.43 322.47 407.58 309.75 411.57 303.39 404.54 299.32 395.75 301.02 392.27 309.04 387.76 308.53 376.76 304.49 368.61 289.22 364.4 281.13 365.82 275.5 359.67 255.12 353.98 239.49 360.49 232.05 358.03 230.68 354.73 235.53 348.13 236.69 327.94 234.44 308.32 227.46 299.93 225.95 293.24 228.07 286.43 228.62 275.54 224.74 268.41 224.96 252.7 238.02 235.07 244.15 234.36 245.3 226.51 253.13 218.83 253.82 209.26 262.37 212.23 271.02 212.73 275.16 209.77 287.85 212.06 302.71 205.35 311.46 212.13 317 218.59 332.5 227.96 Z" id="26010600"/>
<path d="M 253.82 209.26 253.13 218.83 245.3 226.51 244.15 234.36 238.02 235.07 224.96 252.7 224.74 268.41 228.62 275.54 228.07 286.43 225.95 293.24 227.46 299.93 234.44 308.32 236.69 327.94 235.53 348.13 230.68 354.73 232.05 358.03 239.49 360.49 255.12 353.98 275.5 359.67 281.13 365.82 289.22 364.4 304.49 368.61 308.53 376.76 309.04 387.76 301.02 392.27 299.32 395.75 303.39 404.54 309.75 411.57 322.47 407.58 334.35 435.43 334.07 441.09 326.02 448.47 309.29 484.28 298.74 493.12 295.41 487.69 282.14 478.04 264.2 472.88 255.81 469.08 226.62 450.66 220.35 448.62 194.99 445.39 183.17 442.45 179.03 443.08 166.68 449.23 151.84 449.89 135.57 442.2 127.87 436.89 110.28 417.45 107.85 412.7 96.35 400.89 90.88 390.36 82.73 380.74 77.84 377.13 69.62 375.08 56.35 374.37 55.33 363.95 52.52 353.06 48.86 345.82 49.9 334.61 47.24 328.93 39 321.44 42.68 304.2 42.37 300.99 50.36 292.88 45.88 284.09 46.37 273.27 43.42 268.29 45.08 255.63 50.74 251.38 60.27 252.06 60.01 247.88 52.96 231.4 55.66 219.85 51.83 213.2 45.5 209.99 36.52 211.43 30.15 198.73 25.14 196.53 20.1 179.31 24.89 163.84 21.55 156.87 19.51 146.52 11.04 139.49 14.76 131.98 13.19 119.79 5.9 117.41 1 109.41 1.8 100.15 7.35 101.16 20.5 107.14 26.62 103.27 33.27 105.54 45.44 115.32 55.06 125.2 73.42 129.75 83.49 135.44 90.34 134.49 96.6 137.21 98.31 141.81 109.37 145.87 111.48 136.78 119.59 126.79 131.09 126.96 142.68 124.4 152.02 127.49 164.02 134.44 172.92 137.3 183.42 138.07 204.47 141.9 224.01 146.82 236.53 152.48 230.8 155.21 226.83 173.27 223.62 182.92 236.12 189.51 236.82 193.88 244.35 198.86 246.69 206.22 253.82 209.26 Z" id="26010610"/>
</g>
</svg>