<?xml version="1.0"?>
<svg xmlns="http://www.w3.org/2000/svg" version="1.2" baseProfile="tiny" width="800" height="1483" viewBox="0 0 800 1483" stroke-linecap="round" stroke-linejoin="round">
<g id="dong">
<path d="M 216.97 1457.97 161.92 1482 160.68 1479.76 216.97 1457.97 Z M 222.63 781.28 204.45 777.96 204.55 793.89 199.8 800.87 212.62 816.08 219.79 848.1 216.78 857.91 227.36 877.06 224.36 884.52 228.02 889.86 219.39 902.51 209.13 904.56 202.21 933.76 199.31 939.56 209.31 957.86 218.45 980.99 229.14 987.9 237.93 1020 242.1 1025.45 255.77 1029.23 259.82 1036.43 258.98 1050.79 263.5 1053.57 270.31 1068.23 271.43 1079.9 275.84 1081.75 291.1 1107.5 294.76 1104.49 306.3 1115.63 310.45 1128.83 322.72 1134.32 338.17 1155.89 344.5 1157.56 351.46 1127.91 402.22 1138.36 417.77 1135.93 431.58 1144.31 436.76 1137.72 443.62 1119.72 452.4 1125.59 464.17 1127.85 466.79 1113.94 504.84 1140.86 530.5 1155.1 525.46 1166.58 533.72 1172.95 553.22 1180.13 567.66 1202.76 581.23 1217.92 572.98 1223.96 567.81 1233.2 557.06 1245.11 551.72 1265.42 544.14 1270.87 526.31 1276.27 515.57 1308.79 507.28 1312.31 484.62 1314.01 480.49 1309.55 506.06 1309.23 513.78 1306.95 522.15 1279.2 514.1 1272.04 506.15 1235.87 496.15 1223.77 485.98 1218.1 449.32 1216.52 434.79 1227.61 444.27 1244.89 444.41 1262.76 451.71 1268.32 471.87 1270.9 487.95 1286.82 484.73 1288.92 470.85 1274.41 441.02 1270.06 415.25 1276.59 398.98 1270.87 400.03 1262.35 384.75 1254.91 368.46 1256.98 361.2 1269.88 344.86 1278.12 333.71 1289.16 328.69 1301.86 333.45 1309.03 329.44 1318.58 340.48 1331.69 343.24 1346.9 314.46 1378.94 313.77 1381.96 296.62 1401.2 285.94 1409.01 266.8 1411.36 236.72 1403.15 230.03 1402.72 219.51 1413.02 216.29 1410.78 241.5 1385.29 215.12 1344.2 173.97 1345.2 173.9 1342.65 197.86 1342.08 193.59 1331.23 207.68 1331 206.9 1279.9 204.63 1213.2 194.31 1211.95 193.64 1198.31 207.79 1191.41 218.98 1191.11 218.3 1170.23 249.81 1106.01 188.07 1015.97 102.49 998.11 120.72 909.48 114.36 849.49 101.27 819.25 98.53 816.47 67.56 751.32 15.04 661.68 6.04 641.36 1 635.74 16.38 646.93 31.22 662.47 50.93 696.23 62.25 706.72 81.42 712.05 105.42 712 116.7 718.01 117.58 725.02 131.13 731.14 140.76 729.51 160.41 733.72 171.97 729.91 182.69 732.28 207.78 756.6 207.75 768.49 222.63 781.28 Z" fill-rule="evenodd" id="26030510"/>
<path d="M 581.23 1217.92 567.66 1202.76 553.22 1180.13 533.72 1172.95 525.46 1166.58 530.5 1155.1 504.84 1140.86 466.79 1113.94 478.14 1053.63 447.61 1046.35 437.67 1039.12 442.45 1010.57 424.56 1007.92 433.08 961.85 423.79 960.71 421.59 949.27 406.42 934.01 390.16 927.47 391.27 915.77 437.13 920.33 436.7 928.16 487.83 933.32 492.37 885.34 495.41 887.26 518.55 889.44 514.56 930.64 534.46 946.07 574.29 910.11 589.2 905.78 617.45 904.97 625.67 896.53 634.44 912.33 645.1 922.14 646.64 933.87 646.75 968.52 639.91 983.64 634.17 987.79 605.19 988.45 601.16 999.16 575.36 1000.92 557.88 1007.84 551.45 1014.06 545.91 1003.08 539.71 999.34 533.61 1003.02 518.49 1022.39 510.18 1036.02 505.84 1056.42 508.62 1072.62 519.81 1097.57 526.6 1105.73 542.59 1113.89 553.58 1107.68 562.45 1106.95 581.95 1093.24 591.16 1095.3 601.82 1091.66 606.75 1084.11 605.5 1072.46 621.5 1061.68 635.45 1067.88 635.19 1072.98 644.13 1078.26 654.17 1090.24 662.64 1120.63 648.42 1113.8 631.51 1117.11 614.21 1130.84 608.83 1140.19 607.77 1162.79 609.4 1180.18 600.07 1195.09 593.74 1209.39 584.63 1212.09 581.23 1217.92 Z" id="26030520"/>
<path d="M 222.63 781.28 241.33 788.25 255.63 796.92 265.93 793.68 295.82 795.27 301.77 803.03 317.8 803.61 327.46 807.35 338.65 819.11 346.8 823.21 359.4 823.35 368.75 833.08 369.03 859.53 381.38 872.25 380.67 887.58 364.64 914.32 391.27 915.77 390.16 927.47 406.42 934.01 421.59 949.27 423.79 960.71 433.08 961.85 424.56 1007.92 442.45 1010.57 437.67 1039.12 424.89 1032.74 388.26 1026.85 354.61 1037.29 336.7 1048.48 329.29 1055.96 301.86 1073.08 281.69 1079.29 275.41 1069.17 270.31 1068.23 263.5 1053.57 258.98 1050.79 259.82 1036.43 255.77 1029.23 242.1 1025.45 237.93 1020 229.14 987.9 218.45 980.99 209.31 957.86 199.31 939.56 202.21 933.76 209.13 904.56 219.39 902.51 228.02 889.86 224.36 884.52 227.36 877.06 216.78 857.91 219.79 848.1 212.62 816.08 199.8 800.87 204.55 793.89 204.45 777.96 222.63 781.28 Z" id="26030540"/>
<path d="M 733.68 384.81 733.98 393.75 747.86 402.69 751.17 409.82 731.29 457.24 724.21 483.07 724.22 497.45 731.02 521.83 733.11 544.61 752.8 613.18 761.19 634.51 758.65 638.93 731.28 613.71 719.5 608.34 711.27 614.27 694.78 597.85 674.32 591.97 670.6 596.7 583.18 604.87 586.91 724.52 597.4 727.66 596.96 716.66 601.82 692.57 607.4 694.57 619.1 691.77 667.44 689.58 675.51 664.33 639.78 649.6 641.61 645.04 678.31 659.88 685.07 637.24 692.94 639.06 694.36 650.94 704.65 655.74 714.28 652.53 714.83 663.79 688.85 731.98 683.42 752.81 684.52 779.34 675.78 797.31 667.35 839.75 669.88 850.06 683.38 862.73 691.9 876.02 635.94 870.43 626.85 878.48 621.38 874.89 620.57 849.3 615.68 852.17 600.91 847.86 588.27 850.88 545.53 852.15 545.34 847.77 525.87 848.15 521.79 852.2 518.55 889.44 495.41 887.26 492.37 885.34 497.86 835.53 411.44 827.46 401.98 832.77 368.75 833.08 359.4 823.35 346.8 823.21 338.65 819.11 327.46 807.35 317.8 803.61 301.77 803.03 295.82 795.27 265.93 793.68 255.63 796.92 241.33 788.25 248.18 780.44 251.76 754.87 255.27 745.79 251.82 737.32 251.58 712.9 255.84 717.48 267.38 718.78 272.36 731.32 282.76 740.27 313.07 738.57 325.39 744.92 337.57 739.81 373.96 741.53 401.56 737.64 409.12 733.68 430.42 742.2 437.43 735.5 442.86 719.42 448.33 722.57 458.63 720.65 462.99 706.62 468.74 711.44 466.48 718.78 503.11 729.77 516.87 692.69 519.53 669.72 521.29 636.71 518.06 571.02 516.74 557.65 513.31 551.33 468.18 486.94 488.36 473.14 517.75 519.53 529.83 515.44 540.78 516.69 541.85 502.73 549.79 499.07 556 474.48 554.44 467.67 559.71 452.63 554.16 442.81 565.23 434.34 583.79 427.07 599.18 416.53 599.37 398.73 610.54 394.28 627.66 373.36 648.63 382.85 654.02 392.24 678.83 392.42 691.04 384.17 691.32 378.83 718.57 376.27 727.96 378.57 733.68 384.81 Z" id="26030550"/>
<path d="M 488.36 473.14 468.18 486.94 453.77 469.07 444.58 463.62 424.85 471.48 412.78 480.71 394.21 508.38 357.75 510.75 346.54 525.19 334.77 536.05 318.02 542.93 312.12 547.95 311.8 561.38 307.09 569 290.94 567.79 266.43 595 270.73 605.53 259.53 604.13 245.19 622.39 234.65 626.69 234.28 635.68 221.43 633.49 214.82 640.25 201.46 629.64 185.96 629 182.41 625.88 163.79 621.1 162.24 613.65 155.12 603.94 160.89 592.98 169.07 587.75 171.59 572.01 183.81 550.44 189.93 548.74 203.22 529.13 203.28 499.99 214.15 490.15 210.85 470.79 204.94 465.67 198.96 445.66 200.83 431.93 215.6 414.8 222.62 410.56 226.81 385.9 232.03 377.58 251.73 378.73 257.45 372.93 286.78 359.82 290.14 352.19 301.53 343.36 320.24 345.65 326.59 350.1 340.52 353.4 346.67 360.17 359.52 366.64 367.93 374.38 385.1 374.73 403.22 378.8 412.69 363.81 403.55 359.57 405 345.16 418.58 341.82 445.66 362.12 438.72 367.08 425.02 357.88 423.98 365.77 430.68 384.87 437.52 396.41 433.57 416.88 436.54 427.34 445.56 417.49 471.48 417.68 471.78 459.04 488.36 473.14 Z" id="26030580"/>
<path d="M 733.68 384.81 727.96 378.57 718.57 376.27 691.32 378.83 691.04 384.17 678.83 392.42 654.02 392.24 648.63 382.85 627.66 373.36 610.54 394.28 599.37 398.73 599.18 416.53 583.79 427.07 565.23 434.34 554.16 442.81 559.71 452.63 554.44 467.67 556 474.48 549.79 499.07 541.85 502.73 540.78 516.69 529.83 515.44 517.75 519.53 488.36 473.14 471.78 459.04 471.48 417.68 445.56 417.49 436.54 427.34 433.57 416.88 437.52 396.41 430.68 384.87 423.98 365.77 425.02 357.88 438.72 367.08 445.66 362.12 418.58 341.82 405 345.16 403.55 359.57 412.69 363.81 403.22 378.8 385.1 374.73 367.93 374.38 359.52 366.64 346.67 360.17 340.52 353.4 326.59 350.1 320.24 345.65 301.53 343.36 290.14 352.19 286.78 359.82 257.45 372.93 251.73 378.73 232.03 377.58 226.73 366.16 221.05 363.62 219.13 341.06 215.03 335.6 214.99 314.34 225.86 291.56 239.52 282.7 247.79 281.8 268.08 269.5 277.76 253.64 286.07 243.96 294.42 214.85 295.3 201.26 283.02 190.64 298.8 175.83 323.31 160.4 334.31 146.51 345.39 138.5 355.15 122.28 371.26 119.35 392.98 104.5 401.91 105.66 408.43 98.13 438.49 94.72 451.49 90.01 464.99 71.82 485.49 69.41 493.74 71.24 513.32 70.72 522.83 73.31 527.57 67.08 555.52 69.63 562 55.77 570.63 59.83 585.84 49.99 592.18 62.51 608.63 52.17 612.92 57.4 623.63 58.87 631.06 53.94 640.77 62.54 644.73 61.16 651.91 45.71 672.05 36.65 669.53 21.21 675.24 13.92 689.92 19.68 700.92 15.14 705.31 4.62 729.66 1 738.61 24.42 744.1 33.91 747.36 47.92 754.77 56.64 755.54 64.09 762.37 78.55 772.96 91.15 784.73 97.77 790.25 107.2 784.32 114.79 779.87 133.56 779.77 144.49 790.25 164.72 792.39 189.57 794.65 197.07 794.17 242.68 799 254.76 788.02 269.93 779.46 269.88 772.1 274.37 764.65 286.68 762.45 303.79 765.16 308.78 766.28 330.61 755.98 335.42 747.26 344.06 743.36 355.92 738.33 383.01 733.68 384.81 Z" id="26030600"/>
<path d="M 492.37 885.34 487.83 933.32 436.7 928.16 437.13 920.33 391.27 915.77 364.64 914.32 380.67 887.58 381.38 872.25 369.03 859.53 368.75 833.08 401.98 832.77 411.44 827.46 497.86 835.53 492.37 885.34 Z" id="26030610"/>
<path d="M 437.67 1039.12 447.61 1046.35 478.14 1053.63 466.79 1113.94 464.17 1127.85 452.4 1125.59 443.62 1119.72 436.76 1137.72 431.58 1144.31 417.77 1135.93 402.22 1138.36 351.46 1127.91 344.5 1157.56 338.17 1155.89 322.72 1134.32 310.45 1128.83 306.3 1115.63 294.76 1104.49 291.1 1107.5 275.84 1081.75 271.43 1079.9 270.31 1068.23 275.41 1069.17 281.69 1079.29 301.86 1073.08 329.29 1055.96 336.7 1048.48 354.61 1037.29 388.26 1026.85 424.89 1032.74 437.67 1039.12 Z" id="26030530"/>
<path d="M 251.58 712.9 262.71 701.04 263.94 689.16 256.41 683.82 261.29 675.91 244.09 660.96 239.11 660.87 223.92 650.7 214.82 640.25 221.43 633.49 234.28 635.68 234.65 626.69 245.19 622.39 259.53 604.13 270.73 605.53 266.43 595 290.94 567.79 307.09 569 311.8 561.38 312.12 547.95 318.02 542.93 334.77 536.05 346.54 525.19 357.75 510.75 394.21 508.38 412.78 480.71 424.85 471.48 444.58 463.62 453.77 469.07 468.18 486.94 513.31 551.33 516.74 557.65 518.06 571.02 521.29 636.71 519.53 669.72 516.87 692.69 503.11 729.77 466.48 718.78 468.74 711.44 462.99 706.62 458.63 720.65 448.33 722.57 442.86 719.42 437.43 735.5 430.42 742.2 409.12 733.68 401.56 737.64 373.96 741.53 337.57 739.81 325.39 744.92 313.07 738.57 282.76 740.27 272.36 731.32 267.38 718.78 255.84 717.48 251.58 712.9 Z" id="26030590"/>
</g>
</svg>