<?xml version="1.0"?>
<svg xmlns="http://www.w3.org/2000/svg" version="1.2" baseProfile="tiny" width="800" height="906" viewBox="0 0 800 906" stroke-linecap="round" stroke-linejoin="round">
<g id="dong">
<path d="M 329.32 2.91 330.69 6.68 330.09 15.12 334.21 20.82 341.86 22.98 344.48 26.03 347.3 34.52 348.87 35.53 359.53 35.77 364.4 40.18 370.01 50.85 369.59 56.03 369.37 57.71 368.77 63.67 367.2 65.96 354.78 69.17 350.8 74.73 353.34 80.16 351.74 85.09 344.92 95.85 340.33 104.77 336.52 114.34 335.48 119.18 332.14 121.2 336.98 128.84 335.34 134.61 330.72 137.94 323.77 145.04 320.34 145.65 313.06 175.11 311.3 187.24 296.71 209.8 289.64 222.64 288.69 222.13 272.66 247.16 270.93 251.02 269.09 258.58 248.08 270.19 244.97 264.7 240.39 261.02 229.68 245.37 222.43 233.01 221.43 225.36 218.72 214.02 215.18 210.76 207.33 200.5 207.2 182.11 205.58 158.96 202.67 148.46 203.5 147.09 204.3 134.64 200.48 126.51 194.88 117.32 194.46 111.07 197.21 103.77 202.23 94.54 210.39 82.7 211.41 74.25 210.13 69.77 207.43 65.2 201.96 60.55 209.13 60.43 215.77 57.92 221.49 57.3 225.75 52.76 229.45 51.1 234.67 45.16 242.14 34.87 247.31 32.82 251.92 28.21 253.42 24.76 256.13 23.66 256.74 19.5 259.97 14.36 264.83 10.98 274.73 5.43 279.67 4.94 281.51 1.58 287.95 1.83 291.83 1 299.31 1.07 303.66 2 307.37 1.04 313.35 3.58 325.21 4.68 329.32 2.91 Z" id="26040520"/>
<path d="M 434.93 335.11 429.85 340.56 424.5 350.38 415.12 355.54 412.92 358.71 410.03 367.72 404.59 380.77 401.04 383.73 395.93 384.83 392.2 386.76 387.28 385.56 380.98 388.27 367.22 389.4 367.23 391.59 360.43 391.63 354.37 395.2 343.19 396.85 335.64 400.44 331.31 403.98 326.21 406.16 318.83 407.53 316 406.83 304.66 407.03 296.28 402.79 292.45 402.07 291.99 414.02 288.35 419.2 283.59 420.93 273.13 422.89 274.35 414.38 273.31 409.25 272.86 401.01 270.21 388.23 272.77 388.52 274.69 372.31 275.74 359.75 277.69 356.45 278.89 348.18 280.48 342.59 276.11 323.96 275.62 319.36 273.72 313.35 271.77 303.86 268.34 293.39 262.23 285.74 253.77 274.22 248.08 270.19 269.09 258.58 270.93 251.02 272.66 247.16 288.69 222.13 289.64 222.64 296.71 209.8 311.3 187.24 313.06 175.11 320.34 145.65 323.77 145.04 330.72 137.94 335.34 134.61 336.98 128.84 332.14 121.2 335.48 119.18 336.52 114.34 340.33 104.77 344.92 95.85 351.74 85.09 353.34 80.16 350.8 74.73 354.78 69.17 367.2 65.96 368.77 63.67 369.37 57.71 377.96 56.33 381.4 59.1 385.82 65.08 390.47 68.73 390.06 86.52 384.96 92.98 385.28 98.59 383.9 105.79 386.74 113.57 389.69 117.55 403.89 128.79 407.43 132.71 408.21 148.23 410.51 153.76 415.03 159.14 412.88 165.54 416.42 174.96 415.67 177.99 411.02 182.77 408.16 189.72 404.62 194.88 401.27 202.73 398.96 211.76 395.92 214.54 395.78 220.99 403.91 233.75 404.58 241.68 407.23 244.37 405.33 250.92 413.67 263.07 414.68 275.69 412.78 280.15 407.35 280.24 406.89 283.26 408.44 287.07 408.7 291.99 405.22 298.44 406.86 300.94 411.4 300.82 416.07 296.85 419.14 285.38 428.5 281.26 434.68 283.6 437.53 287.5 446.78 282.57 459.38 284.87 464.98 290.35 466.49 293.06 466.63 307.02 465.94 309.04 457.7 311.44 453.05 314.04 446.77 314.31 441.91 316.85 438.61 327.03 433.68 331.99 434.93 335.11 Z" id="26040510"/>
<path d="M 201.96 60.55 207.43 65.2 210.13 69.77 211.41 74.25 210.39 82.7 202.23 94.54 197.21 103.77 194.46 111.07 194.88 117.32 200.48 126.51 204.3 134.64 203.5 147.09 202.67 148.46 205.58 158.96 207.2 182.11 207.33 200.5 215.18 210.76 218.72 214.02 221.43 225.36 222.43 233.01 229.68 245.37 240.39 261.02 244.97 264.7 248.08 270.19 253.77 274.22 262.23 285.74 268.34 293.39 271.77 303.86 273.72 313.35 275.62 319.36 276.11 323.96 280.48 342.59 278.89 348.18 277.69 356.45 275.74 359.75 274.69 372.31 272.77 388.52 270.21 388.23 272.86 401.01 273.31 409.25 274.35 414.38 273.13 422.89 271.4 438.44 268.63 452.16 269.45 470.4 261.69 468.83 257 466.46 241.01 465.81 227.93 468.5 216.13 475.05 211.47 478.78 205.6 480.21 200.11 478.02 191.05 470.81 189.59 467.88 194.08 457.68 193.09 452.87 189.86 450.95 182.49 453.25 176.75 456.53 170.01 459.21 162.91 455.16 157.81 454.33 152.73 456.87 150.72 460.15 150.7 463.72 150.87 467.88 149.52 472.37 145.26 477.82 138.45 481.3 132.19 480.43 128.29 479.33 125.65 481.95 116.71 487.78 107.72 495.61 103.77 499.72 99.94 505.78 93.61 509.4 90.11 508.08 83.32 509.35 79.53 504.26 76.74 503.01 72.39 494.27 74.69 491.78 67.19 486.3 66.62 482.21 59.66 482.32 53.36 481.16 39.25 481.37 32.4 484.69 27.45 491.37 23.01 493.02 16.35 491 10.82 490.92 6.09 487.91 5.38 481.95 1 475.25 1.46 471.02 3.59 465.63 10.27 459.13 12.31 455.11 10.99 451.96 15.97 447.61 13.46 442.55 16.92 440.11 16.85 436.64 22.99 427.61 26.61 426.19 29.64 419.36 30.06 413.64 28.97 410.13 29.67 406.44 33.64 403.7 37.6 402.95 40.73 400.85 44.08 395.6 45.02 390.2 42.58 377.64 44.68 374.16 45.69 365.62 37.14 355.4 30.99 351.86 25.6 350.12 21.36 346.07 21.63 339.85 18.7 335.22 20.63 330.35 24.2 327.24 20.29 321.29 22.19 310.15 21.48 302.81 28.48 296.38 33.49 287.42 36.09 274.58 35.05 265.99 31.1 260.41 28.33 250.81 27.89 241.85 26.36 238.66 28.42 216.68 30.35 214.19 30.01 211.01 26.72 207.43 25.81 200.61 28.39 198.45 28.92 190.95 35.03 184.21 40.87 185.43 45.97 182.12 53.87 181.69 56.24 180.06 55.78 173.98 57.17 170.14 51.32 165.39 53.69 161.1 59.77 161.34 60.28 156.55 58.63 149.57 60.62 131.47 67 128.18 74.83 130.07 78.49 125.14 81.76 123.84 82.55 119.9 88.34 113.06 91.36 111.14 98.13 112.49 102.98 116.85 108.63 123.52 114.17 117.49 115.77 117.09 123.33 120.25 127.93 124.78 127.36 130.39 129.23 133.47 135.35 131.55 136.03 128.37 142.06 123.3 143.98 123.47 148.41 120.58 157.61 125.23 167.34 118.75 173.1 122.3 176.18 118.97 177.26 110.51 174.32 108.81 171.07 109.9 170.55 97.21 177.6 90.77 175.71 87.55 181.04 80.99 188.04 83.69 189.39 81.62 187.79 75.42 190.75 71.29 190.11 67.26 192.54 63.48 194.37 57.25 201.96 60.55 Z" id="26040530"/>
<path d="M 722.43 148.52 722.01 151.32 718.7 154.91 717.24 159.68 718.64 161.28 716.99 165.18 712.04 169.59 710.52 172.33 705.21 176.83 700.76 175.73 695.06 178.59 689.72 179.87 686.11 185.33 685.29 193.71 685.96 206.04 688.23 222.65 692.04 233.53 695.63 237.69 690.09 246.3 685.87 248.23 684.77 252.42 687.89 266.41 694.47 282.5 697.37 291.4 701.62 299.28 712.26 311.5 719.37 317.75 722.42 318.92 726.51 324.14 734.16 328.98 738.79 329.43 742.06 333.12 747.6 341.25 746.54 342.46 738.88 331.89 730.91 332.2 726.39 340.29 728.86 350.29 733.59 352.02 737.94 344.75 741.52 343.59 740.61 348.72 737.59 350.9 739.37 355.01 747.87 354.52 753.46 354.97 757.29 353.03 762.53 353.7 767.65 358.15 768.04 362.09 762.93 371.15 765.03 375.31 761.75 379.84 762 382.76 767.8 391.88 770.98 395.63 774.21 395.08 775.72 387.2 779.65 387.8 785.28 394.37 787.61 394.42 784.83 401.82 791.65 407.9 789.68 411.81 789.33 415.9 791.21 419.1 794 419.67 792.26 424.21 796.04 434.56 795.32 437.86 790.28 446.74 793.28 448.57 791.05 459.21 792.63 460.51 792.08 465.6 789.64 466.47 789.04 470.29 794.49 472.53 791.89 487.52 795.57 493.75 795.36 503.34 799 506.96 796.19 512.8 791.79 516.05 789.02 516.2 782.39 519.39 778.15 519.61 770.21 514.46 766.51 516.73 764.65 520.95 764.64 525.76 765.83 530.48 762.2 533.14 760.67 540.8 755.65 539.54 750.8 540.47 746.49 548.64 746.12 554.77 748.47 558.02 747.44 561.06 748.19 566.18 746.7 577.06 747.98 579.48 746.84 582.8 747.65 590.65 737.93 592.1 736.18 596.3 731.78 598.11 725.92 595.81 723.64 598.72 724.65 604.89 716.61 608.5 713.74 614.68 712.16 615.22 708.29 611.79 705.32 613.76 701.05 613.17 699.34 611.08 692.77 615.21 690.24 610.22 684.17 614.14 680.72 612.52 678.13 618.06 666.97 617.04 665.08 619.53 661.29 618.49 653.47 618.7 650.18 617.97 641.99 618.93 636.6 626.19 631.41 628.07 619.41 629.44 616.81 632.44 613.25 631.98 604.57 637.91 598.14 639.08 594.25 645.56 589.83 648.75 585.43 654.3 575.65 660.46 569.35 666.38 559.03 653.05 550.95 652.15 546.14 650.57 537.91 653.6 533.3 656.26 530.72 659.04 526.48 657.22 520.43 649.66 517.01 640.25 514.98 632.55 513.26 630.2 510.54 621.34 505.27 613.76 492.17 611.77 484.12 604.95 484.67 601.82 482.01 593.55 487.55 587.91 491.95 587.76 500.24 583.57 505.81 577.68 505.11 574.7 507.91 568.93 506.86 565.12 508.94 556.54 506.18 552.81 503.91 547.67 504.41 541 502.03 534.87 497.51 529.95 491.57 527.76 490.77 519.77 492.87 513.2 493.52 504.14 496.4 498.5 495.92 492.09 493.23 490.11 499.4 487.11 505.87 482.87 502.46 475.45 498.19 470.41 495.25 464.59 492.21 453.95 489.38 452.01 484.04 450.97 479.17 448.88 478.27 444.92 475.1 440.6 472.5 439.34 471.53 431.64 474.39 427.28 477.18 419.85 474.17 410.87 473.93 406.66 469.73 398.56 470.76 396.37 470.46 389.94 464.18 373.81 458.67 370.15 457.27 365.12 461.98 360.82 458.69 354.34 453.48 348.56 445.42 347.93 441.76 344.48 440.84 340.5 434.93 335.11 433.68 331.99 438.61 327.03 441.91 316.85 446.77 314.31 453.05 314.04 457.7 311.44 465.94 309.04 466.63 307.02 466.49 293.06 464.98 290.35 459.38 284.87 446.78 282.57 437.53 287.5 434.68 283.6 428.5 281.26 419.14 285.38 416.07 296.85 411.4 300.82 406.86 300.94 405.22 298.44 408.7 291.99 408.44 287.07 406.89 283.26 407.35 280.24 412.78 280.15 414.68 275.69 413.67 263.07 405.33 250.92 407.23 244.37 404.58 241.68 403.91 233.75 395.78 220.99 395.92 214.54 398.96 211.76 401.27 202.73 404.62 194.88 408.16 189.72 411.02 182.77 415.67 177.99 416.42 174.96 412.88 165.54 415.03 159.14 410.51 153.76 408.21 148.23 407.43 132.71 403.89 128.79 389.69 117.55 386.74 113.57 383.9 105.79 385.28 98.59 384.96 92.98 390.06 86.52 390.47 68.73 385.82 65.08 381.4 59.1 377.96 56.33 369.37 57.71 369.59 56.03 377.93 53.22 385.39 52.32 392.75 50.33 406.17 45.27 411.09 44.11 417.25 45.11 420.81 47.27 429.29 48.73 431.94 48.31 447.52 54.7 457.37 58.03 461.67 57.37 465.17 60.24 476.43 59.74 482.14 61.51 488.99 61.22 494 62.21 497.22 64.02 503.47 77.41 507.28 82.63 508.94 86.93 511.64 87.75 525.76 87.93 530.34 83.59 535.95 83.56 540.72 81.74 544.35 81.85 556.3 86.13 566.49 91.88 571.99 95.95 574.13 99.29 580.29 99.4 583.43 100.92 586.16 104.64 592.27 105.69 602.44 111.98 612.38 117.26 618.13 117.34 623.05 119.71 624.65 125.82 632.26 124.16 639.77 119.94 644.5 119.39 646.16 126.68 646.11 132.17 652.47 141.25 655.43 142.52 661.65 137.53 663.33 132.34 665.62 130.49 674.08 126.46 680.18 129.56 688.15 129.31 694.82 133.05 701.89 135.89 705 139.2 713.2 145.96 717.32 148.35 722.43 148.52 Z" id="26040540"/>
<path d="M 415.99 796.75 409.78 789.69 405.39 786.29 395.64 777.99 386.6 783.12 377.53 782.45 370.89 779.2 364.16 772.59 358.98 765.1 358.42 762.87 349.3 759.89 343.44 754.39 310.88 742.19 302.2 739.93 289.19 735.41 282.25 730.96 274.11 726.75 274.44 723.54 278.78 725.43 282.56 725.03 290.99 729.87 290.59 727.21 286.8 721.33 286.92 719.57 281.77 711.56 280.25 710.58 284.72 700.21 283.92 694.52 280.06 684.41 279.1 679.22 279.57 675.35 282.24 672.75 291.4 668.37 295.83 664.87 296.17 662.81 297.62 651.54 294.29 634.89 290.97 627.95 289.01 619.13 289.32 604.74 289.99 594.93 289.06 583.79 286.09 573.92 283.51 569.79 287.2 566.42 289.71 567.59 295.96 562.02 304.09 553.08 306.4 551.88 312.19 541.49 313.64 533.17 316.49 522.75 320.01 522.11 337.09 513.35 337.04 507.07 362.92 506.7 367.54 508.81 371 506.27 376.16 506.08 376.38 500.45 380.95 500.05 387.51 502.15 391.04 507.24 397.93 507.58 398.47 503.46 409.91 504.25 417.16 501.52 422.53 502.66 427.06 505.43 430.15 502.1 430.96 495.92 438.91 491.75 440.39 491.75 445.42 487.29 451.78 483.62 459.09 484.69 467.95 483.99 475.48 489.28 485.28 489.7 486.39 490.68 493.23 490.11 495.92 492.09 496.4 498.5 493.52 504.14 492.87 513.2 490.77 519.77 491.57 527.76 497.51 529.95 502.03 534.87 504.41 541 503.91 547.67 506.18 552.81 508.94 556.54 506.86 565.12 507.91 568.93 505.11 574.7 505.81 577.68 500.24 583.57 491.95 587.76 487.55 587.91 482.01 593.55 484.67 601.82 484.12 604.95 492.17 611.77 489.26 612.78 485.12 616.89 483.58 615.58 478.6 618.38 474.76 621.95 472.1 627.56 460.93 632.1 459.46 630.51 453.21 633.8 447.69 638.71 442.64 641.41 436.22 649.68 435.46 654.12 429.24 657.48 422.43 662.47 414.15 663.97 409.19 662.8 402.19 667.13 396.56 665.27 385.56 673.78 386.39 677.58 381.35 682.78 380.42 688.06 382.85 692.8 380.72 701.16 382.53 705.1 384.15 716.95 388.92 720.68 394.07 728.05 403.88 732.87 409.8 736.84 414.77 738.7 415.95 744.7 419.46 748.81 418.41 752.05 415.58 752.73 413.77 760.44 411.29 764.98 414.05 783.84 420.85 787.42 426.63 791.42 428.56 794.91 425.04 798.38 417.3 793.03 415.99 796.75 Z" id="26040560"/>
<path d="M 493.23 490.11 486.39 490.68 485.28 489.7 475.48 489.28 467.95 483.99 459.09 484.69 451.78 483.62 445.42 487.29 440.39 491.75 438.91 491.75 430.96 495.92 430.15 502.1 427.06 505.43 422.53 502.66 417.16 501.52 409.91 504.25 398.47 503.46 397.93 507.58 391.04 507.24 387.51 502.15 380.95 500.05 376.38 500.45 376.16 506.08 371 506.27 367.54 508.81 362.92 506.7 337.04 507.07 337.09 513.35 320.01 522.11 316.49 522.75 313.64 533.17 312.19 541.49 306.4 551.88 304.09 553.08 295.96 562.02 289.71 567.59 287.2 566.42 283.51 569.79 278.41 559.83 275.15 554.94 271.55 540.4 270.94 530.56 269.57 524.56 269.21 506.73 271 506.68 271.02 489.13 267.92 483.4 270.19 481.95 269.45 470.4 268.63 452.16 271.4 438.44 273.13 422.89 283.59 420.93 288.35 419.2 291.99 414.02 292.45 402.07 296.28 402.79 304.66 407.03 316 406.83 318.83 407.53 326.21 406.16 331.31 403.98 335.64 400.44 343.19 396.85 354.37 395.2 360.43 391.63 367.23 391.59 367.22 389.4 380.98 388.27 387.28 385.56 392.2 386.76 395.93 384.83 401.04 383.73 404.59 380.77 410.03 367.72 412.92 358.71 415.12 355.54 424.5 350.38 429.85 340.56 434.93 335.11 440.84 340.5 441.76 344.48 445.42 347.93 453.48 348.56 458.69 354.34 461.98 360.82 457.27 365.12 458.67 370.15 464.18 373.81 470.46 389.94 470.76 396.37 469.73 398.56 473.93 406.66 474.17 410.87 477.18 419.85 474.39 427.28 471.53 431.64 472.5 439.34 475.1 440.6 478.27 444.92 479.17 448.88 484.04 450.97 489.38 452.01 492.21 453.95 495.25 464.59 498.19 470.41 502.46 475.45 505.87 482.87 499.4 487.11 493.23 490.11 Z" id="26040570"/>
<path d="M 569.35 666.38 560.62 673.06 555.05 674.84 551.55 677.95 542.98 682.73 537.27 682.67 533.72 685.02 530.61 683.75 523.99 688.37 506.07 696.16 504.26 700.93 497.33 701.36 495.84 705.26 493.46 707.18 494.01 711.18 492.28 714.38 498.41 719.23 495.48 722.54 497.01 731.31 493.67 737.67 490.96 740.51 491.37 745.74 489.77 750.09 486.82 751.53 483.4 756.34 481.7 761.28 475.87 763.42 474.64 766.85 469.9 771.2 474.77 773.5 470.85 780.73 466.28 779.59 464.95 784.48 460.79 783.38 457.12 786.66 453.32 795.31 452.35 800.01 446.51 799.47 431.56 815.4 415.99 796.75 417.3 793.03 425.04 798.38 428.56 794.91 426.63 791.42 420.85 787.42 414.05 783.84 411.29 764.98 413.77 760.44 415.58 752.73 418.41 752.05 419.46 748.81 415.95 744.7 414.77 738.7 409.8 736.84 403.88 732.87 394.07 728.05 388.92 720.68 384.15 716.95 382.53 705.1 380.72 701.16 382.85 692.8 380.42 688.06 381.35 682.78 386.39 677.58 385.56 673.78 396.56 665.27 402.19 667.13 409.19 662.8 414.15 663.97 422.43 662.47 429.24 657.48 435.46 654.12 436.22 649.68 442.64 641.41 447.69 638.71 453.21 633.8 459.46 630.51 460.93 632.1 472.1 627.56 474.76 621.95 478.6 618.38 483.58 615.58 485.12 616.89 489.26 612.78 492.17 611.77 505.27 613.76 510.54 621.34 513.26 630.2 514.98 632.55 517.01 640.25 520.43 649.66 526.48 657.22 530.72 659.04 533.3 656.26 537.91 653.6 546.14 650.57 550.95 652.15 559.03 653.05 569.35 666.38 Z" id="26040580"/>
<path d="M 548.99 741.02 546.91 744.34 545.24 754.19 542.43 755.88 536.54 762.72 535.79 768.2 538.18 776.2 540.54 778.24 541.86 785.97 537.52 789.9 537.49 801.53 532.19 809.37 529.74 810.04 524.86 818.66 523.86 824.94 520.59 827.03 518.29 831.41 521.13 835.28 521.75 838.26 529.19 840.17 530.6 841.41 536.79 841.67 542.12 845.9 545.76 850.08 551.82 854.14 553.81 854.17 560.68 860.15 558.73 863.3 561.73 865.44 561.24 870.18 556.8 874.91 556.9 884.67 558.27 888.05 556.87 891.67 555.44 901.88 552.7 905 545.24 902.22 539.3 897.11 539.31 892.36 529.3 882.65 525.02 881.71 520.4 883.23 512.56 881.54 508.71 882.2 503.3 879.75 502.95 876.95 498.45 874.56 488.87 874.57 481.22 872.45 476.7 868.26 468.83 854.78 462.9 848.57 456.76 844.1 453.19 841.06 443.06 829.26 441 827.55 431.56 815.4 446.51 799.47 452.35 800.01 453.32 795.31 457.12 786.66 460.79 783.38 464.95 784.48 466.28 779.59 470.85 780.73 474.77 773.5 469.9 771.2 474.64 766.85 475.87 763.42 481.7 761.28 483.4 756.34 486.82 751.53 489.77 750.09 491.37 745.74 490.96 740.51 493.67 737.67 497.01 731.31 495.48 722.54 498.41 719.23 492.28 714.38 494.01 711.18 493.46 707.18 495.84 705.26 497.33 701.36 504.26 700.93 506.07 696.16 523.99 688.37 530.61 683.75 533.72 685.02 537.27 682.67 542.98 682.73 551.55 677.95 555.05 674.84 560.62 673.06 569.35 666.38 574.25 670.61 573.9 676.04 570.56 687.67 567.25 691.53 563.39 697.87 555.28 702.77 551.98 703.14 546.53 706.67 542.19 715.77 542.21 724.26 543.84 726.44 544.61 735.45 546.88 736.46 548.99 741.02 Z" id="26040590"/>
</g>
</svg>