<?xml version="1.0"?>
<svg xmlns="http://www.w3.org/2000/svg" version="1.2" baseProfile="tiny" width="800" height="932" viewBox="0 0 800 932" stroke-linecap="round" stroke-linejoin="round">
<g id="dong">
<path d="M 454.81 429.87 457.23 432.64 458.58 433.48 460.3 433.68 462.61 431.64 465.26 432.2 467.77 431.27 469.01 432.98 469.83 435.04 471.55 437.88 470.74 439.47 471.94 444.01 472.53 447.92 469.98 449.98 467.16 457.76 462.96 460.53 460.21 461.98 457.19 462.61 454.83 466.65 453.99 470.07 453.79 472.93 451.95 475.6 452.47 477.15 452 478.7 452.46 481.37 454.77 481.41 457.33 484.37 459.16 485.13 463.17 490.24 464.39 493.49 464.21 495.3 462.34 496.67 459.24 496.32 453 496.16 450.79 498.38 448.66 497.79 447.69 503.07 447.06 504.01 445.63 504.06 443.44 508 441.76 508.53 440.43 512.16 440.86 513.73 439.5 516.91 438.5 517.97 437.28 517.52 432.69 517.18 431.62 519.16 431.79 522 432.93 522.69 434.27 525.15 435.91 525.22 438.85 527.55 439.1 531.95 441.62 538.03 444.22 539.59 446.95 544.45 446.44 545.4 447.35 548.15 448.71 549.69 450.39 552.81 451.2 553.55 448.07 557.61 449.19 560.86 447.62 561.05 445.37 564.1 442.92 563.84 442.47 563.14 440.03 562 438.8 562.78 437.08 561.98 434.44 562.55 432.57 561.75 431.33 560.42 426.73 560.03 422.47 558.65 421.71 563.04 420.8 563.75 417.52 564.94 419.11 567.96 421.51 569.06 422.08 572.73 421.36 574.37 420.68 577.4 418.61 578.36 417.71 579.71 418.39 585.95 417.24 587.96 416.7 590.48 414.61 585.91 410.27 583.23 407.99 581.47 407 579.41 405.15 579 403.16 580.3 397.37 581.65 395.1 581.5 393.19 582.6 390.27 583.72 387.69 583.25 385.86 582.19 382.83 582.07 380.82 582.73 377.05 583.16 376.18 584.89 373.35 586.33 371.47 586.42 369.69 588.22 362.81 594.03 360.85 595.52 357.66 596.31 355.24 598.94 354 601.7 353.9 604.53 352.01 605.56 350.19 607.18 347.53 607.5 346.08 608.2 343.6 608.06 343.1 611.88 341.84 617.13 340.17 619.15 340.81 621.77 341.47 622.81 340.14 626.58 338.19 627.67 335.33 627.11 331.72 627.12 328.43 630.71 326.94 631.6 323.05 635.18 320.85 640 318.36 637.95 317.51 636.55 315.34 635.99 314.47 631.73 309.88 627.42 305.6 623.62 296.58 619.64 294.19 614.85 296.23 610.09 295.29 603.92 290.49 599.65 287.92 594.92 288.15 593.13 287.02 592.18 287.27 590.22 284.69 588.57 284.18 588.72 277 585.3 274.9 583.48 272.31 582.22 271.34 580.33 269.71 578.55 270.45 577.1 270.25 575.72 268.96 573.43 268.84 571.87 271.32 568.36 271.47 565.47 270.64 564.68 270.34 562.43 268.67 561.71 266.32 558.77 265.9 555.83 265.1 553.26 265.95 550.67 265.22 548.49 265.91 545.41 262.71 543.88 263.03 542.33 260.56 540.45 257.82 539.58 255.31 540.58 253.73 542.16 251.95 542.53 249.47 541.51 246.57 538.7 242.91 538.85 241.86 540.05 242.37 535.29 244.01 534.06 246.91 525.64 245.59 524.75 245.79 523.17 244.56 518.87 244.61 517.32 246.2 511.37 249.38 509.2 250.22 507.59 253.82 506.79 256.96 509.02 259.79 508.58 262.18 505.51 264.27 504.31 265.65 502.67 265.81 501.49 267 500.67 267.01 499.2 269.77 495.74 270.16 493.27 274.46 491.63 275.91 489.3 274.97 487.99 275.29 486.52 278.57 486.04 279.67 484.51 281.69 482.73 281.06 480.39 278.99 480.7 278.46 479.6 279.09 477.97 282.24 473.33 284.4 470.82 285.36 470.85 286.71 469.15 287.78 466.78 287.62 465.99 288.96 463.19 292.02 460.83 292 459.72 293.44 459.39 294.14 457.89 298.27 454.75 299.31 452.04 300.13 452.32 301.99 450.43 304.67 449.52 305.9 450.43 309.48 449.5 310.58 447.63 313.66 447.78 318.99 445.36 319.92 445.2 319.85 443.13 322.68 436.83 325.14 435.96 326.08 434.59 328.51 433.62 330.62 433.01 332.02 431.84 333.91 431.69 336.46 432.5 338.67 435.27 338.09 436.83 338.99 437.81 341.78 438.66 343.06 441.52 342.67 444.24 343.53 445.94 345.02 445.73 349.41 445.99 350.79 444.92 353.54 446.18 355.86 445.39 356.91 444.36 357.14 442.65 360.03 444.16 362.73 445.99 365.78 445.42 368.55 445.88 369.24 446.54 372.36 446.6 373.5 447.28 375.95 446.1 378.43 446.37 379.79 445.91 381.73 446.53 383.82 449.73 387.27 448.12 389.85 447.22 393.2 447.59 396.3 445.68 401.64 443.07 404.29 441.21 405.67 435.21 406.27 431.23 406.82 429.51 409.1 427.75 416.2 425.53 418.69 424.26 419.75 425.08 423.19 426.06 423.96 425.02 427.47 424.55 429.81 423.52 432.07 426.76 433.29 428.99 432.15 431.03 431.72 433.63 430.91 435.25 431.64 436.08 432.26 439.03 432.1 441.02 433.43 442.64 434.65 443.05 436.48 444.67 438.14 442.81 438.82 441.36 443.29 440.62 444.59 438.43 445.7 438.81 449.42 437.06 452.65 435.23 452.61 432.78 454.81 429.87 Z" id="26510400"/>
<path d="M 232.64 220.32 232.45 222.16 230.98 225.03 230.56 227.63 229.17 232.45 229.1 238.54 230.42 241.36 234.23 245.04 234.98 247.33 236.51 249.8 238.92 252.52 239.67 256.82 241.31 259.19 242.71 260.18 246.05 263.6 246.14 264.65 247.34 267.07 247.65 269 250.16 275.77 252.38 275.94 255.44 278.19 257.24 278.77 258.82 280.17 260.3 279.92 263.45 281.3 267.32 280.87 269.65 281.41 271.72 280.73 273.98 282.44 275.5 282.69 280.12 284.56 281.43 287.33 283.27 287.92 284.94 287.57 288.88 292.11 290.79 293.78 290.94 295.27 290.17 296.67 289.41 299.43 290.46 301.82 290.44 305.69 290.1 306.87 292.3 308.51 292.77 310.14 291.07 311.12 291.55 312.97 291.03 316.8 291.34 319.9 290.43 321.88 292.1 324.02 291.98 324.9 288.06 325.24 285.09 327.88 283.98 331.54 284.59 333.49 282.42 335.7 281.18 339.25 277.52 342.64 277.55 346.9 275.77 351.45 274.75 353.02 274.21 356.04 273.4 357.51 270.96 360.6 269.25 362.35 267.59 362.85 263.82 366.3 262.67 367.03 263.13 369.21 265.51 376.43 266.83 379.76 269.53 381.85 271.51 382.13 270.14 384.59 267.19 387.64 263.62 388.08 261.79 389.65 259.69 389.25 257.23 389.86 254.68 391.03 253.84 393.46 252.45 394.11 253.59 396.28 254.16 398.95 248.78 401.02 244.28 403.3 242.14 406.99 243.11 409.37 245.78 411.62 247.84 420.31 247.06 422.44 243.33 424.23 243.58 427.57 241.08 430.82 238.15 432.92 232.91 433.95 229.7 436.26 227.3 436.1 222.91 436.34 220.72 436.78 215.52 433.76 209.61 434.04 208.31 435.53 207.66 437.16 205.17 435.99 201.56 435.17 198.81 436.54 195.67 436.09 191.47 437.85 184.27 438.75 180.95 439.68 172.72 442.53 170.27 443.22 167.11 445.9 161.85 449.3 162.57 455.52 165.31 459.97 158.52 463.18 153.66 464.63 151.23 466.43 146.57 466.83 143.12 468.09 141.62 467.72 139.82 468.99 134 471.58 128.85 472.96 123.77 474.92 122.64 475.88 120.95 476.27 116.27 475.04 111.01 473.09 104.91 476.34 102.58 477.19 97.61 480.42 94.22 480.16 92.61 481.32 91.52 481.42 89.37 480.26 87.46 481.75 83.41 483.04 79.4 482.95 77.11 481.09 75.8 481.19 75.62 479.05 76.1 475.24 76.88 471.55 76.59 470.94 72.78 469.16 68.44 469.51 66.35 469.12 61.71 469.85 53.85 471.89 49.27 472.67 47.7 471.98 47.74 466.54 50.63 462.17 49.98 457.32 49.94 455.11 50.88 452.85 53.88 449.37 55.4 447.22 54.86 445.94 55.58 443.77 54.31 439.73 52.32 438.64 51.04 436.68 50.81 434.33 51.54 432.1 46.5 430.35 45.65 426.84 42.35 426.62 39.67 422.9 36.46 416.74 32.79 418.92 29.1 421.75 26.95 423.81 20.45 429.42 19.38 427.88 17.94 424.13 12.68 417.31 9.09 413.45 4.53 406.84 2.76 406.03 3.42 404.36 3.12 402.44 1 396.9 2.29 397.02 9.49 392.95 13.81 389.21 17.03 389.19 19.16 388.3 21.04 388.11 23.91 385.13 27.44 386.22 31.3 384.25 34.05 382.38 36.29 382.56 37.9 381.32 43.12 379.41 44.86 380.2 48.17 378.03 50.69 373.63 55.17 369.05 58.22 366.72 60.12 364.14 63.14 358.14 66.07 354.34 68.4 353.04 70.96 348.49 73.39 348.14 75.61 346.63 79.19 342.4 80.71 341.73 83.47 342.61 88.87 340.91 91.95 339.48 92.5 338.42 91.75 336.57 92.17 333.79 91.87 332.54 92.79 330.41 94.84 328.08 96.92 326.24 97.72 325.03 99.03 321.75 99.01 319.01 98.32 314.15 98.66 310.62 99.3 310.01 102.22 301.24 101.53 297.44 99.05 295.35 98.26 294.14 98.7 291.52 99.79 279.24 98.41 273.73 98.46 269.36 97.34 267.53 91.4 264.41 89.68 264.26 86.09 262.88 79.58 265.27 76.21 264.08 70.34 264.03 69.2 263.46 66.29 258.06 64.86 256.78 62.19 255.85 59.02 254.05 61.12 250.59 65.28 246.37 72.11 240.47 77.76 238.01 81.78 235.82 85.68 233.4 88.04 231.27 89.14 228.66 91.79 220.85 92.89 218.61 98.22 217.75 100.74 215.77 104.28 214.99 108.91 219.04 111.76 220.49 116 221.37 117.2 222.43 121.61 224.97 124.44 223.87 125.1 221.16 126.25 218.14 131.18 214.04 131.35 212.36 132.91 208.28 134.3 207.18 136.32 203.53 138.4 197.53 139.44 190.86 140.93 186.47 141.19 184.14 142.71 180.83 147.39 182.02 149 182.09 149.86 183.13 152.7 184.06 154.67 183.59 158.05 185.28 163.61 185.73 171.3 188.65 175.89 189.83 177.27 191.31 179.22 191.62 182 191.28 186.16 191.98 188.57 193.16 191.82 195.88 198.45 203.67 204.93 199.26 208.54 196.61 209.43 192.08 208.89 188.14 207.99 185.52 206.15 182.81 202.66 181.07 199.14 178.7 197.45 176.59 191.19 167.71 189.04 164.35 187.54 160.7 183.14 160.97 182.77 160.42 181.42 152.9 183.61 148.72 182.9 140.8 184.47 136.15 180.72 130.81 182.45 126.42 184.16 125.04 188.28 120.8 191.75 116.32 190.32 115.83 187.21 113.45 185.78 110.29 185.33 106.87 185.42 104.66 189.2 99.89 193.36 93.45 193.05 91.73 193.96 89.71 195.65 88.88 196.15 86.16 198.08 82.11 198.84 79.15 201.04 76.72 203.94 75.52 205.15 72.26 204.79 71.38 208.73 69.57 210.08 68.05 213.43 67.56 215.21 66.88 218.26 64.66 221 61.47 223.13 59.9 223.66 56.13 225.48 59.37 226.75 65.4 229.14 68.54 229.97 71.87 234.82 73.74 234.92 79.9 236.2 82.45 235.92 88.23 235.92 94.14 234.35 101.48 235.25 103.16 236.47 106.9 240 111.53 241.55 113.27 242.88 114.05 244.29 119.03 244.5 120.84 246.57 124.41 248.71 127.21 251.41 130 250.96 135.14 252.35 140.09 255.59 142.52 258.97 146.85 261.31 150.85 262.02 154.73 261.89 162.71 261.02 164.75 260.93 166.39 260.19 167.24 255.49 170.55 254.28 171.18 252.62 173.23 249.74 172.29 250.41 174.85 249.34 177.9 247.44 179.76 243.78 181.06 238.4 186.92 236.51 190.06 232.96 194.18 231.48 196.79 228.69 198.45 225.57 198.11 224.43 199.31 224.77 200.67 226.74 204.22 226.96 206.45 229.47 214.85 230.82 216.98 231.63 219.13 232.64 220.32 Z" id="26510380"/>
<path d="M 793.56 673.84 793.17 685.96 792.79 693.56 792.28 694.03 792.55 683.98 793.33 664.08 798.08 652.57 799 651.4 793.84 664.15 793.56 673.84 Z M 773.19 648.57 771.18 653.5 767.87 652.03 768.51 650.45 771.69 647.96 773.19 648.57 Z M 795.13 651.67 786.97 648.47 787.37 647.65 795.26 650.86 795.13 651.67 Z M 742.69 640.89 744.48 641.6 744.65 642.81 742.77 644.32 741.56 644.58 740.77 643.44 742.69 640.89 Z M 711.48 583.05 711.99 586.72 713.09 588.02 714.61 588.78 716.42 588.99 719.87 592.36 720.14 594.55 721.04 595.73 723.29 596.79 723.45 600.04 724.82 600.73 726.58 600.05 727.81 601.09 729.55 605.28 730.46 605.83 730.86 608.07 732.57 607.73 733.39 612.13 733.81 612.92 734.81 617.92 733.08 619.01 734.17 624.09 738.35 645.57 742.84 647.35 747.31 643.52 751.27 644.81 757.49 645.89 758.2 649.64 755.89 657.95 746.68 662.53 746.41 662.86 749.22 668.89 767.1 660.96 768.29 660.67 774.37 645.76 775.91 642.6 776.53 643.21 785.76 647 783.83 646.98 781.95 651.52 777.58 655.26 775.65 659.99 769.85 657.63 769.6 658.22 775.41 660.58 771.07 671.23 780.73 675.17 780.99 684.74 784.48 684.59 785.43 685.3 773.33 685.57 772.32 687.49 768.71 689.57 768.35 690.85 766.59 692.13 764.96 692.11 765.23 696.2 764.04 697.39 761.65 697.01 752.55 696.2 745.33 695.43 745.15 696.13 753.6 697.63 764.2 699.64 764.41 702.1 766.06 702.06 766.03 700.35 767.41 700.4 767.49 705.36 766.97 705.61 767.32 723.04 765.21 723.72 765.47 734.75 770.55 734.76 770.8 740.17 771.7 741.13 765.63 741.38 765.89 754.99 758.76 761.79 757.16 762.38 753.81 762.43 753.82 763.01 749.9 763.2 749.35 764.22 750.16 767.71 752.07 768.7 751.58 770.88 752.12 772.98 750.14 775.8 744.63 777.42 743.09 778.13 741.34 777.82 739.85 778.52 737.92 781.53 735.12 784.19 733.87 782.93 733.47 781.33 732.01 780.17 729.27 779.41 725.92 777.96 720.53 776.46 715.22 775.44 702.42 771.46 685.71 764.9 681.36 762.57 674.68 758.11 671.42 754.95 666.55 752.93 663.13 751.83 660.82 750.01 659.81 746.14 659.87 743.56 661.26 740.61 663.9 737.91 666.43 733.2 667.89 728.59 668.21 725.12 667.76 719.84 665.89 717.93 661.07 716.71 660.35 716.05 660.66 714.46 664.6 709.41 664.75 704.74 667.17 701.8 664.59 701.54 659.39 700.24 657.19 698.81 654.67 698.11 653.71 696.87 651.95 696.81 651.91 698.23 650.55 700.97 650.04 702.99 648.23 705.98 648.48 707.33 647.47 709.7 646.12 711 644.3 711.58 642.66 710.6 642.33 709.43 640.14 707.15 636.87 707.14 634.98 705.9 633.14 705.34 630.2 703.26 628.76 702.66 624.78 703.22 622.03 702.41 620.94 699.7 619.32 699.53 615.75 697.42 613.99 694.35 614.25 691.12 613.99 688.53 612.73 687.33 612.93 684.2 612.42 681.52 613.64 680.79 614.29 679.5 613.2 678.15 613.16 676.5 612.03 676.05 609.86 673.87 610.88 672.06 612.13 671.53 612.31 669.63 611.98 667.32 616.26 665.11 616.86 664.13 619.59 664.62 620.53 663.9 622.32 664.01 624.23 666.07 624.53 667.28 627.3 664.5 631.09 666.51 633.13 665.83 636.16 663.11 634.56 662.58 634.37 659.86 637.25 654.84 637.35 651.79 635.96 648.72 635.56 645.07 636.98 642.34 637.96 642.17 639.8 640.39 639.72 637.54 637.81 628.67 640.2 628.01 642.77 627.91 645.07 628.29 646.1 627.49 645.97 625.14 648.4 625.16 650.26 626.12 652.15 622.95 654.53 623.06 656.46 624.25 660.75 626.34 664.41 625.61 667.44 626.47 667.86 624.92 667.44 622.73 670.4 623.02 672.67 622.1 674.16 620.27 675.73 620.8 680.44 624.01 683.33 623.53 684.38 622.34 683.35 619.24 685.1 618.4 687.63 615.41 693.82 612.82 696.59 610.43 698.67 609.03 699.31 606.92 700.88 604.78 701.68 601.74 702.98 599.67 703.06 598.64 699.01 594.05 701.76 591.71 702.16 590.82 703.76 591.07 708.36 587.79 708.78 586.84 708.3 580.92 710.19 580.7 710.26 583.3 711.48 583.05 Z" fill-rule="evenodd" id="26510110"/>
<path d="M 469.27 234.95 471.82 240.84 471.81 243.83 472.83 245.45 472.82 249.46 470.92 250.93 469.29 252.97 467.12 258.56 465.38 260.19 465.01 263.2 465.5 264.29 465.25 269.66 466.6 270.56 469.21 274.54 467.86 277.54 467.23 280.29 465.76 279.94 464.08 280.73 461.02 281.56 454.67 284.75 452.58 287.02 450.75 289.66 449.93 292.65 449.13 293.35 448.77 298.2 445.98 298.03 445.68 299.15 444.14 300.14 441.86 302.81 441.53 305.7 443.34 309.66 443.63 313.44 444.31 313.99 444.99 318.06 445.16 323.32 444.28 324.7 442.6 325.93 441.09 325.89 438.6 328.67 439.31 330.59 437.85 334.03 434.35 336.57 430.72 340.84 426.16 343.46 424.46 344.88 422.89 347.24 422.43 349.05 423.15 351.52 424.73 351.77 427.65 349.62 428.41 351.56 426.62 354.91 427.49 357.53 430.04 358.26 433.27 359.72 432.92 360.96 433.94 364.89 430.35 365.36 431.03 367.48 430.85 371.44 432.43 374.65 437.06 373.7 442.07 372.95 444.23 372.42 446.53 371.19 448.83 368.12 449.64 368.9 451.46 373.1 453.43 371.82 457.56 372.92 457.76 375.77 456.02 378.57 456.9 379.71 460.1 379.79 461.96 379.08 461.1 381.33 460.22 382.32 458.79 386.36 457.26 386.45 456.04 387.56 453.72 394.01 451.93 395.22 451.41 396.37 448.21 396.76 446.32 397.97 446.18 400.99 445.71 403.24 445.86 405.07 445.37 408.77 444.03 409.86 444.67 411.25 444 414.54 445.99 415.77 446.59 418.41 447.8 420.12 448.56 423.64 448.54 425.09 450.23 427.36 453.04 428.41 454.81 429.87 452.61 432.78 452.65 435.23 449.42 437.06 445.7 438.81 444.59 438.43 443.29 440.62 438.82 441.36 438.14 442.81 436.48 444.67 434.65 443.05 433.43 442.64 432.1 441.02 432.26 439.03 431.64 436.08 430.91 435.25 431.72 433.63 432.15 431.03 433.29 428.99 432.07 426.76 429.81 423.52 427.47 424.55 423.96 425.02 423.19 426.06 419.75 425.08 418.69 424.26 416.2 425.53 409.1 427.75 406.82 429.51 406.27 431.23 405.67 435.21 404.29 441.21 401.64 443.07 396.3 445.68 393.2 447.59 389.85 447.22 387.27 448.12 383.82 449.73 381.73 446.53 379.79 445.91 378.43 446.37 375.95 446.1 373.5 447.28 372.36 446.6 369.24 446.54 368.55 445.88 365.78 445.42 362.73 445.99 360.03 444.16 357.14 442.65 356.91 444.36 355.86 445.39 353.54 446.18 350.79 444.92 349.41 445.99 345.02 445.73 343.53 445.94 342.67 444.24 343.06 441.52 341.78 438.66 338.99 437.81 338.09 436.83 338.67 435.27 336.46 432.5 333.91 431.69 332.02 431.84 330.62 433.01 328.51 433.62 328.49 432.08 329.27 430.43 328.56 426.42 330.74 424.51 333.48 423.07 338.8 421.39 340.79 420.23 339.82 418.43 337.82 416.06 337.13 416.33 335.82 414.73 335.15 411.32 333.52 408.44 330.6 405.77 328.21 404.11 324.5 402.86 319.62 398.96 316.3 395.99 313.39 395.62 312.18 395.01 309.31 392.6 304.49 389.04 302.64 387.96 297.15 387.24 293.54 385.63 292.1 384.49 286.56 381.96 283.82 381.83 277.37 382.49 275.58 383.14 271.51 382.13 269.53 381.85 266.83 379.76 265.51 376.43 263.13 369.21 262.67 367.03 263.82 366.3 267.59 362.85 269.25 362.35 270.96 360.6 273.4 357.51 274.21 356.04 274.75 353.02 275.77 351.45 277.55 346.9 277.52 342.64 281.18 339.25 282.42 335.7 284.59 333.49 283.98 331.54 285.09 327.88 288.06 325.24 291.98 324.9 292.1 324.02 290.43 321.88 291.34 319.9 291.03 316.8 291.55 312.97 291.07 311.12 292.77 310.14 292.3 308.51 290.1 306.87 290.44 305.69 290.46 301.82 289.41 299.43 290.17 296.67 290.94 295.27 290.79 293.78 288.88 292.11 284.94 287.57 283.27 287.92 281.43 287.33 280.12 284.56 275.5 282.69 273.98 282.44 271.72 280.73 269.65 281.41 267.32 280.87 263.45 281.3 260.3 279.92 258.82 280.17 257.24 278.77 255.44 278.19 252.38 275.94 250.16 275.77 247.65 269 247.34 267.07 246.14 264.65 246.05 263.6 242.71 260.18 241.31 259.19 239.67 256.82 238.92 252.52 236.51 249.8 234.98 247.33 234.23 245.04 230.42 241.36 229.1 238.54 229.17 232.45 230.56 227.63 230.98 225.03 232.45 222.16 232.64 220.32 237.76 219.81 239.76 219.19 241.84 219.26 242.87 218.73 247.9 218.21 253.99 217.24 256.23 218.02 257.4 217.64 260.09 217.77 263.71 219.28 268.99 223.7 270.54 223.19 272.07 223.44 273.55 225.98 276.14 229.56 276.4 232.07 278.7 236.31 280.24 238.52 284.62 238.45 287.3 236.88 290.55 237.27 292.76 240 298.07 239.57 297.63 241.21 298.93 246.12 300.77 246.72 302.41 247.95 304.01 251.17 305.62 251.43 306.03 252.75 307.68 254.45 307.81 256.76 308.54 257.91 308.97 260.17 310.71 261.4 312.23 264.25 311.88 266.77 315.63 270.46 316.08 272.27 316.94 272.63 319.89 272.61 321.1 271.42 322.47 271.45 326.97 270.8 328.07 268.78 329.92 268.29 331.95 266.4 334.41 270.49 334.8 272.73 335.68 272.6 336.8 273.52 339.1 277.02 342.55 280.25 343.51 277.76 343.27 276.46 344.44 276 346.53 274.24 347 275.29 349.39 277.61 349.66 278.6 351.58 280.5 354.22 279.62 354.3 275.17 356.29 273.97 358.87 274.66 359.43 276.77 362.66 279.28 363.02 280.61 366.62 280.5 369.46 281.34 371.02 282.28 373.25 282.11 379.13 280.3 384.37 280.81 385.74 280.56 387.08 278.1 386.95 276.87 385.56 276.37 382.54 273.07 382.54 270.86 385.71 270.21 390.99 265.48 396.81 262.24 405.43 255.64 408.12 257.4 409.92 257.03 411.12 258.31 412.58 256.17 416.92 254.35 416.65 252.38 417.79 251.15 418.73 251.27 418.99 249.43 420.95 248.9 423.75 247.12 422.69 241.32 421.36 238.3 420.75 237.84 421.56 234.48 421.58 232.89 422.53 231.16 422.75 228.53 424.91 228.22 425.54 226.72 425.77 224 428 223.52 430.63 224.52 431.71 224.24 432.52 221 435.53 217.82 436.75 214.91 436.98 213.33 438.01 211.47 440.04 210.84 442.62 210.86 444.7 210.22 445.53 212.32 447.74 213.86 448.85 216.58 452.28 219.62 454.93 221.03 456.19 223.82 458.51 225.77 459.76 228.4 461.58 228.87 464.98 230.65 465.74 231.81 468.93 234.05 469.27 234.95 Z" id="26510120"/>
<path d="M 637.81 628.67 639.72 637.54 639.8 640.39 637.96 642.17 636.98 642.34 635.56 645.07 635.96 648.72 637.35 651.79 637.25 654.84 634.37 659.86 634.56 662.58 636.16 663.11 633.13 665.83 631.09 666.51 627.3 664.5 624.53 667.28 624.23 666.07 622.32 664.01 620.53 663.9 619.59 664.62 616.86 664.13 616.26 665.11 611.98 667.32 612.31 669.63 612.13 671.53 610.88 672.06 609.86 673.87 612.03 676.05 613.16 676.5 613.2 678.15 614.29 679.5 613.64 680.79 612.42 681.52 612.93 684.2 612.73 687.33 613.99 688.53 614.25 691.12 613.99 694.35 615.75 697.42 619.32 699.53 620.94 699.7 622.03 702.41 624.78 703.22 628.76 702.66 630.2 703.26 633.14 705.34 634.98 705.9 636.87 707.14 640.14 707.15 642.33 709.43 642.66 710.6 644.3 711.58 646.12 711 647.47 709.7 648.48 707.33 648.23 705.98 650.04 702.99 650.55 700.97 651.91 698.23 651.95 696.81 653.71 696.87 654.67 698.11 657.19 698.81 659.39 700.24 664.59 701.54 667.17 701.8 664.75 704.74 664.6 709.41 660.66 714.46 660.35 716.05 661.07 716.71 665.89 717.93 667.76 719.84 668.21 725.12 667.89 728.59 666.43 733.2 663.9 737.91 661.26 740.61 659.87 743.56 659.81 746.14 660.82 750.01 663.13 751.83 661.99 751.97 661.65 754.12 659.39 753.73 656.14 755.91 655.76 759.84 656.37 763.88 654.69 764.64 652.29 762.88 650.53 763.96 650.5 766.06 649.1 767.87 649.13 769.97 648.22 771.4 649.13 772.21 650.25 775.52 648.81 779.01 648.39 781.13 647.03 782.85 647.71 786.93 646.82 795.15 647.47 796.08 645.8 796.83 642.42 799.73 642.17 801.16 638.6 802.73 637.52 806.42 637.88 807.66 637.63 809.83 635.7 811.29 632.84 815.3 630.83 816.62 628.03 820.02 627.5 816.81 624.85 813.86 624.17 811.21 622.91 808.92 615.41 811.43 610.22 809.99 606.63 808.03 602.78 804.13 599.93 803.33 597.85 799.48 596.65 798.02 597.11 793.52 597.05 791.32 597.74 789.78 598.11 786.97 598.92 785.1 600.3 783.57 601.43 781.2 600.37 775.92 596.97 776.01 593.84 776.96 593.22 778.78 590.86 779.03 587.57 777.19 586.97 775.26 585.76 773.63 584.31 773.52 582.51 775.76 580.39 775.86 577.57 779.06 577.63 781.42 578.18 783.22 578.39 787.93 578.91 791.87 578.55 793.69 576.84 794.34 574.41 797.33 573.39 797.39 572.33 798.69 571.26 798.61 565.07 800.95 563.13 800.92 559.9 799.35 554.15 794.97 549.75 793.83 549.12 795.29 550.19 797.42 550.35 800.05 548.4 802.59 546.4 803.86 542.59 804.9 540.98 803.29 538.74 802.33 533.21 803.68 531.17 799.68 529.76 801.51 523.6 803.41 522.5 804.79 521.92 807.79 520.65 811.28 516.65 810.7 513.54 809.55 510.53 809.42 508.7 810.5 506.22 811.11 504.06 810.81 500.16 811.36 498.03 812.51 494.52 812.9 491.82 814.21 488.09 815.09 484.13 814.26 480.67 811.82 479.66 812.11 474.5 811.09 468.32 807.55 467.42 807.29 466.3 805.53 464.63 804.35 461.79 802.95 458.93 798.41 456.78 796.22 454.03 795 455.16 793.38 455.24 788.25 456.96 783.52 466.44 775.81 466.56 772.74 468.4 767.14 473.73 765.94 474.08 763.87 477.72 760.67 480.37 757.01 480.3 755.15 487.28 748.9 487.6 747.21 487.16 743.4 485.67 738.17 479.04 734.79 477.26 732.33 475.57 727.77 475.08 724.62 472.22 721.44 472.27 720.66 469.88 719.1 468.57 719.21 466.78 718.42 463.5 718.63 460.94 718.09 459.79 717.27 459.74 716.14 456.36 716.41 454.12 715.2 454.09 712.41 451.87 711.37 450.16 709.14 451.34 707.79 450.84 706.57 451.02 703.59 451.68 698.74 449.41 694.26 450.92 693.67 456.51 694.65 459.89 692 463.24 691.52 463.77 689.61 463.85 686.55 462.97 684.98 462.81 681.96 465.34 680.15 466.08 678.91 466.49 675.14 465.77 673.52 465.74 669.97 473.51 666.12 477.34 664.9 476.44 661.93 476.2 659.38 477.11 657.64 478.14 654.4 479.07 652.79 481.19 651.71 483.15 651.39 485.57 652.33 488.24 652.25 490.44 651.34 492.62 649.96 494.22 649.92 496.31 648.1 498.54 647.35 499.19 645 500.98 642.43 503.6 640.73 504.86 639.12 506.45 638.71 507.68 637.61 509.71 636.93 513.3 638.26 517.43 639.01 518.08 641.87 521.86 646.12 523.35 646.31 526.52 645.48 529.26 646.14 533.22 643.9 535.55 643.65 537.3 641.56 539.57 640.98 540.71 638.14 543.4 636.14 550 638.91 550.8 640.37 553.45 643.52 559.05 640.66 563.43 641.22 564.71 640.67 567.64 638.51 570.48 638.96 571.63 639.7 573.39 639.61 575.51 638.71 577.83 639.1 582.48 638.95 584.41 637.18 585.04 638.07 587.28 638.73 590.76 637.58 591.31 634.32 592.08 633.16 594.54 632.58 597.11 628.91 598.22 621.69 598.34 619.53 601.16 620.06 602.4 621.17 608.58 617.15 609.44 617.68 612.66 617.91 613.82 619.09 617.01 619.15 618.67 617.91 626.82 618.06 628.19 618.5 630.7 620.86 632.61 623.81 635.36 626.39 637.67 628 637.81 628.67 Z" id="26510130"/>
<path d="M 624.22 186.74 625.62 188.26 625.76 189.61 624.95 190.66 624.07 199.99 624.72 201.34 624.91 205.14 626.08 209.22 627.76 211.58 628.2 215.23 627.1 220.67 624.97 224.48 622 227.2 622.3 230.32 621.5 235.04 623.15 237.57 621.64 238.89 620.82 240.95 622.06 242.92 621.95 245.56 623.75 247.28 626.04 248.01 628.65 249.51 632.28 253.85 631.85 257.47 630.96 258.95 631.99 264.28 631.59 266.57 630.17 268.79 628.84 269.69 627.16 270.01 625.48 271.17 625.18 272.73 625.64 274.22 625.46 276.65 624.18 279.55 622.64 280.15 620.04 283.98 620.07 285.45 618.59 286.49 619.66 288.63 617.55 290.48 618.11 291.82 617.24 293.52 614.41 296.28 613.5 298.57 613.31 300.36 615.17 303.2 615.47 305.73 615.12 308 616.64 308.64 617.16 314.83 617.81 316.86 619.97 319.13 621.72 321.99 622.49 324.06 621.77 326.42 620.31 328.26 619.35 332.01 620.29 334.6 621.68 335.84 622.51 339.25 622.51 340.9 623.58 345.21 624.3 345.99 620.49 343.68 619.12 342.09 616.97 340.42 613.3 342.07 610.18 341.51 609.16 342.24 607.03 342.11 604.92 341.38 603.17 340.63 602.59 338.82 600.74 337.59 600.56 336.51 597.48 334.89 598.27 332.51 599.25 328.06 600.66 327.39 597.58 325.99 592.77 324.78 587.58 323.83 585 323.65 582.8 322.94 579.85 321.23 577.55 320.47 574.69 321.1 571.86 321.06 569.86 323.52 569.34 325.76 566.62 324.76 566.2 323.62 564.66 322.95 562.97 323.19 560.49 321.78 555.96 320.66 553.59 318.23 550.6 315.82 548.96 315.26 547.45 316.21 544.21 314.74 542.85 314.49 542.65 316.77 543.86 318.74 545.65 319.33 546.04 322.33 545.12 324.19 547.21 325.92 547.71 328.47 548.53 330.19 547.35 334 548.59 338.25 549.83 338.79 551.4 341.92 553.61 341.56 555.17 342.35 556.11 343.99 555.45 346.84 557.18 350.9 557.25 351.93 554.9 351.76 553.51 352.81 553.1 355.93 553.82 357.16 553.7 359.82 554.81 361.99 552.84 363.99 552.92 364.78 552.01 369.03 554.04 370.88 554.69 372.28 554.44 375.04 555.34 376.82 556.03 379.51 556.28 382.08 559.55 382.25 561.58 382.76 562.78 383.65 564.79 386.02 566.14 388.61 568.97 391.53 569.57 392.7 568.55 392.88 567.07 395.32 564.56 393.8 562.07 398.64 562.36 399.45 560.27 403.72 562.23 405.21 559.51 405.13 555 401.73 550.94 399.17 548.09 401.83 545.84 405.81 545.96 408.92 544.13 411.01 544.21 413.17 542.15 415.35 539.3 417.06 537.8 418.59 538.77 420.47 539.06 422.23 528.87 426.99 528.51 428.31 527.16 430.23 526.25 430.65 524.84 433.55 521.65 434.3 518.7 434.12 516.64 438.04 514.51 442.96 512.7 443.85 509.73 442.55 504.47 440.83 501.35 439.37 498.8 441.59 494.71 442.02 493.32 443.04 488.7 444.89 484.84 444.82 480.37 446.73 478.29 447.99 475.68 448.91 472.53 447.92 471.94 444.01 470.74 439.47 471.55 437.88 469.83 435.04 469.01 432.98 467.77 431.27 465.26 432.2 462.61 431.64 460.3 433.68 458.58 433.48 457.23 432.64 454.81 429.87 453.04 428.41 450.23 427.36 448.54 425.09 448.56 423.64 447.8 420.12 446.59 418.41 445.99 415.77 444 414.54 444.67 411.25 444.03 409.86 445.37 408.77 445.86 405.07 445.71 403.24 446.18 400.99 446.32 397.97 448.21 396.76 451.41 396.37 451.93 395.22 453.72 394.01 456.04 387.56 457.26 386.45 458.79 386.36 460.22 382.32 461.1 381.33 461.96 379.08 460.1 379.79 456.9 379.71 456.02 378.57 457.76 375.77 457.56 372.92 453.43 371.82 451.46 373.1 449.64 368.9 448.83 368.12 446.53 371.19 444.23 372.42 442.07 372.95 437.06 373.7 432.43 374.65 430.85 371.44 431.03 367.48 430.35 365.36 433.94 364.89 432.92 360.96 433.27 359.72 430.04 358.26 427.49 357.53 426.62 354.91 428.41 351.56 427.65 349.62 424.73 351.77 423.15 351.52 422.43 349.05 422.89 347.24 424.46 344.88 426.16 343.46 430.72 340.84 434.35 336.57 437.85 334.03 439.31 330.59 438.6 328.67 441.09 325.89 442.6 325.93 444.28 324.7 445.16 323.32 444.99 318.06 444.31 313.99 443.63 313.44 443.34 309.66 441.53 305.7 441.86 302.81 444.14 300.14 445.68 299.15 445.98 298.03 448.77 298.2 449.13 293.35 449.93 292.65 450.75 289.66 452.58 287.02 454.67 284.75 461.02 281.56 464.08 280.73 465.76 279.94 467.23 280.29 467.86 277.54 469.21 274.54 466.6 270.56 465.25 269.66 465.5 264.29 465.01 263.2 465.38 260.19 467.12 258.56 469.29 252.97 470.92 250.93 472.82 249.46 472.83 245.45 471.81 243.83 471.82 240.84 469.27 234.95 472.32 233.39 476.47 231.62 477.52 231.46 480.69 228.14 480.23 226.01 482.09 223.03 484.32 220.66 485.23 220.2 487.27 217.65 488.45 216.9 494.04 214.92 497.49 215.37 499.22 214.95 502.81 215.41 506.91 217.04 510.42 217.67 514.19 220.38 517.94 220.57 520.94 222.19 521.13 220.68 522.57 218.27 520.84 212.08 520.81 209.91 521.6 207.73 521.85 205.49 524.37 202.4 525.53 200.03 521.82 196.35 523.95 191.81 522.79 189.47 522.41 187.63 523.28 183.7 525.33 180.88 526.17 178.26 525.98 176.25 527.12 175.28 530.46 174.41 532.31 172.29 532.25 171.21 533.56 168.96 535.05 164.32 535.2 161.68 535.95 159.51 539.59 155.05 541.71 150.78 544.4 148.55 548.8 152.06 549.71 155.67 552.93 159.69 553.13 161.52 554.24 162.07 564 164.31 565.53 166 568.82 166.86 572.43 170.06 579.01 166.39 582.29 165.09 584.73 165.58 585.08 166.33 587.8 168.14 588.52 169.54 592.48 171.71 593.45 171.84 595.35 169.32 597.69 167.93 599.4 169.96 602.59 170.66 606.04 173.62 609.67 174.99 611.9 176.73 612.28 179.05 614.72 182.98 615.48 183.49 617.54 183.39 620.2 184.33 621.25 185.41 624.22 186.74 Z" id="26510140"/>
<path d="M 514.51 442.96 517.79 442.95 520.76 443.83 524.24 443.3 527.7 444.56 531.99 442.75 535.22 447.69 536.38 449.13 538.33 449.02 541.17 449.61 545 448.16 548.12 450.33 550.45 447.69 549.49 445 553.07 446.22 554.53 446.33 556.12 450.44 555.38 452.87 558.04 455.71 559.93 454.62 561.14 455.16 561.93 457.18 564.25 458.48 565.1 455.34 567 455.19 568.54 454.32 570.85 456.59 571.5 455.66 574.04 454.56 575.94 455.38 579.39 458.22 581.95 458 584.02 456.31 585.95 459.04 587.77 457.73 588.9 459.63 586.68 462.99 585.94 464.69 586.54 466.97 587.95 468.97 587.38 470.11 590.42 471.49 591.41 473.27 593.19 474.98 594.87 474.65 597.82 475.55 600.54 477.59 603.1 480.39 600.43 481.19 600.12 481.87 602.05 485.64 603.71 486.52 606.25 485.84 608.17 488.33 609.29 487.85 612.67 488.48 614.03 490.28 615.54 490.74 615.57 493.27 616.07 494.9 615.95 496.92 616.69 498.21 616.35 499.66 617.32 504.58 618.84 505.98 620.71 505.34 621.09 506.51 620.49 509.52 623.17 509.08 623.01 512.51 625.05 513.55 625.77 514.72 626.19 517.75 626.82 519.23 629.07 519.83 631.32 522.37 632.24 522.48 633.21 524.29 633.8 528.54 636.28 529.96 636.73 532.52 639.06 532.78 640.28 533.9 641.06 537.11 643.29 536.76 644.98 537.89 649.35 535.32 650.3 532.3 651.79 531.14 652.85 532.72 654.51 532.8 656.83 538.44 658.96 540.59 659.82 542.63 663.18 542.81 666.56 544.36 666.64 545.88 675.75 545.73 676.75 548.24 678.54 554.32 680.2 554.24 681.61 554.87 684.48 554.78 690.15 549.9 691.67 549.84 696.29 555.63 696.7 557.56 698.11 556.78 698.88 558.32 700.04 558.29 702.14 561.89 704.54 563.86 709.14 565.27 712.75 569.04 715.37 573.02 716.12 578.76 716.2 582.12 711.48 583.05 710.26 583.3 710.19 580.7 708.3 580.92 708.78 586.84 708.36 587.79 703.76 591.07 702.16 590.82 701.76 591.71 699.01 594.05 703.06 598.64 702.98 599.67 701.68 601.74 700.88 604.78 699.31 606.92 698.67 609.03 696.59 610.43 693.82 612.82 687.63 615.41 685.1 618.4 683.35 619.24 684.38 622.34 683.33 623.53 680.44 624.01 675.73 620.8 674.16 620.27 672.67 622.1 670.4 623.02 667.44 622.73 667.86 624.92 667.44 626.47 664.41 625.61 660.75 626.34 656.46 624.25 654.53 623.06 652.15 622.95 650.26 626.12 648.4 625.16 645.97 625.14 646.1 627.49 645.07 628.29 642.77 627.91 640.2 628.01 637.81 628.67 637.67 628 635.36 626.39 632.61 623.81 630.7 620.86 628.19 618.5 626.82 618.06 618.67 617.91 617.01 619.15 613.82 619.09 612.66 617.91 609.44 617.68 608.58 617.15 602.4 621.17 601.16 620.06 598.34 619.53 598.22 621.69 597.11 628.91 594.54 632.58 592.08 633.16 591.31 634.32 590.76 637.58 587.28 638.73 585.04 638.07 584.41 637.18 582.48 638.95 577.83 639.1 575.51 638.71 573.39 639.61 571.63 639.7 570.48 638.96 567.64 638.51 564.71 640.67 563.43 641.22 559.05 640.66 553.45 643.52 550.8 640.37 550 638.91 543.4 636.14 540.71 638.14 539.57 640.98 537.3 641.56 535.55 643.65 533.22 643.9 529.26 646.14 526.52 645.48 523.35 646.31 521.86 646.12 518.08 641.87 520.52 640.74 523.23 638.33 525.12 638.61 527.65 637.88 529.23 635.58 527.62 634.18 526.51 629.75 523.94 626.83 521.68 627.14 518.18 626.25 518.15 623.31 519.63 620.95 521.76 619.28 521.46 615.62 520.67 612.27 520.48 610.02 523.04 609.87 524.07 609.27 528.64 608.78 531.66 607.02 534.51 608.17 536.68 607.87 537.86 606.55 541.54 605.52 544.68 603.39 546.2 602.01 548.82 596.62 550.33 594.66 548.44 592.4 550.36 589.37 550.62 587.95 552.22 587.22 555.34 587.14 556.13 586.49 557.03 582.83 556.68 580.63 555 579.68 554.33 578.52 554.49 576.96 556.4 575.32 556.65 573.35 556.4 570.06 554.04 570.02 552.09 567.52 551.21 567.64 548.55 564.15 548.68 562.21 547.08 562.02 542.51 558.57 541.04 556.69 542.03 554.26 540.58 552.45 537.46 551.77 534.14 550.17 529.93 549.68 527.38 546.87 523.07 547.31 521.09 548.07 518.66 553.24 518.16 555.41 517.24 556.65 515.37 557.58 514.92 559.82 512.52 561.33 511.35 562.76 509.81 561.92 507.31 559.49 506.76 557.03 507.25 555.35 506.82 550.63 503.57 549.94 500.64 548.35 497.41 547.2 498.05 545.1 496.79 537.61 495.29 536.84 494.48 534.96 493.08 533.43 493.89 529.45 496.69 527.26 497.55 525.94 496.96 524.33 497.29 522.74 496.11 522.62 495.3 518.62 495.95 516.79 495.49 514.77 494.78 514.11 491.61 512.93 491.55 509.62 490.61 508.64 490.76 506.49 488.33 505.59 486.74 504.24 484.19 504.77 482.07 503.8 479.98 500.06 478.75 498.55 477.8 498.48 474.36 500.18 471.57 500.76 469.42 500.01 466.88 498.1 465.16 495.48 464.21 495.3 464.39 493.49 463.17 490.24 459.16 485.13 457.33 484.37 454.77 481.41 452.46 481.37 452 478.7 452.47 477.15 451.95 475.6 453.79 472.93 453.99 470.07 454.83 466.65 457.19 462.61 460.21 461.98 462.96 460.53 467.16 457.76 469.98 449.98 472.53 447.92 475.68 448.91 478.29 447.99 480.37 446.73 484.84 444.82 488.7 444.89 493.32 443.04 494.71 442.02 498.8 441.59 501.35 439.37 504.47 440.83 509.73 442.55 512.7 443.85 514.51 442.96 Z" id="26510150"/>
<path d="M 328.51 433.62 326.08 434.59 325.14 435.96 322.68 436.83 319.85 443.13 319.92 445.2 318.99 445.36 313.66 447.78 310.58 447.63 309.48 449.5 305.9 450.43 304.67 449.52 301.99 450.43 300.13 452.32 299.31 452.04 298.27 454.75 294.14 457.89 293.44 459.39 292 459.72 292.02 460.83 288.96 463.19 287.62 465.99 287.78 466.78 286.71 469.15 285.36 470.85 284.4 470.82 282.24 473.33 279.09 477.97 278.46 479.6 278.99 480.7 281.06 480.39 281.69 482.73 279.67 484.51 278.57 486.04 275.29 486.52 274.97 487.99 275.91 489.3 274.46 491.63 270.16 493.27 269.77 495.74 267.01 499.2 267 500.67 265.81 501.49 265.65 502.67 264.27 504.31 262.18 505.51 259.79 508.58 256.96 509.02 253.82 506.79 250.22 507.59 249.38 509.2 246.2 511.37 244.61 517.32 244.56 518.87 245.79 523.17 245.59 524.75 246.91 525.64 244.01 534.06 242.37 535.29 241.86 540.05 238.52 539.08 235.63 538.94 234.32 538.41 228.17 533 226.03 529.98 224.69 529.5 220.28 529.07 217.11 528.22 214.53 528.28 210.49 526.72 208.54 526.34 205.59 523.99 200.94 523.06 197.72 522.03 191.68 519.11 189.11 517.04 187.05 516.09 183.46 513.78 178.05 513.02 172.18 509.12 166.85 505.78 162.44 503.46 160.46 501.94 158.95 495.85 159.36 493.44 157.39 491.08 157.16 489.32 159.27 485.73 159.67 482.96 158.97 478.5 161.21 475.29 163.06 474.87 167.44 471.93 167.77 463.44 165.75 459.78 165.31 459.97 162.57 455.52 161.85 449.3 167.11 445.9 170.27 443.22 172.72 442.53 180.95 439.68 184.27 438.75 191.47 437.85 195.67 436.09 198.81 436.54 201.56 435.17 205.17 435.99 207.66 437.16 208.31 435.53 209.61 434.04 215.52 433.76 220.72 436.78 222.91 436.34 227.3 436.1 229.7 436.26 232.91 433.95 238.15 432.92 241.08 430.82 243.58 427.57 243.33 424.23 247.06 422.44 247.84 420.31 245.78 411.62 243.11 409.37 242.14 406.99 244.28 403.3 248.78 401.02 254.16 398.95 253.59 396.28 252.45 394.11 253.84 393.46 254.68 391.03 257.23 389.86 259.69 389.25 261.79 389.65 263.62 388.08 267.19 387.64 270.14 384.59 271.51 382.13 275.58 383.14 277.37 382.49 283.82 381.83 286.56 381.96 292.1 384.49 293.54 385.63 297.15 387.24 302.64 387.96 304.49 389.04 309.31 392.6 312.18 395.01 313.39 395.62 316.3 395.99 319.62 398.96 324.5 402.86 328.21 404.11 330.6 405.77 333.52 408.44 335.15 411.32 335.82 414.73 337.13 416.33 337.82 416.06 339.82 418.43 340.79 420.23 338.8 421.39 333.48 423.07 330.74 424.51 328.56 426.42 329.27 430.43 328.49 432.08 328.51 433.62 Z" id="26510160"/>
<path d="M 744.83 791.72 744.05 793.21 742.42 794.17 741.46 793.37 743.23 791.93 744.83 791.72 Z M 657.74 927.18 656.4 926.56 655.53 923.91 653.5 921.57 652.42 918.46 653.49 915.39 655.18 913.7 651.53 911.15 650.78 911.1 648.67 912.87 646.27 912.3 640.32 912.02 637.05 909.76 636.61 908.64 633.12 909.31 632.32 911.39 630.51 908.62 630.31 906.92 628.09 905.7 626.69 902.88 623.31 904.33 621.12 905.7 619.83 906 616.67 904.74 612.45 903.66 608.4 901.18 610.56 897.45 612.98 895.1 613.82 892.19 615.51 891.41 616.31 889.86 616.13 886.41 615.14 883.94 616.26 882.15 617 879.77 618.09 878.83 616.57 875.52 616.12 873.34 613.76 871.32 609.24 866.06 609.99 862.94 609.92 859.3 610.45 855.26 611.68 852.57 611.75 847.72 613.5 847.81 614.02 846.43 613.8 844.86 609.5 843.93 606.6 842.69 604.4 838.47 602.8 833.82 602.28 830.44 601.27 828.63 597.95 824.61 595.28 822.51 594.32 821.29 592.29 816.84 589.98 815.25 588.02 813.12 587.03 811.3 583.68 810.22 583.5 807.75 579.9 801.39 579.16 796.38 578.55 793.69 578.91 791.87 578.39 787.93 578.18 783.22 577.63 781.42 577.57 779.06 580.39 775.86 582.51 775.76 584.31 773.52 585.76 773.63 586.97 775.26 587.57 777.19 590.86 779.03 593.22 778.78 593.84 776.96 596.97 776.01 600.37 775.92 601.43 781.2 600.3 783.57 598.92 785.1 598.11 786.97 597.74 789.78 597.05 791.32 597.11 793.52 596.65 798.02 597.85 799.48 599.93 803.33 602.78 804.13 606.63 808.03 610.22 809.99 615.41 811.43 622.91 808.92 624.17 811.21 624.85 813.86 627.5 816.81 628.03 820.02 630.83 816.62 632.84 815.3 635.7 811.29 637.63 809.83 637.88 807.66 637.52 806.42 638.6 802.73 642.17 801.16 642.42 799.73 645.8 796.83 647.47 796.08 646.82 795.15 647.71 786.93 647.03 782.85 648.39 781.13 648.81 779.01 650.25 775.52 649.13 772.21 648.22 771.4 649.13 769.97 649.1 767.87 650.5 766.06 650.53 763.96 652.29 762.88 654.69 764.64 656.37 763.88 655.76 759.84 656.14 755.91 659.39 753.73 661.65 754.12 661.99 751.97 663.13 751.83 666.55 752.93 671.42 754.95 674.68 758.11 681.36 762.57 685.71 764.9 702.42 771.46 715.22 775.44 720.53 776.46 725.92 777.96 729.27 779.41 732.01 780.17 733.47 781.33 733.87 782.93 735.12 784.19 734.71 785.71 735.97 786.39 736.46 789.72 737.74 791.99 739.42 792.99 737.13 795.16 735.56 797.36 734.21 799.94 732.87 805 732.48 808.38 732.78 811.52 734.02 812.68 733.32 813.93 733.74 816.67 732.92 817.57 733.26 818.85 736.04 820.55 738.61 821.39 740.18 820.67 743.68 820.69 744.66 823.54 747.09 824.76 750.24 824.87 753.11 825.95 752.65 827.8 753.66 828.87 754.04 832.31 751.89 835.3 752.34 837.85 753.42 838.69 757.16 838.05 758.18 839.12 758.13 841.12 759.44 842.06 762.36 842.28 763.7 843.81 762.83 845.61 762.57 849.86 763.93 851.69 765.49 851.92 766.61 852.8 767.22 855.13 765.42 857 764.87 859.94 761.3 863.97 758.06 865.2 755.86 865.18 753.75 866.62 751.59 865.55 751.3 864.32 747.83 864.5 746.86 865.2 745.24 864.92 744.16 865.46 743.87 867.74 741.28 868.47 740.3 868.2 738.65 870.18 737.66 872.42 735.96 871.82 734.82 873.26 733.63 868.53 731.01 867.23 729.8 868.07 728.34 867.69 729.53 865.61 725.41 862.47 722.26 862.24 719.17 862.57 716.54 863.5 714.33 864.93 712.66 866.79 712.04 868.17 712.57 869.5 711.48 870.53 712.63 873.81 711.73 877.11 710.85 877.88 709.25 881.78 710.22 883.78 709.72 884.67 707.65 884.51 704.08 885.27 701.74 887.13 701.44 884.72 699.93 884.11 697.19 884.17 695.42 886.9 694.5 887.22 692.64 886.5 691.36 886.98 690.18 888.28 690.59 890.23 689.5 891.27 689.75 892.42 688.01 893.28 688.44 894.98 685.03 895.65 685.67 897.35 687.09 898.07 688.59 897.92 688.93 899.44 687.18 901.35 686.33 903.18 687.51 905.02 686.84 906.2 684.9 907.6 683.47 907.2 682.32 905.61 679.51 905.87 679.38 907.82 677.86 910.83 678.73 912.85 676.49 915.68 676.73 917.23 676.16 918.66 674.15 921.25 674.1 922.68 673.18 923.87 673.16 926.85 670.97 927.77 669.12 927.16 667.42 928.02 666.56 929.52 664.31 931 663.99 930.31 666.08 928.91 666.71 927.5 664.19 926.22 663.84 924.88 660.39 925.22 658.13 926.23 657.74 927.18 Z" fill-rule="evenodd" id="26510310"/>
<path d="M 518.08 641.87 517.43 639.01 513.3 638.26 509.71 636.93 507.68 637.61 506.45 638.71 504.86 639.12 503.6 640.73 500.98 642.43 499.19 645 498.54 647.35 496.31 648.1 494.22 649.92 492.62 649.96 490.44 651.34 488.24 652.25 485.57 652.33 483.15 651.39 481.19 651.71 479.07 652.79 478.14 654.4 477.11 657.64 476.2 659.38 476.44 661.93 477.34 664.9 473.51 666.12 465.74 669.97 465.77 673.52 466.49 675.14 466.08 678.91 465.34 680.15 462.81 681.96 462.97 684.98 463.85 686.55 463.77 689.61 463.24 691.52 459.89 692 456.51 694.65 450.92 693.67 453.52 690.34 453.12 689.13 450.18 685.15 448.99 684.14 447.98 681.5 446.12 679.97 445.31 678.08 443.94 677.49 443.06 676.16 443.23 674.46 439.48 677.23 436.32 677.93 431.49 682.29 430.93 683.71 428.96 683.48 427.22 684.58 424.47 684.48 423.01 683.48 421.33 683.71 419.23 685.4 413.66 688.19 411.06 688.28 408.81 689.72 407 691.83 405.8 689.7 405.28 687.55 400.86 689.02 399.35 687.9 396.82 687.95 392.59 688.86 391.3 691.07 389.32 691.48 387.68 692.46 385.89 691.68 383.01 691.79 382.06 688.29 378.68 686.29 375.72 685.17 373.51 684.89 370.85 682.41 368.91 681.75 364.41 677.19 362.26 676.28 357.67 671.77 356.21 669.34 347.88 664.14 345.24 664.59 342.6 663 341.11 661.37 338.83 660.77 336.07 657.54 333.53 656.21 331.8 654.12 328.71 645.73 325.57 644.29 323.96 642.57 320.85 640 323.05 635.18 326.94 631.6 328.43 630.71 331.72 627.12 335.33 627.11 338.19 627.67 340.14 626.58 341.47 622.81 340.81 621.77 340.17 619.15 341.84 617.13 343.1 611.88 343.6 608.06 346.08 608.2 347.53 607.5 350.19 607.18 352.01 605.56 353.9 604.53 354 601.7 355.24 598.94 357.66 596.31 360.85 595.52 362.81 594.03 369.69 588.22 371.47 586.42 373.35 586.33 376.18 584.89 377.05 583.16 380.82 582.73 382.83 582.07 385.86 582.19 387.69 583.25 390.27 583.72 393.19 582.6 395.1 581.5 397.37 581.65 403.16 580.3 405.15 579 407 579.41 407.99 581.47 410.27 583.23 414.61 585.91 416.7 590.48 417.24 587.96 418.39 585.95 417.71 579.71 418.61 578.36 420.68 577.4 421.36 574.37 422.08 572.73 421.51 569.06 419.11 567.96 417.52 564.94 420.8 563.75 421.71 563.04 422.47 558.65 426.73 560.03 431.33 560.42 432.57 561.75 434.44 562.55 437.08 561.98 438.8 562.78 440.03 562 442.47 563.14 442.92 563.84 445.37 564.1 447.62 561.05 449.19 560.86 448.07 557.61 451.2 553.55 450.39 552.81 448.71 549.69 447.35 548.15 446.44 545.4 446.95 544.45 444.22 539.59 441.62 538.03 439.1 531.95 438.85 527.55 435.91 525.22 434.27 525.15 432.93 522.69 431.79 522 431.62 519.16 432.69 517.18 437.28 517.52 438.5 517.97 439.5 516.91 440.86 513.73 440.43 512.16 441.76 508.53 443.44 508 445.63 504.06 447.06 504.01 447.69 503.07 448.66 497.79 450.79 498.38 453 496.16 459.24 496.32 462.34 496.67 464.21 495.3 465.16 495.48 466.88 498.1 469.42 500.01 471.57 500.76 474.36 500.18 477.8 498.48 478.75 498.55 479.98 500.06 482.07 503.8 484.19 504.77 486.74 504.24 488.33 505.59 490.76 506.49 490.61 508.64 491.55 509.62 491.61 512.93 494.78 514.11 495.49 514.77 495.95 516.79 495.3 518.62 496.11 522.62 497.29 522.74 496.96 524.33 497.55 525.94 496.69 527.26 493.89 529.45 493.08 533.43 494.48 534.96 495.29 536.84 496.79 537.61 498.05 545.1 497.41 547.2 500.64 548.35 503.57 549.94 506.82 550.63 507.25 555.35 506.76 557.03 507.31 559.49 509.81 561.92 511.35 562.76 512.52 561.33 514.92 559.82 515.37 557.58 517.24 556.65 518.16 555.41 518.66 553.24 521.09 548.07 523.07 547.31 527.38 546.87 529.93 549.68 534.14 550.17 537.46 551.77 540.58 552.45 542.03 554.26 541.04 556.69 542.51 558.57 547.08 562.02 548.68 562.21 548.55 564.15 551.21 567.64 552.09 567.52 554.04 570.02 556.4 570.06 556.65 573.35 556.4 575.32 554.49 576.96 554.33 578.52 555 579.68 556.68 580.63 557.03 582.83 556.13 586.49 555.34 587.14 552.22 587.22 550.62 587.95 550.36 589.37 548.44 592.4 550.33 594.66 548.82 596.62 546.2 602.01 544.68 603.39 541.54 605.52 537.86 606.55 536.68 607.87 534.51 608.17 531.66 607.02 528.64 608.78 524.07 609.27 523.04 609.87 520.48 610.02 520.67 612.27 521.46 615.62 521.76 619.28 519.63 620.95 518.15 623.31 518.18 626.25 521.68 627.14 523.94 626.83 526.51 629.75 527.62 634.18 529.23 635.58 527.65 637.88 525.12 638.61 523.23 638.33 520.52 640.74 518.08 641.87 Z" id="26510340"/>
<path d="M 543.8 53.09 544.81 53.42 547.62 58.03 549.32 59.38 550.61 62.3 551.34 66.82 554.89 70.44 556.39 75.78 556.16 78.31 555.07 83.86 555.89 88.08 555.31 89.53 549.22 94.89 549.35 96.93 551.18 101.13 551.06 102.06 554.04 104.33 553.67 109.25 552.05 117.08 551.88 120.42 550.76 123.23 548.35 125.61 545.93 128.5 545.74 130.07 543.9 133.81 542.61 134.51 543.29 140.79 544.4 148.55 541.71 150.78 539.59 155.05 535.95 159.51 535.2 161.68 535.05 164.32 533.56 168.96 532.25 171.21 532.31 172.29 530.46 174.41 527.12 175.28 525.98 176.25 526.17 178.26 525.33 180.88 523.28 183.7 522.41 187.63 522.79 189.47 523.95 191.81 521.82 196.35 525.53 200.03 524.37 202.4 521.85 205.49 521.6 207.73 520.81 209.91 520.84 212.08 522.57 218.27 521.13 220.68 520.94 222.19 517.94 220.57 514.19 220.38 510.42 217.67 506.91 217.04 502.81 215.41 499.22 214.95 497.49 215.37 494.04 214.92 488.45 216.9 487.27 217.65 485.23 220.2 484.32 220.66 482.09 223.03 480.23 226.01 480.69 228.14 477.52 231.46 476.47 231.62 472.32 233.39 469.27 234.95 468.93 234.05 465.74 231.81 464.98 230.65 461.58 228.87 459.76 228.4 458.51 225.77 456.19 223.82 454.93 221.03 452.28 219.62 448.85 216.58 447.74 213.86 445.53 212.32 444.7 210.22 442.62 210.86 440.04 210.84 438.01 211.47 436.98 213.33 436.75 214.91 435.53 217.82 432.52 221 431.71 224.24 430.63 224.52 428 223.52 425.77 224 425.54 226.72 424.91 228.22 422.75 228.53 422.53 231.16 421.58 232.89 421.56 234.48 420.75 237.84 421.36 238.3 422.69 241.32 423.75 247.12 420.95 248.9 418.99 249.43 418.73 251.27 417.79 251.15 416.65 252.38 416.92 254.35 412.58 256.17 411.12 258.31 409.92 257.03 408.12 257.4 405.43 255.64 396.81 262.24 390.99 265.48 385.71 270.21 382.54 270.86 382.54 273.07 385.56 276.37 386.95 276.87 387.08 278.1 385.74 280.56 384.37 280.81 379.13 280.3 373.25 282.11 371.02 282.28 369.46 281.34 366.62 280.5 363.02 280.61 362.66 279.28 359.43 276.77 358.87 274.66 356.29 273.97 354.3 275.17 354.22 279.62 351.58 280.5 349.66 278.6 349.39 277.61 347 275.29 346.53 274.24 344.44 276 343.27 276.46 343.51 277.76 342.55 280.25 339.1 277.02 336.8 273.52 335.68 272.6 337.02 271.52 337.72 269.27 338 266.15 337.51 265.04 338.35 259.76 340.67 255.16 343.09 253.11 344.69 250.06 345.55 246.87 348.21 245.9 347.41 243.37 348.7 242.28 351.03 238.79 352.8 237.02 353.41 235.38 352.93 233.61 354.16 230.85 355.2 229.81 355.62 227.29 356.49 226.74 357.54 229.43 357.46 231.71 358.36 232.97 359.67 232.75 361.34 234.68 361.74 237.15 363.69 238.68 365.5 237.73 368.57 238.12 369.81 235.53 370.37 235.63 372.22 239.14 376.41 238.07 378.42 237.28 375.35 233.26 373.62 231.98 372.74 226.72 370.62 223.7 369.62 221.72 369.99 219.61 371.29 217.64 369.88 215.23 369.46 213.2 370.24 211.14 368.78 209.04 369.15 207.53 371.96 206.2 373.43 205.11 374.06 203.33 373.55 202.26 375.44 199.54 375.83 198.26 373.57 196.72 373.45 190.18 374.03 189.08 377.82 187.44 379.38 185.68 379.41 182.34 377.74 180.02 377.36 177.56 378.06 175.15 379.52 174.91 380.4 173.98 380 171.61 382.58 171.22 385.88 172.11 387.31 173.16 389.42 172.07 388.33 169.11 386.24 166.86 387.49 165.78 387.66 163.44 388.37 161.99 392.24 163.07 394.57 161.78 395.71 164.65 397.41 166.23 397.67 167.45 399.97 168.92 402.3 168.36 402.3 165.25 401.63 161.01 402.7 158.12 403.78 157.44 405.58 157.56 407.34 156.77 408.9 153.75 408.95 151.75 407.08 147.96 407.53 146.66 409.02 145.47 409.75 144 408.43 142.99 407.68 140.89 407.29 136.33 408.54 134.2 408.3 132.44 409.14 129.36 408.34 127.91 405.95 127.05 406.3 124.72 405.71 123.61 403.62 123.24 401.67 124.2 401.42 122.89 405.62 120.29 407.48 120.49 408.37 119.48 411.23 119.71 413.6 120.46 416.05 119.16 415 117.08 414.13 116.48 414.54 114.17 418.87 113.86 420.69 114.24 421.4 112.36 423.21 112.75 424.46 112.42 422.9 109.47 421.7 109.17 420.18 107.48 421.14 105.72 421.28 104.03 422.66 102.16 423.64 101.83 426.93 96.11 426.62 94.9 427.76 92.16 428.87 91.54 430.67 92.46 431.43 91.51 431.59 89.19 430.56 87.21 429.87 84.43 430.39 82.46 432.73 82.09 432.79 79.73 433.65 77 430.59 77.66 429.33 75.1 430.68 72.52 430.6 70.2 431.88 69.06 431.78 65.9 433.26 63.5 433.59 59.89 433.24 58.58 434.49 56.48 436.27 57.21 436.91 54.44 436.53 51.47 435.85 49.04 434.48 45.72 432.52 45.4 428.5 43.02 428.75 41.09 427.33 38.62 425.92 35.43 425.52 33.65 425.9 32.35 428.42 28.13 429.9 24.4 430.8 23.36 436.04 19.76 436.14 16.39 437.57 12.88 440.97 10.79 444.7 7.31 446.83 6.65 451.4 7.38 450.87 8.36 452.62 9.58 452.18 10.69 452.35 13.1 454.01 13.54 456.58 14.89 456.39 15.98 461.13 20.13 462.65 20.1 464.93 21.54 466.62 23.62 469.29 25.67 473.27 23.45 476.36 26.13 476.8 28.28 481.73 33.92 485.83 36.02 487.65 34.65 489.39 34.39 492.42 35.45 494.33 35.52 496.05 36.25 497.9 38.07 499.91 41.57 499.49 43.72 500.62 46.93 502.1 47.09 508.5 46.32 511.1 46.28 514.8 46.62 516.35 48.31 524.66 50.95 525.62 51.39 527.56 50.54 530.13 51.27 533.37 50.68 537.36 51.17 543.8 53.09 Z" id="26510360"/>
<path d="M 430.8 23.36 429.9 24.4 428.42 28.13 425.9 32.35 425.52 33.65 425.92 35.43 427.33 38.62 428.75 41.09 428.5 43.02 432.52 45.4 434.48 45.72 435.85 49.04 436.53 51.47 436.91 54.44 436.27 57.21 434.49 56.48 433.24 58.58 433.59 59.89 433.26 63.5 431.78 65.9 431.88 69.06 430.6 70.2 430.68 72.52 429.33 75.1 430.59 77.66 433.65 77 432.79 79.73 432.73 82.09 430.39 82.46 429.87 84.43 430.56 87.21 431.59 89.19 431.43 91.51 430.67 92.46 428.87 91.54 427.76 92.16 426.62 94.9 426.93 96.11 423.64 101.83 422.66 102.16 421.28 104.03 421.14 105.72 420.18 107.48 421.7 109.17 422.9 109.47 424.46 112.42 423.21 112.75 421.4 112.36 420.69 114.24 418.87 113.86 414.54 114.17 414.13 116.48 415 117.08 416.05 119.16 413.6 120.46 411.23 119.71 408.37 119.48 407.48 120.49 405.62 120.29 401.42 122.89 401.67 124.2 403.62 123.24 405.71 123.61 406.3 124.72 405.95 127.05 408.34 127.91 409.14 129.36 408.3 132.44 408.54 134.2 407.29 136.33 407.68 140.89 408.43 142.99 409.75 144 409.02 145.47 407.53 146.66 407.08 147.96 408.95 151.75 408.9 153.75 407.34 156.77 405.58 157.56 403.78 157.44 402.7 158.12 401.63 161.01 402.3 165.25 402.3 168.36 399.97 168.92 397.67 167.45 397.41 166.23 395.71 164.65 394.57 161.78 392.24 163.07 388.37 161.99 387.66 163.44 387.49 165.78 386.24 166.86 388.33 169.11 389.42 172.07 387.31 173.16 385.88 172.11 382.58 171.22 380 171.61 380.4 173.98 379.52 174.91 378.06 175.15 377.36 177.56 377.74 180.02 379.41 182.34 379.38 185.68 377.82 187.44 374.03 189.08 373.45 190.18 373.57 196.72 375.83 198.26 375.44 199.54 373.55 202.26 374.06 203.33 373.43 205.11 371.96 206.2 369.15 207.53 368.78 209.04 370.24 211.14 369.46 213.2 369.88 215.23 371.29 217.64 369.99 219.61 369.62 221.72 370.62 223.7 372.74 226.72 373.62 231.98 375.35 233.26 378.42 237.28 376.41 238.07 372.22 239.14 370.37 235.63 369.81 235.53 368.57 238.12 365.5 237.73 363.69 238.68 361.74 237.15 361.34 234.68 359.67 232.75 358.36 232.97 357.46 231.71 357.54 229.43 356.49 226.74 355.62 227.29 355.2 229.81 354.16 230.85 352.93 233.61 353.41 235.38 352.8 237.02 351.03 238.79 348.7 242.28 347.41 243.37 348.21 245.9 345.55 246.87 344.69 250.06 343.09 253.11 340.67 255.16 338.35 259.76 337.51 265.04 338 266.15 337.72 269.27 337.02 271.52 335.68 272.6 334.8 272.73 334.41 270.49 331.95 266.4 329.92 268.29 328.07 268.78 326.97 270.8 322.47 271.45 321.1 271.42 319.89 272.61 316.94 272.63 316.08 272.27 315.63 270.46 311.88 266.77 312.23 264.25 310.71 261.4 308.97 260.17 308.54 257.91 307.81 256.76 307.68 254.45 306.03 252.75 305.62 251.43 304.01 251.17 302.41 247.95 300.77 246.72 298.93 246.12 297.63 241.21 298.07 239.57 292.76 240 290.55 237.27 287.3 236.88 284.62 238.45 280.24 238.52 278.7 236.31 276.4 232.07 276.14 229.56 273.55 225.98 272.07 223.44 270.54 223.19 268.99 223.7 263.71 219.28 260.09 217.77 257.4 217.64 256.23 218.02 253.99 217.24 247.9 218.21 242.87 218.73 241.84 219.26 239.76 219.19 237.76 219.81 232.64 220.32 231.63 219.13 230.82 216.98 229.47 214.85 226.96 206.45 226.74 204.22 224.77 200.67 224.43 199.31 225.57 198.11 228.69 198.45 231.48 196.79 232.96 194.18 236.51 190.06 238.4 186.92 243.78 181.06 247.44 179.76 249.34 177.9 250.41 174.85 249.74 172.29 252.62 173.23 254.28 171.18 255.49 170.55 260.19 167.24 260.93 166.39 261.02 164.75 261.89 162.71 262.02 154.73 261.31 150.85 258.97 146.85 255.59 142.52 252.35 140.09 250.96 135.14 251.41 130 248.71 127.21 246.57 124.41 244.5 120.84 244.29 119.03 242.88 114.05 241.55 113.27 240 111.53 236.47 106.9 235.25 103.16 234.35 101.48 235.92 94.14 235.92 88.23 236.2 82.45 234.92 79.9 234.82 73.74 229.97 71.87 229.14 68.54 226.75 65.4 225.48 59.37 223.66 56.13 223.75 55.87 230.28 55.03 234.12 52.47 242.08 50.61 245.68 47.38 248.45 46.51 255.11 46.43 259.15 45.62 262.19 43.86 263.57 44.52 266.73 41.46 269.03 41.63 272.41 41.11 275.24 43.98 275.98 45.32 280.06 44.43 283.18 42.75 285.77 42.65 288.83 41.23 289.44 37.73 290.64 35.88 291.47 31.33 292.42 30.35 292.4 28.64 294.6 27.3 299.48 29.8 300.94 30.82 302.21 30.33 307.65 31.12 309.97 31.16 312.8 29.87 310.9 28.1 312.27 23.69 314.14 21.76 314.8 19.86 317.8 17.05 313.86 11.33 315.47 8.72 318.49 7.56 320.5 4.94 320.35 3.74 322.36 2.52 327.12 1.29 330.2 1 332.3 1.56 335.27 4.3 336.93 4.28 343.33 7.7 345.6 7.64 347.17 10.03 351.19 13.65 352.65 16.84 355.23 18.47 356.39 21.84 357.5 22.73 358.05 24.28 361.05 23.47 365.35 24.08 366.82 23.47 368.66 23.6 370.59 22.31 373.06 22.22 375.18 23.57 378.78 24.2 380.49 25.83 382.46 25.56 383.44 23.92 385.74 23.48 386.63 21.83 389.1 21.6 392.83 17.83 393.45 15.88 393.42 12.8 396.12 10.22 397.49 7.61 397.92 5.52 397.76 2.8 398.83 2.44 402.4 4.31 406.19 6.64 407.65 7.88 408.54 12.04 419.17 13.9 421.83 15.88 422.23 18.02 424.6 18.21 428.98 19.65 429.92 20.36 430.8 23.36 Z" id="26510370"/>
</g>
</svg>