<?xml version="1.0"?>
<svg xmlns="http://www.w3.org/2000/svg" version="1.2" baseProfile="tiny" width="800" height="1142" viewBox="0 0 800 1142" stroke-linecap="round" stroke-linejoin="round">
<g id="dong">
<path d="M 681.1 851.4 681.79 854.82 678.93 856.06 677.22 855.25 665.74 851.28 658.76 846.9 656.31 849.88 656.43 855.11 653.59 859.34 653.37 866.61 650.27 870.55 649.77 873.77 650.77 876.04 656.82 879.23 658.43 882.76 657.44 887.04 657.79 889.74 659.21 891.21 660.61 895.22 667.12 901.48 666.77 905.14 664.45 907.2 663.88 909.69 661.95 913.64 662.48 917.54 658.42 918.11 655.66 920.32 656.31 923.18 655.49 925.97 653.47 928.08 654.33 929.17 655.29 933.19 652.84 937.18 650.42 937.78 648.51 939.63 647.12 938.89 645.25 940.65 647.98 945.71 648.38 948.63 649.76 949.48 648.18 952.12 647.36 959.11 650.07 961.22 650.52 964.92 651.85 966.27 652.54 968.94 650.98 970.51 649.57 974.02 644.51 977.13 645.54 980.68 644.75 984.03 645.58 985.98 644.66 988.58 640.57 991.27 639.49 994.65 637.98 996.98 635.68 997.88 632.27 996.74 630.65 997.27 627.62 996.62 623.65 1001.46 621 1002.17 618.41 1004.51 615.33 1008.73 614 1009.13 613.26 1012.46 612.28 1013.06 611.37 1018.33 609.24 1023.69 609.03 1028.98 607.55 1031.94 604.98 1031.55 602.85 1036.32 600.75 1037.97 602.51 1043.02 601.68 1047.88 602.02 1051.68 603.2 1056.07 599.86 1059.56 597.72 1060.64 597.07 1062.42 593.55 1065.24 588.72 1067.08 585.52 1070.02 579.91 1071.72 578.58 1075.06 573.44 1079.11 572.99 1080.3 569.86 1082.86 566.67 1083.53 563.82 1086.32 561.84 1087.16 560.39 1085.79 553.6 1084.96 548.85 1081.62 545.41 1083.16 543.2 1085.56 541.66 1089.4 538.7 1091.1 533.86 1092.84 532.86 1089.15 530.59 1087.88 527.49 1084.39 520.55 1081.84 520.43 1080.38 518.53 1078.26 516.68 1077.59 514.57 1078.72 511.87 1079.02 508.88 1077.97 501.85 1077.94 497.53 1078.37 495.03 1080.2 493.09 1083.8 491.84 1088.28 489.96 1088.08 486.56 1086.13 485.88 1084.67 482.63 1083.8 477.57 1083.55 474.95 1085.43 471.3 1087.08 471.36 1089.75 474.1 1091.77 474.14 1094.94 473.03 1096.6 469.35 1099.73 465.84 1099.18 462.74 1099.9 462.61 1108.21 458.38 1108.45 456.12 1109.61 447.53 1111.75 446.03 1111.33 440.85 1112.29 437.35 1113.66 437.28 1112.31 434.52 1111.1 430.96 1110.94 423.64 1115.8 419.21 1116.02 411.62 1112.92 408.71 1110.53 398.07 1106.41 392.86 1104.95 390.43 1104.85 381.75 1106.79 374.41 1110.67 371.78 1113.84 370.96 1117.06 372.07 1122.64 373.77 1128.69 372.52 1133.04 369.12 1136.1 367.16 1136.91 363.43 1137.12 361.59 1136.5 356.51 1138.44 354.7 1140.19 351.51 1140.04 348.46 1141 346.7 1139.05 345.26 1135.92 345.52 1132.81 342.77 1129.1 339.11 1127.59 339.05 1125.93 334.31 1118.06 330.82 1113.83 328.98 1113.41 327.44 1110.99 327.12 1104.23 331.28 1100.93 328.86 1099.2 324.9 1100 322.01 1099.29 318.35 1100.79 312.49 1100.17 309.73 1099.4 306.19 1099.37 302.73 1097.32 299.8 1096.94 295.75 1095.56 295.12 1088.46 292.51 1086.89 289.07 1087.11 286.85 1085.51 281.66 1091.01 278.01 1087.28 277.03 1081.37 277.5 1080.24 276.23 1076.91 276.49 1072.09 274.87 1070.26 272.28 1070.06 269.17 1066.61 268.96 1065.49 265.43 1059.6 262.63 1058.82 260.59 1057.18 260.4 1055.63 258.35 1053.94 255.54 1047.42 252.4 1047.2 248.83 1045.16 243.53 1044.41 241.06 1043.18 241.35 1040.92 257.12 1041 262.73 1039.47 269.51 1036.65 275.95 1032.82 277.06 1031.36 280.74 1018.78 281.71 1011.17 282.73 1006.21 282.92 998.22 284.38 993.64 283.96 990.48 288.56 981.06 290.74 977.48 295.59 970.93 298.07 968.49 304.28 965.57 320.01 955.41 325.55 954.36 330.87 953.91 335.73 952.46 340.79 952.49 340.78 955.22 335.34 957.01 335.99 959.02 341.67 957.45 343.55 954.51 345.51 954.14 348.13 955.09 348.55 956.4 352.26 958.85 361.51 957.79 367.88 953.37 368.5 950 371.2 947.24 374.66 947.29 380.49 944.51 385.1 943.29 393.06 943.47 399.03 945.62 402.37 947.84 408.74 941.88 422.4 929.11 431.59 925.56 434.69 923.04 438.43 925.43 440.16 922.97 445.91 918.2 447.87 915.75 451.15 909.92 453.45 909.58 455.77 907.31 459.49 908.56 464.9 907.47 470.83 904.73 473.56 902.51 475.92 899.52 481.71 894.54 487.31 892.22 491.81 891.39 494.82 892.32 496.69 892.08 502.42 888.96 504.19 887.15 506.76 887.59 511.43 886.11 515.86 886.92 521.28 885.28 524.74 885.31 526.62 884 531.46 882.73 537.03 882.62 544 887.78 546.43 887.6 548.48 884.62 551.48 881.56 554.09 881.46 559.14 879.7 560.77 879.98 562 875.42 561.91 871.9 560.05 867.94 558.46 866.73 560.77 863.54 564.24 862.08 566.26 862.28 567.26 860.8 573.23 859.85 576.17 860.66 577.1 856.76 580.93 851.56 580.96 849.11 584.43 845.03 584.26 839.53 588.34 833.1 588.82 831.14 586.82 828.61 588.22 826.2 590.86 823.85 590.81 822.58 593.68 821.3 594.56 816.03 596.64 814.5 600.27 814.27 603.81 809.33 602.82 806.79 603.84 804.93 606.62 804.53 609.11 800.21 610.38 798.98 615.55 798.17 618.71 798.97 619.99 797.67 623.22 796.57 624.38 795.02 624.08 791.54 621.09 788.71 616.87 785.67 617.16 781.47 619.19 778.05 619.4 775.72 618.33 773.21 620.67 767.9 617.56 753.68 627.04 752.14 634.46 749.45 653.94 748.54 658.24 750.41 666.71 760.02 667.63 767.84 664.55 779.89 659.55 786.05 654.38 790.07 650.13 794.63 644.63 802.08 638.3 808.17 636.48 811.09 635.04 814.97 634.74 817.61 635.09 822.2 636.28 825.61 637.73 827.65 644.02 833.79 647.27 836.08 650.75 837.51 654.15 840 659.26 842.63 662.04 843.36 665.87 846.36 672.55 848.15 681.1 851.4 Z" id="29010340"/>
<path d="M 257.37 631.32 259.2 633.92 258.39 637.77 256.8 639.14 255.19 643.55 256.28 645.38 254.5 647.86 256.55 650.77 253.54 651.34 251.16 656.18 249.19 658 247.28 657.18 245.37 660.32 246.09 663.41 245.55 665.78 243.78 667.66 242.96 670.86 239.88 675.84 241.94 677.77 242.84 679.76 245.03 688.48 243.64 691.82 241.27 693.85 239.44 697.66 239.82 700.26 243.01 703.79 243.1 708.01 246.86 709.19 249.46 707.81 251.78 708.8 253.11 706.95 256.19 707.87 258.15 707.62 261.05 708.86 266.18 713.1 269.27 712.19 272.46 712.35 273.62 711.41 282.21 713.49 283.24 716.8 282.54 718.65 285.12 720.23 285.42 722.17 287.67 723.43 291.43 724.52 289.87 727.3 290.74 729.96 289.18 733.83 288.35 737.39 286.09 737.46 283.76 740.25 282.33 747.54 278 751.13 276.49 757.23 276.32 762.78 272.8 764.23 271.1 769.64 273.12 772.34 274.83 773.1 277.37 772.51 279.05 776.11 281.45 777.79 282.18 788.24 283.13 793.54 285.9 794.01 287.06 795.95 290.18 798.39 292.48 802.32 294.53 808 291.85 816.04 292.79 818.58 295.22 821.38 301 824.95 302.97 827.36 307.33 827.92 309.77 829.88 311.79 833.45 311.51 837.16 313.31 840.28 311.87 841.16 311.96 844.12 315.88 853.01 318.05 856.35 316.36 859.06 315.62 863.74 318.81 868.28 320.27 869.16 323.08 869.12 323.81 872.48 325.51 875.31 324.99 877.57 326.98 879.74 327.47 882.44 326.99 884.62 328.75 890.36 324.69 895.27 320.37 899.07 318.79 900.02 319.03 903.1 317.91 904.08 313.32 905.14 311.81 906.01 305.39 912.11 303.42 916.72 304.17 919.22 310.71 926.12 314.05 931.03 319.82 936.2 322.85 940.15 330.87 953.91 325.55 954.36 320.01 955.41 304.28 965.57 298.07 968.49 295.59 970.93 290.74 977.48 288.56 981.06 283.96 990.48 284.38 993.64 282.92 998.22 282.73 1006.21 281.71 1011.17 280.74 1018.78 277.06 1031.36 275.95 1032.82 269.51 1036.65 262.73 1039.47 257.12 1041 241.35 1040.92 238.03 1040.69 225.68 1039.08 219.85 1036.49 206.97 1029.64 202.57 1026.09 205.2 1022.72 207.91 1021.96 209.48 1018.78 208.32 1008.24 209.86 1006.56 210.65 1003.64 208.36 1000.05 209.45 996.02 209.29 993.88 206.79 989.73 204.22 988.39 201.31 984.71 200.98 983.11 205.49 980.33 208.86 976.3 214.15 975.91 214.68 974.69 214.62 964.66 216.27 961.49 218.78 958.37 216.83 951.71 217.04 947.11 215.47 945.52 215.66 943.11 214.63 938.54 208.44 932.19 204.88 934.17 203.84 935.58 201.56 936.34 199.49 935.12 197.99 933.12 195.14 927.61 190.57 925.4 188.12 920.67 188.53 918.46 186.98 912.12 184.61 909.66 182.83 904.81 182.02 899.92 182.53 898.99 178.47 888.06 181.46 884.57 183.61 883.56 186.82 880.84 186.27 877.12 188.81 871.08 190.66 870.89 190.57 867.17 191.29 864.06 190.55 860.96 190.88 855.39 190.22 852.73 186.9 852.83 183.2 849.93 182.15 850.04 177.32 848 177.16 846.61 172.27 842.2 169.47 841.56 165.72 841.51 164.19 840.17 158.31 839.58 154.91 840.77 153.29 840.55 151.55 842.37 146.8 845.26 145.24 842.97 139.65 842.01 138.22 837.01 134.4 834.72 133.29 827.66 130.31 826.53 129.78 825.47 130.4 819.31 132.87 818.02 136.67 814.59 138.91 816.94 140.9 816.76 141.9 813.14 144.53 809.15 141.77 808.07 139.81 806.01 137.09 804.52 139.24 800.75 138.24 797.92 135.15 798.8 133.54 797.57 130.71 790.87 127.93 788.84 125.57 788.67 122.04 786.76 120.55 785.04 122.45 782.6 123.85 777.95 121.02 776.26 122.66 775.13 124.94 772.11 129.52 769.05 130.49 764.54 131.78 762.46 133.61 761.94 136.62 758.61 139.53 758.53 140.95 755.52 144.19 753.57 147.67 750.65 149.96 745.93 154.5 744.07 155.28 741.72 153.53 738.93 147.45 732.84 148.16 731.52 145.11 726 142.32 722.38 141.67 719.24 139.41 718.81 136.6 715.79 136.75 714.4 135.15 711.92 135.67 706.39 134.33 704.43 134.29 701.5 128.93 699.85 129.59 694.73 127.62 691.88 127.92 690.48 132.63 683.11 134.18 682.32 132.32 679.75 132.16 675 131.07 674.4 132.31 669.38 134.38 667.34 140.56 662.75 144.77 658.31 146.13 657.62 149.84 658.17 151.81 657.45 155.79 660.95 156.38 662.65 159.23 663.9 162.69 664.19 164.86 662.46 168.23 656.73 181.8 655.91 180.75 651.59 178.51 649.59 175.17 647.86 171.61 642.05 165.67 633.98 167.37 631.56 170.77 631.4 173.2 628.81 174.53 625.6 173.72 623.54 175.32 620.24 175.01 616.46 176.14 616.24 178.29 613.33 177.26 612.19 179.09 606.83 181.6 604.59 181.5 601.77 183.63 601.66 185.51 599.49 183.93 597.3 184.28 595.11 187.19 590.37 190.31 589.77 194.2 589.96 197.6 591.27 198.61 590.37 202.42 589.88 205.34 586.1 210.73 583.27 213.38 581.14 213.18 576.71 214.45 572.52 214.06 569.72 215.12 562.96 216.92 560.29 218.72 559.04 221.09 556.14 223.91 553.75 225.4 550.37 225.6 543.22 232.69 542.19 234.95 541.16 239.26 542.6 239.27 549.66 239.66 552.39 241.05 554.61 240.31 556.27 240.71 558.65 242.25 561.49 241.76 563.66 244.22 565.63 245.35 568.01 244.86 571.18 249.42 573.9 251.2 576.41 249.8 578.44 249.86 581.22 251.51 584.15 250.99 589.64 254.71 593.66 255.54 598.16 254.41 600.79 257.03 604.97 255.83 608.32 257.47 611.96 255.5 614.8 256.08 616.63 254.71 621.28 256.05 624.7 255.11 626.58 257.37 631.32 Z" id="29010350"/>
<path d="M 370.49 402.51 370.61 405.88 371.55 407.62 370.61 412.13 371.86 414.6 371.38 416.52 372.57 417.76 375.06 418.19 376.72 421.85 380.46 422.75 383 424.65 384.04 426.48 388.11 425.91 389.78 429.62 390.75 433.26 390.65 437.23 395.15 443.57 398.12 445.8 396.89 450.19 401.18 454.42 401.87 457.84 401.31 462.97 402.59 465.09 401.07 466.94 400.98 471.92 403.96 475.44 406.65 477.77 408.58 475.41 416.01 478.06 419.4 477.66 425.5 474.86 427.44 474.62 430.01 475.98 434.34 476.23 435.42 478.08 435.52 481.45 437.36 483.72 441.79 486.52 442.57 492.77 444.37 493.3 446.93 497.24 453.22 502.69 454.49 508.51 458.49 507.99 461.4 511.97 460.06 514.28 460.83 517.07 458.21 519.94 453.42 522.27 451.61 522.64 451.72 524.61 453.96 527.14 453.69 529.41 456.75 532.06 454.77 534.22 455.72 536.95 458.84 539.74 469.09 536.28 471.66 537.65 471.08 540.68 471.61 542.96 475.44 543.6 478.36 545.53 481.24 544.82 482.86 545.41 486.34 543.58 486.86 541.77 489.57 540.49 496.68 550.01 498.58 554.35 502.59 557.58 504.85 562.78 503.77 570.34 501.05 574.77 497.27 578.84 495.19 582.11 493.49 586.3 492.33 591.22 492.55 597.22 492.07 606.39 490.09 610.26 489.8 614.7 489.07 616.6 485.06 617.89 483.25 625.83 480.24 637.51 476.93 653.95 468.93 645.82 459.45 637.24 456.6 635.67 454.53 633.74 442.26 620.84 440.05 619.62 435.14 618.51 425.79 621.12 422.5 623.01 418.49 623.05 415.93 622.12 410.24 622.49 410.21 628.88 407.34 633.18 406.36 636.73 402.07 637.18 399.39 643.25 397.48 643.08 395.11 641.1 392.83 642.9 392.69 631.79 387.99 632.06 388.25 635.59 385.43 634.07 383.75 630.97 381.82 630.6 380.16 632.55 378.48 632.67 377.07 635.12 372.46 635.75 370.31 634.27 368.03 635.53 365.65 639.26 360.75 638.28 357.25 640.44 355.79 642.21 352.92 642.01 351.61 640.16 349.06 640.43 347.69 638.65 345.11 637.48 341.69 634.73 339.64 635.37 337.63 632.86 334.63 633.21 333 632.21 330.77 632.78 328.71 631.31 324.54 636.04 321.44 636.43 318.54 635.07 317.67 633.29 314.18 631.11 313.35 632.25 310.72 632.46 307.61 630.7 306.53 632.82 300.57 630.31 297.92 630.83 291.99 626.13 290.12 627 286.94 626.27 285.89 627.88 283.97 628.09 281.11 629.98 277.98 630.01 277.43 628.5 274.99 628.15 272.67 626.23 268.56 628.57 266.3 628.19 263.98 630.73 261.32 630.51 260.16 632.47 257.37 631.32 255.11 626.58 256.05 624.7 254.71 621.28 256.08 616.63 255.5 614.8 257.47 611.96 255.83 608.32 257.03 604.97 254.41 600.79 255.54 598.16 254.71 593.66 250.99 589.64 251.51 584.15 249.86 581.22 249.8 578.44 251.2 576.41 249.42 573.9 244.86 571.18 245.35 568.01 244.22 565.63 241.76 563.66 242.25 561.49 240.71 558.65 240.31 556.27 241.05 554.61 239.66 552.39 239.27 549.66 239.26 542.6 234.95 541.16 232.69 542.19 225.6 543.22 224.65 539.6 222.87 538.08 220.5 534.64 216.93 533.28 214.82 531.7 211.55 531.59 210.39 530.21 205.67 528.4 202.59 528.5 202.34 530.08 194.99 533.88 193.96 533.22 191.51 534.41 187.78 535.14 184.73 534.55 185.12 532.39 182.04 528.5 179.41 526.6 178.9 525.11 179.73 521.7 176.04 517.27 174.28 513.56 175.16 508.16 176.68 505.33 176.49 502.89 178.27 499.2 177.77 496.77 180.09 490.21 176.35 486.41 174.15 486.64 176.59 483.87 179.11 478.95 180.89 478.72 181.67 476.35 183.96 475.18 185.39 469.78 183.56 466.74 183.83 465.06 188.25 455.83 192.36 454.4 194.04 451.4 193.91 446.51 194.55 442.45 196.61 438.46 196.39 435.29 197.69 433.55 197.71 430.96 195.9 428.69 194.87 422.03 195.23 420.24 197.79 418.65 201.97 413.5 205.91 413.9 209.93 410.99 213.85 411.62 219.43 406.27 225.68 404.28 226.15 401.02 228.21 400.43 230.97 398.24 232.81 398.61 234.34 395.97 237.6 396.25 239.47 397.94 244.63 397.12 249.28 398.8 252.17 397.81 254.74 398.88 259.66 396.87 264.61 397.94 265.55 398.9 267.2 404.27 270.83 406.74 275.3 412.23 276.61 412.84 280.14 409.02 281.66 408.95 283.43 406.31 285.43 407.12 289.38 404.53 293.85 403.04 295.52 405.19 302.23 403.51 304.6 401.02 310.08 402.13 312.23 401.58 317.89 402.34 317.87 403.48 320.46 404.92 322.99 404.02 326.69 401.8 329.69 398.9 333.04 403.52 338.72 402.42 341.14 403.45 346.54 397.8 349.22 396.58 351.35 396.95 352.41 398.46 356.25 399.2 358.66 400.99 360.52 400.5 364.03 401.84 366.67 401.11 368.44 402.53 370.49 402.51 Z" id="29010360"/>
<path d="M 338.67 135.67 338.04 137.49 340.93 139.26 340.93 141.39 339.46 142.83 338.37 146.42 339.74 149.1 336.65 150.35 336.36 151.93 331.21 155.62 329.75 159.08 328.38 159.35 323.42 164.4 320.82 170.41 314.83 171.68 311.69 172.87 307.79 173.29 305.69 174.64 297.29 177.28 296 178.54 286.98 170.98 283.58 168.88 280.59 163.95 275.62 160.79 271.44 161.2 269.84 159.87 267.73 160.56 265.66 160.02 261.47 161.85 258.7 166.14 256.73 166.88 254.99 170.64 253.09 170.39 249.02 174.08 248.59 177.1 249.18 179.14 248.7 182.76 251.62 189.58 248.65 192.94 252.03 195.24 253.5 197.53 255.33 203.11 257.2 205.96 258.2 206.04 258.95 210.64 257.33 212.5 257.9 215.23 256.6 217.71 257.45 222.78 254.39 224.6 252.32 222.93 248.03 222.13 242.88 222.69 240.96 221.07 240.34 219.06 235.11 215.41 233.94 212.05 231.84 208.39 229.86 206.4 227.21 205.41 225.81 216.29 226.58 217.47 225.55 220.25 223.34 222.54 222.35 227.46 223.11 230.06 226.27 230.27 227.7 232.97 227.1 235.68 228.32 238.82 224.7 243.08 224.27 245.4 222.08 248.92 221.61 251.68 216.87 254.24 214.75 256.08 211.33 257.78 210.25 259.02 207.89 259.05 206.28 262.97 206.7 264.12 203.99 270.52 205.87 273.22 205.98 276.36 208.13 281.1 210.08 281.26 211.85 282.68 211.84 288.77 213.03 292.6 215.35 295.64 215.18 297.37 216.83 299.76 215.94 304.41 212.55 305.68 212.96 306.67 211.18 311.7 209.26 314.7 209.05 316.5 211.62 318.43 213.12 326.29 215.39 328.33 215.84 331.95 215.47 337.07 215.84 340.84 213.14 347.26 213.41 350.03 214.83 353.68 215.01 358.07 216.27 360.65 215.25 365.27 217.82 366.15 220.66 369.88 220.67 373.16 222.22 375.28 224.25 374.9 227.01 376.72 229.67 377.33 228.98 379.07 229.94 382.02 231.11 382.57 231.2 385.93 232.79 389.51 230.63 393.83 230.97 398.24 228.21 400.43 226.15 401.02 225.68 404.28 219.43 406.27 213.85 411.62 209.93 410.99 205.91 413.9 201.97 413.5 197.79 418.65 195.23 420.24 194.87 422.03 195.9 428.69 197.71 430.96 197.69 433.55 196.39 435.29 196.61 438.46 194.55 442.45 193.91 446.51 194.04 451.4 192.36 454.4 188.25 455.83 183.83 465.06 183.56 466.74 185.39 469.78 183.96 475.18 181.67 476.35 180.89 478.72 179.11 478.95 176.59 483.87 174.15 486.64 170.61 488.33 168.03 490.38 168.84 494.44 163.1 496.55 160.37 498.37 156.36 493.97 153.64 492.06 154.07 491.09 153.66 484.63 152.92 483.36 149.95 481.87 146.95 481.76 143.64 478.56 142.76 478.56 138.11 481.33 133.79 480.77 131.36 481.99 129.86 481.59 127.6 483.38 127.29 478.91 123.96 476.03 122.08 470.65 119.56 470.98 116.15 467.17 116.15 465.71 113.92 463.85 114.67 461.27 111.92 457.77 107.78 459.32 104.18 455.78 101.23 455.15 99.5 452.53 95.62 451.21 93.26 451.33 92.41 450.14 87.91 449.13 85.93 445.74 80.27 446.86 79.12 444.45 79.51 440.35 79.14 437.84 80.1 435.94 79.15 433.9 79.37 430.57 77.71 425.69 77.89 422.81 79.93 417.83 80.5 414.99 79.46 412.05 77.59 410.12 72.32 406.65 65.39 403.9 63.8 401.55 64.85 398.96 69.88 391.85 72.26 391.54 73.3 388.41 75.77 384.5 77.65 383.39 82.13 384.38 84.47 386.14 85.96 384.07 89.49 384.32 92.05 383.84 93.14 382.52 92.23 379.12 92.76 376.14 90.29 377 85.1 374.38 83.44 372.83 83.8 370.82 81.85 368.01 82.35 366.41 80.94 363.2 81.26 357.25 84.77 355.27 83.05 352.42 84.7 350.17 84.78 346.72 86.28 344.47 83.25 340.12 81.62 335.8 83.06 334.45 84.79 331.18 84.62 329.89 81.91 329.06 80.08 325.82 81.36 323.52 75.17 318.96 72.97 315.34 73.53 312.44 72.34 310.13 75.15 304.97 74.01 300.54 74.89 299.37 74.71 294.61 75.95 291.56 75.52 284.88 76.3 283.57 79.38 282.3 84.18 278.29 86.78 278.35 86.88 276.33 91.01 272.71 93.16 272.06 92.91 267.83 91.36 267.26 90.65 263.74 89.6 261.83 89.68 257.45 88.83 253.81 85.78 252.62 83.8 250.36 80.73 248.93 81.03 246.92 77.06 243.64 75.66 243.14 78.21 240.17 79.22 232.47 81.31 229.95 80.57 227.02 84.61 224.4 85.86 220.16 87.88 219.02 87.4 213.09 91.08 210.09 92.89 209.45 94.03 207.19 98.67 202.72 101.13 201.89 103.02 193.98 102.47 190.46 101.06 187.57 101.7 184.55 99.69 178.08 98.21 176.03 97.77 171.75 95.37 167.11 93.53 161.89 93.78 160.53 91.2 159.43 94.46 155.33 95.42 153.11 94.59 149.75 92.33 144.37 87.65 138.68 85.86 135.31 83.18 134.29 80.26 132.35 76.25 127.88 74.66 123.51 75.91 120.11 75.36 117.75 73.62 114.7 65.57 97.63 66.41 96.68 67.06 92.9 68.83 92.59 71.37 88.85 74.36 90.02 77 87.88 79.77 89.44 80.5 91.55 83.25 93.6 86.19 93.49 88.59 92.39 90.87 92.4 93.62 90.56 95.36 85.68 98.37 84.42 99.93 81.03 102.92 80.39 105.96 81.17 107.08 83.02 112.31 87.48 112.06 90.7 112.94 92.82 115.63 93.15 116.3 91.87 120.26 89.24 123.33 88.06 128.51 87.33 131.93 84.01 138.59 82.85 139.36 84.81 141.14 86.2 141.43 90.17 142.6 94.06 142.13 96.52 142.67 98.98 151.13 96.91 158.37 101.22 159.63 103.59 163.79 104.64 167.82 106.54 171.09 107.31 172.53 108.55 177.73 108.43 180.33 106.91 186.63 107.62 188.4 109.7 190.15 107.84 193.19 108.46 195.05 109.63 196.71 105.37 200.5 103.62 202.18 101.74 204.2 92.76 204.13 88.72 204.65 84.85 205.79 82.97 210.8 82.27 215.54 82.59 215.99 80.2 218.61 76.96 220.61 73.05 219.14 70.94 219.46 66.78 223.27 64.4 224.28 62.44 223.03 55.89 223.4 54.43 225.6 52.34 233.55 55.17 238.12 55.55 241.43 52.41 244.52 53.01 246 55.16 245.27 59.14 248.73 62.54 254.53 64.3 257.63 64.69 260.64 64.23 265.23 64.62 269.95 63.81 271.59 67.29 269.41 70.4 269.16 73.4 270.01 77.97 274.17 82.45 278.09 83.67 280.7 87.21 284.04 90.02 285.26 89.26 287.2 91.3 288.88 91.32 294.2 87.01 299.86 87.88 300.3 90.4 302.82 92.79 305.91 92.56 307.23 95.83 307.74 103.17 312.67 107.22 314.81 106.86 315.12 110.43 318.19 111.82 320.99 114.21 325.23 115.26 328.35 114.71 329.44 115.82 329.46 118.44 326.32 120.28 327.4 123.9 326.97 125.66 331 129.67 332.16 132.82 336.14 131.69 336.94 133.89 338.67 135.67 Z" id="29010370"/>
<path d="M 400.45 139.24 402.77 137.19 404.63 137.68 407.19 136.99 410.18 134.79 416.65 140.87 419.13 146.52 422.11 148.42 425.83 146.45 428.46 145.66 430.24 147.05 432.37 151.67 435.9 150.96 440.5 151.43 443.42 150.72 448.1 151.57 451.11 154.6 453.47 154.77 455.39 159.34 459.13 160.87 462.7 163.16 472.31 164.76 475.43 167.72 483.6 167.13 487.13 169.55 489.95 167.79 493.41 168.74 495.38 170.27 497.24 170.2 497.64 173.35 500.5 175.57 501.68 177.75 503.84 178.32 506.28 180.69 505.23 189.44 506.06 193.62 505.03 195.31 504.01 199.74 502.44 203.56 499.57 207.87 500.59 210.31 500.39 212.76 502.08 214.8 501.42 220.64 499.81 226.72 498.64 229.33 499.32 231.13 495.97 232.9 491.55 237.51 488.53 243.41 487.92 250.43 484.36 249.94 480.33 252.63 475.96 254.88 473.65 259.11 472.21 258.31 469.98 258.98 465.25 258.22 462.87 259.56 454.63 260.04 453.31 261.52 454.44 264.17 453.92 269.02 451.76 270.74 448.07 277.94 447.56 282.59 446.25 286.75 447.2 288.9 445.55 292.07 441.35 292.62 439.31 297.13 438.73 300.28 439.21 301.81 437.02 303.19 436.03 306.17 433.58 309.56 435.25 316.32 436.86 319.49 430.71 322.7 427.71 325.08 425.08 322.83 420.65 321.02 419.19 322.89 417.81 327.25 416.85 328.23 419.1 332.58 420.26 336.75 421.69 339.43 424.54 342.35 426.11 345.18 426 347.86 427.67 350.18 427.62 355.87 428.04 359.04 426.52 366.51 424.06 369.17 421.89 370.27 420.25 374.45 417.35 376.09 415.76 380.56 412.39 381.55 410.84 385.76 411.38 387.48 406.63 389.49 404.03 391.51 402.3 391.32 395.55 395.79 394.32 395.81 389.79 393.21 385.9 394.36 382.96 390.04 381.96 390.87 379.29 400.3 379.7 403.25 377.16 404.07 374.77 402.18 373.1 402.88 370.49 402.51 368.44 402.53 366.67 401.11 364.03 401.84 360.52 400.5 358.66 400.99 356.25 399.2 352.41 398.46 351.35 396.95 349.22 396.58 346.54 397.8 341.14 403.45 338.72 402.42 333.04 403.52 329.69 398.9 326.69 401.8 322.99 404.02 320.46 404.92 317.87 403.48 317.89 402.34 312.23 401.58 310.08 402.13 304.6 401.02 302.23 403.51 295.52 405.19 293.85 403.04 289.38 404.53 285.43 407.12 283.43 406.31 281.66 408.95 280.14 409.02 276.61 412.84 275.3 412.23 270.83 406.74 267.2 404.27 265.55 398.9 264.61 397.94 259.66 396.87 254.74 398.88 252.17 397.81 249.28 398.8 244.63 397.12 239.47 397.94 237.6 396.25 234.34 395.97 232.81 398.61 230.97 398.24 230.63 393.83 232.79 389.51 231.2 385.93 231.11 382.57 229.94 382.02 228.98 379.07 229.67 377.33 227.01 376.72 224.25 374.9 222.22 375.28 220.67 373.16 220.66 369.88 217.82 366.15 215.25 365.27 216.27 360.65 215.01 358.07 214.83 353.68 213.41 350.03 213.14 347.26 215.84 340.84 215.47 337.07 215.84 331.95 215.39 328.33 213.12 326.29 211.62 318.43 209.05 316.5 209.26 314.7 211.18 311.7 212.96 306.67 212.55 305.68 215.94 304.41 216.83 299.76 215.18 297.37 215.35 295.64 213.03 292.6 211.84 288.77 211.85 282.68 210.08 281.26 208.13 281.1 205.98 276.36 205.87 273.22 203.99 270.52 206.7 264.12 206.28 262.97 207.89 259.05 210.25 259.02 211.33 257.78 214.75 256.08 216.87 254.24 221.61 251.68 222.08 248.92 224.27 245.4 224.7 243.08 228.32 238.82 227.1 235.68 227.7 232.97 226.27 230.27 223.11 230.06 222.35 227.46 223.34 222.54 225.55 220.25 226.58 217.47 225.81 216.29 227.21 205.41 229.86 206.4 231.84 208.39 233.94 212.05 235.11 215.41 240.34 219.06 240.96 221.07 242.88 222.69 248.03 222.13 252.32 222.93 254.39 224.6 257.45 222.78 256.6 217.71 257.9 215.23 257.33 212.5 258.95 210.64 258.2 206.04 257.2 205.96 255.33 203.11 253.5 197.53 252.03 195.24 248.65 192.94 251.62 189.58 248.7 182.76 249.18 179.14 248.59 177.1 249.02 174.08 253.09 170.39 254.99 170.64 256.73 166.88 258.7 166.14 261.47 161.85 265.66 160.02 267.73 160.56 269.84 159.87 271.44 161.2 275.62 160.79 280.59 163.95 283.58 168.88 286.98 170.98 296 178.54 297.29 177.28 305.69 174.64 307.79 173.29 311.69 172.87 314.83 171.68 320.82 170.41 323.42 164.4 328.38 159.35 329.75 159.08 331.21 155.62 336.36 151.93 336.65 150.35 339.74 149.1 338.37 146.42 339.46 142.83 340.93 141.39 340.93 139.26 338.04 137.49 338.67 135.67 340.91 133.94 343.77 133.62 347.62 128.87 350.31 129.76 350.62 131.53 352.41 132.01 355.73 136.02 364.18 140.3 366.49 145.54 371.61 144.19 374.01 145.16 377.23 144.08 383.98 145.39 387.04 145.53 389.52 144.07 395.31 142.34 396.92 140.78 400.45 139.24 Z" id="29010380"/>
<path d="M 212.27 27.56 213.91 30.52 215.36 31.31 213.82 35.96 214.26 38.47 216.1 40.58 215.77 43.3 217.04 45.94 221.2 46.57 225.94 50.69 225.6 52.34 223.4 54.43 223.03 55.89 224.28 62.44 223.27 64.4 219.46 66.78 219.14 70.94 220.61 73.05 218.61 76.96 215.99 80.2 215.54 82.59 210.8 82.27 205.79 82.97 204.65 84.85 204.13 88.72 204.2 92.76 202.18 101.74 200.5 103.62 196.71 105.37 195.05 109.63 193.19 108.46 190.15 107.84 188.4 109.7 186.63 107.62 180.33 106.91 177.73 108.43 172.53 108.55 171.09 107.31 167.82 106.54 163.79 104.64 159.63 103.59 158.37 101.22 151.13 96.91 142.67 98.98 142.13 96.52 142.6 94.06 141.43 90.17 141.14 86.2 139.36 84.81 138.59 82.85 131.93 84.01 128.51 87.33 123.33 88.06 120.26 89.24 116.3 91.87 115.63 93.15 112.94 92.82 112.06 90.7 112.31 87.48 107.08 83.02 105.96 81.17 102.92 80.39 99.93 81.03 98.37 84.42 95.36 85.68 93.62 90.56 90.87 92.4 88.59 92.39 86.19 93.49 83.25 93.6 80.5 91.55 79.77 89.44 77 87.88 74.36 90.02 71.37 88.85 68.83 92.59 67.06 92.9 66.41 96.68 65.57 97.63 73.62 114.7 75.36 117.75 75.91 120.11 74.66 123.51 76.25 127.88 80.26 132.35 83.18 134.29 82.99 138.94 81.98 141.31 82.41 143.72 80.74 151.23 75.76 151.5 72.65 150.49 70.29 152.92 65.76 155.82 64.96 154.46 62.1 154.44 60.52 150.63 58.59 151.86 56.26 151.41 52.61 153.86 50.55 156.39 47.86 156.18 45.92 157.45 43.25 154.81 40.07 154.02 39.52 151.34 43.21 148.18 42.07 146.16 41.85 142.85 40.1 139.22 36.49 137.98 37.66 129.95 33.14 125.24 31.83 125.18 30.05 119.99 30.43 119.41 29.4 114.36 30.29 113.29 26.99 111.54 23.94 108.84 23.67 107.28 24.66 103.96 24.25 101.52 19.28 95.42 16.27 96.92 12.69 97.63 7.2 95.3 5.91 93.13 1.33 91.33 1 88.03 5.72 83.46 8.25 83.82 11.58 83.29 14.13 80.43 16.14 76.01 18.88 74.62 19.42 72.8 22.88 73.69 25.49 71.96 25.97 70.61 31.7 67 33.66 64.01 36.54 63.26 36.26 61.52 37.65 60.32 45.5 58.23 47.07 58.88 49.38 57.95 50.92 55.81 51.64 52.69 55.36 51.75 56.48 49.95 58.17 49.68 59.8 47.33 59.58 44.97 56.4 42.86 61.51 32.56 61.06 28.59 62.54 27.44 64.85 27.61 68.82 25.53 68.48 18.05 73.87 19.53 78.35 23.16 80.93 24.08 84.19 23.24 85.54 19.09 84.52 15.36 86.35 13.82 87.29 11.04 89.58 9.11 90.11 4.43 92.82 4.75 94.91 3.43 98.56 3.17 104.29 1 113.19 3.5 115.22 3.38 118.28 5.82 122.62 6.54 124.44 8.58 124.6 11.88 129.28 18.86 131.14 19.27 132.39 17.97 138.87 19.31 147.21 17.51 150.99 16.29 152.33 13.93 154.91 14.64 156.34 13.12 159.55 14.09 160.15 15.31 163.58 17.27 167.81 21.24 173.78 21.96 174.06 20.22 176.52 19.03 179.52 19.74 182.66 18.93 186.21 22.18 190.59 19.06 193 20.42 195.85 20.46 196.73 22.37 199.44 23.62 200.83 23.23 204.07 25.09 207.32 27.66 212.27 27.56 Z" id="29010390"/>
<path d="M 500.27 525.72 496.46 527.53 493.4 531.06 491.87 533.64 489.57 540.49 486.86 541.77 486.34 543.58 482.86 545.41 481.24 544.82 478.36 545.53 475.44 543.6 471.61 542.96 471.08 540.68 471.66 537.65 469.09 536.28 458.84 539.74 455.72 536.95 454.77 534.22 456.75 532.06 453.69 529.41 453.96 527.14 451.72 524.61 451.61 522.64 453.42 522.27 458.21 519.94 460.83 517.07 460.06 514.28 461.4 511.97 458.49 507.99 454.49 508.51 453.22 502.69 446.93 497.24 444.37 493.3 442.57 492.77 441.79 486.52 437.36 483.72 435.52 481.45 435.42 478.08 434.34 476.23 430.01 475.98 427.44 474.62 425.5 474.86 419.4 477.66 416.01 478.06 408.58 475.41 406.65 477.77 403.96 475.44 400.98 471.92 401.07 466.94 402.59 465.09 401.31 462.97 401.87 457.84 401.18 454.42 396.89 450.19 398.12 445.8 395.15 443.57 390.65 437.23 390.75 433.26 389.78 429.62 388.11 425.91 384.04 426.48 383 424.65 380.46 422.75 376.72 421.85 375.06 418.19 372.57 417.76 371.38 416.52 371.86 414.6 370.61 412.13 371.55 407.62 370.61 405.88 370.49 402.51 373.1 402.88 374.77 402.18 377.16 404.07 379.7 403.25 379.29 400.3 381.96 390.87 382.96 390.04 385.9 394.36 389.79 393.21 394.32 395.81 395.55 395.79 402.3 391.32 404.03 391.51 406.63 389.49 411.38 387.48 410.84 385.76 412.39 381.55 415.76 380.56 417.35 376.09 420.25 374.45 421.89 370.27 424.06 369.17 426.52 366.51 428.04 359.04 427.62 355.87 427.67 350.18 429.05 348.54 432.33 346.87 435.55 346.33 442.99 347.73 445.73 347.75 446.03 345.91 449.45 340.96 452.87 338.96 455.75 338.13 458.8 338.26 460.54 339.22 462.96 341.95 463.6 344.19 460.44 353.23 459.26 358.58 459.37 361.76 461.3 374.26 463.01 379.6 464.42 380.87 468.43 381.86 474.15 381.8 475.09 382.35 474.82 390.13 473.75 393.75 474.04 398.19 475.44 400.71 482.4 401.78 484.45 404.28 486.32 409.47 485.74 416.78 487.4 421.54 490.69 422.15 491.25 426.94 489 427.85 490.12 434.43 489.29 436.81 487.39 437.52 486.03 439.9 488.97 440.13 494.84 447.11 499.62 451.6 501.81 455.03 503.76 459.7 504.4 464.65 504.18 467.37 503 471.3 499.7 478.54 498.84 483 498.76 487.89 499.87 492.82 499.47 496.86 498.12 499.42 495.24 501.6 492.93 505.01 489.9 507.51 485.5 509.78 484.37 513.7 485.4 515.86 491.05 518.04 492.93 521.58 497.32 524.95 500.27 525.72 Z" id="29010110"/>
<path d="M 487.65 652.75 486.68 653.7 482.16 658.11 479.62 660.28 476.93 653.95 480.24 637.51 483.25 625.83 485.06 617.89 489.07 616.6 489.8 614.7 490.09 610.26 492.07 606.39 492.55 597.22 492.33 591.22 493.49 586.3 495.19 582.11 497.27 578.84 501.05 574.77 503.77 570.34 504.85 562.78 502.59 557.58 498.58 554.35 496.68 550.01 489.57 540.49 491.87 533.64 493.4 531.06 496.46 527.53 500.27 525.72 503.37 526.18 508.65 526.04 513.31 526.43 523.1 526.49 528.86 525.09 533.79 524.72 540.37 523.34 546.26 523.25 549.89 528.98 549.98 530.37 546.43 531.86 548.11 533.53 550.56 534.48 555.72 535.25 556.4 537.83 555.65 539.81 557.08 541.81 557.63 544.37 563.15 550.22 568.82 552.7 570.67 554.49 573.17 553.59 575.58 555.44 576.83 557.44 576.14 559.1 577.53 562.19 581.04 563.44 581.97 565.18 586.72 567.46 586.74 569.06 588.94 571.22 585.04 577.82 585.93 580.72 589.1 587.39 590.03 591.76 590.34 596.14 593.79 597.84 597.87 595.76 600.84 593.28 605.58 593.01 606.73 590.44 610.49 590.08 611.47 591.96 618.78 590.41 620.82 592.49 624.05 592.62 629.71 598.19 633.81 598.36 630.45 602.32 631.13 604.03 635.14 606.89 636.51 611.65 637.8 614.34 637.24 621.71 641.55 622.89 641.81 629.55 642.61 631.33 647.17 629.96 647.49 633.24 649.32 637.81 651.49 638.08 652.22 640.05 648.39 645.02 646.41 645.95 642.19 649.83 640.12 652.31 640.03 657.98 639.49 661.73 638.31 665.21 638.09 670.53 641.5 676.4 641.73 679.3 642.87 684.03 641.43 689.49 640.53 695.36 640.71 699.04 642.4 702.18 641.69 708.37 642.05 711.11 644.46 713.32 650.85 714.9 651.07 719.28 654.4 723.42 656.71 723.5 660.99 725.23 663.23 727.79 664.98 732.93 664.3 735.87 661.34 740.35 658.03 743.32 653.94 748.54 634.46 749.45 627.04 752.14 617.56 753.68 617.08 751.47 614.35 748.37 611.71 744.31 608.83 737.5 611.04 734.63 609.8 732.02 605.99 732.64 601.82 730.44 598.13 725.99 597.21 722.22 594.15 722.65 593.89 719.17 591.93 718.26 591.28 712.89 593.36 702.42 591.23 699.55 587.86 701.72 583.25 700.36 577.42 701.09 574.91 699.86 572.35 699.98 570.14 697.6 569.28 694.61 566.04 693.32 564.75 690.95 562.85 689.39 563.2 687.62 567.81 685.23 568.09 678.83 570.44 674.16 567.25 670.03 565.27 668.78 562.38 664.71 558.66 663.83 555.93 664.57 554.84 665.95 550.95 664.12 545.74 663.81 539.78 664.38 539.49 660.24 535.48 659.43 535.03 657.02 532.46 655.08 528.58 654.71 526.8 656.05 526.72 658.89 516.9 666.35 510.78 665.02 507.83 663.15 507.84 660.79 505.93 654.73 506.48 653.26 503.63 652.36 500.47 652.19 496.64 652.76 487.65 652.75 Z" id="29010312"/>
<path d="M 703.17 578.16 704.36 578.31 702.81 582.52 699.59 585.08 694.3 587.4 691.63 589.54 688.93 593.06 694.38 591.48 698.81 591.11 700.13 590.28 702.23 591.51 705.65 595.37 700.48 600.49 701.48 602.34 697.3 604.9 692.13 605.14 690.83 605.82 692.28 611.32 693.81 613.9 698.89 613.11 706.08 622.47 707.57 625.79 709.3 631.46 707.85 632.85 708.57 635.07 707.07 636.65 707.36 641.17 709.2 642.62 716.29 644.37 720.5 647.89 719.08 653.08 722.47 656.21 722.65 662.03 721.59 664.38 721.65 667.64 722.56 669.96 725.95 671.63 727.63 670.9 730.61 671.74 733.63 671.28 736.93 673.9 739.25 674.16 743.38 673.35 746.37 675.17 751.73 674.21 755.2 675.04 760.8 674.29 763.81 673.22 768.47 668.9 773.07 670.78 774.89 675.3 775.49 679.84 777.14 682.69 779.61 682.31 782.11 684.45 782.77 686.9 783.19 695.22 784.53 699.53 783.78 702.34 783.91 705.07 785.69 707.94 792.18 715.06 790.59 717.55 791.78 719.66 791.22 722.54 792.64 726.34 792.41 731.91 789.76 734.06 787.35 733.76 785.59 731.56 780.38 731.14 777 733.24 773.6 731.74 772.4 732.12 770.73 735.58 766.47 739 762.28 740.22 761.57 742.9 768.3 746.12 769.28 748.29 771.56 748.4 772.17 750.17 778.85 753.99 780.01 756.09 780.06 760.45 783.42 769.14 781.54 770.38 782.3 772.92 785.9 773.48 786.64 775.12 789.31 777.92 793.87 780.54 792.35 783.28 793.53 785.67 793.97 791.38 793.19 792.51 789.96 804.17 791.57 807.16 793.86 807.98 792.07 810.43 790.74 814.04 795.11 818.62 795.11 819.98 797.67 820.3 799 822.36 798.34 827.5 796.75 828.58 796.28 830.85 792.06 831.08 787.54 832.74 781.35 835.92 776.47 837.58 769.46 837.51 760.19 841.38 757.72 843.57 749.89 837.18 746.02 832.54 731.73 819.55 723.05 814.03 713.15 816.48 705.47 830.18 696 840.97 691.75 845.02 686.47 849.31 681.1 851.4 672.55 848.15 665.87 846.36 662.04 843.36 659.26 842.63 654.15 840 650.75 837.51 647.27 836.08 644.02 833.79 637.73 827.65 636.28 825.61 635.09 822.2 634.74 817.61 635.04 814.97 636.48 811.09 638.3 808.17 644.63 802.08 650.13 794.63 654.38 790.07 659.55 786.05 664.55 779.89 667.63 767.84 666.71 760.02 658.24 750.41 653.94 748.54 658.03 743.32 661.34 740.35 664.3 735.87 664.98 732.93 663.23 727.79 660.99 725.23 656.71 723.5 654.4 723.42 651.07 719.28 650.85 714.9 644.46 713.32 642.05 711.11 641.69 708.37 642.4 702.18 640.71 699.04 640.53 695.36 641.43 689.49 642.87 684.03 641.73 679.3 641.5 676.4 638.09 670.53 638.31 665.21 639.49 661.73 640.03 657.98 640.12 652.31 642.19 649.83 646.41 645.95 648.39 645.02 652.22 640.05 651.49 638.08 649.32 637.81 647.49 633.24 647.17 629.96 642.61 631.33 641.81 629.55 641.55 622.89 637.24 621.71 637.8 614.34 636.51 611.65 635.14 606.89 631.13 604.03 630.45 602.32 633.81 598.36 635.68 598.11 640.62 596.01 644.52 599.97 656.4 597.86 659.18 592.39 662.27 590.3 663.68 590.82 670.07 591.05 672.17 592.01 677.55 588.23 678.24 584.11 679.36 583.5 685.27 583.07 687.61 581.88 692.18 581.28 703.17 578.16 Z" id="29010330"/>
<path d="M 620.67 767.9 618.33 773.21 619.4 775.72 619.19 778.05 617.16 781.47 616.87 785.67 621.09 788.71 624.08 791.54 624.38 795.02 623.22 796.57 619.99 797.67 618.71 798.97 615.55 798.17 610.38 798.98 609.11 800.21 606.62 804.53 603.84 804.93 602.82 806.79 603.81 809.33 600.27 814.27 596.64 814.5 594.56 816.03 593.68 821.3 590.81 822.58 590.86 823.85 588.22 826.2 586.82 828.61 588.82 831.14 588.34 833.1 584.26 839.53 584.43 845.03 580.96 849.11 580.93 851.56 577.1 856.76 576.17 860.66 573.23 859.85 567.26 860.8 566.26 862.28 564.24 862.08 560.77 863.54 558.46 866.73 560.05 867.94 561.91 871.9 562 875.42 560.77 879.98 559.14 879.7 554.09 881.46 551.48 881.56 548.48 884.62 546.43 887.6 544 887.78 537.03 882.62 531.46 882.73 526.62 884 524.74 885.31 521.28 885.28 515.86 886.92 511.43 886.11 509.78 884.29 509.38 879.23 507.27 874.97 508.9 873.21 506.3 871.44 506.21 868.83 504.21 865.23 503.17 864.64 500.31 855.07 496.17 853.82 494.61 851.34 484.28 843.27 484.04 843.56 491.14 831.92 499.59 822.53 501.17 820.26 505.62 816.07 504.95 815.26 509.76 810.82 513.53 808 514.41 805.8 518.04 805.3 516.9 803.17 520.72 798.58 525.1 795.6 547.53 785.56 559.74 783.07 565.6 782.3 578.03 777.58 582.18 776.77 587.86 777.64 591.06 777.43 594.76 776.09 594.85 774.44 602.73 771.53 610.99 769.76 612.66 769.99 615.38 768.94 620.67 767.9 Z M 617.08 751.47 611.78 752.59 606.54 752.07 603.79 752.89 596.6 754.11 593.4 754.04 589.42 754.81 587.63 754.58 585.79 755.9 582.14 756.16 580.06 755.28 574.81 756 571.61 757.6 569.71 757.04 566.16 757.54 562.53 754.98 559.58 756.15 557.15 755.42 557.12 752.68 555.39 749.43 553.74 744.18 549.67 737.3 546.75 733.33 546.54 729.58 544.2 726.48 541.2 725.87 538.92 723.74 535.39 722.58 534.29 720.9 531.38 721.11 527.1 719.38 525.75 717.36 522.07 716.86 515.53 712.95 515.01 711.78 507.28 708.18 505.29 706.87 499.46 704.73 498.57 703.83 493.84 704.26 492.11 701.34 493.19 698.51 492.02 693 489.97 690.86 488.95 686.07 489.42 680.1 487.83 673.81 485.7 671.82 486.9 670.07 485.14 668.36 482.96 659.18 483.56 657.39 485.66 657.09 487.82 653.93 487.65 652.75 496.64 652.76 500.47 652.19 503.63 652.36 506.48 653.26 505.93 654.73 507.84 660.79 507.83 663.15 510.78 665.02 516.9 666.35 526.72 658.89 526.8 656.05 528.58 654.71 532.46 655.08 535.03 657.02 535.48 659.43 539.49 660.24 539.78 664.38 545.74 663.81 550.95 664.12 554.84 665.95 555.93 664.57 558.66 663.83 562.38 664.71 565.27 668.78 567.25 670.03 570.44 674.16 568.09 678.83 567.81 685.23 563.2 687.62 562.85 689.39 564.75 690.95 566.04 693.32 569.28 694.61 570.14 697.6 572.35 699.98 574.91 699.86 577.42 701.09 583.25 700.36 587.86 701.72 591.23 699.55 593.36 702.42 591.28 712.89 591.93 718.26 593.89 719.17 594.15 722.65 597.21 722.22 598.13 725.99 601.82 730.44 605.99 732.64 609.8 732.02 611.04 734.63 608.83 737.5 611.71 744.31 614.35 748.37 617.08 751.47 Z" fill-rule="evenodd" id="29010513"/>
<path d="M 479.7 660.52 471.24 668.81 465.88 682.28 458.77 681.53 454.17 681.75 450.7 674.19 448.88 672.42 443.75 671.65 439.81 674.84 436.36 677.06 434.67 677.07 431.76 672.44 428.65 669.38 424.54 668.27 421.86 668.83 417.79 668.66 413.04 667.84 404.61 664.26 401.94 663.57 396.95 663.61 394.85 663.13 392.31 664.18 386.42 665.49 384.25 667.55 384.23 670.81 383.34 673.13 383.92 676.15 381.76 677.72 374.35 678.8 373.97 681.3 370.23 685.86 364.72 683.64 362.76 681.12 360.59 683.02 358.33 683.77 358.18 685.63 353.87 686.99 350.78 684.02 350.34 686.1 343.86 685.88 341.72 687.12 337.86 685.37 336.27 685.68 331.97 684.07 329.35 686.7 326.51 686.32 324.64 687.08 319.01 682.35 318.7 680.23 314.3 678.52 312.9 679.21 312.3 681.85 314.25 683.99 313.98 688.8 312.89 689.74 313.18 692.58 309.79 694.39 307.96 698.27 304.53 698.75 303.2 698.16 300.47 700.64 298.26 699.53 296.84 700.55 294.87 698.55 287.57 700.82 284.11 700.72 282.44 699.25 278.17 700.94 275.97 705.27 275.86 707.42 273.62 711.41 272.46 712.35 269.27 712.19 266.18 713.1 261.05 708.86 258.15 707.62 256.19 707.87 253.11 706.95 251.78 708.8 249.46 707.81 246.86 709.19 243.1 708.01 243.01 703.79 239.82 700.26 239.44 697.66 241.27 693.85 243.64 691.82 245.03 688.48 242.84 679.76 241.94 677.77 239.88 675.84 242.96 670.86 243.78 667.66 245.55 665.78 246.09 663.41 245.37 660.32 247.28 657.18 249.19 658 251.16 656.18 253.54 651.34 256.55 650.77 254.5 647.86 256.28 645.38 255.19 643.55 256.8 639.14 258.39 637.77 259.2 633.92 257.37 631.32 260.16 632.47 261.32 630.51 263.98 630.73 266.3 628.19 268.56 628.57 272.67 626.23 274.99 628.15 277.43 628.5 277.98 630.01 281.11 629.98 283.97 628.09 285.89 627.88 286.94 626.27 290.12 627 291.99 626.13 297.92 630.83 300.57 630.31 306.53 632.82 307.61 630.7 310.72 632.46 313.35 632.25 314.18 631.11 317.67 633.29 318.54 635.07 321.44 636.43 324.54 636.04 328.71 631.31 330.77 632.78 333 632.21 334.63 633.21 337.63 632.86 339.64 635.37 341.69 634.73 345.11 637.48 347.69 638.65 349.06 640.43 351.61 640.16 352.92 642.01 355.79 642.21 357.25 640.44 360.75 638.28 365.65 639.26 368.03 635.53 370.31 634.27 372.46 635.75 377.07 635.12 378.48 632.67 380.16 632.55 381.82 630.6 383.75 630.97 385.43 634.07 388.25 635.59 387.99 632.06 392.69 631.79 392.83 642.9 395.11 641.1 397.48 643.08 399.39 643.25 402.07 637.18 406.36 636.73 407.34 633.18 410.21 628.88 410.24 622.49 415.93 622.12 418.49 623.05 422.5 623.01 425.79 621.12 435.14 618.51 440.05 619.62 442.26 620.84 454.53 633.74 456.6 635.67 459.45 637.24 468.93 645.82 476.93 653.95 479.62 660.28 479.7 660.52 Z" id="29010311"/>
<path d="M 352.47 791.73 355.98 792.04 358.11 794.39 357.32 797.38 355.63 799.46 355.61 802.17 357.63 806.08 356.88 809.06 359.3 811.42 359.76 813.64 358.29 819.54 350.61 818.94 351.06 820.05 318.52 817.67 319.85 809.4 321.12 795.71 321.34 785.69 329.75 786.25 352.47 791.73 Z" id="29010560"/>
<path d="M 377.5 727.18 376.65 728.91 372.95 739.22 371.84 743.95 368.54 743.22 367.4 745.9 364.32 750.34 357.08 748.01 356.35 750.89 354.44 754.12 355.17 754.94 354.12 758.27 352.26 759.85 353.06 761.29 352.12 763.36 352 772.61 352.61 773.64 352.6 780.18 351.46 783.02 351.7 787.46 352.47 791.73 329.75 786.25 321.34 785.69 321.66 759.51 322.27 754.87 323.64 750.44 325.72 746.35 329.64 742.07 334.79 737.62 337.42 734.18 340.12 727.93 341.97 718.02 346.75 721.37 351.19 722.94 356.16 723.51 366.87 724.06 377.5 727.18 Z" id="29010590"/>
<path d="M 341.97 718.02 340.12 727.93 337.42 734.18 334.79 737.62 329.64 742.07 325.72 746.35 323.64 750.44 322.27 754.87 321.66 759.51 321.34 785.69 321.12 795.71 319.85 809.4 318.52 817.67 302.89 817.1 298.85 817.35 292.79 818.58 291.85 816.04 294.53 808 292.48 802.32 290.18 798.39 287.06 795.95 285.9 794.01 283.13 793.54 282.18 788.24 281.45 777.79 279.05 776.11 277.37 772.51 274.83 773.1 273.12 772.34 271.1 769.64 272.8 764.23 276.32 762.78 276.49 757.23 278 751.13 282.33 747.54 283.76 740.25 286.09 737.46 288.35 737.39 289.18 733.83 290.74 729.96 289.87 727.3 291.43 724.52 287.67 723.43 285.42 722.17 285.12 720.23 282.54 718.65 283.24 716.8 282.21 713.49 273.62 711.41 275.86 707.42 275.97 705.27 278.17 700.94 282.44 699.25 284.11 700.72 287.57 700.82 294.87 698.55 296.84 700.55 298.26 699.53 300.47 700.64 303.2 698.16 304.53 698.75 307.96 698.27 309.79 694.39 313.18 692.58 324.49 699.08 330.41 703.83 336.46 710.39 340.3 716.26 341.97 718.02 Z" id="29010600"/>
<path d="M 320.37 899.07 324.69 895.27 328.75 890.36 329.09 892.06 332.44 892.37 334.28 891.37 334.16 888.23 337.92 886.87 353.56 880.61 362 877.46 371.01 872.85 381.23 890.34 371.83 897.54 366.04 900.18 364.22 901.48 364.74 904.38 368.69 908.62 365.02 914.21 367.39 915.3 356.01 934.41 352.08 938.01 338.03 944.75 334.29 944.69 331.08 941.74 318.53 927.25 317.8 922.82 314.7 920.49 312.24 916.78 310.75 916.44 308.85 912.91 309.63 910.66 311.48 909.07 318.03 906.43 321.13 903.24 320.37 899.07 Z" id="29010610"/>
<path d="M 408.74 941.88 406.97 939.89 404.74 940.14 402.51 936.94 400.89 937.64 399.31 935.32 395.22 935.04 394.15 933.75 390.18 933.23 384.15 933.83 383.02 932.4 384.27 927.95 391.59 915.27 392.94 915.24 394.3 912.85 396.61 912.53 400.35 910.53 400.39 909.35 410.71 904.22 412.18 902.53 417.36 899.75 422.2 898.93 423.66 897.92 425.44 899.85 429.03 898.15 431.28 899.31 432.53 902.4 438.16 907.14 447.87 914.63 447.87 915.75 445.91 918.2 440.16 922.97 438.43 925.43 434.69 923.04 431.59 925.56 422.4 929.11 408.74 941.88 Z" id="29010640"/>
<path d="M 487.31 892.22 481.71 894.54 475.92 899.52 473.56 902.51 470.83 904.73 464.9 907.47 459.49 908.56 455.77 907.31 453.45 909.58 451.15 909.92 447.87 915.75 447.87 914.63 438.16 907.14 432.53 902.4 431.28 899.31 429.03 898.15 425.44 899.85 423.66 897.92 430.01 894.45 432.67 893.4 450.62 883.94 451.61 882.54 460.45 877.72 463.89 874.64 469.6 867.34 471.38 870.52 477.98 878.95 480.25 883.83 484.43 889.14 486.34 890.25 487.31 892.22 Z" id="29010660"/>
<path d="M 371.01 872.85 367.44 866.49 364.81 861.16 362.49 853.82 361.49 846.97 361.16 840.38 361.47 835.67 363.72 834.43 367.48 837.64 371.07 839.71 374.27 840.76 382.18 842.45 384.88 843.87 387.9 846.53 391.22 844.48 387.69 841.26 392.43 841.67 394.79 840.54 396.7 838.61 398.63 833.85 400.99 830.02 401.16 828.36 403.44 828.55 403.86 824.92 400.63 825.06 400.1 821.91 400.9 819.75 407.64 815.72 409.07 813.23 411.76 813.18 413.37 810.41 411.96 806.63 407.8 806.39 408.97 800.13 414.2 801.14 417.59 805.41 419.04 799.03 422.3 798.16 426.08 795.97 424.43 793.06 426.32 792.43 427.92 790.59 427.3 788.28 425.63 786.68 423.92 782.44 422.55 781.38 420.66 786.02 414.46 779.6 413.58 784.75 418.17 789.82 418.89 791.16 415.19 793.57 411.71 792.48 410.44 793.96 410.45 793.93 410.38 792.09 408.12 789.38 402.5 786.47 402 780.99 398.69 781.96 395.31 780.3 393.91 776.08 393.01 771.42 398.4 770.56 395.63 769.28 398.14 763.25 395.92 760.18 391.71 760.01 389.43 758.74 386.68 752.32 385.91 749.05 386.47 744.94 388.18 741.88 394.88 736.67 398.42 736.56 398.77 735.21 401.16 734.03 404.79 734.45 406.19 736.24 407.74 734.81 410.55 734.58 411.62 736.9 414.95 737.93 417.35 740.03 420.44 739.64 420.6 738.24 424.69 739.52 428.59 739.73 430.63 738.73 433.02 736.29 430.22 733.66 430.16 732.05 427.27 730.59 423.7 730.31 422.76 728.41 424.73 725.81 423.99 722.17 421.88 722.92 419.62 725.35 415.58 725.05 413.9 722.5 411.34 721.85 407.36 715.69 410.12 713.23 412.8 714.9 415.58 717.69 421.68 717.97 423.56 716.07 425.86 716.84 429.04 715.28 431.76 711.89 434.84 712.78 438.44 710.84 439.17 709.42 441.72 709.05 442.95 707.61 446.57 707.55 449.49 709.69 448.34 713.99 445.61 717.22 444.58 720.02 442.38 723.48 444.24 725.44 447.44 726.56 445.48 729.53 449.89 729.16 449.63 731.36 447.5 734.6 444.43 736.06 443.02 737.83 442.77 741.01 447.65 741.32 451.83 738.96 455.04 738.03 459.95 738.87 457.35 746.75 458.45 748.96 462.28 750.54 460.69 755.29 459.24 758.02 461.14 760.06 466.58 763.49 470.45 759.49 470.5 757.94 472.79 754.7 467.64 752.51 468.94 747.93 470.11 746.39 474.64 748.22 478.82 752.07 482.04 748.74 484.93 744.18 486.42 736.82 489.88 732.38 489.24 728.43 487.53 726.79 489.7 722.2 492.68 719.76 493.66 716.21 501.78 717.51 499.09 715.43 493.65 713.98 492.21 712.4 491.5 709.32 489.65 708.4 486.55 709.15 477.21 706.45 475.23 702.62 472.81 696.63 471.14 694.04 469.67 690.16 468 688.1 467.5 683.12 465.88 682.28 471.24 668.81 479.7 660.52 482.16 658.11 486.68 653.7 487.82 653.93 485.66 657.09 483.56 657.39 482.96 659.18 485.14 668.36 486.9 670.07 485.7 671.82 487.83 673.81 489.42 680.1 488.95 686.07 489.97 690.86 492.02 693 493.19 698.51 492.11 701.34 493.84 704.26 498.57 703.83 499.46 704.73 505.29 706.87 507.28 708.18 515.01 711.78 515.53 712.95 522.07 716.86 525.75 717.36 527.1 719.38 531.38 721.11 534.29 720.9 535.39 722.58 538.92 723.74 541.2 725.87 544.2 726.48 546.54 729.58 546.75 733.33 549.67 737.3 553.74 744.18 555.39 749.43 557.12 752.68 557.15 755.42 559.58 756.15 562.53 754.98 566.16 757.54 569.71 757.04 571.61 757.6 574.81 756 580.06 755.28 582.14 756.16 585.79 755.9 587.63 754.58 589.42 754.81 593.4 754.04 596.6 754.11 603.79 752.89 606.54 752.07 611.78 752.59 617.08 751.47 617.56 753.68 620.67 767.9 615.38 768.94 612.66 769.99 610.99 769.76 602.73 771.53 594.85 774.44 594.76 776.09 591.06 777.43 587.86 777.64 582.18 776.77 578.03 777.58 565.6 782.3 559.74 783.07 547.53 785.56 525.1 795.6 520.72 798.58 516.9 803.17 518.04 805.3 514.41 805.8 513.53 808 509.76 810.82 504.95 815.26 505.62 816.07 501.17 820.26 499.59 822.53 491.14 831.92 484.04 843.56 475.97 854.61 469.6 867.34 463.89 874.64 460.45 877.72 451.61 882.54 450.62 883.94 432.67 893.4 430.01 894.45 423.66 897.92 422.2 898.93 417.36 899.75 412.18 902.53 410.71 904.22 400.39 909.35 400.35 910.53 396.61 912.53 394.3 912.85 392.94 915.24 391.59 915.27 384.27 927.95 383.02 932.4 384.15 933.83 390.18 933.23 394.15 933.75 395.22 935.04 399.31 935.32 400.89 937.64 402.51 936.94 404.74 940.14 406.97 939.89 408.74 941.88 402.37 947.84 399.03 945.62 393.06 943.47 385.1 943.29 380.49 944.51 374.66 947.29 371.2 947.24 368.5 950 367.88 953.37 361.51 957.79 352.26 958.85 348.55 956.4 348.13 955.09 345.51 954.14 343.55 954.51 341.67 957.45 335.99 959.02 335.34 957.01 340.78 955.22 340.79 952.49 335.73 952.46 330.87 953.91 322.85 940.15 319.82 936.2 314.05 931.03 310.71 926.12 304.17 919.22 303.42 916.72 305.39 912.11 311.81 906.01 313.32 905.14 317.91 904.08 319.03 903.1 318.79 900.02 320.37 899.07 321.13 903.24 318.03 906.43 311.48 909.07 309.63 910.66 308.85 912.91 310.75 916.44 312.24 916.78 314.7 920.49 317.8 922.82 318.53 927.25 331.08 941.74 334.29 944.69 338.03 944.75 352.08 938.01 356.01 934.41 367.39 915.3 365.02 914.21 368.69 908.62 364.74 904.38 364.22 901.48 366.04 900.18 371.83 897.54 381.23 890.34 371.01 872.85 Z" id="29010522"/>
<path d="M 318.52 817.67 351.06 820.05 352.36 822.62 356.23 827.6 363.72 834.43 361.47 835.67 361.16 840.38 361.49 846.97 356.91 847.76 344.77 848.61 339.17 849.72 318.05 856.35 315.88 853.01 311.96 844.12 311.87 841.16 313.31 840.28 311.51 837.16 311.79 833.45 309.77 829.88 307.33 827.92 302.97 827.36 301 824.95 295.22 821.38 292.79 818.58 298.85 817.35 302.89 817.1 318.52 817.67 Z" id="29010680"/>
<path d="M 355.98 792.04 355.98 791.24 361.45 790.39 373.59 786.5 378.95 785.48 387.35 785.49 393.6 786.82 399.98 789.43 406.12 792.07 409.84 793.7 410.44 793.96 411.71 792.48 415.19 793.57 418.89 791.16 418.17 789.82 413.58 784.75 414.46 779.6 420.66 786.02 422.55 781.38 423.92 782.44 425.63 786.68 427.3 788.28 427.92 790.59 426.32 792.43 424.43 793.06 426.08 795.97 422.3 798.16 419.04 799.03 417.59 805.41 414.2 801.14 408.97 800.13 407.8 806.39 411.96 806.63 413.37 810.41 411.76 813.18 409.07 813.23 407.64 815.72 400.9 819.75 400.1 821.91 400.63 825.06 403.86 824.92 403.44 828.55 401.16 828.36 400.99 830.02 398.63 833.85 396.7 838.61 394.79 840.54 392.43 841.67 387.69 841.26 391.22 844.48 387.9 846.53 384.88 843.87 382.18 842.45 374.27 840.76 371.07 839.71 367.48 837.64 363.72 834.43 356.23 827.6 352.36 822.62 351.06 820.05 350.61 818.94 358.29 819.54 359.76 813.64 359.3 811.42 356.88 809.06 357.63 806.08 355.61 802.17 355.63 799.46 357.32 797.38 358.11 794.39 355.98 792.04 Z" id="29010515"/>
<path d="M 465.88 682.28 467.5 683.12 468 688.1 469.67 690.16 471.14 694.04 472.81 696.63 475.23 702.62 477.21 706.45 486.55 709.15 489.65 708.4 491.5 709.32 492.21 712.4 493.65 713.98 499.09 715.43 501.78 717.51 493.66 716.21 492.68 719.76 489.7 722.2 487.53 726.79 489.24 728.43 489.88 732.38 486.42 736.82 484.93 744.18 482.04 748.74 478.82 752.07 474.64 748.22 470.11 746.39 468.94 747.93 467.64 752.51 472.79 754.7 470.5 757.94 470.45 759.49 466.58 763.49 461.14 760.06 459.24 758.02 460.69 755.29 462.28 750.54 458.45 748.96 457.35 746.75 459.95 738.87 455.04 738.03 451.83 738.96 447.65 741.32 442.77 741.01 443.02 737.83 444.43 736.06 447.5 734.6 449.63 731.36 449.89 729.16 445.48 729.53 447.44 726.56 444.24 725.44 442.38 723.48 444.58 720.02 445.61 717.22 448.34 713.99 449.49 709.69 446.57 707.55 442.95 707.61 441.72 709.05 439.17 709.42 438.44 710.84 434.84 712.78 431.76 711.89 429.04 715.28 425.86 716.84 423.56 716.07 421.68 717.97 415.58 717.69 412.8 714.9 410.12 713.23 407.36 715.69 411.34 721.85 413.9 722.5 415.58 725.05 419.62 725.35 421.88 722.92 423.99 722.17 424.73 725.81 422.76 728.41 423.7 730.31 427.27 730.59 430.16 732.05 430.22 733.66 433.02 736.29 430.63 738.73 428.59 739.73 424.69 739.52 420.6 738.24 420.44 739.64 417.35 740.03 414.95 737.93 411.62 736.9 410.55 734.58 407.74 734.81 406.19 736.24 404.79 734.45 401.16 734.03 398.77 735.21 398.42 736.56 394.88 736.67 395.62 735.97 391.81 732.83 388.44 730.84 377.5 727.18 366.87 724.06 356.16 723.51 351.19 722.94 346.75 721.37 341.97 718.02 340.3 716.26 336.46 710.39 330.41 703.83 324.49 699.08 313.18 692.58 312.89 689.74 313.98 688.8 314.25 683.99 312.3 681.85 312.9 679.21 314.3 678.52 318.7 680.23 319.01 682.35 324.64 687.08 326.51 686.32 329.35 686.7 331.97 684.07 336.27 685.68 337.86 685.37 341.72 687.12 343.86 685.88 350.34 686.1 350.78 684.02 353.87 686.99 358.18 685.63 358.33 683.77 360.59 683.02 362.76 681.12 364.72 683.64 370.23 685.86 373.97 681.3 374.35 678.8 381.76 677.72 383.92 676.15 383.34 673.13 384.23 670.81 384.25 667.55 386.42 665.49 392.31 664.18 394.85 663.13 396.95 663.61 401.94 663.57 404.61 664.26 413.04 667.84 417.79 668.66 421.86 668.83 424.54 668.27 428.65 669.38 431.76 672.44 434.67 677.07 436.36 677.06 439.81 674.84 443.75 671.65 448.88 672.42 450.7 674.19 454.17 681.75 458.77 681.53 465.88 682.28 Z" id="29010512"/>
<path d="M 511.43 886.11 506.76 887.59 504.19 887.15 502.42 888.96 496.69 892.08 494.82 892.32 491.81 891.39 487.31 892.22 486.34 890.25 484.43 889.14 480.25 883.83 477.98 878.95 471.38 870.52 469.6 867.34 475.97 854.61 484.04 843.56 484.28 843.27 494.61 851.34 496.17 853.82 500.31 855.07 503.17 864.64 504.21 865.23 506.21 868.83 506.3 871.44 508.9 873.21 507.27 874.97 509.38 879.23 509.78 884.29 511.43 886.11 Z" id="29010710"/>
<path d="M 371.01 872.85 362 877.46 353.56 880.61 337.92 886.87 334.16 888.23 334.28 891.37 332.44 892.37 329.09 892.06 328.75 890.36 326.99 884.62 327.47 882.44 326.98 879.74 324.99 877.57 325.51 875.31 323.81 872.48 323.08 869.12 320.27 869.16 318.81 868.28 315.62 863.74 316.36 859.06 318.05 856.35 339.17 849.72 344.77 848.61 356.91 847.76 361.49 846.97 362.49 853.82 364.81 861.16 367.44 866.49 371.01 872.85 Z" id="29010521"/>
<path d="M 410.44 793.96 409.84 793.7 406.12 792.07 399.98 789.43 393.6 786.82 387.35 785.49 378.95 785.48 373.59 786.5 361.45 790.39 355.98 791.24 355.98 792.04 352.47 791.73 351.7 787.46 351.46 783.02 352.6 780.18 352.61 773.64 352 772.61 352.12 763.36 353.06 761.29 352.26 759.85 354.12 758.27 355.17 754.94 354.44 754.12 356.35 750.89 357.08 748.01 364.32 750.34 367.4 745.9 368.54 743.22 371.84 743.95 372.95 739.22 376.65 728.91 377.5 727.18 388.44 730.84 391.81 732.83 395.62 735.97 394.88 736.67 388.18 741.88 386.47 744.94 385.91 749.05 386.68 752.32 389.43 758.74 391.71 760.01 395.92 760.18 398.14 763.25 395.63 769.28 398.4 770.56 393.01 771.42 393.91 776.08 395.31 780.3 398.69 781.96 402 780.99 402.5 786.47 408.12 789.38 410.38 792.09 410.45 793.93 410.44 793.96 Z" id="29010514"/>
</g>
</svg>