<?xml version="1.0"?>
<svg xmlns="http://www.w3.org/2000/svg" version="1.2" baseProfile="tiny" width="800" height="542" viewBox="0 0 800 542" stroke-linecap="round" stroke-linejoin="round">
<g id="dong">
<path d="M 376.5 116.86 364.91 137.31 362.81 146.93 371.4 165.77 381.44 179.64 384.91 191.72 382.44 207.12 343.12 200.6 343.4 215.5 314.74 215.32 307.84 218.7 303.24 233.87 260.31 233.89 210.05 258.2 218.24 275.89 214.75 285.7 178.67 204.29 180.88 194.06 204.25 183.11 205.81 171.83 224.62 162.44 241.45 147.14 260.25 149.68 263.02 158.39 277.91 155.09 257.13 144.19 266.56 140.36 280.15 142.88 297.14 141.88 302.21 133.32 314.97 137.12 324.4 132.11 327.16 101.43 339.27 112.27 376.5 116.86 Z" id="31013700"/>
<path d="M 122.38 53.52 131.97 57.46 154.63 104.59 194.01 85.68 231.03 69.16 246.53 63.56 260.91 61.37 273.72 56.3 295.22 81.41 327.16 101.43 324.4 132.11 314.97 137.12 302.21 133.32 297.14 141.88 280.15 142.88 266.56 140.36 257.13 144.19 277.91 155.09 263.02 158.39 260.25 149.68 241.45 147.14 224.62 162.44 205.81 171.83 204.25 183.11 180.88 194.06 178.67 204.29 214.75 285.7 210.84 287.46 199.79 265.77 186.82 236.13 126.19 268.46 117.21 276.46 99.87 270.97 94.41 264 91.39 247.98 99.02 234.69 109.52 204.71 106.75 185.8 112.32 171.81 117.53 166.03 111.73 156.4 83.32 153.26 72.79 139.44 47.01 143.92 13.39 100.33 1 75.17 73.61 40.18 87 36.14 108.13 67.21 122.38 53.52 Z" id="31013710"/>
<path d="M 555.7 64.61 559.27 66.11 561.86 84.64 543.42 136.39 516.05 173.14 508.24 187.27 503.46 201.58 501.91 226.3 485.99 224.86 486.66 236.57 495.08 254.47 496.49 266.63 495.1 273.35 484.58 292.32 482.85 309.41 479.27 312.8 468.93 324.57 454.42 308.78 448.66 284.73 448.91 268.86 435.61 277.1 422.52 276.13 426.51 262.53 424.33 238.88 412.68 237.52 401.03 240.73 392.31 234.47 386.03 227.57 381.47 214.84 382.44 207.12 384.91 191.72 381.44 179.64 371.4 165.77 362.81 146.93 364.91 137.31 376.5 116.86 378.3 112.53 395.65 103.19 414.8 87.47 422.98 71.97 440.79 64.34 456.4 71.65 471.11 86.02 477.79 85.87 484.97 94.37 495.11 89.68 504.08 93.32 521.39 85.42 532.26 72.28 548.46 59.7 555.7 64.61 Z" id="31013720"/>
<path d="M 636.7 221.58 640.35 224.96 612.47 223.24 597.53 229.49 579.51 245.71 524.05 264.98 496.49 266.63 495.08 254.47 486.66 236.57 485.99 224.86 501.91 226.3 503.46 201.58 508.24 187.27 516.05 173.14 543.42 136.39 561.86 84.64 559.27 66.11 555.7 64.61 557.42 62.05 561.02 62.9 608.71 168.27 612.89 166.56 629.52 216.97 636.7 221.58 Z" id="31013530"/>
<path d="M 725.76 111.24 717.5 112.69 711.47 122.78 703.63 129.21 689.46 132.22 689.3 141.23 654.75 152.31 657.07 155.42 644 190.49 641.07 213.49 636.7 221.58 629.52 216.97 612.89 166.56 608.71 168.27 561.02 62.9 557.42 62.05 572.13 35.33 582.7 28.8 604.29 24.36 635.47 14.37 650.03 13.14 663.88 1.93 684.02 1 699.7 8.39 710.62 7.1 720.47 12.58 741.93 30.95 746.48 37.39 739.28 43.93 733.18 28.77 722.22 25.96 726.82 39.36 712.26 48.33 736.75 51.42 748.42 59.45 762.27 74.34 725.76 111.24 Z" id="31013540"/>
<path d="M 771.28 119.52 760.87 127.92 753.52 137.82 757.11 150.94 754.29 157.67 765.12 173.71 765.38 194.67 774.85 202.83 777.09 248.37 778.83 266.05 783.06 273.47 799 282.66 743.13 262.27 729.88 254.81 697.2 241.64 662.28 228.86 640.35 224.96 636.7 221.58 641.07 213.49 644 190.49 657.07 155.42 654.75 152.31 689.3 141.23 689.46 132.22 703.63 129.21 711.47 122.78 717.5 112.69 725.76 111.24 718.47 129.84 717.56 145.73 734.23 141.46 738.64 125.4 746.74 115.93 755.72 110.81 772.9 112.12 771.28 119.52 Z" id="31013550"/>
<path d="M 738.16 412.19 739.74 414.6 713.74 491.2 711.52 490.57 694.39 541 621.94 516.6 637.54 465.83 507.47 424.05 507.58 420.97 510.29 417.47 536.74 352.59 494.08 339.66 487.87 337.84 482.36 336.23 494.94 316.04 479.27 312.8 482.85 309.41 484.58 292.32 495.1 273.35 496.49 266.63 524.05 264.98 579.51 245.71 597.53 229.49 612.47 223.24 640.35 224.96 662.28 228.86 697.2 241.64 729.88 254.81 743.13 262.27 739.3 267.79 725.77 273.41 714.59 274.2 701.09 271.09 695.85 287.42 717.46 309.5 696.8 320.69 714.01 351.51 662.41 379.68 653.44 387.74 738.16 412.19 Z" id="31013560"/>
<path d="M 507.58 420.97 489.29 422.52 473.93 426.79 465.52 425.57 447.08 415.57 437.39 432.64 426.65 432.27 420.48 421.71 426.65 408.37 408.65 396.08 380.38 377.48 373 364.14 389.18 357.71 396.6 342.41 399.89 327.61 405.54 321.85 399.57 299.48 409.31 265.4 408.43 249.93 401.03 240.73 412.68 237.52 424.33 238.88 426.51 262.53 422.52 276.13 435.61 277.1 448.91 268.86 448.66 284.73 454.42 308.78 468.93 324.57 479.27 312.8 494.94 316.04 482.36 336.23 487.87 337.84 494.08 339.66 536.74 352.59 510.29 417.47 507.58 420.97 Z" id="31013670"/>
<path d="M 380.38 377.48 379.22 386.95 361.21 413.04 354.29 415.18 347.87 433.24 293.44 426.24 280.99 435.02 279.38 434.62 272.21 425.47 266.78 426.56 260.29 412.53 248.7 394.22 240.23 349.88 245.06 349.35 256.74 352.1 271.5 339.43 312.42 348.73 318.17 352.52 356.6 333.17 353.29 326.43 373.19 303.4 369.74 293.98 357.31 293.08 360.36 274.83 361 251 383.92 253.17 390.63 243.3 392.31 234.47 401.03 240.73 408.43 249.93 409.31 265.4 399.57 299.48 405.54 321.85 399.89 327.61 396.6 342.41 389.18 357.71 373 364.14 380.38 377.48 Z" id="31013680"/>
<path d="M 382.44 207.12 381.47 214.84 386.03 227.57 392.31 234.47 390.63 243.3 383.92 253.17 361 251 360.36 274.83 357.31 293.08 369.74 293.98 373.19 303.4 353.29 326.43 356.6 333.17 318.17 352.52 312.42 348.73 271.5 339.43 256.74 352.1 245.06 349.35 236.88 345.94 210.84 287.46 214.75 285.7 218.24 275.89 210.05 258.2 260.31 233.89 303.24 233.87 307.84 218.7 314.74 215.32 343.4 215.5 343.12 200.6 382.44 207.12 Z" id="31013690"/>
</g>
</svg>