<?xml version="1.0"?>
<svg xmlns="http://www.w3.org/2000/svg" version="1.2" baseProfile="tiny" width="800" height="1567" viewBox="0 0 800 1567" stroke-linecap="round" stroke-linejoin="round">
<g id="dong">
<path d="M 340.55 1322.24 324.74 1342.84 317.36 1375.18 328.68 1422.96 313.06 1427.19 274.36 1425.97 277.23 1462.2 274.94 1507.03 267.6 1512.61 239.52 1518.16 219.69 1531.33 201.08 1538.2 192.43 1538.65 192.38 1489.17 185.79 1483.77 168.31 1482.92 160.52 1469.57 162.59 1439.29 143.18 1431.27 113.85 1430.14 81.52 1435.81 71.8 1439.35 61.43 1432.49 64.1 1410.69 68.2 1402.33 77.91 1402.36 88.22 1390.76 82.56 1380.22 95.22 1367.25 98.21 1351.69 110.73 1339.64 119.87 1339.33 117.53 1324.7 133.91 1329.37 199.28 1323.11 288.96 1316.58 337.72 1319.42 340.55 1322.24 Z" id="31014680"/>
<path d="M 448.75 1348.32 462.91 1349.22 474.61 1347.9 476.58 1361.5 471.38 1382.62 471.79 1396.34 482.32 1395.86 483.1 1410.38 458.4 1411.42 450.21 1425.39 432.91 1431.93 410.99 1455.07 389.44 1468.44 384.52 1487.65 378.78 1497.9 363.17 1515.2 330.32 1540.02 284.8 1566 282.93 1560.55 299.84 1547.6 295.84 1526.91 267.6 1512.61 274.94 1507.03 277.23 1462.2 274.36 1425.97 313.06 1427.19 328.68 1422.96 317.36 1375.18 324.74 1342.84 340.55 1322.24 353.01 1326.41 359.69 1337.39 386.68 1338.59 405.05 1344.21 430.72 1345.28 448.75 1348.32 Z" id="31014670"/>
<path d="M 386.05 966.33 376.63 974.06 371.44 993.7 363.91 1003.81 357.7 1000.86 349.73 1013.37 380.28 1033.36 390.1 1027.7 405.63 997.53 394.17 1021.62 392.56 1035.74 398.61 1068.59 391.64 1090.4 390.12 1105.66 411.95 1114.87 427.14 1112.86 437.35 1119.18 439.43 1127.13 452.62 1131.22 409.16 1187.55 376.25 1202.83 363.29 1198.09 351.7 1200.63 361.89 1220.03 341.66 1247.47 339.86 1253.58 325 1256.94 311.17 1256.17 290.99 1264.17 255.91 1250.92 246.16 1256.29 243.68 1270.65 217.7 1267.24 223.36 1244.28 202.23 1233.01 186.66 1220.37 180.11 1231.93 162.65 1226.82 158.46 1231.74 140.9 1216.42 137.78 1222.15 127.5 1213.85 113.02 1191.88 108.36 1172.22 99.47 1167.2 86.34 1156.91 64.81 1154.8 52.54 1150.66 61.1 1125.49 81.54 1065.34 84.19 1066.1 115.22 974.72 113.34 971.84 174.16 988.02 251.69 1012.2 258.59 1011.02 261.19 990.66 269.27 969.51 277.34 967.42 306.34 985.85 341.66 966.23 359.73 959.43 366.28 952.73 386.05 966.33 Z" id="31014530"/>
<path d="M 334.27 942.84 320.28 937.69 238.41 912.98 236.92 913.58 146.34 881.63 154.12 864.12 219.1 828.48 231.46 831.61 258.41 830.47 290.05 836.91 318.3 848.66 363.43 869.62 362.26 877.38 349.63 897.65 364.75 916.56 353.97 929.35 334.27 942.84 Z" id="31014520"/>
<path d="M 185.95 817.34 219.1 828.48 154.12 864.12 146.34 881.63 113.34 971.84 12.22 942.68 22.93 933.07 84.52 899.46 63.98 862.71 88.63 849.36 62.84 823.02 69.09 803.54 85.21 807.25 98.54 806.31 114.69 799.6 119.26 793.02 185.95 817.34 Z" id="31014510"/>
<path d="M 386.05 966.33 406.1 983.09 405.63 997.53 390.1 1027.7 380.28 1033.36 349.73 1013.37 357.7 1000.86 363.91 1003.81 371.44 993.7 376.63 974.06 386.05 966.33 Z M 334.27 942.84 366.28 952.73 359.73 959.43 341.66 966.23 306.34 985.85 277.34 967.42 269.27 969.51 261.19 990.66 258.59 1011.02 251.69 1012.2 174.16 988.02 113.34 971.84 146.34 881.63 236.92 913.58 238.41 912.98 320.28 937.69 334.27 942.84 Z" fill-rule="evenodd" id="31014540"/>
<path d="M 458.87 1096.02 446.78 1104.07 439 1103.67 427.14 1112.86 411.95 1114.87 390.12 1105.66 391.64 1090.4 398.61 1068.59 392.56 1035.74 394.17 1021.62 405.63 997.53 406.1 983.09 386.05 966.33 366.28 952.73 334.27 942.84 353.97 929.35 364.75 916.56 349.63 897.65 362.26 877.38 363.43 869.62 318.3 848.66 290.05 836.91 258.41 830.47 231.46 831.61 219.1 828.48 185.95 817.34 166.92 806.38 161.88 797.52 159.8 776.44 157.13 722.11 145.83 712.38 145.51 687.38 132.59 668.24 135.95 660.22 131.67 644.57 140.44 632.76 152.86 622.74 169.76 618.36 183.49 591.99 196.73 591.93 209.22 612.98 225.19 620.28 234.28 633.89 239.49 650.72 254.6 667.36 247.71 685.33 266.5 700.62 286.5 682.07 297.17 665.86 334.85 625.5 366.93 656.23 377.3 676.47 378.26 707.37 389.39 737.47 391.12 762.71 396.01 783.19 395.98 795.19 424.25 805.84 447 806.22 450.04 824.04 464.52 825.15 473.96 796.46 484.3 815.16 494.62 811.42 499.32 784.22 503.43 784.23 497.1 811.7 483.48 818.15 480.38 833.09 465.11 845.42 452.16 882.79 443.43 900.36 511 915.31 511.79 925.88 521.11 931.18 533.85 949 536.86 954.34 532.6 974.96 537.52 992.07 533.34 1014.91 521.53 1021.04 516.85 1031.49 499.18 1046.45 498.21 1065.42 458.87 1096.02 Z" id="31014600"/>
<path d="M 393.7 175.09 384.28 194.83 398.7 206.83 396.3 221.25 388.75 236.42 370.67 256.38 360.32 282.84 376.04 292.35 389.54 296.03 397.54 304.22 399.95 327.32 397.09 342.74 385.41 372.67 394.18 388.58 389.48 425.32 416.48 431.25 457.16 511.27 434.83 522.7 420.62 532.67 334.85 625.5 297.17 665.86 286.5 682.07 266.5 700.62 247.71 685.33 254.6 667.36 239.49 650.72 234.28 633.89 225.19 620.28 209.22 612.98 196.73 591.93 183.49 591.99 169.76 618.36 152.86 622.74 154.8 613.91 134.29 612.36 123.57 618.46 113.91 629.76 108.65 648.91 88.75 654 89.84 635.06 98.53 612.87 142.11 568.85 125.58 551.09 111.65 541.51 82.43 537.83 99.81 527.13 94.32 511.14 107.4 514.49 114.68 532.58 123.26 524.78 117.84 517.1 92.22 495.18 80.47 488.65 67.43 490.19 48.72 481.37 24.69 482.48 40.7 468.05 21.88 428.22 23.04 413.92 9.56 400.49 18.63 396.86 17.52 387.94 3.71 358.04 8.24 345.47 9.59 317.19 13.82 274.32 10.36 266.81 12.85 252.31 8.94 239.17 12.94 228.83 7.69 222.89 4.53 201.56 1 198.36 11.35 175.76 9.01 162.58 19.57 150.08 27.55 128.48 49.75 113.51 59.7 101.79 77.7 92.14 84.82 81.08 90.37 64.33 88.8 36.9 91.77 33.18 90.98 9.06 102.78 1 111.71 2.63 130.69 27.22 139.54 34.64 170.2 48.31 183.86 51.43 191.46 66.41 228.11 77.98 232.48 84.9 246.2 90.3 278.74 89.42 300.22 83.74 322.48 95.72 352.76 94.34 354.68 116.47 362.26 122.3 369.23 150.47 382.36 166.17 393.7 175.09 Z" id="31014620"/>
<path d="M 799 396.63 790.8 415.45 789.53 431.43 796.43 452.08 792.69 467.11 793.15 481.58 780.34 485.27 778.99 503.03 782.01 519.73 776.26 524.34 776.94 542.22 783.94 561.85 790.29 567.38 788.47 578.22 794.77 595.28 768.17 617.08 752.92 616.12 743.02 627.46 726.52 616.56 701.13 623.24 690.67 629.54 684.03 649.46 664.57 648.44 659.79 653.97 642.97 651.03 601.57 669.41 594.44 676.76 597.52 689.51 570.08 702.02 559.3 700.48 541.09 707.18 531.05 726.55 522.6 735.24 511.19 738.5 518.62 764.28 517.06 771.87 503.43 784.23 499.32 784.22 494.62 811.42 484.3 815.16 473.96 796.46 464.52 825.15 450.04 824.04 447 806.22 424.25 805.84 395.98 795.19 396.01 783.19 391.12 762.71 389.39 737.47 378.26 707.37 377.3 676.47 366.93 656.23 334.85 625.5 420.62 532.67 434.83 522.7 457.16 511.27 416.48 431.25 511.74 452.09 653.42 484.39 660 452.17 673.27 446.17 680.07 434.57 700.33 417.08 703.08 407.51 712.19 404.94 729.47 412.75 738.6 404.96 746.18 390.21 770.13 402.71 787.63 404.33 799 396.63 Z" id="31014630"/>
<path d="M 733.18 891.33 742.06 910.78 743.94 941.28 752.12 979.26 727.91 1019.76 694.03 1028.17 676.18 1066.08 678.75 1090.68 705.66 1089.27 716.74 1085.42 719.83 1100.43 730.74 1125.6 716.12 1144.16 716.1 1152.43 705.15 1150.97 674.66 1161.81 674.1 1170.19 666.09 1183.27 606.6 1138.58 598.35 1134.82 568.98 1112 553.52 1108.16 533.57 1114.78 516.32 1115.75 491.88 1112.69 471.47 1116.51 464.31 1110.86 458.87 1096.02 498.21 1065.42 499.18 1046.45 516.85 1031.49 521.53 1021.04 533.34 1014.91 537.52 992.07 532.6 974.96 536.86 954.34 533.85 949 550.78 953.1 557.89 958.8 586.03 955.59 598.75 963.13 627.91 965.17 625.71 944.51 644.02 943.15 678.46 932.71 698.58 921.71 733.18 891.33 Z" id="31014640"/>
<path d="M 448.75 1348.32 430.72 1345.28 405.05 1344.21 386.68 1338.59 359.69 1337.39 353.01 1326.41 340.55 1322.24 337.72 1319.42 288.96 1316.58 199.28 1323.11 133.91 1329.37 117.53 1324.7 119.87 1339.33 110.73 1339.64 114.28 1324.18 94.95 1295.31 102.92 1280.68 122.16 1272.31 127.24 1258.85 123.66 1239.77 137.78 1222.15 140.9 1216.42 158.46 1231.74 162.65 1226.82 180.11 1231.93 186.66 1220.37 202.23 1233.01 223.36 1244.28 217.7 1267.24 243.68 1270.65 246.16 1256.29 255.91 1250.92 290.99 1264.17 311.17 1256.17 325 1256.94 339.86 1253.58 341.66 1247.47 361.89 1220.03 351.7 1200.63 363.29 1198.09 376.25 1202.83 409.16 1187.55 399.95 1199.5 498.99 1274.81 458.72 1326.22 448.75 1348.32 Z" id="31014650"/>
<path d="M 716.1 1152.43 694.89 1164.52 696.46 1168.69 690.06 1192.75 702.6 1210.37 692.62 1223.4 700.41 1236.88 689.02 1261.3 680.21 1267.24 666.36 1284.28 643.24 1282.71 609.44 1283.89 580.3 1291.16 572.17 1290.73 535.93 1301.11 516.2 1309.13 510.48 1318.98 496.71 1331.86 476.5 1343.97 462.91 1349.22 448.75 1348.32 458.72 1326.22 498.99 1274.81 399.95 1199.5 409.16 1187.55 452.62 1131.22 439.43 1127.13 437.35 1119.18 427.14 1112.86 439 1103.67 446.78 1104.07 458.87 1096.02 464.31 1110.86 471.47 1116.51 491.88 1112.69 516.32 1115.75 533.57 1114.78 553.52 1108.16 568.98 1112 598.35 1134.82 606.6 1138.58 666.09 1183.27 674.1 1170.19 674.66 1161.81 705.15 1150.97 716.1 1152.43 Z" id="31014660"/>
</g>
</svg>