<?xml version="1.0"?>
<svg xmlns="http://www.w3.org/2000/svg" version="1.2" baseProfile="tiny" width="800" height="579" viewBox="0 0 800 579" stroke-linecap="round" stroke-linejoin="round">
<g id="dong">
<path d="M 671.33 87.44 674.26 92.23 678.14 105.81 672.99 113.44 673.01 129.82 677.25 129.57 677.82 145.86 673.07 153.43 667.37 160.17 670.16 171.28 668.66 179.64 663.53 178.05 657.85 184.44 638.59 167.13 639.97 162.07 642.18 136.86 645.97 131.65 648.34 129.29 644.88 124.94 647.58 119.31 645.23 111.36 648.51 108.69 650.35 101.89 647.42 97.91 655.98 89.16 665.82 86.07 671.33 87.44 Z" id="31021610"/>
<path d="M 446.11 119.99 448.15 134.57 453.19 149.89 454.86 153.63 460.5 158.46 461.85 165.72 458.25 172.53 455.82 187.68 452.37 200.26 451.94 209.1 449.72 210.56 448.33 222.46 449.45 228.8 455.71 241.64 464.16 254.01 464.74 258.75 464.67 265.28 456.33 263.35 444.77 253.81 440.04 254.68 428.81 253.64 422.11 251.4 417.9 247.5 411.29 245.21 400.39 248.08 391.04 253.77 384.3 254.41 377.4 253.49 369 247.09 354.23 252.02 349.34 256.33 333.29 256.33 328.17 258.66 316.28 258.53 310.55 255.54 298.25 246.69 292.74 227.12 290.05 222.3 281.22 221.38 273.65 222.52 275.91 218.73 277.14 204.93 278.75 202.28 276.87 194.62 284.07 183.18 284.52 177.81 288.57 174.99 292.45 163.71 297.91 158.62 302.91 157.37 307.72 140.61 317.69 136.83 335.56 136.99 340.64 138.11 344.45 129.66 350.53 126.65 353.56 123.06 354.17 117.63 361.93 112.03 369.33 109.59 369.81 105.82 374.29 101.34 371.68 93.8 379.19 93.76 384.28 91.93 389.23 93.73 394.27 93.03 402.01 96.02 404.57 95.5 416.01 97.69 422.86 101.47 424.62 109.5 428.68 113.49 440.17 120.35 446.11 119.99 Z" id="31021640"/>
<path d="M 464.67 265.28 462.12 283.42 456.34 300.19 455.6 315.5 453.76 326.83 456.6 334.28 452.95 343.23 451.85 352.65 452.94 361.15 450.19 363.75 449.74 378.33 448.7 387.14 447 387.16 436.33 380.79 430.87 375.76 432.39 371.15 430.5 366.08 432.93 357.73 432.81 352.54 426.71 351.25 423.03 348.38 422.27 343.35 416.66 346.17 408.03 344.14 400.98 339.33 395.8 339.75 392.15 346.67 383.18 350.47 375.28 351.04 367.95 349.03 360.76 351.22 358.99 357.83 359.17 366.2 361.8 375.05 361.59 383.42 352.77 384.3 348.3 383.29 344.4 384.94 335.98 384.99 329.34 387.43 326.88 390.63 319.01 392.45 312.27 398.9 310.82 405.83 301.72 413.84 292.62 413.49 288.8 420.59 281.42 420.73 278.34 423.7 272.33 417.28 269.95 410.61 266.04 409.58 255.67 403.01 252.24 399.57 248.62 391.65 241.71 382.48 242.23 378.11 237.83 374.55 234.63 365.38 224.66 365.38 215.54 375.03 208.08 381.68 203.21 384.13 199.84 381.95 194.12 383.19 185.55 383.13 182.27 387.16 176.79 388.92 161.99 399.53 158.76 404.09 146.35 417.77 139.84 429.46 134.37 436.28 127.8 438.93 119.19 444.96 102.69 448.28 94.54 455.65 89.85 454.84 83.41 458.48 76.98 456.45 62.27 457.38 54.58 454.8 42.73 456.5 31.12 454.14 23.01 452.39 15.98 449.18 8.21 441.81 2.85 440.83 1.24 434.57 3.07 426.42 1.75 423.03 3.92 413.92 7.77 410.49 3.47 402.51 5.61 390.13 5.23 384.53 1 377.67 1.08 369.46 2.97 362.25 2.11 355.52 2.67 346.95 5.15 344.8 13.33 343.56 18.54 339.35 23.58 338.2 32.08 327.62 34.18 328.08 47.28 331.28 57.84 339.24 62.64 345.63 71.62 340.9 82.66 338.02 85.99 336.16 97.62 333.18 108.84 336.46 115.85 333.36 128.72 335.09 135.07 339.83 142.75 340.78 144.41 336.71 148.9 332.26 158.09 328.17 162.21 330 168.54 326.44 173.59 331.81 175.5 327.13 172.07 318.01 172.67 311.34 177.34 302.6 176.85 289.61 186.24 285.56 191.09 278.12 190.6 275.28 180.2 267.35 181.41 263.44 177.92 247.52 180.96 242.03 186.03 243.85 196.47 242.34 199.36 244.4 203.91 242.93 211.9 246.7 228.58 251 234.98 250.49 241.98 247.06 250.11 233.39 250.44 229.64 261.35 225.94 265.61 227.09 273.65 222.52 281.22 221.38 290.05 222.3 292.74 227.12 298.25 246.69 310.55 255.54 316.28 258.53 328.17 258.66 333.29 256.33 349.34 256.33 354.23 252.02 369 247.09 377.4 253.49 384.3 254.41 391.04 253.77 400.39 248.08 411.29 245.21 417.9 247.5 422.11 251.4 428.81 253.64 440.04 254.68 444.77 253.81 456.33 263.35 464.67 265.28 Z" id="31021650"/>
<path d="M 448.7 387.14 446.95 392.52 451.09 397.94 458.67 396.83 462.29 402.17 463.47 414.48 458.74 432.56 460.21 439.53 451.2 445.44 452.55 460.68 449.9 467.28 453.62 471.27 454.81 477.85 450.95 481.08 445.3 488.66 433.17 495.5 414.61 501.74 402.33 501.23 388.55 503.57 386.07 498.87 377.94 493.25 369.08 492.5 360.88 483.81 358.35 486.88 347.94 490.63 345.52 497.58 346.86 501.81 343.39 504.38 334.68 507.2 329.97 507.43 323.47 503.17 315.29 504.26 304.35 514.2 304.97 518.12 301.78 525.66 297.75 524.46 281.55 533.61 279.42 537.8 280.24 547.04 279.11 551.58 265.79 556.62 258.91 567.07 254 571.49 253.37 576.95 248.64 578 245.16 574.66 240.27 574.75 235.19 570.08 228.99 568.37 224.61 564.77 217.57 562.5 212.89 564.12 207.38 563.67 203.99 567.95 195.81 573.01 186.87 570.33 178.83 572.57 167.06 572.77 158.94 569.7 155.78 571.13 145.84 568.35 143.02 570.42 137.3 566.6 128.15 567.4 111.45 556.6 106.13 549.1 94.73 545.12 86.35 538.26 79.23 539.76 74.12 536.75 69.61 536.97 53.91 530.32 20.22 530.41 9.82 527.48 9.35 522.13 6.87 517.44 6.87 511.01 3.99 502.17 6.94 494.66 19.93 484.68 25.76 478.32 29.98 476.51 31.65 471.82 30.51 465.12 32.73 460.03 31.12 454.14 42.73 456.5 54.58 454.8 62.27 457.38 76.98 456.45 83.41 458.48 89.85 454.84 94.54 455.65 102.69 448.28 119.19 444.96 127.8 438.93 134.37 436.28 139.84 429.46 146.35 417.77 158.76 404.09 161.99 399.53 176.79 388.92 182.27 387.16 185.55 383.13 194.12 383.19 199.84 381.95 203.21 384.13 208.08 381.68 215.54 375.03 224.66 365.38 234.63 365.38 237.83 374.55 242.23 378.11 241.71 382.48 248.62 391.65 252.24 399.57 255.67 403.01 266.04 409.58 269.95 410.61 272.33 417.28 278.34 423.7 281.42 420.73 288.8 420.59 292.62 413.49 301.72 413.84 310.82 405.83 312.27 398.9 319.01 392.45 326.88 390.63 329.34 387.43 335.98 384.99 344.4 384.94 348.3 383.29 352.77 384.3 361.59 383.42 361.8 375.05 359.17 366.2 358.99 357.83 360.76 351.22 367.95 349.03 375.28 351.04 383.18 350.47 392.15 346.67 395.8 339.75 400.98 339.33 408.03 344.14 416.66 346.17 422.27 343.35 423.03 348.38 426.71 351.25 432.81 352.54 432.93 357.73 430.5 366.08 432.39 371.15 430.87 375.76 436.33 380.79 447 387.16 448.7 387.14 Z" id="31021660"/>
<path d="M 639.82 134.06 634.74 137.06 629.43 136 625.22 138.73 612.83 139.57 604.29 144.71 597.59 144.76 591.55 148.17 586.87 153.96 578.4 155.27 568.36 160.88 563.2 159.68 554.45 163.57 551.76 167.37 540.04 176.9 537.67 180.42 535.27 185.08 528.59 192.11 519.4 192.66 512.9 191.19 508 191.53 500.05 188.85 496.31 182.48 488.45 177.24 483.45 167.65 483.23 164.89 477.71 159.23 480.51 148.14 468.45 149.03 463.91 151.63 453.19 149.89 448.15 134.57 446.11 119.99 446.64 98.84 449.51 93.51 465.08 83.88 472.99 77.33 475.47 71.63 489.37 61.34 494.34 55.8 495.24 51.57 495.24 38.29 502.62 44.75 504.01 45.7 504.81 47.53 513.41 49.33 529.41 56.47 580.35 83.24 622.94 112.75 632.75 123.32 634.03 126.82 639.82 134.06 Z" id="31021670"/>
<path d="M 603.77 6.08 623.53 7.13 663.47 8.54 669.39 9.02 668.77 22.07 678.31 23.55 682.22 25.89 693.04 28.13 702.53 26.3 717.4 28.73 722.29 28.65 733.91 33.33 739.85 39.57 729.76 43.86 724.4 49.82 712.84 57.4 708.21 64.36 703.97 68.43 695.02 72.12 691.76 77.78 687.5 79.13 682.9 84.45 671.33 87.44 665.82 86.07 655.98 89.16 647.42 97.91 650.35 101.89 648.51 108.69 645.23 111.36 647.58 119.31 644.88 124.94 648.34 129.29 645.97 131.65 639.82 134.06 634.03 126.82 632.75 123.32 622.94 112.75 580.35 83.24 529.41 56.47 513.41 49.33 504.81 47.53 504.01 45.7 513.42 47.41 519.76 50.6 526.91 52.23 540.27 47.34 537.89 42.43 540.11 38.34 535.41 36.91 540.5 23.97 539.04 16.61 539.54 3.53 540.54 1 556.02 3.85 603.77 6.08 Z" id="31021680"/>
<path d="M 586.87 153.96 585.55 163.54 587.53 171.24 610.36 207.95 615.3 211.7 611.12 217.8 605.92 222.8 598.36 227.76 587.56 231.85 568.17 178.82 566.52 172.99 568.36 160.88 578.4 155.27 586.87 153.96 Z" id="31021570"/>
<path d="M 610.88 261.78 610.13 261 609.77 258.18 598.36 227.76 605.92 222.8 611.12 217.8 615.3 211.7 646.88 232.29 656.05 239.2 648.26 243.67 634.11 249.61 617.39 257.36 610.88 261.78 Z" id="31021530"/>
<path d="M 560.27 242.03 534.54 251.64 515.29 199.6 512.9 191.19 519.4 192.66 528.59 192.11 535.27 185.08 537.67 180.42 540.38 188.94 560.27 242.03 Z" id="31021560"/>
<path d="M 551.15 296.3 516.98 305.44 517.48 306.62 501.85 310.26 455.6 315.5 456.34 300.19 462.12 283.42 464.67 265.28 464.74 258.75 469.3 257.46 477.26 257.94 483.08 262.95 491.29 261.84 505.43 262.19 534.54 251.64 551.15 296.3 Z" id="31021590"/>
<path d="M 551.15 296.3 534.54 251.64 560.27 242.03 567.16 260.83 571.03 265.14 581.98 269.63 588.73 275.79 569.79 289.03 561.95 293.15 551.15 296.3 Z" id="31021580"/>
<path d="M 588.73 275.79 581.98 269.63 571.03 265.14 567.16 260.83 560.27 242.03 587.56 231.85 598.36 227.76 609.77 258.18 610.13 261 588.73 275.79 Z" id="31021510"/>
<path d="M 657.85 184.44 661.85 188.3 667.53 201.01 682.65 220.08 683.41 221.02 678.39 225.63 656.05 239.2 646.88 232.29 615.3 211.7 610.36 207.95 587.53 171.24 585.55 163.54 586.87 153.96 591.55 148.17 597.59 144.76 604.29 144.71 612.83 139.57 625.22 138.73 629.43 136 634.74 137.06 639.82 134.06 645.97 131.65 642.18 136.86 639.97 162.07 638.59 167.13 657.85 184.44 Z" id="31021520"/>
<path d="M 512.9 191.19 515.29 199.6 534.54 251.64 505.43 262.19 491.29 261.84 483.08 262.95 477.26 257.94 469.3 257.46 464.74 258.75 464.16 254.01 455.71 241.64 449.45 228.8 448.33 222.46 449.72 210.56 451.94 209.1 452.37 200.26 455.82 187.68 458.25 172.53 461.85 165.72 460.5 158.46 454.86 153.63 453.19 149.89 463.91 151.63 468.45 149.03 480.51 148.14 477.71 159.23 483.23 164.89 483.45 167.65 488.45 177.24 496.31 182.48 500.05 188.85 508 191.53 512.9 191.19 Z" id="31021540"/>
<path d="M 587.56 231.85 560.27 242.03 540.38 188.94 537.67 180.42 540.04 176.9 551.76 167.37 554.45 163.57 563.2 159.68 568.36 160.88 566.52 172.99 568.17 178.82 587.56 231.85 Z" id="31021550"/>
<path d="M 707.09 152.99 685.96 214.2 682.65 220.08 667.53 201.01 661.85 188.3 657.85 184.44 663.53 178.05 668.66 179.64 670.16 171.28 667.37 160.17 673.07 153.43 677.82 145.86 677.25 129.57 673.01 129.82 672.99 113.44 678.14 105.81 674.26 92.23 671.33 87.44 682.9 84.45 687.5 79.13 691.76 77.78 695.02 72.12 703.97 68.43 710.04 69.58 708.07 75.47 702.18 82.58 701.49 99.65 696.09 99.66 690.07 105.02 695.22 127.76 703.3 137.3 707.09 152.99 Z" id="31021600"/>
<path d="M 707.09 152.99 703.3 137.3 695.22 127.76 690.07 105.02 696.09 99.66 701.49 99.65 702.18 82.58 708.07 75.47 710.04 69.58 703.97 68.43 708.21 64.36 712.84 57.4 724.4 49.82 729.76 43.86 739.85 39.57 739.77 41.39 747.54 44.2 754.5 43.72 764.69 39 772.18 29.6 778.71 25.72 793.99 20.4 799 26.04 798.38 33.17 794.08 39.74 789.73 53.01 785.55 59.32 785 63.62 781.79 67.96 775.82 72.18 773.43 77.23 765.99 78.51 763.83 82.17 739.17 105.51 707.09 152.99 Z" id="31021620"/>
</g>
</svg>