<?xml version="1.0"?>
<svg xmlns="http://www.w3.org/2000/svg" version="1.2" baseProfile="tiny" width="800" height="563" viewBox="0 0 800 563" stroke-linecap="round" stroke-linejoin="round">
<g id="dong">
<path d="M 711.76 267.48 713.69 273.73 711.17 285.55 711.55 291.94 710.29 298.8 704.97 303.04 702.76 306.69 698.45 309.9 697.67 313.45 693.58 320.42 686.75 327.01 679.58 330.44 679.15 340.7 674.92 349.11 671.21 353.28 668.71 360.56 657.64 369.01 656.69 373.65 652.07 376.15 648 376.22 640.64 379.01 627.48 386.81 619.41 386.48 611.55 387.71 609.02 384.01 599.45 383.16 590.88 387.59 586.19 387.45 582.59 382.77 583.01 374.32 580.68 366.47 582.8 361.03 581.24 356.59 576.53 354.96 565.34 348.88 562.37 342.07 555.05 338.98 555.72 335.37 559.77 331.07 561.48 326.87 550.4 321.49 544.78 321.45 542.77 325.01 524.41 304.64 523.7 303.85 548.17 281.8 549.21 281.11 584.61 320.36 605.64 301.39 608.99 297.43 614.59 282.09 617.12 271.07 615.92 269.84 611.86 255.64 620.34 255.39 624.85 252.85 634.73 263.79 635.86 271.78 640.41 279.16 640.52 282.84 648.51 284.44 654.63 287.96 660.01 289.23 666.81 286.06 673.69 285.49 676.09 279.13 682.61 277.87 687.04 275.69 692.46 276.01 699.76 273.49 711.76 267.48 Z" id="31023510"/>
<path d="M 751.44 145.62 751.69 156.36 752.88 161.73 750.9 165.31 764.88 174.25 771.39 173.8 773.01 182.65 774.69 183.08 776.41 190.92 783.71 192.67 792.14 199.69 799 202.32 796.21 208.93 795.42 214.68 793.2 217.69 784.01 224.94 782.53 228.38 777.69 232.01 771.48 233.99 767.07 233.07 758.99 241.54 749.32 247.8 740.23 248.03 730.71 251.57 723.11 249.79 716.77 251.93 711.76 267.48 699.76 273.49 692.46 276.01 687.04 275.69 682.61 277.87 676.09 279.13 673.69 285.49 666.81 286.06 660.01 289.23 654.63 287.96 648.51 284.44 640.52 282.84 640.41 279.16 635.86 271.78 634.73 263.79 624.85 252.85 620.34 255.39 611.86 255.64 601.34 254.58 592.16 252.79 583.1 249.17 579.67 252.91 549.21 281.11 548.17 281.8 540.57 273.09 525.74 262.49 503.18 237.45 503.85 236.75 474.05 203.73 484.78 190.02 491.9 177.99 493.45 172.96 502.46 179.66 506.53 182.69 531.53 210.13 539.32 205.94 543.88 206.04 548.05 204.14 551.65 199.18 555.05 191.43 561.1 190.78 564.08 194.18 569.74 196.47 575.97 195.28 583.88 189.51 589.91 188.12 601.31 190.08 608.68 189.4 614.01 186.11 616.99 182.61 617.68 177.42 620.49 177.89 622.56 172.92 629.16 162.31 626.94 157.83 629.64 152.57 634.93 151.04 637.58 146.67 643.95 141.84 649.08 139.64 657.76 139.52 667.98 136.56 690.48 139.21 692.78 142.08 699.44 140.76 704.78 143.58 713.35 141.5 725.86 143.63 733.13 146.58 741.18 145.56 751.44 145.62 Z" id="31023580"/>
<path d="M 782.56 77.53 779.64 83.94 776.53 98.24 770.12 102.02 767.95 106.45 769.24 109.2 763.67 124.91 762.25 130.46 758.41 133.39 755.39 138.15 755.77 141.63 751.44 145.62 741.18 145.56 733.13 146.58 725.86 143.63 713.35 141.5 704.78 143.58 699.44 140.76 692.78 142.08 690.48 139.21 667.98 136.56 657.76 139.52 649.08 139.64 639.61 139.54 626.3 136.01 620.9 130.81 617.58 132.02 616.38 123.33 613.94 117.64 609.73 114.77 605.68 104.12 601.85 103.82 599.15 100.21 593.57 98.47 587.02 99.61 581.46 98.54 566.68 99.53 556.11 103.55 554.48 110.22 550.08 115.55 541.69 119.63 539.65 94.9 545.24 85.16 553.06 76.7 554.64 73.93 558.33 71.11 568.57 66.38 576.64 64.68 588.75 64.36 589.25 52.5 578.22 51.63 567.36 53.26 567.25 2.9 577.92 5.46 580.2 7.62 585.89 7.26 591.5 9.39 594 11.96 600.75 13.03 606.04 11.89 617.92 15.36 617.61 19.53 623.99 21.17 625.76 23.81 637.58 33.46 649.37 44.01 658.52 44.83 661.29 47.06 668.42 43.63 677.56 45.88 683.42 41.94 690.48 45.39 701.24 56.32 706.45 59.69 709.08 57.88 714.12 59.06 716.56 61.85 722.76 64.34 723.8 67.66 728.11 68.42 733.77 72.89 740.95 72.05 746.89 77.44 756.65 76.51 764.39 77.8 773.9 81.07 782.56 77.53 Z" id="31023630"/>
<path d="M 562.91 442.83 561.54 448.58 562.38 458.22 569.04 464.75 570 472.75 574.51 473.82 580.69 480.6 582.37 485.3 586.63 487.4 585.04 491.57 581.81 494.06 580.06 501.38 581.57 509.97 585.09 510.96 589.34 519.4 586.96 521.24 582.26 519.37 577.99 520.25 568.73 526.77 559.85 525.71 556.53 527.61 550.43 534.16 544.21 535.53 539.26 534 534.5 535.69 523.3 534.22 519.92 538.93 515.45 539.7 508.74 537.6 504 543.1 501.05 552.23 498.47 555.13 489.82 558.03 481.87 558.51 477.53 562 474.71 558.5 468.99 554.8 465.32 549.6 460.31 546.64 455.41 547.64 453.65 546.18 447.7 549.07 443.24 555.14 438.15 551.48 435.95 546.15 431.39 545.26 424.52 538.14 411.88 530.53 406.99 526.8 405.02 521.22 399.97 515.76 399.78 503.36 397.09 497.54 403.97 498.63 406.34 493.61 429.88 495.1 436.34 495.01 436.58 479.48 451.73 479.4 458.28 478.46 465.76 476 474.52 475.06 501.67 474.8 502.23 469.45 501.98 443.13 499.5 436.33 510.69 432.1 527.01 428.74 532.51 428.43 539.49 433.96 548.23 438.01 553.63 443.58 562.91 442.83 Z" id="31023670"/>
<path d="M 302.95 135.31 311.96 163.92 310.4 172.2 302.6 199.21 306.83 202.9 305.07 209 306.07 214.07 311.22 215.27 311.49 218.82 308.68 222.37 316.2 222.34 317.83 227.16 309.47 232.61 300.86 233.87 296.72 237.43 291.33 235.65 289.13 237.84 292.66 241.06 279.16 258.01 279.23 260.58 275.37 263.47 273.61 274.35 271.87 276.35 273.1 282.22 278.93 291.94 284.36 293.76 283.53 299.2 279 302.29 277.58 308.41 280.86 315.51 279.19 321.93 279.27 328.84 269.69 334.04 265.62 340.19 270.16 349.88 269.54 353.47 262.65 362.03 258.87 368.43 257.95 374.52 254.17 378.36 254.39 381.68 250.25 386.16 249.89 392.21 240.34 400.5 238.46 403.16 230.01 397.66 208.8 388.6 199.81 385.77 190.43 381.28 184.27 381.6 179.07 379.65 169.72 379.04 161.26 379.55 150.61 384.56 142.94 383.41 136.55 378.08 135.5 369.92 137.01 362.88 132.68 357.27 124.78 351.72 117.27 348.61 114.96 346.06 105.28 340.37 100.23 329.54 84.5 323.97 79.12 323.87 72.4 321.67 63.97 321.53 57.72 319.6 53.18 316.14 42.36 312.95 15.21 303.25 9.18 302.03 5.99 304.45 2.12 304.34 1 298.28 2.06 290.08 2.11 279.9 4.4 272.93 2.53 269.64 3.63 255.96 9.37 253.57 20.73 254.83 23.6 253.24 25.38 241.04 24.2 235.87 29.77 230.1 30.44 224 33.56 219.64 34.37 211.3 39.58 210.52 42.72 206.39 40.87 197.54 38.14 191.75 43.96 190.91 45.76 188.56 52.15 186.51 58.12 180.3 59.8 170.72 57.03 159.03 58.3 153.67 56.43 148.61 57.09 142.88 56.25 135.23 56.61 128.78 53.11 118.96 51.07 108.12 52.93 105.04 60.83 101.13 66.43 101.25 71.98 98.6 80.23 92.09 83.84 90.81 93.2 93.45 123.51 93.37 137.63 99.35 141.69 99.15 146.29 101.85 152.69 100.51 160.24 106.68 170.49 110.26 175.27 117.01 190.3 126.72 198.53 126 203.68 129.44 206.22 127.57 215.15 130.07 217.99 128.79 225.3 131.54 235.89 131.37 243.13 129.35 251.17 131.76 258.53 127.21 261.58 123.36 266.53 123.77 270.74 122.31 277.07 124.35 281.02 127.59 286.59 129.13 291.16 133.33 295.56 133.25 298.7 136.25 302.95 135.31 Z" id="31023680"/>
<path d="M 405.31 283.88 405.82 325.06 410.87 344.97 410.85 353.43 406.11 373.65 406.03 406.48 433.74 406.4 446.79 405.61 449.31 401.91 459.95 411.65 480.77 425.85 467.25 445.6 463.83 448.79 457.44 450.59 433.25 450.72 406.45 450.31 407.89 460.04 406.94 468.7 405.22 471.23 400.53 468.98 398.68 471.05 380.71 469.67 376.71 468.05 367.17 468.29 361.54 464.77 358.28 459.13 355.73 451.09 358.5 442.04 354.15 435.22 353.22 429.29 347.98 424.69 346.76 416.25 348.47 412.28 346.55 402.35 342.63 397.87 335.98 393.33 329.47 394.66 326.17 390.3 321.54 388.79 316.98 381.41 312.53 376.9 307.74 375.34 303.32 371.44 301.32 367.48 290.28 361.1 288.85 357.2 283.98 355.1 279.59 356 274.29 350.39 270.16 349.88 265.62 340.19 269.69 334.04 279.27 328.84 279.19 321.93 280.86 315.51 277.58 308.41 279 302.29 283.53 299.2 284.36 293.76 290.17 291.6 298.22 284.94 300.45 280.76 305.02 278.96 307.6 275.1 316.16 273.87 318.14 272.23 324.8 271.34 331.31 267.36 336.68 271.35 344.71 270.71 350.66 275.03 353.12 280.47 356.84 277.42 363.95 275.03 370.69 275.77 375.92 274.11 380.18 275.34 386.18 274.17 391.07 270.83 397.82 273 398.16 280.99 405.31 283.88 Z" id="31023710"/>
<path d="M 480.77 425.85 497.37 437.18 499.5 436.33 501.98 443.13 502.23 469.45 501.67 474.8 474.52 475.06 465.76 476 458.28 478.46 451.73 479.4 436.58 479.48 436.34 495.01 429.88 495.1 406.34 493.61 403.97 498.63 397.09 497.54 376.53 498.98 359.53 482.12 351.33 479.06 350.37 472.2 339.31 465.63 330.68 463.25 323.85 457.84 319.49 452.87 315.59 442.72 311.93 439.86 297.98 438.72 290.38 443.44 284 450.23 277.27 453.33 270.11 453.67 260.17 447.26 254.46 428.83 248.24 414.59 238.46 403.16 240.34 400.5 249.89 392.21 250.25 386.16 254.39 381.68 254.17 378.36 257.95 374.52 258.87 368.43 262.65 362.03 269.54 353.47 270.16 349.88 274.29 350.39 279.59 356 283.98 355.1 288.85 357.2 290.28 361.1 301.32 367.48 303.32 371.44 307.74 375.34 312.53 376.9 316.98 381.41 321.54 388.79 326.17 390.3 329.47 394.66 335.98 393.33 342.63 397.87 346.55 402.35 348.47 412.28 346.76 416.25 347.98 424.69 353.22 429.29 354.15 435.22 358.5 442.04 355.73 451.09 358.28 459.13 361.54 464.77 367.17 468.29 376.71 468.05 380.71 469.67 398.68 471.05 400.53 468.98 405.22 471.23 406.94 468.7 407.89 460.04 406.45 450.31 433.25 450.72 457.44 450.59 463.83 448.79 467.25 445.6 480.77 425.85 Z" id="31023720"/>
<path d="M 502.46 179.66 493.45 172.96 495.5 161.43 495.19 150.41 491.24 111.54 487.41 79.93 517.36 80.06 517.62 146.64 515.6 162.13 502.46 179.66 Z" id="31023610"/>
<path d="M 484.16 46.17 485.35 60.67 487.41 79.93 491.24 111.54 495.19 150.41 484.65 150.41 484.65 148.56 475.64 148.56 475.49 150.41 454.6 150.41 454.6 143.18 443.73 143.77 442.34 142.75 425.28 142.93 418.8 154.41 412.12 149.51 409.86 152.81 404.63 151.25 399.27 147.72 396.24 149.64 392 156.8 390.07 146.68 387.75 140.35 383.41 132.14 382.24 125.46 382.81 120.2 381.85 113.29 378.32 106.78 370.36 97.27 365.15 94.06 357.12 93.86 346.5 89.17 349.37 82.39 348.81 78.87 358.66 69.93 366.01 68.95 371.86 72.78 376.09 72.57 383.93 70.04 387.05 67.73 385.85 63.92 388.03 57.67 397.39 54.3 399.66 51.54 407.04 59.36 415.01 60.02 422.32 65.08 424.56 69.31 436.95 67.2 448 67.67 464.7 62.05 475.61 55.9 480.69 49.08 484.16 46.17 Z" id="31023740"/>
<path d="M 346.5 89.17 357.12 93.86 365.15 94.06 370.36 97.27 378.32 106.78 381.85 113.29 382.81 120.2 382.24 125.46 383.41 132.14 387.75 140.35 390.07 146.68 392 156.8 401.52 219.66 402 228.76 401.61 238.54 405.47 240.48 405.2 250.6 406.21 270.94 405.25 275.57 405.31 283.88 398.16 280.99 397.82 273 391.07 270.83 386.18 274.17 380.18 275.34 375.92 274.11 370.69 275.77 363.95 275.03 356.84 277.42 353.12 280.47 350.66 275.03 344.71 270.71 336.68 271.35 331.31 267.36 324.8 271.34 318.14 272.23 316.16 273.87 307.6 275.1 305.02 278.96 300.45 280.76 298.22 284.94 290.17 291.6 284.36 293.76 278.93 291.94 273.1 282.22 271.87 276.35 273.61 274.35 275.37 263.47 279.23 260.58 279.16 258.01 292.66 241.06 289.13 237.84 291.33 235.65 296.72 237.43 300.86 233.87 309.47 232.61 317.83 227.16 316.2 222.34 308.68 222.37 311.49 218.82 311.22 215.27 306.07 214.07 305.07 209 306.83 202.9 302.6 199.21 310.4 172.2 311.96 163.92 302.95 135.31 303.52 130.4 307.93 126.42 314.13 117.02 326.1 112.49 327.12 108.41 326.38 100.1 328.3 96.33 342.87 88.1 346.5 89.17 Z" id="31023750"/>
<path d="M 405.47 240.48 401.61 238.54 402 228.76 401.52 219.66 392 156.8 396.24 149.64 399.27 147.72 404.63 151.25 409.86 152.81 412.12 149.51 418.8 154.41 425.28 142.93 442.34 142.75 443.73 143.77 454.6 143.18 454.6 150.41 475.49 150.41 475.64 148.56 484.65 148.56 484.65 150.41 495.19 150.41 495.5 161.43 493.45 172.96 491.9 177.99 484.78 190.02 474.05 203.73 456.48 228.12 435.04 225.17 423.64 243.19 420.04 241.58 416.36 233.99 412.11 231.62 405.52 230.45 405.47 240.48 Z" id="31023760"/>
<path d="M 498.77 327.74 489.88 318.81 483.62 314.44 476.12 306.83 475.48 306.13 502.42 281.95 498.93 277.95 495.15 270.79 489.92 257 486.38 252.39 488 250.05 502.4 237.31 503.18 237.45 525.74 262.49 540.57 273.09 548.17 281.8 523.7 303.85 524.41 304.64 498.77 327.74 Z" id="31023540"/>
<path d="M 467.05 360.96 466.73 320.89 469.44 312.89 476.12 306.83 483.62 314.44 489.88 318.81 498.77 327.74 518.25 349.33 513.54 354.16 510.65 360.56 467.05 360.96 Z" id="31023550"/>
<path d="M 586.19 387.45 575 394.34 572.96 397.73 569.56 395.29 564.43 388.2 558.18 388.94 553.02 387.67 546.61 381.33 541.15 377.45 536.38 375.58 532.15 371.4 530.48 367.77 522.21 365.33 519.67 361.52 510.65 360.56 513.54 354.16 518.25 349.33 498.77 327.74 524.41 304.64 542.77 325.01 544.78 321.45 550.4 321.49 561.48 326.87 559.77 331.07 555.72 335.37 555.05 338.98 562.37 342.07 565.34 348.88 576.53 354.96 581.24 356.59 582.8 361.03 580.68 366.47 583.01 374.32 582.59 382.77 586.19 387.45 Z" id="31023520"/>
<path d="M 503.18 237.45 502.4 237.31 488 250.05 486.38 252.39 489.92 257 495.15 270.79 498.93 277.95 502.42 281.95 475.48 306.13 453.25 281.5 435.38 261.42 458.22 228.4 456.48 228.12 474.05 203.73 503.85 236.75 503.18 237.45 Z" id="31023530"/>
<path d="M 572.96 397.73 569.96 406.73 567.18 410.79 566.58 414.99 569.92 422.91 571.47 431.66 570.19 438.76 562.91 442.83 553.63 443.58 548.23 438.01 539.49 433.96 532.51 428.43 527.01 428.74 510.69 432.1 499.5 436.33 497.37 437.18 480.77 425.85 459.95 411.65 449.31 401.91 439.3 396.23 435.55 392.88 434.68 385.62 438.61 383.2 464.59 383.48 465.22 378.63 465.14 362.33 467.05 360.96 510.65 360.56 519.67 361.52 522.21 365.33 530.48 367.77 532.15 371.4 536.38 375.58 541.15 377.45 546.61 381.33 553.02 387.67 558.18 388.94 564.43 388.2 569.56 395.29 572.96 397.73 Z" id="31023560"/>
<path d="M 549.21 281.11 579.67 252.91 583.1 249.17 592.16 252.79 601.34 254.58 611.86 255.64 615.92 269.84 617.12 271.07 614.59 282.09 608.99 297.43 605.64 301.39 584.61 320.36 549.21 281.11 Z" id="31023590"/>
<path d="M 649.08 139.64 643.95 141.84 637.58 146.67 634.93 151.04 629.64 152.57 626.94 157.83 629.16 162.31 622.56 172.92 620.49 177.89 617.68 177.42 616.99 182.61 614.01 186.11 608.68 189.4 601.31 190.08 589.91 188.12 583.88 189.51 575.97 195.28 569.74 196.47 564.08 194.18 561.1 190.78 555.05 191.43 551.65 199.18 548.05 204.14 543.88 206.04 539.32 205.94 531.53 210.13 506.53 182.69 502.46 179.66 515.6 162.13 517.62 146.64 517.36 80.06 544.08 80.17 546.74 79.61 554.64 73.93 553.06 76.7 545.24 85.16 539.65 94.9 541.69 119.63 550.08 115.55 554.48 110.22 556.11 103.55 566.68 99.53 581.46 98.54 587.02 99.61 593.57 98.47 599.15 100.21 601.85 103.82 605.68 104.12 609.73 114.77 613.94 117.64 616.38 123.33 617.58 132.02 620.9 130.81 626.3 136.01 639.61 139.54 649.08 139.64 Z" id="31023600"/>
<path d="M 567.25 2.9 567.36 53.26 564.53 53.39 544.6 50.43 526.89 50.46 493.98 59.5 485.35 60.67 484.16 46.17 483.1 40.26 479.75 36.67 482.14 30.73 480.92 17.02 489.02 11.71 496.2 6.38 504.34 3.41 511.92 4.49 515.15 3.78 553.54 2.37 558.94 1 567.25 2.9 Z" id="31023620"/>
<path d="M 567.36 53.26 578.22 51.63 589.25 52.5 588.75 64.36 576.64 64.68 568.57 66.38 558.33 71.11 554.64 73.93 546.74 79.61 544.08 80.17 517.36 80.06 487.41 79.93 485.35 60.67 493.98 59.5 526.89 50.46 544.6 50.43 564.53 53.39 567.36 53.26 Z" id="31023640"/>
<path d="M 453.25 281.5 431.54 300.96 431.21 315.11 431.55 382.99 431.98 394.14 433.74 406.4 406.03 406.48 406.11 373.65 410.85 353.43 410.87 344.97 405.82 325.06 405.31 283.88 405.25 275.57 406.21 270.94 405.2 250.6 405.47 240.48 405.52 230.45 412.11 231.62 416.36 233.99 420.04 241.58 423.64 243.19 435.04 225.17 456.48 228.12 458.22 228.4 435.38 261.42 453.25 281.5 Z" id="31023770"/>
<path d="M 449.31 401.91 446.79 405.61 433.74 406.4 431.98 394.14 431.55 382.99 431.21 315.11 431.54 300.96 453.25 281.5 475.48 306.13 476.12 306.83 469.44 312.89 466.73 320.89 467.05 360.96 465.14 362.33 465.22 378.63 464.59 383.48 438.61 383.2 434.68 385.62 435.55 392.88 439.3 396.23 449.31 401.91 Z" id="31023780"/>
</g>
</svg>