<?xml version="1.0"?>
<svg xmlns="http://www.w3.org/2000/svg" version="1.2" baseProfile="tiny" width="800" height="886" viewBox="0 0 800 886" stroke-linecap="round" stroke-linejoin="round">
<g id="dong">
<path d="M 319.76 516.22 320.8 527.42 309.54 537.62 297.41 538.6 269.59 550.1 258.02 556.37 263.66 567.03 260.97 574.32 251.92 576.66 244.68 589.98 224.36 578.32 213.6 573.66 180.77 585.53 159.11 586.48 131.47 577.08 125.24 602.61 118.54 602.59 121.8 621.58 121.07 630.17 123.84 648.3 115.52 662.97 85.56 649.51 75.01 636.32 65.12 628.27 55.7 624.39 44.43 625.21 41.56 612.56 30.64 600.29 22.73 616.03 11.24 619.35 9.38 604.82 11.25 588.74 17.49 573.44 12.64 560.72 15.78 541.36 94.79 532.41 121.48 526.2 120.63 524.19 179 508.56 197.45 503.19 210.86 496.14 243.2 473.52 279.77 448.25 281.04 449.59 287.76 463.63 310.74 504.84 319.76 516.22 Z" id="31022510"/>
<path d="M 430.56 597.87 421.36 606.39 421.32 610.51 413.61 624.94 401.17 630.08 382.38 625.62 373.41 632.34 360.75 633.9 346.89 643.57 341.17 651.98 332.78 656.12 316.28 657.23 308.05 679.55 302.48 686.09 286.96 673.98 268.12 668.57 260.34 658.07 251.4 660.44 246.43 665.98 230.32 657.93 229 652.64 211.07 640.57 210.7 650.47 204.29 655.54 193.88 657.75 178.08 657 158.74 648.52 138.35 627.6 131.65 631.07 130.45 642.75 123.84 648.3 121.07 630.17 121.8 621.58 118.54 602.59 125.24 602.61 131.47 577.08 159.11 586.48 180.77 585.53 213.6 573.66 224.36 578.32 244.68 589.98 251.92 576.66 260.97 574.32 263.66 567.03 258.02 556.37 269.59 550.1 297.41 538.6 309.54 537.62 320.8 527.42 319.76 516.22 325.75 502.05 337.26 494.22 351.05 488.79 356.96 481.65 366.87 491.48 377.71 491.58 378.98 504.42 382.17 510.58 394.58 515.91 406.24 525.27 416.29 525.64 415.77 540.03 422.85 556.03 417.19 572.44 418.66 580.71 430.56 597.87 Z" id="31022600"/>
<path d="M 785.79 628.86 780.77 642.86 770.09 649.85 759.05 668.43 744.52 672.26 721.69 691.64 712.33 708.19 696.18 715.49 692.97 744.95 687.31 754.04 671.51 760.33 650.52 754.49 643.2 746.05 627.64 752.47 619.24 759.25 610.34 759.86 612.08 770.13 616.85 774.05 618.08 792.54 613.03 800.23 615.13 815.49 612.47 826.34 600.12 850.37 592.3 859 591.13 867.86 581.07 878.28 564.62 885 546.56 878.8 531.86 876.33 513.33 878.1 502.04 867.88 488.41 869.47 477.66 860.98 469.48 859.52 467.5 853.22 455.73 848.5 451.1 843.19 441.54 840.95 436.54 844.39 426.64 837.99 406.21 817.23 392.81 810.68 381.67 818.16 364.33 813.89 350.78 820.4 345.53 816.16 328.15 814.61 305.75 794.58 283.31 776.25 279.95 771.22 267.83 768.1 268.43 760.18 245.86 753.61 235.81 755.77 222.99 753.73 218.26 748.84 207.6 744.8 196.8 745.48 192.46 741.39 172.19 736.52 156.43 732.91 146.18 735.52 73.27 738.2 67.14 739.54 52.74 737.48 37.28 743.13 23.65 753.26 21.14 741.35 29.22 710.47 27.22 689.43 21.03 680.31 8.07 682.2 1 672.94 3.99 663.75 5.77 648.71 6.53 623.8 11.24 619.35 22.73 616.03 30.64 600.29 41.56 612.56 44.43 625.21 55.7 624.39 65.12 628.27 75.01 636.32 85.56 649.51 115.52 662.97 123.84 648.3 130.45 642.75 131.65 631.07 138.35 627.6 158.74 648.52 178.08 657 193.88 657.75 204.29 655.54 210.7 650.47 211.07 640.57 229 652.64 230.32 657.93 246.43 665.98 251.4 660.44 260.34 658.07 268.12 668.57 286.96 673.98 302.48 686.09 308.05 679.55 316.28 657.23 332.78 656.12 341.17 651.98 346.89 643.57 360.75 633.9 373.41 632.34 382.38 625.62 401.17 630.08 413.61 624.94 421.32 610.51 421.36 606.39 430.56 597.87 440.98 598.39 455.41 590.77 464.82 594.28 473.6 592.08 477.92 603.57 482.11 604.33 498.92 615.15 505.13 608.57 513.84 609.17 518.52 616.73 534.66 619.18 542.91 609.75 552.26 610.01 558.66 615.24 569.93 613.71 585.2 617.11 589.32 620.13 597.86 617.84 612.35 619.36 621.23 613.87 639.17 617 645.16 611.42 652.57 611.26 660.52 603.18 661.05 594.88 666.98 586.53 676.5 582.06 686.14 573.29 695.07 572.93 701.45 561.78 711.18 559.77 717.5 545.31 728.08 543.92 738.75 533.23 746.14 531.43 757.06 520.32 779.14 506.58 779.18 521.8 786.7 545.41 786.13 553.36 795.44 557.81 790.13 568.45 784.91 572.63 785.35 579.5 780.09 592.9 781.47 596.76 775.01 618.87 785.79 628.86 Z" id="31022610"/>
<path d="M 572.3 266.62 570.23 275.82 561.21 278.39 548.35 290.81 496.49 305.44 457.85 314.18 451.95 311.49 463.67 275.77 485.83 273.44 489.5 269.77 517.09 266.82 525.63 260.03 535.49 262.43 550.35 260.11 561.91 260.54 572.3 266.62 Z" id="31022550"/>
<path d="M 592.27 367.08 590.04 375.52 580.45 380.62 578.34 386.34 569.53 391.74 526.55 409.44 521.24 411.21 509.29 405.84 476.7 421.68 462.26 437.86 451.4 428.46 435.6 428.76 429.16 411 406.25 381.58 408.46 380.05 439.19 382.32 481.57 365.1 537.14 349.87 567.09 344.07 568.17 348.76 564.63 362.79 575.47 369.15 584.93 365.64 592.27 367.08 Z" id="31022530"/>
<path d="M 624.75 280.73 626.95 289.87 621.5 295.22 617.35 311.53 612.1 324.3 607.54 328.37 613.47 337.95 604.93 346.22 605.29 350.97 597.63 357.53 592.27 367.08 584.93 365.64 575.47 369.15 564.63 362.79 568.17 348.76 567.09 344.07 537.14 349.87 481.57 365.1 439.19 382.32 408.46 380.05 406.25 381.58 404.94 379.96 403.64 378.34 409.3 368.3 445.41 263.74 463.67 275.77 451.95 311.49 457.85 314.18 496.49 305.44 548.35 290.81 561.21 278.39 570.23 275.82 572.3 266.62 579.83 262.36 588.11 253.09 595.6 255.59 584.16 283.63 594.55 284.67 624.75 280.73 Z" id="31022540"/>
<path d="M 686.59 203.83 678.6 209.39 677.65 216.55 665.17 232.34 646.77 243.33 637.84 246.84 624.13 261.24 624.75 280.73 594.55 284.67 584.16 283.63 595.6 255.59 588.11 253.09 579.83 262.36 572.3 266.62 561.91 260.54 550.35 260.11 535.49 262.43 525.63 260.03 517.09 266.82 489.5 269.77 485.83 273.44 463.67 275.77 445.41 263.74 500.2 182.62 542.32 142.75 546.02 136.48 558.73 134.31 562.81 125.68 573.01 118.47 578.5 111.06 579.44 103.71 586.58 92.92 594.01 70.25 601.36 59.03 602.41 46.85 593.85 37.22 615.09 19.9 619.89 22.65 627.27 15.84 625.45 1 632.94 7.42 642.72 11.43 648.54 20.99 647.99 38.78 652.79 51.71 659.29 59.56 656.11 72.83 660.35 90.22 657.94 114.72 652.62 122.96 654.17 133.66 661.4 142.24 674.19 152.83 685.35 156.95 681.63 167.36 679.69 188.42 686.59 203.83 Z" id="31022560"/>
<path d="M 795.98 382.18 799 397.24 781.8 435.47 781.28 446.16 777.79 450.93 779.8 460.33 774.39 469.21 777.51 472.52 782.23 491.26 779.14 506.58 757.06 520.32 746.14 531.43 738.75 533.23 728.08 543.92 717.5 545.31 711.18 559.77 701.45 561.78 695.07 572.93 686.14 573.29 676.5 582.06 666.98 586.53 661.05 594.88 660.52 603.18 652.57 611.26 645.16 611.42 639.17 617 621.23 613.87 612.35 619.36 597.86 617.84 589.32 620.13 585.2 617.11 569.93 613.71 558.66 615.24 552.26 610.01 542.91 609.75 534.66 619.18 518.52 616.73 513.84 609.17 505.13 608.57 498.92 615.15 482.11 604.33 477.92 603.57 473.6 592.08 464.82 594.28 455.41 590.77 453.25 579.77 455.69 564.03 442.52 535.28 436.79 536.69 435.45 523.96 426.35 515.68 439.52 515.93 445.39 484.47 451.68 477.52 479.27 478.08 493.9 454.75 512.82 445.76 504.97 429.67 529.34 415.76 526.55 409.44 569.53 391.74 578.34 386.34 580.45 380.62 590.04 375.52 592.27 367.08 597.63 357.53 605.29 350.97 604.93 346.22 613.47 337.95 607.54 328.37 612.1 324.3 617.35 311.53 621.5 295.22 626.95 289.87 624.75 280.73 624.13 261.24 637.84 246.84 646.77 243.33 665.17 232.34 677.65 216.55 678.6 209.39 686.59 203.83 713.5 212.51 733.41 209.88 737.82 216.92 756.58 226.53 756.93 232.71 749.95 242.73 766.71 259.61 773 271.97 779.58 279.01 782.16 290.74 788.91 300.93 786.75 319.12 788.34 325.55 794.79 330.57 794.3 363.65 793.07 374.96 795.98 382.18 Z" id="31022570"/>
<path d="M 462.26 437.86 418.75 487.88 418.47 502.92 426.35 515.68 435.45 523.96 436.79 536.69 442.52 535.28 455.69 564.03 453.25 579.77 455.41 590.77 440.98 598.39 430.56 597.87 418.66 580.71 417.19 572.44 422.85 556.03 415.77 540.03 416.29 525.64 406.24 525.27 394.58 515.91 382.17 510.58 378.98 504.42 377.71 491.58 366.87 491.48 356.96 481.65 360.87 480.58 365.85 460.53 379.78 460.69 384.63 453.08 391.51 453 401.13 445.43 425.31 444.8 432.43 437.06 435.6 428.76 451.4 428.46 462.26 437.86 Z" id="31022580"/>
<path d="M 526.55 409.44 529.34 415.76 504.97 429.67 512.82 445.76 493.9 454.75 479.27 478.08 451.68 477.52 445.39 484.47 439.52 515.93 426.35 515.68 418.47 502.92 418.75 487.88 462.26 437.86 476.7 421.68 509.29 405.84 521.24 411.21 526.55 409.44 Z" id="31022590"/>
<path d="M 356.96 481.65 351.05 488.79 337.26 494.22 325.75 502.05 319.76 516.22 310.74 504.84 287.76 463.63 281.04 449.59 292.16 442.04 320.74 428.79 344.9 418.64 358.21 411.01 396.38 387.82 404.94 379.96 406.25 381.58 429.16 411 435.6 428.76 432.43 437.06 425.31 444.8 401.13 445.43 391.51 453 384.63 453.08 379.78 460.69 365.85 460.53 360.87 480.58 356.96 481.65 Z" id="31022620"/>
</g>
</svg>