<?xml version="1.0"?>
<svg xmlns="http://www.w3.org/2000/svg" version="1.2" baseProfile="tiny" width="800" height="1378" viewBox="0 0 800 1378" stroke-linecap="round" stroke-linejoin="round">
<g id="dong">
<path d="M 755.93 776.76 786.16 792.11 793.71 799.3 783.82 807.85 775.67 825.63 751.39 837.06 718.5 872.62 694.85 882.18 678.24 910.56 678.41 926.19 669.95 939.82 661.25 940.29 661.37 909.98 616.84 913.64 612.86 868.77 635.13 868.14 634.94 855.08 651.46 854.83 651.86 842.21 671.17 842.15 671.56 854.52 680.77 854.37 679.29 802.95 673.36 795.23 677.03 768.69 712.38 768.23 744.36 775.93 755.93 776.76 Z" id="31042590"/>
<path d="M 537.13 166.66 519.75 171.67 512.14 202.27 500.12 200.25 478.01 223.91 465.91 244.71 462.99 278.14 450.2 289.5 466.84 349.83 477.44 366.08 479.76 391.08 469.69 403.91 470.71 449.56 475.55 465.77 456.09 465.06 428.32 491.45 421.62 501.38 397.78 512.39 386.51 540.18 378.53 554.39 379.33 580.43 395.72 583.67 389.62 608.11 387.35 644.89 399.05 692.97 392.32 695.91 352.45 697.41 346.52 698.04 308.94 711.92 280 734.21 277.78 735.83 275.13 730.32 259.95 733.86 255.67 707.63 250.38 699.7 238.42 693.66 233.26 678.33 221.27 671.29 213.55 668.12 220.86 642.96 227.76 636.07 224.96 615.58 218.46 606.81 203.18 603.74 196.23 597.74 176.38 598.3 176.44 585.95 187.68 570.58 190.83 556.77 203.23 542.7 207.95 493.99 234.34 383.13 270.99 382.63 309.48 347.45 313.49 342.04 314.5 333.16 324.02 326.93 324.91 301.26 311.66 273.73 310.98 254.68 320.81 246.09 314.49 221.76 327.2 202.13 321.13 172.78 330.27 158.88 329.44 137.86 322.27 103.84 315.84 90.2 320.81 76.73 318.71 62.64 321.34 50.77 318.18 38.39 333.82 45.01 344.2 38.56 364.08 39.35 377.17 28.69 397.86 31.84 414.55 37.37 432.01 36.3 468.02 30.83 483.14 7.7 523.15 9.8 535.08 1 555.93 11.9 558.28 28.2 538.23 56.39 526.64 104.16 537.13 166.66 Z" id="31042530"/>
<path d="M 510.37 1377 482.12 1345.32 462.64 1325.86 440.45 1300.49 411.8 1295.4 392.05 1302.01 368.04 1297.82 357.73 1288.74 351.06 1275.01 383.39 1253.09 395.9 1247 441.75 1230.14 491.13 1215.09 526.12 1193.28 546.55 1185.64 566.9 1175.09 571.58 1168.59 562.99 1181.04 550.46 1208.77 549.52 1232.11 563.62 1255.13 563.93 1261.55 555.32 1278.94 552.65 1292.57 543.73 1310.89 544.67 1324.83 567.22 1347.7 566.53 1367.41 542.22 1374.58 518.05 1371.98 510.37 1377 Z" id="31042640"/>
<path d="M 512.14 202.27 510.51 227.75 507.22 244.51 495.16 256.57 494.85 264.72 505.34 281.79 511.77 301.06 510.04 316.41 514.74 328.63 516.15 346.48 530.09 367 536.51 380.63 546.38 383.92 565.17 396.45 577.7 409.29 597.28 411.8 611.37 408.67 630.79 412.74 628.91 421.35 636.59 428.87 640.19 431.06 665.41 433.88 672.92 445.79 675.9 465.05 682.95 477.11 690.78 480.87 692.66 494.97 700.49 511.26 695.01 523.95 701.43 535.85 696.42 549.79 700.33 570.63 705.5 579.4 698.46 594.12 705.5 603.52 726.33 608.22 740.58 617.93 739.8 626.39 725.08 639.08 722.46 657.26 708.04 668.62 661 633.61 640.32 625.56 591.67 628.7 544.38 633.81 551.38 671.96 541.08 675.84 503.86 679.24 482.03 676.47 453 672.1 436.35 676.4 399.05 692.97 387.35 644.89 389.62 608.11 395.72 583.67 379.33 580.43 378.53 554.39 386.51 540.18 397.78 512.39 421.62 501.38 428.32 491.45 456.09 465.06 475.55 465.77 470.71 449.56 469.69 403.91 479.76 391.08 477.44 366.08 466.84 349.83 450.2 289.5 462.99 278.14 465.91 244.71 478.01 223.91 500.12 200.25 512.14 202.27 Z" id="31042560"/>
<path d="M 470.93 970.51 429.78 874.59 553.53 820.98 538.5 787.49 604.23 779.8 612.86 868.77 616.84 913.64 508.14 955.42 470.93 970.51 Z" id="31042600"/>
<path d="M 722.46 657.26 729.31 653.17 745.28 657.56 761.1 655.99 771.13 665.7 770.34 672.91 784.59 678.55 786.94 697.19 792.3 698.23 799 711.6 783.18 735.25 779.11 746.21 765.8 751.38 755.93 776.76 744.36 775.93 712.38 768.23 677.03 768.69 673.36 795.23 679.29 802.95 680.77 854.37 671.56 854.52 671.17 842.15 651.86 842.21 651.46 854.83 634.94 855.08 635.13 868.14 612.86 868.77 604.23 779.8 538.5 787.49 485.72 688.29 482.03 676.47 503.86 679.24 541.08 675.84 551.38 671.96 544.38 633.81 591.67 628.7 640.32 625.56 661 633.61 708.04 668.62 722.46 657.26 Z" id="31042570"/>
<path d="M 317.17 899.93 260.34 841.7 203.81 787.45 277.78 735.83 280 734.21 326.05 792.32 356.62 864.65 344 873.14 317.17 899.93 Z" id="31042540"/>
<path d="M 356.62 864.65 326.05 792.32 280 734.21 308.94 711.92 346.52 698.04 352.45 697.41 386.03 772.08 414.99 839.68 356.62 864.65 Z" id="31042550"/>
<path d="M 538.5 787.49 553.53 820.98 429.78 874.59 414.99 839.68 386.03 772.08 352.45 697.41 392.32 695.91 399.05 692.97 436.35 676.4 453 672.1 482.03 676.47 485.72 688.29 538.5 787.49 Z" id="31042580"/>
<path d="M 221.27 671.29 219.77 700.49 224.85 730.13 140.55 730.95 116.36 735.37 86.69 754.61 86.3 754.28 55.38 715.13 55.86 711 35.29 690.8 29.69 676.81 37.92 658.77 41.71 624.25 29.69 565.78 36.4 553.47 28.16 550.9 19.54 540.88 2.37 538.99 1 526.33 5.98 504.23 17.24 491.89 30.7 500.69 39.16 529.86 43.8 530.91 49.93 486.27 63.09 456.17 62.96 448.3 180.62 458.78 178.89 445.99 197.85 428.64 211.1 403.83 225.14 391.14 230.29 377.44 306.2 338.17 313.49 342.04 309.48 347.45 270.99 382.63 234.34 383.13 207.95 493.99 203.23 542.7 190.83 556.77 187.68 570.58 176.44 585.95 176.38 598.3 196.23 597.74 203.18 603.74 218.46 606.81 224.96 615.58 227.76 636.07 220.86 642.96 213.55 668.12 221.27 671.29 Z" id="31042510"/>
<path d="M 277.78 735.83 203.81 787.45 260.34 841.7 223.18 852.08 200.74 822.91 172.37 802.92 86.69 754.61 116.36 735.37 140.55 730.95 224.85 730.13 219.77 700.49 221.27 671.29 233.26 678.33 238.42 693.66 250.38 699.7 255.67 707.63 259.95 733.86 275.13 730.32 277.78 735.83 Z" id="31042520"/>
<path d="M 661.25 940.29 657.89 987.28 653.67 999.97 653.67 1017.98 656.96 1035.84 648.69 1056.48 591.54 1032.34 569.65 1019.97 561.96 1011.1 502.4 1042.78 470.93 970.51 508.14 955.42 616.84 913.64 661.37 909.98 661.25 940.29 Z" id="31042610"/>
<path d="M 526.12 1193.28 491.13 1215.09 441.75 1230.14 395.9 1247 383.39 1253.09 351.06 1275.01 339.38 1258.5 314.42 1243.47 305.52 1213.83 287.48 1183.81 282.79 1156 287.48 1148.23 299.31 1143.86 294.64 1131.33 302.2 1135.66 328.58 1132.58 359.78 1150.72 362.38 1142.57 379.74 1149.46 397.62 1142.55 390.03 1125.53 423.68 1110.87 470.8 1091.16 495.23 1148.68 505.94 1144.07 526.12 1193.28 Z" id="31042620"/>
<path d="M 423.68 1110.87 390.03 1125.53 397.62 1142.55 379.74 1149.46 362.38 1142.57 359.78 1150.72 328.58 1132.58 302.2 1135.66 294.64 1131.33 274.06 1115.93 268.16 1103.52 257.15 1092.15 228.19 1080.96 221.88 1072.09 194.41 1053.2 190.97 1035.36 210.77 980.77 222.33 955.93 219.2 924.32 229.28 886 223.18 852.08 260.34 841.7 317.17 899.93 345.71 928.48 380.91 1008.26 383.5 1017.09 411.45 1080.16 423.68 1110.87 Z" id="31042630"/>
<path d="M 380.91 1008.26 345.71 928.48 317.17 899.93 344 873.14 356.62 864.65 414.99 839.68 429.78 874.59 470.93 970.51 380.91 1008.26 Z" id="31042650"/>
<path d="M 423.68 1110.87 411.45 1080.16 383.5 1017.09 380.91 1008.26 470.93 970.51 502.4 1042.78 469.34 1059.99 480.68 1086.81 470.8 1091.16 423.68 1110.87 Z" id="31042660"/>
<path d="M 572.77 1165.38 571.58 1168.59 566.9 1175.09 546.55 1185.64 526.12 1193.28 505.94 1144.07 495.23 1148.68 470.8 1091.16 480.68 1086.81 469.34 1059.99 502.4 1042.78 561.96 1011.1 569.65 1019.97 591.54 1032.34 648.69 1056.48 629.24 1075.31 623.44 1090.03 612.32 1102.88 608.41 1115.1 598.7 1120.58 584.91 1140 572.77 1165.38 Z" id="31042670"/>
</g>
</svg>