<?xml version="1.0"?>
<svg xmlns="http://www.w3.org/2000/svg" version="1.2" baseProfile="tiny" width="800" height="1047" viewBox="0 0 800 1047" stroke-linecap="round" stroke-linejoin="round">
<g id="dong">
<path d="M 497.92 777.46 492.96 777.17 437.11 778.85 409.39 773.88 400.49 770.63 345.06 759.44 337.04 760.11 305.62 753.81 287.3 751.95 275.16 737.81 254.45 683.13 251.32 672.41 257.36 673.42 258.82 666.65 278.93 670.32 277.22 677.54 289.08 679.9 289.63 674.35 303.39 668.68 307.27 664.81 321.14 669.24 323.54 656.15 338.09 664.26 342.93 663.15 359.27 641.43 367.96 597.4 372.89 611.79 385.79 614.17 376.96 662.47 435.35 673.31 467.42 675.79 474.22 677.38 481.71 685.87 474.44 703.07 487.97 710.76 483.52 725.09 492.76 728.79 493.28 736.85 502.04 744.63 513.37 746.6 513.34 761.74 501.4 759.96 501.14 777.51 497.92 777.46 Z" id="31050870"/>
<path d="M 702.91 523.91 704.66 530.87 698.36 543.35 699.64 550.35 696.04 561.16 696.03 569.28 682.44 577.12 677.35 584.14 679.26 601.33 672.94 606.35 666.83 605.17 661.39 612 648.47 618.33 640.19 614.33 631.49 613.04 630.58 621.48 621.67 631.82 629.06 648.2 633.26 653.36 635.17 666.78 643.1 666.7 646.42 672.98 663.91 684.89 669.85 684.64 682.61 693.06 690.13 693.85 679.24 703.94 645.98 737.66 625.74 749.42 605.61 756.09 535.91 784.54 530.7 785.65 503.78 781.73 497.92 777.46 501.14 777.51 501.4 759.96 513.34 761.74 513.37 746.6 502.04 744.63 493.28 736.85 492.76 728.79 483.52 725.09 487.97 710.76 474.44 703.07 481.71 685.87 474.22 677.38 467.42 675.79 435.35 673.31 376.96 662.47 385.79 614.17 372.89 611.79 367.96 597.4 354.95 561.67 351.06 554.38 333.79 528.47 322.08 513.81 303.97 483.42 298.79 453.06 294.02 443.46 294.58 427.8 366.54 394.78 376.27 388.77 447.92 348.95 469.43 352.43 472.4 367.17 475.32 373.5 467.06 373.48 466.98 398.86 456.33 404.18 456.27 417.99 449.55 425.1 442.33 426.55 441.26 434.89 436.33 443.68 423.81 449.73 422.03 472.66 432.92 481.36 434 491.93 430.71 517.12 452.96 515.81 459.66 514.11 469.22 524.85 478.47 525.17 487.36 529.01 504.67 518.84 520.36 525.24 541.37 519.1 552.57 517.88 567.86 518.68 628.18 528.38 628.38 525.85 643.92 528.09 656.22 528.05 702.91 523.91 Z" id="31050880"/>
<path d="M 294.58 427.8 294.02 443.46 298.79 453.06 303.97 483.42 322.08 513.81 333.79 528.47 351.06 554.38 354.95 561.67 367.96 597.4 359.27 641.43 342.93 663.15 338.09 664.26 323.54 656.15 321.14 669.24 307.27 664.81 303.39 668.68 289.63 674.35 289.08 679.9 277.22 677.54 278.93 670.32 258.82 666.65 257.36 673.42 251.32 672.41 221.75 666.78 226.34 638.01 211.42 635.77 213.6 622 180.54 617.7 175.86 619.99 174.47 629.54 127.04 621.63 148.79 524.77 165.75 446.08 164.94 438.71 167.77 427.27 167.27 396.05 212.03 395.85 210.64 400.39 218.74 403.61 218.74 409.05 236.84 408.88 236.63 423.39 248.08 423.36 255.73 431.52 260.16 441.24 277.13 435.82 294.58 427.8 Z" id="31050900"/>
<path d="M 167.27 396.05 167.77 427.27 164.94 438.71 165.75 446.08 148.79 524.77 127.04 621.63 124.74 621.6 103.15 717.71 97.76 722.28 74.66 722.66 9.39 717.06 8.61 693.95 5.19 675.87 3.07 644.74 7.01 630.43 11.67 609.93 15.86 598.41 20.45 571.69 12.93 547.97 12.79 541.5 8.03 521.23 7.21 509.3 1 493.27 12.4 486.19 19.97 479.55 27.01 454.07 32.73 437.29 42.41 425.9 44.97 432.96 49.73 435.53 53.22 429.53 66.49 431.5 75.24 438.66 76.42 430.46 96 423.46 91.14 418.34 92.97 412.52 101.1 414.74 102.83 408.29 114.51 412.87 119.26 409.29 129.77 410.65 135.99 418.59 149.46 418.51 156.85 422.07 164.41 418.26 166.46 407.94 162.96 401.83 163.33 395.5 167.27 396.05 Z" id="31050910"/>
<path d="M 97.76 722.28 97.66 723.57 152.54 728.16 176.59 731.08 216.39 739.12 287.3 751.95 305.62 753.81 337.04 760.11 345.06 759.44 400.49 770.63 409.39 773.88 437.11 778.85 433.81 783.13 418.63 781.22 415.13 785.68 416.34 797.92 408.46 805.57 399.6 806.42 395.48 813.48 390.38 832.1 385.65 855.06 386.03 858.62 378.7 868.2 377.27 877.07 369.28 882.78 371.86 892.73 337.89 902.45 331.8 902.84 318.81 899.12 309.39 894.47 300.26 900.48 292.98 900.13 287.52 903.12 272.17 892.65 264.7 893.36 256.01 898.83 243.74 896.97 228.11 899.47 226.86 887.76 222.33 878.69 211.58 869.23 205.69 861.96 194.23 858.46 179.88 856.29 179.9 852.61 172.38 846.45 164.25 849.13 153.63 842.9 149.3 836.22 145.84 822.14 138.02 819.36 127.26 810.58 124.99 799.49 117.29 799.25 122.45 778 112.53 769.37 94.99 759.15 87.16 757.81 74.3 750.21 67.4 753.3 39.65 748.27 35.81 743.47 14.03 738.04 8.5 733.68 9.39 717.06 74.66 722.66 97.76 722.28 Z" id="31050920"/>
<path d="M 535.91 784.54 535.37 807.86 529.98 822.99 518.1 861.94 523.64 862.3 533.88 867.79 542.89 879.81 563.16 866.9 567.91 874.69 555.4 880.38 556.59 892.77 547.93 901.11 553.06 922.44 549.73 927.46 554.83 942.07 553.23 955.92 543.63 965.85 539.46 976.15 521.52 982.99 516.65 986.73 497.81 978.1 484.85 984.08 477.29 984.08 462.37 965.54 457.95 965.05 442.24 970.25 433.7 969.95 414.27 966.32 402.68 953.08 402.58 927.17 389.23 923.84 379.12 918.54 372.15 905.1 371.86 892.73 369.28 882.78 377.27 877.07 378.7 868.2 386.03 858.62 385.65 855.06 390.38 832.1 395.48 813.48 399.6 806.42 408.46 805.57 416.34 797.92 415.13 785.68 418.63 781.22 433.81 783.13 437.11 778.85 492.96 777.17 497.92 777.46 503.78 781.73 530.7 785.65 535.91 784.54 Z" id="31050930"/>
<path d="M 708.56 719.32 712.59 726.37 693.34 743.29 676.17 750.62 676.21 765.58 678.43 783.98 681.88 792.68 673.27 819.65 666.81 830.51 657.73 830.8 650.78 837.31 648.13 845.93 641.06 850.08 635.24 868.72 642.56 875.26 652.01 875.89 656.46 883.59 669.99 874.98 667.32 861.71 673.81 860.08 673.91 852.64 691.9 850.85 700.2 856.88 713.64 852.74 736.33 852.01 750.26 854.35 761.83 852.12 765.47 844.51 772.74 839.69 783.95 836.31 795.26 840.74 793.96 846.95 788.39 850.91 790.08 875.29 786.1 888.33 788.39 893.45 793.34 917.05 796.94 923.46 799 936.73 799 949.56 795.27 953.49 794.56 964.68 790.48 966.06 783.96 958.87 777.2 966.02 777.85 975.32 759.29 983.25 749.36 993.17 741.88 1006.5 734.55 1034.11 729.38 1038.63 714.95 1035.89 709.22 1046 688.64 1043.54 679.51 1033.92 661.65 1037.26 655.17 1033.04 642.9 1017.73 629.25 1025.19 623.46 1025.68 624.64 1036.57 621.17 1038.56 609.72 1035.29 607.56 1029.51 594.21 1015.18 585.47 1009.69 585.18 1004.98 572.32 1006.84 564.85 1005.07 554.84 1009.69 543.16 1011.65 535.6 1009.59 528.53 998.7 515.48 996.35 516.65 986.73 521.52 982.99 539.46 976.15 543.63 965.85 553.23 955.92 554.83 942.07 549.73 927.46 553.06 922.44 547.93 901.11 556.59 892.77 555.4 880.38 567.91 874.69 563.16 866.9 542.89 879.81 533.88 867.79 523.64 862.3 518.1 861.94 529.98 822.99 535.37 807.86 535.91 784.54 605.61 756.09 625.74 749.42 645.98 737.66 679.24 703.94 690.13 693.85 696.38 698.54 706.18 701.91 708.64 709.41 708.56 719.32 Z" id="31050940"/>
<path d="M 616.75 148.98 653.47 150.98 660.26 149.89 691.38 148.96 701.64 149.79 697.03 160.29 703.45 179.04 704.29 194.82 699.81 213.49 705.88 220.32 706.56 225.19 713.94 225.11 712.85 237.6 722.79 252.86 724.13 259.58 731.26 267.79 744.37 269.32 754.28 276.74 751.33 283.97 756.09 302.08 753.66 311.55 741.5 319.2 736.08 328.25 727.47 342.29 731.99 350.69 730.42 355.94 731.57 374.16 721.8 399.89 709.69 416.15 712.24 429.95 719.64 435.25 720.94 449.32 716.11 474.37 720.33 481.44 716.48 493.75 723.32 502.2 713.75 504.17 701.86 509.06 702.91 523.91 656.22 528.05 643.92 528.09 628.38 525.85 628.18 528.38 567.86 518.68 552.57 517.88 541.37 519.1 520.36 525.24 504.67 518.84 487.36 529.01 478.47 525.17 469.22 524.85 459.66 514.11 452.96 515.81 430.71 517.12 434 491.93 432.92 481.36 422.03 472.66 423.81 449.73 436.33 443.68 441.26 434.89 442.33 426.55 449.55 425.1 456.27 417.99 456.33 404.18 466.98 398.86 467.06 373.48 475.32 373.5 472.4 367.17 469.43 352.43 483.92 353.57 504.43 356.86 528.96 359.72 551.02 360.62 573.06 358.6 606.4 353.45 606.74 277.08 608.32 269.4 591.05 263.7 590.15 242.99 576.99 239.83 564.89 225.83 565.74 215.75 569.98 197.46 501.75 183.28 505.15 181.08 502.66 169.5 498.74 163.3 499.85 153.57 503.44 149.89 513.12 148.12 513.83 137.51 525.83 127.24 540.09 123.19 568.85 117.74 574.89 118.33 584.86 125.57 601.67 140.67 616.75 148.98 Z" id="31050950"/>
<path d="M 216.9 1 227.33 1.24 229.95 16.38 227.77 25.98 244.09 32.42 247.91 35.66 249.04 45.37 257.01 54.37 258.81 61.6 264.33 65.76 272.06 60.92 295.6 58.6 308.16 66.98 315.23 83.25 325.51 83.26 350.86 89.56 353.45 87.78 365.09 90.93 375.18 89.83 383.91 91.11 399.35 90.37 411.9 104.09 429.65 114.79 438.84 115.83 436.77 123.24 438.71 135.91 449.18 139.29 465.89 141.75 456.66 161.57 459.56 175.27 457.29 185.41 460.81 197.52 464.46 200.63 475.31 192.1 483.68 188.74 490.65 188.88 494.52 181.74 501.75 183.28 569.98 197.46 565.74 215.75 564.89 225.83 576.99 239.83 590.15 242.99 591.05 263.7 608.32 269.4 606.74 277.08 606.4 353.45 573.06 358.6 551.02 360.62 528.96 359.72 504.43 356.86 483.92 353.57 469.43 352.43 447.92 348.95 376.27 388.77 366.54 394.78 294.58 427.8 277.13 435.82 260.16 441.24 255.73 431.52 248.08 423.36 236.63 423.39 236.84 408.88 218.74 409.05 218.74 403.61 210.64 400.39 212.03 395.85 167.27 396.05 163.33 395.5 163.97 383.58 167.38 376.94 167.21 344.4 164.22 339.48 164.91 329.36 163.2 314.83 165.94 290.56 164.22 288.52 165.38 270.09 164.18 255.29 165.89 249.76 165.08 222.61 167.42 211.79 163.81 205.05 171.12 195.69 167.5 192.87 168.6 181.21 178.45 179.68 169.89 166.26 177.8 166.65 182.81 161.43 176.44 153.14 185.25 144.44 179 140.02 181.16 134.45 195.09 126.1 194.97 121.54 186.03 120.09 183.44 116.04 190.95 111.22 189.01 102.81 192.3 98.42 191.76 87.57 194.28 76.83 197.4 72.46 196.69 64.55 202.18 57.39 197.24 53.08 196.5 47.35 211.22 48.92 208.77 41.37 201.42 40.82 202.63 35.21 211.94 25.73 213.13 18.47 219.67 13.32 212.36 3.48 216.9 1 Z" id="31050960"/>
<path d="M 251.32 672.41 254.45 683.13 275.16 737.81 287.3 751.95 216.39 739.12 176.59 731.08 152.54 728.16 97.66 723.57 97.76 722.28 103.15 717.71 124.74 621.6 127.04 621.63 174.47 629.54 175.86 619.99 180.54 617.7 213.6 622 211.42 635.77 226.34 638.01 221.75 666.78 251.32 672.41 Z" id="31050890"/>
</g>
</svg>