<?xml version="1.0"?>
<svg xmlns="http://www.w3.org/2000/svg" version="1.2" baseProfile="tiny" width="800" height="647" viewBox="0 0 800 647" stroke-linecap="round" stroke-linejoin="round">
<g id="dong">
<path d="M 678.66 451.89 680.99 453.47 681.65 455.68 679.33 460.65 680.09 463.49 681.84 464.73 685.62 464.48 687.88 465.67 689.55 469.83 691.51 473.01 693.9 475.72 691.92 476.85 691.18 478.04 689.56 478.38 687.38 481.81 685.9 487.98 685.33 489 680.62 488.94 676.82 492.26 677.03 494.62 676.58 502.38 679.2 503.77 680.93 505.72 685.85 505.8 690.47 508.85 690.47 510.26 687.76 513.3 684.13 516.86 682.76 518.57 680.99 519.6 680.88 521.77 677.89 522.88 677.85 527.57 675.89 533.7 676.26 534.96 675.27 537.79 673.73 538.31 671.17 537.79 667.07 534.95 665.26 532.09 662.63 528.98 658.83 526.13 654.92 523.58 653.75 524.13 650.55 528.3 645.73 532.29 642.81 533.87 637.77 537.84 635.6 541.14 630.86 544.52 629.12 547.78 628.15 547.02 628.51 544.65 626.67 542.85 623.71 542.35 620.01 544.26 618.23 544.4 616.93 543.45 617.27 539.7 615.59 538.2 613.23 538.89 610.81 539.04 607.38 541.53 604.19 544.84 602.13 544.96 597.67 546.59 598.05 548.31 595.95 551.07 593.21 552.18 591.46 551.96 590.76 550.85 587.88 550.58 585.92 552.47 583.77 556.71 582.74 556.89 577.17 560.22 575.01 560.71 572.7 562.17 569.18 562.19 563.99 560.92 561.32 563.27 556.73 564.4 552.63 564.22 550.63 564.75 549.14 566.74 548.75 568.55 545.69 569.2 545.38 571.42 543.55 572.25 542.61 574.1 540.98 574.35 537.99 575.63 536.63 575.61 534.84 573.66 532.81 574.37 530.37 574.47 529.35 573.64 526.32 574.05 522.74 569.77 520.86 569.14 518.31 569.05 516.59 567.4 515.78 564.49 516.77 561.96 516.54 559.42 514.99 558.79 512.08 561.19 508.22 559.14 507.4 558.07 504.54 556.42 503.37 556.35 500.25 558.48 496.83 559.62 495.48 559.29 495.05 557.48 493.73 555.27 492.26 555.04 489.71 555.72 487.24 555.53 486.24 556.89 487.16 559.65 485.05 559.71 481.58 557.5 479.31 557.03 478.51 557.56 477.89 560.11 476.99 561.09 473.09 561.17 470.74 560.7 467.58 558.22 461.13 556.51 456.74 558.63 453.35 561.41 440.63 564.13 440.25 564.48 439.7 544.09 439.63 539.16 438.29 528.61 435.94 516.88 430.45 495.08 431.44 473.03 430.52 472.04 429.73 467.74 428.91 466.4 428.56 461.74 420.02 453.4 416.59 444.47 418.55 434.26 423.1 424.53 431.74 417.1 434.49 413.79 438.1 411.17 441.7 409.64 444.55 409.03 445.68 411.67 445.86 414.29 450.98 414.71 454.36 415.31 457.89 416.39 462.53 416.08 465.98 415.43 468.01 415.66 467.62 418.62 465.93 424.08 476.52 431.02 483.04 435.18 484.25 434.82 489.05 437.57 489.45 435.14 490.55 435.14 493.83 432.42 513.02 442.18 524.77 441.57 528.03 442.28 536.73 443 535.98 442.1 539.02 441.01 543.26 440.01 545.99 438.34 546.71 436.8 546.92 431.77 547.55 423.91 550.29 416.64 555.85 408.12 571.67 408.48 575.18 406.82 576.88 405.04 579.33 400.53 582.71 396.57 586.1 397.97 593.42 403.42 600.26 403.91 601.78 403.77 605.71 402.4 609.63 402.19 612.56 402.48 609.55 411.45 606.95 413.51 625.65 424.32 626.46 423.94 630.2 420.53 633.91 419.29 637.2 419.25 638.03 422.04 638.54 426.39 639.13 428.52 640.34 430.57 644.81 433.65 644.83 435.24 653.63 440.25 655.49 439.5 661.46 440.61 663.62 439.44 668.78 439.41 670.72 440.09 672.04 441.37 672.58 446.11 673.68 449.46 677.66 451.84 678.66 451.89 Z" id="31070110"/>
<path d="M 357.75 330.87 358.91 330.92 361.79 329.01 364.31 329.34 365.99 331.54 370.77 333.88 372.78 338.86 374.4 339.41 377.58 341.72 378.16 342.74 375.11 344.14 373.61 345.91 372.62 348.12 373.22 350.4 372.95 355.72 371.95 357.44 372.57 363.63 371.96 365.34 373.63 369.03 374.67 369.91 374.54 372.11 375.94 372.83 380.12 372.5 383.66 370.99 385.28 370.7 388.22 371.01 390.43 372.03 391.86 374.55 395.02 374.72 396.36 377.08 398.84 378.85 397.7 381.63 397.38 386.53 395.73 390.13 393.04 393.95 390.23 394.01 388.97 394.61 388.68 397.24 385.03 397.02 384.18 400.22 384.72 403.19 382.99 404.63 379.33 405.72 387.05 431.59 386.72 433.15 387.61 435.87 389.44 437.77 391.16 441.98 391.14 446.96 388.92 449.5 388.94 452.23 390.66 455.99 393.97 459.73 411.15 455.35 420.02 453.4 428.56 461.74 428.91 466.4 429.73 467.74 430.52 472.04 431.44 473.03 430.45 495.08 415.64 489.84 405.82 484.93 401.39 483.21 396.26 483.65 389.51 483.87 380.02 486.79 379.1 487.34 381.68 495.88 379.88 494.82 377.98 500.75 374.8 500.32 375.14 499.14 369.88 496.61 366.13 497.41 365.86 494.97 366.21 489.39 365.13 484.34 359.97 475.27 356.23 471.3 357.6 470.27 359.3 467.94 359.46 466.86 358.23 461.54 356.25 460.88 351.24 457.29 349.43 456.7 343.52 460.44 342.91 461.21 338.36 463.38 335.16 467.57 331.06 467.46 329.34 466.16 325.3 464.27 324.32 461.54 322.77 461.45 321.69 459.57 323.04 458.51 321.7 456.25 320.58 452.45 318.98 453.03 309.79 446.97 307.41 450.9 306.22 456.16 304.74 457.02 304.45 458.36 301.09 456.9 299.87 458.15 298.63 461.01 294.13 459.17 293.52 464.85 291.92 464.27 290.05 460.04 285.64 457.62 283.52 454.36 282.09 446.22 281.53 439.34 279.56 439.79 277.77 439.08 278.18 435.51 277.36 433.97 275.92 434.16 275.59 432.22 273.14 431.41 272.51 432.41 270.5 431.56 269.34 430.12 265.31 430.5 261.93 429.76 260.6 430.06 258.56 424.91 258.39 422.88 258.78 419.24 256.95 419.48 251.6 418.69 253.33 418.51 254.31 416.55 254.94 411.16 256.19 407.99 257.61 407.7 258.63 405.93 259.75 402.14 257.32 401.68 256.3 400.57 259.9 400.47 261.74 398.27 263.21 394.8 263.04 394.06 263.75 389.2 262.41 387.21 263.2 383.93 259.34 378.7 260.72 378.05 265.47 377.16 267.77 375.5 268.09 373.92 272.38 371.58 270.12 366.53 268.94 364.95 262.79 351.19 268.79 347.43 268.99 349.25 273.23 349.5 275.27 352.27 277.93 348.89 279.87 348.94 283.72 347.91 285.28 344.75 287.84 346.36 288.89 348.27 292.86 345.77 294.96 343.22 297.94 343.51 300.9 342.15 300.05 347.44 301.96 347.51 304.76 345.74 307.44 343.52 309.93 343.1 313.52 344.28 316.74 347.16 317.93 345.86 320.57 344.88 318.65 339.81 322.23 337.95 321.68 335.19 322.07 332.43 324.9 330.08 326.68 329.18 329.1 331.01 333.6 329.1 335.39 330.35 337.84 331.04 340.47 330.9 344.42 332.62 348.28 332.43 349.03 330.98 353.68 330.02 355.71 331.64 357.75 330.87 Z" id="31070120"/>
<path d="M 107.66 523.87 118.45 517.81 119.56 519.23 123.77 517.08 131.84 534 130.62 534.52 113.4 540.04 111.04 530.71 108.96 527.36 106.43 528.64 105.52 526.66 107.98 525.27 107.66 523.87 Z M 262.79 351.19 268.94 364.95 270.12 366.53 272.38 371.58 268.09 373.92 267.77 375.5 265.47 377.16 260.72 378.05 259.34 378.7 263.2 383.93 262.41 387.21 263.75 389.2 263.04 394.06 263.21 394.8 261.74 398.27 259.9 400.47 256.3 400.57 257.32 401.68 259.75 402.14 258.63 405.93 257.61 407.7 256.19 407.99 254.94 411.16 254.31 416.55 253.33 418.51 251.6 418.69 244.55 416.78 242.03 418.82 242.03 420.04 240.68 424.09 239.49 426.13 238.67 429.19 237.27 431.24 237.98 435.19 237.99 437.92 237.45 441.29 239.48 447.87 239.54 449.96 238.38 452.88 239.09 454.73 238.75 457.84 240.24 466.29 239.16 467.64 242.07 468.33 245.33 471.43 249.55 474.6 250.74 476.17 251.34 479.74 252.95 483.23 252.1 483.68 254.1 487.15 253.93 489.36 252.27 489.79 250.75 489.28 248.92 490.6 246.69 491.19 242.24 491.36 239.82 493.52 235.58 493.23 233.03 491.75 232.42 493.99 230.48 496.8 228.61 502.24 230.27 505.16 231.05 507.52 232.88 511.08 232.67 512.55 233.28 515.09 236.1 519.38 239.34 521.12 242.93 521.74 245.79 520.96 248.61 518.87 251.13 519.74 252.65 519.14 255.21 519.06 256.53 520.28 255.83 521.77 252.46 525.4 252.91 527.51 251.54 529.29 249.35 530.04 248.56 531.78 248.93 533.89 248.25 535.81 248.98 540.99 249.79 542.55 249.85 545.44 248.84 547.23 247.26 548.25 244.66 551.35 244.81 554.12 246.55 556.59 245.55 557.91 245.55 559.73 243.57 562.1 230.98 553.96 189.12 561.86 185.06 545.82 180.87 542.31 178.75 544.33 171.58 538.67 170.91 538.44 165.38 534.06 167.31 531.63 164.44 529.41 160.26 521.99 152.35 526.38 151.23 526.78 142.11 510.35 140.29 507.96 140.36 507.14 144.92 504.58 142.63 501.55 139.74 496.3 136.16 498.29 112.61 456.29 108.76 449.57 95.86 426.35 96.8 425.9 100.15 421.28 105.66 418 102.89 418.33 99.11 420.95 96.44 424.79 95.4 424.51 90.11 425.09 84.53 422.53 85.07 421.16 89.54 422.98 95.66 407.82 71.62 397.97 67.16 408.98 64.66 414.47 54.67 410.42 58.19 401.73 60.37 400.79 63.26 401.96 65.43 396.64 65.57 395.42 63.89 394.53 54.7 390.83 46.41 391.74 46.77 395.05 45.26 395.21 44.89 391.9 41.43 392.26 41.74 395.83 40.9 395.93 39.83 391.29 34.54 391.26 31.14 398.94 25.48 399.16 22.18 397.31 22.09 396.63 15.84 385.09 10.18 377.62 6.72 377.42 6.67 374.01 8.17 373.85 1.16 365.48 1 364.71 18.68 350.1 23.21 349.52 23.97 349.83 40.97 347.05 41.13 348.94 68.92 348.96 72.84 349.03 81.51 349.13 118.36 349.2 135.57 346.74 154.79 335.96 162.58 327.21 166.43 321.28 171.78 312.6 177.59 302.62 184.31 301.93 196.66 298.59 197.82 298.76 206.03 302.23 216.89 306.43 227.75 307.56 233.86 307.1 235.01 308.77 241.1 311.36 246.99 316.62 248.72 320.32 249.94 321.4 253.43 327.12 254.37 330.1 257.62 338.82 262.79 351.19 Z" fill-rule="evenodd" id="31070130"/>
<path d="M 462.58 200.47 459.2 204.09 457.96 206.25 457.64 208.75 458.24 209.57 463.21 211.64 465.52 213.16 463.1 218.81 460.44 224.1 454.79 225.95 452.38 227.41 450.87 229.34 451.86 231.97 460.71 242.95 463.61 247.07 464.63 249.51 464.43 250.69 461.87 252.71 460.05 252.79 460.1 269.27 457.21 277.59 458.6 286.96 459.5 289 460.82 290.45 462.96 291.12 463.44 293.78 464.5 296.48 466.09 298.87 468.94 301.09 469.7 302.56 467.68 308.59 467 313.06 468.12 314.75 465.04 319.43 462.64 320.23 457.22 321.28 454.31 318.82 453.15 319.13 450.37 316.73 447.5 316.12 444.59 313.15 439.94 310.54 436.62 309.64 434.45 310 433.03 308.72 427.98 308.97 421.88 306.85 418.92 307.34 416.26 308.31 413.88 308.19 412.5 307.45 410.15 308.7 406.33 311.69 402.75 311.1 398.61 312.63 397.17 314.54 395.28 314.76 391.09 313.4 390.6 308.96 389.79 307.12 385.49 306.9 384.24 305.89 383.71 303.88 381.75 304.91 378.41 305.04 373.15 302.67 370.62 301.91 368.97 299.57 365.5 300.1 361.47 301.24 360.77 303.74 359.31 303.46 360.12 301.51 359.36 298.91 356.87 299.04 358.08 323.16 358.9 325.11 357.75 330.87 355.71 331.64 353.68 330.02 349.03 330.98 348.28 332.43 344.42 332.62 340.47 330.9 337.84 331.04 335.39 330.35 333.6 329.1 329.1 331.01 326.68 329.18 324.9 330.08 322.07 332.43 321.68 335.19 322.23 337.95 318.65 339.81 320.57 344.88 317.93 345.86 316.74 347.16 313.52 344.28 309.93 343.1 307.44 343.52 304.76 345.74 301.96 347.51 300.05 347.44 300.9 342.15 297.94 343.51 294.96 343.22 292.86 345.77 288.89 348.27 287.84 346.36 285.28 344.75 283.72 347.91 279.87 348.94 277.93 348.89 275.27 352.27 273.23 349.5 268.99 349.25 268.79 347.43 262.79 351.19 257.62 338.82 254.37 330.1 253.43 327.12 249.94 321.4 248.72 320.32 246.99 316.62 241.1 311.36 235.01 308.77 233.86 307.1 227.75 307.56 216.89 306.43 206.03 302.23 197.82 298.76 196.66 298.59 184.31 301.93 177.59 302.62 181.89 295.22 196.71 268.13 210.85 244.94 220.08 226 223.95 214.6 224.29 207.12 227.51 207.91 235.14 207.26 235.37 207.67 240.68 206.95 244.87 205.06 250.53 203.22 253.97 202.81 255.78 200.11 261.74 198.94 263.07 194.02 268.55 190.21 270.12 189.95 270.27 194.13 269.22 196.19 270.7 200.64 272.63 201.31 274.98 200.85 276.36 201.83 279.85 201.52 280.78 202.12 283.22 202.07 286.23 204.82 286.18 206.66 289.84 210.32 290.96 210.75 293.93 209.6 295.24 210.56 297.01 209.12 299.02 211.73 301.39 212.25 303.8 211.39 305.81 211.59 307.1 209.67 309.73 208.24 316.01 205.7 316.68 204.92 319.41 204.27 319.74 204.89 322.87 206.47 323.23 208.48 324.85 211.59 324.11 212.14 319.89 212.65 320.11 214.5 325.45 213.83 326.34 216.34 325.81 218.81 327.24 219.64 330.64 219.45 332 221.29 341.3 222.22 344.6 223.92 346.01 222.1 349.93 223.37 354.59 222.73 357.57 221.32 361.99 221.46 361.83 217.8 360.94 217.51 359.05 214.88 359.99 210.44 361.68 209.03 361.76 205.49 363.17 203.5 363.09 202.5 365.24 202.07 367.44 202.36 370.6 203.79 377.96 204.03 384.46 201.45 387.11 202.86 388.67 204.41 390.27 204.05 392.44 205.11 394.71 205.39 396.27 204.99 397.58 202.91 399.83 201.54 401.88 196.02 403.96 192.91 405.8 190.86 410.45 191.96 415.98 194.78 416.53 196.16 419.54 197.41 423.03 196.59 426.67 196.4 429.37 196.91 433.02 195.54 438.95 194.94 442.38 196.16 443.99 197.45 443.37 199.39 445.57 200.73 446.93 199.87 449.71 199.15 450.18 197.79 452.67 197.45 456.04 199.49 459.67 199.65 461.94 199.15 462.58 200.47 Z" id="31070140"/>
<path d="M 690.18 3.18 691.68 4.76 691.71 8.41 692.95 8.84 697.3 7.38 700.07 5.73 702.46 5.97 703.49 6.81 705.55 7.07 707.39 3.34 708.89 2.43 712.29 1.98 713.34 1 714.56 1.79 717.66 2.1 720.89 1.22 722.3 3.03 723.85 3.68 725.81 1.19 726.51 1.69 729.3 1.38 730.83 2.03 732.44 1.45 733.37 3.63 731.36 5.33 730.52 6.83 728.51 8.87 727.49 14.87 729.49 15.99 729.49 18.6 730.35 21.85 730.26 23.62 727.46 28.25 727.96 34.69 727.37 36.79 726.36 38.06 727.77 40.83 726.63 42.72 721.94 43.25 717.66 40.83 715.39 40.35 710.71 45.11 710.81 47.41 710.26 49.77 708.22 50.39 705.26 49.99 702.92 50.61 702.44 52.35 702.32 56.25 703.25 57.97 703.44 61.32 704.4 63.76 703.64 65.46 704.57 69.88 703.73 70.74 704.28 73.56 706.62 76.81 709.8 82.29 712.29 88.41 716.78 101.08 720.68 111.43 722.56 116.98 726.05 126.3 727.37 130.44 728.68 133.42 732.84 144.9 734.3 145.21 735.47 148.25 734.8 149.8 735.61 152.36 737.36 153.79 738.1 155.61 736.38 156.21 735.38 157.93 738.44 162.74 739.58 166.03 739.82 168.43 737.79 171.1 737.46 173.21 735.71 176.1 736.71 177.65 734.9 179.35 732.84 179.61 728.35 182.77 726.99 181.98 722.81 181.53 721.13 181.86 719.82 181.07 717.59 182.89 715.44 183.46 711.74 182.17 709.68 183.18 705.74 182.08 704.64 183.18 700.98 181.53 696.95 183.34 695.77 182.87 691.56 183.75 688.46 181.58 687.87 179.54 685.45 179.5 684.52 176.82 680.27 175.53 678.13 175.6 673.8 176.56 673.08 175.84 671.07 176.1 668.5 174.49 666.34 175.21 665.44 172.24 661.98 169.07 660.91 169.55 659.62 168.21 658.32 168.13 656.8 165.01 653.09 165.81 651.06 165.64 650.78 167.07 649.22 167.2 648.68 166.09 644.36 162.53 644.15 160.83 641.47 160.59 641.78 157.49 641.4 155.67 639.54 153.41 640.51 152.41 640.85 149.62 640.61 146.63 639.74 145.01 636.26 141.4 634.65 138.39 632.67 135.57 631.21 136 629.5 137.53 626.88 138.45 619.01 139.22 617.83 138.63 614.07 138.39 611.29 138.85 608.12 140.96 607.87 142.72 604.57 142.81 599.54 142.53 596.38 142.79 592.58 142.4 587.23 140.34 586.95 137.66 582.86 134.84 579.71 135.08 577.85 134.16 576.42 131.63 574.44 130.69 573.27 131.59 573.7 133.06 573.21 137.2 571.55 137.68 569.93 136.7 568.28 136.76 566.08 138.33 564.79 138.31 560.67 136.65 558.25 135.16 559.1 133.34 557.88 128.9 557.02 126.98 559.32 126.64 561 124.44 561.46 120.86 559.69 120.74 559.26 122.58 558.05 123.31 555.96 123.12 554.88 121.94 556.56 119.77 558.11 116.05 558.35 113.25 559.85 111.63 561.44 111.79 565.47 109.47 567.69 109.17 569.54 107.37 573.45 107.44 575.04 106.04 574.96 103.14 574.29 102.01 571.6 100.06 571.31 94.56 572.46 92.64 574.84 91.48 576.78 87.74 579.5 85.42 581.88 79.41 579.46 76.59 580.64 72.61 583.46 69.82 583.88 68.07 582.07 64.1 580.91 63.04 579.01 59.59 577.8 52.53 578.74 51.68 581.57 51.33 584.09 48.11 584.66 45.55 583.29 41.5 583.05 39.27 583.18 35.67 584.97 34.28 587.29 33.23 589.59 30.5 591.59 31.27 593.38 33.32 594.8 34.11 596.54 33.73 599.7 33.9 609.28 34.88 609.66 36.86 612.6 36.79 611.48 40.28 612.27 43.56 611.89 46.12 613.34 47.55 615.04 46.98 617.1 45.45 621.11 48.79 622.64 51.85 625.85 50.73 626.46 52.43 629.26 51.66 630.43 49.75 635.07 47.24 637.51 46.74 639.44 44.99 639.8 51.28 642.38 50.11 646.32 49.94 648.36 47.26 650.12 47.19 655 48.79 657.72 46.86 660.26 45.57 660.52 43.92 663.01 40.16 665.35 40.76 668.77 41.07 664.68 37.27 665.28 35.79 663.27 34.5 657.77 27.56 660.28 26.08 660.59 24.29 664.44 22.52 665.71 20.77 667.57 22.04 670.96 23.26 672.97 23.28 674.41 22.09 678.76 21.97 679.35 20.46 678.49 18.81 678.54 16.85 679.57 15.08 681.89 14.01 683.06 12.6 682.89 10.61 684.04 6.48 686.67 6.88 688.65 4.23 690.18 3.18 Z" id="31070310"/>
<path d="M 583.05 39.27 583.29 41.5 584.66 45.55 584.09 48.11 581.57 51.33 578.74 51.68 577.8 52.53 579.01 59.59 580.91 63.04 582.07 64.1 583.88 68.07 583.46 69.82 580.64 72.61 579.46 76.59 581.88 79.41 579.5 85.42 576.78 87.74 574.84 91.48 572.46 92.64 571.31 94.56 571.6 100.06 574.29 102.01 574.96 103.14 575.04 106.04 573.45 107.44 569.54 107.37 567.69 109.17 565.47 109.47 561.44 111.79 559.85 111.63 558.35 113.25 558.11 116.05 556.56 119.77 554.88 121.94 555.96 123.12 558.05 123.31 559.26 122.58 559.69 120.74 561.46 120.86 561 124.44 559.32 126.64 557.02 126.98 557.88 128.9 559.1 133.34 558.25 135.16 558.75 138.72 560.35 139.49 562.85 144.12 564.48 145.89 566.89 145.73 568.65 148.04 568.14 150.43 565.74 152.66 566.39 156.03 566.49 159.62 565.73 161.17 567.24 164.05 567.48 166.58 568.66 169.76 568.63 172.08 567.9 174.58 569.08 176.49 567.74 178.51 567.81 181.21 568.79 182.86 567.83 185.2 566.85 186.05 564.15 185.36 564.32 182.32 562.89 180.38 562.18 178.17 561.16 178.28 559.58 180.12 557.23 177.23 556.04 174.9 554.18 176.51 551.83 177.62 547.64 181.23 546.65 182.8 543.65 182.41 542.4 182.93 542.45 185.45 539.18 189 537 190.53 533.19 189.05 531.73 188 530.21 187.94 525.89 188.8 523.1 191.49 518.63 191.28 517.29 192.42 517.41 193.92 516.16 195.67 512.35 198.01 509.88 198.54 506.69 196.03 504.47 201 501.34 201.26 497.6 202.63 496.16 202.41 488.75 203.54 485.15 200.22 484.07 198.56 483.79 195.35 482.46 194.08 480.46 193.86 477.43 190.19 476.19 187.31 472.92 189.35 465.56 199.07 464.88 198.71 465.6 196.98 464.71 193.53 463.33 192.48 458.14 190.69 456.3 189.45 454.96 187.7 452.84 183.9 451.4 182.14 451.62 179.5 453.48 179.24 457.59 179.86 461.61 179.83 463.3 178.3 463.18 174.36 460.96 170.01 455.11 163.05 453.91 161.23 452 157.07 451.23 154.49 451.81 152.08 453.74 151.72 462.18 152.91 464.19 153.73 466 156.57 466.98 159.92 468.85 160.83 471.24 158.92 471.88 156.5 471.62 155.11 470.31 153.34 466.29 148.97 461.96 147.42 461.63 145.14 462.56 142.44 467.51 138.62 468.08 135.2 467.49 132.5 465.02 129.03 465.1 127.48 468.11 126.42 467.86 124.25 464.81 123.75 464.86 122.62 467.37 119.95 465.45 118.68 464.33 116.19 466.05 115.74 466.67 113.92 466.12 110.34 464.47 110.65 462.92 112.13 461.53 110.93 462.18 109.12 461.82 106.99 466.05 107.39 467.05 106.84 467.49 102.4 466.77 101.35 465.12 101.23 462.94 99.58 463.28 97.76 461.41 95.7 462.11 93.41 463.45 92.52 465.24 93.57 471.24 93.41 472.15 91.85 471.55 89.37 470.3 88.82 468.06 90.37 466.51 90.49 464.26 88.67 461.65 88.79 461.29 85.85 459.72 83.72 459.1 81.1 459.88 80.76 463.18 81.89 467.17 82.2 468.58 80.71 469.01 77.87 467.82 77.77 467.27 80.52 465.93 80.64 463.42 79.83 461.65 78.3 460.94 76.58 462.44 75.19 464.33 76.82 466.07 77.27 467.01 75.72 467.63 71.99 466.93 70.53 467.2 68.93 469.95 66.75 470.97 65.03 468.99 61.78 469.71 58.55 468.74 58.25 469.92 56.33 466.31 55.17 466.17 52.48 467.13 51.71 469.8 53.63 471.69 52.88 471.36 51.4 469.78 50.21 469.71 48.22 471.26 47.79 473.65 49.56 474.85 48.17 473.22 46.57 474.41 45.35 479.89 45.66 485.43 44.68 488.87 45.69 490.57 43.85 494.71 43.18 496.71 42.41 499.58 42.67 508.71 40 512.15 37.3 513.99 36.46 516.45 34.62 520.33 33.73 522.64 31.85 524.79 32.49 526.71 32.06 529.84 30.48 534.4 30.32 536.39 26.9 538.49 26.92 543.82 24.98 546.16 24.82 547.21 22.85 548.79 23.52 553.02 23.6 551.73 26.2 550.51 27.54 550.85 30.58 551.8 33.37 554.24 36.74 555.67 38.06 557.75 41.45 561.31 45.3 564.21 47.38 564.76 48.82 566.76 50.44 568.36 48.77 567.43 42 570.16 41.69 573.36 40.35 575.18 40.21 577.49 41.91 579.41 41.02 581.8 41.14 583.05 39.27 Z" id="31070320"/>
<path d="M 551.83 177.62 552.72 181.33 554.38 184.6 557.15 188.14 556.71 189.97 558.23 194.69 560.58 199.68 560.61 204.38 561.87 207.01 559.83 209.69 556.29 212.16 554.68 221.29 551.64 219.78 549.71 219.48 546.21 223.54 542.91 224.36 533.77 222.74 530.62 221.45 527.94 221.45 525.72 222.14 523.67 221.82 521.33 224.12 519.62 225.05 518.28 224.42 515.35 227.49 514.05 229.35 511.73 230.01 508.3 229.58 502.22 233.53 501.78 236.4 501.73 240.64 501.39 242.35 502.28 243.49 502.09 245.75 498.42 247.48 497.72 249.02 497.18 253.45 497.74 257.89 497.51 261.4 497.97 263.75 499.99 267.43 500.73 270.47 500.64 276.38 502.22 277.37 503.6 277.18 504.8 274.91 507.24 274.97 507.24 288.3 507.93 290.9 509.01 292.52 515.22 299.59 516.01 300.86 513.02 303.67 512.09 305.67 512.14 315.66 516.53 314.52 520.86 314.1 526.62 314.05 527.73 313.64 531.9 313.88 532.83 314.47 536.2 314.52 543.36 315.65 553.38 318.33 557.45 318.11 563.55 319.06 568.99 319.12 579.12 318.91 580.27 318.57 586.72 318.75 586.24 322.97 585.65 324.94 586.95 328.5 587.81 333.8 589.94 337.81 591.81 343.51 593.87 346.74 596.27 352.64 598.03 354.08 598.77 357.53 597.46 360.1 599.4 361.52 598.4 362.81 595.47 365.06 593.19 370.43 594.82 374.52 596.2 376.29 594.89 377.42 584.06 379.85 582.55 381.31 579.89 385.63 575.75 389.85 576 390.88 573.64 393.91 570.21 396.45 570.02 399.05 570.84 401.64 564.72 403.5 564.25 405.3 569.72 408.01 571.67 408.48 555.85 408.12 556.39 406.5 554.91 401.75 552.78 398.26 550.64 398.82 548.56 397.97 546.49 390.68 537.72 380.66 536.23 378.2 534.55 374.09 533.19 368.09 537.6 365.5 534.37 362.35 531.69 361.5 530.79 359.65 528.96 358.51 525.84 357.87 522.9 358.29 520.3 360.08 514.94 359.24 510.57 359.67 510.3 360.16 503.03 358.72 503.11 354.78 500.89 354.47 502.71 348.03 504.61 347.29 506.56 345.22 506.58 338.32 506.14 334.53 504.24 329.4 503.4 323.3 501.02 321.42 499.15 320.68 492.22 316.77 489.72 315.1 484.21 309.95 478.89 312.23 477.54 313.44 474.08 314.75 468.12 314.75 467 313.06 467.68 308.59 469.7 302.56 468.94 301.09 466.09 298.87 464.5 296.48 463.44 293.78 462.96 291.12 460.82 290.45 459.5 289 458.6 286.96 457.21 277.59 460.1 269.27 460.05 252.79 461.87 252.71 464.43 250.69 464.63 249.51 463.61 247.07 460.71 242.95 451.86 231.97 450.87 229.34 452.38 227.41 454.79 225.95 460.44 224.1 463.1 218.81 465.52 213.16 463.21 211.64 458.24 209.57 457.64 208.75 457.96 206.25 459.2 204.09 462.58 200.47 464.88 198.71 465.56 199.07 472.92 189.35 476.19 187.31 477.43 190.19 480.46 193.86 482.46 194.08 483.79 195.35 484.07 198.56 485.15 200.22 488.75 203.54 496.16 202.41 497.6 202.63 501.34 201.26 504.47 201 506.69 196.03 509.88 198.54 512.35 198.01 516.16 195.67 517.41 193.92 517.29 192.42 518.63 191.28 523.1 191.49 525.89 188.8 530.21 187.94 531.73 188 533.19 189.05 537 190.53 539.18 189 542.45 185.45 542.4 182.93 543.65 182.41 546.65 182.8 547.64 181.23 551.83 177.62 Z" id="31070330"/>
<path d="M 468.12 314.75 474.08 314.75 477.54 313.44 478.89 312.23 484.21 309.95 489.72 315.1 492.22 316.77 499.15 320.68 501.02 321.42 503.4 323.3 504.24 329.4 506.14 334.53 506.58 338.32 506.56 345.22 504.61 347.29 502.71 348.03 500.89 354.47 503.11 354.78 503.03 358.72 510.3 360.16 510.57 359.67 514.94 359.24 520.3 360.08 522.9 358.29 525.84 357.87 528.96 358.51 530.79 359.65 531.69 361.5 534.37 362.35 537.6 365.5 533.19 368.09 534.55 374.09 536.23 378.2 537.72 380.66 546.49 390.68 548.56 397.97 550.64 398.82 552.78 398.26 554.91 401.75 556.39 406.5 555.85 408.12 550.29 416.64 547.55 423.91 546.92 431.77 546.71 436.8 545.99 438.34 543.26 440.01 539.02 441.01 535.98 442.1 536.73 443 528.03 442.28 524.77 441.57 513.02 442.18 493.83 432.42 490.55 435.14 489.45 435.14 489.05 437.57 484.25 434.82 483.04 435.18 476.52 431.02 465.93 424.08 467.62 418.62 468.01 415.66 465.98 415.43 462.53 416.08 457.89 416.39 454.36 415.31 450.98 414.71 445.86 414.29 445.68 411.67 444.55 409.03 441.7 409.64 438.1 411.17 434.49 413.79 431.74 417.1 423.1 424.53 418.55 434.26 416.59 444.47 420.02 453.4 411.15 455.35 393.97 459.73 390.66 455.99 388.94 452.23 388.92 449.5 391.14 446.96 391.16 441.98 389.44 437.77 387.61 435.87 386.72 433.15 387.05 431.59 379.33 405.72 382.99 404.63 384.72 403.19 384.18 400.22 385.03 397.02 388.68 397.24 388.97 394.61 390.23 394.01 393.04 393.95 395.73 390.13 397.38 386.53 397.7 381.63 398.84 378.85 396.36 377.08 395.02 374.72 391.86 374.55 390.43 372.03 388.22 371.01 385.28 370.7 383.66 370.99 380.12 372.5 375.94 372.83 374.54 372.11 374.67 369.91 373.63 369.03 371.96 365.34 372.57 363.63 371.95 357.44 372.95 355.72 373.22 350.4 372.62 348.12 373.61 345.91 375.11 344.14 378.16 342.74 377.58 341.72 374.4 339.41 372.78 338.86 370.77 333.88 365.99 331.54 364.31 329.34 361.79 329.01 358.91 330.92 357.75 330.87 358.9 325.11 358.08 323.16 356.87 299.04 359.36 298.91 360.12 301.51 359.31 303.46 360.77 303.74 361.47 301.24 365.5 300.1 368.97 299.57 370.62 301.91 373.15 302.67 378.41 305.04 381.75 304.91 383.71 303.88 384.24 305.89 385.49 306.9 389.79 307.12 390.6 308.96 391.09 313.4 395.28 314.76 397.17 314.54 398.61 312.63 402.75 311.1 406.33 311.69 410.15 308.7 412.5 307.45 413.88 308.19 416.26 308.31 418.92 307.34 421.88 306.85 427.98 308.97 433.03 308.72 434.45 310 436.62 309.64 439.94 310.54 444.59 313.15 447.5 316.12 450.37 316.73 453.15 319.13 454.31 318.82 457.22 321.28 462.64 320.23 465.04 319.43 468.12 314.75 Z" id="31070340"/>
<path d="M 251.6 418.69 256.95 419.48 258.78 419.24 258.39 422.88 258.56 424.91 260.6 430.06 261.93 429.76 265.31 430.5 269.34 430.12 270.5 431.56 272.51 432.41 273.14 431.41 275.59 432.22 275.92 434.16 277.36 433.97 278.18 435.51 277.77 439.08 279.56 439.79 281.53 439.34 282.09 446.22 283.52 454.36 285.64 457.62 290.05 460.04 291.92 464.27 293.52 464.85 294.13 459.17 298.63 461.01 299.87 458.15 301.09 456.9 304.45 458.36 304.74 457.02 306.22 456.16 307.41 450.9 309.79 446.97 318.98 453.03 320.58 452.45 321.7 456.25 323.04 458.51 321.69 459.57 322.77 461.45 324.32 461.54 325.3 464.27 329.34 466.16 331.06 467.46 335.16 467.57 338.36 463.38 342.91 461.21 343.52 460.44 349.43 456.7 351.24 457.29 356.25 460.88 358.23 461.54 359.46 466.86 359.3 467.94 357.6 470.27 356.23 471.3 359.97 475.27 365.13 484.34 366.21 489.39 365.86 494.97 366.13 497.41 369.88 496.61 375.14 499.14 374.8 500.32 377.98 500.75 379.88 494.82 381.68 495.88 379.1 487.34 380.02 486.79 389.51 483.87 396.26 483.65 401.39 483.21 405.82 484.93 415.64 489.84 430.45 495.08 435.94 516.88 438.29 528.61 439.63 539.16 439.7 544.09 440.25 564.48 428.34 575.48 415.49 581.7 397.37 587.08 373.86 595.72 342.82 604.3 294.06 633.77 280.37 645.77 278.96 646 275.5 627.04 273.63 627.38 273.44 625.69 271.76 622.46 272.09 618.93 273.78 617.74 272.22 613.99 271.25 613.4 269.95 611.06 269.1 608.46 266.06 609.32 264.95 595.08 265.06 593.15 266.01 590.68 266.61 587.48 266.4 585.37 264.95 582.04 256.97 571.04 254.43 569.14 243.57 562.1 245.55 559.73 245.55 557.91 246.55 556.59 244.81 554.12 244.66 551.35 247.26 548.25 248.84 547.23 249.85 545.44 249.79 542.55 248.98 540.99 248.25 535.81 248.93 533.89 248.56 531.78 249.35 530.04 251.54 529.29 252.91 527.51 252.46 525.4 255.83 521.77 256.53 520.28 255.21 519.06 252.65 519.14 251.13 519.74 248.61 518.87 245.79 520.96 242.93 521.74 239.34 521.12 236.1 519.38 233.28 515.09 232.67 512.55 232.88 511.08 231.05 507.52 230.27 505.16 228.61 502.24 230.48 496.8 232.42 493.99 233.03 491.75 235.58 493.23 239.82 493.52 242.24 491.36 246.69 491.19 248.92 490.6 250.75 489.28 252.27 489.79 253.93 489.36 254.1 487.15 252.1 483.68 252.95 483.23 251.34 479.74 250.74 476.17 249.55 474.6 245.33 471.43 242.07 468.33 239.16 467.64 240.24 466.29 238.75 457.84 239.09 454.73 238.38 452.88 239.54 449.96 239.48 447.87 237.45 441.29 237.99 437.92 237.98 435.19 237.27 431.24 238.67 429.19 239.49 426.13 240.68 424.09 242.03 420.04 242.03 418.82 244.55 416.78 251.6 418.69 Z" id="31070370"/>
<path d="M 631.79 203.79 631.53 207.15 630.71 209.83 629.09 212.13 629.54 215.07 631.78 217.24 631.51 223.39 632.68 227 635.64 230.51 634.95 234.12 635.7 238.07 634.67 239.77 634.58 241.51 636.26 245.15 638.36 247.52 636.97 249.68 634.58 250.43 631.14 250.57 628.06 252.22 625.29 252.13 623.25 253.37 620.81 254.06 620.7 255.63 618.95 257.54 620.15 259.93 622.49 262.04 623.04 263.8 622.03 265.96 621.7 268.81 623.36 269.75 623.94 271.09 625.76 271.1 625.59 274.46 624.38 277.18 619.01 271.96 614.24 276.6 616.53 278.64 619.93 283.61 620.52 285.92 619.5 288.01 620.75 288.6 621.5 296.5 619.52 299.64 619.57 300.8 621.22 303.46 621.74 306.06 621.42 308.32 622.09 309.72 618.97 311.46 617.82 312.59 617.09 304.42 617.98 304.34 617.17 294.49 616.41 290.3 613.94 285.29 611.22 282 604.31 276.23 601.89 274.7 598.32 271.61 588.47 264.02 585.46 261.35 582.67 255.68 581.93 250.99 582.33 244.78 582.1 241.39 582.54 238.18 582.27 235.78 582.75 230.82 584.02 226.31 584.72 219.44 595.23 219.83 595.27 217.07 598.8 217.25 601.96 211.65 602.07 210.78 611.35 211.77 610.61 204.89 613.14 204.56 612.64 202.01 616.65 201.68 617.74 200.49 619.86 201.33 623.45 201.12 626.58 203.05 628.08 202.9 629.17 204.37 631.79 203.79 Z" id="31070510"/>
<path d="M 567.83 185.2 569.35 185.82 570.39 188.08 572.52 187.99 573.62 189.6 575.73 190.93 578.76 191.3 580.69 193.58 583.54 192.6 586.81 192.18 587.44 192.57 589.19 191.5 593.16 190.55 596.69 191.29 597.96 192.73 599.53 191.58 600.46 189.68 602.91 189.36 605.15 191.2 608.96 191.43 610.12 194.38 610.11 195.39 614.42 197.42 617.74 200.49 616.65 201.68 612.64 202.01 613.14 204.56 610.61 204.89 611.35 211.77 602.07 210.78 601.96 211.65 598.8 217.25 595.27 217.07 595.23 219.83 584.72 219.44 585.56 211.07 585.57 208.61 583.09 207.63 579.82 203.3 575.85 198.66 571.52 195.03 563.72 189.28 559.16 188.09 557.15 188.14 554.38 184.6 552.72 181.33 551.83 177.62 554.18 176.51 556.04 174.9 557.23 177.23 559.58 180.12 561.16 178.28 562.18 178.17 562.89 180.38 564.32 182.32 564.15 185.36 566.85 186.05 567.83 185.2 Z" id="31070520"/>
<path d="M 690.17 205.24 691.54 209.26 693.65 210.31 694.53 209.93 696.21 211.75 698.79 212.77 701.27 212.51 703.47 211.15 705.91 212.08 708.49 211.94 710.5 213.01 713.01 212.18 715.9 213.13 716.59 215.24 719.27 215.5 720.13 218.01 722.21 218.25 724.22 220.23 726.87 217.75 728.61 218.39 730.84 217.68 731.67 216.1 737.05 213.11 738.2 214.71 741.11 216.29 743.02 216.6 744.08 219.4 743.12 222 743.77 223.89 746.92 225.9 748.02 227.74 748.04 230.3 746.73 230.61 746.73 232.12 745.82 234.29 742.81 234.91 743.55 237.4 742.26 243.09 742.57 244.12 736.95 246.51 734.8 246.58 733.25 248.95 730.84 250.64 730.05 252.77 728.33 255.45 727.42 257.91 728.66 258.46 728.57 260.47 725.08 262.41 724.26 264.03 721.87 265.18 717.69 269.75 713.08 273.69 709.52 273.43 706.79 275.53 704.91 276.37 704.14 278.57 700.94 281.77 699.17 285.12 699.03 287.1 697.19 287.92 696.18 289.09 695.85 291.53 698.19 294.85 699.5 296.12 698.72 297.43 700.08 299.44 703.35 301.42 704.38 303.46 706.34 305.89 711.5 309 712.08 310.7 711.72 313.47 716.38 312.78 718.44 313.04 717.18 316.12 706.37 322.42 703.06 323.55 698.57 324.37 693.2 324.4 693.16 325.13 684.28 325.05 683.04 326.52 681.19 327.58 679.54 325.43 678.42 326.13 675.91 324.12 665.6 323.68 660.65 323.08 653.98 321.71 650.35 321.01 647.23 320.78 633.48 320.71 630.72 320.29 623.76 320.9 622.81 320.24 620.48 320.43 615.59 321.46 616.19 318.3 614.96 318.07 615.15 316.35 616.13 315.12 617.97 314.3 617.82 312.59 618.97 311.46 622.09 309.72 621.42 308.32 621.74 306.06 621.22 303.46 619.57 300.8 619.52 299.64 621.5 296.5 620.75 288.6 619.5 288.01 620.52 285.92 619.93 283.61 616.53 278.64 614.24 276.6 619.01 271.96 624.38 277.18 625.59 274.46 625.76 271.1 623.94 271.09 623.36 269.75 621.7 268.81 622.03 265.96 623.04 263.8 622.49 262.04 620.15 259.93 618.95 257.54 620.7 255.63 620.81 254.06 623.25 253.37 625.29 252.13 628.06 252.22 631.14 250.57 634.58 250.43 636.97 249.68 638.36 247.52 636.26 245.15 634.58 241.51 634.67 239.77 635.7 238.07 634.95 234.12 635.64 230.51 632.68 227 631.51 223.39 631.78 217.24 629.54 215.07 629.09 212.13 630.71 209.83 631.53 207.15 631.79 203.79 636.08 204.38 637.29 203.89 638.66 201.7 641.33 201.58 644.85 203.12 646.53 201.77 649.24 201.95 652.28 199.46 654.11 199.06 656.26 200.25 657.17 201.72 661.35 201.88 663.62 202.78 664.66 204.3 669.71 201.73 670.37 201.97 672.97 205.15 674.37 204.6 677.33 205.46 678.54 204.13 682.37 204.47 684.13 205.6 688.39 206.22 690.17 205.24 Z" id="31070530"/>
<path d="M 691.56 183.75 691.23 185.07 693.17 187.07 690.23 189.27 688.94 190.73 689.78 191.98 688.87 193.39 689.13 195.04 690.59 196.45 692.88 196.85 692.95 197.9 688.22 202.81 690.17 205.24 688.39 206.22 684.13 205.6 682.37 204.47 678.54 204.13 677.33 205.46 674.37 204.6 672.97 205.15 670.37 201.97 669.71 201.73 664.66 204.3 663.62 202.78 661.35 201.88 657.17 201.72 656.26 200.25 654.11 199.06 652.28 199.46 649.24 201.95 646.53 201.77 644.85 203.12 641.33 201.58 638.66 201.7 637.29 203.89 636.08 204.38 631.79 203.79 629.17 204.37 628.08 202.9 626.58 203.05 623.45 201.12 619.86 201.33 617.74 200.49 614.42 197.42 610.11 195.39 610.12 194.38 611.34 191.3 611.39 188.39 610.91 186.67 605.72 175.72 604.52 172.44 598.67 174.71 592.67 174.93 592.33 171.8 589.63 168.89 587.51 169.31 592.98 153.24 596.38 142.79 599.54 142.53 604.57 142.81 607.87 142.72 608.12 140.96 611.29 138.85 614.07 138.39 617.83 138.63 619.01 139.22 626.88 138.45 629.5 137.53 631.21 136 632.67 135.57 634.65 138.39 636.26 141.4 639.74 145.01 640.61 146.63 640.85 149.62 640.51 152.41 639.54 153.41 641.4 155.67 641.78 157.49 641.47 160.59 644.15 160.83 644.36 162.53 648.68 166.09 649.22 167.2 650.78 167.07 651.06 165.64 653.09 165.81 656.8 165.01 658.32 168.13 659.62 168.21 660.91 169.55 661.98 169.07 665.44 172.24 666.34 175.21 668.5 174.49 671.07 176.1 673.08 175.84 673.8 176.56 678.13 175.6 680.27 175.53 684.52 176.82 685.45 179.5 687.87 179.54 688.46 181.58 691.56 183.75 Z" id="31070560"/>
<path d="M 671.34 402.06 681.08 404.4 702.32 410.02 707.57 411.76 716.35 409.79 721.84 408.38 730.05 407.99 731.1 409.3 729.44 411.19 720.59 416.36 719.14 417.95 719.2 421.45 721.64 422.74 724.56 423 726.82 425.21 729.16 426.71 733.19 425.91 735.5 425.81 736.15 426.44 736.1 430.53 736.25 446.28 738.06 448.72 733.64 452.95 731.48 458.04 730.86 460.33 727.76 462.66 727.23 463.52 723.66 462.08 721.41 461.71 717.48 462.04 714.85 460.55 713.27 456.61 712.08 456.3 710.26 457.81 710.63 461.04 708.78 461.06 708.13 465.47 706.21 467.22 703.83 467.64 701.46 467.43 700.13 468.59 698.94 474.41 696.12 476.04 693.9 475.72 691.51 473.01 689.55 469.83 687.88 465.67 685.62 464.48 681.84 464.73 680.09 463.49 679.33 460.65 681.65 455.68 680.99 453.47 678.66 451.89 681.43 449.54 682.12 447.37 665.79 426.03 654.12 410.93 652.89 411.76 650.26 408.35 651.44 407.44 647.07 401.77 648.02 401.45 651.58 398.74 651.89 397.41 657.57 398.77 671.34 402.06 Z" id="31070590"/>
<path d="M 596.2 376.29 594.82 374.52 593.19 370.43 595.47 365.06 598.4 362.81 599.4 361.52 597.46 360.1 598.77 357.53 598.03 354.08 596.27 352.64 593.87 346.74 591.81 343.51 589.94 337.81 587.81 333.8 586.95 328.5 585.65 324.94 586.24 322.97 586.72 318.75 597.07 318.48 604.51 317.96 609.36 317.22 613.65 316.29 615.15 316.35 614.96 318.07 616.19 318.3 615.59 321.46 620.48 320.43 622.81 320.24 623.76 320.9 630.72 320.29 633.48 320.71 647.23 320.78 650.35 321.01 653.98 321.71 653.99 341.55 654.22 352.7 657.59 351.87 660.24 347.15 667.67 352.46 667.59 355.1 666.9 357.07 667.35 358.02 665.99 361.98 663.73 366.75 659.94 374.39 660.38 376.91 659.88 379.56 655.89 380.48 654.99 382.91 651.7 383.89 649.75 386.34 647.49 386.9 646.87 389.16 640.84 393.03 643.32 396.04 642.98 396.48 627.62 376.71 624.16 377.8 623.22 377.14 620.14 374.72 619.72 373.88 620.26 373.14 607.56 375.15 596.46 376.69 596.2 376.29 Z" id="31070640"/>
<path d="M 760.03 402.62 760.21 406.55 759.64 410.08 757.06 413.02 755.31 416.66 750.25 419.98 749.36 420.22 750.94 423.04 756.99 423.45 761.65 425.24 761.69 430.07 771.73 438.53 770.54 439.99 766.86 439.56 763.73 437.53 761.79 438.63 763.18 440.4 763.27 441.88 759.09 443.36 759.06 444.3 756.44 444.27 756.44 446.21 736.25 446.28 736.1 430.53 736.15 426.44 735.5 425.81 733.19 425.91 729.16 426.71 726.82 425.21 724.56 423 721.64 422.74 719.2 421.45 719.14 417.95 720.59 416.36 729.44 411.19 731.1 409.3 730.05 407.99 721.84 408.38 716.35 409.79 707.57 411.76 702.32 410.02 681.08 404.4 671.34 402.06 673.66 392.21 672.64 390.78 674.55 389.58 678.02 389.7 679.58 388.56 682.52 388.17 684.31 388.55 684.7 387.03 687.17 387.86 687.57 383.45 705.91 387.93 708.54 389 720.26 388.44 721.3 389.98 722.64 388.85 728.42 388.59 731.93 387.89 734.57 386.55 742.24 381.31 741.93 380.44 744 386.24 744.27 387.19 747.37 396.02 749.44 401.61 749.96 402.19 756.38 403.84 760.03 402.62 Z" id="31070650"/>
<path d="M 779.77 360.21 778.79 360.52 774.17 360.28 770.62 361.64 765.68 366 761.88 367.45 759.1 369.75 757.62 372.78 756.21 374.24 752.57 374.57 750.43 375.14 747.88 376.45 741.93 380.44 742.24 381.31 734.57 386.55 731.93 387.89 728.42 388.59 722.64 388.85 721.3 389.98 720.26 388.44 708.54 389 705.91 387.93 687.57 383.45 687.17 387.86 684.7 387.03 684.31 388.55 682.52 388.17 679.58 388.56 678.02 389.7 674.55 389.58 672.64 390.78 673.66 392.21 671.34 402.06 657.57 398.77 659.46 390.82 661.49 381.58 664.51 377.14 664.93 375.34 666.66 373.69 669.27 372.91 670.91 373.25 673.47 371.64 673.82 370.16 675.54 369.15 678.75 367.84 679.17 366.01 681.31 363.11 683.93 360.55 685.87 359.77 689.86 359.78 690.63 358.95 690.71 354.98 692.77 349.63 693.1 347.56 694.82 344.98 696.2 343.8 698.53 343.19 698.34 341.29 700.71 337.04 703.49 337.48 710.4 337.39 712.13 338.04 713.05 336.73 712.87 335.21 715.9 330.94 715.58 329.5 713.71 328.07 713.78 326.21 714.67 323.41 715.03 320.69 717.03 319.79 717.62 318.16 717.18 316.12 718.44 313.04 719.77 313.02 723.76 301.47 725.03 299.44 731.27 291.6 740.11 295.64 740.56 293.94 743.6 295.85 746.13 295.59 748.83 296.24 752.54 296.47 757.58 295.59 760.04 294.68 764.27 295.14 765.92 296.79 769.67 297.86 770.96 299.34 773.12 297.77 777.2 298.08 777.63 300.61 779.5 300.97 781.81 300.61 782.99 301.95 786.02 303.96 787.77 304.2 789.94 305.56 791.97 307.66 795.37 309.46 796.11 310.94 795.29 312.35 795.41 314.24 796.7 315.46 795.39 317.73 795.84 319.23 794.74 320.38 795.61 327.24 794.05 329.61 792.71 329.92 791.14 331.62 789.39 331.88 788.67 333.84 786.81 335.97 785.07 336.69 783.73 338.26 782.2 338.29 780.21 340.3 780 344.98 779.57 346.99 778.34 347.65 779.31 353.85 780.5 355.93 779.33 358.08 779.77 360.21 Z" id="31070670"/>
<path d="M 675.54 369.15 673.63 366.57 663.73 366.75 665.99 361.98 667.35 358.02 666.9 357.07 667.59 355.1 667.67 352.46 660.24 347.15 657.59 351.87 654.22 352.7 653.99 341.55 653.98 321.71 660.65 323.08 665.6 323.68 675.91 324.12 678.42 326.13 679.54 325.43 681.19 327.58 683.04 326.52 684.28 325.05 693.16 325.13 693.2 324.4 698.57 324.37 703.06 323.55 706.37 322.42 717.18 316.12 717.62 318.16 717.03 319.79 715.03 320.69 714.67 323.41 713.78 326.21 713.71 328.07 715.58 329.5 715.9 330.94 712.87 335.21 713.05 336.73 712.13 338.04 710.4 337.39 703.49 337.48 700.71 337.04 698.34 341.29 698.53 343.19 696.2 343.8 694.82 344.98 693.1 347.56 692.77 349.63 690.71 354.98 690.63 358.95 689.86 359.78 685.87 359.77 683.93 360.55 681.31 363.11 679.17 366.01 678.75 367.84 675.54 369.15 Z" id="31070680"/>
<path d="M 584.72 219.44 584.02 226.31 582.75 230.82 582.27 235.78 582.54 238.18 582.1 241.39 582.33 244.78 581.93 250.99 582.67 255.68 585.46 261.35 588.47 264.02 598.32 271.61 601.89 274.7 604.31 276.23 611.22 282 613.94 285.29 616.41 290.3 617.17 294.49 617.98 304.34 617.09 304.42 617.82 312.59 617.97 314.3 616.13 315.12 615.15 316.35 613.65 316.29 609.36 317.22 604.51 317.96 597.07 318.48 586.72 318.75 580.27 318.57 579.12 318.91 568.99 319.12 563.55 319.06 557.45 318.11 553.38 318.33 543.36 315.65 536.2 314.52 532.83 314.47 531.9 313.88 527.73 313.64 526.62 314.05 520.86 314.1 516.53 314.52 512.14 315.66 512.09 305.67 513.02 303.67 516.01 300.86 515.22 299.59 509.01 292.52 507.93 290.9 507.24 288.3 507.24 274.97 504.8 274.91 503.6 277.18 502.22 277.37 500.64 276.38 500.73 270.47 499.99 267.43 497.97 263.75 497.51 261.4 497.74 257.89 497.18 253.45 497.72 249.02 498.42 247.48 502.09 245.75 502.28 243.49 501.39 242.35 501.73 240.64 501.78 236.4 502.22 233.53 508.3 229.58 511.73 230.01 514.05 229.35 515.35 227.49 518.28 224.42 519.62 225.05 521.33 224.12 523.67 221.82 525.72 222.14 527.94 221.45 530.62 221.45 533.77 222.74 542.91 224.36 546.21 223.54 549.71 219.48 551.64 219.78 554.68 221.29 556.29 212.16 559.83 209.69 561.87 207.01 560.61 204.38 560.58 199.68 558.23 194.69 556.71 189.97 557.15 188.14 559.16 188.09 563.72 189.28 571.52 195.03 575.85 198.66 579.82 203.3 583.09 207.63 585.57 208.61 585.56 211.07 584.72 219.44 Z" id="31070690"/>
<path d="M 610.12 194.38 608.96 191.43 605.15 191.2 602.91 189.36 600.46 189.68 599.53 191.58 597.96 192.73 596.69 191.29 593.16 190.55 589.19 191.5 587.44 192.57 586.38 176.98 586.38 173.14 587.51 169.31 589.63 168.89 592.33 171.8 592.67 174.93 598.67 174.71 604.52 172.44 605.72 175.72 610.91 186.67 611.39 188.39 611.34 191.3 610.12 194.38 Z" id="31070550"/>
<path d="M 596.38 142.79 592.98 153.24 587.51 169.31 581.02 170.3 576.87 172.25 568.63 172.08 568.66 169.76 567.48 166.58 567.24 164.05 565.73 161.17 566.49 159.62 566.39 156.03 565.74 152.66 568.14 150.43 568.65 148.04 566.89 145.73 564.48 145.89 562.85 144.12 560.35 139.49 558.75 138.72 558.25 135.16 560.67 136.65 564.79 138.31 566.08 138.33 568.28 136.76 569.93 136.7 571.55 137.68 573.21 137.2 573.7 133.06 573.27 131.59 574.44 130.69 576.42 131.63 577.85 134.16 579.71 135.08 582.86 134.84 586.95 137.66 587.23 140.34 592.58 142.4 596.38 142.79 Z" id="31070570"/>
<path d="M 587.44 192.57 586.81 192.18 583.54 192.6 580.69 193.58 578.76 191.3 575.73 190.93 573.62 189.6 572.52 187.99 570.39 188.08 569.35 185.82 567.83 185.2 568.79 182.86 567.81 181.21 567.74 178.51 569.08 176.49 567.9 174.58 568.63 172.08 576.87 172.25 581.02 170.3 587.51 169.31 586.38 173.14 586.38 176.98 587.44 192.57 Z" id="31070580"/>
<path d="M 642.98 396.48 647.07 401.77 651.44 407.44 650.26 408.35 652.89 411.76 654.12 410.93 665.79 426.03 682.12 447.37 681.43 449.54 678.66 451.89 677.66 451.84 673.68 449.46 672.58 446.11 672.04 441.37 670.72 440.09 668.78 439.41 663.62 439.44 661.46 440.61 655.49 439.5 653.63 440.25 644.83 435.24 644.81 433.65 640.34 430.57 639.13 428.52 638.54 426.39 638.03 422.04 637.2 419.25 633.91 419.29 630.2 420.53 626.46 423.94 625.65 424.32 606.95 413.51 609.55 411.45 612.56 402.48 609.63 402.19 605.71 402.4 601.78 403.77 600.26 403.91 593.42 403.42 586.1 397.97 582.71 396.57 579.33 400.53 576.88 405.04 575.18 406.82 571.67 408.48 569.72 408.01 564.25 405.3 564.72 403.5 570.84 401.64 570.02 399.05 570.21 396.45 573.64 393.91 576 390.88 575.75 389.85 579.89 385.63 582.55 381.31 584.06 379.85 594.89 377.42 596.2 376.29 596.46 376.69 607.56 375.15 620.26 373.14 619.72 373.88 620.14 374.72 623.22 377.14 624.16 377.8 627.62 376.71 642.98 396.48 Z" id="31070600"/>
<path d="M 675.54 369.15 673.82 370.16 673.47 371.64 670.91 373.25 669.27 372.91 666.66 373.69 664.93 375.34 664.51 377.14 661.49 381.58 659.46 390.82 657.57 398.77 651.89 397.41 651.58 398.74 648.02 401.45 647.07 401.77 642.98 396.48 643.32 396.04 640.84 393.03 646.87 389.16 647.49 386.9 649.75 386.34 651.7 383.89 654.99 382.91 655.89 380.48 659.88 379.56 660.38 376.91 659.94 374.39 663.73 366.75 673.63 366.57 675.54 369.15 Z" id="31070610"/>
<path d="M 795.37 377.59 796.37 381.23 797.64 383.64 798.64 387.13 799 390.86 789.51 390.17 778.95 392.25 772.81 397.68 760.03 402.62 756.38 403.84 749.96 402.19 749.44 401.61 747.37 396.02 744.27 387.19 744 386.24 741.93 380.44 747.88 376.45 750.43 375.14 752.57 374.57 756.21 374.24 757.62 372.78 759.1 369.75 761.88 367.45 765.68 366 770.62 361.64 774.17 360.28 778.79 360.52 779.77 360.21 782.22 359.85 782.82 362.12 785.19 362.75 785.62 364.68 787.19 366.79 788.05 368.91 789.3 370.01 792.98 371.85 793.77 374.65 795.37 377.59 Z" id="31070660"/>
</g>
</svg>