<?xml version="1.0"?>
<svg xmlns="http://www.w3.org/2000/svg" version="1.2" baseProfile="tiny" width="800" height="540" viewBox="0 0 800 540" stroke-linecap="round" stroke-linejoin="round">
<g id="dong">
<path d="M 649.85 33.07 652.11 33.07 652.43 73.63 652.43 73.74 652.38 75.76 651.42 112.89 653.15 115.13 651.69 126.31 651.08 166.44 654.29 181.24 651.39 180.88 636.22 174.35 630.8 171.2 621.36 168.7 614.56 163.82 600.8 169.63 584.28 175.34 540.23 157.42 534.37 155.77 526.86 157.31 498.01 176.84 420.94 229.63 420.77 229.75 420.76 228.56 420.85 221.8 420.88 215.28 420.93 213.91 421.03 205.13 421.5 182.22 413.32 148.54 412.41 137.16 416.04 44.67 416.48 44.39 416.87 26.19 416.94 26.13 425.58 25.21 424.86 20.49 426.27 20.34 437.11 19.52 449.29 21.85 458.69 19.57 464.08 24.13 470.55 23.61 478.21 26.61 489.36 26.35 494.79 20.03 500.46 6.42 508.58 9.38 509.7 18.55 518.46 24.4 528.27 22.48 536.37 18.5 543.49 23.12 545.76 29.65 552.91 34.19 566.17 38.99 573.01 39.3 581.35 31.21 597.27 21.07 603.1 23.02 612.06 18.79 614.05 29.45 619.34 32.65 626.15 28.41 642.08 38.15 649.85 33.07 Z" id="31104513"/>
<path d="M 701.51 221.76 704.3 229.32 715.31 234.98 718.16 230.91 767.67 258.1 767.39 258.86 738.62 311.51 686.91 282.95 629.21 251.06 659.82 195.55 673.09 205.96 701.51 221.76 Z" id="31104530"/>
<path d="M 757.65 122.39 757.34 123.23 750.25 138.4 737.83 135.31 693.59 156.61 651.08 166.44 651.69 126.31 653.15 115.13 651.42 112.89 652.38 75.76 652.43 73.74 653.32 74.46 653.33 74.75 682.75 74.76 686.78 71.82 700.53 68.64 706.67 87.96 716.18 101.59 725.13 109.67 730.37 116.97 733.38 126.55 752.86 122.06 756.69 121.8 757.31 121.92 757.65 122.39 Z" id="31104511"/>
<path d="M 686.91 282.95 678.66 297.91 675.11 295.95 671.79 302 675.34 303.96 671.22 311.43 667.67 309.46 656.59 329.54 653.05 327.59 628.41 372.17 627.72 373.42 577.14 345.49 629.21 251.06 686.91 282.95 Z" id="31104560"/>
<path d="M 659.82 195.55 629.21 251.06 577.14 345.49 627.72 373.42 616.13 394.5 608.26 408.67 559.46 381.72 558.26 379.51 500.82 347.9 496.9 352.62 482.85 359.7 469.08 363.74 467.45 359.82 473.06 355.92 476.3 347.24 473.84 336.72 477.67 329.04 477.42 321.29 487.44 315 481.48 311.95 480.16 297.26 486.66 295.38 497.32 279.75 485.35 272.49 483.66 262.19 491.51 250.78 486.86 248.94 479.15 237.49 491.6 229.89 498.05 229.45 496.82 221.1 498.02 212.05 507.19 208.23 520.03 190.06 532.53 184.88 534.96 185.45 543.54 194.55 564.92 191.33 598.37 189.35 620.57 178.1 636.22 174.35 651.39 180.88 659.82 195.55 Z" id="31104570"/>
<path d="M 636.22 174.35 620.57 178.1 598.37 189.35 564.92 191.33 543.54 194.55 534.96 185.45 532.53 184.88 520.03 190.06 507.19 208.23 498.02 212.05 496.82 221.1 498.05 229.45 491.6 229.89 479.15 237.49 486.86 248.94 491.51 250.78 483.66 262.19 485.35 272.49 497.32 279.75 486.66 295.38 480.16 297.26 481.48 311.95 487.44 315 477.42 321.29 477.67 329.04 473.84 336.72 476.3 347.24 473.06 355.92 467.45 359.82 469.08 363.74 482.85 359.7 496.9 352.62 500.82 347.9 558.26 379.51 559.46 381.72 522.45 448.94 540.84 452.66 537.44 473.85 520.52 471.08 487.71 498.6 481.41 506.28 473.28 509.4 459.84 522.53 444.54 539 437.8 532.65 430.64 530.51 421.54 529.91 389.92 526 347.52 502.61 316.2 484.68 273.81 459.67 218.5 427.14 155.41 388.67 165.61 375.8 168.34 370.14 166.24 351.03 168.01 334 167.61 327.52 169.94 320.26 178.85 325.09 183.22 317.25 188.28 326.22 216.21 275.52 218.2 272.75 231.6 284.53 259.37 302.19 256.34 296.18 256.27 261.71 273.38 261.63 273.27 235.66 356.2 235.45 364.97 233.73 381.33 233.59 392.29 248.56 415.77 233.17 420.77 229.75 420.94 229.63 498.01 176.84 526.86 157.31 534.37 155.77 540.23 157.42 584.28 175.34 600.8 169.63 614.56 163.82 621.36 168.7 630.8 171.2 636.22 174.35 Z" id="31104580"/>
<path d="M 416.82 26.21 416.87 26.19 416.48 44.39 416.04 44.67 412.41 137.16 413.32 148.54 421.5 182.22 421.03 205.13 420.93 213.91 420.88 215.28 420.85 221.8 420.76 228.56 420.77 229.75 415.77 233.17 392.29 248.56 381.33 233.59 364.97 233.73 356.2 235.45 273.27 235.66 273.38 261.63 256.27 261.71 256.34 296.18 259.37 302.19 231.6 284.53 218.2 272.75 216.21 275.52 188.28 326.22 183.22 317.25 178.85 325.09 169.94 320.26 167.61 327.52 168.01 334 166.24 351.03 168.34 370.14 165.61 375.8 155.41 388.67 132.25 372.88 64.88 327.78 55.07 321.46 38.44 303.03 31.34 288.01 16.78 262.55 5.8 230.88 1.65 213.06 1 198.73 9.3 151.85 16.41 100.59 24.76 61.95 27.2 61.98 41.4 69.1 71.96 88.4 90.96 101 94.92 107.94 94.87 108.09 120.05 133.48 126.38 141.66 141.08 167.76 146.52 165.99 155.02 155.99 157.45 151.17 165.77 145.67 169.54 141.33 176.06 145.99 186.64 142.99 185.25 137.77 180.14 139.07 175.08 135.81 177.43 124.78 183.19 124.28 201.14 111.38 202.54 107.25 212.67 99.24 218.64 92.76 225.96 96.9 237.3 95.98 241.4 93.69 247.68 94.32 276 76.2 285.08 73.78 288.35 69.84 297.06 67.41 308.46 69.49 314.03 68.98 320.29 65.25 326.23 66.16 338.05 58.89 345.12 47.85 363.15 50.91 381.88 39.46 384.08 32.05 388.44 31.19 392.55 24.86 402.16 24.97 405.26 36.4 411.01 32.87 413.55 26.76 416.82 26.21 Z" id="31104514"/>
<path d="M 701.51 221.76 673.09 205.96 659.82 195.55 651.39 180.88 654.29 181.24 651.08 166.44 693.59 156.61 737.83 135.31 750.25 138.4 746.68 145.82 742.5 162.61 739.89 167.17 729.46 178.84 718.31 186.91 715.35 190.71 714.36 199.84 703.76 219.16 701.51 221.76 Z" id="31104510"/>
<path d="M 799 74.77 785.39 82.99 781.5 88.47 773.27 108.72 765.46 148.78 765.18 152.23 772.39 221.19 772.51 222.44 772.69 224.34 773.86 236.51 771.81 249.47 767.67 258.1 718.16 230.91 715.31 234.98 704.3 229.32 701.51 221.76 703.76 219.16 714.36 199.84 715.35 190.71 718.31 186.91 729.46 178.84 739.89 167.17 742.5 162.61 746.68 145.82 750.25 138.4 757.34 123.23 757.65 122.39 757.83 121.85 771.18 106.19 779.49 85.45 784.76 79.86 794.39 73.91 799 74.77 Z" id="31104520"/>
<path d="M 757.65 122.39 757.31 121.92 756.69 121.8 752.86 122.06 733.38 126.55 730.37 116.97 725.13 109.67 716.18 101.59 706.67 87.96 700.53 68.64 686.78 71.82 682.75 74.76 653.33 74.75 653.32 74.46 652.43 73.74 652.43 73.63 652.11 33.07 664.68 29.5 672.21 24.49 679.36 30.29 678.75 22.36 687.45 15.37 686.51 1 695.33 2.53 706.21 8.23 717.2 16.41 734.37 25.12 738.95 31.89 740.85 42.09 745.9 44.25 748.37 50.74 765.34 64.72 773.31 66.93 781.19 66.49 794.39 73.91 784.76 79.86 779.49 85.45 771.18 106.19 757.83 121.85 757.65 122.39 Z" id="31104512"/>
<path d="M 738.62 311.51 729.25 327.99 727.08 328.6 713.15 353.84 704.63 363.81 693.8 372.23 661.3 397.46 656.27 391.36 646.96 383.03 628.41 372.17 653.05 327.59 656.59 329.54 667.67 309.46 671.22 311.43 675.34 303.96 671.79 302 675.11 295.95 678.66 297.91 686.91 282.95 738.62 311.51 Z" id="31104550"/>
</g>
</svg>