<?xml version="1.0"?>
<svg xmlns="http://www.w3.org/2000/svg" version="1.2" baseProfile="tiny" width="800" height="778" viewBox="0 0 800 778" stroke-linecap="round" stroke-linejoin="round">
<g id="dong">
<path d="M 370.52 439.74 359.67 470.57 353.72 483.12 324.1 528.96 265.3 487.48 280.02 463.86 337.4 383.8 342.28 399.22 329.86 416.95 347.84 429.43 351.42 427.27 370.52 439.74 Z" id="31110530"/>
<path d="M 358.52 339.94 363.73 349.23 380.94 390.28 382.6 401.25 381.6 409.72 370.52 439.74 351.42 427.27 347.84 429.43 329.86 416.95 342.28 399.22 337.4 383.8 311.04 333.23 308.92 327.52 342.28 326.79 358.52 339.94 Z" id="31110540"/>
<path d="M 637.9 28.38 649.59 25.2 656.29 26.44 667.54 32.24 670.67 36.65 680.67 41.9 680.39 51.71 674.78 65.71 673.17 76.61 675.14 84.13 684.01 88.28 684.87 114.7 691.77 119.47 700.79 131.47 704.37 145.78 696.43 156.73 690.17 158.76 689.07 166.28 683.12 170.12 682.48 175.78 691.91 180.65 702.41 196.72 710.08 212.79 710.71 218.54 704.69 229.1 708.13 236.61 705.57 247.18 714.35 254 714.59 261.86 707.7 284.01 703.01 288.3 698 300.62 687.4 309.86 681.18 303.25 664.18 305.86 655.84 302.65 643.69 302.47 640.16 308.49 626.97 309.58 623.23 313.54 603.39 317.74 594.83 315.96 576.55 318.24 572.54 326.91 552.16 341.51 544.08 340.35 532.57 334.34 523.97 332.87 520.89 322.85 521.2 315.63 502.1 314.01 496.63 318.11 489.46 318.52 475.51 307.22 463.99 305.27 451.88 326.38 453.76 331.71 447.96 336.61 441.92 328.85 415.49 377.57 413.54 373.35 379.58 356.04 367.63 347.16 363.73 349.23 358.52 339.94 355.7 326.57 345.5 306.23 323.2 258.56 320.05 260.72 307.84 257.54 291.94 263.49 291.02 269.26 256.96 265.64 246.06 263.47 242.29 265.88 222.55 265.03 202.36 257.51 183.99 242.58 175.05 233.33 159.18 227.71 143.47 218.86 123.54 216.33 121.06 201.13 109.82 194.27 101.18 185.99 111.25 178.52 116.12 168.62 127.27 155.02 156.59 145.93 163.24 139.73 175.35 140.74 199.41 137.92 194.85 125.83 203.94 127.09 217.77 123.87 238.3 122.64 256.96 111.6 264.93 107.47 269.5 96.59 281.84 88.8 285.22 84.36 294.05 86.39 300.5 73.06 309.13 73.92 332 68.69 334 53.8 337.56 47.69 330.62 35.06 330.84 27.54 327.51 13.38 331.85 8.5 341.53 9.08 350.55 6.63 366.21 8.61 375.52 5.6 387.04 7.9 395.72 1 403.55 11.68 407.07 22.74 406.14 33.88 403.05 43.22 407.65 53.48 415.04 60.87 426.77 87.88 437.59 100.79 440.53 112.93 446.99 122.54 452.65 125.94 460.11 136.23 461.67 143.35 475.97 141.9 485.32 144.22 495.68 149.85 505.51 149.22 512.09 145.58 518.16 137.02 523.69 135.1 535.6 139.11 543.5 139.13 549.71 134.83 560.2 134.04 572.1 122.18 595.03 119.35 605.79 109.6 606.96 94.49 622.18 92.01 624.39 88.81 620.53 75.92 632.27 59.06 635.75 45.12 634.2 28.12 637.9 28.38 Z" id="31110550"/>
<path d="M 285.44 579.43 291.16 578.35 294.38 568.02 301.47 562.7 324.1 528.96 353.72 483.12 359.67 470.57 370.52 439.74 381.6 409.72 382.6 401.25 380.94 390.28 363.73 349.23 367.63 347.16 379.58 356.04 413.54 373.35 415.49 377.57 441.92 328.85 447.96 336.61 453.76 331.71 451.88 326.38 463.99 305.27 475.51 307.22 489.46 318.52 496.63 318.11 502.1 314.01 521.2 315.63 520.89 322.85 523.97 332.87 532.57 334.34 544.08 340.35 552.16 341.51 572.54 326.91 576.55 318.24 594.83 315.96 603.39 317.74 623.23 313.54 626.97 309.58 640.16 308.49 643.69 302.47 655.84 302.65 664.18 305.86 681.18 303.25 687.4 309.86 686.36 314.83 690.1 333.37 703.89 341.8 716.53 340.8 722.02 343.23 731.44 342.23 741.01 347.64 744.27 355.27 755.38 363.8 769.59 379.04 771.25 386.36 776.67 393.03 789.22 397.65 791.3 406.87 797.66 413.93 799 429.43 795.73 428.71 782.51 445.19 774.65 446.98 766.55 453.53 753.81 455.47 749.96 458.81 749.09 472.15 750.42 482.63 747.47 493.85 747.35 506.64 753.94 517.32 754.53 526.04 751.2 545.32 757.9 557.74 751.89 563.08 748.52 577.26 750.57 582.53 747.73 595.23 750.23 604.98 742.73 611.19 721.66 620.58 714.68 626 705.6 623.71 685.06 622.87 667.23 629.65 662.43 634.03 645.85 634.45 635.95 637.58 629.38 642.48 619.16 646.13 602.26 646.13 593.92 641.54 563.16 642.38 526.66 632.26 522.39 626.73 506.02 628.51 484.75 624.34 489.13 634.87 474.32 647.18 444.81 642.48 437.2 655.52 436.47 661.36 427.91 664.39 426.98 684.31 420.62 690.57 407.58 693.91 388.5 704.34 380.57 704.23 375.64 711.61 357.88 709.8 352.05 707.56 338.01 693.85 335.16 687.89 323.26 682.41 310.13 664.77 301.7 666.84 284.35 655.36 275.51 647.87 282.23 635.83 281.26 613.26 284.08 594.86 289.2 584.01 285.44 579.43 Z" id="31110560"/>
<path d="M 358.52 339.94 342.28 326.79 308.92 327.52 311.04 333.23 337.4 383.8 280.02 463.86 265.3 487.48 262.62 496.08 261.96 510.04 232.71 514.21 232.82 516.87 184 522.56 163.08 518.05 149.36 517.34 140.88 519.88 128.47 530.22 122.91 538.52 113.89 539.3 98.7 533.03 101.09 523.96 91.89 499.9 89.36 496.64 61.29 477.91 48.44 467.29 29.15 423.04 22.17 381.42 29.88 349.61 43.23 330.83 41.67 319.99 27.78 312.73 27.61 306.94 35.46 298.23 33.13 292 33.48 271.91 29.01 261.47 32.3 249.29 63.43 224.83 90.25 212.43 101.18 185.99 109.82 194.27 121.06 201.13 123.54 216.33 143.47 218.86 159.18 227.71 175.05 233.33 183.99 242.58 202.36 257.51 222.55 265.03 242.29 265.88 246.06 263.47 256.96 265.64 291.02 269.26 291.94 263.49 307.84 257.54 320.05 260.72 323.2 258.56 345.5 306.23 355.7 326.57 358.52 339.94 Z" id="31110510"/>
<path d="M 285.44 579.43 289.2 584.01 284.08 594.86 281.26 613.26 282.23 635.83 275.51 647.87 284.35 655.36 301.7 666.84 310.13 664.77 323.26 682.41 335.16 687.89 338.01 693.85 352.05 707.56 357.88 709.8 375.64 711.61 368.56 718.12 363.61 727.94 358.88 731.51 352.45 728.97 332.34 728.43 322.02 724.21 308.94 726.97 294.75 707.41 291.36 707.26 288.69 696.48 269.26 689.89 257.64 696.2 252.76 692.84 230.27 708.32 224.8 717.15 222.37 728.14 222.8 748.46 218.52 757.71 206.39 764.57 199.05 777 195.48 776.31 193.92 763.9 184.43 760.14 184.95 755.34 178.27 748.88 167.74 749.92 157.11 747 152.54 749.72 154.29 737.61 164.09 729.16 164.61 723.53 155.13 717.06 141.26 713.94 136.56 707.68 141.26 697.87 137.82 692.03 135.21 678.16 138.54 668.88 134.27 660.95 137.92 652.5 132.7 641.65 131.45 632.27 126.24 629.76 121.55 621.73 119.57 608.9 114.56 600.98 97.77 599.1 95.49 597.71 96.5 590.63 101 585.45 112.11 587.95 117.44 578.86 124.05 572.92 143.97 567.61 152.39 568.91 153.76 574.92 169.69 575.57 170.41 586.17 167.63 591.61 167.36 602.73 183.03 606.51 188.45 591.38 195.44 590.7 194.06 600.92 195.9 605.89 209.46 598.11 209.8 602.57 217.57 609.42 236.37 589.3 247.02 583.67 285.44 579.43 Z" id="31110521"/>
<path d="M 285.44 579.43 247.02 583.67 236.37 589.3 217.57 609.42 209.8 602.57 209.46 598.11 195.9 605.89 194.06 600.92 195.44 590.7 188.45 591.38 183.03 606.51 167.36 602.73 167.63 591.61 170.41 586.17 169.69 575.57 153.76 574.92 152.39 568.91 143.97 567.61 124.05 572.92 117.44 578.86 112.11 587.95 101 585.45 96.5 590.63 95.49 597.71 95.37 597.64 90.26 592.63 91.51 586.9 78.58 584.18 69.2 586.27 56.16 584.6 47.82 576.05 35.31 567.71 28.74 565.52 24.46 556.44 15.18 542.78 14.24 530.89 11.12 522.75 12.26 512.53 7.99 499.7 1 488.33 1.21 482.91 9.24 474.88 11.43 463.72 12.51 446.75 17.58 426.38 29.15 423.04 48.44 467.29 61.29 477.91 89.36 496.64 91.89 499.9 101.09 523.96 98.7 533.03 113.89 539.3 122.91 538.52 128.47 530.22 140.88 519.88 149.36 517.34 163.08 518.05 184 522.56 232.82 516.87 232.71 514.21 261.96 510.04 262.62 496.08 265.3 487.48 324.1 528.96 301.47 562.7 294.38 568.02 291.16 578.35 285.44 579.43 Z" id="31110522"/>
</g>
</svg>