<?xml version="1.0"?>
<svg xmlns="http://www.w3.org/2000/svg" version="1.2" baseProfile="tiny" width="800" height="615" viewBox="0 0 800 615" stroke-linecap="round" stroke-linejoin="round">
<g id="dong">
<path d="M 559.27 33.27 558.87 36.57 563.34 37.38 565.77 41.12 568.36 41.82 572.37 41.15 575.8 39.57 578.36 40.17 582.77 39.53 582.87 41.15 585.86 43.04 590.44 47.95 591.18 49.94 595.11 51.06 596.3 50.38 595.89 46.64 597.88 46.47 602.56 43.91 606.77 49.17 608.99 50.62 615.11 49.47 618.24 52.77 625.3 53.62 626.89 60.76 625.78 63.46 626.26 68.18 628.27 70.79 626.47 74.56 626.79 77.7 629.93 79.15 631.26 80.78 628.44 83.7 628.4 85.89 629.67 87.71 632.67 94.08 632.56 95.98 629.89 96.63 630.13 100.43 624.75 105.67 624.06 107.73 624.6 110.08 627.64 113.63 624.21 113.77 621.66 115.15 616.89 121.53 613.83 123.26 610.74 123.61 608.51 125.94 606.91 125.64 602.61 126.78 598.79 126.95 592.63 128.88 589.41 127.43 581.03 129.23 583.02 122.64 584.07 116.47 586.78 109.05 585.13 108.93 582.92 106.26 580.55 101.71 575.75 95.5 574.21 92.28 562.9 96.23 560.36 97.41 547.16 106.04 538.63 111.35 534.7 119.52 535.45 125.85 536.52 126.92 529.15 127.1 521.55 124.58 517.52 122.5 520.38 116.5 511.39 112.17 511.88 105.05 506.3 105.75 504.83 101.97 500.31 99.11 501.23 97.29 499.03 95.61 494.6 87.68 495.36 83.77 493.75 80.72 496.63 72.03 496.67 68.04 497.94 66.08 490.88 58.5 488.84 57.89 490.05 50.66 493.24 48.41 492.34 39.68 490.01 36.86 491.56 34.84 494.94 28.63 496.21 25.5 495.55 20.63 494.34 18.21 495.09 16.27 490.44 9.82 491.44 3.19 495.89 4.47 497.98 4.34 509.62 1 509.72 5.25 512.11 9.86 515.58 11.68 520.16 12.82 520.19 21.72 524.16 26.26 530.83 27.51 533.76 27.61 539.14 25.83 540.66 25.99 545.77 32.36 548.37 32.36 552.81 30.31 559.27 33.27 Z" id="31150510"/>
<path d="M 536.52 126.92 535.58 129.17 535.8 134.91 535.51 139.25 537.27 141.45 536.6 145.72 535.4 147.86 535.67 153.07 534.16 155.43 532.3 162.77 531 166.51 529.17 168.22 527.06 167.79 523.8 165.44 519.87 163.51 517.15 159.42 515.38 160 507.28 159.02 504.67 154.51 502.07 152.82 498.54 151.57 494.27 151.39 490.56 149.62 488.69 154.56 481.17 157.76 477.53 158.24 475 159.61 470.88 158.01 469.28 156.15 469.92 153.8 465.38 153.32 463.68 152.08 467.39 148.32 470.09 141.55 470.29 135.17 468.08 130.25 467.23 123.83 466.09 118.93 464.57 116.79 464.97 114.75 462.94 110.14 461.53 109.07 463.04 106.45 467.69 101.42 470.1 98.03 469.85 96.36 467.8 93.96 468.84 90.33 471.67 87.18 477.98 82.71 491.34 80.73 493.75 80.72 495.36 83.77 494.6 87.68 499.03 95.61 501.23 97.29 500.31 99.11 504.83 101.97 506.3 105.75 511.88 105.05 511.39 112.17 520.38 116.5 517.52 122.5 521.55 124.58 529.15 127.1 536.52 126.92 Z" id="31150520"/>
<path d="M 531 166.51 529.68 170.55 530.13 173.47 533.24 177.46 534.6 180.04 537.9 183.24 539.51 183.88 543.87 183.51 546.27 182.54 548.51 184.78 552.58 185.28 556.46 186.6 555.74 184.41 559.79 183.56 562.84 183.68 565.66 185.04 564.9 195.39 557.61 202.93 557.07 204.05 552.27 209.14 549.44 212.99 546.23 218.98 543.4 220.41 541.8 222.51 534.63 228.51 532.78 232.17 528.75 235.12 522.43 241.84 523.64 245.07 530.58 250.75 521.85 255.8 522.04 259.76 521.54 263.11 518.15 263.04 516.07 260.56 514.13 260.86 518.17 245.95 517.4 245.66 514.55 258.33 513.84 260.28 515.06 262.83 522.37 265.93 521.83 267.84 521.6 274.36 525.18 277.39 524.61 278.91 521.63 280.44 521.49 284.29 524.6 286.82 519.06 291.08 512.66 297.3 510.79 300.48 508.32 301.08 505.75 299.81 498 290.21 496.55 289.43 494.12 290.23 492.69 291.96 491.69 295.22 489.93 295.78 485.23 293.47 480.68 293.15 476.78 288.9 473.84 287.21 470.95 286.82 471.09 289.55 464.83 289.91 461.08 289.22 456.69 290.56 455.49 288.22 457.11 284.85 454.79 280.21 447.81 273.96 437.06 272.66 408.31 268.9 407.24 267.85 403.98 258.5 404.45 255.39 410.27 245.42 411.71 244.13 416.98 244.9 417.55 243.31 416.75 240.36 416.31 234.74 416.58 229.48 417.63 224.88 423 221.19 420.85 217.84 420.64 215.42 423.91 214.23 419.94 205.96 421.98 203.35 416.68 186.54 422.32 184.76 424.94 181.34 428.99 178.56 432.3 177.63 432.89 175 432.15 172.55 433.8 170.89 438.44 173.12 443.57 173.1 450.3 174.17 453.83 172.74 458.64 171.68 460.88 169.84 464.26 168.71 465.69 164.38 468.44 160.2 469.28 156.15 470.88 158.01 475 159.61 477.53 158.24 481.17 157.76 488.69 154.56 490.56 149.62 494.27 151.39 498.54 151.57 502.07 152.82 504.67 154.51 507.28 159.02 515.38 160 517.15 159.42 519.87 163.51 523.8 165.44 527.06 167.79 529.17 168.22 531 166.51 Z" id="31150530"/>
<path d="M 616.89 121.53 619.54 126.16 624.79 126.43 628.72 129.57 633.29 136.81 633.86 138.75 633.72 143.35 632.85 149.78 634.28 154.02 632.52 157.49 636.28 165.36 638.92 167.97 636.7 170.66 631.24 172.51 626.52 175.65 623.77 180.02 620.19 180.94 611.82 181.84 607.13 183.64 605.75 183.4 601.11 184.83 601.99 186.44 604.81 195.6 600.26 197.66 596.55 200.66 594.56 199.28 590.59 199.26 588.3 201.07 584.98 199.32 581.81 196.78 578.43 192.22 576.5 191.04 570.9 192.73 566.92 192.16 564.9 195.39 565.66 185.04 562.84 183.68 559.79 183.56 555.74 184.41 556.46 186.6 552.58 185.28 548.51 184.78 546.27 182.54 543.87 183.51 539.51 183.88 537.9 183.24 534.6 180.04 533.24 177.46 530.13 173.47 529.68 170.55 531 166.51 532.3 162.77 534.16 155.43 535.67 153.07 535.4 147.86 536.6 145.72 537.27 141.45 535.51 139.25 535.8 134.91 535.58 129.17 536.52 126.92 535.45 125.85 534.7 119.52 538.63 111.35 547.16 106.04 560.36 97.41 562.9 96.23 574.21 92.28 575.75 95.5 580.55 101.71 582.92 106.26 585.13 108.93 586.78 109.05 584.07 116.47 583.02 122.64 581.03 129.23 589.41 127.43 592.63 128.88 598.79 126.95 602.61 126.78 606.91 125.64 608.51 125.94 610.74 123.61 613.83 123.26 616.89 121.53 Z" id="31150540"/>
<path d="M 705.4 258.26 701.43 265.21 700.42 266.22 705.25 271.75 705.89 278.68 701.3 280.02 699.22 282.67 700.3 288.37 699.16 292.13 701.53 293.39 702.34 295.82 701.83 300.47 702.04 304.73 700.13 305.82 700.19 308.53 698.88 311.63 695.31 310.87 691.91 313.58 688.56 311.63 678.2 309.3 673.58 310.96 669.36 310.91 666.42 312.73 663.05 312.44 659.22 311.01 650.96 313.6 647.38 312.41 644.1 313.54 638.82 313.62 634.7 311.69 631.15 312.34 631.15 309.7 622.45 313.18 620.07 310.31 615.74 303.4 613.89 298.94 611.67 292.11 608.9 286.29 611.11 277.39 608.39 273.12 606.19 267.92 606.08 265.82 603.42 263.52 602.27 261.54 591.65 259.31 583.65 258.4 579.99 258.42 585.23 252.88 563.14 231.93 543.12 253.2 541.17 253.55 537.76 256.55 531.95 251.9 530.58 250.75 523.64 245.07 522.43 241.84 528.75 235.12 532.78 232.17 534.63 228.51 541.8 222.51 543.4 220.41 546.23 218.98 549.44 212.99 552.27 209.14 557.07 204.05 557.61 202.93 564.9 195.39 566.92 192.16 570.9 192.73 576.5 191.04 578.43 192.22 581.81 196.78 584.98 199.32 588.3 201.07 590.59 199.26 594.56 199.28 596.55 200.66 600.26 197.66 604.81 195.6 601.99 186.44 601.11 184.83 605.75 183.4 607.13 183.64 611.82 181.84 620.19 180.94 623.77 180.02 626.52 175.65 631.24 172.51 636.7 170.66 638.92 167.97 643.55 171.71 640.99 178.01 641.68 183.58 643.47 184.96 643.4 188.98 644.24 191.11 644.27 198.11 645.09 201.75 641.95 202.94 642.32 206.74 643.43 208.44 643.12 213 648.23 215.69 651.84 218.22 652.21 222.53 655.82 226.89 656.96 230.47 660.78 228.35 663.02 228.16 664.61 226.7 666.67 226.8 669.4 233.09 671.73 236.6 673.96 241.53 672.83 246.74 673.28 247.69 677.75 247.11 680.94 248.61 683.48 247.19 690.27 245.68 693.71 246.47 694.51 248.19 698.8 252.4 700.96 252.48 705.4 258.26 Z" id="31150550"/>
<path d="M 720.05 259.18 723.14 259.87 726.82 263.52 733.11 265.48 737.5 265.54 741.39 266.38 744.81 265.37 755.11 265.53 761.49 264.26 766.69 263.94 776.03 265.23 778.78 266.09 783.47 265.74 785.04 264.93 786.06 271.7 787.27 272.92 787 282.83 788.1 285 780.54 288.21 781.91 291.56 782 294.74 783.83 296.23 785.13 301.08 784.94 302.46 786.07 310.97 788.57 312.53 787.8 320.16 789.89 323.49 792.26 334.73 794.86 336.92 793.71 340.8 795.65 343.56 796.58 349.07 797.48 350.43 797.99 356.48 798.97 358.86 799 362.19 796.07 362.06 796.88 365.16 796.24 366.61 792.67 370.38 784.73 374.42 782.57 376.38 780.86 379.64 780.89 381.46 779.41 384.63 775.44 388.03 772.51 391.37 771.13 394.87 766.35 398.34 764.4 401.07 761.64 402.55 756.49 408.04 752.72 408.14 751.2 412.86 749.39 414.68 745.45 416.12 740.3 416.06 734.04 418.08 730.74 418.11 727.24 419.59 725.56 419.46 721.97 423.62 717.34 422.29 714.85 420.47 711.39 419.39 705.73 415.25 705.86 413.56 703.74 410.26 702.77 405.99 698.96 403.76 696.17 406.05 689.54 407.74 686.71 409.93 683.95 410.3 680.22 409.79 679.15 411.08 679.64 409.49 676.55 407.64 674.99 409.39 671.48 410.82 666.77 407.37 665.51 409.89 659.38 412.25 658.91 413.3 653.05 412.99 650.93 415.22 645.88 413.7 645.34 412.15 641.74 407.91 637.91 406.19 636.39 404.81 632.86 404.54 632.62 402.52 630.7 399.96 627.91 399.35 627.03 397.12 622.31 394.85 617.37 394.05 614.16 391.43 616.03 388.2 616.53 382.2 618.09 380.92 620.92 379.93 623.64 380.06 627.09 377.61 627.67 376.35 632.02 374.58 633.5 364 632.24 362.25 631.98 358.64 627.86 355.98 621.85 350.86 620.48 348.92 622.97 339.97 622.66 337.28 624 334.33 624.07 329.69 629.45 329.61 631.11 328.23 635.07 323.28 628.94 318.06 623.69 314.55 622.45 313.18 631.15 309.7 631.15 312.34 634.7 311.69 638.82 313.62 644.1 313.54 647.38 312.41 650.96 313.6 659.22 311.01 663.05 312.44 666.42 312.73 669.36 310.91 673.58 310.96 678.2 309.3 688.56 311.63 691.91 313.58 695.31 310.87 698.88 311.63 700.19 308.53 700.13 305.82 702.04 304.73 701.83 300.47 702.34 295.82 701.53 293.39 699.16 292.13 700.3 288.37 699.22 282.67 701.3 280.02 705.89 278.68 705.25 271.75 700.42 266.22 701.43 265.21 705.4 258.26 715.22 257.91 720.05 259.18 Z" id="31150560"/>
<path d="M 670.57 64.42 671.22 65.85 669.5 70.41 670.32 73.31 669.8 76.19 671.85 78.32 668.15 79.67 668.53 81.69 673.75 83 673.11 85.98 670.19 86.43 669.85 88.93 672.27 89.5 672.34 91.59 673.79 93.05 673.82 95.59 671.32 94.43 669.81 100.37 670.26 102.19 668.98 105.47 669.73 107.77 668.12 113.02 668.75 119.35 667.17 120.67 669.94 123.35 668.15 129.4 668.84 133.98 670.44 135.04 674.58 135.2 678.54 140.19 679.53 142.3 679.85 145.97 677.08 147.37 675.73 153.39 677.45 157.2 680.48 159.66 681.28 165.66 680.12 168.8 680.58 174.16 683.96 176.09 686.16 179.73 688.46 181.47 691.05 185.8 689.01 194.47 690.36 200.71 692.71 203.56 692.99 205.16 691.05 210.24 692.46 214.9 692.35 217.9 693.53 219.96 694.07 225.86 696.45 229.45 700.49 231.63 703.98 232.41 706.02 235.49 708.81 237.97 710.89 238.75 713.52 240.99 713.79 245.2 716.28 247.71 717.15 252.55 719.86 256.67 720.05 259.18 715.22 257.91 705.4 258.26 700.96 252.48 698.8 252.4 694.51 248.19 693.71 246.47 690.27 245.68 683.48 247.19 680.94 248.61 677.75 247.11 673.28 247.69 672.83 246.74 673.96 241.53 671.73 236.6 669.4 233.09 666.67 226.8 664.61 226.7 663.02 228.16 660.78 228.35 656.96 230.47 655.82 226.89 652.21 222.53 651.84 218.22 648.23 215.69 643.12 213 643.43 208.44 642.32 206.74 641.95 202.94 645.09 201.75 644.27 198.11 644.24 191.11 643.4 188.98 643.47 184.96 641.68 183.58 640.99 178.01 643.55 171.71 638.92 167.97 636.28 165.36 632.52 157.49 634.28 154.02 632.85 149.78 633.72 143.35 633.86 138.75 633.29 136.81 628.72 129.57 624.79 126.43 619.54 126.16 616.89 121.53 621.66 115.15 624.21 113.77 627.64 113.63 624.6 110.08 624.06 107.73 624.75 105.67 630.13 100.43 629.89 96.63 632.56 95.98 632.67 94.08 629.67 87.71 628.4 85.89 628.44 83.7 631.26 80.78 629.93 79.15 626.79 77.7 626.47 74.56 628.27 70.79 626.26 68.18 625.78 63.46 626.89 60.76 625.3 53.62 627.26 50.14 632.21 51.09 633.98 49.54 641.29 49.38 643.92 55.83 650.33 51.82 652.09 51.3 654.77 46.52 658.85 48.02 660.7 51.41 664.19 54.8 667.65 53.33 670.24 57.12 667.96 58.6 668.11 60.48 665.64 61.96 666.19 63.32 670.57 64.42 Z" id="31150590"/>
<path d="M 363.71 419.55 363.21 424.56 363.73 427.71 366.37 437.4 367.58 443.37 371.87 448.49 375.5 451.2 378.66 452.51 374.54 457.86 373.35 456.98 355.24 480.48 327.7 515.76 318.5 527.79 299.7 551.74 292.53 561.76 310.36 575.51 328.6 589.85 324.56 595.04 323.55 597.15 320.16 600.86 318.8 603.61 316.89 605.38 315.28 608.22 313.57 609.45 311.12 612.89 309 614 293.87 611.88 287.56 610.19 275.06 605.52 273.31 604.63 268.22 600.52 266.26 600.17 261.39 595.2 249.37 586.02 234.85 574.73 233.46 574.05 213.42 569.7 211.08 569.5 204.03 570.04 202.79 570.91 199.17 571.13 190.84 570.18 188.87 568.04 186.19 568.49 189.06 563.7 186.59 563.31 183.69 558.82 184.08 556.97 182.84 554.56 178.07 547.99 171.75 536.45 169.41 536.68 162.37 539.33 133.15 549.14 106.4 558.49 100.88 560.22 86.27 565.37 64.44 572.79 41.15 580.86 38.5 582.48 29.03 585.76 24.79 586.47 12.5 590.99 6.61 592.41 3.24 592.16 1.34 589.85 1 587.16 2.68 586.54 5.89 587.55 16.7 585.91 40.55 577.86 90.37 560.64 121.45 550 169.49 533.36 216.06 517.37 228.28 512.87 229.12 509.91 231 511 232.29 511.26 233.13 514.63 235.71 517.85 261.9 538.24 269.42 529.33 278.27 517.62 292.42 499.56 319.02 465.33 343.81 434.01 344.82 434.79 359.27 416.21 363.71 419.55 Z" id="31150610"/>
<path d="M 321.64 416.67 343.81 434.01 319.02 465.33 292.42 499.56 278.27 517.62 269.42 529.33 261.9 538.24 235.71 517.85 233.13 514.63 232.29 511.26 231 511 231.95 506.7 231.15 498.46 226.86 496.87 226.75 495.08 215.2 491.52 215.08 487.84 222.65 462.8 223.76 462.32 235.19 464.33 237.95 463.98 250.66 459.57 261.45 456.18 260.32 452.13 257.04 450.14 258.07 448.65 264.54 454.41 266.73 453.15 267.17 451.67 279.95 442.35 281.55 439.62 282.42 435.97 287.19 430.16 289.99 428.79 294.08 428.88 295.99 431.17 296.36 434.1 320.57 416.61 321.64 416.67 Z" id="31150620"/>
<path d="M 441.89 375.38 441.26 376.57 435.64 378.35 433.77 382.18 435.05 385.68 434.12 389.46 437.27 389.13 440.19 391.3 443.67 399.33 442.59 401.73 444.89 404.94 444.13 407.3 441.99 409.27 443.51 414.18 446.94 416.44 448.12 418.96 447.07 429.49 452.74 431.22 452.02 432.33 453.11 438.47 455.79 443.1 460.65 446.37 461.99 445.53 463.99 447.08 465.88 450.73 465.2 454 465.83 455.39 466.08 462.8 464.3 468.3 460.4 468.94 460.93 471.56 462.5 473.39 457.9 475.66 456.63 480.69 457.51 485.67 453.62 486.87 450.29 486.93 445.27 492.73 437.84 491.55 430.39 501.42 379.97 462.16 374.54 457.86 378.66 452.51 375.5 451.2 371.87 448.49 367.58 443.37 366.37 437.4 363.73 427.71 363.21 424.56 363.71 419.55 365.65 418.32 368.22 413.45 376.05 400.8 376.75 397.51 375.38 397.17 360.49 390.82 358.83 389.93 363.4 386.63 366.55 383.45 373.75 368.85 379.02 372.74 380.39 373.23 381.54 369.32 387.6 364.68 395.52 362.87 398.33 361.57 401.94 364.13 407.07 364.57 411.03 363.05 415.07 364.69 417.33 364.24 426.86 364.93 429.85 366.29 430.09 367.54 434.88 371.48 437.85 370.44 441.89 375.38 Z" id="31150640"/>
<path d="M 382.78 336.5 381.18 340.72 377.81 344.37 375.13 352.38 373.75 368.85 366.55 383.45 363.4 386.63 358.83 389.93 358.48 390.17 338.51 374.99 326.48 391.01 307.8 376.72 309.19 373.24 310.78 371.96 315.72 365.1 318.73 361.76 321.96 357.23 323.49 354.19 326.32 351.36 331.44 344.1 337.81 336.17 341.1 331.4 346.73 324.39 351 321.39 354.86 322.33 360.29 325.25 374.72 332.32 382.78 336.5 Z" id="31150740"/>
<path d="M 511.45 377.74 513.93 379.23 518.26 380.24 520.14 379.62 525.41 382.56 529.47 384.02 529.99 387.43 529.18 390.03 530.86 393.43 535.38 395 538.54 396.95 541.88 396.61 546.7 398.94 547.56 401.25 547.65 406.83 548.32 411.58 546.44 413.82 547.37 415.86 546.74 419.9 554.61 424.85 554.8 426.79 553.44 430 550.53 430.33 552.33 434.19 547.96 435.1 544.89 428.74 544.25 430.75 540.99 432.61 540.53 435.22 541.75 439.69 538.44 444.25 532.35 448.7 530.67 449.21 528.78 454.16 526.93 456.18 526.49 458.74 527.5 461.7 527.34 466.28 530.16 475.18 532.05 479.15 534.64 482.45 528.99 486.49 526.56 489.46 523.41 494.38 522.66 496.67 520 499.19 517.37 500.1 511.68 504.52 508.77 508.05 507.58 505.43 507.88 499.4 506.23 494.61 501.49 493.7 500.24 495.29 497.18 494.11 491.83 493.4 487.79 489.63 484.86 488.31 481.36 490.03 477.82 490.61 477.28 487.94 472.91 483.97 469.21 485.96 466.75 488.42 463.25 489.49 459.98 485.72 457.51 485.67 456.63 480.69 457.9 475.66 462.5 473.39 460.93 471.56 460.4 468.94 464.3 468.3 466.08 462.8 465.83 455.39 465.2 454 465.88 450.73 463.99 447.08 461.99 445.53 460.65 446.37 455.79 443.1 453.11 438.47 452.02 432.33 452.74 431.22 447.07 429.49 448.12 418.96 446.94 416.44 443.51 414.18 441.99 409.27 444.13 407.3 444.89 404.94 442.59 401.73 443.67 399.33 440.19 391.3 437.27 389.13 434.12 389.46 435.05 385.68 433.77 382.18 435.64 378.35 441.26 376.57 441.89 375.38 443.74 377.5 444.47 380.49 446.12 381.87 450.38 381.54 452.8 378.65 455.43 379.42 459.08 377.99 460.32 381.07 462.56 382.77 465.44 382.24 467.41 385.07 467.57 387.21 472.46 389.98 474.89 392.92 476.52 393 478.99 391.3 480.84 387.71 483.57 384.65 486.76 384.9 493.44 386.85 495.38 386.55 497.66 388.54 497.27 389.87 500.43 391.45 501.68 390.08 505.73 388.65 507.53 385.85 508.06 382.37 511.45 377.74 Z" id="31150680"/>
<path d="M 478.39 296.05 479.15 314.18 480.4 317.67 478.15 322.95 475.07 327.58 475.15 329.71 473.85 336.32 472.53 339.88 473.71 342.15 473.55 351.21 472.27 354.51 472.69 357.14 475.92 354.68 479.33 354.21 483 355.71 486.74 358.78 493.7 363.55 496.06 366.66 502.04 370.88 506.11 370.29 508.03 371.34 510.01 370.86 511 373.8 511.45 377.74 508.06 382.37 507.53 385.85 505.73 388.65 501.68 390.08 500.43 391.45 497.27 389.87 497.66 388.54 495.38 386.55 493.44 386.85 486.76 384.9 483.57 384.65 480.84 387.71 478.99 391.3 476.52 393 474.89 392.92 472.46 389.98 467.57 387.21 467.41 385.07 465.44 382.24 462.56 382.77 460.32 381.07 459.08 377.99 455.43 379.42 452.8 378.65 450.38 381.54 446.12 381.87 444.47 380.49 443.74 377.5 441.89 375.38 437.85 370.44 434.88 371.48 430.09 367.54 429.85 366.29 426.86 364.93 417.33 364.24 415.07 364.69 411.03 363.05 407.07 364.57 401.94 364.13 398.33 361.57 395.52 362.87 387.6 364.68 381.54 369.32 380.39 373.23 379.02 372.74 373.75 368.85 375.13 352.38 377.81 344.37 381.18 340.72 382.78 336.5 386.66 329.2 389.83 322.38 393.74 317.43 392.15 314.51 390.79 314.78 384.19 328.68 383.29 329.38 376.95 326.27 377.01 324.73 379.51 319.93 369.32 314.88 363.86 318.96 360.52 317.62 358.85 314.56 359.09 310.54 361.13 307.01 375.4 288.82 376.78 288.23 388.17 277.8 390.82 277.04 427.19 283.24 441.95 281.1 444.77 283.02 447.5 292.7 443.45 304.78 445.44 305.47 449.39 293.53 474.44 293.45 478.39 296.05 Z" id="31150690"/>
<path d="M 622.45 313.18 623.69 314.55 628.94 318.06 635.07 323.28 631.11 328.23 629.45 329.61 624.07 329.69 624 334.33 622.66 337.28 622.97 339.97 620.48 348.92 621.85 350.86 627.86 355.98 631.98 358.64 632.24 362.25 633.5 364 632.02 374.58 627.67 376.35 627.09 377.61 623.64 380.06 620.92 379.93 618.09 380.92 609.84 375.67 608.26 372.69 604.11 371.81 603.32 364.27 598.21 360.44 595.26 357.01 597.35 355.64 598.02 350.74 591.81 354.74 578.68 358.55 574.39 359.57 575.04 362.63 574 366.15 566.87 363.33 566.53 365.83 563.69 368.97 558.66 372.83 557.91 375.87 555.56 378.89 554.67 381.62 551.87 386.68 551.15 390.28 546.88 394.63 546.7 398.94 541.88 396.61 538.54 396.95 535.38 395 530.86 393.43 529.18 390.03 529.99 387.43 529.47 384.02 532.17 380.12 534.05 379.58 535.93 376.31 538.26 376.45 540.84 377.9 540.41 380.5 536.87 383 538.84 391.21 541.01 393.58 543.64 392.39 543.16 389.85 548.79 380.38 550.87 383.22 552.08 382.82 553.64 376.46 555.17 368.2 554.8 365.84 553 364.63 550.77 364.85 549.58 361.35 547.32 360.55 545.19 356.5 543.25 351.35 539.02 345.47 538.44 341.64 540.09 339.84 543.74 338.09 549.04 338.24 548.96 332.12 530 333.16 523.13 316.26 523.32 313.57 526.34 303.46 528.16 299.56 530.59 297.44 528.67 292.38 526.59 289.8 526.92 287.22 526.1 285.2 526.66 282.99 524.16 282.37 524.04 280.8 526.21 279.5 526.34 276.77 523.22 273.09 522.84 271.56 523.28 265.77 523.02 262.29 528.22 262.79 532.17 260.53 530.45 259.17 528.25 261.44 523.62 260.44 522.65 257.87 523.78 255.85 530.1 252.11 531.95 251.9 537.76 256.55 541.17 253.55 543.12 253.2 563.14 231.93 585.23 252.88 579.99 258.42 583.65 258.4 591.65 259.31 602.27 261.54 603.42 263.52 606.08 265.82 606.19 267.92 608.39 273.12 611.11 277.39 608.9 286.29 611.67 292.11 613.89 298.94 615.74 303.4 620.07 310.31 622.45 313.18 Z" id="31150700"/>
<path d="M 529.47 384.02 525.41 382.56 520.14 379.62 518.26 380.24 513.93 379.23 511.45 377.74 511 373.8 510.01 370.86 508.03 371.34 506.11 370.29 502.04 370.88 496.06 366.66 493.7 363.55 486.74 358.78 483 355.71 479.33 354.21 475.92 354.68 472.69 357.14 472.27 354.51 473.55 351.21 473.71 342.15 472.53 339.88 473.85 336.32 475.15 329.71 475.07 327.58 478.15 322.95 480.4 317.67 479.15 314.18 478.39 296.05 486.7 301.81 488.44 299.93 492.77 297.13 494.73 291.84 496.84 291.54 498.77 294.41 505.37 301.94 510.5 303.26 514.3 298.08 518.83 294.02 519.63 292.57 524.48 288.61 528.11 293.04 530.59 297.44 528.16 299.56 526.34 303.46 523.32 313.57 523.13 316.26 530 333.16 548.96 332.12 549.04 338.24 543.74 338.09 540.09 339.84 538.44 341.64 539.02 345.47 543.25 351.35 545.19 356.5 547.32 360.55 549.58 361.35 550.77 364.85 553 364.63 554.8 365.84 555.17 368.2 553.64 376.46 552.08 382.82 550.87 383.22 548.79 380.38 543.16 389.85 543.64 392.39 541.01 393.58 538.84 391.21 536.87 383 540.41 380.5 540.84 377.9 538.26 376.45 535.93 376.31 534.05 379.58 532.17 380.12 529.47 384.02 Z" id="31150710"/>
<path d="M 363.71 419.55 359.27 416.21 344.82 434.79 343.81 434.01 321.64 416.67 358.48 390.17 358.83 389.93 360.49 390.82 375.38 397.17 376.75 397.51 376.05 400.8 368.22 413.45 365.65 418.32 363.71 419.55 Z" id="31150720"/>
<path d="M 374.54 457.86 379.97 462.16 430.39 501.42 428.38 503.57 406.21 518.69 404.11 522.81 398.82 549.15 398.96 552.38 395.73 552.79 371.9 534.23 328.6 589.85 310.36 575.51 292.53 561.76 299.7 551.74 318.5 527.79 327.7 515.76 355.24 480.48 373.35 456.98 374.54 457.86 Z" id="31150650"/>
<path d="M 618.09 380.92 616.53 382.2 616.03 388.2 614.16 391.43 617.37 394.05 622.31 394.85 627.03 397.12 627.91 399.35 626.29 403.39 623.9 403.7 619.56 406.96 616.5 414.58 613.2 415.08 611.28 417.41 611.42 420.84 610 424.21 604.82 429.9 605.12 434.08 603.84 437.28 600.58 434.96 599.06 432.7 595.83 431.76 591.39 434.72 589.77 437.7 586.85 437.79 583.82 439.81 577.93 437.45 574.59 441.79 572.81 445.47 569.48 447.12 566.99 446.48 566.41 445.06 559.18 442.13 557.12 443.45 554.5 442.23 549.92 443.24 548.71 444.86 545.85 445.97 544.2 443.85 544.03 441.83 541.75 439.69 540.53 435.22 540.99 432.61 544.25 430.75 544.89 428.74 547.96 435.1 552.33 434.19 550.53 430.33 553.44 430 554.8 426.79 554.61 424.85 546.74 419.9 547.37 415.86 546.44 413.82 548.32 411.58 547.65 406.83 547.56 401.25 546.7 398.94 546.88 394.63 551.15 390.28 551.87 386.68 554.67 381.62 555.56 378.89 557.91 375.87 558.66 372.83 563.69 368.97 566.53 365.83 566.87 363.33 574 366.15 575.04 362.63 574.39 359.57 578.68 358.55 591.81 354.74 598.02 350.74 597.35 355.64 595.26 357.01 598.21 360.44 603.32 364.27 604.11 371.81 608.26 372.69 609.84 375.67 618.09 380.92 Z" id="31150670"/>
<path d="M 321.64 416.67 320.57 416.61 296.36 434.1 295.99 431.17 294.08 428.88 289.99 428.79 287.19 430.16 282.42 435.97 281.55 439.62 279.95 442.35 267.17 451.67 266.73 453.15 261.74 448.24 258.68 444.57 259.32 439.95 273.33 421.64 282.25 409.78 283.71 407.2 300.21 385.3 301.96 384.47 306.56 377.39 307.8 376.72 326.48 391.01 338.51 374.99 358.48 390.17 321.64 416.67 Z" id="31150750"/>
</g>
</svg>