<?xml version="1.0"?>
<svg xmlns="http://www.w3.org/2000/svg" version="1.2" baseProfile="tiny" width="800" height="848" viewBox="0 0 800 848" stroke-linecap="round" stroke-linejoin="round">
<g id="dong">
<path d="M 665.15 396.02 677.8 406.22 684.56 410.51 712.14 424.26 716.32 427.22 732.47 433.89 761.89 451.42 774.55 458.02 791.56 482.28 792.99 485.82 798.1 510.78 799 531.63 787.39 531.65 782.74 538.59 778.5 539.83 769.33 540.36 767.69 544.42 764.23 545.93 760.1 551.55 756.66 553.13 754.43 559.61 756.13 563.82 746.74 572.74 738.38 572.99 731.28 575.41 727.5 578.82 719.36 577.36 705.6 586.53 687.66 584.67 684.47 583.37 674.19 582.75 670.04 580.27 628.9 587.74 630.1 592.23 623.75 602.89 621.4 608.93 627.31 622.81 629.45 629.57 631.99 647.91 631.59 651.88 636.67 659.84 647.54 668.05 647.11 673.51 650.3 681.1 653.56 684.54 654.21 692.63 651.05 701.12 642.25 710.75 636.46 709.76 627.66 720.06 623.22 726.31 623.72 733.96 618.18 734.05 606.37 730.95 599.71 725.56 595.93 725.37 583.85 727.26 573.44 733.8 575.77 739.75 577.25 757.32 587.32 761.81 586.27 772.78 578.55 778.73 578.86 784.03 573.19 792.4 563.81 792.36 556.09 790.23 544.69 793.51 542.06 796.3 539.02 792.21 532.55 790.6 522.57 789.95 518.3 787.1 514.12 786.48 508.17 787.93 501.29 787.59 496.3 786.04 485.68 786.42 483.45 783.29 478.02 780.72 472.45 770.4 463.62 771.14 457.17 773 455.28 771.14 446.98 769.59 441.99 762.84 441.78 759.49 435.77 755.49 427.8 759.31 417.7 756.77 415.23 753.42 406.27 756.42 401.75 756.36 387.16 761.48 383.35 759.99 372.04 762.44 366.62 766.84 363.21 765.69 357.54 767.3 352.21 765.38 347.38 757.23 347.97 749.8 342.11 748.84 340.02 741.29 342.63 737.34 344.02 729.88 347.34 724.97 345.01 722.71 353.24 708.36 353.11 699.77 356.47 694.08 354.19 688.86 351.11 675.32 354.07 671.94 363.18 664.58 364.54 648.87 366.55 639.9 363.06 634.7 366.55 630.48 371.01 621.83 377.6 618.8 380.18 619.82 392.55 615.9 397.49 610.66 403.03 609.91 408.74 605.51 415.42 603.13 418.33 595.98 414.52 587.17 416.63 583.75 414.04 574.69 411.07 568.63 402.09 563.2 403.94 556.33 397.67 550.69 392.29 539.99 396.26 539.21 401.41 535.64 402.97 526.48 400.31 510.47 397.59 505.03 401.22 495.59 397.9 484.26 401.24 475.7 402.41 463.24 394.24 452.99 391.36 451.97 385.56 446.64 383.54 442.33 386.76 437.97 377.09 438.19 373.59 435.61 366.81 435.52 357.25 443.19 348.75 444.95 340.31 442.39 333.93 446.29 329.3 447.37 320.09 455.21 318.67 448.46 320.95 439.26 322.68 437.7 327.54 433.66 327.33 418.79 331.03 409.78 349.38 407.35 356.82 404.91 359.42 389.36 363.3 389.28 372.25 383.91 377.53 382.99 383.13 383.74 391.68 388.08 403.05 381.29 409.1 388.73 417.19 377.95 426.92 368.46 430.38 366.46 438.01 365.82 440.81 368.81 452.76 387.24 454.99 388.79 477.89 396.47 482.55 392.81 485.33 383.56 489.41 376.76 493.6 373.88 489.11 364.65 482.22 359.47 475.11 349.57 467.12 342.82 476.93 319.17 473.25 316.13 465.27 312.8 470.25 305.06 464.97 301.41 464.93 284.57 527.36 284.4 534.41 306.66 537.88 313.33 552.93 329.44 560.02 336.14 579.69 343.74 585.47 345.43 601.59 355.1 610.21 359.35 622.85 367.63 650.69 383.58 665.15 396.02 Z" id="31180510"/>
<path d="M 527.36 284.4 464.93 284.57 464.97 301.41 470.25 305.06 465.27 312.8 473.25 316.13 476.93 319.17 467.12 342.82 475.11 349.57 482.22 359.47 489.11 364.65 493.6 373.88 489.41 376.76 485.33 383.56 482.55 392.81 477.89 396.47 454.99 388.79 452.76 387.24 440.81 368.81 438.01 365.82 430.38 366.46 426.92 368.46 417.19 377.95 409.1 388.73 403.05 381.29 391.68 388.08 383.13 383.74 377.53 382.99 373.34 379.36 377.53 374.13 388.2 358.24 379.62 351.73 365.02 342.79 369.81 332.14 383.7 314.74 399.35 293.6 400.24 280.71 398.92 278.43 387.2 271.94 393.17 265.59 396.86 264.37 402.91 259.94 412.99 269.45 433.95 284.64 436.74 286.06 446.79 266.62 445.59 259.83 433.88 259.86 433.69 185.5 449.77 185.45 456.75 188.32 485.58 197.54 498.02 212.88 505.32 219.66 508.16 224.68 518.31 248.88 527.36 284.4 Z" id="31180530"/>
<path d="M 343.23 365.15 352.35 369.82 351.83 372.44 357.28 374.51 362.32 378.1 367.91 378.96 372.25 383.91 363.3 389.28 359.42 389.36 356.82 404.91 349.38 407.35 331.03 409.78 327.33 418.79 327.54 433.66 322.68 437.7 319.47 431.14 321.28 425.62 317.68 421.06 312.06 418.67 311.62 413.91 303.44 407.72 294.72 410.61 290.38 410.11 283.07 404.92 277.46 403.1 282.29 393.24 281.03 391.14 281.56 365.85 281.87 363.62 294.81 353.2 297.74 357.5 304.85 363.13 309.73 364.78 312.25 370.9 317.19 371.73 323.1 376.87 330 379.96 332.34 371.85 340.25 373.26 342.54 370.73 343.23 365.15 Z" id="31180540"/>
<path d="M 377.53 382.99 372.25 383.91 367.91 378.96 362.32 378.1 357.28 374.51 351.83 372.44 352.35 369.82 353.59 359.39 355.89 356.24 363.51 351.5 365.02 342.79 379.62 351.73 388.2 358.24 377.53 374.13 373.34 379.36 377.53 382.99 Z" id="31180520"/>
<path d="M 343.23 365.15 342.54 370.73 340.25 373.26 332.34 371.85 330 379.96 323.1 376.87 317.19 371.73 312.25 370.9 309.73 364.78 304.85 363.13 297.74 357.5 294.81 353.2 296.42 351.36 309.68 348.42 310.92 344.14 310.72 334.87 313.52 330.06 312.98 327.39 316.24 320.86 316.31 316.26 319.64 311.36 318.24 315.32 320.71 318.99 324.88 313.92 331.97 315.7 333.23 318.54 332.62 324.75 350.43 335.66 337.37 356.73 343.23 365.15 Z" id="31180550"/>
<path d="M 402.91 259.94 396.86 264.37 393.17 265.59 387.2 271.94 398.92 278.43 400.24 280.71 399.35 293.6 383.7 314.74 369.81 332.14 365.02 342.79 363.51 351.5 355.89 356.24 353.59 359.39 352.35 369.82 343.23 365.15 337.37 356.73 350.43 335.66 332.62 324.75 333.23 318.54 331.97 315.7 324.88 313.92 320.71 318.99 318.24 315.32 319.64 311.36 321.13 304.68 320.36 294.7 316.65 295.57 310.52 300.24 310.39 296.1 317.64 288.91 320.39 279.29 323.22 274.16 323.32 268.77 319.63 266.91 314.34 275.02 306.92 271.15 312.89 266.72 314.23 263.36 308.85 260.87 305.21 265.39 298.89 268.97 295.23 272.54 289.94 264.82 316.91 250.95 319.65 246.2 347.56 217.95 353.94 210.97 357.37 209.23 364.2 208.4 371.82 218.97 375.71 227.56 388.06 243.68 402.91 259.94 Z" id="31180560"/>
<path d="M 322.68 437.7 320.95 439.26 318.67 448.46 320.09 455.21 329.3 447.37 333.93 446.29 340.31 442.39 348.75 444.95 357.25 443.19 366.81 435.52 373.59 435.61 377.09 438.19 386.76 437.97 383.54 442.33 385.56 446.64 391.36 451.97 394.24 452.99 402.41 463.24 401.24 475.7 397.9 484.26 401.22 495.59 397.59 505.03 400.31 510.47 402.97 526.48 401.41 535.64 396.26 539.21 392.29 539.99 397.67 550.69 403.94 556.33 402.09 563.2 411.07 568.63 414.04 574.69 416.63 583.75 414.52 587.17 418.33 595.98 415.42 603.13 408.74 605.51 403.03 609.91 397.49 610.66 392.55 615.9 380.18 619.82 377.6 618.8 371.01 621.83 366.55 630.48 363.06 634.7 366.55 639.9 364.54 648.87 363.18 664.58 354.07 671.94 351.11 675.32 354.19 688.86 356.47 694.08 353.11 699.77 353.24 708.36 345.01 722.71 347.34 724.97 344.02 729.88 342.63 737.34 340.02 741.29 339.17 743.66 331.45 745.61 335.3 753.58 330.15 764.85 327.15 769.66 321.29 772.2 311.07 770.28 307.6 765.75 296.48 760.08 292.7 759.62 285.08 764.67 277.24 764.82 270.8 767.27 266.52 766.96 261.04 762.07 257.63 764.14 251.4 761.63 247.83 757.46 244.46 746.79 235.82 741.8 228.07 739.48 224.98 740.1 219.74 736.47 213.82 735.33 211.56 732.69 213.51 720.36 207.86 720.12 197.54 710.93 196.74 705.67 199.58 701.57 196.79 686.99 198.36 675.07 195.17 672.38 194.76 668.74 197.32 664.7 197.11 659.9 199.32 657.68 197.13 653.52 198.56 649.44 194.54 645.95 192.22 638.61 192.4 633.82 198.25 626.95 200.96 625.53 202.52 619.73 205.42 617.6 205.85 606.15 211.37 598.84 217.38 592.64 223.21 580.07 221.41 567.04 223.81 562.03 224.86 550.51 221.01 540.09 222.95 534.32 219.37 525.01 213.23 515.26 212.74 509.27 213.53 500.97 208.51 493.95 208.9 487.06 213.1 479.14 213.83 474.28 216.84 469.65 222.3 468 226.48 462.09 228.11 455.75 231.18 453.62 231.81 447.07 236.15 442.61 242.84 443.2 247.23 440.34 254.6 429.16 255.62 423.77 263.69 417.21 269.97 415.16 275.49 410.34 277.46 403.1 283.07 404.92 290.38 410.11 294.72 410.61 303.44 407.72 311.62 413.91 312.06 418.67 317.68 421.06 321.28 425.62 319.47 431.14 322.68 437.7 Z" id="31180590"/>
<path d="M 238.95 321.38 243.22 325.83 248.18 333.61 259.02 335.63 260.62 345.2 258.22 349.85 258.17 354.99 260.45 357.29 261.45 363.81 267.74 364.69 271.24 363.65 281.56 365.85 281.03 391.14 282.29 393.24 277.46 403.1 275.49 410.34 269.97 415.16 263.69 417.21 255.62 423.77 254.6 429.16 247.23 440.34 242.84 443.2 236.15 442.61 231.81 447.07 231.18 453.62 228.11 455.75 226.48 462.09 222.3 468 216.84 469.65 213.83 474.28 213.1 479.14 210.16 479.45 198.42 486.57 195.71 490.03 193.1 501.82 189.06 508.01 174.25 514.34 163.67 504.55 163.98 483.29 170.31 480.56 170.15 474.41 162.58 474.26 165.77 459.02 157.49 458.85 147.4 463.51 136.67 463.03 127.71 460.54 124.23 457.11 117.85 454.4 119.79 448.88 125.55 445.2 123.21 438.03 124.2 433.31 122.2 427.02 123.06 423.76 110.3 410.06 109.58 406.06 105.93 401.79 98.01 402.76 94.54 407.6 88.34 408.83 87.14 413.34 75.98 415.01 76.99 412.81 74.97 400.81 77.44 394.96 80.21 392.52 84.22 383.25 87.92 377.44 91.21 374.77 97.27 362.22 105.19 352.2 107.83 350.11 110.63 346.76 119.44 333.36 127.38 322.82 138.37 325.27 139.07 326.86 146.42 327.87 148.27 321.33 158.37 321.69 163.53 324.04 176.35 319 186.27 318.48 188.44 320.6 196.12 321.21 197.33 318.38 202.01 317.43 215.89 311.82 226.44 311.71 231.63 317.58 238.95 321.38 Z" id="31180600"/>
<path d="M 316.91 250.95 289.94 264.82 295.23 272.54 298.89 268.97 305.21 265.39 308.85 260.87 314.23 263.36 312.89 266.72 306.92 271.15 314.34 275.02 319.63 266.91 323.32 268.77 323.22 274.16 320.39 279.29 317.64 288.91 310.39 296.1 310.52 300.24 316.65 295.57 320.36 294.7 321.13 304.68 319.64 311.36 316.31 316.26 316.24 320.86 312.98 327.39 313.52 330.06 310.72 334.87 310.92 344.14 309.68 348.42 296.42 351.36 294.81 353.2 281.87 363.62 281.56 365.85 271.24 363.65 267.74 364.69 261.45 363.81 260.45 357.29 258.17 354.99 258.22 349.85 260.62 345.2 259.02 335.63 248.18 333.61 243.22 325.83 238.95 321.38 240.35 318.6 235.03 313.31 234.19 302.78 235.21 297.16 235.53 286.55 236.57 280.73 235.55 276.11 228.81 270.93 226.81 267.79 227.64 258.39 227.07 254.34 228.65 246.95 227.92 236.24 229 230.59 229.18 227.46 254.06 220.4 258.97 219.4 278.78 219.14 295.12 213.21 304.35 230.23 316.91 250.95 Z" id="31180611"/>
<path d="M 449.77 185.45 433.69 185.5 433.88 259.86 445.59 259.83 446.79 266.62 436.74 286.06 433.95 284.64 412.99 269.45 402.91 259.94 388.06 243.68 375.71 227.56 371.82 218.97 364.2 208.4 357.37 209.23 353.94 210.97 347.56 217.95 319.65 246.2 316.91 250.95 304.35 230.23 295.12 213.21 278.78 219.14 258.97 219.4 254.06 220.4 229.18 227.46 230.25 221.77 230.29 212.57 225.83 198.66 218.13 184.65 216.36 174.15 262.29 172.61 316.75 155.21 314.95 149.68 307.33 111.47 300.71 86.7 297.61 78.96 293.42 72.99 282.41 65.28 285.55 61.56 291.96 62.18 297.88 65.37 302.06 64.92 308.44 61.89 320.07 67.62 324.45 66.03 332.86 66.88 340.66 72.51 345.13 72.98 350.83 61.78 362.41 46.86 371.54 61.59 402.64 103.71 415.77 113.67 432.56 121.73 438.33 127.13 438.08 160.65 439.35 171.74 440.82 175.23 449.77 185.45 Z" id="31180620"/>
<path d="M 353.56 33.96 362.41 46.86 350.83 61.78 345.13 72.98 340.66 72.51 332.86 66.88 324.45 66.03 320.07 67.62 308.44 61.89 302.06 64.92 297.88 65.37 291.96 62.18 285.55 61.56 282.41 65.28 293.42 72.99 297.61 78.96 300.71 86.7 307.33 111.47 314.95 149.68 316.75 155.21 262.29 172.61 216.36 174.15 216.19 165.68 214.97 158.09 211.88 152.25 207.4 140.6 207.6 137.8 202.48 128.02 198.02 122.56 195.55 116.99 195.99 111.75 193.58 100.93 194.19 93.17 202.07 86.95 203.48 82.87 203.53 73.64 200.05 74.78 192.33 80.08 174.45 87.02 165.77 88.73 157 88.87 155.78 83.56 167.65 74.88 175.72 67.3 182.15 63.3 202.01 43.96 205.66 39.38 209.89 36.84 219.94 26.7 227.97 13.63 237.2 1.23 247.71 1 249.95 1.72 280.32 3.43 293.7 5.15 309.19 5.48 328.71 12.76 340.27 18.92 353.56 33.96 Z" id="31180630"/>
<path d="M 197.35 737.06 198.95 743.72 195.89 753.05 198.95 763.43 196.6 769.54 193.19 770.78 195.82 778.24 194.55 786.79 195.2 792.12 201.83 795.25 205.24 801.05 213.67 805.38 214.66 813.41 210.66 817.1 208.06 815.61 196.56 824.99 182.43 829.91 176.39 833.49 169.46 842.2 160.03 846.56 153.6 847 146.41 844.4 146.49 842.72 140.99 836.95 130.24 832.62 125.72 832.69 111.97 830.45 103.18 832.14 93.18 830.06 89.56 827.9 80.73 826.53 81.31 814.46 75.83 814.01 38.89 812.71 20.61 811.74 21.41 802.03 24.82 794.04 25.2 788.35 40.41 789.08 42.08 759.03 43.22 753.28 48.76 742.15 51.02 743.25 55.54 736.2 58.32 733.84 75.6 722.31 85.81 714.46 102.57 703.39 97.82 699.84 101.54 696.49 101.16 693.18 103.29 684.4 108.02 678.56 110.8 670.99 109.91 661.82 117.25 669.4 118.43 672.05 125.12 675.8 132.38 676.35 132.82 682.64 136.76 686.48 135.97 690.72 146.45 704.94 151.23 705.56 151.58 708.8 145.04 708.97 135.84 707.59 130.46 713.14 132.39 717.71 139.11 717.31 139.46 722.07 145.04 725.47 140.08 729.45 157.22 728.61 159.25 730.69 165.98 730.6 170.8 732.21 183.08 731.33 186.08 736.39 193.66 738.3 197.35 737.06 Z" id="31180650"/>
<path d="M 213.1 479.14 208.9 487.06 208.51 493.95 213.53 500.97 212.74 509.27 213.23 515.26 219.37 525.01 222.95 534.32 221.01 540.09 224.86 550.51 223.81 562.03 221.41 567.04 223.21 580.07 217.38 592.64 211.37 598.84 205.85 606.15 195.72 599.77 194.95 595.7 190.16 592.24 187.86 586.53 182.14 583.29 179.85 579.17 174.18 579.5 173.99 569.72 171.61 564.8 164.72 556.28 166.7 553.69 161.46 548.43 159.11 543.29 152.84 536.76 145 532.44 140.17 533.97 140.21 528.86 78.55 541.53 69.92 542.81 66.1 538.41 67.07 527.95 58.61 528.52 53.95 527.44 47.8 529.4 28.83 526.18 26.16 525.06 30.64 521.93 28.73 516.64 27.43 510.36 27.03 497.45 32.45 481.51 43.49 480.06 50.11 466.5 53.31 458.42 52.54 455.28 57.71 450.99 64.47 441.82 70.2 436.14 73.5 429.67 72.61 426.38 74.85 423.01 73.95 416.86 75.98 415.01 87.14 413.34 88.34 408.83 94.54 407.6 98.01 402.76 105.93 401.79 109.58 406.06 110.3 410.06 123.06 423.76 122.2 427.02 124.2 433.31 123.21 438.03 125.55 445.2 119.79 448.88 117.85 454.4 124.23 457.11 127.71 460.54 136.67 463.03 147.4 463.51 157.49 458.85 165.77 459.02 162.58 474.26 170.15 474.41 170.31 480.56 163.98 483.29 163.67 504.55 174.25 514.34 189.06 508.01 193.1 501.82 195.71 490.03 198.42 486.57 210.16 479.45 213.1 479.14 Z" id="31180660"/>
<path d="M 26.16 525.06 28.83 526.18 47.8 529.4 53.95 527.44 58.61 528.52 67.07 527.95 66.1 538.41 69.92 542.81 78.55 541.53 140.21 528.86 140.17 533.97 145 532.44 152.84 536.76 159.11 543.29 161.46 548.43 166.7 553.69 164.72 556.28 171.61 564.8 173.99 569.72 174.18 579.5 179.85 579.17 182.14 583.29 187.86 586.53 190.16 592.24 194.95 595.7 195.72 599.77 205.85 606.15 205.42 617.6 202.52 619.73 200.96 625.53 198.25 626.95 192.4 633.82 192.22 638.61 194.54 645.95 198.56 649.44 197.13 653.52 199.32 657.68 197.11 659.9 197.32 664.7 194.76 668.74 195.17 672.38 198.36 675.07 196.79 686.99 199.58 701.57 196.74 705.67 197.54 710.93 207.86 720.12 206.63 728.3 202.73 733.53 196.69 732.97 197.35 737.06 193.66 738.3 186.08 736.39 183.08 731.33 170.8 732.21 165.98 730.6 159.25 730.69 157.22 728.61 140.08 729.45 145.04 725.47 139.46 722.07 139.11 717.31 132.39 717.71 130.46 713.14 135.84 707.59 145.04 708.97 151.58 708.8 151.23 705.56 146.45 704.94 135.97 690.72 136.76 686.48 132.82 682.64 132.38 676.35 125.12 675.8 118.43 672.05 117.25 669.4 109.91 661.82 109.42 654.14 113.85 648.58 113.95 643.11 116.67 637.27 118.21 630.9 113.34 624.76 107.27 622.93 104.35 615.87 98.11 610.45 91.69 619.3 71.35 611.35 67.32 611.94 56.87 599.77 43.14 610.31 40.39 609.14 33.59 610.23 23.45 602.2 19.73 602.08 6.5 594.74 5.4 591.34 9.25 586.32 2.66 578.64 2.62 575.35 1 573.84 2.79 562.14 6.09 560.95 8.77 547.17 16.68 544.87 20.21 545.39 19.46 537.05 8.37 529.51 4.22 525.53 12.55 524.79 26.16 525.06 Z" id="31180670"/>
</g>
</svg>