<?xml version="1.0"?>
<svg xmlns="http://www.w3.org/2000/svg" version="1.2" baseProfile="tiny" width="800" height="967" viewBox="0 0 800 967" stroke-linecap="round" stroke-linejoin="round">
<g id="dong">
<path d="M 258.47 486.94 259.71 492.37 269.42 501.17 262.36 513.31 260.74 520.42 255.19 524.75 257.36 545.35 252.89 550.86 247.01 552.55 240.78 570.55 245.23 575.49 251.28 575.75 254.14 582.13 266.72 588.79 266.29 596.81 270.38 607.93 281.03 615.36 290 617.1 290.18 636.71 285.02 644.53 284.41 650.38 278.19 660.18 270.55 663.22 270.8 675.04 269.72 682.9 269.02 689.17 263.77 696.37 263.37 701.66 247.2 702.78 239.31 700.28 228.81 701.83 215.08 702.31 211.85 704.05 216.68 710.5 217.79 716.94 215.07 731.29 218.06 743.63 211.5 752.75 211.67 762.22 214.8 780.67 215 791.93 207.25 799.66 198.4 792.36 187.01 786.85 185.51 790.99 170.6 795.26 168.42 792.21 150.38 792.91 145.52 790.51 135.89 789.03 131.54 791.3 125.97 777.94 128.15 766.68 119.65 759.11 114.38 751.32 104.1 745.79 102.94 736.2 104.46 727.96 112.73 719.29 124.17 716.65 122.64 704.8 124.79 692.51 127.88 684.34 120.9 676.22 125.36 673.21 131.13 660.85 127.19 654.02 132.24 647.42 125.89 638.5 129.13 626.31 128.34 624.2 139.08 618.07 139.09 613.88 146.49 604.49 140.97 591.74 139.4 584.14 133.79 586.09 120.16 586.8 118.86 574.34 127.9 555.14 145.06 550.88 157.32 530.37 153.18 511.14 152.22 495.69 147.73 485.84 150.77 481.92 161.53 475.83 173.48 472.81 193.69 474.65 201.91 477.26 251.67 488.21 258.47 486.94 Z" id="31192640"/>
<path d="M 465.78 527.69 470.73 530.81 473.4 537.25 481.22 543.96 479.64 551.83 479.91 559.67 483.15 565.51 480.14 583.9 476.2 589.69 478.91 604.54 488.85 606.42 493.75 610.3 500.78 619.89 509.54 616.85 520.53 622.77 519.26 629.33 526.39 634.31 530.51 648.43 533.45 653.53 539.31 653.23 541.11 657.54 546.69 661.39 551.49 660.93 558 665 565.43 673.86 574.17 679.9 577.92 680.05 585.15 685.09 587.03 690.34 593.02 696.17 598.87 707.71 611.79 713.99 611.73 723.63 604.98 732.48 602.19 742.67 609.75 767.44 609.59 779.71 612.3 784.41 619.63 788.95 619.55 794.04 625.68 802.17 629.74 810.13 640.88 817.7 641.6 823.2 648.61 835.14 647.73 839.44 651.55 851.55 652.08 858.97 648.69 867.32 632.45 879.11 632.76 891.93 629.66 897.19 625.44 896.71 613.66 900.62 606.84 911.22 585.18 908.2 580.8 909.63 573.62 905.14 562.38 909.63 552.06 903.14 542.39 904.37 528.05 903.88 521.64 899.32 519.67 893.67 515.18 889.52 513.77 884.64 507.46 878 499.93 860.38 494.62 856.9 493.94 844.41 495.29 840.26 494.66 822.58 483.18 807.8 481.93 796.24 482.95 786.26 474.06 778.71 473.69 767.87 467.97 763.95 466.91 753.63 460.1 743.55 451.35 741.01 447.35 733.12 447.64 729.43 442.16 721.37 439.01 711.62 440.49 698.49 437.72 691.6 430.39 687.7 420.49 689.64 415.69 688.23 404.42 689.34 391.62 679.84 388.09 682.45 375 684.65 374.99 688.75 369.71 696.21 357.94 692.54 347.44 695.48 342.35 693.17 334.99 685.94 325.79 686.92 319.14 684.7 313.3 694.67 299.45 696.11 293.4 693.59 284.02 684.79 269.72 682.9 270.8 675.04 270.55 663.22 278.19 660.18 284.41 650.38 285.02 644.53 290.18 636.71 290 617.1 281.03 615.36 270.38 607.93 266.29 596.81 266.72 588.79 254.14 582.13 263.05 571.49 276.41 569.93 283.3 565.89 286.55 574.37 294.99 567.98 301.31 566.33 315.13 567.16 324.38 569.87 336.71 568.45 339.1 574.38 345.28 570.37 350.59 563.53 356.98 565.81 365.33 564.67 381.2 552.33 379.17 541.45 385.46 535.29 389.87 534.67 399.82 536.72 405.53 541.05 418.39 538.13 419.65 534.27 426.63 534.03 429.08 529.33 437.69 528.85 440.44 519.94 447.37 521.96 453.73 520.87 465.78 527.69 Z" id="31192660"/>
<path d="M 623.07 399.51 592.19 433.17 593.82 442.11 603.34 469.29 612.95 478.66 618.65 485.71 622.44 493.59 634.68 511.93 625.29 526.83 624.22 535.18 619.91 542.84 619.1 550.43 615.25 556.39 608.47 552.68 604.8 553.87 600.37 540.27 592.41 529.85 589.26 513.27 591.65 504.49 589.37 498.3 590.52 491.69 580.16 493.62 570.44 491.83 561.77 492.52 558.6 484.62 558.21 477.34 559.93 471.81 567.75 466.11 566.11 457.58 571.3 446.19 566.3 429.21 561.5 420.66 561.9 410.59 558.56 407.41 555.26 386.44 551.31 377.56 544.1 366.71 537.07 353.42 527.89 349.39 537.15 342.58 541.82 337.25 545.96 338.2 549.65 333.24 555.14 331.47 564.37 333.72 571.96 339.17 584.26 336.77 587.58 332.33 587.27 325.49 594.39 315.27 602.1 307.98 606.54 324.63 621.2 389.94 623.07 399.51 Z" id="31192690"/>
<path d="M 484.18 392.59 487.17 403.68 486.59 410.28 492.06 417.47 496.37 418.98 500.5 427.86 495.69 443.88 496.69 447.69 497.62 472.46 499.44 476.61 495.3 479.88 504.15 490.16 503.64 493.01 493.48 504.82 490.38 506.4 465.78 527.69 453.73 520.87 447.37 521.96 440.44 519.94 433.89 513.97 427.28 513.54 414.15 503.88 407.3 503.38 403.56 498.28 395.95 496.44 389.01 489.75 377.52 490.29 371.92 479.2 367.65 473.91 361.83 473.82 355.78 469.53 349.59 471.23 346.41 474.79 331.95 475.06 330.19 469.58 342.93 451.98 347.25 439.56 330.46 453.28 321.91 457.58 321.61 448.97 322.44 399.9 327.34 399.01 332.26 393.81 332.49 359.74 336.65 347.45 350.95 362.24 356.86 358.88 356.99 351.05 361.2 346.04 365.5 347.15 369.54 338.32 392.94 334.08 398.04 338.39 402.99 336.48 406.74 328.45 406.89 323.42 410.59 321.8 416.21 314.35 425.98 316.22 428.64 314.26 435.38 318.4 451.64 314.82 459.13 318.19 458.85 323.31 479.44 333.27 479.68 341.99 472.68 360.74 478.74 363.04 480.68 373.52 479.44 383.52 484.18 392.59 Z" id="31192520"/>
<path d="M 606.84 911.22 614.05 923.24 613.21 926.38 606.84 927.18 602.91 930.35 596.5 931.11 585.55 935.3 580.81 933.7 560.48 938.86 544.79 950.59 538.58 950.75 518.75 965.5 510.51 966 493.68 962.94 487.46 957.73 469.52 951.56 460.8 951.08 453.27 947.73 438.36 944.97 427.22 941.5 421.85 937.92 415.18 937.37 400.64 931.72 390.8 932.64 385.82 928.09 377.19 926.78 368.39 929.19 362.43 934.46 350.68 931.8 338.22 932.9 333.25 931.27 324.24 933.03 300.36 928.76 282.61 929.25 270.56 934 252.83 936.82 240.63 940.63 222.92 941.63 203.95 947.11 194.23 955.02 182 957.42 176.82 957.04 179.9 940.7 199.39 923.45 204.76 922.52 204.78 908.14 207.93 895.28 207.89 886.82 205.25 877 199.7 874.96 185.8 863.28 179.18 847.15 177.99 836.53 174.94 831.37 174.48 817.96 172 811.54 172.5 803.99 170.6 795.26 185.51 790.99 187.01 786.85 198.4 792.36 207.25 799.66 215 791.93 214.8 780.67 211.67 762.22 211.5 752.75 218.06 743.63 215.07 731.29 217.79 716.94 216.68 710.5 211.85 704.05 215.08 702.31 228.81 701.83 239.31 700.28 247.2 702.78 263.37 701.66 263.77 696.37 269.02 689.17 269.72 682.9 284.02 684.79 293.4 693.59 299.45 696.11 313.3 694.67 319.14 684.7 325.79 686.92 334.99 685.94 342.35 693.17 347.44 695.48 357.94 692.54 369.71 696.21 374.99 688.75 375 684.65 388.09 682.45 391.62 679.84 404.42 689.34 415.69 688.23 420.49 689.64 430.39 687.7 437.72 691.6 440.49 698.49 439.01 711.62 442.16 721.37 447.64 729.43 447.35 733.12 451.35 741.01 460.1 743.55 466.91 753.63 467.97 763.95 473.69 767.87 474.06 778.71 482.95 786.26 481.93 796.24 483.18 807.8 494.66 822.58 495.29 840.26 493.94 844.41 494.62 856.9 499.93 860.38 507.46 878 513.77 884.64 515.18 889.52 519.67 893.67 521.64 899.32 528.05 903.88 542.39 904.37 552.06 903.14 562.38 909.63 573.62 905.14 580.8 909.63 585.18 908.2 606.84 911.22 Z" id="31192540"/>
<path d="M 170.6 795.26 172.5 803.99 172 811.54 174.48 817.96 174.94 831.37 177.99 836.53 179.18 847.15 185.8 863.28 199.7 874.96 205.25 877 207.89 886.82 207.93 895.28 204.78 908.14 204.76 922.52 199.39 923.45 179.9 940.7 176.82 957.04 171.88 957.06 159.82 949.4 149.84 938.78 139.66 931.85 130.07 928.4 123.69 921.38 119.66 914.21 110.75 911.34 107.72 905.04 101.48 903.91 100.93 898.4 94.58 891.15 93.17 886.89 84.8 877.77 80.37 871.08 80.81 867.97 77.03 854.71 69.78 854.27 62.03 846.81 57.84 846.5 40.84 850.68 39.8 844.15 34.97 839.74 39.09 827.27 37.97 818.54 33.01 812.77 33.52 807.72 28.43 799.09 28.28 778.77 23.88 762.45 25.2 749.71 21.09 748.72 20.69 741.37 15.36 741.6 15.15 734.66 17.79 723.96 16.79 717.08 10.87 717.74 17.75 715.08 27.98 708.95 34.95 702.42 37.85 697.44 47.84 693.38 66.2 688.12 70.31 688.34 85.07 684.65 102.18 684.06 113.89 684.85 120.9 676.22 127.88 684.34 124.79 692.51 122.64 704.8 124.17 716.65 112.73 719.29 104.46 727.96 102.94 736.2 104.1 745.79 114.38 751.32 119.65 759.11 128.15 766.68 125.97 777.94 131.54 791.3 135.89 789.03 145.52 790.51 150.38 792.91 168.42 792.21 170.6 795.26 Z" id="31192550"/>
<path d="M 734.5 224.19 726.61 220.21 718.04 231.62 712.25 233.54 707.98 240.12 703.73 250.27 705.29 263.27 700.24 266 690.22 277.67 689.29 282.96 681.77 289.47 672.21 289.29 653.53 291.75 643.8 298.66 637.55 299.96 631.35 297.8 619.75 302.89 614.74 301.36 602.1 307.98 594.39 315.27 587.27 325.49 587.58 332.33 584.26 336.77 571.96 339.17 564.37 333.72 555.14 331.47 549.65 333.24 545.96 338.2 541.82 337.25 537.15 342.58 527.89 349.39 523.91 355.44 518.21 357.49 521.77 372.47 518.03 381.19 519.94 385.45 505.83 387.08 501.29 391.83 491.07 391.41 484.18 392.59 479.44 383.52 480.68 373.52 478.74 363.04 472.68 360.74 479.68 341.99 479.44 333.27 458.85 323.31 459.13 318.19 451.64 314.82 435.38 318.4 428.64 314.26 425.98 316.22 416.21 314.35 410.59 321.8 406.89 323.42 393.32 321.03 388.03 306.56 380.67 301.56 374.05 303.95 364.54 300.32 359.02 302.48 348.43 300.92 344.1 297.91 355.48 292.5 362.08 284.76 358.32 279.83 363.5 274.35 368.72 275.23 371.35 264.47 378.34 257.33 384.43 243.42 386.42 231.89 400.47 221.72 404.45 216.85 411.21 225.48 416.44 223.4 420.7 225.1 425.6 230.63 437.37 225.53 448.31 215.41 451.4 209.55 457.59 205.71 461.95 208.12 469.01 207.57 478.95 199.74 482.31 186.11 487.59 182.14 491.78 182.56 495.43 191.4 499.56 192.01 505.34 197.93 529.35 196.5 541.35 191.95 549.2 191.87 555.08 194.49 563.61 194.83 575.25 186.73 582.82 176.86 588.84 175.09 594.39 170.65 596.21 166.4 611.34 164.41 615.08 166.33 621.53 164.49 633.63 166.96 637.45 173.57 643.58 179.95 648.12 178.03 660.22 177.24 665.16 180.58 668.98 178.19 679.41 180.1 681.4 182.33 693.02 181.14 701.07 181.62 706.08 185.12 707.99 189.58 720.1 193.64 731.4 198.98 734.75 212.76 734.5 224.19 Z" id="31192560"/>
<path d="M 518.86 5.5 513.08 18.18 518.74 28.22 519.45 33.87 515.63 38.97 518.26 47.49 529.33 49.32 543.34 58.64 546.37 65.25 555.28 68.92 558.15 77.76 554.73 88.19 558.15 105.55 561.57 110.97 569.69 113.36 576.86 123.63 579.41 131.68 584.34 137.41 588.56 138.69 591.83 144.34 589.84 151.35 594.22 159.16 596.21 166.4 594.39 170.65 588.84 175.09 582.82 176.86 575.25 186.73 563.61 194.83 555.08 194.49 549.2 191.87 541.35 191.95 529.35 196.5 505.34 197.93 499.56 192.01 495.43 191.4 491.78 182.56 487.59 182.14 482.31 186.11 478.95 199.74 469.01 207.57 461.95 208.12 457.59 205.71 451.4 209.55 448.31 215.41 437.37 225.53 425.6 230.63 420.7 225.1 416.44 223.4 411.21 225.48 404.45 216.85 400.47 221.72 386.42 231.89 384.43 243.42 378.34 257.33 371.35 264.47 368.72 275.23 363.5 274.35 358.32 279.83 362.08 284.76 355.48 292.5 344.1 297.91 335.23 301.53 328.93 301.93 318.36 305.96 312.56 305.66 311.93 295.1 309.07 288.29 302.68 282.44 298.84 285.11 290.14 281.63 293.52 273.73 289.97 266.98 289.56 207.33 295.83 206.97 288.01 198.05 278.66 193.55 280.46 185.4 301.99 185.37 309.42 194.71 329.92 192.93 333.9 194.06 339.64 186.09 355.77 196.69 364.9 200.11 369.69 200.07 379.35 189.46 380.63 184.26 387.55 184.12 397.64 168.07 403.73 163.69 410.47 162.14 412.14 157.48 423.81 153.82 430.14 154.39 429.7 143.92 431.87 129.91 437.33 123.26 438.27 118.44 433.68 113.25 431.38 105.69 425.96 101.23 425.16 96.18 431.79 91.69 437.67 83.98 438.09 69.99 441.99 64.78 444.62 56.11 456.92 51.11 454.5 48.53 462.66 39.79 469.65 38.11 474.66 27.51 490.6 19.27 494.32 12.35 498.41 10.91 506.13 3.01 511.89 1 518.86 5.5 Z" id="31192570"/>
<path d="M 337.96 10.33 341.98 14.78 346.84 24.9 347.12 34.44 374.17 34.44 381 35.38 393.99 32.59 400.87 33.73 416.68 30.9 425.95 32.34 427.17 42.26 430.45 46.89 440.66 47.64 444.62 56.11 441.99 64.78 438.09 69.99 437.67 83.98 431.79 91.69 425.16 96.18 425.96 101.23 431.38 105.69 433.68 113.25 438.27 118.44 437.33 123.26 431.87 129.91 429.7 143.92 430.14 154.39 423.81 153.82 412.14 157.48 410.47 162.14 403.73 163.69 397.64 168.07 387.55 184.12 380.63 184.26 379.35 189.46 369.69 200.07 364.9 200.11 355.77 196.69 339.64 186.09 333.9 194.06 329.92 192.93 309.42 194.71 301.99 185.37 280.46 185.4 278.66 193.55 288.01 198.05 295.83 206.97 289.56 207.33 289.97 266.98 293.52 273.73 290.14 281.63 288.05 279.43 276.78 280.02 265.32 278.59 256.02 284.99 253.39 290.76 245.52 293.96 234.64 289.34 230.24 282.44 219.39 284.41 214.8 281.08 212.73 276.22 200.62 279.09 195.32 276.41 184.57 280.23 178.1 278.31 177.86 270.98 179.75 263.37 176.26 252.91 176.9 244.82 181.06 235.29 189.15 225.13 188.58 216.49 194.6 211.22 205.93 205.93 205.48 200.59 201.86 189.78 207.82 181.3 205.34 173.06 207.32 165.87 206.47 156.57 208.77 151.1 194.97 139.89 194.47 135.62 200.95 130.11 201.16 120.93 205.28 116.81 212.23 115.44 216.45 107.62 216.09 103.35 221.81 92.5 223.97 91.57 230.63 97.36 235.12 96.58 244.31 102.66 247.88 97.97 248.35 92.1 244.37 82.29 248.6 80.1 243 73.41 251.57 68.92 255.8 53.88 265.07 46.35 265.66 39.39 257.29 40.43 247.82 43.87 238.02 35.42 244.78 26.39 252.14 25.94 266.71 19.6 276.41 12.46 283.01 10.09 300.66 12.72 316.15 9.29 325.96 10.23 331.76 6.01 337.96 10.33 Z" id="31192590"/>
<path d="M 615.25 556.39 624.68 561.05 629.6 577.03 642.38 581.36 647.03 592.96 653.03 598.73 655.62 604.76 655.35 616.16 657.14 624.22 660.65 628.42 668.94 628.7 671.85 630.9 671.06 646.05 668.83 653.94 670.42 665.33 664.61 670.35 665.17 680.78 661.26 683.01 647.57 700.06 642.48 701.09 633.8 714.71 618.11 719.89 611.73 723.63 611.79 713.99 598.87 707.71 593.02 696.17 587.03 690.34 585.15 685.09 577.92 680.05 574.17 679.9 565.43 673.86 558 665 551.49 660.93 546.69 661.39 541.11 657.54 539.31 653.23 533.45 653.53 530.51 648.43 526.39 634.31 519.26 629.33 520.53 622.77 509.54 616.85 500.78 619.89 493.75 610.3 488.85 606.42 478.91 604.54 476.2 589.69 480.14 583.9 483.15 565.51 479.91 559.67 479.64 551.83 481.22 543.96 473.4 537.25 470.73 530.81 465.78 527.69 490.38 506.4 493.48 504.82 503.64 493.01 504.15 490.16 495.3 479.88 499.44 476.61 497.62 472.46 496.69 447.69 495.69 443.88 500.5 427.86 496.37 418.98 492.06 417.47 486.59 410.28 487.17 403.68 484.18 392.59 491.07 391.41 501.29 391.83 505.83 387.08 519.94 385.45 518.03 381.19 521.77 372.47 518.21 357.49 523.91 355.44 527.89 349.39 537.07 353.42 544.1 366.71 551.31 377.56 555.26 386.44 558.56 407.41 561.9 410.59 561.5 420.66 566.3 429.21 571.3 446.19 566.11 457.58 567.75 466.11 559.93 471.81 558.21 477.34 558.6 484.62 561.77 492.52 570.44 491.83 580.16 493.62 590.52 491.69 589.37 498.3 591.65 504.49 589.26 513.27 592.41 529.85 600.37 540.27 604.8 553.87 608.47 552.68 615.25 556.39 Z" id="31192600"/>
<path d="M 440.44 519.94 437.69 528.85 429.08 529.33 426.63 534.03 419.65 534.27 418.39 538.13 405.53 541.05 399.82 536.72 389.87 534.67 385.46 535.29 379.17 541.45 381.2 552.33 365.33 564.67 356.98 565.81 350.59 563.53 345.28 570.37 339.1 574.38 336.71 568.45 324.38 569.87 315.13 567.16 301.31 566.33 294.99 567.98 286.55 574.37 283.3 565.89 276.41 569.93 263.05 571.49 254.14 582.13 251.28 575.75 245.23 575.49 240.78 570.55 247.01 552.55 252.89 550.86 257.36 545.35 255.19 524.75 260.74 520.42 262.36 513.31 269.42 501.17 272.48 497.18 274.52 487.18 279.16 482.46 287.78 484.18 298.47 484.56 317.32 480.28 330.19 469.58 331.95 475.06 346.41 474.79 349.59 471.23 355.78 469.53 361.83 473.82 367.65 473.91 371.92 479.2 377.52 490.29 389.01 489.75 395.95 496.44 403.56 498.28 407.3 503.38 414.15 503.88 427.28 513.54 433.89 513.97 440.44 519.94 Z" id="31192650"/>
<path d="M 734.5 224.19 738.49 221.68 747.51 221.77 748.92 233.15 754.41 244.86 758.07 248.44 760.3 266.6 757.6 274.57 750.82 280.8 750.43 290.98 760.14 296.79 760.78 301.97 766.51 303.32 780.05 311.29 783.47 318.53 785.54 327.3 780.85 341.39 783.55 349.6 790.32 354.38 796.69 367.28 799 375.8 796.85 383.69 793.75 385.36 787.46 395.32 789.13 403.12 787.54 417.06 782.92 421.68 778.7 438.25 772.17 441.75 770.17 445.57 762.27 434.64 757.31 434.13 745.07 439.69 738.61 434.27 723.53 431.71 704.5 429.9 697 424.21 694.71 419.4 687.78 415.64 681.66 414.54 681.68 406.88 679.07 399.67 673.09 404.07 660.23 393.66 642.37 415.72 624.59 401.84 623.07 399.51 621.2 389.94 606.54 324.63 602.1 307.98 614.74 301.36 619.75 302.89 631.35 297.8 637.55 299.96 643.8 298.66 653.53 291.75 672.21 289.29 681.77 289.47 689.29 282.96 690.22 277.67 700.24 266 705.29 263.27 703.73 250.27 707.98 240.12 712.25 233.54 718.04 231.62 726.61 220.21 734.5 224.19 Z" id="31192670"/>
<path d="M 770.17 445.57 766.99 459.83 765.52 485.31 760.07 490.18 764.69 515.19 769.78 531.68 768.99 545.22 774.96 550.79 774 568.63 780.69 572.46 787.14 584.88 783.69 589.04 771.54 596.35 762.22 598.9 757.04 604.87 750.2 616.66 739.53 618.49 727.75 617.94 723.61 618.97 719.07 624.39 709.59 623.12 699.08 619.61 686.03 623.27 674.4 624.63 671.85 630.9 668.94 628.7 660.65 628.42 657.14 624.22 655.35 616.16 655.62 604.76 653.03 598.73 647.03 592.96 642.38 581.36 629.6 577.03 624.68 561.05 615.25 556.39 619.1 550.43 619.91 542.84 624.22 535.18 625.29 526.83 634.68 511.93 622.44 493.59 618.65 485.71 612.95 478.66 603.34 469.29 593.82 442.11 592.19 433.17 623.07 399.51 624.59 401.84 642.37 415.72 660.23 393.66 673.09 404.07 679.07 399.67 681.68 406.88 681.66 414.54 687.78 415.64 694.71 419.4 697 424.21 704.5 429.9 723.53 431.71 738.61 434.27 745.07 439.69 757.31 434.13 762.27 434.64 770.17 445.57 Z" id="31192680"/>
<path d="M 290.14 281.63 298.84 285.11 302.68 282.44 309.07 288.29 311.93 295.1 312.56 305.66 318.36 305.96 328.93 301.93 335.23 301.53 344.1 297.91 348.43 300.92 359.02 302.48 364.54 300.32 374.05 303.95 380.67 301.56 388.03 306.56 393.32 321.03 406.89 323.42 406.74 328.45 402.99 336.48 398.04 338.39 392.94 334.08 369.54 338.32 365.5 347.15 361.2 346.04 356.99 351.05 356.86 358.88 350.95 362.24 336.65 347.45 332.49 359.74 332.26 393.81 327.34 399.01 322.44 399.9 321.61 448.97 321.91 457.58 330.46 453.28 347.25 439.56 342.93 451.98 330.19 469.58 317.32 480.28 298.47 484.56 287.78 484.18 279.16 482.46 274.52 487.18 272.48 497.18 269.42 501.17 259.71 492.37 258.47 486.94 252.39 486.68 248.53 480.11 246.01 471.91 248.5 461.99 236.28 449.11 225.09 448.55 224.73 445.96 217.49 439.23 213.98 432.78 212.79 424.09 209.55 421.39 200.21 419.46 186.5 411.78 182.57 411.23 166.03 418.4 164.44 412.85 168.7 407.84 169.86 402.53 167.67 397.24 167.39 385.12 169.89 379.18 162.42 370 157.77 367 156.14 357.33 152.71 352.19 157.72 346.45 165.44 346.94 178.92 335.89 175.73 327.26 176.65 321.76 173.43 318.97 169.89 309.03 169.54 299.97 172.45 297.63 170.92 289.18 171.61 280.18 178.1 278.31 184.57 280.23 195.32 276.41 200.62 279.09 212.73 276.22 214.8 281.08 219.39 284.41 230.24 282.44 234.64 289.34 245.52 293.96 253.39 290.76 256.02 284.99 265.32 278.59 276.78 280.02 288.05 279.43 290.14 281.63 Z" id="31192610"/>
<path d="M 152.71 352.19 156.14 357.33 157.77 367 162.42 370 169.89 379.18 167.39 385.12 167.67 397.24 169.86 402.53 168.7 407.84 164.44 412.85 166.03 418.4 182.57 411.23 186.5 411.78 200.21 419.46 209.55 421.39 212.79 424.09 213.98 432.78 217.49 439.23 224.73 445.96 225.09 448.55 236.28 449.11 248.5 461.99 246.01 471.91 248.53 480.11 252.39 486.68 258.47 486.94 251.67 488.21 201.91 477.26 193.69 474.65 173.48 472.81 161.53 475.83 150.77 481.92 147.73 485.84 130.21 501.22 120.01 506.8 102.58 512.08 93.3 512.77 94.42 523.23 79.65 522.2 73.21 518.38 58.96 520.01 55.36 517.12 46.79 515.04 40.34 506.02 35.62 503.33 35.22 497.98 1 490.41 5.42 481.51 11.98 462.58 19.71 456.34 21.28 448.77 28.18 445.5 31.38 431.59 38.29 425.34 39.08 421.49 35.31 408.44 41.09 406.78 45.37 402.38 50.46 392.57 59.68 389.18 65.13 389.96 79.03 383.62 77.47 377.16 81.08 373.44 102.05 364.13 110.56 365.62 112.99 362.82 122.84 363.34 126.2 353.25 131.5 350.06 144.35 346.67 152.71 352.19 Z" id="31192630"/>
</g>
</svg>