<?xml version="1.0"?>
<svg xmlns="http://www.w3.org/2000/svg" version="1.2" baseProfile="tiny" width="800" height="629" viewBox="0 0 800 629" stroke-linecap="round" stroke-linejoin="round">
<g id="dong">
<path d="M 402.97 323.59 405.13 328.9 403.97 334.44 408.21 345.6 407.6 363.98 422.88 373.27 427.92 375.57 434.99 373.59 441.28 376.47 446.29 389.8 437.99 398.62 423.65 426.5 417.89 426.61 401.86 420.94 397.39 417.42 387.25 415.38 384.71 416.27 365.13 410.5 360.22 403.31 353.94 402.69 332.08 390.73 320.4 386.03 308.46 386.37 304.75 382.96 292.82 378.64 291.09 374.81 282.82 373.15 274.13 369.54 269.9 371.28 265.82 366.06 260.59 363.46 259.04 358.26 255.35 354.8 256.65 346.85 253.56 342.15 241.62 347.54 233.5 346.37 228.34 348.6 224.43 346.92 217.13 352.21 211.74 354.01 204.43 353.6 200.09 356.66 194.12 354.37 189.26 354.86 182.51 351.46 167.56 347.26 159.28 342.77 145.83 342.41 137.71 349.73 133.55 349.19 128.64 341.32 129.1 337.42 124.87 332.4 122.91 324.34 123.91 318.4 119.96 312.21 119.83 308.1 115.07 301.53 112.22 301.21 103.83 295.14 103.83 291.04 96.17 282.59 97.1 278.84 94.99 265.95 97 259.61 98.84 240.54 104.29 232.18 108.07 221.11 112.63 218.38 128.15 220.32 142.19 216.17 144.12 224.94 151.66 240.72 154.54 244.85 158.19 245.61 169.33 244.64 175.46 245.3 186.19 241.7 197.56 242.49 214.8 245.32 218.13 246.89 223.33 244.1 226.81 244.8 234.46 242.24 236.61 244.86 244.51 244.86 252.23 251.9 260.57 251.38 263.4 249.7 283.15 254.96 287.42 259.3 290.49 257.51 295.16 264.96 307.5 271.28 309.61 273.95 319.27 276.61 323.74 283.47 328.13 286.13 337.26 285.17 352.81 298.19 358.24 296.92 359.7 304.28 362.59 307.29 373.4 309.65 375.45 311.96 394.99 319.63 402.97 323.59 Z" id="31193530"/>
<path d="M 353.68 120.95 365.27 134.5 372.66 151.39 379.42 173.25 391.22 180.85 399.71 180.45 407.7 176.78 415.26 168.72 424.28 163.13 440.82 164.48 445.17 167.87 449.79 179.91 454.96 185.8 463.06 192.21 473.29 195.04 486.42 202.84 487.56 210.97 497.28 214.6 517.45 234.59 541.83 232.89 545.02 239.8 545.24 254.5 551.25 260.97 553.58 267.59 559.38 272.01 558.22 277.89 554.17 277.72 553.33 295.34 550.39 308.17 551.28 312.78 549.73 319.64 546.71 318.3 546.67 309.64 514.57 309.84 499.64 310.35 499.54 306.6 488.72 306.68 488.77 318.57 486.11 323.26 478.08 322.72 475.53 324.87 475.7 336.94 464.15 333.86 460.82 331.41 445.62 328.24 429.44 316.44 426.87 312.59 418.14 310.84 406.48 319.73 402.97 323.59 394.99 319.63 375.45 311.96 373.4 309.65 362.59 307.29 359.7 304.28 358.24 296.92 352.81 298.19 337.26 285.17 328.13 286.13 323.74 283.47 319.27 276.61 309.61 273.95 307.5 271.28 295.16 264.96 290.49 257.51 287.42 259.3 283.15 254.96 263.4 249.7 260.57 251.38 252.23 251.9 244.51 244.86 236.61 244.86 234.46 242.24 226.81 244.8 223.33 244.1 218.13 246.89 214.8 245.32 197.56 242.49 186.19 241.7 175.46 245.3 169.33 244.64 158.19 245.61 154.54 244.85 151.66 240.72 144.12 224.94 142.19 216.17 128.15 220.32 112.63 218.38 108.07 221.11 94.35 213.58 85.42 203.24 81 201.52 78.19 197.4 68.65 194.01 62.72 190.43 55.78 190.77 49.64 188.4 45.92 183.14 38.25 179.87 26.94 171.92 21.72 169.64 11.8 170.38 10.47 162.56 5.29 148.78 1 128.7 1.42 116.74 8.71 101.17 24.28 89.6 26.4 84.31 30.82 81.53 34.97 74.86 44.58 70.88 49.08 65.15 53.08 53.06 59.59 39.03 62.27 30.31 66.37 25.8 73.26 23.56 73.35 3.73 77.94 3.87 81.72 1 88.87 2.44 121.07 13.95 133.9 17.73 139.29 21.83 146.7 24.13 156.71 24.29 164.67 26.9 171.06 27.01 189.71 33.62 195.71 46.47 207.19 53.22 209.92 56.25 218.84 59.94 228.2 66.52 233.34 73.17 231.56 81.52 232.79 91.2 240.37 97.52 249.48 98.88 262.1 92.94 272.14 92.33 283.23 93.06 289.4 95.38 296.71 94.99 307.83 100.32 318.49 103.67 343.66 114.42 353.68 120.95 Z" id="31193560"/>
<path d="M 423.65 426.5 410.19 455.89 409.86 462.22 419.91 466.79 429.8 462.22 434.15 464.89 443.1 466.94 446.85 464.52 447.65 469.47 437.11 479.52 432.88 481.57 423.65 489.93 413.42 496.34 407.69 489.49 401.26 493.03 394.21 485.47 390.23 488 388.15 483.16 384.15 480.77 377.66 482.98 381.66 489.8 380.96 495.88 376.8 496.39 371.94 493.74 371 490.25 360.94 490.96 355.6 490.05 350.91 491.77 340.73 488.58 334.76 493.15 325.11 495.38 321.28 490.86 316.93 493.47 312.89 492.93 306.76 483.83 302.82 486.52 296.06 487.06 289.93 489.45 280.37 487.44 275.21 483.39 269.24 476.25 266.08 463.45 262.63 460.81 261.75 450.75 247.99 451.38 237.87 445.93 228.11 448.51 213.31 448.91 207.08 446.46 205.09 443.31 188.43 438.06 184.97 431.25 178.76 429.83 164.82 423.62 160.8 420.25 152.17 409.07 148.12 408.33 146.31 403.58 146.69 394.27 148.58 390.09 141.16 381.03 136.11 378.78 133.91 369.78 130.53 361.37 135.99 355.73 137.71 349.73 145.83 342.41 159.28 342.77 167.56 347.26 182.51 351.46 189.26 354.86 194.12 354.37 200.09 356.66 204.43 353.6 211.74 354.01 217.13 352.21 224.43 346.92 228.34 348.6 233.5 346.37 241.62 347.54 253.56 342.15 256.65 346.85 255.35 354.8 259.04 358.26 260.59 363.46 265.82 366.06 269.9 371.28 274.13 369.54 282.82 373.15 291.09 374.81 292.82 378.64 304.75 382.96 308.46 386.37 320.4 386.03 332.08 390.73 353.94 402.69 360.22 403.31 365.13 410.5 384.71 416.27 387.25 415.38 397.39 417.42 401.86 420.94 417.89 426.61 423.65 426.5 Z" id="31193590"/>
<path d="M 797.71 283.4 793.92 294.91 798.5 300.34 794.35 316.99 798.78 327.14 796.78 329.21 795.47 337.01 784.89 344.46 774.14 348.97 762.84 351.86 751.54 353.55 727.62 359.52 717.63 355.69 715.08 353.26 714.17 345.35 711.72 341.31 700.86 338.45 686.01 338.41 666.02 334.01 659.3 334.04 629.12 342.71 606.61 358.59 600.96 360.86 601.23 351.49 604.21 343.33 614.29 323.87 614.1 309.36 611.01 292.31 616.82 291.13 622.76 294.64 627.12 300.81 633.9 305.19 637.25 309.34 642.39 305.2 651.82 304.63 662.09 301.2 665.15 297.75 668.64 286.93 674.27 280.4 682.23 282.89 687.53 281.98 691.53 276.4 704.82 278.14 710.46 276.13 716.34 277.94 723.72 276.33 730.95 268.55 734.9 266.3 745.42 267.56 756.41 259.82 761.47 258.78 767.05 260.99 769.87 258.82 775.13 258.81 784.77 266.25 792.49 281.54 797.71 283.4 Z" id="31193600"/>
<path d="M 549.73 319.64 552.42 325.92 550.9 332.73 550.18 362.59 550.22 388.18 541.51 394.59 528.43 400.28 521.83 400.68 515.75 408.78 512.4 403.6 499.14 386.74 493.36 390.83 490.51 388.44 484.24 393.09 470.67 374.54 456.1 380.08 448.69 379.2 441.28 376.47 434.99 373.59 427.92 375.57 422.88 373.27 407.6 363.98 408.21 345.6 403.97 334.44 405.13 328.9 402.97 323.59 406.48 319.73 418.14 310.84 426.87 312.59 429.44 316.44 445.62 328.24 460.82 331.41 464.15 333.86 475.7 336.94 475.53 324.87 478.08 322.72 486.11 323.26 488.77 318.57 488.72 306.68 499.54 306.6 499.64 310.35 514.57 309.84 546.67 309.64 546.71 318.3 549.73 319.64 Z" id="31193510"/>
<path d="M 515.75 408.78 524.55 416.37 533.05 413.28 540.57 412.34 540.04 418.59 531.71 425.35 527.91 438.84 520.23 442.87 525.25 448.87 521.46 450.83 525.03 459.64 524.61 464.91 521.4 469.12 513.15 463.66 509.12 464.36 503.14 459.17 501.2 460 496.07 469.74 490.62 468.55 486.07 460.86 481.04 457.42 466.98 460.72 452.02 458.32 446.85 464.52 443.1 466.94 434.15 464.89 429.8 462.22 419.91 466.79 409.86 462.22 410.19 455.89 423.65 426.5 437.99 398.62 446.29 389.8 441.28 376.47 448.69 379.2 456.1 380.08 470.67 374.54 484.24 393.09 490.51 388.44 493.36 390.83 499.14 386.74 512.4 403.6 515.75 408.78 Z" id="31193520"/>
<path d="M 611.01 292.31 614.1 309.36 614.29 323.87 604.21 343.33 601.23 351.49 600.96 360.86 603.86 374.59 601.46 381.69 605.48 386.27 599.91 382.4 594.7 386.18 585.89 385.34 571.99 388.41 556.15 386.06 550.22 388.18 550.18 362.59 550.9 332.73 552.42 325.92 549.73 319.64 551.28 312.78 550.39 308.17 553.33 295.34 554.17 277.72 558.22 277.89 559.38 272.01 574.37 281.05 582.52 289.48 587.93 290.55 590.54 296.86 596.58 301.2 601.86 294.01 608.92 290.58 611.01 292.31 Z" id="31193550"/>
<path d="M 496.07 469.74 496.39 473.57 492.6 480.59 486.36 481.81 482.66 485.51 482.48 493.74 476.66 498.69 477.11 502.52 489.5 512.58 487.43 517.48 488.2 525.83 486.42 532.28 488.64 539.67 483.29 547.29 486.54 556.98 486.95 561.77 476.78 566.52 471.37 571.25 471.88 579 464.62 588.12 459.45 591.62 451.49 590.88 440.6 585.2 437.16 591.9 433.01 595.44 425.15 591.89 421.01 593.06 419.76 597.41 410.55 605.36 407.46 610.63 401.43 613.36 401.87 611.08 391.54 610.3 398.19 596.84 398.64 592.53 403.27 590.25 409.23 571.15 414.59 563.42 419.47 558.54 421.86 551.84 422.58 540.76 421.46 532.37 428.37 525.94 430.14 519.04 430.69 510.32 433.85 498.75 423.65 489.93 432.88 481.57 437.11 479.52 447.65 469.47 446.85 464.52 452.02 458.32 466.98 460.72 481.04 457.42 486.07 460.86 490.62 468.55 496.07 469.74 Z" id="31193580"/>
<path d="M 795.47 337.01 795 358.08 798.79 365.51 799 369.94 791.57 375.66 788.99 381.45 785.35 382.31 774.84 376.02 767.88 381.94 761.62 377.9 756.45 379.7 749.52 386.8 745.85 388.09 742.5 394.29 728.2 401.69 723.7 411.2 717.43 412.7 710.1 420.55 712.27 422.86 701.23 427.34 697.67 419.74 688.51 419.08 685.57 414.92 684.47 406.02 676.14 404.73 661.95 407.27 655.78 406.24 644.11 408.75 637.98 407.9 613.7 407.91 613.45 399.35 609.08 390.27 605.48 386.27 601.46 381.69 603.86 374.59 600.96 360.86 606.61 358.59 629.12 342.71 659.3 334.04 666.02 334.01 686.01 338.41 700.86 338.45 711.72 341.31 714.17 345.35 715.08 353.26 717.63 355.69 727.62 359.52 751.54 353.55 762.84 351.86 774.14 348.97 784.89 344.46 795.47 337.01 Z" id="31193610"/>
<path d="M 423.65 489.93 433.85 498.75 430.69 510.32 430.14 519.04 428.37 525.94 421.46 532.37 422.58 540.76 421.86 551.84 419.47 558.54 414.59 563.42 407.77 566.26 402.27 559.17 400.54 560.53 388.81 545.39 379.7 540.31 366.72 550.6 371.27 535.1 370.81 522.66 380.96 495.88 381.66 489.8 377.66 482.98 384.15 480.77 388.15 483.16 390.23 488 394.21 485.47 401.26 493.03 407.69 489.49 413.42 496.34 423.65 489.93 Z" id="31193620"/>
<path d="M 401.43 613.36 398.44 628 334.03 613.32 290.72 603.85 278.45 601.15 280.58 584.46 276.6 577.23 281.91 563.63 283.21 556.62 282.11 546.12 278.47 542.4 272.34 540.73 265.19 536.41 269.9 524.39 278.11 515.31 281.55 508.42 282.64 501.86 276.08 496.41 280.37 487.44 289.93 489.45 296.06 487.06 302.82 486.52 306.76 483.83 312.89 492.93 316.93 493.47 321.28 490.86 325.11 495.38 334.76 493.15 340.73 488.58 350.91 491.77 355.6 490.05 360.94 490.96 371 490.25 371.94 493.74 376.8 496.39 380.96 495.88 370.81 522.66 371.27 535.1 366.72 550.6 379.7 540.31 388.81 545.39 400.54 560.53 402.27 559.17 407.77 566.26 414.59 563.42 409.23 571.15 403.27 590.25 398.64 592.53 398.19 596.84 391.54 610.3 401.87 611.08 401.43 613.36 Z" id="31193630"/>
</g>
</svg>