<?xml version="1.0"?>
<svg xmlns="http://www.w3.org/2000/svg" version="1.2" baseProfile="tiny" width="800" height="907" viewBox="0 0 800 907" stroke-linecap="round" stroke-linejoin="round">
<g id="dong">
<path d="M 318.93 337.49 319.99 338.29 318.68 343.33 317.33 346.55 315.48 349.42 315.46 351.59 313.09 352.91 310.36 355.19 307.7 358.1 309.01 360.12 308.91 361.89 311.01 364.9 310.99 367.37 314.71 367.7 316.92 369.8 319.6 367.28 321.72 367.54 323.34 369.8 323.13 371.32 324.17 373.06 330.9 376.62 332.89 378.05 335.9 381.56 338.73 380.66 341.71 380.41 340.04 382.77 339.9 388.36 343.08 388.59 345.56 390.11 346.47 389.14 349.27 389.92 351.98 388.55 354.64 386.07 355.87 386.32 358.83 384.83 361.27 385.78 363.33 384.93 366.6 381.87 367.42 379.7 369.84 376.81 370.22 374.62 371.7 372.96 373.93 372.64 377.23 369.4 377.04 367.31 375.95 366.16 375.96 363.43 374.4 362.21 373.82 357.73 372.15 355.58 378.39 351.8 379.37 348.9 380.98 348.06 382.42 348.85 384.3 348.05 385.04 346.84 388.28 343.79 392.83 343.02 393.94 345.39 393.91 348.1 396.84 350.23 400.03 349.57 401.65 351.56 401.84 353.01 404.53 354.87 408.12 356.75 408.32 358.01 407.84 362.62 411.94 365.48 416.55 370.53 417.52 372.83 418.72 373.84 420.61 373.39 421.25 374.74 424.76 377.58 424.83 379.02 423.48 380.22 424.61 386.67 423.85 388.23 423.54 391.81 420.68 394.83 416.67 396.37 417.06 398.58 416.29 402.64 412.87 405.6 412.98 406.32 409.6 408.17 410.35 409.85 408.69 411.2 407.09 411.42 405.26 413.6 404.68 415.62 404.99 418.52 399.03 422.06 397.34 424.38 394.61 425.24 391.43 424.49 390.16 425.08 385.2 428.76 384.52 430.74 384.95 435.18 382.81 439.18 382.01 443.56 379.28 443.62 377.82 442.5 376.49 439.91 374.43 439.25 371.87 436.05 370.14 433.17 369.06 429.46 367.25 430.88 365.99 429.49 363.31 425.18 361.2 426.03 358.04 426.24 340.58 430.74 337.63 430.36 332.66 440.83 323.54 436.44 326.33 430.68 322.01 428.63 318.66 432.96 317.59 432.88 314.69 436.94 314.02 438.88 311.36 440.37 307.75 440.72 305.65 439.78 295.76 439.92 293.39 441.43 292.29 442.92 292.82 444.15 287.85 449.22 284.24 449.37 282.14 447.57 279.01 446.46 278.15 446.89 279.46 450.69 278.46 455.52 278.86 456.52 279.44 465.16 280.74 468.07 280.22 470.19 281.19 471.03 284.17 471.88 283.3 474.28 280 479.93 277.11 480.8 273.89 488.37 273.87 487.82 266.53 488.38 266.54 492.33 259.58 492.94 256.98 494.09 255.55 496.65 255.29 498.79 254.31 500.63 252.94 501.29 248.31 498.67 244.62 500.01 239.86 502.97 236.79 503.74 235.25 501.53 233.39 500.41 229.52 500.28 227.25 498.64 225.55 502.96 226.78 504.37 226.41 506.49 227.39 508.24 226.08 511.79 223.88 511.73 220.54 513.14 219.6 511.37 216.22 508.65 215.28 507.31 212.24 505 209.87 504.77 208.45 502.67 204.89 499.93 203.39 496.95 200.39 495.55 199.97 492.02 200.3 490.31 198.11 489.68 197.29 487.33 193.15 484.25 192.54 481.04 192.92 477.54 196.03 474.31 194.16 473.07 190.8 467.16 189.78 466.4 187.76 462.84 185.1 462.42 184.1 463.31 182.5 462.55 179.83 459.19 175.07 456.33 192.49 454.77 205.16 449.05 217.83 438.91 217.83 428.33 211.87 418.62 205.16 408.48 196.17 398.34 192.49 389.48 179.82 368.45 167.12 357.79 166.24 330.67 168.43 327.28 179.82 310.9 183.69 307.06 189.37 296.92 192.49 293.84 205.16 292.59 217.83 293.08 226.44 286.78 230.51 286.44 243.18 286 245.41 286.06 244.69 281.84 247.11 279.85 252.78 276.64 259.53 273.23 262.7 269.31 264.48 266.49 268.52 265.7 281.19 263.7 288.61 261.26 293.85 266.49 294.68 272.43 294.91 276.64 297.17 286.78 294.4 307.06 298.82 317.2 300.8 317.2 306.52 327.34 307.57 330.52 318.93 337.49 Z" id="31200110"/>
<path d="M 382.01 443.56 385.31 446.48 387.25 447.36 389.23 447.49 392.41 450.22 395.03 451.38 395.92 454.13 397.51 456.15 399.27 462.27 402.15 462.66 407.12 464.93 408.56 463.9 414.12 463.92 417.49 462.65 421.73 463.02 422.65 473.53 423.22 476.17 424.77 477 425.73 479.29 424.92 480.46 424.7 482.92 422.83 484.1 420.63 484.4 420.84 487.04 419.22 488.97 419.51 491.93 421.4 494.84 421.7 497.1 423.43 497.77 424.63 500.41 428.5 503.75 430 509.34 428.8 510.32 431.56 512.75 431.11 515.29 429.2 518.54 430.56 520.08 432.76 523.81 435.57 526.51 436.78 526.91 438.45 531.19 442.67 533.36 445.23 533.59 447.57 535.17 447.65 536.68 446.63 537.97 443.49 539.16 441.43 539.2 437.79 538.55 436.57 539.15 436.29 540.92 433.88 541.24 431.34 542.64 428.72 542.46 425.92 543.74 422.9 542.16 421.49 543.39 419.61 543.95 418.85 541.94 417.37 540.18 415.17 539.9 414.39 543.88 414.63 545.2 412.08 547.04 410.31 548.96 410.23 552.37 409.22 555.4 406.27 554.96 405.02 555.63 402.75 555.01 403.09 559.38 400.53 561.51 397.28 563.58 396.85 566.13 397.61 568.91 396.56 570.56 396.97 572.14 393.89 578.17 396.05 579.44 395.22 581.39 392.34 583.94 390.19 585.29 381.94 586.14 379.76 587.56 377.18 591.03 374.72 591.03 372.74 592.38 369.71 591.92 366.74 592.04 361.56 591.03 332.4 591.03 331.87 591.85 326.01 595.24 321.79 596.22 318.59 595.91 315.69 596.4 313.64 595.96 305.87 590.63 302.44 590.11 299.44 588.96 293.86 588.86 293 589.33 291.52 585.24 290.6 583.72 286.22 580.89 284.99 575.75 283.5 570.75 284.31 567.42 283.87 565.94 280.8 562.93 281.62 560.61 281.86 557.6 281.19 554.2 278.02 553.43 277.99 547.72 279.35 546.16 279.69 543.49 277.47 540.33 278.37 535.78 277.47 534.22 277.59 532.55 278.75 530.18 278.29 528.3 276.18 527.14 275.91 523.31 277.36 521.47 275.69 520.13 275.11 510.69 277.39 510.22 278.77 508.81 278.78 507.33 276.98 506.47 278.15 505.18 277.95 502.1 275.88 499.76 277.76 498.98 277.53 496.09 275.39 493.55 273.61 492.42 273.89 488.37 277.11 480.8 280 479.93 283.3 474.28 284.17 471.88 281.19 471.03 280.22 470.19 280.74 468.07 279.44 465.16 278.86 456.52 278.46 455.52 279.46 450.69 278.15 446.89 279.01 446.46 282.14 447.57 284.24 449.37 287.85 449.22 292.82 444.15 292.29 442.92 293.39 441.43 295.76 439.92 305.65 439.78 307.75 440.72 311.36 440.37 314.02 438.88 314.69 436.94 317.59 432.88 318.66 432.96 322.01 428.63 326.33 430.68 323.54 436.44 332.66 440.83 337.63 430.36 340.58 430.74 358.04 426.24 361.2 426.03 363.31 425.18 365.99 429.49 367.25 430.88 369.06 429.46 370.14 433.17 371.87 436.05 374.43 439.25 376.49 439.91 377.82 442.5 379.28 443.62 382.01 443.56 Z" id="31200120"/>
<path d="M 543.13 236.62 544.32 238.23 543.81 242.48 545.82 245.26 546.2 248.61 547.47 249.1 549.07 251.54 551.35 251.57 555.11 253.72 555.74 256.31 555.23 258.83 555.77 263.07 554.55 266.56 557.01 267.53 559.98 269.67 561.31 272.55 562.97 274.34 565.36 278.35 567.74 281.43 572.23 281.46 571.62 283.45 573.03 289.46 576.03 290.18 583.65 295.81 585.25 298.29 590.46 304.44 592.16 305.58 593.14 308.63 598.62 309.94 601 311.34 603.25 315.42 603.96 317.54 605.96 315.87 610.45 313.29 613.18 312.81 616.03 314.88 617.71 314.66 619.51 318.41 623.33 320.69 623.91 322.34 623.13 323.74 625.46 327.24 624.42 332.13 624.69 334.14 626.44 333.39 628.52 333.42 631.59 334.98 634.27 337.98 635.62 341.19 638.21 342.54 639.23 343.81 640.13 347.15 642.54 350.92 643.71 356.03 643.29 361.79 642.15 362.34 639.71 366.06 640.99 367.5 641.98 371.25 639.95 373.54 640.32 375.19 639.27 378.35 639.17 382.52 637.6 384.11 635.58 385.14 637.41 386.32 637.75 388.18 639.56 391.25 637.64 392.44 636.89 394.75 637.19 397.44 639.65 399.86 641.05 402.94 639.98 404.73 640.52 406.87 639.06 409.19 638.8 410.68 636.65 412.97 635.75 414.68 633.69 415.8 632.65 419.14 631.54 420.88 632.43 422.37 631.36 423.26 629.7 427.84 629.79 429.6 627.1 431.29 626.4 434.15 626.79 435.99 623.71 438.47 623.47 440.41 625.77 445.5 624.02 447.6 622.5 447.92 621.82 451.15 618.05 452.04 617.26 453.05 617.03 460.26 612.95 463.94 614.93 470 614.14 471.99 615.5 472.96 617.29 473.02 619.66 477.3 616.31 482.39 614 484.21 609.17 486.09 605.25 485.25 601.22 485.98 599.76 487.6 598.7 487.65 595.79 481.57 594.21 476.81 591.45 477.13 589 476.23 586.71 476.88 583.1 476.09 578.1 476.07 574.28 477.83 571.15 477.29 565.45 479.67 564.39 481.47 564.32 484.33 562.99 486.47 565.59 488.39 565.49 490.68 566.72 492.59 565.33 499.47 564.63 506.41 562.39 513.23 560.69 513.38 557.76 512.54 553.94 514.46 552.53 514.32 550.6 512.56 548.73 516.98 544.09 518.38 543.45 519.13 542.36 522.88 538.47 520.96 532.76 519.41 531.47 519.9 529.18 519.22 527.05 520.14 523.92 518.46 522.33 519.83 517.67 520.43 513.38 519.06 510.38 519.53 507.65 518.42 507.68 524.22 505.23 533.97 501.77 536.77 501.32 539.55 499.41 542.96 493.78 543.25 492.48 549.72 486.52 547.4 484.91 547.45 480.37 545.36 477.72 547.42 475.55 547 474.53 546.09 468.49 546.56 466.81 545.47 464.87 545.57 462.82 544.44 462.17 543.17 459.53 541.81 458.25 542.9 457.27 541.77 454.56 542.18 451.64 544.46 449.37 540.63 447.65 536.68 447.57 535.17 445.23 533.59 442.67 533.36 438.45 531.19 436.78 526.91 435.57 526.51 432.76 523.81 430.56 520.08 429.2 518.54 431.11 515.29 431.56 512.75 428.8 510.32 430 509.34 428.5 503.75 424.63 500.41 423.43 497.77 421.7 497.1 421.4 494.84 419.51 491.93 419.22 488.97 420.84 487.04 420.63 484.4 422.83 484.1 424.7 482.92 424.92 480.46 425.73 479.29 424.77 477 423.22 476.17 422.65 473.53 421.73 463.02 417.49 462.65 414.12 463.92 408.56 463.9 407.12 464.93 402.15 462.66 399.27 462.27 397.51 456.15 395.92 454.13 395.03 451.38 392.41 450.22 389.23 447.49 387.25 447.36 385.31 446.48 382.01 443.56 382.81 439.18 384.95 435.18 384.52 430.74 385.2 428.76 390.16 425.08 391.43 424.49 394.61 425.24 397.34 424.38 399.03 422.06 404.99 418.52 404.68 415.62 405.26 413.6 407.09 411.42 408.69 411.2 410.35 409.85 409.6 408.17 412.98 406.32 412.87 405.6 416.29 402.64 417.06 398.58 416.67 396.37 420.68 394.83 423.54 391.81 423.85 388.23 424.61 386.67 423.48 380.22 424.83 379.02 424.76 377.58 428.01 376.49 431.04 377.12 432.66 378.32 435.25 379.27 437.12 381.02 440.06 380.31 442 378.81 442.7 373.54 444.34 372.43 446.56 372.47 450.2 370.61 451.05 368.34 452.35 367.07 455.04 362.4 455.35 359.12 457.91 356.91 460.1 352.69 460.75 349.93 461.54 349.45 466.78 351.21 469.93 349.23 473.27 345.07 472.8 340.28 470.91 338.89 471.04 335.97 468.48 333.24 467.43 330.68 468.38 329.47 466.5 325.44 466.64 322.93 465.92 319.5 468.28 318.9 476.19 313.81 477.65 312.08 480.27 310.43 483.11 306.74 484.59 303.91 487.22 296.22 485.73 292.14 485.82 289.99 487.71 287.82 488.01 286.07 489.63 285.08 490.83 282.13 491.37 279.59 493.54 278.67 495.94 278.37 496.19 276.77 493.92 272.72 493.51 270.94 493.73 267.34 494.45 265.79 494.65 262.28 497.93 260.41 500.16 259.98 503.2 260.82 507.51 260.31 510.58 259.04 511.48 256.33 514.62 253.86 516 250.88 521.7 245.96 526.36 243.49 528.36 243.78 530.94 241.38 532.18 238.74 533.92 236.54 537.06 239.52 539.99 237.49 543.13 236.62 Z" id="31200130"/>
<path d="M 438.08 775.15 434.08 776.5 425.07 778.96 423.74 778.66 420.47 780.55 417.71 783.08 414.58 784.3 410.07 784.91 407.27 785.76 405.49 787.41 404.13 789.64 404.19 791.87 402.74 792.18 402.16 794.01 399.93 795.42 397.85 796.07 396.24 797.5 393.13 797.18 392.23 796.48 390.85 799.77 389.92 803.75 389.18 803.37 388.63 798.71 387.56 796.6 384.72 793.16 381.17 794.52 379.3 796.02 377.72 799.51 373.24 799.89 372.61 800.82 370.25 801.15 367.82 798.92 367.18 795.42 365.46 792.96 363.74 796.6 362.07 803.07 354.02 802.54 350.76 803.17 346.01 808.72 338.54 805.17 336.68 802.76 336.81 801.08 332.47 798.55 329.76 798.98 326.68 797.19 325.32 797.9 323.09 797.88 322.65 795.36 321.72 793.89 319.2 792.16 317.23 791.64 315.41 788.06 316.66 785.7 316.57 783.74 317.32 780.38 316.66 777.46 311.41 771.58 310.72 770.35 308.56 772.96 305.37 773.68 302.05 775.34 300.61 777.25 301.43 778.67 304.63 781.8 303.33 782.8 302.19 780.79 299.27 782.6 297.3 779.94 296.78 778.13 298.2 776.53 293.89 777.21 289.91 778.87 286.28 778.03 285.67 780.57 283.96 782.94 283.01 782.71 278.28 779.05 276.75 780.19 259.84 751.06 259.32 747.69 257.01 747.58 256.19 747.49 256.09 747.65 255.75 747.4 255.85 746.42 256.75 747.55 259.19 747.64 260.2 745.71 259.93 743.44 261.56 740.8 263.17 740.85 265.82 742.42 269.68 743.34 275.13 742.24 278.1 742.04 283.71 742.44 285.48 743.16 288.6 746.37 291.52 748.28 294.36 749.44 296.11 749.08 298.54 747.53 300.8 745.38 303.66 742 303.57 739.42 305.88 738.94 307.82 737.47 309.34 737.48 311.51 735.86 310.18 735.2 308.2 732.36 308.77 730.6 307.53 728.88 308.12 725.83 307.57 722.42 305.33 722.31 303.33 720.55 300.7 719.32 305.33 716.55 305.01 714.22 307.7 710.72 310.15 712.04 312.67 711.15 315.41 710.81 316.23 707.83 316.31 705.49 318.32 704.37 322.29 700.96 324.1 697.43 327.36 695.49 327.32 691.89 328.37 690.75 331.18 689.13 330.96 685.41 331.42 684.63 330.37 682.27 331.54 681.36 335.29 681.89 339.51 677.97 339.26 676.28 340.88 673 340.81 671.11 341.73 665.99 341.16 660.66 341.25 658.39 343.52 657.45 344.52 653.98 346.78 653.89 347.28 651.52 349.77 648.85 349.41 647.41 351.86 645.03 353.13 642.78 354.58 643.68 356.5 647.8 357.91 647.97 359.94 650.97 360.88 653.65 362.44 656.24 363.64 656.78 365.83 654.14 366.51 652.57 370.34 646.79 372.18 645.62 374.41 645.85 376.73 647.6 379.27 647.79 381.04 646.88 382.97 644.63 384.51 644.55 386.38 641.8 389.5 643.65 390.49 641.86 393.89 641.83 397.76 643.47 400.78 642.16 401.96 644.86 401.94 646.92 403.27 647.29 405.96 652.38 408.11 652.67 409.26 651.54 414.57 651.33 415.32 653.8 414.25 655.28 415.79 658.18 417.31 659.06 418.26 661.88 417.85 663.34 417.8 667.16 418.41 668.37 417.83 670.99 416.47 673.92 418.31 675.86 416.91 677.26 417.21 678.64 416.24 683.42 416.58 685.26 415.39 686.7 415.43 688.51 414.36 689.62 414.3 692.42 416.57 695.12 420.42 695.67 424.22 695.07 426.86 696.43 427.04 697.97 425.96 699.94 427.87 704.55 427.28 709.96 430.08 714.53 430.55 719.16 433.91 719.7 434.68 721 434.51 724.13 436.26 726.75 438.49 731.16 439.47 735.99 440.96 738.14 440.11 739.06 439.74 744.15 442.54 745.31 443.16 751.62 444.44 754.85 444.22 761.28 443.88 762.43 445.26 766.31 443.41 767.83 440.64 771.1 439.28 774.54 438.08 775.15 Z" id="31200150"/>
<path d="M 392.34 583.94 392.73 585.51 394.69 586.76 397.14 587.55 399.67 589.46 398.56 592.48 397.09 591.89 395.82 592.82 395.1 594.77 393.96 594.45 392.21 595.5 390.52 602.21 390.45 606.01 392.16 607.12 392.26 608.68 390.02 613.48 387.91 615.71 387.01 618.98 384.69 623.47 385.3 626.38 383.73 628.1 383.12 630.26 381.05 632.01 383.5 633.5 383.93 636.7 387.21 639.24 386.38 641.8 384.51 644.55 382.97 644.63 381.04 646.88 379.27 647.79 376.73 647.6 374.41 645.85 372.18 645.62 370.34 646.79 366.51 652.57 365.83 654.14 363.64 656.78 362.44 656.24 360.88 653.65 359.94 650.97 357.91 647.97 356.5 647.8 354.58 643.68 353.13 642.78 351.86 645.03 349.41 647.41 349.77 648.85 347.28 651.52 346.78 653.89 344.52 653.98 343.52 657.45 341.25 658.39 341.16 660.66 341.73 665.99 340.81 671.11 340.88 673 339.26 676.28 339.51 677.97 335.29 681.89 331.54 681.36 330.37 682.27 331.42 684.63 330.96 685.41 331.18 689.13 328.37 690.75 327.32 691.89 327.36 695.49 324.1 697.43 322.29 700.96 318.32 704.37 316.31 705.49 314.83 704.41 313.88 702.09 310.89 699.8 310.78 698.51 305.95 696.76 301.27 689.59 301.4 688.13 299.92 684.71 294.34 680.28 294.02 678.84 290.38 676.88 287.76 673.18 285.31 673.31 284.1 671.93 281.52 670.78 279.03 670.67 277.74 671.29 274.88 670.54 274.17 669.06 274.96 665.04 273.01 661.69 273.31 659.33 271.14 654.54 269.23 652.16 266.96 653.25 265.55 653.24 263.74 654.45 262.58 653.34 262 651.28 258.87 650.73 257.41 652.2 255.13 651.37 254.19 648.81 252.5 647.48 251.97 644.86 247.06 641.35 246.32 639.76 241.31 637.73 241.26 635.21 237.62 634.77 235.61 632.5 235.62 630.21 233.91 625.24 232.09 623.04 230.9 617.41 229.69 617.07 228.26 615.12 228.29 612.33 230.08 607.54 229.64 604.73 230.31 600.05 230 598.34 231.13 597.34 231.84 595.1 228.97 593.6 225.81 587.87 223.08 586.4 220.96 583.4 220.48 581.02 221.77 578.52 221.93 575.41 226.22 568.99 223.63 564.56 218.31 561.3 215.71 560.97 213.97 560.06 212.14 557.89 208.74 555.96 206.6 555.6 203.96 553.68 204.27 550.91 205.6 544.35 203.52 543.76 203.37 542.15 205.87 538.8 204.74 537.94 205.25 536.41 211.29 538.22 212.27 534.16 212.07 532.52 210.09 532.79 206.48 531.29 209.9 527.51 209.53 525.64 211.18 522.49 214.22 521.36 221.06 515.42 220.54 513.14 223.88 511.73 226.08 511.79 227.39 508.24 226.41 506.49 226.78 504.37 225.55 502.96 227.25 498.64 229.52 500.28 233.39 500.41 235.25 501.53 236.79 503.74 239.86 502.97 244.62 500.01 248.31 498.67 252.94 501.29 254.31 500.63 255.29 498.79 255.55 496.65 256.98 494.09 259.58 492.94 266.54 492.33 266.53 488.38 273.87 487.82 273.89 488.37 273.61 492.42 275.39 493.55 277.53 496.09 277.76 498.98 275.88 499.76 277.95 502.1 278.15 505.18 276.98 506.47 278.78 507.33 278.77 508.81 277.39 510.22 275.11 510.69 275.69 520.13 277.36 521.47 275.91 523.31 276.18 527.14 278.29 528.3 278.75 530.18 277.59 532.55 277.47 534.22 278.37 535.78 277.47 540.33 279.69 543.49 279.35 546.16 277.99 547.72 278.02 553.43 281.19 554.2 281.86 557.6 281.62 560.61 280.8 562.93 283.87 565.94 284.31 567.42 283.5 570.75 284.99 575.75 286.22 580.89 290.6 583.72 291.52 585.24 293 589.33 293.86 588.86 299.44 588.96 302.44 590.11 305.87 590.63 313.64 595.96 315.69 596.4 318.59 595.91 321.79 596.22 326.01 595.24 331.87 591.85 332.4 591.03 361.56 591.03 366.74 592.04 369.71 591.92 372.74 592.38 374.72 591.03 377.18 591.03 379.76 587.56 381.94 586.14 390.19 585.29 392.34 583.94 Z" id="31200310"/>
<path d="M 220.54 513.14 221.06 515.42 214.22 521.36 211.18 522.49 209.53 525.64 209.9 527.51 206.48 531.29 210.09 532.79 212.07 532.52 212.27 534.16 211.29 538.22 205.25 536.41 204.74 537.94 205.87 538.8 203.37 542.15 203.52 543.76 205.6 544.35 204.27 550.91 203.96 553.68 206.6 555.6 208.74 555.96 212.14 557.89 213.97 560.06 215.71 560.97 218.31 561.3 223.63 564.56 226.22 568.99 221.93 575.41 221.77 578.52 220.48 581.02 220.96 583.4 223.08 586.4 220.99 589.31 219.24 590.35 217.42 592.34 217.73 593.64 216.22 594.74 215.38 596.45 211 594.89 205.03 595.83 205.65 591.94 204.02 590.44 202.39 591.04 199.39 590.98 197.39 590.39 195.25 590.79 194.09 593.88 193.08 595.16 189.54 593.41 188.06 594.29 184.64 594.75 183.3 595.65 180.06 595.06 179.13 595.6 175.79 592.97 174.8 592.96 174.69 595.44 173.46 597.96 171.23 600.27 169.35 600.62 168.45 598.97 166.71 598.94 165.39 596.6 162.33 596.84 158.77 592.52 157.81 593.73 155.69 593.96 155.08 595.44 153.53 595.95 152.92 597.65 149.28 599.37 147.77 605.44 146.08 605.69 143.95 608.51 142.35 609.1 142.75 613.93 141.83 616.12 140.64 621.77 140.71 624.08 139.43 626.98 140.54 635.77 141.01 636.43 140.65 640.36 142.39 641.67 140.84 644.43 140.54 648.41 139.68 650.38 141.93 651.41 143.54 653.37 145.51 652.84 147.4 657.11 147.09 662.05 143.44 662.79 143.35 666.58 145.72 668.17 145.77 669.44 148.45 671.7 146.7 672.83 143.32 673.07 147.72 684.35 148.2 685.21 161.43 704.94 167.24 713.86 167.16 715.18 166.33 716.71 161.97 720.07 158.77 720.55 154.73 720.34 154.49 719.16 152.64 719.04 149.09 717.63 145.59 718.03 142.79 717.24 141.71 717.63 137.1 720.78 129.15 722.32 127.92 723.5 119.21 712.9 118.65 712.58 107.08 709.4 104.28 709.84 101.42 711.02 100.3 712.66 100.19 715.89 99.64 717.75 100.52 721.2 98.95 720.96 98.1 717.11 94.03 709.51 91.56 706.77 89.58 706.87 88.27 707.79 82.15 714.72 80.47 716.1 76.01 717.71 74.75 716.62 66.91 713.42 62.1 714.9 61.23 718.34 58.22 717.55 57.45 718.51 56.63 725.61 55.85 727.12 57.55 734.98 56.96 740.56 57.13 742.31 59.07 741.69 60.36 742.82 39.38 742.78 36.08 724.81 13.18 678.64 8.67 646.67 7.75 646.62 8.25 641.75 11.44 621.46 13.79 611.32 14.33 601.18 15.89 591.04 18.43 570.76 19.89 560.61 21.63 550.47 23.05 540.33 24.71 530.19 27.78 509.9 53.12 489.62 78.46 476.31 91.13 469.33 103.8 466.41 116.47 464.47 129.14 461.81 131.84 461.09 141.81 459.19 154.48 457.89 167.15 457.08 175.07 456.33 179.83 459.19 182.5 462.55 184.1 463.31 185.1 462.42 187.76 462.84 189.78 466.4 190.8 467.16 194.16 473.07 196.03 474.31 192.92 477.54 192.54 481.04 193.15 484.25 197.29 487.33 198.11 489.68 200.3 490.31 199.97 492.02 200.39 495.55 203.39 496.95 204.89 499.93 208.45 502.67 209.87 504.77 212.24 505 215.28 507.31 216.22 508.65 219.6 511.37 220.54 513.14 Z" id="31200320"/>
<path d="M 316.31 705.49 316.23 707.83 315.41 710.81 312.67 711.15 310.15 712.04 307.7 710.72 305.01 714.22 305.33 716.55 300.7 719.32 303.33 720.55 305.33 722.31 307.57 722.42 308.12 725.83 307.53 728.88 308.77 730.6 308.2 732.36 310.18 735.2 311.51 735.86 305.85 734.03 276.79 721.28 276.17 721.84 272.36 722.37 270.42 722.22 255.49 722.3 255.39 711.89 237.01 711.91 229.73 711.59 231.64 707.16 228.12 701.96 226.69 703.19 225.81 703.71 225.59 698.13 224.61 696.67 225 694.44 226.84 693.1 229.19 692.91 234.6 690.96 235.56 689.75 240.16 691.75 242.94 691.92 251.15 689.51 256.29 686.79 263.78 683.09 265.98 683.48 268.52 682.1 270.27 683.23 278.3 678.82 281.41 676.34 281.93 677.19 284.29 675.95 284.99 677.2 286.74 675.86 287.76 673.18 290.38 676.88 294.02 678.84 294.34 680.28 299.92 684.71 301.4 688.13 301.27 689.59 305.95 696.76 310.78 698.51 310.89 699.8 313.88 702.09 314.83 704.41 316.31 705.49 Z" id="31200530"/>
<path d="M 287.76 673.18 286.74 675.86 284.99 677.2 284.29 675.95 281.93 677.19 281.41 676.34 278.3 678.82 270.27 683.23 268.52 682.1 265.98 683.48 263.78 683.09 256.29 686.79 251.15 689.51 242.94 691.92 240.16 691.75 235.56 689.75 234.6 690.96 229.19 692.91 226.84 693.1 225 694.44 224.61 696.67 225.59 698.13 225.81 703.71 226.69 703.19 223.88 706.42 220.48 701.9 222.61 701.08 223.31 699.27 222.36 697.62 220.56 696.82 219.03 699.39 218.27 698.76 213.18 698.1 210.18 695.01 207.43 693.77 205.15 693.69 201.74 695.09 198.66 695.29 197.33 695.93 193.21 695.36 192.5 693.51 190.96 692.46 187.52 688.3 185.47 688.86 180.75 691.89 184.41 692.46 184.58 696.9 179.37 699.94 177.87 701.86 176.01 700.75 173.78 701.39 173.43 702.6 169.89 708.57 167.82 714.41 167.16 715.18 167.24 713.86 161.43 704.94 148.2 685.21 147.72 684.35 143.32 673.07 146.7 672.83 148.45 671.7 145.77 669.44 145.72 668.17 143.35 666.58 143.44 662.79 147.09 662.05 147.4 657.11 145.51 652.84 143.54 653.37 141.93 651.41 139.68 650.38 140.54 648.41 140.84 644.43 142.39 641.67 140.65 640.36 141.01 636.43 140.54 635.77 139.43 626.98 140.71 624.08 140.64 621.77 141.83 616.12 142.75 613.93 142.35 609.1 143.95 608.51 146.08 605.69 147.77 605.44 149.28 599.37 152.92 597.65 153.53 595.95 155.08 595.44 155.69 593.96 157.81 593.73 158.77 592.52 162.33 596.84 165.39 596.6 166.71 598.94 168.45 598.97 169.35 600.62 171.23 600.27 173.46 597.96 174.69 595.44 174.8 592.96 175.79 592.97 179.13 595.6 180.06 595.06 183.3 595.65 184.64 594.75 188.06 594.29 189.54 593.41 193.08 595.16 194.09 593.88 195.25 590.79 197.39 590.39 199.39 590.98 202.39 591.04 204.02 590.44 205.65 591.94 205.03 595.83 211 594.89 215.38 596.45 216.22 594.74 217.73 593.64 217.42 592.34 219.24 590.35 220.99 589.31 223.08 586.4 225.81 587.87 228.97 593.6 231.84 595.1 231.13 597.34 230 598.34 230.31 600.05 229.64 604.73 230.08 607.54 228.29 612.33 228.26 615.12 229.69 617.07 230.9 617.41 232.09 623.04 233.91 625.24 235.62 630.21 235.61 632.5 237.62 634.77 241.26 635.21 241.31 637.73 246.32 639.76 247.06 641.35 251.97 644.86 252.5 647.48 254.19 648.81 255.13 651.37 257.41 652.2 258.87 650.73 262 651.28 262.58 653.34 263.74 654.45 265.55 653.24 266.96 653.25 269.23 652.16 271.14 654.54 273.31 659.33 273.01 661.69 274.96 665.04 274.17 669.06 274.88 670.54 277.74 671.29 279.03 670.67 281.52 670.78 284.1 671.93 285.31 673.31 287.76 673.18 Z" id="31200540"/>
<path d="M 32.26 872.97 32.27 872.29 35.07 844.4 34.36 841.51 38.18 833.39 41.91 824.69 46.44 798.38 46.72 784.69 43.73 768.9 42.59 761.74 40.21 750.77 39.38 742.78 60.36 742.82 59.07 741.69 57.13 742.31 56.96 740.56 57.55 734.98 55.85 727.12 56.63 725.61 57.45 718.51 58.22 717.55 61.23 718.34 62.1 714.9 66.91 713.42 74.75 716.62 76.01 717.71 80.47 716.1 82.15 714.72 88.27 707.79 89.58 706.87 91.56 706.77 94.03 709.51 98.1 717.11 98.95 720.96 100.52 721.2 99.64 717.75 100.19 715.89 100.3 712.66 101.42 711.02 104.28 709.84 107.08 709.4 118.65 712.58 119.21 712.9 127.92 723.5 129.15 722.32 137.1 720.78 141.71 717.63 142.79 717.24 145.59 718.03 149.09 717.63 152.64 719.04 154.49 719.16 154.73 720.34 158.77 720.55 161.97 720.07 166.33 716.71 167.16 715.18 167.82 714.41 169.89 708.57 173.43 702.6 173.78 701.39 176.01 700.75 177.87 701.86 179.37 699.94 184.58 696.9 184.41 692.46 180.75 691.89 185.47 688.86 187.52 688.3 190.96 692.46 192.5 693.51 193.21 695.36 197.33 695.93 198.66 695.29 201.74 695.09 205.15 693.69 207.43 693.77 210.18 695.01 213.18 698.1 218.27 698.76 219.03 699.39 220.56 696.82 222.36 697.62 223.31 699.27 222.61 701.08 220.48 701.9 223.88 706.42 226.69 703.19 228.12 701.96 231.64 707.16 229.73 711.59 229.93 714.74 231.06 719.57 229.97 721.5 226.72 721.37 226.34 722.88 227.53 723.86 231.14 724.82 229.28 727.93 229.17 729.64 227.62 729.66 226.1 728.31 223.35 730.9 224.89 734.26 228.8 734.62 227.11 735.96 227.8 739.64 229.55 741.17 231.37 741.68 233.59 744.09 237.27 743.73 239.58 742.02 242.01 737.85 244.8 737.72 249.15 741.15 253.09 741.58 253.53 743.16 252.45 744.78 251.47 744.38 249.42 745.41 246.52 744.51 244.8 744.55 245.93 747.59 245.97 747.65 245.92 747.67 244.68 747.63 243.62 747.56 239.25 747.59 227.62 747.12 223.81 747.34 219.39 749.39 206.71 758.64 205.72 759.84 200.76 763.11 197.77 764.67 188.37 768.3 184.57 771 177.14 772.78 175.76 773.35 174.82 773.74 174.81 773.72 174.78 773.27 175.36 771.74 175.45 770.26 174.89 767.42 173.22 763.56 171.52 754.34 169.87 751.31 169.16 746.19 170.82 742.73 173.47 742.93 175.59 741.12 175.53 739.55 172.76 738 170.51 739.22 168.32 741.74 163.63 745.77 161.69 746.01 159.63 747.91 157.84 748.81 154.35 749.19 152.41 750.84 150.76 753.48 150.32 756.59 146.57 758.6 140.59 762.76 136.3 764.05 130.99 764.19 128.73 764.88 127.11 766.08 121.09 775.43 118.51 778.94 116.46 781.14 109.69 787.67 108.3 790.12 104.62 794.35 99.38 800.91 97.35 803.13 93.99 809.45 90.63 810.6 88.96 812.84 89.82 820.57 91.02 820.86 101.27 825.02 101.38 830.02 112.12 840.15 110.55 843.17 107.93 846.75 109.46 847.52 116.09 853.03 117.48 853.81 119.85 853.9 123.1 853.18 124.76 853.57 141.47 860.44 142.2 859.74 152.36 853.54 153.32 854.8 153.01 855.56 154.55 857.85 154.83 857.97 155.47 858.85 156.34 859.66 156.6 859.99 156.61 860 156.46 860.02 156.69 861.49 153.99 861.78 153.96 861.8 152.93 861.97 152.14 863.88 150.34 864.98 149.37 861.42 146.37 861.38 145.09 863.36 143.73 863.62 143.04 865.94 137.19 869.51 131.56 868.56 129.35 872.01 125.66 874.28 123.8 873.99 121.85 875.16 120.11 875.32 116.55 874.67 113.83 875.43 112.8 876.66 109.97 877.41 101.12 883.07 99.16 882.87 97.88 883.59 94.34 883.87 92.05 882.58 90.19 884.61 87.02 887.11 86.59 888.4 80.98 892.42 79.18 892.58 78.45 896.02 80.03 897.04 81.62 896.63 82.06 898.27 78.75 899.2 76.72 897.75 75.54 899.1 72.94 900.82 72.18 902.33 69.53 905.45 67.83 906 63.23 897.85 61.26 895.3 53.39 887.37 53.41 887.32 52.17 885.15 46.24 881.22 36.69 875.19 32.26 872.97 Z" id="31200511"/>
<path d="M 245.97 747.65 246.08 747.9 246.33 748.04 246.47 748.77 245.89 749.9 248.22 755.66 250.62 760.08 251.82 764.36 251.74 770.26 250.98 772.05 243.18 793.93 240.7 799.65 237.75 808.27 237.59 809.83 235.6 816.04 231.89 826.58 231.51 827.61 224.58 826.28 219.39 825.94 213.88 826.13 207.07 827.34 203.79 827.54 199.05 827.1 195.31 826.06 196.2 821.96 197.68 817.36 199.88 812.67 203.11 807.05 205.85 800.68 206.57 795.32 206.3 790.9 204.63 784.49 200.22 775.95 198.82 775.81 195.82 779.16 191.48 781.11 187.92 780.61 185.31 781.33 182.74 776.81 184.66 771.77 184.57 771 188.37 768.3 197.77 764.67 200.76 763.11 205.72 759.84 206.71 758.64 219.39 749.39 223.81 747.34 227.62 747.12 239.25 747.59 243.62 747.56 244.68 747.63 245.92 747.67 245.97 747.65 Z" id="31200512"/>
<path d="M 231.51 827.61 228.97 834.37 227.24 841.16 226.94 845.27 226.74 863.94 224.31 865.53 219.34 862.49 217.21 863.81 215.56 862.81 214.94 859.49 212.14 860.8 210.32 860.2 205.35 863.36 202.74 865.89 200.6 865.79 196.46 864.29 194.23 862.88 193.52 860.84 191.3 859.39 188.76 860.64 185.7 861.24 182.97 859.41 182.62 856.54 180.08 855.62 178.31 859.87 176.61 861.85 173.13 861.93 170.74 860.99 168.72 861.15 167.03 859.73 164.1 860.44 160.29 859.71 156.91 859.97 156.61 860 156.6 859.99 156.34 859.66 155.47 858.85 154.83 857.97 154.55 857.85 153.01 855.56 153.49 854.37 154.59 854.01 154.81 854.21 155.64 854.2 157.47 851.83 159.98 841 161.38 839.88 162.11 826.44 170.91 823.82 176.89 822.88 182.17 822.92 189.03 823.97 195.31 826.06 199.05 827.1 203.79 827.54 207.07 827.34 213.88 826.13 219.39 825.94 224.58 826.28 231.51 827.61 Z" id="31200513"/>
<path d="M 252.45 744.78 253.37 745.95 255.85 746.42 255.75 747.4 256.09 747.65 256.19 747.49 257.01 747.58 259.32 747.69 259.84 751.06 276.75 780.19 278.28 779.05 283.01 782.71 283.96 782.94 285.67 780.57 286.28 778.03 289.91 778.87 293.89 777.21 298.2 776.53 296.78 778.13 297.3 779.94 299.27 782.6 302.19 780.79 303.33 782.8 304.54 789.41 304.35 791.38 303.01 795.57 300.69 799.59 300.33 801.03 297.77 802.31 297.19 804.86 293.06 808.3 290.63 808.29 286.19 810.18 284.86 814.01 282.44 815.01 279.15 817.48 279.58 819.33 279.15 821.14 277.13 822.12 274.67 821.86 273.44 825.82 269.6 824.56 267.86 825.79 267.24 827.43 265.33 829.56 266.16 830.6 264.87 834.17 263.44 836.55 260.08 838.62 256.87 842.32 257.66 845.1 256.41 846.21 255.54 848.61 254.78 852.63 255.19 855.23 254.75 856.73 255.99 858.63 256.21 860.45 254.57 863.57 253.14 861.46 247.78 858.74 244.35 856.19 240.95 854.41 238.19 853.93 238.49 858.42 235.77 860.6 235.96 863.07 233.73 861.27 231.38 862.83 227.45 863.94 226.74 863.94 226.94 845.27 227.24 841.16 228.97 834.37 231.51 827.61 231.89 826.58 235.6 816.04 237.59 809.83 237.75 808.27 240.7 799.65 243.18 793.93 250.98 772.05 251.74 770.26 251.82 764.36 250.62 760.08 248.22 755.66 245.89 749.9 246.47 748.77 246.33 748.04 246.08 747.9 245.97 747.65 245.93 747.59 244.8 744.55 246.52 744.51 249.42 745.41 251.47 744.38 252.45 744.78 Z" id="31200514"/>
<path d="M 311.51 735.86 309.34 737.48 307.82 737.47 305.88 738.94 303.57 739.42 303.66 742 300.8 745.38 298.54 747.53 296.11 749.08 294.36 749.44 291.52 748.28 288.6 746.37 285.48 743.16 283.71 742.44 278.1 742.04 275.13 742.24 269.68 743.34 265.82 742.42 263.17 740.85 261.56 740.8 259.93 743.44 260.2 745.71 259.19 747.64 256.75 747.55 255.85 746.42 253.37 745.95 252.45 744.78 253.53 743.16 253.09 741.58 249.15 741.15 244.8 737.72 242.01 737.85 239.58 742.02 237.27 743.73 233.59 744.09 231.37 741.68 229.55 741.17 227.8 739.64 227.11 735.96 228.8 734.62 224.89 734.26 223.35 730.9 226.1 728.31 227.62 729.66 229.17 729.64 229.28 727.93 231.14 724.82 227.53 723.86 226.34 722.88 226.72 721.37 229.97 721.5 231.06 719.57 229.93 714.74 229.73 711.59 237.01 711.91 255.39 711.89 255.49 722.3 270.42 722.22 272.36 722.37 276.17 721.84 276.79 721.28 305.85 734.03 311.51 735.86 Z" id="31200520"/>
<path d="M 195.31 826.06 189.03 823.97 182.17 822.92 176.89 822.88 170.91 823.82 162.11 826.44 162.54 810.07 162.23 807.39 161.18 803.94 151.54 786.77 160.31 780.56 162.55 779.18 174.77 773.76 175.76 773.35 177.14 772.78 184.57 771 184.66 771.77 182.74 776.81 185.31 781.33 187.92 780.61 191.48 781.11 195.82 779.16 198.82 775.81 200.22 775.95 204.63 784.49 206.3 790.9 206.57 795.32 205.85 800.68 203.11 807.05 199.88 812.67 197.68 817.36 196.2 821.96 195.31 826.06 Z" id="31200570"/>
<path d="M 542.36 522.88 542.17 523.65 547.3 531.23 548.73 531.75 547.65 534.75 548.75 538.22 551.96 539.57 555.61 544.03 558.19 544.81 560.06 546.68 559.03 552.42 559.26 555.24 557.34 558.09 556.82 560.69 557.16 563.39 559.26 565.79 561.22 567.1 562.9 570.09 563.9 570.61 562.92 573.95 563.95 576.57 561.68 578.46 563.1 579.77 562.49 581.66 560.56 581.89 558.13 581.41 554.03 584.25 552.64 584.27 551.18 586.83 550.08 587.23 551.5 589.41 551.79 596.61 549.57 598.42 549.72 602.16 549.09 605.79 549.18 608.77 548.13 611.99 548.15 614.94 546.01 618.36 545.7 619.7 548.95 619.01 551.78 620.09 554.49 618.75 556.97 618.11 562.87 618.11 564.47 617.58 566.68 618.85 571.12 619.32 572.35 620.27 577.16 622.4 579.37 621.15 582.79 623.05 584.22 626.96 587.02 628.47 590.44 631.38 594.02 632.98 596.68 635.29 600.57 632.91 609 624.55 611.01 625.92 613.92 626.09 615.83 627.34 621.4 629.45 622.4 630.33 621.78 634.29 619.84 638.3 614.81 644.39 614.18 649.16 614.5 652.85 613.52 653.82 614.48 656.09 614.4 658 617.15 660.04 616.13 661.8 616.38 668.03 614.12 670.87 613.94 674.54 615.02 675.83 609.98 676.79 611.94 680.13 610.9 680.68 612.13 684.49 607.12 692.35 607.11 696.93 605.91 698.49 604.33 701.99 603.77 705.09 600.06 714.53 601.15 714.97 602.33 717.47 607.12 719.78 608.41 722.79 608.59 724.59 607.92 729.29 606.37 733.57 603.45 737.02 602.56 738.58 594.91 739.36 592.22 741.11 588.7 742.68 581.54 742.71 575.67 739.83 572.59 740.84 571.58 740.46 569.95 742.13 566.67 742.6 565.05 741.42 563.78 741.74 562.02 744.01 558.49 743 557.06 746.64 555.7 748.49 555.18 751.06 552.76 752.24 550.7 754.93 545.42 757.91 545.45 760.34 544.36 761 541.57 765.28 541.96 766.77 541.12 768.79 539.6 770.24 540.39 774.71 542.84 777.77 544.56 782.26 542.37 785.59 541.96 789.59 543.59 793.29 541.81 795.84 539.47 796.4 537.84 798.34 535.9 799.31 531.56 799.29 530.5 798.48 526.84 798.99 524.36 798.64 522.66 801.77 520.65 802.95 518.82 802.73 516.86 803.99 515.4 806.55 511.89 810.31 511.44 808.88 509.23 808.81 507.31 805.08 504.66 805.05 503.09 803.72 500.95 804.55 497.62 802.14 494.52 802.85 492.35 801.41 490.22 802.06 487.55 801.2 486.85 802.53 484.93 803.42 482.32 803.51 481.55 802.15 478.66 801.83 477.2 799.47 477.77 795.92 477.21 792.59 476.03 792.02 469.34 792.87 465.98 794.81 465.85 792.04 463.99 790.46 462.56 788.15 462.15 785.79 459.97 784.99 459.22 783.02 456.11 782.72 454.49 783.23 450.7 782.89 448.36 781.39 445.52 780.97 445.75 778.67 439.33 774.69 438.08 775.15 439.28 774.54 440.64 771.1 443.41 767.83 445.26 766.31 443.88 762.43 444.22 761.28 444.44 754.85 443.16 751.62 442.54 745.31 439.74 744.15 440.11 739.06 440.96 738.14 439.47 735.99 438.49 731.16 436.26 726.75 434.51 724.13 434.68 721 433.91 719.7 430.55 719.16 430.08 714.53 427.28 709.96 427.87 704.55 425.96 699.94 427.04 697.97 426.86 696.43 424.22 695.07 420.42 695.67 416.57 695.12 414.3 692.42 414.36 689.62 415.43 688.51 415.39 686.7 416.58 685.26 416.24 683.42 417.21 678.64 416.91 677.26 418.31 675.86 416.47 673.92 417.83 670.99 418.41 668.37 417.8 667.16 417.85 663.34 418.26 661.88 417.31 659.06 415.79 658.18 414.25 655.28 415.32 653.8 414.57 651.33 409.26 651.54 408.11 652.67 405.96 652.38 403.27 647.29 401.94 646.92 401.96 644.86 400.78 642.16 397.76 643.47 393.89 641.83 390.49 641.86 389.5 643.65 386.38 641.8 387.21 639.24 383.93 636.7 383.5 633.5 381.05 632.01 383.12 630.26 383.73 628.1 385.3 626.38 384.69 623.47 387.01 618.98 387.91 615.71 390.02 613.48 392.26 608.68 392.16 607.12 390.45 606.01 390.52 602.21 392.21 595.5 393.96 594.45 395.1 594.77 395.82 592.82 397.09 591.89 398.56 592.48 399.67 589.46 397.14 587.55 394.69 586.76 392.73 585.51 392.34 583.94 395.22 581.39 396.05 579.44 393.89 578.17 396.97 572.14 396.56 570.56 397.61 568.91 396.85 566.13 397.28 563.58 400.53 561.51 403.09 559.38 402.75 555.01 405.02 555.63 406.27 554.96 409.22 555.4 410.23 552.37 410.31 548.96 412.08 547.04 414.63 545.2 414.39 543.88 415.17 539.9 417.37 540.18 418.85 541.94 419.61 543.95 421.49 543.39 422.9 542.16 425.92 543.74 428.72 542.46 431.34 542.64 433.88 541.24 436.29 540.92 436.57 539.15 437.79 538.55 441.43 539.2 443.49 539.16 446.63 537.97 447.65 536.68 449.37 540.63 451.64 544.46 454.56 542.18 457.27 541.77 458.25 542.9 459.53 541.81 462.17 543.17 462.82 544.44 464.87 545.57 466.81 545.47 468.49 546.56 474.53 546.09 475.55 547 477.72 547.42 480.37 545.36 484.91 547.45 486.52 547.4 492.48 549.72 493.78 543.25 499.41 542.96 501.32 539.55 501.77 536.77 505.23 533.97 507.68 524.22 507.65 518.42 510.38 519.53 513.38 519.06 517.67 520.43 522.33 519.83 523.92 518.46 527.05 520.14 529.18 519.22 531.47 519.9 532.76 519.41 538.47 520.96 542.36 522.88 Z" id="31200350"/>
<path d="M 394.9 151.15 398.07 154.21 400.72 155.56 406.75 156.79 408.53 158.71 409.67 161.26 412.32 164.07 416 163.9 417.22 162.26 419.52 162.34 421.05 160.2 424.37 162.52 423.84 164.34 422.73 165.09 422.24 167.54 420.25 168.97 420.67 172.41 422.87 174.76 423.38 177.58 425.18 177.4 428.78 179.04 429.8 179.93 434.07 177.72 437.79 177.91 439.66 179.67 442.24 179.43 448.62 177.89 450.24 176.71 456.37 176.95 457.82 176.4 460.65 180.34 460.91 181.84 462.21 182.35 463.07 185.17 463.98 186.04 465.27 184.05 466.39 183.67 467.29 178.85 468.05 177.89 472 177.76 475.9 178.62 478.83 181.36 481.45 182.66 483.92 183.21 487.67 186.63 488.88 188.49 492.03 188.93 496.8 191.48 504.52 190.32 507.16 191.29 509.25 193.92 519.95 197.32 521.92 198.68 525.45 198.89 536.01 198.14 541.27 196.62 544.4 197.58 545.75 199.33 548.31 203.73 551.65 211 551.87 213.2 551.58 218.08 550.46 221.17 548.72 223.57 547.26 227.82 544.27 233.61 543.13 236.62 539.99 237.49 537.06 239.52 533.92 236.54 532.18 238.74 530.94 241.38 528.36 243.78 526.36 243.49 521.7 245.96 516 250.88 514.62 253.86 511.48 256.33 510.58 259.04 507.51 260.31 503.2 260.82 500.16 259.98 497.93 260.41 494.65 262.28 494.45 265.79 493.73 267.34 493.51 270.94 493.92 272.72 496.19 276.77 495.94 278.37 493.54 278.67 491.37 279.59 490.83 282.13 489.63 285.08 488.01 286.07 487.71 287.82 485.82 289.99 485.73 292.14 487.22 296.22 484.59 303.91 483.11 306.74 480.27 310.43 477.65 312.08 476.19 313.81 468.28 318.9 465.92 319.5 466.64 322.93 466.5 325.44 468.38 329.47 467.43 330.68 468.48 333.24 471.04 335.97 470.91 338.89 472.8 340.28 473.27 345.07 469.93 349.23 466.78 351.21 461.54 349.45 460.75 349.93 460.1 352.69 457.91 356.91 455.35 359.12 455.04 362.4 452.35 367.07 451.05 368.34 450.2 370.61 446.56 372.47 444.34 372.43 442.7 373.54 442 378.81 440.06 380.31 437.12 381.02 435.25 379.27 432.66 378.32 431.04 377.12 428.01 376.49 424.76 377.58 421.25 374.74 420.61 373.39 418.72 373.84 417.52 372.83 416.55 370.53 411.94 365.48 407.84 362.62 408.32 358.01 408.12 356.75 404.53 354.87 401.84 353.01 401.65 351.56 400.03 349.57 396.84 350.23 393.91 348.1 393.94 345.39 392.83 343.02 388.28 343.79 385.04 346.84 384.3 348.05 382.42 348.85 380.98 348.06 379.37 348.9 378.39 351.8 372.15 355.58 373.82 357.73 374.4 362.21 375.96 363.43 375.95 366.16 377.04 367.31 377.23 369.4 373.93 372.64 371.7 372.96 370.22 374.62 369.84 376.81 367.42 379.7 366.6 381.87 363.33 384.93 361.27 385.78 358.83 384.83 355.87 386.32 354.64 386.07 351.98 388.55 349.27 389.92 346.47 389.14 345.56 390.11 343.08 388.59 339.9 388.36 340.04 382.77 341.71 380.41 338.73 380.66 335.9 381.56 332.89 378.05 330.9 376.62 324.17 373.06 323.13 371.32 323.34 369.8 321.72 367.54 319.6 367.28 316.92 369.8 314.71 367.7 310.99 367.37 311.01 364.9 308.91 361.89 309.01 360.12 307.7 358.1 310.36 355.19 313.09 352.91 315.46 351.59 315.48 349.42 317.33 346.55 318.68 343.33 319.99 338.29 318.93 337.49 331.87 337.58 346.01 327.34 353.3 317.2 357.21 307.06 365.81 286.78 370.55 276.63 374.87 266.49 377.02 256.35 378.36 246.21 379 234.17 379.79 225.92 382.17 205.64 382.95 199.94 384.6 200.32 385.7 195.5 387.7 185.36 388.15 167.02 389.77 154.93 391.14 150.97 394.9 151.15 Z" id="31200360"/>
<path d="M 699.67 193.79 697.66 193.69 696.79 195.18 693.55 196.82 693.28 198.91 691.99 200.52 691.87 203.41 686.64 201.96 682.24 204.06 682.24 207.53 681.59 209.98 681.52 214.45 682.27 215.78 680.36 221.95 681.32 222.7 682.05 225.39 681.84 229.24 682.59 231.38 681.64 234.65 680.43 235.05 680.19 238.17 676.73 241.39 675.24 244.12 675.11 246.17 676.37 250.5 675.41 252.98 673.81 253.34 672.94 255.4 671.45 255.85 667.29 253.28 667.24 252.6 664.21 250.91 660.14 253.38 659.28 255.14 655.7 256.56 648.48 260.42 647.92 263.42 650.57 264.75 650.74 266.65 653.71 269.83 654.69 271.54 656.45 272.46 657.65 275.25 658.73 275.86 660.17 280.41 658.39 283.63 657.7 286.53 653.95 290.21 650.93 291.55 649.88 294.06 648.61 294.65 647.47 296.77 648.08 299.76 647.13 301.87 645.69 302.86 642.04 308.31 640.28 309.68 642.21 311.99 640.78 313.64 642.16 317.56 643.37 318.39 645.55 321.11 644.37 324.87 645.65 326.23 642.81 330.88 642.31 334.81 640.21 337.32 640.92 339.27 639.23 343.81 638.21 342.54 635.62 341.19 634.27 337.98 631.59 334.98 628.52 333.42 626.44 333.39 624.69 334.14 624.42 332.13 625.46 327.24 623.13 323.74 623.91 322.34 623.33 320.69 619.51 318.41 617.71 314.66 616.03 314.88 613.18 312.81 610.45 313.29 605.96 315.87 603.96 317.54 603.25 315.42 601 311.34 598.62 309.94 593.14 308.63 592.16 305.58 590.46 304.44 585.25 298.29 583.65 295.81 576.03 290.18 573.03 289.46 571.62 283.45 572.23 281.46 567.74 281.43 565.36 278.35 562.97 274.34 561.31 272.55 559.98 269.67 557.01 267.53 554.55 266.56 555.77 263.07 555.23 258.83 555.74 256.31 555.11 253.72 551.35 251.57 549.07 251.54 547.47 249.1 546.2 248.61 545.82 245.26 543.81 242.48 544.32 238.23 543.13 236.62 544.27 233.61 547.26 227.82 548.72 223.57 550.46 221.17 551.58 218.08 551.87 213.2 551.65 211 548.31 203.73 545.75 199.33 544.4 197.58 541.27 196.62 536.01 198.14 525.45 198.89 521.92 198.68 519.95 197.32 509.25 193.92 507.16 191.29 504.52 190.32 496.8 191.48 492.03 188.93 488.88 188.49 487.67 186.63 483.92 183.21 481.45 182.66 478.83 181.36 475.9 178.62 472 177.76 468.05 177.89 467.29 178.85 466.39 183.67 465.27 184.05 463.98 186.04 463.07 185.17 462.21 182.35 460.91 181.84 460.65 180.34 457.82 176.4 456.37 176.95 450.24 176.71 448.62 177.89 442.24 179.43 439.66 179.67 437.79 177.91 434.07 177.72 429.8 179.93 428.78 179.04 425.18 177.4 423.38 177.58 422.87 174.76 420.67 172.41 420.25 168.97 422.24 167.54 422.73 165.09 423.84 164.34 424.37 162.52 421.05 160.2 419.52 162.34 417.22 162.26 416 163.9 412.32 164.07 409.67 161.26 408.53 158.71 406.75 156.79 400.72 155.56 398.07 154.21 394.9 151.15 395.22 150.65 395.22 142.51 399.07 134.65 400.71 124.5 401.43 114.36 402.67 99.52 404.97 89.64 407.15 84.85 407.89 82.45 415.98 73.79 420.56 69.71 424.96 68.2 429 68.57 433.23 69.94 438.44 73.79 445.9 80.05 449.31 83.94 458.57 92.12 460.34 94.08 466.05 98.72 471.61 104.22 476.92 111.96 479.98 114.36 483.91 116.77 496.58 123.52 500.1 124.65 507.57 125.95 509.25 125.34 519.99 122.47 521.92 120.9 525.01 116.56 527.48 117.15 528.26 115.83 528.55 110.04 527.96 103.26 525.53 103.45 523.31 94.08 522.37 85.64 521.92 83.93 520.88 73.79 521.45 53.51 522.62 49.57 528.58 45.02 531.9 44.86 534.59 45.66 544.77 46.32 547.26 46.48 552.22 48.79 557.46 53.51 559.93 55.41 559.93 63.65 565.31 63.65 572.6 67.2 577.93 69.29 580.07 69.6 585.27 71.47 591.85 74.78 597.94 77.58 600.05 78.05 610.62 82.04 623.29 84.59 623.29 83.93 635.96 78.01 641.3 73.79 648.63 68.69 656.64 63.65 661.3 60.13 666.74 53.51 671.52 43.36 672.24 40.84 686.09 28.43 692.87 23.08 695.59 17.57 696.19 15.13 698.18 16.36 700.01 10.34 702.17 10.78 702.17 9.4 704.1 9.56 705.93 11.44 710.53 10.11 714.15 7.27 714.48 6.2 716.76 6.56 717.54 8.34 719.2 9.95 721.33 11.07 723.27 5.48 725.98 4.33 729.95 5.01 729.99 2.99 731.65 3.18 737.29 1 737.77 2.65 736.83 8.97 741.72 13.86 743.03 16.25 746.08 20.31 746.7 23.15 749.58 25.17 749.7 26.82 753.46 28.53 755.57 28.47 756.89 30.36 758.14 34.16 759.98 36.08 760.13 38.66 761.96 40.94 763.84 42.42 765.14 41.72 767.8 44.17 769.06 46.41 771.79 47.84 777.48 47.57 780.27 48.27 783.3 50.14 784.16 49.59 786.81 49.69 790.38 48.61 791.25 49.72 793.96 51.15 796.68 53.41 795.43 58.48 796.92 61.51 797.05 63.38 799 67.49 797.55 69.85 795.39 71.55 791.11 73.63 788.94 74.11 788.46 75.7 787.19 76.44 787.86 78.55 787.24 83.5 787.52 85.81 785.77 87.77 786.79 92.15 787.81 94.18 786.5 96.96 784.38 100.12 778.38 104.21 776.82 104.31 775 100.43 771.37 100.32 770.08 101.24 769.31 104.21 767.05 105.47 768.51 108.79 769.26 112.08 767.76 116.08 764.75 120.06 761.52 119.74 758.44 119.97 755.3 122.18 750.31 122.09 746.74 121.22 742.3 121.1 741.25 122.76 741.28 125.83 739.94 128.09 736.99 130.36 737.45 133.01 736.48 133.45 734.94 136.2 734.66 138.21 735.59 140.98 734.77 142.79 735.92 145.93 735.43 147.67 736.57 150.38 735.33 153.33 731.04 154.72 729.83 154.45 727.65 155.41 724.58 158.3 720.67 159.82 717.41 162.61 710.32 167.12 711.02 169.47 709.95 172.63 709.75 175.84 709.07 177.74 709.13 180.83 710.28 182.6 708.02 184.65 708.13 186.86 705.91 188.89 704.56 191.3 700.78 192.65 699.67 193.79 Z" id="31200370"/>
<path d="M 318.96 58.37 317.49 59.43 316.71 61.56 316.15 65.51 317.79 67.83 317.85 69.42 319.42 72.2 320.12 75.34 321.52 77.75 321.71 80.28 326.01 81.91 326.8 84.49 329.55 85.96 330.05 92.14 331.69 93.46 330.33 96.13 330.22 98.38 332.76 101.18 334.24 101.29 336.36 99.87 337.34 102.09 339.51 102.97 336.38 105.66 331.86 107.16 328.25 106.7 328.71 108.77 330.44 109.17 332.23 111.86 333.25 111.59 335.63 112.81 335.23 116.21 336.04 117.62 341.48 118.17 343.43 116.69 346.92 118.08 349.06 120.82 348.69 122.38 349.9 124.04 351.86 123.69 352.4 125.36 354.32 125.82 354.69 129.93 356.79 131.51 356.72 132.88 354.59 136.78 353.17 137.17 353.09 140.23 356.04 140.5 355.92 142.57 357.78 145.26 357.51 147.15 359.66 147.71 361.69 150.15 364.94 147.5 366.12 148.17 368.82 147.82 371.45 144.93 373.23 144.51 376.95 142.18 378.57 143.5 380.85 140.06 383.31 137.9 383.8 135.68 385.02 133.63 384.17 130.24 387.05 130.98 389.21 130.57 388.65 132.8 395.21 131.6 395.22 142.51 395.22 150.65 394.9 151.15 391.14 150.97 389.77 154.93 388.15 167.02 387.7 185.36 385.7 195.5 384.6 200.32 382.95 199.94 382.17 205.64 379.79 225.92 379 234.17 378.36 246.21 377.02 256.35 374.87 266.49 370.55 276.63 365.81 286.78 357.21 307.06 353.3 317.2 346.01 327.34 331.87 337.58 318.93 337.49 307.57 330.52 306.52 327.34 300.8 317.2 298.82 317.2 294.4 307.06 297.17 286.78 294.91 276.64 294.68 272.43 293.85 266.49 288.61 261.26 281.19 263.7 268.52 265.7 264.48 266.49 262.7 269.31 259.53 273.23 252.78 276.64 247.11 279.85 244.69 281.84 245.41 286.06 243.18 286 230.51 286.44 226.44 286.78 217.83 293.08 205.16 292.59 192.49 293.84 189.37 296.92 183.69 307.06 179.82 310.9 168.43 327.28 166.24 330.67 167.12 357.79 179.82 368.45 192.49 389.48 196.17 398.34 205.16 408.48 211.87 418.62 217.83 428.33 217.83 438.91 205.16 449.05 192.49 454.77 175.07 456.33 167.15 457.08 154.48 457.89 141.81 459.19 131.84 461.09 129.14 461.81 116.47 464.47 103.8 466.41 91.13 469.33 78.46 476.31 53.12 489.62 27.78 509.9 27.78 494.49 24.26 495.31 23.07 494.28 19.26 492.34 18.64 492.83 15.43 490.47 2.88 482.84 1.29 480.82 1 478.85 2.7 475.52 2.93 471.91 4.63 469.41 5.93 471.4 6.93 470.12 8.62 470.81 11.33 470.47 12.38 471.09 16.66 469.53 16.7 468.73 20.78 467.01 25.04 464.23 26.35 462.27 28.33 465.79 29.95 466.22 37.12 465.97 38.39 466.34 38.65 468.47 41.04 467.25 43.36 464.35 46.23 462.89 47.39 459.49 46.48 458.18 46.46 455.01 47.16 452.17 47.37 448.37 46.63 445.78 47.17 443.96 49.37 441.75 50.32 439.47 52.85 438.19 56.64 433.25 57.02 432.07 60 428.48 60.81 426.31 63.03 422.62 63.99 419.95 64.04 418.03 66.73 413.48 66.25 409.51 66.71 408.73 71.04 405.14 72.75 403.21 73.06 401.19 74.44 399.74 71.89 398.81 70.64 396.23 66.4 394.67 64.62 391.22 63.51 391.29 62.17 388.64 58.19 386.22 57.31 386.28 54.98 384.04 53.35 387.34 50.79 387.31 49.54 389.97 48.34 393.72 46.48 393.83 45.42 394.91 43.01 393.89 41.44 394.72 37.04 395.42 31.61 395.51 30.88 395.03 32.91 390.92 34.75 388.2 39.61 387.85 40.33 385.63 39.37 384.5 35.81 382.07 29.44 374.9 29.75 372.72 31.79 372.51 35.64 374.72 37.43 375.04 40.45 373.41 44 372.19 46.63 371.77 51.2 369.31 52.05 367.92 50.68 366.6 48.21 365.98 45.65 364.49 44.52 361.28 45.87 358.59 47.77 356.26 46.91 354.16 41.63 353.3 39.5 354.47 39.14 357.15 39.35 360.67 37.76 362.48 35.95 363.03 33.16 362.51 30.85 361.01 30.38 358.56 32.28 357.13 34.76 354.48 35.57 352.48 35.19 350.49 34.11 349.2 29.12 347.99 25.59 344.63 30.15 342.6 30.71 340.48 33.16 337.31 32.87 335.46 34.47 332.81 34.15 330.21 36.82 328.68 38.58 327.08 37.45 324.42 40.1 322.64 40.23 319.65 41.77 317.21 41.93 310.65 40.8 306.24 41.27 301.53 41.05 298.26 40.45 296.1 37.66 292.52 38.53 290.69 41.3 288.88 46.98 282.38 48.78 279.55 53.4 276.67 54.01 274.84 53.13 273.29 54.28 271.32 52.22 270.44 51.8 267.02 48.29 266.85 45.45 269.97 44.49 271.56 38.9 271.32 35.19 271.68 32.05 272.47 29.72 268.99 26.52 267.61 24.14 265.6 21.5 265.23 21.21 264.17 18.57 261.1 16.68 257.26 15.92 251.92 17.05 245 18.74 240.48 20.9 236.07 21.03 227.7 20.63 224.24 18.67 219.42 19.81 217.47 19.65 215.24 20.25 213.92 23.94 211.49 25.12 210.02 24.32 205.65 29.1 201.95 30.38 200.21 30.24 198.68 28.29 196.88 25.04 195.5 23.85 193.3 25.49 189.24 25.13 183.73 25.33 181.52 26.47 179.86 28.29 178.79 30.28 175.22 30.12 171.32 29.33 165.08 28.56 165.08 27.87 161.37 28.16 155.66 32.4 154.43 35.37 155.82 36.65 154.87 36.73 152.8 41.32 153.76 42.04 155.35 40.78 158.25 44.79 155.74 46.44 154.01 47.11 152.06 47.08 149.78 49.09 149.09 51.15 147.5 54.47 147.44 55.87 148.67 60.94 149.24 62.28 150.62 64.52 150.1 65.33 146.64 65.4 144.06 66.69 141.09 70.59 139.32 69.76 137.92 70.92 135.31 73.2 132.77 73.72 124.99 75.73 124.99 77.92 124 79.32 122.65 80.81 122.5 85.76 118.73 86.84 117.35 90.21 115.76 92.29 115.68 94.37 116.63 94.99 110.68 96.93 107.24 97.65 103.36 98.48 102.02 101.22 100.56 109.58 99.41 110.09 98.33 112.65 99.71 113.79 103.99 113.64 106.6 114.02 112.58 117.25 116.33 118.76 116.7 119.7 118.75 125.97 116.08 129.98 117.48 132.24 120.89 132.41 123.18 131.48 124.9 136.05 128.5 141.81 124.16 144.11 125.51 145.98 124.05 148.96 124.32 149.82 123.11 152.33 121.59 153.43 117.15 154.75 118.07 160.62 117.76 165.29 119.68 166.32 119.3 167.39 120.99 169.13 121.55 170.47 121.06 171.37 123.04 173.13 125.09 174.99 125.57 176.53 124.54 177.79 121.88 176.98 120.78 177.85 118.75 178.2 116.13 181.21 113.29 180.86 110.29 182.36 107.8 182.12 106.67 183.54 104.94 185.63 106.96 190.48 105.02 192.46 103.66 195.13 100.36 197.55 97.94 200.22 96.71 200.4 95.19 201.79 93.37 202.39 90.43 203.61 87.96 204.8 87.62 208.13 84.6 209.77 81.36 212.69 81.76 216.43 80.35 216.86 78.19 220.21 78.48 221.59 76.72 224.84 75.94 227.82 76.89 228.41 74.92 230.73 74.45 233.6 72.15 238.74 74.37 239.66 76.01 242.54 79.35 244.04 80.18 247.55 79.14 249.28 84.89 250.21 85.56 250.84 87.71 252.01 89.32 254.12 90.85 258.2 89.87 259.43 88.6 260.48 85.16 259.01 85.18 257.48 82.75 254.77 82.23 252.93 79.83 254.91 76.77 253.92 74.93 254.81 74.1 257.19 75.44 258.88 75.63 261.94 73.94 262.9 75.62 266.18 75.96 267.05 77.26 269.31 78.23 270.09 77.42 271.81 78.64 272.11 80.86 275.79 85.04 279.7 83.63 279.26 80.35 283.53 75.33 284.68 75 285.96 72.62 286.68 69.81 288.42 69.89 289.68 67.01 291.18 66.14 291.87 64.52 293.69 63.66 294.4 61.65 296.62 61.18 298.96 58.08 300.5 54.44 300.29 52.07 301.61 51.96 307.69 48.06 309.52 50.45 312.19 50.58 315.3 52.09 316.73 51.57 317.7 55.71 318.96 58.37 Z" id="31200390"/>
<path d="M 153.49 854.37 153.32 854.8 152.36 853.54 142.2 859.74 141.47 860.44 124.76 853.57 123.1 853.18 119.85 853.9 117.48 853.81 116.09 853.03 109.46 847.52 107.93 846.75 110.55 843.17 112.12 840.15 101.38 830.02 107.49 829.61 117.84 829.46 122.92 829.21 129.7 828.44 134.35 828.23 142.12 828.87 146.27 828.85 146.35 797.39 145.61 790.56 151.54 786.77 161.18 803.94 162.23 807.39 162.54 810.07 162.11 826.44 161.38 839.88 159.98 841 157.47 851.83 155.64 854.2 154.81 854.21 154.59 854.01 153.49 854.37 Z" id="31200516"/>
<path d="M 174.82 773.74 174.77 773.76 162.55 779.18 160.31 780.56 151.54 786.77 145.61 790.56 146.35 797.39 146.27 828.85 142.12 828.87 134.35 828.23 129.7 828.44 122.92 829.21 117.84 829.46 107.49 829.61 101.38 830.02 101.27 825.02 91.02 820.86 89.82 820.57 88.96 812.84 90.63 810.6 93.99 809.45 97.35 803.13 99.38 800.91 104.62 794.35 108.3 790.12 109.69 787.67 116.46 781.14 118.51 778.94 121.09 775.43 127.11 766.08 128.73 764.88 130.99 764.19 136.3 764.05 140.59 762.76 146.57 758.6 150.32 756.59 150.76 753.48 152.41 750.84 154.35 749.19 157.84 748.81 159.63 747.91 161.69 746.01 163.63 745.77 168.32 741.74 170.51 739.22 172.76 738 175.53 739.55 175.59 741.12 173.47 742.93 170.82 742.73 169.16 746.19 169.87 751.31 171.52 754.34 173.22 763.56 174.89 767.42 175.45 770.26 175.36 771.74 174.78 773.27 174.81 773.72 174.82 773.74 Z" id="31200515"/>
</g>
</svg>