<?xml version="1.0"?>
<svg xmlns="http://www.w3.org/2000/svg" version="1.2" baseProfile="tiny" width="800" height="632" viewBox="0 0 800 632" stroke-linecap="round" stroke-linejoin="round">
<g id="dong">
<path d="M 707.71 245.67 706.2 245.67 704.78 248.08 705.49 248.73 706.53 251.71 706.57 253.21 704.04 254.23 701.83 256.24 697.05 258.5 695.27 259.82 694.19 261.68 692.78 261.7 691.12 263.37 690.21 265.88 689.17 266.6 688.56 268.31 685.86 269.46 685.53 272.19 684.47 272.88 685.12 275.13 685.14 277.67 686.14 277.56 689.58 281.11 689.99 282.67 689.3 285.01 689.9 288.65 687.67 291.4 687.44 293.91 683.63 299.5 683.45 301.45 684.62 302.17 686.76 302.28 686.92 304.61 687.52 306.41 688.99 308.36 689.36 311.48 690.23 314.08 689.28 315.64 689.8 316.96 688.89 318.85 689.34 319.78 688.84 321.68 687.65 323.48 687.63 325.13 685.79 325.45 683.73 324.65 683.17 323.85 680.83 322.96 678.65 323.31 677.95 326.26 676.48 325.43 675.33 326.28 674.86 327.62 673.32 328.01 672.69 329.83 671.03 330.24 670.51 332.49 668.34 334.68 669.4 338.41 668.28 344.13 666.11 345.69 666.01 348.28 664.36 348.46 663.43 347.23 661.13 345.62 656.07 346.23 654.7 345.38 653.51 345.88 651.46 349.2 649.9 349.98 648.08 353.64 646.69 354.7 646.87 358.6 645.07 361.65 641.74 362 640.31 363.32 639.01 363.56 635.91 367.24 635.91 368.78 632.36 371.62 632.28 370.47 630.91 369.34 627.49 368.22 624.89 367.85 623.64 366.14 622.69 365.99 620.93 367.44 617.36 365.42 614.57 365.64 612.36 367.57 611.13 370.77 605.87 373.35 605.84 373.94 602.21 376.02 600.78 374.82 597.25 374.33 597.1 374.98 594.85 375.73 593.7 375.3 590.73 378.29 588.59 378.83 583.39 377.68 580.3 377.45 577.92 375.93 574.99 375.19 572.96 377.71 570.21 378.66 566.76 377.91 565.72 376.21 565.15 374.15 566 372.35 566.28 370.28 565.46 368 566.33 362.8 567.65 362.22 568.6 360.19 568.79 356.83 570.48 352.96 569.51 350.98 569.61 349.27 568.55 347.86 565 344.21 564.88 343.36 561.91 341.77 560.85 337.04 561.11 336.15 560.3 333.5 559.04 326.71 556.65 324.61 557.17 323.12 558.22 322.86 557.62 319.44 559.02 318.57 559.07 314.97 560.12 308.35 558.61 306.51 558.54 304.55 556.54 303.55 555.85 300.15 557.23 297.62 557.93 293.26 559.54 290.99 560.44 288.72 562.05 288 562.08 284.37 561.66 282.72 559.52 281.04 555.03 279.11 551.77 276.53 550.56 276.19 549.62 274.03 546.9 272.01 545.86 271.67 545.35 269.68 544.29 268.33 544.43 266.57 542.3 265.18 542.34 261.07 541.13 259.7 538.58 258.12 539.32 256.34 538.82 253.18 539.38 251.14 539.21 249.19 537.36 246.08 536.15 245.25 535.52 242.54 533.87 240.55 533.96 239.61 532.27 238.07 532.42 234.54 532.16 230.38 533.39 228.92 536.91 226.93 536.68 224.87 535.93 223.92 535.48 220.65 537.46 217.71 535.6 212.57 533.33 211.12 534.3 209.48 535.78 208.45 536.38 204.51 536.37 201.42 538.15 199.55 538.37 196.72 537.59 194.33 540.21 193.06 542.01 193.38 545.05 194.61 547.28 196.17 548.53 197.6 551.99 197.54 554.18 197.06 557.55 197.38 560.73 197.02 565.12 197.33 567.31 197.96 568.22 197.45 572.58 197.28 572.5 196.13 570.32 193.83 570.15 191.7 572.53 191.45 573.63 190.43 573.98 188.47 575.63 187.02 575 185 576.81 183.07 576.12 180.77 577.79 180.02 579.42 177.64 582.28 177.5 584.7 175.31 587.28 176.9 590.02 178.11 590.38 178.79 593.6 179.98 595.63 176.17 595.4 175.31 596.5 173.44 597.85 172.34 599.32 168.8 601.66 166.16 603.35 163.8 603.98 160.91 605.23 159.58 605.04 156.84 606.33 154.58 606.12 150.82 605.37 149.63 606.3 147.37 605.29 143.86 609.96 141.78 611.46 141.57 611.98 140.34 613.68 140.08 615.34 140.7 617.2 139.68 618.47 136.72 619.8 136.68 620.77 134.2 620.15 133.59 619.98 131.36 618.83 129.55 616.63 123.24 615.54 121.59 614.77 118.99 616.11 116.97 619.56 113.68 621.4 111.38 620.23 110.89 622.16 110.73 628.16 113.44 630.16 114.73 636.87 117.63 643.5 117.34 650.92 119.94 656.42 122.5 658.25 124.17 663.05 125.96 665.45 126.11 668.04 124.95 670.5 126.04 672.25 130.95 668.94 131.49 668.25 132.55 668.99 135.86 668.33 137.82 667.3 139.16 665.47 140.44 663.22 138.4 661.26 139.09 660.02 140.45 658.99 143.42 659.09 145.18 657.58 149.43 657.14 154.24 657.44 156.42 655.82 158.21 654.61 161.98 652.01 165.42 649.41 166.28 647.2 166.55 646.8 167.66 647.33 169.43 645.76 171.48 644.48 171.69 643.26 174.42 644.89 176.47 643.58 179.1 643.58 181.13 650.08 185.29 650.64 187.84 652.44 189.62 653.65 191.73 652.39 194.12 652.55 196.44 653.63 197.53 653.75 199.37 654.54 200.82 656.31 202.22 656.47 205.66 657.34 207.09 658.43 207.39 659.78 209.08 660.77 209.35 662.86 211.64 663.53 213.52 665.05 215.93 666.41 216.61 669.88 216.99 670.69 216.71 675.89 218.76 677.49 221.21 679.62 222.67 680.72 224.5 682.03 225.56 683.39 229.14 685.34 228.67 686.81 228.92 688.35 230.11 690.03 229.84 691.21 230.61 692.44 230.18 694.43 230.69 696.19 230.43 697.8 229.03 700.08 229.26 701.2 230.4 702.43 230.44 704.41 233.92 705.71 235.58 706.88 237.9 708.37 239.04 707.16 242.13 707.71 245.67 Z" id="31220400"/>
<path d="M 603.98 160.91 603.35 163.8 601.66 166.16 599.32 168.8 597.85 172.34 596.5 173.44 595.4 175.31 595.63 176.17 593.6 179.98 590.38 178.79 590.02 178.11 587.28 176.9 584.7 175.31 582.28 177.5 579.42 177.64 577.79 180.02 576.12 180.77 576.81 183.07 575 185 575.63 187.02 573.98 188.47 573.63 190.43 572.53 191.45 570.15 191.7 570.32 193.83 572.5 196.13 572.58 197.28 568.22 197.45 567.31 197.96 565.12 197.33 560.73 197.02 557.55 197.38 554.18 197.06 551.99 197.54 548.53 197.6 547.28 196.17 545.05 194.61 542.01 193.38 540.21 193.06 537.59 194.33 538.37 196.72 538.15 199.55 536.37 201.42 536.38 204.51 535.78 208.45 534.3 209.48 533.33 211.12 535.6 212.57 537.46 217.71 535.48 220.65 535.93 223.92 536.68 224.87 536.91 226.93 533.39 228.92 532.16 230.38 532.42 234.54 532.27 238.07 533.96 239.61 533.87 240.55 535.52 242.54 536.15 245.25 537.36 246.08 539.21 249.19 539.38 251.14 538.82 253.18 539.32 256.34 538.58 258.12 541.13 259.7 542.34 261.07 542.3 265.18 544.43 266.57 544.29 268.33 545.35 269.68 545.86 271.67 546.9 272.01 549.62 274.03 550.56 276.19 551.77 276.53 555.03 279.11 559.52 281.04 561.66 282.72 562.08 284.37 562.05 288 560.44 288.72 559.54 290.99 557.93 293.26 557.23 297.62 555.85 300.15 551.15 300.67 549.75 299.7 548.81 300.45 544.49 301.42 542.02 300.63 538.88 302.07 537.67 301.67 535.16 302.46 534.08 302.13 529.44 302.7 524.93 302.35 521.22 300.48 520.81 299.64 516.68 299.53 514.71 298.36 513.7 298.41 511.16 297.11 508.22 296.44 506.27 299 504.54 302.67 503.65 302.64 501.88 303.88 498.49 309.43 497.3 309.92 494.78 311.94 493.54 313.77 489.91 314.41 488.38 314.04 486.69 316.73 483.81 318.09 482.43 319.85 479.77 322.46 477.82 323.72 475.08 323.9 474.25 322.97 470.5 317.15 466.53 309.69 462.07 305.05 458.63 306.51 458.13 304.47 455.05 302.3 453.03 302.64 452.35 301.59 455.07 298.85 454.98 295.81 454.18 294.01 453.17 294.6 449.86 293.38 450.56 288.24 449.3 286.61 448.65 284.19 447.6 283.12 448.81 281.77 449.39 280.05 450.72 279.66 451.02 278.4 452.36 277.97 451.87 274.55 453.47 271.86 454.83 268.2 455.39 264.16 456.59 262.83 457.18 260.9 456.89 258.33 457.6 254.9 456.99 253.38 454.58 253.29 453.34 251.11 452.96 249.05 451.03 249.46 449.57 246.42 447.52 245.85 446.37 244.3 446.58 243.11 448.02 242.06 448.63 239.88 451.11 239.24 451.35 235.51 452.66 233.49 453.41 231.21 454.79 228.59 456.28 227.05 457.02 225.48 455.84 223.86 454.37 219.88 454.04 218.19 455.47 216.82 456.72 214.77 456.49 211.72 455.87 208.23 456.45 203.06 459.01 200.17 458.68 198.58 459.57 196.49 459.6 195.09 460.46 193.15 459.74 190.46 460.96 188.21 458.16 182.55 458.33 180.46 456.42 178.69 456.46 176.31 460.65 170.35 460.34 168.98 460.9 166.89 460.16 165.36 462.37 162.23 462.68 160.72 464.21 158.78 464.29 156.35 469.32 152.67 472.46 147.89 473.76 144.13 476.05 142.87 476.54 141.57 480.04 139.79 481.46 138.05 481.14 136.79 481.68 133.77 484.45 134.27 486.35 132.98 486.74 130.26 487.48 129.01 487.57 125.54 489.43 123.82 491 121.12 493.29 118.96 493.52 117.68 495.52 116.51 497.92 116.91 499.96 116.55 502.25 116.98 503.32 118.31 504.66 118.22 506.08 119.23 508.87 118.36 511.58 118.04 515.34 118.42 516.11 118.97 519.14 119.58 521.06 120.6 522.6 120.56 523.84 122.39 524.69 126.17 524.54 127.8 525.65 129.38 528.2 131.42 529.91 131.82 530.82 130.34 533.24 127.94 533.96 126.08 534.02 122.81 537.33 120.59 540.01 120.31 541.97 121.13 544.71 120.11 546.41 120.98 548.15 121.08 549.21 120.29 549.56 116.81 551.8 117.46 553.05 117.28 553.99 115.63 556.01 115.53 557.32 117.71 559.31 118.61 561.46 118.66 563.05 121.5 562.12 123.59 566.32 129.56 567.51 129.18 568.42 131.61 567.57 134.93 570.11 139.03 570.1 142.01 572.24 145.55 575.54 146.57 577.75 149.69 580.22 148.83 581.57 149.11 584.29 148.01 589.71 149.86 591.49 151.39 593.45 154.59 594.67 154.33 596.47 155.93 597.61 156.12 599.57 158.71 603.98 160.91 Z" id="31220410"/>
<path d="M 219.77 315.38 219.44 319.89 218.77 322.06 216.72 326.83 216.08 329.01 216.65 332.63 215.48 335.53 211.66 338.44 211.11 339.79 211.02 344.18 211.6 349.51 211.5 352.84 212.32 355.81 214.15 359.28 214.69 363.25 214.38 366.23 215.7 370.16 215.47 372.25 215.58 376.03 215.3 378.82 214.25 381.31 212.95 382.83 212.96 385.48 212.28 387.5 209.88 387.87 208.41 388.89 206.96 391 206.14 393.53 206.28 396.18 205.87 398.06 202.71 401.72 201.11 402.73 195.57 403.72 194.68 404.34 192.23 408.65 192.64 409.93 191.05 412.1 189.48 413.57 189.02 416.18 188.11 418.26 185.84 420.82 181.13 421.77 179.48 423.63 173.1 428.68 167.76 432.39 164.4 435.06 160.52 439.64 157.63 442.14 151.79 448.35 148.75 450.64 143.31 453.18 140.46 455.29 138.39 457.91 134.47 458.87 132.59 457.68 129.51 453.51 125.03 453.07 120.78 453.5 118.61 452.69 115.13 450.26 112.94 449.09 111.46 448.93 105.72 448.33 102.64 447.27 99.61 449.42 98.31 449.89 94.14 449.78 91.62 449.46 90.35 448.66 88.38 446.27 86.91 445.86 82.68 445.65 81.54 445.86 75.8 448.79 71.58 451.15 67.88 452.51 66.1 454.14 66.71 455.91 68.46 457.3 68.29 458.84 65.73 458.69 61.92 456.17 59.71 455.66 57.38 456.05 54.56 457.04 53.37 456.8 50.04 454.94 46.53 454.03 44.26 452.38 41.7 452.17 39.06 452.71 37.35 450.89 37.05 448.51 36.33 447.62 36.81 446.84 39.63 444.73 40.19 442.66 42.14 438.04 46.14 434.21 44.5 432 62.79 431.93 62.79 430.18 65.17 430.2 65.19 429.36 68.98 428.01 68.89 426.67 67.64 425.07 69.39 424.07 72.23 425.91 75.56 426.3 76.64 424.98 67.55 417.31 67.51 412.94 63.29 411.31 57.81 410.94 56.38 408.39 57.18 408.17 61.77 405.16 63.35 401.87 65.69 399.2 66.21 396 66.04 392.44 77.62 387.96 83.18 383.04 92.75 381.16 101.34 381.79 101.02 378.41 100.11 375.24 98.96 373.06 98.05 369.76 99.11 367.34 99.16 365.83 100.57 364.81 101.39 363.39 101.81 360.91 105.79 357.63 106.06 353.21 107.77 350.11 109.25 348.82 109.73 347.63 111.17 346.48 113.44 345.61 114.68 343.54 116.54 342.95 118.79 340.98 121.32 338.08 125.83 336.36 128.32 333.17 132.15 331.51 134.74 331.21 136.26 330.17 137.23 328.41 138.31 327.66 138.72 325.66 138.31 323.24 140.05 321 141.96 317.82 143.41 316.03 140.42 313.62 138.11 313.86 135.51 313.31 135.99 311.45 134.87 309.41 134.17 306.59 136.46 302.55 133.73 300.65 131.76 297.43 130.31 296.22 129.77 294.21 128.39 291.96 129.71 290.7 130.54 291.41 134.76 290.87 135.77 293.37 136.71 294.39 137.64 296.56 140.29 297.54 142.43 299.61 144.65 300.66 145.47 302.7 145.47 306.16 146.76 306.46 151.14 309.09 152.66 308.47 155.6 310.22 157.07 312.01 158.65 313.01 160.65 317.98 161.43 324.25 161.11 325.8 163.05 333.03 162.61 334.63 162.84 336.78 164.5 337.12 165.41 339.15 168.13 337.95 169.7 335.48 168.56 333.33 169.35 331.26 172.44 330.83 174.51 330 176.33 328.75 177.89 329.12 183.16 326.72 184.07 325.98 183.52 324.55 184.1 323.58 188.53 326.71 189.89 326.12 190.96 324.48 192.96 323.21 194.83 322.88 197.39 323.99 200.59 323.4 203.84 320.75 206.36 320.51 209.19 320.72 209.25 319.17 217.69 317.61 217.71 316.19 218.58 315.14 219.77 315.38 Z" id="31220110"/>
<path d="M 481.68 133.77 481.14 136.79 481.46 138.05 480.04 139.79 476.54 141.57 476.05 142.87 473.76 144.13 472.46 147.89 469.32 152.67 464.29 156.35 464.21 158.78 462.68 160.72 462.37 162.23 460.16 165.36 460.9 166.89 460.34 168.98 460.65 170.35 456.46 176.31 456.42 178.69 458.33 180.46 458.16 182.55 460.96 188.21 459.74 190.46 460.46 193.15 459.6 195.09 459.57 196.49 458.68 198.58 459.01 200.17 456.45 203.06 455.87 208.23 456.49 211.72 456.72 214.77 455.47 216.82 454.04 218.19 454.37 219.88 455.84 223.86 457.02 225.48 456.28 227.05 454.79 228.59 453.41 231.21 452.66 233.49 451.35 235.51 451.11 239.24 448.63 239.88 448.02 242.06 446.58 243.11 446.37 244.3 447.52 245.85 449.57 246.42 451.03 249.46 452.96 249.05 453.34 251.11 454.58 253.29 456.99 253.38 457.6 254.9 456.89 258.33 457.18 260.9 456.59 262.83 455.39 264.16 454.83 268.2 453.47 271.86 451.87 274.55 452.36 277.97 451.02 278.4 450.72 279.66 449.39 280.05 448.81 281.77 447.6 283.12 448.65 284.19 449.3 286.61 450.56 288.24 449.86 293.38 453.17 294.6 454.18 294.01 454.98 295.81 455.07 298.85 452.35 301.59 453.03 302.64 455.05 302.3 458.13 304.47 458.63 306.51 462.07 305.05 466.53 309.69 470.5 317.15 474.25 322.97 475.08 323.9 473.81 324.58 472.63 327.78 471.74 329.17 471.07 331.93 467.11 333.3 465.38 333.3 461.89 335.17 461.97 336.39 458.27 337.44 458.68 338.87 455.42 340.71 454.84 342.88 452.87 343.98 451.11 344.29 448.63 346.98 446.86 348.31 444.42 348.25 443.99 346.35 442.7 347.31 440.33 347.25 438 348.87 436.67 350.36 433.41 350.41 431.85 349.66 429.1 350.76 426.4 350.1 425.69 349.23 423.66 348.84 422.35 347.44 420.94 347.87 418.76 349.82 417.51 352.37 405.62 351.87 405.05 365.75 405.57 366.54 401.82 369.35 406.7 371.21 405.7 372.96 405.67 374.93 404.07 375.78 401.35 375.78 396.57 376.58 395.13 375.57 391.82 375.19 388.51 375.14 384.59 375.52 382.04 376.82 378.72 377.52 376.71 379.05 372.71 381.37 369.34 381.89 367.84 382.67 366.52 381.35 363.09 379.74 361.86 379.92 357.37 376.25 354.99 374.6 350.17 372.17 348.39 372.34 347 369.99 348.56 369.71 352.98 370.26 357.98 369.16 360.81 368.91 363.2 366.46 365.21 366.83 365.77 365.19 368.64 365.09 369.95 363.78 370.25 357.28 362.26 356.98 363.75 355.02 362.74 353.59 364.81 352.95 366.32 351.22 370.09 348.8 371.26 348.65 373.31 346.56 377.9 346.02 375.07 339.93 377.04 338.74 373.81 331.47 371.06 331.93 370.1 329.13 368.34 326.89 369.14 324.68 367.36 322.86 366.26 322.9 365.64 321.23 362.64 322.15 362.8 320.53 360.63 320.88 358.28 319.37 356.16 319.14 352.35 319.49 349.07 318.56 346.98 316.93 345.02 316.8 344.64 314.52 342.82 313.41 340.99 308.97 341.3 306.61 339.35 301.9 338.06 299.77 336.93 295.59 337.51 294.94 335.79 292.68 333.27 291.58 332.2 290.39 333.73 288.52 333.56 286.47 337.64 283.05 336.59 279.73 335 280.02 333.38 278.52 332.57 276.37 331.94 272.03 329.12 267.07 328.85 263.31 329.02 261.52 331.64 262.8 334.35 262.26 335.76 261.46 339.4 261.23 341.11 262.37 341.99 262.04 344.43 262.4 348.52 261.4 349.57 260.37 349.27 258.49 349.93 256.99 350.51 253.85 351.63 252.28 348.21 247.86 347.96 245.97 350.64 243.98 350.42 242.36 352.53 240.23 352.2 238.35 351.14 236.65 350.33 233.51 351.45 231.92 351.42 229.76 352.43 227.45 352.05 225.22 352.82 223.95 352.98 222.27 350.09 217.13 347.54 213.4 348.66 211.92 349.18 210.19 352.13 208.89 351.84 206.57 353.27 205.45 354.06 206.81 355.59 206.56 357.78 207.36 359.91 207.31 360.75 207.86 363.53 207.77 366.18 206.41 367.71 206.56 368.4 204.99 371.14 205.06 373.2 203.61 374.11 202.16 373.18 200.49 373.08 197.64 375.07 195.84 376.76 196.29 378.22 195.93 379.78 196.97 381.32 195.03 383.28 194.5 382.96 192.7 383.27 190.13 381.89 185.43 385.03 179.1 386.84 178.44 388.34 176.62 388.1 173.62 387.29 170.3 389.15 166.39 387.34 166.03 385.87 163.79 385.46 161.64 386.06 160 383.22 157.27 381.2 154.69 377.96 152.79 378.42 149.53 380.31 147.91 381.66 147.4 381.37 143.98 380.72 143.29 380.11 139.34 375.08 137.38 375.36 135.92 374.74 133.75 374.9 132.15 373.93 129.08 375.67 127.32 378.06 123.37 379.06 123.16 380.41 121.15 383.99 118.83 385.02 118.5 387.42 115.64 389.7 115.19 392.37 118.13 393.22 118.04 396.98 121.29 398.05 121.83 401.45 121.39 402.28 122.33 404.94 118.26 406.42 114.23 409.13 113.47 412.22 114.12 412.42 111.6 416.21 108.9 418.1 105.45 420.28 103.22 420.29 100.73 421.36 100.05 424.02 96.77 426.47 96.14 427.63 93.74 428.63 93.19 431.37 90.27 432.71 88.45 433.88 87.74 434.74 88.4 437.38 88.59 439.67 90.34 440.03 93.46 442.06 94.79 441.46 96.52 443.81 99.21 443.57 99.98 445.18 104.55 446.53 106.13 449.5 106.5 451.82 107.47 453.39 109.22 455.25 110.19 458.46 110.98 458.29 111.88 460.21 116.44 461.12 116.93 462.66 119.5 464.02 122.74 465.44 124.71 467.37 125.81 468.07 126.89 470.52 125.97 473.1 125.68 475.94 128.37 477.3 128.85 479.52 131.83 481.45 132.31 481.68 133.77 Z" id="31220310"/>
<path d="M 555.85 300.15 556.54 303.55 558.54 304.55 558.61 306.51 560.12 308.35 559.07 314.97 559.02 318.57 557.62 319.44 558.22 322.86 557.17 323.12 556.65 324.61 559.04 326.71 560.3 333.5 561.11 336.15 560.85 337.04 561.91 341.77 564.88 343.36 565 344.21 568.55 347.86 569.61 349.27 569.51 350.98 570.48 352.96 568.79 356.83 568.6 360.19 567.65 362.22 566.33 362.8 565.46 368 566.28 370.28 566 372.35 565.15 374.15 565.72 376.21 566.76 377.91 564.26 378.81 562.13 381.09 561.05 382.88 561.29 384.42 560.38 385.72 559.43 389.45 560.42 390.7 559.21 393.06 558 396.31 556.68 398.31 554.88 400.19 553.45 403.33 553.11 405.65 552.05 406.02 549.95 407.82 548.86 411 547.61 411.48 546.7 412.99 547.11 416.01 548.74 418.54 548.78 419.67 551.68 420.92 555.12 422.83 557.55 427.12 558.61 427.72 560.84 427.4 564.67 430.24 565.02 431.67 566.01 432.21 566.7 434.14 569.24 435.93 568.48 437.73 568.61 439.12 570.34 440.53 571.68 443 572.51 445.47 575.04 447.31 576.71 450.53 578.68 452.55 576.55 454.37 574.76 456.77 573.72 457.12 571.94 459.35 569 460.17 567.63 458.96 566.31 458.96 565.02 458.01 562.31 457.53 560.1 457.64 558.41 458.27 556.59 461.5 553.15 459.74 551.2 460.39 549.6 463.49 548.35 467.54 547.22 469.29 547.24 470.83 546.53 472.05 543.97 472.65 542.31 471.61 541.35 473.04 539.43 474.08 536.5 474.23 534.79 476.25 534.79 478.44 533.99 480.54 534.4 484.2 534.86 485.39 533.82 487.6 533.86 490.22 530.92 494.38 529.21 495.51 528.97 498.47 527.09 498.71 523.97 497.78 521.94 495.51 517.82 495.61 516.87 495.12 515.4 496.39 513.95 495.9 512.84 494.6 509.92 497.39 507.52 497.87 505.57 497.69 504.75 496.98 502.17 496.57 497.86 498.26 496.37 499.93 494.18 500.94 493.62 498.6 492.32 497.44 490.63 493.88 490.48 492.04 487.17 488.99 485.46 488.68 484.31 489.29 481.45 488.6 478.75 488.73 477.62 490.65 476.13 491.63 475.37 493.02 473.2 494.66 471.43 495.46 469.55 497.11 468.14 499.34 466.49 499.67 466.84 501.64 465.93 503.48 464.85 504.35 466.34 509.15 463.98 512.01 461.43 512.06 460.6 511.39 458.53 512.04 458.01 513.53 453.59 515.42 447.16 518.75 441.64 525.45 439.69 526.05 437.22 527.68 436.23 527.46 434.89 529.41 429.91 529.5 427.29 528.02 425.75 528.78 424.24 530.28 422.22 530.82 421.77 531.79 418.2 533.53 417.37 532.7 414.45 532.4 412.55 535.43 411.77 537.66 411.77 540.76 408.87 540.78 406.74 542.08 404.84 542.39 403.71 543.62 401.94 543.9 400.57 545.27 397.37 544.1 394.47 545.2 392.02 544.9 390.64 543.69 388.34 544.68 383.6 545.29 379.75 543.64 376.31 543.71 374.6 542.67 374.79 540.78 375.3 532.81 375.97 532.1 377.87 527.68 378.19 526.27 375.99 524.44 377.18 520.1 378.31 518.5 378.57 516.91 380.96 513.11 381.96 509.89 383.36 507.78 383.86 505.45 382.84 503.65 383.1 500.94 380.99 498.94 381.08 497.13 378.78 493.94 378.19 490.94 377 490.28 373.29 485.92 371.3 484.4 372.59 483.37 375.01 482.54 377.24 480.17 379.37 478.71 379.29 477.05 378.53 475.58 379 472.72 379.64 471.55 379.75 468.46 380.68 467.13 381.47 464.81 380.69 462.11 378.91 459.92 379.49 457.59 378.53 454 378.3 447.91 373.49 447.1 371.36 446.11 369.01 442.12 368.61 439.79 366.21 434.18 366.27 430.94 366.99 429.35 367.18 427.44 367.98 425.22 366.07 425.46 364.54 424.28 363.52 422.03 361.98 420.9 359.48 417.84 358.06 416.74 355.07 413.54 355.02 412.65 357.3 412.39 356.75 409.16 357.69 407.42 359.99 408.18 363.79 406.16 362.29 393.05 374.53 391.63 374.13 389.59 369.58 388.14 369.38 385.32 367.84 382.67 369.34 381.89 372.71 381.37 376.71 379.05 378.72 377.52 382.04 376.82 384.59 375.52 388.51 375.14 391.82 375.19 395.13 375.57 396.57 376.58 401.35 375.78 404.07 375.78 405.67 374.93 405.7 372.96 406.7 371.21 401.82 369.35 405.57 366.54 405.05 365.75 405.62 351.87 417.51 352.37 418.76 349.82 420.94 347.87 422.35 347.44 423.66 348.84 425.69 349.23 426.4 350.1 429.1 350.76 431.85 349.66 433.41 350.41 436.67 350.36 438 348.87 440.33 347.25 442.7 347.31 443.99 346.35 444.42 348.25 446.86 348.31 448.63 346.98 451.11 344.29 452.87 343.98 454.84 342.88 455.42 340.71 458.68 338.87 458.27 337.44 461.97 336.39 461.89 335.17 465.38 333.3 467.11 333.3 471.07 331.93 471.74 329.17 472.63 327.78 473.81 324.58 475.08 323.9 477.82 323.72 479.77 322.46 482.43 319.85 483.81 318.09 486.69 316.73 488.38 314.04 489.91 314.41 493.54 313.77 494.78 311.94 497.3 309.92 498.49 309.43 501.88 303.88 503.65 302.64 504.54 302.67 506.27 299 508.22 296.44 511.16 297.11 513.7 298.41 514.71 298.36 516.68 299.53 520.81 299.64 521.22 300.48 524.93 302.35 529.44 302.7 534.08 302.13 535.16 302.46 537.67 301.67 538.88 302.07 542.02 300.63 544.49 301.42 548.81 300.45 549.75 299.7 551.15 300.67 555.85 300.15 Z" id="31220320"/>
<path d="M 378.91 459.92 380.69 462.11 381.47 464.81 380.68 467.13 379.75 468.46 379.64 471.55 379 472.72 378.53 475.58 379.29 477.05 379.37 478.71 377.24 480.17 375.01 482.54 372.59 483.37 371.3 484.4 373.29 485.92 377 490.28 378.19 490.94 378.78 493.94 381.08 497.13 380.99 498.94 383.1 500.94 382.84 503.65 383.86 505.45 383.36 507.78 381.96 509.89 380.96 513.11 378.57 516.91 378.31 518.5 377.18 520.1 375.99 524.44 378.19 526.27 377.87 527.68 375.97 532.1 375.3 532.81 374.79 540.78 373.51 542.28 374.31 545.68 376.59 551.61 378.25 553.37 379.42 557.36 380.14 558.18 380.27 561.34 382.58 563.85 383.49 565.98 385.05 568.42 384.55 570.53 386.46 572.02 388.36 575.1 389.82 576.55 388.95 578.04 388.36 581.66 387.39 582.55 385.92 585.13 387.13 586.71 385.05 589.42 384.08 591.73 381.59 594.44 382.82 596.26 381.39 597.17 380.57 599.27 378.17 599.81 377.97 602.28 378.8 604.08 378.34 606.46 376.96 606.57 376.54 609.54 372.84 611.81 371.39 615.26 369.81 616.62 367.78 619.2 365.2 620.91 364.81 623.23 363.45 626.5 364.77 629.66 362.3 630.6 360.01 631 356.76 629.66 353.66 627.3 350.96 624.25 350.03 622.32 350.83 621.5 348.38 619.76 346.43 617.36 345.5 617.08 343.23 615.11 344.48 611.32 344.11 609.04 344.35 605.4 343.12 604.51 342.58 601.07 339.83 599.6 335.8 596.69 334.33 595.24 333.23 593.06 333.16 590.46 332.14 588.59 331.82 586.69 333.68 585 333.74 583.81 331.34 582.44 330.3 583.52 326.04 584.24 325.19 583.22 322.62 582.92 322.14 583.46 319.46 583.16 317.77 581.47 317.23 579.97 315.11 579.63 312.46 581.16 309.3 580.82 303.48 578.04 301.96 576.51 300.43 573.75 298.2 571.13 296.64 567.49 295.17 565.15 292.87 562.3 291.28 563.71 289.28 563.99 287.72 564.98 285.99 564.59 284.73 565.26 284.8 570.48 283.28 571.72 280.38 571.16 279.6 572.43 277.83 573.43 275.38 573.97 273.63 571.65 266.42 569.51 264.45 567.52 262.37 566.04 262.02 563.49 260.49 559.28 259.4 558.61 255.46 559.57 253 558.22 251.87 557.01 247.3 557.9 245.63 557.66 241.44 553.57 239.81 551.08 237.23 550.04 235.44 548.54 232.78 547.63 231.15 544.55 229.55 543.19 227.93 543.41 224.48 545.7 223.42 545.14 222.64 542.65 219.76 543.3 218.9 544.01 217.04 543.45 215.22 543.95 212.73 543.91 210.5 543.02 209.35 541.35 209.09 537.75 210.48 536.15 209.91 534.31 210.8 532.27 212.3 530.82 213.05 527.59 212.58 525.99 214.63 525.5 216.63 523.21 218.99 519.74 219.15 518.54 221.22 516.3 221.64 514.14 222.45 514.23 223.92 511.86 226.16 512.61 226.9 513.99 229.14 513.43 231.2 513.8 231.66 512.57 231.24 510.54 233.33 508.83 233.54 506.8 234.41 504.38 236.99 504.31 240.79 503.64 243.86 504.71 245.57 504.13 247.71 504.55 249.24 504.16 253.23 502.17 255.52 503.2 255.97 503.93 258.73 505.95 260.64 505.5 263.57 505.41 264.45 504.71 267.41 504.08 270.19 504.7 274.55 503.51 276.3 501.66 278.66 500.21 280.1 498.16 281.49 497.37 283.42 494.97 285.73 491.3 289.15 482.19 289.91 481.07 296.02 483.5 296.92 479.44 296.36 474.89 296.77 473.27 296.61 471.2 300.45 471.95 302.54 473.29 305.84 477.71 307.74 474.68 308.45 472.43 309.36 472.23 311.11 470.14 312.38 464.17 311.15 460.03 311.54 456.68 311.21 455.3 311.48 452.78 310.85 447.3 311.1 444.86 311.87 444.43 314.62 440.62 316.41 434.79 318.84 430.64 319.05 428.66 318.57 427.27 319.72 428.57 321.45 425.18 323.29 424.76 328.92 430.77 330.06 433.51 332.95 435.51 333.99 438.17 336.09 439.08 338.19 440.92 341.12 442.35 342.86 444.26 344.39 444.41 346.19 445.64 347.44 448.09 348.47 448.3 348.96 449.83 350.79 452.31 353.17 454.09 354.37 453.43 355.51 453.98 359.16 453.32 360.29 455.61 363.68 455.86 365.72 457.89 367.88 458.64 369.96 460.46 372.86 460.98 375.63 459.94 376.88 460.59 378.91 459.92 Z" id="31220330"/>
<path d="M 318.57 427.27 319.05 428.66 318.84 430.64 316.41 434.79 314.62 440.62 311.87 444.43 311.1 444.86 310.85 447.3 311.48 452.78 311.21 455.3 311.54 456.68 311.15 460.03 312.38 464.17 311.11 470.14 309.36 472.23 308.45 472.43 307.74 474.68 305.84 477.71 302.54 473.29 300.45 471.95 296.61 471.2 296.77 473.27 296.36 474.89 296.92 479.44 296.02 483.5 289.91 481.07 289.15 482.19 285.73 491.3 283.42 494.97 281.49 497.37 280.1 498.16 278.66 500.21 276.3 501.66 274.55 503.51 270.19 504.7 267.41 504.08 264.45 504.71 263.57 505.41 260.64 505.5 258.73 505.95 255.97 503.93 255.52 503.2 253.23 502.17 249.24 504.16 247.71 504.55 245.57 504.13 243.86 504.71 240.79 503.64 236.99 504.31 234.41 504.38 233.54 506.8 233.33 508.83 231.24 510.54 231.66 512.57 231.2 513.8 229.14 513.43 226.9 513.99 226.16 512.61 223.92 511.86 222.45 514.23 221.64 514.14 221.22 516.3 219.15 518.54 218.99 519.74 216.63 523.21 214.63 525.5 212.58 525.99 211.99 523.74 208.92 521.94 207.86 519.9 206.19 519.45 205.28 518.24 201.34 515.44 202.36 513.3 201.49 511.87 202.25 510.87 202.62 508.47 203.51 505.54 199.63 501.77 198.96 499.69 198.48 496.64 196.51 494.19 194.3 492.28 192.72 491.46 187.96 490.77 185.52 490.77 181.47 491.61 179.13 491.42 177.85 490.77 175.08 491.07 172.4 490.33 171.27 489.53 168.22 486.28 167.05 483.73 164.36 482.99 161.53 484.33 159.43 482.36 158.09 482.38 152.44 480.13 150.98 478.83 150.05 476.99 149.62 472.72 148.15 466.27 145.2 467 142.33 466.75 139.45 465.9 136.81 464.54 134.51 464.82 131.68 466.27 130.2 466.07 126 467.27 123.95 467.24 122.58 467.83 121.37 466.57 119.7 465.79 119.1 464.47 117.67 463.95 116.43 462.72 112.91 461.61 111.15 461.98 110.05 463.21 108.01 462.13 104.12 461.68 104.18 459.9 102.49 458.67 103.79 457.6 104.41 455.78 106.09 457.21 108.27 456.69 109.2 455.42 109.29 451.17 111.46 448.93 112.94 449.09 115.13 450.26 118.61 452.69 120.78 453.5 125.03 453.07 129.51 453.51 132.59 457.68 134.47 458.87 138.39 457.91 140.46 455.29 143.31 453.18 148.75 450.64 151.79 448.35 157.63 442.14 160.52 439.64 164.4 435.06 167.76 432.39 173.1 428.68 179.48 423.63 181.13 421.77 185.84 420.82 188.11 418.26 189.02 416.18 189.48 413.57 191.05 412.1 192.64 409.93 192.65 411.83 193.57 412.6 198.53 411.77 200.86 410.25 205.28 406.08 209.21 403.5 212.63 402.62 216.61 403.15 218.84 404.81 220.4 406.57 221.99 407.57 224.26 407.5 231.95 405.75 237.42 403.17 240.39 399.44 241.23 394.92 244.02 391.38 245.91 387.84 246.07 386.24 256.58 375.91 258.59 374.13 265.07 371 269.14 370.06 272.87 370.13 274.42 371.22 278.52 373.05 279.54 374.12 282.17 375 281.82 375.95 279.65 376.76 279.62 378.41 280.63 380.76 280.43 384.28 282.3 385.66 283.28 387.45 287.36 388.92 290.24 388.03 292.41 389.04 293.67 391.01 293.34 392.49 294.41 393.65 297.11 394.8 299.23 396.47 301.95 400.98 304.27 401.54 305.86 402.82 305.94 407.57 307.69 408.28 309.64 410.9 309.41 415.05 310.27 418.72 315.02 422.16 316.13 423.34 315.4 426.05 318.57 427.27 Z" id="31220340"/>
<path d="M 347.54 213.4 350.09 217.13 352.98 222.27 352.82 223.95 352.05 225.22 352.43 227.45 351.42 229.76 351.45 231.92 350.33 233.51 351.14 236.65 352.2 238.35 352.53 240.23 350.42 242.36 350.64 243.98 347.96 245.97 348.21 247.86 351.63 252.28 350.51 253.85 349.93 256.99 349.27 258.49 349.57 260.37 348.52 261.4 344.43 262.4 341.99 262.04 341.11 262.37 339.4 261.23 335.76 261.46 334.35 262.26 331.64 262.8 329.02 261.52 324.82 263.97 322.23 264.36 321.17 265.29 318.71 265.79 314.87 264.89 312.56 263 311.56 263.34 310.19 265.11 308.89 263.95 306.31 263.88 304.79 263 299.45 265.94 298.36 267.55 296.91 267.88 294.86 269.19 292.31 271.59 290.72 272.32 292.12 274.63 292.62 277.04 293.84 280.27 293.6 283.48 295.79 288.32 296.62 289.38 298.36 293.81 299.8 295.6 302.44 297.22 302.8 298.57 305.94 303.09 307.33 304.01 307.13 305.41 308.2 307.43 308.54 312.43 309.08 314.16 308.7 316.71 308.83 318.86 309.83 320.92 307.47 320.58 296.08 317.8 293.95 317.68 289.88 318.37 288.33 317.3 286.94 317.15 284.39 317.81 284.89 318.7 278.38 320.62 278.18 321.51 274.86 322.51 272.91 323.74 270.63 325.86 270.87 327.28 269.54 331.15 271.97 334.85 271.88 338.42 273.05 341.02 273.2 344.03 272.1 344.69 272.53 346.09 271.33 347.71 271.74 350.18 271.05 352.05 271.45 355.23 270.44 356.29 270.36 358.24 269.26 359.77 266.65 361.7 265.37 364.11 263.78 368.01 264.23 368.61 267.18 369.97 269.14 370.06 265.07 371 258.59 374.13 256.58 375.91 246.07 386.24 245.91 387.84 244.02 391.38 241.23 394.92 240.39 399.44 237.42 403.17 231.95 405.75 224.26 407.5 221.99 407.57 220.4 406.57 218.84 404.81 216.61 403.15 212.63 402.62 209.21 403.5 205.28 406.08 200.86 410.25 198.53 411.77 193.57 412.6 192.65 411.83 192.64 409.93 192.23 408.65 194.68 404.34 195.57 403.72 201.11 402.73 202.71 401.72 205.87 398.06 206.28 396.18 206.14 393.53 206.96 391 208.41 388.89 209.88 387.87 212.28 387.5 212.96 385.48 212.95 382.83 214.25 381.31 215.3 378.82 215.58 376.03 215.47 372.25 215.7 370.16 214.38 366.23 214.69 363.25 214.15 359.28 212.32 355.81 211.5 352.84 211.6 349.51 211.02 344.18 211.11 339.79 211.66 338.44 215.48 335.53 216.65 332.63 216.08 329.01 216.72 326.83 218.77 322.06 219.44 319.89 219.77 315.38 220.36 313.62 220.1 309.49 219.07 305.4 215.67 304.53 214.36 303.13 213.49 300.84 214.77 298.21 213.55 294.58 209.12 288.7 208.45 287.08 209.01 283.53 208.9 280.85 207.68 279.18 205.92 277.96 202.3 276.41 199.28 272.93 198.19 272.07 197.75 270.21 196.51 268.01 194.92 266.24 191 264.9 189.54 262.78 189.92 260.79 193.07 257.59 193.89 255.96 194.16 253.9 194.01 250.48 195.54 247.49 197.44 246.87 199.45 247.3 202.21 250.33 204.66 251.69 208.47 256.68 211.13 255.86 213.76 252.29 215.11 251.12 219.05 251.19 220.79 251.75 221.83 253.77 222.43 256.41 223.89 258.03 227.09 257.47 234.68 247.95 236.22 245.08 239.46 242.47 240.93 240.1 245.47 236.24 249.9 236.95 251.77 235.67 256.28 234.55 257.13 233.68 256.28 231.99 260.06 231.37 264.46 229.24 267.09 229.2 271.26 231.33 274.34 231.98 276.06 231.64 279.94 231.82 283.67 229.66 289.43 225.6 292.72 224.66 294.11 224.74 297.48 222.59 299.54 220.29 302.32 219.76 304.72 218.14 306.21 218.35 309.66 217.66 311.1 216.67 310.84 215.57 311.15 212.17 311.81 211.23 311.26 209.74 311.97 208.61 311.43 207.41 313.24 206.05 313.53 202.49 314.11 199.99 315.58 199.35 317.37 202.38 321.87 201.57 324.85 201.67 330.51 203.49 332.89 202.15 334.56 202.53 335.51 205.14 337.7 206.78 339.05 210.85 340.5 212.25 341.7 212.44 343.33 213.89 346.11 214.11 347.54 213.4 Z" id="31220350"/>
<path d="M 129.71 290.7 129.05 288.21 130.49 287.35 131.9 287.54 132.73 285.55 134.43 285.26 134.99 283.24 136.37 282.65 136.51 280.52 137.61 279.8 139.38 279.71 139.29 277.04 138.18 275.58 137.49 273.14 137.87 271.72 137.5 270.01 138.25 269.02 138.34 266.16 137.6 265.35 137.92 263.79 137.39 262.69 138.11 261.39 140.2 261.53 140.83 259.79 143.85 259.6 145.19 258.36 148.76 255.93 148.54 253.91 147.52 253.12 144.33 248.65 144.75 247.23 142.08 245.94 140.88 246.24 141.18 242.08 140.14 240.68 140.63 237.79 139.72 235.58 140.47 233.89 141.79 233.31 141.16 229.42 141.85 226.71 138.69 222.65 138.73 221.05 140.24 217.58 139.85 215.26 141.48 211.7 143.43 209.53 146.1 209.66 148.52 207.44 148.08 203.09 145.57 201.04 144.8 195.83 147.15 193.79 147.72 192.58 152.31 188.73 155.38 188.53 157.39 185.25 158.11 184.82 160.45 181.55 160.21 177.16 162.52 175.03 162.61 172.88 163.52 172.78 166.26 171.05 167.16 167.2 169.39 166.1 172.69 165.64 173.93 165.94 177.19 163.26 179.95 161.42 179.99 159.47 181.43 158.38 181.75 156.64 182.69 155.7 184.59 152.26 184.22 150.13 185.23 147.53 184.66 144.64 186.34 144.08 187.76 142.72 189.31 140.47 189.71 137.91 191.31 137.62 192.94 136.2 193.9 133.58 196.39 129.85 199.17 130.02 203.41 127.35 205.51 125.13 207.7 121.58 207.72 119.28 208.39 116.9 207.79 116.35 208.07 114.04 206.29 112.98 206.08 110.05 205.45 109.03 208.18 108.12 211.86 107.73 213.46 106.87 215.25 107.54 216.47 109.4 217.98 108.97 219.54 107.45 225.86 104.68 228.11 102.99 229.52 104.11 231.04 104.55 234.24 104.57 235.67 103.33 237.94 103.12 240.76 100.56 240.8 99.37 242.29 97.94 243.66 97.59 244.74 95.34 246.21 94.15 249.33 93.82 251.82 94.08 254.07 93.52 255.33 91.9 256.45 89.19 256.19 86.48 257.21 84.55 258.2 84.03 259.57 84.68 260.98 84.4 262.34 85.12 266 82.54 268.92 82.26 270.26 82.58 272.58 81.09 274.83 81.37 276.8 82.26 278.12 81.65 282.95 81.09 284.88 80.48 285.83 80.81 287.15 79.85 287.75 77.45 288.6 76.32 287.71 73.96 289.25 71.01 289.21 70.34 291 67.85 291.31 63.45 290.81 60.96 289.68 60.44 289.68 59.08 286.43 53.34 288.66 51.93 290.37 50.28 290.05 49.11 292.82 44.04 291.87 42.87 291.95 39.97 291.28 37.37 288.94 35.01 287.69 32.63 286.89 28.66 286.76 26.28 288.17 24.74 290.7 23.88 292.58 22.55 292.88 20.13 294.83 15.47 295.37 14.99 295.7 12.09 299.55 10.94 300.87 11.16 304.08 10.86 305.83 9.67 307.15 7.24 307.67 5.38 310.75 3.75 311.74 1 316.31 2.45 317.35 2.39 318.84 3.53 321.61 4.77 321.63 6.96 322.41 8.71 322.63 11.25 322.11 12.96 321.14 13.93 321.24 15.58 319.84 16.68 320.47 17.96 321.66 18.53 321.68 21.97 324.93 24.89 326.01 26.45 328.41 27.99 329 29.75 330.77 31.46 329.08 32.89 327.46 36.79 328.06 38.74 328.06 45.08 328.87 46.86 328.54 48.38 330.71 52.49 332.14 54.37 331.73 57.91 331.75 60.35 331.06 62.28 331.57 63.56 330.33 66.19 330.79 68.45 329.73 70.69 330.14 73.73 329.49 75.56 331.86 76.57 334.69 80.3 336.02 81.28 337.33 83.84 337.23 84.9 338.03 87.31 336.75 95.64 336.08 97.59 336.9 98.57 334.69 102.86 334.18 105.31 335.02 106.69 331.8 108.22 327.57 111.48 328.77 114.49 328.3 120.07 329.11 121.29 328.2 124.12 329.03 125.64 328.58 127.69 329.91 129.52 329.13 130.12 323.2 130.32 319.97 130.17 319.15 129.1 316.28 127.01 314.41 126.48 313 124.82 310.83 125.81 307.39 124.39 305.58 125.19 305.6 123.31 303.95 122.73 303.14 124.82 300.88 125.05 298.71 127.52 297.69 129.54 295.98 130.23 292.14 131.02 289.86 132.58 287.49 133.54 285.38 132.46 282.73 134.03 281.45 135.26 279.48 138.89 277.25 141.35 273.07 144.75 273.01 146 270.6 148.62 269.38 150.65 269.44 152.29 268.29 154.8 267.1 155.71 265.01 154.88 262.71 155.29 259.57 154.42 257.63 155.77 254.86 158.5 252.98 158.02 249.29 160.14 247.68 162.59 245.56 162.69 245.79 165.37 243.59 170.09 244.74 172.82 246.07 174.68 244.75 176.3 245.66 178.6 245.04 181.28 241.92 187.52 244.84 188.67 247.19 188.79 249.36 191.3 251.61 191.82 257.16 190.81 259.2 189.91 261.45 190.38 263.49 191.91 264.45 193.78 266.93 195.93 268.19 196.39 268.84 199.49 272.1 201.77 273.57 204.58 273.98 207.43 274.97 208.38 273.33 212.37 272.04 214.39 275.06 217.53 276.77 220.89 278.07 221.25 278.54 225.14 280.79 226.42 282.09 226.61 282.62 228.4 283.67 229.66 279.94 231.82 276.06 231.64 274.34 231.98 271.26 231.33 267.09 229.2 264.46 229.24 260.06 231.37 256.28 231.99 257.13 233.68 256.28 234.55 251.77 235.67 249.9 236.95 245.47 236.24 240.93 240.1 239.46 242.47 236.22 245.08 234.68 247.95 227.09 257.47 223.89 258.03 222.43 256.41 221.83 253.77 220.79 251.75 219.05 251.19 215.11 251.12 213.76 252.29 211.13 255.86 208.47 256.68 204.66 251.69 202.21 250.33 199.45 247.3 197.44 246.87 195.54 247.49 194.01 250.48 194.16 253.9 193.89 255.96 193.07 257.59 189.92 260.79 189.54 262.78 191 264.9 194.92 266.24 196.51 268.01 197.75 270.21 198.19 272.07 199.28 272.93 202.3 276.41 205.92 277.96 207.68 279.18 208.9 280.85 209.01 283.53 208.45 287.08 209.12 288.7 213.55 294.58 214.77 298.21 213.49 300.84 214.36 303.13 215.67 304.53 219.07 305.4 220.1 309.49 220.36 313.62 219.77 315.38 218.58 315.14 217.71 316.19 217.69 317.61 209.25 319.17 209.19 320.72 206.36 320.51 203.84 320.75 200.59 323.4 197.39 323.99 194.83 322.88 192.96 323.21 190.96 324.48 189.89 326.12 188.53 326.71 184.1 323.58 183.52 324.55 184.07 325.98 183.16 326.72 177.89 329.12 176.33 328.75 174.51 330 172.44 330.83 169.35 331.26 168.56 333.33 169.7 335.48 168.13 337.95 165.41 339.15 164.5 337.12 162.84 336.78 162.61 334.63 163.05 333.03 161.11 325.8 161.43 324.25 160.65 317.98 158.65 313.01 157.07 312.01 155.6 310.22 152.66 308.47 151.14 309.09 146.76 306.46 145.47 306.16 145.47 302.7 144.65 300.66 142.43 299.61 140.29 297.54 137.64 296.56 136.71 294.39 135.77 293.37 134.76 290.87 130.54 291.41 129.71 290.7 Z" id="31220360"/>
<path d="M 162.52 175.03 160.21 177.16 160.45 181.55 158.11 184.82 157.39 185.25 155.38 188.53 152.31 188.73 147.72 192.58 147.15 193.79 144.8 195.83 145.57 201.04 148.08 203.09 148.52 207.44 146.1 209.66 143.43 209.53 141.48 211.7 139.85 215.26 140.24 217.58 138.73 221.05 138.69 222.65 141.85 226.71 141.16 229.42 141.79 233.31 140.47 233.89 139.72 235.58 140.63 237.79 140.14 240.68 141.18 242.08 140.88 246.24 142.08 245.94 144.75 247.23 144.33 248.65 147.52 253.12 148.54 253.91 148.76 255.93 145.19 258.36 143.85 259.6 140.83 259.79 140.2 261.53 138.11 261.39 137.39 262.69 137.92 263.79 137.6 265.35 138.34 266.16 138.25 269.02 137.5 270.01 137.87 271.72 137.49 273.14 138.18 275.58 139.29 277.04 139.38 279.71 137.61 279.8 136.51 280.52 136.37 282.65 134.99 283.24 134.43 285.26 132.73 285.55 131.9 287.54 130.49 287.35 129.05 288.21 129.71 290.7 128.39 291.96 129.77 294.21 130.31 296.22 131.76 297.43 133.73 300.65 136.46 302.55 134.17 306.59 134.87 309.41 135.99 311.45 135.51 313.31 138.11 313.86 140.42 313.62 143.41 316.03 141.96 317.82 140.05 321 138.31 323.24 138.72 325.66 138.31 327.66 137.23 328.41 136.26 330.17 134.74 331.21 132.15 331.51 128.32 333.17 125.83 336.36 121.32 338.08 118.79 340.98 116.54 342.95 114.68 343.54 113.44 345.61 111.17 346.48 109.73 347.63 109.25 348.82 107.77 350.11 106.06 353.21 105.79 357.63 101.81 360.91 101.39 363.39 100.57 364.81 99.16 365.83 99.11 367.34 98.05 369.76 96.6 367.1 95.89 364.56 92.55 362.9 91.43 361.9 90.65 359.97 89.22 358.07 88.83 356.31 86.69 355.75 86.15 353.69 83.93 354.01 83.53 352.09 84.59 350.14 83.51 348.25 82.63 342.63 83.74 342.04 84.13 340.22 84.33 335.97 86.12 334.15 87.51 334.13 88.72 332.7 90.3 332.05 91.99 330.12 92.64 328.34 94.22 328.11 95.65 326.57 96.86 326.29 98.27 324.14 97.49 317.92 98.49 316.89 98.07 315.52 99.26 313.46 98.1 312.36 97.99 310.65 98.72 309.37 98.05 308.03 94.98 306.4 93.14 304.49 91.17 303.26 89.59 303.04 86.84 301.22 85.78 300.01 83.68 300.34 81.99 300.01 81.6 297.71 77.9 297.43 75.95 298.86 74.78 297.52 71.38 296.54 69.89 295.05 66.06 294.64 63.83 295.46 59.26 296.26 55.9 296.05 53.46 295.46 51.16 295.7 48.41 293.97 48 295.51 39.99 291.84 34.34 298.95 33.19 300.79 29.58 311.25 28.37 311.28 26.5 311.04 22.28 311.67 22.61 309.15 22.09 307.61 17.41 304.8 15.64 302.59 14.71 300.75 11.74 298.95 10.51 297.13 11.22 295.94 10.03 294.79 7.91 291.78 8.21 289.57 9.12 288.51 10.79 287.77 10.92 285.97 12.52 282.94 15.42 280.04 16.11 278.05 17.82 277.29 20.29 275.38 23.52 275.62 27.69 272.05 31.48 267.91 33.65 266.87 34.38 265.39 37.54 263.64 37.63 261.82 36.5 261.32 37.33 259.09 38.89 256.66 39.6 254.74 41.79 253.2 43.19 251.05 45.14 250.99 50.23 248.82 49.95 247.89 51.12 242.74 50.45 240.48 53.17 239.92 54 237.95 54 236.58 55.19 236.3 55.17 233.98 54.17 232.32 51.31 230.5 50.73 228.78 51.59 226.42 50.64 223.89 48.91 223.61 46.27 222.18 45.23 220.73 40.36 223.43 39.6 224.86 37.59 225.51 36.01 224.93 33.6 227.18 31.78 225.38 29.9 225.17 29.12 222.89 26.7 222.65 26.07 220.75 23.45 219.88 21.18 220.64 19.36 219.67 17.02 219.8 14.81 218.95 12.82 220.19 10.57 220.42 8.23 219.49 6.72 217.85 5.91 218.19 4.01 217.24 2.77 213.59 1 211.39 5.29 206.95 5.22 206 3.14 205.63 1.82 204.35 1.58 202.86 2.41 201.58 1.65 200.45 2.82 199.13 5.48 197.14 3.73 195.32 4.03 194.13 7.84 193.32 8.9 193.76 12.56 192.11 15.87 193.61 16.87 192.61 20.44 193.61 22.3 192.7 25.66 193.87 27.61 193.35 29.62 191.7 30.81 192.41 32.33 192.11 36.11 192.52 37.35 193.24 41.42 190.38 43.28 190.14 44.92 188.6 44.02 187.19 45.6 184.57 45.9 182.67 47.74 180.24 47.52 178.07 46.48 175.08 43.71 170.73 44.62 169.17 46.18 168.63 45.51 166.98 43.93 165.68 43.19 163.36 43.8 161.96 42.74 159.21 44.01 157.53 47.78 158.35 49.93 157.8 51.01 156.45 53.64 155.6 55.16 157.13 57.42 157.28 60.46 155.69 61.36 154.77 64.15 154.83 65.93 155.85 66.46 158.33 68.13 160.36 68.66 162.12 74.12 163.57 75.83 164.98 78.86 165.34 79.97 163.28 79.99 161.95 81.95 160.36 81.99 159.48 83.41 157.47 87.18 158.24 91.08 157.09 94 158.14 95.52 158.07 99.18 156.84 101.83 156.85 102.6 158.45 104.46 159.45 108.29 159.67 111.64 161.75 113.29 161.78 114.48 160.97 115.74 161.28 119.33 166.13 121.15 166.11 124.3 168.76 125.83 167.92 129.07 168.94 131.54 168.24 133.33 169.46 135.27 169.32 137.65 169.75 142.21 166.14 143.99 165.29 146.26 166.64 147.78 166.18 149.4 167.2 150.07 168.6 151.95 168.43 155.65 168.97 157.36 169.72 158.44 171.29 159.97 172.43 160.98 174.14 162.52 175.03 Z" id="31220380"/>
<path d="M 665.13 25.53 666.51 28.38 669.87 30.3 669.24 31.34 669.68 33.08 671.07 34.8 672.55 35.54 672.4 37.55 673.37 39.72 673.27 41.09 674.81 41.94 675.38 43.89 675.62 48.12 677.35 48.72 678.76 51.23 679.1 54.25 680.87 53.61 682.99 54.24 684.82 55.88 686.32 58.06 685.94 59.78 686.54 61.02 689.63 60.73 691.76 61.78 692.8 61.71 694.2 60.3 698.08 61.26 699.75 61.2 701.62 60.06 703.02 62.42 705.76 63.2 706.94 62.1 707.94 62.93 709.23 62.31 712 62.99 715.8 66.09 716.55 67.04 721.4 68.76 723.16 67.36 724.08 67.95 726.65 66.87 727.83 68.43 730.11 70.21 732.4 69.69 734.17 71.81 736.27 71.31 737.39 72.12 737.71 73.4 741.95 74.02 743.5 73.45 744.89 72.2 746.09 72.56 747.31 74.96 749.1 77.59 751.14 78.4 751.86 77.33 755.46 75.72 756.6 75.8 758.6 74.87 760.47 74.8 762.93 76.18 764.5 77.82 764.08 79.91 764.26 81.59 763.36 82.69 764.97 84.22 765.92 87.69 766.35 94.23 767.94 96.31 771.35 97.16 773.79 99.3 774.07 102.49 774.72 103.26 774.66 105.81 773.63 108.9 773.91 110.58 775.15 111.61 776.53 114.07 779.22 115.41 780.31 116.75 781.59 119.82 782.81 119.32 787.23 120.61 789.26 120.4 790.32 119.64 792.84 119.72 792.74 120.79 793.98 122.66 793.21 123.99 794.14 125.97 796.5 126.4 797 130.11 795.76 131.07 792.41 133.11 789.87 133.93 789.48 137.29 791.6 141.52 792.1 144.21 793.35 144.12 792.6 147.28 794.19 147.89 795.51 149.19 795.45 153.07 796.17 155.08 795.86 158.54 797.33 159.2 797.93 161.37 797.06 163.06 797.54 164.2 796.67 167.5 797.29 168.11 796.81 170.72 795.66 172.63 795.35 174.14 796.68 174.23 798.31 175.74 799 177.54 797.58 178.43 795.44 180.97 795.32 182.04 792.62 183.49 791.59 185.63 793.28 185.43 794.95 187.33 795.64 190.54 794.01 192.8 794.11 194.36 792.25 200.35 790.9 200.76 789.02 205.05 784.19 206.03 783.32 205.27 780.55 206.55 780.35 208.88 781.03 210.97 782.4 212.14 782.74 215.04 785.42 214.28 785.56 215.65 784.28 218.87 783.41 218.93 782.44 220.65 781.36 221.04 781.06 222.85 779.42 224.4 778.93 225.97 776.57 228.5 775.48 228.61 773.65 230.27 772.59 230 771.9 231.3 767.87 233.57 766.85 233.46 764.1 235.88 762.17 235.93 758.36 237.06 757.06 236.88 752.2 238.95 750.93 238.76 749.52 239.59 744.7 240.22 743.78 242.09 742.36 243.2 740.06 242.07 738.74 242.66 737.31 244.65 735.49 245.22 732.46 244.26 731.51 245.24 728.59 245.37 726.08 245.91 723.48 245.22 721.92 245.63 719.5 246.99 716.38 247.04 714.17 246.34 713.31 244.89 710.1 245.39 709 244.78 707.71 245.67 707.16 242.13 708.37 239.04 706.88 237.9 705.71 235.58 704.41 233.92 702.43 230.44 701.2 230.4 700.08 229.26 697.8 229.03 696.19 230.43 694.43 230.69 692.44 230.18 691.21 230.61 690.03 229.84 688.35 230.11 686.81 228.92 685.34 228.67 683.39 229.14 682.03 225.56 680.72 224.5 679.62 222.67 677.49 221.21 675.89 218.76 670.69 216.71 669.88 216.99 666.41 216.61 665.05 215.93 663.53 213.52 662.86 211.64 660.77 209.35 659.78 209.08 658.43 207.39 657.34 207.09 656.47 205.66 656.31 202.22 654.54 200.82 653.75 199.37 653.63 197.53 652.55 196.44 652.39 194.12 653.65 191.73 652.44 189.62 650.64 187.84 650.08 185.29 643.58 181.13 643.58 179.1 644.89 176.47 643.26 174.42 644.48 171.69 645.76 171.48 647.33 169.43 646.8 167.66 647.2 166.55 649.41 166.28 652.01 165.42 654.61 161.98 655.82 158.21 657.44 156.42 657.14 154.24 657.58 149.43 659.09 145.18 658.99 143.42 660.02 140.45 661.26 139.09 663.22 138.4 665.47 140.44 667.3 139.16 668.33 137.82 668.99 135.86 668.25 132.55 668.94 131.49 672.25 130.95 670.5 126.04 668.04 124.95 665.45 126.11 663.05 125.96 658.25 124.17 656.42 122.5 650.92 119.94 643.5 117.34 636.87 117.63 630.16 114.73 628.16 113.44 622.16 110.73 620.23 110.89 619.83 108.9 620.11 106.55 620.7 105.69 623.35 105.48 623.64 104.29 622.42 102.34 619.77 101.65 617.66 100.68 616.29 99.2 613.88 97.63 613 96.56 610.16 96.57 606.02 99.1 603.19 97.73 603.31 95.42 601.87 94.57 599.34 95.22 598.62 93.77 598.11 90.41 598.89 89.25 597.83 88.15 598.95 87.05 600.45 84.29 600.28 82.92 602.12 79.64 604.38 79.73 606.63 79.13 607.51 77.7 607.97 75.49 608.87 74.13 611.25 74.18 614.23 71.55 615.11 69.96 614.91 69 615.75 66.63 615.82 65.16 614.66 61.96 620.15 59.35 619.99 57.76 622.14 53.78 621.72 49.06 624.95 45.94 625.52 44.58 623.67 39.65 623.51 35.46 622.95 33.38 625.09 29.31 626.64 25.45 627.29 22.57 626.7 21.7 630.09 20.12 632.03 18.33 635.11 17.66 636.67 16.56 638.65 18.1 640.39 17.44 642.87 18.02 644.71 16.98 646.19 18.47 648.43 18.84 651.59 17.64 655.16 18.17 659.27 21.15 660.12 23.45 665.13 25.53 Z" id="31220390"/>
<path d="M 389.7 115.19 387.42 115.64 385.02 118.5 383.99 118.83 380.41 121.15 379.06 123.16 378.06 123.37 375.67 127.32 373.93 129.08 374.9 132.15 374.74 133.75 375.36 135.92 375.08 137.38 380.11 139.34 380.72 143.29 381.37 143.98 381.66 147.4 380.31 147.91 378.42 149.53 377.96 152.79 381.2 154.69 383.22 157.27 386.06 160 385.46 161.64 385.87 163.79 387.34 166.03 389.15 166.39 387.29 170.3 388.1 173.62 388.34 176.62 386.84 178.44 385.03 179.1 381.89 185.43 383.27 190.13 382.96 192.7 383.28 194.5 381.32 195.03 379.78 196.97 378.22 195.93 376.76 196.29 375.07 195.84 373.08 197.64 373.18 200.49 374.11 202.16 373.2 203.61 371.14 205.06 368.4 204.99 367.71 206.56 366.18 206.41 363.53 207.77 360.75 207.86 359.91 207.31 357.78 207.36 355.59 206.56 354.06 206.81 353.27 205.45 351.84 206.57 352.13 208.89 349.18 210.19 348.66 211.92 347.54 213.4 346.11 214.11 343.33 213.89 341.7 212.44 340.5 212.25 339.05 210.85 337.7 206.78 335.51 205.14 334.56 202.53 332.89 202.15 330.51 203.49 324.85 201.67 321.87 201.57 317.37 202.38 315.58 199.35 314.11 199.99 313.53 202.49 313.24 206.05 311.43 207.41 311.97 208.61 311.26 209.74 311.81 211.23 311.15 212.17 310.84 215.57 311.1 216.67 309.66 217.66 306.21 218.35 304.72 218.14 302.32 219.76 299.54 220.29 297.48 222.59 294.11 224.74 292.72 224.66 289.43 225.6 283.67 229.66 282.62 228.4 282.09 226.61 280.79 226.42 278.54 225.14 278.07 221.25 276.77 220.89 275.06 217.53 272.04 214.39 273.33 212.37 274.97 208.38 273.98 207.43 273.57 204.58 272.1 201.77 268.84 199.49 268.19 196.39 266.93 195.93 264.45 193.78 263.49 191.91 261.45 190.38 259.2 189.91 257.16 190.81 251.61 191.82 249.36 191.3 247.19 188.79 244.84 188.67 241.92 187.52 245.04 181.28 245.66 178.6 244.75 176.3 246.07 174.68 244.74 172.82 243.59 170.09 245.79 165.37 245.56 162.69 247.68 162.59 249.29 160.14 252.98 158.02 254.86 158.5 257.63 155.77 259.57 154.42 262.71 155.29 265.01 154.88 267.1 155.71 268.29 154.8 269.44 152.29 269.38 150.65 270.6 148.62 273.01 146 273.07 144.75 277.25 141.35 279.48 138.89 281.45 135.26 282.73 134.03 285.38 132.46 287.49 133.54 289.86 132.58 292.14 131.02 295.98 130.23 297.69 129.54 298.71 127.52 300.88 125.05 303.14 124.82 303.95 122.73 305.6 123.31 305.58 125.19 307.39 124.39 310.83 125.81 313 124.82 314.41 126.48 316.28 127.01 319.15 129.1 319.97 130.17 323.2 130.32 329.13 130.12 329.91 129.52 328.58 127.69 329.03 125.64 328.2 124.12 329.11 121.29 328.3 120.07 328.77 114.49 327.57 111.48 331.8 108.22 335.02 106.69 334.18 105.31 334.69 102.86 336.9 98.57 336.08 97.59 336.75 95.64 338.03 87.31 337.23 84.9 337.33 83.84 336.02 81.28 334.69 80.3 331.86 76.57 329.49 75.56 330.14 73.73 329.73 70.69 330.79 68.45 330.33 66.19 331.57 63.56 331.06 62.28 331.75 60.35 331.73 57.91 332.14 54.37 334.15 54.39 335.31 52.78 337.55 53.4 338.82 52.82 341.82 52.84 345.43 54.09 348.04 53.72 351.08 59.53 352.54 59.27 354.19 57.82 356.67 57.46 358.55 58.99 359.03 62.15 360.73 66.72 360.91 68.15 362.04 68.84 365 68.54 367.19 70.2 366.98 72.24 368.14 74.41 368.35 79.18 370.49 81.83 371.12 83.25 374.08 85.22 375.07 85 376.77 87.16 377.12 91.05 376.74 92.08 377.88 93.81 380.11 94.61 380.17 96.35 381.31 99.48 381.4 101.43 380.69 104.63 380.71 106.87 381.83 107.72 383.79 107.55 388.26 108.42 389.29 112.34 390.26 113.69 389.7 115.19 Z" id="31220420"/>
<path d="M 367.84 382.67 369.38 385.32 369.58 388.14 374.13 389.59 374.53 391.63 362.29 393.05 363.79 406.16 359.99 408.18 357.69 407.42 356.75 409.16 357.3 412.39 355.02 412.65 355.07 413.54 358.06 416.74 354.15 417.35 350.65 415.91 349.97 414.71 348.16 416.8 346.59 417.23 345.33 416 345.06 412.29 343.75 409.92 341.65 408.03 339.88 407.54 336.9 404.93 335.57 403.27 333.38 402.53 330.66 399.93 330.86 396.06 331.3 393.47 331.01 392.54 331.66 389.8 332.59 388.78 332.49 387.06 333.47 384.81 333.78 379.11 332.12 376.11 332.5 373.96 331.95 370.96 329.73 371.71 325.82 371.51 326.03 368.38 326.64 366.03 327.32 358.42 328.97 349.74 327.59 349.03 327.21 347.8 328.96 344.52 330.24 343.69 327.01 339.41 329.51 339.21 329.87 338.35 331.92 336.98 337.71 336.03 342.17 337.38 344.87 336.39 344.76 333.72 347.14 331.26 347.15 329.7 345.94 327.8 345.47 325.11 346.02 322.14 345.78 318.63 345.02 316.8 346.98 316.93 349.07 318.56 352.35 319.49 356.16 319.14 358.28 319.37 360.63 320.88 362.8 320.53 362.64 322.15 365.64 321.23 366.26 322.9 367.36 322.86 369.14 324.68 368.34 326.89 370.1 329.13 371.06 331.93 373.81 331.47 377.04 338.74 375.07 339.93 377.9 346.02 373.31 346.56 371.26 348.65 370.09 348.8 366.32 351.22 364.81 352.95 362.74 353.59 363.75 355.02 362.26 356.98 370.25 357.28 369.95 363.78 368.64 365.09 365.77 365.19 365.21 366.83 363.2 366.46 360.81 368.91 357.98 369.16 352.98 370.26 348.56 369.71 347 369.99 348.39 372.34 350.17 372.17 354.99 374.6 357.37 376.25 361.86 379.92 363.09 379.74 366.52 381.35 367.84 382.67 Z" id="31220510"/>
<path d="M 327.32 358.42 326.64 366.03 326.03 368.38 325.82 371.51 329.73 371.71 331.95 370.96 332.5 373.96 332.12 376.11 333.78 379.11 333.47 384.81 332.49 387.06 332.59 388.78 331.66 389.8 331.01 392.54 331.3 393.47 330.86 396.06 330.66 399.93 333.38 402.53 335.57 403.27 336.9 404.93 339.88 407.54 341.65 408.03 343.75 409.92 345.06 412.29 345.33 416 346.59 417.23 348.16 416.8 349.97 414.71 350.65 415.91 354.15 417.35 358.06 416.74 359.48 417.84 361.98 420.9 363.52 422.03 364.54 424.28 366.07 425.46 367.98 425.22 367.18 427.44 366.99 429.35 366.27 430.94 366.21 434.18 368.61 439.79 369.01 442.12 371.36 446.11 373.49 447.1 378.3 447.91 378.53 454 379.49 457.59 378.91 459.92 376.88 460.59 375.63 459.94 372.86 460.98 369.96 460.46 367.88 458.64 365.72 457.89 363.68 455.86 360.29 455.61 359.16 453.32 355.51 453.98 354.37 453.43 353.17 454.09 350.79 452.31 348.96 449.83 348.47 448.3 347.44 448.09 346.19 445.64 344.39 444.41 342.86 444.26 341.12 442.35 338.19 440.92 336.09 439.08 333.99 438.17 332.95 435.51 330.06 433.51 328.92 430.77 323.29 424.76 321.45 425.18 319.72 428.57 318.57 427.27 315.4 426.05 316.13 423.34 315.02 422.16 310.27 418.72 309.41 415.05 309.64 410.9 307.69 408.28 305.94 407.57 305.86 402.82 304.27 401.54 301.95 400.98 299.23 396.47 297.11 394.8 294.41 393.65 293.34 392.49 293.67 391.01 292.41 389.04 290.24 388.03 287.36 388.92 283.28 387.45 282.3 385.66 280.43 384.28 280.63 380.76 279.62 378.41 279.65 376.76 281.82 375.95 282.17 375 279.54 374.12 278.52 373.05 274.42 371.22 272.87 370.13 269.14 370.06 267.18 369.97 264.23 368.61 263.78 368.01 265.37 364.11 266.65 361.7 269.26 359.77 270.36 358.24 270.44 356.29 271.45 355.23 271.05 352.05 271.74 350.18 271.33 347.71 272.53 346.09 280.2 346.41 291.47 344.25 294.01 343.02 302.47 344.36 306.38 342.76 308.42 340.74 311.79 343.49 314.27 342.98 317.03 344.5 318.13 348.87 317.58 350.63 318.59 354.74 322.24 354.92 321.44 356.96 327.32 358.42 Z" id="31220520"/>
<path d="M 345.02 316.8 345.78 318.63 346.02 322.14 345.47 325.11 345.94 327.8 347.15 329.7 347.14 331.26 344.76 333.72 344.87 336.39 342.17 337.38 337.71 336.03 331.92 336.98 329.87 338.35 329.51 339.21 327.01 339.41 330.24 343.69 328.96 344.52 327.21 347.8 327.59 349.03 328.97 349.74 327.32 358.42 321.44 356.96 322.24 354.92 318.59 354.74 317.58 350.63 318.13 348.87 317.03 344.5 314.27 342.98 311.79 343.49 308.42 340.74 306.38 342.76 302.47 344.36 294.01 343.02 291.47 344.25 280.2 346.41 272.53 346.09 272.1 344.69 273.2 344.03 273.05 341.02 271.88 338.42 271.97 334.85 269.54 331.15 270.87 327.28 270.63 325.86 272.91 323.74 274.86 322.51 278.18 321.51 278.38 320.62 284.89 318.7 284.39 317.81 286.94 317.15 288.33 317.3 289.88 318.37 293.95 317.68 296.08 317.8 307.47 320.58 309.83 320.92 308.83 318.86 308.7 316.71 309.08 314.16 308.54 312.43 308.2 307.43 307.13 305.41 307.33 304.01 305.94 303.09 302.8 298.57 302.44 297.22 299.8 295.6 298.36 293.81 296.62 289.38 295.79 288.32 293.6 283.48 293.84 280.27 292.62 277.04 292.12 274.63 290.72 272.32 292.31 271.59 294.86 269.19 296.91 267.88 298.36 267.55 299.45 265.94 304.79 263 306.31 263.88 308.89 263.95 310.19 265.11 311.56 263.34 312.56 263 314.87 264.89 318.71 265.79 321.17 265.29 322.23 264.36 324.82 263.97 329.02 261.52 328.85 263.31 329.12 267.07 331.94 272.03 332.57 276.37 333.38 278.52 335 280.02 336.59 279.73 337.64 283.05 333.56 286.47 333.73 288.52 332.2 290.39 333.27 291.58 335.79 292.68 337.51 294.94 336.93 295.59 338.06 299.77 339.35 301.9 341.3 306.61 340.99 308.97 342.82 313.41 344.64 314.52 345.02 316.8 Z" id="31220530"/>
</g>
</svg>