<?xml version="1.0"?>
<svg xmlns="http://www.w3.org/2000/svg" version="1.2" baseProfile="tiny" width="800" height="747" viewBox="0 0 800 747" stroke-linecap="round" stroke-linejoin="round">
<g id="dong">
<path d="M 498.33 553.3 489.01 552.79 484.61 554.42 481.7 557.08 479.82 560.72 480.1 578.34 477.67 581.84 471.02 586.48 470.15 587.88 465.83 584.47 463.31 586.05 461.98 584.49 462.39 580.65 460.18 579.72 457.85 576.36 456.96 570.05 453.56 568.76 451.47 570.11 445.12 568.54 444.12 569.05 440.57 567.99 439.03 560.32 435.56 556.71 434.21 553.99 431.64 553.25 425.21 549.84 421.03 548.17 418.96 546.53 414.8 545.48 412.35 546.4 409.77 545.62 407.12 543.6 400.72 536.21 401.02 535.04 404.61 534.76 403.73 532.97 405.26 530.66 411.81 535.39 412.91 534.11 430.15 509.55 433.16 505.52 441.39 498.66 457.33 518.79 460.52 521.78 466.86 525.91 472.25 523.58 478.87 522.95 479.02 523.99 487.05 531.52 482.29 536.61 482.47 537.52 485.95 540.84 489.35 543.27 490.19 544.86 497.3 551.76 498.33 553.3 Z" id="31230560"/>
<path d="M 489.52 447.44 514.23 462.5 535.89 475.23 523.65 489.18 526.48 494.53 525.29 497.48 527.38 499.07 527.89 501.17 526.43 502.16 525.9 504.31 526.42 508.48 524.87 508.6 518.19 506.58 515.94 506.76 513.92 509.55 512.89 505.55 506.08 510.4 502.93 514.83 493.87 524.37 502.31 532.4 493.17 542 501.82 550.25 498.45 551.81 498.33 553.3 497.3 551.76 490.19 544.86 489.35 543.27 485.95 540.84 482.47 537.52 482.29 536.61 487.05 531.52 479.02 523.99 478.87 522.95 472.25 523.58 466.86 525.91 460.52 521.78 457.33 518.79 441.39 498.66 435.56 491.38 429.96 484.96 427.49 481.24 426.48 476.34 422.52 471.24 420.04 466.5 418.57 461.2 411.79 455.76 413.11 451.69 419.06 452.3 419.3 449.34 420.62 448.08 421.74 442.05 421.95 436.85 423.07 434.71 425.23 434.79 425.4 432.15 424.45 427.27 422.86 425.87 440.94 408.04 443.72 413.92 450.23 421.14 454.07 423.61 480.45 441.26 489.52 447.44 Z" id="31230600"/>
<path d="M 602.74 506.28 608.94 510.37 613.5 521.85 625.03 531.94 609.25 538.73 601.23 545.83 600.61 547.61 595.37 557.61 594.19 559.11 590.85 561.29 591.09 564.02 592.63 564.93 589.89 570.59 588.1 573.25 586.17 571.56 582.38 569.96 579.61 570.12 580.17 583.24 577.14 585.44 566.36 602.73 548.1 591.47 546.91 590.12 544.69 592.42 538.64 595.77 542.87 600.15 542.82 601.36 540.12 604.15 538.89 603.11 536.82 606.61 534.97 608.48 533.74 613.88 536.34 615.92 537.18 617.65 533.57 619.75 532.89 621.49 529.05 625.19 529.63 627.2 528.62 630 526.58 631.15 524.61 632.46 522.69 631.02 519.32 625.41 517.19 623.73 515.85 624.44 513.87 623.28 511.93 620.44 510.9 617.24 509.14 615.27 506.3 610.69 503.21 610.19 501.03 606.84 498.37 605.25 495.88 601.82 492.85 601.85 489.16 598.6 487.66 598.04 485.09 600.44 480.88 597.23 480.2 595.86 470.15 587.88 471.02 586.48 477.67 581.84 480.1 578.34 479.82 560.72 481.7 557.08 484.61 554.42 489.01 552.79 498.33 553.3 498.45 551.81 501.82 550.25 493.17 542 502.31 532.4 493.87 524.37 502.93 514.83 506.08 510.4 512.89 505.55 513.92 509.55 515.94 506.76 518.19 506.58 524.87 508.6 526.42 508.48 525.9 504.31 526.43 502.16 527.89 501.17 527.38 499.07 525.29 497.48 526.48 494.53 523.65 489.18 535.89 475.23 552.49 485.02 564.75 492.04 581.35 501.19 593.73 502.72 597.3 502.95 600.1 503.79 602.74 506.28 Z" id="31230610"/>
<path d="M 358.79 380.34 351.31 381.09 352.24 384.26 351.04 386.47 349.63 392.52 347.43 390.9 344.01 390.16 341.31 390.87 342.12 393.95 324.85 398.5 326.87 406.24 326.33 407.21 315.86 400.32 302.39 420.8 294.11 415.16 292.46 412.81 289.23 411.51 285.01 411.46 283.54 409.37 283.55 404.23 281.4 401.25 276.31 401.64 274.45 401.26 269.16 402.06 268.16 401.37 263.25 393.49 258.89 393.72 256.17 394.7 256.02 397.44 253.29 400.38 251.91 403.05 249.21 406.56 252.61 411.03 255.68 413.17 253.72 415.08 252.54 415.85 245.03 415.25 240.71 413.16 237.6 410.58 236.46 411.06 236.82 413.77 234.83 417.76 233.18 419.83 228.69 422.11 227.24 425.61 217.37 426.09 215.86 424.71 209.78 423.29 205.39 423.9 203.26 427.82 205.88 434.96 204.01 440.43 201.38 439.66 198.61 440.38 195.53 443.44 194.64 445.74 191.89 449.7 188.8 450.4 187.14 453.67 186.22 453.71 183.34 450.39 179.08 447.38 176.62 441.94 174.21 435.44 172.17 427.26 166.86 421.66 164.24 417.57 164.2 415.49 165.84 409.2 165.02 402.57 161.62 397.63 162.07 391.43 163.78 389.43 161.03 387.8 158.07 385.13 155.43 384.72 152.51 385.39 148.37 385.24 143.31 382.99 133.11 384.85 131.22 384.65 128.57 382.62 127.18 380.34 127.62 378.94 129.1 379.03 133.45 375.89 131.67 367.62 129.82 365.68 125.06 357.13 124.1 356.83 123.9 353.09 119.88 349.14 116.91 347.54 116.7 346.45 118.07 341.74 117.69 337.83 118.44 335.39 120.66 333.32 120.03 326.2 123.47 324.78 132.72 322.35 134.99 317.88 136.7 318.2 137.71 316.08 141.16 316.9 144.6 319.43 147.71 320.33 152.35 319.22 154.45 316.27 158.7 314.27 159.32 312.8 159.14 309.08 161.72 304.42 163.49 303.03 169.3 300.72 170.73 298.66 174.17 298.72 176.12 299.67 179.38 298.17 180.28 294.83 183.02 292.08 183.96 288.33 182.2 287.4 183.93 283.93 185.66 282.44 187.5 277.31 191.47 269.55 188.47 267.93 186.08 265.87 182.86 261.89 183.38 259.53 182.2 257.14 183.21 254.8 181.47 251.64 182.3 248.94 180.72 245.74 182.06 240.63 182.34 236.41 184.08 236.34 189.83 233.9 195.56 233.82 199.92 232.22 202.05 234.79 205.37 232.8 207.58 232.64 210.85 234.64 211.91 236.45 215.69 238.8 217.71 239.07 219.44 240.99 226.39 239.11 233.45 237.81 230.78 233.16 227.28 228.62 229.32 225.61 229.55 222.44 227.93 221.09 232.97 213.3 232.79 210.13 229.36 205.94 223.45 202.47 222.88 200.78 225.39 195.63 225.36 193.91 226.6 192.94 230.08 192.52 237.05 194.4 240.61 193.74 242.14 195.65 246.52 197.46 247.71 198.61 247.4 201.35 250.38 202.62 254.89 200.31 257.85 201.69 259.21 208.66 258.71 210.76 261.92 215.02 265.94 213.96 266.91 217.02 269.07 218.32 276.59 220.76 280.87 225.26 282.49 226.08 281.64 228.06 276.09 232.23 277.9 235.44 277.92 236.94 274.12 242.17 273.56 243.56 273.39 250.67 271.36 255.13 271.08 257.86 273.9 268.71 277.72 267.4 282.6 267.98 285.74 270.32 286.02 273.09 285.11 276.55 285.35 280.98 286.5 284.02 288.51 284.3 288.85 286.73 291.81 290.87 292.24 295.95 295.81 294.24 297.99 296 302.76 297.32 303.49 296.7 307.78 296.97 312.13 301.34 313.11 306.11 311.39 313.56 311.19 317.57 319.29 319.3 316.28 332.38 316.54 334.52 321.12 343.11 323.75 345.67 325.93 346.14 320.61 369.29 320.02 372.67 320.53 374.25 326.58 372.96 330.86 374.76 332.62 374.6 338.33 371.69 340.14 372.25 343.66 375.06 348.29 373.44 352.08 374.47 354.47 375.87 357.11 380.39 358.79 380.34 Z" id="31230110"/>
<path d="M 411.79 455.76 418.57 461.2 420.04 466.5 422.52 471.24 426.48 476.34 427.49 481.24 429.96 484.96 435.56 491.38 441.39 498.66 433.16 505.52 430.15 509.55 412.91 534.11 411.81 535.39 405.26 530.66 403.73 532.97 404.61 534.76 401.02 535.04 400.72 536.21 407.12 543.6 403.99 544.04 401 542.18 398.13 538.36 396.32 536.92 392.2 539.33 387.93 539.36 388.79 533.57 386.58 532.86 384.79 531.09 381.82 530.06 379.45 528.26 377.46 522.05 376.2 521.31 378 518.1 376.42 514.76 377.5 514.05 386.33 512.31 389.72 508.31 388.13 504.99 390.12 499.42 392.87 496.96 396.1 491.48 398.33 489.66 399.45 486.09 401.11 484.52 406.88 475.4 407.83 472.68 409.66 471.16 410.65 467.8 410.23 463.39 407.44 461.32 408.8 457.78 411.79 455.76 Z" id="31230620"/>
<path d="M 343.72 498.5 337.46 500.33 330.58 503.77 325.96 505.16 325.37 510.67 326.63 515.76 315.56 518.6 314.7 521.58 319.34 540.33 307.19 543.66 308.98 548.88 302.75 546.69 296.32 543.42 294.02 542.78 288.47 540.09 286.46 538.29 279.02 511.42 280.97 511.38 284.91 508.49 287.99 504.92 290.35 500.93 296.01 495.56 299.67 494.2 325.25 487.62 328.45 480.06 341.83 485.23 340.12 488.84 340.14 490.75 342.85 495.04 343.72 498.5 Z" id="31230630"/>
<path d="M 376.42 514.76 378 518.1 376.2 521.31 377.46 522.05 379.45 528.26 381.82 530.06 384.79 531.09 386.58 532.86 388.79 533.57 387.93 539.36 382.64 538.38 380.37 535.18 378.57 533.87 375.97 536.61 374.9 539.15 376.35 544.56 375.37 545.58 375.57 549.17 372.91 550.69 372.48 558.04 370.31 560.73 367.89 565.47 367.3 568.74 364.44 571.05 364.09 574.37 363.15 576.17 360.62 574.94 359.21 572.89 359.65 570.21 358.56 567.25 354.09 563.16 344.96 559.97 343.98 559.12 338.89 557.72 334.16 554.12 328.94 552.94 324.32 551.19 318.17 550.3 315.63 550.41 308.98 548.88 307.19 543.66 319.34 540.33 314.7 521.58 315.56 518.6 326.63 515.76 325.37 510.67 325.96 505.16 330.58 503.77 337.46 500.33 343.72 498.5 344.57 503.05 347.41 507.89 350.18 511.39 353.51 510.71 357.57 514.07 359.65 513.77 363.5 517.74 369.42 517.63 372.44 515.68 376.42 514.76 Z" id="31230640"/>
<path d="M 678.42 569.36 689.72 576.42 703.74 585.42 708.97 589.13 743.14 614.53 760.43 627.27 783.83 646.93 793.06 653.05 797.4 655.34 799 656.63 791.57 665.39 791.53 669.27 789.54 670.41 788.05 672.76 785.73 674.72 784.85 678.55 784.64 682.57 783.52 682.32 784.54 691.1 787.91 696.69 792.8 701.13 788.84 701.07 788.29 704.96 790.11 705.63 791.77 708.26 793.11 708.55 795.08 711.94 793.83 713.02 793.7 717.28 788.17 716.43 784.88 722.3 783.83 725.9 782.31 727.58 783.46 729.82 779.47 733.02 779.09 726.7 777.39 726.53 777.36 732.79 775.03 729.87 773.2 728.93 774.51 734.43 773.89 739.25 768.5 735.29 755.27 725.15 747.01 735.69 741.23 731.26 737.98 730.91 734.66 729.35 730.9 728.44 726.16 728.37 724.41 727.01 721.04 727.53 719.21 726.76 715.82 726.93 709.86 723.39 705.51 718.84 700 715.46 698.34 719.22 692.46 722.54 689.1 725.41 688.9 726.74 684.95 726.64 684.21 725.46 677.99 727.01 673.79 726.21 668.2 732.18 667.14 734.41 666.91 740.02 668.26 741.43 664.44 744.13 661.04 744.31 656.63 746 654.77 744.27 654.63 742.67 649.94 740.75 650.47 739.42 650.25 734.97 650.67 731.53 649.11 727.58 647.61 726.96 644.02 722.5 645.03 721.84 642.43 719.03 640.52 713.99 638.03 713.79 635.45 700.46 627.93 701.93 627.28 698.63 621.65 698.83 619.78 696.67 617.14 697.13 614.27 698.71 614.17 705.71 611.7 707.15 609.39 706.78 608.29 705 605.6 705.48 605.18 704.01 598.96 702.94 594.98 701.33 593.03 699.43 589.35 700.27 587.53 702.41 582.52 702.5 579.23 697.48 604.28 677.53 624.35 641.29 623.92 639.11 621.28 636.44 626.01 632.99 626.43 631.1 623.59 630.8 624.79 627.65 623.81 625.64 619.4 625.36 617.08 622.56 618.53 619.11 623.45 617.56 627.79 615.42 634.28 614.26 633.84 612.44 630.36 612.33 629.08 610.74 625.86 609.2 623.03 605.87 620.62 601.75 617.22 601.41 616.52 599.66 613.47 600.38 608.14 600.4 605.4 599.86 604.56 592.61 602.54 590.36 604.88 588.07 604.73 584.3 606.25 581.06 605.04 577.35 602.6 573.66 597.92 569.57 595.85 565.25 592.63 564.93 591.09 564.02 590.85 561.29 594.19 559.11 595.37 557.61 600.61 547.61 601.23 545.83 609.25 538.73 625.03 531.94 629.25 538.37 640.66 549.69 656.5 559.01 666.04 561.32 678.42 569.36 Z" id="31230120"/>
<path d="M 432.31 354.75 429.05 373.1 429.31 378.71 430.93 385.68 435.23 398.08 440.94 408.04 422.86 425.87 424.45 427.27 425.4 432.15 425.23 434.79 423.07 434.71 421.95 436.85 421.74 442.05 420.62 448.08 419.3 449.34 419.06 452.3 413.11 451.69 411.79 455.76 408.8 457.78 407.44 461.32 410.23 463.39 410.65 467.8 409.66 471.16 407.83 472.68 406.88 475.4 401.11 484.52 399.45 486.09 398.33 489.66 396.1 491.48 392.87 496.96 390.12 499.42 388.13 504.99 389.72 508.31 386.33 512.31 377.5 514.05 376.42 514.76 372.44 515.68 369.42 517.63 363.5 517.74 359.65 513.77 357.57 514.07 353.51 510.71 350.18 511.39 347.41 507.89 344.57 503.05 343.72 498.5 342.85 495.04 340.14 490.75 340.12 488.84 341.83 485.23 328.45 480.06 325.25 487.62 299.67 494.2 296.01 495.56 290.35 500.93 287.99 504.92 284.91 508.49 280.97 511.38 279.02 511.42 286.46 538.29 288.47 540.09 294.02 542.78 296.32 543.42 302.75 546.69 308.98 548.88 315.63 550.41 318.17 550.3 324.32 551.19 328.94 552.94 334.16 554.12 338.89 557.72 343.98 559.12 344.96 559.97 354.09 563.16 358.56 567.25 359.65 570.21 359.21 572.89 356.25 572.49 349.42 573.92 347.94 576.52 342.94 578.6 340.72 576.69 334.39 573.85 333.27 575.37 335.51 579.49 335.1 583.64 335.81 584.85 334.03 588.99 335.01 590.34 333.94 594.31 332.66 596.57 333.59 598.06 333.18 601.2 328.64 603.53 326.98 605.26 324.09 605.12 323.65 607.18 321.79 610.01 319.86 611.51 321.59 616.4 320.91 619.97 319.15 625.08 316.53 626.88 315.89 628.89 313.47 631.45 312.9 633.31 313.35 637.03 312.62 640.25 309.01 646.71 308.67 650.31 308.26 652.57 303.04 656.23 302.33 658.66 303.08 663.41 299.63 663.02 298.74 664.6 295.95 664.08 297.26 662.31 296.38 660.81 294.24 662.41 289.35 659.81 286.73 660.64 285.6 658.22 283.63 658.58 282.99 660.32 278.11 660.24 275.5 657.2 274.24 652.71 270.98 650.56 257.25 656.65 250.46 666.66 245.96 671.7 240.78 676.17 234.47 680.7 225.35 685.65 206.84 697.12 207.28 698.35 203.02 700 159.84 713.36 158.56 710.59 156.25 708.42 154.78 706 148.84 699.77 120.95 670.08 120.61 665.84 121.38 663.71 121.74 659.18 134.69 658.18 146.84 666.49 146.9 669.04 149.8 671.14 151.48 674.9 153.7 676.08 156.73 674.99 155.6 670.69 164.35 663.11 165.17 660.89 168 657.72 168.83 654.64 175.29 659.83 177.35 660.65 177.59 657.25 195.49 629.97 203.71 617.3 204.58 614.79 210.54 618.69 223.6 598.94 228.27 600.28 228.17 598.24 225.21 593.68 225.63 588.67 227.28 588.08 228.08 585.79 232.59 585.2 237.43 579.23 238.03 577.9 246.75 566.87 246.06 563.59 247.51 558.87 249.78 555.27 250.95 552.13 250.98 547.84 247.66 542.93 248.98 533.9 251.75 526.7 251.51 524.13 249.2 523.64 243.09 520.7 240.02 519.92 238.1 520.27 236.52 515.88 236.73 514.93 241.78 510.85 242.53 506.39 241.84 503.06 243.65 496.24 246.28 493.36 246.92 488.56 260.74 490.24 262.41 476.47 264.01 473.34 280.65 460.94 291.64 452.89 295.2 451.85 297.67 448.2 289.79 443.15 284.16 442.98 281.55 445.63 277.99 445.38 272.88 441.34 269.91 442.55 266.99 439.39 262.17 437.58 259.01 427.58 259.47 425.64 256.33 424.16 255.94 421.49 254.76 419.57 252.32 417.99 253.72 415.08 255.68 413.17 252.61 411.03 249.21 406.56 251.91 403.05 253.29 400.38 256.02 397.44 256.17 394.7 258.89 393.72 263.25 393.49 268.16 401.37 269.16 402.06 274.45 401.26 276.31 401.64 281.4 401.25 283.55 404.23 283.54 409.37 285.01 411.46 289.23 411.51 292.46 412.81 294.11 415.16 302.39 420.8 315.86 400.32 326.33 407.21 326.87 406.24 324.85 398.5 342.12 393.95 341.31 390.87 344.01 390.16 347.43 390.9 349.63 392.52 351.04 386.47 352.24 384.26 351.31 381.09 358.79 380.34 361.47 379.86 363.16 380.56 363.84 378.25 369.07 379.25 367.78 375.11 371.66 373.06 373.64 368.94 374.62 365.73 375.84 364.4 375.01 361.47 378.15 352.38 379.66 350.61 384.48 350.13 386.69 347.08 389.97 345.88 394.33 348.26 405.72 350.27 432.31 354.75 Z" id="31230130"/>
<path d="M 84.18 694.78 84.64 696.72 88.34 695.76 90.25 696.96 90.68 699.98 82.65 697.16 84.18 694.78 Z M 88.57 655.33 89.52 658.22 88.79 661.38 89.5 664.08 91.93 666.67 90.88 671.07 92.25 672.51 92.42 681.02 91.02 684.9 89.04 685.12 88.75 681.98 86.82 678.73 88.36 677.39 88.28 675.66 86.71 672.93 84.4 671.99 82.82 665.16 82.8 662.26 84.25 660.73 83.83 659.14 85.02 657.14 83.56 654.79 86.69 649.49 88.6 653.37 88.57 655.33 Z M 127.62 378.94 127.18 380.34 128.57 382.62 131.22 384.65 133.11 384.85 143.31 382.99 148.37 385.24 152.51 385.39 155.43 384.72 158.07 385.13 161.03 387.8 163.78 389.43 162.07 391.43 161.62 397.63 165.02 402.57 165.84 409.2 164.2 415.49 164.24 417.57 166.86 421.66 172.17 427.26 174.21 435.44 176.62 441.94 179.08 447.38 183.34 450.39 186.22 453.71 187.14 453.67 188.8 450.4 191.89 449.7 194.64 445.74 195.53 443.44 198.61 440.38 201.38 439.66 204.01 440.43 205.88 434.96 203.26 427.82 205.39 423.9 209.78 423.29 215.86 424.71 217.37 426.09 227.24 425.61 228.69 422.11 233.18 419.83 234.83 417.76 236.82 413.77 236.46 411.06 237.6 410.58 240.71 413.16 245.03 415.25 252.54 415.85 253.72 415.08 252.32 417.99 254.76 419.57 255.94 421.49 256.33 424.16 259.47 425.64 259.01 427.58 262.17 437.58 266.99 439.39 269.91 442.55 272.88 441.34 277.99 445.38 281.55 445.63 284.16 442.98 289.79 443.15 297.67 448.2 295.2 451.85 291.64 452.89 280.65 460.94 264.01 473.34 262.41 476.47 260.74 490.24 246.92 488.56 246.28 493.36 243.65 496.24 241.84 503.06 242.53 506.39 241.78 510.85 236.73 514.93 236.52 515.88 238.1 520.27 240.02 519.92 243.09 520.7 249.2 523.64 251.51 524.13 251.75 526.7 248.98 533.9 247.66 542.93 250.98 547.84 250.95 552.13 249.78 555.27 247.51 558.87 246.06 563.59 246.75 566.87 238.03 577.9 237.43 579.23 232.59 585.2 228.08 585.79 227.28 588.08 225.63 588.67 225.21 593.68 228.17 598.24 228.27 600.28 223.6 598.94 210.54 618.69 204.58 614.79 203.71 617.3 195.49 629.97 177.59 657.25 177.35 660.65 175.29 659.83 168.83 654.64 168 657.72 165.17 660.89 164.35 663.11 155.6 670.69 156.73 674.99 153.7 676.08 151.48 674.9 149.8 671.14 146.9 669.04 146.84 666.49 134.69 658.18 121.74 659.18 121.38 663.71 120.61 665.84 120.95 670.08 120.15 671.67 117.23 673.17 117.95 668.04 110.92 652.21 108.46 651.78 104.19 643.01 103.15 639.05 103.32 636.7 104.84 633.08 105.5 619.24 103.7 619.07 102.73 612.07 100.19 601.11 94.59 583.52 92.73 579.68 94.34 578.37 92.14 571.98 90.11 570.94 87.35 561.44 83.44 551.39 79.93 546.05 77.17 547.83 76.78 546.25 79.16 544.61 74.58 537.79 74.61 532.01 70.43 536.26 67.28 535.89 64.3 531.89 61.5 532.39 60.41 529.81 60.94 526.38 59.9 525.59 55.27 514.04 58.19 514.04 56.95 510 57.14 507.52 54.63 506.31 50.89 496.08 50.15 492.27 46.63 488.52 46.63 486.48 43.64 485.12 42.72 483.34 42.56 480.16 39.61 479.43 39.73 477.11 42.85 477.52 46.25 475.26 49.96 474.82 53.93 476.38 56.86 475.33 56.77 472.84 57.91 468.56 60.42 465.67 62.8 466.94 67.21 464.55 70.04 460.49 73.19 459.95 72.74 457.47 74.87 450.63 70.96 446.06 68.55 445.14 64.7 442.4 62.29 439.19 62.23 435.73 64.35 431.47 62.7 427.5 55.55 423.43 54.41 420.89 49.39 419.68 48.44 417.55 43.29 417.55 40.43 416.31 40.27 414.85 33.86 414.44 29.53 412.94 26.64 409.7 27.15 408.18 29.66 407.57 32.71 400.99 36.11 398.2 36.33 396.96 40.78 385.2 43.48 374.46 43.35 372.87 45.48 370.2 49.03 370 52.96 373.04 54.45 371.83 56.65 372.94 59.54 375.99 62.09 376.24 65.82 374.9 69.26 371.41 72.37 369.52 72.36 365.42 73.88 364.64 77.34 367.77 79.59 368.96 80.65 374.33 83.58 376.07 86.4 376.48 92.31 379.37 95.02 379.42 98.41 376.17 100.85 377.26 102.98 376.36 113.41 373.54 118.34 371.94 120.87 373.71 126.37 376.3 127.62 378.94 Z" fill-rule="evenodd" id="31230340"/>
<path d="M 215.64 104.02 230.76 118.87 227.1 124.38 220.33 126.89 218.48 130.88 215.7 132.02 214.17 134.16 214.28 140 213 141.95 213.78 146.08 215.2 148.86 215.43 153.57 210.7 156.07 207.99 160.53 207.51 165.17 208.83 170.49 208.64 173.75 207.25 176.97 207.49 180.85 212 183.56 213.6 189.06 218.64 187.1 220.53 187.67 221.19 190.11 223.08 192.8 225.36 193.91 225.39 195.63 222.88 200.78 223.45 202.47 229.36 205.94 232.79 210.13 232.97 213.3 227.93 221.09 229.55 222.44 229.32 225.61 227.28 228.62 230.78 233.16 233.45 237.81 226.39 239.11 219.44 240.99 217.71 239.07 215.69 238.8 211.91 236.45 210.85 234.64 207.58 232.64 205.37 232.8 202.05 234.79 199.92 232.22 195.56 233.82 189.83 233.9 184.08 236.34 182.34 236.41 182.06 240.63 180.72 245.74 182.3 248.94 181.47 251.64 183.21 254.8 182.2 257.14 183.38 259.53 182.86 261.89 186.08 265.87 188.47 267.93 191.47 269.55 187.5 277.31 185.66 282.44 183.93 283.93 182.2 287.4 183.96 288.33 183.02 292.08 180.28 294.83 179.38 298.17 176.12 299.67 174.17 298.72 170.73 298.66 169.3 300.72 163.49 303.03 161.72 304.42 159.14 309.08 159.32 312.8 158.7 314.27 154.45 316.27 152.35 319.22 147.71 320.33 144.6 319.43 141.16 316.9 137.71 316.08 136.7 318.2 134.99 317.88 132.72 322.35 123.47 324.78 120.03 326.2 120.66 333.32 118.44 335.39 117.69 337.83 118.07 341.74 116.7 346.45 116.91 347.54 119.88 349.14 123.9 353.09 124.1 356.83 125.06 357.13 129.82 365.68 131.67 367.62 133.45 375.89 129.1 379.03 127.62 378.94 126.37 376.3 120.87 373.71 118.34 371.94 113.41 373.54 102.98 376.36 100.85 377.26 98.41 376.17 95.02 379.42 92.31 379.37 86.4 376.48 83.58 376.07 80.65 374.33 79.59 368.96 77.34 367.77 73.88 364.64 72.36 365.42 72.37 369.52 69.26 371.41 65.82 374.9 62.09 376.24 59.54 375.99 56.65 372.94 54.45 371.83 52.96 373.04 49.03 370 45.48 370.2 44.88 370.07 47.13 362.28 46.66 357.96 45.77 344.58 45.82 340.35 44.5 336.73 43.93 329.64 41.29 310.48 39.99 305.46 36.9 297.42 31.98 291.44 27.59 287.76 22.7 285.57 19.94 283.85 17.33 279.65 13.97 272.66 12.79 267.96 13.23 262.87 12.98 260.39 13.81 249.46 16.47 236.4 16.67 233.54 21.14 217.78 24.86 209.55 25.69 206.72 27.05 206.84 26.86 201.7 28.86 197.82 32.3 187.91 34.26 179.54 36.55 173.92 36.27 171 37.19 167.53 37.92 158.17 36.96 156.38 37.7 153.96 39.92 151.67 38.81 142.58 34.52 134.26 29.88 127.61 25.15 119.76 23.72 119.1 14.82 110.17 11.39 107.05 7.89 102.7 4.46 97.26 6.12 92.75 7 88.37 8.24 86.59 12.66 82.42 15.68 80.42 17.71 79.94 20.25 77.66 21.81 77.37 1 68.19 3.76 46.89 17.39 1 57.68 21.18 106.44 45.46 164.04 98.34 215.64 104.02 Z" id="31230350"/>
<path d="M 408.6 35.86 409.75 35.92 415.4 76 444.11 133.86 448.24 156.39 449.28 166.4 452.28 180.16 453.71 189.14 457.45 208.92 457.09 226.08 451.42 259.06 446.74 269.96 441.96 280.15 442.84 283.77 439.33 318.73 439.32 319.58 438.36 319.56 435.09 334.69 432.31 354.75 405.72 350.27 394.33 348.26 389.97 345.88 386.69 347.08 384.48 350.13 379.66 350.61 378.15 352.38 375.01 361.47 375.84 364.4 374.62 365.73 373.64 368.94 371.66 373.06 367.78 375.11 369.07 379.25 363.84 378.25 363.16 380.56 361.47 379.86 358.79 380.34 357.11 380.39 354.47 375.87 352.08 374.47 348.29 373.44 343.66 375.06 340.14 372.25 338.33 371.69 332.62 374.6 330.86 374.76 326.58 372.96 320.53 374.25 320.02 372.67 320.61 369.29 325.93 346.14 323.75 345.67 321.12 343.11 316.54 334.52 316.28 332.38 319.29 319.3 311.19 317.57 311.39 313.56 313.11 306.11 312.13 301.34 307.78 296.97 303.49 296.7 302.76 297.32 297.99 296 295.81 294.24 292.24 295.95 291.81 290.87 288.85 286.73 288.51 284.3 286.5 284.02 285.35 280.98 285.11 276.55 286.02 273.09 285.74 270.32 282.6 267.98 277.72 267.4 273.9 268.71 271.08 257.86 271.36 255.13 273.39 250.67 273.56 243.56 274.12 242.17 277.92 236.94 277.9 235.44 276.09 232.23 281.64 228.06 282.49 226.08 280.87 225.26 276.59 220.76 269.07 218.32 266.91 217.02 265.94 213.96 261.92 215.02 258.71 210.76 259.21 208.66 257.85 201.69 254.89 200.31 250.38 202.62 247.4 201.35 247.71 198.61 246.52 197.46 242.14 195.65 240.61 193.74 237.05 194.4 230.08 192.52 226.6 192.94 225.36 193.91 223.08 192.8 221.19 190.11 220.53 187.67 218.64 187.1 213.6 189.06 212 183.56 207.49 180.85 207.25 176.97 208.64 173.75 208.83 170.49 207.51 165.17 207.99 160.53 210.7 156.07 215.43 153.57 215.2 148.86 213.78 146.08 213 141.95 214.28 140 214.17 134.16 215.7 132.02 218.48 130.88 220.33 126.89 227.1 124.38 230.76 118.87 215.64 104.02 227.33 98.53 234.79 94.05 236.29 93.73 246.42 89.57 255.86 85.12 271.3 69.07 287.02 52.48 304.69 40.98 323.11 34.68 344.91 35 380.87 35.79 395.29 35.13 408.6 35.86 Z" id="31230360"/>
<path d="M 624.35 641.29 608.61 632.6 602.8 631.14 598.6 627.87 592.7 622.54 587.21 618.19 588.24 626.12 583.52 625.46 578.11 626.86 573.6 626.21 566.45 623.91 562.97 624.88 559.96 626.6 557.81 628.95 555.92 628.12 551.63 624.77 545.32 623.08 541.33 618.85 537.18 617.65 536.34 615.92 533.74 613.88 534.97 608.48 536.82 606.61 538.89 603.11 540.12 604.15 542.82 601.36 542.87 600.15 538.64 595.77 544.69 592.42 546.91 590.12 548.1 591.47 566.36 602.73 577.14 585.44 580.17 583.24 579.61 570.12 582.38 569.96 586.17 571.56 588.1 573.25 589.89 570.59 592.63 564.93 595.85 565.25 597.92 569.57 602.6 573.66 605.04 577.35 606.25 581.06 604.73 584.3 604.88 588.07 602.54 590.36 604.56 592.61 605.4 599.86 608.14 600.4 613.47 600.38 616.52 599.66 617.22 601.41 620.62 601.75 623.03 605.87 625.86 609.2 629.08 610.74 630.36 612.33 633.84 612.44 634.28 614.26 627.79 615.42 623.45 617.56 618.53 619.11 617.08 622.56 619.4 625.36 623.81 625.64 624.79 627.65 623.59 630.8 626.43 631.1 626.01 632.99 621.28 636.44 623.92 639.11 624.35 641.29 Z" id="31230530"/>
<path d="M 624.35 641.29 604.28 677.53 579.23 697.48 572.97 688.57 567.5 683.27 564 680.57 559.57 678.15 557.11 675.85 555.7 670.7 555.04 660.33 550.68 660.14 548.81 663.16 547.61 660.64 544.14 656.08 539.83 655.56 534.81 656.37 530.65 661.01 526.42 662.72 524.33 664.93 522.98 663.1 522.45 657.23 524.1 651.54 527.48 648.49 528.44 646.59 527.9 641.4 528.69 639.49 527.71 636.99 526.58 631.15 528.62 630 529.63 627.2 529.05 625.19 532.89 621.49 533.57 619.75 537.18 617.65 541.33 618.85 545.32 623.08 551.63 624.77 555.92 628.12 557.81 628.95 559.96 626.6 562.97 624.88 566.45 623.91 573.6 626.21 578.11 626.86 583.52 625.46 588.24 626.12 587.21 618.19 592.7 622.54 598.6 627.87 602.8 631.14 608.61 632.6 624.35 641.29 Z" id="31230540"/>
</g>
</svg>