<?xml version="1.0"?>
<svg xmlns="http://www.w3.org/2000/svg" version="1.2" baseProfile="tiny" width="800" height="865" viewBox="0 0 800 865" stroke-linecap="round" stroke-linejoin="round">
<g id="dong">
<path d="M 585.53 412.86 583.68 418.12 579.45 421.3 575.28 421.33 568.63 424.47 564.64 423.95 562.8 424.34 559.96 427.02 559.61 430.51 560.71 438.67 560.57 442.97 559.74 445.08 557.44 447.52 557.34 451.53 555.57 454.14 557.26 455.63 558.02 457.8 557.89 463.9 554.21 468.94 554.41 470.26 550.47 473.82 546.2 475.66 545.95 479.22 545.1 483.53 545.39 488.02 544.98 491.03 546.6 496.42 546.99 502.02 547.64 504.39 546.2 507.11 547.72 509.36 547.32 510.94 542.5 514.97 543.18 519.32 541.55 521.02 537.86 521.49 535.44 522.63 531.03 522.99 527.97 521.68 524.32 521.35 516.54 522.66 514.41 524.93 510.56 525.76 505.53 529.26 506.36 531.57 505.92 533.07 500.48 531.49 499.2 532.91 499.23 534.66 498.12 537.01 495.51 539.85 498.05 542.38 497.23 546.2 498.38 548.9 497.75 551.63 498.22 555.5 495.51 558.84 491.51 562.63 486.44 560.68 482.52 558.45 478.85 558.07 476.08 562.38 470.23 560.71 467 561.47 467.21 565.75 466.71 569.4 465.42 573.17 463.86 573.16 462.55 571.52 459.91 571.42 454 574.37 448.26 574.68 446.44 575.27 445.32 576.81 442.61 577.49 439.43 577.03 437.63 578.75 436.04 579.18 431.46 582.84 430.86 586.36 427.71 588.78 423 589.38 411.18 595.96 406.45 596.31 401.15 599.83 401.58 601.12 400.25 603.5 396.76 603.36 393.27 604.62 384.79 595 382.9 590.31 383.11 588.83 381.32 587.75 381.75 584.63 383.9 581.34 383.97 575.1 379.16 572.46 373.62 570.05 371.81 567.65 372.58 564.04 374.71 559.15 373.55 556.68 373.05 553.13 370.67 549.06 369.13 542.91 369 538.4 368.24 535.15 368.69 532.06 369.92 531.62 371.69 528.5 370.36 526.43 371.21 522.47 370.64 521.09 366.84 519.93 364.79 517.46 361.1 516.22 359.39 514.66 355.66 514.47 352.91 509.72 349.47 505.73 348.87 503.7 347.21 502.57 347.51 498.13 348.87 496.06 350.39 489.12 351.85 488.09 350 485.51 350.56 484.56 349.36 482.34 347.4 480.67 346.85 477.28 343.55 474.84 342.73 472.11 343.33 469.97 347.36 467.21 348.41 461.74 357.91 457.5 358.78 456.04 363.32 455.17 366.98 453.37 370.71 448.07 370.6 446.43 372.49 444.85 374.56 444.14 382.36 439.54 386.51 439.53 381.33 434.39 380.5 430.79 378.44 429.24 375.51 425.83 375.15 424.01 375.64 421.11 373.09 416.52 370.24 414 369.92 411.02 365.32 408.36 364.95 406.64 363.25 404.35 361.51 403.82 360.02 399.8 360.78 397.47 360.21 395.03 361.37 393.37 362.88 389.23 361.71 385.95 358.46 384.34 361.56 381.61 368.64 376.18 377.15 371.73 378.21 366.79 374.22 362.18 370.48 360 367.14 360.52 364.88 360.1 362.56 357.19 359.48 355.01 355.89 353.71 355.73 352.74 353.19 351.7 353.3 348.43 355.6 346.33 356.66 343.01 360 341.84 361.76 338.46 363.78 337.27 365 335.6 367.97 335.41 370.08 334.09 374.83 333.77 378.47 334.86 381.24 332.81 386.45 332.06 389.52 328.29 392.76 326.82 395.94 326.53 401.51 324.35 405.99 324.05 411.51 324.32 412.34 322.37 415.5 320.28 413.85 316.87 413.41 314.09 413.83 311.62 417.35 308.58 417.91 305.46 419.3 302.07 421.31 300.2 425.05 299.34 427.35 297.8 430.2 293.4 435.66 297.02 448.9 302.42 460.2 310.73 462.62 315.15 461.79 322.2 459.21 329.78 463.61 331.18 463.47 334.71 465.3 341.85 469.61 342.42 473.62 340.32 475.63 340.48 477.07 342.18 483.33 343.46 485.98 340.61 487.77 340.95 498.43 339.91 499.2 335.73 498.48 331.26 499.89 328.43 502.53 326.68 505.42 325.47 509.47 319.47 513.29 318.57 516.97 322.36 518.49 326.93 524.52 330.99 526.04 333.12 526.17 336.59 527.16 337.36 527.73 340.12 529.33 342.62 530.96 342.69 534.13 347.43 536.9 347.92 539.42 351.48 542.14 351.66 547.23 353.12 550.96 355.3 553.75 361.19 553.99 363.58 558 364.99 561.52 369.39 563.95 370.07 564.99 371.75 568.92 371.38 575.87 372.65 577.67 377.63 576.94 381 577.86 386.89 577.8 389.25 576.2 390.95 578.57 394.27 578.16 398.4 580.25 400.29 583.29 404.23 584.8 408.28 584.18 410.83 585.53 412.86 Z" id="31250120"/>
<path d="M 797.06 553.5 797.28 556.84 794.27 558.64 791.42 561.54 788.8 565.3 783.41 568.41 782.15 568.74 780.27 570.97 778.41 571.15 777.38 573.71 774.45 574.67 770.08 578.43 770.26 580.67 768.37 583.46 766.78 588.64 766.64 590.77 765.01 593.65 763.06 594.77 759.66 597.81 758.91 600.88 756.42 603.53 753.63 604.12 753.03 605.54 748.71 607.14 747.01 611.03 744.87 610.85 738.03 612.85 735.46 614.66 734.24 619.25 735.25 623.44 733.32 627.22 733.14 629.75 731.77 630.28 724.64 636.68 724.32 638.77 723.05 641.14 720.36 643.22 718.91 642.6 712.91 643.12 709.73 646.23 708.51 648.64 704.59 650.45 702.25 652.82 699.67 652.22 698.33 654.31 697.72 657.98 695.56 661.41 694.11 664.61 690.41 666.69 683.94 664.38 681.3 664.35 679.33 667.07 677.59 667.7 672.77 671.62 670.98 672.68 668.08 675.72 665.44 676.68 661.71 681.72 661.75 686.12 658.19 688.77 653.97 689.69 651.43 689.71 648.35 692 646.15 690.12 644.01 689.41 642.04 687.5 640.74 687.64 637.32 690.6 635.59 691.33 633.15 691.18 632.01 689.89 626.95 690.81 625.01 689.68 622.76 685.88 620.04 686.13 616.25 689.82 615.14 689.62 611.33 692.99 610.24 698.16 608.49 699.94 604.96 701.4 604.63 703.62 601.93 704.49 599.33 704.12 597.94 702.28 592.56 699.44 591.12 700.93 588 701.32 585.3 699.8 583.64 692.49 584.04 686.89 580.43 685.16 579.92 682.77 578.2 679.14 578.35 677.73 576.9 675.81 572.49 673.03 571.03 671.18 570.26 668.6 567.68 665.51 563.85 666.78 559.83 665.29 557.02 664.98 552.99 665.45 550.46 663.54 548.05 660.18 548.12 659.1 545.17 653.79 543.08 653.36 538.44 650.92 537.22 644.97 535.08 641.34 535.47 638.52 534.91 636.93 529.65 636.21 522.34 634.37 520.4 634.33 516.76 630.24 517.44 627.03 518.93 626.28 524.17 620.46 525.18 618.23 525.2 615.76 523.62 613.29 520.97 612.32 518.93 610.82 518.83 605.95 517 607.03 514.29 611.86 513.49 614.03 510.13 612.61 505.71 614.67 503.72 616.79 501.98 616 497.72 617.66 496.29 619.2 492.02 617.07 488.17 616.91 486.96 615.93 485.25 616.5 483.34 615.09 482.48 613.28 477.69 612.76 472.21 612.97 471.51 610.45 469.86 610.33 468.1 608.11 467.42 606.11 464.44 606.22 462.37 605.06 459.82 606.55 454.9 606.22 453.18 604.26 448.14 603.22 446.99 601.42 447.08 598.62 445.94 596.97 443.87 596.82 441.13 591.34 438.33 587.79 430.86 586.36 431.46 582.84 436.04 579.18 437.63 578.75 439.43 577.03 442.61 577.49 445.32 576.81 446.44 575.27 448.26 574.68 454 574.37 459.91 571.42 462.55 571.52 463.86 573.16 465.42 573.17 466.71 569.4 467.21 565.75 467 561.47 470.23 560.71 476.08 562.38 478.85 558.07 482.52 558.45 486.44 560.68 491.51 562.63 495.51 558.84 498.22 555.5 497.75 551.63 498.38 548.9 497.23 546.2 498.05 542.38 495.51 539.85 498.12 537.01 499.23 534.66 499.2 532.91 500.48 531.49 505.92 533.07 506.36 531.57 505.53 529.26 510.56 525.76 514.41 524.93 516.54 522.66 524.32 521.35 527.97 521.68 531.03 522.99 535.44 522.63 537.86 521.49 541.55 521.02 543.18 519.32 542.5 514.97 547.32 510.94 547.72 509.36 546.2 507.11 547.64 504.39 546.99 502.02 546.6 496.42 544.98 491.03 545.39 488.02 545.1 483.53 545.95 479.22 546.2 475.66 550.47 473.82 554.41 470.26 554.21 468.94 557.89 463.9 558.02 457.8 557.26 455.63 555.57 454.14 557.34 451.53 557.44 447.52 559.74 445.08 560.57 442.97 560.71 438.67 559.61 430.51 559.96 427.02 562.8 424.34 564.64 423.95 568.63 424.47 575.28 421.33 579.45 421.3 583.68 418.12 585.53 412.86 591.72 417.48 594.13 416.06 594.79 418.15 601.23 418.02 603.38 414.86 605.74 413.37 609.84 408.78 617.34 413.01 627.92 410.84 630.53 408.47 631.11 406.25 635.56 405.54 637.44 404.08 642.58 401.69 644.03 399.59 646.93 398.3 647.99 396.09 653.2 392.98 654.29 391.61 656.64 390.96 658.41 389.49 659.93 386.29 663.74 384.15 668.62 383.44 673.79 383.71 675.45 383.11 677.15 387.83 684.33 394.25 686.45 395.72 690.44 400.62 695.38 404.13 698.85 405.99 702.12 407.17 704.19 409.12 705.77 409.09 708.5 411.87 709.39 414.94 710.65 416 711.22 419.19 712.77 422.37 712.72 426.94 711.17 431.67 713.09 439.13 714.7 440.05 714.55 441.83 715.27 446.08 717.37 448.37 717.77 453.05 718.72 453.91 724.89 463.26 726.41 466.59 728.59 469.92 730.17 469.69 731.8 474.8 733.58 475.52 735.22 477.3 738.44 478.27 741.02 477.52 742.31 478.27 745.75 476.29 747.99 475.77 749.63 473.79 751.95 473.36 753.3 474.02 757.95 471.81 763.03 473.54 764.5 473.05 766.36 474.65 769.21 475.49 771.65 474.25 773.25 475.29 776.7 473.74 777.93 474.08 782.35 473.16 783.5 474.14 787.95 472.9 790.36 473.39 790.42 474.65 793.83 478.44 794.35 482.29 793.26 484.41 794.72 487.05 795.44 492.67 799 494.88 792.57 502.09 792.08 506.02 790.93 509 793.17 513.48 793.35 519.65 791.54 522.49 791.85 524.98 791.85 532.33 793.63 537.29 792.51 542.2 792.28 548.17 793.15 550.09 795.27 548.6 797.28 548.8 797.06 553.5 Z" id="31250140"/>
<path d="M 525.83 846.04 522.36 845.58 520.77 844.14 516.73 845.25 515.29 844.97 511.01 846.7 509.08 846.25 504.71 847.1 503.52 846.81 500.04 844.26 498.85 842.54 493.27 840.53 492.16 839.44 488.1 839.64 486.52 838.1 484.66 834.83 482.58 834.8 480.12 833.57 475.56 833.4 471.63 836.77 468.48 835.32 465.85 836.56 463.98 835.74 461.33 836.55 459.47 835.94 455.27 836.66 453.84 838.94 452.26 838.69 449.28 841.33 446.65 841.98 445.62 843.37 440.77 845.15 439.76 844.73 436.82 845.99 433.9 849.97 433.26 854.34 433.95 857.77 432.93 860.26 429.82 861.69 427.92 863.35 423.2 864 418.55 863.13 417.43 859.67 415.12 857.5 415.75 853.3 414.84 850.17 410.07 846.25 409.86 844.76 406.54 843.5 402.67 843.59 394.84 846.01 390.82 847.98 388.7 851.25 385.26 851.66 383.2 851.26 380.66 852.49 378.57 850.56 374.48 849.11 375.61 844.23 373.2 841.82 369.84 839.6 368.11 839.4 366.18 837.19 366.2 833.1 369.25 829.9 374.23 827.86 378.15 825.61 380.63 823.26 379.63 820.53 378.55 819.93 379.35 815.97 377.78 812.78 376.04 810.99 376.5 808.97 376.03 804.74 375.37 803.1 375.5 798.79 373.24 797.33 372.35 795.84 373.28 790.87 370.22 784.6 372.09 781.46 373.6 776.8 374.48 770.26 377.47 767.18 379.1 763.75 379.92 760.32 378.64 757.24 376.86 755.49 377.14 750 376.21 748.06 375.51 743.92 372.34 736.85 373.51 734.66 369.04 726.86 369.09 724.59 372.05 719.63 372.17 717.59 373.63 715.24 376.3 709.24 378.34 707.29 380.86 703.41 383.65 702.18 383.47 699.51 384.42 693.97 383.07 690.79 383.85 688.75 382.61 686.4 382.07 683.73 379.86 681.69 380.43 680.43 379.02 675.84 378.68 672.74 380.37 668.15 380.75 665.91 374.86 663.59 375.58 660.54 374.23 657.39 374.58 653.17 377.45 646.11 378.02 642.61 379.86 641.58 383.33 637.13 383.1 634.57 384.51 631.07 383.16 624.45 384.05 621.61 383.13 619.68 383.85 615.69 382.55 611.99 383.61 609.08 393.27 604.62 396.76 603.36 400.25 603.5 401.58 601.12 401.15 599.83 406.45 596.31 411.18 595.96 423 589.38 427.71 588.78 430.86 586.36 438.33 587.79 441.13 591.34 443.87 596.82 445.94 596.97 447.08 598.62 446.99 601.42 448.14 603.22 453.18 604.26 454.9 606.22 459.82 606.55 462.37 605.06 464.44 606.22 467.42 606.11 468.1 608.11 469.86 610.33 471.51 610.45 472.21 612.97 477.69 612.76 482.48 613.28 483.34 615.09 485.25 616.5 486.96 615.93 488.17 616.91 492.02 617.07 496.29 619.2 497.72 617.66 501.98 616 503.72 616.79 505.71 614.67 510.13 612.61 513.49 614.03 514.29 611.86 517 607.03 518.83 605.95 518.93 610.82 520.97 612.32 523.62 613.29 525.2 615.76 525.18 618.23 524.17 620.46 518.93 626.28 517.44 627.03 516.76 630.24 520.4 634.33 522.34 634.37 529.65 636.21 534.91 636.93 535.47 638.52 535.08 641.34 537.22 644.97 538.44 650.92 543.08 653.36 545.17 653.79 548.12 659.1 548.05 660.18 550.46 663.54 552.99 665.45 557.02 664.98 559.83 665.29 563.85 666.78 567.68 665.51 570.26 668.6 571.03 671.18 572.49 673.03 576.9 675.81 578.35 677.73 578.2 679.14 579.92 682.77 580.43 685.16 584.04 686.89 583.64 692.49 585.3 699.8 588 701.32 588.86 707.96 588.36 712.45 589.66 713.9 589.32 715.69 590.86 718.1 591.82 720.93 591.22 722.09 591.86 724.61 590.03 727.64 587.44 727.54 584.2 729.19 582.59 731.42 578.47 730.48 574.08 733.47 573.22 738.42 570.62 742.59 565.41 747.46 565.26 750.24 566.91 752.31 571.57 754.99 573.04 759.54 572.36 762.02 573.21 763.83 573.09 767.54 571.96 770.12 569.45 769.44 565.17 770.5 564.08 773.57 564.48 775.32 562.19 777.56 560.81 777.56 558.22 779.05 557.39 778.53 555.44 782.2 554.41 781.83 549.5 783.64 545.34 782.41 543.41 780.45 537.64 780.97 536.52 780.34 533.32 784.56 532.68 786.68 530.24 788.29 529.03 790.28 529.84 791.88 533.68 794.17 534.92 795.82 535.88 800.31 536.34 805.23 539.24 809.03 542.01 810.93 542.72 813.67 546 815.3 550.42 818.33 550.09 823.18 551.49 824.01 552.13 826.11 549.21 828.25 546.46 827.76 543.64 829.84 542.82 833.19 541.72 835.16 539.81 835.28 537.85 837.26 535.09 838.96 533.29 838.57 530.47 839.49 528.91 842.33 527.97 842.53 525.83 846.04 Z" id="31250340"/>
<path d="M 629.14 146.62 629.54 148.95 632.24 152.73 632.9 155.14 636.86 155.49 637.18 158.21 638.07 158.79 636.89 163.38 637.78 163.9 637.84 167.31 640.65 171.33 643.06 173.71 645.13 179.19 644.38 179.94 644.44 183.29 647.2 184.24 648.49 186.65 649.18 190.64 650.61 191.73 650.47 196.75 648.98 200.57 647.51 203.06 647.45 205.39 645.39 209.86 645.59 216.52 647.34 223.29 645.76 228.2 643.35 231.07 642.43 233.19 642.78 236.35 641.63 237.12 641.54 241.2 642.37 242.26 639.05 244.38 636.52 247.05 633.19 247.71 630.52 247.2 627.54 247.4 625.93 246.62 621.11 246.54 616.54 248.34 615.14 247.48 609.68 249.26 607.96 252.88 606.78 254 605.09 252.88 600.96 252.48 598.09 251.27 597.68 253.28 601.1 257.81 605.38 261.54 605.38 262.98 609.54 268.34 609.88 272.65 609.34 275.06 610.77 277.56 610.37 282.98 609.22 286.77 609.42 290.24 612.32 291.41 620.33 292.1 623.12 294.57 624.87 295.03 627.94 293.71 631.12 294.48 633.22 294.31 636.15 296.84 635.66 299.59 636.23 303.35 637.61 307.14 639.16 313.71 639.91 315.35 638.79 317.53 639.22 322.15 640.51 324.13 644.73 329.06 648.81 331.3 652.45 335.49 652.59 340.11 654.69 341.03 656.33 343.87 659.68 344.3 660.37 345.76 665.31 348.69 668.84 349.98 672.97 353.77 675.9 357.81 675.67 360.62 677.37 363.87 680.57 364.95 683.05 368.69 683.16 371.38 682.1 374.17 679.03 377.07 675.45 383.11 673.79 383.71 668.62 383.44 663.74 384.15 659.93 386.29 658.41 389.49 656.64 390.96 654.29 391.61 653.2 392.98 647.99 396.09 646.93 398.3 644.03 399.59 642.58 401.69 637.44 404.08 635.56 405.54 631.11 406.25 630.53 408.47 627.92 410.84 617.34 413.01 609.84 408.78 605.74 413.37 603.38 414.86 601.23 418.02 594.79 418.15 594.13 416.06 591.72 417.48 585.53 412.86 584.18 410.83 584.8 408.28 583.29 404.23 580.25 400.29 578.16 398.4 578.57 394.27 576.2 390.95 577.8 389.25 577.86 386.89 576.94 381 577.67 377.63 575.87 372.65 568.92 371.38 564.99 371.75 563.95 370.07 561.52 369.39 558 364.99 553.99 363.58 553.75 361.19 550.96 355.3 547.23 353.12 542.14 351.66 539.42 351.48 536.9 347.92 534.13 347.43 530.96 342.69 529.33 342.62 527.73 340.12 527.16 337.36 526.17 336.59 526.04 333.12 524.52 330.99 518.49 326.93 516.97 322.36 513.29 318.57 509.47 319.47 505.42 325.47 502.53 326.68 499.89 328.43 498.48 331.26 499.2 335.73 498.43 339.91 487.77 340.95 485.98 340.61 483.33 343.46 477.07 342.18 475.63 340.48 473.62 340.32 469.61 342.42 465.3 341.85 463.47 334.71 463.61 331.18 459.21 329.78 461.79 322.2 462.62 315.15 460.2 310.73 448.9 302.42 435.66 297.02 430.2 293.4 427.47 287.87 425.56 288.03 421.43 290.73 419.47 290.77 416.8 289.78 412.07 290.33 406.99 294.54 404.82 294.68 403.63 290.15 400.73 289.57 397.11 286.55 390.91 284.1 389.64 280.19 387.9 279.53 386.02 274.66 385.86 272.4 384.39 271.73 382.64 269.13 382.86 264.05 382.39 261.71 383.59 259.18 384 256.38 381.51 255.93 380.68 251.68 378.13 248.29 378.16 245.15 373.62 247.39 370.81 244.2 366.51 242.02 360.55 242.82 358.01 242.07 355.8 245.65 355.2 248.12 353.56 249.78 353.03 252.18 350.38 252.51 348.5 256.85 346.59 255.88 344.96 253.8 341.96 253 337.94 249.02 332.54 245.45 327.65 245.36 326.65 242.06 324.46 239.68 323.56 237.34 324.1 235.36 326.47 232.51 325.06 229.42 325.45 225.5 327.18 223 326.57 221.26 324.61 219.3 325.92 216.11 325.66 211.5 323.67 209.06 322.54 202.14 320.61 198.97 320.89 197.44 324.62 196.96 326.1 200.86 330.52 202.37 334.99 206.8 339.9 206.26 342.12 207.01 345.7 202.52 347.85 202.13 349.78 203.69 354.88 202.75 357.33 203.57 360.08 203.23 363.55 205.4 365.88 203.11 368.01 203.06 372.33 199.88 376.11 193.26 376.74 191.19 378.81 189.67 379.16 188.02 381.79 185.97 384.27 181.93 385.35 186.39 391.66 190.25 394.33 189.16 398.7 191.29 400.54 188.58 403.74 185.2 408.48 188.19 409.32 191.29 413.05 186.76 418.53 176.5 420.98 175.08 422.63 173.09 427.99 164.56 428.25 161.6 429.99 157.89 432.35 159.13 431.25 164.11 433.09 165.54 437.82 167.97 438.65 169.51 440.71 170.7 443.91 170.84 446.37 174.96 449.52 176.37 450.44 178.3 452.5 178.43 454.77 180.76 457.39 178.92 459.09 175.92 461.55 176.64 464.62 176.53 466.82 173.18 469.43 174.4 472.16 170.83 475.87 172.17 479.98 171.84 483.07 168.72 487.03 168.78 488.07 167.76 493.22 168.37 495.92 170.06 498.24 173.48 499.62 176.35 502.51 178.53 504.65 182 509.04 181.66 512.97 179.64 516.91 180.34 519.71 182.08 527.7 180.89 528.72 180.34 528.53 177.33 530.95 175.45 532.07 173.62 533.86 173.07 536.77 170.61 537 167.49 535.59 162.28 535.96 158.6 536.65 156.88 534.25 153.95 533.86 152.25 537.4 149.2 537.93 147.73 542.17 143.69 543.01 144.88 545.67 145 546.45 146.24 549.96 146.91 555.49 147.33 557.87 143.54 562.72 143.17 564.76 143.49 567.69 142.45 569.13 144.86 573.76 146.45 576.58 148.21 583.32 147.34 590.15 149.42 592.96 148.28 593.44 145.6 594.72 144.37 598.25 143.65 600.73 146.58 603.13 147.66 608.3 147.72 609.81 148.66 610.06 153.62 611.46 153.27 616.4 150.35 619.07 151.56 621.65 150.09 624.67 146.59 629.14 146.62 Z" id="31250350"/>
<path d="M 141.56 531.07 140.75 532.68 141.35 538.18 139.99 540.59 141.02 543.09 139.35 547.21 136.58 549.39 129.26 550.24 126.18 552.21 122.78 555.25 118.83 557.06 116.24 556.46 115.12 555.29 111.42 555.26 109.9 556.7 105.18 557.45 98.98 555.09 97.23 555.57 93.96 555.15 88.45 556.33 87.68 555.85 84.44 556.79 79.87 562.69 76.46 564.09 73.95 567.8 72.29 567.09 70.72 568.08 69.75 570.15 69.92 574.7 68.49 574.84 67.27 576.93 62.33 579.67 55.83 579.59 51.07 579.99 46.39 582.44 42.09 586.67 40.13 594.22 36.01 597.28 35.79 599.45 36.9 600.15 38.38 603.7 36.55 604.36 33.73 607.76 29.94 607.71 25.64 613.15 23.48 614.32 22.03 616.22 19.3 617.18 17.96 619.51 12.22 623.02 10.54 622.54 9.82 618.45 10.66 614.97 12.2 613.78 12.95 611.8 10.92 610.79 10.12 608.56 7.18 605.33 5.03 604.82 4.57 601.01 1.4 597.9 1 593.31 1.65 590.57 5.12 588.63 5.73 585.25 4.99 581.08 3.4 577.31 3.69 575.31 5.01 573.38 6.44 569.09 7.41 567.48 12.74 564.2 14.97 564.27 19.06 562.15 23.61 562.56 24.82 564.32 28.57 563.73 32.41 563.89 38.68 560.18 42.18 558.85 44.12 558.81 46.32 557.62 46.78 555.42 52.05 551.39 53.24 547.92 55 545.94 57.02 541.93 57.23 537.05 60.64 535.41 63.9 532.27 65.84 528.96 66.22 527.26 68.27 525.74 69.32 524 71.85 521.98 72.45 518.71 72.27 515.67 73.48 510.04 72.56 507.06 74.94 499.66 77.96 498.64 81.58 499.49 86.11 497.8 90.44 497.69 95.05 494.71 98.9 490.68 101 491.11 103.96 490.17 106.26 488.44 106.97 486.8 111.35 483.35 112.4 481.92 116.21 486.71 115.78 489.97 117.7 491.67 118.43 494.59 117.43 498.1 117.37 500.79 118.12 502.35 117.24 504.37 120.83 504.51 123.48 505.23 125.11 507.11 126.92 506.48 128.23 510.03 132.43 514.72 134.04 518.19 135.27 529.43 137.89 529.17 141.56 531.07 Z" id="31250513"/>
<path d="M 151.4 602.87 148.76 603.59 142.53 607.18 137.91 609.01 135.47 608.5 134.09 610.1 130.94 610.65 124.51 614.21 121.21 614.49 117.96 615.87 114.4 611.74 113.23 612.46 110.39 611.82 106.8 612.05 105.91 611.31 101.55 611.65 100.14 612.69 96.44 612.86 92.53 615.24 89.32 615.99 85.79 614.61 78.64 615.3 75.86 615.21 74.28 617.19 69.25 619.66 67.53 622.3 66.13 622.93 61.16 623.62 57.74 625.51 56.02 624.91 52.52 626.29 49.53 625.6 42.88 630.42 42.33 632.06 37.36 635.1 33.52 635.96 31.71 635.24 30.71 636.47 25.42 636.9 23.33 636.16 20.23 630.02 16.35 627.03 14.24 627.04 12.22 623.02 17.96 619.51 19.3 617.18 22.03 616.22 23.48 614.32 25.64 613.15 29.94 607.71 33.73 607.76 36.55 604.36 38.38 603.7 36.9 600.15 35.79 599.45 36.01 597.28 40.13 594.22 42.09 586.67 46.39 582.44 51.07 579.99 55.83 579.59 62.33 579.67 67.27 576.93 68.49 574.84 69.92 574.7 69.75 570.15 70.72 568.08 72.29 567.09 73.95 567.8 76.46 564.09 79.87 562.69 84.44 556.79 87.68 555.85 88.45 556.33 93.96 555.15 97.23 555.57 98.98 555.09 105.18 557.45 109.9 556.7 111.42 555.26 115.12 555.29 116.24 556.46 118.83 557.06 122.78 555.25 126.18 552.21 129.26 550.24 136.58 549.39 139.35 547.21 139.91 548.63 139.32 550.29 139.66 557.75 140.37 559.37 143.13 561.47 142.78 563.76 144.11 566.18 143.69 568.3 145.44 571.85 145.08 576.22 147.21 578.58 148.61 578.77 149.71 580.53 148.6 583.54 148.43 586.19 149.13 590.82 151.62 595.09 151.85 596.93 153.14 598.76 151.4 602.87 Z" id="31250514"/>
<path d="M 287.85 479.43 290.53 476.38 294.67 473.51 299.75 469.29 301.89 465.8 304 463.39 301.59 459.51 301.59 457.09 302.4 454.78 306.89 448.87 310.54 442.01 314.72 436.72 319.99 433.25 323.68 431.83 326.93 429.62 329.88 425.85 334.59 426.46 334.58 429.3 333.1 434.07 334.24 437.62 335.49 438.56 334.68 440.55 335.77 444.32 334.18 451.3 334.83 456.13 335.5 457.31 334.43 463.57 338.65 466.14 339.11 468.15 343.33 469.97 342.73 472.11 343.55 474.84 346.85 477.28 347.4 480.67 349.36 482.34 350.56 484.56 350 485.51 351.85 488.09 350.39 489.12 348.87 496.06 347.51 498.13 347.21 502.57 348.87 503.7 349.47 505.73 352.91 509.72 355.66 514.47 359.39 514.66 361.1 516.22 364.79 517.46 366.84 519.93 370.64 521.09 371.21 522.47 370.36 526.43 371.69 528.5 369.92 531.62 368.69 532.06 368.24 535.15 369 538.4 369.13 542.91 370.67 549.06 373.05 553.13 373.55 556.68 374.71 559.15 372.58 564.04 371.81 567.65 373.62 570.05 379.16 572.46 383.97 575.1 383.9 581.34 381.75 584.63 381.32 587.75 383.11 588.83 382.9 590.31 384.79 595 393.27 604.62 383.61 609.08 381.46 608.95 378.54 606.91 377.1 606.63 373.11 609.98 368.75 611.91 365.42 614.43 363.04 617.07 359.59 616.73 357.38 617.88 353.99 617.1 351.35 618.13 346.68 618.51 345.24 616.35 341.22 616.47 339.41 617.62 337.15 617.3 336.4 614.75 334.07 612.68 332.52 606.86 329.71 601.12 328.39 599.2 325.49 597.24 319.29 594.38 316.59 595.24 315.33 593.83 311.91 591.82 309.85 591.36 308.58 592.42 305.17 589.87 304.88 587.89 302.82 585.57 299.4 584.62 298.38 581.77 295.95 579.07 294.43 579.2 292.41 577.16 292.22 575.77 289.27 576.64 286.71 576.5 284.79 578.65 281.85 579.89 279.52 582.31 277.51 580.4 276.06 580.14 274.47 576.94 271.57 575.72 270.39 569.24 270.61 561.56 272.09 560.59 274.74 557.33 276.65 552.47 276.91 548.65 275.85 545.03 273.39 541.36 270.46 538.67 271 529.68 270.36 528.93 271.05 528.6 280.61 525.53 281.8 521.43 283.87 517.79 287.14 506.31 288.82 501.97 288.87 499.89 286.96 495.35 286.95 492.32 287.79 490.93 287.76 487.43 286.95 486.19 287.99 480.72 287.85 479.43 Z" id="31250512"/>
<path d="M 305.2 316.12 301.23 320.49 300.78 323.06 301.35 329.84 300.94 332.03 301.64 335.12 301.21 336.86 298.94 337.63 298.08 339.62 297.68 343.13 296.82 345.96 297.16 347.77 294.89 351.75 296.66 354.29 296.66 356.82 295.72 358.44 295.91 360.96 298.09 361.82 300.68 364.42 302.14 367.45 304.89 370.1 305.44 372.51 311.44 375.38 304.65 380.82 303 381.7 298.78 381.48 298.75 382.6 301.23 384.7 302.62 387.35 300.43 387.03 292.58 388.01 291.36 390.68 291.26 394.52 289.22 399.45 285.29 403.05 284.87 409.4 282.3 409.09 278.84 409.46 275.96 408.78 272.88 410.03 272.5 409.1 269.8 408.2 267.38 408.64 265.68 406.29 262.89 405.68 256.74 405.99 253.22 405.07 249.4 403.14 246.98 403.75 240.75 400.83 230.98 401.31 230.98 399.45 228.4 396.66 228.43 393.04 227.8 392 227.57 386.27 225.15 383.99 223.27 383.77 221.21 380.21 221.75 379.18 220.05 376.3 216.63 372.98 216.15 370.43 212.93 368.92 213.17 366.42 210.55 363.31 210.45 361.74 206.76 360.01 202.54 361.79 199.12 359.97 197.02 360.26 194.99 359.5 194.87 357.91 193.05 357.52 191.85 356.16 186.28 357.07 180.88 354.92 179.35 355.24 174.65 353.11 172.58 353.67 170.53 353.15 168.03 353.92 167.23 353 164.53 354.19 161.12 354.7 159.27 353.36 157.63 354.07 154.93 351.57 156.55 346.02 156.2 345.06 157.52 341.7 157.41 339.97 158.72 338.92 160.05 336.26 157.72 335.14 157.86 333.15 155.98 327.23 155.96 323.41 156.74 319.57 155.56 314.87 154.77 314.04 156.13 311.82 155.63 309.46 156.5 308.26 156.63 305.58 160.95 296 160.19 292.22 163.74 292.35 166.69 290.93 170.09 290.49 174.59 289.02 177.01 289.08 177.85 290.33 180.2 291.44 182.96 290.67 187.77 290.45 190.1 289.48 192.01 289.71 196.48 288.74 199.06 289.03 202.98 290.37 206.02 290.32 208.04 292.22 209.89 292.68 214.33 292.65 215.99 294.83 219.17 296.24 221.68 295.09 225 295.75 228.38 295.34 231.3 293.46 237.62 292.71 240.2 293.8 243.55 292.12 246.12 292.68 248.86 294.31 252.08 292.85 252.94 293.38 256.92 292.73 259.57 291.17 260.13 289.47 261.7 288.5 264.61 288.14 264.85 284 267.11 282.08 266.44 280.56 266.94 275.77 267.63 272.94 268.25 266.13 270.39 264.55 274.25 260.46 274.34 257.61 276.53 255.45 278.16 255.5 280.3 257.12 282.81 255.95 285.6 253.3 286.09 252.14 291.76 252.31 291.67 255.44 290.36 257.87 289.98 261.78 288.34 264.44 287.97 267.49 290.65 270.85 290.7 272.52 292.43 275.57 290.94 280.63 292.87 282.36 292.55 287.39 293.12 292.13 297.86 297.14 298.72 301.05 301.01 303.46 301.6 305.12 300.71 307.51 301.37 310.53 302.56 311.48 303.16 313.95 305.2 316.12 Z" id="31250570"/>
<path d="M 284.87 409.4 284.08 411.64 285.21 413.68 283.2 415.79 285 417.4 285.65 419.38 284.2 421.16 279.65 421.17 278.57 422.61 277.25 426.17 276.86 428.7 277.5 432.92 279.3 434.4 281.98 432.89 284.78 432.83 286.14 435.7 283.5 438.1 285.84 441.06 287 447.92 290.43 450.32 293.12 448.04 295.32 449.85 292.87 452.32 296.07 453.24 296.06 454.9 293.52 458.86 297.79 461.59 298.24 460.52 301.59 459.51 304 463.39 301.89 465.8 299.75 469.29 294.67 473.51 290.53 476.38 287.85 479.43 286.51 481.36 284.21 482.27 281.71 488.24 281.33 488.66 278.65 489.23 272.9 491.96 271.39 491.84 269.58 488.02 267.24 484.61 266.87 482.15 267.96 478.41 270.83 477.05 271.9 473.85 273.6 471.15 272.56 469.31 265.81 472.36 263.7 472.33 258.73 470.33 253.21 470.07 250.44 469.34 244.03 464.56 243.06 464.63 238.93 460.58 236.82 459.04 232.3 457.63 227.26 460.37 223.61 463.68 221.27 467.96 217.53 471.98 216.09 474.2 222.15 475.7 227.83 480.11 226.38 483.4 226.94 486.16 223.75 487.87 222.14 490.7 220.44 496.28 218.2 498.07 218.52 499.19 216.27 500.08 214.15 502.58 212.83 502.13 209.31 503.44 206.41 502.73 203.8 503.65 203.13 505.75 200.23 505.9 197.48 504.81 193.07 504.62 191.53 506.29 189.57 506.94 188.09 509.54 185.24 512.71 182.59 514.71 179.18 515.55 178.79 517.12 176.84 519.46 173.22 521.24 169.24 520.83 166.46 521.31 164.66 520.85 162.92 522.9 155.3 527.46 152.23 528.11 149.7 529.46 147.04 529.15 143.34 531.01 141.56 531.07 137.89 529.17 135.27 529.43 134.04 518.19 132.43 514.72 128.23 510.03 126.92 506.48 125.11 507.11 123.48 505.23 120.83 504.51 117.24 504.37 118.12 502.35 117.37 500.79 117.43 498.1 118.43 494.59 117.7 491.67 115.78 489.97 116.21 486.71 112.4 481.92 112.78 479.18 114.11 476.03 110.84 474.78 106.82 471.44 103.35 470.6 102.53 466.87 101.73 466.66 100.96 462.45 97.86 462.66 91.2 458.41 92.14 456.7 91.57 454.14 91.46 449.03 93.52 447.13 93.34 445.47 94.77 443.2 96.61 441.81 97.28 439.17 99.93 431.69 99.32 430.38 100.35 428.27 103.41 426.47 104.89 419.66 106.28 416.6 108.8 413.99 109.1 411.77 111.06 409.61 114.16 403.58 114.82 400.86 114.3 397.04 115.57 395.11 115.26 390.47 114.06 389.49 113.62 386.91 115.86 386.76 117.96 385.06 121.87 383.45 123.7 385.57 128.97 387.03 132.93 385.45 134.35 383.18 135.16 375.79 139.21 373.96 141.55 369.81 147.28 364.95 150.93 363.99 153.69 359.33 156.37 357.58 157.63 354.07 159.27 353.36 161.12 354.7 164.53 354.19 167.23 353 168.03 353.92 170.53 353.15 172.58 353.67 174.65 353.11 179.35 355.24 180.88 354.92 186.28 357.07 191.85 356.16 193.05 357.52 194.87 357.91 194.99 359.5 197.02 360.26 199.12 359.97 202.54 361.79 206.76 360.01 210.45 361.74 210.55 363.31 213.17 366.42 212.93 368.92 216.15 370.43 216.63 372.98 220.05 376.3 221.75 379.18 221.21 380.21 223.27 383.77 225.15 383.99 227.57 386.27 227.8 392 228.43 393.04 228.4 396.66 230.98 399.45 230.98 401.31 240.75 400.83 246.98 403.75 249.4 403.14 253.22 405.07 256.74 405.99 262.89 405.68 265.68 406.29 267.38 408.64 269.8 408.2 272.5 409.1 272.88 410.03 275.96 408.78 278.84 409.46 282.3 409.09 284.87 409.4 Z" id="31250580"/>
<path d="M 639.53 114.49 638.99 115.89 642.09 120.41 644.96 123.58 641.6 126.56 635.6 129.26 633.47 131.13 633.36 133.57 631.78 135.75 631.75 138.9 630.52 140.19 629.14 146.62 624.67 146.59 621.65 150.09 619.07 151.56 616.4 150.35 611.46 153.27 610.06 153.62 609.81 148.66 608.3 147.72 603.13 147.66 600.73 146.58 598.25 143.65 594.72 144.37 593.44 145.6 592.96 148.28 590.15 149.42 583.32 147.34 576.58 148.21 573.76 146.45 569.13 144.86 567.69 142.45 564.76 143.49 562.72 143.17 557.87 143.54 555.49 147.33 549.96 146.91 546.45 146.24 545.67 145 543.01 144.88 542.17 143.69 537.93 147.73 537.4 149.2 533.86 152.25 534.25 153.95 536.65 156.88 535.96 158.6 535.59 162.28 537 167.49 536.77 170.61 533.86 173.07 532.07 173.62 530.95 175.45 528.53 177.33 528.72 180.34 527.7 180.89 519.71 182.08 516.91 180.34 512.97 179.64 509.04 181.66 504.65 182 502.51 178.53 499.62 176.35 498.24 173.48 495.92 170.06 493.22 168.37 488.07 167.76 487.03 168.78 483.07 168.72 479.98 171.84 475.87 172.17 472.16 170.83 469.43 174.4 466.82 173.18 464.62 176.53 461.55 176.64 459.09 175.92 457.39 178.92 454.77 180.76 452.5 178.43 450.44 178.3 449.52 176.37 446.37 174.96 443.91 170.84 440.71 170.7 438.65 169.51 437.82 167.97 433.09 165.54 431.25 164.11 432.35 159.13 429.99 157.89 428.25 161.6 427.99 164.56 422.63 173.09 420.98 175.08 418.53 176.5 413.05 186.76 409.32 191.29 408.48 188.19 403.74 185.2 400.54 188.58 398.7 191.29 394.33 189.16 391.66 190.25 385.35 186.39 384.27 181.93 381.79 185.97 379.16 188.02 378.81 189.67 376.74 191.19 376.11 193.26 372.33 199.88 368.01 203.06 365.88 203.11 363.55 205.4 360.08 203.23 357.33 203.57 354.88 202.75 349.78 203.69 347.85 202.13 345.7 202.52 342.12 207.01 339.9 206.26 334.99 206.8 330.52 202.37 326.1 200.86 324.62 196.96 320.89 197.44 316.77 192.41 315.96 188.81 316.71 186.84 316.38 184.25 317.52 182.25 316.14 178.17 314.51 176.38 310.76 170.54 307.37 163.59 307.14 160.05 309.2 157.15 313.27 152.38 315.95 152.84 320.03 148.38 321.49 144.45 321.19 140.7 319.69 139.11 318.21 135.6 318.41 133.07 313.37 129.27 311.02 125.58 311.2 123.74 310.03 115.25 309.04 112.12 306.3 105.7 307.39 102.9 310.33 97.96 309.77 95.88 328.83 92.42 330.75 93.57 335.52 93.86 336.99 94.46 345.3 95.32 351.68 91.08 355.45 91.75 357.2 90.17 360.49 89.05 364.36 88.94 368.71 84.81 367.92 82.85 368.95 79.85 370.55 79.12 372.47 76.52 374.06 75.82 374.82 73.94 379.07 73.7 381.04 73.13 383.19 69.91 388.57 69.9 390.74 82.41 392.16 92.81 392.82 94.31 397.39 97.01 402.75 98.13 406.23 98.19 411.85 97.6 426.2 91.04 430.38 88.12 438.59 76.64 442.02 68.72 441.72 65.16 441.78 53.68 441.96 53.45 446.35 52.79 447.7 51.7 448.45 49.64 447.73 41.75 447.79 33.97 447.39 29.18 450.52 27.46 457.58 24.79 462.69 24.7 467.02 22.01 468.71 19.57 477.61 11.9 483.61 5.56 486.14 3.81 491.65 1.83 497.33 2.49 504.42 2.61 511.77 4.47 518.94 4.73 527.18 4.67 535.79 1.55 541.97 1.03 550.49 1 559.47 2.58 564.76 4.3 571.05 7.5 577.5 11.16 585.25 15.86 586.97 17.41 593.46 26.91 597.16 33.19 600.75 36.18 604.22 43.55 609.05 51.39 611.83 58.56 612.86 61.92 614.18 68.37 615.91 72.94 618.23 76.81 623.77 87.57 624.89 91.82 625.9 93.94 630.09 99.33 631.9 102.15 635.4 109.49 639.53 114.49 Z" id="31250360"/>
<path d="M 175.94 166.98 176.91 170.48 179.63 170.92 179.35 174.36 181.59 178.14 184.06 179.03 186.69 178.28 188.27 178.81 190.78 176.77 196.02 175.64 197.78 176.33 204.54 173.96 206.64 173.99 210.78 172.6 211.93 174.15 216.61 175.32 220.3 173.56 223.08 175.41 223.18 176.96 225.5 180.09 229.34 180.8 230.22 181.66 233.2 180.8 237.29 180.46 239.88 185.24 242.39 186.43 243.42 187.88 248.34 187.7 250.65 188.42 253.84 188.58 256.6 187.91 258.53 188.19 260.51 189.51 265.14 189.81 268.13 190.56 269.54 192.45 270.76 191.16 276.04 189.64 279.62 190.63 283.96 190.65 286.59 186.77 286.45 184.32 290.02 181.56 290.51 176.48 285.84 174.4 285.16 166.27 284.08 163.51 288.9 160.49 294.5 159.61 296.25 159.7 299.34 162.19 304.8 163.63 307.37 163.59 310.76 170.54 314.51 176.38 316.14 178.17 317.52 182.25 316.38 184.25 316.71 186.84 315.96 188.81 316.77 192.41 320.89 197.44 320.61 198.97 322.54 202.14 323.67 209.06 325.66 211.5 325.92 216.11 324.61 219.3 326.57 221.26 327.18 223 325.45 225.5 325.06 229.42 326.47 232.51 324.1 235.36 323.56 237.34 324.46 239.68 326.65 242.06 327.65 245.36 332.54 245.45 337.94 249.02 341.96 253 344.96 253.8 346.59 255.88 348.5 256.85 350.38 252.51 353.03 252.18 353.56 249.78 355.2 248.12 355.8 245.65 358.01 242.07 360.55 242.82 366.51 242.02 370.81 244.2 373.62 247.39 378.16 245.15 378.13 248.29 380.68 251.68 381.51 255.93 384 256.38 383.59 259.18 382.39 261.71 382.86 264.05 382.64 269.13 384.39 271.73 385.86 272.4 386.02 274.66 387.9 279.53 389.64 280.19 390.91 284.1 397.11 286.55 400.73 289.57 403.63 290.15 404.82 294.68 406.99 294.54 412.07 290.33 416.8 289.78 419.47 290.77 421.43 290.73 425.56 288.03 427.47 287.87 430.2 293.4 427.35 297.8 425.05 299.34 421.31 300.2 419.3 302.07 417.91 305.46 417.35 308.58 413.83 311.62 413.41 314.09 413.85 316.87 415.5 320.28 412.34 322.37 411.51 324.32 405.99 324.05 401.51 324.35 395.94 326.53 392.76 326.82 389.52 328.29 386.45 332.06 381.24 332.81 378.47 334.86 374.83 333.77 370.08 334.09 367.97 335.41 365 335.6 363.78 337.27 361.76 338.46 360 341.84 356.66 343.01 354.18 341.12 352.48 335.97 349.25 332.12 348.87 328.87 347.8 326.73 347.95 323.91 342.96 322.18 342.2 318.92 339.68 318.02 336.37 317.94 333.8 317 331.26 314.95 329.54 315.61 327.62 314.47 326.04 314.87 322.33 313.76 320.93 312.83 317.6 313.55 314.44 312.99 311.35 316.94 307.96 317.18 305.2 316.12 303.16 313.95 302.56 311.48 301.37 310.53 300.71 307.51 301.6 305.12 301.01 303.46 298.72 301.05 297.86 297.14 293.12 292.13 292.55 287.39 292.87 282.36 290.94 280.63 292.43 275.57 290.7 272.52 290.65 270.85 287.97 267.49 288.34 264.44 289.98 261.78 290.36 257.87 291.67 255.44 291.76 252.31 286.09 252.14 285.6 253.3 282.81 255.95 280.3 257.12 278.16 255.5 276.53 255.45 274.34 257.61 274.25 260.46 270.39 264.55 268.25 266.13 267.63 272.94 266.94 275.77 266.44 280.56 267.11 282.08 264.85 284 264.61 288.14 261.7 288.5 260.13 289.47 259.57 291.17 256.92 292.73 252.94 293.38 252.08 292.85 248.86 294.31 246.12 292.68 243.55 292.12 240.2 293.8 237.62 292.71 231.3 293.46 228.38 295.34 225 295.75 221.68 295.09 219.17 296.24 215.99 294.83 214.33 292.65 209.89 292.68 208.04 292.22 206.02 290.32 202.98 290.37 199.06 289.03 196.48 288.74 192.01 289.71 190.1 289.48 187.77 290.45 182.96 290.67 180.2 291.44 177.85 290.33 177.01 289.08 174.59 289.02 170.09 290.49 166.69 290.93 163.74 292.35 160.19 292.22 159.46 290.41 159.77 287.58 159.89 279.28 158.27 278.03 157.87 276.41 158.42 271.85 156.72 269.3 156.08 266.36 154.43 264.59 152.85 261.49 148.64 257.26 150.39 254.75 150.31 253.2 145.6 250.79 144.49 249.03 139.5 249.69 132.75 247.51 131.02 243.65 131.51 238.37 132.44 235.76 129.64 234.72 126.43 232.07 124.62 229.92 124.23 227.23 125.56 225.17 126.17 219.03 125.1 214.67 125.9 211.34 124.27 209.37 123.07 206.13 123.21 201.67 121.75 199.27 119.29 198.27 117.41 196.66 113.51 194.65 111.93 191.97 108.86 190.52 108.56 188.05 109.14 184.09 107.92 180.64 109.5 180.06 110.59 177.23 109.17 172.43 110.59 168.11 109.85 165.02 109.55 163.13 112.34 163.39 114.15 160.97 114.72 157.18 117.34 157.29 116.44 163 117.48 164.22 120.22 164.75 122.65 166.43 124.08 166.14 127.67 167.22 131.68 169.53 133.24 174.47 134.89 176.4 137.78 177.56 139.36 176.6 141.9 178.87 143.88 179.01 146.86 177.88 150.49 177.81 154.02 175.47 155.77 175.68 160.93 178.31 162.53 180.4 167.27 181.29 169.98 180.12 171.37 177.89 173.76 172.67 171.98 168.98 175.55 168.08 175.94 166.98 Z" id="31250380"/>
<path d="M 284.87 409.4 285.29 403.05 289.22 399.45 291.26 394.52 291.36 390.68 292.58 388.01 300.43 387.03 302.62 387.35 301.23 384.7 298.75 382.6 298.78 381.48 303 381.7 316.77 388.58 317.92 390.56 319.68 390.41 325.05 391.19 326.79 390.22 328.38 390.92 329.12 392.61 333.31 392.8 335.46 392.24 338.57 393.7 337.86 395.65 335.46 397.76 331.06 398.43 328.79 401.16 328.47 402.69 330.69 408.57 333.25 412.77 333.17 420.13 330.99 423.11 329.88 425.85 326.93 429.62 323.68 431.83 319.99 433.25 314.72 436.72 310.54 442.01 306.89 448.87 302.4 454.78 301.59 457.09 301.59 459.51 298.24 460.52 297.79 461.59 293.52 458.86 296.06 454.9 296.07 453.24 292.87 452.32 295.32 449.85 293.12 448.04 290.43 450.32 287 447.92 285.84 441.06 283.5 438.1 286.14 435.7 284.78 432.83 281.98 432.89 279.3 434.4 277.5 432.92 276.86 428.7 277.25 426.17 278.57 422.61 279.65 421.17 284.2 421.16 285.65 419.38 285 417.4 283.2 415.79 285.21 413.68 284.08 411.64 284.87 409.4 Z" id="31250540"/>
<path d="M 303 381.7 304.65 380.82 311.44 375.38 305.44 372.51 304.89 370.1 302.14 367.45 300.68 364.42 298.09 361.82 295.91 360.96 295.72 358.44 296.66 356.82 296.66 354.29 294.89 351.75 297.16 347.77 296.82 345.96 297.68 343.13 298.08 339.62 298.94 337.63 301.21 336.86 301.64 335.12 300.94 332.03 301.35 329.84 300.78 323.06 301.23 320.49 305.2 316.12 307.96 317.18 311.35 316.94 314.44 312.99 317.6 313.55 320.93 312.83 322.33 313.76 326.04 314.87 327.62 314.47 329.54 315.61 331.26 314.95 333.8 317 336.37 317.94 339.68 318.02 342.2 318.92 342.96 322.18 347.95 323.91 347.8 326.73 348.87 328.87 349.25 332.12 352.48 335.97 354.18 341.12 356.66 343.01 355.6 346.33 353.3 348.43 353.19 351.7 355.73 352.74 355.89 353.71 359.48 355.01 362.56 357.19 364.88 360.1 367.14 360.52 370.48 360 374.22 362.18 378.21 366.79 377.15 371.73 368.64 376.18 361.56 381.61 358.46 384.34 351.22 386.29 347.51 386.09 343.77 386.66 341.99 387.71 339.27 391.39 338.57 393.7 335.46 392.24 333.31 392.8 329.12 392.61 328.38 390.92 326.79 390.22 325.05 391.19 319.68 390.41 317.92 390.56 316.77 388.58 303 381.7 Z" id="31250550"/>
<path d="M 343.33 469.97 339.11 468.15 338.65 466.14 334.43 463.57 335.5 457.31 334.83 456.13 334.18 451.3 335.77 444.32 334.68 440.55 335.49 438.56 334.24 437.62 333.1 434.07 334.58 429.3 334.59 426.46 329.88 425.85 330.99 423.11 333.17 420.13 333.25 412.77 330.69 408.57 328.47 402.69 328.79 401.16 331.06 398.43 335.46 397.76 337.86 395.65 338.57 393.7 339.27 391.39 341.99 387.71 343.77 386.66 347.51 386.09 351.22 386.29 358.46 384.34 361.71 385.95 362.88 389.23 361.37 393.37 360.21 395.03 360.78 397.47 360.02 399.8 361.51 403.82 363.25 404.35 364.95 406.64 365.32 408.36 369.92 411.02 370.24 414 373.09 416.52 375.64 421.11 375.15 424.01 375.51 425.83 378.44 429.24 380.5 430.79 381.33 434.39 386.51 439.53 382.36 439.54 374.56 444.14 372.49 444.85 370.6 446.43 370.71 448.07 366.98 453.37 363.32 455.17 358.78 456.04 357.91 457.5 348.41 461.74 347.36 467.21 343.33 469.97 Z" id="31250560"/>
<path d="M 218.52 499.19 218.2 498.07 220.44 496.28 222.14 490.7 223.75 487.87 226.94 486.16 226.38 483.4 227.83 480.11 222.15 475.7 216.09 474.2 217.53 471.98 221.27 467.96 223.61 463.68 227.26 460.37 232.3 457.63 236.82 459.04 238.93 460.58 243.06 464.63 244.03 464.56 250.44 469.34 253.21 470.07 258.73 470.33 263.7 472.33 265.81 472.36 272.56 469.31 273.6 471.15 271.9 473.85 270.83 477.05 267.96 478.41 266.87 482.15 267.24 484.61 269.58 488.02 271.39 491.84 267.73 493.67 266.24 495.76 266.61 500.7 263.99 500.23 260.49 501.78 259.63 503.89 257.62 505.23 257.06 507.95 254.4 509.04 251.42 508.46 250.13 507.19 250.3 504.79 243.35 504.69 242.47 506.36 242.22 506.43 238.86 507.42 236.41 506.43 229.13 509.79 227.64 509.42 224.26 505.71 222.22 505.74 220.8 501.17 218.52 499.19 Z" id="31250590"/>
<path d="M 270.61 561.56 268.59 560.55 267.16 563.89 264.37 564.82 261.7 568.13 259.66 568.82 254.18 567.58 249.93 567.15 248.45 564.53 245.68 564.69 243.94 566.37 242.04 570.24 238.29 572.31 236.37 574.59 235.92 576.47 232.18 578.06 229.72 579.67 224.62 579.88 221.67 579.6 220.92 576.93 219.14 575.65 216.5 576.36 215.15 577.83 216.32 584.63 217.81 587.08 219.4 588.38 224.78 594.33 227.04 595.84 229.75 600.49 230.05 602.76 228.69 606.2 227.38 604.26 224.44 602.27 222.92 603.26 220.82 606.34 219.5 612.61 217.72 617.48 216.22 619.23 216.07 622.58 212.59 626.5 212.6 628.97 209.9 628.9 207.88 632.16 204.84 634.12 202.5 634.19 201.06 639.6 200.73 643.66 196.43 646.17 194.09 649.08 194.75 653.17 193.01 655.71 188.16 656.43 186.42 658.16 183.05 660.39 181.41 660.23 178.67 661.62 177.25 663.04 173.65 661.81 171.37 657.84 171.38 654.15 169.98 651.25 167.03 649.17 165.43 646.21 164.78 639.34 164.03 638.31 166.53 633.03 166.62 630.53 167.71 627.98 167.68 622.21 165.27 617.25 162.45 613.78 162.11 612.08 153.99 605.97 151.4 602.87 153.14 598.76 151.85 596.93 151.62 595.09 149.13 590.82 148.43 586.19 148.6 583.54 149.71 580.53 148.61 578.77 147.21 578.58 145.08 576.22 145.44 571.85 143.69 568.3 144.11 566.18 142.78 563.76 143.13 561.47 140.37 559.37 139.66 557.75 139.32 550.29 139.91 548.63 139.35 547.21 141.02 543.09 139.99 540.59 141.35 538.18 140.75 532.68 141.56 531.07 143.34 531.01 147.04 529.15 149.7 529.46 152.23 528.11 155.3 527.46 162.92 522.9 164.66 520.85 166.46 521.31 169.24 520.83 173.22 521.24 176.84 519.46 178.79 517.12 179.18 515.55 182.59 514.71 185.24 512.71 188.09 509.54 189.57 506.94 191.53 506.29 193.07 504.62 197.48 504.81 200.23 505.9 203.13 505.75 203.8 503.65 206.41 502.73 209.31 503.44 212.83 502.13 214.15 502.58 216.27 500.08 218.52 499.19 220.8 501.17 222.22 505.74 224.26 505.71 227.64 509.42 229.13 509.79 236.41 506.43 238.86 507.42 242.22 506.43 242.47 506.36 243.35 504.69 250.3 504.79 250.13 507.19 251.42 508.46 254.4 509.04 257.06 507.95 257.62 505.23 259.63 503.89 260.49 501.78 263.99 500.23 266.61 500.7 266.24 495.76 267.73 493.67 271.39 491.84 272.9 491.96 278.65 489.23 281.33 488.66 281.71 488.24 284.21 482.27 286.51 481.36 287.85 479.43 287.99 480.72 286.95 486.19 287.76 487.43 287.79 490.93 286.95 492.32 286.96 495.35 288.87 499.89 288.82 501.97 287.14 506.31 283.87 517.79 281.8 521.43 280.61 525.53 271.05 528.6 270.36 528.93 271 529.68 270.46 538.67 273.39 541.36 275.85 545.03 276.91 548.65 276.65 552.47 274.74 557.33 272.09 560.59 270.61 561.56 Z" id="31250511"/>
</g>
</svg>