<?xml version="1.0"?>
<svg xmlns="http://www.w3.org/2000/svg" version="1.2" baseProfile="tiny" width="800" height="1249" viewBox="0 0 800 1249" stroke-linecap="round" stroke-linejoin="round">
<g id="dong">
<path d="M 150.97 827.97 152.99 832.39 155.49 835.78 157.61 835.93 158.87 838.25 164.38 841.31 165.06 845.06 166.47 846.37 167.78 849.98 167.13 852.12 168.82 853.33 169.31 855.22 171.2 856.87 171.72 858.3 174.15 860.33 176.12 861.32 176.64 865.22 179.28 865.67 186.02 869.06 186.66 868.97 191.84 872.58 195.37 872.93 198.11 873.84 203.24 874.36 204.78 875.56 206.12 877.69 208.33 878.83 211.19 881.56 213.19 881.02 212.48 886.5 211.47 890.49 211.38 894.95 210.92 896.93 214.08 897.98 211.04 901.59 210.45 903.74 210.71 908.19 209.31 912.44 205.96 917.1 204.39 918.8 199.87 921.84 195.57 923.91 190.14 928.11 188.79 933.34 188.03 934.55 188.72 938.47 187.91 941.3 186.63 943.73 184.85 945.82 180.89 949.34 177.74 958.1 175.44 960.3 170.19 961.91 169.18 963.77 168.22 967.64 169.68 970.74 168.69 972.36 165.78 972.43 163.24 971.12 159.04 974.01 154.73 974.99 153.71 976.48 152.18 982.46 150.86 982 148.42 988.08 147.59 988 146.51 985.44 144.64 984.7 132.92 983.02 127.94 983.17 123.52 984.38 115.47 984.33 112.94 984.71 109.26 985.96 107.22 987.58 104.13 987.23 102.4 985.61 100.6 986.33 94.73 987.68 93.72 993.55 91.71 993.51 89.19 992.7 86.12 992.37 84.9 996.46 83.81 998.27 81.64 1000 76.24 1001 74.36 1003.91 73.04 1004.66 70.61 1003.97 67.7 1002.51 64.85 1004.11 62.8 1000.56 62.87 998.49 64.22 997.55 64.66 994.77 61.11 991.3 59.7 988.93 60.46 985.75 61.05 977.41 60.34 975.24 59.17 968.49 58.23 965.95 58.06 963.83 56.93 961.74 57.21 960.08 56.59 957.8 57.4 955.48 52.1 949.85 51.73 948.33 49.91 947.93 48.17 946.68 48.55 943.24 47.89 941.63 46.34 940.95 46.6 937.16 45.09 934.78 44.72 932.65 45.35 930.14 44.05 927.62 45.65 926.5 49.09 921.3 48.7 919.44 49.98 918.04 50.23 915.09 52.88 914.91 55.45 913.23 58.53 913.39 61.72 911.5 65.92 911.4 68.29 912.06 76.23 908.96 76.46 902.95 77 900.48 78.8 898.42 82.88 894.75 82.85 893.56 84.3 891.44 87.54 889.23 90.57 888.8 94.36 890.88 98.67 889.99 101.14 889.05 102.69 889.61 104.85 887.78 107.48 884.87 109.69 885.87 115.04 884.72 115.65 883.75 121.92 883.58 124.03 884.72 126.3 884.95 129.1 882.76 130.63 879.02 131.36 876.19 130.65 874.08 131.98 868.66 134.55 863.67 134.62 861.61 133.88 860.08 135.59 855.37 137.4 851.53 138.37 850.61 139.77 846.67 141.47 844.5 143.84 842.69 143.38 841.04 144.89 838.42 144.61 837.17 145.8 835.62 146.03 833.07 147.28 828 150.97 827.97 Z" id="31270520"/>
<path d="M 231.42 1096.55 230.63 1098.22 229.06 1099.45 228.08 1101.91 228 1103.79 226.96 1106.07 224.44 1106.23 219.97 1109.75 219.48 1115.9 218.81 1117.57 216.82 1119.93 216.27 1121.86 214.62 1124.52 213.75 1129.52 211.73 1132.52 211.22 1135.19 208.32 1138.33 206.53 1145.14 206.97 1152.1 206.6 1153.31 207.53 1157.69 208.97 1162.27 208.91 1163.43 205.7 1165.5 204.5 1168.95 202.56 1170.81 204.02 1175.2 203.74 1178.07 204.7 1180.35 205.97 1181.31 206.79 1186.1 205.44 1188.92 205.08 1191.38 206.63 1196.03 205.33 1198.4 205.05 1201.96 201.86 1203.33 199.87 1206.51 196.66 1212.69 195.64 1215.49 191.19 1217.63 187.24 1217.45 188.28 1221.02 187.85 1223.13 189.1 1229.8 186.76 1232.32 184.41 1236.21 185.43 1237.46 188.06 1239.14 183.57 1242.3 181.54 1242.88 177 1241.97 172.55 1246.83 167.76 1248 154.65 1241.56 148.66 1236.16 143.19 1229.42 132.92 1222.11 129.48 1222.37 128.15 1223.86 123.96 1222.47 121.31 1219.39 121.72 1216.39 120.39 1211.83 120.47 1210.3 117.52 1207.86 115.81 1204.52 115.89 1202.77 113.47 1199.81 109.93 1201.8 105.52 1202.72 104.07 1203.76 102.39 1203.56 100.15 1205.26 98.65 1204.01 97.73 1201.72 95.03 1201.95 92.76 1202.92 90.62 1201.7 87.44 1201.95 86.07 1200.88 82.4 1200.9 82.4 1199.02 83.54 1196.86 83.52 1195.16 86.73 1194.98 89.1 1192.69 89.73 1191.06 89.12 1184.9 86.37 1180.54 86.01 1178.79 84.26 1177.9 82.35 1175.3 79.55 1173.67 78.09 1174.94 75.17 1173.87 73.97 1172.42 71.55 1172.63 69.46 1171.63 67.55 1172.3 65.59 1174.66 64.19 1175.33 60.65 1175.4 58.97 1173.16 60.24 1170.46 60.06 1168.61 58.38 1163.13 55.49 1161.64 53.39 1161.55 48.12 1159.37 47.66 1156.18 45.83 1155.14 43 1157.23 39.69 1154.45 37.33 1153.79 37.96 1150.12 37.31 1148.06 37.78 1145.56 41.44 1142.82 44.98 1139.59 45.78 1137.1 46.8 1136.27 47.47 1133.15 48.42 1132.4 51.62 1132.44 54.03 1129.91 54.13 1126.23 54.88 1124.71 54.53 1122.77 58.1 1121 62.22 1113.36 62.37 1111.85 64.12 1109.54 63.4 1104.67 63.7 1102.45 64.87 1098.99 63.65 1097.32 63.01 1094.01 63.6 1093.14 63.23 1088.86 62.56 1085.82 63.67 1084.17 63.23 1082.52 63.9 1079.95 65.19 1077.95 64.9 1076.6 66.15 1072.57 68.38 1071.43 69.89 1069.39 71.66 1066.01 73.58 1064.16 73.01 1062.35 73.26 1058.68 72.34 1057.43 72.38 1055.71 70.94 1054.37 70.85 1052.49 69.78 1050.8 70.08 1047.49 69.81 1043.8 70.45 1042.92 70.65 1039.68 70.1 1037.81 71.03 1034.89 71.23 1030.49 72.66 1028.93 74.06 1026.24 73.56 1022.61 72.81 1020.29 73.16 1018.23 70.71 1013.41 70.15 1011.51 65.3 1007.21 64.85 1004.11 67.7 1002.51 70.61 1003.97 73.04 1004.66 74.36 1003.91 76.24 1001 81.64 1000 83.81 998.27 84.9 996.46 86.12 992.37 89.19 992.7 91.71 993.51 93.72 993.55 94.73 987.68 100.6 986.33 102.4 985.61 104.13 987.23 107.22 987.58 109.26 985.96 112.94 984.71 115.47 984.33 123.52 984.38 127.94 983.17 132.92 983.02 144.64 984.7 146.51 985.44 147.59 988 148.42 988.08 150.86 982 152.18 982.46 150.74 986.7 149.43 989.05 148.71 992.63 149 1001.42 151.44 1002.97 153.1 1007.04 155.49 1006.67 157.83 1008.96 159.82 1009.77 162.97 1012.08 165.23 1015.79 164.84 1019.52 165.66 1022.34 165.98 1026.58 166.82 1029.95 168.54 1033.17 170.44 1035.53 170.37 1038.03 171.35 1038.99 173.45 1039.39 174.29 1040.53 173.37 1043.91 171.63 1045.04 171.2 1047.29 172.73 1051.77 172.29 1053.78 173.57 1055.68 174.9 1055.34 179.22 1056 180.97 1060.88 181.09 1062.07 183.44 1065.9 184.88 1066.24 186.48 1070.06 189.53 1074.14 192.14 1067.94 192.75 1064.99 195.69 1064.05 197.44 1066.34 196.71 1066.92 197.9 1070.46 197.57 1072.69 198.02 1075.91 199.56 1077.84 202.33 1079.82 205.29 1081.27 206.77 1081.11 208.79 1079.2 210.32 1079.12 211.94 1080.97 217.37 1083.25 221.44 1087.34 222.97 1091.79 226.43 1094.07 228.25 1094.47 231.42 1096.55 Z" id="31270110"/>
<path d="M 380.35 957.65 379.61 961.06 379.76 964.37 379.23 965.36 375.8 966.96 371.85 968.37 364.47 973.03 357.65 971.91 353.82 968.88 348.81 968.15 344.95 967.99 343.19 966.92 341.21 964.25 339.78 963.49 338.08 961.3 337.53 959.69 331.95 958.73 329.28 957.32 329.25 953.2 326.51 950.24 323.3 951.07 320.9 950.47 316.49 953.55 313.7 952.99 311.76 950.84 307.08 951.82 304.01 951.33 303.49 949.62 301.69 946.96 299.49 948.34 297.93 947.25 295.92 947.19 294.28 945.42 292.07 945.9 290.12 948.08 288.12 948.54 284.99 943.64 283.06 943.85 282.4 942.24 280.38 940.64 278.15 941.36 266.46 943.18 262.11 944.93 260.51 945.97 257.58 946.82 256.24 952.25 253.61 952.49 239.54 957.9 235.61 955.35 233.26 950.99 232.29 946.88 229.69 941.3 229.81 935.87 232.16 932.87 233.09 929.53 234.52 926.6 233.94 925.83 235.31 922.74 235.72 920.11 237.5 917.29 236.81 915.56 240.2 914.06 237.61 911.16 236.17 910.5 232.84 905.07 230.95 903.15 227.95 902.06 225.21 902.17 217.74 900.99 215.89 899.03 214.08 897.98 217.73 892.88 219.06 891.48 223.8 887.76 226.1 885.31 228.16 880.61 231.05 876.87 233.77 874.65 238.64 871.71 240.46 867.76 241.38 861.22 244.27 854.87 245.06 848.21 246.62 841.17 249.07 837.43 253.14 834.14 255.49 831.39 255.94 829.81 259.88 822.04 264.57 814.96 266.26 812.89 269.46 807.4 271.69 801.23 276.11 800.14 278.66 798.09 283.32 795.09 286.14 790.25 286.98 789.65 287.25 786.81 288.45 786.34 290.83 783.2 292.91 781.98 295.44 782.01 295.96 780.51 295.41 778.12 297.86 776.4 298.34 775.28 301.67 772.8 303.29 773.82 305.04 773.82 304.71 778.41 305.29 780.02 304.82 782.34 307.01 783.9 308.13 785.76 307.63 790.24 308.62 791.91 311.98 790.52 313.57 787.16 317.98 787.91 321.64 786.48 324.21 784.27 326.53 783.72 328.33 784.17 331.53 783.07 334.13 781.35 335.4 779.32 337.74 778.68 338.91 777.72 342.72 776.53 343.08 772.93 344.74 771.87 348.39 772.11 348.68 769.85 352.98 767.28 354.89 764.66 356.26 766.56 357.81 771.6 357.29 774.58 357.56 777.71 358.77 779.27 361.38 788 360.34 790.04 361.44 791.66 361.9 799.06 364.06 801.96 363.08 805.55 360.99 807.91 359.84 808.18 358.54 815.62 360.15 818.08 359.92 818.89 361.12 821.7 359.46 824.01 359.46 826.79 361.1 832.64 363.05 835.46 363.99 838.49 362.9 838.97 362.83 840.75 364.03 845.69 365.09 852.96 367.58 853.22 368.93 854.39 372.89 855.49 376.95 855.81 378.12 855.2 380.04 856.36 385.86 856.67 387.84 857.76 388 860.92 389.24 861.98 389.22 865.59 390.81 868.34 389.82 872.85 389.89 875.25 391.65 877 392.46 878.75 391.17 882.36 393.17 886.29 395.54 891.74 397.27 892.86 399.65 897.81 399.39 899.12 400.65 903.71 397.24 908.66 397.02 910.2 398.03 912.26 398.51 916.04 397.18 922.93 397.74 925.04 396.51 927.39 397.77 931.33 397.75 934.2 398.9 935.9 396.43 936.48 393.19 938.35 390.84 941.4 390.8 942.56 388.52 942.36 387.12 945.44 380.9 949.3 379.91 950.82 379.32 953.78 380.35 957.65 Z" id="31270310"/>
<path d="M 428.53 940.08 428.48 944.43 429.79 946.7 432.95 950.01 434.55 953.46 436.46 954.48 436.44 956.7 437.66 958.28 439.54 958.56 442.37 961.7 440.35 963.03 436.29 968.36 434.27 967.41 434.09 969.21 431.33 971.01 429.83 972.96 429.09 977.14 426.74 977.2 424.98 978.9 425.47 981.84 424.86 985.75 423.28 985.97 423.14 987.88 420.76 993.52 418.36 996.59 418.15 1000.04 418.73 1003.09 418.41 1006.58 414.6 1011.45 415.35 1013.04 415.8 1017.03 414.7 1021.21 416.71 1026.07 421.03 1028.31 421.66 1030.3 421.29 1034.7 420.65 1037.03 421.67 1039.03 423.48 1041.1 423.4 1043.38 425.71 1047.97 426.44 1051.28 424.43 1053.71 424.71 1057.22 425.33 1057.83 423.33 1064.03 424.24 1065.71 422.39 1067.8 423.42 1069.81 421.99 1072.56 422.17 1074.35 420.85 1076.78 420.95 1079.16 424 1080.53 424.75 1082.19 424.7 1084.2 422.52 1087.3 420.37 1089.4 420.12 1091.44 418.63 1094.65 417.29 1095.43 417.59 1097.06 415.54 1102.96 413.92 1103.91 411.99 1107.07 409.91 1108.43 409.69 1110.85 407.96 1112.71 407.32 1115.28 409.1 1121.77 412.58 1125.84 409.96 1129.86 408.4 1133.5 406.68 1136.06 404.7 1137.97 402.89 1138.47 401.39 1141.69 400.84 1147.52 402.02 1149.67 398.9 1154.39 395.88 1153.02 395.7 1156.46 392.32 1159.11 388.52 1163.48 386.15 1169.57 384.57 1175.91 386.92 1178.91 383.86 1182.75 383.35 1187.14 381.24 1186.04 376.17 1188.23 375.56 1187.87 368.94 1189.37 364.2 1193.24 359.39 1194.31 357.43 1195.99 353.61 1196.35 349.61 1199.02 347.22 1199.43 345.23 1200.55 342.94 1200.27 340.67 1202.71 336.16 1201.95 334.18 1200.68 331.86 1200.57 330.08 1207.22 325.62 1211.49 325.21 1213.94 321.95 1216.87 317.52 1218.21 316.68 1220.71 313.53 1223.41 312.56 1226.31 308.61 1226.62 307.26 1228.47 305.33 1229.26 301.05 1226.69 299.44 1224.55 301.46 1222.31 301.79 1220.63 299.57 1216.94 297.71 1215.87 294.91 1216.18 293.97 1215.39 288.77 1215.62 286.38 1211.8 283.73 1209.48 281.8 1208.41 279.99 1208.54 277.77 1206.51 278.05 1202.89 277.26 1197.55 278.13 1194.36 277.54 1191.26 278.59 1188.99 274.97 1184.38 271.89 1184.18 266.64 1190.14 267.23 1195.48 265.04 1199.89 260.43 1201.72 257.04 1197.57 253.6 1195.94 252.79 1196.15 246.04 1201.85 244.77 1202.38 241.46 1206.25 238.58 1204.19 236.8 1203.66 232.31 1198.9 228.32 1201.16 227.91 1204.01 225.34 1204.22 224.06 1202.36 222.31 1202.13 220.52 1202.94 219.07 1199.81 215.94 1198.26 213.85 1199.02 210.34 1198.56 205.05 1201.96 205.33 1198.4 206.63 1196.03 205.08 1191.38 205.44 1188.92 206.79 1186.1 205.97 1181.31 204.7 1180.35 203.74 1178.07 204.02 1175.2 202.56 1170.81 204.5 1168.95 205.7 1165.5 208.91 1163.43 208.97 1162.27 207.53 1157.69 206.6 1153.31 206.97 1152.1 206.53 1145.14 208.32 1138.33 211.22 1135.19 211.73 1132.52 213.75 1129.52 214.62 1124.52 216.27 1121.86 216.82 1119.93 218.81 1117.57 219.48 1115.9 219.97 1109.75 224.44 1106.23 226.96 1106.07 228 1103.79 228.08 1101.91 229.06 1099.45 230.63 1098.22 231.42 1096.55 234.14 1095.76 235 1093.77 236.41 1087.4 238.05 1083.5 241.51 1078.76 247.17 1076.65 248.33 1072.05 249.66 1070.98 250.47 1065.82 252.68 1064.71 252.19 1062.69 252.34 1059.98 253.78 1056.17 256.57 1055.29 257.91 1053.87 260.88 1055 265.58 1055.83 268.53 1053.7 270.5 1050.47 269.13 1049.08 268.58 1046.77 269.79 1043.17 269.81 1040.44 278.55 1041.37 279.86 1042.97 282.43 1043.67 283.89 1045.36 284.73 1048.54 284.16 1049.28 285.49 1052.65 286.92 1053.78 289.09 1054.25 291.65 1056.13 296.75 1057.67 297.97 1059.31 300.97 1065.26 302.09 1066 303.53 1068.54 305.65 1068.6 308.41 1069.64 310.09 1068.97 313.46 1069.23 318.02 1070.18 320.44 1069.45 322 1067.08 324.44 1065.75 327.05 1063.1 328.71 1059.67 330.7 1058.36 331.15 1056.57 333.07 1054.95 337.43 1053.56 339.49 1051.73 339.57 1049.97 342.85 1046.3 345.1 1045.35 347.8 1043.5 348.42 1038.82 347.58 1037.85 349.02 1034.99 348.9 1029.9 347.29 1026.7 348.65 1024.03 348.26 1020.18 349.74 1017.72 350.66 1012.61 347.95 1006.12 348.39 1003.68 350.08 999.71 349.89 998.47 351.52 997.12 351.76 995.37 353.29 992.99 353.86 990.32 353.87 987.1 358.67 983.38 360.79 983 361.86 980.77 364.42 978.72 363.87 976.39 364.47 973.03 371.85 968.37 375.8 966.96 379.23 965.36 379.76 964.37 379.61 961.06 380.35 957.65 385.65 955.85 387.2 953.59 391.14 953.13 395.74 955.5 396.84 956.65 399.57 955.8 400.72 956.15 402.78 954.96 404.66 954.94 406.48 953.71 409.87 953.3 413.56 953.87 415.06 955.03 416.6 953.99 416.87 951.44 419.75 948.66 420.59 945.42 422.26 944.08 422.38 942.87 424.01 940.38 426.16 939.5 428.53 940.08 Z" id="31270320"/>
<path d="M 364.47 973.03 363.87 976.39 364.42 978.72 361.86 980.77 360.79 983 358.67 983.38 353.87 987.1 353.86 990.32 353.29 992.99 351.76 995.37 351.52 997.12 349.89 998.47 350.08 999.71 348.39 1003.68 347.95 1006.12 350.66 1012.61 349.74 1017.72 348.26 1020.18 348.65 1024.03 347.29 1026.7 348.9 1029.9 349.02 1034.99 347.58 1037.85 348.42 1038.82 347.8 1043.5 345.1 1045.35 342.85 1046.3 339.57 1049.97 339.49 1051.73 337.43 1053.56 333.07 1054.95 331.15 1056.57 330.7 1058.36 328.71 1059.67 327.05 1063.1 324.44 1065.75 322 1067.08 320.44 1069.45 318.02 1070.18 313.46 1069.23 310.09 1068.97 308.41 1069.64 305.65 1068.6 303.53 1068.54 302.09 1066 300.97 1065.26 297.97 1059.31 296.75 1057.67 291.65 1056.13 289.09 1054.25 286.92 1053.78 285.49 1052.65 284.16 1049.28 284.73 1048.54 283.89 1045.36 282.43 1043.67 279.86 1042.97 278.55 1041.37 269.81 1040.44 269.79 1043.17 268.58 1046.77 269.13 1049.08 270.5 1050.47 268.53 1053.7 265.58 1055.83 260.88 1055 257.91 1053.87 256.57 1055.29 253.78 1056.17 252.34 1059.98 252.19 1062.69 252.68 1064.71 250.47 1065.82 249.66 1070.98 248.33 1072.05 247.17 1076.65 241.51 1078.76 238.05 1083.5 236.41 1087.4 235 1093.77 234.14 1095.76 231.42 1096.55 228.25 1094.47 226.43 1094.07 222.97 1091.79 221.44 1087.34 217.37 1083.25 211.94 1080.97 210.32 1079.12 208.79 1079.2 206.77 1081.11 205.29 1081.27 202.33 1079.82 199.56 1077.84 198.02 1075.91 197.57 1072.69 197.9 1070.46 196.71 1066.92 197.44 1066.34 195.69 1064.05 192.75 1064.99 192.14 1067.94 189.53 1074.14 186.48 1070.06 184.88 1066.24 183.44 1065.9 181.09 1062.07 180.97 1060.88 179.22 1056 174.9 1055.34 173.57 1055.68 172.29 1053.78 172.73 1051.77 171.2 1047.29 171.63 1045.04 173.37 1043.91 174.29 1040.53 173.45 1039.39 171.35 1038.99 170.37 1038.03 170.44 1035.53 168.54 1033.17 166.82 1029.95 165.98 1026.58 165.66 1022.34 164.84 1019.52 165.23 1015.79 162.97 1012.08 159.82 1009.77 157.83 1008.96 155.49 1006.67 153.1 1007.04 151.44 1002.97 149 1001.42 148.71 992.63 149.43 989.05 150.74 986.7 152.18 982.46 153.71 976.48 154.73 974.99 159.04 974.01 163.24 971.12 165.78 972.43 168.69 972.36 169.68 970.74 168.22 967.64 169.18 963.77 170.19 961.91 175.44 960.3 177.74 958.1 180.89 949.34 184.85 945.82 186.63 943.73 187.91 941.3 188.72 938.47 188.03 934.55 188.79 933.34 190.14 928.11 195.57 923.91 199.87 921.84 204.39 918.8 205.96 917.1 209.31 912.44 210.71 908.19 210.45 903.74 211.04 901.59 214.08 897.98 215.89 899.03 217.74 900.99 225.21 902.17 227.95 902.06 230.95 903.15 232.84 905.07 236.17 910.5 237.61 911.16 240.2 914.06 236.81 915.56 237.5 917.29 235.72 920.11 235.31 922.74 233.94 925.83 234.52 926.6 233.09 929.53 232.16 932.87 229.81 935.87 229.69 941.3 232.29 946.88 233.26 950.99 235.61 955.35 239.54 957.9 253.61 952.49 256.24 952.25 257.58 946.82 260.51 945.97 262.11 944.93 266.46 943.18 278.15 941.36 280.38 940.64 282.4 942.24 283.06 943.85 284.99 943.64 288.12 948.54 290.12 948.08 292.07 945.9 294.28 945.42 295.92 947.19 297.93 947.25 299.49 948.34 301.69 946.96 303.49 949.62 304.01 951.33 307.08 951.82 311.76 950.84 313.7 952.99 316.49 953.55 320.9 950.47 323.3 951.07 326.51 950.24 329.25 953.2 329.28 957.32 331.95 958.73 337.53 959.69 338.08 961.3 339.78 963.49 341.21 964.25 343.19 966.92 344.95 967.99 348.81 968.15 353.82 968.88 357.65 971.91 364.47 973.03 Z" id="31270330"/>
<path d="M 119.96 557.14 121 560.47 123.3 562.87 123.65 565.75 122.92 569.3 121.56 572.69 122.09 574.64 123.41 574.35 126.57 576.89 128.16 582.52 129.35 584.84 132.41 587.66 133.86 587.63 137.29 588.84 142.23 591.61 144.65 591.83 148.64 596.36 151.78 596.26 153.8 594.84 155.72 594.23 158.01 596.86 161.37 595.58 163.22 593.92 163.92 591.33 166 590 166.87 588.72 168.89 583.9 170.71 586.04 177.66 588.46 178.3 590.76 179.95 591.51 182.71 591.82 184.22 593.11 186.22 590.75 188.66 590.86 190.93 592.46 193.14 592.34 195.68 586.77 196.81 587.45 196.83 589.79 199.03 590.66 199.66 592.23 202.66 594.73 203.62 597.51 204.59 598.7 203.07 600.26 202.64 603.16 203.56 604.24 203.84 608.17 202.05 612.05 204.45 614.05 204.61 616.19 206.66 617.6 205.7 619.97 205.41 624.15 206.35 625.1 208.68 624.56 216 620.54 218.64 620.91 220.26 623.01 221.89 623.35 225.81 626.06 230.11 625.42 232.35 626.93 234.92 627.13 235.75 628.09 238.54 623.97 236.74 619.18 237.5 617.43 241.2 615.38 242.04 612.91 245.54 606.08 249.75 609.27 254.24 610.85 255.84 612.78 256.69 615.87 258.04 618.36 259.45 619.76 262.5 620.03 265.68 622.2 267.27 623.96 269.69 629.92 273.32 632.17 275.49 632.04 277.9 629.76 278.69 631.61 280.17 632.53 280.16 634.32 282.25 636.83 284.78 636.03 286.19 634.42 287.69 635.09 289.53 637.37 290.02 639.15 288.2 644.16 286.65 646.99 285.33 647.45 286.5 649.46 286.82 656.51 288.39 660.18 290.15 661.95 291.78 661.65 291.62 659.5 293.13 654.95 293.16 652.02 298.09 650.29 301.51 647.38 300.33 644.38 305.58 641.19 309.82 642.16 313.76 640.62 314.42 639.79 316.33 640.47 317.44 638.23 317.08 635.35 315.84 634.48 316.4 632.08 318.6 628.34 318.78 625.23 321.24 623.91 323.43 624.67 325.13 624.55 326.16 622.76 328.4 622.58 329.51 623.86 331.49 623.21 332.02 621.61 333.8 621.02 338.47 620.76 341.91 619.66 343.33 618.61 344.45 616.67 347.23 615.03 347.5 617.54 348.6 618.6 349.33 622.83 351.83 623.29 353.9 621.65 356.33 624.36 360.94 627.33 364.03 628.41 369.83 629.58 376.39 629.29 381.47 630.29 382.78 631.63 382.81 634.02 381.06 635.53 381.26 641.88 380.71 646.45 381.09 648.06 380.41 649.84 377.54 652.71 373.19 660.93 368.39 662.58 366.8 663.94 365.35 663.49 364.57 666.14 365.28 669.29 362.66 675.57 360.36 676.99 359.98 678.75 360.78 680.25 361.1 683.06 362.14 684.48 361.42 685.62 360.75 689.16 359.66 691.43 359.52 693.65 356.57 696.72 356.95 698.7 355.42 701.59 353.07 704.18 351.72 704.69 351.34 706.45 351.96 707.76 350.41 709.25 349.07 711.74 350.79 714.25 351.39 716.42 352.9 718.09 354.52 721.27 354.49 724.8 355.11 725.79 354.49 731.36 355.25 732.03 355.02 735.84 356.48 740.05 357.4 741.4 358.27 745.03 357.69 750.54 355.82 752.89 356.08 755.08 354.78 757.85 355.32 759.47 354.39 761.91 354.89 764.66 352.98 767.28 348.68 769.85 348.39 772.11 344.74 771.87 343.08 772.93 342.72 776.53 338.91 777.72 337.74 778.68 335.4 779.32 334.13 781.35 331.53 783.07 328.33 784.17 326.53 783.72 324.21 784.27 321.64 786.48 317.98 787.91 313.57 787.16 311.98 790.52 308.62 791.91 307.63 790.24 308.13 785.76 307.01 783.9 304.82 782.34 305.29 780.02 304.71 778.41 305.04 773.82 303.29 773.82 301.67 772.8 298.34 775.28 297.86 776.4 295.41 778.12 295.96 780.51 295.44 782.01 292.91 781.98 290.83 783.2 288.45 786.34 287.25 786.81 286.98 789.65 286.14 790.25 283.32 795.09 278.66 798.09 276.11 800.14 271.69 801.23 269.46 807.4 266.2 806.52 262.66 806.47 258.73 804.25 257.22 802.85 254.57 803 251.42 801.49 249.47 802.78 248.41 802.04 246.5 802.82 244.96 802.27 240.15 801.68 235.32 801.95 231.69 799.21 229.92 798.5 227.9 799.05 225.47 797.69 224.52 795.38 222.57 792.32 220.05 792.53 219.24 790.88 216.68 789.98 215.37 787.71 212.07 785.87 209.6 783.36 207.2 783.01 202.54 783.6 198.67 782.6 194.57 780.27 190.39 782.34 187.14 782.91 185.98 785.74 184.58 786.63 183.46 789.2 179.77 789.95 176.5 793.05 175.66 796.64 174.28 798.65 171.93 799.54 169.02 802.05 164.77 803.74 163.09 803.91 162.33 807.44 162.63 810.39 159.65 811.59 157.3 816.51 156.71 819.14 153.83 823.65 154.4 825.8 150.97 827.97 147.28 828 144.96 827.42 137.5 823.14 134.44 820.85 135.72 817.62 136.2 814.54 135.46 811.08 131.11 808.33 128.49 807.59 128.36 805.33 129.25 801.74 130.24 800.67 131.49 796.44 128.74 792.32 127.49 789.29 128.51 785.04 125.86 781.63 122.4 779.97 117.69 779.16 113.94 777.1 110 776.08 105.95 778.22 102.56 778.42 101.9 777.53 101.39 774.47 99.81 773.56 98.33 770.48 92.27 769.46 91.46 768.57 88.1 768.29 87.13 769.64 83.21 770.68 77.37 769.92 74.6 768.42 72.18 768.98 69.98 766.85 69.79 763.99 70.22 761.31 69.63 757.83 69.68 755.18 66.12 751.51 65.53 748.28 64.39 745.25 61.71 742.17 60.82 737.49 59.96 736.27 60.29 733.18 58.76 732.55 51.27 725.9 51.63 722.72 50.43 722.14 50.66 720.2 49.97 717.94 46.79 714.3 46.38 712.54 44.75 711.27 44.96 709.43 43.43 707.65 43.78 705.64 43.17 703.78 37.24 701.29 34.26 701.11 30.75 698.57 28.61 698.59 23.08 697.57 19.18 695.18 18.06 693.09 16.33 692.66 13.74 690.68 15.47 689.38 16.64 683.9 15.95 680.06 14.6 677.41 15.8 674.69 19.16 673.08 21.27 670.16 22.29 666.16 21.22 664.89 20.2 660.94 17.96 659.24 14.55 657.73 10.83 654.55 10.14 652.44 6.83 649.56 6.86 646.66 9.05 641.85 9.79 638.74 8.54 637.01 9.02 632.3 10.86 626.96 11.8 626.22 9.74 624.03 8.74 618.94 6.86 617.13 6.3 615.48 4.25 613.35 4.25 611.17 6.82 606.96 7.62 604.96 6.4 600.44 6.88 597.83 4.75 594.75 2.96 587.24 1.88 585 1 580.41 2.52 579.1 3.18 576.6 5.58 576.71 6.84 575.69 9.87 576.1 11.46 575.42 15.01 575.31 16.99 574.68 18.32 572.64 18.32 571.39 23.45 569.08 25.65 565.5 25.43 562.31 30.3 563.57 33.62 563 35.09 565.04 39.92 564.01 43.9 565.55 45.26 564.96 49.4 564.55 50.98 564.89 52.98 567.39 54.35 571.92 56.95 571.99 58.32 573.08 59.95 573.04 62.76 574.88 62.55 575.87 64.25 578.84 64.13 581.78 65.83 584.15 67.27 588.83 69.2 592.61 73.82 589.63 74.34 588.86 77.12 588.18 78.49 586.97 79.4 584.32 81.05 582.73 84.72 581.58 87.35 580.33 89.4 578.56 90.5 578.45 92.59 576.74 92.72 575.04 94.84 572.29 95.14 570.04 94.5 568.54 96.54 566.75 100.34 564.63 101.92 562.67 104.42 560.97 110.18 558.27 114.55 555.07 117.33 556.52 119.96 557.14 Z" id="31270340"/>
<path d="M 119.96 557.14 122.1 555.33 124.52 554.4 125.09 550.69 126.61 548.86 127.34 545.55 128.94 543.96 129.66 541.96 126.65 537.66 125.51 534.44 125.6 530.12 126.85 528.18 127.68 524.97 128.81 523.38 129.21 518.76 129.05 514.77 129.56 513.13 128.17 507.74 128.4 504.14 126.75 499.22 127 495.95 128.06 492.12 129.4 490.17 127.05 490.03 122.89 486.61 119.78 482.35 113.7 475.97 112 473.6 109.73 468.01 109.58 465.08 110.14 461.92 108.22 456.5 105.52 453.88 102.53 449.39 102.19 447.02 102.45 444.47 106.67 437.32 107.78 431.41 107.44 425.43 105.69 425.6 104.16 424.39 99.33 422.83 97.51 423.14 91.74 426.62 91.55 425.22 87.02 426.99 84.61 427.52 81.18 427.27 77.47 424.49 75.46 424.62 70.99 423.25 65.89 423.72 61.95 423.27 57.36 422.15 56.38 420.68 57.48 419.06 63.09 412.83 64.05 410.02 63.36 408.48 59.98 405.22 52.89 395.54 50.2 388.67 52.45 383.32 55.13 372.8 58.73 362.76 64.26 359.71 68.93 358.91 76.79 360.39 79.9 363.32 83.02 364.83 86.79 362.77 89.32 360.92 91.43 358.74 95.92 352.35 100.1 348.84 101.65 348.14 105.33 348.06 108.93 345.29 109.14 340.94 108.71 337.79 109.53 334.87 116.81 327.27 120.48 326.62 122.89 328.3 127.04 333.97 129.69 336.64 129.98 339.54 128.72 346.76 126.71 355.63 127.17 361.46 129.99 367.9 130.83 368.78 133.78 369.67 139.39 366.81 143.63 361.88 146.88 357.53 150.46 354.05 154.4 353.92 158.89 354.81 162.84 356.36 166.68 358.52 169.35 359.04 171.9 358.83 174.99 357.03 176.13 354.16 179.01 350 181.8 347.72 186.4 345.56 189.94 345.49 194.02 346.14 199.17 348.09 210.28 352.66 213.57 352.48 218.75 350.77 222.04 350.49 223.52 350.37 227.63 353.2 231.19 357.72 239.55 363.95 243.89 365.51 245.78 364.97 247.43 362.6 246.24 356.81 243.4 353.15 243.39 350.45 245.89 346.94 251.42 344.37 256.66 343.37 259.11 340.53 263.83 341.15 264.22 340.53 271.38 339.36 272.43 339.66 275.83 337.71 279.97 336.21 285.76 338.63 286.97 338.07 288.18 339.7 290.04 340.37 289.73 342.61 287.64 345.19 286.07 349.11 287.3 351.76 287.48 354.16 286.86 356.83 285.97 357.75 286.68 360.82 285.54 361.48 285.22 363.46 283.91 364.4 284.75 368.89 284.12 371.06 282.57 372.02 282.42 373.93 284.15 374.76 288.02 375.51 290.39 375.43 293.77 374.57 295.38 376.33 296.66 375.55 299.69 375.12 301.2 374.34 303.91 374.27 306.36 372.14 307.06 369.9 305.8 365.74 307.2 365.5 309.93 362.97 312.16 363.85 314.79 366.27 315.66 368.07 320.21 369.67 322.19 372.49 322.89 374.86 324.58 377.13 326.05 380.47 328.65 380.04 330.54 380.95 332.03 384.66 334.41 389.01 335.81 389.89 336.99 392.47 336.79 394.44 335.2 396.03 331.47 396.26 329.84 395.04 327.66 395.01 324.91 399.06 321.91 400.9 319.25 401.21 315.76 407.7 315.84 409.71 314.72 410.5 310.8 410.77 305.79 411.96 300.23 414.35 295.88 414.73 291.26 416.76 285.33 414.39 280.84 419.55 278.96 420.59 277.81 425 275.44 426.18 276.41 429.56 275.75 432.77 273.68 434.28 272.35 437.39 271.89 440.33 270.8 441.77 264.92 440.25 263.74 442.68 263.62 445.95 262.24 450.15 262.08 453.1 261.44 455.52 262.07 459.03 264.25 460.12 264.66 462.38 266.24 465 265.11 466.42 263.59 465.74 260.52 467.19 259.12 469.7 257.32 470.49 255.32 472.58 255.7 473.94 254.95 476.42 256.75 477.74 256.21 480.06 252.52 483.27 251.16 483.24 250.56 485.61 247.64 484.98 246.05 488.57 246.52 492.61 239.68 491.97 239.89 494.08 242.18 495.7 245.91 500.68 247.51 501.64 249.66 504.38 249.39 506.09 252.3 506.12 252.83 508.42 254.2 511.18 256.75 512.42 258.65 511.93 261.13 512.53 261.69 513.54 262.03 517.42 259.79 519.17 259.24 521.34 259.72 522.44 258.05 526.2 257.84 528.79 255.9 529.48 254.63 527.66 252.78 527.68 253.58 530.06 253.2 532.31 251.44 535.26 248.99 536.24 248.22 537.74 249.76 539.78 248.88 541.36 250.12 545.11 251.79 545.14 254.16 541.18 255.24 540.97 259.48 542.48 259.36 544.51 259.86 548.51 261.5 552.82 264.49 552.68 266.98 550.63 267.19 548.84 268.24 548.24 270.35 548.72 271.09 547.59 273.41 546.97 274.75 549.56 278.86 551.05 281.83 550.72 283.52 552.95 284.72 552.47 285.11 554.74 283.9 557.51 284.68 560.28 284.09 561.41 284.4 564.16 286.39 565.36 287.38 568.89 288.89 571.28 290.69 576.31 286.52 580.31 288.03 583.11 287.82 585.5 290.55 591.6 290.6 593.32 293.97 593.9 294.74 595.27 297.08 594.9 298.2 597.21 296.99 599.4 299.75 603.43 297.45 609.27 296.84 612.18 297.86 612.53 297.92 615.27 300.61 616.14 301.97 617.65 305.71 618.3 309.57 622.29 310.77 625.63 312.52 625.58 316.38 623.67 318.63 623.99 318.78 625.23 318.6 628.34 316.4 632.08 315.84 634.48 317.08 635.35 317.44 638.23 316.33 640.47 314.42 639.79 313.76 640.62 309.82 642.16 305.58 641.19 300.33 644.38 301.51 647.38 298.09 650.29 293.16 652.02 293.13 654.95 291.62 659.5 291.78 661.65 290.15 661.95 288.39 660.18 286.82 656.51 286.5 649.46 285.33 647.45 286.65 646.99 288.2 644.16 290.02 639.15 289.53 637.37 287.69 635.09 286.19 634.42 284.78 636.03 282.25 636.83 280.16 634.32 280.17 632.53 278.69 631.61 277.9 629.76 275.49 632.04 273.32 632.17 269.69 629.92 267.27 623.96 265.68 622.2 262.5 620.03 259.45 619.76 258.04 618.36 256.69 615.87 255.84 612.78 254.24 610.85 249.75 609.27 245.54 606.08 242.04 612.91 241.2 615.38 237.5 617.43 236.74 619.18 238.54 623.97 235.75 628.09 234.92 627.13 232.35 626.93 230.11 625.42 225.81 626.06 221.89 623.35 220.26 623.01 218.64 620.91 216 620.54 208.68 624.56 206.35 625.1 205.41 624.15 205.7 619.97 206.66 617.6 204.61 616.19 204.45 614.05 202.05 612.05 203.84 608.17 203.56 604.24 202.64 603.16 203.07 600.26 204.59 598.7 203.62 597.51 202.66 594.73 199.66 592.23 199.03 590.66 196.83 589.79 196.81 587.45 195.68 586.77 193.14 592.34 190.93 592.46 188.66 590.86 186.22 590.75 184.22 593.11 182.71 591.82 179.95 591.51 178.3 590.76 177.66 588.46 170.71 586.04 168.89 583.9 166.87 588.72 166 590 163.92 591.33 163.22 593.92 161.37 595.58 158.01 596.86 155.72 594.23 153.8 594.84 151.78 596.26 148.64 596.36 144.65 591.83 142.23 591.61 137.29 588.84 133.86 587.63 132.41 587.66 129.35 584.84 128.16 582.52 126.57 576.89 123.41 574.35 122.09 574.64 121.56 572.69 122.92 569.3 123.65 565.75 123.3 562.87 121 560.47 119.96 557.14 Z" id="31270350"/>
<path d="M 335.2 396.03 336.44 401.51 338.74 407.75 339.9 409.95 342.54 410.84 343.33 412.19 346.29 413.16 348.67 414.78 349.04 416.48 350.99 417.14 353.61 416.96 355.87 415.71 359.73 414.52 365.16 414.87 370.55 416.73 373.84 417 377.8 419.72 379.14 418.95 383.58 419.75 387.27 422.44 390.93 423.77 391.73 424.75 394.2 424.63 397.22 423.47 400 425.81 405.35 426.06 407.37 426.44 410.26 428.46 413.61 431.88 417.36 431.77 419.11 431.03 423.79 433.08 427.12 433.34 428.15 431.92 431.19 431.3 433.08 431.49 436.96 428.02 437.8 423.43 444.92 424.87 450.12 428.59 454.6 429.42 459.15 429.57 461.84 428.95 465.77 425.3 468.81 425.2 471.57 426.64 475.03 426.65 477.38 425.94 481.72 426.44 484.74 426.12 486.75 427.92 486.72 429.89 488.08 431.38 487.86 433.18 489.02 436.59 489.17 439.37 490.45 444.62 491.48 446.08 485.43 446.37 482.38 447.73 481.15 448.79 478.21 453.98 474.16 454.03 466.81 456.15 459.26 459.28 458.71 463.06 454.93 465.21 453.82 467.01 451.78 468.72 447.68 469.61 446.96 472.53 445.28 472.51 445.04 474.01 446.41 476.64 438 477.86 433.74 481.21 429.61 479.96 426.18 482.73 424.31 482.45 422.87 483.22 418.94 487.44 416.59 488.81 417.4 494.81 415.6 499.45 416.09 502.45 413.34 506.59 413.27 509.98 414.78 511.56 418.89 514.57 422.02 518.03 422.68 519.65 426.49 522.52 427.89 525.51 426.98 529.43 428.44 531.35 432.79 534.77 435.16 537.83 435.95 540.52 437.91 543.47 437.81 545.41 438.88 547.82 439.4 551.85 441.39 554.79 443.68 556.75 444.9 559.45 447.54 559.99 451.05 561.87 454.54 563.16 456.1 563.26 461.5 569.48 461.51 570.68 462.99 572.07 464.71 575.89 467.82 576.95 470.34 580.34 471.88 580.81 472.97 582.91 473.03 585.21 474.29 587.72 474.52 591.09 473.09 594.89 473.97 596.51 472.86 600.28 470.86 603.25 470.81 604.77 472.13 605.9 475.16 610.23 474.79 612.43 472.72 615.71 471.81 619.36 469.8 620.62 465.49 624.91 463.69 625.46 463.55 626.67 460.39 631.12 458.62 632.24 455.28 633.09 454.4 634.82 452.14 636.28 450.49 636.58 444.07 640.06 443.74 642.58 441.11 646.61 439.67 647.54 439.66 650.01 438.71 652.54 437.63 653.43 435.28 652.59 432.25 653.93 429.61 654.41 426.99 657.18 425.57 656.7 424.37 655.17 422.71 654.95 420.63 653.75 419.43 654.19 413.07 650.57 408.95 652.12 408.44 655.09 407.53 657.34 402.83 658.79 400.52 661.12 399 661.46 396.97 663.3 392.22 664.57 389.35 667.12 385.09 668.15 383.77 666.84 381.02 665.96 380.22 663.78 375.77 660.94 373.59 660.89 373.19 660.93 377.54 652.71 380.41 649.84 381.09 648.06 380.71 646.45 381.26 641.88 381.06 635.53 382.81 634.02 382.78 631.63 381.47 630.29 376.39 629.29 369.83 629.58 364.03 628.41 360.94 627.33 356.33 624.36 353.9 621.65 351.83 623.29 349.33 622.83 348.6 618.6 347.5 617.54 347.23 615.03 344.45 616.67 343.33 618.61 341.91 619.66 338.47 620.76 333.8 621.02 332.02 621.61 331.49 623.21 329.51 623.86 328.4 622.58 326.16 622.76 325.13 624.55 323.43 624.67 321.24 623.91 318.78 625.23 318.63 623.99 316.38 623.67 312.52 625.58 310.77 625.63 309.57 622.29 305.71 618.3 301.97 617.65 300.61 616.14 297.92 615.27 297.86 612.53 296.84 612.18 297.45 609.27 299.75 603.43 296.99 599.4 298.2 597.21 297.08 594.9 294.74 595.27 293.97 593.9 290.6 593.32 290.55 591.6 287.82 585.5 288.03 583.11 286.52 580.31 290.69 576.31 288.89 571.28 287.38 568.89 286.39 565.36 284.4 564.16 284.09 561.41 284.68 560.28 283.9 557.51 285.11 554.74 284.72 552.47 283.52 552.95 281.83 550.72 278.86 551.05 274.75 549.56 273.41 546.97 271.09 547.59 270.35 548.72 268.24 548.24 267.19 548.84 266.98 550.63 264.49 552.68 261.5 552.82 259.86 548.51 259.36 544.51 259.48 542.48 255.24 540.97 254.16 541.18 251.79 545.14 250.12 545.11 248.88 541.36 249.76 539.78 248.22 537.74 248.99 536.24 251.44 535.26 253.2 532.31 253.58 530.06 252.78 527.68 254.63 527.66 255.9 529.48 257.84 528.79 258.05 526.2 259.72 522.44 259.24 521.34 259.79 519.17 262.03 517.42 261.69 513.54 261.13 512.53 258.65 511.93 256.75 512.42 254.2 511.18 252.83 508.42 252.3 506.12 249.39 506.09 249.66 504.38 247.51 501.64 245.91 500.68 242.18 495.7 239.89 494.08 239.68 491.97 246.52 492.61 246.05 488.57 247.64 484.98 250.56 485.61 251.16 483.24 252.52 483.27 256.21 480.06 256.75 477.74 254.95 476.42 255.7 473.94 255.32 472.58 257.32 470.49 259.12 469.7 260.52 467.19 263.59 465.74 265.11 466.42 266.24 465 264.66 462.38 264.25 460.12 262.07 459.03 261.44 455.52 262.08 453.1 262.24 450.15 263.62 445.95 263.74 442.68 264.92 440.25 270.8 441.77 271.89 440.33 272.35 437.39 273.68 434.28 275.75 432.77 276.41 429.56 275.44 426.18 277.81 425 278.96 420.59 280.84 419.55 285.33 414.39 291.26 416.76 295.88 414.73 300.23 414.35 305.79 411.96 310.8 410.77 314.72 410.5 315.84 409.71 315.76 407.7 319.25 401.21 321.91 400.9 324.91 399.06 327.66 395.01 329.84 395.04 331.47 396.26 335.2 396.03 Z" id="31270360"/>
<path d="M 491.48 446.08 492.67 446.93 494.27 450.42 494.34 452.01 496.31 457.04 494.79 461.18 493.57 467.4 489.73 470.63 490.82 473.92 490.72 480.97 488.87 486.64 492.04 491.09 495.89 492.92 498.28 493.35 499.28 494.96 499.22 498.51 500.28 500.21 500.43 502.57 502.15 504.38 501.45 507.39 501.82 508.35 500.42 511.27 499.86 514.37 497.81 518.59 498.31 519.91 497.83 522.3 495.77 523.86 491.11 524.34 489.85 526.38 494.84 531.65 498.57 530.82 500.43 529.39 504.98 524.75 510.51 521.85 521.13 521.07 527.63 524.18 529.7 525.51 531.96 528.04 535.42 529.57 540.06 528.62 543.8 523.91 549.23 522.74 553.84 517.91 559.56 515.98 561.34 514.41 562.44 512.47 564.57 510.52 569.01 510.94 570.39 512.25 571.4 514.9 575.7 515.69 578.56 515.33 581.03 517.64 582.04 521.37 582.92 521.84 587.86 519.58 591.44 519.52 594.15 518.9 597.73 519.89 597.41 522.03 599.04 522.95 599.3 526.88 598.79 529.94 599.12 531.72 600.55 532.7 602.25 531.68 605.17 533.04 607.17 533.43 610.4 535.21 611.07 537.47 612.93 538.13 615.97 540.81 617.17 540.54 618.43 542.3 618.76 544.44 620.63 546.74 622.46 545.98 627.84 549.93 630.34 550.86 632.16 554.47 636.07 555.55 640.19 557.67 641.59 559.74 645.67 560.35 646.85 564.88 646.33 568.93 645.64 570.65 647.43 572.11 651.38 573.21 652.7 575.92 655.33 577.36 657.94 577.75 660.44 580 661.14 581.42 661.73 582.66 659.61 586.81 659.75 592.13 660.15 596.36 661.18 600.86 660.55 602.14 657.74 604.68 657.16 607.29 655.47 609.63 655.03 613.44 655.63 616.63 654.06 619.59 650.98 623.54 649.88 626 648.27 626.45 646.32 628.36 646.45 630.01 644.14 632.98 643.35 635.86 643.96 637.39 643.1 640.03 643.55 642.45 644.89 644.22 645.01 645.66 648.9 647.57 649.31 649.64 649.08 652.49 646.27 656.9 645.21 659.87 643.94 661.39 643.1 663.83 645.42 666.51 646.23 668.6 647.81 670.09 648.36 672.19 652.47 671.37 654.91 671.98 656.88 673.35 657.63 674.9 662.29 681.43 661.23 684.97 661.67 687.34 660.37 690 660.97 691.8 657.06 693.33 653.61 700.15 649.28 704.59 646 704.94 642.44 708.45 639.73 710.2 635.56 715.11 635.03 716.73 632.96 719.42 632.79 720.83 627.39 728.96 621.8 732.19 619.33 732.59 619.6 738.08 618.97 740.1 610.98 742.63 609.95 743.74 598.29 753.19 598.44 754.65 595.2 754.63 592.16 752.61 588.81 754.32 586.66 754.79 582.97 753.37 581.08 750.13 579.82 749.04 579.77 744.92 577.51 743 575.43 743.1 574.24 740.66 572.36 739.77 570.23 740.6 568.2 742.76 564.27 745.2 562.91 745.53 560.34 747.93 557.63 749.21 555.14 749.2 550.06 744.61 548.98 744.43 545.01 741.35 541.95 740.83 539.5 742.28 538.86 744.35 539.04 748.07 538 750.32 536 752.56 533.92 751.93 531.62 752.52 529.73 752.02 526.68 750.3 524.31 752.02 521.73 752.95 519.92 752.55 516.62 753.74 515.3 752.7 511.48 751.71 508.37 751.29 503.22 752.5 502.11 751.72 500.54 752.67 498.21 752.01 496.44 753.36 493.7 759.64 487.58 759.87 485.45 759.71 482.35 761.33 478.82 759.13 477.16 759.5 475.1 758.56 474.25 757.13 472.23 757.01 470.3 755.9 468.44 756.54 466.38 758.54 463.99 758.99 462.58 763.8 460.73 771.21 455.98 770.94 454.43 768.62 451.65 768.86 450.85 770.44 448.22 771.32 447.18 770.19 442.46 771.5 440.84 768.98 435.37 767.03 433.5 767.62 431.55 764.54 429.9 762.89 425.85 762.16 423.37 757.91 421.48 757.64 419.49 756.12 420.24 751.67 419.67 749.78 418.43 749.03 415.28 751.02 410.16 751.53 409.58 749.14 409.57 745.9 407.69 743.41 407.86 739.34 406.64 736.82 404.99 735.3 400.3 733.88 398.7 732.54 398.74 729.16 396.78 724.98 394.16 720.94 393.2 717.36 392.42 712.79 391.55 710.34 387.64 704.33 386.62 700.76 386.59 696.85 386.96 694.69 385.52 683.83 381.29 682.71 379.59 681.38 379.41 678.34 375.85 669.8 373.43 667.89 372.84 666.05 373.59 660.89 375.77 660.94 380.22 663.78 381.02 665.96 383.77 666.84 385.09 668.15 389.35 667.12 392.22 664.57 396.97 663.3 399 661.46 400.52 661.12 402.83 658.79 407.53 657.34 408.44 655.09 408.95 652.12 413.07 650.57 419.43 654.19 420.63 653.75 422.71 654.95 424.37 655.17 425.57 656.7 426.99 657.18 429.61 654.41 432.25 653.93 435.28 652.59 437.63 653.43 438.71 652.54 439.66 650.01 439.67 647.54 441.11 646.61 443.74 642.58 444.07 640.06 450.49 636.58 452.14 636.28 454.4 634.82 455.28 633.09 458.62 632.24 460.39 631.12 463.55 626.67 463.69 625.46 465.49 624.91 469.8 620.62 471.81 619.36 472.72 615.71 474.79 612.43 475.16 610.23 472.13 605.9 470.81 604.77 470.86 603.25 472.86 600.28 473.97 596.51 473.09 594.89 474.52 591.09 474.29 587.72 473.03 585.21 472.97 582.91 471.88 580.81 470.34 580.34 467.82 576.95 464.71 575.89 462.99 572.07 461.51 570.68 461.5 569.48 456.1 563.26 454.54 563.16 451.05 561.87 447.54 559.99 444.9 559.45 443.68 556.75 441.39 554.79 439.4 551.85 438.88 547.82 437.81 545.41 437.91 543.47 435.95 540.52 435.16 537.83 432.79 534.77 428.44 531.35 426.98 529.43 427.89 525.51 426.49 522.52 422.68 519.65 422.02 518.03 418.89 514.57 414.78 511.56 413.27 509.98 413.34 506.59 416.09 502.45 415.6 499.45 417.4 494.81 416.59 488.81 418.94 487.44 422.87 483.22 424.31 482.45 426.18 482.73 429.61 479.96 433.74 481.21 438 477.86 446.41 476.64 445.04 474.01 445.28 472.51 446.96 472.53 447.68 469.61 451.78 468.72 453.82 467.01 454.93 465.21 458.71 463.06 459.26 459.28 466.81 456.15 474.16 454.03 478.21 453.98 481.15 448.79 482.38 447.73 485.43 446.37 491.48 446.08 Z" id="31270370"/>
<path d="M 761.58 205.08 762.47 205.09 765.52 210.59 767 215.96 770.07 218.42 772.51 218.91 777.17 218.81 781.69 220.93 783.82 223.44 785.43 227.14 785.88 229.2 786.41 238.46 787.96 243.07 793.28 252.94 794.51 255.49 794.63 263.33 795.61 265.28 796.16 268.99 795.36 272.75 794.52 279.11 793.82 282.3 795.01 285.43 797.52 289.12 798.01 291.73 797.82 296.6 799 302.77 798.65 307.47 797.49 311.53 793.28 319.62 793.5 321.66 796.56 324.46 797.66 326.33 798.39 329.66 797.81 337.23 798.43 340.91 796.85 347.93 797.04 350.11 794.17 357.6 795.08 359.71 793.86 362.07 793.51 366.39 793.75 369.11 795.01 371.88 796.77 373.79 798.57 377.68 796.98 384.53 797.53 386.18 795.65 389.54 794.39 393.38 790.49 397.24 789.09 400.49 786.79 402.29 787.5 404.04 785.57 407.34 784.02 407.37 782.29 409.89 781.03 414.41 775.27 419.4 774.12 422.61 764.79 431 762.32 432.24 759.24 433.05 757.57 434.7 754.72 435.74 750.58 435.75 749.54 436.59 749.77 439.71 748.41 443.82 752.78 447.53 755.17 453.55 754.23 458.35 751.05 463.23 751.78 466.32 748.98 469.82 747.09 473.89 744.19 476.45 742.9 476.73 741.38 480.61 738.95 481.86 737.05 487.44 735.96 489.64 735.48 492.31 736.04 493.3 735.96 496.21 736.61 497.44 732.91 500.56 732.61 503.63 730.97 507.88 727.81 511.49 727.16 515.32 728.23 524.33 726.98 527.88 725.98 528.86 725.3 531.57 724.14 533.19 723.54 537.39 720.53 539.56 717.4 540.21 714.78 542.34 711.48 548.02 711.48 549.32 709.68 553.78 707.12 557.17 706.63 558.61 700.66 557.84 695.04 561.03 691.31 561.95 687.68 564.16 684.27 566.84 681.53 570.9 679.84 571.09 675.6 573.5 673.96 577.06 672.09 579.88 670.42 579.48 667.26 576.84 664.61 577.87 661.14 581.42 660.44 580 657.94 577.75 655.33 577.36 652.7 575.92 651.38 573.21 647.43 572.11 645.64 570.65 646.33 568.93 646.85 564.88 645.67 560.35 641.59 559.74 640.19 557.67 636.07 555.55 632.16 554.47 630.34 550.86 627.84 549.93 622.46 545.98 620.63 546.74 618.76 544.44 618.43 542.3 617.17 540.54 615.97 540.81 612.93 538.13 611.07 537.47 610.4 535.21 607.17 533.43 605.17 533.04 602.25 531.68 600.55 532.7 599.12 531.72 598.79 529.94 599.3 526.88 599.04 522.95 597.41 522.03 597.73 519.89 594.15 518.9 591.44 519.52 587.86 519.58 582.92 521.84 582.04 521.37 581.03 517.64 578.56 515.33 575.7 515.69 571.4 514.9 570.39 512.25 569.01 510.94 564.57 510.52 562.44 512.47 561.34 514.41 559.56 515.98 553.84 517.91 549.23 522.74 543.8 523.91 540.06 528.62 535.42 529.57 531.96 528.04 529.7 525.51 527.63 524.18 521.13 521.07 510.51 521.85 504.98 524.75 500.43 529.39 498.57 530.82 494.84 531.65 489.85 526.38 491.11 524.34 495.77 523.86 497.83 522.3 498.31 519.91 497.81 518.59 499.86 514.37 500.42 511.27 501.82 508.35 501.45 507.39 502.15 504.38 500.43 502.57 500.28 500.21 499.22 498.51 499.28 494.96 498.28 493.35 495.89 492.92 492.04 491.09 488.87 486.64 490.72 480.97 490.82 473.92 489.73 470.63 493.57 467.4 494.79 461.18 496.31 457.04 494.34 452.01 497.92 450.8 499.76 448.32 503.08 445.04 503.61 442.35 504.99 439.4 507.7 435.96 509.51 434.23 510.51 431.92 509.92 430.59 511.92 424.63 513.83 421.35 516.39 418.73 518.64 415.8 522.14 417.3 523.37 417.06 527.47 417.6 530.11 415.52 535.6 414.13 536.22 413.18 543.43 410.55 548.76 409.66 550.58 410.33 551.6 412.83 553.09 414.71 556.14 417 558.78 418.07 562.94 422.01 565.14 424.47 566.55 424.88 570.29 422.46 574.08 419.27 577.06 418.15 578.04 414.04 579.13 412.34 583.2 409.33 584.44 402.39 580.8 398.04 578.99 392.95 576.19 392.35 574.74 390.52 573.66 386.95 575.27 384.42 572.77 377.93 572.93 373.34 574.64 366.02 575.46 361.34 573.35 358.69 572.34 354.71 570.82 351.91 571.09 350.83 570.34 346.09 571.45 338.93 574.27 334.93 574.95 330.94 576.6 329.76 579.1 329.22 580.96 330.15 592.89 329.61 597.78 328.64 599.08 328.07 598.29 325.86 598.68 323.68 596.91 317.57 596.81 315 597.52 311.2 599.38 309.1 597.93 304.33 597.33 299.11 597.35 295.85 596.85 293.05 597.45 291.35 595.63 285.37 594.19 285.44 592.8 283.28 588.38 282.87 583.39 286.84 579.8 290.26 578.2 290.98 576.02 292.95 573.63 293.53 568.22 293.21 561.86 291.75 553.83 289.27 551.75 286.47 551.92 282.09 552.87 278.27 554.34 277.4 556.04 273.8 557.11 270.03 556.91 266.18 555.77 261.05 556.05 258.22 557.67 253.55 557.91 247.17 559.02 245.68 561.74 244.23 566.17 242.99 571.1 241.98 572.04 241.16 574.14 237.38 577.68 235.63 579.4 235.93 583.37 237.64 586.5 235.13 589.49 237.47 591.63 236.7 595.17 232.79 595.99 232.35 601.17 231.6 606.43 230.35 609.07 229.12 610.92 229.8 613.85 228.86 617.43 229.53 618.99 228.65 619.28 225.97 621.61 225.65 623.34 223.99 626.38 222.96 630.56 219.39 631.35 217.25 631.73 213.1 631.36 210.23 633.08 208.09 635.43 206.79 638.02 204.05 642.13 198.81 643.7 198.68 645.81 197.09 648.68 198.5 652.62 201.29 656.02 200.69 656.24 202.34 657.54 204.24 657.44 207.69 659.45 208.76 662.04 207.05 664.26 207.55 665.84 206.95 670.31 207.7 672.48 207.15 674.88 207.8 678.51 210.62 680.54 210.98 682.67 209.98 685.03 209.67 686.31 211.21 691.61 210.61 694.92 209.91 698.3 211.4 701.14 212.15 701.01 214.12 701.64 217.86 700.84 219.63 702.16 224.37 701.83 225.56 703.33 229.16 705.89 230.97 705.89 240.4 716.77 240.4 718.73 241.61 723.51 242.98 725.77 242.53 730.62 238.49 732.63 237.68 733.56 235.86 734.8 235.16 739.11 231.37 742.07 231.13 744.03 229.46 746.82 225.93 749.47 223.1 750.19 217.05 752.29 215.45 754.56 211.68 757.92 208.13 760.2 206.63 761.58 205.08 Z" id="31270380"/>
<path d="M 417.11 174.32 415.83 179.56 417.52 179.96 426.59 178.73 428.5 179.31 429.79 181.24 428.97 183.33 430.67 186.74 432.3 187.37 431.52 189.98 429.89 192.29 430.63 193.89 430.45 198.06 431.82 198.51 431.54 203.18 435.58 204.25 437.87 206.57 439.01 209.37 440.04 207.92 442.17 206.88 444.54 203.38 446.79 205.87 451.47 206.32 450.49 208.88 452.87 209.26 457.71 207.01 461.26 206.95 463.56 204.71 467.73 204.86 468.43 205.84 471.39 206.6 472.05 205.85 474.46 206.58 476.08 205.6 479.31 205.14 480.13 205.93 484.19 203.46 485.6 199.93 487.08 198.74 486.91 195.85 490.01 198.19 491.98 198.64 492.84 201.38 495.46 204.54 496.25 207.57 494.63 209.18 495.71 210.69 495.94 213.43 497.03 214.39 496.85 216.72 498.31 220.19 497.17 222.86 498.46 225.93 498.74 228.13 500.26 232.55 502.43 234.98 502.38 236.41 503.85 237.84 506.66 243.81 506.45 247.44 506.58 253.37 509.42 254.38 510.15 256.51 512.64 259.66 514.75 260.81 516.44 264.51 520.86 264.35 522.59 263.83 525.64 264.71 529.51 264.58 534.42 265.3 538.04 267.63 539.05 269.26 543.8 273.7 550.68 276.66 552.87 278.27 551.92 282.09 551.75 286.47 553.83 289.27 561.86 291.75 568.22 293.21 573.63 293.53 576.02 292.95 578.2 290.98 579.8 290.26 583.39 286.84 588.38 282.87 592.8 283.28 594.19 285.44 595.63 285.37 597.45 291.35 596.85 293.05 597.35 295.85 597.33 299.11 597.93 304.33 599.38 309.1 597.52 311.2 596.81 315 596.91 317.57 598.68 323.68 598.29 325.86 599.08 328.07 597.78 328.64 592.89 329.61 580.96 330.15 579.1 329.22 576.6 329.76 574.95 330.94 574.27 334.93 571.45 338.93 570.34 346.09 571.09 350.83 570.82 351.91 572.34 354.71 573.35 358.69 575.46 361.34 574.64 366.02 572.93 373.34 572.77 377.93 575.27 384.42 573.66 386.95 574.74 390.52 576.19 392.35 578.99 392.95 580.8 398.04 584.44 402.39 583.2 409.33 579.13 412.34 578.04 414.04 577.06 418.15 574.08 419.27 570.29 422.46 566.55 424.88 565.14 424.47 562.94 422.01 558.78 418.07 556.14 417 553.09 414.71 551.6 412.83 550.58 410.33 548.76 409.66 543.43 410.55 536.22 413.18 535.6 414.13 530.11 415.52 527.47 417.6 523.37 417.06 522.14 417.3 518.64 415.8 516.39 418.73 513.83 421.35 511.92 424.63 509.92 430.59 510.51 431.92 509.51 434.23 507.7 435.96 504.99 439.4 503.61 442.35 503.08 445.04 499.76 448.32 497.92 450.8 494.34 452.01 494.27 450.42 492.67 446.93 491.48 446.08 490.45 444.62 489.17 439.37 489.02 436.59 487.86 433.18 488.08 431.38 486.72 429.89 486.75 427.92 484.74 426.12 481.72 426.44 477.38 425.94 475.03 426.65 471.57 426.64 468.81 425.2 465.77 425.3 461.84 428.95 459.15 429.57 454.6 429.42 450.12 428.59 444.92 424.87 437.8 423.43 436.96 428.02 433.08 431.49 431.19 431.3 428.15 431.92 427.12 433.34 423.79 433.08 419.11 431.03 417.36 431.77 413.61 431.88 410.26 428.46 407.37 426.44 405.35 426.06 400 425.81 397.22 423.47 394.2 424.63 391.73 424.75 390.93 423.77 387.27 422.44 383.58 419.75 379.14 418.95 377.8 419.72 373.84 417 370.55 416.73 365.16 414.87 359.73 414.52 355.87 415.71 353.61 416.96 350.99 417.14 349.04 416.48 348.67 414.78 346.29 413.16 343.33 412.19 342.54 410.84 339.9 409.95 338.74 407.75 336.44 401.51 335.2 396.03 336.79 394.44 336.99 392.47 335.81 389.89 334.41 389.01 332.03 384.66 330.54 380.95 328.65 380.04 326.05 380.47 324.58 377.13 322.89 374.86 322.19 372.49 320.21 369.67 315.66 368.07 314.79 366.27 312.16 363.85 309.93 362.97 307.2 365.5 305.8 365.74 307.06 369.9 306.36 372.14 303.91 374.27 301.2 374.34 299.69 375.12 296.66 375.55 295.38 376.33 293.77 374.57 290.39 375.43 288.02 375.51 284.15 374.76 282.42 373.93 282.57 372.02 284.12 371.06 284.75 368.89 283.91 364.4 285.22 363.46 285.54 361.48 286.68 360.82 285.97 357.75 286.86 356.83 287.48 354.16 287.3 351.76 286.07 349.11 287.64 345.19 289.73 342.61 290.04 340.37 288.18 339.7 286.97 338.07 285.76 338.63 279.97 336.21 275.83 337.71 272.43 339.66 271.38 339.36 264.22 340.53 263.83 341.15 259.11 340.53 260.4 339.25 263.71 337.2 265.21 334.41 265.52 331.37 264.21 327.53 261.24 324.84 261.59 320.17 262.66 317.33 264.37 315.05 269.57 310.93 275.37 308.27 278.88 307.25 282.04 304.38 284.33 300.53 286.73 295.06 288.74 286.77 292.73 281.88 296 278.45 298.43 277.05 301.16 274.21 303.65 273.36 307.32 272.85 311.17 273.25 315.31 275.17 317.53 274.89 318.81 271.54 318.45 266.58 317.12 258.98 316.9 253.65 320.84 249.75 324.07 249.92 325.81 250.63 331.74 251 335.62 250.3 338.78 250.84 346.39 254.28 349.35 254.82 355.62 254.54 359.53 254.06 363.32 250.59 365.79 247.7 367.86 244.38 368.27 240.41 369.63 238.82 376.61 235.24 380.25 232.69 382.85 226.7 384.69 224.57 386.63 225.01 391.63 229.69 394.23 229.2 397.12 227.98 398.73 224.54 398 221.03 396.31 218.4 392.76 216.3 388.25 214.62 383.62 208.49 385.1 206.82 390.6 205.49 392.19 204.81 395.32 201.72 395.81 199.87 394.67 197.02 392.63 194.82 389.53 192.95 388.01 189.7 389.74 188.52 398.39 179.92 398.03 178.28 402.56 176.1 408.25 178.37 412.38 178.7 414.29 178.12 415.93 176.58 417.11 174.32 Z" id="31270390"/>
<path d="M 438.49 22.93 438.49 25.03 441.95 28.98 442.33 31.14 443.7 32.17 445.27 30.64 447.28 31.13 448.82 32.3 451.2 32.44 454.14 31.39 456.1 31.34 459.09 32.39 462.19 32.84 464.47 34.13 465.04 37.16 461.05 44.86 456.72 47 453.26 46.89 448.92 51.53 445.02 53.46 443.34 57.62 444.41 63.31 444.11 67.31 441.44 67.31 440.6 69.82 440.64 76.26 439.12 78.88 437.03 79.46 435.32 78.95 434.06 81.67 433.62 85.69 434.01 87.7 436.79 94.12 437.5 97.49 438.79 98.54 439.39 101 438.1 105.99 435.52 110 434.66 117.38 431.47 122.36 430.42 123.14 429.51 126.18 426.84 128.4 424.61 129.58 423.58 131.34 419.39 135.58 416.07 139.9 414.08 144.47 413.21 148.58 413.04 151.53 413.47 154.03 417.05 157.54 417.3 160.29 417.05 164.27 418.1 168.42 418.1 170.56 417.11 174.32 415.93 176.58 414.29 178.12 412.38 178.7 408.25 178.37 402.56 176.1 398.03 178.28 398.39 179.92 389.74 188.52 388.01 189.7 389.53 192.95 392.63 194.82 394.67 197.02 395.81 199.87 395.32 201.72 392.19 204.81 390.6 205.49 385.1 206.82 383.62 208.49 388.25 214.62 392.76 216.3 396.31 218.4 398 221.03 398.73 224.54 397.12 227.98 394.23 229.2 391.63 229.69 386.63 225.01 384.69 224.57 382.85 226.7 380.25 232.69 376.61 235.24 369.63 238.82 368.27 240.41 367.86 244.38 365.79 247.7 363.32 250.59 359.53 254.06 355.62 254.54 349.35 254.82 346.39 254.28 338.78 250.84 335.62 250.3 331.74 251 325.81 250.63 324.07 249.92 320.84 249.75 316.9 253.65 317.12 258.98 318.45 266.58 318.81 271.54 317.53 274.89 315.31 275.17 311.17 273.25 307.32 272.85 303.65 273.36 301.16 274.21 298.43 277.05 296 278.45 292.73 281.88 288.74 286.77 286.73 295.06 284.33 300.53 282.04 304.38 278.88 307.25 275.37 308.27 269.57 310.93 264.37 315.05 262.66 317.33 261.59 320.17 261.24 324.84 264.21 327.53 265.52 331.37 265.21 334.41 263.71 337.2 260.4 339.25 259.11 340.53 256.66 343.37 251.42 344.37 245.89 346.94 243.39 350.45 243.4 353.15 246.24 356.81 247.43 362.6 245.78 364.97 243.89 365.51 239.55 363.95 231.19 357.72 227.63 353.2 223.52 350.37 222.04 350.49 222.04 348.73 223.14 347.45 223.1 345.49 224.63 342.27 225.27 337.21 224.21 333.32 224.36 331.3 223.63 327.76 223.75 322.69 223.33 320.2 223.6 316.98 226.32 312.75 225.8 311.19 226.89 307.15 228.35 304.72 229.42 299.9 229.28 297.24 228.34 294.02 227.04 292.44 226.88 290.7 223.2 288.05 222.04 285.79 220.48 285.52 218.4 281.2 217.08 279.8 217.12 278.5 214.54 277.1 211.37 274.12 212.3 268.5 210.87 263.47 211.11 260.17 209.61 256.02 209.04 245.23 208.24 240.94 209.14 235.87 208.28 231.05 208.7 225.61 208.12 210.51 207.67 207.77 203.47 198.42 198.08 197.07 192.69 194.92 190.72 193.51 186.69 193.27 183.13 188.33 184.81 187.12 185.99 184.86 187.26 184.37 188.5 182.47 188.14 181.01 189.23 178.23 189.1 176.6 190.78 171.17 192.06 168.67 192.01 166.92 191.06 164.32 190.54 160.99 190.43 156.84 189.81 154.6 189.71 151.8 190.23 149.09 189.73 144.58 189.9 141.8 188.54 135.89 186.07 134 186.69 130.86 188.12 128.94 188.1 125.27 190.69 122.06 192.27 118.77 192 116.55 194.6 111.48 193.65 109.64 193.45 107.29 194.99 103.86 194.86 100.39 193.33 98.7 191.79 95.84 191.5 91.81 190.25 85.1 190.8 83.32 189.15 79.97 187.25 78.17 186.92 77.02 188.28 75.09 189.89 70.89 189.97 67.51 188.54 65.22 185.98 57.02 185.02 52.84 186.43 48.93 188.86 46.39 188.22 44.51 188.59 39.07 189.54 36.26 191.04 34.66 191.27 30.04 190.66 27.21 191.05 26.06 189.64 23.23 192.49 19.89 194.01 17.28 196.25 15.31 196.43 13.88 199.33 11.8 202.15 7.31 202.92 6.96 205.93 7.89 209.15 7.61 212.77 5.5 213.61 2.91 217.37 2.21 220.25 2.32 222.3 1 222.44 5.82 220.87 9.61 220.54 12.47 221.76 13.78 221.44 16.58 221.83 21.18 220.63 23.44 220.08 26.43 216.94 32.07 215.9 36.49 215.79 39.89 214.83 41.56 215.92 45.01 217.24 46.49 216.12 49.67 217.03 52.77 218.63 54.96 218.42 57.86 218.8 61.07 219.76 63.5 220.31 67.31 221.2 69.25 221.76 75.62 222.45 77.24 223.67 77.49 226.01 81.54 228.25 82.55 234.78 87.69 235.82 90.24 240.74 91.75 242.07 91.61 244.15 92.84 247.46 96.26 247.75 97.47 249.71 98.8 252.87 98.93 253.72 99.98 254.04 102.85 257.74 107.9 259.77 109.6 262.64 114.23 265 116.88 268.06 118.22 271.85 117.54 274.64 120.17 274.41 125.32 274.6 127.49 277.6 129.2 279.49 129.74 280.93 131.14 284.47 133.54 287.55 137.83 289.45 139.77 293.35 141.71 295.82 144.36 297.51 141.85 296.13 138.57 300.48 135.03 300.8 130.77 299.21 127.98 300.95 126.85 300.58 124.34 299.71 122.5 300.43 119.93 299.73 117.22 301.75 114.9 305.35 113.42 310.1 115.72 310.79 115.01 313.03 115.43 316.34 114.94 316.83 116.52 319.75 117.67 322.23 116.72 323.91 116.96 324.93 114.15 326.49 112.09 326.21 111.13 328.92 106.7 330.82 105.35 329.55 101.63 332.08 98.88 329.57 96.65 333.11 93.34 333.13 91.79 334.2 90.39 340.04 87.46 341.41 87.93 343.13 87.06 344.68 87.54 348.28 85.37 348.96 83.59 351.18 81.83 352.84 81.22 353.22 79.33 354.95 78.23 357 78.15 358.79 76.86 363.22 74.65 364.02 73.51 367.24 72.59 369.33 72.72 371.55 71.95 372.63 70.32 371.85 68.16 377.28 56.9 377.37 54 380.56 51.06 384.26 51.41 387.55 50.02 390.01 47.64 391.69 43.74 392.36 40.91 394.68 35.78 394.06 33.86 391.72 31.44 390.6 29.47 390.68 28 393.66 23.15 395.14 22.12 397.31 23.46 398.97 23.1 402.73 18.36 405.1 18.28 410.38 20.73 413.35 20.59 416.49 16.97 418.48 16.7 421.44 17.88 423.73 16.38 425.52 16.15 429.59 16.94 431.82 15.51 433.58 16.4 433.6 20.5 434.75 22.37 438.49 22.93 Z" id="31270400"/>
<path d="M 536 752.56 535.69 754.87 536.79 757.79 535.97 759.44 537.51 762.01 538.85 768.42 537.47 771.24 536.55 771.74 534.72 776.75 531.55 781.87 534.79 783.55 535.83 786.44 538.18 788.2 538.06 790.68 538.56 793.36 538.08 795.2 534.73 796.4 535.25 798.31 533.11 801.73 531.78 805.22 531.2 807.85 532.8 816.23 531.82 819 532.13 820.45 531.39 823.22 533.31 824.63 533.65 827.29 535.89 831.45 534.7 834.48 530.78 840.15 527.64 841.93 524.14 844.89 524.12 848.64 522.39 850.48 523.47 855.11 522.13 857.6 522.65 860.09 523.24 866.67 522.68 868.77 523.6 874.79 528.26 876.8 528.46 879.37 526.33 881.51 525.48 883.55 525.44 887.49 526.02 888.68 525.56 891.73 524.34 893.23 523.58 895.48 516.59 894.6 514.01 896.26 511.07 902.52 507.69 905.71 506.25 906.17 502.39 905.43 500.47 907.95 501.07 910.36 500.65 911.35 496.89 910.47 494.37 908.1 492.89 905.39 489.97 904.83 486 903.37 483.14 903.01 480.3 903.25 475.74 904.62 474.65 903.9 472.44 904.44 468.8 904.44 468.36 903.1 462.95 902.75 462.69 900.52 459.22 898.79 458.86 896.01 459.32 893.67 455.38 887.14 453.48 885.92 452.87 890.24 450.12 894.2 448.91 895.16 448.81 896.7 447.59 898.62 445.04 900.48 445.14 901.95 443.53 905.53 442.44 906.69 442.39 909.15 440.06 913.73 440.73 916.94 438.76 919.13 439.5 920.85 439.5 922.96 437.33 927.05 437.21 928.32 434.95 929.44 434.49 932.06 432.53 932.1 431.66 934.85 431.35 937.53 428.53 940.08 426.16 939.5 424.01 940.38 422.38 942.87 422.26 944.08 420.59 945.42 419.75 948.66 416.87 951.44 416.6 953.99 415.06 955.03 413.56 953.87 409.87 953.3 406.48 953.71 404.66 954.94 402.78 954.96 400.72 956.15 399.57 955.8 396.84 956.65 395.74 955.5 391.14 953.13 387.2 953.59 385.65 955.85 380.35 957.65 379.32 953.78 379.91 950.82 380.9 949.3 387.12 945.44 388.52 942.36 390.8 942.56 390.84 941.4 393.19 938.35 396.43 936.48 398.9 935.9 397.75 934.2 397.77 931.33 396.51 927.39 397.74 925.04 397.18 922.93 398.51 916.04 398.03 912.26 397.02 910.2 397.24 908.66 400.65 903.71 399.39 899.12 399.65 897.81 397.27 892.86 395.54 891.74 393.17 886.29 391.17 882.36 392.46 878.75 391.65 877 389.89 875.25 389.82 872.85 390.81 868.34 389.22 865.59 389.24 861.98 388 860.92 387.84 857.76 385.86 856.67 380.04 856.36 378.12 855.2 376.95 855.81 372.89 855.49 368.93 854.39 367.58 853.22 365.09 852.96 364.03 845.69 362.83 840.75 362.9 838.97 363.99 838.49 363.05 835.46 361.1 832.64 359.46 826.79 359.46 824.01 361.12 821.7 359.92 818.89 360.15 818.08 358.54 815.62 359.84 808.18 360.99 807.91 363.08 805.55 364.06 801.96 361.9 799.06 361.44 791.66 360.34 790.04 361.38 788 358.77 779.27 357.56 777.71 357.29 774.58 357.81 771.6 356.26 766.56 354.89 764.66 354.39 761.91 355.32 759.47 354.78 757.85 356.08 755.08 355.82 752.89 357.69 750.54 358.27 745.03 357.4 741.4 356.48 740.05 355.02 735.84 355.25 732.03 354.49 731.36 355.11 725.79 354.49 724.8 354.52 721.27 352.9 718.09 351.39 716.42 350.79 714.25 349.07 711.74 350.41 709.25 351.96 707.76 351.34 706.45 351.72 704.69 353.07 704.18 355.42 701.59 356.95 698.7 356.57 696.72 359.52 693.65 359.66 691.43 360.75 689.16 361.42 685.62 362.14 684.48 361.1 683.06 360.78 680.25 359.98 678.75 360.36 676.99 362.66 675.57 365.28 669.29 364.57 666.14 365.35 663.49 366.8 663.94 368.39 662.58 373.19 660.93 373.59 660.89 372.84 666.05 373.43 667.89 375.85 669.8 379.41 678.34 379.59 681.38 381.29 682.71 385.52 683.83 386.96 694.69 386.59 696.85 386.62 700.76 387.64 704.33 391.55 710.34 392.42 712.79 393.2 717.36 394.16 720.94 396.78 724.98 398.74 729.16 398.7 732.54 400.3 733.88 404.99 735.3 406.64 736.82 407.86 739.34 407.69 743.41 409.57 745.9 409.58 749.14 410.16 751.53 415.28 751.02 418.43 749.03 419.67 749.78 420.24 751.67 419.49 756.12 421.48 757.64 423.37 757.91 425.85 762.16 429.9 762.89 431.55 764.54 433.5 767.62 435.37 767.03 440.84 768.98 442.46 771.5 447.18 770.19 448.22 771.32 450.85 770.44 451.65 768.86 454.43 768.62 455.98 770.94 460.73 771.21 462.58 763.8 463.99 758.99 466.38 758.54 468.44 756.54 470.3 755.9 472.23 757.01 474.25 757.13 475.1 758.56 477.16 759.5 478.82 759.13 482.35 761.33 485.45 759.71 487.58 759.87 493.7 759.64 496.44 753.36 498.21 752.01 500.54 752.67 502.11 751.72 503.22 752.5 508.37 751.29 511.48 751.71 515.3 752.7 516.62 753.74 519.92 752.55 521.73 752.95 524.31 752.02 526.68 750.3 529.73 752.02 531.62 752.52 533.92 751.93 536 752.56 Z" id="31270410"/>
<path d="M 269.46 807.4 266.26 812.89 264.57 814.96 259.88 822.04 255.94 829.81 255.49 831.39 253.14 834.14 249.07 837.43 246.62 841.17 245.06 848.21 244.27 854.87 241.38 861.22 240.46 867.76 238.64 871.71 233.77 874.65 231.05 876.87 228.16 880.61 226.1 885.31 223.8 887.76 219.06 891.48 217.73 892.88 214.08 897.98 210.92 896.93 211.38 894.95 211.47 890.49 212.48 886.5 213.19 881.02 211.19 881.56 208.33 878.83 206.12 877.69 204.78 875.56 203.24 874.36 198.11 873.84 195.37 872.93 191.84 872.58 186.66 868.97 186.02 869.06 179.28 865.67 176.64 865.22 176.12 861.32 174.15 860.33 171.72 858.3 171.2 856.87 169.31 855.22 168.82 853.33 167.13 852.12 167.78 849.98 166.47 846.37 165.06 845.06 164.38 841.31 158.87 838.25 157.61 835.93 155.49 835.78 152.99 832.39 150.97 827.97 154.4 825.8 153.83 823.65 156.71 819.14 157.3 816.51 159.65 811.59 162.63 810.39 162.33 807.44 163.09 803.91 164.77 803.74 169.02 802.05 171.93 799.54 174.28 798.65 175.66 796.64 176.5 793.05 179.77 789.95 183.46 789.2 184.58 786.63 185.98 785.74 187.14 782.91 190.39 782.34 194.57 780.27 198.67 782.6 202.54 783.6 207.2 783.01 209.6 783.36 212.07 785.87 215.37 787.71 216.68 789.98 219.24 790.88 220.05 792.53 222.57 792.32 224.52 795.38 225.47 797.69 227.9 799.05 229.92 798.5 231.69 799.21 235.32 801.95 240.15 801.68 244.96 802.27 246.5 802.82 248.41 802.04 249.47 802.78 251.42 801.49 254.57 803 257.22 802.85 258.73 804.25 262.66 806.47 266.2 806.52 269.46 807.4 Z" id="31270510"/>
</g>
</svg>