<?xml version="1.0"?>
<svg xmlns="http://www.w3.org/2000/svg" version="1.2" baseProfile="tiny" width="800" height="822" viewBox="0 0 800 822" stroke-linecap="round" stroke-linejoin="round">
<g id="dong">
<path d="M 363.73 220.85 362.49 226.84 362.49 231.41 363.32 232.92 365.58 235.34 367.09 238.86 364.9 241.12 364.24 243.19 364.77 244.68 369.93 247.56 371.41 252.43 372.87 254.13 375.83 254.53 377.92 255.96 377.55 258.84 375.67 259.45 371.93 259.64 370.98 260.9 371.12 263.3 374.77 265.67 373.97 269.38 374.37 271.8 377.99 275.33 378.26 281.08 377.93 282.79 376.49 285.08 375.4 288.76 375.58 290.24 377.7 291.63 381.59 294.79 381.95 296.61 381.59 302.02 381.06 304.5 381.15 309.34 380.88 313.07 383.46 316.96 379.43 320.71 376.64 323.91 375.9 327.44 376.13 330.56 375.68 331.15 371.72 330.86 371.23 333.78 372.48 335.86 372.44 338.09 368.88 340.54 368 343.4 370.34 344.93 372.24 345.26 371.95 348.29 370.94 349 371.73 353.03 370.67 355.35 366.31 357.75 365.4 360.25 365.68 363.09 363.31 366.39 362.6 369.58 360.74 371.69 359.03 372.44 356.74 374.44 353.46 377.9 352.31 380.23 344.9 380.03 340.75 382.52 332.67 383.98 328.96 385.55 324.32 386.58 322.14 386.42 317.67 387.65 316.31 388.48 313.26 393.35 313.81 388.64 314.88 387.49 315.51 385.13 316.4 383.96 318.78 376.76 320.9 375.09 321.09 373.39 320.1 369.39 320.19 364.9 320.85 360.92 320.37 357.55 319.27 354.01 320.61 352.28 320.07 348.74 317.33 345.47 313.15 343.47 309.03 342.85 306.61 342.88 302.05 341.83 299.32 342.35 296.35 341.34 293.33 340.87 289.78 338.85 287.9 336.8 284.01 335.15 282.59 335.53 281.71 332.81 279.15 328.73 281.18 327.26 281.15 322.72 275.13 315.73 274.98 312.97 275.76 310.44 277.34 310.1 279.91 307.9 281.03 306.27 278.89 300.37 278.15 299.34 275.76 298.41 266.83 299.36 265.83 298.77 262.34 292.96 261.54 290.65 259.35 286.72 255.34 283.1 254.31 278.02 252.91 275.96 250.78 273.78 248.2 273.68 243.37 274.68 241.53 274.58 238.78 275.43 232.94 276.69 226.82 276.58 224.76 276.3 220.65 271.59 219.94 270.23 216.77 268.19 209.46 267.21 207.22 268.47 205.31 268.02 201.4 265.67 200.45 264.62 198.48 264.41 196.1 259.49 195.86 255.97 194.62 255.02 193.99 251.98 190.17 247.49 189.18 244.78 186.93 243.05 183.54 242.88 181.22 241.31 179.96 236.75 176.99 233.18 174.72 231.88 173.77 228.91 170.55 226.19 169.13 226.59 167 225.11 164.82 222.41 162.51 221.35 161.36 219.84 161.3 218.26 162.16 216.53 159.95 215.86 157.06 213.45 156.67 210.28 157.18 209.45 161.59 205.86 163.94 205.25 165.28 205.82 167.48 205.11 169.06 205.53 172.49 205.32 173.85 202.8 173.21 200.5 173.45 196.18 174.63 191.96 178.53 194.21 178.9 196.13 180.48 197.07 184.23 195.77 189.54 196.43 192.9 193.73 194.57 193.44 197.59 193.76 202.88 194.94 204.44 196.8 206.5 197.38 208.81 199.83 211.32 198.16 213.33 198.23 214.23 196.9 215.86 196.62 217.14 194.25 218.16 195.55 221.18 197.03 222.81 198.4 223.9 197.67 225.99 198.79 228.06 197.74 230.66 197.81 233.82 197.08 237.02 197.44 239.92 195.11 241.28 193.32 244.22 191.17 243.82 188.53 245.39 187.4 247.19 183.66 248.27 179.31 247.97 177.96 250.14 176.04 249.67 173.5 251.8 172.59 251.67 170.15 252.89 166.75 254.85 166.39 257.11 164.17 261.89 164.82 265.07 165.8 267.04 165.83 270.09 165.14 273.69 162.7 275.76 161.68 277.71 159.85 279.49 158.95 280.4 157.6 279.88 155.7 280.38 153.09 284.98 149.22 287.22 148.53 286.82 150.55 284.87 152.23 285.56 155.04 288.82 157.81 291.67 155.89 293.31 155.92 295.64 153.64 294.7 149.19 293.69 146.92 292.28 141.88 291.6 137.27 292.35 136.35 297.44 134.24 303.12 134.32 304.52 139.48 312.18 149.19 315.79 152.09 313.93 153.93 312.48 156.83 312.63 159.97 314.21 163.75 314.97 166.45 315.19 169.36 316.52 174.06 316.42 178.31 323.31 181.6 317.13 188.02 323.61 193.18 324.32 194.28 327.43 196.29 327.38 197.72 332.04 199.7 336.46 200.89 339.99 204.45 342.3 207.43 344.16 208.91 348.1 212.9 352.14 216.28 356.45 216.53 360.73 213.99 364.29 211.03 363.73 220.85 Z" id="31280330"/>
<path d="M 435.43 509.27 435.78 510.36 432.5 517.3 432.37 523.05 437.62 527.42 439.56 528.4 441.96 528.44 442.05 529.9 443.25 530.86 442.93 532.25 444.22 534.77 445.16 534.79 446.58 538.33 446.25 538.78 448.97 543.19 450.65 541.86 453.33 541.35 453.59 543.48 452.31 544.34 453.66 546.93 454.88 546.61 456.21 547.54 456.15 549.12 458.91 551.56 458.91 553.58 456.07 555.66 456.77 557.27 458.52 556.62 462.94 557.19 464.27 557 466.45 558.52 469.09 558.23 471.33 556.64 472.67 557.73 474.01 561.25 472.59 564.71 473.52 566.21 476.73 569.08 477.25 572.35 478.6 575.25 477.58 578.91 477.93 580.96 479.56 582.11 478.41 584.01 480.25 589.41 482.34 589.74 482.41 592.87 484.2 593.25 484.7 594.51 488.59 596.87 491.09 600.18 492.79 600.89 494.57 602.67 496.36 602.74 497.26 603.61 499.7 603.65 502.95 602.23 505.43 603.49 507.85 605.8 510.48 606.63 512.77 606.5 514.74 608.82 520.47 613.47 522.42 612.53 526.96 613.65 528.37 613.38 526.98 615.72 527.38 618.71 526.61 620.15 527.53 621.87 527.39 623.47 528.85 624.21 528.22 626.22 531.52 630.74 530.54 632.46 529.92 635.79 527.43 638.4 525.63 638.68 525.25 639.76 520.41 641.05 520.46 642.98 518.41 646.7 517.79 649.95 518.17 651.57 517.82 653.98 518.74 657.35 519.68 657.55 519.68 660.56 522.08 661.65 526.41 660.86 528.73 661.64 529.15 663.25 531.42 663.66 533.55 664.88 534.43 666.57 536.79 667.75 539.45 669.75 540.34 671.55 539.88 675.44 540.96 678.34 543.19 679.08 544.21 682.41 543.23 686.11 543.19 690.52 544.57 692.57 543.8 694.22 546.54 695.89 546.99 697.01 545.86 699.45 546.26 700.33 544.15 701.59 543.13 703.83 544.87 705.81 541.25 711.65 540.02 714.2 537.4 712.94 534 712.4 533.37 713.58 531.8 713.48 531.3 720.43 536.48 722.47 535.73 724.18 533.14 726.79 531.23 726.82 530.31 727.75 528.09 732.51 525.5 732.71 524.17 733.47 522.38 732.98 520.2 733.97 517.69 729.37 514.84 729.53 511.38 730.73 509.7 729.82 504.27 728.24 501.1 729.09 500.94 730.72 498.96 732.85 498.83 733.99 497.08 736.91 496.61 738.52 494.47 741.15 490.82 743.53 488.87 743.03 487.16 745.12 484.95 744.3 484.44 745.88 481.09 747.88 481.31 750.09 480.34 751.46 478.48 749.88 478.83 748.85 477.89 746.37 475.12 746.49 473.56 745.89 471.65 744.17 471.82 743.41 470.7 739.79 469.1 738.73 468.78 736.4 469.87 729.47 468.85 726.3 466.13 723.37 465.31 721.7 466.27 720.9 466.44 718.87 464.83 717.88 463.43 715.79 461.1 715.2 459.82 714.27 457.26 714.07 456.13 710.34 454.64 708.74 451.41 706.87 450.05 706.59 449.53 704.26 447.34 702.5 444.29 696.16 444.21 694.05 442.69 693.45 441.73 691.99 438.07 693.35 437.04 692.81 435.4 687.99 435.47 685 434.72 683.5 434.23 678.72 432.61 678.5 430.25 677.11 429.23 674.67 425.2 676.46 423.89 675.17 420.22 678.7 417.18 678.13 415.13 680.95 413.38 681.17 411.85 682.4 410.13 681.63 403.5 682.45 399.1 681.99 396.42 681.38 394.62 679.49 392.43 678.22 391.79 676.35 387.57 676.97 385.54 680.17 382.16 682.27 382.05 684.22 380.32 685.49 379.31 689.38 380 691.68 383.52 694.93 384.46 697.92 384.04 700.88 384.17 703.62 386.68 704.35 386.81 705.65 388.58 706.35 390.46 708.95 390.9 711.55 389.68 712.67 389.39 714.56 386.14 715.77 383.61 718.47 382.27 721.11 379.84 722.53 379.77 724.34 378.04 725.52 375.97 728.07 374.36 726.83 373.79 724.08 372.78 722.12 371.9 718.62 366.95 712.18 364.29 710.52 362.08 708.51 360.69 705.75 358.14 706.2 354.41 704.15 354.23 702.47 352.57 700.72 350.43 699.7 348.79 701.98 348.56 705.21 347.88 708.27 346.08 709.1 344.99 710.54 341.47 711.91 337.04 714.41 334.26 714.1 332.13 714.41 328.56 715.85 327.29 717.95 324.83 719.93 323.05 715.21 318.55 716.47 315.8 716.74 314.32 717.45 310.69 715.32 310.17 714.41 307.85 714.2 305.24 716.23 302.09 719.6 299.63 719.09 297.08 720.25 293.88 719.29 288.15 721.39 283.19 721.31 281.01 719.46 281.4 716.1 280.02 712.59 277.22 710.26 274.75 709.54 273.36 707.86 273.02 705 274.3 702.61 272.34 700.46 270.66 700.32 270 698.25 267 697.25 266.08 696.34 263.17 696.82 260.03 695.73 260.85 694.56 260.28 692.42 260.47 690.77 262.23 688.61 263.35 685.19 265.26 684.22 265.37 681.67 267.27 678.4 269.31 676.95 269.96 675.17 273.12 670.71 274.87 669.33 276.01 667.24 278.46 664.81 279.41 660.98 280.43 660.42 283.27 656.15 285.6 654.23 289.07 653.63 289.73 651.49 289 649.6 290.26 648.41 289.99 647.03 288.49 644.39 288.69 643.01 287.57 641.25 287.21 638.71 289.14 637.46 288.68 634.38 290.8 633.56 290.55 631.03 289.32 628.27 290.54 626.36 288.46 621.5 287.14 617.35 287.15 613.74 286.78 611.32 285.91 609.33 286.77 606.38 286.17 605.34 286.39 601 285.01 601.01 282.34 598.66 281.71 595.91 283.42 594.83 284.15 587.99 282.85 586.13 282.89 583.83 282.2 582.38 282.54 579.71 282.22 577.31 280.2 575.81 280.63 573.73 278.52 573.95 278.87 569.22 279.28 567.9 282.42 565.62 284.01 563.6 283.19 563.09 280.84 563.74 278.97 562.67 277.56 562.7 278.33 559.67 278.17 556.97 278.57 552.44 277.62 549.94 277.34 540.81 281.01 539.6 284.4 535.61 286.13 532.72 289.39 532.41 290.42 531.49 293.19 530.78 294.29 528.74 296.36 528.58 299.7 526.47 301.21 522.22 301.97 521.76 303.09 522.21 305.64 521.63 308.86 517.36 311.42 517.19 313.34 514.77 314.91 514.2 314.27 510.76 314.77 508.27 315.95 506.81 318.48 506.89 321.36 505.24 322.17 503.8 323.07 498.63 324.44 497.15 322.83 487.48 324.34 485.67 327.44 485.38 327 483.55 325.5 481.41 326.12 478.02 327.76 476.31 333.41 473.14 332.71 477.64 333.1 483.94 333.77 485.62 336.57 490.58 336.9 491.99 336.88 502.12 337.48 503.84 343.54 510.28 344.1 508.47 345.87 506.29 348.89 507.22 351.12 508.48 353.31 500.34 356.18 499.9 358.66 498.95 360.18 497.33 362.03 499.31 366.11 498.44 368.59 501.89 369.42 503.95 371.55 504.83 373.75 507.56 375.12 508.31 376.87 507.28 379.79 509.36 381.5 511.34 381.37 515.32 382.05 517.29 384.14 516.32 388.71 515.76 392.06 517.32 394.06 517.5 396.2 515.95 398.12 515.85 400 514.02 401.98 513.36 407.56 515.3 410.61 515.19 413.8 510.68 415.98 510.1 418.16 511.18 421.37 516.12 422.3 516.2 424.44 514.12 428.23 513.51 430.41 513.76 433.57 511.73 435.43 509.27 Z" id="31280110"/>
<path d="M 755.03 571.96 757.1 576.28 759.51 585.99 759 595.69 757.9 598.29 753.53 606.13 750.08 608.4 749.83 606.38 748.72 605.13 746.09 608.03 743.75 612.38 740.85 612.92 737.12 615.95 735.68 615.74 732.89 617.83 731.07 622.9 729.74 623.58 729.5 626.31 730.25 627.33 729.87 629.57 730.48 630.41 728.83 632.76 728.07 636.83 726.78 637.7 726.8 639.21 725.32 640.87 723.71 641.06 723.34 642.45 724.17 643.86 723.35 645.72 724.71 648.62 723.94 650.41 724.49 653.04 724.05 656.66 721.81 658.78 719.67 659.37 720.35 661.15 718.8 664.37 717.57 666.04 715.19 667.54 713.97 675.53 715.09 676.82 714.32 678.68 714.46 681.87 713.68 683.19 713.13 686.56 711.64 688.14 711.19 692.48 709.69 693.4 706.35 693.67 703.43 695.15 702.08 694.45 700.64 691.15 697.42 689.92 695.35 689.9 694.12 689.14 692.26 689.14 690.68 690.24 690.07 693.15 688.74 694.64 685.59 696.49 686.2 698.86 684.88 700.93 684.33 703.71 682.41 704.13 681.99 706.69 680.98 708.17 678.33 708.7 676.78 711.08 677.71 712.8 676.54 714.13 676.49 715.81 675.24 717.66 675.28 720.62 672.54 724.48 670.73 724.04 669.05 724.7 668.76 727.04 665.03 733.28 664.48 736 665.14 737.23 664.93 747.13 664 750.39 665.24 751.76 665.12 753.85 664.11 754.57 663.41 756.97 663.97 759.88 661.35 763.22 660.24 765.52 656.91 769.07 656.07 770.71 654.38 771.46 651.54 773.58 646.75 774.89 644.54 777.28 643.53 780.69 643.06 783.79 644.18 788.81 642.23 792.5 643.02 795.31 643.33 798.2 643.29 804.17 645.35 806.41 643.91 807.48 638.2 813.2 634.56 814.73 630.58 819.67 626.72 821 617.34 817.42 616.42 818.59 613.43 819.48 611.38 818.4 608.76 817.81 606.41 816.56 604.46 817.41 600.7 817.91 597.72 817.01 593.99 818.22 593.2 817.45 590.92 818.42 589.25 817.31 586.15 813.42 583.18 811.27 581.78 809.47 578.19 810.05 576.84 809.36 574.13 810.24 571.63 809.73 568.7 808.32 568.54 806.25 565.51 805.06 563.02 801.85 559.77 801.64 559.12 801.01 559.59 797.28 560.91 796.67 560.91 795 558.72 793.55 557.19 791.23 555.68 790.41 552.21 786.54 549.66 788.32 547.4 787.19 545.53 783.5 543.55 781.79 542.93 779.71 540.97 779.6 539.29 778.12 536.47 778.96 533.36 776.84 530.49 776.66 528.78 778.23 526.09 777.08 523.78 773.98 522.58 773.11 519.36 773.88 515.01 772.97 513.67 773.61 508.67 771.1 506.62 770.57 503.57 770.46 503.19 769.26 500.19 767.39 502.01 763.59 502.81 760.67 504.37 756.62 510.17 749.3 508.95 746.59 506.01 743.98 504.78 740.53 499.87 738.73 498.36 739.64 496.61 738.52 497.08 736.91 498.83 733.99 498.96 732.85 500.94 730.72 501.1 729.09 504.27 728.24 509.7 729.82 511.38 730.73 514.84 729.53 517.69 729.37 520.2 733.97 522.38 732.98 524.17 733.47 525.5 732.71 528.09 732.51 530.31 727.75 531.23 726.82 533.14 726.79 535.73 724.18 536.48 722.47 531.3 720.43 531.8 713.48 533.37 713.58 534 712.4 537.4 712.94 540.02 714.2 541.25 711.65 544.87 705.81 543.13 703.83 544.15 701.59 546.26 700.33 545.86 699.45 546.99 697.01 546.54 695.89 543.8 694.22 544.57 692.57 543.19 690.52 543.23 686.11 544.21 682.41 543.19 679.08 540.96 678.34 539.88 675.44 540.34 671.55 539.45 669.75 536.79 667.75 534.43 666.57 533.55 664.88 531.42 663.66 529.15 663.25 528.73 661.64 526.41 660.86 522.08 661.65 519.68 660.56 519.68 657.55 518.74 657.35 517.82 653.98 518.17 651.57 517.79 649.95 518.41 646.7 520.46 642.98 520.41 641.05 525.25 639.76 525.63 638.68 527.43 638.4 529.92 635.79 530.54 632.46 531.52 630.74 528.22 626.22 528.85 624.21 527.39 623.47 527.53 621.87 526.61 620.15 527.38 618.71 526.98 615.72 528.37 613.38 528.95 611.72 527.47 608.05 529.73 607.41 539.42 606.94 540.04 605.69 543.9 603.84 543.92 601.35 542.97 600.62 542.53 596.33 543.43 592.24 541.94 590.54 541.41 587.15 543.17 584.91 548.86 580.79 549.8 582.19 553.49 581.22 557.39 581.51 560.39 580.01 561.89 578.66 563.34 578.69 564.3 576.58 567.44 573.45 574.66 569.11 578.03 567.78 578.88 565.05 578.76 563.64 580.94 558.4 582.93 556.14 583.38 553.2 582.22 550.07 580.72 547.16 580.8 545.78 584.01 540.9 586.2 538.62 588.79 533.75 588.8 531.22 590.33 528.7 591.7 528.73 591.97 531.18 594.37 532.47 599.67 532.87 601.07 532.6 602.63 533.55 604.67 531.42 606.62 531.25 608.93 529.83 612 532.12 613.37 532.39 615.93 531.11 617.93 529.16 617.11 527.75 622.83 527.75 624.49 531.66 626.6 540.16 629.04 546.87 629.9 552.12 630.97 555.02 634.86 560.26 636.47 562.05 639.94 564.64 644.7 565.26 656.81 567.54 664.22 566.57 670.62 567.4 676.36 564.33 688.5 566.57 694.87 567.45 696.83 566.57 704.84 566.57 712.78 568.95 724.92 568.72 737.06 570.2 749.2 571.22 755.03 571.96 Z" id="31280310"/>
<path d="M 298.52 78 300.04 81.23 302.31 90.95 302.8 100.66 304.56 120.07 304.68 123.4 300.04 132.5 297.44 134.24 292.35 136.35 291.6 137.27 292.28 141.88 293.69 146.92 294.7 149.19 295.64 153.64 293.31 155.92 291.67 155.89 288.82 157.81 285.56 155.04 284.87 152.23 286.82 150.55 287.22 148.53 284.98 149.22 280.38 153.09 279.88 155.7 280.4 157.6 279.49 158.95 277.71 159.85 275.76 161.68 273.69 162.7 270.09 165.14 267.04 165.83 265.07 165.8 261.89 164.82 257.11 164.17 254.85 166.39 252.89 166.75 251.67 170.15 251.8 172.59 249.67 173.5 250.14 176.04 247.97 177.96 248.27 179.31 247.19 183.66 245.39 187.4 243.82 188.53 244.22 191.17 241.28 193.32 239.92 195.11 237.02 197.44 233.82 197.08 230.66 197.81 228.06 197.74 225.99 198.79 223.9 197.67 222.81 198.4 221.18 197.03 218.16 195.55 217.14 194.25 215.86 196.62 214.23 196.9 213.33 198.23 211.32 198.16 208.81 199.83 206.5 197.38 204.44 196.8 202.88 194.94 197.59 193.76 194.57 193.44 192.9 193.73 189.54 196.43 184.23 195.77 180.48 197.07 178.9 196.13 178.53 194.21 174.63 191.96 173.45 196.18 173.21 200.5 173.85 202.8 172.49 205.32 169.06 205.53 167.48 205.11 165.28 205.82 163.94 205.25 161.59 205.86 157.18 209.45 156.67 210.28 157.06 213.45 155.81 214.45 153.11 214.98 151.2 217.14 149.97 219.52 148.92 219.29 145.05 221.97 143.11 222.72 140.77 220.9 136.52 222.77 134.87 222.96 129.77 228.5 129.04 228.13 127.08 229.9 124.55 230.61 121.7 233.89 119.39 234.17 116.93 235.71 115.17 237.42 112.24 238.29 110.19 238.21 107.77 235.95 107.91 235.17 104.33 232.24 102.68 230.28 102.33 228.47 99.45 224.15 96.88 222.72 99.1 219.54 101.5 217.09 104.05 215.56 103.86 212.74 105.36 211.9 105.34 207.03 106.76 205.22 108.92 204.99 111.92 203.34 113.85 200.33 116.81 198.85 119.97 196.21 122 194.99 124.15 191.87 127.66 189.36 128.78 185.44 130.36 183.13 129.58 179.44 127.91 176.32 129.33 175.35 130.62 175.87 132.97 175.11 133.56 173.86 137.44 172.06 135.86 165.84 134.4 164.29 133.48 162.24 134.74 159.85 134.27 158.06 135.17 157.01 135.91 154.07 137.65 150.82 140.47 150.65 140.89 149.34 143.81 148.23 145.21 148.36 147.69 147.55 145.74 145.32 144.88 143.25 143.63 142.41 143.16 140.43 143.22 136.29 142.23 132.35 143.71 129.94 147.3 127.31 147.88 125.99 147.07 122.17 148.02 120.54 150.05 119.95 151.76 118.31 155.84 116.43 156.6 114.74 155.22 114.17 154.12 111.08 152.17 109.92 152.35 104.51 149.74 100.94 150.09 100.09 147.61 97.98 148.26 96.85 146.58 95.31 145.31 92.35 145.2 88.74 144.01 86.79 146.31 84.57 148.36 83.41 149.77 81.64 154 80.14 156.77 77.57 159.34 77.82 167.05 76.53 169.87 73.54 171.93 72.86 173.99 72.86 175.92 69.24 177.87 66.75 177.95 64.58 179.39 63.14 180.49 61.1 183.45 57.17 183.89 55.66 186.45 53.52 186.56 52.36 190.31 50.17 191.27 47.35 195.72 45.42 196.93 44.03 199.38 45.17 204.53 43.76 205.57 42.9 212.28 42.69 213.51 41.58 213.62 39.98 212.32 35.78 213.51 35.03 214.66 31.12 218.42 29.38 219.29 27.89 218.45 26.49 218.65 23.53 220.81 20.59 222.6 17.46 227.54 13 226.63 11.21 227.93 9.9 230.01 5.56 234.1 1 239.34 4.63 244.16 7.14 247.79 8.4 253.62 9.48 260.54 11.51 263.61 13.3 273.81 21.23 279.41 26.98 282.81 31.53 285.41 36.26 287.01 39.85 290.32 48.78 291.2 52.12 292.82 55.46 296.82 68.86 297.48 71.54 298.52 78 Z" id="31280340"/>
<path d="M 62.51 9.39 63.78 10.91 66.39 12.46 70.96 13.52 75.46 13.37 76.68 13.73 80.97 17.98 86.67 17.11 88.27 17.95 91.93 18.57 93.65 17.91 95.89 18.24 98.17 20.1 100.22 20.32 103.78 21.8 105 22.74 106.91 22.44 108.4 23.09 109.7 25.85 111.79 26.03 114.84 28.28 117.18 30.71 119.44 31.19 123.92 33.86 126.79 33.81 128.91 35.08 130.72 35.09 133.28 36.25 135.5 36.33 139.26 37.94 141.51 38.25 145.43 36.96 148.63 38.82 150.7 39.15 152.47 40.35 152.31 42.18 154.03 45.91 157.23 47.49 159.66 49.45 162.11 50.21 166.5 48.86 167.78 47.97 175.52 46.18 177.97 42.42 178.65 39.95 180.72 36.41 181.27 31.62 183.8 27.75 191.66 20.62 193.82 19.73 197.04 19.48 200.47 19.88 205.4 21 207.64 22.29 212.05 23.19 212.9 23 215.06 20.53 216.25 18.5 216.92 15.79 218.78 13.3 221.49 12.2 224 11.94 227.93 9.9 226.63 11.21 227.54 13 222.6 17.46 220.81 20.59 218.65 23.53 218.45 26.49 219.29 27.89 218.42 29.38 214.66 31.12 213.51 35.03 212.32 35.78 213.62 39.98 213.51 41.58 212.28 42.69 205.57 42.9 204.53 43.76 199.38 45.17 196.93 44.03 195.72 45.42 191.27 47.35 190.31 50.17 186.56 52.36 186.45 53.52 183.89 55.66 183.45 57.17 180.49 61.1 179.39 63.14 177.95 64.58 177.87 66.75 175.92 69.24 173.99 72.86 171.93 72.86 169.87 73.54 167.05 76.53 159.34 77.82 156.77 77.57 154 80.14 149.77 81.64 148.36 83.41 146.31 84.57 144.01 86.79 145.2 88.74 145.31 92.35 146.58 95.31 148.26 96.85 147.61 97.98 150.09 100.09 149.74 100.94 152.35 104.51 152.17 109.92 154.12 111.08 155.22 114.17 156.6 114.74 155.84 116.43 151.76 118.31 150.05 119.95 148.02 120.54 147.07 122.17 147.88 125.99 147.3 127.31 143.71 129.94 142.23 132.35 143.22 136.29 143.16 140.43 143.63 142.41 144.88 143.25 145.74 145.32 147.69 147.55 145.21 148.36 143.81 148.23 140.89 149.34 140.47 150.65 137.65 150.82 135.91 154.07 135.17 157.01 134.27 158.06 134.74 159.85 133.48 162.24 134.4 164.29 135.86 165.84 137.44 172.06 133.56 173.86 132.97 175.11 130.62 175.87 129.33 175.35 127.91 176.32 129.58 179.44 130.36 183.13 128.78 185.44 127.66 189.36 124.15 191.87 122 194.99 119.97 196.21 116.81 198.85 113.85 200.33 111.92 203.34 108.92 204.99 106.76 205.22 105.34 207.03 105.36 211.9 103.86 212.74 104.05 208.77 102.35 208.6 100.55 209.86 99.83 208.23 100.02 203.19 100.97 199.04 99.46 194.84 99.46 188.63 99.19 186.52 100.72 184.11 100.58 178.9 98.68 175.11 99.65 172.59 100.07 169.26 105.51 163.17 102.49 161.3 101.89 156.55 100.65 154.31 101.57 152.52 101.13 149.27 98.25 146.06 98.2 145 96.16 144.58 92.39 145.63 91.42 144.8 87.68 145.58 86.64 145.29 83.73 146.6 82.37 145.72 80.3 146.77 77.9 146.06 76.32 144.7 75.08 145.12 70.79 143.66 66.85 145.53 65.71 144.97 63.75 145.34 62.36 147.01 60.47 147.45 57.56 149.12 56.46 148.49 54.28 149.12 51.56 148.3 50.17 146.79 48.67 146.19 47.29 141.87 45.95 142.06 44.11 139.25 42.82 136.43 37.6 128.52 36.8 127.79 36.46 123.84 34.68 121.89 34.08 118.3 34.2 116.8 32.84 116.02 31.21 109.71 32.52 105.71 32.57 101.85 31.26 99.16 30.78 96.46 29.71 95.57 28.95 92.97 26.65 90.61 25.31 90.64 23.56 88.99 20.8 87.99 17.86 86.42 13.68 83.46 10.31 79.31 8.51 78.07 2.44 72.63 1 68.65 4.03 63.53 6.63 61.08 7.53 58.73 7.43 56.45 5.34 53.28 7.46 52.22 8.49 50.29 8.97 47.11 10.36 43.08 11.33 42.61 13.33 38.99 15.51 36.53 16.88 34.3 19.94 32.49 20.19 29.71 21.41 29.42 22.91 27.61 28.84 25.32 31.85 25.77 34.91 24.5 36.85 24.43 38.39 20.99 40.31 19.89 41.71 17.27 42.87 16.37 47.48 9.69 49.03 8.97 50.29 7.32 53.55 4.53 58.12 7.42 59.41 9.09 62.51 9.39 Z" id="31280350"/>
<path d="M 535.27 95.24 535.19 99.9 533.77 103.18 534.12 106.33 534.04 110.36 535.45 114.69 534.08 115.78 534.7 118.08 533.93 120.21 536.21 122.53 535.82 124.84 537.15 125.87 537.48 131.61 538.29 132.71 538.04 136.36 539.61 138.97 541.32 138.01 541.81 139.27 546.15 137.7 546.64 139.96 548.43 139.8 549.44 141.02 549.14 144.99 549.59 147.19 550.65 149.3 552.79 151.14 557.01 152.94 557.17 157.71 558.23 160.1 557.27 165.17 556 165.45 554.85 169.16 552.73 171.63 552.19 173.33 550.45 174.03 549.71 177.12 551.04 182.11 550.36 185.41 549.41 187.66 547.87 189.66 546.33 190.36 545.11 192.47 547.82 196.72 551.62 201.16 552.51 201.69 553.41 205.92 550.13 206.77 551.09 212.68 551.85 214.69 553.12 215.93 553.17 217.4 556.95 222.27 560.64 224.51 562.74 226.67 563.6 228.51 565.86 230.75 569.45 233.3 573.46 233.59 572.89 241.75 568.71 243.27 568.26 247.01 568.79 249.39 568.8 252.13 567.76 252.36 563.8 249.95 561.78 249.81 559.99 248.14 558.21 247.72 555 247.86 552.34 249.6 551.27 252.41 548.82 253.07 548.17 255.56 548.74 257.59 546.59 261.51 544.64 262.84 542.26 263.23 541.75 265.1 540.27 266.32 538.92 265.89 536.87 268.25 534.15 272.3 534.08 274.82 533.12 277.61 530.79 277.8 530.33 279 528.81 279.22 527.08 278.11 523.43 278.7 521.97 278.1 520.72 276.57 519.3 276.14 517.71 278.41 514.24 281.7 512.23 284.47 508.6 285.98 507.67 288.21 507.58 292.27 505.99 293.71 505.39 297.93 504.48 299 502.58 303.28 500.73 304.22 500.41 306.48 500.79 308.82 500.28 310.59 497.51 313.54 494.48 315.87 490.24 315.18 488.02 314.38 486.72 316.61 484.75 316.66 480.91 323.3 474.98 326.69 473.84 323.91 469.99 321.83 466.6 319.2 461.61 314.2 457.85 308.31 453.76 304.5 452.17 301.04 450.28 294.79 450.26 292.47 451.09 289.39 453.59 285.08 450.43 281.89 449.71 275.38 447.26 265.67 445.72 264.2 433.57 258.32 426.6 255.96 421.43 249.68 413.67 246.26 409.29 242.34 397.15 240.76 394.27 239.84 389.22 236.55 385.01 231.02 379.77 226.84 372.87 223.06 363.73 220.85 364.29 211.03 360.73 213.99 356.45 216.53 352.14 216.28 348.1 212.9 344.16 208.91 342.3 207.43 339.99 204.45 336.46 200.89 332.04 199.7 327.38 197.72 327.43 196.29 324.32 194.28 323.61 193.18 317.13 188.02 323.31 181.6 316.42 178.31 316.52 174.06 315.19 169.36 314.97 166.45 314.21 163.75 312.63 159.97 312.48 156.83 313.93 153.93 315.79 152.09 312.18 149.19 304.52 139.48 303.12 134.32 297.44 134.24 300.04 132.5 304.68 123.4 304.56 120.07 302.8 100.66 302.31 90.95 300.04 81.23 298.52 78 304.86 78.11 309.12 78.72 310.67 79.51 312.9 82.85 314.31 82 318.73 81.75 321.3 80.84 322.17 78.46 323.38 78.16 328.57 78.61 329.8 75.68 329.31 74.35 330.6 70.85 336.28 70.42 337 68.83 337.02 66.16 340.76 64.22 345.15 65.2 345.82 66.04 349.29 68.15 352.99 68.05 354.79 66.96 356.03 68.37 355.99 70.15 357.99 71.53 359.14 74.2 360.12 78.84 360.92 79.03 362.7 77.15 366.97 74.66 366.81 73.45 371.68 72.5 374.24 77.48 377.37 74.8 381.91 73.55 382.18 71.8 384.94 70.27 386.18 70.87 387.7 70.1 389.68 67.93 390.59 66.15 394.85 64.67 397.15 64.54 398.16 63.32 399.83 65.54 399.83 68.5 401.35 71.53 403.48 70.75 404.56 69.46 405.31 65.89 408.91 64.23 409.64 62.1 409.14 59.12 408.14 55.99 406.91 54.93 407.23 51.99 408.99 52.19 409.76 49.89 410.97 49.06 413.92 48.87 415.41 48.94 417.46 52.12 421.34 54.3 422.29 52.92 425.78 53.06 430.63 51.92 431.94 52.19 434.92 51.59 437.42 51.98 438.48 55.03 443.34 55.51 445.32 56.94 446.26 58.61 447.58 59.01 451.27 57.88 454.36 60.26 453.55 62.74 455.89 64.71 457.37 64.98 458.22 66.55 461.28 66.93 464.01 66.75 464.97 69.47 466.95 68.07 468.09 69.65 472.47 71.23 474.04 74.34 475.44 75.7 475.33 77.93 476.97 80.7 477.65 82.68 478.79 83.51 480.56 82.09 484.54 80.92 486.21 77.68 488.99 75.65 491.09 73.27 491.51 71.73 495.04 72.66 497.72 72.42 499.05 73.41 502.41 73.08 503.23 71.9 505.55 72.23 507.45 71.85 510.69 71.95 511.67 73.95 513.2 74.94 514.64 77.32 514.53 78.26 518.84 81.13 520.54 81.71 521.23 83.95 524.23 85.56 525.57 86.87 525.59 89.78 527.85 92.32 529.74 93.57 533.43 95.21 535.27 95.24 Z" id="31280360"/>
<path d="M 667.1 79.34 668.87 80.65 670.81 85.06 672.27 86.86 672.65 89.94 674.43 90.18 677.45 91.96 677.73 93.04 680.16 93.8 679.94 97.35 682.43 101.34 680.9 103.01 680.94 105.13 682.01 106.92 680.78 109.59 680.77 111.27 678.97 111.59 677.69 113.13 670.83 118.16 670.17 120.8 666.8 121.45 663.74 124.26 661.31 125.29 659.21 128.44 658.11 131.66 657.81 136.97 656.81 138.5 658.84 146.14 657.55 148.45 658.28 149.65 657.13 156.96 657 159.05 651.26 162 651.89 167.16 653.05 167.56 652.89 169.25 654.08 172.06 653.81 176.03 653.14 177.1 655.18 180.02 657.94 181.47 660.69 182.3 663.16 184.22 665.7 186.78 666.35 188.28 670.09 185.12 670.67 183.52 672.42 181.91 677.57 184.27 678.55 184.3 679.99 185.91 681.65 186.11 685.71 187.59 686.6 186.2 689.43 183.93 691.65 183.72 693.15 184.27 692.89 186.5 693.36 189.43 694.11 189.9 694.89 196.19 696.43 202.05 697.99 203.24 700.18 206.71 700.03 209.01 700.87 209.8 700.81 215.13 702.55 216.45 704.06 219.21 703.73 221.38 705.34 223.4 707.45 222.2 708.81 222.65 710.26 225.4 712.39 227.27 712.61 229.16 713.78 230.48 712.86 232.43 714.19 234.09 714.54 235.81 717.51 237.62 717.35 240.02 718.38 244.2 717.41 247.15 717.81 248.36 721.98 251.23 720.67 254.1 723.07 254.28 724.51 256 726.88 256.85 729.56 257.12 729.75 258.81 732.97 261.02 735.49 264 735.37 265.49 736.22 269.54 735.47 273.34 735.52 276.57 736.62 279.62 736.75 283.24 735.68 284.21 736.18 286.33 733.62 292.03 730.68 294.2 729.34 296.72 730.07 299.28 729.47 301.97 730.48 306.11 728.04 308.38 727.75 312.93 727.98 315.36 726.93 316.23 728.52 322.65 731.27 323.31 731.48 325.78 732.19 327.26 731.01 329.6 729.64 329.49 728.72 332.7 724.84 332.2 724.42 331.62 721.25 331.57 719.11 329.86 717.81 330.93 716.33 330.33 710.6 333.71 707.04 334.75 705.79 336.38 703.74 336.28 701.47 335.11 699.6 336.24 694.16 335.14 690.82 334.14 688.89 335.44 682.99 334.99 680.92 333.52 678.24 334.16 677.47 333.23 675.02 332.13 673.77 330.16 671.59 329.53 668.98 332.3 666.33 337.27 664.3 339.63 663.3 341.58 660.98 342.29 660.02 341.01 657.5 344.15 654.51 343.44 652.89 348.18 650.35 348.54 649.12 351.16 648.98 354.31 649.48 356.09 648.23 356.79 646.86 359.76 644.98 361.63 645.61 365.25 644.28 367.6 644.62 371.11 642.09 373.24 637.82 378.19 635.83 381.79 631.49 385.17 627.66 386.13 622.76 386.01 620.01 387.9 612.98 390.58 611.17 389.05 608.76 390.91 606.43 391.85 605.66 392.88 603.52 391.36 602.64 389.41 603.2 382.64 602.75 381.17 597.89 377.75 592.94 377.92 590.94 374.34 590.83 370.43 593.54 368.44 598.47 367.45 600.55 365.72 600.71 362.74 601.8 360.99 598.54 355.35 597.84 353.03 597.53 349.74 594.72 350.18 593.79 349.07 591.13 347.37 591.14 344.93 589.93 343.81 589.74 339.66 588.81 339.55 585.32 341.04 584.34 340.51 584.16 336.48 584.78 335.47 583.91 333.52 581.04 331.8 577.47 327.35 575.53 327.28 571.63 321.53 571.61 320.08 569.88 320.22 567.32 318.85 564.24 319.72 563.44 319.47 560.21 316.6 557.91 314.99 559.15 310.09 558.77 307.88 559.29 306.15 558.99 303.11 561.58 298.33 561.74 293.54 563.77 290.81 564.51 288.9 562.94 287.05 563.65 284.85 565.04 283.88 565.28 280.42 567.24 281.73 568.63 280.3 569.48 277.96 570.85 276.44 572.27 275.92 573.61 274.28 572.37 269.33 574.25 267.14 573.29 264.59 571.71 263.73 570.51 264.13 569.43 262.16 568.69 258.14 569.85 257.11 569.83 255.08 568.8 252.13 568.79 249.39 568.26 247.01 568.71 243.27 572.89 241.75 573.46 233.59 569.45 233.3 565.86 230.75 563.6 228.51 562.74 226.67 560.64 224.51 556.95 222.27 553.17 217.4 553.12 215.93 551.85 214.69 551.09 212.68 550.13 206.77 553.41 205.92 552.51 201.69 551.62 201.16 547.82 196.72 545.11 192.47 546.33 190.36 547.87 189.66 549.41 187.66 550.36 185.41 551.04 182.11 549.71 177.12 550.45 174.03 552.19 173.33 552.73 171.63 554.85 169.16 556 165.45 557.27 165.17 558.23 160.1 557.17 157.71 557.01 152.94 552.79 151.14 550.65 149.3 549.59 147.19 549.14 144.99 549.44 141.02 548.43 139.8 546.64 139.96 546.15 137.7 541.81 139.27 541.32 138.01 539.61 138.97 538.04 136.36 538.29 132.71 537.48 131.61 537.15 125.87 535.82 124.84 536.21 122.53 533.93 120.21 534.7 118.08 534.08 115.78 535.45 114.69 534.04 110.36 534.12 106.33 533.77 103.18 535.19 99.9 535.27 95.24 536.7 94.98 544.89 88.1 547.34 86.56 549.26 83.62 548.59 79.57 549.98 77.13 551.41 72.9 553.69 71.9 554.37 70.46 557.02 66.91 558.5 63.54 559.93 62.51 564.56 65.29 565.93 65.23 569.8 66.21 574.12 68.76 576.34 69.54 576.95 71.47 579.57 73.71 580.77 76.38 582.58 74.91 586.85 74.41 593.24 75.38 598.53 72.82 601.75 73.93 603.14 72.74 604.57 72.54 606.66 74.07 608.4 71.22 613.27 68.84 617.13 70.25 618.66 71.2 619.5 73.42 623.7 75.63 622.74 81.3 621.62 82.46 620.85 91.28 617.25 91.03 617.16 94.2 616.51 98.88 615.52 112.26 616.48 112.31 621.08 110.37 622.47 109.21 623.5 106.19 625.03 104.29 628.29 103.38 630.27 103.63 635 102.3 637.12 99.69 639.11 99.12 640.24 97.46 641.75 96.48 645.26 92.27 645.12 90.46 647.39 86.96 649.75 86.63 651.73 87.95 653.75 86 656.77 85.54 657.84 84.18 659.98 83.5 660.26 82.61 662.65 80.84 664.45 80.69 667.1 79.34 Z" id="31280370"/>
<path d="M 778.76 194.95 779.45 197.04 780.58 197.62 782.12 200.59 782.31 204.25 780.55 209.45 780.87 211.33 778.39 214.7 780.33 217.67 780.99 220.96 779.35 224 779.29 226.52 780.76 230.47 781.56 233.78 777.88 236.57 776.43 238.8 777.09 245.28 775.68 248.79 775.75 252.32 777.73 255.8 776.87 259.46 777.91 261.65 778.18 264.14 779.87 264.17 781.68 265.61 781.4 268.92 782.23 270.9 782.07 275.75 784.01 278.06 784.21 279.39 786.71 282.78 783.91 284.11 783.33 286.14 780.07 289.83 776.95 292.51 777.69 293.87 779.96 294.5 781.39 296.63 781.32 298.44 783.43 303.04 784.47 307.03 786.53 312.46 786.9 314.92 785.13 318.59 788.66 326.86 791.36 327.96 792.02 329.01 791.82 332.85 791.34 334.2 792.29 335.41 793.01 339.1 792.73 340.41 794.52 342.39 795.46 346.46 798.41 349.76 799 353.02 798.61 355.15 798.84 357.39 797.54 362.73 797.55 367.64 798.4 368.73 798.68 371.32 796.44 370.59 793.24 371.67 790.66 370.62 787.78 370.44 785.64 369.48 779.61 372.42 778.64 374.46 775.81 375.25 773.98 378.58 771.64 379.86 769.53 381.73 766.49 381.58 764.66 381.98 761 381.17 759.36 383.38 758.74 388.39 759.67 391.02 759.49 393.24 760.23 394.16 759.8 397.38 761.51 399.85 764.96 403.39 766.14 405.9 767.39 405.36 769.18 408.78 769.44 411.67 771.85 416.1 770.42 416.13 768.45 418.15 774.12 428.96 773.61 430.93 776.53 432.69 774.64 434.99 774.58 436.84 776.84 437.37 777.66 436.78 779.6 437.4 779.22 438.59 780.37 440.86 780.83 443.32 780.15 443.96 780.7 446.8 782.53 447.49 781.87 450.51 780.26 451.65 781.09 454.85 780.27 456.13 783.17 459.01 780.37 465.16 781.53 467.15 780.64 471.74 779.29 473.14 778.5 475.54 778.83 476.9 776.53 482.63 775.98 486.24 776.83 488.04 775.43 489.2 769.86 497.42 766.31 503.32 760.58 515.22 759.42 518.04 756.27 527.75 754.12 537.45 754.38 545.98 755.02 553.69 756.64 557.76 754.4 564.94 754.85 566.57 755.03 571.96 749.2 571.22 737.06 570.2 724.92 568.72 712.78 568.95 704.84 566.57 696.83 566.57 694.87 567.45 688.5 566.57 676.36 564.33 670.62 567.4 664.22 566.57 656.81 567.54 644.7 565.26 639.94 564.64 636.47 562.05 634.86 560.26 630.97 555.02 629.9 552.12 629.04 546.87 626.6 540.16 624.49 531.66 622.83 527.75 618.53 518.04 615.66 508.33 613.81 506.99 613.82 498.63 613.31 494.95 611.97 490.55 611.15 488.92 614.32 477.11 615.66 474.16 617.78 471.13 618.33 469.51 618.62 464.76 620.1 459.8 621.32 452.42 621.52 445.75 621.08 442.95 619.82 440.39 616.57 430.68 614.45 426.18 612.5 420.97 609.57 415.57 609.1 411.27 609.63 405.87 605.39 401.56 601.46 398.36 605.66 392.88 606.43 391.85 608.76 390.91 611.17 389.05 612.98 390.58 620.01 387.9 622.76 386.01 627.66 386.13 631.49 385.17 635.83 381.79 637.82 378.19 642.09 373.24 644.62 371.11 644.28 367.6 645.61 365.25 644.98 361.63 646.86 359.76 648.23 356.79 649.48 356.09 648.98 354.31 649.12 351.16 650.35 348.54 652.89 348.18 654.51 343.44 657.5 344.15 660.02 341.01 660.98 342.29 663.3 341.58 664.3 339.63 666.33 337.27 668.98 332.3 671.59 329.53 673.77 330.16 675.02 332.13 677.47 333.23 678.24 334.16 680.92 333.52 682.99 334.99 688.89 335.44 690.82 334.14 694.16 335.14 699.6 336.24 701.47 335.11 703.74 336.28 705.79 336.38 707.04 334.75 710.6 333.71 716.33 330.33 717.81 330.93 719.11 329.86 721.25 331.57 724.42 331.62 724.84 332.2 728.72 332.7 729.64 329.49 731.01 329.6 732.19 327.26 731.48 325.78 731.27 323.31 728.52 322.65 726.93 316.23 727.98 315.36 727.75 312.93 728.04 308.38 730.48 306.11 729.47 301.97 730.07 299.28 729.34 296.72 730.68 294.2 733.62 292.03 736.18 286.33 735.68 284.21 736.75 283.24 736.62 279.62 735.52 276.57 735.47 273.34 736.22 269.54 735.37 265.49 735.49 264 732.97 261.02 729.75 258.81 729.56 257.12 726.88 256.85 724.51 256 723.07 254.28 720.67 254.1 721.98 251.23 717.81 248.36 717.41 247.15 718.38 244.2 717.35 240.02 717.51 237.62 714.54 235.81 714.19 234.09 712.86 232.43 713.78 230.48 712.61 229.16 712.39 227.27 710.26 225.4 708.81 222.65 707.45 222.2 705.34 223.4 703.73 221.38 704.06 219.21 702.55 216.45 700.81 215.13 700.87 209.8 700.03 209.01 700.18 206.71 697.99 203.24 696.43 202.05 694.89 196.19 694.11 189.9 693.36 189.43 692.89 186.5 693.15 184.27 694.52 183.08 697.06 183.06 700.18 182.26 702.43 183.44 706.05 181.43 706.87 179.67 708.73 178.19 711.81 176.94 711.55 173.6 714.62 170.73 717.01 172.01 719.48 171.18 720.53 172.95 723.34 174.6 723.78 175.86 725.36 176.25 728.1 178.06 729.1 179.28 732.47 181.26 733.95 183.33 735.89 181.79 738.8 183 740.8 186.47 743.11 187.79 744.51 187.76 748.9 190.26 754.12 189.22 756.73 190.01 759.05 188.8 762.93 188.61 764.27 191.22 766.18 191.19 768.54 192.17 772.65 195.13 775.3 194.88 777.43 194.01 778.76 194.95 Z" id="31280380"/>
<path d="M 474.98 326.69 478.31 333.62 482.13 337.25 474.58 333.96 475.48 337.11 474.69 339.99 474.33 344.07 472.65 346.98 472.88 349.07 471.65 350.62 471.47 352.63 473.45 356.55 471.81 361.33 471.48 364.14 473.63 370.05 473.48 373.29 473.75 377.3 475.46 376.8 477.41 378.28 478.73 377.59 480.75 380.91 482.23 382.54 482.45 384.3 485.03 389.25 487.8 390.11 486.5 392.33 483.98 392.45 482.47 394.39 479.29 396.56 477.2 397.24 473.53 403.01 475.12 405.18 473.79 407.18 472.6 407.15 466.98 408.9 462.53 407.87 458.94 408.13 456.65 409.08 452.42 411.94 448.73 406.24 447.95 406.51 444.5 405.87 439.34 407.14 438.83 406.45 434.37 406.63 435.16 407.53 434.76 410.3 432.75 414.31 430.69 413.73 428.16 414.74 429.65 417.29 430.03 418.86 432.6 419.09 434.7 420.7 434.04 423.49 434.53 426 435.58 427.55 436.38 431.01 435.24 432.21 433.37 432.27 433.12 434.2 434.4 437.49 432.76 440.39 432.76 448.65 433.15 450.55 432.16 451.24 434.66 452.72 437.28 459.15 438.9 461.1 439.15 463.86 438.31 466.97 436.63 468.54 438.64 471.32 438.59 472.37 437.07 474.44 437.52 476.87 440.43 479.58 440.06 482.37 437.86 487.26 439.18 491.07 437.24 495.52 435.78 497.74 435.83 501.68 436.44 503.89 436.42 506.35 435.43 509.27 433.57 511.73 430.41 513.76 428.23 513.51 424.44 514.12 422.3 516.2 421.37 516.12 418.16 511.18 415.98 510.1 413.8 510.68 410.61 515.19 407.56 515.3 401.98 513.36 400 514.02 398.12 515.85 396.2 515.95 394.06 517.5 392.06 517.32 388.71 515.76 384.14 516.32 382.05 517.29 381.37 515.32 381.5 511.34 379.79 509.36 376.87 507.28 375.12 508.31 373.75 507.56 371.55 504.83 369.42 503.95 368.59 501.89 366.11 498.44 362.03 499.31 360.18 497.33 358.66 498.95 356.18 499.9 353.31 500.34 351.12 508.48 348.89 507.22 345.87 506.29 344.1 508.47 343.54 510.28 337.48 503.84 336.88 502.12 336.9 491.99 336.57 490.58 333.77 485.62 333.1 483.94 332.71 477.64 333.41 473.14 327.76 476.31 326.12 478.02 325.5 481.41 327 483.55 327.44 485.38 324.34 485.67 322.83 487.48 324.44 497.15 323.07 498.63 322.17 503.8 321.36 505.24 318.48 506.89 315.95 506.81 314.77 508.27 314.27 510.76 314.91 514.2 313.34 514.77 311.42 517.19 308.86 517.36 305.64 521.63 303.09 522.21 301.97 521.76 302.3 520.38 300.43 518.24 298.66 514.45 300.04 512.2 302.03 510.95 302.54 507.32 303.98 505.69 299.07 504.12 297.61 500.37 296.16 499.58 294.25 496.5 293.61 496.42 292.06 493.63 291.09 488.43 291.52 482.52 290.04 473.88 289.24 471.5 287.05 467.79 286.86 464.7 285.67 461.14 285.77 459.42 284.64 453.36 284.86 450.8 283.92 448.62 286.2 445.02 286.4 439.81 287.56 436.7 287.64 434.82 288.63 431.14 290.71 427.9 291.03 421.01 293.14 416.74 295.54 414.56 294.89 410.91 295.44 407.13 300.53 407.1 303.7 403.23 304.14 401.57 305.72 400.75 306.98 398.26 310.46 396.5 311.26 394.87 313.26 393.35 316.31 388.48 317.67 387.65 322.14 386.42 324.32 386.58 328.96 385.55 332.67 383.98 340.75 382.52 344.9 380.03 352.31 380.23 353.46 377.9 356.74 374.44 359.03 372.44 360.74 371.69 362.6 369.58 363.31 366.39 365.68 363.09 365.4 360.25 366.31 357.75 370.67 355.35 371.73 353.03 370.94 349 371.95 348.29 372.24 345.26 370.34 344.93 368 343.4 368.88 340.54 372.44 338.09 372.48 335.86 371.23 333.78 371.72 330.86 375.68 331.15 376.13 330.56 375.9 327.44 376.64 323.91 379.43 320.71 383.46 316.96 380.88 313.07 381.15 309.34 381.06 304.5 381.59 302.02 381.95 296.61 381.59 294.79 377.7 291.63 375.58 290.24 375.4 288.76 376.49 285.08 377.93 282.79 378.26 281.08 377.99 275.33 374.37 271.8 373.97 269.38 374.77 265.67 371.12 263.3 370.98 260.9 371.93 259.64 375.67 259.45 377.55 258.84 377.92 255.96 375.83 254.53 372.87 254.13 371.41 252.43 369.93 247.56 364.77 244.68 364.24 243.19 364.9 241.12 367.09 238.86 365.58 235.34 363.32 232.92 362.49 231.41 362.49 226.84 363.73 220.85 372.87 223.06 379.77 226.84 385.01 231.02 389.22 236.55 394.27 239.84 397.15 240.76 409.29 242.34 413.67 246.26 421.43 249.68 426.6 255.96 433.57 258.32 445.72 264.2 447.26 265.67 449.71 275.38 450.43 281.89 453.59 285.08 451.09 289.39 450.26 292.47 450.28 294.79 452.17 301.04 453.76 304.5 457.85 308.31 461.61 314.2 466.6 319.2 469.99 321.83 473.84 323.91 474.98 326.69 Z" id="31280390"/>
<path d="M 601.46 398.36 605.39 401.56 609.63 405.87 609.1 411.27 609.57 415.57 612.5 420.97 614.45 426.18 616.57 430.68 619.82 440.39 621.08 442.95 621.52 445.75 621.32 452.42 620.1 459.8 618.62 464.76 618.33 469.51 617.78 471.13 615.66 474.16 614.32 477.11 611.15 488.92 611.97 490.55 613.31 494.95 613.82 498.63 613.81 506.99 615.66 508.33 618.53 518.04 622.83 527.75 617.11 527.75 617.93 529.16 615.93 531.11 613.37 532.39 612 532.12 608.93 529.83 606.62 531.25 604.67 531.42 602.63 533.55 601.07 532.6 599.67 532.87 594.37 532.47 591.97 531.18 591.7 528.73 590.33 528.7 588.8 531.22 588.79 533.75 586.2 538.62 584.01 540.9 580.8 545.78 580.72 547.16 582.22 550.07 583.38 553.2 582.93 556.14 580.94 558.4 578.76 563.64 578.88 565.05 578.03 567.78 574.66 569.11 567.44 573.45 564.3 576.58 563.34 578.69 561.89 578.66 560.39 580.01 557.39 581.51 553.49 581.22 549.8 582.19 548.86 580.79 543.17 584.91 541.41 587.15 541.94 590.54 543.43 592.24 542.53 596.33 542.97 600.62 543.92 601.35 543.9 603.84 540.04 605.69 539.42 606.94 529.73 607.41 527.47 608.05 528.95 611.72 528.37 613.38 526.96 613.65 522.42 612.53 520.47 613.47 514.74 608.82 512.77 606.5 510.48 606.63 507.85 605.8 505.43 603.49 502.95 602.23 499.7 603.65 497.26 603.61 496.36 602.74 494.57 602.67 492.79 600.89 491.09 600.18 488.59 596.87 484.7 594.51 484.2 593.25 482.41 592.87 482.34 589.74 480.25 589.41 478.41 584.01 479.56 582.11 477.93 580.96 477.58 578.91 478.6 575.25 477.25 572.35 476.73 569.08 473.52 566.21 472.59 564.71 474.01 561.25 472.67 557.73 471.33 556.64 469.09 558.23 466.45 558.52 464.27 557 462.94 557.19 458.52 556.62 456.77 557.27 456.07 555.66 458.91 553.58 458.91 551.56 456.15 549.12 456.21 547.54 454.88 546.61 453.66 546.93 452.31 544.34 453.59 543.48 453.33 541.35 456.6 542.05 458.05 539.83 458.97 539.85 459.27 536.38 460.17 533.19 458.24 523.42 467.56 521.34 468.41 523.42 468.16 525.67 471.01 525.96 472.56 521.4 474.11 520.56 476.51 517.45 482.38 516.64 484.74 518.24 486.27 518.06 487.02 516.42 488.29 515.78 489.89 511.57 490.9 511.11 491.74 509.22 491 506.98 491.93 503.34 489.91 499.27 491.15 497.17 490.57 494.46 492.12 492.88 495.63 490.37 494.78 487.43 494.99 484.27 494.13 481.6 495.24 480.46 495.92 477.57 495.35 474.39 497.89 471.95 499.65 471.56 500.7 469.04 501.86 468.18 501.67 465.72 499.42 464.18 497.92 461.17 499.66 460.39 503.76 465.11 505.87 464.89 508.05 465.55 509.64 464.31 518.85 464.5 519.68 462.72 522.37 461.42 523.95 461.93 529.51 460.02 531.32 458.93 534.35 453.54 532.97 452.25 531.86 447.61 533.04 445.87 533.08 442.54 534.54 439.06 534.14 436.25 533.03 432.84 531.58 432.52 529.73 430.49 528.11 429.6 525.94 429.81 524.01 431.38 522.16 431.76 521.26 429 519.61 428.28 518.43 426.26 514.67 426.19 514.17 424.87 512.52 423.27 511.53 420.4 509.04 418.47 508.05 417.16 504.97 415.15 505.85 411.26 510.19 401.56 510.65 400.21 512.42 399.62 513.28 398.19 513.28 396.5 514.34 392.38 512.5 391.24 512.74 387.32 513.93 386.79 514.73 384.85 516.97 376.29 518.55 376.38 520.95 377.61 524.41 375.69 530.69 382.15 531.76 382.79 542.83 386.21 545.74 391.85 554.97 394 557.68 391.85 558.79 390.22 567.1 391.62 579.24 388.47 587.62 387.73 591.38 391.85 601.46 398.36 Z" id="31280510"/>
<path d="M 482.13 337.25 487.11 343.32 486.91 344.26 488.95 348.72 492.05 353.03 494.27 358.41 494.27 368.05 506.41 370.07 511.13 372.44 515.27 374.94 516.97 376.29 514.73 384.85 513.93 386.79 512.74 387.32 512.5 391.24 514.34 392.38 513.28 396.5 513.28 398.19 512.42 399.62 510.65 400.21 510.19 401.56 505.85 411.26 504.97 415.15 508.05 417.16 509.04 418.47 511.53 420.4 512.52 423.27 514.17 424.87 514.67 426.19 518.43 426.26 519.61 428.28 521.26 429 522.16 431.76 524.01 431.38 525.94 429.81 528.11 429.6 529.73 430.49 531.58 432.52 533.03 432.84 534.14 436.25 534.54 439.06 533.08 442.54 533.04 445.87 531.86 447.61 532.97 452.25 534.35 453.54 531.32 458.93 529.51 460.02 523.95 461.93 522.37 461.42 519.68 462.72 518.85 464.5 509.64 464.31 508.05 465.55 505.87 464.89 503.76 465.11 499.66 460.39 497.92 461.17 499.42 464.18 501.67 465.72 501.86 468.18 500.7 469.04 499.65 471.56 497.89 471.95 495.35 474.39 495.92 477.57 495.24 480.46 494.13 481.6 494.99 484.27 494.78 487.43 495.63 490.37 492.12 492.88 490.57 494.46 491.15 497.17 489.91 499.27 491.93 503.34 491 506.98 491.74 509.22 490.9 511.11 489.89 511.57 488.29 515.78 487.02 516.42 486.27 518.06 484.74 518.24 482.38 516.64 476.51 517.45 474.11 520.56 472.56 521.4 471.01 525.96 468.16 525.67 468.41 523.42 467.56 521.34 458.24 523.42 460.17 533.19 459.27 536.38 458.97 539.85 458.05 539.83 456.6 542.05 453.33 541.35 450.65 541.86 448.97 543.19 446.25 538.78 446.58 538.33 445.16 534.79 444.22 534.77 442.93 532.25 443.25 530.86 442.05 529.9 441.96 528.44 439.56 528.4 437.62 527.42 432.37 523.05 432.5 517.3 435.78 510.36 435.43 509.27 436.42 506.35 436.44 503.89 435.83 501.68 435.78 497.74 437.24 495.52 439.18 491.07 437.86 487.26 440.06 482.37 440.43 479.58 437.52 476.87 437.07 474.44 438.59 472.37 438.64 471.32 436.63 468.54 438.31 466.97 439.15 463.86 438.9 461.1 437.28 459.15 434.66 452.72 432.16 451.24 433.15 450.55 432.76 448.65 432.76 440.39 434.4 437.49 433.12 434.2 433.37 432.27 435.24 432.21 436.38 431.01 435.58 427.55 434.53 426 434.04 423.49 434.7 420.7 432.6 419.09 430.03 418.86 429.65 417.29 428.16 414.74 430.69 413.73 432.75 414.31 434.76 410.3 435.16 407.53 434.37 406.63 438.83 406.45 439.34 407.14 444.5 405.87 447.95 406.51 448.73 406.24 452.42 411.94 456.65 409.08 458.94 408.13 462.53 407.87 466.98 408.9 472.6 407.15 473.79 407.18 475.12 405.18 473.53 403.01 477.2 397.24 479.29 396.56 482.47 394.39 483.98 392.45 486.5 392.33 487.8 390.11 485.03 389.25 482.45 384.3 482.23 382.54 480.75 380.91 478.73 377.59 477.41 378.28 475.46 376.8 473.75 377.3 473.48 373.29 473.63 370.05 471.48 364.14 471.81 361.33 473.45 356.55 471.47 352.63 471.65 350.62 472.88 349.07 472.65 346.98 474.33 344.07 474.69 339.99 475.48 337.11 474.58 333.96 482.13 337.25 Z" id="31280520"/>
<path d="M 568.8 252.13 569.83 255.08 569.85 257.11 568.69 258.14 569.43 262.16 570.51 264.13 571.71 263.73 573.29 264.59 574.25 267.14 572.37 269.33 573.61 274.28 572.27 275.92 570.85 276.44 569.48 277.96 568.63 280.3 567.24 281.73 565.28 280.42 565.04 283.88 563.65 284.85 562.94 287.05 564.51 288.9 563.77 290.81 561.74 293.54 561.58 298.33 558.99 303.11 559.29 306.15 558.77 307.88 559.15 310.09 557.91 314.99 560.21 316.6 563.44 319.47 564.24 319.72 567.32 318.85 569.88 320.22 571.61 320.08 571.63 321.53 575.53 327.28 577.47 327.35 581.04 331.8 583.91 333.52 584.78 335.47 584.16 336.48 584.34 340.51 585.32 341.04 588.81 339.55 589.74 339.66 589.93 343.81 591.14 344.93 591.13 347.37 593.79 349.07 594.72 350.18 597.53 349.74 597.84 353.03 598.54 355.35 601.8 360.99 600.71 362.74 600.55 365.72 598.47 367.45 593.54 368.44 590.83 370.43 590.94 374.34 592.94 377.92 597.89 377.75 602.75 381.17 603.2 382.64 602.64 389.41 603.52 391.36 605.66 392.88 601.46 398.36 591.38 391.85 587.62 387.73 579.24 388.47 567.1 391.62 558.79 390.22 557.68 391.85 554.97 394 545.74 391.85 542.83 386.21 531.76 382.79 530.69 382.15 524.41 375.69 520.95 377.61 518.55 376.38 516.97 376.29 515.27 374.94 511.13 372.44 506.41 370.07 494.27 368.05 494.27 358.41 492.05 353.03 488.95 348.72 486.91 344.26 487.11 343.32 482.13 337.25 478.31 333.62 474.98 326.69 480.91 323.3 484.75 316.66 486.72 316.61 488.02 314.38 490.24 315.18 494.48 315.87 497.51 313.54 500.28 310.59 500.79 308.82 500.41 306.48 500.73 304.22 502.58 303.28 504.48 299 505.39 297.93 505.99 293.71 507.58 292.27 507.67 288.21 508.6 285.98 512.23 284.47 514.24 281.7 517.71 278.41 519.3 276.14 520.72 276.57 521.97 278.1 523.43 278.7 527.08 278.11 528.81 279.22 530.33 279 530.79 277.8 533.12 277.61 534.08 274.82 534.15 272.3 536.87 268.25 538.92 265.89 540.27 266.32 541.75 265.1 542.26 263.23 544.64 262.84 546.59 261.51 548.74 257.59 548.17 255.56 548.82 253.07 551.27 252.41 552.34 249.6 555 247.86 558.21 247.72 559.99 248.14 561.78 249.81 563.8 249.95 567.76 252.36 568.8 252.13 Z" id="31280530"/>
</g>
</svg>