<?xml version="1.0"?>
<svg xmlns="http://www.w3.org/2000/svg" version="1.2" baseProfile="tiny" width="800" height="881" viewBox="0 0 800 881" stroke-linecap="round" stroke-linejoin="round">
<g id="dong">
<path d="M 353.31 359.49 350.83 361.99 348.48 362.75 347.98 363.75 341.1 369.05 344.39 372.41 342.19 372.2 340.18 373.91 339.01 376.05 336.58 379.39 333.95 385.31 333.46 390.84 333.72 395.45 334.59 399.79 336.89 408.73 338.52 412.82 340.32 415.99 341.56 419.84 343.94 422.71 346.96 427.33 347.73 429.04 351.46 432.7 353.84 434.21 360.06 437.06 363.73 437.96 372.61 437.87 375.43 437.45 378.49 437.54 386.99 435.65 392.96 433.19 398.73 428.65 399.75 426.63 401.05 421.93 401.68 417.78 401.68 404.5 402.74 400.13 402.25 397.23 402.63 394.91 401.9 393.16 402.36 388.54 404.76 388.7 406.09 384.66 407.96 381.75 412.22 377.38 414.8 376.35 423.42 374.44 426.37 374.39 434.61 375.88 440.7 377.73 445.79 380.23 448.71 381.38 456.93 383.87 459.44 387.27 462.87 390.34 466.66 394.27 471.59 399.79 471.78 401.38 472 408.67 471.47 414.34 470.68 417.7 468.16 422.02 466.77 426.62 460.91 435.57 456.98 442.36 453.47 446.91 452.89 453.46 451.66 456.16 445.79 463.47 443.34 467.01 439.61 474.75 436.35 480.3 435.52 483.06 436.22 489.25 436.05 493.78 437.82 504.94 439.46 516.09 441.8 525.15 443.74 533.99 445.79 538.55 450.43 551.88 452.6 556.58 448.63 559.28 447.1 562.96 445.69 561.15 444.23 557.99 441.79 558.12 440.95 561.08 441.17 564.26 440.74 565.87 439.43 566.85 437.67 565.89 435.64 563.86 433 563.58 429.79 565.36 428.97 567.49 427.2 569.56 427.86 570.9 425.81 574.48 425.91 577.85 426.57 579.27 425.17 579.73 422.78 578.4 421.8 576.58 419.8 575.48 420.46 574.26 420.76 571.05 419.38 567.86 417.94 568.02 417.69 565.84 415.56 565.43 415.56 564 414.4 562.12 415.11 557.12 415.79 556.12 414.38 554.12 414.39 551.98 412.72 549.98 413.35 548.13 415.51 546.95 414.07 543.75 411.9 543.4 411.29 544.16 405.5 547.63 404.34 549.43 399.68 548.02 397.67 546.34 395.7 545.31 395.14 542.68 393.84 544.46 393.28 546.45 393.77 548.76 391.16 550.58 389.97 549.09 387.59 548.01 387.26 546.33 384.99 545.86 382.75 543.01 381.03 544.08 377.04 543.45 375.1 543.6 370.62 541.13 366.46 541.57 364.6 540.62 361.46 539.95 356.88 541.53 354.09 540.26 353.06 539.17 349.34 540.5 349.56 543.2 348.15 547.47 345.9 548.81 344.1 550.44 341.86 548.91 339.77 549.52 337.4 549.26 333.39 546.19 330.22 548.49 329.42 549.63 325.46 550.83 324.07 550.7 323.46 548.34 319.54 545.02 317.35 546.97 316.47 547.15 315.44 545.25 313.81 544.01 312.46 541.86 311.08 542.19 306.85 538.67 305.51 538.84 300.75 537.13 299.03 537.12 297.3 535.94 296.33 533.78 298.65 531.12 299.34 529.5 298.96 527.51 297.08 524.46 297.12 522.65 298 521.51 297.04 517.09 298.09 515.96 299.19 510.49 298.38 509.83 297.44 507.63 297.72 503.82 295.9 499.11 292.92 498.65 290.68 496.9 288.46 495.86 286.79 496 284.72 496.98 283.1 497.01 280.59 496 279.12 493.67 276.6 494.88 274.87 494.93 272.16 496.08 271.47 497.33 268.93 498.95 266.3 499.64 262.16 501.49 260.95 505.76 259.49 507.05 261.89 510.3 260.4 512.45 261.17 514.14 261.29 516.59 260.77 518.02 262.05 520.1 261.79 522.25 264.34 524.94 263.32 527.79 263.57 528.63 261.94 529.87 260.3 533.27 260.53 535.98 259.98 537.37 261.8 541.55 260.36 544.67 259.01 546.07 261.38 547.7 262.78 547.38 264.23 549.08 265.68 551.93 264.2 553.69 262.27 555.1 260.69 553.98 256.87 554.18 254.68 553.14 253.67 552.12 251.79 551.62 249.73 552.33 248.69 551.8 246.18 552.01 244.46 551.31 239.77 551.61 238.22 551.21 236.47 552.23 235.62 551.92 233.56 548.73 231.26 546.67 229.95 546.16 229.98 542.64 228.44 540.6 224.39 539.46 223.4 537.09 220.93 536.61 219.95 535.67 219.17 532.75 218.23 531.55 215.1 530.21 212.76 527.14 211.27 526.72 209.85 525.16 212.46 523.81 213.61 519.73 214.54 518.61 213.48 516.8 211.5 516.26 209.58 514.78 204.91 513.02 202.27 512.56 201.23 511.53 195.93 511.03 194.91 510.33 193.46 510.73 191.84 512.48 189.84 511.59 186.72 509.01 185.55 507.63 181.85 506.46 177.97 505.95 174.37 504.4 173.32 503.22 172.34 498.98 169.3 499.94 165.89 502.8 164.58 502.75 162.34 500.57 159.24 500.34 157.61 498.87 156.48 494.7 154.64 493.66 152.72 493.39 151.05 490.49 147.51 489.95 147.35 485.17 146.48 484.47 144.58 477.9 145.35 473.67 146.88 472.46 148.03 473.02 150.21 472.93 150.48 470.99 151.35 469.22 153.53 467.33 151.5 464.71 146.61 463.05 146.29 461.21 145.47 460.42 144.04 460.88 141.56 460.54 139.97 460.84 138.6 458.1 138.03 454.13 141.02 453.67 142.69 452.42 143.14 450.2 145.68 446.35 145.33 444.43 146.53 442.71 147.65 442.52 149.17 436.26 151.88 432.7 152.41 432.8 155.93 429.72 159.32 427.87 161.3 425.63 163.74 425.76 166.13 424.32 169.28 425.08 170.81 424.07 171.1 422.02 173.33 419.75 177.68 420.73 180.77 420.9 181.76 420.13 181.91 417.25 183.97 416.43 186.63 417.99 187.86 417.71 190.42 413.93 192.83 414.1 194.61 411.95 194.05 411.01 194.68 408.07 195.98 405.9 195.52 403.81 196.84 398.89 198.23 396.71 197.28 393.33 199.52 390.27 201.78 388.52 202.23 383.73 203.03 381.71 204.9 381.86 207.89 380.32 210.58 378.31 214.14 376.74 216.12 377.3 219.39 373.49 220.86 371.11 223.67 372.04 225.67 370.48 229.83 368.74 229.99 365.5 234.81 360.26 236.74 359.14 239.6 360.12 244.76 359.68 248.58 361.8 249.8 363.67 253.05 363.78 257.08 361.83 259.23 362.35 262.95 367.49 266.12 368.24 268.67 370.48 269.89 373.78 271.32 375.05 272.53 378.24 272.3 379.97 274.22 379.53 275.13 381.64 277.83 383.06 279.6 385.38 279.12 387.33 279.88 388.45 281.27 386.96 280.38 385.71 282.46 384.18 282.6 383.42 285.47 384 285.05 386.79 286.71 385.73 288.79 380.71 289.2 378.64 289.21 374.95 293.39 374.27 294.28 374.43 296.61 372.95 299.53 372.95 302.14 373.4 301.91 371.47 304.24 370.21 304.8 369.3 310.81 368.1 313.42 367.35 314.18 365.74 316.22 368.23 319.09 367.16 323.98 364.85 325.91 366.18 329.25 366.82 330.68 366.43 334.68 366.82 335.6 367.65 338.6 367.52 341.14 365.19 341.18 364.01 345.13 364 345.13 355.06 349.53 355.16 350.85 354.84 355.3 355.06 353.31 359.49 Z" id="31550350"/>
<path d="M 775.72 239.4 775.04 239.71 772.57 243.65 770.02 245.48 769.86 246.74 767.89 248.47 766.56 250.76 764.05 253.69 765.29 256.18 764.95 257.19 765.49 259.67 765.28 263.74 763.96 265.14 763.13 267.61 762.81 272.39 763.37 274.04 761.24 276.28 759.99 279.71 760.84 283.38 763.09 290.59 764.34 292.6 764.27 295.57 762.86 299.26 761.66 300.95 761.96 301.96 763.63 303.55 765.08 306.49 764.59 308.05 765.69 313.95 765.95 317.49 767.3 320 768.64 321.49 768.75 324.54 767.4 327.55 767.58 329.61 768.41 331.23 766.13 335.69 766.36 337.64 764.98 340.53 762.7 343.35 762.72 346.58 761.46 348.26 760.92 351.02 763.09 352.68 764.28 357.87 764.13 360.31 764.58 364.28 764.12 366.66 764.2 369.11 764.75 371.08 764.85 374.74 765.3 377.66 766.13 379.95 766.18 381.48 765.05 383.67 763.58 388.45 763.69 389.88 762.73 392.32 763.06 393.6 761.96 395.28 760.85 395.71 759.81 397.69 758.33 398.75 757.44 399.45 756.55 401.54 755.58 401.93 753.62 404.2 751.17 405.32 750 407.35 749.96 409.04 747.86 409.53 746.4 410.72 744.62 411.2 744.21 412.93 741.91 414.32 740.98 416.2 736.49 416.16 734.91 413.94 732.79 413.82 729.67 411.94 728.11 412.48 725.68 414.69 722.13 418.55 718.09 419.35 716.93 420.83 715.32 420.47 713.95 421.04 711.9 419.96 709 420.16 707.53 421.31 706.13 419.84 704.27 419.72 704.08 417.58 701.87 416.02 701.25 413.31 699.99 411.43 699.55 408.87 698.45 406.56 696.72 404.52 694.32 403.45 693.61 402.31 691.15 401.93 689.54 401.2 687.72 395.85 685.95 392.66 683.59 390.93 683.19 386.14 682.72 383.82 681.69 382.67 677.56 381.19 676.77 380.05 673.99 379 672.47 375.87 669.48 375.22 664.12 373.21 662.79 371.29 657.69 371.65 654.73 371.12 652.11 371.59 648.14 370.68 646.04 369.41 644.1 369.78 641.86 368.85 640.08 367.1 639.62 365.59 637.25 365.07 636.25 363.17 634.32 364.27 633.57 363.2 631.97 363.4 627.65 361.13 625.92 362.59 619.76 361.85 617.57 362.58 613.11 361.34 612 360.36 611.26 358.43 611.57 355.8 611.01 354.26 609.56 353.01 611.17 349.7 612.43 344.79 612.52 341.96 611.94 339.74 610.62 337.16 610.02 332.19 608.03 332.12 606.94 331.01 605.38 327.05 603.39 325.16 602.9 323.22 601.84 321.7 602.16 319.45 600.31 317.88 600.33 315.6 597.36 312.35 595.15 313.23 593.99 311.8 593.57 309.99 590.23 307.7 586.78 304.64 586.72 302.43 585.32 300.96 585.3 298.81 584.48 295.77 584.15 291.32 585.02 289.81 584.11 289.03 584.4 286.92 586.67 284.29 588.65 282.67 588.75 279.34 585.78 277.87 582.3 278.77 580.87 278.18 578.66 279.57 577.12 278.11 574.64 280.54 572.53 280.64 572.41 283.95 572.71 285.8 572.34 287.67 570.5 289.14 569.8 292.67 567.38 293.45 565.79 293.03 563.4 294.03 562.66 297.1 560.3 297.22 557.38 300.8 558.31 304.41 556.29 306.91 556.47 308.17 555.09 310.56 552.39 310.01 550.7 310.75 547.32 309.99 545.6 311 544.02 312.88 542.75 312.16 541.37 310.32 543.12 304.31 544.16 300.1 542.72 298.32 538.62 296.46 539.17 290.08 541.36 286.33 541.17 281.59 538.87 279.32 537.3 276.13 536.55 273.73 535.25 272.98 532.82 272.61 529.99 272.76 527.27 271.17 526.16 268.95 526.19 265.63 524.17 262.48 524.11 260.98 520.6 259.47 519.13 256.7 518.35 254.28 519.27 251.72 516.36 247.49 515.19 244.25 514.91 241.33 515.85 240.37 516.49 238.18 517.76 236.95 517.57 233.92 519.82 230.52 519.87 227.94 521.33 226.55 520.91 224.42 519.39 221.17 518.09 219.55 513.19 215.08 513.18 213.46 515.56 210.32 516.86 205.81 516.57 204.6 512.92 200.6 510.69 199.71 509.44 197.8 507.49 196.86 506.23 194.47 505.48 192.12 503.96 191.89 502.3 190.86 498.05 189.97 493.04 190.51 489.99 191.65 486.3 190.14 484.61 191.01 482.94 190.34 479.89 187.73 478.26 188.34 475.84 188.48 473.98 186.22 472.16 185.3 469.52 181.64 469.54 179.88 472.01 177.76 473.49 174.72 474.36 169.11 476.26 167.35 478.25 164.53 478.09 162.86 479.59 160.73 479.44 156.88 476.62 154.71 473.78 154.79 471.67 156.95 470.6 156.18 467.72 155.79 464.95 155.84 463.78 154.92 462.56 155.64 460.02 154.71 456.22 154.71 455.37 153.87 454.55 149.13 453.08 146.02 449.76 143.47 445.87 143.85 443.77 143.45 443.4 142.49 441.65 141.87 440.13 140.39 440.52 137.53 441.59 136.23 441.49 134.34 443.09 133.63 442.88 128.79 445.08 126.94 444.96 125.55 446.12 122.1 446.09 119.6 447.7 118.45 448.05 115.78 449.24 115.81 449.35 114.08 452.04 112.15 456.97 110.49 458.57 110.32 459.46 109.29 462.26 108.26 464.04 106.05 466.16 104.34 467.93 102.01 468.14 100.16 467.53 98.53 465.93 97.05 465.76 94.62 463.78 93.81 463.02 92.24 466.69 90.44 467.49 90.93 469.27 94.58 471.48 91.84 473.12 91.35 476.97 93.62 478.42 92.95 482.94 89.71 482.91 85.78 481.61 84.36 483.51 83.66 484.17 85.41 487.22 85.13 490.2 84.02 491.37 82.11 493.5 81.66 495.86 77.85 496.49 75.5 495.48 74.2 495.73 72.64 497.55 70.39 498.33 71.55 499.72 69.17 498.85 68.05 500.63 64.64 502.77 64.53 502.22 61.94 503.48 60.33 509.5 58.64 510.66 57.99 513.8 57.29 518.58 58 520.98 58.64 524.79 58.08 526.1 59.35 527.96 59.89 530.35 58.52 530.97 56.5 532.58 55.56 535.19 52.14 535.22 50.88 538.38 50.46 539.14 49.13 540.65 48.84 543.43 49.93 547.22 48.75 549 47.09 551.5 47.24 551.85 45.14 551.45 42.96 554.56 40.95 555.84 39.75 557.82 40.35 558.89 40.02 561.54 36.19 564.54 29.34 563.91 27.27 564.87 26.9 567.28 27.54 571.6 26.06 572.5 24.03 571.49 19.32 569.05 14.75 570.19 11.54 573.01 10.7 574.82 9.47 575.69 8.07 576.82 9.51 580.19 9.1 584.33 6.15 587 6.15 587.05 7.18 589.94 8.44 590.74 10.18 593.76 7.43 597.36 7.44 598.89 6.15 602.19 6.2 602.36 1.14 603.37 1 608.07 3.17 609.98 4.1 613.55 3.84 618.78 4.01 623.9 4.64 625.36 5.65 626.49 8.01 626.16 9.74 624.74 12.21 619.61 17.52 619.22 20.04 620.91 23.01 624.74 24.97 628.03 25.97 636.53 27.3 638.02 28.05 638.72 29.45 638.28 32.98 635.92 32.98 633.49 35.35 635.42 38.03 635.92 41.93 635.65 48.18 633.33 53.43 633.47 60.46 635.12 65.88 636.65 69.73 637.76 73.86 639.16 75.57 637.8 77.9 638.65 83.67 640.35 87.54 639.94 89.21 637.3 93.61 636.45 95.48 637.08 98.31 637.1 101.31 639.91 103.28 640.99 104.78 641.25 106.82 642.18 107.52 641.75 109.78 644.3 113.77 645.79 114.51 648.54 114.39 650.63 113.32 656.15 118.39 658.31 119.29 658.53 121.03 661.12 121.98 662.88 123.71 666.28 122.23 668.11 120.93 670.03 120.51 672.49 122.01 675.61 121.85 677.63 123.82 678.76 123.82 681.56 121.83 685.35 121.58 686.47 120.4 685.8 116.65 686.43 114.5 690.66 115.52 694 114.28 694.79 112.65 696.09 111.48 697.88 111.54 700.12 112.36 701.44 114.2 702.53 112.56 702.39 111.56 706.69 107.39 708.47 107.44 710.33 105.63 711.04 102.8 710.42 101.68 713.52 99.96 717.02 100.12 718.25 100.83 721.98 101.13 723.19 105 725.61 105.81 730.89 108.42 733.3 107.7 735.34 108.23 738.81 108.49 741.67 109.5 740.58 113.17 738.16 118.73 740.11 122.26 740.95 124.49 739.6 125.72 738.68 131.51 736.76 134.65 735.53 139.65 735.67 141.97 738.9 146.37 738.82 148.56 737.91 149.67 735.47 157.39 736.68 157.78 737.3 159.7 740.08 161.84 744.06 165.38 744.53 166.15 747.92 166.8 751.42 168.88 757.21 171.51 758.94 175.31 758.56 176.4 759.08 180.94 762.13 185.65 765.02 191.38 763.25 197.12 762.4 197.69 761.75 200.84 760.06 201.83 754.24 209.67 754.41 210.84 760.09 216.49 762.73 220.63 764.31 224.19 765.92 226.74 772.95 236.22 774.53 237.35 775.72 239.4 Z" id="31550360"/>
<path d="M 440.13 140.39 441.65 141.87 443.4 142.49 443.77 143.45 445.87 143.85 449.76 143.47 453.08 146.02 454.55 149.13 455.37 153.87 456.22 154.71 460.02 154.71 462.56 155.64 463.78 154.92 464.95 155.84 467.72 155.79 470.6 156.18 471.67 156.95 473.78 154.79 476.62 154.71 479.44 156.88 479.59 160.73 478.09 162.86 478.25 164.53 476.26 167.35 474.36 169.11 473.49 174.72 472.01 177.76 469.54 179.88 469.52 181.64 472.16 185.3 473.98 186.22 475.84 188.48 478.26 188.34 479.89 187.73 482.94 190.34 484.61 191.01 486.3 190.14 489.99 191.65 493.04 190.51 498.05 189.97 502.3 190.86 503.96 191.89 505.48 192.12 506.23 194.47 507.49 196.86 509.44 197.8 510.69 199.71 512.92 200.6 516.57 204.6 516.86 205.81 515.56 210.32 513.18 213.46 513.19 215.08 518.09 219.55 519.39 221.17 520.91 224.42 521.33 226.55 519.87 227.94 519.82 230.52 517.57 233.92 517.76 236.95 516.49 238.18 515.85 240.37 514.91 241.33 515.19 244.25 516.36 247.49 519.27 251.72 518.35 254.28 519.13 256.7 520.6 259.47 524.11 260.98 524.17 262.48 526.19 265.63 526.16 268.95 527.27 271.17 529.99 272.76 532.82 272.61 535.25 272.98 536.55 273.73 537.3 276.13 538.87 279.32 541.17 281.59 541.36 286.33 539.17 290.08 538.62 296.46 542.72 298.32 544.16 300.1 543.12 304.31 541.37 310.32 542.75 312.16 544.02 312.88 545.6 311 547.32 309.99 550.7 310.75 552.39 310.01 555.09 310.56 555.46 312.91 554.93 313.91 555.82 315.47 554.12 320.86 555.37 323.15 554.79 324.9 551.37 326.09 552.5 329.46 551.71 332.01 550.73 333.31 548.79 334.47 545.7 337.58 541.43 339.99 540.08 341.65 538.48 342.51 535.17 342.18 531.93 344.57 531.57 347.66 528.33 349.53 529.47 352.71 528.5 356.31 528.59 357.63 524.89 360.63 522.51 360.56 521.39 361.22 521.05 362.92 519.82 364.19 519.45 365.74 514.86 369.75 513 370.35 512.85 371.91 511.47 373.82 509.1 373.83 507.33 374.87 504.89 378.89 504.7 381.69 503.28 383.45 502.77 386.09 498.83 388.93 495.19 390.6 493.84 390.86 492.6 392.53 492.1 395.53 491.3 397.48 487.27 398.84 484.83 398.74 481.45 397.67 478.16 400.47 475.16 401.2 471.78 401.38 471.59 399.79 466.66 394.27 462.87 390.34 459.44 387.27 456.93 383.87 448.71 381.38 445.79 380.23 440.7 377.73 434.61 375.88 426.37 374.39 423.42 374.44 414.8 376.35 412.22 377.38 407.96 381.75 406.09 384.66 404.76 388.7 402.36 388.54 401.9 393.16 402.63 394.91 402.25 397.23 402.74 400.13 401.68 404.5 401.68 417.78 401.05 421.93 399.75 426.63 398.73 428.65 392.96 433.19 386.99 435.65 378.49 437.54 375.43 437.45 372.61 437.87 363.73 437.96 360.06 437.06 353.84 434.21 351.46 432.7 347.73 429.04 346.96 427.33 343.94 422.71 341.56 419.84 340.32 415.99 338.52 412.82 336.89 408.73 334.59 399.79 333.72 395.45 333.46 390.84 333.95 385.31 336.58 379.39 339.01 376.05 340.18 373.91 342.19 372.2 344.39 372.41 341.1 369.05 347.98 363.75 348.48 362.75 350.83 361.99 353.31 359.49 356.01 360.74 357.34 357.26 356.17 356.6 359.81 345.6 361.98 345.65 361.8 342.25 360.6 338.73 359.1 335.74 356.25 333.21 353.4 331.97 349.53 328.89 342.38 321.64 342.71 320.69 339.5 318.09 333.58 313.66 329.2 311.57 326.91 310.01 324.61 306.9 322.76 305.6 322.76 298.78 325.32 295.78 326.39 293.83 326.41 292.43 329.05 292.4 330.24 291.79 330.9 293.73 328.78 293.89 328.18 295.07 328.66 297.84 330.06 299.23 332.15 296.75 333.57 296.16 333.9 295 335.73 294.02 335.36 289.53 335.84 284.1 337.79 284.04 337.08 286.22 337.34 287.94 336.95 289.81 338.78 291.68 340.15 291.37 342.37 289.35 343.96 285.51 345.45 283.49 347.72 283.99 348.55 282.4 350.75 281.36 351.41 279.98 350.03 278.56 351.02 277.55 354.45 277.04 353.19 274.61 354.14 273.71 353.05 272.36 354.61 267.94 353.66 266.56 353.48 264.42 354.75 261.56 354.87 260.35 356.65 259.46 357.17 257.75 355.95 256.7 356.31 255.17 359.18 255.79 360.72 253.64 359.66 252.42 360.07 251.01 361.91 249.83 359.49 248.62 359.99 247.18 358.83 245.98 360.38 241.53 359.07 238.36 357.44 238.51 356 237.17 355.31 235.18 352.45 232.62 348.66 228.16 350.03 225.7 351.18 224.59 352.54 225.73 353.57 223.89 354.7 223.95 356.26 222.88 356.31 207.91 358.86 206.84 362.31 206.71 369.04 207.84 370.85 207.68 372.77 206.71 373.44 202.97 371.76 202.97 371.93 198.4 371.72 194.02 377.45 194.02 379.25 192.83 382.23 192.14 382.38 188.7 383.28 186.75 383.08 185.37 389.87 179 389.87 172.32 388.89 172.13 387.46 168.89 386.09 168.07 385.13 164 384.11 162.51 382.87 161.87 383.49 159.95 383.05 158.93 385.09 156.36 383.18 152.69 382.22 151.47 380.82 151.02 380.58 149.01 381.98 146.85 382.53 144.28 385.17 142.65 385.82 140.2 385.35 139.25 386.43 137.08 390.18 137.29 389.69 139.12 396.93 137.72 396.8 140.94 398.34 140.44 399.88 142.35 402.75 140.51 402.51 138.56 403.97 137.7 401.85 134.53 403.61 132.4 405.42 132.14 406.67 134.85 408.73 136.4 408.81 137.81 407.91 140.04 405.12 140.93 407.49 142.05 408.81 144.1 409.6 144.06 410.22 140.53 411.38 139.04 413.36 138.57 413.36 139.85 415.55 140.34 417.28 141.46 418.52 143.11 416.34 145.62 416.99 147.28 418.6 144.33 420.93 145.29 420.87 147.57 422.55 148.37 424.07 148.11 427.5 148.41 428.42 150.93 431.12 151.91 431.81 150.92 429.55 148.79 429.58 147.48 432 148.51 432.43 147.5 432.81 143.28 434.46 141.18 438.19 140.97 440.13 140.39 Z" id="31550370"/>
<path d="M 137.93 621.95 139.38 624.8 140.49 629.42 143.71 634.47 147.63 636.66 152.56 641.29 154.94 643.06 158.92 644.64 162.66 644.83 169.1 650.48 170.5 653.38 173.75 656.32 177.44 658.1 179.51 659.45 183.66 660.61 185.26 661.7 186.8 663.73 186.89 665.92 181.98 669.06 176.2 671.64 172.71 673.79 169.93 676.26 169.77 679.04 173.37 680.86 175.48 684.04 176.29 690.76 177.32 692.62 179.4 695.1 182.68 695.16 186.46 696.14 188.45 695.87 189.65 695.03 191.09 690.73 194.98 689.42 199.29 690.01 202.25 691.03 205.09 690.58 209.56 689.06 213.54 690.02 215.3 692.97 218.58 697.2 220.22 701.52 220.79 703.96 220.8 713.53 224.24 713.53 231.09 715.52 222.11 714.93 219.73 714.23 216.8 714.37 211.54 718.38 210.51 721.86 210 739.75 210.92 748.69 211.32 750.2 212.15 757.64 214.11 765.91 216.26 765.74 216.77 771.72 216.52 776.83 215.83 777.99 213.65 777.47 210.92 781.3 209.22 782.69 199.74 785.22 198.25 785.76 191.66 784.61 188.56 783.62 177.37 777.66 173.9 775.53 171.2 773.42 166.51 766.59 161.6 761.73 156.57 757.64 155 755.91 146.83 748.7 143.82 745.27 137.23 739.75 132.63 736.35 128.9 735.14 125.33 734.82 121.45 736.14 117.41 739.75 110.26 747.39 109.61 749.5 107.69 753.73 105.66 762.44 104.56 775.54 103.93 784.48 102.48 793.43 99.08 800.36 99.07 790.74 93.28 791.8 93.77 789.83 91.87 790.19 89.33 789.54 90.08 792.53 89 794.34 88.57 796.3 86.39 798.2 84.38 801.24 82.96 800.07 79.67 802.13 78.1 802.5 75.78 805.05 73.4 805.36 72.35 804.77 69.48 807.1 67.69 804.95 65.79 804.45 66.03 802.79 64.39 800.41 64.5 798.59 61.89 798.35 61.96 795.66 63.21 795.31 65.1 791.87 65.16 790.66 63.3 789.27 62.98 785.64 61.28 785.23 60.81 783.77 59.08 784.07 58.01 782.61 58.34 781.23 56.45 778.81 53.37 777.59 51.64 778.89 46.85 778.41 46.13 777.16 46.48 774.17 44.38 773.09 43.48 773.33 41.9 770.96 40.37 770.6 39.97 768.78 43.16 769.18 47.14 767.86 49.91 765.49 47.99 764.71 47.12 762.75 45.25 764 43.95 763.91 41.7 761.44 41.8 759.45 43 757.1 41.55 755.93 41.11 750.48 38.69 749.18 37.99 746.91 34.19 745.47 34.03 743.24 32.79 741.11 32.17 738.35 30.78 735.89 30.73 734.49 29.29 732.44 29.78 728.96 30.47 727.08 31.77 726.14 35.51 723.89 36.86 721.44 38.34 720.28 42.69 718.4 43.91 717.25 46.37 717.27 46.78 718.12 49.48 716.78 52.57 716.79 55.19 717.5 55.84 719.44 57.36 719.16 59.77 720.09 60.72 718.52 62.61 718.84 64.48 717.45 66.83 716.97 69.05 718.23 69.66 719.21 72.68 719.54 75.23 720.89 79.06 719.5 80.24 720.32 81.84 720.41 86.4 719.11 88.08 717.33 87.2 713.95 89.13 710.82 88.45 709.67 89.2 708.42 90.19 705.24 85.33 704.44 82.12 702.36 83.12 700.68 82.92 695.14 82.32 694.15 81.66 690.51 83.85 688.43 85.22 685.97 84.61 684.73 85.49 681.8 85.4 680.21 84.44 678.58 84.92 677.01 86.35 675.49 88.21 671.23 89.26 667.36 88.94 664.21 90.78 663.32 92.07 663.36 92.87 662.18 91.13 657.35 90.89 654.99 93.25 654.9 95.45 653.2 96.58 654.66 99.23 653.46 97.86 651.31 96.56 648.17 97.48 645.7 100.9 642.37 101.26 638.57 103.89 637.04 101.02 634.86 102.34 632.55 104.39 630.95 104.93 628.5 104.48 627.06 107.07 623.04 109.1 619.87 111.39 619.88 113.25 621.36 117.42 621.91 119.87 619.31 121.41 618.58 125.09 618.65 128.31 620.9 132.31 621.37 132.88 620.27 134.43 622.42 137.03 623.05 137.93 621.95 Z" id="31550380"/>
<path d="M 758.33 398.75 761.46 403.1 765.01 403.31 766.73 404.55 771.47 406.43 776.2 407.62 779.89 415.83 780.28 418.24 780.79 431.51 780.43 436.29 781.18 440.52 780.39 444.97 781.09 448.74 781.59 458.23 782.91 461.87 782.71 464.77 783.96 469.19 783.14 474.13 785.92 476.75 788.19 477.98 788.16 479.12 789.31 480.35 791.14 484.15 792.51 484.38 793.53 486.37 796.76 488.7 796.9 490.23 798.05 491.61 798.87 494.44 799 496.78 798.06 501.01 796.77 503.15 795.81 506.7 796.27 508.07 793.89 511.79 793.64 514.62 794.01 516.81 793.91 521.26 794.55 524.37 794.42 526.14 795.35 529.56 794.79 534.01 793.44 536.83 793.48 538.55 792.51 539.69 792.51 541.23 789.62 541.47 785.08 542.98 782.18 543.14 772.43 539.12 767.9 537.41 764.32 536.83 761.21 536.9 757.16 538.79 754.71 540.8 752.18 544.45 751.19 546.97 748.47 548.56 746.23 548.74 743.88 548.28 740.51 546.38 737.05 545.03 733.1 544.24 729.64 544.36 726.49 547.42 723.64 551.24 719.91 555.57 714.98 558.08 712.39 557.3 711.65 556.53 709.18 550.87 708.77 545.75 710.54 537.95 711.65 531.61 711.39 529.06 709.06 526.71 705.42 521.73 703.3 520.26 700.08 520.83 693.68 527.5 692.96 530.07 693.35 532.84 693.16 536.66 690 539.1 686.76 539.17 685.4 539.78 681.73 542.86 677.79 548.47 675.93 550.39 673.71 552.02 670.4 553.83 667.66 552.5 664.93 549.93 658.02 548.63 653.92 549.33 649.06 552.01 645.9 560.83 642.35 560.45 639.57 558.44 635.77 558.58 629.06 557.12 627.18 557.11 624.28 556.11 621.17 554.24 619.57 550.74 618.09 551.22 615.32 548.22 613.56 547.87 611.75 546.67 607.17 545.77 605.49 544.34 604.13 545.59 601.81 546.24 597.81 544.63 596.36 543.26 595.04 544.12 593.3 546.57 590.2 546.73 588.69 547.85 586.96 548.24 581.37 547.66 578.22 545.69 575.87 544.83 568.83 547.4 566.29 548.5 561.38 550.15 560.25 550.26 556.52 551.91 555.21 551.32 552.36 550.99 550.63 551.79 548.34 553.64 546.84 553.96 544.68 553.3 542.56 552.08 540.29 551.59 539.18 548.95 544.03 550.28 548.29 550.15 549.56 549.06 549.66 547.49 546.45 541.01 548.75 538.97 551 535.54 551.16 532.96 552.55 530.35 555.97 528.53 557.07 527.08 557.68 523.81 557.5 519.62 556.74 515.15 554.98 513.35 555.62 510.28 555.49 508.3 552.83 508.76 551.28 510.92 549.51 511.17 547.82 513.46 547.34 516.38 544.17 519.08 541.98 519.35 537.41 518.89 535.41 519.96 533.83 517.95 532.47 514.6 532.19 511.3 533.61 509.51 533.73 507.62 532.63 506.27 532.32 504.4 533.46 503.7 533.47 500.47 533.97 499.72 533.89 497.22 534.62 495.94 534.59 493.95 535.27 491.62 534.82 488.71 535.26 487.19 533.82 485.73 531.91 482.19 530.29 480.23 530.77 478.97 530.8 475.82 529.46 473.07 530.8 467.72 529.34 466.55 531.52 462.48 533.86 459.59 534.1 456.47 532.65 453.38 532.97 451.65 532.13 450.7 532.97 449.42 532.08 445.26 534.34 443.19 534.17 442.25 536.65 439.01 538.14 437.73 540.35 437.18 542.53 435.05 545.76 432.44 547.06 432.08 547.76 430.61 549.03 426.19 546.43 422.51 546.32 420.71 544.9 419.2 544.14 416.05 543.29 414.99 543.64 412.93 545.8 410.15 547.02 409.7 547.77 407.77 549 406.37 548.94 405.32 551.61 405.27 554.51 400.11 554.23 397.76 555.12 394.93 555.86 394.64 556.08 391.52 554.71 387.03 554.41 384.04 553.1 383.66 548.98 384.15 543.87 381.55 540.38 381.58 541.46 380.08 541.11 376.83 540.36 377.18 538.88 375.36 538.93 374.28 535.65 372.01 535.14 369.71 533.25 368.71 531.58 369.47 528.7 365.59 526.96 364.39 523.14 362.96 521.05 362.92 521.39 361.22 522.51 360.56 524.89 360.63 528.59 357.63 528.5 356.31 529.47 352.71 528.33 349.53 531.57 347.66 531.93 344.57 535.17 342.18 538.48 342.51 540.08 341.65 541.43 339.99 545.7 337.58 548.79 334.47 550.73 333.31 551.71 332.01 552.5 329.46 551.37 326.09 554.79 324.9 555.37 323.15 554.12 320.86 555.82 315.47 554.93 313.91 555.46 312.91 555.09 310.56 556.47 308.17 556.29 306.91 558.31 304.41 557.38 300.8 560.3 297.22 562.66 297.1 563.4 294.03 565.79 293.03 567.38 293.45 569.8 292.67 570.5 289.14 572.34 287.67 572.71 285.8 572.41 283.95 572.53 280.64 574.64 280.54 577.12 278.11 578.66 279.57 580.87 278.18 582.3 278.77 585.78 277.87 588.75 279.34 588.65 282.67 586.67 284.29 584.4 286.92 584.11 289.03 585.02 289.81 584.15 291.32 584.48 295.77 585.3 298.81 585.32 300.96 586.72 302.43 586.78 304.64 590.23 307.7 593.57 309.99 593.99 311.8 595.15 313.23 597.36 312.35 600.33 315.6 600.31 317.88 602.16 319.45 601.84 321.7 602.9 323.22 603.39 325.16 605.38 327.05 606.94 331.01 608.03 332.12 610.02 332.19 610.62 337.16 611.94 339.74 612.52 341.96 612.43 344.79 611.17 349.7 609.56 353.01 611.01 354.26 611.57 355.8 611.26 358.43 612 360.36 613.11 361.34 617.57 362.58 619.76 361.85 625.92 362.59 627.65 361.13 631.97 363.4 633.57 363.2 634.32 364.27 636.25 363.17 637.25 365.07 639.62 365.59 640.08 367.1 641.86 368.85 644.1 369.78 646.04 369.41 648.14 370.68 652.11 371.59 654.73 371.12 657.69 371.65 662.79 371.29 664.12 373.21 669.48 375.22 672.47 375.87 673.99 379 676.77 380.05 677.56 381.19 681.69 382.67 682.72 383.82 683.19 386.14 683.59 390.93 685.95 392.66 687.72 395.85 689.54 401.2 691.15 401.93 693.61 402.31 694.32 403.45 696.72 404.52 698.45 406.56 699.55 408.87 699.99 411.43 701.25 413.31 701.87 416.02 704.08 417.58 704.27 419.72 706.13 419.84 707.53 421.31 709 420.16 711.9 419.96 713.95 421.04 715.32 420.47 716.93 420.83 718.09 419.35 722.13 418.55 725.68 414.69 728.11 412.48 729.67 411.94 732.79 413.82 734.91 413.94 736.49 416.16 740.98 416.2 741.91 414.32 744.21 412.93 744.62 411.2 746.4 410.72 747.86 409.53 749.96 409.04 750 407.35 751.17 405.32 753.62 404.2 755.58 401.93 756.55 401.54 757.44 399.45 758.33 398.75 Z" id="31550110"/>
<path d="M 645.9 560.83 643.55 570.07 641.57 574.78 643.94 580.81 650.16 589.31 653.13 592.18 653.73 593.53 652.89 596.01 647.96 601.47 647 602.9 641.9 605.55 636.12 609.05 632.76 610.43 629.53 611.25 627.47 611.13 624.22 609.27 622.18 605.55 622.88 602.21 624.84 601.78 627.47 600.04 628.53 596.72 627.08 593.78 624.78 592.27 617.85 591.32 615.82 589.75 610.83 580.02 613.15 574.3 616.16 569.76 617.21 563.57 612.76 560.2 608.14 563.05 603.48 563.41 600.08 562.22 594.74 554.9 591.7 554.24 587.33 554.75 579.72 562.94 577.93 569.66 579.05 573.47 577.29 584.7 581.8 594.28 582.26 600.56 578.22 607.98 571.91 623.44 569.26 632.39 569.2 636.24 570.88 641.33 571.69 642.32 574.07 648.2 574.4 650.28 575.54 653.15 576.92 659.23 576.92 663.92 568.82 677.12 561.74 680.84 558.5 686.56 556.95 687.8 548 689.4 545.68 689.3 545.43 693.25 544.74 694.5 544.73 697.07 543.74 697.7 543.21 700.88 541.76 702.91 541.52 706.29 539.59 708.67 541.43 712.18 541.29 715.09 540.75 716.39 538.2 717.36 537.11 718.97 536.36 722.04 536.87 725.19 535.36 725.97 534.68 728.9 533.94 730.12 529.51 733.58 527.51 736.08 527.81 737.8 529.12 739.14 529.61 742.55 528.2 744.5 527.69 746.72 526.88 747.7 526.63 749.67 524.38 752.72 519.08 754.28 518.94 762.18 515.81 763.5 514.92 765.82 512.7 766.02 511.32 768.26 510.26 768.62 509.62 771.39 510.49 775.62 511.18 776.13 510.53 779.31 509.24 781.88 508.3 786.49 507.29 786.87 506.8 789.71 505.77 791.92 505.95 793.22 505.08 795.43 504.07 796.44 503.69 800 504.11 800.96 502.48 802.26 499.57 806.48 497.38 807.53 496.02 807.22 493.38 808.72 490.72 807.67 488.88 808.25 487.49 807.96 483.31 811.78 479.4 811.09 478.57 811.36 477.85 814.62 476.49 816.55 476.78 818.87 477.65 821.13 477.18 824.53 477.63 825.92 478.82 826.79 478.37 829.79 475.42 833.43 475.73 838.62 476.49 841.46 475.84 842.4 474.03 842.85 473.85 846.07 473.13 847.64 472.02 848.06 471.12 849.76 468.17 851.22 465.98 851.46 464.14 850.28 462.02 850.72 459.8 856.2 454.43 859.71 453.29 862.47 453.14 864.72 452.24 866.31 452 869.35 449.83 872.06 450.23 873.34 448.77 876 446.74 876.71 444.9 878.68 443.7 878.43 441.01 880 438.83 877.94 434.3 876.32 432.21 871.46 430.66 871.94 430.65 869.9 426.57 867.33 424.08 866.91 423.83 864.1 424.54 862.59 424.57 860.56 421.95 859.92 418.89 862.7 418.5 864.07 416.56 865.93 414.97 866.72 413.53 865.75 410.42 865.77 409.71 864.39 407.9 862.87 407.5 861.54 407.82 859.48 404.95 859.25 403.89 860.2 400.88 859.83 399.38 860.66 397.08 859.58 395.36 856.63 394.6 854.39 392.19 853.95 388.88 854.14 385.69 855.72 383.88 855.98 382.46 857.33 380.36 856.13 379.28 856.18 373.74 853.55 372.41 852.04 367.82 845.6 368.81 844.59 372.14 843.4 373.33 841.28 375.29 839.49 375.19 837.53 377.19 835.73 376.18 834.16 376.13 831.44 376.72 829.77 376.9 826.94 377.84 824.15 377.23 822.07 383.48 818.09 386.36 815.63 389.82 814.29 392.53 811.75 394.45 810.9 395.52 811.13 399.3 809.91 400.4 807.31 399.39 804.92 399.82 803.38 398.81 800.61 399.53 799.02 398.71 796.58 398.96 794.79 400.32 792.38 401.18 791.99 400.76 789.64 403.37 787.65 404.55 785.65 404.53 782.94 405.46 781.48 409.37 781.59 412.53 782.36 416.93 782.43 419.71 780.48 422.42 780.28 425.27 780.56 427.92 777.05 429.25 773.52 428.59 770.62 427.3 767.69 429.3 766.58 429.97 763.96 431.11 763.15 434.32 763.25 435.93 766.67 437.3 766.58 442.6 762.97 444.47 760.18 445.62 757.74 444.72 755.94 443.82 752.08 445.37 750.35 445.13 748.31 445.67 743.94 445.08 742.08 446.2 741.43 446.62 740.03 448.54 739.6 452.32 737.77 454.22 736.27 455.5 734.19 453.78 730.56 453.67 728.91 452.35 726.24 453.45 721.77 451.06 719.77 448.66 718.51 447.9 717.53 444.75 718.49 442.41 718.4 441.65 718.88 438.97 717.24 436.51 716.62 431.48 716.85 429.08 715.59 427.97 713.62 425.61 711.45 424.47 712.07 422.8 710.77 421.19 708.76 421.06 706.48 419.43 704.78 418.33 701.44 417.17 699.77 415.31 699.83 411.99 698.31 411.88 696.86 409.34 695.08 408.79 692.57 406.1 688.99 404.95 686.88 400.63 682.57 401.46 676.99 403.57 678.3 404.97 677.98 408.1 675.89 410.92 674.4 417.09 672.61 421.18 673.67 424.9 675.3 428.33 680.36 429.72 683.15 431.88 685.56 443.6 690.06 445.8 691.84 449.04 692.24 454.13 690.49 460.21 686.07 463.78 681.23 465.13 677.12 465.94 672.52 466.7 669.63 467.39 665.05 469.81 660.42 471.09 659.23 473.74 658.03 479.35 656.57 488.59 653.57 503.88 651.51 513.73 650.67 517.29 647.75 521.82 646.5 524.65 645.96 528.48 644.52 528.69 641.51 527.5 638.96 524.09 637.15 521.04 634.62 520.05 632.39 519.47 628.66 520.17 625.84 521 624.24 522.16 623.44 522.79 619.64 525.03 615.88 527.69 613.46 536.09 604.03 536.72 602.99 538.15 597.6 537.88 594.82 537.2 593.08 534.91 590.76 531.04 589.21 530.09 588.52 530.13 586.9 535.39 584.92 536.41 583.92 536.6 581.85 535.13 575.3 535.79 569.28 534.67 563.28 534.75 561.59 537.28 556.09 537.24 552.4 536.87 550.7 539.18 548.95 540.29 551.59 542.56 552.08 544.68 553.3 546.84 553.96 548.34 553.64 550.63 551.79 552.36 550.99 555.21 551.32 556.52 551.91 560.25 550.26 561.38 550.15 566.29 548.5 568.83 547.4 575.87 544.83 578.22 545.69 581.37 547.66 586.96 548.24 588.69 547.85 590.2 546.73 593.3 546.57 595.04 544.12 596.36 543.26 597.81 544.63 601.81 546.24 604.13 545.59 605.49 544.34 607.17 545.77 611.75 546.67 613.56 547.87 615.32 548.22 618.09 551.22 619.57 550.74 621.17 554.24 624.28 556.11 627.18 557.11 629.06 557.12 635.77 558.58 639.57 558.44 642.35 560.45 645.9 560.83 Z" id="31550120"/>
<path d="M 539.18 548.95 536.87 550.7 537.24 552.4 537.28 556.09 534.75 561.59 534.67 563.28 535.79 569.28 535.13 575.3 536.6 581.85 536.41 583.92 535.39 584.92 530.13 586.9 530.09 588.52 531.04 589.21 534.91 590.76 537.2 593.08 537.88 594.82 538.15 597.6 536.72 602.99 536.09 604.03 527.69 613.46 525.03 615.88 522.79 619.64 522.16 623.44 521 624.24 520.17 625.84 519.47 628.66 520.05 632.39 521.04 634.62 524.09 637.15 527.5 638.96 528.69 641.51 528.48 644.52 524.65 645.96 521.82 646.5 517.29 647.75 513.73 650.67 503.88 651.51 488.59 653.57 479.35 656.57 473.74 658.03 471.09 659.23 469.81 660.42 467.39 665.05 466.7 669.63 465.94 672.52 465.13 677.12 463.78 681.23 460.21 686.07 454.13 690.49 449.04 692.24 445.8 691.84 443.6 690.06 445.86 683.85 447.76 677.12 448.47 668.17 449.21 663.87 451.37 659.23 457.02 650.28 459.26 644.14 460.44 635.81 460.13 630.39 460.45 623.44 462.78 618.46 466.68 614.5 469.73 609.32 468.98 605.55 469.22 594.16 470.04 579.22 469.42 576.3 468.16 574.61 465.14 571.64 461.93 569.76 456.98 565.47 452.6 556.58 450.43 551.88 445.79 538.55 443.74 533.99 441.8 525.15 439.46 516.09 437.82 504.94 436.05 493.78 436.22 489.25 435.52 483.06 436.35 480.3 439.61 474.75 443.34 467.01 445.79 463.47 451.66 456.16 452.89 453.46 453.47 446.91 456.98 442.36 460.91 435.57 466.77 426.62 468.16 422.02 470.68 417.7 471.47 414.34 472 408.67 471.78 401.38 475.16 401.2 478.16 400.47 481.45 397.67 484.83 398.74 487.27 398.84 491.3 397.48 492.1 395.53 492.6 392.53 493.84 390.86 495.19 390.6 498.83 388.93 502.77 386.09 503.28 383.45 504.7 381.69 504.89 378.89 507.33 374.87 509.1 373.83 511.47 373.82 512.85 371.91 513 370.35 514.86 369.75 519.45 365.74 519.82 364.19 521.05 362.92 523.14 362.96 526.96 364.39 528.7 365.59 531.58 369.47 533.25 368.71 535.14 369.71 535.65 372.01 538.93 374.28 538.88 375.36 540.36 377.18 541.11 376.83 541.46 380.08 540.38 381.58 543.87 381.55 548.98 384.15 553.1 383.66 554.41 384.04 554.71 387.03 556.08 391.52 555.86 394.64 555.12 394.93 554.23 397.76 554.51 400.11 551.61 405.27 548.94 405.32 549 406.37 547.77 407.77 547.02 409.7 545.8 410.15 543.64 412.93 543.29 414.99 544.14 416.05 544.9 419.2 546.32 420.71 546.43 422.51 549.03 426.19 547.76 430.61 547.06 432.08 545.76 432.44 542.53 435.05 540.35 437.18 538.14 437.73 536.65 439.01 534.17 442.25 534.34 443.19 532.08 445.26 532.97 449.42 532.13 450.7 532.97 451.65 532.65 453.38 534.1 456.47 533.86 459.59 531.52 462.48 529.34 466.55 530.8 467.72 529.46 473.07 530.8 475.82 530.77 478.97 530.29 480.23 531.91 482.19 533.82 485.73 535.26 487.19 534.82 488.71 535.27 491.62 534.59 493.95 534.62 495.94 533.89 497.22 533.97 499.72 533.47 500.47 533.46 503.7 532.32 504.4 532.63 506.27 533.73 507.62 533.61 509.51 532.19 511.3 532.47 514.6 533.83 517.95 535.41 519.96 537.41 518.89 541.98 519.35 544.17 519.08 547.34 516.38 547.82 513.46 549.51 511.17 551.28 510.92 552.83 508.76 555.49 508.3 555.62 510.28 554.98 513.35 556.74 515.15 557.5 519.62 557.68 523.81 557.07 527.08 555.97 528.53 552.55 530.35 551.16 532.96 551 535.54 548.75 538.97 546.45 541.01 549.66 547.49 549.56 549.06 548.29 550.15 544.03 550.28 539.18 548.95 Z" id="31550310"/>
<path d="M 647 602.9 647.86 604.19 651.89 605.17 655.35 605.57 659.83 605.16 663.76 606.36 665.52 606.24 668.78 608.69 671.8 608.91 673.91 608.44 677.89 606.89 678.06 608.12 683.13 605.06 684.73 604.79 688.97 606.16 690.32 607.22 691.85 607.08 692.15 612.33 691.17 617.52 687.46 623.8 687.24 626.04 687.54 628.12 690.16 632.07 692.54 634.37 694.22 639.13 693.73 641.91 693.86 644.49 695.86 649.4 697.35 651.48 702.69 657.08 705.42 660.82 709.08 663.83 711.14 663.95 709.96 665.67 709.03 669.03 708.81 671.91 710.26 676.23 710.06 679.4 711.28 684.13 710.83 685.57 710.98 689.07 710.62 693.13 709.63 694.53 708.9 697.35 707.8 699.06 707.73 702.85 708.72 705.68 711.37 709.46 710.74 711.22 709.33 712.61 708.69 715.52 707.36 717.13 706.85 720.39 704.73 721.21 702.84 722.79 700.53 722.25 698.1 720.98 694.25 723.79 689.2 726.16 687 727.65 685.61 729.38 682.27 731.24 680.48 732.81 681.05 734.13 680.78 736.1 678.92 738.53 678.81 740.02 676.97 741.52 676 741.61 674.2 743.17 671.89 744.27 668.67 745.27 667.22 746.67 666.42 749 665.22 750.07 662.77 750.66 662.32 751.34 658.26 753.96 656.56 750.63 655.3 746.53 653.81 744.45 653.91 741.86 652.42 739.25 652.6 738.38 650.13 736.76 648.7 736.8 647.5 735.84 645.22 735.78 644.02 731.8 642.26 729.6 640.86 729.31 637.23 729.67 636.04 730.18 632.54 728.83 628.29 729.73 627.01 727.95 624.09 728.45 619.81 727.34 620.01 730.14 618.08 733.29 613.56 735.31 613.56 736.41 612.4 738.21 610.66 738.76 607.54 738.85 606.15 739.45 603.48 739.09 602.38 739.99 600.26 739.89 599.69 742.08 598.35 743.24 599.12 747.27 600.07 749.24 601.65 755.84 603.52 758.55 603.1 760.84 604.16 764.81 603.47 766.57 601.21 770.27 601.21 772.18 599.23 772.44 597.57 772.04 597.12 770.9 593.12 767.77 589.67 764.57 588.65 762.94 587.1 762.51 585.51 763.58 583.79 763.81 582.29 761.62 580.77 760.39 579.09 760.48 572.83 759.65 569.3 761.26 566.01 759.69 563.75 761.55 559.77 761.46 557.4 761.88 556.19 762.98 553.66 762.82 551.87 763.27 549.14 761.71 546.99 761.42 547.82 757.64 547.96 753.5 544.22 753.34 541.31 752.47 534.78 751.64 533.28 750.72 532.28 751.42 529.28 749.36 527.38 748.85 526.63 749.67 526.88 747.7 527.69 746.72 528.2 744.5 529.61 742.55 529.12 739.14 527.81 737.8 527.51 736.08 529.51 733.58 533.94 730.12 534.68 728.9 535.36 725.97 536.87 725.19 536.36 722.04 537.11 718.97 538.2 717.36 540.75 716.39 541.29 715.09 541.43 712.18 539.59 708.67 541.52 706.29 541.76 702.91 543.21 700.88 543.74 697.7 544.73 697.07 544.74 694.5 545.43 693.25 545.68 689.3 548 689.4 556.95 687.8 558.5 686.56 561.74 680.84 568.82 677.12 576.92 663.92 576.92 659.23 575.54 653.15 574.4 650.28 574.07 648.2 571.69 642.32 570.88 641.33 569.2 636.24 569.26 632.39 571.91 623.44 578.22 607.98 582.26 600.56 581.8 594.28 577.29 584.7 579.05 573.47 577.93 569.66 579.72 562.94 587.33 554.75 591.7 554.24 594.74 554.9 600.08 562.22 603.48 563.41 608.14 563.05 612.76 560.2 617.21 563.57 616.16 569.76 613.15 574.3 610.83 580.02 615.82 589.75 617.85 591.32 624.78 592.27 627.08 593.78 628.53 596.72 627.47 600.04 624.84 601.78 622.88 602.21 622.18 605.55 624.22 609.27 627.47 611.13 629.53 611.25 632.76 610.43 636.12 609.05 641.9 605.55 647 602.9 Z" id="31550320"/>
<path d="M 31.77 726.14 30.66 723.8 29.8 720.15 28.54 720.6 25.79 719.28 23.44 719.16 21.82 717.05 16.45 720.49 15.29 720.59 15.47 722.68 14.11 725.88 12.05 728.62 10.09 729.04 9.46 730.81 5.18 731 1 730.89 1.72 727.83 3.55 726.09 4.28 723.47 2.34 721.32 2.76 719.42 3.98 718.01 2.9 717.11 3.72 715.84 5.26 714.93 4.54 713.58 5.7 712.85 6.51 713.89 8.56 712.99 9.97 710 9.38 708.84 9.45 703.96 17.63 703.97 20.87 704.32 26 703.52 26.36 702.53 28.77 701.47 28.97 703.05 34.08 703.61 33.53 700.85 35.07 699.83 36.26 703.74 37.19 703.85 44.06 702.71 50.98 702.82 52.87 701.78 51.71 699.86 49.57 699.42 51.51 697.57 55.23 697.68 60.04 695.46 62.05 695.06 67.79 688.88 70.1 686.73 73.99 683.72 73.3 682.62 70.56 685.3 67.29 686.44 65.45 685.38 65.52 682.99 68.26 683.8 71.26 682.14 69.23 679.76 65.52 678.89 65.52 676.63 68.64 677.38 69.14 676.53 71.08 677.27 71.53 678.97 74.63 679.87 74.96 678.38 73.97 677.26 73.98 675.15 72.9 672.84 71.67 674.26 70.54 672.33 68.52 674.28 65.77 673.93 65.37 672.33 65.52 669.2 68.72 670.16 70.9 669.6 71.39 668.01 69.82 667.43 70.42 666.05 73.12 665.07 73.07 663.88 71.28 662.21 69.13 661.88 67.27 662.34 65.76 661.88 66.59 660.19 68.1 661.1 73 659.66 76.08 660.94 79.12 658.41 80.22 657.94 79.87 655.69 76.99 654.43 76.71 651.06 77.46 651.13 79.13 648.77 78.99 646.53 80.27 641.99 83.55 642.24 81.9 644.8 81.16 648.73 81.63 650.02 79.99 650.94 79.43 652.32 83.39 653.19 84.85 651.77 84.67 650.87 86.09 649.19 85.96 645.26 87.5 644.84 88.23 647.06 91.54 644.86 91.11 643.63 92.16 642.33 92.11 641.2 90.9 638.78 92.32 636.53 93.94 636.66 93.52 638.25 94.34 639.53 98.51 634.46 106.1 623.69 107.07 623.04 104.48 627.06 104.93 628.5 104.39 630.95 102.34 632.55 101.02 634.86 103.89 637.04 101.26 638.57 100.9 642.37 97.48 645.7 96.56 648.17 97.86 651.31 99.23 653.46 96.58 654.66 95.45 653.2 93.25 654.9 90.89 654.99 91.13 657.35 92.87 662.18 92.07 663.36 90.78 663.32 88.94 664.21 89.26 667.36 88.21 671.23 86.35 675.49 84.92 677.01 84.44 678.58 85.4 680.21 85.49 681.8 84.61 684.73 85.22 685.97 83.85 688.43 81.66 690.51 82.32 694.15 82.92 695.14 83.12 700.68 82.12 702.36 85.33 704.44 90.19 705.24 89.2 708.42 88.45 709.67 89.13 710.82 87.2 713.95 88.08 717.33 86.4 719.11 81.84 720.41 80.24 720.32 79.06 719.5 75.23 720.89 72.68 719.54 69.66 719.21 69.05 718.23 66.83 716.97 64.48 717.45 62.61 718.84 60.72 718.52 59.77 720.09 57.36 719.16 55.84 719.44 55.19 717.5 52.57 716.79 49.48 716.78 46.78 718.12 46.37 717.27 43.91 717.25 42.69 718.4 38.34 720.28 36.86 721.44 35.51 723.89 31.77 726.14 Z M 316.47 547.15 315.97 548.17 312.7 549.85 311.13 549.55 310.4 550.9 310.87 554.33 309.56 556.66 306.28 558.12 304.27 559.76 303.06 561.33 296.28 562.23 295.56 563.43 291.92 564.57 292.5 567.19 294.8 569.29 292.9 572.81 292.92 575.45 291.43 577.32 290.95 579.45 291.59 580.82 291.15 583.21 291.39 584.74 290.76 587.07 289.42 587.96 289.26 593.84 287.58 595 287.23 596.62 283.65 598.9 284.6 601.61 284.96 604.39 284.43 604.67 283.22 607.92 283.9 609.33 281.63 609.97 279.37 612.06 279.08 613.61 277.52 615.41 277.07 617.09 274.94 617.8 274.34 618.84 276.57 621 276.15 625.05 276.54 630.43 278.45 629.25 281.24 631.17 284.82 630.1 285.3 633.05 282.57 633.5 282.67 635.58 283.98 635.69 283.36 637.75 283.79 640.13 286.25 641.85 288.55 642.23 289.77 643.81 291.67 645.2 294.76 644.1 295.45 645.34 296.74 645.23 299.86 646.71 300.96 649.09 302.24 649.66 302.69 653.13 304.27 654.31 304.21 657.58 306.42 657.67 307.14 658.79 308.71 658.19 310.54 658.34 313.04 659.47 313.31 661.52 315.17 661.49 317.66 662.66 318.82 662.37 321.04 664.74 322.73 664.94 324.07 663.46 327.9 662.71 330.69 664.04 331.73 665.6 334.91 666.61 336.58 665.9 338.24 665.99 339.16 664.27 341.26 664.04 343.52 664.9 345.09 663.93 347.38 664.88 348.47 663.22 351.19 662.62 352.15 661.81 352.45 658.87 353.53 658.41 359.68 659.95 359.25 663.94 357.82 668.18 358.74 672.01 362.2 681.79 362.33 686.07 360.66 694.67 361.82 695.01 355.83 699.73 343.61 710.68 342.98 712.91 338.76 721.85 333.95 727.7 329.84 730.8 322.77 735.25 316.3 739.75 311.58 743.47 300.4 748.69 300.4 749.27 289.21 747.02 279.89 743.5 278.03 743.09 272.65 740.62 266.85 737.7 262.25 736.05 260.37 735.78 255.66 733.94 249.22 730.8 244.48 730.8 244.48 723.53 242.29 721.86 237.67 717.69 233.29 715.66 231.09 715.52 224.24 713.53 220.8 713.53 220.79 703.96 220.22 701.52 218.58 697.2 215.3 692.97 213.54 690.02 209.56 689.06 205.09 690.58 202.25 691.03 199.29 690.01 194.98 689.42 191.09 690.73 189.65 695.03 188.45 695.87 186.46 696.14 182.68 695.16 179.4 695.1 177.32 692.62 176.29 690.76 175.48 684.04 173.37 680.86 169.77 679.04 169.93 676.26 172.71 673.79 176.2 671.64 181.98 669.06 186.89 665.92 186.8 663.73 185.26 661.7 183.66 660.61 179.51 659.45 177.44 658.1 173.75 656.32 170.5 653.38 169.1 650.48 162.66 644.83 158.92 644.64 154.94 643.06 152.56 641.29 147.63 636.66 143.71 634.47 140.49 629.42 139.38 624.8 137.93 621.95 137.52 621.14 134.56 619.24 132.6 616.25 131.98 614.49 132.45 607.11 135.98 602.79 136.79 601.23 132.63 594.63 132.63 591.27 134.65 590.58 132.98 589.09 132.63 587.2 132.63 581.18 132.14 578.72 133.1 578.72 132.63 576.08 132.77 572.13 132.37 569.77 136.73 569.77 139.05 569.46 142.78 570.01 144.16 569.25 143.81 567.62 143.81 558.6 143.02 557.92 143.81 555.97 143.81 551.88 132.7 551.88 136.89 550.17 138.13 548.86 141.13 549.08 143.1 548.51 144.26 546.56 145.1 542.2 146.18 541.14 149.01 541.19 151.73 539.4 153.55 537.23 153.76 534.49 156.45 534.09 158.45 533.03 158.7 530.33 159.36 529.22 161.32 529.62 161.87 528.88 160.78 526.55 161.96 523.19 160.8 518.67 163.49 516.78 163.76 514 165.72 509.12 164.58 502.75 165.89 502.8 169.3 499.94 172.34 498.98 173.32 503.22 174.37 504.4 177.97 505.95 181.85 506.46 185.55 507.63 186.72 509.01 189.84 511.59 191.84 512.48 193.46 510.73 194.91 510.33 195.93 511.03 201.23 511.53 202.27 512.56 204.91 513.02 209.58 514.78 211.5 516.26 213.48 516.8 214.54 518.61 213.61 519.73 212.46 523.81 209.85 525.16 211.27 526.72 212.76 527.14 215.1 530.21 218.23 531.55 219.17 532.75 219.95 535.67 220.93 536.61 223.4 537.09 224.39 539.46 228.44 540.6 229.98 542.64 229.95 546.16 231.26 546.67 233.56 548.73 235.62 551.92 236.47 552.23 238.22 551.21 239.77 551.61 244.46 551.31 246.18 552.01 248.69 551.8 249.73 552.33 251.79 551.62 253.67 552.12 254.68 553.14 256.87 554.18 260.69 553.98 262.27 555.1 264.2 553.69 265.68 551.93 264.23 549.08 262.78 547.38 261.38 547.7 259.01 546.07 260.36 544.67 261.8 541.55 259.98 537.37 260.53 535.98 260.3 533.27 261.94 529.87 263.57 528.63 263.32 527.79 264.34 524.94 261.79 522.25 262.05 520.1 260.77 518.02 261.29 516.59 261.17 514.14 260.4 512.45 261.89 510.3 259.49 507.05 260.95 505.76 262.16 501.49 266.3 499.64 268.93 498.95 271.47 497.33 272.16 496.08 274.87 494.93 276.6 494.88 279.12 493.67 280.59 496 283.1 497.01 284.72 496.98 286.79 496 288.46 495.86 290.68 496.9 292.92 498.65 295.9 499.11 297.72 503.82 297.44 507.63 298.38 509.83 299.19 510.49 298.09 515.96 297.04 517.09 298 521.51 297.12 522.65 297.08 524.46 298.96 527.51 299.34 529.5 298.65 531.12 296.33 533.78 297.3 535.94 299.03 537.12 300.75 537.13 305.51 538.84 306.85 538.67 311.08 542.19 312.46 541.86 313.81 544.01 315.44 545.25 316.47 547.15 Z" fill-rule="evenodd" id="31550330"/>
<path d="M 452.6 556.58 456.98 565.47 461.93 569.76 465.14 571.64 468.16 574.61 469.42 576.3 470.04 579.22 469.22 594.16 468.98 605.55 469.73 609.32 466.68 614.5 462.78 618.46 460.45 623.44 460.13 630.39 460.44 635.81 459.26 644.14 457.02 650.28 451.37 659.23 449.21 663.87 448.47 668.17 447.76 677.12 445.86 683.85 443.6 690.06 431.88 685.56 429.72 683.15 428.33 680.36 424.9 675.3 421.18 673.67 417.09 672.61 410.92 674.4 408.1 675.89 404.97 677.98 403.57 678.3 401.46 676.99 401.03 675.54 396.05 677.46 394.59 677.29 394.55 679.07 391.05 678.48 388.66 679.49 386.95 684.42 385.06 683.43 383.6 682.02 382.91 680.44 380.9 680.12 380.6 681.07 377.41 683.58 373.35 684.74 371.74 683.09 370.04 682.95 370.03 684.17 368.12 683.78 366.51 689.08 364.75 688 364.23 690.15 361.82 695.01 360.66 694.67 362.33 686.07 362.2 681.79 358.74 672.01 357.82 668.18 359.25 663.94 359.68 659.95 353.53 658.41 352.45 658.87 352.15 661.81 351.19 662.62 348.47 663.22 347.38 664.88 345.09 663.93 343.52 664.9 341.26 664.04 339.16 664.27 338.24 665.99 336.58 665.9 334.91 666.61 331.73 665.6 330.69 664.04 327.9 662.71 324.07 663.46 322.73 664.94 321.04 664.74 318.82 662.37 317.66 662.66 315.17 661.49 313.31 661.52 313.04 659.47 310.54 658.34 308.71 658.19 307.14 658.79 306.42 657.67 304.21 657.58 304.27 654.31 302.69 653.13 302.24 649.66 300.96 649.09 299.86 646.71 296.74 645.23 295.45 645.34 294.76 644.1 291.67 645.2 289.77 643.81 288.55 642.23 286.25 641.85 283.79 640.13 283.36 637.75 283.98 635.69 282.67 635.58 282.57 633.5 285.3 633.05 284.82 630.1 281.24 631.17 278.45 629.25 276.54 630.43 276.15 625.05 276.57 621 274.34 618.84 274.94 617.8 277.07 617.09 277.52 615.41 279.08 613.61 279.37 612.06 281.63 609.97 283.9 609.33 283.22 607.92 284.43 604.67 284.96 604.39 284.6 601.61 283.65 598.9 287.23 596.62 287.58 595 289.26 593.84 289.42 587.96 290.76 587.07 291.39 584.74 291.15 583.21 291.59 580.82 290.95 579.45 291.43 577.32 292.92 575.45 292.9 572.81 294.8 569.29 292.5 567.19 291.92 564.57 295.56 563.43 296.28 562.23 303.06 561.33 304.27 559.76 306.28 558.12 309.56 556.66 310.87 554.33 310.4 550.9 311.13 549.55 312.7 549.85 315.97 548.17 316.47 547.15 317.35 546.97 319.54 545.02 323.46 548.34 324.07 550.7 325.46 550.83 329.42 549.63 330.22 548.49 333.39 546.19 337.4 549.26 339.77 549.52 341.86 548.91 344.1 550.44 345.9 548.81 348.15 547.47 349.56 543.2 349.34 540.5 353.06 539.17 354.09 540.26 356.88 541.53 361.46 539.95 364.6 540.62 366.46 541.57 370.62 541.13 375.1 543.6 377.04 543.45 381.03 544.08 382.75 543.01 384.99 545.86 387.26 546.33 387.59 548.01 389.97 549.09 391.16 550.58 393.77 548.76 393.28 546.45 393.84 544.46 395.14 542.68 395.7 545.31 397.67 546.34 399.68 548.02 404.34 549.43 405.5 547.63 411.29 544.16 411.9 543.4 414.07 543.75 415.51 546.95 413.35 548.13 412.72 549.98 414.39 551.98 414.38 554.12 415.79 556.12 415.11 557.12 414.4 562.12 415.56 564 415.56 565.43 417.69 565.84 417.94 568.02 419.38 567.86 420.76 571.05 420.46 574.26 419.8 575.48 421.8 576.58 422.78 578.4 425.17 579.73 426.57 579.27 425.91 577.85 425.81 574.48 427.86 570.9 427.2 569.56 428.97 567.49 429.79 565.36 433 563.58 435.64 563.86 437.67 565.89 439.43 566.85 440.74 565.87 441.17 564.26 440.95 561.08 441.79 558.12 444.23 557.99 445.69 561.15 447.1 562.96 448.63 559.28 452.6 556.58 Z" id="31550340"/>
</g>
</svg>