<?xml version="1.0"?>
<svg xmlns="http://www.w3.org/2000/svg" version="1.2" baseProfile="tiny" width="800" height="1384" viewBox="0 0 800 1384" stroke-linecap="round" stroke-linejoin="round">
<g id="dong">
<path d="M 777.47 463.44 777.93 467.03 777.23 470.31 777.68 473.36 779.83 477.17 780.28 480.72 781.07 481.87 780.48 485.75 778.81 486.78 775.71 493.48 774.9 498.45 773.8 502.15 770.63 504.01 768.93 506.34 767.82 508.79 761.84 508.35 759.73 507.31 756.29 507 755.1 505.5 750.68 505.05 747.3 503.69 742.26 504.02 739 504.64 735.92 504.07 732.25 502.88 729.97 504.16 725.35 503.03 722.79 504.43 721.57 506.32 718.01 507.5 716.24 508.82 710.02 509.7 707.97 511.93 705.68 512.75 704.57 514.52 702.49 514.53 701.3 516.98 701.57 517.96 699.37 520.74 697.21 521.53 696.37 524.49 691.67 526.46 691.82 529.38 688.93 530.11 688.54 533.23 687.18 534.7 685.23 541.98 682.85 546.66 683.93 548.73 685.06 552.45 681.94 554.12 680.11 555.82 678.32 555.93 678.3 557.42 677.01 560.49 676.9 562.13 671.61 560.89 666.13 560.54 663.68 561.06 660.62 562.99 658.86 565.54 653.11 569.3 651.6 569.72 650.99 571.35 649.45 572.78 646.94 573.68 647.74 577.15 646.64 582.28 646.89 585.34 646.04 589.22 637.3 588.54 631.12 589.05 625.05 589.3 617.25 593.76 606.81 602.08 600 609.11 595.2 618.54 591.38 628.74 589.57 638.12 589.17 651.57 591.59 657.69 596.55 661.23 606.23 665.07 612.92 672.44 616.84 682.75 618.55 693.05 608.87 703.54 600.57 715.33 594.52 724.22 586.11 734.63 581.06 745.1 584.41 755.44 592.29 765.77 599.08 771.57 603.63 776.12 610.55 786.5 619.68 796.79 627.37 807.24 632.41 817.79 636.78 828.05 636.59 838.29 633.36 848.77 630.3 853.91 620.14 864.1 612.08 871.48 599.11 880.23 586.09 888.37 572.88 895.7 566.35 900.53 560.01 906.81 557.74 911.04 550.7 921.48 549.32 931.7 548.61 942.25 550.77 952.48 552.87 956.41 547.98 957.49 545.37 955.24 542.67 958.38 540.18 957.91 537.32 956.32 535.04 957.33 532.28 957.31 530.37 955.93 530.33 953.47 531.34 952.26 529.12 951.43 525.18 947.02 521.22 945.1 519.15 945.57 517.92 943.68 519.06 942.65 520.37 939.89 517.53 935.09 517.92 932.73 517.33 931.63 518.05 929.43 516.73 928.14 516.32 924.21 514.59 920.66 514.82 918.39 514.15 915.9 509.64 914.53 506.11 915.19 502.54 913.72 498.16 913.09 497.53 912.11 495.37 911.53 490.85 909.11 491.82 905.96 491.19 904.73 492.7 902.16 492.23 898.9 490.84 897.63 489.05 894.02 487.38 893.27 484.22 889.71 483.51 885.23 479.8 879.53 480.13 877.69 481.95 876.91 482.43 875.34 484.75 873.31 485.15 871.46 486.85 870.03 486.82 867.89 489.22 865.75 491.24 866.05 493.24 865.02 499.36 864.64 500.67 864.1 503.29 859.44 503.16 857.74 506.01 853.43 505.66 849.19 507.96 843.34 507.17 840.72 508.17 839.99 507.1 834.03 505.62 834 504.73 832.77 504.49 829.37 506.14 824.59 508.6 821.18 507.76 820.29 507.61 816.47 509.09 816.55 510.44 814 510.01 810.95 512.67 808.84 513.15 806.52 515.16 803.64 515.67 800.77 517.27 799.34 517.16 797.78 518.59 796.22 518.71 794.64 521.4 792.91 522.01 791.61 521.45 789.3 518.62 786.21 519.14 784.64 517.04 782.83 516.79 778.91 515.65 778.16 515.3 776.24 513.8 774.69 513.74 770.52 510.77 770.22 508.1 768.25 503.08 762.83 499.08 761.74 496.81 759.88 493.32 763.06 489.73 763.6 487.87 762.67 487.33 761.36 484.77 760.01 481.98 761.16 480.26 760.12 478.4 761.46 476.53 761.59 474.25 760.8 469.26 761.78 467.77 760.5 465.29 762.56 464.29 762.53 461.64 759.73 462.28 758.35 461.28 756.36 462.09 755.25 459.68 750.73 459.48 749.2 455.11 746.15 455.23 744.93 450.82 743.95 449.34 741.26 448.85 739.16 444.13 736.67 443.4 732.54 443.88 730.98 443.35 729.15 443.23 725.47 442.3 724.43 436.41 721.02 433.99 718.71 430.48 716.04 427.47 714.3 425.25 715.42 423.87 717.28 423.84 719.11 422.38 721.05 421.44 720.42 419.23 721.56 417.04 721.78 413.38 719.65 412.87 716.75 406.65 715.96 405.15 714.86 403.95 711.83 401.59 711.5 399.23 709.95 394.97 710.32 391.04 712.4 389.94 713.45 388.52 712.82 386.55 713.76 384.56 715.76 382.04 715.63 379.59 714.56 377.07 714.78 371.91 717.35 363.02 717.23 361.59 718.77 359.46 719.52 352.58 718.78 350.09 715.03 349.55 712.65 348.42 710.5 345.97 707.62 345.61 705.52 346.06 703.49 345.41 700.51 343.16 695.9 339.65 694.5 339.54 693.25 340.53 689.74 342.39 687.85 344.49 681.7 345.95 679.57 347.43 675.06 349.02 674.73 352.1 673.04 352.65 671.11 351.62 667.3 350.69 665.73 346.66 661.18 343.55 658.13 341.7 654.28 340.53 650.19 341.82 646.38 339.07 642.4 337.96 641.68 336.07 636.71 333.41 634.7 332.38 632.53 330.27 631.04 330.25 628.66 332.81 626.42 333.62 625.04 333.49 622.61 334.59 619.65 335.81 617.85 336.47 614.69 338.12 611.26 343.24 608.9 345.05 606.59 347.11 605.02 346.09 603.29 343.57 595.18 340.95 592.35 340.27 590.79 340.22 585.87 340.69 583.92 341.53 573.88 340.91 570.91 340.43 565.99 341.4 563.01 340.72 561.19 339.32 560.42 335.8 559.62 335.16 556.83 334.8 552.27 333.66 549.51 330.56 546.25 330.56 544.81 328.6 540.32 329.07 537.07 328.61 534.85 327.43 533.12 325.99 529.24 325.03 523.66 325.79 521.15 324.65 517.88 321.97 515.37 320.28 514.67 313.11 515 310.5 513.74 308.33 508.97 304.78 504.49 303.62 501.01 303.59 499 304.37 496.56 304.28 493.59 306.9 483.83 304.65 474.26 301.17 469.92 303.54 464.32 317.54 456.13 320.16 450.31 324.25 451.08 331.94 446.72 336.7 440.85 339.44 445.47 342.26 447.09 346.42 450.02 348.61 452.24 351.89 452.92 353.09 454.15 355.22 458.66 356.48 460.61 359.08 463.07 360.17 466.41 361.88 470.11 364.29 471.84 365.62 473.49 369.22 475.07 375.95 473.37 380.35 473.6 387.2 473.58 392.12 474.75 395.56 474.76 400.65 471.82 404.83 472.28 406.45 471.43 408.08 468.66 411.98 467.49 413.57 468.27 418.64 468.13 421.37 468.96 424.97 471 426.73 471.31 433.36 469.13 435.27 468.96 439.61 467.52 443.57 466.55 445.37 466.72 449.19 472.62 449.59 474.68 452.03 474.79 457.41 474.01 461.44 476.82 463.14 479.64 468.33 481.22 471.86 480.28 474.3 482.39 477.55 483.36 479.01 484.76 480.77 485 484.9 487.85 488.69 484.93 493.36 485.52 494.94 485.03 499.46 485.15 502.77 483.98 505.25 484.6 506.9 483.69 512.23 484.16 517.44 482.16 522.48 481.73 523.76 483.1 528.33 486.28 531 488.71 531.47 489.78 535.69 493.24 536.71 494.85 540.62 496.55 542.68 498.12 545.51 502.81 546.84 503.54 549.77 502.3 551.05 500.47 557.83 499.12 561.05 500.33 561.08 501.99 562.64 504.15 564.98 503.42 567.15 504.57 567.01 506.88 569.29 509.53 568.63 511.72 569.01 513.42 572.32 517.61 574.47 519.28 575.05 523.04 576.66 524.85 577.19 526.52 579.83 527.51 581.94 529.05 583.13 526.39 581.37 522.76 581.6 520.77 583.53 516.65 586.13 514.46 591.18 509.57 595.96 506.28 601.09 505.35 612.07 506.01 618.64 506.72 625.04 509.08 627.76 509.35 630.66 509.08 629.87 511.89 631.51 511.82 634.01 514.43 636.85 514.02 638.03 514.63 640.33 512.37 645.67 510.73 647.35 509.1 650.3 508.85 652.51 505.2 654.09 503.81 654.82 502.08 656.57 502.39 659.37 501.08 660.44 501.51 661.92 497.64 662.46 494.38 666.08 494.19 669.32 492.98 671.58 490.24 674.83 489.78 678.63 486.74 681.39 486.24 682.65 485.14 683.25 481 688.07 478.67 689.52 476.57 689.96 474.45 692.75 472.05 695.87 473.36 698.21 473.49 702.64 474.83 705.41 474.44 707.86 475.83 710.16 476.42 712.54 476.24 714.7 474.55 717.83 473.9 718.84 471.9 721.16 469.98 725.89 470.4 728.93 468.81 730.21 467.05 732.28 466.46 733.06 463.76 735.24 461.07 739.3 460.43 742.34 457.54 745.19 457.32 748.74 460.48 751 460.86 755.02 459.83 756.6 458.83 759.08 458.59 762.17 460.45 766.41 460.89 771.17 460.59 773.94 461.51 777.47 463.44 Z" id="31570110"/>
<path d="M 672.05 1217.04 673.83 1219.99 672.33 1221.76 673.48 1224.86 672.58 1228.35 673.25 1232.06 672.83 1233.24 677.53 1235.61 678.7 1238.8 683.05 1241.74 685.55 1242.21 688.11 1245.74 689.44 1248.5 690.58 1252.05 690.69 1254.02 694.96 1258.55 697.5 1259.78 697.57 1263.61 696.49 1268.55 697.03 1271.64 694.67 1275.75 689.37 1275.71 686.17 1281.97 683.73 1283.18 679.98 1285.77 679.79 1291.7 680.44 1294.11 679.86 1297.1 680.62 1299.67 680.36 1301 678.77 1301.6 677.45 1307.67 675.21 1310.08 673.95 1313.12 672.53 1314.67 673.54 1322.13 675.18 1323.52 675.87 1328.7 677.19 1331.86 677.67 1334.57 676.92 1338.45 675.57 1341.55 674.01 1346.66 671.73 1345.63 662.55 1343.54 660.89 1342.45 658.95 1337.55 652.48 1339.22 649.14 1339.73 646.55 1341.08 644.19 1340.4 640.05 1341.86 634.99 1343.07 627.07 1342.39 624.1 1344.45 620.92 1341.26 619.12 1340.29 616.57 1340.64 613.35 1339.85 612.04 1341.27 608.6 1339.04 607.55 1340.01 604.23 1340.89 602.47 1340.55 600.03 1338.26 596.76 1338.9 592.8 1337.83 588.81 1338.88 586.82 1338.81 582.96 1340.7 580.32 1342.76 580.99 1346.24 576.88 1349.32 574.65 1352.6 575.49 1354.41 572.72 1357.13 570.21 1360.23 564.08 1365.09 562.43 1367.29 554.83 1366.7 552.72 1367.85 551.79 1371 547.23 1372.75 544.99 1373.09 543.14 1375.5 541.19 1376.76 538.7 1376.88 536.53 1378.58 533.48 1379.62 531.38 1382.69 530.22 1383 526.67 1381.45 525.53 1380.52 520.44 1378.51 512.05 1375.69 510.03 1372.6 507.37 1371.99 505.62 1372.27 503.82 1371.42 500.08 1371.84 498.85 1372.61 496.99 1371.58 493.77 1371.09 489.5 1368.43 486.76 1367.16 480.72 1366.55 479.59 1367.15 478.27 1366 474.56 1364.79 474.32 1363.29 470.5 1359.66 468.95 1357.78 468.07 1351.8 468.92 1348.53 468.03 1346.25 466.45 1337.43 466.84 1335.89 469.12 1332.66 467.95 1325.32 466.99 1321.84 469.1 1317.57 470.46 1313.76 471.49 1313.27 472.39 1310.49 471.37 1307.61 471.98 1305.18 472.98 1304.11 472.44 1301.88 473.12 1299.76 472.54 1292.45 473.09 1289.22 474.09 1286.69 473.88 1284.13 474.79 1279.88 474.75 1277.15 471.75 1273.46 472.31 1269.26 470.36 1267.54 471.68 1262.29 471.1 1260.24 471.87 1257.39 474.11 1255.49 472.07 1253.82 472.72 1251.55 472.11 1250.44 471.61 1246.72 470.41 1245.35 470.96 1243.53 470.82 1241.06 469.7 1236.91 468.37 1234.35 466.87 1234.14 466.74 1232.23 465.26 1231.13 464.01 1228.73 462.28 1228.97 452.71 1227.69 450.01 1228.06 448.41 1225.65 447.4 1221.7 441.71 1217.41 440.07 1214.49 439.44 1211.14 437.32 1205.6 435.16 1203.55 436.15 1200.97 435.78 1197.05 431.22 1190.69 434.92 1186.19 433.05 1182.56 430.95 1181.14 427.95 1181.72 425.44 1181.48 421.77 1182.34 418.61 1181.86 416.34 1179.61 412.35 1178.08 407.82 1174.46 399.59 1173.63 398.87 1170.85 401.24 1169.47 400.89 1166.13 393.95 1162.06 391.69 1157.22 391.79 1154.47 392.76 1151.66 391.2 1151.17 390.12 1148.84 386.48 1145.9 390.11 1142.08 390.46 1140.5 392.37 1138.84 394.83 1134.42 396.14 1134.41 398.06 1131.04 401.55 1128.76 397.99 1123.49 397.73 1122.05 391.05 1117.04 389.27 1116.45 388.8 1115.29 383.36 1109.97 380.94 1105.32 379.7 1104.38 377.76 1104.57 375.6 1101.84 375.04 1100.33 372.17 1100.13 370.91 1096.81 369.34 1092.14 367.46 1090.11 368.37 1089.5 369.76 1086.29 371.04 1085.21 372.9 1082.4 372.48 1081.46 373.77 1077.86 374.91 1076.84 378.15 1075.91 380.39 1071.15 379.98 1066.79 377.96 1064.82 376.15 1064.52 373.93 1061.79 372.64 1058.89 369.54 1053.33 368.39 1050.65 365.59 1046.75 364.19 1046.12 361.91 1043.78 360.98 1041.85 357.52 1037.44 354.79 1031.86 353.45 1030.56 352.73 1028.39 353.69 1025.07 354.97 1023.39 354.49 1020.58 352.38 1016.23 354.24 1012.69 353.85 1010.05 355.66 1006.62 357.26 1001.93 362.78 998.62 361.9 993.2 360.94 991.11 360.35 985.21 360.8 984.05 358.57 981.39 357.61 978.74 354.94 973.86 353.84 973.31 348.87 973.26 343.26 970.58 341.53 967.12 340.7 963.41 339.6 960.97 339.75 956.03 337.8 952.44 334.5 947.68 334.69 947.21 343.71 941.14 353.42 940.19 362.55 941.51 372.29 944.85 378.76 949.97 382.26 953.18 388.8 958.41 402.02 966.06 404.64 968.55 406.62 971.03 416.85 980.98 424.05 985.45 432.99 987.86 444.76 989.64 456.43 991.64 465.77 992.81 478.17 993.25 485.69 990.86 497.42 989.88 510.98 988.27 521.21 993.11 530.1 997.97 533.66 1002.15 542.23 1008.83 555.32 1013.86 563.43 1020.26 569.64 1022.31 573 1023.68 576.54 1023.31 581.88 1017.35 584.92 1010.33 584.51 999.18 579.45 989.1 571.63 978.69 566.79 971.31 563.24 972.56 561.67 966.48 565.36 961.05 573.52 953.03 583.74 942.38 591.01 935.34 596.73 934.18 602.26 935.41 607.03 942.24 612.09 948.3 620.02 952.41 626.51 955.33 631.85 954.13 638.26 948.99 647.25 942.33 651.66 931.84 657.4 928.26 663.92 926.98 669.21 928.04 671.5 928.8 671.08 930.38 671.58 934.29 670.46 936.86 670.27 939.32 671.69 940.69 672.11 942.91 671.24 944.42 674.73 947.1 674.98 949.73 676.11 953.27 675.64 955.86 674.58 958.06 674.37 962.26 671.9 962.86 669.85 965.78 670.21 967 667.48 971.06 667.99 973.92 669.48 975.92 668.13 983.43 668.23 985.46 669.24 987.22 668.06 990.05 668.95 993.72 665.61 997.13 662.5 998.6 662.55 1002.04 664.33 1005.24 664.32 1006.29 662.22 1008.82 661.35 1010.86 661.45 1013.41 660.77 1017.04 659.22 1020.48 658.92 1024.72 656.79 1026.98 656.4 1030.34 655.4 1031.46 656.16 1033.49 654.64 1035.13 652.91 1039.48 653.19 1041.19 651.46 1044.81 651 1048.55 651.48 1055.63 650.77 1057.52 652.2 1062.25 651.12 1067.22 651.53 1076.75 650.43 1078.09 650.32 1080.66 648.69 1083.6 648.96 1084.5 648.9 1091.39 649.39 1093.79 648.08 1095.29 648.23 1097.4 647.67 1101.64 648.98 1106.74 650.47 1108.78 653.8 1111.64 654.05 1115.62 655.14 1117.13 656.41 1122 652.87 1123.98 652.52 1126.06 650.18 1127.23 648.46 1129.15 645.38 1129.69 642.93 1132.44 641.37 1132.65 638.24 1140.94 637.57 1145.26 636.5 1146.87 636.06 1150.33 633.35 1150.87 631.37 1152.53 629.74 1152.21 626.49 1153.35 623.36 1153.68 620.88 1152.97 618.73 1153.74 617.31 1153.42 617.1 1156.37 617.71 1159.02 617.05 1163.01 616.42 1163.62 617.46 1169.77 619.59 1173.06 622.68 1179.94 624.43 1179.86 626.01 1181.24 626.55 1182.79 628.72 1183.21 631.04 1184.76 633.5 1185.49 635.98 1190.28 637.8 1191.06 643.89 1191.68 644.02 1195.11 645.17 1197 645.31 1199.11 646.26 1199.86 646.45 1203.62 647.4 1204.21 653.58 1206.34 654.22 1207.42 658.06 1209.28 660.24 1208.68 662.61 1212.09 665.34 1212.8 670.5 1216.68 672.05 1217.04 Z" id="31570310"/>
<path d="M 552.87 956.41 556.4 963.01 561.67 966.48 563.24 972.56 566.79 971.31 571.63 978.69 579.45 989.1 584.51 999.18 584.92 1010.33 581.88 1017.35 576.54 1023.31 573 1023.68 569.64 1022.31 563.43 1020.26 555.32 1013.86 542.23 1008.83 533.66 1002.15 530.1 997.97 521.21 993.11 510.98 988.27 497.42 989.88 485.69 990.86 478.17 993.25 465.77 992.81 456.43 991.64 444.76 989.64 432.99 987.86 424.05 985.45 416.85 980.98 406.62 971.03 404.64 968.55 402.02 966.06 388.8 958.41 382.26 953.18 378.76 949.97 372.29 944.85 362.55 941.51 353.42 940.19 343.71 941.14 334.69 947.21 334.5 947.68 337.8 952.44 339.75 956.03 339.6 960.97 340.7 963.41 341.53 967.12 343.26 970.58 348.87 973.26 353.84 973.31 354.94 973.86 357.61 978.74 358.57 981.39 360.8 984.05 360.35 985.21 360.94 991.11 361.9 993.2 362.78 998.62 357.26 1001.93 355.66 1006.62 353.85 1010.05 354.24 1012.69 352.38 1016.23 354.49 1020.58 354.97 1023.39 353.69 1025.07 352.73 1028.39 353.45 1030.56 354.79 1031.86 357.52 1037.44 360.98 1041.85 361.91 1043.78 364.19 1046.12 365.59 1046.75 368.39 1050.65 369.54 1053.33 372.64 1058.89 373.93 1061.79 376.15 1064.52 377.96 1064.82 379.98 1066.79 380.39 1071.15 378.15 1075.91 374.91 1076.84 373.77 1077.86 372.48 1081.46 372.9 1082.4 371.04 1085.21 369.76 1086.29 368.37 1089.5 367.46 1090.11 369.34 1092.14 370.91 1096.81 369.89 1099.06 368.21 1100.82 367.62 1103.73 366.45 1104.88 366.18 1106.86 364.01 1111.86 362.35 1113.12 359.12 1114.19 357.76 1116.59 354.74 1117.46 353.4 1118.53 345.6 1118.25 343.01 1118.62 341.71 1119.56 338.65 1122.95 338.01 1124.69 335.82 1125.44 333.04 1127.33 326.85 1127.44 323.41 1129.25 322.61 1132.9 320.02 1134.69 315.71 1135.82 313.89 1138.52 309.33 1140.76 309.43 1142.34 308.07 1144.31 306.28 1148.55 306.21 1152.13 304.47 1154.16 302.4 1153.25 299.77 1154.3 298.49 1153.71 296.46 1154.17 293.77 1153.99 291.06 1155.31 286.65 1155.84 283.47 1155.22 282.78 1154.25 279.53 1152.57 276.39 1152.72 275.08 1154.63 273.08 1155.51 268.01 1154.21 265.67 1154.74 260.78 1152.44 259.83 1153.69 256.88 1153.8 255.05 1156.44 248.22 1160.62 244.63 1164.61 240.94 1163.96 243.34 1160.14 247.34 1149.76 250.81 1142.13 254.89 1112.89 257.71 1099.09 258.21 1097.53 259.76 1087.8 262.9 1078.64 258.98 1078.61 254.89 1085.18 252.99 1084.4 250.53 1080.12 249.36 1080.4 247.93 1077.42 246.87 1076.67 246.61 1074.05 246.9 1071.01 248.37 1066.73 247.59 1064.78 246.06 1063.33 238.33 1057.34 236.05 1056.3 232.08 1052.61 229.64 1048.62 228.94 1044.78 229.59 1043.04 231.1 1042.22 234.49 1040.86 237.58 1040.94 240.98 1038.99 242.3 1035.59 241.03 1034.63 237.68 1033.34 230.84 1032.61 222.95 1032.07 220.02 1031.44 211.59 1029 211.79 1026.02 210.99 1023.79 211.59 1020.67 212.37 1019.38 211.72 1015.56 209.93 1014.01 209.07 1011.96 205.78 1008.61 204.95 1006.59 203.31 1004.46 201.86 1003.6 199.37 1000.85 200.48 999.81 199.91 997.58 201.37 996.47 201.78 994.13 203.26 992.37 203.54 987.38 200.38 981.99 199.94 978.1 200.2 974.18 201.52 970.91 201.86 965.9 202.64 964.19 201.6 962.76 200.87 960.17 200.87 957.78 201.91 953.78 202.38 948.85 203.95 945.39 206.05 943.51 211.2 940.81 212.96 939.29 214.13 937.16 216.78 938.28 220.54 936.74 222.2 935.34 225.53 931.37 229.18 927.9 230.83 927.17 232.13 922.73 235.25 917.35 237.24 916.84 239.13 914.79 240.25 912.72 242.38 904.65 244.76 901.61 246.25 902.13 250.51 900.07 250.32 898.92 254.45 895.27 256.88 894.95 259.23 893.31 263.16 892.71 266.32 889.81 270.42 892.17 273.07 892.55 277.53 890.14 283.88 888.01 286.56 888.17 289.46 885.93 293.42 883.75 298.21 884.86 300.58 885.02 305 880.51 309.3 879.65 311.8 877.37 319.19 877.2 321.68 875.89 322.59 873.54 325.44 872.38 326.21 870.82 329.47 869.18 332.64 868.5 335.07 865.96 339.07 866.2 340.72 863.05 340.9 861.19 343.72 858.92 347.6 859.24 351.07 860.18 349.38 863.37 352.85 862.37 354.38 859.75 355.86 859.02 355.79 854.56 354.69 850.28 353.63 848.16 352.48 847.67 350.39 845.3 346.27 841.69 345.46 839.62 342.97 837.72 341.52 835.55 340.72 832.82 338.91 830.87 338.81 827.49 337.34 824.49 333.9 822.58 333.72 819.7 334.38 817.6 334.06 814.86 332.86 812.6 334.19 808.79 334.24 806.6 336.75 804.39 338.99 801.81 340.14 801.44 342.05 798.25 342.12 796.96 343.89 794.57 340.99 791.2 339.3 789.81 338.27 787.47 336.47 780.62 337.71 780.04 340.42 774.61 341.51 770.93 341.96 764.53 341.83 759.52 341.28 757.03 341.56 750.69 340.46 745.25 340.78 735.1 342.49 733.1 341.48 729.23 343.68 723.64 345.86 722.29 351.09 720.14 352.58 718.78 359.46 719.52 361.59 718.77 363.02 717.23 371.91 717.35 377.07 714.78 379.59 714.56 382.04 715.63 384.56 715.76 386.55 713.76 388.52 712.82 389.94 713.45 391.04 712.4 394.97 710.32 399.23 709.95 401.59 711.5 403.95 711.83 405.15 714.86 406.65 715.96 412.87 716.75 413.38 719.65 417.04 721.78 419.23 721.56 421.44 720.42 422.38 721.05 423.84 719.11 423.87 717.28 425.25 715.42 427.47 714.3 430.48 716.04 433.99 718.71 436.41 721.02 442.3 724.43 443.23 725.47 443.35 729.15 443.88 730.98 443.4 732.54 444.13 736.67 448.85 739.16 449.34 741.26 450.82 743.95 455.23 744.93 455.11 746.15 459.48 749.2 459.68 750.73 462.09 755.25 461.28 756.36 462.28 758.35 461.64 759.73 464.29 762.53 465.29 762.56 467.77 760.5 469.26 761.78 474.25 760.8 476.53 761.59 478.4 761.46 480.26 760.12 481.98 761.16 484.77 760.01 487.33 761.36 487.87 762.67 489.73 763.6 493.32 763.06 496.81 759.88 499.08 761.74 503.08 762.83 508.1 768.25 510.77 770.22 513.74 770.52 513.8 774.69 515.3 776.24 515.65 778.16 516.79 778.91 517.04 782.83 519.14 784.64 518.62 786.21 521.45 789.3 522.01 791.61 521.4 792.91 518.71 794.64 518.59 796.22 517.16 797.78 517.27 799.34 515.67 800.77 515.16 803.64 513.15 806.52 512.67 808.84 510.01 810.95 510.44 814 509.09 816.55 507.61 816.47 507.76 820.29 508.6 821.18 506.14 824.59 504.49 829.37 504.73 832.77 505.62 834 507.1 834.03 508.17 839.99 507.17 840.72 507.96 843.34 505.66 849.19 506.01 853.43 503.16 857.74 503.29 859.44 500.67 864.1 499.36 864.64 493.24 865.02 491.24 866.05 489.22 865.75 486.82 867.89 486.85 870.03 485.15 871.46 484.75 873.31 482.43 875.34 481.95 876.91 480.13 877.69 479.8 879.53 483.51 885.23 484.22 889.71 487.38 893.27 489.05 894.02 490.84 897.63 492.23 898.9 492.7 902.16 491.19 904.73 491.82 905.96 490.85 909.11 495.37 911.53 497.53 912.11 498.16 913.09 502.54 913.72 506.11 915.19 509.64 914.53 514.15 915.9 514.82 918.39 514.59 920.66 516.32 924.21 516.73 928.14 518.05 929.43 517.33 931.63 517.92 932.73 517.53 935.09 520.37 939.89 519.06 942.65 517.92 943.68 519.15 945.57 521.22 945.1 525.18 947.02 529.12 951.43 531.34 952.26 530.33 953.47 530.37 955.93 532.28 957.31 535.04 957.33 537.32 956.32 540.18 957.91 542.67 958.38 545.37 955.24 547.98 957.49 552.87 956.41 Z" id="31570320"/>
<path d="M 104.65 536.3 104.44 539.99 105.77 542.38 105.44 546.8 105.82 552.16 104.92 554.39 106.48 558.31 109.86 558.56 111.96 562.37 111.99 564.74 113.05 565.11 112.36 567.65 113.93 569.46 115.51 572.43 116.56 576.05 119.18 576.92 119.65 578.26 123.52 581.81 125.43 582.92 124.7 584.84 120.73 589.56 119.43 593.45 119.27 596.78 121.32 598.16 121.25 599.54 122.81 601.53 122.25 603.03 122.82 605.7 122 607.11 121.68 611.31 122.32 613.61 124.52 616.62 123.79 621.24 124.29 623.48 127.15 625.32 129.32 630.12 131.54 632.92 134.55 633.45 135.93 634.27 136.9 637.37 136.55 638.32 137.78 641.64 141.4 642.44 142.82 641.62 145.41 642.8 147.42 642.48 149.46 643.46 153.29 643.4 154.89 644.63 159.03 643.82 161.94 644.69 160.45 648.73 159.34 649.34 157.44 653.04 157.15 655.06 152.65 659.17 152.17 660.65 157.14 661.96 159.99 664.88 163.71 670.72 162.18 674.15 161.86 678.78 162.6 682.02 165.23 687.27 169.38 691.62 169.75 693.85 168.89 698.07 168.84 700.12 169.58 702.37 173.12 705.21 175.74 708.73 184.83 713.53 186.93 713.9 191.43 713.87 193.88 712.43 199.85 710.23 203.76 705.93 208.01 703.47 211.78 701.99 222.94 709.6 224.42 713.85 224.86 717.5 227.45 724.23 228.39 729.8 230.74 735.16 233.09 737.14 236.73 737.5 239.49 737.02 242.33 734.61 243.28 732.03 244.47 725.42 246.39 723.45 249.66 724.23 252.2 727.19 252.98 729.64 253.85 734.61 255 736.56 256.94 738.5 259.24 739.1 261.86 738.72 270.65 733.72 272.22 733.29 278.34 732.68 285.5 731.28 287.51 730.35 293.66 725.4 296.48 723.75 299.11 724.05 299.52 726.24 296.11 731.12 296.47 735.18 300.5 739 302.56 741.96 306.45 739.18 307.78 739.38 310.9 738.29 312.27 738.32 313.51 736.68 316.35 737.12 318.18 736.12 324.57 735.06 327.24 733.28 328.52 733.18 330.03 731.37 337.15 729.55 341.48 729.23 342.49 733.1 340.78 735.1 340.46 745.25 341.56 750.69 341.28 757.03 341.83 759.52 341.96 764.53 341.51 770.93 340.42 774.61 337.71 780.04 336.47 780.62 338.27 787.47 339.3 789.81 340.99 791.2 343.89 794.57 342.12 796.96 342.05 798.25 340.14 801.44 338.99 801.81 336.75 804.39 334.24 806.6 334.19 808.79 332.86 812.6 334.06 814.86 334.38 817.6 333.72 819.7 333.9 822.58 337.34 824.49 338.81 827.49 338.91 830.87 340.72 832.82 341.52 835.55 342.97 837.72 345.46 839.62 346.27 841.69 350.39 845.3 352.48 847.67 353.63 848.16 354.69 850.28 355.79 854.56 355.86 859.02 354.38 859.75 352.85 862.37 349.38 863.37 351.07 860.18 347.6 859.24 343.72 858.92 340.9 861.19 340.72 863.05 339.07 866.2 335.07 865.96 332.64 868.5 329.47 869.18 326.21 870.82 325.44 872.38 322.59 873.54 321.68 875.89 319.19 877.2 311.8 877.37 309.3 879.65 305 880.51 300.58 885.02 298.21 884.86 293.42 883.75 289.46 885.93 286.56 888.17 283.88 888.01 277.53 890.14 273.07 892.55 270.42 892.17 266.32 889.81 263.16 892.71 259.23 893.31 256.88 894.95 254.45 895.27 250.32 898.92 250.51 900.07 246.25 902.13 244.76 901.61 242.38 904.65 240.25 912.72 239.13 914.79 237.24 916.84 235.25 917.35 232.13 922.73 230.83 927.17 229.18 927.9 225.53 931.37 222.2 935.34 220.54 936.74 216.78 938.28 214.13 937.16 212.96 939.29 211.2 940.81 206.05 943.51 203.95 945.39 202.04 944.08 197.91 942.44 196.12 940.5 191.48 937.2 186.76 936.04 183.75 934.32 179.24 933.26 175.19 929.37 175.68 925.45 176.98 919.38 175.53 915.64 175.68 913.9 174.82 911.7 174.18 905.13 173.58 903.21 171.06 901.06 168.03 900.02 167.56 896.1 166.37 893.38 162.42 892.39 159.26 890.24 157.37 886.79 156.48 882.09 155 879.08 153.16 876.77 152.57 872.8 151.19 869.35 151.61 867.09 154.49 861.75 151.24 859.26 149.61 856.4 146.96 853.76 144.96 849.63 142.89 847.06 142.79 844.68 141.25 841.59 139.78 840.58 137.23 839.98 134.79 837.07 131.84 835.98 130.83 833.18 128.65 831.65 128.49 830.28 127.01 828.05 124.08 826.25 123.51 823.27 122.06 822.57 120.11 820.24 116.01 818.47 114.61 816.32 112.82 815.02 110.15 815.46 106.88 816.65 102.73 817.49 102.16 818.47 96.06 812.74 94.25 812.48 91.96 810.92 88.54 807.76 86.52 802.18 82.6 802.2 79.43 801.16 76.4 800.91 75.96 799.66 70.72 799.35 66.15 798.41 63.71 797.4 61.66 795.38 56.71 796.34 56.01 797.64 51.55 798.62 47.55 798.23 43.19 798.88 41.22 798.1 36.76 798.7 33.23 797.66 31.49 798.05 30.64 799.32 25.91 799.56 24.57 798.03 19.87 799.43 16.11 801.48 13.26 795.56 11.15 793.77 7.44 789.72 5.91 786.87 4.69 785.7 1 784.04 4.18 779.23 2.97 777.03 3.53 771.09 5.06 767.81 6.91 767.3 8.93 765.35 10.67 762.74 12.27 759.03 14.94 754.93 11.39 750.78 9.58 744.17 10.23 741.55 11.99 739.66 12.21 737.19 14.34 735.8 16.3 732.59 17.95 731.61 20.03 725.59 19.74 723.94 21.1 723.14 22.61 719.87 22.87 717.79 25.06 715.65 27.28 712.49 27.33 710.44 26.57 708.74 23.46 707.36 23.36 704.92 24.7 702.45 24.52 700.63 25.98 697.83 24.93 695.78 26.81 693.64 25.89 691.93 27.92 685.61 27.29 684.99 27.01 681.41 29.06 678.94 28.31 675.56 25.96 670.88 26.04 668.55 24.2 666.45 23.15 664.41 23.81 662.03 24.18 657.55 23.54 655.52 19.14 653.24 17.09 648.28 18.21 644.02 17.76 639.96 16.99 638.34 20.88 633.38 21.2 629.82 20.61 626.7 20.83 623.19 23.26 620.06 25.69 614.31 25.83 612.37 27.45 612.14 28.06 608.16 27.56 605.16 29.36 603.43 31.75 603.36 32.51 599.11 34.04 597.11 36.85 595.28 37.03 593.44 39.09 594.42 43.23 588.98 45.28 587.63 42.4 584.42 40.48 584.14 39.24 582.53 39.27 580.27 37.31 579.23 35.69 575.72 32.47 572.34 31.14 570.02 31.18 565.59 34.06 562.99 34.37 560.26 35.26 557.45 37.25 557.42 37.73 554.75 40.02 553.61 40.15 552.31 42.36 548.13 42.36 545.99 41.61 544.23 43.61 542.01 42.93 538.73 45.3 534.07 45.35 531.55 46.47 530.37 48.11 526.72 48 525.22 50.6 523.33 51.85 521.37 51.94 519.8 53.18 518.83 55.98 514.79 56.6 510.38 58.53 511.63 62.55 518.29 62.08 520.67 62.44 523.5 65.99 525.26 66.25 527.54 71.76 527.9 72.21 529.26 75.92 529.26 78.17 528.71 79.28 529.45 83.92 528.05 86.81 527.81 89.73 528.17 93.78 529.66 96.75 530.23 98.25 532.99 100.83 535.41 104.65 536.3 Z" id="31570330"/>
<path d="M 621.15 145.73 622.44 147.6 624.32 155.45 627.17 163.77 629.89 172.71 630.4 179.8 632.19 187.35 633.96 189.89 635.63 193.63 635.15 200.35 636.92 203.54 638.13 209.82 635.89 215.53 632.47 217.28 631.55 221.87 631.77 235.47 633.89 240.23 638.81 243.87 646.31 244.83 652.49 246.69 659.23 249.08 660.53 250.89 663.97 253.27 667.29 254 671.97 254.3 678.74 252.95 683.18 252.4 686.13 251.63 693.47 250.63 700.54 251.45 702.13 252.45 705.35 253.48 705.45 254.64 708.41 258.02 711.78 258.74 717.14 257.23 720.18 257.66 724.04 256.91 726.36 257.56 732.54 261.21 736.72 262.65 741.28 267.37 744 268.92 747.06 269.8 752.95 270.35 759.91 271.7 760.76 273.33 764.56 276.1 765.35 282.39 765.12 285.58 763.13 295.98 764.9 301.06 767.71 306.35 779.66 310.36 782.28 314.14 786.77 317.43 788.16 317.78 789.28 321.39 788.06 325.58 788.93 328.25 790.8 331.14 792.09 334.64 793.54 341.33 795.86 345.28 796.3 350.11 797.31 352.88 792.62 359.42 790.44 360.44 787.04 365.08 787.31 374.09 788.12 375.74 791.34 377.86 791.52 381.31 793.83 389.45 795.35 392.01 797.62 400 798.41 406.07 798.57 410.21 797.49 413.76 799 415.96 798.8 417.01 796.01 420.68 795.07 425.73 793.14 430.47 792.9 434.31 790.75 437.73 787.43 439.46 785.58 442.4 784.46 447.76 783.17 450.52 783.42 451.93 780.69 453.63 779.25 457.2 779.42 459.18 777.47 463.44 773.94 461.51 771.17 460.59 766.41 460.89 762.17 460.45 759.08 458.59 756.6 458.83 755.02 459.83 751 460.86 748.74 460.48 745.19 457.32 742.34 457.54 739.3 460.43 735.24 461.07 733.06 463.76 732.28 466.46 730.21 467.05 728.93 468.81 725.89 470.4 721.16 469.98 718.84 471.9 717.83 473.9 714.7 474.55 712.54 476.24 710.16 476.42 707.86 475.83 705.41 474.44 702.64 474.83 698.21 473.49 695.87 473.36 692.75 472.05 689.96 474.45 689.52 476.57 688.07 478.67 683.25 481 682.65 485.14 681.39 486.24 678.63 486.74 674.83 489.78 671.58 490.24 669.32 492.98 666.08 494.19 662.46 494.38 661.92 497.64 660.44 501.51 659.37 501.08 656.57 502.39 654.82 502.08 654.09 503.81 652.51 505.2 650.3 508.85 647.35 509.1 645.67 510.73 640.33 512.37 638.03 514.63 636.85 514.02 634.01 514.43 631.51 511.82 629.87 511.89 630.66 509.08 627.76 509.35 625.04 509.08 618.64 506.72 612.07 506.01 601.09 505.35 595.96 506.28 591.18 509.57 586.13 514.46 583.53 516.65 581.6 520.77 581.37 522.76 583.13 526.39 581.94 529.05 579.83 527.51 577.19 526.52 576.66 524.85 575.05 523.04 574.47 519.28 572.32 517.61 569.01 513.42 568.63 511.72 569.29 509.53 567.01 506.88 567.15 504.57 564.98 503.42 562.64 504.15 561.08 501.99 561.05 500.33 557.83 499.12 551.05 500.47 549.77 502.3 546.84 503.54 545.51 502.81 542.68 498.12 540.62 496.55 536.71 494.85 535.69 493.24 531.47 489.78 531 488.71 528.33 486.28 523.76 483.1 522.48 481.73 517.44 482.16 512.23 484.16 506.9 483.69 505.25 484.6 502.77 483.98 499.46 485.15 494.94 485.03 493.36 485.52 488.69 484.93 484.9 487.85 480.77 485 479.01 484.76 477.55 483.36 474.3 482.39 471.86 480.28 468.33 481.22 463.14 479.64 461.44 476.82 457.41 474.01 452.03 474.79 449.59 474.68 449.19 472.62 445.37 466.72 443.57 466.55 439.61 467.52 435.27 468.96 433.36 469.13 426.73 471.31 424.97 471 421.37 468.96 418.64 468.13 413.57 468.27 411.98 467.49 408.08 468.66 406.45 471.43 404.83 472.28 400.65 471.82 395.56 474.76 392.12 474.75 387.2 473.58 380.35 473.6 375.95 473.37 369.22 475.07 365.62 473.49 364.29 471.84 361.88 470.11 360.17 466.41 359.08 463.07 356.48 460.61 355.22 458.66 353.09 454.15 351.89 452.92 348.61 452.24 346.42 450.02 342.26 447.09 339.44 445.47 336.7 440.85 340.62 433.18 340.96 418.53 345.86 410.64 342.36 398.36 342.87 382.52 345.7 378.88 350.79 363.21 354.47 352.28 348.88 345.49 340.71 341.41 328.2 336.94 325.16 331.66 319.79 328.48 309.23 316.21 300.09 314.88 294.96 308.57 282.72 311.93 269.84 313.16 267.97 312.52 267.36 310.68 268.69 307.97 268.23 305.56 269.32 301.94 264.57 295.3 263.81 293.71 261.8 292.32 259.31 291.69 255.12 292.53 254.56 290.39 252.96 288.87 252.13 286.74 249.77 284.01 250.63 281.53 251.92 279.97 252.99 276.94 255.86 272.45 256.09 269.55 255.67 267.43 251.71 265.49 251.59 264.02 250.22 262.22 249.77 259.74 250.64 257.06 250.02 255.49 250.83 252.57 253.18 249.54 253.04 247.85 255.04 245.9 256.67 245.45 257.79 242.94 260.94 238.92 262.53 235.9 261.92 232.65 262.37 228.76 264.09 226.37 264.68 223.72 267.54 221.13 268.18 219.82 267.14 215.24 266.73 210.92 266.59 205.5 268.75 201.27 268.14 200.01 271.68 196.39 274.38 195.34 277.6 198.03 279.3 198.44 281.2 195.56 282.88 191.93 287.19 189.48 288.92 189.29 291.71 185.15 295.18 182.42 298.88 180.17 302.68 179.23 308.4 175.97 314.49 176.76 314.98 175.29 317.59 171.83 319.43 167.29 319.43 165.96 322.79 160.17 325.46 158 328.65 157.34 331.71 155.13 332.32 150.84 333.51 149.19 334.2 146.43 335.22 145.44 336.49 141.82 335.4 132.64 336.06 128.73 339.28 125.05 340.96 120.72 341.26 117.59 345.02 114.4 344.37 113.15 344.44 110.19 343.87 109.18 344.37 106.45 345.48 104.21 347.41 98.53 349.89 97.25 351.44 93.3 352.75 93.01 355.7 90.4 357.63 86.26 360.48 82.69 359.74 79.54 362.98 74.56 363.94 69.67 361.5 63.54 357.05 59.76 358.44 55.56 358.2 52.39 359.26 51.53 363.47 51.52 366.38 50.46 368.08 48.77 371.22 47.95 373.74 46.68 383.24 38.13 384.41 34.86 390.27 29.78 391.56 25.17 393.33 22.6 394.9 22.57 396.87 19.2 396.15 17.42 398.49 15.58 399.92 12.27 403.88 8.34 405.17 4.42 407.09 1 411.92 3 414.62 6.57 416.68 8.42 421.09 9.91 422.32 12.53 421.89 21.78 419.8 28.71 418.16 38.76 420.51 46.5 420.15 48.77 422.07 51.22 423.28 54.35 423.68 59.72 428.22 64.26 430.47 71.44 427.96 75.8 429.29 78.1 429.63 83.88 431.22 88.15 431.73 95.23 433.28 99.44 436.95 103.24 438.58 106.34 440.27 107.18 442.48 111.31 445.73 114.57 448.97 115.03 451.15 117.24 456.98 120.82 461.03 122.77 463.21 125.4 465.39 129.63 467.13 130.12 473.7 129.74 477.83 130.01 484.06 129.74 488.1 130.14 491.38 132.45 496.72 133.96 501.87 133.45 506.65 133.52 510.33 134.21 514.51 135.66 521.83 137.05 524.31 137.21 525.85 144.2 531.5 146.45 539.26 153.72 550.56 143.99 558.48 147.12 564.89 145.66 568.79 145.84 572.95 145.06 577.18 144.71 583.54 143.11 589.81 143.66 597.12 142.75 601.11 140.61 614.41 145.51 621.15 145.73 Z" id="31570350"/>
<path d="M 336.7 440.85 331.94 446.72 324.25 451.08 320.16 450.31 317.54 456.13 303.54 464.32 301.17 469.92 304.65 474.26 306.9 483.83 304.28 493.59 304.37 496.56 303.59 499 303.62 501.01 304.78 504.49 308.33 508.97 310.5 513.74 313.11 515 320.28 514.67 321.97 515.37 324.65 517.88 325.79 521.15 325.03 523.66 325.99 529.24 327.43 533.12 328.61 534.85 329.07 537.07 328.6 540.32 330.56 544.81 330.56 546.25 333.66 549.51 334.8 552.27 335.16 556.83 335.8 559.62 339.32 560.42 340.72 561.19 341.4 563.01 340.43 565.99 340.91 570.91 341.53 573.88 340.69 583.92 340.22 585.87 340.27 590.79 340.95 592.35 343.57 595.18 346.09 603.29 347.11 605.02 345.05 606.59 343.24 608.9 338.12 611.26 336.47 614.69 335.81 617.85 334.59 619.65 333.49 622.61 333.62 625.04 332.81 626.42 330.25 628.66 330.27 631.04 332.38 632.53 333.41 634.7 336.07 636.71 337.96 641.68 339.07 642.4 341.82 646.38 340.53 650.19 341.7 654.28 343.55 658.13 346.66 661.18 350.69 665.73 351.62 667.3 352.65 671.11 352.1 673.04 349.02 674.73 347.43 675.06 345.95 679.57 344.49 681.7 342.39 687.85 340.53 689.74 339.54 693.25 339.65 694.5 343.16 695.9 345.41 700.51 346.06 703.49 345.61 705.52 345.97 707.62 348.42 710.5 349.55 712.65 350.09 715.03 352.58 718.78 351.09 720.14 345.86 722.29 343.68 723.64 341.48 729.23 337.15 729.55 330.03 731.37 328.52 733.18 327.24 733.28 324.57 735.06 318.18 736.12 316.35 737.12 313.51 736.68 312.27 738.32 310.9 738.29 307.78 739.38 306.45 739.18 302.56 741.96 300.5 739 296.47 735.18 296.11 731.12 299.52 726.24 299.11 724.05 296.48 723.75 293.66 725.4 287.51 730.35 285.5 731.28 278.34 732.68 272.22 733.29 270.65 733.72 261.86 738.72 259.24 739.1 256.94 738.5 255 736.56 253.85 734.61 252.98 729.64 252.2 727.19 249.66 724.23 246.39 723.45 244.47 725.42 243.28 732.03 242.33 734.61 239.49 737.02 236.73 737.5 233.09 737.14 230.74 735.16 228.39 729.8 227.45 724.23 224.86 717.5 224.42 713.85 222.94 709.6 211.78 701.99 208.01 703.47 203.76 705.93 199.85 710.23 193.88 712.43 191.43 713.87 186.93 713.9 184.83 713.53 175.74 708.73 173.12 705.21 169.58 702.37 168.84 700.12 168.89 698.07 169.75 693.85 169.38 691.62 165.23 687.27 162.6 682.02 161.86 678.78 162.18 674.15 163.71 670.72 159.99 664.88 157.14 661.96 152.17 660.65 152.65 659.17 157.15 655.06 157.44 653.04 159.34 649.34 160.45 648.73 161.94 644.69 159.03 643.82 154.89 644.63 153.29 643.4 149.46 643.46 147.42 642.48 145.41 642.8 142.82 641.62 141.4 642.44 137.78 641.64 136.55 638.32 136.9 637.37 135.93 634.27 134.55 633.45 131.54 632.92 129.32 630.12 127.15 625.32 124.29 623.48 123.79 621.24 124.52 616.62 122.32 613.61 121.68 611.31 122 607.11 122.82 605.7 122.25 603.03 122.81 601.53 121.25 599.54 121.32 598.16 119.27 596.78 119.43 593.45 120.73 589.56 124.7 584.84 125.43 582.92 123.52 581.81 119.65 578.26 119.18 576.92 116.56 576.05 115.51 572.43 113.93 569.46 112.36 567.65 113.05 565.11 111.99 564.74 111.96 562.37 109.86 558.56 106.48 558.31 104.92 554.39 105.82 552.16 105.44 546.8 105.77 542.38 104.44 539.99 104.65 536.3 105.08 535.3 104.47 532.84 106.43 530.27 110.36 531.02 111.82 530.56 115.27 527.31 118.26 520.92 120.89 519.24 128.01 520.13 128.79 517.83 130.03 516.3 130.5 513.2 129.91 511.98 129.95 507.97 130.82 505.88 132.99 503.71 132.78 501.08 128.03 499.04 127.09 492.9 127.67 490.76 127.06 484.06 126.54 481.52 127.9 478.98 126.8 474.26 128.56 472.39 128.58 468.57 132.14 465.55 135.34 463.74 139.34 457.95 140.55 454.86 138.27 450.62 137.92 447.91 135.97 446.48 136.72 443.65 136.4 442.17 137.4 439.35 135.78 430.8 136.36 428.13 137.72 424.57 139.9 421.08 139.37 419.13 142.78 417.91 143.27 416.04 142.76 413.3 142.89 410.77 140.49 408.99 139.43 406.04 136.13 404.32 139.36 399.11 141.22 394 142.16 393.49 143.57 390.61 142.2 384.08 140.64 381.46 141.47 379.78 140.34 376.8 140.67 374.45 142.7 372.17 143.77 369.87 143.58 366.08 144.23 363.97 146.73 362.5 149.85 363.02 153.89 366.16 154.99 366.35 160.17 371.03 162.7 371.04 165.46 369.73 168.08 367.29 169.47 366.95 173.47 364.46 175.53 362.26 177.7 361.41 179.62 362.32 180.83 364.81 182.95 364.71 185.25 366.67 185.3 370.86 186.59 371.97 188.52 375.28 192.27 376.72 194.46 376.24 197.88 374.5 200.97 376.56 204.28 376.58 204.12 375.09 216 365.46 217.04 364.33 225.19 361.75 225.83 359.7 225.55 354.1 228.07 353.69 233.76 350.4 239.26 342.11 239.44 340.67 241.54 337.93 242.09 336.27 246.33 331.27 249.09 329.49 252.72 325.91 256.06 325.55 260.48 321.03 263.99 314.08 267.97 312.52 269.84 313.16 282.72 311.93 294.96 308.57 300.09 314.88 309.23 316.21 319.79 328.48 325.16 331.66 328.2 336.94 340.71 341.41 348.88 345.49 354.47 352.28 350.79 363.21 345.7 378.88 342.87 382.52 342.36 398.36 345.86 410.64 340.96 418.53 340.62 433.18 336.7 440.85 Z" id="31570360"/>
</g>
</svg>