<?xml version="1.0"?>
<svg xmlns="http://www.w3.org/2000/svg" version="1.2" baseProfile="tiny" width="800" height="561" viewBox="0 0 800 561" stroke-linecap="round" stroke-linejoin="round">
<g id="dong">
<path d="M 243.66 140.38 241.47 139.5 239.39 139.22 235.74 137.5 232.11 136.39 230.83 135.75 230.48 134.56 229.72 134.07 226.75 133.57 225.92 132.84 223.35 131.94 221.44 131.69 220.35 135.3 220.58 137.22 221.24 138.74 220.7 140.65 221.16 141.68 220.52 142.81 220.26 145.33 217.99 145.56 212.77 146.91 210.37 148.07 207.82 148.07 207.77 149.32 208.35 150.05 208.53 152.73 211.73 155.42 212.75 157.12 212.15 158.21 211.59 160.93 210.29 161.72 209.62 163.22 209.77 164.47 209.2 167.24 208.32 169.14 208.27 170.8 207.77 171.51 206.68 174.89 205.69 175.25 203.82 177.57 201.67 178.67 202.26 179.52 202 181.37 202.19 183.59 202.66 185.29 202.33 185.94 202.85 187.46 203.97 188.27 205.1 189.85 205.27 191.74 204.38 195.01 203.27 195.48 201.37 197.27 201.18 198.8 199.95 199.99 198.41 200.46 196.42 202.71 194.05 207.84 191.94 210.1 190.84 210.55 189.57 210.45 187.58 211.97 186.58 210.88 183.9 210.2 183.4 209.05 181.86 208 179.14 206.69 178.02 206.92 175.22 205.86 171.59 205.64 167.51 206.12 167.05 206.62 163.35 208.75 161.58 208.92 160.11 209.74 158.28 211.84 157.19 212.53 156.15 214.74 155.09 215.3 154.58 216.92 153.08 218.3 152.06 218.77 147.31 218.73 145.62 217.96 144.57 218.28 143.82 217.26 143.81 214.86 144.14 212.87 143.92 210.52 144.61 205.88 145.19 204.43 144.55 198.88 144.74 197.58 144.45 194.9 142.58 194.09 139.95 193.58 137.51 191.92 136.63 190.14 134.12 188.97 131.08 188.48 130.21 187.53 128.26 187.93 125.32 186.8 123.04 186.59 121.79 185.29 119.73 185.42 118.2 186.65 116.54 186.21 114.98 186.5 112.72 186.07 112.07 186.56 110.23 185.82 107.63 186.47 105.93 186.08 103.18 184.88 101.89 183.37 99.5 182.21 97.31 183.89 96.77 185.03 94.75 186.49 93.74 187.62 91.71 188.28 90.81 189.4 89.05 188.4 86.55 187.87 86.09 188.12 83.85 187.62 83.27 187 81.84 186.98 79.33 183.62 78.32 182.95 77.09 180.89 76.21 180.2 75.72 178.94 75.8 177.14 74.32 174.61 72.55 173.7 71.81 171.76 67.08 169.97 65.98 168.81 64.52 168.08 63.65 168.8 61.19 169.33 59.45 168.21 57.11 168.11 55.73 168.84 54.54 168.76 53.76 169.3 49.66 165.02 46.74 162.25 47.98 160.46 49.31 156.59 51.36 151.59 52.21 148.38 53.39 145.27 54.41 140.37 54.87 133.41 55.91 127.12 56.45 125.19 56.7 121.22 57.34 117.57 57.76 113.11 58.47 108.37 59.74 104.18 60.67 102.32 61.45 98.33 63.3 93.9 63.67 92.41 65.07 88.93 66.17 85.63 68.67 81.7 70.1 78.86 72.93 75.03 76.4 70.03 78.03 68.14 81.39 66.29 84.46 64.34 87.01 61.69 90.56 57.39 94.2 49.96 95.6 47.77 96.44 45.72 96.28 44.14 98.65 44.56 100.95 42 105.34 39.31 106.51 37.62 108.41 37.54 109.01 36.74 112.15 38.22 113.66 37.88 116.91 38.72 118.2 38.15 119.04 36.92 121.06 36.82 123.15 37.91 123.59 38.53 125.63 38.92 128.46 38.58 130.2 37.74 131.93 37.85 133.23 37.56 134.05 37.94 135.74 37.26 137.07 37.84 138.19 36.54 138.23 34.24 139.39 31.52 140.26 30.25 140.19 29.24 143.12 27.8 144.29 26.07 147.06 25.34 148.72 24.19 149.24 21.84 151.45 20.68 155.42 20.61 157.2 19.39 158.61 18.91 159.02 17.8 160.99 15.62 161.82 15.01 163.48 14.77 168.49 14.95 169.35 14.27 171.29 13.71 172.17 12.17 174.24 11.48 175.3 10.67 176.7 7.46 176.87 6.18 177.62 5.45 178 3.58 179.08 2.44 179.74 1 180.55 3.13 182.39 3.27 182.75 4.24 184.14 5.99 185.38 5.87 186.18 6.47 187.73 9.45 191.23 12.87 191.53 13.62 192.67 14 196.96 17.21 197.12 18.14 199.41 21.53 197.17 22.99 195.94 25.16 195.1 25.16 193.52 28 192.29 29.07 192.07 30.09 189.73 32.54 192.07 34.43 192.77 35.92 193.77 36.24 193.15 38.05 193.08 39.81 194.54 42.92 198.99 45.53 199.21 47.68 197.69 48.57 198.15 50.35 203.44 50.89 206.35 53.21 208.91 54.2 210.37 55.64 212.4 55.95 214.76 55.4 216.37 55.55 218.29 55.18 219.64 56.09 220.84 58.43 218.47 61.31 221.39 65.4 221.63 67.92 220.99 69.58 222.38 70.9 223.74 74.45 224.15 76.61 225.2 78.48 228.85 81.23 229.51 83.77 230.53 85.33 232.26 85.08 238.41 85.91 239.52 85.76 240.32 87.3 241.27 88.01 241.36 89.23 242.32 89.37 243.18 91.01 243.9 93.68 243.99 95.26 243.63 96.43 244.4 97.31 244.73 99.7 245.11 100.41 244.7 101.87 246.01 102.94 244.57 104.17 244.07 106 244.45 107.31 243.6 110.69 244.85 111.79 244.49 114.49 246.42 116.86 246.45 118.61 245.86 121.35 246 122.99 245.35 124.62 245 126.69 245.37 131.39 244.94 132.75 245.28 134.18 244.64 134.87 244.25 136.43 244.9 138.28 244.32 140.07 243.66 140.38 Z" id="31580350"/>
<path d="M 382.18 175.13 382.14 173.51 381.61 171.09 381.93 168.81 381.85 166.77 381.4 165.16 379.54 163.55 377.1 162.05 374.37 161.52 375.38 158.24 376.24 156.24 376.73 153.75 376.42 152.01 375.57 149.98 375.13 146.65 374.07 145.76 373.43 140.97 374.34 139.97 375.15 138.02 376.59 136.47 377.43 132.57 378.46 132.18 378.62 131.33 378.13 129.68 378.5 127.76 378.09 126.21 378.21 122.4 380.61 120.74 382.19 119.96 384.24 115.94 387.65 115.96 389.16 113.32 388.81 111.34 389.51 108.17 389.46 105.7 387.83 104.91 385.09 102 385.01 100.73 384.29 98.46 383.43 96.68 381.79 94.42 380.18 94.11 377.39 92.22 376.64 90.17 373.62 88.65 373.89 87.89 373.46 85.51 374.04 83.27 373.3 81.28 374.26 80.14 373.12 78.24 374.22 75.75 375.53 75.34 376.87 74.4 377.78 72.96 378.82 72.27 380.83 69.57 382.1 69.53 384.59 70.02 386.97 71.56 388.24 71.08 389.97 71.17 390.75 71.65 393.3 70.66 394.17 69.5 395.36 69.67 396.54 68.64 400.3 70.07 402.4 69.77 403.07 69.09 404.32 68.98 405.23 68.07 407.56 66.52 408.45 64.9 408.07 59.78 408.34 58.62 408.06 56.5 409.45 54.97 410.4 52.47 412.03 51.44 413.09 51.5 420.17 49.96 420.55 48.74 422.62 47.28 424.33 47.3 425.53 46.45 426.27 46.67 427.63 45.87 428.42 44.37 430.87 43.86 431.85 42.29 433.05 42.04 434.03 39.55 435.14 37.76 435.08 36.97 435.77 35.22 437.46 35.93 439.85 35.78 440.81 36.34 442.27 36.52 443.45 37.69 445.85 38.22 446.07 39.59 447.32 42.38 448.49 42.75 449.71 44.33 451.34 45.15 452.21 45.99 453.88 44.86 455.4 43.43 457.35 44.05 459.24 45.59 460.32 48.87 460.48 50.09 461.72 50.99 464.71 51.15 464.98 52.42 464 55.02 463.82 56.26 464.89 57.17 466.92 53.62 468.83 51.54 470.01 50.81 471.52 50.63 473.3 51.62 474.2 52.71 475.11 54.58 476.21 55.89 478.11 57.48 479.44 57.7 481.81 56.25 482.9 56.37 483.2 57.65 482.37 60.13 482.11 62.03 482.3 63.73 482.9 64.45 484.71 64.78 485.98 63.89 488.18 64.09 489.88 65.4 490.03 66.55 489.37 68.42 490.76 69.82 492.87 70.16 494.52 70.07 498.04 69.17 500.58 69.17 501.87 69.57 502.08 71.98 501.79 73.53 502.46 76.47 504.32 79.94 505.19 83.23 506.19 85.43 508.21 87.36 511.42 88.8 514.01 88.86 517.32 88.29 521.52 85.99 523.62 84.98 525.53 85.12 526.77 85.94 527.61 87.53 528.12 92.5 529.25 94.42 530.99 95.68 532.26 98.01 535.79 99.93 537.97 101.69 539.48 103.47 542.14 104.66 542.69 105.92 543.77 107.22 545.97 108.36 547.29 109.4 549.89 112.39 555.71 114.53 555.61 115.59 557.85 117.27 559.5 117.95 560.63 121.38 561.65 121.95 562.8 121.6 564.29 121.94 565.04 123.43 566.39 124.32 566.85 125.24 567.93 125.89 568.01 127.2 570.91 127.82 571.92 127.32 574.66 128.15 575.17 130.01 576.05 131.92 578.47 133.67 579.36 135.16 580.29 135.2 581.56 136.75 581.1 138.26 579.05 139.35 579.26 140.03 577.75 141.29 577.98 142.98 576.73 144.54 574.8 145.11 573.63 146.45 572.32 146.93 571.47 148.03 571.42 149.18 570.24 150.43 569.91 152.12 571.21 154.24 569.85 156.41 570.83 159.07 570.05 159.9 570.28 160.88 569.14 162.23 569.31 163.37 568.39 163.64 567.78 164.85 566.93 165.22 568.34 167.54 567.81 169.03 566.35 169.1 565.23 170.56 564.07 171.44 563.5 174.23 563.91 175.89 565.07 177.34 564.4 180.71 563.98 181.19 565.6 184.88 566.46 184.82 567.19 186.61 568.23 187.46 568.06 188.43 568.53 192.23 569.35 193.32 569.89 194.88 569.11 196.55 570.41 197.86 571.36 199.36 571.42 200.31 572.55 202.84 569.96 206.21 569.95 207.61 570.57 209 570.68 211.45 570.09 214.13 569.15 213.55 567.12 213.57 565.45 215.05 564.98 216.26 564.06 217.1 564.73 218.91 565.66 220.13 565.93 221.52 565.72 223.16 564.21 224.17 564.29 224.95 563.31 225.92 563.7 226.76 563.37 228.52 562.05 228.73 560.69 230.29 560.87 231.64 560.32 232.67 561 233.43 561.25 234.94 560.65 236.53 559.91 236.85 560.06 238.16 558.12 238.8 557.86 237.69 556.81 237.56 553.99 235.26 552.77 234.96 551.81 233.92 550.09 235.42 549.79 236.82 550.24 238.62 551.2 240.11 551.4 242.69 554.72 246.9 555.28 248.07 553.03 249.87 552.12 249.92 551.55 251 549.99 251.82 549.33 254.81 549.63 255.65 548.72 257.37 550.34 260.28 549.16 263.11 550.42 263.63 552.14 263.78 552.96 264.42 554.68 264.35 555.59 263.77 558.08 264.03 557.78 265.13 556.06 268.39 556.99 268.39 556.14 270.51 555.43 273.27 554.49 275.54 556.32 278.24 558.09 278.19 559.96 279.48 561.32 279.26 562.22 280.05 562.37 281.81 566.03 281.97 570.23 285.43 568.52 287.26 568.16 289.97 567.6 292.38 565.95 293.25 565.31 294.73 566.77 294.33 567.49 294.89 567.44 295.95 566.48 296.16 565.88 297.41 565.48 300.12 564.62 301.75 562 303.85 560.51 304.65 558.66 305.15 558.95 307.37 558.58 310.58 559.44 312.87 558.98 314.18 559.06 315.63 558.28 318.22 558.69 319.88 560.24 323.2 558.64 324.02 555.83 326.78 556.44 328.9 556.04 330.93 554.82 331.02 553.11 332.66 553.24 334.2 552.1 334.18 549.63 332.43 547.22 330.07 546.58 327.93 545.44 328.25 541.69 325.7 539.88 322.04 539.04 321.74 537.81 320.19 534.72 319.33 533.77 319.48 531.73 317.57 526.9 318.48 524.69 316.67 523.57 316.68 522.35 317.34 520.91 316.39 519.56 316.26 518.6 315.09 516.7 315.87 514.36 314.67 511.26 314.74 510.69 314.38 509.43 312.25 507.37 311.01 506.63 311.03 505.6 309.76 504.62 309.98 502.45 308.72 501.28 308.84 501.44 308.35 499.87 305.27 501.8 303.83 502.94 304 506.25 303.33 508.79 303.96 510 303.99 509.15 300.82 507.64 298.94 507.8 298.11 507.07 296.78 507.21 294.26 502.03 295.6 501.35 295.25 499.81 295.59 497.67 295.22 496.61 294.53 494.67 291.94 491.53 288.23 489.98 287.55 488.4 286.09 487.36 287.56 485.81 287.96 485.38 286.2 483.96 283.4 483.51 281.68 483.94 276.61 482.05 275.4 480.89 273.95 478.97 272.57 483.22 269.33 485.3 268.91 487.06 267.26 488.19 267.4 489.6 266.32 490.85 264.5 490.86 263.05 491.42 261.92 492.57 260.98 490.97 259.43 494.26 259.4 497.03 258.54 500.02 256.64 501.15 255.56 501.48 254.09 501.24 252.01 502.22 251.8 504.23 249.26 504.19 247.69 503.6 245.51 505.3 242.65 503.96 240.83 502.59 237.47 501.62 236.49 500.16 236.75 496.82 235.98 496.4 234.64 494.24 234.14 495.2 231.41 494.32 229.77 493.75 227.71 493.68 225.49 492.37 223.23 491.29 222.42 490.93 220.27 489.16 218.75 488.86 218.01 486.76 217.73 485.87 216.06 485.72 210.14 484.81 208.47 484.25 206.36 484.35 204.81 485.13 203.68 484.96 200.65 482.63 197.25 480.8 196.19 480.06 193.89 479.54 190.77 479.81 189.5 479.13 188.83 476.64 183.79 472.24 181.65 469.62 181.29 468.17 182.1 466.8 181.94 464.55 178.09 463.88 177.54 461.02 178.09 460.48 178.59 456.66 177.75 454.84 178.14 454.18 177.88 453.57 175.74 452.68 174.07 451.95 171.24 450.24 169.32 449.28 167.39 448.32 166.3 446.93 166.53 446.28 166.06 443.08 166.26 441.65 166.68 439.83 165.91 437.94 165.74 436.5 165.27 434.83 167.11 434.48 167.97 432.95 168.91 432.21 170.04 429.76 171.91 429.08 174.02 427.83 175.18 425.15 176.37 424 177.45 421.98 176.4 420.98 176.72 417.74 176.26 416.78 176.54 415.51 174.86 413.6 173.43 411.84 175.1 409.92 176.22 408.1 176.39 404.84 177.55 402.47 176.86 400.91 177.05 400.57 176.57 398.39 176.13 395.78 174.73 394.26 174.6 391.14 175.39 390.26 175.26 387.88 175.83 385.68 175.05 384.73 175.58 382.18 175.13 Z" id="31580360"/>
<path d="M 798.91 216.03 798.71 217.24 799 219.67 798.29 221.18 796.23 223.24 795.28 223.52 794.66 224.54 794.95 226.69 794.45 228.3 796.03 230.55 794.88 232.68 791.68 235.31 790.88 239.59 790.22 240.91 788.68 241.02 786.65 240.65 785.62 241.77 783.28 242.28 781.11 241.85 779.4 241.19 778.76 240.5 776.9 240.96 775.66 242.21 775.09 243.53 773.34 242.71 772.68 243.71 771.14 243.93 770.01 245.27 767.77 244.23 766.19 243.02 764.43 242.48 760.81 242 758.92 243.14 756.57 243.7 753.53 243.99 752.63 244.68 750.84 244.53 748.66 243.19 746.35 243.38 746 243.78 743.78 243.38 742.3 243.76 742.51 244.82 737.59 248.74 738.35 251.27 737.76 252.5 738 255.67 735.87 257.55 733.04 258.8 730.92 259.48 728.45 259.19 727.05 260.2 725.25 260.68 723.13 260.59 723.11 263.18 721.91 264.39 721.73 266.57 721.26 267.43 723.03 268.97 723.3 270.72 720.49 271.85 719.14 272.87 718.74 273.99 716.97 275.18 716.79 276.48 715.83 276.73 712.16 279.24 710.69 281.85 710.63 282.96 709.73 284.57 709.75 285.88 709.06 287.17 707.39 288.98 705.86 289.87 704.77 291.17 703.84 290.45 700.95 289.49 698.91 291.74 697.44 293.85 697.49 295.03 695.7 296.82 694.59 298.74 693.44 298.73 691.81 301.41 689.98 302.76 688.86 303.01 687.33 304.18 686.03 304.23 684.25 303.8 680.83 307.03 679.48 306.99 678.7 308.4 676.86 308.94 673.65 308.48 672.05 307.86 669.85 307.87 668.13 306.28 667.14 307.68 665.14 308.44 662.81 308.38 661.68 307.38 658.37 307.03 656.59 308.13 655.33 306.81 652.55 306.04 647.82 303.42 646.42 303.49 645.2 302.04 643.86 302.13 642.78 303.26 642.08 304.75 640.5 306.17 637.31 304.88 635.95 304.89 632.96 306.69 631.67 307.06 628.3 306.32 626.81 307.63 625.55 307.46 624.62 306.81 623.39 307.11 623.29 305.04 621.89 303.15 619.76 302.02 618.44 301.02 616.63 297.97 614.87 295.78 614.53 294.88 611.92 292.48 610.2 289.76 608.03 291.42 604.53 289.96 603.4 288.2 602.21 288.48 599.93 287.82 598.79 288.24 596.64 287.8 595.05 286.71 593.95 283.99 593.6 282.2 592.13 282.51 590.63 283.57 589.16 285.06 588.27 286.47 585.37 286.84 583.38 286.71 583.1 288.61 581.9 290.2 578.55 290.12 576.71 289.23 576.63 288.45 575.23 286.78 573.67 286.91 572.4 285.94 571 285.99 570.23 285.43 566.03 281.97 562.37 281.81 562.22 280.05 561.32 279.26 559.96 279.48 558.09 278.19 556.32 278.24 554.49 275.54 555.43 273.27 556.14 270.51 556.99 268.39 556.06 268.39 557.78 265.13 558.08 264.03 555.59 263.77 554.68 264.35 552.96 264.42 552.14 263.78 550.42 263.63 549.16 263.11 550.34 260.28 548.72 257.37 549.63 255.65 549.33 254.81 549.99 251.82 551.55 251 552.12 249.92 553.03 249.87 555.28 248.07 554.72 246.9 551.4 242.69 551.2 240.11 550.24 238.62 549.79 236.82 550.09 235.42 551.81 233.92 552.77 234.96 553.99 235.26 556.81 237.56 557.86 237.69 558.12 238.8 560.06 238.16 559.91 236.85 560.65 236.53 561.25 234.94 561 233.43 560.32 232.67 560.87 231.64 560.69 230.29 562.05 228.73 563.37 228.52 563.7 226.76 563.31 225.92 564.29 224.95 564.21 224.17 565.72 223.16 565.93 221.52 565.66 220.13 564.73 218.91 564.06 217.1 564.98 216.26 565.45 215.05 567.12 213.57 569.15 213.55 570.09 214.13 570.68 211.45 570.57 209 569.95 207.61 569.96 206.21 572.55 202.84 571.42 200.31 571.36 199.36 570.41 197.86 569.11 196.55 569.89 194.88 569.35 193.32 568.53 192.23 568.06 188.43 568.23 187.46 567.19 186.61 566.46 184.82 565.6 184.88 563.98 181.19 564.4 180.71 565.07 177.34 563.91 175.89 563.5 174.23 564.07 171.44 565.23 170.56 566.35 169.1 567.81 169.03 568.34 167.54 566.93 165.22 567.78 164.85 568.39 163.64 569.31 163.37 569.14 162.23 570.28 160.88 570.05 159.9 570.83 159.07 569.85 156.41 571.21 154.24 569.91 152.12 570.24 150.43 571.42 149.18 571.47 148.03 572.32 146.93 573.63 146.45 574.8 145.11 576.73 144.54 577.75 145.49 577.75 146.46 579.09 147.04 579.59 147.96 581.47 148.78 582.98 148.99 583.61 149.74 585.54 149.9 587.94 150.94 589.77 150.96 591.14 153.97 592.08 154.74 593.28 154.47 594.4 153.41 597.51 152.6 599.75 150.77 600.53 149.78 601.64 150.75 603.81 151.48 605.52 150.86 608.07 149.13 609.61 148.86 611.7 147.22 612.39 147.49 614.43 146.66 615.37 147.6 617.31 147.67 618.03 148.47 619.89 149.52 621.59 148.53 623.83 148.51 625.65 149.32 628.02 150.93 628.79 150.49 633.2 151.09 634.12 150.85 635.82 151.17 637.67 152.16 638.42 153.01 639.95 152.61 641.56 151.39 643.75 151.77 645.13 151.26 646.22 151.5 648 150.12 648.1 149.59 650.35 147.64 653.32 146.24 656.05 146.49 658.58 144.18 659.99 143.64 661.35 144.59 661.6 145.76 662.52 146.93 662.96 148.37 664.38 148.69 665.13 152.19 665.77 153.32 668.59 152.93 670.62 151.83 671.98 153.38 675.55 155.01 675.77 155.96 677.44 158.63 678.33 159.21 678.47 160.88 682 162.34 683.69 162.06 685.71 162.15 688.3 163.91 689.38 163.69 690.53 164.17 692.5 165.62 695.23 165.46 695.93 165.99 697.1 165.75 698.37 166.57 699.44 166.68 703.13 168.5 705.85 168.84 706.51 168.36 709.86 167.58 711.58 165.45 713.09 164.39 713.16 163.29 714.43 161.82 714.87 158.78 716.7 156.64 717.18 155.71 718.91 155.76 720.13 156.35 720.69 157.23 723.74 158.1 725.13 159.46 727.63 160.27 727.51 161.12 729.19 162.7 728.79 163.6 732.14 166.31 733.71 166.63 734.95 174.49 736.09 176.27 741.18 176.81 741.95 177.41 743.16 180.68 743.19 182.9 744.4 184.01 744.08 185.43 746.45 186.58 747.81 190.7 748.75 191.12 748.2 192.49 748.75 194.55 751.11 195.47 752.4 195.01 753.42 195.54 753.74 196.98 754.86 196.27 758.31 196.97 759.42 195.87 762.39 196.38 762.97 198.72 764.9 199.73 766.12 199.66 766.62 200.76 767.81 200.94 769.21 199.73 770.47 200.16 773.19 199.74 774 200.76 774.74 200.48 775.57 199.1 778.46 200.89 781.54 201.19 782.26 202.12 784.31 202.56 786.19 203.35 787.44 205.36 787.52 207.83 790.05 209.66 791.58 211.52 792.41 211.99 794 213.71 796.24 214.37 798.91 216.03 Z" id="31580370"/>
<path d="M 669.85 307.87 670.05 310.84 669.87 313.26 670.3 314.16 670.5 316.2 669.48 317.4 669.25 322.4 669.99 325.23 669.76 325.87 670.44 328.31 673.26 327.36 674.54 327.78 676.11 328.82 677.58 327.47 677.95 326.66 681.11 327.5 682.21 328.3 683.02 327.55 683.83 327.94 685.02 327.31 686.89 329.01 688.89 328.55 690.75 329.16 691.8 329.01 692.42 331.64 693.95 333.11 693.88 334.91 696.77 335.87 697.87 335.68 699.95 334.67 701.61 338.83 702 340.65 701.79 343.03 702.54 343.74 702.57 346.7 702.97 347.54 705.23 347.99 705.26 349.53 706.74 350.79 706.48 351.92 706.97 353.04 708.06 353.17 708.9 354.23 711 354.95 711.29 357.2 712.6 358.16 714 360.18 715.39 359.77 716.21 360.04 716.59 361.12 718.17 361.47 720.16 363.22 721.59 362.92 722.25 364.21 723.24 364.01 724.56 364.64 725.81 364.27 726.92 364.84 729.08 364.52 730.13 366.61 730.87 368.85 730.52 372.88 729.59 373.89 729.53 375.12 728.66 377.14 726.41 378.36 726.01 380.03 724.88 380.72 724.04 381.85 724.72 382.45 724.44 383.93 724.54 387.9 726.53 389.82 726.48 390.95 725.56 393.19 725.75 394.04 726.96 394.66 726.92 396.91 727.88 399.36 728.81 402.67 728.16 403.98 728.97 407.76 728.13 408.5 728.75 410.01 728.89 413.68 728.08 415.11 728.12 418.5 727.49 419.66 729.15 424.26 728.97 425.75 729.82 426.84 730.61 426.94 731.25 427.35 732.89 429.65 732.45 431.07 733.56 433.89 734.94 434.88 734.56 436.82 735.74 439.27 735.08 440.01 734.96 441.25 735.98 444.56 735.07 445.67 733.72 445.52 733.51 447.91 732.16 448.13 728.56 447.93 726.83 448.78 724.95 450.72 724.33 451.89 722.8 452.28 722.13 453.36 722.39 454.71 721.41 455.54 720.81 456.88 721.14 458.47 720.68 459.76 721.04 461.17 719.82 463.41 718.72 464.41 718.33 466.37 718.2 472.34 717.69 474.71 716.58 476.28 716.91 477.44 716.09 479.64 716.01 482.67 715.06 483.48 715.07 485.65 713.73 486.94 713.69 487.77 712.49 488.74 712.8 489.72 712.24 490.88 712.49 492.23 712.02 493.17 712.76 494.87 712.56 496.5 711.63 497.65 710.29 498.22 710.28 499.15 708.07 501.03 706.69 501.17 707.16 505.35 707.78 506.94 705.74 510.51 703.62 511.54 704.43 512.68 705.82 516.65 707.24 519.31 706.03 520.51 705.27 522.47 702.63 523.12 701.78 523.04 700.79 524.6 699.31 525.4 698.98 526.57 697.77 527.66 696.36 529.58 696.45 534.09 695.29 536 695.14 537.68 696.45 540.67 697.6 542.26 697.63 543.72 696.96 545.27 696.9 546.47 698.2 548.24 698.04 548.84 699.23 550.59 699.91 552.78 697.58 551.94 695.5 552.58 694.58 553.55 691.95 554.46 691.12 554.16 689.2 554.73 687.41 554.92 686.41 555.42 685.52 555 682.43 555.23 680.79 554.61 676.21 554.44 674.39 555.44 673.58 556.61 672.01 557.75 671.43 559.88 670.52 559.23 669.05 559.83 667.24 560 664.42 557.97 662.79 557.3 661.48 557.32 660.56 555.52 657.9 555.65 656.31 556.48 654.52 555.94 650.94 556.66 647.93 554.93 646.96 554.96 645.38 554.05 644.01 551.66 642.01 550.84 640.68 551.89 639.67 550.48 637.35 549.12 636.67 548.27 634.79 547.03 633.7 546.76 633.4 545.9 631.47 544.76 630.75 543.55 629.06 544.12 627.42 543.24 625.31 545.21 625.49 547.51 623.38 548.37 622.1 549.38 621.54 550.59 619.05 551.97 617.51 551.16 615.37 551.71 613.63 551.72 612.69 552.54 611.66 552.16 610.13 552.31 608.19 553.87 607.58 554.82 604.8 553.8 603.66 553.66 602.67 552.56 602 552.54 598.47 550.92 597.26 552.02 596.86 553.12 594.3 555.29 593.85 554.26 592.11 552.51 590.41 551.19 588.53 550.62 586.64 549.62 585.23 547.61 585.69 546.88 585.88 544.15 585.06 542.22 585.17 541.06 584.37 540.79 583.94 537.24 587.88 535.22 587.97 533.78 588.76 528.76 588.26 527.93 589.14 526.35 587.75 521.1 588.43 520.05 588.64 516.4 589.4 514.19 590.84 512.02 592.51 511.32 594.6 509.39 596.92 508.94 597.37 507.13 602.08 503.67 602.96 502.61 604.19 502.39 604.2 501.24 605.04 499.41 604.31 498.17 604.28 496.72 605.33 495.57 603.62 492.83 603.77 490.39 602.1 489.87 601.91 489.13 599.84 487.91 598.62 487.74 598.36 485.62 597.35 484.39 596.03 481.36 594.81 480.46 595.24 478.92 595.32 476.75 595.91 475.39 596.79 474.67 597.35 472.21 598.24 471.51 599.8 468.67 599.7 465.98 600.63 464.08 601.08 460.43 601.04 456.95 600.73 455.87 599.07 454.29 599.02 453.53 597.51 451.77 595.92 451.51 595.28 450.74 592.78 449.67 592.87 448.17 590.77 444.94 588.64 443.87 587.83 443.04 585.69 442.07 584.54 442.77 583.56 440.41 583.71 438.83 583.34 437.16 581.73 435.88 580.63 432.89 581.08 431.78 582.59 429.74 584.13 428.95 584.99 427.53 585.07 426.34 586.26 423.47 587.17 422.49 587.66 421.16 589.88 419.33 590.47 418.19 589.84 417.34 590.2 415.67 591.29 414.28 591.57 411.31 592.39 409.94 591.76 408.63 591.21 405.55 588.76 403.83 588.59 401.5 589.53 400.15 589.07 398.6 588.98 396.48 588.05 395.33 587.54 393.67 586.56 392.8 586.77 391.45 586.23 389.68 585.61 388.9 585.96 386.62 585.59 384.64 586.11 383.91 585.62 381.91 584.48 380.57 585.91 379.57 585.28 378.72 583.51 377.99 581.47 376.33 578.62 375.87 576.16 373.27 574.96 374.01 573.31 373.3 572.02 374.01 570.33 373.97 568.37 375.6 566.49 375.48 565.03 374.84 563.57 375.94 560.6 375.54 559.25 373.94 556.61 374.84 555.62 373.67 555.08 372.25 552.91 371.42 553.08 369.28 551.78 365.24 551.88 362.39 549.97 361.45 548.7 359.44 544.71 358.15 544.06 356.05 541.59 354.9 540.69 351.85 541.47 349.58 541.21 348.6 541.74 346.47 542.99 345.51 543.26 344.11 544.95 344.19 545.69 343.31 547.95 343.19 547.7 341.94 549.42 341.3 549.5 338.28 550.41 337.96 551.2 336.39 551.95 336.21 553.25 334.73 553.24 334.2 553.11 332.66 554.82 331.02 556.04 330.93 556.44 328.9 555.83 326.78 558.64 324.02 560.24 323.2 558.69 319.88 558.28 318.22 559.06 315.63 558.98 314.18 559.44 312.87 558.58 310.58 558.95 307.37 558.66 305.15 560.51 304.65 562 303.85 564.62 301.75 565.48 300.12 565.88 297.41 566.48 296.16 567.44 295.95 567.49 294.89 566.77 294.33 565.31 294.73 565.95 293.25 567.6 292.38 568.16 289.97 568.52 287.26 570.23 285.43 571 285.99 572.4 285.94 573.67 286.91 575.23 286.78 576.63 288.45 576.71 289.23 578.55 290.12 581.9 290.2 583.1 288.61 583.38 286.71 585.37 286.84 588.27 286.47 589.16 285.06 590.63 283.57 592.13 282.51 593.6 282.2 593.95 283.99 595.05 286.71 596.64 287.8 598.79 288.24 599.93 287.82 602.21 288.48 603.4 288.2 604.53 289.96 608.03 291.42 610.2 289.76 611.92 292.48 614.53 294.88 614.87 295.78 616.63 297.97 618.44 301.02 619.76 302.02 621.89 303.15 623.29 305.04 623.39 307.11 624.62 306.81 625.55 307.46 626.81 307.63 628.3 306.32 631.67 307.06 632.96 306.69 635.95 304.89 637.31 304.88 640.5 306.17 642.08 304.75 642.78 303.26 643.86 302.13 645.2 302.04 646.42 303.49 647.82 303.42 652.55 306.04 655.33 306.81 656.59 308.13 658.37 307.03 661.68 307.38 662.81 308.38 665.14 308.44 667.14 307.68 668.13 306.28 669.85 307.87 Z" id="31580380"/>
<path d="M 501.28 308.84 502.45 308.72 504.62 309.98 505.6 309.76 506.63 311.03 507.37 311.01 509.43 312.25 510.69 314.38 511.26 314.74 514.36 314.67 516.7 315.87 518.6 315.09 519.56 316.26 520.91 316.39 522.35 317.34 523.57 316.68 524.69 316.67 526.9 318.48 531.73 317.57 533.77 319.48 534.72 319.33 537.81 320.19 539.04 321.74 539.88 322.04 541.69 325.7 545.44 328.25 546.58 327.93 547.22 330.07 549.63 332.43 552.1 334.18 553.24 334.2 553.25 334.73 551.95 336.21 551.2 336.39 550.41 337.96 549.5 338.28 549.42 341.3 547.7 341.94 547.95 343.19 545.69 343.31 544.95 344.19 543.26 344.11 542.99 345.51 541.74 346.47 541.21 348.6 541.47 349.58 540.69 351.85 541.59 354.9 544.06 356.05 544.71 358.15 548.7 359.44 549.97 361.45 551.88 362.39 551.78 365.24 553.08 369.28 552.91 371.42 555.08 372.25 555.62 373.67 556.61 374.84 559.25 373.94 560.6 375.54 563.57 375.94 565.03 374.84 566.49 375.48 568.37 375.6 570.33 373.97 572.02 374.01 573.31 373.3 574.96 374.01 576.16 373.27 578.62 375.87 581.47 376.33 583.51 377.99 585.28 378.72 585.91 379.57 584.48 380.57 585.62 381.91 586.11 383.91 585.59 384.64 585.96 386.62 585.61 388.9 586.23 389.68 586.77 391.45 586.56 392.8 587.54 393.67 588.05 395.33 588.98 396.48 589.07 398.6 589.53 400.15 588.59 401.5 588.76 403.83 591.21 405.55 591.76 408.63 592.39 409.94 591.57 411.31 591.29 414.28 590.2 415.67 589.84 417.34 590.47 418.19 589.88 419.33 587.66 421.16 587.17 422.49 586.26 423.47 585.07 426.34 584.99 427.53 584.13 428.95 582.59 429.74 581.08 431.78 580.63 432.89 581.73 435.88 583.34 437.16 583.71 438.83 583.56 440.41 584.54 442.77 585.69 442.07 587.83 443.04 588.64 443.87 590.77 444.94 592.87 448.17 592.78 449.67 595.28 450.74 595.92 451.51 597.51 451.77 599.02 453.53 599.07 454.29 600.73 455.87 601.04 456.95 601.08 460.43 600.63 464.08 599.7 465.98 599.8 468.67 598.24 471.51 597.35 472.21 596.79 474.67 595.91 475.39 595.32 476.75 595.24 478.92 594.81 480.46 592.99 481.39 591.76 481.49 590.12 482.71 589.93 483.32 588.46 483.79 587.73 484.72 585.65 485.04 584.27 486.38 582.91 485.47 581.29 485.7 579.73 488.1 579.83 489.35 577.42 492.23 576.38 492.91 575.6 494.04 574.24 494.44 572.78 496.23 569.54 497.15 568.18 496.97 565.94 497.6 564.9 498.9 564.19 500.98 563.23 501.78 560.08 503.11 559.42 503.08 560.1 493.89 560.54 490.67 560.61 488.49 563.08 488.67 563.61 482.6 564.37 481.8 565.03 477.91 562.15 476.39 561.58 474.87 560.52 474.22 557.88 473.25 554.54 474.88 553.34 476.84 551.91 475.79 550.93 475.93 549.97 476.74 547.76 475.98 544.13 477.74 539.75 477.07 536.81 477.42 535.58 478.43 534.75 476.59 532.95 475.06 532.53 473.73 531.01 473.19 528.05 471.44 525.39 470.77 524.46 470.81 521.28 468.9 520.29 469.61 519.28 471.92 517.46 474.36 517 475.35 515.43 476.04 514.45 478.94 513.49 480.62 513.95 483.4 512.64 485.42 510.96 486.48 505.34 491.2 504.36 491.39 503.09 491.36 500.56 490.24 499.26 489.37 497.71 487.63 497.7 485.63 496.78 484.73 494.72 483.63 494.25 482.09 493.08 481.69 490.12 479.72 490.2 479.07 489.21 477.44 488.16 476.76 487.49 475.38 485.26 475.32 483.96 475.57 482.37 475.35 481.81 476.16 479.5 476.39 478.59 475.7 476.75 475.87 474.33 475.24 474.04 476.29 472.6 477.93 470.69 479.32 469.54 481.54 466.81 482.35 465.6 483.32 464.82 482.75 464.35 481.39 463.22 479.49 463.3 477.96 462.34 477.02 461.26 474.89 458.26 473.8 457.48 472.72 456.12 473.68 455.46 471.81 453.59 471.93 451.49 471.67 450.9 470.6 449.89 470.41 448.28 469.06 448.84 467.35 446.72 465.72 444.19 466.5 443.28 466.22 442.63 465.07 441.27 464.09 437.94 463.76 437.22 461.66 435.5 461.4 433.45 461.81 432.55 461.63 429.23 462.41 426.83 462.31 426.18 463.26 423.52 461.76 422.11 459.58 421.09 459.53 421.34 457.04 419.87 456.44 419.12 454.5 417.69 453.7 416.59 453.55 416.46 451.91 415.92 450.98 416.71 450.01 416.61 448.19 414.63 447.69 413.57 446.58 413.44 444.6 414.1 444.17 413.73 442.63 413.84 439.6 413.19 437.45 412.5 436.58 413.94 433.6 413.99 432.33 414.97 431.54 415.03 429.16 416.14 428.37 416.71 426.38 416.2 424.81 418.31 422.45 418.64 418.91 418.03 417.82 418.71 415.49 418.1 414.57 417.98 413.23 419.24 411.07 420.52 410.28 422.24 409.94 424.43 408.05 426.99 407.14 428.56 407.19 429.53 405.84 433.8 404.63 436.88 404.61 440.18 405.25 441.12 405 441.79 405.87 443.61 405.51 448.64 402.52 450.47 400.25 452.29 399.33 452.94 397.97 455.6 396.72 456.65 395.58 459.83 395.94 460.69 396.66 462.6 397.4 463.39 397 465.18 396.92 467.59 395.76 467.08 394.49 466.76 392.41 466.85 390.78 467.45 389.35 467.64 387.31 466.74 384.58 466.97 382.88 465.4 381.72 464.32 379.27 464.24 376.59 464.69 374.93 464.26 373.44 464.56 372.19 463.84 370.77 463.45 369.13 464.22 367.36 463.4 362.73 463.64 361.47 463.53 358.78 462.26 356.76 461.69 354.84 461.45 352.09 460.18 349.34 457.46 347.47 456.25 346.04 457.38 344.7 457.56 343.47 458.36 341.62 459.16 341.15 460.39 338.43 460.56 336.93 460.1 333.14 460.34 332.09 463.68 332.08 465.1 331.43 465.62 329.01 467.66 327.45 468.5 326.42 470.82 324.49 470.3 323.68 470.95 318.49 472.17 317.21 470.1 313.03 469.99 312.26 471.87 312.23 473.9 310.41 476.22 306.65 477.23 305.82 484.1 301.92 485.98 303.99 486.18 304.95 488.09 306.12 489.03 307.88 491.86 309.18 493.06 310.83 494.74 310.82 495.21 309.64 497.05 309.81 498.21 309.57 499.29 310.35 501.1 310.12 501.28 308.84 Z" id="31580390"/>
<path d="M 501.28 308.84 501.1 310.12 499.29 310.35 498.21 309.57 497.05 309.81 495.21 309.64 494.74 310.82 493.06 310.83 491.86 309.18 489.03 307.88 488.09 306.12 486.18 304.95 485.98 303.99 484.1 301.92 477.23 305.82 476.22 306.65 473.9 310.41 471.87 312.23 469.99 312.26 470.1 313.03 472.17 317.21 470.95 318.49 470.3 323.68 470.82 324.49 468.5 326.42 467.66 327.45 465.62 329.01 465.1 331.43 463.68 332.08 460.34 332.09 460.1 333.14 460.56 336.93 460.39 338.43 459.16 341.15 458.36 341.62 457.56 343.47 457.38 344.7 456.25 346.04 457.46 347.47 460.18 349.34 461.45 352.09 461.69 354.84 462.26 356.76 463.53 358.78 463.64 361.47 463.4 362.73 464.22 367.36 463.45 369.13 463.84 370.77 464.56 372.19 464.26 373.44 464.69 374.93 464.24 376.59 464.32 379.27 465.4 381.72 466.97 382.88 466.74 384.58 467.64 387.31 467.45 389.35 466.85 390.78 466.76 392.41 467.08 394.49 467.59 395.76 465.18 396.92 463.39 397 462.6 397.4 460.69 396.66 459.83 395.94 456.65 395.58 455.6 396.72 452.94 397.97 452.29 399.33 450.47 400.25 448.64 402.52 443.61 405.51 441.79 405.87 441.12 405 440.18 405.25 436.88 404.61 433.8 404.63 429.53 405.84 428.56 407.19 426.99 407.14 424.43 408.05 422.24 409.94 420.52 410.28 419.24 411.07 417.98 413.23 416.35 412.81 415.39 410.62 414.32 409.81 411.99 406.83 411.92 405.64 410.34 405.47 409.76 404.93 407.44 404.31 406.99 402.74 405.67 402.91 404.5 401.84 402.11 401.51 401.22 400.38 397.29 399.36 395.12 397.34 389.31 395.35 386.64 394.9 383.33 394.79 382.48 394.36 380.15 391.97 376.28 389.09 374.34 386.27 370.79 384.82 375 383.28 376.26 382.65 378.71 380.18 377.57 379.87 376.06 378.67 375.36 377.39 375.9 374.26 374.46 373.12 373.72 371.91 374.36 369.97 373.18 367.75 372.99 366.48 373.47 364.36 375 362.21 375.13 360.79 376.71 357.77 375.74 354.95 374.67 354 371.83 353.08 369.98 353.02 369.39 352.21 367.78 352.68 366.83 352.11 365.71 350.18 365.54 346.23 365.14 344.99 366.07 344.48 366.3 342.6 366.18 340.83 366.65 339.18 365.85 335.66 367.31 334.56 366.97 333.22 366.53 329.36 365.91 328.08 366.09 327.22 364.85 324.73 365.67 322.14 367.3 320.41 368.67 319.98 369.28 317.96 368.01 316.37 366.8 316.3 362.37 310.89 361.69 310.64 360.57 308.59 359.88 308.02 359.17 306.31 356.27 305.97 354.86 307.12 354.02 307.23 351.72 306.67 350.43 305.19 349.57 305.13 348.3 304.19 347.31 304.93 344.08 304.27 342.14 303.28 341.3 304.09 340.13 301.52 340.26 297.7 339.29 295.92 339.9 293.3 338.39 291.2 338.43 290.15 336.62 287.49 335.8 285.18 334.79 284.36 331.58 283.19 328.9 283.02 328.58 280.57 328.74 278.59 328.42 276.13 327.35 272.76 328.12 270.3 326.82 268.74 327.97 264.53 327.92 262.64 329.41 260.51 328.7 258.59 328.79 257.33 327.5 254.47 327.01 253.2 328.59 251.27 328.3 250.44 328.57 248.75 328.03 246.79 328.09 244.67 327.71 243.08 330.41 240.78 331.1 238.14 331.2 234.32 332.58 232.32 334.62 230.56 335.26 228.98 339.06 224.32 339.13 222.07 341.64 220.06 342.73 218.56 344.26 217.92 345.26 216.86 346.27 214.7 347.19 213.74 347.94 209.97 349.95 207.18 351.18 206.5 352.42 204.59 353.86 203.54 358.23 202.32 359.23 200.64 359.92 198.57 361.74 197.21 365.08 196.57 367.32 193.96 368.93 193.22 371.96 193.39 372.03 191.93 372.77 191.53 372.53 190.3 373.02 188.63 375.49 185.45 376.49 184.75 377.75 183.06 380.01 182.06 380.67 179.73 380.21 177.8 380.89 176.29 382.18 175.13 384.73 175.58 385.68 175.05 387.88 175.83 390.26 175.26 391.14 175.39 394.26 174.6 395.78 174.73 398.39 176.13 400.57 176.57 400.91 177.05 402.47 176.86 404.84 177.55 408.1 176.39 409.92 176.22 411.84 175.1 413.6 173.43 415.51 174.86 416.78 176.54 417.74 176.26 420.98 176.72 421.98 176.4 424 177.45 425.15 176.37 427.83 175.18 429.08 174.02 429.76 171.91 432.21 170.04 432.95 168.91 434.48 167.97 434.83 167.11 436.5 165.27 437.94 165.74 439.83 165.91 441.65 166.68 443.08 166.26 446.28 166.06 446.93 166.53 448.32 166.3 449.28 167.39 450.24 169.32 451.95 171.24 452.68 174.07 453.57 175.74 454.18 177.88 454.84 178.14 456.66 177.75 460.48 178.59 461.02 178.09 463.88 177.54 464.55 178.09 466.8 181.94 468.17 182.1 469.62 181.29 472.24 181.65 476.64 183.79 479.13 188.83 479.81 189.5 479.54 190.77 480.06 193.89 480.8 196.19 482.63 197.25 484.96 200.65 485.13 203.68 484.35 204.81 484.25 206.36 484.81 208.47 485.72 210.14 485.87 216.06 486.76 217.73 488.86 218.01 489.16 218.75 490.93 220.27 491.29 222.42 492.37 223.23 493.68 225.49 493.75 227.71 494.32 229.77 495.2 231.41 494.24 234.14 496.4 234.64 496.82 235.98 500.16 236.75 501.62 236.49 502.59 237.47 503.96 240.83 505.3 242.65 503.6 245.51 504.19 247.69 504.23 249.26 502.22 251.8 501.24 252.01 501.48 254.09 501.15 255.56 500.02 256.64 497.03 258.54 494.26 259.4 490.97 259.43 492.57 260.98 491.42 261.92 490.86 263.05 490.85 264.5 489.6 266.32 488.19 267.4 487.06 267.26 485.3 268.91 483.22 269.33 478.97 272.57 480.89 273.95 482.05 275.4 483.94 276.61 483.51 281.68 483.96 283.4 485.38 286.2 485.81 287.96 487.36 287.56 488.4 286.09 489.98 287.55 491.53 288.23 494.67 291.94 496.61 294.53 497.67 295.22 499.81 295.59 501.35 295.25 502.03 295.6 507.21 294.26 507.07 296.78 507.8 298.11 507.64 298.94 509.15 300.82 510 303.99 508.79 303.96 506.25 303.33 502.94 304 501.8 303.83 499.87 305.27 501.44 308.35 501.28 308.84 Z" id="31580400"/>
<path d="M 327.5 254.47 328.79 257.33 328.7 258.59 329.41 260.51 327.92 262.64 327.97 264.53 326.82 268.74 328.12 270.3 327.35 272.76 328.42 276.13 328.74 278.59 328.58 280.57 328.9 283.02 331.58 283.19 334.79 284.36 335.8 285.18 336.62 287.49 338.43 290.15 338.39 291.2 339.9 293.3 339.29 295.92 340.26 297.7 340.13 301.52 341.3 304.09 342.14 303.28 344.08 304.27 347.31 304.93 348.3 304.19 349.57 305.13 350.43 305.19 351.72 306.67 354.02 307.23 354.86 307.12 356.27 305.97 359.17 306.31 359.88 308.02 360.57 308.59 361.69 310.64 362.37 310.89 366.8 316.3 368.01 316.37 369.28 317.96 368.67 319.98 367.3 320.41 365.67 322.14 364.85 324.73 366.09 327.22 365.91 328.08 366.53 329.36 366.97 333.22 367.31 334.56 365.85 335.66 366.65 339.18 366.18 340.83 366.3 342.6 366.07 344.48 365.14 344.99 365.54 346.23 365.71 350.18 366.83 352.11 367.78 352.68 369.39 352.21 369.98 353.02 371.83 353.08 374.67 354 375.74 354.95 376.71 357.77 375.13 360.79 375 362.21 373.47 364.36 372.99 366.48 373.18 367.75 374.36 369.97 373.72 371.91 374.46 373.12 375.9 374.26 375.36 377.39 376.06 378.67 377.57 379.87 378.71 380.18 376.26 382.65 375 383.28 370.79 384.82 367.93 385.87 364.34 386 362.27 385.22 358.54 382.13 357.1 381.75 355.34 379.73 352.83 377.86 349.73 376.96 347.06 375.08 344.14 373.35 342.09 372.37 339.56 371.92 337.95 372.08 331.03 375.08 328.07 377.8 327.56 378.99 325.67 380.87 322.96 382.67 317.96 384.56 314.78 386.11 312.06 387.79 308.48 390.59 306.48 391.75 304.16 394.17 303.09 397.07 301.69 400.27 299.81 402.28 297.36 405.67 295.57 407.49 293.21 409.08 289.18 410.99 287.3 404.64 284.9 400.64 283.1 388.82 281.6 382.99 280.2 376.27 279.92 371.15 279.63 361.4 278.44 353.62 277.47 350.39 276.31 347.86 274.92 345.82 272.37 343.09 266.83 336.75 264.22 334.57 259.65 331.23 255.23 328.41 247.68 322.85 244.79 322.13 241.99 320.35 239.2 318.96 235.62 316.67 231.76 314.65 227.05 312.52 222.33 310.52 223.88 305.25 223.48 303.61 224.13 300.09 224.58 299.26 226.21 297.98 229.54 296.52 230.53 296.53 231.95 295.61 233.18 293.87 237.87 294.62 240.6 294.51 242.83 295.41 244.02 295.28 247.06 293.15 247.69 293.03 249.87 291.18 249.82 290.26 253.05 288.62 254.48 287.4 256 286.78 257.24 286.84 257.78 287.7 259.2 287.24 261.16 287.21 260.95 280.73 262.77 279.71 262.77 278.51 263.51 277.16 264.5 277.33 266.1 276.53 271.83 276.5 273.79 278.14 275.02 278.5 275.66 279.46 276.57 279.73 278.15 282.08 282.35 280.07 283.76 279.9 286.28 277.7 287.41 275.66 288.75 271.92 290.61 269.48 293.22 267.28 294.7 266.51 295.49 264.65 297.97 263.12 299.62 260.95 300.64 260.79 301.41 259.98 302.25 260.26 304.5 260.15 305.38 259.79 308.45 259.58 310.18 258.85 311.7 257.63 314.14 256.52 315.74 256.19 317.62 256.46 321.83 255.68 323.11 254.14 324.13 255.5 327.5 254.47 Z" id="31580110"/>
<path d="M 289.18 410.99 290.63 417.05 294.68 422.98 297.7 426.64 294.9 429.78 293.47 432.76 290.77 434.16 289.05 434.34 287.19 435.09 285.91 436.8 285.45 438.67 284.64 440.06 283.16 441.76 282.57 441.89 279.55 441.27 278.01 440.38 274.63 439.62 272.27 439.34 270.07 439.51 268.58 440.13 263.19 445.02 261.45 447.68 261.08 450.97 259.65 453.4 259.19 455.1 257.51 457.68 252.2 458.91 251.32 459.52 248.31 460.45 246.62 459.93 244.96 458.58 242.76 457.5 241.58 454.93 241.69 453.68 240.48 452.85 239.05 452.63 236.86 451.35 234.17 452.23 232.62 452.02 230.05 450.91 228.53 450.86 226.77 450.06 225.53 450.05 224.07 449.18 222.1 449.22 219.03 447.39 217.48 447.05 215.87 445.38 213.78 443.84 212.35 443.71 211.45 441.82 210.43 441.37 209.12 441.58 208.29 440.93 205.84 439.91 204.43 439.77 202.87 438.49 201.33 438.26 200.15 438.71 197.64 438.29 196.54 437.71 192.63 438.31 189.69 435.39 188.85 435.14 185.76 435.24 182.62 434.52 180.84 433.45 179.96 432.41 181.93 431.33 183.21 430.26 184.31 428.28 186.6 427.46 186.98 424.7 187.61 422.36 189.32 420.38 190.44 417.96 190.32 414.64 192.25 410.95 193.32 410.08 194.6 406.59 196.79 403.55 197.52 403.13 198.04 401.82 199.34 401.27 200.54 401.29 201.29 400 204.11 398.55 205.42 397.55 205.62 396.65 207.3 394.66 207.98 393.2 206.96 392.1 207.03 390.67 208.04 388.93 209.13 385.46 208.73 383.24 209.87 380.97 210.25 378.85 208.18 376.63 207.96 375.26 207.13 373.65 205.65 372.23 204.7 371.84 202.77 370.04 202.34 369.19 202.78 367.08 203.93 365.22 203.9 362.88 205.21 358.73 204.44 357.83 204.49 356.89 203.6 355.9 203.35 353.02 201.11 351.44 199.73 351.29 199.27 349.22 197.86 348.62 198.36 347.7 197.17 345.56 197.4 343.74 196.96 342.31 197.72 341.8 197.89 339.67 200.24 338.04 200.87 335.9 201.75 335.77 204.99 332.85 203.67 330.64 203.87 327.72 203.16 326.01 206.02 323.85 206.95 321.99 206.48 320.86 206.42 318.03 207.96 316 207.21 312.14 208.45 310.58 211.08 308.63 212.61 306.17 215.97 308.02 222.33 310.52 227.05 312.52 231.76 314.65 235.62 316.67 239.2 318.96 241.99 320.35 244.79 322.13 247.68 322.85 255.23 328.41 259.65 331.23 264.22 334.57 266.83 336.75 272.37 343.09 274.92 345.82 276.31 347.86 277.47 350.39 278.44 353.62 279.63 361.4 279.92 371.15 280.2 376.27 281.6 382.99 283.1 388.82 284.9 400.64 287.3 404.64 289.18 410.99 Z" id="31580310"/>
<path d="M 179.96 432.41 177.84 432.2 176.95 431.06 173.82 429.07 171.58 430.99 170.72 432.12 169.65 432.61 166.49 437.2 165.69 437.83 164.73 439.62 163.42 440.38 162.36 442.74 161.03 442.79 158.93 443.66 156.86 443.35 152.79 444.92 151.77 446.17 150.93 446.37 150.75 448.27 148.65 449.52 147.71 451.05 146.22 452.74 144.85 455.23 144.18 455.55 143.23 458.32 142.9 460.51 142.19 461.83 140.74 462.56 138.87 461.93 137.89 460.05 138.02 458.42 136.32 456.07 133.93 453.87 131.88 453.12 129.01 451.42 128.61 450.56 126.66 450.31 125.71 448.66 124.5 448.13 124.41 445.45 122.3 443.01 119.93 441.71 117.48 438.85 116.73 437.7 116.48 435.01 117.13 433.75 116.7 432.8 115.8 428.98 115 426.78 114.67 424.59 114.95 422.99 113.25 421.53 112.03 421.63 110.19 421.18 108.4 421.94 107.39 421.68 105.77 420.24 101.12 419.84 99.44 419.16 99.32 417.14 99.99 414.94 100.22 411.79 99.39 410.34 99.71 408.94 99.51 406.44 97.09 403.32 97.09 402.49 94.61 400.32 92.63 397.69 92.86 396.52 94.53 397.22 96.92 397.46 97.91 398.11 98.59 397.46 99.59 395.35 102.76 394.32 103.57 394.82 106.22 393.77 109.02 393.82 109.95 394.27 111.68 394.15 113.23 394.45 115.17 394.07 116.63 392.52 118.56 391.29 118.08 390.67 118.13 388.3 118.8 387.85 118.6 386.02 119.13 384.79 120.53 383.12 121.45 380.27 120.43 376.33 120.31 372.47 121.51 369.87 121.55 368.52 122.4 367.07 123.26 364.85 123.35 361.93 122.51 361.3 122.11 358.98 121.36 357.58 119.76 357.03 119.73 355.08 120.16 354.65 118.96 351.46 117.56 350.08 115.93 347.75 115.9 345.76 115.38 345.46 116.06 342.79 115.55 342.46 115.37 340.88 113.07 340.68 112.68 339.28 111.12 337.08 110.88 335.72 111.68 331.99 112.4 331.24 112.42 329.41 113.33 328.14 113.4 326.72 114.63 325.64 118.11 324.07 120.06 322.34 118.4 320.5 116.6 317.87 116.91 317.06 117.95 317.4 121.74 317.44 123.67 317 127.34 318.26 128.94 319.11 133.79 320.62 138.37 321.21 140.68 321.1 142.97 320.63 146.75 319.03 150.05 318.29 155.09 316.17 157.63 314.13 160.17 311.33 163.71 308.24 167.96 306.91 169.76 306.82 176.08 305.48 185.06 302.85 187.11 302.36 191.52 302.01 196.63 302.17 199.49 302.49 202.06 303.18 207.53 303.73 211.71 305.44 212.61 306.17 211.08 308.63 208.45 310.58 207.21 312.14 207.96 316 206.42 318.03 206.48 320.86 206.95 321.99 206.02 323.85 203.16 326.01 203.87 327.72 203.67 330.64 204.99 332.85 201.75 335.77 200.87 335.9 200.24 338.04 197.89 339.67 197.72 341.8 196.96 342.31 197.4 343.74 197.17 345.56 198.36 347.7 197.86 348.62 199.27 349.22 199.73 351.29 201.11 351.44 203.35 353.02 203.6 355.9 204.49 356.89 204.44 357.83 205.21 358.73 203.9 362.88 203.93 365.22 202.78 367.08 202.34 369.19 202.77 370.04 204.7 371.84 205.65 372.23 207.13 373.65 207.96 375.26 208.18 376.63 210.25 378.85 209.87 380.97 208.73 383.24 209.13 385.46 208.04 388.93 207.03 390.67 206.96 392.1 207.98 393.2 207.3 394.66 205.62 396.65 205.42 397.55 204.11 398.55 201.29 400 200.54 401.29 199.34 401.27 198.04 401.82 197.52 403.13 196.79 403.55 194.6 406.59 193.32 410.08 192.25 410.95 190.32 414.64 190.44 417.96 189.32 420.38 187.61 422.36 186.98 424.7 186.6 427.46 184.31 428.28 183.21 430.26 181.93 431.33 179.96 432.41 Z" id="31580320"/>
<path d="M 190.84 210.55 191.15 211.76 190.85 214.45 191.08 216.52 195.19 217.29 195.91 218.05 197.22 218.43 197.26 219.24 198.21 220.93 200.64 222.53 201.24 224 203.31 224.73 203.5 227.91 203.21 229.87 203.87 230.29 203.51 232.52 203.93 233.8 203.61 235.48 204.19 236.65 203.96 239.13 201.95 240.4 200.39 240.58 198.63 241.46 197.32 241.56 195.62 242.26 193.97 244.21 193.46 245.56 192.02 246.71 188.38 254.75 188.37 257.46 188.74 257.76 187.78 261.21 188.14 264.37 187.43 265.4 187.37 267.47 186.95 268.36 187.68 271.14 187.82 273.69 189.45 274.34 187.09 277.02 186.97 279.07 186.29 280.51 185.32 281.46 185.25 283.62 184.39 284.21 182.94 286.42 184.89 288.86 185.19 289.83 183.69 292.94 182.81 294.05 181.4 293.47 179.79 293.51 179.54 294.63 178.46 296.36 178.74 298.76 178.28 299.87 176.16 300.6 176.41 303.76 176.08 305.48 169.76 306.82 167.96 306.91 163.71 308.24 160.17 311.33 157.63 314.13 155.09 316.17 150.05 318.29 146.75 319.03 142.97 320.63 140.68 321.1 138.37 321.21 133.79 320.62 128.94 319.11 127.34 318.26 123.67 317 121.74 317.44 117.95 317.4 116.91 317.06 114.52 314.16 112.48 309.89 111.43 308.25 109 305.12 108.42 303.89 107.77 301.42 104.55 295.17 103.2 292.92 102.2 290.27 101.44 286.52 100.84 284.57 99.22 280.4 96.42 275.85 94.41 271.56 92.32 269.83 90.18 266.18 86.41 260.66 85.41 259.76 80.91 257.03 77.17 254.91 73.52 253.04 70.45 252.04 65.24 251.13 60.29 251.14 56.71 251.44 51.71 253.26 46.93 253.3 42.76 253.15 38.5 252.06 34.38 252 31.09 251.61 27.89 252.76 26.42 253.78 22.94 257.46 17.78 261.91 16.79 263.33 14.28 264.9 11.31 264.95 7.21 266.5 5.4 267.5 5.63 270.28 5.6 274.8 6.01 279.38 5.58 280.58 4.8 281.22 2.25 281.6 1.83 281.05 1 277.23 1.57 266.88 2.08 262.53 3.85 255.06 4.7 252.75 6.45 246.19 7.53 242.91 8.58 240.49 9.96 238.14 14.09 229.64 18.01 224.09 20.84 219.62 25.34 211.8 27.6 209.09 28.95 205.87 29.85 204.32 31.12 201.19 32.57 198.27 33.88 196.07 35.43 191.62 38.35 186 40.56 180.5 41.11 178.83 41.51 176.3 42.65 173.4 43.56 172.08 45.26 168.71 45.68 166.95 45.53 165.46 46.74 162.25 49.66 165.02 53.76 169.3 54.54 168.76 55.73 168.84 57.11 168.11 59.45 168.21 61.19 169.33 63.65 168.8 64.52 168.08 65.98 168.81 67.08 169.97 71.81 171.76 72.55 173.7 74.32 174.61 75.8 177.14 75.72 178.94 76.21 180.2 77.09 180.89 78.32 182.95 79.33 183.62 81.84 186.98 83.27 187 83.85 187.62 86.09 188.12 86.55 187.87 89.05 188.4 90.81 189.4 91.71 188.28 93.74 187.62 94.75 186.49 96.77 185.03 97.31 183.89 99.5 182.21 101.89 183.37 103.18 184.88 105.93 186.08 107.63 186.47 110.23 185.82 112.07 186.56 112.72 186.07 114.98 186.5 116.54 186.21 118.2 186.65 119.73 185.42 121.79 185.29 123.04 186.59 125.32 186.8 128.26 187.93 130.21 187.53 131.08 188.48 134.12 188.97 136.63 190.14 137.51 191.92 139.95 193.58 142.58 194.09 144.45 194.9 144.74 197.58 144.55 198.88 145.19 204.43 144.61 205.88 143.92 210.52 144.14 212.87 143.81 214.86 143.82 217.26 144.57 218.28 145.62 217.96 147.31 218.73 152.06 218.77 153.08 218.3 154.58 216.92 155.09 215.3 156.15 214.74 157.19 212.53 158.28 211.84 160.11 209.74 161.58 208.92 163.35 208.75 167.05 206.62 167.51 206.12 171.59 205.64 175.22 205.86 178.02 206.92 179.14 206.69 181.86 208 183.4 209.05 183.9 210.2 186.58 210.88 187.58 211.97 189.57 210.45 190.84 210.55 Z" id="31580330"/>
<path d="M 374.37 161.52 377.1 162.05 379.54 163.55 381.4 165.16 381.85 166.77 381.93 168.81 381.61 171.09 382.14 173.51 382.18 175.13 380.89 176.29 380.21 177.8 380.67 179.73 380.01 182.06 377.75 183.06 376.49 184.75 375.49 185.45 373.02 188.63 372.53 190.3 372.77 191.53 372.03 191.93 371.96 193.39 368.93 193.22 367.32 193.96 365.08 196.57 361.74 197.21 359.92 198.57 359.23 200.64 358.23 202.32 353.86 203.54 352.42 204.59 351.18 206.5 349.95 207.18 347.94 209.97 347.19 213.74 346.27 214.7 345.26 216.86 344.26 217.92 342.73 218.56 341.64 220.06 339.13 222.07 339.06 224.32 335.26 228.98 334.62 230.56 332.58 232.32 331.2 234.32 331.1 238.14 330.41 240.78 327.71 243.08 328.09 244.67 328.03 246.79 328.57 248.75 328.3 250.44 328.59 251.27 327.01 253.2 327.5 254.47 324.13 255.5 323.11 254.14 321.83 255.68 317.62 256.46 315.74 256.19 314.14 256.52 311.7 257.63 310.18 258.85 308.45 259.58 305.38 259.79 304.5 260.15 302.25 260.26 301.41 259.98 300.64 260.79 299.62 260.95 297.97 263.12 295.49 264.65 294.7 266.51 293.22 267.28 290.61 269.48 288.75 271.92 287.41 275.66 286.28 277.7 283.76 279.9 282.35 280.07 278.15 282.08 276.57 279.73 275.66 279.46 275.02 278.5 273.79 278.14 271.83 276.5 266.1 276.53 264.5 277.33 263.51 277.16 262.77 278.51 262.77 279.71 260.95 280.73 261.16 287.21 259.2 287.24 257.78 287.7 257.24 286.84 256 286.78 254.48 287.4 253.05 288.62 249.82 290.26 249.87 291.18 247.69 293.03 247.06 293.15 244.02 295.28 242.83 295.41 240.6 294.51 237.87 294.62 233.18 293.87 231.95 295.61 230.53 296.53 229.54 296.52 226.21 297.98 224.58 299.26 224.13 300.09 223.48 303.61 223.88 305.25 222.33 310.52 215.97 308.02 212.61 306.17 211.71 305.44 207.53 303.73 202.06 303.18 199.49 302.49 196.63 302.17 191.52 302.01 187.11 302.36 185.06 302.85 176.08 305.48 176.41 303.76 176.16 300.6 178.28 299.87 178.74 298.76 178.46 296.36 179.54 294.63 179.79 293.51 181.4 293.47 182.81 294.05 183.69 292.94 185.19 289.83 184.89 288.86 182.94 286.42 184.39 284.21 185.25 283.62 185.32 281.46 186.29 280.51 186.97 279.07 187.09 277.02 189.45 274.34 187.82 273.69 187.68 271.14 186.95 268.36 187.37 267.47 187.43 265.4 188.14 264.37 187.78 261.21 188.74 257.76 188.37 257.46 188.38 254.75 192.02 246.71 193.46 245.56 193.97 244.21 195.62 242.26 197.32 241.56 198.63 241.46 200.39 240.58 201.95 240.4 203.96 239.13 204.19 236.65 203.61 235.48 203.93 233.8 203.51 232.52 203.87 230.29 203.21 229.87 203.5 227.91 203.31 224.73 201.24 224 200.64 222.53 198.21 220.93 197.26 219.24 197.22 218.43 195.91 218.05 195.19 217.29 191.08 216.52 190.85 214.45 191.15 211.76 190.84 210.55 191.94 210.1 194.05 207.84 196.42 202.71 198.41 200.46 199.95 199.99 201.18 198.8 201.37 197.27 203.27 195.48 204.38 195.01 205.27 191.74 205.1 189.85 203.97 188.27 202.85 187.46 202.33 185.94 202.66 185.29 202.19 183.59 202 181.37 202.26 179.52 201.67 178.67 203.82 177.57 205.69 175.25 206.68 174.89 207.77 171.51 208.27 170.8 208.32 169.14 209.2 167.24 209.77 164.47 209.62 163.22 210.29 161.72 211.59 160.93 212.15 158.21 212.75 157.12 211.73 155.42 208.53 152.73 208.35 150.05 207.77 149.32 207.82 148.07 210.37 148.07 212.77 146.91 217.99 145.56 220.26 145.33 220.52 142.81 221.16 141.68 220.7 140.65 221.24 138.74 220.58 137.22 220.35 135.3 221.44 131.69 223.35 131.94 225.92 132.84 226.75 133.57 229.72 134.07 230.48 134.56 230.83 135.75 232.11 136.39 235.74 137.5 239.39 139.22 241.47 139.5 243.66 140.38 242.79 142.83 241.44 145.57 242.05 147.81 242.8 152.52 241.34 154.6 241.09 155.59 242.11 161.26 242.67 162.72 242.13 164.82 242.69 168.66 243.69 169.87 246.14 172.2 246.3 173.17 248.68 173.95 249.53 174.68 250.26 174.3 254.13 174.69 255.89 175.51 258.64 177.21 260.7 177.53 261.89 178.19 262.68 177.7 265.08 177.42 266.24 177.97 267.37 177.79 269.08 178.18 270.37 180.17 275.76 181.98 279.03 183.27 279.76 183.87 282.04 184.87 282.78 184.67 284.13 182.69 286.09 182.02 287.49 180.93 289.08 180.86 290.34 180.05 291.52 178.5 292.96 178.28 295.89 177.16 296.49 175.13 297.84 174.4 302.72 174.77 303.78 173.36 307.72 170.24 309.33 168.25 311.11 166.5 310.57 165.33 312 163.23 314.64 161.25 314.21 159.01 315.91 157.69 318.38 156.48 319.66 156.52 322.23 155.85 324.77 156.53 326.87 156.12 328.43 157.6 329.57 157.81 331.7 157.25 332.37 156.63 334.58 158.06 335.42 157.15 337.49 157.65 339.13 157.42 340.28 158.05 342.33 160.1 344.23 158.78 349.32 159.21 352.57 158.44 355.22 157.5 356.74 157.93 358.4 157.07 360.55 156.74 364.7 155.67 365.95 158.82 367.01 159.52 372.91 160.86 374.37 161.52 Z" id="31580340"/>
<path d="M 370.79 384.82 374.34 386.27 376.28 389.09 380.15 391.97 382.48 394.36 383.33 394.79 386.64 394.9 389.31 395.35 395.12 397.34 397.29 399.36 401.22 400.38 402.11 401.51 404.5 401.84 405.67 402.91 406.99 402.74 407.44 404.31 409.76 404.93 410.34 405.47 411.92 405.64 411.99 406.83 414.32 409.81 415.39 410.62 416.35 412.81 417.98 413.23 418.1 414.57 418.71 415.49 418.03 417.82 418.64 418.91 418.31 422.45 416.2 424.81 416.71 426.38 416.14 428.37 415.03 429.16 414.97 431.54 413.99 432.33 413.94 433.6 412.5 436.58 413.19 437.45 413.84 439.6 413.73 442.63 414.1 444.17 413.44 444.6 413.57 446.58 414.63 447.69 416.61 448.19 416.71 450.01 415.92 450.98 416.46 451.91 416.59 453.55 417.69 453.7 419.12 454.5 419.87 456.44 421.34 457.04 421.09 459.53 419.07 459.66 418.23 460.23 417.71 461.81 416.5 461.67 416.28 463.69 417.12 464.42 417.81 466.57 418.15 468.62 417.65 470.08 415.18 471.22 414.67 473.67 413.93 474.56 412.46 475.1 411.42 473.02 411.42 470.98 410.27 469.46 409.59 470.29 408.01 470.38 405.08 471.4 404.46 472.62 403.09 474.12 402.06 474.64 401.2 474.23 399.31 475.28 399.13 476.48 396.01 477.34 393.86 479.18 392.1 475.76 388.76 476.41 388.87 477.24 385.94 478.96 384.72 480.25 384.18 480.12 383.5 476.93 382.71 475.09 381.34 474.14 381.37 472.93 380.52 471.96 379.28 472.7 376.74 472.78 374.36 471.33 373.9 470.75 370.89 470.08 368.33 471.41 368.31 473.24 367.82 474.34 363.92 474.63 363.03 477.03 363.37 477.95 362.52 479.96 358.96 479.65 358.13 479.86 357.54 481.49 355.77 482.11 352.74 482.29 351.77 482.87 350.24 480.58 349.18 480.04 346.26 479.62 341.9 479.54 341.19 475.1 340.74 473.26 338 464.06 336.88 461.76 336.28 459.46 334.01 453.33 332.91 450.87 331.13 447.62 328.79 444.49 324.95 440.54 317.95 435.09 315.85 433.87 311.1 432.47 307.09 431.73 304.61 430.87 301.3 429.14 297.7 426.64 294.68 422.98 290.63 417.05 289.18 410.99 293.21 409.08 295.57 407.49 297.36 405.67 299.81 402.28 301.69 400.27 303.09 397.07 304.16 394.17 306.48 391.75 308.48 390.59 312.06 387.79 314.78 386.11 317.96 384.56 322.96 382.67 325.67 380.87 327.56 378.99 328.07 377.8 331.03 375.08 337.95 372.08 339.56 371.92 342.09 372.37 344.14 373.35 347.06 375.08 349.73 376.96 352.83 377.86 355.34 379.73 357.1 381.75 358.54 382.13 362.27 385.22 364.34 386 367.93 385.87 370.79 384.82 Z" id="31580410"/>
</g>
</svg>