<?xml version="1.0"?>
<svg xmlns="http://www.w3.org/2000/svg" version="1.2" baseProfile="tiny" width="800" height="793" viewBox="0 0 800 793" stroke-linecap="round" stroke-linejoin="round">
<g id="dong">
<path d="M 439.74 171.18 437.72 176 436.49 182.46 436.58 189.24 438.89 192.69 436.9 196.89 437.23 201.03 437.19 204.6 436.7 206.93 436.72 211.2 438.88 213.77 439.94 216.14 441.46 220.82 441.57 224.63 441.07 227.02 439.62 230.32 439.74 234.87 441.33 242.05 444.12 243.13 447.11 243.53 448.25 244.07 449.75 244.05 452.69 246.24 455.66 247.5 456.28 248.73 458.11 249.88 459.2 251.03 460.66 251.57 461.39 254.17 463.44 256.43 465.7 258.37 470.73 261.29 472.14 261.61 474.6 263.42 475.38 264.76 470.5 267.19 465.64 271.14 465.17 271.85 461.83 274.37 459.56 277.43 456.05 281.31 452.04 286.56 445.36 291.4 441.16 295.1 435.69 299.34 429.99 302.07 426.98 302.96 422.12 303.8 413.82 302.51 405.79 303.6 400.86 304 397.16 304.87 392.14 306.45 390.55 308.22 382.75 310.32 374.72 312.23 365.66 314.82 365.65 311.13 359.31 314.08 358.73 312.29 358.75 308.95 358.08 307.87 358.46 306.19 357.73 304.33 356.47 302.39 356.08 298.69 353.37 296.89 349.59 293.77 347.34 292.57 346.88 291.03 347.99 288.99 352.54 284.87 349.79 282.04 348.65 281.56 347.16 279.94 345.04 276.97 343.68 277.42 342.29 276.75 340.44 275.07 338.56 272.51 337.12 271.15 337.65 269.51 336.46 268.56 332.18 267.01 331.6 269.18 329.87 268.5 329.07 269.77 329.02 271.11 329.65 272.31 328.73 273.77 327.77 273.44 327.18 275.05 325.9 275.47 323.67 277.73 323.4 278.81 322.44 279.16 320.99 280.87 321.08 281.97 319.65 282.4 318.17 282.02 316.93 281.01 315.34 281.46 311.33 278.98 308.84 276.96 308.01 274.11 304.38 270.07 297.11 263.03 291.93 256.68 287.48 251.62 279.54 246.95 269.11 244.21 266.68 243.77 256.24 238.03 253.25 236.13 248.05 229.59 247.79 225.31 249.08 224.98 250.46 223.68 252.02 223.84 253.47 222.96 255.88 223.43 256.52 222.81 257.79 222.83 259.2 223.56 260.1 222.25 260.92 222.13 262.31 220.7 263.33 218.05 264.75 217.55 266.28 215.34 268.84 214.21 271.41 214.39 272.63 215.34 273.92 215.2 274.3 216.27 278.62 217.57 279.57 218.45 281.62 218.18 284.25 218.31 284.83 217.32 288.27 217.5 289.14 218.01 291.21 216.95 296.07 218.36 298.54 217.99 299.68 217.1 301 217.42 302.21 216.94 305.02 213.65 307.22 211.77 314.75 208.8 317.67 210.01 320.24 210.79 323.62 210.48 325.1 210.97 328.01 210.87 330.08 210.36 331.89 210.83 332.81 210.5 335.14 211.87 335.91 211.03 337.5 208.36 340.66 206.77 340.5 205.55 341.46 204.92 344.57 203.78 345.62 201.55 346.47 200.45 347.39 200.79 352.05 201.07 353.11 201.82 355.72 201.39 357.29 202.55 358.68 204.07 360.15 204.18 363.19 203.79 365.94 205.2 367.75 207.23 371.73 208.24 373.58 209.21 374.66 209.17 378.88 205.17 380.19 204.9 383.43 205.13 384.15 204.06 386.43 203.6 386.78 202.45 386.47 200.12 386.5 197.61 386.28 193.01 387.61 187.35 386.14 185.7 385.95 181.75 386.34 181.48 387.53 175.8 388.43 174.54 389.08 172.82 390.86 169.51 390 167.71 391.39 165.45 393.85 164.66 395.39 163.75 395.78 160.02 395.71 157.02 396.74 154.84 398.35 154.09 398.51 151.84 400.64 150.24 401.19 148.62 401.93 148.25 402.62 146.23 404.26 145.01 406.26 144.42 406.86 142.28 406.16 140.44 406.76 139.56 406.79 137.99 407.6 136.9 409.54 136.18 411.74 136.83 414.31 136.22 415.75 136.68 417.36 140.16 418.11 144.48 419.18 146.58 422.06 150.48 423.73 155.11 425.71 157.66 425.72 160.05 427.51 161.99 427.21 164.38 429.31 166.29 428.87 168.23 429.18 169.16 429.35 171.93 429.91 174 433.37 173.98 435.2 172.93 439.74 171.18 Z" id="32010110"/>
<path d="M 689.88 409.25 689.8 409.44 688.86 411.58 687.16 413.42 685.68 415.93 684.82 418.81 684.55 421.87 681.1 423.55 680.24 425.09 680.25 428.16 677.49 430.93 676.63 433.44 676.67 434.9 674.66 439.24 674.03 442.49 673.45 443.69 672.22 444.89 671.85 448.09 671.36 448.67 670.64 452.32 669.69 455.15 670.86 456.72 673.75 458.85 674.34 460.5 673.38 462.2 674.52 464.71 674.61 467.94 673.01 469.36 671.98 471.16 672.55 472.38 671.64 473.24 667.84 473.65 665.21 475.57 664.2 476.05 660.84 478.7 659.73 481.23 658.54 485.51 658.22 488.71 658.18 492.4 656.35 495.16 654.48 496.6 652.97 496.4 652.53 495.77 650.76 495.52 649.06 494.05 648.06 491.2 644.6 483.57 642.87 476.11 641.49 473.61 638.12 472.21 636.11 469.97 632.2 462.29 629.32 460.55 627.93 459.35 624.67 458.59 619.55 455.16 617 454.03 615.54 453.09 612.45 452.44 613.5 450.05 613.08 448.99 613.9 446.31 615.88 444.8 617.18 442.45 616.39 440.75 613.1 438.03 610.67 436.86 606.84 435.76 604.61 434.43 601.49 433.64 599.5 433.86 597.48 433.3 595.8 430.19 593.27 428.4 591.71 428.09 590.75 426.78 589.18 426.16 585.19 428.28 582.73 428.27 579.97 429.17 577.62 430.29 574.01 431 572.71 432.12 572.38 433.61 568.45 438.04 567.58 439.31 569.52 442.57 570.24 444.16 571.2 447.75 570.31 452.69 569.09 454.69 569.05 456.53 567.14 458.01 565.97 459.84 563.28 460.25 562 462.18 561.79 464.92 560.58 469.14 560.74 472.53 559.76 474.11 560.41 475.97 558.29 476.63 556.9 477.82 555.19 477.35 553.3 477.32 552.3 478.23 547.14 478.55 545.19 477.75 544.27 478.64 541.21 479.22 539.52 479.27 538.32 480.19 534.45 481.41 533.45 480.91 530.07 480 526.99 480.08 524.63 479.91 518.93 476.46 515.67 475.83 513.26 473.46 510.78 471.96 509.36 472.04 506.26 471.61 505.51 470.78 502.23 468.37 501.22 467.39 499.97 464.65 495.21 463.84 493.22 464.99 489.11 464.63 486.69 462.47 485.92 461.43 484.37 460.87 483.86 460.32 484.2 457.16 483.45 456.17 483.8 455.08 483.74 452.85 481.37 450.99 479.62 449.27 477.06 445.66 472.8 443.2 469.93 439.81 469.5 438.92 467.78 438.36 466.75 435.32 462.91 434.96 462.79 433.25 462.27 432.43 462.6 430.91 462.38 428.2 461.84 426.47 461.89 425.36 460.49 422.64 461.59 420.48 462.02 417.81 460.23 416.99 459.42 417.43 458.76 421.04 454.55 422.15 453.92 421.89 451.33 423.33 450.13 423.33 448.42 422.42 445.8 421.98 445.01 421.34 443.03 422.42 442.09 421.99 439.1 423.3 437.48 422.38 436.4 422.22 434.46 423 431.22 423.83 429.5 422.04 426.9 421.53 425.9 418.31 424.7 416.63 423.25 415.48 422.26 415.59 420.98 413.76 418 413.69 417.2 414.54 415.74 414.21 413.31 415.04 410.58 414.96 408.54 416.08 405.18 415.96 404.19 416.66 403.47 416.17 402.55 414.59 399.6 414.3 397.95 412.53 394.96 412 395.85 410.13 395.68 408.96 394.74 408.27 393.09 405.52 392.1 405.01 391.58 403.94 390.04 402.55 387.65 399.67 386.82 398.36 383.71 396.15 382.86 396.39 381.85 393.33 381.28 392.76 381.73 391.37 379.18 390.76 377.94 389.69 377.41 388.47 378.06 387.12 379.14 386.67 380.36 384.67 380.31 383.37 381.69 383.03 380.69 381.77 380.05 379.91 380.44 375.61 380.39 373.78 377.2 371.7 376.68 371.14 374.43 370.59 374.57 368.48 373.44 367.53 371.56 368 370.65 369.37 366.8 368.61 366 367.85 366 364.77 366.31 364.54 366.31 357.8 367.92 355.7 367.93 343.87 366.53 336.9 366 333.63 364.08 322.97 365.64 316.01 365.66 314.82 374.72 312.23 382.75 310.32 390.55 308.22 392.14 306.45 397.16 304.87 400.86 304 405.79 303.6 413.82 302.51 422.12 303.8 426.98 302.96 429.99 302.07 435.69 299.34 441.16 295.1 445.36 291.4 452.04 286.56 456.05 281.31 459.56 277.43 461.83 274.37 465.17 271.85 465.64 271.14 470.5 267.19 475.38 264.76 478.91 265.69 481.72 267.11 484.84 269.6 488.01 273.04 490.99 277.91 493.06 282.13 494.74 284.91 495.6 285.49 499.06 290.2 501.11 290.88 502.79 290.95 510.84 286.49 515.2 282.47 518.95 279.76 523.16 278.22 528.16 278.04 533.9 277.47 536.2 278.12 540.09 279.76 543.62 280.85 549.6 282.19 554.19 282.66 562.05 283.63 567.51 284.86 569.15 285.41 571.39 286.94 575.19 290.33 577.16 297.47 579.93 305.9 583.31 307.81 582.28 308.77 583 313.2 583.73 318.62 586.78 319.25 589.52 321.45 591.4 324.98 593.98 324.94 595.75 326.55 598.09 327.27 600.17 329.23 604.72 330.61 603.69 334.85 604.54 336.96 603.72 341.15 602.55 343.08 603.91 344.92 604.69 348.48 606.35 351.44 607.6 355.58 607.88 361.01 609.69 366.16 612.68 367.41 616.88 370.08 620.31 372.92 623.26 373.8 631.68 375.35 633.61 376.63 637.87 377.41 641.29 379.71 643.66 382.03 642.87 384.88 643.66 388.81 646.41 392.12 649.74 395.24 654.64 394.78 658.62 393.47 660.33 394.89 663.56 395.48 666.21 395.23 667.52 396.69 670.76 398.18 673.4 400.07 674.04 405.32 675.09 407.94 678.04 409.16 679.63 409.45 685.81 409.02 689.88 409.25 Z" id="32010310"/>
<path d="M 490 527.87 492.72 532.37 492.66 534.84 491.99 535.99 492.12 537.54 491.87 540.37 492.32 541.63 491.29 543.06 490.35 543.45 489.67 546.93 490.64 548.31 489.78 549.77 489.84 551.73 489.42 552.49 492.86 556.33 494.82 558.03 497.35 559.22 498.37 560.54 499.67 561.13 502.34 563.63 505.83 564.75 508.14 566.13 508.65 567.46 510.37 567.59 513.87 568.82 516.3 568.09 517.73 568.79 519.04 572.25 518.91 575.31 520.03 580.08 523.16 586.14 525.21 586.92 527.87 588.99 528.07 591.91 530.26 592.18 531.11 592.84 531.17 594.92 532.9 597.26 533.31 598.24 535.23 599.88 535.67 601.2 537.77 604.71 538.37 607.9 539.84 609.51 537.92 612.58 537.71 614.17 538.05 615.77 537.32 616.18 536.27 618.23 536.03 619.45 530.85 623.39 530.08 624.65 528.26 625.33 527.09 626.61 525.8 629.14 522.83 631.01 520.03 631.23 517.74 632.04 515.95 632.07 513.8 633.62 514.28 635.85 516.07 638.1 517.79 639.88 519.99 641.12 521.34 641.19 521.46 642.25 520.53 643.36 520.84 646.54 518.46 647.7 515.56 650.35 512.6 650.99 509.83 652.07 507.36 653.99 505.61 656.66 503.22 661.34 501.78 662.41 500.61 661.64 499.83 662.69 495.71 663.35 495.75 662.42 493.79 662.6 492.87 661.73 491.12 661.31 490.98 660.11 489.62 657.49 487.12 655.61 485.61 655.56 484.8 653.77 482.46 651.31 481.32 651.52 479.7 650.2 478.42 650.1 477.04 648.68 473.39 649.06 470.66 651.56 468.94 651.43 467.99 652.54 466.57 651.63 465.55 652.45 462.38 653.11 461.91 653.94 462.42 657.36 461.83 660.35 459.23 661.27 457.85 660.22 456.28 661.72 454.85 661.85 453.98 663.3 454.06 665.07 454.79 666.96 453.98 668.12 453.38 670.06 450.5 671.75 446.41 673.02 444.44 675.12 442.74 674.44 441.61 674.79 439.62 673.76 437.33 673.61 433.02 672.01 432.53 670.22 433.35 667.79 431.42 665.75 429.31 664.94 428.5 664.05 425.7 662.62 424.21 661.18 422.63 662.38 421.65 663.61 419.51 664.6 417.7 664.28 415.29 665.38 414.67 667.37 412.37 668.38 410.25 668.83 408.5 670.16 406.36 670.39 403.66 669.86 401.17 670.31 396.97 670.08 395.35 671.28 394.12 671.19 393.2 671.99 392.13 672.05 389.91 673.04 388.38 675.15 387.68 675.02 386.81 676.8 386.06 677.32 382.76 680.58 380.94 679.38 379.77 679.27 379.26 678.41 377.43 677.26 377.05 675.98 377.48 674.59 376.63 673.88 376.26 670.25 375.66 668.29 373.91 665.58 372.06 664.18 371.34 663.25 369.91 662.39 368.51 662.5 367.05 663.37 364.6 662.98 362.79 665.6 359.93 667.57 359.2 667.81 354.46 671.18 352.11 671.37 350.5 672.33 349.71 673.82 348.35 674.07 347.7 675 346.47 675.22 345.74 676.4 344.59 674.24 343.01 674.03 340.91 672.31 339.92 670.83 337.27 668.87 336.18 668.91 335.18 667.88 331.93 667.03 330.72 665.57 328.53 664.53 325.16 663.78 325.52 661.89 324.62 661.19 323.75 659.41 321.33 657.46 321.71 654.49 322.24 654.01 321.37 649.72 322.12 646.98 323.14 646.72 322.19 644.48 322.68 643.16 321.1 639.48 320.07 637.57 318.49 637.11 318.05 635.59 319.17 633.86 318.51 632.3 318.38 630.9 318.85 629.9 318.5 628.78 319.18 626.93 321.1 625.88 322.35 622.89 323.59 623.23 326.88 622.58 330.23 620.25 331.84 619.43 331.89 618.49 334.68 617.54 336.82 615.62 338.37 614.99 338.45 613.06 337.44 610.07 338.29 608.98 338.26 607.47 336.54 603.15 335.88 602.46 337.8 601.1 337.81 600.21 336.59 599.04 336.07 596.49 334.53 595.5 332.89 593.36 331.9 590.42 331.18 589.95 331.48 587.94 330.81 586.6 329.24 585.63 329.12 584.33 329.69 580 331.5 577.03 331.46 575.64 332.64 572.95 332.77 571.51 334.08 568.79 335.39 568.82 339.54 564.48 340.79 563.51 342 563.27 346.2 563.2 346.92 561.64 348.38 563.54 350.32 563.62 350.71 562.27 351.84 561.75 353.75 560.05 355.6 560.39 356.88 559.83 358.71 557.87 360.32 554.46 363.88 551.92 364.92 550.65 367.59 548.96 371.94 547.93 372.63 547.47 373.41 545.62 371.1 542.97 369.81 533.93 367.18 527.39 367.37 526.59 368.22 526.56 371.75 525.05 373.42 525.61 374.71 524.9 375.84 525.46 376.94 527.57 377.94 528.01 380.05 531.16 382.61 531.77 384.03 532.73 386.15 533.6 385.78 536.68 386.96 538.12 388.51 539.2 389.42 540.79 393.63 537.56 396.66 535.9 398.75 533.61 399.35 530.42 400.19 528.72 399.62 527.72 399.4 526.09 399.82 523.2 401.09 522.39 402.37 522.13 403.43 520.83 406.78 519.76 409.13 520.3 410.82 521.05 413.47 519.92 414.29 519.91 417.83 515.97 419.7 515.33 421.11 515.48 424.26 516.98 427.76 517.63 429.26 518.47 430.03 520.92 430.66 521.7 433.6 522 434.02 520.79 435.56 520.33 437.33 519.17 439.98 519.02 443.46 519.33 444.23 520.33 445.2 520.35 449.56 521.25 450.19 523.27 449.56 525.17 449.06 530.21 454.5 536.49 454.8 538.72 455.36 539.63 458.36 538.05 461.45 537.29 463.17 537.17 465.49 534.92 471.94 531.9 475.02 528.15 476.16 527.66 477.37 528.74 479.84 529.06 482.7 527.76 487.15 529.23 490 527.87 Z" id="32010320"/>
<path d="M 372.58 470.02 372.41 472.97 370.05 476.91 369.65 479.17 368.09 480.88 367.43 482.75 366.69 482.78 366.18 487.84 366.54 489.6 366.42 491.6 367.54 493.78 367.39 494.35 368.38 495.98 367.63 497.54 367.45 500.19 368.08 500.97 368.54 507.75 368.19 512.48 368.73 515.06 368.01 518.14 367.37 526.59 367.18 527.39 369.81 533.93 371.1 542.97 373.41 545.62 372.63 547.47 371.94 547.93 367.59 548.96 364.92 550.65 363.88 551.92 360.32 554.46 358.71 557.87 356.88 559.83 355.6 560.39 353.75 560.05 351.84 561.75 350.71 562.27 350.32 563.62 348.38 563.54 346.92 561.64 346.2 563.2 342 563.27 340.79 563.51 339.54 564.48 335.39 568.82 334.08 568.79 332.77 571.51 332.64 572.95 331.46 575.64 331.5 577.03 329.69 580 329.12 584.33 329.24 585.63 330.81 586.6 331.48 587.94 331.18 589.95 331.9 590.42 332.89 593.36 334.53 595.5 336.07 596.49 336.59 599.04 337.81 600.21 337.8 601.1 335.88 602.46 336.54 603.15 338.26 607.47 338.29 608.98 337.44 610.07 338.45 613.06 338.37 614.99 336.82 615.62 334.68 617.54 331.89 618.49 331.84 619.43 330.23 620.25 326.88 622.58 323.59 623.23 322.35 622.89 323.54 620.72 323.55 619.61 322.3 618.76 318.9 618.16 318.6 616.11 317.18 615.51 316.03 613.52 315.1 613.92 313.76 613.6 312.73 614.27 311.08 614.05 307.34 616.64 305.28 616.63 303.65 617.04 302.57 616.85 300.56 617.51 298.77 614.65 300.18 612.73 298.85 612.29 297.6 610.3 296.05 609.97 293.7 608.68 291.95 604.72 291.87 603.32 287.64 603.52 285.77 602.77 284.36 601.25 284.92 600.31 284.57 597.85 283.87 597.58 281.65 595.53 278.5 595.66 277.76 595.4 277.14 593.68 275.24 593.97 273.8 592.87 270.86 592.6 269.69 592.22 270.1 588.59 268.46 587.91 267.08 588.53 266.29 588.05 264.44 588.1 264.11 586.89 264.63 585.48 264.12 584.8 262.41 580.73 261.12 578.75 261.21 576.89 260.4 575.56 260.03 573.29 258.24 571.55 258.24 568.61 256.84 567.67 255.52 564.89 255.78 563.94 255.23 561.27 252.25 561.37 250.96 560.24 250.57 556.95 248.84 553.49 244.71 553.11 240.83 553.17 239.41 549.05 233.01 547.97 230.9 545.01 230.42 543.75 228.5 541.75 226.77 541.1 225.4 541.75 222.99 540.4 221.66 538.21 220.25 538.4 218.5 535.29 217.38 535.33 216.72 533.96 217.83 532.24 219.74 530.61 223.99 529.82 225.04 530.17 227.4 529.87 229.85 530.6 232.72 529.84 233.73 528.79 234.74 529.07 237.32 527.61 238.13 526.62 239.14 526.7 241.13 525.8 242.37 525.82 243.25 524.6 245.05 524.22 247.57 524.17 249.53 522.5 247.42 519.56 247.29 518.49 247.73 515.79 246.16 515.05 246.21 512.35 245.1 511.28 244.48 508.42 243.22 504.89 250.17 502.88 255.88 498.83 259.99 492.21 260.24 483.16 259.53 474.04 259.88 471.53 262.04 471.56 267.38 468.71 270.74 470.97 274.32 472.22 275.16 471.75 280.05 472.84 282.34 472.48 283.49 473.58 286.88 474.86 288.38 474.7 290.2 473.56 292.33 473.24 295.58 473.38 297.69 474.36 299.44 475.87 301.5 475.81 304.24 476.54 305.65 478.2 305.36 479.61 307.61 478.3 308.95 479.35 310.89 479 314.94 479.82 316 481.34 316.93 481.18 319.03 479.98 318.95 481.91 319.26 483.7 320.32 483.59 320.89 484.4 322.03 484.6 323.26 484.17 320.86 481.44 321.32 480.56 320.93 479.2 322.69 477.44 322.1 474.78 323.3 470.84 322.63 465.89 321.59 463.93 321.32 462.69 322.86 460.59 323.33 457.78 322.96 455.42 324.13 455.13 325.26 455.61 327.09 455.36 328.02 455.72 329.59 454.6 331.17 454.34 334.67 454.56 335.69 455.54 336 456.72 337.94 458.14 338.48 459.67 339.9 459.61 340.5 460.17 342.05 459.7 344.09 461.38 344.98 461.75 345.72 459.86 346.33 460.05 347.19 462 348.49 461.74 350.4 464.9 351.49 465.19 352.34 466.72 353.7 467.24 355.15 468.87 356.69 469.21 356.82 469.97 360.35 470.33 361.29 470.65 363.83 469.72 365.83 470.43 366.42 471.73 367.43 472.11 368.5 470.78 372.58 470.02 Z" id="32010330"/>
<path d="M 484.37 460.87 483.21 461.34 482.51 462.72 480.14 464.72 480.31 467.73 479.48 468.26 476.88 468.76 475.62 469.94 474.26 470 472.36 474.41 472.52 475.04 474.08 476.46 472.57 477.8 472.88 479.53 471.45 484.17 471.55 484.93 478.96 492.41 477.15 494.66 482.67 500.25 484.59 501.55 487.01 501.55 490.04 502.05 491.06 507.28 493.21 509.51 493.45 511.88 492.94 512.25 492.49 514.89 490.94 516.68 490.88 517.38 489.31 518.77 489.65 521.93 489.52 526.34 490 527.87 487.15 529.23 482.7 527.76 479.84 529.06 477.37 528.74 476.16 527.66 475.02 528.15 471.94 531.9 465.49 534.92 463.17 537.17 461.45 537.29 458.36 538.05 455.36 539.63 454.8 538.72 454.5 536.49 449.06 530.21 449.56 525.17 450.19 523.27 449.56 521.25 445.2 520.35 444.23 520.33 443.46 519.33 439.98 519.02 437.33 519.17 435.56 520.33 434.02 520.79 433.6 522 430.66 521.7 430.03 520.92 429.26 518.47 427.76 517.63 424.26 516.98 421.11 515.48 419.7 515.33 417.83 515.97 414.29 519.91 413.47 519.92 410.82 521.05 409.13 520.3 406.78 519.76 403.43 520.83 402.37 522.13 401.09 522.39 399.82 523.2 399.4 526.09 399.62 527.72 400.19 528.72 399.35 530.42 398.75 533.61 396.66 535.9 393.63 537.56 389.42 540.79 388.51 539.2 386.96 538.12 385.78 536.68 386.15 533.6 384.03 532.73 382.61 531.77 380.05 531.16 377.94 528.01 376.94 527.57 375.84 525.46 374.71 524.9 373.42 525.61 371.75 525.05 368.22 526.56 367.37 526.59 368.01 518.14 368.73 515.06 368.19 512.48 368.54 507.75 368.08 500.97 367.45 500.19 367.63 497.54 368.38 495.98 367.39 494.35 367.54 493.78 366.42 491.6 366.54 489.6 366.18 487.84 366.69 482.78 367.43 482.75 368.09 480.88 369.65 479.17 370.05 476.91 372.41 472.97 372.58 470.02 373 468.58 377.15 468.37 377.45 467.5 378.64 466.59 379 465.06 379.94 463.99 380.77 464.15 384.23 462.72 385.63 463.56 387.54 462.34 386.64 461.14 385.22 460.1 383.78 457.33 384.14 455.1 382.05 455.32 378.82 452.2 376.58 449.4 373.87 443.99 373.13 443.09 374.72 440.7 376.14 440.49 376.81 438.96 378.59 436.61 379.57 435.82 380.76 433.13 382.82 432.66 383.27 431.42 382.97 429.98 386.33 429.1 386.23 427.89 389.34 427.2 391.36 427.84 392.36 427.32 392.97 425.58 394.83 425.82 396.68 424.84 397.7 423.9 397.99 422.5 399.33 421.32 400.14 421.61 400.45 418.98 400.93 417.6 403.47 416.17 404.19 416.66 405.18 415.96 408.54 416.08 410.58 414.96 413.31 415.04 415.74 414.21 417.2 414.54 418 413.69 420.98 413.76 422.26 415.59 423.25 415.48 424.7 416.63 425.9 418.31 426.9 421.53 429.5 422.04 431.22 423.83 434.46 423 436.4 422.22 437.48 422.38 439.1 423.3 442.09 421.99 443.03 422.42 445.01 421.34 445.8 421.98 448.42 422.42 450.13 423.33 451.33 423.33 453.92 421.89 454.55 422.15 458.76 421.04 459.42 417.43 460.23 416.99 462.02 417.81 461.59 420.48 460.49 422.64 461.89 425.36 461.84 426.47 462.38 428.2 462.6 430.91 462.27 432.43 462.79 433.25 462.91 434.96 466.75 435.32 467.78 438.36 469.5 438.92 469.93 439.81 472.8 443.2 477.06 445.66 479.62 449.27 481.37 450.99 483.74 452.85 483.8 455.08 483.45 456.17 484.2 457.16 483.86 460.32 484.37 460.87 Z" id="32010340"/>
<path d="M 208.84 754.05 206.8 750.26 204.19 747.57 200.24 748 196.34 748.69 191.74 750.6 185.65 754.89 181.47 761.79 182.04 769.01 182.1 775.83 181.11 781.09 178.18 785.21 174.31 787.92 170.01 790.42 165.24 792 160.22 791.81 157.9 789.81 157.94 775.87 157.84 768.82 159.32 765.78 161.45 759.97 161.81 754.92 161.62 748 160.17 743.68 157.03 740.41 156.81 738.29 156.08 737.44 153.02 736.06 148.14 735.98 144.35 736.97 139.55 738.91 137.43 737.23 135.75 734.5 134.75 730.51 133.03 726.9 132.5 723.14 132.32 720.01 133.21 715.78 134.52 713.07 136.57 710.24 136.91 706.95 135.21 704.08 132.51 701.4 128.59 696.04 104.62 682.16 102.32 681.6 95.23 682.17 93.51 685.28 91.44 690.55 90.21 691.58 87.21 691.37 83.55 690.19 82.01 689.68 78.45 688.96 74.08 689.82 70.22 692.22 67.26 699.26 61.22 703.74 56.91 707.19 53.32 707.99 48.96 706.03 43.64 703.27 40.24 699.2 37.04 694.62 33.32 693.8 29.48 694.58 24.6 699.3 17.73 706.45 12.25 711.83 9.77 715.47 6.23 713.15 3.86 708.72 2.45 706.08 1 699.21 1.48 692.13 2.41 685.27 7.13 678.26 8.65 675.43 12.92 671.21 17.3 667.97 26.18 663.05 34.92 657.58 43.63 651.71 49.05 646.76 50.66 648.32 54.18 647.9 55.7 648.64 56.95 650.19 58.81 651.29 59.73 653.1 60.36 655.19 61.18 655.74 61.71 657.03 61.56 658.09 62.89 658.71 64.58 660.72 65.43 661.07 67.26 656.89 69.36 655.67 69.87 654.25 71.29 652.38 72.55 651.65 74.17 650.15 74.36 648.37 73.89 647.17 75.04 642.66 74.09 640.74 74.5 639.79 74.15 637.99 72.62 633.97 73.05 633.02 72.14 631.97 71.62 630.19 72.56 627.59 73.15 623.87 74.79 623.91 77.67 622.81 79.45 622.5 80.57 621.92 82.67 621.93 86.2 621.17 88.23 619.59 87.97 616.82 88.81 615.11 88.53 613.51 89.62 612.41 89.15 609.49 89.31 606.91 88.81 603.64 89.43 600.43 88.73 599.08 88.73 597.42 90.04 594.9 90.01 593.39 92.64 592.01 94.71 590.43 99.13 588.53 100.21 587.7 101.79 587.16 102.51 585.36 106.31 586.8 109.05 588.63 110.6 588.93 114.92 590.92 117.7 590.69 121.55 591.02 123.91 585.38 125.19 584.51 127.41 584.2 128.32 583.09 130.6 581.47 133.25 577.82 133.55 576.41 141.62 581.01 147.61 583.12 148.24 584.32 150.35 585.7 152.48 585.26 154.88 587.18 159.01 587.05 161.6 587.96 162.72 588.92 163.3 591.38 163.4 593.4 163.99 594.22 163.41 596.56 163.47 598.95 162.85 599.85 162.6 604.85 161.94 605.3 162.2 607.23 161.55 608.35 161.98 610.36 160.38 613.31 160.87 615.37 164.19 616.11 166.54 616 167.94 614.72 170.73 613.63 173 615.48 173.95 617.69 181.48 620.2 184.43 622.2 186.95 624.37 187.77 624.34 189.97 626.39 191.38 626.95 192.31 626.55 192.97 630.74 192.89 631.58 194.6 631.82 195.52 633.96 196.52 634.95 198.85 635.18 199.63 636.44 203.32 638.31 204.94 637.62 205.5 636.85 208.19 635.87 209.54 634.46 211.87 633.45 212.05 632.57 213.91 632.52 215.51 630.71 217.91 629.65 218.93 628.64 220.37 629.23 221.21 628.48 224.66 627.35 225.75 627.43 228.09 624.84 228.23 624.17 231.02 622.48 232.4 623.98 235.28 623.36 238.44 623.72 240.38 622.99 241.68 621.83 242.44 622.32 246.45 622.38 246.79 623.76 250.26 623.77 254.3 628.28 252.45 629.71 251.87 630.77 248.54 634.61 245.32 637.48 244.19 641.32 240.48 642.1 240.44 643.75 239.76 644.94 238.93 647.7 240.77 649.88 241.96 654.96 241.77 656.4 242.37 658.07 241.58 660.1 240.09 660.89 238.33 663.58 238.03 665.64 238.56 666.57 237 668.42 237.26 669.06 237.23 672.2 238.42 674.5 238.62 677.06 238.43 678.4 236.15 683.91 232.65 685.26 230.47 685.77 227.95 685.33 226.87 687.6 224.93 689.26 224.12 690.79 222.42 692.16 218.53 694.82 214.44 696.39 213.07 696.41 210.7 697.46 211.33 702.95 211.19 704.98 212.59 706.59 214.66 708.4 214.23 710.53 212.85 712.57 212.13 715.97 216.93 717.38 219.38 720.22 223.29 723.74 223.16 726.81 222.05 726.2 220.24 728.75 220.81 730.97 216.54 732.67 214.1 738.23 214.21 742.23 213.32 745.26 216.4 748.52 215.59 750.26 213.56 752.73 211.78 754.11 208.84 754.05 Z" id="32010350"/>
<path d="M 243.22 504.89 244.48 508.42 245.1 511.28 246.21 512.35 246.16 515.05 247.73 515.79 247.29 518.49 247.42 519.56 249.53 522.5 247.57 524.17 245.05 524.22 243.25 524.6 242.37 525.82 241.13 525.8 239.14 526.7 238.13 526.62 237.32 527.61 234.74 529.07 233.73 528.79 232.72 529.84 229.85 530.6 227.4 529.87 225.04 530.17 223.99 529.82 219.74 530.61 217.83 532.24 216.72 533.96 217.38 535.33 218.5 535.29 220.25 538.4 221.66 538.21 222.99 540.4 225.4 541.75 226.77 541.1 228.5 541.75 230.42 543.75 230.9 545.01 233.01 547.97 239.41 549.05 240.83 553.17 244.71 553.11 248.84 553.49 250.57 556.95 250.96 560.24 252.25 561.37 255.23 561.27 255.78 563.94 255.52 564.89 256.84 567.67 258.24 568.61 258.24 571.55 260.03 573.29 260.4 575.56 261.21 576.89 261.12 578.75 262.41 580.73 264.12 584.8 264.63 585.48 264.11 586.89 264.44 588.1 266.29 588.05 267.08 588.53 268.46 587.91 270.1 588.59 269.69 592.22 270.86 592.6 273.8 592.87 275.24 593.97 277.14 593.68 277.76 595.4 278.5 595.66 281.65 595.53 283.87 597.58 284.57 597.85 284.92 600.31 284.36 601.25 285.77 602.77 287.64 603.52 291.87 603.32 291.95 604.72 293.7 608.68 296.05 609.97 297.6 610.3 298.85 612.29 300.18 612.73 298.77 614.65 300.56 617.51 302.57 616.85 303.65 617.04 305.28 616.63 307.34 616.64 311.08 614.05 312.73 614.27 313.76 613.6 315.1 613.92 316.03 613.52 317.18 615.51 318.6 616.11 318.9 618.16 322.3 618.76 323.55 619.61 323.54 620.72 322.35 622.89 321.1 625.88 319.18 626.93 318.5 628.78 318.85 629.9 318.38 630.9 318.51 632.3 319.17 633.86 318.05 635.59 318.49 637.11 320.07 637.57 321.1 639.48 322.68 643.16 322.19 644.48 323.14 646.72 322.12 646.98 321.37 649.72 322.24 654.01 321.71 654.49 321.33 657.46 323.75 659.41 324.62 661.19 325.52 661.89 325.16 663.78 328.53 664.53 330.72 665.57 331.93 667.03 335.18 667.88 336.18 668.91 337.27 668.87 339.92 670.83 340.91 672.31 343.01 674.03 344.59 674.24 345.74 676.4 344.99 677.72 343.57 678.67 343.23 679.69 340.64 681.59 338.43 682.01 337.11 681.52 336.45 680.66 335.14 680.37 333.32 679.26 332.09 679.21 331.1 679.93 330.58 681.47 330.71 683.04 328.17 683.37 327.28 684.18 326.07 684.26 325.33 686.47 322.29 687.41 321.95 689.99 319.7 689.7 316.84 690.52 315.29 692.09 314.37 696.37 313.78 696.87 313.48 699.05 311.55 699.95 310.71 700.76 311.13 701.72 310.36 702.86 306.47 703.56 304.85 704.82 303.53 706.44 300.42 707.2 300.44 711.97 299.63 712.17 298.05 712.52 296.1 711.32 293.78 712.38 291.63 711.76 291.12 710.89 288.66 710.95 286.92 711.93 285.55 711.38 284.26 711.42 283.37 712.51 280.6 712.43 279.49 712.76 279.46 713.98 277.91 714.85 277.08 715.99 274.8 717.73 270.7 721.54 267.54 722.23 268.03 723.31 267.67 726.33 269.06 728.77 270.8 729.17 272.36 729.09 272.97 729.64 274.7 729.96 272.62 733.25 272.9 735.05 274.76 740.46 274.35 742.09 271.96 747.17 270.07 748.8 268.05 749.08 265.58 751.63 265.16 753.61 263.84 753.42 259.65 751.71 258.84 751.78 257.26 750.19 255.06 750.85 253.62 752.64 248.43 749.24 244.11 747.94 235.21 744.36 226.51 745.43 223.92 747.92 223.9 754.82 225.84 771.72 224.9 775.84 221.82 782.72 217.9 784.99 215.4 785.41 213.19 784.64 211.23 782.62 210.18 780.27 209.2 775.71 209.69 768.86 209.45 766.87 210.04 761.92 209.31 755 208.84 754.05 211.78 754.11 213.56 752.73 215.59 750.26 216.4 748.52 213.32 745.26 214.21 742.23 214.1 738.23 216.54 732.67 220.81 730.97 220.24 728.75 222.05 726.2 223.16 726.81 223.29 723.74 219.38 720.22 216.93 717.38 212.13 715.97 212.85 712.57 214.23 710.53 214.66 708.4 212.59 706.59 211.19 704.98 211.33 702.95 210.7 697.46 213.07 696.41 214.44 696.39 218.53 694.82 222.42 692.16 224.12 690.79 224.93 689.26 226.87 687.6 227.95 685.33 230.47 685.77 232.65 685.26 236.15 683.91 238.43 678.4 238.62 677.06 238.42 674.5 237.23 672.2 237.26 669.06 237 668.42 238.56 666.57 238.03 665.64 238.33 663.58 240.09 660.89 241.58 660.1 242.37 658.07 241.77 656.4 241.96 654.96 240.77 649.88 238.93 647.7 239.76 644.94 240.44 643.75 240.48 642.1 244.19 641.32 245.32 637.48 248.54 634.61 251.87 630.77 252.45 629.71 254.3 628.28 250.26 623.77 246.79 623.76 246.45 622.38 242.44 622.32 241.68 621.83 240.38 622.99 238.44 623.72 235.28 623.36 232.4 623.98 231.02 622.48 228.23 624.17 228.09 624.84 225.75 627.43 224.66 627.35 221.21 628.48 220.37 629.23 218.93 628.64 217.91 629.65 215.51 630.71 213.91 632.52 212.05 632.57 211.87 633.45 209.54 634.46 208.19 635.87 205.5 636.85 204.94 637.62 203.32 638.31 199.63 636.44 198.85 635.18 196.52 634.95 195.52 633.96 194.6 631.82 192.89 631.58 192.97 630.74 192.31 626.55 191.38 626.95 189.97 626.39 187.77 624.34 186.95 624.37 184.43 622.2 181.48 620.2 173.95 617.69 173 615.48 170.73 613.63 167.94 614.72 166.54 616 164.19 616.11 160.87 615.37 160.38 613.31 161.98 610.36 161.55 608.35 162.2 607.23 161.94 605.3 162.6 604.85 162.85 599.85 163.47 598.95 163.41 596.56 163.99 594.22 163.4 593.4 163.3 591.38 162.72 588.92 161.6 587.96 159.01 587.05 154.88 587.18 152.48 585.26 150.35 585.7 148.24 584.32 147.61 583.12 141.62 581.01 133.55 576.41 133.25 577.82 130.6 581.47 128.32 583.09 127.41 584.2 125.19 584.51 123.91 585.38 121.55 591.02 117.7 590.69 114.92 590.92 110.6 588.93 109.05 588.63 106.31 586.8 102.51 585.36 101.79 587.16 100.21 587.7 99.13 588.53 94.71 590.43 92.64 592.01 90.01 593.39 90.04 594.9 88.73 597.42 88.73 599.08 89.43 600.43 88.81 603.64 89.31 606.91 89.15 609.49 89.62 612.41 88.53 613.51 88.81 615.11 87.97 616.82 88.23 619.59 86.2 621.17 82.67 621.93 80.57 621.92 79.45 622.5 77.67 622.81 74.79 623.91 73.15 623.87 72.56 627.59 71.62 630.19 72.14 631.97 73.05 633.02 72.62 633.97 74.15 637.99 74.5 639.79 74.09 640.74 75.04 642.66 73.89 647.17 74.36 648.37 74.17 650.15 72.55 651.65 71.29 652.38 69.87 654.25 69.36 655.67 67.26 656.89 65.43 661.07 64.58 660.72 62.89 658.71 61.56 658.09 61.71 657.03 61.18 655.74 60.36 655.19 59.73 653.1 58.81 651.29 56.95 650.19 55.7 648.64 54.18 647.9 50.66 648.32 49.05 646.76 55.87 639.92 57.93 636.47 60.1 629.44 60.22 622.56 57.29 615.67 53.9 608.59 48.74 601.58 42.6 594.67 37.96 587.7 34.9 584.65 30.34 580.75 25.05 573.82 22.8 566.88 26.19 559.85 31.84 552.87 35.9 546.9 41.47 538.99 47.98 531.95 46.83 525.03 44.2 518.11 39.7 513.16 33.2 510.59 29.87 508.21 28.24 504.1 28.51 495.07 29.73 488.78 32.3 481.93 35.52 475.6 40.1 470.88 47.1 465.3 52.34 462.31 56.42 462.14 60.57 461.79 66.44 462.25 73.63 464.98 80.22 468.03 87.61 471.13 95.91 475.73 98.61 477.76 106.05 481.58 113.32 484.65 125.13 488.23 130.78 490.07 139.52 490.92 145.36 491.84 148 492.62 152.55 493.23 159.74 493.56 165.64 495.26 168.76 497.27 176.48 504.21 181.14 508.94 188 513.89 196.56 518.56 200.55 518.3 208.82 514.35 217.95 509.19 226.58 506.45 233.21 505.41 238.79 504.84 243.09 504.52 243.22 504.89 Z" id="32010360"/>
<path d="M 247.79 225.31 248.05 229.59 253.25 236.13 256.24 238.03 266.68 243.77 269.11 244.21 279.54 246.95 287.48 251.62 291.93 256.68 297.11 263.03 304.38 270.07 308.01 274.11 308.84 276.96 311.33 278.98 315.34 281.46 313.05 283.81 315.69 288.06 316.34 289.68 319.37 293.45 321.05 297.3 321.86 300.61 322.25 301.29 324.37 301.52 325.34 309.04 324.5 312.98 322.44 315.22 320.31 319.45 319.53 321.52 319.42 322.97 318.21 325.42 317.55 329.94 315.18 336.91 313.73 342.17 313.1 342.17 312.39 343.87 307.3 351.44 300.75 359.5 298.23 362.1 294.92 365.9 288.57 371.02 287.36 377.37 280.19 381.29 278.64 386.49 278.19 387.4 276.24 388.65 274.16 392.35 270.67 394.54 267.97 397.67 266.52 400 264.26 409.76 264.6 411.6 262.21 417.44 260.46 422.52 260.28 425.12 258.98 434.4 258.83 439.11 259.08 448.39 259.67 451.1 260.59 453.09 262.29 455.56 260.68 463.93 259.88 471.53 259.53 474.04 260.24 483.16 259.99 492.21 255.88 498.83 250.17 502.88 243.22 504.89 243.09 504.52 238.79 504.84 233.21 505.41 226.58 506.45 217.95 509.19 208.82 514.35 200.55 518.3 196.56 518.56 188 513.89 181.14 508.94 176.48 504.21 168.76 497.27 165.64 495.26 159.74 493.56 152.55 493.23 148 492.62 145.36 491.84 139.52 490.92 130.78 490.07 125.13 488.23 113.32 484.65 106.05 481.58 98.61 477.76 95.91 475.73 87.61 471.13 80.22 468.03 73.63 464.98 66.44 462.25 67.02 459.65 66.85 457.59 67.58 454.15 67.05 451.82 68.74 451.21 69.77 450.26 70.18 449.16 71.19 448.89 75.06 446.36 76.24 444.64 78.29 443.35 79.94 443 83.62 443.24 87.17 444.07 87.25 442.97 88.11 440.91 88.13 439.91 89.33 439.84 90.56 438.7 92.65 437.57 91.9 435.07 91.17 433.69 92.77 430.54 94.08 425.66 95 424.67 95.26 422.57 97.2 422.09 97.09 420.13 100.25 418.8 100.82 416.82 102.27 416.29 103.74 414.42 103.56 413.76 104.37 412.12 105.76 412.12 106.51 410.92 108.04 410.37 109.42 408.87 113.6 408.28 114.79 407.4 117.18 406.61 118 405.34 119.72 404.4 122.82 405.16 124.35 404.3 126.82 405.1 128.89 405.48 131.07 405.06 134.46 404.84 136.74 405.76 139.7 406.06 140.5 407.07 142.81 407.27 144.23 407.97 148.25 408.27 148.99 406.62 150.14 405.06 152.26 403.81 153 401.33 153.55 397.99 155.63 393.5 156.75 392.8 157.15 390.2 156.62 389.43 156.32 387.05 154.87 384.49 154.57 382.44 155.04 380.24 154.73 377.83 156.04 374.97 155.92 373.64 156.89 371.24 158.73 370.1 158.56 369.15 159.42 367.3 160.17 363.71 161.42 361.73 163.65 360.57 165.09 358.28 165.25 355.7 166.55 352.52 167.18 349.13 169.06 346.67 169.19 345.96 168.18 344.48 168.9 342.1 168.79 339.32 168.27 335.25 166.74 329.88 165.72 328.16 164.17 322.7 164.05 320.38 161.88 318.96 161.34 317.86 161.16 311.8 163.44 308.69 164.91 308.01 168.06 303.62 167.38 301.76 167.08 298.52 165.52 295.86 164.55 291.38 163.68 289.03 162.43 287.08 161.84 285.29 162.66 282.48 161.91 280.06 160.98 279.82 157.96 277.62 156.2 275.08 148.17 272.38 146.28 268.83 145.09 265.42 146.43 258.44 146.58 256.3 146.06 252.08 147.21 250 147.61 246.34 149.05 243.77 149.2 240.24 149.93 238.12 149.99 233.25 152.27 231.7 153.36 230.25 157.56 228.47 159.26 226.76 159.89 225.35 166.68 223.02 168.66 220.87 172.09 220.68 173.72 220.16 176.19 220.15 178.21 219.55 181.11 217.31 183.1 216.55 190.89 214.59 195.71 213.7 199.76 213.24 203.26 210.36 203.48 209.7 206.68 206.3 208.11 204.29 207.07 203.48 207.07 202.43 205.84 201.31 203.66 200.94 202.31 199.81 200.98 199.39 198.64 197.89 197.26 198.01 193.14 196.58 191.4 195.13 189.71 194.43 188.03 192.42 185.87 190.9 185.22 190.06 183.33 188.77 183.72 187.84 183.16 186.48 184.78 184.97 185.05 183.53 186.85 182.04 187.86 179.97 188.65 180.51 191.92 180.51 194.5 181.29 195.84 181.19 197.71 181.91 199.83 181.94 202.01 182.6 206.08 182.68 208.71 183.74 210.77 183.28 212.81 183.77 213.06 186.72 213.99 188.69 216.69 191.98 221.16 195.41 226.6 198.38 233.92 200.21 242.43 201.62 247.52 202.8 250.32 204.24 255.94 208.01 258.22 210.31 258.94 212.7 258.6 216.68 257.17 218.49 250.72 221.12 248.27 222.45 246.64 225.49 247.79 225.31 Z" id="32010370"/>
<path d="M 368.01 410.46 370.27 412.84 373.26 414.99 374.5 415.26 377.22 414.91 377.2 417.83 376.67 418.88 371.03 425.34 370.82 423.16 369.99 422.18 368.61 422.45 367.87 423.45 366.14 423.47 365.21 422.84 363.21 424.73 361.37 426.04 360.52 427.48 360.52 430.65 358.55 429.82 353.41 426.87 351.53 429.11 349.81 427.47 347.82 426.62 345.57 426.7 342.87 424.24 343.26 422.8 339.86 420.28 337.04 418.64 337.66 417.61 338.6 418.66 340.69 417.52 341.49 416.6 342.9 416.7 344.84 414.5 346.23 412.45 348.69 407.87 349.01 405.85 347.83 405.02 348.61 403.78 348.46 402.49 349.95 402.31 350.95 403.68 351.56 402.15 358 405.68 357.52 406.51 359.96 407.37 364.19 409.54 368.01 410.46 Z" id="32010640"/>
<path d="M 339.14 394.73 339.69 395.54 337.55 397.72 338.79 398.5 341.18 399.32 341.61 400.42 342.99 402.34 343.57 403.71 341.01 406.02 339.22 406.05 336.8 409.75 331.73 413.43 328.33 411.88 328.38 407.34 327.35 407.86 326.14 407.73 324.62 406.11 324.39 404.96 330.88 402.36 337.07 395.89 337.8 394.04 339.14 394.73 Z" id="32010540"/>
<path d="M 353.97 382.32 355.18 381.88 357.08 382.55 357.89 385.48 357.92 387.22 359.21 387.21 358.43 389.8 359.33 392.07 358.51 392.73 358.97 394.5 357.19 394.97 357.17 396.29 356.09 397.8 354.3 398.42 351.33 400.24 349.93 397.97 348.31 397.3 347.03 396 346.66 393.98 347.04 392.73 345.82 392.03 346.46 390.61 347.22 390.37 347.72 387.57 348.61 385.46 349.42 385.45 350.21 383.9 351.37 382.61 352.76 382.98 353.97 382.32 Z" id="32010520"/>
<path d="M 351.33 400.24 350.54 400.77 351.45 402.13 349.95 402.31 348.46 402.49 348.61 403.78 347.83 405.02 346.62 406.42 345.23 406.61 342.94 405.33 341.01 406.02 343.57 403.71 342.99 402.34 341.61 400.42 341.18 399.32 338.79 398.5 337.55 397.72 339.69 395.54 339.14 394.73 341.74 395.05 343.64 393.87 345.17 392.2 345.82 392.03 347.04 392.73 346.66 393.98 347.03 396 348.31 397.3 349.93 397.97 351.33 400.24 Z" id="32010530"/>
<path d="M 350.07 366.92 350.28 372.19 349.09 379.53 345.09 379.38 340.63 376.83 336.8 376.38 335.17 377.62 333.59 376.3 331.91 379.62 331.09 381.89 331.54 382.33 330.76 384.08 331.63 384.53 330.54 387.34 329.57 387.05 329.05 388.1 330.77 389 328.98 391.65 328.19 392 326.95 394.07 327.89 395.3 327.37 396.24 328.21 398.14 325.5 399.1 325.94 400.23 323.86 401.05 323.9 403.71 324.39 404.96 324.62 406.11 326.14 407.73 327.35 407.86 328.38 407.34 328.33 411.88 327.92 412.88 326.89 412.18 320.69 411.64 318.93 412.21 317.18 412.16 315.29 410.75 310.18 407.71 307.7 405.41 304.79 403.08 302.23 401.4 299.41 395.4 289.68 402.34 287.59 404.73 284.38 406.63 281.88 407.79 278.76 408.12 273.34 410.08 270.19 410.69 266.01 411.78 264.6 411.6 264.26 409.76 266.52 400 267.97 397.67 270.67 394.54 274.16 392.35 276.24 388.65 278.19 387.4 278.64 386.49 280.19 381.29 287.36 377.37 288.57 371.02 294.92 365.9 298.23 362.1 300.75 359.5 307.3 351.44 312.39 343.87 313.1 342.17 313.73 342.17 315.39 342.25 319.97 339.83 322.66 342.9 326.46 345.47 328.05 347.34 329.24 350.38 330 350.84 333.8 358.58 334.62 364.77 335.75 366.32 339.87 366.31 348.58 366.65 350.07 366.92 Z" id="32010570"/>
<path d="M 349.09 379.53 352.79 381.96 353.97 382.32 352.76 382.98 351.37 382.61 350.21 383.9 349.42 385.45 348.61 385.46 347.72 387.57 347.22 390.37 346.46 390.61 345.82 392.03 345.17 392.2 343.64 393.87 341.74 395.05 339.14 394.73 337.8 394.04 337.07 395.89 330.88 402.36 324.39 404.96 323.9 403.71 323.86 401.05 325.94 400.23 325.5 399.1 328.21 398.14 327.37 396.24 327.89 395.3 326.95 394.07 328.19 392 328.98 391.65 330.77 389 329.05 388.1 329.57 387.05 330.54 387.34 331.63 384.53 330.76 384.08 331.54 382.33 331.09 381.89 331.91 379.62 333.59 376.3 335.17 377.62 336.8 376.38 340.63 376.83 345.09 379.38 349.09 379.53 Z" id="32010580"/>
<path d="M 377.41 388.47 373.09 389.56 371.46 388.43 370.63 390.58 369.79 391.5 360.84 396.71 359.9 394.25 358.97 394.5 358.51 392.73 359.33 392.07 358.43 389.8 359.21 387.21 357.92 387.22 357.89 385.48 357.08 382.55 355.18 381.88 353.97 382.32 352.79 381.96 349.09 379.53 350.28 372.19 350.07 366.92 357.29 368.18 364.04 367.58 366 364.77 366 367.85 366.8 368.61 370.65 369.37 371.56 368 373.44 367.53 374.57 368.48 374.43 370.59 376.68 371.14 377.2 371.7 380.39 373.78 380.44 375.61 380.05 379.91 380.69 381.77 381.69 383.03 380.31 383.37 380.36 384.67 379.14 386.67 378.06 387.12 377.41 388.47 Z" id="32010600"/>
<path d="M 377.47 414.8 377.22 414.91 374.5 415.26 373.26 414.99 370.27 412.84 368.01 410.46 368.47 408.64 366.05 407.71 367.56 405.13 367.42 403.52 366.5 401.88 365.35 401.7 365.32 401.71 363.68 401.65 360.84 396.71 369.79 391.5 370.61 391.47 377.21 402.67 377.47 414.8 Z" id="32010610"/>
<path d="M 377.41 388.47 377.94 389.69 379.18 390.76 381.73 391.37 381.28 392.76 381.85 393.33 382.86 396.39 383.71 396.15 386.82 398.36 387.65 399.67 390.04 402.55 391.58 403.94 392.1 405.01 393.09 405.52 394.74 408.27 395.68 408.96 395.85 410.13 394.96 412 390.19 411.79 387.69 412.77 386.4 412.82 386.34 413.76 382.44 413.98 377.47 414.8 377.21 402.67 370.61 391.47 369.79 391.5 370.63 390.58 371.46 388.43 373.09 389.56 377.41 388.47 Z" id="32010620"/>
<path d="M 328.33 411.88 331.73 413.43 336.8 409.75 339.22 406.05 341.01 406.02 342.94 405.33 345.23 406.61 346.62 406.42 347.83 405.02 349.01 405.85 348.69 407.87 346.23 412.45 344.84 414.5 342.9 416.7 341.49 416.6 340.69 417.52 338.6 418.66 337.66 417.61 337.04 418.64 333.21 416.02 333.04 416.24 329.95 414.15 328.64 413.74 327.92 412.88 328.33 411.88 Z" id="32010630"/>
<path d="M 368.01 410.46 364.19 409.54 359.96 407.37 357.52 406.51 358 405.68 351.56 402.15 350.95 403.68 349.95 402.31 351.45 402.13 350.54 400.77 351.33 400.24 354.3 398.42 356.09 397.8 357.17 396.29 357.19 394.97 358.97 394.5 359.9 394.25 360.84 396.71 363.68 401.65 365.32 401.71 365.35 401.7 366.5 401.88 367.42 403.52 367.56 405.13 366.05 407.71 368.47 408.64 368.01 410.46 Z" id="32010650"/>
<path d="M 365.66 314.82 365.64 316.01 364.08 322.97 366 333.63 366.53 336.9 367.93 343.87 367.92 355.7 366.31 357.8 366.31 364.54 366 364.77 364.04 367.58 357.29 368.18 350.07 366.92 348.58 366.65 339.87 366.31 335.75 366.32 334.62 364.77 333.8 358.58 330 350.84 329.24 350.38 328.05 347.34 326.46 345.47 322.66 342.9 319.97 339.83 315.39 342.25 313.73 342.17 315.18 336.91 317.55 329.94 318.21 325.42 319.42 322.97 319.53 321.52 320.31 319.45 322.44 315.22 324.5 312.98 325.34 309.04 324.37 301.52 322.25 301.29 321.86 300.61 321.05 297.3 319.37 293.45 316.34 289.68 315.69 288.06 313.05 283.81 315.34 281.46 316.93 281.01 318.17 282.02 319.65 282.4 321.08 281.97 320.99 280.87 322.44 279.16 323.4 278.81 323.67 277.73 325.9 275.47 327.18 275.05 327.77 273.44 328.73 273.77 329.65 272.31 329.02 271.11 329.07 269.77 329.87 268.5 331.6 269.18 332.18 267.01 336.46 268.56 337.65 269.51 337.12 271.15 338.56 272.51 340.44 275.07 342.29 276.75 343.68 277.42 345.04 276.97 347.16 279.94 348.65 281.56 349.79 282.04 352.54 284.87 347.99 288.99 346.88 291.03 347.34 292.57 349.59 293.77 353.37 296.89 356.08 298.69 356.47 302.39 357.73 304.33 358.46 306.19 358.08 307.87 358.75 308.95 358.73 312.29 359.31 314.08 365.65 311.13 365.66 314.82 Z" id="32010710"/>
<path d="M 367.05 89.53 369.07 92.7 370.56 93.67 371.13 94.93 372.12 94.64 374.01 95.69 375.17 95.54 376.42 96.23 377.38 95.91 381.21 96.58 383.49 96.16 384.59 97.14 384.77 99.65 385.53 100.44 385.58 101.74 387.57 104.19 387.61 105.61 390.74 106.04 392.73 106.87 393.11 107.62 395.46 107.45 397.56 107.84 398.44 108.65 399.68 108.98 400.86 108.62 402.01 110.1 402.18 111.61 403.03 112.3 402.96 113.78 403.38 115.25 404.29 115.61 404.4 116.89 406.07 119.11 406.26 120.52 407.25 121.06 407.68 123.24 408.31 123.85 408.39 126.56 409.57 127.21 409.57 128.9 408.93 129.63 408.88 131.05 407.23 132.93 406.88 135.49 407.6 136.9 406.79 137.99 406.76 139.56 406.16 140.44 406.86 142.28 406.26 144.42 404.26 145.01 402.62 146.23 401.93 148.25 401.19 148.62 400.64 150.24 398.51 151.84 398.35 154.09 396.74 154.84 395.71 157.02 395.78 160.02 395.39 163.75 393.85 164.66 391.39 165.45 390 167.71 390.86 169.51 389.08 172.82 388.43 174.54 387.53 175.8 386.34 181.48 385.95 181.75 386.14 185.7 387.61 187.35 386.28 193.01 386.5 197.61 386.47 200.12 386.78 202.45 386.43 203.6 384.15 204.06 383.43 205.13 380.19 204.9 378.88 205.17 374.66 209.17 373.58 209.21 371.73 208.24 367.75 207.23 365.94 205.2 363.19 203.79 360.15 204.18 358.68 204.07 357.29 202.55 355.72 201.39 353.11 201.82 352.05 201.07 347.39 200.79 346.47 200.45 345.62 201.55 344.57 203.78 341.46 204.92 340.5 205.55 340.66 206.77 337.5 208.36 335.91 211.03 335.14 211.87 332.81 210.5 331.89 210.83 330.08 210.36 328.01 210.87 325.1 210.97 323.62 210.48 320.24 210.79 317.67 210.01 314.75 208.8 307.22 211.77 305.02 213.65 302.21 216.94 301 217.42 299.68 217.1 298.54 217.99 296.07 218.36 291.21 216.95 289.14 218.01 288.27 217.5 284.83 217.32 284.25 218.31 281.62 218.18 279.57 218.45 278.62 217.57 274.3 216.27 273.92 215.2 272.63 215.34 271.41 214.39 268.84 214.21 266.28 215.34 264.75 217.55 263.33 218.05 262.31 220.7 260.92 222.13 260.1 222.25 259.2 223.56 257.79 222.83 256.52 222.81 255.88 223.43 253.47 222.96 252.02 223.84 250.46 223.68 249.08 224.98 247.79 225.31 246.64 225.49 248.27 222.45 250.72 221.12 257.17 218.49 258.6 216.68 258.94 212.7 258.22 210.31 255.94 208.01 250.32 204.24 247.52 202.8 242.43 201.62 233.92 200.21 226.6 198.38 221.16 195.41 216.69 191.98 213.99 188.69 213.06 186.72 212.81 183.77 210.77 183.28 208.71 183.74 206.08 182.68 202.01 182.6 199.83 181.94 197.71 181.91 195.84 181.19 194.5 181.29 191.92 180.51 188.65 180.51 187.86 179.97 186.85 182.04 185.05 183.53 184.78 184.97 183.16 186.48 183.72 187.84 183.33 188.77 185.22 190.06 185.87 190.9 188.03 192.42 189.71 194.43 191.4 195.13 193.14 196.58 197.26 198.01 198.64 197.89 200.98 199.39 202.31 199.81 203.66 200.94 205.84 201.31 207.07 202.43 207.07 203.48 208.11 204.29 206.68 206.3 203.48 209.7 203.26 210.36 199.76 213.24 195.71 213.7 190.89 214.59 183.1 216.55 181.11 217.31 178.21 219.55 176.19 220.15 173.72 220.16 172.09 220.68 168.66 220.87 166.68 223.02 159.89 225.35 159.26 226.76 157.56 228.47 153.36 230.25 152.27 231.7 149.99 233.25 149.93 238.12 149.2 240.24 149.05 243.77 147.61 246.34 147.21 250 146.06 252.08 143.5 250.23 142.94 249.13 138.26 248.22 134.3 247.85 132.24 247.27 130.42 246.22 127.35 243.05 124.55 242.09 120.4 239.63 118.84 239.2 116.25 239.71 114.2 239.42 110.6 240.43 108.34 239.95 106.35 237.67 106.28 236.9 104.12 236.21 103.05 235.53 98.3 234.98 93.37 235.66 91.39 236.17 88.41 236.54 83.86 237.45 80.72 237.25 78.49 236.76 76.18 235.16 75.31 233.95 70.78 232.34 66.63 231.09 61.59 230.45 58.28 228.01 56.86 224.81 56.71 215.68 57.33 212.6 59.62 211.43 61.13 207.6 60.32 203.38 59.13 201.24 59.45 196.73 58.33 194.22 57.14 192.51 55.94 187.45 55.59 182.69 53.77 176.68 51.86 171.1 50.59 165.83 49.73 164.58 50.39 163.43 50.47 161.8 51.52 157.93 51.67 155.78 52.5 151.43 54.54 144.66 55.23 143.08 55.09 139.47 55.57 137.12 55.72 134.9 56.18 134.21 56.4 131.64 57.15 129.71 56.99 127.88 59.47 127.59 61.07 126.76 63.83 126.71 66.08 127.35 69.49 127.28 70.8 126.92 72.91 125.75 74.72 125.29 80.28 125.34 82.98 124.12 86.17 122.95 87.87 118.71 86.92 116.78 86.95 114.59 88.13 112.69 88.42 108 90.38 105.95 90.79 103.72 92.08 102.97 95.36 101.84 96.41 99.78 101.63 96.71 102.7 94.78 103.97 93.69 104.61 91.92 106.4 89.76 108.59 88.44 108.07 84.63 107.26 82.43 104.32 78.94 103.77 77.52 101.36 74.28 101.88 69.55 101.51 66.94 102.97 65.22 103.5 64.02 106.06 62.86 108.4 61.46 109.84 59.55 109.81 57.5 108.34 55.55 106.92 55.29 105.71 53.87 106.31 51.09 106.25 48.98 105.71 46.31 104.61 44.97 101.33 41.61 98.88 39.85 94.64 36.46 92.1 36.36 89.84 36.99 88.39 34.54 87.92 31.23 86.08 26.88 86.6 22.32 86.18 20.15 88.04 16.44 89.35 14.44 89.3 13.13 89.85 12.15 89.57 10.77 87.95 7.46 87.75 6.4 88.89 3.33 92.75 2.57 95.98 2.2 97.24 1.38 100.17 1 103.37 1.4 104.53 2.3 107.95 3.99 111.39 5.97 114.05 6.84 115.02 8.52 117.42 8.91 118.82 10.21 122.07 9.89 123.78 8.86 126.41 9.52 130.81 9.91 135.92 10.69 137.07 15.09 137.99 16.55 141.34 18.91 143.05 20.86 146.81 23.42 148.08 24.62 152.73 26.48 152.5 28.71 153.22 29.82 153.56 31.76 153 34.49 150.65 41.26 149.25 47.04 153.5 48.53 155.7 50.65 158.91 55.74 160.2 55.34 162.52 53.91 165.02 53.33 167.42 53.74 168.62 54.4 169.97 56.32 174.39 61.85 177.3 65.22 179.52 66.29 181.31 66.68 188.7 67.95 191.44 68.03 195.65 66.82 199.1 65.41 204.12 64.2 205 61.51 208.82 56.67 210.45 55.53 211.62 55.21 214.53 55.79 218.27 57.25 220.6 59.21 221.72 61.21 222.57 63.8 222.67 66.1 222.28 68.47 220.48 73.06 217.5 76.23 215.99 78.44 215.72 80.52 215.89 85.06 216.12 86.12 215.4 92.23 215.39 94.88 214.93 98.16 214.93 100.05 215.61 103.67 217.55 106.18 218.32 110.63 219.08 112.37 222.92 117.68 224.27 118.49 226.36 117.87 225.19 114.74 225.42 111.8 227.13 111.73 233.69 108.67 234.29 107.14 236.19 107.7 237.26 106.94 239.05 106.49 239.76 105.78 241.39 105.68 242.39 103.42 244.72 101.45 245.84 100.04 247.74 98.32 251.22 96.5 252.37 96.62 254.57 95.5 256.82 95.16 261.31 94.9 266.14 98.23 267.75 98 268.64 96.8 269.8 96.81 272.74 97.92 274.78 97.82 279.02 95.93 281.07 95.63 282.14 96.02 284.69 95.75 285.69 95.35 287.77 93.3 291.48 91.82 292.11 90.97 294.59 90.19 299.09 92.03 301.27 93.34 302.36 94.95 304.71 96.73 306.63 99.43 308.77 101.44 309.85 104.79 310.59 105.4 312.02 109.22 313.05 112.54 314.37 115.36 315.16 117.62 316.49 117.23 318.18 117.43 318.83 116.14 320.54 116.39 322.2 116.04 323.41 116.32 324.54 115.95 326.17 116.22 327.74 115.84 330.04 116.07 330.94 115.46 333.3 115.23 333.48 113.42 334.46 112.85 334.63 111.51 335.8 110.56 335.98 109.11 338 107.09 338.34 105.13 338.01 103.54 338.91 102 339.08 100.28 342.03 99.65 343.42 99.84 344.09 96.56 344.68 95.33 345.92 94.41 346.53 93.36 348.3 91.76 349.65 91.71 350.7 90.53 351.8 90.38 352.43 89.56 354.91 90.25 355.76 89.95 358.04 90.32 359.02 89.87 361.44 90.7 362.7 90.64 364.03 89.06 364.04 87.91 365.74 87.03 367.05 89.53 Z" id="32010380"/>
<path d="M 604.07 63.56 604.25 66.74 606.24 72.11 605.68 75.58 605.83 80.45 604.2 82.87 603.07 87.49 604.44 88.62 604.65 90.43 604.18 94.2 606.49 96.89 606 99.52 606.59 102.72 607.37 103.81 610.09 106.37 611.88 108.88 615.51 111.73 616.18 113.66 619.54 115.44 620.98 117.02 623.7 118.33 625.41 118.25 628.47 120.41 631.05 120.56 632.58 121.49 634.58 122.21 636.1 122.27 636.98 121.82 639.3 122.64 640.77 124.15 645.26 124.58 645.6 125.28 648.6 126.35 653.06 130.73 653.42 134.18 656.56 133.42 659.12 133.35 662.52 131.71 666.93 128.43 669.34 125.21 672.65 117.05 672.15 110.75 671.42 104.37 672.27 100.13 674.67 94.71 676.63 90.69 679.39 86.78 680.69 86.11 685 85.79 688.38 87.39 696.67 93.05 701.48 98.43 705.95 100.62 711.27 101.24 719.39 103.05 725.1 105.32 727.38 106.23 731.14 108.17 733.36 110.75 734.45 113.59 734.5 116.29 733.88 121.21 729.17 132.05 728.73 136.46 729.02 140.21 730.53 144.13 731.94 146.17 735.79 150.34 737.66 152.69 740.32 154.87 743.74 156.82 747.52 156.56 750.84 154.6 754.87 149.64 758.83 142.13 761.31 136.81 762.75 133.2 765.5 129.3 768.19 126.95 773.43 122.89 775.51 122.27 779.04 121.85 783.49 121.8 786.38 121.32 789.29 121.2 791.76 121.69 796.9 128.27 797.72 129.68 799 131.03 798.27 131.89 794.54 134.44 793.77 135.8 792.14 136.81 791.13 138.02 791.97 140.93 790.89 142.86 788.75 143.58 788.46 144.05 784.75 144.77 783.82 145.29 784.43 147.64 782.73 158.44 781.34 160.31 779.03 161.82 779.3 164.03 777.48 166.09 774.62 166.63 770.78 166.53 767.65 167.2 764.23 166.61 761.56 168.66 759.34 168.24 756.03 173.09 754.53 174.78 753.56 176.52 750.82 177.51 748.83 178.67 746.21 177.67 743.5 177.74 741.27 177.31 739.52 178.45 735.94 181.71 731.94 180.57 729.15 181.25 729.77 181.85 730.03 185.8 729.37 186.14 726.55 190.18 726.46 192.05 727.74 193.9 728.25 195.36 729.42 197.28 731.07 198.69 730.41 204.52 731.33 207.84 730.79 208.86 729.58 209.79 727.58 214.3 727.8 215.08 729.19 216 730.15 217.32 730.02 221.25 730.96 225.84 729.53 227.6 730.2 230.15 726.78 233.3 726.68 236.24 724.62 238.37 724.23 240.23 722.27 241.41 720.45 243.22 725.22 245.18 729.99 250.1 735.52 253.21 735.91 259.28 736.91 260.36 739.27 265.95 741.41 266.79 745.57 269.07 744.94 272.2 747.73 273.6 748.03 277.15 746.99 279.88 747.36 283.4 746.51 286.06 744.89 288.93 744.59 293.55 743.81 295.02 741.34 297.51 738.98 301.18 735.29 305.6 732.97 306.63 730.51 308.16 731.21 311.99 731.21 315.06 732.07 320.46 732.83 322.12 731.96 323.64 731.99 326.49 734.87 329.6 734.32 330.54 730.13 332.42 728.65 333.73 724.7 337.74 723.77 339.69 723.08 341.92 722.02 343.88 719.1 345.66 717.2 347.94 715.2 350.94 713.01 353.65 711.73 356.17 711.56 357.2 712.25 359.25 712.32 361.19 711.68 364.43 710.46 366.86 710.26 367.84 710.93 369.01 711.65 371.97 713.02 375.13 713.37 377.61 715.1 378.75 714.32 382.8 714.7 387.47 714.13 387.52 710.37 390.36 707.8 391.7 706.65 391.81 706.25 393.08 704.98 394.28 704.06 396.64 702.22 397.21 701.88 397.86 699.97 399.38 694.72 402.02 693.96 403.18 691.51 404.54 691.76 405.83 690.38 407.03 689.88 409.25 685.81 409.02 679.63 409.45 678.04 409.16 675.09 407.94 674.04 405.32 673.4 400.07 670.76 398.18 667.52 396.69 666.21 395.23 663.56 395.48 660.33 394.89 658.62 393.47 654.64 394.78 649.74 395.24 646.41 392.12 643.66 388.81 642.87 384.88 643.66 382.03 641.29 379.71 637.87 377.41 633.61 376.63 631.68 375.35 623.26 373.8 620.31 372.92 616.88 370.08 612.68 367.41 609.69 366.16 607.88 361.01 607.6 355.58 606.35 351.44 604.69 348.48 603.91 344.92 602.55 343.08 603.72 341.15 604.54 336.96 603.69 334.85 604.72 330.61 600.17 329.23 598.09 327.27 595.75 326.55 593.98 324.94 591.4 324.98 589.52 321.45 586.78 319.25 583.73 318.62 583 313.2 582.28 308.77 583.31 307.81 579.93 305.9 577.16 297.47 575.19 290.33 571.39 286.94 569.15 285.41 567.51 284.86 562.05 283.63 554.19 282.66 549.6 282.19 543.62 280.85 540.09 279.76 536.2 278.12 533.9 277.47 528.16 278.04 523.16 278.22 518.95 279.76 515.2 282.47 510.84 286.49 502.79 290.95 501.11 290.88 499.06 290.2 495.6 285.49 494.74 284.91 493.06 282.13 490.99 277.91 488.01 273.04 484.84 269.6 481.72 267.11 478.91 265.69 475.38 264.76 474.6 263.42 472.14 261.61 470.73 261.29 465.7 258.37 463.44 256.43 461.39 254.17 460.66 251.57 459.2 251.03 458.11 249.88 456.28 248.73 455.66 247.5 452.69 246.24 449.75 244.05 448.25 244.07 447.11 243.53 444.12 243.13 441.33 242.05 439.74 234.87 439.62 230.32 441.07 227.02 441.57 224.63 441.46 220.82 439.94 216.14 438.88 213.77 436.72 211.2 436.7 206.93 437.19 204.6 437.23 201.03 436.9 196.89 438.89 192.69 436.58 189.24 436.49 182.46 437.72 176 439.74 171.18 442.37 169.03 447.21 166.31 451.02 163.44 452.71 161.8 457.51 161.68 460.27 161.28 461.69 159.76 465.62 156.38 468.07 155.55 471.76 155.51 473.7 155.72 478.9 155.03 482.2 156.81 486.05 160.25 489.34 160.93 489.42 159.29 490.65 157.38 492.14 156.24 491.43 151.09 494.22 146.21 499.1 145.34 501.47 143.74 504.4 141.04 505.44 138.78 508.56 135.55 511.79 134.77 515.32 134.35 518.65 134.84 520.17 134.49 521.42 132.69 523.88 129.83 527.51 129.3 535.65 126.41 536.47 125.63 531.66 117.34 530.31 113.24 530.29 111.03 532.46 106.72 525.1 102.48 525.11 100.84 524.58 99.09 523.32 97.42 523.37 95.68 522.52 92.04 523.89 89.09 523.64 84.88 526.34 80.58 525.52 79.87 525.51 78.2 526.2 77.49 525.43 74.07 527.64 69.38 528.21 68.71 528.73 64.42 531.37 60.94 537.49 65.39 540.01 65.36 545.37 64.73 549.89 64.76 551.09 65.9 553.59 66.76 555.02 66.61 557.7 68.16 558.36 67.43 561.53 66.62 566.4 69.64 567.92 70.2 569.77 69.61 573.51 68.81 576.59 66.89 579.17 66.02 582.06 64.6 585.3 64.65 592.38 62.71 596.6 63.12 599.18 64.91 601.8 63.97 604.07 63.56 Z" id="32010390"/>
<path d="M 394.96 412 397.95 412.53 399.6 414.3 402.55 414.59 403.47 416.17 400.93 417.6 400.45 418.98 400.14 421.61 399.33 421.32 397.99 422.5 397.7 423.9 396.68 424.84 394.83 425.82 392.97 425.58 392.36 427.32 391.36 427.84 389.34 427.2 386.23 427.89 386.33 429.1 382.97 429.98 383.27 431.42 382.82 432.66 380.76 433.13 379.57 435.82 378.59 436.61 376.81 438.96 376.14 440.49 374.72 440.7 373.13 443.09 373.87 443.99 376.58 449.4 378.82 452.2 382.05 455.32 384.14 455.1 383.78 457.33 385.22 460.1 386.64 461.14 387.54 462.34 385.63 463.56 384.23 462.72 380.77 464.15 379.94 463.99 379 465.06 378.64 466.59 377.45 467.5 377.15 468.37 373 468.58 372.38 468.12 369.01 467.18 368.24 467.52 366.36 466.28 365.57 464.02 363.71 461.5 364.03 459.92 366.53 459.98 367.73 458.93 368.86 457.22 369.38 455.36 371.32 453.21 356.56 449.74 354.79 448.22 356.13 445.32 355.69 443.81 355.73 440.69 356.01 438.15 355.47 435.27 355.59 434.51 352.95 431.3 352.49 430.03 351.53 429.11 353.41 426.87 358.55 429.82 360.52 430.65 360.52 427.48 361.37 426.04 363.21 424.73 365.21 422.84 366.14 423.47 367.87 423.45 368.61 422.45 369.99 422.18 370.82 423.16 371.03 425.34 376.67 418.88 377.2 417.83 377.22 414.91 377.47 414.8 382.44 413.98 386.34 413.76 386.4 412.82 387.69 412.77 390.19 411.79 394.96 412 Z" id="32010660"/>
<path d="M 322.96 455.42 322.43 452.86 322.55 450.4 322.17 449.3 322.48 447.29 324.56 446.39 325.48 445.33 327.31 444.12 327.88 440.56 327.77 438.82 328.71 438.41 330.16 436.35 331.77 434.78 330.87 434.08 332.1 432.16 330.11 430.96 331.15 429.24 328.86 427.75 330.05 425.79 330.17 424.81 329.23 423.98 329.4 422.48 333.04 416.24 333.21 416.02 337.04 418.64 339.86 420.28 343.26 422.8 342.87 424.24 345.57 426.7 347.82 426.62 349.81 427.47 351.53 429.11 352.49 430.03 352.95 431.3 355.59 434.51 355.47 435.27 356.01 438.15 355.73 440.69 355.69 443.81 356.13 445.32 354.79 448.22 356.56 449.74 371.32 453.21 369.38 455.36 368.86 457.22 367.73 458.93 366.53 459.98 364.03 459.92 363.71 461.5 365.57 464.02 366.36 466.28 368.24 467.52 369.01 467.18 372.38 468.12 373 468.58 372.58 470.02 368.5 470.78 367.43 472.11 366.42 471.73 365.83 470.43 363.83 469.72 361.29 470.65 360.35 470.33 356.82 469.97 356.69 469.21 355.15 468.87 353.7 467.24 352.34 466.72 351.49 465.19 350.4 464.9 348.49 461.74 347.19 462 346.33 460.05 345.72 459.86 344.98 461.75 344.09 461.38 342.05 459.7 340.5 460.17 339.9 459.61 338.48 459.67 337.94 458.14 336 456.72 335.69 455.54 334.67 454.56 331.17 454.34 329.59 454.6 328.02 455.72 327.09 455.36 325.26 455.61 324.13 455.13 322.96 455.42 Z" id="32010670"/>
<path d="M 327.92 412.88 328.64 413.74 329.95 414.15 333.04 416.24 329.4 422.48 329.23 423.98 330.17 424.81 330.05 425.79 328.86 427.75 331.15 429.24 330.11 430.96 332.1 432.16 330.87 434.08 331.77 434.78 330.16 436.35 328.71 438.41 327.77 438.82 327.88 440.56 327.31 444.12 325.48 445.33 324.56 446.39 322.48 447.29 322.17 449.3 322.55 450.4 322.43 452.86 322.96 455.42 323.33 457.78 322.86 460.59 321.32 462.69 321.59 463.93 322.63 465.89 323.3 470.84 322.1 474.78 322.69 477.44 320.93 479.2 321.32 480.56 320.86 481.44 323.26 484.17 322.03 484.6 320.89 484.4 320.32 483.59 319.26 483.7 318.95 481.91 319.03 479.98 316.93 481.18 316 481.34 314.94 479.82 310.89 479 308.95 479.35 307.61 478.3 305.36 479.61 305.65 478.2 304.24 476.54 301.5 475.81 299.44 475.87 297.69 474.36 295.58 473.38 292.33 473.24 290.2 473.56 288.38 474.7 286.88 474.86 283.49 473.58 282.34 472.48 280.05 472.84 275.16 471.75 274.32 472.22 270.74 470.97 267.38 468.71 262.04 471.56 259.88 471.53 260.68 463.93 262.29 455.56 260.59 453.09 259.67 451.1 259.08 448.39 258.83 439.11 258.98 434.4 260.28 425.12 260.46 422.52 262.21 417.44 264.6 411.6 266.01 411.78 270.19 410.69 273.34 410.08 278.76 408.12 281.88 407.79 284.38 406.63 287.59 404.73 289.68 402.34 299.41 395.4 302.23 401.4 304.79 403.08 307.7 405.41 310.18 407.71 315.29 410.75 317.18 412.16 318.93 412.21 320.69 411.64 326.89 412.18 327.92 412.88 Z" id="32010680"/>
</g>
</svg>