<?xml version="1.0"?>
<svg xmlns="http://www.w3.org/2000/svg" version="1.2" baseProfile="tiny" width="800" height="770" viewBox="0 0 800 770" stroke-linecap="round" stroke-linejoin="round">
<g id="dong">
<path d="M 353.44 343.44 353.1 344.21 353.82 346.69 352.45 349.97 350.93 350.36 349.95 351.71 347.54 356.53 347.37 358.62 345.52 361.35 344.18 361.27 341.99 364.47 340.99 368.34 341.35 368.65 340.68 368.91 340.54 368.04 336.13 364.26 333.08 361.4 332.5 360.07 330.42 358.19 327.69 355.31 325.22 352.61 330.8 347.94 333.49 348.86 336.03 351.14 338.41 348.46 338.88 350.37 340.84 350.83 342.13 349.87 342.21 347.97 345.17 344.76 345.43 342.97 351.03 343.01 351.96 343.63 353.44 343.44 Z" id="32020540"/>
<path d="M 354.3 336.4 354.67 338.33 355.97 340.47 355.1 341.56 354.08 340.58 353.44 343.44 351.96 343.63 351.03 343.01 345.43 342.97 345.17 344.76 342.21 347.97 342.13 349.87 340.84 350.83 338.88 350.37 338.41 348.46 336.03 351.14 333.49 348.86 330.8 347.94 330.51 347.8 332.72 345.79 334.14 343.57 334.98 343.53 336.01 341.46 338.73 340.34 343.08 337.21 343.73 337.75 346.4 336.72 347.61 335.74 349.91 338.34 352.75 336.43 354.3 336.4 Z" id="32020520"/>
<path d="M 370.71 356.97 370.01 358.72 368.59 358.75 368.4 360.32 367.44 362.05 366.28 362.69 365.54 363.98 365.26 365.8 365.66 368.7 367.45 371.11 367.87 372.25 367.39 373.85 368.23 377.81 369.03 380.02 369.9 381.3 373.08 383.05 374.65 384.44 377.97 391.21 377.9 395 381.1 396.86 383.06 399.17 384.86 402.6 384.4 403.57 382.41 402.85 380.82 403.52 366.14 387.92 365.06 389.35 363.7 388.01 360.28 395.9 359.98 396.89 358.51 404.57 362.31 406 363.57 407.19 361.28 410.87 359.17 411.64 356.38 414.21 354.42 415.58 349.32 415.59 347.95 414.84 346.77 413.15 345.08 412.19 343.38 412.48 343.91 410.61 343.28 408.96 343.84 406.86 343.61 404.99 341.68 404.23 340.75 403.2 339.21 402.65 340.44 400.62 340.3 399.07 341.39 397.14 343.64 398.1 343.56 399.15 347.41 397.75 348.96 398.32 349.36 397.25 350.51 396.38 339.92 392.44 328.86 389.07 330.1 385.03 331.06 383.36 336.13 378.26 336.97 377.09 339.34 372.16 340.68 368.91 341.35 368.65 347.05 373.46 351.11 367.64 352 365.22 353.82 363.83 353.8 361.82 354.57 359.4 357.42 357.82 360.72 356.6 362.09 359.49 363.88 359.4 364.36 358.66 366.45 358.13 366.67 356.31 370.71 356.97 Z" id="32020560"/>
<path d="M 347.61 335.74 346.4 336.72 343.73 337.75 343.08 337.21 338.73 340.34 336.01 341.46 334.98 343.53 334.14 343.57 332.72 345.79 330.51 347.8 328.49 346.13 328.3 343.66 327.16 341.58 325.81 340.98 325.84 338.37 324.6 336.74 323.91 336.58 324.57 333.46 324.16 331.62 323.34 330.7 325.35 326.46 329.08 327.92 331.95 328.52 333.22 327.88 335.01 327.64 335.7 326.41 337.61 325.66 339.19 325.56 342.65 331.32 345.98 334.61 347.61 335.74 Z" id="32020570"/>
<path d="M 613.38 436.26 613.77 437.23 613.72 439.51 614.06 440.64 613.64 442.87 612.37 445.2 611.15 448.96 611.36 451.95 612.03 453 612.4 455.44 614.57 457.95 613.63 462.82 614.41 467.73 616.29 469.04 616.92 470.67 615.95 473.34 616.98 477.39 618.03 477.52 621.5 479.36 623.37 479.29 625.53 484.19 624.8 487.63 624.15 489.43 625.78 491.54 627.59 491.98 628.9 491.16 631.31 491.78 632.68 491.57 635.66 491.96 639.7 486.84 641.1 485.72 642.57 485.56 645.73 487.37 647.75 486.56 649.85 486.98 652.38 487 654.64 488.22 659.86 491.88 661.61 492.53 664.19 492.46 665.06 493.15 667.87 493.74 668.59 493.56 671.33 494.02 675.18 492.86 677.08 491.69 681.18 490.94 684.17 490.67 687.97 491.29 689.23 490.64 691.92 490.48 695.77 489.1 698.2 489.2 699.55 487.73 701.08 488.11 706.39 487.54 707.24 485.54 708.46 484.4 711.22 483.66 712.67 482.71 714.02 482.61 715.24 481.38 716.87 480.44 717.66 478.96 718.71 479.38 720.14 478.86 720.94 477.68 722.87 476.18 724.37 476.5 726.17 476.08 728.17 476.1 730.53 475.43 730.96 472.4 730.24 470.8 730.22 469.27 731.97 467.12 732.4 465.46 732.51 463.02 731.71 460.99 731.47 458.37 730.15 456.12 730.23 453.61 731.12 450.38 731.88 449.41 733.19 449.21 737.23 447.82 738.33 447.16 741.49 448.44 743.12 448.22 744.29 447.2 746.23 446.71 747.46 447.14 751.08 445.79 753.37 443.79 753.24 440.79 755.46 438.97 758.07 437.66 760.23 437.31 762.98 438.52 764.7 440.08 766.4 442.82 767.09 445.35 768.22 446.56 769.97 450.23 771.98 452.22 773.42 453.06 775.12 452.52 776.97 454.08 778.73 457.32 780.69 456.65 782 455.35 784.59 454.89 787.08 455.38 789.32 455.09 791.44 456.47 792.12 459.12 792.82 459.63 793.14 462.28 794.11 463.65 795.46 466.81 795.06 468.99 796.06 470.71 796.36 472.95 798.02 474.56 799 476.59 798 478.68 796.39 478.19 795.82 479.4 794.35 479.14 791.65 480.23 789.49 482.86 786.65 483.52 786.09 484.1 787.21 485.85 787.88 488.14 788.04 490.39 787.41 493.57 787.99 495.92 787.37 499.43 787.58 500.68 790.16 502.88 789.76 506.5 789.75 508.92 790.37 511.47 788.51 514.19 788.81 516.31 787.93 517.12 788 518.71 787.21 521.79 786.16 524.19 785.47 526.79 784.69 527.76 784.97 530.31 784.39 531.47 784.63 534.35 784.12 535.18 784.37 536.7 783.17 539.29 781.85 539.47 778.5 539.75 774.42 539.11 770.68 539.3 769.75 540.59 769.08 542.96 763.03 546.21 759.79 546.25 756.67 548.14 753.52 551.35 751.81 552.54 750.74 554.17 745.6 558.28 743.61 560.96 742.34 562.19 735.65 566.26 733.89 567.61 731.77 568.53 730.5 571.52 728.64 571.96 727.92 573.12 725.47 574.36 724.71 577.72 725.87 579.29 726.93 581.44 728.67 582.86 726.94 586.46 725.46 587.49 724.77 589.17 723.03 590.54 723.31 597.3 724.09 602.91 722.54 605.12 721.45 605.48 718.39 605.62 716.74 608.06 716.1 609.56 713.99 611.14 714.07 612.02 713.36 612.1 709.02 615.22 707.18 614.11 706.11 612.57 704.96 612.01 704.62 610.86 702.78 610.71 698.79 609.02 696.34 609.83 693.15 610.45 692.29 610.05 689.53 606.74 686.61 599.84 684.24 600.22 683.14 600.01 679.86 596.58 677.73 597.62 676.1 596.62 674.34 594.42 672.12 592.43 671.77 588.71 671.97 586.27 671.53 583.46 669 581.49 665.44 580.64 663.49 580.99 657.08 581.25 655.08 580.31 654.99 578.75 651.9 575.91 650.38 572.86 647.72 573.19 647.06 571.88 644.83 571.16 643.2 571.28 641.98 572.82 642.06 573.99 641.02 575.42 639.88 578.86 638.53 579.89 636.9 582.33 637.19 583.13 636.54 585.81 635.76 586.63 637.5 588.47 638.44 591.01 634.78 594.19 631.89 596.07 627.84 600.23 627.02 601.53 625.75 606.03 626.6 609.19 625.42 611.21 624.9 613.12 624.94 616.77 623.41 618.22 621.71 621.6 619.91 622.95 620.91 624.86 621.14 626.73 620.57 628.16 617.13 630.31 616.07 632.31 612.4 633.88 609.85 636.45 608.68 636.79 606.85 638.31 601.32 640.98 600.51 640.9 596.65 642.53 595.38 643.56 593.5 643.81 593.03 644.83 591.14 645.05 588.85 646.2 581.58 646.02 579.6 647.93 577.23 651.09 572.05 653.46 566.85 656.03 563.64 658.26 561.85 657.89 560.36 658.24 558.2 659.62 557.54 659.58 554.3 656.71 550.95 656.75 546.4 657.95 543.78 658.08 540.08 660.37 538.93 660.4 537.53 659.11 534.84 657.76 532.05 658.5 526.45 661.77 525.21 663.28 520.33 664.63 518.43 665.83 516.96 667.47 515.48 667.09 512.27 667.39 507.6 664.87 505.53 665.7 504.55 667.19 502.24 668.87 500.68 668.82 495.7 668.33 493.44 667.28 490.09 663.91 487.19 658.73 487.4 654.01 487.12 649.98 486.05 647.25 482.48 644.05 480.38 641.01 480.46 639.51 482.44 638.16 483.16 633.72 484.05 631.06 485.04 629.39 486.89 628.67 487.79 627.46 488.12 626.06 487.84 624.45 488.26 623.05 489.41 621.99 492.92 620.26 494.61 618.88 494.97 617.54 496.18 616.91 497.95 614.73 497.7 611.93 495.1 608.57 493.13 606.56 491.82 606.29 488.65 604.69 486.47 601.42 486.2 599.7 486.35 595.69 484.81 595.66 482.56 594.67 480.71 594.26 478.88 592.97 477.19 593.08 475.69 591.24 472.95 592.02 470.95 592 469.67 587.98 468.95 586.51 467.61 582.2 467.26 576.84 466.15 572.57 465.48 569.02 465.18 565.71 465.68 560.86 465.42 558.89 464.48 555.58 464.1 552.53 466.18 552.65 470.17 551.99 471.89 551.14 476.05 550.33 476.61 549.91 478.6 550.02 480.15 549.12 481.8 548.91 482.35 548.06 485.21 549 487.7 546.82 489.35 544.89 491.64 543.92 492 543.13 493.43 542.66 494.18 541.65 496.21 540.87 496.34 539.29 497.99 537.56 498.19 535.02 499.6 532.03 500.16 529.98 500.33 526.54 501.18 524.65 502.46 523.06 502.67 520.35 503.78 518.29 504.34 515.26 507.72 512.99 510.3 512.41 511.48 511.62 511.86 510.15 510.91 507.19 511.47 506.21 511.72 504 513.61 501.35 513.64 499.57 513.13 498.12 515.53 497.05 517.11 495.57 517.46 492.86 518.27 490.43 520.56 487 519.05 484.5 517.49 481.27 517.08 478.13 515.84 475.5 514.91 472.41 511.45 464.41 511.23 462.32 511.51 459.88 512.71 455.46 512.41 452.7 512.45 448.46 512.25 445.05 513.69 442.95 514.58 439.91 514.29 435.29 515 430.88 516.39 426.92 517.57 421.39 517.27 420.64 517.98 417.57 517.83 416.96 522.82 415.54 526.54 415.57 528.02 415.33 531.94 415.36 535.01 415.07 537.81 416.01 542.35 415.87 545.01 416.57 547.78 418.45 551.36 421.7 554.42 425.12 557.99 425.65 559.3 426.13 561.43 425.59 564.01 426.98 567.2 427.09 570.57 429.84 570.95 430.49 573.48 429.97 576.21 431.26 576.75 432.11 579.01 432.26 580.17 430.27 582.12 430.57 585.73 432.2 588.25 432.86 591.09 432.74 593.02 431.75 594.7 431.92 595.74 431.24 598.13 432.49 599.08 432.16 601.11 434.52 601.75 434.8 603.82 433.13 606.5 431.85 608.61 433.78 611.12 434.56 613.38 436.26 Z" id="32020380"/>
<path d="M 199.57 370.66 199.02 373.03 197.6 375.34 195.52 376.61 197.76 378.52 199.23 378.7 200.33 381.88 198.25 385.21 198.2 386.53 194.9 388.13 195.86 389.15 196.29 391.15 198.83 395.44 200.5 396.57 200.72 397.76 203.01 400.01 202.98 400.97 204.28 401.51 204.44 403.7 202.66 405.33 201.52 407.51 201.65 408.86 201.21 410.76 202.26 411.85 202.47 414.97 203.35 416.6 202.89 418.51 203.21 421.87 202.8 423.25 203.02 424.73 203.85 425.93 204.2 428.19 202.87 429.52 202.97 431.18 201.62 432.48 201.43 433.83 199.39 437.09 197.98 438.44 197.88 439.61 196.45 441.11 194.88 442.1 195.39 443.73 196.97 446.36 198.41 447.9 198.82 450.38 200.24 451.69 200.86 455.36 201.46 456.46 201.86 459.75 200.32 462.98 197.5 465.43 196.84 467.06 197.21 470.47 198.08 472.23 197.64 474.4 196.55 477.05 195.77 477.89 195.74 481.21 194.47 482.76 195.3 485.04 197.15 487.21 199.45 487.79 200.77 487.51 202.35 488.92 203.08 493.38 203.79 495.72 200.56 498.45 199.87 500.81 200.47 501.71 200.62 503.93 199.05 508.03 199.11 509.46 198.42 510.26 198.35 514.48 199.96 515.12 201.32 515.03 203.61 515.96 203.3 518.04 204 518.63 203.36 520.56 205.04 522.5 205.45 524.19 207.14 525.12 208.35 526.53 210.11 527.31 212.68 527.79 213.73 529.34 214.48 531.26 215.38 532.34 217.7 532.76 221.25 534.53 222.59 534.87 226.88 537.32 228.51 538.04 231.22 536.95 232.77 538.18 232.81 539.9 233.48 541.58 234.86 541.72 236.9 543.98 234.36 546.51 234.1 547.2 235.5 548.51 236.07 551.47 237.17 553.96 238.06 554.61 236.52 554.59 234.61 555.54 229.81 557.03 227.12 555.3 223.83 556.11 221.48 554.21 219.6 555.18 218.12 555.29 217.49 553.89 215.92 551.83 212.11 551.88 210.39 553.26 209.88 556.13 208.27 556.74 207.88 558.34 206.08 559.92 206.39 562.34 205.45 567.23 204.24 568.54 203.55 570.92 203.54 572.35 202.79 574.55 203.03 575.97 201.98 578.25 201.05 579.33 199.25 577.54 196.51 577.18 191.45 578.51 190.53 577.66 188.56 577.35 184.58 578.66 182.95 579.89 180.64 580.32 179.57 582.24 180.11 583.39 179.54 584.46 177.66 585.56 179.62 589.13 179.94 591.78 179.83 595.38 179.44 596.51 177.96 596.92 175.86 595.11 174.84 595.91 174.84 596.94 177.23 597.91 177.02 599.15 175.19 599.49 176.01 604.1 175.24 606.69 176.96 610.63 176.71 613.22 177.84 614.69 178.09 615.86 176.46 616.32 174.59 617.93 174.33 618.81 169.92 621.37 168.22 623.41 167.15 625.69 164.66 626.67 163.69 630.12 163.64 632.93 161.85 633.29 159.55 634.62 158.28 633.17 156.11 632.2 155.08 632.55 152.98 631.09 153.19 629.13 153.84 628.43 154.11 626.21 154.76 625.98 156.38 621.77 156.12 620.34 155 620.07 153.48 617.4 151.7 616.21 151.8 612.73 152.38 612.22 152.78 609.88 153.43 609.06 153.19 606.1 153.22 600.53 148.08 597.21 146.22 598.23 145.62 597.66 143.81 597.72 141.34 597.18 140.53 594.97 138.23 595.22 135.78 595 133.64 594.24 132.06 592.25 132.23 590.02 133.24 588.51 132.44 587.66 132.69 586.67 130.68 583.56 131.19 582.52 130.93 578.9 131.07 575.26 130.36 574.64 129.71 572.1 129.16 571.54 129.59 569.09 128.46 564.94 127.27 563.28 126.91 561.76 127.45 560.65 127.51 558.76 124.09 558.65 120.14 559.04 117.71 558.28 116.01 558.37 114.9 558.97 113.1 557.76 111.73 552.79 111.08 551.4 109.86 550.6 109.57 549.01 108.67 547.51 106.61 546.29 105.95 545.3 105.92 542.6 106.61 541.4 106.31 538.61 107.71 537.58 107.71 535.97 103.89 536.73 100.24 535.11 97.33 536.48 94.85 538.86 90.81 540.74 89.54 541.02 87.38 539.35 87.1 536.06 86.2 535.41 85.96 533.73 84.93 532.53 84.86 530.81 84.14 529.63 84.09 527.69 86.78 522.95 86.19 520.76 85.35 519.93 85 518.56 83.74 517.2 81.99 516.74 80.5 515 78.81 515.31 78.21 513.2 78.2 511.2 76.57 510.83 75.93 510.14 74.38 510.12 74.16 507.13 72.6 505.39 70.55 504.21 70.82 498.85 70.37 497.22 70.73 495.54 73.1 489.59 71.04 489.24 69.98 490.41 69.11 492.51 66.43 496.55 64.34 498.87 62.65 498.66 61.96 499.49 58.13 500.44 55.47 501.31 52.93 502.6 50.74 504.16 45.32 506.26 44.48 506.34 44.67 508.73 37.59 510.13 33.68 510.41 30.58 513.39 29.13 515.18 28.13 517.16 24.28 526.51 22.96 527.48 22.29 526.07 22.72 523.25 24.53 518.77 24.26 517.7 24.88 515.82 25.94 514.73 26.63 511.13 25.72 509.58 27.92 504.77 25.65 502.52 26.29 501.52 25.64 499.01 26.9 498.12 27.42 495.76 25.99 495.21 25.55 492.99 26.09 492.5 25.73 490.57 24.83 488.8 25.12 487.86 23.6 487.38 22.97 487.84 21.2 487.43 21.25 485.98 22.72 484.18 20.44 482.81 20.83 481.26 16.4 472.8 17.94 471.22 19.06 471.2 17.18 467.74 16.97 465.48 15.57 462.8 14.59 463.22 13.67 461.26 10.97 458.49 9.63 456.56 9.97 454.04 9.39 453.32 9.53 451.58 8.8 449.52 9.29 445.61 10.58 443.88 13.43 444.51 14.87 444.2 17.24 444.32 18.9 442.85 20.73 441.85 22.16 439.24 24.37 438.63 25.14 437.03 29.85 434.74 31.52 435.48 33.77 435.63 35.8 436.45 38.3 435.6 40.05 436.17 39.84 434.15 39.17 433.29 39.16 429.45 40.18 425.27 39.99 423.52 40.3 421.86 39.84 419.3 37.53 416.73 36.8 413.54 35.4 411.99 35.62 410.97 35.05 408.08 34.31 407.14 34.69 406.08 34.84 403.08 34.32 402.25 32.21 401.39 29.45 394.92 30.84 392.05 30.55 390.13 28.93 385.88 28.12 382.76 26.47 379.16 26.52 377.74 25.4 376.08 23.63 375.59 23.05 374.52 25.49 372.42 28.04 369.53 28.5 367.95 30.69 366.91 28.73 364.26 28.57 363.22 27.06 361.41 27.18 357.61 26.53 356.06 26.75 353.48 25.34 352.35 24.01 352.32 23.8 350.38 22.99 348.67 23.66 345.81 22.11 343.08 22.06 340.32 23.16 337.58 22.64 332.5 23.78 330.76 26.66 328.58 26.04 325.99 24.88 322.9 24.93 320.93 26.22 318.55 25.69 315.97 24.18 313.65 26.12 311.01 25.87 309.54 27.25 305.48 28.95 305.39 30.93 306.08 33.4 306.24 36.53 305.56 38.67 306.52 40.87 306.32 42.75 308.44 43.17 309.96 48.01 315.15 47.88 317.67 49.41 319.64 49.71 321.54 49.23 323.65 50.23 327.78 51.33 329.48 50.71 331.49 52.06 334.02 52.12 336.93 53.02 338.6 54.08 339.64 54.36 341.23 55.63 341.05 58.69 339.88 61.88 340.45 64.52 339.28 66.04 337.16 68.07 336.46 69.68 336.31 70.73 337.12 72.36 336.59 74 338.19 77.74 338.13 79.68 340.02 80.57 345.05 82.56 346.1 84.7 344.74 86.35 344.88 87.66 345.7 90.12 346.4 91.28 348.62 92.46 349.4 94.82 349.93 93.44 354.02 92.98 357.06 92.26 358.18 91.33 363.88 92.02 365.57 93.11 369.59 94.26 369.54 97.38 368.15 100.3 368.23 105.2 369.26 106.58 371.05 109.99 370.49 115.31 370.63 118.91 368.7 122.92 364.76 126.92 362.1 137.28 352.25 139.83 350.17 143.8 347.89 147.2 344.61 152.51 340.94 155.79 340.09 156.54 340.21 161.26 342.95 165.71 346.79 166.64 348.44 167.56 351.72 169.05 355.76 170.69 358.98 172.29 360.36 175.76 360.71 177.81 358.76 177.37 355.99 177.41 354.16 178.48 350.36 179.94 347.51 181.27 345.92 184.68 345.46 186.55 347.39 188.79 347.74 191.29 347.38 199.12 347.02 199.85 348.1 199.68 349.75 198.8 352.43 197.36 354.81 195.85 358.51 195.23 361.11 194.97 366.02 195.98 368.7 196.81 369.68 198.63 370.64 199.57 370.66 Z" id="32020110"/>
<path d="M 491.69 125.05 494.49 127.26 495.33 127.41 497.58 128.86 497.11 131.89 499.1 132.99 501.39 133.07 502.58 132.25 506.45 131.52 507.31 133.43 517.69 131.95 518.23 132.68 522.61 130.23 523.75 130.63 525.28 129.02 526.31 128.86 527.8 130.16 526.79 133.1 530.09 133.59 530.08 135.14 531.71 135.86 532.68 138.74 532.25 141.3 530.69 144.61 532.3 146.14 531.91 148.46 534.14 148.18 535.73 148.57 538.39 150.02 538.95 150.66 541.56 152.06 541.89 153.06 543.3 154.67 546.23 156.88 547.24 158.72 550.21 159.05 551.33 158.44 553.77 159.3 554.18 160.28 556.25 160.07 558.65 161.15 560.24 162.88 561.14 162.66 565.06 166 566.7 166.76 569.29 167.15 568.85 173.16 571.3 175.27 572.45 177.01 572.77 178.96 572.23 179.79 572.93 181.49 574.29 186.42 575.97 188.85 576.89 193.27 581.46 198.84 582.82 199.29 584 200.41 585.97 201.5 589.55 201.66 590.01 204.17 591.33 206.07 591.97 209.81 590.03 211.84 588.57 211.83 587.71 212.62 587.24 214.44 585.34 214.88 583.14 216.13 582.4 217.71 581.12 218.56 577.99 218.83 576.92 220.69 575.33 221.37 573.33 220.94 571.18 222.26 570.33 222.38 568.68 221.35 566.58 221.64 565.72 221.2 560.7 223.78 560.29 225.77 558.05 227.57 557.09 230.17 555.38 230.32 554.67 233.14 553.32 235.66 550.73 238.18 549.39 241.03 551.74 244.76 552.47 247.6 552.41 249.27 553.77 251.42 555.72 255.74 556.98 256.03 557.01 259.01 557.31 259.91 556.58 261.24 557.4 262.46 556.8 264.07 554 266.53 554.27 268.51 555.45 271.98 555.42 273.93 554.78 275.16 557.29 277.72 558.04 278.94 556.69 281.84 555.58 283.64 553.99 285.23 552.41 285.75 551.31 288.04 552.27 289.42 550.82 292.68 548.68 293.3 547.06 293.38 541.98 297.6 539.57 298.16 539.23 298.81 537.37 298.68 534.1 297 533.61 296.39 530.05 295.54 529.26 296.68 525.06 299.57 522.55 299.87 519.14 298.18 515.28 297.2 512.56 295.75 511.01 297.99 508.61 298.93 507.93 301.09 506.75 301.29 505.91 305.4 506.24 310.04 504.45 311.98 499.71 315.87 497.05 316.38 495.19 317.1 493.62 320.06 493.72 322.99 492.8 326.23 491.45 328.63 491.62 334.09 491.48 336.84 492.09 337.53 488.87 338.7 484.23 335.98 483.3 333.8 480.69 332.51 478.65 331.92 474.45 331.12 473.24 329.83 473.03 327.29 472.34 325.3 471.42 324.37 471.53 322.19 470.92 320.46 470.79 317.85 469.28 315.97 467.34 314.75 466.58 313.53 464.26 311.86 463.29 311.53 461.71 309.78 459.6 309.61 456.91 306.98 454.87 307.02 454.21 308.47 452.35 309.91 449.74 310.71 449 310.53 445.74 311.55 445.82 310.14 443.5 310.5 441.38 310.23 440.21 310.6 437.86 309.5 435.87 311.32 433.51 311.94 432.13 310.44 431.15 310.08 429.78 311.15 428.5 311.47 428.15 309.67 427.05 308.78 425.84 306.77 425.64 304.4 426.48 303.64 425.88 301.73 425.19 301.24 425.08 298.16 423.72 298.06 422.28 297.04 422.28 296.02 420.82 294.84 419.41 294.45 418.62 293.47 416.95 295.26 414.68 296.96 413.69 298.88 411.55 299.63 408.96 298.6 407.9 295.68 407.11 294.68 405.38 294.18 403.74 292.17 402.79 289.84 401.45 287.95 401.38 287.17 399.96 285.36 398.73 285.46 395.12 281.22 392.89 280.55 391.13 281.27 389.64 280.14 388.08 279.25 388.38 277.02 385.5 275.62 383.53 275.28 379.99 272.3 378.74 271.13 377.8 271.19 375.1 268.78 373.39 267.6 373.42 265.5 372.43 263.08 371.37 262.39 370.23 262.54 370.47 258.35 368.78 257.92 369.31 255.23 368.77 252.53 369.43 250.18 368.8 245.87 368.03 245 367.76 242.86 366.22 241.01 365.32 240.62 362.75 238.57 361.18 235.76 361.72 233.85 361.3 227.98 360.94 226.79 360.95 223.42 361.88 221.7 360.55 221.65 359.88 220.42 358.62 219.99 359.17 217.52 357.14 214.85 356.27 214.3 354.83 214.97 351.44 214.81 351.32 213.9 349.86 212.73 347.75 211.83 346.83 212.57 344.91 211.51 343.42 210.17 342.37 210.78 339.98 210.19 336.24 210.14 335.26 211.17 334.28 210.4 331.51 211.03 329.55 209.98 326.97 212.35 325.87 211.4 324.05 211.13 323.68 209.64 322.64 208.64 323.42 206.54 324.25 206.88 327.21 205.79 330.14 203.28 332.15 200.9 333.75 197.63 335.31 194.98 336.31 192.09 337.17 187.69 338.58 184.08 340.05 181.49 341.14 180.21 344.25 175.54 349.35 169.65 352.19 167.49 352.75 166.75 353.52 163.55 351.15 161.36 350.28 159.61 349.92 157.81 349.92 154.34 350.84 150.45 351.61 148.9 353.45 147.22 354.99 146.32 357.92 139.86 359.52 134.31 361.77 130.43 363.22 127.48 364.18 124.92 366.01 122.03 366.89 119.85 368.25 118.43 373.6 116.3 377.4 112.49 378.94 110.53 382.38 107.05 383.72 104.05 386.89 103.83 387.1 102.63 389.62 102.13 390.65 103.08 391.84 101.84 393.39 101.87 394.78 100.66 396.02 100.28 397.85 98.52 398.66 100.17 400.99 100.58 403.05 102.1 406.58 101.14 407.79 101.89 409.14 101.94 413.68 104.83 414.38 106.33 416.75 106.49 418.42 105.96 420.87 105.9 422.8 105.27 423.67 105.87 426.55 106.35 429.03 106.1 431.39 105.22 433.73 107.2 435.14 107.62 436.42 110.29 439.04 113.5 438.3 114.43 439.69 117.6 438.52 119.34 438.85 120 440.8 121.08 443.5 120.05 446.38 120.35 447.35 119.95 449.04 123.7 450.29 124.58 450.25 127.51 451.18 129.44 453.71 129.22 454.8 128.12 456.46 128.53 457.78 127.5 459.85 128.02 460.6 126.36 462.43 127.19 462.97 126.4 465 126.02 466.72 125.1 466.42 124.14 469.27 122.75 473.25 122.17 475.03 122.8 476.71 122.7 477.57 123.62 479.42 124.09 481.65 123.79 482.05 125.12 483.21 126.54 485.8 126.79 487.22 126.54 489.69 126.69 491.69 125.05 Z" id="32020310"/>
<path d="M 297.98 304.06 297.78 304.82 295.13 305.34 293.44 306.14 291.99 309.57 290.84 311.58 292.81 311.99 292.04 313.4 290.35 314.04 289.58 317.72 288.75 319.34 288.35 321.63 286.3 323.76 283.19 324.06 282.95 326.08 284.9 327.59 287.74 330.61 288.28 336.71 289.21 338.93 289.15 340.06 288.04 341.12 287.53 343.84 285.75 344.65 284.62 344.38 281.76 344.94 279.03 347.56 278.5 349.1 276.8 350.99 277.08 352.5 277.91 353.35 278.57 355.65 278.91 358.74 279.41 359.95 276.91 364.16 275.77 364.71 272.09 363.67 270.6 362.13 268.79 361.84 266.58 360.37 265.49 360.72 262.05 359.49 259.93 359.08 257.91 359.16 255.88 358.34 255.5 359.45 254 361.49 253.04 361.44 254.17 358.45 254.12 356.97 254.67 353.52 256.36 348.09 256.72 345.92 256.26 343.85 255.53 342.84 252.8 341.13 252.37 341.41 249.35 338.89 248.06 338.83 247.72 335.47 246.11 334.19 245.26 332.28 243.34 331.43 241.89 330.11 241.08 328.26 239.87 328.25 235.68 327.52 235.35 326.96 236.53 324 236.12 321.61 235.55 320.38 236.22 318 234.7 313.97 235.15 312.85 235.04 309.02 234.21 301.72 235.92 299.29 236.1 297.82 238.24 297.43 240.52 298.82 240.65 300.82 241.88 301.22 242.57 302.64 242.79 305.44 243.84 307.18 244.23 308.67 247.13 309.6 249.12 312.56 250.88 313.22 253.27 312.93 254.48 312.07 255.93 312.18 257.49 314.56 260.77 313.82 262.82 312.29 263.58 309.41 262.83 308.2 263.21 306.13 264.49 304.51 263.99 301 264.12 299.89 263.39 298.67 263.9 297.54 265.33 297.47 266.29 296.81 265.27 295.06 264.87 293.18 265.16 291.74 267.26 289.82 267.41 288.86 269.38 287.69 268.51 286.5 266.39 285.39 266.48 281.93 265.97 280.33 267.29 278.46 270.74 277.4 271.86 275.16 270.63 271.43 271.77 269.71 272.74 269.28 272.76 267.69 274.48 266.89 275.25 265.23 277.47 264.79 281.11 263.38 283.71 262.86 283.86 265.15 286.21 265.82 289.1 268.64 290.06 270.07 292.93 270.91 295.94 272.68 297.97 276.96 298.05 278.06 297.01 280.71 297.7 283.64 298.44 284.67 298.12 286.48 299.04 289.06 300.18 290.82 302.13 291.07 300.81 293.12 301.41 294.94 301.22 297.27 298.69 297.51 297.61 298.04 298.33 300.59 297.98 304.06 Z M 368.25 118.43 366.89 119.85 366.01 122.03 364.18 124.92 363.22 127.48 361.77 130.43 359.52 134.31 357.92 139.86 354.99 146.32 353.45 147.22 351.61 148.9 350.84 150.45 349.92 154.34 349.92 157.81 350.28 159.61 351.15 161.36 353.52 163.55 352.75 166.75 352.19 167.49 349.35 169.65 344.25 175.54 341.14 180.21 340.05 181.49 338.58 184.08 337.17 187.69 336.31 192.09 335.31 194.98 333.75 197.63 332.15 200.9 330.14 203.28 327.21 205.79 324.25 206.88 323.42 206.54 322.64 208.64 320.63 209.96 321.24 211.67 322.13 212.24 322.8 214.81 324.62 218.1 324.42 221.53 325.3 222.9 325.42 225.44 323.86 227.06 321.43 226.42 319.44 227.22 316.71 227.61 317.89 229.72 317.4 230.29 315.17 230.67 313.62 229.67 312.09 229.42 311.21 233.13 311.16 235.13 309.79 237.72 309.65 239.58 307.2 242.49 305.57 243.14 303.6 246.85 301.47 246.36 300.24 248.03 298.41 247.97 297.52 246.6 295.59 247.05 294.57 244.97 292.22 245.54 286.48 244.58 283.43 244.89 279.59 244.52 277.82 244.43 275.21 243.79 272 244.78 269.61 243.09 267.18 244.31 267.19 245.97 264.64 247.38 263.23 251.19 261.28 253.19 259.41 251.78 258.49 252.18 256.36 250.48 255.03 250.91 253.63 249.16 252.73 247.09 249.78 246.14 249.71 245.32 247.9 242.74 246.11 242.65 245.01 245.67 244.23 245.66 242.69 244.26 240.34 242.7 239.87 241.56 240.27 240.15 239.53 239.75 236.4 239.79 234.84 240.37 233.29 240.05 232.61 241.38 231.16 241.55 227.91 243.09 227.78 246.92 218.53 242.14 219.24 241.1 220.73 241.79 221.56 241.17 222.59 236.23 223.24 235.23 221.04 234.02 221.29 232.37 222.64 232.17 223.55 229.94 225 229.42 225.21 227 226.93 226.79 227.86 225.34 230.25 223.19 231.16 220.68 226.58 216.84 222.21 213.84 219.78 212.74 215.95 211.73 214.92 211.77 209.41 213.54 208.1 209.65 208.19 208.58 209.18 206.66 209.93 203.79 210.27 201.36 210.43 196.57 211.41 194.2 210.43 192.56 210.57 190.11 209.98 188.38 208.54 186.84 205.01 184.82 204.67 182.13 202.89 179.18 201.77 178.78 200.19 174.9 198.92 173.93 198.79 170.53 199.49 168.41 199.4 167.21 200.23 166.14 200.72 159.94 199.71 157.46 199.39 154.97 198.37 154.29 197.78 150.92 198.87 149.32 199.16 146.19 201.61 143.75 202.19 139.78 201.78 137.24 201.85 132.9 201.11 131.29 201.38 128.34 202.13 127.09 203.91 126.22 205.86 123.96 205.67 122.71 206.21 120.43 207.86 117.87 209.64 116.03 210.11 114.64 213.74 112.41 216.35 111.23 216.66 108.79 217.16 107.9 216.46 104.81 217.37 103.95 217.23 102.34 218.26 99.97 217.38 96.33 218.8 93.31 218.9 90.84 219.49 88.03 220.48 86.82 220.04 86.09 221.45 84.93 226.85 82.28 228.54 80.63 230.58 80.74 232.63 79.07 231.97 82.61 232.19 84.2 233.55 84.24 236.67 82.53 237.62 85.11 240.15 87.43 245.71 83.96 248.27 82.07 248.27 81.02 250.3 80 252.38 80.56 253.38 79.9 253.18 77.87 251.66 74.36 256.73 73.94 260.53 74.81 261.98 74.46 263.83 74.69 265.32 73.8 267.58 73.5 268.84 72.25 268.4 70.03 268.61 68.36 271.76 61.01 270.89 59.84 272.14 57.2 272.7 54.37 273.43 53.99 273.16 51.76 274.21 49.62 274.6 44.44 275.71 43.08 277.24 43.15 277.81 40.57 279.4 39.73 280.46 37.32 281.92 35.81 283.6 35.04 285.85 34.55 286.14 33.77 287.61 33.23 290.32 30.73 288.88 26.45 288.71 24.21 290.08 22.22 289.1 21 289.59 20.01 291.49 19.29 293.32 19.3 295.2 16.73 295.8 14.57 296 12.05 297.07 11.34 297.7 9.98 299.07 9.45 300.12 7.05 301.2 6.69 302.69 4.28 303.35 2.67 304.36 1.9 306.86 1 307.98 2.26 309.41 2.87 313.66 7.41 315.46 7.55 318.77 10.89 320.19 11.33 321.28 12.28 322.84 12.29 324.65 12.95 323.03 16.77 323.11 18.36 322.53 19.73 322.05 23.28 320.49 24.85 318.13 26.46 318 29.71 318.23 31.42 316.79 32.41 315.25 32.83 312.77 35.59 312.92 37.64 313.51 39.95 313.55 42.77 315.53 44.58 316.94 44.74 318.38 45.99 319.53 47.96 320.86 49.18 322.14 51.62 323.02 52.26 321.83 53.6 321.84 54.45 323.38 56.95 321.78 59.37 320.73 63.65 320.64 65.38 321.59 66.17 323.17 65.81 324.09 66.9 324.65 68.49 324.83 70.53 326.15 73.96 326.69 77.08 327.45 78.64 327.91 80.83 329.21 82.54 328.66 85.11 330.24 86.34 330.23 87.05 332.23 90.22 332.74 93.54 333.31 94.63 334.87 95.8 339.17 100.52 340.52 102.92 340.7 105.35 341.29 107.22 341.38 110.31 341.83 111.2 345 111.2 347.04 110.73 347.8 110.09 350.81 108.78 351.7 110.03 353.7 111.83 354.56 112.13 355.25 113.44 357.3 114.16 358.27 113.35 359.19 113.97 361.71 112.75 363.67 112.47 365.85 112.85 367.86 114.9 367.51 116.65 368.25 118.43 Z" fill-rule="evenodd" id="32020320"/>
<path d="M 209.41 213.54 214.92 211.77 215.95 211.73 219.78 212.74 222.21 213.84 226.58 216.84 231.16 220.68 230.25 223.19 227.86 225.34 226.93 226.79 225.21 227 225 229.42 223.55 229.94 222.64 232.17 221.29 232.37 221.04 234.02 223.24 235.23 222.59 236.23 221.56 241.17 220.73 241.79 219.24 241.1 218.53 242.14 227.78 246.92 227.91 243.09 231.16 241.55 232.61 241.38 233.29 240.05 234.84 240.37 236.4 239.79 239.53 239.75 240.27 240.15 239.87 241.56 240.34 242.7 242.69 244.26 244.23 245.66 245.01 245.67 246.11 242.65 247.9 242.74 249.71 245.32 249.78 246.14 252.73 247.09 253.63 249.16 255.03 250.91 256.36 250.48 258.49 252.18 259.41 251.78 261.28 253.19 263.23 251.19 264.64 247.38 267.19 245.97 267.18 244.31 269.61 243.09 272 244.78 275.21 243.79 277.82 244.43 279.59 244.52 280.02 246.44 281.68 248.81 282.39 252.33 283.77 256.56 284.58 256.78 284.87 259.46 283.64 261.69 283.71 262.86 281.11 263.38 277.47 264.79 275.25 265.23 274.48 266.89 272.76 267.69 272.74 269.28 271.77 269.71 270.63 271.43 271.86 275.16 270.74 277.4 267.29 278.46 265.97 280.33 266.48 281.93 266.39 285.39 268.51 286.5 269.38 287.69 267.41 288.86 267.26 289.82 265.16 291.74 264.87 293.18 265.27 295.06 266.29 296.81 265.33 297.47 263.9 297.54 263.39 298.67 264.12 299.89 263.99 301 264.49 304.51 263.21 306.13 262.83 308.2 263.58 309.41 262.82 312.29 260.77 313.82 257.49 314.56 255.93 312.18 254.48 312.07 253.27 312.93 250.88 313.22 249.12 312.56 247.13 309.6 244.23 308.67 243.84 307.18 242.79 305.44 242.57 302.64 241.88 301.22 240.65 300.82 240.52 298.82 238.24 297.43 236.1 297.82 235.92 299.29 234.21 301.72 235.04 309.02 235.15 312.85 234.7 313.97 236.22 318 235.55 320.38 236.12 321.61 236.53 324 235.35 326.96 235.68 327.52 239.87 328.25 241.08 328.26 241.89 330.11 243.34 331.43 245.26 332.28 246.11 334.19 247.72 335.47 248.06 338.83 244.48 338.33 240.92 338.95 237.84 339.86 231.28 339.86 227.11 339.65 223.04 340.13 220.9 341.84 220.18 343.7 220.7 347.27 220.79 349.82 220.35 353.17 220.75 358.13 219.78 360.24 218.34 360.6 213.87 360.65 210.28 360.06 206.44 358.49 204.49 358.92 204.41 361.11 203.88 364.19 204.22 364.8 203.37 367.51 202.43 368.88 200.78 370.2 199.57 370.66 198.63 370.64 196.81 369.68 195.98 368.7 194.97 366.02 195.23 361.11 195.85 358.51 197.36 354.81 198.8 352.43 199.68 349.75 199.85 348.1 199.12 347.02 191.29 347.38 188.79 347.74 186.55 347.39 184.68 345.46 181.27 345.92 179.94 347.51 178.48 350.36 177.41 354.16 177.37 355.99 177.81 358.76 175.76 360.71 172.29 360.36 170.69 358.98 169.05 355.76 167.56 351.72 166.64 348.44 165.71 346.79 161.26 342.95 156.54 340.21 155.79 340.09 152.51 340.94 147.2 344.61 143.8 347.89 139.83 350.17 137.28 352.25 126.92 362.1 122.92 364.76 118.91 368.7 115.31 370.63 109.99 370.49 106.58 371.05 105.2 369.26 100.3 368.23 97.38 368.15 94.26 369.54 93.11 369.59 92.02 365.57 91.33 363.88 92.26 358.18 92.98 357.06 93.44 354.02 94.82 349.93 92.46 349.4 91.28 348.62 90.12 346.4 87.66 345.7 86.35 344.88 84.7 344.74 82.56 346.1 80.57 345.05 79.68 340.02 77.74 338.13 74 338.19 72.36 336.59 70.73 337.12 69.68 336.31 68.07 336.46 66.04 337.16 64.52 339.28 61.88 340.45 58.69 339.88 55.63 341.05 54.36 341.23 54.08 339.64 53.02 338.6 52.12 336.93 52.06 334.02 50.71 331.49 51.33 329.48 50.23 327.78 49.23 323.65 49.71 321.54 49.41 319.64 47.88 317.67 48.01 315.15 43.17 309.96 42.75 308.44 40.87 306.32 38.67 306.52 36.53 305.56 33.4 306.24 30.93 306.08 28.95 305.39 27.25 305.48 27.1 302.61 25.89 300.29 25.01 299.84 24.47 298.2 25.13 295.78 26.92 294.48 27.85 293.15 29.92 292.01 35.15 292.21 37.01 292.91 40.54 292.65 41.55 293.13 42.69 292.56 44.73 292.34 46.92 291.7 47.87 292.03 50.87 291 51.92 289.89 54.29 289.16 56.94 290.12 56.16 287.62 54.81 285.63 54.99 284.95 53.51 282.94 53.58 281.56 54.35 279.81 54.31 278.14 53 276.33 51.51 272.92 51.68 271.01 53 268.83 52.89 263.7 54.51 261.51 55.88 260.27 56.26 258.94 57.95 258.03 59.08 256.25 60.04 256.35 63.06 255.6 63.92 253.38 65.3 252 63.68 248.98 62.1 244.46 61.17 243.16 63.59 241.99 65.91 237.91 65.21 236.11 64.68 231.35 66.25 231.18 68.77 229.04 68.78 227.99 70.31 227.34 71.37 226.03 71.59 224.18 70.75 222.24 71.29 221.16 71 219.63 71.64 218.3 71.28 217.19 72.66 216.09 72.7 215.15 74.23 213.67 74.21 211.21 75.3 210.28 75.39 206.83 76.33 204.33 75.95 203 77.22 201.21 77.8 198.52 77.94 191.72 78.39 189.48 79.64 188.34 81.03 185.8 80.63 184.19 81.15 182.73 80.77 180.91 81.46 179.38 82.57 178.44 82.27 176.9 83.04 175.68 84.79 175.23 85.49 173.9 87.64 171.69 89.61 170.72 93.72 170.94 95.26 170.7 95.5 167.97 97.03 168.14 98.07 166.88 96.91 163.11 97.05 161.7 97.79 160.86 96.45 158.06 96.89 155.86 95.32 154.73 94.05 151.52 94.55 149.91 92.68 147.28 91.95 146.82 95.49 144.89 97.76 144.66 99.36 143.86 102.5 143.11 106.01 141.83 106.58 141.19 108.78 140.89 108.47 139.84 110.52 137.4 110.78 135.98 113.19 133.03 115.96 133.51 118.82 132.35 120.11 131.09 121.34 131.04 124.37 129.82 125.63 130.43 126.2 132.32 127.82 132.14 129.36 134.53 130.82 137.42 133.29 138.24 133.46 140.54 135.17 141.12 135.83 142.98 139.74 145.94 142.75 146.93 143.81 149.68 144.56 150.66 146.32 151.14 149.16 155.5 149.26 156.11 153.16 155.68 157.95 155.71 158.54 156.39 158.06 158.98 158.63 159.81 160.48 167.26 161.56 168.29 161.56 169.78 163.79 173.05 165.36 176.34 166.94 177.41 167.88 179.93 168.51 184 168.1 185.02 168.3 186.96 169.8 188.62 171.27 189.49 172.1 195.95 172.58 197.26 172.71 199.41 174.21 202.44 175 205.25 176.07 205.93 177.92 209.4 177.86 211.13 176.39 213.12 176.02 215.5 176.74 216.86 175.31 220.06 175 222.37 173.45 223.47 171.97 225.88 173.59 228.22 174.53 230.34 175.4 231.29 175.65 233.97 177.82 236.96 180.08 233.93 183.18 232.02 186.92 230.25 189.28 229.69 191.5 229.77 194.76 230.82 197.01 230.88 202.85 230.04 204.84 229.24 206.25 228.01 206.29 218.46 207.44 215.23 209.41 213.54 Z" id="32020330"/>
<path d="M 159.55 634.62 160.66 636.74 160.36 642.36 161.05 643.91 160.77 647.63 159.31 652.12 158.29 653.74 156.89 657.77 156.11 658.8 154.64 659.26 148.78 659.9 146.89 660.73 144.96 661.04 142.57 662.05 140.12 662.59 140.11 663.14 142.56 670.4 143.79 672.41 143.29 675.3 143.28 677.15 142.17 682.11 142.93 684.53 143.13 686.9 146.25 690.89 147.06 693.01 147.22 696.09 146.29 699.19 145.61 700.23 143.88 701.46 142.66 703.72 141.97 707.69 139.91 710.5 138.11 711.27 136.67 714.05 137.36 715.05 140.14 717.04 142.08 720.57 141.17 723.61 139.29 726.38 139.02 727.33 139.99 730.52 139.97 731.91 138.51 734.84 139.01 736.75 138.92 738.3 137.59 739.46 136.73 741.69 137.22 743.6 136.97 744.94 139.25 744.34 140.15 746.96 139.11 748.74 139.09 749.83 136.09 752.28 133.36 754.02 128.85 758.08 125.72 760.58 122.15 761.76 115.95 762.15 112.66 761 109.96 760.73 108.08 761.05 104.59 763.79 99.2 767.03 98.22 766.88 95.47 765.57 92.46 764.49 88.79 765.02 85.18 764.03 83.11 766.27 78.75 769 75.88 767.28 75.34 765.61 75 765.2 70.15 762.38 67.72 760.29 61.19 755.97 59.09 753.69 55.23 750.74 51.44 747.5 47.16 744.72 43.37 741.39 41.43 738.68 39.34 737.41 36.51 734.35 33.52 729.45 32.09 727.38 30.06 723.52 28.32 720.83 26.63 719.21 23.56 715.1 22.71 713.28 20.91 710.41 20.23 706.09 19.4 703.45 16.29 694.81 15.2 690.87 14.6 687.67 13.16 687.24 12.69 684.51 11.52 680.04 10.26 672.32 11.49 670.57 9.32 657.15 7.48 649.65 5.21 649.66 3.62 642.07 1.3 634.49 1 630.27 1.03 626.73 1.33 624.96 2.16 622.91 2.03 621.63 4.73 619.86 8.15 613.73 9.01 611.69 9.4 604.1 7.52 596.51 5.9 593.13 5.76 588.91 5.41 587.64 7.16 582.02 5.9 578.83 5.39 572.81 5.19 566.13 6.87 558.54 9.33 550.95 10.25 548.74 14.73 539.43 17.51 534.81 21.86 528.39 22.96 527.48 24.28 526.51 28.13 517.16 29.13 515.18 30.58 513.39 33.68 510.41 37.59 510.13 44.67 508.73 44.48 506.34 45.32 506.26 50.74 504.16 52.93 502.6 55.47 501.31 58.13 500.44 61.96 499.49 62.65 498.66 64.34 498.87 66.43 496.55 69.11 492.51 69.98 490.41 71.04 489.24 73.1 489.59 70.73 495.54 70.37 497.22 70.82 498.85 70.55 504.21 72.6 505.39 74.16 507.13 74.38 510.12 75.93 510.14 76.57 510.83 78.2 511.2 78.21 513.2 78.81 515.31 80.5 515 81.99 516.74 83.74 517.2 85 518.56 85.35 519.93 86.19 520.76 86.78 522.95 84.09 527.69 84.14 529.63 84.86 530.81 84.93 532.53 85.96 533.73 86.2 535.41 87.1 536.06 87.38 539.35 89.54 541.02 90.81 540.74 94.85 538.86 97.33 536.48 100.24 535.11 103.89 536.73 107.71 535.97 107.71 537.58 106.31 538.61 106.61 541.4 105.92 542.6 105.95 545.3 106.61 546.29 108.67 547.51 109.57 549.01 109.86 550.6 111.08 551.4 111.73 552.79 113.1 557.76 114.9 558.97 116.01 558.37 117.71 558.28 120.14 559.04 124.09 558.65 127.51 558.76 127.45 560.65 126.91 561.76 127.27 563.28 128.46 564.94 129.59 569.09 129.16 571.54 129.71 572.1 130.36 574.64 131.07 575.26 130.93 578.9 131.19 582.52 130.68 583.56 132.69 586.67 132.44 587.66 133.24 588.51 132.23 590.02 132.06 592.25 133.64 594.24 135.78 595 138.23 595.22 140.53 594.97 141.34 597.18 143.81 597.72 145.62 597.66 146.22 598.23 148.08 597.21 153.22 600.53 153.19 606.1 153.43 609.06 152.78 609.88 152.38 612.22 151.8 612.73 151.7 616.21 153.48 617.4 155 620.07 156.12 620.34 156.38 621.77 154.76 625.98 154.11 626.21 153.84 628.43 153.19 629.13 152.98 631.09 155.08 632.55 156.11 632.2 158.28 633.17 159.55 634.62 Z" id="32020340"/>
<path d="M 238.06 554.61 239.15 555.95 240.27 558.21 242.55 559 244.49 560.66 245.79 563.19 246.99 563.85 248.08 565.41 250.66 566.32 251.79 564.69 255.11 564.23 256.65 563.38 259.47 563.59 262.88 565.65 264.61 565.31 266.94 565.44 268.27 565.97 273.34 569.08 276.21 570.46 278.12 574.2 280.81 571.5 283.76 572.3 286.17 572.28 289.48 574.46 289.97 575.09 291.11 578.54 292.71 586.18 292.52 589.08 293.52 590.52 295.54 591.7 297.3 593.5 300.19 594.28 300.25 597.18 301.5 601.08 303.27 602.83 309.35 605.21 309.74 610.91 313.69 623.01 315.55 625.35 318.69 632.85 318.88 634.99 317.92 635.82 317.47 637.1 317.47 640.73 317.2 644.03 316.19 645.22 316.88 648.54 317.67 651.19 318.41 657.64 319.8 662.16 322.43 667.82 325.45 671.18 324.28 673.12 324.83 675.25 323.48 677.81 321.72 678.58 320.75 682.14 319.41 684.72 320.2 687.63 320.67 691.16 320.02 692.48 319.92 694.18 321.28 698.54 319.25 699.58 318.07 700.73 316.92 703.6 316.35 706.58 314.34 708.75 312.28 709.85 310.73 711.33 310.38 714.6 309.42 718.02 309.18 720.31 305.67 723.2 305.03 724.35 303.88 723.66 301.89 721.55 301.09 721.43 299.85 719.69 296.61 717.44 294.08 716.19 290.08 713.43 286.65 714.91 283.96 716.34 279.29 717.24 278.83 718.91 278.16 719.25 276.84 721.25 276.79 723.25 275.26 728.64 271.76 731.86 270.71 732.23 271.7 734.97 271.46 738.73 270.3 741.02 270.14 742.56 268.23 746.68 268.22 748.79 267.8 749.63 266.11 750.78 264.96 752.49 263.19 753.86 262.35 752.52 261.27 748.89 260.09 746.23 258.97 744.44 257.23 740.69 255.69 739.8 254.88 738.68 253.88 738.45 251.78 736.81 250.79 736.64 248.97 734.2 245.27 733.32 243.64 732.28 242.19 730.34 239.18 730.04 236.89 728.75 235.99 729 234.28 728.4 231.35 727.96 229.49 728.94 225.98 727 224.06 726.23 222.72 724.86 219.79 724.53 217.63 723.67 215.09 724.17 213.03 725.07 210.16 727.76 209.48 728.07 207.11 727.67 204.4 727.93 203.32 729.11 202.13 729.52 200.67 730.78 199.74 734.32 199.73 735.92 200.57 740.3 200.5 741.77 199.66 742.79 197.85 742.17 196.14 740.73 191.29 740.69 190.31 740.27 189.45 737.32 189.43 733.19 188.62 732.48 186.9 732.33 184.99 732.82 183.8 734.09 183.37 735.71 182.59 736.61 181.7 740.35 181.49 743.52 180.73 745.43 179.95 746.23 176.24 748.09 171.58 748.33 168.76 749.2 165.14 749.88 161.4 749.88 159.36 750.98 154.1 750.69 148.42 749.07 145.13 749.12 144.21 749.73 140.51 750.35 139.09 749.83 139.11 748.74 140.15 746.96 139.25 744.34 136.97 744.94 137.22 743.6 136.73 741.69 137.59 739.46 138.92 738.3 139.01 736.75 138.51 734.84 139.97 731.91 139.99 730.52 139.02 727.33 139.29 726.38 141.17 723.61 142.08 720.57 140.14 717.04 137.36 715.05 136.67 714.05 138.11 711.27 139.91 710.5 141.97 707.69 142.66 703.72 143.88 701.46 145.61 700.23 146.29 699.19 147.22 696.09 147.06 693.01 146.25 690.89 143.13 686.9 142.93 684.53 142.17 682.11 143.28 677.15 143.29 675.3 143.79 672.41 142.56 670.4 140.11 663.14 140.12 662.59 142.57 662.05 144.96 661.04 146.89 660.73 148.78 659.9 154.64 659.26 156.11 658.8 156.89 657.77 158.29 653.74 159.31 652.12 160.77 647.63 161.05 643.91 160.36 642.36 160.66 636.74 159.55 634.62 161.85 633.29 163.64 632.93 163.69 630.12 164.66 626.67 167.15 625.69 168.22 623.41 169.92 621.37 174.33 618.81 174.59 617.93 176.46 616.32 178.09 615.86 177.84 614.69 176.71 613.22 176.96 610.63 175.24 606.69 176.01 604.1 175.19 599.49 177.02 599.15 177.23 597.91 174.84 596.94 174.84 595.91 175.86 595.11 177.96 596.92 179.44 596.51 179.83 595.38 179.94 591.78 179.62 589.13 177.66 585.56 179.54 584.46 180.11 583.39 179.57 582.24 180.64 580.32 182.95 579.89 184.58 578.66 188.56 577.35 190.53 577.66 191.45 578.51 196.51 577.18 199.25 577.54 201.05 579.33 201.98 578.25 203.03 575.97 202.79 574.55 203.54 572.35 203.55 570.92 204.24 568.54 205.45 567.23 206.39 562.34 206.08 559.92 207.88 558.34 208.27 556.74 209.88 556.13 210.39 553.26 212.11 551.88 215.92 551.83 217.49 553.89 218.12 555.29 219.6 555.18 221.48 554.21 223.83 556.11 227.12 555.3 229.81 557.03 234.61 555.54 236.52 554.59 238.06 554.61 Z" id="32020350"/>
<path d="M 248.06 338.83 249.35 338.89 252.37 341.41 252.8 341.13 255.53 342.84 256.26 343.85 256.72 345.92 256.36 348.09 254.67 353.52 254.12 356.97 254.17 358.45 253.04 361.44 254 361.49 255.5 359.45 255.88 358.34 257.91 359.16 259.93 359.08 262.05 359.49 265.49 360.72 266.58 360.37 268.79 361.84 270.6 362.13 272.09 363.67 275.77 364.71 275.85 365.98 275.16 369.01 275.44 372.25 272.76 374.06 271.91 375.23 271.89 379.28 273.3 381.46 275.78 383.16 276.24 385.84 276.95 386.77 275.89 389.06 275.34 391.24 273.65 392.99 272.74 392.45 269.46 392.41 265.14 397.44 265.16 399.72 264.63 401.2 265.41 403.16 267.27 403.59 269.25 403.56 271.86 402.95 272.91 403.66 274.34 405.69 274.56 406.67 274.53 410.31 276.48 412.86 278.7 414.68 280.92 414.41 286.26 412.75 287.56 412.7 288.89 411.88 291.43 412.35 292.25 414.53 295.98 419.42 297.88 419.73 299.78 421.29 301.62 421.49 303.29 420.59 304.44 420.54 307.61 422.06 306.76 425.44 307.2 426.73 306.21 429.7 307.12 430.28 306.94 432.59 307.76 434.11 308.56 437.62 310.32 438.7 310.75 440.18 310.71 442.02 308.68 444.74 307.5 447.34 309.06 449.72 310.31 449.79 309.95 453.58 312.32 456.46 312.98 460.1 311.48 462.9 313.05 465.62 313.07 466.98 314.89 468 316.61 467.94 319.51 470.5 319.9 471.69 319.55 473.65 320.05 475.86 320.98 476.82 321.99 480 321.18 481.7 320.67 484.11 321.08 485.68 320.44 487.2 319.24 487.33 319.03 488.82 316.83 490.98 319 492.32 319.97 493.97 320.15 495.66 318.91 497.44 317.9 498.13 316.52 500.2 316.64 501.8 314.69 503.61 313.58 505.28 314.06 507.13 313.5 508.71 313.16 511.18 313.46 512.49 313.07 515.13 312.47 522.1 311.56 525.15 312.11 528.64 314.2 533.11 315 534 315.91 536.77 316.7 540.22 316.82 542.19 318 543.73 318.99 544.09 321.75 546.66 324.92 548.37 326.82 550.99 328.46 556.24 328.99 559.71 328.79 561.63 323.27 567.36 315.99 575.63 308.31 581.11 302.04 591.48 300.5 593.32 300.19 594.28 297.3 593.5 295.54 591.7 293.52 590.52 292.52 589.08 292.71 586.18 291.11 578.54 289.97 575.09 289.48 574.46 286.17 572.28 283.76 572.3 280.81 571.5 278.12 574.2 276.21 570.46 273.34 569.08 268.27 565.97 266.94 565.44 264.61 565.31 262.88 565.65 259.47 563.59 256.65 563.38 255.11 564.23 251.79 564.69 250.66 566.32 248.08 565.41 246.99 563.85 245.79 563.19 244.49 560.66 242.55 559 240.27 558.21 239.15 555.95 238.06 554.61 237.17 553.96 236.07 551.47 235.5 548.51 234.1 547.2 234.36 546.51 236.9 543.98 234.86 541.72 233.48 541.58 232.81 539.9 232.77 538.18 231.22 536.95 228.51 538.04 226.88 537.32 222.59 534.87 221.25 534.53 217.7 532.76 215.38 532.34 214.48 531.26 213.73 529.34 212.68 527.79 210.11 527.31 208.35 526.53 207.14 525.12 205.45 524.19 205.04 522.5 203.36 520.56 204 518.63 203.3 518.04 203.61 515.96 201.32 515.03 199.96 515.12 198.35 514.48 198.42 510.26 199.11 509.46 199.05 508.03 200.62 503.93 200.47 501.71 199.87 500.81 200.56 498.45 203.79 495.72 203.08 493.38 202.35 488.92 200.77 487.51 199.45 487.79 197.15 487.21 195.3 485.04 194.47 482.76 195.74 481.21 195.77 477.89 196.55 477.05 197.64 474.4 198.08 472.23 197.21 470.47 196.84 467.06 197.5 465.43 200.32 462.98 201.86 459.75 201.46 456.46 200.86 455.36 200.24 451.69 198.82 450.38 198.41 447.9 196.97 446.36 195.39 443.73 194.88 442.1 196.45 441.11 197.88 439.61 197.98 438.44 199.39 437.09 201.43 433.83 201.62 432.48 202.97 431.18 202.87 429.52 204.2 428.19 203.85 425.93 203.02 424.73 202.8 423.25 203.21 421.87 202.89 418.51 203.35 416.6 202.47 414.97 202.26 411.85 201.21 410.76 201.65 408.86 201.52 407.51 202.66 405.33 204.44 403.7 204.28 401.51 202.98 400.97 203.01 400.01 200.72 397.76 200.5 396.57 198.83 395.44 196.29 391.15 195.86 389.15 194.9 388.13 198.2 386.53 198.25 385.21 200.33 381.88 199.23 378.7 197.76 378.52 195.52 376.61 197.6 375.34 199.02 373.03 199.57 370.66 200.78 370.2 202.43 368.88 203.37 367.51 204.22 364.8 203.88 364.19 204.41 361.11 204.49 358.92 206.44 358.49 210.28 360.06 213.87 360.65 218.34 360.6 219.78 360.24 220.75 358.13 220.35 353.17 220.79 349.82 220.7 347.27 220.18 343.7 220.9 341.84 223.04 340.13 227.11 339.65 231.28 339.86 237.84 339.86 240.92 338.95 244.48 338.33 248.06 338.83 Z" id="32020360"/>
<path d="M 517.83 416.96 517.98 417.57 517.27 420.64 517.57 421.39 516.39 426.92 515 430.88 514.29 435.29 514.58 439.91 513.69 442.95 512.25 445.05 512.45 448.46 512.41 452.7 512.71 455.46 511.51 459.88 511.23 462.32 511.45 464.41 514.91 472.41 515.84 475.5 517.08 478.13 517.49 481.27 519.05 484.5 520.56 487 518.27 490.43 517.46 492.86 517.11 495.57 515.53 497.05 513.13 498.12 513.64 499.57 513.61 501.35 511.72 504 511.47 506.21 510.91 507.19 511.86 510.15 511.48 511.62 510.3 512.41 507.72 512.99 504.34 515.26 503.78 518.29 502.67 520.35 502.46 523.06 501.18 524.65 500.33 526.54 500.16 529.98 499.6 532.03 498.19 535.02 497.99 537.56 496.34 539.29 496.21 540.87 494.18 541.65 493.43 542.66 492 543.13 491.64 543.92 489.35 544.89 487.7 546.82 485.21 549 482.35 548.06 481.8 548.91 480.15 549.12 478.6 550.02 476.61 549.91 476.05 550.33 471.89 551.14 470.17 551.99 466.18 552.65 464.1 552.53 462.47 549.78 459.64 547.31 457.9 547.54 455.12 547.05 452.87 545.72 451.52 543.23 450.77 542.67 449.86 540.82 446.21 538.99 444.98 536.46 442.37 535.65 441.08 536.1 440.12 535.63 435.24 534.21 433.66 533.45 431.61 533.56 431.04 531.68 429.81 530.84 428.89 531.34 423.7 532.08 421.81 533.65 419.32 531.03 416.45 530.29 415.15 529.63 412.84 527.7 411.84 526.32 410.7 525.98 409.42 524.78 406.91 524.19 405.67 525.13 403.06 525.7 402.15 526.94 400.12 526.91 397.54 523.87 395.91 524.9 392.33 525.93 387.63 528.24 384.13 528.13 380.48 529.6 378.93 532.22 376.65 533.58 374.82 535.54 371.83 539.57 369.61 540.18 360.23 542.22 354.26 544.84 351.9 546.27 345.88 551.05 343.04 554.24 342.36 559.18 341.54 560.23 339.43 561.91 336.98 561.88 334.9 562.25 328.79 561.63 328.99 559.71 328.46 556.24 326.82 550.99 324.92 548.37 321.75 546.66 318.99 544.09 318 543.73 316.82 542.19 316.7 540.22 315.91 536.77 315 534 314.2 533.11 312.11 528.64 311.56 525.15 312.47 522.1 313.07 515.13 313.46 512.49 313.16 511.18 313.5 508.71 314.06 507.13 313.58 505.28 314.69 503.61 316.64 501.8 316.52 500.2 317.9 498.13 318.91 497.44 320.15 495.66 319.97 493.97 319 492.32 316.83 490.98 319.03 488.82 319.24 487.33 320.44 487.2 321.08 485.68 320.67 484.11 321.18 481.7 321.99 480 320.98 476.82 320.05 475.86 319.55 473.65 319.9 471.69 319.51 470.5 316.61 467.94 314.89 468 313.07 466.98 313.05 465.62 311.48 462.9 312.98 460.1 312.32 456.46 309.95 453.58 310.31 449.79 309.06 449.72 307.5 447.34 308.68 444.74 310.71 442.02 310.75 440.18 310.32 438.7 308.56 437.62 307.76 434.11 306.94 432.59 307.12 430.28 306.21 429.7 307.2 426.73 306.76 425.44 307.61 422.06 304.44 420.54 305.53 417.28 305.35 414.94 306 414.76 306.16 412.89 307 411.8 306.15 410.16 306.96 407.14 308.63 404.85 310.35 405.54 312.1 403.89 314.57 403.61 314.49 401.76 313.72 400.34 312.15 399.24 312.64 396.84 314.04 397.24 316.3 394.84 318.31 394.22 319.17 392.58 318.64 391.03 319.44 388.67 320.63 387.61 320.68 386.68 321.96 386.36 322.69 384.12 324.83 387.62 326.49 389.43 328.73 389.98 328.86 389.07 339.92 392.44 350.51 396.38 349.36 397.25 348.96 398.32 347.41 397.75 343.56 399.15 343.64 398.1 341.39 397.14 340.3 399.07 340.44 400.62 339.21 402.65 340.75 403.2 341.68 404.23 343.61 404.99 343.84 406.86 343.28 408.96 343.91 410.61 343.38 412.48 345.08 412.19 346.77 413.15 347.95 414.84 349.32 415.59 354.42 415.58 356.38 414.21 356.51 415.44 356.16 419.36 356.67 420.82 357.94 422.13 361.53 426.79 361.09 427.81 362.18 429.8 361.59 431.23 362.56 433.19 362.4 434.06 364.33 437.03 366.52 435.9 367.82 434.08 368.98 433.12 372.49 431.83 374.16 432.44 376 434.19 377.07 433.96 378.65 435.04 382.31 434.61 386.12 431.7 387.72 431.59 388.53 432.15 387.74 434.06 387.86 436.59 385.6 439.22 384.72 440.88 385.17 445.07 387.41 445.2 389.05 447.57 389.86 450.09 391.14 450.58 391.23 452.16 392.4 453.65 393.81 454.53 396.69 455.58 397.24 455.25 398.51 452.16 400.53 449.91 400.97 447.7 402.01 445.31 404.42 441.53 405.26 441.7 406.37 439.88 412.43 443.15 413.77 445.56 415.06 445.61 416.35 444.7 417.24 444.88 418.43 443.88 420.36 444.86 422.08 445.02 424.63 443.23 425.96 443.04 427.48 443.73 430.18 442.57 431.35 442.99 434.91 443.49 436.98 444.36 438.84 447.06 441.67 448.07 444.1 446.57 445.72 446.34 447.85 450.13 448.83 449.56 449.69 447.7 452.4 443.67 451.46 441.65 450.2 440.4 449.8 438.21 450.55 434.75 449.83 433.27 449.5 430.33 450.86 429.49 453.77 430.02 456.32 429.73 456.03 428.24 456.27 426.48 455.89 424.68 456.13 423.02 455.8 417.74 456.75 415.45 459.09 413.77 459.27 411.27 461.88 409.72 466.23 404.76 466.88 400.73 466.08 398.75 467.3 394.46 466.64 392.95 466.58 390.33 469 386.28 469.02 383.92 471.98 381.85 473.19 377.88 474.18 377.23 474.54 375.92 476.81 376.3 478.85 375.6 483.12 375.9 483.85 373.54 485.1 373 487.64 369.78 488.44 369.95 489.76 375.57 489.81 376.76 492.4 376.83 493.4 384.21 494.52 387.33 494.63 389.37 496.31 390.85 496.92 393.79 498.86 396.33 500.86 396.38 502.09 397.53 502.81 399.63 503.68 399.78 504.78 402.05 506.14 403.05 506.66 405.35 508.11 407 510.31 408.73 511.59 411.6 515.64 414.57 517.83 416.96 Z" id="32020370"/>
<path d="M 345.19 298.54 346.88 306.68 347.56 309.09 346.5 311.82 347.25 314.34 348.26 315.13 349.31 318.26 350.59 320.62 351.39 324.15 352.04 326.76 352.92 327.91 353.57 330.38 353.38 332.88 354.3 336.4 352.75 336.43 349.91 338.34 347.61 335.74 345.98 334.61 342.65 331.32 339.19 325.56 335.34 318.97 328.65 309.12 329.81 309.06 330.2 306.58 329.86 303.35 328.72 300.67 329.46 297.97 331.89 295.69 332.54 295.91 333.88 294.24 334.89 288.87 335.15 284.07 334.96 281.65 336.49 279.01 336.91 274.94 336.12 272.83 336.63 271.81 338.88 273.93 342.32 278.14 342.87 280.42 342.72 284.47 342.17 287.51 342.04 290.9 342.21 293.08 343.82 294.49 345.19 298.54 Z" id="32020510"/>
<path d="M 327.69 355.31 330.42 358.19 332.5 360.07 333.08 361.4 336.13 364.26 340.54 368.04 340.68 368.91 339.34 372.16 336.97 377.09 336.13 378.26 331.06 383.36 330.1 385.03 328.86 389.07 328.73 389.98 326.49 389.43 324.83 387.62 322.69 384.12 321.23 381.31 322.22 377.46 323.21 376.72 325.03 377.14 325.29 375.24 324.55 374.28 325.03 371.07 325.8 367.94 325.26 366.96 326.51 364.33 326.02 360.93 324.04 359.01 325.69 356.94 327.69 355.31 Z" id="32020550"/>
<path d="M 328.65 309.12 335.34 318.97 339.19 325.56 337.61 325.66 335.7 326.41 335.01 327.64 333.22 327.88 331.95 328.52 329.08 327.92 325.35 326.46 323.93 327.44 322.81 326.71 320.73 326.64 320.22 323.96 320.74 321.56 320.21 319.51 320.63 317.46 322.01 316.45 322.76 314.72 324.68 313.58 325.95 313.35 328.2 312.04 328.12 309.23 328.65 309.12 Z" id="32020580"/>
<path d="M 328.12 309.23 328.2 312.04 325.95 313.35 324.68 313.58 322.76 314.72 322.01 316.45 320.63 317.46 320.21 319.51 320.74 321.56 320.22 323.96 320.73 326.64 322.81 326.71 323.93 327.44 325.35 326.46 323.34 330.7 324.16 331.62 324.57 333.46 323.91 336.58 324.6 336.74 325.84 338.37 325.81 340.98 327.16 341.58 328.3 343.66 328.49 346.13 330.51 347.8 330.8 347.94 325.22 352.61 317.57 344.51 308.18 343.19 306.4 348.15 304.26 345.25 304.39 342.57 301.73 340.13 300.48 339.36 297.57 338.76 294.67 339.39 292.3 340.71 289.94 338.86 289.21 338.93 288.28 336.71 287.74 330.61 284.9 327.59 282.95 326.08 283.19 324.06 286.3 323.76 288.35 321.63 288.75 319.34 289.58 317.72 290.35 314.04 292.04 313.4 292.81 311.99 290.84 311.58 291.99 309.57 293.44 306.14 295.13 305.34 297.78 304.82 297.98 304.06 299.31 305.6 300.48 305.64 302.46 307.66 304.63 308.75 305.48 307.59 307.46 307.26 308.69 308.86 311.91 308.2 314.41 308.6 316.19 308.06 320.42 304.96 322.07 305.97 322.88 307.28 325.39 307.4 326.31 308.42 328.12 309.23 Z" id="32020600"/>
<path d="M 317.4 230.29 318.76 233.39 318.48 234.23 320.26 237.85 325.54 243.07 326.69 244.4 328.24 245.28 329.29 248.21 330.71 248.47 330.72 251.05 330.1 255.87 329.91 260.03 331.32 261.3 330.55 265.05 333.11 268.45 336.9 271.41 336.63 271.81 336.12 272.83 336.91 274.94 336.49 279.01 334.96 281.65 335.15 284.07 334.89 288.87 333.88 294.24 332.54 295.91 331.89 295.69 329.46 297.97 328.72 300.67 329.86 303.35 330.2 306.58 329.81 309.06 328.65 309.12 328.12 309.23 326.31 308.42 325.39 307.4 322.88 307.28 322.07 305.97 320.42 304.96 316.19 308.06 314.41 308.6 311.91 308.2 308.69 308.86 307.46 307.26 305.48 307.59 304.63 308.75 302.46 307.66 300.48 305.64 299.31 305.6 297.98 304.06 298.33 300.59 297.61 298.04 298.69 297.51 301.22 297.27 301.41 294.94 300.81 293.12 302.13 291.07 300.18 290.82 299.04 289.06 298.12 286.48 298.44 284.67 297.7 283.64 297.01 280.71 298.05 278.06 297.97 276.96 295.94 272.68 292.93 270.91 290.06 270.07 289.1 268.64 286.21 265.82 283.86 265.15 283.71 262.86 283.64 261.69 284.87 259.46 284.58 256.78 283.77 256.56 282.39 252.33 281.68 248.81 280.02 246.44 279.59 244.52 283.43 244.89 286.48 244.58 292.22 245.54 294.57 244.97 295.59 247.05 297.52 246.6 298.41 247.97 300.24 248.03 301.47 246.36 303.6 246.85 305.57 243.14 307.2 242.49 309.65 239.58 309.79 237.72 311.16 235.13 311.21 233.13 312.09 229.42 313.62 229.67 315.17 230.67 317.4 230.29 Z" id="32020610"/>
<path d="M 379.99 272.3 383.53 275.28 385.5 275.62 388.38 277.02 388.08 279.25 389.64 280.14 387.66 282.26 386.87 282.3 385.88 284.04 386.07 284.88 383.77 287.55 383.69 289.68 382.07 291.43 381.66 294.07 380.66 295.25 380.7 297.96 379.58 300.2 378.1 300.15 376.67 301.13 378.32 304.41 378.26 306.16 379.32 306.28 380.47 307.99 381.44 310.86 382.81 312.77 382.42 314.15 383.56 316.71 381.32 320.23 381.52 321.38 380.23 321.63 377.3 320.29 375.87 320.67 375.19 322.17 372.88 322.89 371.57 325.38 370.77 326 368.18 326.15 366.07 326.81 365.39 327.77 362.87 328.17 362.52 325.42 359.91 324.42 357.47 321.73 355.1 323.59 353.29 323.51 351.39 324.15 350.59 320.62 349.31 318.26 348.26 315.13 347.25 314.34 346.5 311.82 347.56 309.09 346.88 306.68 345.19 298.54 346.95 298.02 348.49 298.33 349.6 296.44 349.75 294.94 352.21 293.33 352.69 294.75 352.57 296.29 353.79 296.75 355.8 295.83 356.66 293.92 359.48 293.98 360.36 293.44 358.81 290.28 356.29 288.92 361.33 285.96 362.15 286.09 362.79 283.87 361.97 280.36 363.21 280.52 364.54 278.07 363.75 277.07 364.57 276 366.35 274.77 367.23 272.72 370.05 271.35 372.47 271.7 375.35 272.72 379.99 272.3 Z" id="32020620"/>
<path d="M 379.99 272.3 375.35 272.72 372.47 271.7 370.05 271.35 367.23 272.72 366.35 274.77 364.57 276 363.75 277.07 364.54 278.07 363.21 280.52 361.97 280.36 362.79 283.87 362.15 286.09 361.33 285.96 356.29 288.92 358.81 290.28 360.36 293.44 359.48 293.98 356.66 293.92 355.8 295.83 353.79 296.75 352.57 296.29 352.69 294.75 352.21 293.33 349.75 294.94 349.6 296.44 348.49 298.33 346.95 298.02 345.19 298.54 343.82 294.49 342.21 293.08 342.04 290.9 342.17 287.51 342.72 284.47 342.87 280.42 342.32 278.14 338.88 273.93 336.63 271.81 336.9 271.41 333.11 268.45 330.55 265.05 331.32 261.3 329.91 260.03 330.1 255.87 330.72 251.05 330.71 248.47 329.29 248.21 328.24 245.28 326.69 244.4 325.54 243.07 320.26 237.85 318.48 234.23 318.76 233.39 317.4 230.29 317.89 229.72 316.71 227.61 319.44 227.22 321.43 226.42 323.86 227.06 325.42 225.44 325.3 222.9 324.42 221.53 324.62 218.1 322.8 214.81 322.13 212.24 321.24 211.67 320.63 209.96 322.64 208.64 323.68 209.64 324.05 211.13 325.87 211.4 326.97 212.35 329.55 209.98 331.51 211.03 334.28 210.4 335.26 211.17 336.24 210.14 339.98 210.19 342.37 210.78 343.42 210.17 344.91 211.51 346.83 212.57 347.75 211.83 349.86 212.73 351.32 213.9 351.44 214.81 354.83 214.97 356.27 214.3 357.14 214.85 359.17 217.52 358.62 219.99 359.88 220.42 360.55 221.65 361.88 221.7 360.95 223.42 360.94 226.79 361.3 227.98 361.72 233.85 361.18 235.76 362.75 238.57 365.32 240.62 366.22 241.01 367.76 242.86 368.03 245 368.8 245.87 369.43 250.18 368.77 252.53 369.31 255.23 368.78 257.92 370.47 258.35 370.23 262.54 371.37 262.39 372.43 263.08 373.42 265.5 373.39 267.6 375.1 268.78 377.8 271.19 378.74 271.13 379.99 272.3 Z" id="32020630"/>
<path d="M 389.64 280.14 391.13 281.27 392.89 280.55 395.12 281.22 398.73 285.46 399.96 285.36 401.38 287.17 401.45 287.95 402.79 289.84 403.74 292.17 405.38 294.18 407.11 294.68 407.9 295.68 408.96 298.6 411.55 299.63 413.69 298.88 414.68 296.96 416.95 295.26 418.62 293.47 419.41 294.45 420.82 294.84 422.28 296.02 422.28 297.04 423.72 298.06 425.08 298.16 425.19 301.24 425.88 301.73 426.48 303.64 425.64 304.4 425.84 306.77 427.05 308.78 428.15 309.67 428.5 311.47 428.1 313.22 426.1 314.49 425.37 315.4 426.44 317.75 424.91 320.95 423.58 321.64 421.57 324.19 419.51 324.79 419.26 327.22 418.02 326.83 417.32 327.45 415.22 327.59 414.12 329.03 411.85 329.58 410.41 330.52 410.55 333.45 408.17 335.49 406.84 337.28 405.34 337.9 401.11 337.76 395.89 338.07 394.58 338.49 392.13 340.24 390.77 340.4 389.62 339.79 385.35 339.27 383.53 339.72 382.25 342.01 381.24 344.79 380.74 347.57 379.83 348.68 373.9 351.13 371.41 351.9 368.7 348.33 365.92 347.87 363.07 346.18 362.37 344.51 359.63 343.69 357.81 342.6 357.8 341.52 355.97 340.47 354.67 338.33 354.3 336.4 353.38 332.88 353.57 330.38 352.92 327.91 352.04 326.76 351.39 324.15 353.29 323.51 355.1 323.59 357.47 321.73 359.91 324.42 362.52 325.42 362.87 328.17 365.39 327.77 366.07 326.81 368.18 326.15 370.77 326 371.57 325.38 372.88 322.89 375.19 322.17 375.87 320.67 377.3 320.29 380.23 321.63 381.52 321.38 381.32 320.23 383.56 316.71 382.42 314.15 382.81 312.77 381.44 310.86 380.47 307.99 379.32 306.28 378.26 306.16 378.32 304.41 376.67 301.13 378.1 300.15 379.58 300.2 380.7 297.96 380.66 295.25 381.66 294.07 382.07 291.43 383.69 289.68 383.77 287.55 386.07 284.88 385.88 284.04 386.87 282.3 387.66 282.26 389.64 280.14 Z" id="32020640"/>
<path d="M 492.09 337.53 493.33 338.32 494.01 340.14 495.8 340.84 495.69 344.03 493.11 348.82 492.92 351.82 493.42 354.84 493.19 355.83 491.12 357.86 490.84 358.91 489.69 359.86 489.24 360.99 487.63 363.12 486.46 365.77 486.45 366.68 487.7 368.92 487.64 369.78 485.1 373 483.85 373.54 483.12 375.9 478.85 375.6 476.81 376.3 474.54 375.92 474.18 377.23 473.19 377.88 471.25 379.59 469.43 379.77 467.81 379.36 465.48 379.75 462.36 378.39 460.81 376.62 460.04 374.64 459.11 373.37 457.13 373.2 452.8 371.88 450.03 372.73 448.76 372.37 447.04 374.64 445.13 374.87 443.63 375.86 441.71 377.86 440.11 377.53 438.47 378.55 436.02 378.62 434.53 377.83 432.71 376.29 432.37 374.17 430.44 372.42 430.26 371.15 427.79 368.85 425.41 367.59 422.75 365.83 421.69 365.73 419.34 364 416.18 364.9 414.12 364.11 412.87 362.39 411.77 360.17 408.03 359.36 402.71 357.97 396.77 357.68 393.87 357.12 391.64 356.16 390.58 356.12 388.97 355.08 386.96 354.62 383.66 352.97 381.91 353.51 380.41 352.36 378.14 352.9 375.95 351.52 373.9 351.13 379.83 348.68 380.74 347.57 381.24 344.79 382.25 342.01 383.53 339.72 385.35 339.27 389.62 339.79 390.77 340.4 392.13 340.24 394.58 338.49 395.89 338.07 401.11 337.76 405.34 337.9 406.84 337.28 408.17 335.49 410.55 333.45 410.41 330.52 411.85 329.58 414.12 329.03 415.22 327.59 417.32 327.45 418.02 326.83 419.26 327.22 419.51 324.79 421.57 324.19 423.58 321.64 424.91 320.95 426.44 317.75 425.37 315.4 426.1 314.49 428.1 313.22 428.5 311.47 429.78 311.15 431.15 310.08 432.13 310.44 433.51 311.94 435.87 311.32 437.86 309.5 440.21 310.6 441.38 310.23 443.5 310.5 445.82 310.14 445.74 311.55 449 310.53 449.74 310.71 452.35 309.91 454.21 308.47 454.87 307.02 456.91 306.98 459.6 309.61 461.71 309.78 463.29 311.53 464.26 311.86 466.58 313.53 467.34 314.75 469.28 315.97 470.79 317.85 470.92 320.46 471.53 322.19 471.42 324.37 472.34 325.3 473.03 327.29 473.24 329.83 474.45 331.12 478.65 331.92 480.69 332.51 483.3 333.8 484.23 335.98 488.87 338.7 492.09 337.53 Z" id="32020660"/>
<path d="M 325.22 352.61 327.69 355.31 325.69 356.94 324.04 359.01 326.02 360.93 326.51 364.33 325.26 366.96 325.8 367.94 325.03 371.07 324.55 374.28 325.29 375.24 325.03 377.14 323.21 376.72 322.22 377.46 321.23 381.31 322.69 384.12 321.96 386.36 320.68 386.68 320.63 387.61 319.44 388.67 318.64 391.03 319.17 392.58 318.31 394.22 316.3 394.84 314.04 397.24 312.64 396.84 312.15 399.24 313.72 400.34 314.49 401.76 314.57 403.61 312.1 403.89 310.35 405.54 308.63 404.85 306.96 407.14 306.15 410.16 307 411.8 306.16 412.89 306 414.76 305.35 414.94 305.53 417.28 304.44 420.54 303.29 420.59 301.62 421.49 299.78 421.29 297.88 419.73 295.98 419.42 292.25 414.53 291.43 412.35 288.89 411.88 287.56 412.7 286.26 412.75 280.92 414.41 278.7 414.68 276.48 412.86 274.53 410.31 274.56 406.67 274.34 405.69 272.91 403.66 271.86 402.95 269.25 403.56 267.27 403.59 265.41 403.16 264.63 401.2 265.16 399.72 265.14 397.44 269.46 392.41 272.74 392.45 273.65 392.99 275.34 391.24 275.89 389.06 276.95 386.77 276.24 385.84 275.78 383.16 273.3 381.46 271.89 379.28 271.91 375.23 272.76 374.06 275.44 372.25 275.16 369.01 275.85 365.98 275.77 364.71 276.91 364.16 279.41 359.95 278.91 358.74 278.57 355.65 277.91 353.35 277.08 352.5 276.8 350.99 278.5 349.1 279.03 347.56 281.76 344.94 284.62 344.38 285.75 344.65 287.53 343.84 288.04 341.12 289.15 340.06 289.21 338.93 289.94 338.86 292.3 340.71 294.67 339.39 297.57 338.76 300.48 339.36 301.73 340.13 304.39 342.57 304.26 345.25 306.4 348.15 308.18 343.19 317.57 344.51 325.22 352.61 Z" id="32020670"/>
<path d="M 473.19 377.88 471.98 381.85 469.02 383.92 469 386.28 466.58 390.33 466.64 392.95 467.3 394.46 466.08 398.75 466.88 400.73 466.23 404.76 461.88 409.72 459.27 411.27 459.09 413.77 456.75 415.45 455.8 417.74 456.13 423.02 455.89 424.68 456.27 426.48 456.03 428.24 456.32 429.73 453.77 430.02 450.86 429.49 449.5 430.33 449.83 433.27 450.55 434.75 449.8 438.21 450.2 440.4 451.46 441.65 452.4 443.67 449.69 447.7 448.83 449.56 447.85 450.13 445.72 446.34 444.1 446.57 441.67 448.07 438.84 447.06 436.98 444.36 434.91 443.49 431.35 442.99 430.18 442.57 427.48 443.73 425.96 443.04 424.63 443.23 422.08 445.02 420.36 444.86 418.43 443.88 417.24 444.88 416.35 444.7 415.06 445.61 413.77 445.56 412.43 443.15 406.37 439.88 405.26 441.7 404.42 441.53 402.01 445.31 400.97 447.7 400.53 449.91 398.51 452.16 397.24 455.25 396.69 455.58 393.81 454.53 392.4 453.65 391.23 452.16 391.14 450.58 389.86 450.09 389.05 447.57 387.41 445.2 385.17 445.07 384.72 440.88 385.6 439.22 387.86 436.59 387.74 434.06 388.53 432.15 387.72 431.59 386.12 431.7 382.31 434.61 378.65 435.04 377.07 433.96 376 434.19 374.16 432.44 372.49 431.83 368.98 433.12 367.82 434.08 366.52 435.9 364.33 437.03 362.4 434.06 362.56 433.19 361.59 431.23 362.18 429.8 361.09 427.81 361.53 426.79 357.94 422.13 356.67 420.82 356.16 419.36 356.51 415.44 356.38 414.21 359.17 411.64 361.28 410.87 363.57 407.19 362.31 406 358.51 404.57 359.98 396.89 360.28 395.9 363.7 388.01 365.06 389.35 366.14 387.92 380.82 403.52 382.41 402.85 384.4 403.57 384.86 402.6 383.06 399.17 381.1 396.86 377.9 395 377.97 391.21 374.65 384.44 373.08 383.05 369.9 381.3 369.03 380.02 368.23 377.81 367.39 373.85 367.87 372.25 367.45 371.11 365.66 368.7 365.26 365.8 365.54 363.98 366.28 362.69 367.44 362.05 368.4 360.32 368.59 358.75 370.01 358.72 370.71 356.97 370.91 356.35 369.31 354.8 369.62 352.28 371.41 351.9 373.9 351.13 375.95 351.52 378.14 352.9 380.41 352.36 381.91 353.51 383.66 352.97 386.96 354.62 388.97 355.08 390.58 356.12 391.64 356.16 393.87 357.12 396.77 357.68 402.71 357.97 408.03 359.36 411.77 360.17 412.87 362.39 414.12 364.11 416.18 364.9 419.34 364 421.69 365.73 422.75 365.83 425.41 367.59 427.79 368.85 430.26 371.15 430.44 372.42 432.37 374.17 432.71 376.29 434.53 377.83 436.02 378.62 438.47 378.55 440.11 377.53 441.71 377.86 443.63 375.86 445.13 374.87 447.04 374.64 448.76 372.37 450.03 372.73 452.8 371.88 457.13 373.2 459.11 373.37 460.04 374.64 460.81 376.62 462.36 378.39 465.48 379.75 467.81 379.36 469.43 379.77 471.25 379.59 473.19 377.88 Z" id="32020680"/>
<path d="M 355.97 340.47 357.8 341.52 357.81 342.6 359.63 343.69 362.37 344.51 363.07 346.18 365.92 347.87 368.7 348.33 371.41 351.9 369.62 352.28 369.31 354.8 370.91 356.35 370.71 356.97 366.67 356.31 366.45 358.13 364.36 358.66 363.88 359.4 362.09 359.49 360.72 356.6 357.42 357.82 354.57 359.4 353.8 361.82 353.82 363.83 352 365.22 351.11 367.64 347.05 373.46 341.35 368.65 340.99 368.34 341.99 364.47 344.18 361.27 345.52 361.35 347.37 358.62 347.54 356.53 349.95 351.71 350.93 350.36 352.45 349.97 353.82 346.69 353.1 344.21 353.44 343.44 354.08 340.58 355.1 341.56 355.97 340.47 Z" id="32020530"/>
</g>
</svg>