<?xml version="1.0"?>
<svg xmlns="http://www.w3.org/2000/svg" version="1.2" baseProfile="tiny" width="800" height="834" viewBox="0 0 800 834" stroke-linecap="round" stroke-linejoin="round">
<g id="dong">
<path d="M 500.48 320.06 498.92 320.91 497.84 322.08 496.56 321.47 495.37 322.19 494.16 324.77 492.1 322.96 490.88 323.39 488.65 324.84 485.85 325.02 484.84 325.5 482.97 325.15 481.57 324.42 481 322.88 479.74 321.97 478.33 318.95 477.22 320.15 475.5 319.33 474.49 319.87 475.25 322.46 474.75 322.63 471.09 319.91 469.45 318.04 468.7 315.67 469.32 314.4 468.83 311.04 469.23 308.72 471.02 304.73 472.18 303.11 473.23 298.84 473.61 295.21 473.39 293.69 473.67 291.68 480.23 292.21 481.81 289.34 486.32 286.77 487.13 285.51 488.25 282.46 488.42 279.77 488.8 279.08 493.34 283.96 495.18 286.7 496.89 290.03 498.58 292.66 499.67 293.74 500.54 297.34 499.54 298.65 498.95 300.47 499.37 303.77 500.16 306.29 500.52 309.31 501.07 310.42 500.71 311.7 499.99 320.16 500.48 320.06 Z" id="32030550"/>
<path d="M 136.7 68.84 136.7 73.16 137.25 76.54 136.65 78.05 134.58 80.32 134.74 81.25 133.25 83.45 133.15 86.51 131.35 90.88 129.75 91.82 128.34 94.45 129.18 95.22 130.49 97.46 130.82 99.74 130.16 100.53 130.59 104.2 131.64 106.04 135.85 106.34 139.03 104.39 141.14 104.11 142.34 102.65 144.13 99.65 146.72 99.43 148.64 98.26 150.41 98.47 152.1 97.35 155.51 96.1 158.08 96.47 160.48 96.38 161.35 97.48 162.26 96.95 164.52 97.24 167.54 97.27 169.42 96.76 171.24 97.78 175.14 97.22 176.73 97.99 178.31 98.2 179.68 99.91 181.26 99.96 184.78 99.18 188.49 96.76 190.22 95.85 191.08 94.24 195.18 92.84 196.18 92.87 198.78 91.84 200.93 92.26 201.85 91.88 204.02 93.14 205.84 92.12 208.12 92.66 208.71 94.2 210.03 95.77 211.92 96.54 212.76 97.89 215.99 96.93 217.9 97.21 219.47 97.99 221.89 97.34 225.16 95.84 228 95.5 230.38 95.65 234.05 99.54 235.01 99.93 236.09 101.82 237.06 102.36 238.5 105.54 239.12 105.87 241.39 105.03 241.86 104.37 244.78 104.33 247.25 103.65 248.16 103.82 249.97 102.88 252.77 100.47 254.71 100.92 256.25 100.06 258.52 102.52 262.55 102.53 264.57 100.45 265.56 100.68 269.22 99.7 271.09 100.45 271.22 101.98 274.11 102.99 275.65 102.63 278 103.51 278.92 104.73 280.44 104.58 281.27 103.04 282.34 102.72 285.08 103.77 287.14 102.86 288.35 101.43 291.23 100.28 292.13 99.61 293.82 99.22 295.13 103.65 296.9 104.05 297.88 104.72 298.92 106.47 299.67 106.39 303.33 108.93 304.97 108.16 307.49 108.96 309.15 108.78 311.15 110.78 311.94 112.25 312.71 112.66 313.54 114.52 316.61 116.38 318.16 116.52 318.18 117.79 319.19 119.89 320.23 120.71 322.14 121 324 120.43 325.58 119.17 326.59 119.63 329.07 119.94 329.89 120.56 330.9 119.85 331.02 118.35 332.97 118.02 334.09 114.71 336.34 114.2 337.88 115.45 339.08 115.09 339.23 113.61 341.38 111.62 344 112.02 345.94 111.54 346.42 110.63 348.22 110.86 349.68 108.77 351.41 107.78 354.13 107.71 355.65 109.16 357.23 109.18 359.05 108.31 359.5 107.14 362.37 106.23 364.89 106.55 366.14 105.18 368.83 103.17 371.06 102.59 371.88 103.02 372.6 105.16 374.47 107.37 374.54 109.24 376.11 108.87 376.77 107.9 377.12 105.99 380.72 106.51 381.63 105.68 383.26 105.16 384.18 105.81 386.37 106.17 386.17 106.87 388.97 110.32 389.12 109.18 390.75 107.21 391.92 106.83 392.57 105.92 393.83 105.38 394.83 103.31 397.31 102.77 396.89 102.02 397.78 100.86 397.62 99.58 399.85 97.77 399.55 97.39 402.88 94.26 404.21 93.98 405.05 94.73 406.72 95.26 407.16 94.4 402.44 91.62 396.85 86.04 399.11 85.32 401.52 85.71 401.58 84.5 402.71 84.26 407.7 82.1 411.17 86.12 413.59 88.64 416.98 92.57 418.29 93.8 420.07 94.27 421.32 96.39 423.76 97.96 426.29 97.57 427.32 99.73 426.48 100.58 427.71 102.81 427.11 104.18 427.3 106.45 429.77 109.9 435.47 116.16 444.63 125.65 445.5 126.83 446.54 127.28 450.77 131.45 449.15 132.83 445.7 129.94 445.99 131.28 445.15 132.37 447.69 134.87 438.13 138.25 437.06 137.75 434.19 138.94 432.63 138.78 431.61 139.45 430.18 139.6 428.06 140.94 427.05 140.81 425.11 141.56 423.84 143.27 423.2 144.75 421.07 145.5 417.7 145.99 416.65 146.37 414.97 146.2 414.02 145.42 411.97 146.71 407.58 148.42 405.89 150.45 401.65 151.31 399.84 151.01 398.41 151.68 395.32 150.35 393.14 150.09 391.7 150.45 391.07 149.59 388.53 149.35 387.01 149.9 381.98 148.68 380.65 149.4 379.28 149.34 375.95 151.21 375.38 152.95 373.88 153.86 372.1 153.36 370.32 153.92 369.82 154.91 368.66 155.12 367.84 156.05 366.38 155.99 365.34 157.22 363.6 158.05 361.7 158.34 360.19 159.53 358.96 161.42 357.73 161.57 356.34 163.13 355.84 164.49 353.1 166.11 353.53 168.3 352.59 170.42 352.8 171.66 352.31 174.14 350.77 176.9 349.57 177.83 347.9 178.17 344.85 177.36 343.31 179.45 341.46 180.53 341.07 183.47 339.49 184.75 338.47 186.2 336.45 187.42 334.92 186.91 333.15 189.32 333.03 191.72 334.95 193.45 335.27 194.36 337.46 196.15 337.95 197.66 337.8 200.83 338.21 201.72 338.07 203.95 336.65 205.93 334.39 208.13 333.58 211.18 332.61 212.37 333.15 214.08 332.02 215.28 330.83 217.77 330.3 219.65 330.57 221.83 329.99 224.39 330.66 228.5 329.78 228.47 328.61 230.15 328.44 231.49 329.53 233.18 328.65 233.94 327.82 236.31 328.29 238.82 327.74 240.2 323.7 241.46 321.65 240.34 319.93 240.36 317.54 241.9 316.3 241.88 314.93 243.04 312.9 243.13 310.7 247.32 308.04 248.09 306.21 249.07 305.28 250.19 304.68 252.06 303.56 251.94 301.88 252.75 300.91 254.01 298.39 255.97 295.97 255.77 293.18 256.26 291.56 258.72 289.71 258.61 288.19 260.32 286.39 261.05 280.5 261.76 276.95 262.36 273.13 265.68 271.59 266.39 270.55 265.5 268.38 264.61 266.52 265.15 265.59 266.88 264.62 269.81 262.03 270.55 258.93 272.32 258.94 273.01 255.64 274.46 253.57 275.08 252.57 274.88 251.56 276 249.22 275.69 247.34 276.97 247.52 278.33 246.43 279.62 245.15 280.22 245.17 282.25 244.08 284.22 241.53 287.49 239.12 288.63 235.51 292.46 234.51 294.55 232.93 296.27 231.68 298.32 227.49 302.53 225.99 304.75 225.01 306.87 222.67 309.61 221.1 310.23 217.91 313.05 215.71 315.28 213.31 314.09 210.11 312.97 210.77 310.95 212.35 310.28 210.83 307.36 209.88 306.79 208.04 304.32 203.56 302.93 200.33 303.8 199.03 302.73 198.93 300.7 194.16 299.57 191.13 298.03 189.47 300.68 188.61 301.08 187.32 299.12 186.24 300.09 182.67 300.49 179.39 301.48 177.1 299.29 174.95 298.98 173.3 296.33 169.51 294.97 168.14 295.72 166.05 295.4 164.96 296.11 161.52 295.15 160.6 295.42 159.45 297.32 157.41 298.78 155.74 299.26 154.09 300.51 151.73 301.71 151.72 302.46 148.15 305.81 147.39 307.77 145.78 306.52 144.82 304.93 141.75 302.01 139.19 301.05 134.69 301.03 130.96 300.75 127.42 297.86 125.92 299.26 123.06 299.07 119.97 296.54 116.16 294.47 114.51 294.46 113.58 292.9 110.13 289.68 105.9 287.95 102.76 287.58 101.56 284.94 99.23 284.09 96.88 281.88 96.03 277.42 93.4 277.41 92.38 277.84 91.96 278.86 89.65 279.86 87.94 281.91 86.97 283.68 86.85 285.79 84.74 289.46 84.27 293.84 83.11 294.98 82.78 296.72 81.39 297.52 78.04 296.89 77.35 297.23 75.13 301.68 71.98 303.66 70.34 301.96 65.57 304.38 63.18 303.52 60.03 304.3 58.54 303.37 57.72 301.92 56.64 302.01 55.04 304.04 53.11 307.82 51.54 308.79 51.01 310.81 49.22 310.6 47.15 309.28 46.46 307.54 45.02 306.56 40.6 305.04 38.21 304.72 36.95 303.57 34.56 299.7 32.23 294.51 32.63 288.91 33.97 284.71 35.53 283.15 35.26 281.29 36.15 280.67 35.6 276.65 35.35 268.96 34.68 267.18 33.63 265.87 34.07 264.07 33.21 260.07 35.3 257.67 36.01 255.69 34.83 252.33 35.32 247.39 34.37 244.06 34.75 242.1 34.7 239.69 34.15 238.48 32.75 237.42 31.25 237.14 30.54 236.21 30.16 234.47 30.88 231.71 31.88 230.57 32.9 225.51 31.19 224.62 29.65 223.11 28.07 220.05 25.82 218.18 23.85 215.56 19.83 211.22 16.12 209.92 9.51 206.36 7.28 203.14 5.01 200.72 3.42 197.9 2.75 194.11 1.26 191.21 1.43 189.45 1 187.54 2.32 181.49 3.94 178.58 3.35 177.37 3.19 174.42 2.67 172.67 3.34 171.03 2.65 167.93 3.04 166.61 4.14 165.92 5.61 161.65 4.77 159.16 5.33 158.04 7.16 156.83 8.14 154.55 9.49 152.91 9.06 151.69 9.54 150.73 7.59 146.89 7.79 144.72 8.85 141.86 9.81 140.31 11.35 138.7 10.92 135.02 11.55 133.26 11.26 131.66 12.61 129.58 12.59 127.94 13.1 125.91 13.3 120.97 12.04 118.93 14.82 116.55 16.44 114.31 17.63 112.04 18.22 111.66 21.65 111.25 22.81 110.53 27.32 110.78 28.52 108.89 29.28 107.04 30.33 105.84 30.56 104.35 32.7 101.15 34.1 101.22 36.28 100.79 39.07 100.62 39.98 101.67 41.96 101.7 46.16 100.2 47.19 99.42 49.61 100.07 51.99 99.05 53.43 99.38 55.51 98.14 58.06 97.99 61.18 98.53 63.84 97.31 64.62 95.54 64.96 93.53 65.71 93.51 68.12 92 68.4 90.39 68.01 86.73 68.06 84.99 69.8 84.27 70.37 83.58 68.01 80.82 69.23 78.54 71.18 77 73.04 76.71 74.44 73.42 75.69 71.71 77.7 70.38 79.07 70.28 79.99 68.94 81.39 68.58 83.28 67.08 85.65 66.25 87.04 63.16 88.83 61.91 92.85 56.56 95.49 54.28 96.87 52.46 98.36 51.42 99.13 52.53 102.28 53.82 101.92 55.21 105.72 58.22 106.19 59.23 111.13 59.72 113.19 59.19 115.93 59.36 122.04 57.31 125.26 57.2 132.33 59.06 133.37 59.61 134.08 62.26 135.44 64.4 135.64 65.81 136.51 67.18 136.7 68.84 Z" id="32030370"/>
<path d="M 497.84 322.08 497.48 322.73 498.01 325.11 497.86 326.45 495.77 329.05 494.89 330.53 496.28 331.29 496.82 332.65 494.63 333.22 493.03 334.94 489.23 335.68 488.79 337.48 490.91 337.09 491.11 340.37 489.25 340.73 486.49 342.19 484.15 342.69 480.92 344.65 477.57 345.82 475.04 347.37 470.79 349.19 467.31 349.36 464.51 349.23 462.66 348.43 459.27 346.47 455.77 345.23 450.74 347.11 450.11 346.53 448.82 345.48 446.46 347.47 445.5 346.25 442.45 344.2 440.8 343.9 439.59 341.51 439.96 339.02 442.21 338.77 443.81 340.2 444.26 339.76 442.94 338.28 442.87 337.29 441.66 335.37 441.31 333.43 442.77 330.51 443 329.37 442.49 327.82 443.75 327.44 445.53 326.1 446.56 326.93 448.58 325.35 448.31 323.38 447.68 321.88 448.16 320.85 448.21 319.04 449.71 318.26 452.16 318.96 453.01 318.7 454.51 319.37 456.79 319.3 459.14 319.72 466.23 319.41 469.42 318.88 469.45 318.04 471.09 319.91 474.75 322.63 475.25 322.46 474.49 319.87 475.5 319.33 477.22 320.15 478.33 318.95 479.74 321.97 481 322.88 481.57 324.42 482.97 325.15 484.84 325.5 485.85 325.02 488.65 324.84 490.88 323.39 492.1 322.96 494.16 324.77 495.37 322.19 496.56 321.47 497.84 322.08 Z" id="32030510"/>
<path d="M 536.38 235.71 537.91 237.46 538.88 237.62 541.06 241.49 543.27 244.14 543.94 243.99 544.86 245.6 547.07 248.02 551.42 252.25 555.67 256.07 553.79 258.32 552.97 260.46 556.01 260.68 556.69 261.25 547.69 268.68 545.05 265.51 543.29 267.87 541.58 267.9 540.78 269.07 538.37 268.21 537.65 269.92 535.86 271.48 534.57 271.62 533.83 272.51 531.23 269.91 529.79 267.22 529.31 263.33 528.26 263.03 527.65 260.48 525.11 258 523.93 257.47 521.54 249.72 519.44 251.95 523.37 245.35 523.01 243.76 523.91 241.19 524.12 236.48 526.49 232.82 529.75 234.81 531.13 235.18 531.39 236.69 532.67 236.51 532.07 233.51 535.31 236.09 536.38 235.71 Z" id="32030590"/>
<path d="M 594.84 298.1 591.2 294.64 586.34 292.98 580.88 291.99 577.19 291.65 573.62 292.82 572.94 293.88 569.97 292.71 568.94 292.01 564.47 291.47 560.34 291.45 558.51 292.28 557.42 292.02 555.31 292.57 549.74 295.36 547.93 295.35 546.26 297.56 543.81 298.68 545.44 296.16 543.66 293.3 543.21 293.61 535.07 283.79 540.25 277.11 541.08 275.49 543.7 267.86 543.29 267.87 545.05 265.51 547.69 268.68 556.69 261.25 556.01 260.68 552.97 260.46 553.79 258.32 555.67 256.07 560.21 260.79 560.99 261.38 565.65 265.79 567.02 267.33 572.04 271.64 574.83 274.67 579.59 278.62 586.63 285.42 590.96 288.72 592.66 289.1 594.26 286.62 599.89 286.35 603.82 290.13 603.71 290.95 599.54 287.04 595.48 287.16 594.25 288.57 595.63 289.8 595.02 290.45 597.84 293.06 599.62 293.03 600.29 291.03 601.07 291.01 599.95 294.21 596.8 294.16 594.73 294.94 594.84 298.1 Z" id="32030600"/>
<path d="M 488.21 380.26 485.58 381.25 481.97 380.18 479.11 378.37 476.18 379.15 474.06 376.27 471.94 376.79 470.07 375.09 468.11 374.59 466.11 374.79 464.82 373.82 465.28 372.37 464.25 370.47 461.96 373.38 461.83 375.75 455.68 377.41 453.98 377.42 452.17 376.14 450.77 376.13 449.31 375.31 449.29 373.4 448.78 370.56 447.1 369.28 445.81 368.85 443.15 367.24 445.2 365.46 446.23 364.2 448 360.7 448.17 357.3 447.97 352.5 448.08 349.67 449.49 347.86 450.11 346.53 450.74 347.11 455.77 345.23 459.27 346.47 462.66 348.43 464.51 349.23 467.31 349.36 470.79 349.19 475.04 347.37 477.57 345.82 480.92 344.65 484.15 342.69 486.49 342.19 489.25 340.73 491.11 340.37 496.39 338.89 500.06 336.77 502.12 336.15 506.14 335.98 504.49 337.54 502.73 338.27 502.76 341.21 503.42 345.31 501.67 347.58 501.43 348.65 499.87 349.8 499.9 351 501.48 351.68 500.78 352.57 498.31 351.73 497.18 353.76 497.03 355.66 496.17 357.21 496.28 361.17 496.74 363.87 497.77 365.82 496.74 368.69 494.65 370.24 494.21 371.25 493.98 374.55 492.42 376.67 490.79 377.38 491.05 378.37 490.38 379.38 488.21 380.26 Z" id="32030610"/>
<path d="M 596.22 335.02 595.39 336.18 594.91 337.84 590.94 341.08 591.72 343.88 590.86 345.81 591.15 349.21 590.99 350.41 588.24 352.37 587.9 353.13 586.26 354.54 583.64 354.08 583.06 354.88 583.73 355.93 582.31 356.3 580.85 356.14 579.05 356.53 576.79 359.85 576.28 360.98 577.53 361.22 579.38 360.91 581.55 362.02 583.09 361.65 584.89 362.64 586.37 364.59 586.85 365.96 587.81 366.5 588.87 368.3 589.51 370.56 590.56 372.86 589.64 376.2 587.95 378.1 587.81 380.37 585.99 381 585.97 382.75 583.69 383.62 581.91 383.94 581.4 384.98 581.99 387.3 580.52 388.28 579.95 389.27 579.79 392.29 577.99 394.39 576.28 395.82 575.37 396.51 572.98 397.44 570.71 397.58 569.6 398.03 569.11 400.33 567.25 399.51 563.83 400.87 563.83 401.47 562.4 402.83 560.8 402.7 558.7 400.52 555.85 399.56 555.23 398.49 554.04 397.93 552.17 395.49 550.98 396.18 549.03 396.11 548.06 395.57 547.22 393.38 546.47 393.37 545.45 391.71 544.16 390.76 543.91 392.46 542.93 393.96 543.11 394.99 542.7 398.45 539.15 397.65 538.41 399.79 536.71 399.04 534.37 399.21 532.32 401.78 531.34 403.74 530.66 406.19 529.89 407.71 529.61 409.47 528.89 410.08 528.68 412.01 527.99 412.04 525.46 410.69 522.93 409.75 521.5 410.06 519.98 409.68 519.42 410.74 517.17 411.18 513.64 408.45 512.14 408.04 512.62 405.93 512.29 404.61 512.83 402.43 512.65 401.67 509.57 402.24 509.7 400.21 508.63 399.08 507.09 398.17 506.37 395.15 505.44 394 504.19 393.97 503.42 391.88 503.15 389.99 499.51 389.58 499.07 388.41 497.96 387.8 496.36 385.14 495.14 385.8 494.28 384.75 495.9 382.79 494.83 381.82 493.24 381.46 493.32 379.6 491.03 380.96 488.26 381.24 488.21 380.26 490.38 379.38 491.05 378.37 490.79 377.38 492.42 376.67 493.98 374.55 494.21 371.25 494.65 370.24 496.74 368.69 497.77 365.82 496.74 363.87 496.28 361.17 496.17 357.21 497.03 355.66 497.18 353.76 498.31 351.73 500.78 352.57 501.48 351.68 499.9 351 499.87 349.8 501.43 348.65 501.67 347.58 503.42 345.31 502.76 341.21 502.73 338.27 504.49 337.54 506.14 335.98 508.71 335.6 511.13 334.24 516.19 330.24 520.02 326.41 521.56 328.6 523.17 329.89 524.18 332.48 525.44 334.15 526.57 337.49 529.93 339.48 532.16 342 534.3 342.99 536.65 344.83 538.1 345.44 539.03 347.45 540.96 349.36 543.3 349.39 545.01 351.08 546.55 352.02 549.4 352.81 562.08 354.23 564.03 353.66 564.78 352.15 565.69 351.61 567.6 349.5 572.41 345.29 572.8 344.49 568.24 339.39 573.73 337.2 573.12 335.15 574.16 334.68 574.82 333.4 574.66 329.72 575.75 328.1 579.38 326.22 580.22 330.17 580.15 330.78 581.58 333.26 582.25 335.31 582.47 337.59 584.45 336.36 586.7 333.19 587.94 332.45 588.93 334.46 591.88 333.01 594.46 334.22 595.25 333.99 596.22 335.02 Z" id="32030620"/>
<path d="M 505.94 273.1 506.67 274.9 506.44 275.48 507.28 277.32 509.82 278.02 512.37 281.39 512.15 282.57 511.01 283.62 511.3 284.81 510.88 286.08 512.27 287.63 513.38 290.3 513.76 292.6 515.22 293.34 514.18 294.49 515.32 296.23 515.49 297.27 517.82 299.53 516.19 300.81 516.22 302.07 515.44 303.92 515.54 304.71 514.19 306.15 515.33 307.26 514.04 308.89 513.19 312.92 511.74 312.61 506.39 318.13 505.02 318.08 504.44 318.91 503.15 318.87 500.48 320.06 499.99 320.16 500.71 311.7 501.07 310.42 500.52 309.31 500.16 306.29 499.37 303.77 498.95 300.47 499.54 298.65 500.54 297.34 499.67 293.74 498.58 292.66 496.89 290.03 495.18 286.7 493.34 283.96 488.8 279.08 489.34 277.65 491.13 275.62 491.57 273.97 495.42 270.82 496.08 268.68 497.01 267.77 499.66 266.38 501.11 268.15 502.21 271.84 503.94 272.75 504.58 273.59 505.94 273.1 Z" id="32030560"/>
<path d="M 525.5 319.4 524.35 321.28 523.06 320.47 521.57 322.4 520 323.41 519.33 324.48 517.18 325.25 514.62 324.96 513.66 323.9 512.06 325.43 510.32 323.13 507.63 320.16 506.39 318.13 511.74 312.61 513.19 312.92 514.04 308.89 515.33 307.26 515.74 307.65 517.84 306.72 518.47 309.17 521.08 311.64 519.4 313.65 525.5 319.4 Z" id="32030540"/>
<path d="M 488.21 380.26 488.26 381.24 491.03 380.96 493.32 379.6 493.24 381.46 494.83 381.82 495.9 382.79 494.28 384.75 495.14 385.8 496.36 385.14 497.96 387.8 499.07 388.41 499.51 389.58 503.15 389.99 503.42 391.88 504.19 393.97 505.44 394 506.37 395.15 507.09 398.17 508.63 399.08 509.7 400.21 509.57 402.24 512.65 401.67 512.83 402.43 512.29 404.61 512.62 405.93 512.14 408.04 513.64 408.45 517.17 411.18 519.42 410.74 519.98 409.68 521.5 410.06 522.93 409.75 525.46 410.69 527.99 412.04 528.68 412.01 528.89 410.08 529.61 409.47 529.89 407.71 530.66 406.19 531.34 403.74 532.32 401.78 534.37 399.21 536.71 399.04 538.41 399.79 539.15 397.65 542.7 398.45 543.11 394.99 542.93 393.96 543.91 392.46 544.16 390.76 545.45 391.71 546.47 393.37 547.22 393.38 548.06 395.57 549.03 396.11 550.98 396.18 552.17 395.49 554.04 397.93 555.23 398.49 555.85 399.56 558.7 400.52 560.8 402.7 562.4 402.83 563.83 401.47 563.83 400.87 567.25 399.51 569.11 400.33 569.6 398.03 570.71 397.58 572.98 397.44 575.37 396.51 576.28 395.82 576.77 397.62 576.48 399.4 577.53 400.2 577.37 401.19 576.32 402.02 577.91 404.64 578.87 404.97 579.76 406.77 581.04 408.25 582.36 408.79 584.22 410.6 581.53 414.85 581.99 416.27 581.58 417.56 579.66 418.06 578.6 417.72 578.42 419.21 577.22 420.3 576.75 422.27 574.38 423.1 572.62 424.43 570.73 426.87 569.12 429.6 569.66 431.35 569.18 432.18 566.89 433.4 566.18 434.66 565.15 435.26 563.94 438.67 562.16 439.59 560.61 439.11 559.7 440.16 558.74 442.98 557.06 443.52 555.83 444.73 553.28 445.08 551.64 447.57 548.57 453.15 550.24 456.21 550.38 457.53 549.24 459.49 547.9 459.47 546.2 462.25 544.63 463.2 543.21 467.62 541.22 468.62 540.31 470.11 541.5 471.89 539.58 474.15 534.26 477.05 531.53 478.72 531.29 479.62 530.09 479.88 528.82 482.16 526.48 482.94 524.9 484.43 523.85 484.52 522.79 485.49 521.55 487.95 521.17 489.35 521.32 491.66 522.7 494.78 522.69 497.07 524.04 499.36 522.12 502.76 519.82 505.28 519.14 507.06 518.74 509.83 517.74 511.74 518.35 513.41 519.8 516.07 518.59 517.34 517.09 517.93 515.98 519.17 514.53 519.93 514.46 520.63 511.31 523.32 509.12 524.74 507.02 525.33 505.6 524.88 504.04 523.8 503.42 522.57 500.9 519.82 498.41 519.22 495.79 517.01 494.78 516.86 491.4 517.19 489.24 516.57 489.18 515.28 488 512.44 488.26 511.06 487.22 509.46 484.49 507.04 483.62 505.77 482.11 505.6 479.11 503.73 477.87 503.37 475.6 503.49 474.3 502.85 474.28 500.23 474.98 497.98 473.57 496.19 471.24 495.25 469.28 492.47 467.45 490.38 464.88 491.38 463.47 490.72 461.93 491.56 459.91 491.03 458.73 491.44 458.05 492.56 455.64 493.11 451.9 491.62 451.29 490.58 451.32 488.98 450.07 487.46 447.66 487.37 445.23 485.83 444.51 484.4 443.23 483.38 439.14 483.86 438.33 482.25 437.17 480.89 435.93 480.25 433.83 475.71 431.59 474.19 430.15 470.26 429.67 470 430.43 467.42 430.51 465.33 431.27 464.64 430.12 462.46 430.85 461.34 432.72 460.6 434.91 458.63 439.09 457.57 439.47 454.61 440.18 452.09 441.13 450.66 442.1 448.21 441.58 444.51 441.03 443.63 440.68 438.86 440.85 437.32 440.06 435.02 441.48 432.66 441.36 431.93 438.99 430.18 437.95 428.69 436.24 425.45 436.34 423.52 436.82 422.21 436.32 420.72 438.81 419.4 439.25 418.25 439.08 416.85 438 415.48 437.05 415.5 435.9 414.07 435.56 412.92 434.52 411.99 434.43 410.21 433.06 409.37 432.82 408.09 430.51 406.41 426.83 406.7 425.35 406.01 424.13 404.75 422.7 405.32 421.4 405.03 420.78 404.01 419.15 403.84 417.35 402.97 416.97 401.7 414.69 398.56 414.14 395.07 412.15 393.88 411.35 393.92 411.64 391.99 415.91 385.5 417.66 384.16 419.95 383.46 420.63 381.85 423.44 379.17 427.02 375.21 428.06 373.84 432.93 370.52 437.12 370.23 439.45 369.76 443.15 367.24 445.81 368.85 447.1 369.28 448.78 370.56 449.29 373.4 449.31 375.31 450.77 376.13 452.17 376.14 453.98 377.42 455.68 377.41 461.83 375.75 461.96 373.38 464.25 370.47 465.28 372.37 464.82 373.82 466.11 374.79 468.11 374.59 470.07 375.09 471.94 376.79 474.06 376.27 476.18 379.15 479.11 378.37 481.97 380.18 485.58 381.25 488.21 380.26 Z" id="32030330"/>
<path d="M 767.36 513.75 766.98 513.32 762.72 510.71 760.23 510.49 753.16 511.19 748.69 513.18 748.22 511.94 744.89 508.14 743.5 507.27 738.41 506.32 736.15 506.46 734.01 505.83 731.05 505.59 730.47 505.15 728.85 505.45 727.61 504.88 724.99 504.61 723.74 503.73 722.75 501.94 721.51 503 720.39 506.43 721.24 508.19 720.63 510.13 719.25 511.39 718.91 513.11 719.19 515.03 718.39 515.46 718.12 516.92 718.42 518.39 718.08 519.44 719.9 520.36 720.78 521.61 720.63 522.72 721.16 526.6 721.93 527.89 720.47 531.27 719.12 533.45 718.67 535.96 719.27 537.89 720.35 539.41 718.23 541.85 717.3 544.92 715.62 545.6 713.12 545.7 708.93 544.28 707.04 544.5 705.29 544.13 704.54 544.44 702.02 544.48 699.03 545.42 697.34 547.01 694.23 551.42 692.01 553.41 690.97 553.68 689.4 555.53 686.26 556.46 682.83 558.02 679.13 561.23 678.61 563.27 676.85 563.71 674.48 563.02 670.69 560.92 666.49 559.99 664.69 558.56 661.91 558.15 658.56 557.03 656.69 556.93 654.59 557.76 648.93 555.62 647.8 553.83 646.73 551.41 644.33 549.09 640.58 548.59 639.06 548.77 635.68 550.66 634.06 550.31 631.44 550.57 629.57 551.17 626.82 551.13 624.48 551.85 622.97 554.53 618.67 554.38 617.61 554.13 615.72 552.76 615.02 553.1 612.35 552.94 611.15 551.67 609.65 552.22 607.4 554.26 605.65 553.74 603.79 554.25 602.98 555.78 602.64 557.57 599.02 557.5 596.68 559.68 593.84 560.21 589.25 557.89 587.68 558.17 583.23 557.33 581.49 554.54 580.39 554.13 577.61 554.14 575.41 556.25 574.57 559.97 572.17 563.28 570.85 565.56 569.78 569.51 567.4 570.52 566.72 571.89 566.83 573.14 565.53 577.47 562.55 575.65 558.68 577.5 557.06 579.72 555.68 580.07 554.45 581.64 552.23 583.16 552.24 585.36 551.03 585.8 548.16 589.11 548.44 590.13 547.01 590.76 546.68 591.65 544.65 592.81 542.91 593.24 537.65 595.68 535.26 595.93 534.68 596.49 528.61 598.94 526.36 601.22 525.02 600.53 523.28 598.72 521.15 597.62 517.3 594.51 516.1 592.16 515.79 589.97 511.49 586.75 509.63 585.11 508.1 584.28 505.46 581.52 501.4 578.51 499.7 576.98 498.05 574.8 498.08 572.35 500.04 569.28 503.05 565.95 504.81 564.36 505.05 562.8 506.7 558.63 508.38 555.86 510.57 550.96 510.46 547.76 509.35 543.99 509.77 542.1 508.94 541.02 509.29 539.79 508.8 537.01 509.27 535.75 507.81 532.32 507.75 530.75 506.61 526.28 507.02 525.33 509.12 524.74 511.31 523.32 514.46 520.63 514.53 519.93 515.98 519.17 517.09 517.93 518.59 517.34 519.8 516.07 518.35 513.41 517.74 511.74 518.74 509.83 519.14 507.06 519.82 505.28 522.12 502.76 524.04 499.36 522.69 497.07 522.7 494.78 521.32 491.66 521.17 489.35 521.55 487.95 522.79 485.49 523.85 484.52 524.9 484.43 526.48 482.94 528.82 482.16 530.09 479.88 531.29 479.62 531.53 478.72 534.26 477.05 539.58 474.15 541.5 471.89 540.31 470.11 541.22 468.62 543.21 467.62 544.63 463.2 546.2 462.25 547.9 459.47 549.24 459.49 550.38 457.53 550.24 456.21 548.57 453.15 551.64 447.57 553.28 445.08 555.83 444.73 557.06 443.52 558.74 442.98 559.7 440.16 560.61 439.11 562.16 439.59 563.94 438.67 565.15 435.26 566.18 434.66 566.89 433.4 569.18 432.18 569.66 431.35 569.12 429.6 570.73 426.87 572.62 424.43 574.38 423.1 576.75 422.27 577.22 420.3 578.42 419.21 578.6 417.72 579.66 418.06 581.58 417.56 581.99 416.27 581.53 414.85 584.22 410.6 582.36 408.79 581.04 408.25 579.76 406.77 578.87 404.97 577.91 404.64 576.32 402.02 577.37 401.19 577.53 400.2 576.48 399.4 576.77 397.62 576.28 395.82 577.99 394.39 579.79 392.29 579.95 389.27 580.52 388.28 581.99 387.3 581.4 384.98 581.91 383.94 583.69 383.62 585.97 382.75 585.99 381 587.81 380.37 587.95 378.1 589.64 376.2 590.56 372.86 589.51 370.56 588.87 368.3 587.81 366.5 586.85 365.96 586.37 364.59 584.89 362.64 583.09 361.65 581.55 362.02 579.38 360.91 577.53 361.22 576.28 360.98 576.79 359.85 579.05 356.53 580.85 356.14 582.31 356.3 583.73 355.93 583.06 354.88 583.64 354.08 586.26 354.54 587.9 353.13 588.24 352.37 590.99 350.41 591.15 349.21 590.86 345.81 591.72 343.88 590.94 341.08 594.91 337.84 595.39 336.18 596.22 335.02 597.16 333.33 598.78 333.17 598.59 329.17 600.01 329.51 601.18 330.57 604.95 331.34 606.55 332.02 608.4 330.2 610.71 328.5 611.07 327.86 614.53 327.41 618.57 326.41 621.24 325.94 625.76 327.77 630.49 331.01 632.89 333.3 634.45 335.65 637.4 338.11 642.17 342.36 643.01 341.46 644.51 341.41 646.28 342.85 646.5 343.65 645.89 345.43 648.68 347.72 650.33 348.41 651.65 346.96 653.42 348.67 652.28 350.52 653.06 352.11 654.4 352.56 656.4 351.43 656.02 357.19 656.14 359.69 658.66 362.57 658.76 365.35 660.98 369.8 664.58 375.01 666.1 378.04 667.68 378.77 667.76 380.69 669.55 382.41 673.06 383.18 672.78 385.14 676.15 387.73 678.34 390.48 679.43 390.63 680.77 392.08 683.2 395.63 686.57 399.07 688.57 402.59 689.31 403.3 692.17 404.33 693.54 407.86 695.35 409.24 695.41 410.74 696.18 411.9 695.88 414.24 697.8 416.88 699.05 417.72 701.37 421.06 703.49 423.45 713.67 432.92 715.87 435.43 718.85 438.45 721.1 440.09 727.56 445.75 729.98 448.08 731.71 449.25 733.01 451.55 733.89 452.46 741.23 458 742.04 457.78 743.87 458.79 744.1 459.8 745.52 461.19 747.13 461.11 748.43 462.23 750.23 462.92 750 464.58 751.44 465.05 752.2 467.39 754.2 467.95 755.27 470.25 757.36 472.19 759.41 473.15 760.62 475.22 761.97 475.86 762.75 477.3 764.21 477.27 765.09 479.4 763.88 481.98 764.45 483.22 767.16 483.69 767.67 485.9 767.01 488.44 767.35 489.31 766.59 490.21 767.11 491 766.44 493.13 764.68 494.54 765.13 495.44 763.93 498.04 761.63 499.38 762.03 500.61 764.14 500.87 764.61 502.68 765.2 502.99 765.54 504.82 764.9 507.04 765.69 508.14 766.8 508.34 766.63 511.5 767.79 511.8 767.36 513.75 Z M 644.5 344.39 645.67 343.17 644.37 342.06 642.98 342.99 644.5 344.39 Z" fill-rule="evenodd" id="32030340"/>
<path d="M 767.36 513.75 765.57 516.33 766.11 517.9 765.44 518.52 766.24 520.16 764.42 521.46 763.55 524.04 761.39 524.83 761.45 529.73 760.73 529.88 760.67 526.28 756.92 526.25 756.24 528.1 754.56 529.08 753.84 530.43 754.66 530.89 751.93 534.58 750.54 538.36 750.42 542.17 748.18 545.06 748.09 548.59 749.04 553.68 750.39 557.48 752.29 561.94 754.03 565.44 756.5 569.85 760.13 575.43 760.7 576.77 763.45 578.21 770.65 578.05 780.43 583.69 779.98 584.27 770.41 578.79 767.92 579.04 765.03 579.66 765.21 587.91 774.1 589.51 774.85 593.96 778.22 595.75 777.76 596.42 779.74 599.04 780 601.36 783.46 605.48 788.8 610.98 792.67 614.74 799 620.34 797.37 621.99 796.27 622.44 792.24 628.38 791.29 630.54 789.45 632.52 787.61 632.62 784.92 633.21 783.77 633.11 782.07 633.77 780.82 634.87 777.61 634.42 775.11 635.71 771.17 636.86 768.65 636.58 768.38 638.9 767.7 641.44 768.62 642.14 768.87 643.29 771 643.68 773.68 647.51 775.31 650.94 775.25 653.78 773.59 654.63 772.66 655.7 771.28 658.6 770.4 663.89 770.92 666.2 769.85 668.43 768.46 668.98 766.57 673.25 765.44 673.64 763.95 675.48 763.92 676.13 762.13 678.34 762.4 680.45 763.53 682.35 763.4 684 762.44 687.94 762.95 689.53 761.44 691.95 761.88 694.59 761.84 697.05 760.82 699.81 759.06 701.85 759.14 703.89 759.78 705.09 759.25 707.36 759.5 708.39 758.98 710.22 759.45 711.48 758.55 713.96 758.73 717.08 759.66 719.53 760.54 720.91 760.86 722.3 761.96 723.52 761.27 725.98 759.3 728.31 757.56 731.95 757.67 734.53 758.21 736.18 757.09 737.54 757.11 738.29 755.27 739.08 753.03 739.34 752.18 738.36 750.22 737 747.82 737.5 746.28 737.17 744.44 734.08 744.26 732.7 742.51 732.41 741.88 733.52 738.91 736.33 736.14 737.45 734.6 736.8 731.64 737.54 727.3 739.07 726.28 740.16 724.85 740.28 723.08 741.43 722.35 743.5 720.96 746.33 719.45 748 719.06 749.09 717.58 750.96 717.66 751.73 715.97 753.58 713.76 755.31 711.85 756.05 709.97 755.59 707.65 753.16 705.47 753.92 703.54 754.18 700.73 753.34 698.98 753.16 695.38 750.6 693.25 750.47 689.98 749.44 687.47 749.77 686.21 747.47 679.67 747.63 678.26 748.22 677.22 749.31 674.94 750.09 673.39 751.22 667.85 756.71 664.72 760.58 664.81 761.56 663.62 762.73 663.13 765.12 662.58 765.96 661.12 765.49 659.44 765.55 657.42 766.49 654.56 766.62 652.55 767.59 649.83 767.5 648.42 766.57 644.6 765.58 639.77 766.71 637.77 763.7 637.71 761.5 636.14 760.55 634.24 760.74 631.42 757.18 631.4 755.06 628.37 753.73 626.08 750.52 622.42 748.14 621.16 742.5 620.6 738.96 619.71 736.96 617.01 737.72 617.5 740.15 617.41 742.48 615.33 745.45 612.92 747.01 613.55 748.2 610.24 751.85 607.48 751.7 603.07 753.64 602.37 755.04 600.91 755.59 595.55 753.35 595.06 752.6 592.37 753.72 590.67 756.03 590.64 756.72 588.8 758.11 587.76 758.1 586.91 758.96 582.93 759.18 581.81 759.81 578.64 758.84 577.18 759.16 576.1 757.67 574.57 757.78 572.97 756.18 573.21 753.39 572.26 750.89 571.34 749.95 569.52 750.56 566.87 749.43 565.29 747.03 564.07 746.36 564.05 745.54 562.62 742.38 561.43 741.2 560.14 741.59 557.06 741.24 553.46 740.5 552.26 738.86 549.77 738.24 549.13 739.33 547.72 739.92 545.82 737.45 544.96 735.44 545.39 733.56 544.75 732.11 543.56 731.69 542.25 730.31 540 730.09 535.46 730.63 533.83 730.99 530.78 731.01 530.03 729.29 529.56 726.85 528.63 725.33 529.71 720.59 529.14 716.52 529.96 713.4 528.87 709.52 527.82 709.08 528.2 704.61 530.17 701.92 529.28 699.25 528.51 695.39 527.33 693.26 523.05 693.22 522.44 692.45 522.69 688.23 521.38 686.53 520.16 680.33 519.46 677.73 519.73 674.81 517.55 672.62 518.22 668.2 516.31 666.19 516.64 662.83 513.73 663.32 512.71 662.77 511.3 660.81 508.36 659.54 506.01 659.8 504.54 659.34 503.01 653.4 502.07 651.99 496.86 650.78 495.15 650.75 495.3 648.95 494.95 647.2 495.55 644.31 496.35 643.58 496.98 639.74 496.59 637.37 497.15 636.37 498.51 632.43 500.81 630.53 500.73 629.4 501.48 627.73 504.64 624.87 505.19 623.18 505.23 620.8 506.02 619.65 508.55 617.51 510.27 616.81 510.25 614.86 511.77 613.3 513.24 610.56 513.57 609.39 515.46 608.82 516.73 608.01 519.13 607.52 520.56 606.38 523.61 603.28 526.36 601.22 528.61 598.94 534.68 596.49 535.26 595.93 537.65 595.68 542.91 593.24 544.65 592.81 546.68 591.65 547.01 590.76 548.44 590.13 548.16 589.11 551.03 585.8 552.24 585.36 552.23 583.16 554.45 581.64 555.68 580.07 557.06 579.72 558.68 577.5 562.55 575.65 565.53 577.47 566.83 573.14 566.72 571.89 567.4 570.52 569.78 569.51 570.85 565.56 572.17 563.28 574.57 559.97 575.41 556.25 577.61 554.14 580.39 554.13 581.49 554.54 583.23 557.33 587.68 558.17 589.25 557.89 593.84 560.21 596.68 559.68 599.02 557.5 602.64 557.57 602.98 555.78 603.79 554.25 605.65 553.74 607.4 554.26 609.65 552.22 611.15 551.67 612.35 552.94 615.02 553.1 615.72 552.76 617.61 554.13 618.67 554.38 622.97 554.53 624.48 551.85 626.82 551.13 629.57 551.17 631.44 550.57 634.06 550.31 635.68 550.66 639.06 548.77 640.58 548.59 644.33 549.09 646.73 551.41 647.8 553.83 648.93 555.62 654.59 557.76 656.69 556.93 658.56 557.03 661.91 558.15 664.69 558.56 666.49 559.99 670.69 560.92 674.48 563.02 676.85 563.71 678.61 563.27 679.13 561.23 682.83 558.02 686.26 556.46 689.4 555.53 690.97 553.68 692.01 553.41 694.23 551.42 697.34 547.01 699.03 545.42 702.02 544.48 704.54 544.44 705.29 544.13 707.04 544.5 708.93 544.28 713.12 545.7 715.62 545.6 717.3 544.92 718.23 541.85 720.35 539.41 719.27 537.89 718.67 535.96 719.12 533.45 720.47 531.27 721.93 527.89 721.16 526.6 720.63 522.72 720.78 521.61 719.9 520.36 718.08 519.44 718.42 518.39 718.12 516.92 718.39 515.46 719.19 515.03 718.91 513.11 719.25 511.39 720.63 510.13 721.24 508.19 720.39 506.43 721.51 503 722.75 501.94 723.74 503.73 724.99 504.61 727.61 504.88 728.85 505.45 730.47 505.15 731.05 505.59 734.01 505.83 736.15 506.46 738.41 506.32 743.5 507.27 744.89 508.14 748.22 511.94 748.69 513.18 753.16 511.19 760.23 510.49 762.72 510.71 766.98 513.32 767.36 513.75 Z" id="32030350"/>
<path d="M 450.77 131.45 455.73 136.08 460.18 140.52 462.48 142.49 465.59 145.96 466.97 147.1 471.56 152.07 473.23 153.01 473.61 158.07 474.41 159.64 476.82 162.12 476.11 162.42 473.72 160.02 471.64 159.8 471.27 165.82 473.11 167.91 473.57 169.96 474.96 170.79 475.07 171.88 477.04 175.65 480.77 180.26 482.65 181.89 486.34 185.76 489.38 188.14 490.46 189.55 492.37 191 494.4 193.53 496.82 196.1 494.98 199.42 492.22 201.63 492.22 202.97 491.15 204.08 490.57 205.64 490.8 207.03 489.98 208.92 489.04 209.84 486.14 208.52 485.04 208.54 484.06 209.85 482.97 210.5 481.08 210.55 479.01 209.91 476.83 211 478.55 212.06 478.03 213.26 475.66 214.44 474.21 218.35 473.01 218.97 472.86 219.99 471.83 221.56 472.32 223.17 470.84 224.33 470.28 226.2 469.41 226.71 467.36 226.02 466.63 227.2 465.04 227.21 464.06 226.02 460.76 225.29 458.66 222.99 456.51 224.29 455.1 226.45 453.03 226.62 452 228.01 450.84 227.94 450.71 229.38 449.19 229.9 448.04 228.58 447.58 225.06 446.85 223.67 444.69 222.43 443.27 223.35 442.61 224.61 441.18 225.18 441.3 226.44 440.1 227.68 436.14 228.65 434.91 229.46 433.39 231.73 432.43 232.06 430.59 231.55 429.08 231.81 428.32 233.88 424.04 234.43 422.93 235.45 422.04 236.95 422.2 238.36 420.8 240.2 421.08 242.31 420.67 244.36 417.14 247.55 415.75 247.96 415.01 249.16 415.3 250.85 416.11 251.58 416.31 254.2 417.12 255.39 416.24 256.37 416.59 257.81 415.79 258.41 415.82 260.39 414.38 261.49 413.11 260.23 411.53 259.82 410.1 260.43 408.58 259.8 407.93 260.63 405.08 261.52 401.91 260.91 400.75 260.31 399.17 260.8 398.45 259.57 397.19 259.43 395.17 260.2 393.5 261.73 392.69 261.78 391.88 263.27 392.04 264.96 387.79 266.23 388.47 267.78 386.72 268.95 384.31 268.98 383.87 271.71 382.35 273.36 381.9 275.3 382.66 276.27 382.41 277.25 383.02 278.25 382.28 281.97 381.55 282.57 379.13 283.41 380.68 285.87 379.82 288.21 379.66 290.01 378.65 292.23 376.96 293.13 376.73 294.33 377.34 297.38 376.19 299.96 376.04 302.31 375.47 302.71 375.62 304.22 374.2 303.93 369.76 306.43 370.12 308.73 368.11 308.93 364.9 310.73 361.35 310.83 360.3 308.61 358.41 308.36 357.58 305.23 356.61 305.21 354.17 306.14 353.7 308.11 351.69 309.28 349.36 309.72 348.51 308.14 346.97 308 345.38 305.88 344.32 305.32 344.3 303.95 343.37 303.11 341.12 299.61 338.98 297.26 338.14 297.69 336.53 297.2 334.72 297.55 333.79 298.99 332.5 299.26 330.19 302.13 328.85 302.17 326.12 300.74 322.57 300.7 320.49 301.61 316.02 300.09 313.71 301.71 310.37 302.48 308.11 301.95 306.74 302.44 304.27 301.39 302.29 301.1 301.65 302.39 300.44 303.29 298.83 303.55 297.25 305.7 296 306.79 293.46 308.41 292.68 311.1 293.01 312.12 292.37 314.08 289.98 316.88 290.18 319.54 290.94 321.98 291.56 325.21 291.27 326.6 291.64 328.49 289.32 330.44 288.98 333.26 285.37 335.69 283.64 336.21 282.36 337.9 279.82 337.75 278.68 338.85 278.16 340.32 278.09 342.07 277.58 344.4 277.87 347.27 275.9 350.46 275.57 351.64 274.4 352.6 273.73 353.94 266.86 356.39 264.7 356.76 261.43 355.62 258.09 356.49 255.51 354.77 252.08 351.24 251.9 349.72 249.07 348.45 248.47 347.29 245.45 344.53 242.91 344.08 239.02 342.8 234.98 341.11 234.24 340.03 233.01 339.38 231.36 337.51 231.61 335.22 230.73 333.92 231.63 332.35 229.99 329.87 228.4 328.87 226.55 328.27 223.08 328.11 222.27 325.22 219.63 322.42 218.34 320.42 218.31 319.45 215.75 316.95 215.71 315.28 217.91 313.05 221.1 310.23 222.67 309.61 225.01 306.87 225.99 304.75 227.49 302.53 231.68 298.32 232.93 296.27 234.51 294.55 235.51 292.46 239.12 288.63 241.53 287.49 244.08 284.22 245.17 282.25 245.15 280.22 246.43 279.62 247.52 278.33 247.34 276.97 249.22 275.69 251.56 276 252.57 274.88 253.57 275.08 255.64 274.46 258.94 273.01 258.93 272.32 262.03 270.55 264.62 269.81 265.59 266.88 266.52 265.15 268.38 264.61 270.55 265.5 271.59 266.39 273.13 265.68 276.95 262.36 280.5 261.76 286.39 261.05 288.19 260.32 289.71 258.61 291.56 258.72 293.18 256.26 295.97 255.77 298.39 255.97 300.91 254.01 301.88 252.75 303.56 251.94 304.68 252.06 305.28 250.19 306.21 249.07 308.04 248.09 310.7 247.32 312.9 243.13 314.93 243.04 316.3 241.88 317.54 241.9 319.93 240.36 321.65 240.34 323.7 241.46 327.74 240.2 328.29 238.82 327.82 236.31 328.65 233.94 329.53 233.18 328.44 231.49 328.61 230.15 329.78 228.47 330.66 228.5 329.99 224.39 330.57 221.83 330.3 219.65 330.83 217.77 332.02 215.28 333.15 214.08 332.61 212.37 333.58 211.18 334.39 208.13 336.65 205.93 338.07 203.95 338.21 201.72 337.8 200.83 337.95 197.66 337.46 196.15 335.27 194.36 334.95 193.45 333.03 191.72 333.15 189.32 334.92 186.91 336.45 187.42 338.47 186.2 339.49 184.75 341.07 183.47 341.46 180.53 343.31 179.45 344.85 177.36 347.9 178.17 349.57 177.83 350.77 176.9 352.31 174.14 352.8 171.66 352.59 170.42 353.53 168.3 353.1 166.11 355.84 164.49 356.34 163.13 357.73 161.57 358.96 161.42 360.19 159.53 361.7 158.34 363.6 158.05 365.34 157.22 366.38 155.99 367.84 156.05 368.66 155.12 369.82 154.91 370.32 153.92 372.1 153.36 373.88 153.86 375.38 152.95 375.95 151.21 379.28 149.34 380.65 149.4 381.98 148.68 387.01 149.9 388.53 149.35 391.07 149.59 391.7 150.45 393.14 150.09 395.32 150.35 398.41 151.68 399.84 151.01 401.65 151.31 405.89 150.45 407.58 148.42 411.97 146.71 414.02 145.42 414.97 146.2 416.65 146.37 417.7 145.99 421.07 145.5 423.2 144.75 423.84 143.27 425.11 141.56 427.05 140.81 428.06 140.94 430.18 139.6 431.61 139.45 432.63 138.78 434.19 138.94 437.06 137.75 438.13 138.25 447.69 134.87 445.15 132.37 445.99 131.28 445.7 129.94 449.15 132.83 450.77 131.45 Z" id="32030360"/>
<path d="M 594.84 298.1 598.35 298.35 598.5 299.97 601.02 303.53 603.21 306.03 606.98 309.64 609.05 312.09 610.95 313.26 612.51 314.65 613.53 314.99 613.94 316.09 615.4 317.4 616.35 317.47 616.84 318.84 622.51 324.73 623.62 326.19 625.76 327.77 621.24 325.94 618.57 326.41 614.53 327.41 611.07 327.86 610.71 328.5 608.4 330.2 606.55 332.02 604.95 331.34 601.18 330.57 600.01 329.51 598.59 329.17 598.78 333.17 597.16 333.33 596.22 335.02 595.25 333.99 594.46 334.22 591.88 333.01 588.93 334.46 587.94 332.45 586.7 333.19 584.45 336.36 582.47 337.59 582.25 335.31 581.58 333.26 580.15 330.78 580.22 330.17 579.38 326.22 575.75 328.1 574.66 329.72 574.82 333.4 574.16 334.68 573.12 335.15 573.73 337.2 568.24 339.39 572.8 344.49 572.41 345.29 567.6 349.5 565.69 351.61 564.78 352.15 564.03 353.66 562.08 354.23 549.4 352.81 546.55 352.02 545.01 351.08 543.3 349.39 540.96 349.36 539.03 347.45 538.1 345.44 536.65 344.83 534.3 342.99 532.16 342 529.93 339.48 526.57 337.49 525.44 334.15 524.18 332.48 523.17 329.89 521.56 328.6 520.02 326.41 524.35 321.28 525.5 319.4 526.3 318.08 528.52 312.47 528.78 311.1 534.34 303.14 542.89 299.68 543.81 298.68 546.26 297.56 547.93 295.35 549.74 295.36 555.31 292.57 557.42 292.02 558.51 292.28 560.34 291.45 564.47 291.47 568.94 292.01 569.97 292.71 572.94 293.88 573.62 292.82 577.19 291.65 580.88 291.99 586.34 292.98 591.2 294.64 594.84 298.1 Z" id="32030650"/>
<path d="M 536.38 235.71 535.31 236.09 532.07 233.51 532.67 236.51 531.39 236.69 531.13 235.18 529.75 234.81 526.49 232.82 524.12 236.48 523.91 241.19 523.01 243.76 523.37 245.35 519.44 251.95 521.54 249.72 523.93 257.47 519.27 262.18 510.16 264.95 511.52 269.85 509.61 270.02 507.16 270.73 505.71 271.67 505.94 273.1 504.58 273.59 503.94 272.75 502.21 271.84 501.11 268.15 499.66 266.38 497.01 267.77 496.08 268.68 495.42 270.82 491.57 273.97 491.13 275.62 489.34 277.65 488.8 279.08 488.42 279.77 488.25 282.46 487.13 285.51 486.32 286.77 481.81 289.34 480.23 292.21 473.67 291.68 473.39 293.69 473.61 295.21 473.23 298.84 472.18 303.11 471.02 304.73 469.23 308.72 468.83 311.04 469.32 314.4 468.7 315.67 469.45 318.04 469.42 318.88 466.23 319.41 459.14 319.72 456.79 319.3 454.51 319.37 453.01 318.7 452.16 318.96 449.71 318.26 448.21 319.04 446.34 317.26 441.67 314.52 439.8 313.99 439.44 312.46 437.25 310.72 436.83 309.53 435.75 309.59 434.07 307.3 434.23 305.28 432.97 304.45 433 302.09 432.31 300.85 430.6 299.68 430.37 295.48 430.83 293.87 429.78 292.59 429.82 291.02 428.91 289.61 427.55 290.21 426.09 288.71 424.39 288.51 423.17 286.46 423.44 284.83 422.75 280.65 422.95 278.82 421.77 276.73 419.95 277.56 417.94 276.78 417.8 275.27 417.06 275.06 416.64 273.52 417.86 272.12 416.6 269.13 416.21 264.46 414.38 261.49 415.82 260.39 415.79 258.41 416.59 257.81 416.24 256.37 417.12 255.39 416.31 254.2 416.11 251.58 415.3 250.85 415.01 249.16 415.75 247.96 417.14 247.55 420.67 244.36 421.08 242.31 420.8 240.2 422.2 238.36 422.04 236.95 422.93 235.45 424.04 234.43 428.32 233.88 429.08 231.81 430.59 231.55 432.43 232.06 433.39 231.73 434.91 229.46 436.14 228.65 440.1 227.68 441.3 226.44 441.18 225.18 442.61 224.61 443.27 223.35 444.69 222.43 446.85 223.67 447.58 225.06 448.04 228.58 449.19 229.9 450.71 229.38 450.84 227.94 452 228.01 453.03 226.62 455.1 226.45 456.51 224.29 458.66 222.99 460.76 225.29 464.06 226.02 465.04 227.21 466.63 227.2 467.36 226.02 469.41 226.71 470.28 226.2 470.84 224.33 472.32 223.17 471.83 221.56 472.86 219.99 473.01 218.97 474.21 218.35 475.66 214.44 478.03 213.26 478.55 212.06 476.83 211 479.01 209.91 481.08 210.55 482.97 210.5 484.06 209.85 485.04 208.54 486.14 208.52 489.04 209.84 489.98 208.92 490.8 207.03 490.57 205.64 491.15 204.08 492.22 202.97 492.22 201.63 494.98 199.42 496.82 196.1 497.55 196.45 502.55 202.03 506.57 205.78 507.88 205.92 508.68 207.73 510.7 208.9 510.29 209.44 512.87 212.27 515.63 215.01 521.36 219.48 523.76 221.11 525.39 222.6 527.59 225.95 531.35 230.15 534.37 233.95 536.38 235.71 Z" id="32030670"/>
<path d="M 497.84 322.08 498.92 320.91 500.48 320.06 503.15 318.87 504.44 318.91 505.02 318.08 506.39 318.13 507.63 320.16 510.32 323.13 512.06 325.43 513.66 323.9 514.62 324.96 517.18 325.25 519.33 324.48 520 323.41 521.57 322.4 523.06 320.47 524.35 321.28 520.02 326.41 516.19 330.24 511.13 334.24 508.71 335.6 506.14 335.98 502.12 336.15 500.06 336.77 496.39 338.89 491.11 340.37 490.91 337.09 488.79 337.48 489.23 335.68 493.03 334.94 494.63 333.22 496.82 332.65 496.28 331.29 494.89 330.53 495.77 329.05 497.86 326.45 498.01 325.11 497.48 322.73 497.84 322.08 Z" id="32030520"/>
<path d="M 407.7 82.1 402.71 84.26 401.58 84.5 401.52 85.71 399.11 85.32 396.85 86.04 402.44 91.62 407.16 94.4 406.72 95.26 405.05 94.73 404.21 93.98 402.88 94.26 399.55 97.39 399.85 97.77 397.62 99.58 397.78 100.86 396.89 102.02 397.31 102.77 394.83 103.31 393.83 105.38 392.57 105.92 391.92 106.83 390.75 107.21 389.12 109.18 388.97 110.32 386.17 106.87 386.37 106.17 384.18 105.81 383.26 105.16 381.63 105.68 380.72 106.51 377.12 105.99 376.77 107.9 376.11 108.87 374.54 109.24 374.47 107.37 372.6 105.16 371.88 103.02 371.06 102.59 368.83 103.17 366.14 105.18 364.89 106.55 362.37 106.23 359.5 107.14 359.05 108.31 357.23 109.18 355.65 109.16 354.13 107.71 351.41 107.78 349.68 108.77 348.22 110.86 346.42 110.63 345.94 111.54 344 112.02 341.38 111.62 339.23 113.61 339.08 115.09 337.88 115.45 336.34 114.2 334.09 114.71 332.97 118.02 331.02 118.35 330.9 119.85 329.89 120.56 329.07 119.94 326.59 119.63 325.58 119.17 324 120.43 322.14 121 320.23 120.71 319.19 119.89 318.18 117.79 318.16 116.52 316.61 116.38 313.54 114.52 312.71 112.66 311.94 112.25 311.15 110.78 309.15 108.78 307.49 108.96 304.97 108.16 303.33 108.93 299.67 106.39 298.92 106.47 297.88 104.72 296.9 104.05 295.13 103.65 293.82 99.22 292.13 99.61 291.23 100.28 288.35 101.43 287.14 102.86 285.08 103.77 282.34 102.72 281.27 103.04 280.44 104.58 278.92 104.73 278 103.51 275.65 102.63 274.11 102.99 271.22 101.98 271.09 100.45 269.22 99.7 265.56 100.68 264.57 100.45 262.55 102.53 258.52 102.52 256.25 100.06 254.71 100.92 252.77 100.47 249.97 102.88 248.16 103.82 247.25 103.65 244.78 104.33 241.86 104.37 241.39 105.03 239.12 105.87 238.5 105.54 237.06 102.36 236.09 101.82 235.01 99.93 234.05 99.54 230.38 95.65 228 95.5 225.16 95.84 221.89 97.34 219.47 97.99 217.9 97.21 215.99 96.93 212.76 97.89 211.92 96.54 210.03 95.77 208.71 94.2 208.12 92.66 205.84 92.12 204.02 93.14 201.85 91.88 200.93 92.26 198.78 91.84 196.18 92.87 195.18 92.84 191.08 94.24 190.22 95.85 188.49 96.76 184.78 99.18 181.26 99.96 179.68 99.91 178.31 98.2 176.73 97.99 175.14 97.22 171.24 97.78 169.42 96.76 167.54 97.27 164.52 97.24 162.26 96.95 161.35 97.48 160.48 96.38 158.08 96.47 155.51 96.1 152.1 97.35 150.41 98.47 148.64 98.26 146.72 99.43 144.13 99.65 142.34 102.65 141.14 104.11 139.03 104.39 135.85 106.34 131.64 106.04 130.59 104.2 130.16 100.53 130.82 99.74 130.49 97.46 129.18 95.22 128.34 94.45 129.75 91.82 131.35 90.88 133.15 86.51 133.25 83.45 134.74 81.25 134.58 80.32 136.65 78.05 137.25 76.54 136.7 73.16 136.7 68.84 137.12 69.13 140.47 68.9 141.47 68.04 143.87 67.53 145.01 65.26 148.09 63.68 150.06 62.42 151.72 60.65 152.85 60.84 155.42 59.7 157.74 60.22 160.17 59.48 162.05 60.29 164.15 58.95 166.89 55.79 168.02 55.04 171.99 54.88 173.05 54.25 175.34 54.01 178.87 51.38 180.29 49.04 183.72 47.6 186.13 46.06 188.2 45.16 192.52 42.66 195.49 43.08 196.23 43.67 201.04 43.38 203.15 44.71 205.97 43.13 207.34 42.94 210.35 41.63 210.14 39.77 211.38 38.87 213.91 35.97 216.84 34.71 216.93 33.77 218.45 32.18 219.48 33.35 226.06 35.04 226.7 34.42 228.99 33.61 231.98 33.36 233.18 35.04 235.31 36.63 239.27 38.1 240.62 38.82 244.12 36.39 245.39 34.88 245.33 33.38 246.81 31.59 250.78 30.78 252.13 31.27 254.07 31.38 256.07 30.14 258.6 30.4 259.96 29.75 260.58 27.79 262.09 25.81 262.01 24.41 262.71 23.32 262.39 21.5 262.87 19.67 264.08 18.5 266.05 18.92 271.7 16.38 272.38 14.49 274.05 13.32 276.99 12.67 279.22 13.1 279.8 14.76 281.33 16.21 284.43 17.44 286.31 17.45 288.03 17.94 290.39 16.88 291.89 17.61 294.23 17.07 295.43 16.24 298.47 16.12 300.65 17.85 302.34 15.68 305.04 15.13 306.2 16.72 308.89 16.96 310.91 15.54 310.84 14.64 312.15 12.44 312.6 10.8 314.02 10.17 315.51 10.48 317.57 9.89 318.83 8.71 320.29 8.41 320.61 7.54 323.76 7.9 325.91 10.04 329.09 10.73 331.31 10.08 333.83 11.35 335.24 11.26 337.38 12.2 339.53 11.7 341.43 12.27 342.16 10.87 343.31 10.46 345.18 11.09 348.97 10.11 351.9 10.45 353.18 10.29 354.61 8.95 355.95 6.98 356.77 5.17 358.62 4.48 359.62 3.21 363.46 1 364.75 2.42 367.62 4.79 372.79 8.79 376.99 11.23 380.02 13.96 381.61 15.96 384.18 18.48 387.83 21.21 389.86 21.18 392.51 21.84 393.75 21.34 394.17 22.6 395.78 23.32 396.58 25.68 395.12 26.45 394.88 28.88 396.24 31.43 398.08 31.89 398.49 33.82 400.15 34.59 401.93 34.29 402.89 35.79 402.62 37.75 403.66 39.95 403.69 41.09 402.46 42.11 403.24 44.4 402.06 49.12 401.13 50.37 400.55 52.61 400.7 54.51 401.86 60.4 403.3 63.09 402.84 63.64 401.36 60.42 400.18 54.25 400.09 52.66 400.68 50.17 401.38 48.53 400.93 46.29 398.84 46.79 396.91 48.06 395.49 50.26 397.54 51.61 397.56 52.61 395.64 52.59 395.18 53.68 395.12 57.55 394.85 59.85 397.04 59.89 396.99 63.95 397.57 64.24 396.78 66.18 397.81 68.64 399.27 69.45 400 71.74 402.71 75.68 407.7 82.1 Z" id="32030110"/>
<path d="M 414.38 261.49 416.21 264.46 416.6 269.13 417.86 272.12 416.64 273.52 417.06 275.06 417.8 275.27 417.94 276.78 419.95 277.56 421.77 276.73 422.95 278.82 422.75 280.65 423.44 284.83 423.17 286.46 424.39 288.51 426.09 288.71 427.55 290.21 428.91 289.61 429.82 291.02 429.78 292.59 430.83 293.87 430.37 295.48 430.6 299.68 432.31 300.85 433 302.09 432.97 304.45 434.23 305.28 434.07 307.3 435.75 309.59 436.83 309.53 437.25 310.72 439.44 312.46 439.8 313.99 441.67 314.52 446.34 317.26 448.21 319.04 448.16 320.85 447.68 321.88 448.31 323.38 448.58 325.35 446.56 326.93 445.53 326.1 443.75 327.44 442.49 327.82 443 329.37 442.77 330.51 441.31 333.43 441.66 335.37 442.87 337.29 442.94 338.28 444.26 339.76 443.81 340.2 442.21 338.77 439.96 339.02 439.59 341.51 440.8 343.9 442.45 344.2 445.5 346.25 446.46 347.47 448.82 345.48 450.11 346.53 449.49 347.86 448.08 349.67 447.97 352.5 448.17 357.3 448 360.7 446.23 364.2 445.2 365.46 443.15 367.24 439.45 369.76 437.12 370.23 432.93 370.52 428.06 373.84 427.02 375.21 423.44 379.17 420.63 381.85 419.95 383.46 417.66 384.16 415.91 385.5 411.64 391.99 411.35 393.92 412.15 393.88 414.14 395.07 414.69 398.56 416.97 401.7 417.35 402.97 419.15 403.84 420.78 404.01 421.4 405.03 422.7 405.32 424.13 404.75 425.35 406.01 426.83 406.7 430.51 406.41 432.82 408.09 433.06 409.37 434.43 410.21 434.52 411.99 435.56 412.92 435.9 414.07 437.05 415.5 438 415.48 439.08 416.85 439.25 418.25 438.81 419.4 436.32 420.72 436.82 422.21 436.34 423.52 436.24 425.45 437.95 428.69 438.99 430.18 441.36 431.93 441.48 432.66 440.06 435.02 440.85 437.32 440.68 438.86 441.03 443.63 441.58 444.51 442.1 448.21 441.13 450.66 440.18 452.09 439.47 454.61 439.09 457.57 434.91 458.63 432.72 460.6 430.85 461.34 430.12 462.46 431.27 464.64 430.51 465.33 430.43 467.42 429.67 470 426.64 469.49 421.33 466.29 418.24 465.53 416.78 464.07 414.71 460.98 413.9 460.49 412.02 458.3 411.07 456.76 405.97 455.87 403.83 454.42 400.22 453.75 398.19 452.01 396.51 449.06 397.08 446.37 395.13 444.25 391.77 444.13 389.41 445 387.31 446.48 388.38 448.62 391.27 447.81 390.89 448.72 389.7 448.99 387.92 451.07 385.82 452.06 384.26 455.26 384.1 458.85 383.24 459.99 382.78 463.01 382.05 464.22 379.89 465.72 377.27 466.99 377.35 465.67 376.27 461.9 378.06 459.1 379.28 457.83 378.63 455.19 377.1 455.68 375.94 453.61 373.07 452.68 370.85 451.23 370.52 450.48 368.39 448.67 367.43 447.06 366.19 446.12 364.44 445.9 363.18 445.19 362.03 441.71 358.49 443.09 356.58 441.63 354.53 442.39 353.18 441.89 351.61 443.35 350.58 445.16 349.29 445.63 348.63 446.49 346.56 450.42 345.56 450.86 343.95 455.21 341.49 455.83 340.94 456.36 340.68 459.33 339.08 459.71 335.4 462.45 333.88 462.33 332.77 464.72 329.29 465.76 328.47 466.49 326.91 466.68 324.85 467.57 323.32 467.27 321.94 468.15 320.99 467.84 318.29 468.67 316.28 468.52 314.3 467.93 312.02 469.73 308.99 471.74 307.81 471.97 304.59 473.26 303.68 474.13 301.72 474.37 300.85 475.24 299.15 478.15 295.99 476.18 293.89 473.96 293.92 471.65 294.46 469.76 294.22 466.83 291.72 467.11 291.25 463.88 291.39 460.23 290.26 456.85 291 454.28 290.07 451.25 287.89 450.12 283.44 440.38 283.12 437.95 283.53 435.38 284.39 432.27 284.12 431.44 282.22 428.84 282.26 425.96 283.74 424.49 281.22 422.44 280.82 418.2 279.14 416.8 273.88 413.8 272.15 411.55 272.38 410.79 271.52 408.9 270.52 403.04 272.97 399.77 267.71 395.1 266.58 392.88 266.89 389.97 268.23 386.16 266.56 384.14 265.53 382.15 265.45 379.65 266.77 377.36 266.97 376.15 266.54 371.56 265.5 368.4 265.5 361.35 264.7 356.76 266.86 356.39 273.73 353.94 274.4 352.6 275.57 351.64 275.9 350.46 277.87 347.27 277.58 344.4 278.09 342.07 278.16 340.32 278.68 338.85 279.82 337.75 282.36 337.9 283.64 336.21 285.37 335.69 288.98 333.26 289.32 330.44 291.64 328.49 291.27 326.6 291.56 325.21 290.94 321.98 290.18 319.54 289.98 316.88 292.37 314.08 293.01 312.12 292.68 311.1 293.46 308.41 296 306.79 297.25 305.7 298.83 303.55 300.44 303.29 301.65 302.39 302.29 301.1 304.27 301.39 306.74 302.44 308.11 301.95 310.37 302.48 313.71 301.71 316.02 300.09 320.49 301.61 322.57 300.7 326.12 300.74 328.85 302.17 330.19 302.13 332.5 299.26 333.79 298.99 334.72 297.55 336.53 297.2 338.14 297.69 338.98 297.26 341.12 299.61 343.37 303.11 344.3 303.95 344.32 305.32 345.38 305.88 346.97 308 348.51 308.14 349.36 309.72 351.69 309.28 353.7 308.11 354.17 306.14 356.61 305.21 357.58 305.23 358.41 308.36 360.3 308.61 361.35 310.83 364.9 310.73 368.11 308.93 370.12 308.73 369.76 306.43 374.2 303.93 375.62 304.22 375.47 302.71 376.04 302.31 376.19 299.96 377.34 297.38 376.73 294.33 376.96 293.13 378.65 292.23 379.66 290.01 379.82 288.21 380.68 285.87 379.13 283.41 381.55 282.57 382.28 281.97 383.02 278.25 382.41 277.25 382.66 276.27 381.9 275.3 382.35 273.36 383.87 271.71 384.31 268.98 386.72 268.95 388.47 267.78 387.79 266.23 392.04 264.96 391.88 263.27 392.69 261.78 393.5 261.73 395.17 260.2 397.19 259.43 398.45 259.57 399.17 260.8 400.75 260.31 401.91 260.91 405.08 261.52 407.93 260.63 408.58 259.8 410.1 260.43 411.53 259.82 413.11 260.23 414.38 261.49 Z" id="32030310"/>
<path d="M 429.67 470 430.15 470.26 431.59 474.19 433.83 475.71 435.93 480.25 437.17 480.89 438.33 482.25 439.14 483.86 443.23 483.38 444.51 484.4 445.23 485.83 447.66 487.37 450.07 487.46 451.32 488.98 451.29 490.58 451.9 491.62 455.64 493.11 458.05 492.56 458.73 491.44 459.91 491.03 461.93 491.56 463.47 490.72 464.88 491.38 467.45 490.38 469.28 492.47 471.24 495.25 473.57 496.19 474.98 497.98 474.28 500.23 474.3 502.85 475.6 503.49 477.87 503.37 479.11 503.73 482.11 505.6 483.62 505.77 484.49 507.04 487.22 509.46 488.26 511.06 488 512.44 489.18 515.28 489.24 516.57 491.4 517.19 494.78 516.86 495.79 517.01 498.41 519.22 500.9 519.82 503.42 522.57 504.04 523.8 505.6 524.88 507.02 525.33 506.61 526.28 507.75 530.75 507.81 532.32 509.27 535.75 508.8 537.01 509.29 539.79 508.94 541.02 509.77 542.1 509.35 543.99 510.46 547.76 510.57 550.96 508.38 555.86 506.7 558.63 505.05 562.8 504.81 564.36 503.05 565.95 500.04 569.28 498.08 572.35 498.05 574.8 499.7 576.98 501.4 578.51 505.46 581.52 508.1 584.28 509.63 585.11 511.49 586.75 515.79 589.97 516.1 592.16 517.3 594.51 521.15 597.62 523.28 598.72 525.02 600.53 526.36 601.22 523.61 603.28 520.56 606.38 519.13 607.52 516.73 608.01 515.46 608.82 513.57 609.39 513.24 610.56 511.77 613.3 510.25 614.86 510.27 616.81 508.55 617.51 506.02 619.65 505.23 620.8 505.19 623.18 504.64 624.87 501.48 627.73 500.73 629.4 500.81 630.53 498.51 632.43 497.15 636.37 496.59 637.37 496.98 639.74 496.35 643.58 495.55 644.31 494.95 647.2 495.3 648.95 495.15 650.75 491.99 651.78 491.04 654.38 487.05 656.52 484.5 659.85 481.83 658.27 477.79 657.61 477.13 660.82 475.86 662.56 475.46 664.37 474.57 665.4 475.27 667.32 473.82 668.05 473.12 670.8 472.33 672.48 472.76 673.18 472.41 674.95 470.25 679.08 468.62 679 467.19 680.6 466.28 682.75 466.08 684.46 464.21 685.53 462.78 686.97 461.81 690.07 460.96 694.1 460.02 696.57 461.09 700.6 461.43 707.38 460.55 709.12 459.2 710.02 459.24 711.58 455.34 715.24 456.42 718.87 456.3 721.45 456.51 723.58 456.18 725.91 457.33 727.09 460.38 728.7 460.82 730.38 460.6 733.17 459.98 734.66 460.2 736.02 459.27 738.04 459.18 739.68 457.87 741.49 456.46 742.23 456.55 746.38 457.7 747.59 457.39 748.64 458.13 749.84 457.65 750.64 457.91 752.97 456.99 754.29 457.4 755.98 456.72 756.79 456.49 758.41 455.85 759.67 454.87 759.86 454.2 761.76 453.23 762.21 452.97 763.46 451.05 763.4 450.65 765.52 450.97 770.15 451.82 771.99 449.69 776.38 448.39 778.34 448.58 782.03 448.29 782.83 448.99 784.74 450.26 785.64 450.23 786.92 449.55 789.74 448.08 790.2 447.75 791.21 445.52 792.23 444.87 791.81 440.25 794.75 439.9 795.49 442.02 797 442.99 798.37 442.9 799.82 440.62 804.17 440.63 805.51 441.43 806.89 440.18 808.55 438.39 809.15 436.46 810.83 432.18 813.47 430.42 812.18 427.89 814.63 425.19 814.87 421.61 813.82 420.48 813.12 417.52 812.6 415.12 814.17 413.74 815.56 413.5 816.97 412.08 818.84 409.81 819.77 408.54 820.65 405.11 822.09 402.87 822.54 399.98 823.55 396.64 825.08 392.27 828.61 390.64 830.86 388.84 831.34 385.56 833 386.63 826.91 385.26 825.28 382.82 823.62 382.93 821.95 381.99 819.73 380.67 819.61 379.63 817.99 376.95 816.5 376.04 815.41 375.99 813.56 373.58 812.33 372.02 812.08 367.24 809.53 362.3 806.43 361.73 805.24 359.15 803.06 359.45 800.6 359.91 799.59 360.03 797.49 358.94 796.19 358.36 794.24 358.68 792.89 358.83 788.16 358.07 786.55 359.61 784.91 358.59 784.45 357.76 781.96 356.23 780.64 352.44 780.41 351.79 777.46 349.65 774.48 349.5 769.38 350.66 767.07 350.98 765.59 347.48 761.55 344.66 760.13 342.63 759.86 341.33 758.11 338.89 758.3 338.19 757.25 331.49 753.26 329.98 752.73 325.76 752 320.66 754.91 319.13 754.46 317.25 754.64 313.43 754.09 311.21 754.19 309.25 753.4 305.45 755.21 303.52 756.62 301.29 757.83 299.33 757.12 297.99 757.17 296.32 756.4 293.75 754.73 292.65 753.4 291.42 752.66 287.52 750.94 285.08 750.6 281.56 747.97 279.78 747.38 278.42 748.09 275.45 747.22 274.22 747.58 273.13 748.98 270.96 749.64 269.71 749.59 267.34 748.27 264.62 746.12 262.1 746.48 261.2 746.92 259.83 749.02 259.63 750.07 257.87 752.17 253.86 753.91 252.43 756.55 250.55 757.92 248.51 761.64 246.55 763.96 245.84 766.22 241.29 770.11 238.96 772.27 238.35 773.78 238.74 776.07 238.26 779.43 235.92 783.8 234.21 784.77 232.56 782.33 229.93 780.24 226.83 779.87 225.07 779.11 218.57 779.41 213.79 778.15 211.82 776.68 209.13 772.46 208.09 772.11 204.96 771.93 203.63 770.57 201.93 769.63 200.69 769.44 198.53 767.2 196.96 765 195.75 762.2 193.8 760.81 192.59 760.34 191.77 757.55 190.35 756.61 190.21 754.84 188.71 750.71 188.06 748.11 185.45 744.28 184.88 740.65 184.17 737.78 183.37 737.2 182.05 734.26 179.84 733.01 179.06 731.42 177.63 730.98 175.13 728.7 174.9 725.65 175.7 723.56 176.04 719.35 175.04 716.11 172.23 713.05 168.53 710.68 167.39 708.92 167.8 704.96 167.43 703.29 169.58 699.2 170.07 696.18 171.24 695.26 171.08 693.33 171.72 690.33 171.12 689.68 171.68 687.86 171.26 686.4 171.17 683.35 171.86 680.54 172.93 678.79 172.49 677.39 172.84 675.92 173.02 671.72 173.39 670.47 174.16 665.41 174.87 662.61 175.15 660.39 174.23 658.25 174.61 654.98 176.08 655.23 178.35 656.35 180.97 657.17 183.01 656.92 184.83 657.72 187.43 658.38 189.34 657.41 191.13 657.54 192.79 658.14 195.97 657.03 198.48 655.21 201.14 657.32 203.25 658.5 204.75 659.91 205.84 662.14 211.57 664.2 213.7 664.75 217.3 665.07 219.69 664.63 219.44 662.38 219.6 660.15 221.25 658.15 224.85 656.05 226.34 654.97 226.15 650.75 226.34 647.23 226.73 643.98 226.71 639.77 226.43 633.09 227.52 630.49 229.1 627.95 230.9 625.96 231.94 623.76 235.29 620.74 236.36 618.75 236.97 618.87 238.74 620.61 241.84 620.59 243.31 621.34 244.89 621.07 248.38 622.14 253.94 622.96 256.4 622.86 258.05 621.5 258.19 620.52 257.75 617.99 256.93 616.55 257.89 613.88 258.76 612.89 258.19 610.16 258.2 607.39 257.16 604.86 257.63 603.65 257.47 602.36 256.7 601.41 256.85 600 256.69 595.6 257 594.59 256.73 591.32 256.85 588.27 255.96 587.81 256.51 585.49 256.19 583.44 255.18 580.9 253.05 578.11 251.39 575.27 249.41 572.8 246.76 572 245.35 568.33 244.48 567.38 244.33 565.12 245.8 561.84 247.46 560.23 247.38 556.98 248.01 554.25 249.86 550.2 252.21 547.08 248.9 541.22 250.66 536.72 250.96 535.16 250.64 533.76 251.43 530.9 253.46 529.77 255.22 528.12 260.64 525.55 264.01 525.28 266.08 523.49 267.58 522.7 267.49 519.76 268.21 517.61 269.05 516.85 269.22 514.47 271.09 513.01 271.3 511.13 270.68 510.18 273.04 507.21 276.59 506.96 278.35 506.34 280.37 504.88 280.3 503.62 281.22 500.44 282.11 500.41 285.67 499.17 287.05 499.22 290.63 497.02 294.19 497.19 296.02 496.03 296.95 494.87 300.2 494.45 301.16 493.76 301.27 492.55 299.66 486.18 298.37 483.74 298.17 481.68 298.47 479.51 299.15 478.15 300.85 475.24 301.72 474.37 303.68 474.13 304.59 473.26 307.81 471.97 308.99 471.74 312.02 469.73 314.3 467.93 316.28 468.52 318.29 468.67 320.99 467.84 321.94 468.15 323.32 467.27 324.85 467.57 326.91 466.68 328.47 466.49 329.29 465.76 332.77 464.72 333.88 462.33 335.4 462.45 339.08 459.71 340.68 459.33 340.94 456.36 341.49 455.83 343.95 455.21 345.56 450.86 346.56 450.42 348.63 446.49 349.29 445.63 350.58 445.16 351.61 443.35 353.18 441.89 354.53 442.39 356.58 441.63 358.49 443.09 362.03 441.71 363.18 445.19 364.44 445.9 366.19 446.12 367.43 447.06 368.39 448.67 370.52 450.48 370.85 451.23 373.07 452.68 375.94 453.61 377.1 455.68 378.63 455.19 379.28 457.83 378.06 459.1 376.27 461.9 377.35 465.67 377.27 466.99 379.89 465.72 382.05 464.22 382.78 463.01 383.24 459.99 384.1 458.85 384.26 455.26 385.82 452.06 387.92 451.07 389.7 448.99 390.89 448.72 391.27 447.81 388.38 448.62 387.31 446.48 389.41 445 391.77 444.13 395.13 444.25 397.08 446.37 396.51 449.06 398.19 452.01 400.22 453.75 403.83 454.42 405.97 455.87 411.07 456.76 412.02 458.3 413.9 460.49 414.71 460.98 416.78 464.07 418.24 465.53 421.33 466.29 426.64 469.49 429.67 470 Z" id="32030320"/>
<path d="M 543.21 293.61 543.66 293.3 545.44 296.16 543.81 298.68 542.89 299.68 534.34 303.14 528.78 311.1 528.52 312.47 526.3 318.08 525.5 319.4 519.4 313.65 521.08 311.64 518.47 309.17 517.84 306.72 515.74 307.65 515.33 307.26 514.19 306.15 515.54 304.71 515.44 303.92 516.22 302.07 516.19 300.81 517.82 299.53 515.49 297.27 515.32 296.23 514.18 294.49 515.22 293.34 517.53 293.52 523.8 293.06 525.59 292.61 528.83 291.14 529.59 291.47 529.72 293.75 531.82 293.33 534.49 293.57 537.21 294.4 538.51 293.79 540.33 295.4 543.21 293.61 Z" id="32030570"/>
<path d="M 505.94 273.1 505.71 271.67 507.16 270.73 509.61 270.02 511.52 269.85 510.16 264.95 519.27 262.18 523.93 257.47 525.11 258 527.65 260.48 528.26 263.03 529.31 263.33 529.79 267.22 531.23 269.91 533.83 272.51 534.57 271.62 535.86 271.48 537.65 269.92 538.37 268.21 540.78 269.07 541.58 267.9 543.29 267.87 543.7 267.86 541.08 275.49 540.25 277.11 535.07 283.79 543.21 293.61 540.33 295.4 538.51 293.79 537.21 294.4 534.49 293.57 531.82 293.33 529.72 293.75 529.59 291.47 528.83 291.14 525.59 292.61 523.8 293.06 517.53 293.52 515.22 293.34 513.76 292.6 513.38 290.3 512.27 287.63 510.88 286.08 511.3 284.81 511.01 283.62 512.15 282.57 512.37 281.39 509.82 278.02 507.28 277.32 506.44 275.48 506.67 274.9 505.94 273.1 Z" id="32030580"/>
</g>
</svg>