<?xml version="1.0"?>
<svg xmlns="http://www.w3.org/2000/svg" version="1.2" baseProfile="tiny" width="800" height="889" viewBox="0 0 800 889" stroke-linecap="round" stroke-linejoin="round">
<g id="dong">
<path d="M 610.73 337.29 612.06 339.76 617.31 343.97 617.41 346.72 620.69 352.57 627.76 359.39 632.58 362.74 632.89 366.67 635.53 370.48 637.56 370.24 639.76 372.79 640.61 377.41 644.86 379.78 648.41 378.27 647.39 385.16 648.97 387.99 652.14 387.74 651.49 393.23 649.52 397.48 644.98 401.2 641.78 408.35 642.76 415.1 645.46 422.33 650.69 430.56 654.05 430.03 656.87 434.33 655.18 434.73 652.41 438.49 643.39 444.94 639.6 451.31 637.37 453.78 628.88 456.63 625.3 462.28 618.31 463.19 614.6 463.78 609.41 461.68 607.61 458.32 604.88 457.47 597.89 453.66 596.88 458.63 591.36 462.07 590.79 458.86 588.15 454.54 582.41 449.31 578.59 448.84 573.13 449.69 566.88 453.36 560.91 452.26 552.74 453.06 547.47 455.13 543.31 452.92 535.99 458.03 534.39 457.29 531.31 459.36 527.29 458.64 524.88 455.47 522.74 455.48 513.26 458.59 505.16 457.13 500.41 451.22 492.8 451.81 491.01 453.24 484.65 453.44 480.49 452.09 477.2 453.41 463.96 449.8 460.23 447.89 458.77 444.79 454.9 444.16 447.16 440.54 444.15 432.18 440.27 426.42 440.36 419.9 437.78 416.33 436.05 416.04 437.02 411.58 444.18 405.26 446.48 401.24 451.94 400.3 456.14 398.58 459.26 390.08 465.01 383.85 470.11 381.19 472.42 376.27 472.57 366.16 473.89 360.82 475.95 359.08 480.89 350.27 481.1 347.23 484.45 340.93 485.52 337.24 490.63 335.93 494.8 336.4 499.27 335.41 504.73 336.49 507.06 341.42 510.47 345.09 513.92 345.69 516.92 343.89 521.45 342.76 527.03 342.9 531.03 341.1 537.73 341.37 541.99 338.27 550.47 338.75 554.56 338.24 558.65 342.1 566.37 346.35 568.88 343.44 573.49 346.74 580.13 346.65 586.11 344.96 589.96 346.47 593.15 342.2 600.09 339.57 599.58 337.47 603.29 336.4 606.95 339.31 610.73 337.29 Z" id="32040510"/>
<path d="M 725.79 554.51 720.92 559.63 719.31 558.9 704.61 570.27 701.06 572.39 695.57 577.18 688.83 584.19 678.88 577.54 675.61 579.76 656.76 586.21 650.46 588.7 647.63 591.34 644.8 596 640.37 595.38 639.02 592.65 632.83 589.28 635.72 582.64 633.66 581.28 631.53 586.26 626.98 590.4 621.56 592.85 618.09 593.56 616.94 589.33 616.77 584.54 618.67 576.81 620.61 573.04 617.2 571 616.12 565.75 612.65 559.44 612.65 554.68 616.62 551.68 617.92 546.43 617.24 542.52 620.26 540.39 619.32 535.87 614.69 535.88 618.47 530.12 625.07 529.98 624.98 525.73 629.1 523.21 630.33 519.06 633.76 515.42 631.92 513.45 629.33 507.9 631.44 498.14 630.58 491.26 627.34 488.43 620.77 487.66 620.82 483.35 618.31 463.19 625.3 462.28 628.88 456.63 637.37 453.78 639.6 451.31 643.39 444.94 652.41 438.49 655.18 434.73 656.87 434.33 658.54 441.44 662.58 443.01 662.89 446.47 665.31 446.99 665.83 450.44 679.74 469.49 695.1 490.92 698.41 493.24 720.71 507.4 721 508.06 736.83 518.27 753.12 524.93 750.14 525.33 736.14 519.48 696.51 494.34 694.45 497.23 679.61 507.93 684.95 515.45 689.55 520.45 704.08 511.13 705.15 514.35 693.14 521.97 699.71 532.1 653.94 561.53 663.6 576.49 722.58 538.42 729.22 541.24 731.5 531.84 732.85 532.3 730.13 542.52 720.43 549.15 725.79 554.51 Z" id="32040520"/>
<path d="M 618.31 463.19 620.82 483.35 620.77 487.66 627.34 488.43 630.58 491.26 631.44 498.14 629.33 507.9 631.92 513.45 633.76 515.42 630.33 519.06 629.1 523.21 624.98 525.73 625.07 529.98 618.47 530.12 614.69 535.88 619.32 535.87 620.26 540.39 617.24 542.52 617.92 546.43 616.62 551.68 612.65 554.68 612.65 559.44 616.12 565.75 617.2 571 620.61 573.04 618.67 576.81 616.77 584.54 616.94 589.33 618.09 593.56 621.56 592.85 626.98 590.4 625.32 595.47 623.35 595.88 620.94 600.73 609.75 603.42 600.36 604.54 591.29 604 564.38 605.49 557.88 605.68 551.54 604.71 542.29 605.31 541.74 604.71 530.89 611.57 525.74 613.49 518.76 613.52 514.45 615.33 511.42 620.02 504.41 623.41 503.23 626.73 497.9 627.59 489.74 627.12 485.93 631.22 487.51 634.86 491.08 639.24 490.6 647.37 482.77 662.69 477.65 665.92 475.17 668.84 469.59 670.54 464.23 676.25 454.95 675.18 454.21 677.25 448.92 677.54 441.39 684.56 436.22 684.73 429.76 689.94 426.75 690.06 422.13 692.76 419.44 697.44 418.6 701.04 420.18 712.17 423.89 717.14 421.49 718.95 411.9 720.92 406.71 721.13 400.76 722.72 399.55 724.48 388.54 726.33 384.63 724.68 381.23 726.52 381.76 729.35 379.34 734.31 373.81 736.65 371.3 736.59 366.85 739.38 362.63 736.51 357.17 735.1 357.27 729.49 355.65 727.06 354.7 722.08 352.48 718.34 353.57 712.98 356.57 709.48 357.12 706.57 356.25 702.04 357.11 699.2 360.68 696.45 364.39 687.4 362.24 686.91 361.68 683.45 366.16 680.16 367.1 674.67 365.99 672.77 367.79 667.41 372.51 663.83 371.72 658.54 375.6 656.99 378.19 651.47 382.68 650.97 386.3 645.73 395.69 638.09 406.75 634.73 412.86 635.91 416.6 635.37 421.83 630.5 422.33 627.97 428.34 621.92 431.35 620.23 438.68 623.38 444.26 620.35 443.42 619.21 445.92 613.06 448.67 611.75 451.79 612.92 456.7 616.9 461.25 605.74 462.54 599.31 461.38 595.83 462.05 587.96 464.13 582.5 463.16 580.06 466.23 578.09 468.71 573.59 468.18 567.96 470.9 563.96 471.25 551.9 469.71 549.52 470.63 540.24 468.41 535.21 462.23 525.68 461.24 522.21 461.92 519.6 459.22 517.19 455.96 516.45 450.72 510.86 445.71 507.15 445.45 504.98 442.71 502.23 442.94 496.43 440.46 484.4 442.17 483.14 443.95 477.64 441.81 476.74 440.15 472.97 440.87 470.47 438.9 467.55 439.76 464.34 443.39 463.24 445.08 458.73 445.25 453.11 444.37 448.16 447.16 440.54 454.9 444.16 458.77 444.79 460.23 447.89 463.96 449.8 477.2 453.41 480.49 452.09 484.65 453.44 491.01 453.24 492.8 451.81 500.41 451.22 505.16 457.13 513.26 458.59 522.74 455.48 524.88 455.47 527.29 458.64 531.31 459.36 534.39 457.29 535.99 458.03 543.31 452.92 547.47 455.13 552.74 453.06 560.91 452.26 566.88 453.36 573.13 449.69 578.59 448.84 582.41 449.31 588.15 454.54 590.79 458.86 591.36 462.07 596.88 458.63 597.89 453.66 604.88 457.47 607.61 458.32 609.41 461.68 614.6 463.78 618.31 463.19 Z" id="32040530"/>
<path d="M 559.91 323.2 564.3 321.08 573.82 319.55 577.83 319.57 582.5 315.91 590.04 312.55 593.69 311.96 600.95 312.75 601.13 317.68 613.24 317.42 613.19 315.92 613.89 317.91 614.15 331.44 613.63 336.66 610.73 337.29 606.95 339.31 603.29 336.4 599.58 337.47 600.09 339.57 593.15 342.2 589.96 346.47 586.11 344.96 580.13 346.65 573.49 346.74 568.88 343.44 566.37 346.35 558.65 342.1 554.56 338.24 550.47 338.75 541.99 338.27 537.73 341.37 531.03 341.1 527.03 342.9 521.45 342.76 516.92 343.89 513.92 345.69 510.47 345.09 507.06 341.42 504.73 336.49 499.27 335.41 494.8 336.4 490.63 335.93 485.52 337.24 484.45 340.93 481.1 347.23 480.89 350.27 475.95 359.08 473.89 360.82 472.57 366.16 472.42 376.27 470.11 381.19 465.01 383.85 459.26 390.08 456.14 398.58 451.94 400.3 446.48 401.24 444.18 405.26 437.02 411.58 433.44 407.48 430.97 400.49 430.44 396.98 427.52 392.64 423.81 389.23 419.22 390.24 414.73 381.52 414.52 379.37 411.07 373.98 411.12 372.43 406.38 362.32 403.42 360.39 403.13 355.72 395.16 346.34 397.12 344.21 397.1 339.79 395.39 337.73 397.55 331.15 401.43 328.57 407.61 321.13 411.27 317.97 413.42 318.95 420.57 313.59 431.28 309.5 434.08 306.21 441.54 303.31 446.09 293.69 448.47 295.19 454.49 296.51 460.26 295.26 464.36 296.72 466.65 299.51 474.99 299.63 477.76 301.3 480.15 297.63 484.7 295.41 486.8 292.79 492.23 294.86 495.46 295.15 498.68 297.74 502.14 302.15 504.23 307 510.99 308.24 517.32 307.58 521 309.79 523.98 308.98 536.36 319.17 541.56 320.45 546.3 319.08 549.51 323.03 556.5 322.17 559.91 323.2 Z" id="32040540"/>
<path d="M 559.91 323.2 556.5 322.17 549.51 323.03 546.3 319.08 541.56 320.45 536.36 319.17 523.98 308.98 521 309.79 517.32 307.58 510.99 308.24 504.23 307 502.14 302.15 498.68 297.74 495.46 295.15 492.23 294.86 486.8 292.79 484.7 295.41 480.15 297.63 477.76 301.3 474.99 299.63 466.65 299.51 464.36 296.72 460.26 295.26 454.49 296.51 448.47 295.19 446.09 293.69 449.33 286.27 453.98 279.63 450.52 277.53 453.5 272.08 452.9 265.39 455.99 261.72 456.84 258.75 461.96 257.18 465.31 255.15 466.14 252.48 474.29 244.09 478.77 235.93 478.97 233.13 482.3 231.45 486.97 235.37 489.28 241.28 487.77 245.51 492.44 246.95 494.8 245.86 496.04 242.31 501.12 242.42 502.11 246.16 505.68 243.21 504.73 256.89 503.23 259.68 508.04 261.36 508.79 257.46 519.26 259.33 522.39 260.9 525.82 266.9 528.91 268.74 534.29 274.91 541.47 271.45 553.79 273.39 558.79 271.58 562.04 270.64 564.33 275.07 569.05 276.78 571.34 278.79 571.7 282.39 576.51 282.39 579.37 285.83 573.64 289.54 569.52 293.02 565.95 299.99 563.87 302.69 559.83 305.67 559.33 322.36 559.91 323.2 Z" id="32040550"/>
<path d="M 601.62 268.09 597.9 274.78 607.33 277.03 606.41 280.07 599.98 278.03 600.83 296.73 607.48 301.69 612.01 301.58 612.07 303.64 606.27 303.84 606.5 316.02 613.19 315.92 613.24 317.42 601.13 317.68 600.95 312.75 593.69 311.96 590.04 312.55 582.5 315.91 577.83 319.57 573.82 319.55 564.3 321.08 559.91 323.2 559.33 322.36 559.83 305.67 563.87 302.69 565.95 299.99 569.52 293.02 573.64 289.54 579.37 285.83 576.51 282.39 571.7 282.39 571.34 278.79 569.05 276.78 564.33 275.07 562.04 270.64 558.79 271.58 560.65 270.12 561.66 264.74 565.09 263.26 568.9 263.85 573.96 263.28 573.78 257.3 575.16 257.2 576.67 251.84 575.87 249.16 577.11 246.55 583.35 243.22 582.84 240.57 585.99 243.88 589.64 251.08 592.51 258.96 595.47 263.91 601.62 268.09 Z" id="32040570"/>
<path d="M 601.62 268.09 595.47 263.91 592.51 258.96 589.64 251.08 585.99 243.88 582.84 240.57 582.28 237.98 578.35 233.05 577.54 227.78 575.92 224.99 576.74 216.17 574.66 209.56 569.03 202.3 573.47 197.69 573.45 190.72 574.15 183.77 576.25 179.42 571.18 172.7 570.65 163.43 569.56 160.15 574.22 154.97 572.92 146.5 573.84 137.5 571.63 135.8 577.95 126.58 585.1 120.01 586.97 115.56 590.12 113.98 592.73 112.99 601.63 120.3 610.32 129.24 612.17 135.17 614.79 138.59 615.59 143.32 615.7 150.14 613.35 165.96 616.82 173.85 621.85 179.5 625.2 182.02 628.78 187.46 628.8 191.94 626.31 197.78 628.27 203.81 632.09 208.79 639.4 215.99 638.48 217.02 628.48 207.24 628.55 212.15 630.91 215.4 630.84 224.15 632.85 226.46 635.94 227.69 635.8 231.32 633.94 238.49 634.62 239.97 630.91 247.63 630.85 249.7 626.13 257.61 624.09 264.76 621.27 271.05 621.98 279.41 622.26 290.29 623.26 299.85 628.88 310.48 633.88 321.13 631.01 319.3 625.43 308.85 621.51 299.75 619.54 292.75 618.26 273.93 615.05 267.62 618.26 260.33 616.84 259.84 605.66 260.8 601.62 268.09 Z" id="32040590"/>
<path d="M 799 631.72 790.92 631.82 788.81 629.37 783.78 637.25 780.34 639.81 777.08 640.37 775.71 645.13 775.53 649.52 770.89 654.64 772.25 657.18 767.38 664.03 761.45 676.04 761.35 681.52 759.38 683.35 755.15 683.78 752.93 685.81 749.84 686.19 745.28 682 740.9 681.62 736.68 679.9 725.08 679.64 722.88 681.2 721.03 685.88 718.11 687 714.99 689.89 714.42 692.6 711.4 698.06 710.52 704.31 711.72 711.62 709.58 715.45 708.34 722 704.91 727.36 701.58 729.24 702.64 736.35 700.36 740.6 700.68 743.98 699.09 746.13 695.94 744.4 692.37 746.52 689.34 742.25 685.43 741.51 681.36 736.36 681.62 732.46 675.31 736.2 674.36 731.44 671.54 728.85 662.41 727.26 660.24 729.23 654.99 726.84 652.81 728.43 648.2 724.76 643.32 718.29 640.56 716.89 637.16 713.26 631.62 711.43 629.16 712.21 624.77 710.81 617.93 716.73 616.15 722.14 613.69 726.42 608.49 729.9 601.98 729.4 599.42 730.21 597.48 734.52 593.82 736.04 590.74 735.64 588.12 731.46 584.25 727.82 580.5 728.27 579.32 723.88 576.95 723.08 575.09 720.23 571.25 722.57 568.89 717.63 562.33 716.46 561.27 714.85 555.78 712.5 556.31 708.25 554.22 702.14 544.35 698.91 540.98 702.21 533.15 705.53 529.77 705.04 516.63 710.77 514.03 713.95 505.93 711.44 503.61 715.64 495.2 714.89 491.44 719.16 489.47 724.28 483.71 726.79 473.35 734.44 470.2 735.16 463.71 734.46 459.2 736.17 452.45 731.54 449.68 730.38 446.03 725.89 442.34 726.32 436.75 725.63 431.19 722.23 425.59 716.63 423.89 717.14 420.18 712.17 418.6 701.04 419.44 697.44 422.13 692.76 426.75 690.06 429.76 689.94 436.22 684.73 441.39 684.56 448.92 677.54 454.21 677.25 454.95 675.18 464.23 676.25 469.59 670.54 475.17 668.84 477.65 665.92 482.77 662.69 490.6 647.37 491.08 639.24 487.51 634.86 485.93 631.22 489.74 627.12 497.9 627.59 503.23 626.73 504.41 623.41 511.42 620.02 514.45 615.33 518.76 613.52 525.74 613.49 530.89 611.57 541.74 604.71 542.29 605.31 551.54 604.71 557.88 605.68 564.38 605.49 591.29 604 600.36 604.54 609.75 603.42 620.94 600.73 623.35 595.88 625.32 595.47 626.98 590.4 631.53 586.26 633.66 581.28 635.72 582.64 632.83 589.28 639.02 592.65 640.37 595.38 644.8 596 647.63 591.34 650.46 588.7 656.76 586.21 675.61 579.76 678.88 577.54 688.83 584.19 695.57 577.18 701.06 572.39 704.61 570.27 719.31 558.9 720.92 559.63 725.79 554.51 729.71 556.46 734.9 557.85 743.14 553.93 758.84 572.15 771.22 585.74 774.62 590.16 785.81 603.3 787.64 606.03 790.02 613.82 797.2 614.64 796.94 618.26 794.53 620.51 794.51 624.72 796.04 628.32 799 631.72 Z" id="32040600"/>
<path d="M 590.12 113.98 586.97 115.56 585.1 120.01 577.95 126.58 571.63 135.8 573.84 137.5 572.92 146.5 574.22 154.97 569.56 160.15 570.65 163.43 571.18 172.7 576.25 179.42 574.15 183.77 573.45 190.72 573.47 197.69 569.03 202.3 574.66 209.56 576.74 216.17 575.92 224.99 577.54 227.78 578.35 233.05 582.28 237.98 582.84 240.57 583.35 243.22 577.11 246.55 575.87 249.16 576.67 251.84 575.16 257.2 573.78 257.3 573.96 263.28 568.9 263.85 565.09 263.26 561.66 264.74 560.65 270.12 558.79 271.58 553.79 273.39 541.47 271.45 534.29 274.91 528.91 268.74 525.82 266.9 522.39 260.9 519.26 259.33 508.79 257.46 508.04 261.36 503.23 259.68 504.73 256.89 505.68 243.21 502.11 246.16 501.12 242.42 496.04 242.31 494.8 245.86 492.44 246.95 487.77 245.51 489.28 241.28 486.97 235.37 482.3 231.45 478.97 233.13 478.77 235.93 474.29 244.09 466.14 252.48 465.31 255.15 461.96 257.18 456.84 258.75 455.99 261.72 452.9 265.39 453.5 272.08 450.52 277.53 453.98 279.63 449.33 286.27 446.09 293.69 441.54 303.31 434.08 306.21 431.28 309.5 420.57 313.59 413.42 318.95 411.27 317.97 407.61 321.13 401.43 328.57 397.55 331.15 395.39 337.73 392.11 336.77 387.92 338.13 386.29 340.32 379.2 341.46 375.73 339.76 374.79 335.37 373.31 334.9 373.28 327.72 371.19 324.36 368.13 322.14 366.65 316.99 362.88 313.76 358.66 314.03 355.82 311.16 354.11 307.15 353.82 301.69 350.88 299.1 347.7 294.54 345.29 294.28 343.06 291.52 343.02 289.66 345.77 286.33 344.44 282.26 344.18 275.91 348.47 266.93 353.31 261.19 355 255.14 352.3 252.13 351.51 248.71 349.35 245.32 347.04 239.28 346.6 231.6 348.82 225.48 347.66 222.39 348.94 217.87 348.35 215.33 349.63 209.76 348.06 206.8 347.87 201.76 352.2 196.75 354.71 189.94 354.8 183.88 353.74 177.38 357.46 171.42 356.19 167.5 358.55 157.81 358.87 153.73 356.1 149.06 355.42 143.87 359.83 138.41 359.9 136.83 363.57 132.28 366.36 131.34 371.02 120.82 374.43 119.45 377.06 113.96 375.78 108.27 377.95 95.25 381.35 88.11 383.65 85.47 387.74 83.38 387.89 76.38 383.86 67.92 377.27 58.49 372.03 57.53 371.42 54.69 369.14 52.98 370.81 46.72 371.47 41.02 377.68 41.69 387.39 38.88 393.55 35.7 401.44 36.8 404.53 34.08 408.72 32.46 411.55 32.7 418.17 31.25 422.7 31.01 427.24 26.13 429.56 20.81 439.49 6.19 442.19 5.08 446.21 1 454.68 8.55 466.37 18.11 472.31 23.36 484.25 32.43 499.44 42.75 511.84 53.09 533.51 70.09 540.41 75.15 547.64 79.22 553.71 85.28 559.42 90.24 565.37 94.15 569.67 98.46 579.02 106.14 584.51 111.13 590.12 113.98 Z" id="32040630"/>
<path d="M 343.06 291.52 345.29 294.28 347.7 294.54 350.88 299.1 353.82 301.69 354.11 307.15 355.82 311.16 358.66 314.03 362.88 313.76 366.65 316.99 368.13 322.14 371.19 324.36 373.28 327.72 373.31 334.9 374.79 335.37 375.73 339.76 379.2 341.46 386.29 340.32 387.92 338.13 392.11 336.77 395.39 337.73 397.1 339.79 397.12 344.21 395.16 346.34 403.13 355.72 403.42 360.39 406.38 362.32 411.12 372.43 411.07 373.98 414.52 379.37 414.73 381.52 419.22 390.24 423.81 389.23 427.52 392.64 430.44 396.98 430.97 400.49 433.44 407.48 437.02 411.58 436.05 416.04 437.78 416.33 440.36 419.9 440.27 426.42 444.15 432.18 447.16 440.54 444.37 448.16 445.25 453.11 445.08 458.73 443.39 463.24 439.76 464.34 438.9 467.55 440.87 470.47 440.15 472.97 441.81 476.74 443.95 477.64 442.17 483.14 440.46 484.4 442.94 496.43 442.71 502.23 445.45 504.98 445.71 507.15 450.72 510.86 455.96 516.45 459.22 517.19 461.92 519.6 461.24 522.21 462.23 525.68 468.41 535.21 470.63 540.24 469.71 549.52 471.25 551.9 470.9 563.96 468.18 567.96 468.71 573.59 466.23 578.09 463.16 580.06 464.13 582.5 462.05 587.96 461.38 595.83 462.54 599.31 461.25 605.74 456.7 616.9 451.79 612.92 448.67 611.75 445.92 613.06 443.42 619.21 444.26 620.35 438.68 623.38 431.35 620.23 428.34 621.92 422.33 627.97 421.83 630.5 416.6 635.37 412.86 635.91 406.75 634.73 395.69 638.09 386.3 645.73 382.68 650.97 378.19 651.47 375.6 656.99 371.72 658.54 372.51 663.83 367.79 667.41 365.99 672.77 367.1 674.67 366.16 680.16 361.68 683.45 362.24 686.91 364.39 687.4 360.68 696.45 357.11 699.2 356.25 702.04 357.12 706.57 356.57 709.48 353.57 712.98 352.48 718.34 354.7 722.08 355.65 727.06 357.27 729.49 357.17 735.1 351.52 739.14 347.04 739.66 344.13 741.22 338.93 741.96 337.34 744.8 329.76 750.01 325.83 751.96 317.92 754.19 310.74 759.26 308.26 765.19 308.11 772.88 298.47 779.54 294.82 783.38 288.31 785.99 283.4 786.02 277.32 792.45 274.19 794.1 271.39 800.04 267.31 805.13 251.22 816.19 237.41 822.92 233.91 825.68 227.42 828.61 219.59 835.97 215.44 837.01 209.53 842.34 207.34 847.23 204.11 849.23 202.6 852.81 200.85 866.38 198.39 871.44 197.12 876.41 192.24 885.37 187.77 888 184.18 884.78 181.25 884.19 178.92 879.04 167.64 873.21 165.15 874.02 160.49 870.82 150.81 869.47 142.92 870.16 141.3 867.39 136.18 863.92 123.39 862.28 115.71 856.59 108.86 854.38 96.78 854.31 94.56 853.53 90.23 855.4 87.14 854.24 80.98 859.58 74.5 859.62 68.43 855.46 61.05 852.38 61.75 844.48 56.56 835.78 54.35 833.05 45.21 825.27 36.88 822.12 31.94 817 25.67 816.88 20.83 814.69 14.96 810.25 6.95 807.15 4.95 805.48 3.23 800.15 3.18 796.8 1 793.73 5.15 785.95 6.18 782.61 10.03 775.95 9.94 771.39 18.98 763.93 26.67 753.05 27.16 739.14 26 738.13 25.51 731.18 30.23 724.92 37.53 724.88 44.34 722.93 49.58 718.59 53.1 710.4 62.99 709.54 63.44 702.54 70.38 689.75 76.61 683.33 90.19 679.71 99.93 676.39 105.39 673.86 106.45 668.29 111.68 663.61 109.99 660.05 113.99 654.04 116.14 649.31 113.77 647.93 110.88 644.19 112.56 639.65 115.18 636.05 117.81 629.5 111.01 619.24 108.01 612.65 109.79 607.99 115.47 608.22 118.96 609.58 123.12 607.35 123.43 603.73 121.04 597.8 121.5 592.59 119.08 589.04 119.92 586.91 117.41 576.5 111.65 570.7 110.26 564.29 111.19 561.37 105.4 561.71 102.35 559.31 98.73 561.95 96.79 560.47 94.27 561.45 91.19 559.54 86.2 559.43 83.04 556.03 79.11 560.36 69.71 563.15 66.9 562.39 62.81 565.52 58.74 566.69 55.08 569.87 48.84 564.93 45.46 558.27 44.94 554.77 49.18 545.08 50.05 538.81 52.11 537.34 57.96 528.33 59.23 519.43 62.48 514.83 61.26 511.33 56.67 505.84 53.63 500.18 51.09 500.64 46.7 498.82 42.94 500.87 36.48 499.9 27.42 503.5 24.61 502.35 20.56 491.14 15.77 488.86 15.36 487.15 11.22 482.26 8.97 471.35 7.47 467.21 8.75 464.04 12.62 461.62 12.94 457.91 16.7 455.56 18.37 444.31 20.01 441.94 25.95 437.7 30.78 433.12 33.34 427.12 35.88 416.54 34.83 409.14 30.94 400.41 34.43 394.31 33.11 391.54 35.98 389.02 36.77 381.88 38 378.46 45.78 369.38 48.65 368.63 50.74 365.06 54.13 361.52 66.03 358.74 75.45 361.16 78.91 363.46 85.62 363.68 90.56 361.3 97.61 360.98 102.57 358.66 106.72 358.5 110.31 359.66 111.65 357.6 112.87 351.72 115.8 348.84 115.57 346.41 123.28 336.88 136.92 323.36 140.75 320.58 146.36 318.67 148.91 315.97 152.37 314.51 168.49 314.13 171.58 319.8 177.78 318.97 185.83 321.52 191.06 321.84 199.94 328.13 204.23 328.57 211.15 330.66 215.92 330.02 221.27 328.13 226.98 334.12 231.63 335.26 236.32 333.44 241.77 329.18 245.93 324.63 245.74 322.72 249.36 318.12 250.34 315.44 254.06 311.31 257.47 304.36 259.26 299.25 263.63 296.42 267.16 296.13 269.66 293.44 280.34 289.66 287.63 287.85 291.44 289.45 298.25 286.7 305.56 279.76 307.11 277.04 311.43 277.75 311.86 281.14 316.4 288.76 320.2 289.57 326.11 288.34 330.93 291.69 333.01 294.11 338.53 293.46 343.06 291.52 Z" id="32040650"/>
</g>
</svg>