<?xml version="1.0"?>
<svg xmlns="http://www.w3.org/2000/svg" version="1.2" baseProfile="tiny" width="800" height="1247" viewBox="0 0 800 1247" stroke-linecap="round" stroke-linejoin="round">
<g id="dong">
<path d="M 469.34 841.38 473.8 844.34 480.61 854.27 483.78 860.35 486.03 862.74 490.05 863.36 497.89 868.62 495.79 872.74 495.88 879.38 495.18 884.54 493.87 887.15 496.04 891.78 494.22 895.23 496.15 899.04 496.46 901.67 495.28 905.49 497.34 908.37 496.53 915.15 503.66 919.7 507.9 923.93 517.57 923.38 519.27 925.56 520.12 929.64 517.85 936.32 520.17 943.69 524.25 949.99 525.24 953.38 524.78 956.17 526.77 959.67 531.61 963.49 531.07 966.37 534.59 971.62 534.39 975.86 535.63 978.95 536.16 983.29 537.66 984.21 530.51 987.31 528.63 986.69 525.44 989.35 519.65 990.79 517.15 993.16 515.39 999.31 515.48 1002.88 513.78 1003.86 512.57 1007.16 512.29 1015.35 510.65 1019.28 508.32 1022.25 507.13 1026.43 499.48 1028.15 496.86 1026.31 493.75 1026.12 492.54 1022.24 488.2 1019.58 484.51 1013.71 483.4 1012.14 486.15 1000.88 485.79 997.37 483.81 995.19 479.81 995.54 474.67 1001.65 469.85 1004.71 464.17 1004.27 464.19 1001.33 461.19 998.25 455.78 997.79 453.77 998.98 450.58 996.76 448.26 997.27 447.96 1001.09 446.14 1008.35 448.64 1012.75 446.01 1016.84 443.74 1017.77 438.12 1022.89 436.13 1026.16 436.66 1027.68 430.39 1032 427.07 1036.89 427.39 1041.6 424.96 1046.42 425.77 1050.22 428.13 1054.15 422.66 1058 419.25 1058.69 416.06 1057.97 409.37 1062.47 406.3 1065.63 402.54 1067.06 399.96 1071 396.53 1074.55 391.21 1076.52 386.78 1077.39 384.25 1080.08 383.32 1088.01 376.28 1089.21 374.22 1089.05 367.6 1085.95 361.54 1083.82 353.82 1082.44 346.4 1084.42 338.26 1080.64 336.5 1080.79 331.24 1077.25 328.53 1076.82 319.98 1072 316.49 1078.22 313.39 1081.67 307.61 1085.41 301.08 1092.6 296 1095 291.16 1095.42 286.62 1097.25 281.31 1100.19 278.12 1100.62 276.21 1102.2 271.17 1103.14 269.53 1104.3 258.07 1104.19 256.13 1106.2 248.93 1107.01 245.24 1110.1 237.02 1110.69 232.64 1111.73 228.99 1115.82 213.06 1114.21 209.19 1112.04 202.61 1112.43 198.38 1111.02 193.06 1114.11 191.56 1117.63 187.6 1121.17 185.25 1124.79 180.18 1138.76 174.07 1145.05 170.32 1148.21 175.49 1155.23 178.17 1163.79 177.27 1169.92 171.7 1175.45 167.94 1181.72 168.38 1186.12 164.84 1194.58 161.46 1199.19 156.68 1203.23 154.5 1207.3 155.17 1209.9 155.11 1215.57 144.1 1222.06 140.51 1224.86 136.67 1226.16 123.83 1222.87 114.9 1223.63 106.03 1232.15 105.92 1234.24 103.06 1237.05 99.13 1237.84 93.22 1241.64 90.39 1244.24 79.13 1246 74.61 1244.14 72.88 1242.62 71.14 1237.01 68.4 1233.67 68.02 1228.02 62.36 1222.3 57.24 1219.58 50.86 1214.77 46.74 1209.74 42.47 1207.15 36.41 1201.8 33.38 1196.39 33.1 1191.36 30.59 1186.9 30.61 1179.88 31.33 1178.1 29.32 1173.31 33.04 1173.8 37.57 1171.54 41.84 1168.45 45.93 1167.26 53.68 1162.55 56.91 1157.74 62.49 1150.5 65.37 1148.92 64.97 1144.27 66.3 1140.59 65.89 1136.99 67.17 1125.68 70.23 1123.95 75.85 1117.8 77.13 1115.23 75.99 1108.06 74.72 1106.83 74.25 1098.97 72.54 1098.28 69.64 1091.21 69.19 1085.41 70.8 1080.88 72.24 1071.74 69.87 1068.64 67.35 1067.37 58.54 1066.46 52.82 1061.61 49.19 1060.6 41.99 1060.32 39.63 1058.44 36.03 1050.79 30.34 1044.86 25.66 1043.81 20.98 1045.94 12.66 1045.69 6.82 1049.54 4.65 1048.97 1.63 1044.47 1 1042 4.58 1041.49 8.85 1037.8 8.24 1027.69 11.51 1024.84 12.1 1021 18.73 1018.53 23.59 1020.1 25.96 1019.78 31.87 1016.43 36.75 1010.5 36.73 1007.84 39.76 1007.73 43.2 1003.07 43.64 998.32 47.64 997.28 51.52 995.11 55.65 994.76 55.97 991.47 60.3 986.66 64.61 986.02 66.73 984.59 70.71 977.07 76.66 971.46 74.72 965.88 74.32 961.3 75.51 953.74 71.96 947.54 72.57 944.22 72.01 940.29 69.56 935.39 67.9 929.01 68.37 924.15 67.56 921.05 68.99 914.77 70.46 912.06 70.57 905.68 71.53 900.3 75.04 893.86 79.98 886.83 86.31 884.18 87.61 881.49 91.39 877.42 94.37 875.65 98.56 875.53 103.07 873.06 107.37 873.58 114.07 873.26 118.51 870.16 124.88 869.4 129.56 867.26 136.85 869.37 144.14 868.98 150.05 864.78 153.67 862.96 155.73 859.58 161.18 844.81 163.66 842.44 166.27 836.05 167.08 831.47 170.37 824.91 169.71 818.49 172.36 810.74 172.5 810.85 173.97 811.95 183.04 810.74 187.86 814.74 191.52 818.88 192.77 822.91 196.78 826.05 204.84 823.82 210.93 823.35 216.06 826.35 220.21 830.35 224.76 830.87 232.86 834.39 235.95 832.89 238.04 833.13 246.96 840.78 249.79 840.17 254.08 841.88 259.58 845.88 261.51 851.66 265.89 856.64 267.26 859.26 271.1 863.2 276.46 864.41 277.5 866.28 281.9 866.89 283.58 868.11 284.14 871.07 287.23 872.85 293.3 872.26 300.55 870.72 304.17 874.08 310.06 878.24 317.41 880.82 320.74 881.09 322.73 885.49 321.55 887.78 320.32 894.08 322.57 897.97 322.77 903.57 325.22 906 331.45 908.83 334.61 911.31 344.34 912.5 355.38 903.6 359.95 901.08 364.41 899.77 367.48 894.18 370.62 891.51 378.37 888.13 382.77 892.17 386.9 888.93 392.77 885.54 395.8 888.1 400.36 893.84 399.8 897.15 403.29 901.01 406.02 902.14 407.27 907.27 412.72 911.28 412.92 916.09 419.56 917 422.97 918.38 429.61 914.14 432.13 913.23 435.71 913.99 438.06 913.01 443.34 912.89 445.74 911.03 450.91 908.85 452.54 903.81 453.11 898.07 452.36 884.82 457.31 882.9 460.01 878.56 463.28 876.47 465.28 873.36 467.79 872.02 467.67 868.4 466.06 865.98 467.96 862.27 468.09 855.3 469.04 853.86 466.92 849.39 467.29 843.69 469.34 841.38 Z" id="32050620"/>
<path d="M 451.43 601.89 455.72 604.58 460.2 609.82 459.72 615.22 460.36 621.13 458.41 623.31 463.29 624.64 466.3 627.88 470.92 630.19 473.84 629.53 476.58 632.87 480.82 630.91 482.24 638.34 487.58 641.49 484.41 649.82 484.85 654.27 481.07 658.69 485.44 662.25 489.07 674.54 491.73 677.05 492.77 679.46 492.35 682.3 494.78 685.33 496.83 693.46 500.17 697.97 503.85 700.38 511.32 702.14 514.46 710.75 515.45 715.34 522.32 719.22 527.43 720.37 532.01 722.83 534.56 726.57 538.67 726.27 542.9 729.85 545.84 730.32 548.63 733.09 548.84 736.02 551.2 737.54 553.26 742.6 559.34 744.13 564.36 744.37 569.71 741.62 572.51 738.81 577.34 741.61 578.59 739.81 582.29 739.95 585.69 737.94 592.44 743.21 599.17 742.65 603.62 746.58 606.69 750.5 610.71 752.01 615.75 755.52 621.46 753.45 625.07 751.26 627.95 751.92 631.47 757.41 637.6 762.74 641.06 761.06 644.72 761.02 646.82 759.33 649.99 759.38 659.35 757.41 662.31 756.26 664.77 758 668.63 758.75 673.55 756.87 675.84 758.21 683.57 758.84 690.9 760.75 694.01 763.14 709.24 761.27 712.77 764.89 712.77 767.8 715.97 770.55 716.17 772.93 719 778.32 719.58 783.65 718.28 789.07 717.82 796.26 710.47 803.65 717.96 805.53 722.9 804.67 725.18 803.29 737.13 804.58 745.43 804.28 747.68 802.33 755.18 801.96 758.73 805.36 761.87 804.76 764.09 808.16 768.71 810.98 769.72 818.32 768.55 821.58 771.04 825.99 769.68 827.15 766.94 836.16 770.55 839.54 771.49 845.12 771.73 850.39 769.17 856.8 771.19 863.69 773.3 867.85 770.53 873.14 769.82 877.26 767.71 879.64 766.98 882.6 763.14 884.23 758.6 888.51 754.62 890.3 751.47 890.72 742.77 888.49 738.47 890.24 731.42 887.95 722.94 881.69 716.25 881.28 711.97 875.74 702.07 876.47 696.28 876.06 694.33 874.31 687.04 876.61 683.57 876.52 681.18 872.63 679.85 872.06 676.6 874.25 673.24 875.16 670.56 878.07 666.07 881.32 662.34 888.35 659.91 889.03 651.42 884.27 648.44 884.65 644.5 886.42 631.73 889.03 626.72 887.69 622.24 889.6 617.41 895.32 615.04 897.32 614.7 900.07 609.34 907.31 608.25 910.36 605.18 914.37 601.49 913.1 598.24 913.38 594.1 916.23 591.4 916.87 585.49 915.72 581.65 912.33 578.72 908.44 575.96 907.65 572.6 910.4 567.14 911.99 564.34 916.92 557.66 920.28 552.08 925.25 544.21 922.82 537.57 926.96 534.46 924.81 528.92 924.55 526.44 925.51 519.27 925.56 517.57 923.38 507.9 923.93 503.66 919.7 496.53 915.15 497.34 908.37 495.28 905.49 496.46 901.67 496.15 899.04 494.22 895.23 496.04 891.78 493.87 887.15 495.18 884.54 495.88 879.38 495.79 872.74 497.89 868.62 490.05 863.36 486.03 862.74 483.78 860.35 480.61 854.27 473.8 844.34 469.34 841.38 470.81 836.23 473.74 832.32 475.43 827.26 475.71 822.94 479.02 815.6 478.04 812.76 477.96 807.88 474.65 804.58 473 798.97 475.66 791.86 475.8 786.37 476.62 782.7 476.29 778.9 477.06 775.72 482.49 768.12 479.01 761.71 479.62 752.76 478.5 749.1 475.67 743.8 472.47 729.71 469.1 725.38 466 723.3 451.62 720.99 450.52 718.86 445.75 715.96 444.13 715.76 441.59 720.12 441.29 724.34 436.76 729.89 426.34 734.02 428.56 738.54 424.96 739.39 420.31 744.13 409.24 733.62 405.67 731.16 399.39 729.04 395.82 735.1 393.92 735.57 389.57 734.51 384.02 730.74 386.44 728.74 386.95 724.73 384.79 722.5 383.03 717.78 383.64 715.29 381.97 713.16 382.53 707.83 381.09 703.93 374.37 703.01 371.35 700.27 367.96 698.47 361.76 696.68 359.29 697.02 358.12 681.12 359.29 679.83 357.31 673.32 358.13 669.46 360.74 663.39 358.98 659 353.66 653.85 351.07 650.51 351.26 647.17 348.61 642.82 347.7 639.18 349.16 634.75 346.97 625.62 347.52 618.44 342.64 594.81 340.45 586.04 344.02 585.2 347.18 586.74 351.11 587.41 352.24 585.84 355.09 586.15 363.67 582.53 365.57 577.96 368.85 576.45 371.16 573.81 376.22 571.6 378.91 571.63 382.68 568.87 386.58 581.86 390.48 581.84 399.21 568.79 404.22 570.56 409.94 568.3 414.41 567.74 419.06 573.88 421.59 583.78 425.53 588.6 426.67 591.52 434.72 597.37 440.05 600.31 442.88 603.68 445.23 604.7 448.07 604.11 451.43 601.89 Z" id="32050520"/>
<path d="M 510.65 183.47 509.44 184.78 502.64 195.3 494.71 199.6 490.9 204.21 488.34 208.55 488.48 210.05 485.43 214.65 482.43 217.62 477.73 220.56 475.93 220.88 472.77 227.27 469.15 230.53 467.1 233.91 466.37 242.84 461.34 250.47 465.63 256.51 468.13 258.4 468.81 263.5 470.7 267.81 471.59 271.72 469.44 274.55 475.04 276.26 480.75 276.53 482.07 280.48 485.28 284.26 490.59 289.08 498.1 291.88 495.08 295.76 495.83 301.37 498.11 307.07 501.23 309.3 501.91 311.47 496.19 314.67 493.53 317.96 491.75 318.76 488.46 322.6 488.03 327.2 485.33 330.2 477.24 328.41 477.49 332.86 475.67 336.12 474.51 342.35 472.5 344.06 469.63 355.39 467.98 357.69 471.42 359.42 473.26 362.44 478.61 368.74 479.42 370.39 485.15 375.52 486.52 380.42 487.32 387.54 487.34 393.25 486.09 394.98 482.15 391.29 481.28 388.4 479.36 388.11 478.5 391.21 476.28 391.37 475.48 393.96 476.96 395.31 478.92 402 476.42 408.58 475.97 413.33 472.38 414.3 467.13 414.38 462.21 413.45 457.07 415.31 456.92 419.95 460.21 421.8 457.31 424.76 453.56 430.36 455.61 434.23 454.54 436.28 458.12 441.01 452.04 443.2 451.06 445.95 446.89 447.79 440.83 447 436.11 441.64 430.9 441.74 427.18 443.83 419.58 450.65 417.25 456.59 417.39 458.71 420.22 460.01 421.21 463.82 425.3 467.75 425.37 475.15 427.52 480.51 429.09 482.6 431.74 482.21 440.47 482.38 442.38 485.61 444.9 485.34 449.74 481.94 455.12 479.92 457.54 480.38 460.15 482.63 467.63 481.71 470.2 482.34 473.32 486.07 478.87 489.14 480.64 492.91 478.76 493.52 472.43 498.86 472.21 501.31 476.49 501.96 479.87 504.32 481.59 508.2 478.99 513.25 476.32 515.46 474.54 514.91 469.41 517.33 470.12 520.84 474.19 524.47 476.93 527.96 482.41 530.18 483.4 534.44 488.83 539.87 490.7 544.17 484.44 544.18 481.02 546.14 476.53 546.79 471.06 549.53 467.26 549.7 462.32 552.34 458.84 555.31 454.35 557.59 457.99 564.52 458.79 570.11 455.98 575.18 454.61 583.8 456.02 588.86 454.93 594.72 455.84 596.76 451.43 601.89 448.07 604.11 445.23 604.7 442.88 603.68 440.05 600.31 434.72 597.37 426.67 591.52 425.53 588.6 421.59 583.78 419.06 573.88 414.41 567.74 409.94 568.3 404.22 570.56 399.21 568.79 390.48 581.84 386.58 581.86 382.68 568.87 378.91 571.63 376.22 571.6 371.16 573.81 368.85 576.45 365.57 577.96 363.67 582.53 355.09 586.15 352.24 585.84 351.11 587.41 347.18 586.74 344.02 585.2 340.45 586.04 342.64 594.81 347.52 618.44 346.97 625.62 349.16 634.75 347.7 639.18 348.61 642.82 351.26 647.17 351.07 650.51 353.66 653.85 358.98 659 360.74 663.39 358.13 669.46 357.31 673.32 359.29 679.83 358.12 681.12 359.29 697.02 361.76 696.68 367.96 698.47 371.35 700.27 374.37 703.01 381.09 703.93 382.53 707.83 381.97 713.16 383.64 715.29 383.03 717.78 384.79 722.5 386.95 724.73 386.44 728.74 384.02 730.74 389.57 734.51 393.92 735.57 395.82 735.1 399.39 729.04 405.67 731.16 409.24 733.62 420.31 744.13 430.19 754.1 426.16 757.62 421.01 757.07 416.44 750.41 414.05 748.37 411.95 752.02 413.82 756.33 409.32 758.2 407.17 754.57 404.88 754.88 397.63 760.11 390.52 764.25 385.01 768.03 379.73 767.98 373.57 769.22 368.69 769.35 361.21 770.8 357.65 772.43 344.1 776.16 333.59 777.31 330.07 780.34 326.14 781.07 320.3 783.84 319.11 779.94 317.03 776.84 310.58 776.13 306.37 774.49 300.63 774.37 293.02 769.3 284.45 764.72 279.94 763.06 276.87 766.27 268.94 766.32 259.86 775.6 258.6 772.24 253.2 770.92 243.24 769.35 238.37 770.95 236.11 772.68 233.46 772.18 218.69 777.26 215.85 777.97 209.46 782.29 205.55 786.81 172.5 810.85 172.36 810.74 172.78 805.64 172.11 801.96 169.83 795.56 169.4 788.02 167.72 780.9 165.76 775.02 162.58 769.75 157.4 764.65 154.15 756.56 152.79 748.9 153.15 745.87 150.9 741 151.4 739.6 157.09 733.35 158.18 729.3 161.06 725.47 158.47 715.62 156.91 707.07 153.48 704.02 153.73 697.95 152.93 692.45 154.84 680.63 152.2 675.88 150.28 670.35 153.3 664.41 149.86 659.58 147.97 655.54 148.7 650.46 152.52 641.73 157.27 633.59 158.66 627.43 161.38 621.63 161.45 616.33 163.05 612.55 162.13 604.79 160.74 597.27 162.56 590.09 147.04 584.43 144.53 576.07 138.25 573.34 133.92 570.2 141.05 564.87 143.66 555.92 148.87 548.59 151.31 546.52 153.96 542.2 158.8 539.05 164.83 530.43 164.03 518.39 165.33 515.35 164.98 504.19 166.6 500.62 166.9 495.74 165.93 490.13 168.31 486.68 168.66 481.76 166.3 469.76 167.18 467.12 177.07 461.72 183.03 459.85 187.07 454.97 194.48 456.92 199.22 458.94 207.15 463.39 209.77 459.13 214.5 455.15 215.57 450.37 217.52 447.88 226.85 442.77 224.75 438.33 223.72 423.17 222.94 420.2 218.61 409.01 218.98 403.04 223.73 393.98 224.44 391.31 221.18 390.9 219.16 392.49 214.73 391.32 210.69 384.25 209.6 369.67 210.11 368.4 205.51 364.93 202.75 357.78 202.09 353.42 203.33 349.82 202.79 346.34 198.64 342.43 197.39 335.53 194.03 333.82 188.93 328.67 186.03 323.37 192.25 318.07 197.46 319.68 200.21 319.55 205.38 317.83 207.25 316.25 219.45 321.96 228.45 317.41 230.85 306.31 243.53 294.23 244.58 286.87 240.86 281.1 238.08 274.66 241.55 266.03 244.92 263.93 245.62 259.77 244.67 258.32 244.42 252.76 247.39 252.4 249.55 250.56 255.92 247.65 259.01 248.78 261.36 246.57 257.37 237.42 255.78 230.61 253.81 227.93 251.59 223.06 247.43 218.9 246.31 214.53 249.79 206.45 250.57 202.7 250.34 192.6 248.99 180.12 253.41 176.46 254.24 174.91 257.52 173.96 263.59 170.96 266.96 168.65 275.54 169.75 282.07 154.59 283.49 145.99 285.63 144.9 284.71 141.38 289.31 134.51 292.45 131.59 295.49 124.34 296.2 115.48 298.26 111.22 298.67 106.01 308.44 96.21 308.94 94.05 312.97 87.25 316 85.28 317.9 80.73 317.81 76.99 319.53 73.93 323.04 72.98 325.39 70.94 326.28 68.32 330.61 65 335.06 56.84 335.84 49.33 334.86 46.19 336.74 41.61 339.41 42.97 342.53 49.84 342.9 52.34 352.97 49.32 360 45.5 362.67 45.39 367.35 43.14 372.43 43.86 380.89 43.85 386.7 46.27 391.37 47.06 398.13 45.1 401.57 45.46 403.15 46.9 406.24 47.24 410.06 52.21 414.35 46.18 419.16 43.96 427.15 43.54 431.2 39.9 433.49 38.85 440.95 32.49 440.69 25.97 443.41 25.46 447.68 21.26 450.76 13.8 451.04 9.45 460.13 5.39 468.55 1 471.39 1.15 477.72 13.63 475.86 20.19 477.35 24.81 479.23 26.62 486.88 30.05 493 31.85 492.19 34.96 487.51 37.93 486.78 42.86 483.15 49.09 474.36 52 473.61 60 466.32 59.9 463.48 64.23 462.33 68.52 459.42 72.69 459.14 79.78 453.65 80.22 443.51 87.65 437.62 93.29 440.22 95.71 442.13 100.98 442.87 106.44 439.2 116.37 439.67 117.52 447.6 119.25 450.94 119.51 454.95 121.85 456.79 127.88 463.16 135.8 465.85 136.89 467.82 143.05 469.56 142.77 474.69 146.56 477.41 146.44 478.77 149.41 484.12 148.48 488.04 155.17 489.76 160.66 491.69 164.57 496.22 165.88 500.27 172.8 501.74 176.22 508.09 176.29 509.38 181.42 510.65 183.47 Z" id="32050530"/>
<path d="M 794.91 1048.15 794.68 1053.21 799 1062.6 794.71 1066.73 787.78 1070.14 784.01 1076.29 774.53 1076.62 770.8 1077.18 762.28 1082.87 758.2 1087.5 754.31 1090.68 747.86 1093.98 744.97 1093.32 741.25 1095.63 734.43 1095.93 730.42 1102.39 727.77 1104.14 724.84 1104.72 720.5 1109.03 719.25 1111.26 715.18 1115.55 712.08 1117.19 711.14 1120.51 713.93 1129.96 713.83 1135.49 711.58 1136.09 706.95 1144.41 701.36 1148.99 696.17 1158.8 696.94 1161.32 700.91 1165.46 700.92 1167.66 702.74 1169.8 702.13 1175.99 702.72 1177.39 698.85 1181.43 696.88 1187.98 695.45 1189.32 695.17 1193.6 693.54 1195.2 691.36 1203.84 685.04 1204.72 680.18 1214.9 676.56 1216.27 675.92 1218.07 668.84 1219.09 665.71 1218.56 665.01 1216.01 666.29 1208.96 667.4 1206.71 661.99 1202.2 659.1 1200.7 657.47 1198.57 654.49 1197 648.83 1204.01 651.02 1207.09 647.34 1207.45 642.76 1205.07 636.68 1197.85 632.58 1196.49 626.84 1196.16 620.75 1193.76 614.04 1194.08 611.92 1190.19 608.63 1188.36 604.69 1181.19 596.45 1177.86 595.42 1172.22 590.69 1174.39 587.7 1174.68 580.67 1177.98 576.65 1173.46 573.59 1168.94 570.33 1169.26 558.1 1166.12 552.22 1163.67 547.79 1164.66 543.73 1170.17 540.19 1171.79 535.51 1170.09 532.35 1165.71 527.73 1163.69 520.08 1159.2 515.71 1163.56 507.19 1163.65 504.88 1164.31 500.66 1163.88 496.71 1161.67 492.69 1161.69 490.84 1160.54 480.75 1159.62 478.31 1157.54 469.23 1156.63 464.96 1154.29 462.76 1151.96 457.38 1150.91 454.53 1153.02 447.13 1149.68 440.35 1149.04 436.29 1147.76 442.84 1143.67 449.66 1135.29 452.29 1137.59 454.98 1137.35 457.15 1135.44 460.67 1134.46 462.81 1132.04 469.93 1129.9 475.8 1127.43 473.5 1121.09 470.91 1117.93 474.27 1110.41 481.3 1103.65 480.47 1100.5 481.26 1096.53 481.15 1091.64 493.24 1085.68 503.44 1077.07 510.63 1072.11 511.65 1069 514.43 1066.26 510.71 1055.26 506.42 1054.21 507.38 1045.26 505.35 1046.77 492.63 1041.03 488.83 1041.76 487.96 1040.66 483.47 1041.01 486.2 1037.28 486.15 1033.33 482.52 1029.37 483.38 1026.06 481.73 1021.83 483.14 1015.4 484.51 1013.71 488.2 1019.58 492.54 1022.24 493.75 1026.12 496.86 1026.31 499.48 1028.15 507.13 1026.43 508.32 1022.25 510.65 1019.28 512.29 1015.35 512.57 1007.16 513.78 1003.86 515.48 1002.88 515.39 999.31 517.15 993.16 519.65 990.79 525.44 989.35 528.63 986.69 530.51 987.31 537.66 984.21 543.03 985.96 541.42 990.36 543.44 993.9 541.91 1000.52 546.12 1003.41 546.9 1005.55 550.04 1008.81 554.67 1011.14 556.64 1015 557.25 1020.28 560.39 1023.19 563.39 1027.58 563.08 1030.41 565.2 1031.33 570.25 1038.16 572.09 1041.98 580.5 1043.02 589.5 1028.62 591.51 1030.31 595.57 1030.84 594.28 1027.93 592.93 1021.83 608.1 1018.29 609.85 1013.96 614.55 1013.07 619.18 1015.62 622.12 1014.28 625.44 1015.35 636.9 1015.86 642.27 1013.67 645.66 1010.39 647.85 1009.57 649.36 1005.81 654.75 1004.27 663.12 1008.14 662.64 1012.05 660.46 1021.7 665.99 1023.63 673.73 1022.11 681.17 1021.54 685.36 1021.89 689.45 1020.54 695.26 1023.09 697.61 1022.73 699.87 1025.92 706.2 1024.8 708.84 1025.53 712.42 1023.74 714.94 1024.56 724.27 1021.42 727.97 1024.91 732.61 1027.51 736.1 1028.21 739.15 1030.58 741.66 1030.11 748.76 1031.33 751.43 1033.49 756.61 1033.34 759.36 1032.45 763.31 1035.29 764.58 1037.67 770.2 1041.63 772.54 1045.8 779.68 1051.15 787.2 1054.02 791.31 1051.7 794.91 1048.15 Z" id="32050550"/>
<path d="M 770.53 873.14 779.1 876.18 783.53 880.08 787.26 880.53 788.68 888.32 790.3 892.72 794.32 896.62 792.66 903.24 790.26 906.11 788.37 910.53 788.4 915.1 786.03 927.43 778.96 935.28 780.04 944.15 777.15 954.58 774.54 958.34 773.74 961.8 777.54 964.93 778.68 973.24 781 976.11 783.64 977.49 784.23 979.46 781.06 985.49 775.76 988.55 771.4 999.55 770.97 1005.12 773.27 1006.7 778.35 1017.19 780.84 1025.28 791.71 1040.01 791.3 1041.36 794.91 1048.15 791.31 1051.7 787.2 1054.02 779.68 1051.15 772.54 1045.8 770.2 1041.63 764.58 1037.67 763.31 1035.29 759.36 1032.45 756.61 1033.34 751.43 1033.49 748.76 1031.33 741.66 1030.11 739.15 1030.58 736.1 1028.21 732.61 1027.51 727.97 1024.91 724.27 1021.42 714.94 1024.56 712.42 1023.74 708.84 1025.53 706.2 1024.8 699.87 1025.92 697.61 1022.73 695.26 1023.09 689.45 1020.54 685.36 1021.89 681.17 1021.54 673.73 1022.11 665.99 1023.63 660.46 1021.7 662.64 1012.05 663.12 1008.14 654.75 1004.27 649.36 1005.81 647.85 1009.57 645.66 1010.39 642.27 1013.67 636.9 1015.86 625.44 1015.35 622.12 1014.28 619.18 1015.62 614.55 1013.07 609.85 1013.96 608.1 1018.29 592.93 1021.83 594.28 1027.93 595.57 1030.84 591.51 1030.31 589.5 1028.62 580.5 1043.02 572.09 1041.98 570.25 1038.16 565.2 1031.33 563.08 1030.41 563.39 1027.58 560.39 1023.19 557.25 1020.28 556.64 1015 554.67 1011.14 550.04 1008.81 546.9 1005.55 546.12 1003.41 541.91 1000.52 543.44 993.9 541.42 990.36 543.03 985.96 537.66 984.21 536.16 983.29 535.63 978.95 534.39 975.86 534.59 971.62 531.07 966.37 531.61 963.49 526.77 959.67 524.78 956.17 525.24 953.38 524.25 949.99 520.17 943.69 517.85 936.32 520.12 929.64 519.27 925.56 526.44 925.51 528.92 924.55 534.46 924.81 537.57 926.96 544.21 922.82 552.08 925.25 557.66 920.28 564.34 916.92 567.14 911.99 572.6 910.4 575.96 907.65 578.72 908.44 581.65 912.33 585.49 915.72 591.4 916.87 594.1 916.23 598.24 913.38 601.49 913.1 605.18 914.37 608.25 910.36 609.34 907.31 614.7 900.07 615.04 897.32 617.41 895.32 622.24 889.6 626.72 887.69 631.73 889.03 644.5 886.42 648.44 884.65 651.42 884.27 659.91 889.03 662.34 888.35 666.07 881.32 670.56 878.07 673.24 875.16 676.6 874.25 679.85 872.06 681.18 872.63 683.57 876.52 687.04 876.61 694.33 874.31 696.28 876.06 702.07 876.47 711.97 875.74 716.25 881.28 722.94 881.69 731.42 887.95 738.47 890.24 742.77 888.49 751.47 890.72 754.62 890.3 758.6 888.51 763.14 884.23 766.98 882.6 767.71 879.64 769.82 877.26 770.53 873.14 Z" id="32050580"/>
<path d="M 479.02 815.6 432.37 796.56 429.39 797.05 429.37 794.49 421.89 795.16 415.11 792.62 411.7 789.22 408.81 789.21 405.76 785.39 395.47 779.1 391.68 775.53 389.87 771.74 391.08 770.1 390.52 764.25 397.63 760.11 404.88 754.88 407.17 754.57 409.32 758.2 413.82 756.33 411.95 752.02 414.05 748.37 416.44 750.41 421.01 757.07 426.16 757.62 430.19 754.1 420.31 744.13 424.96 739.39 428.56 738.54 426.34 734.02 436.76 729.89 441.29 724.34 441.59 720.12 444.13 715.76 445.75 715.96 450.52 718.86 451.62 720.99 466 723.3 469.1 725.38 472.47 729.71 475.67 743.8 478.5 749.1 479.62 752.76 479.01 761.71 482.49 768.12 477.06 775.72 476.29 778.9 476.62 782.7 475.8 786.37 475.66 791.86 473 798.97 474.65 804.58 477.96 807.88 478.04 812.76 479.02 815.6 Z" id="32050510"/>
<path d="M 390.52 764.25 391.08 770.1 389.87 771.74 391.68 775.53 395.47 779.1 405.76 785.39 408.81 789.21 411.7 789.22 415.11 792.62 421.89 795.16 429.37 794.49 429.39 797.05 432.37 796.56 479.02 815.6 475.71 822.94 475.43 827.26 473.74 832.32 470.81 836.23 469.34 841.38 467.29 843.69 466.92 849.39 469.04 853.86 468.09 855.3 467.96 862.27 466.06 865.98 467.67 868.4 467.79 872.02 465.28 873.36 463.28 876.47 460.01 878.56 457.31 882.9 452.36 884.82 453.11 898.07 452.54 903.81 450.91 908.85 445.74 911.03 443.34 912.89 438.06 913.01 435.71 913.99 432.13 913.23 429.61 914.14 422.97 918.38 419.56 917 412.92 916.09 412.72 911.28 407.27 907.27 406.02 902.14 403.29 901.01 399.8 897.15 400.36 893.84 395.8 888.1 392.77 885.54 386.9 888.93 382.77 892.17 378.37 888.13 370.62 891.51 367.48 894.18 364.41 899.77 359.95 901.08 355.38 903.6 344.34 912.5 334.61 911.31 331.45 908.83 325.22 906 322.77 903.57 322.57 897.97 320.32 894.08 321.55 887.78 322.73 885.49 320.74 881.09 317.41 880.82 310.06 878.24 304.17 874.08 300.55 870.72 293.3 872.26 287.23 872.85 284.14 871.07 283.58 868.11 281.9 866.89 277.5 866.28 276.46 864.41 271.1 863.2 267.26 859.26 265.89 856.64 261.51 851.66 259.58 845.88 254.08 841.88 249.79 840.17 246.96 840.78 238.04 833.13 235.95 832.89 232.86 834.39 224.76 830.87 220.21 830.35 216.06 826.35 210.93 823.35 204.84 823.82 196.78 826.05 192.77 822.91 191.52 818.88 187.86 814.74 183.04 810.74 173.97 811.95 172.5 810.85 205.55 786.81 209.46 782.29 215.85 777.97 218.69 777.26 233.46 772.18 236.11 772.68 238.37 770.95 243.24 769.35 253.2 770.92 258.6 772.24 259.86 775.6 268.94 766.32 276.87 766.27 279.94 763.06 284.45 764.72 293.02 769.3 300.63 774.37 306.37 774.49 310.58 776.13 317.03 776.84 319.11 779.94 320.3 783.84 326.14 781.07 330.07 780.34 333.59 777.31 344.1 776.16 357.65 772.43 361.21 770.8 368.69 769.35 373.57 769.22 379.73 767.98 385.01 768.03 390.52 764.25 Z" id="32050540"/>
<path d="M 484.51 1013.71 483.14 1015.4 481.73 1021.83 483.38 1026.06 482.52 1029.37 486.15 1033.33 486.2 1037.28 483.47 1041.01 487.96 1040.66 488.83 1041.76 492.63 1041.03 505.35 1046.77 507.38 1045.26 506.42 1054.21 510.71 1055.26 514.43 1066.26 511.65 1069 510.63 1072.11 503.44 1077.07 493.24 1085.68 481.15 1091.64 481.26 1096.53 480.47 1100.5 481.3 1103.65 474.27 1110.41 470.91 1117.93 473.5 1121.09 475.8 1127.43 469.93 1129.9 462.81 1132.04 460.67 1134.46 457.15 1135.44 454.98 1137.35 452.29 1137.59 449.66 1135.29 442.84 1143.67 436.29 1147.76 426.94 1140.05 416.8 1140.58 411.42 1138.98 408.71 1139.36 406.18 1141.5 403.45 1146.85 399.36 1146.78 395.35 1149.83 388.2 1153.58 385.22 1152.5 381.09 1155.65 375.13 1154.01 368.52 1153.73 365.85 1155.65 365.67 1157.81 362.35 1161.23 358.61 1161.47 351.53 1163.6 347.06 1164.14 337.58 1167.85 332.38 1168.46 331.17 1169.89 325.16 1171.78 322.51 1168.04 314.65 1164.1 312.47 1164.53 309.42 1163.34 307.03 1159.24 303.98 1156.19 303.23 1153.98 302.76 1145.4 304.09 1140.21 300.44 1136.08 296.41 1133.65 292.87 1127.12 292.67 1123.93 282.76 1111.19 276.65 1106.5 276.21 1102.2 278.12 1100.62 281.31 1100.19 286.62 1097.25 291.16 1095.42 296 1095 301.08 1092.6 307.61 1085.41 313.39 1081.67 316.49 1078.22 319.98 1072 328.53 1076.82 331.24 1077.25 336.5 1080.79 338.26 1080.64 346.4 1084.42 353.82 1082.44 361.54 1083.82 367.6 1085.95 374.22 1089.05 376.28 1089.21 383.32 1088.01 384.25 1080.08 386.78 1077.39 391.21 1076.52 396.53 1074.55 399.96 1071 402.54 1067.06 406.3 1065.63 409.37 1062.47 416.06 1057.97 419.25 1058.69 422.66 1058 428.13 1054.15 425.77 1050.22 424.96 1046.42 427.39 1041.6 427.07 1036.89 430.39 1032 436.66 1027.68 436.13 1026.16 438.12 1022.89 443.74 1017.77 446.01 1016.84 448.64 1012.75 446.14 1008.35 447.96 1001.09 448.26 997.27 450.58 996.76 453.77 998.98 455.78 997.79 461.19 998.25 464.19 1001.33 464.17 1004.27 469.85 1004.71 474.67 1001.65 479.81 995.54 483.81 995.19 485.79 997.37 486.15 1000.88 483.4 1012.14 484.51 1013.71 Z" id="32050560"/>
</g>
</svg>