<?xml version="1.0"?>
<svg xmlns="http://www.w3.org/2000/svg" version="1.2" baseProfile="tiny" width="800" height="594" viewBox="0 0 800 594" stroke-linecap="round" stroke-linejoin="round">
<g id="dong">
<path d="M 743.36 91.3 739.13 89.87 735.16 93.13 733.52 90.97 728.08 89.69 724.63 87.41 720.29 90.1 720.21 92.82 716.31 92.59 712.18 95.1 707.32 89.63 701.53 89.3 700.5 93.4 696.61 94.41 693.67 93.67 690.98 96.41 686.74 96.76 687.02 90.02 685.27 82.62 682.58 78.28 675.67 76.11 673.99 77.46 668.31 91.03 670.96 95.64 669.81 98.21 667.61 95.46 660.37 92.05 665.17 83.67 668.67 84.2 667.34 78.29 656.14 81.78 652.44 81.59 647.06 78.81 645.16 78.98 640.4 85.78 637.71 86.57 636.39 82.76 632.23 80.25 627.88 80.94 626.77 87.35 623.26 91.92 617.96 93.18 611.42 96.27 609.54 102.16 607.12 105.01 600.95 109.13 591.83 110.97 588.94 116.25 583.31 120.11 582.93 124.16 581.28 125.25 581.69 130.05 580.31 132.32 574.46 135.07 571.91 138.62 564.65 136.47 559.13 134.11 554.27 130.39 548.12 128.37 544.66 129.19 536.98 138.27 532.29 137.71 526.25 140.37 521.61 140.72 519.15 143.09 510.73 147.44 500.85 148.79 492.94 145.83 480.22 149.09 477.51 146.35 469.96 146.46 461.47 147.31 456.65 145.67 450.23 139.19 447.39 135.23 436.23 129.37 427.63 129.56 419.67 126.97 415.29 126.23 421.61 120.99 425.37 119.42 432.29 113.06 437.64 110.77 443.83 106.76 449.15 99.97 449.3 94.35 455.65 90.21 456.69 87.69 461.94 82.68 467.64 81.95 472.25 79.61 477.9 74.31 481.61 75.48 488.23 73.27 492.3 73.22 498.25 75.27 502.04 75.14 504.56 78.03 514.08 76.42 520.08 72.49 521.58 73.71 528.86 70.11 533.08 71.92 539.33 72.73 544.8 69.27 547.47 71.21 551.78 69.67 555.39 65.63 556.78 61.16 562.24 61.69 568.14 59.88 569.12 57.61 575.02 53.94 583.75 55.94 587.72 55.08 590.9 56.56 596.24 56.27 600.23 58.14 603.78 57.7 606.47 53.82 612.1 51.36 618.78 49.61 621.15 51.28 628.9 48.66 634.28 44.37 635.74 41.13 645.36 35.23 649.6 29.6 648.8 25.23 651.89 22.83 653.14 18.24 655.6 16.49 660.95 15.51 662.27 9.98 665.47 9.4 670.03 11.78 671.77 8.64 671.86 1 677.05 3.95 679.71 8.97 681.63 16.86 683.41 19.41 687.64 21.25 690.57 29.52 692.62 33.54 692.45 38.35 697.49 47.42 696.55 50.84 704.77 45.44 702.88 51.18 703.17 54.73 710.68 64.47 714.54 64.75 718.63 59.71 721.96 63.79 717.85 64.41 716.2 68.35 717.98 73.54 723.66 80.42 730.13 84.67 732.93 82.14 737.07 83.26 739.96 86.61 743.28 83.93 744.74 86.48 743.36 91.3 Z" id="32060510"/>
<path d="M 743.36 91.3 741.9 95.78 745 98.91 743.68 101.6 745.55 111.47 748.62 120.74 747.63 121.86 744.25 111.62 741.44 101.34 736.75 101.27 736.81 104.77 713.14 105.29 713.35 124.83 712.63 125.1 705.85 125.11 699.61 123.02 698.76 125.9 692.85 124.9 691.64 121.64 688.79 121.06 682.25 115.34 680.75 109.46 672.87 103.49 668.8 106.07 669.81 98.21 670.96 95.64 668.31 91.03 673.99 77.46 675.67 76.11 682.58 78.28 685.27 82.62 687.02 90.02 686.74 96.76 690.98 96.41 693.67 93.67 696.61 94.41 700.5 93.4 701.53 89.3 707.32 89.63 712.18 95.1 716.31 92.59 720.21 92.82 720.29 90.1 724.63 87.41 728.08 89.69 733.52 90.97 735.16 93.13 739.13 89.87 743.36 91.3 Z" id="32060520"/>
<path d="M 689.42 157.55 687.26 151.25 679.73 144.3 675.84 141.84 677.45 137.98 678.1 131.87 672.6 130.7 670.37 132.52 662.49 131.05 658.26 127.71 658.65 126.32 650.15 118.11 650.18 116.47 644.95 115.1 640.37 115.62 637.43 113.87 630.09 116.39 623.14 115.76 617.82 115.47 612.72 112.39 607.62 113.13 603.89 110.2 607.12 105.01 609.54 102.16 611.42 96.27 617.96 93.18 623.26 91.92 626.77 87.35 627.88 80.94 632.23 80.25 636.39 82.76 637.71 86.57 640.4 85.78 645.16 78.98 647.06 78.81 652.44 81.59 656.14 81.78 667.34 78.29 668.67 84.2 665.17 83.67 660.37 92.05 667.61 95.46 669.81 98.21 668.8 106.07 672.87 103.49 680.75 109.46 682.25 115.34 688.79 121.06 691.64 121.64 692.85 124.9 698.76 125.9 699.61 123.02 705.85 125.11 712.63 125.1 712.01 129.75 704.29 140.31 704.18 143.95 705.86 150.82 704.98 153.89 696.69 154.88 689.42 157.55 Z" id="32060540"/>
<path d="M 794.31 166.34 796.81 167.22 797.1 172.32 792.97 173.31 788.53 169.67 794.31 166.34 Z M 766.29 230.19 760.83 233.42 762.27 236.47 757.97 238.85 754.96 239.04 750.11 244.21 748.74 249.16 748.68 253.83 746.12 260.06 744.1 257.64 741.85 250.1 739.94 246.96 742.02 245.58 743.63 238.05 744.03 230.85 735.79 211.02 719.69 212.71 715.18 208.55 712.09 207.69 710.69 205.22 709.56 158.01 716.49 155.58 723.37 154.82 724.38 156.18 728.44 153.75 737.1 150.52 739.81 150.9 724.78 157.11 724.55 160.78 725.6 167.13 727.06 170.76 732.34 178.74 749.54 200.34 752.62 201.62 753.96 207.82 758.09 216.12 766.29 230.19 Z M 734.08 128.09 733.47 132 718.36 130.55 716.94 135.46 715.75 145.32 717.23 150.57 708.92 153.16 707.73 149.08 707.5 141.98 714.84 130.62 720.23 124.91 734.23 126.18 734.08 128.09 Z" fill-rule="evenodd" id="32060590"/>
<path d="M 689.42 157.55 677.93 160.95 668.72 164.96 672.31 169.33 666.6 176.13 661.74 171.24 652.42 160.79 653.03 157.98 648.78 149.53 639.44 129.01 636.58 131.56 630.14 132.68 627.9 127.79 622.65 119.18 623.14 115.76 630.09 116.39 637.43 113.87 640.37 115.62 644.95 115.1 650.18 116.47 650.15 118.11 658.65 126.32 658.26 127.71 662.49 131.05 670.37 132.52 672.6 130.7 678.1 131.87 677.45 137.98 675.84 141.84 679.73 144.3 687.26 151.25 689.42 157.55 Z" id="32060560"/>
<path d="M 623.14 115.76 622.65 119.18 627.9 127.79 630.14 132.68 636.58 131.56 639.44 129.01 648.78 149.53 653.03 157.98 652.42 160.79 661.74 171.24 666.6 176.13 667.38 190.27 662.97 192.68 663.67 196.8 649.9 198.78 645.45 199.82 636.79 200.45 636.12 199.69 584.84 203.5 585.37 225.88 584.11 229.47 581.45 231.92 580.92 234.51 582.51 237.31 583.54 242.67 581.13 246.92 580.72 255.95 582.06 265.79 581.53 274.39 578.19 278.44 574.95 279.56 574.15 281.68 569.28 283.64 569.89 289.04 565.24 294.53 561.74 296.28 556.49 294.26 548.51 293.09 544.56 295.12 541.27 294.02 536.32 297.78 534.14 300.47 533.12 306.48 529.77 309.37 519.25 309.81 509.28 312.18 502.99 306.13 496.78 308.55 491.47 309.41 485.9 305.5 477.12 304.06 473.43 300.36 461.03 302.26 459.21 300.64 455.82 301.21 449.54 297.76 444.06 299.82 441.02 298.83 438.48 300.53 433.03 298.55 423.29 293.57 414.9 293.59 412.71 290.69 404.98 288.37 398.53 283.84 394.15 284.18 388.45 281.93 386.29 279.46 382.52 278.7 377.36 273.92 372.96 272.99 364.66 272.59 359.53 268.29 353.85 266.71 350.43 262.35 337.53 259.45 331.09 258.69 322.56 260.56 319.58 259.59 317.42 260.83 308.49 262.94 304.31 258.78 300.48 257.62 289.34 257.51 280.51 254.68 274.41 254.23 270.18 251.38 266.27 247.57 259.14 244.67 254.98 244.57 244.54 246.39 238.1 244.5 229.93 240.17 229.58 238.03 231.27 227.09 234.77 230.29 240.12 232.03 242.18 234.49 247.55 234.96 249.54 232.43 253.98 231.14 261.64 231.39 267.33 228.43 269.78 225.78 269.97 223.27 275.11 219.92 277.69 216.59 282.59 204.64 285.22 202.19 287.05 198.27 290.83 193.53 292.11 190.5 296.93 187.5 301.04 188.08 303.25 189.85 310.94 180.59 315.29 178.49 315.8 174.63 317.73 172.24 317.35 166.5 319.04 163.53 321.02 156.04 327 153.72 329.94 150.4 340.83 148.86 352.25 146.7 359.91 142.51 365.24 137.5 367.86 136.35 373.76 128.7 381.39 126.17 385.73 130.68 391.37 130.38 402.42 126.37 407.49 127.68 415.29 126.23 419.67 126.97 427.63 129.56 436.23 129.37 447.39 135.23 450.23 139.19 456.65 145.67 461.47 147.31 469.96 146.46 477.51 146.35 480.22 149.09 492.94 145.83 500.85 148.79 510.73 147.44 519.15 143.09 521.61 140.72 526.25 140.37 532.29 137.71 536.98 138.27 544.66 129.19 548.12 128.37 554.27 130.39 559.13 134.11 564.65 136.47 571.91 138.62 574.46 135.07 580.31 132.32 581.69 130.05 581.28 125.25 582.93 124.16 583.31 120.11 588.94 116.25 591.83 110.97 600.95 109.13 607.12 105.01 603.89 110.2 607.62 113.13 612.72 112.39 617.82 115.47 623.14 115.76 Z" id="32060570"/>
<path d="M 565.24 294.53 569.89 289.04 569.28 283.64 574.15 281.68 574.95 279.56 578.19 278.44 581.53 274.39 582.06 265.79 580.72 255.95 581.13 246.92 583.54 242.67 582.51 237.31 580.92 234.51 581.45 231.92 584.11 229.47 585.37 225.88 584.84 203.5 636.12 199.69 636.79 200.45 645.45 199.82 649.9 198.78 663.67 196.8 664.08 199.11 667.6 199.01 668.82 203.18 685.77 202.81 687.09 201.26 698.51 201.01 703.33 201.45 703.42 205.37 710.69 205.22 712.09 207.69 715.18 208.55 719.69 212.71 735.79 211.02 744.03 230.85 743.63 238.05 742.02 245.58 739.94 246.96 741.85 250.1 744.1 257.64 740.54 257.98 737.4 269.78 734.8 269.09 732.4 271.98 730.78 276.66 726.66 279.98 724.3 278.06 721.44 279.22 713.52 277.89 706.32 273.71 697.87 278.33 695.48 277.04 693.18 273.11 687.52 274.84 682.74 274.68 674.75 272.66 669.63 277.86 666.09 278.12 663.58 284.6 658.7 285.33 648.27 284.87 645.44 288.21 637.75 286.51 633.7 281.66 626.42 276.31 623.52 275.4 615.78 278.89 606.62 277.18 598.24 281.53 596.61 292.8 592.44 298.25 589.01 294.61 585.09 296.43 573.69 298.66 565.24 294.53 Z" id="32060580"/>
<path d="M 231.27 227.09 229.58 238.03 229.93 240.17 238.1 244.5 244.54 246.39 254.98 244.57 259.14 244.67 266.27 247.57 270.18 251.38 274.41 254.23 280.51 254.68 289.34 257.51 300.48 257.62 304.31 258.78 308.49 262.94 317.42 260.83 319.58 259.59 322.56 260.56 331.09 258.69 337.53 259.45 350.43 262.35 353.85 266.71 359.53 268.29 364.66 272.59 372.96 272.99 377.36 273.92 382.52 278.7 386.29 279.46 388.45 281.93 394.15 284.18 398.53 283.84 404.98 288.37 412.71 290.69 414.9 293.59 423.29 293.57 433.03 298.55 438.48 300.53 441.02 298.83 444.06 299.82 449.54 297.76 455.82 301.21 459.21 300.64 461.03 302.26 473.43 300.36 477.12 304.06 485.9 305.5 491.47 309.41 496.78 308.55 502.99 306.13 509.28 312.18 519.25 309.81 529.77 309.37 533.12 306.48 534.14 300.47 536.32 297.78 541.27 294.02 544.56 295.12 548.51 293.09 556.49 294.26 561.74 296.28 565.24 294.53 573.69 298.66 585.09 296.43 589.01 294.61 592.44 298.25 596.61 292.8 598.24 281.53 606.62 277.18 615.78 278.89 623.52 275.4 626.42 276.31 633.7 281.66 637.75 286.51 645.44 288.21 648.27 284.87 658.7 285.33 663.58 284.6 666.09 278.12 669.63 277.86 674.75 272.66 682.74 274.68 687.52 274.84 693.18 273.11 695.48 277.04 697.87 278.33 706.32 273.71 713.52 277.89 721.44 279.22 724.3 278.06 726.66 279.98 730.78 276.66 732.4 271.98 734.8 269.09 737.4 269.78 740.54 257.98 744.1 257.64 746.12 260.06 748.68 253.83 748.74 249.16 750.11 244.21 754.96 239.04 757.97 238.85 762.27 236.47 760.83 233.42 766.29 230.19 767.76 233.13 776.98 246.36 782.9 249.07 783.76 252.24 787.46 254.7 798.29 256.46 799 261.72 797.09 264.47 791.7 267.43 787.79 267.9 783.87 270.17 778.71 267.96 776.69 274.56 778.4 280.08 783.54 280.3 782.97 282.86 783.21 299.1 786.56 313.94 785.49 314.57 782.38 299.98 782.32 297.54 772.12 297.65 769.17 293.53 764.35 296.68 764.82 299.14 771.32 301.78 771.68 315.56 774.51 322.55 772.27 325.42 774.18 328.79 775.85 335.97 776.2 341.6 778.25 350.1 778.05 361.87 776.22 362.24 773.53 365.52 765.25 371.65 759.95 374.25 754.5 374.8 745.57 371.92 740.95 369.82 728.01 370.34 721.95 368.8 714.07 364.84 705.95 366.75 699.86 367.18 687.63 365.76 684.86 363.91 674.45 362.22 665.36 362.88 651.23 365.18 641.33 364.47 630.45 365.45 627.7 366.39 621.26 365.13 615.77 361.8 616.12 365.58 618.28 372.45 617.26 377.4 617.06 391.33 618.99 396.32 618.28 400.87 613.99 404.75 609.89 406.16 606.22 406.08 602.99 410.38 599.39 412.34 595.23 416.68 590.29 418.22 589.17 422.77 584.87 425.5 581.9 430.01 575.7 433.26 572.17 432.25 569.46 433.02 562.89 430.52 552.72 430.66 552.42 431.81 545.72 432.81 541.93 428.75 538.55 429.84 536.78 428.31 530.34 430.3 517.92 429.43 503.25 434.64 499.98 431.88 492.49 429.06 484.26 428.79 473.39 433.87 475.32 452.18 469.48 457.59 464.72 462.95 461.95 464.01 459.1 468.63 459.01 475.37 457.28 485.35 454.94 493.21 452.57 497.61 453.04 499.33 445.06 498.18 437.09 493.29 434.59 492.53 433.07 488.8 424.33 489.6 420.02 493.43 413.74 496.43 395.37 503.17 392.27 503.06 388.02 500.27 383.29 499.65 373.36 499.73 366.06 498.42 358.53 500.1 348.02 500.6 340.55 503.32 338.84 504.92 331.84 507.22 328.86 505.55 326.86 507.11 324.14 506.02 318.88 501.22 311.4 500.99 304.76 502.47 293.78 499.81 289.24 504.8 282.63 508.13 280.25 513.6 272.13 520.13 261.13 525.32 252.96 530.83 247.74 537.94 240.83 542.99 236.98 553.01 229.96 559.27 227.26 562.91 220.95 566.01 215.45 571.42 211.96 576.6 204.13 585.98 195.93 592.66 194.67 593 186.09 591.78 187.3 590.07 189.89 580.76 188.04 554.18 182.77 542.43 187.24 534.04 189.82 527.03 189.62 516.99 183.49 507.94 189.19 499.25 185.51 497.15 175.9 488.81 169.06 484.48 160.67 482.36 159.3 478.62 152.34 473.81 147.02 472.07 141.28 466.58 137.19 460 131.06 459.65 119.09 445.26 107.54 441.73 102.5 436.92 93.64 434.5 91.81 426.53 88.81 421.85 74.7 410.86 72 407.3 74.16 397.92 72.19 391.8 72.64 386.31 69.81 382.67 71.89 380.4 74.05 375.56 75.95 366.94 70.53 364.79 61.07 356.46 61.23 353.43 58.77 350.02 53.95 347.78 53.32 342.49 51.06 340.87 51.35 335.86 47.52 333.21 36.55 324.24 29.68 321.33 27.84 315 20.58 312.08 19.78 310.1 13.48 305.12 10.82 299.31 4.86 297.72 1 294.41 3.71 288.71 5.5 269.12 14.25 260.67 13.91 252.01 16.03 246.82 20.6 243.94 22.13 229 30.1 228.14 34.86 223.85 43.74 223.43 49.42 219.89 56.24 218.72 62.41 212.13 71.11 210.4 71.57 191.9 75.8 185.43 80.02 173.1 82.47 155.03 86.14 151.88 94.2 152.48 101.13 154.36 113.79 167.95 126.44 175.88 135.41 178.2 136.7 180.36 142.21 179.78 146.53 180.98 150.04 183.17 159.18 181.74 165.34 184.85 170.38 185.99 174.23 185.06 178.16 182.19 180.85 183.24 186.86 176.97 192.47 181.91 201.18 188.55 215.84 196.87 220.69 202.05 227.24 204.39 230.57 206.65 227.29 216.49 231.27 227.09 Z" id="32060600"/>
</g>
</svg>