<?xml version="1.0"?>
<svg xmlns="http://www.w3.org/2000/svg" version="1.2" baseProfile="tiny" width="800" height="832" viewBox="0 0 800 832" stroke-linecap="round" stroke-linejoin="round">
<g id="dong">
<path d="M 393.48 347.83 393.09 349.63 393.87 351.35 395.62 353.73 396.03 357.24 395.94 358.31 397.5 361.15 397 364.77 397.85 366.13 398.79 366.25 399.45 367.92 401.04 369.1 403.26 370.24 403.65 373.4 401.62 375.34 402.43 380.42 404.81 382.46 407.31 386.81 407.07 389.9 407.47 393.75 409.06 396.1 411.21 396.27 414.15 400.41 414.23 402.4 416.43 406.64 417.44 407.47 418.96 410.15 420.91 411.36 423 413.44 424.81 413.85 427.09 412.68 430.41 412.6 434.23 415.31 435.67 417.24 436.67 420.75 435.55 423.92 435.75 427.48 435.36 430.4 432.78 436.87 429.48 438.75 427.13 443.24 424.61 447.33 421.5 447.84 420.97 450.67 420 453.13 420.61 456.1 420.31 457.18 420.37 459.22 421.04 460.89 423.13 463.6 423.63 465.77 424.63 468.29 426.51 471.62 427.46 474.32 429.24 473.9 431.97 473.81 434.37 475.01 439.65 478.48 441.08 476.47 442.21 476.14 443.71 475.09 444.72 474.85 446.18 472.37 450.31 471.67 453.06 472.94 455.96 472.76 457.47 474.02 457.61 476.3 459.16 478.35 459.36 481.56 460.74 482.42 461.16 483.33 463.6 486.2 465.75 488.25 466.74 491.59 468.49 495.82 468.12 497.89 469.2 499.69 469.84 502.84 470.41 503.49 470.51 505.01 473.01 506.86 473.52 507.68 476.69 508.79 477.54 508.43 478.5 509.44 481.33 510.49 482.53 510.43 485.37 511.53 487 510.77 488.77 510.94 490.27 510.57 492.5 510.73 493.42 513.19 493.32 514.26 492.37 515.28 491.84 518.5 494 520.08 497.03 520.84 497.96 520.6 498.14 522.38 496.62 525.96 497 527 495.77 529.07 495.19 531.88 495.71 534.17 496.72 536.68 496.57 538.08 495.67 540.41 495.93 541.48 497.58 543.12 497.77 544.19 497.24 545.1 496.4 548.93 494.74 551.62 493.21 552.13 492.33 555.83 490.73 555.92 488.72 557.12 485.83 557.43 484.8 560.11 483.87 561.86 482.35 563.15 481.21 563.48 481.01 564.43 479.34 564.61 478.48 565.42 478.45 566.61 477.5 568.49 476.01 570.28 475.4 571.7 474.87 574.38 473.13 576.55 472.38 576.6 470.68 575.71 469.15 573.18 465.07 570.98 463.84 571.81 460.7 572.76 460.42 573.41 457.77 574.58 456.79 574.35 452.27 574.08 451.24 574.23 448.56 576.57 445.87 576.73 444.51 579.06 442.77 578.59 442.07 579.07 441.42 580.8 437.06 578.69 434.38 576.85 432.52 576.27 428.51 578.84 425.99 580.92 423.11 580.62 421.18 582.08 419.09 582.72 418.15 582.05 416 581.89 413.63 583.14 412.26 584.95 408.9 585.04 408.19 585.93 405.93 585.79 404.84 585.1 402.69 585.09 400.01 582.28 397.73 582.79 397.19 582.48 394.09 582.95 392.78 584.01 392.5 585.33 390.16 586.96 389.22 588.2 387.48 589.25 387.66 591.11 386.27 593.4 384.21 593.15 383.41 592.72 380.35 595.37 377.66 596.76 377.76 598.5 377.37 600.26 377.95 601.31 375.87 604.45 374.31 606.12 372.94 606.38 371.39 604.89 368.11 605.06 367.13 605.91 363.5 606.04 358.28 605.47 357.29 606.08 355.13 606.46 351.86 605.63 355.07 602.4 355.27 599.26 355.84 596.9 355.58 594.57 354.35 592.21 354.26 591.17 352.86 589.97 352.86 588.7 351.32 587.12 344.67 587.93 343.31 586.89 340.11 586.05 336.73 585.78 335.73 585.2 333.58 586.02 331.89 585.69 330.82 584.93 329.53 585.43 325.44 586.29 324.05 586.27 323.14 587.01 321.54 587.03 320.03 587.76 317.35 585.43 315.81 583.03 314.55 582.74 312.98 583.7 310.48 584.6 308.28 583.07 306.53 582.41 305.18 580.7 303.24 578.98 300.3 579.22 297.35 576.92 295.87 577.8 294.25 577.74 293.71 578.53 291.59 577.3 290.37 578.53 288.03 579.73 285.84 579.63 283.19 578.96 282.29 576.75 281.25 576.08 281.16 574.8 279.95 573.59 278.66 573.39 276.81 571.82 275.02 571.95 273.9 570.32 271.91 569.25 269.67 568.74 266.67 567.05 266.24 565.04 264.86 561.28 261.6 560.51 260 559.46 258.54 557.49 257.64 553.94 256.58 552.61 256.76 551.37 256.31 550.32 255.15 549.22 253.56 543.85 251.65 542.3 253.3 540.36 253.11 538.42 254.5 534.78 252.16 533.4 251.54 530.16 249.69 531.01 248.5 529.56 247.22 529.84 245.2 528.83 243.89 527.42 241.76 526.84 242.61 525.88 242.33 523.3 242.54 520.94 240.58 518.65 238.71 517.48 240.63 515.24 240.24 514.34 240.71 511.78 240.1 509.57 240.69 505.8 241.92 503.59 241.57 501.15 239.98 498.12 241.94 497.12 243.46 495.83 245.62 494.67 247.28 494.6 249.67 493.4 251.63 493.12 253.12 492.26 255.86 492.26 255.04 490.38 252.67 488 252.24 486.14 249.84 485.17 248.65 483.65 246.87 482.06 246.56 480.53 248.8 479.47 249.58 479.71 250.74 478.74 251.88 476.54 251.13 474.85 249.65 473.81 247.78 473.53 247.88 472.46 250.64 470.12 251.47 469.86 250.69 468.21 248.27 466.87 246.91 465.24 245.78 464.96 242.51 465.37 241.38 464.39 240.32 464.18 237.97 465.07 235.86 466.55 234.75 466.67 233.92 465.26 230.1 465.18 228.95 465.35 228.26 464.44 227.32 462.1 227.29 458.87 225.5 457.15 225.07 455.48 223.84 454.92 223.77 453.99 224.79 451.39 228.11 448.41 229.74 447.5 232.01 447.46 234.07 449.8 236.72 450.14 238.54 449.34 238.97 448.14 241.63 447.18 240.06 445.11 240.53 444.22 239.64 442.53 241.27 440.08 242.54 438.79 241.1 437.98 241.17 435.95 243.41 435.14 245.56 435.55 247.86 435.51 249.42 435.08 249.62 433.01 250.71 430.14 249.86 427.21 249.21 426.62 249.56 425.49 250.53 425.42 250.91 424.07 251.74 424.19 252.13 425.46 253.84 427.07 254.39 426.31 254.38 423.82 254.04 420.7 253.44 418.57 250.93 416.33 250.58 415.6 248.24 412.85 247.44 411.53 245.94 410.77 246.65 409.77 247.91 404.82 248.79 404.07 249.29 401.35 250.09 399.93 249.98 397.98 253.51 398.76 254.69 397.45 254.88 395.44 256.32 393.77 257.09 393.42 258.26 391.98 260.75 390.58 260.46 389.63 259.1 388.66 258.1 386.16 257.77 383.72 259.09 382.02 255.81 380.8 253.49 378.69 252.09 377.04 251.51 375.31 249.02 375.2 246.57 374.45 247.51 373.21 247.12 371.5 246.3 369.62 246 367.39 244.91 366.57 243.04 363.93 245.23 360.59 245.55 356.69 246.45 355.21 248.03 353.79 249.41 351 250.2 350.86 252.24 349.57 253.56 348.28 254.89 346.26 254.83 345.61 255.95 343.71 257.61 341.7 261.07 339.82 264.05 335.23 264.57 334.65 266.03 334.92 269.79 335.08 273 337.9 276.18 339.05 277.91 339.18 280.07 338.94 281.27 339.79 282.56 340.02 284.03 339.69 287.56 340.14 291.71 337.16 292.17 336.25 295.2 334.39 296.91 332.7 297.47 332.73 298.43 331.03 301.25 329.12 302.65 328.86 305.37 326.84 304.79 325.85 304.56 323.66 306.03 321.88 307.11 318.59 309.91 316.51 311.73 314.44 316.71 313.95 319.42 311.38 320.74 311.51 323.01 312.5 323.83 310.84 325.97 309.74 326.49 308.97 328.93 309.64 332.64 309.31 337.07 311.29 337.87 311.19 340.7 311.7 341.12 312.75 341.16 316.16 341.65 316.84 340.71 320.29 338.76 322.23 337.44 322.39 335.8 323.41 335.02 325.39 335.2 326.13 334.19 327.14 334.14 328.16 333.1 329.28 333.16 330.83 331.25 332.12 331.37 333.45 332.69 336.84 334.26 338.39 336.54 338.89 338.09 340.57 342.07 342.57 342.99 344.51 344.59 346.49 344.83 347.28 346.46 347.99 346.65 348.56 345.62 350.19 346.19 351.95 348.76 352.27 352.06 352.31 353.55 351.29 357.51 350.96 359.75 350.02 364.43 350.1 367.49 349.34 369.67 347.21 371.87 348.31 375.63 348.58 377.67 349.28 383.88 349.46 386.9 350.29 389.72 350.21 392.13 348.3 393.48 347.83 Z" id="32070110"/>
<path d="M 799 585.7 798.69 585.71 798.41 575.54 786.19 559.08 786.44 558.89 798.71 575.43 799 585.7 Z M 796.45 622.25 795.51 622.72 794.38 624.33 790.02 624.4 788.7 623.91 788.15 624.48 785.81 624.68 783.44 623.07 782.08 622.98 780.99 622.31 777.16 622.17 774.54 624.25 774.62 621.93 772.72 621.99 770.04 623.41 767.83 622.92 765.1 624.78 763.28 624.72 762.38 625.76 760.77 624.41 760.39 621.99 759.3 623.06 759.28 624.69 758.4 628.04 756.91 629.15 755.56 630.93 752.7 629.7 751.47 630.73 750.76 633.46 746.7 633.96 743.83 632.08 741.3 630.93 737.87 630.77 736.72 631.77 736.06 633.8 735.17 635.29 734.94 636.75 735.2 638.62 733.11 639.83 733.23 641.4 731.78 643.33 730 643.34 729.96 645.9 729.34 647.49 728.12 648.78 726.49 648.93 725.5 650 723.32 650.71 722.57 651.99 720.55 651.61 718.49 650.43 717.36 651.49 717.61 654.25 717.36 655.46 716.31 656.89 714.24 658.67 710.13 659.25 706.58 658.28 704.21 659.68 702.49 661.53 702.26 663.26 701.69 664.68 699.84 666.3 697.82 665.54 697.3 667.52 697.29 669.47 695.68 671.18 694.95 672.52 693.79 673.71 693.93 676.36 693.21 678.92 693.78 679.96 693.09 685.03 689.98 685.19 686.74 683.73 683.99 683.56 682.28 682.92 680.29 681.4 678.93 679.88 676.67 680.51 675.47 681.51 673.82 682.19 669.99 680.36 668.42 680.5 668.03 679.51 665.69 677.71 665.03 678.81 662.36 680.25 660.8 680.66 658.57 680.83 657.41 682.05 657.06 683.99 657.24 685.72 656.9 686.65 655.34 688.57 656.57 691.99 654.57 693.86 654.98 695.76 654.57 697.1 655.84 698.73 656.32 700.08 654.25 701.36 653.78 702.47 651.77 705.07 651.39 707.32 649.55 709.33 645.95 709.71 644.66 710.68 641.33 711.8 639.57 711.67 638.43 712.77 636.37 713.46 635.72 714.3 633.83 715.03 633.81 717.61 631.9 718.42 630.75 719.99 628.64 719.4 624.48 721.35 624.17 722.32 622.51 723.84 620.36 727.13 620.27 728.19 617.66 732.81 616.85 733.56 616.26 736.76 614.08 737.88 611.91 742.81 608.47 744.2 607.08 745.26 604.93 749.62 605.18 750.53 602.54 751.37 600.6 753.11 599.54 756.38 597.65 759.17 597.11 759.24 597.02 756.77 596.24 755.34 593.04 753.86 592.01 749.64 590.64 746.42 589.15 745.18 586.58 742 585.14 741.37 583.92 738.89 582.97 738.35 581.25 736 582.09 733.86 581.55 731.48 580.43 730.18 578.89 729.36 577.57 726.83 578.61 724.38 577.77 722.92 577.35 720.53 577.67 718.57 577.24 717.32 577.24 714.64 578.73 711.85 577.69 708.94 576.42 707.98 576.26 705.98 574.14 703.61 572.23 702.7 570.96 701.22 570.99 699.52 569.99 698.39 569.51 696.67 571.15 693.15 570.88 691.91 569.72 690.36 571.18 687.34 571.46 684.72 573.24 682.66 574.09 679.99 574.02 678.03 573.05 676.54 572.57 674.2 571.95 672.86 572.21 671.22 571.07 669.41 572.82 664.84 574.32 664.91 575.12 665.48 576.02 665.02 580.02 663.74 581.89 661.8 581.55 660.17 582.25 658.15 583.23 657.17 585.99 652.52 586.14 651.8 587.44 650.8 588.45 650.58 590.13 648.38 591.07 646.58 592.26 645.86 594.04 645.39 595.17 643.5 597.39 642.3 599.84 639.84 600.87 639.22 602.51 637.3 604.09 633.7 604.19 623.27 605.66 621.74 607.04 619.55 607.75 617.89 606.86 615.03 605.48 613.3 606.56 612.12 604.74 606.13 603.39 605.29 603.17 602.17 600.85 601.34 596.6 602.4 595.07 602.27 592.28 603.24 589.45 602.85 588.29 601.51 585.76 601.13 584.93 599.7 583.77 599 583.42 596.94 582.45 595.34 584.48 590.96 584.46 587.48 584.89 586.67 584.25 583.85 585.08 582.06 586.41 580.93 588.92 580.6 589.91 575.64 588.64 573.81 586.6 571.52 586.62 569.43 587.22 568.02 586.62 566.78 583.91 564.24 583.9 562.84 583.14 561.82 582.87 559.87 582.16 558.92 582.84 556.45 581.81 555.23 580.85 552.91 580.78 551.06 577.69 549.54 575.36 549.53 573.18 551.09 571.39 551.04 569.38 552.71 568.32 552.39 566.93 552.87 564.31 551.59 561.6 549.07 559.12 550.21 557.68 550.49 556.3 550.13 554.89 550.35 550.64 549.66 549.37 550.77 548.06 550.7 546.44 551.46 545.09 550.87 543.45 550.79 539.43 547.73 538.55 544.43 537.58 543.83 537.2 542.63 535.34 541.96 534.29 540.44 533.98 538.95 534.32 537.08 533.53 536.4 533.27 535.13 531.77 533.69 530.74 532.01 530.63 529.72 528.67 529.02 527.59 526.02 526.78 525.47 524.28 525.05 523.76 523.97 522.63 522.95 520.63 521.77 518.69 522.18 517.22 521.37 515.43 521.78 514.81 522.67 513.1 523.54 511.81 523.31 510.45 524.45 507.8 524.71 506.78 523.71 505.75 523.46 504.27 522.15 502.95 522.55 502.21 521.86 499.85 522.39 498.14 522.38 497.96 520.6 498.28 519.94 502.19 519.61 503.2 518.37 505.61 518.79 508.83 517.4 510.97 516.06 512.79 515.71 515.77 516.5 517.37 516.07 517.1 514.3 518.62 508.64 520.38 507.02 520.92 505.78 520.44 504.73 520 501.52 520.74 498.34 519.86 495.32 517.69 492.3 516.94 488.92 517.55 488.24 520.51 487.5 521.02 486.28 520.76 484.27 520.16 483.38 519.83 481.64 520.24 480.51 521.68 481.43 522.67 480.43 524.25 480.08 524.47 481.98 528.23 482.17 529.63 481.09 531.45 481.44 533.27 481.36 533.51 482.83 534.67 483.07 536.4 484.44 538.45 482.35 540.41 481.62 542.65 481.88 544.64 483.02 545.7 484.67 549.31 485.31 550.05 485.84 551.96 489.54 553.83 489.4 554.71 490.2 555.59 489.89 557.19 490.27 560.24 489.34 561.13 488.21 562.36 488.54 563.6 487.19 565.48 487.21 566.36 486.15 566.23 484.01 566.67 482.41 565.72 481.87 564.93 479.72 565.55 478.9 565.41 476.83 566.83 476.11 566.87 474.66 569.54 473.47 570.43 472.67 569.78 471.58 570.87 469.37 570.04 465.94 570.7 464.77 573.05 463.26 574.1 461.52 574.56 459.68 573.82 457.47 573.22 452.25 574.77 452.78 576.85 451.83 578.32 451.61 578.89 453.05 581.71 454.92 583.74 458.87 584.94 460.39 586.02 460.9 587.12 462.41 587 463.78 588.33 464.71 591.56 468.64 591.65 470.28 597.59 473.56 598.8 473.33 599.19 472.49 602.49 471.69 604.32 469.76 605.14 469.87 607.32 467.63 609.2 468.59 612.2 468.52 612.47 467.71 614.76 465.29 617.29 465.16 620.1 461.8 620.14 460.6 621.21 460.36 622.84 458.9 623.8 457.04 625.49 456.16 627.44 456.09 628.9 453.76 631.37 453.15 632.31 451.83 632.64 448.98 634.81 446.38 637.03 447.21 638.43 448.35 640.73 448.07 644.17 446.5 646.09 446.84 644.89 443.12 645.67 441.32 646.11 439.26 645.79 437.52 646.53 436.29 650.43 436.61 650.54 432.31 650.96 431.48 655.25 429.34 657.74 427.79 659.82 427.64 662.06 426.82 663.74 426.93 665.65 425.51 667.27 427.99 668.24 427.19 669.84 426.81 673.15 426.67 674.06 427.32 676.93 427.6 678.36 424.89 680.82 423.44 681.89 422.37 683.12 419.56 686.72 416.85 688.14 413.61 689.19 412.99 689.67 411.29 691.68 409.28 692.7 410.42 694.63 411.38 696.33 411.33 698.2 413.45 700.22 414.82 701.61 414.37 703.71 415.06 705.15 414.77 707.14 413.75 707.68 412.55 710.5 411.79 714.16 412.28 713.29 409.53 714.03 408.37 714.97 405.76 714.95 404.33 714.05 402.86 711.15 401.44 711.19 398.95 712.19 396.6 712.67 393.84 713.34 392.43 715.33 391.52 717.27 391.67 718.8 390.59 720.55 388.82 721.77 386.9 724.02 385.1 725.31 383.03 726.38 382.64 727.23 381.59 727.1 378.53 726.03 378.31 723.75 376.83 723.73 375.7 722.36 371.79 722.72 370.58 722.17 369.11 722.24 367.47 723.76 364.94 724.61 364.24 725.95 365.28 728.02 365.45 728.79 366.06 730.98 366.83 734.78 368.79 735.92 367.89 737.94 367.78 738.01 368.9 737.38 369.74 738.79 371.66 738.29 372.59 738.17 375.12 736.8 375.39 736.18 376.04 735.6 377.83 736.31 380.74 737.65 382.11 738.85 383.86 738.06 384.57 737.52 386.39 737.76 387.43 737.04 387.99 737.28 389.14 736.37 390.37 736.57 391.25 737.63 391.92 737.89 394.77 736.55 395.05 735.68 396.18 736.69 400.2 738.9 400.28 739.3 401.82 740.75 401.99 741.61 404.23 743.53 405.41 746.03 406.14 747.22 407.55 747.94 410.8 750.91 411.92 750.38 413.22 751.34 414.19 753.25 415.23 755.14 415.36 756.84 416.29 756.82 418.38 758.17 419.37 758.96 420.76 759.07 424.56 758.42 425.13 758.32 426.79 759.26 427.84 761.47 428.37 762.66 428.35 763.86 427.42 765.99 427.69 768.36 428.66 769.28 429.96 768.83 434 769.12 436.5 770.06 437.97 770.52 439.93 770.97 443.68 771.84 446.1 774.42 447.59 774.49 448.43 775.92 449.47 778.8 448.91 779.27 451.43 781.17 452.58 780.95 453.82 779.73 454.07 778.55 455.99 777.93 455.63 775.36 457.88 774.48 458.05 772.18 460.64 771.16 460.87 768.85 462.19 767.13 463.78 766.7 466.42 765.65 467.96 765.06 471.93 764.57 471.9 765.04 468.51 764.89 467.54 766.08 465.86 766.14 464.11 762.08 463.9 760.96 469.9 761.45 472.11 760.83 472.67 759.53 472.6 758.69 475.05 759 476.56 758.83 479.2 759.96 480.3 760.17 481.22 761.72 481.62 763.23 483.82 763.04 484.87 763.93 485.6 764.08 487.1 764.88 488.03 764.65 489.54 766.14 491.58 767.32 491.31 766.86 494.85 767.92 495.7 767.93 496.44 769.09 497.05 770 499.36 769.27 501 769.24 502.12 768.26 502.65 767.83 503.75 768.03 507.77 766.85 508.55 766.8 513.03 768.01 515 766.16 517.34 766.67 520.39 766.23 520.84 765.19 517.7 763.7 518.1 763.11 518.94 763.41 520.25 764.49 520.29 764.03 522.33 763.08 523.21 762.78 525.34 762.69 528.24 763.19 529.36 765.65 529.35 766.67 530.99 767.22 538.12 767.43 539.42 768.07 547.23 768.6 551.78 769.91 552.37 769.86 554.17 770.81 564.64 768.04 564.89 767.89 566.91 765.51 565.68 763.65 565.71 763.68 567.45 765.91 568.8 766.32 570.64 765.88 572.92 768.02 574.03 769.9 572.35 773.93 569.53 779.27 576.56 781.13 576.48 785.21 581.81 783.9 583.14 784.79 584.18 786.62 582.85 788.26 582.85 788.29 583.6 786.64 583.59 784.76 585.09 782 586.11 778.08 586.28 778.06 588.02 779.17 588.15 778.97 589.22 779.27 591.38 780.09 592.96 784.71 596.36 786.32 598.8 788.56 600.65 789.01 604.18 790.18 605.89 790.02 606.77 792.01 609.4 791.73 610.87 794.37 615.35 794.69 616.55 795.58 617.56 797.23 618.47 796.62 619.38 796.45 622.25 Z M 733.73 360.39 734.79 360.27 734.1 362.17 733.14 361.89 733.73 360.39 Z" fill-rule="evenodd" id="32070120"/>
<path d="M 626.98 182.23 626.24 182.92 625.11 182.32 625.72 180.87 626.81 180.24 627.33 181.48 626.98 182.23 Z M 724.61 364.24 723.76 364.94 722.24 367.47 722.17 369.11 722.72 370.58 722.36 371.79 723.73 375.7 723.75 376.83 726.03 378.31 727.1 378.53 727.23 381.59 726.38 382.64 725.31 383.03 724.02 385.1 721.77 386.9 720.55 388.82 718.8 390.59 717.27 391.67 715.33 391.52 713.34 392.43 712.67 393.84 712.19 396.6 711.19 398.95 711.15 401.44 714.05 402.86 714.95 404.33 714.97 405.76 714.03 408.37 713.29 409.53 714.16 412.28 710.5 411.79 707.68 412.55 707.14 413.75 705.15 414.77 703.71 415.06 701.61 414.37 700.22 414.82 698.2 413.45 696.33 411.33 694.63 411.38 692.7 410.42 691.68 409.28 689.67 411.29 689.19 412.99 688.14 413.61 686.72 416.85 683.12 419.56 681.89 422.37 680.82 423.44 678.36 424.89 676.93 427.6 674.06 427.32 673.15 426.67 669.84 426.81 668.24 427.19 667.27 427.99 665.65 425.51 663.74 426.93 662.06 426.82 659.82 427.64 657.74 427.79 655.25 429.34 650.96 431.48 650.54 432.31 650.43 436.61 646.53 436.29 645.79 437.52 646.11 439.26 645.67 441.32 644.89 443.12 646.09 446.84 644.17 446.5 640.73 448.07 638.43 448.35 637.03 447.21 634.81 446.38 632.64 448.98 632.31 451.83 631.37 453.15 628.9 453.76 627.44 456.09 625.49 456.16 623.8 457.04 622.84 458.9 621.21 460.36 620.14 460.6 620.1 461.8 617.29 465.16 614.76 465.29 612.47 467.71 612.2 468.52 609.2 468.59 607.32 467.63 605.14 469.87 604.32 469.76 602.49 471.69 599.19 472.49 598.8 473.33 597.59 473.56 591.65 470.28 591.56 468.64 588.33 464.71 587 463.78 587.12 462.41 586.02 460.9 584.94 460.39 583.74 458.87 581.71 454.92 578.89 453.05 578.32 451.61 579.62 450.39 580.71 448.07 581.1 446.48 584.39 441.74 586.26 436.01 586.14 432.66 585.14 431.01 583.91 430.81 582.44 428.27 582.71 427.33 581.72 425.3 581.54 423.97 581.88 422.65 581.69 416.08 580.43 414.41 580.25 412.94 577.99 412.21 578.85 410.86 579.55 408.78 580.99 405.95 580.94 402.66 581.35 399.93 582.56 398.59 582.23 396.2 582.31 394.71 581.7 392.14 583.35 391.59 583.85 388.63 583.47 386.73 581.76 384.77 580.33 382.16 577.18 379.27 575.11 375.76 572.87 374.56 572.55 373.73 570.95 373.11 570.46 371.06 569.43 368.54 569.63 366.76 568.93 365.07 567.65 363.38 566.63 362.79 566.55 361.25 567.66 360.62 567.52 358.14 568.06 355.99 566.39 354.82 565.77 355.89 564.01 355.6 564.11 354.4 562.32 354.61 561.96 353.56 560.03 352.52 559.36 353.62 557.85 353.67 552.66 351.67 551.48 350.65 546.98 349.48 545.76 350.02 540.9 349.58 537.51 347.03 534.83 346.24 531.76 343.47 530.41 343.9 528.16 342.89 527.15 341.02 526.13 340.68 525.3 342.9 522.79 341.81 521.61 340.91 521.02 339.19 519.52 339.05 516.5 337.75 515.16 337.54 513.57 335.93 510.67 334.78 508.63 333.39 505.75 332.89 504.74 328.85 506.78 323.99 510.68 318.06 514.5 311.41 516.78 308.57 521.36 302.12 521.21 301.08 521.88 298.88 521.42 297.76 522.09 296.99 523.24 294.27 523.94 292.01 526.84 290.55 527.89 288.46 528.4 286.68 529.25 285.94 531.86 286.34 533.82 285.65 536.22 286.08 536.65 285.01 537.74 283.94 537.71 281.91 538.15 281.07 537.54 277.29 538.26 275.83 542.06 274.07 540.97 272.9 540.9 271.02 540.17 269.35 540.46 268.43 540.38 265.53 539.17 264.5 539.16 263.45 537.68 262.72 537.62 261.31 534.49 258.47 533.95 257.54 530.82 255.09 529.16 254.27 527.58 254.27 525.01 252.34 523.05 248.17 522.53 246.58 523.02 245.91 519.39 244.83 516.86 244.49 516.25 243.32 514.57 241.35 513.05 240.09 510.67 239.67 509.77 238.5 507.79 233.81 505.86 232.24 505.25 231.18 505.11 229.15 503.8 226.7 503.7 225.8 501.6 223.53 500 222.67 499.68 221.21 499.03 220.42 498.84 218.55 500.05 217.88 501.25 215.9 501.04 215.04 501.71 211.61 502.81 210.52 501.8 208.49 501.88 207.39 502.89 205.47 503.96 204.43 504.53 201.54 507.01 199.66 508.85 196.28 508.27 193.05 507.96 186.97 506.54 187.06 504.7 186.64 502.71 184.99 500.12 185.22 496.6 183.86 495.65 184.26 494.7 183.74 493.75 181.87 492.38 180.45 492.49 179.07 491.32 178.28 489.79 178.13 486.72 180.19 485.57 179 484.86 178.97 482.54 177.32 484.49 173.61 484.9 172.26 486.43 170.35 487 168.35 488.74 167.61 489.28 166.24 488.05 164.73 486.89 161.98 488.21 159.81 488.07 158.71 490.87 156.11 488.97 154.27 488.73 153.36 490.28 150.73 490.08 148.95 488.94 147.77 489.41 147.01 490.49 143.1 492.35 141.29 493.8 141.52 495.31 139.32 498.33 139.11 500.14 137.09 502.44 135.77 503.07 133.56 504.68 132.86 505.68 131.06 507.87 129.99 509.68 129.44 509.25 127.55 509.74 126.74 511.8 125.71 514.17 125.64 516.2 125.26 515.91 123.59 516.19 122.3 517.05 121.63 517.49 120.37 520.01 121.15 521.64 122.01 522.79 122.04 522.68 120.42 523.15 118.29 524.63 116.87 525.12 115.9 526.27 115.65 526.64 114.41 527.46 114.22 528.64 112.4 528.51 109.97 530.81 108.37 531.82 107.04 532.4 107.67 531.19 109.36 531.05 111.83 532.36 113.57 531.82 114.54 535.47 118.65 536.52 120.31 538.09 121.88 538.96 123.44 545.09 129.46 547.85 132.34 552.48 136.82 556.56 140.44 561.34 144.25 562.81 145.71 567.12 148.93 569.31 150.76 571.89 152.38 574.16 154.37 576.08 155.31 582.03 159.47 585.21 161.2 585.94 161.93 589.87 163.82 592.72 165.43 594.46 164.83 594.78 164.29 597.61 165.19 597.01 165.98 597.09 167.24 599.05 169.05 601.05 170.55 603.88 172.1 608.82 175.87 610.61 176.98 613.03 178.99 615.07 180.35 616.55 180.89 619.44 181.2 620.47 181.03 621.36 181.68 622.24 181.16 622.89 179.92 624.39 181.5 624.5 182.17 623.64 183.9 621.46 183.86 620.72 189.45 620.21 188.69 620.73 185.83 620.49 184 618.75 183.82 618.39 186.62 617.55 187.77 616.04 188.59 616.31 189.96 617.34 191.08 616.94 192.09 615.26 193.45 615.11 194.64 616.67 196.01 615.91 198.34 616.32 200.62 615.83 201.35 616.43 202.32 615.99 204.19 616.35 204.98 615.64 206.49 616.08 207.68 615.37 211.1 615.13 213.41 616.28 215.35 617.62 216.42 618.76 216.33 619.71 220.5 621.14 221.03 623.69 223.22 623.32 224.76 624 226.84 624.11 228.36 626.78 228.29 626.54 229.73 628.46 231.3 628.52 232.11 630.52 232.86 630.96 234.01 630.96 236.1 630.6 238.49 631.82 240.54 633.15 240.74 635.61 243.48 635.31 244.07 632.7 241.18 630.81 240.91 631.1 242.86 631.93 244 633.1 244.43 633.27 246.76 634.9 247.34 637.99 248.92 639.02 248.8 640.61 250.34 640.47 251.49 639.03 253.6 639.41 255.48 640.67 257.45 641.45 257.5 642.08 258.75 641.79 261 640.8 261.57 640.21 263.2 640.71 265.28 639.89 270.2 640.52 271.66 640.23 272.52 640.87 273.97 644.43 273.99 643.38 276.27 643.91 277.15 646.27 276.6 647 277.61 646.44 278.99 648.31 280.84 648.98 282.24 649.07 283.92 647.99 284.14 648.27 282.5 647.61 281.17 645.95 279.76 644.09 282.07 644.93 284.18 644.82 287.05 645.38 289.15 646.78 291.71 649.75 294.69 653.92 298.32 655.47 299.36 657.17 300.93 660.44 303.33 662.17 304.96 665.89 307.48 667.59 307.93 667.86 308.6 669.59 309.56 670.44 311.11 673.26 312.86 675.8 314.09 677.86 314.3 681.25 311.58 681.35 313.02 683.81 312.91 683.85 311.01 685.11 309.73 685.33 308.8 689.84 312.25 690.01 314.74 690.8 315.12 691.68 317.01 691.34 317.88 692.79 319.44 693.63 320.84 693.91 324.42 695.54 325.14 695.96 327.77 695.61 328.76 696.14 331.53 694.55 333.63 693.75 335.28 693.98 339.6 693.46 342.41 693.56 344.65 694.65 345.98 696.45 347.15 699.99 349.95 701.63 350.48 703.9 350.74 704.62 350.4 705.59 348.8 706.23 349.69 707.04 348.13 708.15 348.81 708.64 350.26 707.35 352.42 707.68 353.79 708.67 354.72 708.76 356.8 710.47 357.56 713.7 357.94 715.66 357.01 715.26 355.34 716.56 355.12 719.33 356.1 719.73 353.07 718.87 352.41 715.91 351.54 715.65 350.62 720 352.47 720.96 350.69 722.1 351.45 723.95 351.8 723.4 352.84 724.35 353.79 725.48 357.7 724.49 359.52 724.25 362.95 724.61 364.24 Z" fill-rule="evenodd" id="32070310"/>
<path d="M 166.49 64.22 167.33 65.4 167.35 66.69 168.01 68.74 168.78 69.39 171.86 70.58 174.12 72.28 175.98 73.13 178.39 73.18 180.29 75.14 183.5 76.36 187.01 79.35 187.86 80.4 189.86 83.74 189.59 86.78 192.43 87.97 194.76 89.57 197.26 89.55 199.63 87.5 200.82 87.94 202.48 87.23 203.34 87.53 207.98 87.55 210.62 88.4 213.57 90.59 218.49 91.22 220.46 92.56 221.08 93.62 224.12 93.35 227.84 93.88 229.64 95.11 230.59 94.8 234.93 97.04 235.83 99.02 236.95 99.25 238.33 100.48 237.84 102.83 235.35 105.42 233.42 107.8 232.6 109.4 233.08 112.46 233.65 113.35 233.93 116.68 234.8 118.4 237.19 119.95 238.38 121.5 242.38 123.73 244.55 125.79 245.14 128.47 245.84 129.88 243.64 134.82 243.37 137.93 241.41 141.56 240.52 143.61 239.12 144.91 239.64 147.9 239.47 149.6 240.21 149.8 242.82 153.43 243.03 156.53 242.49 158.41 242.96 161.14 244.11 161.93 246.02 166.88 247.91 168.37 249.15 168.97 251.71 166.89 254.86 167.82 256.28 168.6 258.06 168.61 257.04 170.56 256.5 172.64 254.81 175.19 252.58 177.72 251.97 181.43 251.9 183.56 254.92 187.99 256.79 189.01 257.48 190.83 257.25 192.51 257.9 193.36 258.27 196.41 258.77 197.13 258.37 199.24 257.31 200.53 256.98 203.37 257.43 204.44 257.1 205.34 257.88 207.5 257.92 210.71 258.27 213.58 257.81 215.56 256.08 217.35 254.53 220.24 254.77 222 254.23 223.61 253.3 224.98 255.05 227.33 255.21 230.52 256.38 233.7 256.74 237.28 257.56 239.83 256.36 241.92 252.64 244.42 251.62 245.55 251.04 249.16 249.89 251.97 249.31 254.96 247.42 254.99 246.18 254.92 242.51 256.84 238.54 258.61 238.41 260.52 237.07 263.78 235.2 265.61 234.01 265.83 234.13 268.68 230.87 271.46 229.87 271.92 228.1 273.51 224.61 273.69 222.51 274.66 220.63 277.3 218.96 275.13 217.62 274.98 216.93 274.35 215.42 274.19 212.47 275.05 210.43 274.7 207.89 273.64 204.2 273.65 201.98 273.33 199.93 274.32 198.77 274.37 195.7 276.04 191.3 277.35 191.14 276.26 189.77 273.26 188.61 272.67 187.79 274.67 188.21 276.04 187.88 279.32 185.93 282.89 184.04 284.34 183.65 285.48 182.62 286.37 181.09 286.79 180.34 288.13 180.38 289.76 179.55 291.75 178.22 292.61 176.46 295.58 176.25 296.52 171.98 300.8 171.8 303.08 170.9 304.94 170.59 308.81 169.26 311.98 167.89 313.26 165.88 316.26 166.28 317.8 165.35 318.28 164.73 322.03 161.88 328.65 158.13 328.17 156.66 329.19 154 330.5 152.57 330.91 152.21 331.59 150.28 333.19 150.87 338.64 150.97 343.05 150.63 344.69 149.11 348.22 149.6 350.13 151.41 351.95 152.38 354.08 153.24 355.25 153.94 358.22 155.68 362.22 154.65 363.19 153.3 362.7 150.52 363.96 149.58 364.77 148.28 364.93 148.39 367.36 148.81 367.99 148.5 369.81 147.03 370.73 145.51 374.5 146.73 377.31 148.35 379.83 147.89 383.05 142.35 388.32 141.31 393.18 137.37 395.16 132.05 392.67 131.23 393.36 128.97 394.11 127.77 394.17 125.49 393.46 122.77 395.78 124.04 398.1 126.27 400.34 127.74 401.09 128.28 404.11 130.09 405.82 130.33 407.33 129.79 408.91 130.08 410.81 131.29 413.94 133.29 415.45 133.07 416.01 133.55 422.38 135.31 425.47 137.25 425.98 138.13 425.28 139.55 425.46 139.24 426.63 137.17 430.59 137.01 433.2 138.9 438.09 139.24 439.39 139.69 446.01 140.6 447.95 136.53 450.18 135.68 451.27 135.21 453.36 133.14 455.1 132 456.96 128.54 455.02 126.47 454.13 123.23 453.28 121.47 455.41 118.86 456.23 114.54 458.59 114.16 459.74 115.19 464.99 115.04 467.14 114 468.64 114.42 471.1 114.29 473.23 113.58 474.79 113.73 479.67 113.17 480.99 113.52 486.25 110.88 490.02 108.77 491.4 107.61 493.28 106.54 494.19 104.27 497.39 103.13 501.3 100.01 503.63 98.82 503.46 97 501.47 96.14 501.09 95.99 498.17 95.21 495.36 93.88 492.73 92.97 487.85 93.06 486.37 94.16 483.35 94.15 482.25 92.22 480.67 90.67 477.44 89.14 476.76 88.51 473.21 87.25 471.85 87.45 470.59 86.98 469.25 86.04 468.78 85.09 467 85.36 464.81 86.5 462.69 86.84 461.07 88.01 458.85 88.09 453.67 87.31 451.77 86.44 450.99 84.48 448.37 84.12 447.13 83.64 443.17 83.22 442.48 81.58 441.58 81.96 439.77 81.22 438.38 79.36 437.19 79.11 435.23 78.41 433.73 76.6 432.12 74.36 431.68 73.61 430.6 73.37 429.13 70.89 425.89 68.73 423.63 66.64 419.9 66.1 418.23 65.01 417.66 61.04 417.95 58.37 416.19 55.5 412.42 56.07 410.91 56.53 407.5 56.97 407.03 57.31 404.75 58.51 399.18 61.34 397.17 63.31 396.61 65.28 396.97 66.91 396.7 67.79 395.77 67.88 393.92 68.49 391.21 67.33 390.54 62.62 389.3 61.21 389.93 59.67 389.41 58.75 387.78 57.1 386.74 55.43 386.95 50.69 386.31 48.54 383.7 47.23 382.47 45.72 381.62 44.55 380.47 44.18 378.48 42.25 375.52 42.27 371.21 42.92 369.51 42.39 368.48 43.2 366.39 43.03 364.64 40.9 361.51 39.09 360.91 36.7 359.28 35.28 358.95 33.03 359.01 30.93 356.18 30.31 354.56 29.19 353.53 26.54 352.94 24.73 350.64 23.66 349.93 22.91 348.21 22.62 346.27 22.05 345.98 21.73 343.46 21.73 340.86 21.4 338.26 23.04 336.1 23.21 332.52 25.15 330.24 26.72 327.9 28.69 326.22 30.69 324 31.76 323.42 34.85 322.41 33.94 318.19 37.53 312.57 38.58 309.79 40.74 308.92 42.6 306.3 44.45 305.23 45.64 304.05 48.08 302.29 50.28 300.42 47.59 296.57 47.11 296.52 43.12 294.61 40.25 292.47 39.04 290.67 37.95 290.02 37.11 287.61 36.97 284.94 35.66 282.35 35.66 280.49 34.75 278.65 34.66 277 33.83 275.3 32.84 271.93 29.41 271.91 27.71 272.98 25.76 272.11 24.17 271.99 22.88 270.89 19.76 269.59 16.89 268.69 15.59 269.13 14.51 268.59 11.73 267.83 9.83 267.67 6.82 267.96 5.85 267.67 2 270.74 1.05 269.82 1 268.35 1.7 262.34 3.18 258.83 3.77 256.48 3.56 253.72 4.48 251.72 4.55 250.1 5.9 248.73 5.3 247.37 5.54 246.37 5.16 239.9 6.23 237.86 6.35 236.48 6.96 235.71 9.42 234.94 9.77 233.31 8.45 230.16 8.93 228.97 8.33 227.39 9.57 225.84 9.79 224.94 8.68 223.06 8.73 221.6 11.44 220.64 13 219.51 12.93 218.38 11.66 216.05 13.19 215.15 13.71 213.78 13.59 210.86 13.9 209.72 15.41 208.88 15.1 205.17 16.15 203.7 16.15 201.75 16.63 200.84 18.36 200.01 17.6 193.44 17.7 192.59 18.88 190.7 21.72 190.79 23.19 189.64 23.43 187.27 24.19 184.26 24.81 182.8 26.03 181.89 27.15 180.43 27.56 177.5 28.66 174.17 30.03 173.62 33.42 172.81 34.32 170.92 33.83 168.38 32.48 166.45 35.31 165.83 36.54 164.34 36.51 163.12 35.42 160.47 35.06 158.06 36.41 155.08 38.99 153.68 41.21 153.36 42.99 152.6 43.33 151.89 46.62 150.68 48.52 149.63 49.22 148.86 54.62 146.92 56.11 144.73 57.45 143.34 59.22 143.65 62.17 144.68 64.81 145.87 65.98 143.85 70.22 140.46 72.06 138.16 72.24 137.45 73.56 136.71 74.43 134.38 75.6 132.66 75.93 130.3 77.1 126.06 76.32 122.88 76.74 120.85 76.97 117.52 76.66 116.52 77.93 114.78 77.49 109.21 75.52 105.93 76.82 102.75 76.45 99.6 76.45 97.18 77.2 95.91 77.24 94.76 79.53 92.64 79.61 90.97 81.54 88.38 81.38 87.1 84.28 83.13 85.58 82.19 88.63 83.25 90.41 84.12 92.04 84.34 95.57 85.28 97.09 83.59 98.04 81.99 99.55 81.49 101.33 78.85 104.33 76.88 107.72 75.69 109.16 73.05 109.52 71.55 111.26 67.89 113.26 66.03 115.23 65.14 116.78 64.93 118.26 64.08 120.81 61.5 125.84 61.57 128.14 62.88 131.06 63.13 132.56 61.06 132.97 57.78 135.2 56.39 137.64 56.45 140.55 58.24 145.5 59.59 149.02 59.06 150.06 58.65 156.13 59.08 158 58.7 162.54 59.01 165.04 62.58 166.49 64.22 Z" id="32070320"/>
<path d="M 482.54 177.32 484.86 178.97 485.57 179 486.72 180.19 489.79 178.13 491.32 178.28 492.49 179.07 492.38 180.45 493.75 181.87 494.7 183.74 495.65 184.26 496.6 183.86 500.12 185.22 502.71 184.99 504.7 186.64 506.54 187.06 507.96 186.97 508.27 193.05 508.85 196.28 507.01 199.66 504.53 201.54 503.96 204.43 502.89 205.47 501.88 207.39 501.8 208.49 502.81 210.52 501.71 211.61 501.04 215.04 501.25 215.9 500.05 217.88 498.84 218.55 499.03 220.42 499.68 221.21 500 222.67 501.6 223.53 503.7 225.8 503.8 226.7 505.11 229.15 505.25 231.18 505.86 232.24 507.79 233.81 509.77 238.5 510.67 239.67 513.05 240.09 514.57 241.35 516.25 243.32 516.86 244.49 519.39 244.83 523.02 245.91 522.53 246.58 523.05 248.17 525.01 252.34 527.58 254.27 529.16 254.27 530.82 255.09 533.95 257.54 534.49 258.47 537.62 261.31 537.68 262.72 539.16 263.45 539.17 264.5 540.38 265.53 540.46 268.43 540.17 269.35 540.9 271.02 540.97 272.9 542.06 274.07 538.26 275.83 537.54 277.29 538.15 281.07 537.71 281.91 537.74 283.94 536.65 285.01 536.22 286.08 533.82 285.65 531.86 286.34 529.25 285.94 528.4 286.68 527.89 288.46 526.84 290.55 523.94 292.01 523.24 294.27 522.09 296.99 521.42 297.76 521.88 298.88 521.21 301.08 521.36 302.12 516.78 308.57 514.5 311.41 510.68 318.06 506.78 323.99 504.74 328.85 505.75 332.89 508.63 333.39 510.67 334.78 513.57 335.93 515.16 337.54 516.5 337.75 519.52 339.05 521.02 339.19 521.61 340.91 522.79 341.81 525.3 342.9 526.13 340.68 527.15 341.02 528.16 342.89 530.41 343.9 531.76 343.47 534.83 346.24 537.51 347.03 540.9 349.58 545.76 350.02 546.98 349.48 551.48 350.65 552.66 351.67 557.85 353.67 559.36 353.62 560.03 352.52 561.96 353.56 562.32 354.61 564.11 354.4 564.01 355.6 565.77 355.89 566.39 354.82 568.06 355.99 567.52 358.14 567.66 360.62 566.55 361.25 566.63 362.79 567.65 363.38 568.93 365.07 569.63 366.76 569.43 368.54 570.46 371.06 570.95 373.11 572.55 373.73 572.87 374.56 575.11 375.76 577.18 379.27 580.33 382.16 581.76 384.77 583.47 386.73 583.85 388.63 583.35 391.59 581.7 392.14 582.31 394.71 582.23 396.2 582.56 398.59 581.35 399.93 580.94 402.66 580.99 405.95 579.55 408.78 578.85 410.86 577.99 412.21 580.25 412.94 580.43 414.41 581.69 416.08 581.88 422.65 581.54 423.97 581.72 425.3 582.71 427.33 582.44 428.27 583.91 430.81 585.14 431.01 586.14 432.66 586.26 436.01 584.39 441.74 581.1 446.48 580.71 448.07 579.62 450.39 578.32 451.61 576.85 451.83 574.77 452.78 573.22 452.25 573.82 457.47 574.56 459.68 574.1 461.52 573.05 463.26 570.7 464.77 570.04 465.94 570.87 469.37 569.78 471.58 570.43 472.67 569.54 473.47 566.87 474.66 566.83 476.11 565.41 476.83 565.55 478.9 564.93 479.72 565.72 481.87 566.67 482.41 566.23 484.01 566.36 486.15 565.48 487.21 563.6 487.19 562.36 488.54 561.13 488.21 560.24 489.34 557.19 490.27 555.59 489.89 554.71 490.2 553.83 489.4 551.96 489.54 550.05 485.84 549.31 485.31 545.7 484.67 544.64 483.02 542.65 481.88 540.41 481.62 538.45 482.35 536.4 484.44 534.67 483.07 533.51 482.83 533.27 481.36 531.45 481.44 529.63 481.09 528.23 482.17 524.47 481.98 524.25 480.08 522.67 480.43 521.68 481.43 520.24 480.51 519.83 481.64 520.16 483.38 520.76 484.27 521.02 486.28 520.51 487.5 517.55 488.24 516.94 488.92 517.69 492.3 519.86 495.32 520.74 498.34 520 501.52 520.44 504.73 520.92 505.78 520.38 507.02 518.62 508.64 517.1 514.3 517.37 516.07 515.77 516.5 512.79 515.71 510.97 516.06 508.83 517.4 505.61 518.79 503.2 518.37 502.19 519.61 498.28 519.94 497.96 520.6 497.03 520.84 494 520.08 491.84 518.5 492.37 515.28 493.32 514.26 493.42 513.19 492.5 510.73 490.27 510.57 488.77 510.94 487 510.77 485.37 511.53 482.53 510.43 481.33 510.49 478.5 509.44 477.54 508.43 476.69 508.79 473.52 507.68 473.01 506.86 470.51 505.01 470.41 503.49 469.84 502.84 469.2 499.69 468.12 497.89 468.49 495.82 466.74 491.59 465.75 488.25 463.6 486.2 461.16 483.33 460.74 482.42 459.36 481.56 459.16 478.35 457.61 476.3 457.47 474.02 455.96 472.76 453.06 472.94 450.31 471.67 446.18 472.37 444.72 474.85 443.71 475.09 442.21 476.14 441.08 476.47 439.65 478.48 434.37 475.01 431.97 473.81 429.24 473.9 427.46 474.32 426.51 471.62 424.63 468.29 423.63 465.77 423.13 463.6 421.04 460.89 420.37 459.22 420.31 457.18 420.61 456.1 420 453.13 420.97 450.67 421.5 447.84 424.61 447.33 427.13 443.24 429.48 438.75 432.78 436.87 435.36 430.4 435.75 427.48 435.55 423.92 436.67 420.75 435.67 417.24 434.23 415.31 430.41 412.6 427.09 412.68 424.81 413.85 423 413.44 420.91 411.36 418.96 410.15 417.44 407.47 416.43 406.64 414.23 402.4 414.15 400.41 411.21 396.27 409.06 396.1 407.47 393.75 407.07 389.9 407.31 386.81 404.81 382.46 402.43 380.42 401.62 375.34 403.65 373.4 403.26 370.24 401.04 369.1 399.45 367.92 398.79 366.25 397.85 366.13 397 364.77 397.5 361.15 395.94 358.31 396.03 357.24 395.62 353.73 393.87 351.35 393.09 349.63 393.48 347.83 394.34 346.22 393.7 344.61 392.23 342.72 390.25 340.62 390 338.76 390.99 334.97 390.18 332.78 389.92 330.73 390.52 328.52 392.73 328.01 396.22 325.67 397.86 323.29 399.36 321.99 400.27 320.06 399.4 316.25 398.96 315.57 398.8 313.51 400.47 311.15 402.45 310.43 402.72 309.24 404.97 305.65 404.22 304.29 404.74 299.37 405.54 298.52 405.57 297.08 406.2 295.6 407.02 295.05 407.1 293.57 405.16 292.74 403.87 291.09 403.12 290.73 402.2 289.14 402.22 288.2 403.23 285.6 403.09 284.85 404.08 283.61 406.23 282.84 406.45 281.51 407.78 279 409.81 277.3 410.85 276.83 412.55 275.23 410.8 271.73 409.46 270.62 408.05 268.87 404.98 266.26 399.44 262.77 397.92 262.45 397.03 259.7 397.38 257.39 395.64 253.56 396.12 251.8 395.63 250.3 395.88 249.07 395.35 247.82 395.67 246.26 395.16 242.89 395.4 241.71 393.68 240.37 392.15 237.79 391.93 236.61 392.53 234.97 392.45 233.05 391.03 231.11 389.53 228.53 388.97 226.73 387 226.44 385.92 225.42 385.5 224.28 385.92 220.84 386.6 219 386.42 217.6 387.06 215.56 386.9 213.83 387.83 213.83 392.33 210.52 392.48 210.11 396.05 207.96 396.59 205.35 398.16 204.81 399.11 203.35 404.36 201.13 408.02 198.74 411.41 197.4 414.02 198.15 414.9 197.5 416.32 197.43 417.14 194.97 419.39 192.94 421.81 191.38 425.11 192.01 428.38 191.1 430.13 189.66 430.67 186.05 430.63 184.71 433.25 183.69 434.06 182.38 436.03 181.34 437.81 177.45 437.61 176.07 437.98 174.34 440.15 173.99 441.66 172.77 441.6 170.58 442.96 167.93 444.61 167.22 446.88 165.21 449.29 164.86 451.09 163.88 452.26 162.42 454.9 164.69 455.31 165.3 457.9 166.94 457.78 169.51 457.31 170.32 457.05 173.15 455.25 175.48 454.5 177.51 455.2 179.8 456.91 182.32 459.36 184.58 461.4 185.08 462.81 185.95 466.82 189.3 467.48 189.55 469.62 187.76 470.02 186.76 472.15 186.24 474.18 182.78 476.19 183.29 477.45 182.02 478.59 180.02 480.06 179.24 481.42 177.87 482.54 177.32 Z" id="32070330"/>
<path d="M 346.97 41.69 347.92 44.1 348.96 45.61 349.2 47.96 350.77 49.04 352.56 48.68 355.17 48.95 355.62 51.47 356.79 52.97 357.2 54.6 356.72 57.04 358.91 57.41 359.7 58.39 359.75 61.05 361.61 61.44 363.53 60.73 365.57 62.04 367.96 63.23 368.17 64.22 370.72 64.78 370.94 66.41 372.04 68.85 373.34 68.5 375.12 69.27 379.22 73.27 380.08 74.56 382.14 75.92 382.95 76.9 387.3 79.54 388.81 79.82 391.17 81.36 392.32 83.44 392.24 84.87 393.15 86.94 395.26 87.27 395.63 86.35 398.15 86.08 399.99 87.67 401.37 87.08 402.42 88.94 404.05 89.49 404.48 88.94 406.32 89.05 407.59 88.28 409.86 89.62 412 91.55 412.41 90.13 415 89.04 416.85 91.32 419.89 93.58 422.01 94.72 423.58 97.16 425.73 97.49 427.7 97.12 429.4 98 430.41 99.27 428.72 100.59 428.66 103.26 427.79 106.28 427.36 106.65 427.78 109.28 427.78 110.98 426.66 113.74 427.37 118.2 426.45 122.3 426.58 123.29 428.88 128.7 430.2 130.06 431.05 132.46 430.13 134.45 430.75 136.51 434.22 134.09 438.09 133.52 438.4 139.69 439.75 141.41 441.07 145.03 440.13 146.02 440.79 148.29 441.78 150.22 443.83 151.87 443.45 153.27 444.57 157.25 444.1 158.77 444.38 160.08 443.77 162.28 442.32 166.22 442.96 167.93 441.6 170.58 441.66 172.77 440.15 173.99 437.98 174.34 437.61 176.07 437.81 177.45 436.03 181.34 434.06 182.38 433.25 183.69 430.63 184.71 430.67 186.05 430.13 189.66 428.38 191.1 425.11 192.01 421.81 191.38 419.39 192.94 417.14 194.97 416.32 197.43 414.9 197.5 414.02 198.15 411.41 197.4 408.02 198.74 404.36 201.13 399.11 203.35 398.16 204.81 396.59 205.35 396.05 207.96 392.48 210.11 392.33 210.52 387.83 213.83 386.9 213.83 387.06 215.56 386.42 217.6 386.6 219 385.92 220.84 385.5 224.28 385.92 225.42 385.14 225.39 381.09 226.66 379.32 225.91 376.54 222.55 373.92 223.57 371.09 223.46 372.23 222.19 369.01 221.56 368.31 219.51 365.85 218.87 364.93 217.97 364.36 219.37 362.48 220.56 360.77 220.94 358.95 224.72 358.16 227.38 353.34 228.37 349.82 229.64 347.26 229.51 345.61 231.09 343.89 232.27 341.82 230.26 341.14 228.46 339.97 228.94 338.99 231.1 336.17 233.26 335.33 232.61 332.94 232.99 330.21 232.87 328.05 231.59 326.1 232.92 323.92 234.02 321.33 233.65 320.29 232.75 319.95 231.42 318.78 230.19 316.9 229.14 314.8 229.82 313.24 228.74 312.1 228.62 308.52 230.75 305.87 231.16 302.65 227.74 300.27 227.91 298.92 226.97 297.56 226.59 296.08 225.32 293.78 224.23 292.74 224.31 289.78 222.58 287.06 220.33 285.34 219.25 284.43 219.15 282.81 217.82 280.92 218.77 279.94 219.75 276.84 219.42 274.61 220.98 266.34 222.73 265.23 223.3 264.24 222.97 261.68 224.4 260.22 224.66 256.69 226.08 255.05 227.33 253.3 224.98 254.23 223.61 254.77 222 254.53 220.24 256.08 217.35 257.81 215.56 258.27 213.58 257.92 210.71 257.88 207.5 257.1 205.34 257.43 204.44 256.98 203.37 257.31 200.53 258.37 199.24 258.77 197.13 258.27 196.41 257.9 193.36 257.25 192.51 257.48 190.83 256.79 189.01 254.92 187.99 251.9 183.56 251.97 181.43 252.58 177.72 254.81 175.19 256.5 172.64 257.04 170.56 258.06 168.61 256.28 168.6 254.86 167.82 251.71 166.89 249.15 168.97 247.91 168.37 246.02 166.88 244.11 161.93 242.96 161.14 242.49 158.41 243.03 156.53 242.82 153.43 240.21 149.8 239.47 149.6 239.64 147.9 239.12 144.91 240.52 143.61 241.41 141.56 243.37 137.93 243.64 134.82 245.84 129.88 245.14 128.47 244.55 125.79 242.38 123.73 238.38 121.5 237.19 119.95 234.8 118.4 233.93 116.68 233.65 113.35 233.08 112.46 232.6 109.4 233.42 107.8 235.35 105.42 237.84 102.83 238.33 100.48 240.05 99.47 241.93 96.03 242.42 94.12 243.36 92.17 244.04 86.95 244.62 85.57 245.86 84.8 246.71 82.92 248.98 80.87 250.57 80.47 253.58 77.64 256.08 76.51 257.43 75.45 262.74 72.86 268.93 68.61 270.5 66.65 271.58 64.36 272.78 63.73 275.12 61.26 277.01 61.25 279.51 60.24 280.91 58.76 284.62 56.2 284.68 53.25 285.63 50.96 288.4 49.01 291.44 48.15 292.95 47.4 295.87 45.4 296.48 44.31 298.48 44.02 299.6 43.42 301.32 43.22 303.49 41.67 305.59 42.21 307.22 43.32 308.93 42.25 309.9 42.27 312.02 41.37 312.95 39.46 312.75 38.37 314.06 37.66 315.56 38.3 319.79 37.58 320.26 36.91 322.55 36.3 324.55 36.22 328.24 35.46 329.16 34.76 329.81 34.57 331.97 36.72 334.11 38.03 336.26 38.29 337.68 38.13 339.08 39.85 340.14 40.3 342.74 42.08 344.48 41.42 346.97 41.69 Z" id="32070340"/>
<path d="M 597.11 759.24 595 760.7 594.13 761.67 592.02 762.33 589.43 764.89 590.22 765.75 590.22 766.75 591.2 767.81 592.94 767.9 594.35 768.78 596.56 772.12 598 773.86 597.48 777.08 598.19 777.57 599.73 779.78 601.6 783.33 600.38 786.6 599.61 790 598.36 793 596.21 794.26 595.33 794.18 594.95 796.15 595.5 798.28 596.62 800.86 598.38 800.93 600.04 801.7 599.16 805.6 600.56 807.95 601.82 809.3 601.88 811.3 602.26 812.1 601.82 815.84 602.45 816.7 602.49 818.43 601.61 819.91 603.45 821.93 604.44 822.16 605.03 823.22 606.04 823.08 606.4 824.06 608.3 825.69 609.36 826.04 610.47 827.1 611.59 829.77 609.97 831 609 829.02 607.8 827.98 604.9 828.45 603.44 828 600.53 825.59 599.21 825.41 598.39 824.16 595.34 823.38 592.35 821.91 590.63 820.38 588.92 820.73 587.8 821.69 586.76 821.04 583.66 821.15 581.54 822.24 579.89 822.42 577.43 821.71 575.1 821.96 573.14 823.69 569.54 823.41 568.14 822.51 566.28 822.64 564.34 822.17 563.46 821.29 559.7 820.32 555.3 821.45 551.51 824.87 549.91 825.31 547.93 824.97 545.91 825.36 544.18 828.95 542.07 828.4 540.89 829.01 537.86 829.05 536.89 828.56 533.2 827.83 532.21 826.88 529.89 827.2 528.34 823.31 529.05 821.54 529.09 817.96 527.2 816.73 527.48 815.58 526.94 813.67 525.97 812.51 523.85 810.83 523.24 808.5 521.86 807.02 521.79 805.51 519.74 803.82 519.7 802.88 516.49 798.95 515.3 798.7 514.38 796.93 513.2 796.65 511.71 795.29 511.23 795.52 509.06 794.37 507.96 793.05 506.18 792.26 505.11 790.05 504.24 786.43 502.65 784.51 500.42 783.05 499.57 780.39 498.87 779.13 499.3 775.66 496.92 775.31 495.1 775.59 492.66 776.44 490.97 775.1 489.06 774.9 488.7 772.89 486.79 771.84 482.63 773.89 481.9 771.18 478.46 768 477.74 768.39 476.27 766.66 474.09 766.09 472.22 764.41 471.41 763.02 469.41 762.69 468.24 762.89 465.64 762.29 464.96 761.46 464.99 759.98 462.61 757.01 462.29 755.2 461.17 754.73 460.84 753.72 458.08 751.62 456.66 753.03 455.67 753.36 453.71 752.65 451.24 752.85 449.11 752.76 446.19 750.23 439.26 747.91 438.16 746.76 438.14 744.75 437.64 742.07 438.2 739.97 437.75 738.95 435.47 738.23 433.43 738.31 431.96 737.59 432.42 735.05 429.14 734.12 428.16 733.14 426.02 733.44 424.88 732.46 422.01 732.76 421.14 732.32 419.83 733.29 415.77 733.1 413.55 731.88 411.76 731.93 410.78 731.13 409.29 731.34 407.97 728.95 407.18 728.64 406.39 727.07 404.81 724.95 404.11 723.45 402.26 722.49 399.82 720.76 397.79 720.29 394.46 721.24 393.66 719.48 392.27 719.34 391.42 718.57 390.53 718.78 388.64 714.67 388.74 712.47 387.16 709.5 387.34 708.91 382.59 702.47 381.51 698.94 379.29 694.36 378.28 693.66 378.47 691.23 380.38 686.42 382.69 685.09 384.08 682.45 383.82 681.59 382.66 680.99 381.65 679.73 381.15 676.1 379.5 674.74 379.84 673.22 380.98 671.58 382.25 667.03 381.77 663.15 384.86 659.72 385.9 654.33 385.88 652.33 386.71 650.4 387.76 649.15 388.48 646.26 386.73 644.55 386.02 642.63 385.4 639.22 383.77 639.03 381.84 637.32 378.09 636 379.3 633.69 378.38 631.87 377.5 628.86 378.62 626.06 378.51 623.75 378.1 621.31 376.53 619.84 377.72 615.9 378.32 615.39 377.23 613.47 377.74 612.05 377.3 608.84 375.28 607.6 374.31 606.12 375.87 604.45 377.95 601.31 377.37 600.26 377.76 598.5 377.66 596.76 380.35 595.37 383.41 592.72 384.21 593.15 386.27 593.4 387.66 591.11 387.48 589.25 389.22 588.2 390.16 586.96 392.5 585.33 392.78 584.01 394.09 582.95 397.19 582.48 397.73 582.79 400.01 582.28 402.69 585.09 404.84 585.1 405.93 585.79 408.19 585.93 408.9 585.04 412.26 584.95 413.63 583.14 416 581.89 418.15 582.05 419.09 582.72 421.18 582.08 423.11 580.62 425.99 580.92 428.51 578.84 432.52 576.27 434.38 576.85 437.06 578.69 441.42 580.8 442.07 579.07 442.77 578.59 444.51 579.06 445.87 576.73 448.56 576.57 451.24 574.23 452.27 574.08 456.79 574.35 457.77 574.58 460.42 573.41 460.7 572.76 463.84 571.81 465.07 570.98 469.15 573.18 470.68 575.71 472.38 576.6 473.13 576.55 474.87 574.38 475.4 571.7 476.01 570.28 477.5 568.49 478.45 566.61 478.48 565.42 479.34 564.61 481.01 564.43 481.21 563.48 482.35 563.15 483.87 561.86 484.8 560.11 485.83 557.43 488.72 557.12 490.73 555.92 492.33 555.83 493.21 552.13 494.74 551.62 496.4 548.93 497.24 545.1 497.77 544.19 497.58 543.12 495.93 541.48 495.67 540.41 496.57 538.08 496.72 536.68 495.71 534.17 495.19 531.88 495.77 529.07 497 527 496.62 525.96 498.14 522.38 499.85 522.39 502.21 521.86 502.95 522.55 504.27 522.15 505.75 523.46 506.78 523.71 507.8 524.71 510.45 524.45 511.81 523.31 513.1 523.54 514.81 522.67 515.43 521.78 517.22 521.37 518.69 522.18 520.63 521.77 522.63 522.95 523.76 523.97 524.28 525.05 526.78 525.47 527.59 526.02 528.67 529.02 530.63 529.72 530.74 532.01 531.77 533.69 533.27 535.13 533.53 536.4 534.32 537.08 533.98 538.95 534.29 540.44 535.34 541.96 537.2 542.63 537.58 543.83 538.55 544.43 539.43 547.73 543.45 550.79 545.09 550.87 546.44 551.46 548.06 550.7 549.37 550.77 550.64 549.66 554.89 550.35 556.3 550.13 557.68 550.49 559.12 550.21 561.6 549.07 564.31 551.59 566.93 552.87 568.32 552.39 569.38 552.71 571.39 551.04 573.18 551.09 575.36 549.53 577.69 549.54 580.78 551.06 580.85 552.91 581.81 555.23 582.84 556.45 582.16 558.92 582.87 559.87 583.14 561.82 583.9 562.84 583.91 564.24 586.62 566.78 587.22 568.02 586.62 569.43 586.6 571.52 588.64 573.81 589.91 575.64 588.92 580.6 586.41 580.93 585.08 582.06 584.25 583.85 584.89 586.67 584.46 587.48 584.48 590.96 582.45 595.34 583.42 596.94 583.77 599 584.93 599.7 585.76 601.13 588.29 601.51 589.45 602.85 592.28 603.24 595.07 602.27 596.6 602.4 600.85 601.34 603.17 602.17 603.39 605.29 604.74 606.13 606.56 612.12 605.48 613.3 606.86 615.03 607.75 617.89 607.04 619.55 605.66 621.74 604.19 623.27 604.09 633.7 602.51 637.3 600.87 639.22 599.84 639.84 597.39 642.3 595.17 643.5 594.04 645.39 592.26 645.86 591.07 646.58 590.13 648.38 588.45 650.58 587.44 650.8 586.14 651.8 585.99 652.52 583.23 657.17 582.25 658.15 581.55 660.17 581.89 661.8 580.02 663.74 576.02 665.02 575.12 665.48 574.32 664.91 572.82 664.84 571.07 669.41 572.21 671.22 571.95 672.86 572.57 674.2 573.05 676.54 574.02 678.03 574.09 679.99 573.24 682.66 571.46 684.72 571.18 687.34 569.72 690.36 570.88 691.91 571.15 693.15 569.51 696.67 569.99 698.39 570.99 699.52 570.96 701.22 572.23 702.7 574.14 703.61 576.26 705.98 576.42 707.98 577.69 708.94 578.73 711.85 577.24 714.64 577.24 717.32 577.67 718.57 577.35 720.53 577.77 722.92 578.61 724.38 577.57 726.83 578.89 729.36 580.43 730.18 581.55 731.48 582.09 733.86 581.25 736 582.97 738.35 583.92 738.89 585.14 741.37 586.58 742 589.15 745.18 590.64 746.42 592.01 749.64 593.04 753.86 596.24 755.34 597.02 756.77 597.11 759.24 Z" id="32070350"/>
<path d="M 385.92 225.42 387 226.44 388.97 226.73 389.53 228.53 391.03 231.11 392.45 233.05 392.53 234.97 391.93 236.61 392.15 237.79 393.68 240.37 395.4 241.71 395.16 242.89 395.67 246.26 395.35 247.82 395.88 249.07 395.63 250.3 396.12 251.8 395.64 253.56 397.38 257.39 397.03 259.7 397.92 262.45 399.44 262.77 404.98 266.26 408.05 268.87 409.46 270.62 410.8 271.73 412.55 275.23 410.85 276.83 409.81 277.3 407.78 279 406.45 281.51 406.23 282.84 404.08 283.61 403.09 284.85 403.23 285.6 402.22 288.2 402.2 289.14 403.12 290.73 403.87 291.09 405.16 292.74 407.1 293.57 407.02 295.05 406.2 295.6 405.57 297.08 405.54 298.52 404.74 299.37 404.22 304.29 404.97 305.65 402.72 309.24 402.45 310.43 400.47 311.15 398.8 313.51 398.96 315.57 399.4 316.25 400.27 320.06 399.36 321.99 397.86 323.29 396.22 325.67 392.73 328.01 390.52 328.52 389.92 330.73 390.18 332.78 390.99 334.97 390 338.76 390.25 340.62 392.23 342.72 393.7 344.61 394.34 346.22 393.48 347.83 392.13 348.3 389.72 350.21 386.9 350.29 383.88 349.46 377.67 349.28 375.63 348.58 371.87 348.31 369.67 347.21 367.49 349.34 364.43 350.1 359.75 350.02 357.51 350.96 353.55 351.29 352.06 352.31 348.76 352.27 346.19 351.95 345.62 350.19 346.65 348.56 346.46 347.99 344.83 347.28 344.59 346.49 342.99 344.51 342.07 342.57 338.09 340.57 336.54 338.89 334.26 338.39 332.69 336.84 331.37 333.45 331.25 332.12 333.16 330.83 333.1 329.28 334.14 328.16 334.19 327.14 335.2 326.13 335.02 325.39 335.8 323.41 337.44 322.39 338.76 322.23 340.71 320.29 341.65 316.84 341.16 316.16 341.12 312.75 340.7 311.7 337.87 311.19 337.07 311.29 332.64 309.31 328.93 309.64 326.49 308.97 325.97 309.74 323.83 310.84 323.01 312.5 320.74 311.51 319.42 311.38 316.71 313.95 311.73 314.44 309.91 316.51 307.11 318.59 306.03 321.88 304.56 323.66 304.79 325.85 305.37 326.84 302.65 328.86 301.25 329.12 298.43 331.03 297.47 332.73 296.91 332.7 295.2 334.39 292.17 336.25 291.71 337.16 287.56 340.14 284.03 339.69 282.56 340.02 281.27 339.79 280.07 338.94 277.91 339.18 276.18 339.05 273 337.9 269.79 335.08 266.03 334.92 264.57 334.65 264.02 333.76 263.45 331.51 260.68 331.48 260.04 329.99 258.27 326.97 256.29 326.39 255.45 324.69 254.7 322.28 252.98 319.36 250.65 319.77 250.05 318.47 248.87 318.53 246.63 316.87 245.87 316.99 245 314.3 243.83 313.82 241.05 310.36 240.24 307.73 238.49 306.7 237.03 306.59 233.57 305.84 233.36 305.33 234.97 301 234.64 298.61 233.81 296.3 232.67 295.25 235.24 292.78 239.68 289.54 242.07 289.34 242.19 286.25 243.47 284.42 243.97 282.55 245.21 280.66 248.39 280.7 248.72 277.21 252.56 275.94 254.15 273.21 254.47 271.06 256.51 269.76 256.86 268.4 254.19 267.62 250.85 266.12 250.03 265.33 249.38 263.31 250.19 260.44 247.42 254.99 249.31 254.96 249.89 251.97 251.04 249.16 251.62 245.55 252.64 244.42 256.36 241.92 257.56 239.83 256.74 237.28 256.38 233.7 255.21 230.52 255.05 227.33 256.69 226.08 260.22 224.66 261.68 224.4 264.24 222.97 265.23 223.3 266.34 222.73 274.61 220.98 276.84 219.42 279.94 219.75 280.92 218.77 282.81 217.82 284.43 219.15 285.34 219.25 287.06 220.33 289.78 222.58 292.74 224.31 293.78 224.23 296.08 225.32 297.56 226.59 298.92 226.97 300.27 227.91 302.65 227.74 305.87 231.16 308.52 230.75 312.1 228.62 313.24 228.74 314.8 229.82 316.9 229.14 318.78 230.19 319.95 231.42 320.29 232.75 321.33 233.65 323.92 234.02 326.1 232.92 328.05 231.59 330.21 232.87 332.94 232.99 335.33 232.61 336.17 233.26 338.99 231.1 339.97 228.94 341.14 228.46 341.82 230.26 343.89 232.27 345.61 231.09 347.26 229.51 349.82 229.64 353.34 228.37 358.16 227.38 358.95 224.72 360.77 220.94 362.48 220.56 364.36 219.37 364.93 217.97 365.85 218.87 368.31 219.51 369.01 221.56 372.23 222.19 371.09 223.46 373.92 223.57 376.54 222.55 379.32 225.91 381.09 226.66 385.14 225.39 385.92 225.42 Z" id="32070360"/>
<path d="M 489.95 66.58 489.11 67.64 488.13 71.28 487.46 72.52 486.29 73.62 487.68 75.85 490.19 77.25 491.37 78.97 494.48 81.42 498.28 83.27 501.12 84.27 503.99 84.64 508.72 85.63 515.27 85.71 520 83.71 521.15 84.85 522.17 85.17 522.48 86.84 523.72 88.06 523.6 91.04 524.66 91.82 524.34 94.18 523.13 94.67 523.8 95.89 523.43 97.33 524.39 98.98 527.59 99.94 528.19 104.14 529.02 105.49 530.59 107.23 531.82 107.04 530.81 108.37 528.51 109.97 528.64 112.4 527.46 114.22 526.64 114.41 526.27 115.65 525.12 115.9 524.63 116.87 523.15 118.29 522.68 120.42 522.79 122.04 521.64 122.01 520.01 121.15 517.49 120.37 517.05 121.63 516.19 122.3 515.91 123.59 516.2 125.26 514.17 125.64 511.8 125.71 509.74 126.74 509.25 127.55 509.68 129.44 507.87 129.99 505.68 131.06 504.68 132.86 503.07 133.56 502.44 135.77 500.14 137.09 498.33 139.11 495.31 139.32 493.8 141.52 492.35 141.29 490.49 143.1 489.41 147.01 488.94 147.77 490.08 148.95 490.28 150.73 488.73 153.36 488.97 154.27 490.87 156.11 488.07 158.71 488.21 159.81 486.89 161.98 488.05 164.73 489.28 166.24 488.74 167.61 487 168.35 486.43 170.35 484.9 172.26 484.49 173.61 482.54 177.32 481.42 177.87 480.06 179.24 478.59 180.02 477.45 182.02 476.19 183.29 474.18 182.78 472.15 186.24 470.02 186.76 469.62 187.76 467.48 189.55 466.82 189.3 462.81 185.95 461.4 185.08 459.36 184.58 456.91 182.32 455.2 179.8 454.5 177.51 455.25 175.48 457.05 173.15 457.31 170.32 457.78 169.51 457.9 166.94 455.31 165.3 454.9 164.69 452.26 162.42 451.09 163.88 449.29 164.86 446.88 165.21 444.61 167.22 442.96 167.93 442.32 166.22 443.77 162.28 444.38 160.08 444.1 158.77 444.57 157.25 443.45 153.27 443.83 151.87 441.78 150.22 440.79 148.29 440.13 146.02 441.07 145.03 439.75 141.41 438.4 139.69 438.09 133.52 439.41 132.51 441.29 132.85 444.24 132.08 445.34 132.28 447.65 131.97 449.48 129.53 449.68 128.14 451.18 126.1 451.36 124.61 452.5 122.89 452.01 120.81 452.61 120.31 454.77 120.25 456.23 118.67 459.38 119.39 460.26 119.21 460.62 115.91 462.08 114.91 462.88 110.94 462.76 110.39 465.55 109.36 466.45 108.5 465.72 106.78 466.78 105.15 465.8 103.3 465.94 102.32 467.64 100.28 469.45 99.51 471.61 97.46 473.3 97.03 475.72 95.5 477.21 95.04 477.42 93.27 476.32 90.79 475.56 90.58 475.13 88.5 474.55 87.38 474.82 84.97 476.46 80.88 476.23 79.47 477.67 76.56 478.6 74.21 477.22 72.79 479.03 70.39 477.79 70.31 479.02 68.37 479.61 68.21 479.34 65.71 478.88 65.44 478.68 62.64 479.67 60.43 482.08 60.55 483.8 58.6 487.43 58.53 487.95 57.5 490.38 55.78 492.6 59.37 493.6 62.69 493.53 64.05 492.5 65.19 489.95 66.58 Z" id="32070510"/>
<path d="M 435.02 45.91 437.05 47.67 437.49 49.1 436.74 50.07 436.72 51.26 438.24 52.67 439.16 52.43 439.73 50.49 442.32 49.77 443.11 50.16 444.06 52.86 445.48 53.29 447.8 53.1 450.34 54.07 452.31 54.33 454.42 55.92 456.23 54.87 458.59 56.77 460.3 57.36 461.48 59.72 465.11 59.73 464.03 57.99 464.54 57.5 467.55 57.12 470.43 58.77 471.44 58.5 470.49 54.27 470.56 51.41 471.05 50.4 473.27 50.17 475.7 51.65 476.13 53.75 477.02 54.68 478.28 57.22 479.02 57.29 480.33 56.4 481.96 55.86 484.51 54.6 488.56 51.69 490.38 55.78 487.95 57.5 487.43 58.53 483.8 58.6 482.08 60.55 479.67 60.43 478.68 62.64 478.88 65.44 479.34 65.71 479.61 68.21 479.02 68.37 477.79 70.31 479.03 70.39 477.22 72.79 478.6 74.21 477.67 76.56 476.23 79.47 476.46 80.88 474.82 84.97 474.55 87.38 475.13 88.5 475.56 90.58 476.32 90.79 477.42 93.27 477.21 95.04 475.72 95.5 473.3 97.03 471.61 97.46 469.45 99.51 467.64 100.28 465.94 102.32 465.8 103.3 466.78 105.15 465.72 106.78 466.45 108.5 465.55 109.36 462.76 110.39 462.88 110.94 462.08 114.91 460.62 115.91 460.26 119.21 459.38 119.39 456.23 118.67 454.77 120.25 452.61 120.31 452.01 120.81 452.5 122.89 451.36 124.61 451.18 126.1 449.68 128.14 449.48 129.53 447.65 131.97 445.34 132.28 444.24 132.08 441.29 132.85 439.41 132.51 438.09 133.52 434.22 134.09 430.75 136.51 430.13 134.45 431.05 132.46 430.2 130.06 428.88 128.7 426.58 123.29 426.45 122.3 427.37 118.2 426.66 113.74 427.78 110.98 427.78 109.28 427.36 106.65 427.79 106.28 428.66 103.26 428.72 100.59 430.41 99.27 429.4 98 427.7 97.12 425.73 97.49 423.58 97.16 422.01 94.72 419.89 93.58 416.85 91.32 415 89.04 412.41 90.13 412 91.55 409.86 89.62 407.59 88.28 406.32 89.05 404.48 88.94 404.05 89.49 402.42 88.94 401.37 87.08 399.99 87.67 398.15 86.08 395.63 86.35 395.26 87.27 393.15 86.94 392.24 84.87 392.32 83.44 391.17 81.36 388.81 79.82 387.3 79.54 382.95 76.9 382.14 75.92 380.08 74.56 379.22 73.27 375.12 69.27 373.34 68.5 372.04 68.85 370.94 66.41 370.72 64.78 368.17 64.22 367.96 63.23 365.57 62.04 363.53 60.73 361.61 61.44 359.75 61.05 359.7 58.39 358.91 57.41 356.72 57.04 357.2 54.6 356.79 52.97 355.62 51.47 355.17 48.95 352.56 48.68 350.77 49.04 349.2 47.96 348.96 45.61 347.92 44.1 346.97 41.69 348.18 41.42 352.17 38.47 354.39 37.51 355.14 35.54 356.59 33.9 359.82 34.19 360.72 32.57 363.83 33.53 364.83 32.31 369.89 30.11 371.18 30.3 374.2 29.02 375.49 27.75 379.29 28.99 380.1 31.34 379.89 32.98 382 33.88 382.41 34.5 384.93 34.95 385.84 36.85 387.32 35.95 388.03 37.05 388.95 37.36 389.4 39.04 390.84 38.87 392.33 40.27 393.34 41.88 394.52 42.03 395.93 41.45 396.68 39.79 397.66 39.48 400.17 39.67 402.17 38.33 403.11 36.69 403.8 34.61 406.43 32.33 408.12 32.86 409.06 32.57 411.2 33.27 412.5 34.67 413.57 35.21 415.44 37.69 417.21 39.1 418.05 38.49 420.07 39.41 420.91 38.65 424.42 39.27 425.5 40.26 425.87 42.1 428.3 40.65 428.2 42.16 429.76 44.13 431.27 44.42 432.43 46.06 433.8 45.25 435.02 45.91 Z" id="32070520"/>
<path d="M 473.45 1.91 477.22 6.06 481.69 6.24 481.77 7.28 480.85 7.79 480.74 9.06 482.01 10.63 485.84 14.48 492.74 20.46 494.66 20.78 496.84 23.17 498.13 23.74 501.06 21.87 500.25 23.81 500.72 24.74 501.76 24.42 503.28 27.43 502.8 28.5 503.55 30.07 505.51 29.84 506.81 30.09 506.99 31.64 508.1 32.44 508.69 33.52 508.42 34.38 510.3 36.23 512.84 36.12 513.33 37.67 514.88 38.89 514.36 39.55 514.28 41.03 515.4 43.54 513.57 43.62 513.73 44.73 517.08 45.9 517.8 45.7 518.87 46.85 518.65 48.28 518.93 49.68 517.75 49.62 517.37 50.57 516.26 51.3 515.47 53.32 514.15 55.4 511.84 56.91 509.08 57.11 507.04 55.55 507.21 54.55 505.8 52.04 504.6 52.48 504.17 53.63 503.03 53.64 501.24 53.03 501.34 53.95 496.32 54.47 496.53 56.68 491.83 57.04 494.1 61.18 495.96 64.02 496.09 64.62 492.61 66.55 489.95 66.58 492.5 65.19 493.53 64.05 493.6 62.69 492.6 59.37 490.38 55.78 488.56 51.69 484.51 54.6 481.96 55.86 480.33 56.4 479.02 57.29 478.28 57.22 477.02 54.68 476.13 53.75 475.7 51.65 473.27 50.17 471.05 50.4 470.56 51.41 470.49 54.27 471.44 58.5 470.43 58.77 467.55 57.12 464.54 57.5 464.03 57.99 465.11 59.73 461.48 59.72 460.3 57.36 458.59 56.77 456.23 54.87 454.42 55.92 452.31 54.33 450.34 54.07 447.8 53.1 445.48 53.29 444.06 52.86 443.11 50.16 442.32 49.77 439.73 50.49 439.16 52.43 438.24 52.67 436.72 51.26 436.74 50.07 437.49 49.1 437.05 47.67 435.02 45.91 435.63 45.09 435.5 43.79 436.38 42.15 435.97 39.42 437.25 38.69 438.57 36.63 439.05 34.11 439.87 32.64 439.41 29.83 439.75 27.42 440.91 25.32 441.13 24.28 442.33 23.17 443.45 22.74 444.17 20.94 445.01 20.34 449.48 20.44 451.1 21.1 452.78 21.25 454.54 22.86 455.73 22.71 456.58 21.93 458.21 21.76 458.96 21.06 459 18.95 461.28 14.33 463.16 11.7 462.64 10.72 464.42 8.75 464.49 7.06 465.02 5.23 466.27 5.02 467.59 4.03 469.53 1 470.34 1.94 473.45 1.91 Z" id="32070530"/>
<path d="M 520 83.71 515.27 85.71 508.72 85.63 503.99 84.64 501.12 84.27 498.28 83.27 494.48 81.42 491.37 78.97 490.19 77.25 487.68 75.85 486.29 73.62 487.46 72.52 488.13 71.28 489.11 67.64 489.95 66.58 492.61 66.55 496.09 64.62 495.96 64.02 494.1 61.18 491.83 57.04 496.53 56.68 496.32 54.47 501.34 53.95 501.24 53.03 503.03 53.64 504.17 53.63 504.6 52.48 505.8 52.04 507.21 54.55 507.04 55.55 509.08 57.11 511.84 56.91 514.15 55.4 515.47 53.32 516.26 51.3 517.37 50.57 517.75 49.62 518.93 49.68 518.51 50.23 518.5 52.77 518.94 53.69 518.36 54.75 518.8 56.78 519.32 57.47 518.6 58.59 520.41 59.68 521.09 61.45 523.17 64.5 523.59 66 524.66 66.83 525.89 73.49 526.8 79.09 528.61 81.39 528.16 82.25 526.1 79.75 523.7 73.72 522.21 73.42 520.34 71.48 516.78 71.57 515.39 72.59 515.29 73.97 516.43 74.03 516.84 72.67 520.91 73.01 521.67 73.91 521.32 74.72 518.62 74.55 518.43 79.76 523.01 80.27 522.97 81.02 520.73 80.72 519.74 81.27 520 83.71 Z" id="32070540"/>
</g>
</svg>