<?xml version="1.0"?>
<svg xmlns="http://www.w3.org/2000/svg" version="1.2" baseProfile="tiny" width="800" height="380" viewBox="0 0 800 380" stroke-linecap="round" stroke-linejoin="round">
<g id="dong">
<path d="M 327.02 230.32 326.06 230.25 323.96 229.58 323.43 229.59 321.47 230.83 320.9 230.85 320.31 230.45 319.19 230.73 318.46 231.32 318.02 231.09 317.48 231.35 315.33 231.22 314.6 229.67 312.38 228.51 312.03 227.76 310.98 227.29 308.76 227.25 308.67 227.51 307.52 227.48 306.83 228.27 306.21 228.39 305.87 229.01 305.32 229.31 305.2 229.86 303.79 230.78 303.12 231.04 303.03 231.68 302.55 232.07 302.05 231.92 300.87 231.2 300.07 230.96 299.1 230.33 297.02 231.12 296.29 231.58 294.23 232.48 293.43 233.32 292.67 234.81 292.51 235.46 294.63 236.6 294.83 235.94 295.62 236.56 296.34 238 296.54 238.67 296.48 239.51 296.21 240.16 295.31 240.2 295.41 240.87 295.88 241.55 296.02 242.22 295.71 242.63 295.69 243.51 295.42 243.94 294.37 244.52 293.82 245.22 292.4 245.95 291.77 245.98 291.43 246.53 290.07 247.16 289.45 247.32 288.47 247.28 287.99 246.83 287.84 248.03 287.52 248.67 287.89 249.32 287.81 250.12 287.34 250.35 287.13 250.92 286.4 251.01 286.24 251.47 285.55 251.6 285.1 252.81 284.49 253.63 284.72 254.02 284.45 254.49 282.39 253.47 281.35 253.08 280.72 253.67 280.07 253.51 279.47 254.02 278.84 254.18 277.62 255.14 277.44 256.37 276.88 256.7 276.59 257.31 275.38 257.81 274.97 258.65 273.91 259 273.69 259.41 272.32 259.96 272.03 260.22 272.88 261.36 272.96 262.42 272.82 263.21 272.18 263.61 272.28 265.36 272.93 265.9 273.62 267.95 274.61 268.16 274.83 268.92 275.36 268.96 275.65 270.81 275.17 271.91 274.31 272.85 274.66 273.95 274.31 275.06 274.89 276.21 275.65 277.41 276.2 277.76 275.85 279.37 276.68 280.13 276.59 280.66 276.77 281.53 277.69 283.71 278.21 284.29 278.62 286.22 278.36 287.46 279.3 288.42 278.45 289.2 276.97 289.74 277.11 290.54 276.55 290.88 276.18 291.57 276.55 292.63 276.46 293.74 277.11 295.07 277.93 295.97 277.85 296.77 278.52 297.14 279.15 298.57 278.71 298.97 278.24 300.78 278.95 301.54 279.53 302.87 280.02 302.95 281.28 304.04 281.97 304.42 281.98 305.31 282.27 305.9 282.89 305.4 284.74 306.34 285.05 307.61 284.63 308.61 284.73 309.75 285.36 309.84 285.71 310.7 286.35 311.44 286.28 312.34 287.19 313.53 287.35 315.3 287.62 316.1 288.28 317.21 288.42 318.28 288.82 318.74 289.17 319.76 290.73 321.37 291.47 321.57 291.74 322.03 295.97 323.47 295.77 324.61 296.07 327.32 293.49 328.45 292.86 328.95 291.5 330.56 288.88 331.66 288.44 332.17 287 332.32 286.6 332.54 285.88 333.9 284.65 334.4 277.76 334.98 276.19 335.49 275.63 335.19 275.15 334.6 273.89 335.11 273.02 336.18 272.86 336.45 269.91 336.31 268.64 337.1 268.47 337.64 267.46 338.3 266.92 338.39 266.1 337.66 265.17 337.96 264.08 337.23 263.42 337.47 261.85 339.01 261.58 338.89 259.92 338.92 259.36 339.11 258.33 338.91 257.88 338.31 258.01 337.53 257.38 337.4 256.81 335.49 254.68 335.2 254.48 334.89 253.34 334.37 253.23 333.96 252.56 333.66 251.89 334.36 251.41 334.27 249.89 334.92 249.46 334.74 248.09 334.77 246.84 334.24 245.99 332.76 245.49 331.25 244.49 330.97 244.19 330.57 243.61 330.73 243.21 330.48 242.68 328.23 242.24 327.36 241.78 327.38 240.33 326.5 239.34 326.36 238.58 325.75 238.1 324.77 237.42 324.57 236.89 323.26 237.25 321.28 236.48 320.04 235.23 318.94 233.85 318.28 233.18 317.12 233.22 316.59 231.88 315.09 231.71 315.23 229.54 314.5 229.47 315.36 229.2 315.75 228.37 315.78 227.26 316.51 226.37 316.47 225.68 316.96 224.78 316.99 224.56 316.46 224.06 316.19 224.08 315.57 223.55 315.1 223.03 315.05 222.57 314.62 221.2 314.46 220.73 314.83 219.41 314.84 218.45 314.21 218.04 313.23 216.79 313.09 215.98 312.66 215.2 312.9 214.34 311.72 213.31 311.23 213.11 310.49 212.05 310.55 211.6 310.17 211.89 309.69 211.19 308.38 211.15 307.85 210.25 306.03 209.57 305.2 208.83 305.95 207.13 304.5 206.3 304.15 205.31 304.08 204.64 303.43 203.58 303.1 202.99 302.09 202.33 301.58 202.3 300.93 201.99 300.17 202.34 299.37 202.44 297.96 201.79 296.93 201.71 295.47 201.37 295.04 201.27 294.1 200.83 292.61 200.85 291.92 200.52 290.9 199.69 290.08 200.4 288.82 200.27 288.17 199.79 287.55 199.57 286.56 199.72 284.94 200 284.48 200.08 283.32 200 282.09 201.02 281.48 201.86 280.49 202.6 278.79 202.47 277.9 202.75 276.98 202.85 276.04 203.5 275.09 204.27 274.62 205.31 274.3 205.72 273.93 205.54 272.51 206.04 272.47 206.68 271.91 206.67 271.2 206.01 269.83 206.25 268.92 206.16 268.24 205.51 266.51 206.14 265.35 207.12 265.64 208.68 265.06 209.6 264.98 210.61 264.42 211.87 264.5 212.43 263.94 212.75 262.91 213.2 262.43 214.12 261.07 213.9 260.51 214.28 259.38 213.84 258.45 213.24 256.03 215.05 255.07 215.86 253.78 216.56 252.17 217.6 252.46 218.55 253.01 220.77 252.04 221.27 252.28 221.93 252.13 222.57 252.35 223.12 251.5 224.19 251.55 224.87 251.34 225.6 249.6 226.71 248.77 227.74 248.9 228.12 249.22 228.92 249.42 229.14 250.21 230 250.23 230.41 250.45 231.9 250.56 233.25 250.91 234.24 250.94 234.88 250.58 235.55 250.87 236.58 250.15 238.09 249.9 238.52 249.61 239.68 249.7 241.16 254.39 241.92 255.48 243.09 255.98 243.7 256.54 244.54 256.69 245.7 256.61 247.34 256.29 251.8 254.22 253.69 252.25 255.45 250.83 255.88 250.22 257.13 249.27 258.15 248.97 258.41 247.53 258.91 247.27 258.9 246.41 259.13 246.22 259.43 244.95 259.2 244.18 258.59 243.74 258.13 241.71 258.37 240.66 257.64 240.11 257.87 239.1 258.47 238.83 259.01 237.43 258.95 236.38 259.08 235.68 259.81 234.57 259.29 233.96 259.03 232.98 259.05 232.03 258.38 230.45 258.24 229.51 258.56 229.18 259.35 229.07 259.82 228.65 259.86 227.42 259.56 226.63 261.06 225.86 261.67 225.82 262.31 224.69 263.57 224.11 263.75 223.43 263.63 221.73 264.46 220.09 264.52 218.17 263.47 217.29 263.67 216.94 263.53 216.07 263.77 215.69 263.8 214.66 264.12 213.52 265.18 212.44 264.92 211.71 264.2 210.82 264.81 209.87 266.44 208.84 268.07 208.3 268.16 207.61 268.82 206.33 269.37 205.72 269.42 203.9 269.88 203.08 269.85 201.8 270.14 200.78 269.99 200.42 270 198.77 270.21 197.96 270.73 197.44 271.16 196.5 270.9 195.42 271.38 194.85 272.63 194.23 272.98 193.53 273.4 193.42 275.13 193.58 276.14 192.75 276.8 192.83 277.4 192.55 279.7 193.11 280.62 191.16 280.47 190.7 281.13 190.7 282.16 191.5 282.86 192.47 283.73 192.47 284.25 193.04 284.92 193.3 285.01 194.23 285.53 194.91 286.46 195.54 286.48 196.06 287.16 197.09 288.45 197.67 288.79 197.67 289.03 198.39 290.13 199.67 290.06 200.23 290.47 201.2 290.9 201.32 291.62 201.06 292.12 201.31 292.94 202.52 294.34 203.37 294.82 204.83 295.31 205.15 295.84 204.95 296.92 205.12 297.33 205.56 297.96 205.75 298.53 206.49 299.16 206.66 299.43 206.05 300.88 204.49 301.51 204.04 301.63 204.7 302.5 205.89 303.26 207.19 303.66 207.51 303.77 208.32 304.15 208.66 305.37 207.1 306.37 207.53 307.61 206.83 309.52 206.9 310.79 207.46 311.75 206.99 313.03 207.05 314.22 206.12 315.49 206.77 316.07 206.42 316.93 207.09 317.59 207.29 317.18 208.29 317.49 208.49 318.35 209.82 318.56 210.87 319.85 211.73 319.96 213.28 321.39 214.85 322.79 216.19 323.02 216.7 323.2 218.37 323.87 220.39 323.71 221.23 324.15 222.19 324.03 222.75 324.27 223.55 324.96 224.98 325.75 227.39 326.21 227.89 326 228.61 326.39 229 327.64 229.23 327.02 230.32 Z" id="32510110"/>
<path d="M 370.08 156.25 370.87 157.23 372.48 157.3 374.09 158.21 375.67 158 376.85 158.38 378.03 158.2 378.53 158.39 379.69 158.4 380.92 158.82 381.81 159.47 383.41 159.06 384.95 159.04 385.88 159.46 386.8 158.98 387.87 159.86 389.01 160.58 389.28 161.57 389.93 161.69 390.59 161.53 391.13 162.24 392.34 162.59 393.77 163.57 394.09 164.1 394.88 164.72 395.28 165.45 395.18 166.78 396.31 167.55 396.85 168.6 398.13 168.9 398.73 168.87 399.1 169.25 400.85 169.05 401.71 169.09 402.74 168.38 402.48 167.76 403.35 166.87 403.51 166.45 404.24 165.93 404.45 166.37 405.28 165.87 406.1 165.89 407.39 164.81 408.39 164.16 408.93 164.28 409.98 166.03 410.5 166.09 410.86 166.85 411.59 166.97 411.98 167.44 412.06 169.33 412.66 169.91 412.68 170.65 413.36 171.33 413.86 170.86 414.81 170.53 415.92 170.64 416.74 170.05 417.76 169.6 418.64 170.21 419.99 169.73 419.37 170.91 419.95 172.47 420.55 172.92 420.39 173.89 420.64 174.32 420.48 175.08 420.71 175.71 421.38 176.7 421.88 176.74 422.86 177.26 423.62 177.4 424.02 178.24 424.51 178.65 425.33 178.94 425.48 179.96 427.35 180.6 427.42 181.01 428.11 181.59 428.22 182.39 428.9 183.2 430.68 183.84 431.87 183.45 432.72 184.28 434.04 184.63 434.26 186.01 433.69 186.49 433.52 187.3 433.9 187.88 434.32 187.89 435.14 188.56 435.12 189.25 436.45 190.89 437.07 190.97 437.47 191.95 437.89 192.47 437.53 193.44 438.09 194.01 437.9 194.77 438.07 195.43 438.48 195.94 439.48 195.79 441.33 196.21 442.05 197.51 442.87 197.91 442.69 198.52 442.64 200.38 442.8 200.82 443.41 201.19 443.59 201.65 443.66 202.94 444.55 203.17 445.28 202.68 445.71 202.65 447.17 203.8 448.61 204.1 447.95 207.59 446.91 208.18 446.42 209.11 446.3 210.01 445.93 211.13 444.5 211.47 444.03 211.96 442.63 212.87 442.14 213.97 442.09 214.92 442.41 215.45 441.9 217.12 441.87 218.06 442.24 219.27 442.23 220.21 441.89 221.22 441.88 221.8 440.41 223.04 440.2 223.86 440.28 224.49 440.11 225.34 440.35 225.96 439.92 227.38 439.39 227.99 437.99 228.74 437.71 229.07 437.09 229.13 435.73 229.55 434.44 229.6 433.4 229.15 433.06 229.24 432.35 230.19 431.48 230.54 430.75 230.63 429.22 230.21 427.72 230.7 427.59 232.55 426.64 233.86 426.34 234.56 425.2 235.7 425 236.06 424.3 236.32 424.32 237.27 424.1 237.96 422.76 238.54 421.74 239.22 421.1 239.28 420.34 239.66 419.86 240.48 419.66 241.26 418.86 241.83 417.98 242.81 417.29 243.22 416.05 243.37 415.75 243.07 414.72 242.94 413.7 242.3 413.31 242.45 411.97 242.18 411.61 241.97 410.27 242.14 408.62 242.92 407.53 243.03 406.99 242.54 406.35 242.6 405.57 241.98 405.18 242.02 404.1 241.65 403.02 241.52 401.85 240.54 401.07 240.23 400.25 240.69 399.55 240.71 398.95 240.24 397.77 240.24 395.93 240.52 395.41 239.36 394.94 239.19 393.38 239.33 392.01 238.38 391.29 238.33 389.01 237.69 387.44 237.82 386.7 237.69 386.14 238.1 385.54 238.17 384.44 237.75 383.67 238.29 382.91 237.94 381.58 238.07 381.11 238.47 379.82 238.39 379.55 237.19 378.57 235.6 378.09 235.13 377.52 233.88 377.34 233 376.68 232.87 375.52 231.8 375.24 231.33 375.35 230.15 375.05 228.82 374.59 228.07 374.22 227.05 371.72 225.42 371.35 224.49 370.5 223.88 369.34 223.51 367.68 223.77 366.46 222.64 364.98 222.93 362.78 223 362.1 222.89 361.49 221.62 360.46 222.35 359.25 223.58 358.04 223.95 357.43 224.79 356.84 224.82 355.83 225.17 355.21 225.59 355.1 226.29 354.63 227.21 354.76 228.59 353.86 229.54 353.48 230.33 352.95 230.91 351.9 231.31 350.83 231.26 349.64 230.38 349.53 229.98 348.07 230.46 346.96 231.15 345.97 231.19 344.28 230.35 343.11 229.95 341.78 230.08 341.15 229.25 340.35 229.12 338.74 229.81 337.77 229.93 336.39 231.35 336.56 232.1 335.42 232.48 332.36 234.63 331.28 234.47 330.23 233.09 329.86 232.98 328.81 231.13 328.04 230.24 327.02 230.32 327.64 229.23 326.39 229 326 228.61 326.21 227.89 325.75 227.39 324.96 224.98 324.27 223.55 324.03 222.75 324.15 222.19 323.71 221.23 323.87 220.39 323.2 218.37 323.02 216.7 322.79 216.19 321.39 214.85 319.96 213.28 319.85 211.73 318.56 210.87 318.35 209.82 317.49 208.49 317.18 208.29 317.59 207.29 316.93 207.09 316.07 206.42 315.49 206.77 314.22 206.12 313.03 207.05 311.75 206.99 310.79 207.46 309.52 206.9 307.61 206.83 306.37 207.53 305.37 207.1 304.15 208.66 303.77 208.32 303.66 207.51 303.26 207.19 302.5 205.89 301.63 204.7 301.51 204.04 300.88 204.49 299.43 206.05 299.16 206.66 298.53 206.49 297.96 205.75 297.33 205.56 296.92 205.12 295.84 204.95 295.31 205.15 294.82 204.83 294.34 203.37 292.94 202.52 292.12 201.31 291.62 201.06 290.9 201.32 290.47 201.2 290.06 200.23 290.13 199.67 289.03 198.39 288.79 197.67 288.45 197.67 287.16 197.09 286.48 196.06 286.46 195.54 285.53 194.91 285.01 194.23 284.92 193.3 284.25 193.04 283.73 192.47 282.86 192.47 282.16 191.5 281.13 190.7 280.47 190.7 281.2 189.39 280.59 188.06 279.24 186.21 277.88 184.67 277.45 184 277.63 183.52 277.45 182.68 277.81 180.85 278.11 180.29 278.28 179.39 278.78 178.16 279.26 177.47 279.12 176.81 279.31 176.09 279.16 173.73 278.85 173.27 279.01 171.71 278.34 170.76 278.14 170.09 277.39 169.61 276.97 168.29 276.38 168.06 273.25 168.26 272.02 168.22 271.53 167.66 271.01 167.56 270.44 166.9 270.13 165.98 270.25 165.58 270.28 163.36 269.98 162.58 268.19 162.19 265.95 160.92 264.91 163.16 263.61 163.06 262.92 162.3 262.98 161.08 264 159.85 262.8 159.45 262.05 158.7 261.09 158.47 260.26 157.83 260.92 156.48 261.12 154.92 261.71 153.8 262.26 152.3 262.16 151.24 262.32 150.06 262.24 147.5 261.69 145.31 261.58 144.03 260.81 143.63 259.37 143.2 258.17 143.05 257.86 142.38 258.09 140.66 257.8 140.33 257.8 139.07 257.51 137.79 257.5 136.48 257.72 135.67 257.59 134.24 257.74 132.97 258.49 131.62 257.89 130.99 257.73 130.51 256.94 130.15 256.19 128.72 253.89 128.29 253.67 127.95 252.34 127.72 251.87 127.21 249.9 126.85 249.41 126.24 248.98 124.84 248.64 124.46 248.66 123.84 248.06 123.43 247.7 121.21 247.4 120.54 246.28 119.26 246.28 118.42 245.4 117.76 245.01 117.87 243.87 117.29 243.58 116.38 243.6 114.46 243.95 113.3 243.48 111.96 243.12 109.75 242.34 108.36 244.25 107.76 244.85 107.3 245.68 107.27 247.2 106.99 247.65 106.55 248.61 106.94 251.17 106.78 251.66 106.33 252.6 106.35 253.44 106.58 254.13 105.99 255.18 105.66 254.86 104.74 255.35 103.96 255.26 102.28 255.86 100.19 255.97 98.83 256.6 97.88 257.93 97.67 258.51 96.77 259.46 96.03 259.47 95.12 260.08 94.13 260.52 91.68 260.04 89.9 259.69 89.12 258.73 87.5 259.16 86.87 261.1 84.68 261.27 83.94 261.91 83.38 263.69 83.03 264.86 82.48 266.22 82.03 267.44 82.03 269.41 80.98 270.19 81.29 270.66 81.94 271.44 82.09 272.69 82.98 273.52 84.52 274.52 84.8 275.5 84.69 277.04 85.08 278.15 85.74 280.04 86.29 281.24 86.87 282.87 88.22 283.26 89.06 282.62 90.22 281.64 90.97 281.23 92.3 281.44 92.82 280.92 94.01 282.45 94.33 283.17 94.79 284.43 95.35 286.97 97.05 288.58 97.43 289.27 98.03 290.69 98.89 292.62 102.69 293.62 103.8 295.29 104.5 295.97 105.73 296.83 109.43 298.54 113.21 299.03 114.62 299.87 115.35 300.75 115.48 300.97 115.79 301.71 115.89 302.64 115.18 303.54 113.8 303.56 111.98 303.72 110.39 304.31 108.27 304.86 107.02 306.52 105.7 307.02 105.47 308.32 104.51 310.2 104.31 310.65 103.89 310.37 103.28 310.88 102.39 311.67 101.68 311.63 100.08 311.06 98.84 311.54 98 311.25 97.18 309.81 96.12 309.24 95.35 309.7 93.95 310.06 92.14 310.3 91.85 310.49 90.26 311.1 89.67 311.38 89.07 311.69 87.47 312.69 85.32 312.67 84.59 313.1 83.35 314.46 81.97 314.45 80.45 314.88 79.69 316.59 78.86 316.72 77.34 317.15 75.92 317.88 74.67 318.72 73.76 319.18 72.7 321.29 74.25 322.26 75.43 322.8 76.36 323.5 76.59 324.13 77.33 323.76 78.53 324.17 78.87 324.24 79.88 324.55 80.67 323.75 81.61 323.29 83.3 323.45 84.06 323.89 84.91 323.85 85.84 324.44 86.69 325.29 87.36 325.31 88.09 325.73 89.87 325.8 90.66 327.17 91.86 327.64 92.41 327.8 93.08 327.53 93.32 327.79 93.96 328.35 94.53 328.79 95.36 329.72 95.61 332.26 95.83 333.3 96.62 333.62 97.53 334.34 98.43 334.79 98.75 335.51 99.99 335.54 100.75 335.17 101.35 335.26 102.82 335.17 103.78 334.31 104.29 333.86 105.76 333.77 107.3 332.96 108.48 332.9 108.85 332.14 109.21 331.45 109.22 330.24 109.49 330.01 109.9 329.09 110.59 328.39 110.75 327.58 112.69 326.7 113.73 326.05 113.97 325.95 114.51 324.93 115.63 324.84 116.13 324.21 116.71 324.33 117.14 325.73 117.49 326.84 119.04 326.58 119.59 327.25 120.75 328.13 123.26 327.9 123.58 328.12 125.96 327.82 126.46 328.32 128.94 328.26 129.63 328.64 130.31 329.22 130.49 329.83 130.29 330.64 130.74 332.09 130.43 332 130.87 332.42 131.28 333.01 132.34 333.2 133.65 334.46 134.02 334.44 134.37 335.3 135.06 336.19 135.98 337.16 135.7 337.76 135.82 338.05 136.68 338.41 136.73 338.45 137.98 337.93 139.74 338.16 140.47 338.89 141.56 339.02 142.31 338.55 143.26 337.8 143.66 337.9 144.61 338.93 145.55 339.52 145.43 341.15 146.04 341.68 145.72 343.27 145.65 343.83 146.14 344.27 146.85 346.11 146.38 347.52 147.84 348.98 148.36 350.15 149.52 350.32 150.31 351.13 150.62 351.57 151.03 353.18 151.31 353.82 151.62 354.68 152.94 355.33 152.98 356.09 152.13 357.24 151.87 357.7 152.14 358.58 152.22 359.71 152.89 360.04 153.47 360.47 155.08 362.1 155.25 363.68 155.78 364.73 155.83 366.22 156.42 367.42 156.51 369.39 155.86 370.08 156.25 Z" id="32510310"/>
<path d="M 471.58 48.1 470.88 49.61 470.9 50.68 470.54 52.35 470.24 53.17 469.29 54.48 469 55.08 468.52 56.99 467.33 60.24 465.66 61.56 464.81 61.74 464.26 62.33 463.89 62.17 462.28 62.86 461.09 62.81 460.58 63.46 460.4 64.53 459.82 65.66 459 65.3 458.65 65.84 457.56 66.35 456.13 66.27 455.76 66.62 455.79 67.38 454.99 67.64 453.84 68.55 453.57 69.5 452.92 70.55 452.79 71.45 451.22 72.87 451.1 73.84 450.64 74.52 449.93 74.66 449.41 75.09 447.08 75.34 445.27 75.77 444.61 75.63 443.18 76.2 442.52 76.3 441.44 77.52 440.6 77.83 439.98 78.4 439.53 79.66 438.72 80.18 437.29 79.55 436.8 78.25 436.31 77.97 435.85 78.12 434.86 78.98 434.42 79.16 432.87 79.27 430.94 79.9 430.44 80.35 430.12 81.39 429.48 81.91 428.83 82.16 428.06 82.81 426.85 82.14 426.17 81.99 424.16 82.76 423.44 82.19 422.24 80.14 420.33 79.7 419.5 80.21 417.67 80.36 414.68 80.24 412.85 80.69 411.5 81.27 410.27 81.56 409.13 81.09 408.72 81.28 407.89 82.42 406.64 82.65 406.25 83.06 406.14 83.74 406.62 84.49 406.66 85.49 405.91 85.91 404.42 87.19 403.86 87.13 403.38 86.68 403.54 86.15 403.3 85.1 402.35 85.26 402.75 87.63 403.52 88.64 403.77 89.58 405.03 91.87 405.28 92.83 405.91 94 406.28 95.31 406.03 97.2 405.72 97.82 405.43 99.11 403.99 99.54 402.98 99.6 401.79 100.06 401.64 100.75 401.88 101.32 401.7 102.07 402.15 103.06 401.65 104.32 400.27 105.18 400.01 105.79 399.33 106.37 398.42 108.39 397.63 109.36 396.37 109.44 395.65 109.62 395.26 110.12 393.37 110.42 392.53 110.88 391.84 110.75 390.85 110.91 390.17 111.79 389.54 111.61 387.53 112.42 387.9 113.08 387.7 113.81 387.39 116.36 387.24 116.81 387.88 117.65 387.92 118.7 387.15 119.34 385.96 119.42 384.71 120.11 384.07 120.23 383.92 121.03 382.69 120.62 381.32 119.97 380.62 119.96 379.27 120.56 378.86 121.11 377.45 122.15 375.49 122.98 374.98 123.8 374.51 124.22 373.17 124.37 372.54 124.71 370.66 124.9 369.9 125.17 368.99 126.01 368.28 125.62 367.26 125.37 366.31 125.41 365.23 124.78 364.98 124.85 364.49 125.78 363.34 126.45 361.8 127.89 361.5 128.97 360.73 130.33 359.34 130.56 359.04 131.02 358.03 131.08 356.58 132.55 356.15 133.12 355.64 134.56 355.88 135.19 354.89 135.88 354.7 136.98 354.28 137.66 354.96 139.43 355.02 140.69 355.78 141.32 356.68 141.28 358.18 141.92 359 142.1 359.63 142.71 360.55 142.88 361.12 142.72 362.04 143.09 363.66 142.88 365.09 143.67 365.73 144.31 366.94 144.75 367.95 145.47 368.8 145.42 369.23 145.97 369.69 145.91 370.82 146.66 370.72 147.52 370.43 148.32 370.54 149.37 371.24 149.9 371.52 152.1 370.95 153.3 371.04 154.71 370.71 155.72 370.08 156.25 369.39 155.86 367.42 156.51 366.22 156.42 364.73 155.83 363.68 155.78 362.1 155.25 360.47 155.08 360.04 153.47 359.71 152.89 358.58 152.22 357.7 152.14 357.24 151.87 356.09 152.13 355.33 152.98 354.68 152.94 353.82 151.62 353.18 151.31 351.57 151.03 351.13 150.62 350.32 150.31 350.15 149.52 348.98 148.36 347.52 147.84 346.11 146.38 344.27 146.85 343.83 146.14 343.27 145.65 341.68 145.72 341.15 146.04 339.52 145.43 338.93 145.55 337.9 144.61 337.8 143.66 338.55 143.26 339.02 142.31 338.89 141.56 338.16 140.47 337.93 139.74 338.45 137.98 338.41 136.73 338.05 136.68 337.76 135.82 337.16 135.7 336.19 135.98 335.3 135.06 334.44 134.37 334.46 134.02 333.2 133.65 333.01 132.34 332.42 131.28 332 130.87 332.09 130.43 330.64 130.74 329.83 130.29 329.22 130.49 328.64 130.31 328.26 129.63 328.32 128.94 327.82 126.46 328.12 125.96 327.9 123.58 328.13 123.26 327.25 120.75 326.58 119.59 326.84 119.04 325.73 117.49 324.33 117.14 324.21 116.71 324.84 116.13 324.93 115.63 325.95 114.51 326.05 113.97 326.7 113.73 327.58 112.69 328.39 110.75 329.09 110.59 330.01 109.9 330.24 109.49 331.45 109.22 332.14 109.21 332.9 108.85 332.96 108.48 333.77 107.3 333.86 105.76 334.31 104.29 335.17 103.78 335.26 102.82 335.17 101.35 335.54 100.75 335.51 99.99 334.79 98.75 334.34 98.43 333.62 97.53 333.3 96.62 332.26 95.83 329.72 95.61 328.79 95.36 328.35 94.53 327.79 93.96 327.53 93.32 327.8 93.08 327.64 92.41 327.17 91.86 325.8 90.66 325.73 89.87 325.31 88.09 325.29 87.36 324.44 86.69 323.85 85.84 323.89 84.91 323.45 84.06 323.29 83.3 323.75 81.61 324.55 80.67 324.24 79.88 324.17 78.87 323.76 78.53 324.13 77.33 323.5 76.59 322.8 76.36 322.26 75.43 321.29 74.25 319.18 72.7 319.22 72.6 319.47 71.51 320.16 70.91 320.03 70.27 321.24 69.6 321.62 69.03 324.21 67.71 325.16 66.96 325.33 66.64 326.24 66.36 326.69 65.19 327.32 64.59 327.52 63.97 328.08 63.91 329.36 63.24 331.22 61.84 331.5 61.82 331.31 59.5 331.7 57.49 330.84 56.93 330.67 55.7 329.99 54.13 329.64 52.67 329.3 52.09 329.4 51.6 330.01 50.4 330.32 48.79 330.29 47.83 329.95 46.82 330.03 46.3 330.66 45.06 331.75 43.71 332.74 42.23 333.68 41.1 335.12 40.21 335.64 39.24 335.99 38.14 336.45 37.17 338.4 35.19 339.13 34.54 341.2 33.61 341.47 33.14 340.05 31.6 340.04 30.19 340.47 29.43 340.09 28.61 339.67 25.94 339.67 24.41 339.32 22.52 340.54 21.76 341.69 21.25 343.51 19.06 344.68 17.24 345.9 16.01 346.28 15.28 346.43 12.99 347.23 11.56 347.65 10.25 347.47 8.5 347.99 7.15 347.84 5.39 349.3 5.66 349.65 6.15 350.71 6.78 351.42 7.49 352.51 9.11 352.96 9.07 353.9 8.06 354.7 7.81 355.26 7.87 356.19 7.66 358.12 8.45 358.98 8.03 361.21 8.01 361.81 7.2 362.01 6.06 363.75 3.79 363.93 3.93 365.28 3.68 365.63 3.25 367.84 2.37 370.71 1.64 371.27 1 372.13 1.71 373.03 2.26 374.32 1.98 375.35 3.82 376.34 4.37 376.91 5.24 377.39 5.44 377.24 6.23 377.8 7.61 377.61 8.18 377.74 9.32 378.61 9.84 378.99 9.74 379.43 10.19 379.58 12.08 380.02 13.04 380.68 13.99 380.8 15.1 381.52 15.87 381.19 17.14 381.85 18.32 382.64 18.68 383.75 18.8 384.21 19.2 385.29 21.14 385.77 21.64 385.74 22.14 386.21 22.87 387.27 23.33 389.43 23.36 391.49 26.31 391.76 27.48 391.99 27.78 394.09 27.45 395.23 28.84 396.08 28.92 396.94 29.91 397.59 30.38 397.82 31.37 398.67 32.08 399.15 32.28 400.07 33.53 401.23 34.22 401.97 34.24 403.35 35.12 404.01 35.3 404.89 35.86 406.76 35.94 408.77 36.84 409.35 37.36 410.44 37.75 411.46 38.66 411.74 39.77 412.11 40.42 413.77 41.54 414.58 42.48 415.75 42.82 417.26 43.66 418.92 44.3 419.98 44.3 420.9 45.06 421.21 45.67 422.49 46.11 423.84 46.09 425.25 46.61 425.65 47.03 426.77 46.65 428.56 46.23 429.5 46.18 431.17 45.12 432.31 43.85 433.28 43.78 435.08 44.42 436.14 44.41 437.02 44.59 437.74 44.97 438.18 45.48 440.16 46.67 441.55 46.77 442.54 46.62 444.7 47.51 445.3 47.95 447.57 48.4 449 48.19 450.06 47.75 450.77 46.87 451.36 45.25 451.92 46.2 452.68 47.11 452.7 48.5 453 49.19 454.11 49.24 456.1 48.93 457.54 49.14 458.54 48.98 459.55 50.24 461.2 50.17 461.94 50.39 462.97 49.81 463.48 49.78 464.84 49.25 465.45 48.01 467.19 47.73 467.84 48.15 469.71 48.29 470.78 48.28 471.58 48.1 Z" id="32510320"/>
<path d="M 492.74 110.24 493.06 112.68 493.1 114.19 493.5 114.99 493.04 115.61 493.19 116.86 492.99 118.11 493.2 119.07 493.94 120.29 494.12 121.02 492.75 122.21 493.19 123.66 493.23 124.82 489.9 127.48 489.75 128.07 490.1 128.35 491.14 128.36 491.95 130.02 493.38 130.19 494.72 129.69 495.47 129.65 496.37 130.11 497.19 131.07 496.95 132.18 496.17 132.92 496.06 134.02 495.74 134.49 496.07 134.83 496.43 135.99 496.27 137.18 496.41 138.06 496.2 138.78 496.62 139.32 496.86 141.2 496.54 141.77 496.04 142.07 496.86 145.36 496.65 145.79 496.76 146.63 496.59 147.56 496.57 148.7 495.91 149.49 495.87 150.22 496.49 151.93 496 152.61 496.26 153.59 495.97 153.97 494.77 154.36 494.96 155.86 494.77 157.02 494 158.25 492.95 158.37 492.14 158.26 491.36 158.54 490.76 159.11 490.83 160.5 490.14 161.94 489.79 163.37 488.76 163.27 487.77 164.22 486.47 164.47 485.7 165.62 484.75 165.52 483.87 164.47 483.33 163.47 482.91 162.22 482.1 162.71 480.82 162.02 478.81 160.59 477.71 160.25 476.18 159.6 476.14 158.75 474.77 159.08 474.14 158.47 473.44 158.1 473.23 158.48 474.09 159.58 474.08 160.53 473.17 160.71 472.21 161.55 470.74 162.15 469.58 162.82 468.14 163.01 467.98 162.78 466.95 162.6 466.72 163.08 465.52 163.04 465.74 164.6 464.53 166.29 464.94 166.87 465.09 167.77 465.39 168.13 465.44 169.07 464.68 169.56 464.53 170.19 463.31 170.47 463.12 170.92 463.23 172.23 463.16 173.13 463.32 173.9 462.42 174.31 460.78 174.48 459.97 174.33 458.71 173.66 457.32 173.58 456.58 175.47 456.26 175.94 455.93 178.43 456.96 179.07 457.07 179.99 457.85 181.73 458.95 182.71 459.08 183.45 458.93 184.41 458.38 185.21 458.36 185.81 459.04 186.14 459.06 186.64 458.06 187.32 457.51 187.88 456.79 189.13 456.24 190.38 456.11 191.14 456.73 191.33 457.36 191.16 458.39 191.33 458.53 192.29 458.83 193.1 459.01 194.21 458.89 195.4 459.14 195.99 459.09 196.62 458.33 197.3 456.51 197.42 454.5 197.86 453.66 198.7 452.67 199.15 452.22 200.33 452.23 203.17 450.95 203.54 450.05 204.01 448.61 204.1 447.17 203.8 445.71 202.65 445.28 202.68 444.55 203.17 443.66 202.94 443.59 201.65 443.41 201.19 442.8 200.82 442.64 200.38 442.69 198.52 442.87 197.91 442.05 197.51 441.33 196.21 439.48 195.79 438.48 195.94 438.07 195.43 437.9 194.77 438.09 194.01 437.53 193.44 437.89 192.47 437.47 191.95 437.07 190.97 436.45 190.89 435.12 189.25 435.14 188.56 434.32 187.89 433.9 187.88 433.52 187.3 433.69 186.49 434.26 186.01 434.04 184.63 432.72 184.28 431.87 183.45 430.68 183.84 428.9 183.2 428.22 182.39 428.11 181.59 427.42 181.01 427.35 180.6 425.48 179.96 425.33 178.94 424.51 178.65 424.02 178.24 423.62 177.4 422.86 177.26 421.88 176.74 421.38 176.7 420.71 175.71 420.48 175.08 420.64 174.32 420.39 173.89 420.55 172.92 419.95 172.47 419.37 170.91 419.99 169.73 418.64 170.21 417.76 169.6 416.74 170.05 415.92 170.64 414.81 170.53 413.86 170.86 413.36 171.33 412.68 170.65 412.66 169.91 412.06 169.33 411.98 167.44 411.59 166.97 410.86 166.85 410.5 166.09 409.98 166.03 408.93 164.28 408.39 164.16 407.39 164.81 406.1 165.89 405.28 165.87 404.45 166.37 404.24 165.93 403.51 166.45 403.35 166.87 402.48 167.76 402.74 168.38 401.71 169.09 400.85 169.05 399.1 169.25 398.73 168.87 398.13 168.9 396.85 168.6 396.31 167.55 395.18 166.78 395.28 165.45 394.88 164.72 394.09 164.1 393.77 163.57 392.34 162.59 391.13 162.24 390.59 161.53 389.93 161.69 389.28 161.57 389.01 160.58 387.87 159.86 386.8 158.98 385.88 159.46 384.95 159.04 383.41 159.06 381.81 159.47 380.92 158.82 379.69 158.4 378.53 158.39 378.03 158.2 376.85 158.38 375.67 158 374.09 158.21 372.48 157.3 370.87 157.23 370.08 156.25 370.71 155.72 371.04 154.71 370.95 153.3 371.52 152.1 371.24 149.9 370.54 149.37 370.43 148.32 370.72 147.52 370.82 146.66 369.69 145.91 369.23 145.97 368.8 145.42 367.95 145.47 366.94 144.75 365.73 144.31 365.09 143.67 363.66 142.88 362.04 143.09 361.12 142.72 360.55 142.88 359.63 142.71 359 142.1 358.18 141.92 356.68 141.28 355.78 141.32 355.02 140.69 354.96 139.43 354.28 137.66 354.7 136.98 354.89 135.88 355.88 135.19 355.64 134.56 356.15 133.12 356.58 132.55 358.03 131.08 359.04 131.02 359.34 130.56 360.73 130.33 361.5 128.97 361.8 127.89 363.34 126.45 364.49 125.78 364.98 124.85 365.23 124.78 366.31 125.41 367.26 125.37 368.28 125.62 368.99 126.01 369.9 125.17 370.66 124.9 372.54 124.71 373.17 124.37 374.51 124.22 374.98 123.8 375.49 122.98 377.45 122.15 378.86 121.11 379.27 120.56 380.62 119.96 381.32 119.97 382.69 120.62 383.92 121.03 384.07 120.23 384.71 120.11 385.96 119.42 387.15 119.34 387.92 118.7 387.88 117.65 387.24 116.81 387.39 116.36 387.7 113.81 387.9 113.08 387.53 112.42 389.54 111.61 390.17 111.79 390.85 110.91 391.84 110.75 392.53 110.88 393.37 110.42 395.26 110.12 395.65 109.62 396.37 109.44 397.63 109.36 398.42 108.39 399.33 106.37 400.01 105.79 400.27 105.18 401.65 104.32 402.15 103.06 401.7 102.07 401.88 101.32 401.64 100.75 401.79 100.06 402.98 99.6 403.99 99.54 405.43 99.11 405.72 97.82 406.03 97.2 406.28 95.31 405.91 94 405.28 92.83 405.03 91.87 403.77 89.58 403.52 88.64 402.75 87.63 402.35 85.26 403.3 85.1 403.54 86.15 403.38 86.68 403.86 87.13 404.42 87.19 405.91 85.91 406.66 85.49 406.62 84.49 406.14 83.74 406.25 83.06 406.64 82.65 407.89 82.42 408.72 81.28 409.13 81.09 410.27 81.56 411.5 81.27 412.85 80.69 414.68 80.24 417.67 80.36 419.5 80.21 420.33 79.7 422.24 80.14 423.44 82.19 424.16 82.76 426.17 81.99 426.85 82.14 428.06 82.81 428.83 82.16 429.48 81.91 430.12 81.39 430.44 80.35 430.94 79.9 432.87 79.27 434.42 79.16 434.86 78.98 435.85 78.12 436.31 77.97 436.8 78.25 437.29 79.55 438.72 80.18 439.53 79.66 439.98 78.4 440.6 77.83 441.44 77.52 442.52 76.3 443.18 76.2 444.61 75.63 445.27 75.77 447.08 75.34 449.41 75.09 449.93 74.66 450.64 74.52 451.1 73.84 451.22 72.87 452.79 71.45 452.92 70.55 453.57 69.5 453.84 68.55 454.99 67.64 455.79 67.38 455.76 66.62 456.13 66.27 457.56 66.35 458.65 65.84 459 65.3 459.82 65.66 460.4 64.53 460.58 63.46 461.09 62.81 462.28 62.86 463.89 62.17 464.26 62.33 464.81 61.74 465.66 61.56 467.33 60.24 468.52 56.99 469 55.08 469.29 54.48 470.24 53.17 470.54 52.35 470.9 50.68 470.88 49.61 471.58 48.1 471.92 47.93 473.42 47.85 473.93 48.07 474.23 49.19 474.17 50.36 475.45 51.83 476.17 53.44 476.2 54.96 476.63 55.76 478.02 55.75 479.28 56.84 480.29 56.54 481.94 57.25 482.49 57.9 484.26 57.72 483.85 59.38 483.84 60.98 484.36 62.28 484.47 63.17 483.85 64.41 484.11 65.88 483.02 66.53 481.53 68.24 480.43 70.38 480.36 72.19 480.2 73.16 480.66 73.58 480.65 75.34 479.79 76.58 480.2 78.17 480.11 78.97 480.57 79.48 481.36 81.85 481.52 83.08 482.65 84.53 482.06 85.68 481.88 86.79 480.89 88.16 480.51 89.14 480.45 90.02 481.6 90.55 481.85 90.9 482.9 91.06 482.98 91.68 484.18 93.41 485.9 94.34 487.05 94.36 487.71 94.61 488.21 95.31 488.19 95.85 489.25 97.39 489.99 98 490.07 98.63 489.86 99.25 490.11 101.2 490.32 101.54 490.02 102.56 490.08 103.26 489.79 104.45 489.3 105.47 489.87 106.17 491.64 107.51 492.14 108.23 492.43 109.42 492.89 109.73 492.74 110.24 Z" id="32510330"/>
<path d="M 515.58 126.84 515.77 127.44 516.77 128.35 517.44 129.48 517.88 131.54 518.31 132.54 518.08 133.76 518.69 135.31 519.22 137.64 519.17 138.88 519.41 140.1 519.49 144.19 519.29 145.46 519.57 146.94 519.61 150.12 519.52 151.37 519.8 152.24 522.81 152.4 524.1 152.27 525.13 152.37 526.98 151.65 528.27 151.46 529.6 151.59 532.68 151.29 533.59 152.71 533.84 153.71 534.05 155.21 534.02 156.43 533.86 157.55 533.24 158.72 533.05 159.53 532.56 160.42 532.22 162.19 532.77 162.77 533.97 163.36 535.5 165.14 535.37 167.22 535.19 168.38 536.72 169.57 538.63 170.58 540.04 171.9 541.13 172.73 541.95 173.04 543.28 173.77 544.2 175.07 544.9 175.6 545.87 176.07 546.66 177.17 547.21 178.42 547.16 179.38 547.33 181.23 547.84 182.19 548.51 182.2 551.22 182.62 553.38 182.46 554.53 182.29 556.76 182.58 557.78 182.51 558.48 181.81 559.23 180.74 559.36 179.89 560.33 179.22 561.12 178.92 561.82 179.7 562.9 180.18 564.14 180.89 565.64 181.91 566.27 183.12 567.31 183.97 568.68 184.74 569.58 185.39 571 186.18 572.11 187 572.83 186.11 573.74 185.61 575.7 185.92 577.23 185.03 579.09 185.84 579.51 186.38 580.44 186.35 581.34 186.02 582.26 186.67 582.82 186.76 584.03 187.41 585.62 188.97 586.35 188.68 588.77 190.45 589.33 191.92 590.26 192.3 591 193.29 590.97 193.92 591.59 195.41 591.71 196.13 592.32 197.92 592.17 198.79 592.54 199.71 593.38 200.89 593.44 201.7 593.82 202.5 593.42 203.37 593.63 203.78 595.04 204.66 594.95 205.13 595.34 206.07 595.45 208.07 595.34 208.48 596.04 209.3 595.89 209.98 595.44 210.32 595.87 210.92 595.98 211.85 595.67 213.46 595.34 213.8 594.92 215.06 595.44 215.99 595.97 217.29 595.39 218.02 594.95 218.21 594.08 219.42 592.17 220.68 591.96 221.41 591.4 222.06 590.5 222.76 590.19 223.22 590.2 224.46 590.03 225.02 590.31 227.12 590.75 227.76 590.96 228.85 591.36 229.65 591.4 230.31 591.58 230.85 590.89 231.34 590.56 231.96 589.79 231.71 589.48 232.16 589.37 232.96 588.89 234.47 588.46 235.12 588.08 236.41 587.44 237.01 587.62 237.68 587 238.92 586.13 239.91 586.01 240.8 585.5 241.33 585.57 241.97 584.26 242.67 584.12 243.23 583.24 243.69 582.75 244.15 581.69 244.39 581.39 244.98 580.56 245.46 580.09 245.99 579.83 247.22 579.55 247.4 578.55 249.45 577.25 249.93 576.36 249.96 575.3 251.27 573.79 252.74 573.43 253.59 572.84 254.07 572.62 254.78 571.76 255.99 571.06 257.45 570.58 258.15 569.75 258.13 568.69 258.85 568.42 259.24 567.51 259.62 567.14 260.5 567.08 261.57 566.56 262.7 564.67 263.64 565.14 264.33 565.26 265.61 565.83 266.36 565.9 267.1 566.45 268.33 565.82 270.21 566.06 270.75 565.73 272.36 564.68 273.79 564.57 274.28 562.77 276 562.64 276.77 563.25 277.75 562.25 279.33 562.6 281.64 562.44 283.27 562.54 285.33 562.96 286.32 562.81 287.24 563.21 288.22 563.26 289.26 563.87 291.08 564.41 291.63 564.25 292.12 562.65 292.68 561.9 293.34 561.84 293.71 561.23 294.32 561.01 296.05 560.76 296.57 560.4 298.4 559.53 297.94 557.85 297.55 557.32 297.61 556.03 298.71 554.99 298.62 554.44 299.09 549 302.67 548.28 302.7 547.95 303.63 547.94 303.65 547.52 303.98 543.85 304.99 542.85 305.92 542.08 304.96 540.09 304.94 538.94 304.41 534.23 305.88 530.32 303.23 528.64 302.57 526.96 299.44 525.4 298.4 524.53 296.73 523.8 296.24 523.21 294.52 522.11 293.17 521.63 292.43 519.37 291.54 518.72 291.08 518.77 289.32 518.35 288.26 517.31 287.06 516.53 286.33 514.85 286.46 514.53 286.07 514.02 284.66 513.31 283.31 512.39 283.19 511.61 282.65 510.88 282.44 508.25 282.2 506.31 280.9 505.07 281.37 504.29 281.91 503.18 282.4 502.78 283.26 501.8 284.3 500.47 285.15 499.83 286.36 498.57 287.44 497.76 287.94 496.47 287.98 496.25 287.27 496.26 286.33 495.97 284.86 496 283.62 495.84 282.98 493.68 282.04 492.63 281.19 492.22 280.17 492.38 279.35 491.86 279.42 491.24 278.95 490.61 279.09 489.32 278.38 489.05 277.69 487.83 278.73 486.96 277.2 484.65 275.57 483.59 274.56 482.43 274.64 480.62 273.93 480.14 273.2 479.98 272.56 479.41 272.21 479.67 271.55 479.33 271.22 479.38 269.98 479.18 268.76 477.33 269.46 477.08 269.9 476.28 270.33 475.14 270.25 474.67 270.73 474.26 270.67 473.22 271.41 471.72 271.74 470.74 273.08 470.46 274.19 469.71 273.08 469.63 272.2 468.98 271.38 469.19 270.41 468.83 270.17 468.09 268.47 468.04 266.93 467.43 264.97 466.95 264.03 466.32 263.76 465.45 261.46 465.05 261.16 463.31 260.56 461.93 258.76 461.37 258.94 460.71 259.62 460.35 257.99 459.03 255.11 458.73 254.73 457.55 254.22 456.3 254.27 455.04 254.87 453.78 255.09 453.27 255.54 452.6 255.74 451.67 256.36 450.66 256.75 449.59 256.87 448.84 256.23 447.92 255.93 446.32 256.22 444.51 255.85 444.13 256.31 443.42 257.66 442.06 258.92 441.66 259.58 441.11 259.63 440.42 260.86 439.24 262.74 438.18 262.02 436.42 261.21 435.86 260.75 434.3 258.25 433.71 258.24 432.51 257.36 432.43 255.88 431.9 254.79 431.54 253.5 430.27 253.6 429.12 252.55 428.97 252.26 427.81 251.94 427.65 251.24 428.35 249.9 428.44 248.75 429.05 246.93 429.39 246.78 429.63 245.61 430.33 244.78 430.84 243.45 431.17 243.05 431.35 241.85 430.68 240.64 429.75 239.68 428.6 238.92 428.18 238.33 427.57 238.5 426.29 237.62 425.34 237.48 424.72 237.61 424.32 237.27 424.3 236.32 425 236.06 425.2 235.7 426.34 234.56 426.64 233.86 427.59 232.55 427.72 230.7 429.22 230.21 430.75 230.63 431.48 230.54 432.35 230.19 433.06 229.24 433.4 229.15 434.44 229.6 435.73 229.55 437.09 229.13 437.71 229.07 437.99 228.74 439.39 227.99 439.92 227.38 440.35 225.96 440.11 225.34 440.28 224.49 440.2 223.86 440.41 223.04 441.88 221.8 441.89 221.22 442.23 220.21 442.24 219.27 441.87 218.06 441.9 217.12 442.41 215.45 442.09 214.92 442.14 213.97 442.63 212.87 444.03 211.96 444.5 211.47 445.93 211.13 446.3 210.01 446.42 209.11 446.91 208.18 447.95 207.59 448.61 204.1 450.05 204.01 450.95 203.54 452.23 203.17 452.22 200.33 452.67 199.15 453.66 198.7 454.5 197.86 456.51 197.42 458.33 197.3 459.09 196.62 459.14 195.99 458.89 195.4 459.01 194.21 458.83 193.1 458.53 192.29 458.39 191.33 457.36 191.16 456.73 191.33 456.11 191.14 456.24 190.38 456.79 189.13 457.51 187.88 458.06 187.32 459.06 186.64 459.04 186.14 458.36 185.81 458.38 185.21 458.93 184.41 459.08 183.45 458.95 182.71 457.85 181.73 457.07 179.99 456.96 179.07 455.93 178.43 456.26 175.94 456.58 175.47 457.32 173.58 458.71 173.66 459.97 174.33 460.78 174.48 462.42 174.31 463.32 173.9 463.16 173.13 463.23 172.23 463.12 170.92 463.31 170.47 464.53 170.19 464.68 169.56 465.44 169.07 465.39 168.13 465.09 167.77 464.94 166.87 464.53 166.29 465.74 164.6 465.52 163.04 466.72 163.08 466.95 162.6 467.98 162.78 468.14 163.01 469.58 162.82 470.74 162.15 472.21 161.55 473.17 160.71 474.08 160.53 474.09 159.58 473.23 158.48 473.44 158.1 474.14 158.47 474.77 159.08 476.14 158.75 476.18 159.6 477.71 160.25 478.81 160.59 480.82 162.02 482.1 162.71 482.91 162.22 483.33 163.47 483.87 164.47 484.75 165.52 485.7 165.62 486.47 164.47 487.77 164.22 488.76 163.27 489.79 163.37 490.14 161.94 490.83 160.5 490.76 159.11 491.36 158.54 492.14 158.26 492.95 158.37 494 158.25 494.77 157.02 494.96 155.86 494.77 154.36 495.97 153.97 496.26 153.59 496 152.61 496.49 151.93 495.87 150.22 495.91 149.49 496.57 148.7 496.59 147.56 496.76 146.63 496.65 145.79 496.86 145.36 496.04 142.07 496.54 141.77 496.86 141.2 496.62 139.32 496.2 138.78 496.41 138.06 496.27 137.18 496.43 135.99 496.07 134.83 495.74 134.49 496.06 134.02 496.17 132.92 496.95 132.18 497.19 131.07 496.37 130.11 495.47 129.65 494.72 129.69 493.38 130.19 491.95 130.02 491.14 128.36 490.1 128.35 489.75 128.07 489.9 127.48 493.23 124.82 493.19 123.66 492.75 122.21 494.12 121.02 493.94 120.29 493.2 119.07 492.99 118.11 493.19 116.86 493.04 115.61 493.5 114.99 493.1 114.19 493.06 112.68 492.74 110.24 494.3 110.23 495.53 112.52 496.24 113.65 497.11 114.54 497.93 115.74 499.05 116.96 500.33 117.5 501.71 117.74 502.47 119.64 503.55 120.87 504.02 121.61 505.15 122.19 505.76 123.25 506.56 123.57 508.82 123.91 509.36 124.69 510.31 125.41 511.25 126.58 514.1 127.2 515.58 126.84 Z" id="32510340"/>
<path d="M 200 282.09 200.08 283.32 200 284.48 199.72 284.94 199.57 286.56 199.79 287.55 200.27 288.17 200.4 288.82 199.69 290.08 200.52 290.9 200.85 291.92 200.83 292.61 201.27 294.1 201.37 295.04 201.71 295.47 201.79 296.93 202.44 297.96 202.34 299.37 201.99 300.17 202.3 300.93 202.33 301.58 202.99 302.09 203.58 303.1 204.64 303.43 205.31 304.08 206.3 304.15 207.13 304.5 208.83 305.95 209.57 305.2 210.25 306.03 211.15 307.85 211.19 308.38 211.89 309.69 211.6 310.17 212.05 310.55 213.11 310.49 213.31 311.23 214.34 311.72 215.2 312.9 215.98 312.66 216.79 313.09 218.04 313.23 218.45 314.21 219.41 314.84 220.73 314.83 221.2 314.46 222.57 314.62 223.03 315.05 223.55 315.1 224.08 315.57 224.06 316.19 224.56 316.46 224.78 316.99 225.68 316.96 226.37 316.47 227.26 316.51 228.37 315.78 229.2 315.75 229.47 315.36 229.54 314.5 231.71 315.23 231.88 315.09 233.22 316.59 233.18 317.12 233.85 318.28 235.23 318.94 236.48 320.04 237.25 321.28 236.89 323.26 237.42 324.57 238.1 324.77 238.58 325.75 239.34 326.36 240.33 326.5 241.78 327.38 242.24 327.36 242.68 328.23 243.21 330.48 243.61 330.73 244.19 330.57 244.49 330.97 245.49 331.25 245.99 332.76 246.84 334.24 248.09 334.77 249.46 334.74 249.89 334.92 251.41 334.27 251.89 334.36 252.56 333.66 253.23 333.96 253.34 334.37 254.48 334.89 254.68 335.2 256.81 335.49 257.38 337.4 258.01 337.53 257.88 338.31 258.33 338.91 259.36 339.11 259.92 338.92 261.58 338.89 261.85 339.01 263.42 337.47 264.08 337.23 265.17 337.96 266.1 337.66 266.92 338.39 267.46 338.3 268.47 337.64 268.64 337.1 269.91 336.31 272.86 336.45 273.02 336.18 273.32 336.31 273.47 337.45 274.24 338.13 274.21 339.27 274.61 339.8 274.45 340.15 274.7 341.34 274.64 342.29 273.73 343.83 273.74 344.78 274.13 345.78 274.03 346.05 274.32 347.28 273.2 348.09 273.4 348.45 272.77 349.91 271.61 350.42 271.28 351.36 270.76 351.29 270.58 352.15 270.6 353.87 270.76 355.15 269.93 355.88 268.23 356 267.16 356.68 267.51 359.37 267.1 360.58 266.21 361.67 265.14 361.75 265.16 363.02 264.31 364.13 263.03 365.41 261.56 365.94 260.3 367.46 258.25 369.37 258.23 370.71 259.3 373.89 258.03 374.44 257.45 375.06 256.46 374.56 255.68 374.53 255.1 374.95 253.62 375.04 252.93 374.19 252.56 374.32 251.71 373.98 250.95 374.21 249.49 373.81 248.49 373.73 247.51 374.32 247.01 374.97 246.77 375.87 246.04 376.14 245.21 377.33 244.74 377.5 243.84 377.39 243.28 377.11 242.97 377.35 241.33 377.55 241.1 377.99 239.8 379 238.41 378.14 237.26 377.79 236.43 376.91 236 376.67 235.21 375.7 233.9 374.75 233.86 373.48 233.21 372.43 232.24 372.03 231.18 371.8 230.81 371.31 229.22 371.16 227.72 370.23 227.29 370.95 226.91 371.09 226.49 370.56 225.08 370.78 224.43 370.56 223.71 371.19 223.09 371.09 222.83 370.52 222.2 370.56 221.2 370.04 220.9 368.82 219.36 368.56 218.79 369.13 217 368.77 216.42 369.14 216.26 368.39 215.73 368.12 215.06 368.36 213.84 367.88 213.56 366.81 213.84 366.1 213.36 365.88 212.65 363.75 211.42 363.16 211.59 362.42 210.97 361.85 210.95 360.7 210.33 359 209.92 358.7 207.29 358.41 206.7 357.49 206.06 353.43 205.25 353.26 203.51 351.86 203.72 351.39 202.85 350.57 202.91 350.13 201.62 349.71 200.9 349.01 199.33 348.56 199.03 348.1 198.4 347.8 197.51 347.77 197.26 348.25 196.31 349.36 196.09 350.93 195.43 351.7 195.39 352.27 194.61 352.81 193.72 353.91 191.99 354.32 191.64 354.57 190.24 354.39 188.33 353.45 187.78 353.39 187.11 352.97 186.51 353.09 186.15 352.82 184.74 352.9 183.72 352.15 183.12 351.9 182.56 352.02 181.22 351.11 180.18 351.06 179.31 351.21 177.48 350.45 177.41 349.58 176.95 349.28 176.08 347.9 175.96 347.41 174.12 346.57 173.41 345.77 172.37 346.33 170.91 346.53 170.58 345.95 170.19 344.14 169.45 343.97 169.22 343.22 168.75 342.62 168.62 342.02 167.92 341.52 167.19 341.8 165.88 343 164.46 342.87 162.93 343.59 161.76 344.6 161.71 344.88 160.79 345.59 160.23 345.47 159.51 345.73 158.38 345.53 157.54 346.17 156.75 346.37 156.37 345.93 155.41 345.42 154.53 345.26 154.05 345.38 151.77 345.07 151.37 345.29 150.15 344.46 149.21 344.04 148.05 344.05 147.17 344.57 146.21 344.02 145.83 343.61 144.83 343.57 144.34 343.09 143.28 343.52 142.93 343.38 141.85 344.22 141.05 344.37 139.73 345.26 138.85 345.58 137.72 345.2 137.15 344.7 136.75 345.21 135.59 346.16 133.98 346.58 133.4 347.13 132.78 347.27 132.29 346.87 131.59 345.31 130.64 345.3 129.39 344.76 128.4 344.68 128.07 344.29 127.29 344.18 126.32 343.76 126.06 343.28 125.36 342.98 125.36 342.48 124.84 341.99 125.48 341.18 125.36 340.31 126.14 339.65 126.04 339.3 127.1 338.74 127.33 337.96 126.68 337.16 126.2 337.13 125.74 336.36 124.48 335.46 124.03 334.46 123.76 333.5 124.74 332.98 126.92 329.87 127.14 329.23 127.12 328.29 127.62 327.29 127.54 325.17 127.68 324.02 127.51 323.3 127.14 322.81 126.26 320.98 126.13 320.3 126.17 318.84 125.56 316.38 125.99 315.82 126.24 315.08 126.67 315.11 126.87 314.33 127.87 313.67 129.05 313.2 130.39 312.49 130.18 311.23 130.74 310.8 130.72 310.21 131.68 307.95 133.01 307.18 133.58 307.2 135.96 305.76 136.55 305.74 137.29 305.29 138.49 304.15 139.33 303.9 139.39 303.58 140.55 302.16 140.16 301.74 139.72 300.78 139.32 300.63 138.7 299.74 138.5 298.97 137.56 297.49 137.98 296 137.7 295.08 138.28 294.19 138.46 292.95 137.87 292.09 137.79 290.47 137.4 289.6 137.73 289.03 137.75 288.3 138.32 287.29 139.16 287.02 139.7 286.39 139.91 285.4 140.29 284.6 140.65 282.93 140.41 282.13 140.71 280.99 141.64 280.22 142.41 279.77 142.8 279.25 143.85 278.71 143.9 276.7 144.59 275.22 145.25 274.86 145.89 273.91 147.31 273.89 148.35 273.39 149.14 273.97 151.23 274.78 152.38 274.86 153.19 275.16 153.75 275.6 154.33 275.66 155.43 274.63 155.79 273.75 156.4 273.16 157.59 272.68 158.26 272.68 158.56 271.84 158.87 271.85 161.6 272.82 162.5 272.54 163.9 272.47 164.54 272.67 164.81 272.14 166.58 271.74 166.62 271.16 166.99 270.54 168.1 267.87 167.74 267.09 167.67 266.27 168.32 265.64 168.13 264.5 167.74 263.5 167.71 262.88 166.86 262.15 166.84 261.25 167.32 259.59 166.81 257.88 166.04 257.04 164.76 256.13 163.98 255.88 164.54 255.37 164.89 253.65 165.35 253.16 165.48 243.47 165.41 243.17 166.71 243.23 167.31 243.12 168.68 243.29 169.04 242.69 170.74 241.94 171.42 242.15 172.09 242.06 172.71 242.27 173.3 242.02 174.1 242.68 174.7 242.94 175.2 243.93 175.74 244.48 175.79 244.88 177.44 246.42 178.81 247.37 179.73 246.6 180.61 246.73 181.65 245.77 183.03 245.35 181.65 246.89 182.03 247.32 181.99 247.83 183.02 248.01 183.61 248.73 183.99 249.79 184.55 250.36 186.35 250.81 187.08 251.47 188.5 252.11 189.86 252.58 190.35 252.08 192.2 252.81 192.63 252.6 193.42 253.17 194.17 252.95 194.55 253.4 195.33 253.44 196.41 254.04 196.83 254.88 196.08 255.08 196.04 256.29 196.48 257.54 196.55 258.91 196.13 259.31 195.15 258.98 194.43 259.55 194.38 260.74 193.85 261.81 194.14 262.6 194.34 264.27 193.54 266.11 193.48 266.68 192.89 267.21 192.83 268.91 193.19 269.44 193.25 270.06 192.57 271.63 192.45 272.29 191.95 272.65 191.51 273.71 191.6 274.78 191.31 275.2 193.5 276.59 196.04 277.57 196.85 278.71 198.21 279.78 200 282.09 Z" id="32510360"/>
<path d="M 81.27 243.45 81.51 243.92 81.87 247.35 81.58 249.81 81.69 250.79 81.46 254.18 81.94 256.44 82.46 257.61 83.43 258.61 84.52 258.99 85.76 258.78 87.7 257.66 89.22 254.25 89.68 252.21 88.72 243.83 88.74 240.41 90.02 239.18 94.32 238.65 98.72 240.42 100.86 241.07 103.43 242.75 104.14 241.86 105.23 241.54 106.01 242.32 106.41 242.29 108.48 243.14 109.13 243.24 109.34 242.25 110.57 240.99 111.56 240.85 112.5 240.04 113.68 237.52 113.88 236.72 112.96 234.04 112.83 233.14 113.85 231.51 113 231.35 112.7 231.09 111.93 231.13 111.06 230.92 110.37 229.72 110.56 228.22 110.31 227.69 111.87 227.34 113.9 225.45 115.03 224.59 115.44 224.03 116.21 223.59 116.22 222.99 116.77 222.83 118.14 222.87 118.59 222.33 119.22 222.31 119.9 222.58 120.76 222.1 121.97 222.06 122.23 222.5 123.29 222.81 124.44 222.28 125.41 222.87 126.19 222.7 126.13 223.45 125.67 224.1 125.6 224.86 124.69 225.14 124.9 226.01 124.43 226.12 124.63 226.97 123.65 227.89 123.82 228.2 123.2 228.87 123.71 229.34 123 230.11 122.64 230.97 123.89 232.09 123.24 232.81 123.4 233.36 122.71 234.42 122.96 235.02 122.73 235.48 123.41 235.92 124.57 235.2 125.63 235.43 126.53 235.99 126.84 235.73 127.9 235.54 128.92 234.95 129.61 234.85 130.14 234.39 131.17 234.05 131.52 234.71 132.81 235.18 133.49 235.21 135.47 234.86 136.07 233.92 136.03 233.56 136.71 233.04 137.21 231.86 138.58 231.34 139.34 231.75 140.16 231.6 140.8 232.2 140.58 232.76 141.45 233.96 141.76 235.24 141.53 236.08 140.77 237.41 140.81 238.3 140.35 240.02 140.7 240.87 141.78 241.36 142.63 242.35 143.7 242.96 143.47 241.88 143.67 241.77 144.5 242.71 144.45 243.63 143.27 244.02 143.24 246.11 142.32 246.79 141.98 249.13 142.27 250.31 143.74 251.19 143.62 252.32 142.89 252.83 142.8 253.5 142.4 253.89 141.63 255.76 141.24 255.81 141.05 256.65 141.54 257.82 140.66 258.08 140.48 258.77 139.91 259.52 138.74 260.43 137.71 261.81 137.66 262.83 137.35 262.95 136.59 263.97 136.59 264.63 136.1 265.26 136.53 266.43 137.31 267.37 136.82 269.72 136.8 270.75 135.33 273.48 134.91 273.87 134.92 274.77 135.28 275.28 137.25 276.38 138.77 278.22 138.95 278.69 139.81 279.69 140.71 280.99 140.41 282.13 140.65 282.93 140.29 284.6 139.91 285.4 139.7 286.39 139.16 287.02 138.32 287.29 137.75 288.3 137.73 289.03 137.4 289.6 137.79 290.47 137.87 292.09 138.46 292.95 138.28 294.19 137.7 295.08 137.98 296 137.56 297.49 138.5 298.97 138.7 299.74 139.32 300.63 139.72 300.78 140.16 301.74 140.55 302.16 139.39 303.58 139.33 303.9 138.49 304.15 137.29 305.29 136.55 305.74 135.96 305.76 133.58 307.2 133.01 307.18 131.68 307.95 130.72 310.21 130.74 310.8 130.18 311.23 130.39 312.49 129.05 313.2 127.87 313.67 126.87 314.33 126.67 315.11 126.24 315.08 125.99 315.82 125.56 316.38 126.17 318.84 126.13 320.3 126.26 320.98 127.14 322.81 127.51 323.3 127.68 324.02 127.54 325.17 127.62 327.29 127.12 328.29 127.14 329.23 126.92 329.87 124.74 332.98 123.76 333.5 122.35 333.07 121.82 333.33 120.33 333.01 120.28 332.34 119.73 332 119.48 331.52 118.79 331.06 118.4 330.29 117.63 330.11 117.04 330.3 116.5 330 115.92 328.23 115.07 327.87 113.91 327 113.96 326.45 110.95 325.35 109.6 323.8 108.92 323.26 107.78 322.67 107.22 322 106.94 321.34 105.56 320.73 104.78 319.81 103.65 318.89 101.83 317.9 101.17 316.7 100.27 316.04 99.68 315.05 99.42 312.47 98.99 311.65 98.34 311.23 97.36 311.16 96.27 311.68 94.1 312.87 92.38 313.16 91.04 313.13 89.38 312.39 88.34 311.39 87.82 310.25 87.37 308.55 86.41 306.75 86.06 305.23 86.21 304.43 86.1 303.18 85.44 302.97 84.12 302.97 82.3 303.44 81.45 303.48 80.35 303.31 79.64 302.59 79.97 301.62 79.9 301.02 79.02 300.34 77.88 300.24 77.22 300.7 76.29 300.53 75.98 300.16 75.88 299.28 76.01 298.29 76.44 297.01 76.29 296.35 75.72 296.28 74.5 297.04 73.81 296.92 72.83 296.1 72.25 295.42 71.79 294.45 71.32 293.89 70.4 293.37 69.62 293.47 69 293.85 68.02 294.92 66.97 296.76 66.41 296.29 66.51 295.65 67.01 294.3 66.87 293.64 65.33 293.56 64.69 293.1 64.6 292.46 64.04 290.77 63.06 289.97 62.06 289.65 61.27 290.39 60.41 290.97 59.96 290.54 59.11 290.11 58.48 289.3 57.88 289.1 57.23 287.66 57.11 286.95 55.87 286.68 55.26 286.07 54.51 285.98 54.01 285.69 52.78 285.77 51.9 285.4 51.54 286.3 51.57 286.71 51 287.64 50.5 288.93 49.87 289.06 49.37 289.87 48.1 290.13 47.69 290.91 46.98 291.32 46.6 291.21 45.98 291.65 45.1 291.64 44.03 292.4 43.83 293.03 40.17 293.83 39.61 293.79 38.77 294.33 38.28 295.62 37.56 296.41 37.71 297.51 37.57 298.11 37.77 300.76 37.31 301.6 36.1 302.4 35.63 302.87 34.98 302.93 34.64 303.28 33.55 303.44 31.6 302.7 30.99 303.23 30.37 303.14 29.92 303.74 28.61 304.26 28.2 304.01 27.31 303.96 26.65 304.21 25.42 303.41 24.13 303.16 23.47 303.18 22.43 304.57 21.89 304.93 21.42 305.68 20.73 306.17 20.05 306.38 19.48 307.67 18.97 307.55 17.25 306.26 16.35 306.02 15.56 304.89 14.83 305.09 13.56 304.47 13.34 304.11 11.29 303.4 10.98 303.21 10.91 301.95 10.6 301.71 10.55 301.01 10.17 300.37 10.13 299.24 8.1 299.03 7.5 298.77 6.67 297.18 5.85 296.93 5.08 296.42 4.36 296.28 4.18 295.76 3.66 295.3 3.08 295.33 2.05 293.04 1.34 291.95 1 289.9 1.21 289.7 1.43 288.37 1.22 287.49 1.29 286.51 1.77 286.62 2.48 286.36 3.3 286.6 4.35 286.49 5.42 286.11 5.97 286.21 6.62 285.66 7.52 285.48 7.67 284.33 8.03 283.8 8.25 282.36 9.29 279.6 9.81 279.53 10.62 278.62 11.64 278.44 12.22 277.8 12.99 277.41 13.11 276.72 14.29 276.06 13.86 274.44 13.5 273.94 13.42 272.62 12.31 271.66 11.82 270.98 11.38 269.29 11.57 267.88 11.52 267.18 11.95 266.68 11.79 265.88 11.81 263.59 11.72 263.29 12.26 262.31 12.3 261.46 12.66 261.01 12.53 257.84 12.89 256.19 12.41 254.62 12.65 253.99 12.49 251.63 12.64 250.39 13.22 249.18 13.12 248.62 13.7 247.17 14.2 246.62 13.95 245.95 14.28 245.58 14.41 244.46 15.12 243.71 15.22 242.3 15.74 241.15 15.96 239.95 15.93 239.1 16.22 238.42 16.92 237.58 16.92 237.23 16.32 236.16 16.31 235.02 17.34 234.53 18.45 233.4 18.16 232.18 18.55 231.23 18.21 230.65 18.18 229.97 18.63 227.48 18.13 226.81 17.96 225.86 18.87 224.51 18.75 224.11 19.43 223.13 20.25 222.93 20.32 221.54 20.67 220.81 20.83 219.94 20.46 218.77 20.37 217.89 19.21 217 19.5 216.5 19.36 215.76 18.89 215.3 18.95 214.49 19.33 213.63 19.16 212.33 19.3 211.81 21.11 212.39 22.59 212.5 23.21 211.99 24.23 209.38 25.08 207.84 28.59 207.55 29.73 207.83 41.58 214.71 43.52 217.36 44.86 218.69 45.69 220.11 45.53 221.75 44.51 223.15 43.87 224.49 43.42 226.58 43.51 228.13 43.78 230 44.63 231.79 45.12 233.77 45.95 235.12 47 235.95 49.38 234.99 51.25 234.5 53.66 234.54 55.18 235.22 55.54 235.64 55.65 236.69 57.2 238.31 57.92 240.45 58.01 243.88 57.83 246.38 56.78 249.26 56.05 250.77 56.1 254.26 56.08 261.17 57.23 262.16 59.71 262.26 62.07 261.47 64.2 260.23 66.11 258.89 67.56 256.85 68.05 254.24 68.02 250.87 67.74 247.29 69.81 243.87 72.82 241.74 75.09 240.8 77.02 240.46 78.97 240.24 80.27 241.57 81.27 243.45 Z" id="32510370"/>
<path d="M 242.34 108.36 243.12 109.75 243.48 111.96 243.95 113.3 243.6 114.46 243.58 116.38 243.87 117.29 245.01 117.87 245.4 117.76 246.28 118.42 246.28 119.26 247.4 120.54 247.7 121.21 248.06 123.43 248.66 123.84 248.64 124.46 248.98 124.84 249.41 126.24 249.9 126.85 251.87 127.21 252.34 127.72 253.67 127.95 253.89 128.29 256.19 128.72 256.94 130.15 257.73 130.51 257.89 130.99 258.49 131.62 257.74 132.97 257.59 134.24 257.72 135.67 257.5 136.48 257.51 137.79 257.8 139.07 257.8 140.33 258.09 140.66 257.86 142.38 258.17 143.05 259.37 143.2 260.81 143.63 261.58 144.03 261.69 145.31 262.24 147.5 262.32 150.06 262.16 151.24 262.26 152.3 261.71 153.8 261.12 154.92 260.92 156.48 260.26 157.83 261.09 158.47 262.05 158.7 262.8 159.45 264 159.85 262.98 161.08 262.92 162.3 263.61 163.06 264.91 163.16 265.95 160.92 268.19 162.19 269.98 162.58 270.28 163.36 270.25 165.58 270.13 165.98 270.44 166.9 271.01 167.56 271.53 167.66 272.02 168.22 273.25 168.26 276.38 168.06 276.97 168.29 277.39 169.61 278.14 170.09 278.34 170.76 279.01 171.71 278.85 173.27 279.16 173.73 279.31 176.09 279.12 176.81 279.26 177.47 278.78 178.16 278.28 179.39 278.11 180.29 277.81 180.85 277.45 182.68 277.63 183.52 277.45 184 277.88 184.67 279.24 186.21 280.59 188.06 281.2 189.39 280.47 190.7 280.62 191.16 279.7 193.11 277.4 192.55 276.8 192.83 276.14 192.75 275.13 193.58 273.4 193.42 272.98 193.53 272.63 194.23 271.38 194.85 270.9 195.42 271.16 196.5 270.73 197.44 270.21 197.96 270 198.77 269.99 200.42 270.14 200.78 269.85 201.8 269.88 203.08 269.42 203.9 269.37 205.72 268.82 206.33 268.16 207.61 268.07 208.3 266.44 208.84 264.81 209.87 264.2 210.82 264.92 211.71 265.18 212.44 264.12 213.52 263.8 214.66 263.77 215.69 263.53 216.07 263.67 216.94 263.47 217.29 264.52 218.17 264.46 220.09 263.63 221.73 263.75 223.43 263.57 224.11 262.31 224.69 261.67 225.82 261.06 225.86 259.56 226.63 259.86 227.42 259.82 228.65 259.35 229.07 258.56 229.18 258.24 229.51 258.38 230.45 259.05 232.03 259.03 232.98 259.29 233.96 259.81 234.57 259.08 235.68 258.95 236.38 259.01 237.43 258.47 238.83 257.87 239.1 257.64 240.11 258.37 240.66 258.13 241.71 258.59 243.74 259.2 244.18 259.43 244.95 259.13 246.22 258.9 246.41 258.91 247.27 258.41 247.53 258.15 248.97 257.13 249.27 255.88 250.22 255.45 250.83 253.69 252.25 251.8 254.22 247.34 256.29 245.7 256.61 244.54 256.69 243.7 256.54 243.09 255.98 241.92 255.48 241.16 254.39 239.68 249.7 238.52 249.61 238.09 249.9 236.58 250.15 235.55 250.87 234.88 250.58 234.24 250.94 233.25 250.91 231.9 250.56 230.41 250.45 230 250.23 229.14 250.21 228.92 249.42 228.12 249.22 227.74 248.9 226.71 248.77 225.6 249.6 224.87 251.34 224.19 251.55 223.12 251.5 222.57 252.35 221.93 252.13 221.27 252.28 220.77 252.04 218.55 253.01 217.6 252.46 216.56 252.17 215.86 253.78 215.05 255.07 213.24 256.03 213.84 258.45 214.28 259.38 213.9 260.51 214.12 261.07 213.2 262.43 212.75 262.91 212.43 263.94 211.87 264.5 210.61 264.42 209.6 264.98 208.68 265.06 207.12 265.64 206.14 265.35 205.51 266.51 206.16 268.24 206.25 268.92 206.01 269.83 206.67 271.2 206.68 271.91 206.04 272.47 205.54 272.51 205.72 273.93 205.31 274.3 204.27 274.62 203.5 275.09 202.85 276.04 202.75 276.98 202.47 277.9 202.6 278.79 201.86 280.49 201.02 281.48 200 282.09 198.21 279.78 196.85 278.71 196.04 277.57 193.5 276.59 191.31 275.2 191.6 274.78 191.51 273.71 191.95 272.65 192.45 272.29 192.57 271.63 193.25 270.06 193.19 269.44 192.83 268.91 192.89 267.21 193.48 266.68 193.54 266.11 194.34 264.27 194.14 262.6 193.85 261.81 194.38 260.74 194.43 259.55 195.15 258.98 196.13 259.31 196.55 258.91 196.48 257.54 196.04 256.29 196.08 255.08 196.83 254.88 196.41 254.04 195.33 253.44 194.55 253.4 194.17 252.95 193.42 253.17 192.63 252.6 192.2 252.81 190.35 252.08 189.86 252.58 188.5 252.11 187.08 251.47 186.35 250.81 184.55 250.36 183.99 249.79 183.61 248.73 183.02 248.01 181.99 247.83 182.03 247.32 181.65 246.89 183.03 245.35 181.65 245.77 180.61 246.73 179.73 246.6 178.81 247.37 177.44 246.42 175.79 244.88 175.74 244.48 175.2 243.93 174.7 242.94 174.1 242.68 173.3 242.02 172.71 242.27 172.09 242.06 171.42 242.15 170.74 241.94 169.04 242.69 168.68 243.29 167.31 243.12 166.71 243.23 165.41 243.17 165.48 243.47 165.35 253.16 164.89 253.65 164.54 255.37 163.98 255.88 164.76 256.13 166.04 257.04 166.81 257.88 167.32 259.59 166.84 261.25 166.86 262.15 167.71 262.88 167.74 263.5 168.13 264.5 168.32 265.64 167.67 266.27 167.74 267.09 168.1 267.87 166.99 270.54 166.62 271.16 166.58 271.74 164.81 272.14 164.54 272.67 163.9 272.47 162.5 272.54 161.6 272.82 158.87 271.85 158.56 271.84 158.26 272.68 157.59 272.68 156.4 273.16 155.79 273.75 155.43 274.63 154.33 275.66 153.75 275.6 153.19 275.16 152.38 274.86 151.23 274.78 149.14 273.97 148.35 273.39 147.31 273.89 145.89 273.91 145.25 274.86 144.59 275.22 143.9 276.7 143.85 278.71 142.8 279.25 142.41 279.77 141.64 280.22 140.71 280.99 139.81 279.69 138.95 278.69 138.77 278.22 137.25 276.38 135.28 275.28 134.92 274.77 134.91 273.87 135.33 273.48 136.8 270.75 136.82 269.72 137.31 267.37 136.53 266.43 136.1 265.26 136.59 264.63 136.59 263.97 137.35 262.95 137.66 262.83 137.71 261.81 138.74 260.43 139.91 259.52 140.48 258.77 140.66 258.08 141.54 257.82 141.05 256.65 141.24 255.81 141.63 255.76 142.4 253.89 142.8 253.5 142.89 252.83 143.62 252.32 143.74 251.19 142.27 250.31 141.98 249.13 142.32 246.79 143.24 246.11 143.27 244.02 144.45 243.63 144.5 242.71 143.67 241.77 143.47 241.88 143.7 242.96 142.63 242.35 141.78 241.36 140.7 240.87 140.35 240.02 140.81 238.3 140.77 237.41 141.53 236.08 141.76 235.24 141.45 233.96 140.58 232.76 140.8 232.2 140.16 231.6 139.34 231.75 138.58 231.34 137.21 231.86 136.71 233.04 136.03 233.56 136.07 233.92 135.47 234.86 133.49 235.21 132.81 235.18 131.52 234.71 131.17 234.05 130.14 234.39 129.61 234.85 128.92 234.95 127.9 235.54 126.84 235.73 126.53 235.99 125.63 235.43 124.57 235.2 123.41 235.92 122.73 235.48 122.96 235.02 122.71 234.42 123.4 233.36 123.24 232.81 123.89 232.09 122.64 230.97 123 230.11 123.71 229.34 123.2 228.87 123.82 228.2 123.65 227.89 124.63 226.97 124.43 226.12 124.9 226.01 124.69 225.14 125.6 224.86 125.67 224.1 126.13 223.45 126.19 222.7 126.59 222.6 126.57 220.24 128.12 219.86 128.77 219.06 129.57 218.44 131.49 218.08 131.87 217.52 131.67 217.05 132.08 216.64 133.04 216.2 133.19 215.12 133.48 214.87 133.93 212.75 134.7 211.97 136.11 211.57 137.22 211.71 137.39 210.43 138.9 209.96 139.26 208.87 139.86 208.83 140.3 208.43 141.56 208.27 141.49 207.49 141.75 206.72 142.24 206.37 142.85 206.39 143.75 206.94 144.4 207.08 144.72 207.51 145.38 207.76 146.47 207.55 147.75 206.61 147.92 206.1 148.62 205.63 148.99 204.98 149.35 204.39 149.96 204.28 150.29 203.82 150.96 203.7 151.35 202.96 152.14 202.48 153.31 202.39 155.65 200.72 156.01 200.6 157.43 199.62 158.32 198.33 159.53 198.52 160.26 198.09 160.95 198.04 161.65 198.46 162.01 198.92 162.93 199.61 163.8 200.96 164.09 201.93 164.27 203.73 164.69 204.08 164.48 204.77 164.67 205.4 165.58 205.97 165.83 206.4 166.41 206.45 167.3 207.05 168.94 205.43 169.31 205.17 169.74 204.29 170.08 204.36 170.84 203.31 171.94 202.82 172.47 202.79 172.93 202.39 173.53 202.44 174.33 201.85 176.41 201.96 177.65 201.74 178.98 202 180.04 201.88 180.9 201.22 181.95 201 183.09 200.5 183.4 199.51 184.59 198.97 185.49 199.13 186.55 198.64 187.03 198.03 187.81 197.43 188.55 198.15 189.93 198.85 190.33 199.3 191.38 199.7 192.33 200.71 191.93 201.91 192.17 202.8 194.3 203.59 195.43 203.67 196.42 204.18 196.98 204 197.82 204.34 198.79 203.3 200.81 202.67 202.24 201.84 202.53 200.87 202.93 200.3 202.57 199.36 202.53 198.48 202.96 197.77 203.67 197.7 204.45 196.96 205.13 197.48 206.42 197.02 206.71 195.54 206.46 193.85 206.69 193.44 208.26 193.11 208.76 192.7 209.47 193.15 209.94 192.6 210.79 192.67 212.14 191.43 213.94 191.24 214.62 191.94 215.26 191.99 216.06 192.65 216.62 192.54 217.78 193.76 218.18 194.65 218.93 194.67 220.16 195.61 220.84 196.9 220.91 197.5 221.77 197.7 222.23 198.14 223.2 198.05 223.18 198.51 225.21 198.18 225.6 197.66 226.18 198.05 226.89 197.51 228.07 195.2 228.94 193.87 230.16 192.92 231.53 192.39 233 192.07 234.43 190.75 235.61 190.18 235.45 188.6 235.92 188.06 235.85 187.53 235.18 187.49 234.1 186.88 233.25 186 232.36 184.88 232.13 183.78 233.19 183.01 234.08 183 235.21 182.59 236.59 182.48 238.06 181.56 238.7 180.31 239.28 179.67 240.18 179.34 240.56 178.71 243.12 176.76 243.24 176.15 243.76 175.14 244.12 174.93 243.95 174.14 244.05 173.35 245 171.83 244.28 171.04 243.98 169.45 242.94 167.71 242.72 167.06 241.77 166.25 241.57 165.76 240.72 164.6 240.69 163.57 240.27 163.24 239.18 163.11 239.08 161.66 237.77 160.64 236.75 160.25 235.21 157.25 234.65 154.89 234.72 153.37 234.07 151.66 233.36 151.31 232.16 151.67 230.43 151.06 229.58 151 229.32 150.34 228.18 149.65 226.46 149.1 225.14 147.86 224.49 147.57 223.99 146.92 222.73 146.33 221.77 145.48 220.06 143.58 220.27 143.2 220.24 142.23 220.67 141.51 220.19 140.83 220.52 139.1 220.99 138.91 221.5 138.2 221.28 137.57 221.4 136.17 221.34 135.4 221.67 134.83 221.7 133.61 220.35 131.38 220.11 130.62 220.18 128.44 220.01 126.87 220.79 126.18 220.82 125.84 221.58 124.95 221.81 123.64 222.06 123.46 221.94 122.28 220.88 121.18 220.37 118.59 218.87 118.34 217.68 118.34 216.73 117.69 213.99 114.92 214.89 113.81 211.22 110.1 211.18 109.73 211.88 107.43 211.73 106.57 212.48 105.91 211.7 105.2 211.63 104.89 212.56 102.71 213.24 102.68 213.86 102.09 215.15 101.84 215.56 101.58 215.47 100.09 216.65 99.1 216.99 98.42 217.57 98.18 218.34 98.46 218.71 98.98 219.91 100.05 221.94 100.22 222.93 99.65 225.28 100.06 225.9 101.41 226.4 101.9 228.02 103.09 228.39 103.5 229.93 103.72 230.63 103.68 231.86 104.42 233.05 105.6 234.66 105.91 237.48 107.62 238.65 107.7 240.17 107.66 241.85 108.11 242.34 108.36 Z" id="32510380"/>
<path d="M 782.1 62.25 782.8 62.45 783.56 64.28 786.21 67.07 786.4 68.02 787.16 69.17 787.14 70.75 787.29 71.03 787.54 72.68 788.59 73.01 790.12 73.24 790.73 73.98 791.41 74.39 791.85 74.21 792.69 74.39 793.5 74.23 794.88 73.71 795.52 74.15 797.11 74.54 798.4 75 799 75.97 798.91 78.32 798.66 79.29 798.67 80.07 798.03 81.07 798.17 81.83 797.87 82.67 798.07 84.42 797.34 85.19 796.88 85.93 796.38 87.29 796.28 88.33 797.21 90.16 796.98 90.62 797.19 91.2 796.54 91.98 796.08 93.07 795.2 93.65 794.94 94.18 795.34 95.37 794.64 97.4 794.11 97.73 793.93 98.36 794.25 99.84 793.94 100.62 794.18 101.45 794.26 102.87 794.54 103.44 793.77 104.83 793.14 107.71 793.35 108.63 793.27 109.47 793.98 110.85 794.3 112.65 795.05 114 794.5 114.61 791.65 117.15 790.74 118.22 789.97 119.5 789.86 121.02 788.78 122.04 788.07 123.32 786.75 125.15 785.79 127.15 785.36 127.55 784.13 126.96 783.24 127.04 782.39 126.77 781.67 126.75 780.55 126.46 779.32 126.48 778.18 126.23 776.19 126.03 775.24 125.76 774.56 126.1 771.98 129.3 771.66 130.55 770.78 131.33 769.47 131.54 768.49 132.3 767.45 133.33 766.26 134.11 765.8 134.76 765.47 137.72 766.04 139.44 765.02 141.27 764.86 142.4 765.27 143.05 765.34 144.98 765.05 146.16 764.24 147.95 762.91 151.11 761.88 152.06 759.82 153.21 758.99 154.18 758.11 154.48 758.27 155.36 757.9 156.77 758.04 157.53 758.51 158.18 758.11 160.03 758.07 160.91 758.27 161.75 758.27 162.93 757.09 164.13 755.88 164.98 755.12 166.13 754.44 166.66 753.27 168.77 752.52 169.09 752.29 169.48 751.33 169.7 751.55 178 753.06 178.99 753.9 180.39 753.63 181.89 753.73 182.53 753.11 184.27 753.48 185.26 752.4 187.62 752.54 188.66 751.75 190.18 752.09 191.74 752.74 192.64 752.65 193.82 753.05 194.59 754.05 195.08 754.61 195.99 754.49 198.34 754.97 198.87 754.89 199.39 753.72 200.76 752.17 201.47 751.52 202.07 750.55 202.58 749.27 201.28 747.27 200.51 745.83 200.26 744.99 200.53 744.25 201.15 743.58 202.07 743.01 201.88 740.96 201.93 739.71 201.48 738.75 201.35 737.24 201.53 736.77 200.96 736.16 200.72 734.61 200.99 732.64 200.59 731.4 200.03 730.61 199.86 729.55 200.07 728.55 199.81 728.06 199.97 727.63 199.63 726.64 199.72 724.73 199.23 723.14 198.83 721.45 198.8 719.73 199.48 718.67 199.36 717.4 198.37 713.24 200.16 712.3 199.95 711.68 200.25 710.13 201.99 709.52 203.49 707.99 204.43 706.05 204.5 705.03 204.42 703.77 203.44 703.64 203.02 702.47 202.52 701.58 202.3 700.02 203.71 699.01 204.21 697.6 205.96 697.7 206.92 696.75 207.83 696.48 208.35 695.67 209.01 694.67 210.66 693.72 213.62 692.99 213.7 691.9 215.37 692.03 216.08 691.76 216.77 692.18 217.98 692.52 218.29 692.99 220 692.73 220.8 693.01 221.43 692.51 222.82 691.91 223.49 692.07 224.11 691.69 225.48 691.8 226.62 691.49 228 691.6 228.74 691.52 229.86 691.29 230.38 691.5 231.28 690.24 232.48 688.44 233.93 688.33 234.45 686.72 235.27 685.48 236.61 685.38 237.85 684.99 239.38 683.36 239.79 681.94 239.41 680.51 240.39 678.75 240.44 678.34 240.25 677.12 240.43 676.02 241.07 675.12 242.27 673.95 242.69 673.18 242.63 672.66 242.88 671.26 243.21 670.04 243.82 668.06 243.36 667.42 243.01 666.82 242.31 664.71 241.22 663.44 242.04 661.63 243.62 660.61 243.42 658.57 242.35 657.67 242.4 656.74 241.69 655.52 241.06 654.81 240.39 654.2 240.85 652.33 240.85 651.2 240.33 649.92 240.34 647.51 240.98 646.57 240.05 644.95 240.48 643.26 240.58 642.52 240.93 641.86 240.65 640.52 240.9 638.68 240.12 638.31 239.57 634.73 238.68 634.09 237.79 633.11 236.9 632.04 236.11 631.5 235 630.25 234.65 628.05 234.32 627.62 233.56 626.78 233.91 626.2 233.56 625.78 233.74 624.93 235.01 624.19 235.28 622.34 235.29 621.36 235.17 619.86 236.3 617.94 236.79 617.23 237.31 615.93 236.9 615.1 237.15 614.3 236.79 613.03 237.36 612.25 237.32 610.19 237.45 609.06 238.2 608.36 238.99 607.24 239.2 606.18 240.19 605.37 240.15 604.72 240.53 603.97 240.57 603.21 241.25 602.32 241.44 601.81 242.06 601.02 242.17 599.98 242.88 599.47 242.46 598.46 242.15 598.37 241.81 597.64 240.95 597.28 239.79 597.44 239.22 596.83 238.6 596.44 237.77 595.48 236.52 595.47 235.45 595.03 234.68 594.78 233.68 594.51 233.31 593.11 232.48 592.89 231.81 592.17 230.42 591.4 230.31 591.36 229.65 590.96 228.85 590.75 227.76 590.31 227.12 590.03 225.02 590.2 224.46 590.19 223.22 590.5 222.76 591.4 222.06 591.96 221.41 592.17 220.68 594.08 219.42 594.95 218.21 595.39 218.02 595.97 217.29 595.44 215.99 594.92 215.06 595.34 213.8 595.67 213.46 595.98 211.85 595.87 210.92 595.44 210.32 595.89 209.98 596.04 209.3 595.34 208.48 595.45 208.07 595.34 206.07 594.95 205.13 595.04 204.66 593.63 203.78 593.42 203.37 593.82 202.5 593.44 201.7 593.38 200.89 592.54 199.71 592.17 198.79 592.32 197.92 591.71 196.13 591.59 195.41 590.97 193.92 591 193.29 590.26 192.3 589.33 191.92 588.77 190.45 586.35 188.68 585.62 188.97 584.03 187.41 582.82 186.76 582.26 186.67 581.34 186.02 580.44 186.35 579.51 186.38 579.09 185.84 577.23 185.03 575.7 185.92 573.74 185.61 572.83 186.11 572.11 187 571 186.18 569.58 185.39 568.68 184.74 567.31 183.97 566.27 183.12 565.64 181.91 564.14 180.89 562.9 180.18 561.82 179.7 561.12 178.92 560.33 179.22 559.36 179.89 559.23 180.74 558.48 181.81 557.78 182.51 556.76 182.58 554.53 182.29 553.38 182.46 551.22 182.62 548.51 182.2 547.84 182.19 547.33 181.23 547.16 179.38 547.21 178.42 546.66 177.17 545.87 176.07 544.9 175.6 544.2 175.07 543.28 173.77 541.95 173.04 541.13 172.73 540.04 171.9 538.63 170.58 536.72 169.57 535.19 168.38 535.37 167.22 535.5 165.14 533.97 163.36 532.77 162.77 532.22 162.19 532.56 160.42 533.05 159.53 533.24 158.72 533.86 157.55 534.02 156.43 534.05 155.21 533.84 153.71 533.59 152.71 532.68 151.29 529.6 151.59 528.27 151.46 526.98 151.65 525.13 152.37 524.1 152.27 522.81 152.4 519.8 152.24 519.52 151.37 519.61 150.12 519.57 146.94 519.29 145.46 519.49 144.19 519.41 140.1 519.17 138.88 519.22 137.64 518.69 135.31 518.08 133.76 518.31 132.54 517.88 131.54 517.44 129.48 516.77 128.35 515.77 127.44 515.58 126.84 516.42 126.08 517.19 124.38 518.92 122.41 519.42 121.53 520.49 121.29 520.94 120.72 522.44 119.82 523.04 118.93 524.6 118.51 525.37 118.84 526.2 117.57 527.82 117.55 528.62 117.35 529.82 117.39 530.89 117.24 531.38 116.11 532.83 115.09 533.18 115.1 533.88 114.26 534.34 112.92 534.26 112.07 534.86 110.65 535.4 110.25 536.76 107.65 538.7 107.05 540.1 107.04 540.27 106.76 540.28 105.3 540.03 104.51 540.46 103.79 541.71 103.36 542.45 102.61 543.61 101.75 543.99 101.97 544.54 101.56 545.32 100.37 546.12 100.68 546.91 100.3 547.02 99.45 546.78 98.35 546.86 96.59 547.38 95.71 548.16 95.64 548.53 93.69 548.95 93.21 549.51 92 549.55 91.01 550.35 90.71 550.27 88.67 550.57 88.4 550.93 87.2 550.86 86.78 551.13 85.64 550.49 85.41 550.68 84.2 551.59 83.77 551.85 82.65 552.25 82.29 553.02 82.28 553.76 81.83 554.51 80.83 555.26 80.15 555.3 79.7 556.58 79.32 557.53 79.41 558.05 79.74 559.52 79.93 559.73 79.29 560.32 78.85 561.05 77.5 561.38 76.33 562.78 75.61 563.18 75.81 563.98 75.59 565.43 74.67 566.72 74.87 567.54 74.61 568.65 74.52 569.43 75.5 570.41 75.8 570.61 75.48 571.47 75.16 572.6 73.59 572.6 72.97 571.67 72.85 571.63 72.42 573.05 71.51 574.79 71.03 575.35 71.65 576.72 72.13 578.02 73.35 578.34 75.32 578.25 75.9 579.31 76.83 579.87 76.83 580.31 77.39 580.7 78.64 581.31 79.27 581.82 79.37 582.63 80.63 582.9 81.61 583.86 82.56 583.81 83.32 584.48 84.4 584.36 85.08 584.77 85.82 584.92 86.67 585.27 87.16 585.38 88.56 584.92 89.03 584.82 89.63 584.18 90.24 584.86 92.34 584.84 93.48 585.52 94.9 585.8 95.88 586.81 97.05 587.45 98.29 588.64 97.93 589.12 98.39 589.53 99.18 590.24 99.81 590.89 101.28 591.6 102.49 592.89 104.32 593.59 104.52 593.65 105.63 594.56 106.48 594.78 107.01 595.6 108.18 595.98 107.83 598.35 106.97 599.79 106.16 600.12 105.68 601.81 105.04 602.51 105.25 604.26 106.15 605.57 107.53 606.57 109.94 607.74 110.66 608.91 111.04 610.33 111.12 611.38 110.98 614.15 111.85 615.92 112.16 617.02 111.75 617.8 110.44 618.53 110.06 619.86 109.11 620.98 107.8 622.25 107.91 623.72 107.41 624.87 107.49 625.46 107.31 626.74 106.55 628.09 106.05 629.27 105.08 629.74 104.95 630.3 103.41 630.62 102.21 629.78 101.38 628.42 100.63 627.89 100.11 628.86 98.75 629.21 97.6 629.09 96.82 629.77 95.35 629.64 94.52 629.9 92.95 630.3 92.02 631.96 91.49 632.39 91.1 633.24 90.94 634.71 90.04 635.5 89.83 636.23 89.15 636.34 88.72 637.47 87.57 637.87 86.78 638.59 86.66 639.36 86.82 639.63 86.24 639.92 84.99 640.46 84.68 640.95 83.81 641.42 82.36 641.94 81.91 642.47 80.75 643.43 80.57 644.69 80.7 645.63 80.21 646.92 80.41 648.54 80.44 648.94 79.83 649.45 79.52 650.55 79.2 651.09 78.69 652.14 78.17 653.05 77.28 653.61 77.06 656.23 78.04 656.32 77.63 657.35 75.97 657.52 74.95 657.25 74.23 657.49 72.87 657.76 72.34 659.44 69.96 660.29 69.65 660.83 69.7 661.28 69.19 662.39 68.35 662.96 67.48 662.74 66.91 663.08 66.05 663.73 65.39 664.16 64.22 664.31 62.91 664.33 61.58 665.28 59.99 665.49 57.96 664.85 56.61 664.8 55.44 666.39 54.81 666.95 55.47 668.34 56.14 668.68 56.56 669.69 56.47 670.07 56.77 671.03 56.81 671.8 57.06 672.83 58.44 673.4 59.67 673.32 60.82 674 61.92 674.58 61.98 675.25 62.6 675.72 62.63 676.1 63.57 677.11 64.44 677.15 65.72 677.76 66.46 677.98 68.38 678.94 69.16 679.09 70.89 679.76 72.45 681.81 73.76 682.29 73.85 682.88 74.5 683.88 74.33 684.69 74.38 685.7 74.85 686.42 74.95 687.11 74.38 687.88 74.54 689.29 74.03 689.16 73.38 689.34 71.46 689.92 70.91 689.93 70.07 690.54 68.86 690.59 68.36 691.61 67.05 691.59 66.03 691.76 65.76 692.57 65.81 693.33 65.53 695.5 64.18 696.55 63.95 697.31 63.11 698.05 62.73 698.38 62.33 699.56 61.55 699.86 59.92 701.07 59.91 702.49 59.17 703.21 59.57 704.23 58.98 705.8 58.38 706.25 57.96 706.7 56.5 707.36 55.5 707.79 55.16 709.07 53.76 710.13 53.23 711.37 53.65 711.67 53.91 712.59 54.12 714.19 51.85 714.26 50.21 715.3 49.14 715.91 47.92 716.49 47.61 717.07 46.66 718.23 46.97 720.14 48.16 720.85 49.06 722.17 49.46 722.87 50.3 725.05 50.67 725.76 51.4 726.63 51.53 727.24 52.37 727.83 53.47 728.43 53.76 728.87 55.2 729.17 55.32 729.29 53.96 730.25 53.04 731.97 52.96 733.89 51.81 735.75 52.23 736.08 53.23 736.92 54.55 737.51 54.75 738.51 56.05 738.71 56.85 739.52 58.25 740.27 58.69 740.97 58.66 742.65 58.07 743.95 57.8 744.8 57.96 745.63 57.88 745.88 57.35 746.96 56.48 748.26 56.38 749.3 55.91 750.44 56.1 751.12 55.74 751.62 54.22 752.15 53.45 752.06 52.48 753.45 51.31 753.95 50.05 754.54 49.94 756.18 49.28 757.03 48.82 758.6 48.97 758.97 49.16 761.32 47.73 762.28 47.76 763.23 48.74 763.82 50.27 764.66 51.45 765.6 51.7 766.68 52.43 767.5 53.26 769.88 54.3 770.59 55.09 771.07 55.28 773.23 56.56 774.32 57.54 775.38 58.73 775.56 60.02 776.31 60.98 776.54 62.36 776.99 62.56 779.75 62.29 781.5 62.57 782.1 62.25 Z" id="32510390"/>
<path d="M 424.32 237.27 424.72 237.61 425.34 237.48 426.29 237.62 427.57 238.5 428.18 238.33 428.6 238.92 429.75 239.68 430.68 240.64 431.35 241.85 431.17 243.05 430.84 243.45 430.33 244.78 429.63 245.61 429.39 246.78 429.05 246.93 428.44 248.75 428.35 249.9 427.65 251.24 427.81 251.94 428.97 252.26 429.12 252.55 430.27 253.6 431.54 253.5 431.9 254.79 432.43 255.88 432.51 257.36 433.71 258.24 434.3 258.25 435.86 260.75 436.42 261.21 438.18 262.02 439.24 262.74 439.09 263.46 439.5 264.85 439.39 267.26 439.19 267.68 439.91 269.07 437.29 270.89 435.54 272.63 434.74 274.37 435.2 275.46 436.09 276.76 436.68 277.38 438.35 277.95 440.3 278.26 441.29 278.95 439.66 279.67 438.31 281.03 437.71 281.98 436.7 282.56 435.82 282.65 435.27 283.15 433.7 283.6 432.11 283.26 431.67 282.99 430.52 283.02 429.29 282.61 429.4 281.91 429.01 281.44 427.41 280.79 426.74 280.66 426.1 280.85 425.45 280.54 424.73 281.05 423.69 281.43 422.77 281.33 420.87 282.27 420.77 282.77 419.61 283.37 418.62 283.05 416.86 283.75 416.39 284.12 415.04 284.4 414.36 284.97 414.54 285.7 414.06 286.14 413.3 286.34 412.9 287.54 412.17 288.17 412.07 289.16 411.32 289.28 409.67 290.07 409.34 290.47 407.72 291.09 407.13 291.69 405.94 292.01 405.31 293.17 405.36 293.8 405.09 296.72 403.84 297.7 402.99 297.93 401.2 298.81 399.58 298.98 397.83 300.14 397.09 300.34 395.68 300.3 395.01 300.66 394.55 301.48 393.6 301.77 392.75 302.03 392.77 305.31 392.28 305.53 391.59 305.16 390.57 305.47 390.41 305.77 389.44 306.07 388.59 307.06 387.73 307.1 385.89 307.83 385.13 307.98 384.29 308.44 383.26 308.74 381.55 308.69 380.39 309.42 380 309.98 379.41 310.26 378.73 310.16 378.04 311.2 377.64 311.55 376.98 313.08 376.17 314.05 375.39 314.22 374.89 314.81 374.06 315.14 373.74 316.46 373.42 316.91 372.37 317.09 372.11 317.82 370.82 319.01 370.21 319.39 368.52 319.23 367.58 318.98 365.87 317.96 365.78 317.29 365.29 316.68 365.64 314.88 365.38 313.06 365.49 312.58 364.68 311.23 364.9 310.37 365.31 310.06 365.6 309.37 364.85 308.75 364.89 307.95 364.01 306.94 363.04 306.56 361.13 306.32 359.89 306.37 357.82 306.72 357.26 306.33 355.8 306.64 354.95 306.67 353.12 306.48 351.52 305.81 350.06 305.44 349.13 305.68 347.31 304.93 346.23 304.1 345.28 303.62 344.16 303.65 342.97 303.36 342.57 303.08 340.11 302.32 339.95 301.82 338.94 301.84 338.89 301.38 339.19 300.6 338.23 299.19 337.87 298.96 337.63 298.08 337.22 297.64 336.15 297.69 334.97 296.4 332.74 295.93 331.84 296.86 331.59 297.61 331.95 299.49 331.36 301.13 330.38 302.4 330.62 303.07 330.51 303.91 330.81 304.55 330.02 306.63 327.9 307.74 326.76 307.18 325.68 307.05 324.42 307.47 323.72 307.95 323.98 308.66 323.47 309.62 322.2 311.15 322.28 312.05 321.75 313.84 320.76 314.92 319.85 315.43 318.6 315.5 318.7 316.15 318.57 316.96 318.68 318.05 318.42 318.58 318.52 319.21 318.25 319.8 318.1 321 317.79 321.89 316.41 322.78 314.5 323.53 313.26 324.2 311.92 323.82 310.06 323.53 308.47 323.75 307.03 323.5 304.08 323.29 301.24 326.17 299.81 326.79 299.42 328.77 297.62 328.2 296.07 327.32 295.77 324.61 295.97 323.47 291.74 322.03 291.47 321.57 290.73 321.37 289.17 319.76 288.82 318.74 288.42 318.28 288.28 317.21 287.62 316.1 287.35 315.3 287.19 313.53 286.28 312.34 286.35 311.44 285.71 310.7 285.36 309.84 284.73 309.75 284.63 308.61 285.05 307.61 284.74 306.34 282.89 305.4 282.27 305.9 281.98 305.31 281.97 304.42 281.28 304.04 280.02 302.95 279.53 302.87 278.95 301.54 278.24 300.78 278.71 298.97 279.15 298.57 278.52 297.14 277.85 296.77 277.93 295.97 277.11 295.07 276.46 293.74 276.55 292.63 276.18 291.57 276.55 290.88 277.11 290.54 276.97 289.74 278.45 289.2 279.3 288.42 278.36 287.46 278.62 286.22 278.21 284.29 277.69 283.71 276.77 281.53 276.59 280.66 276.68 280.13 275.85 279.37 276.2 277.76 275.65 277.41 274.89 276.21 274.31 275.06 274.66 273.95 274.31 272.85 275.17 271.91 275.65 270.81 275.36 268.96 274.83 268.92 274.61 268.16 273.62 267.95 272.93 265.9 272.28 265.36 272.18 263.61 272.82 263.21 272.96 262.42 272.88 261.36 272.03 260.22 272.32 259.96 273.69 259.41 273.91 259 274.97 258.65 275.38 257.81 276.59 257.31 276.88 256.7 277.44 256.37 277.62 255.14 278.84 254.18 279.47 254.02 280.07 253.51 280.72 253.67 281.35 253.08 282.39 253.47 284.45 254.49 284.72 254.02 284.49 253.63 285.1 252.81 285.55 251.6 286.24 251.47 286.4 251.01 287.13 250.92 287.34 250.35 287.81 250.12 287.89 249.32 287.52 248.67 287.84 248.03 287.99 246.83 288.47 247.28 289.45 247.32 290.07 247.16 291.43 246.53 291.77 245.98 292.4 245.95 293.82 245.22 294.37 244.52 295.42 243.94 295.69 243.51 295.71 242.63 296.02 242.22 295.88 241.55 295.41 240.87 295.31 240.2 296.21 240.16 296.48 239.51 296.54 238.67 296.34 238 295.62 236.56 294.83 235.94 294.63 236.6 292.51 235.46 292.67 234.81 293.43 233.32 294.23 232.48 296.29 231.58 297.02 231.12 299.1 230.33 300.07 230.96 300.87 231.2 302.05 231.92 302.55 232.07 303.03 231.68 303.12 231.04 303.79 230.78 305.2 229.86 305.32 229.31 305.87 229.01 306.21 228.39 306.83 228.27 307.52 227.48 308.67 227.51 308.76 227.25 310.98 227.29 312.03 227.76 312.38 228.51 314.6 229.67 315.33 231.22 317.48 231.35 318.02 231.09 318.46 231.32 319.19 230.73 320.31 230.45 320.9 230.85 321.47 230.83 323.43 229.59 323.96 229.58 326.06 230.25 327.02 230.32 328.04 230.24 328.81 231.13 329.86 232.98 330.23 233.09 331.28 234.47 332.36 234.63 335.42 232.48 336.56 232.1 336.39 231.35 337.77 229.93 338.74 229.81 340.35 229.12 341.15 229.25 341.78 230.08 343.11 229.95 344.28 230.35 345.97 231.19 346.96 231.15 348.07 230.46 349.53 229.98 349.64 230.38 350.83 231.26 351.9 231.31 352.95 230.91 353.48 230.33 353.86 229.54 354.76 228.59 354.63 227.21 355.1 226.29 355.21 225.59 355.83 225.17 356.84 224.82 357.43 224.79 358.04 223.95 359.25 223.58 360.46 222.35 361.49 221.62 362.1 222.89 362.78 223 364.98 222.93 366.46 222.64 367.68 223.77 369.34 223.51 370.5 223.88 371.35 224.49 371.72 225.42 374.22 227.05 374.59 228.07 375.05 228.82 375.35 230.15 375.24 231.33 375.52 231.8 376.68 232.87 377.34 233 377.52 233.88 378.09 235.13 378.57 235.6 379.55 237.19 379.82 238.39 381.11 238.47 381.58 238.07 382.91 237.94 383.67 238.29 384.44 237.75 385.54 238.17 386.14 238.1 386.7 237.69 387.44 237.82 389.01 237.69 391.29 238.33 392.01 238.38 393.38 239.33 394.94 239.19 395.41 239.36 395.93 240.52 397.77 240.24 398.95 240.24 399.55 240.71 400.25 240.69 401.07 240.23 401.85 240.54 403.02 241.52 404.1 241.65 405.18 242.02 405.57 241.98 406.35 242.6 406.99 242.54 407.53 243.03 408.62 242.92 410.27 242.14 411.61 241.97 411.97 242.18 413.31 242.45 413.7 242.3 414.72 242.94 415.75 243.07 416.05 243.37 417.29 243.22 417.98 242.81 418.86 241.83 419.66 241.26 419.86 240.48 420.34 239.66 421.1 239.28 421.74 239.22 422.76 238.54 424.1 237.96 424.32 237.27 Z" id="32510400"/>
</g>
</svg>