<?xml version="1.0"?>
<svg xmlns="http://www.w3.org/2000/svg" version="1.2" baseProfile="tiny" width="800" height="707" viewBox="0 0 800 707" stroke-linecap="round" stroke-linejoin="round">
<g id="dong">
<path d="M 424.27 304.26 422.84 306.23 422.65 307.07 421.65 307.78 421.6 310.08 422.03 311.6 421.8 312.72 422.53 313.33 423.87 313.22 424.97 314.98 424.59 316.28 425.25 318.68 425.26 320.59 425.79 321.18 424.87 322.85 424.46 326.61 423.77 329.22 424.53 332.13 424.21 333.11 425.39 335.1 424.61 337.59 423.57 339.14 423.54 340.48 422.36 341.63 420.52 342.66 419.92 344.4 420.82 346.92 420.87 348.41 419.92 348.99 419.88 350.15 420.6 352.03 422.02 352.17 422.25 353.61 421.81 355.37 422.24 356 421.43 357.38 422.48 359.12 422.14 360.98 422.68 362.24 421.77 363.04 420.29 363.47 417.5 362.83 415.68 361.54 415.37 360.5 412.63 361.95 413.36 364.27 413.03 366.08 413.69 367.41 412.04 369.05 410.96 370.57 410.18 372.71 408.65 372.88 407.63 374.7 408.11 375.93 407.45 377.42 407.14 379.55 405.57 382.32 404.77 384.46 406.44 386.46 407.4 386.14 408.28 387.12 408.55 388.18 409.45 388.32 410.53 389.56 410.82 392.55 411.46 393.67 410.83 395.06 411.64 396.65 410.97 399.06 411.42 399.46 410.57 400.82 413.21 402.6 413.44 405.62 415.46 406.8 415.57 408 417.07 409.12 418.28 411.14 418.18 412.56 418.9 414.03 420.12 414.58 418.94 419.01 418.13 419.26 417.74 420.95 416.04 424.66 416.25 426.21 415.49 428.23 413.36 428.93 412.2 429.95 411.09 431.53 412.6 433.15 410.85 434.59 408.68 434.46 407.43 434.68 405.17 434.46 404.14 433.21 403.8 432.04 401.84 432.31 400.22 431.9 399.47 431.1 398 431.18 396.43 430.62 392.95 431.14 390.45 432.36 390.71 433.2 389.21 434 387.43 434.33 386.95 435.03 385.35 434.3 384.7 435.75 382.88 435.3 381.72 436.2 380.27 435.84 379.31 436.81 377.1 437 376.28 435.31 376.32 432.74 375.22 431.97 373.74 428.68 372.89 429.04 370.37 428.77 368 429.67 366.29 428.72 366 428.15 367.02 426.62 365.81 423.84 366.46 423.02 364.16 420.21 363.04 417.87 361.8 417.5 359.76 415.77 357.68 416.54 355.51 416.76 352.99 416.34 352.22 415.81 350.54 416.36 348.39 416.42 346.92 416.88 344.85 416.74 344.24 415.43 340.25 412.89 339.08 412.85 338.02 412.19 334.92 413.03 333.11 411.69 331.08 411.34 330.36 409.89 328.76 411.44 327.67 411.77 326.45 412.83 325.1 412.8 324.05 413.89 323.15 413.06 320.95 413.5 320.76 414.54 317.98 414.74 316.81 417.37 313.8 420.42 312.44 422.14 309.11 425.48 304.42 427.35 303.78 425.79 304.09 424.25 302.32 422.46 300.41 422.13 298.7 422.37 296.49 423.44 295.68 422.89 294.83 423.6 293.04 422.97 292.43 421.82 291.68 421.56 289.92 419.99 289.14 418.89 286.51 420.03 285.84 420.6 284.05 421.01 281.27 421.01 280.88 420.23 280.8 417.52 280.28 415.88 280.13 413.75 278.94 411.65 275.17 407.51 273.81 406.48 273.31 405.53 272.86 402.61 271.11 399.83 271.12 399.21 269.73 398.14 270.21 395.88 269.08 394.38 268.67 392.46 268 391.1 267.53 388.36 266.38 385.35 266.22 383.56 265.72 382.17 264.92 381.22 263.54 381.53 262.7 380.84 262.78 379.33 263.7 375.57 265.1 373.45 263.76 371.26 263.75 370.51 264.79 369.33 264.02 368.77 262.9 366.63 261.73 365.56 260.73 363.83 259.46 362.75 258.22 362.6 256.49 361.02 256.45 358.55 255.94 356.52 255.81 354.72 257.98 352.3 259.33 351.93 260.59 351.07 260.39 349.57 260.51 346.71 262.57 345.3 263.94 343.93 264.36 340.82 264.87 339.61 264.8 338.22 266.22 334.87 264.63 334.29 263.26 334.28 262.31 333.45 261.06 333.07 258.17 330.13 256.59 330.01 252.86 326.03 251.61 325.5 250.63 324.39 251.35 323.06 251.39 320.32 252.53 317.51 252.52 316.51 253.46 314.11 253.99 312 255.97 310.89 256.49 309.4 257.26 308.78 258.18 306.88 259.85 306.89 261.04 307.72 264.14 308.42 265.15 309.45 266.89 309.82 267.18 311.37 269.84 312.77 271.02 312.61 272.2 310.65 274.61 310.69 275.99 310.37 276.54 311.16 277.97 310.59 278.79 311.76 279.55 311.19 281.92 310.99 284.79 311.71 285.37 310.89 287.16 310.4 287.83 309.8 289.67 310.13 290.38 311.31 292.91 312.1 296.4 311.74 297.15 312.13 299.24 312.25 301 312.69 301.19 312.07 300.15 310.33 300.09 307.64 301 306.91 301.63 304.45 302.69 303.87 303.98 304.88 305.77 305.24 306.24 306.28 307.24 306.17 308.66 305.31 310.84 306.19 312.07 307.3 314.51 308.34 316.25 310.08 316.8 311.29 319.11 311.71 320.39 313.61 322.19 314.58 323.47 315.92 324.84 316.78 325.89 318.07 326.68 320.07 330.1 321.39 331.84 325.36 334.06 326.08 335.24 323.67 338 320.04 338.12 319.04 339.09 317.83 340.52 317.28 341.19 315.7 342.04 315.3 344.42 314.98 344.91 313.76 346.19 314.37 347.63 314.48 348.86 315.04 350.05 311.03 351.41 309.37 354.53 306.45 355.39 305.27 355.52 303.77 353.92 300.19 352.85 298.96 350.65 297.33 349.43 295.8 349.89 293.93 350.67 292.55 353.34 290.2 355.22 288.85 360.49 284.55 363.21 282.78 365.74 280.16 367.57 278.7 370.93 274.78 373.16 272.53 374.16 271.17 376.02 266.59 376.5 264.58 376.43 262.41 376.8 260.89 374.57 260.89 374.36 259.12 375.15 257.07 374.76 256.27 374.85 254.46 376.46 251.78 376.61 250.56 376.03 249.02 374.45 246.52 375.27 244.3 377.02 243.67 377.93 241.01 378.7 241.76 379.88 242.03 381.38 243.72 382.3 243.93 382.51 244.95 383.78 246.62 385 246.75 387.68 248.38 386.71 249.39 387.4 249.92 388.52 249.57 390.7 250.57 391.36 252.66 391.53 254.39 393.66 258.03 395.19 259.64 397.44 260.79 400.02 263.17 401.53 265.47 403.32 267.31 404.46 267.68 407.75 267.53 410.39 265.79 411.41 266.77 411.46 267.81 413.2 270.46 413.35 272.24 412.23 275.13 413.48 278.18 414.6 278.69 414.54 279.98 415.15 280.98 415.99 281.03 417.24 282.65 419.23 282.7 421.85 283.22 422.32 284.05 424.58 286.55 423.46 287.22 423.6 288.99 424.4 292.12 424.11 292.91 422.85 293.86 422.61 296.3 421.95 297.98 422.07 300.07 423.17 301.33 423.1 302.88 424.27 304.26 Z" id="32520110"/>
<path d="M 560.67 292.77 558.53 293.2 558.98 296.26 557.38 298.4 558.59 301.15 557.79 302.86 558.58 303.07 558.87 304.14 557.72 304.48 557.72 305.32 558.55 306.42 558.05 308.35 558.72 310.01 562.61 313.06 562.61 314.41 563.34 314.64 565.11 317.09 568.12 319.4 569.33 319.46 569.76 320.46 569.03 322.33 569.9 324.45 569.14 326.42 568.91 328.03 570.35 329.17 570.57 330.34 572.81 333.15 574.87 333.59 577.6 334.98 577.97 336.06 580.01 337.2 580.1 338.5 580.97 341.8 582.73 343.52 583.12 345.62 584.94 348.45 586.18 349.15 586.91 348.93 587.71 350.6 587.66 353.47 589.71 355.39 590.07 357.11 591.6 358.58 592.43 360.25 591.66 360.89 591.26 362.18 589.57 364.16 588.53 366.47 586.67 367.76 584.88 368.61 584.3 369.39 584.5 370.39 582.09 373.41 580.32 374.07 579.91 374.67 578.77 375.48 577.42 374.78 575.89 374.55 575.01 373.14 573.72 373.49 572.77 373.01 572.49 371.99 570.71 369.56 569.96 369.1 569.17 370.03 567.5 370.99 567.7 371.91 565.15 373.69 564.55 374.54 563.28 374.72 563.35 376.39 563.94 377.05 562.95 379.27 562.04 379.1 559.58 381.69 558.33 381.13 555.53 380.59 554.7 379.8 553.18 380.12 551.93 379.73 550.4 378.45 549.53 379.13 549.47 382.63 549.81 384.24 549.25 385.8 550.07 389.13 549.02 389.48 546.26 389.65 543.46 388.66 541.85 387.39 540.18 387.61 536.99 387.63 535.21 386.01 533.63 385.8 532.79 387.06 532.27 388.62 533.86 389.95 535.06 392.34 534.64 393.89 533.74 394.74 533.73 396.96 535.16 399.17 535.43 400.59 538.58 402.65 540.42 404.38 542.23 406.74 544.14 408.26 545.67 407.5 546.72 408.19 548.31 407.82 548.36 408.78 549.19 409.72 550.22 409.79 550.58 410.89 551.85 410.23 553.08 411.25 554.28 411.32 554.09 412.3 555.38 414.54 556.83 415.37 557.64 415.12 559.09 416.11 561.74 416.35 563.08 417.2 563.6 418.37 562.68 422.59 561.89 423.63 562.23 425.17 561.46 426.4 562.86 427.4 562.88 430.2 563.49 433.09 564.03 433.55 563.62 436.74 564.4 437.95 564.31 438.99 563.54 439.76 562.53 439.88 560.71 440.83 561.06 442.1 560.49 443.77 559.62 444.65 559.75 446.42 558.89 446.72 557.08 450.11 555.37 450.45 554.73 451.03 551.03 452.04 548.14 454.72 547.93 455.94 547.04 457.61 545.68 458.09 545.38 459.98 543.96 461.12 543.13 461.08 542.11 462.08 542.55 464.72 542.3 465.45 541.08 466.27 540.35 467.67 538.86 468.87 537.66 469.33 537.96 471.53 538.79 472.78 538.13 474.32 540.24 477.03 540.35 479.14 539.92 479.89 540.74 481.69 539.41 482.06 538.18 483.63 536.14 484.88 534.13 485.33 533.23 485.07 531.27 485.93 530.44 485.56 528.35 485.69 527.61 487.13 525.42 487.33 524.59 487.98 524.2 489.68 524.41 490.72 523.65 491.8 523.47 492.98 524.45 494.41 525.79 494.96 526.17 496.4 525.73 497.41 526.35 499.6 525.28 503.55 523.81 506.42 521.16 507.1 520.5 507.72 517.41 509.34 516.39 509.38 512.96 506.14 511.39 505.69 510.79 506.45 508.09 507.68 505.86 507.48 505.36 508 503.92 507.54 501.24 508.27 500.47 507.46 499.91 504.19 498.75 502.52 498.35 500.32 495.21 500.18 493.49 499.22 492.45 498.24 491.26 497.85 487.26 492.96 486.45 489.09 484.97 486.96 483.78 482.64 483.18 481.15 483.64 480.42 483.36 478.71 482.36 477.19 480.21 475.34 480.6 470.07 478.32 469.72 476.89 469.06 473.45 466.12 472.66 466.32 471.27 464.81 469.17 463.86 467.36 464.04 467 463.18 464.86 462.42 463.87 462.96 461.27 462.67 460.39 461.06 457.82 459.12 456.58 457.71 456.29 456.84 454.01 455.61 453.52 455.04 451.19 453.77 449.79 453.43 447.84 453.68 448.18 451.65 446.77 450.3 448.14 447.4 448.52 445.15 447.66 442.63 446.24 442 446.24 440.64 443.35 440.21 444.24 437.63 442.93 436.49 442.03 436.63 440.69 438.05 439.69 437.7 435.85 439.84 435.38 439.2 426.29 440.5 425.53 438.83 422.14 439.46 421.1 440.18 419.09 440.11 417.34 439.15 417.76 436.5 415.78 435.22 415.04 435.09 412.6 433.15 411.09 431.53 412.2 429.95 413.36 428.93 415.49 428.23 416.25 426.21 416.04 424.66 417.74 420.95 418.13 419.26 418.94 419.01 420.12 414.58 418.9 414.03 418.18 412.56 418.28 411.14 417.07 409.12 415.57 408 415.46 406.8 413.44 405.62 413.21 402.6 410.57 400.82 411.42 399.46 410.97 399.06 411.64 396.65 410.83 395.06 411.46 393.67 410.82 392.55 410.53 389.56 409.45 388.32 408.55 388.18 408.28 387.12 407.4 386.14 406.44 386.46 404.77 384.46 405.57 382.32 407.14 379.55 407.45 377.42 408.11 375.93 407.63 374.7 408.65 372.88 410.18 372.71 410.96 370.57 412.04 369.05 413.69 367.41 413.03 366.08 413.36 364.27 412.63 361.95 415.37 360.5 415.68 361.54 417.5 362.83 420.29 363.47 421.77 363.04 422.68 362.24 422.14 360.98 422.48 359.12 421.43 357.38 422.24 356 421.81 355.37 422.25 353.61 422.02 352.17 420.6 352.03 419.88 350.15 419.92 348.99 420.87 348.41 420.82 346.92 419.92 344.4 420.52 342.66 422.36 341.63 423.54 340.48 423.57 339.14 424.61 337.59 425.39 335.1 424.21 333.11 424.53 332.13 423.77 329.22 424.46 326.61 424.87 322.85 425.79 321.18 425.26 320.59 425.25 318.68 424.59 316.28 424.97 314.98 423.87 313.22 422.53 313.33 421.8 312.72 422.03 311.6 421.6 310.08 421.65 307.78 422.65 307.07 422.84 306.23 424.27 304.26 425.77 303.33 428.69 299.83 428.43 298.57 429.41 297.94 431.06 298.18 432.36 299.36 433.82 299.89 434.64 298.97 436.38 298.92 437.8 297.41 440.01 298.32 441.75 296.42 444.31 295.28 444.97 297.69 446.16 298.21 446.73 296.93 448.44 295.6 449.71 295.96 451.13 297.47 453.46 297.56 455.73 296.94 458.37 296.98 458.84 297.55 460.98 298.13 461.55 298.83 460.99 301.61 461.29 303.18 462 303.91 464.71 304.87 465.82 304.27 467.78 302.06 469.52 301.48 470.5 300.37 470.96 298.2 470.71 297.23 471.34 295.71 473.14 293.53 473.27 291.94 472.66 288.39 473.69 287.19 476.04 287.38 476.81 286.66 479.08 288.39 479.8 289.38 480.95 289.32 481.58 290.13 483.45 290.67 483.37 292.99 483.65 293.75 485.84 294.66 486.89 296.57 487.4 298.21 490.14 297.72 491.87 296.38 493.41 296.64 494.77 295.97 495.04 295.12 499.63 293.47 501.88 294 503.46 293.88 505.19 294.63 507.54 293.94 508.44 293.31 509.84 293.55 510.34 290.51 512.61 289.68 513.28 288.22 513.09 285.04 515.83 285.59 516.48 283.68 518.87 283.02 519.23 281.34 518.7 278.2 518.82 275.87 522.27 276.18 523.44 277.28 526.26 279.1 528.54 279.75 529.68 282.18 531.6 282.51 533 282.41 535.36 280.84 535.92 279.92 538.6 277.1 539.23 274.93 542.71 276.3 544.58 277.98 545.74 278.42 546.38 277.95 549.33 277.91 550.23 278.65 552.08 279.02 552.39 280.58 553.23 281.06 553.45 282.85 554.44 283.21 555.59 282.61 556.89 282.76 556.78 283.7 557.44 284.98 559.45 286.08 562.53 287.26 562.82 287.86 561.37 289.9 560.67 292.77 Z" id="32520310"/>
<path d="M 579.91 374.67 580.53 376.45 580.63 378.32 582.31 379.76 582.43 381.54 581.73 382.23 581.64 383.34 580.87 384.33 580.67 385.63 581.36 387.59 583.47 386.44 585.92 386.35 586.76 387.81 588.35 388.2 589.38 387.1 589.26 384.8 590.79 384.2 591.05 383.5 592.38 383.59 593.6 382.74 594.37 383.44 597.07 384.53 597.86 385.39 598.9 385.04 598.43 383.32 598.78 382.06 600.31 380.45 601.24 378.96 601.26 378.07 602.89 377.86 603.85 376.81 606.89 375.56 608.78 376.14 609.09 376.79 610.76 377 611.62 377.67 612.72 377.4 614.53 378.17 615.42 379.61 616.17 381.84 617.55 383.11 618.87 382.96 619.48 383.63 619.89 385.74 621.09 386.43 621.48 387.75 622.65 387.99 624.57 390.01 624.37 391.97 622.14 392.47 621.92 393.48 622.71 395.78 621.64 397.03 621.96 398.38 621.9 400.23 623.02 402.74 623.24 403.81 622.59 404.48 622.96 407.29 622.47 410.17 622.16 410.55 623.59 412.84 623.75 413.77 625.59 413.68 627.53 414.39 629.15 414.36 630.75 415.47 631.87 415.62 633.83 417.58 636.49 419.05 637.31 420.21 639.24 421.44 641.91 424.1 645.83 425.2 647.74 426.37 651.06 426.35 652.61 427.34 653.53 426.68 655.27 426.21 657.47 426.35 658.09 425.22 659.79 425.04 660.5 423.21 665.33 421.34 666.06 421.71 669.58 422.25 670.83 421.54 672.29 420.11 673.83 420.09 674.19 419.03 676.7 417.02 677.12 417.76 678.95 418.14 679.64 419 681.87 417.71 683.75 417.86 685.12 418.51 685.98 417.73 688.3 416.56 690.65 417.44 692.27 419.13 695.12 418.98 696.63 420.05 698.63 420.08 702.7 419.45 705.28 419.47 708.9 415.43 709.03 414.89 712.48 416.18 714.93 416.19 716.41 415.78 716.74 416.84 718.4 418.13 717.48 420.95 718.17 422.28 718.33 423.76 719.15 426.39 719.5 429.73 718.87 431.53 719.33 432.9 720.07 433.44 720.42 436.1 721.19 438.26 721.02 438.85 722.98 441 726.43 440.84 727.36 440.42 730.77 441.17 734.7 443.72 735.93 445.14 735.17 450.56 734.6 451.92 734.34 453.7 733.55 454.38 733.39 456.42 734.04 457.58 733.57 460.32 733.9 461.64 732.34 461.83 731.19 463.14 730.83 464.69 732.21 466.88 733.35 467.84 735.06 470.99 736.51 471.87 737.16 473.41 736.51 476.26 737.77 478.95 738.63 485.05 740.85 486.05 741.59 488.69 742.37 490.27 743.7 492.16 744.54 494.63 746.2 496 747.15 498.34 747.42 500.07 748.1 500.51 746.54 501.44 745.44 502.91 744.12 503.03 740.87 504.23 739.63 505.62 737.88 508.93 737.74 510 736.66 512.97 736.92 517.34 736.22 519.79 734.64 522.28 734.33 524.08 731.93 527.38 731.24 528.82 729.3 528.31 728.05 528.43 726.6 527.7 723.62 528.13 722.64 526.79 721.42 525.97 717.78 524.61 716.92 525.27 715.62 527.07 714.48 529.16 713.34 530.62 712.32 532.66 708.73 536.35 705.41 538.96 703.54 538.02 702.39 536.51 700.16 535.55 695.16 535.86 693.9 535.2 691.12 532.72 689.18 530.73 686.23 529.23 684.72 528.92 683.42 527.87 681.87 527.7 675.19 530.26 672.52 530.3 671.46 528.35 667.39 526.97 663.87 526.48 658.69 528.96 657.42 530.44 656.1 530.91 654.34 533.28 652.91 534.04 647.67 534.16 642.37 535.39 641.71 535.86 640.55 533.84 637.6 533.65 635.8 533.22 633.44 530.87 631.45 531.2 630.72 530.84 629.72 531.67 629.66 534.46 628.72 535.92 626.58 536.86 625.89 538.54 622.61 540.59 622.47 542.04 621.57 543.88 622.46 547.11 623.1 548.45 622.87 549.24 624.48 551.23 623.79 552.86 623.17 553.07 622.21 554.27 621.27 554.38 620.78 555.3 618.7 555.69 616.24 558.33 613.67 558.05 612.41 559.39 609.61 559.14 607.09 559.2 606.29 558.84 604.88 560.86 602.79 561.31 601.9 560.72 600.91 557.05 599.83 556.69 599.24 555.56 597.49 554.69 595.07 552.79 593.95 550.54 590.82 547.8 588.77 548.88 586.94 549.16 582.45 548.01 579.06 549.64 576.6 551.25 575.96 551.21 573.73 552.21 572.98 552.22 571.5 550.47 569.33 550.72 566.55 551.84 565.2 553.01 563.43 550.63 562.2 549.73 560.36 549.8 558.54 547.55 557.31 546.49 556.85 545.44 555.43 544.88 553.24 541.97 551.81 541.79 550.46 540 549.75 538.49 549.44 536.58 548.7 535.83 545.53 535.9 544.1 535 542.92 533.66 541.96 533.31 540.33 532.04 538.74 533.43 538.19 534.85 536.8 536.16 535.06 537.27 533.2 536.88 532.53 535.62 531.02 534.88 527.64 533.8 525.61 534.48 521.84 533.84 521.52 534.48 519.11 533.39 517.15 531.48 515.32 529.32 513.99 529 513.27 529.47 511.66 528.66 511.4 528.05 508.54 525.96 507.92 524.25 506.65 522.88 506.14 521.36 504.92 519.5 504.32 517.22 504.3 514.86 503.56 513.52 502.25 512.18 501.73 511.14 501.24 508.27 503.92 507.54 505.36 508 505.86 507.48 508.09 507.68 510.79 506.45 511.39 505.69 512.96 506.14 516.39 509.38 517.41 509.34 520.5 507.72 521.16 507.1 523.81 506.42 525.28 503.55 526.35 499.6 525.73 497.41 526.17 496.4 525.79 494.96 524.45 494.41 523.47 492.98 523.65 491.8 524.41 490.72 524.2 489.68 524.59 487.98 525.42 487.33 527.61 487.13 528.35 485.69 530.44 485.56 531.27 485.93 533.23 485.07 534.13 485.33 536.14 484.88 538.18 483.63 539.41 482.06 540.74 481.69 539.92 479.89 540.35 479.14 540.24 477.03 538.13 474.32 538.79 472.78 537.96 471.53 537.66 469.33 538.86 468.87 540.35 467.67 541.08 466.27 542.3 465.45 542.55 464.72 542.11 462.08 543.13 461.08 543.96 461.12 545.38 459.98 545.68 458.09 547.04 457.61 547.93 455.94 548.14 454.72 551.03 452.04 554.73 451.03 555.37 450.45 557.08 450.11 558.89 446.72 559.75 446.42 559.62 444.65 560.49 443.77 561.06 442.1 560.71 440.83 562.53 439.88 563.54 439.76 564.31 438.99 564.4 437.95 563.62 436.74 564.03 433.55 563.49 433.09 562.88 430.2 562.86 427.4 561.46 426.4 562.23 425.17 561.89 423.63 562.68 422.59 563.6 418.37 563.08 417.2 561.74 416.35 559.09 416.11 557.64 415.12 556.83 415.37 555.38 414.54 554.09 412.3 554.28 411.32 553.08 411.25 551.85 410.23 550.58 410.89 550.22 409.79 549.19 409.72 548.36 408.78 548.31 407.82 546.72 408.19 545.67 407.5 544.14 408.26 542.23 406.74 540.42 404.38 538.58 402.65 535.43 400.59 535.16 399.17 533.73 396.96 533.74 394.74 534.64 393.89 535.06 392.34 533.86 389.95 532.27 388.62 532.79 387.06 533.63 385.8 535.21 386.01 536.99 387.63 540.18 387.61 541.85 387.39 543.46 388.66 546.26 389.65 549.02 389.48 550.07 389.13 549.25 385.8 549.81 384.24 549.47 382.63 549.53 379.13 550.4 378.45 551.93 379.73 553.18 380.12 554.7 379.8 555.53 380.59 558.33 381.13 559.58 381.69 562.04 379.1 562.95 379.27 563.94 377.05 563.35 376.39 563.28 374.72 564.55 374.54 565.15 373.69 567.7 371.91 567.5 370.99 569.17 370.03 569.96 369.1 570.71 369.56 572.49 371.99 572.77 373.01 573.72 373.49 575.01 373.14 575.89 374.55 577.42 374.78 578.77 375.48 579.91 374.67 Z" id="32520320"/>
<path d="M 725.63 96.31 726.78 97.16 729.25 97.74 731.84 99.74 736.34 99.72 738.08 100.36 739.55 100.44 742.79 101.24 744.63 102.28 745.69 102.5 748.05 104.14 753.27 107.12 756.06 108.08 761.23 109.26 762.29 109.27 765.6 108.62 766.63 108.78 768.63 108.31 769.59 111.24 768.77 113.23 765.53 118.06 764.37 119.26 763.54 124.35 763.91 126.01 763.5 126.89 764.88 129.24 765.74 136.34 768.01 137.89 769.74 138.62 772.07 140.26 773.44 142.79 771.35 145.4 768.46 146.71 766.86 148.53 764.88 149.04 763.31 154.46 764.16 157.93 763.85 161.39 764.71 162.48 767.48 171.3 770.11 172.72 772.05 173.22 772.01 175.43 773.08 177.12 772.99 177.98 771.17 183.51 771.59 186.34 772.83 188.19 775.73 189.02 781.37 195.87 781.97 198.67 783.57 201.36 787.41 203.69 786.08 204.98 787.4 209.55 787.86 210.19 787.4 213.92 788.04 215.14 788.06 218.26 788.32 221.38 788.75 223.68 790.61 226.35 792.08 229.13 791.13 231.17 789.43 232.95 789.91 234.57 789.14 236.89 787.53 237.72 788.34 238.75 787.69 242.84 787.08 244.42 786.49 247.68 787.14 249.58 791.06 254.05 793.62 255.8 795.92 258.37 799 260.51 798.09 262.16 796.13 264.63 795.14 267.15 795.89 268.16 795.91 269.39 798.4 271.74 798.79 274.54 797.77 276.43 797.61 280.17 797.23 284.33 797.23 286.16 795.98 288.29 794.28 289.54 793.51 293.96 791.93 295.28 790.76 297.8 790.83 299.38 791.63 301.13 792.07 304.95 793.04 307.59 792.44 308.93 790.97 309.19 788.3 308.96 786.19 309.61 783.09 310.11 782.63 311.68 781.27 312.95 781.82 317.24 781.47 317.96 779.86 318.31 778.78 317.9 775.43 317.99 773.85 321.03 772.33 322.28 771.32 323.8 769.67 323.46 767.25 325.36 765.19 326.37 762.45 326.51 763.3 328.1 762.03 329.32 759.76 334.08 759.6 335.67 757.3 335.52 756.12 337.9 755.26 338.44 755.75 339.63 754.61 339.89 752.76 342.33 752.7 343.34 751.25 344.79 750.35 344.99 749.74 346.87 750.22 349.53 749.58 350.09 748.52 352.14 748.36 354.77 747.89 355.78 746.76 356.02 745.28 356.99 745.28 358.33 743.82 359.81 742.1 359.61 738.29 360.81 736.34 362.08 735.4 361.98 731.39 365.09 727.7 366.36 727.27 366.14 724.63 366.74 723.61 366.56 722.15 367.31 719.01 367.47 716.3 368.56 715.41 368.2 714.14 368.78 714.88 372.54 716.17 373.43 715.74 378.97 716.26 380.07 716.11 381.08 716.33 384.1 715.96 386.52 715.94 389.32 714.32 390.28 715.84 391.39 716.61 392.58 717.97 393.18 718.96 394.15 718.41 399.6 718.93 400.69 718.72 401.8 718.93 404.7 717.9 409.29 716.78 410.86 716.59 413.28 716.86 414.45 716.41 415.78 714.93 416.19 712.48 416.18 709.03 414.89 708.9 415.43 705.28 419.47 702.7 419.45 698.63 420.08 696.63 420.05 695.12 418.98 692.27 419.13 690.65 417.44 688.3 416.56 685.98 417.73 685.12 418.51 683.75 417.86 681.87 417.71 679.64 419 678.95 418.14 677.12 417.76 676.7 417.02 674.19 419.03 673.83 420.09 672.29 420.11 670.83 421.54 669.58 422.25 666.06 421.71 665.33 421.34 660.5 423.21 659.79 425.04 658.09 425.22 657.47 426.35 655.27 426.21 653.53 426.68 652.61 427.34 651.06 426.35 647.74 426.37 645.83 425.2 641.91 424.1 639.24 421.44 637.31 420.21 636.49 419.05 633.83 417.58 631.87 415.62 630.75 415.47 629.15 414.36 627.53 414.39 625.59 413.68 623.75 413.77 623.59 412.84 622.16 410.55 622.47 410.17 622.96 407.29 622.59 404.48 623.24 403.81 623.02 402.74 621.9 400.23 621.96 398.38 621.64 397.03 622.71 395.78 621.92 393.48 622.14 392.47 624.37 391.97 624.57 390.01 622.65 387.99 621.48 387.75 621.09 386.43 619.89 385.74 619.48 383.63 618.87 382.96 617.55 383.11 616.17 381.84 615.42 379.61 614.53 378.17 612.72 377.4 611.62 377.67 610.76 377 609.09 376.79 608.78 376.14 606.89 375.56 603.85 376.81 602.89 377.86 601.26 378.07 601.24 378.96 600.31 380.45 598.78 382.06 598.43 383.32 598.9 385.04 597.86 385.39 597.07 384.53 594.37 383.44 593.6 382.74 592.38 383.59 591.05 383.5 590.79 384.2 589.26 384.8 589.38 387.1 588.35 388.2 586.76 387.81 585.92 386.35 583.47 386.44 581.36 387.59 580.67 385.63 580.87 384.33 581.64 383.34 581.73 382.23 582.43 381.54 582.31 379.76 580.63 378.32 580.53 376.45 579.91 374.67 580.32 374.07 582.09 373.41 584.5 370.39 584.3 369.39 584.88 368.61 586.67 367.76 588.53 366.47 589.57 364.16 591.26 362.18 591.66 360.89 592.43 360.25 591.6 358.58 590.07 357.11 589.71 355.39 587.66 353.47 587.71 350.6 586.91 348.93 586.18 349.15 584.94 348.45 583.12 345.62 582.73 343.52 580.97 341.8 580.1 338.5 580.01 337.2 577.97 336.06 577.6 334.98 574.87 333.59 572.81 333.15 570.57 330.34 570.35 329.17 568.91 328.03 569.14 326.42 569.9 324.45 569.03 322.33 569.76 320.46 569.33 319.46 568.12 319.4 565.11 317.09 563.34 314.64 562.61 314.41 562.61 313.06 558.72 310.01 558.05 308.35 558.55 306.42 557.72 305.32 557.72 304.48 558.87 304.14 558.58 303.07 557.79 302.86 558.59 301.15 557.38 298.4 558.98 296.26 558.53 293.2 560.67 292.77 560.59 295.25 562.2 296.44 563.04 298.14 563.03 299.45 563.73 302.37 565.3 304 567.8 305.09 568.7 306.86 569.51 307.49 571.36 307.54 572.31 306.72 573.06 304.21 574.4 304.67 575.59 306.05 575.8 306.93 576.75 307.33 576.75 309.44 578.01 311.12 580.53 312.31 581.34 313.35 583 313.67 585.13 312.98 586.5 313 586.72 313.91 587.65 314.5 589.19 313.76 589.07 316.37 590.4 315.48 591.6 315.49 593.2 317.1 593.72 316.54 595.37 316.66 597.6 316.18 601.39 318.74 602.29 318.66 603.72 320.02 604.89 321.7 606.65 321.95 607.21 320.35 608.4 320.55 610.64 318.44 611.57 319.3 613.21 318.62 613.96 317.84 615.11 319.69 616.23 320.32 618.73 319.18 624.04 319.49 625.38 319.78 626.99 318.08 626.94 314.33 627.45 313.64 627.46 310.99 629.64 309.24 630.54 309.06 631.75 307.2 633.04 306.48 634.46 304.13 636.54 302.66 638.72 300.42 639.78 299.84 640.96 297.64 640.6 295.15 641.31 294.05 641.33 293.03 640.43 292.42 640.64 291.48 638.69 289.98 637.95 290 636.45 289.11 636.57 287.55 635.31 286.67 635.59 284.28 635.17 283.2 635.11 281.35 636.14 279.72 636.16 277.9 637.03 276.56 636.25 274.68 636.44 272.58 637.7 271.6 638.9 272.06 640.95 271.42 642.65 270.29 644.56 269.93 645.72 268.96 645.84 267.66 647.73 265.9 648.53 262.5 650.02 261.68 651.05 261.67 652.28 259.99 653.4 259.82 654.01 258.82 656.77 259.08 658.26 258.27 659.47 256.75 659.54 255.77 660.33 254.25 663.03 253.35 662.71 252.27 661.69 252.55 660.98 251.85 661.05 250.36 660.24 248.99 660.62 248.06 660.63 246.23 661.21 245.04 661.05 243.25 659.53 242.44 659.02 241.07 659.84 238.86 661.72 237.96 662 236.74 664.1 237.15 665.9 236.1 666.73 234.86 667.36 232.53 668.55 231.4 668.92 229.98 671.62 230.74 672.03 228.38 671.83 224.31 673.1 221.59 674.17 220.74 673.61 219.98 674.5 216.93 674.47 215.34 674.98 214.71 674.77 211.74 675.71 208.32 676.99 207.21 678.23 206.74 678.6 204.42 679.62 202.31 680.74 201.35 681.92 201.12 684.15 202.09 685.24 202.17 687.53 201.07 687.58 201.82 689.24 201.81 689.63 199.89 690.5 198.19 689.85 197.48 690.94 195.42 690.94 192.73 692.31 192.11 692.9 190.26 691.52 188.68 692.15 187.66 692.37 184.24 693.39 183.94 693.36 181.66 694.99 180.25 696.07 179.97 697.29 180.45 699.36 180.14 702 179.36 702.86 180.92 704.31 181.11 705.18 180.23 706.4 180.96 708.6 180.6 709.69 180.01 710.72 180.82 711.28 181.99 714.79 181.09 715.98 180.96 718.43 179.88 720.57 180.45 720.96 180.9 722.59 180.89 723.88 180.1 726.1 178.1 728.69 176.41 730.05 176.31 731.51 175.2 732.65 172.49 732.4 168.13 731.58 167.28 730.04 164.01 727.94 162.13 725.63 160.4 724.83 158.21 722.79 155.49 721.97 155.63 719.18 157.03 716.84 159.64 715.35 160.47 714.21 160.17 711.02 160.32 710.49 158.22 710.73 157.26 712.67 155.24 712.91 154.43 714.44 154 715.8 151.87 718.23 150.09 718.64 149.26 718.58 147.11 719.28 146.68 720.13 145.22 720.11 144.16 721.4 142.03 724.65 140.59 725.25 139.14 724.94 137.85 725.57 136.79 725.83 134.51 726.53 132.85 726.3 130.15 727.4 128.03 727.53 126.75 728.45 124.81 729.18 124.58 728.9 122.78 729.93 119.54 730.08 116.65 728.45 110.24 729.35 107.17 727.99 104.7 727.97 103.72 725.6 98.28 725.6 96.33 725.63 96.31 Z" id="32520330"/>
<path d="M 501.93 57.03 503.99 59 506.81 63.48 507.35 64.98 506.02 66.05 504.86 68.03 503.21 68.88 502.82 70.97 501.47 72.2 501.36 74.37 499.69 75.61 498.82 80.51 499.15 82.39 498.14 83.7 498.42 85.99 497.64 89 497.66 91.09 497.14 94.1 495.26 96.3 495.42 97.97 497.04 99.53 498.22 101.09 500.75 102.16 501.38 103.48 503.2 105.05 506.48 106.31 507.72 107.77 509.49 108.49 510.56 109.48 513.45 110.54 517.15 110.99 517.47 112.51 519.09 112.99 522.45 115.31 524.69 117.25 522.76 120.52 522.8 122.67 521.67 123.5 521.31 124.67 521.43 127.36 521.84 129.16 521.72 131.04 520.83 131.95 520.85 135.09 522.29 136.91 524.29 141.02 525.93 142.03 528.5 146.8 528.3 148.33 528.87 151.08 529.62 151.91 529.5 153.99 530.04 155.28 528.35 156.02 525.74 157.54 523.14 158.33 521.32 159.14 521.61 161.54 521.01 163.43 521.57 164.64 520.98 168.32 519.51 169.68 519.3 170.59 517.93 171.07 517.18 172.39 519.73 176.17 520.05 177.93 519.81 179.36 518.04 181.08 518.12 183.22 518.78 185.09 519.61 186.18 521.28 190.21 520.86 192.25 521.2 194.08 520.31 194.78 520.74 196.43 520.6 197.72 521.98 198.93 525.84 200.63 526.77 202.41 526.46 203.85 528.48 205.38 531.62 204.45 532.16 205.77 533.07 206.16 533.62 207.31 532.86 208.64 534.03 212.15 533.6 214.7 534.43 217.12 537.45 219.3 538.85 221.68 539.21 223.17 540.41 223.77 541.11 225.08 543.58 226.08 544.98 225.8 545.42 226.4 545.83 228.47 549.14 231.09 549.83 230.49 552.41 230.89 553.54 231.9 554.1 231.61 554.74 233.99 556.47 235.59 559.08 234.91 559.04 232.84 560.66 229.36 562.1 229.53 564.37 228.52 564.01 226.75 564.52 225.37 566.1 224.71 565.57 223.39 566.86 222.34 567.22 221.49 568.93 220.06 568.75 218.85 569.26 217.09 570.72 216.66 572.41 216.98 573.81 218.97 574.99 219.09 577.68 221.8 578.58 224.34 580.29 225.29 582.3 225.63 582.88 226.23 582.67 228.59 583.19 229.52 584.19 229.32 587.14 229.91 589.15 231.32 590.22 233.92 592.29 233.81 594.02 235.73 596.01 236.32 597.71 236.24 598.98 241.06 601.32 242.46 601.88 243.15 602.21 245.59 604.78 247.84 607.41 247.51 608.23 248.25 609.89 251.09 612.72 253.27 614.8 256.72 615.98 256.34 619.61 258.43 621.68 258.67 622.17 259.83 623.85 260.24 624.39 259.24 626.03 259.56 627.97 259.19 628.94 259.58 629.67 261.29 631.21 261.92 631.97 263.36 632.83 262.89 634.3 263.12 634.87 264.02 635.9 263.8 638.22 265.89 639.06 266.26 638.24 268.21 637.7 271.6 636.44 272.58 636.25 274.68 637.03 276.56 636.16 277.9 636.14 279.72 635.11 281.35 635.17 283.2 635.59 284.28 635.31 286.67 636.57 287.55 636.45 289.11 637.95 290 638.69 289.98 640.64 291.48 640.43 292.42 641.33 293.03 641.31 294.05 640.6 295.15 640.96 297.64 639.78 299.84 638.72 300.42 636.54 302.66 634.46 304.13 633.04 306.48 631.75 307.2 630.54 309.06 629.64 309.24 627.46 310.99 627.45 313.64 626.94 314.33 626.99 318.08 625.38 319.78 624.04 319.49 618.73 319.18 616.23 320.32 615.11 319.69 613.96 317.84 613.21 318.62 611.57 319.3 610.64 318.44 608.4 320.55 607.21 320.35 606.65 321.95 604.89 321.7 603.72 320.02 602.29 318.66 601.39 318.74 597.6 316.18 595.37 316.66 593.72 316.54 593.2 317.1 591.6 315.49 590.4 315.48 589.07 316.37 589.19 313.76 587.65 314.5 586.72 313.91 586.5 313 585.13 312.98 583 313.67 581.34 313.35 580.53 312.31 578.01 311.12 576.75 309.44 576.75 307.33 575.8 306.93 575.59 306.05 574.4 304.67 573.06 304.21 572.31 306.72 571.36 307.54 569.51 307.49 568.7 306.86 567.8 305.09 565.3 304 563.73 302.37 563.03 299.45 563.04 298.14 562.2 296.44 560.59 295.25 560.67 292.77 561.37 289.9 562.82 287.86 562.53 287.26 559.45 286.08 557.44 284.98 556.78 283.7 556.89 282.76 555.59 282.61 554.44 283.21 553.45 282.85 553.23 281.06 552.39 280.58 552.08 279.02 550.23 278.65 549.33 277.91 546.38 277.95 545.74 278.42 544.58 277.98 542.71 276.3 539.23 274.93 538.6 277.1 535.92 279.92 535.36 280.84 533 282.41 531.6 282.51 529.68 282.18 528.54 279.75 526.26 279.1 523.44 277.28 522.27 276.18 518.82 275.87 518.7 278.2 519.23 281.34 518.87 283.02 516.48 283.68 515.83 285.59 513.09 285.04 513.28 288.22 512.61 289.68 510.34 290.51 509.84 293.55 508.44 293.31 507.54 293.94 505.19 294.63 503.46 293.88 501.88 294 499.63 293.47 495.04 295.12 494.77 295.97 493.41 296.64 491.87 296.38 490.14 297.72 487.4 298.21 486.89 296.57 485.84 294.66 483.65 293.75 483.37 292.99 483.45 290.67 481.58 290.13 480.95 289.32 479.8 289.38 479.08 288.39 476.81 286.66 476.04 287.38 473.69 287.19 472.66 288.39 473.27 291.94 473.14 293.53 471.34 295.71 470.71 297.23 470.96 298.2 470.5 300.37 469.52 301.48 467.78 302.06 465.82 304.27 464.71 304.87 462 303.91 461.29 303.18 460.99 301.61 461.55 298.83 460.98 298.13 458.84 297.55 458.37 296.98 455.73 296.94 453.46 297.56 451.13 297.47 449.71 295.96 448.44 295.6 446.73 296.93 446.16 298.21 444.97 297.69 444.31 295.28 441.75 296.42 440.01 298.32 437.8 297.41 436.38 298.92 434.64 298.97 433.82 299.89 432.36 299.36 431.06 298.18 429.41 297.94 428.43 298.57 428.69 299.83 425.77 303.33 424.27 304.26 423.1 302.88 423.17 301.33 422.07 300.07 421.95 297.98 422.61 296.3 422.85 293.86 424.11 292.91 424.4 292.12 423.6 288.99 423.46 287.22 424.58 286.55 422.32 284.05 421.85 283.22 419.23 282.7 417.24 282.65 415.99 281.03 415.15 280.98 414.54 279.98 414.6 278.69 413.48 278.18 412.23 275.13 413.35 272.24 413.2 270.46 411.46 267.81 411.41 266.77 410.39 265.79 407.75 267.53 404.46 267.68 403.32 267.31 401.53 265.47 400.02 263.17 397.44 260.79 395.19 259.64 393.66 258.03 391.53 254.39 391.36 252.66 390.7 250.57 388.52 249.57 387.4 249.92 386.71 249.39 387.68 248.38 385 246.75 383.78 246.62 382.51 244.95 382.3 243.93 381.38 243.72 379.88 242.03 378.7 241.76 377.93 241.01 377.21 238.48 376.42 237.98 374.84 238.04 374.4 237.1 375.13 236.26 374.75 234.65 372.34 231.58 370.84 231.26 370.38 229.34 370.84 227.87 370.16 226.71 370.94 225.98 371 224.91 372.01 225.01 373.11 224.06 375.01 223.49 373.46 220.76 373.98 216.6 373.26 215.75 373.58 214.02 374.56 212.69 374.79 210.31 377.07 209.11 377.79 207.21 376.9 204.94 378.71 202.32 379.06 198.39 380.29 197.92 381.32 196.91 383.38 197.08 384.46 196.26 385.46 194.73 385.14 192.65 385.21 191.06 385.93 189.67 385.65 188.88 386.79 187.19 388.34 187.07 390.96 185.91 391.23 184.79 391.02 183.24 391.86 182.79 393.23 179.75 394.08 178.41 393.34 177.2 391.8 176.21 390.64 175.01 389.88 173.51 388.61 173.14 388.34 171.52 386.86 171.09 387.04 169.94 388.25 167.91 388.61 165.82 387.73 164.59 389.63 161.21 391.61 161.96 392.82 160.89 395.75 160.1 396.62 159.47 398.08 157.13 398.51 154.18 399.25 152.81 398.91 151.87 399.62 149.42 400.67 146.69 401.74 146.26 403.48 141.58 403.72 139.56 405.2 138.41 406.32 138.54 408.24 137.91 408.65 136.14 407.3 134.5 407.87 130.82 409.64 128.67 410.5 126.25 411.83 123.29 413.8 120.24 414.55 117.8 417.09 115.12 419.93 113.44 420.46 112.04 423.35 111.81 424.49 111.09 428.23 110.21 427.63 108.4 427.69 107.32 426.76 103.94 427.68 102.31 428.7 101.22 431.16 100.12 432.15 98.49 431.67 96.74 430.26 95.29 429.5 93.8 428.54 93.67 427.57 92.71 429.4 92.16 430.28 90.57 431.57 89.88 434.3 89.96 435.72 89.58 439.1 87.34 442.23 87 445.69 85.31 447.33 84.87 449.75 82.98 450.28 77.35 450.17 76.14 451.38 73.89 453.68 73.27 454.82 72.11 457.95 70.92 458.59 70.14 461.79 68.63 463.22 68.4 463.42 66.49 464.82 65.28 465.6 62.95 467.07 62.58 468 61.72 467.65 60.32 468.96 59.21 471.56 58.67 472.48 57.95 475.87 56.61 477.8 57.23 480.03 56.07 480.22 55.12 483.9 53.29 485.66 53.48 487.67 52.75 489.06 51.77 490.31 52.36 491.55 52.01 492.85 52.25 495.95 53.52 496.69 54.42 496.49 55.77 498.86 56.55 501.07 56.49 501.93 57.03 Z" id="32520340"/>
<path d="M 725.6 96.33 725.6 98.28 727.97 103.72 727.99 104.7 729.35 107.17 728.45 110.24 730.08 116.65 729.93 119.54 728.9 122.78 729.18 124.58 728.45 124.81 727.53 126.75 727.4 128.03 726.3 130.15 726.53 132.85 725.83 134.51 725.57 136.79 724.94 137.85 725.25 139.14 724.65 140.59 721.4 142.03 720.11 144.16 720.13 145.22 719.28 146.68 718.58 147.11 718.64 149.26 718.23 150.09 715.8 151.87 714.44 154 712.91 154.43 712.67 155.24 710.73 157.26 710.49 158.22 711.02 160.32 714.21 160.17 715.35 160.47 716.84 159.64 719.18 157.03 721.97 155.63 722.79 155.49 724.83 158.21 725.63 160.4 727.94 162.13 730.04 164.01 731.58 167.28 732.4 168.13 732.65 172.49 731.51 175.2 730.05 176.31 728.69 176.41 726.1 178.1 723.88 180.1 722.59 180.89 720.96 180.9 720.57 180.45 718.43 179.88 715.98 180.96 714.79 181.09 711.28 181.99 710.72 180.82 709.69 180.01 708.6 180.6 706.4 180.96 705.18 180.23 704.31 181.11 702.86 180.92 702 179.36 699.36 180.14 697.29 180.45 696.07 179.97 694.99 180.25 693.36 181.66 693.39 183.94 692.37 184.24 692.15 187.66 691.52 188.68 692.9 190.26 692.31 192.11 690.94 192.73 690.94 195.42 689.85 197.48 690.5 198.19 689.63 199.89 689.24 201.81 687.58 201.82 687.53 201.07 685.24 202.17 684.15 202.09 681.92 201.12 680.74 201.35 679.62 202.31 678.6 204.42 678.23 206.74 676.99 207.21 675.71 208.32 674.77 211.74 674.98 214.71 674.47 215.34 674.5 216.93 673.61 219.98 674.17 220.74 673.1 221.59 671.83 224.31 672.03 228.38 671.62 230.74 668.92 229.98 668.55 231.4 667.36 232.53 666.73 234.86 665.9 236.1 664.1 237.15 662 236.74 661.72 237.96 659.84 238.86 659.02 241.07 659.53 242.44 661.05 243.25 661.21 245.04 660.63 246.23 660.62 248.06 660.24 248.99 661.05 250.36 660.98 251.85 661.69 252.55 662.71 252.27 663.03 253.35 660.33 254.25 659.54 255.77 659.47 256.75 658.26 258.27 656.77 259.08 654.01 258.82 653.4 259.82 652.28 259.99 651.05 261.67 650.02 261.68 648.53 262.5 647.73 265.9 645.84 267.66 645.72 268.96 644.56 269.93 642.65 270.29 640.95 271.42 638.9 272.06 637.7 271.6 638.24 268.21 639.06 266.26 638.22 265.89 635.9 263.8 634.87 264.02 634.3 263.12 632.83 262.89 631.97 263.36 631.21 261.92 629.67 261.29 628.94 259.58 627.97 259.19 626.03 259.56 624.39 259.24 623.85 260.24 622.17 259.83 621.68 258.67 619.61 258.43 615.98 256.34 614.8 256.72 612.72 253.27 609.89 251.09 608.23 248.25 607.41 247.51 604.78 247.84 602.21 245.59 601.88 243.15 601.32 242.46 598.98 241.06 597.71 236.24 596.01 236.32 594.02 235.73 592.29 233.81 590.22 233.92 589.15 231.32 587.14 229.91 584.19 229.32 583.19 229.52 582.67 228.59 582.88 226.23 582.3 225.63 580.29 225.29 578.58 224.34 577.68 221.8 574.99 219.09 573.81 218.97 572.41 216.98 570.72 216.66 569.26 217.09 568.75 218.85 568.93 220.06 567.22 221.49 566.86 222.34 565.57 223.39 566.1 224.71 564.52 225.37 564.01 226.75 564.37 228.52 562.1 229.53 560.66 229.36 559.04 232.84 559.08 234.91 556.47 235.59 554.74 233.99 554.1 231.61 553.54 231.9 552.41 230.89 549.83 230.49 549.14 231.09 545.83 228.47 545.42 226.4 544.98 225.8 543.58 226.08 541.11 225.08 540.41 223.77 539.21 223.17 538.85 221.68 537.45 219.3 534.43 217.12 533.6 214.7 534.03 212.15 532.86 208.64 533.62 207.31 533.07 206.16 532.16 205.77 531.62 204.45 528.48 205.38 526.46 203.85 526.77 202.41 525.84 200.63 521.98 198.93 520.6 197.72 520.74 196.43 520.31 194.78 521.2 194.08 520.86 192.25 521.28 190.21 519.61 186.18 518.78 185.09 518.12 183.22 518.04 181.08 519.81 179.36 520.05 177.93 519.73 176.17 517.18 172.39 517.93 171.07 519.3 170.59 519.51 169.68 520.98 168.32 521.57 164.64 521.01 163.43 521.61 161.54 521.32 159.14 523.14 158.33 525.74 157.54 528.35 156.02 530.04 155.28 529.5 153.99 529.62 151.91 528.87 151.08 528.3 148.33 528.5 146.8 525.93 142.03 524.29 141.02 522.29 136.91 520.85 135.09 520.83 131.95 521.72 131.04 521.84 129.16 521.43 127.36 521.31 124.67 521.67 123.5 522.8 122.67 522.76 120.52 524.69 117.25 522.45 115.31 519.09 112.99 517.47 112.51 517.15 110.99 513.45 110.54 510.56 109.48 509.49 108.49 507.72 107.77 506.48 106.31 503.2 105.05 501.38 103.48 500.75 102.16 498.22 101.09 497.04 99.53 495.42 97.97 495.26 96.3 497.14 94.1 497.66 91.09 497.64 89 498.42 85.99 498.14 83.7 499.15 82.39 498.82 80.51 499.69 75.61 501.36 74.37 501.47 72.2 502.82 70.97 503.21 68.88 504.86 68.03 506.02 66.05 507.35 64.98 506.81 63.48 503.99 59 501.93 57.03 505 57.68 508.03 56.81 509.1 55.85 510.78 55.66 512.74 54.55 513.9 52.71 516.5 50.09 519.64 48.71 517.73 47.38 513.98 46.78 510.76 45.67 509.62 44.48 507.89 41.98 507.01 39.87 508.55 36.51 511.93 33.15 516.99 29.64 515.59 26.96 515.99 26.15 516.2 21.51 515.4 18.82 515.69 17.44 517.98 13.82 519.31 11.43 520.37 11.34 521.14 10.07 523.76 7.65 525.15 5.03 525.87 4.15 529.37 4.86 532.45 4.3 534.24 4.89 535.69 6.12 537.75 5.88 539.69 5.13 541.5 3.94 542.79 3.55 543.77 2.68 546.2 2.25 548.63 1.11 551.05 1 553.34 1.99 553.91 2.73 556.45 8.27 557.16 11.43 558.44 10.1 559.52 9.77 562.17 13.24 565.53 14.4 566.31 14.98 568 19.4 569.21 19.94 570.13 21.74 571.3 25.52 571.4 28.5 572.84 31.77 573.53 32.23 573.13 34.11 574.38 35.68 574.53 37.38 575.99 39.52 576.53 37.38 578.41 34.79 581.31 34.16 583.33 32.73 584.11 32.85 585.02 31.92 587.23 32.08 588.76 31.24 589.26 30.39 592.82 29.05 593.21 31.41 593.12 33.79 593.77 34.43 593.27 35.71 594.36 36.39 594.67 37.62 595.61 39.01 599.11 40.4 601.35 40.23 603.39 42.18 607.84 45.34 609.53 48.28 611.88 46.27 612.41 47.6 614.9 48.98 616.11 48.7 617.3 49.61 618.32 49.47 618.01 51.05 618.79 53.03 620.82 54.67 625 56.47 625.31 57.71 625.25 60.1 625.8 62.93 625.78 64.75 626.21 66.12 628.71 66.05 630.26 65.07 632.7 63 633.93 60.66 636.51 59.01 638.39 57.02 639.16 55.36 641.31 54.42 642.83 53.36 645.21 52.46 648.96 54.97 654.03 55.43 655.45 55.83 656.96 56.89 658.73 57.1 660.1 59.72 661.1 62.43 661.71 63.19 664.95 62.94 666.45 64.35 668.46 66.67 669.28 68.7 669.18 72.11 670.44 72.99 674.79 74.71 675.72 76.13 677.84 78.72 679 82.05 680.4 82.99 682.08 86.23 685.08 88.23 688.34 94.26 691.59 95.52 699.14 100.63 708.23 97.8 710.45 98.82 714.28 98.87 715.77 100.71 717.71 98.92 724.79 96.98 725.6 96.33 Z" id="32520350"/>
<path d="M 427.57 92.71 428.54 93.67 429.5 93.8 430.26 95.29 431.67 96.74 432.15 98.49 431.16 100.12 428.7 101.22 427.68 102.31 426.76 103.94 427.69 107.32 427.63 108.4 428.23 110.21 424.49 111.09 423.35 111.81 420.46 112.04 419.93 113.44 417.09 115.12 414.55 117.8 413.8 120.24 411.83 123.29 410.5 126.25 409.64 128.67 407.87 130.82 407.3 134.5 408.65 136.14 408.24 137.91 406.32 138.54 405.2 138.41 403.72 139.56 403.48 141.58 401.74 146.26 400.67 146.69 399.62 149.42 398.91 151.87 399.25 152.81 398.51 154.18 398.08 157.13 396.62 159.47 395.75 160.1 392.82 160.89 391.61 161.96 389.63 161.21 387.73 164.59 388.61 165.82 388.25 167.91 387.04 169.94 386.86 171.09 388.34 171.52 388.61 173.14 389.88 173.51 390.64 175.01 391.8 176.21 393.34 177.2 394.08 178.41 393.23 179.75 391.86 182.79 391.02 183.24 391.23 184.79 390.96 185.91 388.34 187.07 386.79 187.19 385.65 188.88 385.93 189.67 385.21 191.06 385.14 192.65 385.46 194.73 384.46 196.26 383.38 197.08 381.32 196.91 380.29 197.92 379.06 198.39 378.71 202.32 376.9 204.94 377.79 207.21 377.07 209.11 374.79 210.31 374.56 212.69 373.58 214.02 373.26 215.75 373.98 216.6 373.46 220.76 375.01 223.49 373.11 224.06 372.01 225.01 371 224.91 370.94 225.98 370.16 226.71 370.84 227.87 370.38 229.34 370.84 231.26 372.34 231.58 374.75 234.65 375.13 236.26 374.4 237.1 374.84 238.04 376.42 237.98 377.21 238.48 377.93 241.01 377.02 243.67 375.27 244.3 374.45 246.52 376.03 249.02 376.61 250.56 376.46 251.78 374.85 254.46 374.76 256.27 375.15 257.07 374.36 259.12 374.57 260.89 376.8 260.89 376.43 262.41 376.5 264.58 376.02 266.59 374.16 271.17 373.16 272.53 370.93 274.78 367.57 278.7 365.74 280.16 363.21 282.78 360.49 284.55 355.22 288.85 353.34 290.2 350.67 292.55 349.89 293.93 349.43 295.8 350.65 297.33 352.85 298.96 353.92 300.19 355.52 303.77 355.39 305.27 354.53 306.45 351.41 309.37 350.05 311.03 348.86 315.04 347.63 314.48 346.19 314.37 344.91 313.76 344.42 314.98 342.04 315.3 341.19 315.7 340.52 317.28 339.09 317.83 338.12 319.04 338 320.04 335.24 323.67 334.06 326.08 331.84 325.36 330.1 321.39 326.68 320.07 325.89 318.07 324.84 316.78 323.47 315.92 322.19 314.58 320.39 313.61 319.11 311.71 316.8 311.29 316.25 310.08 314.51 308.34 312.07 307.3 310.84 306.19 308.66 305.31 307.24 306.17 306.24 306.28 305.77 305.24 303.98 304.88 302.69 303.87 301.63 304.45 301 306.91 300.09 307.64 300.15 310.33 301.19 312.07 301 312.69 299.24 312.25 297.15 312.13 296.4 311.74 292.91 312.1 290.38 311.31 289.67 310.13 287.83 309.8 287.16 310.4 285.37 310.89 284.79 311.71 281.92 310.99 279.55 311.19 278.79 311.76 277.97 310.59 276.54 311.16 275.99 310.37 274.61 310.69 272.2 310.65 271.02 312.61 269.84 312.77 267.18 311.37 266.89 309.82 265.15 309.45 264.14 308.42 261.04 307.72 259.85 306.89 258.18 306.88 257.26 308.78 256.49 309.4 255.97 310.89 253.99 312 252.7 310.1 251.91 309.45 248.43 307.78 247.31 307.88 243.21 304.59 242.12 305.42 237.08 308.02 236.39 309.09 234.53 309.92 233.5 309.11 231.41 310.19 231.2 308.14 230.44 306.59 228.27 303.63 227.52 300.62 226.48 299.12 224.5 297.96 223.14 297.74 221.72 298.38 220.13 297.24 217.16 299.09 215.61 299.71 211.99 300.24 211.13 299.27 210.16 300.49 208.76 300.1 206.05 297.22 204.16 297.03 203.53 295.71 201.68 295.36 201.78 293.14 202.95 292.68 203.57 291.57 203.7 289.77 202.64 286.63 201.38 285.19 202.6 282.04 201.45 281.61 201.95 280.48 200.63 278.01 201.33 275.16 201.43 273.45 200.83 272.79 200.58 270.68 203.13 268.03 205.14 267.3 205.14 265.47 205.97 264.42 207.13 264.53 207.73 262.63 205.32 259.88 200.56 256.41 198.18 253.24 193.05 249.63 190.62 247.58 184.31 241.84 180.41 241.35 169.01 234.59 168.21 231.82 166.16 225.68 166.18 223.1 170.14 219.41 172.58 216.47 175.42 215.46 177.88 212.99 179.54 210.84 179.49 208.39 181.57 208.23 183.28 206.14 184.07 203.8 183.38 198.62 185.46 197.31 188.74 197.08 190.35 195.66 190.05 193.2 189.99 189.88 190.35 188.22 191.36 188.35 191.98 186.54 194.22 185.57 195.45 182.74 195.06 182.06 197.22 180.48 196.66 178.11 196.85 177.6 196.1 175.66 196.08 173.84 197.85 170.87 197.96 169.03 197.47 166.73 197.78 166.05 197.01 165.04 197.07 162.84 195.58 161.52 195.29 159.33 194.72 159.07 196.39 157.02 198.82 156.03 199.75 157.18 200.83 157.75 203.87 156.76 217.17 155.65 219.55 154.68 220.94 152.06 221.7 151.64 224.49 151.35 225.33 150.35 230.39 148.25 233.03 145.13 234.24 144.17 239.22 141.99 242.22 143.69 245.69 144.79 246.45 140.97 249.2 139.78 254.69 134.23 260.39 134.62 263.17 135.1 266.24 134.68 269.83 135.24 272.42 135.97 274.82 134.69 278.5 133.24 281.17 131.52 281.76 129.8 282.06 127.5 282.57 126.36 282.38 125.14 282.87 124.11 282.68 122.01 282.93 120.46 282.72 119.19 285.14 119.06 286.89 118.07 288.8 116 289.84 112.55 289.69 110.8 292.13 107.86 293.11 106 292.62 104.63 293.97 103.71 296.41 102.9 298.48 103.15 300.68 104.22 304.78 102.1 306.3 98.07 305.74 96.84 305.94 95.22 305.48 93.92 307.37 91.49 308.51 88.32 307.81 84.69 308.29 83.25 310.03 81.46 314.34 82.35 316.62 84.84 318.69 84.76 319.47 85.6 319.95 87.29 320.63 87.74 322.48 90.46 321.9 91.96 322.01 92.85 323.97 92.82 324.27 93.78 329.02 95.23 329.8 95.79 332.09 96.35 334.26 96.29 336.09 97.21 338.16 98.81 341.69 100.26 343.47 99.79 346.3 100.52 349.38 101.8 352.92 102.16 354.56 102.12 357.38 101.5 358.46 102.25 362.47 101.59 364.85 101.49 368.55 101.95 370.42 102.68 372.11 104.64 372.04 106.17 373.5 107.37 372.94 108.71 372.14 109.3 371.72 110.96 373.29 113.57 373.07 114.5 373.57 117.99 372.88 121.47 373.85 122.65 374.02 123.94 377.31 125.9 379.13 126.39 382.39 126.7 383.58 125.98 386.07 123.68 386.57 122.27 388.58 121.92 389.2 121.06 389.82 118.51 391.43 117.86 392.39 116.74 393.9 116.4 395.46 114.54 396.73 111.57 397.52 110.9 398.85 108.91 400.16 109.09 401.31 108.54 402.04 107.47 404.29 106.06 407.58 106.15 409.58 105.58 411.2 104.69 412.67 104.4 416.22 102.99 417.88 102.92 419.53 101.02 421.4 100.44 421.7 99.85 423.68 99.25 425.01 99.96 425.96 99.55 425.92 93.21 427.57 92.71 Z" id="32520360"/>
<path d="M 168.21 231.82 169.01 234.59 180.41 241.35 184.31 241.84 190.62 247.58 193.05 249.63 198.18 253.24 200.56 256.41 205.32 259.88 207.73 262.63 207.13 264.53 205.97 264.42 205.14 265.47 205.14 267.3 203.13 268.03 200.58 270.68 200.83 272.79 201.43 273.45 201.33 275.16 200.63 278.01 201.95 280.48 201.45 281.61 202.6 282.04 201.38 285.19 202.64 286.63 203.7 289.77 203.57 291.57 202.95 292.68 201.78 293.14 201.68 295.36 203.53 295.71 204.16 297.03 206.05 297.22 208.76 300.1 210.16 300.49 211.13 299.27 211.99 300.24 215.61 299.71 217.16 299.09 220.13 297.24 221.72 298.38 223.14 297.74 224.5 297.96 226.48 299.12 227.52 300.62 228.27 303.63 230.44 306.59 231.2 308.14 231.41 310.19 233.5 309.11 234.53 309.92 236.39 309.09 237.08 308.02 242.12 305.42 243.21 304.59 247.31 307.88 248.43 307.78 251.91 309.45 252.7 310.1 253.99 312 253.46 314.11 252.52 316.51 252.53 317.51 251.39 320.32 251.35 323.06 250.63 324.39 248.44 325.19 247.55 325.85 246.98 327.27 245.67 329.39 244.73 329.7 243.81 331.8 242.6 332.27 242.05 333.46 241.11 334.08 240.94 336.29 240.41 338.19 238.76 340.44 237.16 340.43 235.49 341.06 235.07 341.93 235.93 343 234.73 344.74 234.87 346.71 236.13 350.46 233.76 352.65 232.48 353.13 232.22 353.81 230.25 354.24 228.78 354.91 227.5 356.24 226.57 358.35 225.18 359.09 224.67 361.35 223.33 361.29 222.36 362.48 222.02 367.02 221.1 368.9 221.34 370.85 220.7 371.19 220.2 373.67 219.11 375.98 219.87 377 217.11 383.45 216.93 384.92 217.32 386.86 216.21 387.96 214.23 388.22 212.92 389 211.3 388.8 210.03 389.1 206.7 388.34 202.26 388.71 203.59 391.79 203.76 393.57 202.89 394.14 201.07 393.65 199.29 394.55 199.29 395.47 197.04 397.13 192.18 400.17 189.95 398.14 189.12 395.87 186.39 397.38 185.2 397.34 185 395.94 185.58 392.84 183.79 394.31 182 394.21 180.52 395.65 175.79 397.98 174.55 398.99 174.94 399.64 174.07 400.7 173.55 403.16 173.46 405.33 172.22 407.98 172.99 411.16 172.09 413.24 172.21 414.65 171.42 415.41 172.02 418.12 171.59 418.9 171.31 421.04 169.03 422.07 165.85 424.03 165.44 425.24 163.88 426.86 162.43 429.1 161.95 431.1 162.12 432.19 160.41 434.18 158.86 434.94 158.2 436.04 157.96 438.62 158.61 440.04 158.55 443.84 158.91 446.07 158.4 449.55 156.25 451.69 156 454.43 155.04 455.84 155.56 458.78 156.46 459.38 156.73 461.56 157.62 463.74 157.19 469.18 156.46 470.11 156.54 471.17 155.93 473.03 156.05 476.01 157.16 476.86 158.54 480.26 159.52 480.61 161.09 483.19 161.38 485.55 164.48 487.33 165.74 488.68 166.25 490.19 166.13 492.34 166.99 493.78 166.13 495.85 165.99 500.06 165.69 502.19 165.03 504.7 164.17 506.39 164.08 507.32 165.23 510.74 163.51 512.21 162.5 515.05 162.47 523.42 161.23 524.5 159.49 525.2 154.37 525.93 152.4 525.89 149.54 524.97 147.6 524.89 145.53 525.38 142.25 526.94 139.53 528.61 137.55 531.26 135.65 528.65 135.44 526.3 134.68 525.47 133.85 523.6 132.43 521.56 133.73 519.44 135.08 518.47 135.35 516.45 136.61 513.65 135.97 512.45 136.3 510.37 137.59 508.62 137.65 507.11 136.02 504.06 135.09 503.47 134.39 501 133.08 498.35 132.97 496.47 132.54 495.32 131.82 489.65 130.53 488.88 129.21 487.43 129.04 485.73 129.39 484.84 128.84 481.27 128.02 479.06 126.63 478.12 125.26 475.23 123.31 472.37 123.31 471.06 122.36 470.16 120.74 463.63 120.24 462.9 120.66 460.63 120.15 460.04 115.95 460.01 112.52 460.38 112.44 459.85 109.95 456.03 108.41 455.61 107.75 454.75 106.83 452.34 104.19 451.47 100.76 448.88 100.18 447.24 98.69 446.73 98.53 444.72 96.37 444 95.09 441.47 93.74 439.37 92.32 439.52 91.82 437.87 90.71 437.34 88.06 438.41 86.98 438.45 85.85 439.55 83.35 440.57 80.92 440.15 78.81 442.74 78.58 443.98 76.78 446.12 77.05 447.04 75.13 447.31 74.63 447.87 71.55 448.99 68.8 449.64 67.4 450.34 65.41 450.55 62.31 452.24 61.52 452.13 60.67 451.05 60.84 449.56 59.19 444.97 59.82 443.8 59.78 440.43 60.59 438.99 60.45 435.33 59.83 433.82 60.67 433.08 59.86 429.31 60.51 428 59.58 424.7 58.62 422.26 58.66 420 57.45 419.39 57.26 418.54 58.18 416.31 58.23 415.17 56.24 413.26 56.14 409.3 56.42 407.82 55.74 407.21 56.58 406.08 57.71 405.4 58.11 403.73 60.36 402.52 61.23 400.5 61.29 399.27 62.22 398.26 62.56 394.23 61.82 392 60.78 389.92 58.62 390.23 57.51 389.66 56.26 390.03 54.95 389.41 53.95 389.61 53.29 388.32 51.87 388.62 49.87 386.87 48.3 386.52 47.91 385.44 47.1 385.17 45.71 385.58 44.31 383.57 43.01 382.6 42.71 380.36 40.61 379.64 39.78 378.58 38.68 378.45 38.19 377.34 38.46 376.2 36.98 374.95 36.95 373.41 34.69 372.96 34.29 372.13 34.25 369.17 33.51 368.46 33.72 366.08 33.33 364.27 31.67 360.11 29.59 361.12 28.49 361.31 25.61 360.35 25.67 358.55 24.15 357.08 23.53 354.46 22.48 354.62 20.62 354 18.62 354.46 16.76 352.77 15.57 353.4 14.75 353 13.94 353.75 12.85 352.95 9.69 352.12 9.32 352.93 7.86 354.27 6.28 353.23 5.01 352.82 2.18 353.76 1.51 351.33 1.74 350.68 1 347.86 1.22 342.87 2.25 341.67 2.04 339.64 1.62 338.74 1.8 336.32 1.59 333.35 3.8 333.35 5.39 333.96 8.6 334.43 10.44 333.89 11.22 332.47 12.57 332.52 15.99 329.29 17.76 329.72 19.06 329.67 20.59 328.5 21.71 328.25 23.54 326.91 25.16 324.23 26.31 324.24 27.42 322.32 29.21 320.53 29.17 319.36 30.63 317.25 32.67 315 35.56 315.97 36.49 316.68 37.58 315.39 39.11 314.49 40.77 312.69 41.47 311.39 41.44 310.09 42.34 308.48 42.41 307.38 43.87 304.77 47.53 302.26 48.49 302.01 48.67 300.71 50.45 299.53 50.85 298.42 52.19 297.39 55 296.26 54.74 294.52 52.96 292.98 53.43 292.12 53.61 289.94 54.82 288.74 54.83 286.15 56.95 286.24 58.75 285.76 60.14 284.75 62.61 285.04 64.73 284.37 67.56 283.11 69.69 281.24 69.45 278.07 70.04 276.85 69.28 274.31 74.2 270.4 73.98 269.34 75.47 268.97 77.68 269.36 78.04 268.96 80.34 268.78 82.52 270.12 84.31 270.27 85.21 269.58 88.25 269.29 90.6 268.73 92.49 267.59 96.1 268.06 97.86 268.61 99.44 269.82 101.68 270.86 102.8 269.52 104.34 269.29 105 268.3 106.75 269.12 107.32 267.8 108.56 266.55 110.42 266.09 111.06 266.78 112.77 267.44 114.94 267.87 117.27 267.36 118.3 266.24 120.33 266.61 121.87 266.5 122.53 265.18 123.32 260.91 126.52 258.29 127.67 256.16 126.1 253.91 126.59 252.31 126.31 250.16 126.92 249.14 127.87 248.85 129.93 246.8 130.64 245.3 130.35 242.87 130.55 241.66 133.06 239.72 133.5 238.88 136.69 238.49 137.28 238.01 138.35 238.56 140.1 238.76 141.01 238.44 142.6 236.14 144.02 235.64 144.47 233.9 145.45 232.65 147.34 231.5 149.26 231.66 152.1 232.43 153.55 231.99 155.2 232.64 155.91 232.39 157.25 234.04 160.11 233.85 161.22 233.05 162.74 233.1 164.65 234.06 165.76 232.88 168.21 231.82 Z" id="32520370"/>
<path d="M 501.24 508.27 501.73 511.14 502.25 512.18 503.56 513.52 504.3 514.86 504.32 517.22 504.92 519.5 506.14 521.36 506.65 522.88 507.92 524.25 508.54 525.96 511.4 528.05 511.66 528.66 513.27 529.47 513.99 529 515.32 529.32 517.15 531.48 519.11 533.39 521.52 534.48 521.84 533.84 525.61 534.48 527.64 533.8 531.02 534.88 532.53 535.62 533.2 536.88 535.06 537.27 536.8 536.16 538.19 534.85 538.74 533.43 540.33 532.04 541.96 533.31 542.92 533.66 544.1 535 545.53 535.9 548.7 535.83 549.44 536.58 549.75 538.49 550.46 540 551.81 541.79 553.24 541.97 555.43 544.88 556.85 545.44 557.31 546.49 558.54 547.55 560.36 549.8 562.2 549.73 563.43 550.63 565.2 553.01 566.55 551.84 569.33 550.72 571.5 550.47 572.98 552.22 573.73 552.21 575.96 551.21 576.6 551.25 579.06 549.64 582.45 548.01 586.94 549.16 588.77 548.88 590.82 547.8 593.95 550.54 595.07 552.79 597.49 554.69 599.24 555.56 599.83 556.69 600.91 557.05 601.9 560.72 602.79 561.31 604.88 560.86 606.29 558.84 607.09 559.2 609.61 559.14 612.41 559.39 613.67 558.05 616.24 558.33 618.7 555.69 620.78 555.3 621.27 554.38 622.21 554.27 623.17 553.07 622.91 555.12 623.01 557.9 619.98 561.14 620 563.85 620.43 566.62 621.22 567.53 620.94 569.8 621.76 571.11 621.72 571.94 623.42 573.42 624.42 574.78 625.37 577.99 625.21 581.88 625.89 582.53 626.19 585.22 627.72 587.78 628.69 588.35 629.78 589.95 630.03 591.15 631.27 592.69 630.14 593.19 629.09 594.54 629.19 596.66 628.81 598.26 627.86 600.36 629.45 603.46 629.49 605.02 630.63 608.02 630.1 609.37 630.22 611.98 631.52 613.48 631.06 615.79 631.67 617.51 631.27 619.84 631.83 623.36 633.32 625.82 632.75 626.82 630.63 628.43 629.42 629.76 627.95 629.96 626.88 630.62 624.95 629.54 624.19 629.49 622.37 631.29 621.41 631.17 619.76 632.08 618.8 632.12 617.75 633.13 616.75 633.29 615.21 632.45 614.15 632.76 612.93 631.27 608.4 630.91 607.76 630.35 605.54 633.25 606.89 635.37 606.37 635.88 607.91 637.85 609.05 640.13 609.32 641.47 611.02 644.5 613.05 649.84 613.48 652.61 613.44 656 613.01 656.7 611.36 656.9 609.89 659.2 607.93 660.45 607.33 661.23 604.49 662.38 601.35 661.49 599.89 659.64 599.19 659.51 597.64 660.33 595.48 660.23 593.38 659.33 592.22 659.22 590.59 657.67 589.87 657.75 583.68 652.6 582.93 652.96 580.72 653.14 578.25 655.83 577.49 657.24 577.45 658.56 574.92 660.68 574.09 660.33 573 658.71 570.72 657.27 567.73 657.25 566.66 656.66 565.51 657.01 562.43 656.48 560.48 655.31 559.48 655.48 558.47 654.83 557.93 653.08 555.22 650.86 552.46 650.05 551.5 650.07 550.17 650.95 549.4 650.79 547.91 652.43 546.98 652.73 543.7 655.31 541.61 656.46 540.73 657.42 537.65 658.33 535.48 659.9 534.8 660.95 534.78 662.13 535.49 664 535.07 665.21 533.2 665.92 532.06 666.8 531.39 668.33 529.59 669.95 528.24 674.72 529.03 679.3 527.87 681.27 527.71 682.75 528.07 685.07 529.2 687.98 529.51 689.54 530.06 689.91 531.39 692.2 531.5 693.63 533.11 695.49 533.06 696.11 529.9 697.66 528.6 699.47 526.84 700.88 525.04 701.29 523.44 702.31 523.02 703 521.28 703.7 519.23 706 517.25 704.51 515.05 703.83 513.2 702.13 510.85 703.26 509.04 704.72 508.47 704.47 506.7 702.4 505.87 702.69 503.77 701.6 502.86 702.19 501.39 702.05 499.69 702.91 497.21 703.02 495 702.44 491.83 701.01 490.13 700.75 489.11 702.49 487.13 702.36 486.66 701.61 484.27 700.48 482.05 700.94 481.72 700.38 478.76 697.96 475.96 697.87 473.71 696.65 471.84 697.12 470.69 696.69 467.57 696.24 464.88 693.23 461.75 690.39 459.31 688.74 456.99 688.12 453.01 688.25 450.55 687.42 447.87 687.68 444.43 687.65 443.13 687.86 439.88 687.83 435.5 689.08 433.58 686.99 430.03 684.38 428.91 681.87 426.99 680.35 425.71 678.9 425.26 676.89 424.07 676.01 423.1 674.01 422.34 673.89 421.71 672.04 420.63 671.03 418.88 670.99 417.18 668.77 416.64 666.19 415.17 664.89 415.07 663.11 414.09 660.36 413.21 653.9 410.95 653.84 410.9 652.79 409.74 647.86 409.05 647.72 409.1 646.96 408.01 645 408.01 644.2 409.03 641.88 410.45 640.01 410.84 639.02 411.85 638.18 412.09 637.27 413.91 635.49 414.11 634.62 413.67 631.97 413.84 629.34 416.1 625.14 416.19 622.35 414.63 621.73 414.03 620.14 412.94 619.44 412.41 618.84 412.54 616.43 412.39 611.64 413.57 609.53 414.38 606.69 414.29 604.12 415.66 601.53 417.29 600.9 419.62 600.45 423.78 597.04 425.34 595.34 425.06 591.27 425.79 587.66 426.83 587.49 427.42 585.6 429.52 584.77 430.89 582.81 433.27 584.09 436.65 584.94 439.64 586.42 441.83 586.16 445.52 583.63 446.21 582.62 449.33 583.37 449.76 583.9 452.62 585.38 454.26 585.49 454.55 584.93 456.66 584.43 461.11 580.74 462.54 580.67 464.41 580.12 465.68 577.26 464.84 576.05 465.8 574.04 467.19 573.59 468.58 572.19 469.56 570.62 470.74 568.07 470.08 567 467.88 564.76 468.44 563.68 468.46 561.97 467.43 558.93 467.19 557.19 469.65 555.04 470.18 553.63 469.46 552.56 470.1 551.38 469.84 550.6 469.81 547.99 468.7 547.73 467 543.95 465.8 542.06 465.85 540.59 465.22 538.1 463.15 534.83 464.33 532.33 466.6 530.13 467.79 527.92 468.4 525.45 469.9 525.32 470.74 523.04 472.71 521.46 473.07 519.71 477.47 517.45 478.22 517.84 480.06 517.58 481.51 518.48 482.25 518.38 484.13 517.22 485.89 517.6 487.28 517.01 488.22 515.37 490.96 515.14 492.08 514.39 492.73 513.01 494.66 511.91 496.33 511.53 496.74 509.93 497.49 509.23 498.76 509.25 500.47 507.46 501.24 508.27 Z" id="32520380"/>
</g>
</svg>