<?xml version="1.0"?>
<svg xmlns="http://www.w3.org/2000/svg" version="1.2" baseProfile="tiny" width="800" height="927" viewBox="0 0 800 927" stroke-linecap="round" stroke-linejoin="round">
<g id="dong">
<path d="M 255.12 663.1 253.91 667.21 250.75 670.32 249.5 673.2 253.57 677.89 256.57 677.78 257.66 678.37 258.96 678.29 260.83 677.22 263.59 675.21 265.9 675.13 267.53 672.9 273.07 671.77 274.65 671.95 276.13 671.15 279.93 670.4 280.59 672.35 283.83 671.06 284.45 670.44 286.85 670.97 288.88 669.69 289.47 672.96 288.79 675.45 289.73 677.12 290.07 680 288.31 682.22 289.73 683.85 291.01 684.62 292.24 686.16 294.64 687.89 297.34 690.22 297.84 691.2 298.87 696.68 302.35 698.31 303.06 702.06 301.84 703.32 300.7 705.58 300.97 707.74 301.45 708.33 301.79 710.7 304.02 712.48 306.26 711.39 308.76 711.07 310.45 711.79 312.82 710.62 314.36 711.3 315.67 711.27 316.93 710.61 317.83 710.91 320.29 710.21 322.71 710.69 323.93 711.7 326.57 711.01 328.05 711.53 330.52 711.24 331.61 712.13 336.46 709.25 338.61 712.32 340.56 712.71 344.47 712.32 345.53 711.73 346.98 712.32 349.28 715.21 351.13 716 354.35 716.38 356.66 717.69 356.84 718.32 359.27 720.75 362.36 724.52 364.26 725.28 366.73 725.38 367.78 726.14 367.45 728.81 364.38 732.26 365.97 733.77 365.4 739.86 366.06 742.12 367.35 743.09 368.27 745.52 367.26 748.4 366.22 749.21 365.42 751.48 364.13 753.28 364.9 756.23 364.14 758.14 362.03 760.58 360.01 762.17 362.62 766.06 364.53 767.56 366.51 769.75 367.3 771.88 370.01 773.87 371.53 773.94 375.44 776.49 379.3 780.1 380.32 780.45 381.36 781.95 384.95 784.28 385.22 786.33 386.52 788.49 386.93 791.09 387.64 791.54 391.29 792.16 393.69 793.54 395.17 793.87 397.64 795.74 401.11 796.95 406.42 799.1 407.6 798.55 405.69 802.28 402.9 804.95 400.61 805.37 396.24 808.7 390.92 814.65 389.16 818 387.46 818.57 385.79 820.86 385.65 824.26 383.44 826.36 382.19 826.64 380.5 826.37 378.71 827.22 376.18 826.76 373.21 824.98 371.26 825.34 370.05 826.67 368.26 827.97 365.36 829.22 361.6 831.1 359.16 830.58 357.17 831.11 355.57 832.35 352.3 836.39 351.4 837.8 349.85 837.84 348.2 838.71 346.8 841.29 345.25 841.22 341.74 841.83 338.54 841.47 336.75 841.96 333.06 841.68 329.39 843.23 328.99 846.55 326.78 848.07 325.89 851.27 324.66 851.86 321.65 854.66 319.42 854.82 318.9 854.33 315.58 853.58 313.8 854.06 312.19 855.2 311.02 855.3 310.59 854.26 307.89 853.62 306.12 852.79 304.08 853.18 301.89 854.29 300.58 853.8 299.85 852.37 298.21 851.43 295.94 851.46 292.27 849.99 290.68 850.28 287.32 851.68 285.53 850.13 283.82 849.83 282.54 851.91 280.56 852.18 278.06 853.46 277.22 853.28 275.05 850.74 272.85 851.9 269.37 852.31 266.34 851.23 264.94 851.09 259.68 852.18 256.64 853.15 251.86 857.14 250.43 858.08 247.66 859.02 245.45 860.26 243.44 860.89 242.19 861.76 239.47 861.04 238.24 861.22 234.81 860.69 231.44 857 229.87 856.02 228.84 853.28 227.37 852.13 226.25 852.01 223.75 849.71 223.54 847.9 223.96 841.79 222.78 839.01 220.68 836.33 220.9 834.64 220.04 831.43 219.04 830.48 216.96 829.72 215.68 830.21 214.43 832.21 212.86 832.76 210.24 827.53 209.45 827.96 208.16 826.17 206.34 824.95 204.87 824.63 204.2 823.47 202.13 822.75 201.56 820.78 201.14 815.98 198.42 815.59 197.66 813.59 195.6 812.84 193.22 812.44 194.42 811.22 195.12 809.26 195.17 807.77 196.65 805.24 196.96 803.97 199.1 802.76 200.54 800.38 200.56 798.54 201.24 796.94 200.95 794.61 197.93 792.39 198.16 790.54 197.89 788.67 195.65 786.13 193.69 787.84 190.48 789.7 188.5 787.35 186.19 787.01 184.13 787.34 182.3 787.23 180.87 786.47 179.44 786.4 177.69 787.34 173.97 788.65 170.93 787.29 170.01 788.68 169.36 792.34 168.51 793.17 168.24 795.06 166.87 795.89 165.74 795.93 164.5 798.03 163.52 798.28 160.06 793.82 155.96 791.7 149.77 788.93 148.23 787.37 146.37 786.81 144.19 784.04 140.67 781.83 138.07 781.17 136.93 781.65 134.14 781.4 131.26 782.81 129.12 784.36 128.48 784.05 126.85 780.4 125.93 779.75 126.29 775.63 127.16 773.78 126.9 770.51 125.23 768.89 124.5 765.92 124.79 764.7 124.05 762.46 123.29 758.11 123.72 757.05 122.67 753.08 122.89 750.25 124.3 747.52 123.52 745.3 123.38 742.61 123.65 739.98 124.12 738.28 123.9 736.14 124.34 733.36 123.51 731.47 120.68 729.26 119.44 728.7 116.89 726.89 114.55 725.98 112.07 723.93 111.23 722.71 108.79 717.59 107.1 715.98 105.82 715.75 104.17 707.99 103.87 702.72 103.98 700.52 105.22 694.18 105.49 687.83 109.16 679.11 111.01 678.66 113.12 678.72 116.55 681.19 120.41 683.59 121.72 683.07 122.12 684.28 121.99 686.69 126.52 687.05 127.52 686.81 130.38 687.57 132.15 687.36 131.78 685.47 131.15 685.12 132.64 681.05 132.22 678.81 133.53 677.39 133.65 676.61 135.35 674.08 135.61 671.76 137.56 669.55 138.67 669.84 140.25 669.04 140.3 668.3 142.28 667.44 143.64 664.99 146.17 663.14 148.33 663.02 150.59 660.58 152.01 659.93 155.02 659.23 155.35 657.14 155.37 653.95 153.29 650.05 151.59 648.83 150.08 645.67 148.82 644.22 146.18 643.9 143.61 639.83 143.57 637.91 142.18 635.83 138.42 631.91 136.29 630.67 132.87 630.8 132.67 628.79 129.89 624.85 128.14 621.32 127.16 620.97 128.12 617.51 131.16 613.49 133.09 608.7 134.44 608.01 135.05 604.59 140.28 603.63 144.01 604.45 146.52 605.89 148.59 607.9 150.11 608.41 152.17 606.61 153.72 607.89 154.73 609.33 155.74 611.82 159.17 612.54 163.56 615.16 164.6 615.05 166.15 616.3 167.81 616.11 169.25 617.59 170.6 618.29 171.05 620.85 171.87 622.64 174.71 623.7 176.23 624.74 177.01 623.99 176.86 620.2 176.54 617.79 177.37 615.92 179.91 614.29 184.27 614.93 187.47 617.43 190.29 619.37 196.61 624.01 198.75 625.91 203.83 629.58 205.95 631.39 209.14 633.61 211.63 636.79 215.71 642.86 217.84 643.63 220.77 643.83 222.66 642.6 223.23 641.55 223.65 638.75 228.09 638.02 230.17 639.23 230.45 640.28 231.96 641.8 231.82 644.52 231.23 645.78 232.59 646.98 234.26 647.63 235.61 649.16 237.6 648.97 238.12 651.76 240.12 654.96 244.22 655.6 246.01 656.25 247.73 658.78 249.64 660.23 251.23 660.42 252.99 662.12 255.12 663.1 Z" id="32550140"/>
<path d="M 351.25 539.06 353.63 540.65 355.06 542.19 357.75 542.62 359.8 544.72 361.07 544.5 362.64 545.32 364.65 547.01 366.6 548.11 368.99 549.04 370.55 551.16 374.21 549.35 376.02 548.74 377.3 547.63 379.83 546.47 380.98 545.07 383.28 543.97 384.46 546.08 388.07 550.76 389.66 553.1 389.98 554.33 391.14 556.29 392.27 557.46 392.42 559.08 394.42 561 394.1 563.33 394.99 564.59 395.61 566.63 396.49 567.73 395.79 570.54 395.6 574.14 397.74 576.39 397.4 579.52 398.84 581.72 401.97 582.51 402.45 582.02 405.29 581.97 405.66 583.29 410.33 586.22 411.84 589.36 414.66 589.25 415.6 590.61 418.41 592.25 418.97 593.71 420.62 593.48 422.4 594.28 424.46 594.22 425.09 598.14 427.59 600.01 428.47 603.86 431.26 603.14 434.43 601.71 438.4 602.94 440.15 603.18 443.85 601.13 445.32 602.28 450.47 605.64 452.39 608.47 455.16 609.53 455.91 612.3 454.59 616.64 455.75 621.25 456.19 624.89 457.01 626.48 459.39 629.76 459.6 630.69 462.76 631.14 466.04 632.32 471.33 633.25 472.5 632.95 475.59 632.93 478.11 630.23 479.21 630.22 481.73 628.71 483.74 629.45 485.21 629.25 487.89 629.85 491.73 628.15 492.97 629.09 494.34 629.35 495.89 631.77 496.76 632.25 500.09 632.71 501.89 633.39 504.58 635.11 508.18 638.67 509.46 639.32 509.85 641.35 511.05 643.14 510.65 645.46 512.39 648.08 512.58 648.72 511.46 651.13 510.7 653.98 509.95 654.04 508.38 656.76 508.8 658.15 508.09 658.8 508.17 661.36 508.79 662.65 511.45 665.98 512.75 665.81 513.83 666.85 514.86 667 514.92 669.83 515.87 672.35 516.31 674.9 517.77 675.78 517.73 678 518.13 678.9 516.99 681.43 516.92 685.38 517.5 687.06 517.58 689.66 518.98 692.81 519.47 693.13 520.22 696.61 519.59 697.22 519.53 699.54 518.98 702.98 518.28 703.08 516.87 706.05 515.8 706.92 514.04 707.04 512.49 708.22 511.1 709.95 509.78 710.48 506.84 713.76 507.7 715.55 507.38 717.56 503.89 719.84 503.71 720.67 501.97 721.02 499.93 722.52 499.25 723.8 499.74 725.52 499.34 727.03 499.49 731.84 500.47 734.56 500.1 737.84 501.87 739.67 503.74 741.02 505.58 743.47 503.35 744.9 502.44 746.69 502.33 748.12 501.45 750.31 499.27 753.02 497.73 754.09 496.04 756 493.89 757.66 493.79 758.34 492 759.45 489.79 760.21 486.61 762.68 485.17 762.77 483.55 761.65 483.73 759.53 483.03 757.37 481.34 757.27 479.85 757.8 478 757.14 477.36 761.28 477.84 766.04 472.87 768.34 470.45 768.89 466.68 766.95 462.17 767.79 458.15 771.33 457.27 772.89 454.86 774.31 452.39 776.22 450.01 776.52 448.6 777.61 447.13 780.88 445.26 783.71 445.09 784.91 443.95 785.59 442.22 787.53 441.66 788.76 439.82 789.95 437.87 793.33 436.64 797.29 436.86 798.35 434.8 802.03 434.51 803.05 435.66 804.99 435.72 807.37 428.44 804.27 427.3 802.38 420.14 796.79 415.64 797.19 413.97 796.38 410.9 796.19 409.49 797.85 407.6 798.55 406.42 799.1 401.11 796.95 397.64 795.74 395.17 793.87 393.69 793.54 391.29 792.16 387.64 791.54 386.93 791.09 386.52 788.49 385.22 786.33 384.95 784.28 381.36 781.95 380.32 780.45 379.3 780.1 375.44 776.49 371.53 773.94 370.01 773.87 367.3 771.88 366.51 769.75 364.53 767.56 362.62 766.06 360.01 762.17 362.03 760.58 364.14 758.14 364.9 756.23 364.13 753.28 365.42 751.48 366.22 749.21 367.26 748.4 368.27 745.52 367.35 743.09 366.06 742.12 365.4 739.86 365.97 733.77 364.38 732.26 367.45 728.81 367.78 726.14 366.73 725.38 364.26 725.28 362.36 724.52 359.27 720.75 356.84 718.32 356.66 717.69 354.35 716.38 351.13 716 349.28 715.21 346.98 712.32 345.53 711.73 344.47 712.32 340.56 712.71 338.61 712.32 336.46 709.25 331.61 712.13 330.52 711.24 328.05 711.53 326.57 711.01 323.93 711.7 322.71 710.69 320.29 710.21 317.83 710.91 316.93 710.61 315.67 711.27 314.36 711.3 312.82 710.62 310.45 711.79 308.76 711.07 306.26 711.39 304.02 712.48 301.79 710.7 301.45 708.33 300.97 707.74 300.7 705.58 301.84 703.32 303.06 702.06 302.35 698.31 298.87 696.68 297.84 691.2 297.34 690.22 294.64 687.89 292.24 686.16 291.01 684.62 289.73 683.85 288.31 682.22 290.07 680 289.73 677.12 288.79 675.45 289.47 672.96 288.88 669.69 286.85 670.97 284.45 670.44 283.83 671.06 280.59 672.35 279.93 670.4 276.13 671.15 274.65 671.95 273.07 671.77 267.53 672.9 265.9 675.13 263.59 675.21 260.83 677.22 258.96 678.29 257.66 678.37 256.57 677.78 253.57 677.89 249.5 673.2 250.75 670.32 253.91 667.21 255.12 663.1 256.01 661.28 255.58 659.31 256.99 656.68 257.32 655.39 257.12 653.13 256.62 651.68 258.55 649.88 259.98 647.92 262.18 647.6 260.42 643.75 260.3 642.1 258.53 637.44 257.26 636.32 257.68 634.52 257.47 632.5 258.24 628.49 258 626.1 255.99 624.53 255.61 623.57 253.93 622.31 252.77 620.35 253.35 616.83 253.62 613.73 252.3 610.48 252.32 609.03 249.38 606.52 247.62 603 246.67 602.02 246.28 600.73 244.35 600.27 241.28 598.02 239.4 596.09 238.97 594.2 237.96 592.74 237.53 589.86 234.21 586.82 232.52 583.79 232.65 581.41 233.28 580.23 231.96 577.06 229.67 572.34 229.22 569.46 227.39 567.84 227.01 565.66 227.01 562.83 226.65 559.57 225.69 558.97 224.64 555.91 224.65 553.01 224.17 551.55 223.74 548.46 223.27 542.59 222.36 538.41 222.39 535.74 225.04 538.1 226.89 539.21 227.05 538.29 229.53 533.36 231.98 532.34 235.25 533.1 238.48 534.45 238.91 534.02 245.2 533.32 246.65 535.77 248.86 534.2 251.72 533.52 253.47 532.55 258.33 530.82 260.89 531.64 261.93 530.7 263.41 530.38 264.62 530.84 266.51 529.59 269.25 528.26 271.31 526.1 273.27 526.29 274.74 528.58 275.26 529.99 278.21 532.6 280.15 531.59 283.46 532.72 284.78 533.97 286.51 534.05 288.08 532.79 292.14 535.34 297.11 534.69 299.02 535.95 302.28 535.03 303.01 534.12 304.2 534.17 305.29 533.24 308.48 536.8 310.34 537.29 310.95 537.91 312.52 537.52 313.01 536.14 314.92 534.98 317.38 534.44 318.04 533.67 320.59 533.32 321.48 532.66 324.11 532.84 326.15 532.47 328.93 532.84 331.83 532.42 333.69 531.31 335.21 531.26 337.94 534.42 338.62 536.04 341.2 538.11 343.58 538.64 344.57 539.42 348.83 538.97 351.25 539.06 Z" id="32550320"/>
<path d="M 209.6 119.2 209.43 121.18 210.06 123.17 207.91 127.81 208.07 129.58 207.42 130.54 204.16 133.41 204.28 134.32 205.91 138.58 207.79 139.3 207.83 140.7 208.68 142.35 210.16 144.03 211.24 144.05 217.28 146.76 218.69 146.43 220.33 146.91 220.85 148.01 220.25 151.19 221.13 153.71 222.3 155.74 226.1 161.05 228.56 165.82 228.87 167.86 232.74 171.59 235.44 173.09 239.62 173.82 242.51 175.35 248.17 173.07 249.5 172.29 251.39 172.54 255.23 174.15 257.81 174.83 260.13 174.64 262.85 175.05 266.58 175.25 269.85 179.22 273.86 179.76 275.8 180.94 280.53 183.01 281.35 184.57 283.34 190.6 285.5 192.78 285.38 196.36 287.18 203.86 287.27 205.79 288.26 208.23 290.54 208.87 292.15 209.96 296.17 211.1 297.31 212.7 298.33 213.22 300.17 216.32 300.96 218.09 301.08 220.15 303.04 221.92 303.06 223.02 302.14 224.91 302.03 229.24 303.81 233.1 302.77 236.42 305.98 238.34 308.26 239.06 310.82 240.34 314.89 242.86 319.02 244.43 319.65 244.34 325.35 248.15 329.39 249.29 331.16 247.89 331.16 249.26 331.99 251.15 332.18 254.54 333.54 258.05 336.14 261.94 335.84 265.99 335.22 268.7 335.18 271.22 333.3 272.28 328.47 276.29 324.89 278.94 319.31 281.87 316.15 282.89 317.65 288.47 322.49 296.35 325.19 302.01 325.15 306 326.08 309.15 324.23 309.94 322.03 312.84 320.28 316.18 315.7 321.67 316.21 324.03 316.32 326.65 318.79 328.73 320.23 330.8 321.73 331.58 322.4 334.09 324.38 335.26 326.37 335.46 328.06 336.72 331.34 336.39 334.14 338.22 337.09 338.64 339.09 341.42 338.58 344.28 339.33 348.57 342.59 351.99 344.03 352.75 347.47 353.52 350.56 352.9 353.76 357.31 355.02 358.26 354.92 359.96 356.78 362.03 357.7 364.44 360.25 365.6 360.93 366.99 361.06 369.39 362.32 371.17 365.95 374.86 367.11 376.52 369.15 378.2 369.31 379.59 366.7 380.61 364.66 382.3 363.8 385.31 361.46 387.31 358.98 388.62 356.09 390.84 353.96 391.01 351.48 394.56 348.92 394.04 346.46 394.88 344.05 395.04 341.37 392.49 337.38 391.87 334.28 390.18 335.2 387.82 335.05 386.38 332.94 383.64 329.78 381.42 326.32 379.66 323.25 378.69 317.56 377.46 311.5 377.91 307.27 379.13 304.44 379.53 300.08 382.47 297.58 385.46 294.31 388.58 292.85 389.36 290.67 389.71 288.55 389.66 286.05 388 284.66 385.35 280.97 380.36 278.91 378.3 277.31 377.23 275.27 374.49 272.41 371.3 268.15 368.54 264.21 367.14 264.26 365.95 261.84 365.93 258.74 364.78 253.24 364.12 252.91 367.23 253.68 370.59 254.36 375.86 255.68 378.94 255.72 382.21 254.52 384.38 254.3 386.19 253.23 388.25 251.44 390.46 250.85 392.22 249.09 392.36 246.28 393.46 244.09 393.66 242.25 393.18 239.08 391.62 237.63 391.85 235.96 390.09 233.8 389.27 232.32 389.7 231.36 390.92 228.18 391.63 227.47 392.55 226.85 394.74 223.61 396.81 221.8 396.19 220.09 394.35 220.24 391.96 219.47 390.18 217.66 388.1 215 386.15 214.09 383.42 213.29 379.92 215.09 375.37 215.34 372.57 214.07 367.52 211.32 361.71 209.45 360.08 208.32 358.04 207.91 355.2 205.93 352.65 204.32 351.84 202.75 350.42 200.75 349.19 199.58 348.03 198.7 346.18 198.66 345.02 196.06 343.68 194.39 342.4 190.1 340.85 188.11 338.92 186.31 340.46 184.97 341.12 181.23 341.84 175.74 341.1 172.78 339.71 171.06 340.33 168.39 339.64 166.09 339.69 163.57 337.93 160.05 337.19 159.29 336.75 156.49 336.3 154.45 335.55 153.63 332.65 153.51 330.21 152.84 328.42 153.43 326.76 154.87 325.39 154.77 323.09 153.16 320.72 151.66 317.55 149.39 316.23 147.13 313.57 145.78 313.24 141.05 311.19 138.11 308.45 136.04 308.44 129.61 307.2 125.7 306.05 124.06 303.61 121.17 301.6 118.3 300.16 115.3 300.01 114.72 299.35 109.45 298.23 108.94 296.87 107.03 294.74 106.54 292.89 105.02 290.47 103.48 288.6 100.36 285.97 97.15 285.86 94.6 283.82 94.03 279.36 93.09 277.38 92.27 276.68 91.54 274.57 90.88 273.89 91.37 270.85 91.04 270.33 91.7 268.16 91.15 264.99 91.01 259.04 90.47 257.59 90.19 255.2 89.2 253.97 88.72 251.67 89.14 250.55 88.37 249.74 87.62 247.04 86.39 245.89 84.83 243.02 84.1 238.58 83.34 236.97 82.45 233.43 82.68 228.33 82.33 226.59 84.57 225.01 84.79 223.55 86.55 219.7 87.36 218.73 87.51 216.84 88.16 214.84 90.04 214.3 90.55 212.52 90.36 211.23 92.76 206.82 93.91 206.17 95.62 202.28 95.89 198.58 96.67 198.51 96.69 202.83 104.3 208.2 106.04 219.29 107.97 223.66 110.33 225.63 113.35 225.74 119.44 224.16 121.15 223.36 123.14 223.71 126.26 227.79 128.5 229.41 128.58 225.63 126.53 222.05 124.31 221.48 123.58 221.97 120.48 220 119.32 218.98 116.81 218.47 115.69 217.49 114.29 217.48 113.17 216.26 115.23 211.63 114.99 210.44 116.16 207.23 116.31 205.67 115.88 202.15 116.37 200.76 115.47 199.71 114.64 197.15 115.78 192.85 115.72 190.31 116.1 185.1 115.57 182.29 115.61 180.14 116.91 177.44 117.36 175.64 117.21 171.89 119.23 167.1 119.85 162.94 119.2 160.4 119.42 158.4 120.4 157.35 121.18 154.56 121.32 151.55 121.79 148.15 121.42 147.38 121.63 144.91 122.93 142.18 123.18 140.75 125.24 139.85 125.14 136.93 123.7 134.73 124.86 130.36 124.68 128.76 125.5 128.12 126.84 125.76 128.59 125.15 131.97 124.42 133.63 122.42 134.79 118.85 134.28 115.1 133.56 112.47 133.61 111.08 132.95 110.3 132.12 107.54 131.59 106.8 130.6 103.26 130.93 101.57 132.89 99.9 132.91 96.85 132.44 95.27 133.61 91.54 132.61 88.66 132.8 87.5 132 85.9 132.96 83.47 134.45 77.75 136.21 76.8 137.8 75.44 139.13 74.93 140.14 73.33 142.32 70.8 144.26 69.18 146.81 65.92 147.98 65.48 150.57 60.65 152.8 58.11 155.61 56.39 156.47 56.29 158.5 54.69 161.31 53.12 165.36 51.55 167.84 51.41 169.3 50.24 171.34 49.52 172 48.25 173.7 47.48 176.65 45.43 179.18 46.97 182.55 47.84 184.15 47.02 187 48.17 187.84 48.82 190.57 49.73 192.76 50 193.68 51.05 193.4 51.97 193.13 56.97 191.88 61.5 192.48 65.83 193.92 67.77 195.11 69.97 195.49 72.34 196.62 84.33 196.01 86.37 196.25 87.54 198.04 90.23 198.86 90.3 201.81 92.61 202.43 95.84 204.45 97.39 205.04 100.1 204.55 104.63 204.81 108.08 204.44 109.09 205.89 113.33 208.14 116.24 209.6 119.2 Z" id="32550340"/>
<path d="M 769.91 120.84 768.49 122.33 767.62 123.83 766.41 124.14 763.14 127.95 762.63 129.39 762.3 132.38 761.09 133.44 761.65 134.6 760.18 137.16 761.82 140.82 762.25 143.93 761.19 148.37 760.11 150.89 758.09 152.81 755.59 154.59 754.91 155.58 754.21 160.3 752.63 161.29 752.5 162.85 750.87 163.86 750.33 165.19 750.96 166.93 751.9 171.51 753.64 173.56 753.82 174.28 755.83 175.23 757.52 179.94 758.7 180.42 762.51 178.91 765.22 179.31 766.8 178.46 768.64 179.22 769.71 179.03 770.98 181.4 772.91 183.7 773.42 185.17 772.06 187.1 771.52 190.84 769.07 194.62 768.2 195.24 767.84 197.87 766.06 201.93 766.28 203.4 767.69 206.2 770.31 208.27 771.85 206.93 773.56 206.44 775.28 205.13 776.45 205.45 780.4 204.28 782.05 202.46 783.38 203.89 785.47 203.93 786.76 204.74 787.82 204.33 788.63 204.95 790.15 203.84 791.44 204.85 793.86 204.7 793.47 205.93 794.06 208.62 796.47 211.05 797.53 215.42 797.17 216.31 798.19 217.8 798 219.99 799 222.48 798.87 224 797.12 224.93 795.66 224.36 793.27 224.27 792.53 226.22 793.79 228.99 796.64 233.29 795.54 236.04 794.44 237.55 793.73 239.46 794.95 241.03 795.94 241.6 795.04 243.59 793.36 246.11 794.07 247.6 791.88 249.57 791.43 251.9 789.14 252.97 785.05 254.36 779.35 255.88 776.73 258.57 773.82 263.94 773.63 266.87 769.48 267.24 768.01 270.67 765.8 272.49 762.95 273.31 759.88 273.33 757.9 275.96 758.11 278.87 758.59 279.3 758.39 285.13 755.16 289.7 751.37 292.83 751.41 294.74 749.79 297.54 749.36 298.94 747.62 302.2 746.03 300.41 743.3 296.51 738.35 296.18 736.31 296.59 729.69 296.13 728.55 296.57 724.71 297.15 719.31 295.67 716.14 293.72 713.47 293.66 711.04 295.17 710.6 298.75 708.96 301.01 705.77 300.74 703.26 299.31 697.78 299.23 694.99 302.05 693.37 302.98 691.68 303.2 689.53 304.17 687.35 306.2 685.46 310.19 685.06 311.83 683.48 314.71 679.78 316.01 676.51 318.16 674.58 321.04 672.93 321.58 671.89 323.34 670.23 325.18 666.38 324.15 664.6 323.91 662.66 322.96 659.33 321.8 657.92 322.83 654.74 327.16 654.92 328.56 652.82 331.38 652.73 333.2 650.23 335.51 650.19 336.77 649.37 338.16 649.37 340.79 649.78 344.23 648.36 347.7 650.5 351.28 650.98 357.35 649.6 359.25 649.94 360.35 649.69 363.98 649.23 366.19 650.08 369.66 648.8 374.29 648.44 376.87 647.17 378.73 646.22 381.28 644.77 382.09 644.58 382.86 642.57 385.37 637.95 389.07 636.67 391.27 633.78 389.97 630.57 388.85 628.64 388.51 627.18 390.03 625.55 392.42 619.66 394.54 618.9 395.37 616.82 396.51 613.23 397.84 612.86 398.61 610.92 399.45 608.5 399.79 605.68 401.32 604.21 404.57 604.6 407.2 605.79 410.09 605.83 411.42 604.49 413.05 601.39 413.72 602.86 415.83 603.41 418.6 602.42 420.66 598.72 421.55 597.22 422.14 596.03 425.77 595.58 428.98 594.35 430.56 593.03 431.56 592.35 433.15 591.51 436.44 591.25 439.02 589.65 440.28 586.56 440.18 585.26 442.24 585.16 443.17 585.99 450.33 584.1 451.24 583.57 452.23 583.58 454.36 582.43 455.96 582.76 460.01 581.12 460.93 580.78 462.17 580.91 465.35 580.34 466.85 578.68 467.83 580.06 470.37 580.14 471.61 578.44 472.83 575.48 473.89 575.42 475.47 576.63 477.53 576.39 478.5 575.05 480.2 575.7 481.92 575.17 483.22 576.61 486.65 576.23 488.43 573.55 489.28 572.88 490.11 572.75 491.62 571.58 493.85 572 500.91 571.74 501.99 572.39 503.48 570.92 504.97 570.84 506.74 569.84 508.92 570.06 511.93 569.42 514.5 567.81 518.33 567.05 524.88 567.1 526.49 564.02 526.72 562.78 525.72 559.48 523.71 560.37 522.16 559.76 520.21 559.5 517.75 558.99 516.86 554.63 512.58 554.6 511.28 553.91 510.15 553.64 508.06 550.64 505.31 550.16 502.95 547.98 500.72 546.73 500.8 544.16 498.3 543.84 497.35 538.83 493.67 538.5 492.36 534.74 488.93 532.51 485.96 532.1 484.69 529.39 482.99 526.44 482.49 520.66 480.98 517.86 479.65 518.28 478.5 519.61 476.99 522.89 474.96 523.35 473.3 522.7 471.02 522.8 466.08 527.99 459.02 527.84 456.93 528.57 453.83 529.29 452.6 529.19 450.27 529.93 448.25 530.93 447.04 529.82 445.43 528.59 442.39 528.23 440.71 525.91 438.74 525.94 435.95 527.5 433.92 530.67 432.07 530.76 431.16 533.19 428.62 533.9 426 532.22 423.88 531.55 421.62 532.11 418.8 531.64 414.5 532.77 411.72 533.07 409.81 534.01 408.6 535.36 405.48 534.32 404.78 530.19 404.67 526.89 407.04 521.92 408.75 518.34 409.02 515.74 407.3 514.03 403.5 511.7 402.02 511.36 400.39 509.5 398.37 508.79 396.76 507.71 395.92 506.03 395.57 502.15 392.88 499.63 393.59 498.44 393.45 494.9 394.67 491.22 394.12 490.12 392.57 488.72 391.76 485.16 395.36 480.87 396.92 480.78 398.69 479.65 399.82 477.14 400.66 472.28 401.61 470.29 400.87 468.41 400.6 468.2 399.58 465.68 398.63 465.14 397.36 462.81 395.35 462.27 393.73 462.37 392.37 460.95 389.58 461.01 387.97 459.37 383.79 459.05 382.32 457.84 381.21 456.99 376.96 455.44 375.59 453.42 376.27 451.44 374.93 448.39 373.72 446.05 373.98 443.06 370.33 440.35 369.88 437.96 364.67 439.35 362.4 442.24 356.73 443.45 355.14 442.98 352.63 443.32 351.17 443.04 349.69 446.33 342.88 448.11 341.57 450.89 338.87 452.92 337.51 455.03 336.57 456.45 336.87 458.52 336.61 460.52 335.08 462.05 333.5 464.93 333.25 466.08 331.14 467.7 329.16 467.15 326.04 463.2 322.72 462.21 319.51 463.85 313.15 466.02 309.84 462.91 308.62 463.53 299.91 463.9 296.91 463.52 295.39 464.69 288.47 462.43 284.14 461.68 283.82 460.81 281.7 462.11 278.56 461.88 277.18 459.99 275.19 458.9 275.02 458.1 270.49 455.84 266.87 454.56 266.73 453.32 265.86 451.8 265.86 451.1 265.12 449.2 264.31 446.91 261.62 445.03 259.78 441.8 253.92 440.83 251.77 440.44 248.74 438.84 246.88 438.73 244.93 438.24 243.37 439.48 241.25 437.28 239.31 436.43 237.71 434.19 234.87 433.84 233.69 432.38 233.18 430.22 233.02 432.79 230.55 434.37 230.21 436.76 230.41 437.84 231.09 440.11 230.67 441.71 229.07 447.05 227.34 450.28 227.15 452.13 226.02 454.19 223.94 457.27 223.95 458.62 223.38 459.68 220.37 460.95 218.05 464.64 215.05 465.24 213.14 465.43 210.72 465.16 208.56 464.16 205.35 466.55 204.24 471.48 200.89 473.29 198.49 474.52 198.65 476.61 196.02 475.99 195.2 475.58 190.75 476.13 187.98 476.02 186.78 477.17 185.38 480.11 184.43 482.48 185.79 484.09 185.57 486.21 186.24 488.23 185.82 488.24 184.89 489.6 183.23 491.45 182.86 492.11 183.67 494.67 184.94 495.81 185.02 498.01 184.39 499.69 185.16 502.89 187.42 506.95 189.47 507.2 189.35 510.59 187.64 512.46 187.13 514.14 184.81 518.66 181.16 522.11 179.59 525.09 178.54 527.41 178.08 530.96 176.58 532.27 175.68 534.61 174.71 536.09 172.78 536.33 171.32 537.75 169.88 540.23 168.27 543.3 168.8 544.46 169.53 548.17 170.61 550.95 170.36 553.57 167.84 555.39 169.16 559.81 166.44 561.81 164.7 563.65 164.09 564.95 162.37 564.12 160.93 564.11 159.55 566.46 155.05 566.56 153.56 565.56 152.15 563.37 150.58 563.73 149.82 568.5 146.78 569.17 147.21 571.47 146.16 571.82 145.12 573.34 144.64 574.04 141.72 574.07 140.4 572.76 139.47 572.04 137.5 572.34 136.67 572.14 132.86 573.49 130.83 575.69 126.3 574.81 124.4 574.47 119.61 574.89 117.42 576.88 117.48 577.14 116.19 578.15 115.72 578.83 113.76 579.85 113.57 580.52 112.26 580.75 110.59 581.45 109.75 581.02 108 581.98 106.64 581.71 104.23 582.21 103.4 581.44 102.17 581.76 101.08 580.57 99.83 580.48 95.54 581.94 94.78 583.29 92.91 583.38 91.21 584.34 89.13 584.12 87.72 584.76 86.18 584.98 83.3 584.53 81.55 581.38 79.89 580.19 78.67 580.53 76.27 580.31 74.07 580.44 71.39 579.32 67.64 583.35 63.87 583.31 62.25 584.7 61.33 585.62 59.53 585.26 52.52 584.16 48.35 585.13 45.8 586.01 41.64 587.01 38.43 588.49 36.94 590.42 35.83 590.63 34.07 591.57 31.85 593.04 30.2 594.73 30.27 596.96 26.01 597.32 24.18 596.88 23.46 597.7 21.72 598.42 18.88 599.92 18.12 599.19 16.14 600.12 15.07 600.52 13.21 601.85 11.41 602.52 8.09 606.7 8.77 609.46 10.4 612.09 6.96 616.21 4.75 617.2 2.06 620.46 1 622.23 1.03 627.61 2.28 628.59 3.74 630.17 9.88 631.69 10.35 634.12 10.08 637.16 11.39 638.61 13.42 639.66 13.99 642.67 13.48 642.33 16.96 644.3 19.03 643.61 23.6 645.87 25.86 645.58 28.88 646.31 31.57 647.57 37.98 648.93 39.73 648.67 44.09 649.29 44.89 653.72 44.93 654.94 47.13 655.74 51.12 656.65 53.89 654.62 56.66 654.23 61.28 655.31 61.74 656.44 65.74 655.59 68.97 656.18 73.18 655.07 78.08 656.03 79.65 656.5 82.17 657.28 83.94 660.44 83.93 662.12 83.55 666.81 83 669.14 83.22 670.49 84.65 671.72 85.09 672.38 86.58 671.94 88.52 672.83 90.6 674.79 93.16 676.25 92.54 676.9 91.41 679.49 92.06 680.72 93.75 684.44 94.52 687.63 94.88 688.96 94.48 690.19 95.7 691.67 98.97 691.68 99.81 692.95 100.5 694.58 102.98 697.32 104.15 699.2 103.52 700.15 104.49 701.14 107.08 700.89 109.95 702.54 111.61 704.12 111.5 705.24 113.04 706.74 112.71 710.02 113.71 711.17 113.05 715.29 112.83 716.16 111.94 717.25 111.96 719.15 110.51 719.17 109.8 720.93 107.41 723.72 106.26 724.22 107.03 729.76 109.34 731.26 108.78 731.99 107.33 736.55 105.33 739.4 105.48 742.83 101.71 742.17 100.48 744.66 98.87 746.81 95.8 746.91 93.39 746.4 90.88 749.18 90.1 750.1 92.16 750.69 95.82 751.98 101.65 755.77 104.11 758.14 107.43 761.27 108.8 761.29 110.99 764.2 114.67 766.17 114.48 767.79 115.46 767.85 117.73 769.91 120.84 Z" id="32550350"/>
<path d="M 567.1 526.49 568.14 527.49 572.34 524.14 573.39 524.45 576.67 524.14 578.75 524.32 581.78 525.15 582.97 525.74 584.39 525.25 587.51 526.24 590.91 527.65 592.33 528.85 594.06 528.98 596.19 529.93 598.05 528.76 601.79 528.79 602.86 532.47 603.77 534.32 603.87 536.12 604.86 538.13 604.87 540.16 606.29 542.97 606.45 545.89 607.36 548.52 608.55 549.23 609.87 551.2 613.01 553.53 617.35 555.61 617.88 555.67 620.82 559.86 618.42 561.9 615.75 563.83 614.45 565.11 612.44 566.28 610.41 569.14 608.05 570.09 606.9 573.13 602.99 579.26 603.98 583.86 600.6 584.95 599.44 585.59 597.26 588.01 595.11 589.84 593.4 592.4 591.28 594.89 591.1 598.79 589.31 601.15 589.66 603.98 589.66 606.82 590.01 609.57 590.64 609.89 590.95 612 591.77 613.87 592.94 614.65 594.92 617.16 597.81 617.81 599.03 618.93 599.7 620.69 602 623.78 604.45 623.72 606 624.07 608.61 625.85 610.58 626.51 612.9 629.92 613.09 631.83 612.21 634.11 612.78 635.23 612.08 637.09 612.06 641.79 614.16 645.02 614.56 647.2 615.84 648.45 617.49 649.37 618.91 650.72 621.26 653.56 626.43 654.26 628.26 654.03 630.06 655.17 631.06 656.95 632.75 657.51 634.28 656.83 639.42 658.18 640.69 658.91 640.02 661.86 639.92 663.88 638.97 664.9 637.18 665.2 635.03 664.79 632.88 665.41 629.8 667.6 628.49 673.68 628.12 676.17 627.64 676.68 627.13 680.39 626.51 682.05 629.64 686.15 632.56 688.08 636.89 687.76 638.08 688.39 638.66 690.21 640.95 694.28 643.3 696.74 646.01 700.27 646.27 701.87 647.09 703.06 649.53 703.53 651.51 705.29 652.27 706.93 652.54 709.07 654.58 710.37 655.38 711.88 654.96 713.85 656.76 714.83 657.21 715.59 657.74 719.91 658.13 721.26 660.27 724.12 661.22 724.97 662.07 727.04 661.98 732.69 660.71 735.11 660.33 736.89 659.09 739.2 658.79 741.58 659.84 743.53 660.86 744.04 661.37 745.5 661.15 746.88 662.52 748.36 663.22 752.24 664.88 752.97 666.58 756.5 668.68 758.22 668.69 759.42 667.49 762.71 667.39 764.33 668.38 769.65 669.84 772.52 670.69 775.59 670.86 778.78 671.79 779.19 668.96 780.92 664.06 782.88 661.64 782.18 661.44 782.89 658.4 784.35 654.71 784.25 653.03 782.43 649.91 779.53 649.69 778.09 647.2 777.37 643.69 777.42 642.25 776.65 639.3 775.79 639.3 774.29 636.9 773.43 635.4 772.07 634.53 765.25 633.43 763.77 633.12 761.76 633.77 757.28 632.41 755.75 632.09 753.45 632.16 748.99 632.6 748.63 633.01 746.2 631.78 743.96 631.08 741.2 631.94 738.95 631.71 735.65 632.03 733.36 631.65 732.75 630.97 729 630.36 727.56 630.13 724.16 630.15 720.78 629.21 720.19 627.73 718.2 622.17 717.13 620.92 716.37 618.33 718.52 614.9 716.11 612.23 715.5 610.34 714.65 608.75 712.93 607.13 712.5 603.49 710.56 598.31 711.09 596.44 712.64 594.93 711.74 591.73 708.99 589.69 709.01 588.04 710.14 584.88 709.58 582.82 707.7 580.38 707.22 578.97 705.56 572.27 698.55 570.7 697.6 567.98 693.93 568.26 689.05 566.99 686.97 566.14 683.77 564.7 683.16 564.15 679.85 564.15 677.61 565 676.05 564.39 675.04 560.8 667.11 560.68 665.18 558.66 663.04 558.36 660.4 557.82 659.62 556.01 655.42 554.98 654.24 553.5 653.79 553.17 652.25 548.66 648 547.14 647.88 546.98 646.96 545.42 645.21 544.58 641.99 540.79 640.33 539.02 639.03 535.22 638.24 533.8 639.22 532.43 639.54 526.05 639.56 524.47 641.82 521.85 643.6 520.53 645.36 519.91 647.09 514.93 647.27 512.39 648.08 510.65 645.46 511.05 643.14 509.85 641.35 509.46 639.32 508.18 638.67 504.58 635.11 501.89 633.39 500.09 632.71 496.76 632.25 495.89 631.77 494.34 629.35 492.97 629.09 491.73 628.15 487.89 629.85 485.21 629.25 483.74 629.45 481.73 628.71 479.21 630.22 478.11 630.23 475.59 632.93 472.5 632.95 471.33 633.25 466.04 632.32 462.76 631.14 459.6 630.69 459.39 629.76 457.01 626.48 456.19 624.89 455.75 621.25 454.59 616.64 455.91 612.3 455.16 609.53 452.39 608.47 450.47 605.64 445.32 602.28 443.85 601.13 440.15 603.18 438.4 602.94 434.43 601.71 431.26 603.14 428.47 603.86 427.59 600.01 425.09 598.14 424.46 594.22 422.4 594.28 420.62 593.48 418.97 593.71 418.41 592.25 415.6 590.61 414.66 589.25 411.84 589.36 410.33 586.22 405.66 583.29 405.29 581.97 402.45 582.02 401.97 582.51 398.84 581.72 397.4 579.52 397.74 576.39 395.6 574.14 395.79 570.54 396.49 567.73 395.61 566.63 394.99 564.59 394.1 563.33 394.42 561 392.42 559.08 392.27 557.46 391.14 556.29 389.98 554.33 389.66 553.1 388.07 550.76 384.46 546.08 383.28 543.97 380.98 545.07 379.83 546.47 377.3 547.63 376.02 548.74 374.21 549.35 370.55 551.16 368.99 549.04 366.6 548.11 364.65 547.01 362.64 545.32 361.07 544.5 359.8 544.72 357.75 542.62 355.06 542.19 353.63 540.65 351.25 539.06 351.66 537.49 352.83 535.29 352.95 533.81 354.1 531.77 353.75 529.67 354.29 526.79 352.72 524.07 352.35 522.69 354.04 518.19 353.96 517.01 355.19 514.11 355 509.67 356.77 508.37 358.78 507.63 359.94 506.56 359.06 503.7 359.04 502.22 360.44 501.11 361.39 501.39 361.08 499.08 359.85 496.06 360.74 494.14 361.79 493.08 364.56 489.21 366.2 488.21 369.02 488.44 372.09 486.55 373.08 485.31 374.99 485.87 377.58 486.01 379.18 486.47 381.11 486.23 382.75 488.36 385.15 488.79 388.24 488.47 389.57 488.66 391.4 488.09 393.49 488.2 395.06 487.86 396.69 488.12 401.62 485.34 404.93 485.76 409.05 482.79 411.93 481.4 413.34 482.08 414.51 477.34 415.54 474.79 415.59 472.16 415.1 470.53 415.21 466.5 414.87 465.79 415.34 463.38 416.14 462.88 414.81 460.53 414.44 458.74 417.17 454.7 418.71 453.64 419.07 451.91 420.14 450.97 419.99 447.42 418.41 444.46 419.11 442.4 419.46 439.84 419.6 435.53 418.83 434.15 419.1 431.62 418.58 429.83 417.26 429.26 416.67 427.42 415.06 426.78 411.43 423.02 409.21 421.06 406.79 419.88 402.03 418.9 399.72 417.25 398.27 417.77 397.7 416.91 398.24 414.83 399.72 412.7 401.14 411.41 400.75 409.48 401.13 407.75 400.23 405.68 401.91 402.68 402.22 400.55 405.09 399.33 406.72 398.18 408.71 397.83 408.9 396.84 411.59 394.65 411.29 393.03 413.1 392.87 414.23 392.15 418.04 391.4 419.31 389.4 421.39 387.58 425.03 386.59 425.64 385.52 427.15 384.32 427.46 381.01 429.13 380.2 430.51 378.35 431.74 377.73 433.55 376.04 437.78 373.65 438.93 371.34 440.35 369.88 443.06 370.33 446.05 373.98 448.39 373.72 451.44 374.93 453.42 376.27 455.44 375.59 456.99 376.96 457.84 381.21 459.05 382.32 459.37 383.79 461.01 387.97 460.95 389.58 462.37 392.37 462.27 393.73 462.81 395.35 465.14 397.36 465.68 398.63 468.2 399.58 468.41 400.6 470.29 400.87 472.28 401.61 477.14 400.66 479.65 399.82 480.78 398.69 480.87 396.92 485.16 395.36 488.72 391.76 490.12 392.57 491.22 394.12 494.9 394.67 498.44 393.45 499.63 393.59 502.15 392.88 506.03 395.57 507.71 395.92 508.79 396.76 509.5 398.37 511.36 400.39 511.7 402.02 514.03 403.5 515.74 407.3 518.34 409.02 521.92 408.75 526.89 407.04 530.19 404.67 534.32 404.78 535.36 405.48 534.01 408.6 533.07 409.81 532.77 411.72 531.64 414.5 532.11 418.8 531.55 421.62 532.22 423.88 533.9 426 533.19 428.62 530.76 431.16 530.67 432.07 527.5 433.92 525.94 435.95 525.91 438.74 528.23 440.71 528.59 442.39 529.82 445.43 530.93 447.04 529.93 448.25 529.19 450.27 529.29 452.6 528.57 453.83 527.84 456.93 527.99 459.02 522.8 466.08 522.7 471.02 523.35 473.3 522.89 474.96 519.61 476.99 518.28 478.5 517.86 479.65 520.66 480.98 526.44 482.49 529.39 482.99 532.1 484.69 532.51 485.96 534.74 488.93 538.5 492.36 538.83 493.67 543.84 497.35 544.16 498.3 546.73 500.8 547.98 500.72 550.16 502.95 550.64 505.31 553.64 508.06 553.91 510.15 554.6 511.28 554.63 512.58 558.99 516.86 559.5 517.75 559.76 520.21 560.37 522.16 559.48 523.71 562.78 525.72 564.02 526.72 567.1 526.49 Z" id="32550360"/>
<path d="M 281.78 55.3 282.17 57.02 281.75 61.12 282.92 62.94 286.75 65.39 289.65 68.55 290.69 71.89 290.33 76.24 289.51 78.4 289.75 81.56 292.32 83.91 293.8 84.37 294.61 86.02 296.9 87.3 298.26 90.34 299.09 90.94 299.82 93.9 300.4 97.66 303.11 101.61 303.77 104.3 305.32 108.57 305.47 110.4 306.94 111.37 307.79 114.26 309.03 114.74 311.05 116.18 312.31 119.07 313.92 121.35 316.16 123.66 317.43 123.86 319.2 124.83 320.57 126.23 323.8 126.42 324.88 126.79 327.67 131.14 329.7 132.66 334.63 133.96 341.35 133.65 343.17 134.44 346.38 134.82 349.09 136.99 350.8 139.5 352.56 138.5 354.98 133.98 355.49 130.51 355.07 128.15 355.71 126.59 358.12 124.35 362.82 120.34 363.56 118 365.58 115.6 367.68 111.76 369.63 110.34 371.11 107.61 375.26 105.81 377.06 103.64 377.28 102.56 378.69 100.39 379.62 99.93 382.23 99.56 385.03 101.79 387.48 103.15 388.77 103.19 391.02 102.52 392.15 101.07 393.42 100.7 396.49 101.6 397.89 100.86 399.73 101.47 403.37 104.19 405.89 104.54 409.92 106.32 411.19 107.08 412.33 108.46 414.98 110.18 416.71 110.98 418.1 110.93 420.12 111.66 422.42 110.41 424.42 108.96 428.35 107.08 430.37 107.9 432.67 107.8 436.61 108.36 438.55 108.18 440.14 108.65 445.41 105.64 449.77 106.39 451.33 106.94 458.26 111.06 458.98 112.15 461.5 111.95 462.84 113.76 464.94 114.04 467.85 115.51 471.47 119.68 471.14 121.22 469.94 123.6 470.1 128.87 472.31 131.95 472.98 135 476.9 135.23 478.48 136.6 479.34 139.17 480.39 139.65 478.8 141.35 479.59 143.01 479.43 147.89 479.1 149.3 479.7 151.3 480.83 152.65 480.7 154.82 480.23 155.86 479.91 158.4 482.58 160.66 483.17 161.89 488.27 165.09 493.21 167.73 494.83 167.99 497.32 169.26 497.37 171.17 498.31 172.3 501.08 173.84 502.15 175.51 503.52 175.64 504.49 177.93 504.38 179.65 506.9 181.37 508.31 183.05 507.2 189.35 506.95 189.47 502.89 187.42 499.69 185.16 498.01 184.39 495.81 185.02 494.67 184.94 492.11 183.67 491.45 182.86 489.6 183.23 488.24 184.89 488.23 185.82 486.21 186.24 484.09 185.57 482.48 185.79 480.11 184.43 477.17 185.38 476.02 186.78 476.13 187.98 475.58 190.75 475.99 195.2 476.61 196.02 474.52 198.65 473.29 198.49 471.48 200.89 466.55 204.24 464.16 205.35 465.16 208.56 465.43 210.72 465.24 213.14 464.64 215.05 460.95 218.05 459.68 220.37 458.62 223.38 457.27 223.95 454.19 223.94 452.13 226.02 450.28 227.15 447.05 227.34 441.71 229.07 440.11 230.67 437.84 231.09 436.76 230.41 434.37 230.21 432.79 230.55 430.22 233.02 432.38 233.18 433.84 233.69 434.19 234.87 436.43 237.71 437.28 239.31 439.48 241.25 438.24 243.37 438.73 244.93 438.84 246.88 440.44 248.74 440.83 251.77 441.8 253.92 445.03 259.78 446.91 261.62 449.2 264.31 451.1 265.12 451.8 265.86 453.32 265.86 454.56 266.73 455.84 266.87 458.1 270.49 458.9 275.02 459.99 275.19 461.88 277.18 462.11 278.56 460.81 281.7 461.68 283.82 462.43 284.14 464.69 288.47 463.52 295.39 463.9 296.91 463.53 299.91 462.91 308.62 466.02 309.84 463.85 313.15 462.21 319.51 463.2 322.72 467.15 326.04 467.7 329.16 466.08 331.14 464.93 333.25 462.05 333.5 460.52 335.08 458.52 336.61 456.45 336.87 455.03 336.57 452.92 337.51 450.89 338.87 448.11 341.57 446.33 342.88 443.04 349.69 443.32 351.17 442.98 352.63 443.45 355.14 442.24 356.73 439.35 362.4 437.96 364.67 440.35 369.88 438.93 371.34 437.78 373.65 433.55 376.04 431.74 377.73 430.51 378.35 429.13 380.2 427.46 381.01 427.15 384.32 425.64 385.52 425.03 386.59 421.39 387.58 419.31 389.4 418.04 391.4 414.23 392.15 413.1 392.87 411.29 393.03 411.59 394.65 408.9 396.84 408.71 397.83 406.72 398.18 405.09 399.33 402.22 400.55 399.63 396.57 398.66 396 397.71 394.41 395.6 394.28 393.82 393.06 390.59 392.12 388.27 390.79 385.96 391.25 384.24 390.45 381.8 390.29 379.51 389.31 377.11 389.66 373.79 388.7 372.79 388.07 372.82 385.7 371.37 383.52 369.4 382.16 369.31 379.59 369.15 378.2 367.11 376.52 365.95 374.86 362.32 371.17 361.06 369.39 360.93 366.99 360.25 365.6 357.7 364.44 356.78 362.03 354.92 359.96 355.02 358.26 353.76 357.31 350.56 352.9 347.47 353.52 344.03 352.75 342.59 351.99 339.33 348.57 338.58 344.28 339.09 341.42 337.09 338.64 334.14 338.22 331.34 336.39 328.06 336.72 326.37 335.46 324.38 335.26 322.4 334.09 321.73 331.58 320.23 330.8 318.79 328.73 316.32 326.65 316.21 324.03 315.7 321.67 320.28 316.18 322.03 312.84 324.23 309.94 326.08 309.15 325.15 306 325.19 302.01 322.49 296.35 317.65 288.47 316.15 282.89 319.31 281.87 324.89 278.94 328.47 276.29 333.3 272.28 335.18 271.22 335.22 268.7 335.84 265.99 336.14 261.94 333.54 258.05 332.18 254.54 331.99 251.15 331.16 249.26 331.16 247.89 329.39 249.29 325.35 248.15 319.65 244.34 319.02 244.43 314.89 242.86 310.82 240.34 308.26 239.06 305.98 238.34 302.77 236.42 303.81 233.1 302.03 229.24 302.14 224.91 303.06 223.02 303.04 221.92 301.08 220.15 300.96 218.09 300.17 216.32 298.33 213.22 297.31 212.7 296.17 211.1 292.15 209.96 290.54 208.87 288.26 208.23 287.27 205.79 287.18 203.86 285.38 196.36 285.5 192.78 283.34 190.6 281.35 184.57 280.53 183.01 275.8 180.94 273.86 179.76 269.85 179.22 266.58 175.25 262.85 175.05 260.13 174.64 257.81 174.83 255.23 174.15 251.39 172.54 249.5 172.29 248.17 173.07 242.51 175.35 239.62 173.82 235.44 173.09 232.74 171.59 228.87 167.86 228.56 165.82 226.1 161.05 222.3 155.74 221.13 153.71 220.25 151.19 220.85 148.01 220.33 146.91 218.69 146.43 217.28 146.76 211.24 144.05 210.16 144.03 208.68 142.35 207.83 140.7 207.79 139.3 205.91 138.58 204.28 134.32 204.16 133.41 207.42 130.54 208.07 129.58 207.91 127.81 210.06 123.17 209.43 121.18 209.6 119.2 210.94 119.22 213.48 118.6 216.43 117.42 219.07 116.98 221.57 115.27 220.54 112.05 220.93 107.62 222.33 103.33 222.92 100.63 225.26 95.2 225.53 92.85 226.44 91.03 228.12 90.64 230.56 88.95 232.83 88.16 235.41 86.7 238.34 86.77 241.74 85.12 244.64 86.2 246.18 85.57 249.36 84.87 251.14 85.38 254.12 84.61 255.06 83.86 256.58 83.9 257.85 83.22 259.94 82.96 263.39 81.95 264.44 81.25 267.41 81.07 270.96 82.32 271.45 82.98 273.88 84.4 273.08 81.28 272.75 77.78 271.54 76.04 267.37 76.3 264.33 74.37 263.76 73.29 264.5 68.58 264 65.58 264.09 60.33 262.58 57.99 264.42 56.11 267.5 56.57 272.32 55.12 274.21 54.12 275.28 54.37 277.66 53.83 278.28 54.27 281.78 55.3 Z" id="32550370"/>
<path d="M 94.6 283.82 97.15 285.86 100.36 285.97 103.48 288.6 105.02 290.47 106.54 292.89 107.03 294.74 108.94 296.87 109.45 298.23 114.72 299.35 115.3 300.01 118.3 300.16 121.17 301.6 124.06 303.61 125.7 306.05 129.61 307.2 136.04 308.44 138.11 308.45 141.05 311.19 145.78 313.24 147.13 313.57 149.39 316.23 151.66 317.55 153.16 320.72 154.77 323.09 154.87 325.39 153.43 326.76 152.84 328.42 153.51 330.21 153.63 332.65 154.45 335.55 156.49 336.3 159.29 336.75 160.05 337.19 163.57 337.93 166.09 339.69 168.39 339.64 171.06 340.33 172.78 339.71 175.74 341.1 181.23 341.84 184.97 341.12 186.31 340.46 188.11 338.92 190.1 340.85 194.39 342.4 196.06 343.68 198.66 345.02 198.7 346.18 199.58 348.03 200.75 349.19 202.75 350.42 204.32 351.84 205.93 352.65 207.91 355.2 208.32 358.04 209.45 360.08 211.32 361.71 214.07 367.52 215.34 372.57 215.09 375.37 213.29 379.92 214.09 383.42 215 386.15 217.66 388.1 219.47 390.18 220.24 391.96 220.09 394.35 221.8 396.19 223.61 396.81 226.85 394.74 227.47 392.55 228.18 391.63 231.36 390.92 232.32 389.7 233.8 389.27 235.96 390.09 237.63 391.85 239.08 391.62 242.25 393.18 244.09 393.66 246.28 393.46 249.09 392.36 250.85 392.22 251.44 390.46 253.23 388.25 254.3 386.19 254.52 384.38 255.72 382.21 255.68 378.94 254.36 375.86 253.68 370.59 252.91 367.23 253.24 364.12 258.74 364.78 261.84 365.93 264.26 365.95 264.21 367.14 268.15 368.54 272.41 371.3 275.27 374.49 277.31 377.23 278.91 378.3 280.97 380.36 284.66 385.35 286.05 388 288.55 389.66 290.67 389.71 292.85 389.36 294.31 388.58 297.58 385.46 300.08 382.47 304.44 379.53 307.27 379.13 311.5 377.91 317.56 377.46 323.25 378.69 326.32 379.66 329.78 381.42 332.94 383.64 335.05 386.38 335.2 387.82 334.28 390.18 337.38 391.87 341.37 392.49 344.05 395.04 346.46 394.88 348.92 394.04 351.48 394.56 353.96 391.01 356.09 390.84 358.98 388.62 361.46 387.31 363.8 385.31 364.66 382.3 366.7 380.61 369.31 379.59 369.4 382.16 371.37 383.52 372.82 385.7 372.79 388.07 373.79 388.7 377.11 389.66 379.51 389.31 381.8 390.29 384.24 390.45 385.96 391.25 388.27 390.79 390.59 392.12 393.82 393.06 395.6 394.28 397.71 394.41 398.66 396 399.63 396.57 402.22 400.55 401.91 402.68 400.23 405.68 401.13 407.75 400.75 409.48 401.14 411.41 399.72 412.7 398.24 414.83 397.7 416.91 398.27 417.77 399.72 417.25 402.03 418.9 406.79 419.88 409.21 421.06 411.43 423.02 415.06 426.78 416.67 427.42 417.26 429.26 418.58 429.83 419.1 431.62 418.83 434.15 419.6 435.53 419.46 439.84 419.11 442.4 418.41 444.46 419.99 447.42 420.14 450.97 419.07 451.91 418.71 453.64 417.17 454.7 414.44 458.74 414.81 460.53 416.14 462.88 415.34 463.38 414.87 465.79 415.21 466.5 415.1 470.53 415.59 472.16 415.54 474.79 414.51 477.34 413.34 482.08 411.93 481.4 409.05 482.79 404.93 485.76 401.62 485.34 396.69 488.12 395.06 487.86 393.49 488.2 391.4 488.09 389.57 488.66 388.24 488.47 385.15 488.79 382.75 488.36 381.11 486.23 379.18 486.47 377.58 486.01 374.99 485.87 373.08 485.31 372.09 486.55 369.02 488.44 366.2 488.21 364.56 489.21 361.79 493.08 360.74 494.14 359.85 496.06 361.08 499.08 361.39 501.39 360.44 501.11 359.04 502.22 359.06 503.7 359.94 506.56 358.78 507.63 356.77 508.37 355 509.67 355.19 514.11 353.96 517.01 354.04 518.19 352.35 522.69 352.72 524.07 354.29 526.79 353.75 529.67 354.1 531.77 352.95 533.81 352.83 535.29 351.66 537.49 351.25 539.06 348.83 538.97 344.57 539.42 343.58 538.64 341.2 538.11 338.62 536.04 337.94 534.42 335.21 531.26 333.69 531.31 331.83 532.42 328.93 532.84 326.15 532.47 324.11 532.84 321.48 532.66 320.59 533.32 318.04 533.67 317.38 534.44 314.92 534.98 313.01 536.14 312.52 537.52 310.95 537.91 310.34 537.29 308.48 536.8 305.29 533.24 304.2 534.17 303.01 534.12 302.28 535.03 299.02 535.95 297.11 534.69 292.14 535.34 288.08 532.79 286.51 534.05 284.78 533.97 283.46 532.72 280.15 531.59 278.21 532.6 275.26 529.99 274.74 528.58 273.27 526.29 271.31 526.1 269.25 528.26 266.51 529.59 264.62 530.84 263.41 530.38 261.93 530.7 260.89 531.64 258.33 530.82 253.47 532.55 251.72 533.52 248.86 534.2 246.65 535.77 245.2 533.32 238.91 534.02 238.48 534.45 235.25 533.1 231.98 532.34 229.53 533.36 227.05 538.29 226.89 539.21 225.04 538.1 222.39 535.74 222.36 538.41 223.27 542.59 223.74 548.46 224.17 551.55 224.65 553.01 224.64 555.91 225.69 558.97 226.65 559.57 227.01 562.83 227.01 565.66 227.39 567.84 229.22 569.46 229.67 572.34 231.96 577.06 233.28 580.23 232.65 581.41 232.52 583.79 234.21 586.82 237.53 589.86 237.96 592.74 238.97 594.2 239.4 596.09 241.28 598.02 244.35 600.27 246.28 600.73 246.67 602.02 247.62 603 249.38 606.52 252.32 609.03 252.3 610.48 253.62 613.73 253.35 616.83 252.77 620.35 253.93 622.31 255.61 623.57 255.99 624.53 258 626.1 258.24 628.49 257.47 632.5 257.68 634.52 257.26 636.32 258.53 637.44 260.3 642.1 260.42 643.75 262.18 647.6 259.98 647.92 258.55 649.88 256.62 651.68 257.12 653.13 257.32 655.39 256.99 656.68 255.58 659.31 256.01 661.28 255.12 663.1 252.99 662.12 251.23 660.42 249.64 660.23 247.73 658.78 246.01 656.25 244.22 655.6 240.12 654.96 238.12 651.76 237.6 648.97 235.61 649.16 234.26 647.63 232.59 646.98 231.23 645.78 231.82 644.52 231.96 641.8 230.45 640.28 230.17 639.23 228.09 638.02 223.65 638.75 223.23 641.55 222.66 642.6 220.77 643.83 217.84 643.63 215.71 642.86 211.63 636.79 209.14 633.61 205.95 631.39 203.83 629.58 198.75 625.91 196.61 624.01 190.29 619.37 187.47 617.43 184.27 614.93 179.91 614.29 177.37 615.92 176.54 617.79 176.86 620.2 177.01 623.99 176.23 624.74 174.71 623.7 171.87 622.64 171.05 620.85 170.6 618.29 169.25 617.59 167.81 616.11 166.15 616.3 164.6 615.05 163.56 615.16 159.17 612.54 155.74 611.82 154.73 609.33 153.72 607.89 152.17 606.61 150.11 608.41 148.59 607.9 146.52 605.89 144.01 604.45 140.28 603.63 135.05 604.59 133.91 601.21 132.68 600.37 133.76 597.38 133.83 596.23 131.54 595.53 128.37 593.99 126.84 590.96 126.65 589.64 125.02 588.24 123.55 586.2 123.01 583.88 122.11 583.42 121.58 581.29 120.64 579.65 119.91 577.52 120.17 576.03 118.93 574.39 117.91 572.12 116.71 570.83 116.15 567.91 113.62 566.72 111.78 566.28 111.45 565.28 111.9 563.4 111.34 561.7 110.57 561.23 109.9 559.03 110.02 556.89 108.57 553.85 108.19 550.95 108.35 549.14 107.54 547 109.67 544.14 108.74 542.61 107.45 541.4 104.03 536.55 103.42 534.62 103.28 529.39 102.7 526.25 103.2 524.65 100.93 522.15 100.18 520.72 98.54 520.23 96.55 517.97 94.61 517.2 93.09 513.88 90.28 513.26 90 512.2 88.58 510.46 87.18 509.31 84.1 508.59 82.67 507.5 80.59 507.39 79.03 506.05 76.19 505.49 73.08 506.03 71.38 505.27 73.35 500.07 73.13 499.07 74.95 495.97 77.41 495.04 77.59 494.42 79.97 492.37 79.61 489.32 81.55 485.85 81.29 484.91 81.18 479.79 81.34 479.45 80.61 474.47 80.69 472.24 78.95 471.04 75.94 465.7 74.95 461.4 72.24 458.64 71.98 456.65 69.39 454.58 67.86 453.67 67.31 451.49 66.3 449.23 66.34 444.01 67.19 440.75 65.67 439.38 65.44 438.55 63.55 437.61 62.52 437.77 62.27 435.62 62.73 433.78 59.79 429.75 58.35 426.91 59.05 420.33 58.73 418.41 57.72 417.65 56.01 414.76 56.07 412.52 48.97 410.84 47.31 410.95 41.24 412.82 40.07 411.32 38.81 410.82 35.61 408.6 34.86 408.81 32.59 407.41 30.3 406.7 28.64 407.12 27.06 406.61 26.18 405.39 24.2 404.62 21.9 404.45 21.25 404.8 17.25 405.3 14.58 404.02 11.98 400.41 11.13 398.2 8.99 394.1 6.74 393.3 6.52 392.41 5.19 391.33 4.69 390.08 5.07 388.66 4.43 387.19 4.88 384.76 4.07 380.84 1 378.38 1.43 377.38 1.52 374.92 2.15 373.86 5.28 372.29 9.72 368.93 10.18 368.12 13.31 365.15 12.66 360.39 12.77 357.22 13.53 355.89 13.74 353.84 17.2 349.43 18.54 346.8 21.07 344.26 21.96 340.9 20.54 337.85 19.76 329.71 19.88 328.26 17.22 325.69 15.5 322.37 15.6 318.89 15.11 316.8 13.49 315.05 12.18 311.28 11.57 308.83 11.97 306.55 11.69 302.06 12.03 299.46 11.69 298.18 14.48 294.17 16.89 293.61 20.25 291.23 20.34 290.3 23.12 288.27 26.1 287.15 28.03 283.82 28.93 280.27 32.13 280.27 35.71 281.56 37.72 281.28 40.58 282.25 43.46 284.51 45.58 284.2 48.22 284.4 50.68 285.01 57.87 287.51 59.61 288.45 62.27 287.49 63.92 288.19 66.28 288.37 67.88 288.98 72.02 291.51 73.33 291.99 76.17 294.33 79.71 293.02 81.78 290.72 83.92 290.42 86.54 289.4 92.27 285.27 94.6 283.82 Z" id="32550110"/>
<path d="M 633.12 761.76 633.43 763.77 634.53 765.25 635.4 772.07 636.9 773.43 639.3 774.29 639.3 775.79 642.25 776.65 643.69 777.42 647.2 777.37 649.69 778.09 649.91 779.53 653.03 782.43 654.71 784.25 658.4 784.35 661.44 782.89 661.64 782.18 664.06 782.88 668.96 780.92 671.79 779.19 673.78 781.36 675.08 781.54 677.15 783.04 680.14 784.34 681.33 788.33 688.73 791.03 687.87 794.45 688.52 798.03 688.96 801.73 688.2 803.53 688.17 806.06 686.87 808.82 686.21 811.76 683.95 815.64 682.12 819.8 681.77 822.22 682.68 824.15 684.32 826.45 682.88 829.28 683.79 831.92 685.05 834.18 684.14 839.81 684.52 842.44 684.4 845.33 686.04 846.78 686.78 850.86 688.02 855.55 686.64 857.38 686.12 859.31 683.41 862.29 683.17 862.96 684.24 865.28 684.08 866.72 684.72 870.38 686.27 874.23 688.74 876.66 690.25 879.17 691.19 881.97 691.99 885.37 692.2 888.96 693.28 892.01 693.6 893.77 693.4 896.2 692.14 899.89 692.45 902.95 690.88 906.08 690.5 908.26 689.26 911.31 688.07 912.44 685.47 919.48 684.49 921.09 682.77 921.96 679.95 923.96 676.48 924.14 673 923.14 670.77 924.16 667.74 924.52 665.62 926 663.97 924.66 663.17 923.03 661.75 921.83 661.81 919.61 659.58 917.78 656.31 917.3 653.17 915.84 652.9 912.31 651.92 910.22 651.95 907.62 651.07 905.94 651.24 902.11 651.64 901.82 650.68 898.24 648.81 894.78 645.78 893.56 644.34 890.4 641.85 888.62 641.18 886.34 641.55 885.62 641.43 883.37 638.66 881.34 636.79 881.21 634.45 882.43 631.12 881.87 628.44 883.62 617.4 884.95 614.19 883.33 611.4 882.87 609.08 880.83 608.03 881.1 606 880.56 605.44 881.21 601.31 883.11 599.6 882.69 598.16 883.44 596.62 882.88 595.76 883.51 593.56 884.12 589.77 884.43 587.68 884.84 585.24 884.73 582.27 885.64 581.49 886.52 579.11 886.72 576.79 886.01 574.15 886.37 573.37 887.53 572.02 886.96 570.81 887.09 568.92 886.21 566.79 886.38 566.73 885.04 564.39 885.62 564.17 883.36 563.06 881.4 561.13 879.19 559.73 879.12 559.25 877.05 556.71 874.86 555.32 871.44 553.05 868.72 551.44 868.3 547.42 868.27 546.69 869.15 544.11 870.66 541.34 871.05 539.68 870.7 538.28 869.57 535.27 869.23 533.09 869.28 531.04 867.99 528.43 862.81 527.44 861.18 526.74 858.84 525.26 855.89 524.56 853.82 524.4 852.98 525.87 848.34 526.9 838.5 526.76 836.29 526.19 833.08 530.39 826.04 530.32 822.57 531.99 820.83 534.14 812.18 531.23 805.28 539.99 794.89 538.67 790.69 536.97 787.88 539.02 787.74 541.47 787.11 541.85 786.46 544.29 785.67 548.23 783.15 551.24 779.38 549.56 777.85 546.33 776.13 546.82 774.49 549.23 771.51 550.42 768.7 551.06 767.89 554.52 768.02 555.32 768.56 560.66 770.15 564.87 770.5 570.39 770.16 571.1 768.07 574.45 767.12 575.73 766.49 576.77 763.95 581.95 765.67 583.32 766.84 585.59 767.24 586.22 768.13 587.66 767.91 589.63 766.46 589.71 765.84 591.66 764.8 593.24 765.55 594.16 765.33 597.41 766.23 598.91 765.84 600.01 764.47 601.13 761.49 602.73 760.11 604.39 760.51 605.5 759.41 606.88 759.07 609.54 757.57 612.98 756.75 614.88 757.42 618.68 757.61 619.57 758.29 623.9 758.09 626.45 759.65 627.1 759.53 630.43 760.43 633.12 761.76 Z" id="32550120"/>
<path d="M 633.12 761.76 630.43 760.43 627.1 759.53 626.45 759.65 623.9 758.09 619.57 758.29 618.68 757.61 614.88 757.42 612.98 756.75 609.54 757.57 606.88 759.07 605.5 759.41 604.39 760.51 602.73 760.11 601.13 761.49 600.01 764.47 598.91 765.84 597.41 766.23 594.16 765.33 593.24 765.55 591.66 764.8 589.71 765.84 589.63 766.46 587.66 767.91 586.22 768.13 585.59 767.24 583.32 766.84 581.95 765.67 576.77 763.95 575.73 766.49 574.45 767.12 571.1 768.07 570.39 770.16 564.87 770.5 560.66 770.15 555.32 768.56 554.52 768.02 551.06 767.89 550.42 768.7 549.23 771.51 546.82 774.49 546.33 776.13 549.56 777.85 551.24 779.38 548.23 783.15 544.29 785.67 541.85 786.46 541.47 787.11 539.02 787.74 536.97 787.88 538.67 790.69 539.99 794.89 531.23 805.28 534.14 812.18 531.99 820.83 530.32 822.57 530.39 826.04 526.19 833.08 526.76 836.29 526.9 838.5 525.87 848.34 524.4 852.98 524.56 853.82 523.68 852.85 522.21 850.23 522.22 849.53 517.03 847.67 516.01 846.74 513.03 841.47 512.38 838.64 510.71 838.65 509.32 838.16 507.61 839.93 506.31 838.28 500.74 835.51 499.64 834.58 497.76 831.63 494.19 830.59 491.56 829.1 491.69 827.79 488.84 826.72 486.45 826.67 484.44 825.78 483.44 826.03 481.9 825.46 481.1 824.56 478.08 824.15 475.68 824.6 472.14 824.29 470.89 823.72 468.28 818.69 467.65 818.57 462.87 819.68 461.31 818.67 457.35 817 454.16 816.25 453.56 814.89 451.11 815.16 449.42 815.74 446.89 814.42 444.56 813.64 442.77 813.43 442.19 812.51 440.36 811.19 439.41 809.78 438.4 809.36 437.72 808.08 435.72 807.37 435.66 804.99 434.51 803.05 434.8 802.03 436.86 798.35 436.64 797.29 437.87 793.33 439.82 789.95 441.66 788.76 442.22 787.53 443.95 785.59 445.09 784.91 445.26 783.71 447.13 780.88 448.6 777.61 450.01 776.52 452.39 776.22 454.86 774.31 457.27 772.89 458.15 771.33 462.17 767.79 466.68 766.95 470.45 768.89 472.87 768.34 477.84 766.04 477.36 761.28 478 757.14 479.85 757.8 481.34 757.27 483.03 757.37 483.73 759.53 483.55 761.65 485.17 762.77 486.61 762.68 489.79 760.21 492 759.45 493.79 758.34 493.89 757.66 496.04 756 497.73 754.09 499.27 753.02 501.45 750.31 502.33 748.12 502.44 746.69 503.35 744.9 505.58 743.47 503.74 741.02 501.87 739.67 500.1 737.84 500.47 734.56 499.49 731.84 499.34 727.03 499.74 725.52 499.25 723.8 499.93 722.52 501.97 721.02 503.71 720.67 503.89 719.84 507.38 717.56 507.7 715.55 506.84 713.76 509.78 710.48 511.1 709.95 512.49 708.22 514.04 707.04 515.8 706.92 516.87 706.05 518.28 703.08 518.98 702.98 519.53 699.54 519.59 697.22 520.22 696.61 519.47 693.13 518.98 692.81 517.58 689.66 517.5 687.06 516.92 685.38 516.99 681.43 518.13 678.9 517.73 678 517.77 675.78 516.31 674.9 515.87 672.35 514.92 669.83 514.86 667 513.83 666.85 512.75 665.81 511.45 665.98 508.79 662.65 508.17 661.36 508.09 658.8 508.8 658.15 508.38 656.76 509.95 654.04 510.7 653.98 511.46 651.13 512.58 648.72 512.39 648.08 514.93 647.27 519.91 647.09 520.53 645.36 521.85 643.6 524.47 641.82 526.05 639.56 532.43 639.54 533.8 639.22 535.22 638.24 539.02 639.03 540.79 640.33 544.58 641.99 545.42 645.21 546.98 646.96 547.14 647.88 548.66 648 553.17 652.25 553.5 653.79 554.98 654.24 556.01 655.42 557.82 659.62 558.36 660.4 558.66 663.04 560.68 665.18 560.8 667.11 564.39 675.04 565 676.05 564.15 677.61 564.15 679.85 564.7 683.16 566.14 683.77 566.99 686.97 568.26 689.05 567.98 693.93 570.7 697.6 572.27 698.55 578.97 705.56 580.38 707.22 582.82 707.7 584.88 709.58 588.04 710.14 589.69 709.01 591.73 708.99 594.93 711.74 596.44 712.64 598.31 711.09 603.49 710.56 607.13 712.5 608.75 712.93 610.34 714.65 612.23 715.5 614.9 716.11 618.33 718.52 620.92 716.37 622.17 717.13 627.73 718.2 629.21 720.19 630.15 720.78 630.13 724.16 630.36 727.56 630.97 729 631.65 732.75 632.03 733.36 631.71 735.65 631.94 738.95 631.08 741.2 631.78 743.96 633.01 746.2 632.6 748.63 632.16 748.99 632.09 753.45 632.41 755.75 633.77 757.28 633.12 761.76 Z" id="32550130"/>
</g>
</svg>