<?xml version="1.0"?>
<svg xmlns="http://www.w3.org/2000/svg" version="1.2" baseProfile="tiny" width="800" height="336" viewBox="0 0 800 336" stroke-linecap="round" stroke-linejoin="round">
<g id="dong">
<path d="M 95.95 209.6 95.02 210.19 93.72 210.15 92.03 210.46 91.65 211.63 90.01 212.59 88.55 212.72 87.2 212.3 86.59 211.24 85.77 210.66 82.16 205.78 81.33 204.46 80.52 202.63 79.16 200.5 76.24 197.59 76.15 196.99 79.15 192.96 80.01 192.45 80.35 190.83 80.79 190.53 81.69 187.57 80.21 184.63 78.64 182.2 78.37 179.87 78.57 179.31 77.68 177.35 74.7 175.99 72.9 174.92 71.16 174.59 70.92 174.19 68.87 172.37 67.44 171.27 67.12 170.28 66.5 170.08 67.76 166.11 68.22 165.53 68.26 164.41 66.61 162.15 66.53 160.95 67.17 158.38 68.15 156.76 68.63 153.78 69.32 153.15 68.89 152 67.89 150.18 69.13 147.32 69.69 145.43 68.22 144.91 66.43 144.78 65.39 144.5 64.15 144.87 61.43 143.53 60.19 143.11 59.57 141.12 57.65 140.97 57.01 140.6 55.21 140.52 53.62 141.4 53.94 141.98 53.58 143.44 52.62 144.37 51.7 144.34 49.5 146.49 49.56 147 49.01 147.85 48.32 146.9 47.18 146.48 46.25 146.45 45.59 147.05 45.18 147.89 43.46 148.53 41.29 148 40.97 149.11 41.31 151.04 40.74 151.65 38.78 151.77 37.34 152.8 36.77 152.8 35.73 151.79 34.12 151.87 32.86 151.1 31.87 151.32 30.93 151.98 29.18 152.75 28.28 151.86 26.94 151.37 26.83 150.47 25.72 150.01 22.88 147.4 21.81 147.95 20.39 148.01 19.63 147.63 18.32 145.57 18.54 144.41 18.06 144.05 17.92 143 17.37 142.23 15.93 141.22 15.91 139.67 15.59 138.21 16.03 137.25 17.39 134.98 17.59 134.12 16.72 132.13 16.29 129.16 16.99 127.96 16.26 127.08 15.69 124.96 14.91 122.98 14.06 120.18 13.99 116.57 15.18 113.87 15.32 110.65 15.06 108.64 14.07 107.26 15.32 106.04 16.53 106.04 16.76 104.22 16.4 103.5 15.63 103.11 11.26 102.43 9.57 101.92 7.6 100.91 6.73 99.38 6.94 98.08 9.57 95.35 10.3 94.08 10.47 93.19 9.89 91.97 9.14 91.45 6.51 91.13 3.82 91.04 1.98 91.17 1 90.7 1.47 89.67 1.58 87.52 2.46 85.08 3.34 85.71 3.71 84.79 4.66 85.29 6.46 84.85 8.6 83.1 9.62 80.95 10.64 80.56 11.24 79.84 11.2 78.87 12.59 77.87 13.61 77.61 13.91 76.9 14.66 76.28 13.92 75.43 14.83 75.09 16.44 73.31 17.02 72.43 19.15 71.68 21.41 70.05 23.82 69.28 25.87 68.3 29.53 67.86 30.57 67.94 31.63 68.34 33.51 68.17 33.9 67.54 33.13 65.57 34.22 65.62 34.93 65.33 34.77 64.01 35.57 61.6 35.41 61.21 35.67 59.82 36.05 59.24 36.3 57.89 36.82 56.89 37.39 54.64 37.37 53.5 38.24 51.78 38.2 49.32 39.43 49.27 42.25 47.82 44.85 47.71 45.23 47.47 45.32 46.47 46.96 47.45 47.25 48.11 48.42 49.31 49.17 50.52 50.59 51.62 51.13 51.57 52.09 52.4 53.63 53.26 53.69 53.93 55.12 55.68 55.32 56.61 57.22 59.2 57.86 60.48 58.5 61.15 60.37 61.68 61.68 61.68 61.97 62.03 62.76 60.67 63.19 60.74 63.84 59.61 66.13 60.52 66.37 61.14 67.64 62.55 68.59 62.69 68.8 62.24 67.47 61.75 66.21 59.98 66.66 59.5 67.8 59.41 68.09 58.44 69.13 58.83 69.77 58.05 70.24 58.34 71.03 57.97 71.48 58.71 72.08 58.84 72.53 58.11 71.33 57.95 72.69 55.83 73.16 56.62 74.14 56.82 76.82 55.83 77.53 54.63 78.27 54.61 78.41 55.26 83.24 53.51 83.31 52.71 85.24 52.74 87.7 51.61 88.55 51.5 91.7 50.38 91.93 50.94 93.76 50.34 94.33 49.53 95.5 49.81 96.57 49.18 96.69 48.28 97.62 48.57 98.89 48.34 99.67 48.46 101.86 46.67 102.79 47.41 103.42 47.3 103.61 46.02 104.71 45.85 105.77 46.33 106.98 44.72 107.44 45.01 108.74 43.96 110.31 44.36 110.47 43.11 111.44 43.09 112 44.26 112.88 43.49 113.62 43.35 112.62 41.57 113.56 41.95 114.48 41.91 115.3 42.37 115 40.79 115.87 40.46 116.14 41.15 117.83 41.94 119.08 41.77 119.58 41.4 120.73 41.43 120.59 40.86 122.24 40.74 121.88 40.08 122.94 39.99 123.73 40.36 123.92 39.73 123.03 39.05 124.4 38 124.31 36.92 125.16 36.01 125.03 34.56 125.41 33.15 126.2 32.7 127.03 33.05 127.76 32.9 129.14 34.22 129.45 33.62 129.13 32.54 129.73 32.2 129.81 31.47 130.91 30.35 133.33 30.34 134.02 28.73 134.57 29.02 135.17 27.98 135.99 28.15 136.67 27.55 138.16 27.37 140.35 27.58 141.28 27.03 141.78 28 143.39 27.2 145.06 26.06 144.87 27.35 144.37 27.5 144.15 29.09 144.33 30.34 143.89 33.16 143.9 34.38 143.64 35.88 142.53 37.62 141.64 38.44 141.28 39.52 141.05 41.94 140.63 43.57 140.2 47.39 139.76 47.72 139.54 49.02 138.54 50.38 138.17 51.53 139.03 52.36 137.33 54.64 137.19 55.3 136.17 57.07 134.4 59.08 134.05 61.1 133.3 63.02 133.01 64.33 132.86 66.12 131.54 67.96 131.35 69.2 130.86 70.49 129.21 73.8 128.87 75.66 127.74 77.97 127.91 80.63 127.49 82.15 126.94 82.61 124.94 83.36 124.45 83.7 124.11 84.61 124.17 85.62 124.55 86.53 125.68 87.23 125.77 87.62 124.58 89.5 124.48 90.89 124.05 92.84 124.73 95.12 127.31 97.73 126.79 100.69 126.45 101.66 125.04 103.05 123.32 104.01 122.35 104.76 121.67 104.85 120.97 105.56 121.29 105.94 120.96 106.74 121.22 109.03 120.83 110.12 119.52 111.49 118.28 113.39 117.92 115.25 116.84 117.94 117.06 118.96 118.57 120.05 121.06 122.55 121.91 124.24 122.03 127.12 123.07 129 123.45 130.57 123.09 131.52 122.1 133.29 121.46 135.49 121.81 136.23 121.03 137.55 120 137.54 119.32 138.15 120.59 140.5 121.3 143.11 122.44 144.08 123.96 145.06 123.98 146.55 124.89 148.03 125.09 148.98 124.29 149.54 124.25 152.09 124.56 152.88 125.88 154.4 124.55 155.31 123.92 154.43 123.03 154.69 121.76 156.54 122.16 156.97 121.38 158.07 121.26 158.79 120.28 159.36 120.92 160.5 122.15 160.17 122.38 160.42 122.03 162.24 122.17 164.19 122.57 165.68 122.69 167.02 123.94 168.67 124.22 169.79 125.81 170.56 126.29 171.2 126.23 172.59 126.81 173.43 126.79 174.74 126.44 175.04 126.48 176.57 127.2 177.24 128.13 177.62 129.45 179.03 127.76 179.6 126.05 180.51 125.24 180.4 123.44 180.68 121.72 181.29 119.96 182.78 119.29 183.05 118.6 183.82 117.12 183.6 116.06 184.32 114.34 184.2 112.53 183.42 111.6 183.5 111.19 182.66 109.91 181.45 109.05 179.54 108.06 180.92 105.73 180.81 104.66 181.11 103.6 180.32 103.54 179.35 102.44 179.96 100.16 182.27 99.81 182.9 98.27 184.28 98.76 186.46 99.21 189.56 98.29 191.24 98.06 192.77 98.66 193.63 98.44 194.74 98.01 195.39 98.27 196.2 98.04 196.92 98.43 197.46 98.5 199.15 99.47 201.7 99.54 202.45 98.86 204.55 96.73 207.04 97.29 208.63 95.95 209.6 Z" id="32560110"/>
<path d="M 410.01 64.59 409.25 66.57 408.01 67.2 406.93 67.49 405.26 68.84 403.86 69.34 402.29 69.55 401.8 70.09 399.85 70.44 398.79 69.82 397.66 70 396.81 70.54 396.01 71.93 396.27 73.28 396.09 74.64 397.13 75.28 398.11 75.2 400.05 76.52 401.53 78.22 403.42 81.51 404.48 83.89 405.02 86.72 407.44 88.43 408 88.35 408.76 89.25 411.02 89.81 410.99 90.74 410.53 91.46 411.02 93.34 410.69 94.27 410 95.02 409.28 95.07 407.12 98.05 406.4 98.11 406.15 98.89 404.84 100.75 404.38 101.82 403.73 102.45 402.7 102.77 401.42 101.32 400.65 99.66 398.73 99.43 397.99 98.73 396.72 98.33 395.26 98.47 394.92 99.08 393.21 98.6 391.78 98.89 390.25 98.44 388.69 98.27 387.98 97.82 387.96 96.79 386.83 96.63 386.35 95.66 385.03 96.44 384.28 96.37 383.44 96.77 381.62 96.17 381.65 95.56 379.24 95.54 378.05 94.95 377.23 95.19 374.08 94.8 373.35 95.84 372.61 97.32 372.52 97.96 370.08 98.3 367.89 98.34 366.96 99.33 366.58 99.24 365.75 100.28 365.15 99.87 364.13 100.11 362.61 101.48 361.89 101.43 360.79 102.55 359.48 104.63 359.44 105.35 359.04 105.72 358.09 105.75 356.82 105.15 355.08 105.18 354.24 106.54 353.31 107.43 351.51 108.45 350.73 109.22 348.84 110.29 345.27 112.68 343.03 114.65 342.44 116.93 342.43 118.16 344.04 119.43 343.98 120.61 343.09 124.46 342.8 126.17 341.78 128.08 340.58 129.65 337.34 130.48 335.93 131.16 334.1 132.9 331.92 136.19 331.59 136.9 330.88 137.48 329.66 137.4 328.48 136.86 326.91 134.29 325.37 133.58 324.84 134.27 324.85 135.19 325.96 137.18 326.59 137.28 326.99 140.29 326.51 141.83 326.87 143.03 327.41 143.73 327.83 145.42 328.83 146.59 329.6 146.59 330.03 147.69 329.48 148.06 327.95 150.88 328.24 151.88 327.72 153.37 326.7 154.35 326.33 155.42 324.03 156.93 322.86 159.53 321.99 160.63 321.42 162.08 321.9 163.68 322.93 165.56 323.03 166.78 322.14 167.97 321.79 170.49 321.14 172.97 320.09 173.08 318.77 174 317.64 174.41 316.47 174.3 314.52 175.15 313.03 175.2 312.17 176.55 312.02 177.65 311.3 179.42 310.1 180.08 308.77 181.21 307.27 181.48 306.93 182.55 305.9 182.65 303.6 181.93 302.65 182.72 300.86 182.68 299.25 183.8 297.65 183.11 295.47 183.44 294.91 183.2 294.04 183.4 293.52 183.93 289.76 184.36 288.97 184.09 287.77 185.64 286.55 186.33 284.94 187.8 283.8 189.2 282.58 189.64 281.18 188.61 281.1 187.84 280.18 186.32 279.08 186.19 277.53 184.92 276.92 184.88 276.5 184.17 275.4 183.18 274.88 182.21 274.98 181.37 274.42 179.86 274.66 179.39 274.03 178.46 273.99 177.5 273.25 176.21 273.04 174.61 273.69 173.63 273.64 173.12 274.23 171.7 273.77 170.01 273.71 168.4 272.06 165.91 271.99 164.37 271.22 163.02 270.54 162.69 270.04 161.37 268.56 160.64 268.26 159.53 266.98 157.86 265.49 157.31 264.53 157.6 263.82 157.15 262.94 157.41 262.28 156.67 262.34 156.04 260.62 153.74 260.62 153.21 259.93 151.88 259.77 151.05 259.03 149.84 258.19 149.39 258.24 147.7 258.68 146.62 257.98 141.9 258.22 141.47 260.45 141.15 259.87 137.23 261.42 134.83 261.18 132.22 261.48 131.28 261.21 129.82 261.19 128.57 261.78 126.7 261.7 124.98 262.17 122.01 262.09 120.62 261.17 119.91 259.53 120.75 258.45 120.33 258.28 119.85 259.83 118.59 260.02 117.36 260.87 115.81 261.32 114.27 260 113.29 258.72 110.93 258.96 109.84 258.72 109.42 256.17 107.56 254.82 106.04 255.36 103.98 255.85 101.43 256.6 101.43 256.61 100.04 256.87 99.4 257.18 96.83 256.43 96.83 256.84 95.07 257.52 93.23 258.93 91.57 259.86 89.95 258.71 88.62 258.72 87.41 257.85 86.5 258.23 85.27 258.2 83.43 257.59 83.16 257.3 82.35 255.44 82.36 255.52 81.77 256.34 80.71 256.12 79.14 255.14 79.75 253.37 81.23 252.21 81.52 251.24 80.68 249.55 79.84 252.14 78.43 253.57 77.32 255.73 75.15 258.59 73.13 260.98 71 263.57 68.11 264.36 66.42 264.24 65.7 262.97 64.24 262.17 63.86 262.37 63.28 262.39 62.33 263.38 62.07 264.54 62.78 266.07 62.56 267.39 61.74 268.58 60.74 269.81 60.09 271.59 58.67 272.95 57.06 273.78 55.38 275 54.06 276.31 53.07 277.35 52.9 280.2 51.63 281.18 51.05 281.98 52.69 283.85 52.27 284.36 51.8 285.59 51.58 286.56 51.85 286.84 52.35 286.84 53.8 286.56 54.82 287.58 55.78 287.87 56.75 289.5 57.02 289.36 58.13 288.88 59.56 288.32 60.43 289.65 61.9 290.5 61.43 291.86 62.11 293.02 62.27 293.89 61.84 294.9 61.73 295.94 62.39 296.74 65.4 296.88 66.32 297.61 67.92 298.1 68.43 298.01 70.28 298.25 70.7 298.47 73.21 298.22 75.48 298.46 76.06 300.11 76.62 301.01 76.35 300.87 77.35 301.94 78.25 302.24 79.5 303.21 80.6 304.07 81.09 304.43 81.78 308.63 82.06 311.58 81.23 312.93 81.4 314.1 80.49 315.1 79.98 316.26 79.68 316.68 78.93 317.84 78.4 318.46 78.45 318.96 77.75 318.25 76.39 318.36 75.67 319.53 76.5 320.09 77.55 321.75 78.37 322.32 79.24 323.93 80.24 324.74 80.47 325.3 80.22 325.97 79.2 326.18 77.65 327.38 75.83 327.29 74.51 327.84 73.84 327.74 73.12 328.26 72.39 330 72.37 331.44 71.91 332.94 69.9 332.86 68.93 334.28 66.62 335.22 65.42 336 65.19 335.93 64.16 339.94 62.04 341.5 61.94 343.78 63.04 343.97 61.17 345.41 59 345.21 56.94 345.36 54.17 346.07 53.4 346.5 52.38 346.85 50.53 347.5 49.02 349.04 49.63 349.65 50.18 351.22 50.82 352.42 51.04 353.76 50.05 354.97 49.8 355.99 48.96 357.45 47.31 358.22 46.71 359.71 45.13 360.64 43.8 360.68 43.2 361.82 42.56 361.38 40.25 360.03 38.32 358.97 37.5 359.03 35.74 358.53 34.7 358.98 34 358.99 33.18 359.39 31.93 360.72 31.65 361.21 31.19 362.4 31.17 363.59 32.2 364.89 31.57 366.09 31.75 366.63 32.15 366.96 33.37 367.59 34.71 368.38 34.98 368.8 36.48 369.96 37.96 371.22 38.33 372.33 39 372.73 41 372.72 41.96 373.78 42.78 374.35 43.58 375.87 42.92 376.9 43.62 378.31 43.99 378.84 44.55 380.35 44.95 382.01 44.42 383.12 44.72 384.27 45.62 384.62 46.67 384.74 47.94 385.2 48.82 386.17 49.8 387.12 50.3 387.19 51.62 388.44 53.94 389.76 57.01 391.52 57.72 392.99 57.66 393.47 57.29 395.25 56.93 395.55 56.53 396.51 56.81 396.45 57.29 397.51 58.62 399.53 59.53 400.21 61.56 401.68 61.32 401.87 62.19 402.69 63.24 403.06 64.14 405.02 64.78 405.86 64.62 406.59 65.77 407.29 65.11 408.43 65.19 410.01 64.59 Z" id="32560120"/>
<path d="M 249.55 79.84 251.24 80.68 252.21 81.52 253.37 81.23 255.14 79.75 256.12 79.14 256.34 80.71 255.52 81.77 255.44 82.36 257.3 82.35 257.59 83.16 258.2 83.43 258.23 85.27 257.85 86.5 258.72 87.41 258.71 88.62 259.86 89.95 258.93 91.57 257.52 93.23 256.84 95.07 256.43 96.83 257.18 96.83 256.87 99.4 256.61 100.04 256.6 101.43 255.85 101.43 255.36 103.98 254.82 106.04 256.17 107.56 258.72 109.42 258.96 109.84 258.72 110.93 260 113.29 261.32 114.27 260.87 115.81 260.02 117.36 259.83 118.59 258.28 119.85 258.45 120.33 259.53 120.75 261.17 119.91 262.09 120.62 262.17 122.01 261.7 124.98 261.78 126.7 261.19 128.57 261.21 129.82 261.48 131.28 261.18 132.22 261.42 134.83 259.87 137.23 260.45 141.15 258.22 141.47 257.98 141.9 258.68 146.62 258.24 147.7 258.19 149.39 259.03 149.84 259.77 151.05 259.93 151.88 260.62 153.21 260.62 153.74 262.34 156.04 262.28 156.67 262.94 157.41 263.82 157.15 264.53 157.6 265.49 157.31 266.98 157.86 268.26 159.53 268.56 160.64 270.04 161.37 270.54 162.69 271.22 163.02 271.99 164.37 272.06 165.91 273.71 168.4 273.77 170.01 274.23 171.7 273.64 173.12 273.69 173.63 273.04 174.61 273.25 176.21 273.99 177.5 274.03 178.46 274.66 179.39 274.42 179.86 274.98 181.37 274.88 182.21 275.4 183.18 276.5 184.17 276.92 184.88 277.53 184.92 279.08 186.19 280.18 186.32 281.1 187.84 281.18 188.61 282.58 189.64 283.8 189.2 284.94 187.8 286.55 186.33 287.77 185.64 288.97 184.09 289.76 184.36 293.52 183.93 294.04 183.4 294.91 183.2 295.47 183.44 297.65 183.11 299.25 183.8 300.86 182.68 302.65 182.72 303.6 181.93 305.9 182.65 306.93 182.55 308.25 183.75 308.63 185.11 309.21 186.35 310.18 187.66 310.92 188.31 311.55 190.13 311.16 192.05 311.11 194.21 313.92 198.54 313.44 199.78 314.69 201.37 314.74 202.33 314.17 205.3 312.49 206.45 313 208.42 311.72 209.77 310.34 210.42 311.16 213.82 310.97 214.52 311.28 215.2 310.98 217.32 310.54 218.3 310.84 218.75 310.59 219.76 310.9 221.46 310.49 222.79 311.24 224.15 311.09 225.7 310.6 227.91 309.49 226.47 308.67 226.03 308.02 226.57 306.97 226.08 306.33 226.27 304.19 228.1 303.91 228.72 302 228.8 300.88 229.96 300.85 230.28 299.54 231.09 299.18 232.24 298.26 233.13 298.08 233.8 298.44 234.55 298.07 235.65 296.29 236.96 293.04 235.86 292.69 236.73 291.78 237.21 291.29 238.09 289.74 239.24 288.8 238.86 288.21 239.18 287.38 240.66 286.06 241.08 284.74 241.11 282.03 241.97 280.44 242.15 279.3 242.64 278.64 243.48 278.27 245.09 278.37 246.18 279.65 248.59 280.01 249.51 279.74 252.32 280.07 253.75 281.35 256.27 282.87 258.25 283.99 260.48 284.35 261.7 285.15 263.39 286.16 266.56 285.84 268.02 286.3 269.28 287.3 270.66 287.11 271.81 286.98 274.79 287.41 275.65 287.17 276.85 287.91 278.26 287.31 278.89 288.13 280.11 287.91 281.63 288.91 283.5 288.79 284.56 289.96 287.44 289.89 290.97 288.33 293.04 287.81 297.04 287.21 298.28 286.26 299.01 285.55 299.06 283.7 301.43 282.53 302.67 281.47 303.26 280.69 304.23 280.86 305.52 280.69 307.4 280.33 308.37 278.44 309.99 277.07 310.45 276.29 311.2 275.23 311.34 275.1 312.56 274.4 312.96 272.78 312.65 271.46 313.08 270.62 312.77 269.43 313.33 267.05 313.89 264.72 314.23 264.34 314.43 262.74 316.2 261.78 316.55 260.43 315.49 259.02 316.63 257.22 315.85 256.45 315.72 254.85 316.51 253.9 318.22 253.47 318.58 251.25 319.04 249.25 319.6 248.02 320.26 247.52 320.94 247.41 323.82 246.68 325.93 246.55 327.21 247.07 329.53 247.16 331.27 246.67 332.98 245.91 334.61 245.24 335 244.25 334.27 241.15 332.93 239 330.92 238.54 330.19 236.91 329.13 234.69 328.81 232.94 328.87 231.56 328.47 230.79 328.7 228.79 328.78 228.03 327.1 227.07 326.58 225.95 325.16 225.62 324.2 224.33 323.74 224.28 321.06 224.37 319.41 223.1 316.71 222.44 316.07 222.46 315.42 221.48 314.32 220.8 312.32 220.67 311.33 220.09 309.94 220.6 308.73 219.94 307.16 220.02 306.11 219.53 305.68 219.42 304.44 218.94 303.75 219.67 303.02 219.31 301.66 218.13 300.22 217.74 298.98 216.85 298.78 215.45 297.72 215.53 299.03 214.86 299.57 214.22 301.16 212.39 302.28 212.02 301.92 210.56 302.14 209.83 302.57 208.74 302.24 208.44 302.58 207.11 302.24 206.79 301.8 204.91 301.73 203.87 302.74 202.26 302.77 200.08 303.79 199 303.62 199.45 302.46 197.33 302.25 196.32 301.13 195.25 302.71 194.28 303.18 193.82 303.84 193.3 302.57 192.27 301.52 190.45 301.04 190.57 298.93 189.95 298.72 190.03 296.84 189.7 296.11 190.43 295.07 190.79 293.89 190.05 293.6 189.28 292.06 189.65 291.12 189.07 290.24 188.21 289.98 184.11 290.54 183.35 290.36 183.93 287.99 184.38 286.29 184.38 285.32 183.9 283.44 184.01 281.64 183.9 280.4 182.29 278.81 182.09 277.68 182.17 276.35 182.56 274.49 183.46 272.42 184.96 270.47 186.85 268.55 187.31 267.75 188.32 267.22 189.53 266.22 189.94 264.84 190.41 264.49 191.85 262.23 192.24 258.89 193.41 257.08 193.99 254.83 193.72 253.72 193.14 253.24 192.82 251.71 191.56 248.81 191.38 247.9 191.59 246.09 192.15 244.85 192.92 245.09 193.87 244.82 194.55 243.64 194.54 240.72 194.92 239.59 196.12 239.59 196.26 237.78 195.78 235.21 196.53 233.33 198.29 232.45 200.26 230.35 201.82 230.41 203.77 229.44 205.57 225.96 205.32 224.58 204.29 224 202.89 223.79 201.54 223.32 200.65 223.34 199.32 223.82 198.25 223.76 197.55 223.23 196.65 223.01 195.94 223.7 195.32 223.23 195.14 222.26 193.58 220.47 193.58 219.52 194.36 218.73 194.48 215.8 195.38 214.1 196.33 213.23 198.63 213.1 199.33 214.16 200.17 215.99 202.08 216.42 203.47 215.12 204.55 213.8 204.93 212.54 207.36 211.84 207.93 210.13 207.84 208.71 207.26 207.98 206.14 207.35 203.41 206.23 198.62 206.02 196.89 206.82 195.12 206.96 191.87 206.78 191.08 205.7 190.08 205.31 189.32 203.13 189.44 202.75 187.46 199.8 186.51 198.88 185.78 196.47 185.62 194.44 184.81 193.64 185.23 193.13 182.08 193.41 180.11 191.33 178.05 190.54 176.88 188.93 176.33 186.6 174.49 185.19 173.91 184.33 173.95 180.57 171.95 178.2 170.66 177.22 170.5 175.12 169.97 173.61 169.96 172.23 169.64 170.51 168.58 169.49 168.41 168.43 169.01 168 170.58 167.54 171.22 167.15 171.27 165.91 168.37 163.44 168.14 162.86 166.96 161.3 165.45 160.63 164.07 159.64 162.21 157.84 161.25 156.7 160.89 155.5 161.47 153.4 162.52 150.7 163.8 149.87 164.25 142.24 164.61 140.42 165.29 138.5 165.24 136.86 165.99 135.12 167.78 134.66 170.3 136.22 170.94 136.98 174.97 140.48 176.42 140.26 178.07 139 177.42 138.21 180.11 134.58 180.35 133.73 179.24 131.8 179.23 130.76 179.6 129.82 180.85 127.73 183.55 125.94 187.51 124.58 188.78 123.82 190.62 123.32 191.62 124.46 192.19 126.07 191.93 127.75 191.91 129.07 192.1 131.14 192.64 131.76 193.58 131.81 194.41 131.33 194.69 130.57 195.54 129.53 195.72 128.52 195.22 126.03 195.73 122.05 195.93 119.86 197.29 118.91 198.48 118.53 199.87 118.34 200.85 117.85 201.98 116.93 203.03 115.74 204.44 113.18 206.67 111.35 208.51 109 210.83 106.44 213.66 105.71 218.72 103.39 221.78 102.44 224.65 101.11 226 99.51 226.42 98.58 228.09 96.3 230.37 95.36 232.44 93.49 233.34 91.62 233.79 89.75 238.12 86.62 239.44 85.73 241.23 84.87 242.92 83.77 243.99 82.75 245.31 81.82 248.83 80.35 249.55 79.84 Z M 249.55 79.84 249.46 79.08 247.95 79.97 247.21 80.69 246.86 80.29 244.33 81.08 243.23 81.61 241.53 82.76 238.57 84.45 232.88 85.79 232.26 85.38 231.49 83.16 231.1 82.59 231.37 81.16 230.35 80.04 231.08 78.41 230.29 77.99 230.28 77.3 229.52 75.35 227.52 74.29 226.32 72.65 225.04 71.63 224.29 70.44 223.43 70.15 222.99 68.8 222.83 67.14 222.06 64.69 221.13 63.2 219.8 59.48 221.45 57.67 220.8 57.1 220.61 55.58 221.1 53.27 220.9 52.3 218.97 50.89 218.88 49.08 219.35 47.2 219.96 46.38 219.53 43.96 222.02 42.47 228.01 41.47 229.5 41.5 230.05 41.24 230.88 41.69 231.3 42.68 232.66 42.07 234.36 42.95 235.41 42.92 236.71 42.21 237 41.6 238.84 40.95 239.71 40.46 244.26 35.98 245.78 35.47 246.1 34.89 246.98 34.87 249.16 33.57 252 31.32 251.31 30.82 252 29.62 254.67 29.68 255.45 29.87 255.1 30.58 256.09 31.11 256.16 31.89 257.84 31.88 258.97 30.55 259.7 30.87 261 30.76 262.59 31.02 264.97 32.74 265.44 32.72 267.84 34.27 268.05 35.07 269.47 34.98 270.19 34.69 270.36 33.55 271.17 32.84 271.29 33.61 270.99 34.87 269.89 36.03 269.18 37.78 270.2 38.65 272.36 38.72 273.32 39.55 273.98 41.37 274.08 43.15 272.84 45.67 271.85 46.35 268.47 47.13 266.49 47.39 265.56 48.52 265.94 49.25 266.09 50.51 266.96 52.17 266.22 54.31 265.33 56.03 264.31 57.55 262.07 59.57 260.86 60.9 260.59 61.55 261.12 62.58 262.37 63.28 262.17 63.86 262.97 64.24 264.24 65.7 264.36 66.42 263.57 68.11 260.98 71 258.59 73.13 255.73 75.15 253.57 77.32 252.14 78.43 249.55 79.84 Z" fill-rule="evenodd" id="32560130"/>
<path d="M 219.53 43.96 219.96 46.38 219.35 47.2 218.88 49.08 218.97 50.89 220.9 52.3 221.1 53.27 220.61 55.58 220.8 57.1 221.45 57.67 219.8 59.48 221.13 63.2 222.06 64.69 222.83 67.14 222.99 68.8 223.43 70.15 224.29 70.44 225.04 71.63 226.32 72.65 227.52 74.29 229.52 75.35 230.28 77.3 230.29 77.99 231.08 78.41 230.35 80.04 231.37 81.16 231.1 82.59 231.49 83.16 232.26 85.38 232.88 85.79 238.57 84.45 241.53 82.76 243.23 81.61 244.33 81.08 246.86 80.29 247.21 80.69 247.95 79.97 249.46 79.08 249.55 79.84 248.83 80.35 245.31 81.82 243.99 82.75 242.92 83.77 241.23 84.87 239.44 85.73 238.12 86.62 233.79 89.75 233.34 91.62 232.44 93.49 230.37 95.36 228.09 96.3 226.42 98.58 226 99.51 224.65 101.11 221.78 102.44 218.72 103.39 213.66 105.71 210.83 106.44 208.51 109 206.67 111.35 204.44 113.18 203.03 115.74 201.98 116.93 200.85 117.85 199.87 118.34 198.48 118.53 197.29 118.91 195.93 119.86 195.73 122.05 195.22 126.03 195.72 128.52 195.54 129.53 194.69 130.57 194.41 131.33 193.58 131.81 192.64 131.76 192.1 131.14 191.91 129.07 191.93 127.75 192.19 126.07 191.62 124.46 190.62 123.32 188.78 123.82 187.51 124.58 183.55 125.94 180.85 127.73 179.6 129.82 179.23 130.76 179.24 131.8 180.35 133.73 180.11 134.58 177.42 138.21 178.07 139 176.42 140.26 174.97 140.48 170.94 136.98 170.3 136.22 167.78 134.66 165.99 135.12 165.24 136.86 165.29 138.5 164.61 140.42 164.25 142.24 163.8 149.87 162.52 150.7 161.47 153.4 160.89 155.5 161.25 156.7 162.21 157.84 164.07 159.64 165.45 160.63 166.96 161.3 168.14 162.86 168.37 163.44 171.27 165.91 171.22 167.15 170.58 167.54 169.01 168 168.41 168.43 168.58 169.49 169.64 170.51 169.96 172.23 169.97 173.61 170.5 175.12 170.66 177.22 171.95 178.2 173.95 180.57 173.91 184.33 174.49 185.19 176.33 186.6 176.88 188.93 178.05 190.54 180.11 191.33 182.08 193.41 185.23 193.13 184.81 193.64 185.62 194.44 185.78 196.47 186.51 198.88 187.46 199.8 189.44 202.75 189.32 203.13 190.08 205.31 191.08 205.7 191.87 206.78 195.12 206.96 196.89 206.82 198.62 206.02 203.41 206.23 206.14 207.35 207.26 207.98 207.84 208.71 207.93 210.13 207.36 211.84 204.93 212.54 204.55 213.8 203.47 215.12 202.08 216.42 200.17 215.99 199.33 214.16 198.63 213.1 196.33 213.23 195.38 214.1 194.48 215.8 194.36 218.73 193.58 219.52 191.9 219.27 191.38 218.42 191.37 216.56 190.57 216.16 189.56 216.81 187.73 216.45 186.92 216.55 185.88 217.23 184.55 216.7 183.65 216.82 182.23 218.46 180.89 218.52 178.51 217.42 177.44 217.45 175.74 219.59 174.99 219.76 174 219.15 173.34 219.62 171.99 221.81 171.96 222.47 172.46 223.37 173.52 224.46 173.8 225.33 172.75 227.65 172.45 228.93 171.69 230.69 170.58 231.77 169.09 232.4 167.42 232.24 165.98 233.57 165.94 234.88 163.49 239.97 163.84 240.95 163.35 241.69 162.35 242.04 161.41 241.98 159.95 242.39 159.59 242.91 157.59 243.91 156.78 244.49 155.85 244.53 155.07 245.02 154.9 245.88 154.15 246.15 153.15 246.95 152.84 247.76 151.22 248.74 150.52 248.52 149.74 248.91 149.12 248.7 146.49 250.03 146 250.66 145.99 251.36 144.39 252.86 145.53 253.87 144.38 255.11 144.96 256.79 144.1 257.4 142.88 259.41 143 259.84 142.3 260.77 141.84 262.04 141.08 261.93 139.96 262.37 138.64 261.84 138.42 261.13 136.92 261.35 135.91 261.16 135.6 261.48 133.46 260.44 131.83 261.11 130.92 262.16 131.23 263.39 130.91 264.55 131.3 265.38 131.47 266.52 130.68 267.03 131.4 268.29 131.26 270.22 129.29 271.82 129.92 273.3 129.15 274.44 128.03 273.24 126.28 272.36 125.42 271.48 124.03 269.54 122.43 268.46 121.78 267.82 120.92 267.58 119.57 266.81 119.48 265.83 119.59 263.49 118.33 262.31 116.62 262.61 115.23 262.01 114.16 260.81 112.87 258.71 111.96 257.95 110.28 255.66 110.14 254.36 109.75 253.89 108.33 253.83 107.44 253.23 107.31 252.68 105.82 251.14 104.88 250.58 104.28 250.64 102.05 249.96 101.59 248.81 98.64 246.48 97.62 246.03 96.57 244.19 96.02 244.08 95.71 243.35 95.45 240.47 95.05 239.59 94.8 237.87 94.37 236.77 94.2 235.32 94.29 234 93.57 233.01 93.16 231.61 93.66 230.17 93.07 229.5 92.58 227.94 93.01 227.19 93.06 225.65 93.53 223.65 94.94 221.1 95.2 219.75 95.73 218.73 95.56 216.64 95.7 215.38 95.15 214.79 95.3 213.49 96.01 211.78 95.95 209.6 97.29 208.63 96.73 207.04 98.86 204.55 99.54 202.45 99.47 201.7 98.5 199.15 98.43 197.46 98.04 196.92 98.27 196.2 98.01 195.39 98.44 194.74 98.66 193.63 98.06 192.77 98.29 191.24 99.21 189.56 98.76 186.46 98.27 184.28 99.81 182.9 100.16 182.27 102.44 179.96 103.54 179.35 103.6 180.32 104.66 181.11 105.73 180.81 108.06 180.92 109.05 179.54 109.91 181.45 111.19 182.66 111.6 183.5 112.53 183.42 114.34 184.2 116.06 184.32 117.12 183.6 118.6 183.82 119.29 183.05 119.96 182.78 121.72 181.29 123.44 180.68 125.24 180.4 126.05 180.51 127.76 179.6 129.45 179.03 128.13 177.62 127.2 177.24 126.48 176.57 126.44 175.04 126.79 174.74 126.81 173.43 126.23 172.59 126.29 171.2 125.81 170.56 124.22 169.79 123.94 168.67 122.69 167.02 122.57 165.68 122.17 164.19 122.03 162.24 122.38 160.42 122.15 160.17 120.92 160.5 120.28 159.36 121.26 158.79 121.38 158.07 122.16 156.97 121.76 156.54 123.03 154.69 123.92 154.43 124.55 155.31 125.88 154.4 124.56 152.88 124.25 152.09 124.29 149.54 125.09 148.98 124.89 148.03 123.98 146.55 123.96 145.06 122.44 144.08 121.3 143.11 120.59 140.5 119.32 138.15 120 137.54 121.03 137.55 121.81 136.23 121.46 135.49 122.1 133.29 123.09 131.52 123.45 130.57 123.07 129 122.03 127.12 121.91 124.24 121.06 122.55 118.57 120.05 117.06 118.96 116.84 117.94 117.92 115.25 118.28 113.39 119.52 111.49 120.83 110.12 121.22 109.03 120.96 106.74 121.29 105.94 120.97 105.56 121.67 104.85 122.35 104.76 123.32 104.01 125.04 103.05 126.45 101.66 126.79 100.69 127.31 97.73 124.73 95.12 124.05 92.84 124.48 90.89 124.58 89.5 125.77 87.62 125.68 87.23 124.55 86.53 124.17 85.62 124.11 84.61 124.45 83.7 124.94 83.36 126.94 82.61 127.49 82.15 127.91 80.63 127.74 77.97 128.87 75.66 129.21 73.8 130.86 70.49 131.35 69.2 131.54 67.96 132.86 66.12 133.01 64.33 133.3 63.02 134.05 61.1 134.4 59.08 136.17 57.07 137.19 55.3 137.33 54.64 139.03 52.36 138.17 51.53 138.54 50.38 139.54 49.02 139.76 47.72 140.2 47.39 140.63 43.57 141.05 41.94 141.28 39.52 141.64 38.44 142.53 37.62 143.64 35.88 143.9 34.38 143.89 33.16 144.33 30.34 144.15 29.09 144.37 27.5 144.87 27.35 145.06 26.06 146.75 25.02 148.13 24.8 149.33 24.28 149.37 25.18 149.94 25.44 149.75 26.29 151.35 26.5 151.68 25.15 152.3 26 152 26.85 152.07 27.9 154.95 28.37 155.23 30.58 156.55 30.52 156.68 30.04 158.63 29.29 158.39 28.36 159.45 28.35 159.73 29.5 159.32 29.74 159.96 30.92 160.18 31.87 160.86 32.42 161.41 31.5 162.11 31.88 162.78 30.61 163.29 31.02 164.55 30.82 164.05 31.75 164.72 32.5 166.12 31.37 166.88 31.56 167.68 30.92 167.94 31.48 169.02 31.38 169.25 30.74 170.61 31.66 173.41 31.92 175.59 32.42 176.86 32.38 177.53 32.12 177.64 31.4 178.68 30.75 179.33 31.37 180.21 33.01 181.34 33.75 182.76 33.7 184.77 32.08 185.51 31.71 185.49 32.81 185.76 34.1 188.03 34.65 188.71 34.23 189.02 33.51 190.18 33.33 190.9 32.11 192.35 32.71 193.14 34.04 193.63 33.56 194.56 33.73 194.8 34.25 194.83 36.19 197.29 36.93 198.56 37.74 204.43 45.37 204.62 44.12 205.09 43.95 205.6 45.47 205.45 46.75 205.11 47.57 204.99 48.75 206.38 48.24 206.93 49.22 207.96 49.64 209.43 48.76 211.27 47.1 212.55 44.85 213.43 44.25 216.5 44.48 219.53 43.96 Z" id="32560140"/>
<path d="M 360.68 43.2 360.64 43.8 359.71 45.13 358.22 46.71 357.45 47.31 355.99 48.96 354.97 49.8 353.76 50.05 352.42 51.04 351.22 50.82 349.65 50.18 349.04 49.63 347.5 49.02 346.85 50.53 346.5 52.38 346.07 53.4 345.36 54.17 345.21 56.94 345.41 59 343.97 61.17 343.78 63.04 341.5 61.94 339.94 62.04 335.93 64.16 336 65.19 335.22 65.42 334.28 66.62 332.86 68.93 332.94 69.9 331.44 71.91 330 72.37 328.26 72.39 327.74 73.12 327.84 73.84 327.29 74.51 327.38 75.83 326.18 77.65 325.97 79.2 325.3 80.22 324.74 80.47 323.93 80.24 322.32 79.24 321.75 78.37 320.09 77.55 319.53 76.5 318.36 75.67 318.25 76.39 318.96 77.75 318.46 78.45 317.84 78.4 316.68 78.93 316.26 79.68 315.1 79.98 314.1 80.49 312.93 81.4 311.58 81.23 308.63 82.06 304.43 81.78 304.07 81.09 303.21 80.6 302.24 79.5 301.94 78.25 300.87 77.35 301.01 76.35 300.11 76.62 298.46 76.06 298.22 75.48 298.47 73.21 298.25 70.7 298.01 70.28 298.1 68.43 297.61 67.92 296.88 66.32 296.74 65.4 295.94 62.39 294.9 61.73 293.89 61.84 293.02 62.27 291.86 62.11 290.5 61.43 289.65 61.9 288.32 60.43 288.88 59.56 289.36 58.13 289.5 57.02 287.87 56.75 287.58 55.78 286.56 54.82 286.84 53.8 286.84 52.35 286.56 51.85 285.59 51.58 284.36 51.8 283.85 52.27 281.98 52.69 281.18 51.05 280.2 51.63 277.35 52.9 276.31 53.07 275 54.06 273.78 55.38 272.95 57.06 271.59 58.67 269.81 60.09 268.58 60.74 267.39 61.74 266.07 62.56 264.54 62.78 263.38 62.07 262.39 62.33 262.37 63.28 261.12 62.58 260.59 61.55 260.86 60.9 262.07 59.57 264.31 57.55 265.33 56.03 266.22 54.31 266.96 52.17 266.09 50.51 265.94 49.25 265.56 48.52 266.49 47.39 268.47 47.13 271.85 46.35 272.84 45.67 274.08 43.15 273.98 41.37 273.32 39.55 272.36 38.72 270.2 38.65 269.18 37.78 269.89 36.03 270.99 34.87 271.29 33.61 271.17 32.84 270.9 32.08 271.69 31.72 272.8 31.67 273.01 30.76 273.88 30.39 275.57 30.07 276.28 29.23 276.71 29.38 277.63 27.62 277.96 26.56 277.71 25.46 279.49 25.32 280.07 26.43 281.92 25.59 282.81 24.09 282.83 23.37 283.66 22.79 283.85 22.15 285.1 21.47 285.72 21.58 286.06 20.51 286.88 20.62 287.33 19.51 288.33 19.64 288.14 18.7 289.43 18.82 289.6 20.22 290.55 19.94 291.36 20.5 290.78 21.11 291.13 22.27 293.27 21.6 295.29 21.54 295.94 21.21 296.33 22.4 297.15 23.7 298.93 24.17 300.43 23.45 301.07 24.29 303.44 24.25 303.01 25.71 304.31 25.2 305.27 24.07 305.68 23.22 306.27 23.77 307.86 23.3 308.74 22.84 309.34 23.18 309.41 23.85 310.04 24.35 310.65 25.8 312 24.84 315.4 25 315.61 25.68 317.12 25.28 317.54 25.73 317.06 27.19 317.66 27.16 318.66 27.86 318.68 28.31 319.82 28.78 321.34 28.71 321.68 29.65 322.98 29.38 323.88 29.47 324.9 28.63 325.52 29.3 329.7 30.34 330.46 30.03 331.34 30.29 332 30.87 333.12 30.95 334.48 31.58 334.94 32.36 335.77 32.69 337.02 34.8 339.75 37.75 339.95 38.36 340.84 38.69 341.2 38.17 342.08 39.13 343.27 38.37 343.98 39.61 343.34 40.4 343.34 41.19 343.99 41.22 345.02 40.51 346.09 41.21 347.51 40.39 347.55 41.68 348.13 42.63 349.27 42.13 351.19 42.66 352.14 41.89 353.02 41.57 352.01 43.39 353.13 43.39 353.12 44.37 355.95 44.52 356.72 44.04 358.15 44.3 360.68 43.2 Z" id="32560210"/>
<path d="M 482.92 73.05 481.53 74.25 480.5 75.45 479.61 75.87 479.11 76.52 478.29 76.81 475.42 78.67 473.66 80.86 470.21 80.69 468.03 82.7 467.54 83.59 466.85 83.83 463.93 83.93 462.11 84.19 461.05 84.79 458.55 83.08 457.25 83.22 456.69 81.87 456.1 81.45 454.18 79.53 453.51 76.56 450.37 75.33 448.94 75.05 447.31 75.15 443.52 74.58 441.34 74.72 438.38 75.45 436.49 75.74 434.91 76.15 433.44 76.33 432.62 76.84 431.97 78.21 431.06 79.3 429.7 80.03 429.19 79.32 428.05 78.74 427.11 79 426.45 79.56 424.69 79.66 423.68 79.51 420.55 80.37 419.9 81.07 418.81 81.64 417.14 82.2 416.34 81.82 414.73 82.9 413.38 86.92 412.04 88.99 411.02 89.81 408.76 89.25 408 88.35 407.44 88.43 405.02 86.72 404.48 83.89 403.42 81.51 401.53 78.22 400.05 76.52 398.11 75.2 397.13 75.28 396.09 74.64 396.27 73.28 396.01 71.93 396.81 70.54 397.66 70 398.79 69.82 399.85 70.44 401.8 70.09 402.29 69.55 403.86 69.34 405.26 68.84 406.93 67.49 408.01 67.2 409.25 66.57 410.01 64.59 411.9 64.4 412.51 64.78 413.5 64.22 414.28 64.21 416.43 63.26 417.33 63.18 418.4 62.46 419.76 62.09 420.22 61.46 421.15 60.91 422.18 60.89 424.1 59.53 424.62 58.02 425.55 56.14 427.85 54.76 429.07 54.48 430.84 54.38 432.31 53.9 433.17 53.1 433.86 52.84 435.22 51.04 436.65 50.36 437.92 48.72 438.13 48.18 439.73 46.81 440.77 46.67 441.15 44.99 442.17 44.74 443.46 44.78 443.46 44.01 444.76 43.35 446.64 42.72 447.2 41.63 448.46 41.33 448.5 40.35 449.95 39.41 450.87 39.57 451.9 38.83 453.27 36.75 454.05 36.6 454.23 35.71 453.77 34.57 454.81 34.24 454.93 33.36 455.57 32.78 458.11 32.13 458.2 30.84 459.09 30.14 460.45 30.55 462.23 30.53 465.62 29.38 466.75 29.43 468.03 28.72 468.79 28.7 471.21 27.03 472.09 27.43 472.4 26.88 473.48 26.25 474.42 26.51 475.68 25.75 476.54 25.79 477.04 25.39 479.04 25.21 479.35 24.93 480.77 24.99 481.18 24.56 481.99 25.07 481.94 25.67 482.65 27.4 483.35 27.92 483.68 29.42 483.15 30.05 483.1 30.74 481.71 31.68 481.41 31.55 480.34 33.24 479.76 33.41 476.71 36.88 477.04 38.07 476.64 40.48 477.35 41.94 478.8 43.25 478.91 44.57 478.22 45.12 478.15 46.14 477.66 47 477.42 48.57 476.62 50.31 477.03 51.54 476.79 52.78 475.96 54.02 475.88 55.28 476.52 56.12 477.39 58.44 478.36 59.65 479.18 60.21 479.57 61.14 479.08 62.87 479.56 63.8 480.32 65.93 480.96 66.27 480.55 68.2 481.96 71.72 482.92 73.05 Z" id="32560260"/>
<path d="M 731.93 58.44 731.54 64.53 731.28 66.55 730.62 69.6 729.69 71.4 728.01 72.32 726.48 73.85 725 74.78 723.2 77.16 722.89 78.79 721.79 78.76 719.28 79.9 718.25 80.66 716.85 82.31 715.05 85.02 714.21 86.94 712.87 90.67 711.92 92.66 710.84 92.54 709.02 91.79 707.64 91.61 706.16 91.63 704.51 90.69 703.14 89.57 701.82 88.77 700.24 85.79 697.5 83.22 695.81 82.16 694.48 80.98 692.37 78.89 689.92 79.67 687.58 80.71 682.87 82.05 677.79 82.45 675.95 82.82 673.76 83.47 670.45 85.05 668.8 85.17 664.15 84.86 662.25 84.92 660.59 85.18 657.13 86.87 655.52 87.93 652.05 89.23 649.84 90.42 647.39 92.13 645.53 91.92 644.3 91.31 642.8 91.3 641.47 92.11 640.26 90.48 638.21 88.1 637.04 85.73 629.39 85.34 628.1 82.27 624.39 81.69 620.29 78.65 618.73 78.4 617.37 77.96 615.25 76.75 612.54 75.06 612.06 73.81 610.49 73.26 609.95 71.51 607.75 70.38 607.36 68.44 607.54 64.85 603.67 64.18 602.17 62.87 596.11 60.81 595.2 60.68 594.67 58.21 593.84 57.23 592.42 55.13 592.04 54.18 592.36 52.13 591.89 51.37 592.02 49.97 591.16 49.83 590.89 48.51 590.14 46.59 589.04 44.76 587.7 44.08 587.01 43.1 587.4 40.47 587.8 39.8 589.09 39.33 590.79 38.1 592.4 36.46 593.2 33.72 594.39 33.02 596.52 32.92 598.68 32.23 600.62 31.84 601.6 30.95 603.06 27.61 603.4 26.1 604.24 23.56 605.34 21.39 606.68 19.9 608.3 18.63 609.56 18.07 611.28 17.98 612.98 18.68 613.71 19.21 615.67 19.95 617.49 19.63 619.01 19.72 619.14 20.78 620.08 20.05 621.49 20.33 622.42 20.87 623.25 20.33 623.59 21.07 623.73 22.82 623.5 25.64 623.84 26.52 625.26 26.5 627.82 24.78 629.5 24.04 631.36 22.65 632.61 21.52 635.51 20.24 637.97 19.31 640.31 17.64 641.94 16.16 644.45 13.02 645.76 12.43 648.31 12.25 650.38 11.93 654.93 9.08 655.43 10.07 654.28 10.56 653.72 11.07 654.06 12.09 653.16 12.71 653.94 14.05 654.83 14.46 655.39 15.94 656.86 17.46 659.86 19.9 660.5 20.6 662.51 20.68 663.47 20.3 664.28 18.78 665.66 18.09 666.9 17.93 667.87 17.26 668.08 16.15 669.2 15.27 670.34 15.03 671.74 15.68 672.61 15.59 674.17 17.33 675.44 17.51 676.69 17.21 677.55 17.55 677.83 18.88 678.88 18.7 680 17.46 681.35 17.22 681.93 16.57 681.74 16.01 680.74 15.17 681.14 14.63 682.06 14.29 682.17 13.75 681.73 12.63 682.04 11.46 683.75 11.31 685.02 10.46 685.63 9.38 688.05 3.9 688.77 2.75 689.92 1.51 690.86 1.09 691.89 1 693.15 1.58 694.9 3.61 696.82 8.03 697.75 11.79 700.13 19.51 707.17 34.03 710.64 37.62 715.57 41.81 720.53 45.56 724.51 48.73 729.22 53.37 731.34 56.4 731.93 58.44 Z" id="32560270"/>
<path d="M 593.2 33.72 592.4 36.46 590.79 38.1 589.09 39.33 587.8 39.8 587.4 40.47 587.01 43.1 587.7 44.08 589.04 44.76 590.14 46.59 590.89 48.51 591.16 49.83 592.02 49.97 591.89 51.37 592.36 52.13 592.04 54.18 592.42 55.13 593.84 57.23 594.67 58.21 595.2 60.68 596.11 60.81 602.17 62.87 603.67 64.18 607.54 64.85 607.36 68.44 607.75 70.38 609.95 71.51 610.49 73.26 612.06 73.81 612.54 75.06 615.25 76.75 617.37 77.96 618.73 78.4 620.29 78.65 624.39 81.69 628.1 82.27 629.39 85.34 637.04 85.73 638.21 88.1 640.26 90.48 641.47 92.11 638.78 94.26 638.09 95.09 637.12 96.81 633.23 101.6 632.93 102.18 632.4 105.27 631.79 107.12 630.83 108.86 629.34 110.68 625.3 114.27 622.18 116.18 622.25 119.25 622.6 120.44 622.88 122.84 623.68 124.67 623.84 125.99 623.14 127.55 621.61 127.24 619.98 127.24 618.78 127.95 617.44 129.13 616.13 130.03 614.66 130.57 613.02 130.52 608.3 130.07 606.43 129.98 604.44 129.62 599.57 129.05 598.25 128.25 596.11 126.43 592.63 125.34 590.81 124.11 590.18 123.05 588.44 118.76 587.32 117.76 585.88 117.55 584.87 117.15 584.49 116.58 584.38 115.07 582.84 112.24 581.64 110.69 579.24 110.99 577.48 111.46 575.31 111.58 573.72 111.48 572.46 110.89 570.81 110.71 569.46 110.81 568.41 111.51 566.94 112.13 564.18 112.7 562.64 113.51 560.32 114.49 557.68 116 556.49 116.02 555.99 115.64 554.76 113.59 552.01 113.48 550.83 113.22 549.27 112.59 548.41 112.82 547.32 113.91 546.39 114.32 545.42 114.37 544 114.07 542.45 113.25 541.38 112.06 540.19 111.43 538.81 111.11 536.45 111.01 534.01 109.49 533.08 108.54 532.06 106.48 530.2 105.34 528.97 103.89 528.83 102.7 529.24 101.43 529.2 100.22 528.56 98.79 527.54 97.91 526.27 97.44 523.73 96.81 522.13 95.4 519.93 92.55 518.57 91.25 517.61 89.91 516.98 88.38 516.68 86.69 516.47 84.46 514.85 85.53 512.69 86.54 511.27 86.89 509.67 86.76 508.46 86.92 507.58 87.39 506.37 88.54 504.91 90.28 502.34 88.79 501.26 87.56 496.86 84.77 496.73 84.03 493.95 82.72 492.34 81.61 490.9 81.73 490.14 81.01 488.24 79.71 486.88 77.17 486.45 77.34 485.4 76.91 483.77 74.1 482.92 73.05 481.96 71.72 480.55 68.2 480.96 66.27 480.32 65.93 479.56 63.8 479.08 62.87 479.57 61.14 479.18 60.21 478.36 59.65 477.39 58.44 476.52 56.12 475.88 55.28 475.96 54.02 476.79 52.78 477.03 51.54 476.62 50.31 477.42 48.57 477.66 47 478.15 46.14 478.22 45.12 478.91 44.57 478.8 43.25 477.35 41.94 476.64 40.48 477.04 38.07 476.71 36.88 479.76 33.41 480.34 33.24 481.41 31.55 481.71 31.68 483.1 30.74 483.15 30.05 483.68 29.42 483.35 27.92 482.65 27.4 481.94 25.67 481.99 25.07 481.18 24.56 480.77 24.99 479.35 24.93 480.9 23.09 480.92 22.63 482.26 21.72 482.74 21.15 485.68 18.95 486.5 18.93 487.03 19.46 488.55 19.21 490.06 19.97 491.49 20.03 492.44 18.23 493.45 18.69 494.61 18.68 495.94 18.14 496.06 17.68 497.85 18.28 499.2 18.98 499.44 18.33 500.16 17.92 501.12 19.24 502.36 18.91 502.87 19.12 503.41 21.2 504.03 21.26 505.1 20.31 506.52 20.69 508.16 22.07 508.59 18.75 509.19 18.59 517.69 17.98 518.02 18.95 518.86 18.86 520.89 19.47 521.8 19.4 521.89 20.67 522.84 21.6 523.77 21.59 524.42 21.98 523.98 23.62 524.62 25.73 525.32 26.06 525.93 27.03 526.08 28.4 524.66 30.8 525.05 31.21 526.23 31.36 527.16 32.66 528.19 33.04 530.12 33.02 530.72 33.21 532.13 32.87 533.79 32.88 534.99 31.95 536.59 32.62 538.61 32.19 539.53 33.5 540.69 34.54 542.41 35.65 543.11 32.92 543.1 32.35 561.92 32.09 564.26 33.29 564.95 34.09 565.89 33.95 567.24 34.52 568.05 34.18 568.35 33.53 570.48 32.28 571.92 32.35 571.58 31.24 572.39 30.08 573.03 30.1 574.02 31.37 574.84 31.61 575.84 32.28 576.35 33.37 577.69 34.68 578.15 35.48 579.34 34.84 581.23 34.23 583.63 34.01 584.96 33.52 587.91 33.21 589.41 32.74 591.01 32.01 591.52 31.47 592.13 33.12 593.2 33.72 Z" id="32560280"/>
<path d="M 359.44 105.35 360.34 105.97 360.8 108.47 360.82 109.65 359.96 109.8 360.4 110.55 360.35 111.64 361.16 113.97 361.4 115.56 361.22 116.93 360.73 118.24 361.77 120.66 362.93 122.02 363.37 124.07 364.34 126.32 365.42 127.46 366.6 128.2 369.34 129.06 371.25 129.44 372.56 130.47 372.46 133.99 371.81 136.69 371.65 137.93 370.88 138.26 370.85 139.56 370.58 139.98 369.5 139.96 368.66 140.31 368.29 141.32 367.06 142.4 367.05 143.42 366.56 144.69 366.75 146.52 367.35 147.67 367.64 149.78 368.49 151.04 368.95 152.64 368.04 154.44 367.08 157.25 367.54 160.6 368.17 161.25 368.34 162.31 367.34 162.59 365.46 163.7 365.16 164.85 364.33 165.51 363.6 166.93 363.37 168.41 362.45 168.88 362.85 170.81 362.35 172.63 362.07 176.05 362.35 178.69 360.73 179.77 359.82 181.76 359.96 182.41 359.52 184.28 360.55 188.12 360.81 190.35 359.72 191.77 359 193.26 359.28 194.8 359.06 195.19 358.01 195.41 357.92 195.81 358.82 197.67 358.12 199.24 359.57 203.64 359.48 204.45 360.23 205.1 360.74 206.21 361.78 206.84 362.83 208.43 362.87 210 363.17 210.57 362.93 212.04 363.46 213.34 363.6 214.74 363 216.89 360.85 217.78 359.88 219.33 358.13 220.33 356.79 221.46 356.18 222.53 354.79 223.28 355.04 224.56 355.93 226.07 356.79 226.68 357.24 228.11 357.29 230.2 356.98 230.98 357.05 232.24 356.05 233.53 355.87 235.6 354.72 236.82 353.89 238.06 353.67 239.98 352.9 242.7 353.16 243.94 350.76 246.38 349.4 247.28 349.94 248.82 349.98 250.87 350.5 253.31 351.91 255.6 351.72 256.41 352.33 258.22 352.82 260.43 352.24 261.77 351.36 262.47 351.38 263.29 350.39 264.89 350.19 265.74 348.79 266.79 348.54 268.5 349.17 269.42 349.15 270.7 348.85 271.15 349.52 272.64 349.48 274.71 349.69 275.96 349.39 277.43 350.02 280.46 349.86 281.04 349.38 285.36 349.51 287.35 350.25 288.67 350.34 290.38 348.89 292.14 347.1 293.6 345.83 295.33 344.93 295.87 343.92 297 341.83 298.15 339.5 301.9 338.88 302.6 337.84 303.28 336.33 304.88 335.3 306.59 334.36 307.31 334.03 310.05 332.83 311.33 331.57 312.92 330.69 313.68 329.35 313.79 327.4 315.5 326.84 315.82 326.42 316.64 325.51 317.01 323.33 318.84 322.3 319.04 320.14 318.42 319.26 317.87 314.35 317.87 314.35 313.61 313.19 312.79 312.51 311.16 312.66 310.62 312.07 308.48 312.43 307.68 312.14 305.98 312.2 305.09 310.92 304.76 309.39 304.08 307.9 304.4 305.5 304.67 304.93 303.97 303.86 304.11 302.9 304.57 301.98 304.4 300.34 303.13 299.26 302.83 298.28 303.08 296.26 302.74 295.55 303.02 294.54 302.79 293.37 303.56 292.46 303.08 292.51 301.52 291.92 300.66 291.82 299.91 290.29 300.18 288.51 298.92 287.21 298.28 287.81 297.04 288.33 293.04 289.89 290.97 289.96 287.44 288.79 284.56 288.91 283.5 287.91 281.63 288.13 280.11 287.31 278.89 287.91 278.26 287.17 276.85 287.41 275.65 286.98 274.79 287.11 271.81 287.3 270.66 286.3 269.28 285.84 268.02 286.16 266.56 285.15 263.39 284.35 261.7 283.99 260.48 282.87 258.25 281.35 256.27 280.07 253.75 279.74 252.32 280.01 249.51 279.65 248.59 278.37 246.18 278.27 245.09 278.64 243.48 279.3 242.64 280.44 242.15 282.03 241.97 284.74 241.11 286.06 241.08 287.38 240.66 288.21 239.18 288.8 238.86 289.74 239.24 291.29 238.09 291.78 237.21 292.69 236.73 293.04 235.86 296.29 236.96 298.07 235.65 298.44 234.55 298.08 233.8 298.26 233.13 299.18 232.24 299.54 231.09 300.85 230.28 300.88 229.96 302 228.8 303.91 228.72 304.19 228.1 306.33 226.27 306.97 226.08 308.02 226.57 308.67 226.03 309.49 226.47 310.6 227.91 311.09 225.7 311.24 224.15 310.49 222.79 310.9 221.46 310.59 219.76 310.84 218.75 310.54 218.3 310.98 217.32 311.28 215.2 310.97 214.52 311.16 213.82 310.34 210.42 311.72 209.77 313 208.42 312.49 206.45 314.17 205.3 314.74 202.33 314.69 201.37 313.44 199.78 313.92 198.54 311.11 194.21 311.16 192.05 311.55 190.13 310.92 188.31 310.18 187.66 309.21 186.35 308.63 185.11 308.25 183.75 306.93 182.55 307.27 181.48 308.77 181.21 310.1 180.08 311.3 179.42 312.02 177.65 312.17 176.55 313.03 175.2 314.52 175.15 316.47 174.3 317.64 174.41 318.77 174 320.09 173.08 321.14 172.97 321.79 170.49 322.14 167.97 323.03 166.78 322.93 165.56 321.9 163.68 321.42 162.08 321.99 160.63 322.86 159.53 324.03 156.93 326.33 155.42 326.7 154.35 327.72 153.37 328.24 151.88 327.95 150.88 329.48 148.06 330.03 147.69 329.6 146.59 328.83 146.59 327.83 145.42 327.41 143.73 326.87 143.03 326.51 141.83 326.99 140.29 326.59 137.28 325.96 137.18 324.85 135.19 324.84 134.27 325.37 133.58 326.91 134.29 328.48 136.86 329.66 137.4 330.88 137.48 331.59 136.9 331.92 136.19 334.1 132.9 335.93 131.16 337.34 130.48 340.58 129.65 341.78 128.08 342.8 126.17 343.09 124.46 343.98 120.61 344.04 119.43 342.43 118.16 342.44 116.93 343.03 114.65 345.27 112.68 348.84 110.29 350.73 109.22 351.51 108.45 353.31 107.43 354.24 106.54 355.08 105.18 356.82 105.15 358.09 105.75 359.04 105.72 359.44 105.35 Z" id="32560310"/>
<path d="M 504.91 90.28 503.01 93.25 503.04 95.94 505.42 101.77 507.71 103.48 506.68 107.25 507.04 109.85 506.19 112.19 506.52 112.74 503.04 114.69 500.28 115.69 498.44 119.47 496.48 119.84 495.5 119.67 493.91 118.98 492.94 119.76 492.37 119.88 491.21 120.77 490.19 120.14 488.12 121.15 487.69 124.14 486.52 124.96 485.78 125.99 484.97 126.23 483.77 127.38 482.5 128.28 479.19 130.4 478.54 132.14 478.52 133.51 478.73 134.36 478.41 135.32 478.3 138.03 477.53 140.08 476.38 142.06 475.69 144.07 473.4 146.5 472.93 146.73 471.51 148.15 470.05 149.27 467.91 151.46 465.85 152.06 463.46 152.01 461.8 152.11 460.57 152.48 459.38 152.35 458.45 152.98 456.53 153.09 455.59 153.32 454.2 153.29 452.27 153.82 450.97 155.8 449.24 159.5 448.49 161.66 448.19 165.02 449.56 166.98 449.53 168.09 451.4 170.52 451.59 171.67 449.53 173.76 447.51 177.08 446.68 177.95 445.88 179.61 444.25 179.45 440.76 179.67 439.05 182.42 437.85 185.14 436.1 188.67 435.19 189.85 434.14 190.53 434.16 191.64 433.67 192.46 429.34 193.29 428.04 194.05 426.17 194.54 424.21 193.79 422.61 193.78 419.97 194.34 417.62 194.42 417.05 196.01 416.13 200.03 415.76 202.63 415.01 205.14 414.87 206.39 413.92 210.91 412.9 212.72 413.43 216.42 413.89 218.25 413.62 220.48 413.06 222.22 413.39 224 414.01 225.52 413.42 227.22 411.62 229.53 410.15 230.49 407.97 234.38 407.06 235.13 406.31 235.22 405.76 236.65 404.76 237.96 404.43 239.23 404.51 240.06 403.67 241.88 401.13 243.75 400.1 244.88 399.88 245.59 401.5 249.88 402.84 250.58 404.26 253.31 405.26 254.13 406.16 254.47 408.14 254.8 408.66 255.43 409.42 255.57 409.74 256.11 411.57 258.15 412.16 259.21 411.69 260.34 411.54 261.37 411.64 263.55 411.2 265.31 409.93 267.15 409.78 267.91 409.14 268.19 407.54 267.89 406.93 269.67 405.34 272.56 405.38 274.33 404.99 275.04 404.37 277.23 404.69 279.05 401.3 282.15 401.03 283.16 400.07 283.63 399.91 284.22 398.95 285.15 397.99 285.53 396.73 286.65 395.77 287.17 393.65 289.04 392 289.82 390.45 289.55 388.69 290.07 386.97 289.3 384.28 290.09 383.65 289.78 381.07 290.21 379.72 289.93 378.09 289.12 376.73 289.21 375.16 289.84 372.75 290.37 371.4 292.04 370.86 292.15 369.54 291.76 368.15 291.7 366.38 292.35 366.04 293.61 363.99 294.19 363.31 295.13 363.09 296.69 363.28 298.09 362.99 299.14 362.04 299.26 360.32 298.84 358.59 298.69 356.78 299.25 355 299.59 356.14 296.3 355.75 295.34 354.9 294.12 354.34 293.75 354.3 292.95 353.58 291.08 352.33 290.88 350.91 290.26 350.34 290.38 350.25 288.67 349.51 287.35 349.38 285.36 349.86 281.04 350.02 280.46 349.39 277.43 349.69 275.96 349.48 274.71 349.52 272.64 348.85 271.15 349.15 270.7 349.17 269.42 348.54 268.5 348.79 266.79 350.19 265.74 350.39 264.89 351.38 263.29 351.36 262.47 352.24 261.77 352.82 260.43 352.33 258.22 351.72 256.41 351.91 255.6 350.5 253.31 349.98 250.87 349.94 248.82 349.4 247.28 350.76 246.38 353.16 243.94 352.9 242.7 353.67 239.98 353.89 238.06 354.72 236.82 355.87 235.6 356.05 233.53 357.05 232.24 356.98 230.98 357.29 230.2 357.24 228.11 356.79 226.68 355.93 226.07 355.04 224.56 354.79 223.28 356.18 222.53 356.79 221.46 358.13 220.33 359.88 219.33 360.85 217.78 363 216.89 363.6 214.74 363.46 213.34 362.93 212.04 363.17 210.57 362.87 210 362.83 208.43 361.78 206.84 360.74 206.21 360.23 205.1 359.48 204.45 359.57 203.64 358.12 199.24 358.82 197.67 357.92 195.81 358.01 195.41 359.06 195.19 359.28 194.8 359 193.26 359.72 191.77 360.81 190.35 360.55 188.12 359.52 184.28 359.96 182.41 359.82 181.76 360.73 179.77 362.35 178.69 362.07 176.05 362.35 172.63 362.85 170.81 362.45 168.88 363.37 168.41 363.6 166.93 364.33 165.51 365.16 164.85 365.46 163.7 367.34 162.59 368.34 162.31 368.17 161.25 367.54 160.6 367.08 157.25 368.04 154.44 368.95 152.64 368.49 151.04 367.64 149.78 367.35 147.67 366.75 146.52 366.56 144.69 367.05 143.42 367.06 142.4 368.29 141.32 368.66 140.31 369.5 139.96 370.58 139.98 370.85 139.56 370.88 138.26 371.65 137.93 371.81 136.69 372.46 133.99 372.56 130.47 371.25 129.44 369.34 129.06 366.6 128.2 365.42 127.46 364.34 126.32 363.37 124.07 362.93 122.02 361.77 120.66 360.73 118.24 361.22 116.93 361.4 115.56 361.16 113.97 360.35 111.64 360.4 110.55 359.96 109.8 360.82 109.65 360.8 108.47 360.34 105.97 359.44 105.35 359.48 104.63 360.79 102.55 361.89 101.43 362.61 101.48 364.13 100.11 365.15 99.87 365.75 100.28 366.58 99.24 366.96 99.33 367.89 98.34 370.08 98.3 372.52 97.96 372.61 97.32 373.35 95.84 374.08 94.8 377.23 95.19 378.05 94.95 379.24 95.54 381.65 95.56 381.62 96.17 383.44 96.77 384.28 96.37 385.03 96.44 386.35 95.66 386.83 96.63 387.96 96.79 387.98 97.82 388.69 98.27 390.25 98.44 391.78 98.89 393.21 98.6 394.92 99.08 395.26 98.47 396.72 98.33 397.99 98.73 398.73 99.43 400.65 99.66 401.42 101.32 402.7 102.77 403.73 102.45 404.38 101.82 404.84 100.75 406.15 98.89 406.4 98.11 407.12 98.05 409.28 95.07 410 95.02 410.69 94.27 411.02 93.34 410.53 91.46 410.99 90.74 411.02 89.81 412.04 88.99 413.38 86.92 414.73 82.9 416.34 81.82 417.14 82.2 418.81 81.64 419.9 81.07 420.55 80.37 423.68 79.51 424.69 79.66 426.45 79.56 427.11 79 428.05 78.74 429.19 79.32 429.7 80.03 431.06 79.3 431.97 78.21 432.62 76.84 433.44 76.33 434.91 76.15 436.49 75.74 438.38 75.45 441.34 74.72 443.52 74.58 447.31 75.15 448.94 75.05 450.37 75.33 453.51 76.56 454.18 79.53 456.1 81.45 456.69 81.87 457.25 83.22 458.55 83.08 461.05 84.79 462.11 84.19 463.93 83.93 466.85 83.83 467.54 83.59 468.03 82.7 470.21 80.69 473.66 80.86 475.42 78.67 478.29 76.81 479.11 76.52 479.61 75.87 480.5 75.45 481.53 74.25 482.92 73.05 483.77 74.1 485.4 76.91 486.45 77.34 486.88 77.17 488.24 79.71 490.14 81.01 490.9 81.73 492.34 81.61 493.95 82.72 496.73 84.03 496.86 84.77 501.26 87.56 502.34 88.79 504.91 90.28 Z" id="32560320"/>
<path d="M 799 51.45 797.59 55.24 795.63 57.39 793.64 58.67 792.47 60.26 791.19 62.48 789.36 64.91 788.02 67.3 786.58 71.44 785.82 72.85 783.73 75.26 781.54 77.02 779.03 77.71 777.64 78.23 776.37 79.22 774.96 80.92 773.94 82.49 773.31 84.32 772.82 84.81 771.49 85.21 770.37 85.21 769.12 84.5 767.37 84.14 765.07 82.99 764.39 83.02 762.89 82.62 761.6 82.96 759.31 83.25 756.31 84.03 755.18 83.79 754.5 83.07 753.48 82.53 749.31 79.61 748.05 79.38 744.14 79.95 743.36 80.34 741.27 80.9 738.46 80.63 736.58 80.61 734.72 80.33 732.76 79.81 731.35 79.18 729.98 78.92 726.8 78.61 724.86 78.78 722.89 78.79 723.2 77.16 725 74.78 726.48 73.85 728.01 72.32 729.69 71.4 730.62 69.6 731.28 66.55 731.54 64.53 731.93 58.44 737.03 57.48 739.57 56.43 741.36 56.64 743.28 56.24 749.72 53.28 752.64 51.29 757.21 46.66 759.84 44.82 761.43 44.32 762.85 44.57 765.13 46.45 766.71 46.99 768.27 47.95 769.12 47.83 772.4 46.19 775.79 44.72 779.86 43.38 783.99 42.15 785.22 41.2 789.89 47.19 793.02 49.37 799 51.45 Z" id="32560290"/>
</g>
</svg>