<?xml version="1.0"?>
<svg xmlns="http://www.w3.org/2000/svg" version="1.2" baseProfile="tiny" width="800" height="616" viewBox="0 0 800 616" stroke-linecap="round" stroke-linejoin="round">
<g id="dong">
<path d="M 710.44 10.34 711.62 11.75 711.39 13.42 710.02 15.25 710.12 16.67 711.36 17.65 712.46 21.34 712.49 24.07 711 26.53 708.57 28.64 706.94 30.94 705.01 41.56 704.33 43.49 705.7 46.03 705.63 48.12 704.09 51.82 699.75 56.18 696.5 61.09 695.73 63.08 695.6 65.17 696.65 67.01 696.89 68.28 698.91 70.83 698.93 74.32 697.45 75.62 697.05 77.58 697.01 80.96 696.63 82.54 696.97 86.46 696.69 88.92 699.67 90.36 700.4 91.22 701.06 94.07 703.19 99.64 703.62 101.56 704.02 105.78 703.71 108.92 704 110.75 703.88 113.02 700.89 116.67 698.5 118.89 695.93 120.33 695.05 121.58 694.75 124.79 694.15 128.23 694.23 132.18 693.75 139.18 694.34 142.84 693.8 146.01 694.51 148.82 697.52 153.5 698.13 155.56 695.31 159.29 694.13 164.06 693.95 165.79 695.25 166.78 696.46 169.44 696.47 170.23 700.48 170.79 702.24 171.76 702.65 174.24 705.29 177.34 707 177.54 711.18 176.2 713.2 175.19 716.44 174.69 719.56 173.2 720.2 173.29 726.31 179.15 727.19 179.72 727.73 181.08 729.52 182.41 733.29 184.36 737.01 187.95 737.68 188.84 737.72 190.92 735.31 194.87 735.02 198.68 733.1 202.33 733.57 204.77 733.89 208.5 736.68 212.82 737.11 215.74 736.59 222.52 738.72 226.52 740.17 230.16 739.43 232.51 739.63 237.89 740.34 240.78 742.97 245.5 743.33 247.66 742.78 252.26 741.81 255.82 739.07 258.85 738.5 260.55 736.5 262.95 734.8 266.74 735.13 267.69 734.14 269.76 733.92 274.34 736.76 278.78 737.77 281.83 736.76 284.53 737.04 286.98 736.06 291.47 735.07 293.36 734.36 297.02 735.17 299.17 733.92 301.44 733.27 304.03 731.78 306.49 731.67 311.05 733.01 312.89 733.67 314.96 734.99 317.24 734.96 319.88 735.76 320.29 736.85 322.36 736.59 324.36 735.09 326.33 735.31 327.39 734.96 330.36 735.33 331.62 734.7 332.24 733.95 336.28 735.25 338.49 734.42 341.15 735.08 343.26 736.63 346.15 736.88 348.2 736.01 351.26 736.32 353.19 738.68 353.24 741.45 352.84 744.29 353.14 746.35 354.07 741.02 353.44 739.2 354.45 737.7 360.58 737.22 366.1 736.27 370.1 735.75 374.4 734.82 377.76 734.01 381.88 733.1 385.22 730.99 388.67 728.85 389.64 723.37 390 718.89 389.93 715.03 389.02 713.56 388.38 710.83 385.24 706.89 378.67 704.44 375.73 699.18 370.67 696.38 368.58 694.16 366.45 692.31 365.67 684.7 363.47 677.12 362.26 674.12 361.99 664.76 362 660.71 362.81 655.4 365.67 652.79 368.14 651.45 369 643.67 375.82 638.41 380.81 633.03 384.55 629.34 386 627.54 386.47 619.36 387.31 610.32 389.49 608.74 390.28 602.94 392.25 591.57 392.3 584.91 392.03 580.87 391.06 576 389.18 571.12 386.64 566.74 380.34 566.05 377.03 566.92 372.93 568.2 368.66 570.52 363.97 572.32 361.24 575.76 354.44 574.87 349.68 574.83 346.92 571.57 342.19 569.39 338.6 567.38 336.16 564.3 333.68 565.91 332.6 564.34 331.03 562.79 330.65 561.72 329.4 561.95 328.52 555.79 328.42 556.01 329.39 552.5 331.76 549.01 336.32 546.81 340.44 545.86 343.13 546.86 346.92 548.13 348.66 549.15 350.97 549.85 355.01 550.34 361.74 550.61 373.49 550.8 376.8 550.5 382.6 549.56 387.26 546.23 394.68 543.83 399.51 540.94 407.91 539.02 412.19 536.24 420.36 535.21 422.12 531.77 425.72 529.51 427.38 527.46 428.47 524.1 429.54 521.36 429.71 517.45 428.71 510.92 426.24 505.95 423.86 503.34 422.19 497.52 415.82 494.92 413.59 493.06 411.25 491.67 410.15 489.2 407.14 486.56 405.2 483.41 403.22 481.94 401.79 477.08 397.7 475.63 397.03 473.25 395.08 470.48 394.09 460.38 393.18 448.87 394.15 446.96 394.63 444.94 396.31 441.55 399.61 440.76 401.5 439.47 403.28 437.81 407.14 437.26 411.35 436.42 413.22 436.06 414.99 429.51 413.79 427.53 412.79 425.88 412.97 424.39 412.54 424.94 411.18 427.2 408.24 424.28 404.84 425.69 401.84 426.48 399.09 427.92 397.34 428.4 395.94 431.51 393.44 432.67 390.78 426.9 390.89 427.31 388.51 426.8 387.88 423.6 387.63 420.09 384.5 418.53 384.79 414.44 381.38 414.08 379.09 412.64 377.76 410.25 377.01 409.27 377.33 408.44 375.56 407.67 372.13 406.69 370.43 409.04 369.2 410.79 367.63 411.31 366.29 414.05 365.69 418.39 366.49 417.76 363.23 420.39 360 420.74 358.4 421.86 357.33 424.05 357.02 430.69 354.68 430.7 353.51 431.43 348.13 429.72 339.25 427.74 336.07 427.6 330.47 426.12 325.65 422.09 317.71 420.62 315.67 416.44 315.34 415.09 315.61 414.5 314.88 411.6 314.45 408.85 313.56 406.95 314.27 403.91 309.65 402.22 308.43 401.54 308.82 398.54 307.46 393.29 306.98 390.57 306.26 388.7 304.59 386.83 303.53 387.71 301.18 386.63 299.08 384.68 297.54 384.16 296.11 383.32 295.86 383.5 292.84 385 291.78 386.89 291.88 391.75 290.32 392.83 290.7 396.15 290.51 399.14 290.98 400.51 289.96 400.08 286.67 400.34 285.65 404.11 283.01 406.68 282.85 406.78 279.82 403.28 279.11 402.87 278.14 402.57 273.06 403.54 271.26 408.06 268.4 410.8 267.84 412.71 266.89 414.14 266.98 416 267.9 418.34 269.6 419.78 269.99 422.04 265.75 423.85 265.07 424.07 263.88 425.62 261.98 430.51 261.55 431.63 260.25 435.22 258.71 436.96 258.85 438.42 257.62 438.72 256.11 438 253.22 438.92 251.03 438.85 248.36 438.51 247.48 439.41 245.4 440.9 243.42 443.21 242.65 446.31 239.3 446.79 237.59 445.71 235.77 446.58 232.96 446.02 230.98 446.39 228.73 449.62 224.63 450 222.11 451.63 220.2 452.14 216.02 451.25 214.14 451.55 213.12 453.88 210.26 454.06 207.05 455.23 204 454.8 201.8 455.2 200.89 455.36 198.47 454.46 196.18 453.86 192.92 453.01 190.81 454.33 189.05 455.06 187.11 455.61 182.96 455.04 179.19 454.45 178.24 454.17 175.47 452.44 169.2 452.61 167.11 456.88 159.58 457.02 158.12 456.62 156.17 457.73 154.64 457.96 152.78 457.31 148.5 457.73 146.45 457.58 143.95 456.44 139.08 456.74 136.49 457.56 134.74 459.62 133.15 460.27 131.88 463.36 130.51 465.42 129.18 468.5 126.17 472.44 123.98 478.58 122.77 480.42 123.1 482.86 122.66 491.71 123.16 490.4 117.66 487.63 111.65 486.9 108.33 485.72 106.67 483.25 104.09 481.36 101.46 479.08 97.77 478.89 95.46 477.65 92.92 476.16 90.8 474.86 88.23 473.04 85.82 470.55 84 468.01 82.97 464.85 81 466 78.45 465.74 76.3 464.43 73.3 463.96 69.38 463.4 67.44 463.29 62.41 468.39 59.29 474.99 53.44 477.42 50.46 478.99 47.61 479.99 44.58 480.86 39.54 481.36 38.59 487.72 30.75 489.3 27.95 490.43 26.58 494.83 23.08 497 21.75 499.45 21.76 501.47 22.77 504.5 23.1 508.52 20.31 512.13 18.37 517.8 16.23 520.44 14.52 526.1 11.74 528.81 11.32 531.91 11.23 539.52 11.73 542.22 11.53 547.63 8.95 551.21 7.88 554.23 7.29 562.53 6.63 570.23 4.43 574.07 2.75 578.06 1.46 581.51 4.88 583.7 6.81 586.45 8.54 590.94 12.74 593.52 17.62 595.68 18.93 597.92 20.75 600.61 22.28 603.04 22.25 605.3 22.56 608.27 23.78 610.04 23.97 611.6 20.72 613.79 14.63 615.16 11.48 618.09 7.06 620.39 4.36 622.07 3.12 626.18 1.25 627.98 1.3 631.19 1.28 634.37 1 639.57 1.52 641.82 1.95 644.12 2.97 647.32 3.82 650.37 4.27 653.44 4.31 658.04 4.76 661.45 3.84 662.74 3.21 669.12 2.27 671.18 2.65 678 7.41 679.67 8.29 680.79 9.48 682.63 9.87 687.54 8.59 691.28 8.12 693.38 7.56 695.85 8.22 696.95 8.16 700.72 10.05 703.58 10.63 705.62 11.8 707.46 11.8 709.64 11.15 710.44 10.34 Z" id="32570110"/>
<path d="M 746.35 354.07 752.82 357.85 754.37 359.1 755.27 360.75 753.08 365.27 753.97 368.23 750.33 372.24 749.08 373.03 750.43 375.14 750.48 376.1 751.53 377.95 751.69 381.5 753.06 385.39 751.8 386.06 750.85 387.78 751.07 388.82 754.03 390.08 755.23 392.04 754.84 395.1 755.06 398.96 755.78 402.15 756.4 406.26 758.45 408.61 759.89 408.43 761.96 409.15 763.34 409.23 767.74 410.13 770.39 411.07 777.66 411.55 780.37 416.36 780.84 418.14 781.71 419.43 781.46 420.7 782.23 424.41 784.54 425.94 786.31 430.78 786.97 431.78 788.85 433.27 787.73 436.21 787.67 438.18 785.77 439.83 786.15 440.4 784.61 442.26 783.29 444.89 782.39 448.65 783.44 454.85 786 457.81 788.28 463.28 791.52 467.15 793.36 468.49 797.41 476.61 799 478.91 798.34 480.77 795.93 482.9 792.72 484.22 790.55 486.61 784.68 489.7 782.8 491.62 781.06 495.67 778.61 496.11 775.78 497.13 772.99 495.19 768.44 494.76 760.8 496.86 757.3 496.79 754.18 498.34 751.39 499.27 748.07 501.35 744.04 502.21 742.04 502.84 740.39 502.24 735.14 498.98 731.72 499.86 731.01 500.65 728.11 498.97 726.57 499.13 723.88 498.2 722.58 496.97 717.7 496.94 711.92 497.62 709.19 497.65 702.59 492.84 699.74 496.61 699.18 501.24 698.57 501.96 696.18 507.03 697 510.72 696.27 511.5 696.28 513.3 697.16 514.07 694.24 518.7 694.51 523.26 693.03 526.45 693.95 530.38 693.9 532.26 695.26 534.06 695.83 535.96 695.83 537.73 703.76 542.31 701.43 546.96 701.44 549.35 702.9 553.79 708.09 562.74 707.21 563.58 698.43 566.7 694.5 567.28 691.85 570.36 690.5 572.32 688.86 572.7 685.27 572.16 681.46 572.62 677.97 573.46 674.6 576.95 673.48 579.39 670.32 582.31 667.76 584.04 662.49 584.98 659.48 590.25 660.25 595.82 658.64 597.05 657.31 599.11 657.22 600.89 653.68 600.14 649.52 596.43 645.95 594.51 640.35 595.25 638.26 595.03 634.27 595.07 631.63 595.96 627.39 599.62 625.85 601.26 622.87 601.69 617.69 601.82 615.87 603.59 611.76 606.7 606.53 609.63 603.69 611.96 598.8 613.84 596.82 614.98 593.09 615 592.48 612.77 592.3 609.77 591.95 608.77 592.43 606.67 590.16 604.61 590.5 602.03 588.56 599.93 588.55 597.35 586.41 594.59 584.61 589.59 581.5 585.38 580.34 583.11 579.53 578.44 577.8 574.68 576.24 574.18 573.48 574.84 571.1 574.14 569.01 574.92 568.23 573.39 568.6 570.63 570.39 568.6 570.44 567.06 571.12 566.27 571.12 564.45 569.86 563.75 569.77 560.82 569.09 560.16 568.62 557.8 567.56 557.22 567.35 555.7 565.55 553.29 565.42 551.91 564.45 551.52 564 549.94 564.07 548.34 563.15 547.59 562.97 545.96 561.73 544.36 560.45 544.75 559.11 544.4 558.16 543.52 555.9 543.09 553.36 543.28 552.96 542.47 550.81 541.58 547.42 541.1 547.38 539.58 545.24 536.92 545.18 535.52 544.36 534.67 544.17 531.96 542.98 530.9 540.52 531.36 536.39 530.63 535.35 530.97 534 530.23 532.75 530.39 530.71 529.26 529.64 529.57 529.03 528.21 527.42 527.16 525.24 523.74 525.66 522.04 525.12 521.25 525.1 516.04 525.33 513.96 524.04 510.87 528.75 499.24 530.24 496.94 529.85 492.5 530.02 486.6 529.25 477.39 526.4 475.09 520.56 473.14 516.73 472.34 514.92 472.82 510.43 472.43 509.74 471.89 508.07 468.39 507.42 465.58 506.58 465.08 502.78 461.21 504.12 459.11 505.72 457.42 506.56 454.39 506.9 451.91 506.89 447.82 506.25 445.16 506.85 441.77 506.78 438.69 508.21 437.17 506.58 433.88 504.19 431.78 502.72 431.32 502.07 429.84 500.58 429.78 499.48 429.15 497.48 426.84 494.18 422.03 492.01 421.64 491.89 420.26 490.59 417.43 490.89 415.46 490.13 413.76 490.13 411.47 491.67 410.15 493.06 411.25 494.92 413.59 497.52 415.82 503.34 422.19 505.95 423.86 510.92 426.24 517.45 428.71 521.36 429.71 524.1 429.54 527.46 428.47 529.51 427.38 531.77 425.72 535.21 422.12 536.24 420.36 539.02 412.19 540.94 407.91 543.83 399.51 546.23 394.68 549.56 387.26 550.5 382.6 550.8 376.8 550.61 373.49 550.34 361.74 549.85 355.01 549.15 350.97 548.13 348.66 546.86 346.92 545.86 343.13 546.81 340.44 549.01 336.32 552.5 331.76 556.01 329.39 555.79 328.42 561.95 328.52 561.72 329.4 562.79 330.65 564.34 331.03 565.91 332.6 564.3 333.68 567.38 336.16 569.39 338.6 571.57 342.19 574.83 346.92 574.87 349.68 575.76 354.44 572.32 361.24 570.52 363.97 568.2 368.66 566.92 372.93 566.05 377.03 566.74 380.34 571.12 386.64 576 389.18 580.87 391.06 584.91 392.03 591.57 392.3 602.94 392.25 608.74 390.28 610.32 389.49 619.36 387.31 627.54 386.47 629.34 386 633.03 384.55 638.41 380.81 643.67 375.82 651.45 369 652.79 368.14 655.4 365.67 660.71 362.81 664.76 362 674.12 361.99 677.12 362.26 684.7 363.47 692.31 365.67 694.16 366.45 696.38 368.58 699.18 370.67 704.44 375.73 706.89 378.67 710.83 385.24 713.56 388.38 715.03 389.02 718.89 389.93 723.37 390 728.85 389.64 730.99 388.67 733.1 385.22 734.01 381.88 734.82 377.76 735.75 374.4 736.27 370.1 737.22 366.1 737.7 360.58 739.2 354.45 741.02 353.44 746.35 354.07 Z" id="32570310"/>
<path d="M 406.69 370.43 407.67 372.13 408.44 375.56 409.27 377.33 410.25 377.01 412.64 377.76 414.08 379.09 414.44 381.38 418.53 384.79 420.09 384.5 423.6 387.63 426.8 387.88 427.31 388.51 426.9 390.89 432.67 390.78 431.51 393.44 428.4 395.94 427.92 397.34 426.48 399.09 425.69 401.84 424.28 404.84 427.2 408.24 424.94 411.18 424.39 412.54 425.88 412.97 427.53 412.79 429.51 413.79 436.06 414.99 436.42 413.22 437.26 411.35 437.81 407.14 439.47 403.28 440.76 401.5 441.55 399.61 444.94 396.31 446.96 394.63 448.87 394.15 460.38 393.18 470.48 394.09 473.25 395.08 475.63 397.03 477.08 397.7 481.94 401.79 483.41 403.22 486.56 405.2 489.2 407.14 491.67 410.15 490.13 411.47 490.13 413.76 490.89 415.46 490.59 417.43 491.89 420.26 492.01 421.64 494.18 422.03 497.48 426.84 499.48 429.15 500.58 429.78 502.07 429.84 502.72 431.32 504.19 431.78 506.58 433.88 508.21 437.17 506.78 438.69 506.85 441.77 506.25 445.16 506.89 447.82 506.9 451.91 506.56 454.39 505.72 457.42 504.12 459.11 502.78 461.21 506.58 465.08 507.42 465.58 508.07 468.39 509.74 471.89 510.43 472.43 514.92 472.82 516.73 472.34 520.56 473.14 526.4 475.09 529.25 477.39 530.02 486.6 529.85 492.5 530.24 496.94 528.75 499.24 524.04 510.87 525.33 513.96 525.1 516.04 525.12 521.25 525.66 522.04 525.24 523.74 523.82 521.04 521.99 521.98 521.97 523.22 520.54 524.93 519.18 525 516.56 524.11 515.51 524.59 513.05 524.19 512.14 524.52 509.45 523.77 508.78 524.65 507.59 524.81 506.46 526.09 505 526.15 503.09 527.88 502.43 529.01 501.09 530 500.46 531.33 499.73 534.87 498.23 534.67 495.05 535.35 494.87 537.21 493.9 538.87 494.25 540.59 493.88 542.71 491.71 544.89 491.51 546.46 490.24 547.48 490.06 548.94 489.01 549.55 488.81 551.5 486.27 551.75 485.29 552.41 482.81 552.16 481.12 552.57 479.36 552.28 478.14 552.68 476.83 552.38 475.04 552.76 473.19 552.49 472.49 553.88 470.66 553.67 469.23 554.09 468.37 551.65 466.95 548.59 465.84 545.01 464.3 540.88 463.5 540.22 462.33 536.6 460.03 534.43 457.95 531.51 455.42 529.59 454.24 527.85 451.88 526.43 447.03 524.45 444.36 525.29 443.67 526.2 439.67 527.8 437.43 530.03 436.34 530.46 433.59 530.75 432.44 530.33 430.22 530.64 425.64 532.69 423.45 532.8 420.27 531.6 419.02 531.59 418.06 532.88 416.33 533.13 411.11 529.54 406.27 529.81 403.84 530.18 401.46 531.39 400.22 531.26 396.46 533.23 394.42 535.09 393.2 536.62 390.69 538.74 389.61 541.19 387.85 541.29 387.09 542.06 385.16 542.54 384 543.37 381.95 542.76 381.3 544.41 374.22 547.72 372.37 547.8 372.12 550.97 373.39 554.36 371.13 555.03 369.67 554.15 365.53 548.41 364.71 546.53 363.88 541.72 361.78 539.02 361.06 535.1 361.05 533.06 361.55 529.52 361.56 526.65 362.34 520.05 362.09 518.9 361.9 514 362.2 511.76 363.83 509.37 367.04 505.94 368.98 500.97 369.41 498.42 369.3 495.93 368.38 493.13 367.17 490.97 364.66 488.86 360.62 487.28 357.48 486.65 356.21 486.99 354.45 488.23 350.33 493.46 349.38 496.37 343.96 497.68 340.25 499.2 335.7 500.51 332.74 500.42 324.77 499.05 322.83 498.62 320.43 497.46 317.29 493.82 312.53 487.85 311.07 485.77 309.78 485.07 307.19 484.62 304.48 485.25 301.98 486.79 300.59 487.22 297.12 481.73 294.75 479.43 290.17 477.82 291.67 471.57 294.21 464.26 294.81 461.31 294.44 459.22 293.67 458.02 293.92 455.61 288.89 453.6 287.53 452.3 283.47 449.54 281.63 447.43 278.01 444.88 277.02 443.3 275.78 438.55 270.26 437.71 265.51 437.28 262.67 436.57 260.82 437.69 257.32 438.03 255.81 436.63 253.22 436.21 252.17 434.39 249.3 433.45 245.59 431.31 241.9 429.49 240.64 428.51 237.19 428.08 234.02 428.49 232.67 429.37 229.18 429.77 225.02 430.59 223.47 428.41 221.52 426.46 220.56 426.15 220.58 424.88 218.57 422.01 218.19 419.36 216.12 415.92 216.2 414.82 215.44 413.93 215.98 411.66 214.73 410.22 214.13 408.66 212.7 407.39 212.07 405.68 211.07 405.43 209.19 403.42 208.35 400.93 208.34 399.56 207.24 398.01 207.31 396.87 206.12 394.13 206.11 391.26 207.72 387.58 207.72 383.65 209.45 382.12 213.07 378.05 214.91 375.57 215.87 372.37 217.44 368.78 217.41 367.58 218.1 364.72 218.02 361.61 217.05 358.37 215.31 354.47 215.32 351.52 215.88 348.82 214.57 347.21 213.67 346.92 212.24 343.71 212.19 341.23 211.73 338.39 213.55 335.85 216.99 332.73 218.06 329.13 222.06 326.31 225.73 325.49 229.13 326.49 232.66 325.58 237.49 326.55 241.31 326.6 244.47 327.99 246.91 327.97 255.34 329.26 258.45 327.81 263.8 328.95 266.67 328.81 269.64 327.75 271.78 326.66 274.3 327.64 275.76 325.54 278.96 324.8 283.66 326.24 286.61 325.61 291.22 328.49 292.41 332.24 295.31 335.33 296.22 336.87 298.9 339.54 303.4 341.75 306.37 344.07 309.35 346.67 310.48 348.79 312.23 349.73 312.36 351.71 313.87 352.8 315.29 351.75 317.29 351.98 318.52 350.01 320.99 349.22 322.79 347.83 326.57 346.1 330.02 343.88 334.02 342.09 335.6 340.9 340.57 339.46 345.27 340.61 353.65 344.75 355.21 345.13 355.21 342.83 355.98 342.05 356.7 343.98 358 343.68 361.3 341.86 365.06 341.48 366.35 342.44 368.53 345.1 369.98 346.45 374.36 345 376.27 344.02 378.42 344.19 381.77 345.01 384.6 350.6 387.79 351.54 389.74 351.76 392.3 352.66 393.23 354.11 394.68 355.03 396.8 355.2 400.22 354.91 401.84 355.68 402.26 357.09 401.19 360.03 403.35 362.19 403.55 363.63 405.95 367.96 406.69 370.43 Z" id="32570320"/>
<path d="M 464.85 81 468.01 82.97 470.55 84 473.04 85.82 474.86 88.23 476.16 90.8 477.65 92.92 478.89 95.46 479.08 97.77 481.36 101.46 483.25 104.09 485.72 106.67 486.9 108.33 487.63 111.65 490.4 117.66 491.71 123.16 482.86 122.66 480.42 123.1 478.58 122.77 472.44 123.98 468.5 126.17 465.42 129.18 463.36 130.51 460.27 131.88 459.62 133.15 457.56 134.74 456.74 136.49 456.44 139.08 457.58 143.95 457.73 146.45 457.31 148.5 457.96 152.78 457.73 154.64 456.62 156.17 457.02 158.12 456.88 159.58 452.61 167.11 452.44 169.2 454.17 175.47 454.45 178.24 455.04 179.19 455.61 182.96 455.06 187.11 454.33 189.05 453.01 190.81 453.86 192.92 454.46 196.18 455.36 198.47 455.2 200.89 454.8 201.8 455.23 204 454.06 207.05 453.88 210.26 451.55 213.12 451.25 214.14 452.14 216.02 451.63 220.2 450 222.11 449.62 224.63 446.39 228.73 446.02 230.98 446.58 232.96 445.71 235.77 446.79 237.59 446.31 239.3 443.21 242.65 440.9 243.42 439.41 245.4 438.51 247.48 438.85 248.36 438.92 251.03 438 253.22 438.72 256.11 438.42 257.62 436.96 258.85 435.22 258.71 431.63 260.25 430.51 261.55 425.62 261.98 424.07 263.88 423.85 265.07 422.04 265.75 419.78 269.99 418.34 269.6 416 267.9 414.14 266.98 412.71 266.89 410.8 267.84 408.06 268.4 403.54 271.26 402.57 273.06 402.87 278.14 403.28 279.11 406.78 279.82 406.68 282.85 404.11 283.01 400.34 285.65 400.08 286.67 400.51 289.96 399.14 290.98 396.15 290.51 392.83 290.7 391.75 290.32 386.89 291.88 385 291.78 383.5 292.84 383.32 295.86 384.16 296.11 384.68 297.54 386.63 299.08 387.71 301.18 386.83 303.53 388.7 304.59 390.57 306.26 393.29 306.98 398.54 307.46 401.54 308.82 402.22 308.43 403.91 309.65 406.95 314.27 408.85 313.56 411.6 314.45 414.5 314.88 415.09 315.61 416.44 315.34 420.62 315.67 422.09 317.71 426.12 325.65 427.6 330.47 427.74 336.07 429.72 339.25 431.43 348.13 430.7 353.51 430.69 354.68 424.05 357.02 421.86 357.33 420.74 358.4 420.39 360 417.76 363.23 418.39 366.49 414.05 365.69 411.31 366.29 410.79 367.63 409.04 369.2 406.69 370.43 405.95 367.96 403.55 363.63 403.35 362.19 401.19 360.03 402.26 357.09 401.84 355.68 400.22 354.91 396.8 355.2 394.68 355.03 393.23 354.11 392.3 352.66 389.74 351.76 387.79 351.54 384.6 350.6 381.77 345.01 378.42 344.19 376.27 344.02 374.36 345 369.98 346.45 368.53 345.1 366.35 342.44 365.06 341.48 361.3 341.86 358 343.68 356.7 343.98 355.98 342.05 355.21 342.83 355.21 345.13 353.65 344.75 345.27 340.61 340.57 339.46 335.6 340.9 334.02 342.09 330.02 343.88 326.57 346.1 322.79 347.83 320.99 349.22 318.52 350.01 317.29 351.98 315.29 351.75 313.87 352.8 312.36 351.71 312.23 349.73 310.48 348.79 309.35 346.67 306.37 344.07 303.4 341.75 298.9 339.54 296.22 336.87 295.31 335.33 292.41 332.24 291.22 328.49 286.61 325.61 283.66 326.24 278.96 324.8 275.76 325.54 274.3 327.64 271.78 326.66 269.64 327.75 266.67 328.81 263.8 328.95 258.45 327.81 255.34 329.26 246.91 327.97 244.47 327.99 241.31 326.6 237.49 326.55 232.66 325.58 229.13 326.49 225.73 325.49 222.06 326.31 218.06 329.13 216.99 332.73 213.55 335.85 211.73 338.39 208.72 338.79 205.93 336.74 201.93 335.26 198.33 331.79 196.67 328.24 197.46 324.22 197.09 321.31 195.59 318.94 195.44 314.31 196.2 310.61 196.23 309.28 195.75 303.14 195.29 300.14 195.84 297.01 195.57 293.57 196.14 290.45 195.97 285.45 192.62 284.85 191.53 283.95 183.08 280.77 181.4 278.96 178.75 279.83 175.64 280.03 174.53 279.65 172.08 281.06 168.76 282.05 164.53 282.88 161.96 282.42 160.03 283.29 155.74 284.11 152.63 284.3 149.43 287.3 147.46 288.59 145.09 288.91 142.59 290.51 140.26 291.52 138.37 290.87 137.01 291.45 134.01 292.07 133.34 293.18 131.35 294.72 126.66 293.21 123.69 293.83 121.57 296.15 119.83 296.2 118.86 294.48 115.88 291.14 115.34 290.26 114.1 290.02 113.25 289 110.01 288.46 108.55 287.9 106.9 286.57 104.59 282.1 102.4 280.95 99.75 273.94 100.1 272.78 101.78 270.93 105.94 267.89 107.32 264.9 107.18 263.55 107.73 261.47 109.36 259.33 110.26 256.99 111.49 256.85 112.97 255.61 116.54 249.26 118.95 247.7 121.89 243.92 122.85 241.13 121.84 238.65 121.31 235.74 122.21 232.9 122.66 229.26 121.9 226.26 121.03 220.21 122.7 217.26 124.26 209.87 124.49 207.83 125.71 203.73 126.32 199.48 127.82 192.89 128.76 190.31 132.59 190.18 136.91 189.26 139.53 189.27 142.74 190.49 145.8 189.7 147.93 188.46 154.99 187.1 155.8 185.76 155.77 183.94 157.49 182.84 158.97 180.9 161.84 175.13 163.8 170.69 166.6 166.19 172.3 165.84 174.97 166.1 176.28 163.38 177.64 161.96 180.94 156.54 184.3 153.12 184 151.24 180.94 147.26 180.99 145.46 178.74 142.24 179.25 136.75 180.46 133.23 183.3 127.18 185.42 123.95 188.57 123.07 190.85 123.13 192.39 122.75 195.52 122.57 197.05 121.54 198.99 121.75 201 121.15 203.72 120.99 207.63 121.06 210.99 120.09 214.49 116.51 216.88 114.68 219.2 112.36 219.98 111.97 223.71 108.01 224.85 104.72 226.73 101.48 227.99 98.14 228.17 93.7 228.69 92.14 228.34 90.75 228.38 88.5 229.44 85.66 234.85 82.2 236.93 80.72 238.9 78.84 240.21 78.45 241.43 76.78 243.35 75.43 244.04 70.55 247.43 68.89 249.1 69.92 251 68.46 251.93 68.27 253.51 66.99 256.11 68.13 257.72 68.4 260.92 67.79 263.93 61.62 268.44 59.98 274.14 56.79 273.6 55.89 274.98 52.08 274.39 47.81 276.09 41.66 272.33 38.87 268.44 29.34 268.4 24.93 271.5 20.09 273.88 17.25 275.87 15.36 277.32 14.59 279.29 14.33 281.91 14.54 284.22 13.97 287.76 12.32 290.41 10.57 290.76 14.22 291.24 16.97 292.28 19.48 293.85 21.67 296.07 23.79 299.67 28.46 302.28 30.76 306.44 31.78 308.52 32.56 310.18 34 311.22 36.33 311.3 38.31 310.61 40.38 310.85 42.33 312.86 44.7 315.9 46.56 317.58 49.93 319.1 51.49 323.08 53.97 326.95 54.13 329.2 54.65 331.14 55.68 332.9 57.62 335.42 58.96 337.76 59.45 339.34 59.38 340.85 58.7 342.64 56.92 344.04 56.54 346.6 57.58 348.53 58.01 353.03 58.19 355.04 61.53 355.86 62.16 357.81 62.12 362.11 59.66 365.92 58.05 368.42 56.73 372.95 55.79 375.35 54.79 377.06 53.64 379.28 53.48 381.96 53.77 384.03 54.74 386.63 54.9 390.17 54.7 393.07 53.94 396.98 53.45 398.95 55.98 401.46 60.6 401.64 63.07 402.26 64.01 403.91 64.65 406.27 65 408.11 66.63 410.95 73.64 411.99 75.38 414.96 77.39 420.65 79.17 424.15 82.15 426.3 83.46 434.26 84.38 437.53 84.98 440.58 85.12 448.31 85.86 450.99 85.93 453.39 85.05 455.53 83.58 457.72 81.66 459.69 80.49 462.35 80.5 464.85 81 Z" id="32570330"/>
<path d="M 211.73 338.39 212.19 341.23 212.24 343.71 213.67 346.92 214.57 347.21 215.88 348.82 215.32 351.52 215.31 354.47 217.05 358.37 218.02 361.61 218.1 364.72 217.41 367.58 217.44 368.78 215.87 372.37 214.91 375.57 213.07 378.05 209.45 382.12 207.72 383.65 207.72 387.58 206.11 391.26 206.12 394.13 207.31 396.87 207.24 398.01 208.34 399.56 208.35 400.93 209.19 403.42 211.07 405.43 212.07 405.68 212.7 407.39 214.13 408.66 214.73 410.22 215.98 411.66 215.44 413.93 216.2 414.82 216.12 415.92 218.19 419.36 218.57 422.01 220.58 424.88 220.56 426.15 221.52 426.46 223.47 428.41 225.02 430.59 223.79 433.91 224.01 435.06 225.75 438.63 226.05 440.13 225.46 441.19 225.51 442.6 224.1 444.77 222.09 448.77 222.54 451.11 221.98 456.05 223.97 460.74 224.47 464.32 226.04 466.96 228.48 466.28 231.22 466.4 235.8 470.06 238.44 471.95 241.98 475.59 243.17 477.04 243.75 479.93 243.81 482.2 243.17 485.21 244.47 486.74 246.01 487.02 247.6 489.13 247.62 491.34 246.07 493.41 243.55 494.92 240.79 496.17 240.21 497.47 238.64 499.33 239.03 502.15 238.47 507.26 241.07 510.76 241.67 512.29 244.85 516.06 245.71 518.44 246.28 522.56 243.91 523.98 241.99 526.32 241.29 528.23 239.92 529.4 238.77 531.49 233.13 534.81 231.99 537.04 228.46 538.26 227.07 539.07 226.62 541.47 224.51 543.69 224.19 548.75 222.92 550.81 222.89 553.17 223.92 555.26 222.08 559.84 218.63 561.11 215.72 562.43 209.72 562.37 207.77 562.88 205.49 564.13 204.07 564.53 200.39 564.6 197.97 563.91 194.99 563.96 193.26 564.86 190.58 565.17 190.76 567.14 189.95 569.24 189.71 572.01 189.21 572.76 189.05 575.15 188.53 577.69 188.69 581.6 187.94 583.3 185.74 590.62 184.84 595.32 184.68 597.64 183.55 601.83 183.46 603.58 182.74 604.82 177.86 604.66 168.21 601.1 165.32 602.66 160.02 603.32 155.48 602.92 150.87 604.08 147.8 604.33 144.79 604.9 141.95 604.77 137.31 605.83 131.57 603.56 123.38 610.62 117.75 605.34 113.65 603.71 112.54 598.64 110.74 598.53 105.43 597.52 102.4 596.46 99.73 595.97 96.27 595.91 92.53 596.28 88.66 595.19 86.28 593.52 83.35 593.22 78.84 593.42 75.85 593.22 71.08 593.5 69.82 593.15 68.24 590.08 66.66 588.17 63.72 586.76 59.5 584.16 57.92 582.55 55.56 582.22 53.21 579.86 51.61 576.86 50.38 576.25 49.2 574 46.54 571.25 45.41 568.19 45.05 563.06 43.9 559.96 43.65 555.77 42.68 554.11 44.5 550.94 42.87 545.74 39.58 542.44 39.29 538.55 38.41 536.28 37.02 534.5 37.28 532.86 35.58 527.24 36.76 519.95 38.29 514.92 38.6 508.22 37.7 506.32 34.5 505.24 33.01 503.89 31.06 501.31 27.55 499.86 27.14 498.64 28.32 493.57 26.99 490.7 25.69 489.28 24.76 487.24 24.58 485.22 24.84 482.03 25.74 480.29 25.07 478.73 27.19 473.19 27.05 471.58 28.22 466.39 27.76 463.67 28.18 458.07 27.65 455.61 26.84 454.23 24.57 452.16 24.41 450.65 27.52 444.67 28.38 441.67 28.64 438.2 27.77 433.63 27.91 430.03 27.54 428.11 25.69 425.38 24.81 423.06 25.33 420.71 25.95 416 26.54 413.22 26.13 410.48 25.41 409.04 25.32 403.25 24.41 401.36 20.48 394.06 19.34 390.66 18.95 383.81 18.61 382.29 17.43 379.55 15.85 377.7 12.51 376.13 9.07 376.2 7.27 375.84 5 374.02 3.91 370.05 1.66 365.98 1 365.98 4.82 359.85 8.22 357.97 9.88 356.12 11.36 355.25 13.43 352.41 16.35 350.02 18.74 347.15 19.66 346.95 21.98 347.97 24.02 348.29 25.21 351.36 25.28 352.66 26.18 353.27 27.58 355.25 28.21 356.83 26.35 362.2 29.26 361.66 32.22 360.74 35.05 360.98 37.86 361.67 39.42 361.47 39.89 359.76 39.58 357.46 39.94 354.92 41.05 353.39 44.41 352.44 44.95 350.38 47.86 349.31 50.13 349.41 52.28 350.04 53.17 349.86 55.38 347.13 59.31 346.28 61.89 345.24 64.11 345.09 66.77 346.42 68.98 346.88 73.2 346.18 74.24 346.69 78.63 345.39 81.44 346.65 84.33 345.79 86.86 346.24 89.55 344.96 93.03 341.91 94.59 341.06 96.65 339.22 98.23 338.6 99.79 337.08 100.06 336.12 101.62 335.34 102.06 333.7 107.61 328.63 107.09 325.66 108.1 322.08 108.74 320.92 108.68 318.03 111.27 313.31 112.27 310.39 114.89 310.88 115.94 310.42 116.17 309.19 118.26 306.18 118.98 303.29 118.82 299.73 119.05 298.05 119.83 296.2 121.57 296.15 123.69 293.83 126.66 293.21 131.35 294.72 133.34 293.18 134.01 292.07 137.01 291.45 138.37 290.87 140.26 291.52 142.59 290.51 145.09 288.91 147.46 288.59 149.43 287.3 152.63 284.3 155.74 284.11 160.03 283.29 161.96 282.42 164.53 282.88 168.76 282.05 172.08 281.06 174.53 279.65 175.64 280.03 178.75 279.83 181.4 278.96 183.08 280.77 191.53 283.95 192.62 284.85 195.97 285.45 196.14 290.45 195.57 293.57 195.84 297.01 195.29 300.14 195.75 303.14 196.23 309.28 196.2 310.61 195.44 314.31 195.59 318.94 197.09 321.31 197.46 324.22 196.67 328.24 198.33 331.79 201.93 335.26 205.93 336.74 208.72 338.79 211.73 338.39 Z" id="32570340"/>
</g>
</svg>