<?xml version="1.0"?>
<svg xmlns="http://www.w3.org/2000/svg" version="1.2" baseProfile="tiny" width="800" height="1044" viewBox="0 0 800 1044" stroke-linecap="round" stroke-linejoin="round">
<g id="dong">
<path d="M 445.74 551.01 446.68 555.82 447.68 556.59 447.52 562.49 446.77 567.05 447.47 568.34 446.94 570.88 449.04 575.13 449.22 577.33 447.73 580.53 453.6 584.55 454.48 587.76 454.86 592.66 456.28 593.04 458.79 596.84 459.24 599.02 460.57 599.47 461.5 602.49 464.95 605.05 467.09 607.51 467.11 610.35 468.6 612.64 468.3 615.04 470.84 619.83 471.12 621.98 467.79 623.73 467.73 626.62 464.34 626.68 462.49 627.51 461.08 626.76 459.04 627.34 455.17 629.95 453.96 633.13 448.95 635.64 448.97 637.68 447.8 639.22 448.47 640.43 448.17 643.73 445.68 649.11 443.87 650.19 441.66 654 439.86 654.75 440.87 657.15 439.06 661.73 439.21 665.95 435.28 670.03 435.25 672.19 434.27 674.38 430.12 673.91 426.8 672.57 422.24 676.17 421.99 679.84 421.14 680.13 419.8 683.83 417.74 685.77 415.95 686.23 410.96 691.04 410.02 690.53 404.1 697.84 401.45 699.51 403.96 703.56 403.93 706.81 405.09 710.52 403.03 714.27 403.68 715.96 399.87 718.44 398.79 717.59 396.81 718.13 396.91 720.02 398.18 721.12 399.05 726.26 399.01 728.51 400.88 730.44 401.77 732.64 401.62 734.78 402.9 736.53 401.66 739.63 402.15 740.81 398.9 743.34 396.02 744.61 397.16 750.36 387.71 752.47 387.59 755.17 389.4 759.45 389.43 761.4 388.16 764.4 388.59 769.93 384.2 769.18 371.02 767.52 370.74 771.87 368.24 771.28 366.84 774.72 365.15 775.14 359.1 775.05 354.23 773.58 354.47 776.58 355.81 779.11 358.46 782.28 358.61 786.12 359.37 789.1 358.42 792.12 354.32 794.82 353.19 797.5 353.44 799.84 353.31 806.24 353.89 813.37 355.02 815.99 352.75 820.5 352.38 825.11 353 830.89 354.28 833.74 353.58 837.1 352.14 838.94 349.2 840.72 347.89 843.13 346.41 848.1 344.4 851.62 340.88 853.59 339.64 855.63 336.66 858.84 336.79 862.73 335.36 863.61 335.82 865.65 335.6 869.23 333.51 870.84 333.91 875.07 331.74 876.43 332.39 879.21 328.73 879.67 327.77 883.39 328.14 885.98 327.51 889.96 325.66 894.36 323.88 894.83 324.05 896.67 325.49 899.29 326.17 903.94 325.19 910.42 326.74 914.63 326.97 919.07 328.65 924.68 327.82 927.5 325.42 927.23 320.91 928.77 319.96 930.97 322.33 932.26 325.71 938.07 330.35 954.16 331.58 957.86 331.31 958.67 321.98 954.95 308.69 952 300 950.98 292.67 947.4 284.82 938.59 271.25 929.32 265.72 926.7 258.67 927.22 256.54 928.31 252.02 934.72 248.82 941.31 244.9 950.18 243.51 957.12 244.7 967.57 245.51 977.88 240.1 991.24 236.16 996.52 228.94 1001.88 223.38 1004.57 219.19 1004.69 214.06 1005.93 213.47 1000.27 206.17 993.11 201.27 991.35 200.7 990.21 193.37 989.5 190.96 987.03 187.16 985.68 185.72 986.43 183.24 986.33 179.97 985.15 177.46 983.62 173.24 983.39 168.23 979.84 165.44 979.97 160.98 977.83 158.64 975.24 153.14 972.33 152.03 969.16 146.1 964.51 143.17 960.4 138.72 956.21 137.44 954.42 136.48 949.18 137.29 944.87 133.5 940.47 134.28 934.3 133.93 931.33 131.68 929.48 133.54 921.92 136.2 917.95 135.95 909.98 136.88 904.3 133.62 895.51 133.33 890.3 135.97 884.16 138.82 881.25 147.71 876.57 151 872.94 155.86 870.94 159.53 867.71 160.52 864.89 158.11 861.41 151.97 849.11 149.19 847.07 144.28 841.21 140.81 832.92 136.93 828.44 135.35 819.04 136.7 813.35 138.71 809.36 141.04 806.55 140.46 805.68 143.35 803.17 143.45 800.19 145.14 795.74 142.29 793.48 141.29 791.96 138.61 784.63 135.1 782.3 133.94 776.68 134.32 774.77 132.99 772.8 132.28 770.11 128.17 762.82 117.16 762.1 113.14 760.67 106.48 759.31 104.38 759.18 101.24 758.1 99.06 758.37 95.96 754.81 95.01 748.58 93.92 743.75 93.59 737.89 94.18 733.26 92.36 730.28 87.88 728.38 87.53 726.8 88.97 724.2 90.88 723.18 88.82 717.28 88.58 711.91 86.97 709.1 86.9 707.65 84.86 704.45 86.75 703.25 92.27 697.18 90.92 692.7 94.24 685.85 92.88 683.34 90.52 681.44 80.72 675.72 77.6 674.31 73.29 673.85 69.1 674.46 65.52 674.39 65.04 671.46 66.36 666.82 65.99 663.71 63.64 659.34 62.63 656.14 63.9 652.1 61.92 648.76 63.06 642.65 64.02 641.7 63.46 639.79 63.98 635.3 63.66 633.68 65.93 630.69 66.32 627.67 64.67 624.53 63.45 623.91 63.51 619.9 61.5 616.45 60.5 613.32 58.47 610.53 58.63 603.62 60.9 599.89 61.88 595.96 63.78 592.52 62.55 589.26 63.63 583.73 65.13 580.86 66.6 574.05 66.18 570.34 67.72 566.25 66.19 561.63 61.88 554.9 62.21 547.96 63.71 544.82 63.21 543.38 65.79 537.64 68.82 534 69.69 531.43 73.84 526.83 75.3 521.44 76.15 514.47 75.59 511.2 79.15 515.02 84.15 517.81 89.95 521.47 95.49 519.98 99.98 521.23 104.22 519.97 111.11 513.86 116.99 506.99 118.97 503.49 122.02 504.81 123.24 509.26 120.87 514.02 119.98 516.67 120.48 520.89 122.74 524.42 124.72 523.47 126.8 525.74 128.16 525.3 130.99 520.02 133.47 517.65 138.6 515.51 141.06 513.65 143.74 514.23 146.69 512.51 148.36 513.84 152.16 512.81 157.34 509.01 160.56 509.99 163.17 511.85 164.8 509.43 167.63 506.55 171.54 501.27 173.26 500 173.77 495.77 175.34 491.55 178.18 493.02 182.02 493.13 185.64 492.1 188.92 489.36 192.81 487.57 196.1 488.76 199.88 490.97 203.61 492.56 207.87 496.41 223.54 495.91 227.24 495.07 232.48 494.55 234.56 498.9 237.78 500.84 242.24 502.38 244.76 506.3 248.39 509.05 254.64 507.38 256.51 505.66 258.77 506.67 262.48 507.32 264.51 506.9 267.2 508.46 270.62 509.06 271.58 510.45 274.79 510.79 276.44 511.73 279.14 510.31 283.59 510.27 286.69 508.89 294.82 502.52 300.49 497.16 305.83 494.36 308.73 493.74 312.82 490.34 314.7 489.92 323.77 485.27 325.42 482.77 328.73 482.37 331.45 481.06 332.65 478.56 331.36 476.67 332.15 473.22 330.98 472.45 330.77 469.34 328.32 465.75 327.56 462.34 327.14 457.03 328.95 452.84 329.28 448.73 331.48 443.4 330.5 441.7 337.64 436.72 339.15 434.49 342.1 435.43 345.79 434.93 348.11 433.77 349.78 431.53 351.7 430.21 353.29 427.53 355.63 426.72 359.54 422.53 362.41 421.39 366.45 423.47 370.99 421.33 376.33 415.81 378.17 416.54 381.03 415.89 391.46 415.35 393.57 418.58 393.22 421.43 399.19 423.63 404.89 426.99 409.48 431.62 409.6 432.78 411.97 435.18 415 435.64 416.86 438.09 416.12 441.21 416.83 443.97 418.86 447.65 424.07 450.87 424.82 452.05 424.65 455.21 423.41 458.18 425.64 462.1 428.25 462.33 427.94 467.2 426.71 468.45 426.92 471.16 428.29 473.08 428.33 479.66 431.08 480.62 430.23 481.77 430.35 486.18 432.22 489.06 432.89 492.57 431.99 493.7 432.45 495.81 433.95 498.17 430.65 501.13 428.41 502 429.64 505.75 429.11 507.21 431.33 514.34 432.55 514.77 434.29 518.6 438.65 517.52 439.19 519.08 439.12 525.14 438.77 527.02 441.33 529.39 443.47 530.57 443.97 532.6 442.61 534.84 442.35 536.81 445.16 539.77 444.94 546.23 445.74 551.01 Z" id="32580110"/>
<path d="M 662.2 332.26 663.01 337.46 662.35 340.77 663.27 343 662.8 347.6 663.7 350.32 663.85 353.95 666.46 356.89 668.53 357.67 670.48 360.47 673.21 362.68 674.53 366.77 674.5 368.2 672.27 371.63 667.46 375.9 667.61 377.86 665.89 382.59 663.61 383.8 662.48 387.6 660.15 390.35 658.48 390.89 658.43 395.42 654.48 400.77 652.22 400.95 648.98 405.16 646.54 407.16 643.98 406.83 639.3 407.87 638.54 409.87 636.85 411.61 636.66 415.94 635.07 419.86 631.4 424.55 628.27 425.08 626.38 429.05 625.85 431.84 622.63 433.64 621.4 435.74 619.28 436.47 621.72 446.63 617.34 450.09 612.98 455.56 611.95 458.32 610.72 464.3 607.48 468.1 605.55 473.57 603.14 476.67 594.28 485.29 577.69 492.55 576.04 499.04 565.83 502.88 562.09 511.01 553.38 515.08 551.06 520.71 550.24 523.9 544.48 526.14 538.5 526.31 534.82 528.24 532.38 528.76 529.57 527.3 525.91 526.44 524.19 524.55 521.85 525.37 520.4 527.58 518.03 529 515.11 529.1 513.58 530.13 509.85 529.96 507.1 527.65 505.72 525.45 502.76 524.67 500.67 525.78 496.25 524.66 494.43 524.65 491.45 525.74 490.12 524.86 489.09 527.86 484.24 528.89 484.68 531.79 483.56 533.81 481.72 534.71 479.32 533.89 477.98 534.65 473.71 533.87 469.46 531.83 466.33 534.32 464.16 533.26 462.82 535.23 460.16 535.77 458.92 538.33 457.16 540.45 456.76 542.66 453.12 546.35 452.75 548.98 449.98 549.29 445.74 551.01 444.94 546.23 445.16 539.77 442.35 536.81 442.61 534.84 443.97 532.6 443.47 530.57 441.33 529.39 438.77 527.02 439.12 525.14 439.19 519.08 438.65 517.52 434.29 518.6 432.55 514.77 431.33 514.34 429.11 507.21 429.64 505.75 428.41 502 430.65 501.13 433.95 498.17 432.45 495.81 431.99 493.7 432.89 492.57 432.22 489.06 430.35 486.18 430.23 481.77 431.08 480.62 428.33 479.66 428.29 473.08 426.92 471.16 426.71 468.45 427.94 467.2 428.25 462.33 425.64 462.1 423.41 458.18 424.65 455.21 424.82 452.05 424.07 450.87 418.86 447.65 416.83 443.97 416.12 441.21 416.86 438.09 415 435.64 411.97 435.18 409.6 432.78 409.48 431.62 404.89 426.99 399.19 423.63 393.22 421.43 393.57 418.58 391.46 415.35 396.1 409.16 398.71 404.15 402.73 399.56 404.04 396.11 404.34 393 402.73 390.73 403.7 388.02 405.73 384.43 406.34 380.97 405.39 377.97 408.24 372.22 407.84 369.64 409.31 364.69 413.18 360.48 410.68 357.68 407.77 355.48 406.01 352.79 404.45 351.89 401.25 347.89 394.82 345.44 392.36 343.83 391.07 340.77 392.74 337.57 394.94 335.05 394.19 330.93 394.15 324.83 392.88 322.31 394.96 317.6 397.79 315.79 398.2 313.84 401.25 311.81 404.85 307.3 403.65 296.42 397.81 290.21 395.92 287.47 394.47 283.37 394.93 279.68 394.12 276.43 394.92 272.05 396.68 269.25 397.57 264.93 395.61 263.45 393.83 259.81 393.6 257.81 396.14 254.82 396.81 245.13 395.56 242.91 392.1 240.29 390.69 236.36 389.64 231.48 391.2 227.34 391.79 221.87 392.09 213.66 390.24 207.65 387.79 201.78 384.3 195.89 383.82 191.71 383.07 190.58 378.29 186.65 374.27 176.87 375.59 175.8 384.68 168.44 387.55 164.24 388.22 160.34 390.69 155.41 395.34 149.11 395.72 142.12 398.31 140.08 402.15 138.59 405.89 135.89 408.52 129.92 408.45 124.82 400.9 116.43 402.46 110.76 406.15 101.73 406.45 97.93 407.77 96.12 408.31 93.65 406.81 89.05 412.64 82.58 413.27 52.94 424.66 52.25 433.02 50.84 437.59 49.59 443.87 49.72 450.87 47.83 451.2 50.24 447.13 54.81 446.76 56.96 444.87 60.92 447.85 62.96 451.45 62.37 451.65 61.46 454.81 59.33 455.44 60.66 460.61 63.75 462.26 63.53 463.85 60.94 467.35 62.26 471.28 61.83 473.68 60.37 475.79 61.98 479.44 63.81 477.83 66.77 478.22 69.2 479.27 70.71 477.9 73.41 490.68 74.69 511.6 71.5 527.15 67.45 539.47 64.89 557.14 58.85 567.72 53.58 578.17 46.19 585.54 39.98 587.46 42.01 589.74 45.87 591.95 47.91 593.02 50.79 588.6 56.68 586.53 60.47 582.55 65.97 579.55 72.98 579.22 82.36 576.49 91.51 573.87 97.28 576.59 104.74 580.33 110.69 582.73 118.5 582.99 126.62 585.53 130.97 586.8 146.59 590.38 151.92 586.61 158.03 585.14 162.26 584.21 167.02 584.42 174.22 584.09 180.01 581.1 190.88 582.35 195.79 586.2 201.64 586.1 209.2 587.96 219.54 590.42 223.27 593.19 228.36 597.28 234.12 603.89 238.64 605.04 240.88 605.39 243.77 610.73 249.68 614.83 255.59 615.15 262.63 614.75 271.66 611.76 276.16 609.54 281.47 610.81 286.4 622.49 295.88 625.68 303.82 630.75 309.46 641.66 316.06 645.91 323.66 649.63 327.06 654.45 330.61 662.2 332.26 Z" id="32580320"/>
<path d="M 375.59 175.8 374.27 176.87 378.29 186.65 383.07 190.58 383.82 191.71 384.3 195.89 387.79 201.78 390.24 207.65 392.09 213.66 391.79 221.87 391.2 227.34 389.64 231.48 390.69 236.36 392.1 240.29 395.56 242.91 396.81 245.13 396.14 254.82 393.6 257.81 393.83 259.81 395.61 263.45 397.57 264.93 396.68 269.25 394.92 272.05 394.12 276.43 394.93 279.68 394.47 283.37 395.92 287.47 397.81 290.21 403.65 296.42 404.85 307.3 401.25 311.81 398.2 313.84 397.79 315.79 394.96 317.6 392.88 322.31 394.15 324.83 394.19 330.93 394.94 335.05 392.74 337.57 391.07 340.77 392.36 343.83 394.82 345.44 401.25 347.89 404.45 351.89 406.01 352.79 407.77 355.48 410.68 357.68 413.18 360.48 409.31 364.69 407.84 369.64 408.24 372.22 405.39 377.97 406.34 380.97 405.73 384.43 403.7 388.02 402.73 390.73 404.34 393 404.04 396.11 402.73 399.56 398.71 404.15 396.1 409.16 391.46 415.35 381.03 415.89 378.17 416.54 376.33 415.81 370.99 421.33 366.45 423.47 362.41 421.39 359.54 422.53 355.63 426.72 353.29 427.53 351.7 430.21 349.78 431.53 348.11 433.77 345.79 434.93 342.1 435.43 339.15 434.49 337.64 436.72 330.5 441.7 331.48 443.4 329.28 448.73 328.95 452.84 327.14 457.03 327.56 462.34 328.32 465.75 330.77 469.34 330.98 472.45 332.15 473.22 331.36 476.67 332.65 478.56 331.45 481.06 328.73 482.37 325.42 482.77 323.77 485.27 314.7 489.92 312.82 490.34 308.73 493.74 305.83 494.36 300.49 497.16 294.82 502.52 286.69 508.89 283.59 510.27 279.14 510.31 276.44 511.73 274.79 510.79 271.58 510.45 270.62 509.06 267.2 508.46 264.51 506.9 262.48 507.32 258.77 506.67 256.51 505.66 254.64 507.38 248.39 509.05 244.76 506.3 242.24 502.38 237.78 500.84 234.56 498.9 232.48 494.55 227.24 495.07 223.54 495.91 207.87 496.41 203.61 492.56 199.88 490.97 196.1 488.76 192.81 487.57 188.92 489.36 185.64 492.1 182.02 493.13 178.18 493.02 175.34 491.55 173.77 495.77 173.26 500 171.54 501.27 167.63 506.55 164.8 509.43 163.17 511.85 160.56 509.99 157.34 509.01 152.16 512.81 148.36 513.84 146.69 512.51 143.74 514.23 141.06 513.65 138.6 515.51 133.47 517.65 130.99 520.02 128.16 525.3 126.8 525.74 124.72 523.47 122.74 524.42 120.48 520.89 119.98 516.67 120.87 514.02 123.24 509.26 122.02 504.81 118.97 503.49 116.99 506.99 111.11 513.86 104.22 519.97 99.98 521.23 95.49 519.98 89.95 521.47 84.15 517.81 79.15 515.02 75.59 511.2 71.61 504.05 70.54 499.67 70.23 491.51 71.36 487.95 69.16 482.43 65.92 476.37 66.72 466.1 66.07 461.68 61.84 455.13 61.34 449.47 60.63 445.78 63.55 440.24 63.98 434.48 67.64 428.48 67.58 425.34 66.56 423.98 60.92 418.54 55.22 415.59 52.5 413.58 51.69 411.52 50.35 410.65 41.09 401.78 40.11 401.64 35.39 403.89 30.47 404.65 27.42 406.18 21.07 408.21 18.48 407.91 14.48 403.22 13.87 399.45 11.19 397.98 5.12 397.14 5.1 395.93 3.26 391.91 1.3 390.41 1.57 387.78 3.35 380.56 7.63 374.91 6.7 371.78 2.14 364.69 1.07 360.43 1.89 355.64 1 350.08 1.72 339.47 1.6 333.5 2.51 328.28 2.97 323.42 4.3 321.52 8.19 319.34 11.82 315.97 16.35 310.45 16.53 307 16.1 304.23 16.56 299.48 15.95 293.07 15.31 290.17 12.07 281.73 11.07 277.41 9.97 276.1 5.45 273.93 5.87 270.19 5.35 264.26 5.93 261.86 5.99 256.73 6.6 253.77 8.84 251.79 8.82 246.51 5.76 242.64 5.39 240.72 3.79 237.93 3.99 234.76 5.17 231.74 10.09 224.31 16.66 217.7 19 212.09 19.11 208.92 17.03 205.08 18.05 202.15 20.98 186.06 23.45 182.58 27.14 179.37 29.4 175.65 29.35 171.52 27.68 165.93 25.81 164.43 25.66 162.29 27.74 159.51 28.07 156.98 26.29 154.85 27.84 150.32 30.36 146.42 33.85 142.22 37.02 139.76 40.44 138.47 46.67 136.77 52.1 132.4 57.29 126.44 59.17 122.95 62.73 112.7 66.05 106.76 70.6 100.74 73.77 95.25 76.68 91.32 81.59 88.15 86.46 82.81 89.96 73.44 98.57 71.02 102.2 63.68 105.88 60.15 111.42 60.51 119.73 64.16 123.84 65.71 128.61 70.02 133.09 68.92 137.71 66.02 141.4 66.3 146.7 67.49 150.46 67.66 153.84 66.3 155.83 66.53 162.91 71.57 165.31 72.76 168 70.91 170.96 69.62 174.05 69.51 181.53 70.66 185.49 70.55 189.4 74.98 193.07 78.06 197.45 79.9 203.52 81.2 206.3 81.32 212.48 79.9 217.69 80.11 224.08 79.65 228.47 80.81 231.41 83.65 236.08 84.45 240.39 85.74 244.16 90.17 247.57 92.76 255.34 95.66 259.03 98.6 264.17 98.75 266.99 102.55 270.29 105.75 273.23 111.1 275.14 116.58 276.64 119.45 281.43 119.9 286.08 121.13 290.48 124.03 291.5 128.29 292.35 128.32 296.2 131.76 299.47 131.03 301.59 133.49 304.63 135.9 306.32 138.98 310.07 138.94 310.34 142.75 312.16 146.73 314.78 149.83 319.51 151.11 320.19 155.56 321.68 157.84 325.28 160.09 326.37 164.16 325.64 168.08 326.03 171.01 327.66 171.69 333.85 182.68 339.01 180.59 343.63 176.57 343.46 174.45 341.52 170.45 348.52 165.84 350.27 165.76 355.45 166.77 359.6 166.84 367.79 168.71 369.14 167.89 373.63 172.34 375.59 175.8 Z" id="32580330"/>
<path d="M 662.2 332.26 654.45 330.61 649.63 327.06 645.91 323.66 641.66 316.06 630.75 309.46 625.68 303.82 622.49 295.88 610.81 286.4 609.54 281.47 611.76 276.16 614.75 271.66 615.15 262.63 614.83 255.59 610.73 249.68 605.39 243.77 605.04 240.88 603.89 238.64 597.28 234.12 593.19 228.36 590.42 223.27 587.96 219.54 586.1 209.2 586.2 201.64 582.35 195.79 581.1 190.88 584.09 180.01 584.42 174.22 584.21 167.02 585.14 162.26 586.61 158.03 590.38 151.92 586.8 146.59 585.53 130.97 582.99 126.62 582.73 118.5 580.33 110.69 576.59 104.74 573.87 97.28 576.49 91.51 579.22 82.36 579.55 72.98 582.55 65.97 586.53 60.47 588.6 56.68 593.02 50.79 596.86 49.62 598.85 48.37 604.13 41.25 606.55 39.22 609.76 37.3 612.31 34.38 614.55 33.34 616.86 31.11 621.3 30.6 624.71 27.42 625.52 26 628.03 24.78 631.41 20.96 635.4 19.06 638.25 15.12 642.61 13.19 644.87 10.43 646.68 10.07 649.07 7.44 653.63 8.03 656.28 9.69 658.67 9.17 661.29 10.8 664.99 9.41 667.69 11.08 670.94 12.34 675.25 11.5 678.9 8.54 679.8 7.26 684.75 5.43 686.09 4.52 691.66 7.46 695.3 8.6 700.62 11.52 702.94 13.68 706.99 14.33 709.29 15.33 711.19 14.54 713.49 14.65 716.17 16.12 720.34 17.31 722.83 16.29 725.25 14.41 728.14 16.73 731.26 14.21 732.06 12.69 736.06 8.5 738.66 12.02 741.61 12.95 744.63 11.92 745.34 8.38 748.21 5.9 749.13 3.22 753.48 1 755.74 3.44 758.26 4.26 759.75 7.79 762.66 11.87 763.87 16.39 763.75 19.01 764.55 20.91 766.83 22.89 771.22 27.82 773.47 28.3 774.58 27.25 778.77 28.29 781.42 30.92 785.91 38.18 790.39 40.12 790.68 41.48 793.32 43.56 792.77 47.57 791.18 50.51 791.18 53.24 788.84 54.22 787.38 58 787.28 61.76 788.59 62.73 788.19 65.91 789.56 73.02 787.92 74.25 786.81 77.7 786.69 85.96 792.24 89.07 793.32 91.7 795.62 94.25 794.71 98.82 791.51 106.36 792.19 108.6 791.38 113.42 788.29 117.65 789.36 121.57 788.63 124.66 788.38 128.49 791 130.5 792.08 133.89 792.37 137.58 794.79 141.89 795.69 145.1 799 152.04 796.32 155.23 793.28 155.44 790.64 156.43 789.96 158.78 789.94 161.78 787.3 165.94 785.57 166.44 782.77 169.42 781.34 172.08 779.86 172.55 779.31 179.21 778.27 180.37 776.72 185.21 774.15 188.59 770.23 192.02 768.73 192.12 768.1 195.64 766.76 198.57 768.21 203.37 768.07 209.52 769.91 211.11 771.44 213.96 770.63 215.32 767.62 216.9 764.28 224.56 762.83 225.38 760.46 224.87 759.84 227.37 757.38 231.55 753.95 232.98 748.37 232.84 740.92 237.78 740.01 239.1 736.52 239.57 734.98 244.99 733.96 247.17 733.88 249.83 733.11 251.96 731.04 254 727.1 255 726.19 255.88 719.41 257.97 716.05 260.92 714.83 260.84 712.04 263.34 711.41 266.74 709.85 268.56 709.24 270.57 704.08 271.48 700.6 272.49 698.08 272.16 695.24 272.66 693.71 272.24 691.02 275.39 687.19 277.09 684.66 279.6 681.95 280.41 680.49 281.88 680.93 286.46 682.38 289.56 681.73 293.08 678.57 296.88 678.06 299.53 676.26 302.31 672.55 304.78 669.97 307.3 670.29 312.95 667.86 318.45 668.51 323.98 666.82 329.99 662.2 332.26 Z" id="32580340"/>
<path d="M 628.4 719.42 625.12 720.85 620.82 723.31 618.58 725.39 613.47 724.44 606.62 724.81 603.42 725.79 600.54 725.2 599.61 727.89 599.11 732.82 597.3 738.86 595.48 742.22 597.84 748.54 597.62 751.37 599.5 752.49 600.79 755 605.19 756.58 605.95 760.73 608.49 765.05 610.34 766.1 612.2 768.84 614.9 774.81 613.46 775.91 617.14 780.21 617.21 781.61 618.8 786.1 622.58 791.31 623.05 793.11 625.7 796.72 629.45 799.04 629.81 800.89 632.46 804.39 637.4 806.75 640.6 807.77 641.3 809 643.98 808.98 646.03 811.14 649 811.92 652.74 813.87 655.16 814.48 657.21 816.57 658.78 819.5 659.22 822.25 658.63 825.83 660.26 827.72 662.44 831.95 662.05 834.21 663.9 840.67 663.32 842.46 665.23 845.89 663.67 847.58 662.82 855.09 661.77 857.13 661.73 860.5 662.26 863.39 661.63 867.91 664.17 873.38 663.11 875.22 664.54 878.85 667.56 882.31 668.59 886.16 672.13 891.52 672.52 894.04 668.77 897.88 666.61 903.94 664.53 906.58 659.27 911.6 660.07 914.09 659.41 918.18 660.9 920.76 661.98 927.54 659.73 929.86 658.58 932.65 655.68 933.64 651.54 938.16 646.18 940.93 643.98 945.48 640.74 948.93 635.9 952.19 624.78 952.15 623.3 953.15 620.07 953.74 618.83 955.45 614.19 955.5 613.23 953.87 610.7 952.22 607.42 951.22 606.23 947.83 603.55 945.06 603.35 943.71 599.32 940.57 597.15 940.4 594.31 942.86 592.05 943.13 586.3 941.43 583.5 940.25 581.54 938.16 578.68 937.45 578.6 933.7 577.82 929.64 575.11 925.17 571.52 921.28 569.11 920.28 566.44 920.33 562.95 918.18 561.48 915.92 557.78 912.03 555.33 910.74 552.45 907.84 552.04 905.83 549.24 901.34 549.9 898.01 546.56 898.09 543.37 897.46 540.12 897.43 536.79 898.2 532.52 896.53 529.48 896.66 527.99 901.04 529.83 905.92 527.74 911.39 527.39 915.65 525.43 917.43 524.84 919.53 522.19 920.61 523.29 928.95 524.82 930.75 525 934.49 521.59 939.66 521.4 941.12 519.16 944.02 519.56 946.27 518.64 947.99 518.94 950.53 525.62 957.94 526.65 961.26 526.08 963.34 526.87 966.01 529.11 969.65 528.86 973.8 528.25 976.19 528.86 978.05 531.89 982.81 532.9 986.31 531.61 991.13 531.98 992.97 529.3 998.53 523.04 998.99 518.69 997.9 516.91 997.9 514.68 994.43 513.65 991.9 510.31 988.73 507.65 988.24 504.02 985.88 502.19 985.21 499.06 987.2 495.92 983.43 490.85 982.4 486.17 983.27 479.69 987.75 468.13 997.58 465.07 999.61 461.06 1001.64 455.3 1002.87 452.22 1000.78 450.12 998.56 448.79 996.26 440.36 985.48 436.33 984.68 431.57 984.88 426.84 985.66 419.56 985.74 413.78 986.43 410.38 987.44 401.81 994.09 397.42 997.94 392.91 1004.32 390.56 1010.23 386.51 1018.95 380.03 1031.24 373.42 1039.36 367.99 1042.57 361.82 1043 356.21 1039.8 351.87 1036.23 348.8 1032.39 342.52 1025.57 340.2 1022.21 337.73 1015.8 337.26 1009.67 337.97 1002.44 345.69 984.69 346.7 976.65 346.61 972.21 344.82 967.56 341.21 963.35 335.05 960.16 331.31 958.67 331.58 957.86 330.35 954.16 325.71 938.07 322.33 932.26 319.96 930.97 320.91 928.77 325.42 927.23 327.82 927.5 328.65 924.68 326.97 919.07 326.74 914.63 325.19 910.42 326.17 903.94 325.49 899.29 324.05 896.67 323.88 894.83 325.66 894.36 327.51 889.96 328.14 885.98 327.77 883.39 328.73 879.67 332.39 879.21 331.74 876.43 333.91 875.07 333.51 870.84 335.6 869.23 335.82 865.65 335.36 863.61 336.79 862.73 336.66 858.84 339.64 855.63 340.88 853.59 344.4 851.62 346.41 848.1 347.89 843.13 349.2 840.72 352.14 838.94 353.58 837.1 354.28 833.74 353 830.89 352.38 825.11 352.75 820.5 355.02 815.99 353.89 813.37 353.31 806.24 353.44 799.84 353.19 797.5 354.32 794.82 358.42 792.12 359.37 789.1 358.61 786.12 358.46 782.28 355.81 779.11 354.47 776.58 354.23 773.58 359.1 775.05 365.15 775.14 366.84 774.72 368.24 771.28 370.74 771.87 371.02 767.52 384.2 769.18 388.59 769.93 388.16 764.4 389.43 761.4 389.4 759.45 387.59 755.17 387.71 752.47 397.16 750.36 396.02 744.61 398.9 743.34 402.15 740.81 401.66 739.63 402.9 736.53 401.62 734.78 401.77 732.64 400.88 730.44 399.01 728.51 399.05 726.26 398.18 721.12 396.91 720.02 396.81 718.13 398.79 717.59 399.87 718.44 403.68 715.96 403.03 714.27 405.09 710.52 403.93 706.81 403.96 703.56 401.45 699.51 404.1 697.84 410.02 690.53 410.96 691.04 415.95 686.23 417.74 685.77 419.8 683.83 421.14 680.13 421.99 679.84 422.24 676.17 426.8 672.57 430.12 673.91 434.27 674.38 435.25 672.19 435.28 670.03 439.21 665.95 439.06 661.73 440.87 657.15 439.86 654.75 441.66 654 443.87 650.19 445.68 649.11 448.17 643.73 448.47 640.43 447.8 639.22 448.97 637.68 448.95 635.64 453.96 633.13 455.17 629.95 459.04 627.34 461.08 626.76 462.49 627.51 464.34 626.68 467.73 626.62 467.79 623.73 471.12 621.98 470.84 619.83 468.3 615.04 468.6 612.64 467.11 610.35 467.09 607.51 464.95 605.05 461.5 602.49 460.57 599.47 459.24 599.02 458.79 596.84 456.28 593.04 454.86 592.66 454.48 587.76 453.6 584.55 447.73 580.53 449.22 577.33 449.04 575.13 446.94 570.88 447.47 568.34 446.77 567.05 447.52 562.49 447.68 556.59 446.68 555.82 445.74 551.01 449.98 549.29 452.75 548.98 453.12 546.35 456.76 542.66 457.16 540.45 458.92 538.33 460.16 535.77 462.82 535.23 464.16 533.26 466.33 534.32 469.46 531.83 473.71 533.87 477.98 534.65 479.32 533.89 481.72 534.71 483.56 533.81 484.68 531.79 484.24 528.89 489.09 527.86 490.12 524.86 491.45 525.74 494.43 524.65 496.25 524.66 500.67 525.78 502.76 524.67 505.72 525.45 507.1 527.65 509.85 529.96 513.58 530.13 515.11 529.1 518.03 529 520.4 527.58 521.85 525.37 524.19 524.55 525.91 526.44 529.57 527.3 532.38 528.76 534.82 528.24 538.5 526.31 544.48 526.14 550.24 523.9 551.06 520.71 553.38 515.08 562.09 511.01 565.83 502.88 576.04 499.04 577.69 492.55 594.28 485.29 603.14 476.67 605.55 473.57 607.48 468.1 610.72 464.3 611.95 458.32 612.98 455.56 617.34 450.09 621.72 446.63 628.64 453.25 632.31 455.69 634.98 458.14 635.73 459.76 631.48 466.08 631.44 471.4 632.36 475.43 632.54 480.75 631.13 484.15 627.61 485.15 624.88 486.9 621.31 487.72 616.49 491.14 615.86 492.54 614.56 499.27 614.24 508.15 615.28 509.45 616.15 513.15 614.61 517.62 615.58 523.92 615.33 530.46 611.98 536.47 609.07 537 605.9 539.5 602.42 544.61 600.14 546.69 597.83 553.15 594.44 558.04 592.61 560.07 590.61 561.22 589.18 563.7 589.95 568.01 594.01 569.84 596.28 573.15 597.87 578.46 598.18 581.4 597.5 588.03 599.11 592.79 599.09 596.61 596.74 599.51 593.26 607.22 594.59 607.69 596.74 610.33 603.37 614.72 604.84 617.18 605.2 622.42 606.98 626.74 607.86 631.02 612.44 632.67 616.34 632.58 620.55 633.78 624.22 634.25 621.86 637.18 619.94 644.38 620.13 649.43 619.68 652.1 622.3 654.9 624.89 660.32 624.91 665.13 628.29 667.09 632.71 677.8 634.97 680.93 634.93 689.02 636.79 691.78 637.3 701.14 632.21 705.01 627.65 710.17 628.4 719.42 Z" id="32580350"/>
</g>
</svg>