<?xml version="1.0"?>
<svg xmlns="http://www.w3.org/2000/svg" version="1.2" baseProfile="tiny" width="800" height="1091" viewBox="0 0 800 1091" stroke-linecap="round" stroke-linejoin="round">
<g id="dong">
<path d="M 490.19 110.54 488.6 112.35 488.79 114.6 488.48 117.55 487.88 118.42 487.1 121.01 486.81 123.78 485.62 126.49 485.25 128.59 486.85 129.96 487.4 130.85 487.95 134.57 488.86 135.59 490.02 139.03 489.99 142.26 491.44 144.65 491.74 145.83 494.23 149.28 494.19 152.6 493.44 154.19 493.88 154.6 493.98 156.9 494.44 158.85 495.16 159.91 495.05 162.88 495.43 163.89 496.43 164.68 498.82 165.11 501.9 166.19 503.4 167.55 503.26 170.92 504.42 172.99 505.04 177.09 505.13 179.55 505 183.14 505.14 185.12 503.89 187.83 502.91 188.37 501.94 189.6 501.29 191.2 501.31 194.7 502.11 197.97 501.9 198.72 502.49 200.18 502.44 203.15 503.16 205.52 502.38 209.73 500.86 215.09 500.4 218.69 500.88 221.31 500.22 224.13 501.46 229.32 502.5 232 499.71 234.62 498.45 236.45 497.95 238.67 496.95 240.58 495.25 240.97 494.5 241.73 491.87 242.35 489.45 244.42 487.48 245.56 486.61 247.77 484.5 250.03 484.57 253.13 483.76 254.11 483.56 255.92 482.92 257.58 481.96 258.48 481.31 261.09 481.78 263.81 481.28 266.91 481.63 267.92 481.43 269.52 483.87 272.98 485.61 273.7 485.44 276.91 485.12 278.88 485.77 284 486.06 287.28 486.74 291.03 486.74 293.44 485.45 297.48 482.89 300.3 480.72 299.87 479.31 300.1 476.62 299.43 475.61 300.86 472.07 302.28 469.97 303.64 468.17 304.16 466.65 303.62 464.91 301.77 462.51 300.43 460.34 300.35 455.83 301.04 454.48 298.75 452.1 298.18 449.52 300.54 448.02 303.02 446.05 304.88 444.76 307.01 443.07 308.2 442.7 310.25 440.47 313.35 440.02 315.24 439.35 315.79 438.96 317.24 435.79 320.09 435.34 321.07 434.15 321.79 432.84 323.6 432.23 325.71 432.28 327.31 433.06 328.99 431.91 332.04 430.02 332.97 428.85 334.02 425.54 336.26 423.68 338.78 422.47 343.15 422.86 345.67 423.82 347.56 424.49 348.18 424.88 350.55 425.55 352.62 425.17 353.78 427.08 355.94 428.39 358.11 429.31 358.87 429.19 361.47 430.24 364.68 430.37 367.66 431.19 368.17 432.51 370.22 434.53 370.99 436.43 374.01 435.79 375.71 434.45 377.71 433.28 378.49 431.96 381.91 431.41 382.37 428.13 383.77 423.79 388.1 422.67 389.68 421.52 389.95 420.27 391.15 418.54 391.01 416.44 392.45 413.32 394.16 412.18 395.37 410.38 395.31 409.51 395.87 407.88 396.08 405.45 397.95 404.52 397.88 401.93 396.47 398.47 397.22 397.26 397.06 395.94 395.79 394.86 395.51 393.94 396.6 390.08 398.21 387.62 398.59 385.28 399.34 382.76 399 381.47 398.5 380.29 397.03 380.18 396 377.7 392.41 376.01 391.45 374.66 387.64 373.16 386.65 370.9 385.73 369.78 384.63 367.68 384.21 364.83 385 364.7 386.08 363.81 387.2 363.52 389.36 363.82 390.8 363.75 393.48 362.72 394.65 361.45 395.06 359.29 396.82 356.05 396.3 355.39 395.6 351.69 395.07 347.67 397.29 346.29 396.91 342.84 397.11 342.47 395.49 336.92 394.22 333.52 393.12 329.93 391.49 327.92 392.73 325.16 395.76 324.41 395.93 323.04 393.27 323.11 391.31 322.79 390.48 321.19 388.61 319.91 384.67 317.22 384.02 315.48 384.1 313.31 383.44 312.85 381.68 311.04 381.31 309.89 381.74 307.53 381.29 305.99 382.96 301.41 382.97 299.44 382.7 298.92 381.45 296.91 379.65 293.3 380.93 288.71 379.74 288.24 380.37 286.64 380.16 282.02 380.08 280.55 378.17 280.62 376.25 279.08 374.61 278.47 370.65 278.11 369.67 275.08 369.29 273.24 368.72 272.1 367.84 270.82 367.68 268.09 366.63 266.86 365.33 264 364.31 263.5 363.49 259.26 363.31 258.74 362.42 256.47 361.64 255.04 361.83 252.84 361.16 251.25 360.98 250.61 360.37 247.23 359.83 246.63 358.35 246.72 356.74 246.39 355.4 245.58 354.16 245.24 351.18 243.75 348.98 244.04 346.91 243.95 344.88 243.44 344.09 243.07 341.9 241.86 341.58 240.83 339.55 239.12 337.44 237.26 337.4 234.58 338.87 232.45 339.28 229.78 339.37 226.6 337.74 225.99 338.17 223.83 337.76 220.7 335.32 220.15 334.54 214.27 334.53 212.63 334.76 211.79 334.46 209.87 334.68 209.89 333.84 209.1 331.4 207.48 330.08 206.31 328.42 205.08 327.95 203.53 326.2 203.44 324.04 202.9 322.42 203.18 319.68 202.63 318.35 203.03 316.38 202.55 313.29 205.3 311.93 206.3 308.35 205.92 305.06 207.36 301.79 207.17 298.42 208.71 296.92 210.92 295.45 211.99 293.8 212.29 292.22 214.18 289.95 214.56 287.86 213.7 286.02 213.43 283.29 214.31 282.41 215.92 281.93 217.42 280.43 219.71 279.43 221.31 277.55 222.22 277.8 223.91 277.5 225.41 277.7 227.48 277.09 230.56 276.55 230.92 275.36 231.84 274.27 232.22 272.25 233.89 270.76 234.61 270.81 236.61 269.05 240.65 267.8 241.19 267.28 243.54 266.68 244.77 265.47 245.23 264.2 245.27 262.62 245.88 261.32 246.8 258.1 248.87 257.81 249.42 257.03 253.85 254.09 257.18 254.17 259.22 253.32 260.69 250.83 261.05 249.34 262.46 249.65 263.33 249.16 265.32 244.59 267.11 243.66 267.59 242.85 266.68 241.15 265.58 240.2 265.66 236.54 264.8 233.69 265.6 231.94 265.98 229.84 266.87 229.78 269.2 227.74 270.74 225.73 271.66 222.85 272.27 222.16 272.6 218.19 273.49 217.91 274.33 216.33 276 214.55 277.03 214.26 278.61 211.78 278.62 209.99 279.02 208.59 280.59 208 282.41 207.88 284 205.98 282.03 201.84 281.5 199.93 280.05 197.37 279.88 195.17 279.24 193.15 277.68 191.96 277.82 189.67 278.26 187.84 277.62 185.5 279.46 182.98 279.94 180.12 279.54 178.78 281.45 174.29 281.99 171.57 280.62 170.05 279.97 168.48 276.67 166.63 276.74 161.71 277.4 159.66 278.38 158.93 277.56 154.69 277.8 152.8 277.02 152.23 277.08 149.99 277.95 147.73 279.35 147.15 279.34 145.53 280.29 143.77 280.62 141.39 279.05 140.15 278.87 139.33 276.21 138.18 273.53 133.86 271.96 132.29 269.46 131.67 268.8 132.3 267.46 132.01 264.85 129.08 263.49 127.9 263.01 126.77 263.08 125.21 262.36 122.52 260.63 120.09 259.74 117.99 258.24 117.5 256.9 116.04 254.31 117.37 253.76 118.96 252.05 120.44 251.63 122.55 249.83 123.16 248.07 122.6 246.53 120.51 244.14 123 243.66 123.91 241.81 125.41 240.09 124.03 238.65 125.15 237.17 125.76 234.68 125.05 233.09 124.17 231.72 124.11 230.58 124.58 229.21 123.98 226.8 123.6 225.42 122.31 222.26 120.57 220.09 119.89 216.77 118.14 215.98 118.68 213.03 119.77 212.49 120.53 210.32 122.29 207.75 122.79 205.81 122.05 204.21 121.05 202 121.88 200.44 120.91 199.02 121.22 197.44 120.23 194.73 119.88 193.31 121.44 192.23 121.66 190.88 123.3 188.29 124.45 186.59 126.8 184.21 127.93 182.2 130.2 180.71 130.93 180.22 131.78 178.2 133.67 175.55 133.97 174.18 135.3 172.84 135.92 171.32 137.66 169.41 138.8 167.97 140.01 164.83 144.25 163.64 144.99 161.36 145.69 160.72 143.98 159.4 142.76 158.05 140.46 156.9 139.26 157.32 138.9 160.46 134.68 163.2 132.04 165.28 128.62 167.42 125.63 169.96 123.42 173.03 122.19 180.29 116.75 182.28 115.36 186.46 111.53 193.13 105.97 198.01 103.02 198.96 103.05 201.16 105.47 203.44 108.58 205.51 109.43 211.2 110.89 213.58 111.21 216.99 111.03 223.05 108.79 224.99 108.28 227.06 109.39 228.54 109.46 233.43 106.78 236.04 104.61 237.95 100.42 240.38 93.89 241.04 92.45 242.58 90.89 243.63 90.66 247.48 92.22 249.25 92.64 250.98 92.45 251.6 91.91 252.27 88.58 253.34 87.4 254.55 87.21 255.83 87.97 258.74 91.02 260.82 91.08 261.36 89.38 261.43 85.43 262.01 82.84 262.77 81.61 264.8 80.46 266.13 78.91 268.18 73.86 270.21 70.5 273.42 66.7 285.9 49.84 286.84 49.88 289.57 52.03 292.93 53.74 297.97 55.64 299.75 56.54 300.52 55.9 302.68 50.9 304.56 47.91 309.18 42.65 310.08 40.27 310.87 33.25 316.25 32.5 319.53 30.9 324.86 29.05 330.16 28.41 333.25 28.87 333.96 29.6 336.7 36.37 338.19 38.26 339.76 38.52 341.31 38.02 342.85 35.02 343.8 30.74 346.45 26 348.73 14.58 351.49 9.65 353.81 7.63 357.35 5.55 359.87 3.13 361.14 1 361.23 2.06 362.18 2.97 362.24 3.91 365.2 4.49 367.1 4.45 367.61 4.04 369.91 3.78 372.26 5.21 372.15 8.77 372.74 9.88 371.41 12.44 368.73 12.79 366.51 15.28 367.17 17.17 365.89 21.06 366.65 23.9 367.36 25.63 369.19 27.66 369.3 28.2 370.9 30.03 371.41 31.42 372.74 33.38 374.85 32.31 376.64 30.03 377.81 27.5 380.04 25.92 381.93 27.86 382.46 27.72 385.34 28.55 387.3 30.08 388.8 30.41 392.07 32.96 392.71 33.16 393.34 34.96 394.8 36.11 397.12 35.08 398.17 35.08 400.13 33.63 403.87 32.57 404.47 32.8 407.16 31.65 408.31 32.2 411.8 28.28 412.32 26.98 414.66 25.12 416.46 25.48 419.39 26.7 422.68 24.36 424.38 24.7 425.88 25.55 427.7 28.54 428.02 30.84 429.32 31.91 429.95 33.67 429.53 34.47 429.82 36.02 429.13 37.07 428.87 38.52 430.02 39.52 430.49 40.55 429.83 42.47 430.56 45.21 429.92 46.76 428.57 48.42 429.2 51.89 428.63 53.61 427.51 53.94 427.02 55.28 427.02 56.95 426.13 59.08 425.48 62.85 424.89 62.98 424.6 64.67 422.63 65.88 422.08 68.42 421.02 70.52 419.02 71.92 419.1 73.11 419.85 75.84 421.49 77.63 423.7 79.07 423.73 80.34 424.59 81.8 423.51 84.24 424.71 89.39 424.39 93.44 427.76 97.87 428.25 99.37 431.16 100.21 433.13 102.16 433.98 102.07 435.85 100.34 437.47 97.83 439.78 97.82 441.96 97.23 444.89 94.33 445.43 93.45 446.38 93.74 449.62 93.89 451.72 93.7 453.37 93.15 455.24 94.9 456.61 95.51 457.34 96.93 458.95 97.9 462.39 98.87 463.74 98.79 465.5 100.23 466.21 99.76 467.64 101.25 468.4 101.44 470.05 103.75 471.47 104.69 473.44 105.11 475.67 104.89 476.5 105.18 478.55 104.93 480.19 105.4 483.62 105.62 485.58 105.55 488.3 107.71 490.19 110.54 Z" id="32590340"/>
<path d="M 651.73 948.79 651.85 951.1 653.1 953.75 652.68 957.75 650.81 960.89 650.78 963.5 650.48 966.08 649.63 968.38 648.36 969.67 647.68 971.37 648.11 972.49 647 974.19 644.8 975.85 643.92 976.85 642.86 976.75 641.18 977.38 637.88 982.05 637.35 983.09 636.87 985.77 637.4 987.19 637.07 989.19 635.04 992.45 634.87 993.26 629.7 991.33 628.59 991.78 626.81 993.52 624.74 994.54 623.67 995.54 621.52 996.18 620.51 996.79 619.71 998 616.54 997.92 613.99 997.54 612.14 998.5 609.66 998.25 607.78 998.59 606.72 1000.87 605.7 1001.76 604.77 1004.61 603.82 1006.33 602.74 1006.95 602.18 1009.39 601.64 1010.53 600.13 1010.23 598.71 1010.47 597.92 1012.02 595.7 1014.27 595.48 1015.12 594.03 1016.47 592.49 1016.87 589.59 1018.65 587.92 1018.96 587.07 1019.73 583.8 1020.77 583 1022.6 582.5 1025.7 582.76 1027.32 581.41 1030.22 581.66 1031.75 580.96 1034.01 579.05 1036.69 580.09 1037.71 582.77 1039.2 584.42 1040.81 583.8 1043.18 582.71 1046.21 581.78 1046.48 579.44 1048.38 576.8 1049.37 574.28 1050.86 573.11 1051.21 570.84 1051.04 567.96 1052.04 565.44 1051.82 563.25 1054.41 560.62 1056.26 559.19 1057.01 557.65 1059.58 555.49 1060.39 552 1059.79 546.54 1058.08 544.47 1058.35 541.67 1058.2 539.38 1057.45 537.07 1056.04 535.09 1051.3 532.51 1048.57 529.07 1046.8 527.69 1046.4 524.38 1047.65 523.72 1048.59 520.88 1050.19 516.22 1051.88 515.48 1052.57 513.85 1050.26 513.43 1049.22 511.62 1047.55 511.5 1045.37 510.14 1044.97 507.6 1041.38 506.19 1039 504.92 1036.09 503.52 1034.87 502.71 1033.31 501.77 1032.4 499.42 1033.1 498.16 1030.66 496.17 1028.36 495.61 1026.43 494.28 1023.65 494.33 1021.41 492.99 1017.27 494.25 1016.07 494.43 1014.88 495.35 1013.97 495.13 1011.22 494.44 1010.24 494.15 1008.56 493.33 1007.11 493.57 1005.78 492.25 1003.66 492.35 1002.16 490.46 1000.3 489.92 998.37 488.34 995.88 487.33 995.68 486.13 994.44 485.36 991.99 484.5 990.88 483.39 990.89 481.31 989.05 481.48 987.92 480.85 984.04 478.3 981.63 475.58 980.68 474.48 979.48 471.06 980.42 468.27 982.21 468.35 983.05 470.18 983.29 470.18 984.51 467.95 987.61 466.25 988.24 465.87 988.86 463.94 988.27 462.41 986.34 460.21 986.52 458.59 987.02 456.06 986.63 453.2 988.45 451.63 988.88 450.85 988.48 448.09 989.9 447.42 992.21 445.99 994.86 444.84 995.73 444.41 996.99 441.52 996.6 440.5 995.96 438.63 995.78 436.11 996.52 436.04 997.42 434.56 998.76 433.07 1000.72 431.62 1001.61 430.11 1001.62 429.32 1002.33 428.8 1004.55 427.02 1005.38 426.64 1007.77 427.89 1008.23 427.36 1010.46 427.51 1011.29 426.8 1013.64 426.21 1014.17 426.37 1018.19 424.78 1018.78 424.71 1020.73 423.61 1023.11 422.77 1024.06 422.05 1027.9 420.51 1028.02 419.49 1029.76 419.33 1033.22 419.81 1035.4 419.59 1037.07 418.03 1037.82 416.45 1037.21 414.92 1039.54 413.84 1040.35 413.1 1039.93 410.8 1041.6 409.35 1043.08 406.88 1043.93 406.04 1045.35 406.54 1046.9 406.52 1049.77 406.18 1050.32 403.43 1050.34 399.6 1051.53 396.93 1056.64 395.86 1057.43 394.68 1060.21 394.83 1061.89 393.93 1064.53 392.56 1066.19 391.87 1066.16 389 1068.17 388.05 1070.39 385.94 1070.7 383.57 1070.61 381.99 1071 378.8 1071.05 377.17 1073.53 375.65 1072.89 372.58 1073.73 371.4 1075.47 368.46 1077.24 367.57 1078.37 365.46 1078.83 364.48 1080.57 361.07 1084.44 359.55 1087.79 357.89 1089.28 354.98 1090 349.36 1088.78 347.51 1086.47 345.65 1085.06 344.58 1083.51 340.13 1082.84 338.57 1082.23 337.35 1080.12 335.13 1078.99 334.21 1077.53 332.08 1075.11 330.59 1071.38 327.87 1070.9 325.34 1069.84 323.15 1067.44 321.53 1065.08 319.81 1063.33 318.41 1061.11 315.98 1056.6 312.91 1056.62 313.21 1055.61 312.31 1055.01 311.74 1052.66 310.75 1051.26 307.27 1048.62 306.14 1047.24 307.12 1045.23 307.68 1042.88 307.56 1041.5 308.15 1039.51 307.74 1038.83 307.25 1035 307.67 1033.77 307.5 1032.55 306.04 1031.34 303.95 1028.31 303.99 1027.24 303.01 1025.87 301.7 1025.37 299.44 1025.34 296.06 1023.51 293.69 1020.1 293.53 1018.88 291.47 1018.56 290.97 1017.89 288.72 1016.85 288.83 1015.1 289.58 1013.19 291.54 1010.48 291.89 1008.3 293.05 1006.03 290.82 1003.18 290.5 1000.77 288.95 996.09 288.05 995.1 288.22 993.53 287.42 990.38 289.11 987.95 289.13 984.5 288.23 983.67 288.55 981.75 288.68 978.18 290.83 973.98 293.77 970.62 295.91 969.34 295.41 966.45 296.63 964.02 296.42 962.26 295.4 959.7 295.41 956.56 296.22 953.29 292.73 953.63 291.66 952.36 288.4 950.96 286.4 951.56 283.93 949.41 281.19 949.43 280.34 947.86 280.29 944.86 278.88 941.7 276.34 938.81 276.47 936.5 275.88 934.29 276.64 932.46 276.56 931.51 277.67 927.39 277.62 926.37 278.54 922.51 278.12 920.77 278.79 917.37 278.1 916.66 278.37 914.34 277.02 913.92 276.22 912.72 273.6 912.21 272.88 911.18 270.63 910.74 269.23 909.68 269.85 908.86 270.72 904.57 270.63 903.98 272.92 902.42 273.4 899.78 274.68 899.21 275.65 897.71 275.5 896.91 276.69 896.05 276.69 895.32 277.73 893.43 277.7 892.13 279.5 891.37 280.79 889.32 281.31 885.85 281.65 885.46 281.59 882.37 282.28 881.56 284.39 881.7 286.01 881.35 286.71 880.1 287.66 880.45 288.94 879.95 289.47 877.56 290.36 876.55 291.8 875.86 292.25 875 292.45 872.88 292.26 870.75 290.96 869.37 290.57 867.82 290.7 864.55 291.27 863.51 293.32 861.74 293.62 860.69 293.22 858.37 293.94 857.33 293.92 855.85 294.48 854.15 294.27 851.54 294.69 850.9 294.87 846.58 295.14 844.35 294.9 841.65 294.5 839.96 297.25 837.54 298.97 837.16 300 838.48 301.62 837.75 302.51 839.15 304.72 839.8 306.15 842.63 309.58 844.37 310.69 844.56 311.55 845.91 313.8 846.69 318.15 846.5 319.24 849.26 321.02 850.64 321.81 852.02 322.52 855.31 323.38 855.42 324.31 856.64 326.21 858.12 326.13 861.03 327.65 861.87 328.72 865.74 328.64 868.95 327.59 870.45 330.13 871.67 331.49 870.76 331.48 870.12 332.93 867.38 336.05 866.43 338.52 864.96 341.2 866.25 342.65 866.05 343.84 866.42 348.96 866.4 352.58 864.64 356.23 864.9 357.73 865.72 359.96 865.04 361.06 865.38 361.86 866.5 362.76 866.28 363.97 866.88 365.13 868.16 366.95 865.51 367.16 863.74 367.74 862.6 369.82 860.09 369.89 856.59 372.35 855.43 372.88 852.31 373.75 851.79 374.22 850.62 373.75 848.41 374.67 847.56 375.91 844.9 375.11 842.69 375.05 841 375.42 837.6 376.82 835.88 377.19 834.4 376.47 831.98 378.1 830.12 379.43 829.48 380.41 827.12 384.36 827.45 385.24 827.04 386.76 827.44 387.96 826.9 389 825.26 390.26 824.72 392.73 826 396.17 825.4 397.32 824.66 398.88 824.43 400.62 825.48 403.67 825.53 404.89 826.47 407.12 826.43 409.1 827.81 410.13 827.46 411.95 828.89 413.62 828.12 414.81 828.33 415.03 829.21 418.08 830.02 421.08 828.72 424.53 830.39 425.17 830.08 430.31 831.08 432.85 831.11 433.58 835.06 434.81 836.63 437.09 838.52 437.52 840.76 439.14 842.57 440.94 842.35 443.73 844.33 444.4 844.26 445.94 846.28 447.5 847.04 448.95 845.41 450.91 845.52 452.35 845 454.1 846.16 456.52 850.03 458.82 851.46 458.81 852.98 459.69 854.6 459.44 855.68 459.43 862.49 460.14 864.27 462.2 866.57 463.87 867.98 464.94 870.59 466.81 872.69 469.51 873.23 470.21 872.37 472.9 873.18 474.33 872.34 476.89 871.69 478.02 870.33 480.01 866.72 483.72 866.39 484.52 866.78 487.7 869.63 488.96 869.7 490.92 871.9 493.29 871.48 495.58 871.59 497.39 871.23 499.57 872.03 501.99 872.14 503.53 873.38 505.19 874.03 508.11 873.49 510.02 874.73 511.43 877.01 516.92 878.86 518.47 879.02 520.77 878.4 522.49 878.82 524.49 877.94 527.02 879.65 529.2 881.75 529.67 882.74 531.22 881.66 537.46 886.6 543.13 888.49 545.74 888.65 549.98 891.74 552.85 893.66 553.41 894.28 554.36 897.06 555.43 899.17 557.61 900.8 560.7 902.33 561.58 902.27 562.14 904.23 561.43 907.29 561.61 907.93 564.11 910.36 565.94 914.48 568.21 917.67 568.99 920.1 568.62 922.44 569.14 927.4 570.52 928.3 574.89 930.3 575.62 931.25 576.89 931.85 580.69 936.69 582.7 938.73 588.91 939.17 590.21 938.44 593.22 938.58 595.19 938.99 597.46 939.86 598.68 939.87 600.51 938.03 601.42 937.67 605.48 938.78 607.91 939.85 610.38 940.33 613.6 940.22 616.66 941.77 619.77 942.9 621.3 942.46 623.77 941.32 626.03 940.93 631.12 944.58 634.59 946.59 636.95 949.11 641 948.72 644.37 949.46 645.36 950.79 651.38 948.64 651.73 948.79 Z" id="32590350"/>
<path d="M 633.66 550.57 634.84 551.69 635.37 553.76 636.28 554.14 636.57 555.62 638.18 557.58 637.22 559.32 639.79 565.25 641.41 570.95 641.27 574.39 640.53 574.89 641.78 577.65 643.19 578.75 643.65 581.63 641.48 585.32 641.08 587.08 642.12 589.84 642.96 594.64 643.78 597.15 645.04 598.84 647.56 600.61 646.29 602.69 645.9 604.06 647.63 606.84 648.76 607.67 649.1 609.36 649.92 610.98 650.41 613.38 651.03 614.71 652.61 616.22 652.97 617.87 655.07 621.29 657.96 623.73 659.71 626.6 662.73 628.8 664.32 629.59 663.47 631.98 664.25 634.24 665.87 636.75 666.29 638.8 666.8 639.27 667.85 640.24 668.9 642.56 670.53 644.17 670.25 647.01 670.57 650.12 671.55 653.98 670.45 656.16 670.23 658.04 670.35 662.73 666.52 666.88 665.74 670.14 668.83 672.91 672.08 674.76 672.41 675.55 674.96 677.6 678.52 679.58 682.66 680.78 685.26 680.36 686.27 680.73 687.09 682.8 687.47 684.93 688.88 686.48 688.87 689.91 686.7 692.31 685.5 695.74 684.1 696.54 683.53 698.95 682.38 699.85 682.97 701.07 682.69 702.51 682.06 702.94 679.43 702.98 677.22 704.08 676.73 705.42 675.45 707.2 675.57 708.17 674.86 708.98 672.64 714.32 673.65 716.09 673.64 716.91 671.47 718.84 667.83 720.35 667.09 721.77 665.83 722.7 662.76 723.65 662.02 723.61 660.62 721.71 658.91 721.78 657.35 722.81 652.72 723.73 650.94 722.77 648.76 723.05 646.97 720.75 645.41 719.88 643.69 719.67 642.29 720.87 640.29 721.76 638.67 721.53 637.83 722.46 636.83 722.59 634.72 723.74 632.95 726.04 631.19 726.93 628.91 727.41 628.16 727.01 626.81 727.27 625.03 726.99 623.15 725.79 622.02 725.93 622.01 726.97 620.94 728.88 620.58 731.24 619.33 731.76 617.26 731.48 615.26 731.62 614.65 732.26 613.6 732.04 612.84 730.81 611.54 731 608.94 729.06 608.39 729.69 605.88 727.67 604.75 727.8 602.51 727.06 601.13 728.17 599.07 727.76 597.34 728.08 596.69 727.75 593.21 727.79 592.08 727.04 590.78 725.58 589.15 724.54 588.13 724.62 587.21 725.48 585.75 725.45 584.22 726.04 583.02 725.07 581.26 725.04 579.41 724.09 577.81 721.41 577.86 721 574.39 715.75 572.21 714.07 569.98 714.73 569.05 714.18 568.64 712.61 567.33 709.75 565.76 709.51 564.79 707.56 563.31 705.69 562.52 705.34 560.3 702.98 561.24 701.45 562.65 700.21 564.55 699.11 566.04 697.46 566.7 695.87 568.27 694.07 569.15 690.57 570.47 689.85 574.41 687.01 574.5 685.57 573.03 684.13 571.88 683.98 569.92 682.47 569.69 681.7 568.38 682.03 567.52 681.57 567.04 680.48 565.9 680.07 562.17 680.39 559.76 682.87 556.84 682.64 554.53 682.84 552.36 682.55 551.55 684.52 551.63 685.23 549.81 686.7 548.65 688.85 547.24 689.64 545.98 689.86 544.73 687.34 541.78 687 540.5 688.42 538.83 688.08 537.88 688.47 535.8 688.53 534.88 687.66 532.91 682.72 531.54 683.37 528.26 684.43 525.81 686.9 522.98 686.99 521.72 686.56 519.8 686.56 518.45 686.1 516.21 686.76 515.16 688.3 514.94 689.86 513.99 691.23 513.5 692.64 512.45 694.15 511.08 694.81 506.66 694.28 505.24 695.55 503.56 696.21 501.74 697.66 501.34 698.41 497.96 698.13 495.43 699.58 493.36 698.05 491.53 697.41 491.13 696.57 488.63 698.18 488.25 699.12 487.04 699.75 485.36 701.21 483.78 701.61 481.83 700.46 479.49 700.79 477.23 702.41 476.21 702.49 473.52 701.53 472.04 702.28 470.59 702.35 468.53 703.44 467.55 704.96 464.91 706.73 461.84 707.71 460.57 708.62 459.37 710.23 454.81 711.8 454.39 712.34 453.84 715.02 450.68 715.27 448.87 717.28 449.28 720.18 447.2 722.9 446.1 727.22 444.23 727.96 443.2 727.88 440.69 729.03 439.71 728.99 436.4 729.61 434.57 729.48 433.49 730.92 432.48 731.16 430.08 730.58 428.32 732.32 426.41 731.74 424.63 731.58 422.7 732.16 421.19 729.08 417.53 730.65 414.98 732.84 415.05 734.43 416.51 735.99 418.24 737.13 421.48 738.43 422.65 738.66 425.53 738.51 426.65 741.47 427.01 744.25 428.44 746 428.42 747.53 426.44 750.31 426.79 753.27 425.79 756.73 425.7 758.48 424.83 760.16 422.84 762.06 422.14 763.18 421.79 765.63 420.53 768.76 420.49 770.14 422.37 771.84 422.2 775.01 422.57 775.95 422.09 777.59 421.12 779.21 420.25 779.7 418.26 784.63 417.42 785.7 414.8 786.29 414.05 785.86 410.94 787.17 409.11 787.56 407 789.43 406.44 790.34 405.46 790.14 402.68 788.84 401.13 787.34 399.97 787.66 399.42 788.56 398.2 789.18 396.86 790.85 394.95 791.28 393.78 792.58 394.04 793.17 392.47 794.17 390.35 792.09 387.66 791.65 386.22 791.15 383.79 792.59 382.52 794.09 379 794.76 376.97 793.76 375.51 794.48 374.29 793.47 372.58 792.75 370.01 792.93 367.79 793.85 366.57 794.71 363.3 794.87 362.3 795.17 360.93 796.89 359.45 797.48 357.19 796.42 353.63 796.56 352.41 795.94 349.62 792.38 345.87 790.89 343.75 791.52 341.78 791.23 339.66 792.44 335.98 791.94 332.55 794.3 330.02 795.61 328.01 792.97 326.22 791.41 322.81 790.53 323.25 788.56 323.14 787.01 324.18 786.88 324.7 784.16 325.31 782.63 324.87 779.45 325.41 777.06 327.44 775.28 328.47 772.85 328.33 771.85 326.33 768.54 331.42 763.8 330.21 762.37 329.29 760.13 328.17 759.14 326.29 755.92 324.38 755.74 323.41 754.52 322.69 754.52 322.88 751.89 322.1 751.41 322.61 750.21 322.44 749.19 323.13 747.45 324.29 745.75 323.38 743.09 322.09 741.65 321.92 740.04 320.85 738.82 319.81 736.75 319.25 736.65 317.99 735.01 319.99 733.09 319.8 731.32 318.79 728.35 318.91 726.23 318.02 724.18 318.08 722.81 317.59 722.14 319.52 721.41 319.65 719.65 320.91 717.63 323.34 714.91 325.39 711.93 325.62 711.05 326.81 710.06 327.61 708.32 326.62 705.74 326.54 703.8 325.78 701.62 326.26 700.05 325.65 699.32 322.62 700.15 321.04 698.74 320.26 698.53 318.8 696.4 318.99 695.26 318.43 694.25 318.37 692.12 317.94 690.81 316.65 690.88 315.53 690.4 315.04 689.29 315.82 687.69 315.7 686.9 314.27 686.95 311.25 688.56 309.44 688.44 308.63 689.48 307.78 689.32 306.17 690.46 303.77 691.39 302.59 691.04 301.97 691.54 299.8 691.1 298.51 690.4 296.05 690.45 294.81 691.66 294.09 690.63 292.93 690.03 292.22 688.56 291.77 686.18 292.19 683.75 291.35 682.33 292.28 681.12 292.96 678.99 292.99 677.27 293.94 675.93 293.78 675.21 294.17 672.5 293.31 670.81 293.47 669.64 292.2 665.2 289.96 668.32 286.92 670.06 283.77 670.47 276.9 670.75 270.97 669.23 267.91 667.46 263.14 662.6 260.39 657.92 258.33 655.91 255.49 653.69 254.97 651.88 252.65 649.6 248.07 647.62 246.18 646.13 244.9 646.71 242.94 644.8 239.5 643.17 239.19 641.61 240.3 640.09 240.38 639.1 238.63 633.47 239.37 631.8 238.8 631.52 238.03 629.29 238.07 627.91 236.45 626.94 235.93 624.55 236.31 623.32 236.07 621.41 237.4 619.85 237.54 617.53 234.63 615.82 232.8 613.7 230.08 609.63 226.2 610.03 225.43 608.55 224.95 603.98 224.25 603.24 223.79 601.12 223.19 600.59 221.08 600.89 218.93 599.13 216.32 598.76 213.06 594.9 212.79 592.34 210.82 590.72 211.27 588.9 210.67 587.32 208.37 585.83 207.11 583.99 204.56 582.36 203.86 577.98 201.65 575.6 199.86 575.41 197.9 572.67 197.52 568.9 196 566.74 194.27 564.76 194.01 562.92 190.88 558.88 189.43 557.43 187.81 553.37 189.46 548.63 187.25 547.77 185.15 545.03 182.42 543.81 181.97 538.3 184.69 535.23 187.72 532.92 187.42 527.35 186.31 525.71 186.33 520.89 184.99 519.03 182.36 512.65 180.34 511.49 180.33 508.62 178.79 505.39 177.23 503.73 177.5 502.14 177.39 499.13 178.53 494.84 179.93 493.1 177.74 492.82 175.24 492.1 172.92 492.16 170.19 491.17 169.67 488.63 168.61 486.05 168.39 482.93 167.52 481.47 163.57 478.85 162.29 477.28 161.5 477 163.57 472.41 164.97 470.68 164.98 468.41 164.02 465.58 164.43 461.63 164.24 459.88 163.3 456.71 161.94 454.75 159.53 453.66 159.07 451.09 159.92 449.61 161.11 448.93 162.2 447.72 164.22 444.81 165.59 440.96 166.95 439.73 169.02 436.68 170.91 435.19 172.64 434.88 174.64 431.3 174.79 427.4 174.21 423.65 175.12 420.99 174.61 418.79 173.99 418.01 174.18 412.73 174.96 408.72 175.33 407.88 178.2 405.85 180.32 405.36 181.95 404.32 184.04 403.72 184.89 401.7 184.78 398.53 184.23 396.14 184.25 392.97 186.79 389.2 186.34 388.24 184.75 386.78 182.57 385.33 178.44 381.38 176.99 375.34 178.25 374.9 178.99 373.65 180.9 372.58 181.22 370.92 182.34 368.55 184.21 368.23 186.39 365.44 187.34 363.11 187.45 360.53 188.46 359.49 188.91 358.31 191.7 357.68 193.22 357.88 194.67 356.69 196.6 354.19 197.95 354.08 199.7 355.25 201.65 358.01 202.78 360.19 203.86 361.11 204.04 362.63 205.13 363.98 205.75 365.7 207.6 366.49 208.26 368.19 210.14 370.72 210.18 372.61 211.47 374.29 212.25 376.51 213.65 377.48 214 378.28 215.94 378.77 216.54 379.76 219.66 379.29 221.38 380.77 221.95 385.06 222.46 386.65 223.62 387.66 224.61 387.87 225.94 389.92 225.85 393.28 230.32 400.94 231.12 401.62 231.49 403.97 232.6 404.54 233.67 406.11 234.84 406.52 235.86 408.22 235.91 409.19 237.41 412.29 237.19 414.66 240.38 416.23 241.63 418.14 242.18 419.79 243.56 421.28 244.25 423.49 245.69 424.44 245.93 427.06 247.19 430.49 249.07 433.03 250.05 433.13 251.66 434.62 249.95 439.76 252.05 442.09 253.05 442.33 253.73 445.44 253.56 445.98 257.2 447.67 258.53 450.9 259.82 452.53 259.92 453.28 262.68 456.58 264.82 458.14 266.54 460.36 268.35 461.56 270.38 461.31 271.3 462.33 272.64 462.98 273.82 462.03 276.68 460.71 278.71 462.31 280.58 462.47 281.55 463.66 285.59 462.81 286.16 464.32 288.35 466.54 291.37 467.64 291.67 468.87 293.45 470.26 293.46 472.22 293.85 473.27 293.52 474.78 296.52 477.36 298.64 478.77 298.41 480.21 297.38 481.56 296.63 483.2 296.13 485.38 297.88 491 298.77 492.29 299.18 496.85 298.23 497.8 297.91 499.05 298.59 499.83 298.75 501.12 300.1 503.14 300.32 504.33 299.35 506.33 299.2 508.31 301.04 511.41 300.8 512.76 301.73 515.51 301.65 516.56 302.16 518.45 301.29 520.09 303.12 523.08 304.44 523.96 304.93 525.09 306.15 525.51 307.82 527.68 308.18 527.07 310.24 525.71 310.63 524.78 312.8 523.04 315.72 522.33 317.23 522.7 318.24 523.95 318.15 525 316.81 526.77 316.72 528.43 317.21 529.62 319.68 530.93 320.67 530.89 322.61 529.67 327.47 527.91 330.4 527.79 331.43 527.21 332.18 525.85 332.82 527.2 335.62 529.82 336.64 530.52 336.96 531.97 333.84 536.78 332.61 538.14 332.62 538.82 334.03 539.42 335.04 538.93 335.51 537.42 338.32 539.05 341.26 539.77 341.91 540.47 343.28 540.25 345.49 540.98 347.84 540.95 349.04 541.54 350.22 541.28 351.32 542.08 352.92 541.55 353.75 541.93 356.1 541.11 360.34 541.08 361.75 541.64 364.32 541.79 366.73 543.64 367.84 545.36 369.33 552 370.09 552.26 372.01 551.95 375.78 552.6 377.91 551.76 379.49 550.11 380.88 549.46 382.22 550.23 386.12 551.52 387.11 550.32 388.82 549.49 392.72 549.58 395.85 550.11 398.47 551.25 399.16 552.71 400.79 553.91 403.31 552.08 405.01 553.73 406.92 554.68 408.61 554.43 409.28 553.63 410.99 552.86 412.7 551.43 414.65 551.73 416.22 552.86 417.53 553.04 420.1 554.17 420.45 555.67 422.39 557.46 424.46 558.05 426.28 559.76 428.46 561.16 429.12 562.18 428.8 562.93 431.23 565.99 432.45 566.51 434.31 566.71 436.8 566.27 438.41 567.3 439.11 569.22 441.19 569.19 442.92 570.06 446.11 571.26 447.38 572.31 449.77 572.25 451.93 571 456.04 569.87 457.96 567.11 462.44 565.86 463.75 566.4 464.92 565.7 466.57 565.8 467.51 565.17 469.71 564.83 470.8 564.17 472.07 564.06 476.84 565.21 480.89 562.28 484.77 560.69 489.1 559.98 492.18 560.07 497.64 554.34 498.98 553.33 499.8 551.07 501.63 549.35 505.81 547.11 506.63 547.35 508.17 546.87 508.9 548.89 510.03 549.86 511.63 551.99 513.03 551.49 515.69 553.12 517.1 552.69 518.84 551.48 522.91 552.13 524.52 552.06 528.46 554.37 530.38 554.97 531.19 556.2 534.14 556.61 534.9 557.06 537.71 555.67 539.03 556.19 539.68 557.18 541.27 557.94 541.9 557.76 545.09 555.16 547.78 555.37 549.07 554.56 550.24 554.9 552.83 554.43 557.7 552.41 559.18 552.01 560.64 550.89 562.15 551.11 564.5 550.31 566.82 549.1 568.2 549.09 569.16 549.85 571.25 552.53 572.25 552.9 575.07 552.99 578.31 554.74 579.97 554.68 580.9 553.95 582.42 553.54 585.55 551.97 587.42 552 589.15 552.93 591.27 552.49 593.04 550.88 593.98 549.23 596.39 547.96 597.15 546.32 599.67 545.86 602.17 546.35 604.43 545.52 606.05 546.43 608.41 546.95 609.79 547.7 609.98 548.35 613.69 550 616.27 548.54 618.67 548.13 620.82 549.37 622.72 549.27 624.56 550.26 625.6 550.41 627.1 549.75 629.13 549.58 631.96 550.65 633.66 550.57 Z" id="32590110"/>
<path d="M 353.63 796.56 353.96 798.92 356.02 801.02 356.36 803.49 355.67 807.01 355.04 807.91 354.57 809.67 354.61 811.2 356.28 811.46 358.36 811.31 359.69 810.79 362.66 812.75 365.25 814 365.93 814.99 368.57 816.59 368.94 818.05 373.45 821.53 375.33 823.47 375.85 824.78 378.06 825.04 378.16 825.98 380.41 827.12 379.43 829.48 378.1 830.12 376.47 831.98 377.19 834.4 376.82 835.88 375.42 837.6 375.05 841 375.11 842.69 375.91 844.9 374.67 847.56 373.75 848.41 374.22 850.62 373.75 851.79 372.88 852.31 372.35 855.43 369.89 856.59 369.82 860.09 367.74 862.6 367.16 863.74 366.95 865.51 365.13 868.16 363.97 866.88 362.76 866.28 361.86 866.5 361.06 865.38 359.96 865.04 357.73 865.72 356.23 864.9 352.58 864.64 348.96 866.4 343.84 866.42 342.65 866.05 341.2 866.25 338.52 864.96 336.05 866.43 332.93 867.38 331.48 870.12 331.49 870.76 330.13 871.67 327.59 870.45 328.64 868.95 328.72 865.74 327.65 861.87 326.13 861.03 326.21 858.12 324.31 856.64 323.38 855.42 322.52 855.31 321.81 852.02 321.02 850.64 319.24 849.26 318.15 846.5 313.8 846.69 311.55 845.91 310.69 844.56 309.58 844.37 306.15 842.63 304.72 839.8 302.51 839.15 301.62 837.75 300 838.48 298.97 837.16 297.25 837.54 294.5 839.96 294.9 841.65 295.14 844.35 294.87 846.58 294.69 850.9 294.27 851.54 294.48 854.15 293.92 855.85 293.94 857.33 293.22 858.37 293.62 860.69 293.32 861.74 291.27 863.51 290.7 864.55 290.57 867.82 290.96 869.37 292.26 870.75 292.45 872.88 292.25 875 291.8 875.86 290.36 876.55 289.47 877.56 288.94 879.95 287.66 880.45 286.71 880.1 286.01 881.35 284.39 881.7 282.28 881.56 281.59 882.37 281.65 885.46 281.31 885.85 280.79 889.32 279.5 891.37 277.7 892.13 277.73 893.43 276.69 895.32 276.69 896.05 275.5 896.91 275.65 897.71 274.68 899.21 273.4 899.78 272.92 902.42 270.63 903.98 270.72 904.57 269.85 908.86 269.23 909.68 270.63 910.74 272.88 911.18 273.6 912.21 276.22 912.72 277.02 913.92 278.37 914.34 278.1 916.66 278.79 917.37 278.12 920.77 278.54 922.51 277.62 926.37 277.67 927.39 276.56 931.51 276.64 932.46 275.88 934.29 274.87 933.87 271.92 934.02 271.25 934.37 269.68 934.71 267.57 934.73 263.88 934.46 262.61 933.62 259.18 934.17 257.99 936.61 255.29 937.66 254.3 937.72 252.27 938.87 250.81 938.43 247.57 938.56 245.56 936.09 243.6 936.41 240.76 935.99 236.85 936.6 234.65 936.51 234.06 935.15 234.04 932.41 232.54 930.61 231.42 928.75 230.26 931.93 228.87 933.67 226.79 934.54 223.96 934.96 219.5 934.06 218.31 933.2 214.06 931.45 212.11 931.74 209.38 931.55 205.48 929.2 204.6 928.2 203.18 927.45 201.47 927.09 199.37 927.12 195.82 925.87 193.92 926 191.68 928.49 188.39 930.57 186.54 930.67 183.01 931.5 180.8 932.25 180.01 931.42 177.24 930.41 174.59 930.45 172.05 929.58 171.44 928.38 169.65 926.87 167.55 926.87 164.28 925.61 161.31 923.97 159 923.3 157.41 921.45 154.13 919.24 153.4 917.96 152.85 915.79 150.85 913.99 148.7 913.22 147.56 912.2 143.6 910.42 139.92 910.27 138.18 909.18 136.9 908.83 134.16 907.09 132.72 907.05 130.44 905.69 128.61 903.23 127.68 902.85 126 901.44 125.54 899.5 124.27 898.56 122.58 896.61 120.89 896.45 118.66 893.72 114.53 894.37 114.06 893.79 113.53 891.49 109.49 885.68 105.23 885.63 103.14 884.72 102.21 883.28 102.28 882.3 101.33 881.31 99.21 877.49 98.29 876.7 96.11 876.47 94.55 875.76 93.25 873.43 93.89 870.95 92.49 869.42 92.25 867.25 90.94 865.38 90.08 863.48 89.79 859.76 88.92 858.88 88.18 859.07 86.47 858.06 86.21 855.82 86.58 854.69 85.48 851.98 85.77 850.42 84.82 850.03 83.7 848.31 81.75 847.22 79.72 843.62 77.19 844.15 75.42 843.08 73.73 841.69 72.61 842.95 66.96 844.38 62.61 846.12 61.92 846.96 59.27 847.45 58.91 847.18 55.48 851.64 55.09 853.89 53.91 855.47 49.52 855.52 47.83 856.34 44.02 854.79 42.18 855.21 41.09 855.08 39.51 855.58 37.66 857.56 36.77 857.64 34.64 854.45 33.23 853.06 31.14 851.81 30.45 850.85 27.57 850.33 24.86 848.96 25.47 845.91 21.42 843.69 19.33 842.87 17.04 837.42 16.06 836.37 15.68 830.45 10.3 827.42 5.65 822.62 1 820.71 2.78 818.94 4.69 817.79 5.06 815.98 7.07 813.91 7.17 811.03 10.5 807.97 9.85 805.48 11.25 803.77 10.32 799.29 10.45 795.46 9.51 794.17 8.17 793.27 7.95 792.51 9.9 788.12 11.07 787.21 11.6 786.22 10.7 782.98 11.35 777.29 9.74 775.92 8.6 774.05 8.1 772.63 6.86 770.82 6.95 769 9.7 765.06 10.33 764.73 10.08 760.88 9.48 760.3 12.2 759.63 16.09 760.74 19.58 757.56 21.28 756.45 23.46 756.87 26.09 756.8 28.64 757.78 30.59 756.65 33.26 755.69 34.2 753.99 35.66 752.34 38.88 747.61 41.05 748.02 43.64 746.02 46.97 746.59 50.03 745.94 53.77 746.04 56.56 745.52 58.33 743.51 58.07 741.35 60.31 739.87 61.67 738.05 63.32 727.53 62.73 725.23 63.64 724.73 67.25 724.02 67.53 723.57 69.62 722.86 70.67 720.98 69.85 718.14 70.83 716.97 72.42 715.99 73.17 714.66 76.81 712.17 77.52 711.34 79.35 712.58 82.79 711.85 85.17 710.64 86.99 709.43 93.88 703.58 97.73 700.91 100.52 700.39 103.54 701.01 105.41 703.25 107.27 702.07 108.36 702.47 110.52 703.87 112.11 704.16 114.09 706.05 114.71 707.56 116.04 709.62 117.1 709.62 119.69 710.27 123.41 710 125.01 706.69 124.79 705.59 125.56 702.72 124.96 700.64 123.15 697.8 122.79 696.7 123.16 695.27 123.3 692.8 121.97 690.64 121.5 689.05 121.84 687.81 121.22 685.83 117.25 681.42 117.07 679.91 117.62 678.88 117.38 677.54 118.71 675.82 118.83 674.95 120.85 671.87 120.75 669.64 119.83 668.57 119.18 663.6 120.76 662.96 121.11 661.71 122.28 660.65 122.49 658.12 123.73 654.86 122.63 651.95 123.52 649.34 125.33 649.26 127.88 650.26 129.86 649.8 131.79 649.82 133.69 650.19 135.68 650.15 135.29 652.13 136.95 654.8 137.2 656 138.91 657.73 140.37 658.5 142.57 660.81 143.45 662.15 145.53 663.43 147.12 663.41 148.55 664 150.69 666.32 152.3 668.98 152.77 671.4 152.81 673.63 154.52 674.05 155.68 675.3 157.35 676 160.78 677.01 162.12 676.85 163.81 675.39 165.1 675.49 167.51 677.36 167.62 678.16 169.22 679.81 169.93 681.83 171.88 682.42 173.39 683.41 173.96 684.38 176.72 684.35 177.46 683.33 179.39 682.98 180.27 682.39 186.89 682.41 189.77 680.46 191.69 678.41 193 675.71 196.2 674.05 198.67 671.36 200.39 670.77 201.07 669.11 202.41 667.73 201.77 663.69 200.88 662.16 201.28 659.72 200.8 658.24 203.93 655.25 205.17 653.68 206.46 650.07 208.69 647.78 208.46 646.28 206.35 643.09 205.74 640.8 203.94 638.74 203.09 636.58 203.72 635.48 202.21 632.23 202.58 629.53 202.26 627.81 202.29 625.8 202.91 624.59 203.42 620.12 204.35 619.11 203.22 617.07 203.56 616 202.46 612.16 202.69 610.81 201.39 608.3 200.42 607.17 200.77 605.03 200.51 603.4 199.57 601.66 198.35 600.41 196.92 600.05 194.68 598.89 192.92 598.42 191.7 597.14 190.1 597.15 189.68 596.41 187.78 595.81 184.84 594.41 183.26 592.32 183.05 591.21 180.81 589.84 179.24 587.69 178.96 586.61 176.7 583.51 175.76 580.84 175.72 580.01 173.53 577.44 174.38 576.79 172.77 573.23 171.67 571.61 170.57 570.98 169.06 568.41 168.6 565.93 165.98 564.99 165.21 563.5 164.09 562.83 164.22 561.15 162.82 557.38 163.9 555.38 164.98 551.79 165.28 548.85 165.83 547.25 167.55 547.6 169.45 547.02 173.53 546.8 176.58 547.36 177.91 546.13 180.47 544.66 182.42 543.81 185.15 545.03 187.25 547.77 189.46 548.63 187.81 553.37 189.43 557.43 190.88 558.88 194.01 562.92 194.27 564.76 196 566.74 197.52 568.9 197.9 572.67 199.86 575.41 201.65 575.6 203.86 577.98 204.56 582.36 207.11 583.99 208.37 585.83 210.67 587.32 211.27 588.9 210.82 590.72 212.79 592.34 213.06 594.9 216.32 598.76 218.93 599.13 221.08 600.89 223.19 600.59 223.79 601.12 224.25 603.24 224.95 603.98 225.43 608.55 226.2 610.03 230.08 609.63 232.8 613.7 234.63 615.82 237.54 617.53 237.4 619.85 236.07 621.41 236.31 623.32 235.93 624.55 236.45 626.94 238.07 627.91 238.03 629.29 238.8 631.52 239.37 631.8 238.63 633.47 240.38 639.1 240.3 640.09 239.19 641.61 239.5 643.17 242.94 644.8 244.9 646.71 246.18 646.13 248.07 647.62 252.65 649.6 254.97 651.88 255.49 653.69 258.33 655.91 260.39 657.92 263.14 662.6 267.91 667.46 270.97 669.23 276.9 670.75 283.77 670.47 286.92 670.06 289.96 668.32 292.2 665.2 293.47 669.64 293.31 670.81 294.17 672.5 293.78 675.21 293.94 675.93 292.99 677.27 292.96 678.99 292.28 681.12 291.35 682.33 292.19 683.75 291.77 686.18 292.22 688.56 292.93 690.03 294.09 690.63 294.81 691.66 296.05 690.45 298.51 690.4 299.8 691.1 301.97 691.54 302.59 691.04 303.77 691.39 306.17 690.46 307.78 689.32 308.63 689.48 309.44 688.44 311.25 688.56 314.27 686.95 315.7 686.9 315.82 687.69 315.04 689.29 315.53 690.4 316.65 690.88 317.94 690.81 318.37 692.12 318.43 694.25 318.99 695.26 318.8 696.4 320.26 698.53 321.04 698.74 322.62 700.15 325.65 699.32 326.26 700.05 325.78 701.62 326.54 703.8 326.62 705.74 327.61 708.32 326.81 710.06 325.62 711.05 325.39 711.93 323.34 714.91 320.91 717.63 319.65 719.65 319.52 721.41 317.59 722.14 318.08 722.81 318.02 724.18 318.91 726.23 318.79 728.35 319.8 731.32 319.99 733.09 317.99 735.01 319.25 736.65 319.81 736.75 320.85 738.82 321.92 740.04 322.09 741.65 323.38 743.09 324.29 745.75 323.13 747.45 322.44 749.19 322.61 750.21 322.1 751.41 322.88 751.89 322.69 754.52 323.41 754.52 324.38 755.74 326.29 755.92 328.17 759.14 329.29 760.13 330.21 762.37 331.42 763.8 326.33 768.54 328.33 771.85 328.47 772.85 327.44 775.28 325.41 777.06 324.87 779.45 325.31 782.63 324.7 784.16 324.18 786.88 323.14 787.01 323.25 788.56 322.81 790.53 326.22 791.41 328.01 792.97 330.02 795.61 332.55 794.3 335.98 791.94 339.66 792.44 341.78 791.23 343.75 791.52 345.87 790.89 349.62 792.38 352.41 795.94 353.63 796.56 Z" id="32590310"/>
<path d="M 633.66 550.57 631.96 550.65 629.13 549.58 627.1 549.75 625.6 550.41 624.56 550.26 622.72 549.27 620.82 549.37 618.67 548.13 616.27 548.54 613.69 550 609.98 548.35 609.79 547.7 608.41 546.95 606.05 546.43 604.43 545.52 602.17 546.35 599.67 545.86 597.15 546.32 596.39 547.96 593.98 549.23 593.04 550.88 591.27 552.49 589.15 552.93 587.42 552 585.55 551.97 582.42 553.54 580.9 553.95 579.97 554.68 578.31 554.74 575.07 552.99 572.25 552.9 571.25 552.53 569.16 549.85 568.2 549.09 566.82 549.1 564.5 550.31 562.15 551.11 560.64 550.89 559.18 552.01 557.7 552.41 552.83 554.43 550.24 554.9 549.07 554.56 547.78 555.37 545.09 555.16 541.9 557.76 541.27 557.94 539.68 557.18 539.03 556.19 537.71 555.67 534.9 557.06 534.14 556.61 531.19 556.2 530.38 554.97 528.46 554.37 524.52 552.06 522.91 552.13 518.84 551.48 517.1 552.69 515.69 553.12 513.03 551.49 511.63 551.99 510.03 549.86 508.9 548.89 508.17 546.87 506.63 547.35 505.81 547.11 501.63 549.35 499.8 551.07 498.98 553.33 497.64 554.34 492.18 560.07 489.1 559.98 484.77 560.69 480.89 562.28 476.84 565.21 472.07 564.06 470.8 564.17 469.71 564.83 467.51 565.17 466.57 565.8 464.92 565.7 463.75 566.4 462.44 565.86 457.96 567.11 456.04 569.87 451.93 571 449.77 572.25 447.38 572.31 446.11 571.26 442.92 570.06 441.19 569.19 439.11 569.22 438.41 567.3 436.8 566.27 434.31 566.71 432.45 566.51 431.23 565.99 428.8 562.93 429.12 562.18 428.46 561.16 426.28 559.76 424.46 558.05 422.39 557.46 420.45 555.67 420.1 554.17 417.53 553.04 416.22 552.86 414.65 551.73 412.7 551.43 410.99 552.86 409.28 553.63 408.61 554.43 406.92 554.68 405.01 553.73 403.31 552.08 400.79 553.91 399.16 552.71 398.47 551.25 395.85 550.11 392.72 549.58 388.82 549.49 387.11 550.32 386.12 551.52 382.22 550.23 380.88 549.46 379.49 550.11 377.91 551.76 375.78 552.6 372.01 551.95 370.09 552.26 369.33 552 367.84 545.36 366.73 543.64 364.32 541.79 361.75 541.64 360.34 541.08 356.1 541.11 353.75 541.93 352.92 541.55 351.32 542.08 350.22 541.28 349.04 541.54 347.84 540.95 345.49 540.98 343.28 540.25 341.91 540.47 341.26 539.77 338.32 539.05 335.51 537.42 335.04 538.93 334.03 539.42 332.62 538.82 332.61 538.14 333.84 536.78 336.96 531.97 336.64 530.52 335.62 529.82 332.82 527.2 332.18 525.85 331.43 527.21 330.4 527.79 327.47 527.91 322.61 529.67 320.67 530.89 319.68 530.93 317.21 529.62 316.72 528.43 316.81 526.77 318.15 525 318.24 523.95 317.23 522.7 315.72 522.33 312.8 523.04 310.63 524.78 310.24 525.71 308.18 527.07 307.82 527.68 306.15 525.51 304.93 525.09 304.44 523.96 303.12 523.08 301.29 520.09 302.16 518.45 301.65 516.56 301.73 515.51 300.8 512.76 301.04 511.41 299.2 508.31 299.35 506.33 300.32 504.33 300.1 503.14 298.75 501.12 298.59 499.83 297.91 499.05 298.23 497.8 299.18 496.85 298.77 492.29 297.88 491 296.13 485.38 296.63 483.2 297.38 481.56 298.41 480.21 298.64 478.77 296.52 477.36 293.52 474.78 293.85 473.27 293.46 472.22 293.45 470.26 291.67 468.87 291.37 467.64 288.35 466.54 286.16 464.32 285.59 462.81 281.55 463.66 280.58 462.47 278.71 462.31 276.68 460.71 273.82 462.03 272.64 462.98 271.3 462.33 270.38 461.31 268.35 461.56 266.54 460.36 264.82 458.14 262.68 456.58 259.92 453.28 259.82 452.53 258.53 450.9 257.2 447.67 253.56 445.98 253.73 445.44 253.05 442.33 252.05 442.09 249.95 439.76 251.66 434.62 250.05 433.13 249.07 433.03 247.19 430.49 245.93 427.06 245.69 424.44 244.25 423.49 243.56 421.28 242.18 419.79 241.63 418.14 240.38 416.23 237.19 414.66 237.41 412.29 235.91 409.19 235.86 408.22 234.84 406.52 233.67 406.11 232.6 404.54 231.49 403.97 231.12 401.62 230.32 400.94 225.85 393.28 225.94 389.92 224.61 387.87 223.62 387.66 222.46 386.65 221.95 385.06 221.38 380.77 219.66 379.29 216.54 379.76 215.94 378.77 214 378.28 213.65 377.48 212.25 376.51 211.47 374.29 210.18 372.61 210.14 370.72 208.26 368.19 207.6 366.49 205.75 365.7 205.13 363.98 204.04 362.63 203.86 361.11 202.78 360.19 201.65 358.01 199.7 355.25 197.95 354.08 200.3 350.89 200.33 348.2 201.33 347.87 202.71 346.24 203.39 343.97 204.74 343.25 205.76 340.44 205.68 339.27 208.54 336.73 209.87 334.68 211.79 334.46 212.63 334.76 214.27 334.53 220.15 334.54 220.7 335.32 223.83 337.76 225.99 338.17 226.6 337.74 229.78 339.37 232.45 339.28 234.58 338.87 237.26 337.4 239.12 337.44 240.83 339.55 241.86 341.58 243.07 341.9 243.44 344.09 243.95 344.88 244.04 346.91 243.75 348.98 245.24 351.18 245.58 354.16 246.39 355.4 246.72 356.74 246.63 358.35 247.23 359.83 250.61 360.37 251.25 360.98 252.84 361.16 255.04 361.83 256.47 361.64 258.74 362.42 259.26 363.31 263.5 363.49 264 364.31 266.86 365.33 268.09 366.63 270.82 367.68 272.1 367.84 273.24 368.72 275.08 369.29 278.11 369.67 278.47 370.65 279.08 374.61 280.62 376.25 280.55 378.17 282.02 380.08 286.64 380.16 288.24 380.37 288.71 379.74 293.3 380.93 296.91 379.65 298.92 381.45 299.44 382.7 301.41 382.97 305.99 382.96 307.53 381.29 309.89 381.74 311.04 381.31 312.85 381.68 313.31 383.44 315.48 384.1 317.22 384.02 319.91 384.67 321.19 388.61 322.79 390.48 323.11 391.31 323.04 393.27 324.41 395.93 325.16 395.76 327.92 392.73 329.93 391.49 333.52 393.12 336.92 394.22 342.47 395.49 342.84 397.11 346.29 396.91 347.67 397.29 351.69 395.07 355.39 395.6 356.05 396.3 359.29 396.82 361.45 395.06 362.72 394.65 363.75 393.48 363.82 390.8 363.52 389.36 363.81 387.2 364.7 386.08 364.83 385 367.68 384.21 369.78 384.63 370.9 385.73 373.16 386.65 374.66 387.64 376.01 391.45 377.7 392.41 380.18 396 380.29 397.03 381.47 398.5 382.76 399 385.28 399.34 387.62 398.59 390.08 398.21 393.94 396.6 394.86 395.51 395.94 395.79 397.26 397.06 398.47 397.22 401.93 396.47 404.52 397.88 405.45 397.95 407.88 396.08 409.51 395.87 410.38 395.31 412.18 395.37 413.32 394.16 416.44 392.45 418.54 391.01 420.27 391.15 421.52 389.95 422.67 389.68 423.79 388.1 428.13 383.77 431.41 382.37 431.96 381.91 433.28 378.49 434.45 377.71 435.79 375.71 436.43 374.01 434.53 370.99 432.51 370.22 431.19 368.17 430.37 367.66 430.24 364.68 429.19 361.47 429.31 358.87 428.39 358.11 427.08 355.94 425.17 353.78 425.55 352.62 424.88 350.55 424.49 348.18 423.82 347.56 422.86 345.67 422.47 343.15 423.68 338.78 425.54 336.26 428.85 334.02 430.02 332.97 431.91 332.04 433.06 328.99 432.28 327.31 432.23 325.71 432.84 323.6 434.15 321.79 435.34 321.07 435.79 320.09 438.96 317.24 439.35 315.79 440.02 315.24 440.47 313.35 442.7 310.25 443.07 308.2 444.76 307.01 446.05 304.88 448.02 303.02 449.52 300.54 452.1 298.18 454.48 298.75 455.83 301.04 460.34 300.35 462.51 300.43 464.91 301.77 466.65 303.62 468.17 304.16 469.97 303.64 472.07 302.28 475.61 300.86 476.62 299.43 479.31 300.1 480.72 299.87 482.89 300.3 485.45 297.48 486.74 293.44 486.74 291.03 486.06 287.28 485.77 284 485.12 278.88 485.44 276.91 485.61 273.7 483.87 272.98 481.43 269.52 481.63 267.92 481.28 266.91 481.78 263.81 481.31 261.09 481.96 258.48 482.92 257.58 483.56 255.92 483.76 254.11 484.57 253.13 484.5 250.03 486.61 247.77 487.48 245.56 489.45 244.42 491.87 242.35 494.5 241.73 495.25 240.97 496.95 240.58 497.95 238.67 498.45 236.45 499.71 234.62 502.5 232 503.54 232.07 505.49 231.22 506.94 231.11 510.08 231.5 512.87 231.15 514.79 231.59 517.41 232.94 520.64 232.98 522.05 233.5 522.82 235.39 523.73 236.16 524.82 235.88 527.32 236.82 529.1 237.18 531.96 235.46 533.79 234.04 534.64 232.6 536.83 233.51 538.19 233.24 540.7 233.38 542.17 233.06 544.85 231.73 546.38 231.38 549.03 231.67 553.34 231.23 554.68 230.51 556.81 230.26 559.16 232.13 562.02 231.87 561.85 233.79 561.23 235.83 562.16 237.87 562.86 240.98 563.37 244.65 566.04 247.95 567.19 250.58 568.22 251.31 568.5 253.86 567.99 255.18 569 257.78 569.36 259.76 571.39 264.65 572.03 266.9 572.23 271.86 571.93 273.78 570.89 275.7 572.39 276.75 573.87 278.52 573.98 280.14 574.58 283.13 575.59 284.84 575.93 287.17 576.48 287.92 577.98 287.71 579.87 285.53 580.72 283.51 579.72 282.97 579.26 281.6 579.14 279.34 579.63 277.58 581.64 275.02 583.91 273.87 585.37 273.86 586.91 274.93 588.18 274.26 588.17 273.26 589.44 272.5 590.87 270.02 592.12 269.88 593.04 272.41 593.68 272.69 594.91 271.67 596.08 268.92 600.44 268.7 600.36 266.33 601.79 266.83 603.07 266.39 604.85 264.69 605.71 264.49 605.8 266.35 607.4 267.79 609.55 267.91 610.31 270.17 611.66 271.03 612.44 272.21 613.56 275.71 613.63 277.44 614.58 280.28 615.37 280.89 618.37 280.68 621.54 278.68 623.3 276.88 626.14 275.41 628.94 274.46 630.58 271.65 631.74 270.55 633.23 270.6 633.29 269.45 632.16 268.67 632.85 267.48 634.28 267.94 635.15 267.47 635.16 266.08 635.81 264.79 638.54 263.63 638.58 262.95 640.28 262.29 641.37 259.45 643.46 256.57 645.09 255.32 645.5 254.24 647.34 253.18 648.74 251.59 650.5 252.29 652.53 252.19 654.26 253.23 657.19 253.14 659.73 254.01 661.89 258.35 663.89 259.56 664.67 261.51 664.51 262.05 666.96 264.42 668.69 267.21 668.96 268.25 670.96 271.53 672.12 274.08 673.58 274.2 675.51 275.56 679.25 276.44 682.22 276.09 680.58 280.1 680.01 282.94 680.07 287.5 680.47 289.02 679.39 292.7 678.87 296.85 680.65 298.1 681.5 299.07 683.39 302.03 683.82 304.09 683.64 305.68 684 306.5 683.76 309.37 684.28 310.63 683.3 314.47 681.93 317.07 681.42 320.96 680.96 322.44 680.69 324.86 680.08 327.38 681.67 332.6 681.74 333.75 682.51 335.44 682.31 336.6 683.36 338.01 683.6 340.38 684.82 341.73 684.64 342.69 685.34 344.85 687.18 346.8 685.86 347.94 684.98 354.46 683.46 358.91 681.93 361.24 681.76 367.92 678.63 368.54 676.4 370.92 673.94 371.34 671.89 372.62 668.69 372.77 666.97 374.32 664.1 374.63 663.55 380.02 661.9 381.06 661.14 382.93 661.26 386.06 658.11 389.11 657.46 396.18 656.48 398.24 657.88 399.43 660.03 400 660.98 402.1 663.26 403.9 663.54 404.61 666.16 405.67 666.82 407.95 669.3 409 673.26 412.24 674.64 413.2 674.53 415 675.35 415.59 675.58 417.5 677.31 418.31 678.2 419.54 678.14 420.63 681.55 423.64 683.51 424.41 682.82 427.52 682.04 429.27 681.29 430.09 682.31 431.4 682.15 433.39 682.86 435.59 682.08 438.98 683.06 440.26 688.15 444.23 689.23 445.92 689.89 448.79 693.08 449.67 694.9 451.4 699.06 452.68 703.38 457.87 705.59 458 707.06 460.37 709.13 462.35 711.05 462.98 713.56 464.72 714.05 466.07 717.08 466.83 719.55 468.4 723.01 471.41 724.34 472.16 722.28 475.3 724.49 478.57 724.56 482.19 723.63 484.72 722.02 487.75 723.92 491.99 724.59 501.58 723.66 504.94 723.22 505.56 721.26 504.6 718.42 502.61 716.25 501.79 716.07 502.24 713.06 501.89 709.42 504.42 707.96 505.76 706.38 507.86 705.46 510.37 704.64 510.71 701.33 513.55 697.77 512.86 695.22 512.94 692.82 513.6 690.54 514.74 686.99 515.83 685.67 517.46 682.98 520 682.2 521.64 681.23 521.74 677.19 524.62 676.43 525.01 674.48 525.05 671.96 525.89 671.14 526.51 668.26 527.57 665.96 526.32 665.19 526.55 661.09 526.38 659.03 525.91 655.84 524.23 653.77 523.82 651.2 522.64 649.79 522.48 647.17 523.02 644.52 521.77 643.26 521.82 642.76 522.45 643.29 525.83 642.91 529.86 644.09 533.8 642.68 535.51 642.82 537.11 643.51 538.46 642.64 540.5 642.56 544.97 639.04 546.67 635.86 547.81 634.82 549.46 633.66 550.57 Z" id="32590320"/>
<path d="M 754.67 931.53 753.54 933.39 752.39 934 751.19 936.41 749.13 938.51 748.99 941.74 745.84 946.21 744.04 945.8 743.45 945.27 741.01 944.46 738.91 945.49 736.4 948.24 735.55 948.91 734.26 950.88 733.35 953.76 732.47 954.58 729.38 955.77 727.39 956.93 725.96 956.14 723.16 957.6 720.78 957.61 720.18 960.82 717.86 962.35 717.22 963.14 715.75 963.88 714.27 965.54 712.19 966 707.92 968.65 706.43 969.21 704.84 969.11 704.49 969.64 704.53 971.63 702.53 974.23 702.43 975.21 701.22 977.58 701.21 979.25 700.06 980.33 699.7 984.1 699.96 985.38 697.18 986.37 695.66 986.07 694.3 987.18 692.89 986.98 690.91 986.07 689.31 985.97 687.34 986.3 686.17 985.01 685.24 984.85 681.2 982.26 679.87 979.21 679.58 975.78 677.69 974.25 677.27 970.47 676.07 969.03 675.99 966.5 673.98 964.8 673.24 962.95 672.31 962.88 670.99 961.67 669.85 961.54 668.52 959.39 668.68 957.12 667.55 954.7 665.53 951.99 664.01 951.49 662.11 951.41 661.37 950.83 659.37 951.01 658.71 950.18 655.98 948.86 654.86 947.57 651.73 948.79 651.38 948.64 645.36 950.79 644.37 949.46 641 948.72 636.95 949.11 634.59 946.59 631.12 944.58 626.03 940.93 623.77 941.32 621.3 942.46 619.77 942.9 616.66 941.77 613.6 940.22 610.38 940.33 607.91 939.85 605.48 938.78 601.42 937.67 600.51 938.03 598.68 939.87 597.46 939.86 595.19 938.99 593.22 938.58 590.21 938.44 588.91 939.17 582.7 938.73 580.69 936.69 576.89 931.85 575.62 931.25 574.89 930.3 570.52 928.3 569.14 927.4 568.62 922.44 568.99 920.1 568.21 917.67 565.94 914.48 564.11 910.36 561.61 907.93 561.43 907.29 562.14 904.23 561.58 902.27 560.7 902.33 557.61 900.8 555.43 899.17 554.36 897.06 553.41 894.28 552.85 893.66 549.98 891.74 545.74 888.65 543.13 888.49 537.46 886.6 531.22 881.66 529.67 882.74 529.2 881.75 527.02 879.65 524.49 877.94 522.49 878.82 520.77 878.4 518.47 879.02 516.92 878.86 511.43 877.01 510.02 874.73 508.11 873.49 505.19 874.03 503.53 873.38 501.99 872.14 499.57 872.03 497.39 871.23 495.58 871.59 493.29 871.48 490.92 871.9 488.96 869.7 487.7 869.63 484.52 866.78 483.72 866.39 480.01 866.72 478.02 870.33 476.89 871.69 474.33 872.34 472.9 873.18 470.21 872.37 469.51 873.23 466.81 872.69 464.94 870.59 463.87 867.98 462.2 866.57 460.14 864.27 459.43 862.49 459.44 855.68 459.69 854.6 458.81 852.98 458.82 851.46 456.52 850.03 454.1 846.16 452.35 845 450.91 845.52 448.95 845.41 447.5 847.04 445.94 846.28 444.4 844.26 443.73 844.33 440.94 842.35 439.14 842.57 437.52 840.76 437.09 838.52 434.81 836.63 433.58 835.06 432.85 831.11 430.31 831.08 425.17 830.08 424.53 830.39 421.08 828.72 418.08 830.02 415.03 829.21 414.81 828.33 413.62 828.12 411.95 828.89 410.13 827.46 409.1 827.81 407.12 826.43 404.89 826.47 403.67 825.53 400.62 825.48 398.88 824.43 397.32 824.66 396.17 825.4 392.73 826 390.26 824.72 389 825.26 387.96 826.9 386.76 827.44 385.24 827.04 384.36 827.45 380.41 827.12 378.16 825.98 378.06 825.04 375.85 824.78 375.33 823.47 373.45 821.53 368.94 818.05 368.57 816.59 365.93 814.99 365.25 814 362.66 812.75 359.69 810.79 358.36 811.31 356.28 811.46 354.61 811.2 354.57 809.67 355.04 807.91 355.67 807.01 356.36 803.49 356.02 801.02 353.96 798.92 353.63 796.56 357.19 796.42 359.45 797.48 360.93 796.89 362.3 795.17 363.3 794.87 366.57 794.71 367.79 793.85 370.01 792.93 372.58 792.75 374.29 793.47 375.51 794.48 376.97 793.76 379 794.76 382.52 794.09 383.79 792.59 386.22 791.15 387.66 791.65 390.35 792.09 392.47 794.17 394.04 793.17 393.78 792.58 394.95 791.28 396.86 790.85 398.2 789.18 399.42 788.56 399.97 787.66 401.13 787.34 402.68 788.84 405.46 790.14 406.44 790.34 407 789.43 409.11 787.56 410.94 787.17 414.05 785.86 414.8 786.29 417.42 785.7 418.26 784.63 420.25 779.7 421.12 779.21 422.09 777.59 422.57 775.95 422.2 775.01 422.37 771.84 420.49 770.14 420.53 768.76 421.79 765.63 422.14 763.18 422.84 762.06 424.83 760.16 425.7 758.48 425.79 756.73 426.79 753.27 426.44 750.31 428.42 747.53 428.44 746 427.01 744.25 426.65 741.47 425.53 738.51 422.65 738.66 421.48 738.43 418.24 737.13 416.51 735.99 415.05 734.43 414.98 732.84 417.53 730.65 421.19 729.08 422.7 732.16 424.63 731.58 426.41 731.74 428.32 732.32 430.08 730.58 432.48 731.16 433.49 730.92 434.57 729.48 436.4 729.61 439.71 728.99 440.69 729.03 443.2 727.88 444.23 727.96 446.1 727.22 447.2 722.9 449.28 720.18 448.87 717.28 450.68 715.27 453.84 715.02 454.39 712.34 454.81 711.8 459.37 710.23 460.57 708.62 461.84 707.71 464.91 706.73 467.55 704.96 468.53 703.44 470.59 702.35 472.04 702.28 473.52 701.53 476.21 702.49 477.23 702.41 479.49 700.79 481.83 700.46 483.78 701.61 485.36 701.21 487.04 699.75 488.25 699.12 488.63 698.18 491.13 696.57 491.53 697.41 493.36 698.05 495.43 699.58 497.96 698.13 501.34 698.41 501.74 697.66 503.56 696.21 505.24 695.55 506.66 694.28 511.08 694.81 512.45 694.15 513.5 692.64 513.99 691.23 514.94 689.86 515.16 688.3 516.21 686.76 518.45 686.1 519.8 686.56 521.72 686.56 522.98 686.99 525.81 686.9 528.26 684.43 531.54 683.37 532.91 682.72 534.88 687.66 535.8 688.53 537.88 688.47 538.83 688.08 540.5 688.42 541.78 687 544.73 687.34 545.98 689.86 547.24 689.64 548.65 688.85 549.81 686.7 551.63 685.23 551.55 684.52 552.36 682.55 554.53 682.84 556.84 682.64 559.76 682.87 562.17 680.39 565.9 680.07 567.04 680.48 567.52 681.57 568.38 682.03 569.69 681.7 569.92 682.47 571.88 683.98 573.03 684.13 574.5 685.57 574.41 687.01 570.47 689.85 569.15 690.57 568.27 694.07 566.7 695.87 566.04 697.46 564.55 699.11 562.65 700.21 561.24 701.45 560.3 702.98 562.52 705.34 563.31 705.69 564.79 707.56 565.76 709.51 567.33 709.75 568.64 712.61 569.05 714.18 569.98 714.73 572.21 714.07 574.39 715.75 577.86 721 577.81 721.41 579.41 724.09 581.26 725.04 583.02 725.07 584.22 726.04 585.75 725.45 587.21 725.48 588.13 724.62 589.15 724.54 590.78 725.58 592.08 727.04 593.21 727.79 596.69 727.75 597.34 728.08 599.07 727.76 601.13 728.17 602.51 727.06 604.75 727.8 605.88 727.67 608.39 729.69 608.94 729.06 611.54 731 612.84 730.81 613.6 732.04 614.65 732.26 615.26 731.62 617.26 731.48 619.33 731.76 620.58 731.24 620.94 728.88 622.01 726.97 622.02 725.93 623.15 725.79 625.03 726.99 626.81 727.27 628.16 727.01 628.91 727.41 631.19 726.93 632.95 726.04 634.72 723.74 636.83 722.59 637.83 722.46 638.67 721.53 640.29 721.76 642.29 720.87 643.69 719.67 645.41 719.88 646.97 720.75 648.76 723.05 650.94 722.77 652.72 723.73 657.35 722.81 658.91 721.78 660.62 721.71 662.02 723.61 662.76 723.65 665.83 722.7 667.09 721.77 667.83 720.35 671.47 718.84 673.64 716.91 673.65 716.09 672.64 714.32 674.86 708.98 675.57 708.17 675.45 707.2 676.73 705.42 677.22 704.08 679.43 702.98 682.06 702.94 682.69 702.51 682.97 701.07 682.38 699.85 683.53 698.95 684.1 696.54 685.5 695.74 686.7 692.31 688.87 689.91 688.88 686.48 687.47 684.93 687.09 682.8 686.27 680.73 685.26 680.36 682.66 680.78 678.52 679.58 674.96 677.6 672.41 675.55 672.08 674.76 668.83 672.91 665.74 670.14 666.52 666.88 670.35 662.73 670.23 658.04 670.45 656.16 671.55 653.98 670.57 650.12 670.25 647.01 670.53 644.17 668.9 642.56 667.85 640.24 666.8 639.27 670.79 636.81 671.51 635.1 674.98 632.57 677.75 632.21 680.74 632.23 681.42 631.05 685.69 626.35 686.79 623.86 688.58 621.69 690.06 621.36 692 622.32 694.07 622.36 695.34 621.94 698.84 624.47 700.05 624.99 701.89 626.61 702.77 626.47 705.92 624.47 707.49 625.13 707.98 624.8 710.13 625.62 710.62 626.12 711.34 628.54 714.38 628.87 716.64 629.96 718.11 629.76 718.59 631.28 719.8 631.44 720.5 632.43 719.78 634.33 722.46 635.64 722.38 637.24 722.89 637.65 724.29 636.62 726.54 636.38 726.85 635.25 727.84 634.5 729.03 635.2 730.53 635.43 731.22 634.55 733.09 635.39 734.53 635.62 735.84 637.7 737.66 638.39 740.36 638.34 742.78 639.19 744.21 638.28 744.79 636.45 746 634.71 747.37 633.76 751.71 631.77 753.17 629.89 754.66 628.66 756.91 628.07 758.88 629.6 758.89 631.32 760.54 631.18 761.45 633.32 763.89 634.74 767.87 637.95 767.48 639.54 767.78 640.6 770.31 642.29 770.41 643.46 771.35 645.14 772.14 648.04 772.05 649.32 772.68 651.39 772.32 652.77 774.51 653.78 777.55 656.61 779.21 657.63 778.28 660.65 776.1 664.95 776.23 671.99 776.41 674.52 777.83 676.84 778.39 681.58 778.12 682.59 780.39 684.61 783.15 687.94 784.89 691.27 782.94 693.79 782.45 696.68 786.08 698.71 788.22 701.35 788.35 702.25 789.59 704.88 790.9 706.11 795.43 705.7 799 704.67 798.36 708.28 798.57 711.29 797.05 715.42 796.83 717.02 798.18 720 797.02 721.89 795.87 725.23 794.12 727.75 792.77 728.98 791.07 731.91 785.86 736.3 782.56 738.94 782.44 740.4 781.11 742.88 781.82 746.61 779.92 749.51 778.59 750.11 778.71 752.48 779.7 753.17 781.51 753.46 781.44 755.53 779.67 758.01 778.12 758.51 777.22 759.4 773.2 760.17 774.34 763.31 774.61 765.11 773.68 769.14 774.94 771.63 776.73 774.16 774 778.99 776.01 780.94 775.07 783.56 774.13 785.35 774.08 786.57 774.82 788.27 774.58 789.41 775.46 790.88 774.42 792.27 774.68 793.82 773.3 794.88 772.92 797.28 770.44 797.64 768.36 796.54 767.45 797.13 765.45 799.3 764.01 800.52 762.8 802.7 761.23 802.66 760.21 803.15 757.2 802.88 754.65 802.22 751.25 801.82 749.44 800.95 749.02 800.2 746.42 799.77 744.31 800.81 743.34 801.69 741.15 802.69 741.02 803.61 738.98 804.96 738.58 806.78 740.29 809.06 741.32 811.6 740.09 815.03 740.05 817.75 736.64 820.02 736.55 821.7 734.06 823.88 730.5 825.9 730.34 828.71 731.13 830.45 731.71 834.72 731.55 840.58 732.53 842.72 731.8 844.58 729.77 847.81 727.33 849.77 726.73 851.54 727.81 853.24 729.51 855.08 730.24 857.16 730.9 857.33 732.37 859.31 734.19 860.26 734.93 861.55 736.41 862.91 736.61 863.97 737.74 864.85 738.26 866.18 740.58 868.72 742 868.17 742.68 869.24 744.31 870.48 744.7 874.02 746.24 875.89 746.48 877.61 744.67 879.59 744.53 881.29 745.77 883.5 744.98 885.26 744.89 891.57 744.28 892.9 744.42 894.96 745.49 897.14 744.72 898.14 744.37 900.55 745.48 903.48 745.4 904.45 746.11 906.29 745.34 908 744.16 912.34 744.36 913.94 742.65 916.43 742.89 918.55 744.17 919.45 745.74 921.3 746.82 923.95 747.72 925.01 752.44 927 754.76 927.6 755.14 928.46 754.67 931.53 Z" id="32590330"/>
</g>
</svg>