<?xml version="1.0"?>
<svg xmlns="http://www.w3.org/2000/svg" version="1.2" baseProfile="tiny" width="800" height="1191" viewBox="0 0 800 1191" stroke-linecap="round" stroke-linejoin="round">
<g id="dong">
<path d="M 552.6 589.21 553.81 592.85 557.03 590.65 561.1 593.53 562.39 595.24 563.51 594.8 565.39 598.17 570.79 604.51 572.14 606.73 575.11 610.08 577.89 614 581.36 617.97 585.18 622.88 586.87 625.55 590.76 629.41 594.66 635.51 592.83 636.45 593.52 637.85 591.14 638.6 585.97 639.33 583.6 638.49 579.09 640.41 575.97 644.27 572.9 647.47 567.32 648.67 567.14 648.8 569.21 649.26 565 652.7 564.2 654.77 562.55 656.82 560.43 662.9 561.65 666.74 562.19 671.04 563.29 671.84 566.69 676.58 566.76 679.32 564.59 681.38 561.76 682.39 553.33 682.6 551.61 684.35 549.74 687.95 549.09 692.71 549.5 694.32 551.79 696.52 553.88 696.48 555 698.12 555.29 700.17 560.36 701.31 562.95 698.13 566 698.59 569.25 697.78 572.7 698.86 574.61 696.57 577.41 695.84 579.26 698.91 578.01 701.79 579.08 704.55 579.98 705.39 581.79 709.1 580.76 710.74 578.09 710.9 575.85 712.43 572.85 716.15 570.38 717.91 571.6 719.82 569.15 722.94 566.91 723.45 567.44 725.85 568.63 726.4 568.5 730.73 571.18 731.65 571.52 733.12 573.17 735.29 575.24 736.51 576.48 738.02 576.27 741.9 577.75 742.96 577.81 745.69 577.05 748.92 577.04 753.34 576.18 754.28 573.65 760.3 572.62 761.49 571.9 764.4 569.07 767.33 568.82 770.1 567.57 771.19 564.44 770.29 563.37 774.88 563.89 775.94 562.49 781.4 560.67 782.69 560.92 784.44 562.18 786.09 556.18 785.74 553.89 785.13 550.5 785.74 546.38 784.84 542.48 781.22 538.73 781.04 537.38 780.28 533.02 780.46 529.76 781.53 527.04 780.88 523.66 783.48 521.48 782.9 519.26 786.29 519.47 788.45 515.65 787.21 513.67 785.47 512.83 783.79 509.82 783.05 508.36 783.72 508.33 786.62 503.33 791.41 500.11 796.35 497.71 798.49 496.94 801.19 496.94 803.83 494.82 806.85 493.8 809.14 491.26 811.06 492.57 818.87 492.52 822.64 491.6 824.12 490.7 828.19 492.5 831.49 482.78 828.9 479.21 828.44 477.28 829.18 472.73 828.54 471.42 831.79 471.42 835.31 469.8 838.09 468.64 843.23 469.51 846.32 466.39 848.37 465.2 851.37 463.05 853.31 464.03 856.84 461.98 859.74 462.37 864.53 464.05 868.05 463.41 874.25 464.36 876.37 463.34 878.83 463.93 880.19 463.27 883 462.28 884.31 463.37 891.43 461.1 894.01 460.55 895.88 458.92 898.82 457.03 903.59 456.35 906.38 452.84 906.54 450.57 907.2 447.57 907.21 443.33 909.47 439.71 910.04 436.38 909.76 431.77 912.32 431.01 913.72 428.78 914.67 425.43 917.58 423.54 918.42 422.55 919.73 420.09 921.1 417.53 923.7 412.52 927.38 408.85 929.11 406.58 931.37 405.22 931.97 403.13 931.18 401.43 934.41 399.2 937.33 399.44 938.92 398.04 942.1 398.25 944.52 396.91 949.28 395.59 952.76 394.97 958.11 393.39 962.46 391.37 964.3 390.2 964.58 387.98 967.19 386.5 968.17 386.18 969.9 386.69 975.03 387.57 978.17 387.17 979.5 388.37 981.09 391.48 987.61 393.47 987.33 393.81 986.18 396.42 982.49 399.38 980.63 403.6 981.31 406.44 981.08 408.54 979.01 410.83 978.16 418.07 984.07 420.39 987.13 419.9 992.89 422.26 998.68 425.11 1000.52 428.2 1004.12 426.12 1006.48 423.39 1008.05 422.78 1009.66 420.36 1011.52 417.26 1015.79 415.64 1020 413.11 1020.98 413.05 1021.99 408.99 1023.71 408.03 1025.63 408.02 1027.7 406.73 1028.39 404.6 1027.72 403.58 1029.48 405.26 1030.64 405.17 1032.34 402.95 1032.27 401.23 1033.9 398.79 1038.07 394.64 1039.49 390.42 1041.67 387.79 1044.34 383.09 1047.32 378.64 1047.62 377.47 1046.72 376.06 1042.51 375.94 1039.93 374.28 1034.74 373.13 1032.99 371.12 1031.71 369.98 1028.36 366.79 1028.17 364.42 1026.04 364.28 1023.28 363.02 1023.57 360.37 1026.09 358.46 1026.75 356.34 1026 356.46 1029.53 349.98 1029.86 348.25 1033.94 346.41 1035.45 345.47 1035.03 344.09 1031.28 342.24 1031.48 340.12 1035.16 338.23 1036.29 338.25 1037.78 336.37 1038.77 334.07 1037.18 331.9 1037.2 328.53 1038.9 325.55 1042.71 324.82 1045.33 325 1048.68 325.69 1050.72 327.16 1051.51 325.91 1054.51 323.09 1057.76 320.87 1058.06 320.06 1056.95 319.54 1053.5 318.05 1050.95 317.15 1046.51 316.99 1044.1 314.8 1041.47 312.57 1039.91 314.12 1037.07 314.55 1034.21 314.26 1026.85 313.3 1023.51 310.29 1016.25 309.76 1013.32 308.26 1009.45 309.02 1007.49 308.6 1003.7 307.07 1002.62 305.36 998.71 301.4 993.81 300.63 988.36 299.6 983.75 298.21 980.72 299.14 977.69 299.4 974.84 295.15 975.23 291.65 972.45 288.49 972.82 286.5 973.89 280.09 974.54 276.16 974.11 273.88 974.63 269.9 976.61 267.72 977.08 263.99 976.88 261.98 977.27 258.72 975.93 257.45 978.06 254.74 980.17 250.48 982.73 247.84 982.19 244.14 980.8 242.52 981.2 241.17 980.07 240.02 977.26 237.93 976.49 233.12 976.42 229.24 974.43 226.37 973.77 222.23 974.28 217.57 973.72 215.43 973.88 212.52 975.13 210.98 975.04 209.43 971.06 207.59 963.35 208.58 959.17 207.86 955.27 208.55 949.93 210.8 941.96 211.95 935.72 210.89 932.2 210.96 927.79 210.09 925.62 210.41 924.51 209.22 919.65 209.19 914.45 210.15 912.08 211.59 910.25 213.05 909.46 214.9 905.43 214.69 902.49 214.88 897.16 214.75 893.5 213.84 887.41 212.11 884.35 212.32 879.35 210.09 877.32 205.51 875.72 201.97 875.08 200.48 873.9 199.91 872.4 200.07 868 199.01 866.42 198.33 863.53 198.17 860.1 197.52 859.5 198.64 857.14 198.7 852.21 194.99 847.09 194.55 845.33 192.39 841.8 192.44 836.99 190.72 831.88 189.37 830.37 188.55 824.85 187.73 823.52 185.36 821.5 185.91 818.37 187.68 814.35 188.1 810.24 189.26 806.39 190.16 805.1 190.61 800.72 190.33 797.39 192.69 794.69 195.68 794.32 202.65 790.44 204.13 787.95 206.54 785.46 203.7 781.82 203.95 780.79 203.35 775.81 204.33 773.36 203.98 768.71 205.29 766.23 207.84 763.13 206.27 759.84 205.33 755.71 203.78 752.57 203.78 751.2 205.51 749.23 209.19 747.22 212.29 743.78 214.7 742.03 215.82 740.05 218.22 737.39 219.5 735.1 223.73 734.76 224.64 733.83 227.77 732.74 230.68 728.64 232.08 727.4 232.96 724.08 235.64 721.72 237.43 718.54 235.99 717.18 235.43 712.13 236.15 710.22 239.02 708.72 242.41 704.82 242.18 702.92 243.34 698.66 242.62 697.16 242.48 694.46 243.73 690.27 243.05 687.98 241.61 685.58 238.7 682.11 237.83 679.54 235.78 677.58 233.39 672.8 235.25 667.85 235.13 666.02 235.79 662.67 236.72 660.69 237.4 656.91 237.01 655.71 237.44 652.8 238.28 651.78 240.91 650.8 242.72 649.2 244.6 646.25 246.77 641.77 248.82 636.63 249.51 634.11 251.49 631.64 254.68 630.07 257.14 627.42 259.85 625.19 262.25 624.71 263.8 623.76 265.03 621.15 266.62 616.18 266.06 613.12 267.7 605.68 270.22 599.65 269.8 599.28 272.59 597.87 275.99 598.95 281.03 598.97 282.62 600.43 289.03 602.23 294.17 602.95 296.13 605.41 298.6 605.58 301.55 604.66 304.74 606.2 306.36 606.44 309.2 605.26 313.92 605.93 315.45 605.26 318.33 607.17 320.62 606.07 323.85 606.16 325.24 607.67 327.89 608.48 329.96 607.07 334.98 605.95 336.94 606.15 338.72 604.06 343.57 603.02 345.87 606.2 347.76 605.29 351.06 606.14 352.8 602.86 356.48 601.04 359.28 601.26 361.2 600.17 361.41 597.19 364.77 593.85 367.94 592.35 369.19 591.15 368.84 588.54 366.5 585.88 367.6 582.6 367.05 581.47 368.93 578.95 369.06 576.52 371.37 572.44 375.34 570.46 373.93 566.98 382.05 563.7 383.82 558.01 385.22 559.68 386.04 561.95 387.6 563.58 388.09 565.73 389.67 569.48 392.35 572.02 395.28 573.6 397.09 576.31 399.61 578.68 399.52 580.95 401.85 582.79 406.28 588.26 408.59 590.6 410.63 590.71 414.22 592.93 414.87 591.56 416.52 591.08 417.89 591.8 419.55 590.74 425 591.23 427.73 594.16 429.79 595.64 428.36 597.15 429.71 601.64 431.59 603.95 430.49 607.68 434.3 609.37 438.47 610.37 438.86 611.78 438.25 614.65 441.82 614.64 443.28 612.48 447.06 612.67 449.48 614.45 450.38 618.72 451.72 619.04 449.42 622.26 445.88 622.58 446.17 623.7 448.27 625.84 450.41 625.15 452.65 626.82 455.96 624.71 459.84 626.75 462.36 626.53 466.27 623.42 469.68 624.46 472.49 626.64 473.95 626.39 475.62 627.17 480.68 627.61 491.76 622.55 492.05 626.16 496.32 628.81 498.54 632.03 500.58 632.24 499.86 635.93 500.46 638.6 503.72 638.19 506.61 637.35 508.8 638.03 513.28 634.89 518.51 632.85 523.23 628.34 523.74 625.9 523.39 622.97 522.49 619.92 523.19 614.94 525.48 608.44 526.36 604.53 528.34 602.45 532.79 599.63 536.43 598.54 538.97 597.38 542.63 594.63 544.79 591.56 550.32 589.28 552.6 589.21 Z" id="32600110"/>
<path d="M 478.26 351.64 477.44 354.68 478.65 356.98 474.86 357.38 474.75 353.79 476.61 351.93 478.26 351.64 Z M 428.89 283.74 429.91 284.84 427.52 286.91 426.15 286.39 427.77 284.26 428.89 283.74 Z M 398.5 148.38 395.57 148.67 395.37 147.78 396.52 144.17 398.01 144.55 399.03 147.07 398.5 148.38 Z M 463.79 373.36 456.69 375.66 459.21 380.46 459.94 388.31 461.07 391.37 465.94 394.02 467.38 398.94 462.07 404.95 456.89 409.11 453.16 417.75 444.77 418.27 443.42 419.33 439.69 423.46 436.5 425.89 432.82 427.4 430.52 427.13 426.48 430.09 424.13 435.66 419.39 438.62 417.3 436.39 414.24 435.09 414.01 433.42 412.3 432.98 410.45 431.51 406.2 430.26 402 425 397.74 423.41 396.1 422.4 394.62 420.29 394.93 418.28 392.5 413.27 390.82 412.87 383.52 412.69 379.59 409.88 371.47 406.52 370.93 404.83 369.7 404.89 367.34 403.72 365.02 399.49 364.78 396.73 361.15 393.33 357.4 393.38 355.25 394.03 351.23 391.3 339.43 391.23 336.24 390.92 329.96 391.19 326.34 389.58 323.82 389.67 321.93 390.46 319.67 393.13 318.33 397.93 312.78 404.45 310.11 406.33 306.84 410.29 303.89 411.23 296.74 414.87 294.81 416.88 291.32 416.28 283.99 418.86 281.7 413.65 282.66 411.64 280.38 407.32 278.87 405.09 279.12 403.46 277.97 402.51 277.58 399.99 276.26 398.97 274.2 396.12 272.24 394.82 270.76 392.74 269.13 392.64 266.21 391.05 264.13 390.52 260.89 388.5 259.89 386.28 256.78 384.71 254.69 384.92 251.83 383.79 248.14 383.1 246.68 383.74 243.49 381.33 246.43 378.79 247.36 372.19 247.21 365.84 248.51 363.45 248.18 361.2 248.72 360.04 248.59 356.9 249.5 355.09 247.87 353.81 246.2 346.82 246.92 344.42 246.75 342.92 251.12 338.14 255.42 336 256 334.07 255.33 332.87 255.81 328.2 257.74 325.39 257.62 321.29 259.59 317.79 259.45 316.53 256.86 314.3 252.94 313.72 253.45 312.48 251.93 307.2 249.03 305.65 248.58 304.2 248.91 295.58 248.08 294.39 248.79 289.89 248.34 287.12 246.82 285.55 247.24 282.89 246.29 282.18 245.67 279.67 243.64 277.28 243.96 275.03 242.72 273.51 241.93 269.24 240.79 265.83 239.19 262.77 237.13 261.67 235.06 256.8 236.24 253.55 234.94 250.85 234.6 247.2 236.53 246.13 238.14 243.33 241.24 242.43 242.34 239.77 245.6 238.05 245.65 236.92 248.83 234.81 249.95 226.3 249.96 219.34 252.83 218.6 253.14 217.64 255.96 218.08 257.84 217.01 260.14 217.08 260.44 215.06 262.11 211.56 263.98 211.51 263.92 208.84 262.5 205.12 260.85 203.45 259.43 196.9 258.85 192.8 260.86 189.49 260.32 184.7 259.11 182.38 258.1 179.19 257.9 170.31 260.07 169.35 261.47 167.13 261.9 165.13 261.26 163.91 263.27 161.26 263.96 157.93 263.73 156.27 262.59 155.03 260.59 149.74 256.47 143.71 253.25 142.27 252.74 141.31 252.29 134.01 246.39 121.2 249.14 118.64 250.57 116.58 249.1 112.28 249.56 109.97 254.46 106.22 255.53 104.7 253.59 100.6 248.99 96.75 246.84 93.03 246.58 81.19 249.82 73.12 245.42 75.22 238.08 72.87 234.52 67.63 231.05 65.2 232.57 54.98 230.91 51.55 231.06 48.74 228.78 43.25 227.66 42.09 226.4 37.09 225.55 36.23 230.43 34.67 233.32 34.61 236.76 35.2 236.01 32.13 239.16 32.23 239.44 28.46 241.9 22.54 246.1 14.56 248.14 11.31 253.15 8.15 256.96 7.13 263.79 6.59 269.23 6.63 271.87 5.67 271.45 4.56 273.95 3.81 274.69 2.87 278.49 1 280.61 1.52 282.71 5.9 284.33 8.04 285.7 13.31 287.2 15.81 285.7 16.67 288.84 22.66 287.17 25.49 288.99 27.71 291.77 28.74 295.69 31.62 298.45 31.24 299.62 32.19 299.96 34.69 299.17 36.61 300.08 39.04 301.83 41.92 302.01 44.14 305.1 47.49 304.04 47.94 306.88 53.42 305.73 55.04 307.77 57.15 309.31 57.36 314.01 65.03 315.58 66.24 319.02 70.03 326.19 74.95 327.17 76.49 329.05 81.34 331.08 85.61 334.06 89.69 335.92 90.39 338.25 93.34 338.44 94.24 345.45 102.66 347.24 105.6 349.48 106.33 353.38 111.58 356.87 114.45 359.5 115.38 361.16 115.16 363 112.79 364.12 114.73 362.92 116.31 364.24 120.97 364.34 123.87 362.61 125.25 365.99 127.77 367.01 127.91 369.97 132.27 373.16 134.48 378.85 135.98 379.93 135.27 380.64 133.31 381.98 132.24 383.25 134.18 383.37 137.26 384.32 144.45 384.17 146.38 385.04 150.06 386.78 151.76 390.92 152.46 389.03 154.13 387.47 154.08 386.34 155.87 387.43 162.65 388.47 163.31 392.06 164.03 394.3 163.82 395.55 162.65 396.32 160.62 398.72 159.98 400.73 160.98 401.06 163.9 399.14 166.99 398.84 170.22 401.38 172.19 399.11 174.65 398.24 176.35 396.43 175.05 394.17 174.79 393.53 175.87 394.5 179.62 398.18 182.26 399.57 185.9 397.51 184.81 396.14 185.11 395.52 188.15 394.23 189.54 391.41 189.87 388.61 191.28 388.24 192.94 390.02 194.88 390.7 200.25 392.88 202.9 393.38 205.19 395.32 207.25 398.19 209.05 400.29 211.25 403.02 216.69 403.23 217.86 404.93 219.43 405.18 221.52 403.59 223.6 404.43 229.2 404.05 230.14 406.11 232.08 407.97 232.22 409.31 234.57 410.96 235.55 415.35 234.96 415.01 241.38 415.35 243.89 416.4 245.13 416.98 248.53 419.56 251.38 423.27 251.53 424.7 252.29 428.72 250.93 431.08 253.02 428.79 254.62 429.45 258.23 428.8 259.97 424.72 260.44 422.21 258.66 418.86 259.8 416.63 262.96 417.35 264.39 421.04 266.52 420.29 269.43 421.15 274.24 423.66 276.26 424.43 277.67 421.99 279.06 420.23 279.27 419.34 280.78 419.56 284.1 421.83 286.93 425.16 287.96 425.26 289.25 423.42 292.21 425.18 298.99 427.31 300.58 428.71 302.68 432.58 305.41 437.7 306.37 442.19 305.12 444.47 305.46 442.91 308.3 442.89 310.05 438.55 310.47 437.84 312.81 434 313.12 433.23 316.44 434.72 318.53 437.3 318.96 437.69 321.46 440 324.07 444.77 326.98 444.55 331.29 443.49 332.83 442.93 335.1 444.02 338.92 445.96 342.82 451.25 348.97 454.85 352.11 458.52 353.44 462.03 351.52 464.52 351.98 465.28 353.92 464.13 354.84 465.94 358.45 466.02 359.69 463.83 363.18 464.21 365.74 462.51 368.01 462.4 369.77 463.79 373.36 Z" fill-rule="evenodd" id="32600310"/>
<path d="M 680.54 769.67 682.06 771.97 687.04 775.02 686.9 777.05 682.98 777.01 678.84 774.55 677.04 772.95 677.19 771.02 679.84 768.8 680.54 769.67 Z M 713.13 892.28 705.84 886.4 703.61 883.47 703.12 881.99 695.85 883.62 686.67 887.59 679.05 889.71 675.96 890.21 672.38 891.76 671.16 891.38 671.59 888.58 668.21 887.85 665.28 887.72 662.35 880.21 661.73 879.22 659.32 879.38 655.4 880.33 653.36 879.88 652.83 873.21 648.32 873.61 647.17 874.07 645.75 873.1 648.44 871.68 649.26 870.48 645.35 868.45 642.3 865.91 638.21 865.24 631.31 867.68 628.11 866.85 625.88 866.99 622.41 869.23 624.82 872.9 624.28 874.66 623.06 875.49 620.53 875.98 618.71 878.46 615.11 878.91 613.61 878.09 613.3 876.65 611.65 875.33 605.06 878.36 602.21 877.72 599.02 878.97 596.8 879.09 594.32 880.15 590.35 878.88 588.89 876.74 585.78 880.55 584.04 881.05 581.42 883.44 579.44 884.69 578.3 887.24 575.83 890.03 570.19 892.91 566.76 892.89 564.5 894.8 561.77 894.18 554.05 891.31 550.84 892.6 550.16 893.58 547.37 893.72 546.27 894.83 543.07 894.92 539.74 894.48 539.54 896.16 535.9 897.32 532.08 896.96 530.64 896.44 527.21 893.76 525.56 892.93 522.21 896.05 517.55 898.78 516.12 901.5 515.89 904.17 515.12 906.58 513.81 908.05 511.28 909.49 509.39 911.61 507.23 912.92 504.91 915.11 501.96 918.97 499.65 920.78 497.84 918.91 494.62 917.02 492.89 917.34 489.75 916.41 487.78 917.38 485.33 917.46 481.14 916.1 478.02 916.82 474.82 916.61 472.67 915.2 469.84 915.15 468.21 913.96 465.49 913.13 461.3 909.44 459.14 907.13 456.35 906.38 457.03 903.59 458.92 898.82 460.55 895.88 461.1 894.01 463.37 891.43 462.28 884.31 463.27 883 463.93 880.19 463.34 878.83 464.36 876.37 463.41 874.25 464.05 868.05 462.37 864.53 461.98 859.74 464.03 856.84 463.05 853.31 465.2 851.37 466.39 848.37 469.51 846.32 468.64 843.23 469.8 838.09 471.42 835.31 471.42 831.79 472.73 828.54 477.28 829.18 479.21 828.44 482.78 828.9 492.5 831.49 490.7 828.19 491.6 824.12 492.52 822.64 492.57 818.87 491.26 811.06 493.8 809.14 494.82 806.85 496.94 803.83 496.94 801.19 497.71 798.49 500.11 796.35 503.33 791.41 508.33 786.62 508.36 783.72 509.82 783.05 512.83 783.79 513.67 785.47 515.65 787.21 519.47 788.45 519.26 786.29 521.48 782.9 523.66 783.48 527.04 780.88 529.76 781.53 533.02 780.46 537.38 780.28 538.73 781.04 542.48 781.22 546.38 784.84 550.5 785.74 553.89 785.13 556.18 785.74 562.18 786.09 560.92 784.44 560.67 782.69 562.49 781.4 563.89 775.94 563.37 774.88 564.44 770.29 567.57 771.19 568.82 770.1 569.07 767.33 571.9 764.4 572.62 761.49 573.65 760.3 576.18 754.28 577.04 753.34 577.05 748.92 577.81 745.69 577.75 742.96 576.27 741.9 576.48 738.02 575.24 736.51 573.17 735.29 571.52 733.12 571.18 731.65 568.5 730.73 568.63 726.4 567.44 725.85 566.91 723.45 569.15 722.94 571.6 719.82 570.38 717.91 572.85 716.15 575.85 712.43 578.09 710.9 580.76 710.74 581.79 709.1 579.98 705.39 579.08 704.55 578.01 701.79 579.26 698.91 577.41 695.84 574.61 696.57 572.7 698.86 569.25 697.78 566 698.59 562.95 698.13 560.36 701.31 555.29 700.17 555 698.12 553.88 696.48 551.79 696.52 549.5 694.32 549.09 692.71 549.74 687.95 551.61 684.35 553.33 682.6 561.76 682.39 564.59 681.38 566.76 679.32 566.69 676.58 563.29 671.84 562.19 671.04 561.65 666.74 560.43 662.9 562.55 656.82 564.2 654.77 565 652.7 569.21 649.26 567.14 648.8 567.32 648.67 572.9 647.47 575.97 644.27 579.09 640.41 583.6 638.49 585.97 639.33 591.14 638.6 593.52 637.85 592.83 636.45 594.66 635.51 598.04 638.58 600.41 642.07 605.65 647.96 607.94 651.17 611.32 654.98 613 657.58 615.63 660.47 618.97 662.63 619.58 662.18 624.81 663.53 623.83 665.17 625.02 668.58 626.75 669.8 629.6 669.16 631.43 670.82 632.13 673.54 630.4 675.18 629.18 678.05 631.02 678.4 633.53 681.5 635.58 681.84 635.21 684.32 633.92 683.95 632.65 688.67 631.96 688.6 633.29 683.51 631 683.09 628.83 685.69 628.26 687.75 626.67 687.06 623.08 690.21 621.55 693.12 620.91 695.95 621.35 699.87 622.14 703.52 624.2 708.13 625.92 711.06 626.93 713.68 629.26 716.28 631.94 717.12 633.73 716.66 635.3 719.06 639.5 723.48 638.86 723.73 634.72 719.28 630.94 722.61 630.96 724.6 634 724.53 636.67 725.65 635.03 727.29 633.2 730.69 632.85 734.9 634.31 741.32 639.01 749.17 642.35 753.8 644.71 756.58 651.86 766.09 659.14 773.05 662.51 775.93 666.17 777.82 668.67 778.62 670.58 780.15 669.48 784.76 668.99 790.56 670.35 794.06 672.2 793.46 673.84 794.2 675.18 795.73 673.15 798.23 672.38 797.46 669.97 798.04 671.41 800.77 669.15 804.36 668.66 806.46 669.47 811.6 671.4 814.57 674.86 816.35 676.17 818.43 679.65 820.42 680.26 822.82 682.21 825.5 687.55 831.63 693.05 836.52 698.03 839.74 700.76 840.87 702.06 840.06 705.61 841.76 705.18 844.26 703.09 847.08 703.05 849.9 704.12 853.44 706.37 853.71 712.52 855.78 713.68 855.81 713.93 858.52 716.35 861.03 717.38 860.65 720.94 861.93 719.03 864.52 715.84 863.64 714.94 864.84 717.57 866.4 715.41 867.35 712.81 870.31 712.11 872.08 711.87 875.31 713.06 879.28 715.73 881.46 718.19 880.64 721.96 882.73 721.18 884.56 719.45 883.06 714.64 888.18 713.13 892.28 Z" fill-rule="evenodd" id="32600320"/>
<path d="M 787.4 996.1 788.66 997.67 786.46 1000.96 784.66 1000.95 784.26 997.95 787.4 996.1 Z M 735.98 907.9 736.91 907.85 737.8 910.81 735.15 909.9 735.98 907.9 Z M 713.13 892.28 712.48 895.36 712.9 898.09 714.23 900.41 716.45 902.73 715.7 903.75 715.09 906.65 716.6 911.21 720.65 915.89 721.85 915.83 723.09 918.19 725.02 920.47 726.21 924.62 728.21 925.96 726.57 932.22 727.45 938.73 728.32 941.99 729.7 941.76 734.15 942.48 734.98 944.15 739.69 945.4 740.61 948.33 742.58 952.66 741.29 952.59 739.52 949.24 738.93 946.38 734.08 944.78 732.74 946.68 735.99 947.66 735.84 950.07 734.28 950.39 731.99 952.34 733.79 953.66 737 953.25 738.02 951.36 739.47 952.41 736.9 956.03 735.83 956.93 736.08 958.56 735.27 960.9 736.81 965.13 738.57 966.16 742.4 967.19 742.28 970.07 740.15 971.14 739.79 974.61 740.64 978.16 742.69 980.36 744.78 980.54 745.72 982.57 743.78 984.55 742.63 986.88 743.85 990.94 748.12 996.66 752.44 1001.31 754.75 1003.11 756.13 1003.26 757.56 1004.87 759.82 1004.06 761.84 1004.38 761.88 1005.97 759.6 1006.37 759.92 1009.33 761.02 1009.29 760.76 1011.99 761.46 1013.04 763.1 1012.89 764.93 1015.05 767.37 1014.08 770.18 1024.26 771.64 1027.26 775.54 1033.27 776.91 1033.27 777.08 1035.35 781.41 1041.28 783.54 1045.17 791.93 1055.9 795 1059.26 799 1064.63 798.95 1068.73 798.02 1070.41 795.57 1069.14 793.86 1069.44 793.15 1072.41 790.29 1072.93 788.97 1073.87 788.3 1076.33 786.65 1077.62 787.08 1079.96 784.81 1082.98 779.65 1086.14 778.87 1087.88 775.99 1090.17 771.84 1091.57 770.57 1090.68 766.99 1091.62 763.98 1092.93 762.54 1095.02 760.64 1095.25 758.5 1094.25 755.64 1094.41 753.94 1093.61 751.81 1094.07 747.13 1093 743.98 1094.97 743.45 1096.18 740.29 1097.15 737.37 1096.87 736.62 1099.27 734.69 1101.43 732.38 1102.26 730.95 1101.22 728.02 1103.07 724.67 1102.64 722.41 1101.67 718.51 1103.6 717.71 1102.94 714.5 1105.05 709.4 1105.91 708.05 1104.36 706.02 1104.43 702.83 1103.33 700.65 1103.36 697.11 1104.55 695.12 1103.92 692.09 1106.75 689.63 1108.01 686.57 1108.4 683.76 1111.09 683.2 1112.43 679.8 1114.66 679.72 1117.67 676.87 1121.3 673.56 1123.45 670.69 1124.68 666.98 1128.09 664.97 1128.93 661.59 1131.74 657.41 1132.52 654.69 1131.82 648.78 1133.96 645.76 1134.12 643.43 1131.71 639.34 1133.06 636.19 1137.16 634.78 1137.78 631.93 1140.46 627.82 1142.71 621.71 1143.86 615.88 1144.69 614.3 1146.47 611.1 1147.71 610.04 1151.73 609.13 1153.32 609.34 1156.39 608.3 1157.68 608.03 1159.74 605.7 1160.87 601.58 1165.83 600.4 1164.88 598.2 1164.57 595.62 1166.18 594.93 1167.8 592.91 1170.34 591.93 1172.44 590.52 1173.76 587.89 1180.16 586.51 1181.94 583.76 1183.74 583.66 1185.08 582.35 1186.5 579.3 1188.09 575.19 1187.96 572.82 1188.64 571.75 1190 568.87 1189.75 567.77 1188.43 564.91 1187.5 563.03 1185.79 560.9 1180.11 562.66 1174.83 560.88 1173.62 557.36 1172.36 554.77 1169.59 546.92 1165.13 542.25 1161.57 539.25 1158.93 536.03 1162.29 534.59 1161.73 532.48 1163.26 530.42 1163.76 527.72 1163.15 524.42 1161.48 519.53 1162.25 517.65 1161.08 515.34 1160.43 512.38 1160.74 511.69 1159.59 506.89 1158.34 500.11 1154.09 493.33 1146.81 489.62 1145.8 485.31 1145.48 482.57 1142.59 481.53 1139.38 481.79 1137.96 479.98 1135.95 479.62 1132.44 478.07 1130.34 478.37 1128.62 477.22 1126.11 477.12 1124.4 474.76 1116.66 475.66 1112.91 476.06 1109.32 476.75 1107.12 477.5 1101.34 479.53 1097.48 480.99 1091.78 480.23 1089.91 480.59 1085.65 480.04 1084.44 480.32 1082.08 479.67 1079.01 476.87 1074.62 475.6 1073.18 472.95 1071.32 473.73 1065.16 475.34 1059.7 474.74 1057.44 474.66 1050.67 475.51 1046.45 477.94 1040.5 473.52 1041.02 467.97 1039.71 465.1 1037.68 462.93 1037.51 461.21 1033.72 458.25 1028.86 457.84 1027.32 455.26 1023.18 451.62 1019.65 451.87 1018.85 450.7 1015.95 447.74 1014.16 444.53 1007.71 440.76 1006.42 436.41 1006.56 433.83 1005.01 430.82 1005.16 428.2 1004.12 425.11 1000.52 422.26 998.68 419.9 992.89 420.39 987.13 418.07 984.07 410.83 978.16 408.54 979.01 406.44 981.08 403.6 981.31 399.38 980.63 396.42 982.49 393.81 986.18 393.47 987.33 391.48 987.61 388.37 981.09 387.17 979.5 387.57 978.17 386.69 975.03 386.18 969.9 386.5 968.17 387.98 967.19 390.2 964.58 391.37 964.3 393.39 962.46 394.97 958.11 395.59 952.76 396.91 949.28 398.25 944.52 398.04 942.1 399.44 938.92 399.2 937.33 401.43 934.41 403.13 931.18 405.22 931.97 406.58 931.37 408.85 929.11 412.52 927.38 417.53 923.7 420.09 921.1 422.55 919.73 423.54 918.42 425.43 917.58 428.78 914.67 431.01 913.72 431.77 912.32 436.38 909.76 439.71 910.04 443.33 909.47 447.57 907.21 450.57 907.2 452.84 906.54 456.35 906.38 459.14 907.13 461.3 909.44 465.49 913.13 468.21 913.96 469.84 915.15 472.67 915.2 474.82 916.61 478.02 916.82 481.14 916.1 485.33 917.46 487.78 917.38 489.75 916.41 492.89 917.34 494.62 917.02 497.84 918.91 499.65 920.78 501.96 918.97 504.91 915.11 507.23 912.92 509.39 911.61 511.28 909.49 513.81 908.05 515.12 906.58 515.89 904.17 516.12 901.5 517.55 898.78 522.21 896.05 525.56 892.93 527.21 893.76 530.64 896.44 532.08 896.96 535.9 897.32 539.54 896.16 539.74 894.48 543.07 894.92 546.27 894.83 547.37 893.72 550.16 893.58 550.84 892.6 554.05 891.31 561.77 894.18 564.5 894.8 566.76 892.89 570.19 892.91 575.83 890.03 578.3 887.24 579.44 884.69 581.42 883.44 584.04 881.05 585.78 880.55 588.89 876.74 590.35 878.88 594.32 880.15 596.8 879.09 599.02 878.97 602.21 877.72 605.06 878.36 611.65 875.33 613.3 876.65 613.61 878.09 615.11 878.91 618.71 878.46 620.53 875.98 623.06 875.49 624.28 874.66 624.82 872.9 622.41 869.23 625.88 866.99 628.11 866.85 631.31 867.68 638.21 865.24 642.3 865.91 645.35 868.45 649.26 870.48 648.44 871.68 645.75 873.1 647.17 874.07 648.32 873.61 652.83 873.21 653.36 879.88 655.4 880.33 659.32 879.38 661.73 879.22 662.35 880.21 665.28 887.72 668.21 887.85 671.59 888.58 671.16 891.38 672.38 891.76 675.96 890.21 679.05 889.71 686.67 887.59 695.85 883.62 703.12 881.99 703.61 883.47 705.84 886.4 713.13 892.28 Z" fill-rule="evenodd" id="32600330"/>
<path d="M 552.6 589.21 550.32 589.28 544.79 591.56 542.63 594.63 538.97 597.38 536.43 598.54 532.79 599.63 528.34 602.45 526.36 604.53 525.48 608.44 523.19 614.94 522.49 619.92 523.39 622.97 523.74 625.9 523.23 628.34 518.51 632.85 513.28 634.89 508.8 638.03 506.61 637.35 503.72 638.19 500.46 638.6 499.86 635.93 500.58 632.24 498.54 632.03 496.32 628.81 492.05 626.16 491.76 622.55 480.68 627.61 475.62 627.17 473.95 626.39 472.49 626.64 469.68 624.46 466.27 623.42 462.36 626.53 459.84 626.75 455.96 624.71 452.65 626.82 450.41 625.15 448.27 625.84 446.17 623.7 445.88 622.58 449.42 622.26 451.72 619.04 450.38 618.72 449.48 614.45 447.06 612.67 443.28 612.48 441.82 614.64 438.25 614.65 438.86 611.78 438.47 610.37 434.3 609.37 430.49 607.68 431.59 603.95 429.71 601.64 428.36 597.15 429.79 595.64 427.73 594.16 425 591.23 419.55 590.74 417.89 591.8 416.52 591.08 414.87 591.56 414.22 592.93 410.63 590.71 408.59 590.6 406.28 588.26 401.85 582.79 399.52 580.95 399.61 578.68 397.09 576.31 395.28 573.6 392.35 572.02 389.67 569.48 388.09 565.73 387.6 563.58 386.04 561.95 385.22 559.68 383.82 558.01 382.05 563.7 373.93 566.98 375.34 570.46 371.37 572.44 369.06 576.52 368.93 578.95 367.05 581.47 367.6 582.6 366.5 585.88 368.84 588.54 369.19 591.15 367.94 592.35 364.77 593.85 361.41 597.19 361.2 600.17 359.28 601.26 356.48 601.04 352.8 602.86 351.06 606.14 347.76 605.29 345.87 606.2 343.57 603.02 338.72 604.06 336.94 606.15 334.98 605.95 329.96 607.07 327.89 608.48 325.24 607.67 323.85 606.16 320.62 606.07 318.33 607.17 315.45 605.26 313.92 605.93 309.2 605.26 306.36 606.44 304.74 606.2 301.55 604.66 298.6 605.58 296.13 605.41 294.17 602.95 289.03 602.23 282.62 600.43 281.03 598.97 275.99 598.95 272.59 597.87 269.8 599.28 265.85 595.25 268.23 594.25 272.9 588.1 272.79 585.56 271.53 583.66 271.04 578.45 268.32 571.29 268.1 566.07 264.16 562.53 264.63 560.44 263.36 558.7 263.5 555.17 264.21 551.22 264.95 549.55 263.36 545.46 263.7 541.23 265.18 538.05 265.01 534.95 262.03 531.62 260.86 528.9 260.7 527.24 257.42 524.59 255.9 520.29 260.54 517 263.12 516.04 267.22 510.12 268.84 508.64 274.25 509.46 276.47 506.38 278.63 505.41 279.53 502.26 279.79 499.6 281.02 498.3 281.5 495.4 286.38 491.75 287.11 489.1 286.58 486.48 285.53 485.05 285.87 483.34 285.46 480.24 286.09 479.59 285.33 477.13 283.96 475.44 283.91 470.32 284.4 469.35 282 465.43 281.07 464.75 281.21 461.5 279.58 460.2 280.39 458.56 278.96 456.25 277.6 455.27 277.27 452.87 278.05 451.27 275.77 447.79 275.25 442.76 274.17 441.77 274.79 439.42 274.75 434.46 277.06 430.22 278.42 428.84 278.26 424.55 279.11 422.47 283.99 418.86 291.32 416.28 294.81 416.88 296.74 414.87 303.89 411.23 306.84 410.29 310.11 406.33 312.78 404.45 318.33 397.93 319.67 393.13 321.93 390.46 323.82 389.67 326.34 389.58 329.96 391.19 336.24 390.92 339.43 391.23 351.23 391.3 355.25 394.03 357.4 393.38 361.15 393.33 364.78 396.73 365.02 399.49 367.34 403.72 369.7 404.89 370.93 404.83 371.47 406.52 379.59 409.88 383.52 412.69 390.82 412.87 392.5 413.27 394.93 418.28 394.62 420.29 396.1 422.4 397.74 423.41 402 425 406.2 430.26 410.45 431.51 412.3 432.98 414.01 433.42 414.24 435.09 417.3 436.39 419.39 438.62 424.13 435.66 426.48 430.09 430.52 427.13 432.82 427.4 436.5 425.89 439.69 423.46 443.42 419.33 444.77 418.27 453.16 417.75 456.89 409.11 462.07 404.95 467.38 398.94 465.94 394.02 461.07 391.37 459.94 388.31 459.21 380.46 456.69 375.66 463.79 373.36 466.53 381.29 469.05 384.47 472.77 387.92 477.16 387.96 479.15 390.35 484.04 393.05 484.64 393.9 487.44 394.55 489.96 397.12 489.43 398.56 490.68 401.35 491.63 401.98 490.98 403.87 489.41 404.16 488.94 405.83 490.72 409.2 492.16 410.98 494.08 412.07 496.17 415.15 496.67 417.31 499.63 419.51 502.84 421.05 502.63 423.52 503.37 425.9 505.14 426.99 508.08 429.71 509.97 432.06 512.91 434.82 514 434.99 513.84 438.99 515.42 441.82 520.34 443.96 525.1 447.72 525.45 451.7 528.82 455.44 527.97 458.16 525.73 460.8 523.98 461.14 523.55 463.48 516.06 469.07 515.57 468.5 520.87 463.97 516.84 458.98 513.36 459.54 510.98 460.91 506.73 464.6 503.63 468.92 502.77 469.22 502.18 471.83 503.98 472.97 502.59 475.43 501.63 478.3 501.51 482.01 502.4 489.44 502.12 491.8 504.14 497.65 504.95 502.6 507.01 507.33 511.13 515.68 514.39 520.22 514.85 522.31 517.33 526.67 518.86 526.22 521.37 530.26 520.87 532.16 525.02 541.36 528.94 547.85 532.82 553.64 539.05 563.71 540.19 566.3 544.58 571.49 551.13 580.57 552.57 586.29 552.6 589.21 Z" id="32600120"/>
<path d="M 283.99 418.86 279.11 422.47 278.26 424.55 278.42 428.84 277.06 430.22 274.75 434.46 274.79 439.42 274.17 441.77 275.25 442.76 275.77 447.79 278.05 451.27 277.27 452.87 277.6 455.27 278.96 456.25 280.39 458.56 279.58 460.2 281.21 461.5 281.07 464.75 282 465.43 284.4 469.35 283.91 470.32 283.96 475.44 285.33 477.13 286.09 479.59 285.46 480.24 285.87 483.34 285.53 485.05 286.58 486.48 287.11 489.1 286.38 491.75 281.5 495.4 281.02 498.3 279.79 499.6 279.53 502.26 278.63 505.41 276.47 506.38 274.25 509.46 268.84 508.64 267.22 510.12 263.12 516.04 260.54 517 255.9 520.29 257.42 524.59 260.7 527.24 260.86 528.9 262.03 531.62 265.01 534.95 265.18 538.05 263.7 541.23 263.36 545.46 264.95 549.55 264.21 551.22 263.5 555.17 263.36 558.7 264.63 560.44 264.16 562.53 268.1 566.07 268.32 571.29 271.04 578.45 271.53 583.66 272.79 585.56 272.9 588.1 268.23 594.25 265.85 595.25 269.8 599.28 270.22 599.65 267.7 605.68 266.06 613.12 266.62 616.18 265.03 621.15 263.8 623.76 262.25 624.71 259.85 625.19 257.14 627.42 254.68 630.07 251.49 631.64 249.51 634.11 248.82 636.63 246.77 641.77 244.6 646.25 242.72 649.2 240.91 650.8 238.28 651.78 237.44 652.8 237.01 655.71 237.4 656.91 236.72 660.69 235.79 662.67 235.13 666.02 235.25 667.85 233.39 672.8 235.78 677.58 237.83 679.54 238.7 682.11 241.61 685.58 243.05 687.98 243.73 690.27 242.48 694.46 242.62 697.16 243.34 698.66 242.18 702.92 242.41 704.82 239.02 708.72 236.15 710.22 235.43 712.13 235.99 717.18 237.43 718.54 235.64 721.72 232.96 724.08 232.08 727.4 230.68 728.64 227.77 732.74 224.64 733.83 223.73 734.76 219.5 735.1 218.22 737.39 215.82 740.05 214.7 742.03 212.29 743.78 209.19 747.22 205.51 749.23 203.78 751.2 203.78 752.57 205.33 755.71 206.27 759.84 207.84 763.13 205.29 766.23 203.98 768.71 204.33 773.36 203.35 775.81 203.95 780.79 203.7 781.82 206.54 785.46 204.13 787.95 202.65 790.44 195.68 794.32 192.69 794.69 189.88 790.49 185.84 787.28 182.94 787.39 177.84 787.05 175.4 786.36 172.36 786.74 171.13 786.31 167.81 786.63 164.89 786.01 162.77 784.6 160.33 781.18 159.2 780.9 157.07 778.69 156.02 779.39 153.4 777.24 151.4 777.36 146.3 775.93 143.9 774.48 142.81 772.37 140.78 771.47 138 768.87 135.55 769.68 132.43 769.97 127.61 769.75 126.21 769.31 125.4 770.63 121.05 774.94 117.81 775.8 114.38 775.82 111.98 779.55 109.2 782.11 107.94 782.25 105.01 779.36 100.69 778.11 99.96 775.88 94.96 769.3 95.43 763.29 93.65 755.64 95.25 752.02 93.98 749.86 93.93 747.96 90.65 745.83 88.21 743.16 87.09 739.12 86.98 737.34 89.95 735.27 91.53 732.15 92.34 728.39 95.27 726.58 95.7 724.08 96.58 723.88 97.54 718.29 98.86 715.12 98.85 712.64 99.59 710.65 101.26 710.17 102.1 707.61 101.16 702.45 103.17 699.99 104.12 697.69 103.03 693.62 104.02 690.77 103.32 689.24 101.6 687.75 101.99 685.6 103.03 684.04 102.58 681.74 103.22 680.55 102.27 677.94 100.35 676.35 99.87 672.94 97.17 668.5 94.94 667.23 92.41 666.73 87.53 670.2 83.17 668.39 80.5 667.85 77.02 670.62 76.25 672.56 71.06 678.38 69.36 677.56 65.37 679.27 64.47 678.92 58.91 680.5 56.01 682.66 54.44 682.64 51 684.18 48.84 682.46 47.9 679.8 46.94 679.5 42.09 675.72 39.86 675.23 36.95 672.95 32.67 671.72 31.88 671.92 29.08 669.05 25.76 671.39 24.02 675.15 21.36 678.54 18.23 680.13 16.26 677.22 15.5 675.14 13.12 672.44 12.97 671.63 10.24 668.62 9.18 666.05 8.05 661.84 9.96 656.05 8.97 653.26 12.28 649.55 16.25 649.03 18.24 645.23 17.36 643.58 17.51 638.3 14.03 636.17 10.61 636.57 9.86 637.17 7.04 637.23 2.64 636.36 2.55 634.97 1.14 633.63 1 632.05 2.51 629.51 4.14 625.17 5.21 620.3 7.48 611.81 10.5 606.75 15.15 601.41 19.46 598.03 22.18 597.5 32.8 597.04 36.15 596.5 38.47 595.04 40.42 589.53 43.56 586.8 44.31 585.3 43.89 583.59 39.97 576.2 39.21 573.59 37.87 572.12 39.41 570.18 39.34 568.98 42.02 564.58 43.32 561.82 43.32 560.54 44.98 559.83 47.15 559.9 52.51 556.12 53.38 555.13 58.27 551.47 62.88 548.63 65.01 546.96 64.93 545.37 67.15 543.57 67.26 542.28 71.27 541.93 71.7 541.07 74.89 540.76 75.82 541.44 79.68 539.17 81.98 537.1 82.13 536.09 86.05 532.84 88.14 529.55 96.3 517.52 99.39 514.53 105.71 509.88 106.55 511.1 109.88 510.41 110.9 509.43 114.41 508.17 115.27 506.74 115.39 504.66 119.4 502.12 125.39 500.15 126.08 498.67 124.44 495.92 125.45 493.72 127.13 492.93 128.55 490.87 130.94 482.77 130.12 480.91 130.54 476.45 129.87 475.35 133.05 466.01 133.62 462.43 137.25 461.66 137.06 459.72 137.64 455.16 139.14 455.57 140.55 453.69 143.6 450.9 143.51 449.75 141.4 447.76 143.7 443.15 146.53 441.15 149.31 437.81 151.12 432.64 151.46 430.1 157.97 401.98 158.44 400.52 161.28 396.86 164.43 388.47 167.34 385.64 172.06 382.58 173.68 380.94 174.97 380.7 174.22 377.66 162.94 359.55 163.42 355.71 162.03 354.67 163.54 352.9 162.33 350.9 164.49 346.78 163.24 346.49 163.13 343.67 164.54 340.6 167.64 335.4 169.32 330.57 170.01 330.12 171.06 325.75 172.02 324.92 168.88 313.53 170.99 312.44 170.52 310.15 171.32 308.67 175.37 304.75 177.91 302.66 180.95 298.85 187.86 285.96 188.39 281.33 187.28 271.9 187.21 268.3 188.68 260.69 188.61 255.83 187.19 252.31 186.72 248.45 184.47 237.96 183.82 232.81 183.62 227.58 182.79 221.5 181.35 216.69 181.59 211.37 183.49 198.27 183.94 191.22 184.17 172.26 183.86 169.51 184.94 167.55 184.69 165.13 183.71 164.08 184 161.51 183.71 153.24 183.73 148.5 184.39 144.85 183.62 144.44 183.44 135.8 183.98 134.51 183.01 131.32 183.3 129.72 183.19 124.44 184.98 123.82 186.51 121.91 187.55 118.65 188.33 118.63 189.15 111.23 188.34 106.41 185.82 97.37 186.01 95.88 184.92 94.69 183.12 94.18 184.19 90.94 183.75 89.84 184.92 86.35 187.68 83.31 186.44 81.54 185.69 78.28 183.26 75.94 180.83 74.72 177.66 71.44 178.68 68.39 177.32 66.72 177.54 64.77 176.61 61.05 176.5 58.83 178.5 56.87 181.76 58.7 181.72 56.97 184.64 58.33 189.35 58.6 191.51 57.97 195.1 54.68 197.93 51.48 202.16 48.19 205.11 47.42 210.75 44.56 216.35 43.19 219.56 39.52 225.55 36.23 226.4 37.09 227.66 42.09 228.78 43.25 231.06 48.74 230.91 51.55 232.57 54.98 231.05 65.2 234.52 67.63 238.08 72.87 245.42 75.22 249.82 73.12 246.58 81.19 246.84 93.03 248.99 96.75 253.59 100.6 255.53 104.7 254.46 106.22 249.56 109.97 249.1 112.28 250.57 116.58 249.14 118.64 246.39 121.2 252.29 134.01 252.74 141.31 253.25 142.27 256.47 143.71 260.59 149.74 262.59 155.03 263.73 156.27 263.96 157.93 263.27 161.26 261.26 163.91 261.9 165.13 261.47 167.13 260.07 169.35 257.9 170.31 258.1 179.19 259.11 182.38 260.32 184.7 260.86 189.49 258.85 192.8 259.43 196.9 260.85 203.45 262.5 205.12 263.92 208.84 263.98 211.51 262.11 211.56 260.44 215.06 260.14 217.08 257.84 217.01 255.96 218.08 253.14 217.64 252.83 218.6 249.96 219.34 249.95 226.3 248.83 234.81 245.65 236.92 245.6 238.05 242.34 239.77 241.24 242.43 238.14 243.33 236.53 246.13 234.6 247.2 234.94 250.85 236.24 253.55 235.06 256.8 237.13 261.67 239.19 262.77 240.79 265.83 241.93 269.24 242.72 273.51 243.96 275.03 243.64 277.28 245.67 279.67 246.29 282.18 247.24 282.89 246.82 285.55 248.34 287.12 248.79 289.89 248.08 294.39 248.91 295.58 248.58 304.2 249.03 305.65 251.93 307.2 253.45 312.48 252.94 313.72 256.86 314.3 259.45 316.53 259.59 317.79 257.62 321.29 257.74 325.39 255.81 328.2 255.33 332.87 256 334.07 255.42 336 251.12 338.14 246.75 342.92 246.92 344.42 246.2 346.82 247.87 353.81 249.5 355.09 248.59 356.9 248.72 360.04 248.18 361.2 248.51 363.45 247.21 365.84 247.36 372.19 246.43 378.79 243.49 381.33 246.68 383.74 248.14 383.1 251.83 383.79 254.69 384.92 256.78 384.71 259.89 386.28 260.89 388.5 264.13 390.52 266.21 391.05 269.13 392.64 270.76 392.74 272.24 394.82 274.2 396.12 276.26 398.97 277.58 399.99 277.97 402.51 279.12 403.46 278.87 405.09 280.38 407.32 282.66 411.64 281.7 413.65 283.99 418.86 Z" id="32600260"/>
</g>
</svg>