<?xml version="1.0"?>
<svg xmlns="http://www.w3.org/2000/svg" version="1.2" baseProfile="tiny" width="800" height="854" viewBox="0 0 800 854" stroke-linecap="round" stroke-linejoin="round">
<g id="dong">
<path d="M 458.12 512.68 456.11 510.78 456.07 510.25 453.75 509.37 452.1 507.89 450.61 507.98 449.36 507.35 447.83 507.83 446.93 510.1 444.26 512.65 442.65 513.07 441.18 511.77 441.04 510.4 440.14 507.87 440.29 506.5 436.19 506 435.22 505.18 433.63 502.25 441.3 498.12 441.81 496.4 443.5 495.33 445.58 494.88 448.94 492.87 449.79 491.08 451.08 490.35 455.49 492.64 458.92 493.93 458.57 494.4 459.99 496.14 461.02 499.05 459.18 497.82 457.67 498.35 457.68 499.28 456.04 499.32 456.02 501.46 458.45 501.75 461.13 505.08 461.47 508.13 459.24 508.59 458.12 512.68 Z" id="33020570"/>
<path d="M 458.12 512.68 458.64 514.04 459.5 514.27 460.01 515.84 461.93 517.88 461.49 519.4 461.9 526.23 462.46 526.39 467.83 526.12 468.04 524.85 469.6 521.48 470.12 521.3 470.82 525.26 474.27 525.03 473.7 521.1 476.51 520.5 477.54 523.32 480.14 523.16 480.16 524.7 481.66 524.91 483.55 526.17 485.51 524.48 488.41 525.18 492.46 526.49 493.14 528.32 495.93 530.3 498.3 531.33 500.68 530.99 501.75 531.52 503.94 531.4 505.71 530.62 506.86 530.65 509.72 529.38 510.45 529.39 511.67 528.88 515.89 529.02 518.72 527.12 520.09 527.35 524.54 526.4 527.16 528.96 528.64 527.68 530.29 527.76 533.43 526.71 534.35 526.87 535.35 528.44 537.77 529.92 539.34 533.32 538.75 535.07 539.14 536.26 539.1 538.37 540.34 543.05 541.17 544.93 542.46 546.49 544.88 548.32 546.24 548.74 547.71 550.32 549.19 552.89 552.84 557.66 549.85 558.44 548 559.44 546.16 561.29 544.52 565.71 544.4 569.75 544.94 571.56 545.86 572.62 547.29 575.11 547.51 578.1 547.98 579.61 547.69 580.79 544.56 580.93 543.13 582.32 540.81 583.45 539.43 583.24 535.81 584.06 533.17 585.45 532.38 583.68 530.24 581.96 529.52 580.91 528.07 580.26 525.31 580.73 524.55 578.2 523.47 577.52 522.21 574.84 521.67 572.3 519.21 570.6 517.37 570.55 512.96 571.73 509.4 571.34 507.46 571.95 506.33 571.75 503.97 572.1 502.13 571.34 499.56 571.52 498.55 572.24 496.7 574.64 495.4 575.16 493.15 574.66 492.1 575.25 488.64 574.6 488.24 574 486.5 573.64 487.09 571.4 486.52 570.25 486.97 569.07 485.88 567.65 483.81 567.93 481.8 566.25 480.03 565.84 478.58 566.54 475.8 566.79 475.22 566.26 472.79 566.37 470.22 567.37 468.49 564.12 467.41 562.99 463.65 562.14 461.04 563.25 457.97 562.63 457.14 560.27 454.44 559.36 452.79 557.92 452.28 556.79 451 555.56 449.44 555.52 446.81 553.08 445.86 551.42 446.95 550.05 444.23 547.98 442.97 545.84 443.37 544.88 441.48 543.99 440.2 542.06 438.22 539.91 437.02 539.42 436.06 538.12 433.74 536.76 433.91 534.18 433.69 532.46 434 529.3 432.19 528.68 431.32 527.66 433.09 524.94 433.24 524.17 435.38 521.23 436.04 519.94 438.73 517.02 439.58 515.16 441.64 514.25 442.65 513.07 444.26 512.65 446.93 510.1 447.83 507.83 449.36 507.35 450.61 507.98 452.1 507.89 453.75 509.37 456.07 510.25 456.11 510.78 458.12 512.68 Z" id="33020580"/>
<path d="M 433.63 502.25 435.22 505.18 436.19 506 440.29 506.5 440.14 507.87 441.04 510.4 441.18 511.77 442.65 513.07 441.64 514.25 439.58 515.16 438.73 517.02 436.04 519.94 435.38 521.23 433.24 524.17 433.09 524.94 431.32 527.66 432.19 528.68 434 529.3 433.69 532.46 433.91 534.18 433.74 536.76 436.06 538.12 437.02 539.42 438.22 539.91 440.2 542.06 441.48 543.99 443.37 544.88 442.97 545.84 444.23 547.98 446.95 550.05 445.86 551.42 446.81 553.08 449.44 555.52 451 555.56 452.28 556.79 452.79 557.92 454.44 559.36 457.14 560.27 457.97 562.63 461.04 563.25 463.65 562.14 467.41 562.99 468.49 564.12 470.22 567.37 469.74 568.61 467.31 570.34 465.59 570.89 464 573.05 463.45 574.87 463.13 578.47 461.79 579.25 461.26 582.36 459.13 585.56 456.77 587.69 455.11 588.78 451.22 592.51 446 596.93 444.52 598.74 442.73 602.17 441.17 607.14 439.07 610.15 437.63 611.72 435.44 613.37 434.19 612.62 430.33 612.33 429.14 613.09 426.45 613.45 424.98 612.92 423.67 613.12 422.01 611.91 420.06 608.27 416.93 608.16 416.28 607.88 413.82 608.88 413.29 607.93 412 607.55 409.59 608.15 409.29 606.13 406.76 606.15 406.65 605.28 405.44 603.78 404.82 601.27 402.23 598.87 399.92 599.15 398.74 598.5 395.45 597.84 394.43 598.08 391.59 597.11 388.68 594.94 385.68 593.11 380.46 592.25 379.11 590.95 376.79 591.06 374.92 591.66 373.9 590.39 370.76 587.33 369.71 584.5 368.22 582.65 366.77 581.73 365.87 577.7 366.41 576.25 364.63 573.88 366.08 572.08 369.02 572.03 369.72 570.5 370.57 570.29 371.98 568.48 371.88 566.25 374.03 563.21 376.17 561.46 377.68 559.52 377.58 557.5 374.97 554.98 372.81 554.26 370.18 553.82 369.69 553.18 370.4 551.97 370.14 547.04 370.83 545.3 372.53 543.14 374.77 541.68 376.01 538.29 376.18 536.87 374.52 535.79 369.4 531.99 370.11 530.56 371.95 528.42 372.87 528.92 375.27 527.98 377.09 527.9 378.13 527.03 378.99 523.96 378.12 523.28 378 521.9 379.61 521.77 380.06 520.91 377.75 519.46 377.22 518.32 372.94 516.29 369.72 515.1 369.75 513.89 371.51 512.9 373.37 511.08 373.92 509.12 375.37 507.58 375.76 505.06 375.35 502.59 376.36 498.44 375.69 494.92 376.95 492.4 378.67 491.87 382.82 492.53 387.71 492.06 389.72 492.15 392.85 489.89 394.02 492.16 393.63 493.43 393.65 496.3 394 497.26 397.04 502.17 397.12 504.79 397.56 506.62 399 509.81 401.24 508.33 402.98 505.74 404.68 502.61 405.57 503.38 407.44 499.95 408.88 500.73 409.95 500.12 410.17 498.19 420.25 499.31 420.45 497.4 432.07 498.65 433.63 502.25 Z" id="33020600"/>
<path d="M 395.53 463.67 396.39 465.23 399.11 469 399.95 470.64 399.91 472.08 400.78 473.22 404.79 474.71 412.89 478.19 415.75 479.2 416.58 478.97 418.51 479.49 419.6 480.49 421.65 480.74 424.48 481.92 426.34 482.34 429.34 482.61 429.89 483.07 431.61 478.94 432.36 478.38 434.65 479.76 435.57 478.33 440.9 481.79 442.04 481.14 447.35 480.4 447.87 480.55 446.64 482.72 446.88 483.69 449.99 483.95 451.62 484.73 452.95 486.74 455.65 488.94 456.02 488.67 458.23 491.37 458.92 493.93 455.49 492.64 451.08 490.35 449.79 491.08 448.94 492.87 445.58 494.88 443.5 495.33 441.81 496.4 441.3 498.12 433.63 502.25 432.07 498.65 420.45 497.4 420.25 499.31 410.17 498.19 409.95 500.12 408.88 500.73 407.44 499.95 405.57 503.38 404.68 502.61 402.98 505.74 401.24 508.33 399 509.81 397.56 506.62 397.12 504.79 397.04 502.17 394 497.26 393.65 496.3 393.63 493.43 394.02 492.16 392.85 489.89 393.91 488.67 394.71 486.67 395.19 481.52 394.67 477.31 393.6 474.13 394.79 465.97 394.63 464.6 395.53 463.67 Z" id="33020610"/>
<path d="M 450.16 470.32 449.94 472.6 448.57 480.23 447.87 480.55 447.35 480.4 442.04 481.14 440.9 481.79 435.57 478.33 434.65 479.76 432.36 478.38 431.61 478.94 429.89 483.07 429.34 482.61 426.34 482.34 424.48 481.92 421.65 480.74 419.6 480.49 418.51 479.49 416.58 478.97 415.75 479.2 412.89 478.19 404.79 474.71 400.78 473.22 399.91 472.08 399.95 470.64 399.11 469 396.39 465.23 395.53 463.67 395.22 461.06 400.26 460.7 404.5 461.62 406.03 461.5 409.5 459.82 412.56 459.74 416.27 460.31 415.98 457.58 416.17 454.96 416.95 451.96 418.73 448.12 422.56 444.57 424.82 441.79 427.96 438.76 428.84 437.18 430.63 435.49 434.33 435.22 434.88 433.67 436.39 432.82 437.04 434.27 440.55 435.22 442.44 435.07 442.42 436.47 444.32 438.08 445.97 438.06 446.9 439.2 449.36 440.08 449.57 440.7 448.41 441.95 448.8 442.76 450.21 443.15 453.58 442.29 454.58 441.37 456.51 438.52 457.61 438.65 459.87 436.9 461.78 439.28 464.59 438.99 466.85 439.5 468.7 439.27 469.86 440.18 469.42 441.43 467.95 442.68 467.84 444.7 466.4 446.3 464.41 446.29 464.51 448.51 463.44 452.28 459.9 452.28 459.89 453.41 459.88 454.07 458.25 455.17 458.36 457.82 458.37 458.64 457.06 458.88 457.07 463.59 456.8 465.03 450.69 464.96 450.32 466.16 450.16 470.32 Z" id="33020620"/>
<path d="M 534.23 410.3 532.17 412.3 530.91 413.95 532.77 416.59 532.11 421.07 529.64 424.29 528.98 426.75 527.3 430.44 531.32 434.39 531.84 436.33 531.82 438.51 533.36 441.98 533.76 444.86 534.6 446.59 536.63 447.79 537.27 449.84 537.98 450.63 538.39 452.38 537.28 454.87 535.05 458.03 532.5 458.91 529.84 458.36 527.54 457.3 526.02 456.95 525.28 455.69 522.76 454.72 519.22 455.15 518.34 454.26 518.76 452.75 514.21 448.68 511.16 448.04 509.55 447.13 507.94 444.26 504.93 444.28 502.67 443.36 501.16 444.67 499.13 443.05 498.07 441.05 497.1 440.16 494.74 440.27 493.02 438.56 491.41 439.01 488.62 438.24 484.95 438.22 484.51 439.06 479.26 439.93 477.26 440.46 474.57 438.51 471.58 437.42 470.36 439.87 469.86 440.18 468.7 439.27 466.85 439.5 464.59 438.99 461.78 439.28 459.87 436.9 457.61 438.65 456.51 438.52 454.58 441.37 453.58 442.29 450.21 443.15 448.8 442.76 448.41 441.95 449.57 440.7 449.36 440.08 446.9 439.2 445.97 438.06 444.32 438.08 442.42 436.47 442.44 435.07 440.55 435.22 437.04 434.27 436.39 432.82 434.88 433.67 434.33 435.22 430.63 435.49 428.84 437.18 430.56 418.57 428.94 415.02 429.45 411.63 430.06 409.86 431.3 407.63 436.7 403.39 442.29 400.24 443.53 399 446.42 398.02 450.49 397.92 459.72 398.15 465.26 398.45 468.79 398.25 474.12 398.65 476.05 398.6 479.23 398.1 482.79 397.84 489.42 396.9 492.33 395.96 496.37 394.13 498.99 392.52 501.81 390.22 504.52 388.84 506.87 388.48 508.07 388.68 513.22 390.83 515.38 392.85 520.28 399.09 520.65 400.24 524.88 403.45 529.5 406.04 531.99 407.62 534.23 410.3 Z" id="33020640"/>
<path d="M 473.93 503.7 475.35 504.8 475.64 505.98 477.32 505.95 478.15 508.03 480.78 507.94 481.89 513.35 488.27 512.99 489.09 511.4 491.23 513.66 495.54 516.03 499.02 519.25 503.02 521.24 504.88 523.66 507.26 525.84 508.95 526.99 510.45 529.39 509.72 529.38 506.86 530.65 505.71 530.62 503.94 531.4 501.75 531.52 500.68 530.99 498.3 531.33 495.93 530.3 493.14 528.32 492.46 526.49 488.41 525.18 485.51 524.48 483.55 526.17 481.66 524.91 480.16 524.7 480.14 523.16 477.54 523.32 476.51 520.5 473.7 521.1 474.27 525.03 470.82 525.26 470.12 521.3 469.6 521.48 468.37 519.57 469 518.78 469.06 516.92 468.18 512.48 467.43 510.91 465.87 508.95 465.74 505.38 465.38 503.83 464.62 502.92 466.65 503.18 466.14 505.79 467.14 505.59 474.17 506.28 473.93 503.7 Z" id="33020550"/>
<path d="M 464.62 502.92 462.74 502.08 461.05 500.58 461.02 499.05 459.99 496.14 458.57 494.4 458.92 493.93 458.23 491.37 456.02 488.67 457.93 488.3 460.87 488.21 462.15 488.67 467.21 492.74 468.31 494.04 469.65 494.26 472.35 496.65 473.8 498.76 473.49 502.63 473.93 503.7 474.17 506.28 467.14 505.59 466.14 505.79 466.65 503.18 464.62 502.92 Z" id="33020510"/>
<path d="M 621.89 508.08 615.35 509.98 612.54 513.02 611.37 513.25 610.77 514.75 608.6 514.79 608.14 516.08 606.39 516.56 606.77 517.82 606.09 520.23 604.24 519.99 602.76 520.52 601.48 521.61 600.57 521.56 599.51 522.7 598.38 522.27 596.5 523.2 593.07 529.08 591.65 529.57 590.95 530.49 589.11 531.45 587.8 533.23 586.62 533.69 584.49 537.83 581.93 539.32 580.14 537.69 578.36 536.8 577.56 535.2 575.5 533.25 574.89 532.07 572.52 531.17 570.72 528.13 566.24 528.41 562.1 530.6 560.06 531.91 558.04 534.89 555.33 535.98 554.13 534.68 549.35 533.85 547.6 534.04 544.95 532.08 543.45 532.32 541.66 533.17 539.34 533.32 537.77 529.92 535.35 528.44 534.35 526.87 533.43 526.71 530.29 527.76 528.64 527.68 527.16 528.96 524.54 526.4 520.09 527.35 518.72 527.12 515.89 529.02 511.67 528.88 510.45 529.39 508.95 526.99 507.26 525.84 504.88 523.66 503.02 521.24 499.02 519.25 495.54 516.03 491.23 513.66 489.09 511.4 488.27 512.99 481.89 513.35 480.78 507.94 478.15 508.03 477.32 505.95 475.64 505.98 475.35 504.8 473.93 503.7 473.49 502.63 473.8 498.76 472.35 496.65 469.65 494.26 468.4 493.84 468.09 492.04 468.99 483.15 468.2 480.09 468.2 477.92 467.55 477.5 471.7 477.08 472.77 476.09 475.79 476.39 475.91 478.16 477.52 477.89 479.68 478.65 486.11 478.62 486.06 477.97 488.37 476.82 489.19 475.47 491.04 474.47 491.57 472.98 492.69 472.43 495.52 469.32 496.07 467.96 498.49 466.54 500.77 465.62 504.67 465.76 506.38 463.86 508.35 462.48 509.34 462.61 512.29 461 515.38 460.41 516.96 458.03 519.22 455.15 522.76 454.72 525.28 455.69 526.02 456.95 527.54 457.3 529.84 458.36 532.5 458.91 535.05 458.03 537.28 454.87 538.39 452.38 537.98 450.63 537.27 449.84 536.63 447.79 534.6 446.59 533.76 444.86 533.36 441.98 531.82 438.51 531.84 436.33 531.32 434.39 527.3 430.44 528.98 426.75 529.64 424.29 532.11 421.07 532.77 416.59 530.91 413.95 532.17 412.3 534.23 410.3 535.31 411.59 537.87 413.12 543.37 414.45 547.97 414.94 549.9 415.69 553.13 417.53 555.86 420.13 558.72 422.4 560.89 425.89 563.04 428.13 566.04 432.88 568.93 435.49 570.22 437.18 571.54 440.28 572.91 442.58 573.66 444.6 574.81 446.33 576.69 450.29 577.27 452.41 576.37 455.85 576.84 458.39 577.08 461.46 578.8 466.97 578.55 468.12 581.32 473.88 585.22 479.88 586.7 481.52 588.47 488.02 589.5 491.17 589.84 493.04 590.84 494.34 592.56 495.26 597.34 497.31 599.46 498 601.8 498 606.55 497.55 609.53 497.87 612.6 498.65 616.14 500.56 619.79 503.6 619.36 503.9 621.89 508.08 Z" id="33020530"/>
<path d="M 467.55 477.5 468.2 477.92 468.2 480.09 468.99 483.15 468.09 492.04 468.4 493.84 469.65 494.26 468.31 494.04 467.21 492.74 462.15 488.67 460.87 488.21 457.93 488.3 456.02 488.67 455.65 488.94 452.95 486.74 451.62 484.73 449.99 483.95 446.88 483.69 446.64 482.72 447.87 480.55 448.57 480.23 449.94 472.6 450.16 470.32 454.82 470.46 457.09 471.04 457.1 475.12 467.11 474.91 467.55 477.5 Z" id="33020540"/>
<path d="M 461.02 499.05 461.05 500.58 462.74 502.08 464.62 502.92 465.38 503.83 465.74 505.38 465.87 508.95 467.43 510.91 468.18 512.48 469.06 516.92 469 518.78 468.37 519.57 469.6 521.48 468.04 524.85 467.83 526.12 462.46 526.39 461.9 526.23 461.49 519.4 461.93 517.88 460.01 515.84 459.5 514.27 458.64 514.04 458.12 512.68 459.24 508.59 461.47 508.13 461.13 505.08 458.45 501.75 456.02 501.46 456.04 499.32 457.68 499.28 457.67 498.35 459.18 497.82 461.02 499.05 Z" id="33020560"/>
<path d="M 291.56 426.51 285.17 436.68 273.42 433.14 271.59 432.96 270.79 437.1 269.77 439.87 268.29 440.13 268.06 441.92 265.76 444.37 266.06 445.54 264.98 446.48 265.09 447.28 261.7 453.65 262.12 454.62 267.52 457.62 266.49 459.25 263.94 460.06 262.68 461.66 260.5 463.19 259.79 464.51 258.68 465.39 258.37 466.75 257.03 468 257.15 468.95 255.07 468.98 253.14 474.14 253.41 476.49 252.79 478.33 252.72 479.88 252.06 482.32 253.84 482.81 252.73 486.86 254.06 487.09 254.76 487.99 254.95 490.14 256.58 491.88 256.73 492.86 268.23 494.15 269.23 494.72 269.54 496.6 268.19 498.32 268.1 500.38 268.71 502.77 267.81 503.05 267.71 505.79 265.44 505.86 265.66 508.3 264.93 512.44 265.57 513.67 265.4 515.86 264.11 516.71 266.83 518.38 266.02 520.68 265.08 521.24 262.53 521.9 261.79 524.26 259.67 526.18 259.15 527.2 257.04 528.06 255.89 529.01 253.86 531.68 252.24 532.17 252.49 533.74 251.41 535.03 250.28 535.62 249.11 539.64 248.11 541.63 246.86 542.36 247.34 544 247.19 546.21 248 548.36 245.18 548.92 244.45 550.13 240.84 550.08 238.5 551.75 238.44 555.52 235.22 557.9 235.35 559.94 236.06 562.43 234.91 564.96 233.19 566.67 230.9 567.56 228.87 569.02 227.29 569.72 225 570.15 222.7 569.5 221.25 568.7 219.46 569.68 217.18 572.68 216.94 573.7 215.69 574.58 212.39 575.87 210.03 575.75 208.62 576.93 206.88 577.79 204.44 576.93 202.75 574.94 201.02 574.3 200.55 572.04 197.38 570.29 196.1 566.97 194.95 566.75 193.95 565.11 191.98 564.06 189.11 564.72 187.34 562.5 186.85 560.21 184.87 555.84 182.49 553.89 184.82 552.87 187.35 551.3 185.87 549.16 185.23 546.98 184.34 545.66 182.05 543.79 179.56 542.23 178.19 540.54 177.85 538.13 175.82 536.94 174.94 537.66 173.95 535.96 174.03 533.84 171.73 533.94 171.66 533.01 170.08 530.29 169.87 528.16 169.25 527.64 166.94 526.94 166.45 526.18 163.89 524.27 163.34 521.97 161.2 519.82 159.7 520.13 158.54 518.23 159.26 515.61 159.93 515.23 160.22 513.6 160.83 513 160.59 511.39 161.07 508.84 161.78 508.08 162.19 506.31 164.1 505.29 164.61 504.2 164.17 503.16 164.32 501.66 162.37 498.19 162.66 496.43 163.46 495.08 164.33 494.66 165.03 492.97 166.6 491.85 167.02 489.69 168.61 487.3 170.93 487.26 173.15 488.94 174.6 488.74 176.64 489.1 180.75 488.2 181.08 488.92 184 487.19 187.32 486.37 189.26 486.86 192.04 485.8 194.54 485.46 196.63 484.65 198.42 484.36 200.71 482.79 202.42 482.12 201.66 481.24 203.27 478.33 205.18 477.7 205.89 478.06 206.9 475.81 206.53 474.44 203.73 473.25 204.55 471.41 201.13 468.31 197.8 467.41 194.42 465.02 193.21 463.46 191.95 461.03 190.51 459.5 188.79 458.76 185.81 465.46 180.68 463.19 176.41 461.66 175.25 460.8 169.78 458.5 163.68 456.9 161.23 453.6 159.28 452.2 157.21 451.6 155.19 450.47 153.44 450.17 152.22 449.47 152.15 447.69 153.33 447.13 155.49 447.32 158.07 446.26 156.5 441.41 155.6 439.35 156.36 437.51 155.76 435.7 156.03 434.57 155.91 432.1 157.54 429.4 159.47 427.99 162.26 424.37 162 422.64 162.31 421.13 162.36 416.95 162.17 415.92 160.2 414.04 159.62 412.88 156.99 409.79 156.82 407.25 158.12 405.92 160.07 406.06 163.05 405.17 163.86 405.24 165.84 404.15 167.3 402.43 168.2 402.52 171.22 400.07 171.31 399.28 172.76 398 174.34 397.66 174.51 396.22 175.71 395.35 175.73 394.34 176.9 392.11 178.38 391.33 177.73 389.89 178.59 386.21 180.61 385.24 182.69 386.32 183.59 388.21 185.38 388.83 186.05 390.43 186.85 390.81 190.31 390.77 192.21 389.5 193.44 391.03 196.24 390.36 196.87 391.28 198.09 390.64 199.22 390.9 201.18 392.19 202.23 394.35 203.89 395.62 206.05 394.87 207.89 393.78 208.72 394.18 210.82 394.17 211.47 394.59 213.65 397.25 215.37 398.71 220.36 399.77 222.45 401.93 223.48 401.34 225.12 401.28 226.17 398.55 225.54 395.31 226.09 393.13 225.86 391.32 226.87 389.87 227.42 388.17 230.53 386.83 232.21 387.06 233.58 385.54 234.43 385.63 236.29 387.54 237.44 386.45 239.74 385.52 241.92 383.89 244.6 385.36 246.2 387.64 246.58 389.36 250.8 389.46 252.41 386.81 255.79 386.19 258.39 383.84 262.46 381.68 263.58 380.53 266.8 379.32 271.48 380.19 272.43 381.43 273.85 381.36 274.41 382.81 275.14 386.76 274.62 387.75 274.93 389.01 274.74 391.19 276.78 392.21 279.72 395.09 279.22 401.84 281.57 404.17 279.11 406.51 291.56 426.51 Z" id="33020110"/>
<path d="M 621.89 508.08 623.12 508.51 625.62 512.93 626.43 512.82 627.13 515.9 628.17 517.79 629.88 517.83 631.06 518.85 636.78 525.63 637.97 527.92 640.3 530.23 644.94 532.3 645.69 532.76 646.4 537.1 646.65 540.12 646.13 542.03 644.42 542.06 645.12 544.19 644.94 548.53 645.2 552.01 645.8 555.37 645.71 556.87 646.16 559.38 646.7 560.6 648.4 562.93 652.36 566.49 655.91 568.74 657.15 568.65 657.58 569.51 660.17 570.86 663.44 571.36 667.9 573.33 671.79 575.69 673.33 577.57 674.51 580.38 675.32 585.33 675.91 590.18 676.2 594.35 676.78 594.71 677.55 597.6 679.17 600.65 681.14 602.48 682.97 603.55 686.62 606.18 688.11 606.58 690.83 608.74 693.49 610.54 695.24 612.54 695.87 614.28 695.42 618.84 691.14 617.91 690.06 618.33 687.29 620.39 685.6 622.2 686.47 624.26 687.91 629.27 688.77 631.17 687.38 632.56 686.61 633.96 686.56 636.2 686.09 637.59 686.49 640.04 686.11 641.27 687.33 643.66 686.29 646.43 684.57 648.41 685.3 652.12 686.03 654.09 683.22 657.75 680.08 660.16 677.61 663.03 676.04 664.47 674.27 667.32 676.54 669 676.9 669.64 676.66 672.31 675.29 673.51 672.37 675.5 670.4 676.02 668.39 677.48 667.58 682.47 666.33 683.2 664.53 685.5 663.73 689.27 663.96 690.14 662.59 693.08 662.25 695.37 661.23 698.82 660.19 699.7 655.97 700.72 652.35 702.39 651.31 705.19 651.53 706.5 651.29 709.64 650.55 711.72 649.21 713.5 650.72 716.67 650.04 718.76 647.65 721.68 643.15 723.71 641.18 724.43 640.03 723.62 634.66 721.75 632.76 720.09 631.52 719.58 630.69 718.34 625.11 713.24 623.19 712.25 622.05 708.74 622.23 707.14 621.02 705.95 622.21 704.92 621.42 702.93 619.25 699.52 617.89 698.69 616.48 696.47 616.48 693.45 614.65 690.2 614.47 689.19 611.96 685.3 612.06 683.7 611.33 682.77 611.21 679.7 612.24 677.14 612.87 674.49 613.77 673.64 616.1 669.63 616.74 667.88 615.78 665.31 612.77 665.01 611.8 661.4 609.66 661.77 607.4 660.84 606.64 662.05 604.88 663.24 601.59 662.65 598.74 666.31 597.46 667.31 596.96 668.56 593.79 666.66 590.74 667.03 588.49 668.03 587.13 666.11 583.71 664.57 581.98 663.29 580.94 661.6 578.14 661.2 576.79 660.08 575.83 660.1 575.14 661.12 572.38 659.35 571.69 659.85 571.55 661.23 570.6 663.16 568.65 663.56 567.33 662.13 565.87 661.69 563.43 661.97 563.63 664.46 556.88 666.02 554.95 664.59 552.27 666.32 551.31 667.32 549.42 667.09 546.35 667.29 544.93 667.13 543.63 668.13 541.26 665.92 540.18 663.53 539.37 662.78 539.22 660.86 535.57 657.73 533.47 657.36 533.16 656.66 531.44 655.73 530.45 657.79 527.85 661 525.45 661.81 524.52 663.27 524.56 664.3 523.27 665.72 522.38 667.82 521 668.77 518.33 671.62 518.46 673.42 516.14 674.98 514.62 675.07 512.15 677.71 510.34 679.29 508.3 679.73 506.02 680.99 506.26 682.62 503.72 684.51 501.63 687.88 500.68 688.2 500.61 692.24 499.16 692.67 497.34 694.39 493.96 698.51 492.44 699.37 489.3 700.26 487.55 697.96 486.99 695.06 487.96 693.07 489.89 692.07 491.45 689.73 491.07 687.66 492.29 684.6 492.62 682.12 493.75 679.99 493.86 678.67 494.74 678.36 496.58 675.61 497.91 674.83 497.68 673.34 496.84 671.75 495.89 670.96 493.43 669.82 489.15 668.62 488.05 668.01 484.45 668.08 482.36 668.69 478.36 668.82 474.12 667.46 471.38 668.68 471.54 667.33 469.76 668.16 469.83 669.03 468.02 669.63 465.16 669.15 463.93 668.35 462.43 668.53 460.56 672.33 457.68 673.65 456.91 675.5 455.53 676.28 452.52 679 450.24 680.32 444.42 682.6 441.33 682.82 440.48 681.04 439.33 680.73 438.38 679.19 437.53 678.71 437.19 677.46 435.8 675.72 435.02 673.51 433.05 673.38 428.97 671.84 427.69 673.28 425.86 672.57 423.19 672.06 421.96 670.89 419.84 670.47 418.33 669.02 418.46 667.86 418.05 661.55 418.35 660.67 417.5 659.51 417.54 657.51 415.31 653.59 414.28 652.49 413.36 649.66 416.82 644.09 420.66 639.2 420.99 636.7 422.16 633.52 422.91 632.76 424.74 632.31 430.49 632.54 432.83 633.61 437.19 636.47 442.24 640.99 445.83 643.85 446.43 644.76 448.97 646 450.97 645.91 453.21 644.24 453.75 642.26 453.32 640.08 453.44 638.34 454.19 638.04 452.82 634.96 450.81 632.35 449.88 632.53 447.05 631.05 446.43 631.04 442.6 629.31 439.55 629.02 437.19 628.06 434.97 626.42 432.22 623.61 431.13 620.64 430.99 619.07 436.1 613.73 435.44 613.37 437.63 611.72 439.07 610.15 441.17 607.14 442.73 602.17 444.52 598.74 446 596.93 451.22 592.51 455.11 588.78 456.77 587.69 459.13 585.56 461.26 582.36 461.79 579.25 463.13 578.47 463.45 574.87 464 573.05 465.59 570.89 467.31 570.34 469.74 568.61 470.22 567.37 472.79 566.37 475.22 566.26 475.8 566.79 478.58 566.54 480.03 565.84 481.8 566.25 483.81 567.93 485.88 567.65 486.97 569.07 486.52 570.25 487.09 571.4 486.5 573.64 488.24 574 488.64 574.6 492.1 575.25 493.15 574.66 495.4 575.16 496.7 574.64 498.55 572.24 499.56 571.52 502.13 571.34 503.97 572.1 506.33 571.75 507.46 571.95 509.4 571.34 512.96 571.73 517.37 570.55 519.21 570.6 521.67 572.3 522.21 574.84 523.47 577.52 524.55 578.2 525.31 580.73 528.07 580.26 529.52 580.91 530.24 581.96 532.38 583.68 533.17 585.45 535.81 584.06 539.43 583.24 540.81 583.45 543.13 582.32 544.56 580.93 547.69 580.79 547.98 579.61 547.51 578.1 547.29 575.11 545.86 572.62 544.94 571.56 544.4 569.75 544.52 565.71 546.16 561.29 548 559.44 549.85 558.44 552.84 557.66 549.19 552.89 547.71 550.32 546.24 548.74 544.88 548.32 542.46 546.49 541.17 544.93 540.34 543.05 539.1 538.37 539.14 536.26 538.75 535.07 539.34 533.32 541.66 533.17 543.45 532.32 544.95 532.08 547.6 534.04 549.35 533.85 554.13 534.68 555.33 535.98 558.04 534.89 560.06 531.91 562.1 530.6 566.24 528.41 570.72 528.13 572.52 531.17 574.89 532.07 575.5 533.25 577.56 535.2 578.36 536.8 580.14 537.69 581.93 539.32 584.49 537.83 586.62 533.69 587.8 533.23 589.11 531.45 590.95 530.49 591.65 529.57 593.07 529.08 596.5 523.2 598.38 522.27 599.51 522.7 600.57 521.56 601.48 521.61 602.76 520.52 604.24 519.99 606.09 520.23 606.77 517.82 606.39 516.56 608.14 516.08 608.6 514.79 610.77 514.75 611.37 513.25 612.54 513.02 615.35 509.98 621.89 508.08 Z" id="33020310"/>
<path d="M 641.18 724.43 640.31 726.24 638.69 728.35 636.91 732.39 636.33 734.28 638.47 741 639.92 740.86 641.58 741.58 642.1 742.91 643.15 743.9 646.66 745.26 647.66 746.47 649.65 747.64 650.33 747.42 654.23 748.8 657.63 750.76 659.35 751.25 661.54 752.66 664.68 753.07 667.77 755.26 668.92 755.75 671.27 756.07 673.71 756.93 673.69 759.48 674.79 763.5 674.93 765.69 677.77 768.2 680.14 768.87 681.36 768.47 683.78 764.15 685.49 761.71 686.01 760.43 688.24 757.13 691.27 753.63 693.57 752.7 695.42 752.39 700.55 749.48 702.24 749.48 706.74 746.92 709.26 745.88 712.22 745.25 716.19 744.71 718.88 742.92 721.3 740.51 724.63 743.67 728.44 745.25 729 750.13 729.65 752.32 730.99 753.87 731.05 756.49 732.41 758.48 732.3 760.38 733.26 763.94 733.76 768.9 732.87 770.14 733.77 771.29 734.21 773.57 737.83 775.3 738.83 777.19 743.86 777.7 746.25 779.59 750.96 780.79 754.76 783 757.08 783.7 760.63 783.88 764.33 783.19 768.04 780.68 770.15 779.99 772.15 779.77 776.83 777.2 777.6 776.55 779.41 776.07 782.86 775.76 786.6 775.79 789.52 777.01 792.23 778.55 793.47 778.72 798.23 778.03 798.96 782.17 799 786.95 797.5 789.15 795.56 790.88 793.85 791.71 792.33 793.78 790.78 794.51 786.5 794.16 783.69 796.25 780.49 797.77 778.27 798.21 776.39 797.93 774.5 798.31 774.41 799.72 773.57 801.51 769.16 802.18 764.48 802.59 760.57 801.44 759.38 802.02 759.36 806.75 758.56 812.54 759.36 814.18 757.02 818.06 756.78 821.17 756.94 824.36 756.44 827.43 755.38 829.25 755.2 830.8 753.2 833.61 746.77 832.98 742.64 835.49 739.77 836.03 737.44 838.34 735.99 837.84 733.96 838.6 732.03 840.18 732.02 842.71 732.88 845.02 733.06 852.65 727.41 853 723.97 851.82 720.59 850.07 717.08 847.66 717.5 846.13 717.06 841.65 717.75 840.35 719 839.81 719.5 837.57 717.77 836.12 714.99 832.25 709.07 828.83 707.3 826.85 707.19 825.69 705.81 823.83 703.24 822.54 701.27 820.12 696.89 816.61 695.03 816.64 689.53 812.15 687.82 812.1 686.77 811.33 684.31 810.83 683.09 811.83 680.89 811.29 679.17 811.46 676.81 812.28 676.16 813.07 672.87 811.26 672.17 811.52 670.06 808.61 668.56 807.7 665.04 808.49 663.31 807.86 661.68 806.49 660.54 804.49 659.12 802.82 658.36 803.01 656.27 801.33 653.06 802.29 652.97 802.76 648.04 804.76 642.73 803.16 638.32 796.64 636.8 795.96 630.98 795.37 630.01 795.83 628.16 795.26 625.49 796.23 623.66 795.55 617.96 794.03 616.3 796.54 617.67 799.18 617.68 800.25 616.67 801.62 616.51 804.66 615.65 810.51 615.07 811.69 617.22 814.03 617.61 815.9 616.57 820.43 615.58 821.01 614.42 822.9 613.5 826.29 609.92 829.18 608.66 830.45 606.13 831.26 603.56 830.02 601.26 829.52 600.38 830.58 599.15 831.1 598.77 832.5 597.86 833.61 594.86 832.41 593.44 831.02 590.16 829.35 587.45 827.38 584.73 825.97 582.04 826.35 578.92 824.82 575 821.23 571.11 821.37 566.43 821.88 565.01 821.46 564.27 820.63 559.41 817.07 556.57 815.72 554.33 814.96 549.59 815.27 549.68 813.52 550.69 811.38 549.61 809.36 549.27 807.63 548.42 806.48 549.42 802.96 548.51 800.01 544.3 799.58 540.39 799.94 538.87 799.53 537.4 798.49 535.06 797.4 532.88 795.98 531.72 794.18 531.52 790.69 532.31 790.09 532.69 788.67 533.96 787.12 535.56 781.5 537.51 777.34 540.52 774.01 538.03 769.98 537.48 766.64 535.76 761.89 534.23 761.15 532.28 759.65 532.19 758.73 530.66 756.05 529 755.42 528.7 754.58 529.12 750.77 527.31 749.23 525.35 746.62 524.75 745.32 523.32 743.83 524.88 739.38 525.16 734.83 526.52 731.96 524.83 730.01 525.68 728.13 527.21 726.57 524.16 725.06 521 723.8 517.37 722.82 516.15 721.99 514.94 720 512.71 714.86 511.13 713.17 508.35 710.82 507.1 710.35 506.12 708.17 502.96 707.1 500.24 705.34 498.92 703.86 494.92 700.4 492.44 699.37 493.96 698.51 497.34 694.39 499.16 692.67 500.61 692.24 500.68 688.2 501.63 687.88 503.72 684.51 506.26 682.62 506.02 680.99 508.3 679.73 510.34 679.29 512.15 677.71 514.62 675.07 516.14 674.98 518.46 673.42 518.33 671.62 521 668.77 522.38 667.82 523.27 665.72 524.56 664.3 524.52 663.27 525.45 661.81 527.85 661 530.45 657.79 531.44 655.73 533.16 656.66 533.47 657.36 535.57 657.73 539.22 660.86 539.37 662.78 540.18 663.53 541.26 665.92 543.63 668.13 544.93 667.13 546.35 667.29 549.42 667.09 551.31 667.32 552.27 666.32 554.95 664.59 556.88 666.02 563.63 664.46 563.43 661.97 565.87 661.69 567.33 662.13 568.65 663.56 570.6 663.16 571.55 661.23 571.69 659.85 572.38 659.35 575.14 661.12 575.83 660.1 576.79 660.08 578.14 661.2 580.94 661.6 581.98 663.29 583.71 664.57 587.13 666.11 588.49 668.03 590.74 667.03 593.79 666.66 596.96 668.56 597.46 667.31 598.74 666.31 601.59 662.65 604.88 663.24 606.64 662.05 607.4 660.84 609.66 661.77 611.8 661.4 612.77 665.01 615.78 665.31 616.74 667.88 616.1 669.63 613.77 673.64 612.87 674.49 612.24 677.14 611.21 679.7 611.33 682.77 612.06 683.7 611.96 685.3 614.47 689.19 614.65 690.2 616.48 693.45 616.48 696.47 617.89 698.69 619.25 699.52 621.42 702.93 622.21 704.92 621.02 705.95 622.23 707.14 622.05 708.74 623.19 712.25 625.11 713.24 630.69 718.34 631.52 719.58 632.76 720.09 634.66 721.75 640.03 723.62 641.18 724.43 Z" id="33020320"/>
<path d="M 167.3 402.43 165.84 404.15 163.86 405.24 163.05 405.17 160.07 406.06 158.12 405.92 156.82 407.25 156.99 409.79 159.62 412.88 160.2 414.04 162.17 415.92 162.36 416.95 162.31 421.13 162 422.64 162.26 424.37 159.47 427.99 157.54 429.4 155.91 432.1 156.03 434.57 155.76 435.7 156.36 437.51 155.6 439.35 156.5 441.41 158.07 446.26 155.49 447.32 153.33 447.13 152.15 447.69 152.22 449.47 153.44 450.17 155.19 450.47 157.21 451.6 159.28 452.2 161.23 453.6 163.68 456.9 169.78 458.5 175.25 460.8 176.41 461.66 180.68 463.19 185.81 465.46 188.79 458.76 190.51 459.5 191.95 461.03 193.21 463.46 194.42 465.02 197.8 467.41 201.13 468.31 204.55 471.41 203.73 473.25 206.53 474.44 206.9 475.81 205.89 478.06 205.18 477.7 203.27 478.33 201.66 481.24 202.42 482.12 200.71 482.79 198.42 484.36 196.63 484.65 194.54 485.46 192.04 485.8 189.26 486.86 187.32 486.37 184 487.19 181.08 488.92 180.75 488.2 176.64 489.1 174.6 488.74 173.15 488.94 170.93 487.26 168.61 487.3 167.02 489.69 166.6 491.85 165.03 492.97 164.33 494.66 163.46 495.08 162.66 496.43 162.37 498.19 164.32 501.66 164.17 503.16 164.61 504.2 164.1 505.29 162.19 506.31 161.78 508.08 161.07 508.84 160.59 511.39 160.83 513 160.22 513.6 159.93 515.23 159.26 515.61 158.54 518.23 159.7 520.13 161.2 519.82 163.34 521.97 163.89 524.27 166.45 526.18 166.94 526.94 169.25 527.64 166.11 530.28 164.61 532.02 162.75 531.54 160.32 532.12 158.34 532.18 156.48 532.63 155.56 535.7 152.13 536.93 149.58 539.02 146.86 539.22 144.71 537.01 142.63 535.51 137.23 536.93 136.34 536.68 136.19 534.49 134.85 532.7 132.43 530.16 132.35 529.02 131.44 527.91 129.48 527.29 126.32 525.7 123.89 527.78 122.91 526.69 121.16 525.87 118.49 525.51 118.45 526.43 116.49 526.59 112.75 526.01 111.84 527.04 108.98 527.15 108.17 525.89 107.08 523.17 106.01 521.63 103.62 520.33 100.32 519.54 99.53 518.71 98.72 514.87 97.16 514.05 94.01 514.16 91.68 512.15 90.62 509.38 90.73 508.82 88.61 505.38 87.5 500.78 88.18 499.41 86 498.39 82.79 495.77 80.82 495.16 77.89 495.51 75.93 494.31 72.86 493.46 72.72 492.29 73.54 490.31 72.94 489.64 73.19 487.61 72.22 486.09 70.2 484.72 68.35 484.75 66.73 484.05 65.03 482.66 63.94 482.72 61.82 481.64 59.83 480.22 61.04 477.32 60.76 475.6 60.98 474.02 59.27 471.18 56.32 470.83 55.53 471.47 52.76 471.43 52.29 472.26 49.9 471.83 48.95 471.25 47.49 471.37 45.28 470.23 42.73 470.15 41.38 471.36 39.43 471.55 38.41 470.89 35.96 471.4 33.97 469.46 32.92 467.44 30.41 467.2 28.89 468.97 27.1 469.75 26.44 471.67 25.14 474.06 22.7 474.97 24.12 476.71 25.61 477.14 26.76 475.28 28.93 475.51 30.09 476.44 29.71 477.93 31.08 477.88 30.88 479.66 28.47 481.82 28.48 483.07 27.73 486.22 25.36 487.36 21.8 487.71 20.32 488.64 19.05 488.9 18.05 487.97 15.26 487.77 11.28 484.95 9.31 483.96 8.83 482.61 4.89 479.45 4.03 478.22 1.91 478.35 1 476.63 1.12 475.91 2.77 473.1 4.54 471.64 5.63 470.18 5.64 469.11 3.93 466.75 3.71 464.71 4.28 463.34 3.74 461.53 3.69 459.67 4.66 458.47 4.75 456.94 6.26 454.97 6.78 453.79 5.85 452.37 5.91 451.48 4.95 449.7 4.71 447.77 5.82 446.03 8.18 443.29 8.6 441.56 7.65 439.75 10.85 438.15 11.46 436.47 14.54 435.43 16.53 435.28 20.54 436.13 24.84 436.19 24.29 433.7 22.85 433.37 20.8 433.65 18.48 429.78 16.9 428.33 14.6 422.8 14.85 421.62 12.6 420.47 11.19 420.2 11.17 418.54 10.21 416.14 9.26 415.1 11.08 413.57 9.79 411.54 9.48 409.97 10.63 408.71 11.16 407.05 11.21 405.3 12.01 404.2 12.97 404.21 14.5 402.79 17.07 398.47 20.09 396.19 23.07 394.95 23.22 393.3 22.5 391.08 23.38 389.34 23 386.31 22.77 380.26 23.61 378.46 26 376.76 26.16 375.56 27.57 374.39 29.54 374.21 32.14 371.98 35.06 371.35 36.21 370.58 43.54 371.17 43.84 371.82 46.13 372.56 51.22 373.28 51.7 374.65 55.37 376.24 58.3 376.55 59.77 376.34 62.85 378.31 65.38 380.42 66.51 377.63 68.02 375.83 70.62 374.61 70.91 373.29 72.34 372.41 73.8 372.35 75.59 372.92 77.16 372.21 79.27 372.86 83.71 373.22 83.83 374.71 85.11 373.88 85.83 374.55 87.71 373.7 91.43 375.24 92.82 376.46 94.8 376.91 96.22 376.25 97.03 376.5 100.22 375.65 101.78 376.15 103.07 377.07 104.76 375.59 107.07 375.71 107.65 374.47 108.98 373.28 112.38 372.53 113.68 373.25 115.18 373.24 116.76 373.78 119.42 373.52 120.18 372.05 121.89 370.41 123.83 370.64 126.04 371.34 127.45 370.82 127.58 368.58 128.49 367.69 129.84 367.71 132.19 368.94 133.15 370.59 134.21 370.54 138.34 371.68 139.25 372.54 140.67 372.4 143.94 370.9 146.53 371.94 148.82 373.75 150.66 373.6 152.13 375 153.45 377.26 156 378.14 156.08 380.07 157.94 381.7 158.57 383.06 158.61 384.45 157.96 386.43 158.64 388.24 162.04 391.85 163.24 393.43 162.7 395.87 162.93 398.52 164.13 400.12 165.25 400.67 167.3 402.43 Z" id="33020340"/>
<path d="M 281.48 300.26 281.99 302.13 283.2 302.53 283.82 304.36 284.99 305.8 285.95 307.78 287.15 308.92 289.43 309.8 290.98 311.57 292.04 312.15 289.38 314.57 288.36 313.64 285.26 312.46 283.36 313.24 281.84 316.01 281.51 317.28 279.69 319.17 277.97 320.39 276.74 320.63 274.46 320.2 272.82 318.95 270.38 314.67 269.72 315.47 268.33 323.36 269.09 323.85 269.08 325.37 270.01 327 271.94 327.06 275.11 327.72 275.97 331.01 278.08 331.75 278.36 333.61 278.1 335.79 278.71 336.73 279.19 340.38 276.91 339.98 274.74 341.49 272.62 341.99 270.96 343.3 266.98 343.43 267.42 344.98 268.5 346.71 269.14 349.57 268.47 350.2 264.67 351.85 262 355.58 262 357.59 263.55 360.3 263.61 364.61 263.96 365.41 262.45 366.91 261.84 369.31 262.41 370.85 260.89 371.75 259.39 373.45 260.04 375.1 260.21 377.16 261.31 379 263.58 380.53 262.46 381.68 258.39 383.84 255.79 386.19 252.41 386.81 250.8 389.46 246.58 389.36 246.2 387.64 244.6 385.36 241.92 383.89 239.74 385.52 237.44 386.45 236.29 387.54 234.43 385.63 233.58 385.54 232.21 387.06 230.53 386.83 227.42 388.17 226.87 389.87 225.86 391.32 226.09 393.13 225.54 395.31 226.17 398.55 225.12 401.28 223.48 401.34 222.45 401.93 220.36 399.77 215.37 398.71 213.65 397.25 211.47 394.59 210.82 394.17 208.72 394.18 207.89 393.78 206.05 394.87 203.89 395.62 202.23 394.35 201.18 392.19 199.22 390.9 198.09 390.64 196.87 391.28 196.24 390.36 193.44 391.03 192.21 389.5 190.31 390.77 186.85 390.81 186.05 390.43 185.38 388.83 183.59 388.21 182.69 386.32 180.61 385.24 178.59 386.21 177.73 389.89 178.38 391.33 176.9 392.11 175.73 394.34 175.71 395.35 174.51 396.22 174.34 397.66 172.76 398 171.31 399.28 171.22 400.07 168.2 402.52 167.3 402.43 165.25 400.67 164.13 400.12 162.93 398.52 162.7 395.87 163.24 393.43 162.04 391.85 158.64 388.24 157.96 386.43 158.61 384.45 158.57 383.06 157.94 381.7 156.08 380.07 156 378.14 153.45 377.26 152.13 375 150.66 373.6 148.82 373.75 146.53 371.94 143.94 370.9 140.67 372.4 139.25 372.54 138.34 371.68 134.21 370.54 133.15 370.59 132.19 368.94 129.84 367.71 128.49 367.69 127.58 368.58 127.45 370.82 126.04 371.34 123.83 370.64 121.89 370.41 120.18 372.05 119.42 373.52 116.76 373.78 115.18 373.24 113.68 373.25 112.38 372.53 108.98 373.28 107.65 374.47 107.07 375.71 104.76 375.59 103.07 377.07 101.78 376.15 100.22 375.65 97.03 376.5 96.22 376.25 94.8 376.91 92.82 376.46 91.43 375.24 87.71 373.7 85.83 374.55 85.11 373.88 83.83 374.71 83.71 373.22 79.27 372.86 77.16 372.21 75.59 372.92 73.8 372.35 72.34 372.41 70.91 373.29 70.62 374.61 68.02 375.83 66.51 377.63 65.38 380.42 62.85 378.31 59.77 376.34 58.3 376.55 55.37 376.24 51.7 374.65 51.22 373.28 46.13 372.56 43.84 371.82 43.54 371.17 36.21 370.58 35.06 371.35 34.28 366.03 35.13 364.46 35.08 362.4 34.62 361.09 35.01 359.95 37.88 358.42 39.81 356.01 41.21 353.41 43 351.87 47.39 350.95 50.55 347.74 53.96 347.16 54.98 346.15 56.47 345.75 58.67 343.73 58.51 341.18 59.4 339.8 60.94 339.16 61.59 337.81 63.47 336.69 64.69 334.44 66.23 333.37 66.36 332.61 65.44 330.56 65.94 328.93 64.71 326.84 65.17 324.82 63.91 322.09 64.67 320.5 64.5 318.64 62.93 315.67 63.38 314.26 63.08 310.67 62.2 307.6 62.61 306 61.8 304.35 60.27 302.87 59.67 300.39 59.75 298.55 59.36 296.06 58.25 292.05 56.5 291.03 55.53 289.24 52.91 287.88 52.19 285.86 53.72 281.35 56.01 280.02 56.73 277.97 58.32 276.28 62.79 276.17 67.48 275.42 70.96 278.21 73.24 279.02 74.43 278.78 76.84 280.95 80.25 279.72 82.21 280.58 83.42 281.74 85.46 282.19 87.09 281.98 88.99 282.81 91.51 282.31 92.98 282.8 93.88 282.34 94.88 282.86 96.65 282.77 99.69 285.68 101.43 286.8 103.39 286.46 105.47 286.61 107.58 284.62 111.14 284.15 112.43 282.84 114.28 283.12 115.85 282.83 116.89 281.93 120.61 280.75 123.49 281.72 125.05 280.64 126.87 278.22 129.52 278.27 133.52 280.62 137.41 280.5 138.23 281.86 139.24 282.38 140.75 282.28 143.88 283.02 145.58 285.88 148.08 286.52 149.94 287.66 151 287.42 155.38 284.73 157.43 283.2 158.76 282.87 160.99 283.44 163.82 282.13 164.49 281.13 165.87 280.31 170.3 279.88 172.72 278.54 174.16 279.34 175.34 279.02 176.61 279.68 178.13 279.1 179.32 279.35 181.44 278.64 183.14 278.62 185.83 278.13 186.56 279.76 187.55 280.58 189.29 283.55 193.75 284.25 195.68 285.34 197.03 287.34 199.56 288.98 201.93 289.01 202.89 289.99 202.74 290.96 204.37 293.39 205.42 297.6 206.1 298.62 211.05 300.11 212.12 299.96 212.46 298.72 214.7 296.49 216.5 296.43 219.33 294.93 220.73 294.53 222.87 292.8 224.53 293.45 227.48 293.51 231.52 294.85 235.54 297.88 238.54 296.83 240.62 292.19 241.44 291.32 243.3 290.57 244.7 291.06 246.86 290.13 248.96 290.34 253.65 289.51 255.02 291.55 257.02 292.62 259.04 292.17 260.74 293.62 263.41 294.05 263.56 295.88 264.8 296.64 266.57 296.33 270.33 296.99 271.86 296.94 272.9 298.18 273.11 299.2 275.02 298.94 276.7 297.82 278.07 299.3 279.6 300.28 281.48 300.26 Z" id="33020350"/>
<path d="M 222.92 143.6 224.56 148.68 224.85 149.47 227.01 152.21 229.49 157.01 232.18 164.14 232.88 166.51 234.08 168.85 235.73 172.98 237.23 178.43 240.64 185.46 241.96 187.96 243.34 189.83 245.62 193.8 250.15 197.73 252.55 200 255.28 200.72 259.2 204.99 261.78 207.23 263.86 208.66 268.56 210.55 271.68 215.5 272.28 222.89 272.61 230.28 281.82 237.67 287.37 245.06 287.86 246.82 289.9 252.45 290.02 254.42 291.1 258.34 294.98 263.78 296.02 267.23 297.55 268.49 298.62 270.37 302.09 273.6 300.68 275.57 299.56 276.35 299.53 277.79 300.54 279.29 299.99 281.95 297.82 282.87 297.52 285.13 295.99 285.54 294.82 285.17 294.4 286.76 292.78 288.96 291.44 291.32 290.51 293.83 288.45 294.5 284.62 296.87 283.59 298.49 281.48 300.26 279.6 300.28 278.07 299.3 276.7 297.82 275.02 298.94 273.11 299.2 272.9 298.18 271.86 296.94 270.33 296.99 266.57 296.33 264.8 296.64 263.56 295.88 263.41 294.05 260.74 293.62 259.04 292.17 257.02 292.62 255.02 291.55 253.65 289.51 248.96 290.34 246.86 290.13 244.7 291.06 243.3 290.57 241.44 291.32 240.62 292.19 238.54 296.83 235.54 297.88 231.52 294.85 227.48 293.51 224.53 293.45 222.87 292.8 220.73 294.53 219.33 294.93 216.5 296.43 214.7 296.49 212.46 298.72 212.12 299.96 211.05 300.11 206.1 298.62 205.42 297.6 204.37 293.39 202.74 290.96 202.89 289.99 201.93 289.01 199.56 288.98 197.03 287.34 195.68 285.34 193.75 284.25 189.29 283.55 187.55 280.58 186.56 279.76 185.83 278.13 183.14 278.62 181.44 278.64 179.32 279.35 178.13 279.1 176.61 279.68 175.34 279.02 174.16 279.34 172.72 278.54 170.3 279.88 165.87 280.31 164.49 281.13 163.82 282.13 160.99 283.44 158.76 282.87 157.43 283.2 155.38 284.73 151 287.42 149.94 287.66 148.08 286.52 145.58 285.88 143.88 283.02 140.75 282.28 139.24 282.38 138.23 281.86 137.41 280.5 133.52 280.62 129.52 278.27 126.87 278.22 125.05 280.64 123.49 281.72 120.61 280.75 116.89 281.93 115.85 282.83 114.28 283.12 112.43 282.84 111.14 284.15 107.58 284.62 105.47 286.61 103.39 286.46 101.43 286.8 99.69 285.68 96.65 282.77 94.88 282.86 93.88 282.34 92.98 282.8 91.51 282.31 88.99 282.81 87.09 281.98 85.46 282.19 83.42 281.74 82.21 280.58 80.25 279.72 76.84 280.95 74.43 278.78 73.24 279.02 70.96 278.21 67.48 275.42 67.72 271.75 68.69 269.54 68.99 267.86 70.33 265.78 71.41 265.05 72.37 263.62 73.52 263.14 74.88 258.68 76.35 257.73 77.14 255.63 79.07 254.23 79.57 250.97 80.23 248.83 80.32 246.2 79.7 245.81 76.8 240.74 77.03 238.3 77.9 237.49 79.92 237.71 80.81 235.84 80.78 234.45 81.36 233.11 81.5 230.92 83.17 230.8 87.52 228.57 87.94 227.7 89.63 226.33 90.84 226.42 96.59 225.46 98.65 224.89 98.88 223.99 100.72 223.85 100.57 221.56 101.75 218.34 104.3 216.4 105.95 217.05 106.86 216.33 108.23 217.16 109.01 215.48 113.53 214.85 114.94 210.71 116.42 208.81 117.27 206.49 117.33 204.14 116.02 202.85 116.12 199.82 115.63 197.44 116.06 194.1 113.84 191.1 113.4 189.52 112.05 188.7 108.59 184.92 104.62 184.2 103.66 184.46 102.5 182.73 100.56 181.35 99.33 179.96 99.12 177.82 98.21 177.24 97.09 175.54 96.12 173.12 96.17 172.02 97.55 170.33 96.99 167.64 95.63 165.52 95.26 163.75 93.81 163.49 89.92 160.93 89.14 161.36 87.11 161.05 86.81 160.51 84.62 159.78 82.24 159.89 79.91 159.56 78.45 158.36 74.34 156.57 72.83 155.4 72.02 154.23 70.45 152.53 70.48 147.98 70.25 145.78 69.64 143.64 71.13 140.83 70.27 137.01 70.63 134.65 71.4 132.05 73.08 130.24 76.72 129.23 78.88 127.62 80.16 127.05 80.81 125.8 83.34 123.1 84.18 121.35 86.17 118.81 85.75 116.59 86.28 114.77 87.05 114.22 87.14 112.62 86.2 111.58 86.91 109.1 87.06 101.57 86.56 100.62 86.98 98.56 89.82 93.81 90.04 92.02 91.32 91.53 92.69 91.86 94.78 88.92 94.75 86.67 95.69 85.26 95.73 83.98 96.63 82.97 95.92 81.65 97.1 79.84 99.11 79.44 99.88 78.31 100.2 76.36 101.66 76.04 102.08 73.93 103.08 72.35 102.62 70.55 105.02 69.14 106.02 68.01 106.49 65.79 107.69 64.96 109.11 64.96 110.04 65.53 111.62 65.54 114.07 66.48 115.16 68.99 116.19 69.53 118.41 68.4 120.95 68.19 122.09 67.49 122.43 64.19 123.57 62.99 123.98 60.42 124.57 59.42 124.47 56.99 125.05 55.57 124.2 54.6 125.13 48.51 126.94 47.37 127.88 46.09 129.05 43.65 128.54 42.29 130.16 41.84 131.87 40.23 132.21 37.47 131.78 35.47 132.37 34.1 131.33 31.9 131.96 30.48 131.33 29.41 131.61 28.35 132.83 28.21 133.96 26.94 133.94 25.79 134.92 25.13 135.5 22.03 136.76 20.25 136.29 19.6 136.58 17.9 136.02 17.12 136.19 15.04 137.21 14.53 138.59 10.66 140.71 9.08 141.81 9.24 144.64 6.93 146.85 6.52 148.63 3.2 150.63 1 151.47 1.95 151.66 3.48 151.79 4.72 150.99 6.73 150.69 8.44 150.66 11.9 150.95 16 153.21 23.38 154.76 30.76 156.96 30.75 158.76 38.05 160.86 51.11 159.67 52.82 160.89 60.32 162.03 64.68 162.48 67.33 163.88 67.75 164.46 70.87 165.52 74.7 168.55 83.11 169.36 85.67 170.02 89.88 171.76 92.67 172.59 94.45 175.58 98.45 177.22 100.02 178.91 102.64 180.88 106.39 182.28 108.41 185.18 113.18 187.93 116.15 189.96 117.39 191.84 120.03 195.54 123.27 199.7 125.97 203.38 129.13 207.13 132 209.17 134.21 215.52 138.43 217.88 140.45 222.6 143.2 222.92 143.6 Z" id="33020360"/>
<path d="M 452.79 318.23 454.27 318.35 456.21 317.62 457.3 316.49 458.51 316.5 459.25 319.32 459.04 320.34 459.42 322.44 460.37 324.43 460.73 326.66 459.32 330.01 458.75 334.25 458.92 335.79 458.02 336.96 458.11 338.91 456.82 341.01 457.08 342.53 456.33 345.95 454.79 349.85 454.49 355.04 455.92 356.92 456.21 359.01 457.75 362.2 457.91 363.9 457.31 366.96 456.28 369.7 455.5 370.85 451.7 370.32 450.14 370.61 447.33 371.72 444.85 370.29 443.42 371.39 441.4 371.05 439.24 372.46 437.44 372.27 434.8 374.69 433.55 373.77 431.11 373.54 430.3 373.04 428.99 373.47 427.46 373.17 427.02 373.95 424.58 372.81 423.75 374.98 422.48 375.64 422.82 377.17 421.58 378.8 422.76 383.78 423.66 384.72 424.95 384.97 424.87 386.47 424.1 389.39 426.12 390.25 426.07 392.89 427.6 392.83 428.22 393.91 430.06 393.77 432.94 395.28 433.79 394.56 434.93 395.39 437.74 395.58 437.87 397.56 440.06 398.04 442.29 400.24 436.7 403.39 431.3 407.63 430.06 409.86 429.45 411.63 428.94 415.02 430.56 418.57 428.84 437.18 427.96 438.76 424.82 441.79 422.56 444.57 418.73 448.12 416.95 451.96 416.17 454.96 415.98 457.58 416.27 460.31 412.56 459.74 409.5 459.82 406.03 461.5 404.5 461.62 400.26 460.7 395.22 461.06 393.29 461.03 391.03 460.52 390.17 457.4 389.22 456.06 385.88 454.12 381.79 450.86 380.49 448.19 379.14 444.57 377.36 443.11 376.57 441.84 373.54 437.93 372.73 437.19 371.38 434.53 369.36 429.02 367.6 426.29 365.86 422.72 363.67 415.02 362.19 413.16 360.68 410.08 361.43 409.79 359.65 402.54 359.21 401.5 354.98 394.09 354.1 391.83 351.99 388.3 350.07 384.49 348.76 381.48 347.23 378.72 344.43 374.77 342.75 371.3 342.28 369.85 341.8 364.05 342.65 361.04 343.77 359.31 347.86 354.36 348.38 354.12 352.17 348.57 354.1 346.78 362.16 342.02 363.42 341.15 370.62 337.57 377.42 333.35 380.93 329.87 385.89 322.69 388.6 318.42 389.64 316.04 390.78 312.31 390.03 307.54 391.72 311.38 393.78 309.99 395.94 305.72 396.72 305.78 397.51 303.33 398.93 302.8 400.57 300.83 402.35 300.84 404.63 299.94 406.66 299.69 409.03 298.24 410.11 296.45 412.06 296.3 413.99 296.73 416.37 296.6 417.11 297.72 419.46 298.93 423.02 297.91 424.91 298.95 428.01 298.12 430.46 303.14 433.82 303.62 434.99 304.53 436.71 304.66 439.13 304.29 439.69 305.24 439.4 307.08 438.02 308.22 437.47 309.47 437.62 311.44 439.86 311.69 440.34 313.14 442 313.68 442.77 314.59 442.21 316.2 442.84 317.02 444.69 317.36 445.32 319.94 446.03 321.04 445.81 323.66 448.04 325.26 450.46 325.8 451.31 323.91 451.2 323.18 452.11 320.39 452 319.01 452.79 318.23 Z" id="33020380"/>
<path d="M 706.25 336.95 708.52 337.31 709.55 338.51 709.6 341.37 711.64 343.37 712.45 345.06 712.05 346.75 712.47 348.78 710.87 349.96 711.19 352.92 710.89 356.31 712.1 358.69 714.58 360.36 715.92 362.57 716.26 364.28 718.16 367.97 719.84 371.75 719.55 372.86 717.46 374.43 716.62 376.76 715.55 378.3 717.32 379.07 718.41 381.27 718.69 383.58 719.82 384.1 722.06 385.98 722.71 388.22 721.31 388.73 719.99 388.55 718.18 389.46 717.73 390.62 715.99 391.84 715.61 393.99 714.8 395.12 717.9 396.57 720.25 399.26 720.08 400.94 719.19 402.49 718.23 405.1 716.85 406.61 716.46 409.26 716.72 412.85 716.3 413.89 714.45 414.81 712.73 415.19 711.21 416.43 707.54 418.17 705.54 421 705.5 422.63 704.51 423.27 701.79 423.29 700.24 425.21 700.3 426.97 699.76 429.16 700.2 431.98 701.98 433.19 703.29 434.57 703.85 437.66 703.88 441.66 704.43 443.81 709.66 445.01 711.64 444.68 712.81 445.36 713.49 446.56 713.41 448.25 714.32 453 714.44 455.77 715.79 457.05 719.06 457.41 722.9 457.57 723.27 463.41 724.19 465.46 724.41 465.66 724.92 470.42 724.9 472.59 723.65 478.22 721.47 488.76 719.85 494.24 717.53 505.12 718.21 508.79 718.75 510.58 719.29 515.44 719.26 522 718.53 526.7 719.07 529.74 718.1 536.64 715.78 541.77 715.32 543.3 710.14 542.33 706.31 540.86 699.24 538.78 696.19 536.79 689.75 531.8 688.68 530.73 685.39 528.7 683.4 525.92 682.38 523.79 681.46 522.68 679.28 520.98 675.36 519.82 674.15 518.27 670.84 518.36 665.03 521.12 661.83 523.01 655.59 526.45 655.01 527.66 645.5 530.29 641.96 530.49 644.94 532.3 640.3 530.23 637.97 527.92 636.78 525.63 631.06 518.85 629.88 517.83 628.17 517.79 627.13 515.9 626.43 512.82 625.62 512.93 623.12 508.51 621.89 508.08 619.36 503.9 619.79 503.6 616.14 500.56 612.6 498.65 609.53 497.87 606.55 497.55 601.8 498 599.46 498 597.34 497.31 592.56 495.26 590.84 494.34 589.84 493.04 589.5 491.17 588.47 488.02 586.7 481.52 585.22 479.88 581.32 473.88 578.55 468.12 578.8 466.97 577.08 461.46 576.84 458.39 576.37 455.85 577.27 452.41 576.69 450.29 574.81 446.33 573.66 444.6 572.91 442.58 571.54 440.28 570.22 437.18 568.93 435.49 566.04 432.88 563.04 428.13 560.89 425.89 558.72 422.4 555.86 420.13 553.13 417.53 549.9 415.69 547.97 414.94 543.37 414.45 537.87 413.12 535.31 411.59 534.23 410.3 531.99 407.62 529.5 406.04 524.88 403.45 520.65 400.24 520.28 399.09 515.38 392.85 513.22 390.83 508.07 388.68 506.87 388.48 504.52 388.84 501.81 390.22 498.99 392.52 496.37 394.13 492.33 395.96 489.42 396.9 482.79 397.84 479.23 398.1 476.05 398.6 474.12 398.65 468.79 398.25 465.26 398.45 459.72 398.15 450.49 397.92 446.42 398.02 443.53 399 442.29 400.24 440.06 398.04 437.87 397.56 437.74 395.58 434.93 395.39 433.79 394.56 432.94 395.28 430.06 393.77 428.22 393.91 427.6 392.83 426.07 392.89 426.12 390.25 424.1 389.39 424.87 386.47 424.95 384.97 423.66 384.72 422.76 383.78 421.58 378.8 422.82 377.17 422.48 375.64 423.75 374.98 424.58 372.81 427.02 373.95 427.46 373.17 428.99 373.47 430.3 373.04 431.11 373.54 433.55 373.77 434.8 374.69 437.44 372.27 439.24 372.46 441.4 371.05 443.42 371.39 444.85 370.29 447.33 371.72 450.14 370.61 451.7 370.32 455.5 370.85 456.28 369.7 457.31 366.96 457.91 363.9 457.75 362.2 456.21 359.01 455.92 356.92 454.49 355.04 454.79 349.85 456.33 345.95 457.08 342.53 456.82 341.01 458.11 338.91 458.02 336.96 458.92 335.79 458.75 334.25 459.32 330.01 460.73 326.66 460.37 324.43 459.42 322.44 459.04 320.34 459.25 319.32 458.51 316.5 460.1 316.88 461.17 314.97 461.4 313.38 463.86 314.08 465.08 315.64 467.72 315.83 468.13 315.06 473.08 315.91 474.33 317.52 473.83 318.61 474.29 320.03 475.81 320.3 477.04 318.86 478.27 318.68 480.15 320.87 480.87 320.24 482.57 320.62 484.6 319.03 485.45 317.08 485.27 316.02 486.15 315.45 487.22 316.27 488.65 315.27 492.67 315.01 493.6 313.63 495.84 311.64 495.97 310.48 497.33 309.03 496.9 307.91 499.32 306.89 499.48 307.75 501.93 308.43 503.47 310.5 504.75 311.65 506.14 312.24 506.55 314.2 506.34 315.15 506.88 318.08 507.57 320.32 508.21 320.6 509.85 319.06 511.92 320.42 512.66 320.45 515.01 324.05 517.64 323.22 518.71 323.67 519.39 325.55 519.54 327.27 519.21 328.65 521.89 331.35 522.82 330.01 524.51 329.7 525.53 328.99 528.76 328.31 530.41 327.44 533.86 329.16 536.16 328.65 537.33 327.85 539.25 327.7 540.58 326.23 541.07 325.02 544.51 324.94 545.74 325.37 548.95 325.78 550.28 325.6 552.63 323.53 555.94 321.87 558.45 319.03 559.58 317.4 561.05 317.37 562.84 315.15 563.27 315.46 567.17 315.22 569.02 315.59 571.04 317.38 571.94 317.71 576.28 317.36 580.83 318.67 582.2 319.38 585.06 319.65 587.55 318.94 590.1 316.71 591.43 316.91 594.87 318.18 596.09 318.2 603.08 315.87 604.3 314.22 605.58 314.11 606.6 314.73 608.78 313.09 609.99 313.01 611.58 311.3 613.94 310.17 615.55 310 616.95 310.43 619.41 309.96 621.01 308.97 624.25 310.35 627.7 310.94 629.7 310.16 630.63 309.32 633.46 308.22 635.87 308.19 636.65 307.54 638.57 307.39 640.47 308.05 639.86 315.9 640.1 319 641.64 321.21 642.48 325.32 642.45 326.16 643.59 328.17 643.69 329.14 645.78 332.84 647.08 334.71 648.64 334.71 651.09 335.96 652.33 336.01 655.02 340.17 657.64 341.35 659.05 343.94 661.07 346.17 665.66 347.68 669.85 346.48 672.79 344.71 676.17 345.29 677.06 346.03 678.8 345.94 680.98 346.97 683.5 345.45 685.17 344.87 688.35 343.19 689.67 341.66 689.9 340.44 690.99 338.33 692.56 337.9 693.66 338.16 694.7 336.64 698.18 336.32 699.13 335.82 700.93 335.85 703.13 336.87 706.25 336.95 Z" id="33020390"/>
<path d="M 697.82 264.41 699.33 266.34 700.54 267.05 702.74 267.47 705.49 271.08 705.88 272.03 707.58 273.16 708.44 276.1 712.97 280.2 713 281.98 713.1 282.36 710.7 284.4 708.97 284.82 709.43 287.87 708.07 289.95 707.84 291.07 709.64 293.55 711.09 296.12 711.82 298.74 714.08 301.4 713.63 305.82 712.7 306.78 712.42 308.64 711.33 309.45 711.48 311.35 709.79 313.01 708.99 315.14 709.58 318.47 711.05 321.01 710.63 324.13 709.96 325.03 708 331.74 706.97 333.78 706.87 335.81 706.25 336.95 703.13 336.87 700.93 335.85 699.13 335.82 698.18 336.32 694.7 336.64 693.66 338.16 692.56 337.9 690.99 338.33 689.9 340.44 689.67 341.66 688.35 343.19 685.17 344.87 683.5 345.45 680.98 346.97 678.8 345.94 677.06 346.03 676.17 345.29 672.79 344.71 669.85 346.48 665.66 347.68 661.07 346.17 659.05 343.94 657.64 341.35 655.02 340.17 652.33 336.01 651.09 335.96 648.64 334.71 647.08 334.71 645.78 332.84 643.69 329.14 643.59 328.17 642.45 326.16 642.48 325.32 641.64 321.21 640.1 319 639.86 315.9 640.47 308.05 638.57 307.39 636.65 307.54 635.87 308.19 633.46 308.22 630.63 309.32 629.7 310.16 627.7 310.94 624.25 310.35 621.01 308.97 619.41 309.96 616.95 310.43 615.55 310 613.94 310.17 611.58 311.3 609.99 313.01 608.78 313.09 606.6 314.73 605.58 314.11 604.3 314.22 603.08 315.87 596.09 318.2 594.87 318.18 591.43 316.91 590.1 316.71 587.55 318.94 585.06 319.65 582.2 319.38 580.83 318.67 576.28 317.36 571.94 317.71 571.04 317.38 569.02 315.59 567.17 315.22 563.27 315.46 562.84 315.15 561.05 317.37 559.58 317.4 558.45 319.03 555.94 321.87 552.63 323.53 550.28 325.6 548.95 325.78 545.74 325.37 544.51 324.94 541.07 325.02 540.58 326.23 539.25 327.7 537.33 327.85 536.16 328.65 533.86 329.16 530.41 327.44 528.76 328.31 525.53 328.99 524.51 329.7 522.82 330.01 521.89 331.35 519.21 328.65 519.54 327.27 519.39 325.55 518.71 323.67 517.64 323.22 515.01 324.05 512.66 320.45 511.92 320.42 509.85 319.06 508.21 320.6 507.57 320.32 506.88 318.08 506.34 315.15 506.55 314.2 506.14 312.24 504.75 311.65 503.47 310.5 501.93 308.43 499.48 307.75 499.32 306.89 496.9 307.91 497.33 309.03 495.97 310.48 495.84 311.64 493.6 313.63 492.67 315.01 488.65 315.27 487.22 316.27 486.15 315.45 485.27 316.02 485.45 317.08 484.6 319.03 482.57 320.62 480.87 320.24 480.15 320.87 478.27 318.68 477.04 318.86 475.81 320.3 474.29 320.03 473.83 318.61 474.33 317.52 473.08 315.91 468.13 315.06 467.72 315.83 465.08 315.64 463.86 314.08 461.4 313.38 461.17 314.97 460.1 316.88 458.51 316.5 457.3 316.49 456.21 317.62 454.27 318.35 452.79 318.23 453.34 317.26 452.55 315.72 453.19 313.26 452.61 312.23 453.8 308.86 453.45 307.39 453.73 305.82 453.49 302.98 454.45 301.26 454.14 299.08 453.41 298.4 454.01 295.79 452.99 293.02 453.19 290.69 450.93 289.04 446.96 288.86 448.63 285.04 447.51 284.99 445.31 285.93 444.6 282.27 446.58 281.82 446.42 279.74 445.88 277.74 446.55 277.11 447.12 274.5 446.43 272.93 451.43 271.34 452.43 271.64 454.09 271.02 455.75 269.89 458.28 270.77 462.09 269.37 463.55 268.19 465.91 267.99 467.8 267.03 472.68 262.96 474.02 260.52 474.34 259.02 477.7 256.59 480.11 255.18 483.53 258.28 485.73 255.46 488.12 254.87 488.31 252.58 489.09 252.2 490.21 252.99 491.01 251.74 492.74 250.84 493.94 251.19 497.83 253.2 499.45 250.68 499.04 247.61 499.66 246.42 501.73 245.05 502.07 241.89 503.09 241.16 502.96 239.75 503.51 237.71 502.74 237.1 502.49 234.8 497.9 235.03 496.61 233.39 496.58 232.26 497.51 231.25 497.88 229.15 499.65 226.34 498.55 225.31 498.76 223.88 497.48 222.14 497.12 220.64 498.72 218.73 499.36 215.85 499.42 213.39 499.85 212.12 497.99 209.86 496.49 207.53 495.39 207.36 493.12 204.9 493.66 203.83 495.87 202.04 495.91 201.38 497.62 200.47 498.56 197.33 498.37 194.07 497.78 191.11 496.93 190.05 496.51 187.95 494.9 186.59 495.63 183.42 494.77 182.09 496.47 179.72 497.35 177.3 498.41 175.72 500.38 175.69 501.22 176.2 505.98 175.45 508.91 173.89 509.86 171.76 509.55 170.83 510.78 168.06 512.28 166.45 514.7 165.2 515.95 163.35 518.14 161.79 518.55 159.55 519.58 159.32 520.44 158.3 521.7 157.8 523.18 156.26 521.93 153.6 522.14 151.41 523.01 148.91 523.97 147.47 525.52 147.39 528.4 147.88 530.37 146.57 531.14 147.72 534.6 148.88 536.03 152.84 537.44 155.27 538.03 156.86 539.95 159.06 541.28 163.96 541.64 166.26 543.24 168.98 546.38 168.33 548.74 168.19 549.85 168.88 550 170.68 550.68 173.59 549.16 176.7 547.83 178.13 547.46 181.51 547.72 183.21 549.31 184.87 549.01 186.98 549.1 191.15 548.06 193.8 546.96 195.64 547.97 199.25 547.37 202.17 547.61 203.76 548.63 205.56 548.23 207.39 549.04 208.94 551.12 210.36 552.47 210.19 555.22 210.47 556.57 210.25 559.21 211.12 560.94 212.03 562.74 214.25 564.21 213.42 565.06 212.33 570.93 215.81 571.63 220.64 572.52 222.61 573.31 227.19 574.44 229.42 574.95 231.71 577.41 233.64 578.86 235.75 580.78 234.84 583.96 234.82 588.41 235.47 590.03 236.62 594.05 236.18 591.36 233.36 591.46 230.99 590.36 228.9 592.56 225.78 592.95 222.47 591.92 219.62 592.09 216.77 593.06 213.22 594.26 210.83 596.17 209.76 597.76 209.34 598.9 207.11 601.54 203.15 603.04 199.26 604.75 195.59 607.69 198.27 612.21 200.37 618.15 201.73 622.51 202.41 626.26 203.18 628.83 204.41 631.92 207.28 634.23 207.57 637.27 206.35 641.16 202.98 642.94 200.43 645.38 199.59 647.06 199.89 647.84 200.89 648.3 204.62 648.42 207.44 651.46 212.84 651.87 215.57 651.09 217.3 650.06 218.04 647.77 218.36 647.04 219.57 647.08 221.97 650.14 226.26 654.55 230.96 657.32 233.64 658.48 235.88 659.02 237.94 661.31 237.54 664.9 237.33 670.09 236.42 673.76 236.69 676.1 238.33 676.34 239.77 674.07 242.91 670.48 249.02 669.46 253.21 670.03 254.42 672.38 255.29 672.36 258.76 674.08 258.94 676.1 257.92 678.73 258.56 679.94 259.6 682.52 260.63 684.46 259.46 686.19 259.27 688.09 260.65 690.77 260.57 692.23 261.3 693.34 262.85 697.09 263.39 697.82 264.41 Z" id="33020400"/>
<path d="M 450.22 99.52 452.6 102.19 455.64 101.72 459.04 103.24 461.39 102.3 462.9 103.89 463.97 104.01 468.32 102.5 471.52 102.62 473.11 103.97 475.56 105.32 477.07 106.73 479.01 106.57 481.61 105.3 483.29 105.8 484.87 105.15 487.62 106.17 489.39 107.29 492.76 105.83 496.31 106.03 497.41 107.4 500.47 108.39 504.86 108.95 504.97 111.01 506.2 112.42 507.09 112.49 509.61 113.68 511.49 114.99 514.7 115.3 516.84 116.14 519.28 117.95 519.14 120.65 520.48 122.7 520.42 124.08 521.83 127.48 524.05 129.23 524.5 131.31 523.96 132.22 525.12 134.52 524.58 135.68 524.93 138.76 523.7 141.7 522.94 144.65 523.31 146.73 523.97 147.47 523.01 148.91 522.14 151.41 521.93 153.6 523.18 156.26 521.7 157.8 520.44 158.3 519.58 159.32 518.55 159.55 518.14 161.79 515.95 163.35 514.7 165.2 512.28 166.45 510.78 168.06 509.55 170.83 509.86 171.76 508.91 173.89 505.98 175.45 501.22 176.2 500.38 175.69 498.41 175.72 497.35 177.3 496.47 179.72 494.77 182.09 495.63 183.42 494.9 186.59 496.51 187.95 496.93 190.05 497.78 191.11 498.37 194.07 498.56 197.33 497.62 200.47 495.91 201.38 495.87 202.04 493.66 203.83 493.12 204.9 495.39 207.36 496.49 207.53 497.99 209.86 499.85 212.12 499.42 213.39 499.36 215.85 498.72 218.73 497.12 220.64 497.48 222.14 498.76 223.88 498.55 225.31 499.65 226.34 497.88 229.15 497.51 231.25 496.58 232.26 496.61 233.39 497.9 235.03 502.49 234.8 502.74 237.1 503.51 237.71 502.96 239.75 503.09 241.16 502.07 241.89 501.73 245.05 499.66 246.42 499.04 247.61 499.45 250.68 497.83 253.2 493.94 251.19 492.74 250.84 491.01 251.74 490.21 252.99 489.09 252.2 488.31 252.58 488.12 254.87 485.73 255.46 483.53 258.28 480.11 255.18 477.7 256.59 474.34 259.02 474.02 260.52 472.68 262.96 467.8 267.03 465.91 267.99 463.55 268.19 462.09 269.37 458.28 270.77 455.75 269.89 454.09 271.02 452.43 271.64 451.43 271.34 446.43 272.93 447.12 274.5 446.55 277.11 445.88 277.74 446.42 279.74 446.58 281.82 444.6 282.27 445.31 285.93 447.51 284.99 448.63 285.04 446.96 288.86 450.93 289.04 453.19 290.69 452.99 293.02 454.01 295.79 453.41 298.4 454.14 299.08 454.45 301.26 453.49 302.98 453.73 305.82 453.45 307.39 453.8 308.86 452.61 312.23 453.19 313.26 452.55 315.72 453.34 317.26 452.79 318.23 452 319.01 452.11 320.39 451.2 323.18 451.31 323.91 450.46 325.8 448.04 325.26 445.81 323.66 446.03 321.04 445.32 319.94 444.69 317.36 442.84 317.02 442.21 316.2 442.77 314.59 442 313.68 440.34 313.14 439.86 311.69 437.62 311.44 437.47 309.47 438.02 308.22 439.4 307.08 439.69 305.24 439.13 304.29 436.71 304.66 434.99 304.53 433.82 303.62 430.46 303.14 428.01 298.12 424.91 298.95 423.02 297.91 419.46 298.93 417.11 297.72 416.37 296.6 413.99 296.73 412.06 296.3 410.11 296.45 409.03 298.24 406.66 299.69 404.63 299.94 402.35 300.84 400.57 300.83 398.93 302.8 397.51 303.33 396.72 305.78 395.94 305.72 393.78 309.99 391.72 311.38 390.03 307.54 389.06 304.73 387.94 299.41 385.59 293.86 384.02 289.81 382.65 286.99 381.73 285.8 381.71 284.48 379.87 284.57 378.19 284.06 378.08 282.51 377.21 281.33 380.03 281.3 379.92 275.44 380.89 274.09 380.45 271.13 381.36 270.14 382.17 267.82 382.33 262.79 384.52 262.07 385.21 260.82 388.96 258.23 386.25 255.35 386.69 253.99 386.89 251.03 386.48 249.62 385.33 249.13 385.57 248.05 385.49 245.16 387.64 242.24 389.28 241.75 390.58 240.45 391.87 241.42 393.57 240.8 395.25 240.82 395.6 239.94 397.2 240.13 398.22 238.77 400.27 237.33 400.99 238.2 402.23 236.96 402.58 235.47 405.21 234.84 405.77 233.12 406.43 229.26 407 227.72 410.69 225.65 411.45 223.82 412.71 222.92 413.25 220.92 412.46 219.38 413.33 218.48 412.85 216.98 413.66 215.53 412.85 212.57 413.53 210.86 412.27 207.37 412.58 206.73 411.43 205.6 411.45 204.12 410.47 203.25 409.56 199.46 409.93 198.08 409.43 195.56 409.43 193.56 408.4 192.28 406.49 190.7 405.92 187.41 404.58 185.25 404.02 184.98 402.76 182.55 401.27 178.72 400.53 178.15 400.6 175.62 401.15 174.49 401.24 172.85 402.16 172.57 402.77 170.55 403.93 169.36 403.41 166.61 402.56 164.73 403.47 163.41 403.3 161.84 402.42 160.39 401.61 157.31 400.69 156 399.99 153.49 400.39 151.23 402.09 149.44 401.85 148.69 402.7 147.3 402.2 145.41 402.76 144.48 401.85 142.24 401.81 140.37 401.21 138.44 400.36 138.18 399.52 135.95 401.9 135.41 403.02 134.39 404.46 133.88 405.52 132.16 407.24 130.83 408.35 129.17 410 128.05 410.41 127.23 410.42 125.18 412.27 121.17 412.43 119.67 413.56 117.44 413.79 113.78 412.83 111.11 413.85 110.75 417.25 107.62 418.74 102.37 418.78 100.43 420.07 98.48 420.72 98.16 421.17 96.52 425.71 95.65 428.33 94.26 431.65 92.82 435.54 95.51 438.01 96.73 441.15 98.91 442.36 100.6 443.14 100.72 445.07 102.78 446.18 103.44 446.82 102.33 450.22 99.52 Z" id="33020410"/>
<path d="M 405.52 132.16 404.46 133.88 403.02 134.39 401.9 135.41 399.52 135.95 400.36 138.18 401.21 138.44 401.81 140.37 401.85 142.24 402.76 144.48 402.2 145.41 402.7 147.3 401.85 148.69 402.09 149.44 400.39 151.23 399.99 153.49 400.69 156 401.61 157.31 402.42 160.39 403.3 161.84 403.47 163.41 402.56 164.73 403.41 166.61 403.93 169.36 402.77 170.55 402.16 172.57 401.24 172.85 401.15 174.49 400.6 175.62 400.53 178.15 401.27 178.72 402.76 182.55 404.02 184.98 404.58 185.25 405.92 187.41 406.49 190.7 408.4 192.28 409.43 193.56 409.43 195.56 409.93 198.08 409.56 199.46 410.47 203.25 411.45 204.12 411.43 205.6 412.58 206.73 412.27 207.37 413.53 210.86 412.85 212.57 413.66 215.53 412.85 216.98 413.33 218.48 412.46 219.38 413.25 220.92 412.71 222.92 411.45 223.82 410.69 225.65 407 227.72 406.43 229.26 405.77 233.12 405.21 234.84 402.58 235.47 402.23 236.96 400.99 238.2 400.27 237.33 398.22 238.77 397.2 240.13 395.6 239.94 395.25 240.82 393.57 240.8 391.87 241.42 390.58 240.45 389.28 241.75 387.64 242.24 385.49 245.16 385.57 248.05 385.33 249.13 386.48 249.62 386.89 251.03 386.69 253.99 386.25 255.35 388.96 258.23 385.21 260.82 384.52 262.07 382.33 262.79 382.17 267.82 381.36 270.14 380.45 271.13 380.89 274.09 379.92 275.44 380.03 281.3 377.21 281.33 376.39 282.2 373 279.78 371.08 279.27 369.22 277.59 368.89 274.61 366.87 270.16 365.34 268.12 364.44 267.7 359.85 266.67 356.73 267.1 353.32 269.87 353.28 271.73 354.47 274.61 349.96 274.63 348.04 276.61 341.14 278.94 335.64 278.88 332.21 278.38 329.39 278.36 325.45 277.97 324.4 277.44 323.27 275.28 318.87 270.81 313.51 267.16 309.77 266.31 307.52 266.05 301.87 264.59 301.09 265.32 298.71 263.74 294.98 263.78 291.1 258.34 290.02 254.42 289.9 252.45 287.86 246.82 287.37 245.06 281.82 237.67 272.61 230.28 272.28 222.89 271.68 215.5 268.56 210.55 263.86 208.66 261.78 207.23 259.2 204.99 255.28 200.72 252.55 200 250.15 197.73 245.62 193.8 243.34 189.83 241.96 187.96 240.64 185.46 237.23 178.43 235.73 172.98 234.08 168.85 232.88 166.51 232.18 164.14 229.49 157.01 227.01 152.21 224.85 149.47 224.56 148.68 222.92 143.6 223.45 145.22 226.24 146.9 230.48 144.24 232.49 142.06 236 143.03 239.57 142.51 242.49 143.56 245.17 144.84 246.12 144.98 251.36 141.83 254.75 139.16 256.58 138.85 259.2 139.11 262.4 140.23 268.43 139.86 271.89 138.7 274.94 136.27 279.32 132.32 281.98 130.63 284.89 128.24 286.28 128.75 289.86 128.15 290.77 127.55 293.96 127.5 299.48 129.08 304.6 129.36 306.58 128.3 310.21 128.29 313.73 127.63 316.48 126.79 321 126.55 324.61 124.74 325.36 123.96 326.1 122.1 326.31 119.02 327.18 115.38 327.93 114.51 328.35 112.92 329.5 111.69 331.36 111.22 333.04 111.36 333.82 112.05 333.85 116.07 334.68 118.94 335.63 119.35 340.35 119.39 342.01 120.79 343.77 121.39 344.58 120.4 344.65 118.97 343.83 114.71 343.85 113.15 344.75 109.7 346.17 108.47 347.32 108.08 348.37 106.93 351.01 106.68 353.31 107.06 353.97 106.77 356.76 104.15 358.76 103.27 361.23 102.79 363.33 103.62 366.18 103.94 367.48 105.28 369.35 106.02 372.76 107.91 374.57 106.96 377.42 107.39 379.09 107.97 379.95 107.73 382.18 108.99 385.11 109.27 386.51 111.16 388.1 112.17 391.7 113.03 393.47 115.41 394.43 115.58 396.47 117.16 397.44 117.39 398.23 118.48 399.73 119.35 401.41 123 402.51 124.74 403.66 127.33 404.7 130.86 405.52 132.16 Z" id="33020420"/>
<path d="M 382.82 492.53 378.67 491.87 376.95 492.4 375.69 494.92 376.36 498.44 375.35 502.59 375.76 505.06 375.37 507.58 373.92 509.12 373.37 511.08 371.51 512.9 369.75 513.89 369.72 515.1 372.94 516.29 377.22 518.32 377.75 519.46 380.06 520.91 379.61 521.77 378 521.9 378.12 523.28 378.99 523.96 378.13 527.03 377.09 527.9 375.27 527.98 372.87 528.92 371.95 528.42 370.11 530.56 369.4 531.99 374.52 535.79 376.18 536.87 376.01 538.29 374.77 541.68 372.53 543.14 370.83 545.3 370.14 547.04 370.4 551.97 369.69 553.18 370.18 553.82 372.81 554.26 374.97 554.98 377.58 557.5 377.68 559.52 376.17 561.46 374.03 563.21 371.88 566.25 371.98 568.48 370.57 570.29 369.72 570.5 369.02 572.03 366.08 572.08 364.63 573.88 366.41 576.25 365.87 577.7 366.77 581.73 368.22 582.65 369.71 584.5 370.76 587.33 373.9 590.39 374.92 591.66 376.79 591.06 379.11 590.95 380.46 592.25 385.68 593.11 388.68 594.94 391.59 597.11 394.43 598.08 395.45 597.84 398.74 598.5 399.92 599.15 402.23 598.87 404.82 601.27 405.44 603.78 406.65 605.28 406.76 606.15 409.29 606.13 409.59 608.15 412 607.55 413.29 607.93 413.82 608.88 416.28 607.88 416.93 608.16 420.06 608.27 422.01 611.91 423.67 613.12 424.98 612.92 426.45 613.45 429.14 613.09 430.33 612.33 434.19 612.62 435.44 613.37 436.1 613.73 430.99 619.07 431.13 620.64 432.22 623.61 434.97 626.42 437.19 628.06 439.55 629.02 442.6 629.31 446.43 631.04 447.05 631.05 449.88 632.53 450.81 632.35 452.82 634.96 454.19 638.04 453.44 638.34 453.32 640.08 453.75 642.26 453.21 644.24 450.97 645.91 448.97 646 446.43 644.76 445.83 643.85 442.24 640.99 437.19 636.47 432.83 633.61 430.49 632.54 424.74 632.31 422.91 632.76 422.16 633.52 420.99 636.7 420.66 639.2 416.82 644.09 413.36 649.66 412.38 651.67 409.2 654.72 405.67 658.87 403.48 660.33 400.27 661.83 387.07 664.16 384.4 664.47 382.91 658.93 381.84 653.14 378.31 653.4 372.42 653.38 369.63 653.8 366.52 653.8 363.28 651.86 361.69 651.24 359.36 650.83 356.52 651.41 355.6 651.99 352.99 652.63 350.38 649.59 347.79 646.08 346.14 645.38 345.49 643.28 344.75 639.11 343.99 638.22 343.53 634.89 341.1 632.7 339.55 632.03 338.08 630.17 334.44 628.64 333.75 626.03 332.35 625.78 331.29 626.6 329.47 626.63 326.3 626.01 323.25 626.2 318.7 622.73 315.67 622.24 314.12 620.06 311.83 619.43 309.79 617.26 310.09 616.12 311.81 614.51 312.75 612.8 313.59 612.33 315.06 610.51 316.58 609.53 316.57 608.78 313.03 604.58 314.52 602.06 317.02 600.75 316.23 599.44 316.03 597.44 316.98 596.27 317.01 593.13 318.17 590.66 317.89 588.39 316.79 587.08 315.75 586.88 312.67 583.68 309.09 583.55 307.38 582.78 305.98 583.12 305.31 583.9 304.23 582.12 304.21 580 302.38 577.82 300.37 576.73 300.56 575.67 300.06 573.47 299.34 572.83 300.12 569.61 302 568.65 301.44 567.73 301.12 563.64 298.9 562.98 296.99 563.73 295.31 562.43 294.23 562.65 291.74 562.27 290.01 562.58 289.35 559 287.46 559.44 286.46 557.72 282.35 556.44 281.52 558.2 280.58 558.1 280.01 559.38 280.17 560.54 276.35 561.57 273.24 560.98 271.56 562.47 270.54 562.09 266.55 562.11 265.11 563.34 262.47 564.52 260.56 561.51 259.6 561.45 258.68 560.44 259.01 558.5 258.7 556.93 258.89 555 258.39 554.35 257.68 551.51 254.4 550.99 251.39 550.09 248 548.36 247.19 546.21 247.34 544 246.86 542.36 248.11 541.63 249.11 539.64 250.28 535.62 251.41 535.03 252.49 533.74 252.24 532.17 253.86 531.68 255.89 529.01 257.04 528.06 259.15 527.2 259.67 526.18 261.79 524.26 262.53 521.9 265.08 521.24 266.02 520.68 266.83 518.38 264.11 516.71 265.4 515.86 265.57 513.67 264.93 512.44 265.66 508.3 265.44 505.86 267.71 505.79 267.81 503.05 268.71 502.77 268.1 500.38 268.19 498.32 269.54 496.6 269.23 494.72 268.23 494.15 256.73 492.86 256.58 491.88 254.95 490.14 254.76 487.99 254.06 487.09 252.73 486.86 253.84 482.81 252.06 482.32 252.72 479.88 252.79 478.33 253.41 476.49 253.14 474.14 255.07 468.98 257.15 468.95 257.03 468 258.37 466.75 258.68 465.39 259.79 464.51 260.5 463.19 262.68 461.66 263.94 460.06 266.49 459.25 267.52 457.62 262.12 454.62 261.7 453.65 265.09 447.28 264.98 446.48 266.06 445.54 265.76 444.37 268.06 441.92 268.29 440.13 269.77 439.87 270.79 437.1 271.59 432.96 273.42 433.14 285.17 436.68 291.56 426.51 298.6 424.5 302.79 422.05 305.46 425.97 306.92 429.02 306.9 432.24 308.07 432.42 310.57 436.58 312.29 436.26 313.65 435.14 315.36 436.31 317.12 436.42 319.4 435.6 319.86 434.77 321.85 433.92 322.77 435.14 324.96 435.55 326.75 435.17 328.81 435.98 330.9 435.49 331.53 437.07 331.21 439.48 330.46 440.71 330.72 442.28 332.36 443.97 333.47 448.52 334.83 451.11 334.66 454.39 337.91 456.02 338.58 456.97 339.91 457.07 341.61 457.82 341.74 462.23 342.26 464.78 343.32 467.3 344.76 467.58 347.88 468.98 350.27 469.8 351.84 469.78 353.55 470.62 354.06 472.15 354.96 472.66 356.71 472.06 358.32 473.71 358.75 477.01 360.35 476.88 361.45 475.5 364.43 474.58 367.08 477.15 368.04 477.64 369.22 479.32 371.96 480.33 373.36 478.72 375.61 481.32 378.78 480.64 378.84 484.72 380.16 488.25 382.3 490.65 382.82 492.53 Z" id="33020430"/>
<path d="M 377.21 281.33 378.08 282.51 378.19 284.06 379.87 284.57 381.71 284.48 381.73 285.8 382.65 286.99 384.02 289.81 385.59 293.86 387.94 299.41 389.06 304.73 390.03 307.54 390.78 312.31 389.64 316.04 388.6 318.42 385.89 322.69 380.93 329.87 377.42 333.35 370.62 337.57 363.42 341.15 362.16 342.02 354.1 346.78 352.17 348.57 348.38 354.12 347.86 354.36 343.77 359.31 342.65 361.04 341.8 364.05 342.28 369.85 342.75 371.3 344.43 374.77 347.23 378.72 348.76 381.48 350.07 384.49 351.99 388.3 354.1 391.83 354.98 394.09 359.21 401.5 359.65 402.54 361.43 409.79 360.68 410.08 362.19 413.16 363.67 415.02 365.86 422.72 367.6 426.29 369.36 429.02 371.38 434.53 372.73 437.19 373.54 437.93 376.57 441.84 377.36 443.11 379.14 444.57 380.49 448.19 381.79 450.86 385.88 454.12 389.22 456.06 390.17 457.4 391.03 460.52 393.29 461.03 395.22 461.06 395.53 463.67 394.63 464.6 394.79 465.97 393.6 474.13 394.67 477.31 395.19 481.52 394.71 486.67 393.91 488.67 392.85 489.89 389.72 492.15 387.71 492.06 382.82 492.53 382.3 490.65 380.16 488.25 378.84 484.72 378.78 480.64 375.61 481.32 373.36 478.72 371.96 480.33 369.22 479.32 368.04 477.64 367.08 477.15 364.43 474.58 361.45 475.5 360.35 476.88 358.75 477.01 358.32 473.71 356.71 472.06 354.96 472.66 354.06 472.15 353.55 470.62 351.84 469.78 350.27 469.8 347.88 468.98 344.76 467.58 343.32 467.3 342.26 464.78 341.74 462.23 341.61 457.82 339.91 457.07 338.58 456.97 337.91 456.02 334.66 454.39 334.83 451.11 333.47 448.52 332.36 443.97 330.72 442.28 330.46 440.71 331.21 439.48 331.53 437.07 330.9 435.49 328.81 435.98 326.75 435.17 324.96 435.55 322.77 435.14 321.85 433.92 319.86 434.77 319.4 435.6 317.12 436.42 315.36 436.31 313.65 435.14 312.29 436.26 310.57 436.58 308.07 432.42 306.9 432.24 306.92 429.02 305.46 425.97 302.79 422.05 298.6 424.5 291.56 426.51 279.11 406.51 281.57 404.17 279.22 401.84 279.72 395.09 276.78 392.21 274.74 391.19 274.93 389.01 274.62 387.75 275.14 386.76 274.41 382.81 273.85 381.36 272.43 381.43 271.48 380.19 266.8 379.32 263.58 380.53 261.31 379 260.21 377.16 260.04 375.1 259.39 373.45 260.89 371.75 262.41 370.85 261.84 369.31 262.45 366.91 263.96 365.41 263.61 364.61 263.55 360.3 262 357.59 262 355.58 264.67 351.85 268.47 350.2 269.14 349.57 268.5 346.71 267.42 344.98 266.98 343.43 270.96 343.3 272.62 341.99 274.74 341.49 276.91 339.98 279.19 340.38 278.71 336.73 278.1 335.79 278.36 333.61 278.08 331.75 275.97 331.01 275.11 327.72 271.94 327.06 270.01 327 269.08 325.37 269.09 323.85 268.33 323.36 269.72 315.47 270.38 314.67 272.82 318.95 274.46 320.2 276.74 320.63 277.97 320.39 279.69 319.17 281.51 317.28 281.84 316.01 283.36 313.24 285.26 312.46 288.36 313.64 289.38 314.57 292.04 312.15 290.98 311.57 289.43 309.8 287.15 308.92 285.95 307.78 284.99 305.8 283.82 304.36 283.2 302.53 281.99 302.13 281.48 300.26 283.59 298.49 284.62 296.87 288.45 294.5 290.51 293.83 291.44 291.32 292.78 288.96 294.4 286.76 294.82 285.17 295.99 285.54 297.52 285.13 297.82 282.87 299.99 281.95 300.54 279.29 299.53 277.79 299.56 276.35 300.68 275.57 302.09 273.6 298.62 270.37 297.55 268.49 296.02 267.23 294.98 263.78 298.71 263.74 301.09 265.32 301.87 264.59 307.52 266.05 309.77 266.31 313.51 267.16 318.87 270.81 323.27 275.28 324.4 277.44 325.45 277.97 329.39 278.36 332.21 278.38 335.64 278.88 341.14 278.94 348.04 276.61 349.96 274.63 354.47 274.61 353.28 271.73 353.32 269.87 356.73 267.1 359.85 266.67 364.44 267.7 365.34 268.12 366.87 270.16 368.89 274.61 369.22 277.59 371.08 279.27 373 279.78 376.39 282.2 377.21 281.33 Z" id="33020440"/>
<path d="M 519.22 455.15 516.96 458.03 515.38 460.41 512.29 461 509.34 462.61 508.35 462.48 506.38 463.86 504.67 465.76 500.77 465.62 498.49 466.54 496.07 467.96 495.52 469.32 492.69 472.43 491.57 472.98 491.04 474.47 489.19 475.47 488.37 476.82 486.06 477.97 486.11 478.62 479.68 478.65 477.52 477.89 475.91 478.16 475.79 476.39 472.77 476.09 471.7 477.08 467.55 477.5 467.11 474.91 457.1 475.12 457.09 471.04 454.82 470.46 450.16 470.32 450.32 466.16 450.69 464.96 456.8 465.03 457.07 463.59 457.06 458.88 458.37 458.64 458.36 457.82 458.25 455.17 459.88 454.07 459.89 453.41 459.9 452.28 463.44 452.28 464.51 448.51 464.41 446.29 466.4 446.3 467.84 444.7 467.95 442.68 469.42 441.43 469.86 440.18 470.36 439.87 471.58 437.42 474.57 438.51 477.26 440.46 479.26 439.93 484.51 439.06 484.95 438.22 488.62 438.24 491.41 439.01 493.02 438.56 494.74 440.27 497.1 440.16 498.07 441.05 499.13 443.05 501.16 444.67 502.67 443.36 504.93 444.28 507.94 444.26 509.55 447.13 511.16 448.04 514.21 448.68 518.76 452.75 518.34 454.26 519.22 455.15 Z" id="33020630"/>
</g>
</svg>