<?xml version="1.0"?>
<svg xmlns="http://www.w3.org/2000/svg" version="1.2" baseProfile="tiny" width="800" height="1079" viewBox="0 0 800 1079" stroke-linecap="round" stroke-linejoin="round">
<g id="dong">
<path d="M 585.51 288.94 586.06 290.82 587.88 291.31 588.87 292.87 588.98 295.5 588.65 297.53 586.17 303.89 586.13 307.91 585.65 309.39 586.11 310.81 587.22 311.66 589.01 315.62 588.48 318.83 578.34 317.75 578.03 316.96 580.46 315.64 582.14 313.73 582.1 311.12 578.9 309.74 580.98 304.87 573.58 301.76 574.22 300.32 573.93 298.89 572.55 298.33 570.46 298.49 570.56 299.86 569.45 300.78 561.36 296.18 562.01 294.78 563.59 293.31 565.09 292.7 567.11 291.05 570.03 285.98 570.47 285.94 573.37 287.01 574.42 288.02 580.67 290.05 581.99 289.27 583.47 290.17 585.51 288.94 Z" id="33030700"/>
<path d="M 546.69 280.2 548.33 280.28 552.02 283.77 556.01 285.67 550.96 297.56 548.05 300.22 550.79 301.76 554.78 301.05 557.76 301.18 554.02 310.44 557.19 311.86 559.35 312.35 560.56 314.38 561.91 315.5 565.48 317.22 565.64 318 570.09 319.77 571.16 321.02 566.92 323.19 564.3 322.36 561.46 323.64 558.71 323.63 553.13 324.06 550.52 323.73 547.01 322.55 543.85 322.17 539.3 322.54 533.56 318.67 532.07 318.13 529.38 318.49 529.45 320.33 528.62 322.2 526.49 322.85 520.6 320.75 521.18 323.52 520.53 324.64 520.77 326.38 519.1 327 517.32 330.42 517.4 331.8 518.67 334.01 516.37 335.07 516.9 337.01 516.45 339.94 517 341.28 516.4 344.1 517.43 345.03 517.04 346.16 518.27 346.93 517.91 349.56 515.48 350.37 511.75 355.29 509.35 356.57 508.61 357.95 506.65 358.52 501.46 357.6 501.3 359.05 499.47 359.21 498.14 360.7 497.85 364.78 496.49 366.98 496.61 370.05 494.79 372.56 493.17 371.36 491.05 370.88 490.22 369.82 488.02 370.14 486.73 368.54 487.99 366.19 486.97 363.96 486.77 361.84 485.43 360 483.21 358.61 484.14 356.32 485.1 355.32 486.67 352.26 487.22 350.4 485.88 346.68 484.43 344.89 485.53 340.51 484.35 337.57 481.96 336.41 482.46 334.43 482.17 332.61 478.45 331.28 476.7 330.27 469.66 328.79 467.54 329.59 464 330.04 462.17 329.52 460.55 327.5 458.17 326.44 457.19 326.79 456.92 328.82 455.36 329.88 454.67 329.17 453.98 325.4 452.72 324.51 452.82 321.5 451.57 319.78 449.87 318.78 449.91 317.06 448.44 316.07 447.48 314.48 448.4 313.02 446.27 311.09 445.21 308.17 446.99 305.7 450.88 308.36 451.51 307.49 455.02 309.11 457.42 309.15 455.78 303.94 457.23 299.96 456.45 298.41 460.36 295.74 461.93 295.13 462.8 294.07 465.31 292.88 465.51 290.27 463.85 288.38 463.92 285.91 462.34 282.87 465.19 280.92 465.07 279.58 466 278.22 468.5 279.4 469.28 281.17 471.42 283.77 471.41 285.49 473.42 285.49 475.29 283.23 476.06 283.64 478.21 282.33 482.11 281.23 483.44 280.46 483.69 282.52 488.48 283.21 490.54 281.58 492.75 281.78 493.92 283.2 496.87 283.24 498.57 284.31 500.43 282.75 504.53 280.62 506.25 280.95 505.88 279.21 506.53 278.55 510.76 277.59 512.17 279.4 513.69 279.59 516.29 282.33 516.24 285.62 518.82 286.22 519.48 289.58 525.01 295.04 525.7 293.76 526.95 294.05 529.05 296.27 531.54 297.38 533.17 299.58 533.29 300.78 535.46 300.98 536.28 301.88 536.36 305.21 536.02 306.66 539.83 305.54 540.55 303.49 542.18 300.36 542.58 298.74 542.24 296.1 543.25 292.85 543.81 289.37 546.13 285.91 547.06 283.06 546.69 280.2 Z" id="33030710"/>
<path d="M 681.89 252.63 682.64 253.97 682.93 256.08 682.69 259.32 684.73 262.49 688.6 265.24 691.44 266.02 692.71 268.34 693.19 270.8 697.79 274.84 701.49 273.32 706.99 273.04 707.56 274.93 708.74 274.73 710.62 276.08 715.21 277.58 717.21 280 718.61 280.9 722.61 282.17 725.05 286.08 728.6 290.02 729.45 294.38 730 294.78 733.76 294.4 736.3 295.47 737.08 299.55 739.2 301.32 741.44 305.59 743.88 306.98 744.44 308.56 743.27 311.8 743.76 313.12 743.74 316.57 744.24 317.34 744.25 321.02 743.84 323.82 744.89 332.02 745.67 335.15 747.2 337.83 748.91 339.47 751.77 341.09 753.89 341.82 755.1 348.12 754.95 349.75 754.08 351.13 754.14 353.1 750.44 355.3 748.95 360.6 748.98 363.13 749.63 364.58 747.12 369.85 746.98 372.3 745.54 376.31 739.49 380.74 738.13 380.85 735.76 378.64 734.02 380.21 732.38 380.02 729.16 380.77 726.45 382.05 725.32 381.13 724.69 379.18 719.93 375.26 713.03 372.26 712.52 370.56 710.96 367.49 710.67 364.28 708.12 360.9 703.1 356.04 700.03 358.03 697.59 353.85 695.78 352.96 694.65 351.68 694.7 350.32 696.32 344.15 694.13 339.48 693.48 339.65 688.12 338.17 687.23 336.65 685.24 336.65 683.06 338.77 681.03 339.45 680.17 340.59 679.82 343.3 680.47 345.5 679.94 347.19 678.22 346.6 676.68 345.31 674.34 345.26 673.92 347.02 674.37 350.67 672.56 354.1 673.68 357.14 671.77 357.98 671.1 359.18 668.9 358.01 667.77 359.06 666.55 357.42 665.36 358.75 666.43 361.08 664.69 362.03 660.45 367.9 658.63 368.36 656.28 372.5 653.39 374.8 653.44 377.76 659.77 380.36 661.67 385.17 663.6 388.74 663.21 390.05 663.05 393.57 663.95 397.47 664.65 398.02 665.33 401.71 666.52 401.69 668.53 403.27 670.04 405.29 670.5 407.08 672.4 406.27 674.33 408.52 676.65 406.12 678.92 405.58 679.54 408.22 677.97 408.24 676.69 409.1 675.71 411.24 674.15 412.55 673.47 414.22 671.65 414.85 670.89 416.15 667.8 417.61 665.51 419.9 664.47 420.21 663.77 421.74 661.89 421.99 661.33 420.44 657.96 420.4 655.49 420.02 653.88 420.54 651.78 421.92 651.58 423.07 649.67 426.29 647.13 427.43 645.8 428.72 643.67 431.79 643.51 436.37 640.41 438.83 637.4 435.63 635.59 434.52 635.33 432.77 629.32 426.97 628.08 425.09 627.79 421.89 627.05 420.2 629.35 416.38 630 412.36 628.78 408.85 625.27 407.14 625.33 404.15 624.61 403.12 621.18 401.22 621.92 398.66 620.72 397.44 619.3 397.93 617.5 397.46 617.68 396.16 619.78 394.84 621.03 393.21 622.39 392.63 623.22 390.42 622.52 388.84 623.5 385.86 622.43 383.87 620.84 383.46 620.58 381.15 622.16 378.69 620.45 377.31 618.06 376.79 618.76 373.63 615.12 372.11 615.26 370.1 616.76 368 616.94 365.11 615.92 364.24 613.6 363.45 613.14 361.36 613.03 357.53 613.96 355.17 612.51 354.98 612.78 351.81 611.44 351.35 610.87 348.08 610.14 346.12 609.19 345.41 605.94 345.39 605.18 343.39 603.45 341.39 600.78 341.85 600.63 343.38 599.24 343.25 598.17 342.07 597.14 339.39 596.63 331.51 595.1 327.41 591.55 320.01 588.48 318.83 589.01 315.62 587.22 311.66 586.11 310.81 585.65 309.39 586.13 307.91 586.17 303.89 588.65 297.53 588.98 295.5 588.87 292.87 587.88 291.31 586.06 290.82 585.51 288.94 586.25 287.29 588.53 286.15 589.45 284.91 589.6 282.56 592.39 282.41 593.73 283.48 596.35 283.4 597.94 284.7 599.39 286.57 600.69 286.27 602.27 282.68 602.75 282.37 605.55 285.72 606.61 288.52 609.7 288.65 611.01 289.23 613.26 289.06 615.87 286.81 615.18 285.11 615.69 283.25 617.25 280.4 618.43 279.89 619.15 277.85 618.23 275.67 618.54 274.19 618.28 268.1 619.74 266.97 620.3 261.38 619.45 260.5 621.97 254.03 625.81 252.98 626.13 251.67 628.28 249.71 628.34 247.79 630.38 248.25 631.62 251.28 633.23 253.57 635.41 254.31 635.63 255.77 634.67 258.21 634.22 260.95 633.01 263.1 631.99 263.7 630.72 266.62 632.48 266.37 633.46 264.99 635.18 264.35 636.17 262.96 638.91 261.78 641.54 259.95 643.11 259.34 646.51 260.25 649.45 259.14 651 259.26 651.54 258.26 654.15 257.65 657.48 255.43 658.92 255.32 661.43 254 663.26 254.09 666.25 252.2 673.28 253.18 674.5 253.85 681.89 252.63 Z" id="33030720"/>
<path d="M 628.34 247.79 628.28 249.71 626.13 251.67 625.81 252.98 621.97 254.03 619.45 260.5 617.42 258.91 614.94 257.61 615.59 255.32 613.38 253.79 611.84 253.3 611.22 254.52 608.22 253.76 605.45 254 604.92 252.98 602.54 252.94 601.8 252.29 602.18 250.5 603.47 248.44 605.37 247.86 605.97 245.03 603.56 243.12 602.83 241.06 600.38 238.92 598.13 238.24 596.07 236.87 598.33 232 598.71 230.35 598.59 226.58 596.97 226.54 592.36 228.71 590.74 229.22 588.76 230.84 583.87 232.25 584.46 234.11 583.53 235.12 583.75 236.74 583.32 238.99 584.8 240 583.99 243.18 582.92 246.04 583.22 247.42 582.35 248.51 580.55 248.5 579.83 247.51 578.43 243.81 575.83 240.84 573.04 241.51 572.36 238.65 570.96 238.85 570.11 234.62 566.98 235.07 564.59 236.06 563.67 234.77 556.54 239.28 550.35 243.42 547.86 244.72 546.52 245.61 549.39 217.4 550.79 217.26 551.55 215.66 552.57 215.1 553.53 209.58 552.82 207.87 553.39 205.44 552.55 203.43 553.31 202.13 551.69 199.18 549.48 198.47 548.61 196.35 547.76 196.22 547.2 194.37 545.53 193.94 546.14 192.26 545.41 190.92 544.93 187.95 543.08 187.91 541.66 186.94 541.55 184.91 540.31 183.28 539.96 180.08 540.76 178.6 538.9 177.77 537.77 174.93 537.26 171.81 534.94 168.74 532.08 168.34 531.51 167.64 529.37 167.43 527.23 167.94 523.22 170.83 516.82 171.12 515.2 170.15 511.68 173.27 509.78 174.05 507.77 174.04 505.2 173.87 502.22 172.94 500.77 171.56 498.88 171.04 497.61 170.02 495.86 170.36 490.86 168.04 489.92 167.08 491.2 165.4 494.3 162.86 494.27 161.75 495.82 160.57 495.13 151.47 495.28 149.27 498.09 146.19 500.45 142.81 501.72 137.01 503.02 135.9 501.44 133.03 501.76 132.21 504.15 131.89 508.84 128.82 513.27 130.07 516.54 131.98 517.39 133.25 520.96 132.3 522.17 136.54 520.96 139.54 521.55 142.8 520.92 144.96 518.94 147.3 518.29 149.18 518.52 151.28 521.01 153.48 524.83 154.26 527.39 153.91 529.2 154.25 529.98 155.34 533.43 156.66 534.3 157.92 536.58 159.8 538.28 160.36 540.3 162.81 543.02 164.96 544.85 165.37 547.71 167.1 549.19 168.56 549.05 171.47 550.4 172.7 551.75 172.59 552.59 174.97 554.95 178.52 557.78 184.76 558.98 184.7 564.62 186.27 565.64 185.79 566.57 187.11 568.11 187.81 569.46 187.54 570.14 189.69 569.83 191.46 572.62 193.54 572.1 196.53 573.54 198.29 575.15 198.54 577.57 197.43 578.48 196.31 581.04 195.48 585.38 193.44 587.05 193.09 589.51 194.57 589.82 195.46 594.21 193.99 595.26 194.08 597.56 192.93 598.86 193.65 600.33 191.63 603.58 191.63 605.47 190.22 607.73 189.62 611.47 190.03 614.97 189.58 616.45 191.02 619.75 191.73 621.15 191.29 621.95 193.59 625.21 194.85 626.02 196.87 625.14 200.84 626.42 202.65 627.99 202.59 629.51 203.79 630.7 203.54 632.81 207.59 633.91 207.92 633.28 209.55 634.47 210.49 635.7 212.51 635.87 214.93 637.31 218.37 638.31 219.29 639 221.23 640.08 221.86 640.7 224.86 642.11 227.7 642.36 230.27 640.66 230.86 636.37 234.96 633.82 233.14 632.2 234.44 630.37 234.37 629.52 237.44 630.27 239.81 628.92 243.13 628.34 247.79 Z" id="33030730"/>
<path d="M 572.53 276.43 570.58 283.01 570.47 285.94 570.03 285.98 567.11 291.05 565.09 292.7 563.59 293.31 562.01 294.78 559.72 296.32 557.76 301.18 554.78 301.05 550.79 301.76 548.05 300.22 550.96 297.56 556.01 285.67 552.02 283.77 548.33 280.28 550.19 279.93 552.58 275.23 554.57 273.37 553.88 272.25 557.11 269.93 558.34 270.7 562.66 270.48 565 270.8 566.05 269.54 567.15 270.22 570.76 270.82 570.57 271.78 571.9 273.93 570.94 275.64 572.53 276.43 Z" id="33030740"/>
<path d="M 462.34 282.87 463.92 285.91 463.85 288.38 465.51 290.27 465.31 292.88 462.8 294.07 461.93 295.13 460.36 295.74 456.45 298.41 457.23 299.96 455.78 303.94 457.42 309.15 455.02 309.11 451.51 307.49 450.88 308.36 446.99 305.7 445.21 308.17 446.27 311.09 448.4 313.02 447.48 314.48 448.44 316.07 449.91 317.06 449.87 318.78 451.57 319.78 452.82 321.5 452.72 324.51 453.98 325.4 454.67 329.17 455.36 329.88 456.92 328.82 457.19 326.79 458.17 326.44 460.55 327.5 462.17 329.52 464 330.04 467.54 329.59 469.66 328.79 476.7 330.27 478.45 331.28 482.17 332.61 482.46 334.43 481.96 336.41 484.35 337.57 485.53 340.51 484.43 344.89 485.88 346.68 487.22 350.4 486.67 352.26 485.1 355.32 484.14 356.32 483.21 358.61 485.43 360 486.77 361.84 486.97 363.96 487.99 366.19 486.73 368.54 488.02 370.14 490.22 369.82 491.05 370.88 493.17 371.36 494.79 372.56 495.43 372.98 495.93 375.34 495.25 378.94 493.79 380.79 494.13 383.16 495.06 384.31 494.71 386.19 492.78 387.18 492.04 389.59 489.32 388.87 488.61 387.87 485.29 388.86 484.81 389.71 483.11 389.7 478.81 388.21 477.03 389.23 478.42 397.7 476.95 398.88 477.34 401.05 476.19 403.26 473.75 403.54 471.9 404.37 470.86 404.2 467.67 402.57 463.87 401.39 462.22 402.94 460.15 402.65 458.64 403.65 459.08 406.8 458.39 407.69 458.23 410.63 459.31 411.94 459.53 413.44 456.39 414.93 456.3 416.62 453.43 419.96 452.63 419.65 450.36 420.34 448.19 420.51 444.97 421.66 443.02 425.19 441.47 426.53 439.13 427.08 438.29 428.21 435.71 428.8 432.43 432.47 429.95 434.29 428.96 435.55 426.72 435.52 425.44 436.23 421.04 436.55 420.59 437.25 418.35 437.44 413.67 439.34 411.87 441.06 408.97 441.89 406.11 444.1 404.65 444.44 401.68 442.73 400.96 443.51 399.38 449.4 398.72 450.69 397.31 451.12 395.57 450.44 393.8 451.53 392.52 450.94 389.14 451.72 387.78 451.23 382.97 451.87 380.73 452.98 378.78 456.05 378.26 457.48 375.69 458.78 374.87 460.3 372.84 461.08 371.7 466.6 367.05 464.52 365.73 461.97 362.8 460.86 359.09 462.15 356.83 458.77 355.09 458.11 352.14 455.85 348.28 454.98 346.27 456.21 344.45 453.11 341.77 451.08 339.59 450.28 336.66 446.95 332.85 447.51 329.91 447.24 328.97 446.1 325.56 444.29 324.91 443.63 322.05 442.56 322.01 440.46 316.65 435.61 315.64 432.13 313.62 430.8 313.16 429.68 309.91 425.41 307.31 424.91 305.88 424.07 304.09 421.8 305.42 420.06 307.72 411.91 307.47 409.01 306.51 408.27 302.58 402.62 302.17 399.32 300.82 396.38 299.68 395.28 299.25 392.02 297.79 388.08 296 387.05 295.38 385.95 295.66 384.22 294.5 382.92 295.03 379.21 294.03 376.34 294.63 375.25 292.33 374.83 287.26 374.91 286.66 372.98 287.59 370.66 289.75 366.64 290.97 366.28 292.02 364.42 290.15 361.97 287.81 361.21 286.72 359.69 284.64 358.11 284.25 357.21 280.56 356.72 274.62 357.15 273.02 352.59 269.63 349.79 269.11 348.96 266.98 347.81 265.62 344.27 264.36 343.73 264.33 342.24 265.48 337.79 264.66 336.73 260.91 335.21 258.53 331.19 260.05 329.19 260.57 325.91 259.76 323.35 260.18 321.06 263.56 313.6 263.23 311.28 264.37 308.39 263.71 306.33 263.5 302.54 264.6 300.45 264.47 299.02 265.64 294.89 265.17 291.33 262.84 288.96 264.22 287.51 264.29 283.74 263.51 281.93 264.73 279.99 265.55 277.81 265.83 273.88 267.83 272.21 269.51 269.03 270.78 265.31 271.74 264.44 272.61 261.42 271.91 259.34 272.14 257.2 274.14 252.15 272.42 250.52 270 249 267.39 248 266.76 245.57 266.76 243.38 263.65 241.36 261.73 237.67 259.5 236.7 256.83 234.46 256.79 233.61 254.21 232.3 252.07 228.29 246.62 226.47 242.16 222.74 241.88 220.98 240.65 219.22 241.33 216.94 243.1 214.52 245.77 215.22 246.73 213.99 248.48 213.31 250.8 211.27 250.35 207.2 249.55 204.11 247.98 201.89 244.79 199.15 241.96 197.39 239.53 194.11 239.35 192.08 239.61 188.81 238.1 185.48 236.52 183.35 236.36 180.01 234.98 177.06 234.4 174.69 234.51 171.03 231.77 168.64 231.43 167.7 233.22 167.76 235.88 165.84 237 164.12 239.38 163.16 244.76 166.06 248.44 165.71 250.14 166.15 251.83 164.26 254.01 162.88 259.63 161.33 261.05 159.59 267.48 155.83 270.69 154.98 273.78 156.53 275.4 158.02 276.72 157.99 280.97 155.35 283.98 155.21 289.21 153.82 293.05 153.78 296.78 157.08 297.54 157.12 300.03 155.54 301.74 155.14 303.79 155.56 307.48 153 313.46 150.03 319.42 147.32 322.13 143.68 324.42 141.48 332.76 141.7 335.39 140.37 337.57 140.11 338.11 138.94 340.27 138.66 341.73 137.47 346.16 135.59 347.1 135.69 353.45 132.61 355.56 130.87 356.9 130.47 359.83 127.52 364.05 125.72 365.26 123.41 369.22 120.95 369.88 119.3 369.61 117.15 368.46 114.95 370.53 113.39 372.49 109.51 374.24 107.85 374.2 103.65 374.79 101.45 376.15 99.13 375.18 95.5 376.63 90.32 377.58 88.82 382.23 84.03 385.55 81.87 389.77 78.21 388.68 75.3 386.68 73.18 387.57 72.23 388.32 69.15 387.99 68.23 389.86 65.43 391.41 64.25 392.73 60.29 393.92 58.65 393.83 57.29 395.23 55.53 397.1 55.39 399.67 56.22 400.43 57.73 403.49 57.34 405.23 60.85 408.78 64.12 408.89 65.92 411.19 66.99 418.55 66.7 420.79 66.29 424.88 67.27 427.8 69.53 428.29 72.76 428.07 75.57 428.47 79.86 431.02 82.14 433.05 84.67 434.92 85.82 437.37 84.62 441.14 88.56 442.4 88.81 445.12 88.37 448.48 96.31 451.66 100.12 452.64 100.57 456.31 99.86 459.12 98.93 463.71 100.87 465.82 101.05 466.22 102.37 467.54 103.02 468.76 104.78 470.88 106.06 475.87 102.47 476.68 102.38 478.98 104.7 484.02 108.15 485.03 109.14 486.06 112.75 487.17 113.93 487.72 116.86 489.18 119.16 489.82 121.14 492.76 123.44 494.8 126.8 494.69 128.47 495.86 130.39 498.6 130.25 501.76 132.21 501.44 133.03 503.02 135.9 501.72 137.01 500.45 142.81 498.09 146.19 495.28 149.27 495.13 151.47 495.82 160.57 494.27 161.75 494.3 162.86 491.2 165.4 489.92 167.08 490.86 168.04 495.86 170.36 497.61 170.02 498.88 171.04 500.77 171.56 502.22 172.94 505.2 173.87 507.77 174.04 507.37 176.64 506.47 178.43 506.57 181.19 504.42 184.6 502.01 186.27 499.76 187.21 498.53 194.84 497.68 195.56 497.64 197.92 500.59 201.02 500.25 204.14 500.34 208.64 500.76 212.4 498.76 215.22 499.74 217.92 499.85 221.29 498.82 222.74 498.17 225.51 496.33 227.1 497.39 228.49 498.82 233 499.79 234.54 498.73 235.53 496.03 240.96 494.26 241.81 487.53 241.87 486.31 241.34 481.78 242.93 478.72 245.42 476.91 244.57 475.44 246.27 475.45 248.04 473.72 247.44 468.39 248.4 467.46 249 464.81 249.11 461.88 248.7 460.27 247.46 458.44 248.01 457.89 246.61 454.93 247.64 451.33 247.67 447.9 250.04 440.52 250.68 431.66 253.69 428.96 254.28 421.03 254.84 418.1 255.54 418.89 258.24 420.75 270.59 420.51 271.11 421.88 278 422.59 278.74 424.4 278.69 426.31 279.82 427.64 279.3 429.04 280.84 429 282.44 429.9 285.49 432.58 285.44 433.05 284.72 437.65 285.13 440.82 280.45 440.51 278.63 441.68 276.1 440.61 274.34 441.75 273.64 442.1 274.76 443.46 279.52 443.46 281.82 446.62 280.59 450.73 274.78 451.85 275.97 453.55 276.19 454.67 277.78 456.19 278.15 456.72 279.17 458.58 280.53 459.72 282.44 461.39 283.52 462.34 282.87 Z" id="33030110"/>
<path d="M 635.59 434.52 633.7 435.41 630.44 436.2 627.72 438.32 626.62 439.69 621.36 442.73 621.33 444.59 620.09 445.93 619.23 448.57 619.34 450.27 620.1 451.81 619.84 456.8 619.42 458.48 618.18 458.76 616.57 462.64 613.93 464.07 612.64 463.76 609.69 463.96 606.48 466.69 605.32 466.83 604.58 468.1 603.38 467.89 600.8 468.95 599.53 468.9 594.45 470.38 594.17 473.61 593.32 475.28 593.79 479.17 592.45 480.08 590.63 480.3 588.56 481.51 587.71 483.88 587.92 485.61 586.81 486.87 583.54 488.71 581.71 488.84 580.13 489.95 582.43 492.87 582.15 496.14 586.41 500.29 584.72 503.52 584.75 506.07 585.22 507.46 584.53 509.3 582.56 510.51 583.28 513.67 585.32 518.41 586.28 519.78 584.64 520.76 582.56 524.46 581.32 525.9 580.4 528.32 580.45 529.45 579.22 531.05 581.19 531.73 583.78 533.19 585.35 533.31 588.6 534.94 591.75 536.87 593.5 538.33 594.21 541.03 592.87 545.47 593.64 550.22 595.29 553.38 594.94 555.51 591.79 556.38 587.95 559.46 585.36 559.67 581.33 559.25 580.06 560.8 575.77 562.01 574.36 562.08 570.42 563.27 568.28 563.14 562.81 563.95 556.24 563.3 554.35 563.79 540.33 564.38 537.96 564.65 535.11 564.43 532.95 564.82 531.01 564.44 526.49 562.69 523.62 563.85 522.6 562.99 517.23 565.03 515.67 566.08 511.79 566.46 509.41 567.18 509.29 567.87 506.28 570.47 502.47 568.94 500.57 569.96 498.04 569.95 497.87 568.92 495.93 567.74 493.95 567.7 492.74 566.55 492.41 564.66 488.91 561.92 486.86 562.39 485.53 560.36 484.23 560.36 483.04 559.03 481.28 555.19 481.09 553.3 478.48 553.03 476.53 552.41 474.55 552.9 474.15 551.57 474.73 549.91 473.63 547.78 471.77 547.63 470.96 549.2 470.6 552.13 467.66 560.16 464.3 563.53 460.15 562.07 457.9 561.84 453.27 562.49 448.14 562.43 444.98 562.7 443.29 561.9 443.71 555.84 446.07 550.99 446.41 547.07 447.69 541.36 449.6 538.5 449.94 535.55 449.65 533.12 448.07 531.71 448.16 528.14 448.65 526.58 447.56 524.44 445.81 522.15 445.69 520.93 444.23 519.25 443.91 517.52 441.2 516.19 438.72 514.25 438.24 510.84 437.66 509.48 434.38 509.22 431.83 508.09 428.44 508.02 425.98 507 424.74 507.64 420.94 507.85 419.24 509.32 415.92 510.53 414.22 511.53 408.72 512.69 405.91 509.13 406.04 506.96 405.22 504.18 403.67 501.19 403.41 499.5 400.51 499.58 397.3 498.26 394.1 494.56 393.08 494.59 391.7 493.41 390.45 495.49 384.82 497.96 383.9 497.96 380.23 500.07 376.95 500.82 373.81 503.24 372.98 504.47 370.8 505.98 368.76 505.72 366.83 506.34 364.21 503.48 362.45 500.64 363.19 496.18 366.31 493.3 366.99 491.61 368.85 490.26 371.44 487.57 373.34 484.43 374.98 482.8 373.64 480.31 371.27 479.3 371.05 477.04 371.93 472.58 371.28 471.34 371.78 469.41 373.29 468.2 371.7 466.6 372.84 461.08 374.87 460.3 375.69 458.78 378.26 457.48 378.78 456.05 380.73 452.98 382.97 451.87 387.78 451.23 389.14 451.72 392.52 450.94 393.8 451.53 395.57 450.44 397.31 451.12 398.72 450.69 399.38 449.4 400.96 443.51 401.68 442.73 404.65 444.44 406.11 444.1 408.97 441.89 411.87 441.06 413.67 439.34 418.35 437.44 420.59 437.25 421.04 436.55 425.44 436.23 426.72 435.52 428.96 435.55 429.95 434.29 432.43 432.47 435.71 428.8 438.29 428.21 439.13 427.08 441.47 426.53 443.02 425.19 444.97 421.66 448.19 420.51 450.36 420.34 452.63 419.65 453.43 419.96 456.3 416.62 456.39 414.93 459.53 413.44 459.31 411.94 458.23 410.63 458.39 407.69 459.08 406.8 458.64 403.65 460.15 402.65 462.22 402.94 463.87 401.39 467.67 402.57 470.86 404.2 471.9 404.37 473.75 403.54 476.19 403.26 477.34 401.05 476.95 398.88 478.42 397.7 477.03 389.23 478.81 388.21 483.11 389.7 484.81 389.71 485.29 388.86 488.61 387.87 489.32 388.87 492.04 389.59 493.97 391.3 495.57 392.13 498.72 391.67 499.58 392.07 501.12 394.22 502.14 394.06 502.98 395.51 506.75 396.67 507.1 397.67 509.07 398.84 510.36 400.56 512.85 401.57 513.96 400.98 515.52 401.52 517.92 401.1 522 401.37 523.35 400.93 525.45 401.27 525.76 399.17 526.8 396.86 528.54 397.91 529.01 399.54 530.78 401.45 532.45 402.32 534.15 404.59 535.28 407.35 537.21 408.59 539.32 408.27 540.42 406.33 539.93 405.17 540.39 402.57 540.62 396.91 542.15 396.51 543.14 394.81 544.32 394.69 544.8 392.79 546.18 391.15 548.36 390.62 549.5 389.56 551.75 390.96 552.8 389.95 555.83 389.87 557.19 390.88 559.15 390.26 560.62 390.58 563.11 391.91 564.59 393.5 565.89 393.68 566.52 391.74 566.9 388.77 566.41 388.46 566.32 383.39 567.25 378.97 567.42 371.07 566.98 370.44 567.23 368.02 566.1 367.17 565.67 365.3 565.99 362.08 569.99 361.64 572.77 362.29 576.75 361.77 578.22 362.14 579.18 361.51 580.63 362.21 581.44 359.78 583.66 357.62 586.35 355.51 590.22 356.79 591.64 360.56 592.86 361.29 594.78 360.08 595.83 356.61 597.05 355.78 599.04 356.16 600.61 354.52 602.42 354.12 602.4 352.35 601.05 352.09 598.96 348.29 599.35 347.47 597.86 344.84 599.24 343.25 600.63 343.38 600.78 341.85 603.45 341.39 605.18 343.39 605.94 345.39 609.19 345.41 610.14 346.12 610.87 348.08 611.44 351.35 612.78 351.81 612.51 354.98 613.96 355.17 613.03 357.53 613.14 361.36 613.6 363.45 615.92 364.24 616.94 365.11 616.76 368 615.26 370.1 615.12 372.11 618.76 373.63 618.06 376.79 620.45 377.31 622.16 378.69 620.58 381.15 620.84 383.46 622.43 383.87 623.5 385.86 622.52 388.84 623.22 390.42 622.39 392.63 621.03 393.21 619.78 394.84 617.68 396.16 617.5 397.46 619.3 397.93 620.72 397.44 621.92 398.66 621.18 401.22 624.61 403.12 625.33 404.15 625.27 407.14 628.78 408.85 630 412.36 629.35 416.38 627.05 420.2 627.79 421.89 628.08 425.09 629.32 426.97 635.33 432.77 635.59 434.52 Z" id="33030310"/>
<path d="M 371.7 466.6 373.29 468.2 371.78 469.41 371.28 471.34 371.93 472.58 371.05 477.04 371.27 479.3 373.64 480.31 374.98 482.8 373.34 484.43 371.44 487.57 368.85 490.26 366.99 491.61 366.31 493.3 363.19 496.18 362.45 500.64 364.21 503.48 366.83 506.34 368.76 505.72 370.8 505.98 372.98 504.47 373.81 503.24 376.95 500.82 380.23 500.07 383.9 497.96 384.82 497.96 390.45 495.49 391.7 493.41 393.08 494.59 394.1 494.56 397.3 498.26 400.51 499.58 403.41 499.5 403.67 501.19 405.22 504.18 406.04 506.96 405.91 509.13 408.72 512.69 414.22 511.53 415.92 510.53 419.24 509.32 420.94 507.85 424.74 507.64 425.98 507 428.44 508.02 431.83 508.09 434.38 509.22 437.66 509.48 438.24 510.84 438.72 514.25 441.2 516.19 443.91 517.52 444.23 519.25 445.69 520.93 445.81 522.15 447.56 524.44 448.65 526.58 448.16 528.14 448.07 531.71 449.65 533.12 449.94 535.55 449.6 538.5 447.69 541.36 446.41 547.07 446.07 550.99 443.71 555.84 443.29 561.9 444.98 562.7 448.14 562.43 453.27 562.49 457.9 561.84 460.15 562.07 464.3 563.53 467.66 560.16 470.6 552.13 470.96 549.2 471.77 547.63 473.63 547.78 474.73 549.91 474.15 551.57 474.55 552.9 476.53 552.41 478.48 553.03 481.09 553.3 481.28 555.19 483.04 559.03 484.23 560.36 485.53 560.36 486.86 562.39 488.91 561.92 492.41 564.66 492.74 566.55 493.95 567.7 495.93 567.74 497.87 568.92 498.04 569.95 500.57 569.96 502.47 568.94 506.28 570.47 509.29 567.87 509.41 567.18 511.79 566.46 515.67 566.08 517.23 565.03 522.6 562.99 523.62 563.85 526.49 562.69 531.01 564.44 532.95 564.82 535.11 564.43 537.96 564.65 540.33 564.38 554.35 563.79 556.24 563.3 562.81 563.95 568.28 563.14 570.42 563.27 574.36 562.08 575.77 562.01 580.06 560.8 581.33 559.25 585.36 559.67 587.95 559.46 591.79 556.38 594.94 555.51 597.9 558.08 598 560.01 600.84 562.04 605.72 561.73 609.97 560.25 613.49 560.96 616.9 560.63 619.13 559.96 621.11 560.32 623.91 562.63 624.85 562.61 626.02 564.69 629.06 567.93 631.75 569.88 632.99 572.52 632.72 573.26 635.35 576.62 635.25 578.53 638.14 584.36 640.56 585.97 640.69 588.77 641.7 590.23 644.95 592.44 645.98 595.07 647.93 595.43 648.48 596.36 651.42 598.33 652.75 600.6 651.83 601.76 653.69 602.56 653.93 603.85 655.88 607.23 655.44 609.16 656.93 610.68 657.26 612.86 658.43 614.93 657.82 617.73 659.04 620.25 658.16 623.22 656 625.43 651.94 626.82 647.78 626.72 644.2 625.11 641.25 622.56 637.86 620.45 633.78 618.66 629.9 619.48 624.98 618.87 621.37 618.76 614.86 619.1 614.18 619.45 610.19 619.54 609.07 618.76 605.83 620.83 603.15 620.06 600.52 617.86 596.21 616.99 595 614.88 593.5 613.28 592.22 612.69 583.41 611.2 580.99 609.26 579.59 609.94 576.49 610.16 575.2 610.64 573.58 610.18 569 613.29 562.79 616.2 560.7 616.78 557.27 618.5 555.21 617.42 552.82 620.47 551.76 620.5 549.54 623.78 550.25 627.14 548.24 629.06 545.76 630.62 543.28 634.08 541.5 637.57 541.47 641.08 537.89 642.46 536.24 644.34 533.8 645.4 533.53 647.32 531.91 646.94 529.89 649.77 528.81 650.19 527.7 651.79 524.89 653.84 522.7 657.1 518.41 657.81 517.65 657.65 516.17 659.9 515.06 660.17 513.06 662.22 510.04 661.32 506.22 664.04 507.36 666.34 506.07 670.57 504.79 671.42 504.07 672.99 504.33 675.29 505.96 677.93 505.81 680.04 504.98 681.64 503.73 682.52 503.4 684.08 504.09 686.19 506.67 688.21 509.99 688.47 510.53 691.68 511.46 692.93 510.8 695.13 512.03 696.06 511.94 697.44 513.38 701.1 514.83 702.09 515.59 704.42 512.5 704.59 507.85 707.26 506.2 707.31 505.89 702.92 501.57 699.57 501.42 697.74 499.43 695.73 495.12 693.49 494.11 692.29 492.18 691.99 490 692.83 488.43 692.43 488.3 689.94 485.37 689.04 484.92 689.74 482.72 689.95 477.7 687.94 477.79 689.8 475.42 691.76 473.21 698.2 473.04 701.11 473.53 703.6 472.67 705.39 472.37 710.14 468.7 709.85 467.13 709.37 463.44 709.46 460.26 710.72 460.26 711.5 456.43 712.03 455.89 712.93 452.26 712.01 451.38 710.7 452.21 707.11 453.31 705.78 449.35 703.6 445.64 702.24 443.94 700.81 438.46 701.61 435.95 703.64 433.09 703.47 431.11 706.44 427.95 708.73 427.28 712.85 425.25 715.63 425.06 717.43 422.54 719.53 421.42 724.36 417.76 726.1 417.62 729.72 415.45 732.72 413.9 732.72 411.53 733.54 409.57 733.45 407.1 732.25 403.33 731.72 400.68 730.2 399.09 730.52 397.12 729.05 394.33 728.96 390.19 726.56 389.15 721.43 387.46 719.19 385.37 717.95 384.46 715.97 373.43 711.19 372.32 711.04 372.58 709.25 367.79 706.43 365.91 705 361.84 700.53 360.26 697.35 359.14 693.87 359.49 691.12 358.18 689.31 357.5 685.63 358.16 684.12 358.13 681.02 358.87 677.51 354.34 672.9 352.08 671.54 351.96 669.54 350.57 665.75 350.44 663.14 351.03 660.04 352.66 658.07 352.99 656.57 354.49 653.73 352.96 651.89 352.13 649.24 348.75 646.34 347.14 644.21 344.67 642.63 345.83 641.3 342.94 640.76 340.19 640.68 338.59 641.21 336.12 643.18 335.19 645.31 334.75 648.5 335.36 654.86 335 656.97 335.27 659.4 334.18 656.97 333.75 650.07 329.21 649.87 325.34 649.46 323.75 647.94 323.61 644.66 322.53 639.06 322.62 637.05 321.82 635.64 320.43 634.83 318.09 635.23 311.91 633.8 311.26 631.26 311.22 626.54 310.56 622.88 309.01 621.26 306.91 619.83 306.39 616.49 307.02 613.9 306.96 611.83 308.79 609.55 312 609.53 313.17 608.77 313.22 606.85 315.58 603.51 319.93 601.45 321.72 599.98 323.76 599.53 325.94 598.45 326.44 597.22 326.14 592.97 326.59 589.84 328.22 588.06 329.36 584.98 330.42 583.14 330.61 581.16 327.83 577.98 324.17 576.27 325.12 574.93 325.57 572.39 327.64 570.94 328.16 569.57 330.3 568.5 331.86 568.72 333.52 568.12 332.75 565.46 330.1 563.24 328.77 562.63 328.44 559.9 327.15 557.29 325.05 556.39 326.32 554.57 327.32 551.82 329.79 549.96 330.13 548.65 328.14 544.18 325.9 539.82 325.5 537.8 323.91 535.19 320.98 533.22 319.55 530.4 319.9 526.4 319.52 522.9 321.42 521.51 320.92 519.1 321.39 517.1 320.43 515.1 318.02 512.75 317.96 509.36 316.74 507.94 314.06 507.52 314.8 506.18 314.92 503.78 316.13 501.36 318.45 493.43 319.24 492.37 319.74 488.69 318 485.68 317.3 481.74 318.25 479.23 320.24 477.27 320.07 475.03 321.36 474.07 321.68 471.87 322.79 470.73 323.32 465.51 320.65 462.36 319.78 459.26 318.06 456.23 315.94 453.3 316.21 451.97 317.82 449.52 317.27 445.91 319.32 445.42 322.16 443.01 322.05 442.56 324.91 443.63 325.56 444.29 328.97 446.1 329.91 447.24 332.85 447.51 336.66 446.95 339.59 450.28 341.77 451.08 344.45 453.11 346.27 456.21 348.28 454.98 352.14 455.85 355.09 458.11 356.83 458.77 359.09 462.15 362.8 460.86 365.73 461.97 367.05 464.52 371.7 466.6 Z" id="33030320"/>
<path d="M 651.94 626.82 653.35 629.26 657.56 630.93 660.06 634.73 661.02 636.77 660.26 640.44 659.64 641.03 660.22 643.06 659.17 645.43 659.37 648.62 658.48 650.81 656.04 653.38 657.21 656.03 658.4 657.63 660.36 665.48 661.49 666.34 663.12 672.33 664.27 679.31 664.09 682.81 663.37 685.99 664.57 686.58 665.55 691.17 665.37 694.45 664.74 696.99 667.83 698.85 669.24 700.88 669.87 702.85 668.68 706.14 670.78 707.3 672.43 708.8 673.58 711.17 673.76 712.65 676.02 714.68 677.78 715.41 675.73 717.42 670.32 723.83 668.77 726.44 665.92 728.05 664.48 729.97 666.99 731.55 668.27 733.66 670.66 734.1 673.98 736.02 674.47 737.47 674.19 739.44 672.18 742.86 670.48 744.15 669.67 743.5 667.52 743.37 664.96 744.77 661.61 748.44 661.31 750.22 658.83 753.81 657.36 756.39 655.97 756.47 654.02 758.3 651.68 759.6 648.28 760.26 643 755.58 640.92 755.01 640.35 757.36 638.82 760.38 636.06 761.82 637.3 763.9 637.24 764.76 639.28 766 640.99 768.1 640.45 771.41 637.53 772.4 635.52 774.15 632.32 773.8 630.96 772.17 629.66 772.32 628.21 776.14 627.37 777.14 626.26 776.61 624.35 777.14 624.5 779.13 620.46 781.07 619.82 782 620.22 784.72 619.46 786.28 619.73 793.67 620.54 797.76 619.5 802.09 620.55 803.11 620.46 807.13 621.95 809.22 622.08 811.12 621.14 813.75 621.3 816.84 621.74 817.98 621.08 823.21 623.62 830.07 626.35 831.05 627.6 830.89 628.38 832.24 631.27 834.14 632.1 835.16 632.09 836.8 633.96 842.73 635.2 844.87 639.11 846.72 639.21 849.6 640.04 852.75 638.96 856.42 639.27 857.46 637.84 862.35 638.05 866.76 636.82 868.19 635.46 872.3 636.41 874.59 635.79 875.84 635.75 878.42 635.06 881.23 635.67 885.16 636.69 886.76 641.06 890.96 642.51 891.13 644.58 893.5 645.38 895.7 649.72 900.12 648.12 900.8 646.36 902.62 643.23 904.12 642.39 906.76 639.71 909.36 637.94 909.49 636.55 911 634.15 915.55 629.86 913.73 626.51 910.31 622.19 908.91 621.31 907.48 619.77 906.4 617.48 906.11 611.65 907.57 610.38 906.53 607.31 905.6 606.31 901.28 604.08 899.25 602.05 896.64 599.49 896.35 595.21 894.32 593.7 892.98 590.29 891.83 586.96 892.17 586.07 889.75 587.19 888.38 586.24 885.26 586.22 883.62 584.93 881.21 584.37 878.44 584.38 875.68 582.48 873.25 581.45 873.33 579.37 870.91 576.87 870.73 570.02 872.2 568.81 871.57 567.16 869.56 566.48 868.03 565.43 867.81 564.12 865.86 563.75 862.8 562.85 860.98 560.65 861.46 558.73 862.38 556.09 864.61 551.37 865.72 548.33 867.11 544.6 865.94 543.35 866.11 542.21 867.52 542.34 868.63 539.34 869 535.49 870.69 532.43 869.62 533.81 864.97 532.67 863.15 532.75 860.01 530.9 854.92 530.16 854.03 530.52 851.14 531.47 847.55 529.53 846.6 527.32 844.31 526.5 842.59 523.39 839.67 520.3 836.01 518.79 834.77 515.82 833.33 514.97 831.97 514.45 826.54 513.51 822.11 511.31 819.94 506.93 819.41 503.47 819.6 500.4 818.29 498.79 814.97 497.59 814.18 495.16 813.49 488.5 813.68 486.81 812.76 486.16 809.18 486.98 804.66 488.39 802.78 488.11 799.16 489.44 793.63 486.22 792.28 483.68 792.25 482.7 790.48 477.49 792.16 476.69 793.99 474.2 796.2 472.86 798.55 470.74 798.28 467.94 796.44 465.53 797.6 464.78 797.15 464.37 795.21 460.76 793.9 458.79 793.65 457.06 794.12 454.12 791.63 453.48 790.24 453.29 784.62 453.78 783 451.46 780.01 449.16 778.93 447.73 777.55 446.66 775.4 446.85 774.55 445.41 771.59 445.42 768.66 445.9 767.82 444.6 764.23 444.42 761.85 440.6 760.21 437.66 757.34 436.03 757.21 433.73 755.71 432.28 752.88 429.84 749.98 428.94 747.01 427.46 744.73 426.58 742.58 425.16 741.91 423.73 742.33 421.46 742.14 418.24 740.57 414.86 735.37 415.45 732.72 417.62 729.72 417.76 726.1 421.42 724.36 422.54 719.53 425.06 717.43 425.25 715.63 427.28 712.85 427.95 708.73 431.11 706.44 433.09 703.47 435.95 703.64 438.46 701.61 443.94 700.81 445.64 702.24 449.35 703.6 453.31 705.78 452.21 707.11 451.38 710.7 452.26 712.01 455.89 712.93 456.43 712.03 460.26 711.5 460.26 710.72 463.44 709.46 467.13 709.37 468.7 709.85 472.37 710.14 472.67 705.39 473.53 703.6 473.04 701.11 473.21 698.2 475.42 691.76 477.79 689.8 477.7 687.94 482.72 689.95 484.92 689.74 485.37 689.04 488.3 689.94 488.43 692.43 490 692.83 492.18 691.99 494.11 692.29 495.12 693.49 499.43 695.73 501.42 697.74 501.57 699.57 505.89 702.92 506.2 707.31 507.85 707.26 512.5 704.59 515.59 704.42 514.83 702.09 513.38 701.1 511.94 697.44 512.03 696.06 510.8 695.13 511.46 692.93 510.53 691.68 509.99 688.47 506.67 688.21 504.09 686.19 503.4 684.08 503.73 682.52 504.98 681.64 505.81 680.04 505.96 677.93 504.33 675.29 504.07 672.99 504.79 671.42 506.07 670.57 507.36 666.34 506.22 664.04 510.04 661.32 513.06 662.22 515.06 660.17 516.17 659.9 517.65 657.65 518.41 657.81 522.7 657.1 524.89 653.84 527.7 651.79 528.81 650.19 529.89 649.77 531.91 646.94 533.53 647.32 533.8 645.4 536.24 644.34 537.89 642.46 541.47 641.08 541.5 637.57 543.28 634.08 545.76 630.62 548.24 629.06 550.25 627.14 549.54 623.78 551.76 620.5 552.82 620.47 555.21 617.42 557.27 618.5 560.7 616.78 562.79 616.2 569 613.29 573.58 610.18 575.2 610.64 576.49 610.16 579.59 609.94 580.99 609.26 583.41 611.2 592.22 612.69 593.5 613.28 595 614.88 596.21 616.99 600.52 617.86 603.15 620.06 605.83 620.83 609.07 618.76 610.19 619.54 614.18 619.45 614.86 619.1 621.37 618.76 624.98 618.87 629.9 619.48 633.78 618.66 637.86 620.45 641.25 622.56 644.2 625.11 647.78 626.72 651.94 626.82 Z" id="33030330"/>
<path d="M 445.41 771.59 446.85 774.55 446.66 775.4 447.73 777.55 449.16 778.93 451.46 780.01 453.78 783 453.29 784.62 453.48 790.24 454.12 791.63 457.06 794.12 458.79 793.65 460.76 793.9 464.37 795.21 464.78 797.15 465.53 797.6 467.94 796.44 470.74 798.28 472.86 798.55 474.2 796.2 476.69 793.99 477.49 792.16 482.7 790.48 483.68 792.25 486.22 792.28 489.44 793.63 488.11 799.16 488.39 802.78 486.98 804.66 486.16 809.18 486.81 812.76 488.5 813.68 495.16 813.49 497.59 814.18 498.79 814.97 500.4 818.29 503.47 819.6 506.93 819.41 511.31 819.94 513.51 822.11 514.45 826.54 514.97 831.97 515.82 833.33 518.79 834.77 520.3 836.01 523.39 839.67 526.5 842.59 527.32 844.31 529.53 846.6 531.47 847.55 530.52 851.14 530.16 854.03 530.9 854.92 532.75 860.01 532.67 863.15 533.81 864.97 532.43 869.62 535.49 870.69 539.34 869 542.34 868.63 542.21 867.52 543.35 866.11 544.6 865.94 548.33 867.11 551.37 865.72 556.09 864.61 558.73 862.38 560.65 861.46 562.85 860.98 563.75 862.8 564.12 865.86 565.43 867.81 566.48 868.03 567.16 869.56 568.81 871.57 570.02 872.2 576.87 870.73 579.37 870.91 581.45 873.33 582.48 873.25 584.38 875.68 584.37 878.44 584.93 881.21 586.22 883.62 586.24 885.26 587.19 888.38 586.07 889.75 586.96 892.17 590.29 891.83 593.7 892.98 595.21 894.32 599.49 896.35 602.05 896.64 604.08 899.25 606.31 901.28 607.31 905.6 610.38 906.53 611.65 907.57 617.48 906.11 619.77 906.4 621.31 907.48 622.19 908.91 626.51 910.31 629.86 913.73 634.15 915.55 633.56 916.58 634.01 921.75 633.88 924.3 634.33 927.64 632.41 930.39 630.58 930.93 629.61 932.89 630.91 935.53 630.51 937.29 629.11 938.78 628.36 941.54 628.1 947.94 623.65 949.75 621.43 952.36 618.75 953.57 619.02 955.44 620.16 958.12 619.98 961.92 620.44 963.07 620.02 964.66 618.68 966.14 618.95 969.42 618.14 970.16 618.91 974.48 620.72 976.86 622.17 980.17 625.09 982.13 627.05 984.12 625.59 987.72 623.48 990.42 623.91 995.88 616.24 996.33 610.48 996 602.72 994.2 598.07 992.91 594.8 991.62 591.43 989.08 587.27 988.22 584.14 986.84 579.05 986.44 576.11 985.87 576.52 987.2 573.68 992.75 572.77 996.18 572.77 1003.59 573.6 1006.65 575.17 1009.03 577.33 1011.53 578.53 1014.27 579.42 1018.99 580.39 1021.87 579.87 1024.89 580.87 1027.93 580.19 1031.67 582.4 1035.42 583.19 1038.74 583.25 1042.96 583.66 1045.79 583.4 1047.32 584.43 1051.72 584.48 1056.04 586.33 1059.3 586.39 1061.95 585.64 1064.7 585.47 1067.16 584.83 1070.18 585.37 1074.16 584.4 1076.07 582.77 1077.21 580.54 1077.98 575.94 1078 572.12 1077.39 569.42 1076.44 566.77 1076.39 564.05 1075.32 559.93 1074.23 555.33 1071.91 540.35 1065.35 534.76 1067.11 529.86 1067.52 523.08 1066.74 514.26 1061.98 510.24 1060.42 505.86 1058.07 504.29 1056.76 499.21 1054.47 496.65 1053.81 490.48 1054.49 485.05 1056.37 479.75 1056.71 474.61 1054.31 471.36 1053.59 468.51 1054.27 465.53 1054.43 461.2 1053.44 457.88 1051.52 456.38 1049.06 454.66 1041.04 452.98 1038.53 449.94 1036.79 443.64 1034.91 441.91 1033.26 440.45 1029.57 438.79 1027.29 437.39 1026.95 432.79 1028.7 428.19 1028.49 429.53 1016.78 430.54 1012.71 425.97 1013.97 421.3 1013.65 418.58 1009.96 417.81 1008 417.79 1002.36 408.03 1003.49 401.91 1003.98 393.8 1001.15 390.76 1001.28 385.43 1002.21 379.41 1002.92 379.96 999.14 381.16 994.6 386.93 986.66 390.25 984.87 393.18 982.44 397.92 981.95 400.69 979.43 407.41 976.13 406.48 971.99 406.85 969.32 402.85 965.42 401.09 962.78 398.73 960.86 399.29 957.56 398.19 955.94 399.35 953.41 401 952.35 399.24 950.9 396.95 948.26 391.39 946.59 389.4 945.11 386.19 943.51 382.57 939.46 380.84 935.61 378.39 933.48 374.57 932.17 372.47 930.56 371.71 928.32 369.23 926.51 369 924.42 367.93 920.11 366.11 917.52 365.95 915.1 364.95 910.92 365.6 906.3 367.62 903.79 366.68 900.7 365.21 898.88 363.14 894.66 361.41 893.49 357.75 891.77 355.52 889.29 354.62 886.38 352.19 882.48 346.98 878 342.62 872.46 340.34 870.25 339.48 868.62 337.69 866.81 335.27 863.68 333.18 862.83 331.1 860.84 332.2 858.28 331.31 852.8 331.43 850.51 333.4 849.03 334 847.17 336.21 844.37 336.48 843.4 334.84 839.14 336.01 836.9 336.26 835.07 335.96 830.63 335.05 826.58 333.1 820.43 332.6 817.51 332.89 816.05 334.83 814.61 339.92 814.36 344.93 815.57 347.16 817.22 349.83 820.48 350.39 822.88 350.45 826.17 350.99 827.31 354.88 832.59 362.79 840.76 364.73 841.73 367.16 841.8 367.28 838.7 368.95 834.08 367.83 832.58 365.99 831.55 364.68 829.34 363.37 821.63 363.3 818.83 365.1 815.71 366.82 814.12 368.12 811.47 375.81 807.4 377.96 805.13 377 800.93 377.29 796.56 381.59 793.48 381.81 791.79 384.41 792.54 386.88 792.51 389.24 791.02 394.26 789.69 397.93 788.2 402.57 783.99 403.82 783.53 405.08 781.6 405.56 778.2 406.13 776.44 407.12 775.66 410.55 776.37 411.81 778.16 412.82 777.39 414.65 777.54 416.94 775.92 418.03 772.8 420.89 775.51 424.8 777.5 426.35 776.05 427.22 776.79 432.59 775.84 434.44 774.33 437.15 775.19 438.61 774.03 445.41 771.59 Z" id="33030340"/>
<path d="M 415.45 732.72 414.86 735.37 418.24 740.57 421.46 742.14 423.73 742.33 425.16 741.91 426.58 742.58 427.46 744.73 428.94 747.01 429.84 749.98 432.28 752.88 433.73 755.71 436.03 757.21 437.66 757.34 440.6 760.21 444.42 761.85 444.6 764.23 445.9 767.82 445.42 768.66 445.41 771.59 438.61 774.03 437.15 775.19 434.44 774.33 432.59 775.84 427.22 776.79 426.35 776.05 424.8 777.5 420.89 775.51 418.03 772.8 416.94 775.92 414.65 777.54 412.82 777.39 411.81 778.16 410.55 776.37 407.12 775.66 406.13 776.44 405.56 778.2 405.08 781.6 403.82 783.53 402.57 783.99 397.93 788.2 394.26 789.69 389.24 791.02 386.88 792.51 384.41 792.54 381.81 791.79 381.59 793.48 377.29 796.56 377 800.93 377.96 805.13 375.81 807.4 368.12 811.47 366.82 814.12 365.1 815.71 363.3 818.83 363.37 821.63 364.68 829.34 365.99 831.55 367.83 832.58 368.95 834.08 367.28 838.7 367.16 841.8 364.73 841.73 362.79 840.76 354.88 832.59 350.99 827.31 350.45 826.17 350.39 822.88 349.83 820.48 347.16 817.22 344.93 815.57 339.92 814.36 334.83 814.61 332.89 816.05 332.6 817.51 333.1 820.43 335.05 826.58 335.96 830.63 336.26 835.07 336.01 836.9 334.84 839.14 336.48 843.4 336.21 844.37 334 847.17 333.4 849.03 331.43 850.51 331.31 852.8 332.2 858.28 331.1 860.84 333.18 862.83 335.27 863.68 337.69 866.81 339.48 868.62 340.34 870.25 342.62 872.46 346.98 878 352.19 882.48 354.62 886.38 355.52 889.29 357.75 891.77 361.41 893.49 363.14 894.66 365.21 898.88 366.68 900.7 367.62 903.79 365.6 906.3 364.95 910.92 365.95 915.1 366.11 917.52 367.93 920.11 369 924.42 369.23 926.51 371.71 928.32 372.47 930.56 374.57 932.17 378.39 933.48 380.84 935.61 382.57 939.46 386.19 943.51 389.4 945.11 391.39 946.59 396.95 948.26 399.24 950.9 401 952.35 399.35 953.41 398.19 955.94 399.29 957.56 398.73 960.86 401.09 962.78 402.85 965.42 406.85 969.32 406.48 971.99 407.41 976.13 400.69 979.43 397.92 981.95 393.18 982.44 390.25 984.87 386.93 986.66 381.16 994.6 379.96 999.14 379.41 1002.92 385.43 1002.21 390.76 1001.28 393.8 1001.15 401.91 1003.98 408.03 1003.49 417.79 1002.36 417.81 1008 418.58 1009.96 421.3 1013.65 425.97 1013.97 430.54 1012.71 429.53 1016.78 428.19 1028.49 424.89 1028.42 422.81 1028.79 417.19 1029.6 415.72 1029.4 412.52 1027.58 409.07 1026.14 404.64 1026.11 400.56 1026.47 398.42 1027.03 397.51 1027.8 391.98 1030.85 389.61 1031.1 387.12 1031.91 382.73 1034.88 378.36 1035.7 374.16 1035.49 371.42 1034.66 366.93 1032.04 361.36 1030.63 358.54 1028.4 352.58 1027.8 351.41 1025.55 347.12 1023.52 346.6 1020.82 345.54 1019.46 346.58 1017.99 346 1012.14 344.86 1007.92 344.99 1005.68 343.38 1003.34 343.31 1000.23 341.72 998.41 340.96 995.81 340.29 990.05 335.8 988.18 331.85 984.44 329 987.3 325.82 989.4 321.12 990.05 317.62 990.79 314.63 992.02 309.32 995.04 307.32 995.04 301.25 998.48 299.07 998.86 296.34 999.96 292.77 1004.09 290.13 1007.98 289.51 1009.5 287.49 1012.38 284.63 1017.48 283.19 1017.96 280.39 1017.16 277.03 1014.2 276.87 1011.62 275.56 1006.87 275.58 1003.85 272.7 1002.83 269.92 1002.46 268.56 1001.87 264.9 999.28 261.19 998.81 258.6 997.14 256.57 996.56 252.55 994.24 247.94 992.62 247.14 992.87 244.79 991.48 243.6 990.06 239.45 988.46 238.21 987.28 237.59 985.71 235.63 984.85 233.92 985.03 231.39 977.08 232.08 974.85 234.17 970.07 236.1 967.58 237.12 965.44 239.45 964.6 244.77 962.19 247.6 958.74 248.4 956.28 246.62 952.52 248.2 950.42 249.08 947.97 249.35 944.25 249.1 942.7 250.32 939.39 254.61 937.42 259.6 936.21 260.82 935.17 262.03 931.1 262.44 928.39 264.05 924.91 263.78 923.89 264.73 919.44 266.86 916.72 268.33 915.85 269.3 909.95 271.67 908.23 274 907.62 277.46 905.27 279.08 903.84 279.36 900.69 278.93 899.94 276.25 897.95 278.34 894.58 280.2 892.88 283.12 889.48 286.83 886.64 290.15 882.32 289.29 879.98 288.43 875.6 290.46 873.27 291.69 869.99 290.24 867.16 290.7 865.71 290.22 862.81 290.78 861.18 290.84 858.53 291.75 856.87 293.39 855.23 292.38 852.98 290.67 847.06 289.65 844.62 291.64 842.49 294.91 840.05 296.2 839.55 301.26 840.65 301.79 835.27 301.04 833.21 298.97 830.85 295.82 828.72 292.61 826.16 290.85 825.7 286.53 822.59 284.37 821.32 282.04 819.17 280.12 815.55 279.22 812.14 278.53 811.72 278.19 806.78 277.49 801.05 276.53 795.2 275.14 791.89 273.31 789.66 268.71 786.87 263.45 784.55 259.58 783.96 256.51 782.36 256 781.34 254.54 781.45 250.34 778.79 245.66 774.58 243.65 771.82 243.01 770.39 242.48 767.42 242.59 765.65 241.88 761.68 241.56 757.56 241.78 752.44 240.95 749.92 242.98 749.88 243.59 747.63 243.29 744.06 242.46 738.93 241.57 738.39 238.05 736.24 242.24 736.01 253.47 732.9 254.16 731.47 261.54 727.41 265.32 725.18 272.19 721.92 276.1 721.8 277.53 723.63 282.17 725.01 284.75 727.01 285.83 728.33 287.04 730.84 289.39 734.13 293.29 736.53 294.54 737.79 302.16 743.69 305.78 746.04 314.14 748.5 318.66 750.23 324.79 751.38 325.33 749.57 328.07 743.52 329.22 735.35 328.58 731.76 329.44 726.22 329.48 718.46 328.84 712.72 328.2 710.6 327.4 706.27 330.14 693.4 332.06 686.93 334.63 674.48 336.11 667.82 336.13 665.26 335.54 659.63 335.27 659.4 335 656.97 335.36 654.86 334.75 648.5 335.19 645.31 336.12 643.18 338.59 641.21 340.19 640.68 342.94 640.76 345.83 641.3 344.67 642.63 347.14 644.21 348.75 646.34 352.13 649.24 352.96 651.89 354.49 653.73 352.99 656.57 352.66 658.07 351.03 660.04 350.44 663.14 350.57 665.75 351.96 669.54 352.08 671.54 354.34 672.9 358.87 677.51 358.13 681.02 358.16 684.12 357.5 685.63 358.18 689.31 359.49 691.12 359.14 693.87 360.26 697.35 361.84 700.53 365.91 705 367.79 706.43 372.58 709.25 372.32 711.04 373.43 711.19 384.46 715.97 385.37 717.95 387.46 719.19 389.15 721.43 390.19 726.56 394.33 728.96 397.12 729.05 399.09 730.52 400.68 730.2 403.33 731.72 407.1 732.25 409.57 733.45 411.53 733.54 413.9 732.72 415.45 732.72 Z" id="33030350"/>
<path d="M 189.39 33.97 189.83 37.47 190.9 41.27 191.21 43.54 190.63 49.12 190.98 52.93 191.75 57.01 193.02 61.92 193.42 68.08 194.96 73.04 195.79 74.73 197.26 79.35 199.56 79.37 202.71 78.48 204.44 80.59 206.37 80.48 208.48 81.96 210.6 82.42 213.19 83.57 214.96 83.61 214.78 88.21 215.1 90.19 217.61 93.95 221.25 95.79 222.75 96.1 225.01 98.41 228.01 102.28 228.29 105.5 226.25 108 224.87 108.73 224.46 110.27 222.51 111.86 218.48 113.85 217.15 115.07 216.67 116.68 216.99 118.53 216.61 120.14 215.58 121.53 213.46 122.36 212.31 124.28 211.29 127.34 210.47 132.44 208.2 133.99 208.11 135.73 210.51 139.22 214.62 142.89 215.85 146.03 216.16 150.68 215.93 156.11 219.27 162.06 223.11 165.93 225.71 167.14 231.43 167.7 231.77 168.64 234.51 171.03 234.4 174.69 234.98 177.06 236.36 180.01 236.52 183.35 238.1 185.48 239.61 188.81 239.35 192.08 239.53 194.11 241.96 197.39 244.79 199.15 247.98 201.89 249.55 204.11 250.35 207.2 250.8 211.27 248.48 213.31 246.73 213.99 245.77 215.22 243.1 214.52 241.33 216.94 240.65 219.22 241.88 220.98 242.16 222.74 246.62 226.47 252.07 228.29 254.21 232.3 256.79 233.61 256.83 234.46 259.5 236.7 261.73 237.67 263.65 241.36 266.76 243.38 266.76 245.57 267.39 248 270 249 272.42 250.52 274.14 252.15 272.14 257.2 271.91 259.34 272.61 261.42 271.74 264.44 270.78 265.31 269.51 269.03 267.83 272.21 265.83 273.88 265.55 277.81 264.73 279.99 263.51 281.93 264.29 283.74 264.22 287.51 262.84 288.96 265.17 291.33 265.64 294.89 264.47 299.02 264.6 300.45 263.5 302.54 263.71 306.33 264.37 308.39 263.23 311.28 263.56 313.6 260.18 321.06 259.76 323.35 260.57 325.91 260.05 329.19 258.53 331.19 260.91 335.21 264.66 336.73 265.48 337.79 264.33 342.24 264.36 343.73 265.62 344.27 266.98 347.81 269.11 348.96 269.63 349.79 273.02 352.59 274.62 357.15 280.56 356.72 284.25 357.21 284.64 358.11 286.72 359.69 287.81 361.21 290.15 361.97 292.02 364.42 290.97 366.28 289.75 366.64 287.59 370.66 286.66 372.98 287.26 374.91 292.33 374.83 294.63 375.25 294.03 376.34 295.03 379.21 294.5 382.92 295.66 384.22 295.38 385.95 296 387.05 297.79 388.08 299.25 392.02 299.68 395.28 300.82 396.38 302.17 399.32 302.58 402.62 306.51 408.27 307.47 409.01 307.72 411.91 305.42 420.06 304.09 421.8 303.23 420.59 298.8 419.95 297.48 418.12 295.76 417.26 292.59 417.36 290.34 415.72 288.29 415.94 286 417.32 282.96 416.11 281.53 414.88 278.41 414.13 276.03 415.33 273.99 415.11 274.01 411.01 271.24 409.99 270.56 408.56 271.77 403.6 276.01 396.38 278.7 392.68 278.42 390.98 275.64 389.04 271.3 388.72 265.16 389.79 260.92 390.04 258.22 390.52 257.58 388.08 256.2 385.43 252.93 382.26 247.71 376.71 244.1 371.64 244.04 368.81 244.92 367.37 247.62 367 248.85 366.12 249.76 364.08 249.27 360.85 245.68 354.46 245.55 351.13 244.99 346.73 244.08 345.54 242.08 345.19 239.2 346.19 237.1 349.19 232.49 353.18 228.91 354.62 226.17 354.28 222.52 350.89 219.48 349.43 215.05 348.53 209.89 347.72 202.87 346.11 197.52 343.63 194.05 340.46 192.03 344.8 190.25 349.4 187.13 354.07 185.79 356.71 183.9 357.21 181.65 358.47 180.23 361.3 179.08 365.49 178.88 368.86 180.1 372.23 179.63 376.14 177.03 379.83 178.33 382.3 178.22 385.1 181.4 388.44 176.64 388.95 174.72 387.59 169.46 386.83 165.7 386.85 163.43 387.92 161.72 385.43 158.81 383.15 158.21 380.45 156.87 377.81 155.93 372.4 154.88 370.07 154.06 364.36 147.12 360.25 146.11 361.53 144.38 362.51 142.25 359.89 140.2 358.82 137.08 357.79 135.49 358.05 132.23 357.72 130.64 357.92 128.18 356.24 127.22 354.4 127.69 352.24 126.49 350.12 126.2 348.24 126.92 344.78 125.72 340.53 127.02 338.35 128.25 335.21 128.14 330.29 128.5 327.79 126.61 325.84 126.31 323.83 126.75 319.83 128.32 318.14 130.12 314.47 129.31 311.03 129.13 308.9 127.82 308.08 125.03 308.25 121.32 309.02 119.43 305.81 119 303.08 117.43 297.3 115.16 294.7 114.46 292.82 112.8 289.94 111.1 285.26 107.01 283.89 106.1 282.54 103.77 284.09 100.37 283.5 98.54 283.59 97.76 282.72 97.32 280.26 98.21 276.78 99.67 273.3 99.25 269.66 99.89 268.3 98.52 265.58 99.16 264.5 98.63 262.03 96 259.98 94.33 255.95 94.4 254.32 92.82 251.9 92.99 248.71 90.1 246.57 87.57 245.58 83.77 245.21 81.56 243.66 78.57 242.26 77.52 242.17 76.06 240.51 75.93 238.07 70.75 237.41 67.13 236.24 65.83 234.63 61.63 234.38 57.64 236.11 55.56 234.79 52.3 233.58 50.43 234.36 48.45 233.75 45.38 235.26 43.08 235.45 41.29 233.78 38.39 232.18 36.52 230.59 32.74 230.45 27.59 232.23 26.33 232.1 24.54 230.21 21.76 231.32 17.73 229.53 14.15 230.09 11.34 226.93 11.61 224.29 12.71 220.36 13.12 216.6 14.9 214.89 17.27 213.62 19.58 211.14 20.23 207.71 21.55 204.4 22.91 203.08 25.24 201.89 23.68 196.88 23.8 194.92 24.55 193.4 24 189.34 23.09 185.99 24.63 183.03 25.75 178.93 27.77 178.05 29.33 175.11 28.69 172.65 30.04 170.42 26.57 166.55 23.55 160.04 21.94 154.85 21.09 147.43 20.18 144.39 19.4 140.57 20.55 139.19 20.86 135.39 20.87 131.22 21.38 129.75 22.48 128.8 22.27 126.34 18.65 117.71 16.52 115.02 11.98 101.1 11.53 94.55 4.54 91.81 2.5 89.8 1.07 85.31 1 81.98 1.36 80.87 3.13 78.76 10.34 66.83 19.16 60.54 27.53 51.02 33.87 44.43 40.89 45.14 43.28 44.72 46.1 44.75 48.53 42.82 49.47 41.61 50.26 35.93 53.52 32.26 60.44 26.76 63.15 25.12 70.01 22.11 80.79 19.76 83.34 19.05 86.78 14.42 88.88 12.17 91.5 10.6 93.28 7.59 97.48 5.9 101.5 6.03 106.91 3.37 111.02 2.19 112.89 1 115.85 4.5 118.19 4.53 119.24 3.11 122.24 2.45 123.66 1.36 126.55 2.05 128.01 3.43 129.32 3.82 130.48 5.41 133.13 7.63 134.62 8.39 137.92 9.24 140.78 12.25 142.96 10.45 148.93 9.59 149.98 9.02 151.4 9.99 152.05 12.15 154.4 12.02 156.22 12.89 161.82 14.53 162.94 15.07 164.42 14.55 167.41 15.48 168.83 18.39 173.03 20.5 174.06 22.63 174.93 23.27 176.48 26.13 179.06 27.66 182.26 28.22 184.26 27.96 187.51 30.8 189.39 33.97 Z" id="33030360"/>
<path d="M 554.58 18.95 555.27 21.02 559.41 26.23 561.73 26.55 562.86 27.24 564.98 26.1 567.93 25.44 568.74 31.4 567.97 34.42 568.33 35.69 570.32 35.83 577.92 39.32 579.09 39.29 582.13 44.56 582.39 46.54 584.08 48.86 584.14 51.28 585.71 54.69 586.48 54.72 587.14 57.03 590.78 57.23 591.93 58.39 592.68 61.12 595.51 63.61 594.9 66.35 595.33 68.82 596.79 69.92 599.67 70.34 601.66 71.2 604.13 71.15 605.39 69.86 606.9 70.33 609.18 67.17 612.58 65.47 612.89 66.52 615.88 66.04 618.37 67.52 619.5 69.61 621.11 70.59 624.86 70.91 626.4 71.83 630.16 68.91 633.33 66.09 637.37 64.11 638.75 64.48 640.74 67.75 642.13 68.33 642.11 70.35 644.68 73.21 644.75 75.34 649.1 79.19 650.97 81.75 651.18 82.83 652.66 84.52 654.01 88.56 654.04 90.57 654.73 92.73 656.35 96.17 660.09 101.67 664.83 105.95 667.37 108.54 669.55 110.09 670.62 113.73 673.28 116.52 678.35 114.37 681.06 112.7 681.87 111.71 684.21 111.69 685.63 112.18 688.09 111.54 691.94 111.44 692.89 110.99 695.41 111.73 696.57 112.56 698.34 111.29 700.6 110.46 703.36 110.64 704.67 107.01 707.68 103.92 708.99 101.25 710.49 100.31 711.4 98.67 714.63 98.69 717.41 99.73 719.94 98.41 721.96 96.42 723.99 97.15 724.55 96.25 726.67 96.24 728.52 95.38 732.06 95.92 736.67 94.68 736.84 94.14 741.35 94 742.39 93.23 749.63 93.21 751.94 92.34 753.83 87.94 755.19 86.84 758.5 82.54 760.61 81.2 761.26 79.53 766.17 77.76 765.68 80.06 770.29 81.93 773.01 86.22 776.23 87.89 780.34 87.64 781.58 89.48 784.73 92.42 786.7 93.43 790.38 93.35 791.9 94.52 796.46 95.49 799 95.73 798.02 98.95 794.68 103.27 793.56 105.8 792.34 110.71 792.47 115.19 790.41 119.15 790.28 122.94 791.17 123.48 792.24 126.34 792.18 128.62 790.43 130.69 789.27 133.46 788.12 135.12 788.08 137.78 786.04 140.74 784.81 141.63 781.95 140.29 780.76 139.15 778.35 138.29 776.57 140.18 777.26 142.4 777.13 145.09 772.76 144.05 771.37 143.01 765.81 142.79 763.02 142.23 760.87 142.34 759.89 146.53 761.6 150.69 760.29 156 762.66 158.74 760.38 159.27 756.66 159.21 755.56 165.29 752 165.01 751.55 167.27 750.11 168.6 747.65 168.01 746.84 166.07 744.79 166.81 743.86 166.54 740.37 167.23 735.2 174.67 730.79 174.55 726.88 175.5 727.26 181.36 727.88 187.18 730.36 192.76 730.06 195.41 730.88 200.59 732.01 203.61 729.33 204.17 727.75 203.93 725.75 204.9 723.97 205.14 720.56 206.68 715.78 207.5 712.13 204.76 709.51 204.62 706.89 203.8 701.68 203.71 701.16 202.17 699.07 199.83 693.88 202.98 689.76 201.71 690.06 202.68 689.08 205.65 687.3 207.72 684.75 209.14 684.92 210 683.9 212.29 679.14 217.18 677.89 220.78 678.07 224.15 678.64 228.3 675.24 228.72 670.78 229.62 667.16 231.74 668.5 235.4 670.1 237.88 670.71 242.33 672.74 242.3 673.71 243.3 679.28 246.57 681.89 251.57 681.89 252.63 674.5 253.85 673.28 253.18 666.25 252.2 663.26 254.09 661.43 254 658.92 255.32 657.48 255.43 654.15 257.65 651.54 258.26 651 259.26 649.45 259.14 646.51 260.25 643.11 259.34 641.54 259.95 638.91 261.78 636.17 262.96 635.18 264.35 633.46 264.99 632.48 266.37 630.72 266.62 631.99 263.7 633.01 263.1 634.22 260.95 634.67 258.21 635.63 255.77 635.41 254.31 633.23 253.57 631.62 251.28 630.38 248.25 628.34 247.79 628.92 243.13 630.27 239.81 629.52 237.44 630.37 234.37 632.2 234.44 633.82 233.14 636.37 234.96 640.66 230.86 642.36 230.27 642.11 227.7 640.7 224.86 640.08 221.86 639 221.23 638.31 219.29 637.31 218.37 635.87 214.93 635.7 212.51 634.47 210.49 633.28 209.55 633.91 207.92 632.81 207.59 630.7 203.54 629.51 203.79 627.99 202.59 626.42 202.65 625.14 200.84 626.02 196.87 625.21 194.85 621.95 193.59 621.15 191.29 619.75 191.73 616.45 191.02 614.97 189.58 611.47 190.03 607.73 189.62 605.47 190.22 603.58 191.63 600.33 191.63 598.86 193.65 597.56 192.93 595.26 194.08 594.21 193.99 589.82 195.46 589.51 194.57 587.05 193.09 585.38 193.44 581.04 195.48 578.48 196.31 577.57 197.43 575.15 198.54 573.54 198.29 572.1 196.53 572.62 193.54 569.83 191.46 570.14 189.69 569.46 187.54 568.11 187.81 566.57 187.11 565.64 185.79 564.62 186.27 558.98 184.7 557.78 184.76 554.95 178.52 552.59 174.97 551.75 172.59 550.4 172.7 549.05 171.47 549.19 168.56 547.71 167.1 544.85 165.37 543.02 164.96 540.3 162.81 538.28 160.36 536.58 159.8 534.3 157.92 533.43 156.66 529.98 155.34 529.2 154.25 527.39 153.91 524.83 154.26 521.01 153.48 518.52 151.28 518.29 149.18 518.94 147.3 520.92 144.96 521.55 142.8 520.96 139.54 522.17 136.54 520.96 132.3 517.39 133.25 516.54 131.98 513.27 130.07 508.84 128.82 504.15 131.89 501.76 132.21 498.6 130.25 495.86 130.39 494.69 128.47 494.8 126.8 492.76 123.44 489.82 121.14 489.18 119.16 487.72 116.86 487.17 113.93 486.06 112.75 485.03 109.14 484.02 108.15 478.98 104.7 476.68 102.38 476.6 101.37 479.02 99.55 479.75 97.82 481.65 95.02 485.16 94.86 486.42 94.44 488.2 91.9 487.3 85.45 486.98 77.68 488.99 76.1 489.77 74.17 491.48 72.99 493.46 68.85 491.46 67.21 490.25 64.74 488.91 62.93 489.79 59.07 492.61 57.65 493.42 56.31 495.57 55.8 497.03 52.37 499.46 51.3 501.48 49.76 509.17 45.07 510.63 43.66 512.92 40.58 518.83 35.85 520.05 33.98 522.02 32.6 525.64 28.91 529.23 26.74 532.95 26.7 539.91 22.96 540.68 20.23 541.75 18.75 546.04 18.52 550.73 19.26 554.58 18.95 Z" id="33030370"/>
<path d="M 619.45 260.5 620.3 261.38 619.74 266.97 618.28 268.1 618.54 274.19 618.23 275.67 619.15 277.85 618.43 279.89 617.25 280.4 615.69 283.25 615.18 285.11 615.87 286.81 613.26 289.06 611.01 289.23 609.7 288.65 606.61 288.52 605.55 285.72 602.75 282.37 602.27 282.68 600.69 286.27 599.39 286.57 597.94 284.7 596.35 283.4 593.73 283.48 592.39 282.41 589.6 282.56 589.45 284.91 588.53 286.15 586.25 287.29 585.51 288.94 583.47 290.17 581.99 289.27 580.67 290.05 574.42 288.02 573.37 287.01 570.47 285.94 570.58 283.01 572.53 276.43 574.78 277.4 576.44 275.33 578.13 275.45 578.03 273.14 579.75 272.54 580.65 270.56 580.17 268.55 581.56 266.95 582.31 263.96 580.75 262.38 581.33 260.96 580.51 257.94 577.04 256.11 577.3 252.67 579.68 252.5 581.91 249.67 582.35 248.51 583.22 247.42 582.92 246.04 583.99 243.18 584.8 240 583.32 238.99 583.75 236.74 583.53 235.12 584.46 234.11 583.87 232.25 588.76 230.84 590.74 229.22 592.36 228.71 596.97 226.54 598.59 226.58 598.71 230.35 598.33 232 596.07 236.87 598.13 238.24 600.38 238.92 602.83 241.06 603.56 243.12 605.97 245.03 605.37 247.86 603.47 248.44 602.18 250.5 601.8 252.29 602.54 252.94 604.92 252.98 605.45 254 608.22 253.76 611.22 254.52 611.84 253.3 613.38 253.79 615.59 255.32 614.94 257.61 617.42 258.91 619.45 260.5 Z" id="33030510"/>
<path d="M 547.86 244.72 544.7 246.87 543.87 248.11 543.48 250.05 541.32 250.83 540.1 253.45 539.18 256.66 536.9 259.63 537.85 261.75 536.62 262.46 536.14 263.75 538.05 265.35 541.42 267.52 543.25 270.07 542.77 272.2 544.81 277.19 545.52 279.65 546.69 280.2 547.06 283.06 546.13 285.91 543.81 289.37 543.25 292.85 542.24 296.1 542.58 298.74 542.18 300.36 540.55 303.49 539.83 305.54 536.02 306.66 536.36 305.21 536.28 301.88 535.46 300.98 533.29 300.78 533.17 299.58 531.54 297.38 529.05 296.27 526.95 294.05 525.7 293.76 525.01 295.04 519.48 289.58 518.82 286.22 516.24 285.62 516.29 282.33 513.69 279.59 512.17 279.4 510.76 277.59 506.53 278.55 505.88 279.21 506.25 280.95 504.53 280.62 500.43 282.75 498.57 284.31 496.87 283.24 493.92 283.2 492.75 281.78 490.54 281.58 488.48 283.21 483.69 282.52 483.44 280.46 482.11 281.23 478.21 282.33 476.06 283.64 475.29 283.23 473.42 285.49 471.41 285.49 471.42 283.77 469.28 281.17 468.5 279.4 466 278.22 465.07 279.58 465.19 280.92 462.34 282.87 461.39 283.52 459.72 282.44 458.58 280.53 456.72 279.17 456.19 278.15 454.67 277.78 453.55 276.19 451.85 275.97 450.73 274.78 446.62 280.59 443.46 281.82 443.46 279.52 442.1 274.76 441.75 273.64 440.61 274.34 441.68 276.1 440.51 278.63 440.82 280.45 437.65 285.13 433.05 284.72 432.58 285.44 429.9 285.49 429 282.44 429.04 280.84 427.64 279.3 426.31 279.82 424.4 278.69 422.59 278.74 421.88 278 420.51 271.11 420.75 270.59 418.89 258.24 418.1 255.54 421.03 254.84 428.96 254.28 431.66 253.69 440.52 250.68 447.9 250.04 451.33 247.67 454.93 247.64 457.89 246.61 458.44 248.01 460.27 247.46 461.88 248.7 464.81 249.11 467.46 249 468.39 248.4 473.72 247.44 475.45 248.04 475.44 246.27 476.91 244.57 478.72 245.42 481.78 242.93 486.31 241.34 487.53 241.87 494.26 241.81 496.03 240.96 498.73 235.53 499.79 234.54 498.82 233 497.39 228.49 496.33 227.1 498.17 225.51 498.82 222.74 499.85 221.29 499.74 217.92 498.76 215.22 500.76 212.4 500.34 208.64 500.25 204.14 500.59 201.02 497.64 197.92 497.68 195.56 498.53 194.84 499.76 187.21 502.01 186.27 504.42 184.6 506.57 181.19 506.47 178.43 507.37 176.64 507.77 174.04 509.78 174.05 511.68 173.27 515.2 170.15 516.82 171.12 523.22 170.83 527.23 167.94 529.37 167.43 531.51 167.64 532.08 168.34 534.94 168.74 537.26 171.81 537.77 174.93 538.9 177.77 540.76 178.6 539.96 180.08 540.31 183.28 541.55 184.91 541.66 186.94 543.08 187.91 544.93 187.95 545.41 190.92 546.14 192.26 545.53 193.94 547.2 194.37 547.76 196.22 548.61 196.35 549.48 198.47 551.69 199.18 553.31 202.13 552.55 203.43 553.39 205.44 552.82 207.87 553.53 209.58 552.57 215.1 551.55 215.66 550.79 217.26 549.39 217.4 546.52 245.61 547.86 244.72 Z" id="33030560"/>
<path d="M 548.33 280.28 546.69 280.2 545.52 279.65 544.81 277.19 542.77 272.2 543.25 270.07 541.42 267.52 538.05 265.35 536.14 263.75 536.62 262.46 537.85 261.75 536.9 259.63 539.18 256.66 540.1 253.45 541.32 250.83 543.48 250.05 543.87 248.11 544.7 246.87 547.86 244.72 550.35 243.42 556.54 239.28 563.67 234.77 564.59 236.06 566.98 235.07 570.11 234.62 570.96 238.85 572.36 238.65 573.04 241.51 575.83 240.84 578.43 243.81 579.83 247.51 580.55 248.5 582.35 248.51 581.91 249.67 579.68 252.5 577.3 252.67 577.04 256.11 580.51 257.94 581.33 260.96 580.75 262.38 582.31 263.96 581.56 266.95 580.17 268.55 580.65 270.56 579.75 272.54 578.03 273.14 578.13 275.45 576.44 275.33 574.78 277.4 572.53 276.43 570.94 275.64 571.9 273.93 570.57 271.78 570.76 270.82 567.15 270.22 566.05 269.54 565 270.8 562.66 270.48 558.34 270.7 557.11 269.93 553.88 272.25 554.57 273.37 552.58 275.23 550.19 279.93 548.33 280.28 Z" id="33030590"/>
<path d="M 588.48 318.83 591.55 320.01 595.1 327.41 596.63 331.51 597.14 339.39 598.17 342.07 599.24 343.25 597.86 344.84 599.35 347.47 598.96 348.29 601.05 352.09 602.4 352.35 602.42 354.12 600.61 354.52 599.04 356.16 597.05 355.78 595.83 356.61 594.78 360.08 592.86 361.29 591.64 360.56 590.22 356.79 586.35 355.51 583.66 357.62 581.44 359.78 580.63 362.21 579.18 361.51 578.22 362.14 576.75 361.77 572.77 362.29 569.99 361.64 565.99 362.08 565.67 365.3 566.1 367.17 567.23 368.02 566.98 370.44 567.42 371.07 567.25 378.97 566.32 383.39 566.41 388.46 566.9 388.77 566.52 391.74 565.89 393.68 564.59 393.5 563.11 391.91 560.62 390.58 559.15 390.26 557.19 390.88 555.83 389.87 552.8 389.95 551.75 390.96 549.5 389.56 548.36 390.62 546.18 391.15 544.8 392.79 544.32 394.69 543.14 394.81 542.15 396.51 540.62 396.91 540.39 402.57 539.93 405.17 540.42 406.33 539.32 408.27 537.21 408.59 535.28 407.35 534.15 404.59 532.45 402.32 530.78 401.45 529.01 399.54 528.54 397.91 526.8 396.86 525.76 399.17 525.45 401.27 523.35 400.93 522 401.37 517.92 401.1 515.52 401.52 513.96 400.98 512.85 401.57 510.36 400.56 509.07 398.84 507.1 397.67 506.75 396.67 502.98 395.51 502.14 394.06 501.12 394.22 499.58 392.07 498.72 391.67 495.57 392.13 493.97 391.3 492.04 389.59 492.78 387.18 494.71 386.19 495.06 384.31 494.13 383.16 493.79 380.79 495.25 378.94 495.93 375.34 495.43 372.98 494.79 372.56 496.61 370.05 496.49 366.98 497.85 364.78 498.14 360.7 499.47 359.21 501.3 359.05 501.46 357.6 506.65 358.52 508.61 357.95 509.35 356.57 511.75 355.29 515.48 350.37 517.91 349.56 518.27 346.93 517.04 346.16 517.43 345.03 516.4 344.1 517 341.28 516.45 339.94 516.9 337.01 516.37 335.07 518.67 334.01 517.4 331.8 517.32 330.42 519.1 327 520.77 326.38 520.53 324.64 521.18 323.52 520.6 320.75 526.49 322.85 528.62 322.2 529.45 320.33 529.38 318.49 532.07 318.13 533.56 318.67 539.3 322.54 543.85 322.17 547.01 322.55 550.52 323.73 553.13 324.06 558.71 323.63 561.46 323.64 564.3 322.36 566.92 323.19 571.16 321.02 570.09 319.77 565.64 318 565.48 317.22 561.91 315.5 560.56 314.38 559.35 312.35 557.19 311.86 554.02 310.44 557.76 301.18 559.72 296.32 562.01 294.78 561.36 296.18 569.45 300.78 570.56 299.86 570.46 298.49 572.55 298.33 573.93 298.89 574.22 300.32 573.58 301.76 580.98 304.87 578.9 309.74 582.1 311.12 582.14 313.73 580.46 315.64 578.03 316.96 578.34 317.75 588.48 318.83 Z" id="33030600"/>
</g>
</svg>