<?xml version="1.0"?>
<svg xmlns="http://www.w3.org/2000/svg" version="1.2" baseProfile="tiny" width="800" height="785" viewBox="0 0 800 785" stroke-linecap="round" stroke-linejoin="round">
<g id="dong">
<path d="M 748.48 392.51 749.23 394.25 749.2 406.89 741.46 406.9 741.31 416.98 735.7 416.99 732.56 413.74 728.72 414.98 721.2 409.36 715.6 416.84 709.52 417.75 709.81 413.5 701.65 416.08 701.13 423.51 693.49 422.98 693.52 418.63 689.22 418.38 688.93 422.2 682.47 422.72 682.88 415.5 683.97 415.47 689.47 415.34 690.91 390.26 748.48 392.51 Z" id="33043550"/>
<path d="M 748.48 392.51 690.91 390.26 689.47 415.34 683.97 415.47 675.94 411.72 675.94 415.45 668.34 415.7 663.61 416.71 657.61 415.56 657.7 411.13 649.71 410.91 649.06 407.17 633.86 406.01 632.92 401.13 629.22 400.98 624.83 396.27 618.09 395.21 618.12 388.47 616.86 387.12 605.52 386.41 605.56 377.21 608.96 376.22 608.59 372.79 611.78 369.92 614.31 369.91 614.38 362.06 618.9 362.76 618.87 341.06 627.91 339.85 633.24 339.74 640.34 340.61 643.36 340.12 654.22 330.68 657.11 329.31 667.39 326.45 667.82 330.36 675.28 330.35 675.2 323.16 682.17 318.73 692.02 317.12 724.61 315.94 731.05 312.4 735.47 324.39 729.56 325.95 729.42 328.44 722.1 329.68 721.63 331.22 728.49 334.48 729.73 344.92 733.81 345.12 737.08 356.79 738.88 361.26 738.37 364.27 735.73 368.89 743.03 373.28 739.92 378.83 741.36 381.17 744.72 379.11 750.69 378.78 751.3 382.96 746.92 382.78 746.68 387.27 748.48 392.51 Z" id="33043560"/>
<path d="M 572.44 378.25 570.75 378.67 569.69 394.56 572.51 397.22 576.62 403.1 576.39 409.77 577.78 413.14 569.01 412.98 571.97 427.5 572.97 430.01 585.39 451.15 591.91 461.71 604.11 483.34 589.78 489.11 587.05 483.56 581.43 494.94 574.53 506.2 573.19 515.91 575.88 525.18 576.16 529.82 578 535.58 580.9 538.02 585.45 546.24 584.2 551.25 588.12 551.6 591.83 548.65 602.94 551.27 608.11 554.72 610.25 554.5 615.46 547.61 622.75 546.27 628.55 543.87 628.02 546.68 625.08 547.66 624.73 551.6 626 559.22 624.78 563.71 622.92 567.05 615.53 570.42 616.35 575.23 615.34 579.79 612.09 585.31 613.81 589.97 615.65 591.51 615.27 594.66 616.38 597.47 614.21 605.35 611 605 606.53 602.7 588.98 600.64 585.77 597.84 584.96 604.93 578.64 606.79 577.29 610 569.57 611.19 567.05 615.77 563.61 614.59 558.61 615.39 557.12 612.41 559.02 604.57 558.17 600.94 556.44 599.21 556.2 595.33 554.36 593.43 555.48 587.71 553.33 585.75 548.95 584.81 546.28 581.83 547.9 577.31 542.73 575.83 542.68 570.21 544.99 567.04 539.67 567.03 533.03 571.05 527.58 576.13 527.02 580.14 523.21 583.26 521.85 585.88 518.8 586.52 510.5 595.49 511.36 598.78 509.05 604.93 504.53 609.19 500.4 610.15 489.57 616.08 486.64 619.32 485.27 628.03 482.49 631.96 479.68 639.22 476.5 644 464.1 654.33 459.66 660.55 454.93 663.47 452.49 667.5 446.19 669.55 440.68 669.11 435.1 669.66 434.09 665.53 427.09 664.04 423.83 662.53 423.5 659.97 421.12 657.06 421.32 653.13 418.19 653.95 410.81 663.19 409.05 659.5 405.32 657.74 400.11 656.53 394.69 658.08 393.94 663.24 388.56 661.19 384.1 661.92 378.02 657.1 376.36 653.01 372.24 647.6 370.54 639.38 359.5 632.36 353.67 630.63 351.78 627.52 350.01 621.58 351.31 615.03 358.07 603 357.77 597.25 362.65 595.1 363.89 588.76 361.26 579.18 361.1 573.63 362.88 565.23 362.36 563.5 366.28 560.74 369.77 559.47 374.44 560.08 376.75 558.36 380.86 561.39 381.12 563.21 386.09 564.23 387.56 568.76 391.26 571.48 394.62 572.5 399.44 566.91 396.83 563.28 396.97 560.42 395.15 558.67 395.01 554.11 390.12 550.09 391.98 546.71 390.35 543.28 392.04 542.33 393.04 537.25 393.11 532.12 397.51 533.62 398.99 532.01 399.75 527.17 397.55 521.97 399.55 515.76 402.57 513.69 402.83 509.73 399.12 503.2 398.09 498.69 394.21 498.39 391.23 494.94 389.72 491.76 387.58 490.51 385.55 485.63 387.06 483.75 382.01 481.54 378 478.76 378.44 465.75 380.93 461.57 392.14 463.61 392.68 461.23 399.55 462.54 403.19 462.61 406.52 461.23 408.71 457.66 411.53 461.63 413.78 463.05 415.11 467.18 411.92 469.89 415.53 477.15 425.62 478.85 426.86 478.54 432.15 481.99 434.72 482.46 440.23 480.73 443.13 480.97 447.78 477 451.45 476.54 456.44 472.56 460.51 474.96 464.3 472.32 467.8 471.28 470.87 471.86 473.64 474.21 475.09 472.95 482.82 472.11 488.43 473.04 493.05 469.32 496.17 463.11 502.96 462.5 507.42 459.99 510.94 453.55 509.72 442.68 504.52 444.32 496.19 444.39 490.73 447.46 486.9 451.99 487.4 453.89 481.28 457.32 478.12 457.6 473.39 455.9 469.95 457.39 466.43 454.6 458.26 454.4 456.04 452.76 451.51 451.75 449.07 453.69 441.02 450.51 443.62 445.7 445.26 440.56 443.91 436.3 443.84 430.45 444.97 423.21 442.91 415.67 441.43 413.48 434.53 409.04 432.48 406 432.36 400.92 423.17 392.46 418.27 395.17 411.63 394.01 398.94 382.3 402.55 378.51 397.57 376.05 398.56 370.57 396.96 364.21 393.95 356.56 392.68 349.83 392.57 339.5 391.92 329.81 392.72 318.25 395 314.26 403.36 306.87 406.47 305.65 417.27 306.34 424.06 308.33 430.34 309.32 436.59 311.12 445.69 311.76 452.45 310.07 461.18 304.86 465.83 299.45 469.49 292.18 469.71 287.05 472.48 287.47 489.77 277.52 494.35 293.54 503.18 291.1 509.58 314.1 507.44 314.59 508.38 324.26 513.14 330.86 518.78 333.21 521.47 337.77 520.96 341.77 522.44 344.12 524.83 343.16 527.26 344.61 527.91 347.05 531.44 351.27 535.41 351.48 545.38 349.71 548.29 350.59 552.87 357.85 554.89 359.05 561.09 359.14 563.78 361.69 564.17 364.55 566.64 369.31 569.96 371.56 572.44 378.25 Z" id="33043570"/>
<path d="M 726.11 265.45 727.92 270.28 732.12 276.36 728.17 279.78 730.95 283.86 730.49 288.32 731.48 294.5 734.06 294.59 734.77 299.32 733.3 301.23 733.23 305.03 729.82 305.55 730.4 308.41 728.15 309.93 731.05 312.4 724.61 315.94 692.02 317.12 682.17 318.73 675.2 323.16 675.28 330.35 667.82 330.36 667.39 326.45 657.11 329.31 654.22 330.68 643.36 340.12 640.34 340.61 633.24 339.74 627.91 339.85 618.87 341.06 618.9 362.76 614.38 362.06 614.31 369.91 611.78 369.92 608.59 372.79 608.96 376.22 605.56 377.21 605.52 386.41 597.95 385.14 587.03 380.05 581.09 378.79 572.44 378.25 569.96 371.56 566.64 369.31 564.17 364.55 563.78 361.69 561.09 359.14 554.89 359.05 552.87 357.85 548.29 350.59 545.38 349.71 535.41 351.48 531.44 351.27 527.91 347.05 527.26 344.61 524.83 343.16 522.44 344.12 520.96 341.77 521.47 337.77 518.78 333.21 513.14 330.86 508.38 324.26 507.44 314.59 509.58 314.1 503.18 291.1 494.35 293.54 489.77 277.52 472.48 287.47 469.71 287.05 469.48 280.94 467.67 270.28 467.22 258.03 463.31 262.49 463.78 250.8 473.62 238.94 476.56 234.36 481.34 229.99 489.25 221.73 491.48 217.42 495.26 215.02 507.08 212.36 516.9 210.83 533.49 210.24 545.58 210.3 556.76 211.48 560.18 213.22 567.8 212.63 575.88 210.96 583.45 210.44 606.11 205.88 608.41 204.71 618.51 202.91 621.51 200.7 617.87 199.27 617.13 196.81 624.65 198.11 646.74 191.4 656.8 190.3 661.83 189.27 668.84 194.25 671.38 199.44 667.06 202.1 663.7 206.47 664.06 210.18 668.4 215.97 666.86 218.37 664.9 226.4 665.17 235.75 667.68 238.43 672.68 239.16 691.93 238.17 699.29 239.59 704.4 243.35 708.12 248.05 712.6 251.92 714.7 255.02 720.45 259.15 726.11 265.45 Z" id="33043580"/>
<path d="M 315.62 423.05 315.07 426.05 309.13 428.61 300.74 435.78 298.42 436.37 296.19 439.22 292.99 448.53 290.63 460.2 290.64 465.33 291.81 472.59 295.79 479.07 295.71 488.56 291.24 495.22 289.9 503.44 286.31 509.92 276.6 517.49 271.53 522.92 263.39 536.73 265.88 540.08 265.56 552.11 266.28 555.23 270.23 564.87 272.83 575.27 272.78 581.73 267.2 592.45 263.07 595.61 257.22 597.18 246.85 597.06 240.92 596.09 238.56 599.07 242.42 601.44 239.41 614.16 237.16 620.44 229.79 632.51 222.95 640.89 219.99 639.46 213.53 638.96 215.14 644.01 213.7 650.95 209.65 658.61 204.35 663.5 200.81 668.25 192.29 673.77 179.14 678.42 171.04 678.53 161.98 680.44 155.19 680.95 147.26 682.88 133.79 682.79 127.37 682.26 120.1 682.45 115.83 681.81 111.78 680.76 105.73 676.12 103.15 671.24 95.36 668.25 93.95 665.27 95.51 659.88 101.56 656.76 105.73 653.31 108.91 648.62 112.88 645.63 114.73 642.09 115.29 636.53 113.76 629.76 113.87 623.03 115.06 616.88 119.59 606.92 121.22 601.52 121.52 597.77 120.64 590.96 117.95 584.53 114.95 579.81 108.36 573.63 100.28 564.03 96.23 563.71 98.11 560.44 100.72 559.46 101.86 556.18 100.32 547.13 103.42 545.87 102.65 539.29 98.12 538.45 95.83 531.89 96.63 521.83 94.06 514.69 91.24 511.25 81.66 509.78 79.73 506.3 79.34 500.2 80.81 495.22 81.17 484.51 79.87 483.75 72.01 483.84 66.49 482.47 64.54 480.73 62.2 473.38 59.54 456.17 59.38 451.8 61 444.44 65.36 432 64.48 428.91 61.15 425.15 58.76 423.84 54.56 423.65 50.58 424.79 45.87 427.55 41.17 434.36 40.76 436.9 36.99 436.87 26.74 434.93 22.31 435.69 17.8 437.98 15.9 440.24 13.6 437.05 13.74 433.36 11.59 429.47 7.66 425.44 5.7 421.76 4.11 416.01 1 410.03 2.33 408.68 4.23 402.68 6.23 400.12 12.34 402.61 15.95 405.7 20.08 402.42 28.55 398 26.33 393.64 24.03 384.34 27.4 379.68 28.76 375.58 31.78 373.68 31.13 371.57 31.92 367.24 34.73 361.03 40.52 360.27 42.79 355.91 41.47 352.94 43.28 347.22 43.98 340.82 49.06 330.91 52.03 328.55 52.74 321.87 51.19 318.23 53.01 316.19 64.36 315.53 67.63 313.68 74.14 314.73 77.2 313.82 79.19 314.92 82.37 309.09 88.39 305.99 93.93 302.29 98.84 302.96 99.68 293.31 103.83 285.19 109.91 278.85 114.53 276.4 117.53 276.73 121.71 282.37 127.34 281.19 130.75 282.38 133.56 280.35 139.42 280.91 141.17 286.94 145.8 288.63 150.45 291.39 152.75 288.25 160.07 286.03 160.67 284.84 167.72 287.38 170.97 286.36 169.58 283.76 170.54 279.04 173.96 276.94 175.99 273.71 182.81 272.11 185.57 274.79 189.96 284.15 191.34 292.2 193.65 294.1 198.87 293.04 204.15 292.81 207.02 295.22 210.96 295.33 215.13 302.08 217.16 302.21 219.38 305.39 221.69 313.29 223.45 314.03 223.03 318.11 227.41 326.44 229.08 324.35 234.27 323.49 237.67 324.15 242.88 331.8 248.94 331.92 252.5 332.88 257.68 330.15 262.27 330.81 267.72 329.54 270.03 330.76 272.77 328.23 273.9 323.02 268 321.99 271.5 317.62 277.47 315.03 278.85 313.54 286.62 311.94 288.56 313.49 292.48 319.37 296.69 330.51 297.41 334.53 296.94 341.18 297.07 352.31 296.65 363.22 295.54 365.85 290.51 372.73 290.26 377.47 287.34 380.18 285.09 384.11 284.22 390.37 284.66 393.36 288.75 396.87 293.16 398 297.89 397.83 303.43 395.9 307.52 396.44 312.71 400.05 317.32 405.53 318.68 408.71 318.58 415.23 315.62 423.05 Z" id="33043110"/>
<path d="M 446.19 669.55 443.14 671.75 439.96 676.03 437.29 683.14 435.33 691.04 435.91 694.22 432.65 707.77 427.73 710.73 423.74 714.73 422.21 718.31 417.99 720.92 413.03 727.52 410.89 728.86 407.83 734.46 405.22 737.46 404.37 741.27 399.84 746.3 396.03 748.06 395.14 753.98 380 758.27 373.72 759.1 370.5 760.74 362.36 761.33 360.82 762.17 359.87 767.84 352.47 773.04 349.58 771.73 340.78 771.4 338.84 770.68 334.58 773.57 330.76 781.1 314.41 784 309.03 778.55 302.23 781.44 299.66 781.79 294.02 781.55 286.22 773.88 281.78 773.7 278.98 770.84 268.91 772.98 267.57 770.39 262.38 770.88 260.79 774.42 254.27 774.8 250.18 778.2 244.57 781.06 239.83 778.73 239.39 772.7 238.11 766.69 233.75 757.51 232.52 753.52 237.9 744.43 234.86 741.46 234.84 739.26 228.3 736.11 227.02 733.73 222.2 732 220.28 727.75 221.23 725.47 219.5 722.71 216.19 720.17 212.75 721.41 210.2 718.95 202.39 715.53 194.79 707.49 194.04 703.96 192.06 701.2 193.1 698.49 192.16 694.93 185.06 693.87 181.69 692.56 179.38 690.27 184.27 688.21 184.15 686.3 179.14 678.42 192.29 673.77 200.81 668.25 204.35 663.5 209.65 658.61 213.7 650.95 215.14 644.01 213.53 638.96 219.99 639.46 222.95 640.89 229.79 632.51 237.16 620.44 239.41 614.16 242.42 601.44 238.56 599.07 240.92 596.09 246.85 597.06 257.22 597.18 263.07 595.61 267.2 592.45 272.78 581.73 272.83 575.27 270.23 564.87 266.28 555.23 265.56 552.11 265.88 540.08 263.39 536.73 271.53 522.92 276.6 517.49 286.31 509.92 289.9 503.44 291.24 495.22 295.71 488.56 295.79 479.07 291.81 472.59 290.64 465.33 290.63 460.2 292.99 448.53 296.19 439.22 298.42 436.37 300.74 435.78 309.13 428.61 315.07 426.05 315.62 423.05 322.14 419.88 335.04 419.69 341.67 419.15 353.15 413.9 356.89 409.43 360.03 403.05 365.57 397.78 374.1 392.35 377.24 389.27 390.31 383.36 396.45 377.8 397.57 376.05 402.55 378.51 398.94 382.3 411.63 394.01 418.27 395.17 423.17 392.46 432.36 400.92 432.48 406 434.53 409.04 441.43 413.48 442.91 415.67 444.97 423.21 443.84 430.45 443.91 436.3 445.26 440.56 443.62 445.7 441.02 450.51 449.07 453.69 451.51 451.75 456.04 452.76 458.26 454.4 466.43 454.6 469.95 457.39 473.39 455.9 478.12 457.6 481.28 457.32 487.4 453.89 486.9 451.99 490.73 447.46 496.19 444.39 504.52 444.32 509.72 442.68 510.94 453.55 507.42 459.99 502.96 462.5 496.17 463.11 493.05 469.32 488.43 473.04 482.82 472.11 475.09 472.95 473.64 474.21 470.87 471.86 467.8 471.28 464.3 472.32 460.51 474.96 456.44 472.56 451.45 476.54 447.78 477 443.13 480.97 440.23 480.73 434.72 482.46 432.15 481.99 426.86 478.54 425.62 478.85 415.53 477.15 411.92 469.89 415.11 467.18 413.78 463.05 411.53 461.63 408.71 457.66 406.52 461.23 403.19 462.61 399.55 462.54 392.68 461.23 392.14 463.61 380.93 461.57 378.44 465.75 378 478.76 382.01 481.54 387.06 483.75 385.55 485.63 387.58 490.51 389.72 491.76 391.23 494.94 394.21 498.39 398.09 498.69 399.12 503.2 402.83 509.73 402.57 513.69 399.55 515.76 397.55 521.97 399.75 527.17 398.99 532.01 397.51 533.62 393.11 532.12 393.04 537.25 392.04 542.33 390.35 543.28 391.98 546.71 390.12 550.09 395.01 554.11 395.15 558.67 396.97 560.42 396.83 563.28 399.44 566.91 394.62 572.5 391.26 571.48 387.56 568.76 386.09 564.23 381.12 563.21 380.86 561.39 376.75 558.36 374.44 560.08 369.77 559.47 366.28 560.74 362.36 563.5 362.88 565.23 361.1 573.63 361.26 579.18 363.89 588.76 362.65 595.1 357.77 597.25 358.07 603 351.31 615.03 350.01 621.58 351.78 627.52 353.67 630.63 359.5 632.36 370.54 639.38 372.24 647.6 376.36 653.01 378.02 657.1 384.1 661.92 388.56 661.19 393.94 663.24 394.69 658.08 400.11 656.53 405.32 657.74 409.05 659.5 410.81 663.19 418.19 653.95 421.32 653.13 421.12 657.06 423.5 659.97 423.83 662.53 427.09 664.04 434.09 665.53 435.1 669.66 440.68 669.11 446.19 669.55 Z" id="33043310"/>
<path d="M 617.13 196.81 617.87 199.27 621.51 200.7 618.51 202.91 608.41 204.71 606.11 205.88 583.45 210.44 575.88 210.96 567.8 212.63 560.18 213.22 556.76 211.48 545.58 210.3 533.49 210.24 516.9 210.83 507.08 212.36 495.26 215.02 491.48 217.42 489.25 221.73 481.34 229.99 476.56 234.36 473.62 238.94 463.78 250.8 463.31 262.49 467.22 258.03 467.67 270.28 469.48 280.94 469.71 287.05 469.49 292.18 465.83 299.45 461.18 304.86 452.45 310.07 445.69 311.76 436.59 311.12 430.34 309.32 424.06 308.33 417.27 306.34 406.47 305.65 403.36 306.87 395 314.26 392.72 318.25 391.92 329.81 392.57 339.5 392.68 349.83 393.95 356.56 396.96 364.21 398.56 370.57 397.57 376.05 396.45 377.8 390.31 383.36 377.24 389.27 374.1 392.35 365.57 397.78 360.03 403.05 356.89 409.43 353.15 413.9 341.67 419.15 335.04 419.69 322.14 419.88 315.62 423.05 318.58 415.23 318.68 408.71 317.32 405.53 312.71 400.05 307.52 396.44 303.43 395.9 297.89 397.83 293.16 398 288.75 396.87 284.66 393.36 284.22 390.37 285.09 384.11 287.34 380.18 290.26 377.47 290.51 372.73 295.54 365.85 296.65 363.22 297.07 352.31 296.94 341.18 297.41 334.53 296.69 330.51 292.48 319.37 288.56 313.49 286.62 311.94 278.85 313.54 277.47 315.03 271.5 317.62 268 321.99 273.9 323.02 272.77 328.23 270.03 330.76 267.72 329.54 262.27 330.81 257.68 330.15 252.5 332.88 248.94 331.92 242.88 331.8 237.67 324.15 234.27 323.49 229.08 324.35 227.41 326.44 223.03 318.11 223.45 314.03 221.69 313.29 219.38 305.39 217.16 302.21 215.13 302.08 210.96 295.33 207.02 295.22 204.15 292.81 198.87 293.04 193.65 294.1 191.34 292.2 189.96 284.15 185.57 274.79 182.81 272.11 175.99 273.71 173.96 276.94 170.54 279.04 169.58 283.76 170.97 286.36 167.72 287.38 160.67 284.84 160.07 286.03 152.75 288.25 150.45 291.39 145.8 288.63 141.17 286.94 139.42 280.91 133.56 280.35 130.75 282.38 127.34 281.19 121.71 282.37 117.53 276.73 114.53 276.4 113.6 273.92 115.21 270.34 117.41 261.97 118.33 253.93 116 251.12 116.27 247.75 114.87 244.4 118.83 238.46 120.98 233.2 122.39 227.11 123.8 224.79 122.66 219.04 124.11 207 120.76 203.73 117.78 202.95 116.16 199.95 112.22 196.89 111.66 192.55 109.11 192.65 106.39 190.54 101.64 189.24 97.75 191.66 92.88 188.33 81.64 189.14 77.34 185.07 64.12 182.86 59.21 179.71 54.05 177.6 51.41 171.32 48.17 171.08 44.02 166.92 37.59 165.75 39.02 159.4 44.11 156.2 47.75 150.68 50.87 148.39 53.75 142.95 63.5 133.93 68.5 135.16 73.53 134.4 75.17 132.47 82.01 131.26 84.13 127.83 84.61 124.95 99.45 120.88 107.81 114.54 110.09 110.41 113.78 108.97 115.86 106.02 119.97 104.21 124.25 100.68 125.63 95.2 122.95 92.44 123.83 88.91 121.37 84.25 117.81 81.02 120.92 72.35 122.15 66.29 121.05 65.1 123.34 61.52 125.6 54.04 128.19 53.95 128.42 51.26 125.09 47.45 125.03 41.78 126.68 39.92 124.96 33.65 128.12 23.75 127.7 21.58 129.98 16.18 136.18 9.34 135.32 6.34 129.74 4.97 130.39 2.85 134.36 3.67 142.01 6.49 160.13 3.16 163.62 1 167.07 4.62 170.85 6 181.88 6.03 187.87 6.75 190.43 4.27 195.22 4.08 197.12 7.04 210.33 16.05 216.55 18.34 221.49 19.17 223.63 18.5 227.56 21.55 238.67 26.1 242.17 28.48 246.71 29.59 253.56 30.32 266.77 29.69 281.69 29.49 286.47 29.02 291.26 29.61 294.57 31.91 296.49 34.87 300.78 34.96 307.41 36.62 321.45 36.55 321.44 34.41 332.28 34.29 336.32 34.69 340.4 39.94 346.79 41.97 349.62 45.31 357.07 48.47 358.71 50.17 368.95 54.59 372.96 56.99 382.01 58.21 383.54 59.8 387.07 58.55 391.83 58.21 397.95 55.74 408.29 48.73 409.72 46.15 417.86 42.25 421.57 39.87 426.39 38 430.81 34.85 436.83 33.86 442.83 33.69 456.07 35.23 460.1 36.54 472.8 45.88 479.2 52.92 481.7 60.1 489.66 62.44 493.68 65.7 503.91 69.11 504.9 70.68 501.74 75.63 507.55 77.98 510.4 76.92 512.51 72.43 515.76 70.59 522.35 70.93 522.98 76.43 521.27 79.59 515.6 85.77 514.64 91.49 516.19 93.85 563.19 137.21 560.68 139.93 562.54 141.41 570.29 145.12 573.1 148.35 575.83 157.03 578.09 160.49 581.36 163.07 580.96 170.88 603.01 170.05 603.86 192.65 609.55 191.6 611.59 193.65 616.61 195.18 617.13 196.81 Z" id="33043320"/>
<path d="M 761.45 309.72 763.93 318.14 769.35 329.93 771.46 332.71 776.84 341.25 787.88 356.78 797.57 373.16 799 374.91 794.69 376.79 768.6 392.34 762.44 393.91 750.25 393.45 749.23 394.25 748.48 392.51 746.68 387.27 746.92 382.78 751.3 382.96 750.69 378.78 744.72 379.11 741.36 381.17 739.92 378.83 743.03 373.28 735.73 368.89 738.37 364.27 738.88 361.26 737.08 356.79 733.81 345.12 729.73 344.92 728.49 334.48 721.63 331.22 722.1 329.68 729.42 328.44 729.56 325.95 735.47 324.39 731.05 312.4 728.15 309.93 730.4 308.41 729.82 305.55 733.23 305.03 733.3 301.23 734.77 299.32 734.06 294.59 731.48 294.5 730.49 288.32 730.95 283.86 728.17 279.78 732.12 276.36 733.34 279.07 747.89 298.27 753.46 298.19 757.36 303.26 761.45 309.72 Z" id="33043510"/>
<path d="M 605.52 386.41 616.86 387.12 618.12 388.47 618.09 395.21 624.83 396.27 629.22 400.98 632.92 401.13 633.86 406.01 649.06 407.17 649.71 410.91 657.7 411.13 657.61 415.56 663.61 416.71 668.34 415.7 675.94 415.45 675.94 411.72 683.97 415.47 682.88 415.5 682.47 422.72 688.93 422.2 689.22 418.38 693.52 418.63 693.49 422.98 701.13 423.51 700.55 431.91 668.77 434.42 654.77 436.46 641.7 441.06 632.71 442.12 622.95 441.55 613.6 439.28 606.49 443.34 601.54 450.45 600.22 451.03 591.91 461.71 585.39 451.15 572.97 430.01 571.97 427.5 569.01 412.98 577.78 413.14 576.39 409.77 576.62 403.1 572.51 397.22 569.69 394.56 570.75 378.67 572.44 378.25 581.09 378.79 587.03 380.05 597.95 385.14 605.52 386.41 Z" id="33043520"/>
<path d="M 649.68 486.61 640.95 468.18 640.51 460.56 637.65 459.32 633.89 455.99 631.9 451.55 630.58 446.16 632.71 442.12 641.7 441.06 654.77 436.46 668.77 434.42 700.55 431.91 700.05 439.01 693.42 441.95 688.03 441.96 679.79 450.91 677.56 454.2 676.37 459.48 675.81 480.18 659.71 480.2 655.64 481.69 650.45 485.16 649.68 486.61 Z" id="33043530"/>
<path d="M 591.91 461.71 600.22 451.03 601.54 450.45 606.49 443.34 613.6 439.28 622.95 441.55 632.71 442.12 630.58 446.16 631.9 451.55 633.89 455.99 637.65 459.32 640.51 460.56 640.95 468.18 649.68 486.61 655.02 497.59 656.32 502.72 656.68 511.5 656.21 519.82 648.97 525.68 643.66 532.17 643.36 533.57 637.11 539.75 630.61 543.58 628.55 543.87 622.75 546.27 615.46 547.61 610.25 554.5 608.11 554.72 602.94 551.27 591.83 548.65 588.12 551.6 584.2 551.25 585.45 546.24 580.9 538.02 578 535.58 576.16 529.82 575.88 525.18 573.19 515.91 574.53 506.2 581.43 494.94 587.05 483.56 589.78 489.11 604.11 483.34 591.91 461.71 Z" id="33043540"/>
</g>
</svg>