<?xml version="1.0"?>
<svg xmlns="http://www.w3.org/2000/svg" version="1.2" baseProfile="tiny" width="800" height="987" viewBox="0 0 800 987" stroke-linecap="round" stroke-linejoin="round">
<g id="dong">
<path d="M 344.51 144.42 344.93 147.52 347.63 150.27 350.24 150.92 352.2 152.76 356.32 154.78 359.89 158.65 365.09 160.29 370.28 163.83 372.17 166.85 373.72 168.11 372.17 175.24 372.33 180.45 371.93 185.42 373.46 186.79 374.24 188.68 373.8 193.64 376.24 195.11 378.84 197.73 380.67 201.11 380.67 203.19 381.74 205.4 379.94 209.91 380.95 211.19 380.73 213.56 384.36 215.56 384.06 217.18 382.17 218.07 383.91 221.93 383.9 225.1 386.1 229.36 386.49 230.92 390.97 232.27 393.47 235.63 395.29 237.2 396.28 241.42 397.8 242.46 400.26 246.5 402.48 248.45 402.81 249.88 406.78 251.92 408.36 251.66 411.25 253.3 413.86 253.52 414.19 252.56 419.81 251.8 421.11 250.71 426.53 251.72 429.29 250.06 430.93 250.27 430.27 256.57 434.76 259.09 437.49 258.08 441.54 258.56 444.4 260.58 443.67 265.35 446.07 266.51 449.14 265.38 451.36 266.96 452.47 266.33 456.54 267.19 460.42 269.18 460.88 273.59 462.59 274.21 463.95 276.75 466.74 277.24 470.52 278.62 472.07 277.7 475.47 277.77 475.18 282.09 476.4 284.78 475.78 285.42 475.39 290.26 475.66 292.95 477.4 294.29 479.81 293.03 481.79 295.48 483.43 295.97 484.84 298.27 484.96 301.39 487.44 302.56 486.9 305.08 487.42 308.83 490.62 310.46 491.98 312.6 492.33 314.69 495.14 316.61 495.04 318.17 493.62 319.44 492.86 323.16 493.87 325.29 490.95 329.31 491.07 332.17 492.17 334.26 490.5 339.8 488.74 340.26 490.11 343.55 492.06 345.99 496 347.72 498.99 347.97 499.24 349.27 501.28 349.12 499.96 353.48 500.42 357.75 497.66 363.18 493.69 366.28 492.62 369.77 494.44 371.71 495.19 376.07 494.69 378.19 492.67 379.88 489.57 381.2 485.34 385.95 484.28 388.89 482.43 390.4 480.61 393.44 478.63 394.22 477.23 395.94 473.76 397.53 470.77 397.98 468.69 397.72 465.15 402.17 462.97 404.3 462.18 406.55 462.22 408.74 461.11 409.92 461.06 412.4 455.26 418 456.43 419.99 455.5 423.59 456.43 425.91 459.58 430.64 459.46 432.31 457.07 433.19 455.86 437.11 456.04 439.78 452.93 440.56 452.24 441.64 445 446.51 444.32 448.75 441.88 450.92 438.6 455.19 435.84 456.47 435.59 460.64 437.12 463.49 436.36 465.28 433.06 464.08 431.47 465.6 425.02 467.32 420.01 474.05 420.05 475.34 418.47 478.18 416.58 480.01 412.25 474.83 406.31 470.74 402.92 469.76 401.91 467.93 400.01 466.73 399.69 462.97 399.08 461.92 399.92 459.1 399.28 457.9 395.84 454.22 396.1 452.61 394.86 450.64 389.71 446.83 387.38 444.52 385.72 443.71 379.26 445.08 377.67 446.33 371.18 448.42 366.25 447.59 363.91 446.73 359.24 442.92 350.14 446.65 345.49 450.26 341.07 450.31 338.82 448.38 335.36 447.15 333.25 445.63 335.41 443.7 335.94 441.12 339.25 435.67 341.24 433.79 343.85 432.74 343.9 428.51 344.84 426.58 343.28 423.53 343.89 421.49 345.25 420.15 345.26 417.12 342.36 416.2 344.46 410.97 346.31 409.6 345.1 406.39 345.81 404.35 345.16 399.26 343.14 395.56 344.09 393.63 343.43 391.23 341.87 390.31 339.78 381.96 342.06 378.42 340.4 375.42 336.03 371.92 334.89 369.17 333.01 368.37 331.98 363.58 329.82 360.84 324.59 357.47 324.65 356.07 320.45 353.17 322.48 349.9 322.46 347.46 320.96 346.39 317.85 341.39 317.13 338.61 315.38 337.43 313.4 337.85 311.62 337.3 308.92 334.8 306.88 334.9 305.41 333.53 299.46 332.13 295.81 331.93 292.43 332.61 289.78 331.63 288.64 328.81 284.86 327.87 280.78 324.25 279.77 322.45 277.02 320.11 275.84 318.23 274.59 315.35 274.93 312.74 273.79 310.12 273.21 306.07 275.92 304.45 278.27 301.57 276.45 297.67 273.1 293.69 273.27 289.75 275.42 285.57 273.01 280.85 272.6 278 269.31 270.69 269.74 268.69 268.78 265.75 267.4 265.75 265.71 262.83 265.37 259.91 266.32 253.48 263.16 253.18 259.12 251.1 252.99 252.43 251.7 253.84 248.7 253.52 245.18 254.39 244.86 251.6 245.47 248.17 244.22 246.34 244.13 244.73 246.72 242.19 249.73 240.8 252.3 240.94 252.97 236.79 252.05 236.09 251.81 233.23 253.56 231.98 253.32 228.55 255.61 224.08 255.89 221.38 258.26 218.38 260.01 217.74 263.55 210.26 265.68 209.33 265.13 205.7 265.56 203.19 261.13 202.9 258.62 199.19 256.99 197.78 252.42 195.66 239.55 190.08 240.57 188.57 242.41 187.69 243.23 185.16 246.02 182.44 249.44 181.4 250.3 178.71 253 175.33 255.08 176.95 259.72 176.42 260.4 177.29 263.09 177 266.88 175.36 268.98 173.8 272.5 173.43 278.27 173.65 281.07 169.87 282.27 170.99 285.79 172.79 288.64 173.35 291.46 173.12 294.61 171.78 295.26 172.75 298.18 172.41 299.31 171.57 300.26 169.09 301.55 168.21 302.21 165.17 304.32 163.27 307.46 162.21 308.71 162.86 311.82 162.46 312.3 160.55 314.23 158.57 314.67 155.68 319.61 151.26 320.67 151.58 323.52 148.98 324.23 145.74 326.7 144.48 328.03 142.2 331.83 142.06 333.94 140.84 335.37 141.94 336.66 140.83 338.11 142.12 341.76 142.52 344.51 144.42 Z" id="33041310"/>
<path d="M 692.11 144.87 691.45 147.28 690.07 148.65 689.93 154.44 688.32 157.59 689.45 160.18 687.94 165.37 685.9 167.24 683.62 170.28 680.4 172.59 679.8 173.9 675.35 177.02 672.92 180.69 668.99 182.99 666.94 183.23 663.97 185.86 663.07 185.86 658.17 188.4 656.54 190.35 656.2 192.71 656.8 194.64 655.66 196.55 654.52 200.99 652.18 203.32 651.04 205.48 654.02 210.3 655.92 212.61 655.14 214.68 655.99 219.01 656.12 222.44 652.74 224.37 651 227.5 650.46 230.21 648.99 232.15 651.4 235.07 653.57 236.55 657.23 243.41 659.87 241.24 664.22 239.41 669.85 240.24 673.01 238.26 675.51 238.59 678.1 240.47 683.54 240.27 685.09 243.32 687.07 245.47 685.61 247.82 686.6 250.35 686.86 253.16 689.79 260.42 694.05 263.34 699.55 265 703.67 267.52 707.9 272.75 711.87 275.62 715.78 272.97 720.02 270.58 722.14 274.31 721.24 276.63 720.23 281.96 719.42 282.6 719.14 285.39 723.11 287.55 725.4 289.91 726.49 291.91 724.97 295.35 727.34 296.85 737.67 298.04 735.44 300.56 733.8 301.54 735.45 303.76 735.27 307.08 736.78 309.46 740.48 312.12 743.56 313.13 747.7 316.66 747.94 320.77 749.79 320.2 748.46 326.22 751.4 326.92 750.39 329.58 753.08 330.83 755.55 330.59 756.65 332.22 761.79 335.93 767.68 341.34 769.1 341.32 772.24 343.38 773.42 345.24 775.22 345.46 778.08 349.39 782.59 352.94 786.02 356.28 786.77 363.65 788.74 363.85 791.36 367.65 791.64 370.16 795.77 376.47 796.22 380.17 798.21 383.83 796.41 385.71 798.15 389.08 799 392.44 798.18 397.97 798.26 402.77 796.91 403.41 797.87 406.81 796.51 409.3 796.84 413.73 797.72 414.9 792.38 415.34 790.98 415.96 788.67 420.86 786.76 420.71 783.9 423.64 782.62 422.81 780.67 423.22 778.42 425.21 775.23 425.69 770.73 425.48 768.23 426.09 763.35 426.59 761.34 428.81 757.7 431.19 755.61 431.65 749.99 437.35 747.25 438.14 743.72 440.3 740.45 441.52 735.05 435.55 733.08 434.89 730.99 432.65 729.75 429.81 730.65 428.62 730.63 426.37 729.07 425.14 728.4 423.26 725.1 422.07 722.91 420.49 719.28 419.17 717.8 412.5 715.83 409.76 718.38 405.28 718.02 403.46 718.67 398.72 717.01 396.6 714.56 396 710.08 396.19 709.16 394.87 703.73 391.73 700.13 391.61 697.88 389.75 695.49 391.39 694.25 393.64 693.6 396.21 692.28 396.96 689.26 393.77 683.49 390.19 680.58 391.33 679.44 389.77 676.84 388.81 674.32 390.91 671.08 390.79 666.5 389.84 663.93 391.55 661.12 390.93 659.58 393.41 659.3 397.15 658.63 398.94 656.34 399.95 655.22 401.92 655.27 405.12 654.16 405.46 651.03 409.2 646.42 410.96 640.99 412.04 637.99 414.98 637.71 417.22 635.71 419.26 635.22 422.86 633.31 424.37 623.83 428.76 621.97 430.69 619.21 431.55 617.33 431.25 614.13 432.59 611.83 432.17 610.77 430.23 607.45 430 603.68 427.64 603.01 426.5 600.62 426.06 600.09 423.87 595.4 421.81 587.95 422 585.74 420.83 583 422.69 579.35 420.91 578.48 416.36 575.81 413.92 575.11 410.29 571 408.68 568.36 408.17 566.7 409.95 563.61 411.97 561.75 410.88 558.87 410.91 553.37 413.47 549.9 412.67 551.19 407.7 549.61 405.02 549.62 402.61 547.93 399.21 544.03 397.23 543.1 396.1 541.98 390.59 539.65 390.02 537.7 390.64 534.02 389.63 530.15 390.05 527.99 392.21 527.57 394.17 526.06 393.93 519.02 397.29 516.67 397.63 513.85 397.04 511.51 394.14 511.1 389.66 510.06 389.01 510.22 385.97 509.75 383.3 506.99 383.63 500.62 381.34 498.11 381.6 494.69 378.19 495.19 376.07 494.44 371.71 492.62 369.77 493.69 366.28 497.66 363.18 500.42 357.75 499.96 353.48 501.28 349.12 499.24 349.27 498.99 347.97 496 347.72 492.06 345.99 490.11 343.55 488.74 340.26 490.5 339.8 492.17 334.26 491.07 332.17 490.95 329.31 493.87 325.29 492.86 323.16 493.62 319.44 495.04 318.17 495.14 316.61 492.33 314.69 491.98 312.6 490.62 310.46 487.42 308.83 486.9 305.08 487.44 302.56 484.96 301.39 484.84 298.27 483.43 295.97 481.79 295.48 479.81 293.03 477.4 294.29 475.66 292.95 475.39 290.26 475.78 285.42 476.4 284.78 475.18 282.09 475.47 277.77 472.07 277.7 470.52 278.62 466.74 277.24 463.95 276.75 462.59 274.21 460.88 273.59 460.42 269.18 456.54 267.19 452.47 266.33 451.36 266.96 449.14 265.38 446.07 266.51 443.67 265.35 444.4 260.58 441.54 258.56 437.49 258.08 434.76 259.09 430.27 256.57 430.93 250.27 429.29 250.06 426.53 251.72 421.11 250.71 419.81 251.8 414.19 252.56 413.86 253.52 411.25 253.3 408.36 251.66 406.78 251.92 402.81 249.88 402.48 248.45 400.26 246.5 397.8 242.46 396.28 241.42 395.29 237.2 393.47 235.63 390.97 232.27 386.49 230.92 386.1 229.36 383.9 225.1 383.91 221.93 382.17 218.07 384.06 217.18 384.36 215.56 380.73 213.56 380.95 211.19 379.94 209.91 381.74 205.4 380.67 203.19 380.67 201.11 378.84 197.73 376.24 195.11 373.8 193.64 374.24 188.68 373.46 186.79 371.93 185.42 372.33 180.45 372.17 175.24 373.72 168.11 372.17 166.85 370.28 163.83 365.09 160.29 359.89 158.65 356.32 154.78 352.2 152.76 350.24 150.92 347.63 150.27 344.93 147.52 344.51 144.42 346.87 138.6 350.43 136.87 353.3 132.68 357.26 132.1 358.64 130.13 357.62 125.84 356.11 123.23 356.2 119.36 357.88 118.07 359.91 117.7 365.71 114.56 366.77 112.17 369.16 109.37 369.91 106.31 371.95 105.8 373.06 104.62 373.09 101.88 376.06 101.07 380.34 98.33 383.88 99.87 387.99 99.61 392.37 96.77 398.74 95.68 400.73 95.92 402.5 95.05 407.16 94.17 408.48 94.53 410.81 91.44 411.93 91.43 413.91 87.88 415.27 83.87 415.17 78.68 419.65 74.53 421.39 71.24 422.89 70.62 425.64 71.38 428.71 74.5 435.41 79.16 438.2 76.74 440.21 74 442.36 72.94 444.28 73.63 446.09 70.4 452.12 70.97 454.92 69.39 459.69 68.98 460.72 66.14 465.38 66.35 472.83 68.7 474.61 72.06 480.2 75.7 480.46 80.64 483.17 84.96 487.67 84.17 489.9 86.4 492.37 86.78 496.36 88.96 500.39 87.88 502.15 86.44 504.8 86.66 507.18 83.5 513.72 79.32 515.05 75.01 516.18 72.74 520.4 68.37 520.6 67.06 523.93 62.51 523.52 61.34 524.03 58.3 525.01 57.97 525.53 54.62 529.29 49.64 529.39 47.84 532.75 46.84 533.64 43.31 531.4 40.12 531.27 36.91 529.96 33.52 531.31 29.72 529.52 24.56 530.39 21.82 531.45 16.2 530.53 14 532.68 13.14 533.05 11.46 535.02 8.94 536.9 5.03 536.97 1 540.19 1.77 542.29 5.48 542.93 8.52 550.3 15.98 551.73 19.54 554.1 23.25 556.87 25.64 559.09 25.96 561.76 27.48 564.17 31.32 568.89 31.93 571.73 34.76 572.74 37.52 574.21 38.56 574.25 40.17 577.02 39.39 580.47 39.64 584.58 39.32 585.14 36.1 586.32 34.13 586.43 32.17 590.16 29.14 592.21 29.64 594.39 31.69 595.18 34.16 595.02 40.08 596.67 42.1 597.13 44.64 599.46 47.34 600.79 49.73 602.68 51.09 606.67 55.25 610.75 55.48 614.03 58.87 618.04 60.69 621.41 60.37 624.27 59.31 626.84 60.84 628.26 60.68 631.58 64.93 631.11 69.57 630.55 70.84 630.87 73.58 631.91 74.95 630.24 80.38 632.9 84.08 633.24 86.2 635.99 87.54 638.31 90.42 641.12 88.59 645.78 90.82 645.61 91.62 648.66 94.45 652.65 99.5 652.97 103.98 657.25 106.01 658.79 106.32 658.6 109.37 657.55 114.31 657.73 117.58 656.86 121.4 663.12 124.28 665.16 125.79 670.97 127.45 672.06 130.18 672.06 131.93 675.8 133.79 677.84 137.74 680.47 138.97 683.22 143.33 681.41 147.44 682.36 148.19 685.31 147.53 690.86 144.58 692.11 144.87 Z" id="33041320"/>
<path d="M 148.69 247.56 148.95 251.49 149.84 252.63 147.77 255.61 145.85 255.81 144.72 259.14 144.74 261.46 142.21 264.94 139.42 264.75 136.95 265.7 136.05 266.82 137.12 273.01 136.79 275.17 138.09 276.37 136.9 280.82 132.78 284.09 130.75 284.6 128.6 283.93 124.77 285.5 121.53 286.01 122.5 288.54 118.52 289.5 114.74 290.33 114.11 288.82 110.58 289.08 109.16 287.67 103.1 288.51 101.42 288.26 96.07 288.86 96.04 285.75 95.3 276.72 94.68 271.73 93.28 265.89 91.41 263.71 94.64 263.17 104.77 263.33 104.44 259.06 106.58 258.68 113.23 258.42 116.16 257.95 118.98 254.4 124.17 255.06 127.94 257.15 130.33 257.45 131.49 256.16 136.1 256.13 138.22 252.85 143.24 250.35 146.27 247.3 148.69 247.56 Z" id="33041510"/>
<path d="M 118.52 289.5 118.02 291.6 118.94 295.46 119.29 299.25 120.4 301.15 117.2 302 119.84 304.93 121.95 310.18 121.78 312.16 122.81 318.13 124.55 324.3 117.67 324.54 113.83 325.98 110.4 324.01 105.53 319.41 96.51 313.19 93.48 311.46 92.16 307.76 90.95 306.19 90.14 301.19 91.11 297.71 94.56 295.06 95.94 292.35 96.05 289 96.07 288.86 101.42 288.26 103.1 288.51 109.16 287.67 110.58 289.08 114.11 288.82 114.74 290.33 118.52 289.5 Z" id="33041520"/>
<path d="M 132.78 284.09 133.16 290.83 132.59 291.67 132.98 294.87 135.02 296.48 136.69 296.54 138.74 298.63 138.86 300.67 141.71 302.05 142.54 303.14 140.8 307.25 140.91 308.37 138.01 311.57 132.78 318.16 131.29 322.53 128.78 324.29 124.55 324.3 122.81 318.13 121.78 312.16 121.95 310.18 119.84 304.93 117.2 302 120.4 301.15 119.29 299.25 118.94 295.46 118.02 291.6 118.52 289.5 122.5 288.54 121.53 286.01 124.77 285.5 128.6 283.93 130.75 284.6 132.78 284.09 Z" id="33041530"/>
<path d="M 157.95 334.65 158.95 335.81 161.61 336.37 159.6 338.15 155.4 339.49 152 341.76 149.71 344.82 146.77 347.57 141.22 348.41 137.47 353.04 133.61 355.19 128.97 353.65 128 355.06 127.42 353.5 124.87 353.36 122.14 351.19 119.58 350.79 120.55 349.99 119.21 346.17 118.94 343.12 119.16 332.14 123.74 333.02 128.77 329.58 133.81 330.68 134.46 332.67 137 332.69 140.96 336.43 143.8 337.24 146.27 335.96 151.72 334.53 154.65 334.66 157.56 335.45 157.95 334.65 Z" id="33041540"/>
<path d="M 157.95 334.65 157.56 335.45 154.65 334.66 151.72 334.53 146.27 335.96 143.8 337.24 140.96 336.43 137 332.69 134.46 332.67 133.81 330.68 128.77 329.58 123.74 333.02 119.16 332.14 118.5 328.89 113.83 325.98 117.67 324.54 124.55 324.3 128.78 324.29 131.29 322.53 132.78 318.16 138.01 311.57 140.91 308.37 140.8 307.25 142.54 303.14 149.04 306.25 152.5 301.56 155.05 300.03 159.52 298.87 163.06 299.09 164.75 304.55 165.84 306.56 170.84 312.01 167.54 313.25 171.12 317.53 168.64 318.21 169.58 320.56 169.47 322.25 167.35 322.91 167.26 325.14 161.7 330.12 158.84 331.57 157.95 334.65 Z" id="33041550"/>
<path d="M 239.55 190.08 252.42 195.66 256.99 197.78 258.62 199.19 261.13 202.9 265.56 203.19 265.13 205.7 265.68 209.33 263.55 210.26 260.01 217.74 258.26 218.38 255.89 221.38 255.61 224.08 253.32 228.55 253.56 231.98 251.81 233.23 252.05 236.09 252.97 236.79 252.3 240.94 249.73 240.8 246.72 242.19 244.13 244.73 244.22 246.34 245.47 248.17 244.86 251.6 245.18 254.39 239.51 257.23 236.76 260 231.68 261.49 226.48 261.75 224.86 260.78 223.68 258.64 218.08 259.54 215.6 258.42 214.68 256.24 215.23 254.21 214.37 251.42 212.27 252.14 206.01 252.89 200.93 250.47 197.8 252.13 196.93 253.89 191.74 258.36 191.13 260.28 189.61 260.69 188.8 263.87 188.46 268.78 185.42 272.14 182.61 276.07 181.29 276.26 177.1 281.25 174.14 283.5 173.43 287 171.4 289.2 168.57 290.68 168.89 292.39 168.21 294.39 171.8 297.24 170.04 298.31 163.06 299.09 159.52 298.87 155.05 300.03 152.5 301.56 149.04 306.25 142.54 303.14 141.71 302.05 138.86 300.67 138.74 298.63 136.69 296.54 135.02 296.48 132.98 294.87 132.59 291.67 133.16 290.83 132.78 284.09 136.9 280.82 138.09 276.37 136.79 275.17 137.12 273.01 136.05 266.82 136.95 265.7 139.42 264.75 142.21 264.94 144.74 261.46 144.72 259.14 145.85 255.81 147.77 255.61 149.84 252.63 148.95 251.49 148.69 247.56 154.41 239.85 155.87 239.54 157.21 237.71 159.48 238.28 165.51 238.56 166.65 237.15 168.94 237.63 172.32 233.73 179.04 232.6 181.05 231.44 182.58 229.48 186.99 227.78 188.29 225.93 190.34 225.38 193.63 222.96 194.46 221.05 195.05 216.27 196.55 215.06 198.74 215.16 199.8 212.95 203.18 208.81 211.24 206.72 216.67 202.59 215.26 201.76 214.48 199.71 213.96 198.64 216.71 194.78 219.72 193.1 221.97 188.77 224.33 187.58 225.71 189.04 228.97 187.99 231.16 188.84 233 188.4 238.18 190.43 239.55 190.08 Z" id="33041560"/>
<path d="M 226.48 261.75 223.73 266.21 225.1 270.16 224.37 271.9 224.27 274.87 226.75 277.38 228.32 281.52 230.1 282.03 230.24 285.79 232.11 288.75 229.64 291.36 228.66 293.64 230.45 294.04 231.74 297.02 234.09 299.56 234.43 301.77 235.56 303.62 236.27 307.83 236 310.82 237.7 311.63 239.14 313.67 240.21 317.62 240.1 321.54 237.58 325.32 235.45 325.85 233.24 328.77 232.44 331.36 229.93 332.93 228.71 335.03 225.59 337.02 224.15 339.27 218.86 338.29 215.16 340.01 213.65 341.63 210.32 342.12 210.47 347.48 207.67 353.75 202.68 355.97 197.7 356.45 196.93 355.96 193.73 357.41 193.1 359.17 187.44 362.35 185.08 363.01 183.36 364.72 183.38 366.92 178.37 370.72 175.13 366.5 172.23 362.18 169.93 360.17 164.52 354.07 146.15 376.51 143.46 379.6 141.64 380.9 136.59 382.33 136.13 381.9 130.08 381.7 131.41 377.64 131.24 374.35 130.54 371.22 128.35 367.08 128.54 361.64 128 360.38 126.48 357.02 128 355.06 128.97 353.65 133.61 355.19 137.47 353.04 141.22 348.41 146.77 347.57 149.71 344.82 152 341.76 155.4 339.49 159.6 338.15 161.61 336.37 158.95 335.81 157.95 334.65 158.84 331.57 161.7 330.12 167.26 325.14 167.35 322.91 169.47 322.25 169.58 320.56 168.64 318.21 171.12 317.53 167.54 313.25 170.84 312.01 165.84 306.56 164.75 304.55 163.06 299.09 170.04 298.31 171.8 297.24 168.21 294.39 168.89 292.39 168.57 290.68 171.4 289.2 173.43 287 174.14 283.5 177.1 281.25 181.29 276.26 182.61 276.07 185.42 272.14 188.46 268.78 188.8 263.87 189.61 260.69 191.13 260.28 191.74 258.36 196.93 253.89 197.8 252.13 200.93 250.47 206.01 252.89 212.27 252.14 214.37 251.42 215.23 254.21 214.68 256.24 215.6 258.42 218.08 259.54 223.68 258.64 224.86 260.78 226.48 261.75 Z" id="33041570"/>
<path d="M 275.84 318.23 272.81 321.99 269.08 325.32 267.35 331.25 267.7 333.17 266.71 336.19 267.71 339.96 266.16 342.5 266.29 344.69 264.64 348.62 262.38 349.61 261.79 350.75 258.47 352.88 254.74 361.36 254.49 365.6 252.46 371.02 252.47 372.66 251.05 373.51 249.06 376.75 245.93 379.22 245.8 381.51 242.86 388.57 241.28 392.68 240.68 395.73 239.67 398.01 240.09 400.26 238.44 401.7 235.85 400.73 233.75 401.5 228.06 400.62 223.66 398.71 216.7 394.3 210.96 394.43 208.35 394.89 204 394.39 201.96 395.14 198.55 395.19 196.94 394.67 193.62 395.04 193.26 396.46 190.89 397.57 188.94 402.47 188.91 404.29 186.57 409.41 186.28 413.08 183.35 415.71 183.03 418.75 178.42 420.05 175.74 421.39 172.22 421.35 170.26 422.47 169.03 421.38 165.99 421.42 165.34 423.91 162.29 425.61 159.8 425.47 158.44 426.56 155.41 426.63 152.1 430.24 143.07 431.33 144.21 439.78 143.57 440.15 139.78 438.95 138.13 437.77 135.8 440.5 134.64 440.6 132.04 435.93 131.03 434.2 133.75 431 131.99 428.02 130.84 421.46 130.72 413.95 128.74 419.86 125.56 421.64 126.69 418.56 127.12 415.21 126.24 408.32 127.28 403.36 127.56 400.31 127.59 390.31 127.17 381.58 127.56 381.59 127.05 371.09 125.52 365.47 126.24 361.98 128 360.38 128.54 361.64 128.35 367.08 130.54 371.22 131.24 374.35 131.41 377.64 130.08 381.7 136.13 381.9 136.59 382.33 141.64 380.9 143.46 379.6 146.15 376.51 164.52 354.07 169.93 360.17 172.23 362.18 175.13 366.5 178.37 370.72 183.38 366.92 183.36 364.72 185.08 363.01 187.44 362.35 193.1 359.17 193.73 357.41 196.93 355.96 197.7 356.45 202.68 355.97 207.67 353.75 210.47 347.48 210.32 342.12 213.65 341.63 215.16 340.01 218.86 338.29 224.15 339.27 225.59 337.02 228.71 335.03 229.93 332.93 232.44 331.36 233.24 328.77 235.45 325.85 237.58 325.32 240.1 321.54 240.21 317.62 239.14 313.67 237.7 311.63 236 310.82 236.27 307.83 235.56 303.62 234.43 301.77 234.09 299.56 231.74 297.02 230.45 294.04 228.66 293.64 229.64 291.36 232.11 288.75 230.24 285.79 230.1 282.03 228.32 281.52 226.75 277.38 224.27 274.87 224.37 271.9 225.1 270.16 223.73 266.21 226.48 261.75 231.68 261.49 236.76 260 239.51 257.23 245.18 254.39 248.7 253.52 251.7 253.84 252.99 252.43 259.12 251.1 263.16 253.18 266.32 253.48 265.37 259.91 265.71 262.83 267.4 265.75 268.78 265.75 269.74 268.69 269.31 270.69 272.6 278 273.01 280.85 275.42 285.57 273.27 289.75 273.1 293.69 276.45 297.67 278.27 301.57 275.92 304.45 273.21 306.07 273.79 310.12 274.93 312.74 274.59 315.35 275.84 318.23 Z" id="33041580"/>
<path d="M 416.58 480.01 415.5 482.36 414.32 483.19 412.29 486.37 411.86 489.44 409.01 490.23 410.12 494.9 409.17 500.22 410.7 502.2 413.83 504.87 414.23 508.87 416.05 510.79 416.29 512.11 419.51 514.25 420.63 517.62 422.88 519.71 423.96 522.41 421.49 525.05 416.94 530.69 415.35 536.17 416.06 538.79 414.33 540.76 413.65 544.52 412.22 547.13 406.76 548.65 405.28 550.3 402.99 550.97 402.95 552.37 399.31 552.97 393.65 556.17 392.43 555.86 390.67 558.01 387.73 557.61 385.36 556.43 383.04 556.2 381.26 557.19 379.27 556.8 377.61 558.71 375.49 559.74 372.23 562.59 369.06 562.44 366.45 564.28 366.2 566.34 361.91 570.7 359.47 572.33 356.2 572.26 354.27 570.83 352.04 570.72 346.86 572.4 345.34 574.52 339.68 577.34 337.23 576.1 334.74 576.52 333.39 578.41 332.92 581.44 333.6 586.55 331.86 588.04 331.83 590.24 330.63 591.13 327.41 589.75 325.16 589.89 323.68 591.36 319.79 591.52 316.31 593.07 314.25 594.61 312.64 594.76 309.99 596.47 307.12 599.23 306.45 601.77 304.49 604.87 302.07 605.46 299.88 609.45 296.02 611.46 292.14 611.05 291.22 613.02 288.04 616.61 286.03 616.81 282.37 619.68 279.77 623.32 280.33 625.52 277.41 626.31 277.35 629.19 274.31 631.97 273.88 633.78 270.76 636.11 268.48 635.83 267.65 637.72 266.25 638.5 264.84 637.62 262.04 634.18 259.33 632.5 255.31 632.38 253.85 631.15 249.74 630.65 245.25 631.54 244.33 633.4 242.21 635.61 239.97 634.83 237.49 632.54 232.5 634.89 229.9 637.68 226.19 634.79 227.71 629.15 225.54 627.4 223.24 626.67 216.29 628.73 213.81 627 211.4 629.3 207.33 632.02 205.2 634.92 202.36 639.65 198.66 639.76 195.98 642.47 196.85 646.34 195.48 647.14 192.57 646.15 190.89 643.23 184.51 645.47 181.77 646.13 182.28 643.84 181.98 641.35 177.21 639.81 174.03 639.41 172.34 637.86 169.89 640.62 167.56 641.77 161.45 642.06 159.69 637.2 161.45 634.03 156.31 632.39 153.68 627.44 153.54 625.01 152.04 624.14 152.04 620.91 151.22 618.62 148.83 616.45 145.61 616.5 145.66 612.67 144.76 608.61 144.72 606.32 146.56 604.46 145.63 595.14 148.05 590.85 148.83 585.76 148.33 583.24 148.69 580.31 147.64 577.14 149.23 576.33 151.68 573.14 153.08 572.02 153.78 569.84 153.94 566.66 155.24 563.53 153.23 559.37 149.51 555.8 147.64 552.61 145.81 550.47 145.38 542.33 150.16 534.66 151.23 535.24 150.98 537.96 153.71 540.31 158.27 539.21 159.04 537.82 162.31 537.94 164.02 539.56 166.23 540.11 174.97 539.58 180.23 537.24 181.42 535.71 183.44 538.4 186.62 539.91 188.2 539.29 187.11 534.39 186.96 532.13 187.99 529.51 193.03 528.52 194.93 526.87 194.66 525.02 195.98 520.62 198.38 518.99 202.51 521.13 204.89 521.86 206.37 523.51 207.04 526.1 209.01 527.52 210.45 532.3 209.51 535.93 210.09 537.54 212.24 539.6 216.45 537.71 218.28 537.44 221.56 542.36 224.4 539.61 226.91 538 232.61 536.22 237.14 535.8 240.63 536.42 246.52 536.77 251.94 531.51 253.92 525.88 253.8 524.56 251.51 520.6 252.08 516.21 252.19 511.03 254.95 509.34 257.77 505.88 259.86 505.27 262.84 505.25 265.69 506.29 269.8 508.72 273.08 509.87 277.2 509.88 283.69 507.82 287.14 505.88 288.31 503.86 288.55 501.19 288.2 497.49 287.15 494.83 287.14 492.7 288.33 490.9 291.18 489.51 293.46 487.5 296.55 480.87 299.15 481.11 299.07 478.6 297.78 478.56 298.98 474.64 300.92 474.46 301.52 467.35 302.3 465.23 308.78 460.48 308.22 458.48 303.96 456.72 300.99 453.52 298.17 452.59 299.35 451.06 302.11 443.49 305.51 442.32 306.09 441 300.01 439.26 298.03 437.37 296.84 435.05 293.28 433.29 291.93 431.68 287.54 430.09 287.62 425.66 288.68 421.96 288.14 420.14 286.19 421.39 282.12 420.09 281.86 417 282.52 415.61 280.68 411.86 282.26 407.53 279.22 399.92 276.57 396.43 273.01 395.04 269.53 391.72 264.46 389 260.8 389.04 257.36 387.86 256.03 386.06 250.99 384.8 249.45 386.04 245.8 387.33 243.82 388.87 242.86 388.57 245.8 381.51 245.93 379.22 249.06 376.75 251.05 373.51 252.47 372.66 252.46 371.02 254.49 365.6 254.74 361.36 258.47 352.88 261.79 350.75 262.38 349.61 264.64 348.62 266.29 344.69 266.16 342.5 267.71 339.96 266.71 336.19 267.7 333.17 267.35 331.25 269.08 325.32 272.81 321.99 275.84 318.23 277.02 320.11 279.77 322.45 280.78 324.25 284.86 327.87 288.64 328.81 289.78 331.63 292.43 332.61 295.81 331.93 299.46 332.13 305.41 333.53 306.88 334.9 308.92 334.8 311.62 337.3 313.4 337.85 315.38 337.43 317.13 338.61 317.85 341.39 320.96 346.39 322.46 347.46 322.48 349.9 320.45 353.17 324.65 356.07 324.59 357.47 329.82 360.84 331.98 363.58 333.01 368.37 334.89 369.17 336.03 371.92 340.4 375.42 342.06 378.42 339.78 381.96 341.87 390.31 343.43 391.23 344.09 393.63 343.14 395.56 345.16 399.26 345.81 404.35 345.1 406.39 346.31 409.6 344.46 410.97 342.36 416.2 345.26 417.12 345.25 420.15 343.89 421.49 343.28 423.53 344.84 426.58 343.9 428.51 343.85 432.74 341.24 433.79 339.25 435.67 335.94 441.12 335.41 443.7 333.25 445.63 335.36 447.15 338.82 448.38 341.07 450.31 345.49 450.26 350.14 446.65 359.24 442.92 363.91 446.73 366.25 447.59 371.18 448.42 377.67 446.33 379.26 445.08 385.72 443.71 387.38 444.52 389.71 446.83 394.86 450.64 396.1 452.61 395.84 454.22 399.28 457.9 399.92 459.1 399.08 461.92 399.69 462.97 400.01 466.73 401.91 467.93 402.92 469.76 406.31 470.74 412.25 474.83 416.58 480.01 Z" id="33041330"/>
<path d="M 132.04 435.93 134.64 440.6 135.8 440.5 138.13 437.77 139.78 438.95 143.57 440.15 144.21 439.78 143.07 431.33 152.1 430.24 155.41 426.63 158.44 426.56 159.8 425.47 162.29 425.61 165.34 423.91 165.99 421.42 169.03 421.38 170.26 422.47 172.22 421.35 175.74 421.39 178.42 420.05 183.03 418.75 183.35 415.71 186.28 413.08 186.57 409.41 188.91 404.29 188.94 402.47 190.89 397.57 193.26 396.46 193.62 395.04 196.94 394.67 198.55 395.19 201.96 395.14 204 394.39 208.35 394.89 210.96 394.43 216.7 394.3 223.66 398.71 228.06 400.62 233.75 401.5 235.85 400.73 238.44 401.7 240.09 400.26 239.67 398.01 240.68 395.73 241.28 392.68 242.86 388.57 243.82 388.87 245.8 387.33 249.45 386.04 250.99 384.8 256.03 386.06 257.36 387.86 260.8 389.04 264.46 389 269.53 391.72 273.01 395.04 276.57 396.43 279.22 399.92 282.26 407.53 280.68 411.86 282.52 415.61 281.86 417 282.12 420.09 286.19 421.39 288.14 420.14 288.68 421.96 287.62 425.66 287.54 430.09 291.93 431.68 293.28 433.29 296.84 435.05 298.03 437.37 300.01 439.26 306.09 441 305.51 442.32 302.11 443.49 299.35 451.06 298.17 452.59 300.99 453.52 303.96 456.72 308.22 458.48 308.78 460.48 302.3 465.23 301.52 467.35 300.92 474.46 298.98 474.64 297.78 478.56 299.07 478.6 299.15 481.11 296.55 480.87 293.46 487.5 291.18 489.51 288.33 490.9 287.14 492.7 287.15 494.83 288.2 497.49 288.55 501.19 288.31 503.86 287.14 505.88 283.69 507.82 277.2 509.88 273.08 509.87 269.8 508.72 265.69 506.29 262.84 505.25 259.86 505.27 257.77 505.88 254.95 509.34 252.19 511.03 252.08 516.21 251.51 520.6 253.8 524.56 253.92 525.88 251.94 531.51 246.52 536.77 240.63 536.42 237.14 535.8 232.61 536.22 226.91 538 224.4 539.61 221.56 542.36 218.28 537.44 216.45 537.71 212.24 539.6 210.09 537.54 209.51 535.93 210.45 532.3 209.01 527.52 207.04 526.1 206.37 523.51 204.89 521.86 202.51 521.13 198.38 518.99 195.98 520.62 194.66 525.02 194.93 526.87 193.03 528.52 187.99 529.51 186.96 532.13 187.11 534.39 188.2 539.29 186.62 539.91 183.44 538.4 181.42 535.71 180.23 537.24 174.97 539.58 166.23 540.11 164.02 539.56 162.31 537.94 159.04 537.82 158.27 539.21 153.71 540.31 150.98 537.96 151.23 535.24 150.16 534.66 145.38 542.33 145.81 550.47 142.57 552.88 140.46 553.55 138.34 553.05 134.9 550.36 133.16 550.65 131.74 552.67 131.63 556.39 128.37 559.32 126.31 559.33 124.26 561.07 122.75 563.98 116.16 569.72 114.63 570.01 110.88 568.57 107.46 567.92 104.1 568.72 99.33 567.77 99.73 565.15 101.7 561.08 98.88 558.65 96.95 555.79 95.73 552.52 96.95 549.61 96.18 547.31 94.48 546.21 93.45 543.96 91.46 543.58 91.31 542.01 89.56 538.73 86.66 538.94 85.51 534.97 84.81 529.93 86.27 528.66 86.31 526.78 88.27 522.43 90.03 521.27 90.23 518.6 88.18 517.22 85.39 516.28 81.8 517.56 80.89 515.92 76.71 515.41 74.13 514.1 68.62 517.99 67.5 519.96 66.2 520.24 61.15 518.18 58.39 519.13 54.4 516.6 54.9 513.75 53.87 511.45 56.55 505.8 57.17 501.66 55.43 498.63 56.41 496.56 55.65 492.86 56.54 490.94 57.09 487.32 56.57 485.89 58.45 482.14 60.73 480.28 62.79 477.39 62.14 475.81 63.14 474.23 63.01 471.4 63.66 469.9 65.83 467.66 68.15 467.58 70.2 466.71 71.1 464.59 70.36 463.33 70.28 460.29 70.96 458.53 73.87 459.25 76.55 458.49 77.52 458.94 82.68 457.89 84 455.93 85.65 455.15 86.6 453.59 90.89 452.98 91.99 452.32 94.06 453.73 96.86 452.08 100.12 452.08 100.39 454.43 105.73 455.72 109.19 454.43 110.62 452.04 112.92 452.04 115.09 453.3 116.44 451.76 113.35 447.36 132.04 435.93 Z" id="33041340"/>
<path d="M 296.02 611.46 296.69 614.7 299.5 618.39 300.96 619.46 303.23 622.66 303.32 624.8 304.72 629.09 304.86 631.03 306.32 632.5 306.4 637.65 308.34 641.65 310.69 648.23 313.79 650.29 316.62 654.53 315.02 656.23 315.77 662.24 315.28 663.41 316.35 666.56 316.47 669.36 315.3 670.82 315.98 676.34 317.32 679.07 315.58 679.94 315.3 681.76 312.62 687.84 310.24 687.93 310.88 691.63 308.77 694.97 309.69 696.84 310.47 702.18 309.4 703.76 309.26 706.89 310.37 707.24 311.51 709.78 311.06 710.72 311.75 713.46 313.79 715.67 314.79 719.78 314.24 724.72 320.16 727.81 322.25 730.39 324.42 730.94 325.67 733.78 327.04 735.16 323.31 735.5 320.83 737.94 319.93 739.69 317.55 741.37 316.14 745.74 314.43 746.59 312.02 746 307.76 748.61 307.09 750.03 302.37 752.84 300.62 755.96 301.86 760.91 299.93 762.28 296.01 763.89 295.38 765.95 291.18 765.26 290.43 766.98 290.31 770.27 289.08 771.9 286.37 779.22 284.9 779.51 282.16 781.36 283.81 784.86 281.18 790.26 275.14 791.04 275.96 794.25 277.37 796.67 276.22 801.22 276.2 803.02 273.98 804.61 273.04 807.47 273.99 809.64 271.47 811.3 267.26 812.7 270.7 816.08 269.38 818.64 269.5 822.65 267.39 828.09 268 829.8 266.67 833.52 263.85 840.14 262.59 842.03 260.87 842.23 258.21 843.93 257.73 846.73 255.78 848.51 255.44 852.09 253 853.42 251.76 856.54 250.6 856.53 248.73 863.6 249.87 869.23 245.26 869.34 240.04 871.85 234.52 873.93 233.9 873.21 228.64 875.38 212.51 883 207.85 885.61 200.39 891.72 198.75 893.61 194.13 896.62 193.49 897.62 184.98 904.6 183.66 907.82 178.79 916.95 177.24 923.06 175.72 930.59 174.34 935.37 173.16 942.3 170.94 951.98 166.2 973.66 164.73 979.5 161 984.67 157.46 985.77 148.62 986 141.39 984.67 137.22 973.66 136.09 971.43 131.07 964.25 130.25 960.55 129.84 951.65 128.74 949.05 126.65 941.95 125.54 939.21 120.86 932.42 115.71 921.06 112.3 912.22 111.78 907.04 118.38 890.99 120.99 885.41 129.93 874.61 135.4 869.9 145.49 860.36 147.91 852.8 146.21 847.14 143.69 841.58 138.26 839.49 116.16 848.32 104.53 850.11 98.71 849.69 92.68 846.8 84.87 838.85 83.18 836.48 81.45 833.02 81.14 830.86 81.67 826.6 82.68 823.71 84.92 819.55 85.85 816.72 88.64 812.93 91.26 808.56 95.34 797.56 98.36 783.69 97.09 777.36 88.87 775.6 88.25 775.69 84.9 772.33 81 765.93 80.08 765.59 78.18 758.44 79.1 755.38 76.6 751.62 76.83 749.26 76.25 735.9 71.76 733.93 68.98 733.34 64.7 734.88 61.13 734.18 60.22 733.21 55.93 732.86 54.81 728.96 50.78 726.14 47.46 726.04 44.59 724.81 39.09 720.81 34.05 720.65 33.61 719.2 31.98 718.79 30.24 715.33 29.21 709.58 27.42 708.68 27.23 707.05 25.46 705.26 22.02 703.28 18.85 704.82 12.23 704.85 11.68 701.97 12.31 700.67 9.91 697.29 10.7 696.04 10.56 689.76 9.75 688.08 10 685.99 7.65 683.77 4.99 678.54 5.61 675.52 3.38 674.67 2.1 670.92 2.1 668.05 1 666.81 1.56 664.11 1.17 660.92 5.24 659.57 8.47 657.22 10.1 657.49 15.52 655.53 22.55 649.24 23.88 646.02 22.86 643.74 21.04 636.67 22.18 636.08 24.53 633.01 24.55 631.3 26.37 628.14 25.02 620.73 25.51 618.32 24.7 617.47 24.98 608.64 23.82 606.81 23.78 603.35 21.13 599.56 19.49 598.77 19.05 597.1 19.28 593.38 21.11 591.51 19.35 589.61 18.02 584.25 17.01 583.94 16.59 581.17 17.05 579.56 11.26 578.55 6.99 578.27 5.87 578.9 5.04 575.82 5.05 571.83 6.02 569.43 7.12 562.24 5.7 559.17 5.03 554.31 6.27 554.17 10.35 557.04 10.56 558.32 13.72 561.47 17.97 561.92 21.33 559.69 26.12 557.34 29.28 556.74 34.25 558.6 37.66 561.5 40.88 562.78 42.75 565.53 45.23 565.92 49 569.89 52.22 571.8 51.81 573.23 52.76 576.54 60.35 576.04 62.97 575.53 65.58 573.67 67.48 571.53 69.29 571.08 69.87 569.23 72.45 568.97 75.71 567.84 77.43 565.93 81.87 563.03 83.46 562.61 85.2 560.47 87.62 561.57 92.18 561.03 93.25 563.21 94.83 564.24 95.76 567.01 97.94 569.1 99.33 567.77 104.1 568.72 107.46 567.92 110.88 568.57 114.63 570.01 116.16 569.72 122.75 563.98 124.26 561.07 126.31 559.33 128.37 559.32 131.63 556.39 131.74 552.67 133.16 550.65 134.9 550.36 138.34 553.05 140.46 553.55 142.57 552.88 145.81 550.47 147.64 552.61 149.51 555.8 153.23 559.37 155.24 563.53 153.94 566.66 153.78 569.84 153.08 572.02 151.68 573.14 149.23 576.33 147.64 577.14 148.69 580.31 148.33 583.24 148.83 585.76 148.05 590.85 145.63 595.14 146.56 604.46 144.72 606.32 144.76 608.61 145.66 612.67 145.61 616.5 148.83 616.45 151.22 618.62 152.04 620.91 152.04 624.14 153.54 625.01 153.68 627.44 156.31 632.39 161.45 634.03 159.69 637.2 161.45 642.06 167.56 641.77 169.89 640.62 172.34 637.86 174.03 639.41 177.21 639.81 181.98 641.35 182.28 643.84 181.77 646.13 184.51 645.47 190.89 643.23 192.57 646.15 195.48 647.14 196.85 646.34 195.98 642.47 198.66 639.76 202.36 639.65 205.2 634.92 207.33 632.02 211.4 629.3 213.81 627 216.29 628.73 223.24 626.67 225.54 627.4 227.71 629.15 226.19 634.79 229.9 637.68 232.5 634.89 237.49 632.54 239.97 634.83 242.21 635.61 244.33 633.4 245.25 631.54 249.74 630.65 253.85 631.15 255.31 632.38 259.33 632.5 262.04 634.18 264.84 637.62 266.25 638.5 267.65 637.72 268.48 635.83 270.76 636.11 273.88 633.78 274.31 631.97 277.35 629.19 277.41 626.31 280.33 625.52 279.77 623.32 282.37 619.68 286.03 616.81 288.04 616.61 291.22 613.02 292.14 611.05 296.02 611.46 Z" id="33041350"/>
</g>
</svg>