<?xml version="1.0"?>
<svg xmlns="http://www.w3.org/2000/svg" version="1.2" baseProfile="tiny" width="800" height="1536" viewBox="0 0 800 1536" stroke-linecap="round" stroke-linejoin="round">
<g id="dong">
<path d="M 683.33 1316.67 656.25 1323.38 633.09 1333.67 622.73 1341.43 597.24 1372.28 579.27 1415.54 578.11 1424.2 577.75 1448.28 572.05 1480.44 561.97 1493.54 546.01 1510.56 523.23 1526.39 501.75 1534.42 475.6 1535 456.37 1525.74 445.76 1518.98 438.93 1509.74 414.38 1484.25 392.52 1484.25 392.93 1481.34 403.97 1481.36 410.16 1479.33 351.69 1475.96 334.5 1481.4 310.84 1485.91 281.78 1492.27 273.47 1493.1 261.26 1492.36 229.55 1493.04 201.19 1489.29 195.57 1486.77 192.64 1483.08 185.18 1471.26 177.8 1471.51 179.15 1458.75 179.19 1448.76 177.35 1438.13 174.35 1431.58 188.08 1431.64 186.94 1421.98 187.94 1409.28 185.77 1395.3 191.8 1356.8 204.99 1323.61 204.86 1289.28 197.51 1254.4 179.55 1235.06 154.09 1206.14 159.58 1201.26 180.21 1192.65 195.8 1192.82 206.65 1189.12 220.43 1182.02 230.5 1178.34 239.89 1177.83 240.93 1172.76 244.48 1170.37 245.94 1158.92 242.98 1154.33 237.28 1153.62 237.28 1150.6 227.56 1140.4 230.52 1132.36 234.51 1126.89 229.4 1125.08 225.83 1118.41 233 1092.46 234.74 1089.95 233.78 1077.23 231.15 1071.9 234.51 1065.8 224.38 1059.98 218.44 1053.75 216.78 1050.08 208.77 1048.84 207.08 1043.18 211.27 1040.43 203.8 1021.08 203.69 1011.38 201.11 1006.69 186.24 998.19 184.87 994.25 179.81 993.99 177.63 989.18 162.66 982 164.23 976.03 173.55 973.31 183.03 965.69 186.74 958.01 189.41 957.15 196.99 960.51 204.5 955.83 216.1 956.77 220.01 961.65 225.37 962.32 231.28 957.53 231.79 945.13 228.62 936.67 229.87 930.25 233.49 928.13 243.92 928.34 252.84 932.61 260.49 930.75 268.31 935.57 269.94 934 276.78 935.92 279.98 939.11 287.73 940.22 290.82 938.33 298.78 938.59 305.52 936.78 311.08 933.43 314.89 934.49 317.56 926.97 336.33 933.41 340.36 930.39 344 935.35 348.6 935.42 350.7 928.04 354.57 924.54 359.79 924.91 366.77 917.97 372.17 918.35 375.62 916.2 389.5 925.61 405.47 926.94 408.5 921.57 412.42 918.53 420.89 906.64 426.79 900.52 426.91 897.48 434.17 887.05 434.15 883.6 441.14 880 450.35 872.89 455.56 864.16 460.81 844.87 457.4 833.5 465.75 820.58 473.97 816.16 476.81 814.58 487.67 815.27 502.38 817.84 501.21 821.93 502.29 828.99 504.84 829.76 508.23 843.41 512.7 848.25 508.06 852.99 507.47 862.46 508.58 866.7 512.76 868.72 519.49 878.35 519.6 887.16 522.54 891.79 521.82 914.25 523.88 916.43 522.63 922.54 526.06 941.4 521.45 949.43 521.39 953.78 515.42 961.58 512.52 963.08 517.15 981.07 519.75 986.88 516.36 995.06 498.49 1011.07 484.72 1016.03 480.59 1015.34 472.38 1021.33 462.03 1024.76 463.03 1032.88 461.59 1039.75 464.39 1042.89 464.38 1050.2 467.64 1059.74 473.31 1061.9 471.72 1069.58 478.49 1082.89 484.47 1088.54 483.83 1093.84 485.89 1098.12 486.25 1114.1 484.23 1117.26 490.33 1125.85 488.73 1129.17 490.13 1136.49 506.96 1136.42 515 1132.5 523.75 1137.53 528.26 1142.1 528.75 1146.24 533.29 1148.53 535.9 1163.14 540.33 1171.94 544.46 1172.99 545.59 1176.67 558.39 1177.1 572.38 1187.26 579.66 1190.38 588.11 1190.65 598.35 1197.8 601.2 1207.74 612.12 1208.61 614.43 1211.08 623.48 1212.87 634.38 1208.94 641.43 1210.44 652.84 1215.45 654.31 1249.43 653.74 1255.45 660.08 1265 657.74 1272.8 662.58 1290.97 664.92 1291.83 674.83 1308.13 683.33 1316.67 Z" id="33042320"/>
<path d="M 691.37 14.55 696.13 20.09 699.69 34.95 701.26 47.63 703.14 70.59 703.21 78.51 703.18 78.88 666.1 83.96 645.34 87.61 607.04 87.76 604.64 83.57 605.04 53.67 605.1 33.23 606.73 31.92 626.45 32.67 636.4 30.13 678.58 4.97 685.54 1.93 689.43 1 690.13 12.11 691.37 14.55 Z" id="33042510"/>
<path d="M 696.63 136 690.93 136.93 684.43 133.52 678.74 127.95 676.53 136.06 666.58 137.69 658.6 128.44 655.59 122.31 640.07 130.3 627.69 134.04 627.87 136.47 620.37 138.58 618.95 133.85 615.6 132.37 611.77 140.9 603.96 141.79 600.05 139.3 585.25 142.64 583.9 138.86 582.88 135.02 583.06 124.38 598.18 124.02 599.19 118.55 597.1 110.64 600.73 109.57 603.48 102.09 608.43 98.41 615.96 97.89 616.89 95.7 607.51 91.99 607.04 87.76 645.34 87.61 666.1 83.96 703.18 78.88 702.88 87.4 699.39 94.28 690.62 101.03 688.15 109.88 690.21 122.59 693.28 126.58 696.63 136 Z" id="33042520"/>
<path d="M 607.04 87.76 607.51 91.99 616.89 95.7 615.96 97.89 608.43 98.41 603.48 102.09 600.73 109.57 597.1 110.64 599.19 118.55 598.18 124.02 583.06 124.38 582.88 135.02 583.9 138.86 571.22 138 565.02 139.29 561.93 137.53 558.05 124.2 554.57 124.27 541.17 112.75 530.54 118.32 522.67 119.84 525.63 113.16 525.59 105.63 526.39 94.15 527.34 80.56 528.18 68.54 541.37 64.36 540.89 71.23 550.73 69.77 559.77 57.66 571.94 66.75 578.14 64.76 583.22 70.01 592.28 69.99 592.53 53.69 605.04 53.67 604.64 83.57 607.04 87.76 Z" id="33042530"/>
<path d="M 696.63 136 704.34 140.39 727.25 156.22 739.65 167.91 748.36 172.92 760.22 180.33 761.9 188.6 761.34 216.51 753.14 218.95 752.81 206.05 727.17 204.77 704.83 199.82 697.01 194.65 694.37 198.64 686.77 199.68 669.1 199.08 666.61 198.23 666.97 190.5 658.94 188.28 654.43 190.42 644.71 182.58 639.85 183.3 636.38 180.16 630.63 183.43 622.82 181.22 618.67 177.65 612.93 168.88 613.6 164.34 608.99 160.49 603.96 141.79 611.77 140.9 615.6 132.37 618.95 133.85 620.37 138.58 627.87 136.47 627.69 134.04 640.07 130.3 655.59 122.31 658.6 128.44 666.58 137.69 676.53 136.06 678.74 127.95 684.43 133.52 690.93 136.93 696.63 136 Z" id="33042540"/>
<path d="M 660.25 255.01 666.29 256.13 671.05 253.1 678.06 251.37 685.99 252.17 693.28 258.17 701.63 260.12 708.53 264.39 703.73 279.16 690.33 301.12 680.48 316 676.26 321.08 663.15 345.08 649.26 358.28 633.8 370.76 627.03 367.67 622.29 368.16 615.52 364.69 611.18 364.44 601.36 366.56 587.57 363.28 580.32 352.61 571.25 350.58 564.58 351.07 549.88 354.67 546.71 359.53 536.46 355.71 531.68 350.17 527.54 351.47 521.34 350.21 516.23 351.41 511 356.49 507.39 353.84 499.53 353.85 499.27 347.31 496.26 341.37 496.98 331.85 501.44 328.71 506.68 329.63 516.71 335.33 519.13 332.88 522.58 322.39 527.2 325.1 529.21 321.61 524.34 319.18 529.91 308.75 534.07 310.52 537.67 304.05 546.16 299.83 548.48 293.93 549.46 285.76 548.08 274.14 552.67 264.62 553.08 253 564.48 240.26 571.27 230.16 572.19 224.07 577.11 222.2 578.03 215.93 575.1 213.99 572.78 207.01 575.62 203.38 590.09 196.65 590.29 192.85 594.28 187.79 600.26 192.83 616.44 236.72 631.39 257.95 637.24 263.68 644.6 254.77 648.37 258.58 658.7 259.64 660.25 255.01 Z" id="33042550"/>
<path d="M 633.8 370.76 649.26 358.28 663.15 345.08 676.26 321.08 680.48 316 690.33 301.12 703.73 279.16 708.53 264.39 717.65 264.21 741.88 259.16 753.02 253.71 758.26 248.12 760.14 241.95 763.84 240.5 762.97 236.01 769.48 237.04 776.42 242.55 782.9 242.9 784.36 246.87 780.51 251.85 784.37 260.41 779.91 264.47 778.07 273.34 781.96 287.64 783.27 314.35 782.27 314.32 783.33 336.53 783.25 361.95 782.54 369.72 779.9 382.32 782.13 399.84 781.05 408.38 778.17 416.21 786.25 411.67 791.29 396.66 791.59 415.74 794.51 432.43 799 440 792.06 448.16 794.64 452.55 747.13 481.63 754.99 492.82 751.56 496.73 746.04 493.52 740.2 493.52 736.56 499.59 727.78 502.88 714.21 499.6 713.53 493.63 705.23 493.62 698.11 497.83 692.86 494.22 690.05 495.91 679.15 497.47 676.74 501.43 672.55 503.41 669.19 508.41 656.07 511.08 653.62 509.93 646.8 511.85 639.41 510.03 638.22 505.1 642.71 492.88 639.89 483.82 647.14 470.49 652.22 464.19 653.14 457.84 650.72 447 651.15 437.39 653.82 432.71 652.73 427.1 658.06 415 657.5 405.11 652.36 402.51 647.01 402.03 641.67 395.46 634.1 392.7 633.69 381.7 639.9 373.28 633.8 370.76 Z" id="33042560"/>
<path d="M 761.34 216.51 762.02 224.26 765.44 233.97 762.97 236.01 763.84 240.5 760.14 241.95 758.26 248.12 753.02 253.71 741.88 259.16 717.65 264.21 708.53 264.39 701.63 260.12 693.28 258.17 685.99 252.17 678.06 251.37 671.05 253.1 666.29 256.13 660.25 255.01 664.2 242.19 665.32 219.86 660.89 222 656.53 214.55 656.08 208.89 664.92 209.58 669.1 199.08 686.77 199.68 694.37 198.64 697.01 194.65 704.83 199.82 727.17 204.77 752.81 206.05 753.14 218.95 761.34 216.51 Z" id="33042570"/>
<path d="M 669.1 199.08 664.92 209.58 656.08 208.89 656.53 214.55 660.89 222 665.32 219.86 664.2 242.19 660.25 255.01 658.7 259.64 648.37 258.58 644.6 254.77 637.24 263.68 631.39 257.95 616.44 236.72 600.26 192.83 594.28 187.79 595.86 183.69 599.68 182.99 603.73 185.8 612.32 182.59 618.67 177.65 622.82 181.22 630.63 183.43 636.38 180.16 639.85 183.3 644.71 182.58 654.43 190.42 658.94 188.28 666.97 190.5 666.61 198.23 669.1 199.08 Z" id="33042580"/>
<path d="M 583.9 138.86 585.25 142.64 600.05 139.3 603.96 141.79 608.99 160.49 613.6 164.34 612.93 168.88 618.67 177.65 612.32 182.59 603.73 185.8 599.68 182.99 595.86 183.69 594.28 187.79 590.29 192.85 590.09 196.65 575.62 203.38 572.78 207.01 575.1 213.99 578.03 215.93 577.11 222.2 572.19 224.07 571.27 230.16 564.48 240.26 553.08 253 552.67 264.62 548.08 274.14 549.46 285.76 548.48 293.93 546.16 299.83 537.67 304.05 534.07 310.52 529.91 308.75 524.34 319.18 529.21 321.61 527.2 325.1 522.58 322.39 519.13 332.88 516.71 335.33 506.68 329.63 501.44 328.71 496.98 331.85 496.26 341.37 499.27 347.31 499.53 353.85 507.39 353.84 511 356.49 516.23 351.41 514.61 359.19 515.04 364.3 520.83 371.94 513.27 375.03 502.11 382.58 499.61 392.66 491.06 399.9 483.66 403.32 478.37 408.44 474.97 403.64 474.16 398.42 471.13 395.28 462.75 391.18 460.52 387.49 455.6 384.96 445.86 368.1 448.25 362.58 445.12 351.05 443.97 336.3 439.69 330.95 438.84 320.18 434.45 318.3 429.03 322 421.9 332.36 419.81 338.34 420.8 345.76 415.19 348.98 413.39 346 404.14 346.1 399.24 344.52 395.95 348.62 389.15 352.36 386.19 349.86 383.41 342.32 388.66 333.39 390.29 326.01 388.96 318.24 400.91 312.79 403.92 307.38 405.89 300.11 403.83 287.79 404.39 281.42 409.16 279.83 410 275.28 413.35 274.81 423.85 268.62 433.95 258.63 434.44 256.36 443.02 245.85 454.72 236.37 455.48 222.91 454.9 208.71 452.8 200.41 444.16 182.64 445.42 180.3 453.81 174.69 460.37 172.27 486.41 172.24 487.32 138.75 489.23 130.21 492.85 124.88 506.16 110.41 514.88 110.4 525.59 105.63 525.63 113.16 522.67 119.84 530.54 118.32 541.17 112.75 554.57 124.27 558.05 124.2 561.93 137.53 565.02 139.29 571.22 138 583.9 138.86 Z" id="33042590"/>
<path d="M 389.15 352.36 395.95 348.62 399.24 344.52 404.14 346.1 413.39 346 415.19 348.98 420.8 345.76 419.81 338.34 421.9 332.36 429.03 322 434.45 318.3 438.84 320.18 439.69 330.95 443.97 336.3 445.12 351.05 448.25 362.58 445.86 368.1 455.6 384.96 460.52 387.49 462.75 391.18 471.13 395.28 474.16 398.42 474.97 403.64 478.37 408.44 483.66 403.32 491.06 399.9 499.61 392.66 502.11 382.58 513.27 375.03 520.83 371.94 515.04 364.3 514.61 359.19 516.23 351.41 521.34 350.21 527.54 351.47 531.68 350.17 536.46 355.71 546.71 359.53 549.88 354.67 564.58 351.07 571.25 350.58 580.32 352.61 587.57 363.28 601.36 366.56 611.18 364.44 615.52 364.69 622.29 368.16 627.03 367.67 633.8 370.76 639.9 373.28 633.69 381.7 634.1 392.7 641.67 395.46 647.01 402.03 652.36 402.51 657.5 405.11 658.06 415 652.73 427.1 653.82 432.71 651.15 437.39 650.72 447 653.14 457.84 652.22 464.19 647.14 470.49 639.89 483.82 642.71 492.88 638.22 505.1 639.41 510.03 637.67 514.52 637.87 522.23 639.76 525.43 637.47 530.83 632.26 533.05 626.37 533.26 620.84 538.94 619.21 542.76 619.52 549.95 616.97 553.98 618.63 557.99 613.4 565.35 607.61 570.07 602.83 579.62 604.15 583.26 602.76 592.45 600.49 597.35 602.41 606.76 599.93 612.01 604.35 619.71 602.78 630.25 595.95 644.62 598.58 650.47 597.32 657.73 607.44 664.17 614.46 661.73 627.29 666.97 630.61 666.27 633.46 661.25 647.46 651.36 654.01 654.7 664.64 655.99 666.94 660.17 676.07 656.89 683.17 659.29 688.38 662.8 687.86 669.61 683.4 672.55 678.41 683.6 678.32 688.4 674.6 691.63 676.38 704.43 679.3 714.53 686.68 714 691.13 722.34 691.51 726.33 696.57 727.29 699.18 733.02 703.5 735.83 705.47 741.68 702.35 749.08 705.45 757.39 710.36 764.66 717.54 770.86 712.52 781.21 711.52 787.86 707.98 791.23 702.42 785.92 700.06 778.89 696.06 776.27 693.34 770.71 681.76 772.1 675.61 769.29 671.16 774.74 667.13 775.81 655.83 783.18 651.48 788.03 643.18 790.92 636.62 791.56 635.15 796.27 630.55 797.43 625.73 802.86 619.1 807.59 612.43 808.89 593.14 810.16 590.72 801.75 591.76 798.11 583.6 793.25 574 783.17 567.71 782.15 562.95 775.16 554.77 771.92 546.09 764.54 533.48 759.81 525.44 761.33 513.27 767.31 504.71 772.98 493.92 771.84 485.87 763.83 485.36 760.56 474.98 753.27 471.82 753.62 473.54 765.99 477.15 773.79 474.34 792.09 471.88 798.18 471.85 808.33 473.97 816.16 465.75 820.58 457.4 833.5 460.81 844.87 455.56 864.16 450.35 872.89 441.14 880 434.15 883.6 434.17 887.05 426.91 897.48 426.79 900.52 420.89 906.64 412.42 918.53 408.5 921.57 405.47 926.94 389.5 925.61 375.62 916.2 372.17 918.35 366.77 917.97 359.79 924.91 354.57 924.54 350.7 928.04 348.6 935.42 344 935.35 340.36 930.39 336.33 933.41 317.56 926.97 314.89 934.49 311.08 933.43 305.52 936.78 298.78 938.59 290.82 938.33 287.73 940.22 279.98 939.11 276.78 935.92 269.94 934 268.31 935.57 260.49 930.75 252.84 932.61 243.92 928.34 233.49 928.13 229.87 930.25 227.22 925.56 230.76 920.03 216.32 904.17 212.36 897.78 212.07 891.71 213.75 885.44 210.75 875.84 209.82 857.32 208.35 851.86 202.8 847.1 197.29 847.94 193.62 841.61 192.3 831.5 188.25 821.42 178.01 817.25 167.64 826.87 160.93 829.25 148.47 830.91 140.75 829.06 128.83 831.2 122.18 827.15 112.98 828.95 107.81 828.39 100.48 822.53 93.76 823.57 87.12 821.71 83.39 823.32 75.84 819.61 73.83 814.45 73.69 807.18 76.05 801.94 75.65 788.99 68.09 782.02 71.27 770.46 61.88 762.64 46.13 758.73 42.01 755.49 41.37 745.44 44.72 741.93 43.11 736.98 46.35 733.89 42.5 721.26 39.16 713.87 23.18 693.03 11.87 694.8 8.47 689.04 5.25 676.79 8.14 675.28 19.64 674.75 28.93 669.05 26.7 664.93 38.22 653.54 30.6 644.94 25.94 642.21 22.99 644.06 13.13 644.88 1 648.38 7.02 640.56 12.95 635.78 24.73 630.62 31.89 624.92 35.35 615.55 32.69 615.22 34.14 605.64 40.3 602.79 47.62 594.65 48.99 588.48 53.21 583.63 58.16 574.57 61.62 572.4 69.64 561.73 76.46 557.5 78.93 551.7 85.38 545.24 93.33 540.44 98.6 518.53 97.67 513.38 100.83 500.61 105.15 489.1 110.29 482.17 115.23 478.61 125.41 475.31 129.35 468.77 136.99 464.06 144.18 453.99 164.22 437.28 169.36 429.54 173.91 417.8 178.4 411.43 180.61 397.36 185.35 392.11 202.86 382.52 209.53 380.96 216.84 374.07 220.57 364.13 219.19 358.8 232.6 344.29 237.52 343.25 239.73 339.01 245.89 333.96 246.8 327.47 255.6 319.25 266.33 312.75 274.94 312.77 271.21 317.9 271.28 326.99 279.63 329.38 277.03 336.69 281.34 341.52 288.41 343.04 291.89 346.21 290.09 355.47 293.05 358.54 293.45 364.81 296.24 367.61 297.62 373.49 294.55 386.17 296.96 390.99 305.04 389.7 310.59 391.6 314.67 384.19 327.15 382.26 329.33 377.08 339.54 374.07 340.86 362.6 346.04 367.13 374.42 370.46 381.63 374.19 386.83 374.74 390.34 362 388.55 357.46 389.15 352.36 Z" id="33042310"/>
</g>
</svg>