<?xml version="1.0"?>
<svg xmlns="http://www.w3.org/2000/svg" version="1.2" baseProfile="tiny" width="800" height="449" viewBox="0 0 800 449" stroke-linecap="round" stroke-linejoin="round">
<g id="dong">
<path d="M 447.17 192.64 448.58 189.71 448.86 184.85 450.72 180.69 453.71 177.15 455.93 172.82 457.13 169.19 460.3 166.65 464.39 164.67 468.33 161.95 471.44 161.31 477.27 160.9 480.27 161.42 483.16 161.1 487.04 157.33 488.98 156.53 492.19 156.48 495.52 157.4 500.4 157.36 505.66 155.64 508.9 155.09 514.76 155.2 518.48 153.85 521 154.22 527.56 160.84 529.42 162.04 533.93 163.71 538.4 162.7 541.03 161.43 545.93 157.4 547.23 155.63 551.97 153.93 555.15 152.3 558.87 151.65 561.59 151.74 565.29 152.67 569.72 154.5 572.94 155.15 574.13 158.14 582.53 161.16 586.45 160.53 588.71 161.42 590.48 164.66 592.45 164.92 595.54 166.38 597.12 171.13 604.85 174.84 606.38 177.11 610.87 181.97 612.79 184.64 614.24 188.59 616.31 190.69 620.23 191.96 621.99 193.76 625.48 194.91 629.08 192.41 632.6 192.7 636.18 197.8 640.3 200.71 647.63 209.06 651.44 209.98 654.98 211.56 656.51 213.08 657.77 216.55 661.04 218.82 667 215.23 668.76 214.72 670.96 215.29 678.26 210.46 682.72 210.81 688.12 208.68 691.58 208.18 692.56 205.82 694.31 204.62 696.29 198.57 701.05 193.2 707 191.89 708.68 192.09 715.17 189.85 716.99 190.12 720 188.66 720.29 187.04 723.48 187.03 724.76 185.96 727.7 185.69 731.35 186.6 733.86 184.6 735.02 185.89 737.56 185.82 740.87 183.95 743.95 185.36 745.1 186.55 747 185.99 748.81 184.13 754.16 181.92 755.69 182.82 757.83 180.87 760.83 180.41 762.02 181.83 766.26 176.27 767.28 171.98 770.89 170.48 773.54 167.39 773.88 165.05 778.78 168.27 777.38 171.89 778.41 173.94 785.23 177.24 786.94 181.81 787.46 185.72 789 188.01 788.04 191.46 789.34 192.96 790.34 199.5 789.66 202.91 791.18 204.66 794.36 205.69 798.15 208.85 798.8 210.59 799 215.72 798.49 221.02 796.66 226.3 797.72 233.7 796.55 239.85 794.94 240.51 793.06 244.06 788.23 248.53 788.33 254.12 786.87 258.45 784.74 262.27 783.53 262.29 781.02 265.62 779.59 265.23 774.57 266.18 772.66 267.12 770.51 266.86 763.65 268.03 758.93 271.09 754.49 271.37 750.68 269.72 746.07 272.67 742.86 273.54 742.83 276.5 741.63 277.77 739.43 278.32 738.63 281.62 736.05 284.64 734.91 287.21 728.65 290.59 726.47 290.99 724.65 292.38 724.55 296.56 726.18 299.37 727.28 303.99 725.79 306.12 721.52 306.74 718.43 311.26 714.59 313.12 712.05 319.4 709.08 317.35 705.14 316.92 703.58 315.53 702.2 316.72 700.65 315.54 698.38 316.86 694.29 317.01 692.85 319.46 690.18 320.82 689.42 324.31 686.35 327.12 685.2 326.77 679.88 331.54 679.4 334.66 677.32 336.79 676.8 338.85 673.45 339.28 672.1 338.58 668.72 339.72 666.45 341.77 665.74 345.04 664.35 345.99 663.32 348.67 662.09 349.58 658.95 349.94 658.25 348.9 654.85 350.34 651.81 350.59 648.74 349.98 644.95 348.04 643.65 346.84 640.63 350.91 634.41 350.68 630.61 351.07 628.35 352.75 624.26 354.52 621.36 354.83 620.63 353.89 615.63 354.47 613.39 352.73 610.48 356.37 609.55 359.27 605.87 360.39 602.85 363.32 601.97 366.04 599.99 367 598.88 368.62 597.41 369 591.82 366.81 589.84 367.29 587.47 366.37 583.96 367.5 582.48 365.92 579.93 367.21 577.5 371.88 574.26 373.69 571.3 377.86 571.86 379 569.65 376.3 564.32 377.41 562.04 376.41 560.34 372.9 556.63 373.45 554.36 370.74 552.57 370.74 550.04 369.34 549.27 367.54 543.86 366.14 540.87 363.02 535.48 359.27 530.95 360.03 528.31 359.06 525.51 357.01 525.83 355.09 522.35 350.99 518.14 349.78 517.14 350.84 513.65 346.71 511.79 341.04 508.79 340.14 506.12 337.71 504.18 337.68 503.11 335.24 500.02 333.69 500.33 331.12 497.71 327.81 496.44 324.7 494.08 321.79 489.89 320.95 487.93 319.39 484.07 318.09 482.88 316.95 480.63 316.64 481.77 310.77 483.4 307.39 483.86 302.52 485.34 299.76 489.26 296.02 485.98 295.89 483.91 294.64 480.26 294.49 477.98 295.49 475.49 295.48 474.56 293.63 475.18 289.97 475.09 282.25 475.47 278.72 477.88 272.01 479 261.7 480.87 256.76 479.97 254.68 477.1 252.72 474.3 249.01 474.21 247.81 477.21 247 482.15 244.15 483.69 244.73 485.36 242.97 484.6 241.48 486.05 236.95 487.27 236.25 486.68 233.19 489.17 228.46 487.88 227.39 485.04 227 484.15 225.28 482.62 225.24 480.94 223.19 481.75 221.1 480.11 220.18 483.59 218.4 485.46 215.73 486.89 210.81 482.52 208.31 479.8 209.03 477.14 207.94 472.73 212.92 470.53 214.95 467.05 214.35 462.73 214.73 461.33 212.93 457.38 212.1 455.87 211.11 454.06 211.53 450.84 208.37 448.49 208.03 444.71 205.7 444 204.31 447.05 200.04 448.5 197.05 448.68 194.76 447.17 192.64 Z" id="33044110"/>
<path d="M 502.92 42.69 495.36 46.72 490.15 50.53 488.83 53.6 486.24 61.26 484.45 68.42 481.86 74.26 476.89 79.37 475.05 82.08 472.02 85.01 468.13 89.47 465.84 91.51 461.96 96.72 459.96 100.18 456.42 105.12 454.12 107.74 450.58 113.15 446.92 121.68 446.6 124.92 445.51 127.84 444.5 134.23 443.21 138.59 441.66 141.65 438.62 145.45 436.16 152.04 434.47 153.52 430.92 160.3 429.74 164.67 429.69 169.19 427.83 175.22 425.89 175.21 427.08 181.05 426.81 184.23 427.21 188.35 427.06 193.34 428.4 194.03 427.7 198.66 426.33 204.15 424.76 207.81 422.05 211.57 415.03 215.61 409.64 220.31 404.25 226.09 399.06 232.57 397.06 232.56 396.17 235.92 394.5 238.54 391.78 240.76 390.49 243.71 391.31 246.02 391.62 250.12 389.57 253.03 388.15 260.32 387.98 264.11 389.36 267.59 389.63 270.97 388.75 275.01 386.56 277.25 383.26 279.43 383.69 280.29 374.77 282.54 366.02 283.33 363.29 283.27 359.89 284.15 358.13 285.6 355.53 289.7 350.25 292.45 349.31 298.06 348.02 303.25 345.69 308.74 344.64 312.14 341.21 313.85 342.63 315.35 339.18 316.05 332.29 316.8 317.14 321.41 311.98 320.52 311.63 319.4 308.18 318.35 306.79 316.94 302.88 317.67 302.3 302.17 287.18 302.73 287.46 297.38 285.21 295.61 283.67 293.24 281.79 287.29 279.86 285.07 274.55 282.53 273.27 281.51 274.99 279.65 242.77 249.91 241.7 248.29 242.36 244.37 246.25 240.13 247.42 237.97 246.99 234.19 242.47 233.96 240.25 235.22 238.79 238.3 236.84 239.03 232.85 237.41 235.02 234.02 234.35 232.95 227.33 230.61 224.58 228.37 219.12 226.77 217.4 221.84 213.01 217.01 204.31 210.61 201.54 209.71 192.46 208.66 188.35 208.78 184.22 209.45 181.19 211.61 177.88 212.89 175.34 214.53 169.76 217.2 168.78 218.97 161.69 223.78 157.49 225.47 154.22 225.71 151.8 226.56 150.76 225.47 144.55 224.63 141.8 222.99 134.78 219.95 133.66 218.79 128.55 216.62 126.61 214.34 122.22 212.94 119.43 209.34 116.66 209.06 109.22 209.15 109.23 210.62 99.6 210.67 95.06 209.53 92.11 209.46 90.8 207.43 88.53 205.86 85.24 205.45 81.97 205.77 71.73 205.91 62.68 206.34 57.98 205.84 54.87 205.08 52.47 203.45 44.85 200.33 42.15 198.24 40.68 198.7 37.3 198.13 33.03 196.56 23.98 190.38 22.67 188.35 19.39 188.48 17.63 190.18 13.52 189.69 5.96 189.67 3.37 188.72 1 186.24 2.18 185.11 3.67 181.09 5.64 180 8.58 173.96 13.36 166.34 18.03 164.57 19.98 162.63 20.66 157.33 28.17 154.39 31.21 154.75 33.68 157.42 34.4 160.44 35.53 160.44 39.19 162.85 41.58 165.71 45.77 164.99 48.35 167.13 50.49 169.75 51.01 171.46 52.75 171.59 57.13 170.19 59.2 164.27 62.8 160.26 65.75 159.96 65.9 156.79 67.58 151.99 67.56 150.5 65.59 146.09 63.8 143.5 63.15 141.38 60.11 139.93 58.83 137.02 52.24 136 52.55 130.44 52.33 125.66 50.05 122.08 49.63 119.95 44.74 115.52 43.34 113.57 39.62 113.99 39.51 111.66 40.42 109.59 43.87 107.21 44.02 104.06 46.59 99.23 46.64 95.56 47.07 94.78 51.36 95.11 54.5 94.14 56.04 94.93 58.03 93.57 60.1 93.48 61.58 92.38 65.03 92.95 69.35 91.2 71.33 92.36 73.71 91.49 76.28 91.93 77.64 93.31 79.75 93.73 81.33 92.42 85.95 91.21 88.53 89.75 91.43 89.88 95.49 87.94 96.48 84.72 100.2 83.48 101.68 81.3 101.78 78.89 103.76 73.86 104.53 69.52 106.08 67.14 107.86 67.79 112.09 71.26 114.31 70.26 118.38 66.72 121.92 66.61 123.95 65.21 126.43 67.11 130.25 67.16 137.27 65.04 138.08 67.36 138.04 69.88 141 71.92 142.28 74.94 145.31 76.47 151.3 76.82 153.43 74.99 158.66 74.58 159.59 73.48 162.88 73.14 162.76 74.79 167.49 76.17 169.9 76.11 171.78 74.49 175.8 73.47 178.19 71.24 181.78 72.41 184.16 79.43 185.81 80.53 185.46 82.28 183.94 83.36 186.97 86.7 188.01 89.48 187.91 91.46 191.29 93.44 198.14 94.65 201.16 94.58 200.46 96.47 203.77 99.03 203.62 103.49 205.17 106.75 206.93 106.93 207.51 109.67 211.77 110.6 215.6 112.94 218.65 111.32 220.58 111.75 221.49 114.46 226.98 118.11 228.73 119.64 230.76 118.71 229.85 115.87 231.64 108.66 232.84 106.98 232.04 105.15 232.86 101.9 236.34 99.94 238.78 96.6 240.35 95.47 243.38 95.27 243.76 94.07 246.43 92.96 248.12 90.98 248.76 88.79 248.41 85.99 246.89 82.76 248.32 82.67 249.88 79.27 251.85 78.25 255.88 79.07 258.09 80.9 261.85 80.3 267.22 78.73 270.13 77.38 274.74 77.42 277.05 76.25 277.65 74.77 282.73 73.71 282.99 77.14 286.48 76.99 289.31 77.49 289.48 81.19 288.05 82.23 284.29 83.03 284.56 84.94 283.63 86.68 284.72 90.96 286.47 92.94 286.55 95.17 288.89 96.17 289.86 99.84 291.75 98.94 296.42 99.67 298.67 98.64 298.94 96.95 302.94 95.94 304.77 97.62 312.62 97.38 313.81 95.41 316.37 94.88 317.07 92.8 318.92 91.53 321.68 91.71 324.48 94.17 326.98 95.22 328.73 98.03 328.61 101.49 330.49 104.32 332.43 104.06 333.92 106.51 334.99 105.18 339.3 103.34 343.13 106.02 345.34 105.34 347.57 105.87 353.06 103.18 350.1 94.44 349.85 92.29 346.8 86.94 346.97 85.7 350.26 81.83 350.62 76.94 350.12 72.4 352.78 69.36 352.89 66 356.12 62.94 362.19 59.45 364.99 56.36 368.66 53.9 370.57 51.89 370.55 50.41 372.67 50.17 373.86 48.29 373.97 46.33 377.11 38.88 381.35 35.39 387.53 37.25 392.23 36.36 394.54 37.84 396.25 36.41 398.7 38.43 401.23 38.51 404.35 40.02 408.67 37.15 410.25 37.33 413.12 35.58 415.57 32.2 423.02 26.01 428.05 24.44 429.61 22.91 432.72 21.49 431.24 17.95 434.39 16.25 437.46 16.29 438.99 15.51 450.3 18.04 457.35 23.35 459.64 22.27 459.16 19.73 461.64 14.7 462.99 14.98 465.27 13.51 467.3 13.33 471.81 5.77 474.89 2.84 483.6 3.24 491.12 4.21 495.77 4.45 497.52 5.56 505.24 12.52 506.14 15.11 506.5 19.78 508.45 24.74 509.38 28.93 508.7 32.7 507.03 38.02 502.92 42.69 Z" id="33044120"/>
<path d="M 773.88 165.05 773.54 167.39 770.89 170.48 767.28 171.98 766.26 176.27 762.02 181.83 760.83 180.41 757.83 180.87 755.69 182.82 754.16 181.92 748.81 184.13 747 185.99 745.1 186.55 743.95 185.36 740.87 183.95 737.56 185.82 735.02 185.89 733.86 184.6 731.35 186.6 727.7 185.69 724.76 185.96 723.48 187.03 720.29 187.04 720 188.66 716.99 190.12 715.17 189.85 708.68 192.09 707 191.89 701.05 193.2 696.29 198.57 694.31 204.62 692.56 205.82 691.58 208.18 688.12 208.68 682.72 210.81 678.26 210.46 670.96 215.29 668.76 214.72 667 215.23 661.04 218.82 657.77 216.55 656.51 213.08 654.98 211.56 651.44 209.98 647.63 209.06 640.3 200.71 636.18 197.8 632.6 192.7 629.08 192.41 625.48 194.91 621.99 193.76 620.23 191.96 616.31 190.69 614.24 188.59 612.79 184.64 610.87 181.97 606.38 177.11 604.85 174.84 597.12 171.13 595.54 166.38 592.45 164.92 590.48 164.66 588.71 161.42 586.45 160.53 582.53 161.16 574.13 158.14 572.94 155.15 569.72 154.5 565.29 152.67 561.59 151.74 558.87 151.65 555.15 152.3 551.97 153.93 547.23 155.63 545.93 157.4 541.03 161.43 538.4 162.7 533.93 163.71 529.42 162.04 527.56 160.84 521 154.22 518.48 153.85 514.76 155.2 508.9 155.09 505.66 155.64 500.4 157.36 495.52 157.4 492.19 156.48 488.98 156.53 487.04 157.33 483.16 161.1 480.27 161.42 477.27 160.9 471.44 161.31 468.33 161.95 464.39 164.67 460.3 166.65 457.13 169.19 455.93 172.82 453.71 177.15 450.72 180.69 448.86 184.85 448.58 189.71 447.17 192.64 445.7 194.26 442.14 195.2 433.25 193.74 428.4 194.03 427.06 193.34 427.21 188.35 426.81 184.23 427.08 181.05 425.89 175.21 427.83 175.22 429.69 169.19 429.74 164.67 430.92 160.3 434.47 153.52 436.16 152.04 438.62 145.45 441.66 141.65 443.21 138.59 444.5 134.23 445.51 127.84 446.6 124.92 446.92 121.68 450.58 113.15 454.12 107.74 456.42 105.12 459.96 100.18 461.96 96.72 465.84 91.51 468.13 89.47 472.02 85.01 475.05 82.08 476.89 79.37 481.86 74.26 484.45 68.42 486.24 61.26 488.83 53.6 490.15 50.53 495.36 46.72 502.92 42.69 503.28 44.89 507.4 46.01 510.21 44.44 515.72 43.41 522.68 40.12 525.2 40.46 531.54 37.78 536.63 36.9 550.58 35.93 554.48 34.55 563.47 33.81 569.72 31.83 572.37 30.26 576.83 26.8 582.4 25.59 590.55 23.34 593.78 22.05 595.77 22.01 608.04 18.14 614.24 17 619.88 14.95 620.9 14.11 629.07 9.66 633.84 8.15 640.11 6.74 644.45 6.47 649.59 3.87 654.23 1 654.41 3.23 657.41 6 659.02 10.34 659.81 14.93 660.86 16.38 661.92 21.69 661.18 24.09 663.62 26.8 664.41 28.62 666.42 29.93 671.17 29.21 672.85 32.95 674.31 33.81 681.64 43.24 686.56 45.06 686.69 46.41 690.31 44.53 691.92 44.34 693.71 46.93 697.03 49.27 700.13 50.81 701.12 54.2 703.2 58.52 706.36 60.54 710.17 61.14 714.43 65.51 715.95 66.12 718.54 65.32 718.55 68.61 716.96 72.24 717.19 76.31 714.02 82.42 717.19 85.7 717.69 87.56 721.46 88.58 721.65 91.05 722.73 93.28 723.63 100.71 722.12 104.73 723.83 108.11 727.06 109.88 728.47 111.91 730.79 112.1 732.16 114.23 735.92 115.42 737.59 117.75 741.81 117.92 743.72 119.12 746.84 117.08 748.32 114.57 753.57 113.94 755.87 114.45 757.73 113.79 759.68 115.04 761.12 119.58 764.35 121.58 765.91 126.13 765.44 132.15 769.92 133.67 769.16 136.39 769.52 137.91 771.4 139.7 770.38 142.6 771.46 144.95 773.64 145.66 774.25 147.19 776.41 148.39 775.07 154.32 775.89 158.29 774.23 160.54 773.3 163.92 773.88 165.05 Z" id="33044310"/>
<path d="M 517.14 350.84 512.98 354.12 508.79 355.62 505.84 357.3 502.5 358.1 500.07 361.28 497.45 359.95 494.62 360.94 489.67 364.78 490.29 366.89 487.34 368.61 480.87 365.3 473.77 363.3 457.4 359.32 447.97 358.33 445.01 358.59 440.06 359.93 439.58 359.06 440.55 338.03 439.29 333.84 437.33 335.43 434.5 333.2 430.51 331.92 429.04 330.11 425.63 328.95 424.44 327.94 422.89 330.52 419.05 333.41 417.12 333.96 415.82 337.22 412.64 339.33 406.75 341.66 404.16 340.7 401.59 341.44 394.18 345.41 394.01 350.11 394.98 352.72 394.02 357.19 394.4 361.53 390.92 364.33 388.86 364.98 388.41 367.22 386.71 367.59 382.83 363.27 378.89 360.43 377.45 358.31 374.38 355.65 371.83 352.43 368.32 349.85 363.27 348.88 350.08 349.56 346.64 349.06 344.93 347.22 344.74 340.81 346.09 335.3 347.14 333.66 344.16 329.68 343.92 327.14 346.22 324.14 349.18 322.32 347.44 318.76 342.63 315.35 341.21 313.85 344.64 312.14 345.69 308.74 348.02 303.25 349.31 298.06 350.25 292.45 355.53 289.7 358.13 285.6 359.89 284.15 363.29 283.27 366.02 283.33 374.77 282.54 383.69 280.29 383.26 279.43 386.56 277.25 388.75 275.01 389.63 270.97 389.36 267.59 387.98 264.11 388.15 260.32 389.57 253.03 391.62 250.12 391.31 246.02 390.49 243.71 391.78 240.76 394.5 238.54 396.17 235.92 397.06 232.56 399.06 232.57 404.25 226.09 409.64 220.31 415.03 215.61 422.05 211.57 424.76 207.81 426.33 204.15 427.7 198.66 428.4 194.03 433.25 193.74 442.14 195.2 445.7 194.26 447.17 192.64 448.68 194.76 448.5 197.05 447.05 200.04 444 204.31 444.71 205.7 448.49 208.03 450.84 208.37 454.06 211.53 455.87 211.11 457.38 212.1 461.33 212.93 462.73 214.73 467.05 214.35 470.53 214.95 472.73 212.92 477.14 207.94 479.8 209.03 482.52 208.31 486.89 210.81 485.46 215.73 483.59 218.4 480.11 220.18 481.75 221.1 480.94 223.19 482.62 225.24 484.15 225.28 485.04 227 487.88 227.39 489.17 228.46 486.68 233.19 487.27 236.25 486.05 236.95 484.6 241.48 485.36 242.97 483.69 244.73 482.15 244.15 477.21 247 474.21 247.81 474.3 249.01 477.1 252.72 479.97 254.68 480.87 256.76 479 261.7 477.88 272.01 475.47 278.72 475.09 282.25 475.18 289.97 474.56 293.63 475.49 295.48 477.98 295.49 480.26 294.49 483.91 294.64 485.98 295.89 489.26 296.02 485.34 299.76 483.86 302.52 483.4 307.39 481.77 310.77 480.63 316.64 482.88 316.95 484.07 318.09 487.93 319.39 489.89 320.95 494.08 321.79 496.44 324.7 497.71 327.81 500.33 331.12 500.02 333.69 503.11 335.24 504.18 337.68 506.12 337.71 508.79 340.14 511.79 341.04 513.65 346.71 517.14 350.84 Z" id="33044510"/>
<path d="M 454.71 423.04 458.11 423.93 461.6 422.76 463.76 423.71 464.41 425.58 467.13 425.78 470.4 429.54 473.14 429.74 472.46 431.95 473.41 433.29 472.13 435.12 471.79 437.35 473.36 438 474.6 436.73 476.91 437.07 478.31 432.96 477.31 429.44 478.35 426.25 483.43 420.32 485.52 419.78 491.36 419.99 492.82 419.02 496.26 419.59 497.86 421.44 497.72 424.27 499.24 425.81 498.32 430.31 495.05 433.59 489.64 436.29 487.35 439.83 482.38 439.86 481.13 441.25 478.55 440.93 474.48 438.68 468.9 437.97 465.85 441.79 462.7 442.3 455.52 442.58 453.21 442.98 453.57 447.59 442.66 447.41 439.17 448 438.64 446.96 438.34 442.26 436.69 442.65 435.71 441.45 429.07 430.21 421.5 419.57 417.81 413.71 421.86 415.94 423.39 415.9 426.25 413.82 427.44 414.48 430.22 412.07 434.23 413.74 441.6 408.56 452.07 423.25 454.71 423.04 Z" id="33044520"/>
<path d="M 454.71 423.04 452.07 423.25 441.6 408.56 434.23 413.74 430.22 412.07 427.44 414.48 426.25 413.82 423.39 415.9 421.86 415.94 417.81 413.71 416.37 411.81 412.65 403.72 410.95 397.94 414.67 398.26 418.43 396.95 420.97 392.92 422.77 391.07 426.24 389.87 435.28 388.52 440.21 386.17 445.37 384.84 449.06 381.75 451.75 400.08 453.64 408.43 454.86 419.83 454.71 423.04 Z" id="33044530"/>
<path d="M 496.26 419.59 492.82 419.02 491.36 419.99 485.52 419.78 483.43 420.32 478.35 426.25 477.31 429.44 478.31 432.96 476.91 437.07 474.6 436.73 473.36 438 471.79 437.35 472.13 435.12 473.41 433.29 472.46 431.95 473.14 429.74 470.4 429.54 467.13 425.78 464.41 425.58 463.76 423.71 461.6 422.76 458.11 423.93 454.71 423.04 454.86 419.83 453.64 408.43 451.75 400.08 449.06 381.75 451.01 380.72 455.57 379.72 459.6 381.92 465.85 384.13 466.96 383.27 477.04 384.55 478.12 385.39 485.8 387.09 489.24 389.46 488.33 399.7 487.57 400.02 489.76 404.54 494.74 409.83 494.84 413.15 496.33 416.69 496.26 419.59 Z" id="33044540"/>
<path d="M 517.14 350.84 518.14 349.78 522.35 350.99 525.83 355.09 525.51 357.01 528.31 359.06 530.95 360.03 535.48 359.27 540.87 363.02 543.86 366.14 549.27 367.54 550.04 369.34 552.57 370.74 554.36 370.74 556.63 373.45 560.34 372.9 562.04 376.41 564.32 377.41 569.65 376.3 571.86 379 572.7 381.22 574.22 382.11 568.36 386.56 559.67 388.81 556.03 393.28 554.88 395.66 552.53 395.55 550.91 396.85 550.27 402.01 549.38 404.06 545.83 406.67 543.62 407.27 542.21 409.27 537.47 411.09 535.82 413.21 533.65 414.46 526.4 415.68 522.75 419.88 520.28 419.36 519.06 420.89 512.56 420.59 510.11 419.97 508.67 421.95 507.1 422.27 500.93 430.59 498.32 430.31 499.24 425.81 497.72 424.27 497.86 421.44 496.26 419.59 496.33 416.69 494.84 413.15 494.74 409.83 489.76 404.54 487.57 400.02 488.33 399.7 489.24 389.46 485.8 387.09 478.12 385.39 477.04 384.55 466.96 383.27 465.85 384.13 459.6 381.92 455.57 379.72 451.01 380.72 449.06 381.75 445.37 384.84 440.21 386.17 435.28 388.52 426.24 389.87 422.77 391.07 420.97 392.92 418.43 396.95 414.67 398.26 410.95 397.94 408.14 393.51 405.47 390.04 401.64 390.09 391.67 376.93 390.83 375.07 387.95 370.9 386.71 367.59 388.41 367.22 388.86 364.98 390.92 364.33 394.4 361.53 394.02 357.19 394.98 352.72 394.01 350.11 394.18 345.41 401.59 341.44 404.16 340.7 406.75 341.66 412.64 339.33 415.82 337.22 417.12 333.96 419.05 333.41 422.89 330.52 424.44 327.94 425.63 328.95 429.04 330.11 430.51 331.92 434.5 333.2 437.33 335.43 439.29 333.84 440.55 338.03 439.58 359.06 440.06 359.93 445.01 358.59 447.97 358.33 457.4 359.32 473.77 363.3 480.87 365.3 487.34 368.61 490.29 366.89 489.67 364.78 494.62 360.94 497.45 359.95 500.07 361.28 502.5 358.1 505.84 357.3 508.79 355.62 512.98 354.12 517.14 350.84 Z" id="33044550"/>
</g>
</svg>