<?xml version="1.0"?>
<svg xmlns="http://www.w3.org/2000/svg" version="1.2" baseProfile="tiny" width="800" height="671" viewBox="0 0 800 671" stroke-linecap="round" stroke-linejoin="round">
<g id="dong">
<path d="M 319.33 225.36 317.13 224.15 313.77 224.58 310.63 225.45 306.28 229.65 304.93 231.79 299.8 250.04 295.29 256.55 292.76 261.36 289.01 266.51 278.35 276.39 267.37 285.2 261.43 290.73 258.22 291.88 255.85 292 251.34 291.55 245.44 285.18 243.65 280.96 242.28 281.73 242.7 282.94 240.33 284.75 237.77 286.09 239.03 287.81 241.44 290.18 242.15 292.34 242.34 294.96 241.85 296.25 243.02 298.11 242.23 301.02 242.99 303.95 244.32 305.42 244.43 307.42 245.76 310.65 248.85 314.05 253.64 310.13 255.32 312.12 257.79 314.34 257.37 315.12 254.48 317.45 252.35 317.6 252.18 319.42 250.47 319.04 248.54 319.62 246.88 319.49 245.75 321.94 243.61 323.15 241.99 322.98 240.17 324.53 238.59 323.3 238.44 321.61 237.2 320.16 235.36 320.2 233.85 318.27 231.47 317.52 229.38 318.33 226.58 317.64 225 318.3 222.7 318.36 219.73 319.79 218.59 320.93 216.67 321.4 214.59 323.84 214.62 326.65 216.67 326.41 218.31 327.11 220.19 326.73 222.29 327.78 222.65 330.05 226.2 332.54 224.31 334.55 224.58 335.95 224.26 340.26 223.75 343.49 225.17 345.46 223.13 349.57 224.43 351.32 228.07 351.82 229.2 355.5 228.92 357.98 230.79 359.8 232.8 360.53 233.71 362.43 236.02 364.39 237.54 364.69 237.35 361.69 237.74 360.57 245.25 360.57 246.74 359.03 249.99 359.38 251.02 361.77 250.32 362.9 250.85 364.27 253.31 365.4 254 367.28 256.22 367.39 256.94 369.04 256.79 370.57 254.36 373.97 252.49 372.06 249.44 371.24 247.87 371.7 243.86 375.47 241.59 376.48 236.24 377.13 234.81 378.86 234.57 380.01 235.09 383.3 234.38 385.94 233.41 386.96 231.81 390.58 232.73 393.54 231.05 395.86 231.38 398.41 230.99 401.09 231.43 403.35 229.41 405.51 228.51 405.34 225.56 406.65 223.85 408.42 222.56 408.68 219.08 412.4 217.99 414.85 215.45 416.14 214.22 417.57 213.13 420.08 213.44 423.48 212.91 424.87 213.48 426.86 211.33 428.92 212.11 431.8 211.94 433.47 210.89 435.17 212.94 438.96 212.6 440.82 215.4 447.99 215.49 449.3 221.21 452.96 222.4 455.11 223.69 455.04 223.32 458.76 220.64 459.32 218.97 460.98 214.62 463.33 214.8 464.11 212.94 468.42 212.72 469.77 211 473.07 207.75 474.14 206.79 475.29 206.19 477.33 205.39 477.77 202.1 477.45 199.54 475.88 199.29 474.34 196.54 471.45 192.91 471.98 190.67 469.76 188.92 469.11 186.82 469.08 186.28 471.45 183.17 472.17 181.72 472.87 178.55 473.47 176.46 476.23 175.6 479.37 175.19 482.67 173.77 485.22 171.11 485.82 167.38 485.23 163.22 483.54 162.38 480.37 160.71 476.57 158.02 475.18 156.56 473.34 156.24 471.54 153.3 465.59 152.9 463.64 150.99 459.88 150.64 457.26 151.01 456.08 149.6 454.57 149.28 453.23 147.89 453.07 146.22 453.78 140.43 451.98 140.64 448.9 141.54 447.83 140.96 444.24 138.79 438.82 138.04 438.21 137.52 436.01 137.35 432.75 135.25 430.54 131.44 430.4 129.85 424.42 128.31 420.84 128.8 417.9 126.44 416.06 125.06 415.7 124.01 413.51 123.04 412.74 121.59 410.24 121.01 407.44 118.62 404.75 116.69 403.53 115.15 403.19 113.44 401.45 111.12 401.11 110.74 400.19 112.05 397.23 110.09 394.14 107.93 394.26 106.92 392.48 106.61 388.06 109.25 385.93 110.62 383.94 111.36 381.9 110.83 381.02 111.16 378.66 112.64 376.35 113.67 375.85 115.46 372.92 117.54 368.82 120.47 365.4 121.41 361.91 120.52 359.77 123.4 356.48 124.91 354.32 127.84 351.59 135.39 347.5 141.03 342.77 142.21 341.35 142.49 338.88 141.46 336.03 136.41 338.51 134.35 337.88 131.37 334.29 132.52 333.73 130.53 330.24 131.63 329.06 130.77 327.17 126.4 324.18 125.61 322.53 123.9 323.05 121.03 322.09 117.44 321.96 114.73 321.3 112.47 318.61 111.34 318.18 110.06 314.95 110.62 314.66 111.68 311.47 113.33 310.1 114.59 310.11 117.04 308.16 116.95 306.5 120.12 302.73 121.8 301.63 130.48 297.42 133.18 291.9 135.59 286.51 137.09 285.3 140.04 283.96 141.1 282.03 141.57 280.06 139.76 276.28 142.35 276.94 144.2 278.84 144.92 280.56 147.16 283.19 146.84 284.9 147.09 287.67 150.19 289.64 150.72 291.25 153.93 294.83 154.8 298.05 153.97 300.08 155.44 302.73 157.43 300.88 158.99 300.67 159.96 298.99 164.44 297.97 164.6 296.61 166.84 296.91 168.01 296.44 172.34 299.17 173.54 298.13 175.54 294.69 179.04 294.4 180.32 293.74 182.99 294.96 188.04 292.01 188.55 288.12 187.92 284.48 186.32 282.69 185.34 282.41 186.39 277.65 185.84 275.51 189.16 274.57 188.65 271.33 191.37 271.26 192.86 268.66 196.21 268.73 199.39 271.59 202.54 271.63 203.73 274.68 205.05 274.56 205.95 270.79 205.07 267.33 206.13 266.19 208.39 264.85 212.42 266.29 214.33 265.87 215.89 264.03 217.39 264.1 219.95 262.29 220.92 260.14 220.85 257.93 219.77 255.49 220.26 253.74 222.75 252.94 223.73 250.81 225.8 249.88 227.72 249.58 230.06 250.07 227.96 253.04 229.15 254.24 229.5 256.9 231.78 254.76 233.46 255.18 235.38 254.65 234.68 250.04 236.09 245.95 238.2 243.22 242.48 241.26 251.34 238.34 262.33 236.33 268.62 235.54 273.31 234.5 281.42 234.25 283.21 233.87 286.64 232.48 287.68 230.84 292.27 225.86 293.07 223.69 298.62 214.91 295.4 212.51 295.79 209.93 298.65 212.2 299.3 214.91 298.42 219.77 300.97 216.3 304.07 210.67 306.42 210 308.04 208.86 307.82 206.08 308.98 205.64 310.09 205.66 315.46 208.4 318.19 210.69 320.41 215.09 321.87 224.63 319.86 224.63 319.33 225.36 Z" id="33530110"/>
<path d="M 385 310.72 387.85 311.52 390.42 313.13 398.72 315.68 400.91 315.86 402.74 316.61 403.87 317.75 404.75 320.31 405.17 324.3 407.02 329.09 407.09 337.87 405.17 342.11 402.36 345.1 397.58 346.39 394.18 346.53 388.58 345.54 383.19 342.79 381.64 341.49 375.88 337.88 372.2 334.29 365.38 329.09 358.81 329.09 356.01 331.54 353.99 334.05 352.17 337.88 351.32 343.37 351.17 346.66 351.95 350.71 354.15 359.18 356.45 364.23 359.05 368.44 361.21 370.17 367.95 372.2 378 372.45 379.78 373.17 383.19 373.29 390.75 374.18 394.18 374.87 397.92 374.64 401.9 373.93 404.96 374.29 413.11 379.46 416.15 381.21 417.61 383.9 418.81 387.24 419.62 392.34 419.61 396.7 418.86 399.36 418.62 402.97 416.23 403.62 410.79 407 409.45 407.43 409.47 409.42 408.75 410.15 409.85 411.7 414.35 413 417.03 411.96 420.84 411.23 421.53 412.47 423.59 413.67 425.59 416.78 431 416.68 433.23 415.54 434.91 416.25 438.34 421.46 438.67 423.02 438.49 426.19 439.41 429.95 441.6 429.74 442.85 430.76 446.01 431.14 447.01 434.57 447.24 436.97 450.04 439.95 451.22 442.62 450.85 444.08 449.42 443.53 445.13 444.04 442.85 443.67 436.47 445.14 432.59 448.64 430.84 451.14 427.02 449.81 422.32 446.15 421.9 445.11 419.57 443.9 412.96 444.6 411.58 444.1 409.72 445.68 407.13 446.93 406.66 448.42 402.49 447.79 400.38 446.62 398.66 446.61 396.53 447.55 392.55 451.49 387.65 449.71 384.59 447.61 382.79 448.1 381.25 449.93 378.23 449.92 376.88 451.41 375.42 451.26 374.25 449.6 373.14 449.81 371.57 448.16 369.13 448.27 369.24 446.05 367.04 444.22 363.99 442.51 362.25 439.38 359.21 438.49 357.72 437.48 356.48 437.58 354.75 436.51 350.6 435.28 349.75 433.92 341.76 435.63 340.84 436.8 340.3 439.67 338.9 441.63 336.01 439.42 334.4 439.24 331.24 440.02 329.01 442.99 322.12 444.96 319.86 446.43 313.43 447.72 310.05 448.76 307.76 450.15 306.48 450.29 305.24 451.66 303.55 451.69 299.39 453.28 297.44 450.98 292.63 446.13 286.72 450.54 284.36 447.75 280.74 445.67 277.33 445.21 276.37 444.39 273.77 444.77 270.19 446.5 267.15 445.11 263.1 444.86 262.67 445.4 258.99 445.5 257.17 447.5 254.35 447.52 253.31 448.89 250.12 449.63 248.87 450.93 246.6 450.28 243.89 450.58 241.55 452.41 238.28 452.41 235.83 454.44 233.14 454.52 229.4 455.49 227.21 454.28 224.56 454.19 223.69 455.04 222.4 455.11 221.21 452.96 215.49 449.3 215.4 447.99 212.6 440.82 212.94 438.96 210.89 435.17 211.94 433.47 212.11 431.8 211.33 428.92 213.48 426.86 212.91 424.87 213.44 423.48 213.13 420.08 214.22 417.57 215.45 416.14 217.99 414.85 219.08 412.4 222.56 408.68 223.85 408.42 225.56 406.65 228.51 405.34 229.41 405.51 231.43 403.35 230.99 401.09 231.38 398.41 231.05 395.86 232.73 393.54 231.81 390.58 233.41 386.96 234.38 385.94 235.09 383.3 234.57 380.01 234.81 378.86 236.24 377.13 241.59 376.48 243.86 375.47 247.87 371.7 249.44 371.24 252.49 372.06 254.36 373.97 256.79 370.57 256.94 369.04 256.22 367.39 254 367.28 253.31 365.4 250.85 364.27 250.32 362.9 251.02 361.77 249.99 359.38 246.74 359.03 245.25 360.57 237.74 360.57 237.35 361.69 237.54 364.69 236.02 364.39 233.71 362.43 232.8 360.53 230.79 359.8 228.92 357.98 229.2 355.5 228.07 351.82 224.43 351.32 223.13 349.57 225.17 345.46 223.75 343.49 224.26 340.26 224.58 335.95 224.31 334.55 226.2 332.54 222.65 330.05 222.29 327.78 220.19 326.73 218.31 327.11 216.67 326.41 214.62 326.65 214.59 323.84 216.67 321.4 218.59 320.93 219.73 319.79 222.7 318.36 225 318.3 226.58 317.64 229.38 318.33 231.47 317.52 233.85 318.27 235.36 320.2 237.2 320.16 238.44 321.61 238.59 323.3 240.17 324.53 241.99 322.98 243.61 323.15 245.75 321.94 246.88 319.49 248.54 319.62 250.47 319.04 252.18 319.42 252.35 317.6 254.48 317.45 257.37 315.12 257.79 314.34 255.32 312.12 253.64 310.13 248.85 314.05 245.76 310.65 244.43 307.42 244.32 305.42 242.99 303.95 242.23 301.02 243.02 298.11 241.85 296.25 242.34 294.96 242.15 292.34 241.44 290.18 239.03 287.81 237.77 286.09 240.33 284.75 242.7 282.94 242.28 281.73 243.65 280.96 245.44 285.18 251.34 291.55 255.85 292 258.22 291.88 261.43 290.73 267.37 285.2 278.35 276.39 289.01 266.51 292.76 261.36 295.29 256.55 299.8 250.04 304.93 231.79 306.28 229.65 310.63 225.45 313.77 224.58 317.13 224.15 319.33 225.36 321.28 226.74 323 228.56 324.1 230.91 323.88 234.13 322.61 239.35 321.55 241.26 317.06 250.53 316.49 257.79 315.67 260.98 315.7 264.15 316.46 267.7 317.21 269.27 322.77 271.65 326.02 272.47 328.25 272.57 331.46 273.78 336.35 273.85 339.24 273.42 341.94 272.11 344.37 269.97 344.7 267.61 347.24 263.98 347.22 257.8 347 252.31 346.21 245.08 350.23 241.99 352.6 242.59 354.52 244.02 353.27 248.25 353.06 250.15 353.81 254.68 353.47 258.67 353.69 261.7 353.67 267.44 354.56 276.31 357.95 285.17 361.2 290.18 364.89 293.96 367.24 298.99 370.61 301.97 372.15 302.72 380.27 309.2 383.17 309.53 385 310.72 Z" id="33530310"/>
<path d="M 437.63 158.71 437.84 160.7 436.74 162.35 436.76 164.55 435.26 167.34 434.6 167.45 432.79 171.95 431.81 173.48 433.34 176.86 434.34 179.85 436.75 182.41 438.87 183.88 438.2 186.06 441.51 191.41 442.06 193.73 443.47 196.49 444.28 199.41 445.33 200.63 445.84 202.99 447.32 204.07 447.41 207.54 448.16 208.66 447.17 210.55 445.66 211.57 444.34 213.95 440.87 215.74 440.12 216.46 440.4 219.33 439.13 221.96 439.14 223.26 440.89 225.56 442.17 228.68 441.7 232.94 439.45 233.27 436.04 234.75 434.26 234.78 433.11 235.66 427.54 238.32 424.39 240.23 423.73 243.56 424.2 247.48 423.65 248.98 423.38 252.5 421.69 255.37 421.06 257.32 422.19 260.53 424.22 263.29 427.51 265.28 427.06 267.75 427.41 270.58 428.88 274.41 427.92 276.24 426.12 278.04 425.59 279.62 425.92 281.69 424.23 285.12 423.72 288.26 422.66 292.39 422.96 294.54 424.5 296.81 423.76 299.93 422.87 301.52 419.61 301.69 418.5 304.05 414.39 309.48 412.9 310.9 409.88 310.32 407.47 309.32 406.66 309.84 401.24 307.82 399.71 307.65 398.58 304.9 396.35 305.25 394.53 304.38 392.96 305.63 392.2 307.43 392.28 309.46 390.86 309.86 389.62 309.37 388.24 310.51 385.84 309.13 385 310.72 383.17 309.53 380.27 309.2 372.15 302.72 370.61 301.97 367.24 298.99 364.89 293.96 361.2 290.18 357.95 285.17 354.56 276.31 353.67 267.44 353.69 261.7 353.47 258.67 353.81 254.68 353.06 250.15 353.27 248.25 354.52 244.02 352.6 242.59 350.23 241.99 346.21 245.08 347 252.31 347.22 257.8 347.24 263.98 344.7 267.61 344.37 269.97 341.94 272.11 339.24 273.42 336.35 273.85 331.46 273.78 328.25 272.57 326.02 272.47 322.77 271.65 317.21 269.27 316.46 267.7 315.7 264.15 315.67 260.98 316.49 257.79 317.06 250.53 321.55 241.26 322.61 239.35 323.88 234.13 324.1 230.91 323 228.56 321.28 226.74 319.33 225.36 319.86 224.63 321.87 224.63 320.41 215.09 318.19 210.69 315.46 208.4 310.09 205.66 308.98 205.64 309.65 203.71 311.32 202.43 313.21 199.49 315.27 197.94 318.21 199.13 322.59 199.24 326.16 197.54 329.54 197.39 331.55 197.65 333.38 196.27 335.1 196.53 337.24 198.52 338.66 198.48 342.01 197.1 343.6 197.82 345.17 197.7 350.47 195.67 353.65 197.44 356.38 195.25 358.99 195.05 360.57 193.68 360.07 191.89 360.01 185.55 358.69 184.12 358.66 182.97 356.33 180.05 356.73 178.76 355.83 177.53 354.94 174.09 351.76 173.72 350.04 172.18 347.38 171.78 347.57 169.26 347.03 166.53 347.26 162.36 348.14 160.65 348.05 159.15 350.54 152.21 351.92 150.8 352.21 148.25 354.88 147.6 356.51 145.11 358.17 145.73 359.73 143.7 361.57 140.02 362.91 139.85 365.49 140.98 368.38 140.97 370.02 143.58 371.03 143.48 374.6 140.55 379.05 137.92 381.68 136.72 384.07 136.73 391.33 134.28 394.17 134.52 395.27 135.86 396.85 135.48 400.46 135.54 402.48 133.89 408.15 139.23 412.44 139.23 414.87 140.69 416.56 140.17 421.79 142.65 422.7 143.49 424.49 143.72 427.64 150.37 431.55 154.04 434.33 156.97 437.63 158.71 Z" id="33530320"/>
<path d="M 428.99 74.37 429.53 75.54 431.52 77.56 435.39 77.13 438.72 77.47 440.67 76.88 441.38 77.64 440.68 78.98 441.01 80.25 439.02 84.32 438.45 84.85 437.27 88.12 437.54 89.63 436.85 91.71 437.12 94.58 439.79 96.79 440.8 98.74 441.69 99.08 442.67 101.78 445.88 103.87 448.53 104.68 449.55 106.25 449.44 108.81 451.94 110.71 452.85 110.87 454.5 112.68 454.34 114.32 455.61 116.86 457.44 119.36 462.04 122.57 464.58 125.01 465.68 124.8 469.83 126.14 471.89 125.24 473.17 126.91 474.65 127.26 474.27 128.74 475.79 131 476.25 132.71 480.89 134.82 483.24 133.95 481.97 138.2 482.19 139.45 481.61 143.68 479.68 145.79 478.2 150.06 476.81 150.99 474.95 151.14 473.92 154.07 472.32 155.96 470.91 155.73 468.97 156.35 464.58 161.43 460.77 161.84 457.8 161.26 454.35 159.72 451.8 156.26 450.17 156.5 448.18 155.17 442.18 155.34 439.01 156.7 437.63 158.71 434.33 156.97 431.55 154.04 427.64 150.37 424.49 143.72 422.7 143.49 421.79 142.65 416.56 140.17 414.87 140.69 412.44 139.23 408.15 139.23 402.48 133.89 400.46 135.54 396.85 135.48 395.27 135.86 394.17 134.52 391.33 134.28 384.07 136.73 381.68 136.72 379.05 137.92 374.6 140.55 371.03 143.48 370.02 143.58 368.38 140.97 365.49 140.98 362.91 139.85 361.57 140.02 359.73 143.7 358.17 145.73 356.51 145.11 354.88 147.6 352.21 148.25 351.92 150.8 350.54 152.21 348.05 159.15 348.14 160.65 347.26 162.36 347.03 166.53 347.57 169.26 347.38 171.78 350.04 172.18 351.76 173.72 354.94 174.09 355.83 177.53 356.73 178.76 356.33 180.05 358.66 182.97 358.69 184.12 360.01 185.55 360.07 191.89 360.57 193.68 358.99 195.05 356.38 195.25 353.65 197.44 350.47 195.67 345.17 197.7 343.6 197.82 342.01 197.1 338.66 198.48 337.24 198.52 335.1 196.53 333.38 196.27 331.55 197.65 329.54 197.39 326.16 197.54 322.59 199.24 318.21 199.13 315.27 197.94 313.21 199.49 311.32 202.43 309.65 203.71 308.98 205.64 307.82 206.08 308.04 208.86 306.42 210 304.07 210.67 300.97 216.3 298.42 219.77 299.3 214.91 298.65 212.2 295.79 209.93 295.4 212.51 298.62 214.91 293.07 223.69 292.27 225.86 287.68 230.84 286.64 232.48 283.21 233.87 281.42 234.25 273.31 234.5 268.62 235.54 262.33 236.33 251.34 238.34 242.48 241.26 238.2 243.22 236.09 245.95 234.68 250.04 235.38 254.65 233.46 255.18 231.78 254.76 229.5 256.9 229.15 254.24 227.96 253.04 230.06 250.07 227.72 249.58 225.8 249.88 225.86 248.01 227.02 244.76 228.68 243.9 230.04 241.58 231.7 240.6 232.97 237.98 234.14 237.89 235.42 236.43 235.97 233.2 237.49 232.73 239.84 233.45 242.55 232 244.39 228.95 247.08 226.87 247.27 223.47 251.34 221.5 253.5 221.16 255.83 218.2 258.36 214.08 258.64 212.19 260.55 208.86 262.88 206.93 264.4 202.7 265.67 201.33 266.96 201.21 267.09 198.57 268.81 196.06 269.45 191.49 267.88 187.41 268.53 185.72 268.87 180.74 268.13 179.53 268.31 177.21 267.54 175.82 267.14 172.97 264.32 170.15 272.26 163.17 275.17 161.28 281.6 159.47 284.3 159.75 291.53 159.06 291.61 156.23 294.35 156.72 297.4 156.34 298.71 152.05 297.23 150 294.68 148.49 292.72 147.98 290.85 146.85 289.13 144.44 288 143.61 285.95 141.02 283.53 140.31 280.03 140.32 279.1 140.75 275.94 144.12 274.52 145.05 270.93 146.08 264.82 147.14 263.8 148.02 263.07 150.82 256.94 148.35 253.16 149.07 249.91 149.19 245.41 146.9 243.67 144.3 241.85 142.75 236.73 141.31 234 140.16 231.85 140.09 230.38 142.02 229.02 142.66 227.72 142.17 225.52 143.61 224.33 142.09 221.36 142.05 219.64 141.2 217.52 142.05 215.29 142.13 213.83 141.64 213.27 140.54 211.23 138.83 211.67 137.15 207.72 133.43 207.51 132.2 204.48 129.42 202.35 129.91 194.32 134.91 194.43 135.66 192.27 138.03 191.24 138.51 189.41 137 186.96 137.62 185.91 137.07 182.18 137.57 181.99 138.22 179.16 139.25 177.33 137.45 173.19 134.52 169.59 131 168.29 129.27 167.11 125.26 165.83 123.91 164 120.35 164.68 117.35 163.92 114.7 164.32 112.69 163.97 111.31 167.97 107.95 170.95 105.75 172.6 103.71 174.43 102.43 175.78 100.72 181.02 96.26 185.42 91.52 186.58 88.82 187.75 83.92 188.03 78.74 187.27 75.3 189.37 74.09 190.91 69.83 190.54 67.11 192.12 67.57 192.54 69.52 193.85 70.55 195.68 69.89 196.66 72.05 194.45 73.67 194.92 75.08 198.43 74.35 200.87 75.21 199.83 77.68 199.97 80.41 201.26 80.37 202.65 79.08 203.74 80.17 203.48 81.37 204.63 83.15 206.66 83.3 208.68 82.12 210.91 80.19 212.49 80.64 210.73 83.95 211.9 85.05 214.91 84.7 216.58 85.75 217.7 85.59 219.51 83.12 221.46 83.27 221.98 86.82 221.9 89.18 220.77 91.94 221.58 92.97 223.86 93.46 226.13 94.52 227.06 93.95 228.11 89.27 229.36 88.65 232.58 91 232.9 92.48 230.71 93.78 231.9 98.03 231.6 101.23 232.47 102.4 236.25 103.34 243.3 104.48 247.18 103.99 248.73 102.27 250.24 101.5 251.63 99.34 252.42 95.58 254.68 94.1 254.77 91.55 256.19 90.76 256.86 89.33 256.44 88.03 257.65 86.04 257.16 84.32 258.24 82.51 257.56 78.42 258.47 74.93 259.12 74.37 257.91 70.93 257.84 69.42 259.15 68.79 261.7 68.42 263.2 68.5 264.79 66.61 263.97 63.46 263.11 61.86 266.84 58.91 267.81 57.04 269.28 56.61 270.38 57.5 272.21 56.81 273.19 54.55 273.41 51.16 274.89 47.32 276.44 46.33 278.83 41.79 278.72 39.81 277.86 37.25 279.6 32.02 279.07 29.55 281.1 24.76 282.25 23.29 282.02 22.35 284.7 19.48 284.99 14.6 285.53 13.59 287.24 16.19 289.5 18.47 292.18 19.12 294.91 21.55 297.5 24.6 300.67 23.64 301.49 21.6 301.04 20.05 302.08 18.44 301.88 15.45 302.35 13.24 304.41 9.64 304.78 7.7 305.92 5.86 307.9 5.1 309.41 1.55 311.4 1 315.74 2.11 316.5 3.15 317.13 6.33 318.71 8.07 321.97 6.16 323.7 6.06 323.72 8.34 324.63 10.18 326.15 11.45 326.56 12.98 327.6 13.67 329.73 17.02 331.3 16.75 332.48 18.95 336.97 18.61 337.79 17.57 337.94 15.4 342.84 12.05 344.12 12.29 345.31 10.9 345.22 8.04 346.44 6.3 348.59 6.25 348.57 3.84 350.48 1.62 352.92 1.42 353.42 2.09 358.5 4.62 360.64 8.37 362.17 9.77 366.95 12.34 367.26 13.1 370.42 15.52 372.76 17.67 373.46 20.2 375.93 20.57 378.35 21.7 380.63 21.87 382.02 23.11 381.88 25.91 380.62 28.05 381.18 29.72 380.81 32.49 381.77 33.17 381.88 37.2 380.18 38.53 378.69 42.19 378.88 43.71 378.14 45.08 378.8 46.23 378.3 47.83 378.66 50.96 380.7 53.24 381.36 57.1 382.45 60.89 381.47 62.33 383.92 65.67 385.75 66.99 388.93 68.35 390.52 67.16 393.48 65.95 397.1 67.23 399.5 67.71 400.17 68.54 403.39 68.94 405.1 69.82 407.88 69.1 407.83 70.29 410.18 72 414.57 74.72 416.47 74.69 418.01 75.85 421.05 76.88 424.15 76.17 426.37 75.09 428.99 74.37 Z" id="33530330"/>
<path d="M 533.44 132.68 533.34 134.92 534.68 136.93 535.25 139.99 536.44 140.86 537.9 143.53 537.23 146.51 537.12 149.79 538.96 154.26 538.04 156.96 537.87 159.87 536.97 162.65 538.65 163.66 541.61 163.63 548.3 165.04 550.73 163.51 556.08 163.8 557.6 166.21 558.55 166.92 559.49 169.78 562 172.11 563.55 172.4 565.17 174.49 566.27 174.96 568.12 177.85 567.54 178.82 567.77 181.92 567.46 182.97 569.97 185.88 570.66 187.6 572.49 188.28 574.24 189.79 575.4 191.52 576.98 192.84 581.2 193.4 581.98 196.25 581.86 200.18 582.79 208.34 581.73 209.74 578.8 211.34 576.7 211.53 574.25 213.49 570.06 219.45 565.58 222.82 564.07 230.43 562.54 233.22 563.84 241.81 562.27 245.1 560.43 245.08 557.58 246.07 555.22 247.59 553.47 247.42 549.21 249.56 545.37 250.49 547.02 253.24 548.84 256.95 547.88 258.8 547.66 262.59 548.35 265.03 547.65 268.03 548.24 269.59 546.87 271.92 551.06 276.05 550.38 276.93 548.21 281.49 548.63 285.17 550.54 287.34 550.93 288.53 551.56 293.96 550.19 300.7 549.21 302.74 548 307.21 547.72 310.76 545.65 312.83 546.05 313.91 548.54 314.13 551.27 313.49 553.36 311.93 555.2 311.18 557.39 309.59 558.98 309.52 560.86 308.68 561.85 310.6 563.01 311.52 565.18 315.27 567.52 316.43 566.94 318.94 567.42 320.31 570.59 322.7 571.3 323.78 571.88 326.77 573.03 330.14 575.78 332.99 575.38 334.28 576.82 338.81 576.03 341.89 580.15 346.48 581.22 346.67 581.77 349.47 582.52 351.16 582.41 353.58 583.13 354.85 584.57 355.71 584.37 357.5 585.52 359.29 584.48 360.53 584.79 363.74 584.08 365.93 584.8 368.87 586.13 369.66 586.22 371.11 583.73 372.9 583.32 374.4 579.73 375.78 578 377.9 576.15 377.77 573.86 376.24 572.65 372.9 570.74 374.1 569.7 373.28 565.69 375.79 564.77 377.48 563.58 377.78 561.51 376.94 559.92 378.28 559.98 380.45 560.82 382.07 559.7 383.63 560.66 385.29 559.82 388.13 558.33 389.48 556.3 388.03 554.27 388.17 553.02 389.26 552.97 391.08 550.91 391.36 549.78 392.35 550.48 396.16 549.12 397.33 548.76 398.58 546.77 399.81 545.33 401.82 546.04 403.08 544.5 405.47 545.2 406.11 545.41 409.51 544.73 411.62 546.86 412.29 545.01 422.17 542.58 424.98 540.46 425.09 536.95 427.55 533.61 431.6 531.04 430.02 529.88 429.99 526.26 427.53 525.73 426.47 523.9 426.72 521.51 427.87 519.71 426.61 515.73 426.15 514.28 425.71 513.59 424.27 508.45 424.72 504.99 423.8 502.36 421.63 499.1 421.28 497.51 420.07 493.29 419.89 488.97 414.67 485.34 412.17 483.76 411.57 480.81 411.73 477.23 415.29 476.36 415.39 475.11 418.03 472.71 420.61 471.43 420.89 470.54 422.46 468.82 423.58 469.1 425.04 468.21 426.6 467.25 426.69 466.18 428.35 463.22 428.4 460.84 426.83 459.09 428.75 455.4 429.95 452.48 429.97 450.66 430.88 450.77 431.92 449.12 433.08 448.58 434.41 448.9 436.18 447.24 436.97 447.01 434.57 446.01 431.14 442.85 430.76 441.6 429.74 439.41 429.95 438.49 426.19 438.67 423.02 438.34 421.46 434.91 416.25 433.23 415.54 431 416.68 425.59 416.78 423.59 413.67 421.53 412.47 420.84 411.23 417.03 411.96 414.35 413 409.85 411.7 408.75 410.15 409.47 409.42 409.45 407.43 410.79 407 416.23 403.62 418.62 402.97 418.86 399.36 419.61 396.7 419.62 392.34 418.81 387.24 417.61 383.9 416.15 381.21 413.11 379.46 404.96 374.29 401.9 373.93 397.92 374.64 394.18 374.87 390.75 374.18 383.19 373.29 379.78 373.17 378 372.45 367.95 372.2 361.21 370.17 359.05 368.44 356.45 364.23 354.15 359.18 351.95 350.71 351.17 346.66 351.32 343.37 352.17 337.88 353.99 334.05 356.01 331.54 358.81 329.09 365.38 329.09 372.2 334.29 375.88 337.88 381.64 341.49 383.19 342.79 388.58 345.54 394.18 346.53 397.58 346.39 402.36 345.1 405.17 342.11 407.09 337.87 407.02 329.09 405.17 324.3 404.75 320.31 403.87 317.75 402.74 316.61 400.91 315.86 398.72 315.68 390.42 313.13 387.85 311.52 385 310.72 385.84 309.13 388.24 310.51 389.62 309.37 390.86 309.86 392.28 309.46 392.2 307.43 392.96 305.63 394.53 304.38 396.35 305.25 398.58 304.9 399.71 307.65 401.24 307.82 406.66 309.84 407.47 309.32 409.88 310.32 412.9 310.9 414.39 309.48 418.5 304.05 419.61 301.69 422.87 301.52 423.76 299.93 424.5 296.81 422.96 294.54 422.66 292.39 423.72 288.26 424.23 285.12 425.92 281.69 425.59 279.62 426.12 278.04 427.92 276.24 428.88 274.41 427.41 270.58 427.06 267.75 427.51 265.28 424.22 263.29 422.19 260.53 421.06 257.32 421.69 255.37 423.38 252.5 423.65 248.98 424.2 247.48 423.73 243.56 424.39 240.23 427.54 238.32 433.11 235.66 434.26 234.78 436.04 234.75 439.45 233.27 441.7 232.94 442.17 228.68 440.89 225.56 439.14 223.26 439.13 221.96 440.4 219.33 440.12 216.46 440.87 215.74 444.34 213.95 445.66 211.57 447.17 210.55 448.16 208.66 447.41 207.54 447.32 204.07 445.84 202.99 445.33 200.63 444.28 199.41 443.47 196.49 442.06 193.73 441.51 191.41 438.2 186.06 438.87 183.88 436.75 182.41 434.34 179.85 433.34 176.86 431.81 173.48 432.79 171.95 434.6 167.45 435.26 167.34 436.76 164.55 436.74 162.35 437.84 160.7 437.63 158.71 439.01 156.7 442.18 155.34 448.18 155.17 450.17 156.5 451.8 156.26 454.35 159.72 457.8 161.26 460.77 161.84 464.58 161.43 468.97 156.35 470.91 155.73 472.32 155.96 473.92 154.07 474.95 151.14 476.81 150.99 478.2 150.06 479.68 145.79 481.61 143.68 482.19 139.45 481.97 138.2 483.24 133.95 485.35 130.49 486.22 125.86 487.63 123.88 489.41 127.79 491.83 129.93 493.6 129.88 496.86 132.93 498.62 135.8 500.69 135.85 501.68 137.05 505.31 140.03 505.51 141.41 511.12 143.24 513.4 144.45 515.5 144.07 516.01 141.72 518.27 139.9 519.84 140.18 521.65 139.61 522.37 137.79 522.17 136.57 524.22 136.11 527.74 134.12 530.16 131.5 533.44 132.68 Z" id="33530340"/>
<path d="M 776.33 177.26 776.68 177.86 783.79 179.18 784.19 181.05 786.89 183.4 787.52 186.7 787.31 190.38 788.4 191.45 788.23 193.18 789.59 196.26 793.14 198.29 796.94 201.99 799 205.78 798.27 207.59 798.69 209.46 798.23 213.33 795.66 213.99 793.04 215.62 788.03 217.97 787.11 220.37 786.92 223.46 787.4 227.65 787.86 229.04 787.12 231.61 784.36 231.77 782.55 234.98 782.72 237.21 782.24 239.44 779.75 241.54 777.95 240.82 775.79 241.85 774.94 241.01 773.41 241.02 771.31 240.11 769.19 241 768.14 240.36 766.48 241.71 764.55 241.57 761.24 244.06 757.72 245.58 758.8 248.54 758.71 250.55 757.88 251.51 757.07 255.19 755.51 255.85 754.1 257.77 753.23 260.72 751.55 261.38 749.59 261.4 749.3 264.71 746.37 265.48 742.64 263.3 740.89 265.15 741.46 267.65 741.64 271.08 740.05 270.72 738.61 269.64 736.56 270.87 734.59 272.7 731.76 273.98 731.45 275.57 727.32 277.17 725.56 274.71 723.78 273.98 723.61 275.16 722.26 277.78 723.32 279.65 721.95 281.43 722.57 283.25 722.3 285.25 720.75 286.75 720.81 290.35 721.37 293.37 720.14 298.28 720.11 300.12 719.24 302.54 716.88 303.77 716.23 305.71 711.83 307.99 710.17 307.83 709.93 309.83 709.06 311.93 707.16 311.55 705.43 312.2 704.44 313.22 701.29 314.22 699.85 313.92 695.3 317.82 692.58 318.82 689.63 321.1 690.04 323.49 689.17 324.93 687.87 325.07 683.68 324.56 678.84 326.23 676.66 327.69 674.89 327.44 672.34 327.74 670.98 327.2 669.41 327.74 668.57 330.08 667.04 330.66 666.36 332.31 664.6 333.64 665.8 336.67 662.78 338.29 661.52 339.8 660.28 338.53 659 335.33 659.04 333.99 657.61 329.42 657.82 326.05 657.51 324.05 655.76 323.64 654.8 325.04 654.44 327.23 652.94 328.44 651.71 330.33 648.41 332.59 647.16 332.92 646.12 331.28 642.77 331.64 641.05 330.79 638.83 330.94 637.92 329.53 636.84 329.64 636.44 331.13 634.34 333.49 633.64 335.83 630.27 340.49 627.92 341.13 627.05 342.76 623.97 343.69 622.77 343.68 621.18 345.37 620.65 347.94 620.88 349.23 622.99 352.24 623.17 356.22 622.49 358.17 620.88 357.13 619.42 356.91 613.72 358.91 610.9 358.37 609.83 359.55 611.02 361.93 610.64 365.03 610.05 365.64 610.56 367.9 609.79 371.95 610.05 374.9 609.44 375.97 606.33 375.28 603.33 374.2 600.43 375.13 598.81 374.92 596.94 377.73 596.25 380.71 594.35 381.82 590.2 378.85 588.38 376.42 585.58 377.19 584.26 378.81 582.81 378.16 580.16 378.86 578 377.9 579.73 375.78 583.32 374.4 583.73 372.9 586.22 371.11 586.13 369.66 584.8 368.87 584.08 365.93 584.79 363.74 584.48 360.53 585.52 359.29 584.37 357.5 584.57 355.71 583.13 354.85 582.41 353.58 582.52 351.16 581.77 349.47 581.22 346.67 580.15 346.48 576.03 341.89 576.82 338.81 575.38 334.28 575.78 332.99 573.03 330.14 571.88 326.77 571.3 323.78 570.59 322.7 567.42 320.31 566.94 318.94 567.52 316.43 565.18 315.27 563.01 311.52 561.85 310.6 560.86 308.68 558.98 309.52 557.39 309.59 555.2 311.18 553.36 311.93 551.27 313.49 548.54 314.13 546.05 313.91 545.65 312.83 547.72 310.76 548 307.21 549.21 302.74 550.19 300.7 551.56 293.96 550.93 288.53 550.54 287.34 548.63 285.17 548.21 281.49 550.38 276.93 551.06 276.05 546.87 271.92 548.24 269.59 547.65 268.03 548.35 265.03 547.66 262.59 547.88 258.8 548.84 256.95 547.02 253.24 545.37 250.49 549.21 249.56 553.47 247.42 555.22 247.59 557.58 246.07 560.43 245.08 562.27 245.1 563.84 241.81 562.54 233.22 564.07 230.43 565.58 222.82 570.06 219.45 574.25 213.49 576.7 211.53 578.8 211.34 581.73 209.74 582.79 208.34 581.86 200.18 581.98 196.25 581.2 193.4 576.98 192.84 575.4 191.52 574.24 189.79 572.49 188.28 570.66 187.6 569.97 185.88 567.46 182.97 567.77 181.92 567.54 178.82 568.12 177.85 566.27 174.96 565.17 174.49 563.55 172.4 562 172.11 559.49 169.78 558.55 166.92 557.6 166.21 556.08 163.8 550.73 163.51 548.3 165.04 541.61 163.63 538.65 163.66 536.97 162.65 537.87 159.87 538.04 156.96 538.96 154.26 537.12 149.79 537.23 146.51 537.9 143.53 536.44 140.86 535.25 139.99 534.68 136.93 533.34 134.92 533.44 132.68 535.71 132.05 540.17 131.52 544.19 125.58 545.8 127.23 547.31 129.77 549.4 131.02 550.63 134.05 556.33 136.63 557.64 137.81 560.05 139.13 560.85 140.05 565.1 139.69 566.81 140.15 570.79 140.38 573.33 139.83 573.89 138.03 576.62 136.68 578.4 136.99 581.71 136.48 583.57 139.76 585.69 140.82 588.08 140.35 590.04 140.87 591.94 140.39 596.99 138.02 598.72 136.47 599.99 136.03 602.39 138.92 605.92 141.72 606.7 142.66 608.16 146.5 611.78 147.82 613.42 149.18 618.3 148.76 619.76 151.82 624.25 151.56 630.87 152.56 633.87 152.64 634.92 152.12 637 152.56 638.39 151.91 644.73 153.32 647.86 153.38 651.51 153.01 655.15 153.48 656.33 155.3 659.34 156.62 663.56 157.63 664.05 159.72 665.93 160.62 666.74 164.72 669.46 166.46 671.18 166.8 673.8 169.13 675.1 171.86 677.42 171.88 678.76 171.2 681.1 171.95 681.6 177.31 681.08 180.72 682.95 182.56 683.18 183.71 687.16 183.7 689.62 183.29 689.99 180.8 691.15 177.65 692.12 173.64 693.6 173.57 696.42 175.3 699.01 175.73 701.35 177.48 703.94 176.96 705.35 177.56 710.01 176.57 711.87 176.54 712.86 177.48 718.07 176.62 723.71 178.6 724.92 176.71 726.72 175.29 729.88 175.35 730.72 174.18 732.22 173.63 733.87 171.53 736.01 170.72 738.04 171.57 741.13 171.41 743.29 170.66 745.2 172.71 748.73 172.91 749.85 173.53 752.78 173.37 757.72 172.09 760.57 175.75 764.52 178.02 766.67 178.92 768.67 177.11 774.38 177.66 776.33 177.26 Z" id="33530350"/>
<path d="M 427.02 449.81 424.14 454.41 422.44 457.93 422.44 460.3 420.46 466.69 418.83 467.62 417.62 472.21 415.73 474.81 414.37 473.38 412.3 475.2 410.66 478.95 411.14 480.47 410.05 483.05 410.6 485.42 409.77 487.34 410.73 488.98 410.57 490.9 408.78 494.24 408.62 496.76 407.74 498.93 407.43 502.12 406.65 503.52 406.91 504.66 402.55 507.95 399.13 512.45 397.18 512.63 395.11 512.25 395.15 514.39 393.84 517.58 394.16 518.5 392.56 520.46 389.79 522.64 390.51 527.4 389.22 529.14 388.13 529.68 387.95 531.14 386.33 532.36 385.59 535.58 386.71 537.64 383.52 538.3 382.44 537.93 378.44 539.15 372.95 541.81 371.83 542.02 369.93 544.18 368.16 543.65 364.42 541.25 362.02 541.68 361.14 541.11 357.18 540.58 352.75 541.7 351.61 541.35 346.77 536.79 345.2 534.03 342.17 532.97 337.44 527.06 336.04 529.01 335.57 530.81 332.43 534.62 326.7 537.34 326.48 538.89 326.91 541.84 326.26 542.42 325.68 546.38 326.3 547.18 326.04 550.38 327.32 552.29 330.03 555 330.02 560.37 328.63 562.75 328.34 564.39 324.81 569.46 324.08 574.36 324.58 574.75 322.59 581.34 323.62 582.67 324.7 585.32 325.03 589.92 327.18 593.82 327.49 595.16 330.48 598.46 331.13 600.84 334.43 603.09 330.51 605.83 329.83 607.79 329.87 611.43 330.75 612.59 333.77 614.07 333.7 616.92 334.97 618.56 333.71 620.47 334.15 623.12 333.42 625.82 331.24 628.87 330.3 630.69 328.91 631.44 328.8 633.3 326.01 634.5 326.74 636.27 326.44 637.27 327.34 640.22 330.04 642.57 332.48 646.99 333.88 647.87 336.05 653.05 336.16 653.92 334.58 657.45 332.62 658.9 331.19 660.84 330.97 663.57 330.2 666.87 327.7 668.18 325.68 670 323.34 668.16 321.21 668.61 317.49 668.34 314.08 666.51 312.72 663.56 311.2 661.36 308.73 660.16 307.57 660.22 305.31 657.72 304.13 657.53 303.12 655.29 301.73 653.6 300.61 653.5 298.22 651.7 296.65 652.37 295.68 650.44 294.86 650.31 294.41 648.22 295.02 646.89 293.75 645.4 291.47 647.43 287.6 649.32 286.98 650.45 284.65 650.84 283.3 649.65 282.19 651.72 280.9 652.61 277.31 650.63 275.86 646.77 274.53 645.21 270.09 645.31 268.37 643.28 264.13 643.53 262.01 641.8 256.33 639.55 255.54 637.98 253.31 639.06 251.3 639.1 249.34 640.02 246.77 638.45 245.09 636.43 244.76 634.65 243.48 634.04 240.52 634.89 238.6 636.44 237.2 636.31 234.85 634.72 232.51 635.97 230.67 637.44 228.06 636.65 224.51 636.09 222.65 636.14 222.2 635.75 221.26 631.3 219.39 627.38 217.99 625.89 217.58 624.04 216.32 622.72 216.34 621.22 214.1 619.54 213.19 618.28 213.07 616.56 214.41 613.02 212.14 611.2 213.18 609.17 215.52 607.03 215.66 606.22 217.75 601.85 219.87 600.61 221.69 598.64 223.28 595.1 223.48 593.49 225.49 592.83 224.94 591.12 225.95 588.16 225.88 583.66 225.37 581.55 224.6 580.85 223.73 578.56 224.73 575.92 224.41 574.36 221.79 572.83 220.83 571.1 219.48 570.35 221.46 567.67 222.95 563.15 222.14 559.77 222.78 557.65 219.52 554.47 216.08 551.86 212.36 551.05 211.71 547.39 209.06 546.6 208.16 544.38 207.47 539.93 207.82 537.75 204.32 537.27 202.32 537.87 201.13 538.84 200.04 538.36 199.62 536.93 199.49 532.23 198.82 531.21 196.48 525.74 194.05 523.2 191.76 522.4 190.29 523.03 187.39 521.89 186.06 519.59 181.61 520.46 180.74 520.31 176.82 521.6 172.83 519.12 167.72 517.94 166.41 515.12 165.77 511.99 165.95 510.38 164.49 507.69 165.04 506.4 164.05 504.74 162.26 498.2 160.15 495.59 161.27 485.46 163.22 483.54 167.38 485.23 171.11 485.82 173.77 485.22 175.19 482.67 175.6 479.37 176.46 476.23 178.55 473.47 181.72 472.87 183.17 472.17 186.28 471.45 186.82 469.08 188.92 469.11 190.67 469.76 192.91 471.98 196.54 471.45 199.29 474.34 199.54 475.88 202.1 477.45 205.39 477.77 206.19 477.33 206.79 475.29 207.75 474.14 211 473.07 212.72 469.77 212.94 468.42 214.8 464.11 214.62 463.33 218.97 460.98 220.64 459.32 223.32 458.76 223.69 455.04 224.56 454.19 227.21 454.28 229.4 455.49 233.14 454.52 235.83 454.44 238.28 452.41 241.55 452.41 243.89 450.58 246.6 450.28 248.87 450.93 250.12 449.63 253.31 448.89 254.35 447.52 257.17 447.5 258.99 445.5 262.67 445.4 263.1 444.86 267.15 445.11 270.19 446.5 273.77 444.77 276.37 444.39 277.33 445.21 280.74 445.67 284.36 447.75 286.72 450.54 292.63 446.13 297.44 450.98 299.39 453.28 303.55 451.69 305.24 451.66 306.48 450.29 307.76 450.15 310.05 448.76 313.43 447.72 319.86 446.43 322.12 444.96 329.01 442.99 331.24 440.02 334.4 439.24 336.01 439.42 338.9 441.63 340.3 439.67 340.84 436.8 341.76 435.63 349.75 433.92 350.6 435.28 354.75 436.51 356.48 437.58 357.72 437.48 359.21 438.49 362.25 439.38 363.99 442.51 367.04 444.22 369.24 446.05 369.13 448.27 371.57 448.16 373.14 449.81 374.25 449.6 375.42 451.26 376.88 451.41 378.23 449.92 381.25 449.93 382.79 448.1 384.59 447.61 387.65 449.71 392.55 451.49 396.53 447.55 398.66 446.61 400.38 446.62 402.49 447.79 406.66 448.42 407.13 446.93 409.72 445.68 411.58 444.1 412.96 444.6 419.57 443.9 421.9 445.11 422.32 446.15 427.02 449.81 Z" id="33530360"/>
<path d="M 110.06 314.95 111.34 318.18 112.47 318.61 114.73 321.3 117.44 321.96 121.03 322.09 123.9 323.05 125.61 322.53 126.4 324.18 130.77 327.17 131.63 329.06 130.53 330.24 132.52 333.73 131.37 334.29 134.35 337.88 136.41 338.51 141.46 336.03 142.49 338.88 142.21 341.35 141.03 342.77 135.39 347.5 127.84 351.59 124.91 354.32 123.4 356.48 120.52 359.77 121.41 361.91 120.47 365.4 117.54 368.82 115.46 372.92 113.67 375.85 112.64 376.35 111.16 378.66 110.83 381.02 111.36 381.9 110.62 383.94 109.25 385.93 106.61 388.06 106.92 392.48 107.93 394.26 110.09 394.14 112.05 397.23 110.74 400.19 111.12 401.11 113.44 401.45 115.15 403.19 116.69 403.53 118.62 404.75 121.01 407.44 121.59 410.24 123.04 412.74 124.01 413.51 125.06 415.7 126.44 416.06 128.8 417.9 128.31 420.84 129.85 424.42 131.44 430.4 135.25 430.54 137.35 432.75 137.52 436.01 138.04 438.21 138.79 438.82 140.96 444.24 141.54 447.83 140.64 448.9 140.43 451.98 146.22 453.78 147.89 453.07 149.28 453.23 149.6 454.57 151.01 456.08 150.64 457.26 150.99 459.88 152.9 463.64 153.3 465.59 156.24 471.54 156.56 473.34 158.02 475.18 160.71 476.57 162.38 480.37 163.22 483.54 161.27 485.46 160.15 495.59 162.26 498.2 164.05 504.74 165.04 506.4 164.49 507.69 165.95 510.38 165.77 511.99 166.41 515.12 167.72 517.94 165.3 520.2 161.26 521.76 158.74 527.93 157.66 529.64 154.62 532.28 152.79 531.59 152.07 530.01 150.61 529.13 147.93 529.63 144.06 532.65 139.68 533.62 139 534.6 136.41 535.99 133.37 536.8 129.66 536.8 125.8 537.87 120.76 538.31 118.56 537.73 117.85 533.74 118.05 530.64 120 528.51 120.82 525.57 122.02 523.17 124.45 514.75 125.06 511.55 125.2 507.95 127.33 506.22 125.77 503.05 122.09 503.39 119.97 502.24 117.91 500.28 114.57 498.68 112.31 499.03 108.62 498.06 103.68 495.75 102.63 492.74 101.23 490.98 101.14 489.56 99.44 487.32 99.45 486.4 98.03 484.7 99.22 480.5 101.39 476.07 100.26 475.17 97.47 475.84 93.01 476.04 91.85 477.83 88.84 481.38 87.19 481.61 86 482.69 83.5 481.92 81.94 482.32 80.53 485.38 75.84 486.85 75.2 489.66 73.88 490.61 72.02 493.31 70.6 493.33 69.38 494.66 68.55 496.5 65.62 499.4 64.62 501.17 61.53 501.47 59.16 501.2 57.93 499.79 55.83 501.97 54.94 501.16 52.42 501.11 51.8 502.3 49.23 504.63 47.58 505.45 43.18 506.07 41.7 506.91 39.81 506.72 38.67 507.56 34.02 508.04 33.13 508.63 28.7 507.31 23.99 507 18.01 507.3 14.18 507.98 14.3 504.24 15.27 502.92 15.4 500.4 13.53 497.14 14.38 495.53 13.59 492.32 12.48 490.41 9.54 490.83 7.83 488.37 7.5 485.85 6.09 484.65 6.54 481.74 4.2 475.17 6.03 472.37 8.53 469.39 9.64 468.84 8.19 466.35 7.88 464.17 8.82 460.78 8.34 459.19 6.74 458.3 4.31 458.75 3.41 457.33 1.55 456.23 1.14 454.99 1.81 452.76 1 451.28 1.46 449.82 2.65 449.02 3.15 446.45 3.79 446.11 4.21 441.37 5.43 436.72 8.47 435.4 9.22 433.89 7.44 428.45 6.2 423.33 7.78 421.64 10.55 419.74 11.18 418.4 13.81 416.56 14.51 414.51 19.16 409.62 21.97 407.36 22.98 404.62 25.39 402.25 25.64 399.14 26.28 397.95 23.9 394.03 23.52 389.54 19.87 386.51 19.13 382.25 19.44 380.85 18.57 380.11 16.47 375.17 13.88 370.17 13.68 368.98 12.01 366.17 10.73 365.12 11.15 363.06 11.51 358.51 13.08 356.92 16.51 354.24 17.77 354.86 20.21 358.19 20.52 355.43 22.52 352.91 23.53 347.86 23.73 345.37 25.03 344.7 25.97 342.9 26.23 343.23 30 342.49 30.6 341.42 34.5 338.6 36.77 336.56 38.46 336.5 41.15 333.93 44.43 329.73 47.21 327.38 51.98 326.17 53.35 324.49 55.42 323.56 57.95 323.26 64.65 320.54 67.78 318.13 68.77 317.91 71.77 315.57 74.54 314.19 77.52 314.17 81.84 316.97 87.21 315.99 88.95 317.85 91.29 316.45 92.71 313.82 94.41 314.34 98.16 314.8 103.86 313.03 106.63 313.16 110.06 314.95 Z" id="33530370"/>
<path d="M 225.8 249.88 223.73 250.81 222.75 252.94 220.26 253.74 219.77 255.49 220.85 257.93 220.92 260.14 219.95 262.29 217.39 264.1 215.89 264.03 214.33 265.87 212.42 266.29 208.39 264.85 206.13 266.19 205.07 267.33 205.95 270.79 205.05 274.56 203.73 274.68 202.54 271.63 199.39 271.59 196.21 268.73 192.86 268.66 191.37 271.26 188.65 271.33 189.16 274.57 185.84 275.51 186.39 277.65 185.34 282.41 186.32 282.69 187.92 284.48 188.55 288.12 188.04 292.01 182.99 294.96 180.32 293.74 179.04 294.4 175.54 294.69 173.54 298.13 172.34 299.17 168.01 296.44 166.84 296.91 164.6 296.61 164.44 297.97 159.96 298.99 158.99 300.67 157.43 300.88 155.44 302.73 153.97 300.08 154.8 298.05 153.93 294.83 150.72 291.25 150.19 289.64 147.09 287.67 146.84 284.9 147.16 283.19 144.92 280.56 144.2 278.84 142.35 276.94 139.76 276.28 141.57 280.06 141.1 282.03 140.04 283.96 137.09 285.3 135.59 286.51 133.18 291.9 130.48 297.42 121.8 301.63 120.12 302.73 116.95 306.5 117.04 308.16 114.59 310.11 113.33 310.1 111.68 311.47 110.62 314.66 110.06 314.95 106.63 313.16 103.86 313.03 98.16 314.8 94.41 314.34 92.71 313.82 91.29 316.45 88.95 317.85 87.21 315.99 81.84 316.97 77.52 314.17 74.54 314.19 71.77 315.57 68.77 317.91 67.78 318.13 64.65 320.54 57.95 323.26 55.42 323.56 53.35 324.49 51.98 326.17 47.21 327.38 44.43 329.73 41.15 333.93 38.46 336.5 36.77 336.56 34.5 338.6 30.6 341.42 30 342.49 26.23 343.23 25.97 342.9 25.56 340.26 24.5 339.23 24.4 337.43 22.22 336.03 20.83 333.32 20.38 330.85 18.23 328.29 16.26 327.28 16.86 326.13 19.6 325.18 20.31 323.52 21.8 321.67 21.82 320.6 23.3 318.54 23.57 316.75 21.93 313.01 21.64 309.36 19.87 308.31 27.75 306.11 29.64 301.69 30.79 301.06 33.58 294.27 33.37 292.4 31.7 289.68 32.05 288.92 30.94 286.09 31.03 283.15 30.47 281.83 31.06 279.23 29.46 276.48 30.18 273.71 29.75 271.82 30.7 268.43 28.66 264.68 28.67 260.96 30.2 259.06 31.85 258.27 37.18 256.78 36.48 254.15 40.39 253.13 40.83 252.33 43.44 251.27 43.17 247.35 42.13 246.04 42.2 243.85 45.53 242.63 47.8 243 48.36 243.84 51.09 244.22 52.42 241.53 53.72 240.57 55.65 240.75 56.84 240.13 58.57 237.94 61.55 239.54 62.22 239.22 61.2 236.99 62.38 235.35 64.3 234.09 65.63 233.82 67.74 231.19 70.01 225.53 71.55 224.11 72.9 219.18 70.73 215.45 72.31 213.87 72.71 211.45 74.01 210.16 73.81 209.28 75.53 206.64 75.15 205.16 75.33 202.83 76.27 201.41 75.41 196.6 74.74 195.86 76.18 194.43 76.46 192.19 78.45 190.72 78.7 188.37 79.59 185.71 78.25 182.85 78.37 179.61 78.1 176.17 76.39 173.84 76.16 170.14 77.89 167.5 77.56 164.81 78.12 164.03 76.97 162.23 77.12 160.38 76.29 158.04 76.49 156.31 75.91 152.26 77.4 148.79 75.44 145.79 76.12 143.23 77.57 143.67 79.8 142.84 82.76 139.48 84.9 138.67 84.22 136.87 86.26 134.53 87.58 133.92 89.55 134.85 92.8 132.8 93.76 128.24 96.43 125.98 100.65 124.96 104.03 119.47 105.34 118.12 106.1 119.63 108.11 119.45 111.83 119.87 112.83 122.08 114.89 121.93 117.74 121.04 119.25 121.26 122.6 119.76 125.46 120.14 127.56 124.17 128.11 124.63 130.63 124.08 132.7 124.75 133.51 129.98 134.93 129.98 135.51 127.13 137.18 124.37 141.46 120.78 141.47 123.97 143.26 122.6 152.45 118.05 156.14 117.62 159.12 115.08 161.46 113.84 163.97 111.31 164.32 112.69 163.92 114.7 164.68 117.35 164 120.35 165.83 123.91 167.11 125.26 168.29 129.27 169.59 131 173.19 134.52 177.33 137.45 179.16 139.25 181.99 138.22 182.18 137.57 185.91 137.07 186.96 137.62 189.41 137 191.24 138.51 192.27 138.03 194.43 135.66 194.32 134.91 202.35 129.91 204.48 129.42 207.51 132.2 207.72 133.43 211.67 137.15 211.23 138.83 213.27 140.54 213.83 141.64 215.29 142.13 217.52 142.05 219.64 141.2 221.36 142.05 224.33 142.09 225.52 143.61 227.72 142.17 229.02 142.66 230.38 142.02 231.85 140.09 234 140.16 236.73 141.31 241.85 142.75 243.67 144.3 245.41 146.9 249.91 149.19 253.16 149.07 256.94 148.35 263.07 150.82 263.8 148.02 264.82 147.14 270.93 146.08 274.52 145.05 275.94 144.12 279.1 140.75 280.03 140.32 283.53 140.31 285.95 141.02 288 143.61 289.13 144.44 290.85 146.85 292.72 147.98 294.68 148.49 297.23 150 298.71 152.05 297.4 156.34 294.35 156.72 291.61 156.23 291.53 159.06 284.3 159.75 281.6 159.47 275.17 161.28 272.26 163.17 264.32 170.15 267.14 172.97 267.54 175.82 268.31 177.21 268.13 179.53 268.87 180.74 268.53 185.72 267.88 187.41 269.45 191.49 268.81 196.06 267.09 198.57 266.96 201.21 265.67 201.33 264.4 202.7 262.88 206.93 260.55 208.86 258.64 212.19 258.36 214.08 255.83 218.2 253.5 221.16 251.34 221.5 247.27 223.47 247.08 226.87 244.39 228.95 242.55 232 239.84 233.45 237.49 232.73 235.97 233.2 235.42 236.43 234.14 237.89 232.97 237.98 231.7 240.6 230.04 241.58 228.68 243.9 227.02 244.76 225.86 248.01 225.8 249.88 Z" id="33530380"/>
</g>
</svg>