<?xml version="1.0"?>
<svg xmlns="http://www.w3.org/2000/svg" version="1.2" baseProfile="tiny" width="800" height="643" viewBox="0 0 800 643" stroke-linecap="round" stroke-linejoin="round">
<g id="dong">
<path d="M 430.62 191.84 431.13 193.98 432.02 195.15 432.61 197.65 438.28 204.52 438.74 204.58 439.29 207.47 439.9 208.65 438.3 211.7 440.15 213.8 441.1 215.49 442.51 216.64 442.98 218.93 442.14 220.68 442.97 222.54 442.81 225.18 443.78 227.49 445.08 228.49 445.75 230.08 445.48 231.54 445.81 233.33 445.84 236.35 446.84 241.3 446.78 242.53 450.03 241.44 453.65 242.5 456.54 245.12 455.34 248.78 455.43 251.75 457.15 255.38 456.11 257.52 456.72 259.02 459.05 259.85 460.11 260.74 460.18 261.98 461.09 263.09 463.17 263.27 464.91 264.95 466.67 264.95 468.24 265.79 468.84 267.14 468.99 270.3 470.39 270.94 472.32 272.41 473.91 274.08 475.35 273.97 476.95 272.3 479.31 274.08 482.82 274.69 485.51 276.7 486.79 275.96 488.8 277.35 489.15 278.29 490.75 278.82 491.58 280.3 491.74 281.63 495.47 285.58 495.82 287.53 494.91 289.73 495.43 290.83 495.6 293.77 495.4 296.06 498.42 300.47 498.98 301.78 498.91 303.66 499.47 305.55 499.67 309.13 501 310.96 500.41 313.23 500.76 319.83 498.5 320.64 496.21 323.6 492.31 323.78 490.07 325.82 488.59 327.77 486.5 327.95 485.45 330.57 483.17 332.7 483.44 335.23 483.21 336.4 481.79 338.1 481.68 339.1 485.12 341.65 484.62 344.55 483.63 348.56 483.89 350.87 485.01 352.13 484.52 356.09 483.62 358.62 483.47 360.27 482.28 360.98 479.94 359.51 477.59 359.28 474.1 357.88 471.84 357.97 468.78 360.62 466.71 361.74 465.65 363.32 463.33 364.43 460.61 363.68 458.28 366.01 457.47 367.54 455.68 369.43 453.14 369.54 451.15 367.72 450.65 368.44 447.72 369.87 446.1 372.57 445.69 374.77 444.62 375.55 443.38 381.36 442.26 383.75 442.28 384.86 440.47 385.69 437 390.27 434.49 392.65 434.04 393.85 432.58 395.79 429.56 397.3 429.54 399.71 428.63 402.58 428.77 405.63 427.81 408.24 427.9 412.7 424.95 414.27 424.31 416.96 421.03 420.12 421.03 420.84 422.52 422.3 422.98 424.74 422.79 426.49 423.21 427.9 422.48 428.82 421.78 431.99 423.3 434.13 422.8 435.52 421.21 437 419.29 441.73 417.53 444.66 417.26 448.96 415.99 449.51 414.74 450.75 412.5 452.21 412.12 454.58 412.42 456.48 410.73 458.13 408.84 459.36 406.18 459.97 402.1 459.37 399.89 460.61 399.22 460.17 400.17 457.15 400.42 453 399.46 450.86 400.25 448.47 399.4 446.59 399.22 443.41 398.38 442.71 397.38 440.01 397.87 437.7 396.97 436.19 397.6 434.18 397.13 433.15 397.85 431.25 396.75 429.38 396.78 426.59 394.64 424.82 394.14 423.71 392.14 421.52 392.02 420.87 388.43 418.23 387.5 414.67 386.47 412.33 385.84 408.64 387.12 406.34 386.32 403.91 386.73 403.25 386.97 399.14 387.74 397.51 387.14 396.18 388.26 395.41 388.2 391.17 387.37 390.14 386.71 387.34 385.15 386.61 383.53 384.94 381.64 385.05 379.7 380.77 377.27 379.75 376.31 378.56 372.96 378.22 369.36 378.77 367.71 378.06 366.21 376.24 364.93 375.58 362.89 375.78 361.67 374.99 360.4 371.75 360.4 370.63 357.68 367.93 356.61 368.34 352.84 367.03 348.8 364.03 346.53 360.28 345.61 360.3 342.26 359.28 340.09 357.73 339.36 357.72 338.18 356.14 337.84 354.88 335.97 352.74 333.99 352.78 331.02 352.04 329.73 355.74 328.64 356.25 328.03 354.57 327.21 349.39 323.21 344.54 323.37 343.09 322.48 341.05 321.06 336.43 320.81 333.95 320.27 332.98 318.57 333.01 318.32 331.78 316.78 329.48 317.35 328.36 316.36 325.89 313.63 324.85 312.43 323.05 309.18 322.52 308.32 323.03 304.51 322.03 301.21 324.25 299.8 324.02 298.66 324.79 295.9 325.17 293.49 324.53 291.67 325.27 290.19 326.53 287.18 326.94 284.42 328.72 280.72 325.28 277.29 321.4 274.68 322.91 272.52 322.03 270.02 322.92 268.91 321.88 267.46 321.93 266.42 321.27 264.91 321.92 262.35 321.35 260.9 321.41 260.41 320.07 259.22 319.14 256.1 318.7 253.5 318.61 252.2 317.23 250.42 316.3 249 314.45 247.81 310.56 247.8 308.98 246.52 305.9 245.42 304.89 244.92 302.18 245.6 301.19 247.25 300.05 247.91 297.33 249.26 295.89 249.09 295.27 249.84 289.34 251.51 287.7 251.64 285.27 251.09 283.9 250.95 280.38 250.37 276.7 249.35 273.43 249.78 272.88 250.44 269.43 251.79 268.42 251.47 266.51 253.2 264.96 254.02 263.18 254.25 259.34 253.02 258.62 251.53 254.3 251.21 252.53 251.91 251.47 253.41 250.61 255.11 250.67 255.51 249.39 258.56 248.91 258.18 247.1 257.49 240.8 257.91 238.42 262.83 238.03 265.42 237.6 267.51 237.58 267.47 234.37 269.49 232.12 273.37 232.77 276.24 229.49 276.83 226.97 278.77 226.81 280.67 224.98 279.74 221.38 282.52 218.9 283.06 215.81 281.82 213.42 278.13 211.47 277.46 209.24 278.19 205.97 277.5 202.18 277.78 200.28 277.49 198.4 277.97 197.42 282.38 196.06 282.96 195.26 284.56 195.9 287.04 197.76 289.24 200.91 290.48 202.15 293.69 201.79 293.33 199.72 294.91 198.52 295.71 195.56 296.8 194.87 299.03 196.55 299.62 198.91 301.38 198.82 305.51 201.38 308.46 200.96 309.66 201.32 313.05 200.91 314.31 198.06 318.1 198.97 320.24 198.13 322.87 199.16 322.9 200.49 324.16 200.77 327.12 202.5 328.2 201.59 329.51 201.63 330.94 202.53 334.34 203.08 334.55 203.66 339.03 201.72 340.35 202.72 342.81 202.49 345.77 199.99 347.06 199.76 348.29 201.77 350.41 202.95 351.77 204.67 351.33 206.15 351.55 208.1 352.84 209.98 353.51 213.59 352.71 214.81 351.72 220.15 349.49 223.56 350.94 226.07 351.03 227.25 348.83 230.61 348.15 232.95 350.28 234.67 351.4 234.95 351.67 236.32 352.63 238.02 360.03 237.36 361.35 235 360.8 232.74 360.79 230.66 361.36 228.43 363.45 227.45 363.72 225.71 364.94 224.49 365.2 223.28 366.69 221.97 366.98 220.25 370.11 215.64 373.54 215.4 374.49 214.46 374.98 212.21 376.05 211.85 376.23 208.34 374.92 205.3 373.09 204.53 372.47 203.36 372.32 201.03 373.55 199.4 374.01 196.76 376.79 195.32 377.72 193.35 377.83 192.17 379.78 189.47 380.94 188.4 378.66 186.29 377.32 184.24 378.14 182.51 377.28 180.39 377.76 178.87 377.76 176.64 379.26 176.17 380.89 172.74 380.85 169.71 381.83 168.61 381.9 166.64 383.56 168.61 386.65 170.89 389.79 171.68 396.13 175.27 397.87 178.21 400.89 181.31 401.87 184.14 402.18 186.06 405.12 186.53 405.37 187.49 407.51 187.87 407.64 189.02 408.84 190.32 409.81 192.56 410.95 192.27 412.6 190.75 413.94 188.78 415.53 189 417.67 191.87 421.17 192.16 422.19 191.82 424.87 191.98 426.4 192.5 430.62 191.84 Z" id="33540110"/>
<path d="M 433.93 1.33 432.34 4.27 433.11 6.83 433.06 7.82 429.97 10.55 427.73 14.91 427.92 18.68 429.79 20.41 430.87 23 432.9 24.5 434.1 26.67 433.99 29.16 437.06 34.26 437.2 36.46 436.53 38.09 436.45 40.49 435.34 42.61 435.36 45.17 435 46.75 436.12 51.68 437.11 54 441.23 59.38 441.2 61.03 441.79 64.29 441.7 65.99 443.18 70.5 443.16 73.43 441.94 75.37 444.13 81.12 444.32 82.11 443.85 84.3 445.25 87.37 444.58 89.49 446.51 90.6 446.78 92.99 446.28 94.38 444.75 95.78 443.99 97.44 444.21 104.43 445.96 106.56 446.83 108.71 447.89 109.26 448.08 113.72 447.01 116.66 445.95 118.63 443.88 119.26 442.34 118.29 439.95 117.92 439.53 119.86 439.93 120.99 438.52 122.84 442.41 127.37 441.61 129.94 443.44 131.31 445.08 131.36 442.77 134.11 439.65 139.75 436 144.95 434 145.35 431.7 148.87 429.68 153.27 428.45 158.77 426.75 160.37 425.38 162.76 422.39 166.99 421.78 170.09 424.49 172.04 425.38 173.68 428.27 175.9 429.72 175.75 431.71 177.06 436.7 177.81 436.88 178.95 436.2 180.98 434.93 181.54 431.7 185.18 430.62 191.84 426.4 192.5 424.87 191.98 422.19 191.82 421.17 192.16 417.67 191.87 415.53 189 413.94 188.78 412.6 190.75 410.95 192.27 409.81 192.56 408.84 190.32 407.64 189.02 407.51 187.87 405.37 187.49 405.12 186.53 402.18 186.06 401.87 184.14 400.89 181.31 397.87 178.21 396.13 175.27 389.79 171.68 386.65 170.89 383.56 168.61 381.9 166.64 381.83 168.61 380.85 169.71 380.89 172.74 379.26 176.17 377.76 176.64 377.76 178.87 377.28 180.39 378.14 182.51 377.32 184.24 378.66 186.29 380.94 188.4 379.78 189.47 377.83 192.17 377.72 193.35 376.79 195.32 374.01 196.76 373.55 199.4 372.32 201.03 372.47 203.36 373.09 204.53 374.92 205.3 376.23 208.34 376.05 211.85 374.98 212.21 374.49 214.46 373.54 215.4 370.11 215.64 366.98 220.25 366.69 221.97 365.2 223.28 364.94 224.49 363.72 225.71 363.45 227.45 361.36 228.43 360.79 230.66 360.8 232.74 361.35 235 360.03 237.36 352.63 238.02 351.67 236.32 351.4 234.95 350.28 234.67 348.15 232.95 348.83 230.61 351.03 227.25 350.94 226.07 349.49 223.56 351.72 220.15 352.71 214.81 353.51 213.59 352.84 209.98 351.55 208.1 351.33 206.15 351.77 204.67 350.41 202.95 348.29 201.77 347.06 199.76 345.77 199.99 342.81 202.49 340.35 202.72 339.03 201.72 334.55 203.66 334.34 203.08 330.94 202.53 329.51 201.63 328.2 201.59 327.12 202.5 324.16 200.77 322.9 200.49 322.87 199.16 320.24 198.13 318.1 198.97 314.31 198.06 313.05 200.91 309.66 201.32 308.46 200.96 305.51 201.38 301.38 198.82 299.62 198.91 299.03 196.55 296.8 194.87 296.55 192.85 297.02 190.42 296.49 189.63 297.23 187.66 297.52 185.6 296.8 184 298.24 180.06 298.04 174.83 292.29 169.01 289.52 168.54 289.8 165.56 289.07 162.31 289.44 161.11 290.79 160.29 290.78 159.08 291.6 157.81 293 157.12 292.85 155.58 293.98 154.6 294.33 152.26 293.1 150.41 294.92 148.47 294.18 147.25 295.07 144.96 295.33 142.03 293.93 140.67 293.24 138.16 293.23 136.84 294.04 135.02 293.34 130.9 292 128.45 288.64 126.74 287.61 126.67 286.89 124.69 285.09 122.16 285.31 120.35 284.64 118.75 285.08 116.72 284.81 115.25 283.67 113.03 281.64 111.89 277.69 111.22 275.8 110.17 271.75 110.32 270.69 109.8 268.07 109.61 264.13 110.27 263.67 110 258.68 110.59 252.47 112.8 249.57 113.27 247.49 114.64 246.08 116.15 244.06 115.31 243.27 113.82 243.51 110.01 244.47 106.58 244.42 105.01 243.23 102.73 241.6 102.06 240.85 99.95 241.9 98.48 241.27 97.45 239.38 96.18 240.45 94.41 240.84 91.04 239.98 89.77 239.63 87.29 240.99 87.81 244.13 89.97 247.85 94.47 251.49 94.63 252.86 95.67 255.68 95.97 257.94 97.84 260.92 98.64 265.36 98.25 265.95 99.49 267.21 99.87 270.63 100.26 272.18 101.35 274.25 100.36 275.83 100.15 276.29 101.06 279.4 103.19 280.41 103.21 282.63 104.57 285.51 101.08 288.53 98.96 290.36 98.86 292.46 96.44 294.05 87.92 292.21 87.33 292.8 85.51 292.62 82.58 292.01 82.03 293.34 79.97 292.73 78.88 293.98 77.14 295.69 76.09 296 75.01 297.17 74 296.57 70.71 297.54 69.86 299.32 69.61 299.36 68.04 300.44 67.1 302.19 66.98 303.94 68.23 305.23 67.07 305.95 64.62 305.12 63.19 306.09 61.84 305.37 60.44 305.32 58.58 306.68 57.42 308.47 58.14 309.49 57.88 310.29 56.43 313.75 54.26 314.64 54.97 316.29 53.93 317.33 56.81 319.31 58.13 320.91 58.24 322.77 59.07 325.06 58.47 326.31 59.03 327.44 57.63 329.85 56.97 331.43 59.06 335.01 61.63 336.64 60.67 337.24 58.09 338.85 55.67 340.25 55.86 342.75 55.06 345.34 55.98 348.02 56.58 348.54 55.66 348.32 53.11 348.98 49.62 348.54 47.67 349.06 47.14 349.38 44.47 348.35 42.41 349.28 41.39 351.71 41.86 356.63 40.14 357.88 40.33 359.28 41.22 359.86 39.54 359.71 36.1 357.89 33.51 357.68 32.4 358.15 30.18 359.51 28.72 360.55 28.73 363.2 27.92 363.95 26.52 365.99 25.96 368.89 21.95 369.49 19.93 371.3 17.9 371.65 16.61 372.58 16.52 373.36 17.73 375.28 17.6 376.76 18.34 379.65 18.02 380.55 19.44 381.63 19.16 384.47 17.2 385.53 15.57 386.82 14.53 387.14 12.64 387.97 11.43 389.47 11.78 389.74 13.51 389.56 16.41 390.8 20.36 390.76 21.52 391.86 24.28 392.93 25.38 394.02 24.07 396.62 22.68 395.59 20.06 397.1 18.91 397.7 17.49 399.01 16.99 399.74 14.97 401.09 14.5 402.26 14.97 404.46 14.71 405.99 14.92 407.87 13.66 412.04 12.22 415.65 12.66 416.78 12.55 417.52 11.31 417.17 9.24 419.72 7.28 422.07 6.41 425.99 3.04 427.23 3.3 429.95 2.44 430.8 1.56 432.29 1 433.93 1.33 Z" id="33540310"/>
<path d="M 644.9 138.35 644.34 141.28 642.57 144.8 640.94 146.69 638.45 147.99 635.75 150.4 634.34 153.28 632.95 153.54 631.8 156.31 630.69 157.38 628.87 157.51 629.14 158.95 628.24 161.24 624.83 164.82 624.7 167.61 623.79 169.93 624.25 171.24 624.17 173.63 623.26 175.46 622.09 176.3 621.63 177.51 620.38 178.67 619.98 180.42 620.59 185.11 619.26 188.34 619.42 188.89 618.39 193.14 617.62 193.81 616.5 196.53 615.42 197.22 613.96 199.52 613.68 201.88 610.5 202.14 609.28 203.49 607.23 207.14 600.54 211.43 600.07 210.95 597.65 211.89 597 213.51 595.72 215.35 595.44 217.68 596.71 219.08 595.89 222.22 593.76 219.87 591.84 218.91 589.23 219.87 585.22 220.7 583.79 220.73 583.38 217.43 580 213.15 579.31 211.67 574.55 205.57 573.52 203.15 571.79 204.03 572.66 205.36 572.97 208.76 571.86 214.09 570.77 216.77 569.41 216.72 568.17 218.32 568 220.5 566.59 223.41 567.02 225.33 566.32 226.22 564.35 226.83 563.17 228.12 562.96 231.12 561.11 234.9 561.48 235.84 560.73 238.6 558.9 240.19 559.41 241.2 558.21 245.52 559.52 247.43 559.28 249.27 560.37 250.98 561.06 255.41 559.7 256.43 559.22 260.05 558.58 261.35 554.35 261.91 553.07 261.39 551.89 262.23 552.28 263.98 551.58 265.32 549.92 266.45 549.48 268.19 546.74 268.29 547.29 269.46 546.82 271.81 545.03 274.92 544.66 278.42 545.08 280.09 543.89 281.82 543.33 281.79 540.15 281.6 538.19 282.36 534.95 281.82 531.57 282.58 529.93 284.68 527.89 283.63 524.87 283.1 523.56 283.61 522.24 283.33 522.39 285.19 523.59 287.57 523.4 291.51 522.95 292.76 521.41 294.26 521.19 296.5 521.67 300.18 521.58 302.1 516.82 302.49 513.27 304.92 513.45 306.67 511.9 308.27 507.04 309.83 505.7 309.28 501 310.96 499.67 309.13 499.47 305.55 498.91 303.66 498.98 301.78 498.42 300.47 495.4 296.06 495.6 293.77 495.43 290.83 494.91 289.73 495.82 287.53 495.47 285.58 491.74 281.63 491.58 280.3 490.75 278.82 489.15 278.29 488.8 277.35 486.79 275.96 485.51 276.7 482.82 274.69 479.31 274.08 476.95 272.3 475.35 273.97 473.91 274.08 472.32 272.41 470.39 270.94 468.99 270.3 468.84 267.14 468.24 265.79 466.67 264.95 464.91 264.95 463.17 263.27 461.09 263.09 460.18 261.98 460.11 260.74 459.05 259.85 456.72 259.02 456.11 257.52 457.15 255.38 455.43 251.75 455.34 248.78 456.54 245.12 453.65 242.5 450.03 241.44 446.78 242.53 446.84 241.3 445.84 236.35 445.81 233.33 445.48 231.54 445.75 230.08 445.08 228.49 443.78 227.49 442.81 225.18 442.97 222.54 442.14 220.68 442.98 218.93 442.51 216.64 441.1 215.49 440.15 213.8 438.3 211.7 439.9 208.65 439.29 207.47 438.74 204.58 438.28 204.52 432.61 197.65 432.02 195.15 431.13 193.98 430.62 191.84 431.7 185.18 434.93 181.54 436.2 180.98 436.88 178.95 436.7 177.81 431.71 177.06 429.72 175.75 428.27 175.9 425.38 173.68 424.49 172.04 421.78 170.09 422.39 166.99 425.38 162.76 426.75 160.37 428.45 158.77 429.68 153.27 431.7 148.87 434 145.35 436 144.95 439.65 139.75 442.77 134.11 445.08 131.36 443.44 131.31 441.61 129.94 442.41 127.37 438.52 122.84 439.93 120.99 439.53 119.86 439.95 117.92 442.34 118.29 443.88 119.26 445.95 118.63 447.01 116.66 448.08 113.72 447.89 109.26 446.83 108.71 445.96 106.56 444.21 104.43 443.99 97.44 444.75 95.78 446.28 94.38 446.78 92.99 446.51 90.6 447.86 90.68 449.31 89.28 452.05 87.68 453.74 87.38 456.41 86.08 460.02 85.15 461.34 83.88 465.42 85.43 468.13 86.82 470.26 85.41 472.46 84.74 473.91 85.28 477.67 84.75 483.35 85.72 487.86 86.3 493.47 88.24 498.47 90.5 499.43 88.01 500.06 84.88 502.15 80.72 503.82 76.89 505.42 69.49 506.46 68.09 507.58 64.24 508.56 61.79 510.57 57.83 511.4 57.17 512.59 54.95 513.65 53.85 514.24 52.14 516.72 50.6 518.75 48.35 520.38 45.69 521.23 45.3 522.69 42.78 524.96 40.16 527.09 38.36 530.2 34.92 533.23 32.25 534.78 31.92 536.4 35.15 537.15 37.9 536.84 41.26 538.02 44.81 538.52 50.31 537.18 53.41 539.91 63.33 541.62 65.38 544.33 67.76 547.49 70.19 549.43 70.7 554.28 72.91 559.3 76.33 564.09 77.66 568.02 79.43 571.4 77.69 573.03 79.44 578.14 80.48 580.58 80.77 582.37 83.46 583.59 83.41 585.51 85.13 585.92 88.52 587.13 92.81 588.19 92.91 590.32 94.99 590.99 95.18 591.36 97.42 592.73 99.47 594.07 99.9 595.56 101.47 600.11 103.12 601.07 104.29 604.63 103.21 606.14 103.62 608.83 103.17 609.71 105.18 609.51 107.98 610.82 111.76 610.29 113.53 610.71 116.34 611.14 117.01 611.14 119.73 610.51 121.06 610.69 123.64 612.26 125.38 616.06 124.88 617.91 124.97 618.79 124.29 621.38 124.11 622.75 125.08 624.3 127.79 626.08 128.46 627.11 130.56 629.71 132.31 630.94 134.19 634.88 134.79 638.84 132.4 640.55 135.15 644.52 138.35 644.9 138.35 Z" id="33540320"/>
<path d="M 776.68 133.21 776.18 133.68 771.48 132.88 767.37 133.51 764.27 139.14 763.85 141.24 763.07 142.72 759.38 145.99 759.96 149.02 759.72 151.58 758.67 151.98 756.89 154 756.39 155.22 753.98 155.72 751.93 157 749.99 158.95 751.39 159.55 752.11 161.84 752.25 163.71 753.24 164.88 752.98 166.4 754.07 167.18 755.21 168.86 755.63 172.13 757.15 173.58 759.36 174.37 760.3 176.42 761.73 177.35 761.56 179.02 762.01 180.46 764.13 180.85 766.33 182.61 766.74 184.63 766.26 187.01 766.64 189.14 768.33 190.99 767.27 192.17 767.48 193.44 766.09 194.76 765.89 196.27 766.78 198.03 768.05 198.94 768.46 200.79 769.86 202.61 771.5 205.95 774.89 206.99 778.22 207.75 780.65 208.81 783.82 207.81 784.92 208.09 785.29 209.27 785.35 211.82 784.48 214.42 784.62 218.54 783.8 220.15 785.33 225.36 786.01 226.37 785.67 227.39 786.36 230.08 788.14 231.95 790.51 232.95 793.49 236.27 795.78 238.2 798.47 238.15 799 239.93 797.7 240.86 794.51 240.32 793.34 241.65 791.02 241.64 790.07 240.92 787.99 242.34 786.33 242.99 785.01 244.69 782.93 244.93 780.99 246.31 778.94 249.64 775.81 251.32 773.29 251.21 772.22 250.13 770.9 252.59 769.55 254.16 768.27 254.57 767.27 254.07 765.9 255.19 764.21 252.67 763.77 251.5 762.51 250.2 761.76 247.69 759.29 246.53 758.48 244.54 756.63 242.63 754.04 242.36 753.98 240.89 751.71 238.74 750.33 237.97 747.63 237.73 746.18 233.4 745.28 232.21 741.12 230.03 740.76 229.19 738.3 228.65 735.83 227.08 733.71 226.4 730.69 225.93 727.04 225.04 726.11 225.76 723.73 225 722.75 224.17 720.15 225.15 716.33 223.75 713.07 226.39 710.62 228.1 707.59 228.28 704.9 227.3 704.1 228.53 702.73 228.37 699.85 229.03 697.67 227.93 697.13 228.28 696.31 230.58 694.24 231.34 692.82 232.48 692.23 233.74 690.89 234.85 690.33 237.53 688.15 240.46 688.57 241.78 688.06 243.65 686.35 244.21 681.54 244.7 678.66 242.07 676.64 241.58 673.43 241.39 672.81 242.82 669.98 245.05 666.6 246.88 664.61 247.19 662.49 247.95 663.43 250.12 665.76 252.5 667.96 251.72 667.96 252.6 666.66 254.09 663.86 258.2 661.54 260.12 659.63 260.72 660.04 263.12 659.55 268.37 657.68 268.97 654.45 267.76 651.3 267.52 649.27 268.45 645.4 270.79 644.76 272.6 643.91 272.1 641.74 268.51 641.26 266.75 636.58 261.99 635.18 259.49 632.24 260 628.78 261.69 625.4 259.37 626.2 257.53 626.5 254.9 625.16 252.91 625.18 252 623.5 249.51 621.4 247.56 619.14 247.44 617.03 245.17 614.79 239.97 612.95 238.32 613.52 235.23 611.4 233.95 609.64 231.91 607.08 232.03 604.19 230.01 601.25 225.1 596.35 222.83 595.89 222.22 596.71 219.08 595.44 217.68 595.72 215.35 597 213.51 597.65 211.89 600.07 210.95 600.54 211.43 607.23 207.14 609.28 203.49 610.5 202.14 613.68 201.88 613.96 199.52 615.42 197.22 616.5 196.53 617.62 193.81 618.39 193.14 619.42 188.89 619.26 188.34 620.59 185.11 619.98 180.42 620.38 178.67 621.63 177.51 622.09 176.3 623.26 175.46 624.17 173.63 624.25 171.24 623.79 169.93 624.7 167.61 624.83 164.82 628.24 161.24 629.14 158.95 628.87 157.51 630.69 157.38 631.8 156.31 632.95 153.54 634.34 153.28 635.75 150.4 638.45 147.99 640.94 146.69 642.57 144.8 644.34 141.28 644.9 138.35 648.69 138.15 650.41 135.93 651.08 134.5 652.86 133.53 655.53 132.73 661.42 129.31 661.82 129.22 662.32 126.09 661.09 124.92 661.15 123.51 658.99 119.37 660.91 116.15 662.29 115.9 663.44 114.56 664.52 112.62 666.51 110.12 671.2 111.77 675.16 111.29 676.53 109.86 677.71 109.59 680.15 110.72 682.42 110.53 684.43 108.89 684.64 106.59 685.93 105.94 686.22 104.67 688.36 102.3 690.85 101.4 692.11 100.44 694.22 100.71 695.72 99.82 699.3 103.92 700.57 103.12 701.23 101.77 702.69 101.41 703.98 100.42 705.61 98.5 706.39 96.47 707.82 96.52 709.81 94.97 711.29 94.48 712.48 92.71 713.81 92.06 716.71 91.93 717.68 92.13 719.78 94.28 720.73 94.57 724.24 97.36 725.01 99.73 727.64 100.75 729.36 100.85 730.88 101.79 734.34 101.72 737.42 101.21 739.22 100.63 741.43 100.81 743.11 100.4 744.34 105.73 746.44 106.96 747.85 106.47 750 107.88 751.58 110.34 751.93 112.71 753.59 112.84 756.05 113.65 760.1 116.12 762.32 116.51 766.13 118.4 768.11 119.69 772.91 120.05 777.71 123.43 779.35 123.86 778.53 127.6 777.25 129.89 776.31 132.8 776.68 133.21 Z" id="33540330"/>
<path d="M 595.89 222.22 596.35 222.83 601.25 225.1 604.19 230.01 607.08 232.03 609.64 231.91 611.4 233.95 613.52 235.23 612.95 238.32 614.79 239.97 617.03 245.17 619.14 247.44 621.4 247.56 623.5 249.51 625.18 252 625.16 252.91 626.5 254.9 626.2 257.53 625.4 259.37 628.78 261.69 632.24 260 635.18 259.49 636.58 261.99 641.26 266.75 641.74 268.51 643.91 272.1 644.76 272.6 645.4 270.79 649.27 268.45 651.3 267.52 654.45 267.76 657.68 268.97 659.55 268.37 658.14 269.86 659.68 271.6 661.45 274.88 664.08 277.49 664.78 279.52 666.51 280.43 666.78 283.28 667.65 284.69 667.71 285.99 668.56 287.81 669.94 288.39 671.04 289.72 673.35 289.77 673.26 292.21 671.85 296.27 670.85 297.21 671.53 298.44 670.45 302.41 670.89 305.79 671.51 307.22 673.58 308.04 674.38 309.32 677.66 311.5 677.72 313 682.35 315.53 683.92 315.95 683.07 317.76 682.99 320.85 683.67 322.47 684.51 326.17 684.58 330.22 685.48 331.17 687.27 331.72 688.34 331.59 689.52 333.14 692.02 333.09 695.3 335.71 696.11 337.27 694.42 339.79 692.46 342.24 691.54 342.32 689.65 343.54 689.67 344.91 687.63 344.93 685.24 345.88 684.73 346.87 685.38 348.59 683.63 350.93 681.15 352.57 679.71 354.43 680.28 355.92 680.62 359.46 682.67 361.58 680.56 365.15 680.52 366.79 679.52 368.12 679.68 370.77 680.74 373.49 679.76 374.68 679.72 376.8 680.36 377.33 681.33 380.28 681.23 381.25 682.06 382.67 682.37 385.37 681.48 386.01 680.49 388.17 681.75 390.2 680.62 393.45 679.07 395.09 674.31 395.88 668.96 400.87 665.04 401.2 663.86 402.85 662.53 405.66 660.76 406.73 657.71 407.41 655.51 408.32 650.7 408.34 649.9 410.65 646.6 413.99 645.04 416.43 644.61 419.02 644.78 420.54 642.75 419.62 640.86 420.5 639.28 419.07 638.59 419.1 637 417.79 635.38 414.46 633.94 413.1 633.63 411.64 629.84 410.5 627.68 410.46 626.38 411.13 624.93 410.22 619.99 406.01 618.68 405.58 617.9 404.53 618.15 402.02 617.49 401.29 616.85 399.27 615.08 397.17 614.04 394 612.66 392.5 612.14 390.95 610.21 388.81 609.79 387.31 610.36 386.18 609.76 383.67 608.23 382.1 607.73 379.94 608.21 377.22 607.24 375.5 608.1 373.06 606.66 371.25 607.16 369.68 605.61 364.54 602.31 361.98 602.4 356.91 601.4 353.8 601.46 352.05 599.6 348.33 598.19 346.76 597.33 344.84 597.51 343.39 596.55 341.41 593.94 340.45 593.26 340.62 590.45 338.92 589.39 339.23 587.38 338.68 582.83 334.49 581.83 332.7 581.18 327.89 579.78 327.13 576.24 327.81 574.23 326.98 572.69 324.33 572.33 322.65 569.49 321.47 568.3 320.49 567.95 319.47 566.77 318.75 564.89 319.93 563.23 318 562.38 317.81 560.83 318.6 560.04 317.9 559.49 315.69 559.7 313.39 560.87 311.4 560.34 309.72 560.79 307.62 560.83 305.53 559.21 304.62 558.18 303.49 558.85 302.69 560.61 299.14 559.56 297.98 555.79 295.15 553.62 294.04 551.01 293.38 548.01 287.17 545.78 285.37 545.06 284.23 543.61 283.48 543.33 281.79 543.89 281.82 545.08 280.09 544.66 278.42 545.03 274.92 546.82 271.81 547.29 269.46 546.74 268.29 549.48 268.19 549.92 266.45 551.58 265.32 552.28 263.98 551.89 262.23 553.07 261.39 554.35 261.91 558.58 261.35 559.22 260.05 559.7 256.43 561.06 255.41 560.37 250.98 559.28 249.27 559.52 247.43 558.21 245.52 559.41 241.2 558.9 240.19 560.73 238.6 561.48 235.84 561.11 234.9 562.96 231.12 563.17 228.12 564.35 226.83 566.32 226.22 567.02 225.33 566.59 223.41 568 220.5 568.17 218.32 569.41 216.72 570.77 216.77 571.86 214.09 572.97 208.76 572.66 205.36 571.79 204.03 573.52 203.15 574.55 205.57 579.31 211.67 580 213.15 583.38 217.43 583.79 220.73 585.22 220.7 589.23 219.87 591.84 218.91 593.76 219.87 595.89 222.22 Z" id="33540340"/>
<path d="M 543.33 281.79 543.61 283.48 545.06 284.23 545.78 285.37 548.01 287.17 551.01 293.38 553.62 294.04 555.79 295.15 559.56 297.98 560.61 299.14 558.85 302.69 558.18 303.49 559.21 304.62 560.83 305.53 560.79 307.62 560.34 309.72 560.87 311.4 559.7 313.39 559.49 315.69 560.04 317.9 560.83 318.6 562.38 317.81 563.23 318 564.89 319.93 566.77 318.75 567.95 319.47 568.3 320.49 569.49 321.47 572.33 322.65 572.69 324.33 574.23 326.98 576.24 327.81 579.78 327.13 581.18 327.89 581.83 332.7 582.83 334.49 587.38 338.68 589.39 339.23 590.45 338.92 593.26 340.62 593.94 340.45 596.55 341.41 597.51 343.39 597.33 344.84 598.19 346.76 599.6 348.33 601.46 352.05 601.4 353.8 602.4 356.91 602.31 361.98 605.61 364.54 607.16 369.68 606.66 371.25 608.1 373.06 607.24 375.5 608.21 377.22 607.73 379.94 608.23 382.1 609.76 383.67 610.36 386.18 609.79 387.31 610.21 388.81 612.14 390.95 612.66 392.5 614.04 394 615.08 397.17 616.85 399.27 617.49 401.29 618.15 402.02 617.9 404.53 618.68 405.58 619.99 406.01 624.93 410.22 626.38 411.13 627.68 410.46 629.84 410.5 633.63 411.64 633.94 413.1 635.38 414.46 637 417.79 638.59 419.1 639.28 419.07 640.86 420.5 642.75 419.62 644.78 420.54 644.94 422.05 642.43 427.45 643.39 429.41 642.98 432 643.46 433.84 647.25 439.07 649.06 445.22 648.58 447.79 647.28 450.49 645.17 453.85 642.19 457.32 642.48 460.31 641.82 463.78 637.75 464.78 635.26 465.95 633.45 466.05 633.31 470.49 631.59 473.67 631.91 480.74 633 483.94 635.55 484.73 635.48 486.14 636.16 488.4 635.97 489.93 637.07 490.26 636.62 495.76 635.85 497.29 636.21 499.99 637.43 502.47 637.44 505.31 636.01 509.18 636.38 511.32 635.95 514.73 635.93 516.85 632.27 518.68 630.63 519.24 625.28 523.41 622.42 526.69 620.85 528.83 621.3 530.86 620.79 532.54 619.92 533.57 618.93 536.66 617.4 539.35 613.64 541.7 612.84 544.74 609.42 545.59 607.15 546.76 603.25 550 599.54 553.7 594.36 557.75 592.44 557.72 589.53 558.35 588.2 559.23 587.01 559.5 583.95 561.29 581.17 559.9 579.71 557.57 577.37 556.39 575.38 554.22 573.21 554.07 571.25 553.45 567.47 551.66 565.78 552.52 562.33 551.84 561.49 551.93 560.22 550.95 558.3 553.63 556.13 555.67 554.74 557.67 552.54 559.42 550.2 559.06 547.94 561.08 546.04 564.01 546.02 564.67 542.91 567.48 541.31 571.04 538.53 574.37 538.74 576.63 538.28 577.4 538.2 580.4 537.72 581.2 537.78 582.91 537.22 583.46 531.79 585.27 528.42 585.81 527.82 587.25 524.95 587.28 522.12 586.67 518.26 590.09 515.54 590.76 513.13 592.63 511.38 592.97 509.11 590.84 506.78 590.5 506.95 595.66 504.47 597.98 504.39 604.15 504.57 606.97 499.73 612.93 494.16 616.85 493.26 618.75 486.22 617.28 484.13 616.05 477.8 616.24 475.08 615.17 471.94 612.22 470.7 607.72 467.63 603.77 465.46 600.18 461.25 598.18 457.01 597.17 455.35 593.02 453.39 588.83 452.02 584.22 445.47 583.85 444.74 582.99 445.74 580.84 445.6 575.89 447.49 573.14 447.46 569.24 446.87 568.4 446.81 566.81 446.23 565.83 446.67 563.02 447.94 560.56 446.71 556.59 447.18 553.04 444.57 548.81 443.36 546.35 441.67 544.23 440.59 542.35 440.36 540.09 440.83 536.65 439.94 533.91 438.65 533.98 433.47 531.16 432.5 530.87 431.09 528.96 430.33 527.33 424.93 523.15 422.53 523.56 421.85 522.43 419.47 519.81 417.28 518.47 415.66 516.37 412.55 514.69 411.18 513.17 409.68 512.87 407.6 513.53 405.54 512.42 403.82 512.45 401.97 513 399.12 511.7 399.2 509.94 396.92 507.72 394.68 504.38 395.3 502.68 395.7 498.4 395.03 496.49 395.32 494.42 394.95 493.47 394.94 489.81 394.4 486.97 394.8 484.33 393.31 481.35 393.12 478.49 392.33 475.69 395.49 473.32 397.43 471.07 399.56 465.78 399.46 465.04 400.48 463.18 399.89 460.61 402.1 459.37 406.18 459.97 408.84 459.36 410.73 458.13 412.42 456.48 412.12 454.58 412.5 452.21 414.74 450.75 415.99 449.51 417.26 448.96 417.53 444.66 419.29 441.73 421.21 437 422.8 435.52 423.3 434.13 421.78 431.99 422.48 428.82 423.21 427.9 422.79 426.49 422.98 424.74 422.52 422.3 421.03 420.84 421.03 420.12 424.31 416.96 424.95 414.27 427.9 412.7 427.81 408.24 428.77 405.63 428.63 402.58 429.54 399.71 429.56 397.3 432.58 395.79 434.04 393.85 434.49 392.65 437 390.27 440.47 385.69 442.28 384.86 442.26 383.75 443.38 381.36 444.62 375.55 445.69 374.77 446.1 372.57 447.72 369.87 450.65 368.44 451.15 367.72 453.14 369.54 455.68 369.43 457.47 367.54 458.28 366.01 460.61 363.68 463.33 364.43 465.65 363.32 466.71 361.74 468.78 360.62 471.84 357.97 474.1 357.88 477.59 359.28 479.94 359.51 482.28 360.98 483.47 360.27 483.62 358.62 484.52 356.09 485.01 352.13 483.89 350.87 483.63 348.56 484.62 344.55 485.12 341.65 481.68 339.1 481.79 338.1 483.21 336.4 483.44 335.23 483.17 332.7 485.45 330.57 486.5 327.95 488.59 327.77 490.07 325.82 492.31 323.78 496.21 323.6 498.5 320.64 500.76 319.83 500.41 313.23 501 310.96 505.7 309.28 507.04 309.83 511.9 308.27 513.45 306.67 513.27 304.92 516.82 302.49 521.58 302.1 521.67 300.18 521.19 296.5 521.41 294.26 522.95 292.76 523.4 291.51 523.59 287.57 522.39 285.19 522.24 283.33 523.56 283.61 524.87 283.1 527.89 283.63 529.93 284.68 531.57 282.58 534.95 281.82 538.19 282.36 540.15 281.6 543.33 281.79 Z" id="33540350"/>
<path d="M 249 314.45 250.42 316.3 252.2 317.23 253.5 318.61 256.1 318.7 259.22 319.14 260.41 320.07 260.9 321.41 262.35 321.35 264.91 321.92 266.42 321.27 267.46 321.93 268.91 321.88 270.02 322.92 272.52 322.03 274.68 322.91 277.29 321.4 280.72 325.28 284.42 328.72 287.18 326.94 290.19 326.53 291.67 325.27 293.49 324.53 295.9 325.17 298.66 324.79 299.8 324.02 301.21 324.25 304.51 322.03 308.32 323.03 309.18 322.52 312.43 323.05 313.63 324.85 316.36 325.89 317.35 328.36 316.78 329.48 318.32 331.78 318.57 333.01 320.27 332.98 320.81 333.95 321.06 336.43 322.48 341.05 323.37 343.09 323.21 344.54 327.21 349.39 328.03 354.57 328.64 356.25 329.73 355.74 331.02 352.04 333.99 352.78 335.97 352.74 337.84 354.88 338.18 356.14 339.36 357.72 340.09 357.73 342.26 359.28 345.61 360.3 346.53 360.28 348.8 364.03 352.84 367.03 356.61 368.34 357.68 367.93 360.4 370.63 360.4 371.75 361.67 374.99 362.89 375.78 364.93 375.58 366.21 376.24 367.71 378.06 369.36 378.77 372.96 378.22 376.31 378.56 377.27 379.75 379.7 380.77 381.64 385.05 383.53 384.94 385.15 386.61 386.71 387.34 387.37 390.14 388.2 391.17 388.26 395.41 387.14 396.18 387.74 397.51 386.97 399.14 386.73 403.25 386.32 403.91 387.12 406.34 385.84 408.64 386.47 412.33 387.5 414.67 388.43 418.23 392.02 420.87 392.14 421.52 394.14 423.71 394.64 424.82 396.78 426.59 396.75 429.38 397.85 431.25 397.13 433.15 397.6 434.18 396.97 436.19 397.87 437.7 397.38 440.01 398.38 442.71 399.22 443.41 399.4 446.59 400.25 448.47 399.46 450.86 400.42 453 400.17 457.15 399.22 460.17 399.89 460.61 400.48 463.18 399.46 465.04 399.56 465.78 397.43 471.07 395.49 473.32 392.33 475.69 393.12 478.49 393.31 481.35 394.8 484.33 394.4 486.97 394.94 489.81 394.95 493.47 395.32 494.42 395.03 496.49 395.7 498.4 395.3 502.68 394.68 504.38 396.92 507.72 399.2 509.94 399.12 511.7 397.62 512.64 397.55 513.8 395.39 518.03 392.16 520.1 387.9 520.83 384.44 522.73 383.31 524.09 381.16 525.89 380.12 528.89 378.55 529.09 377.82 530.21 376.64 530.23 375.54 529.46 372.06 529.22 370.23 529.93 366.95 529.62 363.56 530.52 362.39 529.59 361.04 530.69 359.31 531 354.15 533.49 352.96 530.84 351.28 529.41 351.21 527.88 348.31 523.43 348.25 521.64 346.42 519.59 343.54 518.73 342.45 518.08 341.05 518.07 341.02 514.67 340.38 512.44 340 509.76 335.41 507.61 334 505.87 332.85 505.59 329.85 503.75 327.48 503.28 324.98 501.3 324.97 499.19 322.14 497.45 319.57 496.57 317.97 496.64 316.79 496.08 315.16 496.38 313.43 497.36 311.05 496.84 310.11 495.84 306.4 497.1 304.88 496.78 303.73 495.85 300.3 497.65 299.31 499.11 296.77 497.75 296.27 496.51 294.59 494.74 292.81 493.46 291.92 492.14 290.53 491.73 287.38 490.02 285.08 487.82 285.14 486.59 284.1 486.1 284.31 484.95 283.76 483.49 282.28 482.22 282.02 481.2 280.07 479.29 279.47 477.64 279.49 475.87 278.67 475.38 278.74 473.31 277.92 471.86 278.25 470.88 277.96 465.69 277.45 464.57 278.44 462.38 277.75 461.43 277.96 459.79 275.88 457.93 273.52 456.4 272.87 454.58 273.46 451.41 273.43 448.8 271.38 444.46 264.84 445.69 263.27 446.25 262.46 447.24 259.16 448.24 257.22 450.03 253.48 449.09 252.14 449.41 249.48 446.08 248.38 444.32 248.02 442.54 246.86 439.71 243.24 439.92 242.63 438.88 239.22 440.23 237.65 438.73 237.49 436.58 236.38 435.64 233.13 434.83 233.18 432.81 231.79 432.1 229.46 426.88 228.38 421.45 227.22 421.36 224.78 419.91 222.59 420.22 221.28 415.83 220.31 415.6 219.36 413.13 217.91 412.01 217.19 408.47 216.13 407.15 214.64 406.48 213.57 403.42 211.48 403.24 210.01 403.58 207.49 404.75 207.11 407.34 206.07 408.07 205.14 409.9 203.73 410.31 201.26 411.63 201.51 413.11 201.08 416.16 199.37 418.23 198.15 419.2 196.98 424.07 194.74 426.6 194.15 428.09 192.71 429.21 191.89 429.03 189.66 429.72 187.29 427.14 185.94 426.13 184.52 423.94 181.39 422.06 177.66 420.23 178.01 417.74 177.5 416.28 177.67 414.6 178.55 413.67 179.51 409.19 180.23 408.81 181.34 406.5 181.8 404.77 182.74 404.11 182.35 402.85 183.37 401.21 184.69 396.94 184.73 393.53 183.08 387.57 182.57 380.6 181.33 379.87 180.35 377.15 180.27 372.29 179.92 366.03 177.07 365.96 175.61 365.21 173.54 365.91 171.42 364.78 169.83 362.88 169.9 362.16 168.67 358.92 169.18 357.72 171.33 356.01 173.62 355.04 174.82 353.24 174.8 351.15 175.93 348.5 176.51 346.38 173.9 344.69 173.57 343.58 174.21 342.52 173.91 340.8 173.17 339.69 172.88 337.96 171.94 337.59 170.73 336.12 169.2 332.37 166.83 331.59 162.38 331.75 159.26 329.6 157.63 326.82 160.21 320.48 162.38 319.25 162.89 318.56 167.98 311.67 171.86 307.89 173.69 307.33 175.7 305.63 178.86 309.66 179.85 311.72 184.12 311.92 185.73 312.66 188.36 315.94 189.14 319.09 189.69 319.36 192.1 322.73 192.04 323.73 192.87 325.3 192.47 326.53 195.01 328.55 196.43 328.37 198.29 327.21 198.08 326.38 199.58 324.11 203.57 323.79 205.43 324.48 210.83 324.96 212.45 323.48 214.15 322.94 214.8 321.41 216.21 320.12 220.62 321.63 222.66 321.2 223.12 320.13 225.49 320.25 227.68 319.72 230.1 316.83 231.55 316.58 232.53 317.45 238.18 320.1 238.48 320.73 241.5 322.79 241.87 321.54 244.21 320.83 245.68 318.99 247.47 316.16 249 314.45 Z" id="33540360"/>
<path d="M 399.12 511.7 401.97 513 403.82 512.45 405.54 512.42 407.6 513.53 409.68 512.87 411.18 513.17 412.55 514.69 415.66 516.37 417.28 518.47 419.47 519.81 421.85 522.43 422.53 523.56 424.93 523.15 430.33 527.33 431.09 528.96 432.5 530.87 433.47 531.16 438.65 533.98 439.94 533.91 440.83 536.65 440.36 540.09 440.59 542.35 441.67 544.23 443.36 546.35 444.57 548.81 447.18 553.04 446.71 556.59 447.94 560.56 446.67 563.02 446.23 565.83 446.81 566.81 446.87 568.4 447.46 569.24 447.49 573.14 445.6 575.89 445.74 580.84 444.74 582.99 440.2 584.3 435.63 586.68 433.53 589.06 431.29 589.68 428.64 591.22 427.63 590.35 423.7 590.73 421.41 591.43 419.96 591.18 418.34 592.09 415.84 592.16 413.81 592.71 412.42 595.28 406.4 597.88 405.04 599.28 402.87 599.91 401.75 601.07 400.25 601.65 399.27 603.17 395.8 604.28 394.65 605.39 393.62 607.8 392.07 608.32 389.82 607.91 389.29 607.16 386.96 606 385.2 607.83 384 608.35 381.74 608.57 380.97 609.5 377.81 610.44 376.42 609.44 375.1 609.68 373.94 611.04 371.45 612.55 368.02 611.85 367.37 611.1 364.74 612.36 363.88 611.28 361.1 612.41 359.76 613.71 358.73 613.75 357.4 614.66 357.6 615.78 356.67 619.13 354.44 620.33 353.57 621.66 352.22 622.32 351.27 623.59 351.27 625.31 349.01 625.39 347.58 627.1 346.49 627.81 345.27 629.8 345.14 631.06 342.8 635.2 341.1 636.88 335.94 633.7 334.24 632.91 330.67 632.75 328.06 633.12 320 635.21 313.99 638.82 310.72 640.56 307.46 641.67 304.52 642 302.58 641.82 299.91 641.09 296.59 639.71 293.79 637.51 292.81 636.28 292.68 634.28 295.4 629.14 298.32 622.36 297.61 617.04 296.48 614.79 293.32 613.93 290.74 614.62 288.86 615.72 285.57 616.94 280.67 614.78 279.42 613.87 277.9 611.92 276.09 608.91 273.62 606.18 271.98 605.48 268.87 607.2 266.61 607.26 265.65 608.11 265.62 610.44 263.9 614.78 262.12 615.85 260.65 615.46 258.63 613.92 258.02 611.52 254.92 605.36 254.03 603.99 250.64 600.13 244.97 600.02 243.79 600.2 241.31 601.84 239.98 603.15 238.95 603.19 236.61 601.48 233.91 600.06 231.39 602.41 229.4 601 227.3 601.46 223.91 601.29 221.9 596.98 219.56 595.3 217.92 595.04 215.64 593.79 212.39 592.92 209.76 593.1 207.63 593.95 203.43 594.59 201.45 595.48 200.9 595.02 197.29 596.12 194.39 594.34 194.09 593.28 191.45 591.59 190.32 586.77 188.39 585.49 186.64 583.13 184.97 582.15 184.53 579.78 184.4 576.45 183.15 574.54 182.43 572.07 183.03 570.52 182.82 566.06 182.54 564.09 184.11 562.65 184.02 560.46 182.63 557.74 183.63 555.65 183.15 551.4 182.11 547.86 182.28 545.06 185.74 542.71 188.68 542.13 192.47 540.57 194.94 540.25 197.89 539.42 199.43 538.66 201.24 538.35 204.83 536.94 207.13 536.93 209.74 535.05 210.25 533.66 211.63 532.18 214.57 533.49 215.65 535.84 215.83 537.43 217.35 538.97 217.47 542.26 217.98 543.78 217.28 545.15 217.29 547.4 218.22 549.25 220.12 549.53 221.53 551.26 224.36 553.34 227.2 555.05 230.37 554.01 232.46 553.78 234.02 553.06 234.95 551.08 235.78 550.46 239.16 550.19 240.51 550.41 244.27 549.82 244.82 547.43 246.36 547.17 249.39 547.53 249.99 546.66 254.18 546.58 255.91 545.38 257.61 545.34 260.87 543.98 263.39 541.62 266.6 539.69 267.74 537.66 269.67 537.52 271.96 534.58 273.35 531.04 275.98 530.84 276.5 530.08 279.72 528.07 281.51 525.98 282.52 525.53 283.86 522.92 286.58 521.78 288.99 518.77 290.71 517.57 293.56 514.18 295.37 510.54 296.37 506.87 297.25 505.51 297.88 503.45 297.99 500.89 299.31 499.11 300.3 497.65 303.73 495.85 304.88 496.78 306.4 497.1 310.11 495.84 311.05 496.84 313.43 497.36 315.16 496.38 316.79 496.08 317.97 496.64 319.57 496.57 322.14 497.45 324.97 499.19 324.98 501.3 327.48 503.28 329.85 503.75 332.85 505.59 334 505.87 335.41 507.61 340 509.76 340.38 512.44 341.02 514.67 341.05 518.07 342.45 518.08 343.54 518.73 346.42 519.59 348.25 521.64 348.31 523.43 351.21 527.88 351.28 529.41 352.96 530.84 354.15 533.49 359.31 531 361.04 530.69 362.39 529.59 363.56 530.52 366.95 529.62 370.23 529.93 372.06 529.22 375.54 529.46 376.64 530.23 377.82 530.21 378.55 529.09 380.12 528.89 381.16 525.89 383.31 524.09 384.44 522.73 387.9 520.83 392.16 520.1 395.39 518.03 397.55 513.8 397.62 512.64 399.12 511.7 Z" id="33540370"/>
<path d="M 299.31 499.11 297.99 500.89 297.88 503.45 297.25 505.51 296.37 506.87 295.37 510.54 293.56 514.18 290.71 517.57 288.99 518.77 286.58 521.78 283.86 522.92 282.52 525.53 281.51 525.98 279.72 528.07 276.5 530.08 275.98 530.84 273.35 531.04 271.96 534.58 269.67 537.52 267.74 537.66 266.6 539.69 263.39 541.62 260.87 543.98 257.61 545.34 255.91 545.38 254.18 546.58 249.99 546.66 249.39 547.53 246.36 547.17 244.82 547.43 244.27 549.82 240.51 550.41 239.16 550.19 235.78 550.46 234.95 551.08 234.02 553.06 232.46 553.78 230.37 554.01 227.2 555.05 224.36 553.34 221.53 551.26 220.12 549.53 218.22 549.25 217.29 547.4 217.28 545.15 217.98 543.78 217.47 542.26 217.35 538.97 215.83 537.43 215.65 535.84 214.57 533.49 211.63 532.18 210.25 533.66 209.74 535.05 207.13 536.93 204.83 536.94 201.24 538.35 199.43 538.66 197.89 539.42 194.94 540.25 192.47 540.57 188.68 542.13 185.74 542.71 182.28 545.06 181.53 544.58 179.05 546.83 176.3 545.9 174.94 546.63 172.44 538.84 171.77 538.19 171.93 536.9 166.01 537.95 164.51 539.66 163.24 540.49 160.24 544.14 159.62 544.17 158.04 546.32 155.24 547.72 152.2 550.77 151.81 552.11 149.74 551.27 148.99 551.47 147.23 553.06 147 553.79 144.84 556.11 142.27 557.29 140.92 559.57 138.21 561.35 138.26 562.5 140.15 564.9 141.87 565.34 142.77 566.93 142.47 570.51 141.21 572.09 140.63 574.22 141.31 576.71 142.76 577.94 144.37 580.65 144.44 581.33 140.69 585.01 138.77 585.59 138.2 587.62 136.44 587.62 135.65 588.33 133.19 588.68 130.29 590.08 128.46 588.74 126.58 587.79 124.27 588.69 123.13 587.97 121.73 585.68 121.41 583.85 122.59 580.28 121.58 579.1 120.03 575.65 119.85 572.67 119.06 570.41 119.19 568.93 118.21 566.81 117.26 566.01 116.29 563.8 116.34 561.97 115.47 560.45 113.61 558.38 114.42 555.53 113.75 553.36 112.61 552.06 112.98 550.03 111.47 550.28 110.24 549.03 107.56 548.2 106.38 548.69 103.76 547.21 103.1 545.16 103.35 543.13 102.71 541.18 102.83 538.96 102.05 536.42 99.57 533.84 98.33 531.28 96.96 530.31 95.95 528.71 94.15 527.51 92.02 527.52 90.77 526.73 87.66 525.55 85.1 525.81 83.68 521.36 82.68 519.92 81.46 519.17 79.08 516.04 78.19 514.53 78.06 511.91 78.94 507.97 77.18 505.72 76.84 504.72 74.68 501.88 76.13 499.26 75.91 498.25 74.57 496.16 72.8 495.16 70.53 493.11 69.74 491.35 67.91 489.74 67.04 487.38 65.23 486.04 64.42 484.84 61.26 483.8 60.34 482.61 60.19 480.82 59.41 478.76 56.89 478.19 53.73 477.95 52.43 478.78 51.35 477.52 51.13 476.36 49.03 472.75 49.44 471.61 49.12 468.8 49.72 467.31 49.08 465.48 49.59 463.15 50.65 461.95 48.96 459.05 48.54 456.39 48.53 451.28 48.28 449.01 49.63 446.55 51.77 444.29 51.93 440.55 49.2 437.84 47.16 434.97 44.54 435.21 41.62 434.48 41.33 432.67 40.58 431.86 40.08 429.7 38.99 427.32 37.63 426.47 37.57 425.43 40.75 424.96 45.27 424.85 46.28 425.41 48.36 425.51 49.21 423.38 50.41 421.91 52.48 421.57 55.35 419.53 57.95 418.14 59.33 418.24 64.6 422.68 68.06 424.75 71.02 424.67 71.04 422.27 75.82 418.99 77.36 419.65 78.27 418.87 80.04 419.5 85.41 416.79 88.28 417.59 88.88 417.16 89.84 414.62 92.48 412.61 93.38 413.37 96.27 412.82 99.46 413.28 103.98 413.51 109.68 413.29 111.7 416.09 112.39 415.44 118.57 418.75 119.88 420.26 122.51 420.4 124.34 421.73 126.51 422.45 128.52 421.97 128.66 420.51 130.69 419.42 133.73 420.1 137.09 421.49 138.94 421.37 141.05 425.77 142.04 424.93 144.94 425.05 145.66 426.75 147.27 426.81 148.11 425.57 150.17 425.38 150 427.19 151.04 428.88 150.73 430.45 149.96 431.44 150.23 433.5 152.09 434.81 153.16 434.27 153.82 435.05 156.55 434.09 158.46 435.68 158.96 437.95 161.62 439.45 162.56 440.68 165.27 442.93 165.64 441.59 165.29 440.1 167.76 439.34 170.1 437.17 170.37 435.23 173.22 432.7 173.72 431.34 172.86 430.9 171.79 428.9 172.5 427.14 172.73 425.17 173.94 422.93 176.42 421.65 177.66 420.23 181.39 422.06 184.52 423.94 185.94 426.13 187.29 427.14 189.66 429.72 191.89 429.03 192.71 429.21 194.15 428.09 194.74 426.6 196.98 424.07 198.15 419.2 199.37 418.23 201.08 416.16 201.51 413.11 201.26 411.63 203.73 410.31 205.14 409.9 206.07 408.07 207.11 407.34 207.49 404.75 210.01 403.58 211.48 403.24 213.57 403.42 214.64 406.48 216.13 407.15 217.19 408.47 217.91 412.01 219.36 413.13 220.31 415.6 221.28 415.83 222.59 420.22 224.78 419.91 227.22 421.36 228.38 421.45 229.46 426.88 231.79 432.1 233.18 432.81 233.13 434.83 236.38 435.64 237.49 436.58 237.65 438.73 239.22 440.23 242.63 438.88 243.24 439.92 246.86 439.71 248.02 442.54 248.38 444.32 249.48 446.08 252.14 449.41 253.48 449.09 257.22 450.03 259.16 448.24 262.46 447.24 263.27 446.25 264.84 445.69 271.38 444.46 273.43 448.8 273.46 451.41 272.87 454.58 273.52 456.4 275.88 457.93 277.96 459.79 277.75 461.43 278.44 462.38 277.45 464.57 277.96 465.69 278.25 470.88 277.92 471.86 278.74 473.31 278.67 475.38 279.49 475.87 279.47 477.64 280.07 479.29 282.02 481.2 282.28 482.22 283.76 483.49 284.31 484.95 284.1 486.1 285.14 486.59 285.08 487.82 287.38 490.02 290.53 491.73 291.92 492.14 292.81 493.46 294.59 494.74 296.27 496.51 296.77 497.75 299.31 499.11 Z" id="33540380"/>
<path d="M 112.25 295.63 114.27 295.06 116.73 295.28 116.82 293.97 117.82 293.57 121.25 293.31 124.92 294.37 128.07 293.63 130.94 292.58 134.85 292.44 138.51 294.09 139.8 295.57 145.14 293.83 148.16 294.66 148.65 296.51 151.13 301.34 152.18 302.63 157.1 304.17 158.14 304.78 158.82 306.22 158.87 308.44 157.92 311.79 156.13 313.6 155.43 314.81 155.94 315.95 157.93 318.29 158.93 320.74 160.49 318 161.43 317.41 162.89 318.56 162.38 319.25 160.21 320.48 157.63 326.82 159.26 329.6 162.38 331.75 166.83 331.59 169.2 332.37 170.73 336.12 171.94 337.59 172.88 337.96 173.17 339.69 173.91 340.8 174.21 342.52 173.57 343.58 173.9 344.69 176.51 346.38 175.93 348.5 174.8 351.15 174.82 353.24 173.62 355.04 171.33 356.01 169.18 357.72 168.67 358.92 169.9 362.16 169.83 362.88 171.42 364.78 173.54 365.91 175.61 365.21 177.07 365.96 179.92 366.03 180.27 372.29 180.35 377.15 181.33 379.87 182.57 380.6 183.08 387.57 184.73 393.53 184.69 396.94 183.37 401.21 182.35 402.85 182.74 404.11 181.8 404.77 181.34 406.5 180.23 408.81 179.51 409.19 178.55 413.67 177.67 414.6 177.5 416.28 178.01 417.74 177.66 420.23 176.42 421.65 173.94 422.93 172.73 425.17 172.5 427.14 171.79 428.9 172.86 430.9 173.72 431.34 173.22 432.7 170.37 435.23 170.1 437.17 167.76 439.34 165.29 440.1 165.64 441.59 165.27 442.93 162.56 440.68 161.62 439.45 158.96 437.95 158.46 435.68 156.55 434.09 153.82 435.05 153.16 434.27 152.09 434.81 150.23 433.5 149.96 431.44 150.73 430.45 151.04 428.88 150 427.19 150.17 425.38 148.11 425.57 147.27 426.81 145.66 426.75 144.94 425.05 142.04 424.93 141.05 425.77 138.94 421.37 137.09 421.49 133.73 420.1 130.69 419.42 128.66 420.51 128.52 421.97 126.51 422.45 124.34 421.73 122.51 420.4 119.88 420.26 118.57 418.75 112.39 415.44 111.7 416.09 109.68 413.29 103.98 413.51 99.46 413.28 96.27 412.82 93.38 413.37 92.48 412.61 89.84 414.62 88.88 417.16 88.28 417.59 85.41 416.79 80.04 419.5 78.27 418.87 77.36 419.65 75.82 418.99 71.04 422.27 71.02 424.67 68.06 424.75 64.6 422.68 59.33 418.24 57.95 418.14 55.35 419.53 52.48 421.57 50.41 421.91 49.21 423.38 48.36 425.51 46.28 425.41 45.27 424.85 40.75 424.96 37.57 425.43 36.35 422.84 35.65 420.46 33.88 420.57 33.87 421.97 32.27 423.45 29.46 424.08 28.66 421.11 25.86 417.83 24.67 416.07 22.9 415.1 19.13 411.83 17.8 411.22 17.41 410.18 17.36 407.38 16.81 406.12 15.14 405.73 12.89 405.97 11.92 404.96 11.66 401.96 10.78 400.03 8.42 399 8.34 397.81 6.38 396.24 4.22 391.26 2.43 390.38 1 387.12 1.05 385.68 2.4 384.33 2.43 382.33 3.39 381.55 3.53 379.5 3.15 378.19 3.8 376.52 2.95 374.14 2.57 368.88 3.22 367.54 3.45 365.28 4.99 363.65 4.71 362.91 5.3 360.91 5.98 360.53 6.9 358.48 6.92 357.14 7.75 354 9.97 350.14 9.96 349.58 12.73 346.13 14.79 345.59 16.19 344.05 18.21 339.74 19.65 337.6 21.52 333.24 20.72 330.82 20.76 327.42 20.36 326.37 20.82 324.89 20.79 321.98 21.11 318.55 20.44 317.51 20.46 315.95 21.09 314.27 19.93 312.82 19.58 311.3 17.9 307.48 17.02 306.65 16.17 304.31 13.63 303.87 12.3 303.21 11.59 302.19 9.71 300.7 9.1 300.72 8.03 298.64 6.63 296.85 8.2 295.18 8.62 293.57 9.76 292.11 9.31 289.17 8.5 287.84 8.59 286.73 9.77 286.61 10.62 285.12 12.02 284.21 13.99 282.2 14.45 281.04 16.06 280.99 19.12 281.48 21.37 282.16 22.96 280.89 24.98 279.81 27.01 281.18 28.21 281.3 29.87 279.96 32.42 279.23 33.52 279.75 33.8 281.29 35.26 283.03 37.47 284.38 39.16 283.59 40.89 283.55 42.82 282.62 43.5 283.97 48.4 285.92 50.23 287.41 53.89 287.2 55.37 288.95 59.19 288.87 60.34 290.21 61.6 293.54 64.69 295.24 65.8 294.47 66.76 292.69 67.92 293.72 69.94 293.38 70.47 292.4 73.81 290.77 75.77 289.02 76.86 290.31 76.34 291.45 76.73 293.26 77.44 293.38 78.27 295.04 79.63 294.46 81.69 296.02 82.65 296.1 83.85 297.55 84.73 299.49 85.74 299.65 87.69 301.81 88.69 301.76 90.82 302.79 92.13 304.69 93.3 307.24 96.24 308.82 99.45 309.05 101.29 308.66 103.31 310.25 105.05 308.68 107.21 307.55 107.87 304.7 108.06 302.35 109.29 300.67 110.98 299.42 112.35 296.38 112.25 295.63 Z" id="33540390"/>
<path d="M 296.8 194.87 295.71 195.56 294.91 198.52 293.33 199.72 293.69 201.79 290.48 202.15 289.24 200.91 287.04 197.76 284.56 195.9 282.96 195.26 282.38 196.06 277.97 197.42 277.49 198.4 277.78 200.28 277.5 202.18 278.19 205.97 277.46 209.24 278.13 211.47 281.82 213.42 283.06 215.81 282.52 218.9 279.74 221.38 280.67 224.98 278.77 226.81 276.83 226.97 276.24 229.49 273.37 232.77 269.49 232.12 267.47 234.37 267.51 237.58 265.42 237.6 262.83 238.03 257.91 238.42 257.49 240.8 258.18 247.1 258.56 248.91 255.51 249.39 255.11 250.67 253.41 250.61 251.91 251.47 251.21 252.53 251.53 254.3 253.02 258.62 254.25 259.34 254.02 263.18 253.2 264.96 251.47 266.51 251.79 268.42 250.44 269.43 249.78 272.88 249.35 273.43 250.37 276.7 250.95 280.38 251.09 283.9 251.64 285.27 251.51 287.7 249.84 289.34 249.09 295.27 249.26 295.89 247.91 297.33 247.25 300.05 245.6 301.19 244.92 302.18 245.42 304.89 246.52 305.9 247.8 308.98 247.81 310.56 249 314.45 247.47 316.16 245.68 318.99 244.21 320.83 241.87 321.54 241.5 322.79 238.48 320.73 238.18 320.1 232.53 317.45 231.55 316.58 230.1 316.83 227.68 319.72 225.49 320.25 223.12 320.13 222.66 321.2 220.62 321.63 216.21 320.12 214.8 321.41 214.15 322.94 212.45 323.48 210.83 324.96 205.43 324.48 203.57 323.79 199.58 324.11 198.08 326.38 198.29 327.21 196.43 328.37 195.01 328.55 192.47 326.53 192.87 325.3 192.04 323.73 192.1 322.73 189.69 319.36 189.14 319.09 188.36 315.94 185.73 312.66 184.12 311.92 179.85 311.72 178.86 309.66 175.7 305.63 173.69 307.33 171.86 307.89 167.98 311.67 162.89 318.56 161.43 317.41 160.49 318 158.93 320.74 157.93 318.29 155.94 315.95 155.43 314.81 156.13 313.6 157.92 311.79 158.87 308.44 158.82 306.22 158.14 304.78 157.1 304.17 152.18 302.63 151.13 301.34 148.65 296.51 148.16 294.66 145.14 293.83 139.8 295.57 138.51 294.09 134.85 292.44 130.94 292.58 128.07 293.63 124.92 294.37 121.25 293.31 117.82 293.57 116.82 293.97 116.73 295.28 114.27 295.06 112.25 295.63 110.38 291.16 109.17 290.39 107.06 286.59 104.74 284.56 103.96 282.01 104.22 281.15 103.59 279.62 106 278.59 106.09 276.98 107.29 276.33 108.1 274.76 109.98 272.13 110.61 269.8 110.23 267.52 111.32 265.87 110.23 264.45 110.28 261.99 107.68 260.72 106.92 259.72 106.89 256.58 107.47 254.88 110.85 252.52 108.01 250.58 107.44 248.53 104.87 245.68 104.6 244.52 102.75 241.16 102.46 237.19 101.53 234.91 100.64 233.76 102.36 228.07 101.92 227.74 102.55 223.51 105.6 219.14 105.85 217.72 107.05 215.67 107.06 211.04 104.72 208.69 103.61 207.05 103.84 204.29 103.3 203.6 103.8 200.18 104.37 199.68 104 197.14 104.18 195.8 109.13 193.45 111.84 190.17 112.25 188.61 113.45 186.93 117.53 192.03 120.14 192.95 121.49 195.33 125.67 199.26 126.65 199.56 130.47 198.59 133.89 199.05 134.65 199.54 136.72 199.17 139.94 201.24 141.47 201.7 143.1 199.83 144.07 199.65 148.81 197.36 152.25 196.3 153.19 196.63 155.94 196.06 154.98 194.28 155.61 191.5 157.01 190.45 157.16 189.19 158.1 188.72 159.21 187.22 158.59 183.12 160.99 181.24 162.36 179.55 162.09 178.75 163.22 176 163.19 174.15 164.96 174.48 166.65 174.32 169.6 170.44 173.36 167.61 173.14 166.62 173.8 165.42 174.07 162.66 174.84 160.79 174.97 158.61 176.52 155.74 176.65 154.08 175.82 152.66 176.54 151 176.06 148.96 177 146.73 176.59 145.42 178.01 142.19 179.79 140.62 180.97 141.85 182.59 139.61 183.64 135.65 185.04 134.85 186.75 129.33 186.75 127.29 188.21 124.25 190.7 120.28 194 121.43 195.51 119.28 198.86 116.25 204.35 114.99 206.32 115.3 210.02 114.86 211.25 115.34 211.57 114.08 210.55 111.78 208.14 109.21 209.57 108.52 209.3 107 209.76 105.85 211.18 104.84 211.09 103.95 212.66 103.16 215.18 103.15 218.35 102.11 219.87 100.46 221.92 101.81 224.47 101.77 225.4 100.33 226.23 100.26 226.99 98.92 226.75 97.65 228.23 96.69 229 95.34 230.1 95.09 232.17 92.87 233.26 90.59 234.01 90.5 237.09 87.43 239.63 87.29 239.98 89.77 240.84 91.04 240.45 94.41 239.38 96.18 241.27 97.45 241.9 98.48 240.85 99.95 241.6 102.06 243.23 102.73 244.42 105.01 244.47 106.58 243.51 110.01 243.27 113.82 244.06 115.31 246.08 116.15 247.49 114.64 249.57 113.27 252.47 112.8 258.68 110.59 263.67 110 264.13 110.27 268.07 109.61 270.69 109.8 271.75 110.32 275.8 110.17 277.69 111.22 281.64 111.89 283.67 113.03 284.81 115.25 285.08 116.72 284.64 118.75 285.31 120.35 285.09 122.16 286.89 124.69 287.61 126.67 288.64 126.74 292 128.45 293.34 130.9 294.04 135.02 293.23 136.84 293.24 138.16 293.93 140.67 295.33 142.03 295.07 144.96 294.18 147.25 294.92 148.47 293.1 150.41 294.33 152.26 293.98 154.6 292.85 155.58 293 157.12 291.6 157.81 290.78 159.08 290.79 160.29 289.44 161.11 289.07 162.31 289.8 165.56 289.52 168.54 292.29 169.01 298.04 174.83 298.24 180.06 296.8 184 297.52 185.6 297.23 187.66 296.49 189.63 297.02 190.42 296.55 192.85 296.8 194.87 Z" id="33540400"/>
</g>
</svg>