<?xml version="1.0"?>
<svg xmlns="http://www.w3.org/2000/svg" version="1.2" baseProfile="tiny" width="800" height="882" viewBox="0 0 800 882" stroke-linecap="round" stroke-linejoin="round">
<g id="dong">
<path d="M 291.5 160.53 292.41 165.79 291.39 169.28 291.02 178.8 292.81 183.71 296.19 185.98 296.08 187.63 298.26 190.43 300.13 190.51 304.41 192.47 305.25 194.33 308.16 195.29 311.22 197.31 314.28 200.5 315 202 319.3 202.42 322.59 201.71 324.13 199.85 329.1 200.19 330.13 199.51 335.17 203.49 335.15 205.3 336.41 207.8 340.49 209.19 342.62 210.87 348.14 213.01 347.96 216.49 349.05 219.47 347.34 223.79 347.45 227.53 348.93 228.44 350.65 227.6 353.25 229.45 355.32 228.19 359.64 229.3 363.98 228.56 366.14 230.09 367.17 232.74 373.19 234.23 372.68 236.94 373.39 238.33 376.64 240.89 379.72 244.72 384.77 244.78 385.84 243.51 385.25 240.82 383.95 238.9 380.28 236.8 376.95 232.8 376.2 228.52 375.06 226.12 377.24 223.58 379.45 218.27 381.37 215.34 397.71 220.61 400.83 210.79 408.42 213.16 410.39 212.47 412.79 214.94 414.43 220.52 416.74 220.16 420.48 220.47 424.18 217.02 426.53 214.04 425.62 211.96 427.17 210.76 427.83 208.77 429.79 209.38 430.15 212.4 432.73 214.93 434.4 215.35 436.32 214.3 440.49 214.46 444.19 215.84 451.26 216.63 455.58 218.06 460.6 214.66 463.9 214.9 467.51 216.23 471.29 213.53 472.7 218.18 472.04 223.64 473.7 225.52 473.71 227.57 475.14 232.57 477.35 237.64 479.35 241.12 479.73 244.56 483.03 246.45 489.24 253.34 490.59 254.42 498 255.35 501.86 254.09 506.49 253.66 511 255.07 517.52 261.67 519.09 262.45 517.25 264.57 517.15 266.51 518.15 270.24 517.16 273.74 516.71 279.13 513.4 284.96 510.68 285.87 510.3 289.95 516.28 300.14 517.28 304.23 519.09 306 520.54 309.98 522.16 312.46 523.47 311.93 525.21 316.31 525.16 319.7 526.99 321.88 530.62 325.01 534.99 329.98 536.24 334.46 538.2 337.83 539.44 341.29 536.83 344.01 536.37 346.94 534.09 350.08 531.03 350.08 531.03 356.88 530 359.07 526.67 359.07 524.18 362.79 518.57 368.39 516.04 369.67 512 372.75 512.22 376.21 509.46 378.6 508.18 381.33 505.75 381.84 504.26 383.5 504.47 386.92 507.41 390.11 508.46 392.49 508.09 395.38 509.49 397.7 507.26 402.21 508.54 404.18 508.85 408.04 508 410.62 505.56 414.28 502.97 416.93 500.53 418.55 500.14 421.41 500.74 423.36 499.17 424.76 498.97 429.19 499.56 430.61 499.19 433.7 495.93 434.37 494.04 433.97 493.73 431.05 492.35 426.77 492.51 423.83 493.9 420 492.3 415.85 489.97 413.08 486.63 412.37 483.21 410.31 481.52 408.16 480.46 402.69 478.88 399.12 477.77 390.88 474.2 391.81 472.83 396.92 471.96 397.58 472.1 401.36 473.21 402.78 470.12 404.8 470.6 405.63 466.71 413.01 462.83 416.63 462.13 419.88 459.11 422.36 457.27 422.77 455.16 424.57 453.67 427.44 451.61 429.93 449.44 435.89 448.45 433.94 445.02 432.86 443.87 431.3 439.38 430.55 436.98 425.43 433.48 422.47 432.63 419.14 427.86 415.84 422.29 414.12 421.01 412.83 418.8 414.43 418.66 416.78 416.79 417.24 416.3 420.5 416.99 426.68 416.9 429.81 414.15 437.56 414.22 441.38 412.99 443.89 413.76 446.04 412.67 450.2 411.67 451.79 413.27 455.26 413.7 458.67 412.61 463.47 410.67 464.5 410.7 461.81 408.42 459.95 402.96 460.45 398.77 457.43 398.25 455.67 396.14 454.17 396.59 451.23 393.76 450.7 393.1 448.37 386.9 442.6 385.19 440.02 382.66 439 380.95 441.95 379.3 447.07 373.26 443.53 371.33 445.09 369.72 444.7 367.36 448.13 363.09 448.94 361.81 447.42 358.56 448.17 357.5 451.65 358.04 453.62 355.76 453.54 350.71 451.75 349.85 452.57 345.31 452.24 344.38 450.28 341.57 449.76 332.59 451.76 329.23 450.63 325.85 450.49 322.41 448.45 322.55 445.34 319.54 441.09 320.84 435.45 320.33 433.45 321.22 429.85 320.49 426.33 322.65 419.88 321.63 418.52 322.2 416.33 320.55 414.28 321.33 409.17 320.4 407.68 320.89 405.62 323.28 403.73 326.68 397.87 331.27 395 332.7 394.88 332.42 391.49 329.92 388.02 328.81 385 326.04 381.19 327.14 378.57 327.06 369.93 325.7 365.98 322.71 361.75 322.32 359.97 320.56 358.27 320.4 355.62 318.86 351.33 316.08 349.4 313.44 341.58 310.86 338.25 307.82 332.11 306.06 326.92 307.57 323.93 307.77 318.42 309.37 313.17 308.87 309 307.63 306.37 303.25 307.15 298.66 305.17 292.48 298.75 290.07 295.15 287.76 289.41 285.92 287.17 282.58 280.71 282.81 277.82 278.91 275.7 276.04 272.57 270.71 270.56 267.04 270.27 263.28 269.15 260.88 270.52 260.35 272.37 257.48 274.72 253.54 276.25 248.99 275.83 245.54 268.94 243.74 267.43 242.82 265.29 242.03 258.45 245.05 252.27 246.15 248.19 246.23 245.87 243.83 244.56 241.92 245.05 240.66 241.93 238 240.76 238.13 235.71 239.75 232.03 240.05 229.29 241.74 225.5 241.01 222.42 239.54 220.77 236.38 213.99 235.86 213.77 236.19 209.64 238.57 208.08 242.66 202.3 242.6 198.66 244.05 195.58 243.42 193.93 242.84 188.84 243.96 185.92 243.96 182.88 246.33 180.08 250.4 179.87 253.08 178.42 254.4 176.44 256.72 177.88 260.27 177.04 261.26 175.35 261.23 173.22 262.79 170.78 264.54 165.15 266.77 160.84 269.47 159.94 274.26 162.38 276.79 157.89 279.13 157.02 282.2 156.87 285.97 157.53 287.77 158.85 289.61 158.85 291.5 160.53 Z" id="33550350"/>
<path d="M 426.35 5.03 431.59 8.49 429.63 16.17 430.39 23.46 431.42 24.06 431.87 26.83 434.48 28.59 432.82 30.47 429.55 32.29 431.01 33.69 431.15 35.43 428.77 36.73 427.75 39.15 428.86 41.7 428.71 45.4 429.34 49.25 435.53 57.05 434.21 59.98 434.66 61.8 430.99 61.72 431.3 70.21 430.73 71.29 430.88 75.19 429.51 79.69 430.57 88.01 433.46 96.15 433.7 99.11 435.47 101.82 435.32 104.15 431.19 107.74 432.91 113.02 432.67 117.34 433.09 119.38 436.32 124.37 439.15 125.79 441.28 123.73 443.91 125.71 445.43 128.37 444.7 131.24 445.15 134.76 446.5 137.75 445.39 140.2 445.51 142.15 447.93 144.32 448.37 147.67 451.56 151.09 450.18 153.23 451.03 154.92 453.93 156.32 454.29 162.26 449.6 165.18 448.9 168.92 449.4 170.84 448.16 172.72 446.24 172.36 443.74 173.14 442.86 169.7 438.51 168.72 438.52 166.91 437.31 164.54 433.09 165.25 430.56 164.25 429.84 168.76 426.62 169.24 425.29 170.51 426.31 173.54 423.79 174.88 422.5 179.23 423.91 181.47 423.45 185.17 424.96 189.03 424.86 191.85 425.76 196.37 426.42 203.7 427.83 208.77 427.17 210.76 425.62 211.96 426.53 214.04 424.18 217.02 420.48 220.47 416.74 220.16 414.43 220.52 412.79 214.94 410.39 212.47 408.42 213.16 400.83 210.79 397.71 220.61 381.37 215.34 379.45 218.27 377.24 223.58 375.06 226.12 376.2 228.52 376.95 232.8 380.28 236.8 383.95 238.9 385.25 240.82 385.84 243.51 384.77 244.78 379.72 244.72 376.64 240.89 373.39 238.33 372.68 236.94 373.19 234.23 367.17 232.74 366.14 230.09 363.98 228.56 359.64 229.3 355.32 228.19 353.25 229.45 350.65 227.6 348.93 228.44 347.45 227.53 347.34 223.79 349.05 219.47 347.96 216.49 348.14 213.01 342.62 210.87 340.49 209.19 336.41 207.8 335.15 205.3 335.17 203.49 330.13 199.51 329.1 200.19 324.13 199.85 322.59 201.71 319.3 202.42 315 202 314.28 200.5 311.22 197.31 308.16 195.29 305.25 194.33 304.41 192.47 300.13 190.51 298.26 190.43 296.08 187.63 296.19 185.98 292.81 183.71 291.02 178.8 291.39 169.28 292.41 165.79 291.5 160.53 295.59 159.4 298.06 156.29 299.51 155.81 302 152.47 304.95 149.94 302.21 147.14 299.9 142.66 296.38 140.1 295.23 136.66 293.37 133.23 290.96 131.28 290.78 129.35 291.83 126.85 288.31 124.35 287.35 121.67 285.96 120.92 285.48 118.93 280.16 114.99 277.06 115.44 275.58 114.6 272.21 108.64 267.43 105.99 263.4 104.24 263.34 102.67 261.08 99.15 260.51 94.97 261.77 92.86 263.52 92.2 265.02 87.77 267.94 85.27 269.41 84.76 269.89 81.54 271.88 77.17 274.38 74.55 276.21 71.78 277.9 67.27 279.58 63.99 278.2 62.24 279.52 57.06 280.79 55.26 280.46 53.12 281.96 50.62 284.91 47.46 288.38 46.2 293.19 47.25 297.01 45.92 299.84 42.43 303.9 43.45 307.21 45.56 311.51 45.89 318.73 47.49 321.71 46.73 325.84 42.58 327.43 43.18 330.56 42.13 330.77 41.22 335.68 41.92 337.66 43.57 342.72 40.68 342.75 39.87 350.06 36.29 351.77 31.83 354.84 29.15 358.73 28.85 363.69 31.65 366.13 29.63 367.45 29.84 369.2 32.22 372.81 32.73 377.56 34.3 379.46 35.86 379.58 37.46 384.52 33.52 384.52 31.38 388.82 26.26 390.62 25.93 392.61 24.09 397.24 23.61 399.74 19.37 399.5 13.95 401.43 12.47 403.95 7.38 406.12 6.3 408.98 1.69 410.63 1 412.53 2.17 419.57 1.33 422.76 3.56 424.06 5.28 426.35 5.03 Z" id="33550360"/>
<path d="M 494.04 433.97 496.44 438.82 502.05 445.01 505.84 448.38 507.07 450.86 508.75 457.9 512.42 464.36 516.04 468.05 517.57 470.85 523.55 477.16 529.45 480.29 532.55 480.82 535.56 480.61 541.67 481.23 551.05 486.99 552.45 488.23 556.41 489.99 561.7 494.35 564.94 495.75 572.59 497.64 575.66 499.08 578.35 501.65 575.97 504.79 572.52 506.3 571.66 505.74 568.9 509.69 560.88 504.69 558.24 508.88 560.37 511.44 547.07 532.63 533.67 524.16 529.53 530.92 530.29 537.17 523.54 537.81 523.64 541 525.65 542.16 528.14 545.12 532.86 546.65 534.81 548.98 536.16 549.2 537.61 553.18 537.5 555.21 534.82 554.92 530.9 551.83 528.68 551.2 525.07 551.24 520.53 551.9 515.16 550.91 510.01 548.6 507.47 548.11 504.34 545.49 502.43 547.2 499.24 553.01 496.63 553.4 493.88 552.88 491.38 550.25 490.14 550.96 489.49 555.41 487.29 558.04 484.13 559.85 481.4 562.21 478.08 564.29 471.98 565.7 469.61 565.39 465.57 563.6 463.46 561.11 462.26 558.39 460.72 558.04 458.15 555.76 456.29 559.53 454.17 561.33 451.69 556.94 448.77 558.82 448.28 560.62 441.02 567.23 441.01 570 439.3 572.02 433.48 575.68 429.79 576.63 428.2 578.09 425.88 578 424.14 579.01 420.16 577.46 418.8 575.77 419.14 572.94 415.32 574.43 413.61 576.26 414.3 578.26 413.53 583.66 411.34 583.88 406.57 587.67 404.67 590.18 400.88 590.67 399.08 594.51 398.73 601 397.16 603.69 395.23 604.9 393.33 607.9 393.18 611.48 394.17 613.01 395.92 613.28 395.96 616.51 393.54 619.58 393.82 621.48 392.88 624.96 394.19 627.47 396.82 630.89 395.77 633.55 390.95 632.59 387.94 633.58 386.68 635.45 383.35 634.27 383.12 632.26 380.94 630.67 374.79 631.7 370.91 630.19 367.22 627.28 365.77 628.85 366.45 631.53 365.99 636.31 361.91 643.91 361.77 647.44 359.53 650.65 361.11 652.5 360.02 655.39 359.78 658.43 360.54 663.28 362.34 667.21 360.6 671.29 362.24 673.94 366.09 676.39 366.54 677.94 361.34 685.55 359.09 685.92 355.85 688.56 355.28 690.66 352.52 692.24 350.83 696.01 348.32 696.65 347.04 699.48 347.08 701.5 345.38 704.4 345.73 706.41 344.06 707.1 339.14 707.02 332 705.76 327.58 702.46 320.57 703.74 318.2 704.47 315.9 706.21 314.74 705.87 312.06 707.31 309.07 706.83 305.32 713.23 301.9 712.82 299.89 713.46 296.45 711.32 295.66 708.73 293.16 707.11 291.57 705.24 289.54 699.92 287.57 697.15 285.7 697.52 284.25 696.21 280.56 688.29 277.35 685.26 273.48 683.86 270.49 682.03 269.24 678.9 266.18 678.16 261.87 673.27 260.31 670.43 258.36 669.28 257.32 667.05 255.09 664.45 253.29 663.35 246.21 664.11 245.36 661.6 243.34 660.39 239.79 659.86 236.76 660.26 233.45 657.09 224.97 654.7 221.12 656.22 218.56 655.79 213.31 653.86 210.64 649.14 206.18 644.63 205.03 644.86 200.44 642.41 197.53 641.95 194.23 639.05 193.29 637.12 190.41 635.6 187.82 631.94 188.5 628.95 190.3 625.64 187.97 618.76 184.81 614.93 180.48 612.21 175.3 610.46 173.19 608.27 171.29 607.78 163.65 609.3 162.19 611.19 158.8 612.85 155.52 611.96 153.85 609.63 147.89 609.22 139.77 606.42 136.83 607.2 135.7 608.96 132.57 611.53 129.45 609.23 127.03 608.42 124.37 604.08 125.83 602.76 126.6 599.19 128.23 595.81 129.13 591.87 128.75 587.79 129.82 585.82 125.98 583.61 125.72 579.51 127.19 575.7 127.11 570.08 129.93 562.78 132.55 560.28 132.56 555.58 130.83 552.84 132.49 550.4 131.36 546.73 131.58 534.28 133.15 531.47 134.7 532.37 139.49 531.57 142.25 533.07 146.85 531.17 149.88 530.7 153.63 529.14 156.99 527.19 164.23 522.36 166.12 523 170.8 521.9 174.17 519.54 177.82 518.41 186.29 516.91 185.83 520.55 191.15 525.23 191.85 527.98 194.65 531 197.01 529.85 199.72 531.99 202.28 532.97 204.64 532.58 206.1 534.56 211.26 538.42 215.76 535.63 217.96 535.38 219.81 536.94 221.24 536.46 228.85 537.67 231.97 541.49 236.02 541.24 235.48 539.66 236.65 537.08 239.87 535.75 241 531.94 243.15 529.12 245.8 528.19 247 526.74 249.41 528.09 253.13 526.91 257.66 527.56 258.88 525.96 261.95 524.97 261.5 521.32 262.07 519.8 264.56 517.48 264.31 515.43 265.11 511.85 266.65 509.46 270.91 505.76 270.72 502.35 274.28 500.49 274.04 499.03 271.71 495.48 270.4 491.06 272.75 490.31 274.68 488.1 275.58 483.99 275.02 482.74 275.83 476.46 278.02 473.89 279.41 468.91 283.7 462.54 284.69 460.04 283.73 456.19 284.54 454.79 282.33 453.36 282.97 450.76 281.2 446.7 282.6 442.84 283.58 435.22 283.18 432.19 283.98 428.6 286.61 428.9 288.68 426.51 291.7 427.4 295.17 426.38 298.04 423.68 300.18 419.8 305.7 419.31 305.42 417.12 307.68 416.37 309.81 417.27 310.87 419.79 315.67 421.45 317.31 425.44 320.49 426.33 321.22 429.85 320.33 433.45 320.84 435.45 319.54 441.09 322.55 445.34 322.41 448.45 325.85 450.49 329.23 450.63 332.59 451.76 341.57 449.76 344.38 450.28 345.31 452.24 349.85 452.57 350.71 451.75 355.76 453.54 358.04 453.62 357.5 451.65 358.56 448.17 361.81 447.42 363.09 448.94 367.36 448.13 369.72 444.7 371.33 445.09 373.26 443.53 379.3 447.07 380.95 441.95 382.66 439 385.19 440.02 386.9 442.6 393.1 448.37 393.76 450.7 396.59 451.23 396.14 454.17 398.25 455.67 398.77 457.43 402.96 460.45 408.42 459.95 410.7 461.81 410.67 464.5 412.61 463.47 413.7 458.67 413.27 455.26 411.67 451.79 412.67 450.2 413.76 446.04 412.99 443.89 414.22 441.38 414.15 437.56 416.9 429.81 416.99 426.68 416.3 420.5 416.79 417.24 418.66 416.78 418.8 414.43 421.01 412.83 422.29 414.12 427.86 415.84 432.63 419.14 433.48 422.47 436.98 425.43 439.38 430.55 443.87 431.3 445.02 432.86 448.45 433.94 449.44 435.89 451.61 429.93 453.67 427.44 455.16 424.57 457.27 422.77 459.11 422.36 462.13 419.88 462.83 416.63 466.71 413.01 470.6 405.63 470.12 404.8 473.21 402.78 472.1 401.36 471.96 397.58 472.83 396.92 474.2 391.81 477.77 390.88 478.88 399.12 480.46 402.69 481.52 408.16 483.21 410.31 486.63 412.37 489.97 413.08 492.3 415.85 493.9 420 492.51 423.83 492.35 426.77 493.73 431.05 494.04 433.97 Z" id="33550110"/>
<path d="M 789.16 449.75 792.97 452.89 794.32 452.92 796.33 456.48 798.62 458.42 797.66 461.92 798.05 468.63 799 470.14 798.89 473.16 794.53 477.27 792.51 479.75 792.05 482.15 788.71 485.12 783.92 485.76 779.63 485.43 778.94 488.74 776.24 491.74 779.68 496.45 779.49 498.86 775.68 507.23 774.6 511.53 773.43 512.72 773.68 514.83 774.91 516.4 779.91 527.44 780.89 528.12 781.69 530.54 780.85 534.58 777.91 534.87 775.79 538.45 772.9 537.73 770.96 538.46 767.45 538.22 764.94 540.39 762.86 540.59 766.17 546.37 767.88 550.05 766.91 552.06 764.63 553.91 765.02 556.71 763.09 561.23 766.1 569.83 765.84 571.81 762.37 574.37 757.64 576.32 755.42 579.14 755.97 583.67 757.17 585.68 759.62 595.59 759.01 603.14 757.08 607.72 762.95 614.65 764.61 614.96 770.15 612.42 775.05 610.95 778.52 610.9 781.54 608.82 783.94 613.43 777.62 619.36 777.03 624.13 774.72 626.86 773.47 630.27 769.27 636.33 766.77 637.3 764.98 641.07 761.33 642.25 757.49 639.49 754.3 640.86 752.11 643.62 749.99 643.83 748.8 645.31 744.64 646.42 744.02 647.32 740.96 647.8 736.08 646.42 733.95 642.35 731.59 645.83 724.86 649.93 720.9 649.89 719.21 652.25 716.87 656.95 709.73 660.7 705.87 665.23 703.62 665.75 700.07 665.59 691.89 663.15 690.04 665.09 687.44 665.82 684.27 668.19 682.92 672.33 671.83 679.69 676.25 685.05 679.62 690.02 680.85 693.25 684.09 697.23 687.48 700.53 687.46 702.07 690.74 703.22 692.49 704.6 695.69 708.47 697.41 709.1 701.06 713.73 705.52 714.79 708.45 711.92 710.85 712.45 712.15 710.84 715.14 710.58 717.43 709.02 719.98 710.73 721.76 716.28 723.76 717.77 725.74 723.38 725.94 726.23 729.85 735.33 729.54 737.23 731.21 738.76 733.87 743.78 735.12 747.89 736.78 750.72 736.28 755.33 735.35 758.74 739.93 761.15 741.14 762.76 744.57 764.58 745.8 765.87 746.16 773.91 741.46 776.83 736.25 779.47 731.85 779.74 725.49 781.17 720.66 782.7 712.37 787.22 711.33 788.07 705.61 790.15 699.33 791.31 686.89 795.23 684.87 795.27 681.6 796.59 673.33 798.87 667.68 800.1 663.16 803.61 660.47 805.2 654.14 807.22 645.02 807.97 641.06 809.36 626.92 810.35 621.77 811.24 615.33 813.97 612.78 813.62 605.73 816.96 600.14 818 597.29 819.6 593.11 818.46 592.74 816.23 596.92 811.49 598.6 806.09 599.29 802.26 598.36 798.01 596.38 792.98 596.01 788.24 595.1 785.6 587.27 778.55 585.49 777.41 580.78 777.17 573.16 776.18 564.33 775.78 555.54 772.85 547.63 769.01 540.1 764.7 535.97 761.17 527.11 755.51 522.87 751.93 520.2 747.97 517.42 745.08 512.74 741.29 510.15 738.27 509.89 736.67 511.99 734.84 515.51 733.15 519.93 733.25 525.06 735.47 528.68 738.29 533.76 738.37 537.8 735.55 540.51 730.91 540.76 720.58 540.32 716.8 538.72 710.1 536.56 702.93 540.1 700.65 543.04 700.25 547.09 700.63 550.18 699.63 556.94 699.27 558.08 697.39 556.34 691.71 549.07 679.67 545.27 675.16 543.8 672.06 543.29 666.12 544.18 664.26 550.63 657.49 550.81 652.21 551.33 649.17 551.82 640.97 551.22 637.78 550.22 628.9 550.66 626.12 552.04 624.31 555.14 617.67 556.86 614.77 558.59 609.59 558.88 607.41 562.13 596.35 565.17 591.36 566.64 586.38 566.56 583.82 563.95 583.76 561.25 581.02 561.03 578.21 562.57 575.08 558.71 572.79 556.47 569.39 550.07 569.16 547.47 567.95 545.75 566.21 545.08 564.03 546.31 557.72 544.26 553.43 542.32 552.64 537.61 553.18 536.16 549.2 534.81 548.98 532.86 546.65 528.14 545.12 525.65 542.16 523.64 541 523.54 537.81 530.29 537.17 529.53 530.92 533.67 524.16 547.07 532.63 560.37 511.44 558.24 508.88 560.88 504.69 568.9 509.69 571.66 505.74 572.52 506.3 575.97 504.79 578.35 501.65 581.27 500.13 584.72 494.97 587.36 493.29 588.89 490.6 586.75 485.45 586.88 480.88 585.13 478.18 582.9 477.97 581.22 476.82 580.2 472.91 580.73 470.04 583.44 464.24 584.4 462.99 589.11 460.34 590.03 461.36 590.12 464.82 603.34 464.52 611.03 466.81 614.47 467.13 617.54 469.84 621.85 469.93 623.93 466 629.38 468.34 629.71 469.35 634.47 468.77 637.58 471.08 639.99 471.42 641.45 473.13 644.74 478.89 646.89 483.28 648.91 485.78 652.55 485.37 654.21 486.03 656.51 484.72 655.74 481.74 656.62 478.93 661.07 475.23 662.23 470.61 665.23 470.02 665.53 467.29 661.21 455.41 662.73 450.9 665.07 449.34 669.2 443.77 668.28 443.21 668.09 439.66 668.52 434.92 670.31 430.12 672.17 431.13 674.12 430.29 677.09 425.65 676.48 423.71 677.01 420.33 678.63 417.42 680.69 416.23 682.74 413.38 683.86 408.92 686.24 407.75 689.6 406.96 689.72 403.06 691.54 401.94 699.85 404.78 700.16 406.86 702.46 409.08 704.3 407.86 705.89 404.91 706.48 400.19 708.77 396.38 709.2 394.38 712.18 399.9 718.26 402.99 719.4 405.86 718 408.57 717.31 411.83 718.26 412.69 718.18 415.37 719.53 420.24 721.88 419.63 724.53 421.68 726.55 419.62 730.54 418.73 733.31 421.8 732.77 424.34 735.09 431.34 738.42 433.27 739.76 432.34 743 432.83 744.11 432.1 749.17 431.63 748.39 429.86 749.36 424.7 750.43 423.23 750.87 420.56 754.17 421.52 755.83 423.36 756.99 426.77 760.78 432 763.15 437.49 763.74 440.22 763.4 445.35 764.33 449.23 767.43 448.32 769.36 445.68 771.43 444.51 774 440.53 777.16 442.54 778.96 441.21 780.43 442.33 784.45 447.05 788.63 450.04 789.16 449.75 Z" id="33550320"/>
<path d="M 537.61 553.18 542.32 552.64 544.26 553.43 546.31 557.72 545.08 564.03 545.75 566.21 547.47 567.95 550.07 569.16 556.47 569.39 558.71 572.79 562.57 575.08 561.03 578.21 561.25 581.02 563.95 583.76 566.56 583.82 566.64 586.38 565.17 591.36 562.13 596.35 558.88 607.41 558.59 609.59 556.86 614.77 555.14 617.67 552.04 624.31 550.66 626.12 550.22 628.9 551.22 637.78 551.82 640.97 551.33 649.17 550.81 652.21 550.63 657.49 544.18 664.26 543.29 666.12 543.8 672.06 545.27 675.16 549.07 679.67 556.34 691.71 558.08 697.39 556.94 699.27 550.18 699.63 547.09 700.63 543.04 700.25 540.1 700.65 536.56 702.93 538.72 710.1 540.32 716.8 540.76 720.58 540.51 730.91 537.8 735.55 533.76 738.37 528.68 738.29 525.06 735.47 519.93 733.25 515.51 733.15 511.99 734.84 509.89 736.67 510.15 738.27 512.74 741.29 517.42 745.08 520.2 747.97 522.87 751.93 527.11 755.51 535.97 761.17 540.1 764.7 547.63 769.01 555.54 772.85 564.33 775.78 561.2 778.75 556.63 786.42 554.57 786.61 552.25 788.11 550.89 787.81 548.37 792.92 548.86 795.51 546.54 796.6 539.39 791.21 527.92 788.64 526.37 789.43 523.26 789.39 520.07 791.12 521.57 794.71 518.42 796.15 516.83 797.71 511.73 799.29 504.18 805.58 501.69 809.01 498.78 810.79 497.18 810.6 492.8 813.52 489.64 811.99 487.08 811.91 484.59 809.85 482.86 811.3 480.51 809.8 475.75 810.71 469.49 808.82 465.18 812.36 462 819.92 461.89 821.91 460.68 823.81 458.54 824.07 458.55 825.57 456.62 827.61 452.89 830.1 450.05 833.24 443.9 836.78 440.62 839.89 440.51 843.3 437.82 846.38 438.33 850.99 437.96 855.96 434.63 859.88 434.46 861.14 437.54 866.57 437.79 868.75 440.8 877.62 435.24 880.35 432.97 879.81 430.73 880.5 426.84 877.79 422.48 879.65 421.39 881 419.88 878.52 417.91 878.78 416.01 875.9 416.13 872.4 414.36 869.54 411.82 868.47 408.98 865.98 406.18 865.79 404.31 867.08 403.6 869.2 401 869.73 399.8 871.73 391.84 871.98 389.98 870.27 385.92 871.3 385.65 873.01 383.37 874.06 378.64 873.32 376.72 874.23 375.73 870.5 373.36 869.49 373.28 867.23 371.5 865.22 370.4 860.88 371.35 859.1 371.07 857.17 374.88 856.36 376.34 855.31 376.16 851.54 373.3 851.04 369.75 851.19 369.49 847.71 364.33 848.78 363.73 850.29 361.39 851.48 356.71 851.43 357.92 849.12 358.32 840.23 354.44 835.89 351.11 833.4 348.94 829.42 349.57 825.37 348.95 822.52 344.05 817.48 342.33 812.97 340.98 810.78 342.15 806.89 341.39 804.61 338.35 799.54 336.57 800.77 332.7 800.85 330.46 799.47 328.85 799.63 326.79 797.36 320.7 797.58 319.52 796.31 317.26 796.17 315.46 794.8 312.46 795.45 312.3 793.45 308.62 791.33 308.26 788.87 306.85 786.41 308.3 783.52 307.67 781.05 304.78 778.64 302.84 775.59 302.97 774.17 296.62 769.89 293.85 770.68 291.34 768.8 291.33 766.99 289.93 763.4 291.67 759.2 294.65 757.26 293.04 753.53 292.62 750.89 293.94 749.01 294.56 742.72 296.09 739.81 299.67 737.97 302.53 734.87 302.65 733 304.79 728.58 307.87 726.39 306.58 720.33 305.37 717.48 306.38 714.36 305.32 713.23 309.07 706.83 312.06 707.31 314.74 705.87 315.9 706.21 318.2 704.47 320.57 703.74 327.58 702.46 332 705.76 339.14 707.02 344.06 707.1 345.73 706.41 345.38 704.4 347.08 701.5 347.04 699.48 348.32 696.65 350.83 696.01 352.52 692.24 355.28 690.66 355.85 688.56 359.09 685.92 361.34 685.55 366.54 677.94 366.09 676.39 362.24 673.94 360.6 671.29 362.34 667.21 360.54 663.28 359.78 658.43 360.02 655.39 361.11 652.5 359.53 650.65 361.77 647.44 361.91 643.91 365.99 636.31 366.45 631.53 365.77 628.85 367.22 627.28 370.91 630.19 374.79 631.7 380.94 630.67 383.12 632.26 383.35 634.27 386.68 635.45 387.94 633.58 390.95 632.59 395.77 633.55 396.82 630.89 394.19 627.47 392.88 624.96 393.82 621.48 393.54 619.58 395.96 616.51 395.92 613.28 394.17 613.01 393.18 611.48 393.33 607.9 395.23 604.9 397.16 603.69 398.73 601 399.08 594.51 400.88 590.67 404.67 590.18 406.57 587.67 411.34 583.88 413.53 583.66 414.3 578.26 413.61 576.26 415.32 574.43 419.14 572.94 418.8 575.77 420.16 577.46 424.14 579.01 425.88 578 428.2 578.09 429.79 576.63 433.48 575.68 439.3 572.02 441.01 570 441.02 567.23 448.28 560.62 448.77 558.82 451.69 556.94 454.17 561.33 456.29 559.53 458.15 555.76 460.72 558.04 462.26 558.39 463.46 561.11 465.57 563.6 469.61 565.39 471.98 565.7 478.08 564.29 481.4 562.21 484.13 559.85 487.29 558.04 489.49 555.41 490.14 550.96 491.38 550.25 493.88 552.88 496.63 553.4 499.24 553.01 502.43 547.2 504.34 545.49 507.47 548.11 510.01 548.6 515.16 550.91 520.53 551.9 525.07 551.24 528.68 551.2 530.9 551.83 534.82 554.92 537.5 555.21 537.61 553.18 Z" id="33550330"/>
<path d="M 600.11 272.27 600.2 275.2 601.26 278.45 603.54 280.68 606.51 282.4 606.43 285.87 604.89 287.71 605.93 289.31 607.81 289.83 610.54 291.75 611.43 291.15 615.9 295.9 616.86 298.86 621.63 298.09 622.87 302.09 622.66 303.95 624.33 306.07 624.92 308.33 627.77 309.16 629.65 310.73 630.94 313.08 630.05 314.49 631.37 320.7 633.55 326.09 636.2 330.24 638.21 332.26 639.85 332.75 641.04 334.66 640.45 336.21 642.86 338.11 646.03 336.84 648.64 337.12 654.15 333.01 657.27 333.57 658.61 335.19 660.48 334.28 665.48 337.38 664.05 339.69 665.37 341.04 673.8 346.26 675.53 347.98 678.1 351.9 681.06 354.62 687.81 356.84 687.34 359.01 693.23 362.68 695.01 365.53 693.34 367.78 694.16 370.88 696.76 372.28 697.51 373.72 699.61 372.49 701.92 373.3 701.97 374.58 704.85 376.8 708.99 376.93 714.07 378.29 714.84 377.02 717.52 376.23 719.58 376.98 718.1 378.92 718.65 380.82 717.13 382.41 717.05 385.62 714.07 387.32 709.2 394.38 708.77 396.38 706.48 400.19 705.89 404.91 704.3 407.86 702.46 409.08 700.16 406.86 699.85 404.78 691.54 401.94 689.72 403.06 689.6 406.96 686.24 407.75 683.86 408.92 682.74 413.38 680.69 416.23 678.63 417.42 677.01 420.33 676.48 423.71 677.09 425.65 674.12 430.29 672.17 431.13 670.31 430.12 668.52 434.92 668.09 439.66 668.28 443.21 669.2 443.77 665.07 449.34 662.73 450.9 661.21 455.41 665.53 467.29 665.23 470.02 662.23 470.61 661.07 475.23 656.62 478.93 655.74 481.74 656.51 484.72 654.21 486.03 652.55 485.37 648.91 485.78 646.89 483.28 644.74 478.89 641.45 473.13 639.99 471.42 637.58 471.08 634.47 468.77 629.71 469.35 629.38 468.34 623.93 466 621.85 469.93 617.54 469.84 614.47 467.13 611.03 466.81 603.34 464.52 590.12 464.82 590.03 461.36 589.11 460.34 584.4 462.99 583.44 464.24 580.73 470.04 580.2 472.91 581.22 476.82 582.9 477.97 585.13 478.18 586.88 480.88 586.75 485.45 588.89 490.6 587.36 493.29 584.72 494.97 581.27 500.13 578.35 501.65 575.66 499.08 572.59 497.64 564.94 495.75 561.7 494.35 556.41 489.99 552.45 488.23 551.05 486.99 541.67 481.23 535.56 480.61 532.55 480.82 529.45 480.29 523.55 477.16 517.57 470.85 516.04 468.05 512.42 464.36 508.75 457.9 507.07 450.86 505.84 448.38 502.05 445.01 496.44 438.82 494.04 433.97 495.93 434.37 499.19 433.7 499.56 430.61 498.97 429.19 499.17 424.76 500.74 423.36 500.14 421.41 500.53 418.55 502.97 416.93 505.56 414.28 508 410.62 508.85 408.04 508.54 404.18 507.26 402.21 509.49 397.7 508.09 395.38 508.46 392.49 507.41 390.11 504.47 386.92 504.26 383.5 505.75 381.84 508.18 381.33 509.46 378.6 512.22 376.21 512 372.75 516.04 369.67 518.57 368.39 524.18 362.79 526.67 359.07 530 359.07 531.03 356.88 531.03 350.08 534.09 350.08 536.37 346.94 536.83 344.01 539.44 341.29 538.2 337.83 536.24 334.46 534.99 329.98 530.62 325.01 526.99 321.88 525.16 319.7 525.21 316.31 523.47 311.93 522.16 312.46 520.54 309.98 519.09 306 517.28 304.23 516.28 300.14 510.3 289.95 510.68 285.87 513.4 284.96 516.71 279.13 517.16 273.74 518.15 270.24 517.15 266.51 517.25 264.57 519.09 262.45 522.64 259.32 523.34 257.75 522.91 253.16 524.91 250.62 528.86 249.41 532.17 245.76 541.24 246.12 541.57 244.85 546.05 245.04 548.47 246.1 550.04 245.4 553.39 248.29 554.25 250.3 558.21 252.32 559.92 254.96 565.4 258.17 566.47 261.28 569.2 263.9 568.45 267.46 569.43 267.79 576.38 266.82 578.73 265.12 582.79 264.47 586.21 267.59 587.48 267.93 590.04 270.59 590.23 273.59 594.14 275.47 597.44 272.49 600.11 272.27 Z" id="33550120"/>
<path d="M 235.86 213.77 236.38 213.99 239.54 220.77 241.01 222.42 241.74 225.5 240.05 229.29 239.75 232.03 238.13 235.71 238 240.76 240.66 241.93 241.92 245.05 243.83 244.56 246.23 245.87 246.15 248.19 245.05 252.27 242.03 258.45 242.82 265.29 243.74 267.43 245.54 268.94 248.99 275.83 253.54 276.25 257.48 274.72 260.35 272.37 260.88 270.52 263.28 269.15 267.04 270.27 270.71 270.56 276.04 272.57 278.91 275.7 282.81 277.82 282.58 280.71 285.92 287.17 287.76 289.41 290.07 295.15 292.48 298.75 298.66 305.17 303.25 307.15 307.63 306.37 308.87 309 309.37 313.17 307.77 318.42 307.57 323.93 306.06 326.92 307.82 332.11 310.86 338.25 313.44 341.58 316.08 349.4 318.86 351.33 320.4 355.62 320.56 358.27 322.32 359.97 322.71 361.75 325.7 365.98 327.06 369.93 327.14 378.57 326.04 381.19 328.81 385 329.92 388.02 332.42 391.49 332.7 394.88 331.27 395 326.68 397.87 323.28 403.73 320.89 405.62 320.4 407.68 321.33 409.17 320.55 414.28 322.2 416.33 321.63 418.52 322.65 419.88 320.49 426.33 317.31 425.44 315.67 421.45 310.87 419.79 309.81 417.27 307.68 416.37 305.42 417.12 305.7 419.31 300.18 419.8 298.04 423.68 295.17 426.38 291.7 427.4 288.68 426.51 286.61 428.9 283.98 428.6 283.18 432.19 283.58 435.22 282.6 442.84 281.2 446.7 282.97 450.76 282.33 453.36 284.54 454.79 283.73 456.19 284.69 460.04 283.7 462.54 279.41 468.91 278.02 473.89 275.83 476.46 275.02 482.74 275.58 483.99 274.68 488.1 272.75 490.31 270.4 491.06 271.71 495.48 274.04 499.03 274.28 500.49 270.72 502.35 270.91 505.76 266.65 509.46 265.11 511.85 264.31 515.43 264.56 517.48 262.07 519.8 261.5 521.32 261.95 524.97 258.88 525.96 257.66 527.56 253.13 526.91 249.41 528.09 247 526.74 245.8 528.19 243.15 529.12 241 531.94 239.87 535.75 236.65 537.08 235.48 539.66 236.02 541.24 231.97 541.49 228.85 537.67 221.24 536.46 219.81 536.94 217.96 535.38 215.76 535.63 211.26 538.42 206.1 534.56 204.64 532.58 202.28 532.97 199.72 531.99 197.01 529.85 194.65 531 191.85 527.98 191.15 525.23 185.83 520.55 186.29 516.91 177.82 518.41 174.17 519.54 170.8 521.9 166.12 523 164.23 522.36 156.99 527.19 153.63 529.14 149.88 530.7 146.85 531.17 142.25 533.07 139.49 531.57 134.7 532.37 133.15 531.47 132 528.14 127.42 523.17 125.56 522.83 121.64 520.54 120.19 520.8 117.76 519.36 113.4 518.77 109.51 516.61 105.13 517.03 104.69 517.91 99.82 520.86 95.95 519.71 94.61 518.48 90.18 517.47 87.47 515.65 85.8 513.67 80.44 514.96 78.57 513.29 75.22 513.98 73.83 516.44 70.26 517.28 68.19 519.07 66.24 518.02 64.18 515.68 61.76 515.2 60.68 513.44 58.62 513.02 57.5 511.38 53.59 511.65 53.22 506.28 49.5 499.39 54.23 493.84 54.5 490.62 56.94 487.38 62.39 484.28 62.65 479.09 64.19 475.58 61.61 470.94 61.63 468.78 60.31 465.74 62.5 461.13 60.83 458.61 59.32 449.79 59.56 448.51 62.49 445.54 63.87 442.65 58.73 438.13 56.17 436.56 56.38 432.28 54.89 425.83 48.7 425.44 44.51 425.75 44.14 423.45 39.97 419.87 38.16 419.5 35.26 416.15 33.84 413.2 31.73 411.16 26.23 411.69 22.92 411.34 19.16 409.47 19.07 407.25 16.02 406.52 13.48 403.99 8.42 403.22 6.49 397.13 2.76 398.48 1 397.96 4.19 397.4 7.62 396.1 5.78 391.71 7.68 387.16 8.22 383.94 11.8 381.56 14.63 377.98 16.82 376.08 18.84 371.29 23.99 368.13 24.56 364.01 26.48 363.86 27.12 360.54 25.97 358.05 26.24 354.61 29.58 353.86 30.73 350.94 32.71 349.68 31 347.15 34.46 343.38 35.81 340.16 38.7 336.4 37.02 334.2 39.06 330.62 40.42 329.38 41.23 324.36 42.43 322.28 40.42 320.26 37.77 315.99 35.12 313.91 35.81 310.99 33.65 307.59 32.38 304.64 29.16 301.14 28.98 296.75 27.99 295.6 26.36 290.06 24.05 287.63 20.89 279.38 19.77 274.65 21.55 272.57 21.28 275.19 23.65 276.64 28.44 276.55 33.8 278.83 40.39 277.99 43.58 276.61 45.5 278.29 48.9 278.71 52.93 277.18 57.39 278.8 59.28 276.91 61.75 276.52 63.32 274.8 65.96 274.38 68.91 272.57 72.94 272.54 72.94 268.24 74.03 265.13 76.68 260.92 80.74 261.34 81.88 262.49 86.85 260.08 87.48 258.72 90.28 257.97 92.38 255.89 94.52 254.84 98.16 256.89 105.08 256.76 106.95 254.05 108.33 254.36 111.76 252.1 114.47 251.25 122.15 241.95 131.08 237.31 137.22 234.7 137.94 232.62 140.83 231.71 141.98 232.65 145.53 232.59 148.81 228.61 146.73 221.93 148.23 220.73 149.5 218.17 149.02 215.43 151.3 214.98 153.26 211.87 155.88 209.59 158.35 208.47 161.35 206.18 162.41 204.26 164.48 202.9 166.05 200.22 169.81 200.04 173.78 201.01 175.38 200.16 177.75 200.58 182.36 204.83 182.57 207.39 184.92 212.33 186.72 213.95 187.5 217.2 190.54 215.79 192.62 213.47 198.61 211.12 202.19 211.69 203.33 212.69 206.04 212.93 209.38 212.26 213.44 208.38 214.98 210.19 217 210.88 219.04 209.1 220.37 209.8 226.08 209.65 228.91 212.81 233.24 214.1 235.86 213.77 Z" id="33550340"/>
</g>
</svg>