<?xml version="1.0"?>
<svg xmlns="http://www.w3.org/2000/svg" version="1.2" baseProfile="tiny" width="800" height="759" viewBox="0 0 800 759" stroke-linecap="round" stroke-linejoin="round">
<g id="dong">
<path d="M 396.58 222.99 399.09 226.69 403.18 228.08 406.12 229.64 412.59 230.23 414.2 231.23 415.2 235.01 414.87 236.39 413.29 239.74 411.33 241.45 408.96 242.07 407.09 243.01 401.86 246.33 396.93 247.59 394 248.76 392.75 249.93 392.55 251.29 391.22 253.34 390.54 255.77 389.68 260.74 390.57 262.32 391.47 259.88 393.58 260.95 394.59 261.89 397.5 262.22 400.52 265.72 401.18 269.17 402.97 272.3 403.79 275.39 408.84 281 410.95 282.76 412.7 284.94 414.32 284.93 416.13 283.19 417.33 283.44 420.3 286.32 422.85 290.95 424.66 291.37 422.66 296.76 421.55 297.86 423.62 299.07 424.32 300.27 425.83 300.86 427.09 302.54 426.54 304.83 426.26 308.68 428.77 310.5 430.25 313.86 429.8 314.29 427 314.93 424.85 315.09 423.55 315.72 422.47 317.44 419.73 316.71 416.68 315.19 410.95 316.26 406.99 317.68 406.23 318.55 403.98 319.96 402.09 320.38 399.18 319.5 398.3 320.53 395.39 319.83 391.74 319.66 389.22 317.84 385.36 318.9 383.33 319.76 381.91 321.79 377.84 324.76 378.51 327.41 377.79 328.36 374.47 327.66 373.16 325.89 372.61 324.16 371.2 324.12 370.57 323.06 368.91 322.15 368.06 323.1 364.9 322.81 364.75 321.65 363.27 320 361.25 316.88 359.95 316.42 357.83 316.55 355.77 314.84 353.78 315.24 353.28 317.95 350.95 319.43 350.01 325.68 350.73 327.43 349.71 328.97 349.54 331.33 347.6 332.91 346.39 333.07 342.75 336.12 338.71 340.09 335.42 337.48 334.44 332.04 334 331.01 330.84 329.59 326.98 328.47 325.52 326.86 323.98 326.92 321.72 326.16 320.26 326.19 317.87 324.74 314.2 324.4 313.46 325.22 312.23 328.47 311.14 330.28 309.51 331.14 309.83 334.47 308.66 336.41 307.06 337.71 304.66 340.37 302.37 341.25 298.12 339.19 295.14 337.99 294.6 336.48 291.37 335.7 289.72 335.99 287.91 337.76 286.92 339.39 282.54 341.95 281.43 342.82 278.32 346.11 277.78 344.07 278.54 342.2 276.81 340.99 276.97 338.9 275.44 336.28 276.39 334.13 275.79 331.3 275.03 329.76 276.44 329.57 277.05 328.05 271.58 325.78 270.21 325.5 269.75 322.19 269.69 318.9 268.52 316.12 270.76 312.04 270.81 310.26 268.98 309.2 266.79 309.25 264.58 309.71 264.5 307.99 263.9 306.63 261.49 304.69 259.65 304.35 259.89 303.37 259.33 301.69 258.1 301.39 255.21 302.52 253.4 301.28 251.88 301.04 251.37 298.24 248.77 297.76 244.64 295.69 243.24 293.85 241.85 293.37 240.08 293.51 238.88 291.76 236.59 291.06 233.7 290.65 231.75 291.15 229.18 290.19 229.06 287.41 228.11 287.31 225.53 285.36 222.98 284.88 222.21 283.12 221.14 282.36 221.61 281.01 223.12 280.72 224.67 278.93 228.35 277.3 229.66 277.01 232.09 271.73 232.47 266.4 232.84 265.32 234.59 264.93 236.22 259.63 238.48 261.16 240.96 261.96 242.19 262.73 243.22 264.87 244.87 265.26 246.7 264.76 249.23 267.82 254.63 268.1 255.93 269.68 256.35 271.27 257.93 271.34 259.75 272.78 262.12 273.2 263.1 275.47 265.03 275.77 266.5 273.93 267.73 275.23 270.05 276.29 271.42 274.17 273.14 273.14 275.19 274.13 277.16 270.69 278.58 269.27 278.83 267.48 279.98 267.3 282.42 265.43 283.54 263.95 283.12 262.72 284.46 260.35 284.07 257.56 283.36 255.88 282.13 254.62 283.1 253.3 282.52 252.16 283.4 249.08 282.76 248.33 282.13 245.98 280.55 242.43 278.94 241.2 276.52 240.68 275.83 239.31 273.11 236.75 271.66 234.43 268.91 232.15 263.67 228.58 261.38 228.96 260.03 227.37 257.82 227.1 256.93 226.18 255.1 225.39 253.86 225.51 252.42 224.16 251.96 219.26 251.03 217.73 250.83 214.2 248.31 212.98 249.01 211.51 249.23 208.73 250.18 207.8 251.21 205.22 251.74 201.7 252.87 200.43 253.57 198.76 253.98 196.15 253.57 193.99 254.06 191.67 257.04 192.24 257.96 191.69 257.6 189.72 258.63 188.19 258.32 186.62 259.42 184.42 259.33 179.76 260.31 177.98 260.17 174.02 259.46 171.12 261.23 170.41 263.61 169.58 264.58 168.3 267.1 167.93 271.14 167.86 273.38 169.88 274.08 171.47 276.59 174.83 276.43 176.25 278.23 178.33 278.88 179.71 280.97 181.21 281.71 182.73 287.16 180.55 288.38 181.69 290.74 181.62 291.7 183.36 293.62 185.24 295.64 184.48 296.56 182.88 298.08 182.36 300.8 184.45 302.54 184.67 305.09 183.8 306.7 184.48 309.31 184.25 309.72 189.43 310.74 193.26 311.83 195.26 313.71 196.31 314.9 196.12 316.75 198.11 318.66 196.22 321.17 195.53 325.11 194.83 326.42 195.8 328.42 196.54 329.29 195.96 331.81 197.6 332.11 198.96 333.16 200.76 334.81 199.61 336.02 199.93 338.26 199.28 338.86 201.06 340.53 200.9 341.45 203.11 343.32 203.63 343.47 206.36 345.41 208.91 345.76 210.57 346.65 211.53 346.71 213.73 349.55 214.91 351.28 217.19 352.04 219.53 353.72 219.62 354.83 220.46 356.5 220.21 357.99 223.6 359.11 223.94 360.77 225.3 364.41 225.52 366.99 227.96 370.11 227.41 370.46 226.05 373.31 226.18 376.29 221.51 378.65 220.03 379.87 219.83 382.95 221.18 386.09 224.05 387.81 224.44 389.5 221.31 390.08 216.61 388.43 215.24 387.9 214.18 388.19 212.89 390.24 209.73 389.81 208.96 390.9 207.34 393.83 207.15 393.58 211.49 394.59 219.4 394.43 221.01 394.72 223.73 396.58 222.99 Z" id="33560110"/>
<path d="M 486.36 313.11 482.25 310.7 481.52 308.29 481.46 306.87 480.5 304.51 479.3 303.05 477.99 303.91 476.85 305.44 474.79 306.37 470.66 303.43 469.3 303.55 467.28 302.37 465.53 304.58 465.12 305.8 463.93 305.66 462.55 306.57 460.09 307.37 458.75 306.67 457.32 309.16 454.92 311.14 452.2 312.54 452 315.35 451.15 317.31 451.27 319.67 447.87 320.59 447.23 320.12 444.59 322.02 443.1 322 442.27 323.57 438.77 321.45 436.98 320.83 436.37 319.52 435.1 318.63 434.83 317.45 433.72 316.21 430.8 314.61 430.25 313.86 428.77 310.5 426.26 308.68 426.54 304.83 427.09 302.54 425.83 300.86 424.32 300.27 423.62 299.07 421.55 297.86 422.66 296.76 424.66 291.37 422.85 290.95 420.3 286.32 417.33 283.44 416.13 283.19 414.32 284.93 412.7 284.94 410.95 282.76 408.84 281 403.79 275.39 402.97 272.3 401.18 269.17 400.52 265.72 397.5 262.22 394.59 261.89 393.58 260.95 391.47 259.88 390.57 262.32 389.68 260.74 390.54 255.77 391.22 253.34 392.55 251.29 392.75 249.93 394 248.76 396.93 247.59 401.86 246.33 407.09 243.01 408.96 242.07 411.33 241.45 413.29 239.74 414.87 236.39 415.2 235.01 414.2 231.23 412.59 230.23 406.12 229.64 403.18 228.08 399.09 226.69 396.58 222.99 395.86 220.6 395.64 218.4 395.9 214.29 395.74 208.99 395.98 201.29 396.75 195.81 397.9 191.24 399.09 189.01 400.66 187.48 403.93 185.27 408.2 183.43 408.96 182.2 411.29 175.54 411.41 174.31 414.13 167.65 414.86 163.31 414.91 161.69 415.83 157.04 420.07 148.14 424.5 147.79 426.25 147.92 428.69 149.09 432.91 152.88 435.09 155.13 436.46 157.29 438.51 161.31 441.36 164.18 442.25 165.64 444.73 172.08 448.4 176.77 452.25 179 455.5 179.31 458.15 178.38 459.94 177.31 463.43 174.31 464.13 172.26 465.63 166.41 468.64 166.45 463.25 157.2 458.21 152.97 454.85 149.81 453.86 147.64 455.84 147.04 457.73 147.14 460.24 148.27 461.1 149.39 464.19 150.92 465.39 152.27 467.08 152.57 468.73 153.4 473.93 158.21 475.78 159.43 478.54 162 480.61 163.47 483.52 164.62 485.45 163.69 487.3 163.77 488.2 165.22 490.62 165.79 491.83 167.27 493.38 167.53 493.64 168.73 495.19 169.64 497.72 171.79 500.05 172.41 501.19 173.38 504.85 173.01 506.58 174.02 508.7 174.2 509.41 175.05 511.12 175.05 514.82 177.48 516.75 177.26 518.26 177.75 520.13 180.28 520.64 181.93 519.61 182.98 518.84 185.01 519.26 186.93 519.02 188.57 520.26 190.56 519.54 191.52 520 193.34 518.77 193.78 517.85 195.42 516.25 196.44 516.71 197.79 515.3 200.04 513.49 205.17 513.31 206.7 511.38 207.56 508.93 207.21 506.97 209.45 506.58 212.27 503.64 213.19 501.87 212.92 498.82 213.22 495.53 214.6 495.67 216.65 494.84 218.52 493.52 219.66 493.53 221.57 492.8 222.62 493.4 225.08 493.16 225.81 494.32 227.18 496.24 228.2 497.92 230.18 500.81 230.32 503.36 231.22 504.89 232.65 505.61 234.91 507.23 236.13 509.32 238.35 511.14 239.28 514.73 243.44 515.64 246.01 517.42 247.76 518.03 249.04 519.56 248.91 522.07 248.1 525.14 246.57 528.91 243.17 531.14 242.4 533.33 242.26 541.93 246.22 544.24 246.99 543.55 251.95 542.13 253.62 541.91 256.58 541.17 259.47 541.54 261.48 541.44 264.6 541.5 271.53 539.12 273.22 536.78 274.23 536.48 278.8 536.82 280.37 534.33 281.66 532.28 284.31 527.42 283.59 521.77 284.58 520.45 286.34 517.79 287.76 517.56 291.56 516.83 292.07 515.37 295.02 512.61 297.45 511.83 300.2 509.73 304.37 507.48 307.57 506.49 313.77 504.42 317.76 503.69 321.01 501.68 321.39 499.14 317.17 498.57 313.62 497.31 310.5 495.02 310.44 492.12 311.84 490.37 309.25 487.85 312.39 486.36 313.11 Z" id="33560310"/>
<path d="M 576.45 162.31 579.1 163.41 583.37 167.11 584.78 168.69 587.69 170.57 591.07 171.71 592.11 174.04 593.44 174.54 596.41 177.05 598.1 178.86 600.49 184.35 601.78 186.47 603.08 187.35 606.96 188.41 610.33 189.75 613.59 191.36 611.96 193.03 611.05 195.04 612.85 197.12 611.4 200.19 611.1 205.05 609.43 209.81 610.96 211.4 611.6 212.78 613.7 215.57 615.63 217.22 615.18 221.28 615.5 222.18 617.27 222.85 618.91 225.72 619 226.7 621.09 228.31 622.72 229.1 624.56 234.17 625.15 237.73 627.81 242.04 624.6 245.6 622.51 250.04 620.8 256.04 619.44 257.7 619.04 259.21 618.19 259.86 618.41 263.59 619.65 265.5 621.98 267.03 624.47 268.19 626.05 269.3 627.67 269.73 631.85 269.36 636.34 269.81 637.32 272.96 636.25 276.73 637.15 277.96 637.52 279.8 638.67 281.96 637.59 284.24 637.5 286.11 634.37 287.98 632.17 289.91 632.03 290.55 628.95 290.7 625.62 292.92 623.83 295.79 623.88 299.83 621.68 299.5 619.27 301.9 616.11 304.13 615.93 306.93 612.36 310.5 610.04 311.99 607.99 312.64 607.03 316.47 606.1 317.77 606.36 318.71 604.99 321.16 603.41 322.15 603.53 323.9 604.93 326.06 605.57 329.17 605.06 332.71 604.43 333.22 601.61 333.67 599.82 332.92 598.17 333.25 595.57 335.73 592.73 336.42 592.73 338.04 592.08 339.7 592.06 341.36 588.7 342.63 584.11 343.35 582.3 342.81 579.59 340.9 578.7 340.71 577.77 341.88 576.32 342.5 574.08 345.27 570.82 345.59 568.88 346.15 567.27 346.15 563.94 347.74 562.21 347.94 559.06 350.27 559.41 352.81 561.84 352.8 563.48 354.33 565.03 356.68 564.4 357.53 566.48 361.71 566.93 364.2 566.22 365.16 561.73 364.83 560.18 366.1 561.04 368.47 560.5 371.98 558.73 373.9 558.39 374.85 556.56 377.26 555.53 379.53 552.63 382.75 545.36 377.68 543.65 377.12 542.29 373.85 540.91 371.38 538.38 370.87 536.56 371.28 534.77 372.33 531.38 373.16 529.3 372.41 528.51 373.35 526.89 373.7 525.41 372.5 523.63 372.37 522.58 370.43 521.81 366.72 520.87 364.55 520.75 363.1 521.47 360.56 518.04 359.15 514.94 358.68 510.76 356.74 507.58 356.39 506.2 355.23 503.63 352.36 502.12 350.2 501.02 347.6 499.9 346.24 498.54 345.47 496.82 345.26 496.21 343.96 493.82 343.06 489.2 340.94 490.54 335.78 488.84 334.99 487.37 331.95 487.64 329.27 484 326.13 485.26 322.89 485.66 319.61 485.38 315.84 486.36 313.11 487.85 312.39 490.37 309.25 492.12 311.84 495.02 310.44 497.31 310.5 498.57 313.62 499.14 317.17 501.68 321.39 503.69 321.01 504.42 317.76 506.49 313.77 507.48 307.57 509.73 304.37 511.83 300.2 512.61 297.45 515.37 295.02 516.83 292.07 517.56 291.56 517.79 287.76 520.45 286.34 521.77 284.58 527.42 283.59 532.28 284.31 534.33 281.66 536.82 280.37 536.48 278.8 536.78 274.23 539.12 273.22 541.5 271.53 541.44 264.6 541.54 261.48 541.17 259.47 541.91 256.58 542.13 253.62 543.55 251.95 544.24 246.99 541.93 246.22 533.33 242.26 531.14 242.4 528.91 243.17 525.14 246.57 522.07 248.1 519.56 248.91 518.03 249.04 517.42 247.76 515.64 246.01 514.73 243.44 511.14 239.28 509.32 238.35 507.23 236.13 505.61 234.91 504.89 232.65 503.36 231.22 500.81 230.32 497.92 230.18 496.24 228.2 494.32 227.18 493.16 225.81 493.4 225.08 492.8 222.62 493.53 221.57 493.52 219.66 494.84 218.52 495.67 216.65 495.53 214.6 498.82 213.22 501.87 212.92 503.64 213.19 506.58 212.27 506.97 209.45 508.93 207.21 511.38 207.56 513.31 206.7 513.49 205.17 515.3 200.04 516.71 197.79 516.25 196.44 517.85 195.42 518.77 193.78 520 193.34 519.54 191.52 520.26 190.56 519.02 188.57 519.26 186.93 518.84 185.01 519.61 182.98 520.64 181.93 520.13 180.28 518.26 177.75 516.75 177.26 514.82 177.48 511.12 175.05 509.41 175.05 508.7 174.2 506.58 174.02 504.85 173.01 501.19 173.38 500.05 172.41 497.72 171.79 495.19 169.64 493.64 168.73 493.38 167.53 491.83 167.27 490.62 165.79 488.2 165.22 487.3 163.77 485.45 163.69 483.52 164.62 480.61 163.47 478.54 162 475.78 159.43 473.93 158.21 468.73 153.4 467.08 152.57 465.39 152.27 464.19 150.92 461.1 149.39 460.24 148.27 457.73 147.14 455.84 147.04 453.86 147.64 453.56 144.27 451.99 138.72 451.39 134.84 451.7 131.89 452.98 128.6 455.32 126.73 458.26 126.04 461.04 125.03 463.89 124.7 477.99 122.21 481.42 120.6 483.76 119.05 487.53 114.61 490.92 111.36 491.97 109.21 492.96 112.24 494.05 113.41 496.44 117.6 496.4 119.73 497.31 120.97 496.98 121.91 497.42 128.65 497.28 129.89 498.89 131.44 501.16 131.88 502.48 133.14 505.33 133.68 507.28 134.44 508.65 132.91 513 134.55 515.11 134.69 515.94 137.05 517.43 138.9 517.79 140.24 518.7 140.76 519.72 142.4 520.94 142.73 521.85 144.63 525.15 144.4 531.37 141.96 533.81 140.55 537.02 137.64 538.5 136.81 539.32 134.84 542.39 133.42 544.39 129.37 546 129.18 547.31 130.03 550.36 130.54 552.3 129.9 552.22 128.98 554.13 128.09 553.95 129.53 556.88 128.22 561.4 129.68 565.68 129.54 567.92 128.89 571.76 128.81 572.93 129.46 577.51 130.75 580.14 131.97 581.15 132.81 582.04 134.51 582.29 136.09 580.88 136.93 578.9 139.87 577.97 140.2 577.85 141.61 576.64 143.89 576.29 146.54 574.99 149.8 575.4 152.02 573.73 154.51 571.66 155.58 570.62 157.71 571.22 160.8 573.09 163.26 576.45 162.31 Z" id="33560320"/>
<path d="M 772.7 283.76 772.81 289.9 771.73 290.88 771.03 293.25 770.08 293.95 769.55 296.77 769.94 298.37 768.64 299.72 770.26 301.49 770.66 304.33 765.5 306.39 763.88 307.48 763.85 308.71 765.42 311.03 765.97 317.43 766.64 319.09 766.6 320.96 767.66 323.19 766.17 326.66 767.02 328.6 766.76 331.92 765.78 335.81 762.75 337.99 759.21 344.25 758.04 347.77 757.29 351.38 755.06 355.73 754.27 356.62 751.45 357.2 749.45 358.38 749.6 360.87 751.46 365.16 751.91 366.75 749.91 368.1 750.13 370.41 748.08 375.58 748.4 376.93 748.38 383.34 746.63 386.09 744.5 387.99 743.77 389.14 742.11 389.36 741.93 391.71 740.95 394.41 740.15 395.18 738.21 398.87 737.75 400.59 735.76 404.45 735.51 405.42 733.59 407.9 732.8 409.85 730.57 411.87 730.08 413.51 728.79 414.84 727.78 417.32 726.86 418.36 726.75 420.05 727.55 423.87 726.95 428.47 727.43 431.04 726.96 434.99 729.28 436.91 730.63 439.36 731.69 439.73 734.04 441.84 737.75 443.46 740.48 446.43 744.79 449.9 748.61 452.13 751.73 453.18 753.52 454.7 756.58 456.82 759.63 458.44 762.05 461.79 763.34 465.64 765.36 468.91 768.31 472.12 769.27 472.37 771.27 470.64 773.42 472.62 777.35 479.76 779.76 481.6 780.81 481.38 783.23 484.23 786.29 486.42 790.4 489.8 790.08 491.92 790.85 494.04 791.92 495.03 792.85 497.24 793.95 498.55 794.77 500.48 795.1 502.42 796.73 504.23 797.9 508.83 799 512.37 798.36 514.39 796.12 519.06 796.01 520.03 794.98 521.57 791.49 520.6 788.82 520.34 783.4 520.99 779.89 519.92 774.35 519.07 770.69 519.36 765.89 520.72 762.87 521.8 758.51 521.86 758.11 521.64 757.33 521.33 752.77 518.32 751.4 516.54 751.23 515.45 746.94 511.77 742.83 509.93 740.16 508.47 737.66 506.23 735.56 506.41 731.94 503.81 729.02 501.44 726.91 498.06 725.05 496.96 721.42 496.63 717.34 497.2 715.83 496.98 712.45 494.37 709.94 492.13 707.49 491.38 704.73 487.52 704.98 484.63 700.9 479 698.3 476.58 696.57 473.39 695.29 473.44 690.29 474.73 686.96 477.47 685.8 481.44 681.99 483.93 682.79 485.28 681.09 487.03 681.32 489.26 677.97 493.28 677.18 496.03 675.49 498.52 674.13 501.96 672.57 501.54 669.54 501.7 666.18 499.71 662.39 500.02 659.19 501.52 655.65 500.52 654.83 501.81 653.39 502.26 652.01 501.73 647.53 501.59 643.91 499.25 641.88 499.54 639.73 497.29 635.56 495.7 633.54 493.33 631.25 491.6 628.61 488.46 629.17 487.1 626.59 485.97 623.19 482.9 622.34 481.39 620.99 477.62 620.82 475.98 618.82 472.63 616.25 471.54 614.43 471.84 611.54 470.63 610.22 469.75 605.43 467.34 604.24 465.52 602.75 462.28 600.77 459.05 599.87 459.23 599.47 457.32 600.79 455.91 601.22 454.76 600.36 453.28 598.4 452.91 596.54 451.3 595.57 452.42 594.56 452.58 591.42 450.52 588.08 450.02 587.07 450.16 582.87 447.47 577.65 445.38 576.65 445.32 573.55 442.31 572.12 441.3 573.03 438.01 571.88 435.61 570.77 430.97 571.4 427.77 570.81 426.92 570.4 424.72 568.66 422.61 567.07 418.92 565.43 415.92 564.58 412.7 563.07 410.02 561.6 408.39 561.34 406.55 559.72 403.36 558.87 399.55 558.83 396.76 556.92 393.18 555.27 391.99 554.64 389.21 554.04 388.89 552.66 385.02 552.63 382.75 555.53 379.53 556.56 377.26 558.39 374.85 558.73 373.9 560.5 371.98 561.04 368.47 560.18 366.1 561.73 364.83 566.22 365.16 566.93 364.2 566.48 361.71 564.4 357.53 565.03 356.68 563.48 354.33 561.84 352.8 559.41 352.81 559.06 350.27 562.21 347.94 563.94 347.74 567.27 346.15 568.88 346.15 570.82 345.59 574.08 345.27 576.32 342.5 577.77 341.88 578.7 340.71 579.59 340.9 582.3 342.81 584.11 343.35 588.7 342.63 592.06 341.36 592.08 339.7 592.73 338.04 592.73 336.42 595.57 335.73 598.17 333.25 599.82 332.92 601.61 333.67 604.43 333.22 605.06 332.71 605.57 329.17 604.93 326.06 603.53 323.9 603.41 322.15 604.99 321.16 606.36 318.71 606.1 317.77 607.03 316.47 607.99 312.64 610.04 311.99 612.36 310.5 615.93 306.93 616.11 304.13 619.27 301.9 621.68 299.5 623.88 299.83 623.83 295.79 625.62 292.92 628.95 290.7 632.03 290.55 632.17 289.91 634.37 287.98 637.5 286.11 642.56 285.78 644.95 286.6 647.99 288.03 653.18 291.83 653.97 292.73 655.48 293.18 660.49 292.63 664.64 292.48 668.83 296.32 672.16 297.95 675.04 297.54 677.94 299.05 680.84 301.15 684.34 302.94 685.86 304.42 689.06 305.7 690.03 304.52 690.44 303.02 691.75 302.47 692.69 301.33 695.16 301.86 697.89 303.19 700.6 302.33 701.94 300.97 705.77 297.89 706.75 294.26 707.99 292.24 709.05 291.62 710.15 286.79 709.74 284.79 707.45 282.29 708.07 281.02 708.99 274.78 709.15 271.53 710.23 270.06 710.23 268.92 708.76 266.11 710.53 263.42 716.62 265.05 718.57 265.77 721.43 264.74 723.4 265.34 724.44 264.86 730.66 265.48 732.28 266.21 736.99 273.17 742.67 274.89 747.93 272.75 748.03 272.25 751.46 271.22 753.69 273.01 754.5 272.82 756.02 274.6 757.24 276.74 758.98 278.2 760.83 278.87 764.59 278.03 766.19 278.99 768.44 282.11 769.19 281.83 772.7 283.76 Z" id="33560330"/>
<path d="M 486.36 313.11 485.38 315.84 485.66 319.61 485.26 322.89 484 326.13 487.64 329.27 487.37 331.95 488.84 334.99 490.54 335.78 489.2 340.94 493.82 343.06 496.21 343.96 496.82 345.26 498.54 345.47 499.9 346.24 501.02 347.6 502.12 350.2 503.63 352.36 506.2 355.23 507.58 356.39 510.76 356.74 514.94 358.68 518.04 359.15 521.47 360.56 520.75 363.1 520.87 364.55 521.81 366.72 522.58 370.43 523.63 372.37 525.41 372.5 526.89 373.7 528.51 373.35 529.3 372.41 531.38 373.16 534.77 372.33 536.56 371.28 538.38 370.87 540.91 371.38 542.29 373.85 543.65 377.12 545.36 377.68 552.63 382.75 552.66 385.02 554.04 388.89 554.64 389.21 555.27 391.99 556.92 393.18 558.83 396.76 558.87 399.55 559.72 403.36 561.34 406.55 561.6 408.39 563.07 410.02 564.58 412.7 565.43 415.92 567.07 418.92 568.66 422.61 570.4 424.72 570.81 426.92 571.4 427.77 570.77 430.97 571.88 435.61 573.03 438.01 572.12 441.3 573.55 442.31 576.65 445.32 577.65 445.38 582.87 447.47 587.07 450.16 588.08 450.02 591.42 450.52 594.56 452.58 595.57 452.42 596.54 451.3 598.4 452.91 600.36 453.28 601.22 454.76 600.79 455.91 599.47 457.32 599.87 459.23 597.07 459.84 594.49 462.62 593.97 467.22 591.37 470.51 591.09 471.79 591.8 472.45 591.75 476 589.87 478.8 590.93 481.12 590.28 482.84 589.49 488.95 588.84 490.96 585.09 495.51 584.22 495.42 581.11 497.17 581.39 499.3 580.37 502.28 581.11 502.78 582.01 505.67 580.67 510.01 582.05 513.01 581.32 520.44 581.38 522.14 581.97 523.06 578.87 525.75 577.76 525.96 576.64 527.14 575.26 526.71 573.34 527.55 570.32 525.73 563.41 526.5 561.37 525.86 558.22 527.58 555.69 528.44 553.88 526.76 552.08 531.17 548.25 532.57 544.51 530.16 542.15 531.1 541.06 530.81 539.9 528.89 538.3 528.01 536.14 528.26 535.88 526.76 533.55 525.78 529.53 525.95 527.78 527.3 527.23 526.47 525.11 525.33 523.42 526.19 521.56 527.99 520.63 529.96 517.46 529.91 515.93 532.15 514.67 532.28 511.31 531 505.7 532.28 501.75 531.25 500.86 530.75 498.97 531.05 496.95 528.27 492.7 524.4 489.72 520.91 487.49 520.85 485.17 519.1 482.6 518.88 481.18 519.36 479.41 518.87 476.73 514.15 473.44 513.15 468.01 513.38 465.93 514.17 462.61 517.19 460.47 518.78 459.22 520.53 457.09 522.31 453.65 525.95 452.38 527.59 448.47 525.63 441.85 523.94 439.96 523.17 438.21 520.91 436.4 519.39 432.72 520.23 428.5 518.9 426.47 517.84 421.56 516.2 421.21 514.24 420.27 513.27 417.53 511.43 415.69 507.89 414.35 507.25 410.16 506.52 407.26 506.81 405.27 508.44 402.06 508.23 401.72 506.85 400.62 505.25 398.17 505.38 396.48 503.37 395.14 501.23 395.42 498.67 392.77 493.84 390.54 491.26 388.85 490.01 386.95 487.95 381.4 488.25 380.43 490.07 377.72 492.1 373.52 490.01 369.24 488.13 368.48 489.35 367.96 490.35 366.17 490.57 365.51 485.32 364.66 481.28 364.75 479.41 363.7 475.24 362.61 473.66 362.76 472.08 364.26 469.99 363.2 468.37 362.04 465.68 360.64 463.76 358.78 458.23 360.88 456.12 362.12 453.81 364.47 452.89 365.32 451.22 364.66 449.63 364.54 447.7 364.9 444.94 367.05 442.73 368.85 442.05 369.44 440.56 368.65 436.37 369.13 435.18 369.07 432.11 370.03 430.73 369.04 428.79 368.26 428.57 367.35 426.51 366.26 425.24 365.67 420.81 366.15 419.95 365.32 417.11 363.88 414.46 363.79 412.99 362.55 411.46 360.55 408.02 358.47 407.76 355.78 408.46 355.63 405.06 353.6 400.46 353.43 395.62 353.78 393.89 352.92 391.42 353.25 390.23 354.63 388.61 355.31 385.67 355.64 382.6 353.35 381.16 352.66 379.04 351.25 378.46 346.96 380.52 344.2 378.74 344.36 376.24 344.09 374.78 340.2 370.58 340.92 368.38 342.75 367.79 342.96 366.1 344.14 364.52 344.74 362.18 344.59 359.39 345.83 358.1 342.31 356.52 338.93 352.65 338.54 350.68 339.06 347.44 338.83 344.73 338.18 342.77 338.71 340.09 342.75 336.12 346.39 333.07 347.6 332.91 349.54 331.33 349.71 328.97 350.73 327.43 350.01 325.68 350.95 319.43 353.28 317.95 353.78 315.24 355.77 314.84 357.83 316.55 359.95 316.42 361.25 316.88 363.27 320 364.75 321.65 364.9 322.81 368.06 323.1 368.91 322.15 370.57 323.06 371.2 324.12 372.61 324.16 373.16 325.89 374.47 327.66 377.79 328.36 378.51 327.41 377.84 324.76 381.91 321.79 383.33 319.76 385.36 318.9 389.22 317.84 391.74 319.66 395.39 319.83 398.3 320.53 399.18 319.5 402.09 320.38 403.98 319.96 406.23 318.55 406.99 317.68 410.95 316.26 416.68 315.19 419.73 316.71 422.47 317.44 423.55 315.72 424.85 315.09 427 314.93 429.8 314.29 430.25 313.86 430.8 314.61 433.72 316.21 434.83 317.45 435.1 318.63 436.37 319.52 436.98 320.83 438.77 321.45 442.27 323.57 443.1 322 444.59 322.02 447.23 320.12 447.87 320.59 451.27 319.67 451.15 317.31 452 315.35 452.2 312.54 454.92 311.14 457.32 309.16 458.75 306.67 460.09 307.37 462.55 306.57 463.93 305.66 465.12 305.8 465.53 304.58 467.28 302.37 469.3 303.55 470.66 303.43 474.79 306.37 476.85 305.44 477.99 303.91 479.3 303.05 480.5 304.51 481.46 306.87 481.52 308.29 482.25 310.7 486.36 313.11 Z" id="33560340"/>
<path d="M 338.71 340.09 338.18 342.77 338.83 344.73 339.06 347.44 338.54 350.68 338.93 352.65 342.31 356.52 345.83 358.1 344.59 359.39 344.74 362.18 344.14 364.52 342.96 366.1 342.75 367.79 340.92 368.38 340.2 370.58 344.09 374.78 344.36 376.24 344.2 378.74 346.96 380.52 351.25 378.46 352.66 379.04 353.35 381.16 355.64 382.6 355.31 385.67 354.63 388.61 353.25 390.23 352.92 391.42 353.78 393.89 353.43 395.62 353.6 400.46 355.63 405.06 355.78 408.46 358.47 407.76 360.55 408.02 362.55 411.46 363.79 412.99 363.88 414.46 365.32 417.11 366.15 419.95 365.67 420.81 366.26 425.24 367.35 426.51 368.26 428.57 369.04 428.79 370.03 430.73 369.07 432.11 369.13 435.18 368.65 436.37 369.44 440.56 368.85 442.05 367.05 442.73 364.9 444.94 364.54 447.7 364.66 449.63 365.32 451.22 364.47 452.89 362.12 453.81 360.88 456.12 358.78 458.23 360.64 463.76 362.04 465.68 363.2 468.37 364.26 469.99 362.76 472.08 362.61 473.66 363.7 475.24 364.75 479.41 364.66 481.28 365.51 485.32 366.17 490.57 367.96 490.35 368.48 489.35 368.06 490.68 367.51 491.06 365.9 490.76 362.67 487.22 359.65 484.75 357.09 483.58 356.14 482.15 354.33 480.42 352.82 479.51 348.44 477.49 346.7 476.22 344.46 475.46 342.65 475.77 341.14 474.26 340.78 473.24 339.07 473.4 338.16 469.21 335.82 463.46 334.37 462.44 332.63 460.54 329.66 459.42 327.7 459.11 326.13 458.21 324.37 456.13 323.35 455.66 319.67 452.03 317.25 452.13 314.85 453.3 312.95 454.96 311.4 454.07 309.16 451.35 309.26 450.14 308.35 448.42 307.41 448.02 305.14 448.37 301.65 443.98 299.2 440.42 297.04 441.35 296.17 442.7 294.58 443.91 293.58 445.31 294.56 449.11 293.92 451.36 294.66 456.13 294.46 458.47 292.51 460.75 292.54 462.26 291.83 465.13 292.86 466.67 291.04 467.98 285.37 462.75 283.14 461.28 282.39 461.34 281.39 459.91 279.72 458.66 277.53 453.86 275.49 450.56 271.82 447.45 270.31 445.43 269.7 442.92 270.08 440.61 268.84 437.6 268.76 435.77 267.97 435.5 266.01 433.67 264.74 433.61 263.09 432.05 261.93 429.34 258.91 426.88 257.64 424.91 254.73 423.58 250.59 422.95 248.76 423.21 247.03 424.31 244.9 428.42 242.99 430.89 241.31 430.87 240.08 431.81 240.63 435.04 241.25 436.14 241.41 438.21 242.97 440.17 243.03 441.96 239.22 440.61 236.89 441.12 234.49 440.54 231.21 442.59 229.85 444.62 229.78 445.84 228.59 446.76 227.79 449.22 227.29 451.92 225.84 451.98 226.14 450.06 224.79 446.48 224.73 445.29 223.42 441.77 223.75 440.41 226.17 435.35 226.23 433.83 227.32 431.74 227.13 429.55 226.09 428.93 223.76 428.71 220.53 426.57 219.74 425.28 218.39 427.97 216.91 428.74 214.04 427.91 213.28 427.21 211.67 427.64 210.31 428.68 205.75 426.6 202.95 427.06 201.58 427.89 200.22 429.72 198.77 430.88 199.44 432.1 195.27 436.1 195.28 438.07 194.77 439.96 193.71 440.38 192.69 442.82 188.46 441.38 186.24 444 185.23 443.41 185.34 441.55 183.69 435.33 183.05 434.33 182.61 431.95 178.58 426.9 178.16 424.33 175.66 422.27 174.86 419.88 173.79 418.49 175.11 417.16 176.21 414.42 174.88 410.14 175.48 408.1 174.86 406.02 174.97 400.48 175.79 398.62 177.22 397.31 177.79 394.39 176.66 391.76 175.53 390.08 175.53 387.98 176.28 386.58 176.11 384.47 175.28 382.16 177.66 380.5 180.22 379.81 181.56 378.41 182.21 377.06 184.16 374.73 186.96 374.24 188.81 372.41 190.39 371.67 189.83 367.85 189.92 364.96 189.17 361.08 189.13 356.01 188.8 353.51 188.32 352.78 188.49 350.69 189.31 349.23 190.98 348.01 192 346.17 192.05 343.44 193.72 341.29 194.65 338.14 195.6 336.8 195.69 334.2 194.54 331.84 195.6 330.33 197.55 329.43 197.4 328.52 199.31 324.97 202.1 324.82 203.42 325.4 207.34 328.4 208.24 330.55 209.58 328.82 209.74 326.71 210.8 325.07 209.87 322.99 209.98 320.59 208.96 319.27 210.13 317.23 210.87 314.68 211.95 313.11 211.93 308.2 213.26 305.94 212.77 302.81 209.66 300.8 209.36 299.65 211.41 296.59 212.83 295.41 214.28 291.45 214.19 289.06 213.76 287.5 214.26 285.55 215.73 285.02 215.91 283.22 217.67 281.42 221.61 281.01 221.14 282.36 222.21 283.12 222.98 284.88 225.53 285.36 228.11 287.31 229.06 287.41 229.18 290.19 231.75 291.15 233.7 290.65 236.59 291.06 238.88 291.76 240.08 293.51 241.85 293.37 243.24 293.85 244.64 295.69 248.77 297.76 251.37 298.24 251.88 301.04 253.4 301.28 255.21 302.52 258.1 301.39 259.33 301.69 259.89 303.37 259.65 304.35 261.49 304.69 263.9 306.63 264.5 307.99 264.58 309.71 266.79 309.25 268.98 309.2 270.81 310.26 270.76 312.04 268.52 316.12 269.69 318.9 269.75 322.19 270.21 325.5 271.58 325.78 277.05 328.05 276.44 329.57 275.03 329.76 275.79 331.3 276.39 334.13 275.44 336.28 276.97 338.9 276.81 340.99 278.54 342.2 277.78 344.07 278.32 346.11 281.43 342.82 282.54 341.95 286.92 339.39 287.91 337.76 289.72 335.99 291.37 335.7 294.6 336.48 295.14 337.99 298.12 339.19 302.37 341.25 304.66 340.37 307.06 337.71 308.66 336.41 309.83 334.47 309.51 331.14 311.14 330.28 312.23 328.47 313.46 325.22 314.2 324.4 317.87 324.74 320.26 326.19 321.72 326.16 323.98 326.92 325.52 326.86 326.98 328.47 330.84 329.59 334 331.01 334.44 332.04 335.42 337.48 338.71 340.09 Z" id="33560350"/>
<path d="M 368.48 489.35 369.24 488.13 373.52 490.01 377.72 492.1 380.43 490.07 381.4 488.25 386.95 487.95 388.85 490.01 390.54 491.26 392.77 493.84 395.42 498.67 395.14 501.23 396.48 503.37 398.17 505.38 400.62 505.25 401.72 506.85 402.06 508.23 405.27 508.44 407.26 506.81 410.16 506.52 414.35 507.25 415.69 507.89 417.53 511.43 420.27 513.27 421.21 514.24 421.56 516.2 426.47 517.84 428.5 518.9 432.72 520.23 436.4 519.39 438.21 520.91 439.96 523.17 441.85 523.94 448.47 525.63 452.38 527.59 453.65 525.95 457.09 522.31 459.22 520.53 460.47 518.78 462.61 517.19 465.93 514.17 468.01 513.38 473.44 513.15 476.73 514.15 479.41 518.87 481.18 519.36 482.6 518.88 485.17 519.1 487.49 520.85 489.72 520.91 492.7 524.4 496.95 528.27 498.97 531.05 500.86 530.75 501.75 531.25 505.7 532.28 511.31 531 514.67 532.28 515.93 532.15 517.46 529.91 520.63 529.96 521.56 527.99 523.42 526.19 525.11 525.33 527.23 526.47 527.78 527.3 529.53 525.95 533.55 525.78 535.88 526.76 536.14 528.26 538.3 528.01 539.9 528.89 541.06 530.81 542.15 531.1 544.51 530.16 548.25 532.57 552.08 531.17 549.84 536.22 549.22 538.04 549.65 541.6 550.7 546.34 551.02 550.7 550.64 553.22 548.92 557.28 547.49 558.06 546.02 560.87 544.51 561.64 540.83 561.82 539.38 560.32 538.2 560.21 534.86 558.4 532.96 557.97 528 558.22 526.86 557.74 525.51 555.84 523.61 554.7 522.04 554.48 520.59 556.39 517.42 557.42 515.47 557.34 512.93 556.21 510.66 556.28 509 557.4 507.02 557.51 502.68 555.71 500.44 555.51 497.05 556.58 495.23 556.4 492.44 556.67 491.19 556.35 488.03 553.89 486.17 552.87 484.72 552.77 484.06 553.58 485.14 555.93 485.27 557.72 484.75 558.8 481.64 558.39 478.43 558.56 474.88 559.55 472.63 561.1 471.19 563.41 471.03 565.32 470.11 567.5 467.1 569.01 465.1 568.49 462.66 568.68 461.07 570.21 461.01 571.04 462.82 571.97 463.19 573.04 463.21 575.68 463.58 577.81 461.19 577.57 460.54 578.48 457.98 579.27 457.48 580.29 455.7 580.56 452.43 579 450.54 580.06 449.9 581.46 454.82 584.01 455.18 586.29 456.87 586.58 457.99 587.7 460.04 588.49 461.85 587.92 463.42 585.59 465.17 586.86 467.61 587.42 468.85 586.8 471.63 587.57 473.46 588.53 476.99 584.25 476.85 582.95 478.17 582.29 480.52 580.13 485.96 582.92 490.22 582.56 493.36 580.44 495.86 580.5 496.65 582.88 498.26 584.14 501.88 584.07 502.87 584.6 506.82 585.38 510.38 586.32 511.8 587.72 512.99 589.69 517.48 589.72 518.17 590.22 520.94 596.53 521.99 601.74 523.39 602.95 526.44 610.34 526.74 611.63 528.35 611.49 531.25 610.01 534.07 609.93 536.4 610.95 544.45 609.06 547.63 609.44 548.14 614.17 552.38 618.68 552.56 625.51 551.4 629.4 551.76 631.07 551.56 638.67 555.9 643.18 560.31 643.9 564.75 644.35 564.17 653.08 565.09 656.8 564.75 659.15 562.37 660.36 559.01 663.17 558.58 666.04 556.58 669.97 556.52 674.01 555.64 679.23 555.8 680.94 558.31 683.43 559.66 687.65 557.29 691.11 556.48 693.39 554.26 697.03 553.67 702.15 552.75 704.74 551.77 706.16 551.81 707.21 553.04 710.02 554.5 715.28 553.58 717.94 553.64 718.94 546.97 722.68 543.22 723.33 540.85 724.11 539.32 725.45 539.09 726.29 539.73 730.66 538.93 732.16 539.7 736.05 539.47 738.59 540.67 742.94 540.57 744.06 541.08 749.81 540.7 751.22 542.59 753.66 538.96 754.56 539.12 755.71 534.31 756.58 532.11 757.75 529.87 752.7 529.39 745.23 529.9 741.2 528.75 739.63 527 738.38 521.21 733.53 519.25 731.27 517.43 728.49 516.67 726.79 515.93 722.09 514.93 718.49 511.68 711.82 511.19 708.82 512.64 706.26 511.53 703.61 510.42 703.43 508.4 703.95 505.69 703.31 503.64 701.34 501.7 700.22 498.97 700.17 497.74 701.29 494.72 701.68 493.15 702.27 489.8 701.47 485.37 698.49 482.7 698.29 478.96 697.47 477.48 695.61 476.46 693.41 476.08 691.5 476.36 687.54 474.84 684.87 475.19 683.06 477.12 680.21 477.42 677.28 477.25 674.1 476.59 672.22 474.94 671.16 474.3 670.05 470.61 668.31 469.44 667.08 468.91 663.67 466.34 661.59 464.82 658.98 464.49 657.14 464.52 653.9 463.91 652.28 463.19 648.9 462.73 645.42 461.48 641.72 460.71 640.2 460.49 636.57 453.98 637.42 452.99 637.85 451.6 639.49 449.81 640.41 449.25 642.22 448.98 646.66 447.32 649.87 447.07 650.94 443.07 654.59 442.49 658.29 443.33 660.12 443.29 661.32 438.58 664.35 438.06 665.93 437.17 666.65 435.04 670.68 431.73 672 431.31 674.06 430.99 678.61 429.53 679.87 429.08 682.08 426.72 683.72 424.63 683.65 419.59 685.75 416.93 684.79 415.5 685.33 413.33 685.06 412.91 683.66 411.69 682.93 410.41 685.17 407.5 685.82 406.06 685.52 404.62 686.52 402.27 686.95 404.74 689.3 407.39 691.07 409.04 692.88 408.88 694.75 409.15 697.48 407.3 700.34 406.28 703.63 405.03 704.95 404.37 706.76 404.62 709.03 406.19 712.78 407.92 714.98 407.94 718.46 408.96 720.01 410.4 721.12 413.61 721.81 415.01 721.4 418.43 722.75 420.33 726.11 423.05 731.57 417.59 735.24 414.34 733.5 411.25 732.29 408.75 732.47 406.85 733.26 406.11 734.39 403.61 737.03 400.36 737.51 396.55 740.17 393.01 742.22 392.08 743.31 390.2 741.93 389.2 742.13 386.7 741 386.31 739.43 385.14 739.16 382.4 737.08 380.86 737.14 379.1 736 378.31 734.74 376.94 734.01 375.03 734.28 373.01 734 371.48 736.33 368.79 738.1 367.23 736.69 364.12 735.93 362.52 734.65 360.31 734.73 359.22 733.46 357.22 732.64 357.8 736.74 357.03 738.69 355.97 740.21 353.98 742.11 353.03 743.63 350.99 743.95 348.4 743.81 345.54 745.58 343.21 745.08 341.3 745.69 338.86 747.02 336.73 748.65 335.04 749.27 334.37 750.95 333.04 751.9 331.79 753.99 328.55 754.85 326.01 757.36 323.88 758 318.93 756.89 317.73 757.55 315.49 752.55 313.98 750.9 310.21 747.6 310.2 746.82 305.78 739.58 303.86 738.74 302.8 737.29 300.6 735.16 296.76 733.24 295.94 732.14 292.95 734.54 291.81 738.39 289.33 739.86 287.49 743.2 286.42 743.82 283.74 744.25 280.52 744.22 279.13 744.8 278.74 746.82 275.56 748.79 274.29 749.31 273.08 748.6 271.53 748.82 270.47 750.4 269.6 750.41 268.68 751.76 266.5 753.79 265.07 751.16 264.75 748.51 261.79 743.98 261.59 742.18 259.71 739.46 258.3 739.31 257.76 734.03 255.3 731.63 252.08 729.09 250.03 726.27 248.74 726.11 247.89 724.78 245.64 723.3 244.62 723.31 240.41 719.43 236.72 716.78 235.93 715.6 234.16 715.78 232.23 714.88 232.96 712.97 230.86 712.47 231.81 708.15 230.48 708.56 230.31 705.61 227.34 703.08 225.14 702.36 222.49 700.45 221.4 698.75 221.53 696.36 220.35 694.77 221.52 694.07 223.12 692.26 215.72 691.41 214.02 690.33 215.11 687.87 214.33 686.43 212.69 684.74 209.85 683.19 210.04 681.18 210.63 680.73 211.35 676.91 211.99 675.24 210.48 672.57 207.44 674.28 204.64 676.18 201.79 674.12 198.76 670.38 195.81 668.57 191.87 667.38 188.81 665.28 186.71 660.07 186.53 658.06 185.82 656.24 186.87 654.56 185.45 653.02 184.34 650.83 180.44 650.98 178.59 649.62 176.79 649.39 174.53 650.81 170.49 650.22 167.38 651.53 165.49 653.09 162.86 648.16 161.31 647.1 159.58 645.01 160.64 643.62 161.02 641.67 162.27 639.43 164.69 638.04 164.6 635.58 163.99 632.48 164.55 631 163.18 629.34 161.05 625.88 161.87 624.33 163.54 622.66 164.36 619.47 165.18 618.11 164.75 616.72 164.99 615.03 166.16 613.63 169.67 611.81 170.32 611.81 172.44 609.93 173.91 609.75 176.73 608.1 178.47 605.47 181.66 603.23 182.09 602.29 184.4 600.63 186.03 598.46 187.49 597.12 188.57 593.39 187.76 591.54 188.91 589.28 189.02 585.13 190.01 584.14 190.47 582.41 191.9 582.28 192.48 581.41 194.99 581.92 197.6 580.14 199.01 580.31 202.74 581.49 205.25 583.69 205.93 582.82 208.14 581.47 209.17 578.29 208.84 576.06 212.26 573.03 213.84 572.06 214.55 570.15 215.65 569.01 218.08 564.56 214.15 560.43 214.13 558.25 216.64 555.55 216.39 554.2 219.11 551.36 219.7 550.09 217.4 545.52 217.34 543.33 216.09 542.26 215.69 541.17 216.09 539.37 215.34 538.13 213.88 536.94 212.44 534.91 212.6 533.94 211.29 531.89 212.76 530.96 212.05 529.97 207.66 526.58 206.13 526.21 204.86 529.17 203.7 530.92 202.69 529.52 195.89 523.44 193.96 520.65 195.55 518.89 195.94 516.71 195.44 514.98 195.32 511.18 194.26 509.38 195.51 507.55 193.81 503.45 193.13 499.65 192.37 498.08 192.5 497.08 191.32 494.16 190.98 490.83 188.48 489.79 187.44 485.99 186.67 484.84 186.17 481.43 183.77 479.13 182.76 477.59 182.84 475.76 181.87 473.23 179.86 472.4 179.68 471.62 180.83 469.83 180.15 469.12 180.47 467 181.2 466.01 181.38 463.57 178.23 461.18 176.51 458.02 174.28 457.04 174.1 456.03 172.49 453.75 174.09 451.7 175.38 450.91 177.65 452.37 180.58 451.29 184.52 451.09 183.74 449.5 183.84 446.28 184.9 444.08 186.24 444 188.46 441.38 192.69 442.82 193.71 440.38 194.77 439.96 195.28 438.07 195.27 436.1 199.44 432.1 198.77 430.88 200.22 429.72 201.58 427.89 202.95 427.06 205.75 426.6 210.31 428.68 211.67 427.64 213.28 427.21 214.04 427.91 216.91 428.74 218.39 427.97 219.74 425.28 220.53 426.57 223.76 428.71 226.09 428.93 227.13 429.55 227.32 431.74 226.23 433.83 226.17 435.35 223.75 440.41 223.42 441.77 224.73 445.29 224.79 446.48 226.14 450.06 225.84 451.98 227.29 451.92 227.79 449.22 228.59 446.76 229.78 445.84 229.85 444.62 231.21 442.59 234.49 440.54 236.89 441.12 239.22 440.61 243.03 441.96 242.97 440.17 241.41 438.21 241.25 436.14 240.63 435.04 240.08 431.81 241.31 430.87 242.99 430.89 244.9 428.42 247.03 424.31 248.76 423.21 250.59 422.95 254.73 423.58 257.64 424.91 258.91 426.88 261.93 429.34 263.09 432.05 264.74 433.61 266.01 433.67 267.97 435.5 268.76 435.77 268.84 437.6 270.08 440.61 269.7 442.92 270.31 445.43 271.82 447.45 275.49 450.56 277.53 453.86 279.72 458.66 281.39 459.91 282.39 461.34 283.14 461.28 285.37 462.75 291.04 467.98 292.86 466.67 291.83 465.13 292.54 462.26 292.51 460.75 294.46 458.47 294.66 456.13 293.92 451.36 294.56 449.11 293.58 445.31 294.58 443.91 296.17 442.7 297.04 441.35 299.2 440.42 301.65 443.98 305.14 448.37 307.41 448.02 308.35 448.42 309.26 450.14 309.16 451.35 311.4 454.07 312.95 454.96 314.85 453.3 317.25 452.13 319.67 452.03 323.35 455.66 324.37 456.13 326.13 458.21 327.7 459.11 329.66 459.42 332.63 460.54 334.37 462.44 335.82 463.46 338.16 469.21 339.07 473.4 340.78 473.24 341.14 474.26 342.65 475.77 344.46 475.46 346.7 476.22 348.44 477.49 352.82 479.51 354.33 480.42 356.14 482.15 357.09 483.58 359.65 484.75 362.67 487.22 365.9 490.76 367.51 491.06 368.06 490.68 368.48 489.35 Z" id="33560360"/>
<path d="M 175.28 382.16 176.11 384.47 176.28 386.58 175.53 387.98 175.53 390.08 176.66 391.76 177.79 394.39 177.22 397.31 175.79 398.62 174.97 400.48 174.86 406.02 175.48 408.1 174.88 410.14 176.21 414.42 175.11 417.16 173.79 418.49 174.86 419.88 175.66 422.27 178.16 424.33 178.58 426.9 182.61 431.95 183.05 434.33 183.69 435.33 185.34 441.55 185.23 443.41 186.24 444 184.9 444.08 183.84 446.28 183.74 449.5 184.52 451.09 180.58 451.29 177.65 452.37 175.38 450.91 174.09 451.7 172.49 453.75 174.1 456.03 174.28 457.04 176.51 458.02 178.23 461.18 181.38 463.57 181.2 466.01 180.47 467 180.15 469.12 180.83 469.83 179.68 471.62 179.86 472.4 181.87 473.23 182.84 475.76 182.76 477.59 183.77 479.13 186.17 481.43 186.67 484.84 187.44 485.99 188.48 489.79 190.98 490.83 191.32 494.16 192.5 497.08 192.37 498.08 193.13 499.65 193.81 503.45 195.51 507.55 194.26 509.38 195.32 511.18 195.44 514.98 195.94 516.71 195.55 518.89 193.96 520.65 195.89 523.44 202.69 529.52 203.7 530.92 204.86 529.17 206.13 526.21 207.66 526.58 212.05 529.97 212.76 530.96 211.29 531.89 212.6 533.94 212.44 534.91 213.88 536.94 215.34 538.13 216.09 539.37 215.69 541.17 216.09 542.26 217.34 543.33 217.4 545.52 219.7 550.09 219.11 551.36 216.39 554.2 216.64 555.55 214.13 558.25 214.15 560.43 218.08 564.56 215.65 569.01 214.55 570.15 213.84 572.06 212.26 573.03 208.84 576.06 209.17 578.29 208.14 581.47 205.93 582.82 205.25 583.69 202.74 581.49 199.01 580.31 197.6 580.14 194.99 581.92 192.48 581.41 191.9 582.28 190.47 582.41 189.58 582.21 185.61 584.33 183.5 584.8 182.81 584.26 184.1 581.31 182.14 578.18 180.26 577.3 178.79 574.47 176.11 573.14 176.11 571.88 175.33 569.92 171.17 568.73 169.71 567.65 165.22 565.59 165.85 562.84 165.71 560.5 166.47 556.96 166.61 554.77 165.5 554.55 162.43 553.09 162.2 549.88 159.34 546.26 157.16 544.23 157.28 543.65 153.94 542.05 151.93 543.37 150.26 541.3 148.3 540.34 148.05 538.82 146.15 536.17 147.35 532.27 146.6 531.29 146.37 529.33 146.77 528.41 147.11 525.09 144.73 522.04 143.71 522.15 141.87 521.05 139.82 521.82 137.41 522.04 134.54 520.74 132.18 518.31 129.26 518.14 126.4 515.16 125.05 514.19 124.09 512.47 122.43 510.54 122.09 508.71 120.92 507.26 121.03 503.02 120.46 501.25 118.9 499.78 117.43 499.42 114.75 501.59 114.68 503 113.84 504.41 113.43 506.72 110.49 506.95 108.01 506.77 106.03 507.33 106 506.17 104.95 505.43 104.23 503.45 102.19 501.42 98.81 500.98 97.08 498.23 95.17 497.14 93.58 496.91 91.59 495.2 89.89 492.54 88.87 489.98 83.59 484.63 83.13 482.45 81.62 479.79 79.32 479.24 77.43 475.87 74.98 473.88 74.09 474.48 70.8 474.73 65.72 473.66 63.7 471.89 63.21 470.56 61.3 469.78 61.21 468.03 59.09 467.93 57.53 467.31 57.06 468.1 55.56 468.46 55.55 470.64 53.73 473.57 50.46 472.59 48.18 472.32 46.01 474.21 43.74 474.08 42.67 474.79 40.21 474.39 38.5 475.65 37.03 475.01 35.54 475.22 33.76 473.05 33.59 465.62 33.37 464.75 34.14 461.7 33.17 460.61 32.88 459.31 31.53 459.43 31.18 457.3 28.96 454.8 29.16 452.85 29.94 450.17 28.69 449.01 28.78 447.01 29.75 445.44 27.74 442.47 28.44 439.52 26.98 438.62 27.98 435.45 28.29 432.2 27.95 431.2 26.38 430.94 24.45 431.71 23.17 430.75 22.41 428.77 20.87 426.93 19.41 426.66 18.83 425.35 17.87 425.06 18.09 423.51 17.1 422.2 14.77 421.8 14.45 420.72 13.28 419.74 13.46 418.22 12.86 416.51 11.5 416.27 11.28 414.53 6.94 412.37 7.7 411.69 7.64 408.69 8.85 407.09 9.89 403.94 10.16 401.15 12.76 398.12 12.75 396.15 14.84 391.64 15.01 388.47 16.69 384.48 14.46 384.22 13.96 382.78 14.11 381.1 13.24 379.54 13.49 378.07 10.86 376.49 9.73 377.06 8.46 376.75 7.78 375.27 6.59 374.29 6.18 372.76 5.39 372.33 3.93 373.48 1.67 373.32 1.05 371.66 1 369.84 1.39 366.05 2.55 362.47 1.67 358.47 1.74 353.01 3.2 353.02 6.07 350.69 6.7 349.44 8.43 350.02 9.72 349.78 11.07 347.23 9.44 345.19 11.07 344.35 12.61 344.14 12.96 341.24 12.19 339.3 14.5 338.91 15.75 339.39 19.04 339.49 21.61 340.04 22.69 339.73 25.91 340.52 26.93 339.38 28.29 338.81 29.89 336.59 31.87 335.93 32.46 334.37 35.52 330.03 36.13 329.51 36.35 327.6 37.87 326.34 40.05 326.88 41.55 327.94 42.31 330.09 41.93 334.07 42.53 334.8 44.52 334.46 45.79 335.34 46.08 337.8 47.31 337.26 48.67 335.21 49.46 333.31 51.46 334.74 52.93 335.13 55.19 334.99 55.92 334.24 58.29 336.59 59.05 336.05 60.63 336.33 63.45 333.02 65.09 332.4 68.33 332.64 69.12 331.87 71.03 332.36 72.65 330.77 73.4 327.98 74.88 328.23 78.15 328.15 82.79 327.26 85.2 326.52 88.25 327.24 91.09 327.04 94.17 324.19 94.47 327.06 95.54 327.79 96.64 329.95 96.85 332.35 97.99 332.97 99.02 334.69 101.18 334.94 101.73 338.74 102.56 341.34 105.01 342.65 106.02 345.12 107.37 346.66 108.92 347.72 108.37 350.64 108.58 351.54 108.24 354.59 109.48 358.13 109.72 359.98 110.85 362.58 112.57 363.62 115.32 363.99 118.34 365.58 120.57 367.83 122.96 364.15 125.48 364.18 128.28 362.46 130.24 363.32 131.34 362.38 134.29 361.13 136.73 361.62 138.91 362.62 140.49 364.27 141.82 364.53 142.4 365.57 143.9 365.28 144.82 366.35 147.87 367.69 149.16 368.67 151.58 369.11 154.49 370.06 156.37 371.24 158.02 370.19 160.62 372.01 162.42 374.06 167.09 378.09 168.81 379.35 169.52 381.03 170.92 381.85 175.28 382.16 Z" id="33560370"/>
<path d="M 100.92 214.18 101.98 215.47 101.39 217.27 101.82 219.23 101.03 220.58 100.6 223.81 100.87 226.11 100.25 228.41 100.03 231.4 100.85 234.54 101.53 234.78 101.92 236.56 105.06 240.12 105.76 242.16 105.78 244.12 106.67 245.64 106.73 247.46 108.29 251.2 108.1 252.3 109.46 253.39 108.51 255.23 109.22 256.88 108.41 263.15 109.83 265.05 109.21 266.28 109.38 267.79 108.81 269.32 109.47 270.65 108.88 273.18 109.69 278.51 111.52 277.71 111.95 276.77 115.81 273.8 117.1 271.6 119.87 270.59 120.95 268.55 122.96 266.63 123.16 265.84 124.92 265.83 127.69 263.88 132.7 263.29 135.1 265.14 136.13 266.48 139.55 267.23 139.95 267.95 144.04 269.1 145.13 269.75 147.53 267.31 149.47 265.98 151.29 265.96 155.76 267.25 160.81 269.47 162.39 270.97 166.47 270.22 167.24 271.34 169.68 272.82 171.38 271.87 177.46 275.66 182 275.97 185.06 274.43 186.12 275.56 188.86 276.05 189.51 279.86 190.55 280.46 191.15 281.74 194.21 282.08 195.82 281.07 198.28 281.81 198.48 282.97 200.79 284.32 201.86 283.08 203.35 284.01 206.63 282.71 207.7 281.51 210.15 282 213.99 283.36 214.26 285.55 213.76 287.5 214.19 289.06 214.28 291.45 212.83 295.41 211.41 296.59 209.36 299.65 209.66 300.8 212.77 302.81 213.26 305.94 211.93 308.2 211.95 313.11 210.87 314.68 210.13 317.23 208.96 319.27 209.98 320.59 209.87 322.99 210.8 325.07 209.74 326.71 209.58 328.82 208.24 330.55 207.34 328.4 203.42 325.4 202.1 324.82 199.31 324.97 197.4 328.52 197.55 329.43 195.6 330.33 194.54 331.84 195.69 334.2 195.6 336.8 194.65 338.14 193.72 341.29 192.05 343.44 192 346.17 190.98 348.01 189.31 349.23 188.49 350.69 188.32 352.78 188.8 353.51 189.13 356.01 189.17 361.08 189.92 364.96 189.83 367.85 190.39 371.67 188.81 372.41 186.96 374.24 184.16 374.73 182.21 377.06 181.56 378.41 180.22 379.81 177.66 380.5 175.28 382.16 170.92 381.85 169.52 381.03 168.81 379.35 167.09 378.09 162.42 374.06 160.62 372.01 158.02 370.19 156.37 371.24 154.49 370.06 151.58 369.11 149.16 368.67 147.87 367.69 144.82 366.35 143.9 365.28 142.4 365.57 141.82 364.53 140.49 364.27 138.91 362.62 136.73 361.62 134.29 361.13 131.34 362.38 130.24 363.32 128.28 362.46 125.48 364.18 122.96 364.15 120.57 367.83 118.34 365.58 115.32 363.99 112.57 363.62 110.85 362.58 109.72 359.98 109.48 358.13 108.24 354.59 108.58 351.54 108.37 350.64 108.92 347.72 107.37 346.66 106.02 345.12 105.01 342.65 102.56 341.34 101.73 338.74 101.18 334.94 99.02 334.69 97.99 332.97 96.85 332.35 96.64 329.95 95.54 327.79 94.47 327.06 94.17 324.19 91.09 327.04 88.25 327.24 85.2 326.52 82.79 327.26 78.15 328.15 74.88 328.23 73.4 327.98 72.65 330.77 71.03 332.36 69.12 331.87 68.33 332.64 65.09 332.4 63.45 333.02 60.63 336.33 59.05 336.05 58.29 336.59 55.92 334.24 55.19 334.99 52.93 335.13 51.46 334.74 49.46 333.31 48.67 335.21 47.31 337.26 46.08 337.8 45.79 335.34 44.52 334.46 42.53 334.8 41.93 334.07 42.31 330.09 41.55 327.94 40.05 326.88 37.87 326.34 38.52 324.57 38.05 323.35 35.7 322.84 35.78 320.93 35.3 318.67 30.86 316.77 28.43 316.31 27.14 314.47 27.84 311.96 26.88 310.61 25.48 311.25 24.47 310.31 24.82 308.19 26.16 306.99 26.66 302.45 26.07 298.11 24.71 297.41 21.52 294.36 19.72 293.07 17.45 290.78 18.29 288.51 16.96 285.42 17.63 284.22 16.71 279.93 15.95 279.1 17.17 276.42 16.31 272.71 17.92 270.16 18.02 264.78 17.34 263.81 18.17 262.71 18.86 259.51 20.02 259.53 21.58 257.76 22.7 254.33 23.16 251.65 24.03 250.18 24.13 246.53 26.85 245.91 27.81 244.96 27.62 243.87 28.76 242.15 28.54 240.55 30.84 238.37 32.03 236.2 31.75 234.62 32.76 233.59 32.54 232.3 33.04 230.78 31.32 228.51 30.6 226.28 29.75 225.74 30.1 223.44 30.61 221.36 30.54 219.51 31.4 216.69 32.79 215.76 33.68 213.74 34.18 211.3 35.44 208.62 36.28 208.33 37.02 205.78 37.85 204.11 40.29 201.71 42.07 201.34 42.08 199.23 43.27 198.28 45.34 197.58 46.1 196.77 47.99 196.23 49.25 194.78 50.2 195.32 53.15 195.01 56.03 192.78 57.95 192.62 59.58 193.73 61.32 192.88 64.51 193.27 65.12 194.07 67.21 193.88 68.16 194.44 71.87 195.04 72.84 195.8 74.12 198.36 76.62 199.37 77.92 198.7 79.37 198.73 81.94 199.51 82.41 200.66 84.4 201.74 85.59 204.14 85.7 205.52 89.4 205.97 91.39 208.74 95.48 209.45 97.74 212.02 97.81 214.32 100.92 214.18 Z" id="33560380"/>
<path d="M 169.73 155.33 172.32 154.28 174.04 155.57 175.22 155.36 180.58 153.01 181.7 150.69 183.8 149.8 186.29 150.79 188.07 150.44 189.18 151.26 192.9 153.11 195.55 152.81 196.43 151.97 200.72 149.96 201.41 149.95 205.44 152.74 206.27 154.48 208.94 152.74 212.53 154.32 215.96 155.31 219.36 153.99 222.01 157.12 223.26 157.9 223.84 160.08 223.83 161.86 225.39 163.15 228.43 164.23 231.81 161.03 233.44 163.32 235.03 163.81 238.83 163.48 240.78 162.59 242.6 162.99 244.73 160.96 246.52 158.41 246.63 156.59 249.34 154.94 253.62 156.82 253.91 158.04 256.81 160.82 259.22 165.78 259.89 167.68 259.45 168.6 261.23 170.41 259.46 171.12 260.17 174.02 260.31 177.98 259.33 179.76 259.42 184.42 258.32 186.62 258.63 188.19 257.6 189.72 257.96 191.69 257.04 192.24 254.06 191.67 253.57 193.99 253.98 196.15 253.57 198.76 252.87 200.43 251.74 201.7 251.21 205.22 250.18 207.8 249.23 208.73 249.01 211.51 248.31 212.98 250.83 214.2 251.03 217.73 251.96 219.26 252.42 224.16 253.86 225.51 255.1 225.39 256.93 226.18 257.82 227.1 260.03 227.37 261.38 228.96 263.67 228.58 268.91 232.15 271.66 234.43 273.11 236.75 275.83 239.31 276.52 240.68 278.94 241.2 280.55 242.43 282.13 245.98 282.76 248.33 283.4 249.08 282.52 252.16 283.1 253.3 282.13 254.62 283.36 255.88 284.07 257.56 284.46 260.35 283.12 262.72 283.54 263.95 282.42 265.43 279.98 267.3 278.83 267.48 278.58 269.27 277.16 270.69 275.19 274.13 273.14 273.14 271.42 274.17 270.05 276.29 267.73 275.23 266.5 273.93 265.03 275.77 263.1 275.47 262.12 273.2 259.75 272.78 257.93 271.34 256.35 271.27 255.93 269.68 254.63 268.1 249.23 267.82 246.7 264.76 244.87 265.26 243.22 264.87 242.19 262.73 240.96 261.96 238.48 261.16 236.22 259.63 234.59 264.93 232.84 265.32 232.47 266.4 232.09 271.73 229.66 277.01 228.35 277.3 224.67 278.93 223.12 280.72 221.61 281.01 217.67 281.42 215.91 283.22 215.73 285.02 214.26 285.55 213.99 283.36 210.15 282 207.7 281.51 206.63 282.71 203.35 284.01 201.86 283.08 200.79 284.32 198.48 282.97 198.28 281.81 195.82 281.07 194.21 282.08 191.15 281.74 190.55 280.46 189.51 279.86 188.86 276.05 186.12 275.56 185.06 274.43 182 275.97 177.46 275.66 171.38 271.87 169.68 272.82 167.24 271.34 166.47 270.22 162.39 270.97 160.81 269.47 155.76 267.25 151.29 265.96 149.47 265.98 147.53 267.31 145.13 269.75 144.04 269.1 139.95 267.95 139.55 267.23 136.13 266.48 135.1 265.14 132.7 263.29 127.69 263.88 124.92 265.83 123.16 265.84 122.96 266.63 120.95 268.55 119.87 270.59 117.1 271.6 115.81 273.8 111.95 276.77 111.52 277.71 109.69 278.51 108.88 273.18 109.47 270.65 108.81 269.32 109.38 267.79 109.21 266.28 109.83 265.05 108.41 263.15 109.22 256.88 108.51 255.23 109.46 253.39 108.1 252.3 108.29 251.2 106.73 247.46 106.67 245.64 105.78 244.12 105.76 242.16 105.06 240.12 101.92 236.56 101.53 234.78 100.85 234.54 100.03 231.4 100.25 228.41 100.87 226.11 100.6 223.81 101.03 220.58 101.82 219.23 101.39 217.27 101.98 215.47 100.92 214.18 100.81 212.84 102.47 210.54 105.31 209.59 106.5 208.37 106.71 207.31 108.3 205.29 109.84 204.26 110.96 202.67 110.46 201.47 111.8 196.43 113.73 196.37 115.34 195.66 116.06 194.53 117.14 188.8 116.69 187.67 115.51 186.83 114.58 182.33 114.81 175.68 116.42 174.5 117.98 171.06 121.6 168.93 122.42 167.19 122.34 164.98 123.07 164.48 123.67 161.67 125.16 157.68 124.82 156.28 125.68 155.05 124.98 153.3 127.51 153.13 128.01 151.09 128.85 150.24 131.61 149.89 133.41 150.22 135.97 148.98 137.98 150.7 139.81 154.17 141.36 153.98 144.03 154.39 146.63 155.43 149.25 157.6 151.63 157.84 153.1 159.11 153.8 154.55 154.53 153.72 158 154.24 159.45 152.85 161.09 153.02 162.55 152.5 163.12 153.51 164.95 152.75 165.97 153.99 166.5 155.62 168.05 156.29 169.73 155.33 Z" id="33560390"/>
<path d="M 315.33 1 318.95 2.85 322.17 3.82 325.68 4.37 326.43 7.4 326.96 8.09 326.76 10.16 327.09 11.84 326.74 13.91 327.73 14.98 328.74 15.05 330.79 18.27 333.61 17 335.15 15.7 339.4 15.67 340.5 16.07 342.29 14.48 345.61 15.11 349.7 14.02 349.53 12.78 350.13 11.41 351.14 11.51 352.02 9.64 356.42 11 357.48 12.83 359.51 12.37 360.2 16.19 362.06 15.86 364.72 16.27 365.87 16.03 367.67 17.42 369.71 16.62 372.07 17.33 372.42 21.7 373.01 22.68 371.01 23.7 370.17 27.14 370.94 27.82 371.48 30.17 371.27 31.31 373.43 32.47 375.38 34.8 375.4 37.06 376.55 38.97 377.26 38.13 378.77 37.77 380.59 38.59 384.41 38.74 387.7 42.15 388.82 42.36 389.99 43.76 390.29 46.19 389.05 48.83 389.01 52.18 388 53.43 388.21 55.56 389.06 56.97 386.38 58.37 384.8 61.06 388.58 65.55 388.6 66.34 386.96 67.4 385.39 69.34 384.5 69.84 383.49 71.66 381.66 73.39 381.34 74.6 383.52 76.92 385.97 77.59 387.61 79.92 390.86 80.45 395.72 84.15 398.98 83.95 402.36 84.61 404.3 84.58 405.43 83.71 406.93 83.97 407.67 86.76 411.56 88.4 413.13 90.38 414.78 91.1 417.38 93.43 417.87 97 418.69 97.94 419.47 102.39 420.17 104.64 421.93 105.39 424.69 109.13 427.49 112.38 430.27 111.7 431.26 111.08 434.29 110.46 436.78 110.9 438.48 111.56 441.94 113.63 445.26 113.64 448.24 113.19 454.54 113.21 458.3 112.93 459.45 119.11 461.04 125.03 458.26 126.04 455.32 126.73 452.98 128.6 451.7 131.89 451.39 134.84 451.99 138.72 453.56 144.27 453.86 147.64 454.85 149.81 458.21 152.97 463.25 157.2 468.64 166.45 465.63 166.41 464.13 172.26 463.43 174.31 459.94 177.31 458.15 178.38 455.5 179.31 452.25 179 448.4 176.77 444.73 172.08 442.25 165.64 441.36 164.18 438.51 161.31 436.46 157.29 435.09 155.13 432.91 152.88 428.69 149.09 426.25 147.92 424.5 147.79 420.07 148.14 415.83 157.04 414.91 161.69 414.86 163.31 414.13 167.65 411.41 174.31 411.29 175.54 408.96 182.2 408.2 183.43 403.93 185.27 400.66 187.48 399.09 189.01 397.9 191.24 396.75 195.81 395.98 201.29 395.74 208.99 395.9 214.29 395.64 218.4 395.86 220.6 396.58 222.99 394.72 223.73 394.43 221.01 394.59 219.4 393.58 211.49 393.83 207.15 390.9 207.34 389.81 208.96 390.24 209.73 388.19 212.89 387.9 214.18 388.43 215.24 390.08 216.61 389.5 221.31 387.81 224.44 386.09 224.05 382.95 221.18 379.87 219.83 378.65 220.03 376.29 221.51 373.31 226.18 370.46 226.05 370.11 227.41 366.99 227.96 364.41 225.52 360.77 225.3 359.11 223.94 357.99 223.6 356.5 220.21 354.83 220.46 353.72 219.62 352.04 219.53 351.28 217.19 349.55 214.91 346.71 213.73 346.65 211.53 345.76 210.57 345.41 208.91 343.47 206.36 343.32 203.63 341.45 203.11 340.53 200.9 338.86 201.06 338.26 199.28 336.02 199.93 334.81 199.61 333.16 200.76 332.11 198.96 331.81 197.6 329.29 195.96 328.42 196.54 326.42 195.8 325.11 194.83 321.17 195.53 318.66 196.22 316.75 198.11 314.9 196.12 313.71 196.31 311.83 195.26 310.74 193.26 309.72 189.43 309.31 184.25 306.7 184.48 305.09 183.8 302.54 184.67 300.8 184.45 298.08 182.36 296.56 182.88 295.64 184.48 293.62 185.24 291.7 183.36 290.74 181.62 288.38 181.69 287.16 180.55 281.71 182.73 280.97 181.21 278.88 179.71 278.23 178.33 276.43 176.25 276.59 174.83 274.08 171.47 273.38 169.88 271.14 167.86 267.1 167.93 264.58 168.3 263.61 169.58 261.23 170.41 259.45 168.6 259.89 167.68 259.22 165.78 256.81 160.82 259.42 159.72 262.5 157.82 263.97 154.67 267.51 153.77 271.03 153.91 273 152.47 274.07 152.7 277.55 151.88 278.21 150.86 279.46 150.8 282.05 149.83 284.22 149.79 286.06 148.31 287.98 148.93 289.16 149.91 290.12 148.93 293.73 147.69 294.62 144.51 295.6 143.32 295.94 139.26 296.47 136.91 295.2 135.21 294.36 131.98 294.26 127.7 293.59 126.15 293.05 121.67 293.31 120.13 292.38 117.35 293.88 115.62 296.16 114.24 296.4 112.12 299 111.47 301.04 109.79 301.51 106.53 301.1 105.16 301.03 102.7 299.8 101.37 297.38 100.28 296.68 99.42 294.94 99.31 294.04 98.43 291.09 97.63 290.07 96.11 288.22 92.45 290.61 91.68 291.86 91.68 297.99 90.3 300.31 90.26 300.84 92.06 299.32 95.26 300.49 96.55 302.34 97.41 303.86 97.54 308.97 98.63 312.19 99.1 311.95 97.96 310.73 96.38 310.48 93.8 310.82 89.17 311.77 87.24 311.12 84.49 309.73 83.62 309.41 82.3 308.16 81.5 307.8 80.28 308.06 77.74 307.02 75.84 303.72 73.63 305.21 71.15 304.72 69.63 302.6 68.25 300.03 68.91 297.91 68.33 296.24 70.9 293.38 70.56 291.33 70.64 289.3 67.11 288.01 67.44 286.75 66.73 285.69 64.44 285.83 61.39 285.1 59.8 284.34 56.71 284.47 55.12 282.71 54.96 281.88 52.46 283.25 51.67 284.61 51.74 286.22 51.01 288.47 51.5 290.45 50.38 292.44 48.5 294.32 47.87 294.11 46.51 294.73 45.05 295.17 42.55 293.54 41.5 294.02 38.16 292.8 36.22 291.29 35.7 292.07 33.38 293.94 31.27 293.23 27.25 293.21 23.82 294.89 23.08 297.07 21.52 299.51 20.56 301.35 18.74 302.58 16.03 301.82 13.37 301.68 11.19 305.12 8.65 305.19 4.63 307.68 2.84 311.54 2.9 312.32 1.6 315.33 1 Z" id="33560400"/>
</g>
</svg>