<?xml version="1.0"?>
<svg xmlns="http://www.w3.org/2000/svg" version="1.2" baseProfile="tiny" width="800" height="1232" viewBox="0 0 800 1232" stroke-linecap="round" stroke-linejoin="round">
<g id="dong">
<path d="M 551.21 532.3 556.98 539.51 552.2 548.58 547.65 549.43 541.48 547.35 539.27 551.77 529.09 560.05 523.9 560.01 523.65 579.38 526.77 593.55 522.68 606.23 521.28 619.66 521.46 626.12 523.66 632 531.66 632.55 536.84 628.47 539.64 630.01 541.1 635.42 545.33 638.92 547.72 644.15 552.25 645.27 556.25 643.24 565.57 648.82 564.67 654.03 567.76 659.58 567.23 665.55 569.02 670.65 576.91 671.54 570.96 685.69 570.36 696.94 562.97 712.93 562.97 719.91 553.78 730.65 552.82 740.53 549.11 751.7 544.82 757.38 545.04 767.99 542.33 770.4 557.72 778.05 558.5 784.24 563.35 785.08 565.47 791.16 564.82 796.55 568.99 800.01 570.11 803.84 578.36 805.23 581.89 809.88 581.11 815.4 584.52 816.42 586.55 821.05 591.74 822.01 597.21 828.54 599.9 835.56 604.45 838.95 611.29 836.21 616.85 837.15 618.05 840.7 616.95 852.22 613.42 863.44 618.6 866.64 616.09 877.09 623.22 887.63 619.8 893.19 619.48 900.28 623.91 904.4 621.15 913.87 620.44 920.8 628.29 929.64 629.55 937.21 634.32 936.77 635.37 941.4 638.79 945.26 636.07 956.07 636.87 959.16 637.45 985.48 643.76 993.17 649.05 992.41 654.27 994.7 660.34 990.23 669.05 991.66 672.86 989.13 680.91 989.59 688.58 982.9 696.66 983.85 708.26 987.33 714.72 976.93 714.75 969.23 720.09 967.94 721.73 965.13 727.29 967.35 734.8 967.68 735.13 973.9 741.88 976.67 743.61 981.37 750.79 987.66 768.81 991.45 780.47 990.55 783.62 988.42 792.29 995.49 799 1007.42 798.84 1017.65 794.05 1027.6 789.04 1034.01 788.1 1038.28 782.66 1040.47 784.99 1046.06 782.29 1060.34 780.07 1067.3 784.62 1080.41 781.19 1090.08 784.53 1098.69 784.85 1106.86 790.55 1114.97 788.29 1123.93 779.75 1126.49 779.5 1131.06 769.93 1143.71 768.63 1152.24 766.14 1153.06 764.84 1160.8 765.89 1163.77 757.43 1175.33 756.91 1178.66 746.18 1189.76 743.33 1195.54 739.93 1206.5 723.32 1217.11 717.28 1225.15 710.53 1224.6 706.08 1228.25 695.83 1231 685.7 1225.46 679.43 1224.5 673.76 1218.82 662.32 1220.84 655.44 1209.85 654.78 1197.3 640.57 1188.05 636.05 1179.5 617.11 1173.53 605.29 1172.98 602.65 1180.21 590.55 1181.24 583.43 1185.27 568.11 1183.82 563.51 1192.03 558.62 1190.29 553.17 1192.98 548.07 1199.94 540.97 1206.1 523.95 1194.24 516.15 1186.3 509.15 1184.39 511.92 1169.91 509.4 1152.44 513.73 1139.99 514.92 1127.5 514.45 1115.4 512.92 1111.3 503.99 1103.85 496.51 1101.43 492.91 1097.3 494.51 1089.25 492.15 1073.83 489.09 1070.29 491.35 1062.17 487.72 1056.76 486.5 1047.55 482.47 1036.77 466.41 1028.98 463.98 1024.15 467.26 1015.63 455.73 1008.03 454.36 1005.37 456.54 997.4 460.46 992.08 458.54 982.73 461.68 968.75 456.59 965.91 455.15 962.32 450.02 960.63 447.49 955.09 449.88 948.26 445.45 944.03 444.6 940.46 446.4 934.04 435.84 930.46 436.94 916.25 433.26 905.53 425.66 900.81 422.27 890.11 417.68 887.15 413.27 888.73 407.86 887.52 395.5 889 392.01 894.91 384.65 899.72 380.16 896.89 370.21 896.5 366.27 891.02 357.4 888.2 354.17 883.18 348.71 882.74 345.39 877.95 337.78 873.78 333.75 865.79 337.3 856.31 335.18 838.8 332.63 833.55 332.18 827.73 323.32 825.32 322.13 820.93 314.67 813.2 322.14 798.78 321.58 789.18 325.34 780.62 325.32 772.88 319.2 774.76 315.63 773.32 305.59 763.02 296.6 761.61 289.17 756.83 284.26 746.65 281.93 738.65 274.61 735.02 266.81 729.5 262.57 723.39 258.79 723.85 250.25 728.28 249.94 725.09 238.35 720.82 221.08 698.57 217.63 696.55 213.69 687.73 202.48 689.42 197.74 686.34 195.89 682.04 190.15 675.66 191.89 670.01 189.38 657.48 186.9 654.06 185.04 643.25 181.24 633.01 174.18 626.46 173.76 621.21 172.92 602.53 170.07 599.52 162.09 595.31 159.28 591.57 148.64 585.96 150.79 578.04 151.95 567.33 148.09 560.75 145.2 551.2 139 539.54 135.14 536 135.84 531.58 126.76 510.45 126.3 503.81 121.69 490.78 117.05 487.32 112.9 474.42 106.98 470.46 101.67 474.08 94.72 474.68 91.69 478.42 86.11 477.19 79.3 483.85 68.93 481.39 60.46 470.64 56.45 469.18 49.02 460.18 44.95 456.99 37.32 454.3 37.36 450.72 29.5 443.06 21.96 433.81 19.1 426.32 11.27 414.78 1 402.32 26.77 385.22 29.9 375.61 37.29 370.1 43.32 368.41 47.61 363.88 66.63 369.56 74.87 369.94 80.12 368.73 89.08 358.2 105.67 349.49 111.11 338.57 115.04 333.09 124.25 333.18 139.9 323.66 145.37 315.57 150.33 325.01 161.67 328.24 168.77 327.12 170.22 325.03 179.9 322.45 182.65 319.02 187.59 318.52 192.67 312.11 200.08 308.92 209.01 315.34 217.49 312.6 221.66 303.84 227.47 301.59 237.22 287.5 240.14 279.57 245.51 273.24 246.87 262.16 261.57 248.38 267.35 252.59 274.27 260.93 276.6 268.6 286.02 279.53 292.62 281.93 304.98 288.17 318.07 298.45 322.09 303.29 317.55 311.51 317.91 316.83 315.96 325.99 313.75 330.49 317.04 336.25 315.4 346.88 320.56 350.14 321.13 356.18 318.79 361.97 320.66 365.1 330.26 372.5 335.87 373.39 337.93 376.06 345.17 376.33 357.02 379.39 362.91 375.48 369.29 380.51 369.84 384.08 377.68 402.26 382.36 409.1 380.86 413.83 385.48 414.6 390.07 418.67 393.84 414.92 398.01 416.16 412.93 416.71 420.07 413.35 426.23 418.91 431.86 419.98 432.73 423.39 440.58 426.09 438.49 435.21 444.53 439.48 444.2 442.94 439.68 448.96 439.09 459.55 440.69 462.21 438.05 469.69 442.21 474.04 444.96 480.86 451.59 480.53 454.83 483.13 463.44 479.48 473.7 479.09 476.82 473.46 490.06 474.21 497 475.58 498.2 485.89 502.13 483.8 510.77 485.42 512.23 493.48 516 496.53 519.95 495.32 525.34 497.06 526.94 492.8 533.48 496.86 535.52 502.5 539.62 505.64 536.6 511.12 539.73 516.35 544.68 519.23 545.86 525.11 551.21 532.3 Z" id="33590140"/>
<path d="M 624.46 100.76 623.25 108.92 626.24 110.82 628.8 118.74 634.91 126.78 633.12 132.18 633.91 136.74 630.32 140.4 631.3 145.98 627.11 153.67 618.95 161.42 619.73 167.1 615.69 173.19 616.37 177.04 612.94 180.4 603.3 182.6 602.96 195.53 599.86 200.75 598.23 210.27 594.27 222.42 588.75 228.67 584.61 228.61 582.18 239.95 579.22 243.86 581.63 247.3 581.29 266.36 575.57 275.39 578.61 288.56 574.3 298.04 576.98 300.99 580.26 316.18 577.89 320.43 582.61 331.4 579.62 339.44 587.65 347.54 594.04 352.12 605.35 362.94 610.17 365.43 612.27 380.81 610.49 396.88 605.76 401.15 604.52 408.68 608.1 412 613.06 409.72 616.45 414.5 613.99 423.4 618.55 429.94 627.17 431.56 642.9 438.31 644.61 446.3 644.32 453.09 652.67 454.9 654.33 459.2 652.01 465.5 646.65 469.96 645.86 476.73 643.68 478.55 632.83 493.95 630.75 499.47 623.74 501.83 618.07 509.67 613.25 511.72 609.61 515.76 598.2 512.93 594.35 514.06 585.24 512.1 573.57 511.72 569.14 510.05 560.97 511.42 563.7 518.29 562.46 528.57 557 529.31 551.21 532.3 545.86 525.11 544.68 519.23 539.73 516.35 536.6 511.12 539.62 505.64 535.52 502.5 533.48 496.86 526.94 492.8 525.34 497.06 519.95 495.32 516 496.53 512.23 493.48 510.77 485.42 502.13 483.8 498.2 485.89 497 475.58 490.06 474.21 476.82 473.46 473.7 479.09 463.44 479.48 454.83 483.13 451.59 480.53 444.96 480.86 442.21 474.04 438.05 469.69 440.69 462.21 439.09 459.55 439.68 448.96 444.2 442.94 444.53 439.48 438.49 435.21 440.58 426.09 432.73 423.39 431.86 419.98 426.23 418.91 420.07 413.35 412.93 416.71 398.01 416.16 393.84 414.92 390.07 418.67 385.48 414.6 380.86 413.83 382.36 409.1 377.68 402.26 369.84 384.08 369.29 380.51 362.91 375.48 357.02 379.39 345.17 376.33 337.93 376.06 335.87 373.39 330.26 372.5 320.66 365.1 318.79 361.97 321.13 356.18 320.56 350.14 315.4 346.88 317.04 336.25 313.75 330.49 315.96 325.99 317.91 316.83 317.55 311.51 322.09 303.29 318.07 298.45 304.98 288.17 292.62 281.93 286.02 279.53 276.6 268.6 274.27 260.93 267.35 252.59 261.57 248.38 255.99 237.67 248.97 242.5 240.92 242.63 229.52 246.05 216.64 251.94 212.79 251.21 199.13 235.12 203.62 224.48 205.03 206.93 199.36 183.9 196.55 179.25 195.28 168.71 200.44 162.18 211.44 157.65 219.49 151.69 220.09 147.09 213.09 127.11 217.58 116.62 216.69 110.1 222 105.8 224.25 101.15 220.27 92.59 212.57 79.16 217.4 78.69 223.25 73.65 231.39 74.23 235.9 72.53 242.62 74.18 247.54 65.88 254.38 65.19 256.33 55.81 254.47 50.19 251.11 37.05 251.75 29.55 255.56 19.42 262.42 12.93 274.17 4.96 287.11 1 300.77 4.67 304.88 10.98 304.78 20.03 313.09 22.78 319.62 19.12 324.82 22.32 330.74 22.34 334.97 18.23 343.83 25.22 348 35.52 352.22 36.63 359.32 49.39 365.12 62.92 368.43 66.37 382.07 60.26 388.12 59.95 392.49 57.64 401.56 61.96 410.07 63.83 417.5 56.68 417.33 50.82 426.57 50.28 431.92 53.33 436.51 46.08 442.76 42.1 454.8 31.7 458.41 32.99 460.6 26.68 466.26 20.57 475.38 12.93 480.29 14.56 487.44 11.17 493.25 10.67 498.82 17.99 496.73 28.02 492.5 37.91 489.13 50.51 486.35 55.2 480.16 52.79 476.13 64.88 471.88 67.23 467.37 84.84 461.98 95.31 462.58 103.7 466.65 106.34 465.03 115.8 468.56 117.14 470.06 123.76 472.96 125.09 473.54 131.94 472.18 137.98 474.27 141.47 474.76 152.73 472.81 161.05 475.36 166.44 476.48 175.85 474.41 183.18 478.31 190.55 486.43 192.24 485.7 199.42 487.98 202.89 493.41 203.43 508.1 182.16 518.64 178.84 530.16 185.63 535.4 186.23 539.12 189.37 541.74 176.81 546.41 173.02 552.72 152.85 555.14 135.5 562.88 132.69 565.29 127.26 573.15 128.53 577.81 126.62 583.77 114.78 592.51 112.64 599.18 109.5 604.51 103.23 613.9 97.61 624.46 100.76 Z" id="33590310"/>
</g>
</svg>