<?xml version="1.0"?>
<svg xmlns="http://www.w3.org/2000/svg" version="1.2" baseProfile="tiny" width="800" height="659" viewBox="0 0 800 659" stroke-linecap="round" stroke-linejoin="round">
<g id="dong">
<path d="M 291.41 190.85 290.28 190.44 289.61 193.61 290.94 193.71 291.05 195.78 288.23 195.13 287.03 198.6 284.73 200.08 283.36 199.89 279.8 203.35 280.76 205.16 279.92 207.16 278.98 208.2 275.61 207.76 272.21 206.65 274.34 201.52 275.64 197.8 273.89 197.32 274.23 194.64 273.03 193.74 270.55 193.38 271.89 185.67 272.77 185.25 274.9 181.79 276.06 181.35 278.02 183.08 279.89 183.55 282.59 185.91 285.05 186.86 285.75 184.08 287.35 184.19 288.61 185.05 288.22 186.43 288.49 188.67 290.84 188.61 291.41 190.85 Z" id="34011520"/>
<path d="M 262.78 265.54 261.13 267.53 259.99 269.82 257.16 274.51 254.58 280.29 254.73 285.59 253.5 288.13 251.55 290.25 247.11 293.57 246.82 295.52 247.82 297.85 249.5 298.58 249.44 301.82 249.99 304.91 249.97 308.28 248.31 310.06 245.93 310.61 244.02 313 242.3 314.08 240 314.33 238.6 312.27 237.05 310.86 234.24 309.93 232.69 308.35 230.54 308.69 228.62 310.15 227.47 310.17 226.22 311.67 224.92 312 222.9 308.86 221.41 308.86 219.91 307.58 217.51 309.62 213.34 311.62 214 309.54 215.41 306.75 215.95 304.07 215.32 302.32 214.07 300.75 216.05 298.97 216.04 294.7 216.64 291.73 215.3 290.47 214.6 288.43 214.84 286.1 215.99 284.22 215.4 280.8 214.45 279.88 212.71 275.62 212.53 274 213.22 272.43 212.5 270.9 210.85 269.99 206.3 269.24 204.34 267.64 203.06 265.88 203.47 263.14 202.63 263.02 203.38 260.67 204.24 260.16 208.02 259.32 211.91 256.65 214.11 253.38 214.67 250.95 217.19 246.16 217.73 246.65 223.28 249.39 226.47 250.25 228.95 244.13 230.5 242.09 231.18 240.37 232.26 239.42 232.76 237.9 233.52 237.54 235.37 234.87 236.66 234.6 239 235.81 239.08 237.17 241.01 237.18 241.05 235.84 242.67 234.94 243.74 233 247.04 233.94 248.36 235.42 247.11 237.4 245.23 238.2 244.03 239.44 243.49 243.84 244.65 245.27 241.43 247.87 241.36 250.83 239 250.8 238.75 256.56 243.15 257.38 244.13 259.24 253.24 262.14 254.55 262.32 262.5 265.09 262.78 265.54 Z" id="34011570"/>
<path d="M 342.7 218.47 343.02 219.98 344.48 222.35 344.8 224.97 345.93 225.78 346.2 228.91 345.2 230.75 345.14 233.87 342.62 237.35 342.99 239.68 344.13 241.36 347.05 243.65 347.63 244.68 347.97 247.16 347.29 248.9 347.97 250.06 346.6 252.04 346.67 253.09 345.56 255.5 345.55 258.38 344.37 262.45 343.7 263.77 345 269.82 345.69 270.82 345.88 273.37 342.48 276.42 341.98 279.52 341.19 281.14 341.1 283.22 340.44 284.36 340.27 287.73 339.24 290.6 334.73 288.87 332.6 288.84 327.11 289.73 323.53 286.55 322.38 286.22 318.68 283.85 317.16 281.9 315.42 284.67 317.27 286.82 316.08 289.34 316.49 291.71 314.64 293.02 313.79 294.34 313.8 297.39 312.91 298.79 310.38 298.39 308.41 299.13 306.58 302.37 304.46 304 304.88 307.65 304 309.97 301.32 311.85 300.97 314.31 300.1 317.02 298.53 318.43 298.04 322.08 298.13 324.16 296.81 325.25 297.35 327.68 296.85 329.95 296.79 332.99 293.51 334 292.26 334.98 290.67 333.67 289.07 333.04 286.15 333.83 283.83 333.4 281.35 333.48 279.93 332.6 279.39 335.83 277.29 336.45 275.99 335.98 274.44 337.21 271.9 336.4 271.32 334.3 266.72 335.98 264.31 335.84 262.35 336.3 260.93 335.94 258.05 333.51 258.53 332.27 257.15 330.75 255.76 331.04 253.25 325.9 251.79 325.66 248.42 327.84 244.79 328.31 244.92 325.76 244.28 323.14 243.15 320.58 240.8 319.31 240.8 317.79 239.57 317.11 240 314.33 242.3 314.08 244.02 313 245.93 310.61 248.31 310.06 249.97 308.28 249.99 304.91 249.44 301.82 249.5 298.58 247.82 297.85 246.82 295.52 247.11 293.57 251.55 290.25 253.5 288.13 254.73 285.59 254.58 280.29 257.16 274.51 259.99 269.82 261.13 267.53 262.78 265.54 267.15 255.48 269.14 253.48 269.82 250.25 270.81 250.59 276.37 240.3 277.59 237.21 277.62 234.7 279.39 233.13 280.03 229.71 281.19 228.43 283.99 227.97 284.99 227.33 298.09 226.69 302.72 225.92 302.37 214.99 303.14 214.69 304.86 212.1 306.22 211.78 307.16 209.69 309.6 206.65 313.26 204.63 315.56 206.72 318.24 206.75 318.47 208.24 320.75 209.4 321.61 207.78 324.7 211.32 327.69 211.81 330.47 213.54 331.3 212.94 333.11 213.39 335.59 215.01 336.64 214.51 337.5 215.92 339.44 215.7 341.41 216.68 342.7 218.47 Z" id="34011580"/>
<path d="M 474.1 313.21 473.79 315.25 475 319.01 473.1 324.9 470.1 326.02 469.63 327.42 466.95 328.36 465.38 327.91 460.42 327.17 458.03 324.14 456.7 325.85 454.37 326.73 453.11 325.71 451.39 325.76 450.36 325.12 447.52 326.65 443.67 327.39 441.28 330.48 439.44 329.31 433.47 326.68 431.58 326.42 431 324.99 425.69 324.99 425.02 323.37 423.81 322.51 424.23 321.48 420.97 321.57 419.14 317.07 417.85 315.71 417.22 313.28 414.98 309.56 413.53 306.19 410.08 304.83 410.2 306.67 409.22 308.79 406.47 313.2 404.38 315.48 403.52 315.78 401.24 318.25 401.72 320.9 400.43 321.26 400.73 322.96 399.87 325.68 397.28 328.22 394.82 329.51 393.42 328.22 391.15 329.29 390.35 332.49 388.9 333.55 385.87 331.58 383.57 331.41 380.69 329.92 377.1 328.5 374.43 326.38 374.28 325.6 371.98 324.15 369.93 327.64 370.52 328.9 370.02 331.05 368.57 332.51 369.65 333.47 368.97 334.49 369.24 336.75 374.11 341.03 374.51 344.68 373.76 346.03 372.86 349.76 371.55 350.48 370.65 352.04 368.87 352.96 369.26 356.12 369.99 356.8 369.99 359.24 371.13 361.7 369.7 364.96 368.92 365.39 367.87 370.11 370.6 372 370.04 375.76 368.73 378.23 369.61 382.83 370.88 385.08 373.47 386.92 373.29 388.48 374.27 390.9 375.51 391.88 375.77 393.74 377.72 395.94 378.38 397.91 377.94 399.84 378.43 401.48 375.02 401.55 372.78 399.78 370.54 398.49 369.58 398.76 367.72 397.9 367.11 396.58 365.14 396.55 363.48 395.61 360.45 397.77 358 395.52 355.84 396.08 353.77 395.59 352.07 396.41 351.88 397.61 347.76 397.11 344.84 394.38 342.47 393.02 342.06 392.18 339.84 391.51 338.86 392.56 337.08 392.07 336.16 393.7 333.55 394.54 327.79 395.78 323.31 394.86 322.46 395.76 321.17 395.47 317.94 390.65 317.83 388.38 316.58 386.96 313.59 386.47 311.47 384.78 310.07 384.86 303.93 383.14 299.98 384.64 297.46 384.82 296.02 385.73 294.15 385.51 293.29 384.97 296.18 380.79 297.08 378.02 296.84 375.34 297.73 374.08 300.23 374.07 302.52 370.76 303.59 370.38 303.98 367.68 306.34 367.07 307.31 366.1 305.73 363.16 304.59 362.64 304.69 360.03 303.25 355.12 300.69 354.18 301.54 352.22 300.6 350.07 301.18 349.25 300.8 346.85 299.48 344.35 301.05 342.26 298.93 341.34 299.63 337.91 299.58 335.83 297.29 334.38 296.79 332.99 296.85 329.95 297.35 327.68 296.81 325.25 298.13 324.16 298.04 322.08 298.53 318.43 300.1 317.02 300.97 314.31 301.32 311.85 304 309.97 304.88 307.65 304.46 304 306.58 302.37 308.41 299.13 310.38 298.39 312.91 298.79 313.8 297.39 313.79 294.34 314.64 293.02 316.49 291.71 316.08 289.34 317.27 286.82 315.42 284.67 317.16 281.9 318.68 283.85 322.38 286.22 323.53 286.55 327.11 289.73 332.6 288.84 334.73 288.87 339.24 290.6 340.27 287.73 340.44 284.36 341.1 283.22 341.19 281.14 341.98 279.52 342.48 276.42 345.88 273.37 345.69 270.82 345 269.82 343.7 263.77 344.37 262.45 345.55 258.38 345.56 255.5 346.67 253.09 346.6 252.04 347.97 250.06 347.29 248.9 347.97 247.16 347.63 244.68 347.05 243.65 344.13 241.36 342.99 239.68 342.62 237.35 345.14 233.87 345.2 230.75 346.2 228.91 345.93 225.78 344.8 224.97 344.48 222.35 343.02 219.98 342.7 218.47 344.41 218.92 344.98 218.13 347.43 218.22 349.22 219.06 352.53 217.44 354.34 215.31 354.28 211.62 355.22 209.42 356.24 209.04 358.39 204.57 358.24 203.81 360.88 202.18 361.76 202.39 363.1 201.04 365.85 203.53 368.29 203.05 370.36 200.13 369.98 198.34 371.1 195.76 370.98 194.26 371.94 192.6 371.24 190.13 373.49 187 375.69 185.35 376.2 182.91 377.58 181.88 378.31 179.28 376.69 177.01 378.6 174.06 378.13 168.88 378.54 168.36 377.73 166.04 379.24 164.88 380.36 162.6 379.31 159.98 379.12 156.73 377.85 154.48 375.56 152.39 374.46 147.76 375.1 145.98 376.1 145.06 376.95 138.78 376.46 136.79 376.81 135.01 376.35 133.54 376.11 129 377.61 128.27 379.39 128.43 380.96 126.51 383.76 124.67 384.03 122.99 387.11 121.81 387.32 121 389.52 118.32 392.84 116.6 394.72 114.23 394.46 111.81 396.14 110.84 395.74 109.76 397.84 107.75 400.14 107.32 401.1 106.26 402.3 106.53 403.63 105.73 407.59 106.37 408.83 105.19 412.25 104.49 415.01 104.97 416.03 105.88 417.84 104.84 418.69 102.8 421.19 102.43 423.93 100.19 425.9 100.49 428.42 101.44 431.93 101.7 434.75 101.12 436.84 100.1 440.62 101.53 440.94 102.3 446.52 106.46 447.89 108.64 450.28 109.07 451.7 110.2 451.76 111.27 455.15 112.68 456.23 114.29 458.06 114.73 459.18 115.75 460.98 116.32 461.57 118.13 462.65 118.78 463.12 123.53 463.1 127.43 464.05 128.72 462.62 131.57 463.36 133.72 465.06 135.46 466.21 138.73 467.26 139.32 467.72 141.16 467.05 143.06 469.13 145.23 468.37 147.61 468.92 150.05 468.46 151.25 465.33 153.68 463.41 156.24 460.9 156.62 460.62 157.72 459 159.14 457.37 162.94 457.34 166.02 459.46 168.19 460.14 170.62 461.75 172.46 461.86 174.44 460.28 176.01 460.14 177.43 461.86 182 462.61 185.92 466.17 184.52 468.33 185.07 469.84 186.23 471.25 189 474.37 190.3 477.19 189.63 480.53 192.13 483.05 194.62 482.4 196.29 483.33 198.98 483.28 200.19 482.23 201.96 482.45 203.38 481.92 205.17 481.72 208.29 479.71 210 479.33 211.4 476.44 214 475.39 216.31 475.09 220.26 473.44 221.97 473.66 223.17 475.38 224.31 475.95 225.56 475.37 228.11 476.81 230.16 476.59 231.54 475.24 233.66 472.73 234.77 470.86 234.49 470.03 237.63 468.66 239.35 467.89 241.91 468.25 243.42 466.54 247.5 465.08 248.3 465 251.06 466.31 252.96 466.29 256.33 465.01 259.03 466.04 263.48 462.8 266.14 463.72 267.34 466.76 266.98 467.71 268.57 466.8 271.13 468.09 272.77 465.32 277.48 462.24 282.12 458.68 286.42 459.26 288.7 461.82 290.79 462.83 292.38 463.45 297.15 467.5 301.5 469.43 304.98 473.95 311.49 474.1 313.21 Z" id="34011110"/>
<path d="M 240 314.33 239.57 317.11 240.8 317.79 240.8 319.31 243.15 320.58 244.28 323.14 244.92 325.76 244.79 328.31 248.42 327.84 251.79 325.66 253.25 325.9 255.76 331.04 257.15 330.75 258.53 332.27 258.05 333.51 260.93 335.94 262.35 336.3 264.31 335.84 266.72 335.98 271.32 334.3 271.9 336.4 274.44 337.21 275.99 335.98 277.29 336.45 279.39 335.83 279.93 332.6 281.35 333.48 283.83 333.4 286.15 333.83 289.07 333.04 290.67 333.67 292.26 334.98 293.51 334 296.79 332.99 297.29 334.38 299.58 335.83 299.63 337.91 298.93 341.34 301.05 342.26 299.48 344.35 300.8 346.85 301.18 349.25 300.6 350.07 301.54 352.22 300.69 354.18 303.25 355.12 304.69 360.03 304.59 362.64 305.73 363.16 307.31 366.1 306.34 367.07 303.98 367.68 303.59 370.38 302.52 370.76 300.23 374.07 297.73 374.08 296.84 375.34 297.08 378.02 296.18 380.79 293.29 384.97 294.15 385.51 293.78 388.74 292.2 390.07 291.55 391.99 290.29 393.05 290.99 395.63 290.06 398.5 287.81 399.08 286.03 398.44 282.94 395.93 279.22 394.91 279.45 400.08 276.72 401.52 275.12 401.4 274.1 402.19 274.41 404.93 270.88 412.05 273.08 413.51 273.23 415.14 272.11 416.76 270.94 416.95 270.17 418.19 267.6 418.84 267.1 420.99 266.04 422.47 264.45 423.11 263.37 422.67 257.94 424.11 256.99 424.94 257.18 426.14 255.19 426.65 253.85 428.72 249.89 431.22 249.56 432.15 247.75 433.34 245.37 432.73 245 433.98 243.11 434.94 241.72 438 239.96 439.98 237.66 440.34 235.92 440.09 232.66 443.25 230.17 438.66 230.36 437.3 228.5 435.75 227.83 431.98 226.27 432.04 226.16 428.38 224.93 429.19 223 428.53 219.36 429.82 218.1 428.02 215.37 427.55 213.73 428.62 211.47 429.04 209.3 430.15 208.2 431.34 204.31 432.06 201.95 433.15 197.06 433.52 197.25 431.42 196.37 427.99 194.17 425.11 192.96 424.68 192.93 422.07 187.78 421.9 186.14 421.28 183.28 422.39 180.48 422.14 177.8 421.19 176.06 421.01 173.62 419.93 169.69 417.3 165.94 416.94 165.11 417.83 163.42 416.43 161.7 416.3 157.87 416.98 156.53 416.71 154.92 413.75 149.9 412.15 148.91 410.94 149.14 409.13 148.36 405.86 145.87 402.15 145.23 398.48 146.38 396.93 140.97 394.26 140.69 391.67 141.58 388.39 142.4 386.86 142.08 385.06 143.37 383.15 143.49 381.96 145.93 377.42 148.63 374.31 149.51 372.01 154.13 368.1 150.81 365.61 150.34 362.35 151.92 357.37 155.87 356.27 156.31 353.95 155.93 351.52 154.48 348.33 152.73 347.19 153.18 344.59 155.56 344.06 157.01 342.79 158.3 343.51 161.6 346.61 163.59 346.25 168.28 342.99 169.12 341.61 170.99 340.86 172.19 338.46 171.7 336.92 172.86 336.09 173.12 334.76 175.38 330.77 171.96 329.71 170.85 326.99 170.23 322.24 163.7 322.33 162.84 321.54 162.61 319.91 163.14 317.77 164.71 317.73 166.69 318.6 168.34 319.97 170.02 318.57 173 319.46 175.31 319.75 180.04 322.21 182.78 323.35 184.24 322.67 186.84 323.05 189.01 323.96 190.22 320.9 191.78 320.93 194.65 322.58 196.58 322.14 197.57 320.87 198.08 318.99 201.31 317.79 202.89 315.37 204.53 315.39 206.2 313.01 208.37 313.54 210.5 313.27 213.34 311.62 217.51 309.62 219.91 307.58 221.41 308.86 222.9 308.86 224.92 312 226.22 311.67 227.47 310.17 228.62 310.15 230.54 308.69 232.69 308.35 234.24 309.93 237.05 310.86 238.6 312.27 240 314.33 Z" id="34011310"/>
<path d="M 232.66 443.25 232.88 445.52 236.04 446.77 236.94 448.27 240.72 449.88 243.2 449.39 245.27 448.35 248.7 452.57 248.98 454.25 248.3 456.54 248.49 457.62 250.59 459.49 252.87 460.7 252.26 461.44 252.97 464.92 252.7 465.32 253.93 468.91 254.84 468.95 257.96 472.2 257.15 477.75 259.64 478.6 260.85 481.11 261 483.39 261.78 484.79 259.24 486.98 259.62 488.82 261.81 489.37 263.65 491.19 264.99 490.32 266.85 490.46 268.27 488.71 270.79 487.03 272.39 487.34 273.73 486.49 274.82 489.12 276.79 489.13 277.34 490.07 280.47 488.07 282.1 486.38 284.25 487.09 287.68 486.9 288.83 481.71 288.54 480.05 289.23 478.41 289.36 475.2 291.21 475.91 292.45 478.23 295.67 482.16 297.24 485.87 297.81 488.2 297.15 489.73 294.89 492.56 296.68 493.32 296.51 494.26 297.77 497.87 299.43 501.07 299.74 504.03 300.76 505.44 302.14 509.91 301.7 511.99 302.68 513.99 303.05 516.42 301.75 521.89 300.05 522.46 296.85 525.54 296.07 527.11 294.82 527.55 292.28 529.62 292.61 533.72 291.21 534.5 290.35 537.43 287.56 539.24 288.07 541.27 286.63 543.01 285.94 548.32 284.17 550.38 285.14 550.72 287.88 552.99 287.67 554.38 289.79 555.36 291.15 556.92 293.26 557.75 293.85 560.26 293.79 563.28 294.52 564.61 295.01 567.03 296.07 567.43 296.25 570.35 294.77 570.8 291.92 573.3 291.84 574.69 290.05 574.65 286.74 577.43 284.62 578.3 284.08 579.21 284.38 583.82 283.52 585.93 283.64 589.22 283.04 590.02 283.82 593.08 281.89 596.65 282.7 598.24 282.32 600.24 283.84 602.74 288.11 605.89 287.22 607.48 288.49 609.72 290.36 610.29 290.48 611.18 289.28 613.44 288.28 614.37 289.41 617.36 291.51 620.36 290.47 621.92 290.41 624.3 289.27 625.85 290.46 627.82 288.04 629.19 287.82 633.3 288.79 635.51 288.44 636.62 289.79 638.56 289.54 639.95 290.69 641.02 294.27 642.83 295.98 642.23 295.61 644.29 296.24 646.64 295.49 647.56 293.72 647.89 291.28 647.71 290.25 649.14 288.64 647.92 285.55 647.24 284.25 648.01 282.55 650.71 281.83 652.87 280.19 653.09 276.72 658 275.67 654.21 273.82 653.15 274.88 651.34 274.9 648.87 274.38 648.22 273.31 644.17 272.3 642.88 271.6 640.4 272.67 637.06 273.67 636.22 272.88 635.1 271.5 635.48 269.08 634.18 268.59 632.01 266.53 628.54 266.72 627.33 265.25 624.69 266.17 623.13 265.96 621.1 263.53 620.04 261.4 619.63 257.56 617.09 258.65 613.98 258.08 608.97 258.93 606.51 257.66 603.94 257.36 602.36 254.52 601.61 253.99 600.33 250.97 598.56 248.44 600.4 247.83 598.69 244.24 598.03 241.35 596.66 236.51 592.67 236.84 591.48 235.24 590.95 233.78 588.63 234.15 586.61 233.43 584.43 234.1 581.91 233.28 581.16 233.49 579.43 232.37 577.11 230.58 576.45 230.26 577.41 228.06 578.13 225.24 577.99 223.91 576.41 219.6 574.83 217.88 570.82 214.48 570.13 211.65 570.53 209.31 569.45 206.72 567.08 203.78 567.79 201.09 565.53 200.89 564.01 198.11 564.68 195.9 564.48 193.1 566.39 191.86 565.74 189.71 566.54 188.93 567.56 185.23 569 181.58 572.62 179.79 575.01 178.39 573.9 175.2 574.17 174.17 572.2 172.37 573.07 170.81 575.64 167.74 576.04 167 575.4 165.67 576.95 164.51 581.05 165.39 585.89 165.48 588.36 164.41 589.07 161.89 593.43 160.14 595.78 158.3 599.51 158.57 601.49 156.95 602.29 156.69 603.99 155.35 604.76 149.77 605.82 145.6 604.79 142 606.2 138.88 604.76 137.48 604.79 135.7 604.03 133.44 604.56 131.75 604.44 128.83 606.55 126.43 605.97 125.94 603.32 120.81 599.31 120.09 597.08 115.07 596.92 112.01 594.81 110.02 594.47 108.05 596.01 106.79 596.15 104.58 597.7 103.48 596.92 102.32 597.3 100.34 596.08 98.59 596.39 95.72 593.31 95.63 592.3 93.62 588.95 93.57 587.5 92.16 587.33 91.83 585.51 89.94 584.48 89.68 582.38 84.82 580.79 84.17 581.09 80.76 580.45 77.74 581.55 75.06 581.01 71.63 582.19 68.48 581.47 66.64 579.54 65.81 577.37 62.21 574 57.81 573.18 56.49 572.55 54.94 572.76 52.49 572.32 51.48 573.28 49.64 573.64 46.8 573.52 44 572.84 41.01 571.69 37.37 570.93 33.82 570.67 31.69 573.23 28.32 579.98 26.38 581 24.37 585 18.65 582.55 16.39 582.73 15.73 580.16 14.41 578.25 11.57 576.79 9.7 574.71 6.49 575.84 4.85 571.77 2.99 570.23 2.58 568.14 1 567.83 1.18 565.51 3.02 563.74 5.53 560.23 7.32 559.29 6.43 557.95 6.44 556.27 7.71 554.42 7.89 552.97 10.28 551.55 11.41 549.67 14.69 545.7 13.91 543.31 14.17 541.87 15.26 540.36 14.35 533.65 15.14 531.3 17.18 529.36 20.28 525.54 23.47 524.45 22.47 521.28 22.66 519.88 24.77 518.48 27.26 516.25 27.23 513.31 27.77 511.34 28.78 509.74 30.53 508.11 31.87 504.89 34.12 502.21 34.69 500.23 36.36 497.08 37.84 495.72 40.46 491.84 41.92 490.19 44.71 488.79 47.08 488.02 51.67 485.79 53.58 485.28 60.22 481.42 63.95 478.16 65.24 475.84 68.49 474.34 72.71 469.58 74.03 466.54 77.85 462.57 78.86 461.18 79.91 458.27 79.99 456.74 82.58 455.28 85.25 453.24 88.6 452.9 93.28 451.32 94.33 450.24 96.26 446.84 97.29 446.3 98.16 444.74 99.08 444.8 105.84 443.72 106.68 444.34 109.94 442.56 117.44 443.08 122.31 444.89 124.91 445.24 127.12 444.04 127.45 442.81 129.47 441.11 133.24 441.97 135.03 440.72 136.81 440.2 138.45 440.48 137.73 437.24 138.18 434.35 139.36 432.78 138.7 431.31 139.12 424.85 138.99 422.86 139.76 420.63 141.18 417.96 142.82 415.92 143.25 414.33 145.32 412.59 148.91 410.94 149.9 412.15 154.92 413.75 156.53 416.71 157.87 416.98 161.7 416.3 163.42 416.43 165.11 417.83 165.94 416.94 169.69 417.3 173.62 419.93 176.06 421.01 177.8 421.19 180.48 422.14 183.28 422.39 186.14 421.28 187.78 421.9 192.93 422.07 192.96 424.68 194.17 425.11 196.37 427.99 197.25 431.42 197.06 433.52 201.95 433.15 204.31 432.06 208.2 431.34 209.3 430.15 211.47 429.04 213.73 428.62 215.37 427.55 218.1 428.02 219.36 429.82 223 428.53 224.93 429.19 226.16 428.38 226.27 432.04 227.83 431.98 228.5 435.75 230.36 437.3 230.17 438.66 232.66 443.25 Z" id="34011320"/>
<path d="M 579.3 79.18 578.92 81.76 579.1 84.99 574.2 92.79 574.89 96.75 574.64 97.86 572.76 99.13 572.82 100.51 571.85 101.59 569.45 105.5 569.68 107.32 568.86 109.94 567.6 110.52 564.32 110.07 560.72 111.69 560.04 114.97 560.38 117.1 559.51 118.2 559.24 120.04 557.7 121.84 556.66 125.39 555.29 127.62 553.83 128.31 553.53 130.59 552.88 131.58 550.29 132.8 549.61 136.14 550.4 139.1 551.24 140.71 551.33 142.49 553.96 146.25 551.63 148.66 551.89 150.46 553.46 152.14 556.38 153.63 557.35 155.77 558.59 156.65 559.57 160.56 560.39 161.62 560.48 164.78 561.03 165.4 561.49 168.78 561 172.22 562.43 178.17 563.37 179.05 562.79 181.39 561.74 182.76 557.85 184.8 555.73 186.37 555.37 187.98 556.65 189.46 556.71 191.56 557.52 192.88 558.15 198.45 558.05 203.11 559.34 207.3 558.91 209.92 558.12 210.37 556.6 212.77 555.97 215.04 555.21 219.61 547.91 222.34 546.18 221.71 542.5 223.6 538.66 224.24 533.53 224.03 532.77 226.94 529.14 228.95 529.06 232.73 528.48 235.51 528.64 237.23 527.92 239.47 528.99 242.04 528.28 244.16 529.12 246.75 532.97 249.91 531.72 252.85 532.61 256.36 532.65 258.19 533.59 259.79 532.22 261.68 531.55 264 532.67 267.56 533.65 268.26 531.78 270.33 529.27 270.62 529.23 271.67 527.7 273.49 527.49 277.92 526.5 279.77 524.23 280.08 522.57 281.12 519.1 282.43 517.81 284.4 520.56 290.13 518.7 292.92 516.25 294.41 514.73 296.81 516.19 298.48 515.18 299.67 513.25 299.24 511.86 300.89 512.57 302.69 511.54 304.23 508.56 304.46 507.91 303.91 504.92 304.03 502.53 305.03 501.4 305.96 500.3 309.96 496.93 310.6 496.47 313.14 494.38 314.3 491.12 313.39 489.35 311.7 488.04 311.17 484.1 312.14 482.1 311.73 480.47 312.78 483.18 316.1 479.82 314.6 475.44 311.94 474.1 313.21 473.95 311.49 469.43 304.98 467.5 301.5 463.45 297.15 462.83 292.38 461.82 290.79 459.26 288.7 458.68 286.42 462.24 282.12 465.32 277.48 468.09 272.77 466.8 271.13 467.71 268.57 466.76 266.98 463.72 267.34 462.8 266.14 466.04 263.48 465.01 259.03 466.29 256.33 466.31 252.96 465 251.06 465.08 248.3 466.54 247.5 468.25 243.42 467.89 241.91 468.66 239.35 470.03 237.63 470.86 234.49 472.73 234.77 475.24 233.66 476.59 231.54 476.81 230.16 475.37 228.11 475.95 225.56 475.38 224.31 473.66 223.17 473.44 221.97 475.09 220.26 475.39 216.31 476.44 214 479.33 211.4 479.71 210 481.72 208.29 481.92 205.17 482.45 203.38 482.23 201.96 483.28 200.19 483.33 198.98 482.4 196.29 483.05 194.62 480.53 192.13 477.19 189.63 474.37 190.3 471.25 189 469.84 186.23 468.33 185.07 466.17 184.52 462.61 185.92 461.86 182 460.14 177.43 460.28 176.01 461.86 174.44 461.75 172.46 460.14 170.62 459.46 168.19 457.34 166.02 457.37 162.94 459 159.14 460.62 157.72 460.9 156.62 463.41 156.24 465.33 153.68 468.46 151.25 468.92 150.05 468.37 147.61 469.13 145.23 467.05 143.06 467.72 141.16 467.26 139.32 466.21 138.73 465.06 135.46 463.36 133.72 462.62 131.57 464.05 128.72 463.1 127.43 463.12 123.53 462.65 118.78 461.57 118.13 460.98 116.32 459.18 115.75 458.06 114.73 456.23 114.29 455.15 112.68 451.76 111.27 451.7 110.2 450.28 109.07 447.89 108.64 446.52 106.46 440.94 102.3 440.62 101.53 436.84 100.1 434.75 101.12 431.93 101.7 428.42 101.44 425.9 100.49 423.93 100.19 424.1 98.58 425.77 97.25 425.8 95.39 427.02 94.6 427.35 92.66 426.48 91.01 427.4 89.14 429.79 86.93 431.17 84.35 430.2 82.87 430.02 80.65 431.22 76.83 431.12 75.49 432.73 73.4 432.55 72.41 434.02 70.44 434.86 67.41 434.69 65.67 435.96 64.21 436.51 62.17 438.56 62.24 441.69 63.54 443.32 64.69 444.37 62.72 447.65 60.74 450.5 59.8 452.66 57.68 453.76 57.63 456.31 55.71 458.79 54.31 462.25 53.65 462.82 51.97 463.94 52.2 468.21 51.07 466.9 48.95 466.94 45.83 467.46 41.73 468.22 39.78 470.34 36.22 470.37 35.16 472.91 33.15 476.98 31.56 480.71 32.29 483.22 34.11 486.74 35.39 488.29 33.72 489.07 33.91 490.48 32.04 490.32 30.82 492.43 26.86 496.25 25.84 499.62 23.04 502 23.01 504.12 23.77 509.69 24.54 511.88 17.78 512.18 12.79 514.24 12.45 516.04 10.98 516.96 8.64 522.2 5.77 523.72 7.06 527.34 9.14 528.09 10.97 528.98 11.53 531 10.87 532.7 8.89 534.99 10.05 537.29 9.27 538.98 7.78 540.55 7.52 544.22 3.94 544.85 2.7 546.73 1 550.39 1.56 552.21 3.38 554.42 3.91 554.48 5.51 557.19 6.86 559.57 7.11 563.54 6.73 565.06 8.2 566.09 10.33 568.18 12.74 569.48 13.01 572.49 15.59 572.75 17.25 575.77 17.02 580.23 17.3 581.31 21.96 581.16 25.04 583.01 26.17 586.71 29.43 585.71 31.52 583.6 33.66 583.43 34.58 584.52 40.94 585.72 42.75 584.14 46.08 585.09 48.28 585.08 49.83 586.94 53.18 585.83 55.71 585.65 59.45 581.72 61.69 579.96 64.03 579.76 66.34 576.35 70.35 579.03 75.31 579.3 79.18 Z" id="34011330"/>
<path d="M 474.1 313.21 475.44 311.94 479.82 314.6 483.18 316.1 483.61 317.74 486.38 320.73 487.88 321.16 491.97 323.1 493.14 323.24 495.13 324.7 497.01 328 497.13 330.58 498.84 331.93 501.95 332.72 504.06 331.88 507.63 329.47 509.25 329.27 511.12 330.04 513.05 331.49 516.63 331.49 519.44 330.23 521.9 330.6 523.54 332.18 525.38 332.62 528.05 333.97 529.19 334.51 529.38 335.77 528.46 337.99 526.79 338.96 526.43 340.5 524.02 340.64 520.96 343.31 518.89 342.43 518.16 342.89 516.67 345.72 513.33 346.61 513.14 347.72 509.49 348.97 508.67 349.7 505.61 346.45 504.59 345.89 502.73 343.79 499.47 344.03 496.63 342.38 493.7 343.18 492.11 345.44 490.08 346.37 489.2 348.4 491.87 350.47 491.04 356.03 489.11 358.56 486.39 357.48 483.31 362.56 488.59 366.17 492.16 367.38 491.84 372.76 497.37 372.69 498.67 372.99 498.76 375.71 498.31 378.91 494.83 383.11 494.02 385.2 494.69 386.97 496.21 387.95 494.26 391.65 494.45 393.27 493.9 394.7 494.15 397 492.26 398.82 493.55 400.56 495.04 401.5 497.66 402.29 495.18 407.22 495.25 407.82 492.91 409.62 490.35 410.38 490.4 411.27 489.03 413.67 489.56 416.57 490.19 417.74 488.87 419.49 491.05 424.55 491.36 425.78 495.28 426.13 495.87 427.75 496.89 428.61 495.28 430.6 494.95 434.78 492.99 435.75 494.31 437.97 494.07 439.41 492.84 441.18 493.42 443.45 495.54 445.82 496.9 448.07 497.95 448.13 497.12 451.25 498.19 454.22 500.34 455.32 501.22 456.32 502.4 459.01 501.78 460.96 502.75 464.25 503.98 465.73 505.22 469.45 505.77 472.79 506.53 473.73 506.58 476.16 508.28 478.62 505.85 479.68 504.74 480.76 500.74 481.95 499.03 482.96 496.91 482.87 492.26 481.96 490.04 482.7 488.38 482.04 484.85 482.96 483.25 479.35 477.42 476.39 475.14 473.62 473.89 473.29 473.68 472.07 471.83 471.45 469.17 474.74 467.2 474.95 465.65 476.15 464.46 474.92 463.91 473.4 461.16 474.18 460.36 472.01 457.58 469.24 457.87 468.02 457.13 465.52 459.3 464.25 459.28 462.44 458.53 461.67 456.38 462.05 453.45 461.33 451.52 459.68 449.4 458.72 449.19 456.25 447.72 456.5 444.31 453.7 443.96 448.64 443.05 446.38 440.91 446.54 439.18 444.89 438.88 443.14 434.97 442.54 431.3 445.52 430.14 445.5 428.8 444.1 427.96 444.62 425.65 442.68 423.85 440.24 421.15 439.39 418.27 436.3 417.69 433.14 417.86 431.07 419.37 428.92 418.24 426.52 414.98 427.08 411.81 426.81 409.73 427.13 407.6 426.86 403.59 425.64 401.21 423.29 401.71 420.55 400.69 419.06 398.55 418.64 396.27 420.81 393.12 420.55 387.63 418.6 387.87 417.46 384.6 414.61 381.73 414.18 380.85 412.36 381.08 410.48 379.81 409.02 379.51 407.29 380.57 404.07 379.57 403.53 378.43 401.48 377.94 399.84 378.38 397.91 377.72 395.94 375.77 393.74 375.51 391.88 374.27 390.9 373.29 388.48 373.47 386.92 370.88 385.08 369.61 382.83 368.73 378.23 370.04 375.76 370.6 372 367.87 370.11 368.92 365.39 369.7 364.96 371.13 361.7 369.99 359.24 369.99 356.8 369.26 356.12 368.87 352.96 370.65 352.04 371.55 350.48 372.86 349.76 373.76 346.03 374.51 344.68 374.11 341.03 369.24 336.75 368.97 334.49 369.65 333.47 368.57 332.51 370.02 331.05 370.52 328.9 369.93 327.64 371.98 324.15 374.28 325.6 374.43 326.38 377.1 328.5 380.69 329.92 383.57 331.41 385.87 331.58 388.9 333.55 390.35 332.49 391.15 329.29 393.42 328.22 394.82 329.51 397.28 328.22 399.87 325.68 400.73 322.96 400.43 321.26 401.72 320.9 401.24 318.25 403.52 315.78 404.38 315.48 406.47 313.2 409.22 308.79 410.2 306.67 410.08 304.83 413.53 306.19 414.98 309.56 417.22 313.28 417.85 315.71 419.14 317.07 420.97 321.57 424.23 321.48 423.81 322.51 425.02 323.37 425.69 324.99 431 324.99 431.58 326.42 433.47 326.68 439.44 329.31 441.28 330.48 443.67 327.39 447.52 326.65 450.36 325.12 451.39 325.76 453.11 325.71 454.37 326.73 456.7 325.85 458.03 324.14 460.42 327.17 465.38 327.91 466.95 328.36 469.63 327.42 470.1 326.02 473.1 324.9 475 319.01 473.79 315.25 474.1 313.21 Z" id="34011340"/>
<path d="M 586.44 405.2 584.45 404.79 584.13 405.86 586.92 406.54 587.35 408.05 584.25 411.48 583.1 414.19 583.32 415.28 581.73 420.25 582.59 423.4 581.77 424.33 581.8 427.18 583.46 429.09 583.35 430.44 582.05 430.48 580.92 434.24 579.77 436.03 580.32 436.63 579.7 439.67 578.15 444.02 579.93 445.65 581.16 447.98 580.72 449.75 582.07 451.14 581.37 453.89 579.23 455.66 577.17 456.57 576.13 458.05 574.28 458.78 573.14 460.85 568.95 464.03 561.5 466.07 561.27 467.52 560.2 469.24 556.77 469.84 555.95 470.81 553.43 471.2 550.92 470.58 546.04 475.11 544.59 477.84 543.03 478.98 541.21 481.76 538.65 483.36 537.93 486.54 535.92 487.03 532.74 486.71 530.31 487.2 528.83 484.01 527.61 483.05 525.8 483.6 523.23 484.96 521.17 483.65 519.46 479.74 515 475.54 512.93 477.06 511.17 477.54 509.88 477.2 508.28 478.62 506.58 476.16 506.53 473.73 505.77 472.79 505.22 469.45 503.98 465.73 502.75 464.25 501.78 460.96 502.4 459.01 501.22 456.32 500.34 455.32 498.19 454.22 497.12 451.25 497.95 448.13 496.9 448.07 495.54 445.82 493.42 443.45 492.84 441.18 494.07 439.41 494.31 437.97 492.99 435.75 494.95 434.78 495.28 430.6 496.89 428.61 495.87 427.75 495.28 426.13 491.36 425.78 491.05 424.55 488.87 419.49 490.19 417.74 489.56 416.57 489.03 413.67 490.4 411.27 490.35 410.38 492.91 409.62 495.25 407.82 495.18 407.22 497.66 402.29 495.04 401.5 493.55 400.56 492.26 398.82 494.15 397 493.9 394.7 494.45 393.27 494.26 391.65 496.21 387.95 494.69 386.97 494.02 385.2 494.83 383.11 498.31 378.91 498.76 375.71 498.67 372.99 497.37 372.69 491.84 372.76 492.16 367.38 488.59 366.17 483.31 362.56 486.39 357.48 489.11 358.56 491.04 356.03 491.87 350.47 489.2 348.4 490.08 346.37 492.11 345.44 493.7 343.18 496.63 342.38 499.47 344.03 502.73 343.79 504.59 345.89 505.61 346.45 508.67 349.7 509.49 348.97 513.14 347.72 513.33 346.61 516.67 345.72 518.16 342.89 518.89 342.43 520.96 343.31 524.02 340.64 526.43 340.5 526.79 338.96 528.46 337.99 529.38 335.77 529.19 334.51 528.05 333.97 529.37 333.74 536.04 330.6 538.11 328.37 539.54 327.5 545.19 326.93 550.41 325.35 553.55 325.47 557.52 325 561.7 325.45 565.27 328.21 567.8 330.47 567.86 332.92 570.23 336.24 572.81 337.53 573.75 338.87 577.8 340.53 578.94 342.42 580.84 343.69 580.23 347.92 579.25 351.52 580.56 352.63 581.82 355.52 581.99 357.29 583.34 360.32 582.52 362.82 582.84 364.49 581.42 365.64 582.12 368.43 582.56 373.88 585.59 373.62 587.81 375.65 589.13 375.93 590.23 378.16 590.92 382.6 590.45 385.21 590.55 387.6 589.61 389.35 588.17 390.86 586.84 394.53 585.74 396.28 584.98 399.78 586.92 401.05 587.14 401.81 586.44 405.2 Z" id="34011350"/>
<path d="M 636.66 93.48 635.53 95.51 635.37 104.48 636.19 107.13 634.99 108.89 636.23 110.86 636.22 114.26 634.34 116.05 632.3 121.32 632.36 125.37 631.3 128.12 631.49 131.08 634.26 132.67 633.48 134.09 633.76 137.03 633.11 139.87 631.93 142.31 631.38 144.88 630.33 145.84 632.25 148.96 633.99 149.55 636.24 151.21 638.5 149.35 639.31 148.09 641.43 147.52 647.29 149.54 651.58 149.84 652.79 151.52 655.15 152.16 657.59 150.96 658.65 149.6 664.15 148.5 665.53 148.86 667.05 150.43 670.78 151.69 673.91 153.66 676.18 156.42 677.86 161.38 676.56 163.76 676.07 165.93 677.94 168.56 676.13 171.68 673.78 174.53 673.57 175.37 671.18 178.97 670.08 180.16 669.63 182.78 666.51 188.09 666.09 190.49 663.76 193.19 658.15 194.39 656.73 196.5 655.41 197.19 654.39 200.76 653.31 202.87 652.01 203.41 650.29 206.49 645.97 208.02 646.14 209.31 647.27 210.66 647.2 213.38 650.13 215.39 650.67 216.59 647.36 221.94 643.69 221.36 642.14 220.64 639.05 221.41 635.72 225.62 634.59 225.93 632.17 229.87 631.13 228.7 627.59 227.43 624.96 230.62 622.29 231.88 619.91 231.96 619.03 234.87 617.11 238.05 617.62 238.51 617.93 241.11 618.52 242 616.79 242.96 615.58 244.45 615.89 245.35 615.01 248.38 617.52 251.73 618.78 255.83 619.83 257.47 620.08 261.16 619.81 263.84 618.95 266.14 619.65 269.86 618.66 271.81 618.15 275.24 617.45 276.49 614.76 276.66 613.62 279.67 613.07 282.09 613.19 285.55 611.83 287.75 612.59 290.1 611.62 293.59 612.34 295.03 607.29 300.46 605.77 302.36 605.73 305.06 606.3 305.9 605.53 307.75 605.68 310.47 605.23 314.09 608.29 315.03 608.45 317.76 607.48 320.92 611.07 320.75 612.79 321.49 614.78 323.5 616.39 323.07 619.18 323.56 621.96 326.19 623.93 327.6 624.91 327.61 626.74 329.79 626.98 331.32 630.04 333.71 631.39 333.01 633.14 336.99 634.47 337.5 634.43 340.19 632.56 343.72 632.45 346.03 629.92 347.77 629.26 349.28 629.34 350.99 632.06 350.68 633.08 352.11 636.66 355.35 636.96 356.91 638.63 359.53 638.79 363.03 638.56 367.1 643.38 367.84 644.32 369.97 646.54 371.03 647.01 372.58 648.32 374.48 649.76 377.71 649.77 378.8 648.55 382.31 648.44 384.63 646.28 384.85 643.65 387.79 642.13 392.12 638.93 393.14 637.67 393.05 637.29 391.8 635.72 389.88 633.84 388.32 630.77 388.84 629.03 386.74 626.35 384.98 625.52 384.98 625 382.77 623.19 380.82 620.97 380.56 615.48 382.71 614.98 386.59 613.56 388.01 610.14 389.3 606.65 394.88 604.5 399.3 603.06 400.09 601.97 403.04 601.11 403.86 599.36 404.95 590.27 406.62 586.44 405.2 587.14 401.81 586.92 401.05 584.98 399.78 585.74 396.28 586.84 394.53 588.17 390.86 589.61 389.35 590.55 387.6 590.45 385.21 590.92 382.6 590.23 378.16 589.13 375.93 587.81 375.65 585.59 373.62 582.56 373.88 582.12 368.43 581.42 365.64 582.84 364.49 582.52 362.82 583.34 360.32 581.99 357.29 581.82 355.52 580.56 352.63 579.25 351.52 580.23 347.92 580.84 343.69 578.94 342.42 577.8 340.53 573.75 338.87 572.81 337.53 570.23 336.24 567.86 332.92 567.8 330.47 565.27 328.21 561.7 325.45 557.52 325 553.55 325.47 550.41 325.35 545.19 326.93 539.54 327.5 538.11 328.37 536.04 330.6 529.37 333.74 528.05 333.97 525.38 332.62 523.54 332.18 521.9 330.6 519.44 330.23 516.63 331.49 513.05 331.49 511.12 330.04 509.25 329.27 507.63 329.47 504.06 331.88 501.95 332.72 498.84 331.93 497.13 330.58 497.01 328 495.13 324.7 493.14 323.24 491.97 323.1 487.88 321.16 486.38 320.73 483.61 317.74 483.18 316.1 480.47 312.78 482.1 311.73 484.1 312.14 488.04 311.17 489.35 311.7 491.12 313.39 494.38 314.3 496.47 313.14 496.93 310.6 500.3 309.96 501.4 305.96 502.53 305.03 504.92 304.03 507.91 303.91 508.56 304.46 511.54 304.23 512.57 302.69 511.86 300.89 513.25 299.24 515.18 299.67 516.19 298.48 514.73 296.81 516.25 294.41 518.7 292.92 520.56 290.13 517.81 284.4 519.1 282.43 522.57 281.12 524.23 280.08 526.5 279.77 527.49 277.92 527.7 273.49 529.23 271.67 529.27 270.62 531.78 270.33 533.65 268.26 532.67 267.56 531.55 264 532.22 261.68 533.59 259.79 532.65 258.19 532.61 256.36 531.72 252.85 532.97 249.91 529.12 246.75 528.28 244.16 528.99 242.04 527.92 239.47 528.64 237.23 528.48 235.51 529.06 232.73 529.14 228.95 532.77 226.94 533.53 224.03 538.66 224.24 542.5 223.6 546.18 221.71 547.91 222.34 555.21 219.61 555.97 215.04 556.6 212.77 558.12 210.37 558.91 209.92 559.34 207.3 558.05 203.11 558.15 198.45 557.52 192.88 556.71 191.56 556.65 189.46 555.37 187.98 555.73 186.37 557.85 184.8 561.74 182.76 562.79 181.39 563.37 179.05 562.43 178.17 561 172.22 561.49 168.78 561.03 165.4 560.48 164.78 560.39 161.62 559.57 160.56 558.59 156.65 557.35 155.77 556.38 153.63 553.46 152.14 551.89 150.46 551.63 148.66 553.96 146.25 551.33 142.49 551.24 140.71 550.4 139.1 549.61 136.14 550.29 132.8 552.88 131.58 553.53 130.59 553.83 128.31 555.29 127.62 556.66 125.39 557.7 121.84 559.24 120.04 559.51 118.2 560.38 117.1 560.04 114.97 560.72 111.69 564.32 110.07 567.6 110.52 568.86 109.94 569.68 107.32 569.45 105.5 571.85 101.59 572.82 100.51 572.76 99.13 574.64 97.86 574.89 96.75 574.2 92.79 579.1 84.99 578.92 81.76 579.3 79.18 582.12 78.99 582.93 80.17 584.41 80.48 585.19 81.75 586.93 82.09 588.42 83.78 589.83 84.54 591.32 83.24 593.89 82.64 594.9 80.87 597.31 80.37 598.66 81.57 602.52 80.65 603.72 82.07 605.68 83.38 608.88 84.11 609.84 85 612.63 85.83 616.14 83.7 616.46 83.07 619.62 82.76 622.42 84.32 625.57 84.75 627.32 85.78 628.36 85.6 631.19 87.25 632.53 87.49 635.83 91.08 636.66 93.48 Z" id="34011360"/>
<path d="M 760.78 224.54 761.55 225.36 760.82 227.6 761.69 229.66 762.62 234.03 760.4 235.61 758.86 238.8 758.78 240.15 756.72 242.38 754.13 243.71 753.03 245.8 752.58 250.34 751.63 251.7 751.94 253.6 753.09 256.29 750.95 257.69 749.69 260.72 750.7 263.31 750.71 264.61 752.52 265.97 754.52 265.39 759.09 268.48 759 269.51 760.4 271.71 762.48 273.45 762.94 275.23 761.89 277.31 762.91 279.08 763.17 280.86 765.82 282.38 765.93 283.83 768.1 283.36 769.39 284.34 771.02 284.45 771.87 285.36 776.27 285.2 777.75 286.84 778.91 286.72 780.53 287.72 783.32 287.66 784.6 286.78 786.79 290.43 787.34 292.08 786.5 294.88 787.47 296.46 788.71 299.71 792.24 303.35 792.69 305.4 792.23 308.32 793.8 311.19 796.2 312.99 799 316.12 798.71 322.52 797.84 324.19 795.71 325.18 791.78 326.33 789.04 326.77 787.42 325.43 784.48 324.83 783.03 325.58 781.9 328.07 780.85 328.13 781.96 330.5 782.22 332.55 781.75 334.15 780.52 335.6 778.56 336.41 778.29 337.29 776.07 337.43 774.93 338.26 773.14 340.71 770.6 342.14 770 344.52 770.58 345.86 769.7 347.09 768.39 352.36 769.06 354.44 767.57 355.12 766.3 354 762.28 351.33 761.62 349.35 760.21 349.03 757.98 350.22 755.18 348.51 752.06 347.83 751.64 345.82 750.36 345.69 749.22 343.31 749.33 340.04 746.91 338.17 747.42 336.78 745.21 336.84 740.21 335.95 737.74 334.5 737.81 333.05 737.05 331.02 734.83 328.58 735.95 327.78 736.21 326.5 735 325.7 733.26 320.56 730.63 319.71 728.89 321.33 725.95 322.08 724.57 323.27 722.81 323.31 719.36 322.3 719.44 321.09 717.03 321.34 716.35 322.15 712.53 322.45 710.97 323.79 706.6 323.53 704.38 322.41 703.45 320.2 701.28 318.71 701.31 316.87 700.72 315.17 695.59 316.72 692.8 316.68 690.98 315.29 689.5 316.32 686.91 316.4 683.94 318.98 682.32 319.71 679.22 317.18 677.92 316.7 676.79 318.44 676.22 321.62 674.78 325.3 674.7 327.07 673.62 328.66 670.9 329.57 670.18 331.92 667.21 333.35 665.09 333.25 663.2 334.32 659.83 335.2 658.67 336.16 657.13 335.85 656.13 334.85 654.26 334.52 652.51 335.16 651.07 334.31 647.92 335.59 645.39 335.17 644.31 335.98 642.79 336.05 641.34 337.04 640.22 336.46 637.92 337.17 634.78 336.93 634.47 337.5 633.14 336.99 631.39 333.01 630.04 333.71 626.98 331.32 626.74 329.79 624.91 327.61 623.93 327.6 621.96 326.19 619.18 323.56 616.39 323.07 614.78 323.5 612.79 321.49 611.07 320.75 607.48 320.92 608.45 317.76 608.29 315.03 605.23 314.09 605.68 310.47 605.53 307.75 606.3 305.9 605.73 305.06 605.77 302.36 607.29 300.46 612.34 295.03 611.62 293.59 612.59 290.1 611.83 287.75 613.19 285.55 613.07 282.09 613.62 279.67 614.76 276.66 617.45 276.49 618.15 275.24 618.66 271.81 619.65 269.86 618.95 266.14 619.81 263.84 620.08 261.16 619.83 257.47 618.78 255.83 617.52 251.73 615.01 248.38 615.89 245.35 615.58 244.45 616.79 242.96 618.52 242 617.93 241.11 617.62 238.51 617.11 238.05 619.03 234.87 619.91 231.96 622.29 231.88 624.96 230.62 627.59 227.43 631.13 228.7 632.17 229.87 634.59 225.93 635.72 225.62 639.05 221.41 642.14 220.64 643.69 221.36 647.36 221.94 650.67 216.59 650.13 215.39 647.2 213.38 647.27 210.66 646.14 209.31 645.97 208.02 650.29 206.49 652.01 203.41 653.31 202.87 654.39 200.76 655.41 197.19 656.73 196.5 658.15 194.39 663.76 193.19 666.09 190.49 666.51 188.09 669.63 182.78 670.08 180.16 671.18 178.97 673.57 175.37 673.78 174.53 676.13 171.68 677.94 168.56 680.02 169.66 680.69 171.05 683.07 173.14 685.17 173.47 688.48 175.24 689.31 175.07 692.53 178.33 694.45 181.73 698.24 183.12 700.08 183.43 702.86 182.34 708.97 184.06 711.35 186.35 713.54 186.05 716.1 186.44 717.56 187.31 718.17 189.12 723.28 188.58 724.57 189.37 726.18 191.24 726.93 192.85 728.33 193.68 729.46 195.72 732.57 199.25 734.77 199.79 735.67 202.04 737.83 203.36 740.62 204.38 742.94 206.55 745.6 212.27 746.64 213.21 747.99 212.95 749.41 214.94 750.87 218.78 752.02 220.12 753.82 221.3 754.39 223.17 756.87 224.7 758.32 224.24 760.78 224.54 Z" id="34011370"/>
<path d="M 279.92 207.16 279.96 208.63 281 212.58 281.72 214.08 282.35 217.3 283.64 219.04 283.19 220.81 281.45 222.77 280.86 225.06 279.67 226.12 281.87 226.75 282.21 227.83 283.99 227.97 281.19 228.43 280.03 229.71 279.39 233.13 277.62 234.7 276.11 235.15 276.65 232.66 276.08 231.5 274.38 230.29 271.99 230.22 270.87 229.69 270.08 227.33 270.18 226.16 268.3 224.97 266.51 217.58 266.19 215.53 266.94 215.19 267.83 210.34 268.71 203.35 269.88 202.69 269.29 201.33 270.55 193.38 273.03 193.74 274.23 194.64 273.89 197.32 275.64 197.8 274.34 201.52 272.21 206.65 275.61 207.76 278.98 208.2 279.92 207.16 Z" id="34011510"/>
<path d="M 303.14 214.69 302.37 214.99 302.72 225.92 298.09 226.69 284.99 227.33 283.99 227.97 282.21 227.83 281.87 226.75 279.67 226.12 280.86 225.06 281.45 222.77 283.19 220.81 283.64 219.04 282.35 217.3 281.72 214.08 281 212.58 279.96 208.63 303.28 208.35 303.14 214.69 Z" id="34011540"/>
<path d="M 262.01 216.69 255.55 217.82 251.25 219.34 246.66 222.32 244.51 223.35 244.11 222.16 242.08 223.16 239.18 224.02 242.3 201.95 242.71 200.22 238.28 199.24 237.9 197.62 236 197 234.25 195.02 228.77 194.17 228.99 191.03 228.04 188.83 228.06 187.49 225.83 184.93 225.28 182.25 227.19 180.75 229.79 180.93 232.78 178.58 233.27 175.4 236.61 176.43 238.62 178.23 237.95 181.7 242.62 182.62 242.43 185.49 245.9 186.17 244.78 191.53 247.66 191.65 253.05 196.76 254.87 199.89 256.57 201.68 258.12 204.18 259.78 205.89 259.8 207.34 260.89 208.74 262.11 213.86 261.11 215.22 262.01 216.69 Z" id="34011550"/>
<path d="M 277.62 234.7 277.59 237.21 276.37 240.3 270.81 250.59 269.82 250.25 269.14 253.48 267.15 255.48 262.78 265.54 262.5 265.09 254.55 262.32 253.24 262.14 244.13 259.24 243.15 257.38 238.75 256.56 239 250.8 241.36 250.83 241.43 247.87 244.65 245.27 243.49 243.84 244.03 239.44 245.23 238.2 247.11 237.4 248.36 235.42 247.04 233.94 246.38 231.23 246.53 228.76 245.22 227.17 246.65 226.84 246.21 224.4 244.51 223.35 246.66 222.32 251.25 219.34 255.55 217.82 262.01 216.69 266.94 215.19 266.19 215.53 266.51 217.58 268.3 224.97 270.18 226.16 270.08 227.33 270.87 229.69 271.99 230.22 274.38 230.29 276.08 231.5 276.65 232.66 276.11 235.15 277.62 234.7 Z" id="34011560"/>
<path d="M 342.7 218.47 341.41 216.68 339.44 215.7 337.5 215.92 336.64 214.51 335.59 215.01 333.11 213.39 331.3 212.94 330.47 213.54 327.69 211.81 324.7 211.32 321.61 207.78 320.75 209.4 318.47 208.24 318.24 206.75 315.56 206.72 313.26 204.63 309.6 206.65 307.16 209.69 306.22 211.78 304.86 212.1 303.14 214.69 303.28 208.35 279.96 208.63 279.92 207.16 280.76 205.16 279.8 203.35 283.36 199.89 284.73 200.08 287.03 198.6 288.23 195.13 291.05 195.78 290.94 193.71 289.61 193.61 290.28 190.44 291.41 190.85 294.48 190.55 295.71 189.29 297.2 189.13 297.1 190.6 300.71 190.46 300.65 189.37 306.57 187.47 308.13 185.59 308.57 183.72 310.76 180.36 311.67 179.73 313.26 177.14 313.51 175.92 315.74 174 318.36 172.25 322.62 171.25 323.61 170.6 323.94 168.97 326.48 169.02 329.17 169.49 332.12 170.6 334.01 167.89 340.02 167.15 341.67 166.46 343.04 165.12 346 164.15 347.88 162.93 349.33 162.67 351.08 163.16 352.14 162.68 352.96 160.96 356.69 158.61 358.99 159.42 361.04 158.49 363.63 159.17 365.64 158.53 370.15 155.35 375.56 152.39 377.85 154.48 379.12 156.73 379.31 159.98 380.36 162.6 379.24 164.88 377.73 166.04 378.54 168.36 378.13 168.88 378.6 174.06 376.69 177.01 378.31 179.28 377.58 181.88 376.2 182.91 375.69 185.35 373.49 187 371.24 190.13 371.94 192.6 370.98 194.26 371.1 195.76 369.98 198.34 370.36 200.13 368.29 203.05 365.85 203.53 363.1 201.04 361.76 202.39 360.88 202.18 358.24 203.81 358.39 204.57 356.24 209.04 355.22 209.42 354.28 211.62 354.34 215.31 352.53 217.44 349.22 219.06 347.43 218.22 344.98 218.13 344.41 218.92 342.7 218.47 Z" id="34011530"/>
<path d="M 395.74 109.76 396.14 110.84 394.46 111.81 394.72 114.23 392.84 116.6 389.52 118.32 387.32 121 387.11 121.81 384.03 122.99 383.76 124.67 380.96 126.51 379.39 128.43 377.61 128.27 376.11 129 376.35 133.54 376.81 135.01 376.46 136.79 376.95 138.78 376.1 145.06 375.1 145.98 374.46 147.76 375.56 152.39 370.15 155.35 365.64 158.53 363.63 159.17 361.04 158.49 358.99 159.42 356.69 158.61 352.96 160.96 352.14 162.68 351.08 163.16 349.33 162.67 347.88 162.93 346 164.15 343.04 165.12 341.67 166.46 340.02 167.15 334.01 167.89 332.12 170.6 329.17 169.49 326.48 169.02 323.94 168.97 323.61 170.6 322.62 171.25 318.36 172.25 315.74 174 313.51 175.92 313.26 177.14 311.67 179.73 310.76 180.36 308.57 183.72 308.13 185.59 306.57 187.47 300.65 189.37 300.71 190.46 297.1 190.6 297.2 189.13 295.71 189.29 294.48 190.55 291.41 190.85 290.84 188.61 288.49 188.67 288.22 186.43 288.61 185.05 287.35 184.19 285.75 184.08 285.05 186.86 282.59 185.91 279.89 183.55 278.02 183.08 276.06 181.35 276.39 178.6 273.29 178.6 275.61 164.55 278.85 165.08 280.27 164.81 281.5 162.43 281.02 159.54 282.67 159.15 283.8 157.8 285.66 156.79 287.12 155.32 287.39 153.98 289.05 151.01 289.17 145.61 292.02 142.14 293.95 142.27 295.46 141.49 297.4 139.45 301.34 137.03 301.17 134.83 302.54 133.48 303.06 131.8 304.71 130.39 305.92 128.3 308.34 126.92 310.02 123.99 311.33 120.34 312.7 119.05 312.56 117.63 313.62 115.49 315.36 115.02 315.92 112.98 317.7 113.19 319.16 114.66 319.99 116.5 322.36 117.55 322.57 119.87 324.98 120.87 326.05 123.36 327.31 124.23 331.28 120.76 332.12 121.68 334.71 121.96 336.22 119.9 337.46 119.47 339.04 116.81 340.19 116.13 340.89 112.81 342.25 111.97 343.53 112.77 346.59 112.18 348.21 109.41 349.39 109.45 350.76 108.06 356.21 104.95 360.08 102.09 362.79 99.64 363.12 97.58 364.36 95.69 366.38 95.98 368.5 95.23 370.53 95.42 371.58 96.51 375.73 96.74 377.83 97.17 379.11 96.14 382.02 96.33 383.48 96.81 385.38 99.09 386.68 99.42 389.99 101.71 391.39 104.51 391.74 106.79 393.62 107.69 395.74 109.76 Z" id="34011590"/>
</g>
</svg>