<?xml version="1.0"?>
<svg xmlns="http://www.w3.org/2000/svg" version="1.2" baseProfile="tiny" width="800" height="998" viewBox="0 0 800 998" stroke-linecap="round" stroke-linejoin="round">
<g id="dong">
<path d="M 222.1 298.05 222.86 299.15 222.69 301.61 223.89 304.18 224.04 306.83 224.99 308.91 225.73 311.85 228.29 312.93 229.62 314.91 231.5 315.66 231.8 316.85 234.03 318.61 234.59 320.87 235.65 321.51 236.33 325.54 239.38 325.57 243.08 326.72 243.98 328.94 243.08 332.7 241.22 334.93 242.04 339.35 241.36 341.4 244.38 343.64 245.72 345.3 246.92 348.43 250.59 349.2 252.51 350.06 253.98 352.2 256.26 353.5 255.15 354.91 256.47 356.77 256.29 361.13 256.98 363.11 258.65 363.84 258.01 365.76 256.11 366.94 256.27 367.84 254.61 369.85 254.54 371.53 252.68 373.51 251.36 373.35 250.58 374.58 249.07 374.97 248.8 376.67 245.61 377.84 244.84 382.81 245.57 385.57 245.09 387.29 242.56 390.13 241.1 390.1 238.98 394.94 239.6 397.04 239.86 400.73 237.93 403.42 238.38 405.54 237.58 406.07 237.82 409.75 237.2 410.08 235.32 416.44 232.53 415.89 232.37 417.14 229.37 421.21 229.83 422.97 229.65 425.35 230.19 430.3 229.79 431.7 230.33 433.26 230.01 435.47 231.47 436.16 232.73 435.68 233.84 434.24 235.14 434.12 236.29 436.42 238.55 438.99 240.56 440.04 242.23 442.36 243.37 443 245.44 445.24 246.07 444.93 247.37 448.17 249.26 450.19 250.84 457.28 247.85 459.61 244.45 461.08 243.28 463.49 242.07 463.52 241.44 464.82 240.3 464.89 239.97 466.59 237.83 468.01 234.49 469.35 232.91 471.24 231.17 474.25 230.63 477.09 230.24 482.4 229.68 483.55 227.53 485.79 227.9 487.56 227.18 489.43 225.94 489.51 226.13 491.25 225.53 493.12 224.26 494.11 221.78 494.27 220.83 495.09 219.42 494.84 218.4 496.87 217.11 497.13 216.22 498.37 214.73 498.48 210.15 502.01 208.59 505.27 205.46 504.97 204.36 505.81 203.68 508.23 198.89 505.99 196.56 505.31 196.05 504.06 193.35 503.7 190.97 502.88 190.52 498.34 189.39 497.71 188.8 496.19 188.89 493.36 189.58 488.66 187.18 485.95 185.14 485.5 182.43 483.6 179.86 487.56 178.2 488.16 174.55 490.58 170.52 493.74 168.53 496.07 168.75 497.98 164.85 499.18 163.73 502.15 163.94 504.35 162 505.41 160.53 507.37 156.57 508.54 153.44 508.2 152.12 509.33 149.65 513.47 148.22 517.99 148.41 519.61 147.47 522.61 146.43 522.6 145.29 526.32 143.68 527.39 140.7 528.62 139.05 530.57 132.8 530.44 130.7 531.11 129.36 532.78 121.85 535.73 121.27 538.05 118.24 537.8 118.37 539.79 114.97 538.98 112.84 541.41 111.09 542.02 112.15 543.35 110.4 544.04 107.82 548.69 105.58 549.08 102.7 550.08 101.29 549.37 100.46 550.51 100.87 552.08 99.6 552.49 99.3 554.27 95.91 555.27 94.93 557.61 90.53 557.45 85.12 556.54 84.56 555.56 81.61 555.97 78.85 556.82 76.39 558.64 72.98 558.42 71.23 557.2 69.75 554.93 67.14 554.61 64.65 554.77 64.19 551.64 62.5 549.1 62.78 541.88 61.27 538.63 60.8 537.29 62.11 534.22 60.9 531.15 59.06 529.47 54.74 527.79 51.64 526.24 49 524.25 46.32 523.68 44.79 524.53 43.72 523.72 40.93 519.9 41 517.98 38.21 516.19 36.79 517.17 35.87 515.96 36.17 513.1 35.01 511.6 35.05 510.39 33.1 507.58 34.22 506.46 33.04 504.38 32.49 502.43 31.43 502.17 28.34 502.59 26.59 501.56 24.01 500.73 20.76 496.5 21.33 492.95 23.02 492.19 22.14 489.15 22.39 485.32 21.41 483.96 19.75 483.7 18.86 480.12 16.66 477.8 18.48 475.63 18.18 472.51 20.19 470.64 19.09 468.83 18.93 463.8 17.47 459.47 18.13 458.54 18.37 452.52 17.47 449.64 18.09 448.97 18.94 445.5 20.55 443.3 21.87 440.09 21.74 435.93 18.17 432.66 17.78 431.51 15.87 430.72 14.6 429.09 13.77 426.97 11.73 425.81 11.05 426.09 7.36 423.92 5.14 421.79 3.52 418.33 3.35 416.09 1 413.65 1.91 410.61 2.71 409.32 5.4 408.01 6.92 404.05 9.46 402.78 9.92 402.07 9.29 399.73 11.1 397.47 11.45 395.38 13.88 392.98 12.85 390.84 14.13 386.73 15.44 385.01 15.25 381.86 17.7 381.71 19.59 379.98 21.65 378.93 20.04 376.94 18.79 373.11 17.54 371.7 17.09 366.77 15.38 366.29 12.38 363.18 12.35 362.28 10.71 361.05 13.28 351.58 14.63 350.7 14.91 349.45 13.37 344.32 13.38 342.26 15.57 340.58 19.74 339.79 18.97 336.59 19.83 334.98 19.42 333.37 21.56 331.6 23.34 328.09 24.44 327.91 27.52 325.23 29.69 325.05 29.32 323.17 33.67 321.9 35.57 322.01 37.09 322.79 38.04 324.07 40.02 324.01 43.34 326.45 45.15 329.37 45.11 331.83 45.65 333.17 47.56 333.63 48.27 335.21 50.01 335.8 54.18 335.96 56.09 337.69 56.76 339.11 58.49 340.97 59.72 341.24 61.11 340.22 63.9 339.85 65.35 343.92 65.06 345.49 65.51 349.25 66.78 349.16 69.49 350.66 70.11 351.54 70.68 354.95 75.07 356.54 78.08 356.5 78.78 355 80.98 356.47 83.52 355.95 88.5 354.37 90.26 353.3 92.17 354.96 96.26 354.75 97.26 355.45 99.5 354.51 99.6 352.46 100.59 351.72 104.5 354.94 107.09 356.06 110.21 355.78 113.32 355.93 114.09 359.15 115.31 358.85 117.99 356.6 119.54 357.03 121.16 355.94 123.03 359 126.27 360.46 128.09 359.76 130.72 360.68 132.42 366.73 135 369.75 141.48 374.03 142.6 371.5 144.82 370.84 147.23 367.69 151.02 367.24 153.05 368.41 155.44 368.51 156.9 367.49 158.85 366.94 159.6 365.8 162.67 365.89 164.68 362.57 164.21 361.67 164.65 359.51 165.49 358.78 168.05 358.7 169.26 356.71 171 356.73 173.34 355.41 176.02 355.01 177.78 354.13 178.66 352.13 181.78 348.34 183.34 346.97 186.31 345.56 187.1 346.79 190.93 343.9 194.2 344.87 195.91 344.54 198.09 341.58 197.26 340.53 195.63 336.26 195.43 334.07 196.75 331.55 196.61 330.22 197.55 329.16 198.01 326.51 198.8 324.64 197.01 319.33 199.13 317.42 202.38 317.43 203.54 314.97 205.77 313.25 206.72 308.06 207.83 307.67 207.09 303.94 208.62 301.86 210.47 298.59 212.59 297.87 216.09 298.66 218.87 297.14 220.08 298.04 222.1 298.05 Z" id="34020400"/>
<path d="M 466.12 581.42 472.33 586.15 474.47 584.64 475.08 583.22 480.74 583.29 482.22 583.73 485.67 583.27 488.42 581.06 490.47 578.95 491.52 578.96 492.74 579.11 495.67 578.09 498.14 580.84 499.63 581.58 499.89 582.69 502.27 584.22 503.11 583.99 506.04 586.31 506.1 587.45 508.29 591.86 510.71 593.08 512.74 592.42 515.68 592.42 516.88 593.06 515.12 597.35 512.29 597.79 509.17 599.56 507.61 599.48 504.45 601.96 503.67 603.18 503.63 604.95 502.47 605.58 502.04 611.23 500.94 614.73 501.15 616 500.21 619.78 500.39 621.98 498.65 624.58 500.75 627.04 498.55 630.66 498.47 632.22 497.26 634.26 497.47 635.34 496.86 637.11 497.03 640.32 495.87 643.81 495.93 647.68 496.25 649.71 495.52 653.99 489.67 654.27 486.58 655.23 485.07 656.13 484.93 658.38 484.11 659.84 484.48 660.95 486.64 661.49 487.39 662.79 486.5 666.71 487.41 668.34 486.78 670.36 488.29 675.99 484.97 680.08 487.05 684.57 488.82 687.81 489.08 689.69 491.83 692.96 490.12 696.1 487.4 697.65 485.2 698.12 481.77 701.49 480.85 704.54 479.04 707.41 477.89 711.07 475.06 714.47 476.33 717.17 477.4 718.39 476.02 722.14 477.83 726.14 473.01 727.25 472.38 728.35 470.45 728.69 469.62 729.72 469.21 727.76 468.12 726.94 467.14 724.87 465.91 723.91 463.29 724.36 461.48 719.22 458.92 717.87 457.68 716.12 455.6 716.45 454.69 714.96 450.57 714.07 448.52 710.96 446.75 707.19 443.46 703.92 440.96 704.77 437.8 702.48 435.57 702.1 432.61 704.46 431.34 706.45 428.21 706.91 425.11 707.87 424.06 709.83 422.91 708.23 423.19 706.88 422.59 703.19 420.96 701.78 420.77 697.97 419.81 696.47 417.2 695.16 417.25 693.85 419.82 690.2 419.47 689.29 417.5 688.66 415.11 685.56 411.49 682.35 410.74 680.39 411.3 677.24 411.31 674.09 409.66 672.77 407.37 672 405.83 670.84 404.72 672.63 402.58 671.25 400.14 672.5 399.73 670.98 396.73 668.57 394.45 668.15 394.87 665.79 394.25 664.83 392.77 665.23 391.13 663.94 392.6 661.19 394.51 659.09 395.26 656.54 394.88 655.53 396.32 652.1 395.17 649.16 395.75 646.32 397.65 644.38 397.7 642.14 395.29 636.49 393.38 634.61 393.98 632.98 393.52 631.85 390.1 631.7 390.1 630.42 389.91 630.14 388.55 628.68 387.84 625.83 384.66 625.29 383.06 623.45 381.27 624.46 377.9 627.21 374.26 624.65 373.55 626.94 370.9 626.79 370.61 628.02 368.86 629.28 368.92 630.28 365.35 633.33 362.22 631.07 361.11 631.39 359.11 634.71 356.51 635.45 353.7 637.69 350.74 641.69 350.09 642.17 347.15 639.45 345.25 638.35 345.58 636.51 343.04 635.3 344.59 632.95 345.66 628.44 347.05 624.02 347.88 619.33 349.37 612.45 351.61 605.41 354.48 599.28 355.83 597.23 358.29 595.09 360.24 592.71 367.13 586.23 369.44 585.11 369.28 584.29 378.81 579.41 387.29 576.59 394.23 573.65 400.32 570.45 404.25 565.69 405.93 564.36 408.01 561.54 414.13 561.82 417.56 561.51 420.03 558.26 422.82 555.3 425.3 556.19 427.41 557.96 431.02 559.69 432.94 560.13 433.2 562.94 434.79 566.25 436.83 567.48 437.27 568.99 438.67 571.03 439.03 572.95 442.97 575.34 444.45 575.32 446.53 576.76 447.92 579.72 449.86 580.8 449.45 582.37 449.56 585.78 450.9 588.71 450.18 590.73 450.37 596.71 451.75 598.07 453.24 596.69 458.15 596.05 459.68 595.5 461.18 596.08 462.04 595.17 462.18 592.65 463 587.72 466.12 581.42 Z" id="34020550"/>
<path d="M 530.45 549.04 536.95 552.59 539.31 554.59 546.17 558.1 557.14 562.33 560.32 563.1 564.42 564.56 570.45 567.95 574.39 570.49 580.24 571.73 581.61 572.53 585.31 573.76 592.56 575.86 596.64 576.33 601.25 577.7 603.55 578.79 607.19 579.37 613.3 581.82 617.38 583.64 626.17 588.39 626.5 593.21 627.21 594.89 628.25 600.24 627.26 602.22 627.77 603.53 629.24 604.7 629.18 605.75 631.69 607.33 629.82 608.72 626.78 609.61 626.04 610.93 623.43 611.92 622.92 613.64 619.53 616.98 617.27 619.8 616.98 621.12 614.01 621.4 613.08 620.34 610.42 620.49 609.79 622.49 607.42 624.73 608.09 627.14 609.86 629.79 610 631.43 613.65 634.99 615.02 638.65 614.9 641.23 610.37 644.12 607.97 645.23 604.96 646.14 600.78 646.25 597.51 645.94 597.14 644.86 594.66 645.14 592.76 644.5 590.57 644.93 590.35 647.45 588.08 652.08 586.5 652.91 584.02 652.49 582.66 651.67 580.77 653.07 577.74 654.1 576.91 655.22 570.31 659.42 568.04 659.79 564.05 659.62 562.62 662.88 561.64 662.32 559.55 663.12 559.06 660.42 561.11 658.81 561.19 657.74 556.54 653.17 555.86 651.68 556.28 648.24 553.88 647.3 551.07 643.44 546.14 644.32 541.95 647.15 540.93 648.52 538.87 647.66 536.95 646.17 534.99 646.25 533.25 645.6 532.1 643.53 531.88 641.87 532.92 639.13 531.96 636.86 531.67 632.57 530.77 632.26 528.52 633.73 525.94 636.48 522.63 637.87 521.66 636.37 519.01 635.32 518.9 634.35 517.21 632.62 510.03 635.75 507.13 634.74 500.91 634.91 499.41 635.61 497.47 635.34 497.26 634.26 498.47 632.22 498.55 630.66 500.75 627.04 498.65 624.58 500.39 621.98 500.21 619.78 501.15 616 500.94 614.73 502.04 611.23 502.47 605.58 503.63 604.95 503.67 603.18 504.45 601.96 507.61 599.48 509.17 599.56 512.29 597.79 515.12 597.35 516.88 593.06 515.68 592.42 512.74 592.42 510.71 593.08 508.29 591.86 506.1 587.45 506.04 586.31 503.11 583.99 502.27 584.22 499.89 582.69 499.63 581.58 498.14 580.84 495.67 578.09 492.74 579.11 491.52 578.96 490.63 575.73 490.65 570.66 488.66 567.84 490.85 562.81 490.35 559.1 491.3 556.76 494.97 554.64 493.68 554.07 491.49 550.45 491.69 547.46 493.09 545.13 494.42 543.84 493.21 542.37 494.11 540.67 494.63 537.92 496.78 538.45 500.94 533.53 503.46 534.73 506.15 537.22 510.3 540.45 514.62 543.36 521.16 545.02 525.79 546.39 530.45 549.04 Z" id="34020560"/>
<path d="M 499.68 474.66 500.3 476.75 500.4 479.04 499.97 481.8 500.49 483.24 502.14 485.41 502.67 488.02 502.45 489.66 503.7 490.24 498.74 498.63 497.25 501.47 500.99 502.27 504.45 502.14 504.6 503.35 507.51 503.15 508.57 501.23 520.38 500.79 520.52 498.06 521.85 498.23 523.39 499.44 524.66 499.42 525.57 500.82 528.02 500.85 531.36 503.44 523.95 514.67 530.68 522.26 530.93 524.04 533.28 523.16 533.7 525.07 532.99 526.78 534.2 529.89 532.41 534.15 532.95 536.92 531.35 540.49 530.18 544.5 532.2 545.37 530.45 549.04 525.79 546.39 521.16 545.02 514.62 543.36 510.3 540.45 506.15 537.22 503.46 534.73 500.94 533.53 496.02 532.09 490.16 528.07 483.5 522.83 481.13 520.77 476.59 518.38 472.42 515.64 467.84 511.82 463.28 510.59 454.94 510.02 452.22 510.36 446.28 513.85 445.43 514.67 445.49 507.95 444.59 504.75 442.58 500.41 445.44 495.81 447.21 495.46 451.26 491.42 453.51 491.69 456.05 488.83 457.32 485.57 457.4 482.89 456.99 481.86 453.18 479.75 451.75 477.99 448.58 479.9 445.57 479.1 442.87 476.8 439.71 476.89 439.36 475.38 437.84 475.38 434.78 471.81 435.72 470.11 433.9 465.49 434.69 464.48 434.61 462.81 435.9 461.5 431.56 459.22 430.42 456.91 425.45 450.36 425.99 449.84 428.23 450.89 430.57 450.49 433.06 451.62 435.7 453.35 439.26 454.97 440.34 454.94 444.66 457.18 446.12 457.19 447.12 458.17 448.18 457.48 450.75 457.92 452.26 456.6 458.09 457.09 461.59 462.04 465.11 462.91 469.57 461.77 472.35 461.64 475.07 460.86 476.71 461.43 478.76 461.43 480.44 463.09 486.2 466 486.74 463.43 489.47 462.84 489.38 460.87 490.45 460.18 491.31 457.52 493.42 458.05 494.98 460.15 496.58 459.87 496.31 463.31 495.87 464.51 495.6 470.82 496.56 472.23 497.89 472.87 499.68 474.66 Z" id="34020570"/>
<path d="M 500.94 533.53 496.78 538.45 494.63 537.92 494.11 540.67 493.21 542.37 494.42 543.84 493.09 545.13 491.69 547.46 491.49 550.45 493.68 554.07 490.86 553.52 488.54 554.12 487.35 553.15 483.7 552.36 471.19 552.93 469.65 552.3 468.04 553.4 463.86 553.73 464.98 555.27 465.28 557.13 463.31 558.82 465.46 559.57 465.62 561.28 466.81 562.03 466.98 564.27 468.46 568.23 467.3 572.41 467.73 573.66 466.99 575.08 468.26 576.47 467.92 578.69 466.12 581.42 463 587.72 462.18 592.65 462.04 595.17 461.18 596.08 459.68 595.5 458.15 596.05 453.24 596.69 451.75 598.07 450.37 596.71 450.18 590.73 450.9 588.71 449.56 585.78 449.45 582.37 449.86 580.8 447.92 579.72 446.53 576.76 444.45 575.32 442.97 575.34 439.03 572.95 438.67 571.03 437.27 568.99 436.83 567.48 434.79 566.25 433.2 562.94 432.94 560.13 431.02 559.69 427.41 557.96 425.3 556.19 422.82 555.3 425.29 552.59 430.94 536.56 434.89 530.31 436.46 528.79 438.5 525.82 439.65 522.79 441.98 518.83 445.43 514.67 446.28 513.85 452.22 510.36 454.94 510.02 463.28 510.59 467.84 511.82 472.42 515.64 476.59 518.38 481.13 520.77 483.5 522.83 490.16 528.07 496.02 532.09 500.94 533.53 Z" id="34020580"/>
<path d="M 580.94 446.65 580.49 451.03 580.87 451.78 582.99 452.58 583.78 457.6 586.49 459.22 587.5 462.77 591.48 463.45 592.58 465.08 595.96 463.02 597.19 461.73 598.35 461.89 600.76 461.04 604.93 461.46 606.02 462.41 608.69 462.45 610.68 462.91 614.15 466.04 614.26 467.02 617.69 468.47 618.44 468.4 621.06 470.45 623.42 470.38 623.89 472.27 623.66 476.23 624.18 478.43 623.67 480.63 623.74 483.28 622.42 483.41 620.61 487.7 621.01 490.34 618.73 492.28 617.2 492.99 615.08 495.47 617.96 503.23 617.6 503.9 618.17 507.37 619.44 510.81 621.12 512.56 622.22 517.06 621.93 518.63 623.67 521.99 626.92 523.56 628.94 527.47 630.01 528.89 631.48 529.76 633.1 529.22 633.83 528.22 636.36 526.81 640.76 531.32 641.49 534.56 641.35 536.28 642.47 537.41 642.32 540.67 643.7 545.4 641.92 547.61 640.75 549.87 640.79 556.99 640.42 557.85 636.66 558.13 634.27 561 631.06 562.97 631.3 564.11 633.36 566.72 635.19 567.67 636.97 570.61 637.08 572.14 636.31 574.99 637.93 577.55 637.37 579.62 636.28 580.81 637.1 588.3 635.99 590.56 634.06 591.1 632.19 593.49 628.21 590.43 626.17 588.39 617.38 583.64 613.3 581.82 607.19 579.37 603.55 578.79 601.25 577.7 596.64 576.33 592.56 575.86 585.31 573.76 581.61 572.53 580.24 571.73 574.39 570.49 570.45 567.95 564.42 564.56 560.32 563.1 557.14 562.33 546.17 558.1 539.31 554.59 536.95 552.59 530.45 549.04 532.2 545.37 530.18 544.5 531.35 540.49 532.95 536.92 532.41 534.15 534.2 529.89 532.99 526.78 533.7 525.07 533.28 523.16 530.93 524.04 530.68 522.26 523.95 514.67 531.36 503.44 528.02 500.85 525.57 500.82 524.66 499.42 523.39 499.44 521.85 498.23 520.52 498.06 520.38 500.79 508.57 501.23 507.51 503.15 504.6 503.35 504.45 502.14 500.99 502.27 497.25 501.47 498.74 498.63 503.7 490.24 502.45 489.66 502.67 488.02 502.14 485.41 504.66 484.81 506.69 482.02 507.02 480.26 509.71 476.62 510.09 474.34 512.77 475.01 514.85 473.04 515 470.91 516.34 466.43 519.01 466.26 520.59 463.75 522.21 462.97 524.01 465 524.21 466.61 527.31 468.82 529.68 469.36 532.08 467.93 532.59 467.05 534.59 466.73 536.69 464.46 538.14 463.72 539.56 462.16 541.26 462.79 541.32 464.74 542.35 466.54 545.98 463.91 547.6 461.6 548.98 457.27 551.04 456.66 552.6 457.02 554.8 455.61 558.31 456.83 560.34 454.77 560.34 451.53 561.7 448.73 563.3 449.22 564.56 448.83 568.96 449.69 570.85 450.5 573.17 449.66 573.04 447.93 576.01 446.13 577.57 446.6 580.94 446.65 Z" id="34020590"/>
<path d="M 798.94 655.67 799 663.35 797.48 665.87 798.21 667.61 798.32 669.56 797.07 671.62 797.11 672.71 795.99 675.01 796.03 677.02 796.84 679.94 796.22 683.64 792.35 695.13 792.53 696.36 791.77 699.91 792.1 700.3 792.13 704.37 793.18 712.98 792.99 715.92 792.43 718.01 792.44 720.22 791.79 722.08 789.68 724.03 791.49 725.63 791.75 727.72 792.55 729.13 792.86 732.08 792.01 735.52 792.93 736.32 792.64 741.64 793 742.55 795.55 744.64 795.89 747.88 796.4 749.29 796.11 752.28 797.05 754.13 796.08 755.75 794.76 760.94 794.25 761.45 793.47 764.59 793.71 767.69 790.92 768.92 789.11 770.22 789.36 773.59 790.38 777.86 787.13 780.71 779.73 784.5 778.86 787.01 776.47 788.09 777.02 790.12 776.72 794.22 777.24 797.39 780.11 803.2 779.91 805.55 781.06 806.88 783.72 808.71 784.88 810.45 789.97 815.96 790.92 818.19 790.11 822.86 791.31 825.85 793.42 828.55 792.22 829.36 788.77 830.01 786.57 830.91 781.41 829.94 780.02 833.21 777.72 835.72 775.79 837.01 772.45 838.07 771.11 840.66 766.63 845.42 766.02 847.44 766.37 850.93 767.97 852.47 768.53 853.84 768.45 856.79 770.91 859.76 771.46 861.83 770.61 862.14 767.59 866.28 767.46 868.97 764.54 870.19 761.32 872.16 756.98 872.46 754.74 872.19 752.96 871.7 749.16 868.9 748.32 868.85 746.05 866.92 744.09 862.73 743.56 859.15 742.79 857.32 742.37 853.63 742.71 848.47 740.62 848.45 736.46 847.03 731.9 847.22 727.45 847.15 725.71 846.45 723.07 846.76 719.23 844 718.42 843.02 715.78 832.96 717.36 829.64 716.53 827.97 715.91 823.87 711.72 822.02 709.37 819.96 707.32 820.35 703.78 819.65 700.07 819.65 697.87 820.19 692.5 817.87 689.2 817.88 687.01 817.38 682.28 817.01 679.67 815.8 677.58 815.62 672.21 815.75 669.86 815.43 663.28 816.43 659.25 817.32 651.68 820.02 648.86 821.29 646.4 823.39 642.82 825.9 640.39 820.35 638.79 818 637.18 814.14 634.65 811.2 635.85 809.79 638.96 807.46 642.43 803.13 641.78 801.28 645.31 798.29 645.95 798.09 648.56 794.51 649.21 794.15 649.35 791.79 650.77 788.12 649.68 786.96 649.35 783.46 647.97 780.64 646.04 779.18 645.38 776.17 644.06 775.86 640.22 771.02 638.59 769.61 636.29 770.25 634.52 768.62 636.09 764.82 635.68 757.84 636.5 754.93 635.6 753.3 637.74 747.3 638.63 746.38 638 744.54 639.62 741.75 642.18 738.68 644.66 737.64 646.38 735.98 647.26 733.1 648.51 731.61 650.29 728.34 649.14 725.45 649.24 723.61 648.61 721.54 649.25 720.34 649.91 717.3 649.02 712.81 650.07 710.6 651.14 709.52 652.11 707.13 650.74 703.72 648.89 701.87 648.46 699.45 649.39 699.18 650.57 697.3 652.88 696.16 654.27 694.03 655.66 693.13 656.26 691.06 654.51 690.54 651.27 687.7 650.66 683.2 647.08 680.83 646.41 678.66 646.64 674.21 645.78 672.76 644.15 671.86 642.3 667.92 640.94 665.88 639.08 665.34 636.77 665.34 634.24 665.85 633.67 662.36 632.61 661.41 629.71 660.78 626.84 658.93 627.59 657.92 627.39 655.74 627.78 651.27 628.32 647.96 627.27 647.32 620.91 646.22 619.47 644.59 616.3 644.43 615 642.62 614.9 641.23 615.02 638.65 613.65 634.99 610 631.43 609.86 629.79 608.09 627.14 607.42 624.73 609.79 622.49 610.42 620.49 613.08 620.34 614.01 621.4 616.98 621.12 617.27 619.8 619.53 616.98 622.92 613.64 623.43 611.92 626.04 610.93 626.78 609.61 629.82 608.72 631.69 607.33 629.18 605.75 629.24 604.7 627.77 603.53 627.26 602.22 628.25 600.24 627.21 594.89 626.5 593.21 626.17 588.39 628.21 590.43 632.19 593.49 635.31 596.01 644.46 600.87 648.61 602.72 657.38 603.86 659.74 604.02 659.53 605.63 661.28 606.5 665.04 607.03 667.58 608.48 669.82 608.63 671.81 613.27 673.26 614.47 673.4 615.57 674.85 616.73 676.84 617.28 679.34 621.47 679.49 622.26 681.7 624.71 683.54 624.86 684.69 626.15 684.51 629.57 685.41 631.94 685.07 632.75 685.77 636.94 688.36 639.59 692.05 635.68 693.62 636.82 696.07 636.66 697.92 637.78 698.37 642.82 701.24 643.8 703.33 644.07 705.79 645.53 708.3 645.55 710.26 646.1 714.42 646.54 717.02 645.47 719.07 645.97 721.88 645.41 723.6 646.64 720.65 648.98 720.87 653.78 721.97 655.5 723.28 655.8 725.75 658.8 729.12 664.39 729.17 665.57 731.77 666.64 733.72 669.27 733.53 671.48 734.55 673.71 735.81 675.09 737.97 674.41 740.24 674.51 741.53 673.27 745.13 671.89 746.44 672.33 749.08 672.18 750.48 671.61 752.89 669.43 753.78 666.34 752.58 662.05 751.78 658.09 752.37 655.81 754.24 653.55 759.45 650.8 765.61 649.42 767.34 649.49 771.04 650.52 778.6 653.45 780.66 655.15 786.06 657.35 789.2 657.19 794.4 653.74 796.93 653.85 798.89 654.71 798.94 655.67 Z" id="34020340"/>
<path d="M 612.01 210.41 613.57 210.25 616.22 212.95 614.58 217.61 614.94 219.33 613.67 221.95 613.81 223.68 612.73 225.69 612.1 229.53 613.35 232.16 615.97 235.31 615.38 237.73 615.74 238.78 617.61 240.14 619.8 242.9 619.52 244.43 621.69 244.85 624.34 244.33 626.08 243.49 626.81 243.96 632.03 241.26 632.21 240.14 634.39 240.07 637.75 241.35 638.57 242.33 640.89 242.41 642.39 243.53 644.92 244.5 646.61 246.94 647.88 248.02 648.55 250.59 648.41 255.67 647.35 258.07 645.35 259.77 643.67 261.83 642.38 262.71 641.1 264.61 640.36 269.41 640.63 271.4 639.73 274.37 639.87 277.52 637.99 279.03 634.16 281.04 632.09 283.72 629.38 284.08 628.66 284.72 626.25 283.78 623.48 283.65 621.27 284.07 619.2 287.44 618.95 288.99 620.08 290.55 618.74 292.09 617.23 292.17 617.3 294.17 615.52 295.76 614.22 299.57 614.95 300.38 613.42 302.44 612.62 302.6 612.84 305.28 611.7 307.63 612.28 309.09 611.34 311.37 609.61 313.21 607.19 313.32 605.99 315.04 610.21 320.77 612.73 324.9 615.11 326.13 616.7 327.54 617.44 330.62 607.81 331.2 605.41 335.26 603.87 336.49 601.41 336.29 599.39 335.4 598.97 334.19 596.14 331.71 594.75 332.22 592.11 331.83 591.14 332.32 588.15 335.47 583.76 338.73 582.29 340.18 581.41 343.75 582.19 344.17 582.3 347.54 583.62 349.37 582.52 349.93 579.18 355.16 578.96 356.16 580.36 358.18 579.89 361.82 583.7 362.99 583.73 365.07 584.68 366.46 584.31 370.39 585.45 372.15 585.34 373.14 587.33 375.28 588.94 375.59 589.4 377.82 591.38 380.38 593.55 384.31 593.05 385.25 597.36 389.57 598.6 391.55 598.05 393.22 594.83 394.54 593.2 397.89 590.73 399.97 588.43 401.35 587.42 403.49 585.35 403.54 583.21 405.91 581.91 406.28 581 407.75 580.31 410.96 577.06 413.13 575.44 415.28 574.27 416.08 576.29 417.28 575.29 420.58 573.94 422.31 575 423.54 577.51 424.89 579.18 425.01 581.15 426.45 583.17 431.21 584.31 432.08 586.5 431.46 587.22 433.47 585.69 436.15 587.62 437.2 589.01 438.66 590.97 439.44 589.1 442.27 588.39 444.84 586.98 444.97 585.39 443.3 582.69 445.73 580.94 446.65 577.57 446.6 576.01 446.13 573.04 447.93 573.17 449.66 570.85 450.5 568.96 449.69 564.56 448.83 563.3 449.22 561.7 448.73 560.34 451.53 560.34 454.77 558.31 456.83 554.8 455.61 552.6 457.02 551.04 456.66 548.98 457.27 547.6 461.6 545.98 463.91 542.35 466.54 541.32 464.74 541.26 462.79 539.56 462.16 538.14 463.72 536.69 464.46 534.59 466.73 532.59 467.05 532.08 467.93 529.68 469.36 527.31 468.82 524.21 466.61 524.01 465 522.21 462.97 520.59 463.75 519.01 466.26 516.34 466.43 515 470.91 514.85 473.04 512.77 475.01 510.09 474.34 509.71 476.62 507.02 480.26 506.69 482.02 504.66 484.81 502.14 485.41 500.49 483.24 499.97 481.8 500.4 479.04 500.3 476.75 499.68 474.66 501.57 474.65 501.61 462.92 500.73 454.38 500.86 445.45 500.35 445.12 495.02 436.61 493.52 435.3 491.23 431.98 489.65 430.6 486.77 426.06 483.49 415.54 483.21 413.35 483.4 409.07 477.07 409.32 476.92 406.08 475.66 404.49 473.75 404.4 473.11 402.62 474.15 400.64 472.07 395.12 467.5 393.05 466.45 392.94 460.95 389.9 459.95 388.79 460.57 385.02 460.07 383.14 458.76 382.78 458.3 381.06 456.94 379.98 453.03 378.61 452.21 376.91 454.54 376.26 455.99 374.73 458.03 374.55 458.94 373.37 461.43 372.86 463.43 371.67 467.62 373.68 470.26 370.68 470.34 369.05 474.86 364.72 476.53 363.8 478.84 361.43 478.11 357.64 479.63 357.57 484.32 354.75 485.05 353.87 487.96 352.3 491.4 352.78 492.45 351.43 495.72 348.96 497.13 345.15 496.83 342.57 497.28 341.63 496.91 337.76 497.03 335.86 498.19 334.28 498.79 331.87 501.25 332.49 501.93 330.59 503.19 329.48 504.5 326.98 506.81 325.26 505.99 324.27 506.28 321.82 505.89 320.12 506.27 317.72 508.07 316.98 508.7 314.46 506.99 309.83 508.23 308.89 507.82 305.95 511.51 302.25 510.91 299.86 509.85 299.2 509.9 297.84 507.44 295.22 510.1 293.73 511.91 294.6 512.45 293.56 514.91 291.4 518.08 291.01 520.71 291.4 520.89 288.88 522.58 286.98 525.61 285.13 530.31 283.54 531.37 284.78 532.58 283.36 533.91 283.29 535.05 281.7 534.11 281.12 534.52 278.63 536.23 277.34 538.06 273.64 539.23 272.08 539.78 270.26 539.24 267.61 540.65 266.39 539.75 263.88 537.96 260.53 538.77 256.38 537.81 254.88 538.44 253.3 538.06 250.81 540.42 249.08 540.8 246.78 542.69 246.56 543.49 245.37 542.81 242.91 542.79 239.48 544.92 238.14 544.99 237.12 547.3 232.42 546.01 232.01 544.21 228.42 544.68 226.13 542.99 224.95 542.69 223.96 544.06 222.37 543.81 219.86 540.6 219.16 539.99 216.64 540.42 214.74 538.89 212.11 538.57 210.34 539.34 207.23 541.62 203.53 543.87 201.9 542.76 200.66 543.15 198.75 542.57 197.52 543.86 195.43 545.09 192.12 544.52 190.81 546.18 188.32 545.45 187.82 545.63 185.12 545.33 182.16 549.35 181.37 550.76 183.78 553.96 184.49 554.56 185.34 556.24 185.25 558.99 186.19 560.22 188.05 562.31 188.5 564.87 191.01 567.81 189.91 569.77 192.4 569.23 194.23 570.81 195.55 570.82 196.59 573.24 199.29 575.03 199.05 576.36 202.88 578.73 204.92 578.95 208.1 580.55 206.83 581.62 207.11 583.34 206.25 586.41 206.64 589.71 204.67 590.34 204.67 592.69 206.95 594.82 207.02 596.93 208.08 597.46 208.99 597.74 213.57 597.44 214.26 599.38 215.62 602.22 218.74 604.16 217.45 608.24 215.95 607.66 213.07 609.5 211.61 612.01 210.41 Z" id="34020360"/>
<path d="M 534.38 148.15 533.63 149.99 534.77 151.66 539.69 153.61 543.43 156.07 544.76 157.44 545.5 159.53 545.09 161.55 543.64 165.09 543.51 167.13 544.69 170.59 544.53 172.96 545.22 174.41 544.53 175.76 544.79 177.54 544.52 180.45 545.33 182.16 545.63 185.12 545.45 187.82 546.18 188.32 544.52 190.81 545.09 192.12 543.86 195.43 542.57 197.52 543.15 198.75 542.76 200.66 543.87 201.9 541.62 203.53 539.34 207.23 538.57 210.34 538.89 212.11 540.42 214.74 539.99 216.64 540.6 219.16 543.81 219.86 544.06 222.37 542.69 223.96 542.99 224.95 544.68 226.13 544.21 228.42 546.01 232.01 547.3 232.42 544.99 237.12 544.92 238.14 542.79 239.48 542.81 242.91 543.49 245.37 542.69 246.56 540.8 246.78 540.42 249.08 538.06 250.81 538.44 253.3 537.81 254.88 538.77 256.38 537.96 260.53 539.75 263.88 540.65 266.39 539.24 267.61 539.78 270.26 539.23 272.08 538.06 273.64 536.23 277.34 534.52 278.63 534.11 281.12 535.05 281.7 533.91 283.29 532.58 283.36 531.37 284.78 530.31 283.54 525.61 285.13 522.58 286.98 520.89 288.88 520.71 291.4 518.08 291.01 514.91 291.4 512.45 293.56 511.91 294.6 510.1 293.73 507.44 295.22 509.9 297.84 509.85 299.2 510.91 299.86 511.51 302.25 507.82 305.95 508.23 308.89 506.99 309.83 508.7 314.46 508.07 316.98 506.27 317.72 505.89 320.12 506.28 321.82 505.99 324.27 506.81 325.26 504.5 326.98 503.19 329.48 501.93 330.59 501.25 332.49 498.79 331.87 498.19 334.28 497.03 335.86 496.91 337.76 497.28 341.63 496.83 342.57 497.13 345.15 495.72 348.96 492.45 351.43 491.4 352.78 487.96 352.3 485.05 353.87 484.32 354.75 479.63 357.57 478.11 357.64 478.84 361.43 476.53 363.8 474.86 364.72 470.34 369.05 470.26 370.68 467.62 373.68 463.43 371.67 461.43 372.86 458.94 373.37 458.03 374.55 455.99 374.73 454.54 376.26 452.21 376.91 449.87 376.18 448.48 378.13 447.48 378.12 446.44 381.17 444.01 382.47 443.32 384.21 443.56 386.64 442.22 387.42 441.31 389.23 438.4 388.28 436.94 389.59 432.83 388.11 431.93 387.37 429.38 388.09 427.31 387.36 424.71 385.3 425.1 383.63 424.82 381.37 421.6 378.79 420.37 379.37 418.84 378.77 415.83 376.39 416.18 373.15 415.4 371.46 415.66 370.38 414.01 367.97 415.13 365.36 412.37 364.32 413.6 360.51 413.23 357.62 411.2 355.59 410.8 354.39 411.37 348.38 408.51 348.26 407.1 346.77 404.11 347.08 401.94 348.85 399.99 348.09 397.52 348.57 394.6 346.74 393.14 342.77 393.19 341.6 391.91 341.03 390.59 338.84 389.81 336.43 389.94 334.82 388.34 332.8 388.69 331.72 385.74 332.03 383.78 331.23 381.43 328.82 379.66 326.15 380.15 325.07 378.01 323.36 377.33 318.88 374.44 318.14 370.73 315.71 368.47 313.12 367 309.49 364.24 305.55 361.24 304.24 362.74 302.5 363.71 296.52 364.27 294.61 363.63 292.36 363 287.12 364.12 283.27 365.34 281 371.45 275.25 371.25 271.25 372.76 271.35 375.57 267.68 375.22 264.32 375.96 262.46 376.19 258.25 377.15 256.92 376.34 254.1 376.76 250.58 376.24 249.33 375.68 245.65 374.54 244.12 373.87 241.86 369.41 236.02 367.79 234.95 369.41 231.58 371.03 229.82 371.12 227.34 373.16 223.79 373.38 219.57 370.83 212.68 369.63 206.81 370.85 204.41 371.65 201.28 369.89 198.47 369.74 196.13 370.18 194.28 368.81 193.93 367.44 192.29 365.23 190.89 361.89 189.55 360.02 187.1 358.01 183.58 354.09 186.07 353.23 185.44 350.49 187.26 348.55 186.26 347.4 186.88 345.81 186.15 342.89 187.29 337.48 188.03 337.02 188.96 333.21 191.67 331.75 187.63 331.6 185.73 329.98 185.72 328.72 184.27 327.46 184.01 324.32 182.31 322.89 184.18 319.25 183.63 317.22 184.81 313.57 184.3 310.53 184.34 307.72 185.18 306.22 185.05 305.09 185.95 303.09 185.35 303.03 184.04 303.89 182.19 303.34 179.17 305.16 178.29 307.48 175.37 304.75 172.9 304.47 170.03 302.96 168.89 302.32 166.33 303.06 164.14 304.54 162.57 305.3 160.08 303.22 154.85 301.82 153.36 301.83 150.91 302.37 149.28 301.82 148.13 303.97 145.32 304.46 143.58 304.09 141.07 304.66 139.29 303.75 136.25 301.46 137.06 297.52 135.98 293.8 135.88 293.15 134.79 290.54 134.95 289.84 133.21 287.59 132.55 287.15 131.73 288.33 128.83 290.12 128.24 290.69 126.59 289.41 123.19 289.68 121.25 287.64 117.94 287.48 114.42 287.7 112.01 286.08 110.47 282.72 109.49 280.23 107.88 277.75 108.41 275.14 107.63 273.38 106.45 273.71 105.12 273.29 102.86 274.17 100.37 273.4 99.22 274.01 97.57 274.97 92.5 274.47 88.41 275.57 84.32 276.89 81.45 274.64 73.1 276.72 68.98 278.71 67.93 282.18 61 284.38 58.36 288.03 58.63 291.77 59.41 294.85 60.59 297.73 61.29 300.66 61.42 302.55 61.05 303.59 60.05 306.11 60.51 307.7 60.29 309.06 60.94 313.6 61.79 317.3 65.25 318.15 67.48 320.05 69.46 323.29 70.21 326.82 68.99 329.58 69.55 332.68 68.42 336.2 69.08 336.87 68.76 341.87 70.4 342.14 72.56 344.08 73.62 344.42 75.49 345.87 75.67 345.92 77.16 347.99 80.6 348.09 81.63 351.04 84.8 352.84 84.49 354.88 85.74 356.07 85.35 357.21 86.15 359.48 84.55 360.78 84.41 362.8 82.83 364.85 83.18 368 85.35 373.17 85.52 373.91 87.81 379.19 91.93 379.69 94.66 382.16 95.25 385.17 93.08 386.91 93.21 389.23 92.66 391.07 93.44 392.5 93.41 395.72 94.89 399.42 93.44 403.72 94.5 409.46 93.41 410.84 92.62 411.11 90.88 412.78 90.05 412.49 88.02 414.39 84.18 416.2 81.76 418.78 77.28 419.89 76.55 419.8 74.01 418.89 69.04 420.09 64.81 421.46 63.23 422.22 63.88 425.38 63.47 426.98 60.83 428.84 59.93 429.89 61.95 433.18 61.68 434.61 62.83 436.46 60.36 440.22 56.64 444.03 55.16 444.83 54.12 447.04 53.29 448.32 53.96 451.2 51.99 453.47 52.2 456.34 51.51 456.54 53.07 459.31 55.4 462.34 54.67 465 57.1 467.41 58.22 470.33 57.8 473.82 58.52 475.6 62.64 480.03 64.26 481.4 65.88 484.3 66.03 486.56 65.29 486.89 64.31 488.73 64.98 489.89 67.37 489.67 69.15 490.51 69.92 489.83 72.51 490.57 74.74 490.19 76.83 491.69 79.21 493.34 79.75 493 80.98 497.98 85.09 500.95 86.49 504.65 87.17 505.28 88.93 507.89 87.04 510.99 88.85 511.53 90.17 514.46 90.94 514.77 92.57 516.08 95.21 515.2 97.74 515.78 102.89 514.67 106.09 518.62 108.7 520.81 109.12 523.31 110.21 523.53 112.3 522.58 113.9 524.09 116.62 523.9 117.86 526.02 121.43 526.52 123.66 529.02 125 530.44 124.61 531.24 125.76 530.21 126.62 529.12 130.05 529.84 132.6 530.88 133.93 531.98 138.09 532.51 138.76 532.5 141.31 531.41 143.16 533.31 144.25 534.38 148.15 Z" id="34020370"/>
<path d="M 452.21 376.91 453.03 378.61 456.94 379.98 458.3 381.06 458.76 382.78 460.07 383.14 460.57 385.02 459.95 388.79 460.95 389.9 466.45 392.94 467.5 393.05 472.07 395.12 474.15 400.64 473.11 402.62 473.75 404.4 475.66 404.49 476.92 406.08 477.07 409.32 483.4 409.07 483.21 413.35 483.49 415.54 486.77 426.06 489.65 430.6 491.23 431.98 493.52 435.3 495.02 436.61 500.35 445.12 500.86 445.45 500.73 454.38 501.61 462.92 501.57 474.65 499.68 474.66 497.89 472.87 496.56 472.23 495.6 470.82 495.87 464.51 496.31 463.31 496.58 459.87 494.98 460.15 493.42 458.05 491.31 457.52 490.45 460.18 489.38 460.87 489.47 462.84 486.74 463.43 486.2 466 480.44 463.09 478.76 461.43 476.71 461.43 475.07 460.86 472.35 461.64 469.57 461.77 465.11 462.91 461.59 462.04 458.09 457.09 452.26 456.6 450.75 457.92 448.18 457.48 447.12 458.17 446.12 457.19 444.66 457.18 440.34 454.94 439.26 454.97 435.7 453.35 433.06 451.62 430.57 450.49 428.23 450.89 425.99 449.84 425.45 450.36 430.42 456.91 431.56 459.22 435.9 461.5 434.61 462.81 434.69 464.48 433.9 465.49 435.72 470.11 434.78 471.81 437.84 475.38 439.36 475.38 439.71 476.89 442.87 476.8 445.57 479.1 448.58 479.9 451.75 477.99 453.18 479.75 456.99 481.86 457.4 482.89 457.32 485.57 456.05 488.83 453.51 491.69 451.26 491.42 447.21 495.46 445.44 495.81 442.58 500.41 444.59 504.75 445.49 507.95 445.43 514.67 441.98 518.83 439.65 522.79 438.5 525.82 436.46 528.79 434.89 530.31 430.94 536.56 425.29 552.59 422.82 555.3 420.03 558.26 417.56 561.51 414.13 561.82 408.01 561.54 405.93 564.36 404.25 565.69 400.32 570.45 394.23 573.65 387.29 576.59 378.81 579.41 369.28 584.29 369.44 585.11 367.13 586.23 360.24 592.71 358.29 595.09 355.83 597.23 354.48 599.28 351.61 605.41 349.37 612.45 347.88 619.33 347.05 624.02 345.66 628.44 344.59 632.95 343.04 635.3 341.41 637.32 335.98 642.26 333.6 648.69 330.56 655.07 327.47 659.73 324.81 665.21 320.14 670.46 313.83 675.57 309.67 680.25 307.51 682.24 302.48 684.99 301.02 686.52 293.49 693.53 285.53 699.87 281.33 695.45 283.76 692.03 287.48 687.4 288.91 686.52 290.46 683.33 288.67 677.51 286.38 676.27 285.89 675.34 285.93 672.47 283.64 670.06 282.31 669.38 280.62 665.72 279.35 664.91 278.34 662.95 276.13 662.35 275.15 663.01 274.06 661.92 272.59 661.78 273.34 660.08 275.41 658.32 275.65 656.29 275.06 655.35 272.55 654.77 270.09 654.94 269.45 652.95 267.72 651.1 267.27 649.94 264.6 647.3 264.71 645.2 266.63 644.52 268.99 642.94 272.36 642.33 273.11 639.95 275.65 636.89 279.08 635.34 280.02 633.85 281.7 632.65 281.22 629.54 281.37 626.97 280.15 624.79 276.26 622.32 275.84 619.77 274.79 616.29 275.56 613.17 274.85 612 272.46 610.14 269.63 606.96 269.88 604.34 272.6 601.17 273.95 598.83 274.38 597.23 273.5 596.55 270.55 595.56 268.99 595.65 266.24 598.03 261.3 599.45 253.46 597.91 248.82 597.87 247.46 597.24 246.58 591.23 247.86 588.31 249.66 585.47 250.92 582.34 253.23 580.43 254.23 578.31 252.25 577.2 249.12 576.33 246.98 576.19 246.69 574.64 248.81 570.45 248.62 568.14 247.29 564.02 246.65 563.56 242.96 564.85 240.9 566.4 239.44 566.35 237.99 564.89 238.42 561.52 241 558.92 241.79 557.6 242.34 554.84 241.46 553.98 240.08 554.34 237.32 555.1 236.16 554.71 232.43 550.28 231.15 548.01 230.65 545.69 228.58 543.67 223.07 540.57 219.11 541.54 216.95 541.22 214.58 541.58 209.91 539.37 204.59 538.02 203.06 536.47 199.07 536.85 196.58 535.47 193.82 534.74 193.44 533.08 191.77 531.89 189.72 531.17 186.15 528.22 181.81 527.18 178.89 526.85 176.93 526.19 174.03 526.6 172.83 526.18 171.78 527.24 167.47 525.66 167.26 526.86 165.11 529.58 164.75 531.04 163.17 532.65 160.1 532.75 158.44 532.07 156.36 533.57 153.61 533.29 151.85 532.17 150.3 531.94 149.76 530.01 148.19 528.61 148.24 526 147.47 522.61 148.41 519.61 148.22 517.99 149.65 513.47 152.12 509.33 153.44 508.2 156.57 508.54 160.53 507.37 162 505.41 163.94 504.35 163.73 502.15 164.85 499.18 168.75 497.98 168.53 496.07 170.52 493.74 174.55 490.58 178.2 488.16 179.86 487.56 182.43 483.6 185.14 485.5 187.18 485.95 189.58 488.66 188.89 493.36 188.8 496.19 189.39 497.71 190.52 498.34 190.97 502.88 193.35 503.7 196.05 504.06 196.56 505.31 198.89 505.99 203.68 508.23 204.36 505.81 205.46 504.97 208.59 505.27 210.15 502.01 214.73 498.48 216.22 498.37 217.11 497.13 218.4 496.87 219.42 494.84 220.83 495.09 221.78 494.27 224.26 494.11 225.53 493.12 226.13 491.25 228.57 489.64 229.72 490.61 233.08 490.72 235.21 491.16 237.17 490.61 239.29 490.89 240.63 492.6 242.49 493.36 243.15 495.62 244.4 497.92 247.8 502.02 250.95 505.03 253.71 508.5 255.25 508.14 255.25 509.79 257.24 511.18 257.42 512.53 258.86 514.34 258.42 519.67 257.91 521.24 259.9 522.17 260.39 523.23 263.87 526.06 263.98 529.35 265.54 530.6 267.4 530.17 271.79 528.19 273.23 528.98 277.39 526.4 280.67 526.77 282.1 525.1 282.27 523.25 284.06 521.18 285.97 521.55 288.4 523.06 288.95 524.43 291.34 525.95 291.87 527.61 293.01 528.05 293.52 530.15 297.26 532.76 298.5 534.47 300.76 534.65 301.81 534.17 305.83 534.83 308.56 532.04 311.77 530.65 315.68 530.35 317.77 530.89 318.32 529.26 320.24 527.9 322.37 527.78 324.72 526.62 327.61 523.16 329.39 522.07 324.89 516.85 323.35 513.81 322.33 512.78 321.65 509.91 321.8 507.95 323.27 504.04 325.45 501.43 324.5 499.01 326.47 497.82 329.08 497.95 331.28 496.67 334.41 496.87 335.93 496.2 336.24 493.37 337.89 492.3 339.5 488.9 338.99 487.01 339.22 482.19 338.67 480.03 338.7 477.24 340.65 473.1 340.56 471.36 339.55 469.66 337.74 468.48 338.31 465.86 336.97 462.81 337.65 460.99 340.01 460.18 341.25 458.89 342.73 458.39 342.75 456.98 344.68 456.37 344.42 454.02 343.16 452.84 345.57 449.83 347.44 446.64 350.2 444.08 351.04 442.66 353.09 442.2 354.39 436.75 357 433.3 358.62 432.81 360.09 431.63 361.04 432.14 362.22 431.09 361.88 430.07 364.11 429.01 364.25 427.81 365.58 426.8 369.18 425.64 372.21 425.21 372.67 424.38 374.66 423.45 376.88 418.78 376.35 416.86 374.94 414.25 377.02 411.51 378.33 408.76 379.11 404.84 381.07 404.59 382.5 405.42 383.02 402.77 385.77 398.21 384.76 394.6 383.68 394.23 384.32 391.52 382.07 388.72 382.97 388.29 382.77 386.22 380.56 382.15 379.36 383.73 377.4 383.82 376.29 382.42 373.54 381.44 372.05 382.13 367.81 382.4 367.63 380.71 365.03 377.58 363.21 374.85 364.1 366.04 363.9 362.99 364.32 359.63 361.56 358.3 359.79 356.38 357.94 353.12 355.64 352.32 353.6 350.56 352.84 348.33 352.08 347.69 350.49 344.66 350.84 342.71 350.52 340.68 352.14 338.5 352.43 333.91 353.41 331.27 353.04 329.68 351.48 328.5 352.01 327.1 351.89 324.2 354.21 321.16 354.64 319.11 355.42 318.29 356.94 315.12 357.56 312.5 358.77 309.52 358.3 307.1 361.24 304.24 364.24 305.55 367 309.49 368.47 313.12 370.73 315.71 374.44 318.14 377.33 318.88 378.01 323.36 380.15 325.07 379.66 326.15 381.43 328.82 383.78 331.23 385.74 332.03 388.69 331.72 388.34 332.8 389.94 334.82 389.81 336.43 390.59 338.84 391.91 341.03 393.19 341.6 393.14 342.77 394.6 346.74 397.52 348.57 399.99 348.09 401.94 348.85 404.11 347.08 407.1 346.77 408.51 348.26 411.37 348.38 410.8 354.39 411.2 355.59 413.23 357.62 413.6 360.51 412.37 364.32 415.13 365.36 414.01 367.97 415.66 370.38 415.4 371.46 416.18 373.15 415.83 376.39 418.84 378.77 420.37 379.37 421.6 378.79 424.82 381.37 425.1 383.63 424.71 385.3 427.31 387.36 429.38 388.09 431.93 387.37 432.83 388.11 436.94 389.59 438.4 388.28 441.31 389.23 442.22 387.42 443.56 386.64 443.32 384.21 444.01 382.47 446.44 381.17 447.48 378.12 448.48 378.13 449.87 376.18 452.21 376.91 Z" id="34020380"/>
<path d="M 361.24 304.24 358.3 307.1 358.77 309.52 357.56 312.5 356.94 315.12 355.42 318.29 354.64 319.11 354.21 321.16 351.89 324.2 352.01 327.1 351.48 328.5 353.04 329.68 353.41 331.27 352.43 333.91 352.14 338.5 350.52 340.68 350.84 342.71 350.49 344.66 352.08 347.69 352.84 348.33 353.6 350.56 355.64 352.32 357.94 353.12 359.79 356.38 361.56 358.3 364.32 359.63 363.9 362.99 364.1 366.04 363.21 374.85 365.03 377.58 367.63 380.71 367.81 382.4 372.05 382.13 373.54 381.44 376.29 382.42 377.4 383.82 379.36 383.73 380.56 382.15 382.77 386.22 382.97 388.29 382.07 388.72 384.32 391.52 383.68 394.23 384.76 394.6 385.77 398.21 383.02 402.77 382.5 405.42 381.07 404.59 379.11 404.84 378.33 408.76 377.02 411.51 374.94 414.25 376.35 416.86 376.88 418.78 374.66 423.45 372.67 424.38 372.21 425.21 369.18 425.64 365.58 426.8 364.25 427.81 364.11 429.01 361.88 430.07 362.22 431.09 361.04 432.14 360.09 431.63 358.62 432.81 357 433.3 354.39 436.75 353.09 442.2 351.04 442.66 350.2 444.08 347.44 446.64 345.57 449.83 343.16 452.84 344.42 454.02 344.68 456.37 342.75 456.98 342.73 458.39 341.25 458.89 340.01 460.18 337.65 460.99 336.97 462.81 338.31 465.86 337.74 468.48 339.55 469.66 340.56 471.36 340.65 473.1 338.7 477.24 338.67 480.03 339.22 482.19 338.99 487.01 339.5 488.9 337.89 492.3 336.24 493.37 335.93 496.2 334.41 496.87 331.28 496.67 329.08 497.95 326.47 497.82 324.5 499.01 325.45 501.43 323.27 504.04 321.8 507.95 321.65 509.91 322.33 512.78 323.35 513.81 324.89 516.85 329.39 522.07 327.61 523.16 324.72 526.62 322.37 527.78 320.24 527.9 318.32 529.26 317.77 530.89 315.68 530.35 311.77 530.65 308.56 532.04 305.83 534.83 301.81 534.17 300.76 534.65 298.5 534.47 297.26 532.76 293.52 530.15 293.01 528.05 291.87 527.61 291.34 525.95 288.95 524.43 288.4 523.06 285.97 521.55 284.06 521.18 282.27 523.25 282.1 525.1 280.67 526.77 277.39 526.4 273.23 528.98 271.79 528.19 267.4 530.17 265.54 530.6 263.98 529.35 263.87 526.06 260.39 523.23 259.9 522.17 257.91 521.24 258.42 519.67 258.86 514.34 257.42 512.53 257.24 511.18 255.25 509.79 255.25 508.14 253.71 508.5 250.95 505.03 247.8 502.02 244.4 497.92 243.15 495.62 242.49 493.36 240.63 492.6 239.29 490.89 237.17 490.61 235.21 491.16 233.08 490.72 229.72 490.61 228.57 489.64 226.13 491.25 225.94 489.51 227.18 489.43 227.9 487.56 227.53 485.79 229.68 483.55 230.24 482.4 230.63 477.09 231.17 474.25 232.91 471.24 234.49 469.35 237.83 468.01 239.97 466.59 240.3 464.89 241.44 464.82 242.07 463.52 243.28 463.49 244.45 461.08 247.85 459.61 250.84 457.28 249.26 450.19 247.37 448.17 246.07 444.93 245.44 445.24 243.37 443 242.23 442.36 240.56 440.04 238.55 438.99 236.29 436.42 235.14 434.12 233.84 434.24 232.73 435.68 231.47 436.16 230.01 435.47 230.33 433.26 229.79 431.7 230.19 430.3 229.65 425.35 229.83 422.97 229.37 421.21 232.37 417.14 232.53 415.89 235.32 416.44 237.2 410.08 237.82 409.75 237.58 406.07 238.38 405.54 237.93 403.42 239.86 400.73 239.6 397.04 238.98 394.94 241.1 390.1 242.56 390.13 245.09 387.29 245.57 385.57 244.84 382.81 245.61 377.84 248.8 376.67 249.07 374.97 250.58 374.58 251.36 373.35 252.68 373.51 254.54 371.53 254.61 369.85 256.27 367.84 256.11 366.94 258.01 365.76 258.65 363.84 256.98 363.11 256.29 361.13 256.47 356.77 255.15 354.91 256.26 353.5 253.98 352.2 252.51 350.06 250.59 349.2 246.92 348.43 245.72 345.3 244.38 343.64 241.36 341.4 242.04 339.35 241.22 334.93 243.08 332.7 243.98 328.94 243.08 326.72 239.38 325.57 236.33 325.54 235.65 321.51 234.59 320.87 234.03 318.61 231.8 316.85 231.5 315.66 229.62 314.91 228.29 312.93 225.73 311.85 224.99 308.91 224.04 306.83 223.89 304.18 222.69 301.61 222.86 299.15 222.1 298.05 226.17 295.29 228.18 293.32 231.2 289.7 232.74 287.24 230 281.23 227.6 278.13 227.45 276.52 228.08 274.52 227.71 272.55 224.67 270.01 222.34 267.49 222.32 264.21 221.76 262.62 223.1 261.22 223.47 259.55 225.11 258.6 225.44 257.3 229.33 255.79 231.35 253.02 231.39 251.79 232.97 250.21 234.74 249.63 234.82 247.82 236.52 245.01 236.55 239.47 237.6 237.66 240.19 235.35 241.87 234.89 244.06 233.14 247.65 234.62 250.54 229.59 251.67 228.05 254.25 226.85 253.34 225.24 254.17 220.11 253.69 219.03 255.01 216.3 256.51 215.97 257.25 213.65 258.67 212.66 262.56 207.42 264.24 207.18 265.86 203.36 267.42 201.82 268.56 201.52 269.4 198.3 268.88 196.04 270.93 193.02 271.87 190.95 274.45 187.4 280.45 186.55 281.51 188.18 284.31 188.54 286.25 191.07 289.2 190.56 290.25 189.67 292.17 189.52 294.77 188.43 295.86 188.47 296.65 189.97 298.69 187.71 301.18 186.02 303.09 185.35 305.09 185.95 306.22 185.05 307.72 185.18 310.53 184.34 313.57 184.3 317.22 184.81 319.25 183.63 322.89 184.18 324.32 182.31 327.46 184.01 328.72 184.27 329.98 185.72 331.6 185.73 331.75 187.63 333.21 191.67 337.02 188.96 337.48 188.03 342.89 187.29 345.81 186.15 347.4 186.88 348.55 186.26 350.49 187.26 353.23 185.44 354.09 186.07 358.01 183.58 360.02 187.1 361.89 189.55 365.23 190.89 367.44 192.29 368.81 193.93 370.18 194.28 369.74 196.13 369.89 198.47 371.65 201.28 370.85 204.41 369.63 206.81 370.83 212.68 373.38 219.57 373.16 223.79 371.12 227.34 371.03 229.82 369.41 231.58 367.79 234.95 369.41 236.02 373.87 241.86 374.54 244.12 375.68 245.65 376.24 249.33 376.76 250.58 376.34 254.1 377.15 256.92 376.19 258.25 375.96 262.46 375.22 264.32 375.57 267.68 372.76 271.35 371.25 271.25 371.45 275.25 365.34 281 364.12 283.27 363 287.12 363.63 292.36 364.27 294.61 363.71 296.52 362.74 302.5 361.24 304.24 Z" id="34020390"/>
<path d="M 169.35 1 171.53 6.34 171.06 7.59 171.79 11.71 171.64 14.1 173.98 17.15 174.95 22.11 176.78 23.61 177.15 25.57 178.44 27.57 180.74 29.8 181.33 31.01 183 32.33 184.33 35.73 183.89 37.09 185.27 39.42 187.88 40.92 187.91 42.47 189.47 43.72 191.19 46.43 189.65 50.23 190.21 53.04 190.18 55.01 188.68 58.89 189.02 60.69 190.31 63.26 190.16 64.46 194.08 66.1 197.54 67.18 198.92 68.65 203.41 69.06 204.42 71.07 208.49 71.41 209.13 73.23 211.16 75.66 212.83 76.61 214.44 75.88 217.75 76.89 220.37 76.74 224.16 72.65 224.96 71.35 230.15 69.76 230.67 68.88 233.38 68.24 235.7 69.81 237.35 69.53 239.31 70.36 240.94 68.62 241.31 66.97 244.11 67.36 246.29 66.34 248.34 63.05 248.88 60.63 251.17 59.55 252.64 57.91 254.56 59.49 256.24 63.68 259.55 62.52 261.47 64.66 264.39 66.16 265.75 68.12 266.43 70.76 268.76 70.57 274.64 73.1 276.89 81.45 275.57 84.32 274.47 88.41 274.97 92.5 274.01 97.57 273.4 99.22 274.17 100.37 273.29 102.86 273.71 105.12 273.38 106.45 275.14 107.63 277.75 108.41 280.23 107.88 282.72 109.49 286.08 110.47 287.7 112.01 287.48 114.42 287.64 117.94 289.68 121.25 289.41 123.19 290.69 126.59 290.12 128.24 288.33 128.83 287.15 131.73 287.59 132.55 289.84 133.21 290.54 134.95 293.15 134.79 293.8 135.88 297.52 135.98 301.46 137.06 303.75 136.25 304.66 139.29 304.09 141.07 304.46 143.58 303.97 145.32 301.82 148.13 302.37 149.28 301.83 150.91 301.82 153.36 303.22 154.85 305.3 160.08 304.54 162.57 303.06 164.14 302.32 166.33 302.96 168.89 304.47 170.03 304.75 172.9 307.48 175.37 305.16 178.29 303.34 179.17 303.89 182.19 303.03 184.04 303.09 185.35 301.18 186.02 298.69 187.71 296.65 189.97 295.86 188.47 294.77 188.43 292.17 189.52 290.25 189.67 289.2 190.56 286.25 191.07 284.31 188.54 281.51 188.18 280.45 186.55 274.45 187.4 271.87 190.95 270.93 193.02 268.88 196.04 269.4 198.3 268.56 201.52 267.42 201.82 265.86 203.36 264.24 207.18 262.56 207.42 258.67 212.66 257.25 213.65 256.51 215.97 255.01 216.3 253.69 219.03 254.17 220.11 253.34 225.24 254.25 226.85 251.67 228.05 250.54 229.59 247.65 234.62 244.06 233.14 241.87 234.89 240.19 235.35 237.6 237.66 236.55 239.47 236.52 245.01 234.82 247.82 234.74 249.63 232.97 250.21 231.39 251.79 231.35 253.02 229.33 255.79 225.44 257.3 225.11 258.6 223.47 259.55 223.1 261.22 221.76 262.62 222.32 264.21 222.34 267.49 224.67 270.01 227.71 272.55 228.08 274.52 227.45 276.52 227.6 278.13 230 281.23 232.74 287.24 231.2 289.7 228.18 293.32 226.17 295.29 222.1 298.05 220.08 298.04 218.87 297.14 216.09 298.66 212.59 297.87 210.47 298.59 208.62 301.86 207.09 303.94 207.83 307.67 206.72 308.06 205.77 313.25 203.54 314.97 202.38 317.43 199.13 317.42 197.01 319.33 198.8 324.64 198.01 326.51 197.55 329.16 196.61 330.22 196.75 331.55 195.43 334.07 195.63 336.26 197.26 340.53 198.09 341.58 195.91 344.54 194.2 344.87 190.93 343.9 187.1 346.79 186.31 345.56 183.34 346.97 181.78 348.34 178.66 352.13 177.78 354.13 176.02 355.01 173.34 355.41 171 356.73 169.26 356.71 168.05 358.7 165.49 358.78 164.65 359.51 164.21 361.67 164.68 362.57 162.67 365.89 159.6 365.8 158.85 366.94 156.9 367.49 155.44 368.51 153.05 368.41 151.02 367.24 147.23 367.69 144.82 370.84 142.6 371.5 141.48 374.03 135 369.75 132.42 366.73 130.72 360.68 128.09 359.76 126.27 360.46 123.03 359 121.16 355.94 119.54 357.03 117.99 356.6 115.31 358.85 114.09 359.15 113.32 355.93 110.21 355.78 107.09 356.06 104.5 354.94 100.59 351.72 99.6 352.46 99.5 354.51 97.26 355.45 96.26 354.75 92.17 354.96 90.26 353.3 88.5 354.37 83.52 355.95 80.98 356.47 78.78 355 78.08 356.5 75.07 356.54 70.68 354.95 70.11 351.54 69.49 350.66 66.78 349.16 65.51 349.25 65.06 345.49 65.35 343.92 63.9 339.85 61.11 340.22 59.72 341.24 58.49 340.97 56.76 339.11 56.09 337.69 54.18 335.96 50.01 335.8 48.27 335.21 47.56 333.63 45.65 333.17 45.11 331.83 45.15 329.37 43.34 326.45 40.02 324.01 38.04 324.07 37.09 322.79 35.57 322.01 33.67 321.9 32.74 320.83 32.9 317.38 33.68 314.22 33.32 313.72 32.62 307.9 33.74 305.62 33.9 304.05 33.03 302.01 33.03 300.17 32.05 297.22 32.39 296.03 33.67 295.36 35.01 293.44 37.92 293.72 39.86 294.54 42.18 292.65 40.99 289.9 41.58 288.49 42.81 288.1 43.17 284.9 45.18 282.85 47.15 282.92 47.29 280.5 52.87 279.21 54.69 279.18 55.3 277.4 56.69 275.28 56.27 274.05 57.13 271.79 56.86 266.19 60.71 264.34 61.8 262.96 65.12 262.04 65.9 261.05 67.47 257.32 67.71 255.63 70.46 253.42 73.41 253.89 74.92 253 76.06 251.07 77.18 247.63 78.03 246.18 78.46 243.52 79.01 237.08 80.66 236.52 81.11 234.5 83.09 233.23 82.16 231.32 83.65 227.81 85.32 226.49 88.24 225.32 89.38 223.04 91.09 222.04 92.21 220.35 95.37 219.06 95.97 217.71 94.94 215.25 94.79 213.23 88.82 208.09 88.94 205.58 90.18 205.39 90 203.6 88.9 202.33 90.33 197.02 88.1 193.72 89.97 191.7 91.33 189.47 92.71 189.19 93.24 190.58 95.59 191.01 95.87 189.96 97.97 189.18 98.17 186.52 97.44 185.36 95.58 184.4 95.48 182.77 94.18 180.36 95.13 177.53 94.54 175.84 95.73 174.69 96.09 171.99 97.85 170.75 97.81 167.04 98.47 164.9 99.86 163.8 101.36 163.71 105.06 159.92 106.94 158.77 108.13 159.18 109.05 158.07 108.99 155.8 107.68 154.74 108.71 152.09 108.26 148.3 106.71 147.21 105.72 144.38 105.51 142.32 105.75 139.98 107.47 138.02 108.77 137.72 111.59 138.26 113.23 136.42 117.86 134.86 118.19 133.26 120.83 131.7 121.12 129.56 122.18 128.26 124.83 127.64 124.69 123.09 123.34 120.92 123.42 118.53 122.21 118.01 121.84 116.36 122.29 114.96 123.52 115.25 124.13 112.33 126 109.46 127.84 107.78 127.61 106 128.1 103.77 130.51 99.54 130.8 95.73 133.54 93.62 136.26 92.04 137.2 89.92 141.33 88.57 143.49 86.59 144.34 84.74 144.42 80.96 143.76 79.45 144.01 77.01 142.09 75.3 142.31 73.1 143.25 69.51 142.77 67.61 145.85 66.08 147.48 64.51 148.53 62.32 149.96 62.15 151.05 60.94 153.35 60.78 154.2 59.53 152.28 56.42 151.38 52.18 152.03 49.61 153.54 45.72 153.57 42.8 150.02 42.75 149.48 41.33 150.2 40.51 148.85 36.52 149.2 35.2 147.83 34.66 148.58 32.58 148.03 31.16 148.69 29.87 148.33 27.37 149.01 25.41 148.4 22.64 148.82 18.87 150.97 16.99 154.28 15.26 154.46 13.3 159.58 8.9 161.14 8.43 162.24 6.5 161.95 5.1 162.95 2.92 164.53 1.98 166.48 2.16 169.35 1 Z" id="34020110"/>
<path d="M 469.62 729.72 469.77 734.04 470.29 734.85 469.29 737.73 470.19 739.71 470.7 742.67 471.69 744.06 472.74 748.1 473.36 752.52 475.95 755.05 475.68 756.44 478.7 758.22 480.31 758.68 481.47 761.46 481.58 765.41 480.14 766.72 478.38 766.73 475.31 768.59 474.19 770.22 472.4 769.88 470.34 770.49 467.3 772.6 464.84 773.36 458.89 773.38 459.04 774.63 458.18 775.93 458.54 780.33 456.87 786 452.79 787.64 451 789.37 446.36 790.93 444.95 793.4 442.45 795.28 441.54 800.01 443.78 804.4 439.84 809.55 439.65 811.8 438 813.87 437.86 820.4 439.28 820.75 441.02 824.35 443.15 826 443.12 827.64 444.2 829.27 443.84 831.1 446.08 835.82 447.4 837.31 447.93 840.48 447.12 843.11 447.09 844.79 444.82 849.54 443.04 850.99 443.5 853.08 442.3 855.04 439.34 855.94 438.31 856.88 438.24 858.48 436.68 861.12 436.32 863.95 434.45 865.96 432.02 869.18 429.99 870.27 429.09 871.97 428.23 874.88 426.1 877.47 423.22 881.73 421.8 882.45 419.42 886.45 417.84 885.91 415.62 887.38 414.52 889.23 414.68 891.21 413.25 892.67 410.99 891.63 408.28 891.44 407.4 889.84 406.37 889.57 405.29 887.92 405.14 885.46 405.65 882.14 401.93 880.4 399.64 881.43 398.37 882.86 396.88 881.07 396.6 875.93 396.28 875.12 393.59 874.83 392.51 875.3 389.28 872.76 385.83 872.44 384.85 870.82 384.95 867.91 384.51 865.08 386.09 862.78 384.04 860.61 381.03 860.39 378.91 855.67 376.76 855.11 376.24 852.71 375.28 850.84 372.85 848.24 370.64 848.64 368.12 847.93 366.81 846.73 366.04 844.64 364.63 845.1 363.23 847.66 359.71 846.96 358.17 848.25 355.42 848.52 352.66 848.2 351.29 847.35 350.39 848.01 347.14 846.75 345.89 844.54 343.09 843.05 341.32 843.17 341.56 840.34 338.99 837.28 337.29 836.25 334.66 832.99 333.64 833.1 330.94 831.9 326.66 831.63 323.99 830.44 322.04 831.08 319.54 830.77 316.73 831.95 315.53 830.46 313.32 830.42 309.84 827.89 308.56 827.47 306.37 825.69 306.65 822.84 305.9 820.96 304.78 820.24 304.33 818.53 303.29 818.44 302.14 816.7 303.16 815.3 301.89 811.96 300.34 810.73 302.46 808.21 302.46 806.82 303.46 804.69 305.28 799.47 304.75 796.08 305.48 793.55 305.05 792.16 301.09 793.63 298.1 793.32 296.87 787.09 296.96 783.49 293.64 783.03 290.3 778.93 291.04 777.81 290.17 775.95 292.41 773.11 292.75 771.79 290.38 769.35 290.16 764.8 290.94 762.55 290.62 760.5 289.38 759.29 284.53 757.31 281.27 753.14 279.19 752.21 278.92 749.96 279.3 746.98 275.23 745.13 277.3 743.72 278.8 743.53 280.45 741.83 280.37 740.82 282.39 739.4 283.05 737.72 285.23 736.36 285.93 735.12 284.31 733.36 284.1 730.88 286.47 725.5 284.13 727.11 281.63 727.41 276.91 728.9 271.9 728.1 270.39 728.8 267.77 730.76 263.96 731.06 262.94 732.52 254.06 735.78 254.17 734.44 249.36 730.55 251.46 728.93 257.84 722.23 263.09 718.13 268.98 713.3 278.22 706.13 281.95 702.75 285.53 699.87 293.49 693.53 301.02 686.52 302.48 684.99 307.51 682.24 309.67 680.25 313.83 675.57 320.14 670.46 324.81 665.21 327.47 659.73 330.56 655.07 333.6 648.69 335.98 642.26 341.41 637.32 343.04 635.3 345.58 636.51 345.25 638.35 347.15 639.45 350.09 642.17 350.74 641.69 353.7 637.69 356.51 635.45 359.11 634.71 361.11 631.39 362.22 631.07 365.35 633.33 368.92 630.28 368.86 629.28 370.61 628.02 370.9 626.79 373.55 626.94 374.26 624.65 377.9 627.21 381.27 624.46 383.06 623.45 384.66 625.29 387.84 625.83 388.55 628.68 389.91 630.14 390.1 630.42 390.1 631.7 393.52 631.85 393.98 632.98 393.38 634.61 395.29 636.49 397.7 642.14 397.65 644.38 395.75 646.32 395.17 649.16 396.32 652.1 394.88 655.53 395.26 656.54 394.51 659.09 392.6 661.19 391.13 663.94 392.77 665.23 394.25 664.83 394.87 665.79 394.45 668.15 396.73 668.57 399.73 670.98 400.14 672.5 402.58 671.25 404.72 672.63 405.83 670.84 407.37 672 409.66 672.77 411.31 674.09 411.3 677.24 410.74 680.39 411.49 682.35 415.11 685.56 417.5 688.66 419.47 689.29 419.82 690.2 417.25 693.85 417.2 695.16 419.81 696.47 420.77 697.97 420.96 701.78 422.59 703.19 423.19 706.88 422.91 708.23 424.06 709.83 425.11 707.87 428.21 706.91 431.34 706.45 432.61 704.46 435.57 702.1 437.8 702.48 440.96 704.77 443.46 703.92 446.75 707.19 448.52 710.96 450.57 714.07 454.69 714.96 455.6 716.45 457.68 716.12 458.92 717.87 461.48 719.22 463.29 724.36 465.91 723.91 467.14 724.87 468.12 726.94 469.21 727.76 469.62 729.72 Z" id="34020310"/>
<path d="M 413.25 892.67 411.79 896.63 409.39 898.04 405.88 897.97 402.84 899.36 403.98 902.68 403.63 903.46 400.72 905.35 401.76 907.65 402.31 910.01 400.9 912.97 400.93 914.39 399.11 917.28 398.31 922.24 397.13 924.94 395.99 925.77 396.42 929.37 394.39 932.39 395.04 934.37 392.54 940.97 391.18 943.38 390.69 945.19 390.84 946.98 390.01 949.4 388.2 950.27 384.03 951.31 381.16 952.73 378.44 952.87 376.21 952.26 374.4 950.81 373.13 949 372.9 947.46 371.71 946.96 369.41 950.52 368.84 950.44 367.89 954.04 369.24 958.75 370.64 962.31 370.55 964.54 368.71 967.28 368.46 970.38 367.77 971.46 365.94 972.22 364.51 974.38 365.02 976.86 367.1 979.46 367.95 983.22 367.13 987.37 366.62 991.37 365.89 994.69 366.13 996.93 365.7 997 356.23 995.32 353.55 995.11 351.99 995.49 349.19 994.53 346.22 994.62 343.96 993.4 341.13 993.25 339.19 992.6 336.31 990.4 333.84 989.4 329.84 989.34 324.47 987.02 322.38 986.42 319.2 983.97 315.28 982.76 314.17 981.54 311.9 981.09 310.46 982.04 307.52 982.88 305.06 983.08 305.06 986.53 301.96 987.64 301.26 986.47 298.8 985.7 297.1 986.65 295.21 986.9 293.36 985.33 291.68 984.85 289.51 985.35 288.72 983.37 288.7 981.85 286.13 980.39 283.44 977.67 280.48 973.15 280.31 971.65 278.67 970.1 275.4 968.28 274.89 966.54 270.68 963.73 270.56 962.38 266.78 962.22 265.53 959.7 265.2 958 266.24 957.02 266.68 954.53 264.16 952.04 263.08 948.19 261.43 947.83 259.89 949.16 257.96 951.65 253.44 951.06 251.55 949.25 249.66 946.52 246.32 945.59 245.39 946.11 242.76 945.87 241.28 944.44 239.21 945.82 237.66 947.49 236.27 947.38 234.7 948.86 231.04 947.16 225.2 946.24 225.31 945.44 227.22 942.66 228.88 941.21 227.52 940.51 225.74 941.93 223.74 944.44 220 942.8 219.06 939.83 218.16 938.29 216.69 938.15 216.6 936.15 218.39 932.35 216.5 930.73 214.59 930.66 212.28 929.19 209.39 926.23 208.07 925.53 208.18 923.45 206.11 922.06 207.39 920.85 209.37 917.62 209.01 915.23 206.84 914.4 206.82 911.45 207.68 909.15 209.17 907.08 208.55 904.82 209.18 902.74 210.24 902.06 209.21 900.75 209.59 898.75 210.95 895.93 214.69 892.74 216.28 896.07 219.58 893.01 220.24 890.12 219.64 888.66 220.91 886.34 220.07 885.16 220.66 883.43 221.93 882.44 222.61 879.41 222.18 875.5 224.08 874.54 224.97 872.27 225.86 872.34 229.4 870.01 226.77 868.97 222.72 868.88 218.07 868.16 215.66 867.48 212.69 863.89 211.97 859.71 212.78 856.07 213.74 854.18 214.26 851.7 210.78 850.63 208.05 849.12 206.38 848.97 205.56 847.6 201.76 847.84 200.03 849.44 198.43 849.76 196.21 851.56 194.14 851.17 193.23 852.11 188.38 853.31 191.06 850.92 198.13 847.01 198.8 846.35 202.38 844.83 202.01 839.85 203.56 838.11 204.39 835.35 208.85 835.97 208.73 835.24 210.39 831.9 212.35 830.07 213.22 827.24 208.82 826.84 209.49 822.14 209.65 818.03 209.29 811.52 208.37 802.59 208.81 793.66 209.61 787.81 209.92 781.24 210.41 775.8 212.34 768.96 215.15 760.48 216.88 755.86 219.19 752.61 222.65 750.06 227.19 747.23 231.34 745.08 235.49 743.29 239.67 740.09 246.66 731.77 249.36 730.55 254.17 734.44 254.06 735.78 262.94 732.52 263.96 731.06 267.77 730.76 270.39 728.8 271.9 728.1 276.91 728.9 281.63 727.41 284.13 727.11 286.47 725.5 284.1 730.88 284.31 733.36 285.93 735.12 285.23 736.36 283.05 737.72 282.39 739.4 280.37 740.82 280.45 741.83 278.8 743.53 277.3 743.72 275.23 745.13 279.3 746.98 278.92 749.96 279.19 752.21 281.27 753.14 284.53 757.31 289.38 759.29 290.62 760.5 290.94 762.55 290.16 764.8 290.38 769.35 292.75 771.79 292.41 773.11 290.17 775.95 291.04 777.81 290.3 778.93 293.64 783.03 296.96 783.49 296.87 787.09 298.1 793.32 301.09 793.63 305.05 792.16 305.48 793.55 304.75 796.08 305.28 799.47 303.46 804.69 302.46 806.82 302.46 808.21 300.34 810.73 301.89 811.96 303.16 815.3 302.14 816.7 303.29 818.44 304.33 818.53 304.78 820.24 305.9 820.96 306.65 822.84 306.37 825.69 308.56 827.47 309.84 827.89 313.32 830.42 315.53 830.46 316.73 831.95 319.54 830.77 322.04 831.08 323.99 830.44 326.66 831.63 330.94 831.9 333.64 833.1 334.66 832.99 337.29 836.25 338.99 837.28 341.56 840.34 341.32 843.17 343.09 843.05 345.89 844.54 347.14 846.75 350.39 848.01 351.29 847.35 352.66 848.2 355.42 848.52 358.17 848.25 359.71 846.96 363.23 847.66 364.63 845.1 366.04 844.64 366.81 846.73 368.12 847.93 370.64 848.64 372.85 848.24 375.28 850.84 376.24 852.71 376.76 855.11 378.91 855.67 381.03 860.39 384.04 860.61 386.09 862.78 384.51 865.08 384.95 867.91 384.85 870.82 385.83 872.44 389.28 872.76 392.51 875.3 393.59 874.83 396.28 875.12 396.6 875.93 396.88 881.07 398.37 882.86 399.64 881.43 401.93 880.4 405.65 882.14 405.14 885.46 405.29 887.92 406.37 889.57 407.4 889.84 408.28 891.44 410.99 891.63 413.25 892.67 Z" id="34020320"/>
<path d="M 614.9 641.23 615 642.62 616.3 644.43 619.47 644.59 620.91 646.22 627.27 647.32 628.32 647.96 627.78 651.27 627.39 655.74 627.59 657.92 626.84 658.93 629.71 660.78 632.61 661.41 633.67 662.36 634.24 665.85 636.77 665.34 639.08 665.34 640.94 665.88 642.3 667.92 644.15 671.86 645.78 672.76 646.64 674.21 646.41 678.66 647.08 680.83 650.66 683.2 651.27 687.7 654.51 690.54 656.26 691.06 655.66 693.13 654.27 694.03 652.88 696.16 650.57 697.3 649.39 699.18 648.46 699.45 648.89 701.87 650.74 703.72 652.11 707.13 651.14 709.52 650.07 710.6 649.02 712.81 649.91 717.3 649.25 720.34 648.61 721.54 649.24 723.61 649.14 725.45 650.29 728.34 648.51 731.61 647.26 733.1 646.38 735.98 644.66 737.64 642.18 738.68 639.62 741.75 638 744.54 638.63 746.38 637.74 747.3 635.6 753.3 636.5 754.93 635.68 757.84 636.09 764.82 634.52 768.62 636.29 770.25 638.59 769.61 640.22 771.02 644.06 775.86 645.38 776.17 646.04 779.18 647.97 780.64 649.35 783.46 649.68 786.96 650.77 788.12 649.35 791.79 649.21 794.15 648.56 794.51 645.95 798.09 645.31 798.29 641.78 801.28 642.43 803.13 638.96 807.46 635.85 809.79 634.65 811.2 637.18 814.14 638.79 818 640.39 820.35 642.82 825.9 646.55 832.9 643.68 836.86 642.78 837.58 640.26 838.22 636.81 841.9 634.48 844.01 633.88 846.7 631.45 848.17 631.11 850.13 629.8 850.8 627.6 854.12 623.51 853.12 622.06 854.14 615.06 857.91 611.54 860.87 608.85 861.56 608.05 863.86 605.71 865.85 603.47 864.88 602.49 862.7 599.64 864.12 595.54 863.88 593.37 864.14 590.37 867.67 590.45 869.29 589.78 871.66 586.82 871.31 583.78 871.9 581.79 872.99 579.84 874.93 576.81 874.19 575.82 874.73 573.64 878.78 571.37 880.02 569.83 880.06 567.36 883.26 564.78 884.44 559.91 883.67 557.37 884.14 555.16 883.97 554.66 883.14 551.95 883.5 552.05 886.77 551.83 895.6 551.47 899.16 547.43 900.34 547.09 901.63 543.8 900.83 541.02 905.19 538.9 907.54 538.13 909.96 535.73 910.13 533.21 909.34 531.76 911.27 529.65 911.65 529.57 913.02 530.33 915.22 530.32 917.74 528.63 917.28 523.92 920.62 523.16 921.68 521.04 923.12 520.88 925.19 518.54 927.56 517.73 927.54 517.12 924.52 515.87 921.28 511.65 914.91 510.13 911.18 508.33 910.19 506.61 908.13 504.34 903.25 500.53 899.74 498.74 897.48 495.57 894.89 495.1 892.79 495.06 889.56 493.22 888.82 491.95 887.68 487.38 889.02 485.62 889.13 483.27 890.51 481.81 892.34 479.09 892.51 477.08 893.45 476.22 894.68 474.49 893.61 473.25 891.71 472.47 889.38 471 887.81 469.77 884 468.92 883.12 469.57 879.03 469.18 877.22 467.71 874.83 465.92 873.97 466.25 870.72 465.74 868.51 464.62 866.83 464.84 865.77 462.85 864.05 462.22 862.22 459.52 859.46 460.12 858.28 457.61 856.19 456.65 853.32 454.84 850.23 452.58 847.79 451.37 844.82 449.54 841.34 447.93 840.48 447.4 837.31 446.08 835.82 443.84 831.1 444.2 829.27 443.12 827.64 443.15 826 441.02 824.35 439.28 820.75 437.86 820.4 438 813.87 439.65 811.8 439.84 809.55 443.78 804.4 441.54 800.01 442.45 795.28 444.95 793.4 446.36 790.93 451 789.37 452.79 787.64 456.87 786 458.54 780.33 458.18 775.93 459.04 774.63 458.89 773.38 464.84 773.36 467.3 772.6 470.34 770.49 472.4 769.88 474.19 770.22 475.31 768.59 478.38 766.73 480.14 766.72 481.58 765.41 481.47 761.46 480.31 758.68 478.7 758.22 475.68 756.44 475.95 755.05 473.36 752.52 472.74 748.1 471.69 744.06 470.7 742.67 470.19 739.71 469.29 737.73 470.29 734.85 469.77 734.04 469.62 729.72 470.45 728.69 472.38 728.35 473.01 727.25 477.83 726.14 476.02 722.14 477.4 718.39 476.33 717.17 475.06 714.47 477.89 711.07 479.04 707.41 480.85 704.54 481.77 701.49 485.2 698.12 487.4 697.65 490.12 696.1 491.83 692.96 489.08 689.69 488.82 687.81 487.05 684.57 484.97 680.08 488.29 675.99 486.78 670.36 487.41 668.34 486.5 666.71 487.39 662.79 486.64 661.49 484.48 660.95 484.11 659.84 484.93 658.38 485.07 656.13 486.58 655.23 489.67 654.27 495.52 653.99 496.25 649.71 495.93 647.68 495.87 643.81 497.03 640.32 496.86 637.11 497.47 635.34 499.41 635.61 500.91 634.91 507.13 634.74 510.03 635.75 517.21 632.62 518.9 634.35 519.01 635.32 521.66 636.37 522.63 637.87 525.94 636.48 528.52 633.73 530.77 632.26 531.67 632.57 531.96 636.86 532.92 639.13 531.88 641.87 532.1 643.53 533.25 645.6 534.99 646.25 536.95 646.17 538.87 647.66 540.93 648.52 541.95 647.15 546.14 644.32 551.07 643.44 553.88 647.3 556.28 648.24 555.86 651.68 556.54 653.17 561.19 657.74 561.11 658.81 559.06 660.42 559.55 663.12 561.64 662.32 562.62 662.88 564.05 659.62 568.04 659.79 570.31 659.42 576.91 655.22 577.74 654.1 580.77 653.07 582.66 651.67 584.02 652.49 586.5 652.91 588.08 652.08 590.35 647.45 590.57 644.93 592.76 644.5 594.66 645.14 597.14 644.86 597.51 645.94 600.78 646.25 604.96 646.14 607.97 645.23 610.37 644.12 614.9 641.23 Z" id="34020330"/>
<path d="M 493.68 554.07 494.97 554.64 491.3 556.76 490.35 559.1 490.85 562.81 488.66 567.84 490.65 570.66 490.63 575.73 491.52 578.96 490.47 578.95 488.42 581.06 485.67 583.27 482.22 583.73 480.74 583.29 475.08 583.22 474.47 584.64 472.33 586.15 466.12 581.42 467.92 578.69 468.26 576.47 466.99 575.08 467.73 573.66 467.3 572.41 468.46 568.23 466.98 564.27 466.81 562.03 465.62 561.28 465.46 559.57 463.31 558.82 465.28 557.13 464.98 555.27 463.86 553.73 468.04 553.4 469.65 552.3 471.19 552.93 483.7 552.36 487.35 553.15 488.54 554.12 490.86 553.52 493.68 554.07 Z" id="34020510"/>
</g>
</svg>