<?xml version="1.0"?>
<svg xmlns="http://www.w3.org/2000/svg" version="1.2" baseProfile="tiny" width="800" height="899" viewBox="0 0 800 899" stroke-linecap="round" stroke-linejoin="round">
<g id="dong">
<path d="M 443.43 488.35 445.4 490.3 446.53 494.38 447.68 496.44 450.72 497.05 449.89 499.45 450.62 500.81 449.75 502.52 450.38 504.43 452.99 506.18 452.46 507.08 458.39 509.74 461.36 510.53 462.92 509.77 467.6 510.21 469.62 509.88 469.36 505.77 469.75 504.74 473.26 504.51 477.09 500.63 479.59 502.19 481.4 502.03 482.93 503.11 483.62 509.98 485.39 515.88 490.11 515.83 492.7 515.33 493.51 520.32 494.87 521.07 498.74 525.38 499.9 528.33 495.32 530.4 489.67 535.12 484.66 536.11 479.98 541.82 476.35 546.67 471.01 547.64 468.39 547.57 468.43 553.2 466.15 556.88 466.15 559.13 464.8 564.02 467.36 569.57 467.37 572.24 466.09 572.84 461.56 570.63 461.3 569.42 458.84 569.03 456.26 565.92 453.77 564.58 449.29 563.86 446.23 565.1 443.59 567.36 443 569.1 443.36 571.28 439.79 570.4 437.9 571.59 437.62 574.04 436.61 576.37 434.84 577.78 434.81 579.72 433.08 582.46 433.03 583.58 431.08 585.9 429.72 589.33 430.19 590.61 428.58 595.71 428.5 597.85 427.08 598.38 422.77 595.77 422.69 590.89 421.2 587.27 421.94 584.71 420.46 583.67 417.75 586.31 413.59 584.16 411.24 584.72 409.31 582.46 406.98 582.6 405 584.31 404.32 586.11 401.12 588.93 400.41 586.73 397.33 583.92 396.86 582.71 391.54 582.5 389.77 584.74 388.61 584.93 387.59 586.87 386.84 590.18 384.28 590.61 382.94 589.35 380.54 589.58 377.55 587.34 374.86 588.24 370.86 588.19 365.71 590.02 364.54 591.07 355.4 591.31 353.68 592.18 348.32 593.73 347.07 591.71 344.92 590.99 342.74 587.22 340.8 585.84 335.27 583.17 332.88 582.66 332.24 580.4 330.29 579.42 327.51 581.1 320.02 582.1 317.01 581.61 313.07 580.13 308.85 584.3 303.48 583.75 301.5 580.37 296.86 575.9 294.21 575.11 293.42 571.44 289.8 568.98 288.67 566.6 288.97 562.8 288.27 560.42 286.13 556.63 286.05 554.26 284.63 549.83 280.94 547.54 278.36 543.01 277.16 542.01 277.27 540.27 274.98 538.74 269.72 532.8 271.04 530.67 273.71 527.79 274.57 525.79 276.4 524.81 279.5 519.41 277.76 516.51 278.33 513.88 278.67 509 285.09 507.66 288.8 508.62 291.28 510.57 295.36 508.89 296.31 509.58 298.93 508.71 300.83 508.92 301.41 507.59 305.31 510.04 306.17 511.26 308.43 512.19 310.71 513.89 313.27 513.05 313.67 511.09 315.33 510.44 318.81 510.21 322.34 511.29 324.26 513.81 327.11 514.28 329.43 510.13 332.13 511.23 333.69 512.86 336.31 511.9 338.14 514.51 340.3 515.03 342.04 513 345.78 511.41 346.19 508.86 342.69 503.87 341.98 502.14 343.61 499.85 345.66 498.81 346.22 495.53 350.39 495.41 352.2 494.3 353.55 492.19 355.48 491.68 356.53 488.92 359.51 486.18 360.32 488.28 364.06 490.12 365.02 491.76 368.43 491.49 369.28 490.85 373.1 493.14 375.52 494.04 377.78 491.6 389.17 495.89 393.75 495.25 395.1 492.3 396.85 492.62 398.87 491.11 399.35 488.58 399.22 484.45 400.67 483.26 403.07 483.04 404.27 482.06 407.53 482.04 411.34 483.49 413.63 482.59 414.21 483.73 417.41 484.94 419.88 483.55 420.68 484.94 424.13 483.86 426.23 483.91 428.57 480.64 434.17 481.52 439.37 484.05 441.46 485.59 443.43 488.35 Z" id="34510110"/>
<path d="M 449.49 298.93 450.99 299.78 451.03 304.47 454.36 308.37 456.59 309.3 457.23 311.92 459.16 312.35 461.75 314.73 462.62 316.89 465.36 318.75 463.26 322.19 461.92 325.4 459.57 327.31 458.15 329.27 457.89 332.15 459.7 334.23 459.25 337.73 460.47 340.55 459.62 341.24 460.34 345.8 460.45 348.95 458.14 351.29 456.35 351.93 455.73 353.64 451.56 354 448.15 351.27 447.15 351.74 442.57 356.07 439.77 357.63 440.06 360.34 438.94 363.44 437.58 364.93 434.25 365.86 430.42 364.61 427.67 366.84 425.66 367.09 421.26 366.47 417.49 367.23 415.88 369.81 417.94 373.18 417.77 374.76 419.46 377.56 419.81 381.05 421.46 383.4 421.86 387.3 422.86 389.32 426.74 392.57 426.25 393.54 428.11 397.11 432.28 399.47 434.86 401.99 437.8 405.85 437.98 408.69 439.27 411.29 443.26 410.72 445.05 411.96 446 415.74 443.95 420.28 444.42 421.22 443.17 423.27 443.02 425.76 441 430.53 442.49 431.64 443.51 433.59 441.37 441.66 442.36 446.81 441.13 448.68 440.48 453.08 442.59 454.13 446.69 462.4 446.64 465.66 447.52 467.38 447.64 471.02 445.71 470.7 444.57 474.25 443.22 474.94 444.29 478.94 443.18 482.92 443.82 485.6 443.43 488.35 441.46 485.59 439.37 484.05 434.17 481.52 428.57 480.64 426.23 483.91 424.13 483.86 420.68 484.94 419.88 483.55 417.41 484.94 414.21 483.73 413.63 482.59 411.34 483.49 407.53 482.04 404.27 482.06 403.07 483.04 400.67 483.26 399.22 484.45 399.35 488.58 398.87 491.11 396.85 492.62 395.1 492.3 393.75 495.25 389.17 495.89 377.78 491.6 375.52 494.04 373.1 493.14 369.28 490.85 368.43 491.49 365.02 491.76 364.06 490.12 360.32 488.28 359.51 486.18 356.53 488.92 355.48 491.68 353.55 492.19 352.2 494.3 350.39 495.41 346.22 495.53 345.66 498.81 343.61 499.85 341.98 502.14 342.69 503.87 346.19 508.86 345.78 511.41 342.04 513 340.3 515.03 338.14 514.51 336.31 511.9 333.69 512.86 332.13 511.23 329.43 510.13 327.11 514.28 324.26 513.81 322.34 511.29 318.81 510.21 315.33 510.44 313.67 511.09 313.27 513.05 310.71 513.89 308.43 512.19 306.17 511.26 305.31 510.04 301.41 507.59 300.83 508.92 298.93 508.71 296.31 509.58 295.36 508.89 291.28 510.57 288.8 508.62 285.09 507.66 278.67 509 278.79 506.7 278.17 503.02 276.57 501.57 276.49 500 273.93 494.25 274.44 490.4 272.87 485 274.03 480.99 272.7 478.57 272.69 476.27 269.86 470.37 266.73 466.72 264.41 464.75 265.35 463.35 265.15 460.83 264.11 457.99 260.34 458.19 259.9 452.52 260.83 450.61 257.53 446.54 257.04 444.03 258.78 442.2 259.92 434.29 255.57 427.37 257.1 426.64 258.59 424.48 258.71 422.86 263.44 421.33 264.58 422.65 266.74 422.54 267.82 423.44 269.79 423.17 272.02 424.83 275.25 425.45 278.65 425.04 282.35 428.53 283.97 427.92 285.85 428.51 288.47 428.28 289.28 426.94 288.33 421.64 289.01 419.25 287.32 415.69 288.65 414.3 292.03 412.87 294.06 410.34 298.25 407.07 300.55 403.9 300.97 400.29 301.94 397.76 303.63 398.22 306.19 395.76 309.07 393.81 311.17 391.23 314.06 390.73 316.01 388.77 315.65 386.23 319.33 385.54 320.42 383.13 319.15 380.3 318.88 378.02 319.52 373.86 319.24 371.25 322.62 369.36 324.11 364.6 324.22 360.75 325.32 359.22 328.48 358.29 330.87 356.75 332.77 353.68 333.06 351.52 334.3 349.28 337.31 346.95 339.15 347.15 341.04 346.13 346.22 346.39 348.33 342.63 349.59 341.31 353.75 342.14 354.97 341.11 354.69 339.46 358.7 336.2 360.74 334.09 362.9 333.42 363.55 329.31 364.32 328.21 368.54 326.81 370.22 324.21 373.54 321.66 379.72 320.16 380.94 318.37 383.69 316.12 384.57 316.51 387 320.92 389.09 322.12 392.76 323.26 394.56 324.45 397.57 324.57 397.78 321.13 396.53 319.78 397.61 316.54 398.46 315.71 398.18 313.06 403.87 309.92 405.69 305.78 407.58 303.11 408.02 299.26 409.91 298.4 411.12 299.02 413.58 298.27 416.72 299.05 417.42 299.89 421.04 298.65 423.07 298.8 427.32 295.8 429.21 295.08 431.23 295.76 435.11 294.53 437.56 295.01 443.91 300.02 446.02 298.9 449.49 298.93 Z" id="34510310"/>
<path d="M 681.25 288.04 683.28 290.65 684.84 293.67 685.72 293.64 688.46 295.8 689.48 297.29 691.42 298.25 695.11 298.89 696.34 302.29 697.62 303.49 700.06 309.06 700.57 311.26 702.26 313.38 701.34 315.81 701.32 318.09 702.29 319.59 701.82 324.58 701.88 328.81 701.2 330.96 701.78 332.48 701.73 337.43 702.89 340.95 700.17 347.29 698.07 350.39 695.14 356.66 693.1 358.9 690.11 359.69 686.09 364.7 686.11 365.52 682.88 371.12 681.67 375.69 681.63 377.64 680.3 380.62 679.32 381.18 678.46 384.08 678.87 385.15 676.62 387.53 676.29 390.82 675.35 392.76 675.9 400.4 677.14 403.87 676.19 406.29 676.75 408.2 676.54 411.18 675.15 412.32 675.11 415.23 673.14 417.19 673.07 419.27 675.15 424.02 677.75 425.29 680.89 432.54 683.74 434.82 683.86 436.55 687.28 438.04 688.55 440.85 688.94 445.22 690.34 446.68 693.61 446.34 696.04 446.91 696.85 448.73 696.91 452.81 697.49 454.31 699.41 455.2 704.9 459.95 707.46 461.36 709.19 463.92 713.27 468.7 714.42 473.01 718.51 472.09 720.83 469.94 720.85 467.91 723.42 467.75 724.43 471.2 726.21 474.97 726.29 476.49 728.27 477.72 729.86 481.18 730.58 484.32 731.67 485.5 732.1 488.13 736.34 489.19 740.15 488.85 743.11 493.02 747.08 496.96 746.85 502.39 743.73 505.68 741.77 509.25 742.14 512.55 742.14 519.98 742.76 523.85 745.22 528.07 743.68 529.8 742.94 533.2 743.86 535.86 740.82 536.1 734.43 535.32 732.13 535.94 728.87 534.88 728.82 537.14 729.74 539.28 729.53 542.27 730.32 542.66 732.3 546.94 732.18 550.35 730.32 552.22 730.54 557.18 729.02 557.7 727.22 555.11 724.62 554.06 720.94 553.44 721.92 555.61 722.22 559.5 720.91 562.7 719.24 561.66 714.82 562.95 707.43 563.48 702.48 563.53 701.05 562.95 694.93 563.2 684.68 563.14 676.01 563.28 673.45 562.97 665.25 563.53 659.74 562.97 651.02 563.28 643.91 563.01 643.99 558.88 641.05 559.7 636.79 559.88 634.2 560.48 629.2 560.39 622.89 562.67 618.44 563.82 618.53 566.02 615.68 566.6 613.11 568.18 610.52 570.51 608.82 569.42 607.48 570.56 606.19 569.22 606.7 564.25 608.5 562.69 609 560.05 607.75 554.91 608.44 552.62 605.72 549.89 604.42 550.57 601.42 549.25 600.21 547.6 597.59 548.84 596.07 551.87 590.68 551.57 587.93 549.77 588.18 547.14 589.25 545.71 588.33 542.25 589.51 540.66 588.56 539.05 585.67 538.11 583.87 535.93 581.61 535.4 580.91 534.17 581.05 531.38 579.69 530.14 575.94 531.22 573.57 530.82 572.47 531.5 569.01 530.66 566.67 533.24 565.11 533.82 561.31 534.02 560.47 535.02 558.38 533.69 556.07 530.56 555.45 523.52 553.31 523.22 550.91 524.39 547.94 520.85 548.17 517.85 547.38 515.32 544.28 513.88 544.56 512.94 541.14 512.41 539.02 514.74 535.37 515.38 535.32 514.24 529.2 518.41 527.24 518.88 520.33 522.06 518.01 523.77 515.21 524.77 505.17 527.3 499.9 528.33 498.74 525.38 494.87 521.07 493.51 520.32 492.7 515.33 490.11 515.83 485.39 515.88 483.62 509.98 482.93 503.11 481.4 502.03 479.59 502.19 477.09 500.63 477.14 499.54 475.15 497.99 474.89 494.98 476.74 489.99 480.74 490.12 484.44 487.7 485.38 487.8 488.04 482.38 490.03 479.86 490.01 476.49 490.55 473.36 490.01 468.54 491.61 462.52 491.59 458.72 493.87 456.36 496.13 452.86 497.04 449.89 496.76 441.94 495.17 436.77 494.74 432.51 495.92 430.16 495.33 427.43 494.45 426.97 493.09 423.94 493.36 419.25 490 414.59 490.88 411.63 492.1 409.93 491.76 406.87 490.26 405.46 490.14 403.25 491.27 401.03 493.47 401.54 493.17 397.64 493.84 396.42 494.41 392.75 495.44 391.04 498.15 393.86 499.78 397.02 502.16 398.19 502.9 396.8 502.21 391.19 502.58 388.55 504.02 386.93 506.47 386.49 511.31 381.74 516.69 381.7 520.21 377.19 522.09 378.17 526.09 377.55 526.32 376.2 530.07 375.27 530.88 373.33 536.12 368.29 539.59 367.83 543.93 368.48 545.24 370.27 546.43 368.36 545.99 364.2 547.31 361.09 545.05 358.5 544.24 354.93 546.42 352.69 548.66 342.69 550.36 340.42 548.97 338.18 550.01 336.36 549.62 333.05 551.32 333.19 554.52 331.92 556.64 330.29 557.09 328.1 560.27 327.38 563.16 321.97 564.65 321.84 565.72 319.06 567.76 316.53 569.1 312.63 571.18 309.11 571.94 304.66 573.17 304.47 573.98 301.57 575.4 298.66 575.36 294.31 576.24 292.21 575.43 289.57 581.24 284.77 582.94 286.42 585.71 287.13 587.59 288.73 592.06 290.04 594.32 292.18 598.75 291.79 603.08 290.16 605.55 289.93 605.85 291.05 608.43 294.82 610.12 296.46 614.36 295.02 617.86 291.3 619.75 291.18 622.38 289.01 625.86 287.2 633.75 285.62 636.77 286.2 641.15 288.12 642.11 285.08 647.09 283.99 648.43 282.77 652.58 283.66 654.37 282.48 659.6 287.06 663.46 285.89 668.11 285.53 671.68 287.3 677.23 287.38 681.25 288.04 Z" id="34510320"/>
<path d="M 743.86 535.86 742.99 538.03 743.46 542.11 742.86 543.77 745.91 549.02 746.24 550.7 747.8 552.54 749.7 551.32 754.28 551.67 757.95 552.5 759.08 555.5 759.3 558.1 760.63 559.83 765.23 561.35 766.41 563.09 769.03 565.04 770.29 568.46 772.96 570.81 774.1 573.36 777.41 576.35 779.97 577.8 781.93 580.84 782.25 582.3 780.13 586.12 783.27 590.25 783.77 591.71 786.32 594.97 785.05 600.7 785.24 604.51 786.52 606.7 789.99 611.25 791.76 612.34 793.22 614.44 795.28 620.9 794.8 625.66 792.75 625.85 789.6 623.14 786.29 624.43 782.17 625.22 775.92 625.58 773.33 626.24 768.91 626.1 759.87 624.06 758.95 624.39 754.35 629.39 751.56 633.48 751.05 645.87 751.76 647.5 749.33 650.38 749.56 653.95 749.17 661.32 747.04 668.81 747.43 672.17 746.79 676.37 747.08 678.15 748.83 680.15 749.71 685.05 749.45 692.08 749.76 694.35 747.5 698.72 746.88 701.57 749.67 705.64 748.45 710.01 752.2 706.88 753.66 704.52 756.1 706.17 760.17 703.64 760.42 701.67 763.36 700.31 766.63 700.13 768.87 699.32 774.68 699.93 776.77 700.72 778.98 704.02 779.85 708.97 779.87 715.29 780.33 718.44 782.23 721.17 784.74 723.3 786.22 723.83 789.47 722.53 791.59 722.94 792.79 724.47 796.12 725.5 799 728.22 798.33 730.69 795.49 732.22 790.16 739.63 792.2 741.21 788.94 741.8 788.03 739.27 782.19 733.29 779.82 731.68 775.86 730.43 772.25 731.67 769.56 733.43 768.68 736.02 769.24 741.45 769.06 744.21 768.07 747.35 764.05 752.28 758.27 754.36 753.55 753.28 747.34 750.38 742.36 750.25 742.36 749.32 736.78 749.6 733.85 749.4 729.44 750.76 727.95 752.39 726.83 755.29 726.78 758.91 728.6 761.7 732.79 762.69 735.23 764.3 737.9 767.3 742.24 771.53 742.92 778.2 744.57 790.01 746.95 799.02 747.97 805.34 746.48 808.96 742.94 814.56 741.29 817.89 741.46 821.09 736.91 827.34 733.41 828.46 728.01 826.66 726.32 818.31 726.04 813.22 718.96 807.06 718.05 805.05 719.69 800.53 720.64 799.48 717.93 793.52 715.42 792.85 714.36 793.56 709.51 792.98 707.97 793.61 701.72 793.52 702.07 790.98 701.35 788.21 698.78 784.95 698.29 782.96 696.08 779.86 696.3 778.63 693.17 774.85 692.24 771.99 689.91 771.37 685.71 769.02 681.68 767.47 679.8 764.25 680.91 761.53 680.08 758.64 679.56 753.29 675.9 750.58 672.5 750.84 668.92 750.3 667.82 750.82 662.51 749.31 657.98 747.08 653.36 751.31 653.19 753.15 650.53 754.15 646.1 757.39 643.53 757.48 638.13 759.19 635.61 755.87 633.88 751.22 630.84 751.04 628.01 748.24 627.85 745.11 625.68 744.52 622.59 740.5 621.19 737.39 617.63 735.11 613.43 734.65 608.07 736.7 606.31 735.13 606.08 733.81 603.88 731.22 601.34 730.24 599.05 728.58 595.53 728.74 590.39 731.61 585.26 730.37 582.54 730.57 580.09 724.34 577.32 722.5 574.79 717.84 572.34 718.14 571.46 714.01 565.52 715.63 563.28 712.24 556.53 713.56 554.6 714.37 553.01 712.7 550.21 712.89 548.19 709.71 546.88 708.53 543.75 709.53 540.51 708.69 536.46 705.88 530.82 706.19 530.85 700.47 529.42 696.4 528.08 694.55 528.32 692.25 526.55 689.89 526.18 687.07 523.3 685.2 523.13 681.84 521.46 676.39 518.73 674 519.26 671.09 518.4 669.5 514.79 668.3 513.14 664.08 513.68 660.37 515.02 657.86 512.82 651.76 507.4 646.58 507.17 644.85 510.09 642.19 510.5 639.86 509.53 632.98 510.9 630.43 512.65 631.05 517.25 630.29 519.95 630.63 523.73 628.79 524.21 626.96 527.6 623.98 529.95 619.84 528.75 618.34 529.16 615.73 530.47 613.75 529.6 611.86 526.29 609.99 525.72 604.04 522.51 599.31 523.73 597.77 523.75 595.58 526.07 593.89 529.04 587.53 528.62 584.35 529.71 583.29 528.92 579.38 522.72 574.21 520.07 574.37 519.06 571.11 519.27 569.31 518.55 566.07 511.92 564.79 507.81 563.47 505.42 562.08 501.61 563.91 500.22 563.53 498.52 565.22 496.56 565.37 494.66 566.78 491 566.1 489.23 564.39 489.85 563.1 489.5 559.82 490.29 556.31 489.88 552.06 491.78 550.99 492.28 546.96 493.9 544.18 494.99 543.47 495.2 536.73 496.31 533.39 495.32 530.4 499.9 528.33 505.17 527.3 515.21 524.77 518.01 523.77 520.33 522.06 527.24 518.88 529.2 518.41 535.32 514.24 535.37 515.38 539.02 514.74 541.14 512.41 544.56 512.94 544.28 513.88 547.38 515.32 548.17 517.85 547.94 520.85 550.91 524.39 553.31 523.22 555.45 523.52 556.07 530.56 558.38 533.69 560.47 535.02 561.31 534.02 565.11 533.82 566.67 533.24 569.01 530.66 572.47 531.5 573.57 530.82 575.94 531.22 579.69 530.14 581.05 531.38 580.91 534.17 581.61 535.4 583.87 535.93 585.67 538.11 588.56 539.05 589.51 540.66 588.33 542.25 589.25 545.71 588.18 547.14 587.93 549.77 590.68 551.57 596.07 551.87 597.59 548.84 600.21 547.6 601.42 549.25 604.42 550.57 605.72 549.89 608.44 552.62 607.75 554.91 609 560.05 608.5 562.69 606.7 564.25 606.19 569.22 607.48 570.56 608.82 569.42 610.52 570.51 613.11 568.18 615.68 566.6 618.53 566.02 618.44 563.82 622.89 562.67 629.2 560.39 634.2 560.48 636.79 559.88 641.05 559.7 643.99 558.88 643.91 563.01 651.02 563.28 659.74 562.97 665.25 563.53 673.45 562.97 676.01 563.28 684.68 563.14 694.93 563.2 701.05 562.95 702.48 563.53 707.43 563.48 714.82 562.95 719.24 561.66 720.91 562.7 722.22 559.5 721.92 555.61 720.94 553.44 724.62 554.06 727.22 555.11 729.02 557.7 730.54 557.18 730.32 552.22 732.18 550.35 732.3 546.94 730.32 542.66 729.53 542.27 729.74 539.28 728.82 537.14 728.87 534.88 732.13 535.94 734.43 535.32 740.82 536.1 743.86 535.86 Z" id="34510330"/>
<path d="M 692.62 265.05 691.94 266.74 689.08 269.66 687.05 270.98 685.81 273.15 684.09 273.34 683.96 274.94 685.14 276.87 685.8 281.15 684.14 283.27 683.53 285.61 681.25 288.04 677.23 287.38 671.68 287.3 668.11 285.53 663.46 285.89 659.6 287.06 654.37 282.48 652.58 283.66 648.43 282.77 647.09 283.99 642.11 285.08 641.15 288.12 636.77 286.2 633.75 285.62 625.86 287.2 622.38 289.01 619.75 291.18 617.86 291.3 614.36 295.02 610.12 296.46 608.43 294.82 605.85 291.05 605.55 289.93 603.08 290.16 598.75 291.79 594.32 292.18 592.06 290.04 587.59 288.73 585.71 287.13 582.94 286.42 581.24 284.77 575.43 289.57 576.24 292.21 575.36 294.31 575.4 298.66 573.98 301.57 573.17 304.47 571.94 304.66 571.18 309.11 569.1 312.63 567.76 316.53 565.72 319.06 564.65 321.84 563.16 321.97 560.27 327.38 557.09 328.1 556.64 330.29 554.52 331.92 551.32 333.19 549.62 333.05 550.01 336.36 548.97 338.18 550.36 340.42 548.66 342.69 546.42 352.69 544.24 354.93 545.05 358.5 547.31 361.09 545.99 364.2 546.43 368.36 545.24 370.27 543.93 368.48 539.59 367.83 536.12 368.29 530.88 373.33 530.07 375.27 526.32 376.2 526.09 377.55 522.09 378.17 520.21 377.19 516.69 381.7 511.31 381.74 506.47 386.49 504.02 386.93 502.58 388.55 502.21 391.19 502.9 396.8 502.16 398.19 499.78 397.02 498.15 393.86 495.44 391.04 494.41 392.75 493.84 396.42 493.17 397.64 493.47 401.54 491.27 401.03 490.14 403.25 490.26 405.46 491.76 406.87 492.1 409.93 490.88 411.63 490 414.59 493.36 419.25 493.09 423.94 494.45 426.97 495.33 427.43 495.92 430.16 494.74 432.51 495.17 436.77 496.76 441.94 497.04 449.89 496.13 452.86 493.87 456.36 491.59 458.72 491.61 462.52 490.01 468.54 490.55 473.36 490.01 476.49 490.03 479.86 488.04 482.38 485.38 487.8 484.44 487.7 480.74 490.12 476.74 489.99 474.89 494.98 475.15 497.99 477.14 499.54 477.09 500.63 473.26 504.51 469.75 504.74 469.36 505.77 469.62 509.88 467.6 510.21 462.92 509.77 461.36 510.53 458.39 509.74 452.46 507.08 452.99 506.18 450.38 504.43 449.75 502.52 450.62 500.81 449.89 499.45 450.72 497.05 447.68 496.44 446.53 494.38 445.4 490.3 443.43 488.35 443.82 485.6 443.18 482.92 444.29 478.94 443.22 474.94 444.57 474.25 445.71 470.7 447.64 471.02 447.52 467.38 446.64 465.66 446.69 462.4 442.59 454.13 440.48 453.08 441.13 448.68 442.36 446.81 441.37 441.66 443.51 433.59 442.49 431.64 441 430.53 443.02 425.76 443.17 423.27 444.42 421.22 443.95 420.28 446 415.74 445.05 411.96 443.26 410.72 439.27 411.29 437.98 408.69 437.8 405.85 434.86 401.99 432.28 399.47 428.11 397.11 426.25 393.54 426.74 392.57 422.86 389.32 421.86 387.3 421.46 383.4 419.81 381.05 419.46 377.56 417.77 374.76 417.94 373.18 415.88 369.81 417.49 367.23 421.26 366.47 425.66 367.09 427.67 366.84 430.42 364.61 434.25 365.86 437.58 364.93 438.94 363.44 440.06 360.34 439.77 357.63 442.57 356.07 447.15 351.74 448.15 351.27 451.56 354 455.73 353.64 456.35 351.93 458.14 351.29 460.45 348.95 460.34 345.8 459.62 341.24 460.47 340.55 459.25 337.73 459.7 334.23 457.89 332.15 458.15 329.27 459.57 327.31 461.92 325.4 463.26 322.19 465.36 318.75 462.62 316.89 461.75 314.73 459.16 312.35 457.23 311.92 456.59 309.3 454.36 308.37 451.03 304.47 450.99 299.78 449.49 298.93 449.4 290.38 450.85 283.83 453.83 282.81 455.97 276.39 461.35 276.69 461.61 273.91 464.34 272.79 466.36 273.38 469.15 268.87 471.51 268.93 473.78 267.23 474.67 263.14 476.87 260.76 477.12 258.71 476.36 253.79 474.78 250.59 474.81 247.56 477.21 243.25 479.25 242.09 481.79 239.51 482.45 238.12 485.51 235.4 485.67 231.08 485.06 226.9 487.69 226.52 488.52 222.19 494.68 220.99 496.05 219.32 500.4 218.49 500.87 217.69 503.94 219.23 505.61 219.47 509.45 217.45 513.02 218.36 516.69 215.92 518.45 211.26 519.62 209.14 522.82 205.03 524.1 201.65 525.76 192.73 527.7 193.39 529.15 192.52 532.77 193.49 534.89 190.32 537.44 189.85 541.21 179.97 541.69 176.21 539.59 169.19 540.87 167.02 543.47 165.12 544.67 160.95 544.72 155.66 551.93 150.11 555.23 148.62 557.81 144.94 561.01 143.22 562.18 141.63 564.93 142.36 571.25 141.81 576.09 140.46 580.73 140.46 584.55 139.44 587.79 137.7 588.64 136.47 594.13 135.26 598.99 131.47 602.34 130.84 604.17 131.94 605.07 133.92 607.37 134.79 611.18 131.48 612.53 129.33 615.68 121.59 620.75 119.64 623.78 116.81 630.18 118.29 635.18 121.39 640.09 119.77 641.19 119.96 646.76 118.88 648.44 121.76 652.06 123.19 653.91 122.4 656.78 123.4 659.82 126.59 662.75 133.45 663.59 134.73 663.76 140.62 664.28 142.41 665.65 143.01 667.15 141.8 669.64 141.05 674.04 141.64 673.59 144.38 674.46 149.96 675.59 152.75 678.91 153.74 679.72 158.33 684.38 159.34 688.7 162.62 692.79 166.6 691.97 169.27 693 173.51 691.13 179.17 688.65 182.54 690.34 183.48 691.54 185.65 694.83 187.57 695.23 189.52 693.97 192.83 695.06 195.71 696.03 196.59 696.67 199.24 696.76 204.87 695.48 208.59 696.18 210.74 693.65 211.56 693.4 213.58 691.41 218.02 689.13 220.49 686.48 222.05 683.86 227.52 683.69 228.55 680.75 231.23 679.44 233.77 682.3 236.05 680.62 240.5 680.76 242.65 681.9 244.23 684.71 246.34 684.69 248.22 686.27 249.88 686.77 252.2 688.54 254.07 690.88 258.98 692.05 264.57 692.62 265.05 Z" id="34510340"/>
<path d="M 530.82 706.19 529.36 712.02 530.42 712.63 530.62 715.55 532.16 717.9 532.77 722.77 532.37 725.36 534.75 726.44 540.64 727.16 544.01 730.3 546.3 731.64 544.99 733.54 544.61 737.25 546.15 741.97 545.67 745.26 545.88 748.3 549.02 749.92 549.49 751.82 547.74 758.65 546.19 759.3 544.93 761.37 542.78 766.56 542.86 770 545.6 773.8 547.32 774.26 546.95 779.94 546.33 780.45 546.86 784.67 547.78 786.76 549.91 788.54 550.09 790.03 551.86 792.95 552.28 795.09 551.6 796.87 549.39 798.66 547.1 798.13 544.08 798.61 540.28 801.63 537.63 802.03 535.42 801.54 533.07 806.65 533.2 808.01 536.56 812.82 536.98 814.73 538.38 815.81 538.3 819.08 540.7 823.88 541.79 825.32 543.15 829.39 542.52 831.08 543.62 834.06 543.08 836.52 544.41 839.98 544.56 841.78 542.97 842.89 542.63 846.52 540.23 847.06 538.09 850.32 537.15 855.4 534.09 856.34 533.64 857.93 529.55 860.03 526.41 860.4 525.05 861.19 524.27 864.14 522.17 865.84 519.86 868.82 518.03 869.5 517.45 871.26 514.38 876.71 512.33 875.32 508.46 877.59 506.86 877.42 505.14 878.47 503.24 880.79 502.81 882.44 497.98 882.37 495.6 883.05 490.73 882.31 487 882.52 485.58 884.39 483.35 884.2 481.91 885.64 478.48 885.88 477.75 886.77 477.51 890.95 475.88 893.1 470.48 893.63 469.31 891.52 468.07 891.26 465.97 888.4 465.87 885.18 460.08 881.69 459.23 878.64 459.48 874.8 458.77 873.59 456.65 873.28 452.04 870 448.04 871.87 439.82 873.71 437.72 877.23 437.06 879.41 435.61 881.54 432.73 881.57 429.75 885.6 427.19 894.59 424.44 897.61 423.35 898 416.98 892.97 412.22 893.88 409.82 891.47 406.44 890.66 405.22 891.52 402.72 890.42 399.27 891.41 395.64 889.82 394.48 891.1 393.32 888.68 390.62 888.26 386.48 883.49 384.62 882.34 383.43 880.25 383.48 877.8 379.77 873.92 377.51 872.69 375.12 868.22 375.9 865.81 378.08 865.54 380.22 863.61 380.55 861.97 383.39 859.65 385.96 856.69 386.33 855.04 388.38 853.24 389.55 851.15 388.51 846.19 389.47 841.86 392.11 840.67 395.78 839.96 397.66 838.56 400.59 832.21 402.06 830.32 399.52 826.06 400.73 823.01 400.4 819.16 405.79 813.73 408.13 813.2 410.61 810.75 410.78 804.66 410.46 803.57 406.53 801.92 404.14 799.38 403.34 797.55 405.59 793.49 406.09 791.72 404.23 788.09 403.53 784.7 402.05 781.28 401.55 775.76 397.89 772.65 397.9 766.64 399.89 764.43 400.72 760.75 402.39 758.1 403.26 753.7 401.15 750.3 400.11 746.47 401.07 744.18 410.99 740.83 413.62 739.13 411.45 731.89 411.16 729.6 413.45 725.67 412.69 724.72 414.83 719.66 413.9 716.46 414.5 714.75 417.78 713.32 421.54 713.3 423.12 711.37 426.61 712.38 427.91 709.44 431.32 709.54 432.16 711.05 437.16 708.54 439.06 706.39 441.25 707.46 446.3 704.63 445.6 703.62 444.27 699.01 445.31 695.91 443.45 693.12 442.54 690.75 441.32 685.23 441.51 682.24 439.79 676.56 437.79 674.14 434.64 672.78 433.63 671.51 436.88 669.51 436.15 666.78 437 665.45 438.78 665.13 440.2 662.97 441.73 663.73 447.29 662.8 447.57 661.17 448.66 657.43 447.57 653.51 447.77 651.23 450.32 648 448.89 644.68 447.19 642.14 448.81 639.51 446.45 635.05 444.9 631.39 446.33 629.44 446.58 626.8 443.29 622.94 444.02 621.85 442.76 619.66 443.25 617.21 440.94 614.74 440.53 613.09 437.3 608.65 438.86 603.82 438.72 601.2 436.64 599.99 434.16 599.97 433.17 597.96 428.87 598.97 428.5 597.85 428.58 595.71 430.19 590.61 429.72 589.33 431.08 585.9 433.03 583.58 433.08 582.46 434.81 579.72 434.84 577.78 436.61 576.37 437.62 574.04 437.9 571.59 439.79 570.4 443.36 571.28 443 569.1 443.59 567.36 446.23 565.1 449.29 563.86 453.77 564.58 456.26 565.92 458.84 569.03 461.3 569.42 461.56 570.63 466.09 572.84 467.37 572.24 467.36 569.57 464.8 564.02 466.15 559.13 466.15 556.88 468.43 553.2 468.39 547.57 471.01 547.64 476.35 546.67 479.98 541.82 484.66 536.11 489.67 535.12 495.32 530.4 496.31 533.39 495.2 536.73 494.99 543.47 493.9 544.18 492.28 546.96 491.78 550.99 489.88 552.06 490.29 556.31 489.5 559.82 489.85 563.1 489.23 564.39 491 566.1 494.66 566.78 496.56 565.37 498.52 565.22 500.22 563.53 501.61 563.91 505.42 562.08 507.81 563.47 511.92 564.79 518.55 566.07 519.27 569.31 519.06 571.11 520.07 574.37 522.72 574.21 528.92 579.38 529.71 583.29 528.62 584.35 529.04 587.53 526.07 593.89 523.75 595.58 523.73 597.77 522.51 599.31 525.72 604.04 526.29 609.99 529.6 611.86 530.47 613.75 529.16 615.73 528.75 618.34 529.95 619.84 527.6 623.98 524.21 626.96 523.73 628.79 519.95 630.63 517.25 630.29 512.65 631.05 510.9 630.43 509.53 632.98 510.5 639.86 510.09 642.19 507.17 644.85 507.4 646.58 512.82 651.76 515.02 657.86 513.68 660.37 513.14 664.08 514.79 668.3 518.4 669.5 519.26 671.09 518.73 674 521.46 676.39 523.13 681.84 523.3 685.2 526.18 687.07 526.55 689.89 528.32 692.25 528.08 694.55 529.42 696.4 530.85 700.47 530.82 706.19 Z" id="34510350"/>
<path d="M 375.12 868.22 373.12 869.05 369.86 868.25 368.23 870.12 367.09 873.93 366.17 875.36 366.48 877.73 364.15 880.94 358.59 881.81 355.68 880.04 353.19 879.85 349.26 882.46 346.33 883.06 345.81 881.6 344.03 881.41 343.66 879.55 341.49 877.63 341.79 873.47 341.43 870.92 339.64 869.99 339.13 868.66 335.74 867.07 334.21 865.52 332.92 860.86 331.13 859.06 330.94 857.58 328.77 856.18 327.82 854.33 325.97 852.97 327.1 848.82 327 846.06 323.66 840.1 324.68 835.34 322.67 831.77 319.55 827.55 319.5 824.86 315.71 822.56 314.77 821.2 315.05 816.86 315.66 815.95 315.87 812.63 316.81 811.85 314.2 807.9 313.31 807.46 306.12 807.63 303.25 806.4 300.42 804.04 299.02 804.8 297.53 803.65 296.62 799.79 298.15 795.66 296.48 794.4 295.35 791.48 292.81 790.73 292.36 787.49 293.43 782.15 296 775.11 297.01 773.21 297.51 769.07 296.14 761.87 294.43 761.31 292.99 759.77 290.01 757.81 290.39 754.27 291.56 752.74 291.01 747.11 291.59 744.61 290.59 742.06 285.07 745.7 277.75 747.54 273.3 749.74 269.22 752.48 262.09 760.72 259.31 761.24 253.53 762.98 246.7 772.21 244.57 777.85 242.17 782.01 238.28 786.11 235.43 786.95 227.93 790.52 225.5 789.06 223.19 789.03 219.5 792.15 212.81 802.4 211.44 802.64 208.12 805.86 204.49 801.69 198.89 801.27 197.13 799.96 196.45 798.28 194.91 797.46 190.28 791.73 188.33 786.56 188.36 783.96 184.74 780.62 179.28 783.14 174.97 776.18 172.57 775.55 171.56 773.7 168.58 773.75 165.72 771.28 164.88 767.72 163.77 767.33 159.27 767.46 154.09 765.96 149.39 763.2 146.54 762.74 146.06 760.23 146.75 755.33 147.32 744.65 150.77 739.21 148.53 737.83 146.83 735.97 143.95 731.03 141.69 728.77 139.09 727.33 139.04 721.4 137.08 716.22 139.84 712.22 139.26 707.26 136.59 707.3 136.7 704 135.31 699.22 131.54 693.38 129.75 693.66 126.92 690.69 122.13 686.93 120.9 685.04 121.58 682.54 119.43 677.71 117.98 675.74 116.5 675.61 113.2 673.27 111.87 671.7 107.32 669.06 106.18 666.34 105.41 660.53 106.71 656.49 109.21 651.23 106.57 644.98 109.71 638.07 115.64 632.94 115.15 628.42 115.11 624.35 110.06 623.54 108.09 623.79 105.21 623.17 103.74 621.34 102.95 616.82 103.2 614.82 104.99 611.83 107.03 610.75 107.86 608.08 107.53 604.2 109.3 600.16 106.3 592.08 104.98 590.28 105.27 588.97 103.22 586.45 100.6 584.16 97.38 583.77 97.64 579.77 98.52 576.33 98.04 573.92 98.09 567.44 102.24 564.83 104.89 562.67 105 559.8 107.54 561.42 108.67 558.38 110.23 556.72 112.33 561.75 115.08 565.59 120.75 569.98 123.77 571.02 126.44 573.5 128.15 569.66 133.78 561.29 135.14 558.29 137.49 559.05 140.54 560.98 143.08 561.47 146.02 559.46 146.59 557.34 152.18 555.8 155.91 556.6 159.47 555.41 163.96 555.79 166.87 554.27 169.09 555.67 172.14 554.47 178.74 558.41 186.17 559.79 191.75 558.54 195.28 556.59 198.22 556.04 202.51 554.23 203.81 554.98 207.47 554.75 209.53 550.36 212.19 547.9 214.44 537.29 222.48 532.34 228.94 531.41 228.67 528.31 230.19 526.56 233.99 524.39 239.06 520.88 240.35 522.47 242.58 522.85 244.44 524.76 251.5 527.47 252.8 530.56 256.91 534.68 260.21 534.18 264.77 532.55 269.72 532.8 274.98 538.74 277.27 540.27 277.16 542.01 278.36 543.01 280.94 547.54 284.63 549.83 286.05 554.26 286.13 556.63 288.27 560.42 288.97 562.8 288.67 566.6 289.8 568.98 293.42 571.44 294.21 575.11 296.86 575.9 301.5 580.37 303.48 583.75 308.85 584.3 313.07 580.13 317.01 581.61 320.02 582.1 327.51 581.1 330.29 579.42 332.24 580.4 332.88 582.66 335.27 583.17 340.8 585.84 342.74 587.22 344.92 590.99 347.07 591.71 348.32 593.73 353.68 592.18 355.4 591.31 364.54 591.07 365.71 590.02 370.86 588.19 374.86 588.24 377.55 587.34 380.54 589.58 382.94 589.35 384.28 590.61 386.84 590.18 387.59 586.87 388.61 584.93 389.77 584.74 391.54 582.5 396.86 582.71 397.33 583.92 400.41 586.73 401.12 588.93 404.32 586.11 405 584.31 406.98 582.6 409.31 582.46 411.24 584.72 413.59 584.16 417.75 586.31 420.46 583.67 421.94 584.71 421.2 587.27 422.69 590.89 422.77 595.77 427.08 598.38 428.5 597.85 428.87 598.97 433.17 597.96 434.16 599.97 436.64 599.99 438.72 601.2 438.86 603.82 437.3 608.65 440.53 613.09 440.94 614.74 443.25 617.21 442.76 619.66 444.02 621.85 443.29 622.94 446.58 626.8 446.33 629.44 444.9 631.39 446.45 635.05 448.81 639.51 447.19 642.14 448.89 644.68 450.32 648 447.77 651.23 447.57 653.51 448.66 657.43 447.57 661.17 447.29 662.8 441.73 663.73 440.2 662.97 438.78 665.13 437 665.45 436.15 666.78 436.88 669.51 433.63 671.51 434.64 672.78 437.79 674.14 439.79 676.56 441.51 682.24 441.32 685.23 442.54 690.75 443.45 693.12 445.31 695.91 444.27 699.01 445.6 703.62 446.3 704.63 441.25 707.46 439.06 706.39 437.16 708.54 432.16 711.05 431.32 709.54 427.91 709.44 426.61 712.38 423.12 711.37 421.54 713.3 417.78 713.32 414.5 714.75 413.9 716.46 414.83 719.66 412.69 724.72 413.45 725.67 411.16 729.6 411.45 731.89 413.62 739.13 410.99 740.83 401.07 744.18 400.11 746.47 401.15 750.3 403.26 753.7 402.39 758.1 400.72 760.75 399.89 764.43 397.9 766.64 397.89 772.65 401.55 775.76 402.05 781.28 403.53 784.7 404.23 788.09 406.09 791.72 405.59 793.49 403.34 797.55 404.14 799.38 406.53 801.92 410.46 803.57 410.78 804.66 410.61 810.75 408.13 813.2 405.79 813.73 400.4 819.16 400.73 823.01 399.52 826.06 402.06 830.32 400.59 832.21 397.66 838.56 395.78 839.96 392.11 840.67 389.47 841.86 388.51 846.19 389.55 851.15 388.38 853.24 386.33 855.04 385.96 856.69 383.39 859.65 380.55 861.97 380.22 863.61 378.08 865.54 375.9 865.81 375.12 868.22 Z" id="34510360"/>
<path d="M 294.32 344.61 299.16 345.51 300.18 347.26 301.63 347.51 302.69 345.15 304.7 344.72 306.17 345.55 308.78 344.05 314.84 343.61 316.18 341.94 319.68 341.23 322.74 344.4 327.83 345.69 328.87 346.92 330.87 347.29 334.3 349.28 333.06 351.52 332.77 353.68 330.87 356.75 328.48 358.29 325.32 359.22 324.22 360.75 324.11 364.6 322.62 369.36 319.24 371.25 319.52 373.86 318.88 378.02 319.15 380.3 320.42 383.13 319.33 385.54 315.65 386.23 316.01 388.77 314.06 390.73 311.17 391.23 309.07 393.81 306.19 395.76 303.63 398.22 301.94 397.76 300.97 400.29 300.55 403.9 298.25 407.07 294.06 410.34 292.03 412.87 288.65 414.3 287.32 415.69 289.01 419.25 288.33 421.64 289.28 426.94 288.47 428.28 285.85 428.51 283.97 427.92 282.35 428.53 278.65 425.04 275.25 425.45 272.02 424.83 269.79 423.17 267.82 423.44 266.74 422.54 264.58 422.65 263.44 421.33 258.71 422.86 258.59 424.48 257.1 426.64 255.57 427.37 259.92 434.29 258.78 442.2 257.04 444.03 257.53 446.54 260.83 450.61 259.9 452.52 260.34 458.19 264.11 457.99 265.15 460.83 265.35 463.35 264.41 464.75 266.73 466.72 269.86 470.37 272.69 476.27 272.7 478.57 274.03 480.99 272.87 485 274.44 490.4 273.93 494.25 276.49 500 276.57 501.57 278.17 503.02 278.79 506.7 278.67 509 278.33 513.88 277.76 516.51 279.5 519.41 276.4 524.81 274.57 525.79 273.71 527.79 271.04 530.67 269.72 532.8 264.77 532.55 260.21 534.18 256.91 534.68 252.8 530.56 251.5 527.47 244.44 524.76 242.58 522.85 240.35 522.47 239.06 520.88 233.99 524.39 230.19 526.56 228.67 528.31 228.94 531.41 222.48 532.34 214.44 537.29 212.19 547.9 209.53 550.36 207.47 554.75 203.81 554.98 202.51 554.23 198.22 556.04 195.28 556.59 191.75 558.54 186.17 559.79 178.74 558.41 172.14 554.47 169.09 555.67 166.87 554.27 163.96 555.79 159.47 555.41 155.91 556.6 152.18 555.8 146.59 557.34 146.02 559.46 143.08 561.47 140.54 560.98 137.49 559.05 135.14 558.29 133.78 561.29 128.15 569.66 126.44 573.5 123.77 571.02 120.75 569.98 115.08 565.59 112.33 561.75 110.23 556.72 108.67 558.38 107.54 561.42 105 559.8 103.13 558.59 101.08 555.3 98.27 553.6 95.57 550.97 92.29 549.85 90.33 550.39 87.88 546.43 86.17 545.57 83.28 546.15 82.6 544.85 80.47 543.94 78.77 541.86 77.02 537.54 74.22 532.74 76.51 530.31 77.21 527.89 78.55 526.66 79.21 521.79 80.52 520.19 81.03 515.37 80.7 512.75 81.99 511.73 86.37 511.05 89.42 508.29 92.05 501.92 90.64 498.84 90.63 497.45 88.48 494.38 88.37 486.45 85.55 484.77 81.02 477.33 75.41 476.95 70.79 472.85 69.61 473.4 65.88 472.9 63.95 469.81 63.51 465.33 61.45 463.3 60.07 459.67 59.87 457.2 56.72 453.31 57.05 450.93 56.04 449.12 54.58 443.52 55.32 442.27 55.06 438.97 51.04 434.34 47.87 434.43 43.09 437.37 41.18 437.39 37.75 436.35 33.26 437.35 30.98 437.15 27.32 434.08 22.24 433.39 16.92 434.33 13.09 436.24 12.19 434.06 11.03 431.11 12.1 425.04 13.06 423.91 12.84 417.72 12.34 413.69 10.91 412.01 9.76 409.24 10.78 408.04 10.04 406.28 11.16 403.84 10.82 400.63 11.31 397.44 12.67 394.67 12.18 391.7 12.94 387.53 10.29 377.45 7.63 372 6.28 368.36 1.77 364.28 1 362.48 1.84 360.07 4.58 355.76 4.64 348.2 3.26 343.69 1.74 342.18 2.56 340.47 1.09 337.92 2.91 336.06 3.17 334.02 2.61 331.34 7.7 330.1 6.76 326.09 8.72 323.4 9.23 317.86 8.38 316.04 7.06 315.48 5.46 312.06 6.06 309.99 11.67 306.69 13.57 306.31 16.12 304.63 17.63 302.44 20.33 300 22.59 296.16 20.44 293.68 21.29 291.55 25.58 288.93 26.67 286.3 27.04 282.46 27.93 279.68 28.09 276.12 29.55 274.7 31 272.06 33.68 270.72 36.13 272.35 39.47 273.62 43.13 272.78 45.17 268.3 48.24 265.9 49.13 263.7 49.08 259.94 49.6 255.29 52.13 254.8 56.01 255.81 57.08 254.02 58.47 244.8 59.46 242.02 61.33 239.85 63.69 238.28 64.07 232.08 67.38 231.65 72.89 229.29 73.05 222.98 72.43 221.47 73.11 218.79 72.6 215.93 71.05 215.1 70.51 211.92 71.04 209.25 73.39 205.03 75.22 202.72 77.63 197.28 79.42 195.3 83.1 192.81 83.43 191.06 85.73 189.29 86.06 185.62 90.63 182.87 92.46 182.39 94.33 184.12 96.51 183.53 96.68 181.47 100.17 179.5 102.05 179.18 103.43 179.1 103.79 181.65 103.19 183.27 103.03 186.92 106.86 188.72 109.57 190.56 111.31 192.79 114.49 193.98 116.22 197.77 118.26 197.35 121.71 194.33 123.67 194.83 127.33 192.37 130.56 191.32 135.2 191.87 138.33 191.01 137.82 197.01 136.04 196.95 133.87 199.43 132.82 202.19 132.94 204.93 134.32 206.01 137.61 206.06 144.62 212.16 143.6 213.55 144.13 215.11 140.55 214.43 138.4 214.68 138.2 217.34 135.81 219.35 133.19 223.53 130.5 225.37 131.87 230.7 131 234.98 129.22 238.81 131.76 241.55 132.6 245.64 133.21 246.49 131.02 249.58 128.01 251.14 126.76 252.87 122.69 252.97 121.65 255.68 119.82 257.37 117.93 257.35 114.29 255.89 113.3 256.87 113.05 259.23 111.39 261.32 112.52 263.86 116.36 268.73 119.47 273.67 121.04 279.02 118.61 284.25 119.93 286.65 121.76 291.28 121.8 292.48 123.71 296.46 126.33 296.61 130.46 299.19 132.37 301.91 134.5 303.12 134.08 307.64 135.72 312.73 135.45 314.54 133.22 316.11 131.98 319.11 129.09 320.81 129.71 322.87 130.21 328.98 131.53 332.07 133.2 333.46 135.2 337.5 136.52 338.76 137.8 338.04 139.69 335.34 140.57 332.81 142.73 332 146.13 332.2 151.12 331.3 152.88 330.49 157.13 334.92 158.44 335.06 162.1 337.84 165.68 336.23 167.57 336.34 170.01 338.67 168.14 340.05 167.99 342.37 170.3 343.28 174.63 344.2 175.93 347.75 180.52 345.85 184.14 347.33 186.45 345.15 188.01 345.1 190.45 340.42 191.77 339.8 194.2 340.43 196.13 349.38 195.39 357.11 193.23 361.38 191.23 366.89 187.88 374.26 186.1 377.52 187.56 378.15 194.87 373.98 197.18 373.47 200.85 373.41 203.15 374.63 205.36 373.88 211.16 369.4 210.81 365.35 212.48 361.21 216.78 357.25 217.93 357.14 224.55 359.34 226.6 359.36 229.05 360.71 229.67 362.09 233.29 364.6 236.56 365.27 241.18 365.21 242.74 366.32 245.7 366.57 250.25 366.26 257.03 366.34 262.88 364.86 265.46 365.65 267.2 369.77 270.63 366.75 274.69 367.21 278.74 362.14 281.13 362.06 283.67 357.81 286.63 354.73 289.11 354.24 291.27 351.78 294.08 350.73 294.32 344.61 Z" id="34510370"/>
<path d="M 257.89 196.48 258.88 198.83 261.19 202.31 264.61 202.63 265.93 203.34 268.14 202.95 271.73 205.4 275.35 205.13 277.93 208.12 279.2 208.42 279.87 214.53 282.59 217.32 284.19 220.66 285.74 225.35 288.49 225.91 290.05 225.21 292.16 225.99 293.69 225.49 295.03 227.85 297.33 229.66 300.33 229.18 303.66 231.31 304.54 236.85 309.03 236.87 308.23 238.69 307.97 241.79 310.35 249.51 309.77 251.38 314.8 253.95 317.48 257.15 322.6 260.11 320.97 265.82 322.04 270.16 323.77 270.98 324.38 272.46 322.84 275.32 323.87 277.32 326.45 277.41 328.59 278.17 330.76 276.81 334.59 279.19 335.4 281.53 337.13 283.24 336.36 286.63 338.34 289.58 337.44 293.22 333.7 296.76 333.24 300.68 330.61 301.9 328.99 303.89 328.57 306.36 327.53 307.32 326.06 310.59 324.21 310.78 321.13 307.36 316.93 307.21 311.09 304.63 307.47 305.4 305.46 302.84 305.41 301.32 303.69 301.01 301.81 303.39 302 307.93 300.37 308.29 298.14 311.9 295.16 313.33 292.52 312.96 291.58 314.33 286.92 314.76 285.26 317.58 282.98 317.37 278.43 318.84 276.68 322.08 277.26 325.88 279.15 332.53 281.91 333.55 285.71 336.62 288.25 341.45 291.61 341.3 294.32 344.61 294.08 350.73 291.27 351.78 289.11 354.24 286.63 354.73 283.67 357.81 281.13 362.06 278.74 362.14 274.69 367.21 270.63 366.75 267.2 369.77 265.46 365.65 262.88 364.86 257.03 366.34 250.25 366.26 245.7 366.57 242.74 366.32 241.18 365.21 236.56 365.27 233.29 364.6 229.67 362.09 229.05 360.71 226.6 359.36 224.55 359.34 217.93 357.14 216.78 357.25 212.48 361.21 210.81 365.35 211.16 369.4 205.36 373.88 203.15 374.63 200.85 373.41 197.18 373.47 194.87 373.98 187.56 378.15 186.1 377.52 187.88 374.26 191.23 366.89 193.23 361.38 195.39 357.11 196.13 349.38 194.2 340.43 191.77 339.8 190.45 340.42 188.01 345.1 186.45 345.15 184.14 347.33 180.52 345.85 175.93 347.75 174.63 344.2 170.3 343.28 167.99 342.37 168.14 340.05 170.01 338.67 167.57 336.34 165.68 336.23 162.1 337.84 158.44 335.06 157.13 334.92 152.88 330.49 151.12 331.3 146.13 332.2 142.73 332 140.57 332.81 139.69 335.34 137.8 338.04 136.52 338.76 135.2 337.5 133.2 333.46 131.53 332.07 130.21 328.98 129.71 322.87 129.09 320.81 131.98 319.11 133.22 316.11 135.45 314.54 135.72 312.73 134.08 307.64 134.5 303.12 132.37 301.91 130.46 299.19 126.33 296.61 123.71 296.46 121.8 292.48 121.76 291.28 119.93 286.65 118.61 284.25 121.04 279.02 119.47 273.67 116.36 268.73 112.52 263.86 111.39 261.32 113.05 259.23 113.3 256.87 114.29 255.89 117.93 257.35 119.82 257.37 121.65 255.68 122.69 252.97 126.76 252.87 128.01 251.14 131.02 249.58 133.21 246.49 132.6 245.64 131.76 241.55 129.22 238.81 131 234.98 131.87 230.7 130.5 225.37 133.19 223.53 135.81 219.35 138.2 217.34 138.4 214.68 140.55 214.43 144.13 215.11 143.6 213.55 144.62 212.16 137.61 206.06 134.32 206.01 132.94 204.93 132.82 202.19 133.87 199.43 136.04 196.95 137.82 197.01 138.33 191.01 135.2 191.87 130.56 191.32 127.33 192.37 123.67 194.83 121.71 194.33 118.26 197.35 116.22 197.77 114.49 193.98 111.31 192.79 109.57 190.56 106.86 188.72 103.03 186.92 103.19 183.27 103.79 181.65 103.43 179.1 102.05 179.18 102.95 170.85 104.38 166.1 105.98 165.13 112.01 164.7 113.79 163.94 114.66 160.5 113.38 155.3 112.13 151.72 110.74 149.49 104.2 143.85 103.58 140.2 106.09 137.51 107.32 137.21 108.97 135.11 108.17 132.93 108.26 129.3 110.14 124.64 111.66 122.99 109.26 119.47 108.9 118.13 106.45 116.29 106.04 114.49 108.28 112.81 108.6 110.56 110.26 108.45 109.68 106.98 111 103.74 112.1 103.47 110.44 98.42 113.54 96.95 112.58 94.67 113.19 91.68 115.83 88.34 114.11 84.81 114.18 80.19 113.58 78.84 114.24 76.98 113.41 72.66 113.47 69.26 112.03 66.17 113.31 64.13 111.16 62.87 110.54 61.55 108.12 61.16 105.07 57.28 103.05 57.29 102.33 53.92 103.87 53.12 103.98 50.91 105 49.77 104.33 48.3 105.04 46.14 104.78 43.16 103.57 42.17 102.9 38.65 103.83 37.8 104.07 35.52 103.4 31.61 101.66 30.48 103.8 26.01 104.56 25.85 106.47 22.12 107.44 21.43 107.36 16.89 110.17 14.1 110.81 11.89 110.05 10.49 111.9 8.42 112.87 9.61 116.09 10.02 118.21 11.21 120.09 11.38 121.79 9.94 124.25 10.13 130.61 8.03 131.92 6.96 132.63 2 133.62 1.04 135.64 1 137.94 1.88 140.19 1.67 144.75 3.6 146.42 3.1 151.69 7.37 152.66 8.7 154.47 9.1 154.25 11.61 159.41 11.59 163.22 17.78 175.17 29.34 176.59 29.58 177.78 31.14 178.27 35.15 177.07 40.08 175.38 40.52 174.19 44.34 175.18 48.05 173.87 53.44 172.84 55.75 171.26 56.49 169.55 58.81 168.74 61.02 169.35 62.49 168.4 66.63 169.38 67.6 170.82 71.59 170.07 72.71 172.87 79.77 172.12 81.23 173.66 84.12 176.41 87.12 177.82 87.79 179.51 90.76 177.28 93.78 179.01 97.33 178.34 100.66 176.43 102.18 175.03 104.94 170.66 107.53 171.09 111.03 170.17 114.03 170.91 117.11 175.45 118.15 176.98 119.45 181.23 118.55 182.47 119.6 184.83 119.6 187.72 121.99 192.41 121.87 193.9 123.22 195.9 122.79 197.02 121.23 200.48 121.91 204.51 120.87 204.11 123.73 204.93 126.68 204.54 129.29 207.68 138.85 208.49 142.22 212.11 148 213.63 151.23 213.71 152.75 216.56 155.33 221.02 155.87 223.15 158.31 223.97 160.68 226.37 163.16 227.22 165.92 228.77 167.6 228.81 169.87 227.25 172.61 224.44 176.1 224.12 178.75 222.32 181.87 225.11 183.29 227.29 185.53 232.48 186.39 235.38 189.14 238.35 190.71 239.4 192.55 241.25 194.1 245.11 195.4 251.02 199.37 252.82 196.85 257.89 196.48 Z" id="34510380"/>
<path d="M 562.18 141.63 561.01 143.22 557.81 144.94 555.23 148.62 551.93 150.11 544.72 155.66 544.67 160.95 543.47 165.12 540.87 167.02 539.59 169.19 541.69 176.21 541.21 179.97 537.44 189.85 534.89 190.32 532.77 193.49 529.15 192.52 527.7 193.39 525.76 192.73 524.1 201.65 522.82 205.03 519.62 209.14 518.45 211.26 516.69 215.92 513.02 218.36 509.45 217.45 505.61 219.47 503.94 219.23 500.87 217.69 500.4 218.49 496.05 219.32 494.68 220.99 488.52 222.19 487.69 226.52 485.06 226.9 485.67 231.08 485.51 235.4 482.45 238.12 481.79 239.51 479.25 242.09 477.21 243.25 474.81 247.56 474.78 250.59 476.36 253.79 477.12 258.71 476.87 260.76 474.67 263.14 473.78 267.23 471.51 268.93 469.15 268.87 466.36 273.38 464.34 272.79 461.61 273.91 461.35 276.69 455.97 276.39 453.83 282.81 450.85 283.83 449.4 290.38 449.49 298.93 446.02 298.9 443.91 300.02 437.56 295.01 435.11 294.53 431.23 295.76 429.21 295.08 427.32 295.8 423.07 298.8 421.04 298.65 417.42 299.89 416.72 299.05 413.58 298.27 411.12 299.02 409.91 298.4 408.02 299.26 407.58 303.11 405.69 305.78 403.87 309.92 398.18 313.06 398.46 315.71 397.61 316.54 396.53 319.78 397.78 321.13 397.57 324.57 394.56 324.45 392.76 323.26 389.09 322.12 387 320.92 384.57 316.51 383.69 316.12 380.94 318.37 379.72 320.16 373.54 321.66 370.22 324.21 368.54 326.81 364.32 328.21 363.55 329.31 362.9 333.42 360.74 334.09 358.7 336.2 354.69 339.46 354.97 341.11 353.75 342.14 349.59 341.31 348.33 342.63 346.22 346.39 341.04 346.13 339.15 347.15 337.31 346.95 334.3 349.28 330.87 347.29 328.87 346.92 327.83 345.69 322.74 344.4 319.68 341.23 316.18 341.94 314.84 343.61 308.78 344.05 306.17 345.55 304.7 344.72 302.69 345.15 301.63 347.51 300.18 347.26 299.16 345.51 294.32 344.61 291.61 341.3 288.25 341.45 285.71 336.62 281.91 333.55 279.15 332.53 277.26 325.88 276.68 322.08 278.43 318.84 282.98 317.37 285.26 317.58 286.92 314.76 291.58 314.33 292.52 312.96 295.16 313.33 298.14 311.9 300.37 308.29 302 307.93 301.81 303.39 303.69 301.01 305.41 301.32 305.46 302.84 307.47 305.4 311.09 304.63 316.93 307.21 321.13 307.36 324.21 310.78 326.06 310.59 327.53 307.32 328.57 306.36 328.99 303.89 330.61 301.9 333.24 300.68 333.7 296.76 337.44 293.22 338.34 289.58 336.36 286.63 337.13 283.24 335.4 281.53 334.59 279.19 330.76 276.81 328.59 278.17 326.45 277.41 323.87 277.32 322.84 275.32 324.38 272.46 323.77 270.98 322.04 270.16 320.97 265.82 322.6 260.11 317.48 257.15 314.8 253.95 309.77 251.38 310.35 249.51 307.97 241.79 308.23 238.69 309.03 236.87 310.96 236.92 313.35 234.52 315.22 234.36 316.28 233.11 319.91 231.46 323.38 230.84 324.06 228.95 326.24 227.79 328.3 224.43 331.08 224.51 332.12 222.2 334.83 220.83 338.4 218.37 341.04 217.43 341.33 213.6 342.27 209.75 340 206.82 336.55 200.64 336.71 199.37 339.3 196.2 343.92 193.89 345.32 193.57 349.26 190.92 349.08 189.43 350.95 186.25 351.79 181.21 353.4 181.19 357.2 178.83 359.95 178.67 360.32 177.82 364.24 176.83 366.33 177.68 373.15 176.1 374.89 174 374.33 171.66 370.42 168.49 370.3 165.38 369.52 163.74 369.44 158.49 370.25 155.55 369.07 154.54 369.03 152.31 370.56 150.2 374.07 149 376.58 148.74 378.15 145.43 380.8 144.73 381.93 145.28 386.62 144.28 387.52 142.89 391.17 140.76 392.57 141.03 395.41 138.37 395.89 134 395.06 129.81 399.23 128.4 404.62 127.49 409.13 127.64 413.45 122.75 414.66 122.73 418.36 119.95 421.28 120.92 422.31 119.21 424.98 118.01 425.11 114.58 423.51 111.14 424.93 106.96 428.63 105.77 431.29 106.23 431.37 104.31 436.17 103.45 443.67 103.08 449.57 103.47 455.12 105.13 456.24 104.38 462.06 103.79 463.48 102.73 465.85 102.97 467.71 101.92 473.23 101.13 475.29 100.11 478.51 97.19 479.29 95.69 482.45 95.75 483.56 96.77 486.19 94.04 487.74 95.81 490.71 96.14 494.58 95.76 495.83 93.56 499.5 89.91 500.55 87.6 502.08 85.94 503.85 85.91 506.18 82.53 507.84 81.33 508.64 77.81 514.52 75.96 516.29 72.13 518.24 71.63 521.37 72.59 522.86 71.23 524.93 70.95 528.7 66.49 530.16 64.25 535.74 64 539.24 63.16 540.65 64.29 537.93 69.84 536.45 75.11 538.23 77.25 538.21 78.39 540.35 81.21 540.46 82.99 542.21 85.19 543.53 88.97 549.72 91.87 554.35 93.09 557.18 92.64 561.36 94.65 563.94 97.11 566.6 98.55 571.21 98.13 573.17 102.11 570.49 104.28 570.32 108.78 569.55 112.81 566.51 123.36 565 126.37 563.98 130.05 561.54 132.73 561.29 136.62 562.18 141.63 Z" id="34510390"/>
</g>
</svg>