<?xml version="1.0"?>
<svg xmlns="http://www.w3.org/2000/svg" version="1.2" baseProfile="tiny" width="800" height="524" viewBox="0 0 800 524" stroke-linecap="round" stroke-linejoin="round">
<g id="dong">
<path d="M 454.9 178.34 458.64 179.96 459.55 181.19 460.73 185.66 462.38 186.57 463.38 189.45 462.99 193.4 463.27 195.75 462.59 197.05 464.07 202.52 464 204.43 461.16 205.56 458.04 205.27 452.98 206.16 451.29 208.45 449.66 208.75 447 210.53 443.92 211.22 443.18 209.75 441.42 210.7 438.02 208.41 425.34 206.02 424.28 209.96 421.78 212.82 421.23 215.02 419.76 216.41 417.84 221.3 417.18 224.83 416.11 226.59 411.17 232.04 411.94 232.76 410.51 234.16 403.36 237.5 401.81 240.02 401.56 242.21 401.15 251.03 401.51 253.49 401.11 256.62 398.65 255.85 397.33 257.79 390.63 257.7 389.47 257.09 388.04 257.69 387.09 259.15 387.86 260.43 386.77 267.77 384.96 267.4 383.7 265.47 379.93 265.32 377.88 263.73 376.41 263.66 375.01 265.51 371.61 267.41 369.23 270.67 370.82 272.24 369.75 276.73 368.63 278.53 365.18 280.18 363.95 281.24 362.37 280.79 361.02 281.8 362.12 284.36 355.18 287.47 355.36 289.17 354.28 290.24 353.37 286.71 351.74 285.95 348.8 286.37 347.76 285.4 347.27 283.34 347.79 280.15 346.44 278.53 341.61 278.24 340.14 277.73 338.6 275.05 338.07 272.37 335.16 266.74 335.55 265.77 334.6 263.97 334.64 259.91 334.27 258.29 332.59 255.3 331.19 251.63 327.65 252.22 327.15 254.22 324.22 254.82 322.27 259.69 321.01 259.67 319.61 258.5 318.82 256.92 317.4 256.72 314.39 253.55 308.49 253.34 306.47 255.72 306.08 257.51 304.21 258.08 302.16 256.95 302.44 255.14 301.98 252.46 302.49 250.87 305.03 249.95 306.18 245.3 306.17 241.83 304.7 237.85 302.53 235.64 301.35 237.32 299.85 235.75 287.85 232.42 288.09 231.04 290.09 228.2 292.36 226.88 292.54 225.69 290.24 223.69 288.01 220.38 286.34 219.3 285.98 217.62 288.62 215.98 290.33 213.81 291.69 213.3 292.64 211.12 294.4 210.27 296.59 208.39 298.58 207.7 299.53 208.05 303.05 206.43 303.93 203.3 303.26 202.16 306.32 196.85 306.6 194.7 305.26 191.95 306.32 191 307.46 186.75 306.58 183.49 305 183.67 301.72 182.79 301.97 179.14 301.01 178.7 300.49 173.58 299.28 172.16 294.16 169 296.1 166.57 299.15 163.62 304.19 160.4 304.55 157.34 305.24 155.77 307.96 154.24 310.09 154.02 311.96 152.1 313.84 152.26 316.74 151.6 319.91 152.13 320.98 153.05 329.42 151.62 333.97 150.35 335.3 151.16 336.16 153.55 338.49 154.18 341.19 153.29 343.52 155.57 344.47 157.52 344.71 160.76 346.4 160.43 350.81 158.53 352.66 158.33 354.08 156.84 356.1 156.51 362.11 154.47 363.79 156.3 365.11 155.74 367.64 157.78 370.56 157.8 371.32 156.73 374.95 157.52 377.12 156.8 379.95 158.58 380.3 160.7 383.74 162.03 385.15 163.16 387.48 167.72 390.21 168.18 391.39 169.35 393.29 170.19 394.08 172.87 395.1 173.09 396.22 170.98 397.58 169.73 399.06 169.56 401.85 167.44 404.89 166.12 405.79 162.99 411.09 162.34 413.27 163.37 416.39 161.94 418.33 161.68 418.72 160.21 418.1 158.23 420.6 157.43 421.24 159.22 422.94 161.39 422.24 162.87 423.72 167.14 422.68 169.03 423.26 171.35 425.52 175.92 426.62 175.16 428.97 174.83 430.83 175.67 434.35 176.11 436.28 176.7 443.08 176.79 445.81 177.87 451.94 178.71 454.9 178.34 Z" id="34540390"/>
<path d="M 249.08 489.34 252.55 489.94 252.32 491.81 258.59 504.48 258.55 504.65 246.14 511.57 245.35 513.51 239.36 513.24 232.92 513.62 222.17 513.98 204.29 514.9 187.29 515.5 176.76 516.06 165.97 516.41 158.72 516.88 145.61 517.13 119.63 518.13 112.17 518.53 93.31 519.3 85.79 519.51 85.08 521.21 86.87 523 84.07 522.82 80.77 519.88 76.41 519.48 76.35 518.12 79.49 519.07 88.24 518.81 140.13 516.71 148.68 516.23 150.32 516.36 168.37 515.63 177.11 515.14 181.72 514.73 186.3 513.78 188.28 514.47 192.68 514.63 201.54 514.41 225.58 513.46 225.72 513.59 239.04 513.07 240.5 508.8 240.02 506.38 238.73 503.53 239.93 501.79 242.59 496.43 244.39 494.73 246.06 490.61 247.29 488.88 249.08 489.34 Z M 289.75 472.66 291.24 473.84 291.28 474.81 294.05 476.84 295.98 475.89 296.45 474.87 298.95 474.81 301.29 477.29 306.16 485.13 307.88 484.97 308.02 486.75 306.93 487.19 305.26 489.66 301.86 490.33 301.49 489.64 293.56 489.07 294.22 480.01 294.64 477.29 291.14 474.83 289.05 474.9 286.18 474.43 285.78 473.17 289.75 472.66 Z M 266.01 465.43 266.15 466.36 264.09 468.33 262.73 468.11 263.51 466.29 266.01 465.43 Z M 365.53 387.04 367.27 384.76 369.67 383.01 370.32 381.48 376.11 385.13 377.64 384.21 380.17 384.66 382.01 382.77 385.26 380.67 386.44 375.03 388.82 372.23 401.12 391.56 403.35 390.37 406.18 389.4 410.5 388.9 413.52 389.2 428.23 392.92 428.33 388.08 429.21 385.21 428.69 384.07 431.93 383.8 433.44 382.06 437.16 380.91 439.83 379.38 441.88 379.62 442.67 380.77 444.93 381.51 446.53 384.17 447.2 386.32 447.1 388.08 448.99 390.78 449.49 393.57 449.48 396.78 448.99 398.7 447.64 401.38 447.14 403.81 446.18 406.02 447.4 407.16 451.51 407.8 452.49 412.83 451.57 415.27 451.19 419.68 453.8 419.62 456.15 424.13 458.48 422.75 462.33 422.42 467.12 424.68 469.17 427.73 468.6 429.58 469.07 431.1 470.58 432.48 472.56 432.15 474.51 434.52 474.11 435.24 475.04 437.74 476.64 438.22 478.4 437.76 481.67 437.85 487.21 441.79 487.7 443.66 499.8 465.34 503.33 472.13 505.23 474.02 504.83 474.79 508.29 480.72 506.91 482.04 507.43 483.13 502.21 488.21 500.66 490.64 498.8 490.14 496.12 490.15 494.23 492.03 492.87 491.71 493.06 489.65 491.51 489.15 490.08 489.8 487.5 489.58 484.37 487.17 478.32 484.5 460.95 477.42 458.39 477.8 457.44 476.87 455.87 476.95 454.24 476.23 452.87 478.3 450.36 476.86 450.6 474.73 449.07 474.03 447.58 474.82 441.33 473.99 441.44 472.43 437.15 472.1 436.99 474.13 434.2 473.92 432.68 473.35 419.71 472.5 419.42 473.6 411.82 473.65 411.66 470.72 410.82 469.19 408.5 469.33 404.72 468.71 402.58 468.87 397.6 468.02 395.15 469.23 392.69 469.76 389.96 472.16 387.68 475.89 386.52 475.78 380.08 478.65 378.84 480.11 375 478.77 373.59 475.72 371.07 475 369.69 476.05 365.53 476.51 364.4 475.83 363.88 469.77 364.43 469.72 364.88 475.01 365.38 475.42 368.85 475.12 368.3 468.61 368.52 467 364.54 467.26 363.59 461.94 364.78 461.93 366.9 456.15 368.83 453.08 370.8 453.06 371.68 450.54 370.76 450.06 371.26 439.67 370.79 436.21 369.99 434.86 368.79 425.05 368.18 422.59 366.72 420.63 363.47 420.08 362.03 418.35 361.66 416.73 364.13 416.53 366.74 417.76 370.58 416.89 372.46 415.55 374.13 416.94 375.82 417.42 380.51 411.49 377.18 405.69 374.02 403.34 370.62 397.7 367.81 390.59 366.6 389.9 365.53 387.04 Z" fill-rule="evenodd" id="34540110"/>
<path d="M 504.96 209.25 501.98 215.15 500.99 218.02 501.62 220.68 500.68 221.51 501.65 224.92 501.79 228.34 502.46 230.83 502.92 235.26 502.76 236.59 503.38 239.16 502.8 239.56 503.13 241.99 502.89 243.87 503.95 244.46 504.9 265.2 504.74 265.91 505.22 276.82 508.13 278.52 509.56 276.46 514.17 279.05 515.35 276.97 519.21 279.15 520.37 278.16 518.83 282.78 517.66 287.12 515.83 288.63 515.85 290.69 516.66 292.37 515.82 293.86 513.74 293.64 512.19 294.66 511.14 296.36 508.94 298.67 507.74 300.77 503.11 297.74 502.65 299.53 503.09 300.78 508.28 301.07 506.81 305.05 507.49 307.22 506.55 309.42 506.83 311.55 505.38 316.22 504.4 318.21 504.99 319.03 504.74 325.12 503.29 328.43 503.18 330.89 503.96 335.48 505.38 338.16 495.48 341.22 480.96 346.04 480.6 346.25 471.71 346.13 464.25 341.81 463.61 339.84 464.15 336.65 464.22 332.76 463.17 329.22 462.18 321.14 461.6 319.29 460 316.9 458.77 316.57 458.35 318.96 456.53 320.64 454.03 320.41 452.98 321.15 449.05 322.3 443.79 324.14 434.17 324 432.78 325.17 431.27 324.51 423.82 325.36 421.39 324.96 416.61 326.39 414.24 327.61 410.56 328.47 410.65 329.18 403.7 329.94 402.57 330.69 400.14 331.05 396.81 329.77 395.63 323.94 394.9 311.99 390.93 311.58 390.37 310.44 386.17 310.31 384.61 308.65 380.41 308.56 377.27 306.4 375.09 305.35 375.6 303.91 373.03 303.23 371.37 304.09 369.78 302.93 368 302.94 365.08 297.12 363.03 296.86 359.71 293.63 360.1 292.76 358.55 291.15 354.28 290.24 355.36 289.17 355.18 287.47 362.12 284.36 361.02 281.8 362.37 280.79 363.95 281.24 365.18 280.18 368.63 278.53 369.75 276.73 370.82 272.24 369.23 270.67 371.61 267.41 375.01 265.51 376.41 263.66 377.88 263.73 379.93 265.32 383.7 265.47 384.96 267.4 386.77 267.77 387.86 260.43 387.09 259.15 388.04 257.69 389.47 257.09 390.63 257.7 397.33 257.79 398.65 255.85 401.11 256.62 401.51 253.49 401.15 251.03 401.56 242.21 401.81 240.02 403.36 237.5 410.51 234.16 411.94 232.76 411.17 232.04 416.11 226.59 417.18 224.83 417.84 221.3 419.76 216.41 421.23 215.02 421.78 212.82 424.28 209.96 425.34 206.02 438.02 208.41 441.42 210.7 443.18 209.75 443.92 211.22 447 210.53 449.66 208.75 451.29 208.45 452.98 206.16 458.04 205.27 461.16 205.56 464 204.43 467.34 205.12 469.47 209.02 471.69 211.23 473.19 209.58 473.33 207.7 474.54 206.5 474.36 205.04 477.59 204.82 480.8 203.62 482.31 202.68 483.33 200.88 483.54 198.63 484.69 198.27 486.78 199.04 492.62 198.08 494.89 199.02 496.61 201.18 498.38 202.11 505.36 202.89 506.52 205.51 505.38 207.19 504.96 209.25 Z" id="34540120"/>
<path d="M 191.62 407.24 192.22 408.78 189.97 408.76 190.15 406.82 191.62 407.24 Z M 302.13 397.42 303.1 397.26 303.95 399.47 303.44 400.01 300.95 399.37 302.13 397.42 Z M 283.09 391.7 287.26 392.97 285.45 393.57 283.7 393.38 283.09 391.7 Z M 270.27 317.37 272.2 319.05 272.59 322.11 270.75 323.72 270.23 325.19 268.76 326.86 265.98 325.94 266.35 324.73 265.72 321.99 268 319.38 270.27 317.37 Z M 228.38 306.29 225.98 306.23 227.38 304.67 228.38 306.29 Z M 335.55 265.77 335.16 266.74 338.07 272.37 338.6 275.05 340.14 277.73 341.61 278.24 346.44 278.53 347.79 280.15 347.27 283.34 347.76 285.4 348.8 286.37 351.74 285.95 353.37 286.71 354.28 290.24 358.55 291.15 360.1 292.76 359.71 293.63 363.03 296.86 365.08 297.12 368 302.94 369.78 302.93 371.37 304.09 373.03 303.23 375.6 303.91 375.09 305.35 377.27 306.4 380.41 308.56 384.61 308.65 386.17 310.31 390.37 310.44 390.93 311.58 394.9 311.99 395.63 323.94 396.81 329.77 400.14 331.05 402.57 330.69 403.7 329.94 410.65 329.18 410.56 328.47 414.24 327.61 416.61 326.39 421.39 324.96 423.82 325.36 431.27 324.51 432.78 325.17 434.17 324 443.79 324.14 449.05 322.3 452.98 321.15 454.03 320.41 456.53 320.64 458.35 318.96 458.77 316.57 460 316.9 461.6 319.29 462.18 321.14 463.17 329.22 464.22 332.76 464.15 336.65 463.61 339.84 464.25 341.81 471.71 346.13 480.6 346.25 480.96 346.04 495.48 341.22 505.38 338.16 507.16 341.57 508.14 344.74 512.13 346.02 513.12 348.46 515.67 351.69 517.44 353.04 518.66 355.18 519.8 356.18 521.97 356.55 523.38 357.59 521.84 361.44 521.69 363.08 520.89 366.79 523.83 369.89 526.48 373.17 529.19 374.93 529.36 375.98 528 377.13 526.47 379.56 526.15 381.09 526.49 383.57 528.47 386.51 530.46 387.5 530.79 388.61 528.63 393.55 528.05 397.32 526.54 400.6 527.11 401.9 529.9 402.8 529.01 404.94 528.77 406.93 530.03 408.65 531.85 410.14 534.67 411.02 536.96 414.31 542.02 419.27 544.46 418.53 545.37 419.18 552.03 417.48 558.17 417.11 561.65 416.16 566.09 421.86 567.8 424.91 562.26 424.53 546.76 425.18 544.47 425.87 540.42 432.23 538.11 437.17 535.73 443.5 532.24 456.95 531.17 460.31 528.77 467.74 523.06 484.47 520.38 490.25 516.53 488.72 511.2 486.09 507.43 483.13 506.91 482.04 508.29 480.72 504.83 474.79 505.23 474.02 503.33 472.13 499.8 465.34 487.7 443.66 487.21 441.79 481.67 437.85 478.4 437.76 476.64 438.22 475.04 437.74 474.11 435.24 474.51 434.52 472.56 432.15 470.58 432.48 469.07 431.1 468.6 429.58 469.17 427.73 467.12 424.68 462.33 422.42 458.48 422.75 456.15 424.13 453.8 419.62 451.19 419.68 451.57 415.27 452.49 412.83 451.51 407.8 447.4 407.16 446.18 406.02 447.14 403.81 447.64 401.38 448.99 398.7 449.48 396.78 449.49 393.57 448.99 390.78 447.1 388.08 447.2 386.32 446.53 384.17 444.93 381.51 442.67 380.77 441.88 379.62 439.83 379.38 437.16 380.91 433.44 382.06 431.93 383.8 428.69 384.07 429.21 385.21 428.33 388.08 428.23 392.92 413.52 389.2 410.5 388.9 406.18 389.4 403.35 390.37 401.12 391.56 388.82 372.23 386.44 375.03 385.26 380.67 382.01 382.77 380.17 384.66 377.64 384.21 376.11 385.13 370.32 381.48 369.67 383.01 367.27 384.76 365.53 387.04 362.59 383.64 360.82 380.72 361.07 380.08 358.24 376.41 354.71 373.91 351.81 372.6 348.64 371.82 345.8 372.1 344.9 372.63 342.35 371.8 338.36 362.7 336.02 360.69 334.16 360.41 333.92 358.15 334.8 356.39 333.18 353.67 329.25 353.25 331.52 351.66 329.06 347.64 328.16 348.74 325.44 349.39 323.38 347.64 320.04 347.46 318.29 348.39 317.48 350.84 315.73 350.61 312.32 349.27 308.03 350.7 306.32 350.32 305.71 352.93 303.96 353.89 302.74 352.44 304.44 349.63 306.84 349.12 306.89 344.74 306.07 340.72 305.1 327.42 304.83 326.89 304.77 319.94 305.59 310.84 305.59 307.02 304.84 301.75 303.79 297.88 302.34 293.87 300.79 290.87 296.68 286.13 295.01 286.46 292.63 285.61 288.69 285.37 287.63 285.95 287 288.93 285.85 291.32 283.42 292.74 283.01 293.82 280.31 294.8 277.99 293.19 278.94 291.36 277.78 288.57 279.82 287.86 280.35 284.76 281.67 283.8 283.51 283.47 285.2 284.86 287.29 283.35 287.86 281.62 288.06 276.8 288.93 275.59 291.23 275.73 292.47 277.6 296.15 278.99 297.81 280.09 299.49 280.44 301.99 282.84 306.51 282.87 308.49 281.61 313.56 276.94 314.82 275.36 318.69 272.67 321.46 272.46 322.8 270.98 325.85 269.99 329.05 267.12 330.52 264.17 332.74 263.94 333.73 264.73 334.1 266.59 335.55 265.77 Z" fill-rule="evenodd" id="34540310"/>
<path d="M 734.43 357.28 732.37 357.69 713.41 359.79 695.61 364.69 691.01 368.95 685.2 380.23 681.21 386.59 677.76 390.82 669.13 400.72 663.96 404.23 657.64 406.35 639.26 409.83 627.37 410.94 624.32 411.21 589.28 416.08 583.54 418.89 578.95 422.33 572.6 425.24 567.8 424.91 566.09 421.86 561.65 416.16 558.17 417.11 552.03 417.48 545.37 419.18 544.46 418.53 542.02 419.27 536.96 414.31 534.67 411.02 531.85 410.14 530.03 408.65 528.77 406.93 529.01 404.94 529.9 402.8 527.11 401.9 526.54 400.6 528.05 397.32 528.63 393.55 530.79 388.61 530.46 387.5 528.47 386.51 526.49 383.57 526.15 381.09 526.47 379.56 528 377.13 529.36 375.98 529.19 374.93 526.48 373.17 523.83 369.89 520.89 366.79 521.69 363.08 522.3 365.85 523.49 367.66 531.28 357.76 532.76 358.91 537.74 352.77 538.53 353.26 541.47 349.44 542.27 350.07 543.81 348.15 545.25 349.28 548.35 345.44 549.8 346.58 552.07 343.77 554.74 346.03 556.02 344.82 555.97 341.95 558.54 339.65 557.84 330.05 563.81 328.79 565.66 327.27 566.42 325.82 567.55 326.76 569.68 326.56 572.45 325.03 573.07 323.68 575.71 322.43 578.19 322.39 580.95 323.97 582.65 326.3 585.9 323.81 586.47 322.54 588.38 322.19 591.1 323.95 592.59 322.08 593.69 321.87 594.4 319.78 595.84 319.02 597.45 320.55 601.48 318.49 602.32 319.55 605.5 320.33 606.88 319.75 610.2 319.62 612.54 318.07 614.15 319.81 616.43 320.38 617.16 321.29 616.05 323.79 616.75 326.3 615.69 328.48 617.08 332.08 619.72 331.5 620.92 332.06 625.8 332.6 626.62 329.84 622.51 308.24 625.91 306.63 626.13 305.66 629.54 305.35 631.58 301.15 634.1 300.29 637.06 300.39 638.88 299.37 640.98 298.93 644.46 298.95 645.34 300.03 647.45 298.01 649.58 299.32 652.15 297.37 657.65 300.74 663.38 297.27 665.18 298.18 668.39 294.62 669.91 294.59 671.75 295.65 673.15 298.48 674.26 297.59 675.46 298.86 676.54 301.62 679.24 304.68 680.12 307.91 680.32 309.99 683.09 308.89 685.29 309.02 688.52 308.02 690.51 306.03 694.64 304.75 696.94 305.58 698.2 304.41 700.43 305.43 700.56 308.1 703.38 311.73 703.97 313.06 711.97 309.53 712.82 310.29 714.79 314.26 716.95 315.17 714.26 323.85 725.67 327.54 726.54 327.51 726.38 331.31 727.08 333.66 726.55 335.52 727.18 337.07 729.01 339.64 730.08 340.05 732.16 343.02 735.32 349.33 734.43 349.56 734.43 357.28 Z" id="34540320"/>
<path d="M 625.71 249.6 625.41 252.76 625.68 259.83 624.16 261.47 623.79 262.73 625.1 267.15 626.72 265.84 631.76 264.8 633.13 269.29 634.76 271.15 634.02 273.21 632.77 274.98 633.26 277.34 631.3 279.34 631.26 280.43 632.53 281.88 631.28 284.15 631.11 286.85 632.34 288.08 633.98 288.27 637.23 287.28 638.57 287.49 640.93 286.03 641.5 286.63 644.37 286.47 644.27 288.53 645.86 289.79 645.3 292.91 647.07 295.96 647.45 298.01 645.34 300.03 644.46 298.95 640.98 298.93 638.88 299.37 637.06 300.39 634.1 300.29 631.58 301.15 629.54 305.35 626.13 305.66 625.91 306.63 622.51 308.24 626.62 329.84 625.8 332.6 620.92 332.06 619.72 331.5 617.08 332.08 615.69 328.48 616.75 326.3 616.05 323.79 617.16 321.29 616.43 320.38 614.15 319.81 612.54 318.07 610.2 319.62 606.88 319.75 605.5 320.33 602.32 319.55 601.48 318.49 597.45 320.55 595.84 319.02 594.4 319.78 593.69 321.87 592.59 322.08 591.1 323.95 588.38 322.19 586.47 322.54 585.9 323.81 582.65 326.3 580.95 323.97 578.19 322.39 575.71 322.43 573.07 323.68 572.45 325.03 569.68 326.56 567.55 326.76 566.42 325.82 565.66 327.27 563.81 328.79 557.84 330.05 558.54 339.65 555.97 341.95 556.02 344.82 554.74 346.03 552.07 343.77 549.8 346.58 548.35 345.44 545.25 349.28 543.81 348.15 542.27 350.07 541.47 349.44 538.53 353.26 537.74 352.77 532.76 358.91 531.28 357.76 523.49 367.66 522.3 365.85 521.69 363.08 521.84 361.44 523.38 357.59 521.97 356.55 519.8 356.18 518.66 355.18 517.44 353.04 515.67 351.69 513.12 348.46 512.13 346.02 508.14 344.74 507.16 341.57 505.38 338.16 503.96 335.48 503.18 330.89 503.29 328.43 504.74 325.12 504.99 319.03 504.4 318.21 505.38 316.22 506.83 311.55 506.55 309.42 507.49 307.22 506.81 305.05 508.28 301.07 503.09 300.78 502.65 299.53 503.11 297.74 507.74 300.77 508.94 298.67 511.14 296.36 512.19 294.66 513.74 293.64 515.82 293.86 516.66 292.37 515.85 290.69 515.83 288.63 517.66 287.12 518.83 282.78 520.37 278.16 522.75 275.05 523.24 273.7 525.81 272.66 527.72 270.35 527.5 268.29 529.01 265.22 530.47 263.85 531.48 261.75 533.85 259.54 535.87 256.28 536.25 253.96 537.66 251.38 537.76 249.73 538.94 247.53 540.23 248.17 542.12 246.65 554.34 238.05 557.26 236.69 563.21 235.51 564.88 234.98 565.27 233.45 568.08 231.45 569.39 228.59 573.72 228.28 575.77 226.65 577.33 224.45 582.69 222.07 583.41 222.15 584.44 224.1 589.85 226.15 591.29 226.93 591.62 228.21 596.11 231.9 597.6 232.19 601.38 235.14 600.62 236.85 603.92 239.19 608.19 239.72 612.17 241.14 613.11 242.24 614.52 247.59 617.95 252.33 621.23 249.97 625.71 249.6 Z" id="34540330"/>
<path d="M 799 309.74 798.43 320.35 792.67 333.05 786.49 337.37 784.02 338.69 763.98 345.73 751.89 350.98 735.81 357.01 734.43 357.28 734.43 349.56 735.32 349.33 732.16 343.02 730.08 340.05 729.01 339.64 727.18 337.07 726.55 335.52 727.08 333.66 726.38 331.31 726.54 327.51 725.67 327.54 714.26 323.85 716.95 315.17 714.79 314.26 712.82 310.29 711.97 309.53 703.97 313.06 703.38 311.73 700.56 308.1 700.43 305.43 698.2 304.41 696.94 305.58 694.64 304.75 690.51 306.03 688.52 308.02 685.29 309.02 683.09 308.89 680.32 309.99 680.12 307.91 679.24 304.68 676.54 301.62 675.46 298.86 674.26 297.59 673.15 298.48 671.75 295.65 669.91 294.59 668.39 294.62 665.18 298.18 663.38 297.27 657.65 300.74 652.15 297.37 649.58 299.32 647.45 298.01 647.07 295.96 645.3 292.91 645.86 289.79 644.27 288.53 644.37 286.47 641.5 286.63 640.93 286.03 638.57 287.49 637.23 287.28 633.98 288.27 632.34 288.08 631.11 286.85 631.28 284.15 632.53 281.88 631.26 280.43 631.3 279.34 633.26 277.34 632.77 274.98 634.02 273.21 634.76 271.15 633.13 269.29 631.76 264.8 626.72 265.84 625.1 267.15 623.79 262.73 624.16 261.47 625.68 259.83 625.41 252.76 625.71 249.6 626.08 248.58 628.78 246.95 630.17 245.65 632.8 245.72 635.19 243.75 637.29 243.31 636.87 240.76 638.56 236.06 640.26 234.93 641.76 234.65 642.81 233.29 646.41 231.28 648.18 232.46 649.95 231.43 650.49 229.81 650.81 225.84 654.54 224.18 657.12 223.62 662.55 223.66 663.38 223.01 663.99 220.79 662.89 216.28 667.02 215.04 668.07 213.01 670.35 211.54 672.75 209.32 674.16 208.52 675.61 208.99 679.42 206.95 681.77 206.29 683.43 204.86 684.06 201.64 687.92 203.48 690.12 203.57 693.51 201.71 693.86 198.65 693.22 194.87 693.38 191.68 694.7 185.42 696.22 185.38 699.35 186.27 700.94 184.43 704.03 183.5 704.7 182.18 707.77 178.76 705.62 174.99 704.99 171.55 707.35 171.68 712.87 175 714.09 178.64 715.18 180 715.49 182.4 717.69 183.8 720.04 184.48 722 184.09 724.57 185.83 724.9 187.35 726.13 189.09 727.28 189.04 727.18 191.04 729.18 192.46 734.31 193.01 735.14 194.2 735.89 201.62 736.8 205.43 736.78 210.39 737.03 212.06 736.76 215.73 735.69 219.99 736.06 222.86 730.56 223.28 729.46 224.77 729.04 228.64 730.03 231.82 729.64 235 727.87 238.27 728.75 241.39 729.05 244.23 731.19 245.45 730.18 249.48 730.19 251.62 731.71 261.99 733.64 268.88 732.99 272.93 731.56 274.37 732.91 276.71 736.67 279.24 736.57 282 738.52 282.22 738.72 283.81 737.65 285.17 738.94 288.41 742.01 290.91 745.01 292.27 748.72 291.22 750.53 292.6 749.56 294.58 747.56 295.74 748 297.11 751.17 298.38 752.05 302.14 754.01 301.94 758.24 302.47 760.12 300.87 759.58 299.08 760.41 297.32 761.44 296.7 763.26 297.43 764.53 298.77 764.39 300.98 767.69 303.41 770.05 308.49 770.03 310.58 771.04 310.94 773.31 305.7 774.97 305.81 776.68 306.99 778.15 306.36 777.85 304.47 778.73 302.22 782.03 301.74 784.97 304.06 799 309.74 Z" id="34540340"/>
<path d="M 692.82 147.46 691.21 154.4 694.42 158.54 696.85 160.19 696.45 161.36 698.73 161.87 700.63 162.98 701.18 165.85 703.57 170.13 704.99 171.55 705.62 174.99 707.77 178.76 704.7 182.18 704.03 183.5 700.94 184.43 699.35 186.27 696.22 185.38 694.7 185.42 693.38 191.68 693.22 194.87 693.86 198.65 693.51 201.71 690.12 203.57 687.92 203.48 684.06 201.64 683.43 204.86 681.77 206.29 679.42 206.95 675.61 208.99 674.16 208.52 672.75 209.32 670.35 211.54 668.07 213.01 667.02 215.04 662.89 216.28 663.99 220.79 663.38 223.01 662.55 223.66 657.12 223.62 654.54 224.18 650.81 225.84 650.49 229.81 649.95 231.43 648.18 232.46 646.41 231.28 642.81 233.29 641.76 234.65 640.26 234.93 638.56 236.06 636.87 240.76 637.29 243.31 635.19 243.75 632.8 245.72 630.17 245.65 628.78 246.95 626.08 248.58 625.71 249.6 621.23 249.97 617.95 252.33 614.52 247.59 613.11 242.24 612.17 241.14 608.19 239.72 603.92 239.19 600.62 236.85 601.38 235.14 597.6 232.19 596.11 231.9 591.62 228.21 591.29 226.93 589.85 226.15 584.44 224.1 583.41 222.15 584.28 221.91 585.42 219.45 585.57 216.55 587.59 216.33 589.36 214.63 592.52 214 602.54 205.81 603.61 203.78 605 200 606.01 199.17 608.07 198.98 610.57 199.33 611.82 198.44 611.51 195.88 612.13 194.82 611.69 192.02 605.64 188.59 605.31 185.87 604.4 185.16 603.55 180.89 601.83 178.97 603.16 175.36 607.05 171.62 608.12 169.83 607.53 164.95 606.82 163.59 606.99 161.59 608.5 159.54 607.87 157.63 608.57 155.85 607.74 154.89 608.6 152.94 609.3 148.73 608.55 147.5 607.88 143.78 608.27 142.68 607.04 141.55 607.05 139.58 606.41 132.51 604.5 129.5 601.05 126.62 600.25 126.37 598.03 123.61 598.32 122.72 596.56 118.63 593.86 118.89 592.27 117.46 592.06 110.32 590.01 109.9 588.22 106.99 587.73 103.73 586.86 101.92 587.07 99.11 589.71 97.29 590.55 95.16 592.44 94.8 593.75 93.76 594.06 92.34 593.17 88.72 590.31 87.33 587.38 86.89 586.01 84.25 586.76 82.61 585.15 80.94 584.46 78.38 585.96 75.16 585.45 73.7 585.59 69.52 583.07 65.02 584.67 63.56 591.6 62.69 591.11 60.17 592 58.39 591.2 56.76 587.66 55.22 585.27 51.5 585.59 50.48 584.33 48.71 585.33 47.57 585.01 45.67 585.62 43.16 584.35 40.64 584.33 39.21 586.3 37.89 587.71 36.31 586.76 32.66 585.09 31.03 584.66 29.34 586.36 28.16 589.42 27.17 592.99 27.98 595.48 27.78 597 29.1 600.49 27.69 602.63 27.76 607.85 24.97 611.75 24.59 614.14 23.88 617.32 24.41 619.52 27.57 621.74 27.91 623.12 28.93 624.58 28.77 630.95 30.56 633.25 30.07 633.96 31.92 638.61 31.48 640.41 36.15 641.51 36.54 643.69 35.55 644.92 39.38 643.41 42.55 644.32 44.86 644.6 48.4 646.15 50.51 645.37 53.73 647.29 56.08 648.2 58.63 643.88 59.93 642.49 57.43 639.69 56.78 638.31 58.95 636.57 64.81 636.79 65.94 639.32 70.7 641.37 75.2 643.06 77.46 643.51 80.65 641.68 81.29 640.72 82.55 640.71 84.23 643 85.73 644.34 88.45 644.1 90.49 641.3 90.85 641.48 92.56 640.47 93.15 641.35 95.81 641.22 97.66 643.32 99.99 642.55 100.79 642.07 103.31 641.07 104.09 642.32 107.47 643.36 108.73 642.38 111.43 640.03 112.26 639.54 115.81 640.3 117.11 639.42 121.64 635.89 124.88 636.3 126.65 634.81 129.77 637.46 131.35 639.95 133.91 639.14 137.88 639.97 139.43 639.26 141.68 639.53 143.27 641.7 142.79 643.72 140.44 644.87 140.05 646.92 140.74 649.08 139.84 649.31 138.53 652.36 134.87 656.88 132.06 657.29 134.56 658.08 135.45 663.02 136.78 663.27 138.45 664.59 139.31 667.26 140.08 669.1 141.27 674.85 143.45 676.82 145.24 679.86 144.56 681.61 144.96 682.25 145.95 685.78 147.45 688.83 145.79 691.5 146.58 692.82 147.46 Z" id="34540350"/>
<path d="M 587.07 99.11 586.86 101.92 587.73 103.73 588.22 106.99 590.01 109.9 592.06 110.32 592.27 117.46 593.86 118.89 596.56 118.63 598.32 122.72 598.03 123.61 600.25 126.37 601.05 126.62 604.5 129.5 606.41 132.51 607.05 139.58 607.04 141.55 608.27 142.68 607.88 143.78 608.55 147.5 609.3 148.73 608.6 152.94 607.74 154.89 608.57 155.85 607.87 157.63 608.5 159.54 606.99 161.59 606.82 163.59 607.53 164.95 608.12 169.83 607.05 171.62 603.16 175.36 601.83 178.97 603.55 180.89 604.4 185.16 605.31 185.87 605.64 188.59 611.69 192.02 612.13 194.82 611.51 195.88 611.82 198.44 610.57 199.33 608.07 198.98 606.01 199.17 605 200 603.61 203.78 602.54 205.81 592.52 214 589.36 214.63 587.59 216.33 585.57 216.55 585.42 219.45 584.28 221.91 583.41 222.15 582.69 222.07 577.33 224.45 575.77 226.65 573.72 228.28 569.39 228.59 568.08 231.45 565.27 233.45 564.88 234.98 563.21 235.51 557.26 236.69 554.34 238.05 542.12 246.65 540.23 248.17 538.94 247.53 537.76 249.73 537.66 251.38 536.25 253.96 535.87 256.28 533.85 259.54 531.48 261.75 530.47 263.85 529.01 265.22 527.5 268.29 527.72 270.35 525.81 272.66 523.24 273.7 522.75 275.05 520.37 278.16 519.21 279.15 515.35 276.97 514.17 279.05 509.56 276.46 508.13 278.52 505.22 276.82 504.74 265.91 504.9 265.2 503.95 244.46 502.89 243.87 503.13 241.99 502.8 239.56 503.38 239.16 502.76 236.59 502.92 235.26 502.46 230.83 501.79 228.34 501.65 224.92 500.68 221.51 501.62 220.68 500.99 218.02 501.98 215.15 504.96 209.25 507.1 209.48 508.13 208.14 510.01 210.07 512.07 211.3 512.82 209.74 518.74 208.03 520.42 204.16 523.09 203.36 525.34 199.78 528.92 200.87 532.29 195.5 532.34 194.2 533.57 192.64 532.58 191.74 532.45 186.27 530.85 184.39 531.71 181.37 531.07 179.22 529.24 177.8 527.42 177.71 525.41 178.43 514.13 177.6 511.79 176.03 509.28 175.79 507.6 174.64 503.46 170.05 501.02 170.16 500.04 168.73 501.19 163.25 503.31 159.71 504.05 152.92 507.28 154.95 509.87 155.35 510.69 157.05 512.77 158.19 515.07 157.78 517.07 159.4 520.5 159.36 521.39 158.45 525.38 157.03 528.87 157.03 530.63 155.64 533.99 155.38 537.33 154.05 539.86 157.46 542.05 158.57 542.13 159.53 547.34 162.45 552.57 161.24 556.4 163.67 556.33 160.83 555.75 159.3 563.21 159.93 559.96 150.91 559.41 148.89 559.43 146.58 560.43 144.31 561.28 140.95 562.59 140.07 563.78 137.46 563.07 135.77 563.92 127.98 565.12 126.96 568.55 128.32 570.28 129.62 572.59 129.42 573.09 123.76 575.48 122.34 576.41 120.03 575.35 118.72 575.33 116.33 579.21 116.15 580.77 115.32 579.51 110.66 577.1 107.69 579.93 104.39 579.89 102.72 580.71 101.04 585.14 99.05 587.07 99.11 Z" id="34540360"/>
<path d="M 584.66 29.34 585.09 31.03 586.76 32.66 587.71 36.31 586.3 37.89 584.33 39.21 584.35 40.64 585.62 43.16 585.01 45.67 585.33 47.57 584.33 48.71 585.59 50.48 585.27 51.5 587.66 55.22 591.2 56.76 592 58.39 591.11 60.17 591.6 62.69 584.67 63.56 583.07 65.02 585.59 69.52 585.45 73.7 585.96 75.16 584.46 78.38 585.15 80.94 586.76 82.61 586.01 84.25 587.38 86.89 590.31 87.33 593.17 88.72 594.06 92.34 593.75 93.76 592.44 94.8 590.55 95.16 589.71 97.29 587.07 99.11 585.14 99.05 580.71 101.04 579.89 102.72 579.93 104.39 577.1 107.69 579.51 110.66 580.77 115.32 579.21 116.15 575.33 116.33 575.35 118.72 576.41 120.03 575.48 122.34 573.09 123.76 572.59 129.42 570.28 129.62 568.55 128.32 565.12 126.96 563.92 127.98 563.07 135.77 563.78 137.46 562.59 140.07 561.28 140.95 560.43 144.31 559.43 146.58 559.41 148.89 559.96 150.91 563.21 159.93 555.75 159.3 556.33 160.83 556.4 163.67 552.57 161.24 547.34 162.45 542.13 159.53 542.05 158.57 539.86 157.46 537.33 154.05 533.99 155.38 530.63 155.64 528.87 157.03 525.38 157.03 521.39 158.45 520.5 159.36 517.07 159.4 515.07 157.78 512.77 158.19 510.69 157.05 509.87 155.35 507.28 154.95 504.05 152.92 503.31 159.71 501.19 163.25 500.04 168.73 501.02 170.16 503.46 170.05 507.6 174.64 509.28 175.79 511.79 176.03 514.13 177.6 525.41 178.43 527.42 177.71 529.24 177.8 531.07 179.22 531.71 181.37 530.85 184.39 532.45 186.27 532.58 191.74 533.57 192.64 532.34 194.2 532.29 195.5 528.92 200.87 525.34 199.78 523.09 203.36 520.42 204.16 518.74 208.03 512.82 209.74 512.07 211.3 510.01 210.07 508.13 208.14 507.1 209.48 504.96 209.25 505.38 207.19 506.52 205.51 505.36 202.89 498.38 202.11 496.61 201.18 494.89 199.02 492.62 198.08 486.78 199.04 484.69 198.27 483.54 198.63 483.33 200.88 482.31 202.68 480.8 203.62 477.59 204.82 474.36 205.04 474.54 206.5 473.33 207.7 473.19 209.58 471.69 211.23 469.47 209.02 467.34 205.12 464 204.43 464.07 202.52 462.59 197.05 463.27 195.75 462.99 193.4 463.38 189.45 462.38 186.57 460.73 185.66 459.55 181.19 458.64 179.96 454.9 178.34 455.51 175.86 455.2 171.19 456.29 169.7 463.08 168.24 464.32 164.68 467.89 163.41 468.65 164.23 471.16 165.32 474.48 164.81 476.59 165.3 477.09 162.24 477.84 160.63 479.5 158.89 479.92 157.23 481.76 156.17 483.29 153.36 483.99 150.85 487.2 146.42 486.46 140.64 483.08 135.01 485.74 132.08 485 129.37 483.87 126.83 484.47 123.21 487.84 118.86 488.98 112.69 492.48 111.65 493.56 110.46 493.05 107.75 493.52 104.13 491.95 101.18 489.79 98.79 486.49 95.7 482.41 93.44 483.97 90.55 483.56 87.81 481.27 85.17 480.71 82.36 479.1 80.95 477.76 79.01 474.29 76.84 468.37 73.67 469.61 70.36 468.9 68.39 469.74 66.13 469.93 60.11 471.98 59.23 472.32 55.38 474.7 54.04 476.44 51.63 478.08 51.02 475.8 47.32 474.71 46.42 474.66 44.61 477.06 44.22 477.95 44.98 480.23 44.03 483.19 44.07 484.22 45.4 488.18 44.86 489.47 45.96 491.28 44.57 492.23 42.73 494.83 43.28 496.3 42.02 498.6 42.66 499.63 42.34 503.29 43.14 504.09 41.73 504.99 38.64 507.66 35.61 515.07 30.43 517.39 28.44 522.91 27.98 525.03 27.32 526.22 27.89 528.33 27.18 532.9 24.65 535.92 26.5 538.66 27.28 540.84 29.72 543.3 29.13 544.66 30.42 547.42 30.49 550.17 28.63 552.01 28.27 556.38 29.16 559.04 28.67 563.12 30.29 564.56 29.32 563.97 27.59 566 27.91 570.9 26.51 571.96 25.36 574.62 25.29 577.21 24.2 580.43 24.01 581.59 24.78 584.66 29.34 Z" id="34540370"/>
<path d="M 474.66 44.61 474.71 46.42 475.8 47.32 478.08 51.02 476.44 51.63 474.7 54.04 472.32 55.38 471.98 59.23 469.93 60.11 469.74 66.13 468.9 68.39 469.61 70.36 468.37 73.67 474.29 76.84 477.76 79.01 479.1 80.95 480.71 82.36 481.27 85.17 483.56 87.81 483.97 90.55 482.41 93.44 486.49 95.7 489.79 98.79 491.95 101.18 493.52 104.13 493.05 107.75 493.56 110.46 492.48 111.65 488.98 112.69 487.84 118.86 484.47 123.21 483.87 126.83 485 129.37 485.74 132.08 483.08 135.01 486.46 140.64 487.2 146.42 483.99 150.85 483.29 153.36 481.76 156.17 479.92 157.23 479.5 158.89 477.84 160.63 477.09 162.24 476.59 165.3 474.48 164.81 471.16 165.32 468.65 164.23 467.89 163.41 464.32 164.68 463.08 168.24 456.29 169.7 455.2 171.19 455.51 175.86 454.9 178.34 451.94 178.71 445.81 177.87 443.08 176.79 436.28 176.7 434.35 176.11 430.83 175.67 428.97 174.83 426.62 175.16 425.52 175.92 423.26 171.35 422.68 169.03 423.72 167.14 422.24 162.87 422.94 161.39 421.24 159.22 420.6 157.43 418.1 158.23 418.72 160.21 418.33 161.68 416.39 161.94 413.27 163.37 411.09 162.34 405.79 162.99 404.89 166.12 401.85 167.44 399.06 169.56 397.58 169.73 396.22 170.98 395.1 173.09 394.08 172.87 393.29 170.19 391.39 169.35 390.21 168.18 387.48 167.72 385.15 163.16 383.74 162.03 380.3 160.7 379.95 158.58 377.12 156.8 374.95 157.52 371.32 156.73 370.56 157.8 367.64 157.78 365.11 155.74 363.79 156.3 362.11 154.47 356.1 156.51 354.08 156.84 352.66 158.33 350.81 158.53 346.4 160.43 344.71 160.76 344.47 157.52 343.52 155.57 341.19 153.29 338.49 154.18 336.16 153.55 335.3 151.16 333.97 150.35 329.42 151.62 320.98 153.05 319.91 152.13 319.08 147.91 319.95 141.31 319.51 138.57 318.51 136.55 318.85 134.53 320.59 132.32 322.92 130.49 323.22 129.22 324.81 127.82 326.68 127.98 328.03 126.85 330.84 126.01 331.34 124.46 331.07 119.85 332.85 114.19 332.27 109.24 331.24 106.16 331.18 104.36 331.83 97.92 327.32 95.73 324.37 96.68 321.57 95 319.92 96.25 317.28 94.65 318.75 91.32 318.41 89.97 320.43 86.7 321.43 82.9 318.97 77.39 316.7 74.42 315.81 70.53 317.48 66.69 319.7 64.99 320.65 60.91 322.12 58.44 322.09 55.34 323.86 51.71 323.27 49.31 324.15 47.72 324.79 44.91 323.91 41.64 325.75 39.75 327.63 39.47 329.2 37.13 333.16 38.37 335.16 37.58 336.59 35.51 342.52 33.6 345.33 33.63 346.38 31.8 348.47 30.43 356.66 29.53 359.71 30.51 358.65 33.84 359.66 35.45 360.04 37.33 361.48 38.25 363.46 37.4 365.45 37.26 368.33 38.59 371.49 39.44 373.48 40.89 374.37 40.2 378.06 42.88 382.34 40.21 383.27 38.79 387.98 38.09 389.31 36.59 391.73 36.41 395.4 32.93 397.02 30.02 399.38 28.17 403.49 28.37 405.41 26.94 407.55 24.66 408.08 21.74 409.83 19.15 412.81 12.98 416.44 10.05 419.7 10.86 423.46 9.72 424.24 8.34 426.57 9.39 428.63 7.73 430.03 7.24 435.03 9.96 436.41 11.53 437.46 14.6 439.89 16.57 444.31 23.95 446.3 24.98 446.94 26.25 445.67 28.21 446.36 29.9 446.44 32.65 447.36 34.33 450.06 34.61 451.47 36.34 454.11 36.89 456.26 37.9 458.2 37.82 460.75 36.9 462 38.04 464.65 38.72 467.06 40.74 468.7 43.26 471.26 44.16 474.66 44.61 Z" id="34540380"/>
<path d="M 189.32 264.76 188.1 266.32 186.39 265.69 187.84 264.16 189.32 264.76 Z M 245.66 214.1 244.07 217.19 243.07 214.17 245.73 212.94 245.66 214.1 Z M 223.99 183.94 223.69 186.23 222.33 185.56 223.99 183.94 Z M 189.31 171.37 189.91 173.11 188.14 173.36 187.04 172.09 187.15 170.77 189.21 170.14 189.31 171.37 Z M 319.91 152.13 316.74 151.6 313.84 152.26 311.96 152.1 310.09 154.02 307.96 154.24 305.24 155.77 304.55 157.34 304.19 160.4 299.15 163.62 296.1 166.57 294.16 169 299.28 172.16 300.49 173.58 301.01 178.7 301.97 179.14 301.72 182.79 305 183.67 306.58 183.49 307.46 186.75 306.32 191 305.26 191.95 306.6 194.7 306.32 196.85 303.26 202.16 303.93 203.3 303.05 206.43 299.53 208.05 298.58 207.7 296.59 208.39 294.4 210.27 292.64 211.12 291.69 213.3 290.33 213.81 288.62 215.98 285.98 217.62 286.34 219.3 288.01 220.38 290.24 223.69 292.54 225.69 292.36 226.88 290.09 228.2 288.09 231.04 287.85 232.42 286.54 232.5 283.16 230.61 280.48 230.2 276.34 230.27 273.77 230.81 273.19 231.85 272.38 235.47 271.66 236.27 268.45 242.78 267.71 243.75 269.46 245.21 269.02 246.21 266.74 245.14 265.08 248.67 263.7 248.3 264.93 245.69 263.55 245.01 260.16 239.78 255.84 238.67 255.22 238.04 253.41 238.82 251.93 238.48 251.52 237.41 254.84 234.58 254.79 232.13 256.22 230.12 256.16 228.6 253.28 219.3 251.04 215.46 251.34 213.79 249.74 209.86 248.54 208.32 249.14 207.38 252.09 206.75 253.11 208.53 254.57 209.12 253.17 204.99 249.71 206.71 247.07 208.52 246.4 210.26 245.02 209.9 244.96 208.52 242.88 207.95 243.43 205.94 244.5 205.07 243.28 200.76 240.6 193.49 238.29 188.12 238.04 186.93 234.68 182.25 232.32 181.53 231.11 178.39 228.7 175.58 228.3 173.11 226.78 171.16 225.34 170.36 225.49 167.86 222.29 165.12 220.63 161.73 218.64 162.29 217.95 161.03 210.17 157.29 207 157.17 204.37 156.23 202.97 152.71 198.44 146.27 195.7 144.08 193.99 141.27 191.28 139.23 190.15 137.35 188.88 137.53 188.41 133.84 186.72 132.55 189.08 128.47 192.72 128.62 194 127.33 193.27 122.69 194.13 120.63 195.8 119.31 196.58 117.6 196.24 115.61 197.57 114.66 199.43 115.37 201.33 112.6 199.41 109.8 197.58 109.9 197.67 107.13 198.17 105.38 195.76 103.81 194.64 102.08 193.97 99.34 198.45 94.76 201.06 93.36 204.63 92.66 207.99 90.31 212.73 87.87 215.07 89.98 217.58 90.32 221.41 87.79 221.58 84.52 222.89 82.63 224.67 81.21 227.1 77.22 229.78 75.87 234.18 78.34 236.66 80.2 237.45 82.19 239.91 84.27 243.39 82.14 244.53 78.73 245.31 78.62 245.93 75.52 245.76 71.61 247.37 69.28 247.2 67.92 244 65.86 242.26 64.02 242.11 60.64 240.93 59.73 241.62 56.71 241.09 54.88 241.44 53.54 242.81 53.63 243.94 51.54 238.06 46.69 236.57 46.07 235.93 44.89 239.36 43.97 242.18 45.54 243.3 44.86 245.53 47.85 247.28 49.13 249.47 48.57 251.72 48.82 256.48 50.41 258.47 52.86 259.84 52.97 262.05 50.75 264.69 49.31 267.34 49.93 270.09 52.58 270.65 51.67 273.88 50.88 275.95 47.23 280.16 45.1 282.03 46.59 284.23 46.57 287.92 50.05 290.84 49.67 291.88 48.32 295.25 50.04 297.07 49.2 299.46 49.27 300.63 47.01 303.82 44.58 304.6 43.09 305.86 42.42 309.21 43.28 311.8 42.9 315.38 41.51 318.57 41.76 320.9 42.33 323.91 41.64 324.79 44.91 324.15 47.72 323.27 49.31 323.86 51.71 322.09 55.34 322.12 58.44 320.65 60.91 319.7 64.99 317.48 66.69 315.81 70.53 316.7 74.42 318.97 77.39 321.43 82.9 320.43 86.7 318.41 89.97 318.75 91.32 317.28 94.65 319.92 96.25 321.57 95 324.37 96.68 327.32 95.73 331.83 97.92 331.18 104.36 331.24 106.16 332.27 109.24 332.85 114.19 331.07 119.85 331.34 124.46 330.84 126.01 328.03 126.85 326.68 127.98 324.81 127.82 323.22 129.22 322.92 130.49 320.59 132.32 318.85 134.53 318.51 136.55 319.51 138.57 319.95 141.31 319.08 147.91 319.91 152.13 Z" fill-rule="evenodd" id="34540400"/>
<path d="M 141.23 160.62 142.55 161.7 141.24 165.08 142.82 170.04 141.63 171.02 139.63 170.73 137.16 171.83 136.69 168.98 135.84 167 135.59 163.15 138.57 162.41 139.01 160.89 141.23 160.62 Z M 42.64 142.77 41.04 144.05 40.82 141.94 42.64 142.77 Z M 1.45 134.89 3.7 137.12 4.72 140.52 4.53 142.55 2.59 143.26 2.53 141.41 1 139.61 1.45 134.89 Z M 235.93 44.89 236.57 46.07 238.06 46.69 243.94 51.54 242.81 53.63 241.44 53.54 241.09 54.88 241.62 56.71 240.93 59.73 242.11 60.64 242.26 64.02 244 65.86 247.2 67.92 247.37 69.28 245.76 71.61 245.93 75.52 245.31 78.62 244.53 78.73 243.39 82.14 239.91 84.27 237.45 82.19 236.66 80.2 234.18 78.34 229.78 75.87 227.1 77.22 224.67 81.21 222.89 82.63 221.58 84.52 221.41 87.79 217.58 90.32 215.07 89.98 212.73 87.87 207.99 90.31 204.63 92.66 201.06 93.36 198.45 94.76 193.97 99.34 194.64 102.08 195.76 103.81 198.17 105.38 197.67 107.13 197.58 109.9 199.41 109.8 201.33 112.6 199.43 115.37 197.57 114.66 196.24 115.61 196.58 117.6 195.8 119.31 194.13 120.63 193.27 122.69 194 127.33 192.72 128.62 189.08 128.47 186.72 132.55 188.41 133.84 188.88 137.53 185.67 136.06 181 134.41 177.84 133.65 177.45 132.36 173.14 135.17 172.5 138.99 172.85 140.39 172.53 143.43 173.13 146.55 172.56 147.95 172.7 149.89 171.16 149.64 171.11 148.49 169.75 146.83 166.38 146.09 163 147.79 162.73 149.37 163.19 151.92 162.25 153.27 157.58 154.3 157.19 158.58 156.24 160.71 153.77 161.69 150.93 161.18 149.67 162.82 148.66 163.08 147.46 161.26 146.97 159.5 148.06 156.28 147.41 155.28 147.46 153.2 146.3 152.85 146.65 150.49 146.02 148.79 146.27 146.2 144.66 143.49 141.65 139.29 137.2 133.92 127.89 124.23 123.96 120.87 117.58 116.36 116.57 115.17 115.16 114.83 113.89 113.51 111.27 112.09 103.36 108.92 98.68 107.55 93.04 106.43 87.23 104.76 82.76 103.16 77.75 102.3 73.65 101.98 70.33 102.22 68.28 103.21 65.79 102.74 61.31 103.24 53.14 104.94 47.98 106.73 46.42 107.95 45.44 110.35 45.71 113.6 47.16 114.35 41.61 119.06 41.38 122.17 39.25 125.04 37.96 125.95 35.93 128.73 35.26 130.41 35.47 132.02 36.98 135.45 38.57 137.57 39.4 141.04 38.73 143.85 39.58 146.01 42.81 145.69 43.01 147.52 40.96 148.4 39.41 149.66 40.03 155.13 41.3 158.74 41.31 160.36 48.09 161.39 50.96 159.45 51.37 160.09 48.4 162.08 46.52 162.5 40.97 161.63 38.87 162.1 35.54 160.27 34.03 158.77 32.7 158.37 31.54 156.11 29.23 153.95 28.3 151.92 27.02 150.46 24.41 150.94 24.06 150.03 21.17 150.01 20.97 146.93 19.49 144.41 18.32 141.43 18.2 138.36 18.72 135.89 19.09 118.79 17.34 117.29 17.43 115.46 19.08 114.56 19.11 111.47 18.58 85.4 17.3 82.22 19.88 81.98 21.74 83.1 22.95 84.6 25.58 85.52 26.45 84.94 29.11 84.86 29.76 83.55 31.66 83.66 38.4 80.17 40.07 78.22 41.1 78.5 38.78 80.86 32.84 83.92 34.86 91.09 36.9 91.06 45.98 83.73 47.69 83.43 49.98 81.48 50.76 82.02 54.23 86.99 55.07 86.81 60.1 84.09 61.03 82.71 59.58 79.8 60.4 78.88 62.2 78.98 64.03 81.57 65.34 81.97 67.5 85.16 71.01 83.47 72.68 81.91 76.15 77.24 78.23 74.93 84.11 66.11 85.63 63.1 86.29 60.61 87.57 58.32 86.26 55.29 86.52 53.26 84.68 51.1 84.73 49.74 87.71 47.26 88.7 49.58 90.55 48.24 89.54 46.79 89.97 45.91 92.58 44.89 91.48 42.54 88.99 43.09 88.23 42.29 88.1 38.72 86.78 36.16 82.37 26.39 82.01 23.4 82.1 19.86 82.79 17.3 85.08 13.04 86.44 12.84 152.84 3.55 165.8 1.72 168.21 1 172.49 2.21 180.17 9.71 194.03 34.55 198.89 38.05 206.87 40.64 217.26 43.54 225.25 45.3 227.9 46.12 230.02 45.43 235.93 44.89 Z" fill-rule="evenodd" id="34540410"/>
</g>
</svg>