<?xml version="1.0"?>
<svg xmlns="http://www.w3.org/2000/svg" version="1.2" baseProfile="tiny" width="800" height="711" viewBox="0 0 800 711" stroke-linecap="round" stroke-linejoin="round">
<g id="dong">
<path d="M 376.49 205.26 375.64 204.64 373.18 209.12 372.37 208.68 369.29 212.72 367.88 215.56 362.54 221.99 360.06 222.42 359.82 224.12 355.62 229.71 356.52 230.73 357.1 233.65 357.88 234.79 357.63 236.46 359.07 239.18 358.95 241.08 359.68 242.68 358.96 243.51 358.68 246.2 359.99 247.72 358.82 249.44 360.69 250.58 362.04 250.56 363.03 251.73 364.35 255.51 363.21 259.25 364.61 261.83 365.86 262.87 365.89 264.21 364.31 268.08 362.4 269.65 361.2 269.45 360.51 273.49 361.6 274.97 361.41 276.53 359.52 278.3 356.64 279.93 358.25 280.79 359.19 282.91 361.38 285.02 363.67 285.91 369.92 287 373.97 289.95 374.25 295.05 377.23 298.67 377.86 300.73 377.02 306.96 376.44 307.38 376.7 319.5 371.94 319.59 372.12 326.91 377.27 326.76 377.39 336.62 376.91 339.01 375.96 340.69 373.65 340.19 371.76 337.57 369.65 336.55 368.39 337.85 366.85 337.19 365.21 337.65 363.78 339.91 361.19 341.41 359.76 340.92 359.76 344.14 345 344.14 343 344.52 340.58 344.14 335.68 344.14 333.61 343.32 333.6 342.07 331.46 341.44 327.67 342.73 323.41 337.46 319.96 335.41 317.9 338.27 315.05 339.11 312.41 336.32 309.01 337.29 308.47 339.22 306.67 339.91 304.47 341.49 301.58 342.48 298.62 340.39 296.84 341.82 294.71 346.8 292.2 348.91 289.72 349.41 288.2 347.11 286.72 347.56 285.81 346.57 283.08 346.07 279.79 344.85 277.6 343.06 276.91 339.94 273.12 341.77 270.24 341.52 267.73 340.85 265.89 341.26 264.43 339.62 263.19 340.56 260.45 337.77 259.82 336.62 255.6 336.62 251.62 342.62 249.68 346.22 249.47 348.98 247.66 351.16 247.79 353.18 248.57 354.23 251.52 354.74 254.25 356.48 253.49 359.17 253.45 361 249.83 360.91 246.82 361.48 246.19 362.08 243.88 361.22 237.66 360.37 234.15 360.19 229.73 362.21 225.88 363.5 223.4 365.24 221.75 368.7 217.04 369.52 216.41 368.59 215.69 368.64 215.01 369.12 211.6 369.59 209.15 367.64 206.55 368.27 206.28 367.39 203.34 368.11 202.94 366.31 200.59 366.89 199.5 366.4 198.76 364.05 192 366.51 186.27 367.53 184.33 368.94 180.88 368.23 178.91 372.78 173.9 372.37 158.35 375.97 154.11 376.59 145.71 381.64 144.32 378.58 143.95 375.22 142.53 371.72 143.21 368.93 142.34 367.99 144.36 363.29 145.93 360.71 147.33 354.87 146.14 352.07 147.03 349.62 150.35 345.44 154.96 342.55 154.78 338.99 155.9 338.31 156.4 334.94 158.83 331.1 163.26 322.32 164.9 318.68 165.91 317.85 165.72 316.29 166.77 313.5 166.25 311.13 169.16 308.83 170.03 307.06 173.88 304.45 177.11 300.44 176.7 299.48 178.76 296.92 174.95 294.03 178.3 294.73 180.73 293.96 180.86 291.19 181.56 288.13 182.92 287.71 186.79 284.49 187.57 280.32 189.8 276.54 190.82 275.68 191.16 273.62 194.64 270.69 196.8 270.84 196.3 266.75 194.98 263.81 194.82 260.53 191.43 256.45 190.03 255.29 184.61 252.32 183.9 250.03 181.18 246.85 179.93 246.36 190.64 231.71 194.39 227.03 196.07 228.15 202.8 224.31 203.1 224.57 206.99 222.41 210.13 221.37 216.33 220.01 217.75 220.25 219.43 219.06 222.53 218.35 223.78 218.55 230.54 216.51 236.9 214.96 241.56 214.38 247.56 211.81 250.42 211.53 255.08 209.18 257.29 209.04 257.29 211.59 258.99 213.83 260.15 217.12 262.01 220.78 263.27 221.37 264.67 224.55 263.71 225.52 264.48 227.58 265.8 228.35 265.38 229.55 270.04 233.43 272.7 232.52 276.28 232.12 278.61 230.18 280.68 229.38 281.85 228 284.31 229.05 287.46 228.53 289.33 226.77 290.88 227.92 293.27 227.23 295.18 227.22 296.54 227.89 297.14 230.84 295.35 232.84 293.75 233.55 294.55 234.81 294.8 239.34 296.8 239.97 298.37 239.84 299.41 240.87 304.44 241.95 305.75 243.89 309.84 244.09 310.82 246.9 312.35 247.02 313.36 246.11 314.44 242.92 316.84 239.81 317.37 236.95 319.11 235.23 320.36 231.8 319.76 229.9 318.11 226.79 319.01 224.6 323.58 223.56 325.25 222.08 326.3 218.99 326.71 213.81 326.02 210.16 326.75 208.17 322.32 205.44 320.69 206.66 318.22 206.91 318.01 204.98 320 204 318.25 202.88 319.4 201.86 321.07 202.8 327.32 199.88 332.32 197.29 334.57 199.33 335.91 201.92 338.22 201.83 339.02 195.98 342.12 191.12 343.97 189.14 345.88 184.52 347.6 181.7 349.65 176.11 349.61 175.44 352.08 178.37 355.63 180.11 356.23 180.96 377.25 196.39 378.16 195.15 381.41 196.33 379.43 200.29 379.74 202.09 378.03 203.18 376.49 205.26 Z" id="34570120"/>
<path d="M 731.77 259.68 733.7 262.51 734.91 263.39 737.44 262.91 740.18 259.58 742.38 259.14 745.65 260.14 749.57 258.54 752.96 257.49 753.56 258.5 755.67 258.89 757.97 260.65 759.38 264.03 762.7 269.94 765.77 270.37 767.46 272.2 771.55 274.02 774.47 273.28 776.3 275.48 783.56 277.25 787.41 278.89 789.59 280.71 793.24 282.56 795.7 285.54 799 290.51 789.68 301.43 789.21 309.87 789.91 311.22 789.38 313.52 790.35 315.6 789.65 317.17 789.36 320.21 786.39 321.41 784.37 321.22 782.75 322.19 781.71 324.44 782.01 325.89 780.88 327.87 779.27 328.36 773.99 332.9 773.8 334.93 770.38 336.71 768.16 338.65 767.73 342.55 768.36 345.41 767.66 347.43 768.03 350.01 767.35 351.34 767.92 352.81 767.14 354.96 768.56 355.51 768.19 356.88 769.59 361 768.84 361.85 769.41 363.31 773.07 363.36 773.03 366.37 771.48 370.39 770.81 373.05 771.74 377.43 773.71 380.63 772.83 381.92 770.47 382.09 769.34 383.34 767.87 383.52 766.78 385.77 765.09 387.4 761.92 388.98 762.41 390.94 761.44 394.64 761.22 396.91 763.2 398.68 762.94 401.19 763.62 402.76 763.54 406.66 762.66 408.57 760.43 410.62 756.17 412 755.2 414.2 752.39 415.83 749.56 418.01 749.26 421.94 746.77 426.31 746.27 428.6 746.51 430.44 744.61 432.18 742.68 435.14 742.05 438.16 740.78 437.86 740.31 439.31 740.7 441.01 741.95 441.55 741.86 444.01 743.26 446.26 743.4 450.95 740.67 451.59 739.58 452.93 739.27 455.14 736.55 456.75 736.21 458.4 731.43 460.01 729.73 461.91 726.82 461.35 725.48 461.67 723.71 463.69 723.46 466.1 718.37 466.7 716.73 467.15 715.42 466.33 711.71 467.94 710.65 467.73 709.47 466.22 708.13 465.95 707.34 468.29 705.82 469.29 702.34 469.66 700.36 469.02 699.13 469.34 696.77 466.79 693.14 466.13 692.2 466.91 690.26 465.79 689.35 464.28 689.54 462.73 688.36 462.43 686.42 460.68 684.68 460.48 683.07 459.49 681.2 459.24 678.93 458.24 676.87 458.37 675.35 456.56 673.29 455.47 672.53 457.17 670.17 455.7 667.32 455.34 665.79 452.18 663.54 449.82 663.72 448.76 661.74 448.08 657.94 444.95 656.52 442.98 656.6 441.48 654.22 441.25 653.37 439.12 650.31 438.17 649.58 436.32 648.45 435.25 647.28 435.63 645.9 433.89 643.73 434.45 642.01 433.62 638.62 436.31 637.8 435.6 636.15 435.9 635.09 434.46 633.09 430.09 630.45 432.41 628.43 431.73 625.61 429.01 625.04 427.37 621.83 427 620.55 425.15 620.48 423.69 618.98 421.09 617.66 420.46 615.93 422.26 615.3 424.52 615.02 427.49 613.06 429.27 610.68 432.39 610.18 435.4 609.41 436.57 606.86 429.56 606.81 426.7 607.81 423.04 606.3 419.96 605.61 417.29 603.73 414.35 604.72 413.28 605.25 410.77 604.14 406.71 604.8 404.45 603.61 403.41 601.02 402.88 600.35 399.49 601.21 398.07 600.23 396.23 598.08 395.11 597.46 392.33 598.34 390 599.38 389.13 600.22 387.02 599.46 385.42 597.16 385.95 594.19 385.93 593.22 385.45 593.18 382.77 589.68 379.41 588.58 375.94 586.39 376.7 587.04 373.42 586.88 368.44 584.45 368.31 583.95 361.82 583.08 360.26 583.01 357.76 582.35 356.23 582.87 355 585.15 353.15 585.79 351.73 585.17 350.1 585.6 347.52 586.45 345.83 586.35 343.67 589.29 341.97 593.15 338.68 595.06 336.2 595.46 333.17 594.01 332.24 593.81 329.59 594.3 328.62 593.17 326.51 592.64 322.44 589.93 319.61 590.21 318.37 589.52 315.73 591.62 314.31 590.21 312.03 589.48 311.88 587.56 308.62 589.52 303.09 591.49 300.73 593.28 297.33 594.05 296.78 596.71 292.01 596.57 288.95 599.29 286.24 599.73 285 606.51 285.36 606.82 284.34 610.38 283.04 610.71 282.09 614.73 280.82 617.97 276.94 619.45 275.97 621.39 272.59 622.9 272.56 624.83 271.68 626.51 271.7 627.95 269.74 631.17 267.32 633.15 266.73 633.33 265.16 636.7 263.32 638.3 260.06 645.81 261.38 648.01 263.99 649.59 264.84 652.05 264.82 651.94 262.1 654.53 261.25 657.31 261.36 658.77 262.46 663.98 262.93 665.46 262.5 666.2 261.4 668.82 261.16 671.01 259.96 672.03 257.84 675.77 257.1 677.38 257.18 680.16 259.04 682.34 258.41 685.73 258.96 690.53 260.87 692.27 263.4 695.3 265.16 697.98 264.57 701.09 263.04 701.64 261.86 704.54 260.11 706.55 257.42 709.61 255.59 711.37 257.2 718.48 260.03 719.12 261.75 724.47 260.41 726.15 259.15 729.75 258.34 731.77 259.68 Z" id="34570310"/>
<path d="M 723.46 466.1 723.68 468.23 724.7 471.15 726.29 472.28 726.76 476.19 725.7 478.93 727.06 480.03 727.11 482.36 726.17 483.51 724.94 483.09 723 484.28 719.18 488.18 717.63 488.28 716.19 489.42 715.51 491.62 715.55 495.46 713.74 496.74 713.37 499.52 712.14 500.71 712.75 502.45 711.76 505.38 713.11 507.86 713.21 509.55 715.13 510.54 715.89 511.74 715.68 514.49 713.51 515.29 713.22 516.37 710.8 515.93 710.25 514.49 708.82 514.78 707.42 517.09 705.49 519.17 707.79 522.58 706.32 528.06 707.45 529.37 707.63 531.22 706.36 531.41 706.23 534.01 712.39 539.31 712.56 541.39 713.62 543.93 712.99 545.33 709.74 546.66 708.57 548.41 706.81 549.44 705.63 551.79 702.62 553 700.9 554.37 699.36 557.99 700.32 559.96 698.28 561.28 697.81 563.36 696.11 563.93 695.54 570.58 695.1 573.33 694.22 574.83 693.06 578.38 691.88 580.37 690.32 581.29 687.28 580.8 684.44 583.09 684.2 584.83 682.58 588.68 681.77 589.7 678.35 590.65 677.22 592.08 673.25 593.98 673.52 599.77 672.64 602.1 673.07 603.37 671.64 605.56 671 607.39 669.13 607.43 663.37 608.76 663.22 611.26 661.19 611.19 659.12 613.31 658.74 616.61 657.48 617.01 656.87 618.47 658.09 621.3 655.69 623.26 653.7 622.41 650.7 622.12 649.31 624.1 647.99 624.8 647.63 626.03 645.17 627.47 641.29 627.11 639.86 626.34 637.5 626.77 635.58 626.55 633.69 623.53 628.77 621.76 628.29 620.87 626.13 620.29 624.52 621.16 622 619.17 620.82 617.05 619.08 616.59 618.06 615.53 616.67 615.48 613.99 613.95 613.06 612.81 611.9 613.03 609.06 611.85 608.14 610.63 606.46 611 604.79 609.07 601.94 607.21 602.26 605.96 600.14 604.72 597.92 604.79 596.04 605.66 595.68 603.35 594.54 602.53 592.35 599.89 589.33 600.12 585.26 598.92 583.37 599.5 581.45 601.35 578.85 601.4 575.48 603.14 574.51 602.63 572.31 603.19 569.31 603.11 566.83 601.93 564.82 602.06 562.59 600.72 558.96 599.07 557.86 597.67 555.36 596.4 553.89 595.18 552.78 595.83 551.9 598 549.89 597.5 548.08 596.02 546.74 596.13 545.29 594.83 545.27 599.1 542.11 600.97 539.93 601.17 537.71 600.37 534.89 599.11 533.48 596.58 531.68 595.75 530.88 593.74 529.76 592.88 529.77 589.14 528.42 585.75 527.65 585.14 525.55 580.97 525.94 578.02 525.55 575.22 526.97 574.31 526.08 572.14 525.62 569.38 528.84 568.12 529.16 565.31 530.45 564.23 530.37 560.91 529.6 557.03 526.36 557.13 525.14 555.61 523.81 552.5 520.49 552.45 515.6 548.92 513.25 548.02 513.56 546.38 516.06 543.47 516.6 541.3 514.33 538.1 511.41 536.4 509.76 534.41 508.22 529.63 504.71 527.51 503.49 526.23 499.31 523.63 499.01 520.66 499.31 518.64 498.4 517.5 497.12 517.74 495.53 515.86 492.99 516.01 491.03 513.97 490.16 511.76 487.84 509.26 485.64 507.78 485.36 505.14 483.34 504.47 482.44 503.52 482.95 500.85 480.97 500.76 479.5 501.89 480.03 499.88 483.54 498.49 485.45 498.96 488.3 498.39 489.33 497.45 490.16 495.13 490.15 493.28 487.28 492.58 486.47 491.03 486.12 488.01 486.79 481.13 488.95 480.12 490.95 480.44 494.32 481.67 497.18 481.4 499.46 479.53 503.44 475.09 507.49 472.14 511 469.95 514.29 469.19 517.23 469.09 520.87 469.54 521.41 468.5 523.44 466.9 523.75 465.57 526.23 464.93 524.98 463.14 527.28 462.61 529.62 461.2 530.38 457.3 531.87 457.53 533 458.71 535.68 459.27 536.45 461.03 537.69 460.98 539.6 462.21 540.84 463.87 542.36 464.19 542.71 466.44 545.77 467.66 547.05 465.71 549.16 465.12 551.42 461.59 554.3 459.73 555.88 455.59 556.93 453.65 558.15 449.38 560.3 448.41 562.07 448.76 563.62 446.81 565.91 442.08 565.12 439.87 565.55 438.56 565.05 436.33 563.7 435.75 564.04 433.73 563.83 431.25 564.12 428.37 563.6 427.45 563.68 425.14 563.02 423.29 564.7 420.43 567.76 416.85 567.77 413.08 568.15 410.83 569.29 408.88 570.7 404.6 570.53 402.76 571.73 401.62 571.11 400.43 571.73 397.96 572.92 395.47 574.34 395.11 573.52 392.55 573.79 389.32 575.23 388.31 577.31 385.36 577.79 382.78 579.98 382.95 581.19 380.33 583.59 377.8 586.39 376.7 588.58 375.94 589.68 379.41 593.18 382.77 593.22 385.45 594.19 385.93 597.16 385.95 599.46 385.42 600.22 387.02 599.38 389.13 598.34 390 597.46 392.33 598.08 395.11 600.23 396.23 601.21 398.07 600.35 399.49 601.02 402.88 603.61 403.41 604.8 404.45 604.14 406.71 605.25 410.77 604.72 413.28 603.73 414.35 605.61 417.29 606.3 419.96 607.81 423.04 606.81 426.7 606.86 429.56 609.41 436.57 610.18 435.4 610.68 432.39 613.06 429.27 615.02 427.49 615.3 424.52 615.93 422.26 617.66 420.46 618.98 421.09 620.48 423.69 620.55 425.15 621.83 427 625.04 427.37 625.61 429.01 628.43 431.73 630.45 432.41 633.09 430.09 635.09 434.46 636.15 435.9 637.8 435.6 638.62 436.31 642.01 433.62 643.73 434.45 645.9 433.89 647.28 435.63 648.45 435.25 649.58 436.32 650.31 438.17 653.37 439.12 654.22 441.25 656.6 441.48 656.52 442.98 657.94 444.95 661.74 448.08 663.72 448.76 663.54 449.82 665.79 452.18 667.32 455.34 670.17 455.7 672.53 457.17 673.29 455.47 675.35 456.56 676.87 458.37 678.93 458.24 681.2 459.24 683.07 459.49 684.68 460.48 686.42 460.68 688.36 462.43 689.54 462.73 689.35 464.28 690.26 465.79 692.2 466.91 693.14 466.13 696.77 466.79 699.13 469.34 700.36 469.02 702.34 469.66 705.82 469.29 707.34 468.29 708.13 465.95 709.47 466.22 710.65 467.73 711.71 467.94 715.42 466.33 716.73 467.15 718.37 466.7 723.46 466.1 Z" id="34570320"/>
<path d="M 537.71 600.37 538.55 603.87 537.7 606.08 535.51 608.66 535.87 611.5 534.71 613.18 531.58 615.59 529.69 615.77 527.87 616.65 526.83 618.38 526.92 619.53 525.82 621.73 526.41 622.92 525.14 624.2 524.87 630.29 525.94 631.53 522.96 632.81 523.13 633.96 521.3 639.1 517.4 642.32 515.68 642.6 513.44 644.31 513.1 646.53 511.05 648.2 510.83 650.41 509.45 651.82 508.67 653.87 509.34 655.27 507.97 656.62 507.19 661.37 507.49 662.89 506.21 666.05 507.34 666.8 507.71 668.47 506.49 670.28 506.42 672.08 505.4 673.1 504.88 675.91 503.4 677.12 503.62 678.8 502.93 679.77 503.2 681.93 504.15 683.56 502.5 685.46 502.28 686.47 500.6 687 498.97 689.67 497.81 693.46 498.13 694.38 496.42 698.46 496.08 701.8 495.24 704.04 494.05 704.77 489.23 704.1 485.28 702.62 483.79 702.8 481.48 702.14 479.89 702.65 475.6 703.12 473.87 700.69 471.69 698.58 468.79 697.72 467.49 698.06 465.88 699.47 461.33 699.3 460.04 701.19 456.14 701.51 455.42 704.66 453.73 710 451.5 707.86 447.88 706.77 447.47 705.77 441.71 701.97 441.11 700.55 439.28 699.13 435.98 698.46 433.9 699.11 432.94 697.85 429.67 697.19 429.03 696.37 427.04 696.21 422.74 693.9 420.48 693.16 417.39 691.45 415.25 691.02 412.15 689.06 407.74 689.79 405.17 694.38 403.02 695.8 399.73 694.12 396.77 695.68 387.82 690.18 379.35 685.04 376.42 686.31 375.39 688.05 372.67 687.46 369.5 691.44 368.45 693.23 368.44 694.72 366.72 697.85 365.89 698.44 363.4 701.73 361.54 704.84 358.7 707.97 357.05 706.67 353.24 705.97 352.08 704.41 349.61 704.62 348.56 705.45 346.58 704.77 346.09 702.66 343.54 700.65 340.79 697.47 337.68 699.01 336.19 697.68 334.54 697.55 332.86 696.65 333.85 693.92 332.39 692.19 330.16 691.67 327.95 689.35 327.07 687.52 325.13 687.16 324.38 685.15 322.87 684.69 321.59 683.13 322.13 681.22 322.09 679.04 322.87 677.18 321.1 674.82 320.76 672.69 321.36 668.79 319.02 667.17 318.19 665.06 317.36 665.11 315.77 663.47 314.44 659.93 315.3 655.45 314.76 652.29 313.06 650.53 313.5 646.2 315.35 645.01 316.98 643.13 317.3 641.52 320.93 639.09 323.88 635.38 325.41 636.04 329.17 636.27 329.44 637.83 330.73 638.26 331.89 637.46 332.34 634.82 335.67 632.34 336.68 630.9 337.06 625.59 336.74 619.17 337.66 615.56 339.64 610.94 338.61 609.73 337.45 605.78 337.68 601.44 336.68 598.89 337.6 596.85 336.36 594.92 336.5 593.57 337.72 592.04 335.74 590.18 334.73 586.18 334 585.06 334.15 581.5 335.7 578.32 337.01 574.34 337.15 572.22 338.93 572.02 340.43 572.59 342.78 572.62 344.57 573.38 344.87 571.72 346.89 569.56 347.81 567.93 351 566.69 351.98 565.14 351.78 562.44 352.12 561.07 359.6 559.06 362.92 556.81 364.37 556.74 365.83 555.7 367.96 556.57 371.87 552.97 372.11 551.4 374.64 548.67 378.35 546.29 380.77 543.21 382.63 541.6 384.61 541.44 384.86 540.28 386.59 537.55 388.78 538 394.5 540.01 396.53 540.4 398.46 539.77 400.43 539.88 403.02 538.98 405.91 539.12 407.96 537.73 412.09 536.11 415.32 533.47 417.7 532.61 420.86 533.66 421.98 532.23 424.94 530.69 429.19 529.52 429.48 527.73 432.6 528.44 435.41 525.29 436.72 524.39 437.72 522.22 437.36 519.45 436.6 518.02 434.21 516.32 434.2 514.31 467.55 524.02 470.39 523.04 470.22 521.85 473.64 521.21 476.2 519.61 477.22 518.47 477.52 514.94 475.92 512.37 475.07 509.08 477.31 504.7 479.5 501.89 480.97 500.76 482.95 500.85 482.44 503.52 483.34 504.47 485.36 505.14 485.64 507.78 487.84 509.26 490.16 511.76 491.03 513.97 492.99 516.01 495.53 515.86 497.12 517.74 498.4 517.5 499.31 518.64 499.01 520.66 499.31 523.63 503.49 526.23 504.71 527.51 508.22 529.63 509.76 534.41 511.41 536.4 514.33 538.1 516.6 541.3 516.06 543.47 513.56 546.38 513.25 548.02 515.6 548.92 520.49 552.45 523.81 552.5 525.14 555.61 526.36 557.13 529.6 557.03 530.37 560.91 530.45 564.23 529.16 565.31 528.84 568.12 525.62 569.38 526.08 572.14 526.97 574.31 525.55 575.22 525.94 578.02 525.55 580.97 527.65 585.14 528.42 585.75 529.77 589.14 529.76 592.88 530.88 593.74 531.68 595.75 533.48 596.58 534.89 599.11 537.71 600.37 Z" id="34570330"/>
<path d="M 586.35 343.67 586.45 345.83 585.6 347.52 585.17 350.1 585.79 351.73 585.15 353.15 582.87 355 582.35 356.23 583.01 357.76 583.08 360.26 583.95 361.82 584.45 368.31 586.88 368.44 587.04 373.42 586.39 376.7 583.59 377.8 581.19 380.33 579.98 382.95 577.79 382.78 577.31 385.36 575.23 388.31 573.79 389.32 573.52 392.55 574.34 395.11 572.92 395.47 571.73 397.96 571.11 400.43 571.73 401.62 570.53 402.76 570.7 404.6 569.29 408.88 568.15 410.83 567.77 413.08 567.76 416.85 564.7 420.43 563.02 423.29 563.68 425.14 563.6 427.45 564.12 428.37 563.83 431.25 564.04 433.73 563.7 435.75 565.05 436.33 565.55 438.56 565.12 439.87 565.91 442.08 563.62 446.81 562.07 448.76 560.3 448.41 558.15 449.38 556.93 453.65 555.88 455.59 554.3 459.73 551.42 461.59 549.16 465.12 547.05 465.71 545.77 467.66 542.71 466.44 542.36 464.19 540.84 463.87 539.6 462.21 537.69 460.98 536.45 461.03 535.68 459.27 533 458.71 531.87 457.53 530.38 457.3 529.62 461.2 527.28 462.61 524.98 463.14 526.23 464.93 523.75 465.57 523.44 466.9 521.41 468.5 520.87 469.54 517.23 469.09 514.29 469.19 511 469.95 507.49 472.14 503.44 475.09 499.46 479.53 497.18 481.4 494.32 481.67 490.95 480.44 488.95 480.12 486.79 481.13 486.12 488.01 486.47 491.03 487.28 492.58 490.15 493.28 490.16 495.13 489.33 497.45 488.3 498.39 485.45 498.96 483.54 498.49 480.03 499.88 479.5 501.89 477.31 504.7 475.07 509.08 475.92 512.37 477.52 514.94 477.22 518.47 476.2 519.61 473.64 521.21 470.22 521.85 470.39 523.04 467.55 524.02 434.2 514.31 434.21 516.32 436.6 518.02 437.36 519.45 437.72 522.22 436.72 524.39 435.41 525.29 432.6 528.44 429.48 527.73 429.19 529.52 424.94 530.69 421.98 532.23 420.86 533.66 417.7 532.61 415.32 533.47 412.09 536.11 407.96 537.73 405.91 539.12 403.02 538.98 400.43 539.88 398.46 539.77 396.53 540.4 394.5 540.01 388.78 538 386.59 537.55 385.12 535.5 382.92 531.03 384.27 529.06 383.34 523.79 381.88 522.26 381.77 520.87 380.67 518.46 382.62 516.85 384.32 510.51 385.91 508.54 385.69 505.9 386.84 504.36 384.61 501.8 383.04 496.73 382.2 494.99 381.94 490.38 382.42 488.92 383.6 488.21 382.88 485.42 383.01 481.16 383.37 480.08 383.99 480.01 386.57 476.87 386.17 474.62 387.41 473.12 389.13 472.01 389.64 469.2 391.35 468.57 393.47 464.34 395.05 462.74 395.8 460.96 399.62 461.67 401.16 463.06 404.95 464.26 406.23 465.26 410.65 470.12 411 471.6 412.18 472.36 414.55 469.82 422.45 468.18 425.42 465.34 427.95 464.77 430.02 465.14 432.25 464.79 434.3 463.34 435.8 463.43 436.73 461.9 439.78 460.71 442.71 462.61 443.82 462.27 448.79 463.6 449.57 463.09 447.46 459.23 446.62 456.45 447.36 453.69 449.34 451 450.1 447.23 449.41 444.99 447.45 443.33 442.74 444.52 439.83 442.7 439.47 440.21 440.23 438.01 442.74 436.32 445.52 435.17 450.8 431.58 453.33 428.57 456.26 426.17 456.57 423.87 454.44 421.49 454.3 418.17 459.17 415.56 460.09 416.14 462.91 416.13 466.81 415.5 468.23 414.64 467.68 413.45 467.43 410.6 468.19 407.34 470.6 405.44 470.82 403.96 469.2 400.61 464.49 400.41 463.42 399.72 463.38 396.72 464.56 394.43 467.85 391.93 469.78 389.07 470.12 386.78 468.73 382.14 465.3 378.3 462.94 373.45 461.81 368.56 460.38 364.27 460.52 362.33 461.07 361.49 463.2 361.36 466.61 359.94 467.18 361.44 470.65 360.51 474.95 356.84 478.31 355.03 482.08 352.36 484.85 351.16 491.97 349.22 492.44 348.91 496.46 352.8 498.95 352.42 500.5 353.53 501.61 356.23 503.81 357.76 505.62 358.37 507.12 356.63 507.01 355.02 508.07 353.17 509.81 354.26 511.32 356.4 513.72 353.8 516.16 353.01 522 352.8 525.7 354.74 526.55 351.95 528.6 350.15 530.47 350.84 532.42 349.97 534.3 351.61 534.26 353.43 535.89 355.47 537.79 356.65 542.4 356.49 543.9 354.77 550.56 356.91 553.22 355.21 556.73 354.41 560.24 354.18 562.09 353.03 562.51 350.22 563.95 349.44 568.15 351.42 569.4 349.38 570.93 349.58 576.13 347.06 576.49 344.54 578.91 342.3 583.41 342.25 586.35 343.67 Z" id="34570340"/>
<path d="M 375.96 340.69 375.46 342.54 377.86 344.15 378.53 343.52 380.91 344.86 379.91 346.79 381.83 347.91 382.25 350.43 387.47 351.16 390.15 349.01 391.47 352.09 393.36 353.4 394.2 356.2 398.11 358.42 400.59 358.4 402.9 360.14 404.86 360.27 405.52 358.45 407.4 356.62 409.11 356.03 414.3 358.64 417.29 357.93 418.28 359.26 419.69 362.87 422.36 364.6 421.83 366.89 423.45 371.39 425.4 371.65 426.77 372.65 426.58 374.29 427.12 376.41 428.89 378.07 432.34 378.86 435.7 376.99 438.14 376.3 437.15 372.7 438.37 368.78 440.97 366.66 442.71 366.9 444.28 365.78 447.51 364.81 449.44 365 450.67 364.34 452.15 362.34 457.46 362.97 460.52 362.33 460.38 364.27 461.81 368.56 462.94 373.45 465.3 378.3 468.73 382.14 470.12 386.78 469.78 389.07 467.85 391.93 464.56 394.43 463.38 396.72 463.42 399.72 464.49 400.41 469.2 400.61 470.82 403.96 470.6 405.44 468.19 407.34 467.43 410.6 467.68 413.45 468.23 414.64 466.81 415.5 462.91 416.13 460.09 416.14 459.17 415.56 454.3 418.17 454.44 421.49 456.57 423.87 456.26 426.17 453.33 428.57 450.8 431.58 445.52 435.17 442.74 436.32 440.23 438.01 439.47 440.21 439.83 442.7 442.74 444.52 447.45 443.33 449.41 444.99 450.1 447.23 449.34 451 447.36 453.69 446.62 456.45 447.46 459.23 449.57 463.09 448.79 463.6 443.82 462.27 442.71 462.61 439.78 460.71 436.73 461.9 435.8 463.43 434.3 463.34 432.25 464.79 430.02 465.14 427.95 464.77 425.42 465.34 422.45 468.18 414.55 469.82 412.18 472.36 411 471.6 410.65 470.12 406.23 465.26 404.95 464.26 401.16 463.06 399.62 461.67 395.8 460.96 395.05 462.74 393.47 464.34 391.35 468.57 389.64 469.2 389.13 472.01 387.41 473.12 386.17 474.62 386.57 476.87 383.99 480.01 383.37 480.08 382.53 478.59 378.27 475.66 376.86 475.49 375.38 473.98 374.07 474.32 370.41 473.02 368.66 474.84 365.78 476.89 363.89 476.54 361.79 474.53 359.16 470.07 358.09 469.62 355.85 466.43 355.24 463.79 352.97 461.98 352.96 459.62 353.96 458.4 356.86 456.91 358.46 454.14 357.88 451.05 357.07 449.47 357.27 444.99 356.45 443.7 356.21 440.87 355.47 439.63 351.95 440.73 347.6 437.33 346.73 437.3 344.05 434.7 343.65 433.11 340.21 431.93 340.95 428.1 341.75 425.67 342.96 423.68 343.31 421.74 341.15 419 341.2 415.77 342.37 412.7 345.7 408.35 344.51 405.44 339.56 401.83 336.45 399.1 334.12 400.43 332.74 402.58 331.45 403.42 329.95 401.89 328.93 402.02 325.68 398.5 324.6 397.83 320.42 397.26 317.78 398.26 313.69 399.2 312.19 398.18 312.99 394.29 312 392.01 312.09 389.97 315.36 387.37 314.9 383.74 313.09 381.26 312.73 379.6 314.1 376.85 314.52 373.35 314.15 371.78 311.53 369.79 312.85 367.66 315.71 368.35 318.07 364.25 321.44 362.91 324.79 362.45 325.07 360.06 324.55 359.37 326.07 357.1 327.79 355.64 328.24 351.12 330.03 349.66 330.56 347.5 330.55 345.26 331.46 341.44 333.6 342.07 333.61 343.32 335.68 344.14 340.58 344.14 343 344.52 345 344.14 359.76 344.14 359.76 340.92 361.19 341.41 363.78 339.91 365.21 337.65 366.85 337.19 368.39 337.85 369.65 336.55 371.76 337.57 373.65 340.19 375.96 340.69 Z" id="34570350"/>
<path d="M 194.39 227.03 190.64 231.71 179.93 246.36 181.18 246.85 183.9 250.03 184.61 252.32 190.03 255.29 191.43 256.45 194.82 260.53 194.98 263.81 196.3 266.75 196.8 270.84 194.64 270.69 191.16 273.62 190.82 275.68 189.8 276.54 187.57 280.32 186.79 284.49 182.92 287.71 181.56 288.13 180.86 291.19 180.73 293.96 178.3 294.73 174.95 294.03 178.76 296.92 176.7 299.48 177.11 300.44 173.88 304.45 170.03 307.06 169.16 308.83 166.25 311.13 166.77 313.5 165.72 316.29 165.91 317.85 164.9 318.68 163.26 322.32 158.83 331.1 156.4 334.94 155.9 338.31 154.78 338.99 154.96 342.55 150.35 345.44 147.03 349.62 146.14 352.07 147.33 354.87 145.93 360.71 144.36 363.29 142.34 367.99 143.21 368.93 142.53 371.72 143.95 375.22 144.32 378.58 145.71 381.64 144.57 383.08 143.71 385.58 139.22 392.05 138.72 394.23 133.59 397.46 128.58 395.93 127.77 396.47 126.52 394.43 122.97 396.59 117.19 398.82 111.69 398.61 110.04 395.65 103.52 393 101.66 393.31 94.83 392.55 89.66 394.67 88.61 397.08 88.63 399.28 86.82 402.86 86.25 404.9 85.31 405.97 83.91 405.92 81.38 408.2 79.43 409.15 79.13 411.72 77.14 414.99 75.98 418.2 74.41 419.76 70.79 421.54 70.38 424.12 72.23 426.17 75.26 430.29 77.2 436.39 78.96 439.11 82.29 441.11 82.09 443.91 83.31 446.46 82.79 448.62 80.95 451.61 80.61 452.96 83.85 455.49 85.45 457.11 85.7 460.77 85.23 463.92 85.29 467.21 86.39 469.32 85.62 472.48 86.03 474.67 85.75 479.55 86.22 484.2 86.11 485.85 84.8 487.64 84.09 490.3 83.77 493.36 82.35 496.71 79.49 498.17 78.29 496.45 76.66 492.73 76.67 491.91 73.64 489.41 70.7 486.5 69 483.99 69.43 481.76 68.31 478.84 66.11 478.3 63.95 476.79 64.26 474.69 65.69 473.24 66.4 471.41 64.21 466.72 63.96 462.72 63.16 461.18 60.94 460.66 58.22 460.57 53.09 458.66 50.47 457.92 45.53 457.56 44.19 456.52 43.82 462.3 41.64 464.87 40.82 467.12 38.2 469.82 35.77 472.79 34.7 469.42 32.13 467.6 30.62 467.13 26.5 466.79 24.56 466.12 22.03 468.25 17.81 468.93 15.29 469.64 13.23 471.53 11.85 471.41 9.3 472.23 6.82 474.2 3.22 475.64 1.52 473.65 1 470.27 1.23 468.64 2.37 468.44 4.03 466.8 3.86 465.67 2.31 464.1 2.4 460.73 1.28 458.22 1.76 456.46 1.39 453.92 3.88 449.06 2.65 447.12 5.48 438.16 5.16 436.8 5.71 432.34 7.05 430.05 4.8 425.12 7.42 419.41 10.43 416.99 10.21 414.61 11.55 411.57 11.22 409.87 12.16 408.34 11.69 404.24 13.82 401.65 15.04 398.81 21.72 395 22.66 392 22.97 386.26 20.53 381.5 17.34 376.73 16.34 376.2 14.87 373.17 15.34 370.36 14.01 367.28 12.85 363.2 9.01 358.66 12.88 352.94 16.3 351.28 19.82 348.45 21.56 346.71 22.05 343.6 22.7 342.08 24.42 340.15 24.53 337.87 25.35 335.66 26.84 333.44 26.6 332.55 28.1 330.28 27.85 326 30.03 319.94 28.86 316.23 29.06 315.31 27.87 313.69 27.86 311.5 24.77 307.27 24.25 302.79 26.2 301.19 29.13 297.27 31.27 293.85 32.72 289.86 31.9 287.4 31.93 284.57 31.37 280.73 32.49 274.84 32.46 273.46 37.18 273.06 39.38 270.07 40.54 269.21 42.08 269.35 42.88 265.37 44.71 260.14 48.83 259.19 51.93 254.51 51.58 251.74 50.11 249.62 47.75 244.56 45.8 242.67 43.51 239.56 44.33 237.09 42.44 230.27 42.84 228.38 41.3 224.3 39.41 221.53 37.7 219.98 37.01 214.23 38.47 211.47 39.69 207.41 41.02 204.78 41.87 201.98 45.33 200.09 47.91 195.82 51.17 191.04 51.81 188.34 50.84 184.05 50.59 181.22 54.04 178.28 56.64 180.04 62.35 179.59 64.95 179.89 67.99 178.3 73.51 178.17 77.28 179.78 81.05 180.33 83.66 179.78 84.35 177.31 85.72 175.83 88.07 175.76 87.9 174.68 90.15 172.9 93.14 176.3 93.15 177.55 94.58 178.84 93.82 180.67 93.92 183.06 95.86 184.65 95.77 186.67 96.42 188.6 97.72 189.81 98.85 189.35 101.58 191.37 101.14 193.28 101.51 196.28 100.91 199 102.31 201.01 105.65 203.2 108.48 204.67 108.04 206.7 109.56 209.25 113.47 210.79 116.92 215.02 117.66 217.11 121.29 219.52 121.35 221.55 122.02 223.7 123.7 226.62 128.51 227.75 131.54 227.59 134.05 230.24 134.6 232.12 136.33 233.31 139.24 233.78 143.72 234.99 146.31 234.03 147.71 231.4 151.1 231.83 153.29 231.6 154.13 232.44 155.73 232.09 157.4 233.5 159.12 233.82 161.04 232.84 166.57 234.53 168.52 236.19 172.83 235.37 176.12 235.58 176.13 233.16 177.88 230.61 178.11 228.67 179.64 227.3 181.67 227.02 183.47 228.55 187.53 228.2 189.6 226.71 194.73 224.55 194.39 227.03 Z" id="34570360"/>
<path d="M 255.08 209.18 250.42 211.53 247.56 211.81 241.56 214.38 236.9 214.96 230.54 216.51 223.78 218.55 222.53 218.35 219.43 219.06 217.75 220.25 216.33 220.01 210.13 221.37 206.99 222.41 203.1 224.57 202.8 224.31 196.07 228.15 194.39 227.03 194.73 224.55 189.6 226.71 187.53 228.2 183.47 228.55 181.67 227.02 179.64 227.3 178.11 228.67 177.88 230.61 176.13 233.16 176.12 235.58 172.83 235.37 168.52 236.19 166.57 234.53 161.04 232.84 159.12 233.82 157.4 233.5 155.73 232.09 154.13 232.44 153.29 231.6 151.1 231.83 147.71 231.4 146.31 234.03 143.72 234.99 139.24 233.78 136.33 233.31 134.6 232.12 134.05 230.24 131.54 227.59 128.51 227.75 123.7 226.62 122.02 223.7 121.35 221.55 121.29 219.52 117.66 217.11 116.92 215.02 113.47 210.79 109.56 209.25 108.04 206.7 108.48 204.67 105.65 203.2 102.31 201.01 100.91 199 101.51 196.28 101.14 193.28 101.58 191.37 98.85 189.35 97.72 189.81 96.42 188.6 95.77 186.67 95.86 184.65 93.92 183.06 93.82 180.67 94.58 178.84 93.15 177.55 93.14 176.3 90.15 172.9 91.42 169.85 91.96 167.23 95.02 164.62 99.2 163.03 100.82 161.78 99.58 157.42 102.99 152.38 103.11 149.71 101.96 146.49 102.45 145.46 102.44 140.48 101.64 138.57 101.68 135.44 100.77 133 101.18 127.93 98.28 125.89 97.86 123.03 99.36 119.37 100.97 117.76 104.99 115.98 107.62 116.59 109.48 116.42 110.61 118.58 112.43 118.3 115.37 121.88 117.06 123.46 118.71 123.77 119.36 125.9 120.5 127.74 120.85 130.16 123.31 130.85 125.17 133.36 126.3 131.97 126.95 130.01 130.8 130.21 133.38 130.9 134.92 129.88 136.19 132.96 138.27 133.12 142.12 136.63 142.18 129.34 140.59 126.36 141.57 123.89 141.31 121.07 138.18 119.61 136.28 119.28 135.23 117.32 132.97 114.93 131.02 114.1 130.58 109.63 130.69 107.61 134.08 101.53 136.13 99.63 137.21 96.72 138.4 95.84 134.91 91.51 134.03 86.65 136.48 82.19 138.6 81.72 142.62 82.29 143 80.34 142.81 76.68 143.25 74.28 145.23 74.63 147.12 72.99 147.71 71.52 149.61 71.24 149.67 72.57 150.89 75.36 152.6 76.86 153.82 80.91 155.23 81.83 155.78 83.72 156.82 84.56 160.72 84.83 161.56 86.63 163.27 86.19 166.67 84.58 166.99 82.73 168.73 78.82 171.28 76.46 173.08 68.42 174.08 65.7 173.89 64.08 174.91 59.77 176.5 59.47 179.04 57.67 181.06 58.11 183.08 56.48 185.62 53.57 188.29 53.45 189.38 51.57 191.83 51.32 196.69 52.23 197.55 51.84 199.25 54.36 202.09 55.56 203.81 57.87 205.55 56.09 208.69 51.65 213.42 55.51 212.84 58.58 213.49 61.45 214.21 62.24 215.87 58.53 216.17 53.33 216.55 52.43 221.44 50.71 223.94 50.47 226.51 49.02 227.17 49.54 229.71 54.77 227.55 56.02 227.71 57.35 225.22 59.94 223.11 63.78 226.41 66.53 226.4 70.29 225.24 71.51 225.12 73.58 223.49 75.96 224.12 78.92 224.28 83.64 222.13 84.48 221.49 86.42 223.22 88.95 220.75 90.9 217.38 91.9 216.75 93.87 217.7 95.63 216.39 97.19 218.05 100.8 220.58 104.21 221.79 107.42 221.61 109.25 222.87 112.05 224.74 113.89 226.85 117.03 226.8 118.89 228.53 121.16 225.55 125.14 223.56 126.42 224.55 127.83 226.02 127.73 227.32 130.28 231.25 132.98 233.92 137.02 235.5 136.81 237.46 138.18 234.08 139.94 234.7 142.74 236.43 143.93 235.99 146.56 235.46 155.75 236.66 157.44 238.25 156.52 239.59 158.76 237.6 172.4 236.38 173.15 232.14 176.91 230.06 180.07 228.65 183.63 224 190.13 224.27 193.51 227.86 197.09 229.12 199.19 229.2 200.44 233.25 200.24 233.62 200.91 232.56 205.12 234.79 205.69 235.74 207.96 237.81 208.41 238.87 206.08 240.92 205.85 242.61 207.35 245.88 206.54 248.5 206.99 249.91 206.41 250.93 207.57 253.12 207.81 255.08 209.18 Z" id="34570370"/>
<path d="M 266.75 1.55 267.3 2.43 269.19 2.65 269.25 3.87 271.6 6.67 278.42 10.67 278.69 11.52 281.15 11.91 283.51 13.71 286.51 12.66 290.28 14.6 291.36 17.35 293.38 20.19 296.31 20.9 297.72 23.03 297.76 24.78 299.28 25.84 301.62 28.43 301.51 30.67 302.33 32.43 303.83 33.09 306.38 35.38 308.7 38.11 310.34 42.18 312.2 43.55 314.05 47.3 314.01 49.39 315.23 50.88 314.87 54.44 315.75 55.99 315.91 58.02 315.41 60.6 317.3 62.22 319.25 62.45 322.42 63.8 322.21 65.13 324.14 65.1 325.89 66.23 328.29 67.07 328 70.23 329.3 73.43 329.33 76.89 330.5 79.03 331.05 81.18 330.65 82.52 332.61 87.8 334.42 89.71 334.9 93.96 335.95 95.32 341.31 96.81 347.77 97.94 350.38 98.73 352.81 100.1 356.42 103.34 360.26 104.67 362.14 107.36 362.77 109.62 363.87 109.24 366.17 110.49 366.94 113.09 370.87 117.74 372.81 116.12 378.08 122.44 374.47 125.54 376.34 127.75 379.44 127.94 386.79 136.78 385.13 137.99 386.68 140.61 387.57 142.72 385.45 144.43 378.43 147.76 373.45 149.77 371.53 148.7 369.16 149.21 367.1 154.28 365.76 155.41 363.46 155.37 361.97 154.49 360.19 155.5 359.3 155.15 355.05 159.11 352.06 161.49 349.4 163.2 344.13 165.27 342.18 166.96 345.13 169.11 346.35 171.77 348.38 172.56 349.61 175.44 349.65 176.11 347.6 181.7 345.88 184.52 343.97 189.14 342.12 191.12 339.02 195.98 338.22 201.83 335.91 201.92 334.57 199.33 332.32 197.29 327.32 199.88 321.07 202.8 319.4 201.86 318.25 202.88 320 204 318.01 204.98 318.22 206.91 320.69 206.66 322.32 205.44 326.75 208.17 326.02 210.16 326.71 213.81 326.3 218.99 325.25 222.08 323.58 223.56 319.01 224.6 318.11 226.79 319.76 229.9 320.36 231.8 319.11 235.23 317.37 236.95 316.84 239.81 314.44 242.92 313.36 246.11 312.35 247.02 310.82 246.9 309.84 244.09 305.75 243.89 304.44 241.95 299.41 240.87 298.37 239.84 296.8 239.97 294.8 239.34 294.55 234.81 293.75 233.55 295.35 232.84 297.14 230.84 296.54 227.89 295.18 227.22 293.27 227.23 290.88 227.92 289.33 226.77 287.46 228.53 284.31 229.05 281.85 228 280.68 229.38 278.61 230.18 276.28 232.12 272.7 232.52 270.04 233.43 265.38 229.55 265.8 228.35 264.48 227.58 263.71 225.52 264.67 224.55 263.27 221.37 262.01 220.78 260.15 217.12 258.99 213.83 257.29 211.59 257.29 209.04 255.08 209.18 253.12 207.81 250.93 207.57 249.91 206.41 248.5 206.99 245.88 206.54 242.61 207.35 240.92 205.85 238.87 206.08 237.81 208.41 235.74 207.96 234.79 205.69 232.56 205.12 233.62 200.91 233.25 200.24 229.2 200.44 229.12 199.19 227.86 197.09 224.27 193.51 224 190.13 228.65 183.63 230.06 180.07 232.14 176.91 236.38 173.15 237.6 172.4 239.59 158.76 238.25 156.52 236.66 157.44 235.46 155.75 235.99 146.56 236.43 143.93 234.7 142.74 234.08 139.94 237.46 138.18 235.5 136.81 233.92 137.02 231.25 132.98 227.32 130.28 226.02 127.73 224.55 127.83 223.56 126.42 225.55 125.14 228.53 121.16 226.8 118.89 226.85 117.03 224.74 113.89 222.87 112.05 221.61 109.25 221.79 107.42 220.58 104.21 218.05 100.8 216.39 97.19 217.7 95.63 216.75 93.87 217.38 91.9 220.75 90.9 223.22 88.95 221.49 86.42 222.13 84.48 224.28 83.64 224.12 78.92 223.49 75.96 225.12 73.58 225.24 71.51 226.4 70.29 226.41 66.53 223.11 63.78 225.22 59.94 227.71 57.35 227.55 56.02 229.71 54.77 227.17 49.54 226.51 49.02 227.8 46.27 228.99 42.74 229.12 34.47 231.69 31.77 232.63 28.58 233.58 28.22 233.18 19.51 232.93 18.33 229.47 17.56 228.85 13.57 229.25 12.05 231.18 9.1 232.79 7.9 234.72 7.68 238.32 4.93 240.21 5 241.78 6.05 245.47 3.37 246.62 4.15 245.56 7.9 247.98 8.27 252.83 4.71 253.83 3.57 257.4 3.53 258.09 1.37 259.78 1 263.48 2.07 266.75 1.55 Z" id="34570380"/>
<path d="M 376.49 205.26 378.03 203.18 379.74 202.09 379.43 200.29 381.41 196.33 378.16 195.15 377.25 196.39 356.23 180.96 355.63 180.11 352.08 178.37 349.61 175.44 348.38 172.56 346.35 171.77 345.13 169.11 342.18 166.96 344.13 165.27 349.4 163.2 352.06 161.49 355.05 159.11 359.3 155.15 360.19 155.5 361.97 154.49 363.46 155.37 365.76 155.41 367.1 154.28 369.16 149.21 371.53 148.7 373.45 149.77 378.43 147.76 385.45 144.43 387.57 142.72 386.68 140.61 390.17 137.22 392.1 133.27 394.9 129.67 394.06 128.64 395.79 127.16 395.04 126.27 400.57 121.68 400.9 122.29 404.16 117.69 407.04 114.79 409.06 113.17 408.8 111.82 410.62 110.27 409.88 109.38 417.56 102.96 419.77 105.6 427.54 99.15 426.79 98.28 432.46 93.49 433.46 94.41 438.67 96.11 439.22 96.81 442.24 97.77 445.78 97.35 447.81 94.94 448.57 92.53 448.01 89.69 445.08 84.94 443.12 83.08 444.89 81.59 442.18 77.84 445.81 74.81 446.54 75.69 448.78 73.85 452.34 76.35 453.87 78.22 455.14 81.25 456.9 82.96 460.94 86.04 465.8 87.63 466.49 86.98 470.45 80.55 472.68 79.02 474.94 78.19 479.99 75.76 482.77 75.05 485.51 73.76 488.48 72.79 490.49 72.8 492.37 72.14 493.49 70.61 495.62 69.05 489.29 61.56 486.66 63.81 473.92 48.82 479.27 44.11 484.08 49.79 487.73 46.69 492.54 52.39 495.61 49.79 497.13 51.6 501.61 50.22 502.97 50.32 503.93 49.18 505.36 50.98 511.34 46.15 517.01 46.49 513.03 52.72 511.88 60.78 510.75 72.41 507.89 72.99 507.17 74.74 505.52 76.04 504.61 78.36 504.29 81.7 504.9 83.74 507.22 85.3 508.05 85.06 510.48 87.41 509.1 91.17 508.23 100.75 510.59 107.92 507.91 108.08 511.88 111.67 514.97 112.85 518.98 113.36 522.53 111.81 522 117.33 520.96 121.31 521.28 124.76 522.43 128.9 524.57 131.25 528.44 133.03 530.48 134.76 534.93 131.44 538.36 130.35 540.29 130.26 542.67 131.62 543.15 133.85 543.11 137.96 546.74 140.4 547.31 141.46 547.99 143.03 547.74 145.73 546.46 146.45 542.42 146.29 539.81 146.76 539.23 147.69 540.9 151.27 543 154.7 542.95 159.58 542.4 160.91 540.89 161.68 535.7 165.68 527.94 173.24 527.03 174.55 527.32 178.33 526.44 178.89 523.4 178.82 521.04 176.93 519.74 174.38 517.61 172.88 514.92 173.45 513.68 174.36 511.7 176.94 512.32 178.95 512.41 181.72 511.88 183.41 509.03 185.75 505.03 186.2 503.14 187.34 501.65 189.74 501.04 192.68 502.07 194.44 508.09 200.6 510.12 201.17 511 203.43 510 205.06 506.16 207.5 499.18 213.59 496.94 217.11 497.04 219.46 498 222.87 500.22 226.69 500.62 231.11 500.02 235.23 500.04 238.08 499.48 243.14 497.9 245.61 494.97 246.67 489.01 246.38 489.67 243.11 483.63 241.95 484.07 239.63 479.55 238.75 479.12 239.57 476.4 239.25 471.81 239.85 468.08 238.96 465.77 239.71 465.01 240.77 460.99 231.52 461.72 231.61 464.08 228.41 465.77 227.27 463.32 225.97 462.5 224.14 459.02 223.21 457.36 224.15 455.69 222.99 455.26 220.22 454.39 219.69 450.53 214.14 449.12 212.91 445.66 208.76 443.41 205.65 439.39 202.06 436.13 200.9 433.05 204.64 431.3 208.94 430.58 212.18 427.67 210.48 424.84 209.83 422.11 208.66 416.95 204.7 413.91 201.14 412.27 200.64 405.15 200.72 401.83 199.06 400.24 199.04 394.78 199.95 394.03 202.92 392.64 204.63 392.22 206.37 390.72 207.38 389.04 209.79 388.59 211.86 385.15 213.87 383.19 212.84 381.81 209.11 378.73 208.36 377.18 207.49 377.98 206.36 376.49 205.26 Z" id="34570390"/>
<path d="M 479.12 239.57 478.4 241.47 476.93 243.04 475.53 245.51 475 248.24 474.63 252.65 483.93 254.4 482.93 257.83 484.47 259.29 485.41 258.73 486.49 262.04 486.65 265.47 486.3 272.1 486.66 273.55 486.56 277.86 488.84 285.41 488.59 290.07 485.22 290.43 483.27 291.49 480.41 294.07 478.36 296.97 477.93 298.51 478.2 302.66 478.07 305.11 477.15 305.09 476.93 311.02 477.74 313.19 480.35 317.47 482.68 316.19 483.48 317.54 485.29 316.73 486.42 318.34 488.7 317.14 493.25 317.43 494.4 320.82 495.34 326.06 495.21 329.5 494.77 331.54 494.32 336.74 494.67 341.8 494.19 345.84 492.44 348.91 491.97 349.22 484.85 351.16 482.08 352.36 478.31 355.03 474.95 356.84 470.65 360.51 467.18 361.44 466.61 359.94 463.2 361.36 461.07 361.49 460.52 362.33 457.46 362.97 452.15 362.34 450.67 364.34 449.44 365 447.51 364.81 444.28 365.78 442.71 366.9 440.97 366.66 438.37 368.78 437.15 372.7 438.14 376.3 435.7 376.99 432.34 378.86 428.89 378.07 427.12 376.41 426.58 374.29 426.77 372.65 425.4 371.65 423.45 371.39 421.83 366.89 422.36 364.6 419.69 362.87 418.28 359.26 417.29 357.93 414.3 358.64 409.11 356.03 407.4 356.62 405.52 358.45 404.86 360.27 402.9 360.14 400.59 358.4 398.11 358.42 394.2 356.2 393.36 353.4 391.47 352.09 390.15 349.01 387.47 351.16 382.25 350.43 381.83 347.91 379.91 346.79 380.91 344.86 378.53 343.52 377.86 344.15 375.46 342.54 375.96 340.69 376.91 339.01 377.39 336.62 377.27 326.76 372.12 326.91 371.94 319.59 376.7 319.5 376.44 307.38 377.02 306.96 377.86 300.73 377.23 298.67 374.25 295.05 373.97 289.95 369.92 287 363.67 285.91 361.38 285.02 359.19 282.91 358.25 280.79 356.64 279.93 359.52 278.3 361.41 276.53 361.6 274.97 360.51 273.49 361.2 269.45 362.4 269.65 364.31 268.08 365.89 264.21 365.86 262.87 364.61 261.83 363.21 259.25 364.35 255.51 363.03 251.73 362.04 250.56 360.69 250.58 358.82 249.44 359.99 247.72 358.68 246.2 358.96 243.51 359.68 242.68 358.95 241.08 359.07 239.18 357.63 236.46 357.88 234.79 357.1 233.65 356.52 230.73 355.62 229.71 359.82 224.12 360.06 222.42 362.54 221.99 367.88 215.56 369.29 212.72 372.37 208.68 373.18 209.12 375.64 204.64 376.49 205.26 377.98 206.36 377.18 207.49 378.73 208.36 381.81 209.11 383.19 212.84 385.15 213.87 388.59 211.86 389.04 209.79 390.72 207.38 392.22 206.37 392.64 204.63 394.03 202.92 394.78 199.95 400.24 199.04 401.83 199.06 405.15 200.72 412.27 200.64 413.91 201.14 416.95 204.7 422.11 208.66 424.84 209.83 427.67 210.48 430.58 212.18 431.3 208.94 433.05 204.64 436.13 200.9 439.39 202.06 443.41 205.65 445.66 208.76 449.12 212.91 450.53 214.14 454.39 219.69 455.26 220.22 455.69 222.99 457.36 224.15 459.02 223.21 462.5 224.14 463.32 225.97 465.77 227.27 464.08 228.41 461.72 231.61 460.99 231.52 465.01 240.77 465.77 239.71 468.08 238.96 471.81 239.85 476.4 239.25 479.12 239.57 Z" id="34570400"/>
<path d="M 654.53 261.25 651.94 262.1 652.05 264.82 649.59 264.84 648.01 263.99 645.81 261.38 638.3 260.06 636.7 263.32 633.33 265.16 633.15 266.73 631.17 267.32 627.95 269.74 626.51 271.7 624.83 271.68 622.9 272.56 621.39 272.59 619.45 275.97 617.97 276.94 614.73 280.82 610.71 282.09 610.38 283.04 606.82 284.34 606.51 285.36 599.73 285 599.29 286.24 596.57 288.95 596.71 292.01 594.05 296.78 593.28 297.33 591.49 300.73 589.52 303.09 587.56 308.62 589.48 311.88 590.21 312.03 591.62 314.31 589.52 315.73 590.21 318.37 589.93 319.61 592.64 322.44 593.17 326.51 594.3 328.62 593.81 329.59 594.01 332.24 595.46 333.17 595.06 336.2 593.15 338.68 589.29 341.97 586.35 343.67 583.41 342.25 578.91 342.3 576.49 344.54 576.13 347.06 570.93 349.58 569.4 349.38 568.15 351.42 563.95 349.44 562.51 350.22 562.09 353.03 560.24 354.18 556.73 354.41 553.22 355.21 550.56 356.91 543.9 354.77 542.4 356.49 537.79 356.65 535.89 355.47 534.26 353.43 534.3 351.61 532.42 349.97 530.47 350.84 528.6 350.15 526.55 351.95 525.7 354.74 522 352.8 516.16 353.01 513.72 353.8 511.32 356.4 509.81 354.26 508.07 353.17 507.01 355.02 507.12 356.63 505.62 358.37 503.81 357.76 501.61 356.23 500.5 353.53 498.95 352.42 496.46 352.8 492.44 348.91 494.19 345.84 494.67 341.8 494.32 336.74 494.77 331.54 495.21 329.5 495.34 326.06 494.4 320.82 493.25 317.43 488.7 317.14 486.42 318.34 485.29 316.73 483.48 317.54 482.68 316.19 480.35 317.47 477.74 313.19 476.93 311.02 477.15 305.09 478.07 305.11 478.2 302.66 477.93 298.51 478.36 296.97 480.41 294.07 483.27 291.49 485.22 290.43 488.59 290.07 488.84 285.41 486.56 277.86 486.66 273.55 486.3 272.1 486.65 265.47 486.49 262.04 485.41 258.73 484.47 259.29 482.93 257.83 483.93 254.4 474.63 252.65 475 248.24 475.53 245.51 476.93 243.04 478.4 241.47 479.12 239.57 479.55 238.75 484.07 239.63 483.63 241.95 489.67 243.11 489.01 246.38 494.97 246.67 497.9 245.61 499.48 243.14 500.04 238.08 500.02 235.23 500.62 231.11 500.22 226.69 498 222.87 497.04 219.46 496.94 217.11 499.18 213.59 506.16 207.5 510 205.06 511 203.43 510.12 201.17 508.09 200.6 502.07 194.44 501.04 192.68 501.65 189.74 503.14 187.34 505.03 186.2 509.03 185.75 511.88 183.41 512.41 181.72 512.32 178.95 511.7 176.94 513.68 174.36 514.92 173.45 517.61 172.88 519.74 174.38 521.04 176.93 523.4 178.82 526.44 178.89 527.32 178.33 527.03 174.55 527.94 173.24 535.7 165.68 540.89 161.68 542.4 160.91 542.95 159.58 543 154.7 540.9 151.27 539.23 147.69 539.81 146.76 542.42 146.29 546.46 146.45 547.74 145.73 547.99 143.03 547.31 141.46 549.11 141.17 551.29 142.71 552.91 142.21 553.95 143.72 556.32 144.05 558.83 142.53 560.09 143.88 561.84 144.26 565.78 146.8 565.8 147.78 564.22 149.38 565.27 151.87 562.36 153.14 561.16 154.15 562.3 156.78 564.94 158.9 566.52 162.37 566.11 164.8 566.42 166.53 567.83 168.39 567.83 169.96 571.86 173.04 573.33 173.61 573.93 174.91 574.14 178.29 573.72 179.92 575.39 184.93 577.48 184.96 579.5 187 581.76 191.65 585.59 192.87 588.56 193.5 591.42 195.41 595.73 194.09 596.55 193.48 598.54 194.9 599.56 194.73 601.63 192.71 605.04 191.54 608.41 191.3 613.81 189.06 615.6 187.95 618.8 186.79 620.65 187.1 622.56 186.61 626.5 191.62 626.75 196.03 631.13 201.19 632.9 202.76 633.75 204.41 635.89 205.69 638.49 204.36 640.85 204.45 642.25 205.79 645.82 206.77 647.44 208.2 646.38 209.43 646.64 211.83 648.65 215.23 648.98 217.43 647.75 219.33 648.07 223.49 649.16 224.23 652.24 223.97 654.87 228.53 656.07 229.37 656.31 232.86 655.59 235.05 655.51 237.27 656.92 237.64 661.21 242.52 659.21 243.12 656.6 246.9 656.57 249.7 655.32 253.17 655.16 254.79 654.09 255.5 653.94 258.49 654.53 261.25 Z" id="34570110"/>
</g>
</svg>