<?xml version="1.0"?>
<svg xmlns="http://www.w3.org/2000/svg" version="1.2" baseProfile="tiny" width="800" height="644" viewBox="0 0 800 644" stroke-linecap="round" stroke-linejoin="round">
<g id="dong">
<path d="M 470.83 400.93 470.91 401.83 469.69 402.47 468.82 402.17 469.22 401.21 470.83 400.93 Z M 2.66 396.72 3.61 396.98 3.82 397.74 3.56 398.15 4.19 399.59 4.6 399.79 5.41 401.45 6.15 402.43 4.67 402.3 4.37 401.33 3.42 400.45 3.16 399.67 2.19 398.17 1.35 397.86 1 397.04 2.33 397.17 2.66 396.72 Z M 27.13 389.46 27.62 390.5 26.88 390.56 27.13 389.46 Z M 29.53 388.94 29.88 389.46 30.54 389.02 31.03 389.14 31.31 390.02 32.47 390.81 32.55 392.3 32.84 392.89 33.43 393.24 33.17 393.92 34.17 394.84 34.36 395.64 34.9 395.86 35.22 396.65 36.37 397.38 36.55 398.41 35.11 398.31 34.55 397.35 33.58 397.4 32.75 397.06 31.97 395.58 32.01 394.82 31.39 394.09 30.19 394.89 29.94 393.78 29.36 394.47 28.67 393.57 29.01 391.94 28.67 391.41 27.97 391.55 28.08 390.37 28.55 390.09 28.75 389.26 29.53 388.94 Z M 19.53 385.24 19.35 386.21 19.52 386.78 18.52 387.55 18.12 386.79 18.21 386.12 17.46 385.85 16.12 384.57 15.94 383.74 16.49 382.82 17.82 382.4 18.96 382.85 19.39 383.61 19.53 385.24 Z M 487.58 377.56 488.27 377.66 488.51 378.35 488.27 378.96 487.7 379.35 486.47 378.83 487.58 377.56 Z M 154.26 378.5 155.19 379.48 156.98 379.23 159.28 379.49 159.43 380.09 158.98 380.88 157.75 381.65 156.57 381.97 155.18 382.05 155.07 382.35 153.89 382.78 154.04 383.15 152.76 383.33 152.46 382.22 152.36 381.06 152.6 380.22 153.03 380.29 153.25 379.37 152.53 379.39 152.61 378.77 154.26 378.5 Z M 489.64 373.47 490.41 373.86 490.14 374.52 489.59 374.71 489.34 373.55 489.64 373.47 Z M 522.91 371.2 523.79 371.15 523.92 372.85 523.25 373.79 522.61 373.18 521.89 373.12 521.4 372.57 521.5 371.72 522.91 371.2 Z M 136.4 364.08 136.45 364.69 135.9 366.66 136.64 367.68 136.58 368.5 137.56 368.68 137.88 369.59 139.76 369.95 142.44 370.02 142.98 370.98 143.92 371.29 143.94 371.7 142.95 371.78 142.05 372.2 141.18 371.35 141.07 370.83 139.57 370.52 138.2 370.99 136.52 370.5 136.21 369.55 134.79 369.43 134.13 368.57 133.4 368.18 133.13 367.59 133.25 366.85 133.95 366.63 134.2 365.55 135.41 364.78 135.53 364.3 136.4 364.08 Z M 419.78 362.4 420.19 364.74 419.67 365.35 418.78 365.61 418.08 366.32 417.36 366.44 416.75 365.93 416.8 365.15 417.3 365.14 418.31 363.73 419.78 362.4 Z M 276.37 355.19 276.87 356.24 277.3 356.52 277.39 357.45 276.83 357.58 276.27 357.03 276.37 355.19 Z M 277 353.96 276.6 354.86 275.99 354.37 277 353.96 Z M 273.57 352.56 274.17 353.04 273.72 353.52 272.95 353 273.57 352.56 Z M 254.76 347.83 255.57 348.35 255.46 349.24 254.87 349.59 254.64 350.38 254.08 350.61 253.16 350.56 251.7 349.94 251.76 349.19 254.22 348.93 254.76 347.83 Z M 468.69 348.12 468.47 348.67 466.57 348.22 466.81 346.82 467.35 346.6 468.69 348.12 Z M 442.83 341.94 442.78 342.46 443.85 343.25 444.01 344.17 443.63 344.78 443.07 344.36 441.83 345.04 441.42 344.83 441.44 343.85 440.6 343.55 441.8 342.13 442.83 341.94 Z M 285.47 342.24 286.78 343.84 286.21 344.99 286.75 345.7 287.7 345.81 288.76 346.43 288.36 347.11 287.04 347.12 286.55 346.93 286.22 346.24 285.54 346.78 284.22 347.2 283.94 346.78 283.94 345.69 283.36 343.5 283.72 342.94 285.27 342.5 285.47 342.24 Z M 184.38 342.23 184.88 343.04 185.97 343.94 186.34 344.55 186.19 345.12 185.31 346.17 184.5 346.05 184.22 345.02 184.36 344.25 183.23 343.77 183.03 343.45 183.34 342.55 184.38 342.23 Z M 184.01 341.55 184.11 341.95 182.71 342.57 182.64 342.12 184.01 341.55 Z M 579.53 337.65 579.91 339.14 579.34 339.09 578.88 338.53 578.71 337.7 579.53 337.65 Z M 566.3 337.03 566.66 337.93 565.7 338.64 565.58 337.55 566.3 337.03 Z M 547.85 336.85 547.79 337.37 548.41 338.85 547.18 339.47 547.09 338.91 547.85 336.85 Z M 603.03 322.48 603.55 322.73 603.2 323.43 602.43 322.97 603.03 322.48 Z M 531.78 321.22 532.01 321.45 531.72 322.7 532.51 323.83 532.62 324.37 532.12 324.98 532.91 327.07 534.29 327.24 535.1 326.66 535.88 324.9 537.65 323.63 538.28 324.65 539.68 324.78 541.34 323.97 542.33 323.75 542.71 324.11 543.51 323.29 543.86 323.56 543.86 324.35 544.97 326.2 545.3 327.78 545.66 328.18 545.28 328.99 545.58 330.59 543.85 330.82 544.03 332.06 544.68 332.44 545.1 333.1 546.56 333.01 546.86 332.67 547.87 332.93 547.77 333.63 547.1 334.8 545.63 334.86 543.98 334.57 543.43 334.8 543.33 335.75 542.5 336.07 542.37 336.99 541.37 336.72 540.55 336.12 539.53 336.44 538.69 337.35 539 338.3 538.47 339.08 536.76 339.6 536.45 340.1 536.67 340.85 535.85 342.11 534.2 340.68 533.58 340.81 533.38 339.98 532.26 338.37 531.87 338.16 530.27 338.43 529.92 338.77 529.73 340.3 529.91 340.92 529.4 341.49 529.33 342.19 528.88 342.81 528.25 342.48 528.35 341.2 527.61 340.57 527.53 339.97 528.08 339.22 528.89 338.72 528.54 337.23 526.73 336.14 526.84 335.91 528.64 336.78 531.25 336.99 532.86 334.93 532.93 330.33 531.04 328.4 531.98 326.75 531.61 325.44 531.91 324.13 531.28 323.88 529.78 324.09 528.96 325.28 529.04 326.42 529.79 327 529.64 327.47 528.58 328.61 527.6 328.46 527.05 327.92 526.19 328.11 524.63 329.29 524.49 330.19 524.83 330.86 524.44 331.98 523.81 332.11 522.99 331.8 522.06 331.87 521.76 330.97 522.28 330.43 523.45 330.33 523.34 329.42 523.53 328.6 523.43 327.07 524.05 326.44 525.02 326.18 526.83 325.07 527.54 323.28 527.36 322.6 528.55 321.69 529.66 321.82 530.48 321.39 531.78 321.22 Z M 485.4 316.36 486.55 317.05 487.01 316.59 488.78 318.27 489.13 319.42 488.44 320.07 488.18 320.99 487.72 321.33 487.19 322.26 486.85 324.3 486.55 325.2 487.05 325.91 487.98 326.71 489.64 327.3 489.3 330.07 488.69 330.52 488.09 330.57 487.81 330.08 487.07 329.93 486.05 330.4 486.45 331.65 485.45 332.45 484.27 332.35 482.87 333.27 483.06 335.54 483.48 335.57 483.93 336.39 483.79 337.55 483 337.68 482.33 336.72 481.91 336.61 480.18 336.99 479.68 337.63 479.78 338.35 479.37 339.21 478.88 339.46 478.18 340.64 477.95 339.86 478.2 338.35 477.68 338.03 477.13 338.31 476.34 338.09 475.17 337.06 473.43 336.95 472.18 337.94 471.21 337.59 470.66 337.79 469.98 337.48 469.08 338.12 468.27 337.86 467.65 338.2 466.34 337.88 466.03 337.43 465.06 337.34 463.77 337.44 463.2 338.26 462.37 338.87 461.49 340.58 460.43 341.9 460.27 342.73 459.66 342.73 459.2 342.23 458.15 342.47 457.81 342.99 456.56 342.76 456.28 341.28 455.82 340.58 454.39 340.33 454.62 339.12 454.23 338.62 454.79 337.9 455.61 337.29 456.35 337.6 457.37 337.32 458.04 336.25 458.59 336.01 459.09 335.03 459.83 334.73 460.01 334.26 461.32 333.62 462.87 333.69 463.41 334.08 463.95 333.58 463.72 332.92 465.21 331.76 465.16 331.13 466.54 329.37 467.16 329.41 468.7 330.11 471.75 330.37 471.98 331.3 472.57 331.07 472.74 331.93 473.14 331.95 474.59 330.54 475.85 330.43 476.24 331.38 476.87 331.22 477.02 330.52 477.89 329.86 479.59 329.62 479.68 328.37 480.06 327.69 481.15 327.25 482.36 326.01 483.14 325.66 485.42 325.1 485.3 324.68 485.8 324.08 485.65 322.32 484.42 321.35 483.86 320.29 484.49 318.54 484.67 316.59 485.4 316.36 Z M 364.94 276.89 365.71 276.94 365.84 277.46 364.94 278.82 365.1 279.7 365.98 280.14 366.51 280.78 365.1 281.57 365.18 281.96 363.42 282.12 362.56 282.68 362.15 281.53 361.43 280.57 360.08 279.51 360.44 278.57 361.29 278.06 361.8 278.21 362.55 277.79 363.26 277.04 364.94 276.89 Z M 643.57 234.84 643.29 235.73 643.73 236.65 644.68 237.31 644.91 238.39 646.72 239.86 648.47 242.22 649.38 243.87 649.57 244.57 650.92 245.38 650.99 246.08 651.7 246.49 651.94 249.55 652.77 250.7 653.55 252.21 654.12 253.66 654.7 253.94 655.26 255.32 656.03 256.36 657.25 255.63 658.43 255.89 659.39 256.75 659.51 257.67 659.34 258.5 659.96 259.81 660.18 261.45 659.61 262.77 658.83 263.82 658.79 265.37 657.8 266.79 657.78 267.65 657.45 268.66 657.5 269.31 658.39 270.08 657.86 272.38 658.17 272.86 657.54 274.23 655.44 274.09 654.39 274.66 653.68 274.76 652 275.81 650.76 277.44 649.67 278.27 648.7 279.56 648.42 280.38 647.53 281.81 646.59 283.92 645.75 284.8 644.02 285.15 643.18 284.96 642.38 285.31 642.31 286.55 641.77 287.64 641.36 289.14 640.08 289.02 638.86 288.72 637.38 288.71 636.88 288.9 636.56 289.56 636.36 291.24 635.68 292.86 635.24 293.41 634.47 291.84 634.71 291.32 633.59 290.38 633.14 289.42 633.02 288.54 632.64 288.37 631.17 288.36 629.27 288.6 627.33 289.04 626.74 289.98 626.63 291.05 627.21 292.67 626.08 292.5 625.27 289.98 624.19 289.5 623.81 288.84 623.05 288.38 621.31 288.61 621.06 289.38 620.71 292.88 619.79 297.31 619.85 298.27 620.48 299.02 620.24 300.2 620.76 301.29 621.87 301.86 622.9 302.07 624.8 301.7 625.84 302.63 625.93 303.11 625.46 304.41 624.77 305.09 624.11 306.06 622.47 305.53 620.86 305.69 620.05 306.33 618.87 306.75 617.69 307.69 617.37 308.86 619.11 309.97 617.97 310.61 617.36 311.38 618.54 312.75 618.24 313.53 617.13 313.86 615.84 313.18 614.72 313.67 614.21 314.9 615.5 315.66 616.67 316.09 616.65 316.66 614.12 315.18 612.42 314.78 611.28 314.72 610.14 315.24 609.92 315.55 610.28 316.41 609.6 316.99 608.95 316.37 607.96 316.08 605.23 315.72 602.57 314.96 601.18 314.99 599.29 315.42 598.2 316.05 597.29 316.98 596.84 317.84 597.64 318.14 597.37 319.52 598.25 320.37 598.24 321.04 597.73 321.85 596.26 321.89 595.06 322.66 594.99 323.46 594.28 323.04 593.04 323.01 591.78 323.26 589.96 324.13 588.75 325.33 588.33 326 589.12 327.08 590.28 327.33 590.28 328.24 589.55 329.04 588.76 328.94 587.55 328.41 586.63 329.46 587.52 330.87 588.41 331.47 588.4 332.16 587.92 332.86 587.84 333.96 587.29 334.11 587.04 335.32 586.16 336.8 585.81 336.5 585.79 335.69 585.23 335.03 584.31 334.54 582.66 334.52 581.29 335.21 580.65 335.14 579.2 335.69 578.3 335.58 578.14 334.32 575.84 332.89 574.42 332.64 573.05 332.6 572.63 332.19 571.06 332.41 570.79 332.97 570.58 334.44 569.86 334.65 568.48 334.68 567.68 334.09 567.63 333.52 567.04 333.01 566.57 331.68 565.57 331.04 564.02 330.6 563.13 330.77 562.48 332.05 562.52 332.82 561.83 332.92 561.01 332.47 560.36 332.72 559.49 331.88 558.33 332.24 558.11 333.92 557.44 334.1 556.92 332.55 555.59 331.95 554.11 331.68 552.6 332.34 551.67 332.32 550.04 333.52 550.07 332.66 549.07 331.47 547.39 330.82 547.14 330.54 547.33 329.22 547.67 328.22 548.38 327.33 546.75 321.72 546.24 321.04 546.21 318.09 546.35 316.75 545.91 316.32 545.77 314.69 545.13 314.44 545.66 313.22 546.66 312.85 546.84 310.93 546.04 310.04 545.35 307.86 544.8 307.34 544.66 306.15 544.03 305.69 542.99 305.88 542.7 305.59 542.92 304.5 544.06 304.29 544.76 303.96 544.89 303.43 545.93 302.53 546.79 302.52 547.16 302.19 548.31 302.08 549.49 302.4 551.33 301.78 551.93 302.23 553.96 301.76 555.99 300.35 557.18 299.33 557.32 298.98 557.19 297.48 556.83 296.45 554.41 296.25 554.26 295.85 555.56 294.83 556.08 294.72 556.85 293.96 556.94 293.42 558.09 292.51 559.21 291.96 559.4 290.54 560.86 289.14 562.83 289.23 563.85 290.44 565.48 290.75 565.95 291.17 566.96 291.01 568.26 289.76 568.5 289.94 568.63 291.14 568.94 292.07 569.89 292.64 571.1 292.56 572.18 292.29 573.06 292.63 574.3 292.66 575.32 293.03 575.88 294.08 576.34 294.49 576.8 295.6 576.47 296.31 581.04 298.44 584.88 301.1 585.29 301.64 585.95 301.44 587.57 301.92 588.32 302.57 589.33 302.45 596.41 302.73 597.87 300.87 600.54 299.94 600.98 300.02 602.12 299.44 602.41 298.96 605.02 296.83 605.78 296.58 610.68 288.75 610.91 287.66 610.9 286.7 610.51 284.47 610.6 283.81 610.01 283.74 603.5 278.35 602.72 278.94 601.83 279.18 600.09 280.57 599.36 280.22 598.54 280.86 597.47 281.4 596.6 282.53 594.47 284.15 593.27 284.63 592.08 284.87 592.62 282.65 592.44 281.84 592.8 281.21 593.04 279.5 594.09 278.33 594.56 278.23 595.27 277.19 596.88 276.76 598.05 275.77 598.92 274.47 599.03 273.9 598.59 273.48 599.69 271.87 600.29 271.52 600.84 270.31 600.78 269.45 601.23 267.51 601.78 266.33 601.86 265.51 602.66 263.98 604.75 261.26 604.24 260.13 606.83 258.57 606.96 258.39 605.65 256.21 607.23 255.25 607.05 254.75 608.67 254.16 609.3 252.67 609.25 252 610.04 250.79 610.16 249.93 610.62 249.18 609.23 248.04 608.28 247.52 608.65 245.98 607.67 245.31 607.02 243.77 606.82 242.34 605.58 243.11 604.47 244.02 603.73 243.98 603.12 243.54 603.42 243.05 603.58 240.78 603.34 239.77 604.49 239.17 606.62 238.28 606.76 236.75 607.49 236.71 608.42 237.7 609.31 237.96 610.16 239.27 610.66 239.32 611.77 238.77 613.84 240.21 614.68 240.57 615.71 240.55 616.17 241.12 617.65 242.35 618.33 241.77 619.43 242.05 620.22 241.7 620.5 241.13 620.02 239.2 620.98 238.13 621.96 236.13 623.54 234.46 624.55 233.85 626.57 235.25 628.6 235.41 629.43 235.24 630.7 235.45 632.4 235.5 634.24 236.11 634.82 236.44 635.6 237.54 635.86 239.91 636.43 242.68 637.17 242.34 639.44 242.75 640.16 242.21 640.16 240.49 640.56 240.19 640.71 238.89 640.48 237.63 642.49 234.73 643.57 234.84 Z" fill-rule="evenodd" id="34580330"/>
<path d="M 511.16 303.86 511.48 304.25 510.81 304.84 510.52 304.44 511.16 303.86 Z M 515.01 298.44 516.14 298.6 516.44 299.32 515.59 300.11 515.3 301.67 514.46 302.77 513.86 303.23 512.67 303.31 512.11 304.04 511.69 303.56 511.47 302.53 511.77 300.81 512.67 300.22 513.05 300.51 513.48 299.39 515.01 298.44 Z M 537.02 193.28 538.07 193.85 538.65 193.83 539.44 194.35 540.25 195.58 540.9 195.92 541.06 196.6 540.68 197.39 539.84 197.42 538.73 196.64 539.43 195.86 539.14 195.35 538.51 195.36 537.4 194.48 536.86 194.75 536.38 194.12 536.46 193.29 537.02 193.28 Z M 568.62 149.69 569.12 150.05 568.75 150.86 567.24 150.56 567.47 150.07 568.62 149.69 Z M 579.58 172.5 590.83 175.47 594.47 176.46 604.78 184.32 605.06 184.81 606.43 186.23 605.81 187.22 606.14 187.55 607.53 188.18 608.15 188.17 609.14 188.84 609.33 189.32 611.11 190.48 610.7 191.05 610.41 193.11 611.09 193.42 612.54 195.03 614.57 196.31 615.42 196.62 616.54 197.55 618.19 198.06 617.87 199.12 617.22 199.24 616.58 200.59 616.53 201.22 615.98 201.64 615.72 202.64 614.95 203.9 613.04 203.86 612.39 204.39 611.76 204.35 611.69 205.48 611.37 206.36 610.05 207.18 608.67 207.22 607.44 207.92 607.19 208.4 608.33 208.85 609.94 209.84 609.98 210.22 610.87 211.06 612.28 211.62 613.08 213.2 613.32 213.97 614.01 214.82 613.19 215.5 613.47 216.96 612.95 217.31 613.57 217.84 614.71 220.1 615.57 220.48 616.12 221.99 616.72 223.23 616.73 223.74 617.47 223.85 618.92 224.53 619.39 225.64 620.11 226.11 621.08 225.93 622.31 226.45 624.58 226.64 625.39 226.96 626.59 226.98 627.26 227.63 627.85 227.5 628.94 226.56 630.15 223.8 630.54 223.47 631.83 221.79 632.99 221.24 633.98 219.97 635.89 221.08 636.39 221.16 636.92 223.31 638.32 222.78 640.42 224.57 641.02 227 641.95 228.82 644.17 229.76 644.58 231.02 644.55 231.91 645.27 233.46 643.71 234.49 643.57 234.84 642.49 234.73 640.48 237.63 640.71 238.89 640.56 240.19 640.16 240.49 640.16 242.21 639.44 242.75 637.17 242.34 636.43 242.68 635.86 239.91 635.6 237.54 634.82 236.44 634.24 236.11 632.4 235.5 630.7 235.45 629.43 235.24 628.6 235.41 626.57 235.25 624.55 233.85 623.54 234.46 621.96 236.13 620.98 238.13 620.02 239.2 620.5 241.13 620.22 241.7 619.43 242.05 618.33 241.77 617.65 242.35 616.17 241.12 615.71 240.55 614.68 240.57 613.84 240.21 611.77 238.77 610.66 239.32 610.16 239.27 609.31 237.96 608.42 237.7 607.49 236.71 606.76 236.75 606.62 238.28 604.49 239.17 603.34 239.77 603.58 240.78 603.42 243.05 603.12 243.54 603.73 243.98 604.47 244.02 605.58 243.11 606.82 242.34 607.02 243.77 607.67 245.31 608.65 245.98 608.28 247.52 609.23 248.04 610.62 249.18 610.16 249.93 610.04 250.79 609.25 252 609.3 252.67 608.67 254.16 607.05 254.75 607.23 255.25 605.65 256.21 606.96 258.39 606.83 258.57 604.24 260.13 604.75 261.26 602.66 263.98 601.86 265.51 601.87 265.25 600.53 263.09 598.19 265.13 598.33 265.64 597.18 265.97 596.57 266.95 595.38 267.97 591.11 267.69 590.66 267.29 589.4 267.05 588.04 266.13 586.94 265.91 585.08 263.82 584.39 262.8 583.85 261.65 583.1 261.32 581.58 259.85 580.53 258.65 578.78 257.8 578.12 257.78 577.55 258.48 576.83 258.13 575.51 257.89 574.78 257.16 574.45 256.35 574.98 255.96 576.34 255.95 578.17 255.32 578.34 254.63 577.02 249.35 576.69 249.24 568.39 248.07 568.1 247.96 566.05 246.37 565.9 246.07 565.74 244.16 563.71 245.24 563.66 244.44 560.48 243.35 560.35 243.79 558.7 243.98 558.29 245.23 556.24 245.8 555.79 246.24 556.57 247.85 556.48 248.6 555.59 248.53 555.48 247.48 554.53 246.92 553.94 246.14 553.54 248.49 552.68 249.33 552.97 250.11 553.43 250.41 553.75 251.27 554.24 251.45 554.34 252.34 554.91 253.32 555.06 254.47 554.06 255.11 554.14 255.72 553.57 256.21 552.97 255.74 552.36 254.21 552.66 252.93 552.29 252.24 552.73 251.15 551.83 250.33 551.68 249.69 553.02 248.93 553.52 248.31 553.89 246.08 553.4 245.51 552.21 246.81 551.41 246.6 551.43 245.67 550.5 245.59 539.22 247.8 537.68 248.16 537.79 248.96 539.17 250.37 540.35 251.79 541.06 252.44 542.25 252.22 543.12 252.83 542.73 253.27 543.51 255.19 545.39 255.02 546.61 253.92 546.86 254.48 545.61 256.28 544.91 257.59 545.74 259.39 545.74 260.62 547.36 263.83 546.63 265.14 547.31 266.7 547.2 267.57 547.47 268.64 546.79 269.22 547.23 270.83 546.38 273.33 546.94 274.16 546.46 274.65 546.07 274.25 545.33 274.71 545.18 275.69 544.45 276.64 543.89 276.48 543.85 275.41 542.77 275.2 541.31 275.32 539.69 275.79 539.08 276.31 539.11 277.16 538.41 278.16 538.59 279.4 539.02 280.29 537.96 281.16 537.5 281.24 536.93 282.16 535.61 282.92 534.45 284.08 533.56 284.73 533.59 285.82 532.24 286.4 531.68 287.33 532 287.85 530.97 288.02 530.03 289.05 528.35 289.75 527.08 290.08 526.39 290.67 526.32 292.5 525.64 292.58 524.8 293.05 524.37 293.78 524.53 294.31 524.19 295.62 523.68 295.84 522.29 297.13 522.11 298.89 521.92 299.4 520.65 299.24 520.03 299.62 518.78 299.11 518.57 297.95 519.05 296.2 519.58 295.48 520.17 295.37 520.37 294.34 519.53 292.88 519.72 292.05 520.25 291.47 521.08 291.93 521.67 291.34 522.61 291.2 523.76 290.17 524.39 288.73 525.02 288.01 524.71 287.04 523.43 286.71 523.09 285.83 522.28 285.24 522.54 283.97 522.94 283.16 522.36 282.32 520.82 281.64 520.66 279.21 521.02 278.55 522.77 279.19 523.27 278.2 523.9 278.38 523.97 277.02 523.46 275.98 523.02 275.67 523.19 274.93 524.35 273.97 524.24 273.01 525.17 272.22 525.63 271.34 526.19 271.23 527.14 269.94 527 269.6 527.75 268.42 527.69 267.95 526.99 267.22 527.78 265.92 529.28 266.73 530.37 265.66 531.04 264.6 531.72 262.99 531.87 261.66 531.74 259.97 531.46 259.32 530.91 259.23 530.24 257.96 529.6 257.4 529.73 256.76 529.3 256.26 530.9 255.78 531.5 255.18 531.64 254.26 531.28 252.76 530.54 251.31 529.95 250.63 528.66 249.76 527.45 249.43 525.78 249.62 525.06 250.05 525.09 252.03 526.04 253.05 525.83 253.42 524.97 252.34 524.78 251.64 524.8 249.96 523.68 249.71 522.57 249.16 521.24 249.21 520.73 247.89 520.17 247.5 520.25 246.81 522.16 245.72 521.86 244.91 522.27 244.42 522.08 243.88 522.7 243.08 522.35 241.76 521.3 241.14 520.21 241.21 519.36 240.94 519.08 240.32 519.44 239.95 520.4 239.71 519.64 238.65 520.41 238.01 520.37 237.35 520.97 236.7 520.46 235.8 519.58 235.22 518.51 235.02 518.42 234.71 517.37 234.69 516.76 234.21 516.07 234.64 515.2 233.49 515.73 232.93 514.68 232.44 513.36 231.32 512.82 231.28 512.95 230.25 512.71 229.41 513.1 229.17 512.16 228.44 511.89 226.94 512.64 226.79 513.68 225.91 514.37 226.52 514.96 226.61 515.41 227.46 515.58 228.36 515.21 228.54 514.54 229.76 514.67 230.34 515.27 230.85 516.19 230.96 516.87 230.71 516.83 230.04 517.16 229.47 518.05 229.65 518.52 228.92 519.02 229.16 519.78 227.98 519.39 227.12 519.56 226.27 519.96 225.86 521.69 225.34 522.96 226.3 523.57 226.24 523.84 225.53 525.33 225.08 525.49 226.37 526.11 227.17 527 227.18 526.99 226.6 528.28 225.54 529.29 225.6 529.26 224.59 528.96 223.69 527.77 222.74 527.04 221.64 527.32 221.37 528.42 222.79 528.95 222.52 529.44 222.89 529.94 222.28 530.86 223.03 531.04 224.14 531.4 224.78 532.98 224.27 533.18 223.34 531.3 221.43 532.14 220.94 532.71 220.25 532.4 219.82 530.58 219.9 531.19 218.98 530.57 218.5 530.02 219.1 528.76 219.06 526.09 221.21 525.53 221.25 528.26 218.96 527.94 218.16 528.47 217.88 529.06 218.38 529.78 217.78 530.28 216.44 529.21 216.12 528.87 215.74 529.08 214.65 529.45 213.83 528.72 213 529.16 212.16 529.67 211.95 530.89 212.84 530.91 214 531.34 214.66 532.93 215.3 534.86 215.59 536.13 215.34 538.35 213.77 540.33 211.23 541.49 209.37 542.51 207.12 543.06 205.24 543.07 204.34 542.71 203.59 541.2 203.89 540.59 202.79 539.57 202.38 539.72 201.79 541.12 201.56 542.36 202.64 543.21 202.46 543.73 201.97 544.31 200.78 544.56 198.95 545.04 197.48 545.62 196.59 546.1 194.87 546.1 193.27 545.56 192.97 544.46 192.95 544.16 193.54 542.77 192.73 542.9 191.48 543.51 190.87 544.33 190.56 545.15 189.75 544.1 189.19 543.42 189.32 542.63 188.28 541.93 188.6 540.4 188 540.83 187.17 541.54 187.33 542.34 186.67 542.56 185.78 544.91 185.52 545.59 184.97 547.33 184.45 548.18 185.59 549.21 185.79 550.01 185.22 550.51 184.55 550.86 183.47 550.62 182.2 549.64 182.09 548.15 181.42 547.67 180.3 547.12 180.18 546.33 179.34 546.33 178.37 547.19 178.99 547.65 178.46 549.6 179.15 551.36 179.27 552.57 177.83 552.54 177.14 552.9 176.37 552.86 175.15 552.04 173.67 551.34 173.44 551.3 172.41 552.08 172.4 552.73 172.7 553.65 171.89 553.55 169.93 554.32 169.39 555.8 168.96 556.08 167.61 555.66 165.62 555.07 164.33 554.21 163.88 552.53 163.92 552.93 163.2 552.56 162.43 551.07 162.45 550.38 161.02 548.15 160.19 546.59 160.51 547.05 159.65 545.89 158.53 545.78 157.94 545.02 157.85 544.74 157.44 543.77 157.13 543.19 156.24 543.25 154.66 543.92 154.64 545.48 154.04 545.8 154.16 546.81 155.26 546.94 155.75 547.76 156.74 548.33 156.73 550.09 156.03 550.76 155.5 551.3 154.36 551.21 153.57 549.83 152.99 549.94 152.44 551.17 151.59 551.16 151.01 549.18 149.76 548.58 149.61 548.39 148.84 546.92 147.82 546.46 147.09 546.65 146.43 547.46 146.28 547.83 147.09 549.45 148.59 550.51 148.61 551.53 149.25 552.2 148.89 552.56 146.57 552.87 146.29 553.69 146.41 553.95 146.06 553.46 144.94 553.4 143.97 554.64 143.81 555.58 144.94 556.85 145.1 557.37 145.35 557.33 146.03 556.39 146.71 555.55 146.85 555.6 148.18 556.5 149.22 556.21 150 555.61 150.56 555.94 151.19 557.12 151.98 559.2 152.66 560.55 152.77 561.65 152.32 561.65 151.3 562.09 150.81 563.46 151.21 563.74 151.53 564.55 151.54 565.23 152.78 564.27 152.69 563.9 153.27 564.07 154.89 562.28 156.14 562.02 158 562.84 160.36 562.17 160.9 562.64 161.64 563.07 161.15 564.31 160.51 565.41 159.24 566.46 159.42 563.19 161.27 562.31 162.59 561.14 163.57 564.98 170.3 566.59 170.06 568.04 169.68 568.38 170.17 567.78 171.34 567.22 171.89 567.27 172.61 566.9 173.47 566.28 174.01 565.95 175.63 565.49 176.35 564.87 176.59 565.02 178.15 565.37 178.86 566.33 179.8 566.04 180.5 566.38 181.52 566.21 181.97 565.47 182.37 565.44 183.02 566.03 184.58 570.4 186.18 570.85 185.72 570.88 184.85 571.24 183.68 572.24 183.87 575.94 183.2 576.73 183.2 577.55 182.01 578.4 181.49 578.24 180.79 577.62 179.95 577.57 179.33 576.39 178.4 576.69 177.76 576.25 176.82 575.3 176.58 574.85 175.87 575.16 175.31 576.32 174.31 576.93 174.09 577.45 174.72 578.03 174.87 578.52 174.3 579.58 172.5 Z" fill-rule="evenodd" id="34580340"/>
<path d="M 711.09 181.98 713.8 185.82 717.23 191.81 722.54 197.79 723.46 199.01 723.17 199.22 725.58 202.33 726.2 206.01 726.68 206.78 728.83 209.47 730.89 210.57 731.33 211.18 730.13 211.17 729.78 210.85 728.62 211.83 728.76 212.37 728.35 212.89 727.25 213.03 727.52 214.63 727.21 215.77 726.68 216.55 726.4 218.34 725.42 218.79 725.16 219.63 723.74 220.2 722.68 222.76 722.8 224.88 723.48 226.75 723.69 227.76 723.69 229.9 723.27 231.05 723.72 232.02 724.15 232.41 724.56 233.72 724.61 234.84 723.82 236.56 723.85 237.06 723.37 237.85 723.26 238.88 722.51 240.16 722.62 241.7 722.33 243.88 721.72 244.71 720.63 245.69 721.92 245.69 721.75 247.18 722.81 249.19 720.51 248.59 718.03 257.81 714.88 259.2 714.65 259.22 712.78 260.73 712.45 260.73 712.42 262.68 713.18 264.08 714.06 265.22 717.57 262.77 718.35 264.01 718.41 266.61 718.27 267.87 718.57 269.59 720.3 274.86 720.8 279.46 720.84 293.32 719.43 295.46 721.04 331.3 724.35 352.31 701.81 328.65 694.92 319.36 691.13 316.59 689.47 314.78 688.73 314.17 688.26 313.09 688.25 312.16 687.64 311.31 686.55 308.21 685.41 307.7 684.85 308.78 681.56 307.25 680.5 306.24 676.95 301.69 674.57 298.97 673.29 295.91 672.46 295.2 670.71 295.53 670.82 295.03 669.19 294.67 668.63 294.31 667.11 294.29 666.12 294.09 665.3 293.6 665.04 293.13 663.36 293.19 663.07 292.96 662.92 291.86 662.61 291.53 661.17 291.61 659.43 292.62 658.95 292.2 658.35 290.97 658.27 290.41 658.66 289.68 658.74 288.44 658.12 286.7 658.43 285.93 657.61 285.57 656.39 285.43 655.07 282.81 655.63 281.18 656.27 280.91 656.24 279.4 657.36 278.98 660.71 277.44 660.93 275.88 658.67 275.19 658.17 272.86 657.86 272.38 658.39 270.08 657.5 269.31 657.45 268.66 657.78 267.65 657.8 266.79 658.79 265.37 658.83 263.82 659.61 262.77 660.18 261.45 659.96 259.81 659.34 258.5 659.51 257.67 659.39 256.75 658.43 255.89 657.25 255.63 656.03 256.36 655.26 255.32 654.7 253.94 654.12 253.66 653.55 252.21 652.77 250.7 651.94 249.55 651.7 246.49 650.99 246.08 650.92 245.38 649.57 244.57 649.38 243.87 648.47 242.22 646.72 239.86 644.91 238.39 644.68 237.31 643.73 236.65 643.29 235.73 643.57 234.84 643.71 234.49 645.27 233.46 646.01 232.85 647.44 232.95 647.99 233.2 648.44 232.74 648.77 231.67 648.82 230.34 649.82 228.61 650.27 227.6 649.55 226.78 649.21 226.08 649.74 224.67 651.22 223.32 652.01 222.41 651.96 220.91 652.66 219.91 653.47 219.23 653.45 217.16 653.32 216.11 652.94 215.64 653.51 214.78 653.17 213.95 654.18 212.53 654.41 210.5 655.16 210.22 655.98 209.46 656.62 208.06 656.14 205.52 656.72 204.64 655.55 202.03 654.11 200.29 654.46 199.36 653.46 198.88 653.43 197.12 652.09 193.59 651.73 190.11 651.9 189.62 653.47 187.58 654.71 186.2 657.47 183.97 657.68 184.16 661.9 181.09 665.26 179.9 666.14 180.5 666.99 180.58 668 179.85 668.26 180.67 670.12 183.32 669.61 184.2 668.64 185.04 668.47 186.08 668.75 186.92 668.66 188.21 668.81 188.58 668.35 189.62 668.38 190.69 668.06 191.11 668.14 193.4 667.9 194.55 668.48 195.25 668.86 196.58 669.28 196.81 669.19 197.67 668.52 198.76 668.77 199.27 671.8 200.51 672.85 200.21 673.74 200.32 675.1 198.61 675.36 196.75 675.89 196.81 676.64 196.19 677.51 194.75 675.99 193.49 675.44 192.36 675.42 191.52 676.51 190.14 676.61 188.95 677.1 188.81 677.47 189.65 678.08 189.5 678.9 188.74 679.27 187.58 679.82 186.67 680.81 185.76 682.42 184.98 682.98 183.53 684.21 182.16 685.06 182.05 686.13 181.61 688.3 182.74 689.2 182.72 690.22 183.59 691.02 183.86 692.25 183.74 696.3 182.86 696.72 182.05 697.39 181.57 696.88 180.11 698.18 180.29 699.15 178.77 698.82 177.93 699.08 177.21 699.95 176.57 700.59 177.37 701.48 178.98 702.45 179.69 702.43 179.99 704.09 181 704.68 181.54 704.99 182.27 705.06 183.23 706.54 182.86 708.16 181.28 708.53 181.78 708.33 182.4 709.3 183.02 711.09 181.98 Z M 705.36 176.59 705.9 177.01 705.99 177.85 705.24 178.54 704.7 178.42 704.18 177.01 704.61 176.45 705.36 176.59 Z" fill-rule="evenodd" id="34580110"/>
<path d="M 598.06 605.52 600.08 606.05 602.09 606.39 602.28 606.67 601.17 607.34 600.81 608.94 599.78 609.02 598.97 608.73 598.09 608.78 597.19 609.27 596.1 610.61 595.48 610.39 594.5 610.61 594.15 609.87 594.82 609.57 596.12 609.47 596.56 609.03 596.68 607.46 597.4 607.22 597.35 606.18 598.06 605.52 Z M 707.07 599.66 706.4 600.31 705.38 599.66 706.01 598.89 706.8 598.39 707.79 598.5 707.07 599.66 Z M 678.46 587.98 679.52 588.4 677.53 589.17 677.71 588.34 678.46 587.98 Z M 700.7 584.56 701.12 585.32 700.74 585.94 700.26 585.87 700.7 584.56 Z M 681.13 579.57 681.99 580.12 682.15 580.82 683.14 580.75 684.38 580.02 685.64 580.1 686.15 580.88 686.06 581.77 685.38 583.57 685.71 584.62 686.49 585.25 687.21 585.2 688.15 584.69 688.62 585.26 687.86 585.92 686.86 587.3 686.91 587.76 686.17 588.64 685.47 588.64 684.86 587.6 684.99 587.17 684.15 586.23 682.87 586.29 682.19 586.05 681.95 587.08 680.9 587.03 680.35 586.44 680.54 586.03 680.32 584.47 681.09 584.09 680.78 583.53 680.84 582.83 680.56 582.07 679.73 581.27 680.18 580.75 680.1 580.18 681.13 579.57 Z M 618.66 578.78 620.17 578.92 621.7 578.87 622.69 579.4 623.45 580.7 623.97 581.2 625.9 582.16 625.14 582.46 623.47 581.61 622.63 581.7 621.05 584.29 620.72 585.68 619.15 586.87 618.19 586.91 617.41 587.18 616.57 586.68 616.45 585.91 618.05 585.69 618.67 586.07 619.18 585.81 619.32 583.64 619.02 583.09 617.94 582.2 617.23 581.95 617.02 581.49 616.06 581.14 616.11 580.22 615.87 579.4 617.67 578.84 618.66 578.78 Z M 609.87 574.56 609.19 575.65 608.1 576.01 607.75 575.59 609.23 574.47 609.87 574.56 Z M 796.63 570.36 798.59 570.7 799 571.18 798.01 573.19 796.93 573.13 796.51 573.67 797.08 575.04 796.09 575.77 795.17 575.18 795.49 573.74 795.2 572.94 795.89 571.9 795.12 571.23 795.45 570.69 796.63 570.36 Z M 783.61 565.15 784.66 565.74 784.3 566.36 784.83 567.28 784.06 567.75 782.99 567.48 783.21 566.89 783.02 565.25 783.61 565.15 Z M 552.84 513.28 553.23 513.29 554.46 514.09 555.1 515.49 555.85 515.77 555.41 516.46 555.13 517.89 554.69 518.77 553.61 519.4 553.08 519.18 551.54 520.02 550.86 519.89 549.32 518.46 548.65 517.33 549.72 516.09 549.83 515.57 550.44 515.3 551.03 514.57 551.13 513.63 552.84 513.28 Z M 776.35 575.83 775.14 575.57 774.59 575.66 771.42 571.48 770.96 570.25 767.99 567.62 767.44 566.91 766.27 566.72 765.15 565.71 764.03 565.69 763.99 564.39 758.6 564.54 756.61 564.69 756.31 565.34 755.55 565.79 754.99 565.31 754.36 565.46 752.96 565.3 752.36 564.9 751.76 566.92 751.46 568.59 751.14 569.58 751.19 570.25 751.68 570.57 753.01 570.52 753.48 572.14 752.12 573.44 751.92 575.1 751.3 575.22 751.3 576.05 750.63 576.92 750.82 577.61 750.26 578.48 750.37 579.67 751.27 580.7 750.9 581.03 749.93 581.25 749.62 582.49 750.63 583.28 749.94 583.94 750.54 584.19 750.9 583.73 752.21 582.86 752.86 584.03 753.53 584.82 753.57 585.59 754.16 585.76 754.24 587.03 753.39 587.51 752.69 588.89 751.12 589.11 749.82 589.98 750.19 590.82 750.06 591.23 748.5 591.37 747.41 592.16 746.87 591.94 747.47 591.19 746.95 590.38 745.76 590.08 745.06 590.61 744.06 590.58 743.54 591.65 742.96 591.44 741.81 591.61 741.07 592.03 735.64 593.86 735.41 593.88 734.99 596.96 734.18 596.8 732.99 596.27 730.64 596.2 729.09 596.61 728.85 596.22 729.76 595.6 728.97 595.28 727.74 596.26 726.88 595.88 725.13 595.4 723.67 596.08 722.47 595.66 721.93 596.19 720.87 595.98 720.08 596.54 720.23 597.13 718.91 598.07 717.27 598.4 716.64 599.07 715.2 598.13 714.29 598.45 713.28 598.2 711.61 597.46 710.56 597.35 709.86 597.56 709.59 599.05 708.57 598.31 708.58 596.49 708.01 595.23 707.46 595.41 707.06 594.52 706.32 594.62 705.7 595.19 705.63 596.22 704.11 595.95 704.18 594.51 704.91 594.11 704.97 593.07 705.84 592.6 706.42 591.62 706.47 589.85 705.91 587.72 705.05 585.13 704.73 584.58 704.63 583.7 705.02 582.95 705.06 582.25 704.78 580.86 703.56 579.71 702.95 579.6 702.85 578.6 703.25 578.11 703.04 577.46 702.18 576.83 701.39 577.1 701.03 576.62 701.31 575.68 702.15 575 703.22 575.54 703.63 575.47 704.59 574.59 705.18 573.42 704.91 572.2 704.46 571.57 704.89 570.84 704.72 569.59 704.15 568.4 701.42 566.47 699.64 566.71 698.74 566.33 699.09 565.79 698.89 564.93 700.14 564.07 699.76 562.96 699.82 562.21 699.54 561.61 700.09 560.9 701.29 560.72 701.24 560.38 703 558.74 703.63 556.35 703.83 554.56 705.74 548.01 705.74 544.9 705.89 543.88 706.48 541.96 706.4 539.54 706.57 538.7 706.47 535.59 706.28 534.28 705.45 532.24 704.4 530.85 704.56 530.58 706.03 529.57 706.49 529.01 707.65 528.69 709.92 527.16 710.9 525.9 711.47 525.85 712.06 525.19 711.85 523.72 711.18 523.44 710.9 524.22 709.95 524.01 710.37 525.44 709.32 526.66 707.82 526.09 707.21 526.48 706.14 525.13 706.46 524.27 707.02 523.56 707.1 522.62 706.6 520.4 705.44 518.17 704.71 517.64 703.74 517.63 703.11 518.18 702.7 517.9 702.17 515.94 702.08 513.4 701.78 513.01 701.89 512.22 702.44 512.17 702.59 511.28 702.16 509.42 701.55 508.8 701.22 507.67 701.25 506.92 702.13 507.33 702.54 506.95 703.32 505.56 703.68 504.58 704.34 504.36 704.71 503.52 704.93 501.79 705.18 498.31 704.85 495.27 704.58 493.53 703.9 490.68 703.66 490.1 702.24 489.59 701.58 488.91 701.83 488.19 701.74 487.17 702.56 487.15 703.39 486.58 703.66 485.76 703.9 483.89 703.88 482.09 703.38 477.21 702.81 474.66 702.69 473.42 702.68 469.94 703.58 469.62 704.14 469.87 705.88 469.83 705.4 468.88 704.2 469.52 703.01 468.84 701.47 468.26 700.66 467.65 699.75 466.33 699.14 465.19 698.02 463.67 695.72 459.68 693.9 457.17 691.21 452.72 690.06 451.32 691.44 450.92 691.53 450.22 691.25 448.98 691.73 447.9 691.39 446.06 690.34 443.12 688.9 439.93 688.48 438.56 688.44 437.55 689.11 436.67 689.43 437.78 690.06 436.69 689.72 436.36 691.55 435.11 692.28 435.74 693.97 434.9 695.05 435.37 695.01 437.48 698.26 438.86 699.02 438.03 698.58 437.05 697.58 436.67 697.93 435.92 698.78 435.34 699.54 434.02 700.15 433.65 700.26 432.88 699.84 432.67 698.7 431.01 698.9 430.48 698.8 429.48 699.63 428.8 700.12 427.55 699.03 427.38 698.52 426.27 698.27 422.59 698.07 422.06 699.19 421.04 699.92 420.92 700.84 420.43 701.81 419.43 702.43 419.17 703.53 417.99 704.05 418.61 704.24 417.23 705.83 417.63 706.5 417.36 707.75 416.03 707.68 415.05 709.05 414.5 709.66 413.63 711.47 412.32 712.8 411.51 715.02 410.85 715.46 410.94 715.55 411.87 715.96 412.65 716.94 413.16 716.04 413.71 716.08 414.4 716.99 414.65 717.68 415.42 720.67 415.16 721.26 414.65 720.9 413.75 720.97 411.77 721.46 411.64 722.39 409.96 722.2 409.25 721.55 408.8 721.17 407.96 722.73 407.65 723.59 407.94 724.69 409.11 725.93 409.6 727.36 409.35 728.33 408.26 727.94 407.87 728.11 407.19 730.28 406.98 730.81 406.52 731.83 406.26 731.75 407.21 732.11 407.68 733.42 408.41 735.35 408.7 737.01 409.45 737.37 410.56 738.32 412.03 738.21 413.13 737.85 413.91 738.02 416.02 737.27 417.36 737.42 419.74 738.38 420.31 739.32 420.21 739.82 420.58 741.49 423.2 742.31 423.93 743.4 424.37 745.03 424.13 745.32 423.83 745.56 422.55 746.4 421.66 746.18 421.18 746.52 420.42 746.42 419.13 747.09 417.67 747.43 415.8 748.13 415.02 749.01 414.66 749.06 414.26 749.85 413.25 751.28 412.89 751.33 413.77 750.28 413.83 749.83 415.46 750.64 416.73 750.53 417.6 751.52 417.8 752.31 416.62 753.33 416.83 753.4 416.35 754.04 415.99 754.63 416.05 754.58 416.72 753.92 417.8 753.89 418.66 753.54 420.51 752.69 420.79 752.03 422.42 752.48 423.69 751.91 424.71 752.05 426.06 751.24 426.97 751.06 428.83 750.07 429.7 748.99 427.51 749.01 426.25 748.39 425.93 748.2 425.26 748.28 424.11 748.64 423.33 748.07 422.5 747.54 422.59 747.07 423.33 746.3 424.06 743.44 424.45 743.43 426.08 742.98 426.27 741.77 425.43 741.2 426.65 742.54 428.01 742.18 430.36 741.71 431.59 742.33 432.33 744.1 432.21 744.78 432.65 745.69 432.58 745.96 433.48 745.72 434.46 745.11 434.98 744.58 435.96 744.74 436.63 744.46 437.92 744.5 438.84 744.06 439.03 744.18 441.29 745.05 441.43 745.47 442.96 745.27 443.68 743.72 444.2 743.6 445.44 742.92 445.77 742.09 445.73 739.92 446.5 739.21 446.89 738.3 446.87 737.98 446.21 736.52 446.1 735.67 445.19 735.01 445.29 734.42 445.81 734.25 447.54 733.31 447.43 730.67 450.6 730.5 451.07 731.33 451.85 731.28 453.51 733.96 456.27 736.02 457.35 737.09 457.35 738.13 455.8 738.28 455.3 739.01 455.48 739.31 456.4 739.95 456.79 740.16 457.38 740.95 458.08 742.17 457.97 743.97 459.1 744.58 458.95 745.08 459.74 744.57 461.04 744.23 461.35 743.6 462.72 744.28 464.5 745.16 465.11 745.05 465.93 744.19 466.81 745.45 469.27 747.37 473.36 748.35 476.47 747.61 480.32 747.37 482.15 747.69 483.16 746.81 482.98 744.91 483.5 744.68 484.54 746.06 488.51 745.77 489.54 746.85 491.35 747.06 492.11 746.94 492.78 745.77 493.96 746.11 494.48 748.39 494.14 749.62 494.46 749.58 496.54 749.82 497.9 749.35 498.89 749.62 499.56 750.31 499.77 752.04 499.27 753.25 500.12 754.81 501.66 754.74 503.03 754.88 504.57 753.78 505.41 754.14 506.56 754.12 507.39 754.38 508.2 752.99 508.3 752.14 508.96 751.62 507.87 750.78 508.95 747.48 509.58 747.34 509.82 750.21 515.15 751.39 514.33 752.29 514.46 753.17 513.77 754.16 513.8 755.08 514.73 755.67 514.93 757.05 514.3 757.33 516.5 757.6 516.89 758.44 515.86 758.87 514.89 759.87 514.72 761.17 514.97 761.8 514.89 762.27 515.57 762.18 516.41 760.99 517.4 760.21 518.51 759.37 518.71 758.78 520.73 760.09 521.73 761.02 520.64 762.17 519.55 763.15 519.01 763.97 519.16 764.52 518.77 765.04 519.43 765.24 520.41 764.87 521.58 764.83 522.44 764.45 522.69 765.11 523.88 766.21 524.14 766.34 523.59 767.47 522.96 768.19 523.54 768.74 524.46 768.33 525.33 768.39 526.54 768.83 527.37 768.3 528.39 768.25 529.31 769.08 529.88 769.34 531.1 769.74 531.65 769.78 532.81 769.36 533.71 768.46 534.67 767.67 534.98 766.93 534.54 766.25 534.87 765.03 541.41 765.56 542.46 765.75 544.22 767.3 544.06 768.4 542.91 769.37 542.59 769.85 541.91 770.59 543.09 771.1 543.46 771.89 545.01 772.51 545.1 773.01 544.76 773.41 543.61 773.04 543.01 773.94 540.44 774.7 539.16 775.5 539.27 775.7 540.52 775.25 545.35 774.89 546.44 773.84 547.09 773.64 547.44 773.76 548.7 774.7 550.1 774.88 550.97 774.7 552.82 774.32 553.41 774.2 557.48 774.74 557.97 774.39 559.39 776.15 561.61 777.05 561.92 779.22 565.97 780.62 567.51 780.53 568.91 780.18 570.11 780.5 570.49 781.24 570.05 781.79 570.07 782.05 570.63 781.54 573.48 780.17 573.76 779.47 573.65 778.78 574 778.02 573.96 777.36 574.65 776.58 575.05 776.35 575.83 Z" fill-rule="evenodd" id="34580120"/>
<path d="M 791.45 584.28 791.65 585.13 792.31 585.64 791.88 587.02 790.94 586.61 790.08 586.53 790.33 584.49 790.71 583.7 791.45 584.28 Z M 776.35 575.83 776.31 576.68 776.56 577.38 775.84 578.27 774.88 579.11 774.38 578.88 773.39 580.34 773.3 580.77 772.25 582 772.26 583.19 772.65 583.89 773.81 584.5 775.92 584.86 777.29 584.42 777.78 585.25 779.24 585.39 780.08 586.12 780.12 586.59 785.06 590.69 785.9 591.1 785.65 592.14 785.29 594.86 785.58 596.31 785.4 597.24 786.29 597.65 793.18 600.29 793.72 599.71 794.29 600.43 794.8 600.63 794.81 602.36 794.05 602.9 794.13 604.13 794.48 604.62 794.4 605.25 793.54 605.48 792.88 604.82 791.77 605.52 791.21 606.59 791.81 607.36 792.27 607.55 792.32 608.55 793.27 609.76 793.98 612.07 793.86 612.94 794.72 613.15 794.97 614.31 794.84 614.98 795.3 616.07 796.19 617.1 797.14 617.21 796.92 617.95 797.36 619.38 796.7 621.67 795.41 622.54 794.05 622.73 793.46 622.24 791.99 623.2 790.85 624.21 790.76 624.8 789.86 625.64 789.21 626.67 788.62 626.74 787.95 627.25 787.86 628.19 786.04 630.93 786.49 631.79 786.88 633.02 787.81 634.73 789.09 635.25 789.85 635.28 789.49 636.45 788.93 637.11 789.12 637.92 789.13 639.29 789.95 640.81 791.15 641.14 791.14 642.52 790.13 643 788.04 642.36 787.71 642.03 786.16 641.64 783.97 642.56 783.86 641.73 784.89 640.87 785.17 640.1 784.94 639.06 783.89 637.29 783.91 636.73 782.73 635.68 781.64 635.45 781.25 635.84 780.48 635.41 778.87 635.29 778.11 636.21 777.88 636.83 777.12 636.57 776.61 635.73 776.06 634.14 776.73 633.31 777.01 632.59 777.64 631.95 777.68 630.56 777.5 629.73 775.95 627.46 774.16 626.41 772.38 626.08 771.95 626.22 771.23 627.12 770.65 627.14 770.01 627.61 768.34 627.64 767.95 628.13 767.23 628.41 766.55 628.09 765.76 627.27 764.05 626.28 763.28 626.1 763.69 625.08 764.61 624.22 764.66 623.26 763.71 620.76 757.28 617.62 756.4 618.4 755.54 617.73 754.56 618 754.28 618.7 753.21 619.37 753.13 618.53 749.46 618.32 748.07 619.06 747.58 621.05 748.55 621.29 749 621.89 748.64 622.9 748.85 624.24 748.59 625 747.05 626.44 745.54 627.59 745.28 628.55 744.69 628.88 743.88 628.72 742.25 628.97 741.91 629.36 740.82 629.46 740.31 628.98 739.22 628.45 738.52 627.16 737.4 625.92 736.82 624.98 735.19 624.13 733.85 624.11 732.46 624.38 731.94 623.35 731.61 621.76 731.34 619.77 730.56 618.02 729.62 616.45 727.81 614.33 725.16 613.66 725.02 614.59 724.37 615.1 723.51 613.89 722.59 613.27 723.79 613.03 723.95 611.93 724.81 611.62 725.3 611.13 725.62 606.98 725.65 604.43 725.87 603.43 726.47 603.98 726.84 603.74 727.53 599.95 728.47 598.03 729.5 597.92 729.63 597.47 730.32 596.98 731.74 597.22 732.35 597.62 731.12 598.61 730.81 599.7 731.68 599.87 731.98 599.38 732.56 599.61 733.36 599.24 733.89 599.85 734.91 600.52 735.14 600.24 734.18 596.8 734.99 596.96 735.41 593.88 735.64 593.86 741.07 592.03 741.81 591.61 742.96 591.44 743.54 591.65 744.06 590.58 745.06 590.61 745.76 590.08 746.95 590.38 747.47 591.19 746.87 591.94 747.41 592.16 748.5 591.37 750.06 591.23 750.19 590.82 749.82 589.98 751.12 589.11 752.69 588.89 753.39 587.51 754.24 587.03 754.16 585.76 753.57 585.59 753.53 584.82 752.86 584.03 752.21 582.86 750.9 583.73 750.54 584.19 749.94 583.94 750.63 583.28 749.62 582.49 749.93 581.25 750.9 581.03 751.27 580.7 750.37 579.67 750.26 578.48 750.82 577.61 750.63 576.92 751.3 576.05 751.3 575.22 751.92 575.1 752.12 573.44 753.48 572.14 753.01 570.52 751.68 570.57 751.19 570.25 751.14 569.58 751.46 568.59 751.76 566.92 752.36 564.9 752.96 565.3 754.36 565.46 754.99 565.31 755.55 565.79 756.31 565.34 756.61 564.69 758.6 564.54 763.99 564.39 764.03 565.69 765.15 565.71 766.27 566.72 767.44 566.91 767.99 567.62 770.96 570.25 771.42 571.48 774.59 575.66 775.14 575.57 776.35 575.83 Z" fill-rule="evenodd" id="34580310"/>
<path d="M 567.82 450.23 567.72 451.47 566.81 452.19 565.9 451.37 566.11 450.99 567.82 450.23 Z M 672.47 443.56 672 444.04 671.34 443.89 671.17 443.04 671.74 441.91 671.69 441.09 672.53 440.75 672.47 443.56 Z M 593.57 435.62 594.03 436.32 592.21 436.79 591.76 437.2 590.16 439.5 591.09 441.44 591.37 442.71 591.31 443.65 590.29 446.47 588.95 448.54 587.07 450.71 585.5 451.62 585.81 452.52 584 454.32 583 455.03 582.05 454.78 581.72 454.16 580.32 454.06 580.47 452.55 580.37 451.91 578.79 450.77 578.71 450.37 579.43 449.98 580.5 450.31 580.98 450.15 582.92 450.14 584.09 449.88 585.11 450.01 586.05 450.45 586.85 450.31 588.24 448.92 589.61 447.27 590.24 446.25 590.65 444.92 590.83 443.46 590.65 442.35 590.23 441.43 589.74 441.32 589.15 441.93 588.75 443.28 587.52 444.97 586.59 445.21 585.8 444.77 585.67 444.28 584.72 443.25 583.94 442.86 584.67 442.37 585.4 442.4 585.71 441.41 586.13 441.34 585.9 440.3 585.55 440.18 584.4 438.12 585.28 438.42 588.09 437.89 589.82 437.9 590.5 437.49 590.38 436.42 590.73 435.78 593.09 435.49 593.57 435.62 Z M 588.31 422.72 588.84 423.04 589.34 424.16 590.3 424.87 590.5 425.41 590.2 426.31 590.35 426.96 591.11 427.9 592.36 428.21 593.23 429.42 593.19 430.25 592.03 430.2 591.15 429.96 590.1 429.4 589.49 429.37 589.46 428.1 588.98 428.02 588.26 426.85 587.44 426.49 586.51 424.83 586.56 423.59 588.47 423.58 588.31 422.72 Z M 627.94 409.64 628.06 411.04 628.63 411.45 629.58 411.48 629.76 412.08 629.46 412.64 629.65 413.92 629.05 416.1 629.19 417.21 629.88 418.72 629.39 419.33 629.02 420.29 628.42 420.34 626.94 421.62 626.32 422.32 626.14 422.99 626.57 423.4 626.31 425.77 626.81 426.6 627.68 427.29 627.69 428.07 628.61 429.7 628.63 430.41 627.96 431.5 627.22 431.64 627 432.36 626.2 432.05 626.08 431.28 624.24 430.67 624.1 430.21 624.44 429.49 623.95 428.65 625.34 428 625.53 426.51 625.21 425.73 624.21 425.43 623.76 424.3 623.33 424.04 622.2 424.34 621.18 424.18 620.3 423.44 619.92 423.62 619.41 423.02 619.85 421.84 620.69 421.9 621.33 421.26 622.43 420.53 623.8 420.05 623.93 418.99 623.34 418.78 623.24 418.1 622.74 417.54 622.88 417 624.26 415.97 624 414.92 623.34 414.37 621.3 415.7 620.86 415.57 620.11 414.24 620.64 413.47 621.34 413.14 621.14 412.32 621.65 411.66 622.75 411.64 624.47 410.63 625.69 411.1 626.63 410.93 627.32 410.35 627.21 409.65 627.94 409.64 Z M 645.9 343.33 646.84 343.58 647.78 343.52 647.82 344.42 647.17 344.12 646.19 344.19 645.54 343.99 645.9 343.33 Z M 644.86 336.08 644.92 336.91 643.82 337.55 643.65 337.2 644.47 335.95 644.86 336.08 Z M 656.24 279.4 656.27 280.91 655.63 281.18 655.07 282.81 656.39 285.43 657.61 285.57 658.43 285.93 658.12 286.7 658.74 288.44 658.66 289.68 658.27 290.41 658.35 290.97 658.95 292.2 659.43 292.62 661.17 291.61 662.61 291.53 662.92 291.86 663.07 292.96 663.36 293.19 665.04 293.13 665.3 293.6 666.12 294.09 667.11 294.29 668.63 294.31 669.19 294.67 670.82 295.03 670.71 295.53 672.46 295.2 673.29 295.91 674.57 298.97 676.95 301.69 680.5 306.24 681.56 307.25 684.85 308.78 685.41 307.7 686.55 308.21 687.64 311.31 688.25 312.16 688.26 313.09 688.73 314.17 689.47 314.78 691.13 316.59 694.92 319.36 701.81 328.65 724.35 352.31 724.64 354.13 732.12 392.67 728.54 394.19 727.37 395.39 728.01 396.33 727.11 396.68 727.04 397.74 727.28 398.67 726.24 399.51 721.67 400.11 720.84 400.65 720.67 399.48 719.92 399.28 719.24 400.63 719.28 401.25 717.88 401.8 717.2 401.25 716.21 401.53 715.63 402.15 714.17 402.64 712.92 401.81 709.96 399.41 707.55 402.03 708.33 403.17 709.6 402.97 709.47 403.79 709.82 407.08 708.99 408.06 708.08 408.25 707.16 409.25 706.47 409.57 703.68 412.73 704.07 413.05 703.96 414.15 703.46 414.72 701.76 415.77 701.12 416.62 700.85 417.76 700.3 418.24 698.78 418.73 697.46 419.48 696.98 420.82 696.2 422.02 696.5 423.08 695.96 423.81 695.8 426.01 694.91 427.19 694.04 426.94 694.02 428.04 693.5 429.06 693.2 430.2 692.86 430.3 691.51 431.51 689.58 432.03 688.78 431.38 688.98 430.13 689.28 429.83 687.51 426.3 685.54 425.73 684.33 424.95 683.39 425.34 681.09 427.01 680.56 428.24 680.53 430.78 680.81 431.98 679.7 432.88 677.77 433.39 676.31 434.41 674.52 434.77 673.83 436.05 673.41 436.2 673.17 437.35 672.44 437.1 671.98 437.58 671.36 437.67 670.91 436.2 670.49 436.19 670.53 435.18 670.17 434.47 669.42 433.94 669.54 433.12 668.98 432.1 668.79 431.27 668.14 429.93 667.31 429.1 666.28 428.85 665.67 429.4 664.88 429.07 664.55 428.14 664.03 427.82 663.91 426.97 663.13 426.58 663.44 425.96 664.29 425.68 664.41 424.86 665.04 423.69 665.89 423.4 666.05 422.34 667.01 422.43 667.54 421.68 668.05 418.95 668.24 417.24 668.12 415.98 667.67 413.51 667.3 410.36 667.16 407.04 667.18 404.16 667.41 401.94 667.23 400.03 666.93 398.72 666.48 397.62 665.37 396.59 663.98 396.52 663.37 394.95 664.42 395.12 664.94 394.79 665.81 395.14 665.41 396.25 666.52 397.31 667.37 397.43 667.19 398.14 667.7 399.13 668.07 400.43 668.11 401.72 668.33 403.06 669.18 402.78 669.8 401.92 669.59 401.08 670.32 400.23 671.83 399.85 672.72 399.81 673.9 399.33 674.89 398.64 676.45 397.31 678.34 393.6 679.55 390.44 679.33 389.67 679.63 387.31 679.63 383.77 679.32 380.64 679.52 378.98 679.4 377.3 679.82 376.04 678.87 375.96 678.26 373.8 677.64 372.45 677.02 369.53 676.32 366.75 674.96 362.16 674.28 360.45 672.56 356.82 672.97 356.02 672.46 355.62 672.03 354.2 672.18 354 671.21 351.86 669.97 349.81 669.76 348.61 669.32 347.71 667.11 344.15 665.89 342.34 665.47 341.27 664.35 340.11 663.99 340.48 661.17 338.22 660.35 338.36 659.38 338.18 658.76 338.53 658.38 339.54 657.72 339.99 656.31 340.15 656.05 339.9 654.94 342.44 652.8 342.68 652.77 342.44 654.82 342.1 655.59 340.37 655.01 339.64 653.94 338.74 652.8 338.21 651.52 338.11 651.11 339.11 650.02 339.4 650.05 339.81 648.57 340.53 648.21 340.51 647.5 339.33 647.77 338.71 647.08 337.49 647.63 336.65 647.84 335.09 647.58 334.61 646.49 333.92 646.75 332.57 647.25 331.78 648.7 331.56 649.02 329.57 648.79 328.18 647.93 326.79 647.09 326.76 646.48 326.03 645.52 326.13 645.17 325.49 645.61 325.11 646.31 323.55 645.39 323.07 645.16 322.44 645.7 321.68 645.96 320.42 645.18 319.15 644.16 319.03 644.11 318.42 644.89 317.5 644.93 316.5 644.54 315.9 644.52 313.78 645.46 312.07 646.08 311.81 647.18 310.72 647.91 309.59 648.78 309.09 650.01 307.58 651.04 307.56 651.89 307.25 652.75 305.97 653.22 306.66 655.09 305.09 654.79 303.74 654.9 302.33 654.31 300.75 654.48 299.52 653.78 298.05 653.3 296.34 653.49 295.32 653.2 294.19 653.27 293.09 654.34 291.66 655.33 289.34 655.67 288.26 655.71 286.76 655.37 285.42 654.9 284.28 653.52 281.7 653.09 280.36 653.02 279.33 653.36 278.57 654.73 277.17 655.12 277.29 654.84 279.41 655.1 279.62 656.24 279.4 Z" fill-rule="evenodd" id="34580320"/>
<path d="M 575.22 107.5 575.27 108.38 574.5 108.43 574.59 107.85 575.22 107.5 Z M 548.24 87.52 549.11 88.16 549.12 88.99 548.67 89.34 547.74 89.43 547.15 89.11 546.49 88.02 546.59 87.75 548.24 87.52 Z M 591.62 85.74 592.37 86.1 591.22 86.61 590.44 86.73 590.16 86.4 590.75 85.75 591.62 85.74 Z M 634.33 76.63 633.26 77.25 632.78 77.82 633.69 80.5 633.89 80.66 634.61 82.62 632.05 88.04 629.02 99.62 628.88 99.69 627.82 103.67 627.89 103.9 627.23 106.01 628.76 106.71 628.76 122.19 636.24 122.19 635.14 124.03 638.4 126.19 638.42 126.68 639.16 127.18 639.97 127.29 641.51 128.63 642.64 129.04 643.84 129.71 644.33 129.41 644.91 129.8 644.98 130.66 644.58 131.63 644.88 132.38 644.45 132.86 644.71 134.72 643.56 135.34 642.73 134.97 642.26 135.82 641.54 135.89 640.77 136.9 640.34 137.97 639.14 138.32 638.26 139.5 637.48 139.42 638.08 141 638.97 141.58 639.37 142.57 638.76 144.38 637.51 144.74 637.76 145.2 637.22 146.54 637.32 147.27 637.86 148.05 638.46 149.94 638.74 150.11 638.85 151.62 640.08 152.2 642.03 153.79 643.08 155.07 643.35 155.63 644.02 155.77 645.17 153.91 645.68 152.18 646.56 152.19 646.74 151.19 647.53 150.7 647.67 149.8 648.37 149.81 648.98 150.26 650.13 150.7 651.06 150 651.73 150.19 652.65 151.07 652.91 151.82 653.61 152.3 654.34 151.75 655.15 151.92 656.69 153.17 657.54 152.9 658.18 153.29 659.28 153.15 659.86 154.58 660.38 155.18 660.16 156.23 661.34 158.14 661.81 158.15 663.25 159.01 664.54 158.4 666.11 159.93 666.63 161.76 667.18 163.2 667.79 162.63 670.03 162.37 670.16 161.82 670.76 161.22 673.01 159.97 673.58 159.78 674.25 158.46 676.6 157.98 678.29 158.57 679.46 159.65 680.39 159.73 682.47 158.07 684.38 158.16 686.01 156.97 686.54 156.89 687.28 157.31 687.52 158.17 688.41 158.05 689.83 158.22 691.42 158.86 691.77 159.59 692.49 160.43 693.47 160.86 694.37 160.83 693.68 162.16 693.1 162.7 692.22 163.06 691.62 163.66 690.63 163.93 689.38 163.36 687.33 163.81 685.13 164.65 684.94 165.12 683.8 165.1 683.14 165.66 682.89 166.23 682.03 166.49 681.74 167.18 680.16 168.12 678.88 168.55 677.64 169.52 676.62 170.95 676.17 171.29 674.35 171.64 672.96 171.74 672.2 171.43 670 172.49 668.16 172.59 666.9 171.96 666.69 171.32 665.55 170.17 664.74 170.51 664.6 171.73 664.08 172.97 664.16 173.9 663.56 174.75 663.46 175.87 662.89 178.59 664.49 179.22 665.26 179.9 661.9 181.09 657.68 184.16 657.47 183.97 654.71 186.2 653.47 187.58 651.9 189.62 651.73 190.11 652.09 193.59 653.43 197.12 653.46 198.88 654.46 199.36 654.11 200.29 655.55 202.03 656.72 204.64 656.14 205.52 656.62 208.06 655.98 209.46 655.16 210.22 654.41 210.5 654.18 212.53 653.17 213.95 653.51 214.78 652.94 215.64 653.32 216.11 653.45 217.16 653.47 219.23 652.66 219.91 651.96 220.91 652.01 222.41 651.22 223.32 649.74 224.67 649.21 226.08 649.55 226.78 650.27 227.6 649.82 228.61 648.82 230.34 648.77 231.67 648.44 232.74 647.99 233.2 647.44 232.95 646.01 232.85 645.27 233.46 644.55 231.91 644.58 231.02 644.17 229.76 641.95 228.82 641.02 227 640.42 224.57 638.32 222.78 636.92 223.31 636.39 221.16 635.89 221.08 633.98 219.97 632.99 221.24 631.83 221.79 630.54 223.47 630.15 223.8 628.94 226.56 627.85 227.5 627.26 227.63 626.59 226.98 625.39 226.96 624.58 226.64 622.31 226.45 621.08 225.93 620.11 226.11 619.39 225.64 618.92 224.53 617.47 223.85 616.73 223.74 616.72 223.23 616.12 221.99 615.57 220.48 614.71 220.1 613.57 217.84 612.95 217.31 613.47 216.96 613.19 215.5 614.01 214.82 613.32 213.97 613.08 213.2 612.28 211.62 610.87 211.06 609.98 210.22 609.94 209.84 608.33 208.85 607.19 208.4 607.44 207.92 608.67 207.22 610.05 207.18 611.37 206.36 611.69 205.48 611.76 204.35 612.39 204.39 613.04 203.86 614.95 203.9 615.72 202.64 615.98 201.64 616.53 201.22 616.58 200.59 617.22 199.24 617.87 199.12 618.19 198.06 616.54 197.55 615.42 196.62 614.57 196.31 612.54 195.03 611.09 193.42 610.41 193.11 610.7 191.05 611.11 190.48 609.33 189.32 609.14 188.84 608.15 188.17 607.53 188.18 606.14 187.55 605.81 187.22 606.43 186.23 605.06 184.81 604.78 184.32 594.47 176.46 590.83 175.47 579.58 172.5 580.72 170.42 580.73 169.82 580.08 168.44 579.64 166.94 578.08 165.87 577.85 164.82 577.4 164.49 575.38 164.41 575.01 165.26 574.19 165.25 572.53 164.13 571.56 163.62 569.35 162.07 569.71 161.08 570.35 161.13 570.59 160.62 571.26 160.44 571.83 159.53 571.77 158.95 572.84 157.87 575.87 156.6 578.59 155 580.41 153.57 582.56 151.36 584.73 148.63 587.03 144.9 588.49 142.12 589.02 140.82 589.95 137.12 589.91 135.29 589.19 133.9 588.61 133.28 588.63 132.76 587.49 131.68 586.88 132.49 585.63 132.86 585.38 133.34 584.34 133.06 583.91 132.33 584.15 131.64 583.71 131.34 583.76 130.28 583.29 129.71 583.83 128.91 583.74 128.41 584.24 127.87 584.56 126.96 584.48 126.31 583.53 125.21 583.44 124.07 582.91 122.99 581.67 122.38 580.81 121.43 579.72 121.75 578.59 121.82 578.24 122.11 578.29 123.03 577.62 123.6 577.03 123.33 577.85 121.84 577.52 121.17 577.68 120.44 578.36 120.25 579.25 119.23 580.45 120.22 581.23 120 582.35 118.66 583.14 118.78 583.59 117.52 583.09 117.13 582.74 116.13 582.78 115.34 583.86 114.55 584.24 113.79 584.08 112.26 583.14 112.06 582.72 111.6 582.19 110.22 581.26 108.2 580.14 106.88 579.08 106.12 577.26 105.97 576.83 106.62 576.27 106.5 575.35 105.73 575.37 105.17 573.67 104.78 572.71 104.77 572.39 104.44 571.51 104.85 571.04 104 572.21 102.74 572.57 101.54 573.56 101.3 573.96 99.48 574.26 98.94 575.1 100.23 575.71 100.4 577.51 99.92 578.35 99.86 580.83 99.08 581.28 99.36 582.23 99.38 582.81 100.85 583.98 101.11 584.67 102.04 585.74 101.86 587.13 101.35 588.03 100.76 589.42 99.59 590.85 97.37 590.7 96.82 589.86 96.25 589.94 95.44 590.52 94.27 591.46 93.6 592.44 93.31 593.03 91.38 593.2 89.94 593.09 87.27 593.42 86.87 593.27 85.75 594.3 86.62 595.21 85.92 595.54 84.99 594.17 83.93 593.77 83.15 594.25 81.88 595.6 81.53 596.58 81.83 596.83 82.29 597.85 83.21 598.25 84.09 597.67 84.27 597.49 85.03 597 85.63 597.31 86.43 598.64 87.22 599.64 87.61 600.66 87.79 601.87 87.73 603.34 87.37 605.94 86.05 606.64 84.2 606.63 83.62 607.25 83.46 607.71 82.16 609.91 82 610.72 80.89 611.27 80.68 612.22 80.77 612.8 80.41 613.65 81 614.3 80.76 614.16 80.11 615.12 79.8 615.78 79.9 615.97 80.48 616.67 80.26 616.88 80.78 618.3 80.26 617.97 78.94 618.58 77.7 619.38 77.27 619.86 77.91 619.11 78.1 618.68 79 619.33 79.96 622.59 78.69 622.6 77.54 622.81 76.72 623.42 76.57 625.47 76.5 626.35 75.47 627 75.45 627.33 76.69 627.79 76.53 627.48 75.67 628.2 75.49 628.46 76.27 630.38 75.52 630.48 74.05 631.61 73.34 631.74 72.51 633.01 72.14 633.52 72.28 634.34 71.77 635.83 71.82 637.06 72.68 638 72.82 636.81 73.64 636.6 74.22 638.21 75.15 638.16 75.49 636.29 74.47 635.05 74.73 634.21 76.28 634.33 76.63 Z M 638.67 71.16 639.34 71.24 639.25 71.88 638.13 72.16 637.59 71.23 638.67 71.16 Z M 575.82 59.72 576.72 60.65 576.34 61.09 575.66 60.84 575.82 59.72 Z M 557.84 59.26 559.05 59.43 559.61 59.97 558.49 60.5 557.4 60.4 557.84 59.26 Z M 563.69 53.69 564.32 54.01 564.87 53.86 565.61 54.71 566.46 55.35 566.43 55.66 564.13 57.2 563.64 57.06 563.04 56.28 563.08 55.57 563.55 55.04 563.1 54.1 563.69 53.69 Z M 556.15 49.69 556.74 50.62 556.63 50.95 555.17 50.71 554.73 49.9 555.77 49.96 556.15 49.69 Z M 565.06 20.65 565.62 21.38 563.98 22.1 563.18 22.09 563.63 21.29 564.45 21.32 565.06 20.65 Z" fill-rule="evenodd" id="34580350"/>
<path d="M 692.76 124.59 692.5 125.41 693.38 126 693.62 126.93 693.15 128.31 692.07 128.6 690.41 128.72 690.12 129.63 689.49 129.99 688.23 129.71 687.88 128.65 686.78 127.58 686.96 126.37 688.09 125.89 689.75 125.81 690.58 125.97 691.43 124.98 692.76 124.59 Z M 692.67 39.13 692.1 39.82 692.8 40.83 693.46 42.67 693.08 43.21 692.74 44.33 692.18 44.78 691.25 44.94 690.73 45.75 690.67 46.6 690.09 47.19 688.36 47.33 687.41 47.02 687.58 46.46 688.57 45.09 688.46 44.26 688.96 43.24 689 42.51 689.73 41.08 690.85 40.12 691.73 39.68 691.86 39.29 692.67 39.13 Z M 690.01 19.87 689.15 20.81 688.47 21.02 687.88 20.84 688.23 19.91 688.62 19.89 689.18 18.71 689.61 18.99 690.01 19.87 Z M 665.43 16.94 666.34 17.52 666.27 18.24 665.41 18.68 664.85 17.59 665.43 16.94 Z M 694.37 160.83 693.47 160.86 692.49 160.43 691.77 159.59 691.42 158.86 689.83 158.22 688.41 158.05 687.52 158.17 687.28 157.31 686.54 156.89 686.01 156.97 684.38 158.16 682.47 158.07 680.39 159.73 679.46 159.65 678.29 158.57 676.6 157.98 674.25 158.46 673.58 159.78 673.01 159.97 670.76 161.22 670.16 161.82 670.03 162.37 667.79 162.63 667.18 163.2 666.63 161.76 666.11 159.93 664.54 158.4 663.25 159.01 661.81 158.15 661.34 158.14 660.16 156.23 660.38 155.18 659.86 154.58 659.28 153.15 658.18 153.29 657.54 152.9 656.69 153.17 655.15 151.92 654.34 151.75 653.61 152.3 652.91 151.82 652.65 151.07 651.73 150.19 651.06 150 650.13 150.7 648.98 150.26 648.37 149.81 647.67 149.8 647.53 150.7 646.74 151.19 646.56 152.19 645.68 152.18 645.17 153.91 644.02 155.77 643.35 155.63 643.08 155.07 642.03 153.79 640.08 152.2 638.85 151.62 638.74 150.11 638.46 149.94 637.86 148.05 637.32 147.27 637.22 146.54 637.76 145.2 637.51 144.74 638.76 144.38 639.37 142.57 638.97 141.58 638.08 141 637.48 139.42 638.26 139.5 639.14 138.32 640.34 137.97 640.77 136.9 641.54 135.89 642.26 135.82 642.73 134.97 643.56 135.34 644.71 134.72 644.45 132.86 644.88 132.38 644.58 131.63 644.98 130.66 644.91 129.8 644.33 129.41 643.84 129.71 642.64 129.04 641.51 128.63 639.97 127.29 639.16 127.18 638.42 126.68 638.4 126.19 635.14 124.03 636.24 122.19 628.76 122.19 628.76 106.71 627.23 106.01 627.89 103.9 627.82 103.67 628.88 99.69 629.02 99.62 632.05 88.04 634.61 82.62 633.89 80.66 633.69 80.5 632.78 77.82 633.26 77.25 634.33 76.63 636.62 77.97 637.19 78.48 638.31 78.87 639.34 79.51 641.18 80.36 646.45 83.02 647.21 83.23 647.72 84.1 648.07 83.21 648.64 83.65 648.61 84.2 650.54 85.21 655.36 87.63 659.77 89.91 660.5 89.41 661.03 89.55 661.95 88.89 662.81 87.43 663.8 87.45 664.5 87.82 665.84 87.01 665.83 88.41 667.08 88.35 667.97 87.77 668.44 88.21 669.22 87.63 669.68 88.25 670.74 88.39 671.8 87.4 672.91 86.11 673.99 86.37 674.25 85.34 674.61 85.03 673.77 84.32 673.46 85.31 671.65 86.32 670.21 85.02 669.06 84.65 668.47 84.22 667.33 82.94 668.53 81.26 668.33 79.78 667.76 79.11 667.01 79.93 666.65 79.67 667 78.18 666.54 77.73 666.65 77.22 667.41 76.34 667.23 75.73 667.83 73.96 668.43 73.66 669.15 72.84 670.33 71.05 670.54 69.34 670.38 68.34 669.95 67.91 670.44 66.77 670.93 66.8 671.77 66.32 672.37 65.5 672.98 64.16 673.32 62.98 672.45 62.61 671.75 61.52 672.86 60.37 672.72 60.07 674.38 57.7 674.5 56.61 675.24 56.39 675.71 55.17 675.05 54.02 675.09 53.08 674.32 52.51 673.21 52.05 673.6 51.2 674.69 51.01 674.72 50.34 674.37 49.79 674.41 49.07 673.67 47.82 673.09 47.48 672.28 48.05 671.52 47.9 671.29 47.32 672.09 44.82 671.68 44.13 672.09 43.6 671.88 42.16 671.44 41.7 671.98 40.75 672.92 40.32 673.35 39.62 672.31 38.82 672.4 37.95 670.97 37.86 671.11 35.88 671.77 34.64 671.55 33.03 672.36 31.85 672.58 29.48 671.25 28.81 671.23 27.5 670.64 27.03 669.85 26.87 670.34 25.11 670.71 24.82 669.99 24.08 669.94 22.2 669.39 22.05 668.89 21.37 669.09 20.27 668.6 20.04 668.24 18.64 667.68 17.55 667.22 17.15 668.19 15.46 668.31 14.59 669.06 13.49 669.2 12.8 668.61 12.37 668.86 11.75 668.52 11.08 668.74 10.53 669.86 10.48 671.21 11.18 671.81 10.71 672.24 10.83 673.73 9.76 674.39 9.69 675.23 10.84 675.67 10.47 677.35 9.76 677.92 9.02 678.59 8.8 679.36 7.45 679.73 6.07 680.37 4.95 680.52 3.57 680.85 2.58 682.32 1.62 684.15 1.42 684.25 1 685.3 1.03 685 1.81 685.24 2.43 685.8 2.74 685.81 3.44 684.81 4.44 685.57 5.76 686.58 6.38 687.78 6.29 687.72 7.01 686.22 7.66 685.16 8.98 685.17 9.76 685.49 11.24 684.96 11.8 684.63 12.64 684.9 13.02 686.46 13.65 686.03 14.1 684.94 13.67 684.18 13.92 683.1 13.83 681.89 13.98 681.32 14.24 680.71 13.82 679.66 13.7 679.7 14.62 678.17 14.45 676.94 15.27 674.09 17.96 674.17 18.71 675.13 18.88 677.72 19.73 678.88 19.11 680.01 19.45 680.67 20.07 681.58 19.63 685.32 19.02 685.96 19.1 688.07 22.9 688.97 22.93 688.9 23.77 689.25 24.68 690.19 25.51 690.96 25.83 691.77 25.42 692.43 25.86 692.14 26.53 691.27 26.91 690.35 26.95 689.94 27.27 690 28.07 689.26 28.18 688.68 28.92 688.12 30.17 687.96 31.22 686.91 32.17 687.34 32.96 687.23 34.02 687.72 35.12 686.82 36.08 686.2 36.26 685.27 35.62 682.55 38.8 683.06 39.97 682.33 40.46 682.54 41.89 683.05 42.1 683.53 43.02 685.41 44.97 684.39 45.8 685.38 47.29 685.16 48.39 685.9 49.48 687.28 49.41 686.63 50.86 687.08 51.88 688.39 54.01 688.9 53.93 689.38 54.66 689.02 55.4 687.81 56.42 684.04 60.75 683.69 61.65 682.94 61.95 682.49 62.58 681.78 62.79 681.43 64.41 681.03 64.58 681.13 66.31 682.12 67.6 682.76 68.75 682.83 69.29 683.48 69.53 684.18 70.18 684.59 69.99 685.71 71.1 686.98 71.35 687.19 72.02 688.41 73.05 688 74.14 688.14 77.12 689.28 77.41 689.86 77.91 690.08 78.8 690.62 79.62 692.97 79.53 692.6 80.44 693 81.3 692.62 82.15 693.76 82.79 695 83.24 696.18 82.38 697.18 81.97 698.12 82.66 697.87 83.91 698.17 86.56 698.68 90.32 698.51 91.01 699.03 91.56 699 92.54 698.01 94.09 698.23 95.02 697.72 96.05 697.79 96.64 700.47 97.98 701.48 97.71 703.39 98.54 704.32 98.4 706.02 97.52 706.78 96.87 707.63 96.84 708.06 96.43 708.78 96.64 708.7 97.36 708.09 97.7 707.44 97.61 707.42 98.56 706.94 101.4 706.61 102.69 704.45 103.51 703.63 104.21 703.95 105.37 702.96 104.75 702.69 103.97 700.68 103.31 699.38 103.05 697.8 102.19 696.56 102.1 694.92 104.28 693.79 104.64 692.58 105.34 692.25 105.98 691.8 108.84 691.39 109.89 691.46 111.31 691.96 111.3 692.37 112 692.36 112.82 691.75 114.39 691.03 115.45 690.88 117 690.51 118.05 689.27 118.11 688.61 119.38 687.52 120.77 687.64 121.56 687.35 122.57 687.42 123.4 687.04 124.32 686.25 124.47 685.83 124.06 685.05 124.07 683.49 124.58 682.58 127.34 682.24 128.68 682.98 129.76 682.81 130.28 683.73 131.34 684.47 131.74 684.24 132.31 683.08 133.15 682.87 134.19 682.52 134.81 680.99 134.62 680.07 135.04 680.16 135.9 679.76 136.68 678.68 136.67 676.64 139.57 676.38 139.84 676.36 140.94 677.04 142.24 676.17 143.1 676.66 144.97 675.98 145.93 675.45 146.33 675.02 147.36 674.6 149.77 674.28 150.63 675.38 151.8 676.69 151.99 677.53 151.52 678.11 152.08 678.94 152.3 679.86 151.78 680.5 151.8 680.72 152.45 681.83 152.96 682.48 152.71 683.07 152.04 683.88 152.63 683.87 153.33 683.15 154.23 682.66 154.34 682.18 155.19 682.23 155.62 683.01 155.82 684.03 155.75 685.63 155.17 686.39 155.19 688.04 155.74 688.91 155.86 690.18 156.29 692.63 155.58 693.83 155.75 695.04 156.55 695.27 157.09 694.44 158.4 694.5 160.07 694.37 160.83 Z" fill-rule="evenodd" id="34580360"/>
</g>
</svg>