<?xml version="1.0"?>
<svg xmlns="http://www.w3.org/2000/svg" version="1.2" baseProfile="tiny" width="800" height="677" viewBox="0 0 800 677" stroke-linecap="round" stroke-linejoin="round">
<g id="dong">
<path d="M 365.79 104.47 366.2 109.79 370.53 115.89 371.71 121.16 368.39 132.47 369.99 135.57 379.08 141.47 375.3 148.89 358.02 158.31 348.12 158.5 348.78 184.68 325.81 181.3 318.51 177.5 315.44 174.26 311.16 172.79 307.36 166.13 301.89 163.87 298.14 156.97 303.28 145.04 304.37 140.41 303.44 130.08 297.64 126.46 295.75 115.57 297.9 114.41 299.19 110.05 297.12 105.39 302.21 106.25 321.16 106.66 326.16 107.42 357.52 107.66 365.79 104.47 Z" id="35011630"/>
<path d="M 464.82 324.39 467.33 328.74 474.28 334.15 474.19 338.2 479.75 344.84 480.71 349.18 484.72 353.34 486.54 358.51 491.16 366.25 489.04 374.59 494.42 379.89 492.59 382.9 493.11 390.32 489.21 396.65 485.81 398.22 480.07 404.89 475.39 405.87 472.27 413.08 476.41 418.78 474.48 423.43 473.35 432.71 471.65 434.9 475.76 439.4 479.33 440.63 478.52 449.46 474.8 450.42 474.18 453.5 469.32 458.57 464.94 461.07 463.18 466.16 460.6 467.38 459.36 472.01 459.76 475.81 457.48 481.62 461.2 488.69 461.12 493.62 448.61 490.77 444.71 492.03 439.06 486.79 434.01 486.55 430.47 484.57 421.95 486.14 418.18 483.84 414.06 485.01 410.24 491.01 406.13 493.3 402.48 497.97 401.92 501.15 391.75 504.78 386.48 515.8 381.14 518.76 377.27 518.36 361.3 524.47 358.05 524.95 355.02 528.91 353.48 534.52 350.86 538.6 345.09 530.19 343.73 540.27 341.99 542.58 336.6 542.98 340.47 534.16 326.51 533.05 325.68 543.62 323.37 543.5 319.37 552.83 313.28 552.52 307.43 548.34 305.66 549.6 296.42 545.51 288.93 544.95 283.56 545.78 277.5 539.96 268.33 538.16 266.3 536.61 261.82 539 260.45 534.92 255.53 535.92 251.09 535.17 250.78 531.11 247.97 525.12 249.08 517.87 246.5 515.96 249.74 508.19 252.45 506.53 253.22 501.54 250.93 496.41 247.64 493.63 247.29 488.31 245.35 485.12 246.04 481.59 249.67 476.99 256.54 474.79 258.98 465.93 262.43 462.74 262.14 456.11 260.11 447.87 262.58 446.91 264.16 442.3 268.21 439.78 273.24 433.95 267.34 423.85 287.95 411.01 278.9 396.46 297.95 384.64 299.28 378.11 297.11 372.9 290.86 364.89 288.08 359.17 285.89 351.3 284.36 338.83 284.79 334.67 287.36 330.47 295.6 327.66 296.42 325.44 307.68 325.43 307.71 313.29 313.97 314.36 319.29 312.24 324.34 310.95 324.32 307.45 332.79 305.74 337.22 301.55 345.35 298.12 347.88 296.2 362.51 292.14 381.94 285.63 392.85 282.73 393.84 280.35 383.96 268.65 387.75 265.04 390.06 264.86 393.67 261.09 397.65 260.35 404.38 256.67 407.15 256.28 409.98 261.42 414.31 272.14 413.07 273.07 412.89 286.03 412.35 287.81 412.25 303.85 418.38 305.41 420.73 304.72 430.4 309.45 442.94 320.48 450.83 323.45 464.82 324.39 Z" id="35011650"/>
<path d="M 347.12 51.35 357.89 59.67 363.51 62.22 366.67 65.76 368.4 74.36 370.15 78.65 374.58 84.81 373.6 92.75 369.44 95.17 367.94 101.25 365.79 104.47 357.52 107.66 326.16 107.42 321.16 106.66 302.21 106.25 297.12 105.39 299.19 110.05 297.9 114.41 295.75 115.57 293.2 105.85 294.58 104.57 293.47 99.67 294.76 92.34 293.14 83.31 291.41 80.22 286.58 75.82 276.52 72.91 271.16 69.82 263.49 62.25 262.45 56.16 264.64 51.69 264.86 46.49 263.53 32.83 259.57 19.9 256.49 17.94 253.45 9.45 259.26 1 263.91 7.71 270.46 10.4 274.51 15.29 278.07 21.26 288.19 26.52 303.27 32.95 306.91 33.02 311.1 29.53 323.51 28.91 326.65 30.58 332.67 40.37 347.12 51.35 Z" id="35011660"/>
<path d="M 291.15 247.89 294.36 249.71 296.49 247.96 305.42 247.81 305.4 263.16 319.15 263.75 319.29 312.24 313.97 314.36 307.71 313.29 307.68 325.43 296.42 325.44 295.6 327.66 287.36 330.47 284.79 334.67 284.36 338.83 285.89 351.3 288.08 359.17 290.86 364.89 297.11 372.9 299.28 378.11 297.95 384.64 278.9 396.46 287.95 411.01 267.34 423.85 273.24 433.95 268.21 439.78 264.16 442.3 262.58 446.91 260.11 447.87 262.14 456.11 262.43 462.74 258.98 465.93 256.54 474.79 249.67 476.99 246.04 481.59 245.35 485.12 247.29 488.31 247.64 493.63 250.93 496.41 253.22 501.54 252.45 506.53 249.74 508.19 246.5 515.96 249.08 517.87 247.97 525.12 250.78 531.11 251.09 535.17 249.14 538.73 244.5 541.51 243.22 547.23 239.79 550.06 234.89 557.44 233.82 560.73 235.71 565.48 231.41 568.88 227.46 574.92 219.85 576.44 218.09 580.69 217.58 587.78 218.93 595.59 217.35 599.68 218.51 603.31 219.48 614.84 218.3 623.51 212.89 628.6 204.5 627.57 198.06 629.69 194.72 638.12 190.48 639.68 188.77 642.93 179.05 653.46 177.23 658.57 173.77 662.35 167.57 676 157.42 671.05 150.06 664.96 147.25 644.89 138.67 634.91 136.06 630.23 130.13 624.34 121.64 618.18 115.7 613.14 103.97 604.55 99.7 604.45 96.65 596.11 98.74 584 96.48 571.42 96.82 564.87 93.47 559.76 88.55 557.55 85.85 554.68 78.97 553.87 75.75 552.12 74.05 548.3 70.08 546.42 67.54 542.61 67.99 536.38 62.33 531.81 53.14 532.92 49.58 535.42 43.73 535.52 39.09 537.47 34.59 536.03 31.98 532.96 29.28 532.71 21.12 525.69 15.75 526.98 8.64 521.43 1.77 518.99 1 517.1 1.09 512.6 3.5 506.42 5.56 493.77 12.49 483.24 15.75 469.13 22.8 464.42 29.25 466.28 31.7 465.86 36.75 460.55 44.28 458.92 49.2 460.01 52.61 459.29 58.75 453.35 61.34 453.88 67.07 450.69 71.28 446.39 66.76 434.67 73.11 430.72 78.87 428.69 82.27 423.93 84.77 424.31 94.66 415.41 98.07 410.35 101.79 412.26 105.06 410.44 107.59 412.53 111.44 410.2 112.86 402.93 115.11 399.21 112.54 397.95 110.59 392.47 105.67 389.71 106.14 379.51 105.07 374.22 100.22 367.89 101.02 362.42 98.88 358.05 93.2 354.12 88.13 352.17 85.03 342.3 82.45 341.61 78.79 337.71 68.93 335.94 70.98 330.12 68.17 323.45 74.45 316.94 76.52 313.76 71.22 311.63 71.2 308.96 71.33 303.75 68.84 302.87 67.77 299.37 70.92 296.39 67.92 284.01 64 281.2 66.9 274.23 67.7 269.65 71.67 264.63 69.04 257.02 73.05 251.64 71.32 244.02 75.56 236.37 85.28 231.48 77.29 227.74 82.54 219.11 85.95 220.35 90.98 218.75 97.48 220.71 104.04 214.83 107.72 215.54 109.23 218.31 114.32 215.57 119.81 221.35 127.26 224.76 132.99 216.79 132.95 211.69 138.97 205.88 142.86 204.23 147.62 206.32 151.44 205.53 155.49 206.7 162.8 201.38 170.53 206.91 173.64 212.11 177.35 215.23 176.89 219.76 174.04 221.16 173.55 224.41 170.47 229.75 172.68 233.04 172.1 239.25 176.45 247.49 182.26 252.58 186.3 251.34 193.51 254.4 194.55 260.1 193.71 267.51 188.25 272.62 188.46 275.13 192.78 277.13 197.17 276.77 201.97 280.59 204.26 284.44 210.61 288.8 217.3 288.96 218.95 285.54 230.04 285.81 232.42 282.66 235.61 281.44 242.87 283.05 246.81 282.7 250.57 284.13 252.62 278.82 254.68 277.54 258.16 281.81 262.85 284.68 267.93 277.47 272.11 281.64 280.75 281.34 278.67 267.08 278.79 261.99 284.5 257.66 291.15 247.89 Z" id="35011690"/>
<path d="M 381.12 204.64 392.15 216.77 400.08 214.03 404.68 210.84 412.2 211.59 424.3 209.03 429.21 209.83 433.71 217.46 431.89 221.64 434.32 223.83 437.37 230.14 438.93 235.66 435.87 239.67 434.41 242.52 430.77 242.13 428.56 245.75 414.75 250.95 413.82 247.31 405.27 242.45 403.32 247.13 398.11 251.7 391.42 238.48 380.52 243.11 375 243.8 368.79 242.02 364.06 242.96 359.96 239.97 352.75 231.12 349.54 221.55 350.91 215.83 350.76 200.57 359 200.07 363.63 203.03 364.55 209.21 374.92 208.55 381.12 204.64 Z" id="35011700"/>
<path d="M 457.2 127.66 461.12 142.59 456.43 144.43 461.89 162.56 458.97 163.56 461.63 170.76 459.74 175.77 452.64 172.67 449.97 170.37 445.27 171.49 440.72 175.04 444.7 178.39 445.15 180.79 436.03 180.43 429.69 178.42 425.31 174.36 424.27 169.64 425.28 157.54 422.28 150.25 416.24 140.78 412.26 139.43 408.65 134.62 395.49 121.97 390.45 114.49 393.2 111.44 397.53 110.73 397.02 107.64 415.15 104.66 414.08 97.94 420.94 95.55 435.73 91.66 444.81 105.54 449.87 121.79 454.25 119.74 457.2 127.66 Z" id="35011740"/>
<path d="M 571.15 159.63 571.43 164.65 577.88 174.35 579.73 174.95 584.99 181.17 583.41 185.29 569.36 196.84 566.27 201.08 558.33 203.7 548.73 207.93 543.4 212.09 540.92 207.55 538.06 197.29 535.56 192.13 531.69 188.58 527.28 187.33 521.16 187.82 509.53 190.23 496.78 190.4 489.07 192.04 481.24 191.61 480.24 192.52 471.8 190.44 460.1 184.74 452.82 181.92 445.15 180.79 444.7 178.39 440.72 175.04 445.27 171.49 449.97 170.37 452.64 172.67 459.74 175.77 461.63 170.76 458.97 163.56 461.89 162.56 456.43 144.43 461.12 142.59 457.2 127.66 473.68 122.03 475.75 123.08 482.89 129.8 488.86 130.44 491.84 133.04 494.72 151.58 503.34 152.65 506.35 157.06 511.7 155.99 515.91 156.43 522.7 154.88 525.13 158.02 529.75 160.01 533.09 156.01 542.99 163.19 545.51 163.85 549.73 160.21 555.71 162.51 563.37 159.19 571.15 159.63 Z" id="35011750"/>
<path d="M 464.82 324.39 450.83 323.45 442.94 320.48 430.4 309.45 420.73 304.72 418.38 305.41 412.25 303.85 412.35 287.81 412.89 286.03 413.07 273.07 414.31 272.14 409.98 261.42 407.15 256.28 414.75 250.95 428.56 245.75 430.77 242.13 434.41 242.52 435.87 239.67 441.68 241.81 443.41 245.7 446.98 247.85 450.08 256.48 453.55 255.83 453.86 266.47 450.26 270.36 458.59 273.22 460.07 269.25 463.41 267.4 458.69 279.88 456.6 288.48 462.57 292.52 463.16 299.71 459.67 309.09 461.03 314.57 463.84 317.52 464.82 324.39 Z" id="35011640"/>
<path d="M 414.75 250.95 407.15 256.28 404.38 256.67 397.65 260.35 393.67 261.09 390.06 264.86 387.75 265.04 383.96 268.65 376.7 259.79 361.59 272.73 357.95 272.48 344.82 264.19 342.27 263.62 319.15 263.75 319.67 253.82 318.96 242.21 345.12 242.2 349.79 246.36 353.54 242.92 359.96 239.97 364.06 242.96 368.79 242.02 375 243.8 380.52 243.11 391.42 238.48 398.11 251.7 403.32 247.13 405.27 242.45 413.82 247.31 414.75 250.95 Z" id="35011670"/>
<path d="M 319.29 312.24 319.15 263.75 342.27 263.62 344.82 264.19 357.95 272.48 361.59 272.73 376.7 259.79 383.96 268.65 393.84 280.35 392.85 282.73 381.94 285.63 362.51 292.14 347.88 296.2 345.35 298.12 337.22 301.55 332.79 305.74 324.32 307.45 324.34 310.95 319.29 312.24 Z" id="35011680"/>
<path d="M 348.78 184.68 349.18 200.53 350.76 200.57 350.91 215.83 349.54 221.55 352.75 231.12 359.96 239.97 353.54 242.92 349.79 246.36 345.12 242.2 318.96 242.21 319.29 231.47 318.92 216.34 305.35 183.53 302.98 176.89 298.8 175.36 298.96 174.7 301.89 163.87 307.36 166.13 311.16 172.79 315.44 174.26 318.51 177.5 325.81 181.3 348.78 184.68 Z" id="35011710"/>
<path d="M 318.96 242.21 319.67 253.82 319.15 263.75 305.4 263.16 305.42 247.81 296.49 247.96 294.36 249.71 291.15 247.89 292.69 244.95 292.51 236.96 285.93 227.74 282.11 226.97 278.79 219.04 278.87 211.35 283.39 207.28 288.68 198.62 290.34 193.31 291.34 185.95 294.95 185.68 297.69 175.67 298.8 175.36 302.98 176.89 305.35 183.53 318.92 216.34 319.29 231.47 318.96 242.21 Z" id="35011720"/>
<path d="M 570.64 151.2 571.15 159.63 563.37 159.19 555.71 162.51 549.73 160.21 545.51 163.85 542.99 163.19 533.09 156.01 529.75 160.01 525.13 158.02 522.7 154.88 515.91 156.43 511.7 155.99 506.35 157.06 503.34 152.65 494.72 151.58 491.84 133.04 488.86 130.44 482.89 129.8 475.75 123.08 473.68 122.03 457.2 127.66 454.25 119.74 449.87 121.79 444.81 105.54 435.73 91.66 448.12 87.88 458.7 85.3 461.01 75.02 467.05 77.68 473.12 78.23 474.5 80.44 478.02 79.59 484.69 81.78 489.28 80.63 497.12 82.12 497.88 86.67 504.67 88.69 506.51 86.51 506.41 82.04 509.9 82.32 514.59 85.88 518.21 92.5 521.83 95.36 526.09 101.41 528.71 101.26 533.96 112.45 533.81 118 539.21 116.21 543.18 120.1 548.34 122.75 548.84 125.84 554.16 134.49 559.28 140.36 570.64 151.2 Z" id="35011760"/>
<path d="M 445.15 180.79 452.82 181.92 460.1 184.74 471.8 190.44 473.09 195.64 472.7 200.73 471.18 204.01 452.65 220.97 451.8 231.5 445.89 232.13 445.32 235.79 438.93 235.66 437.37 230.14 434.32 223.83 431.89 221.64 433.71 217.46 429.21 209.83 424.3 209.03 412.2 211.59 404.68 210.84 400.08 214.03 392.15 216.77 381.12 204.64 387.31 200.27 389.75 202.11 394.24 200.35 392.34 194.83 392.61 191.76 409.68 185.5 417.94 185.01 419.91 182 419.61 177.42 421.71 175.04 425.31 174.36 429.69 178.42 436.03 180.43 445.15 180.79 Z" id="35011770"/>
<path d="M 298.96 174.7 298.8 175.36 297.69 175.67 294.95 185.68 291.34 185.95 290.34 193.31 288.68 198.62 283.39 207.28 278.87 211.35 278.79 219.04 282.11 226.97 285.93 227.74 292.51 236.96 292.69 244.95 291.15 247.89 284.5 257.66 278.79 261.99 278.67 267.08 280.75 281.34 272.11 281.64 267.93 277.47 262.85 284.68 258.16 281.81 254.68 277.54 252.62 278.82 250.57 284.13 246.81 282.7 242.87 283.05 235.61 281.44 232.42 282.66 230.04 285.81 218.95 285.54 217.3 288.96 210.61 288.8 204.26 284.44 201.97 280.59 197.17 276.77 192.78 277.13 188.46 275.13 188.25 272.62 193.71 267.51 194.55 260.1 193.51 254.4 186.3 251.34 182.26 252.58 176.45 247.49 172.1 239.25 172.68 233.04 170.47 229.75 173.55 224.41 174.04 221.16 176.89 219.76 177.35 215.23 173.64 212.11 170.53 206.91 162.8 201.38 155.49 206.7 151.44 205.53 147.62 206.32 142.86 204.23 138.97 205.88 132.95 211.69 132.99 216.79 127.26 224.76 119.81 221.35 114.32 215.57 109.23 218.31 107.72 215.54 104.04 214.83 97.48 220.71 90.98 218.75 85.95 220.35 82.54 219.11 86.69 211.06 84.08 208.43 83.06 196.67 84.61 188.41 82.17 184.49 83.66 177.43 82.27 169.08 90.9 169.11 90.91 166.59 87.42 161.01 85.54 154.27 85.22 148.68 80.53 142.19 74.39 131.54 72.65 126.1 75.79 123.28 79.45 115.03 83.32 110.29 100.17 108.99 100.04 107.34 105.26 106.49 118.08 107.23 119.1 107.81 146.25 115.32 150.89 118.16 161.71 126.35 174.99 130.15 178.6 131.91 200.78 146.12 209.33 148.37 213.78 148.54 213.97 169.22 213.08 173.9 215.44 174.68 298.96 174.7 Z" id="35011780"/>
<path d="M 256.49 17.94 259.57 19.9 263.53 32.83 264.86 46.49 264.64 51.69 262.45 56.16 263.49 62.25 271.16 69.82 276.52 72.91 286.58 75.82 291.41 80.22 293.14 83.31 294.76 92.34 293.47 99.67 294.58 104.57 293.2 105.85 295.75 115.57 297.64 126.46 303.44 130.08 304.37 140.41 303.28 145.04 298.14 156.97 301.89 163.87 298.96 174.7 215.44 174.68 213.08 173.9 213.97 169.22 213.78 148.54 209.33 148.37 200.78 146.12 178.6 131.91 174.99 130.15 161.71 126.35 150.89 118.16 146.25 115.32 119.1 107.81 118.08 107.23 105.26 106.49 105.24 102.9 108.68 102 117.79 97.75 125.5 97.11 130.57 92.73 132.02 84.17 133.81 83.56 139.86 77.21 148.86 77.31 158.26 73.06 160.01 66.18 169.51 62.65 173.16 58.89 173.01 53.58 174.75 48.62 175.04 43.8 179.07 38.2 190.79 30.96 194.56 32.18 200.26 30.29 215.5 28.61 217.72 30.62 230.61 26.34 233.53 23.35 241.81 25.85 246.28 29.07 251.4 19.45 255.48 20.54 256.49 17.94 Z" id="35011790"/>
<path d="M 798.95 245.1 799 248.08 793.77 257.64 790.02 258.62 789.11 265.17 785.88 267.4 782.21 266.76 777.21 270.26 776.32 278.15 774.43 281.92 773.24 290.36 766.71 295.98 758.61 301.79 750.71 311.22 746.81 316.9 747.21 321.47 738.65 325.51 729.7 326.88 723.37 325.14 715.98 327.33 713.73 331.48 719.89 334.27 725.63 340.95 725.74 347.49 724.2 352.43 717.18 359.14 715.16 363.77 714.69 368.76 715.52 375.39 717.15 380.28 716.26 393.13 714.81 398.37 712.1 403.43 705.11 402.29 699.85 407.32 694.95 407.13 691.38 405.31 688.03 401.58 684.77 394.59 678.66 395.57 675.36 392.68 667.67 389.26 660.77 378.68 654.9 377.23 647.73 377.87 642.19 380.92 639.84 384.28 630.96 391.66 626.2 398.97 620.15 399.17 615.97 401.2 611.1 399.49 605.84 390.84 598.31 394.36 594.26 387.14 593.03 381.61 588.74 376.89 583.47 375.62 577.31 368.11 574.17 369.21 567.3 367.76 554.52 362.29 551.31 359.96 543.93 362.36 539.05 358.33 534.87 352.91 539.33 346.89 543.09 336.96 540.19 329.36 539.2 318.7 538.24 315.87 539.51 308.57 533.25 304.06 532.1 300.61 525.1 298 518.55 292.82 504.29 287.23 499.83 281.29 499.69 278.43 494.98 274.03 495 268.09 490.26 261.31 489.99 254.24 494.13 240.43 486.77 237.1 484.63 233.66 486.34 224.69 485.56 217.28 486.83 209.59 486.15 198.28 487.87 198.44 489.07 192.04 496.78 190.4 509.53 190.23 521.16 187.82 527.28 187.33 531.69 188.58 535.56 192.13 538.06 197.29 540.92 207.55 543.4 212.09 548.73 207.93 558.33 203.7 566.27 201.08 569.36 196.84 583.41 185.29 591.06 189.32 592.37 192.51 592.2 197.39 599.04 200.55 601.14 207.65 606.08 209.87 607.51 212.77 612.45 212.71 617.74 215.95 622.5 225.12 630.38 226.2 634.96 222.83 637.98 222.06 645.84 223.89 652.01 220.24 657.07 222.83 661.47 218.6 662.73 211.86 673.31 201.44 675.66 197.71 678.34 197.28 684.08 198.9 687.03 196.59 692.12 195.48 696.27 196.73 710.16 192.22 716.86 192.65 721.03 196.61 735.13 201.7 740.12 204.19 743.4 210.52 752.46 221 763.61 224.71 769.09 223.76 771.48 225.19 782.56 226.11 784.21 234.03 790.17 236.81 791.79 240.15 795.4 240.71 798.95 245.1 Z" id="35011600"/>
<path d="M 489.07 192.04 487.87 198.44 486.15 198.28 486.83 209.59 485.56 217.28 486.34 224.69 484.63 233.66 486.77 237.1 494.13 240.43 489.99 254.24 490.26 261.31 495 268.09 494.98 274.03 499.69 278.43 499.83 281.29 504.29 287.23 518.55 292.82 525.1 298 532.1 300.61 533.25 304.06 539.51 308.57 538.24 315.87 539.2 318.7 540.19 329.36 543.09 336.96 539.33 346.89 534.87 352.91 532.06 355.09 526.37 362.45 523.89 361.26 519.1 363.74 513.19 370.19 509.72 370.11 499.43 375.19 494.42 379.89 489.04 374.59 491.16 366.25 486.54 358.51 484.72 353.34 480.71 349.18 479.75 344.84 474.19 338.2 474.28 334.15 467.33 328.74 464.82 324.39 463.84 317.52 461.03 314.57 459.67 309.09 463.16 299.71 462.57 292.52 456.6 288.48 458.69 279.88 463.41 267.4 460.07 269.25 458.59 273.22 450.26 270.36 453.86 266.47 453.55 255.83 450.08 256.48 446.98 247.85 443.41 245.7 441.68 241.81 435.87 239.67 438.93 235.66 445.32 235.79 445.89 232.13 451.8 231.5 452.65 220.97 471.18 204.01 472.7 200.73 473.09 195.64 471.8 190.44 480.24 192.52 481.24 191.61 489.07 192.04 Z" id="35011610"/>
<path d="M 350.76 200.57 349.18 200.53 348.78 184.68 348.12 158.5 358.02 158.31 375.3 148.89 379.08 141.47 386.69 142.09 391.96 149.32 394.6 149.08 396.35 152.43 401.42 150.95 406.89 146.32 408.2 142.63 407.03 136.17 408.65 134.62 412.26 139.43 416.24 140.78 422.28 150.25 425.28 157.54 424.27 169.64 425.31 174.36 421.71 175.04 419.61 177.42 419.91 182 417.94 185.01 409.68 185.5 392.61 191.76 392.34 194.83 394.24 200.35 389.75 202.11 387.31 200.27 381.12 204.64 374.92 208.55 364.55 209.21 363.63 203.03 359 200.07 350.76 200.57 Z" id="35011620"/>
</g>
</svg>