<?xml version="1.0"?>
<svg xmlns="http://www.w3.org/2000/svg" version="1.2" baseProfile="tiny" width="800" height="475" viewBox="0 0 800 475" stroke-linecap="round" stroke-linejoin="round">
<g id="dong">
<path d="M 728.91 146.38 728.05 147.46 727.05 147.78 726.94 148.36 727.3 150 726.98 150.89 726.45 151.42 726.53 152.64 725.67 152.59 725.77 153.45 725.52 154.03 725.95 154.88 725.71 155.27 726.82 156.19 728.42 156.32 728.95 156.64 729.8 158.56 730.73 160.31 730.15 160.35 729.5 160.79 728.61 161.81 727.97 162.4 726.79 162.77 725.71 163.75 724.36 164.41 723.06 164.46 721.33 164.96 720.82 165.69 720.75 166.42 719.36 168.51 718.3 168.08 718.1 167.69 717.02 167.27 716.57 166.81 715.27 166.68 713.82 166.97 712.79 167.39 712.15 167.07 710.96 167.07 710.72 167.26 708.04 167.28 707.29 166.76 706.53 166.72 706.3 165.74 706.38 164.56 707.2 162.92 707.05 162.27 706.62 161.94 705.81 162.02 705.11 161.77 703.86 160.49 702.97 160 701.91 158.37 700.88 158.29 700.22 157.6 698.25 157.59 697.45 157.36 697.19 158 696.26 158.6 695.05 158.13 694.5 159.08 692.74 158.9 692.78 158.43 691.76 158 690.69 157.95 690.08 158.39 689.8 159.01 689.14 159.28 688.74 158.68 688.67 156.96 687.9 156.61 686.14 157.12 685.6 157.61 684.81 157.42 684.22 156.69 683.25 156.77 682.31 157.07 681.16 157.09 680.52 156.36 680.48 155.45 679.79 154.66 678.57 154.34 677.79 153.41 677.62 152.76 676.61 151.99 677.44 151.15 676.63 149.67 676.09 149.19 674.81 149.18 674.6 148.23 673.36 147.68 672.23 147.35 671.9 146.42 672.52 145.99 673.13 144.78 672.16 144.85 672.26 144.14 671.7 142.92 673.36 141.87 675.76 141.34 676.93 140.15 676.35 139.42 675.84 138.39 675.96 136.41 676.55 135.99 677.09 135.23 676.41 134.08 675.04 133.25 675.12 132.42 675.97 131.56 676.33 130.68 676.11 129.46 676.59 128.29 676.88 127.11 675.66 126.66 674.54 127.85 674.21 128.68 672.63 129.7 672.29 130.51 671.89 130.69 670.78 130.24 669.93 130.07 669.56 129.14 668.93 128.5 667.61 128.1 667.13 127.48 666.66 127.37 666.23 128.12 665.74 128.13 665.84 127.29 664.64 126.46 663.83 125.86 661.2 124.54 658.77 123.75 657.89 123.85 656 124.38 655.01 124.37 652.53 124.97 652.62 124.7 653.05 123.34 654.48 117.86 655.45 115.28 656.39 113.27 658.04 110.68 658.97 110.4 665.29 110.13 667.54 110.29 669.5 110.42 672.09 109.23 673.96 107.84 676.3 106.69 690.57 104.71 691.82 104.59 691.93 111.75 691.2 111.39 690.83 110.78 690.24 111.06 691.14 112.46 690.8 113.2 689.84 114.2 689.46 115.7 689.87 116.74 689.13 118.2 688.91 119.85 689.09 120.27 691.03 120.28 691.78 121.02 691.91 121.81 692.29 121.99 694.05 122.26 694.29 122.78 694.94 123.26 694.83 123.7 696.47 125.05 697.21 124.41 698.1 123.29 699.15 122.33 699.91 123.07 700.46 120.77 702.18 120.6 703.25 120.86 704.45 121.44 706.26 123.07 706.35 123.6 706.84 124.14 706.86 124.88 707.2 125.7 707.25 126.41 708.26 127.2 709.68 127.64 710.56 129.32 712.45 130.61 713.62 132.86 713.79 133.5 715.19 132.34 715.73 131.5 715.88 130.39 716.28 130.42 717.4 131.18 718.01 131.78 718.75 133.74 719.48 133.9 719.67 134.82 720.82 135.18 721.43 135.07 721.46 136.15 722.09 138.68 720 139.4 720.14 139.82 720.88 140.33 721.68 140.46 722.57 140.33 723.21 140.71 724.33 141.88 725.9 144.24 727.43 144.64 728.91 146.38 Z" id="35020370"/>
<path d="M 763.57 95.67 762.76 97.32 762.08 97.62 761.78 99.67 761.36 100.26 761.47 101.39 761.15 103.27 760.24 104.02 760.45 105.42 760.85 106.27 761.58 106.71 762.06 107.96 762.08 108.82 761.47 110.13 760.33 110.5 759.68 111.13 759.63 111.82 759.93 112.53 759.25 112.82 758.87 112.57 758.51 113.7 757.89 114.26 758.97 115.46 759.27 116.53 758.78 117.8 758.31 118 757.94 118.71 757.97 119.5 756.79 120.07 755.51 119.84 754.37 120.42 753.39 120.16 752.71 119 751.06 119.03 749.89 118.61 748.69 118.59 748.04 117.95 747.81 117.37 746.8 116.36 745.58 116.59 745.19 117.01 743.58 116.58 743.03 116.19 741.9 116.62 741.7 116.94 740.5 116.88 739.84 117.05 739.36 116.58 738.6 116.73 737.5 117.2 736.68 118.03 735.8 118.37 736.45 119.71 736.49 120.14 738.32 122.3 740.15 123.12 740.98 124.25 740.11 125.13 739.73 125.82 740.01 127.01 738.64 129.66 738.51 131.01 737.82 130.97 736.83 131.59 736.36 132.37 735.93 132.57 735.76 133.75 736.15 133.84 736.43 135.85 736.16 136.67 736.5 137.66 735.8 138.51 735.71 139.05 734.79 139.53 734.25 141.05 733.39 142.32 732.73 142.67 732.27 143.26 732.3 143.94 731.01 144.73 730.15 145.82 729.31 146.43 728.91 146.38 727.43 144.64 725.9 144.24 724.33 141.88 723.21 140.71 722.57 140.33 721.68 140.46 720.88 140.33 720.14 139.82 720 139.4 722.09 138.68 721.46 136.15 721.43 135.07 720.82 135.18 719.67 134.82 719.48 133.9 718.75 133.74 718.01 131.78 717.4 131.18 716.28 130.42 715.88 130.39 715.73 131.5 715.19 132.34 713.79 133.5 713.62 132.86 712.45 130.61 710.56 129.32 709.68 127.64 708.26 127.2 707.25 126.41 707.2 125.7 706.86 124.88 706.84 124.14 706.35 123.6 706.26 123.07 704.45 121.44 703.25 120.86 702.18 120.6 700.46 120.77 699.91 123.07 699.15 122.33 698.1 123.29 697.21 124.41 696.47 125.05 694.83 123.7 694.94 123.26 694.29 122.78 694.05 122.26 692.29 121.99 691.91 121.81 691.78 121.02 691.03 120.28 689.09 120.27 688.91 119.85 689.13 118.2 689.87 116.74 689.46 115.7 689.84 114.2 690.8 113.2 691.14 112.46 690.24 111.06 690.83 110.78 691.2 111.39 691.93 111.75 691.82 104.59 696.66 104.15 704.15 102.73 706.73 101.86 708.83 100.43 712.35 96.4 713.76 94.68 715.38 92.09 717.75 87.5 719.62 85.76 726.88 83.77 734.6 82.91 735.44 82.74 736 82.63 742.55 80.18 747.48 78.04 755.65 75.17 756.65 74.63 756.83 75.41 757.28 78.86 756.37 79.41 756.8 80.14 756.72 80.69 757.13 81.31 758.33 81.97 758.17 84.57 758.28 85.64 759.26 87.08 759.14 87.41 759.34 89.18 759.57 90.03 760.76 90.95 761.64 91.35 762.45 91.44 762.66 92.02 763.33 92.5 764.42 92.93 763.48 95.1 763.57 95.67 Z" id="35020380"/>
<path d="M 606.11 171.98 606.02 172.43 604.49 173.11 604.43 173.78 605.08 174.61 605.23 175.25 605.97 176 605.4 176.62 604.47 176.76 604.94 177.88 604.86 178.87 604.5 179.02 603.38 178.86 602.54 178.98 601.02 178.93 600.72 179.23 599.17 179.28 596.29 179.14 595.99 183.77 594.98 183.6 594.54 184.25 594.66 186 595.16 186.71 594.81 187.38 594.72 188.35 594.11 188.99 591.7 188.47 590.91 188.64 590.68 189.37 591.19 190.37 590.57 190.47 590.65 191.64 590.57 194.59 590.63 195.32 590.56 198.06 590.82 201.79 590.57 204.06 589.83 203.94 589.88 204.63 591.01 205.43 591.18 208.22 590.39 210.72 590.09 211.25 589.91 212.14 589.28 214.02 588.62 214.36 588.92 215.1 588.56 216.15 588.24 215.95 587.8 217.19 587.8 218.25 587.58 219.34 585.92 220.66 580.66 219.37 579.45 218.82 575.21 215.6 573.15 214.03 573.71 212.58 573.27 211.01 571.97 209.39 573.35 207.89 565.51 203.09 564.4 202.09 563.36 201.55 561.87 199.98 561.61 198.62 561.86 196.35 561.69 196 560.44 194.74 559.53 194.45 558.92 194.66 554.44 196.62 553.58 196.61 551.73 195.82 551.63 196.16 549.28 195.85 547.62 196.63 546.93 196.37 546.56 196.82 546.48 196.59 533.8 192.66 532.96 193.06 532.39 192.19 530.9 192.09 530.31 192.76 528.26 192.26 527.76 191.64 527.87 190.67 527.58 190.48 527.02 189.76 522.9 190.45 522.79 190.36 522.53 186.01 522.07 186.24 518.46 186.46 518.37 185.09 518.95 185.09 519.11 184.33 519.71 184.14 520.41 184.5 520.69 183.74 521.43 183.46 521.89 183.83 522.12 184.74 523.37 184.72 524.33 184.26 525.36 183.47 526.15 183.43 526.85 183.69 529.82 181.59 538.15 175.92 541.98 173.25 551.62 172.68 558.06 170.98 573.46 166.74 573.57 166.65 577.77 165.52 578.72 165.04 585.9 162.2 593.43 159.17 598.41 163.44 596.64 164.73 596.38 168.86 599.63 169.07 599.7 168.78 603.93 169.06 604.17 169.85 604.59 170.02 605.72 171.1 605.61 171.63 606.11 171.98 Z" id="35020730"/>
<path d="M 614.49 176.17 615.57 176.46 615.55 176.89 616.11 177.78 616.99 177.6 617.07 176.66 621.55 178.1 621.75 178.23 621.11 180.2 620.75 182.18 621.27 185.05 621.01 185.91 621.06 187.52 620.31 189.05 620.49 191.15 620.01 191.09 619.06 191.75 619.25 193.44 618.95 193.67 618.72 194.9 618.6 196.79 618.09 197.48 616.91 197.26 616.68 198.23 616.33 198.75 615.26 198.87 615.29 199.46 614.95 200.44 614.19 201.09 614.24 201.61 613.21 201.76 611.65 201.39 609.98 202.1 609.65 202.63 608.72 202.8 608.23 203.91 608.83 204.95 608.69 205.49 606.46 205.55 600.76 205.82 600.46 208.01 599.68 208.99 599.76 209.66 599.27 210.17 598.29 211.77 598.39 212.63 597.77 213.46 597.4 214.26 596.25 213.99 595.11 213.32 594.78 213.48 594.37 212.65 593.63 212.81 593.28 212.09 592.67 212.38 592.12 212.25 591.86 211.71 591.17 211.99 590.77 211.16 590.09 211.25 590.39 210.72 591.18 208.22 591.01 205.43 589.88 204.63 589.83 203.94 590.57 204.06 590.82 201.79 590.56 198.06 590.63 195.32 590.57 194.59 590.65 191.64 590.57 190.47 591.19 190.37 590.68 189.37 590.91 188.64 591.7 188.47 594.11 188.99 594.72 188.35 594.81 187.38 595.16 186.71 594.66 186 594.54 184.25 594.98 183.6 595.99 183.77 596.29 179.14 599.17 179.28 600.72 179.23 601.02 178.93 602.54 178.98 603.38 178.86 604.5 179.02 604.86 178.87 604.94 177.88 604.47 176.76 605.4 176.62 605.97 176 605.23 175.25 605.08 174.61 604.43 173.78 604.49 173.11 606.02 172.43 606.11 171.98 606.83 172.03 608.41 174.19 609.03 174.44 611.52 175.87 614.49 176.17 Z" id="35020740"/>
<path d="M 647.55 180.12 647.88 181.21 648.81 181.57 651.46 181.5 653.08 181.3 653.67 181.7 654.4 181.81 655.15 182.41 656.19 182.51 658.79 183.19 663.26 184.27 666.65 184.38 669.85 184.22 673.75 184.08 673.67 184.79 674.87 185.25 674.83 186.23 675.84 186.52 675.55 186.93 675.76 187.98 675.14 189.05 675.5 189.55 675.37 190.31 675.55 191.26 675.94 192.08 676.35 192.41 676.83 193.7 677.37 194.59 678.29 196.91 678.32 198.28 678.88 199.03 679.72 199.21 679.63 200 679.46 201.49 679.65 202.26 678.92 203.36 679 204.65 680.1 205.66 679.84 206.8 678.28 207.65 676.9 207.51 676.55 207.64 674.45 207.42 673.65 208.1 672.33 207.69 670.9 207.85 670.59 207.52 669.3 207.52 668.58 207.32 668.23 206.41 667.27 206.2 666.61 206.47 666.35 207.42 666.03 207.78 664.37 208.34 663.71 208.21 662.77 207.71 662.98 206.87 662.38 206.4 661.81 207.96 661.02 209.23 660.33 208.89 660.05 208.34 659.11 208.37 657.96 207.64 657.89 208.22 657.41 209.07 656.3 208.92 656.34 209.62 654.48 209.39 654.01 210.98 653.56 211.41 653.29 213 652.56 213.32 652.26 213.85 651.4 214.14 651.25 215.75 652 217.3 651.85 218.19 652.1 218.91 651.96 219.58 652.59 220.07 653.2 220.14 653.09 221.06 653.18 223.04 652.79 223.92 651.76 225.14 651.54 226.04 649.76 226.58 649.76 226.16 647.94 224.63 647.3 224.4 646.28 224.68 642.12 220.38 642.06 211.32 635.07 211.37 632.48 212.11 631.79 211.74 631.44 211.18 630.89 211.07 631.49 209.15 631.14 208.71 630.01 208.83 629.59 208.51 629.45 207.84 628.85 207.22 628.5 205.91 627.81 205.69 627.41 203.86 626.06 202.93 625.35 201.28 625.25 199.99 625.79 198.78 625.09 197.98 625.08 196.4 625.57 195.95 625.63 195.19 626.06 194.76 626.3 193.74 626.1 192.88 627.63 191.32 628.83 189.67 630.19 188.73 629.98 187.4 629.55 185.85 632.9 185.82 632.89 183.68 634.2 183.53 635.24 183.67 635.71 183.22 636.69 183.43 638.16 184.6 638.66 183.78 638.98 182.29 640.76 181.34 641.4 181.29 643.28 180.6 643.59 180.19 644.73 179.91 645.17 180.05 646.47 179.97 647.55 180.12 Z" id="35020310"/>
<path d="M 687.9 206.26 686.54 207.72 686.31 208.53 686.15 210.5 686.85 211.91 687.83 212.31 688.16 212.09 689.36 215.2 690.27 214.86 692.05 219.5 692.92 219.17 693.45 220.55 694.43 220.18 695.49 222.98 697.38 222.44 697.63 223.09 698.51 222.75 698.79 223.38 699.6 223.06 700.16 224.12 701.12 224.06 702.02 223.71 702.31 224.47 703.24 224.14 703.45 225.1 705.1 226.98 705.1 227.82 705.38 228.05 707.21 232.72 709.84 239.78 702.73 242.36 699.11 243.57 693.39 245.55 693.39 264.15 674.69 266 670.02 264.63 665.35 262.26 631.13 267.92 628.22 251.48 629.46 248.17 629.43 247.92 630.24 245.65 629.13 244.68 628.8 243.71 628.8 242.32 629.07 241.7 630.78 241.72 632.12 241.34 632.59 240.09 633.51 239.04 636.79 239 636.78 237.89 637.73 237.88 637.7 235.86 638.47 236.23 639.69 237.24 640.87 235.81 641.13 234.79 642.31 234.78 642.31 230.57 642.11 221.34 642.12 220.38 646.28 224.68 647.3 224.4 647.94 224.63 649.76 226.16 649.76 226.58 651.54 226.04 651.76 225.14 652.79 223.92 653.18 223.04 653.09 221.06 653.2 220.14 652.59 220.07 651.96 219.58 652.1 218.91 651.85 218.19 652 217.3 651.25 215.75 651.4 214.14 652.26 213.85 652.56 213.32 653.29 213 653.56 211.41 654.01 210.98 654.48 209.39 656.34 209.62 656.3 208.92 657.41 209.07 657.89 208.22 657.96 207.64 659.11 208.37 660.05 208.34 660.33 208.89 661.02 209.23 661.81 207.96 662.38 206.4 662.98 206.87 662.77 207.71 663.71 208.21 664.37 208.34 666.03 207.78 666.35 207.42 666.61 206.47 667.27 206.2 668.23 206.41 668.58 207.32 669.3 207.52 670.59 207.52 670.9 207.85 672.33 207.69 673.65 208.1 674.45 207.42 676.55 207.64 676.9 207.51 678.28 207.65 679.84 206.8 680.1 205.66 679 204.65 678.92 203.36 679.65 202.26 679.46 201.49 679.63 200 680.1 200.2 681.01 201.06 681.13 201.5 682.64 202.56 684.92 203.49 685.6 203.67 686.36 204.63 687.06 205.2 687.9 206.26 Z" id="35020320"/>
<path d="M 738.51 131.01 739.67 131.69 739.68 132.52 740.48 133.62 740.88 133.83 740.74 134.49 741.64 135.94 742.67 136.72 744.41 137.5 745.2 138.08 745.98 139.03 746.4 139.07 747.83 139.71 748.14 140.36 749.23 140.13 750.8 140.16 751.19 140.92 752.07 141.88 752.47 142.05 753.25 142.96 754.61 142.86 755.5 143.14 756.51 143.73 758.48 145.15 758.5 145.94 758.05 146.65 757.34 147.27 755.55 147.43 755.79 150.28 756.75 150.2 756.85 151.43 756.7 151.94 755.69 152.52 755.52 153.12 755.71 154.33 754.87 154.58 754.12 155.43 753.43 156.86 753.49 157.51 752.48 158.23 751.44 157.98 750.04 159.59 751.42 161.33 750.21 162.62 749.55 162.74 748.72 163.28 748.8 164.45 749.23 164.74 751.37 164.95 751.9 164.56 752.82 164.31 753.61 164.52 754.19 164.97 754.77 164.85 755.26 164.08 756.6 163.98 757.65 164.44 758.66 164.54 761.02 163.99 762.64 165.08 763.38 164.57 765.84 164.92 766.54 165.38 766.89 164.49 767.14 163.19 767.67 163.28 768.11 162.41 768.8 162.58 769.39 162.4 770.16 161.8 770.54 161.12 771.23 161.47 772.39 161.48 774.23 162.78 775.18 162.06 776.24 160.98 776.89 160.52 778.01 162.01 778.57 162.2 778.51 161.18 779.53 161.09 779.4 159.59 782.71 158.27 785.1 157.87 786.31 157.38 787.71 156.6 790.02 155.72 792.63 154.6 793.86 154.58 794.29 155.28 794.58 156.28 793.41 156.9 791.95 157.54 791.39 157.59 790.26 158.37 789.92 159.08 787.92 160.02 788.5 166.5 786.82 166.48 785.82 167.68 782.54 170.48 773.41 178.21 773.93 179.47 776.87 180.16 777.6 179.32 778.38 179.65 778.49 180.75 778.98 181.44 779.69 181.68 779.69 182.65 780.63 184.11 779.3 185.39 777.78 186.66 777.72 186.6 771.94 184.76 771.39 184.78 771.1 184.07 769.53 186.31 768.29 189.35 761.9 187.34 761.57 187.58 758.75 188.42 758.14 188.73 756.1 190.32 754.65 191.29 751.33 187.11 751.2 186.76 748.24 187.57 748.82 188.5 748.35 189 746.68 188.22 746.51 187.68 744.98 187.63 743.28 188.04 742.54 187.1 741.85 186.65 741.07 186.59 740.2 186.97 738.65 186.52 737.32 185.87 736.47 186.58 734.16 186.59 733.86 186.36 732.49 186.96 731.56 187.76 730.77 187.76 729.06 187.49 728.68 187.3 728.34 186.21 728.99 186.12 729.38 184.8 729.45 183.6 730.56 182.25 730.72 181.19 730.71 179.33 730.33 176.9 730.38 175.4 730.05 175.1 730.12 173.94 729.85 172.56 730.04 171.11 730.65 168.66 730.87 168.49 730.83 167.39 731.08 167.22 731.08 166.12 730.44 164.18 730.09 163.59 728.61 161.81 729.5 160.79 730.15 160.35 730.73 160.31 729.8 158.56 728.95 156.64 728.42 156.32 726.82 156.19 725.71 155.27 725.95 154.88 725.52 154.03 725.77 153.45 725.67 152.59 726.53 152.64 726.45 151.42 726.98 150.89 727.3 150 726.94 148.36 727.05 147.78 728.05 147.46 728.91 146.38 729.31 146.43 730.15 145.82 731.01 144.73 732.3 143.94 732.27 143.26 732.73 142.67 733.39 142.32 734.25 141.05 734.79 139.53 735.71 139.05 735.8 138.51 736.5 137.66 736.16 136.67 736.43 135.85 736.15 133.84 735.76 133.75 735.93 132.57 736.36 132.37 736.83 131.59 737.82 130.97 738.51 131.01 Z" id="35020330"/>
<path d="M 798.62 133.18 798.51 133.81 798.96 136.17 799 137.07 798.78 141.03 798 143.89 797.14 146.41 796.78 147.79 795.87 148.91 793.23 150.7 792.94 151.02 792.63 154.6 790.02 155.72 787.71 156.6 786.31 157.38 785.1 157.87 782.71 158.27 779.4 159.59 779.53 161.09 778.51 161.18 778.57 162.2 778.01 162.01 776.89 160.52 776.24 160.98 775.18 162.06 774.23 162.78 772.39 161.48 771.23 161.47 770.54 161.12 770.16 161.8 769.39 162.4 768.8 162.58 768.11 162.41 767.67 163.28 767.14 163.19 766.89 164.49 766.54 165.38 765.84 164.92 763.38 164.57 762.64 165.08 761.02 163.99 758.66 164.54 757.65 164.44 756.6 163.98 755.26 164.08 754.77 164.85 754.19 164.97 753.61 164.52 752.82 164.31 751.9 164.56 751.37 164.95 749.23 164.74 748.8 164.45 748.72 163.28 749.55 162.74 750.21 162.62 751.42 161.33 750.04 159.59 751.44 157.98 752.48 158.23 753.49 157.51 753.43 156.86 754.12 155.43 754.87 154.58 755.71 154.33 755.52 153.12 755.69 152.52 756.7 151.94 756.85 151.43 756.75 150.2 755.79 150.28 755.55 147.43 757.34 147.27 758.05 146.65 758.5 145.94 758.48 145.15 756.51 143.73 755.5 143.14 754.61 142.86 753.25 142.96 752.47 142.05 752.07 141.88 751.19 140.92 750.8 140.16 749.23 140.13 748.14 140.36 747.83 139.71 746.4 139.07 745.98 139.03 745.2 138.08 744.41 137.5 742.67 136.72 741.64 135.94 740.74 134.49 740.88 133.83 740.48 133.62 739.68 132.52 739.67 131.69 738.51 131.01 738.64 129.66 740.01 127.01 739.73 125.82 740.11 125.13 740.98 124.25 740.15 123.12 738.32 122.3 736.49 120.14 736.45 119.71 735.8 118.37 736.68 118.03 737.5 117.2 738.6 116.73 739.36 116.58 739.84 117.05 740.5 116.88 741.7 116.94 741.9 116.62 743.03 116.19 743.58 116.58 745.19 117.01 745.58 116.59 746.8 116.36 747.81 117.37 748.04 117.95 748.69 118.59 749.89 118.61 751.06 119.03 752.71 119 753.39 120.16 754.37 120.42 755.51 119.84 756.79 120.07 757.97 119.5 757.94 118.71 758.31 118 758.78 117.8 759.27 116.53 758.97 115.46 757.89 114.26 758.51 113.7 758.87 112.57 759.25 112.82 759.93 112.53 759.63 111.82 759.68 111.13 760.33 110.5 761.47 110.13 762.08 108.82 762.06 107.96 761.58 106.71 760.85 106.27 760.45 105.42 760.24 104.02 761.15 103.27 762.15 103.63 763.02 104.34 763.96 104.81 764.08 105.56 765.13 105.91 766.07 105.79 766.74 106.42 767.51 106.78 768.41 106.53 768.47 107.34 768.88 108.21 770.48 109.53 771.13 109.5 772.8 110.75 773.27 112.02 773.39 112.85 774.39 113.71 775.34 115.58 776.04 116.61 777.14 117.97 777.8 119.16 779.2 120.28 780.52 121.77 781.92 122.89 782.9 123.29 784.82 125.69 786.95 129.42 788.63 129.82 789.87 129.87 791.35 130.46 792.78 130.51 793.74 131.51 794.99 131.56 796.31 131.9 797.73 131.83 797.86 132.66 798.62 133.18 Z" id="35020340"/>
<path d="M 413.43 472.06 413.71 472.63 413.47 473.57 412.37 474 411.89 473.77 411.17 472.7 411.96 472.31 412.52 472.51 413.43 472.06 Z M 415.78 466.07 416.55 466.55 416.88 467.14 417.05 468.49 417.56 469.2 417.26 469.73 416.51 469.11 416.2 468.11 416.2 467.11 415.78 466.07 Z M 415.79 417.4 415.72 417.9 415.05 418.5 415.07 419.27 413.72 420.34 413.04 419.86 412.99 419.21 413.78 418.31 413.81 417.64 414.24 417.48 415.79 417.4 Z M 422.13 405.38 422.47 405.96 423.31 406.44 423.9 406.32 424.25 406.91 422.41 407.16 421.63 407.56 420.92 406.92 421.25 406.29 422.13 405.38 Z M 418.77 404.71 419.39 404.95 419.53 405.59 418.96 405.99 418.26 406.89 416.72 407.16 415.98 406.85 416.02 406.4 416.66 405.53 417.82 404.77 418.77 404.71 Z M 403.95 397.2 404.34 397.41 405.11 397.08 406.05 397.68 406.16 398.05 407.32 398.52 407.31 399.05 408.92 400.42 409.39 401.19 409.55 402.7 409.07 403.64 410.53 405.38 411.15 406.42 411.46 407.45 411.87 408.15 412.32 409.6 412.69 409.47 414.99 410.81 414.59 411.2 413.84 411.38 412.33 411.18 410.89 411.41 410.45 411.83 410.34 413.01 410.62 414.16 409.89 416.38 409.11 416.93 408.98 417.48 408.06 418.04 407.32 417.59 406.57 417.88 405 417.04 404.39 415.85 404.81 415.72 404.09 414.77 404.5 414.07 404.52 412.73 403.78 412.06 404.12 411.31 405.25 411.07 405.61 410.54 406.38 410.19 406.6 409.35 406.15 407.78 405.08 407.18 404.47 407.06 403.27 405.84 401.91 405.59 401.58 405.22 400.69 404.89 400.13 405.28 398.8 404.24 397.73 404.57 396.97 403.69 396.95 402.45 397.92 401.85 399.26 402 399.9 401.15 400.34 401.38 400.62 400.52 401.67 399.93 401.53 399.34 402.37 398.63 403.25 397.63 403.95 397.2 Z M 419.91 393.16 420.42 393.66 420.65 394.44 421.42 395.59 421.4 397.06 422.43 398.17 420.89 398.76 418.79 398.45 416.59 397.15 416.37 396.56 416.67 395.3 417.02 394.81 417.62 394.78 417.74 394.24 418.53 394.23 419.91 393.16 Z M 374.24 341.13 374.59 341.53 374.53 342.22 373.99 342.46 373.92 343.79 373.57 345.26 372.95 345.58 372.19 344.64 372.41 342.62 372.79 341.95 373.49 341.36 374.24 341.13 Z M 371.19 340.76 371.5 341 371.69 342.79 371.37 343.07 370.78 342.62 370.41 341.91 370.48 341.39 371.19 340.76 Z M 374.18 338.78 374.83 339.39 373.06 339.77 372.96 339.35 373.58 338.85 374.18 338.78 Z M 380.12 332.89 381.5 332.89 381.85 333.4 381.27 334.19 380.12 332.89 Z M 397.85 331.9 398.25 332.12 398.52 332.91 399.39 333.44 399.14 333.98 398.48 333.8 397.71 334.18 397.54 334.6 397.85 335.24 397.3 336.1 397.66 337.14 397.11 337.85 396.18 337.69 395.11 338.42 395.21 339.23 394.81 340.04 395.07 341.09 395.55 341.69 396.04 341.59 396.55 342.2 395.76 343.22 395.09 342.52 393.99 342.63 393.14 342.98 392.79 343.38 392.92 344.24 391.44 344.43 390.88 344.83 390.26 344.81 389.64 345.39 389.77 346.54 389.33 346.75 388.81 346.32 387.5 346.31 386.76 347.22 387.08 348.04 386.58 349.13 385.77 349.45 384.88 350.33 383.75 349.93 383.38 348.31 383.67 347.98 382.71 347.4 382.16 348.14 381.46 348.42 381.3 349.58 380.96 349.93 379.86 350.07 379.22 349.76 378.63 349.07 378.26 347.96 377.15 347.57 377.04 346.78 376.16 346.83 374.94 345.4 375.74 344.18 376.71 344.36 377.18 343.86 377.21 343.03 376.73 342.62 376.16 342.74 375.89 342.13 376.15 341.24 377.7 341.35 378.74 340.25 379.09 339.16 378.13 338.59 377.92 337.32 378.33 336.34 379.05 336.74 380.42 336.51 380.49 335.92 380.01 335.59 379.78 334.84 379.99 334.46 381.06 335.09 381.27 336.46 381.76 336.61 382.05 336.03 382.9 335.89 382.96 337.12 383.6 337.49 385.05 337.15 385.59 338.68 386.21 339.11 390.25 341.34 390.9 341.17 391.67 339.85 390.59 338.9 390.5 337.59 390.98 337.13 390.8 336.5 391.11 335.95 390.72 335.13 391.3 334.3 392.38 334 392.21 335.31 391.56 336.33 391.59 337.21 392.28 337.62 392.83 337.63 393.14 336.99 394.45 337.18 395.31 337.64 395.83 336.79 396.71 336.04 395.77 335.9 395.13 334.13 394.61 335.19 395.25 335.57 395.8 336.6 395.34 337.35 394.48 337.06 394.18 336.08 393.63 335.13 394.46 333.71 394.31 332.68 395.3 332.59 395.51 333.69 396.34 333.84 397.19 332.9 397.13 332.29 397.85 331.9 Z M 390.07 331.2 390.42 331.49 390.06 332.26 390.32 332.98 389.71 334.54 388.79 335.62 388.52 334.09 388.6 333.63 389.19 332.96 389.57 332.19 389.47 331.66 390.07 331.2 Z M 430.89 330.31 432.18 328.98 432.74 328.9 432.49 329.55 430.89 330.31 Z M 360.93 328.82 361.43 329.72 361.27 330.23 362.41 330.79 363.4 330.97 363.51 331.78 363.04 332.42 362.74 331.5 362.06 331.31 362.05 332.35 362.3 333.43 362.01 333.86 362.22 334.54 361.75 335.49 361.26 335.43 360.37 334.9 359.43 334.83 358.62 334.15 359.18 333.34 359.99 333.01 360.42 332.54 360.1 332.12 360.77 331.1 360.58 329.98 360.93 328.82 Z M 434.36 328.12 435.98 327.59 435.09 328.2 434.36 328.12 Z M 402.23 326.47 402.27 327.18 402.95 327.45 403.22 328.16 402.82 328.65 402.41 327.86 401.37 327.11 401.71 326.51 402.23 326.47 Z M 376.76 325.24 377.3 326.01 377.44 327.52 377.74 328.25 377.09 328.79 377.04 326.08 376.76 325.24 Z M 389.41 324.42 390.1 324.97 389.61 325.76 388.48 325.31 389.02 324.41 389.41 324.42 Z M 353.31 322.9 354.01 323.48 353.07 324.61 352.69 324.03 352.67 323.31 353.31 322.9 Z M 370.8 321.23 371.56 321.67 370.91 322.09 370.31 321.76 370.8 321.23 Z M 354.66 320.95 355.7 321.86 356.55 321.03 357.72 321.21 357.21 321.7 357.55 322.53 358.16 322.88 359.26 322.82 359.77 322.52 359.87 323.7 360.33 324.01 360.89 323.67 361.44 324.37 360.74 324.97 361.3 325.64 361.19 326.15 361.94 327.11 361.16 327.19 360.49 328.21 359.76 327.51 359.03 327.23 356.97 327.44 356.64 326.63 356.96 325.94 356.02 325.32 355.9 324.57 354.9 324.54 354.17 323.48 354.2 321.63 354.66 320.95 Z M 338.88 321.08 339.48 322.33 339.86 321.95 340.99 321.7 341.61 322.34 341.74 322.95 341.46 323.54 342.24 323.98 341.19 324.46 340.86 323.69 340.07 323.22 338.95 324.05 338.84 324.59 339.99 325.49 338.72 326.1 338.78 326.87 339.25 326.87 340.08 327.3 340.11 328.63 339.86 329.24 340.01 330.04 340.82 330.21 341.46 329.94 342.24 328.25 343.1 328.13 343.66 328.9 343.24 329.79 343.46 330.15 342.49 330.68 342.63 331.16 343.48 331.1 344.17 331.74 343.11 332.33 344.18 332.95 343.81 333.89 343.87 335.07 344.8 335.21 345.15 333.94 346.13 333.5 346 335.12 346.46 335.54 346.1 336.59 346.34 337.88 346.93 338.94 348.05 339.28 349.1 339.84 349.02 340.31 348.12 340.59 347.12 339.76 346.49 339.83 345.56 338.94 344.34 339.45 343.72 338.8 342.77 338.96 342.32 340.24 342.53 340.85 342.48 341.99 342.89 342.3 343.05 343.23 341.41 342.35 340.69 341.59 340.47 340.62 340.7 339.87 340.5 338.15 339.45 336.51 338.84 336.67 337.63 335.33 337.41 334.92 336.53 334.4 336.05 333.74 336.29 332.83 336.1 332.12 336.11 330.46 335.5 328.28 335.69 326.64 335.97 325.42 336.41 324.87 336.1 324.06 336.29 322.52 336.62 322.05 336.63 321.15 336.95 321.06 337.54 321.92 338.88 321.08 Z M 361.77 313.31 362.13 313.8 361.16 314.1 361.38 313.32 361.77 313.31 Z M 367.27 309.56 367.36 310.23 368.54 310.26 369.58 309.89 369.81 309.58 370.56 309.89 371.19 309.89 372.56 311.02 372.92 312.16 373.66 312.31 374.38 312.11 374.76 311.69 375.42 311.92 376.35 312.85 377.05 314.47 377.02 315.23 377.62 316.16 377.66 318.69 379.03 319.48 380.35 319.99 381.49 320.83 381.22 321.94 383.49 323.04 384.2 323.1 384.58 323.83 385.3 324.52 384.49 324.6 383.96 325.43 383.45 324.96 381.92 324.67 382.47 323.98 382.34 323.07 381.59 322.75 380.71 323.03 380.05 322.38 379.32 322.3 378.41 322.54 376.77 322.34 375.78 323.06 375.21 322.06 374.6 321.44 374.2 323.7 374.34 324.28 373.93 325.03 373.51 326.56 372.8 327.72 372.43 328.6 373.28 329.02 375.83 329.13 376.63 329.37 377.54 330.3 377.71 331.11 377.48 331.58 376.88 335.01 376.08 336.3 374.88 336.33 374.62 335.45 373.38 335.58 373.03 335.87 373.38 337.16 372.57 337.27 371.98 338.3 370.97 338.64 370.49 338.09 371.63 336.59 372.16 336.21 371.73 335.5 370.51 335.6 369.5 336.14 369.44 335.44 369.76 334.84 369.7 334.26 368.44 334 368.4 334.57 367.91 334.91 367.29 336.65 366.69 336.16 365.72 336.26 365.5 337.74 365.66 338.62 365.4 339.04 364.14 338.24 363.79 337.5 364.19 337.01 364.86 336.79 364.69 336.05 364.83 334.65 365.19 334.16 364.82 333.54 365.54 332.59 366.05 331.03 366.07 330.21 366.75 330.15 367.26 330.66 368.1 330.22 369.2 329.31 370.21 328.96 371.32 328.25 372.21 326.94 373.04 324.86 373.25 323.22 373.08 322.32 373.64 321.64 374.01 319.9 373.51 318.42 372.16 318.04 371.44 318.11 370.77 318.74 369.87 318.03 369 316.99 369.08 316.63 368.24 315.57 367.25 314.87 365.76 314.84 365.46 316.86 365.08 317.04 364.65 316.22 363.61 316.03 362.85 315.48 363.03 314.22 363.76 313.66 364.72 314.06 365.51 313.09 365.25 312.71 365.53 311.97 364.92 311.4 365.09 310.87 366.17 310.4 366.86 309.57 367.27 309.56 Z M 433.34 295.72 432.97 296.47 433.35 297.56 434.6 297.67 434.63 298.76 435.33 299.38 434.8 299.99 433.05 299.64 432.03 299.58 431.25 300.6 430.95 300.28 429.96 299.94 429.47 300.11 429.13 300.7 428.54 300.55 427.95 300.78 426.52 300.3 425.74 300.51 425.77 299.48 426.36 299.42 427.07 298.52 427.57 298.94 428.38 298.58 429.52 298.84 429.94 297.46 431.05 297.79 430.98 296.28 431.74 296.78 432.09 296.13 432.7 296.13 433.34 295.72 Z M 401.64 290.75 402.42 291.06 403.26 291.68 403.31 292.16 402.74 292.69 401.93 292.84 401.26 292.41 401.88 291.69 401.64 290.75 Z M 313.61 287.03 314.51 287.34 315.07 286.9 316.48 287.06 317.2 286.83 318.66 287.45 319.27 287.97 319.91 287.83 321.31 288.26 321.96 288.21 322.63 287.77 323.47 287.68 323.76 288.11 323.58 289.57 324.35 289.72 324.85 290.14 324.45 290.87 324.76 291.95 325.58 292.76 320.66 291.68 320.15 292 318.95 292.09 318.36 291.56 317.02 291.77 315.17 290.8 314.77 291.04 314.89 291.81 314.21 291.73 313.5 291.29 313.55 290.61 313.21 290.11 311.16 288.95 311.03 288.63 312.03 287.73 312.13 287.01 312.59 286.51 313.61 287.03 Z M 352.51 284.78 352.94 285.21 352.57 286.23 353.24 287 354.09 288.52 353.1 288.68 352.89 288.47 350.75 288.88 350.45 289.44 350.55 290.19 349.7 290.61 349.92 291.37 348.97 291.99 348.49 292.56 347.17 293.46 346.45 293.72 346.07 292.88 345.34 292.09 344.67 292.31 344.56 293.58 343.88 294.32 341.67 294.74 340.18 295.67 338.85 295.28 338.06 294.84 337.71 294.34 337.23 294.86 337.09 295.62 336.53 295.66 335.3 295.16 334.4 294.96 333.83 294.18 333.18 294 331.38 295.36 330.31 294.83 329.95 294.3 329.21 294.27 329.08 293.68 328.39 292.86 328.81 292.32 329.89 291.88 330.73 292.08 332.37 292.99 333.17 293.58 334.21 293.2 334.77 292.55 335.55 292.01 336.05 290.75 335.57 289.19 336.44 288.07 337.87 288.24 338.93 288.16 339.19 287.51 339.76 287.34 340.41 287.82 341.03 287.58 341.51 287.79 345.05 287.78 345.82 287.99 346.33 287.46 346.97 287.54 347.53 286.84 348.93 286.81 349.81 285.68 350.78 285.51 351.29 284.99 352.51 284.78 Z M 306.76 284.99 307.54 285.83 307.54 287.28 307.82 288.02 306.77 287.85 305.1 288.37 304.83 287.36 305.32 286.28 305.78 286.08 306.76 284.99 Z M 369.66 281.91 370.49 281.89 372.08 282.51 372.82 282.47 374.3 282.75 376.45 282.75 377.76 283.19 381.61 284.29 382.63 284.5 384.42 284.52 386.08 284.15 386.54 284.59 387.77 285 389.6 285.42 391.72 285.6 390.12 286.67 388.27 286.91 385.53 286.58 383.92 286.55 382.52 286.2 381.19 286.07 378.85 285.61 377.65 284.98 376.22 284.67 373.54 283.89 372.02 283.78 371.36 283.44 369.65 283.02 367.87 283.19 367.23 283.7 366.05 283.72 365.54 284.05 365.51 284.78 364.85 285.25 364.05 285.06 363.86 285.61 362.44 285.66 361.86 286.15 360.82 286.43 360.03 286.97 359.38 286.95 359.34 286.38 360.93 285.73 361.56 285.07 361.27 284.61 362.29 283.82 362.61 282.99 363.28 282.63 363.97 282.95 364.8 282.77 366.72 283.05 368.93 282.36 369.66 281.91 Z M 292.77 281.72 293.73 281.88 294.89 282.4 295.68 282.45 296.62 283 298.33 283.34 299.25 283.22 299.95 282.87 299.89 282.43 300.77 281.71 301.32 281.74 301.31 282.54 300.79 283.69 300.88 284.05 302.58 286.57 302.8 287.28 302 288.49 301.26 288.59 300.3 288.35 299.89 288.64 298.24 288.24 297.57 287.41 296.71 288.18 295.89 288.08 295.39 287.36 294.36 286.61 295.1 284.01 294.06 283.85 293.16 284.56 292.65 286.05 293.51 287.19 293.1 287.36 292.72 286.54 291.79 286.06 291.01 285.18 291.25 284.54 291.89 284.55 291.98 283.55 291.39 282.83 291.58 282.17 292.13 281.77 292.77 281.72 Z M 167.44 274.02 167.68 274.01 168.49 275.49 168.04 276 166.88 275.28 166.39 274.52 167.44 274.02 Z M 460.58 249.56 462.51 250.22 462.23 250.29 460.42 255.46 456.78 266.19 456.35 267.37 448.29 291.04 447.24 294.37 447.22 294.79 448.49 295.06 448.79 297.48 448.9 299.19 448.52 301.91 448.17 303.6 447.71 304.93 446.65 307.24 445.49 308.94 444.48 310.12 439.16 315.46 437.65 316.88 431.51 324.01 430.07 326.42 428.85 327.46 428.33 327.73 427.5 328.81 425.9 331.58 425.35 331.96 425.24 332.5 424.44 332.32 424.03 332.52 422.83 332.57 421.7 331.89 420.14 331.62 419.82 331 418.14 330.62 416.76 330.66 416.01 329.87 415.82 329.35 416.86 327.9 417.77 327.36 417.24 327.01 416.37 326.88 416.3 326.24 417.08 326.13 418.51 325.51 418.46 324.14 418.04 323.68 415.6 323.92 415.53 324.27 414.56 324.99 414.45 325.56 413.46 325.84 412.85 326.65 413.13 327.72 412.2 327.98 411.87 328.58 411.41 328.51 410.58 327.61 409.7 328.43 409.82 329.23 409.55 330 409.82 331.28 410.88 331.74 411.64 333.16 411.15 333.61 410.8 334.58 410.12 334.38 409.53 334.64 408.89 335.66 409.47 336.69 409.03 337.21 408.19 337.27 408.21 336.4 408.56 335.69 407.76 335.05 407.07 335.72 405.84 335.68 405.81 336.47 405.15 336.69 404.99 335.98 405.14 334.16 404.43 333.56 404.42 332.89 405.19 332.33 405.32 331.92 405 330.63 404.12 329.72 402.73 330.16 402.61 330.58 401.74 330.15 401.55 330.53 400.72 330.76 399.98 329.45 400.52 329.22 400.58 328.7 401.48 328.79 401.71 328.26 402.8 328.69 404.12 327.93 405.2 327.73 405.54 327.29 404.81 326.2 404.8 325.73 403.75 325.14 402.17 323.96 402.54 323.22 403.99 323.49 404.49 323.92 404.71 324.56 405.57 324.46 406.46 325.95 407.72 325.66 408.51 324.62 408.1 324.08 408.01 322.81 404.89 321.31 403.69 321.16 402.83 319.6 401.77 319.65 401.32 319.15 402.43 318.89 402.68 318.33 403.53 318.39 403.73 317.34 403.27 316.1 402.81 315.9 401.98 316.33 401.1 315.84 400.71 316.03 400.06 315.46 399.36 315.4 398.78 314.83 399.73 314.61 399.81 314.04 399.07 313.59 399.52 313.04 400.28 312.99 400.66 311.58 400.13 311.33 399.67 310.59 400.5 310.41 401.36 311.45 402.16 311.35 402.48 310.97 403.28 310.83 402.99 311.83 403.95 312.39 405.38 310.78 405.97 310.47 407.02 310.52 407.19 311.09 407.87 311 408.13 311.43 408.88 311 410.5 311.8 410.12 312.65 410.92 313.12 412.24 313.03 412.49 313.8 412.29 314.35 412.92 314.63 413.51 315.39 413.8 316.36 413.86 317.37 414.8 317.92 415.03 318.35 415.84 318.28 416.82 317.48 417.68 318.15 418.52 318.45 420.21 318.31 420.59 318.72 421.59 318.85 423.51 319.5 424.31 319.23 425 319.32 426.02 318.23 427.46 317.58 427.64 317.96 426.42 318.53 425.83 319.19 426.25 319.95 427.12 320.64 427.92 319.88 434.28 311.82 439.4 305.28 440.2 304.09 438.96 302.28 438 301.49 438.82 301.26 438.43 300.6 437.99 300.59 437.71 299.73 436.9 299.59 436.63 298.88 436.13 298.43 435.79 297.22 435.89 296.41 436.55 295.73 438.19 295.57 439.84 294.97 441.12 295.42 442.91 295.7 443.31 295.22 444.29 295.43 444.62 295.74 445.19 295.14 445.59 293.46 446.65 290.33 447.47 288.08 450.65 278.83 452.38 273.66 454.35 267.92 454.91 266.18 457.18 259.54 457.55 258.36 460.58 249.56 Z M 90.77 249.16 91.52 249.3 92.51 250.35 91.75 250.5 90.55 251 89.78 250.99 86.93 250.5 86.86 249.67 87.39 249.37 88.73 249.93 89.99 249.33 90.77 249.16 Z M 82.6 248.79 83.22 249.02 83.08 249.56 82.32 249.41 82.6 248.79 Z M 230.57 152.23 229.67 153.63 229.22 153.33 230 152.26 230.57 152.23 Z M 223.84 150.31 224.03 151.08 223.41 151.3 223.26 150.53 223.84 150.31 Z M 215.18 143.02 215.6 143.13 216.03 144.14 216.76 144.47 217.19 144.96 218.07 145.09 218.81 144.94 220.46 144.95 221.31 145.76 221.48 146.63 220.97 147.27 219.28 147.52 218.81 147.24 218.58 146.6 216.81 146.36 215.81 146.57 214.8 147.17 213.89 147.43 213.69 146.98 214.11 146.47 214.54 144.89 214.79 144.55 215.18 143.02 Z M 229.64 139.98 230.39 140.98 230.93 142.15 229.61 142.38 228.68 141.8 228.57 142.48 227.54 143.28 227.26 143.92 227.66 144.43 228.8 145.15 228.17 145.53 227.38 144.97 226.48 144.68 225.8 144.85 225.16 144.18 225.91 143.69 226.01 143.06 225.56 142.7 225.66 141.76 226.65 141.71 228.34 141.91 227.86 140.86 228.99 140.15 229.64 139.98 Z M 228.13 137.39 228.71 137.41 229.95 138.17 229.75 138.58 228.79 138.44 228.13 137.39 Z M 212.7 137.02 213.72 137.98 214.26 138.7 214.59 138 215.47 138.45 215.38 139.25 214.97 140.08 215.12 140.5 214.75 141.3 214.12 141.23 213.66 139.73 213.11 139.05 212.48 137.5 212.7 137.02 Z M 213.71 133.89 214.65 134.26 215.18 134.15 214.91 135.46 213.74 135.68 213.2 134.14 213.71 133.89 Z M 469.43 99.68 469.98 100.78 469.46 101.07 468.16 101.03 468.97 99.8 469.43 99.68 Z M 499.16 103.1 499.01 102.66 499.18 99.42 499.36 99.41 499.16 103.1 Z M 460.92 98.38 461.41 99 460.76 99.43 460.28 99.23 460.92 98.38 Z M 473.66 93.6 474.13 95.05 473.6 95.2 473.36 96.16 474.33 97.83 475.32 98.4 474.95 99.51 474.39 99.94 473.97 99.62 473.81 98.92 471.3 97.71 470.33 97.57 470.57 97.07 470.22 96.25 471.27 95.64 471.43 95.27 472.4 95 472.89 94.17 473.66 93.6 Z M 486.87 88.45 487.99 90.64 488.94 90.96 490 90.79 491.12 90.11 490.77 89.05 491.17 88.84 491.75 89.41 492.65 88.83 493.51 88.58 494.83 88.78 495.61 89.85 495.92 89.77 496.86 91.17 496.75 93.45 496.25 93.42 496.5 94.71 496.89 94.91 496.97 95.69 498.25 97.37 497.78 98.34 497.04 98.62 495.81 99.88 496.42 100.74 496.24 101.46 496.23 103.13 495.75 103.88 495.21 104.21 494.2 103.84 493.97 103.21 492.52 102.01 492.6 101.55 491.91 100.8 490.81 101.11 488.48 100.44 487.73 100.04 487.39 99.17 486.11 98.99 485.68 99.16 485.13 98.66 484.45 99.08 483.6 99.14 483.02 98.44 483.56 97.96 484.6 98.09 484.65 97.23 485.44 96.81 484.93 96.29 485.49 95.68 486.23 95.58 486.38 94.8 485.39 94.25 485.9 93.95 486.64 94.19 486.79 93.31 486.55 92.9 486.9 92.14 486.35 92 486.16 90.8 487.19 90.92 487.52 90.26 486.18 89.17 486.25 88.63 486.87 88.45 Z M 482.35 88.35 482.99 89.04 483.3 89.83 482.24 89.43 482.35 88.35 Z M 500.01 87.61 500.31 88.36 499.62 88.35 500.01 87.61 Z M 395.63 45.06 396.58 45.8 396.96 46.97 397.87 47.46 397.95 48.63 398.99 49.94 400.28 50.17 400.67 50.65 401.47 51.08 401.35 52.29 400.43 52.2 400.36 53.43 400.74 53.96 401.7 54.74 402.01 54.49 403.17 54.55 403.11 55.16 403.5 56.91 403.28 57.6 402.39 57.94 402.32 56.93 401.75 56.29 400.72 55.69 399.79 55.41 398.75 55.55 397.78 56.33 396.47 56.82 395.6 56.66 393.89 55.31 392.71 53.85 391.24 53.17 390.74 52.23 390.15 51.54 390.07 50.68 389.66 50.17 389.5 48.93 389.49 47.58 390.53 47.35 390.79 47.58 393.24 47.72 394.17 47.55 394.69 47.14 395.18 46.31 394.98 45.77 395.63 45.06 Z M 4.03 1 5.98 1.34 6.97 1.9 7.82 2.64 8.66 2.59 9.63 2.79 10.24 2.39 11.08 2.39 11.92 2.91 12.93 3.22 13.76 3.99 14.18 3.92 14.67 5.02 15.85 5.79 16.84 6.09 17.2 6.44 18.59 6.69 19.05 5.87 19.9 6.46 20.5 6.61 21.25 6.22 23.07 5.97 23.57 5.56 23.96 6.28 23.09 7.31 22.83 8.33 23.19 8.83 23.68 8.78 23.77 9.45 24.57 9.9 24.75 11.09 23.49 11.61 23.31 12.38 23.68 13.12 23.38 14.14 22.66 13.99 22.27 14.63 22.01 15.62 22.36 17.46 22.2 18.63 21.81 18.84 21.13 18.46 21.06 17.1 20.36 16.02 18.43 17 18.1 16.53 20.12 15.68 19.62 13.59 19.99 12.8 19.75 11.72 19.22 10.54 19.18 9.71 18.5 8.89 16.98 9.24 17.51 8.59 17.2 7.95 16.19 7.31 15.07 7.49 13.54 8.57 13.45 9.19 13.95 10.68 13.85 11.07 14.36 12.11 16.08 11.6 16.2 12.03 14.69 12.67 15.15 14.04 15.89 15.16 17.83 14.97 18.32 15.32 16.08 15.55 15.27 15.44 14.14 15.9 12.82 15.99 11.99 17.16 11.68 18.23 11.19 18.93 10.34 18.87 10.1 18.06 10.09 16.46 9.61 15.65 8.99 15.34 7.73 15.36 7.25 15.9 5.52 16.15 5.33 15.04 5.64 14.12 5.05 13.21 3.96 12.8 3.68 12.33 4.22 11.24 3.95 10.68 3.35 10.41 3.53 9.56 2.51 9.18 2.84 8.65 2.21 7.84 2.3 6.1 1.38 5.32 1.64 4.52 1.26 4.36 1 3.13 1.47 2.83 2.05 1.64 2.56 1.62 3.29 1.16 4.03 1 Z" fill-rule="evenodd" id="35020390"/>
<path d="M 575.21 215.6 575.21 217.42 575.09 238.84 576.56 238.99 583.65 241.76 583.34 242.5 582.45 242.15 576.91 255.99 578.02 256.63 575.64 256.98 572.72 257.1 568.94 257.06 567.13 256.94 561.55 254.9 559.88 254.62 559.53 255.24 558.27 255.34 558.22 254.31 558.3 250.48 557.81 249.12 557.25 249.48 557.29 250.73 556.86 250.93 556.67 252.39 557.01 254.46 556.94 254.71 554.01 253.34 553.5 254.23 553.06 254.61 552.44 254.34 551.71 254.34 551.88 253.1 550.6 252.65 549.84 252.56 548.4 252.94 547.77 253.32 548.07 253.88 548 254.9 547.3 254.79 547.08 254.16 546.61 253.91 545.66 254.85 544.9 255.26 543.16 254.88 542.6 253.57 542.89 253.14 542.81 252.12 543.46 252.16 545.22 250.42 545.07 248.75 544.37 245.87 542.82 238.74 542.67 236.95 542.79 234.79 542.38 231.8 542.17 229.56 541.92 224.89 541.77 223.48 542.35 220.48 542.21 218.69 542.77 210.59 542.88 209.89 543.64 207.64 543.24 206.22 544.38 206.38 545.47 205.9 545.95 204.99 546.14 204.11 546.6 203.9 546.87 202.52 547.45 201.03 547.72 199.65 547.26 198.4 546.87 197.91 546.56 196.82 546.93 196.37 547.62 196.63 549.28 195.85 551.63 196.16 551.73 195.82 553.58 196.61 554.44 196.62 558.92 194.66 559.53 194.45 560.44 194.74 561.69 196 561.86 196.35 561.61 198.62 561.87 199.98 563.36 201.55 564.4 202.09 565.51 203.09 573.35 207.89 571.97 209.39 573.27 211.01 573.71 212.58 573.15 214.03 575.21 215.6 Z" id="35020400"/>
<path d="M 626.34 144.36 625.25 144.91 625.11 145.87 625.94 146.46 624.14 149.44 623.61 150.69 622.16 152.28 621.45 152.36 619.9 152.15 619.24 152.4 618.26 152.21 617.37 153.3 616.92 153.2 616.54 153.79 615.71 153.58 615.41 154.57 614.03 154.35 612.99 153.21 611.73 151.34 611.92 150.61 614.29 149.09 613.96 148.79 614.75 147.96 616.21 146.83 620.6 144.14 620.35 143.5 621.33 142.95 622.5 142.76 623.67 143.27 625.4 143.56 626.34 144.36 Z M 618.33 141.87 618.26 143.1 617.66 144.15 612.48 147.86 610.79 148.93 608.45 150.12 605.77 151.21 604.17 151.69 601.63 152.13 598.64 152.12 594.84 151.63 593.14 151.53 589.1 151.51 585.42 151.54 581.85 151.33 581.12 150.65 580.25 150.33 581.12 149.42 581.18 147.8 581.63 147.11 582.74 147.01 590.88 147.05 591.77 146.99 600.38 146.04 610.57 142.97 617.55 141.6 618.33 141.87 Z" fill-rule="evenodd" id="35020510"/>
<path d="M 633.58 148.93 633.43 149.63 632.69 150.06 632.9 150.88 629.49 151.55 630.06 152.29 630.76 152.68 630.29 153.4 630.75 153.82 630.01 154.29 629.39 155.25 630.21 155.91 630.42 155.67 631.33 155.85 631.92 157.03 630.85 157.38 629.4 156.88 628.98 157.56 629.14 158.1 628.24 158.28 627.04 158.77 626.34 157.68 626.35 157.13 625.23 157.46 624.91 156.81 625.09 155.77 624.78 154.72 624.03 154.29 623.08 154.9 622.25 155.01 620.62 155.82 619.63 155.18 618.42 155.47 617.67 154.32 617.37 153.3 618.26 152.21 619.24 152.4 619.9 152.15 621.45 152.36 622.16 152.28 623.61 150.69 624.14 149.44 625.94 146.46 625.11 145.87 625.25 144.91 626.34 144.36 627.74 145.65 632.67 148.65 633.58 148.93 Z" id="35020530"/>
<path d="M 620.62 155.82 621.22 156.8 622.15 157.89 622.95 157.92 622.83 158.92 622.82 161.66 624.02 161.68 624 163.31 625.16 163.32 625.14 166.37 624.97 167.87 626.37 167.92 626.55 168.44 625.81 168.58 622.27 168.62 621.69 168.52 620.68 166.83 620.04 166.46 618.57 165.99 617.45 165.43 616.87 165.83 615 164.51 615.15 162.93 614.51 162.57 615.09 162.35 615.63 161.5 614.58 159.8 614.43 158.96 614.51 157.93 614.03 155.24 614.03 154.35 615.41 154.57 615.71 153.58 616.54 153.79 616.92 153.2 617.37 153.3 617.67 154.32 618.42 155.47 619.63 155.18 620.62 155.82 Z" id="35020550"/>
<path d="M 629.14 158.1 628.98 159.29 630.07 160.7 631.59 160.71 631.94 161.59 631.22 161.69 629.83 163.06 629.53 164.02 628.35 163.94 628.35 163.31 625.16 163.32 624 163.31 624.02 161.68 622.82 161.66 622.83 158.92 622.95 157.92 622.15 157.89 621.22 156.8 620.62 155.82 622.25 155.01 623.08 154.9 624.03 154.29 624.78 154.72 625.09 155.77 624.91 156.81 625.23 157.46 626.35 157.13 626.34 157.68 627.04 158.77 628.24 158.28 629.14 158.1 Z" id="35020560"/>
<path d="M 640.29 156.12 637.31 155.52 636.84 155.91 636.27 155.37 636.49 157.04 635.46 157.54 635.28 155.54 632.98 155.72 632.84 156.37 631.92 157.03 631.33 155.85 630.42 155.67 630.21 155.91 629.39 155.25 630.01 154.29 630.75 153.82 630.29 153.4 630.76 152.68 630.06 152.29 629.49 151.55 632.9 150.88 632.69 150.06 633.43 149.63 633.58 148.93 636.8 149.9 637.79 150.33 641.53 152.28 641.65 152.76 640.77 153.66 640.58 155.01 640.47 156.13 640.29 156.12 Z" id="35020600"/>
<path d="M 636.49 157.04 637.37 156.92 637.62 157.82 637.65 161.42 637.69 165.26 633.47 165.26 632.17 165.49 631.89 165.26 630.93 165.25 627.32 167.28 627.07 167.82 626.37 167.92 624.97 167.87 625.14 166.37 625.16 163.32 628.35 163.31 628.35 163.94 629.53 164.02 629.83 163.06 631.22 161.69 631.94 161.59 631.59 160.71 630.07 160.7 628.98 159.29 629.14 158.1 628.98 157.56 629.4 156.88 630.85 157.38 631.92 157.03 632.84 156.37 632.98 155.72 635.28 155.54 635.46 157.54 636.49 157.04 Z" id="35020640"/>
<path d="M 660.92 165.03 660.45 165.49 660.29 166.08 659.67 166.85 659.28 166.68 658.22 167.64 656.01 168.56 655.75 168.82 655.58 169.84 654.43 170.2 654.2 171.31 653.9 171.93 652.3 173.77 652.69 175.18 652.16 175.93 652.4 176.53 652.66 178 651.45 178.44 651.13 179.18 650.51 178.87 649.26 179.2 648.6 179.74 647.56 179.88 647.12 179.15 647.63 179 647.44 177.02 647.89 176.96 647.76 175.06 647.46 174.59 639.09 165.25 637.69 165.26 637.65 161.42 638.8 161.41 638.82 162.5 639.83 163.32 639.83 163.67 641.38 163.67 641.95 164.29 643.65 162.7 645.94 162.63 645.92 161.23 650.27 157.06 650.46 155.86 651.33 155.87 651.61 155.54 652.92 155.97 653.28 155.41 653.75 155.47 654.74 154.12 655.15 154.42 655.95 154.29 655.86 155.39 656.12 155.73 657.26 155.72 657.31 157.7 658.26 157.45 659.25 158.53 659.13 159.31 659.43 160.59 660.19 161.18 660.26 162.9 659.88 163.38 660.27 164.39 660.92 165.03 Z" id="35020650"/>
<path d="M 649.08 151.67 649.17 152.54 650.01 152.48 651.13 153.03 650.8 154.04 650.46 155.86 650.27 157.06 645.92 161.23 645.94 162.63 643.65 162.7 641.95 164.29 641.38 163.67 639.83 163.67 639.83 163.32 638.82 162.5 638.8 161.41 637.65 161.42 637.62 157.82 637.37 156.92 636.49 157.04 636.27 155.37 636.84 155.91 637.31 155.52 640.29 156.12 640.27 156.33 640.92 156.09 640.52 155.75 640.75 155 641.43 153.42 642.12 152.66 643.82 152.9 645.33 152.67 646.45 152.7 648.37 152.1 649.08 151.67 Z" id="35020660"/>
<path d="M 650.46 155.86 650.8 154.04 651.13 153.03 650.01 152.48 649.17 152.54 649.08 151.67 649.62 151.26 650.42 151.1 652.35 149.94 652.37 149.64 653.52 149.02 655.42 147.77 657.08 146.01 657.51 145.35 660.88 139.05 662.19 135.46 663.05 130.7 664.08 127.74 664.64 126.46 665.84 127.29 665.74 128.13 666.23 128.12 666.66 127.37 667.13 127.48 667.61 128.1 668.93 128.5 669.56 129.14 669.93 130.07 670.78 130.24 671.89 130.69 672.29 130.51 672.63 129.7 674.21 128.68 674.54 127.85 675.66 126.66 676.88 127.11 676.59 128.29 676.11 129.46 676.33 130.68 675.97 131.56 675.12 132.42 675.04 133.25 676.41 134.08 677.09 135.23 676.55 135.99 675.96 136.41 675.84 138.39 676.35 139.42 676.93 140.15 675.76 141.34 673.36 141.87 671.7 142.92 672.26 144.14 672.16 144.85 673.13 144.78 672.52 145.99 671.9 146.42 672.23 147.35 672.1 149.2 671.45 149.87 671.38 150.42 670.91 150.74 669.61 151.05 668.46 152.31 668.48 152.78 669.3 154.68 669.96 155.78 670.4 156.1 670.9 157.22 670.87 157.61 670.03 158.23 669.26 159.26 668.29 159.95 668.08 160.37 667.13 160.59 666.03 161.21 665.11 162.04 664.23 162.33 663.23 164 662.67 164.39 660.92 165.03 660.27 164.39 659.88 163.38 660.26 162.9 660.19 161.18 659.43 160.59 659.13 159.31 659.25 158.53 658.26 157.45 657.31 157.7 657.26 155.72 656.12 155.73 655.86 155.39 655.95 154.29 655.15 154.42 654.74 154.12 653.75 155.47 653.28 155.41 652.92 155.97 651.61 155.54 651.33 155.87 650.46 155.86 Z" id="35020670"/>
<path d="M 673.75 184.08 669.85 184.22 666.65 184.38 663.26 184.27 658.79 183.19 656.19 182.51 655.15 182.41 654.4 181.81 653.67 181.7 653.08 181.3 651.46 181.5 648.81 181.57 647.88 181.21 647.55 180.12 647.56 179.88 648.6 179.74 649.26 179.2 650.51 178.87 651.13 179.18 651.45 178.44 652.66 178 652.4 176.53 652.16 175.93 652.69 175.18 652.3 173.77 653.9 171.93 654.2 171.31 654.43 170.2 655.58 169.84 655.75 168.82 656.01 168.56 658.22 167.64 659.28 166.68 659.67 166.85 660.29 166.08 660.45 165.49 660.92 165.03 662.67 164.39 663.23 164 664.23 162.33 665.11 162.04 666.03 161.21 667.13 160.59 668.08 160.37 668.29 159.95 669.26 159.26 670.03 158.23 671.86 159.12 672.64 159.22 673.51 160.1 674.31 160.03 674.62 160.4 674.43 161.72 674.81 162.96 673.51 163.94 673.71 165.3 674.29 165.69 675.66 167.17 675.13 167.86 674.91 168.99 673.75 169.66 673.49 170.76 673.55 171.9 673.83 172.6 673.43 173.79 674.2 174.69 674.2 176.11 676.09 176.9 675.28 184 673.75 184.08 Z" id="35020680"/>
<path d="M 637.69 165.26 639.09 165.25 647.46 174.59 647.76 175.06 647.89 176.96 647.44 177.02 647.63 179 647.12 179.15 647.56 179.88 647.55 180.12 646.47 179.97 645.17 180.05 644.73 179.91 643.59 180.19 643.28 180.6 641.4 181.29 640.76 181.34 638.98 182.29 638.66 183.78 638.16 184.6 636.69 183.43 635.71 183.22 635.24 183.67 634.2 183.53 632.89 183.68 632.9 185.82 629.55 185.85 629.98 187.4 630.19 188.73 628.83 189.67 627.63 191.32 626.1 192.88 626.3 193.74 626.06 194.76 625.63 195.19 625.57 195.95 625.08 196.4 623.77 196.21 622.91 195.92 621.6 196.93 620.28 196.49 619.89 196.89 618.6 196.79 618.72 194.9 618.95 193.67 619.25 193.44 619.06 191.75 620.01 191.09 620.49 191.15 620.31 189.05 621.06 187.52 621.01 185.91 621.27 185.05 620.75 182.18 621.11 180.2 621.75 178.23 621.55 178.1 622.1 177.29 622.43 175.77 622.47 174.16 623.7 174.6 624.79 174.74 626.5 174.75 626.45 174.42 626.46 168.78 626.55 168.44 626.37 167.92 627.07 167.82 627.32 167.28 630.93 165.25 631.89 165.26 632.17 165.49 633.47 165.26 637.69 165.26 Z" id="35020690"/>
<path d="M 625.08 196.4 625.09 197.98 625.79 198.78 625.25 199.99 625.35 201.28 626.06 202.93 627.41 203.86 627.81 205.69 628.5 205.91 628.85 207.22 629.45 207.84 629.59 208.51 630.01 208.83 631.14 208.71 631.49 209.15 630.89 211.07 631.44 211.18 631.79 211.74 632.48 212.11 635.07 211.37 642.06 211.32 642.12 220.38 642.11 221.34 642.31 230.57 642.31 234.78 641.13 234.79 640.87 235.81 639.69 237.24 638.47 236.23 637.7 235.86 637.73 237.88 636.78 237.89 636.79 239 633.51 239.04 632.59 240.09 632.12 241.34 630.78 241.72 629.07 241.7 628.8 242.32 628.8 243.71 629.13 244.68 630.24 245.65 629.43 247.92 629.46 248.17 628.22 251.48 631.13 267.92 629.69 268.15 627.96 268.25 623.29 268.65 618.62 269.73 613.94 270.42 609.27 271.06 597.22 272.1 595.65 252.09 589.68 257.84 585.28 257.87 583.81 256.98 582.18 256.54 581.06 256.51 578.02 256.63 576.91 255.99 582.45 242.15 583.34 242.5 583.65 241.76 576.56 238.99 575.09 238.84 575.21 217.42 575.21 215.6 579.45 218.82 580.66 219.37 585.92 220.66 587.58 219.34 587.8 218.25 587.8 217.19 588.24 215.95 588.56 216.15 588.92 215.1 588.62 214.36 589.28 214.02 589.91 212.14 590.09 211.25 590.77 211.16 591.17 211.99 591.86 211.71 592.12 212.25 592.67 212.38 593.28 212.09 593.63 212.81 594.37 212.65 594.78 213.48 595.11 213.32 596.25 213.99 597.4 214.26 597.77 213.46 598.39 212.63 598.29 211.77 599.27 210.17 599.76 209.66 599.68 208.99 600.46 208.01 600.76 205.82 606.46 205.55 608.69 205.49 608.83 204.95 608.23 203.91 608.72 202.8 609.65 202.63 609.98 202.1 611.65 201.39 613.21 201.76 614.24 201.61 614.19 201.09 614.95 200.44 615.29 199.46 615.26 198.87 616.33 198.75 616.68 198.23 616.91 197.26 618.09 197.48 618.6 196.79 619.89 196.89 620.28 196.49 621.6 196.93 622.91 195.92 623.77 196.21 625.08 196.4 Z" id="35020110"/>
<path d="M 614.51 162.57 615.15 162.93 615 164.51 616.87 165.83 617.45 165.43 618.57 165.99 620.04 166.46 620.68 166.83 621.69 168.52 619.76 168.56 619.4 169.23 614.49 176.17 611.52 175.87 609.03 174.44 608.41 174.19 606.83 172.03 608.12 172.33 608.72 170.65 609.65 170.22 610.82 170.16 610.96 169.48 610.81 168.38 609.65 166.84 610.2 165.47 610.18 164.37 612.17 163.45 611.87 162.41 612.04 162.13 613.1 161.92 614.51 162.57 Z" id="35020700"/>
<path d="M 621.69 168.52 622.27 168.62 625.81 168.58 626.55 168.44 626.46 168.78 626.45 174.42 626.5 174.75 624.79 174.74 623.7 174.6 622.47 174.16 622.43 175.77 622.1 177.29 621.55 178.1 617.07 176.66 616.99 177.6 616.11 177.78 615.55 176.89 615.57 176.46 614.49 176.17 619.4 169.23 619.76 168.56 621.69 168.52 Z" id="35020710"/>
<path d="M 567.99 154.6 568.4 154.33 569.89 154.9 569.62 155.31 568.66 155.28 567.99 154.6 Z M 614.03 154.35 614.03 155.24 614.51 157.93 614.43 158.96 614.58 159.8 615.63 161.5 615.09 162.35 614.51 162.57 613.1 161.92 612.04 162.13 611.87 162.41 612.17 163.45 610.18 164.37 610.2 165.47 609.65 166.84 610.81 168.38 610.96 169.48 610.82 170.16 609.65 170.22 608.72 170.65 608.12 172.33 606.83 172.03 606.11 171.98 605.61 171.63 605.72 171.1 604.59 170.02 604.17 169.85 603.93 169.06 599.7 168.78 599.63 169.07 596.38 168.86 596.64 164.73 598.41 163.44 593.43 159.17 585.9 162.2 578.72 165.04 577.77 165.52 573.57 166.65 573.46 166.74 558.06 170.98 551.62 172.68 541.98 173.25 538.15 175.92 529.82 181.59 526.85 183.69 526.15 183.43 525.36 183.47 524.33 184.26 523.37 184.72 522.12 184.74 521.89 183.83 521.43 183.46 520.69 183.74 520.41 184.5 519.71 184.14 519.11 184.33 518.95 185.09 518.37 185.09 518.46 186.46 522.07 186.24 522.53 186.01 522.79 190.36 522.9 190.45 527.02 189.76 527.58 190.48 522.89 191.02 522.89 195.82 522.84 196.45 522.89 201.11 522.9 209.72 522.87 209.9 522.89 217.23 522.87 220.02 522.89 237.75 517.11 237.76 516.2 237.72 514.24 237.37 512.33 237.43 510.43 237.23 506.6 236.55 504.25 236.19 503.68 235.76 502.95 234.71 502.73 233.76 503.1 232.43 502.16 231.55 501.42 232.18 500.51 232.42 499.31 231.99 495.73 228.86 495.39 228.04 495.61 226.2 494.98 225.49 493.88 226.77 493.43 227.5 492.63 227.07 492.8 226.42 493.35 226.25 494.64 224.78 494.11 224.49 493.09 224.48 491.65 224.83 490.13 223.9 489.06 225.12 488.15 225.17 486.87 224.5 485.55 225 484.36 224.74 483.67 223.63 483.72 222.97 484.09 222.29 485.72 220.88 485.24 220.14 484.9 218.95 485.47 217.88 486.41 217.24 485.63 215.75 484.46 216.2 483.22 216.07 482.22 215.45 481.52 214.07 481.36 211.42 481.61 209.77 482.17 208.27 482.32 206.66 477.96 205.19 477.61 205.12 474.37 214.55 474.2 214.97 470.34 226.32 470.32 226.52 468.95 230.6 466.52 237.66 462.98 248.06 463.12 248.41 462.51 250.22 460.58 249.56 462.77 243.21 464.18 239 466.58 232.09 468.6 225.89 471.37 217.71 472.74 213.8 474.96 207.3 474.59 205.79 473.09 205.99 472.94 205.68 474.57 205.39 474.89 204.4 475.25 204.51 476.13 201.82 475.75 201.02 473.81 200.38 473.26 200.53 472.09 202.24 471.56 203.26 471.01 204.94 470.25 204.7 469.7 203.76 469.52 202.64 469.81 200.79 470.62 199.75 471.62 198.97 472.48 198.7 473.72 194.99 473.35 194.54 472.62 194.28 471.34 194.97 470.35 194.86 469.56 194.41 469.24 193.42 469.47 192.73 468.11 192.21 467.71 191.17 467.06 190.52 467.11 189.63 467.5 188.7 468.11 188.09 467.83 183.91 467.08 170.4 466.74 165.46 464.07 165.64 459.49 162.99 459.61 162.59 464.16 165.21 467.1 165.02 467.89 165.12 468.28 171.55 470.61 171.41 470.2 164.98 470.55 164.95 470.58 164.01 480.3 163.44 480.34 164.3 488.23 163.81 488.58 162.93 501.93 162.11 502.09 162.9 503.9 162.84 510.25 162.44 510.24 162.04 510.92 161.58 522.15 160.88 531.62 160.32 531.66 161.27 541.34 160.69 541.05 159.66 541.55 159.68 541.95 160.47 542.65 160.67 547.64 160.38 547.72 161.27 548.16 161.43 548.51 167.39 553.63 167.08 553.32 161.9 553.95 160.8 553.49 160.46 551.72 160.56 550.71 159.69 550.8 159.02 551.96 159.89 553.48 159.83 556.42 159.53 556.56 159.28 558.26 159.19 558.65 159.53 563.38 159.27 564.5 158.85 564.47 158.4 565.51 158.35 565.65 158.83 566.53 159.08 567.64 158.98 568.87 158.53 569.74 157.87 571.57 157.1 571.92 157.16 574.08 156.57 576.49 155.62 576.98 154.96 578.7 154.73 580.82 154.2 582.39 153.98 587.26 153.67 590.4 153.66 593.52 153.58 597.18 154.02 599.24 154.09 600.61 154.03 603.27 153.72 604.97 153.2 608.75 151.79 610.19 151.12 610.58 151.23 611.92 150.61 611.73 151.34 612.99 153.21 614.03 154.35 Z M 441.48 158.85 441.24 158.52 462.02 139.8 462.14 140.21 458.31 143.63 441.71 158.61 441.48 158.85 Z" fill-rule="evenodd" id="35020720"/>
<path d="M 777.78 186.66 771.63 191.5 771.7 193.62 771.37 195.85 770.83 195.7 770.74 196.49 769.83 198.81 770.66 199.5 770.63 200.34 770.14 201.36 769.07 203.16 767.96 205.5 767.03 206.74 766.04 207.26 765.52 208 763.83 209.94 760.66 212.9 758.37 215.35 756.65 217.07 756.34 217.86 755.88 218.36 755.23 218.57 754.72 219.33 754.3 218.81 753.51 219.2 752.97 221.74 752.53 221.98 751.88 223.09 751.44 223.31 750.28 222.16 749.32 221.67 748.3 221.74 748.12 222.31 747.44 222.58 747.01 223.16 746.14 222.83 744.94 223.68 742.4 222.86 740.53 222.95 738.01 222.88 737.46 223.49 735.45 225.19 733.39 228.62 728.32 232.36 723.66 235.11 721.43 236.1 716.75 237.2 709.84 239.78 707.21 232.72 705.38 228.05 705.1 227.82 705.1 226.98 703.45 225.1 703.24 224.14 702.31 224.47 702.02 223.71 701.12 224.06 700.16 224.12 699.6 223.06 698.79 223.38 698.51 222.75 697.63 223.09 697.38 222.44 695.49 222.98 694.43 220.18 693.45 220.55 692.92 219.17 692.05 219.5 690.27 214.86 689.36 215.2 688.16 212.09 687.83 212.31 686.85 211.91 686.15 210.5 686.31 208.53 686.54 207.72 687.9 206.26 689.6 205.22 700.27 201.19 704.75 199.41 705.32 199.32 705.26 198.52 703.65 197.04 703.72 196.46 704.62 196.04 704.82 194.1 705.26 193.79 706.91 193.84 707.72 193.05 707.71 192.3 708.24 190.49 708.32 189.29 708.69 186.69 708.95 185.88 708.53 185.44 707.7 185.31 707.42 184.99 707.47 183.92 708.06 183.17 708.09 182.74 707.31 181.63 707.63 181.06 707.35 180.03 706.88 179.35 707.01 178.36 707.09 175.86 707.6 174.88 707.43 174.35 707.76 173.87 707.86 172.73 707.66 171.82 707.24 171.16 707.22 170.41 706.26 170.14 706.33 169.19 705.66 167.61 705.66 167.24 706.53 166.72 707.29 166.76 708.04 167.28 710.72 167.26 710.96 167.07 712.15 167.07 712.79 167.39 713.82 166.97 715.27 166.68 716.57 166.81 717.02 167.27 718.1 167.69 718.3 168.08 719.36 168.51 720.75 166.42 720.82 165.69 721.33 164.96 723.06 164.46 724.36 164.41 725.71 163.75 726.79 162.77 727.97 162.4 728.61 161.81 730.09 163.59 730.44 164.18 731.08 166.12 731.08 167.22 730.83 167.39 730.87 168.49 730.65 168.66 730.04 171.11 729.85 172.56 730.12 173.94 730.05 175.1 730.38 175.4 730.33 176.9 730.71 179.33 730.72 181.19 730.56 182.25 729.45 183.6 729.38 184.8 728.99 186.12 728.34 186.21 728.68 187.3 729.06 187.49 730.77 187.76 731.56 187.76 732.49 186.96 733.86 186.36 734.16 186.59 736.47 186.58 737.32 185.87 738.65 186.52 740.2 186.97 741.07 186.59 741.85 186.65 742.54 187.1 743.28 188.04 744.98 187.63 746.51 187.68 746.68 188.22 748.35 189 748.82 188.5 748.24 187.57 751.2 186.76 751.33 187.11 754.65 191.29 756.1 190.32 758.14 188.73 758.75 188.42 761.57 187.58 761.9 187.34 768.29 189.35 769.53 186.31 771.1 184.07 771.39 184.78 771.94 184.76 777.72 186.6 777.78 186.66 Z" id="35020350"/>
<path d="M 706.53 166.72 705.66 167.24 705.66 167.61 706.33 169.19 706.26 170.14 707.22 170.41 707.24 171.16 707.66 171.82 707.86 172.73 707.76 173.87 707.43 174.35 707.6 174.88 707.09 175.86 707.01 178.36 706.88 179.35 707.35 180.03 707.63 181.06 707.31 181.63 708.09 182.74 708.06 183.17 707.47 183.92 707.42 184.99 707.7 185.31 708.53 185.44 708.95 185.88 708.69 186.69 708.32 189.29 708.24 190.49 707.71 192.3 707.72 193.05 706.91 193.84 705.26 193.79 704.82 194.1 704.62 196.04 703.72 196.46 703.65 197.04 705.26 198.52 705.32 199.32 704.75 199.41 700.27 201.19 689.6 205.22 687.9 206.26 687.06 205.2 686.36 204.63 685.6 203.67 684.92 203.49 682.64 202.56 681.13 201.5 681.01 201.06 680.1 200.2 679.63 200 679.72 199.21 678.88 199.03 678.32 198.28 678.29 196.91 677.37 194.59 676.83 193.7 676.35 192.41 675.94 192.08 675.55 191.26 675.37 190.31 675.5 189.55 675.14 189.05 675.76 187.98 675.55 186.93 675.84 186.52 674.83 186.23 674.87 185.25 673.67 184.79 673.75 184.08 675.28 184 676.09 176.9 674.2 176.11 674.2 174.69 673.43 173.79 673.83 172.6 673.55 171.9 673.49 170.76 673.75 169.66 674.91 168.99 675.13 167.86 675.66 167.17 674.29 165.69 673.71 165.3 673.51 163.94 674.81 162.96 674.43 161.72 674.62 160.4 674.31 160.03 673.51 160.1 672.64 159.22 671.86 159.12 670.03 158.23 670.87 157.61 670.9 157.22 670.4 156.1 669.96 155.78 669.3 154.68 668.48 152.78 668.46 152.31 669.61 151.05 670.91 150.74 671.38 150.42 671.45 149.87 672.1 149.2 672.23 147.35 673.36 147.68 674.6 148.23 674.81 149.18 676.09 149.19 676.63 149.67 677.44 151.15 676.61 151.99 677.62 152.76 677.79 153.41 678.57 154.34 679.79 154.66 680.48 155.45 680.52 156.36 681.16 157.09 682.31 157.07 683.25 156.77 684.22 156.69 684.81 157.42 685.6 157.61 686.14 157.12 687.9 156.61 688.67 156.96 688.74 158.68 689.14 159.28 689.8 159.01 690.08 158.39 690.69 157.95 691.76 158 692.78 158.43 692.74 158.9 694.5 159.08 695.05 158.13 696.26 158.6 697.19 158 697.45 157.36 698.25 157.59 700.22 157.6 700.88 158.29 701.91 158.37 702.97 160 703.86 160.49 705.11 161.77 705.81 162.02 706.62 161.94 707.05 162.27 707.2 162.92 706.38 164.56 706.3 165.74 706.53 166.72 Z" id="35020360"/>
</g>
</svg>