<?xml version="1.0"?>
<svg xmlns="http://www.w3.org/2000/svg" version="1.2" baseProfile="tiny" width="800" height="516" viewBox="0 0 800 516" stroke-linecap="round" stroke-linejoin="round">
<g id="dong">
<path d="M 537.77 160.72 536.3 161.14 532.98 160.16 532.72 162.88 531.52 164.75 528.87 165.66 527.03 166.8 526.31 166.48 523.85 167.78 524 168.78 523.7 172.43 520.71 173.71 519.31 173.79 518.29 174.47 517.13 173.62 515.22 173.34 512.56 173.97 511.13 174.91 511.32 176.69 511.85 177.58 511.41 179.2 510.3 180.28 510.86 184.42 511.27 185.64 511.11 187.31 511.22 190.95 511.55 193.38 510.26 195.36 508.89 194.81 505.12 195.82 504.68 196.53 502.18 196.68 500.88 197.47 500 199.47 500.32 200.21 499.55 202.27 498.55 203.68 495.75 204.57 493.18 204.85 492.46 205.74 489.47 206.24 488.27 202.57 486.9 201.67 485.72 199.86 483.26 198.84 480.57 198.8 480.05 199.21 476.75 198.96 475.46 197.8 474.01 197.34 470.64 197.57 470.01 195.89 470.52 193.98 470.1 192.76 468.53 192.62 466.54 193.68 463.82 194.11 461.71 193.05 460.38 193.39 457.99 191.1 456.74 190.47 455.63 190.95 453.48 189.12 450.97 188.43 449.55 189.09 448.35 187.92 446.41 187.81 444.6 185.43 443.22 184.54 442.69 183.37 441.34 184.43 440.39 184.38 438.87 183.41 438.02 184.41 433.16 187.73 430.58 188.9 428.93 189.22 426.26 192.49 423.13 194.51 419.96 196.09 419.96 197.66 418.21 198.83 415.49 201.2 413.6 203.7 412.36 204.34 412.33 205.29 411.47 206.59 410.28 206.29 410.31 205.42 407.38 204.95 403.93 204.63 402.19 203.21 400.59 203.18 398.25 202.56 395.4 203.32 391.49 201.28 391.81 198.49 393.08 197.02 393.36 196.02 392.22 194.6 388.96 192.99 387.72 191.33 386.01 191.34 384.28 190.59 382.36 185.31 384.24 184.6 384.74 183.61 385.12 180 384.85 179.07 385.66 175.97 386.24 174.83 385.75 173.9 388.47 170.72 391.19 165.94 391.5 163.84 392.43 163.26 395.64 163.17 398.21 161.45 400.22 161.19 401.92 160.01 402.83 160.03 404.31 158.18 405.11 156.57 406.14 156.54 405.9 154.77 406.6 151.3 405.51 150.48 406.6 148.6 406.95 147.19 408.44 144.88 408.8 141.63 410.29 139.95 411.81 137.43 411.75 135.16 412.76 134.47 413.29 132.96 415.28 132.63 416.58 129.84 417.77 128.68 419.69 128.77 421.81 125.87 423.46 126 429.03 123.56 429.35 121.88 429.07 120.27 429.95 116.29 425.56 111.81 424.39 110.37 425.55 106.35 425.62 101.18 424.84 96.43 424.89 93.58 422.49 87.13 423.33 85.62 423.77 83.91 425.51 81.75 426.07 79.46 426.15 76.5 427.69 74.43 429.65 73.56 430.4 72.75 432.52 72.13 433.49 71.17 432.49 69.14 432.75 63.13 432.96 62.38 431.46 58.43 432.59 54.86 433.45 53.54 433.97 50.41 435.19 48.73 437.68 41.91 438.69 41 439.09 38.53 439.94 36.64 439.67 36 441.72 34.12 441.42 32.85 441.65 30.44 443.25 29.02 444.2 29.05 446.52 30.36 447.3 30.41 448.57 31.47 449.57 31.01 451.8 31.43 453.92 30.41 456.33 29.66 457.09 28.87 461.61 29.2 463.17 31.33 462.61 32.98 462.95 34.21 464.65 36.78 464.98 38.15 467.23 40.27 470.11 40.86 470.97 41.89 473.17 42.85 476.29 45 481.88 45.13 486.19 43.98 487.26 44.72 489.25 46.82 492.14 48.65 494.91 48.29 497.43 50.01 497.66 51.84 500.3 53.41 501.11 52.86 502.23 53.41 501.62 57.53 501.78 59.66 501.39 61.44 500.14 61.73 499.97 65.01 500.5 67.44 501.51 67.99 502.23 70.12 503.5 70.75 504.52 72.94 505.63 72.9 506.53 74.37 508.07 75.45 508.14 76.28 510.91 75.89 512.55 76.9 514.34 77.05 515.55 76.66 517.35 78.02 517.5 79.82 517.28 82.74 516.49 84.92 517.79 86.51 518.33 88.34 520.61 92.2 522.54 93.08 524.86 96.75 528.21 98.22 530.49 100.22 533.2 101.2 536.12 102.79 536.88 104.89 535.94 109.25 536.92 110.81 537.77 113.07 537.65 117.38 538.67 118.42 539.71 118.24 540.87 123.34 542.6 122.97 542.84 124.15 539.41 124.93 540.31 126.16 543.31 125.63 546.48 124.77 547.31 124.26 549.73 127.55 550.81 128.46 552.4 127.94 556.49 128.32 557.16 129.24 559.32 129.42 559.08 133.92 560.41 135.53 561.02 138.82 558.78 140.78 558.72 142.31 559.23 144.5 558.85 146.77 559.17 147.79 558.56 149.31 556.2 151.03 554.18 153.08 551.71 154.44 549.41 154.59 548.17 154.2 546.5 156.24 546.04 157.5 543.78 158.24 541.76 158.29 540.06 158.76 537.77 160.72 Z" id="35050410"/>
<path d="M 492.46 205.74 492.86 207.28 494.39 209.58 494.41 210.89 496.51 212.67 495.68 217.03 500.19 218.44 501 217.97 503.21 217.66 504.93 216.77 506.13 217.51 507.6 221.92 510.08 221.7 510.76 223.05 511.95 223.78 514.03 223.66 515.49 223.16 515.45 226.19 516.56 226.79 516.92 229.91 516.15 232.71 515.73 232.99 515.33 235.25 514.16 235.98 514.21 240.73 511.26 242.47 510.69 243.56 511.02 246.24 509.8 248.03 507.78 250.31 507.76 251.8 509.02 252.62 510.39 255.09 512.02 257.17 513.38 256.83 514.28 257.59 514.25 262.22 514.72 262.75 514.48 264.38 513.6 265.7 513 268.64 514.43 270.26 514.02 272.5 513.04 273.94 513.7 274.75 514.07 276.85 515.69 278.31 515.46 280.81 516.28 282.65 517.16 283.38 517.25 284.53 518.18 285.99 518.1 288.24 516.41 289.69 514.34 290.42 512.64 292.79 512.81 294.88 512.02 295.79 510.89 298.76 511.25 300.04 509.62 302.36 509.88 303.67 508.92 304.69 506.72 304.51 502.13 305.04 499.28 306.72 496.79 307.54 495.85 308.86 493.93 310.4 492.46 313.31 492.68 314.6 490.23 315.19 487.44 316.51 482.45 320.18 482.17 321.27 480.85 323.08 480.84 323.99 478.25 324.29 476.59 326.11 476.49 327.67 473.84 329.57 471.44 327.06 470.42 327.46 467.35 326.43 464.97 327.59 464.16 326.6 464.58 325.52 462.26 323.37 461.43 322.17 458.5 318.91 455.82 318.03 454.64 319.62 453.87 319.58 451.46 318.31 451.26 315.93 448.69 315.74 448.37 313.57 445.82 312.8 443.37 311.51 442.26 311.52 439.9 310.09 438.29 309.85 436.03 308.3 434.72 307.74 431.88 309.05 429.53 308.56 429.08 308.95 427.25 308.18 426.43 307.22 422.64 305.15 421.63 303.35 421.82 302.69 420.4 301.67 417.84 301.27 417.13 301.85 415.24 301.64 413.79 301.01 412.09 302.62 409.31 301.97 408.93 303.31 406.76 303.98 406.61 304.58 404.85 304.87 404 306.35 400.73 306.23 399.47 305.57 396.59 307.49 395.1 308.18 392.79 306.46 392.06 306.62 389.32 306.12 387.47 306.05 386.92 303.69 386.38 302.76 385.09 301.93 383.63 300.23 381.81 301.13 380.9 299.86 379.79 299.24 378.28 300.05 377.18 300.03 376.94 297.44 376.12 297.16 374.49 294.95 374.49 293.21 373.76 292.29 373.21 290.11 371.57 291.89 370.06 292.84 368.5 292.6 367.4 293.48 365.07 292.88 363.54 290.49 361.85 290.8 359.91 290.25 360.03 287.86 359.23 285.24 363.62 283.88 367 282.44 366.15 281.44 369.98 278.55 370.19 277.43 373.22 271.38 375 270.89 376.41 269.86 378.69 266.72 379.64 264.2 381.02 259.31 382.62 257.03 383.83 256.92 385.45 253.97 386.56 252.62 388.8 250.74 390.42 249.74 395.15 247.35 395.61 246.54 398.33 243.96 402.95 238.46 404.05 235.52 404.77 232.01 404.2 228.35 407.6 219.48 409.55 216.55 410.1 214.01 410.06 211 410.28 206.29 411.47 206.59 412.33 205.29 412.36 204.34 413.6 203.7 415.49 201.2 418.21 198.83 419.96 197.66 419.96 196.09 423.13 194.51 426.26 192.49 428.93 189.22 430.58 188.9 433.16 187.73 438.02 184.41 438.87 183.41 440.39 184.38 441.34 184.43 442.69 183.37 443.22 184.54 444.6 185.43 446.41 187.81 448.35 187.92 449.55 189.09 450.97 188.43 453.48 189.12 455.63 190.95 456.74 190.47 457.99 191.1 460.38 193.39 461.71 193.05 463.82 194.11 466.54 193.68 468.53 192.62 470.1 192.76 470.52 193.98 470.01 195.89 470.64 197.57 474.01 197.34 475.46 197.8 476.75 198.96 480.05 199.21 480.57 198.8 483.26 198.84 485.72 199.86 486.9 201.67 488.27 202.57 489.47 206.24 492.46 205.74 Z" id="35050420"/>
<path d="M 759.74 124.02 759.93 127.09 759.58 128.64 759.67 130.35 760.7 134.41 759.19 137.06 760.44 141.64 762.13 143.71 764.31 145.89 763.29 147.23 760.18 148.17 757.49 150.59 756.08 150.99 754.87 152.63 753.95 152.7 750.85 155.77 748.62 156.23 746.4 157.52 744.68 159.27 740.54 160.97 738.83 161.18 737.56 163.3 737.5 164.17 738.75 168.03 739.55 171.13 739.05 175.27 739.76 178.77 738.24 179.82 736.26 181.99 736.66 183.81 738.13 185.46 738.23 187.57 737 189.08 737.13 192.23 736.28 193.74 736.25 195.06 736.79 197.02 737.72 198.75 737.93 200.8 739.18 202.62 740.78 204.31 742.94 208.1 747.54 213.46 750.69 219.38 751.91 221.05 750.97 221.59 749.42 221.64 747.18 222.34 744.4 224.61 742.89 228.38 741.81 229.21 739.64 229.17 737.22 228.44 736.3 227.73 733.14 227.35 731.06 228.28 729.43 227.18 727.16 226.45 725.09 226.74 723.37 226.41 721.81 226.61 718.3 224.79 714.3 224.02 711.32 224.69 708.47 224.14 703.35 228.97 702.12 230.64 701.34 230.89 699.59 233.88 699.46 236.17 697.36 237.17 696.49 238.73 693.97 239.63 693.21 243.47 692.98 246.3 691.54 247.92 692.77 248.71 696.25 249.17 698.94 251.4 698.83 252.96 696.9 256.37 695.92 257.46 694.45 260.63 692.08 263.4 690.53 263.75 686.94 265.78 686.55 267.23 685.17 268.87 684.97 269.88 683.72 271.42 682.52 272.29 680.2 275.01 678.51 278.03 677.31 278.75 676.54 279.95 675.51 280.58 674.02 282.88 674.27 283.76 671.42 284.63 669.98 285.86 666.24 284.94 664.13 282.98 660.55 282.52 657.32 282.97 655.31 283.8 653.43 284.05 651.74 283.48 649.87 282.21 646.6 278.77 644.01 278.51 641.83 277.97 639.74 275.84 641.59 272.55 643.64 269.96 645.16 267.32 646.92 266.33 646.07 264.21 647.34 262.06 649.55 260.74 651.58 257.55 651.56 256 652.51 253.57 651.53 251.72 648.39 249.53 648.2 248.43 648.56 246.66 647.84 245.19 648.78 242.97 648.65 240.22 649.12 239.08 648.41 238.21 649.06 237.41 648.56 235.07 649.19 233.89 649.34 231.49 652.1 226.82 652.59 225.19 651.8 223.4 651.41 220.82 652.1 218.41 651.92 216.2 652.22 213.99 649.31 212.69 647.91 210.98 646.43 210.84 644.46 207.32 644.54 205.78 643.77 202.31 642.42 203.01 640.04 205.35 638.81 206.18 638.51 204.39 639.31 202.84 639.5 200.79 640.02 199.79 639.8 196.27 642.56 194.31 644.19 194.16 644.62 192.78 647.3 192.37 650.7 192.29 652.7 192.48 654.61 191.43 656.6 191.94 658.19 190.18 656.14 185.1 656.8 183.89 656.7 182.21 657.42 180.32 659.43 178.74 660.14 177.09 659.68 176.25 660.06 174.9 659.81 173.33 665.01 170.38 666.52 170.03 667.79 169.15 670.99 168.89 675.29 169.54 676.45 170.62 677.16 167.61 677.13 165.27 678.77 163.8 679.61 162.49 680.96 158.97 682.36 157.39 681.94 156.05 681.55 151.91 683.32 149.92 684.09 148.26 684.87 145.45 686.1 144.08 686.46 140.93 687.78 140.04 688.2 139 687.79 137.7 688.5 133.43 689.67 131.38 689.73 128.26 691.09 126.92 692.86 126.15 694.67 124.03 695.12 121.59 695.92 120.17 695.94 118.46 696.6 117.7 696.37 115.73 697.49 114.44 698.94 114.28 699.61 111.32 699.33 110.76 700.02 106.01 701.31 105.44 708.22 105.89 709.56 104.14 712.25 104.57 713.88 104.5 715.29 105.05 717.94 105.29 721.01 105.04 722.3 104.37 723.97 105.14 724.96 105.07 725.96 104.08 727.92 105.33 729.71 105.26 734.71 104.52 736.08 103.8 737.81 101.94 738.72 103.88 741.77 104.9 742.21 106.23 744.5 109.01 745.7 109.8 746.04 112 746.92 112.76 747.26 114.9 748.12 116.81 748.85 117.22 749.59 119.68 749.84 121.82 751.42 122.31 752.34 123.4 754.36 123.78 759.74 124.02 Z" id="35050430"/>
<path d="M 737.81 101.94 736.08 103.8 734.71 104.52 729.71 105.26 727.92 105.33 725.96 104.08 724.96 105.07 723.97 105.14 722.3 104.37 721.01 105.04 717.94 105.29 715.29 105.05 713.88 104.5 712.25 104.57 709.56 104.14 708.22 105.89 701.31 105.44 700.02 106.01 699.33 110.76 699.61 111.32 698.94 114.28 697.49 114.44 696.37 115.73 696.6 117.7 695.94 118.46 695.92 120.17 695.12 121.59 694.67 124.03 692.86 126.15 691.09 126.92 689.73 128.26 689.67 131.38 688.5 133.43 687.79 137.7 688.2 139 687.78 140.04 686.46 140.93 686.1 144.08 684.87 145.45 684.09 148.26 683.32 149.92 681.55 151.91 681.94 156.05 682.36 157.39 680.96 158.97 679.61 162.49 678.77 163.8 677.13 165.27 677.16 167.61 676.45 170.62 675.29 169.54 670.99 168.89 667.79 169.15 666.52 170.03 665.01 170.38 659.81 173.33 660.06 174.9 659.68 176.25 660.14 177.09 659.43 178.74 657.42 180.32 656.7 182.21 656.8 183.89 656.14 185.1 658.19 190.18 656.6 191.94 654.61 191.43 652.7 192.48 650.7 192.29 647.3 192.37 644.62 192.78 644.19 194.16 642.56 194.31 642.18 192.23 640.65 191.65 639.65 189.52 639.14 187.58 637.95 185.34 635.73 184.39 634.53 182.76 634.39 180.92 634.74 179.17 633.61 178.85 631.89 179.63 630.72 177.78 628.61 176.8 627.43 175.69 626.2 176.04 623.05 174.9 622.52 174.12 620.58 174.21 619.32 175.28 615.98 174.23 615.76 173.39 616.46 171.66 616.65 168.13 614.64 167.03 614.27 164.98 613.12 163.97 612.31 162.42 612.18 160.29 612.65 158.08 613.45 156.71 615.57 154.76 616.46 153.4 616.05 150.07 617.39 148.53 617.96 144.51 618.99 143.24 618.73 141.4 619.18 140.17 618.5 138.87 617.07 137.5 618.28 136.9 618.5 135.35 620.49 134.94 621.91 135.32 625.21 133.94 625.8 133.22 626.83 130.33 628.48 129.4 630.26 129.79 630.97 129 631.83 126.9 633.42 126.05 634.55 126.24 636.67 125.15 637.86 123.75 639.21 123.04 640.87 122.78 641.62 121.81 641.38 120.43 642.6 119.03 643.92 118.41 643.96 117.66 645.33 116.51 645.44 115.37 644.94 113.23 644.03 112.02 644.28 106.17 645.38 104.86 645.14 103.11 645.17 99.75 645.56 97.98 645.06 95.19 644.98 92.81 642.74 91.81 642.85 89.71 642.49 88.64 640.41 88.07 639.49 87.41 635.08 86.56 633.39 84.07 631.72 84.12 630.46 83.04 629.1 80.78 629.47 80.25 629.27 74.6 628.29 72.67 626.12 71.32 626.25 64.74 625.98 62.1 626.54 61.06 626.53 59.1 626.13 57.97 626.63 54.79 626.24 54.43 627.25 52.38 630.89 51.56 631.53 48.33 631.31 46.15 632.06 44.93 631.24 42.06 631.03 39.98 631.35 37.37 632.31 32.37 633.15 30.42 632.9 28.81 633.89 27.94 635.06 28.27 636.62 27.2 637.27 27.32 639.92 26.43 642.17 25.97 642.68 24.49 643.85 24.14 645.28 22.24 646.43 21.61 647.07 20.25 651.42 15.49 652.41 13.24 657.02 13.24 659 13.86 661.16 12.99 663.16 14.26 666.35 18.37 666.49 20.27 667.09 21.91 666.69 23.38 667.55 24.93 668.51 25.5 671.87 26 674.88 25.68 676.19 28.09 677.79 29.26 677.89 30.71 683.05 31.83 683.65 32.68 685.12 33.25 687.8 35.01 689.53 37.4 691.07 37.9 692.26 38.95 692.79 40.14 692.18 42.58 694.56 45.86 695.36 46.29 696.9 48.73 697.96 49.29 702.59 49.59 704.88 47.55 708.41 47.33 709.36 49.3 710.82 50.61 710.97 52.8 714.32 53.08 717.52 53.06 720.27 51.15 720.93 50.17 722.52 49.01 723.94 48.45 724.33 49.34 724.16 52.96 722.13 54.82 719.53 55.68 718.53 57.6 719.06 61.72 718.58 63.78 718.94 65.31 718.06 66.45 719.34 69.98 720.31 71.27 721.59 72.04 723.63 72.31 724.65 75.6 726.03 77.47 728.02 79.3 733.16 79.28 733.5 82.67 733.31 86.66 731.31 89.61 732.32 91.8 732.29 93.58 733.34 96.02 735.59 95.81 736.63 96.61 736.62 98.26 737.36 98.95 737.81 101.94 Z" id="35050440"/>
<path d="M 797.99 225.55 799 227.52 798.62 229.54 797.22 232.31 795.08 234.3 793.56 239.68 791.97 241.1 788.35 242.66 787.42 244.08 785.89 245.14 784.65 247.65 784.95 250.14 786.32 251.88 786.27 254.63 785.49 258.24 785.84 261.33 785.73 264 783.4 265.34 782.13 266.43 782.78 267.52 781.63 269.43 782.25 271.38 781.3 275.6 781.66 276.54 780.05 279.43 778.75 282.71 777.95 287.86 777.27 289.9 771.35 290.96 769.23 294.28 767.36 295.94 765.97 297.66 764.28 299.18 761.35 305.32 759.33 305.64 757.83 307.31 754.57 313.46 753.11 313.66 749.68 315.62 748.01 315.5 746.17 316 743.72 316.26 740.92 316 739.05 316.79 739.22 317.72 738.72 320.05 737.12 322.16 735.99 324.74 732.43 328.66 731.94 331.68 730.82 334.25 728.25 337.19 726.75 339.45 723.59 342.64 721.46 346.52 720.31 349.41 719.67 354.02 719.98 357.4 721 364.9 718.81 368.27 716.07 371.81 713.94 374.27 712.06 375.78 707.19 377.93 704.76 379.52 701.46 380.07 699.92 380.91 696.84 384.86 695.94 386.93 697.07 390.53 698.39 395.8 697.73 400.11 698.49 402.43 698.54 404.54 699.39 406.93 702.93 410.83 703.83 414.85 705.33 418.59 707.6 420.28 709.62 421.16 713.13 423.95 713.86 426.98 716.42 430.38 717.65 434.04 716.68 439.27 716.52 442.91 714.89 445.85 713.8 448.51 713.47 450.74 713.54 453.17 708.97 455.09 706.86 456.15 704.43 456.87 700.54 462.35 696.51 464.74 692.34 468.25 691.37 470.38 690.53 476.99 689.59 479.21 687.68 481.55 685.42 482.34 682.83 483.98 678.92 487.28 672.79 491.3 670.65 493.48 668.48 494.69 663.72 496.49 661.28 497.84 658.56 498.79 656.61 500.1 654.19 500.37 651.46 500.23 649.21 499.49 646.62 499.27 643.25 500.66 636.37 495.58 634.82 493.37 634.04 491.51 631.22 487.86 627.4 481.63 625.99 480.68 623.83 480.02 621.4 479.89 615.36 476.68 608.74 474.8 606.74 475.05 602.76 471.7 601.98 469.25 600.12 468.2 592.6 465.15 590.21 464.61 587.73 463.47 585.61 462 585.17 460.71 585.26 456.32 584.31 451.76 581.49 449.57 574.5 449.22 569.56 448.56 567.06 447.1 563.09 441.47 560.68 435.03 559.69 433.1 556.38 429.6 552.41 427.35 545.64 426.24 543.6 424.86 539.22 417.22 541.68 415 543.24 412.81 544.36 410.56 545.74 406.5 546.72 404.56 549.17 401.33 550.16 399.11 550.07 394.19 550.71 392.41 552.51 389.35 553.46 386.2 555.25 383.96 555.94 381.09 557.3 380.03 559.09 379.16 560.32 378.12 562.2 375.3 565.52 372 568.98 368.94 573.44 365.41 575.27 365.3 578.62 365.93 581.58 365.86 583.6 365.3 587.26 363.53 591.79 360.14 597.12 358.77 601.41 356.11 600.84 354.37 600.94 352.27 601.57 349.97 602.72 348.15 603.28 346.16 606.34 341.73 609.17 338.36 611.53 334.78 612.87 331.23 613.26 328.71 613.81 327.02 617.38 323.35 617.85 320.69 619.53 318.32 621.32 316.36 621.63 311.91 620.63 308.14 620.19 304.97 621.26 300.03 620.84 296.85 623.96 293.61 626.26 291.58 627.01 289.07 627.42 285.51 628.9 281.2 630.27 279.27 632.35 277.77 636.62 276.24 639.74 275.84 641.83 277.97 644.01 278.51 646.6 278.77 649.87 282.21 651.74 283.48 653.43 284.05 655.31 283.8 657.32 282.97 660.55 282.52 664.13 282.98 666.24 284.94 669.98 285.86 671.42 284.63 674.27 283.76 674.02 282.88 675.51 280.58 676.54 279.95 677.31 278.75 678.51 278.03 680.2 275.01 682.52 272.29 683.72 271.42 684.97 269.88 685.17 268.87 686.55 267.23 686.94 265.78 690.53 263.75 692.08 263.4 694.45 260.63 695.92 257.46 696.9 256.37 698.83 252.96 698.94 251.4 696.25 249.17 692.77 248.71 691.54 247.92 692.98 246.3 693.21 243.47 693.97 239.63 696.49 238.73 697.36 237.17 699.46 236.17 699.59 233.88 701.34 230.89 702.12 230.64 703.35 228.97 708.47 224.14 711.32 224.69 714.3 224.02 718.3 224.79 721.81 226.61 723.37 226.41 725.09 226.74 727.16 226.45 729.43 227.18 731.06 228.28 733.14 227.35 736.3 227.73 737.22 228.44 739.64 229.17 741.81 229.21 742.89 228.38 744.4 224.61 747.18 222.34 749.42 221.64 750.97 221.59 751.91 221.05 754.31 219.4 755.7 217.46 759.44 216.04 763.27 216.59 765.24 216.08 767.76 217.66 768.63 219.11 769.96 219.67 772.54 221.84 773.79 221.95 776.51 223.07 777.94 224.03 779.44 224.03 783.03 223.19 786.12 221.59 788.71 220.9 790.66 221.01 793.06 221.58 796.85 223.41 797.99 225.55 Z" id="35050450"/>
<path d="M 537.77 160.72 539.47 163.12 546.01 164.36 548.09 166.76 550.42 167.32 550.85 168.49 551.79 168.73 551.85 170.56 553.68 171.23 555.64 174.36 558.38 174.27 561.45 174.6 565.33 175.44 566.86 176.34 569.94 177.48 572.74 179 573.55 179.82 574.96 179.44 575.81 180.01 576.82 179.55 576.92 178.27 578.93 178.37 579.92 176.88 580.57 177.56 582.99 177.37 582.88 178.77 582.2 179.1 582.33 180.75 584.79 181.81 584.7 183.88 586.6 184.38 589.73 184.28 591.04 183.7 591.97 182.03 595.89 180.65 599.16 180.97 600.02 180.11 600.78 178.38 602.58 177.82 606.04 178.22 610.48 178.13 611.39 176.13 613.31 175.68 615.76 173.39 615.98 174.23 619.32 175.28 620.58 174.21 622.52 174.12 623.05 174.9 626.2 176.04 627.43 175.69 628.61 176.8 630.72 177.78 631.89 179.63 633.61 178.85 634.74 179.17 634.39 180.92 634.53 182.76 635.73 184.39 637.95 185.34 639.14 187.58 639.65 189.52 640.65 191.65 642.18 192.23 642.56 194.31 639.8 196.27 640.02 199.79 639.5 200.79 639.31 202.84 638.51 204.39 638.81 206.18 640.04 205.35 642.42 203.01 643.77 202.31 644.54 205.78 644.46 207.32 646.43 210.84 647.91 210.98 649.31 212.69 652.22 213.99 651.92 216.2 652.1 218.41 651.41 220.82 651.8 223.4 652.59 225.19 652.1 226.82 649.34 231.49 649.19 233.89 648.56 235.07 649.06 237.41 648.41 238.21 649.12 239.08 648.65 240.22 648.78 242.97 647.84 245.19 648.56 246.66 648.2 248.43 648.39 249.53 651.53 251.72 652.51 253.57 651.56 256 651.58 257.55 649.55 260.74 647.34 262.06 646.07 264.21 646.92 266.33 645.16 267.32 643.64 269.96 641.59 272.55 639.74 275.84 636.62 276.24 632.35 277.77 630.27 279.27 628.9 281.2 627.42 285.51 627.01 289.07 626.26 291.58 623.96 293.61 620.84 296.85 621.26 300.03 620.19 304.97 620.63 308.14 621.63 311.91 621.32 316.36 619.53 318.32 617.85 320.69 617.38 323.35 613.81 327.02 613.26 328.71 612.87 331.23 611.53 334.78 609.17 338.36 606.34 341.73 603.28 346.16 602.72 348.15 601.57 349.97 600.94 352.27 600.84 354.37 601.41 356.11 597.12 358.77 591.79 360.14 587.26 363.53 583.6 365.3 581.58 365.86 578.62 365.93 575.27 365.3 573.44 365.41 568.98 368.94 565.52 372 562.2 375.3 560.32 378.12 559.09 379.16 557.3 380.03 554.07 372.71 552.41 369.65 551.76 367.5 551.42 364.74 550.38 361.9 548.76 359.95 547.48 359.2 542.87 355.06 541.9 353.26 539.9 353.13 535.42 351.94 532.76 351.82 532.42 352.55 530.09 353.78 528.62 352.64 527.21 352.59 526.48 350.1 525.28 349.35 526.55 347.65 526.46 343.08 526.68 339.96 527.28 339.7 525.97 332.25 524.78 327.31 524.81 326.23 523.91 323.48 523.95 322.08 523.34 319.98 522.45 318.8 522.79 317.63 520.53 316.1 518.44 313.45 518.33 311.79 516.13 309.7 513.59 308.25 511.78 309.49 510.71 309.33 509.64 307.63 508.92 304.69 509.88 303.67 509.62 302.36 511.25 300.04 510.89 298.76 512.02 295.79 512.81 294.88 512.64 292.79 514.34 290.42 516.41 289.69 518.1 288.24 518.18 285.99 517.25 284.53 517.16 283.38 516.28 282.65 515.46 280.81 515.69 278.31 514.07 276.85 513.7 274.75 513.04 273.94 514.02 272.5 514.43 270.26 513 268.64 513.6 265.7 514.48 264.38 514.72 262.75 514.25 262.22 514.28 257.59 513.38 256.83 512.02 257.17 510.39 255.09 509.02 252.62 507.76 251.8 507.78 250.31 509.8 248.03 511.02 246.24 510.69 243.56 511.26 242.47 514.21 240.73 514.16 235.98 515.33 235.25 515.73 232.99 516.15 232.71 516.92 229.91 516.56 226.79 515.45 226.19 515.49 223.16 514.03 223.66 511.95 223.78 510.76 223.05 510.08 221.7 507.6 221.92 506.13 217.51 504.93 216.77 503.21 217.66 501 217.97 500.19 218.44 495.68 217.03 496.51 212.67 494.41 210.89 494.39 209.58 492.86 207.28 492.46 205.74 493.18 204.85 495.75 204.57 498.55 203.68 499.55 202.27 500.32 200.21 500 199.47 500.88 197.47 502.18 196.68 504.68 196.53 505.12 195.82 508.89 194.81 510.26 195.36 511.55 193.38 511.22 190.95 511.11 187.31 511.27 185.64 510.86 184.42 510.3 180.28 511.41 179.2 511.85 177.58 511.32 176.69 511.13 174.91 512.56 173.97 515.22 173.34 517.13 173.62 518.29 174.47 519.31 173.79 520.71 173.71 523.7 172.43 524 168.78 523.85 167.78 526.31 166.48 527.03 166.8 528.87 165.66 531.52 164.75 532.72 162.88 532.98 160.16 536.3 161.14 537.77 160.72 Z" id="35050110"/>
<path d="M 508.92 304.69 509.64 307.63 510.71 309.33 511.78 309.49 513.59 308.25 516.13 309.7 518.33 311.79 518.44 313.45 520.53 316.1 522.79 317.63 522.45 318.8 523.34 319.98 523.95 322.08 523.91 323.48 524.81 326.23 524.78 327.31 525.97 332.25 527.28 339.7 526.68 339.96 526.46 343.08 526.55 347.65 525.28 349.35 526.48 350.1 527.21 352.59 528.62 352.64 530.09 353.78 532.42 352.55 532.76 351.82 535.42 351.94 539.9 353.13 541.9 353.26 542.87 355.06 547.48 359.2 548.76 359.95 550.38 361.9 551.42 364.74 551.76 367.5 552.41 369.65 554.07 372.71 557.3 380.03 555.94 381.09 555.25 383.96 553.46 386.2 552.51 389.35 550.71 392.41 550.07 394.19 550.16 399.11 549.17 401.33 546.72 404.56 545.74 406.5 544.36 410.56 543.24 412.81 541.68 415 539.22 417.22 536.04 414.97 531.61 414.18 529.53 413.2 527.62 411.63 525.94 409.04 523.33 406.04 519.62 402.94 516.38 401.18 512.92 399.95 511.72 400 507.8 400.9 505.53 401.07 503.63 402.08 499.09 402.07 496.66 402.26 493.03 403.1 490.9 400.78 484.88 396.54 484.12 392.62 481.66 391.54 479.41 392.15 478.23 391.64 474.15 391.72 473.25 390.72 470.17 390.51 468.6 389.33 466.92 389.93 464.97 389.98 463.05 391.65 461.49 391.73 460.74 392.95 457.05 393.34 455.35 393.29 454.23 392.24 451.66 392.76 448.2 392.99 448.13 394.22 447.22 395.79 445.3 395.6 443.79 396.12 441.48 398.57 439.12 397.57 437.66 397.92 435.49 397.28 433.52 398.37 430.7 397.22 429.78 397.17 429.01 399.08 426.3 397.93 424.55 398.26 422.47 397.6 420.75 395.97 421.66 393.24 420.67 392.53 418 393.27 415.29 394.71 413.44 394.8 412.39 396.32 411.92 397.83 407.84 400.7 406.2 402.91 405.09 403.16 402.03 405.05 399.98 407.31 400.05 409.39 398.07 411.44 395.37 412.56 394.76 413.76 393.07 414.8 393.63 416.06 392.03 417.36 388.24 418.46 385.9 417.31 384.48 415.94 382.75 415.24 379.7 412.83 378.24 412.46 376.68 412.91 373.99 411.09 370.05 407.61 369.54 405.87 365.3 406.05 363.62 406.59 358.22 405.04 356.01 405.32 355.1 405.93 353.2 405.08 350.94 403.51 348.84 402.93 348.67 401.77 347.1 398.27 346.53 395.49 346.89 394.3 346.21 392.64 344.64 392.57 342.07 389.7 340.65 388.17 339.14 387.5 338.85 386.31 339.62 384.57 341.2 382.22 337.63 378.11 338.85 375.93 339.47 376.01 342.17 373.5 343.6 370.34 344.51 369.59 345.17 368.04 345.14 366.91 346.26 364.21 345.79 359.94 344.33 356.09 344.64 355.04 344.14 354.01 344.98 351.34 344.15 349.54 344.8 347.77 344.69 346.48 345.11 343.21 344.02 342.34 345.21 340.58 344.53 339.73 344.99 337.52 346.33 336.66 347.5 332.77 349.84 331.4 352.66 333.11 354.79 333.23 356.51 334.09 357.3 333.85 358.47 331.08 359.43 329.65 362.78 327.63 361.43 326.83 361.21 324.88 359.93 324.84 359.14 323.67 359.09 322.17 357.8 320.14 359.45 319.58 360.4 318.46 361.18 315.91 362.73 316.32 363.41 314.01 365.52 311.75 365.76 310.65 364.79 308.55 365.06 307.87 364.4 305.89 364.47 304.23 363.94 303.29 367.43 302.76 368.43 302.19 370.68 299.03 372.51 297.73 373.77 297.83 373.97 296.82 376.12 297.16 376.94 297.44 377.18 300.03 378.28 300.05 379.79 299.24 380.9 299.86 381.81 301.13 383.63 300.23 385.09 301.93 386.38 302.76 386.92 303.69 387.47 306.05 389.32 306.12 392.06 306.62 392.79 306.46 395.1 308.18 396.59 307.49 399.47 305.57 400.73 306.23 404 306.35 404.85 304.87 406.61 304.58 406.76 303.98 408.93 303.31 409.31 301.97 412.09 302.62 413.79 301.01 415.24 301.64 417.13 301.85 417.84 301.27 420.4 301.67 421.82 302.69 421.63 303.35 422.64 305.15 426.43 307.22 427.25 308.18 429.08 308.95 429.53 308.56 431.88 309.05 434.72 307.74 436.03 308.3 438.29 309.85 439.9 310.09 442.26 311.52 443.37 311.51 445.82 312.8 448.37 313.57 448.69 315.74 451.26 315.93 451.46 318.31 453.87 319.58 454.64 319.62 455.82 318.03 458.5 318.91 461.43 322.17 462.26 323.37 464.58 325.52 464.16 326.6 464.97 327.59 467.35 326.43 470.42 327.46 471.44 327.06 473.84 329.57 476.49 327.67 476.59 326.11 478.25 324.29 480.84 323.99 480.85 323.08 482.17 321.27 482.45 320.18 487.44 316.51 490.23 315.19 492.68 314.6 492.46 313.31 493.93 310.4 495.85 308.86 496.79 307.54 499.28 306.72 502.13 305.04 506.72 304.51 508.92 304.69 Z" id="35050310"/>
<path d="M 388.24 418.46 386.72 423.24 386.99 426.16 386.26 429.69 384.36 432.42 383.73 434.93 382.29 437.22 380.39 438.25 380.32 439.66 379.55 442.72 379.12 445.52 378.04 448.09 376.24 449.98 372.39 453.49 372.27 455.66 370.99 458.4 369.11 460.42 369.11 462.64 367.87 464.89 365.95 467.46 363.47 471.18 361.91 472.34 357.58 473.63 355.44 474.58 352.78 478.65 352.26 480.29 352.45 482.54 352.23 486.08 349.95 488.95 348.23 491.44 343.59 493.31 341.83 494.52 341.38 499.06 342.51 501.61 342.37 503.51 341.76 505.22 339.24 506.27 336.59 507.93 335.6 511.16 332.44 513.04 328.53 515 323.04 512.07 321.21 512.6 320.54 510.39 319.34 507.61 318.37 503.89 317.36 502.61 316.94 500.99 315.53 497.44 313.69 495.68 311.6 494.31 307.05 492.07 305.77 490.93 300.91 491.83 299.33 490.84 298.43 489.68 297.54 487.25 295.23 488.26 293.76 487.42 291.17 484.91 288.21 481.36 288.01 480.39 286.86 479.14 285.21 478.07 283.19 477.95 281.48 477.47 279.9 476 278.93 475.61 274.41 479.35 272.21 479.78 270.62 481.2 269.43 483.03 267.82 481.65 266.15 482.41 266.01 483.56 264.03 483.97 262.92 483.78 261.26 484.89 259.87 484.23 257.91 485.67 256.48 484.6 255.24 484.49 254.05 485.03 253.52 487.03 252.51 488.22 250.96 489.02 249.94 490.53 248.66 490.53 247.79 489.57 246.1 489.42 244.95 490.33 243.23 490.05 240.53 490.58 239.52 492.53 240.06 496 238.55 498.23 237.44 498.49 236.54 499.54 233.56 501.88 232.75 501.06 232.22 499.4 232.16 498.73 234.34 493.68 234.28 491.29 232.7 486.51 233.85 482.15 235.79 479.35 236.31 476.79 235.6 475.33 231.54 476.13 231.31 475.88 230.07 469.83 228.79 469.36 228.36 467.93 228.3 466.02 227.78 464.03 228.05 462.8 229.48 462.03 231.15 458 231.83 453.96 233.61 450.74 234.93 449.49 235.85 447.11 237.59 447.31 239.76 446.75 240.54 445.93 242.46 445.33 244.3 444.04 244.23 438.96 244.97 436.69 245.82 435.2 246.91 432.02 247.04 430.98 249.46 429.75 250.74 430 251.76 429.17 252.71 430.5 255.16 430.5 258.41 432.72 259.13 432.71 261.18 434.23 263.45 434.29 267.71 435.01 268.89 434.3 271.55 435.98 272.21 435.72 274.31 437.98 276.39 438.28 277.38 437.01 279.18 436.44 281.17 434.4 282.27 432.78 284.13 430.76 285.46 429.8 286.98 427.73 288.6 428.25 290.22 427.53 292.62 427.78 296.73 425.26 297.73 424.2 298.48 425.5 301.19 427.06 302.86 428.93 303.63 428.49 306.48 428.56 307.87 427.17 308.81 425.54 310.45 423.93 310.26 420.58 308.46 418.73 308.5 417.92 309.9 416.51 310.2 413.56 311.86 413.51 314.75 414.35 316.05 414.21 317.17 412.88 318.19 407.04 318.86 407.23 321.82 406.62 323.26 405.95 325.74 405.92 327.16 407.29 328.37 407.08 328.66 405.54 328.2 404.78 327.98 402.71 330.23 401.08 330.67 398.99 332.2 397.03 334.53 395.73 334.88 394.12 339.3 391.58 341.04 390.99 342.07 389.7 344.64 392.57 346.21 392.64 346.89 394.3 346.53 395.49 347.1 398.27 348.67 401.77 348.84 402.93 350.94 403.51 353.2 405.08 355.1 405.93 356.01 405.32 358.22 405.04 363.62 406.59 365.3 406.05 369.54 405.87 370.05 407.61 373.99 411.09 376.68 412.91 378.24 412.46 379.7 412.83 382.75 415.24 384.48 415.94 385.9 417.31 388.24 418.46 Z" id="35050320"/>
<path d="M 343.6 370.34 342.17 373.5 339.47 376.01 338.85 375.93 337.63 378.11 341.2 382.22 339.62 384.57 338.85 386.31 339.14 387.5 340.65 388.17 342.07 389.7 341.04 390.99 339.3 391.58 334.88 394.12 334.53 395.73 332.2 397.03 330.67 398.99 330.23 401.08 327.98 402.71 328.2 404.78 328.66 405.54 328.37 407.08 327.16 407.29 325.74 405.92 323.26 405.95 321.82 406.62 318.86 407.23 318.19 407.04 317.17 412.88 316.05 414.21 314.75 414.35 311.86 413.51 310.2 413.56 309.9 416.51 308.5 417.92 308.46 418.73 310.26 420.58 310.45 423.93 308.81 425.54 307.87 427.17 306.48 428.56 303.63 428.49 302.86 428.93 301.19 427.06 298.48 425.5 297.73 424.2 296.73 425.26 292.62 427.78 290.22 427.53 288.6 428.25 286.98 427.73 285.46 429.8 284.13 430.76 282.27 432.78 281.17 434.4 279.18 436.44 277.38 437.01 276.39 438.28 274.31 437.98 272.21 435.72 271.55 435.98 268.89 434.3 267.71 435.01 263.45 434.29 261.18 434.23 259.13 432.71 258.41 432.72 255.16 430.5 252.71 430.5 251.76 429.17 250.74 430 249.46 429.75 247.04 430.98 246.91 432.02 245.82 435.2 244.97 436.69 244.23 438.96 244.3 444.04 242.46 445.33 240.54 445.93 239.76 446.75 237.59 447.31 235.85 447.11 234.93 449.49 233.61 450.74 231.83 453.96 231.15 458 229.48 462.03 228.05 462.8 227.78 464.03 228.3 466.02 228.36 467.93 228.79 469.36 230.07 469.83 231.31 475.88 231.54 476.13 235.6 475.33 236.31 476.79 235.79 479.35 233.85 482.15 232.7 486.51 234.28 491.29 234.34 493.68 232.16 498.73 232.22 499.4 231.23 500.85 228.8 505.51 226.68 505.8 224.19 507.17 222.69 507.57 222.31 503.63 220.05 500.85 217.59 499.15 214.85 499.09 213.82 495.71 211.62 491.04 207.53 480.48 207.75 479.62 206.68 478.86 205.35 474.63 205.08 472.52 202.4 463.73 199.83 457.83 199.8 455.17 200.77 446.89 200.87 443.49 201.31 437.49 202.49 427.35 202.97 421.97 202.06 419.39 202.63 414.8 204.67 407.63 206.88 401.7 207.69 401.82 208.64 397.87 209.51 395.78 210.63 394.68 213.6 392.74 213.49 386.43 214.87 385.22 222.33 380.58 228.34 376.44 236.51 371.06 239.15 372.08 241.39 372.31 241.66 371.77 245.34 367.76 251.5 364.6 252.82 362.98 252.65 360.04 253.3 357.45 255.13 358.3 257.33 358.1 264.5 353.62 266.6 352.07 276.44 345.9 281.86 342.15 283.74 341.95 286.59 340.06 293.82 334.5 301.94 331.48 302.32 334.1 304.04 335.8 305.34 335.87 305.96 337.36 305.39 338.57 305.65 343 305.28 345.64 304.21 347.59 304 350.76 304.6 351.73 306.02 352.04 306.09 353.44 307.25 354.18 308.1 355.79 310.3 355.48 313.44 356.65 314.39 356.01 315.36 357.49 316.22 360.08 316.67 362.3 316.28 363.04 312.98 366.16 313.82 368.66 314.64 368.86 316.79 368.03 317.98 369.61 321.22 370.31 322.56 370.96 323.73 373.41 326.5 372.75 327.77 371.54 329.98 370.73 332.89 371.15 334.03 371.75 337.07 369.33 338.84 369.63 342.75 369.26 343.6 370.34 Z" id="35050330"/>
<path d="M 143.79 311.32 144.99 313.21 147.29 314.12 148.51 315.54 148.52 316.67 150.26 318.78 154.29 320 156.1 322.48 158.18 323.93 160.15 324.64 161.82 324.49 162.05 327.9 163.64 329.19 166.85 328.27 166.69 327.37 168.82 326.09 171.72 325.95 173.02 326.18 174.08 328.01 176.25 328.03 180.02 329.2 183.43 332.28 183.99 333.68 186.03 334.01 187.38 334.76 188.39 333.67 190.01 333.19 191.34 334.47 192.65 334.93 193.38 336.15 195.1 337.07 197.18 336.73 197.98 335.41 200.26 334.14 200.16 332.8 199.44 330.71 198.12 329.8 196.87 327.6 198.44 325.93 200.93 327.23 201.91 328.08 202.97 329.87 205.23 330.49 206.82 331.39 208.5 331.63 210.24 332.7 211.97 333.11 215.05 333.03 217 330.46 222.34 329.73 221.97 327.23 223.82 325.67 224.94 322.77 226.22 322.45 229.72 320.34 229.57 319.33 230.51 317.62 231.34 317.79 232.92 320.87 235.8 320.48 237.65 319.73 239.31 320.36 241.63 320.78 247.49 318.96 249.37 318.11 251.04 316.48 252.63 315.68 253.44 314.13 254.62 314.78 255.48 314.19 259.87 314.16 261.35 312.98 264.02 311.69 265.97 312 268.2 312.55 278.09 311.85 277.49 313.66 278.2 317.54 279.15 317.53 280.04 318.67 280.54 320.48 281.8 320.53 282.06 321.81 282.42 329.71 283.51 329.62 282.95 333.22 282.03 334.68 282.45 340.82 281.86 342.15 276.44 345.9 266.6 352.07 264.5 353.62 257.33 358.1 255.13 358.3 253.3 357.45 252.65 360.04 252.82 362.98 251.5 364.6 245.34 367.76 241.66 371.77 241.39 372.31 239.15 372.08 236.51 371.06 228.34 376.44 222.33 380.58 214.87 385.22 213.49 386.43 213.6 392.74 210.63 394.68 209.51 395.78 208.64 397.87 207.69 401.82 206.88 401.7 202.99 401.17 202.88 399.08 203.29 397.09 201.89 396.5 202.53 392.23 205.57 386.3 203.12 384.2 200.95 384.25 200.12 383.18 200.38 381.8 199.41 380.89 199.29 379.76 200.32 377.58 199.73 376.84 200.3 375.27 199.57 373.99 198.1 372.47 196.48 372.35 195.8 371.24 194.3 372.82 192.46 374.19 190.54 374.92 188.96 376.72 189.57 378.7 188.53 380.66 186.12 381.98 185.12 383.06 183.22 383.56 182.7 386.51 182.01 387.33 179.34 388.67 179.58 389.16 171.42 388.97 171.32 390.47 169.37 389.65 168.01 390.54 164.04 387.24 161.28 388.1 158.61 388.52 157.01 387.57 155.07 387.13 151.97 385.45 149.27 383.62 146.66 382.61 143.41 382.28 140.45 383.02 137.26 384.33 135.16 384.69 133.36 384.57 131.73 383.68 128.61 383.31 126.48 383.33 124.48 381.97 123.13 380.57 120.48 379.01 119.27 377.62 119.24 375.23 117.45 372.89 118.03 371 119.68 370.11 120.67 368.85 121.64 366.29 123.27 364.7 125.66 361.09 124.33 359.15 123.91 356.42 124.99 354.54 125.24 353.12 124.03 351.22 125.06 349.79 124.68 348.17 125.57 345.83 126.5 344.41 126.29 343.31 126.51 340.22 127.58 339.26 129.11 336.55 130.45 332.98 131.49 332.79 133.35 331.26 135.4 330.65 136.66 327.02 136.08 326.15 135.63 322.08 134.68 320.65 133.13 319.36 134.73 314.88 136.6 313.89 139.15 311.59 143.79 311.32 Z" id="35050340"/>
<path d="M 343.02 299.87 341.1 302.18 337.85 304.09 333 308.47 329.87 311.79 326.73 314.24 322.54 317.13 321.64 316.27 321.67 313.5 319.69 312.53 320.04 308.37 314.53 308.11 314.72 302.47 324.02 302.84 331.65 303.01 336.44 300.13 338.39 297.76 340.06 295.78 343.02 299.87 Z" id="35050520"/>
<path d="M 359.23 285.24 360.03 287.86 359.91 290.25 361.85 290.8 363.54 290.49 365.07 292.88 367.4 293.48 368.5 292.6 370.06 292.84 371.57 291.89 373.21 290.11 373.76 292.29 374.49 293.21 374.49 294.95 376.12 297.16 373.97 296.82 373.77 297.83 372.51 297.73 370.68 299.03 368.43 302.19 367.43 302.76 363.94 303.29 364.47 304.23 364.4 305.89 365.06 307.87 364.79 308.55 365.76 310.65 365.52 311.75 363.41 314.01 362.73 316.32 361.18 315.91 360.4 318.46 359.45 319.58 357.8 320.14 359.09 322.17 359.14 323.67 359.93 324.84 361.21 324.88 361.43 326.83 362.78 327.63 359.43 329.65 358.47 331.08 357.3 333.85 356.51 334.09 354.79 333.23 352.66 333.11 349.84 331.4 347.5 332.77 346.33 336.66 344.99 337.52 344.53 339.73 345.21 340.58 344.02 342.34 345.11 343.21 344.69 346.48 344.8 347.77 344.15 349.54 344.98 351.34 344.14 354.01 344.64 355.04 344.33 356.09 345.79 359.94 346.26 364.21 345.14 366.91 345.17 368.04 344.51 369.59 343.6 370.34 342.75 369.26 338.84 369.63 337.07 369.33 334.03 371.75 332.89 371.15 329.98 370.73 327.77 371.54 326.5 372.75 323.73 373.41 322.56 370.96 321.22 370.31 317.98 369.61 316.79 368.03 314.64 368.86 313.82 368.66 312.98 366.16 316.28 363.04 316.67 362.3 316.22 360.08 315.36 357.49 314.39 356.01 313.44 356.65 310.3 355.48 308.1 355.79 307.25 354.18 306.09 353.44 306.02 352.04 304.6 351.73 304 350.76 304.21 347.59 305.28 345.64 305.65 343 305.39 338.57 305.96 337.36 305.34 335.87 304.04 335.8 302.32 334.1 301.94 331.48 303.45 330.96 307.44 328.85 309.95 326.17 312.33 322.14 318.13 320.3 322.54 317.13 326.73 314.24 329.87 311.79 333 308.47 337.85 304.09 341.1 302.18 343.02 299.87 343.93 298.55 348.2 293.44 352.78 290.2 354.88 287.3 355.43 287.39 356.52 285.72 359.23 285.24 Z" id="35050540"/>
<path d="M 314.53 308.11 320.04 308.37 319.69 312.53 321.67 313.5 321.64 316.27 322.54 317.13 318.13 320.3 312.33 322.14 309.95 326.17 307.44 328.85 303.45 330.96 301.94 331.48 293.82 334.5 286.59 340.06 283.74 341.95 281.86 342.15 282.45 340.82 282.03 334.68 282.95 333.22 283.51 329.62 284.28 326.27 285.41 324.46 286.51 323.65 290.46 321.57 291.82 320.31 297.28 314.39 299.12 312.98 302.28 311.15 304.25 307.75 306.09 307.93 314.53 308.11 Z" id="35050550"/>
<path d="M 315.25 293.18 314.72 302.47 314.53 308.11 306.09 307.93 304.25 307.75 302.28 311.15 299.12 312.98 297.28 314.39 291.82 320.31 290.46 321.57 286.51 323.65 285.41 324.46 284.28 326.27 283.51 329.62 282.42 329.71 282.06 321.81 281.8 320.53 280.54 320.48 280.04 318.67 279.15 317.53 278.2 317.54 277.49 313.66 278.09 311.85 268.2 312.55 265.97 312 264.83 310.23 261.94 307.87 261.01 305.71 259.94 304.11 258.07 302.88 258.96 300.47 258.68 298.76 255.82 296.38 254.91 296.56 252.88 295.6 249.69 296.96 246.71 297.58 244.75 297.17 245.33 295.21 247.43 293.33 248.8 291.52 247.35 290.77 247.24 289.36 248.8 288.17 249.18 286.89 250.94 286.18 254.36 285.83 259.36 286.71 264.72 286.61 266.04 280.23 268.02 278.56 268.98 277.27 269.47 275.5 270.43 275.06 273.87 272.43 274.8 270.69 276.13 269.59 277.34 269.5 278.37 268.06 281.63 268.95 284.46 272.78 284.72 274 285.7 274.48 288.76 274.28 290.67 274.84 291.13 275.68 292.85 276.45 295.31 278.97 296.53 281.85 296.39 283.9 298.13 285.11 299.07 284.14 301.28 283.3 303.63 284.33 303.95 286.97 303.69 288.34 306.2 290.74 306.59 293.52 305.99 295.29 307.26 296.11 308.08 297.56 312.06 293.18 314.17 291.86 315.25 293.18 Z" id="35050560"/>
<path d="M 382.36 185.31 384.28 190.59 386.01 191.34 387.72 191.33 388.96 192.99 392.22 194.6 393.36 196.02 393.08 197.02 391.81 198.49 391.49 201.28 395.4 203.32 398.25 202.56 400.59 203.18 402.19 203.21 403.93 204.63 407.38 204.95 410.31 205.42 410.28 206.29 410.06 211 410.1 214.01 409.55 216.55 407.6 219.48 404.2 228.35 404.77 232.01 404.05 235.52 402.95 238.46 398.33 243.96 395.61 246.54 395.15 247.35 390.42 249.74 388.8 250.74 386.56 252.62 385.45 253.97 383.83 256.92 382.62 257.03 381.02 259.31 379.64 264.2 378.69 266.72 376.41 269.86 375 270.89 373.22 271.38 370.19 277.43 369.98 278.55 366.15 281.44 367 282.44 363.62 283.88 359.23 285.24 356.52 285.72 355.43 287.39 354.88 287.3 352.78 290.2 348.2 293.44 343.93 298.55 343.02 299.87 340.06 295.78 338.39 297.76 338.24 297.16 334.35 297.27 334 296.77 334.68 294.25 337.22 294.11 338.54 293.14 334.49 287.48 336.57 285.01 336.62 281.23 336.86 280.29 338.97 278.26 340.97 275.93 342.48 272.53 340.32 272.4 339.51 270.17 338.38 269.64 339.63 266.74 338.96 259.94 337.86 257.88 338.93 255.78 339.92 254.96 340.71 251.52 341.69 250.71 343.41 247.98 345.05 246.66 344.26 245.51 343.15 242.1 343.75 239.94 343.61 238.99 342.33 235.76 341.93 234.17 340.41 232.49 340.79 231.05 340.01 229.1 339.58 226.79 340.75 225.33 340.82 224.27 342.91 222.34 342.47 219.62 344.35 216.62 344.9 214.98 347.9 214.52 350.25 213.6 352.28 211.97 355.62 211.14 355.72 210.05 353.87 207.74 353.6 206.05 352.58 205.66 351.16 202.91 352.04 198.06 354.08 195.35 354.29 194.18 355.37 193.55 356.05 192.34 357.01 192.94 358.7 192.57 359.4 192.88 360.32 191.71 362.29 190.59 365.91 187.89 367.1 188.47 367.99 187.52 369.2 187.1 370.21 186.03 371.65 185.71 372.55 184.75 376.09 185.97 376.76 186.65 378.54 187.22 380.38 186.57 382.36 185.31 Z" id="35050590"/>
<path d="M 149.77 280.02 150.4 281.35 153.29 284.7 152.35 287.23 153.1 288.59 152.49 289.29 152.06 291.05 151.35 291.99 149.67 293.14 146.05 294.14 144.28 293.88 142.86 295.07 140.99 295.63 141.69 297.3 141.49 299.2 141.8 300.36 141.5 302.36 141.6 304.09 143.47 306.63 144.63 306.96 145.27 309.11 143.79 311.32 139.15 311.59 136.6 313.89 134.73 314.88 133.13 319.36 134.68 320.65 135.63 322.08 136.08 326.15 136.66 327.02 135.4 330.65 133.35 331.26 131.49 332.79 130.45 332.98 129.11 336.55 127.58 339.26 126.51 340.22 126.29 343.31 126.5 344.41 125.57 345.83 124.68 348.17 125.06 349.79 124.03 351.22 125.24 353.12 124.99 354.54 123.91 356.42 124.33 359.15 125.66 361.09 123.27 364.7 121.64 366.29 120.67 368.85 119.68 370.11 118.03 371 117.45 372.89 115.83 374.06 113.82 377.03 112 378.12 110.04 378.51 109.9 380.55 107.89 381.65 107.26 382.91 105.62 384.32 104.54 386.52 105.54 388.75 105.12 390.8 105.3 396.5 105.84 398.39 104.75 399.39 106.9 402.45 105.03 405.68 103.66 409.18 107.29 412.71 109.26 415.94 111.84 417.04 115.74 423.59 114.96 426.42 115.48 429.23 114.89 430.35 113.84 435.5 113.9 438.88 114.36 443.26 115.04 445.46 117.05 446.82 118.85 450.98 115.32 452.9 113.14 456.4 112.83 459.37 114.28 462.7 112.46 464.08 110.63 467.06 111.2 469.74 110.41 471.43 110.32 475.1 112.19 479.56 112.91 480.77 113.45 482.97 113.55 484.79 110.8 486.37 110.2 484.45 104.19 478.84 100.18 476.42 98.15 475.2 94.11 470.8 90.36 465.56 88.92 464.37 85.21 462.52 83.99 461.13 82.52 457.83 82.21 455.85 79.91 453.81 79.09 453.55 74.09 453.07 70.12 453.22 66.9 452.02 63.21 451.31 61.15 451.46 58.59 453.93 55 458.84 53.76 461.36 52.71 465.05 53.02 466.57 52.85 472.18 51.74 475.59 48.54 483.9 48.04 486.22 47.37 487.24 45.37 488.83 43.21 489.77 38.9 490.02 34.24 489.82 28.5 488.49 25.75 487.66 24.75 486.52 23.73 484.34 22.03 482.4 17.26 480.02 15.04 479.34 7.26 475.9 7.87 474.79 5.68 473.39 2.41 468.89 1 461.4 1.51 456.76 2.39 454.15 4.77 450.66 5.64 448.79 7.32 447.51 11.33 446.5 16.29 444.96 18.35 443.49 17.91 441.67 16.96 440.99 10.56 438.04 7.32 437.61 6.16 436.32 7.32 429.26 7.7 423.75 9.48 419.9 12.14 416.59 13.42 414.31 15.86 408.62 17.91 408.33 20.79 406.6 20.98 405.98 25.34 406.6 27.16 406.11 28.64 408.4 30.02 407.42 31.74 405.39 32.7 403.3 33.79 402.91 33.9 401.18 34.66 399.82 35.99 398.83 37.56 398.72 37.8 396.76 38.53 395.8 38.8 393.77 40.79 392.16 41.44 390.12 46.76 385.66 47.9 385.51 48.96 384.57 50.19 384.52 51.53 382.72 51.13 381.84 54.13 378.29 51.5 376.87 50.37 377.09 50.03 375.67 46.33 375.29 49.21 372.51 50.67 370.11 49.44 368.32 52.05 364.71 52.58 363.26 53.67 361.81 55 359.07 57.3 355.09 57.4 354.46 59.09 351.85 59.75 350.17 59.51 348.84 60.9 345.59 62.06 344.68 62.74 342.65 63.4 338.49 65.11 335.36 67.11 328.37 67.96 326.38 69.47 324.22 72.16 323.73 75.75 324.48 77.48 325.24 78.45 325.11 81.11 326.73 82.34 325.39 85.31 323.62 85.88 322.17 87.57 321.56 90.26 323.41 93.37 323.8 94.5 323.56 99.03 324.96 101.77 325.13 102.32 324.16 103.73 323.35 104.19 318.46 105.55 315.34 105.62 314.27 106.43 313.07 106.5 311.42 107.55 310.3 107.97 308.48 107.95 306.57 109.42 303.93 107.45 302.7 107.83 301.33 108.84 300.16 108.54 298.61 108.78 296.21 109.91 292.22 110.39 289.79 111.51 287.19 112.55 285.6 114.7 285.03 115.85 284.35 116.6 280.53 120.41 279.5 121.11 275.28 120.54 274.11 121.89 273.33 122.28 271.54 124.84 268 126.92 268.77 129.08 269.05 129.79 269.86 133.83 271.73 135.13 272.91 136.78 273.65 139.29 275.25 139.93 276.09 143.87 277.36 145.52 278.24 146.99 280.08 149.77 280.02 Z" id="35050360"/>
<path d="M 270.59 221.45 270.98 223.1 270.66 225.05 269.58 226.86 269.37 230.68 269.72 232.45 269.33 233.17 270.46 234.08 269.98 235.84 270.95 238.09 271.02 239.59 270.32 241.73 270.15 243.35 268.75 244.25 269.13 247.34 268.4 248.54 268.41 249.89 269.7 251.13 271.24 252 270.84 254.08 270.96 257.19 274.62 260.68 273.27 262.29 274.91 263.61 275.56 265.52 275.6 267.19 276.13 269.59 274.8 270.69 273.87 272.43 270.43 275.06 269.47 275.5 268.98 277.27 268.02 278.56 266.04 280.23 264.72 286.61 259.36 286.71 254.36 285.83 250.94 286.18 249.18 286.89 248.8 288.17 247.24 289.36 247.35 290.77 248.8 291.52 247.43 293.33 245.33 295.21 244.75 297.17 246.71 297.58 249.69 296.96 252.88 295.6 254.91 296.56 255.82 296.38 258.68 298.76 258.96 300.47 258.07 302.88 259.94 304.11 261.01 305.71 261.94 307.87 264.83 310.23 265.97 312 264.02 311.69 261.35 312.98 259.87 314.16 255.48 314.19 254.62 314.78 253.44 314.13 252.63 315.68 251.04 316.48 249.37 318.11 247.49 318.96 241.63 320.78 239.31 320.36 237.65 319.73 235.8 320.48 232.92 320.87 231.34 317.79 230.51 317.62 229.57 319.33 229.72 320.34 226.22 322.45 224.94 322.77 223.82 325.67 221.97 327.23 222.34 329.73 217 330.46 215.05 333.03 211.97 333.11 210.24 332.7 208.5 331.63 206.82 331.39 205.23 330.49 202.97 329.87 201.91 328.08 200.93 327.23 198.44 325.93 196.87 327.6 198.12 329.8 199.44 330.71 200.16 332.8 200.26 334.14 197.98 335.41 197.18 336.73 195.1 337.07 193.38 336.15 192.65 334.93 191.34 334.47 190.01 333.19 188.39 333.67 187.38 334.76 186.03 334.01 183.99 333.68 183.43 332.28 180.02 329.2 176.25 328.03 174.08 328.01 173.02 326.18 171.72 325.95 168.82 326.09 166.69 327.37 166.85 328.27 163.64 329.19 162.05 327.9 161.82 324.49 160.15 324.64 158.18 323.93 156.1 322.48 154.29 320 150.26 318.78 148.52 316.67 148.51 315.54 147.29 314.12 144.99 313.21 143.79 311.32 145.27 309.11 144.63 306.96 143.47 306.63 141.6 304.09 141.5 302.36 141.8 300.36 141.49 299.2 141.69 297.3 140.99 295.63 142.86 295.07 144.28 293.88 146.05 294.14 149.67 293.14 151.35 291.99 152.06 291.05 152.49 289.29 153.1 288.59 152.35 287.23 153.29 284.7 150.4 281.35 149.77 280.02 151.32 277.48 152.32 275.33 152.85 273.36 154.48 272.32 155.68 273.12 161.04 272.59 162.89 272.84 164.6 273.77 167.35 272.49 170.41 272.78 172.22 270.35 175.25 269.62 176.09 268.79 179.75 261.89 181.51 260.02 181.97 258.19 184.06 255.04 184.37 251.52 185.33 250.56 185.51 247.02 184.59 245.9 184.09 242.3 185.29 240.82 185.09 240.06 186.13 238.37 185.56 237.44 186.17 236.29 185.95 234.98 186.8 233.62 186.3 232.49 189.62 229.9 190.08 228.18 192.33 223.91 195.21 221.2 195.7 220.44 200.17 216.29 200.27 214.38 202.79 211.06 202.16 208.77 203.79 204.95 205.1 204.03 205.27 201.69 206.86 200.27 207.8 197.89 207.53 196.05 209.57 196.25 212 194.7 214.3 195.57 214.84 196.22 218.04 198.72 219.01 199 220.67 198.2 223.5 198.96 224.65 198.86 226.28 200.56 228.08 203.34 229.68 203.87 233.17 206.61 237.6 207.03 238.5 207.96 241.01 205.43 243.57 205.69 245.64 204.92 247.65 204.74 250.77 202.8 252.29 204.13 253.34 204.24 253.93 205.35 255.36 205.3 256.6 205.86 259.14 207.91 261.59 211.41 263.74 212.08 264.1 213.06 263.97 215.03 265.22 217.05 265.25 218.78 266.34 219.24 268.4 218.08 269.92 221.12 270.59 221.45 Z" id="35050370"/>
<path d="M 337.59 147.71 336.86 148.74 337.26 149.82 336.22 152.6 336.07 155.43 336.83 157.25 336.57 157.94 338.53 162.5 338.61 163.61 340.56 164.27 341.32 164.96 343.19 165.63 344.98 167.96 344.44 168.98 344.8 170.64 345.86 172.09 346.25 173.41 345.42 175.89 345.71 176.83 344.09 178.04 343.54 179.45 344.16 180.85 344.16 182.04 345.05 183.84 347.2 184.48 347.49 185.96 346.5 186.14 342.93 188.05 341.66 188.11 339.57 194.1 339.22 195.85 338 196.5 337.2 198.57 333.91 200.64 332.18 200.83 330.99 201.62 329.57 201.34 328.52 200.29 327.73 196.84 326.59 194.54 324.2 194.62 321.6 192.94 317.43 191.32 316.37 191.41 315.14 192.45 314.42 194.39 312.88 196.84 312.3 198.85 310.49 201.26 308.09 202.43 306.12 202.91 303.95 202.28 301.26 202.02 300.14 201.48 297.71 202.66 296.63 203.68 292.4 204.58 291.01 206.31 290.67 208.7 288.45 209.08 284.82 210.92 285.37 211.65 284.5 213.61 282.1 213.32 280.49 214.34 278.34 214.58 277.3 215.32 276.5 217.06 276.86 218.79 274.45 219.55 272.52 221 270.59 221.45 269.92 221.12 268.4 218.08 266.34 219.24 265.25 218.78 265.22 217.05 263.97 215.03 264.1 213.06 263.74 212.08 261.59 211.41 259.14 207.91 256.6 205.86 255.36 205.3 253.93 205.35 253.34 204.24 252.29 204.13 250.77 202.8 247.65 204.74 245.64 204.92 243.57 205.69 241.01 205.43 238.5 207.96 237.6 207.03 233.17 206.61 229.68 203.87 228.08 203.34 226.28 200.56 224.65 198.86 223.5 198.96 220.67 198.2 219.01 199 218.04 198.72 214.84 196.22 214.3 195.57 212 194.7 212.25 191.98 212.79 189.67 209.95 185.23 207.7 183.51 206.97 179.38 206.04 178.75 206.68 177.1 206.17 175.66 206.56 172.78 206.22 170.1 204.51 168.3 203.55 166.45 202.63 162.68 201.13 161.03 201.33 159.45 202.66 157.65 202.79 154.85 201.03 154.1 201.46 152.88 200.92 151.8 201.62 149.26 202.41 147.06 202.12 144.47 204.93 142.3 204.7 140.98 206.58 134.23 208.12 131.16 209.12 130.35 212.09 129.02 212.71 129.97 216.22 131.58 218.48 132.1 219.96 135.12 221.35 135.48 223.31 134.1 228.3 131.68 230.14 130.95 232.59 131.52 234.73 132.92 238.98 136.4 240.17 137.01 240.22 137.96 244.16 138.5 246.65 136.86 247.03 135.99 248.47 135.02 250.91 134.25 252.74 134.44 255.32 132.39 255.59 130.86 257.23 129.09 259.52 129.55 261.67 128.97 265.7 129.39 266.93 128.23 269.33 127.9 270.59 128.79 273.06 128.46 275.99 126.9 275.77 125.66 276.75 124.71 276.93 122.84 278.87 120.62 280.93 122.36 281.23 120.57 282.12 120.33 281.78 118.58 281.02 117.42 280.58 112.89 279.07 111.08 282.17 111 287.9 109.86 291.88 109.74 294.38 110.43 303.35 113.61 305.55 115.92 305.64 117.96 307.08 120.35 308.43 120.75 309.93 120.13 311.07 120.31 312.78 122.03 314.37 122.76 315.7 125.15 317.25 125.2 321.16 127.42 321.74 128.88 323.37 129.43 324.74 128.73 326.4 128.97 327.41 129.78 329.51 130.54 329.77 131.83 331.32 133.86 332.07 134.3 331.82 140.24 332.91 143.51 334.17 144.5 334.81 145.96 337.59 147.71 Z" id="35050380"/>
<path d="M 292.54 6.36 294.24 7.48 294.03 8.61 295.71 9.19 295.48 9.86 297.24 10.45 299.87 12.26 300.73 11.59 303.39 14.48 302.38 15.4 303.29 16.62 305.32 16.95 308.1 19.55 309.07 19.6 309.3 21.76 311.44 22.25 313.32 23.92 314.64 25.56 315.99 26.1 319.16 27.98 324.19 29.42 325.87 30.36 325.92 32.87 324.54 35.62 324.65 37.82 326.8 40.72 327.34 43.03 326.56 44.69 325.48 46 325.23 47.6 323.72 49.04 323.36 51.07 320.43 51.37 319.5 52.26 318.43 52.39 317.97 54.84 316.19 56.57 315.03 58.6 315.25 60.58 318.13 66.74 318.83 69.09 320.75 70.28 321.25 71.4 322.72 72.82 324.6 73.11 326.46 74.4 327.64 73.39 329.11 73.09 330.54 71.94 332.61 72.6 333.64 72.28 335.67 73.34 338.16 72.23 338.74 71.04 341.33 71.36 340.68 73.92 339.85 74.6 340.1 76.63 339.64 77.22 341.28 81.4 340.69 83.31 345.86 84.18 345.35 87.28 346.26 87.5 349.33 86.53 351.39 86.81 354.1 86.04 354.2 86.85 351.79 88.77 349.9 89.2 348.9 90.4 347.72 91.04 348.09 93.02 347.29 96.97 348.71 97.33 349.42 98.32 352.31 99.42 355.86 100.08 359.09 100.18 361.01 99.63 361.5 102.66 364.28 102.98 365.05 106.23 364.7 106.83 362.52 107.03 360.65 109.59 359.81 110.24 358.36 110.22 357.6 112.47 356.07 113.78 355.3 115.17 355.77 117.11 354.51 118.21 354.17 119.87 353.24 121.77 351.94 122.52 352 123.31 349.36 124.52 349.59 127.72 348.43 128.1 347.1 126.86 345.32 127.32 342.82 129.62 343.82 131.03 342.71 133.42 342.78 134.18 341.56 136.59 341.44 137.98 340.72 139.09 341.44 140.83 342.46 141.43 341.53 144.11 339.89 145.71 338.4 146.6 337.59 147.71 334.81 145.96 334.17 144.5 332.91 143.51 331.82 140.24 332.07 134.3 331.32 133.86 329.77 131.83 329.51 130.54 327.41 129.78 326.4 128.97 324.74 128.73 323.37 129.43 321.74 128.88 321.16 127.42 317.25 125.2 315.7 125.15 314.37 122.76 312.78 122.03 311.07 120.31 309.93 120.13 308.43 120.75 307.08 120.35 305.64 117.96 305.55 115.92 303.35 113.61 294.38 110.43 291.88 109.74 287.9 109.86 282.17 111 279.07 111.08 279.13 108.67 278.36 106.82 278.8 104.87 278.5 100.89 277.06 98.82 276.75 96.33 275.13 95.28 273.33 92.83 272.21 92.38 269.82 90.13 266.79 87.59 264.6 87.14 263.44 85.96 261.78 82.99 259.21 81.98 258.24 80.45 254.48 75.96 253.26 74.09 251.03 72.28 250.49 71.23 250.59 67.07 252.44 67.05 254.64 67.64 255.38 70.73 258.38 70.77 260.38 69.68 260.76 69.04 263.1 68.13 263.07 65.86 265.56 62.55 265.25 58.83 266.46 57.15 266.09 54.45 267.88 52.67 267.94 51.89 270.68 51.67 270.52 48.01 269.97 47.64 269.85 42.42 268.72 41.73 267.97 40.6 267.47 38.48 266.2 38.04 265.25 36.86 263.56 37.89 262 37.35 260.37 37.63 258.12 36.53 257.2 35.58 255.44 35.48 254.52 33.9 253.59 33.91 252.5 32.65 252.8 31.99 251.54 29.82 249.58 29.46 248.1 27.54 245.07 27.86 244.85 22.8 244.37 20.39 245.36 17.46 246.49 15.74 247.87 14.6 250.49 13.75 252.14 13.86 254.22 14.88 256.18 16.34 258.89 19.46 259.56 20.66 261.08 21.04 263.18 20.93 266.64 20.08 270.64 19.76 274.35 17.61 279.47 11.36 281.57 8.38 284.16 6.03 284.67 5.18 285.92 5.11 287.05 6.04 287.58 7.72 288.91 8.71 290.32 8.48 292.54 6.36 Z" id="35050390"/>
<path d="M 334 296.77 334.35 297.27 338.24 297.16 338.39 297.76 336.44 300.13 331.65 303.01 324.02 302.84 314.72 302.47 315.25 293.18 316.74 292.96 320.78 292.94 330.33 293.24 330.22 297.16 333.68 297.21 334 296.77 Z" id="35050510"/>
<path d="M 206.88 401.7 204.67 407.63 202.63 414.8 202.06 419.39 202.97 421.97 202.49 427.35 201.31 437.49 200.87 443.49 200.77 446.89 199.8 455.17 199.83 457.83 202.4 463.73 205.08 472.52 205.35 474.63 206.68 478.86 207.75 479.62 207.53 480.48 211.62 491.04 213.82 495.71 214.85 499.09 217.59 499.15 220.05 500.85 222.31 503.63 222.69 507.57 216.97 507.97 214.24 508.31 212.23 509.75 208.8 510.98 206.66 511.33 202.12 511.35 200.48 511.17 198.03 509.85 195.71 507.57 188.54 501.28 186.73 500.86 182.61 498.72 177.76 495.5 175.72 493.82 170.37 492.96 168.79 492.54 159.82 492.89 156.07 492.92 144.96 494.57 141.88 494.56 138.85 494.17 137.36 493.55 134.46 493.25 131.68 493.95 129.54 494.9 127.87 496.22 125.59 496.26 120.59 495.77 117.87 494.31 113.97 491.72 113.32 490.95 110.8 486.37 113.55 484.79 113.45 482.97 112.91 480.77 112.19 479.56 110.32 475.1 110.41 471.43 111.2 469.74 110.63 467.06 112.46 464.08 114.28 462.7 112.83 459.37 113.14 456.4 115.32 452.9 118.85 450.98 117.05 446.82 115.04 445.46 114.36 443.26 113.9 438.88 113.84 435.5 114.89 430.35 115.48 429.23 114.96 426.42 115.74 423.59 111.84 417.04 109.26 415.94 107.29 412.71 103.66 409.18 105.03 405.68 106.9 402.45 104.75 399.39 105.84 398.39 105.3 396.5 105.12 390.8 105.54 388.75 104.54 386.52 105.62 384.32 107.26 382.91 107.89 381.65 109.9 380.55 110.04 378.51 112 378.12 113.82 377.03 115.83 374.06 117.45 372.89 119.24 375.23 119.27 377.62 120.48 379.01 123.13 380.57 124.48 381.97 126.48 383.33 128.61 383.31 131.73 383.68 133.36 384.57 135.16 384.69 137.26 384.33 140.45 383.02 143.41 382.28 146.66 382.61 149.27 383.62 151.97 385.45 155.07 387.13 157.01 387.57 158.61 388.52 161.28 388.1 164.04 387.24 168.01 390.54 169.37 389.65 171.32 390.47 171.42 388.97 179.58 389.16 179.34 388.67 182.01 387.33 182.7 386.51 183.22 383.56 185.12 383.06 186.12 381.98 188.53 380.66 189.57 378.7 188.96 376.72 190.54 374.92 192.46 374.19 194.3 372.82 195.8 371.24 196.48 372.35 198.1 372.47 199.57 373.99 200.3 375.27 199.73 376.84 200.32 377.58 199.29 379.76 199.41 380.89 200.38 381.8 200.12 383.18 200.95 384.25 203.12 384.2 205.57 386.3 202.53 392.23 201.89 396.5 203.29 397.09 202.88 399.08 202.99 401.17 206.88 401.7 Z" id="35050350"/>
<path d="M 417.11 18.96 417.37 19.76 417.71 24 418.85 27.82 420.51 28.42 421.39 30.18 426.28 31.21 428.5 32.36 428.93 33.57 430.23 35.47 432.25 36.93 434.9 38.34 436.8 41.23 437.68 41.91 435.19 48.73 433.97 50.41 433.45 53.54 432.59 54.86 431.46 58.43 432.96 62.38 432.75 63.13 432.49 69.14 433.49 71.17 432.52 72.13 430.4 72.75 429.65 73.56 427.69 74.43 426.15 76.5 426.07 79.46 425.51 81.75 423.77 83.91 423.33 85.62 422.49 87.13 424.89 93.58 424.84 96.43 425.62 101.18 425.55 106.35 424.39 110.37 425.56 111.81 429.95 116.29 429.07 120.27 429.35 121.88 429.03 123.56 423.46 126 421.81 125.87 419.69 128.77 417.77 128.68 416.58 129.84 415.28 132.63 413.29 132.96 412.76 134.47 411.75 135.16 411.81 137.43 410.29 139.95 408.8 141.63 408.44 144.88 406.95 147.19 406.6 148.6 405.51 150.48 406.6 151.3 405.9 154.77 406.14 156.54 405.11 156.57 404.31 158.18 402.83 160.03 401.92 160.01 400.22 161.19 398.21 161.45 395.64 163.17 392.43 163.26 391.5 163.84 391.19 165.94 388.47 170.72 385.75 173.9 386.24 174.83 385.66 175.97 384.85 179.07 385.12 180 384.74 183.61 384.24 184.6 382.36 185.31 380.38 186.57 378.54 187.22 376.76 186.65 376.09 185.97 372.55 184.75 371.65 185.71 370.21 186.03 369.2 187.1 367.99 187.52 367.1 188.47 365.91 187.89 362.29 190.59 360.32 191.71 359.4 192.88 358.7 192.57 357.01 192.94 356.05 192.34 355.37 193.55 354.29 194.18 354.08 195.35 352.04 198.06 350.95 197.04 350.77 195.62 349.26 194.17 349.34 193.3 348.41 191.76 348.62 190.82 347.41 188.3 347.49 185.96 347.2 184.48 345.05 183.84 344.16 182.04 344.16 180.85 343.54 179.45 344.09 178.04 345.71 176.83 345.42 175.89 346.25 173.41 345.86 172.09 344.8 170.64 344.44 168.98 344.98 167.96 343.19 165.63 341.32 164.96 340.56 164.27 338.61 163.61 338.53 162.5 336.57 157.94 336.83 157.25 336.07 155.43 336.22 152.6 337.26 149.82 336.86 148.74 337.59 147.71 338.4 146.6 339.89 145.71 341.53 144.11 342.46 141.43 341.44 140.83 340.72 139.09 341.44 137.98 341.56 136.59 342.78 134.18 342.71 133.42 343.82 131.03 342.82 129.62 345.32 127.32 347.1 126.86 348.43 128.1 349.59 127.72 349.36 124.52 352 123.31 351.94 122.52 353.24 121.77 354.17 119.87 354.51 118.21 355.77 117.11 355.3 115.17 356.07 113.78 357.6 112.47 358.36 110.22 359.81 110.24 360.65 109.59 362.52 107.03 364.7 106.83 365.05 106.23 364.28 102.98 361.5 102.66 361.01 99.63 359.09 100.18 355.86 100.08 352.31 99.42 349.42 98.32 348.71 97.33 347.29 96.97 348.09 93.02 347.72 91.04 348.9 90.4 349.9 89.2 351.79 88.77 354.2 86.85 354.1 86.04 351.39 86.81 349.33 86.53 346.26 87.5 345.35 87.28 345.86 84.18 340.69 83.31 341.28 81.4 339.64 77.22 340.1 76.63 339.85 74.6 340.68 73.92 341.33 71.36 338.74 71.04 338.16 72.23 335.67 73.34 333.64 72.28 332.61 72.6 330.54 71.94 329.11 73.09 327.64 73.39 326.46 74.4 324.6 73.11 322.72 72.82 321.25 71.4 320.75 70.28 318.83 69.09 318.13 66.74 315.25 60.58 315.03 58.6 316.19 56.57 317.97 54.84 318.43 52.39 319.5 52.26 320.43 51.37 323.36 51.07 323.72 49.04 325.23 47.6 325.48 46 326.56 44.69 327.34 43.03 326.8 40.72 324.65 37.82 324.54 35.62 325.92 32.87 325.87 30.36 328.8 29.57 330.45 28.12 331.27 28.08 334.36 29.03 334.85 28.76 337.79 30.93 340.31 28 340.92 28.41 342.78 27.4 344.89 27.25 346.59 25.88 348.7 28.38 350.51 28.33 352.73 27.43 354.3 26 356.04 25.78 355.92 24.76 354.85 24.16 354.02 21.85 352.73 21.23 351.98 19.85 350.32 19.41 350.34 18.63 348.64 17.3 350.25 16.3 352.02 16.5 353.89 15.28 354.02 14.25 355.43 10.79 356.1 10.29 356.75 8.53 358.67 7.13 359.6 5.5 359.81 3.6 360.73 2.47 362.14 1.91 365 2.87 366.94 2.4 367.68 1.19 369.61 1 373.13 1.79 375.45 4.11 375.86 5.46 377.8 7.58 379.97 9.19 380.75 10.43 382.18 11.31 382.99 13.68 384.17 14.57 384.11 16.52 386.74 18.01 390.21 20.37 390.98 21.45 392.78 21.66 396.3 21.25 401.13 21.67 403.43 22.15 406.09 21.96 410.43 20.65 413.16 20.29 414.62 19.59 417.11 18.96 Z" id="35050400"/>
<path d="M 334 296.77 333.68 297.21 330.22 297.16 330.33 293.24 320.78 292.94 316.74 292.96 315.25 293.18 314.17 291.86 312.06 293.18 308.08 297.56 307.26 296.11 305.99 295.29 306.59 293.52 306.2 290.74 303.69 288.34 303.95 286.97 303.63 284.33 301.28 283.3 299.07 284.14 298.13 285.11 296.39 283.9 296.53 281.85 295.31 278.97 292.85 276.45 291.13 275.68 290.67 274.84 288.76 274.28 285.7 274.48 284.72 274 284.46 272.78 281.63 268.95 278.37 268.06 277.34 269.5 276.13 269.59 275.6 267.19 275.56 265.52 274.91 263.61 273.27 262.29 274.62 260.68 270.96 257.19 270.84 254.08 271.24 252 269.7 251.13 268.41 249.89 268.4 248.54 269.13 247.34 268.75 244.25 270.15 243.35 270.32 241.73 271.02 239.59 270.95 238.09 269.98 235.84 270.46 234.08 269.33 233.17 269.72 232.45 269.37 230.68 269.58 226.86 270.66 225.05 270.98 223.1 270.59 221.45 272.52 221 274.45 219.55 276.86 218.79 276.5 217.06 277.3 215.32 278.34 214.58 280.49 214.34 282.1 213.32 284.5 213.61 285.37 211.65 284.82 210.92 288.45 209.08 290.67 208.7 291.01 206.31 292.4 204.58 296.63 203.68 297.71 202.66 300.14 201.48 301.26 202.02 303.95 202.28 306.12 202.91 308.09 202.43 310.49 201.26 312.3 198.85 312.88 196.84 314.42 194.39 315.14 192.45 316.37 191.41 317.43 191.32 321.6 192.94 324.2 194.62 326.59 194.54 327.73 196.84 328.52 200.29 329.57 201.34 330.99 201.62 332.18 200.83 333.91 200.64 337.2 198.57 338 196.5 339.22 195.85 339.57 194.1 341.66 188.11 342.93 188.05 346.5 186.14 347.49 185.96 347.41 188.3 348.62 190.82 348.41 191.76 349.34 193.3 349.26 194.17 350.77 195.62 350.95 197.04 352.04 198.06 351.16 202.91 352.58 205.66 353.6 206.05 353.87 207.74 355.72 210.05 355.62 211.14 352.28 211.97 350.25 213.6 347.9 214.52 344.9 214.98 344.35 216.62 342.47 219.62 342.91 222.34 340.82 224.27 340.75 225.33 339.58 226.79 340.01 229.1 340.79 231.05 340.41 232.49 341.93 234.17 342.33 235.76 343.61 238.99 343.75 239.94 343.15 242.1 344.26 245.51 345.05 246.66 343.41 247.98 341.69 250.71 340.71 251.52 339.92 254.96 338.93 255.78 337.86 257.88 338.96 259.94 339.63 266.74 338.38 269.64 339.51 270.17 340.32 272.4 342.48 272.53 340.97 275.93 338.97 278.26 336.86 280.29 336.62 281.23 336.57 285.01 334.49 287.48 338.54 293.14 337.22 294.11 334.68 294.25 334 296.77 Z" id="35050570"/>
</g>
</svg>