<?xml version="1.0"?>
<svg xmlns="http://www.w3.org/2000/svg" version="1.2" baseProfile="tiny" width="800" height="408" viewBox="0 0 800 408" stroke-linecap="round" stroke-linejoin="round">
<g id="dong">
<path d="M 495.8 93.85 494.44 96.05 493.34 98.63 493.27 99.94 492.74 100.85 493.07 101.71 493 103.91 492.11 104.17 492.08 105.29 492.7 106.41 494.59 108.22 497.01 109.41 498.52 109.92 500.27 109.47 501.91 109.62 501.56 112.02 505.22 112.14 505.6 108.1 506.6 107.62 507.64 108.67 508.36 108.83 507.45 111.26 507.04 113.99 505.32 117.24 504.39 120.58 501.42 122.95 501.09 123.67 498.05 125.15 494.37 126.16 492.63 126.15 490.19 124.69 488.72 125.05 485.24 126.29 484.12 127.25 482.44 128.23 481.08 128.33 480.34 128.77 476.71 129.42 475.78 129.61 472.53 131.74 470.42 132.48 468.76 132.82 465.89 133.77 463.52 133.87 461.98 133 461.45 133.26 459.73 132.63 459.94 130.65 461.26 128.2 459.4 126.72 458.73 127.1 457.63 125.76 456.98 123.28 455.47 123.1 455.4 121.94 454.37 121.56 453.03 122.26 451.85 124.27 451.34 124.12 451.92 122.16 450.46 122.07 450.4 121.51 452.28 120.33 452.71 118.35 448.39 117.49 447.17 118.31 446.18 117.5 445.52 118.67 443.52 120.82 443.23 118.94 442.38 115.9 442.75 112.02 441.96 109.57 440.91 108.13 440.26 106.65 439.98 105 438.61 103.67 437.95 102.55 436.53 101.84 435.18 99.76 432.71 98.76 428.85 98.13 427.09 98.14 428.45 96.27 429.63 95.73 424.86 90.91 425.28 90.39 427.56 90.03 427.01 85.75 428.18 85.39 426.03 83.24 427.87 81.47 428.81 79.29 428.66 76.37 428.97 75.9 427.34 73.68 424.98 70.87 424.18 70.66 421.11 68.15 416.91 66.99 409.63 65.27 409.63 36.33 418.54 33.24 424.18 31.36 435.23 27.35 446 23.32 449.5 27.43 453.27 30.83 455.45 31.83 456.24 31.93 457.05 30.58 462.18 32.8 460.85 36.08 458.36 36.18 458.63 38.22 458.25 38.99 459.56 40.06 459.37 41.61 459.59 43.41 460 43.61 461.43 42.64 463.05 42.74 463.89 44.71 465.31 45.23 463.52 48.04 462.01 49.79 460.92 50.47 459.29 52.42 458.42 54.39 458.37 55.77 460.03 58.61 464.6 62.12 467.29 64.68 469.14 65.17 471.1 66.8 470.78 69.4 470.43 69.94 469.67 73.29 470.2 73.83 470.3 75.5 469.95 77.03 470.16 78.19 471.3 78.99 471.27 79.8 469.48 79.79 468.79 79.19 468.92 84.91 471.68 84.84 472.67 85.6 476.05 90.08 481.17 86.21 481.6 86.24 481.23 88.67 482.87 91.09 483.77 91.62 484.72 90.49 485.49 90.62 487.06 92.4 490.27 93.43 494.88 93.65 495.8 93.85 Z" id="35060110"/>
<path d="M 487.38 257.21 487.37 259.7 487.09 261.29 486.55 262.22 485.18 263.37 483.05 264.04 482.51 265.29 481.58 265.51 479.05 264.61 477.93 264.67 477.86 263.64 477.32 262.95 474.14 261.84 471.88 268.29 471.05 269.14 471.18 270.24 470.21 273.01 468.68 272.44 468.4 273.24 469.96 273.88 468.56 277.84 468.12 278.24 465.12 277.59 465.75 275.74 462.72 274.77 460.95 274.58 460.42 276.07 457.18 275.37 457.66 274.04 451.53 271.9 450.8 273.97 447.3 273.22 445.83 273.42 443.83 282.6 442.58 281.96 435.43 285.21 436.39 287.17 435.26 287.66 434.49 289.91 435.44 291.98 433.28 292.98 433.91 294.33 431.21 295.66 430.17 295.52 430.1 293.87 430.41 291.46 430.23 290.94 431.98 290.12 431.37 288.8 431.9 288.56 431.26 287.18 431.78 286.94 431.13 285.54 431.65 285.29 431.01 283.89 431.53 283.65 430.85 282.18 431.91 281.69 430.62 278.89 426.7 280.72 424.18 281.21 420.39 283.34 417.41 280.38 418.86 277.55 418.61 275.77 416.63 274.1 416.37 271.73 416.62 266.28 416.27 265.96 409.64 268.63 399.53 268.62 399.5 263.51 395.09 260.08 393.26 254.28 391.62 248.46 389.63 242.65 387.82 238.13 387.65 236.83 386.1 231.01 384.02 224.84 382.74 221.94 373.27 196.11 380.54 194.48 387.82 193.01 395.09 191.74 404.03 190.3 406.55 188.9 410.28 189.82 410.98 189.1 414.77 190.08 416.2 190.92 417.37 190.22 420.17 190.69 420.58 191.8 422.25 191.43 422.13 190.45 424.88 189.69 425.3 188.97 426.4 190.35 428.91 190.02 429.51 189.27 431.45 189.41 434.48 188.35 435.97 187.28 437.48 187.59 438.72 186.73 440.36 186.8 442.42 186.01 444.99 185.79 446.42 184.52 447.52 184.74 448.22 185.63 449.17 188.37 450.12 190.29 452.17 195.23 452.02 195.57 466.15 194.98 466.36 199.98 467.97 202.27 471.86 208.97 474.35 211.58 476.13 213.07 476.28 213.53 476.18 220.01 480.95 219.96 481.6 220.61 483.18 221.07 484.03 222.46 484.11 224.09 486.95 224.05 487.35 222.8 489.16 223.33 491.2 226.4 490.79 227.78 489.75 229.3 486.28 230.91 484.5 232.39 483.07 232.81 482.9 233.61 483.56 234.51 483.53 235.49 484.69 237.61 481.33 236.89 480.32 241.71 481.97 242.1 481.04 246.65 481.27 247.47 479.66 248.01 478.08 255.4 473.2 254.28 473.29 255.85 477 256.39 478.39 257.29 479.81 257.03 481.35 257.31 483.25 256.86 485.86 257.39 487.38 257.21 Z" id="35060310"/>
<path d="M 607.06 98.92 605.12 103.04 600.95 112.21 601.02 114.17 600.12 126.57 598.59 126.66 598.49 127.56 595.93 129.69 593.75 130.81 591.38 132.57 590.13 134.3 587.31 137.15 585.13 138.38 582.98 137.39 581.43 137.16 580.17 136.65 577.53 136.1 574.49 135.67 572.4 135.2 569 135.5 567.58 135.12 563.72 133.72 563.26 132.79 563.16 131.15 561.98 130.58 561.13 127.27 559.67 126.38 559.36 125.34 558.36 123.56 558.76 123.2 558.49 121.74 557.33 121.4 555.54 124.52 553.43 126.37 552.79 128.54 553.02 130.56 552.32 133.39 552.29 134.77 548.39 134.93 545.41 134.13 545.27 135.58 545.85 136.83 544.8 139.21 544.07 141.63 544.3 143.88 544.13 145.17 543.5 146.64 540.64 148.08 539.99 148.61 538.97 148.24 536.86 148.94 535.99 148.02 535.01 149.31 534.29 149.69 533.74 150.78 531.08 152.45 529.37 152.65 528.07 153.1 529.4 159.31 527.51 160.73 525.69 160.86 524.41 161.54 523.06 160.47 518.79 160.35 517.77 159.62 513.85 158.46 513.82 157.37 513.12 156.34 510.22 155.44 506.62 149.38 503.42 151.68 500.16 155.39 498.78 157.41 498.25 157.52 497.44 159.35 497.15 161.21 496.79 161.56 496.61 163.7 495.47 164.58 494.25 163.35 491.11 163.24 489.4 164.7 488.95 166.44 488.01 165.7 486.92 166.03 486.69 159.97 487.78 157.9 488.24 156.42 488.16 152.97 487.08 150.86 484.73 148.1 484.21 146.69 483.23 145.32 483.43 142.58 484.37 140.57 483.83 138.65 482.14 136.86 479.78 133.37 477.6 130.96 476.71 129.42 480.34 128.77 481.08 128.33 482.44 128.23 484.12 127.25 485.24 126.29 488.72 125.05 490.19 124.69 492.63 126.15 494.37 126.16 498.05 125.15 501.09 123.67 501.42 122.95 504.39 120.58 505.32 117.24 507.04 113.99 507.45 111.26 508.36 108.83 507.64 108.67 506.6 107.62 505.6 108.1 505.22 112.14 501.56 112.02 501.91 109.62 500.27 109.47 498.52 109.92 497.01 109.41 494.59 108.22 492.7 106.41 492.08 105.29 492.11 104.17 493 103.91 493.07 101.71 492.74 100.85 493.27 99.94 493.34 98.63 494.44 96.05 495.8 93.85 496.89 93.78 499.11 92.37 500.23 90.58 501.79 89.06 502.85 86.66 503.56 86.11 505.79 85.16 506.78 84.14 510.67 83.91 514.58 83 517.52 81.79 519.73 80.36 522.89 79.62 523.53 79.27 528.85 79.58 530.51 79.51 531.01 78.85 530.48 77.23 530.51 75.62 529.62 73.97 528.67 72.85 528.71 72.1 529.5 71.48 529.14 70.46 530.78 68.17 530.97 67.35 531.92 68.18 532.55 69.28 534.07 70.3 535.02 71.65 535.94 72.42 537.56 73.02 539.33 72.92 541.36 74.28 542.68 74.59 544.14 74.26 548.64 74.13 551.25 72.85 555.64 73.35 556.11 74.55 555.48 76.99 555.96 78.61 556.14 80.22 557.17 82.15 558.3 82.71 558.93 84.4 558.7 86.27 557.69 89.57 557 90.13 555.57 93.96 554.97 96.77 555.35 97.91 555.98 98.09 558.56 100.13 561.3 100.35 563.15 100.76 564.47 100.63 566.42 99.35 567.69 99.14 569.39 97.44 570.13 96.3 571.09 95.63 572.46 97.08 574.44 97.11 576.68 97.62 577.96 98.82 579.41 99.19 581.9 98.68 582.75 99.21 585.9 99.61 586.35 99.05 587.91 98.61 588.16 99.77 589.37 99.98 590.02 99.16 591.15 99.12 592.76 98.39 594.72 98.69 597.35 98.12 599.06 98.6 600.24 98.19 602.99 98.33 607.06 98.92 Z" id="35060320"/>
<path d="M 693.69 69.43 694.7 69.4 694.79 72.06 694.68 76.24 694.39 80.14 694.81 81.37 694.09 82.38 694.19 83.44 693.44 83.55 693.36 84.57 692.83 90.96 693.32 92.44 696.06 98.01 696.01 101.22 695.76 101.85 697.47 115.69 695.83 115.89 696.05 117.25 694.79 118.55 693.03 120.9 690.52 123 689.95 125.21 689.23 125.6 687 128.51 686.4 131.14 686.67 134.66 685.4 137.48 683.81 140.04 681.37 142.12 680.22 143.63 679.17 144.48 678.56 145.79 680.2 149.64 681.27 153.92 682.19 156.38 682.36 158.25 682.74 159.36 682.2 161.57 679.8 163.34 673.71 166.74 669.54 167.09 667.48 166.95 663.51 167.26 659.08 166.7 654.21 166.92 650.85 166.34 647.61 165.63 645.99 165.62 642.15 165.98 640.92 165.7 637.24 163.9 636.24 163.82 631.52 164.37 626.58 163.52 622.14 161.21 620.04 160.34 617.56 159.55 616.06 159.31 612.39 160.12 612.52 158.59 612.16 156.9 611.14 154.96 610.05 154.27 608.27 151.81 605.32 149.89 602.69 147.39 599.78 147.04 598.79 146.64 600.22 145.37 601.57 143.78 602.57 141.63 603.01 139.04 602.68 126.69 602.23 126.44 600.12 126.57 601.02 114.17 600.95 112.21 605.12 103.04 607.06 98.92 607.44 97.94 607.89 94.98 605.45 89.01 603.33 85.87 601.75 84.51 600.07 83.44 599.7 82.46 600.27 81.03 607.98 82.18 608.21 80.65 607.62 80.39 614.22 78.79 614.78 79.69 616.98 79.33 616.74 77.83 622.38 76.93 623 74.74 622.84 73.54 623.86 70.58 625.89 68.64 626.81 68.17 628.12 66.76 628.88 65.02 629.83 63.51 631.17 62.52 633.77 62.8 636.1 64.73 637.79 65.43 638.82 66.66 639.26 68.45 640.96 69.41 642.03 70.44 642.75 70.6 644.34 72.33 644.76 73.9 645.76 76.03 645.93 77.9 645.72 79.09 645.93 82.11 646.22 83.59 647.4 85.7 649.3 87.14 655.75 86.76 656.9 85.66 657.94 85.59 659.42 85.97 662.93 84.49 666.13 84.11 669.58 82.95 671.91 82.47 673.87 81.62 676.01 80.23 679.56 80.22 680.63 79.89 682.81 79.67 684.17 79.96 685.7 79.61 686.19 78.63 687.84 78.47 687.95 77.36 689.44 75.48 691.05 75.72 691.18 74.07 693.13 74.28 693.89 70.87 693.69 69.43 Z" id="35060330"/>
<path d="M 671.5 40 671.84 41.33 672.81 42.52 676.52 43 678.71 43.07 680.36 43.91 681.1 44.6 681.26 45.62 680.04 47.11 677.41 47.83 676.03 48.73 675.94 50.77 676.58 53.87 677.75 55.93 678.72 56.35 680.22 56.22 682.1 55.25 684.16 56.12 684.22 57 683.7 57.95 683.96 58.8 685.2 58.76 687.44 61.13 688.98 61.34 689.09 62.91 690.46 63.51 691.81 65.61 691.63 68.13 693.26 68.57 693.69 69.43 693.89 70.87 693.13 74.28 691.18 74.07 691.05 75.72 689.44 75.48 687.95 77.36 687.84 78.47 686.19 78.63 685.7 79.61 684.17 79.96 682.81 79.67 680.63 79.89 679.56 80.22 676.01 80.23 673.87 81.62 671.91 82.47 669.58 82.95 666.13 84.11 662.93 84.49 659.42 85.97 657.94 85.59 656.9 85.66 655.75 86.76 649.3 87.14 647.4 85.7 646.22 83.59 645.93 82.11 645.72 79.09 645.93 77.9 645.76 76.03 644.76 73.9 644.34 72.33 642.75 70.6 642.03 70.44 640.96 69.41 639.26 68.45 638.82 66.66 637.79 65.43 636.1 64.73 633.77 62.8 631.17 62.52 629.83 63.51 628.88 65.02 628.12 66.76 626.81 68.17 625.89 68.64 623.86 70.58 622.84 73.54 623 74.74 622.38 76.93 616.74 77.83 616.98 79.33 614.78 79.69 614.22 78.79 607.62 80.39 608.21 80.65 607.98 82.18 600.27 81.03 601.71 79.72 604.35 73.86 604.03 73.14 605.47 69.58 603.92 65.39 603.7 64.24 602.46 62.32 602.26 61.28 600.67 60.28 600.97 59.26 598.86 55.14 598.31 55.26 598.19 52.52 596.68 52.05 597.31 51.02 598.73 50.28 598.33 48.66 601.73 47.82 601.01 44.9 597.82 45.62 598.61 42.87 598.41 36.71 599.21 33.44 597.89 32 596.43 30.8 594.58 30.71 593.01 29.41 591.87 28.07 590.82 26.4 590.97 24.51 591.94 21.61 591.45 20.63 587.93 19.86 586.42 19.79 584.17 17.96 582.68 17.31 589.93 13.9 595.47 12.29 595.42 10.84 595.69 7.18 595.82 6.02 599.53 6.46 604.28 9.25 605.73 9.06 608.77 9.6 612.69 11.19 616.62 13.79 617.99 14.68 620.54 15.92 622.24 15.62 622.71 15.09 622.64 12.72 621.91 9.98 621.81 8.65 622.38 7.22 626.12 3.25 627.2 3.03 628.01 4.26 627.95 9.81 628.06 15.8 629.79 18.46 632.08 21.41 634.29 24.98 635.08 26.5 638.29 28.6 639.35 28.98 642.63 28.73 647.32 29.38 647.72 29.96 647.81 32.17 648.85 33.24 649.63 34.8 651.64 34.91 653 33.24 656.9 31.17 664.17 33.24 669.66 35.15 671.17 36.37 671.5 40 Z" id="35060340"/>
<path d="M 518.06 257.91 517.49 259.44 517.49 261.29 519.08 261.79 519.04 264.21 520.56 264.23 520.51 267.73 522.07 267.75 525.02 268.45 525.06 269.62 526.56 269.64 526.61 271.39 528.06 271.41 528.02 274.25 529.97 274.28 529.8 282.2 529.48 282.28 529.41 285.65 527.89 285.63 527.83 288.17 525.03 292.25 523.76 293.29 522.67 294.79 519.36 297.92 519.48 298.94 518.52 299.42 517.95 300.84 517.08 300.73 516.47 301.33 513.55 302.85 510.28 307.86 509.85 307.11 508.78 307.06 506.42 307.8 502.17 307.66 500.69 307.35 499.52 307.94 499.02 308.65 496.7 309.79 495.08 309.99 493.27 309.66 490.43 309.9 488.82 309.31 487.41 308.19 485.84 307.29 484.49 306.85 483.33 307.14 482.65 308.05 480.04 309.83 478.76 309.1 477.84 309.27 474 311.9 470.69 314.63 469.09 315.46 461.79 319.99 458.44 321.62 459.87 324.32 460.93 325.06 459.85 326.29 461.03 327.33 459.1 329.5 457.86 328.41 458.24 327.98 457.17 327.03 456.77 327.44 455.59 326.4 455.83 328.18 454.82 329.9 453.27 331.57 452.23 331.81 451.68 331.32 450.81 328.77 451.3 325.09 450.5 324.89 447.7 325.9 446.85 326.6 446.7 328.04 445.99 328.67 443.43 327.4 440.39 327.38 438.9 326.96 438.21 325.77 437.9 322.78 438.35 321.87 442.09 320.87 443.2 320.29 443.18 319.2 442.39 316.74 443.48 315.51 443.09 314.02 445.3 313 444.7 311.7 445.62 311.26 444.28 308.36 441.22 309.87 441.85 311.3 440.74 311.82 441.34 313.14 437.73 315.04 436.55 314.86 436.2 314.06 436.62 312.45 438.3 309.41 440.44 308.41 439.83 307.09 440.36 306.84 439.71 305.44 436.9 306.63 436.39 305.97 433.34 308.42 431.54 309.36 431.75 309.86 428 309.56 428.15 307.92 428.59 306.46 429.41 306.53 431.45 303.96 432.59 303.42 433.9 302.37 433.57 300.81 431.45 300.36 430.37 299.29 430.17 295.52 431.21 295.66 433.91 294.33 433.28 292.98 435.44 291.98 434.49 289.91 435.26 287.66 436.39 287.17 435.43 285.21 442.58 281.96 443.83 282.6 445.83 273.42 447.3 273.22 450.8 273.97 451.53 271.9 457.66 274.04 457.18 275.37 460.42 276.07 460.95 274.58 462.72 274.77 465.75 275.74 465.12 277.59 468.12 278.24 468.56 277.84 469.96 273.88 468.4 273.24 468.68 272.44 470.21 273.01 471.18 270.24 471.05 269.14 471.88 268.29 474.14 261.84 477.32 262.95 477.86 263.64 477.93 264.67 479.05 264.61 481.58 265.51 482.51 265.29 483.05 264.04 485.18 263.37 486.55 262.22 487.09 261.29 487.37 259.7 487.38 257.21 489.81 257 491.35 256.48 492.75 257.03 495.65 255.9 498.8 255.93 500.11 255.23 501.86 253.79 503.86 254.02 505.06 254.97 508.11 256.18 509.2 256.95 510.56 257.04 513.59 257.59 514.99 257.16 516.23 257.45 517.11 258.14 518.06 257.91 Z" id="35060350"/>
<path d="M 489.86 2.29 490.24 8.76 490.91 11.9 492.09 14.09 496.9 18.2 498.41 19.2 502.17 20.46 505.13 19.33 508.53 16.24 509.82 15.43 516.61 12.11 518.22 11.01 525.03 9.76 532.07 8.35 534.4 10.11 536.67 9.63 540.55 9.98 541.32 7.99 542.57 6.94 544.27 6.81 545.69 7.42 547.81 9.97 565.32 24.22 566.7 24.59 568.35 24.51 569.63 24.12 572.05 22.74 573.17 21.14 576.9 19.12 579.16 17.71 581.87 16.95 582.68 17.31 584.17 17.96 586.42 19.79 587.93 19.86 591.45 20.63 591.94 21.61 590.97 24.51 590.82 26.4 591.87 28.07 593.01 29.41 594.58 30.71 596.43 30.8 597.89 32 599.21 33.44 598.41 36.71 598.61 42.87 597.82 45.62 601.01 44.9 601.73 47.82 598.33 48.66 598.73 50.28 597.31 51.02 596.68 52.05 598.19 52.52 598.31 55.26 598.86 55.14 600.97 59.26 600.67 60.28 602.26 61.28 602.46 62.32 603.7 64.24 603.92 65.39 605.47 69.58 604.03 73.14 604.35 73.86 601.71 79.72 600.27 81.03 599.7 82.46 600.07 83.44 601.75 84.51 603.33 85.87 605.45 89.01 607.89 94.98 607.44 97.94 607.06 98.92 602.99 98.33 600.24 98.19 599.06 98.6 597.35 98.12 594.72 98.69 592.76 98.39 591.15 99.12 590.02 99.16 589.37 99.98 588.16 99.77 587.91 98.61 586.35 99.05 585.9 99.61 582.75 99.21 581.9 98.68 579.41 99.19 577.96 98.82 576.68 97.62 574.44 97.11 572.46 97.08 571.09 95.63 570.13 96.3 569.39 97.44 567.69 99.14 566.42 99.35 564.47 100.63 563.15 100.76 561.3 100.35 558.56 100.13 555.98 98.09 555.35 97.91 554.97 96.77 555.57 93.96 557 90.13 557.69 89.57 558.7 86.27 558.93 84.4 558.3 82.71 557.17 82.15 556.14 80.22 555.96 78.61 555.48 76.99 556.11 74.55 555.64 73.35 551.25 72.85 548.64 74.13 544.14 74.26 542.68 74.59 541.36 74.28 539.33 72.92 537.56 73.02 535.94 72.42 535.02 71.65 534.07 70.3 532.55 69.28 531.92 68.18 530.97 67.35 530.54 65.61 529.46 65.32 526.54 63.8 522.78 64.53 521.58 63.28 516.62 64.21 515.83 64.8 513.99 65.51 512.63 63.41 512.78 62.31 511.94 62.02 511.14 61.1 511.29 58.92 510.12 57.56 511.14 55.93 514.48 53.47 510.29 52.55 512.98 40.44 513.49 37.88 513.84 37.15 513.95 28.62 518.74 28.62 518.84 20.13 515.62 21.59 515.67 16.33 511.45 19.07 507.75 21.61 504.17 22.67 501.68 21.61 496.9 18.38 493.8 15.79 489.63 12.49 486.7 9.98 485 4.16 482.99 1.15 485.91 1 489.86 2.29 Z" id="35060360"/>
<path d="M 530.97 67.35 530.78 68.17 529.14 70.46 529.5 71.48 528.71 72.1 528.67 72.85 529.62 73.97 530.51 75.62 530.48 77.23 531.01 78.85 530.51 79.51 528.85 79.58 523.53 79.27 522.89 79.62 519.73 80.36 517.52 81.79 514.58 83 510.67 83.91 506.78 84.14 505.79 85.16 503.56 86.11 502.85 86.66 501.79 89.06 500.23 90.58 499.11 92.37 496.89 93.78 495.8 93.85 494.88 93.65 490.27 93.43 487.06 92.4 485.49 90.62 484.72 90.49 483.77 91.62 482.87 91.09 481.23 88.67 481.6 86.24 481.17 86.21 476.05 90.08 472.67 85.6 471.68 84.84 468.92 84.91 468.79 79.19 469.48 79.79 471.27 79.8 471.3 78.99 470.16 78.19 469.95 77.03 470.3 75.5 470.2 73.83 469.67 73.29 470.43 69.94 470.78 69.4 471.1 66.8 469.14 65.17 467.29 64.68 464.6 62.12 460.03 58.61 458.37 55.77 458.42 54.39 459.29 52.42 460.92 50.47 462.01 49.79 463.52 48.04 465.31 45.23 463.89 44.71 463.05 42.74 461.43 42.64 460 43.61 459.59 43.41 459.37 41.61 459.56 40.06 458.25 38.99 458.63 38.22 458.36 36.18 460.85 36.08 462.18 32.8 457.05 30.58 456.24 31.93 455.45 31.83 453.27 30.83 449.5 27.43 446 23.32 453.27 21.61 456.75 20.07 463.99 15.8 471.89 9.98 475.08 4.64 478.23 1.99 479.08 1.04 482.99 1.15 485 4.16 486.7 9.98 489.63 12.49 493.8 15.79 496.9 18.38 501.68 21.61 504.17 22.67 507.75 21.61 511.45 19.07 515.67 16.33 515.62 21.59 518.84 20.13 518.74 28.62 513.95 28.62 513.84 37.15 513.49 37.88 512.98 40.44 510.29 52.55 514.48 53.47 511.14 55.93 510.12 57.56 511.29 58.92 511.14 61.1 511.94 62.02 512.78 62.31 512.63 63.41 513.99 65.51 515.83 64.8 516.62 64.21 521.58 63.28 522.78 64.53 526.54 63.8 529.46 65.32 530.54 65.61 530.97 67.35 Z" id="35060370"/>
<path d="M 476.71 129.42 477.6 130.96 479.78 133.37 482.14 136.86 483.83 138.65 484.37 140.57 483.43 142.58 483.23 145.32 484.21 146.69 484.73 148.1 487.08 150.86 488.16 152.97 488.24 156.42 487.78 157.9 486.69 159.97 486.92 166.03 483.23 166.87 480.39 167.2 477.59 168.03 476.41 168.98 475.09 170.8 474.22 171.53 473.23 171.75 472.63 172.57 470.96 173.44 470.1 175.31 468.57 176.36 466.92 176.98 465.28 178.04 463.69 179.41 463.26 179.24 461.45 180.93 459.66 181.15 457.82 183.03 455.72 183.07 454.47 183.35 452.81 182.97 452.09 183.53 447.52 184.74 446.42 184.52 444.99 185.79 442.42 186.01 440.36 186.8 438.72 186.73 437.48 187.59 435.97 187.28 434.48 188.35 431.45 189.41 429.51 189.27 428.91 190.02 426.4 190.35 425.3 188.97 424.88 189.69 422.13 190.45 422.25 191.43 420.58 191.8 420.17 190.69 417.37 190.22 416.2 190.92 414.77 190.08 410.98 189.1 410.28 189.82 406.55 188.9 404.03 190.3 395.09 191.74 387.82 193.01 380.54 194.48 373.27 196.11 376.95 184.48 377.05 183.52 376.67 176.49 387.55 175.86 389.06 175.52 390.54 174.66 391.48 173.66 394.7 168.97 395.22 167.72 397.33 166.29 397.77 163.45 397.33 161.74 397.48 159.09 397.72 158.04 399.59 154.35 401.17 147.67 403.54 148.45 405.33 148.41 405.24 147.23 404.3 146.44 405.09 141.31 407.69 141.71 409.21 141.5 409.49 143.56 411.42 144.07 412.36 143.74 414.61 141.01 415.64 140.29 416.71 140.85 417.63 140.54 418.95 141.35 419.09 140.51 418.51 139.55 418.86 138.58 419.84 138.55 420.08 137.46 420.92 137.65 420.92 139.38 420.23 140.26 421.27 140.81 420.53 142.26 421.24 143.79 422.49 143.87 423.08 145.57 424.22 145.72 425.04 144.69 427.31 144.03 429.83 141.62 432.3 138.47 433.61 137.22 434.32 135.88 436.4 134.28 437.23 133.31 438.23 131.37 441.75 127.77 442.48 126.38 443.14 124.17 443.52 120.82 445.52 118.67 446.18 117.5 447.17 118.31 448.39 117.49 452.71 118.35 452.28 120.33 450.4 121.51 450.46 122.07 451.92 122.16 451.34 124.12 451.85 124.27 453.03 122.26 454.37 121.56 455.4 121.94 455.47 123.1 456.98 123.28 457.63 125.76 458.73 127.1 459.4 126.72 461.26 128.2 459.94 130.65 459.73 132.63 461.45 133.26 461.98 133 463.52 133.87 465.89 133.77 468.76 132.82 470.42 132.48 472.53 131.74 475.78 129.61 476.71 129.42 Z" id="35060380"/>
<path d="M 59.19 298.21 57.6 300.3 56.34 299 55.28 300.52 54.4 300.81 53.6 299.75 54.94 297.85 53.5 296.49 51.99 294.39 42.19 268.85 40.27 263.7 35.02 250.04 34.19 248.22 31.85 241.85 30.33 238.19 25.83 226.06 23.59 220.15 23.42 219.97 17.23 203.85 15.57 199.2 14.48 196.72 10.07 184.83 5.31 172.4 4.03 169.96 2.7 170.95 1.7 169.69 1 169.44 1.13 168.25 3.62 167.07 4.01 166.07 4.34 164.79 6.53 164.85 7.67 164.97 9.06 164.02 9.84 163.35 10.31 164.3 9.1 165.22 8.02 165.56 5.8 167.41 7.8 170.62 8.37 172.43 11.85 181.55 11.75 181.83 14.88 190.09 15.95 190.14 19.06 198.51 18.6 199.78 23.43 212.48 32.08 235.03 33.25 238.19 36.74 247.16 40.99 258.41 41.37 258.79 47.57 275.06 47.93 276.52 50.92 284.25 53 289.95 54.31 290.37 57.1 292.59 58.39 297.58 59.19 298.21 Z M 256.39 121.85 255.45 120.97 255.55 119.29 255.96 118.99 257.42 119.74 257.59 121.14 256.39 121.85 Z M 409.63 65.27 416.91 66.99 421.11 68.15 424.18 70.66 424.98 70.87 427.34 73.68 428.97 75.9 428.66 76.37 428.81 79.29 427.87 81.47 426.03 83.24 428.18 85.39 427.01 85.75 427.56 90.03 425.28 90.39 424.86 90.91 429.63 95.73 428.45 96.27 427.09 98.14 428.85 98.13 432.71 98.76 435.18 99.76 436.53 101.84 437.95 102.55 438.61 103.67 439.98 105 440.26 106.65 440.91 108.13 441.96 109.57 442.75 112.02 442.38 115.9 443.23 118.94 443.52 120.82 443.14 124.17 442.48 126.38 441.75 127.77 438.23 131.37 437.23 133.31 436.4 134.28 434.32 135.88 433.61 137.22 432.3 138.47 429.83 141.62 427.31 144.03 425.04 144.69 424.22 145.72 423.08 145.57 422.49 143.87 421.24 143.79 420.53 142.26 421.27 140.81 420.23 140.26 420.92 139.38 420.92 137.65 420.08 137.46 419.84 138.55 418.86 138.58 418.51 139.55 419.09 140.51 418.95 141.35 417.63 140.54 416.71 140.85 415.64 140.29 414.61 141.01 412.36 143.74 411.42 144.07 409.49 143.56 409.21 141.5 407.69 141.71 405.09 141.31 404.3 146.44 405.24 147.23 405.33 148.41 403.54 148.45 401.17 147.67 399.59 154.35 397.72 158.04 391.53 150.39 389.62 148.13 387.82 145.71 383.99 141.63 383.02 140.37 379.06 134.43 377.91 132.5 375.88 129.69 371.64 123.2 372.68 121.49 372.65 120.16 371.1 117.31 369.11 115.93 368.69 116.12 366.16 114.69 364.73 114.2 361.24 119.75 354.69 115.71 355.26 114.84 353.35 114.48 353.52 115.14 352.44 116.06 350.21 116.23 348.61 116.01 346.58 116.17 345.52 115.26 342.87 115.13 342.04 114.76 339.33 115.2 332.78 114.83 330.75 114.89 328.62 115.7 321.96 118.57 316.56 125.02 314.17 126.32 313.18 126.66 312.13 126.31 306.51 121.8 305.53 121.32 301.18 120.49 300.55 120.24 295.68 115.15 293.27 115.19 287.16 115.6 286 116.68 281.98 121.26 278.73 122.36 277.43 123.48 275.93 122.71 268.97 122.6 268.13 114.68 266.96 108.86 265.95 103.05 264.18 94.84 259.98 77.64 278.73 76.03 286 75.03 293.27 73.97 300.54 72.28 307.82 71.66 310.5 71.51 312.75 71.14 366 62.33 373.27 66.02 380.54 68.15 409.63 65.27 Z" fill-rule="evenodd" id="35060390"/>
<path d="M 770.52 205.6 770.53 206.33 771.98 206.92 771.42 207.79 769.69 209.57 770.46 211.4 769.9 213 772.61 213.49 773.61 214.56 774.32 214.75 775.17 217.45 776.56 217.99 778.12 219.06 778.71 220.26 778.49 221.76 779.82 223.5 780.11 224.95 779.98 227.75 781.33 228.5 781.87 230.01 782.57 230.35 781.96 231.37 781.57 233.37 780.51 234.01 779.82 233.43 778.92 233.93 777.9 233.41 776.96 234.8 774.25 237.23 773.56 237.13 772.63 238.44 771.05 238.99 769.3 240.08 770.54 243.29 769.39 244.47 767.82 245.34 767.11 245.2 765.42 246.83 764.48 247.03 763.13 246.73 761.07 247.17 759.68 248.63 759.01 248.75 757.24 248.24 755.31 249.53 754.41 253.4 752.51 256.29 751.94 259.76 751.28 261.45 751.26 262.68 747.86 261.88 745.83 262.16 744.9 263.8 744.12 264.05 743.55 265.37 742.06 267.26 741.74 268.65 740.12 268.94 739.6 269.77 737.95 270.88 737.23 272.19 735.77 273.47 734.5 275.11 733.56 275.68 730.06 276.23 728.96 278.6 725.93 277.86 722.65 275.48 720.99 275.59 715.88 275.61 714.58 276.74 714.21 275.89 712.68 275.51 710.86 274.72 709.92 272.18 709.25 271.12 709.41 269.6 708.95 267.36 706.03 265.31 704.77 265.55 701.59 264.84 699.85 263.32 699.36 262.57 697.89 261.72 693.07 261.18 691.56 261.46 689.81 262.47 685.69 261.68 684.8 260.51 682.48 259.24 682.95 257.86 680.96 256.78 678.66 257.22 677.46 256.77 676.38 257.12 674.91 256.58 674.05 257.66 672.6 258.7 671.12 259.3 668.96 255.28 663.3 258.41 662.74 257.33 663.65 255.02 664.56 254.46 665.52 251.41 667.44 250.65 669.08 248.98 668.22 245.21 667.42 244.3 665.99 245.32 664.57 247.19 663.35 248.43 661.38 249.38 660.45 248.23 658.6 243.46 657.34 243.99 656.88 242.68 657.54 242.41 657.9 240.45 658.61 239.31 658.86 237.52 658.69 236.15 658.87 233.94 658.19 233.29 657.39 231.64 657.4 228.6 656.62 227.46 656.42 226.23 656.98 223.76 657.26 220.91 655.96 214.99 659.15 213.85 662.76 212.35 664.16 212.09 663.16 210.28 662.2 207.67 661.11 206.18 661.89 203.31 661.95 201.68 663.18 198.32 663.13 196.25 661.7 196.13 664.04 190.22 646.71 183.39 647.68 180.95 647.94 176.32 644.64 176.07 643.53 175.36 641.95 173.54 637.27 173.19 637.31 172.61 635.79 172.5 635.87 171.34 632.79 171.1 633.07 167.4 632.24 166.64 631.52 164.37 636.24 163.82 637.24 163.9 640.92 165.7 642.15 165.98 645.99 165.62 647.61 165.63 650.85 166.34 654.21 166.92 659.08 166.7 663.51 167.26 667.48 166.95 669.54 167.09 673.71 166.74 679.8 163.34 682.2 161.57 681.98 163.65 682.5 166.56 684.51 169.77 687.1 172.68 688.72 173.47 690.52 175.32 692.39 177.71 693.83 178.75 695.06 179.23 697.75 179.59 699.99 181.63 701.93 184.48 703.32 185.29 706.77 186.4 706.78 187.77 708.55 188.79 710.05 190.23 710.11 191.17 712.59 191.93 713.81 191.64 715.08 191.79 715.51 191.1 717.22 191.08 718.77 190.32 720.94 188.7 721.25 187.6 722.22 186.76 723 187.95 723.39 189.3 725.39 189.93 726.52 191.25 727.72 191.49 728.06 193.51 729.37 194.24 730.72 194.49 734.07 195.49 734.64 194.28 736.5 192.94 737.69 193.03 738.25 193.59 741.16 193.74 741.55 194.5 740.65 195.99 740.97 197.37 739.99 198.36 744.17 199.41 748.13 199.19 749.59 199.5 751.44 200.84 752.49 201.12 754.37 202.84 755.96 203.52 757.91 204.82 760.12 205.02 761.81 203.41 763.47 203.92 764.63 203.9 765.49 203.26 767.79 203.88 770.52 205.6 Z" id="35060400"/>
<path d="M 751.26 262.68 751.47 263.2 753.35 263.87 755.31 265.39 756.78 265.04 759.02 266.97 759.76 267.03 760.48 267.88 761.71 268.27 762.98 267.74 764.59 267.71 765.57 267.02 768.09 266.72 769.64 267.97 769.52 269.68 770.22 270.73 771.3 271.24 771.77 272.29 772.66 272.77 774.54 272.99 775.29 273.78 776.63 274.38 777.55 275.78 777.46 277.58 778.08 281.03 777.51 284.35 778.34 286.64 779.52 286.67 782.74 289.02 784.37 290.41 786.7 292.09 788.32 293.71 789.04 294.99 791.39 297.73 792.17 303.24 794.19 304.9 796.97 306.26 798.36 308.41 799 310.29 798.77 311.83 795.03 315.94 793.32 316.36 792.27 317.94 790.68 317.36 788.23 317.64 784.98 319 783.12 320.32 781.6 322.41 780.93 323.7 779.24 324.34 778.53 325.63 777.86 328.39 777.99 330.31 776.85 331.6 776.93 332.4 778.03 334.36 775.32 334.58 773.52 335.87 773.64 336.68 772.95 337.6 772.09 337.88 771.67 339.75 769.95 341.3 767.83 342.4 766.87 344.01 765.92 344.43 764.97 347.89 763.82 349.54 766.4 350.54 767.66 353.98 769.16 356.82 770.77 357.28 772.38 359.75 773.19 359.91 775.11 361.15 775.45 362.38 775.21 363.04 775.66 364.22 775.63 367.62 775.82 368.69 775.16 370.4 774.35 370.79 774.1 371.84 773.17 372.35 772.82 374.03 772.97 374.85 772.48 376.42 771.7 377.69 771.42 379.41 770.12 380.72 770.19 382.02 769.16 383.7 769.51 384.07 768.84 385.41 769.12 386.16 768.94 388.78 767.92 390.35 767.65 393.37 767.02 394.31 766.13 396.66 765.96 398.04 764.79 400.3 762.99 399.97 761.24 400.33 759.68 401.34 758.72 402.85 756.99 402.59 756.11 401.72 753.14 401.49 753.01 400.68 751.92 400.14 749.19 400.37 749.07 401.32 747.55 402.25 747.76 403.42 747.32 404.44 745.58 404.62 743.89 403.99 741.25 404.47 740.47 405.6 740.51 406.33 739.66 406.96 738.42 406.18 735.23 405.89 734.6 405.24 733.59 405.17 732.89 404.47 730.7 403.78 729.09 406.09 726.46 406.42 725.38 407 724.61 406.45 722.65 406.55 720.53 404.36 719.9 403.1 716.37 403.52 714.22 401.6 713.61 401.72 711.54 398.23 709.88 396.74 709.7 395.95 707.85 393.14 706.4 390.66 704.22 389.41 702.79 389.61 700.92 388.35 700 389.08 698.59 388.47 697.97 386.93 698.34 385.26 696.67 384.88 696.09 385.44 694.47 385.31 692.9 384.46 691.08 384.65 691.36 381.89 690.53 380.95 690.34 380.09 688.97 378.81 688 377.2 688.43 375.42 687.7 374.78 685.78 375.24 685.21 375.84 683.81 375.72 682.74 374.24 680.74 373.72 679.55 374.03 678.84 373.71 678.01 371.97 677.79 370.71 677.05 369.59 675.82 369.37 674.45 370.03 673.4 368.72 673.83 367.41 674.81 366.2 674.14 364.24 675.32 362.22 674.49 360.42 674.24 359.01 675.37 357.51 675.75 356.41 675.38 354.64 675.76 353.43 674.78 351.16 674.66 349.83 673.75 349.31 672.04 349.41 671.17 348.63 670.99 347.32 671.58 346.43 671.4 344.05 670.04 342.51 667.74 341.97 667.1 341.5 664.88 336.81 664.18 336.05 661.77 334.17 659.98 332.4 659.81 331.5 660.87 331.01 660.24 328.98 659.26 328.59 655.25 325.5 652.33 324.71 650.99 323.87 651.17 322.65 650.73 320.65 652.37 320.76 653.48 317.75 656.46 311.52 658.6 308.15 661.22 304.76 663.8 301.75 667.04 303.25 667.93 303.35 669.19 302.71 670.5 303.18 669.23 299.68 668.31 298.07 667.65 295.79 666.86 292.31 665.94 290.73 665.57 289.11 664.68 288.97 664.42 287.74 665.83 287.74 666.81 287.33 667.44 287.94 669.43 286.94 670.11 286.08 668.96 284.95 667.23 281.61 669.54 280.37 668.91 279.17 669.89 276.91 671.09 275.16 671.05 273.78 669.71 274.24 667.39 273.76 666.65 273.94 666.62 272.02 665.15 267.14 665.53 264.33 667.11 264.27 667.61 263.3 668.95 263.27 669.11 261.38 669.76 259.78 671.12 259.3 672.6 258.7 674.05 257.66 674.91 256.58 676.38 257.12 677.46 256.77 678.66 257.22 680.96 256.78 682.95 257.86 682.48 259.24 684.8 260.51 685.69 261.68 689.81 262.47 691.56 261.46 693.07 261.18 697.89 261.72 699.36 262.57 699.85 263.32 701.59 264.84 704.77 265.55 706.03 265.31 708.95 267.36 709.41 269.6 709.25 271.12 709.92 272.18 710.86 274.72 712.68 275.51 714.21 275.89 714.58 276.74 715.88 275.61 720.99 275.59 722.65 275.48 725.93 277.86 728.96 278.6 730.06 276.23 733.56 275.68 734.5 275.11 735.77 273.47 737.23 272.19 737.95 270.88 739.6 269.77 740.12 268.94 741.74 268.65 742.06 267.26 743.55 265.37 744.12 264.05 744.9 263.8 745.83 262.16 747.86 261.88 751.26 262.68 Z" id="35060430"/>
<path d="M 231.53 124.04 230.08 124.6 229.92 122.93 231.14 122.89 231.53 124.04 Z M 397.72 158.04 397.48 159.09 397.33 161.74 397.77 163.45 397.33 166.29 395.22 167.72 394.7 168.97 391.48 173.66 390.54 174.66 389.06 175.52 387.55 175.86 376.67 176.49 377.05 183.52 376.95 184.48 373.27 196.11 358.73 191.77 354.06 190.3 351.45 189.85 344.18 187.51 329.64 183.19 323.84 181.31 288.21 169.69 279.53 149.58 278.73 143.76 277.61 137.95 277.59 123.55 277.43 123.48 278.73 122.36 281.98 121.26 286 116.68 287.16 115.6 293.27 115.19 295.68 115.15 300.55 120.24 301.18 120.49 305.53 121.32 306.51 121.8 312.13 126.31 313.18 126.66 314.17 126.32 316.56 125.02 321.96 118.57 328.62 115.7 330.75 114.89 332.78 114.83 339.33 115.2 342.04 114.76 342.87 115.13 345.52 115.26 346.58 116.17 348.61 116.01 350.21 116.23 352.44 116.06 353.52 115.14 353.35 114.48 355.26 114.84 354.69 115.71 361.24 119.75 364.73 114.2 366.16 114.69 368.69 116.12 369.11 115.93 371.1 117.31 372.65 120.16 372.68 121.49 371.64 123.2 375.88 129.69 377.91 132.5 379.06 134.43 383.02 140.37 383.99 141.63 387.82 145.71 389.62 148.13 391.53 150.39 397.72 158.04 Z" fill-rule="evenodd" id="35060440"/>
<path d="M 585.13 138.38 582.07 140.03 581.96 141.47 581.22 142.18 579.3 143.24 577.3 144.77 575.58 146.69 574.08 148.88 572.07 149.98 570.25 151.44 569.46 152.48 566.79 154.14 565.02 154.63 563.14 155.47 560.83 159.93 560.17 160.7 558.45 161.56 557.2 162.85 554.43 164.92 553.72 165.93 553.55 167.84 552.57 171.32 550.99 174.99 549.22 176.39 548.02 176.75 548.36 178.32 545.13 179 547.66 184.29 549.2 184.68 549.36 184.74 549.07 185.62 549.06 185.71 547.87 188.05 547.85 189.41 546.78 189.51 547.54 191.02 546.07 192.94 544.12 194.31 540.74 195.56 539.73 197.11 535.87 195.59 533.64 195.88 532.45 196.64 531.93 194.86 531.27 191.26 530.57 188.82 529.3 188.3 526.48 186.21 522.51 184.92 521.43 185.63 520.07 188.22 520.02 188.8 518.21 190.48 516.45 191.13 514.81 188.41 511.73 186.94 512.68 184.94 512.57 184.36 514.99 182.89 515.29 182 516.29 181.89 514.16 179.58 512.54 178.99 509.97 177.59 507.98 175.78 510.03 175.34 510.07 174.31 513.13 171.37 511.19 169.23 510.08 166.18 508.64 165.72 507.24 164.58 501.92 162.25 500.15 161.21 497.44 159.35 498.25 157.52 498.78 157.41 500.16 155.39 503.42 151.68 506.62 149.38 510.22 155.44 513.12 156.34 513.82 157.37 513.85 158.46 517.77 159.62 518.79 160.35 523.06 160.47 524.41 161.54 525.69 160.86 527.51 160.73 529.4 159.31 528.07 153.1 529.37 152.65 531.08 152.45 533.74 150.78 534.29 149.69 535.01 149.31 535.99 148.02 536.86 148.94 538.97 148.24 539.99 148.61 540.64 148.08 543.5 146.64 544.13 145.17 544.3 143.88 544.07 141.63 544.8 139.21 545.85 136.83 545.27 135.58 545.41 134.13 548.39 134.93 552.29 134.77 552.32 133.39 553.02 130.56 552.79 128.54 553.43 126.37 555.54 124.52 557.33 121.4 558.49 121.74 558.76 123.2 558.36 123.56 559.36 125.34 559.67 126.38 561.13 127.27 561.98 130.58 563.16 131.15 563.26 132.79 563.72 133.72 567.58 135.12 569 135.5 572.4 135.2 574.49 135.67 577.53 136.1 580.17 136.65 581.43 137.16 582.98 137.39 585.13 138.38 Z" id="35060510"/>
<path d="M 549.36 184.74 551.35 185.28 553.49 185.32 555.06 187.95 556.09 191.03 556.04 191.6 561.2 197.23 561.06 198.37 561.95 199.19 562.99 198.57 565.27 199.16 566.23 198.93 567.51 199.64 568.45 199 569.64 200.15 570.51 200.11 570.48 198.51 573.47 197.93 575.49 198.36 576.27 197.21 578.17 196.7 580.15 196.74 581.28 195.87 582.5 195.52 583.12 196.09 583.89 195.19 587.6 194.95 589.22 195.23 590.27 196.63 595.85 197.15 596.31 196.69 597.71 196.74 598.72 197.43 604.23 197.95 604.23 203.84 604.97 203.82 605.57 204.58 605.74 206.58 607.23 206.46 608.26 207.22 608.31 210.23 608.71 212.22 608.81 213.94 608.62 216.32 608.09 217.95 606.97 219.74 605.86 222 603.84 223.68 602.7 224.2 601.9 225.29 602.87 225.74 603.21 226.86 605.65 227.41 607.26 228.87 608.04 228.97 609.2 229.89 611.32 230.28 612.6 231.01 612.99 231.84 612.89 233.97 613.27 235.67 615.28 236.13 616.78 235.68 617.59 236.82 617.91 238.58 617.85 241.75 619.04 243.28 620.48 246.12 620.37 246.95 619.62 247.11 618.57 248.23 617.47 247.61 616.5 249.24 615.04 249.3 613.81 249.91 613.84 251.08 612.2 251.11 612.24 252.85 610.7 252.88 610.69 252.3 609.15 252.33 609.16 252.91 605.98 252.98 606.09 259.75 604.34 259.78 604.41 264.37 602.09 264.41 602.11 265.96 599.2 266.01 599.23 267.54 597.48 267.57 597.44 269.37 580.84 269.64 574.64 276.12 572.13 278.84 570.79 279.68 569.35 279.43 566.62 277.91 563.81 276.69 563.68 275.46 562.54 275.55 561.35 274.78 561.86 273.23 560.85 272.88 560.07 273.54 559.51 273.01 557.24 272.8 556.9 271.17 554.13 271.32 553.68 270.6 554.87 269.94 554.83 268.98 552.27 269.18 550.47 267.33 549.24 268.2 547.85 266.54 547.26 267.64 546.49 267.45 545.72 268.14 544.19 268.11 543.47 266.58 544.26 265.24 542.9 265.45 540.76 265.21 539.81 265.91 539.57 264.2 537.83 264.99 536.69 264.73 537.38 263.97 538.26 263.9 538.66 260.68 540.1 260.86 540.55 257.89 541.5 258.76 542.11 257.65 544.65 256.74 546.9 255.45 548.59 254.18 550.25 253.56 549.9 252.83 550.86 251.26 551.64 249.39 552.29 248.46 553.32 244.84 553.66 242.64 553.21 241.67 553.75 239.74 553.61 238.33 552.54 237.57 552.61 235.49 552.97 234.64 552.37 232.93 552.61 230.48 553.46 228.53 553.55 225.82 551.89 226.72 550.6 225.55 548 224.33 546.84 222.96 545.65 222.47 543.61 220.96 541.88 220 540.59 218.67 538.27 215.47 537.32 212.75 536.44 213.04 533.74 211.8 532.63 211.57 534.56 208.05 535.77 206.87 537.12 205.17 539.17 200.08 539.28 198.62 539.73 197.11 540.74 195.56 544.12 194.31 546.07 192.94 547.54 191.02 546.78 189.51 547.85 189.41 547.87 188.05 549.06 185.71 549.07 185.62 549.36 184.74 Z" id="35060520"/>
<path d="M 612.39 160.12 612.33 162.53 612.97 164.22 612.94 165.28 613.61 166.5 613.42 171.15 613.66 171.68 613.93 174.62 613.13 176.29 613.11 177.71 613.67 178.33 607.84 183.63 609.01 184.92 606.83 186.91 611.37 192.46 611.64 193.1 610.76 194.18 609.9 196.11 608.83 196.92 606.65 197.29 605.54 198.46 604.23 197.95 598.72 197.43 597.71 196.74 596.31 196.69 595.85 197.15 590.27 196.63 589.22 195.23 587.6 194.95 583.89 195.19 583.12 196.09 582.5 195.52 581.28 195.87 580.15 196.74 578.17 196.7 576.27 197.21 575.49 198.36 573.47 197.93 570.48 198.51 570.51 200.11 569.64 200.15 568.45 199 567.51 199.64 566.23 198.93 565.27 199.16 562.99 198.57 561.95 199.19 561.06 198.37 561.2 197.23 556.04 191.6 556.09 191.03 555.06 187.95 553.49 185.32 551.35 185.28 549.36 184.74 549.2 184.68 547.66 184.29 545.13 179 548.36 178.32 548.02 176.75 549.22 176.39 550.99 174.99 552.57 171.32 553.55 167.84 553.72 165.93 554.43 164.92 557.2 162.85 558.45 161.56 560.17 160.7 560.83 159.93 563.14 155.47 565.02 154.63 566.79 154.14 569.46 152.48 570.25 151.44 572.07 149.98 574.08 148.88 575.58 146.69 577.3 144.77 579.3 143.24 581.22 142.18 581.96 141.47 582.07 140.03 585.13 138.38 587.31 137.15 590.13 134.3 591.38 132.57 593.75 130.81 595.93 129.69 598.49 127.56 598.59 126.66 600.12 126.57 602.23 126.44 602.68 126.69 603.01 139.04 602.57 141.63 601.57 143.78 600.22 145.37 598.79 146.64 599.78 147.04 602.69 147.39 605.32 149.89 608.27 151.81 610.05 154.27 611.14 154.96 612.16 156.9 612.52 158.59 612.39 160.12 Z" id="35060540"/>
<path d="M 539.73 197.11 539.28 198.62 539.17 200.08 537.12 205.17 535.77 206.87 534.56 208.05 532.63 211.57 533.74 211.8 536.44 213.04 537.32 212.75 538.27 215.47 540.59 218.67 541.88 220 543.61 220.96 545.65 222.47 546.84 222.96 548 224.33 550.6 225.55 551.89 226.72 553.55 225.82 553.46 228.53 552.61 230.48 552.37 232.93 552.97 234.64 552.61 235.49 552.54 237.57 553.61 238.33 553.75 239.74 553.21 241.67 553.66 242.64 553.32 244.84 552.29 248.46 551.64 249.39 550.86 251.26 549.9 252.83 550.25 253.56 548.59 254.18 546.9 255.45 544.65 256.74 542.11 257.65 541.5 258.76 540.55 257.89 540.1 260.86 538.66 260.68 538.26 263.9 537.38 263.97 536.69 264.73 535.81 264.33 535.38 265.04 536.02 265.69 537.71 266.04 537.69 267.16 531.64 267.1 531.67 263.89 532.7 264.36 532.29 261.65 532.4 259.4 530.95 259.2 530.5 260.44 529.31 260.88 528.99 259.83 529.85 258.54 530.77 258.01 530.14 257.14 527.24 257.48 526.55 259.04 525.02 259.71 524.58 260.38 523.54 260.36 522.22 257.87 521 257.56 518.06 257.91 517.11 258.14 516.23 257.45 514.99 257.16 513.59 257.59 510.56 257.04 509.2 256.95 508.11 256.18 505.06 254.97 503.86 254.02 501.86 253.79 500.11 255.23 498.8 255.93 495.65 255.9 492.75 257.03 491.35 256.48 489.81 257 487.38 257.21 485.86 257.39 483.25 256.86 481.35 257.31 479.81 257.03 478.39 257.29 477 256.39 473.29 255.85 473.2 254.28 478.08 255.4 479.66 248.01 481.27 247.47 481.04 246.65 481.97 242.1 480.32 241.71 481.33 236.89 484.69 237.61 483.53 235.49 483.56 234.51 482.9 233.61 483.07 232.81 484.5 232.39 486.28 230.91 489.75 229.3 490.79 227.78 491.2 226.4 489.16 223.33 487.35 222.8 486.95 224.05 484.11 224.09 484.03 222.46 483.18 221.07 481.6 220.61 480.95 219.96 476.18 220.01 476.28 213.53 476.13 213.07 474.35 211.58 471.86 208.97 467.97 202.27 466.36 199.98 466.15 194.98 452.02 195.57 452.17 195.23 450.12 190.29 449.17 188.37 448.22 185.63 447.52 184.74 452.09 183.53 452.81 182.97 454.47 183.35 455.72 183.07 457.82 183.03 459.66 181.15 461.45 180.93 463.26 179.24 463.69 179.41 465.28 178.04 466.92 176.98 468.57 176.36 470.1 175.31 470.96 173.44 472.63 172.57 473.23 171.75 474.22 171.53 475.09 170.8 476.41 168.98 477.59 168.03 480.39 167.2 483.23 166.87 486.92 166.03 488.01 165.7 488.95 166.44 489.4 164.7 491.11 163.24 494.25 163.35 495.47 164.58 496.61 163.7 496.79 161.56 497.15 161.21 497.44 159.35 500.15 161.21 501.92 162.25 507.24 164.58 508.64 165.72 510.08 166.18 511.19 169.23 513.13 171.37 510.07 174.31 510.03 175.34 507.98 175.78 509.97 177.59 512.54 178.99 514.16 179.58 516.29 181.89 515.29 182 514.99 182.89 512.57 184.36 512.68 184.94 511.73 186.94 514.81 188.41 516.45 191.13 518.21 190.48 520.02 188.8 520.07 188.22 521.43 185.63 522.51 184.92 526.48 186.21 529.3 188.3 530.57 188.82 531.27 191.26 531.93 194.86 532.45 196.64 533.64 195.88 535.87 195.59 539.73 197.11 Z" id="35060580"/>
<path d="M 658.69 236.15 658.86 237.52 658.61 239.31 657.9 240.45 657.54 242.41 656.88 242.68 657.34 243.99 658.6 243.46 660.45 248.23 661.38 249.38 663.35 248.43 664.57 247.19 665.99 245.32 667.42 244.3 668.22 245.21 669.08 248.98 667.44 250.65 665.52 251.41 664.56 254.46 663.65 255.02 662.74 257.33 663.3 258.41 668.96 255.28 671.12 259.3 669.76 259.78 669.11 261.38 668.95 263.27 667.61 263.3 667.11 264.27 665.53 264.33 665.15 267.14 666.62 272.02 666.65 273.94 667.39 273.76 669.71 274.24 671.05 273.78 671.09 275.16 669.89 276.91 668.91 279.17 669.54 280.37 667.23 281.61 668.96 284.95 670.11 286.08 669.43 286.94 667.44 287.94 666.81 287.33 665.83 287.74 664.42 287.74 664.68 288.97 665.57 289.11 665.94 290.73 666.86 292.31 667.65 295.79 668.31 298.07 669.23 299.68 670.5 303.18 669.19 302.71 667.93 303.35 667.04 303.25 663.8 301.75 661.22 304.76 658.6 308.15 656.46 311.52 653.48 317.75 652.37 320.76 650.73 320.65 651.17 322.65 650.99 323.87 648.88 322.71 647.88 322.41 644.68 319.5 642.37 318.19 639.47 317.53 638.24 316.71 633.91 314.89 631.78 314.3 627.59 313.83 624.99 313.8 623.91 313.55 622.75 312.6 619.58 313.5 617.11 316.07 613.78 317.69 610.72 318.58 610.27 317.13 609.55 316.47 607.24 316.72 605.16 316.14 603.64 317.11 602.41 316.64 600.53 316.46 600.57 319.62 599.59 319.03 598.88 319.28 598.3 317.86 597.76 318.08 596.94 316.15 596.04 316.26 592.91 308.62 592.49 306.64 591.89 306.1 591.13 303.98 591.54 303.29 591.49 302.08 590.98 300.69 589.74 299.06 587.94 297.71 586.71 296.44 585.71 294.92 586.92 294.48 586.67 293.33 585.49 292.71 585.28 292.09 582.74 289.18 581.68 287.24 580.29 285.37 578.49 284.78 577.29 284.07 576.86 281.81 577.57 280.99 575.28 278.81 574.05 279.91 572.13 278.84 574.64 276.12 580.84 269.64 597.44 269.37 597.48 267.57 599.23 267.54 599.2 266.01 602.11 265.96 602.09 264.41 604.41 264.37 604.34 259.78 606.09 259.75 605.98 252.98 609.16 252.91 609.15 252.33 610.69 252.3 610.7 252.88 612.24 252.85 612.2 251.11 613.84 251.08 613.81 249.91 615.04 249.3 616.5 249.24 617.47 247.61 618.57 248.23 619.62 247.11 620.37 246.95 621.16 248.77 622.5 248.62 622.8 249.28 621.65 249.8 621.54 251.39 623.42 252.27 625.28 254.28 628.57 257.05 630.32 257.05 630.3 252.96 642.77 252.9 642.77 253.5 645.29 253.47 647.47 252.85 648.63 253.21 649.17 252.71 647.8 250.1 647.09 248.08 654.39 245.17 653.27 242.53 654.89 241.86 653.71 239 654.25 238.18 654.09 236.65 654.54 235.98 658.69 236.15 Z" id="35060410"/>
<path d="M 658.69 236.15 654.54 235.98 654.09 236.65 654.25 238.18 653.71 239 654.89 241.86 653.27 242.53 654.39 245.17 647.09 248.08 647.8 250.1 649.17 252.71 648.63 253.21 647.47 252.85 645.29 253.47 642.77 253.5 642.77 252.9 630.3 252.96 630.32 257.05 628.57 257.05 625.28 254.28 623.42 252.27 621.54 251.39 621.65 249.8 622.8 249.28 622.5 248.62 621.16 248.77 620.37 246.95 620.48 246.12 619.04 243.28 617.85 241.75 617.91 238.58 617.59 236.82 616.78 235.68 615.28 236.13 613.27 235.67 612.89 233.97 612.99 231.84 612.6 231.01 611.32 230.28 609.2 229.89 608.04 228.97 607.26 228.87 605.65 227.41 603.21 226.86 602.87 225.74 601.9 225.29 602.7 224.2 603.84 223.68 605.86 222 606.97 219.74 608.09 217.95 608.62 216.32 608.81 213.94 608.71 212.22 608.31 210.23 608.26 207.22 607.23 206.46 605.74 206.58 605.57 204.58 604.97 203.82 604.23 203.84 604.23 197.95 605.54 198.46 606.65 197.29 608.83 196.92 609.9 196.11 610.76 194.18 611.64 193.1 611.37 192.46 606.83 186.91 609.01 184.92 607.84 183.63 613.67 178.33 613.11 177.71 613.13 176.29 613.93 174.62 613.66 171.68 613.42 171.15 613.61 166.5 612.94 165.28 612.97 164.22 612.33 162.53 612.39 160.12 616.06 159.31 617.56 159.55 620.04 160.34 622.14 161.21 626.58 163.52 631.52 164.37 632.24 166.64 633.07 167.4 632.79 171.1 635.87 171.34 635.79 172.5 637.31 172.61 637.27 173.19 641.95 173.54 643.53 175.36 644.64 176.07 647.94 176.32 647.68 180.95 646.71 183.39 664.04 190.22 661.7 196.13 663.13 196.25 663.18 198.32 661.95 201.68 661.89 203.31 661.11 206.18 662.2 207.67 663.16 210.28 664.16 212.09 662.76 212.35 659.15 213.85 655.96 214.99 657.26 220.91 656.98 223.76 656.42 226.23 656.62 227.46 657.4 228.6 657.39 231.64 658.19 233.29 658.87 233.94 658.69 236.15 Z" id="35060420"/>
</g>
</svg>