<?xml version="1.0"?>
<svg xmlns="http://www.w3.org/2000/svg" version="1.2" baseProfile="tiny" width="800" height="1318" viewBox="0 0 800 1318" stroke-linecap="round" stroke-linejoin="round">
<g id="dong">
<path d="M 760.59 107.12 760.49 109.53 758.27 111.34 754.79 113.53 754.74 118.97 755.15 120.99 754.41 123.88 754.2 127.24 756.89 127.57 759.09 129.49 760.81 131.6 760.57 132.7 761.68 134.21 764.2 141 762.71 144.39 762.99 147.64 762.29 149.89 760.58 150.8 759.08 153.3 758.87 154.98 759.53 158.78 760.77 160.32 763.18 160.84 764.83 160.62 769.07 161.31 769.11 164.72 769.52 168.52 764.54 172.82 761.9 178.62 764.12 183.87 762.02 188.29 760.93 191.68 761.57 196.56 762.54 198.83 766.35 201.06 767.47 202.37 770.24 204.33 771.48 204.45 772.7 206.1 774.5 210.16 773.93 212.25 774.97 213.84 778.98 217 781.36 219.49 782.86 219.25 786.02 224.15 787.19 228.16 787.1 230.94 789.34 230.9 789.83 235.06 787.51 238.42 789.16 242.78 789.19 247.75 791.38 248.96 793.27 250.86 795.69 255 797.12 256.57 799 257.72 796.11 262.29 795.62 271.26 795.05 275.37 795.45 277.48 791.99 281.64 786.47 284.5 783.18 280.68 782.15 279.97 776.8 282.06 774.51 286.23 771.29 289.51 770.51 292 769.77 297.42 766.37 299.03 765.29 305.65 763.18 306.13 762.29 307.23 762.51 312.64 763.51 315.81 763.79 318.19 762.38 319.65 762.03 322.4 763.32 324.17 764.28 328.06 766.57 333.09 768.45 336.24 767.97 340.12 766.67 343.86 766.11 346.78 764.77 350.57 764.87 351.26 769.82 360.09 771.24 360.76 772.54 363.2 768.62 362.77 764.24 361.37 758.45 363.33 754.9 363.55 753.16 365.36 750.02 365.28 746.18 364.49 742.33 361.35 742.09 359.86 739.69 358.12 737.64 355.02 735.94 353.23 731.81 351.88 728.67 351.89 725.7 349.78 727.52 346.26 729.41 346.08 734.13 341.46 736.21 341.07 737.26 338.99 736.6 337.26 735.89 332.31 730.74 326.1 729.18 325.57 726.34 321.44 723.19 320.36 721.27 314.62 718.69 308.94 715.35 308.32 705.67 301.74 702.86 300.43 701.21 294.55 696.14 289.81 686.24 282.5 686.94 273.31 681.19 268.18 677.67 261.09 677.18 256.99 677.8 252.65 677.65 242.57 677.22 238.33 670.31 230 668.53 218.17 664.75 209.02 659.93 208.9 656.56 207.94 649.92 204.65 645.69 201.96 639.87 197.84 637.31 195.37 632.86 185.45 627.65 180.31 624.34 176.52 622.33 176.06 618.21 173.02 618.08 169.44 619.56 164.88 620.27 161.37 616.54 155.24 613.27 156.27 610.57 156.58 608.27 154.71 601.02 149.38 596.54 148.04 591.07 147.73 589.4 143.46 587.26 143 585.32 141.19 583.01 140.52 579.81 138.6 577.52 139.18 572.97 138.37 569.71 139.55 567.33 143.15 562.44 145.85 557.36 151.9 555.06 155.64 545.7 157.59 542.46 163.33 542.01 164.81 539.79 163.28 537.27 165.39 535.97 171.74 532.7 173.99 525.56 178.37 523.25 181.54 520.57 183.96 514.71 184.23 513.17 180.9 510.02 179.56 505.03 175.51 505.18 173.92 502.2 169.63 500.81 165.54 498.51 163.63 495.04 162.35 492.83 157.01 490.99 157.25 487.11 150.57 488.23 147.58 486.87 143.69 487.28 141.07 486.73 139.41 480.75 135.19 476.82 129.67 477.79 126.16 480.19 123.72 480.09 122.04 482.09 120.98 483.21 119.49 483.24 118.22 481.88 111.91 482.32 108.25 481.31 106.01 481.43 103.27 471.81 95.4 468.17 92.8 466.27 90.53 465.72 87.18 468.04 89.18 470.66 88.51 473.23 88.63 474.54 85.59 476.1 84.15 477 84.21 481.32 82.92 484.88 84.87 486.58 85.25 489.18 87.02 493.57 89.42 494.58 92.01 498.32 93.66 500.64 96.06 501.88 98.83 501.44 100.43 502.54 102.85 504.94 103.76 506.55 105.67 506.63 106.68 508.12 108.31 509.26 111.04 511.37 113.1 514.13 115.21 514.27 116.69 516.32 119.15 518.27 120.36 522.07 121.88 523.27 123.04 525.95 123.5 527.58 124.32 528.84 124.04 532.15 121.02 537.04 119.43 537.34 118.23 539.28 114.79 541.33 112.78 539.18 108.25 536.88 106.42 536.19 104.51 531.08 99.18 528.09 97.12 526.5 96.84 524.35 93.82 524.89 90.9 523.24 89.83 523.2 87.94 524.29 86.63 524.05 81.67 522.45 79.99 522.24 78.12 522.71 72.66 523.46 71.61 523.48 68.32 525.47 67.44 526.68 66.1 528.28 65.65 530.68 61.88 532.1 61.7 532.32 59.77 531.83 56.81 532.76 54.06 533.64 53.48 534.6 50.95 534.49 47.53 535.78 46.9 539.44 48.47 542.67 47.52 544.77 47.55 546.33 45.98 546.93 43.67 548.18 41.41 549.92 42 551.53 47.55 555.17 53.15 557.46 54.41 561.16 57.61 563.16 57.65 567.27 59.19 568.05 57.62 571.21 60.16 575.34 61.24 577.68 60.7 580.08 61.79 582.41 61.41 585.98 59.88 589.03 57.97 589.88 56.61 591.4 55.93 595.73 55.8 600.21 51.79 604.77 49.19 608.94 48.62 613.21 47.51 616 49.58 619.63 48.93 622.77 46.8 623.74 45.16 624.37 41.92 624.64 34.67 627.01 34.07 629.15 31.9 628.18 29.02 629.21 22.01 631.13 20.93 632.17 22.18 635.96 17.28 638.81 15.63 642.95 16.32 644.28 16.19 646.53 14.08 649.66 16.11 653.68 19.6 654.48 22.06 654.22 24.56 655.54 25.25 658.05 27.8 661.67 28.59 664.17 30.25 667.22 31.2 670.53 29.91 673.93 29.55 675.17 21.75 676.13 19.89 675.64 18.02 678.41 16.06 679.02 14.61 681.18 13.85 682.68 10.97 682.05 9.34 682.93 5.28 682.7 1.57 683.45 3.39 686.67 1.79 691.13 1 695.4 1.58 698.46 4.16 700.38 4.32 704.14 3.48 707.03 4.35 708.63 4.34 712.64 1.87 715.3 1.8 718.68 5.68 718.89 8.45 718.28 9.51 719.49 14.21 720.34 15.72 720.07 17.72 722.71 20.99 722.88 23.06 724.03 26.11 725.76 27.81 726.14 31.57 727.75 34.16 730.89 34.59 731.88 34.12 735.76 37.57 740.46 37.89 744.26 44.13 746.63 45.54 746.73 52.2 748.53 54.78 748.54 55.94 749.72 58.53 747.51 63.87 744.95 66.19 741.27 66.76 740.2 67.62 740.47 69.82 740.05 73.87 738.94 75.21 738.39 79.3 737.26 80.33 736.68 82.36 734.76 84.4 737.11 88.43 738.58 92.05 740 93.8 741.79 94.57 742.36 95.66 744.78 95.17 746.22 95.89 748.27 99.22 749.92 98.76 752.67 99.7 754.94 101.91 757.29 103.34 759.02 106.1 760.59 107.12 Z" id="35510380"/>
<path d="M 746.18 364.49 745.86 367.02 744.77 370.35 742.79 375.13 740.42 378.91 737.52 380.78 734.43 381.82 730.44 384.59 727.63 385.64 726.08 388.1 724.55 394.33 725.76 398.24 725.73 399.28 723.49 402.28 724.32 403.63 724.57 405.9 724.16 410.54 726.29 412.09 727.22 414.26 730.91 416.43 731.49 417.3 731.43 421.75 730.94 422.5 731.13 424.88 730.66 427 731.38 429.67 732.05 430.1 732.56 432.89 731.13 436.45 730.58 439.32 729.01 441.41 730.4 445.09 732.61 448.03 732.9 449.47 735.08 450.59 738.98 454.82 742.36 459.36 746.8 465.98 746.97 470.27 744.11 474.34 743.68 474.19 740.78 480.52 741.31 482.11 738 483.59 735.9 485.81 735.6 490.61 736.72 491.76 737 494.02 738.49 495 740.56 500.29 740.52 501.19 743.19 501.8 743.84 503.8 744.55 508 744.34 509.38 742.63 511.58 743.24 513.23 742.81 517.75 740.63 519.65 740.2 522.43 736.8 525.89 739.56 528.26 741.27 532.98 743.15 536.49 742.42 539.59 741.88 547.88 743.37 548.97 747.43 553.92 749.1 559.29 743.94 560.89 743.11 560.5 739.3 560.88 738.14 559.74 736.29 560.83 733.5 564.32 729.77 566.12 727.92 567.68 724 569.98 722.85 571.4 721.11 571.42 717.42 572.53 715.4 572.62 710.08 571.76 705.87 571.39 703.89 571.86 704 574.06 706.08 575.85 707.03 577.85 706.77 581.4 707.41 587.24 707.73 588.19 706.09 590.91 705.78 594.96 704.41 596.48 706.21 603.1 707.58 604.82 708.1 607.87 707.98 609.95 708.17 617.78 709.28 624.9 706.3 629.35 702.8 631.98 702.65 632.8 703.8 636.47 704.58 636.71 707.63 639.25 706.66 645.61 705.59 646.31 705.41 648.64 704.4 650.96 705.06 653.7 707.66 656.23 706.77 661.31 697.75 664.6 692.45 664.64 688.42 666.32 688.5 669.11 688.08 671.83 686.43 673.59 683.1 673.71 680.31 675.33 679.9 679.21 678.97 684.53 676.99 688.12 675.74 688.95 674.31 688.5 670.24 692.97 668.81 695.58 667.96 697.98 667.87 700 665.06 702 662.75 704.12 660.92 702.3 660.66 697.95 658.23 692.26 656.07 685.27 654.73 683.17 649.47 681.34 647.89 677.09 644.95 676.31 644.1 676.71 641.78 675.13 639.15 674.22 635.45 673.72 633.9 673.07 632.16 667.56 629.74 662.28 627.63 659.1 624.79 655.98 621.57 653.3 622.65 651.21 624.04 644.9 626.04 643.72 626.4 641.78 625.88 640.52 622.42 634.6 621.8 632.97 617.66 633.62 613.02 633.15 608.19 630.49 606.9 631.56 604.93 631.94 604.62 632.83 601.41 632.61 592.63 630.16 589.1 627.84 587.1 627.12 585.07 622.08 582.11 618.9 581 616.12 579.27 615.2 579.27 610.45 578.37 607.99 576.59 606.54 569.96 602.52 565.84 602.23 563.37 600.59 562.62 599.28 560.57 598.42 559.22 598.77 555.27 596.9 555.38 594.75 557.63 593.71 558.73 592.11 559.05 589.02 558.36 585.54 559.2 582.38 558.52 579.32 557.35 577.57 558.85 575.44 560.35 571.81 558.94 569.61 556.41 567.61 555.48 564.04 555.39 561.52 556.26 558.35 556.11 553.44 554.92 549.78 550.54 550.82 546.87 551.29 542.86 553.46 538.74 551.64 535.75 553.96 534.78 555.64 533.07 556.39 530.7 555.13 526.36 554.3 521.69 554.91 520.28 553.55 519.67 551.64 516.23 547.63 514.77 543.82 513.45 541.89 516.13 534.94 514.91 534.61 513.09 532.76 512.55 530.98 509.97 529.14 508.68 526.13 506.88 523.84 510.36 520.8 514.23 520.95 519.14 521.46 523.32 518.59 522.77 516.44 523.4 512.14 522.61 509.99 522.05 505.12 521.25 500.89 523.31 497.06 521.33 493.56 519.76 489.93 518.77 485.99 518.88 482.5 521.3 479.71 521.84 477.34 524.37 472.22 527.42 469.37 533.18 461.53 533.98 457.88 536.43 456.22 539.67 454.62 542.48 454.4 542.7 451.87 541.21 446.88 541.82 441.31 549.08 440.77 552.95 440.9 555.3 439.81 555.62 437.83 556.74 435.62 556.49 432.91 563.36 424.56 564.56 421.48 563.09 416 563.01 413.49 556.73 409.38 553.39 406.5 553.33 404.96 549.37 400.66 550.97 398.24 553.11 397.83 554.84 395.84 554.48 393.51 552.53 387.29 552.91 383.15 553.99 381.32 557.72 381.87 556.15 385.48 558.37 385.37 563.59 381.51 566 378.77 566.34 374.9 565.08 365.33 567.53 362.36 569.87 360.72 576.3 359.2 578.43 360.56 584.31 360.18 585.14 359.66 588.02 359.85 594.54 366.83 597.9 365.92 602.41 365.59 606.61 364.9 606.54 363.46 608.41 363.63 613.7 363.28 614.75 361.65 616.99 360.46 620.73 359.93 626.11 355.78 626.69 353.16 628.49 349.9 631.23 347.71 631.53 346.36 635.79 340 636.69 338.17 638.17 337.64 639.63 334.98 640.32 332.44 641.9 333.53 644.56 334.31 646.76 336.05 649.44 336.62 654.3 335.61 656.68 334.36 660.08 335.29 661.31 334.18 664.97 333.76 667.97 331.49 674.52 329.47 676.98 327.42 680.72 323.8 681.47 322.06 685.49 320.37 685.97 319.28 687.79 317.98 689.49 315.72 692.71 314.93 701.92 305.39 701.39 303.82 701.86 301.6 702.86 300.43 705.67 301.74 715.35 308.32 718.69 308.94 721.27 314.62 723.19 320.36 726.34 321.44 729.18 325.57 730.74 326.1 735.89 332.31 736.6 337.26 737.26 338.99 736.21 341.07 734.13 341.46 729.41 346.08 727.52 346.26 725.7 349.78 728.67 351.89 731.81 351.88 735.94 353.23 737.64 355.02 739.69 358.12 742.09 359.86 742.33 361.35 746.18 364.49 Z" id="35510400"/>
<path d="M 207.87 502.17 209.69 502.44 210.46 501.73 213.02 501.39 215.55 500.14 219.54 501.35 222.4 500.76 225.59 501.36 228.8 500.13 230.8 500.56 232.05 499.67 241.89 502.97 245.17 499.84 248.11 499.56 252.29 499.71 255 497.94 256.02 496.23 258.36 494.03 269.53 494.15 270.54 497.23 268.4 502.95 268.1 505.88 270.05 506.19 270.49 508.02 271.61 508.35 272.4 510.02 270.46 513.3 270.86 518.63 270.58 519.47 271.5 526.41 274.65 534.12 278.58 540.84 279.16 544 279.37 550.25 280.81 551.24 279.49 553.73 281.04 554.08 283.64 556.77 284.03 559.28 285.94 562.97 289.13 564.38 290.42 566.19 293.46 567.23 294.7 566.39 294.18 570.3 292.52 570.19 288.75 571.17 287.64 572.11 284.8 579.04 283.45 581.44 282.04 582.69 278.58 582.6 277.49 581.44 271.61 580.14 267.03 580 264.63 581.44 264.11 586.21 258.97 587.17 255.07 589.45 253.01 592.94 251.4 594.71 246.36 597.51 241.66 599.4 236.97 599.84 230.34 599.98 228.56 600.37 226.7 601.5 223.01 604.84 220.66 606.49 217.83 607.27 202.83 608.99 201.58 610.64 197.69 611.85 194.91 611.25 192.12 611.26 191.63 612.41 192.28 615.43 186.14 615.05 184.7 614.09 183.47 612.35 181.38 607.16 180.17 602.36 178.23 600.23 174.96 599.99 171.67 600.55 166.21 600.36 163.44 599.74 160.94 598.29 158.71 596.2 153.91 597.91 152.46 599.13 151.61 597.96 147.42 596.75 144.2 595.06 139.91 593.75 137.79 593.94 136.11 595.29 135.51 596.52 134.08 605.98 131.14 609.19 128.36 611.41 125.12 613.09 123.14 613.72 119.09 614.24 115.49 614.34 113.29 613.8 110.8 612.49 107.84 609.71 105.24 606.25 103.53 604.58 102.09 602.3 101.75 600.32 99.95 598.8 95.45 598.45 93.69 599.94 91.06 599.94 90.41 593.43 91.41 592.59 89.47 588.49 88.23 588.26 87.94 586.02 89.15 583.32 88.27 581.18 85.74 581.61 85.2 583.5 82.9 582.54 82.16 580.53 79.11 578.89 80.17 576.77 81.33 572.15 82.47 571.57 85.46 572.29 86.98 571.16 85.21 568.61 83.64 567.23 81.44 567.05 78.6 568.29 76.94 566.52 77.44 565.92 76.9 562.91 77.46 561.86 76.17 560.68 75.31 556.92 73.25 556.15 71.89 554.46 72.51 552.91 71.43 551.91 72.07 550.59 74.07 548.38 75.03 546.21 78.08 545.26 82.13 545.84 84.37 545.58 86.09 546.69 88.5 544.72 91.18 541.12 92.22 540.45 93.85 537 93.63 535.19 96.15 528.65 99.2 528.73 101.51 530.74 102.93 531.02 104.02 532.4 106.79 533.12 109.79 532.81 111.42 533.85 121.38 536.72 122.71 537.54 125.58 537.75 129.16 539.57 131.21 541.1 131.9 542.05 137.35 544.95 138.56 547.42 144.53 549.92 146.62 552.15 150.42 554.06 158.49 547.83 160.97 546.45 162.35 544.79 165.55 542.33 171.41 537.43 171.97 541.32 178.21 539.87 179.67 538.61 180.03 537.4 184.65 534.03 188.43 530.77 190.41 526.53 193.4 525.91 196.2 522.94 196.57 522.28 199.07 518.83 202.5 516.36 204.23 513.22 204.41 510.31 206.32 507.69 207.87 502.17 Z" id="35510110"/>
<path d="M 583.5 874.66 584.7 878.42 584.7 882.83 585.76 885.83 585.27 888.62 587 893.18 586.01 896.92 584.35 898.18 582.78 900.31 581.47 901.28 580.26 904.24 578.43 907.43 572.56 907.83 570.15 907.5 567.29 908.37 564.92 909.6 562.33 915.45 562.51 917.6 561.73 922.71 558.71 926.31 557.63 928.29 554.74 929.97 553.89 931.99 550.09 932.83 546.76 934.95 545.08 936.72 542.59 936.31 540.94 938.46 537.38 944.71 537.35 947.21 536.56 949.08 533.89 949.28 528.76 951.74 527.18 953.79 526.67 957.11 522.98 962.99 523.92 965.6 523.95 971.39 526.99 974.33 526.07 976.02 526.91 977.08 526.76 978.88 525.07 980.56 526.03 983.15 527.36 984.56 528.87 984.83 530.29 987.82 531.13 987.98 531.39 990.74 534.05 991.71 538.48 995.44 538.9 997.6 541.27 999.99 541.13 1001.61 539.08 1003.85 538.52 1006.22 537.27 1008.3 538.28 1014.67 536.86 1016.06 539.13 1018.34 545.81 1021.31 546.75 1022.67 545.77 1026.06 547.76 1029.84 546.5 1033.85 546.86 1035.02 545.58 1036.9 544.6 1042.42 542.32 1044.53 536.72 1048.14 538.7 1052.31 539.11 1055.6 535.43 1060.52 539.59 1067.63 539.3 1071.05 540.52 1074.17 540.29 1075.91 541.29 1077.77 543.04 1079.19 544.75 1081.76 546.48 1085.24 545.95 1086.95 547.22 1088.14 547.97 1093.5 548.04 1098.86 546.61 1099.97 546.71 1102.09 547.83 1104.04 547.5 1108.29 550.15 1110.35 550.54 1112.44 553.7 1116.74 552.96 1118.32 553.89 1121.14 553.98 1123.56 553.44 1124.44 549.86 1125.53 549.92 1127.24 545.72 1126.22 544.58 1126.79 541.29 1129.79 537.91 1128.69 535.17 1129.09 534.03 1130.6 531.24 1133.05 529.18 1133.75 526.95 1135.16 520.6 1133.54 517.14 1135.23 516.28 1133.57 514.56 1132.82 513.11 1132.01 515.51 1126.14 517.21 1124.57 517.49 1121.37 516.91 1117.81 517.28 1115.6 515.32 1110.88 512.26 1108.41 511.45 1106.49 507.82 1103.69 505.73 1099.92 505.33 1096.95 501 1094.99 499.51 1095.45 496.95 1094.02 493.14 1088.8 489.48 1085.01 486.63 1083.51 484.19 1079.58 482.67 1079.18 479.47 1075.55 476.93 1075.77 475.16 1076.47 470.14 1077.35 466.94 1079.86 460.22 1080.04 458.26 1079.51 454.83 1080.16 451.83 1081.14 449.73 1082.64 447.62 1081.64 445.92 1080.08 444.75 1072.4 442.49 1070.53 441.22 1068.7 441.31 1066.78 442.03 1064.85 443.02 1058.94 443.89 1056.9 443.68 1052.76 442.15 1050.1 442.23 1047.38 441.01 1046.14 433.87 1043.47 431.33 1042.06 427.39 1042.21 424.35 1040.47 425.1 1036.35 424.54 1034.77 423.43 1034.11 422.88 1031.71 417.1 1031.58 415.01 1030.29 412.89 1030.96 410.47 1030.62 407.49 1028.27 404.59 1027.29 403.69 1023.64 405.15 1021.6 403.66 1020.16 402.94 1018.49 400.43 1015.96 401.09 1013.09 402.49 1012.36 404.32 1008.57 408.72 1002.63 409.43 999.23 413.9 995.44 414.19 992.74 413.21 987.57 414.77 983.41 411.68 980.97 410.83 976.82 410.94 974.85 408.18 968.15 406.73 965.91 404.67 963.98 403.84 961.63 402.31 960.04 394.77 958.8 393.27 957.34 392.38 955.22 389.64 951.67 390.03 950.04 389.29 947.7 389.8 944.55 391.26 943.19 391.71 940.82 389.73 937.64 389.85 934.02 389.43 931.17 387.77 926 388.07 924.89 387.12 922.38 385.39 922.14 384.98 920.3 382.56 913.45 384.68 914.2 386.5 913.32 389.14 913.23 391.22 910.04 395.09 906.82 396.12 905.36 398.53 904.03 401.66 903.75 404.22 904.38 407.23 908.99 410.58 910.48 412.02 911.74 414.68 911.32 416.11 914.37 417.57 915.99 419.12 916.79 421.26 916.87 423.55 914.67 426.6 915.17 427.78 912.97 428.42 910.68 428.8 905.08 428.09 902.95 427.73 900.05 427.94 897.88 428.82 895.86 431.88 892.94 432.55 890.78 432.5 887.93 430 885.02 427.31 883.8 428.29 881.99 431.52 881.03 434.28 881.79 438.18 881.2 441.91 879.43 441.74 877.44 443.44 874.97 446.88 870.85 450.41 868.32 453.27 865.87 453.78 862.19 454.6 860.55 455 857.11 457.18 855.58 458.78 855.86 460.18 854.89 460.58 852.03 462.22 851.6 464.5 847.43 464.48 846.14 466.11 844.49 467.92 844.33 469.6 842.69 471.7 841.43 473.18 839.68 475.29 838.74 480.69 831.92 482.75 831.12 483.32 829.29 487.51 828.54 487.78 826.13 487.7 819.3 487.87 817.85 489.54 815.71 491.49 814.64 491.37 811.83 491.87 810.57 491.48 808.54 491.86 806.09 493.02 804.91 492.99 801.32 493.5 799.62 497.92 797.06 499.54 796.9 500.45 795.89 500.17 793.9 501.42 793.94 502 789.51 505.43 789.92 511.48 789.39 517.84 792.99 521.76 792.29 523.43 791.13 524.84 791.35 526.51 795.86 529.48 798.62 537.01 803.62 538.66 803.79 541.42 802.92 543.58 805.68 546.97 805.61 547.7 807.28 547.84 809.4 549.63 812.48 552.39 814.44 555.28 815.64 558.31 815.22 559.67 815.81 566.14 814.67 567.91 813.27 571.29 813.61 572.57 815.77 572.34 818.03 571.14 821.03 572.07 823.77 573.8 825.6 573.5 828.77 572.52 831.26 571.16 832.72 575.52 839.55 576.55 844.61 576.31 846.29 573.6 851.49 574.25 857.07 573.09 859.65 572.62 861.86 573.95 862.92 576.4 863.66 576.94 865.97 580.7 872.72 583.5 874.66 Z" id="35510320"/>
<path d="M 114.51 716.51 116.59 720.87 119.1 727.51 122.43 732.94 122.98 734.7 123.16 738.4 123.9 739.98 127.37 747.37 127.58 749.27 133.49 749.29 133.49 766.05 131.39 766.46 126.51 766.41 119.32 765.39 116.61 776.63 116.67 779.78 118.08 781.45 122.95 782.2 127.92 785.4 127.94 787.21 131.81 786.2 135.06 785.89 147.12 786.96 152.17 786.77 152.41 787.35 150.72 789.42 149.13 793.02 147.75 794.25 148.51 796.62 151.19 801.26 153.24 804.09 153.38 806.53 154.2 809.47 155.72 811.9 155.71 813 151.95 812.98 152.56 816.63 151.91 819.71 152.97 821.41 152.29 825.02 152.74 830.14 153.88 831.29 152.07 834.8 149.78 838.57 153.26 840.2 149.02 842.33 147.18 845.66 147.93 848.99 146.18 851.33 147.32 854.65 145.6 856.84 145.25 858.84 143.98 861.88 145.69 863.1 147 868.5 145.63 869.8 146.09 871.33 147.18 871.71 147.12 873.98 142.78 871.25 139.13 870.26 137.76 871.28 135.92 871.3 133.28 870.5 130.59 873.06 127.08 872.74 123.98 870.67 121.45 869.59 118.46 866.86 116.8 866.41 113.86 864.28 111.55 863.78 105.25 864.13 98.6 862.47 100.16 860.9 99.65 858.7 101.09 856.34 100.46 855.12 95.84 854.89 94.95 853.99 93.05 853.86 90.1 855.99 89.2 857.91 83.88 856.32 81.73 855.91 79.65 854.76 79.11 851.55 77.19 851.17 75.41 849.07 72.23 848.07 71.6 845.91 70.37 844.03 68.82 845.36 68.33 847.1 64.89 849.68 62.42 850.89 59.71 850.92 59.02 852.01 57 851.79 55.06 852.24 51.13 851.04 51.03 849.55 48.65 847.25 45.83 845.63 45.82 843.45 40.33 841.69 38.13 840.4 35.04 835.87 31.48 832.63 27.21 832.05 25.26 831.29 22.96 829.63 20 825.83 17.14 822.9 14.56 821.63 10.45 817.02 7.26 811.91 6.42 807.29 6.77 803.97 7.63 800.46 7.03 798.7 6.76 795.73 5.3 791.82 3.59 785.01 1 778.89 1.97 776.8 3.63 775.46 5.46 773.06 9.34 769.74 11.87 765.67 13.88 761.19 13.45 755.59 14.41 751.42 17.95 746.78 19.1 746.16 20 742.65 23.99 739.31 26.78 735.57 28.78 733.51 28.44 731.35 31.04 731.02 28.32 709.03 28.72 708.02 28.79 702.92 24.44 694.06 23.67 691.71 24.51 681.55 26.87 681.76 27.89 682.52 27.67 684.98 34.06 685.49 33.88 687.85 38.57 688.22 38.47 689.7 40.66 692.65 41.81 693.1 42.5 694.89 40.24 695.12 40.33 696.64 39.4 697.33 44.42 700.64 45.22 697.16 48.67 692.64 49.98 692.16 51.09 690.14 53.16 688.76 58.57 687.34 58.66 685.53 61.23 679.24 64.44 679.32 67.35 677.62 67.39 681.46 66.2 686.04 66.58 687.83 68.71 689.24 68.19 690.81 70.15 693.01 70.07 695.76 67.3 703.26 67.28 704.9 69.26 706.87 72.67 707.03 73.33 708.55 72.61 710.54 72.8 711.92 76.93 716.53 77.15 717.42 82.77 721.79 86.42 720.7 87.72 720.98 90.16 719.88 92.59 718.25 94.56 718.16 96.9 716.83 99.7 717.2 101.23 716.82 105.31 714.49 111.11 714.39 114.51 716.51 Z" id="35510330"/>
<path d="M 676.99 688.12 684.1 693.02 686.98 698.23 688.53 701.93 689.62 703.71 688.88 708.98 687.14 712.92 684.01 715.09 682.18 717.56 681.3 719.7 681.54 723.2 682.23 728.1 680.22 728.04 676.4 732.67 674.27 734.69 666.64 739.35 663.87 740.51 662.9 741.49 661.42 741.32 659.98 744.36 660.41 748.48 658.55 751.69 659.94 756.05 658.33 761.43 659.46 762.67 656.53 765.2 655.56 771.96 656.47 774.46 656.3 775.56 657.23 777.58 656.51 780.82 656.9 782.32 659.97 785.2 659.21 787.38 656.76 788.54 655.42 790.13 654.84 793.07 652.55 792.63 651.01 793.17 649.94 795.74 649.72 797.6 646.51 798.48 643.96 797.8 640.3 798.42 640.62 800.5 640.16 802.74 637.37 804.18 634.78 804.45 634.45 805.06 631.83 805.44 631.17 807.6 633.18 810.01 632.94 810.98 634.41 812.64 633.48 815.39 634.5 817.09 631.44 819.53 630.87 822.65 628.37 825.57 627.2 826.14 627.62 829.57 629.08 829.98 632.38 833.95 634.06 834.04 634.47 836.21 636.14 837.21 636.25 839.96 638.34 841.54 641.09 841.9 642.33 842.92 643.78 845.8 644.3 847.93 643.46 849.02 641.2 849.97 639.19 849.81 637.2 851.64 635.06 854.8 628.39 856.78 625.8 856.4 623.64 857.14 620 857.42 618.3 859.33 614.91 861.64 611.26 861.92 609.94 864.42 611.41 865.63 610.37 868.4 609.11 868.18 603.19 869.83 601.61 869.59 598.84 870.04 592.86 874.36 588.83 875.17 587.61 876.46 583.5 874.66 580.7 872.72 576.94 865.97 576.4 863.66 573.95 862.92 572.62 861.86 573.09 859.65 574.25 857.07 573.6 851.49 576.31 846.29 576.55 844.61 575.52 839.55 571.16 832.72 572.52 831.26 573.5 828.77 573.8 825.6 572.07 823.77 571.14 821.03 572.34 818.03 572.57 815.77 571.29 813.61 567.91 813.27 566.14 814.67 559.67 815.81 558.31 815.22 555.28 815.64 552.39 814.44 549.63 812.48 547.84 809.4 547.7 807.28 546.97 805.61 543.58 805.68 541.42 802.92 538.66 803.79 537.01 803.62 529.48 798.62 526.51 795.86 524.84 791.35 523.43 791.13 521.76 792.29 517.84 792.99 511.48 789.39 505.43 789.92 502 789.51 501.42 793.94 500.17 793.9 491.93 794.26 489.6 793.7 487.33 794.14 485.2 793.4 481.43 795.85 480.35 795.68 476.19 797.75 474.5 798.97 472.81 798.65 468.91 799.67 467.17 797.7 461.5 796.24 458.78 793.64 457.7 793.37 456.48 791.69 455.43 788.96 454.22 787.29 451.35 786.02 448.93 782.9 447.91 779.13 445.4 776.7 445.04 775.56 447.24 772.19 446.79 769.33 449.52 766.04 448.65 759.3 449.77 757.64 449.23 754.28 450.34 751.16 449.35 747.79 449.87 745.57 449.32 744.48 445.49 740.4 444.99 737.41 440.37 736.14 438.85 734.71 438.93 732.91 436.85 730.52 436.92 727.72 435.18 726.78 434.04 724.19 431.31 722.63 431.82 717.83 430.8 715.31 427.67 713.02 425.44 713.18 424.49 710.35 424.66 707.62 425.25 706.42 428.8 705.48 429.59 704.63 428.82 702.96 424.63 701.66 422.47 698.44 421.4 695.74 419.33 694.57 416.31 694.32 415.21 691.33 415.19 687.8 418.11 685.87 418.87 684.44 418.34 681.19 416.75 677.62 417.11 675.19 420.32 671.64 421.99 668.13 424.44 666.31 425.57 666.49 426.86 663.33 426.86 661.87 425.37 659.19 426.83 657.87 427.22 653.48 430.7 651.98 432.47 650.76 432.76 649.17 434.81 647.85 437.75 647.1 439.11 648.08 443.47 647.08 442.06 644.29 442.9 641.55 442.31 640.54 439.61 638.3 439 637 438.58 634.07 439.52 633.03 439 629.31 440.03 628.07 439.71 625.94 438.56 623.91 438.74 621.47 436.18 616.87 441.51 614.07 441.69 608.78 439.85 606.28 441.09 604.96 441.93 602.34 442.17 599.84 446.25 598.96 449.5 597.33 451.78 595.63 458.15 596.9 460.18 598.31 465.43 597.54 467.04 596.19 469.46 595.59 472.26 595.86 475.04 593.33 480.09 593.58 484.66 591.44 482.6 585.55 482.8 584.83 481.54 580.46 481.53 577.74 482.31 569.51 483.66 567.62 483.58 566.23 479.63 561.16 475.6 559.89 473.27 557.64 470.72 554.58 467.14 553.02 468.52 544.52 471.32 543.35 473.69 539.67 476 537.32 476.61 534.05 475 531.02 476.37 525.49 483.56 523.78 487.2 521.71 493.33 520.07 496.25 518.46 498.56 518.14 502.08 519.91 503.81 522.32 506.88 523.84 508.68 526.13 509.97 529.14 512.55 530.98 513.09 532.76 514.91 534.61 516.13 534.94 513.45 541.89 514.77 543.82 516.23 547.63 519.67 551.64 520.28 553.55 521.69 554.91 526.36 554.3 530.7 555.13 533.07 556.39 534.78 555.64 535.75 553.96 538.74 551.64 542.86 553.46 546.87 551.29 550.54 550.82 554.92 549.78 556.11 553.44 556.26 558.35 555.39 561.52 555.48 564.04 556.41 567.61 558.94 569.61 560.35 571.81 558.85 575.44 557.35 577.57 558.52 579.32 559.2 582.38 558.36 585.54 559.05 589.02 558.73 592.11 557.63 593.71 555.38 594.75 555.27 596.9 559.22 598.77 560.57 598.42 562.62 599.28 563.37 600.59 565.84 602.23 569.96 602.52 576.59 606.54 578.37 607.99 579.27 610.45 579.27 615.2 581 616.12 582.11 618.9 585.07 622.08 587.1 627.12 589.1 627.84 592.63 630.16 601.41 632.61 604.62 632.83 604.93 631.94 606.9 631.56 608.19 630.49 613.02 633.15 617.66 633.62 621.8 632.97 622.42 634.6 625.88 640.52 626.4 641.78 626.04 643.72 624.04 644.9 622.65 651.21 621.57 653.3 624.79 655.98 627.63 659.1 629.74 662.28 632.16 667.56 633.9 673.07 635.45 673.72 639.15 674.22 641.78 675.13 644.1 676.71 644.95 676.31 647.89 677.09 649.47 681.34 654.73 683.17 656.07 685.27 658.23 692.26 660.66 697.95 660.92 702.3 662.75 704.12 665.06 702 667.87 700 667.96 697.98 668.81 695.58 670.24 692.97 674.31 688.5 675.74 688.95 676.99 688.12 Z" id="35510340"/>
<path d="M 382.56 913.45 384.98 920.3 385.39 922.14 387.12 922.38 388.07 924.89 387.77 926 389.43 931.17 389.85 934.02 389.73 937.64 391.71 940.82 391.26 943.19 389.8 944.55 389.29 947.7 390.03 950.04 389.64 951.67 392.38 955.22 393.27 957.34 394.77 958.8 402.31 960.04 403.84 961.63 404.67 963.98 406.73 965.91 408.18 968.15 410.94 974.85 410.83 976.82 411.68 980.97 414.77 983.41 413.21 987.57 414.19 992.74 413.9 995.44 409.43 999.23 408.72 1002.63 404.32 1008.57 402.49 1012.36 401.09 1013.09 400.43 1015.96 398.58 1015.43 391.15 1015.11 387.68 1014.01 385.92 1011.19 383.81 1010.37 382.15 1010.54 379.99 1013.6 376.76 1015.48 375.17 1018.81 370.99 1019.94 368.71 1020 366.02 1023.35 361.83 1025.45 360.93 1027.82 358.85 1028.43 357.58 1030.12 351.85 1035.97 352.02 1039.42 350.56 1041.88 348.17 1042.74 346.35 1044.32 342.98 1045.58 340.98 1043.92 338.07 1043.66 335.41 1041.86 333.59 1042.59 331.26 1042.29 326.99 1043.61 322.9 1048.11 319.33 1049.25 317.81 1048.94 317.32 1050.06 314.96 1052.29 314.02 1051.37 312.04 1052.17 308.23 1055.08 308.9 1057.85 307.38 1057.71 306.04 1058.54 303.91 1058.57 302.46 1057.95 300.4 1061.31 301.69 1064 301.88 1065.48 300.88 1068.29 300.73 1070.59 302.46 1074.34 299.92 1080.73 299.8 1084.09 300.77 1085.2 298.85 1086.63 297.91 1088.02 297.17 1091.95 298.29 1101.68 299.68 1103.24 294.26 1105.87 290.45 1112.13 286.15 1115.39 283.83 1117.68 284.36 1119.98 284.11 1125.3 282.46 1128.5 278.57 1128.31 276.9 1129.19 273.11 1129.89 272.5 1132.33 270.74 1134.06 272.08 1135.69 272.41 1140.3 273.42 1142.38 273 1146.86 274.21 1151.47 271.17 1157.41 271.14 1159.36 273.67 1161.24 276.2 1162.26 275.23 1164.17 275.03 1166.86 275.44 1169.3 275.04 1171.3 277.01 1179.07 280.24 1180.59 283.05 1181.37 284.36 1183.06 285.77 1186.34 285.6 1192.97 285.75 1195.16 283.12 1197.41 282.58 1198.7 280.97 1199.89 282.04 1203.27 279.82 1205.41 280.77 1211.56 278.69 1211.91 276.22 1214.92 279.49 1218.88 280.69 1218.76 284.09 1222.42 284.86 1224.4 287.71 1227.22 286.73 1229.8 287.06 1232.01 288.55 1233.39 290.86 1234.52 291.82 1235.78 295.23 1243.02 291.69 1244.26 288.19 1248.67 288.43 1250.24 287.81 1252.23 289.79 1253.45 286.48 1257.9 287.56 1260.18 283.94 1264.34 281.96 1268.3 280.18 1268.47 278.56 1270.84 276.21 1272.98 274.89 1273.13 271.36 1269.32 271.13 1271.31 269.08 1272.2 267.26 1276.62 266.12 1277.54 261.38 1278.5 259.2 1276.72 258.81 1279.95 258.99 1283.43 260.37 1284.01 256.44 1286.8 256.11 1289.99 254.02 1292.52 252.74 1292.81 250.99 1294.35 251.78 1295.83 250.66 1298.44 250.09 1301.88 249.16 1302.07 246.46 1300.35 244.54 1301.85 242.04 1302.39 237.91 1305.49 237.88 1307.85 235.16 1311.3 232.85 1313.6 229.19 1315.23 226.49 1315.33 224.92 1314.83 220.79 1312.5 217.65 1311.82 214.66 1309.29 211.24 1309.2 210.28 1308.71 206.01 1307.82 203.06 1310.67 203.19 1311.89 201.26 1315.4 201.2 1317 201.22 1315.32 203.17 1311.8 203.02 1310.54 205.75 1308.01 204.48 1305.06 204.36 1303.72 201.85 1299.8 200.8 1299.59 199.78 1297.23 199.26 1294.06 201.6 1290.57 202.06 1286.15 202.92 1285.85 205.44 1282.49 205.58 1280.78 207.03 1278.02 203.83 1275.33 204.66 1273.61 202.13 1271.58 198.99 1267.56 198.53 1266.36 198.46 1263.35 197.18 1262.49 197.57 1259.73 197.45 1255.96 196.97 1254.1 195.71 1251.77 196.85 1248.29 195.76 1245.61 194.12 1243.82 195.33 1240.06 196.77 1238.09 196.7 1234.56 197.81 1233.65 198.99 1229.55 198.63 1227.02 196.48 1225.5 193.29 1222.37 193.33 1221.56 190.82 1218.79 185.96 1215.42 184.45 1214.08 178.49 1212.4 177.08 1209.58 177.3 1208.1 176.5 1204.09 178.03 1200.15 178.4 1197.31 179.97 1196.2 183.18 1192.79 182.43 1191.85 182.64 1189.15 179.47 1186.93 177.48 1183.71 176.36 1183.3 174.21 1181.38 173.64 1179.38 170.97 1177.08 168.29 1178.78 166.36 1179.23 163 1175.13 161.08 1173.25 159.8 1173.08 156.74 1170.77 153.38 1167.45 150.9 1167.35 146.25 1166.4 144.61 1165.22 144.89 1161.05 144.44 1159.85 145.52 1157.72 144.96 1157.14 146.6 1154.47 146.49 1152.4 148.55 1150.33 149 1147.58 150.22 1145.57 151.01 1143.07 150.77 1141.77 151.33 1139.1 152.81 1138.29 153.2 1136.62 154.48 1135.99 155.53 1133.28 155.24 1131.57 155.29 1126.17 154.56 1124.3 154.95 1123.24 154.42 1121.3 151.35 1119.31 150.08 1119.06 147.52 1115.13 144.96 1114.41 142.57 1109.89 140.56 1104.43 136.47 1102.84 138.3 1100.2 139.8 1094.71 141.31 1094.04 142.84 1091.47 146.21 1089.73 148.95 1087.26 149.62 1084.29 150.98 1083.84 152.07 1082.39 151.88 1081.1 154.74 1079.05 159.06 1078.69 157.31 1075.57 157.17 1074.31 158.98 1072.25 158.78 1069.21 159.85 1064.82 160.97 1062.77 163.65 1061.75 164.72 1059.7 167.13 1056.37 170.09 1054.28 175.26 1052.12 179.16 1051.66 181.68 1052.59 183.34 1050.07 186.07 1049.4 192.01 1042.87 192.37 1040.43 191.36 1037.44 189.15 1034.02 191.85 1028.07 193.36 1026.42 194.15 1024.2 198.39 1019.61 199.14 1018.19 200.99 1017.51 202.44 1013.83 205.25 1012.91 208.91 1013.35 211.27 1011.14 211.78 1007.36 211.36 1002.33 210.85 1000.74 211.54 998.96 210.96 995.56 211.18 992.47 211.95 990.61 215.26 989.95 216.99 987.32 218.86 985.83 218.03 983.76 218.5 982.33 220.64 979.11 222.14 977.88 222.7 975.38 224.72 974.17 225.57 972.62 227.51 972.94 229.65 972.51 230.25 974.29 232.2 973.24 233.08 973.92 237.08 974.71 239.73 977.24 242.07 976.88 245.33 977.12 249.36 978.91 250.14 978.36 252.69 980.18 255.34 980.32 257.09 976.25 258.09 976.3 258.46 971.69 264.54 972.17 262.86 976.02 265.21 975.85 265.97 974.84 266.56 970.45 269.08 974.11 270.21 972.33 270.89 969.89 272.21 968.16 273.63 967.95 280.59 965.29 282.28 965.46 284.61 964.17 286.9 959.37 291.34 957.78 291.58 956.4 293.18 954.36 294.97 953.36 296.63 950.74 298.43 950.24 300.07 951.24 303.79 950.55 305.33 951.42 307.53 951.52 310 953.8 311.7 953.25 317.15 954.5 317.19 952.35 315.57 949.27 316.56 946.73 316.39 945.08 316.93 943.06 318.05 942.53 318.82 940.31 320.73 939.21 322.85 937 323.12 935.66 324.75 935.24 325.1 931.39 323.54 930.86 321.75 928.89 322.49 927.94 322.98 923.89 323.83 921.87 322.02 919.38 323.38 916.24 325.42 915.81 327.92 912.9 329.41 912.21 331.1 909.46 330.88 906.22 331.68 904.91 333.86 902.86 338.35 900.64 339.86 900.68 342.44 897.87 344.53 896.78 345.61 897.3 348.09 894.09 349.32 893.14 351.14 895.51 353.27 897.26 356.49 896.22 357.89 897.23 363.46 899.62 366.45 900.25 367.82 899.77 370.51 903.04 372.81 903.6 374.68 905.66 375.21 908.07 376.98 911.22 380.26 909.68 382.56 913.45 Z" id="35510350"/>
<path d="M 702.86 300.43 701.86 301.6 701.39 303.82 701.92 305.39 692.71 314.93 689.49 315.72 687.79 317.98 685.97 319.28 685.49 320.37 681.47 322.06 680.72 323.8 676.98 327.42 674.52 329.47 667.97 331.49 664.97 333.76 661.31 334.18 660.08 335.29 656.68 334.36 654.3 335.61 649.44 336.62 646.76 336.05 644.56 334.31 641.9 333.53 640.32 332.44 639.63 334.98 638.17 337.64 636.69 338.17 635.79 340 631.53 346.36 631.23 347.71 628.49 349.9 626.69 353.16 626.11 355.78 620.73 359.93 616.99 360.46 614.75 361.65 613.7 363.28 608.41 363.63 606.54 363.46 606.61 364.9 602.41 365.59 597.9 365.92 594.54 366.83 588.02 359.85 585.14 359.66 584.31 360.18 578.43 360.56 576.3 359.2 569.87 360.72 567.53 362.36 565.08 365.33 566.34 374.9 566 378.77 563.59 381.51 558.37 385.37 556.15 385.48 557.72 381.87 553.99 381.32 552.91 383.15 552.53 387.29 554.48 393.51 554.84 395.84 553.11 397.83 550.97 398.24 549.37 400.66 553.33 404.96 553.39 406.5 556.73 409.38 563.01 413.49 563.09 416 564.56 421.48 563.36 424.56 556.49 432.91 556.74 435.62 555.62 437.83 555.3 439.81 552.95 440.9 549.08 440.77 541.82 441.31 541.21 446.88 542.7 451.87 542.48 454.4 539.67 454.62 536.43 456.22 533.98 457.88 533.18 461.53 527.42 469.37 524.37 472.22 521.84 477.34 521.3 479.71 518.88 482.5 518.77 485.99 519.76 489.93 521.33 493.56 523.31 497.06 521.25 500.89 522.05 505.12 522.61 509.99 523.4 512.14 522.77 516.44 523.32 518.59 519.14 521.46 514.23 520.95 510.36 520.8 506.88 523.84 503.81 522.32 502.08 519.91 498.56 518.14 496.25 518.46 493.33 520.07 487.2 521.71 483.56 523.78 476.37 525.49 475 531.02 476.61 534.05 476 537.32 473.69 539.67 471.32 543.35 468.52 544.52 467.14 553.02 459.57 555.88 457.45 555.38 453.19 556.01 449.16 554.86 446.98 555.17 440.17 553.14 440.11 552.14 437.18 550.88 435.42 549.5 431.91 545.75 430.12 544.9 428.51 544.86 426.99 546.19 424.61 546.08 421.45 545.34 418.03 545.92 416.03 542.41 411.42 540.8 409.53 536.86 406.39 535.97 405.4 534.56 405.09 530.52 403.32 527.93 402.7 526.08 403.83 524.61 406.98 524 408.12 522.67 407.51 521.47 407.8 519.84 407.4 516.77 407.58 514.02 406.48 512.65 407.64 511.01 407.94 505.31 409.02 503.48 409.94 503.8 413.41 501.35 412.96 498.77 411.61 496.8 411.13 493.07 411.2 489.79 410.54 489.1 409.44 485.86 409.13 483.44 407.43 484.52 404.98 484.64 404.93 486.24 403.55 488.97 401.03 488.6 400.36 485.84 398.3 485.26 397.76 486.28 395.29 486.17 391.76 482.82 390.41 477.75 389.74 476.2 390.45 474.24 389.02 472.82 392.61 467.81 394.13 463.08 394.43 458.53 393.08 456.76 391.64 456.7 387.4 458.82 387.77 457.01 384.22 453.79 383.96 451.62 384.48 447.91 383.24 446.22 382.23 440.66 381.16 438.39 378.46 437.6 376.23 438.18 377.66 436.6 377.51 434.25 375.79 432.69 376.27 430 378.32 425.97 378 422.83 376.66 419.73 377.96 416.56 376.99 414.85 377.05 413.32 379.01 410.87 374.36 406.26 373.95 405.29 371.61 404.09 370.82 402.14 366.52 400.26 364.28 397.49 361.16 397.79 358.18 397.07 355.27 393.75 355.07 391.22 353.26 385.09 355.2 382.83 359.01 383.49 360.74 384.83 363.36 384.58 367.54 384.91 368.69 386.06 370.26 385.28 371.62 386.11 373.91 383.53 376.01 382.26 378.93 382.62 379.21 378.32 377.98 373.45 377.14 372.39 374.31 365.82 376.29 363.87 378.94 364.02 382.5 361.78 384.92 360.78 386.77 360.64 388.97 359.19 395.22 358.58 396.27 356.73 399.06 355.08 400.85 355.61 405 353.52 407.65 349.74 411.96 347.17 415.21 344.57 418.21 345.63 421.48 344.83 423.77 345.9 424.52 347.72 426.42 347.54 427.47 346.74 429.34 346.91 432.52 345.33 434.69 344.91 435.61 341.68 435.33 339.03 436.61 337.73 439.14 337.07 441.29 337.35 442.62 336.74 444.18 342.26 447.23 347.66 449.02 355.76 450.77 354.01 450.88 351.48 452 351.31 454.64 349.1 458.94 346.13 463.48 344.13 466.53 342.31 469.01 341.39 477.89 341.52 482.36 343.14 484.4 344.58 482.75 345.29 482.56 346.56 484.95 348.86 486.48 348.48 490.82 352.04 491.39 354.22 493.95 354.19 498.22 352.12 501.87 350.94 505.21 349.15 506.34 347.91 507.69 344.83 510.51 343.42 511.8 340.49 515.19 338.46 517.41 338.55 524.41 330.15 526.09 328.83 527.86 329.49 529.39 331.26 538.55 331.34 539.38 332.21 543.27 333.47 544.92 332.56 547.89 333.44 550.04 333.62 551.51 332.71 552.06 330.09 554.25 328.68 557.45 328.64 560.67 326.53 566.68 327.32 568.9 324.74 569.11 322.04 572.86 319.77 574.41 318.13 577.54 317 583.6 310.91 584.88 308.08 585.83 303.66 586.67 302.2 589.62 300.51 592.73 299.46 594.71 298.05 597.85 297.41 600.06 295.63 602.73 295.6 612.93 292.47 621.12 287.68 624.24 289.97 636.72 292.71 642.16 296.3 650.38 288.35 655.08 288.92 661.15 289.92 664.14 289.2 666.14 286.92 668.99 287.35 673.48 285.25 675.95 284.43 679.07 283.91 681.58 284.12 686.24 282.5 696.14 289.81 701.21 294.55 702.86 300.43 Z" id="35510360"/>
<path d="M 442.62 336.74 441.29 337.35 439.14 337.07 436.61 337.73 435.33 339.03 435.61 341.68 434.69 344.91 432.52 345.33 429.34 346.91 427.47 346.74 426.42 347.54 424.52 347.72 423.77 345.9 421.48 344.83 418.21 345.63 415.21 344.57 411.96 347.17 407.65 349.74 405 353.52 400.85 355.61 399.06 355.08 396.27 356.73 395.22 358.58 388.97 359.19 386.77 360.64 384.92 360.78 382.5 361.78 378.94 364.02 376.29 363.87 374.31 365.82 377.14 372.39 377.98 373.45 379.21 378.32 378.93 382.62 376.01 382.26 373.91 383.53 371.62 386.11 370.26 385.28 368.69 386.06 367.54 384.91 363.36 384.58 360.74 384.83 359.01 383.49 355.2 382.83 353.26 385.09 355.07 391.22 355.27 393.75 358.18 397.07 361.16 397.79 364.28 397.49 366.52 400.26 370.82 402.14 371.61 404.09 373.95 405.29 374.36 406.26 379.01 410.87 377.05 413.32 376.99 414.85 377.96 416.56 376.66 419.73 378 422.83 378.32 425.97 376.27 430 375.79 432.69 377.51 434.25 377.66 436.6 376.23 438.18 373.95 435.67 372.39 436.46 368.73 436.55 367.22 435.47 364.3 431.82 362.08 430.77 361.49 429.61 358.05 428.1 357.42 427.3 354.55 426.28 354.24 425.1 351.5 424.31 348.9 422.62 345.44 419.18 343.87 419.92 341.13 419.76 339.07 417.77 336.8 417.18 335.69 414.98 333.76 413.53 331.46 413.18 329.2 411.8 328.73 407.64 322.89 404.07 321.32 401.56 319.48 400.81 314.63 400.44 313.25 399.62 310.57 400.5 307.88 400.58 306.21 398.04 306.52 394.88 306.13 392.99 307.93 390.68 308.77 383.78 306.72 382.13 305.19 382.2 303.9 381.29 302.05 381.56 300.78 382.71 298.41 382.41 296.91 381.52 292.93 380.26 290.24 378.64 286.79 377.35 285.02 374.75 284.14 374.43 283.8 372.06 284.12 369.59 283.26 367.46 284.45 365.54 284.69 364.08 286.61 360.06 289.32 356.07 286.82 354.88 285.51 351.27 284.16 349.28 283.29 346.52 281.47 343.26 279.57 343.55 277.87 338.7 278.97 337.07 278.25 335.48 275.48 331.7 277.06 329.66 277.16 328.28 274.23 326.15 272.49 323.9 272.69 320.87 271.58 318.04 270.67 313.94 272.52 311.68 272.2 309.88 272.63 307.68 270.89 304.62 266.03 301.35 265.95 294.77 265.26 292.48 263.61 290.15 263.53 285.35 259.55 282.42 257.12 279.62 256.28 277.25 252.36 275.84 253.74 273.6 257.43 270.55 253.39 259.45 260.06 253.57 260.59 252.08 265.29 246.98 267.19 243.87 270.07 240.7 270.75 238.82 278.23 230.73 279.63 229.66 280.22 227.09 280.04 225.58 281.67 224.84 285.29 221.37 286.83 218.39 286.73 216.59 288.31 215.47 288.93 213.03 290.02 211.49 290.94 206.97 294.35 200.34 298.79 197.31 299.96 193.39 302.07 191.43 303.34 190.97 305.91 193.58 308.47 194.72 308.79 196.4 312.34 196.79 315.16 198.29 315.86 199.26 320 199.34 323.01 195.65 327.88 194.05 330.15 193.63 330.8 196.8 332.57 197.93 333.47 199.38 333.6 201.86 335.63 206.03 336.31 209.11 338.03 211.71 340.35 210.5 343.86 210.19 346.58 210.39 349.45 211.3 350.81 209.94 356.38 209.99 358.58 211.56 360.29 211.92 362.85 218.17 364.48 220.43 365.64 223.03 367.5 223.95 369.45 224.06 370.57 226.46 376.83 227.22 378.28 231.49 380.08 232.54 383.58 233.41 386.83 232.24 387.72 233.68 391.6 233.76 395.08 232.94 393.44 237.13 390.23 241.59 387.63 242.59 384.86 244.17 382.9 241.97 381.16 240.95 377.64 241.58 376.43 243.05 373.54 241.67 372.37 241.8 367.87 240.87 365.94 238.88 361.87 238.48 359.37 239.78 355.28 241.21 351.19 239.72 348.67 239.61 346.18 237.32 345.41 237.96 341.3 237.76 340.11 239.19 339.23 242.99 335.95 244.83 334.7 247.45 332.59 247.89 329.5 247.4 327.51 248.69 325.38 251.05 324.63 254.91 323.55 256.93 323.88 260 326.68 260.72 327.34 259.56 331 258.56 332.54 259.73 335.22 260.54 337.24 260.18 339.29 260.79 339.58 262.66 341.28 264.58 342.32 266.8 345.71 268.43 347.12 267.73 348.34 266.01 348.55 263.56 350.18 262.28 351.04 260.52 353.3 258.48 355.27 257.76 356.99 258.06 358.21 256.61 359.24 256.51 361.55 257.52 363.09 259.22 366.4 261.98 367.9 262.85 369.07 262.54 370.09 263.81 373.75 266.47 375.23 265.77 378.3 262.67 380.72 264.55 380.79 266.12 383.87 267.96 383.83 268.53 386.93 270.94 390.61 268.69 394.71 272.36 399.48 276.11 401.28 276.57 402.4 279.1 406.01 280.4 409.69 279.18 411.33 280.41 410.69 283 410.77 286.61 414.13 292.66 416.44 292.71 418.24 294.52 417.98 296.14 421.59 300.2 422.59 303.23 424.21 302.18 425.37 303.65 427.38 304.18 429.91 302.32 431.67 303.64 433.63 302.89 435.38 303.45 437.05 304.92 437.22 306.26 441 309.52 446.82 315.9 450.19 316.26 453.6 314.48 456.46 318.39 453.94 321.39 453.64 322.87 452.4 322.93 449.75 324.92 449.36 328.03 448.01 329.14 445.31 329.38 443.52 330.51 443.79 332.51 442.93 334.02 442.62 336.74 Z" id="35510370"/>
<path d="M 465.72 87.18 466.27 90.53 468.17 92.8 471.81 95.4 481.43 103.27 481.31 106.01 482.32 108.25 481.88 111.91 483.24 118.22 483.21 119.49 482.09 120.98 480.09 122.04 480.19 123.72 477.79 126.16 476.82 129.67 480.75 135.19 486.73 139.41 487.28 141.07 486.87 143.69 488.23 147.58 487.11 150.57 490.99 157.25 492.83 157.01 495.04 162.35 498.51 163.63 500.81 165.54 502.2 169.63 505.18 173.92 505.03 175.51 504.36 178.55 503.03 180.89 502.15 184.06 500.75 186.13 500.64 187.95 499.47 191.04 499.47 193.76 501.91 196.46 502.95 199.98 504.4 201.53 505.29 203.35 507.41 203.41 508.4 204.52 510 207.52 509.15 210.19 510.92 212.13 511.93 215.97 514.27 216.04 519.16 218.69 523.47 225.02 526.62 226.81 529.09 225.85 531.23 227.19 531.64 228.61 534.59 232.11 535.49 233.93 536.86 234.87 538.71 238.42 539.3 241.27 538.65 243.37 540.39 247.35 539.52 248.71 537.34 250.41 538.71 252.3 538.46 253.8 536.95 255.26 538.19 258.1 536.39 259.49 536.34 260.74 534.8 262.11 536.69 265.82 536.23 270.02 535.06 272.76 535.22 274.85 534.61 275.59 532.36 275.12 526.47 276.71 521.29 276.48 519 276.83 516.57 279.66 513.7 281.01 515.29 283.6 513.27 285.29 512.7 286.61 517.62 290.2 517.49 291.1 522.21 295.4 525.3 297.77 525.42 298.97 527.75 302.38 527.78 303.6 526.58 305.94 527.68 310.36 526.66 312.56 525.79 312.95 527.24 315.56 527.47 319.02 528.15 320.33 528.33 322.94 526.96 324.35 526.89 326.52 526.09 328.83 524.41 330.15 517.41 338.55 515.19 338.46 511.8 340.49 510.51 343.42 507.69 344.83 506.34 347.91 505.21 349.15 501.87 350.94 498.22 352.12 493.95 354.19 491.39 354.22 490.82 352.04 486.48 348.48 484.95 348.86 482.56 346.56 482.75 345.29 484.4 344.58 482.36 343.14 477.89 341.52 469.01 341.39 466.53 342.31 463.48 344.13 458.94 346.13 454.64 349.1 452 351.31 450.88 351.48 450.77 354.01 449.02 355.76 447.23 347.66 444.18 342.26 442.62 336.74 442.93 334.02 443.79 332.51 443.52 330.51 445.31 329.38 448.01 329.14 449.36 328.03 449.75 324.92 452.4 322.93 453.64 322.87 453.94 321.39 456.46 318.39 453.6 314.48 450.19 316.26 446.82 315.9 441 309.52 437.22 306.26 437.05 304.92 435.38 303.45 433.63 302.89 431.67 303.64 429.91 302.32 427.38 304.18 425.37 303.65 424.21 302.18 422.59 303.23 421.59 300.2 417.98 296.14 418.24 294.52 416.44 292.71 414.13 292.66 410.77 286.61 410.69 283 411.33 280.41 409.69 279.18 406.01 280.4 402.4 279.1 401.28 276.57 399.48 276.11 394.71 272.36 390.61 268.69 386.93 270.94 383.83 268.53 383.87 267.96 380.79 266.12 380.72 264.55 378.3 262.67 375.23 265.77 373.75 266.47 370.09 263.81 369.07 262.54 367.9 262.85 366.4 261.98 363.09 259.22 361.55 257.52 359.24 256.51 358.21 256.61 356.99 258.06 355.27 257.76 353.3 258.48 351.04 260.52 350.18 262.28 348.55 263.56 348.34 266.01 347.12 267.73 345.71 268.43 342.32 266.8 341.28 264.58 339.58 262.66 339.29 260.79 337.24 260.18 335.22 260.54 332.54 259.73 331 258.56 327.34 259.56 326.68 260.72 323.88 260 323.55 256.93 324.63 254.91 325.38 251.05 327.51 248.69 329.5 247.4 332.59 247.89 334.7 247.45 335.95 244.83 339.23 242.99 340.11 239.19 341.3 237.76 345.41 237.96 346.18 237.32 348.67 239.61 351.19 239.72 355.28 241.21 359.37 239.78 361.87 238.48 365.94 238.88 367.87 240.87 372.37 241.8 373.54 241.67 376.43 243.05 377.64 241.58 381.16 240.95 382.9 241.97 384.86 244.17 387.63 242.59 390.23 241.59 393.44 237.13 395.08 232.94 391.6 233.76 387.72 233.68 386.83 232.24 383.58 233.41 380.08 232.54 378.28 231.49 376.83 227.22 370.57 226.46 369.45 224.06 367.5 223.95 365.64 223.03 364.48 220.43 362.85 218.17 360.29 211.92 358.58 211.56 356.38 209.99 350.81 209.94 349.45 211.3 346.58 210.39 343.86 210.19 340.35 210.5 338.03 211.71 336.31 209.11 335.63 206.03 333.6 201.86 333.47 199.38 332.57 197.93 330.8 196.8 330.15 193.63 327.88 194.05 323.01 195.65 320 199.34 315.86 199.26 315.16 198.29 312.34 196.79 308.79 196.4 308.47 194.72 305.91 193.58 303.34 190.97 302.07 191.43 298.79 188.96 297.46 188.39 294.78 183.89 291.15 181.35 289.26 179.43 288 176.74 286.46 175.19 284.29 174.53 284.33 171.32 283.94 168.88 286.2 166.09 287.03 162.09 289.5 159.66 290 157.3 288.94 155.1 289.69 152.95 289.94 150.43 290.8 147.97 289.21 145.78 291.56 142.38 291.37 139.93 290.15 136.81 290.06 131.14 289.6 128.55 290.99 126.68 292.55 121.63 294.03 120.2 295.5 117.01 297.76 114.83 302.79 111.72 304.96 112.2 305.75 113.13 307.48 112.57 309.04 109.95 311.14 108.72 312.04 107.46 314.24 106.82 314.57 105.95 318.06 106.09 321.05 105.8 322.09 106.28 325.85 106.57 328.1 110.44 327.83 111.79 329.13 118 331.09 120.14 333.73 119.67 338.78 122.78 340.7 123.3 342.44 122.13 346.47 122.19 348.99 120.56 353.5 118.33 357.95 120.66 362.38 122.09 366.56 120.41 366.19 115.7 368.33 113.09 370.37 113.19 373.55 109.06 376.42 107.74 377.43 105.49 379.61 104.16 380.8 101.83 381.1 99.52 383.02 95.72 384.53 95.72 385.98 94.73 390.19 95.26 390.85 94.53 393.26 95.49 396.21 97.96 397.12 99.27 400.16 100.6 402.05 103.87 404.75 105.39 407.25 108.7 407.42 111.6 410.98 113.76 413.25 114.37 414.14 116.48 415.17 117.19 417.66 116.19 419.27 116.1 423.37 117.3 425.46 115.85 428.78 112.51 432.07 110.43 430.92 108.66 428.94 106.81 429.07 102.32 429.77 100.67 432.28 99.2 433.19 97.99 435.33 97.11 435.92 95.49 436.18 91.76 436.78 89.9 435.25 86.46 437.48 84.2 437.76 80.07 439.67 79.3 442.89 80.18 445.74 80.22 447.43 78.91 448.79 79.63 451.78 79.07 453.1 79.96 454.34 81.9 454.92 84.35 456.26 86.06 458.21 87.01 462.88 87.52 465.72 87.18 Z" id="35510390"/>
<path d="M 686.24 282.5 681.58 284.12 679.07 283.91 675.95 284.43 673.48 285.25 668.99 287.35 666.14 286.92 664.14 289.2 661.15 289.92 655.08 288.92 650.38 288.35 642.16 296.3 636.72 292.71 624.24 289.97 621.12 287.68 612.93 292.47 602.73 295.6 600.06 295.63 597.85 297.41 594.71 298.05 592.73 299.46 589.62 300.51 586.67 302.2 585.83 303.66 584.88 308.08 583.6 310.91 577.54 317 574.41 318.13 572.86 319.77 569.11 322.04 568.9 324.74 566.68 327.32 560.67 326.53 557.45 328.64 554.25 328.68 552.06 330.09 551.51 332.71 550.04 333.62 547.89 333.44 544.92 332.56 543.27 333.47 539.38 332.21 538.55 331.34 529.39 331.26 527.86 329.49 526.09 328.83 526.89 326.52 526.96 324.35 528.33 322.94 528.15 320.33 527.47 319.02 527.24 315.56 525.79 312.95 526.66 312.56 527.68 310.36 526.58 305.94 527.78 303.6 527.75 302.38 525.42 298.97 525.3 297.77 522.21 295.4 517.49 291.1 517.62 290.2 512.7 286.61 513.27 285.29 515.29 283.6 513.7 281.01 516.57 279.66 519 276.83 521.29 276.48 526.47 276.71 532.36 275.12 534.61 275.59 535.22 274.85 535.06 272.76 536.23 270.02 536.69 265.82 534.8 262.11 536.34 260.74 536.39 259.49 538.19 258.1 536.95 255.26 538.46 253.8 538.71 252.3 537.34 250.41 539.52 248.71 540.39 247.35 538.65 243.37 539.3 241.27 538.71 238.42 536.86 234.87 535.49 233.93 534.59 232.11 531.64 228.61 531.23 227.19 529.09 225.85 526.62 226.81 523.47 225.02 519.16 218.69 514.27 216.04 511.93 215.97 510.92 212.13 509.15 210.19 510 207.52 508.4 204.52 507.41 203.41 505.29 203.35 504.4 201.53 502.95 199.98 501.91 196.46 499.47 193.76 499.47 191.04 500.64 187.95 500.75 186.13 502.15 184.06 503.03 180.89 504.36 178.55 505.03 175.51 510.02 179.56 513.17 180.9 514.71 184.23 520.57 183.96 523.25 181.54 525.56 178.37 532.7 173.99 535.97 171.74 537.27 165.39 539.79 163.28 542.01 164.81 542.46 163.33 545.7 157.59 555.06 155.64 557.36 151.9 562.44 145.85 567.33 143.15 569.71 139.55 572.97 138.37 577.52 139.18 579.81 138.6 583.01 140.52 585.32 141.19 587.26 143 589.4 143.46 591.07 147.73 596.54 148.04 601.02 149.38 608.27 154.71 610.57 156.58 613.27 156.27 616.54 155.24 620.27 161.37 619.56 164.88 618.08 169.44 618.21 173.02 622.33 176.06 624.34 176.52 627.65 180.31 632.86 185.45 637.31 195.37 639.87 197.84 645.69 201.96 649.92 204.65 656.56 207.94 659.93 208.9 664.75 209.02 668.53 218.17 670.31 230 677.22 238.33 677.65 242.57 677.8 252.65 677.18 256.99 677.67 261.09 681.19 268.18 686.94 273.31 686.24 282.5 Z" id="35510410"/>
<path d="M 272.49 323.9 274.23 326.15 277.16 328.28 277.06 329.66 275.48 331.7 278.25 335.48 278.97 337.07 277.87 338.7 279.57 343.55 281.47 343.26 283.29 346.52 284.16 349.28 285.51 351.27 286.82 354.88 289.32 356.07 286.61 360.06 284.69 364.08 284.45 365.54 283.26 367.46 284.12 369.59 283.8 372.06 284.14 374.43 285.02 374.75 286.79 377.35 290.24 378.64 292.93 380.26 296.91 381.52 298.41 382.41 300.78 382.71 302.05 381.56 303.9 381.29 305.19 382.2 306.72 382.13 308.77 383.78 307.93 390.68 306.13 392.99 306.52 394.88 306.21 398.04 307.88 400.58 310.57 400.5 313.25 399.62 314.63 400.44 319.48 400.81 321.32 401.56 322.89 404.07 328.73 407.64 329.2 411.8 331.46 413.18 333.76 413.53 335.69 414.98 336.8 417.18 339.07 417.77 341.13 419.76 343.87 419.92 345.44 419.18 348.9 422.62 351.5 424.31 354.24 425.1 354.55 426.28 357.42 427.3 358.05 428.1 361.49 429.61 362.08 430.77 364.3 431.82 367.22 435.47 368.73 436.55 372.39 436.46 373.95 435.67 376.23 438.18 378.46 437.6 381.16 438.39 382.23 440.66 383.24 446.22 384.48 447.91 383.96 451.62 384.22 453.79 387.77 457.01 387.4 458.82 391.64 456.7 393.08 456.76 394.43 458.53 394.13 463.08 392.61 467.81 389.02 472.82 382.65 476.02 378.28 478.76 374.11 481 372.23 481.63 371.04 483.89 369.71 485.34 367.9 488.65 364.76 498.2 364.59 502.15 365.7 504.03 366.71 509.93 366.82 512.75 366.24 519.59 364.64 523.73 364.95 528.58 363.97 531.04 363.95 532.79 361.9 536.63 360.23 538.49 361.2 541.33 354.1 555.4 353.19 557.4 348.64 562.21 345.95 563.7 344.11 566.25 341.2 571.65 338.42 574.75 337.59 577.52 338.11 583.49 339.37 586.91 338.61 592.95 336.9 597.07 338.12 602.23 337.97 606.08 334.72 607.42 333.51 606.95 332.14 604.24 328.59 601.62 325.53 602.09 320.97 600.74 320.53 597.8 317.55 594.71 317.3 592.99 314.25 591.35 312.72 589.27 311.84 586.33 309.2 582.76 307.89 578.93 304.06 577.14 303.33 575.33 297.48 573.3 294.18 570.3 294.7 566.39 293.46 567.23 290.42 566.19 289.13 564.38 285.94 562.97 284.03 559.28 283.64 556.77 281.04 554.08 279.49 553.73 280.81 551.24 279.37 550.25 279.16 544 278.58 540.84 274.65 534.12 271.5 526.41 270.58 519.47 270.86 518.63 270.46 513.3 272.4 510.02 271.61 508.35 270.49 508.02 270.05 506.19 268.1 505.88 268.4 502.95 270.54 497.23 269.53 494.15 258.36 494.03 256.02 496.23 255 497.94 252.29 499.71 248.11 499.56 245.17 499.84 241.89 502.97 232.05 499.67 230.8 500.56 228.8 500.13 225.59 501.36 222.4 500.76 219.54 501.35 215.55 500.14 213.02 501.39 210.46 501.73 209.69 502.44 207.87 502.17 207.79 493.32 208.21 491.45 211.41 485.19 213.67 481.81 213.94 478.04 214.93 475.11 219.04 469.53 219.95 464.88 221.56 463.54 224.26 462.2 225.75 459.56 225.85 457.12 227.55 454.86 227.46 451.06 227.94 449.72 231.16 447.05 232.47 443.27 233.07 439.78 232.96 438.27 230.18 432.81 228.97 429.87 228.39 424.57 228.76 422.2 228.13 418.4 229.55 413.11 233.06 404.4 233.6 402.6 233.93 399.19 233.29 396.91 234.2 396.27 233.92 391.94 236.26 386.44 236.14 383.85 237.59 377.48 238.48 376.44 239.51 373.34 239.11 370.22 239.79 368.14 237.09 363.96 236.66 360.73 236.8 357.88 237.51 356.51 235.65 355.53 235.08 349.51 239.56 345.88 243.63 344.55 244.02 341.62 246.28 341.12 257.33 334.16 258.56 331.86 261.9 331.64 267.09 324.32 269.85 323.73 272.49 323.9 Z" id="35510120"/>
<path d="M 467.14 553.02 470.72 554.58 473.27 557.64 475.6 559.89 479.63 561.16 483.58 566.23 483.66 567.62 482.31 569.51 481.53 577.74 481.54 580.46 482.8 584.83 482.6 585.55 484.66 591.44 480.09 593.58 475.04 593.33 472.26 595.86 469.46 595.59 467.04 596.19 465.43 597.54 460.18 598.31 458.15 596.9 451.78 595.63 449.5 597.33 446.25 598.96 442.17 599.84 441.93 602.34 441.09 604.96 439.85 606.28 441.69 608.78 441.51 614.07 436.18 616.87 438.74 621.47 438.56 623.91 439.71 625.94 440.03 628.07 439 629.31 439.52 633.03 438.58 634.07 439 637 439.61 638.3 442.31 640.54 442.9 641.55 442.06 644.29 443.47 647.08 439.11 648.08 437.75 647.1 434.81 647.85 432.76 649.17 432.47 650.76 430.7 651.98 427.22 653.48 426.83 657.87 425.37 659.19 426.86 661.87 426.86 663.33 425.57 666.49 424.44 666.31 421.99 668.13 420.32 671.64 417.11 675.19 416.75 677.62 418.34 681.19 418.87 684.44 418.11 685.87 415.19 687.8 415.21 691.33 416.31 694.32 411.33 697.82 407.91 698.45 406.42 699.49 405.18 701.67 402.77 704.59 403.44 706.7 402.64 708.27 400.84 708.84 398.37 710.91 396.67 711.45 394.74 710.81 390.01 710.05 387.48 710.96 385.95 712.7 382.59 713.7 380.47 713.31 374.82 713.07 374.92 712.27 371.03 711.81 366.14 712.67 362.7 712.97 362.08 711.06 361.74 706.44 361.51 704.11 359.48 698.15 357.63 694.78 354.69 690.18 350.9 683.17 347.93 673.98 346.25 669.39 342.11 664.67 337.46 656.67 334.59 653.3 330.84 649.73 328.47 648.91 326.89 647.64 326.55 646.18 325.32 634.35 323.95 627.68 323.07 625.58 319.23 621.97 316.9 621.14 315.48 620.01 315.03 618.44 317.09 617.05 316.8 614.71 315.36 609.19 315.24 606.77 314.08 604.53 311.03 602.48 306.57 601.4 302.84 598.4 301.7 596.46 299.03 590.77 296.92 589.11 287.47 587.74 284.94 588.05 282.22 589.11 278.19 590.27 272.31 590.48 266.72 590.02 264.11 586.21 264.63 581.44 267.03 580 271.61 580.14 277.49 581.44 278.58 582.6 282.04 582.69 283.45 581.44 284.8 579.04 287.64 572.11 288.75 571.17 292.52 570.19 294.18 570.3 297.48 573.3 303.33 575.33 304.06 577.14 307.89 578.93 309.2 582.76 311.84 586.33 312.72 589.27 314.25 591.35 317.3 592.99 317.55 594.71 320.53 597.8 320.97 600.74 325.53 602.09 328.59 601.62 332.14 604.24 333.51 606.95 334.72 607.42 337.97 606.08 338.12 602.23 336.9 597.07 338.61 592.95 339.37 586.91 338.11 583.49 337.59 577.52 338.42 574.75 341.2 571.65 344.11 566.25 345.95 563.7 348.64 562.21 353.19 557.4 354.1 555.4 361.2 541.33 360.23 538.49 361.9 536.63 363.95 532.79 363.97 531.04 364.95 528.58 364.64 523.73 366.24 519.59 366.82 512.75 366.71 509.93 365.7 504.03 364.59 502.15 364.76 498.2 367.9 488.65 369.71 485.34 371.04 483.89 372.23 481.63 374.11 481 378.28 478.76 382.65 476.02 389.02 472.82 390.45 474.24 389.74 476.2 390.41 477.75 391.76 482.82 395.29 486.17 397.76 486.28 398.3 485.26 400.36 485.84 401.03 488.6 403.55 488.97 404.93 486.24 404.98 484.64 407.43 484.52 409.13 483.44 409.44 485.86 410.54 489.1 411.2 489.79 411.13 493.07 411.61 496.8 412.96 498.77 413.41 501.35 409.94 503.8 409.02 503.48 407.94 505.31 407.64 511.01 406.48 512.65 407.58 514.02 407.4 516.77 407.8 519.84 407.51 521.47 408.12 522.67 406.98 524 403.83 524.61 402.7 526.08 403.32 527.93 405.09 530.52 405.4 534.56 406.39 535.97 409.53 536.86 411.42 540.8 416.03 542.41 418.03 545.92 421.45 545.34 424.61 546.08 426.99 546.19 428.51 544.86 430.12 544.9 431.91 545.75 435.42 549.5 437.18 550.88 440.11 552.14 440.17 553.14 446.98 555.17 449.16 554.86 453.19 556.01 457.45 555.38 459.57 555.88 467.14 553.02 Z" id="35510130"/>
</g>
</svg>