<?xml version="1.0"?>
<svg xmlns="http://www.w3.org/2000/svg" version="1.2" baseProfile="tiny" width="800" height="882" viewBox="0 0 800 882" stroke-linecap="round" stroke-linejoin="round">
<g id="dong">
<path d="M 655.43 474.67 655.68 477.35 659.04 483.85 659.61 491.36 660.6 497.07 657.56 502.11 657.28 504.37 654.28 512.33 654.3 516.76 653.35 519.85 653.87 522.17 653.58 528.84 656.35 528.45 659.59 531.39 663.01 534.02 665.54 537.13 666 540.12 666.99 541.86 665.65 545.57 666.13 547.5 664.1 549.02 664.83 550.75 666.34 551.39 669.1 551.03 670.6 553.9 669.88 556.94 665.29 561.45 661.77 563.87 659.61 564.38 657.22 566.05 656.2 569.29 654.99 570.45 652.83 570.92 648.79 573.39 646.38 573.89 644.77 573.48 644.06 571.81 642.03 571.59 639.33 572.75 640.69 575.36 640.35 578.14 638.15 580.39 636.88 582.52 635.09 583.69 634.22 587.54 635.9 588.6 634.17 590.77 635.12 591.59 633.83 593.97 631.32 597.29 634.74 599.81 635.47 603.53 637.12 605.95 635.53 607.43 632.45 610.37 630.48 610.69 628.64 609.32 627.9 606.99 626.33 605.69 624.59 605.79 623.89 606.97 620.28 610.24 617.37 614.38 610.25 623.08 605.09 626.06 599.52 626.52 594.71 627.69 591.8 627.85 589.68 627.32 588.75 625.65 584.98 621.31 582.26 619.28 579.36 617.86 577.08 617.7 573.43 618.89 571.52 620.48 569.94 622.87 568.57 626.94 569.23 630.3 567.47 629.11 566.52 630.19 564.55 629.96 563.4 627.33 560.2 625.79 558.72 624.56 556.84 621.77 557.99 617.35 564.19 603.19 564.33 599.91 566.12 597.87 565.14 595.19 564.96 592.45 566.43 590.66 564.34 586.98 564.58 585.94 567.36 585.65 567.04 584.03 568.04 582.53 566.13 581.04 566.54 578.85 568.32 576.59 568.45 574.08 569.58 572.29 570.57 569.26 570.85 566.69 571.93 566.46 572.28 563.81 573.77 563.2 573.57 559.78 574.03 557.8 575.48 555.77 571.68 547.14 571.92 543.37 572.84 540.99 571.77 539.2 571.39 536.67 574.83 532.67 574.12 530.23 576.45 527.3 577.68 525 577.59 523.62 578.95 521.38 578.03 518.96 579.42 516.1 578.88 514.46 581.62 511.6 583.05 508.05 584 504.01 586.36 500.25 589.22 496.93 590.99 491.59 594.46 484.94 595.91 484.21 597.51 481.01 599.24 479.17 601.35 478.65 604.74 478.92 611.61 478.24 614.6 479.67 618.47 480.04 621.31 479.31 624.3 479.65 629.95 478.09 631.42 479.51 635.9 480.48 638.73 479.67 639.65 478.21 642.76 475.99 644.39 474.37 646.63 474.83 647.89 474.29 651.13 474.35 651.88 473.16 654.55 473.65 655.43 474.67 Z" id="35550410"/>
<path d="M 537.49 350.66 535.82 351.58 534.8 353.25 534.46 356.06 534.9 358.6 532.82 363.15 533.27 366.59 532.71 367.96 530.38 370.65 528.72 371.17 529.02 373.45 526.88 374.79 523.08 374.84 521.74 375.62 522.91 377.76 522.39 383.56 519.88 384.72 519.19 385.72 516.47 386.85 515.85 390.42 512.46 391.67 509.94 395.36 507.64 396.15 504.98 394.84 497.53 395.16 494.94 397.58 489.56 398.06 487.76 399.66 487.74 401.87 485.83 404.06 483.8 404.28 482.92 403.24 480.19 405.48 477.05 407.14 476.15 411.09 476.77 411.76 478.05 415.49 480.43 415.48 482.64 412.68 483.2 410.27 485.04 411.17 487.18 411.4 488.65 412.43 491.57 412.18 494.59 414.4 499.8 417.57 500.23 418.82 503 421.28 502.84 424.41 501.7 426.17 501.14 429.84 502.4 431.89 502.66 435.99 501.42 437.1 505.07 440.94 503.49 443.99 503.83 445.63 502.13 449.32 501.81 451.26 503.21 455.46 506.34 456.36 506.93 457.17 509.93 456.59 511.05 459.02 513.66 462.23 513.35 463.54 514.13 466.63 516.41 466.76 518.35 467.87 516.11 473.08 514.92 474.25 515.94 477.72 514.85 484.43 513.51 485.3 512.42 487.77 510.8 489.99 509.98 492.03 510.29 497.18 507.43 502.65 506.97 505.93 508.26 509.42 506.45 511.92 505.09 515.7 506.33 518.15 502.9 520.01 502.72 521.92 500.58 524.15 497.55 526.59 493.65 526.72 493.57 531.41 492.29 534.57 491.28 535.65 489.85 540.22 486.12 542.45 484.86 542.26 482.29 543.5 479.42 543.81 476.11 543.4 474.77 546.57 473.3 547.33 469.31 554.05 467.05 558.61 466.34 566.2 465.43 567.92 465.7 569.72 463.74 572.05 463.68 575.7 464.59 576.61 464.03 579.4 461.25 583.33 459.46 587.49 456.52 591.76 454.52 592.36 451.17 595.05 450.09 596.98 450.53 599.56 448.48 601.5 447.43 603.78 447.54 605.81 446.52 606.91 446.14 609.78 441.49 613.24 439.29 616.38 440.27 619.74 437.93 621.99 437.76 623.33 438.95 625.77 439.27 628.17 444.35 631.23 442.78 634.95 442.35 637.42 440.27 639.62 440.24 641.4 438.75 642 437.9 643.8 437.11 647.59 437.44 648.64 435.54 651.01 435.37 652.32 433.79 652.76 431.25 655.19 430.28 661.01 429.05 662.09 426.89 667.97 427.17 672.44 424.89 676.39 422.65 675.84 420.68 674.15 419.44 672.05 418.09 671.82 416.52 673.44 414.65 673.73 412.43 675.04 409.84 674.61 406.28 676.61 404.31 679.26 403.55 681.06 403.18 684.91 405.09 686.88 406.7 692.08 404.5 695.92 400.61 697.43 399.32 700.65 396.73 701.85 395.06 699.94 393.24 699.96 390.76 698.07 390.05 694.5 390.53 693.77 388.41 691.63 388.28 689.87 386.17 688.68 383.2 691.49 380.02 690.67 379.46 688.52 376.79 687.28 372.72 687.54 371 686.26 369.78 686.55 367.37 684.07 363.74 683.99 360.87 683.27 359.87 684.14 359.23 686.21 361.27 689.22 358.15 692.72 355.3 694.26 350.72 693.32 347.22 690.01 344.72 689.52 343.15 686.49 338.77 684.07 338.31 682.31 334.31 682.07 329.99 681.18 329.16 679.88 324.09 681.83 325.04 677.1 323.96 675.04 325.91 669.05 325.95 665.81 324.63 662.72 326.34 658.83 329.26 655.19 330.1 653.47 329.99 649.77 330.86 648.3 330.63 643.15 331.26 641.99 334.08 642.16 337.89 640.92 342.43 641.05 343.34 639.55 343.81 635.63 345.62 635.05 347.91 632.56 348.79 630.32 348.32 627.87 350.7 625.91 353.23 624.9 354.99 620.42 354.68 618.01 357.49 615.47 357.9 613.47 357.99 609.42 359.4 607.16 357.25 604.12 358.46 601.43 358.38 599.45 359.05 597.57 362.56 594.44 364.39 590.81 365.34 585.59 365.24 584.34 366.69 582.68 364.04 577.71 363.81 576.36 359.28 575.46 356.75 575.67 356.96 574.5 355.92 571.61 356.19 569.56 355.66 567.65 352.6 565.54 352.26 562.96 348.83 558.33 348.67 554.31 349.61 552.21 348.05 548.9 350.28 546.17 352.15 543.02 349.29 538.29 349.82 537.23 348.95 535.6 345.4 532.25 345.08 530.17 342.77 528.98 340.14 528.76 337.98 527.94 336.91 526.83 336.26 523.06 333.61 522.89 330.84 517.12 329.47 516.39 330.08 514.82 327.74 509.72 327.6 508.37 324.9 507.29 323.77 505.2 321.49 504.8 321.02 503.3 321.27 500.24 319.1 498.76 321.79 495.26 320.92 494.76 319.27 490.69 321.4 487.56 323.63 485.67 324.71 484.03 324.11 482.56 323.91 478.8 324.3 477.19 323.59 474.43 324.96 472.9 328.18 464.26 330.54 463.92 331.75 461.26 330.56 459.41 326.42 459.47 327.42 453.7 326.34 451.91 326.18 449.36 320.14 444.31 320.84 438.46 325.7 435.09 327.91 434.82 328.12 432.3 332.1 429.11 333.75 426.19 336.91 426.9 339.88 423.76 340.86 421.62 344.25 419.03 345.95 417.13 348.54 415.51 352.04 412.01 352.47 411.02 355.62 409.91 357.57 407.63 362.37 407.95 365.13 409.49 366.26 407.26 367.37 406.86 367.43 404.08 368.53 401.47 371.36 400.98 375.17 398.91 376.83 398.73 377.9 397.42 381.18 396.8 383.18 397.21 385.37 402.26 387.95 401.35 390.59 401.1 392.33 400.35 396.3 401.56 397.79 401.13 402.23 398.04 406.54 397.69 408.16 396.95 410.06 398.07 411.33 400.18 415.06 400.79 415.88 401.37 421.59 398.78 423.4 397.19 424.46 395.24 427.45 394 429.21 391.91 430.5 388.32 429.64 387.16 429.7 383.84 430.83 382.65 431.03 380.8 432.27 379.06 433.53 374.81 437.35 372.4 438.61 370.94 441.78 369.88 442.55 372.4 444.26 374.85 444.58 377.57 445.92 378.64 443.27 382.74 443.69 384.26 447.07 386.32 452.44 386.41 454.33 387.33 455.42 385.47 458.14 385.72 459.63 380.93 458.28 378.71 460.12 377.41 460.33 375.85 461.55 375.43 462.99 373.04 463.52 370.66 463.33 368.36 464.35 366.25 468.57 366.22 469.38 365.64 470.47 361.89 471.26 360.6 475.46 358.81 477.86 360.29 479.95 359.17 480.88 356.59 481.1 354.16 482.57 353.8 489.56 358.79 491.17 359.3 495.02 361.47 496.95 363.2 498.28 362.13 501.19 363.47 502.26 362.06 504.45 361.62 506.72 358.88 507.63 358.89 512.39 354.66 512.74 352.64 516.45 350.21 517.25 345.57 518.93 343.24 521.4 341.82 522.88 342.54 525.45 340.98 527.46 342.37 529.96 342.52 532.82 343.27 534.26 344.26 534.39 345.74 537.49 350.66 Z" id="35550110"/>
<path d="M 319.27 490.69 320.92 494.76 321.79 495.26 319.1 498.76 321.27 500.24 321.02 503.3 321.49 504.8 323.77 505.2 324.9 507.29 327.6 508.37 327.74 509.72 330.08 514.82 329.47 516.39 330.84 517.12 333.61 522.89 336.26 523.06 336.91 526.83 337.98 527.94 340.14 528.76 342.77 528.98 345.08 530.17 345.4 532.25 348.95 535.6 349.82 537.23 349.29 538.29 352.15 543.02 350.28 546.17 348.05 548.9 349.61 552.21 348.67 554.31 348.83 558.33 352.26 562.96 352.6 565.54 355.66 567.65 356.19 569.56 355.92 571.61 356.96 574.5 356.75 575.67 359.28 575.46 363.81 576.36 364.04 577.71 366.69 582.68 365.24 584.34 365.34 585.59 364.39 590.81 362.56 594.44 359.05 597.57 358.38 599.45 358.46 601.43 357.25 604.12 359.4 607.16 357.99 609.42 357.9 613.47 357.49 615.47 354.68 618.01 354.99 620.42 353.23 624.9 350.7 625.91 348.32 627.87 348.79 630.32 347.91 632.56 345.62 635.05 343.81 635.63 343.34 639.55 342.43 641.05 337.89 640.92 334.08 642.16 331.26 641.99 330.63 643.15 330.86 648.3 329.99 649.77 330.1 653.47 329.26 655.19 326.34 658.83 324.63 662.72 325.95 665.81 325.91 669.05 323.96 675.04 325.04 677.1 324.09 681.83 323.24 682.8 323.76 684.63 322.85 687.46 321.98 696.99 322.37 699.9 320.38 702.95 320.12 704.33 321.41 705.67 320.59 709.98 317.06 712.95 314.24 713.9 312.91 713.59 309.15 715.15 307.25 716.41 303.63 717.44 300.89 717.37 295.67 716.13 295.85 714.16 295.34 710.11 292.25 703.29 291.41 702.46 289.64 698.45 287.94 697.62 286.52 692.43 286.91 690.73 285.93 688.5 282.46 686.53 280.57 683.08 279.48 679.94 274.98 676.73 273.76 674.62 272.13 674.62 269.66 677.12 265.39 677.31 263.83 675.1 260.37 672.27 258.93 672.22 255.6 673.78 252.63 672.22 249.06 673.73 246.33 673.04 242.86 669.8 242.78 666.06 242.25 663.86 239.26 662.24 236.63 661.51 234.41 658.95 232.16 659.61 226.92 657.84 222.31 654.2 220.39 651.54 219.09 648.28 223.8 644.31 225.39 646.09 228.35 645.13 229.54 643.96 234.75 642.37 236.69 642.9 240.31 641.79 242.02 640.36 243.28 637.94 244.82 638.25 246.45 636.93 250.81 636.65 252.77 635.59 258.11 631.4 259.82 631.32 261.63 627.36 259.61 626.58 258.43 622.19 258.7 619.19 257.88 616.55 259.98 613.57 260.43 611.2 258.12 608.78 259.88 604.88 257.31 601.69 258.6 598.1 261.56 599.07 263.88 592.09 265.02 591.27 264.27 588.08 264.81 586.22 263.33 585.38 262.51 581.99 260.92 581.95 259.81 579.43 258.02 576.93 255.26 574.23 251.43 568.54 246.94 565.99 244.99 564.03 243.97 565.05 241.42 566.05 240.18 567.38 237.56 567.54 236.77 569.07 234.52 570.79 230.73 571.91 227.8 570.42 221.73 571.26 219.86 570.92 218.03 572.49 212.74 576.05 206.31 576.57 204.3 574.07 200.86 572.79 199.3 576.33 196.77 579.36 196.71 581.5 194.74 583.37 193.55 583.56 191.35 579.19 191.2 577.71 189.86 573.97 188.61 573.21 186.62 570.81 185.33 567.88 185.43 564.98 186.14 561.98 183.98 560.74 183.01 557.7 183.44 554.54 181.01 552.49 179.92 548.19 171.65 546.21 168.77 542.39 166.8 537.31 165.35 535.87 165.75 534.33 168.35 528.33 168.54 524.61 171.67 520.93 172.25 519.56 173.24 514.42 177.86 515.8 180.82 517.59 182.23 517.59 187.34 515.68 193.39 517.1 195.69 516.99 197.84 519.37 202.03 520.49 206.34 524.73 208.91 525.14 210.99 526.38 213.68 526.68 216.7 527.79 218.13 530.02 218.85 533.66 224.23 533.98 225.91 530.88 230.36 526.29 232.18 526.67 232.94 523.31 232.59 520.85 234.95 516.94 235.14 513.88 239.01 510 240.63 509.52 242.29 506.94 246.32 505.7 248.03 504.14 250.45 503.54 252.98 505.31 253.79 506.9 258.66 511.29 260.93 514.01 263.06 517.5 268.33 516.48 269.54 512.63 275.05 510.51 277.81 510.97 280.39 508.98 287.47 507.38 289.98 504.77 293.66 502.46 295.56 503.11 299.05 502.71 301.75 503.66 304.13 502.22 306.11 500.41 305.03 497.82 306.31 494.13 308.62 492.21 311.67 493.49 314.43 493.65 319.27 490.69 Z" id="35550310"/>
<path d="M 246.08 347.7 243.47 349.69 242.18 355.05 242.3 356.12 240.85 357.88 239.86 362.8 240.11 365.34 237.98 368.7 236.45 369.76 235.79 372.2 234.89 372.66 233.58 377.19 234.4 380.69 236.54 382.63 238.07 382.73 241.11 385.97 242.68 386.58 244.02 389.08 247.92 394.52 247.95 397.11 249.03 399.51 248.96 402 248.25 406.79 248.4 409.33 249.33 410.81 251.86 412.83 253.24 415.4 253.34 417.78 254.13 421.51 252.8 423.86 257.27 424.06 265.28 422.5 265.69 425.16 268.12 433.01 271.23 440.35 274.26 446.44 278.07 445.27 280.52 444.15 284.2 438.79 287.79 439.14 289.64 438.24 293.47 435.46 295.38 435.28 298.75 435.8 310.2 435.77 315.17 433.32 317.48 433.98 319.26 436.99 320.84 438.46 320.14 444.31 326.18 449.36 326.34 451.91 327.42 453.7 326.42 459.47 330.56 459.41 331.75 461.26 330.54 463.92 328.18 464.26 324.96 472.9 323.59 474.43 324.3 477.19 323.91 478.8 324.11 482.56 324.71 484.03 323.63 485.67 321.4 487.56 319.27 490.69 314.43 493.65 311.67 493.49 308.62 492.21 306.31 494.13 305.03 497.82 306.11 500.41 304.13 502.22 301.75 503.66 299.05 502.71 295.56 503.11 293.66 502.46 289.98 504.77 287.47 507.38 280.39 508.98 277.81 510.97 275.05 510.51 269.54 512.63 268.33 516.48 263.06 517.5 260.93 514.01 258.66 511.29 253.79 506.9 252.98 505.31 250.45 503.54 248.03 504.14 246.32 505.7 242.29 506.94 240.63 509.52 239.01 510 235.14 513.88 234.95 516.94 232.59 520.85 232.94 523.31 232.18 526.67 230.36 526.29 225.91 530.88 224.23 533.98 218.85 533.66 218.13 530.02 216.7 527.79 213.68 526.68 210.99 526.38 208.91 525.14 206.34 524.73 202.03 520.49 197.84 519.37 195.69 516.99 193.39 517.1 187.34 515.68 182.23 517.59 180.82 517.59 177.86 515.8 173.24 514.42 172.25 519.56 171.67 520.93 168.54 524.61 168.35 528.33 165.75 534.33 165.35 535.87 163.65 536.29 156.63 540.85 153.98 540.53 150.39 542.04 145.42 541.82 140.58 539.3 138.23 540.32 133.94 540.29 131.62 540.81 130.01 542.14 126.76 543.54 119.12 545.82 115.71 547.75 112.4 550.41 110.85 553.51 109.45 554.19 109.6 557.23 111.7 567.78 110.84 572.91 108.98 574.93 108.95 578.18 107.19 581.55 106.53 583.83 106.7 586.18 107.83 589.61 105.9 590.86 102.34 590.06 100.78 590.52 97.82 587.98 93.88 588.24 92.6 587.5 87.29 589.53 80.52 591.12 76.91 592.85 76.16 594.62 78.52 601.22 77.16 603.16 74.72 604.19 73.11 606.41 70.58 607.81 65.28 607.49 62.47 605.47 60.34 602.44 59.97 599.63 58.45 598.11 53.45 598.43 51.83 597.97 50.59 598.84 48.75 597.49 45.54 596.25 40.87 596.04 37.46 597.35 33.65 596.28 31.46 592.82 29.16 591.4 27.5 591.43 25.7 588.25 21.87 584.43 20.73 579.42 21.09 577.48 16.99 575 14.83 572.06 13.97 568.09 13.61 564.72 14.24 563.47 14.01 560.71 12.32 559.28 9.61 559.92 9.68 557.8 7.27 554.63 3.96 551.69 4.05 549.25 2.04 546.88 2.26 544.27 1.53 543.35 1 540.51 1.93 538.89 1.1 536.23 5.3 532.52 7.02 531.56 8.31 529.79 12.54 528.85 15.37 528.73 17.08 529.17 19.62 530.78 23.6 528.66 24.44 529.09 27.25 527.78 31.25 528.04 32.5 526.38 35.36 525.73 37.15 522.99 39.59 522.67 41.84 520.57 45.02 520.37 45.99 514.08 47.13 511.13 47.39 508.51 49.68 506.38 50.04 504.48 44.7 496.7 43.02 495.15 40.53 488.91 41.77 488.47 40.08 484.97 40.47 482.94 39.13 480.93 30.21 471.82 29.65 468.12 28.3 466.5 25.21 463.88 23.57 463.74 22.17 458.38 19.34 457.36 17.56 452.91 17.97 451.7 17.32 448.64 18.28 442.77 18.34 441.04 20.42 437.26 20.28 435.94 23.46 432.87 28.07 433.84 29.1 434.36 32.8 434.45 36.02 437.19 39.42 437.92 43.87 440.44 45.56 440.97 48.48 440.86 52.44 439.11 54.93 436.63 57.86 432.91 57.89 430.36 62.34 427.02 65.04 426.43 67.12 424.81 70.03 426.67 71.04 426.46 71.66 422.76 72.86 419.94 72.01 418.34 73.9 416.68 75.28 416.37 77.54 413.64 77.89 410.2 82.13 407.19 80.64 406.57 80.45 402.81 80.87 399.33 83.23 401.25 88.34 400.21 89.57 399.22 91.54 394.45 93.74 393.49 93.99 391.35 97.8 395.45 99.23 395.29 101.76 392.98 103.51 390.42 105.43 390.24 107.57 385.97 111.48 381.49 110.31 379.02 113.89 374.23 111.74 372.91 112.41 370.77 112.16 369.07 115.93 364.31 119.75 362.98 122.05 363.43 124.91 362.44 126.98 360.85 129.24 361.21 131.7 360.12 132.39 361.31 134.42 362.48 138.05 363.48 142.68 366.68 144.25 364.01 148.12 360.92 149.39 358.59 150.79 357.69 150.9 354.18 150.2 351.09 152.2 346.67 151.56 343.85 153.69 341.8 154.59 339.72 155.28 334.38 158.39 332.07 159.04 330.62 157.86 328.78 158.44 325.21 159.52 324.38 155.99 321.45 152.91 317.71 151.67 315.41 151.3 310.3 154.89 302.15 157.56 301.93 159.7 304.27 163.96 304.63 167.39 303.38 171.3 303.05 173.96 302.41 175.15 304.95 179.58 306.86 183.16 305.02 186.06 305.49 190.72 303.13 192.34 301.68 197.02 302.14 199.18 304.59 200.48 307.41 202.28 308.37 206.16 312.29 211.6 315.21 214.93 315.55 219.12 320.44 221.71 320.99 224.52 323.94 228.47 325.42 228.73 326.72 230.65 328.56 231.89 333.55 236.11 334.72 240.66 334.69 242.76 338.49 244.24 340.42 244.81 343.8 246.08 347.7 Z" id="35550320"/>
<path d="M 441.78 369.88 438.61 370.94 437.35 372.4 433.53 374.81 432.27 379.06 431.03 380.8 430.83 382.65 429.7 383.84 429.64 387.16 430.5 388.32 429.21 391.91 427.45 394 424.46 395.24 423.4 397.19 421.59 398.78 415.88 401.37 415.06 400.79 411.33 400.18 410.06 398.07 408.16 396.95 406.54 397.69 402.23 398.04 397.79 401.13 396.3 401.56 392.33 400.35 390.59 401.1 387.95 401.35 385.37 402.26 383.18 397.21 381.18 396.8 377.9 397.42 376.83 398.73 375.17 398.91 371.36 400.98 368.53 401.47 367.43 404.08 367.37 406.86 366.26 407.26 365.13 409.49 362.37 407.95 357.57 407.63 355.62 409.91 352.47 411.02 352.04 412.01 348.54 415.51 345.95 417.13 344.25 419.03 340.86 421.62 339.88 423.76 336.91 426.9 333.75 426.19 332.1 429.11 328.12 432.3 327.91 434.82 325.7 435.09 320.84 438.46 319.26 436.99 317.48 433.98 315.17 433.32 310.2 435.77 298.75 435.8 295.38 435.28 293.47 435.46 289.64 438.24 287.79 439.14 284.2 438.79 280.52 444.15 278.07 445.27 274.26 446.44 271.23 440.35 268.12 433.01 265.69 425.16 265.28 422.5 257.27 424.06 252.8 423.86 254.13 421.51 253.34 417.78 253.24 415.4 251.86 412.83 249.33 410.81 248.4 409.33 248.25 406.79 248.96 402 249.03 399.51 247.95 397.11 247.92 394.52 244.02 389.08 242.68 386.58 241.11 385.97 238.07 382.73 236.54 382.63 234.4 380.69 233.58 377.19 234.89 372.66 235.79 372.2 236.45 369.76 237.98 368.7 240.11 365.34 239.86 362.8 240.85 357.88 242.3 356.12 242.18 355.05 243.47 349.69 246.08 347.7 247.96 348.32 252.39 346.64 253.9 344.86 257.06 343.77 258.44 341.99 262.73 339.62 266.21 340.63 268.2 341.67 271.52 344.17 272.7 345.71 275.3 345.68 277.3 346.21 279.13 344.47 279.35 341.71 281.3 339.5 280.81 336.39 281.92 332.69 284.08 330.25 286.41 329.46 287.85 327.27 290.59 326.26 291.09 327.94 294.01 328.68 296.18 330.31 298.54 331.41 300.33 331.07 300.45 327.77 302.43 323.03 301.65 319.01 300.34 317.47 297.12 310.86 295.65 309.01 295.63 305.25 294.72 303.76 295.78 302.02 298.01 300.15 299.34 299.74 301.79 296.81 303.34 296.61 304.76 298.11 308.86 297.7 311.07 299.64 314.2 299.23 314.4 295.09 314.03 293.27 314.07 285.28 314.85 284.37 317.94 283.58 320.18 281.5 322.02 280.8 323.71 281.44 326.24 280.73 329.12 280.72 330.2 282.46 332.97 285.1 338.19 286.66 339.67 286.38 342.03 288.34 342.8 292.8 344.16 292.42 346.66 293.21 348.87 292.48 350.68 290.54 352.77 289.92 355.11 287.39 358.14 285.43 359.21 282.6 360.86 280.75 362.6 277.22 364.63 278.94 368.42 280.36 371.28 279.97 373.34 283.05 373.58 285.6 375.01 289.47 376.49 291.08 377.84 294.25 380.78 293.89 386.15 294.15 390.52 295.75 394.59 301.92 398.21 303.34 401.53 302.61 404.31 307.48 407.35 307.37 409.53 309.74 411.46 310.15 412.97 306.08 414.62 305.68 419.63 308.63 420.95 308.8 424.32 313.23 430.64 318.4 433.34 322.37 434.01 325.14 434.06 327.68 433.3 330.76 435.22 331.87 436.61 331.61 435.84 334.75 431.56 341.6 431.15 345.59 431.7 352.36 432.86 354.47 435.08 357.3 436.28 358.11 436.6 360.29 437.92 363.61 439.91 365.07 440.93 366.83 441.78 369.88 Z" id="35550330"/>
<path d="M 799 429.95 796.41 431.99 792.6 434.4 790.85 434.98 789.54 436.83 789.11 438.55 787.42 439.68 785.88 439.77 783.05 441.06 781.51 444.55 777.74 445.67 776.87 449.72 775.35 450.84 773.15 449.57 770.45 449.32 768.87 450.33 766.82 449.9 764.82 450.56 761.51 449.23 759.55 450.11 753.3 451.57 749.63 453.17 745.74 451.57 742.52 449.82 739.98 450.01 735.31 451.61 733.15 453.98 729.1 454.27 727.08 452.45 725.38 453.8 722.92 453.4 720.26 455.68 714.82 455.81 712.64 454.94 709.09 455.08 705.36 453.6 702.72 452.14 695.53 451 692.99 451.33 690.06 448.35 687.58 451.01 682.43 453.81 675.66 455.19 672.09 454 671.78 455.98 670.61 457.89 670.34 460.38 670.53 464.05 665.91 465.42 664.61 467.05 662.34 467.67 660.52 469.34 659.8 471.27 658.21 472.91 655.43 474.67 654.55 473.65 651.88 473.16 651.13 474.35 647.89 474.29 646.63 474.83 644.39 474.37 642.76 475.99 639.65 478.21 638.73 479.67 635.9 480.48 631.42 479.51 629.95 478.09 624.3 479.65 621.31 479.31 618.47 480.04 614.6 479.67 611.61 478.24 604.74 478.92 601.35 478.65 599.24 479.17 597.51 481.01 595.91 484.21 594.46 484.94 590.99 491.59 589.22 496.93 586.36 500.25 584 504.01 583.05 508.05 581.62 511.6 578.88 514.46 579.42 516.1 578.03 518.96 578.95 521.38 577.59 523.62 577.68 525 576.45 527.3 574.12 530.23 574.83 532.67 571.39 536.67 569.15 537.86 566.88 538.33 565.48 537.84 562.05 539.65 559.53 539.89 557.56 538.12 555.35 538.14 552.02 537.34 551.24 536.05 548.57 534.43 547.51 531.9 545.13 532.58 542.64 532.33 542.65 529.39 540.07 526.42 538.37 526.19 531.86 527.31 527.27 527.22 527.25 526.02 524.53 525.29 524.16 522.98 521.61 522.78 518.88 521.8 515.2 519.15 510.89 517.71 508.77 517.46 506.58 516.01 505.09 515.7 506.45 511.92 508.26 509.42 506.97 505.93 507.43 502.65 510.29 497.18 509.98 492.03 510.8 489.99 512.42 487.77 513.51 485.3 514.85 484.43 515.94 477.72 514.92 474.25 516.11 473.08 518.35 467.87 516.41 466.76 514.13 466.63 513.35 463.54 513.66 462.23 511.05 459.02 509.93 456.59 506.93 457.17 506.34 456.36 503.21 455.46 501.81 451.26 502.13 449.32 503.83 445.63 503.49 443.99 505.07 440.94 501.42 437.1 502.66 435.99 502.4 431.89 501.14 429.84 501.7 426.17 502.84 424.41 503 421.28 500.23 418.82 499.8 417.57 494.59 414.4 491.57 412.18 488.65 412.43 487.18 411.4 485.04 411.17 483.2 410.27 482.64 412.68 480.43 415.48 478.05 415.49 476.77 411.76 476.15 411.09 477.05 407.14 480.19 405.48 482.92 403.24 483.8 404.28 485.83 404.06 487.74 401.87 487.76 399.66 489.56 398.06 494.94 397.58 497.53 395.16 504.98 394.84 507.64 396.15 509.94 395.36 512.46 391.67 515.85 390.42 516.47 386.85 519.19 385.72 519.88 384.72 522.39 383.56 522.91 377.76 521.74 375.62 523.08 374.84 526.88 374.79 529.02 373.45 528.72 371.17 530.38 370.65 532.71 367.96 533.27 366.59 532.82 363.15 534.9 358.6 534.46 356.06 534.8 353.25 535.82 351.58 537.49 350.66 539.47 350.37 543.2 348.23 544.45 346.64 547.09 348.92 547.67 350.62 551.73 350.47 552.34 352.21 555.86 353.27 558.79 353.13 559.38 354.81 561.39 358.12 561.82 360.1 563.2 361.32 567.54 363.05 573.6 358.91 574.12 356.97 577.01 354.55 578.33 351.8 579.4 351.35 578.54 347.23 579.97 345.03 581.83 343.68 581.81 342.14 585.25 337.9 586.63 334.34 585.29 331.58 586.9 330.99 591.93 326.34 592.49 325.09 598.88 321.88 600.23 320.97 605.85 321.08 609.27 322.78 610.73 324.08 615.35 323.22 617.84 321.81 620.52 323.48 621.94 326.11 624.38 326.95 625.6 329.71 626.76 331.03 628.2 330.3 632.78 329.33 633.99 328.19 634.43 326.47 636.96 324.88 641.55 324.35 643.49 318.48 648.33 318.06 653.04 316.48 656.61 316.95 659.92 315.07 663.97 315.91 666.17 313.45 667.42 315.77 667.72 318.22 668.63 319.16 668.73 321.12 669.61 323.48 667.43 329.25 668.05 331.64 667.59 335.19 668.27 337.24 667.57 339.01 667.4 341.91 670.38 342.22 676.9 340.84 681.22 340.69 682.21 339.08 685.1 340.54 688.52 337.93 691.21 339.18 691.68 341.52 696.62 343.97 700.88 350.06 708.3 348.89 711.77 347 714.21 347.7 716.32 351.13 716.88 352.82 718.6 353.22 720.86 354.99 725.83 357.28 727.51 359.01 730.45 360.71 735.84 361.66 739.76 366.14 740.3 367.9 745.01 368.88 753.13 374.41 758.65 377.49 764.35 379.44 773.83 377.92 780.71 374.97 782.38 380.67 784.39 383.97 787.71 386.97 789.61 390.23 790.7 395.69 788.47 397.79 785.67 403.25 786.29 405.5 785.83 408.24 787.66 411.67 789.39 413.87 791.73 414.7 795.34 418.75 796.52 423.88 796.63 427.45 799 429.95 Z" id="35550340"/>
<path d="M 571.39 536.67 571.77 539.2 572.84 540.99 571.92 543.37 571.68 547.14 575.48 555.77 574.03 557.8 573.57 559.78 573.77 563.2 572.28 563.81 571.93 566.46 570.85 566.69 570.57 569.26 569.58 572.29 568.45 574.08 568.32 576.59 566.54 578.85 566.13 581.04 568.04 582.53 567.04 584.03 567.36 585.65 564.58 585.94 564.34 586.98 566.43 590.66 564.96 592.45 565.14 595.19 566.12 597.87 564.33 599.91 564.19 603.19 557.99 617.35 556.84 621.77 558.72 624.56 560.2 625.79 563.4 627.33 564.55 629.96 566.52 630.19 567.47 629.11 569.23 630.3 569.54 637.33 573.75 636.88 575.8 639.56 578.53 640.07 580.29 643.08 579.86 643.99 581.39 645.75 582.67 645.74 583.96 647.94 586.4 648.07 587.68 649.39 590.81 650.93 593.07 650.54 595.25 651.28 597.6 649.85 598.92 651.5 600.68 652.1 601.38 655.05 602.42 656.63 603.99 657.59 604.16 664.85 604.93 665.37 605.15 670.46 601.33 670.76 601.26 671.85 598.76 674.32 599.27 678.08 597.6 680.41 598.02 685.59 594.56 690.2 594.6 693.35 591.35 694.62 590.83 695.5 588.05 697.02 583.87 696.96 582.85 692.66 579.78 691.85 577.21 691.87 577.08 697.67 577.82 699.12 580.92 701.63 582.62 704.24 587.85 710.48 589.2 712.61 592.77 714.01 595.08 718.15 596.69 719.79 599.73 720.42 603.95 723.95 607.27 727.08 608.83 727.71 611.32 731.12 613.58 732.57 614.02 736.04 616.01 738.91 616.44 744.46 615.82 747.16 616.89 749.74 616.8 753.09 618.91 755.61 619.52 761.92 620.58 763.53 621.05 765.96 619.81 766.29 619.39 768.78 616.53 766.36 613.84 769.45 613.58 772.05 612.22 773.38 612.53 775.1 608.46 777.27 605.01 777.73 603.26 776.49 599.93 776.94 598.22 778.56 592.61 777.97 589.62 778.78 586.44 778.14 584.16 780.61 583.79 782.73 580.2 785.58 577.65 785.33 574.27 786.39 572.26 787.74 571.74 788.95 568.28 791.23 562.8 790.49 562.73 789.16 561.06 788.32 555.16 783.48 552.19 781.53 548.78 780.73 546.22 781.75 539.28 785.11 536.56 787.03 534.63 786.53 532.57 782.34 529.42 781.61 524.54 779.36 523.69 778.04 519.55 779.9 518.17 781.02 516.02 785.3 513.4 794.69 513.73 796.52 509.82 799.53 510.22 803.14 509.13 806.2 505.87 805.71 500.56 805.57 497.43 802.64 497.55 797.81 496.94 796.93 492.35 794.72 489.96 792.9 491.33 790.2 492.92 788.19 492.88 786.76 494.18 785.28 494.01 783.4 494.74 782.04 493.82 777.52 495.9 776.57 498.96 772.2 499.94 768.45 501.15 765.81 502.71 764.05 506.1 762.72 513.69 761.63 514.98 759.24 516.1 753.05 517.41 750.95 518.45 747.23 517.8 745.94 519.87 743.31 520.04 740.51 522.06 737.63 522.43 736.36 526.08 728.98 527.56 725.26 528.43 721.5 529.41 719.33 529.9 716.72 531.47 715.17 531.16 713.58 533.66 714.05 534.06 710.55 533.86 706.34 532.29 703.86 533.58 701.52 532.61 699.09 533.09 697.23 532.2 695.64 533.6 694.43 533.31 692.94 534.1 690.86 535.37 689.3 535 687.46 533.6 687.91 530.16 684.61 529.63 683.35 527.02 681.67 528.33 678.79 525.88 677.32 524.76 674.61 520.81 673 516.7 671.69 515.02 667.94 514.03 667.56 514.33 664.37 513.54 663.94 510.78 660.44 506.81 659.7 501.07 652.56 497.91 653.78 496.75 653.62 494.09 654.68 490.76 654.63 489.43 653.8 487.71 654.71 486.99 656.78 484.19 657.39 483.86 658.37 481.73 659.29 480.36 662.95 478.63 661.55 476.07 660.72 473.92 660.88 471.33 659.51 468.3 656.66 468.81 652.74 466.83 650.15 466.81 649.12 464.22 645.05 462.27 644.28 460.3 642.67 456.59 642 453.53 640.5 449.9 640.53 446.97 639.36 445.36 638.18 442.78 634.95 444.35 631.23 439.27 628.17 438.95 625.77 437.76 623.33 437.93 621.99 440.27 619.74 439.29 616.38 441.49 613.24 446.14 609.78 446.52 606.91 447.54 605.81 447.43 603.78 448.48 601.5 450.53 599.56 450.09 596.98 451.17 595.05 454.52 592.36 456.52 591.76 459.46 587.49 461.25 583.33 464.03 579.4 464.59 576.61 463.68 575.7 463.74 572.05 465.7 569.72 465.43 567.92 466.34 566.2 467.05 558.61 469.31 554.05 473.3 547.33 474.77 546.57 476.11 543.4 479.42 543.81 482.29 543.5 484.86 542.26 486.12 542.45 489.85 540.22 491.28 535.65 492.29 534.57 493.57 531.41 493.65 526.72 497.55 526.59 500.58 524.15 502.72 521.92 502.9 520.01 506.33 518.15 505.09 515.7 506.58 516.01 508.77 517.46 510.89 517.71 515.2 519.15 518.88 521.8 521.61 522.78 524.16 522.98 524.53 525.29 527.25 526.02 527.27 527.22 531.86 527.31 538.37 526.19 540.07 526.42 542.65 529.39 542.64 532.33 545.13 532.58 547.51 531.9 548.57 534.43 551.24 536.05 552.02 537.34 555.35 538.14 557.56 538.12 559.53 539.89 562.05 539.65 565.48 537.84 566.88 538.33 569.15 537.86 571.39 536.67 Z" id="35550350"/>
<path d="M 233.28 118.07 235.99 120.79 236.78 122.59 238.38 124.15 236.81 126.34 237.78 130.29 240.91 131.34 244.12 133.87 246.73 134.25 249.03 133.52 251.28 134.92 257.52 135.05 258.12 137.64 259.31 138.35 259.92 140.05 259.1 144.5 262.38 146.38 266.64 146.21 269.38 147.74 277.08 150.61 278.4 151.95 278.31 154.89 279.96 157.76 280.2 162.22 279.26 164.42 278.19 170.8 277.4 172.88 277.31 174.95 278.68 176.92 281.12 178.94 282.38 187.22 284.22 188.91 286.49 189.99 288.76 188.37 292 187.31 295.7 186.61 297.82 187.18 305.06 186.99 308.53 184.28 313.94 183.33 315.85 182.58 318.59 182.33 322.04 186.26 323.68 186.69 326.32 190.92 329.4 192.55 333.34 196.63 337.45 202.26 340.22 203.8 341.83 203.31 346.5 205.42 346.94 208.63 349.19 212.69 353.1 215.71 353.98 217.78 357.28 220.44 359.4 225.54 359 227.92 359.62 231.76 359.32 235.21 357.49 236.9 354.89 243.24 356.46 244.11 356.79 247.16 358.54 249.97 360.36 254.49 360.86 257.01 359.72 259.74 360.41 261.43 363.09 264.4 363.32 266.35 362.31 269.59 360.43 272.3 362.6 277.22 360.86 280.75 359.21 282.6 358.14 285.43 355.11 287.39 352.77 289.92 350.68 290.54 348.87 292.48 346.66 293.21 344.16 292.42 342.8 292.8 342.03 288.34 339.67 286.38 338.19 286.66 332.97 285.1 330.2 282.46 329.12 280.72 326.24 280.73 323.71 281.44 322.02 280.8 320.18 281.5 317.94 283.58 314.85 284.37 314.07 285.28 314.03 293.27 314.4 295.09 314.2 299.23 311.07 299.64 308.86 297.7 304.76 298.11 303.34 296.61 301.79 296.81 299.34 299.74 298.01 300.15 295.78 302.02 294.72 303.76 295.63 305.25 295.65 309.01 297.12 310.86 300.34 317.47 301.65 319.01 302.43 323.03 300.45 327.77 300.33 331.07 298.54 331.41 296.18 330.31 294.01 328.68 291.09 327.94 290.59 326.26 287.85 327.27 286.41 329.46 284.08 330.25 281.92 332.69 280.81 336.39 281.3 339.5 279.35 341.71 279.13 344.47 277.3 346.21 275.3 345.68 272.7 345.71 271.52 344.17 268.2 341.67 266.21 340.63 262.73 339.62 258.44 341.99 257.06 343.77 253.9 344.86 252.39 346.64 247.96 348.32 246.08 347.7 244.81 343.8 244.24 340.42 242.76 338.49 240.66 334.69 236.11 334.72 231.89 333.55 230.65 328.56 228.73 326.72 228.47 325.42 224.52 323.94 221.71 320.99 219.12 320.44 214.93 315.55 211.6 315.21 206.16 312.29 202.28 308.37 200.48 307.41 199.18 304.59 197.02 302.14 192.34 301.68 190.72 303.13 186.06 305.49 183.16 305.02 179.58 306.86 175.15 304.95 173.96 302.41 171.3 303.05 167.39 303.38 163.96 304.63 159.7 304.27 157.56 301.93 154.89 302.15 151.3 310.3 151.67 315.41 152.91 317.71 155.99 321.45 159.52 324.38 158.44 325.21 157.86 328.78 159.04 330.62 158.39 332.07 155.28 334.38 154.59 339.72 153.69 341.8 151.56 343.85 152.2 346.67 150.2 351.09 150.9 354.18 150.79 357.69 149.39 358.59 148.12 360.92 144.25 364.01 142.68 366.68 138.05 363.48 134.42 362.48 132.39 361.31 131.7 360.12 129.24 361.21 126.98 360.85 124.91 362.44 122.05 363.43 119.75 362.98 116.07 355.16 115.04 353.81 112.54 352.59 110.93 351.11 110.58 348.72 111.64 345.93 108.56 342.89 107.73 340.75 104.06 336.8 102.77 336.94 99.24 332.67 101.9 329.42 104.15 329.05 103.12 322.41 105.52 320.1 104.37 316.45 106.1 315.18 106.69 313.78 109.53 311.35 109.36 308.99 109.54 301.84 108.02 298.3 106.6 296.48 103.58 295.64 100.09 294 97.96 285.62 98.39 283.46 97.96 280.82 98.17 277.93 99.22 275.87 96.49 274.77 93.76 272.74 93.79 270.63 97.07 264.22 95.76 259.26 96.22 254.42 95.12 252.18 94.77 247.21 93.32 245.45 95.22 243.59 95.88 240.95 99.97 240.2 101.77 239.25 105.98 239.45 107.75 236 108.02 230.27 107.45 227.78 109.95 225.31 114.59 221.79 118.71 215.05 124.55 212.21 123.05 210.52 121.85 200.03 122.64 195.79 123.66 194.29 125.73 192.74 124.69 191.55 124.82 187.93 127.55 181.03 125.69 176.99 125.85 174.51 126.93 171.48 126.72 169.88 125.33 166.98 127.56 163.35 129.12 164.03 131.42 163.99 132.86 163.09 134.51 163.24 133.78 160.26 137.9 157.12 140.03 156.26 141.04 157.25 143.6 154.84 144.13 153.63 145.76 153.97 149.61 152.74 154.03 147.89 158.64 146.47 161.15 146.79 163.12 146 165.98 147.94 169.12 148.22 171.29 150.02 174.92 148.65 176.89 146.95 179.47 146.02 181.04 143.36 180.85 139.65 187.05 133.33 188.41 131.51 190.66 130.86 191.63 128.3 196.15 126.04 199.06 122.42 201.51 122.36 206.03 121.14 207.74 117.55 211.23 115.51 213.56 112.22 215.35 112.04 217.62 112.92 219.53 115.96 223.27 117.14 231.29 117.49 233.28 118.07 Z" id="35550360"/>
<path d="M 509.13 806.2 508.15 809.74 508.91 811.24 508.31 812.94 510.76 813.97 510.57 817.88 508.72 820.37 508.45 822.58 510.54 824.87 511.82 830.11 502.87 829.38 495.19 828.47 490.79 829.76 488.68 829.36 484.02 834.38 478.11 835.31 477.04 836.03 475.03 835.96 469.5 833.81 466.79 834.59 465.36 833.07 462.14 830.66 459.07 830 458.21 828.42 456.69 827.43 451.01 832.85 443.72 836.01 442.21 837.21 438.54 838.8 434.09 843.97 431.8 842.94 427.63 843.32 425.23 841.25 422.65 840.88 421.32 837.63 419.7 836.31 416.78 835.56 412.85 838.08 411.92 839.52 409.95 839.34 408.07 837.54 404.18 835.03 404.3 832.06 402.61 831.49 401.59 829.17 400.12 827.45 399.42 824.53 396.81 825.34 395.2 821.36 393.28 822.52 391.15 826.69 389.43 827.2 387.9 826.71 388.21 824.45 387.3 822.86 383.45 818.07 380.2 818.19 380.08 816.53 377.83 816.56 375.9 813.15 371.42 812.98 369.29 813.9 366.87 812.36 361.35 816.81 360.8 817.94 358.19 820.37 357.54 822.82 354.3 824.87 352.86 828.08 350.76 831.35 348.65 833.02 346.86 832.38 342.3 832.17 339.65 835.71 338.24 836.92 338.89 838.38 338.54 840.24 334.2 839.78 332.43 836.99 332.63 835.03 331.02 833.57 329.35 827.27 326.54 825.88 323.62 821.87 322.4 819.65 318.63 817.36 315.57 812.48 311.7 810.84 309.76 809.02 308.03 806.53 308.93 802.43 306.7 800.94 305.7 799.39 303.61 798.27 303.34 796.43 300.29 796.19 297.19 793.65 296.22 791.67 296.44 788.87 297.37 788.14 298.77 784.97 297.34 782.16 297.56 775.97 299.37 771.69 300.22 768.5 299.79 766.5 296.68 763.47 293.14 762 291.35 757.47 288.67 755.6 288.28 753.34 286.21 751.7 285.55 748.84 285.56 743.6 286.41 742.71 284.91 739 284.75 736.46 287.19 734.81 288.66 731.77 288.9 726.67 289.96 725.47 291.32 722.18 291.67 720.18 295.67 716.13 300.89 717.37 303.63 717.44 307.25 716.41 309.15 715.15 312.91 713.59 314.24 713.9 317.06 712.95 320.59 709.98 321.41 705.67 320.12 704.33 320.38 702.95 322.37 699.9 321.98 696.99 322.85 687.46 323.76 684.63 323.24 682.8 324.09 681.83 329.16 679.88 329.99 681.18 334.31 682.07 338.31 682.31 338.77 684.07 343.15 686.49 344.72 689.52 347.22 690.01 350.72 693.32 355.3 694.26 358.15 692.72 361.27 689.22 359.23 686.21 359.87 684.14 360.87 683.27 363.74 683.99 367.37 684.07 369.78 686.55 371 686.26 372.72 687.54 376.79 687.28 379.46 688.52 380.02 690.67 383.2 691.49 386.17 688.68 388.28 689.87 388.41 691.63 390.53 693.77 390.05 694.5 390.76 698.07 393.24 699.96 395.06 699.94 396.73 701.85 399.32 700.65 400.61 697.43 404.5 695.92 406.7 692.08 405.09 686.88 403.18 684.91 403.55 681.06 404.31 679.26 406.28 676.61 409.84 674.61 412.43 675.04 414.65 673.73 416.52 673.44 418.09 671.82 419.44 672.05 420.68 674.15 422.65 675.84 424.89 676.39 427.17 672.44 426.89 667.97 429.05 662.09 430.28 661.01 431.25 655.19 433.79 652.76 435.37 652.32 435.54 651.01 437.44 648.64 437.11 647.59 437.9 643.8 438.75 642 440.24 641.4 440.27 639.62 442.35 637.42 442.78 634.95 445.36 638.18 446.97 639.36 449.9 640.53 453.53 640.5 456.59 642 460.3 642.67 462.27 644.28 464.22 645.05 466.81 649.12 466.83 650.15 468.81 652.74 468.3 656.66 471.33 659.51 473.92 660.88 476.07 660.72 478.63 661.55 480.36 662.95 481.73 659.29 483.86 658.37 484.19 657.39 486.99 656.78 487.71 654.71 489.43 653.8 490.76 654.63 494.09 654.68 496.75 653.62 497.91 653.78 501.07 652.56 506.81 659.7 510.78 660.44 513.54 663.94 514.33 664.37 514.03 667.56 515.02 667.94 516.7 671.69 520.81 673 524.76 674.61 525.88 677.32 528.33 678.79 527.02 681.67 529.63 683.35 530.16 684.61 533.6 687.91 535 687.46 535.37 689.3 534.1 690.86 533.31 692.94 533.6 694.43 532.2 695.64 533.09 697.23 532.61 699.09 533.58 701.52 532.29 703.86 533.86 706.34 534.06 710.55 533.66 714.05 531.16 713.58 531.47 715.17 529.9 716.72 529.41 719.33 528.43 721.5 527.56 725.26 526.08 728.98 522.43 736.36 522.06 737.63 520.04 740.51 519.87 743.31 517.8 745.94 518.45 747.23 517.41 750.95 516.1 753.05 514.98 759.24 513.69 761.63 506.1 762.72 502.71 764.05 501.15 765.81 499.94 768.45 498.96 772.2 495.9 776.57 493.82 777.52 494.74 782.04 494.01 783.4 494.18 785.28 492.88 786.76 492.92 788.19 491.33 790.2 489.96 792.9 492.35 794.72 496.94 796.93 497.55 797.81 497.43 802.64 500.56 805.57 505.87 805.71 509.13 806.2 Z" id="35550370"/>
<path d="M 636.96 324.88 634.43 326.47 633.99 328.19 632.78 329.33 628.2 330.3 626.76 331.03 625.6 329.71 624.38 326.95 621.94 326.11 620.52 323.48 617.84 321.81 615.35 323.22 610.73 324.08 609.27 322.78 605.85 321.08 600.23 320.97 598.88 321.88 592.49 325.09 591.93 326.34 586.9 330.99 585.29 331.58 586.63 334.34 585.25 337.9 581.81 342.14 581.83 343.68 579.97 345.03 578.54 347.23 579.4 351.35 578.33 351.8 577.01 354.55 574.12 356.97 573.6 358.91 567.54 363.05 563.2 361.32 561.82 360.1 561.39 358.12 559.38 354.81 558.79 353.13 555.86 353.27 552.34 352.21 551.73 350.47 547.67 350.62 547.09 348.92 544.45 346.64 543.2 348.23 539.47 350.37 537.49 350.66 534.39 345.74 534.26 344.26 532.82 343.27 529.96 342.52 527.46 342.37 525.45 340.98 522.88 342.54 521.4 341.82 518.93 343.24 517.25 345.57 516.45 350.21 512.74 352.64 512.39 354.66 507.63 358.89 506.72 358.88 504.45 361.62 502.26 362.06 501.19 363.47 498.28 362.13 496.95 363.2 495.02 361.47 491.17 359.3 489.56 358.79 482.57 353.8 481.1 354.16 480.88 356.59 479.95 359.17 477.86 360.29 475.46 358.81 471.26 360.6 470.47 361.89 469.38 365.64 468.57 366.22 464.35 366.25 463.33 368.36 463.52 370.66 462.99 373.04 461.55 375.43 460.33 375.85 460.12 377.41 458.28 378.71 459.63 380.93 458.14 385.72 455.42 385.47 454.33 387.33 452.44 386.41 447.07 386.32 443.69 384.26 443.27 382.74 445.92 378.64 444.58 377.57 444.26 374.85 442.55 372.4 441.78 369.88 440.93 366.83 439.91 365.07 437.92 363.61 436.6 360.29 436.28 358.11 435.08 357.3 432.86 354.47 431.7 352.36 431.15 345.59 431.56 341.6 435.84 334.75 436.61 331.61 435.22 331.87 433.3 330.76 434.06 327.68 434.01 325.14 433.34 322.37 430.64 318.4 424.32 313.23 420.95 308.8 419.63 308.63 414.62 305.68 412.97 306.08 411.46 310.15 409.53 309.74 407.35 307.37 404.31 307.48 401.53 302.61 398.21 303.34 394.59 301.92 390.52 295.75 386.15 294.15 380.78 293.89 377.84 294.25 376.49 291.08 375.01 289.47 373.58 285.6 373.34 283.05 371.28 279.97 368.42 280.36 364.63 278.94 362.6 277.22 360.43 272.3 362.31 269.59 363.32 266.35 363.09 264.4 360.41 261.43 359.72 259.74 360.86 257.01 360.36 254.49 358.54 249.97 356.79 247.16 356.46 244.11 358.32 244.92 359.24 246.71 362.98 244.88 369.84 246.64 372.24 245.11 374.46 244.36 377.47 241.72 378.71 240.08 381.66 239.65 385.31 240.84 388.86 237.61 390.1 236.99 394.62 238.1 394.56 236.25 398.43 235.07 399 234.13 398.91 231.51 397.9 228.47 398.7 226.76 395.29 222.13 394.87 219.87 392.02 217.66 392.37 213.07 391.16 210.97 391.06 208.68 392.6 207.48 392.51 201.7 391.71 195.92 390.34 194.63 390.92 192.79 389.04 189.04 387.2 186.27 385.31 184.74 384.23 182.73 384.48 180.85 383.16 177.48 383.47 173.79 378.99 166.13 382.96 160.82 382.52 157.27 380.38 152.77 386.42 148.88 388.88 146.6 389.94 140.65 391.32 138.62 390.93 137.36 392.29 133.03 390.14 128.95 391.2 125.3 390.19 123.84 382.98 120.63 380.53 118.17 382.06 116.67 380.97 109.8 382.32 107.56 382.93 105 385.13 102.58 385.28 100.83 382.73 98.26 382.28 95.93 377.49 91.91 374.63 90.86 374.35 87.88 373.44 87.71 371.9 84.49 370.28 84.19 368.84 82.67 367.81 79.88 369.63 78.06 369.79 76.12 368.88 74.98 369.88 73.16 366.6 69.98 366.57 63.74 365.55 60.92 369.53 54.59 370.08 51.01 371.79 48.79 377.33 46.15 380.21 45.92 381.06 43.91 381.09 41.21 384.93 34.47 386.72 32.15 389.4 32.59 391.21 30.68 394.81 28.4 398.91 27.49 399.83 25.32 402.94 23.5 404.11 21.36 407.37 17.49 408.22 11.97 408.02 9.65 410.82 3.34 413.37 2.01 416.46 1.07 419.06 1.43 425.39 1 427.66 6.06 427.62 10.8 419.45 15.69 417.76 17.8 417.56 19.17 416.15 19.86 414.95 22.26 413.31 24.11 412.41 26.46 412.68 27.72 411.73 31.48 412.49 33.55 411.56 37.21 412.55 38.41 412.27 43.1 414.35 44.46 416.19 48.38 419.11 53.18 420.9 53.91 422.37 56.24 423.38 56.31 425.15 58.52 426.44 59.01 428.12 60.8 431.85 63.11 433.24 64.99 433.72 66.83 435.52 69.48 435.37 71.94 435.9 76.7 436.77 79.78 438.71 83.61 438.77 85.4 440.11 88.05 441.86 90.25 443.36 93.38 446.75 95.54 447.48 97.04 446.7 100.72 446.85 102.3 448.5 107.36 447.42 111.18 447.65 112.94 451.23 118.21 452.79 119.69 454.29 119.22 458.33 119.36 460.26 122.6 462 123.74 462.9 126.4 462.63 128.97 460.72 131.62 460.5 133.19 462.2 136.54 463.47 138.03 465.75 139.1 466.27 140.89 466.58 145.33 468.12 150.18 469.71 153.37 471.17 154.98 473.65 160.56 475.48 166.41 474.37 169.97 471.14 172.56 469.59 176.83 471.18 180.53 472.15 184.96 472.56 188.45 472.42 192.45 471.78 193.9 471.46 199.3 469.75 199.73 469.96 203.98 471.42 206.34 472.08 208.83 473.58 210.08 477.43 215.02 477.61 218.77 473.62 221.21 474.06 224.82 473.18 226.4 473.41 228.11 472 232.32 472.77 240.94 469.88 242.74 468.7 245.81 466.14 247.18 463.56 251.42 469.61 253.97 473.16 256.54 475.95 259.47 478.86 260.02 486.02 263.32 488.42 262.27 495.21 257.48 496.66 256.92 500.89 256.52 504.53 257.56 506.2 258.83 510.53 263.18 513.69 265.65 516.44 267.11 519.78 267.83 524.59 275.17 530.52 278.34 532.13 280.07 535.64 286.71 536.14 291.57 537.95 294.92 540.12 297.76 541.07 301.6 542.33 309.55 542.47 312.12 543.24 315.82 545.86 319.35 550.06 322.36 553.13 323.87 559.76 318.67 561.84 316.59 566.26 314.73 569.19 312.8 571.26 312.03 578.92 311.06 581.44 312.34 588.37 310.9 592.71 311.14 595.96 310.94 601.91 308.29 603.89 306.74 609.21 305.53 611.12 305.76 613.62 305.13 614.48 304.31 614.94 301.89 617.79 300.72 620.38 300.98 622.59 302.16 624.47 301.9 628.04 304.98 629.49 305.23 630.76 306.69 630.59 309.2 632.1 311.66 631.22 313.65 632.49 317.82 634.67 320.48 635.83 324.01 636.96 324.88 Z" id="35550380"/>
<path d="M 242.86 669.8 240.42 671.36 238.86 673.11 238.71 674.72 236.57 678.17 233.92 679.48 233.8 683.42 230.7 687.35 230.67 688.97 229.27 689.99 229.99 693.31 230.14 696.77 227.12 697.65 226.34 698.92 223.5 701.29 218.05 702.91 214.9 703.14 212.03 699.52 206.83 699.45 205.94 699.91 203.39 699.32 202.38 697.37 200.6 696.75 195.66 697.3 194.81 699.48 191.19 701.32 189.26 704.18 187.42 705.72 185.76 703.57 184.56 702.92 179.86 704.08 176.5 703.86 173.13 705.76 172.69 707.7 173.89 712.93 173.65 713.99 171.46 715.18 169.95 712.9 164.17 706.76 161.25 706.21 154.55 705.87 148.84 706.38 145.42 707.58 141.32 707.97 133.99 708.33 126.75 707.93 118.47 708.79 114.28 708.99 112.07 710.03 107.35 714.11 109.18 714.84 111.23 717.06 112.23 720.47 110.62 723.12 110.14 725.69 110.89 730.38 112.55 732.73 113.84 738.51 109.94 740.96 111.46 744.04 112.46 745.01 111.39 748.78 111.77 753.34 110.96 756.62 111.16 760.01 105.33 759.81 103.02 760.54 101.82 760.07 98.23 760.18 96.39 758.83 93.86 758.46 88.04 759.74 85.12 759.28 82.67 760.21 79.71 758.71 78.08 759.01 75.48 758.4 70.13 751.38 68.61 750.93 65.86 747.9 63.43 744.7 60.92 744.22 59.43 738.92 57.38 733.59 58.05 731.34 57.3 730.5 57.31 726.64 58.85 725.29 59.3 723.22 57.8 721.32 60.01 719.78 61.15 716.23 57.27 716.08 52.97 717.6 50.8 717.1 44.86 714.43 42.72 712.6 40.61 714.53 37.94 715.26 36.28 716.67 35.73 718.79 33.31 718.72 31.75 723.15 30.7 724.28 30.58 726.72 31.58 727.84 29.3 730.99 28.77 730.65 27.61 726.7 26.29 724.67 27.33 723.23 26.8 719.81 25.6 718.14 27.92 716.65 29.51 716.74 32.4 715.19 33.9 713.34 37.42 705.23 37 700.68 33.03 695.54 34.63 694.66 38.89 694.63 39.85 691.86 39.1 690.05 40.48 687.97 39.81 686.5 43.43 686.49 45.28 684.26 46.68 684.46 48.7 683.37 49.66 680.2 51.92 676.98 55.21 677.39 60.94 674.89 63.66 676.06 64.42 677.05 76.14 680.79 77.26 677.96 77.66 673.48 77.03 669.26 76.26 667.28 74.5 664.78 64.39 658.62 60.43 654.79 57.42 652.77 54.72 651.81 47.66 651.03 39.45 647.85 30.81 642.18 26.8 639.05 22.73 637.15 14.5 636.92 10.01 635.82 7.65 634.74 3.86 632.11 2.98 630.12 3.77 625.16 4.92 620.01 5.75 615.01 9.33 608.76 11.5 606.99 13.02 604.77 14.5 601.4 17.97 589.06 20.51 585.51 21.87 584.43 25.7 588.25 27.5 591.43 29.16 591.4 31.46 592.82 33.65 596.28 37.46 597.35 40.87 596.04 45.54 596.25 48.75 597.49 50.59 598.84 51.83 597.97 53.45 598.43 58.45 598.11 59.97 599.63 60.34 602.44 62.47 605.47 65.28 607.49 70.58 607.81 73.11 606.41 74.72 604.19 77.16 603.16 78.52 601.22 76.16 594.62 76.91 592.85 80.52 591.12 87.29 589.53 92.6 587.5 93.88 588.24 97.82 587.98 100.78 590.52 102.34 590.06 105.9 590.86 107.83 589.61 106.7 586.18 106.53 583.83 107.19 581.55 108.95 578.18 108.98 574.93 110.84 572.91 111.7 567.78 109.6 557.23 109.45 554.19 110.85 553.51 112.4 550.41 115.71 547.75 119.12 545.82 126.76 543.54 130.01 542.14 131.62 540.81 133.94 540.29 138.23 540.32 140.58 539.3 145.42 541.82 150.39 542.04 153.98 540.53 156.63 540.85 163.65 536.29 165.35 535.87 166.8 537.31 168.77 542.39 171.65 546.21 179.92 548.19 181.01 552.49 183.44 554.54 183.01 557.7 183.98 560.74 186.14 561.98 185.43 564.98 185.33 567.88 186.62 570.81 188.61 573.21 189.86 573.97 191.2 577.71 191.35 579.19 193.55 583.56 194.74 583.37 196.71 581.5 196.77 579.36 199.3 576.33 200.86 572.79 204.3 574.07 206.31 576.57 212.74 576.05 218.03 572.49 219.86 570.92 221.73 571.26 227.8 570.42 230.73 571.91 234.52 570.79 236.77 569.07 237.56 567.54 240.18 567.38 241.42 566.05 243.97 565.05 244.99 564.03 246.94 565.99 251.43 568.54 255.26 574.23 258.02 576.93 259.81 579.43 260.92 581.95 262.51 581.99 263.33 585.38 264.81 586.22 264.27 588.08 265.02 591.27 263.88 592.09 261.56 599.07 258.6 598.1 257.31 601.69 259.88 604.88 258.12 608.78 260.43 611.2 259.98 613.57 257.88 616.55 258.7 619.19 258.43 622.19 259.61 626.58 261.63 627.36 259.82 631.32 258.11 631.4 252.77 635.59 250.81 636.65 246.45 636.93 244.82 638.25 243.28 637.94 242.02 640.36 240.31 641.79 236.69 642.9 234.75 642.37 229.54 643.96 228.35 645.13 225.39 646.09 223.8 644.31 219.09 648.28 220.39 651.54 222.31 654.2 226.92 657.84 232.16 659.61 234.41 658.95 236.63 661.51 239.26 662.24 242.25 663.86 242.78 666.06 242.86 669.8 Z" id="35550390"/>
<path d="M 295.67 716.13 291.67 720.18 291.32 722.18 289.96 725.47 288.9 726.67 288.66 731.77 287.19 734.81 284.75 736.46 284.91 739 286.41 742.71 285.56 743.6 285.55 748.84 286.21 751.7 288.28 753.34 288.67 755.6 291.35 757.47 293.14 762 296.68 763.47 299.79 766.5 300.22 768.5 299.37 771.69 297.56 775.97 297.34 782.16 298.77 784.97 297.37 788.14 296.44 788.87 296.22 791.67 297.19 793.65 300.29 796.19 303.34 796.43 303.61 798.27 301.82 800.28 298.96 800.36 297.41 799.14 295.85 799.2 294.24 798.01 292.16 797.73 290.39 796.58 288.75 796.49 286.05 798.36 284.38 797.74 280.22 797.35 276 798.1 272.61 797.84 269.78 799.11 268.42 802.14 267.43 803 264.98 802.97 259.86 800.88 258.54 799.88 256.53 799.82 255.7 802.6 253.21 807.23 250.18 810.07 243.39 815.94 243.16 816.76 240.36 818.9 236.84 820.59 230.83 825.22 228.44 828.39 226.51 830.27 219.55 835.34 216.29 838.31 213.16 842.12 210.54 844.44 209.3 848.27 210.57 849.14 211.91 851.66 212.96 857.87 212.78 861.99 215.87 865.39 213.53 867.95 212.94 872.06 211.56 876.23 205.95 876.43 204.55 881 198.6 878.14 194.87 877.01 189.92 874.02 188.42 873.76 186.63 872.03 183.44 873.31 180.28 873.49 178.78 872.89 175.13 873.37 174.43 874.27 170.48 875.07 168.31 876.17 166.59 878.3 162.4 877.75 159.5 877.01 158.14 875.1 156.06 875.51 153.07 874.13 151.69 874.91 146.98 874.18 140.62 875.4 139.6 875.23 137.24 870.65 136.29 865.25 136.99 862.28 136.62 857.69 134.54 856.78 130.22 853.14 131.47 850.02 129.73 848.1 129.74 845.99 131.4 844.07 131.62 840.76 132.58 839.06 132.11 833.81 133.07 832.37 130.08 829.79 126.91 824.13 123.63 820.8 125.12 816.48 124.78 814.63 123.54 813.84 117.93 808.56 116.71 808.06 116.26 800.71 117.74 799.3 117.69 797.53 116.44 794.71 117.25 791.41 115.48 787.08 110.65 780.8 108.42 776.14 107.87 771.88 107.24 769.7 105.33 759.81 111.16 760.01 110.96 756.62 111.77 753.34 111.39 748.78 112.46 745.01 111.46 744.04 109.94 740.96 113.84 738.51 112.55 732.73 110.89 730.38 110.14 725.69 110.62 723.12 112.23 720.47 111.23 717.06 109.18 714.84 107.35 714.11 112.07 710.03 114.28 708.99 118.47 708.79 126.75 707.93 133.99 708.33 141.32 707.97 145.42 707.58 148.84 706.38 154.55 705.87 161.25 706.21 164.17 706.76 169.95 712.9 171.46 715.18 173.65 713.99 173.89 712.93 172.69 707.7 173.13 705.76 176.5 703.86 179.86 704.08 184.56 702.92 185.76 703.57 187.42 705.72 189.26 704.18 191.19 701.32 194.81 699.48 195.66 697.3 200.6 696.75 202.38 697.37 203.39 699.32 205.94 699.91 206.83 699.45 212.03 699.52 214.9 703.14 218.05 702.91 223.5 701.29 226.34 698.92 227.12 697.65 230.14 696.77 229.99 693.31 229.27 689.99 230.67 688.97 230.7 687.35 233.8 683.42 233.92 679.48 236.57 678.17 238.71 674.72 238.86 673.11 240.42 671.36 242.86 669.8 246.33 673.04 249.06 673.73 252.63 672.22 255.6 673.78 258.93 672.22 260.37 672.27 263.83 675.1 265.39 677.31 269.66 677.12 272.13 674.62 273.76 674.62 274.98 676.73 279.48 679.94 280.57 683.08 282.46 686.53 285.93 688.5 286.91 690.73 286.52 692.43 287.94 697.62 289.64 698.45 291.41 702.46 292.25 703.29 295.34 710.11 295.85 714.16 295.67 716.13 Z" id="35550400"/>
</g>
</svg>