<?xml version="1.0"?>
<svg xmlns="http://www.w3.org/2000/svg" version="1.2" baseProfile="tiny" width="800" height="342" viewBox="0 0 800 342" stroke-linecap="round" stroke-linejoin="round">
<g id="dong">
<path d="M 632.59 139.77 631.43 140.28 632.36 141.38 632.2 141.87 633.41 142.64 632.72 143.63 632.95 144.04 631.85 144.66 632.3 145.46 633.41 144.84 633.95 145.81 634.84 145.31 635.9 146.78 636.36 147.03 637.04 149.08 637.64 148.97 641.26 150.76 642.54 152.1 644.57 155.62 642.5 157.6 641.36 159.06 643.05 161.17 641.86 166.1 640.7 165.82 639.21 172.03 639.04 173.21 640.06 173.6 639.75 174.84 641.22 175.21 639.32 183.08 636.77 182.46 637.11 183.64 636.46 186.33 637.3 186.53 636.96 187.88 636.13 187.68 635.83 188.96 635.41 188.86 635.1 190.14 634.68 190.04 634.04 192.67 633.32 192.5 633.37 193.45 633.09 194.81 633.16 195.9 632.35 195.86 632.23 198.17 631.31 199.71 631.02 200.99 630.05 201.06 629.71 201.67 628.83 202.05 628.35 201.77 627.76 202.77 623.05 201.86 621.53 209.46 616.58 208.58 616 210.3 616.03 210.51 616.13 210.52 615.98 211.21 615.34 214.46 614.78 216.52 614.91 217.34 614.62 218.21 614.6 221.03 613.99 222.54 614.2 223.98 615.51 228.09 617.26 228.99 617.85 228.96 617.62 230.29 616.41 231.35 615.25 231.76 613.52 231.85 611.95 233.04 611.8 233.72 610.88 234.9 609.96 234.7 608.8 234.07 607.16 232.25 606.39 230.82 605.45 230.29 604.58 229.16 604.75 228.17 603.35 226.75 603.53 225.9 603.13 223.76 602.36 222.23 602.18 220.97 601.1 220.67 599.79 221.51 597.9 221.81 595.82 222.49 593.81 222.75 592.77 224.3 592.22 224.76 592.32 226.36 591.97 227.48 591.19 228.84 591.25 230.3 590.45 232.47 589.2 233.55 588.85 234.47 589.04 235.5 589.96 236.88 589.81 238.19 589.07 239.13 589.34 240.16 589.37 241.59 589.04 242.14 587.34 243.34 584.81 242.14 583.36 241.01 582.47 239.94 580.94 240.02 580 239.85 577.98 240.05 576.85 240.58 576.14 239.42 575 238.24 574.09 238.32 573.45 238 572.38 239.11 571.1 239.83 569.54 240.07 566.57 241.45 563.97 241.3 563.05 241.92 562.94 243.73 563.21 246.47 562.88 247.62 563.43 248.5 563.65 250.14 562.58 251.43 561.8 251.55 560.56 252.94 559.69 253.43 558.67 253.53 557.48 254.36 554.52 252.41 553.67 252.42 552.67 252.91 552.16 253.82 551.41 254.5 548.46 255.1 547.85 256.04 546.93 256.86 546.14 257.11 545.19 258.69 543.32 258.88 541.84 258.38 538.65 258.11 537.09 257.56 535.14 255.95 534.03 253.93 532.04 253.64 530.95 253.24 529.64 253.3 528.42 251.85 528.62 250.99 528.54 249.44 528.05 248.68 527.22 246.03 527.78 243.88 527.26 241.95 526.52 240.81 526.72 239.98 527.74 238.09 527.51 236.54 528.18 234.39 528.87 234.31 530.25 232.75 531.84 231.72 532.05 229.07 531.85 227.2 533.02 225.58 534.46 224.4 535.55 224.82 536 223.31 538.75 222.07 539.56 220.56 539.74 219.43 540.87 217.57 539.42 213.92 539.96 212.4 539.96 211.68 540.71 209.93 540.9 208.8 542.1 208.64 542.35 207.07 542.24 206.22 542.61 204.26 543.66 201.94 544.15 200.5 546.55 199.8 546.86 198.64 548.11 198.83 549.26 198.6 550.66 197.84 551.49 197.08 551.46 195.97 550.91 193.6 550.92 192.14 552.99 191.47 554.34 190.69 555.05 189.93 557.55 188.73 560.1 187.07 559.96 185.91 560.01 185.36 561.03 183.59 561.34 182.28 561.83 181.34 561.06 179.36 561.33 178.31 562.93 175.27 564.28 176.32 564.95 175.54 566.17 174.85 567.96 172.91 571.39 172.06 572.87 171.9 574.05 172.71 574.6 173.82 575.42 174.29 579.71 171.98 580.67 172.15 582.21 174.07 583 171.67 582.91 170.8 583.27 170.14 583.29 168.09 583.76 165.83 585.26 162.92 588.38 158.66 592.16 154.55 594.81 152.48 596.23 150.91 597.33 149.06 599.09 146.77 599.98 146.21 603.3 142.85 605.26 139.53 606.45 136.46 609.07 135.09 610.06 135.15 612.15 134.39 616.43 134.6 618.66 133.91 619.13 134.19 620.8 136.16 622.92 134.26 622.16 133.35 622.88 132.74 623.69 133.7 624.73 132.82 626.03 133.67 631.48 133.86 631.43 135.63 632.65 135.67 632.59 139.77 Z" id="35580390"/>
<path d="M 614.6 104.92 615.63 107.39 617.36 110.96 619.24 115.6 619.74 121.58 621.21 124.57 623.54 124.55 624.41 122.72 636.87 123.25 636.51 134.04 635.29 133.99 635.11 139.86 632.59 139.77 632.65 135.67 631.43 135.63 631.48 133.86 626.03 133.67 624.73 132.82 623.69 133.7 622.88 132.74 622.16 133.35 622.92 134.26 620.8 136.16 619.13 134.19 618.66 133.91 616.43 134.6 612.15 134.39 610.06 135.15 609.07 135.09 606.45 136.46 605.26 139.53 603.3 142.85 599.98 146.21 599.09 146.77 597.33 149.06 596.23 150.91 594.81 152.48 592.16 154.55 588.38 158.66 585.26 162.92 583.76 165.83 583.29 168.09 583.27 170.14 582.91 170.8 583 171.67 582.21 174.07 580.67 172.15 579.71 171.98 575.42 174.29 574.6 173.82 574.05 172.71 572.87 171.9 571.39 172.06 567.96 172.91 566.17 174.85 564.95 175.54 564.28 176.32 562.93 175.27 561.33 178.31 561.06 179.36 561.83 181.34 561.34 182.28 561.03 183.59 560.01 185.36 559.96 185.91 556.92 185.49 555.73 185.84 554.41 185.31 552.74 184.95 551.52 185.37 549 183.45 548.37 182.09 546.45 179.66 545.56 178.97 544.4 178.45 543.17 178.89 541.41 179.16 541.53 181.67 541.14 182.56 541.01 183.75 539.88 184.8 537.97 185.33 536.77 184.47 535.25 184.7 534.41 183.98 532.37 184.04 531.03 183.85 529.86 183.23 529.49 182.28 528.13 181.37 527.29 180.15 526.33 179.6 524.03 180.2 523.19 180.67 522.31 180.61 520.06 180.07 518.35 179.12 517.55 177.23 517.4 175.04 516.64 174.74 514.57 172.64 513.35 172.33 511.91 170.39 511.29 168.97 511.13 168.04 510.45 168.15 510.22 167.6 508.94 167.78 508.27 167.13 507.13 166.76 506.13 165.22 507.21 163.89 507.96 163.37 508.25 162.7 509.45 162.05 510.18 160.62 513.72 156.59 514.33 155.58 515.2 156.04 516.81 155.47 517.75 154.53 518.55 154.61 518.79 153.92 517.97 152.59 518.76 151.27 521.34 147.7 522.58 146.3 524.2 145.01 524.97 145.06 525.2 145.76 526.3 145.93 527.99 145.02 529.69 142.56 530.6 142.35 530.99 141.43 532.75 140.68 533.72 139.81 536.79 136.54 539 133.28 541.31 130.32 542.22 129.34 542.19 128.59 542.72 126.9 544.51 124.1 545.77 121.64 545.61 121.39 546.57 119.17 547.31 118.1 548.38 116.98 550.88 113.71 551.84 112.17 552.41 110.41 551.78 109.74 551.71 108.37 552.43 107.46 553.69 106.55 554.59 106.27 555.41 105.53 556.4 105.23 560.47 101.23 561.43 100.2 564.2 97.78 566.2 95.32 568.33 93.2 569.62 94.03 570.27 94.11 571.63 95.56 573 95.08 574.27 96.67 574.33 97.63 575.42 98.4 574.81 100.39 575.94 101.61 576.32 102.65 577.54 102.97 577.72 103.67 579.41 103.84 579.42 102.96 580.4 101.67 581.88 101.45 584.81 98.96 586.43 98.14 587.1 97.59 588.54 96.91 589.96 95.89 590.74 95.04 592.5 94.2 593.68 94.65 594.06 94.03 594.8 92 595.57 92 596.21 90.91 604.47 89.55 608.08 88.88 608.2 89.55 609.39 93.13 611.06 96.68 614.6 104.92 Z" id="35580400"/>
<path d="M 670.64 259.27 670.08 261.21 670.8 262.44 671.32 262.26 671.82 264.88 670.56 266.17 670.19 267.52 669.45 268.12 669.05 270.56 668.74 273.35 668.32 274.59 669.63 277.58 669.64 278.68 670.26 280.89 669.06 283.79 669.59 283.94 669.35 285.2 670.16 285.35 669.87 286.79 670.86 286.97 669.76 292.86 670.3 295.36 675.18 295.68 675 296.52 673.72 296.98 673.05 299.13 672.84 309.92 666.32 309.82 665.88 309.71 665.34 311.58 664.61 312.56 663.48 315.19 663.44 315.69 664.17 317.34 663.72 318.46 663.66 320.74 664.57 322.44 665.3 322.7 666.2 323.58 665.76 323.97 664.44 324.14 663.36 323.76 660.33 323.42 658.01 322.97 657.78 323.74 656.15 323.15 656.07 322.49 654.74 322.44 652.2 321.5 651.14 321.55 649.28 321.96 647.45 323.56 645.8 325.74 645.33 326.57 645.06 328.27 644.54 328.84 643.55 327.22 642.47 326.54 641.35 326.59 640.37 326.23 639.46 326.77 638.16 328.52 635.51 328.5 634.29 328.3 632.21 328.47 629.95 327.66 628.82 326.69 628.25 326.77 625.35 325.97 625.15 327.06 623.69 325.62 622.67 325.2 618.64 327.52 617.71 327.82 616.74 325.78 616 326.05 615.45 325.13 614.29 325.09 612.4 324.37 611.56 322.53 610.96 321.78 608.78 319.97 608.51 318.98 608.84 317.8 607.31 314.39 604.39 307.55 602.75 306.51 602.69 306.13 600.94 305.42 601.75 304.43 602.67 301.34 600.7 300.11 601.38 298.97 603.23 299.96 603.91 298.69 604.67 299.1 605.27 297.97 604.51 297.57 605.2 296.3 604.82 296.1 605.46 294.93 605.08 294.72 608.27 288.8 609.77 289.61 610.42 288.42 611.19 288.78 611.81 287.63 613.07 288.39 613.63 287.16 614.53 286.6 615.64 286.94 617.17 286.91 617.7 286.08 617.43 285.37 618.35 285.03 618.3 284.36 618.97 284.1 619.56 282.9 620.25 282.04 620.46 280.94 621.56 279.5 623.31 278.57 625.47 277.61 625.84 277.72 627.98 277.37 630.34 276.1 631.77 275.82 632.41 275.3 633.5 274.92 634.62 274.2 635.13 273.12 636.27 272.32 637.81 272.6 638.24 273.1 640.26 272.18 641.41 271.95 642.39 272.13 644.58 271.75 645.92 271.78 646.34 271.36 647.83 271.97 647.93 267.97 649.16 268 649.26 263.49 649.9 262.97 652.99 263.19 654.72 263.55 655.76 264.09 656.94 264.37 658.18 263.76 658.15 265.42 661.89 265.49 661.89 264.72 662.46 263.92 666.06 261.84 665.35 260.59 669.85 257.99 670.64 259.27 Z" id="35580410"/>
<path d="M 275.95 338.96 275.94 339.51 276.72 340.04 276.59 340.89 275.74 341 274.63 339.77 275.09 339.16 275.95 338.96 Z M 267.13 333.05 267.35 334.11 266.14 335.08 265.44 335.16 264.79 334.45 265.07 333.67 266.04 332.84 267.13 333.05 Z M 156.17 314.27 157.24 315.14 157.42 316.31 158.33 316.19 158.32 314.34 158.86 314.41 159.98 315.38 160.26 314.5 161.72 315.49 161.37 316.05 161.6 317.42 161.01 317.88 160.93 319.68 159.41 319.32 158.62 320.04 157.08 319.61 156.62 320.17 155.1 320 154.79 320.65 153.61 321.35 152.52 320.43 152.77 319.42 153.53 319.17 153.35 318.12 154.45 317.3 155.26 316.99 155.09 316.38 155.71 315.78 155.09 314.88 156.17 314.27 Z M 151.75 306.28 151.73 307.37 152.28 308.03 152.16 309.15 151.24 308.69 151.48 307.45 150.85 306.89 150.81 306.15 151.75 306.28 Z M 210.54 304.1 210.88 304.74 210.64 305.88 210 306.73 209.57 306.18 209.4 304.67 210.54 304.1 Z M 156.21 304.35 156.8 306.15 156.82 307.99 155.52 307.48 155.33 306.15 155.46 305.01 156.21 304.35 Z M 144.99 303.27 145.44 304.19 145.58 305.38 144.7 305.79 143.65 305.2 144.99 303.27 Z M 214.81 298.27 215.16 300.34 214.77 302.04 215.13 302.88 214.95 303.85 214.1 305.29 213.04 304.7 212.34 303.26 212.79 302.85 212.28 301.72 212.09 300.51 212.84 300.44 212.9 299.55 213.49 298.82 214.81 298.27 Z M 178.91 271.55 179.48 271.61 180.43 272.83 180.67 274.25 180.2 274.71 180.35 275.85 179.51 275.9 178.76 275.07 177.2 275.21 176.95 273.74 178.12 273.55 178.64 273.08 178.91 271.55 Z M 204.17 263.9 204.5 264.92 203.36 264.68 203.16 263.96 204.17 263.9 Z M 283.89 260.63 284.6 261.15 284.31 261.93 283.52 261.39 283.89 260.63 Z M 207.04 258.86 207.4 259.47 208.17 259.55 208 261.13 209.13 261.32 209.93 261.77 209.49 263.31 208.37 264.06 208.34 265.01 208.91 265.62 208.48 266.4 207.3 266.58 206.93 268.31 207.19 269.15 206.56 270.98 206.54 271.84 204.37 270.84 204.63 270.17 203.75 269.24 203.39 268.26 203.57 266.93 202.66 266.85 202.89 265.92 203.54 265.82 204.39 265.1 205.71 265.37 206.67 264.72 207.04 263.44 207.19 261.75 207.57 260.79 206.67 260.12 205.68 260.04 206.12 259.03 207.04 258.86 Z M 219.99 257.17 221.76 258.05 223.32 258.58 224.14 259.37 225.94 261.85 227.05 263.14 227.08 264.49 227.87 266.14 229.1 267.5 230.32 267.31 231.2 269.04 231.09 270.36 231.75 271.31 232.58 271.94 232.49 272.87 231.66 273.48 230.67 273.57 229.57 274.56 229.77 276.58 229.65 277.71 229.05 278.14 227.7 281.04 224.44 282.54 223.89 283.66 222.59 284.42 222.56 284.91 221.09 285.53 220.97 288.68 220.54 290.33 219.75 291.5 218.47 292.76 216.82 293.3 214.96 292.06 212.45 293.06 211.33 293.32 209.18 294.84 209 294.42 206.32 294.9 204.52 295.82 203.05 297.46 202.85 299.18 204.13 300.31 207.25 300.74 207.24 301.06 204.41 300.58 203.55 301.46 201.93 301.16 201.62 301.94 200.52 301.97 200.15 303.54 198.9 304.95 198.56 305.71 197.4 306.8 197.18 307.69 196.29 308.07 195.59 309.15 194.42 310.02 193.9 311.51 194.8 312.49 194.66 313.27 193.8 312.92 193.05 313.23 192.3 312.83 191.3 313.53 190.33 314.7 189.66 314.32 188.89 314.74 188.45 315.72 187.03 314.26 185.78 315.14 185.45 315.87 184.69 315.97 184.12 316.55 182.77 316.72 181.3 316.5 180.33 316.76 179.08 316.76 177.61 318.15 177.53 319.34 176.72 320.5 175.6 321.03 175.13 322.43 175 323.86 176.14 324.33 176.78 324.9 178 325.3 177.83 326.01 178.3 326.64 179.48 327.38 180.23 328.89 179.69 329.14 179.68 329.98 178.43 329.12 178.02 328.11 176.84 328.21 176.06 327.8 174.8 326.48 174.3 325.67 172.86 325.14 172.22 324.46 171.27 322.32 170.45 322.04 167.76 321.94 167.23 321.53 166.06 321.55 166.66 320.64 168.22 319.72 168.54 319.09 167.84 318.21 167.91 317.2 167.02 317 165.01 317.08 164.61 315.42 165.3 314.85 166.37 315.12 166.83 314.05 166.1 313.43 166.79 312.29 166.5 311.61 165.32 310.92 163.18 311.85 162.76 311.75 161.9 310.65 162.91 310.53 163.28 309.06 163.98 308.75 164.96 309.54 165.66 308.6 165.78 307.73 165.21 306.38 164.62 306.07 161.84 306.99 160.99 306.69 160.36 305.94 160.65 304.77 160.31 303.26 159.89 302.99 160.64 301.9 161.1 300.64 162.66 300.21 164.39 300.71 165.06 300.39 165.09 299.69 166.03 299.01 167.63 299.11 168.36 299.96 169.05 303.61 170.33 303.82 171.41 303.56 172.38 302.89 171.98 301.67 172.03 299.92 173.93 300.54 176.4 300.4 177.24 300.92 179.54 299.99 181.91 299.82 182.18 299.22 183.41 299.12 184.09 298.71 184.25 297.88 183.88 295.62 181.98 294.5 181.04 295.21 179.37 295.36 177.63 294.61 177.01 295.1 175.87 294.99 175.45 293.57 174 293.69 173.84 295.15 172.47 295.42 171.21 295.01 171.16 294.61 169.25 294.74 168.92 293.94 169.4 292.98 170.34 292.52 170.83 291.78 170.3 291.44 170.12 290.57 170.29 289.21 169.38 287.9 171.06 286.49 172.03 286.65 171.79 288.06 171.93 289.26 172.9 290.68 173.71 291.52 174.51 291.2 175.89 291.87 177.23 292.01 178.01 290.71 179.01 290.42 178.33 288.66 179.23 288.62 180.02 290.08 180.59 290.68 181.79 289.9 183.11 288.24 182.86 287.58 183.56 286.82 185.6 287.2 186.31 287.08 186.58 285.8 185.81 285.01 185.78 284.15 184.93 283.5 184.31 283.69 183.49 283.13 182.4 280.68 181.19 279.89 181.15 278.27 181.89 277.37 183.31 277.9 184.28 278.68 184.84 278.34 184.45 276.55 183.86 275.93 184.31 274.36 185 274.45 185.45 275.73 186.24 276.33 187.68 276.95 187.1 277.96 188.11 278.87 188.64 278.43 189.43 280.21 191.52 278.76 191.14 277.98 191.53 277.49 192.89 277.49 193.71 278 194.86 278.13 194.94 279.11 195.92 278.75 196.58 277.9 197.11 275.55 196.36 275.3 195.62 274.02 194.89 273.57 195.12 272.48 192.93 272.7 192.16 272.53 192.29 270.81 191.18 270.89 191.2 269.98 190.32 269.68 189.73 269.07 190.54 267.94 189.8 266.87 189.17 266.6 188.84 265.22 189.16 264.63 189.12 263.3 189.51 263.26 190.37 264.55 191.51 264.29 192.58 264.78 192.36 266.28 193.5 266.68 193.6 267.83 193.99 267.96 194.78 266.96 195.88 266.56 196.23 267.29 196.94 266.59 197.78 266.98 198.35 266.7 198.09 265.39 197.34 264.56 197.77 264.1 199.14 265.84 198.71 266.83 198.77 268.29 200.14 269.28 200.48 270.61 201.48 272.21 201.84 274.53 202.54 274.62 204.45 274.17 207.01 273.28 207.48 274.77 207.12 275.34 207.4 275.99 207.09 276.65 205.65 277.93 206.7 279.45 209.09 280.32 210.01 280.09 210.6 279.29 211.15 276.56 211.78 275.44 211.69 272.85 212.25 271.89 211.86 271.18 212.41 269.6 213.23 270.34 214.33 270.65 216.77 270.31 217.54 270.57 218.96 270.22 219.48 269.24 218.66 268.48 217.96 267.37 218.1 266.77 217.35 265.84 217.67 265.3 216.31 263.01 215.65 259.21 215.9 259.21 216.37 261.71 217.76 262.22 220.65 262.75 221.24 263.29 221.9 262.7 221.65 261.42 222.04 260.69 219.81 257.97 217.18 259.09 216.8 258.78 219.36 257.72 219.99 257.17 Z M 300.87 254.2 301.71 254.92 300.8 255.8 300.48 255.29 300.87 254.2 Z M 290.63 252.47 291.21 253.13 291.22 254.24 290.14 256.47 289.65 255.85 289.32 254.53 288.84 254.16 289.55 252.65 290.63 252.47 Z M 193.85 239.53 194.46 240.26 195.14 240.47 196.06 241.75 197.65 242.68 198.82 244.53 199.41 244.27 198.64 242.56 199.66 242.05 200.36 241.39 201.1 241.39 201.87 240.9 202.94 240.85 203.33 241.62 204.12 241.36 207.42 242.74 208.07 244.45 208.9 245.59 208.42 246.42 209.09 247.23 210.46 247.8 209.58 249.03 209.69 249.43 208.72 250.05 207.64 249.95 206.96 251.06 205.25 251.17 204.19 251.88 204.2 252.65 203.69 253.65 202.46 252.89 201.24 253.62 199.95 254.74 200.09 255.45 199.6 257.57 198.95 256.9 198.3 254.78 196.86 253.64 197.04 251.67 198.17 251.22 199.46 252.09 200.87 250.79 201.55 248.78 201.2 248.15 201.56 247.47 201.18 246.73 199.83 246 199.21 246.37 199 247.57 198.36 247.79 197.23 247.12 195.65 248.43 194.55 247.81 194.32 247.22 192.86 247.23 191.46 248.18 191.24 248.66 191.72 249.64 190.23 250.81 189.25 252.25 188.56 251.41 187.44 251.57 187.66 250.5 189.62 250.72 189.97 249.71 189.82 248.15 188.84 247.15 188.8 246.36 189.53 245.95 189.3 245.08 188.02 244.64 187.18 244.96 185.87 243.54 187.21 243.35 188.69 243.74 189.56 242.12 190.4 242.36 190.77 241.78 192.74 242.42 192.76 241.56 193.41 241.12 193.12 239.88 193.85 239.53 Z M 203.29 235.98 204.38 237.18 203.76 237.46 203.09 236.63 203.29 235.98 Z M 21.24 223.43 22.18 223.49 23 224.11 24.13 224.22 25.45 225.38 26.8 226.06 27.45 227.41 27.43 228.9 29.44 230.28 29.5 231.05 30.24 231.46 32.21 233.03 32.88 234.37 33.14 236.04 30.64 238.17 29.47 238.31 29.04 238.75 27.03 239.15 26.52 239.71 26.07 238.74 26.7 238.33 26.43 237.22 25.89 236.76 26.14 235.56 25.83 234.3 24.62 233.14 24.21 232.3 23.04 231.2 20.99 230.88 19.46 231.7 19.42 232.98 19.07 234.01 18.15 234.58 17.3 234.14 15.94 232.95 15.61 233.77 14.55 234.36 13.94 233.61 13.93 232.74 12.98 232.12 13.25 231.72 13.41 230.01 12.97 228.87 13.41 228.41 13.18 227.42 14.58 225.73 16.08 224.71 17.44 224.66 17.74 224.14 19.44 223.74 20.6 223.85 21.24 223.43 Z M 43.26 200.04 43.89 200.88 43.38 201.44 42.46 200.45 43.26 200.04 Z M 24.01 197.41 25.18 197.84 25.78 197.7 25.95 198.92 25.28 200.14 22.66 199.62 22.31 198.67 22.65 197.82 24.01 197.41 Z M 11.56 195.35 12.48 195.86 13.21 196.73 13.88 198.28 13.96 199.32 13.06 200.72 12.82 201.56 12.25 201.61 11.14 203.15 10.55 205.7 10.99 206.73 11.92 206.83 12.34 207.69 14 207.31 14.13 207.7 12.6 208.1 12.41 208.63 12.83 209.67 11.02 210.82 9.89 210.84 9.02 210.51 8.34 210.76 7.53 209.73 8 209 7.88 207.83 6.88 206.64 5.32 206.72 4.8 206.28 3.49 205.93 1.7 205.84 1 205.4 1.09 203.69 2.86 203.15 3.36 202.45 4.52 202.23 5.02 201.78 4.5 200.44 5.56 199.83 5.92 198.97 7.34 198.73 7.96 198.13 8.9 198.28 9.66 197.29 9.43 196.09 10.67 196.51 11.14 195.4 11.56 195.35 Z M 21.96 193.51 23.12 194.53 21.72 194.57 21.96 193.51 Z" fill-rule="evenodd" id="35580420"/>
<path d="M 728.74 129.13 727.62 132.03 730.09 133.01 729.82 134 732.07 134.84 730.33 139.57 727.47 147.1 727.63 147.41 725.43 152.32 724.94 153.01 723.8 152.51 721.06 158.6 719.8 158.13 718.01 162.1 717.9 162.54 716.09 166.55 713.52 165.44 710.04 173.33 708.58 178.16 701.3 176.11 700.23 179.59 699.59 179.38 698.92 181.73 694.27 180.4 694.59 179.25 693.67 179 694.02 177.8 692.5 177.01 691.54 175.97 690.94 175.94 690.9 177.32 690.09 178.87 688.65 178.8 687.12 178.41 686.34 179.14 684.05 182.65 684.12 182.9 683.79 183.67 682.7 184.6 681.87 184.62 680.81 185.09 679.19 185.22 678.85 186.34 679.1 186.8 677.44 188.6 675.58 185.87 674.85 185.32 673.44 183.79 672.76 184.01 671.7 184.89 670.93 186.27 670.11 186.58 669.4 185.52 668.5 184.93 668.26 183.78 668.53 182.35 667.31 183.07 666.63 182.24 665.81 181.98 663.72 180.04 662.37 179.62 661.75 179.05 660.62 176.66 660.75 174.54 661.82 174.46 662.09 173.47 661.65 172.94 659.67 171.81 658.59 171.62 659.48 168.11 658.69 167.57 659.29 166.8 660.01 167.17 662.2 167.57 665.21 167.91 666.8 168.52 667.75 168.58 669.52 166.96 670.16 167.89 670.83 167.93 672.67 166.89 674.02 165.34 674.57 164.37 674.68 162.38 675.88 160.72 675.8 158.61 676.93 156.72 677.27 155.29 676.45 154.75 674.95 153.18 674.8 152.57 675.13 151.45 674.97 150.27 675.48 148.03 674.78 146.56 673.93 146.24 673.68 145.33 672.91 144.63 672.18 143.16 672.96 142.03 675.37 141.93 677.28 141.29 678.22 140.36 677.5 138.58 676.52 136.75 675.15 132.11 674.49 128.33 674.11 128.19 673.32 125.38 673.24 123.06 673.49 121.86 674.56 121.08 673.57 119.95 674.13 119.27 674.93 116.7 675.44 116.14 675.41 114.47 675.68 114.04 676.92 113.39 678.76 113.51 679.64 111.64 679.83 109.89 680.39 109.11 681.03 107.49 680.38 105.86 679.86 105.26 680.59 104.8 681.12 104.02 681.22 102.99 681.73 101.92 682.85 101.13 684.45 100.72 685.27 100.07 687.42 100.64 688.5 100.62 688.17 102.8 689.9 103.5 692.89 103.58 693.98 104 695.26 105.18 696.51 105.71 696.97 108.4 697.94 108.81 699.17 109.84 699.66 111.27 700.79 110.86 702.72 108.54 704.38 107.94 705.44 107.91 708.07 107.48 710.67 108.1 711.8 108.01 712.81 108.51 714.24 110.28 713.85 111.92 712.11 113.94 711.94 114.8 712.75 116.48 714.35 118.28 714.94 117.99 716.13 118.41 717.62 119.66 717.1 121.24 718.7 121.76 718.88 122.52 718.65 123.88 719.9 124.1 719.42 126.91 720.65 127.12 720.48 128.06 719.25 127.85 719.09 128.78 717.92 128.58 717.65 130.11 718.83 130.31 718.5 132.17 720.76 131.56 722.71 131.95 725.39 130.85 726.19 130.4 727.5 130.09 728.74 129.13 Z" id="35580110"/>
<path d="M 644.57 155.62 646.52 159.51 648 160.94 653 162.62 654.39 163.27 655.7 163.23 656 162.65 657.61 161.82 659.58 162.82 661.17 162.59 662.3 161.46 663.05 161.42 665.38 160.71 667.35 160.79 668.61 161.12 669.49 161.85 671.1 162.45 672.16 162.62 674.68 162.38 674.57 164.37 674.02 165.34 672.67 166.89 670.83 167.93 670.16 167.89 669.52 166.96 667.75 168.58 666.8 168.52 665.21 167.91 662.2 167.57 660.01 167.17 659.29 166.8 658.69 167.57 659.48 168.11 658.59 171.62 659.67 171.81 661.65 172.94 662.09 173.47 661.82 174.46 660.75 174.54 660.62 176.66 661.75 179.05 662.37 179.62 663.72 180.04 665.81 181.98 666.63 182.24 667.31 183.07 668.53 182.35 668.26 183.78 668.5 184.93 669.4 185.52 670.11 186.58 670.93 186.27 671.7 184.89 672.76 184.01 673.44 183.79 674.85 185.32 675.58 185.87 677.44 188.6 679.1 186.8 678.85 186.34 679.19 185.22 680.81 185.09 681.87 184.62 682.7 184.6 683.79 183.67 684.12 182.9 686.93 185.67 688.85 187.42 690.28 189.86 690.68 192.39 691.34 193.18 692.33 195.43 692.39 195.97 693.31 196.22 692.62 198.63 694.71 199.24 694.08 200.5 694.41 200.7 694.1 201.29 694.84 201.73 692.76 205.3 693.97 206.01 691.4 210.43 692.46 211.2 688.6 217.8 689.77 218.48 687.73 221.95 686.57 221.27 685.31 223.42 684.98 223.29 684.7 221.85 684.16 220.93 683.45 221.01 681.91 222.37 681.7 222.8 677.61 223.22 677.75 224.51 675.86 224.71 676.27 228.48 674.13 230.41 674.18 231.59 673.29 235.34 672.69 237.85 673.08 237.96 672.16 242.88 670.6 242.49 670.88 241.34 668.72 240.96 667.49 240.44 667.18 241.28 664.91 240.79 664.66 239.29 664.56 236.87 663.09 235.31 662.28 234.89 661.62 233.99 660.59 233.28 659.8 231.88 659.96 230.5 655.74 231.59 654.4 231.76 653.23 232.23 652.71 232.03 650.08 231.85 649.34 231.67 649.02 229.03 648.1 228.52 646.92 227.16 645.63 227.28 645.06 225.85 644.4 225.15 642.49 224.85 641.09 224.24 639.67 223.15 639.25 222.57 637.69 222.05 636.64 221.08 634.76 220.68 633.72 220.07 633.01 218.96 631.85 219.89 630.55 221.86 628.76 222.59 626.24 222.01 625.26 222.79 624.14 222.84 624.73 225.58 622.52 227.61 621.2 227.42 620.28 227.61 619.17 228.42 617.85 228.96 617.26 228.99 615.51 228.09 614.2 223.98 613.99 222.54 614.6 221.03 614.62 218.21 614.91 217.34 614.78 216.52 615.34 214.46 615.98 211.21 616.13 210.52 616.03 210.51 616 210.3 616.58 208.58 621.53 209.46 623.05 201.86 627.76 202.77 628.35 201.77 628.83 202.05 629.71 201.67 630.05 201.06 631.02 200.99 631.31 199.71 632.23 198.17 632.35 195.86 633.16 195.9 633.09 194.81 633.37 193.45 633.32 192.5 634.04 192.67 634.68 190.04 635.1 190.14 635.41 188.86 635.83 188.96 636.13 187.68 636.96 187.88 637.3 186.53 636.46 186.33 637.11 183.64 636.77 182.46 639.32 183.08 641.22 175.21 639.75 174.84 640.06 173.6 639.04 173.21 639.21 172.03 640.7 165.82 641.86 166.1 643.05 161.17 641.36 159.06 642.5 157.6 644.57 155.62 Z" id="35580310"/>
<path d="M 736.73 88.19 736.73 88.76 736.18 90.73 734.79 93.19 734.75 95.49 733.56 99.08 736.96 99.41 736.92 99.91 738.16 100.01 737.9 103.35 735.92 103.19 736.24 104.33 736.85 105.46 737.35 105.63 738.68 108.83 739.46 109.77 742.12 111.51 743.8 114.53 743.55 115.91 742.86 116.63 742.65 117.51 743.49 118.3 743.32 119.34 742.58 120.34 741.02 121.44 740.8 122.43 739.02 122.17 737.87 122.68 737.57 124.04 737.03 124.86 737.52 125.55 736.82 126.19 733.83 126.89 732.34 128.8 731.37 129.59 730.76 129.5 729.51 128.63 728.74 129.13 727.5 130.09 726.19 130.4 725.39 130.85 722.71 131.95 720.76 131.56 718.5 132.17 718.83 130.31 717.65 130.11 717.92 128.58 719.09 128.78 719.25 127.85 720.48 128.06 720.65 127.12 719.42 126.91 719.9 124.1 718.65 123.88 718.88 122.52 718.7 121.76 717.1 121.24 717.62 119.66 716.13 118.41 714.94 117.99 714.35 118.28 712.75 116.48 711.94 114.8 712.11 113.94 713.85 111.92 714.24 110.28 712.81 108.51 711.8 108.01 710.67 108.1 708.07 107.48 705.44 107.91 704.38 107.94 702.72 108.54 700.79 110.86 699.66 111.27 699.17 109.84 697.94 108.81 696.97 108.4 696.51 105.71 695.26 105.18 693.98 104 692.89 103.58 689.9 103.5 688.17 102.8 688.5 100.62 687.42 100.64 685.27 100.07 684.45 100.72 682.85 101.13 681.73 101.92 681.22 102.99 681.12 104.02 680.59 104.8 679.67 102.79 678.91 102.47 676.99 100.17 677 99.58 675.91 97.01 673.89 94.58 672.06 93.44 671.49 92.6 669.54 92.21 668.03 90.99 667.25 89.35 667.56 85.71 667.1 83.48 661.07 85.05 660.49 86.18 661.12 87.22 661.26 88.19 661.91 89.65 662.01 90.42 663.36 91.79 662.61 92.45 662.44 93.19 663.75 94.04 663.76 95.96 663.46 96.88 661.74 97.41 661.28 97.83 660.14 97.45 659.86 98.66 659.37 99.39 657.26 101.34 655.67 102.44 654.18 104.5 653.11 105.27 652.1 105.66 650.81 106.59 649.73 106.72 649.05 106.35 649.11 104.91 647.89 104.86 648.04 101.44 642.98 101.22 643.11 98.16 640.67 97.85 639.96 97.08 639.47 94.63 639.53 93.48 640.91 91.95 641.91 91.45 642.17 90.35 641.6 88.62 650.92 85.54 651.98 86.04 652.05 84.59 651.48 83.69 652.47 82.99 653.18 81.7 654.62 81.13 653.52 80.37 651.81 78.68 652.6 78.26 651.78 77.29 653.17 76.16 654.62 78.55 655.33 78.28 655.1 76.86 656.45 77.74 657.3 78.04 657.85 77.48 657.66 75.92 658.28 75.11 658.43 74.16 659.46 74.13 659.7 72.57 661.06 72.26 660.98 70.52 661.5 68.9 662.6 66.34 664.17 65.25 665.81 64.94 666.46 65.42 666.22 66.29 667.97 67.34 668.42 68.28 669.28 67.53 667.91 64.84 668.57 64.47 667.92 63.19 668.08 61.12 666.84 61.12 666.83 58.19 669.32 58.2 669.31 59.15 670.54 59.16 670.52 58.2 671.77 57.99 671.78 57.26 674.3 57.26 674.3 56.31 675.52 56.53 677.26 55.85 679.32 55.28 679.9 55.35 680.64 54.4 679.43 54.4 679.43 52.76 678.82 51.9 679.23 34.12 678.69 33.98 674.83 16.76 679.57 18.3 691.46 21.83 697.41 23.75 699.54 24.11 703.36 25.32 715.25 28.87 722.99 50 724.04 52.38 725.74 57.42 727.01 62.18 727.15 63.25 728.63 66.94 730.26 71.7 731.6 76.46 733.09 81.2 736.7 84.01 736.73 88.19 Z" id="35580320"/>
<path d="M 680.59 104.8 679.86 105.26 680.38 105.86 681.03 107.49 680.39 109.11 679.83 109.89 679.64 111.64 678.76 113.51 676.92 113.39 675.68 114.04 675.41 114.47 675.44 116.14 674.93 116.7 674.13 119.27 673.57 119.95 674.56 121.08 673.49 121.86 673.24 123.06 673.32 125.38 674.11 128.19 674.49 128.33 675.15 132.11 676.52 136.75 677.5 138.58 678.22 140.36 677.28 141.29 675.37 141.93 672.96 142.03 672.18 143.16 672.91 144.63 673.68 145.33 673.93 146.24 674.78 146.56 675.48 148.03 674.97 150.27 675.13 151.45 674.8 152.57 674.95 153.18 676.45 154.75 677.27 155.29 676.93 156.72 675.8 158.61 675.88 160.72 674.68 162.38 672.16 162.62 671.1 162.45 669.49 161.85 668.61 161.12 667.35 160.79 665.38 160.71 663.05 161.42 662.3 161.46 661.17 162.59 659.58 162.82 657.61 161.82 656 162.65 655.7 163.23 654.39 163.27 653 162.62 648 160.94 646.52 159.51 644.57 155.62 642.54 152.1 641.26 150.76 637.64 148.97 637.04 149.08 636.36 147.03 635.9 146.78 634.84 145.31 633.95 145.81 633.41 144.84 632.3 145.46 631.85 144.66 632.95 144.04 632.72 143.63 633.41 142.64 632.2 141.87 632.36 141.38 631.43 140.28 632.59 139.77 635.11 139.86 635.29 133.99 636.51 134.04 636.87 123.25 624.41 122.72 623.54 124.55 621.21 124.57 619.74 121.58 619.24 115.6 617.36 110.96 615.63 107.39 614.6 104.92 618.91 104.24 620.82 104.15 623.12 103.85 623.54 106.37 628.48 105.84 628.55 104.77 628.22 100.56 642.98 101.22 648.04 101.44 647.89 104.86 649.11 104.91 649.05 106.35 649.73 106.72 650.81 106.59 652.1 105.66 653.11 105.27 654.18 104.5 655.67 102.44 657.26 101.34 659.37 99.39 659.86 98.66 660.14 97.45 661.28 97.83 661.74 97.41 663.46 96.88 663.76 95.96 663.75 94.04 662.44 93.19 662.61 92.45 663.36 91.79 662.01 90.42 661.91 89.65 661.26 88.19 661.12 87.22 660.49 86.18 661.07 85.05 667.1 83.48 667.56 85.71 667.25 89.35 668.03 90.99 669.54 92.21 671.49 92.6 672.06 93.44 673.89 94.58 675.91 97.01 677 99.58 676.99 100.17 678.91 102.47 679.67 102.79 680.59 104.8 Z" id="35580330"/>
<path d="M 642.98 101.22 628.22 100.56 628.55 104.77 628.48 105.84 623.54 106.37 623.12 103.85 620.82 104.15 618.91 104.24 614.6 104.92 611.06 96.68 609.39 93.13 608.2 89.55 608.08 88.88 604.47 89.55 596.21 90.91 595.57 92 594.8 92 594.06 94.03 593.68 94.65 592.5 94.2 590.74 95.04 589.96 95.89 588.54 96.91 587.1 97.59 586.43 98.14 584.81 98.96 581.88 101.45 580.4 101.67 579.42 102.96 579.41 103.84 577.72 103.67 577.54 102.97 576.32 102.65 575.94 101.61 574.81 100.39 575.42 98.4 574.33 97.63 574.27 96.67 573 95.08 571.63 95.56 570.27 94.11 569.62 94.03 568.33 93.2 566.2 95.32 564.2 97.78 561.43 100.2 560.47 101.23 560.19 100.99 536.92 79.04 512 55.48 511.73 54.57 521.4 44.27 522.63 42.92 534.24 27.55 537.56 23.03 539.81 20.07 542.13 17.47 543.69 15.94 545.51 14.39 547.69 12.8 551.62 10.47 554.47 9.2 557.64 8.16 562.77 6.61 566.78 6.04 571.6 4.14 577.88 2.18 580.42 1.54 582.64 1.18 586.29 1 589.24 1.24 592.93 2.1 595.73 3.08 597.5 3.89 638.05 26.75 639.85 27.68 644.4 26.78 645.61 26.81 654.03 28.85 654.83 28.87 648.76 14.6 646.69 9.84 645.69 7.26 674.83 16.76 678.69 33.98 679.23 34.12 678.82 51.9 679.43 52.76 679.43 54.4 680.64 54.4 679.9 55.35 679.32 55.28 677.26 55.85 675.52 56.53 674.3 56.31 674.3 57.26 671.78 57.26 671.77 57.99 670.52 58.2 670.54 59.16 669.31 59.15 669.32 58.2 666.83 58.19 666.84 61.12 668.08 61.12 667.92 63.19 668.57 64.47 667.91 64.84 669.28 67.53 668.42 68.28 667.97 67.34 666.22 66.29 666.46 65.42 665.81 64.94 664.17 65.25 662.6 66.34 661.5 68.9 660.98 70.52 661.06 72.26 659.7 72.57 659.46 74.13 658.43 74.16 658.28 75.11 657.66 75.92 657.85 77.48 657.3 78.04 656.45 77.74 655.1 76.86 655.33 78.28 654.62 78.55 653.17 76.16 651.78 77.29 652.6 78.26 651.81 78.68 653.52 80.37 654.62 81.13 653.18 81.7 652.47 82.99 651.48 83.69 652.05 84.59 651.98 86.04 650.92 85.54 641.6 88.62 642.17 90.35 641.91 91.45 640.91 91.95 639.53 93.48 639.47 94.63 639.96 97.08 640.67 97.85 643.11 98.16 642.98 101.22 Z" id="35580340"/>
<path d="M 672.16 242.88 671.5 246.05 670.88 245.92 670.38 246.55 669.14 247.26 668.71 248.4 669.27 249.06 669.26 250.32 669.59 251.59 670.07 251.59 670.04 253.86 670.84 254.17 671.05 256.3 670.64 259.27 669.85 257.99 665.35 260.59 666.06 261.84 662.46 263.92 661.89 264.72 661.89 265.49 658.15 265.42 658.18 263.76 656.94 264.37 655.76 264.09 654.72 263.55 652.99 263.19 649.9 262.97 649.26 263.49 649.16 268 647.93 267.97 647.83 271.97 646.34 271.36 645.92 271.78 644.58 271.75 642.39 272.13 641.41 271.95 640.26 272.18 638.24 273.1 637.81 272.6 636.27 272.32 635.13 273.12 634.62 274.2 633.5 274.92 632.41 275.3 631.77 275.82 630.34 276.1 627.98 277.37 625.84 277.72 625.47 277.61 623.31 278.57 621.56 279.5 620.46 280.94 620.25 282.04 619.56 282.9 618.97 284.1 618.3 284.36 618.35 285.03 617.43 285.37 617.7 286.08 617.17 286.91 615.64 286.94 614.53 286.6 613.63 287.16 613.07 288.39 611.81 287.63 611.19 288.78 610.42 288.42 609.77 289.61 608.27 288.8 605.08 294.72 605.46 294.93 604.82 296.1 605.2 296.3 604.51 297.57 605.27 297.97 604.67 299.1 603.91 298.69 603.23 299.96 601.38 298.97 600.7 300.11 602.67 301.34 601.75 304.43 600.94 305.42 597.57 309.36 594.06 313.67 589.89 312.51 582.02 310.24 568.42 306.39 567.14 294.73 566.71 292.7 566.7 290.63 567.16 290.25 567.68 287.83 567.59 286.83 567.84 285.55 568.94 283.69 570.15 280.95 571.55 278.87 572.11 278.62 571.22 275.1 568.92 274.15 567.27 273.33 564.08 270.42 564.36 268.71 565.08 266.61 565.53 264.41 564.15 262.75 563.27 262.26 561.21 260.45 561.01 259.84 560.11 259.24 559.61 258.1 557.66 255.63 557.48 254.36 558.67 253.53 559.69 253.43 560.56 252.94 561.8 251.55 562.58 251.43 563.65 250.14 563.43 248.5 562.88 247.62 563.21 246.47 562.94 243.73 563.05 241.92 563.97 241.3 566.57 241.45 569.54 240.07 571.1 239.83 572.38 239.11 573.45 238 574.09 238.32 575 238.24 576.14 239.42 576.85 240.58 577.98 240.05 580 239.85 580.94 240.02 582.47 239.94 583.36 241.01 584.81 242.14 587.34 243.34 589.04 242.14 589.37 241.59 589.34 240.16 589.07 239.13 589.81 238.19 589.96 236.88 589.04 235.5 588.85 234.47 589.2 233.55 590.45 232.47 591.25 230.3 591.19 228.84 591.97 227.48 592.32 226.36 592.22 224.76 592.77 224.3 593.81 222.75 595.82 222.49 597.9 221.81 599.79 221.51 601.1 220.67 602.18 220.97 602.36 222.23 603.13 223.76 603.53 225.9 603.35 226.75 604.75 228.17 604.58 229.16 605.45 230.29 606.39 230.82 607.16 232.25 608.8 234.07 609.96 234.7 610.88 234.9 611.8 233.72 611.95 233.04 613.52 231.85 615.25 231.76 616.41 231.35 617.62 230.29 617.85 228.96 619.17 228.42 620.28 227.61 621.2 227.42 622.52 227.61 624.73 225.58 624.14 222.84 625.26 222.79 626.24 222.01 628.76 222.59 630.55 221.86 631.85 219.89 633.01 218.96 633.72 220.07 634.76 220.68 636.64 221.08 637.69 222.05 639.25 222.57 639.67 223.15 641.09 224.24 642.49 224.85 644.4 225.15 645.06 225.85 645.63 227.28 646.92 227.16 648.1 228.52 649.02 229.03 649.34 231.67 650.08 231.85 652.71 232.03 653.23 232.23 654.4 231.76 655.74 231.59 659.96 230.5 659.8 231.88 660.59 233.28 661.62 233.99 662.28 234.89 663.09 235.31 664.56 236.87 664.66 239.29 664.91 240.79 667.18 241.28 667.49 240.44 668.72 240.96 670.88 241.34 670.6 242.49 672.16 242.88 Z" id="35580350"/>
<path d="M 391.03 276.9 391.58 276.91 392.24 277.78 391.7 278.28 391.03 276.9 Z M 414.95 216.18 415.33 217.11 414.94 217.71 415.19 218.5 414.83 219.73 413.88 220.86 412.98 220.81 414.28 219.09 414.2 218.21 414.95 216.18 Z M 415.29 213.87 415.9 215.55 414.85 215.81 414.54 214.81 415.29 213.87 Z M 416.55 201.02 417.76 202.08 417.52 202.98 417.61 204 418.1 205.74 415.83 207.47 415.52 207.13 414.18 207.67 413.63 206.54 414.17 206.13 414.07 204.99 414.78 204.03 414.84 203.23 416.03 201.37 416.55 201.02 Z M 457.1 114.11 458.41 112.4 461.46 114.74 462.91 114.59 463.26 114.89 465.03 114.05 466.16 114.85 466.57 115.58 466.62 118.21 468.19 119.62 470.24 122.6 487.71 148.15 494.07 157.47 494.47 158.01 496.09 157.92 496.88 158.12 499.83 160.36 500.81 160.32 501.35 160.79 501.52 161.65 503.43 163.14 504.48 163.4 505.33 164.54 503.38 166.13 504.19 167.38 504.34 168.72 505.26 169.73 505.74 169.74 506.27 171.67 506.07 172.55 506.42 173.35 506.58 175.89 507.33 173.53 507.7 171.1 508.87 168.68 509.93 167.93 510.45 168.15 511.13 168.04 511.29 168.97 511.91 170.39 513.35 172.33 514.57 172.64 516.64 174.74 517.4 175.04 517.55 177.23 518.35 179.12 520.06 180.07 522.31 180.61 523.19 180.67 524.03 180.2 526.33 179.6 527.29 180.15 528.13 181.37 529.49 182.28 529.86 183.23 531.03 183.85 532.37 184.04 534.41 183.98 535.25 184.7 536.77 184.47 537.97 185.33 539.88 184.8 541.01 183.75 541.14 182.56 541.53 181.67 541.41 179.16 543.17 178.89 544.4 178.45 545.56 178.97 546.45 179.66 548.37 182.09 549 183.45 551.52 185.37 552.74 184.95 554.41 185.31 555.73 185.84 556.92 185.49 559.96 185.91 560.1 187.07 557.55 188.73 555.05 189.93 554.34 190.69 552.99 191.47 550.92 192.14 550.91 193.6 551.46 195.97 551.49 197.08 550.66 197.84 549.26 198.6 548.11 198.83 546.86 198.64 546.55 199.8 544.15 200.5 543.66 201.94 542.61 204.26 542.24 206.22 542.35 207.07 542.1 208.64 540.9 208.8 540.71 209.93 539.96 211.68 539.96 212.4 539.42 213.92 540.87 217.57 539.74 219.43 539.56 220.56 538.75 222.07 536 223.31 535.55 224.82 534.46 224.4 533.02 225.58 531.85 227.2 532.05 229.07 531.84 231.72 530.25 232.75 528.87 234.31 528.18 234.39 527.51 236.54 527.74 238.09 526.72 239.98 526.52 240.81 527.26 241.95 527.78 243.88 527.22 246.03 528.05 248.68 528.54 249.44 528.62 250.99 528.42 251.85 527.4 251.47 525.86 251.34 525.16 251.67 523.2 253.45 522 255.25 521.31 255.86 520.68 257.07 518.96 257.37 517.5 258.18 516 258.48 511.73 258.89 510.22 258.83 508.68 258.49 505.88 260.82 504.12 261.95 501.25 261.28 499.41 260.18 496.71 259.54 493.57 259.77 491.42 260.22 489.03 260.51 487 260.26 484.9 259.83 482.02 260.42 480.12 261.01 479.06 261.64 478.36 259.72 477.36 258.53 475.92 256.44 474.71 255.88 473.56 255.09 471.62 252.92 470.04 255.17 468.98 256.42 466.89 260.22 465.85 261.48 464.48 264.64 461.47 263.49 459.56 262.03 458.08 261.76 456.69 262.48 455.49 262.83 452.85 264.26 451.87 264.6 449.91 264.57 449.22 264.74 448.96 265.98 448.4 267.07 448.34 268.2 446.48 268.18 444.43 267.5 442.48 268.29 441.49 269.86 441.68 273.57 442.55 276.27 443.44 276.83 444.07 277.92 445.42 279.15 446.59 281.26 446.93 282.51 449.03 284.46 449.29 286.21 449.81 287.51 450.05 289.24 450.56 291.32 450.26 292.44 450.43 294.01 452.82 294.02 453.59 294.51 454.55 294.47 455.76 298.73 456.33 299.41 456.02 300.76 457.87 301.46 457.46 302.85 456.91 303.92 458.61 305.13 458.94 306.55 460.22 307.63 460.64 309.29 460.73 310.88 461.3 311.99 461.47 313.02 463.11 313.25 463.69 314.4 462.56 314.83 460.94 314.9 459.17 314.53 458.62 313.7 458.86 312.39 458.02 312.49 457.99 313.17 456.41 314.6 455.35 314.17 455.18 313.39 454.07 313.49 453.77 314.06 451.6 314.39 451.02 314.06 451.12 313.05 450.34 312.46 449.13 313.01 448.84 312.56 449.44 309.92 450 308.87 449.41 307.89 450.03 307.03 449.91 305.71 449.24 304.49 448.23 304.48 446.94 303.93 445.21 305.61 444.4 307.59 443.36 308.61 442.47 309.94 442.67 310.55 444.64 311.5 443.05 312.94 443.04 313.61 443.77 313.75 443.82 315.09 442.69 315.17 440.32 314.9 438.55 313.17 437.4 311.28 436.33 310.21 435.06 310.59 433.6 310.21 432.87 309.37 431.38 310.08 430.85 308.94 429.65 308.4 430.76 307.67 430.79 306.69 429.52 305.89 429.15 306.22 427.41 306.02 426.17 305.44 423.99 306.32 422.35 305.96 421.84 305.29 421.84 304.29 422.19 303.52 421.75 302.99 419.81 303.13 418.85 302.2 418.8 301.52 417.91 300.79 417.84 300.07 418.53 299.55 418.92 298.68 417.57 296.37 418.26 295.74 418.19 294.92 417.58 293.37 416.92 292.41 415.36 292.28 415.26 290.84 414.02 289.36 412.37 288.91 411.92 289.9 410.31 290.75 411.23 288.67 411.07 287.32 408.76 284.93 407.47 284.13 404.65 282.9 403.59 284.08 402.26 284.65 401.6 283.98 399.29 283.31 397.96 283.75 397.35 284.93 396.51 286 396.42 286.88 397.11 287.42 396.67 288.27 395.82 287.4 395.64 289.08 395.12 288.97 394.13 286.04 394.7 284.88 394.36 282.9 395.18 282.57 396.68 284.92 397.54 284.17 396.92 283.03 396.06 282.51 396.87 281.59 396.36 280.48 395.69 279.91 395.97 279.16 394.64 278.66 393.32 280.68 391.99 278.74 392.36 278.13 393.08 278.2 393.78 277.03 392.98 275.92 393.25 274.6 392.25 273.91 391.13 274.59 389.12 274.23 389.69 273.01 389.16 271.03 389.21 269.02 389.85 268.49 389.66 266.77 390.87 264.78 391.6 263.87 391 259.6 391.57 260.18 391.91 263.14 396.65 262.98 398.63 262.63 398.32 256.43 397.25 256.33 397.19 257.23 396.16 257.38 395.85 256.96 392.38 256.76 389.57 258.53 389.21 258.19 392.19 256.31 395.32 256.49 396.62 256.39 397.11 256.14 398.37 256.05 398.07 255.47 397.18 256.02 395.92 256.42 394.51 256.32 394.21 254.18 395.34 252.35 396.59 251.98 396.66 251.2 398.28 249.96 397.39 244.91 396.58 243.59 395.47 243.12 396.22 242.18 395.83 241.26 395.05 240.96 394.69 241.54 393.41 242.11 392.36 241.27 391.86 242.01 391.03 242.05 390.79 242.67 389.99 242.73 388.63 241.93 388.13 241.11 386.76 240.64 385.84 239.98 385.5 239.24 386.24 238.26 386.46 237.13 387.73 237.99 387.97 238.94 388.72 239.36 389.75 238.62 389.96 237.96 390.72 237.31 389.9 236.87 390.16 235.99 391.14 236.34 392.88 235.62 394.22 234.62 394.43 234.05 394.17 232.04 395.1 231.64 394.53 230.97 394.52 230.32 395.37 229.74 396.75 230.8 397.71 230.24 398.1 230.82 398.03 232 398.81 232.17 399.02 231.48 399.75 230.9 402.56 230.84 404.41 229.69 406.39 230.41 407.54 228.96 408.63 228.7 409.27 229.19 409.85 227.81 411.04 227.35 411.08 225.13 410.92 222.6 411.37 222.5 412.49 224.18 414.17 224.24 415.3 223.45 416.27 222.24 416.8 220.29 417.79 219.97 417.54 218.78 418.5 218.37 419.96 218.93 420.94 217.65 420.82 216.49 421.52 216.47 422.26 215.45 422.42 214.29 423.87 214.32 425.26 213.04 426.02 212.81 427.66 211.39 430.08 211.99 429.79 213.64 429.11 215.32 429.06 216.51 430.89 215.15 430.63 214.36 429.97 213.92 429.9 213.18 430.26 211.86 430.71 212.11 432.02 211.52 434.89 209.5 435.51 208.7 435.09 207.91 436.08 207.27 440.56 203.56 441.52 203.18 442.63 201.28 443.57 200.99 444.7 199.79 445.43 200.26 446.05 199.83 448.89 196.61 449.36 195.59 450.88 194.91 452.06 192.96 452.14 191.61 452.48 190.6 452.04 189.98 453.18 188.41 454.11 188 453.94 186.98 454.45 186.81 456.93 184.79 458.58 184.07 460.19 184.91 460.43 185.58 459.56 187.31 458.9 187.87 459.97 188.66 460.29 187.84 461.06 186.99 460.73 185.15 462.64 181.45 462.91 179.8 463.75 177.97 464.83 173.96 465.19 172.24 466.08 171.01 467.02 170.12 467.75 168.01 470.69 167.92 471.78 168.22 474.27 167.97 475.52 167.51 477.44 166.08 480.46 165.03 480.88 164.61 483 164.46 482.95 163.27 486.14 160.94 486.64 160.96 488.91 160 489.55 160.13 490.84 159.64 492.53 158.54 486.52 149.84 484.24 146.47 483.24 145.16 475.87 134.44 474.21 131.89 468.02 122.88 466.87 121.5 466.53 121.41 463.82 118.95 463.17 119.06 462.29 120.05 465.28 122.77 464.75 123.34 461.15 120.08 460.93 119.6 462.11 117.51 460.51 116.28 460.4 115.35 457.98 113.48 457.1 114.11 Z" fill-rule="evenodd" id="35580360"/>
<path d="M 528.42 251.85 529.64 253.3 530.95 253.24 532.04 253.64 534.03 253.93 535.14 255.95 537.09 257.56 538.65 258.11 541.84 258.38 543.32 258.88 545.19 258.69 546.14 257.11 546.93 256.86 547.85 256.04 548.46 255.1 551.41 254.5 552.16 253.82 552.67 252.91 553.67 252.42 554.52 252.41 557.48 254.36 557.66 255.63 559.61 258.1 560.11 259.24 561.01 259.84 561.21 260.45 563.27 262.26 564.15 262.75 565.53 264.41 565.08 266.61 564.36 268.71 564.08 270.42 567.27 273.33 568.92 274.15 571.22 275.1 572.11 278.62 571.55 278.87 570.15 280.95 568.94 283.69 567.84 285.55 567.59 286.83 567.68 287.83 567.16 290.25 566.7 290.63 566.71 292.7 567.14 294.73 568.42 306.39 563.58 304.27 561.16 303.29 559.27 303.38 558.37 305.15 555.2 305.28 554.73 305.76 553.93 305.34 549.54 305.36 548.41 305.29 548.48 305.86 546.28 306.34 545.84 306.01 544 306.53 543.27 305.75 531.99 300.9 531.75 300.97 531.13 303.15 528.42 303.31 522.65 303.85 516.8 302.19 512.23 300.41 511.71 300.96 510.21 301.38 510.08 301.71 508.71 301.77 507.52 302.44 504.58 302.96 499.05 304.22 498.84 305.26 496.73 305.25 496.6 306.12 495.65 306.36 495.01 305.96 493.77 305.8 493.14 307.57 487.98 308.06 482.02 308.54 481.48 306.23 481.47 309.61 481.28 309.6 481.26 306.51 480.77 306.01 465.74 312.96 465.46 313.83 464.47 313.61 463.69 314.4 463.11 313.25 461.47 313.02 461.3 311.99 460.73 310.88 460.64 309.29 460.22 307.63 458.94 306.55 458.61 305.13 456.91 303.92 457.46 302.85 457.87 301.46 456.02 300.76 456.33 299.41 455.76 298.73 454.55 294.47 453.59 294.51 452.82 294.02 450.43 294.01 450.26 292.44 450.56 291.32 450.05 289.24 449.81 287.51 449.29 286.21 449.03 284.46 446.93 282.51 446.59 281.26 445.42 279.15 444.07 277.92 443.44 276.83 442.55 276.27 441.68 273.57 441.49 269.86 442.48 268.29 444.43 267.5 446.48 268.18 448.34 268.2 448.4 267.07 448.96 265.98 449.22 264.74 449.91 264.57 451.87 264.6 452.85 264.26 455.49 262.83 456.69 262.48 458.08 261.76 459.56 262.03 461.47 263.49 464.48 264.64 465.85 261.48 466.89 260.22 468.98 256.42 470.04 255.17 471.62 252.92 473.56 255.09 474.71 255.88 475.92 256.44 477.36 258.53 478.36 259.72 479.06 261.64 480.12 261.01 482.02 260.42 484.9 259.83 487 260.26 489.03 260.51 491.42 260.22 493.57 259.77 496.71 259.54 499.41 260.18 501.25 261.28 504.12 261.95 505.88 260.82 508.68 258.49 510.22 258.83 511.73 258.89 516 258.48 517.5 258.18 518.96 257.37 520.68 257.07 521.31 255.86 522 255.25 523.2 253.45 525.16 251.67 525.86 251.34 527.4 251.47 528.42 251.85 Z" id="35580370"/>
<path d="M 761.78 110.2 761.94 113.29 762.83 114.16 764.56 114.53 764.83 115.81 763.76 116.66 762.83 117.1 761.15 119.21 760.49 119.15 760.12 120.34 760.01 121.69 763.07 121.93 762.9 121.52 764.37 120.75 766.86 118.75 767.28 119.29 769.58 118.31 770.11 119.46 769.68 119.67 770.18 120.75 768.42 121.56 767.05 124.05 766.71 125.37 767 126.02 767.96 126.17 770.92 124.61 770.42 123.53 771.33 123.11 770.82 121.94 773.32 120.71 774.41 123.08 773.66 123.44 774.15 124.5 772.34 125.33 772.66 126.55 771.77 127.56 772.41 129.57 772.43 130.47 771.53 130.94 768.47 131.75 768.1 132.5 768.36 134.94 768.92 135.92 770.14 136.26 772.62 136.28 774.71 137.32 775.3 136.8 775.42 135.62 776.12 135.05 778.4 134.23 779.06 134.39 778.66 137.4 779.37 139.49 779.82 139.89 780.67 139.69 781.94 138.32 782.76 136.92 782.57 135.46 783.53 136.32 783.86 135.98 784.74 136.75 784.42 137.11 783.73 137.39 783.05 139.03 783.2 140.73 785.08 143.08 785.55 143.91 785.97 145.62 786.62 146.45 788.01 147.53 789.27 149.74 791.47 150.6 792.31 151.6 792.25 152.6 790.85 155.46 791.37 156 792.57 156.57 794.6 157.94 796.04 157.56 797.14 156.4 797.61 156.74 796.98 158.21 797.86 159.17 798.85 159.69 798.51 159.72 798.51 162.11 799 162.69 798.81 164.38 795.68 160.46 793.48 168.83 792.02 173.71 789.13 175.25 788.03 175.03 787.73 175.84 785.83 176.52 785.79 177.21 785.13 179.12 784.3 181.02 784.18 182.72 783.94 182.99 774.99 182.05 775.14 180.68 773.83 180.54 773.94 179.78 771.83 179.39 771.81 177.96 770.63 178.1 769.96 179.31 769.05 179.36 768.5 180 766.86 180.47 766.12 181.38 765.17 182.01 764.24 181.94 763 184.15 761.03 188.36 760 187.63 758.75 186.2 756.98 183.37 755.99 182.14 756.08 181.46 755.65 179.78 754.97 178.71 752.91 176.74 752.12 177.98 750.87 178.31 750.09 179.86 749.01 181.05 748.38 182.33 747.54 182.61 746.43 184.28 746.31 185.27 744.63 186.82 743.8 187.87 742.94 188.51 742.39 187.95 742.07 189.4 737.19 188.26 736.94 188.43 730.22 183.4 731.11 182.21 729.55 181.04 730.31 180.02 727.96 178.27 727.2 179.28 725.68 178.14 724.75 179.37 722.85 180.1 722.12 180.9 721.55 182.44 720.47 183.82 720.3 185.24 719.27 187.46 718.81 189.23 717.04 191.85 716.92 192.27 717.38 193.82 717.32 194.66 716.52 195.89 717.03 198.09 716.72 200.53 715.97 201.15 715.88 201.97 717.2 202.39 717.33 203.35 716.54 204.03 715.42 204.03 714.85 205.61 714.99 206.55 714.05 206.68 712.38 206.18 712.78 204.51 710.23 203.82 710.03 203.37 707.34 202.59 707.68 201.37 706.45 201.02 706.69 200.16 702.55 198.99 700.97 204.54 698.6 203.14 696.67 202.24 694.41 200.7 694.08 200.5 694.71 199.24 692.62 198.63 693.31 196.22 692.39 195.97 692.33 195.43 691.34 193.18 690.68 192.39 690.28 189.86 688.85 187.42 686.93 185.67 684.12 182.9 684.05 182.65 686.34 179.14 687.12 178.41 688.65 178.8 690.09 178.87 690.9 177.32 690.94 175.94 691.54 175.97 692.5 177.01 694.02 177.8 693.67 179 694.59 179.25 694.27 180.4 698.92 181.73 699.59 179.38 700.23 179.59 701.3 176.11 708.58 178.16 710.04 173.33 713.52 165.44 716.09 166.55 717.9 162.54 718.01 162.1 719.8 158.13 721.06 158.6 723.8 152.51 724.94 153.01 725.43 152.32 727.63 147.41 727.47 147.1 730.33 139.57 732.07 134.84 729.82 134 730.09 133.01 727.62 132.03 728.74 129.13 729.51 128.63 730.76 129.5 731.37 129.59 732.34 128.8 733.83 126.89 736.82 126.19 737.52 125.55 737.03 124.86 737.57 124.04 737.87 122.68 739.02 122.17 740.8 122.43 741.02 121.44 742.58 120.34 743.32 119.34 743.49 118.3 742.65 117.51 742.86 116.63 743.55 115.91 743.8 114.53 742.12 111.51 739.46 109.77 738.68 108.83 737.35 105.63 736.85 105.46 736.24 104.33 735.92 103.19 737.9 103.35 738.16 100.01 736.92 99.91 736.96 99.41 733.56 99.08 734.75 95.49 734.79 93.19 736.18 90.73 736.73 88.76 736.73 88.19 744.99 88.2 750.41 86.01 750.7 86.27 750.5 90.73 750.71 92.67 752.33 94.04 752.53 95.49 751.34 97.81 753.78 100.23 756.88 98.49 758.94 98.09 762.15 96.59 763.2 98.88 762.34 99.28 762.89 100.48 762.46 100.69 762.99 101.83 762.57 102.03 763.1 103.18 762.67 103.38 763.19 104.51 762.76 104.7 763.26 105.78 761.83 106.45 761.98 106.87 761.73 108.85 761.78 110.2 Z" id="35580380"/>
</g>
</svg>