<?xml version="1.0"?>
<svg xmlns="http://www.w3.org/2000/svg" version="1.2" baseProfile="tiny" width="800" height="840" viewBox="0 0 800 840" stroke-linecap="round" stroke-linejoin="round">
<g id="dong">
<path d="M 673.01 231.67 672.76 232.25 674.79 236.42 676.42 241.77 674.6 246.6 672.39 248.18 670.44 251.21 668.63 253.01 666.9 256.33 666.51 259.82 665.08 266.39 665.42 268.52 664.48 270.77 664.51 272 665.49 276.21 665.65 283.36 667.19 286.58 669.02 288.33 669.86 293.97 669.33 297.38 673.17 299.81 674.5 302.05 680.58 307.17 683.25 310.86 683.41 313.28 685.84 317.88 686.05 320.01 689.88 321.3 692.5 323.94 693.26 325.18 697.09 327.64 700.69 331.26 702.25 334.12 703.99 336.32 704.23 337.31 705.88 338.53 708.26 339.4 708.52 340.74 710.48 341.65 712.08 344.27 713.61 345.76 714.93 346.07 716.98 348.16 719.71 349.76 721.41 350.03 725.49 353.2 725.17 356.22 724.24 357.89 723.63 360.02 723.46 366.64 724.96 370.08 726.55 371.15 731.58 377.71 730.54 380.03 729.24 385.12 726.1 391.06 726.51 391.89 726.23 394.93 727.18 396.57 726.83 399.1 728.94 402.74 730.44 407.25 730.22 410.37 731.86 414.11 736.93 416.34 738.31 416.71 740.04 418.59 743.62 423.53 744.67 426.06 744.61 428.85 745.44 431.47 743.4 431.12 740.63 432.16 740.21 434.23 736.69 434.84 734.67 436.19 734.19 437.09 730.59 437.75 727.36 440.05 726.77 442.01 724.81 442.97 722.75 446 719.88 448.2 719.61 449.13 719.87 452.58 717.74 455.9 716.06 456.14 717.11 460.01 715.47 463.56 713.69 463.45 711.33 464.42 710.87 465.79 711.83 467.76 713.31 468.5 716.1 471.25 716.63 472.54 713.55 474.83 709.31 476.09 706.86 473.8 704.84 473.08 702.71 474.02 700.78 476.47 699.18 475.1 695.89 475 693.99 472.81 691.19 473.28 687.15 471.66 686.59 473.72 683.38 475.09 680.14 475.72 678.99 478.49 677.46 480.69 675.53 482.1 672.55 481.43 668.36 483.67 667.47 483.22 665.05 483.67 663.81 482.89 660.27 484.58 656.74 487.25 654.33 491.75 651.62 492.08 648.78 493.22 648.14 494.63 646.7 495.81 645.69 498.34 644.26 504.38 643.07 504.55 642.19 505.79 640.83 509.22 638.69 509.95 635.87 509.65 634.62 508.56 632.01 507.37 630.91 507.58 630.83 505.87 629.45 500.69 630.63 499.27 630.42 497.75 630.59 493.37 629.5 492.42 630.11 490.33 631.21 488.55 630.54 486.48 627.66 482.86 624.82 480.83 623.27 480.4 623.57 477.34 620.84 476.29 618.93 476.71 616.67 478.07 615.54 478.22 613.26 476.77 608.18 476.14 607.03 476.6 603.92 476.95 601.87 477.95 599.22 478.3 597.56 477.63 595.4 473.4 594.86 471.85 594.87 469.44 596.84 466.44 597.39 465.03 600.24 462.8 603.47 462.94 605.16 462.53 606.61 461.39 608.06 458.87 608.21 456.91 607.87 453.61 606.36 454.44 604.15 453.72 600.44 454.8 597.91 454.74 596.51 455.12 594.71 453.67 592.3 454.23 590.18 454.05 587.09 454.7 585.94 454.02 582.87 454.52 581.22 454.31 578.46 456.11 576.27 455.63 575.48 456.05 573.3 455.69 571.77 454.25 570.71 451.9 568.79 451.25 566.39 448.73 565.12 446.95 564.03 443.93 562.45 443.6 558.13 441.03 556.34 439.25 553.97 439.4 552.74 439.02 551.18 441.36 550.15 442 546.92 442.97 546.06 442.18 546.3 438.49 544.61 436.35 544.47 434.37 541.45 433.47 539.46 431.84 536.44 430.65 534.42 430.54 533.16 431.54 529.73 429.78 528.22 429.39 525.24 430.97 522.6 433.49 520.65 431.45 519.26 428.3 517.77 427.01 517.4 425.18 515.49 423.66 512.14 423.41 511.06 424.69 511.17 428.03 509.65 428.75 508.48 430.01 505.3 434.4 503.98 433.11 502.07 433.58 500.06 433.52 497.79 432.51 496.24 431.33 494.74 431.25 494.13 430.21 491.72 428.65 489.84 425.95 489.89 424.88 488.76 424.02 488 420.2 487.87 417.88 486.17 416.19 486.45 414.12 485.93 412.74 485.61 407.99 484.08 407.03 485.04 401.76 488.58 396.73 491.92 395.12 494.25 395.17 494.67 393.26 490.62 391.38 489.39 391.67 486.61 391.13 486.63 392.35 485.69 393.08 482.95 392.57 481.21 393.44 479.91 393.37 478.94 392.07 477.41 391.5 476.85 389.48 474.14 389.92 471.91 388.8 470.05 387.34 470.07 385.93 469.05 385.01 468.49 383.23 467.28 382.26 466.89 380.67 464.54 378.49 461.42 378.6 460.05 378.27 457.95 376.27 456.85 374.18 456.51 370.95 454.66 367.57 452.68 367.09 448.85 366.83 446.56 366.27 444.4 366.88 440.4 366.03 436.59 363.44 434.99 360.82 434.53 358.71 435.95 356 436.34 352.07 437.92 349.6 440.06 348.02 441.82 344.85 442.13 342.63 442.01 338.99 445.06 333.32 448.12 330.69 447.41 327.07 446.15 324.6 448.68 322.5 451.51 320.69 452.82 317.35 453.08 311.9 452.74 311.29 454.01 307.83 456.84 309.31 460.47 308.86 462.29 309.5 464.7 311.09 466.34 311.42 468.75 312.84 474.61 312.31 477.52 313.41 480.62 313.12 482.43 314.75 484.05 311.34 486.51 310.42 488.67 309.07 491.31 308.92 492.98 309.36 493.8 307.87 494.29 304.12 495.45 301.95 495.37 301.05 497.12 296.31 498.22 295.23 503.37 295.62 504.81 293.94 506.47 294.33 510.15 293.28 511.78 290.97 513.88 286.54 515 287.34 518.54 288.31 520.36 289.3 521.85 290.88 524.77 293.1 525.67 293.28 527.4 296.67 528.47 297.53 529.64 299.6 531.73 300.84 532.79 302.54 534.41 302.93 535.53 304.27 537.87 305.17 539.58 305.23 541.97 306.1 544.21 308.96 546.82 309.78 548.11 311.12 552.86 311.61 555.06 310.63 557.57 311.28 558.32 312.58 558.52 318.21 561.65 316.84 565.58 317.6 566.76 315.92 572.44 314.75 576.33 311.87 579.85 308.52 582.31 304.24 584.4 302.1 585.16 298.63 586.59 295.48 585.33 292.57 586.95 289.28 586.08 286.7 586.23 285.09 587.77 282.91 590.96 277.3 590.92 275.99 593.31 273.39 595.55 272.17 596.5 270.03 598.71 268.34 600.48 268.26 601.78 267.01 602.91 265.09 608.32 260.48 608.57 256.31 609.78 252.37 610.86 250.75 612.83 249.53 615.06 247.18 615.46 245.71 617.88 244.64 618.97 242.24 619.95 241.68 622.22 238.78 623.74 238.29 627.67 236.39 630.37 234.11 633.55 233.19 636.3 233.31 636.8 232.88 639.13 233.39 641.37 230.65 642.44 228.73 644.05 227.68 646.86 227.97 648.32 228.61 651.35 228.92 655.32 229.91 655.74 229.64 660.65 230.27 662.92 231.85 664.17 234.09 665.74 234.07 669.37 232.58 673.01 231.67 Z" id="36030380"/>
<path d="M 541.09 63.92 545.73 64.98 548.06 64.77 552.27 64.94 552.64 66.15 557.19 69.82 558.64 71.77 560.05 75.67 561.52 77.56 563.5 79.03 565.15 78.37 569.76 81.3 570.98 80.77 572.92 81.83 576.72 84.94 579.94 85.4 582.29 88.19 583.3 89.85 583.71 91.57 586.79 94.24 587.72 94.04 587.61 97.45 588.25 98.14 590.38 102.99 592.25 104.79 595.19 105.06 597.34 106.55 597.57 109.97 598.72 112.93 602.01 117.73 602.08 118.8 603.48 119.21 604.76 121.25 607.62 123.48 608.42 124.91 611.76 128.23 611.52 130.12 612.19 131.05 612 135.18 611.23 136.01 611.03 138.83 609.25 140.14 608.19 141.92 611.29 143.32 618.08 148.11 620.54 148.21 621.67 149.28 623.94 149.3 626.51 147.69 627.63 147.77 629.12 149.15 631.21 149.6 634.85 149.39 637.46 149.82 643.4 148.02 646.61 148.69 649.58 147.76 650.99 145.87 653.45 148.86 653.23 152.41 654.28 153.24 656.05 157.02 654.94 158.88 655.44 161.65 658.18 162.36 662.46 165.06 665.4 167.35 665.65 168.46 664.87 170.06 666.58 172.79 670.56 175.4 674.64 175.55 676.07 176.37 676.61 178.85 676.17 179.7 676.54 181.6 676.1 185.22 678.04 188.24 679.59 189.24 682.03 192.38 681.55 193.21 679.86 191.81 678.82 192.82 679.3 193.91 678.09 195.27 677.25 199.72 678.27 204.01 677.16 208.36 675.92 210.46 675.06 214.4 673.05 215.14 670.87 217.13 671.73 219.08 671.7 221.34 673.37 225.5 673.59 230.28 673.01 231.67 669.37 232.58 665.74 234.07 664.17 234.09 662.92 231.85 660.65 230.27 655.74 229.64 655.32 229.91 651.35 228.92 648.32 228.61 646.86 227.97 644.05 227.68 642.44 228.73 641.37 230.65 639.13 233.39 636.8 232.88 636.3 233.31 633.55 233.19 630.37 234.11 627.67 236.39 623.74 238.29 622.22 238.78 619.95 241.68 618.97 242.24 617.88 244.64 615.46 245.71 615.06 247.18 612.83 249.53 610.86 250.75 609.78 252.37 608.57 256.31 608.32 260.48 602.91 265.09 601.78 267.01 600.48 268.26 598.71 268.34 596.5 270.03 595.55 272.17 593.31 273.39 590.92 275.99 590.96 277.3 587.77 282.91 586.23 285.09 586.08 286.7 586.95 289.28 585.33 292.57 586.59 295.48 585.16 298.63 584.4 302.1 582.31 304.24 579.85 308.52 576.33 311.87 572.44 314.75 566.76 315.92 565.58 317.6 561.65 316.84 558.52 318.21 558.32 312.58 557.57 311.28 555.06 310.63 552.86 311.61 548.11 311.12 546.82 309.78 544.21 308.96 541.97 306.1 539.58 305.23 537.87 305.17 535.53 304.27 534.41 302.93 532.79 302.54 531.73 300.84 529.64 299.6 528.47 297.53 527.4 296.67 525.67 293.28 524.77 293.1 521.85 290.88 520.36 289.3 518.54 288.31 515 287.34 513.88 286.54 511.78 290.97 510.15 293.28 506.47 294.33 504.81 293.94 503.37 295.62 498.22 295.23 497.9 293.72 495.62 292.68 495.16 291.13 491.7 288.16 490.3 285.44 485.9 284.86 485.2 284.4 485.59 282.55 485.11 280.82 484.94 277.51 484.37 276.51 484.56 273.55 484 272.47 485.06 269.44 486.12 268.66 486.11 266.56 487.38 263.6 486.97 260.44 485.44 259.61 484.18 257.11 481 253.35 478.75 251.8 474.27 250.23 470.71 250.33 468.3 251.27 463.11 248.11 462.3 248.67 458.45 249.05 457.83 247.64 457.76 244.4 457.17 242.39 452.59 239.93 454.45 237.89 454.89 236.4 456.57 234.73 455.66 232.53 457.15 229.61 458.25 226.46 459.45 225.01 461.25 220.42 463.96 218.07 464.35 216.82 466.57 214.18 467.7 214.02 473.24 212.21 475.02 209.66 476.81 209.1 476.61 206.65 475 201.18 476.36 201.19 477.86 200.07 480.49 200.03 480.93 198.79 480.05 197.08 480.97 194.63 478.97 193.58 474.47 191.89 472.84 190.42 470.87 190.16 469.61 189.46 466.54 189.03 465.84 188.26 462.6 189.13 460.39 186.91 459.79 185.81 456.13 184.98 453.75 184.16 451.12 182.76 450.22 181.36 447.98 179.48 446.45 176.88 445.24 168.27 442.75 164.74 440.09 161.94 439.12 161.48 439.1 157.48 440.11 156.04 440 154.83 441.1 153.26 443.15 152.17 443.11 148.66 443.59 146.54 442.43 144.74 441.14 140.01 442.13 136.01 439.18 134.64 437.95 134.76 435.07 132.98 433.18 129.98 431.97 128.74 431.25 127.01 430.06 126.32 429.65 124.25 426.47 117.26 429.02 116.27 431.19 111.74 432.24 110.33 433.47 110.32 434.63 109.3 433.91 107.23 435.12 105.47 437.16 105.51 438.78 104.29 440.21 104.32 441.27 103.38 445.06 101.51 446.52 96.88 446.72 93.97 445.43 91.73 446.71 89.31 446.54 88.45 447.21 85.49 448.13 83.16 446.55 81.64 447.75 78.12 449.3 74.49 448.44 73 447.45 72.48 446.92 70.94 445.03 68.7 444.42 67.08 444.91 64.41 445.65 63.58 445.83 61.39 446.78 60.07 446.63 58.9 447.54 57.2 447.82 55.31 447.24 53.73 447.4 51.56 446.7 49.3 447.82 48.19 447.15 47.15 446.44 44.01 445.28 41.77 443.47 39.94 442.97 37.54 441.46 36.72 439.23 33.14 439.73 30.76 440.52 28.99 440.39 25.28 439.24 24.01 438.69 22.38 440.46 17.97 440.14 15.99 441.77 15.1 442.6 12.2 442.27 10.89 443.17 9.73 443.41 6 443.86 3.29 447.16 4.2 450.86 4.8 452.88 5.52 454.28 1 455.97 1.43 459.87 3.2 462.58 4.17 466.12 6.13 470.24 9.4 473.48 11.56 480.62 17.57 484.13 19.43 487.36 21.59 490.34 23.22 492.94 25.27 494.05 26.64 496.78 31.04 499.22 34.22 500.06 35.92 508.1 43.04 509.49 44.57 511.51 47.64 515.3 49.68 518.65 50.84 521.89 53.94 523.84 54.79 532.51 60.75 533.91 61.95 536.92 62.51 541.09 63.92 Z" id="36030390"/>
<path d="M 256.54 420.88 257.73 420.88 261 422.13 261.69 423.34 263.88 431.17 263.91 434.17 262.55 436.52 259.25 440.56 258.1 443.28 258.12 447.13 259.12 456.59 261.79 458.51 262.59 459.65 259.58 466.02 259.97 469.88 261.5 471.24 264.16 472.75 263.64 474.98 264.59 476.15 264.57 477.5 263.76 478.87 261.74 480.69 260.78 484.51 260.86 488.85 261.23 490.41 260.37 493.7 258.71 494.61 259.87 498.89 259.9 501.76 258.75 504.67 259 507.82 257.8 510.55 258.61 511.49 261.75 513.62 265.87 515.35 266.8 516.84 267.28 518.83 266.71 519.94 268.1 523.1 268.76 526.26 270.63 529.45 271.72 530.53 270.35 533.47 269.41 537.29 267.48 538.25 267.05 541.64 267.51 545.69 268.29 547.16 268.87 550.01 266.93 551.8 264.77 551.93 261.43 553.92 259.01 554.62 255.68 558.35 253.53 559.75 250.08 563.27 247.18 562.91 246.03 562.07 243.51 561.35 240.83 559.86 238.58 557.63 237.25 555.02 234.91 552.13 233.61 552.46 231.7 551.38 229.7 549.05 228.33 548.54 227.2 547.31 225.77 543.97 223.44 544.37 223.62 550.01 222.2 550.53 219.92 554.53 218.35 555.98 216.85 558.44 211.35 561.23 208.41 562.47 207.23 564.2 202.78 563.24 201.53 561.27 199.54 560.47 197.95 560.84 194.54 558.01 191.89 557.9 187.33 558.6 185.95 559.26 184.52 558.84 183.08 559.23 179.99 558.91 179.13 558.44 177.41 559.07 176.5 560.87 174.61 561.9 173.71 563.14 171.48 565.08 171.46 565.81 174.22 566.12 178.14 567.84 179.33 569.08 179.67 571.85 180.82 574.42 181.69 575.46 179.83 577.84 179.09 580.32 176.64 582.36 176.21 583.49 176.89 584.86 176.92 586.67 178.36 588.29 177.86 590.32 175.64 592.64 176.55 594.55 176.43 595.82 172.39 596.38 170.16 597.05 169.32 597.78 167.56 597.73 165.76 599.16 164.28 599.59 161.96 601.73 159.23 600.35 156.38 601.61 154.74 601.51 153.04 600.78 150.25 601.32 146.33 602.85 143.65 604.32 142.85 604.02 141.77 605.57 138.69 608.23 138.04 609.16 135.74 608.23 134.71 608.51 133.78 610.9 130.73 610.74 129 611.22 127.91 612.6 125.07 612.23 122.47 614.43 121.5 612.37 119.02 610.26 118.27 609.1 118.02 606.18 118.98 605.34 119.51 603.35 116.57 599.98 115.33 597.04 114.56 593.48 112.87 590.53 110.2 588.71 110.87 586.02 110.15 583.94 109.28 583.24 105.3 583.84 103.32 582.34 100.84 581.65 99.09 580.67 96.98 578.33 93.97 575.99 93.93 572.61 93.45 571.62 93.53 569.28 94.21 565.89 95.67 564.07 95.1 562.21 95.82 559.2 94.07 554.42 91.79 551.68 91.75 550.24 90.52 548.49 89.82 545.07 90.06 544.22 89.05 540.33 86.28 537.81 85.98 536.5 84.15 536.42 80.09 536.81 76.92 534.66 74.56 534.97 72.47 533.6 68.9 533.9 69.49 531.7 67.35 529.29 65.92 526.99 65.59 525.51 64.29 522.88 63.65 520.49 62.34 518.72 60.25 518.17 57.16 515.02 55.73 512.64 59.13 509.51 60.11 507.57 60.55 505.53 64.21 504.63 65.79 503.5 66.1 502.41 65.84 499.81 61.5 497.12 59.2 496.49 58.13 495.24 55.58 489.57 53.39 482.32 53.58 481.36 51.5 473.95 49.57 470.25 48.54 468.84 45.08 467.1 42.57 466.99 39.47 468.76 38.83 469.52 34.86 471.91 32.98 474.93 31.11 476.53 29.31 478.81 29.36 479.83 27.62 480.89 27.25 482.51 27.65 484.82 31.46 486.59 30.82 493.46 31.21 498.7 31.04 500.9 31.65 502.42 31.82 505.28 30.9 508.99 29.97 510.3 28.2 511.62 25.04 511.75 23.79 510.92 20.21 511.39 17.22 510.58 17.44 508.85 15.56 506.95 12.38 502.71 10.4 499.44 9.96 498 8.73 497.06 6.75 493.65 5.43 492.52 5.2 491.23 2.96 488.76 1.79 489.32 1 488.19 2.57 483.8 5.88 479.27 7.29 475.68 7.38 474.39 9.28 472.12 8.53 471.4 6.09 470.56 2.69 467.87 2.8 466.48 1.06 463.99 1.71 460.67 2.4 459.76 2.22 457 2.54 455.97 4.77 454.96 5.22 452.38 5.96 452.05 6.64 450 5.62 447.96 4.2 446.05 3.84 444 2.69 442.58 3.19 439.63 3.93 439.28 4.82 433.91 6.35 432.75 7.1 427.15 7.15 425.15 5.95 424.71 6.64 422.81 9.54 419.47 11.33 418.62 12.96 416.85 14.29 413.88 15.45 412.16 17.21 412.08 19 411.3 20.45 410.03 22.49 409.5 25.17 409.29 24.01 405.03 22.55 401.61 22.98 398.52 23.92 395.3 22.84 393.16 21.39 391.66 22.79 389.59 22.21 385.51 23.38 382.4 24.04 378.11 22.87 375.56 24.42 373.39 21.63 368.56 20.8 366.26 19.91 362.43 19.2 360.49 17.03 358.02 17.99 356.78 22.09 355.64 22.5 354.54 27.52 353.24 30.61 351.57 38.98 350.13 40.68 349.11 43.03 347.11 45.8 348.15 47.29 348.1 48.74 348.85 54.03 348.08 56.01 347.09 56.82 345.69 59.53 343.91 61.57 344.15 66.41 342.01 68.13 343.01 72.78 342.91 75.07 345.52 77.73 345.87 78.27 346.72 80.45 347.05 83.06 349.25 83.45 350.96 82.57 352.21 83.07 353.28 85.25 354.37 88.31 356.43 91.9 357.68 92.39 359.31 97.7 356.68 98.65 355.73 102.79 355.33 108.81 354.32 111.42 354.82 114.07 354.65 115.05 349.89 117.07 345.75 120.81 347.11 129.51 347.5 130.96 344.87 130.01 343.74 131.06 342.6 132.47 340.02 134.79 340.15 138.87 338.59 141.44 339 144.32 339.91 145.46 339.29 149.47 339.12 151.87 339.79 152.81 338.43 152.92 336.67 154.62 336.34 154.67 338.32 155.91 339.8 160.24 341.28 164.07 340.04 166 340.56 166.4 342.23 167.91 343.79 170.35 345.14 171.16 346.67 172.37 347.08 174.15 346.63 174.94 347.58 175.21 349.4 176.45 351.9 175.18 355.73 174.83 357.7 177.77 359.1 178.6 360.47 178.75 362.64 179.53 363.21 178.07 365.73 180.65 368.28 183.05 370.13 185.35 374.85 185.5 377.55 187.12 378.83 190.18 380.06 192.83 378.86 195.64 379.26 197.73 378.92 201.61 379.34 203.61 380.13 206.14 378.99 209.74 379.4 212.3 378.27 213.24 377.35 215.61 376.64 218.55 378.69 219.45 378.9 224.23 381.83 224.62 384.58 224.5 388.02 223.83 390.15 224.61 393.12 225.54 393.96 227.78 398.37 226.95 401.77 227.21 402.4 226.41 405.33 226.66 407.42 225.94 409.03 226.17 411.19 225.76 412.39 227.48 413.52 230.24 416.17 232.03 416.24 234.37 417.78 236.48 422.72 238.13 422.04 240.1 420.56 242.34 420.64 243.36 420.18 245.88 420.28 251.22 422.41 252.84 422.18 253.86 422.72 255.28 421.32 256.54 420.88 Z" id="36030320"/>
<path d="M 250.08 563.27 249.28 564.23 249.65 565.53 251.3 567.84 252.21 574.81 252.98 577.21 255.39 581.71 255.36 585.37 256.25 587.96 255.24 592.22 257.54 594.04 256.64 596.35 256.54 599.08 254.49 602.2 255.77 604.84 258.73 608.74 259.75 612.47 260.31 613.44 259.91 615.61 257.92 616.72 255.04 620.22 255.72 623.17 256.19 627.1 258.16 628.35 257.41 630.17 259.04 634.48 257.16 637.67 255.38 638.24 253.76 640.14 256.35 644.04 256.49 645.93 258.65 647.64 259.79 649.79 258.78 653.13 255.6 654.68 254.45 657.3 252.35 659.78 251.08 660.47 247.31 661.95 245.45 664.87 243.55 666.61 239.62 663.83 238.04 663.36 237.31 663.88 232.12 665.14 228.91 666.29 225.29 665.63 223.42 663.67 222.37 665.09 217.96 668.1 215.38 669.22 213.27 671.34 212.8 672.98 211.41 672.49 209.38 672.58 206.28 673.86 205.42 674.88 204.79 676.95 203.32 679.08 201.31 683.51 197.83 684.45 196.21 685.38 195.33 686.98 192.93 689.17 189.27 690.5 185.82 690.12 183.58 688.84 180.35 689.96 177.92 691.46 175.61 691.88 174.47 691.53 172.23 692.22 169.95 689.69 169.63 688.32 168.29 686.13 167.04 686.65 165.79 689.16 162.19 691.65 161.89 694.52 159.7 698.11 159.72 700.28 157.9 700.77 157.53 701.68 155.73 701.53 150.66 703.82 148.71 704.27 147.79 703.53 146.65 700.43 143.04 700.33 139.63 698.77 138.04 700.66 136.75 701.13 134.52 700.48 132.17 698.83 130.32 698.48 130.09 697.5 127.3 696.35 126.58 694.95 126.58 693.44 124.26 691.86 122.28 688.93 120.01 683.98 117.58 681.76 115.85 681.01 114.67 681.47 111.71 680.93 110.32 679.72 108.07 679.51 104.36 678.28 102.67 679.26 101.04 679.42 99.88 677.08 99.07 672.59 96.37 669.53 97.26 669.4 98.61 667.17 100.66 665.77 101.69 664.47 103.23 664.41 103.49 661.49 103.31 659.84 101.69 656.6 105.56 652.85 105.81 650.54 104.85 649.49 105.21 648.55 104.72 646.59 106.56 643.83 106.25 641.87 108.31 639.5 108.74 636.17 110.14 631.85 111.13 630.62 110.11 629.99 109.69 627.23 110.68 626.28 112.23 622.9 114.67 621.59 119.59 622 122.24 620.54 123.47 619.38 125.64 619.16 123.02 616.03 122.47 614.43 125.07 612.23 127.91 612.6 129 611.22 130.73 610.74 133.78 610.9 134.71 608.51 135.74 608.23 138.04 609.16 138.69 608.23 141.77 605.57 142.85 604.02 143.65 604.32 146.33 602.85 150.25 601.32 153.04 600.78 154.74 601.51 156.38 601.61 159.23 600.35 161.96 601.73 164.28 599.59 165.76 599.16 167.56 597.73 169.32 597.78 170.16 597.05 172.39 596.38 176.43 595.82 176.55 594.55 175.64 592.64 177.86 590.32 178.36 588.29 176.92 586.67 176.89 584.86 176.21 583.49 176.64 582.36 179.09 580.32 179.83 577.84 181.69 575.46 180.82 574.42 179.67 571.85 179.33 569.08 178.14 567.84 174.22 566.12 171.46 565.81 171.48 565.08 173.71 563.14 174.61 561.9 176.5 560.87 177.41 559.07 179.13 558.44 179.99 558.91 183.08 559.23 184.52 558.84 185.95 559.26 187.33 558.6 191.89 557.9 194.54 558.01 197.95 560.84 199.54 560.47 201.53 561.27 202.78 563.24 207.23 564.2 208.41 562.47 211.35 561.23 216.85 558.44 218.35 555.98 219.92 554.53 222.2 550.53 223.62 550.01 223.44 544.37 225.77 543.97 227.2 547.31 228.33 548.54 229.7 549.05 231.7 551.38 233.61 552.46 234.91 552.13 237.25 555.02 238.58 557.63 240.83 559.86 243.51 561.35 246.03 562.07 247.18 562.91 250.08 563.27 Z" id="36030330"/>
<path d="M 498.22 295.23 497.12 296.31 495.37 301.05 495.45 301.95 494.29 304.12 493.8 307.87 492.98 309.36 491.31 308.92 488.67 309.07 486.51 310.42 484.05 311.34 482.43 314.75 480.62 313.12 477.52 313.41 474.61 312.31 468.75 312.84 466.34 311.42 464.7 311.09 462.29 309.5 460.47 308.86 456.84 309.31 454.01 307.83 452.74 311.29 453.08 311.9 452.82 317.35 451.51 320.69 448.68 322.5 446.15 324.6 443.62 322.57 442.97 319.38 442.57 315.69 442.24 308.89 440.72 308.23 435.22 308.43 431.44 311.81 429.21 313.07 428.16 314.56 426 314.96 422.81 314.81 415.29 317.33 411.86 316.28 410.27 314.91 406.95 313.07 405.26 310.53 401.46 306.32 399.83 303.18 399.38 300.16 396.89 297.72 392.24 296.18 389.95 291.71 387.17 289.81 384.8 287.5 382.01 284.27 383.1 280.47 382.92 278.84 381.05 276.52 378.27 274.99 377.85 274.31 374.13 272.07 372.68 271.91 371.56 273.17 369.31 273.95 369.2 274.69 366.9 275.1 366.25 276.57 363.94 277.05 360.96 278.4 357.86 280.41 355.66 280.75 353.55 279.08 345.97 278.46 343.27 278.62 341.33 281.01 337.21 281.29 332.78 283.31 329.88 283.74 329.22 284.68 327.1 285.5 325.77 284.74 322.42 284.49 320.81 285.74 320.18 284.2 318.71 284.33 317.12 283.64 317.02 281.69 317.61 280.16 317.08 277.56 315.17 275.12 315.03 273.46 313.61 272.7 313.14 270.7 313.27 269.06 312.45 267.58 310.41 265.53 309.83 262.96 308.83 261.39 307.4 260.32 305.52 256.95 309.2 249.86 309.17 248.27 308.15 245.98 307.66 242.86 305.88 240.63 305.69 239.02 304.54 236.43 304.66 233.77 305.75 231.94 306.28 228.8 307.28 226.79 307.12 225.53 308.57 222.07 309.53 221.44 311.51 221.3 313.16 220.05 314.91 217.69 316.17 214.86 317.82 214.81 319.18 214 321.91 210.49 324.82 210.25 326.08 210.9 328.31 210.13 332.2 209.59 333.1 211.13 337.99 211.94 340.26 211.85 344.5 213.29 345.02 214.08 349.03 214.8 350.44 212.86 351.68 211.97 356.86 210.13 358.66 211.43 361.62 211.22 362.9 209.65 368.14 210.18 372.3 208.43 373.62 206.86 375.84 205.12 379.84 204.93 381.3 203.5 381.13 202.14 382.65 199.75 382.36 196.99 385.02 195.23 385.44 191.56 386.47 188.46 389.17 187.79 390.36 183.12 390.65 180.48 393.42 179.26 394.27 176.45 394.43 173.48 393.19 172.17 392.52 167.97 393.87 165.69 395.58 164.56 395.35 161.92 396.04 159.53 397.31 159 400.9 155.84 400.74 149.37 399.77 146.98 400.16 146.03 402.31 146.78 405.61 143.78 408.45 144.15 412.03 143.24 413.62 142.34 414.89 142.77 418.04 140.3 418.98 138.78 418.27 138.21 418.95 136.74 420.18 135.9 422.21 132.51 424.52 130.71 427.86 126.94 429.65 124.25 430.06 126.32 431.25 127.01 431.97 128.74 433.18 129.98 435.07 132.98 437.95 134.76 439.18 134.64 442.13 136.01 441.14 140.01 442.43 144.74 443.59 146.54 443.11 148.66 443.15 152.17 441.1 153.26 440 154.83 440.11 156.04 439.1 157.48 439.12 161.48 440.09 161.94 442.75 164.74 445.24 168.27 446.45 176.88 447.98 179.48 450.22 181.36 451.12 182.76 453.75 184.16 456.13 184.98 459.79 185.81 460.39 186.91 462.6 189.13 465.84 188.26 466.54 189.03 469.61 189.46 470.87 190.16 472.84 190.42 474.47 191.89 478.97 193.58 480.97 194.63 480.05 197.08 480.93 198.79 480.49 200.03 477.86 200.07 476.36 201.19 475 201.18 476.61 206.65 476.81 209.1 475.02 209.66 473.24 212.21 467.7 214.02 466.57 214.18 464.35 216.82 463.96 218.07 461.25 220.42 459.45 225.01 458.25 226.46 457.15 229.61 455.66 232.53 456.57 234.73 454.89 236.4 454.45 237.89 452.59 239.93 457.17 242.39 457.76 244.4 457.83 247.64 458.45 249.05 462.3 248.67 463.11 248.11 468.3 251.27 470.71 250.33 474.27 250.23 478.75 251.8 481 253.35 484.18 257.11 485.44 259.61 486.97 260.44 487.38 263.6 486.11 266.56 486.12 268.66 485.06 269.44 484 272.47 484.56 273.55 484.37 276.51 484.94 277.51 485.11 280.82 485.59 282.55 485.2 284.4 485.9 284.86 490.3 285.44 491.7 288.16 495.16 291.13 495.62 292.68 497.9 293.72 498.22 295.23 Z" id="36030400"/>
<path d="M 479.79 430.14 481 434.17 482.39 435.85 480.77 437.83 481.57 439.17 483.16 440.23 485.38 441.09 486.91 440.95 489.04 442.23 490.24 444.31 492.29 445.24 495.57 448.35 498.54 449.78 498.24 453.01 499.91 456.66 499.13 459.31 500.15 464.65 501.27 466.8 501.11 468.86 501.84 470.65 505.46 470.58 508.52 472.39 512.01 475.26 513.17 477 515.35 477.88 517.25 480.18 517.77 484.35 518.59 486.18 521.92 488.87 523.91 489.72 526.69 489.81 528.27 493.93 530.22 495.01 531.31 496.34 535.33 496.16 536.53 498 536.74 499.85 540.05 503.12 541.81 504.29 542.47 506.44 545.7 509.18 546.73 510.85 549.92 509.17 553.19 508.39 554.1 506.73 555.69 508.67 558.84 511.63 560.77 514.19 561.15 515.41 560.21 517.49 560.94 520.38 562.33 522.94 562.83 525.27 564.06 526.14 567.62 527.61 568.8 528.91 570.7 529.36 574.98 531.78 577.9 531.27 579.39 532.93 580.19 534.68 582.07 534.91 582.71 535.73 586.54 534.36 587.04 534.85 586.84 537.04 587.23 538.24 587.13 543.48 585.24 543.24 582.76 545.31 579.36 544.69 577.53 547.49 575.65 549.79 572.67 550.66 570.78 550.04 568.83 548.45 567.06 548.48 562.15 547.97 560.96 548.71 559.6 552 558.01 554.06 556.72 555.03 555.34 557.15 557.28 559.24 558.47 561.53 557.82 564.46 558.3 569.52 554.42 571.31 553.89 572.4 554.11 574.06 553.02 573.27 549.23 572.71 546.68 571.87 542.95 571.23 541.64 569.15 539.46 567.52 538.88 565.92 537.5 564.38 537.36 563.47 535.82 561.24 535.89 559.7 535.27 557.62 535.59 556.93 535.55 553.92 534.39 551.73 533.38 550.83 530.86 549.6 530.7 544.46 529.51 543.31 528.35 539.75 524.47 537.15 520.85 535.65 519.03 535.55 517.43 536.08 515.55 535.06 514.44 535.03 511.54 535.98 510.36 534.61 506.56 533.8 503.87 532.14 501.69 529.81 496.31 527.81 495.44 526.92 493.81 526.72 490.98 527.41 489.27 526.68 486.92 522.76 486.28 521.23 484.72 519.57 481.52 517.01 480.49 515.56 476.09 513.44 474.09 511.86 472.51 509.42 471.34 508.76 470.93 506.39 466.93 503.9 465.4 503.9 463.21 504.86 460.29 501.65 460.12 500.77 458.48 499.97 457.26 498.53 455.79 498.49 455.37 496.89 453.01 496.14 451.22 493.95 450.59 490.54 448.92 489.03 446.85 484.73 446.46 482.25 446.34 478.89 445.63 476.7 446.4 475.01 446.63 470.6 445.65 468.75 444.68 468.4 444.59 466.04 444.07 464.03 445.93 459.98 448.01 457.41 447.44 456 449.21 455.55 452.35 449.77 449.49 447.97 447.96 446.18 447.56 444.78 445.19 441.67 446.06 438.64 445.46 436.42 446.63 435.21 447.43 432.35 450.21 430.24 450.78 428.87 454.66 427.16 454.82 425.62 456.42 423.75 459.72 423.57 465.38 424.38 466.83 426.36 467.67 425.94 470.02 426.11 470.47 427.74 472.36 429.36 476.87 430.39 479.79 430.14 Z" id="36030510"/>
<path d="M 446.15 324.6 447.41 327.07 448.12 330.69 445.06 333.32 442.01 338.99 442.13 342.63 441.82 344.85 440.06 348.02 437.92 349.6 436.34 352.07 435.95 356 434.53 358.71 434.99 360.82 436.59 363.44 440.4 366.03 444.4 366.88 446.56 366.27 448.85 366.83 452.68 367.09 454.66 367.57 456.51 370.95 456.85 374.18 457.95 376.27 460.05 378.27 461.42 378.6 464.54 378.49 466.89 380.67 467.28 382.26 468.49 383.23 469.05 385.01 470.07 385.93 470.05 387.34 471.91 388.8 474.14 389.92 476.85 389.48 477.41 391.5 478.94 392.07 479.91 393.37 481.21 393.44 482.95 392.57 485.69 393.08 486.63 392.35 486.61 391.13 489.39 391.67 490.62 391.38 494.67 393.26 494.25 395.17 491.92 395.12 488.58 396.73 485.04 401.76 484.08 407.03 485.61 407.99 485.93 412.74 486.45 414.12 486.17 416.19 487.87 417.88 488 420.2 488.76 424.02 489.89 424.88 489.84 425.95 488.32 427.22 486.43 426.87 484.6 427.62 482.83 429.26 479.79 430.14 476.87 430.39 472.36 429.36 470.47 427.74 470.02 426.11 467.67 425.94 466.83 426.36 465.38 424.38 459.72 423.57 456.42 423.75 454.82 425.62 454.66 427.16 450.78 428.87 450.21 430.24 447.43 432.35 446.63 435.21 445.46 436.42 446.06 438.64 445.19 441.67 447.56 444.78 447.96 446.18 449.49 447.97 452.35 449.77 449.21 455.55 447.44 456 443.02 456.5 440.91 457.14 440.06 457.91 438.62 457.01 436.54 457.38 435.97 458.37 431.77 458.26 428.04 460 426.3 460.24 423.47 461.41 421.79 463 420 462.98 418.43 463.91 416.91 467.02 415.64 472.68 412.52 474.18 413.29 476.24 413.12 480.11 412.72 480.76 413.33 483.36 413.19 486.34 411.94 486.1 410.09 487.05 407.82 490.29 406.09 491.97 402.86 493.57 400.71 496.08 399.52 496.16 399.5 502.44 397.03 502.6 394.08 505.06 390.71 508.95 389.92 510.25 387.46 509.79 386.75 509.14 384.89 510.1 382.76 509.28 380.66 511.68 381.39 514.99 381.23 516.4 379.94 517.8 380.1 519.39 377.09 520.65 375.37 520.8 370.08 523.98 369.35 525.03 367.79 525.07 365.99 526.34 363.35 526.73 360.92 526.65 356.75 525.12 354.07 524.48 352.61 525.56 348.32 525.64 347.03 525.3 345.01 526.84 344.6 527.9 342.33 528.84 339.47 528.05 336.31 528.26 334.45 529.2 331.75 527.32 329.98 527.09 329.14 525.81 327.23 524.42 325.97 519.55 325.33 515.05 317.5 512.14 315.66 512.73 314.39 512.4 312.09 513.39 309.73 512.44 308.22 511.36 308.17 510.03 307.07 506.17 304.92 504.18 303.09 503.55 300.89 503.66 300.01 504.36 295.98 502.67 294.39 501.46 290.57 499.52 289.83 498.15 289.13 494.66 288.33 493.57 287.88 490.84 288.4 489.17 287.94 487.23 289.39 484.16 290.52 483.23 287.3 480.34 285.08 479.91 283.08 478.41 282.06 475.97 276.75 476.47 273.58 475.68 270.41 474.05 265.9 473.42 264.16 472.75 261.5 471.24 259.97 469.88 259.58 466.02 262.59 459.65 261.79 458.51 259.12 456.59 258.12 447.13 258.1 443.28 259.25 440.56 262.55 436.52 263.91 434.17 263.88 431.17 261.69 423.34 261 422.13 257.73 420.88 256.54 420.88 257.4 419.69 257.46 415.59 256.59 411.41 254.76 409.86 254.78 408.39 256.06 404.11 256.27 401.88 257.07 400.7 257.78 397.49 257.85 394 260.55 392.21 261.88 387.86 261 386.67 261.99 384.04 260.99 382.21 262.2 381.26 263.12 377.58 266.06 374.15 267.53 373.19 270.1 372.82 270.95 371.34 269.81 370.34 267.95 367.35 268.92 365.93 269.39 364.12 268.97 361.31 268.95 358.1 270.49 351.53 267.44 349.24 265.94 348.58 263.41 344.89 263.64 342.62 265.29 341.34 268.59 336.67 269.97 333.32 270.09 325.05 270.36 324 272.25 321.66 272.18 318.72 273.37 317.19 273.51 312.18 275.41 310.72 275.58 307.24 274.79 305.42 274.89 303.74 277.72 302.78 279.15 301.59 279.04 297.56 280.53 295.97 280 291.64 279.15 287.89 279.72 286.82 278.76 284.58 279.36 283.48 278.45 282.1 278.93 281.26 277.66 279.28 278.04 277.41 280.27 277.18 281.46 275.72 282.49 275.55 283.87 274.05 285.93 273.83 287.99 271.85 289.66 272.13 291.54 270.72 295.34 270.23 296.1 269.47 296.47 267.53 297.94 264.44 301.43 259.98 303.8 258.88 305.52 256.95 307.4 260.32 308.83 261.39 309.83 262.96 310.41 265.53 312.45 267.58 313.27 269.06 313.14 270.7 313.61 272.7 315.03 273.46 315.17 275.12 317.08 277.56 317.61 280.16 317.02 281.69 317.12 283.64 318.71 284.33 320.18 284.2 320.81 285.74 322.42 284.49 325.77 284.74 327.1 285.5 329.22 284.68 329.88 283.74 332.78 283.31 337.21 281.29 341.33 281.01 343.27 278.62 345.97 278.46 353.55 279.08 355.66 280.75 357.86 280.41 360.96 278.4 363.94 277.05 366.25 276.57 366.9 275.1 369.2 274.69 369.31 273.95 371.56 273.17 372.68 271.91 374.13 272.07 377.85 274.31 378.27 274.99 381.05 276.52 382.92 278.84 383.1 280.47 382.01 284.27 384.8 287.5 387.17 289.81 389.95 291.71 392.24 296.18 396.89 297.72 399.38 300.16 399.83 303.18 401.46 306.32 405.26 310.53 406.95 313.07 410.27 314.91 411.86 316.28 415.29 317.33 422.81 314.81 426 314.96 428.16 314.56 429.21 313.07 431.44 311.81 435.22 308.43 440.72 308.23 442.24 308.89 442.57 315.69 442.97 319.38 443.62 322.57 446.15 324.6 Z" id="36030110"/>
<path d="M 598.35 518.13 595.87 523.03 595.39 525.22 590.44 525.17 589.06 525.44 588.49 534.14 586.54 534.36 582.71 535.73 582.07 534.91 580.19 534.68 579.39 532.93 577.9 531.27 574.98 531.78 570.7 529.36 568.8 528.91 567.62 527.61 564.06 526.14 562.83 525.27 562.33 522.94 560.94 520.38 560.21 517.49 561.15 515.41 560.77 514.19 563.29 512.97 566.45 512.71 568.02 514.1 570.34 513.25 574.2 511.2 577.03 510.37 579.99 508.86 580.51 506.98 581.5 507.2 582.93 509.22 583.66 508.22 585 508.9 584.57 510.61 587.5 511.57 588.23 512.74 590.18 514.14 593.56 513.63 594.24 516.52 595.46 517.61 598.35 518.13 Z" id="36030540"/>
<path d="M 630.91 507.58 630.06 509.91 630.13 513.7 630.59 514.94 630.85 520.36 631.31 521.29 628.86 522.78 626.45 525.65 626.57 527.25 625.39 527.94 622.26 526.32 620.77 523.32 619.84 522.1 618.54 521.6 617.52 520.25 616.53 520.22 613.28 522.69 609.03 523.34 607.59 521.29 607.27 520.13 605.93 518.52 604.74 516.15 604.51 514 605.04 513.28 603.64 511.9 600.35 513.01 599.09 512.93 598.35 518.13 595.46 517.61 594.24 516.52 593.56 513.63 590.18 514.14 588.23 512.74 587.5 511.57 584.57 510.61 585 508.9 583.66 508.22 582.93 509.22 581.5 507.2 580.51 506.98 579.99 508.86 577.03 510.37 574.2 511.2 570.34 513.25 568.02 514.1 566.45 512.71 563.29 512.97 560.77 514.19 558.84 511.63 555.69 508.67 554.1 506.73 553.19 508.39 549.92 509.17 546.73 510.85 545.7 509.18 542.47 506.44 541.81 504.29 540.05 503.12 536.74 499.85 536.53 498 535.33 496.16 531.31 496.34 530.22 495.01 528.27 493.93 526.69 489.81 523.91 489.72 521.92 488.87 518.59 486.18 517.77 484.35 517.25 480.18 515.35 477.88 513.17 477 512.01 475.26 508.52 472.39 505.46 470.58 501.84 470.65 501.11 468.86 501.27 466.8 500.15 464.65 499.13 459.31 499.91 456.66 498.24 453.01 498.54 449.78 495.57 448.35 492.29 445.24 490.24 444.31 489.04 442.23 486.91 440.95 485.38 441.09 483.16 440.23 481.57 439.17 480.77 437.83 482.39 435.85 481 434.17 479.79 430.14 482.83 429.26 484.6 427.62 486.43 426.87 488.32 427.22 489.84 425.95 491.72 428.65 494.13 430.21 494.74 431.25 496.24 431.33 497.79 432.51 500.06 433.52 502.07 433.58 503.98 433.11 505.3 434.4 508.48 430.01 509.65 428.75 511.17 428.03 511.06 424.69 512.14 423.41 515.49 423.66 517.4 425.18 517.77 427.01 519.26 428.3 520.65 431.45 522.6 433.49 525.24 430.97 528.22 429.39 529.73 429.78 533.16 431.54 534.42 430.54 536.44 430.65 539.46 431.84 541.45 433.47 544.47 434.37 544.61 436.35 546.3 438.49 546.06 442.18 546.92 442.97 550.15 442 551.18 441.36 552.74 439.02 553.97 439.4 556.34 439.25 558.13 441.03 562.45 443.6 564.03 443.93 565.12 446.95 566.39 448.73 568.79 451.25 570.71 451.9 571.77 454.25 573.3 455.69 575.48 456.05 576.27 455.63 578.46 456.11 581.22 454.31 582.87 454.52 585.94 454.02 587.09 454.7 590.18 454.05 592.3 454.23 594.71 453.67 596.51 455.12 597.91 454.74 600.44 454.8 604.15 453.72 606.36 454.44 607.87 453.61 608.21 456.91 608.06 458.87 606.61 461.39 605.16 462.53 603.47 462.94 600.24 462.8 597.39 465.03 596.84 466.44 594.87 469.44 594.86 471.85 595.4 473.4 597.56 477.63 599.22 478.3 601.87 477.95 603.92 476.95 607.03 476.6 608.18 476.14 613.26 476.77 615.54 478.22 616.67 478.07 618.93 476.71 620.84 476.29 623.57 477.34 623.27 480.4 624.82 480.83 627.66 482.86 630.54 486.48 631.21 488.55 630.11 490.33 629.5 492.42 630.59 493.37 630.42 497.75 630.63 499.27 629.45 500.69 630.83 505.87 630.91 507.58 Z" id="36030550"/>
<path d="M 625.39 527.94 624.32 531.07 622.91 533.82 622.77 536.48 624.83 537.51 624.72 538.85 626.75 541.63 626.01 542.46 625.84 544.53 624.23 546.21 623.49 546.11 622.63 552.99 624.4 553.64 624.87 555.92 623.56 555.9 621.89 556.98 623.58 558.82 622.75 562.72 623.38 564.68 622.39 565 621.75 563.03 620.06 563.29 618.38 561.59 616.23 561.39 616.32 560.37 613.37 560.1 612.57 558.49 609.5 554.28 606.42 551.95 602.87 547.81 602.06 545.76 599.76 537.46 598.06 533.69 595.39 525.22 595.87 523.03 598.35 518.13 599.09 512.93 600.35 513.01 603.64 511.9 605.04 513.28 604.51 514 604.74 516.15 605.93 518.52 607.27 520.13 607.59 521.29 609.03 523.34 613.28 522.69 616.53 520.22 617.52 520.25 618.54 521.6 619.84 522.1 620.77 523.32 622.26 526.32 625.39 527.94 Z" id="36030560"/>
<path d="M 657.41 540.86 659.57 546.22 660.71 546.79 661.31 549.87 666.15 548.73 666.48 548.18 666.83 548.78 667.3 554.41 668.8 556.62 668.89 560.15 672.43 560.1 672.6 566.74 677.13 566.7 680.5 567.93 681.59 568.69 683.31 568.79 682.14 572.82 680.87 573.37 679.03 572.93 677.7 575.25 677.12 578.71 675.49 581.85 674.41 582.25 672.89 585.26 670.53 586.28 667.48 585.9 665.59 584.7 664.47 585.58 663.72 587.12 663.3 589.33 660.66 590.25 664.22 596.31 662.11 597.4 660.07 597.59 657.13 599.23 656.13 598.76 655.39 600.07 652.95 601.48 650.64 601.09 648.59 601.58 647.25 604.5 645.79 605.5 645.37 607.49 644.66 606.58 643.76 603.79 644.03 601.61 642.81 600.56 642.21 598.31 642.81 597.87 640.41 589.28 639.56 587.69 639.21 585.06 637.15 578.16 636.66 577.63 637.24 574.45 635.55 572.2 633.46 570.03 631.37 570.7 630.95 569.41 629.01 567.19 627.68 566.37 625.9 567.4 625.22 565.26 622.73 566.05 622.39 565 623.38 564.68 622.75 562.72 623.58 558.82 621.89 556.98 623.56 555.9 624.87 555.92 624.4 553.64 622.63 552.99 623.49 546.11 624.23 546.21 625.84 544.53 626.01 542.46 626.75 541.63 624.72 538.85 624.83 537.51 622.77 536.48 622.91 533.82 624.32 531.07 625.39 527.94 626.57 527.25 628.77 529.36 629.77 532.45 632.46 534.77 634.1 535.22 636.4 535.18 638.33 535.85 638.44 539.49 639.44 540.8 639.59 543.07 638.58 544.82 640.19 546.63 636.58 545.77 636.86 548.17 638.65 549.79 638.22 551.4 636.73 551.61 637.35 553.39 638.22 553.12 640.77 554.11 642.55 553.08 646.22 555.13 648.85 545.29 651.62 543.05 653.16 542.22 657.41 540.86 Z" id="36030570"/>
<path d="M 622.39 565 622.73 566.05 625.22 565.26 625.9 567.4 627.68 566.37 629.01 567.19 630.95 569.41 631.37 570.7 633.46 570.03 635.55 572.2 637.24 574.45 636.66 577.63 637.15 578.16 639.21 585.06 639.56 587.69 640.41 589.28 642.81 597.87 642.21 598.31 642.81 600.56 644.03 601.61 643.76 603.79 644.66 606.58 645.37 607.49 645.53 609.43 646.67 612.22 648.8 613.13 650.03 614.19 651.21 616.57 653.21 618.1 655.07 619 655.68 620.1 655.04 623.19 653.07 623.55 651.24 619.69 649.81 618.14 648.96 618.43 643.5 618.23 642.21 617.57 639.28 614.55 636.1 613.22 634.64 611.25 633.57 608.16 632.36 606.97 623.82 604.42 622.8 602.18 623.05 600.07 622.3 598.26 621.6 595 619.52 590.53 617.15 590.48 616.76 588.32 615.54 588.53 615.16 586.43 613.95 586.63 613.16 582.25 611.33 582.57 610.09 583.48 606.06 577.81 605.56 576.67 604.38 574.93 605.43 573.49 606.42 560.46 604.32 558.86 603.25 555.94 606.49 553.42 604.15 551.35 599.94 545.76 602.06 545.76 602.87 547.81 606.42 551.95 609.5 554.28 612.57 558.49 613.37 560.1 616.32 560.37 616.23 561.39 618.38 561.59 620.06 563.29 621.75 563.03 622.39 565 Z" id="36030580"/>
<path d="M 595.22 558.34 595.33 559.41 599.34 560.07 599.24 561.08 601.47 561.31 602.35 560.12 602.55 558.7 604.32 558.86 606.42 560.46 605.43 573.49 604.38 574.93 605.56 576.67 604.24 577.02 601.26 576.8 601.08 580.82 597.87 581.64 596.4 584.07 594.44 585.29 591.26 584.92 587.78 583.1 584.39 583.8 583.04 583.75 578.09 585.02 576.23 585.02 574.61 585.9 573.87 585.2 570.54 583.94 569.77 582.32 568.41 581.69 567.59 580.5 565.76 581.69 564.42 580.9 563.11 581.01 559.79 578.29 558.24 578.82 555.89 577.66 555.23 575.77 554.11 574.06 553.89 572.4 554.42 571.31 558.3 569.52 559.3 568.48 559.78 566.22 561.63 564.48 563.44 561.9 565.81 559.91 569.36 560.19 570.93 559.17 576.1 559.71 579.9 559.49 582.04 560.39 584.59 560.09 584.73 558.32 586.27 556.42 588.52 558.34 595.22 558.34 Z" id="36030590"/>
<path d="M 595.22 558.34 588.52 558.34 586.27 556.42 584.73 558.32 584.59 560.09 582.04 560.39 579.9 559.49 576.1 559.71 570.93 559.17 569.36 560.19 565.81 559.91 563.44 561.9 561.63 564.48 559.78 566.22 559.3 568.48 558.3 569.52 557.82 564.46 558.47 561.53 557.28 559.24 555.34 557.15 556.72 555.03 558.01 554.06 559.6 552 560.96 548.71 562.15 547.97 567.06 548.48 568.83 548.45 570.78 550.04 572.67 550.66 575.65 549.79 577.53 547.49 579.36 544.69 582.76 545.31 585.24 543.24 587.13 543.48 586.84 548.69 595.22 558.34 Z" id="36030600"/>
<path d="M 599.94 545.76 604.15 551.35 606.49 553.42 603.25 555.94 604.32 558.86 602.55 558.7 602.35 560.12 601.47 561.31 599.24 561.08 599.34 560.07 595.33 559.41 595.22 558.34 586.84 548.69 587.13 543.48 588.41 543.98 591.21 544.33 596.01 544.43 599.94 545.76 Z" id="36030610"/>
<path d="M 595.39 525.22 598.06 533.69 599.76 537.46 602.06 545.76 599.94 545.76 596.01 544.43 591.21 544.33 588.41 543.98 587.13 543.48 587.23 538.24 586.84 537.04 587.04 534.85 586.54 534.36 588.49 534.14 589.06 525.44 590.44 525.17 595.39 525.22 Z" id="36030620"/>
<path d="M 641.63 731.37 640.55 731.14 640.36 729.75 641.24 729.16 642.57 730.6 641.63 731.37 Z M 645.49 729.69 644.49 729.07 645.38 727.6 646.51 728.67 645.49 729.69 Z M 655.04 623.19 657.42 626.62 658.65 627.25 659.07 628.48 658.15 631.41 657.19 630.97 656.78 629.57 655.74 628.58 654.85 629.5 654.74 631.67 653.9 633.2 653.1 636.13 651.19 636.29 648.95 637.95 647.26 636.83 645.95 637.57 646.51 639.48 648.29 640.93 648.12 643.17 650.01 643.48 650.48 645.49 648.33 645.35 647.47 646.61 647.99 650.82 649.55 651.81 651.08 649.57 653.36 649.09 655.07 650.21 654.34 653.68 653.41 654.01 651.45 652.97 650.41 653.02 647.83 654.33 647.75 656.13 650.77 658.18 652.28 658.86 653.86 658.67 655.74 656.62 658.83 656.6 659.91 657.23 658.43 659.7 658.21 660.85 659.52 661.9 660.48 661.7 662.15 660.29 664.17 659.75 667.79 660.81 668.31 661.76 667.41 663.86 666.64 664.14 664.15 663.04 662.36 663.07 659.98 664.31 659.76 666.99 661.07 668.86 664.26 669.75 665.05 670.73 663.35 671.79 662.89 673.02 664.27 674.24 666.74 673.71 667.99 672.89 670.47 670.28 673.12 670.43 674.99 672.46 677.82 672.92 677.82 674.19 675.67 674.76 674.48 675.71 673.6 677.58 672.98 683.33 673.12 685.11 672.42 687.07 670.52 688.75 667.9 689.62 665.58 688.37 663 688.1 657.66 688.77 656.74 689.32 654.92 692.56 655.27 693.92 652.92 696.43 650.53 702.6 649.13 702.07 645.66 703.56 645.31 707.43 653.62 709.72 654.54 710.62 652.27 714.92 650.72 715.61 650.02 718.21 650.06 721.09 649.21 723.08 647.36 724.47 646.44 724.23 644.96 725.25 642.75 727.6 641.6 727.44 640.04 724.32 638.35 724.76 635.99 723.07 633.78 725.6 630.41 726.1 630.19 724.61 627.74 727.54 621.79 725.57 620.77 726.6 619.61 726.42 618.97 724.95 610.34 725.06 607.4 724.39 604.63 722.4 602.12 723.37 601.28 722.29 601.43 720.77 600.67 718.95 599 719.22 597.48 718.44 594.47 719.1 590.64 714.54 587.56 711.81 585.69 708.13 584.28 706.21 583.86 704.52 580.04 701.29 578.9 701 575.24 697.73 572.66 696.24 570.35 694.45 570.96 691.28 570.27 687.05 569.64 685.65 571.68 681.05 570.12 680.48 567.15 678.03 565.29 677.74 562.94 674.16 562.17 670.65 562.44 668.82 563.65 667.43 565.78 666.32 568.25 662.72 566.12 659.26 568.23 655.59 568.42 652.61 566.99 650.28 567.94 648.33 565.48 645.79 563.77 642.07 562.78 637.75 564.15 636.34 564.86 634.61 563.68 633.83 564.19 631.94 563.93 629.85 563.31 628.67 563.7 624.72 564.96 623.42 563.86 621.43 562.64 615.57 561.18 612.18 557.64 606.52 555.74 603.87 554.3 602.62 554.97 601.29 553.97 599.35 554.82 598.19 563.62 595.2 563.85 593.41 562.8 588.34 563.45 584.95 564.57 583.85 565.76 581.69 567.59 580.5 568.41 581.69 569.77 582.32 570.54 583.94 573.87 585.2 574.61 585.9 576.23 585.02 578.09 585.02 583.04 583.75 584.39 583.8 587.78 583.1 591.26 584.92 594.44 585.29 596.4 584.07 597.87 581.64 601.08 580.82 601.26 576.8 604.24 577.02 605.56 576.67 606.06 577.81 610.09 583.48 611.33 582.57 613.16 582.25 613.95 586.63 615.16 586.43 615.54 588.53 616.76 588.32 617.15 590.48 619.52 590.53 621.6 595 622.3 598.26 623.05 600.07 622.8 602.18 623.82 604.42 632.36 606.97 633.57 608.16 634.64 611.25 636.1 613.22 639.28 614.55 642.21 617.57 643.5 618.23 648.96 618.43 649.81 618.14 651.24 619.69 653.07 623.55 655.04 623.19 Z" fill-rule="evenodd" id="36030630"/>
<path d="M 716.63 472.54 720.57 476.13 721.32 477.49 723.74 478.69 725.43 481.53 726.16 485.71 722.27 490.61 722.5 491.26 722.07 493.29 719.48 494.38 719.12 496.2 716.2 497.03 711 496.46 707.18 498.99 704.91 501.38 705.25 503.43 707.34 506.87 709.05 510.66 710.7 512.55 710.95 515.37 712.03 516.47 709.59 516.88 707.99 516.67 707.2 517.55 704.42 517.7 700.84 518.7 695.86 519.77 695.88 520.09 693.44 521.01 681.52 527.67 679.18 529.33 676.94 531.79 673.3 533.78 662.99 538.69 657.41 540.86 653.16 542.22 651.62 543.05 648.85 545.29 646.22 555.13 642.55 553.08 640.77 554.11 638.22 553.12 637.35 553.39 636.73 551.61 638.22 551.4 638.65 549.79 636.86 548.17 636.58 545.77 640.19 546.63 638.58 544.82 639.59 543.07 639.44 540.8 638.44 539.49 638.33 535.85 636.4 535.18 634.1 535.22 632.46 534.77 629.77 532.45 628.77 529.36 626.57 527.25 626.45 525.65 628.86 522.78 631.31 521.29 630.85 520.36 630.59 514.94 630.13 513.7 630.06 509.91 630.91 507.58 632.01 507.37 634.62 508.56 635.87 509.65 638.69 509.95 640.83 509.22 642.19 505.79 643.07 504.55 644.26 504.38 645.69 498.34 646.7 495.81 648.14 494.63 648.78 493.22 651.62 492.08 654.33 491.75 656.74 487.25 660.27 484.58 663.81 482.89 665.05 483.67 667.47 483.22 668.36 483.67 672.55 481.43 675.53 482.1 677.46 480.69 678.99 478.49 680.14 475.72 683.38 475.09 686.59 473.72 687.15 471.66 691.19 473.28 693.99 472.81 695.89 475 699.18 475.1 700.78 476.47 702.71 474.02 704.84 473.08 706.86 473.8 709.31 476.09 713.55 474.83 716.63 472.54 Z" id="36030660"/>
<path d="M 666.48 548.18 666.15 548.73 661.31 549.87 660.71 546.79 659.57 546.22 657.41 540.86 662.99 538.69 673.3 533.78 676.94 531.79 679.18 529.33 681.52 527.67 693.44 521.01 695.88 520.09 695.88 523.4 694.2 527.9 694.21 528.84 695.6 530.05 695.57 532.28 694.72 533.9 695.8 535.02 695.37 537.85 691.96 539.71 691.12 541.95 689.78 544.17 687.54 543.93 685.6 542.82 683.16 545.35 681.61 545.98 679.14 548.44 676.87 547.69 674.83 548.28 674.44 547.23 671.42 548.27 669.6 547.86 669.12 546.83 666.48 548.18 Z" id="36030670"/>
<path d="M 135.75 183.75 136.61 183.68 139.34 188.78 140.89 190.74 145.24 197.08 147.88 199.98 148.54 202.56 152.54 205.39 154.42 206.28 156.98 208.25 157.98 209.52 158.91 211.9 161.32 213.69 162.42 215.56 162.67 218.36 161.54 219.74 162.24 221.99 164.08 225.27 164.68 228.66 164.3 231.99 162.33 234.59 160.84 235.56 158.8 236.15 159.8 237.25 160.99 236.37 162.02 238.76 162.33 241.31 160.95 245.02 164.03 247.31 164.5 248.62 166.09 249.28 169.42 247.34 171.21 246.96 173.48 244.5 175.32 244.24 176.8 242.64 177.48 242.69 181.48 239.91 183.39 240.11 191.02 234.93 191.54 231.27 194.91 228.47 198.24 227.35 199.05 227.68 201.08 230.32 201.44 234.86 202.53 237.25 202.79 240.71 203.85 241.99 204.93 241.33 206.85 242.58 207.99 242.7 210.56 241.26 213.02 241.94 215.21 239.85 219.96 238.83 220.67 238.33 223.29 238.7 223.26 239.93 224.12 241.52 225.32 242.26 227.5 245.09 229.13 246.3 230.97 246.98 233.59 248.77 234.82 249.04 235.44 252 235.27 253.25 236.02 254.88 236.69 258.21 238.39 261.75 241.42 260.18 242.13 260.39 245.82 259.65 246.73 260.9 250.18 261.18 251 262.39 254.06 262.53 254.94 261.76 256.67 261.45 257.95 262.58 260.33 263.45 262.34 263.01 265.21 265.38 268.96 266.4 271.94 269.29 272.51 270.45 274.69 272.08 275.09 274.22 276.17 276.19 278.04 277.41 277.66 279.28 278.93 281.26 278.45 282.1 279.36 283.48 278.76 284.58 279.72 286.82 279.15 287.89 280 291.64 280.53 295.97 279.04 297.56 279.15 301.59 277.72 302.78 274.89 303.74 274.79 305.42 275.58 307.24 275.41 310.72 273.51 312.18 273.37 317.19 272.18 318.72 272.25 321.66 270.36 324 270.09 325.05 269.97 333.32 268.59 336.67 265.29 341.34 263.64 342.62 263.41 344.89 265.94 348.58 267.44 349.24 270.49 351.53 268.95 358.1 268.97 361.31 269.39 364.12 268.92 365.93 267.95 367.35 269.81 370.34 270.95 371.34 270.1 372.82 267.53 373.19 266.06 374.15 263.12 377.58 262.2 381.26 260.99 382.21 261.99 384.04 261 386.67 261.88 387.86 260.55 392.21 257.85 394 257.78 397.49 257.07 400.7 256.27 401.88 256.06 404.11 254.78 408.39 254.76 409.86 256.59 411.41 257.46 415.59 257.4 419.69 256.54 420.88 255.28 421.32 253.86 422.72 252.84 422.18 251.22 422.41 245.88 420.28 243.36 420.18 242.34 420.64 240.1 420.56 238.13 422.04 236.48 422.72 234.37 417.78 232.03 416.24 230.24 416.17 227.48 413.52 225.76 412.39 226.17 411.19 225.94 409.03 226.66 407.42 226.41 405.33 227.21 402.4 226.95 401.77 227.78 398.37 225.54 393.96 224.61 393.12 223.83 390.15 224.5 388.02 224.62 384.58 224.23 381.83 219.45 378.9 218.55 378.69 215.61 376.64 213.24 377.35 212.3 378.27 209.74 379.4 206.14 378.99 203.61 380.13 201.61 379.34 197.73 378.92 195.64 379.26 192.83 378.86 190.18 380.06 187.12 378.83 185.5 377.55 185.35 374.85 183.05 370.13 180.65 368.28 178.07 365.73 179.53 363.21 178.75 362.64 178.6 360.47 177.77 359.1 174.83 357.7 175.18 355.73 176.45 351.9 175.21 349.4 174.94 347.58 174.15 346.63 172.37 347.08 171.16 346.67 170.35 345.14 167.91 343.79 166.4 342.23 166 340.56 164.07 340.04 160.24 341.28 155.91 339.8 154.67 338.32 154.62 336.34 152.92 336.67 152.81 338.43 151.87 339.79 149.47 339.12 145.46 339.29 144.32 339.91 141.44 339 138.87 338.59 134.79 340.15 132.47 340.02 131.06 342.6 130.01 343.74 130.96 344.87 129.51 347.5 120.81 347.11 117.07 345.75 115.05 349.89 114.07 354.65 111.42 354.82 108.81 354.32 102.79 355.33 98.65 355.73 97.7 356.68 92.39 359.31 91.9 357.68 88.31 356.43 85.25 354.37 83.07 353.28 82.57 352.21 83.45 350.96 83.06 349.25 80.45 347.05 78.27 346.72 77.73 345.87 75.07 345.52 72.78 342.91 68.13 343.01 66.41 342.01 61.57 344.15 59.53 343.91 56.82 345.69 56.01 347.09 54.03 348.08 48.74 348.85 47.29 348.1 45.8 348.15 43.03 347.11 40.68 349.11 38.98 350.13 30.61 351.57 27.52 353.24 22.5 354.54 22.09 355.64 17.99 356.78 17.03 358.02 15.95 355.5 17.62 353.65 18.89 349 18.24 346.59 18.94 343.35 19.52 342.14 18.37 338.2 17.96 335.96 20.04 331.43 17.82 329.51 18.25 328.33 17.83 325.62 18.65 324.31 19.45 320.15 20.79 318 22.75 316.39 20.67 311.19 20.76 308.49 25.18 304.67 25.54 304.68 28.78 300.28 28.76 299.18 30.21 295.49 31.65 293.63 31.89 292.19 33.9 290.32 31.99 286.64 30.07 285.54 28.67 284.14 27.21 283.75 24.04 279.98 21.09 278.45 20.95 274.87 19.45 270.71 20.05 268.74 19.8 266.3 20.57 264.49 20.48 261.95 21.25 261.02 21.61 258.23 20.48 256.92 20.78 253.84 20.35 250.76 20.93 249.29 19.71 246.96 19.57 243.78 20.48 240.44 19.99 238.6 19.53 233.63 21.19 230.38 20.81 226.79 21.37 225.36 19.05 224.59 15.27 224.76 14.39 221.22 13.48 219.12 15.03 217.23 15.06 215.13 16.87 212.72 16.08 210.08 16.83 209.32 20.43 208.05 23.04 205.03 24.82 200.91 24.69 199.23 23.47 197.63 24.65 194.63 24.6 192.39 26.16 188.95 27.81 188.09 29.42 186.3 30.08 183.93 30.73 179.18 29.87 178.81 28.24 176.29 27.54 175.87 27.75 173.28 26.46 170.25 24.5 168.61 26.61 164.5 28.46 163.21 28.26 161.3 26.06 159.06 26.6 157.67 25.62 156.69 25.47 155.18 24.29 153.92 24.77 152.09 25.75 150.95 28 150.4 29.78 148.25 30.59 145.56 32.26 144.11 33.28 141.79 32.62 140.1 33.22 138.26 35.97 137 38.56 136.89 40.47 136.3 43.87 134.58 49.18 137.88 55.87 140.64 58.7 140.02 60.57 138.97 71.48 132.05 74.14 131.79 75.62 132.34 78.11 134.48 79.52 137.07 82.19 139.22 83.79 139.18 85.22 141.15 84.15 147.69 83.42 148.55 82.17 151.36 82.67 154.35 82.27 157.03 83.18 157.89 83.8 159.84 83.85 162.25 84.92 164.9 88.48 166.43 89.83 167.68 93.98 167.89 96.97 169.01 100.73 169.71 101.35 170.39 104.52 171.66 107.36 171.41 109 171.88 109.62 173.42 111.27 174.97 111.77 177.26 113.54 178.2 113.68 180 114.77 181.36 114.46 183.59 117.31 184.2 119.9 185.87 121.14 185.78 124.87 187.86 126.96 188.61 126.47 191.24 126.47 193.42 125.88 195.93 126.52 198.49 125.98 202.44 126.72 203.29 128.7 203.5 130.51 204.47 131.06 203.79 134.19 203.96 134.77 202.27 133.95 201.41 134.85 198.44 135.09 194.89 134.72 191.94 135.11 190.78 133.97 188.5 135.14 185.67 134.2 183.92 135.75 183.75 Z" id="36030310"/>
<path d="M 365.99 526.34 365.92 530.13 367.19 532.83 367.83 535.19 367.46 536.89 368.33 540.93 366.9 542.78 365.32 542.04 360.73 542.13 357.06 543.03 356.19 544.29 356.4 548.3 355.29 551.08 352.85 553.55 352.68 555.55 354.73 558.55 354.52 560.39 355.09 563.43 356.97 564.14 357.49 565.59 356.53 567.6 357.24 569.11 357.02 573.04 360.17 574.1 362.48 576.41 368.87 579.6 373.05 579.3 376.01 582.22 376.51 585.91 378.53 587.17 380.08 587.27 382.28 584.75 384.78 584.32 386.34 585.59 388.84 586.24 390.93 586.38 393.15 583.59 397.03 582.72 398.15 583.47 399.86 583.38 402.49 581.69 405.67 586.34 408.01 587.82 409.08 588.01 409.93 589.21 412.15 589.65 414.33 590.92 415.09 592.21 416.88 593.69 419 596.64 421.05 597.44 425.4 598.32 426.16 598.2 427.08 602.35 429.41 604.37 430.49 604.61 428.87 606.68 428.25 608.44 427.34 608.66 426.52 612.73 424.84 615.31 424.58 617.51 426.78 619.33 425.61 621.85 424.36 623.54 421 627.07 420.96 628.27 419.99 631.24 420.41 634.38 421.07 636 419.58 639.27 421.18 641.09 421.56 643.38 421 644.32 423.54 646.77 424.39 650.43 421.14 651.46 418.41 653.66 417.15 653.91 416.35 655.37 414.4 655.71 412.36 657.06 411.06 657.39 410.15 656.32 408.93 656.15 404.44 653.99 399.85 652.78 395.99 653.76 393.15 655.87 391.78 657.29 389.56 653.4 386.52 652.75 381.49 653.32 379.18 652.55 376.87 653.08 372.08 652.58 370.22 654.18 367.23 655.3 366.24 656.85 365.15 659.53 366.9 661.21 367.83 663 367.59 663.9 368.46 665.29 371.06 668.07 372.15 668.31 374.13 669.87 374.94 671.6 378.13 675.54 379.81 676.9 381.21 678.97 381 683.63 383.29 686.35 384.5 689.9 385.01 690.58 383.55 693.8 381.38 695.24 379.13 695.79 377.91 696.89 378.89 699.38 381.84 703.51 381.1 704.56 381.8 705.88 379.79 707.48 380.85 710.54 380.03 710.99 376.4 714.45 374.1 717 374.38 719.49 373.09 724.24 372.95 729.67 373.67 732.51 372.63 733.93 368.77 736.86 368.8 739.1 365.7 741.51 360.15 741.42 356.84 742.4 354.77 744.4 354.47 745.46 351.03 747.69 349.11 749.23 344.76 749.4 341.69 748.58 341.92 746.05 339.39 743.31 335.84 742.15 334.74 741.34 333.01 742.45 330.57 742.99 329.41 742.72 327.83 743.3 325.9 744.81 322.57 745.61 321.32 744.43 319.79 744.76 318.58 742.69 316.73 742.23 312.65 740.54 309.91 741.36 310.04 739.65 312.18 737.48 314.22 734.71 312.99 732.87 312.75 731.26 312.95 727 314.04 725.27 314.47 721.36 315.34 718.56 313.41 718.16 312.83 715.23 313.02 714.35 310.49 712.77 308 706.56 309.11 704.4 307.21 703.03 307.08 701.32 308.99 698.57 308.2 694.16 306.85 690.7 304.64 691.86 302.11 693.8 298.3 694.08 296.49 696.58 292.5 699.52 291.82 700.88 292.33 702.57 288.51 704.55 286.48 707.39 285.59 706.4 285.78 704.72 285.07 703.69 284.23 700.16 283.19 698.86 283.95 697.05 283.03 695.76 280.49 694.04 279.52 694 277.11 691.61 274.66 690.14 273.21 690.03 269.86 687.31 270.42 683.73 270.05 680.02 268.23 679.68 266.82 678.45 266.08 676.52 264.42 674.23 262.84 673.37 261 670.97 257.95 668.47 255.62 666.98 253.55 664.68 252.9 662.65 251.08 660.47 252.35 659.78 254.45 657.3 255.6 654.68 258.78 653.13 259.79 649.79 258.65 647.64 256.49 645.93 256.35 644.04 253.76 640.14 255.38 638.24 257.16 637.67 259.04 634.48 257.41 630.17 258.16 628.35 256.19 627.1 255.72 623.17 255.04 620.22 257.92 616.72 259.91 615.61 260.31 613.44 259.75 612.47 258.73 608.74 255.77 604.84 254.49 602.2 256.54 599.08 256.64 596.35 257.54 594.04 255.24 592.22 256.25 587.96 255.36 585.37 255.39 581.71 252.98 577.21 252.21 574.81 251.3 567.84 249.65 565.53 249.28 564.23 250.08 563.27 253.53 559.75 255.68 558.35 259.01 554.62 261.43 553.92 264.77 551.93 266.93 551.8 268.87 550.01 268.29 547.16 267.51 545.69 267.05 541.64 267.48 538.25 269.41 537.29 270.35 533.47 271.72 530.53 270.63 529.45 268.76 526.26 268.1 523.1 266.71 519.94 267.28 518.83 266.8 516.84 265.87 515.35 261.75 513.62 258.61 511.49 257.8 510.55 259 507.82 258.75 504.67 259.9 501.76 259.87 498.89 258.71 494.61 260.37 493.7 261.23 490.41 260.86 488.85 260.78 484.51 261.74 480.69 263.76 478.87 264.57 477.5 264.59 476.15 263.64 474.98 264.16 472.75 265.9 473.42 270.41 474.05 273.58 475.68 276.75 476.47 282.06 475.97 283.08 478.41 285.08 479.91 287.3 480.34 290.52 483.23 289.39 484.16 287.94 487.23 288.4 489.17 287.88 490.84 288.33 493.57 289.13 494.66 289.83 498.15 290.57 499.52 294.39 501.46 295.98 502.67 300.01 504.36 300.89 503.66 303.09 503.55 304.92 504.18 307.07 506.17 308.17 510.03 308.22 511.36 309.73 512.44 312.09 513.39 314.39 512.4 315.66 512.73 317.5 512.14 325.33 515.05 325.97 519.55 327.23 524.42 329.14 525.81 329.98 527.09 331.75 527.32 334.45 529.2 336.31 528.26 339.47 528.05 342.33 528.84 344.6 527.9 345.01 526.84 347.03 525.3 348.32 525.64 352.61 525.56 354.07 524.48 356.75 525.12 360.92 526.65 363.35 526.73 365.99 526.34 Z" id="36030340"/>
<path d="M 500.94 834.87 501.36 835.64 503.81 836.17 505.78 837.88 504.76 839 504.04 837.52 502.84 836.59 500.84 836.2 500.94 834.87 Z M 451.07 808.33 449.56 808.35 448.51 806.02 446.86 805.04 444.24 804.26 440.53 802.3 439.53 800.27 436.2 799.1 433.24 799.04 431.95 797.67 430.88 797.34 427.86 795.34 427.8 798.16 426.73 799.72 423.7 799.74 422.03 800.95 420.38 803.09 418.49 804.22 413.46 805.47 412.25 804 410.42 804.15 408.5 803.65 408.06 802.66 405.92 802.3 403.57 801.3 397.43 801.7 395.87 801.12 395.3 799.96 393.12 798.3 391.56 798.92 390.06 796.23 388.62 794.73 388.81 790.65 389.52 788.62 388.49 785.58 385.77 782.53 386.17 780.85 388.42 778.98 388.99 776.52 387.65 773.94 385.91 772.51 384.46 769.77 381.69 769.03 380.11 766.06 377.21 763.36 375.31 760.09 371.47 758.36 370.11 756.07 368.72 754.54 366.67 753.65 367.11 749.33 366.07 747.21 366.21 745.72 365.53 742.68 365.7 741.51 368.8 739.1 368.77 736.86 372.63 733.93 373.67 732.51 372.95 729.67 373.09 724.24 374.38 719.49 374.1 717 376.4 714.45 380.03 710.99 380.85 710.54 379.79 707.48 381.8 705.88 381.1 704.56 381.84 703.51 378.89 699.38 377.91 696.89 379.13 695.79 381.38 695.24 383.55 693.8 385.01 690.58 384.5 689.9 383.29 686.35 381 683.63 381.21 678.97 379.81 676.9 378.13 675.54 374.94 671.6 374.13 669.87 372.15 668.31 371.06 668.07 368.46 665.29 367.59 663.9 367.83 663 366.9 661.21 365.15 659.53 366.24 656.85 367.23 655.3 370.22 654.18 372.08 652.58 376.87 653.08 379.18 652.55 381.49 653.32 386.52 652.75 389.56 653.4 391.78 657.29 393.15 655.87 395.99 653.76 399.85 652.78 404.44 653.99 408.93 656.15 410.15 656.32 411.06 657.39 412.37 660.53 411.41 664.62 412.18 666.23 415.09 666.48 417.99 668.58 419.87 672.42 422.61 675.45 422.82 676.44 426.35 680.19 430.55 680.56 432.7 679.34 434.75 679.78 438.84 682.62 440.52 682.2 442.76 680.17 444.12 677.2 445.47 677.25 447.57 675.73 448.89 675.67 450.39 674.74 457.13 675.69 462.3 674.43 463.82 670.55 467.38 671.16 470.01 669.89 471.79 667.98 474.45 666.05 475.51 663.67 475.24 661.15 475.56 655.96 478.63 656.35 480.11 661.98 481.07 663.04 485.5 666.64 486.16 668.66 491.95 669.94 496.12 669.44 497.18 668.79 498.91 668.96 502.17 670.8 504.43 670.01 506.44 671.76 507.85 670.29 509.1 667.74 510.28 666.85 510.35 664.73 511.17 662.06 513.18 657.88 515 657.44 517.03 654.9 518.18 656.09 519.99 656.88 523.92 656.66 525.91 657.55 526.87 657.43 527.88 659.48 530.7 658.82 532.63 659.59 533.66 661.86 535.13 662.11 538.07 660.54 539.88 657.08 541.64 657.04 544.61 655.9 546.45 656.19 548.82 654.33 550.26 654.03 553.43 656.49 554.05 658.65 556.57 663.36 557.07 665 559.62 665.16 560.04 666.7 562.44 668.82 562.17 670.65 562.94 674.16 565.29 677.74 567.15 678.03 570.12 680.48 571.68 681.05 569.64 685.65 570.27 687.05 570.96 691.28 570.35 694.45 572.66 696.24 575.24 697.73 578.9 701 580.04 701.29 583.86 704.52 584.28 706.21 585.69 708.13 587.56 711.81 590.64 714.54 594.47 719.1 597.48 718.44 599 719.22 600.67 718.95 601.43 720.77 601.28 722.29 602.12 723.37 600.04 724.86 599.48 725.88 600.19 741.44 601.62 741.76 600.71 744.32 601.63 744.68 602.66 740.8 605.38 741.38 606.51 742.45 606.39 746.89 604.46 747.33 604.49 748.93 607.3 749.41 608 750.56 605.58 760.98 604.13 763.39 601.11 762.87 599.85 765.01 600.99 766.75 600.37 770.33 602.58 772.78 603.11 774.48 604.66 776.19 603.94 779.43 604.37 782.58 603.68 784.06 603.85 786.6 604.62 788.52 601.99 791.05 601.48 792.88 598.98 795.76 595.93 797.33 594.85 798.67 593.42 798.99 592.05 800.51 592.12 803 591.49 804.09 589.39 804.15 589.57 802.43 586.91 802.31 587.09 800.98 585.39 799.79 581.66 800.29 578.92 798.84 577.52 798.83 575.68 797.9 573.88 796.34 569.06 795.25 566.63 793.23 565.79 793.19 557.89 794.25 556.07 793.57 554.64 793.82 552.05 796.06 551.04 799.11 548.52 800.18 545.86 801.8 545.13 803.26 542.7 802.45 537.96 802.19 528.72 804.15 527.96 803.79 524.89 805.8 524.76 806.88 522.42 810.58 523.17 811.59 522.1 814.47 520.5 814.62 519.32 812.49 517.28 811.93 514.06 811.91 510.6 811.35 508.83 812.66 504.94 812.85 501.39 800.28 498.09 800.39 497.92 795.67 499.58 791.74 501.95 792.03 503.66 792.67 505.88 790.71 507.37 788.92 507.89 785.72 508.67 784.15 507.31 783.99 506.3 785.45 506.41 787.04 504.48 790.03 502.68 790.83 498.11 788.89 497.09 789.91 497.38 792.12 495.65 795.04 495.03 798.73 493.85 800.35 494 802.93 493.66 806.37 492.19 809.38 492.82 810.11 490.79 813.71 490.69 814.95 488.93 815.88 487.45 814.77 481.58 815.37 481.63 816.67 478.69 817.47 479.12 821.12 478.21 822.39 474.24 822.99 473.37 821.31 470.61 821.63 467.07 822.76 465.2 823.05 462.12 822.64 460.97 819.91 460.43 814.98 459.56 816.57 456.22 813.59 455.33 811.74 452.6 810.17 451.07 808.33 Z" fill-rule="evenodd" id="36030350"/>
<path d="M 562.44 668.82 560.04 666.7 559.62 665.16 557.07 665 556.57 663.36 554.05 658.65 553.43 656.49 550.26 654.03 548.82 654.33 546.45 656.19 544.61 655.9 541.64 657.04 539.88 657.08 538.07 660.54 535.13 662.11 533.66 661.86 532.63 659.59 530.7 658.82 527.88 659.48 526.87 657.43 525.91 657.55 523.92 656.66 519.99 656.88 518.18 656.09 517.03 654.9 515 657.44 513.18 657.88 511.17 662.06 510.35 664.73 510.28 666.85 509.1 667.74 507.85 670.29 506.44 671.76 504.43 670.01 502.17 670.8 498.91 668.96 497.18 668.79 496.12 669.44 491.95 669.94 486.16 668.66 485.5 666.64 481.07 663.04 480.11 661.98 478.63 656.35 475.56 655.96 475.24 661.15 475.51 663.67 474.45 666.05 471.79 667.98 470.01 669.89 467.38 671.16 463.82 670.55 462.3 674.43 457.13 675.69 450.39 674.74 448.89 675.67 447.57 675.73 445.47 677.25 444.12 677.2 442.76 680.17 440.52 682.2 438.84 682.62 434.75 679.78 432.7 679.34 430.55 680.56 426.35 680.19 422.82 676.44 422.61 675.45 419.87 672.42 417.99 668.58 415.09 666.48 412.18 666.23 411.41 664.62 412.37 660.53 411.06 657.39 412.36 657.06 414.4 655.71 416.35 655.37 417.15 653.91 418.41 653.66 421.14 651.46 424.39 650.43 423.54 646.77 421 644.32 421.56 643.38 421.18 641.09 419.58 639.27 421.07 636 420.41 634.38 419.99 631.24 420.96 628.27 421 627.07 424.36 623.54 425.61 621.85 426.78 619.33 424.58 617.51 424.84 615.31 426.52 612.73 427.34 608.66 428.25 608.44 428.87 606.68 430.49 604.61 429.41 604.37 427.08 602.35 426.16 598.2 425.4 598.32 421.05 597.44 419 596.64 416.88 593.69 415.09 592.21 414.33 590.92 412.15 589.65 409.93 589.21 409.08 588.01 408.01 587.82 405.67 586.34 402.49 581.69 399.86 583.38 398.15 583.47 397.03 582.72 393.15 583.59 390.93 586.38 388.84 586.24 386.34 585.59 384.78 584.32 382.28 584.75 380.08 587.27 378.53 587.17 376.51 585.91 376.01 582.22 373.05 579.3 368.87 579.6 362.48 576.41 360.17 574.1 357.02 573.04 357.24 569.11 356.53 567.6 357.49 565.59 356.97 564.14 355.09 563.43 354.52 560.39 354.73 558.55 352.68 555.55 352.85 553.55 355.29 551.08 356.4 548.3 356.19 544.29 357.06 543.03 360.73 542.13 365.32 542.04 366.9 542.78 368.33 540.93 367.46 536.89 367.83 535.19 367.19 532.83 365.92 530.13 365.99 526.34 367.79 525.07 369.35 525.03 370.08 523.98 375.37 520.8 377.09 520.65 380.1 519.39 379.94 517.8 381.23 516.4 381.39 514.99 380.66 511.68 382.76 509.28 384.89 510.1 386.75 509.14 387.46 509.79 389.92 510.25 390.71 508.95 394.08 505.06 397.03 502.6 399.5 502.44 399.52 496.16 400.71 496.08 402.86 493.57 406.09 491.97 407.82 490.29 410.09 487.05 411.94 486.1 413.19 486.34 413.33 483.36 412.72 480.76 413.12 480.11 413.29 476.24 412.52 474.18 415.64 472.68 416.91 467.02 418.43 463.91 420 462.98 421.79 463 423.47 461.41 426.3 460.24 428.04 460 431.77 458.26 435.97 458.37 436.54 457.38 438.62 457.01 440.06 457.91 440.91 457.14 443.02 456.5 447.44 456 448.01 457.41 445.93 459.98 444.07 464.03 444.59 466.04 444.68 468.4 445.65 468.75 446.63 470.6 446.4 475.01 445.63 476.7 446.34 478.89 446.46 482.25 446.85 484.73 448.92 489.03 450.59 490.54 451.22 493.95 453.01 496.14 455.37 496.89 455.79 498.49 457.26 498.53 458.48 499.97 460.12 500.77 460.29 501.65 463.21 504.86 465.4 503.9 466.93 503.9 470.93 506.39 471.34 508.76 472.51 509.42 474.09 511.86 476.09 513.44 480.49 515.56 481.52 517.01 484.72 519.57 486.28 521.23 486.92 522.76 489.27 526.68 490.98 527.41 493.81 526.72 495.44 526.92 496.31 527.81 501.69 529.81 503.87 532.14 506.56 533.8 510.36 534.61 511.54 535.98 514.44 535.03 515.55 535.06 517.43 536.08 519.03 535.55 520.85 535.65 524.47 537.15 528.35 539.75 529.51 543.31 530.7 544.46 530.86 549.6 533.38 550.83 534.39 551.73 535.55 553.92 535.59 556.93 535.27 557.62 535.89 559.7 535.82 561.24 537.36 563.47 537.5 564.38 538.88 565.92 539.46 567.52 541.64 569.15 542.95 571.23 546.68 571.87 549.23 572.71 553.02 573.27 554.11 574.06 555.23 575.77 555.89 577.66 558.24 578.82 559.79 578.29 563.11 581.01 564.42 580.9 565.76 581.69 564.57 583.85 563.45 584.95 562.8 588.34 563.85 593.41 563.62 595.2 554.82 598.19 553.97 599.35 554.97 601.29 554.3 602.62 555.74 603.87 557.64 606.52 561.18 612.18 562.64 615.57 563.86 621.43 564.96 623.42 563.7 624.72 563.31 628.67 563.93 629.85 564.19 631.94 563.68 633.83 564.86 634.61 564.15 636.34 562.78 637.75 563.77 642.07 565.48 645.79 567.94 648.33 566.99 650.28 568.42 652.61 568.23 655.59 566.12 659.26 568.25 662.72 565.78 666.32 563.65 667.43 562.44 668.82 Z" id="36030360"/>
<path d="M 712.03 516.47 711.34 518.48 709.53 519.1 709.63 520.85 708.7 521.48 707.65 523.65 707.63 527.06 708.49 528.72 708.45 530.48 709.78 530.31 711.52 531.29 712.78 533.44 715.38 535.19 716.1 536.37 718.2 537.38 720.15 537.63 721.93 539.52 721.9 540.28 723.64 541.71 725.32 542.04 726.24 542.97 728.12 542.4 729.06 543.5 729.41 546.27 730.84 547.29 731.05 549.12 729.48 551.04 728.68 552.77 727.68 553.13 726.21 555.27 725.35 557.6 726.76 558.7 730.28 559.53 731.91 559.33 733.78 560.09 735.13 559.21 735.58 557.83 736.93 557.82 738.41 559.25 739.41 563.27 740.07 564.47 741.81 565.81 743.38 565.82 743.98 568.46 743.25 570.3 744.84 571.25 746.51 571.14 748.55 572.8 754.21 572.35 755.43 572.87 757.14 572.23 759.26 570.51 759.19 566.63 760.05 566.32 761.58 568.12 763.77 569.15 765.79 571 764.66 603.65 764.45 603.84 763.96 618.75 763.64 619.32 765.85 621.48 766.99 621.83 766.82 624.8 768.22 627.24 768.33 623.04 769.81 621.88 780.25 621.91 780.3 622.04 780.9 623.38 786.05 623.16 788.23 626.19 783.4 630.02 785.76 636.16 787.88 643.38 789.92 652.63 791.85 664.02 790.76 662.59 785.56 666.37 793.65 676.5 793.93 676.26 799 682.7 797.76 684.32 796.04 687.81 794.94 688.65 787.51 691.92 784.54 693.84 793.26 704.78 790.75 704.63 782 693.94 781.34 695.39 778.83 695.95 775.67 698.75 773.88 699.29 768.83 697.22 767.53 698.73 765.92 699.75 764.19 699.58 763.32 700.18 760.89 698.33 759.18 699.32 757.23 699.34 755.7 700.53 753.96 699.72 752.13 699.92 748.66 699.22 746.78 699.59 744.64 699.16 743.89 697.28 742.28 697.14 740.13 695.9 738.49 693.96 735.65 693.15 733.62 693.11 730.25 693.68 727.91 695.28 726.75 694.98 725.03 695.72 719.71 694.43 719.02 693.09 717.56 693.87 715.13 693.21 713.22 690.8 711.96 689.72 708.58 691.49 707.45 693.72 706.31 697.14 704.11 697.24 703.46 697.79 700.86 698.27 697.67 700.31 695.81 700.66 693.42 704.2 691.28 705.01 691.01 706.17 688.5 709.17 686.87 712.17 685.74 716.12 687.09 718.03 688.4 721.36 690.26 722.45 691.18 724.02 691.12 725.53 692.71 728.61 694.38 732.79 697.43 735.94 696.77 738.22 696.97 739.69 701.46 741.66 703.25 741.59 706.65 742.81 708.66 744.65 711.51 746.02 713.06 746.31 714.73 748.51 715.04 750.56 714.52 753.9 712.87 758.84 713.63 761.23 714.18 764.37 715.46 765.63 715.18 767.66 713.68 768.76 712.66 768.81 711.84 770.2 710.5 773.79 707.19 775.32 707.91 776.22 704.85 778.95 703.47 780.9 701.01 781.21 700.83 783.06 701.31 784.6 703.32 784.9 704.28 786.39 703.84 787.49 701.93 789.5 701.96 791.11 701.08 791.59 701.76 793.29 700.4 795.5 699.39 795.13 696.6 796.55 696.41 798 694.67 800.06 691.34 800.72 690.55 800.02 685.92 800.33 684.57 801.34 682.9 800.48 681.25 800.69 677.37 798.02 676.05 797.99 671.87 795.58 668.69 793.06 667.86 792.02 666.81 788.93 665.63 787.47 664.16 784 661.5 780.15 663.06 774.7 662.68 772.2 663.14 768.7 662.08 763.14 661.36 762.99 660.9 760.27 657.52 761.08 655.45 757.35 657.43 755.96 655.49 753.42 654.31 750.98 655.37 750.32 653.37 745.1 653.35 741.34 652.4 741.13 651.58 736.92 651.95 735.6 650.94 734.84 650.89 732.3 649.84 731.71 649.52 730.01 652.11 725.29 651.7 722.53 651.51 718.2 652.27 714.92 654.54 710.62 653.62 709.72 645.31 707.43 645.66 703.56 649.13 702.07 650.53 702.6 652.92 696.43 655.27 693.92 654.92 692.56 656.74 689.32 657.66 688.77 663 688.1 665.58 688.37 667.9 689.62 670.52 688.75 672.42 687.07 673.12 685.11 672.98 683.33 673.6 677.58 674.48 675.71 675.67 674.76 677.82 674.19 677.82 672.92 674.99 672.46 673.12 670.43 670.47 670.28 667.99 672.89 666.74 673.71 664.27 674.24 662.89 673.02 663.35 671.79 665.05 670.73 664.26 669.75 661.07 668.86 659.76 666.99 659.98 664.31 662.36 663.07 664.15 663.04 666.64 664.14 667.41 663.86 668.31 661.76 667.79 660.81 664.17 659.75 662.15 660.29 660.48 661.7 659.52 661.9 658.21 660.85 658.43 659.7 659.91 657.23 658.83 656.6 655.74 656.62 653.86 658.67 652.28 658.86 650.77 658.18 647.75 656.13 647.83 654.33 650.41 653.02 651.45 652.97 653.41 654.01 654.34 653.68 655.07 650.21 653.36 649.09 651.08 649.57 649.55 651.81 647.99 650.82 647.47 646.61 648.33 645.35 650.48 645.49 650.01 643.48 648.12 643.17 648.29 640.93 646.51 639.48 645.95 637.57 647.26 636.83 648.95 637.95 651.19 636.29 653.1 636.13 653.9 633.2 654.74 631.67 654.85 629.5 655.74 628.58 656.78 629.57 657.19 630.97 658.15 631.41 659.07 628.48 658.65 627.25 657.42 626.62 655.04 623.19 655.68 620.1 655.07 619 653.21 618.1 651.21 616.57 650.03 614.19 648.8 613.13 646.67 612.22 645.53 609.43 645.37 607.49 645.79 605.5 647.25 604.5 648.59 601.58 650.64 601.09 652.95 601.48 655.39 600.07 656.13 598.76 657.13 599.23 660.07 597.59 662.11 597.4 664.22 596.31 660.66 590.25 663.3 589.33 663.72 587.12 664.47 585.58 665.59 584.7 667.48 585.9 670.53 586.28 672.89 585.26 674.41 582.25 675.49 581.85 677.12 578.71 677.7 575.25 679.03 572.93 680.87 573.37 682.14 572.82 683.31 568.79 681.59 568.69 680.5 567.93 677.13 566.7 672.6 566.74 672.43 560.1 668.89 560.15 668.8 556.62 667.3 554.41 666.83 548.78 666.48 548.18 669.12 546.83 669.6 547.86 671.42 548.27 674.44 547.23 674.83 548.28 676.87 547.69 679.14 548.44 681.61 545.98 683.16 545.35 685.6 542.82 687.54 543.93 689.78 544.17 691.12 541.95 691.96 539.71 695.37 537.85 695.8 535.02 694.72 533.9 695.57 532.28 695.6 530.05 694.21 528.84 694.2 527.9 695.88 523.4 695.88 520.09 695.86 519.77 700.84 518.7 704.42 517.7 707.2 517.55 707.99 516.67 709.59 516.88 712.03 516.47 Z" id="36030370"/>
</g>
</svg>