<?xml version="1.0"?>
<svg xmlns="http://www.w3.org/2000/svg" version="1.2" baseProfile="tiny" width="800" height="1110" viewBox="0 0 800 1110" stroke-linecap="round" stroke-linejoin="round">
<g id="dong">
<path d="M 433.99 113.75 440.02 118.12 446.67 122.44 456.72 131.04 461.03 135.81 465.01 142.48 470.57 149.18 473.47 151.33 482.7 162.55 490.12 168.82 496.55 175.91 506.83 190.99 512.46 202.65 514.91 213.51 515.59 217.7 516.86 229.39 515.62 242.76 516.06 256.12 516.08 282.86 523.53 299.55 532.45 305.97 536.42 309.59 540.24 311 552.21 322.96 556.94 331.06 570.17 349.69 573.64 357.98 579.25 363.07 581.46 367.02 586.26 370.16 590.34 371.9 599.34 376.44 611.55 382.15 616.7 385.08 623.76 389.8 631.69 393.36 636.81 396.79 643.37 403.17 650.53 416.54 652.49 434.13 654.59 441.05 664.77 449.9 672.36 454.89 682.25 460.48 690.12 465.4 689.9 470.02 690.56 473.91 692.98 477.98 697.27 480.55 701.03 482.09 704.77 484.81 701.68 489.89 697.75 487.14 695.77 488.45 692.16 487.58 688.95 486.03 686.14 485.84 684.14 484.55 682.56 485.98 679.61 486.67 677.22 485.1 675.68 482.34 673.19 483.59 670.29 481.54 669.21 479.69 663.12 476.71 656.65 478.31 653.6 482.33 648.76 486.32 644.06 492.25 639.17 495.45 637.43 495.67 630.1 494.38 627.89 492.81 624.58 492.54 621.78 490.94 619.12 490.68 612.05 487.06 604.95 477.98 602.94 472.73 600.69 473.62 592.68 473.14 589.08 476.59 585.52 474.53 582.75 473.65 575.87 472.98 573.09 470.96 568.15 470.58 566.49 468.95 566.05 466.83 560.95 465.03 560.37 463.45 557.34 462.19 554.02 459.8 547.11 458.54 541.54 455.9 538.69 452.66 538.3 450.04 540.21 447.14 539.69 443.97 540.67 439.53 540.46 433.8 535.92 430.49 532.43 430.43 530.04 428.41 527.43 423.6 525.23 417.17 522.03 416.17 520.3 414.51 514.85 413.49 513.22 407.55 514.17 405.56 512.76 401.86 508.06 397.74 505.79 398.74 501.84 395.98 500.73 393.76 501.48 391.61 500.45 387.57 501.86 382.55 501.48 378.49 499.14 374.15 499.3 371.88 496.13 369.08 494.24 365.34 492.1 362.94 492.65 356.43 491.11 352.4 492.14 349.34 489.48 348.73 484.77 343.69 479.04 339.94 477.83 336.42 474.37 335.52 471.87 333.78 466.74 332.08 466.69 329.01 463.62 318.74 462.49 317.24 459.91 316.85 456.58 314.71 454.31 309.08 452.81 303.48 452.98 299.59 451.82 295.83 446.38 289.31 445.77 286.76 444.26 286.08 437.64 281.29 432.5 280.62 430.08 280.83 425.36 279.07 420.42 275.4 414.17 272.75 412.68 268.48 408.84 263.46 407.39 258.42 404.57 255.86 402.13 250.98 397.45 242.78 394.76 239.26 390 239.84 387.86 240.81 384.57 244.83 379.66 244.87 374.49 247.55 372.91 249.76 368.42 249.59 359.93 250.35 351.38 255.35 340.09 255.53 337.23 256.29 334.98 258.42 332.28 258.47 328.55 257.41 325.39 259.26 320.13 264.52 313.21 273.58 311.79 277.48 306.17 281.72 303.38 281.99 299.97 283.4 295.75 283.42 292.66 284.19 288.38 279.96 284.9 277.85 281.12 276.38 279.85 272.34 276.25 270.16 274.66 264.7 275.22 261.7 270.72 258.27 269.57 256.15 264.25 251.47 262.72 248.35 259.6 246.73 258.62 244.58 255.51 240.5 251.27 238.23 247.99 238.97 240.53 239.53 239.31 239.25 239.46 227.48 241.03 217.36 241.32 208.72 242.18 204.66 241.96 202.17 243.53 196.54 241.81 190.2 239.71 186.96 239.52 184.74 241.75 175.92 244.2 173.6 244.02 170.58 245.06 169.03 246.58 163.61 246.41 160.3 247.27 155.08 247.11 149.18 246.15 147.25 243.19 147.99 240.25 145.25 241.39 143.4 239.95 135.68 238.23 134.16 238.91 130.09 239.08 123.71 241.52 120.84 241.43 118.53 244.45 111.3 244.29 108.1 244.95 103.91 244.65 98.35 246.79 95.71 247.59 93.47 247.09 88.48 248.29 85.89 248.76 81.94 253.69 79.14 254.9 76.63 254.78 74.14 256.69 73.09 258.38 70.61 258.51 67.8 260.02 67.29 262.73 64.57 265.56 63.46 268.32 57.11 270.54 54.89 272.98 55.11 274.7 49.5 273.39 46.15 275.33 36.01 281.55 31.13 283.18 25.93 286.83 20.54 286.26 10.95 288.91 8.07 292.56 7.17 295.18 4.95 298.44 1 300.41 1.43 306.39 3.36 309.05 5.01 313.86 10.05 317.63 15.5 319.44 19.28 323.09 24.93 325 26.74 339.8 36.22 347.46 45.03 350.01 49.75 351.79 55.6 356.5 61.41 366.07 74.91 373.2 83.22 382.45 85.14 389.91 86.05 399.51 85.72 406.61 88.29 409.39 95.71 423.31 103.61 430.12 109.07 433.99 113.75 Z" id="36060360"/>
<path d="M 477.03 942.47 480.11 947.67 482.57 950.77 498.8 961.58 515.48 983.77 516.41 985.83 455.11 1031.87 446.08 1019.79 444.06 1020.46 440.78 1016.16 437.48 1014.37 432.92 1010.68 431.67 1011.4 427.63 1007.88 425.66 1005.38 425.3 1000.61 426.04 996.59 427.94 992.83 428.49 988.64 429.33 988.33 431.22 980.91 433.14 976.85 441.82 964.88 448.15 955.64 449.05 952.78 452.08 936.56 456.35 935.77 473.26 940.52 477.03 942.47 Z M 539.48 792.89 536.4 796.51 535.26 796.59 532.8 799.63 530.44 804.11 528.42 806.73 530.51 810.5 527.87 812.31 521.45 813.7 511.75 820.54 506.64 820.81 501.44 822.41 498.94 825.73 493.79 827.25 493.5 829.22 491.71 831.6 490.09 835.71 489.52 838.86 489.88 841.5 489.21 844.94 490.73 849.45 490.41 851.54 493.59 852.84 493.19 856.16 489.77 858.78 487.52 861.52 487.17 867.49 488.73 869.54 489.53 874.44 488.27 879.65 489.2 880.95 489.26 885.06 487.5 888.04 488.59 890.71 489.28 895.32 489.3 899.51 491.43 901.87 492.45 904.98 491.54 908.2 492.42 910.81 494.95 912.38 495.34 915.93 493.69 919.02 494.26 921.98 496.57 923.01 497.28 925.4 498.9 925.54 498.62 928.44 497.49 930.43 498.35 935.65 496.32 939.26 500.12 948.76 498.13 956.81 485.21 948.46 483.74 944.53 480.98 943.26 480.94 938.17 479.37 937.28 466.63 935.64 463.72 934.17 456.53 931.39 451.81 931.46 450.94 933.74 448.97 934 449 936.73 445.05 946.81 443.42 949.34 444.22 951.55 442.9 953.68 444.32 955.53 442.2 956.98 442.51 959.77 439.64 961.09 429.77 976.65 428.54 979.13 425.63 990.02 427.11 993.38 425.53 993.84 424.55 996.23 423.21 1003.97 423.81 1008.04 425.61 1008.35 428.67 1012.02 432.13 1014.8 438.53 1017.47 442.12 1022.75 439.45 1024.77 448.47 1036.79 411.69 1064.42 387.07 1082.82 352.38 1108.96 352.21 1109 338.52 1092.52 344.55 1087.62 330.95 1071.1 306.1 1041.15 311.66 1036.5 332.34 1032.65 364.11 1026.57 372.38 1025.37 375.58 1023.43 398.42 1019.07 404.05 1015.71 403.69 1014.22 399.57 1014.7 391.44 1017.3 384.23 1016.67 384.68 1019.37 383.08 1019.89 380.65 1016.66 378.39 1016.91 372.32 1020.44 368.94 1021.14 368.17 1022.97 363.46 1023.81 358.7 1023.75 355.38 1025.16 347.08 1025.67 346.61 1024.64 341.19 1025.86 338.83 1024.79 337.43 1022.34 334.8 1025.12 329.43 1024.22 327.24 1025.9 325.93 1029.36 322.8 1031.64 319 1026.79 316.03 1025.78 313.06 1025.75 315.78 1029.89 313.75 1029.72 308.83 1030.68 297.76 1039.68 294.31 1037.18 293.07 1037.08 289.63 1032.24 285.7 1029.2 286.99 1027.29 279.78 1016.9 263.86 983.37 273.48 978.62 275.09 978.52 273.07 972.84 275.55 971.96 278.19 968.95 282.42 968.04 285.52 966.3 290.49 967.39 295.8 966.72 299.88 967.78 302.25 963.25 302.91 957.07 303.78 953.01 302.01 948.64 300.41 946.29 300.59 944.72 303.57 940.38 305.83 936.19 305.32 933.81 305.36 927.04 309.66 924.1 310.92 921.96 314.14 921.53 319.32 918.84 326.51 917.5 329.14 918.04 335.18 916.47 338.21 917.17 347.11 913.82 347.12 907.18 345.07 901.52 344.19 895.92 345.33 894.31 345.63 889.88 344.43 887.16 340.86 881.75 343.13 879.33 343.05 876.24 344.57 873.43 349.58 866.86 351.66 864.96 356.68 863.78 361.21 867.68 365.55 868.15 368.41 869.7 368.95 872.09 372.77 870.42 378.67 869.88 381.46 868.95 386.24 865.67 388.23 865.94 388.45 860.81 391.33 856.91 390.71 853.64 388.66 851.59 388.5 848.58 384.87 845.28 379.81 839.48 377.19 832.83 375.84 828.25 374.24 827.4 372.65 822.14 371.25 821.28 370.89 816.77 374.88 814.07 375.58 810.56 378.65 809.88 381.36 812.68 388.39 815.57 388.9 814.66 393.89 815.31 397.02 811.92 394.93 810.33 394.01 808.11 394.45 805.21 395.8 803.51 395.34 798.35 396.01 794.24 397.23 792.93 398.16 789.67 397.87 786.66 400.19 785.81 403.77 787.36 407.83 786.28 410.97 786.43 415.41 789.98 419.72 791.43 420.85 788.52 423.32 790.86 423.67 792.34 426.68 791.57 427.36 787.91 433.29 783.63 435.79 782.55 440.38 783.72 442.07 786.82 444.83 793.5 448.12 795.7 449 797.3 453.49 797.71 461.78 797.39 468.67 797.86 470.23 795.54 473.27 795.27 475.33 793.68 479.06 792.24 481.8 789.61 485.24 788.53 487.36 785.65 490.01 784.63 491.49 781.61 494.72 780 499.78 779.07 501.89 775.95 504.48 775.65 506.94 773.05 507.54 767.17 507.39 759.96 506.85 756.26 511.09 757.4 512.48 761.25 512.21 766.36 516.03 773.77 519.17 775.87 524.71 775.7 528.73 777.12 532.49 780.98 533.51 784.47 539.48 792.89 Z" fill-rule="evenodd" id="36060510"/>
<path d="M 498.13 956.81 500.12 948.76 496.32 939.26 498.35 935.65 497.49 930.43 498.62 928.44 498.9 925.54 497.28 925.4 496.57 923.01 494.26 921.98 493.69 919.02 495.34 915.93 494.95 912.38 492.42 910.81 491.54 908.2 492.45 904.98 491.43 901.87 489.3 899.51 489.28 895.32 488.59 890.71 487.5 888.04 489.26 885.06 489.2 880.95 488.27 879.65 489.53 874.44 488.73 869.54 487.17 867.49 487.52 861.52 489.77 858.78 493.19 856.16 493.59 852.84 490.41 851.54 490.73 849.45 489.21 844.94 489.88 841.5 489.52 838.86 490.09 835.71 491.71 831.6 493.5 829.22 493.79 827.25 498.94 825.73 501.44 822.41 506.64 820.81 511.75 820.54 521.45 813.7 527.87 812.31 530.51 810.5 536.76 811.52 539.77 814.18 541.44 814.41 544.72 817.47 552.05 819.06 558.91 818.46 562.42 821.48 565.93 825.66 571.73 829.84 576.31 830.94 579.75 833.45 581.39 833.81 586.85 836.8 589.06 839.14 595.35 839.65 596.75 841.44 596.67 845.11 598.06 849.75 602.83 859.55 603.18 863.02 600.62 865.84 599.8 869.09 602.23 871.95 601.32 871.09 590.69 882.22 585.59 889.09 577.19 901.44 571.41 909.65 572.45 913.51 571.46 915.44 566.84 915.32 566.06 916.26 560.47 918.84 544.03 925.57 541.62 927.38 538.64 930.69 534.69 939.44 536.32 940.33 535.5 943.33 536.3 950.08 534.9 949.18 532.57 954.3 528.89 952.73 524.75 962.18 529.71 964.62 523.99 977.46 512.97 972.69 502.38 958.69 498.13 956.81 Z" id="36060530"/>
<path d="M 273.39 1076.63 269.51 1074.99 256.84 1066.92 250.55 1059.46 243.05 1065.41 241.21 1066.37 231.66 1054.61 228.33 1055.89 229.95 1057.89 222.62 1063.96 223.47 1065.17 219.7 1071.84 217.51 1078.22 209.36 1067.84 208.91 1068.23 195.88 1051.92 204.25 1045.84 206.01 1048.13 202.89 1029.79 199.62 1014.89 196.21 1003.27 192.41 993.38 200.18 987.21 196.67 982.35 188.38 982.7 187.42 980.54 202.79 980.33 210.24 989.42 213.99 986.77 217.59 991.24 214.24 994.53 223.77 1006.39 224.68 1006.59 245.48 1032.66 248.49 1037.43 247.63 1038.45 263.06 1057.7 260.18 1060.09 264.94 1065.95 268.7 1063.08 273.21 1068.73 269.67 1071.96 273.39 1076.63 Z M 397.87 786.66 398.16 789.67 397.23 792.93 396.01 794.24 395.34 798.35 395.8 803.51 394.45 805.21 394.01 808.11 394.93 810.33 397.02 811.92 393.89 815.31 388.9 814.66 388.39 815.57 381.36 812.68 378.65 809.88 375.58 810.56 374.88 814.07 370.89 816.77 371.25 821.28 372.65 822.14 374.24 827.4 375.84 828.25 377.19 832.83 379.81 839.48 384.87 845.28 388.5 848.58 388.66 851.59 390.71 853.64 391.33 856.91 388.45 860.81 388.23 865.94 386.24 865.67 381.46 868.95 378.67 869.88 372.77 870.42 368.95 872.09 368.41 869.7 365.55 868.15 361.21 867.68 356.68 863.78 351.66 864.96 349.58 866.86 344.57 873.43 343.05 876.24 343.13 879.33 340.86 881.75 344.43 887.16 345.63 889.88 345.33 894.31 344.19 895.92 345.07 901.52 347.12 907.18 347.11 913.82 338.21 917.17 335.18 916.47 329.14 918.04 326.51 917.5 319.32 918.84 314.14 921.53 310.92 921.96 309.66 924.1 305.36 927.04 305.32 933.81 305.83 936.19 303.57 940.38 300.59 944.72 300.41 946.29 302.01 948.64 303.78 953.01 302.91 957.07 302.25 963.25 299.88 967.78 295.8 966.72 290.49 967.39 285.52 966.3 282.42 968.04 278.19 968.95 275.55 971.96 273.07 972.84 275.09 978.52 273.48 978.62 263.86 983.37 265.77 989.13 263.17 988.74 263.61 984.02 261.73 979.14 256.71 969.27 254.76 966.25 228.45 952.38 224.56 953.99 208.21 958.18 171.55 967.94 168.93 970.93 165.99 980.19 164.17 979.63 160.59 976.15 161.12 975.24 161.91 951.23 162.24 950.93 164.06 898.35 160.82 895.37 157.29 893.72 154.82 890.81 153.44 891.31 153.55 897.57 150.13 900.33 147.38 901.37 145.43 900.52 136.32 901.24 133.03 898.58 130.35 898.75 127.78 897.21 128.96 894.25 128 890 125.46 889.99 122.67 887.83 121.6 885.91 119.99 879.43 117.62 877.13 115.44 877.15 114.71 879.37 112.54 880.78 109.54 879.55 106.92 879.88 101.24 878.54 98.98 876.76 100.35 873.03 102.73 869.58 104.33 868.99 105.63 866.21 108.15 863.11 107.81 860.17 105.5 858.52 104.94 854.07 103.43 852.29 100.41 853.21 98.93 851.72 96.22 851.19 93.42 848.88 93.47 847.65 90.6 844.62 87.46 844.21 84.09 842.59 82.92 840.69 78.74 837.87 76.71 834.41 73.91 832.82 71.77 833.1 71.83 830.26 70.45 827.6 70.48 822.1 72.17 818.6 73.68 817.6 73.51 814.78 76.43 813.77 77.54 810.54 75.79 808.77 75.4 804.23 72.74 801.19 69.98 795.08 66.62 789.54 66.08 786.25 69.73 782.4 75.88 778.31 84.25 779.24 88.95 777.91 89.52 774.97 93.7 773.22 94.39 769.95 98.03 771.59 101.61 772.45 107.51 772.57 109.34 773.99 115.41 775.87 118.58 777.74 122.93 773.23 126.76 767.42 127.69 763.83 131.2 759.47 133.74 757.62 145.63 758.55 152.12 750.75 153.81 747.36 154.48 743.8 153.43 743.01 154.27 736.99 157.88 733.35 159.44 734.5 165.93 728.99 165.33 727.27 168.15 720.63 171.11 714.99 172.78 714.82 177.35 712 178.61 712.85 180.92 710.43 186.41 706.6 189.06 701.5 192.29 696.76 196.22 693.65 194.74 698.91 196.51 702.02 200.5 705.11 202.65 710.31 210.05 710.48 213.55 706.1 218.16 703.02 219.61 699.29 222.65 699.59 227.7 703.98 229.32 706.47 232.55 707.13 234.08 709.96 232.84 712.51 232.57 715.37 233.12 720.37 234.68 727.81 233.65 730.06 236.84 732.64 240.25 732.86 244.64 729.71 249.33 728.97 252.25 727.63 255.69 724.87 255.5 722.22 259.49 717.85 259.95 715 266.24 713.56 268.03 714.12 272.78 712.57 275.81 713.67 279.07 711.75 280.8 714.37 282.64 715.62 286.08 719.43 286.65 721.51 291.6 721.64 294.68 723.51 297.28 721.77 303.69 724.14 306.08 722.84 312.82 722.47 315.92 719.51 322.49 718.91 326.25 719.88 332.74 719.47 334.32 714.92 336.26 711.38 341.82 705.91 342.38 702.64 345.5 700.19 348.02 696.51 353.71 692.2 355.19 686.15 355.99 680.19 358.33 679.52 363.58 681.13 365.22 683.91 367.81 689.99 370.45 692.82 371.36 702.2 370.83 704.73 368.03 708.39 367.07 712.85 365.4 717.9 367.07 723.83 365.45 727.05 365.75 730.55 366.77 733.01 366.29 737.24 366.38 743.13 368.13 745.04 370.62 746.16 376.2 751 377.55 755.31 380.05 755.49 384.4 759.69 387.22 760.29 390.16 764.3 391.83 765.23 396.92 771.98 395.32 776.73 396.6 779.44 397.04 784.83 397.87 786.66 Z" fill-rule="evenodd" id="36060110"/>
<path d="M 219.61 699.29 218.16 703.02 213.55 706.1 210.05 710.48 202.65 710.31 200.5 705.11 196.51 702.02 194.74 698.91 196.22 693.65 192.29 696.76 189.06 701.5 186.41 706.6 180.92 710.43 178.61 712.85 177.35 712 172.78 714.82 171.11 714.99 168.15 720.63 165.33 727.27 165.93 728.99 159.44 734.5 157.88 733.35 154.27 736.99 153.43 743.01 154.48 743.8 153.81 747.36 152.12 750.75 145.63 758.55 133.74 757.62 131.2 759.47 127.69 763.83 126.76 767.42 122.93 773.23 118.58 777.74 115.41 775.87 109.34 773.99 107.51 772.57 101.61 772.45 98.03 771.59 94.39 769.95 94.02 768.9 100.28 761.01 99.1 754.28 96.38 749.71 92.48 747.78 91.28 745.58 84.94 739.8 84.09 737.73 79.59 733.31 77.21 732.1 75.67 728.93 76.41 726.73 80.21 725.17 83.07 725.34 85.71 719.63 84.02 713.4 86.73 713.01 90.15 707.66 89.74 702.11 90.17 700.61 94.78 697.07 98.11 692.19 101.25 690.64 102.21 687.48 107.41 683.79 113.21 682.72 113.98 681.26 117.23 679.09 122.9 678.11 123.56 674.78 128.03 673.11 131.31 673.68 129.97 669.45 130.07 664.96 128.38 660.89 122.61 652.93 119.83 649.9 117.61 649.3 109.45 645.71 106.82 639.7 107.16 634.67 104.75 627.4 101.35 621.55 101.92 617.48 100.39 614.83 100.84 609.94 100.18 608.6 105.24 599.04 107.33 590.85 109 587.09 100.91 576.54 98.34 574.81 95.93 569.28 96.21 558.62 97.19 555.18 98.69 552.5 99.2 547.64 92.63 542.53 89.9 542.09 85.5 539.51 82.2 536.15 80.08 535.65 77.61 533.25 75.05 529.03 71.89 527.57 71.47 525.41 67.63 524.01 64.99 522.04 64.6 520.46 61.79 516.92 59.29 512.31 53.49 506.48 47.32 502.52 46.1 500.52 41.89 496.27 35.72 494.19 35.38 490.76 31.47 483.35 31.21 479.46 26.92 473.51 17.14 465.27 15 461.66 8.81 457.75 9.66 452.27 8.32 443.17 5.36 440.36 2.88 435.18 2.62 423.67 1.05 416.88 1 414.9 2.51 411.28 1.97 407.86 4.27 397.27 4.9 391.64 7.69 386.3 10.59 383.41 13.73 378.52 17.29 375.98 20.22 368.2 17.61 359.59 14.34 352.88 14.74 351.94 15.67 349.71 15.31 342 12.63 335.3 12.67 331.67 11.29 328.52 14.8 325.33 18.03 324.14 19.41 317.79 21.41 314.41 23.2 307.4 21.55 300.5 22.91 293.32 24.86 291.13 24.09 289.38 25.76 287.76 28.48 290.02 29.86 291.98 34.33 294.34 36.35 297.67 42.39 301.04 43.75 304.34 48.77 306.69 51.87 310.46 57.02 312.68 61.84 314.11 66.16 316.18 70.56 319.73 72.53 319.65 76.39 321.38 77.9 323.85 82.2 328.59 88.61 326.33 94.29 325.99 96.29 324.7 99.03 324.35 100.66 325.37 104.5 325.09 106.03 321.3 110.21 316.14 112.42 312.57 113.01 309.35 115.56 305.84 117.16 300.97 116.57 294.38 117.24 291.16 115.68 286.79 117.1 284.54 116.76 278.01 122.01 274.74 125.65 275.61 131.8 274.05 133.67 270.22 137.1 266.56 141.59 265.2 144.42 263.06 149.42 261.3 151.77 258.7 155.78 258.08 158.72 263.94 161.11 266.7 164.31 272.53 168.23 276.44 170.25 286.37 169.78 288.06 172.27 292.68 174.21 302.59 176.77 304.19 179.74 308.07 179.51 310.73 180.27 315.2 180.26 318.6 182.71 322.67 183.37 331.79 181.59 337.39 181.16 341.02 182.08 345.51 184.67 351.14 185.16 359.3 186.79 368.19 186.2 370.25 185.94 378.85 183.95 382.01 182.36 386.68 183.58 390.65 183.59 394.34 185.12 398.59 186.9 400.93 186.79 403.97 185.08 408.94 187.34 414.13 188.61 421.03 187.38 428.86 187.84 438.79 185.62 443.51 180.54 444.44 178.84 446.82 173.83 451.82 172.83 456 169.98 460.09 171.77 465.88 172.58 471.68 172.91 480.16 177.35 484.14 177.48 491.82 177.88 493.42 176.7 495.93 175.47 502.82 175.89 508.09 175.47 510.33 176.87 520.48 176.61 524.89 180.92 528.84 183.49 529.51 185.57 533.43 190.74 539.05 197.75 542.31 199 543.86 203.02 546.69 210.77 544.03 213.73 550.02 215.6 551.4 218.24 556.47 217.43 558.22 217.96 562.17 221.43 566.3 222.94 567.31 224.86 571.53 226.27 576.1 226.15 579.37 223.41 581.35 224.5 583.01 225 587.55 223.35 595.58 227.73 595.87 232.82 598.85 233.38 602.2 235.34 603.19 238.54 607.5 238.23 610.27 239.17 611.79 237.58 613.78 237.38 618.83 239.5 625.62 241.57 629.58 239.74 631.62 234.1 634.24 233.3 636.19 228.43 636.27 225.39 639.28 222.25 638.74 219.38 639.94 216.72 639.09 211.18 642.05 210.6 644.82 208.59 647.81 208.8 651.56 207.33 657.74 207.59 662.22 209.12 663.68 208.69 668.29 210.15 671.4 212.19 672.43 214.95 677.02 218.42 681.2 220 685.75 221.86 688.02 219.88 692.47 219.61 699.29 Z" id="36060310"/>
<path d="M 239.31 239.25 240.53 239.53 247.99 238.97 251.27 238.23 255.51 240.5 258.62 244.58 259.6 246.73 262.72 248.35 264.25 251.47 269.57 256.15 270.72 258.27 275.22 261.7 274.66 264.7 276.25 270.16 279.85 272.34 281.12 276.38 284.9 277.85 288.38 279.96 292.66 284.19 292.62 291.43 295.94 296.23 296.46 300.66 295.97 305.18 294.87 306.94 293.87 311.73 294.41 316.08 296.46 317.82 298.98 322.82 300.99 322.61 307.18 324.35 309.67 329.18 313.46 333.83 318.11 333.19 320.74 331.42 323.85 330.88 330.44 335.45 333.8 335.54 340.48 339.43 340.74 344.93 341.35 347.86 344.74 353.99 345.79 356.84 349.97 363.25 350.73 365.34 354.45 369.17 354.98 371.77 357.42 375.13 360.64 376.64 362.48 378.72 367.03 380.79 368.92 383.29 372.55 391.64 371.92 394.06 374.24 402.45 375.56 403.58 374.14 410.33 373.56 415.49 373.81 418.68 373.12 423.58 368.81 431.9 374.38 441.33 377.91 444.84 378.52 449.97 382.37 458.32 375.05 465.35 374.92 469.13 372.83 472.94 371.54 476.77 371.34 481.12 370.07 487.17 370.11 491.78 368.96 493.47 369.2 496.86 368.25 498.75 370.55 503.71 369.8 507.38 370.89 512.61 369.83 514.6 370.96 516.76 371.43 523.04 371 526.62 372.1 533.15 371.67 535.21 372.99 537.52 374.12 543.89 371.64 546.8 368.07 549.79 363.82 555.81 363.03 559.02 363.11 563.66 361.01 567.23 360 570.77 358.16 573.78 354.7 573.96 349.55 576.65 349.14 579.17 347.4 581.06 347.72 586.7 349.16 590.18 345.7 602.04 346.47 606.54 345.89 610.04 347.51 611.31 347.1 613.37 348.84 615.25 349.9 618.31 352.61 620.61 358.95 627.56 358.67 629.24 355.79 632.83 358.31 639.95 357 644.77 357.83 647.4 357.73 653.22 359.21 657.31 358.3 664.65 359.08 669.08 357.25 672.57 357.92 675.52 355.99 680.19 355.19 686.15 353.71 692.2 348.02 696.51 345.5 700.19 342.38 702.64 341.82 705.91 336.26 711.38 334.32 714.92 332.74 719.47 326.25 719.88 322.49 718.91 315.92 719.51 312.82 722.47 306.08 722.84 303.69 724.14 297.28 721.77 294.68 723.51 291.6 721.64 286.65 721.51 286.08 719.43 282.64 715.62 280.8 714.37 279.07 711.75 275.81 713.67 272.78 712.57 268.03 714.12 266.24 713.56 259.95 715 259.49 717.85 255.5 722.22 255.69 724.87 252.25 727.63 249.33 728.97 244.64 729.71 240.25 732.86 236.84 732.64 233.65 730.06 234.68 727.81 233.12 720.37 232.57 715.37 232.84 712.51 234.08 709.96 232.55 707.13 229.32 706.47 227.7 703.98 222.65 699.59 219.61 699.29 219.88 692.47 221.86 688.02 220 685.75 218.42 681.2 214.95 677.02 212.19 672.43 210.15 671.4 208.69 668.29 209.12 663.68 207.59 662.22 207.33 657.74 208.8 651.56 208.59 647.81 210.6 644.82 211.18 642.05 216.72 639.09 219.38 639.94 222.25 638.74 225.39 639.28 228.43 636.27 233.3 636.19 234.1 634.24 239.74 631.62 241.57 629.58 239.5 625.62 237.38 618.83 237.58 613.78 239.17 611.79 238.23 610.27 238.54 607.5 235.34 603.19 233.38 602.2 232.82 598.85 227.73 595.87 223.35 595.58 225 587.55 224.5 583.01 223.41 581.35 226.15 579.37 226.27 576.1 224.86 571.53 222.94 567.31 221.43 566.3 217.96 562.17 217.43 558.22 218.24 556.47 215.6 551.4 213.73 550.02 210.77 544.03 203.02 546.69 199 543.86 197.75 542.31 190.74 539.05 185.57 533.43 183.49 529.51 180.92 528.84 176.61 524.89 176.87 520.48 175.47 510.33 175.89 508.09 175.47 502.82 176.7 495.93 177.88 493.42 177.48 491.82 177.35 484.14 172.91 480.16 172.58 471.68 171.77 465.88 169.98 460.09 172.83 456 173.83 451.82 178.84 446.82 180.54 444.44 185.62 443.51 187.84 438.79 187.38 428.86 188.61 421.03 187.34 414.13 185.08 408.94 186.79 403.97 186.9 400.93 185.12 398.59 183.59 394.34 183.58 390.65 182.36 386.68 183.95 382.01 185.94 378.85 186.2 370.25 186.79 368.19 185.16 359.3 184.67 351.14 182.08 345.51 181.16 341.02 181.59 337.39 183.37 331.79 182.71 322.67 180.26 318.6 180.27 315.2 179.51 310.73 179.74 308.07 176.77 304.19 174.21 302.59 172.27 292.68 169.78 288.06 170.25 286.37 168.23 276.44 164.31 272.53 161.11 266.7 158.72 263.94 155.78 258.08 159.19 257.34 167.06 252.25 170.92 249.24 173.59 243.62 176.37 241.19 177.62 237.82 182.9 237.86 187.17 236.66 188.17 235.07 190.96 233.44 192.94 233.3 198.5 235.14 202.31 233.12 203.8 231.1 207.33 229.11 208.45 226.92 211.09 226.11 217.21 229.24 220.34 230.13 222.98 233.71 226.8 236.69 230.43 236.86 239.31 239.25 Z" id="36060320"/>
<path d="M 605.53 730.1 607.05 732.04 609.1 731.88 614.61 734.09 616.39 735.64 618.55 740.05 620.7 742.94 621.61 746.8 623.74 750.74 622.24 754.47 621.57 758 619.14 764.53 616.18 777.48 615.8 784.09 618.15 802.59 620.08 805.42 618.95 806.33 621.6 809.31 621.75 810.93 619.47 809.2 612.19 805.66 609.99 803.27 608.16 799.94 599.82 803.98 595.4 797.79 594.74 794.83 592.92 794.45 588.75 789.9 586.92 790.29 582.35 788.75 577.39 789.9 574.69 793.2 570.9 794.8 565.62 794.42 560.41 795.6 555.56 793.81 553.22 794.24 547.1 792.68 546.19 791.59 542.34 791.38 539.48 792.89 533.51 784.47 532.49 780.98 528.73 777.12 524.71 775.7 519.17 775.87 516.03 773.77 512.21 766.36 512.48 761.25 511.09 757.4 506.85 756.26 507.39 759.96 507.54 767.17 506.94 773.05 504.48 775.65 501.89 775.95 499.78 779.07 494.72 780 491.49 781.61 490.01 784.63 487.36 785.65 485.24 788.53 481.8 789.61 479.06 792.24 475.33 793.68 473.27 795.27 470.23 795.54 468.67 797.86 461.78 797.39 453.49 797.71 449 797.3 448.12 795.7 444.83 793.5 442.07 786.82 440.38 783.72 435.79 782.55 433.29 783.63 427.36 787.91 426.68 791.57 423.67 792.34 423.32 790.86 420.85 788.52 419.72 791.43 415.41 789.98 410.97 786.43 407.83 786.28 403.77 787.36 400.19 785.81 397.87 786.66 397.04 784.83 396.6 779.44 395.32 776.73 396.92 771.98 391.83 765.23 390.16 764.3 387.22 760.29 384.4 759.69 380.05 755.49 377.55 755.31 376.2 751 370.62 746.16 368.13 745.04 366.38 743.13 366.29 737.24 366.77 733.01 365.75 730.55 365.45 727.05 367.07 723.83 365.4 717.9 367.07 712.85 368.03 708.39 370.83 704.73 371.36 702.2 370.45 692.82 367.81 689.99 365.22 683.91 363.58 681.13 358.33 679.52 355.99 680.19 357.92 675.52 357.25 672.57 359.08 669.08 358.3 664.65 359.21 657.31 357.73 653.22 357.83 647.4 357 644.77 358.31 639.95 355.79 632.83 358.67 629.24 358.95 627.56 352.61 620.61 349.9 618.31 348.84 615.25 347.1 613.37 347.51 611.31 345.89 610.04 346.47 606.54 345.7 602.04 349.16 590.18 347.72 586.7 347.4 581.06 349.14 579.17 349.55 576.65 354.7 573.96 358.16 573.78 360 570.77 361.01 567.23 363.11 563.66 363.03 559.02 363.82 555.81 368.07 549.79 371.64 546.8 374.12 543.89 377.46 546.4 382.54 546.34 385.24 548.31 387.11 548.69 390.23 550.86 392.96 549.69 403.1 557.38 407.54 557.24 408.29 559.14 410.61 560.23 411.38 563.03 416.9 565.91 420.36 566.34 421.73 567.53 421.78 570.29 423.48 576.6 426.01 578.85 427.19 581.4 428.91 582.35 433.22 581.73 434.75 580.67 438.43 585.17 443.59 587.8 445.31 589.59 452.33 590.33 454.21 587.87 455.36 583.56 458.96 581.31 460.36 579.04 463.16 577.68 468.57 573.41 473.4 573.8 478.88 571.21 481.48 572.74 487.41 572.87 488.6 573.65 494.22 572.71 496.27 572.95 498.28 570.47 501.53 567.89 504.15 566.98 504.76 564.31 507.44 561.27 509.32 557.93 512.15 556.48 516.49 556.17 520.4 560.81 522.98 562.13 526.13 566.31 525.92 570.81 526.59 576.31 529.17 577.7 529.63 579.35 533.68 582.75 535.59 588.06 535.31 592.6 536.8 595.05 536.31 600.7 536.82 602.58 536.56 607.51 535.3 611.33 536.35 615.05 533.45 616.9 529.94 620.7 528.39 621.6 529.91 626.29 531.73 629.57 532.22 632.25 530.61 634.13 530.94 636.56 529.56 638.57 529.68 643.3 533.44 648.79 534.85 649.26 537.03 655.12 540.06 655.64 543.28 657.89 548.05 658.28 548.76 659.22 548.17 663.33 550.18 664.62 553.67 671.53 555.37 672.57 556.52 675.03 553.57 676.95 552.28 679.18 552.18 681.84 553.33 685.75 557.46 688.17 559.32 695.94 559.46 699.96 561.98 704.42 569.75 706.32 570.6 707.91 570.23 710.48 572.91 711.79 576.68 715.89 579.73 714.43 580.91 714.84 585.64 719.4 586.38 721.27 590.3 721.97 590.26 723.93 595.95 724.96 598.7 727.84 603.98 728.82 605.53 730.1 Z" id="36060330"/>
<path d="M 637.43 495.67 639.94 500.36 643.28 502 644.61 507.29 655.18 513.44 656.2 518.66 653.16 522.03 648.17 528.77 644.38 531.35 641.84 537.25 642.06 541.08 641.65 545.45 640.48 550.07 641.02 551.15 646.91 556.22 648.89 561.85 650.96 562.6 651.88 566.43 654.53 570.07 658.81 572.49 660.23 575.38 664.73 579.2 665.59 581.27 669.15 583.68 667.4 585.18 666.64 588.79 664.33 592.69 663.12 598.03 660.7 598.39 657.46 602.41 658.45 606.5 656.48 610.58 657.02 612.76 656.07 616.03 654.22 619.23 654.57 621.82 652.79 627.93 650.93 628.37 648.09 633.97 646 635.42 641.51 635.24 633.83 636.78 631.78 637.79 630.99 640.15 631.82 647.81 633.2 647.76 632.01 652.36 632.02 656.38 631.28 658.29 631.24 663.83 632.44 666.38 630.06 673.12 630.04 677.74 626.84 680.14 627.34 682.15 624.82 696.48 628.1 703.33 628.7 706.4 631.58 709.83 629.32 712.34 629.56 716.14 627.97 719 621.5 719.81 621.45 722.73 620.14 723.74 610.29 718.44 607.32 717.94 607.05 720.8 604.58 723.5 604.4 725.98 605.53 730.1 603.98 728.82 598.7 727.84 595.95 724.96 590.26 723.93 590.3 721.97 586.38 721.27 585.64 719.4 580.91 714.84 579.73 714.43 576.68 715.89 572.91 711.79 570.23 710.48 570.6 707.91 569.75 706.32 561.98 704.42 559.46 699.96 559.32 695.94 557.46 688.17 553.33 685.75 552.18 681.84 552.28 679.18 553.57 676.95 556.52 675.03 555.37 672.57 553.67 671.53 550.18 664.62 548.17 663.33 548.76 659.22 548.05 658.28 543.28 657.89 540.06 655.64 537.03 655.12 534.85 649.26 533.44 648.79 529.68 643.3 529.56 638.57 530.94 636.56 530.61 634.13 532.22 632.25 531.73 629.57 529.91 626.29 528.39 621.6 529.94 620.7 533.45 616.9 536.35 615.05 535.3 611.33 536.56 607.51 536.82 602.58 536.31 600.7 536.8 595.05 535.31 592.6 535.59 588.06 533.68 582.75 529.63 579.35 529.17 577.7 526.59 576.31 525.92 570.81 526.13 566.31 522.98 562.13 520.4 560.81 516.49 556.17 512.15 556.48 509.32 557.93 507.44 561.27 504.76 564.31 504.15 566.98 501.53 567.89 498.28 570.47 496.27 572.95 494.22 572.71 488.6 573.65 487.41 572.87 481.48 572.74 478.88 571.21 473.4 573.8 468.57 573.41 463.16 577.68 460.36 579.04 458.96 581.31 455.36 583.56 454.21 587.87 452.33 590.33 445.31 589.59 443.59 587.8 438.43 585.17 434.75 580.67 433.22 581.73 428.91 582.35 427.19 581.4 426.01 578.85 423.48 576.6 421.78 570.29 421.73 567.53 420.36 566.34 416.9 565.91 411.38 563.03 410.61 560.23 408.29 559.14 407.54 557.24 403.1 557.38 392.96 549.69 390.23 550.86 387.11 548.69 385.24 548.31 382.54 546.34 377.46 546.4 374.12 543.89 372.99 537.52 371.67 535.21 372.1 533.15 371 526.62 371.43 523.04 370.96 516.76 369.83 514.6 370.89 512.61 369.8 507.38 370.55 503.71 368.25 498.75 369.2 496.86 368.96 493.47 370.11 491.78 370.07 487.17 371.34 481.12 371.54 476.77 372.83 472.94 374.92 469.13 375.05 465.35 382.37 458.32 378.52 449.97 377.91 444.84 374.38 441.33 368.81 431.9 373.12 423.58 373.81 418.68 373.56 415.49 374.14 410.33 375.56 403.58 374.24 402.45 371.92 394.06 372.55 391.64 368.92 383.29 367.03 380.79 362.48 378.72 360.64 376.64 357.42 375.13 354.98 371.77 354.45 369.17 350.73 365.34 349.97 363.25 345.79 356.84 344.74 353.99 341.35 347.86 340.74 344.93 340.48 339.43 333.8 335.54 330.44 335.45 323.85 330.88 320.74 331.42 318.11 333.19 313.46 333.83 309.67 329.18 307.18 324.35 300.99 322.61 298.98 322.82 296.46 317.82 294.41 316.08 293.87 311.73 294.87 306.94 295.97 305.18 296.46 300.66 295.94 296.23 292.62 291.43 292.66 284.19 295.75 283.42 299.97 283.4 303.38 281.99 306.17 281.72 311.79 277.48 313.21 273.58 320.13 264.52 325.39 259.26 328.55 257.41 332.28 258.47 334.98 258.42 337.23 256.29 340.09 255.53 351.38 255.35 359.93 250.35 368.42 249.59 372.91 249.76 374.49 247.55 379.66 244.87 384.57 244.83 387.86 240.81 390 239.84 394.76 239.26 397.45 242.78 402.13 250.98 404.57 255.86 407.39 258.42 408.84 263.46 412.68 268.48 414.17 272.75 420.42 275.4 425.36 279.07 430.08 280.83 432.5 280.62 437.64 281.29 444.26 286.08 445.77 286.76 446.38 289.31 451.82 295.83 452.98 299.59 452.81 303.48 454.31 309.08 456.58 314.71 459.91 316.85 462.49 317.24 463.62 318.74 466.69 329.01 466.74 332.08 471.87 333.78 474.37 335.52 477.83 336.42 479.04 339.94 484.77 343.69 489.48 348.73 492.14 349.34 491.11 352.4 492.65 356.43 492.1 362.94 494.24 365.34 496.13 369.08 499.3 371.88 499.14 374.15 501.48 378.49 501.86 382.55 500.45 387.57 501.48 391.61 500.73 393.76 501.84 395.98 505.79 398.74 508.06 397.74 512.76 401.86 514.17 405.56 513.22 407.55 514.85 413.49 520.3 414.51 522.03 416.17 525.23 417.17 527.43 423.6 530.04 428.41 532.43 430.43 535.92 430.49 540.46 433.8 540.67 439.53 539.69 443.97 540.21 447.14 538.3 450.04 538.69 452.66 541.54 455.9 547.11 458.54 554.02 459.8 557.34 462.19 560.37 463.45 560.95 465.03 566.05 466.83 566.49 468.95 568.15 470.58 573.09 470.96 575.87 472.98 582.75 473.65 585.52 474.53 589.08 476.59 592.68 473.14 600.69 473.62 602.94 472.73 604.95 477.98 612.05 487.06 619.12 490.68 621.78 490.94 624.58 492.54 627.89 492.81 630.1 494.38 637.43 495.67 Z" id="36060340"/>
<path d="M 768.52 574.93 774.08 583.41 782.94 588.47 789.14 593.63 792.64 597.32 794.74 601.37 796.11 607.3 797.08 609.61 797.78 614.42 797.5 617.06 798.28 622.23 798.23 630.43 799 637.02 796.39 643.8 793.5 659.19 789.03 669.18 785.7 679.69 783.35 683.9 782.54 688.29 780.12 697.27 780.62 701.9 780.55 709.97 779.83 713.13 777.58 717.29 775.96 719.15 769.23 724.01 764.5 730.88 760.82 737.85 753.56 745.48 747.14 750.75 740.66 753.04 734.39 757.64 730.45 761.77 728.84 764.11 727.22 771.73 723.22 778.48 721.7 782.93 720.2 790.85 717.34 796.35 716.58 798.73 711.47 798.63 708.78 803.2 707.52 807.55 701.67 814.8 699.87 816.14 695.22 816.63 697.02 823.16 695.86 823.65 692.82 816.84 677.15 824.01 675.53 823.91 670.41 826.59 662.75 831.29 660.82 831.55 660.59 833.47 657.64 836.03 651.89 838.26 650.02 837.76 649.85 841.64 646.22 840.04 630.56 843.59 630.76 838.51 629.7 835.09 629.35 830.51 626.77 825.68 623.59 814.92 621.75 810.93 621.6 809.31 618.95 806.33 620.08 805.42 618.15 802.59 615.8 784.09 616.18 777.48 619.14 764.53 621.57 758 622.24 754.47 623.74 750.74 621.61 746.8 620.7 742.94 618.55 740.05 616.39 735.64 614.61 734.09 609.1 731.88 607.05 732.04 605.53 730.1 604.4 725.98 604.58 723.5 607.05 720.8 607.32 717.94 610.29 718.44 620.14 723.74 621.45 722.73 621.5 719.81 627.97 719 629.56 716.14 629.32 712.34 631.58 709.83 628.7 706.4 628.1 703.33 624.82 696.48 627.34 682.15 626.84 680.14 630.04 677.74 630.06 673.12 632.44 666.38 631.24 663.83 631.28 658.29 632.02 656.38 632.01 652.36 633.2 647.76 631.82 647.81 630.99 640.15 631.78 637.79 633.83 636.78 641.51 635.24 646 635.42 648.09 633.97 650.93 628.37 652.79 627.93 654.57 621.82 654.22 619.23 656.07 616.03 657.02 612.76 656.48 610.58 658.45 606.5 657.46 602.41 660.7 598.39 663.12 598.03 664.33 592.69 666.64 588.79 667.4 585.18 669.15 583.68 665.59 581.27 664.73 579.2 660.23 575.38 658.81 572.49 654.53 570.07 651.88 566.43 650.96 562.6 648.89 561.85 646.91 556.22 641.02 551.15 640.48 550.07 641.65 545.45 642.06 541.08 641.84 537.25 644.38 531.35 648.17 528.77 653.16 522.03 656.2 518.66 655.18 513.44 644.61 507.29 643.28 502 639.94 500.36 637.43 495.67 639.17 495.45 644.06 492.25 648.76 486.32 653.6 482.33 656.65 478.31 663.12 476.71 669.21 479.69 670.29 481.54 673.19 483.59 675.68 482.34 677.22 485.1 679.61 486.67 682.56 485.98 684.14 484.55 686.14 485.84 688.95 486.03 692.16 487.58 695.77 488.45 697.75 487.14 701.68 489.89 704.77 484.81 701.03 482.09 697.27 480.55 692.98 477.98 690.56 473.91 689.9 470.02 690.12 465.4 701.97 470.01 707.3 471.61 715.18 470.93 720.67 471.22 726.45 472.14 729.01 473.4 732.2 476.56 736.55 483.38 740.67 488.47 742.5 492.9 743.36 496.75 745.62 503.06 745.95 510.12 749.09 523.49 749.38 536.85 751.98 550.22 757.38 557.9 762.89 563.78 764.92 568.51 768.52 574.93 Z" id="36060350"/>
<path d="M 621.75 810.93 623.59 814.92 626.77 825.68 629.35 830.51 629.7 835.09 630.76 838.51 630.56 843.59 629.49 844.79 624.58 847.5 622.11 849.5 620.13 852.32 615.55 856.65 613.01 861.94 610.9 864.71 608.9 865.31 602.23 871.95 599.8 869.09 600.62 865.84 603.18 863.02 602.83 859.55 598.06 849.75 596.67 845.11 596.75 841.44 595.35 839.65 589.06 839.14 586.85 836.8 581.39 833.81 579.75 833.45 576.31 830.94 571.73 829.84 565.93 825.66 562.42 821.48 558.91 818.46 552.05 819.06 544.72 817.47 541.44 814.41 539.77 814.18 536.76 811.52 530.51 810.5 528.42 806.73 530.44 804.11 532.8 799.63 535.26 796.59 536.4 796.51 539.48 792.89 542.34 791.38 546.19 791.59 547.1 792.68 553.22 794.24 555.56 793.81 560.41 795.6 565.62 794.42 570.9 794.8 574.69 793.2 577.39 789.9 582.35 788.75 586.92 790.29 588.75 789.9 592.92 794.45 594.74 794.83 595.4 797.79 599.82 803.98 608.16 799.94 609.99 803.27 612.19 805.66 619.47 809.2 621.75 810.93 Z" id="36060540"/>
<path d="M 695.86 823.65 697.02 823.16 700.26 832.08 704.72 829.47 706.93 829.4 710.9 826.73 712.36 824.15 717.44 822.56 719.4 822.48 724.21 824.25 727.28 829.01 728.71 829.76 731.48 834.09 738.09 840.96 737.94 841.75 742.38 846.56 744.63 847.82 746.46 853.62 746.26 855.22 744 856.3 743.26 868.47 744.46 870.7 745.06 875.83 743.09 881.92 740.02 885.03 739.76 893.98 745.44 894.01 745.43 920.81 738.17 920.95 735.51 921.52 715.84 921.57 713.37 921.74 680.04 921.8 679.16 923.31 674.75 921.08 672.73 918.63 671.94 913.33 670.72 911.39 671.15 909.25 669.98 907.88 663.06 895.88 662.01 889.52 659.19 883.34 659.31 876.08 657.21 865.57 660.01 856.96 661.1 855.09 670.15 848.38 677.39 842.67 682.82 840.59 699.04 832.37 695.86 823.65 Z M 718.84 812.91 716.88 812.35 716.68 808.44 719.15 809.46 719.94 811.11 718.84 812.91 Z" fill-rule="evenodd" id="36060550"/>
<path d="M 633.53 856.79 636.22 861.32 640.24 866.7 643.99 869.18 646.01 871.95 650.52 873.97 651.9 873.77 656.74 876.01 657.46 878.2 655.28 882.66 654.17 891.52 652.53 895.75 650.52 904.17 648.61 906.82 649.12 909.46 647.28 909.64 644.91 915.57 648.63 922.71 649.17 925.12 652.3 928.14 656.04 927.6 703.44 927.61 704.39 927.94 729.74 928.03 731.04 928.73 735.32 928.77 766.93 960.53 794.65 988.2 794.63 1040.2 794.73 1095.63 770.08 1095.79 762.48 1090.68 739.99 1075.91 735.79 1075.88 730 1076.81 729.2 1075.51 730.94 1073.76 729.76 1072.49 726.35 1072.49 726.35 1038.89 689.66 1031.08 565.08 1004.71 565.68 1002.99 562.66 1002.34 561.2 1000.4 554.43 998.98 554.02 1000.83 550.89 1000.82 550.89 989.11 549.72 981.76 551.33 978.05 550.95 973.95 550.92 956.69 551.1 954.99 548.87 951.25 548.15 946.57 548.31 938.39 549.89 936.47 553.05 934.68 558.92 934.69 560.2 935.73 564.44 935.7 569.79 931.44 569.03 934.26 581.55 926.54 581.96 921.32 582.09 907.42 582.33 906.69 601.11 886.35 605.13 881.49 607.18 877.82 610.37 869.12 612.16 867.3 624.23 863.04 626.66 861.39 628.05 855.42 631.94 854.48 633.53 856.79 Z" id="36060560"/>
</g>
</svg>