<?xml version="1.0"?>
<svg xmlns="http://www.w3.org/2000/svg" version="1.2" baseProfile="tiny" width="800" height="1295" viewBox="0 0 800 1295" stroke-linecap="round" stroke-linejoin="round">
<g id="dong">
<path d="M 454.55 430.98 454.91 433.05 458.27 436.35 461.69 440.48 465.57 443.99 470.75 442.04 474.36 442.11 476.88 445.74 480.35 448.49 482.94 452.6 488.86 457.03 493.07 456.95 493.12 459.73 494.3 461.03 492.61 462.84 491.75 465.33 490.06 466.2 487.72 463.46 478.39 466.01 477.88 463.67 474.11 463.65 472.13 468.11 476.26 475.02 478.48 474.75 480.45 476.34 483.36 477.39 483.32 481.78 485.21 480.38 488.33 481.08 489.88 480.55 493.44 482.49 494.6 486.59 495.69 487.45 498.72 484.55 500.25 488.22 501.51 488.3 502.77 485.29 499.96 484.02 503.93 480.52 506.64 480.99 505.32 485.97 506.86 490.08 506.16 491.98 500.42 493.23 497.88 494.41 498.55 498.36 501.29 502.63 503.29 503.21 506.39 502.76 508.46 504.75 512.18 511.62 511.02 514.3 508.33 516.5 511.23 518.74 513.13 518.68 516.61 523.54 514.89 527.66 508.61 530.3 508.72 538.6 502.9 540.84 499.67 543.11 496.04 542 485.32 546.31 485.46 547.84 488.15 553.47 486.56 557.24 488.57 563.66 491.84 568.45 491.13 573.42 493.84 576.1 496.25 575.94 496.34 577.91 492.84 578.61 492.65 582.53 491.09 583.67 485.15 584.83 481.57 575.85 477.65 574.17 475.42 574.41 472.71 576.45 469.14 575.65 468.28 574.3 464 572.24 460.85 570.09 456.32 568.36 455.75 571.77 456.13 575.62 455 577.75 451.5 578.5 447.66 583.13 445.22 585.14 446.31 587.66 443.04 593.12 444.15 595.47 442.33 597.31 441.36 600.46 441.72 605.45 447.45 608.71 447.53 612.15 450.43 612.79 449.36 617.66 446.16 616.96 445.07 620.82 443.06 622.84 441.58 625.77 441.59 631 438.3 631 438.29 635.04 436.52 636.12 420.27 635.92 420.28 630.95 416.98 630.78 395.47 630.91 395.4 637.56 391.87 638.23 391.31 640.84 386.3 647.43 382.24 652.04 376.17 653.59 365.54 652.61 364.38 650.6 366.1 637.65 362.85 636.96 364.42 625.12 357.36 624.18 357.1 626.16 347.13 624.84 346.54 625.04 341.94 621.24 334.99 629.71 331.58 626.73 330.15 623.82 330.12 620.99 329.1 617.54 326.51 614.31 325.26 611.15 320.69 607.37 320.16 606.14 317.07 605.58 312.21 602.71 310.21 604.12 311.57 600.01 311.08 594.87 311.81 588.41 311.58 583.07 312.74 576.85 310.16 577.03 308.81 580.24 296.95 576.76 293.52 578.22 288.65 574.89 288.97 571.83 284.93 569.36 281.54 569.16 277.65 567.74 274.32 567.45 270.58 563.75 270.58 562.01 268.37 561.49 268.81 557.2 262.46 556.67 260.3 551.79 257.76 539.69 256.07 536.18 259.33 534.99 259.12 524.67 257.31 522.57 255.87 518.93 253.35 517.91 251.81 516.15 249.94 511.76 248.07 504.85 247.91 501.78 249.18 497.03 248.59 496.02 241.56 493.16 238.63 488.21 235.29 484.19 240.13 482.73 243.75 483.18 251.93 485.7 256.12 485.84 258.07 487.99 261.85 483.58 262.33 481.87 266.12 482.06 268.14 480.05 270.3 480.99 274.54 480.45 281.34 482.58 283.82 482.63 296.13 489.73 297.54 491.34 299.31 491.31 301.66 496.07 306.34 497.96 307.89 500.59 308.93 506.06 310.8 509.26 313.69 510.13 317.91 512.75 319.63 512.52 322.38 514.2 326.16 515.49 328.55 513.02 333.66 510.67 336.38 512.48 345.28 511.95 346.66 511.15 346.72 506.12 347.29 501.71 348.55 497.85 350.36 494.41 351.04 489.63 353.66 485.82 357.2 484.53 360.59 480.47 365.61 477.78 372.79 476.14 374.78 474.65 381.27 468.21 384.46 466.6 385.46 464.17 391.9 458.33 393.16 451.75 395.39 447.6 397.14 447.37 399.17 445.18 404.97 444.78 408.63 441.14 412.98 437.83 415.06 433.78 418.85 430.03 422.31 428.37 428.4 427.12 429.52 430.08 430.39 435.43 433.14 436.26 436.03 433.44 438.34 432.67 439.4 435.53 443.44 436.11 444.89 433.7 446.69 434.19 448 436.21 449.92 435.26 454.55 430.98 Z" id="36510110"/>
<path d="M 365.54 652.61 367.55 658.27 367.58 661.33 369.54 666.86 369.41 668.96 371.7 676.94 371.85 680.04 373.45 684.86 374.51 690.19 374.5 700.04 378.54 701.92 382.8 707.99 386.61 710 388.36 712.04 395.21 710.08 397.26 711.3 397.32 717.17 391.87 718.36 391.04 723.05 387.93 725.71 385.47 728.67 388.25 734.12 389.69 738.43 387.43 741.38 387 745.59 385.05 751.77 386.82 753.94 386.97 756.6 385.91 759.43 383.97 759.63 381.85 762.6 380.04 762.77 376.8 764.65 373.75 767.99 371.19 769.38 370.73 772.07 366.93 771.91 365.77 772.77 364.9 776.39 360.58 779.95 359.01 789.07 356.58 791.58 355.27 791.59 355.13 795.72 353.49 797.66 351.8 797.94 348.95 804.03 339.48 813.5 336.12 811.07 329.93 802.71 324.07 796.51 311.3 788.65 308.64 788.32 304.59 786.24 299.52 793.48 298.46 800.33 295.49 803.75 294.39 807.27 292.8 808.89 284.84 811.78 278.17 813.73 276.74 811.21 272.34 809.67 268.49 808.95 266.76 811.47 264.29 811.36 259.7 813.41 256.12 812.38 251.62 813.16 249.99 814.98 249.49 819.98 248.28 821.34 246.89 825.07 244.18 825.37 240.16 827.91 237.99 830.69 238.9 825.32 240.75 819.94 240.51 814.32 241.46 811.44 240.89 809.22 238.34 803.68 233.84 796.56 231.99 795.48 228.27 790.97 223.77 792.41 220.96 791.78 219.78 790.01 215.59 788.3 211.92 789.99 202.99 787 201.31 784.67 196.79 782.16 197.52 779.91 194.05 776.74 189.43 773.71 188.01 774.09 184.61 772.52 183.52 769.23 186.82 768.03 189.76 764.47 194.96 760.15 201.02 758.47 205.9 758.3 211.58 760.03 217.57 759.01 223.42 758.5 223.46 755.16 226.61 744.19 230.49 740 238.64 732.95 244.82 728.9 250.42 727.21 258.14 726.54 259.96 725.24 263.25 721.29 265.73 719.19 270.89 716.18 278.06 708.69 284.88 704.92 287.87 701.33 288.47 697.34 285.22 689.85 284.95 684.04 286.72 681.4 290.67 677.26 293.09 671.46 292.3 665.02 293.56 661.26 297.91 656.25 300.36 648.63 299.81 645.54 297.51 641.87 296.61 636.8 300.67 626.33 306.11 618.55 307.95 613.15 308.92 606.41 310.21 604.12 312.21 602.71 317.07 605.58 320.16 606.14 320.69 607.37 325.26 611.15 326.51 614.31 329.1 617.54 330.12 620.99 330.15 623.82 331.58 626.73 334.99 629.71 341.94 621.24 346.54 625.04 347.13 624.84 357.1 626.16 357.36 624.18 364.42 625.12 362.85 636.96 366.1 637.65 364.38 650.6 365.54 652.61 Z" id="36510310"/>
<path d="M 478.92 987.99 452.68 991.87 448.1 990.51 446.33 989.34 441.42 990.5 437.6 989.69 433.32 992.86 430.77 991.35 420.43 990.95 413.15 991.78 410.16 993.02 405.91 992.54 404.81 994.35 399.79 992.57 396.13 993.81 390.97 993.07 391.39 997.97 389.97 998.59 387.13 1004.62 382.54 1004.19 379.91 1007.32 376.48 1007.42 373.06 1009.53 371.11 1008.73 369.28 1010.39 364.57 1012.22 365.06 1013.93 363.38 1020.67 355.33 1025.68 343.74 1026.62 343.32 1027.76 343.78 1033.74 344.82 1035.14 341.47 1037.92 340.01 1042.02 335.27 1039.25 333.81 1036.36 333.25 1033.08 331.61 1030.73 328.41 1028.62 326.63 1025.69 323.59 1023.9 319.34 1019.05 318.32 1016.15 318.76 1012.24 316.81 1010.36 319.48 1003.6 323.95 1002.22 325.87 999.39 325.98 996.6 328.84 991.06 331.25 990.9 333.33 988.68 332.45 986.73 334.37 983.09 338.14 982.05 339.73 980.15 339.2 976.7 337.49 971.65 336.33 970.45 334.02 971.45 330.13 971.38 323.93 967.7 321.23 965.27 316.71 959.93 309.89 957.51 310.2 953.97 309.04 951.52 306.15 949.47 305.8 947.23 302.97 944.97 302.71 939.76 299.43 938.49 296.84 933.79 297.08 931.1 295.81 929.51 292.89 928.62 290.07 920.72 289.13 916.75 287.17 913.64 287.34 906.91 289.86 901.85 294.68 895.73 298.65 894.18 302.15 890.85 301.52 889.5 297.54 892.88 296.08 893.31 292.95 887.2 289.37 882.86 287.86 877.73 283.17 870.5 279.32 869.96 274.76 869.96 270.94 866.93 270.57 861.75 269.32 859.01 268.75 853.08 267.16 850.61 264.37 851.02 259.16 846.88 253.71 843.47 251.03 843.13 249.14 840.74 244.86 839.96 243.02 836.62 240.59 836.69 236.94 834.03 237.99 830.69 240.16 827.91 244.18 825.37 246.89 825.07 248.28 821.34 249.49 819.98 249.99 814.98 251.62 813.16 256.12 812.38 259.7 813.41 264.29 811.36 266.76 811.47 268.49 808.95 272.34 809.67 276.74 811.21 278.17 813.73 284.84 811.78 292.8 808.89 294.39 807.27 295.49 803.75 298.46 800.33 299.52 793.48 304.59 786.24 308.64 788.32 311.3 788.65 324.07 796.51 329.93 802.71 336.12 811.07 338.64 813.52 342.88 819.71 350.51 824.18 354.84 825.55 361.15 825 366.01 827.17 372.55 828.27 381.67 835.46 383.14 838.76 386.6 843.08 390.09 846.16 394.39 850.73 396.57 850.91 403.03 849.46 404.14 849.71 407.38 852.9 411.03 858.6 415.28 860.43 420.49 861.15 429.04 857.52 432.91 857.61 435.21 860.51 436.78 863.61 437.7 867.66 441.76 871.44 440.93 879.68 441.4 883.12 439.12 888.12 443.98 900.94 444.45 904.9 441.83 912.72 443.64 917.04 447.46 919.55 450.41 925.33 455.74 929.74 458.92 930.66 461.11 934.32 463.33 934.26 465.25 937.14 466.96 938.26 469 942.66 470.74 943.69 474.53 950.92 474.73 954.4 476.58 955.13 478.39 959.32 480.84 960.61 481.86 963.32 486.01 966.26 488.99 967.4 486.88 973.1 482.95 978.81 481.02 983.87 478.92 987.99 Z" id="36510320"/>
<path d="M 505 709.13 500.88 712.92 496.39 713.68 495.01 715.47 492.02 716.67 489.33 716.65 485.83 718.22 480.39 717.54 478.07 719.32 469.45 720.07 466.93 721.45 462 727.11 458.66 728.08 456.22 730.04 452.7 731.37 444.11 731.71 443.4 733.59 440.44 734.61 437.35 736.7 435.44 735.91 432.34 740.95 429.68 742.25 425.62 746.75 423.56 746.56 422.33 748.69 419.57 749.39 416.17 749.31 419.46 761.74 419.08 764.68 421.3 768.42 420.58 774.69 422.75 779.57 426.09 779.51 428.42 777.89 432.45 776.74 436.15 776.68 439.26 778.48 445.95 787.14 445.8 788.62 448.86 792.64 451.86 792.76 454.88 794.4 457.28 794.84 457.17 799.23 458.43 800 461.71 808.38 463.34 810.69 465.69 810.94 466.84 815.84 465.74 817.99 465.69 820.72 464.62 822.49 461.32 824.87 466.5 829.35 471.52 829.03 474.45 825.58 479.06 827.62 480.54 825.35 486.83 822.45 490.66 820.05 495.36 813.39 497.51 805.39 501.88 802.86 503.87 803.73 507.92 809.27 514.12 821.87 516.21 821.81 522.91 822.97 526.18 821.56 530.5 821.61 532.34 820.4 535.65 820.33 539.72 818.84 543.04 818.9 541.46 829.33 542.54 830.9 552.29 831.8 555.03 833.22 556.79 832.41 559.54 834.46 564.95 831.85 569.13 831.97 569.9 835.76 577.52 841.65 579.57 843.94 581.1 848.16 584.07 848.41 585.36 854.2 586.52 855.76 585.27 861.89 582.94 863.95 583.77 868.38 585.59 869.81 583.05 871.38 581.51 873.86 580.02 873.8 579.81 877.62 581.16 880.74 580.35 884.85 580.01 890.46 582.41 895.6 580.3 902.87 581.67 905.6 580.58 910.03 580.28 913.58 579.32 914.46 579.99 917.64 583.92 923.52 584.23 931.32 584.88 937.85 584.46 939.56 587.86 942.47 587.59 945.06 588.94 948.67 589.07 951.38 587.49 958.25 589.08 963.02 589.28 965.63 585.81 971.78 586.42 977.4 584.37 979.63 583.95 984.63 582.03 991.59 582.12 997.84 583.82 998.91 585.81 1003.02 585.98 1005.14 584.34 1008.64 583.17 1009.44 581.68 1016.9 583.83 1021.85 585.09 1022.9 588.21 1029.53 586.7 1033.28 590.57 1040.02 586.5 1043.21 582.91 1046.95 580.39 1052.76 580.47 1054.27 570.74 1061.97 565.64 1062.35 563.28 1056.4 560.17 1052.87 557.34 1051.25 554.8 1051.01 551.42 1049.69 552.02 1046.1 546.78 1041.2 545.91 1033.19 548.69 1028.41 548.43 1023.88 544.41 1019.13 545.26 1014.57 541.78 1012.01 539.68 1009.65 534.54 1009.18 530.98 1007.8 528.93 1005.94 528.01 1003.5 523.17 1002.61 519.02 998.5 512.1 1001.41 505.29 1009.36 503.58 1010.62 502.59 1013.34 498.89 1010.24 496.39 1006.82 496.59 1005.27 492.95 997.9 487.95 998.94 478.92 987.99 481.02 983.87 482.95 978.81 486.88 973.1 488.99 967.4 486.01 966.26 481.86 963.32 480.84 960.61 478.39 959.32 476.58 955.13 474.73 954.4 474.53 950.92 470.74 943.69 469 942.66 466.96 938.26 465.25 937.14 463.33 934.26 461.11 934.32 458.92 930.66 455.74 929.74 450.41 925.33 447.46 919.55 443.64 917.04 441.83 912.72 444.45 904.9 443.98 900.94 439.12 888.12 441.4 883.12 440.93 879.68 441.76 871.44 437.7 867.66 436.78 863.61 435.21 860.51 432.91 857.61 429.04 857.52 420.49 861.15 415.28 860.43 411.03 858.6 407.38 852.9 404.14 849.71 403.03 849.46 396.57 850.91 394.39 850.73 390.09 846.16 386.6 843.08 383.14 838.76 381.67 835.46 372.55 828.27 366.01 827.17 361.15 825 354.84 825.55 350.51 824.18 342.88 819.71 338.64 813.52 336.12 811.07 339.48 813.5 348.95 804.03 351.8 797.94 353.49 797.66 355.13 795.72 355.27 791.59 356.58 791.58 359.01 789.07 360.58 779.95 364.9 776.39 365.77 772.77 366.93 771.91 370.73 772.07 371.19 769.38 373.75 767.99 376.8 764.65 380.04 762.77 381.85 762.6 383.97 759.63 385.91 759.43 386.97 756.6 386.82 753.94 385.05 751.77 387 745.59 387.43 741.38 389.69 738.43 388.25 734.12 385.47 728.67 387.93 725.71 391.04 723.05 391.87 718.36 397.32 717.17 397.26 711.3 399.99 708.94 403.19 707.13 406.93 706.45 407.57 705.13 410.55 703.94 414.07 698.46 417.83 699.32 421.06 699.39 424.04 696.34 427.62 695.8 428.92 694 432.27 693.16 440.13 686.81 440.89 689.32 444.5 692.38 446.19 689.4 447.66 691.88 451.11 690.8 454.81 688.89 458.09 686.31 462.74 686.06 465.36 682.22 467.52 680.28 474.41 681.85 483.69 682.12 485.31 681.15 488.64 681.84 489.42 683.43 491.74 684.6 493.48 686.92 495.77 688.04 498.68 693.91 499.12 696.51 502.65 701.85 503.12 705.51 505 709.13 Z" id="36510340"/>
<path d="M 687.55 808.12 693.57 811.57 699.02 817.03 702.38 821.52 703.05 823.88 706.54 827.22 706.75 828.74 705.27 831.9 706.76 834.54 707.84 838.55 706.2 844.29 712.36 854.02 711.3 857.09 714.91 858.17 718.94 860.26 721.55 864.13 724.56 866.34 724.93 869.07 723.63 871.86 723.57 874.27 724.61 878.27 724.69 886 723.81 892.96 726.64 895.67 728.37 898.22 729.41 903.15 735.13 905.89 737.09 908.57 737.21 911.12 736.05 917.85 738.99 922.03 739.58 924.97 741.62 930.12 743.86 932.79 746.85 939.82 750.33 942.21 753.07 944.82 753.56 946.29 756.25 948.14 755.82 953.08 754.83 955.4 754.37 959.32 754.9 962.37 757.17 964.51 759.5 965.29 763.97 968.75 764.1 971.63 762.95 974.26 761.15 976.09 761.63 985.46 761.32 986.74 764.43 990.51 768.38 991.41 772.27 994.72 776.68 991.41 778.37 991.25 782.71 995.31 785.41 998.79 788.02 1000.38 799 1002.5 795.33 1004.25 793.65 1006.23 794.71 1010.45 792.95 1013.01 789.83 1013.44 784.21 1015.62 781.65 1014.83 772.92 1016.63 769.48 1015.79 766.07 1016.01 760.81 1018.01 757.53 1018.36 745.93 1024 743.4 1024.72 740.36 1027.24 736.24 1028.2 733.25 1031.27 730 1036.48 726.79 1040.52 723.44 1048.24 717.61 1047.11 714.97 1052 709.95 1051.02 707.07 1052.96 701.35 1055.85 697.67 1053.52 695.84 1054.98 693.33 1055.18 690.44 1056.94 687.08 1057.57 685.06 1055.73 679.62 1053.21 677.08 1051.15 673.9 1050.25 668.09 1051.46 665.66 1050.25 661.74 1049.44 655.45 1045.47 653.96 1040.34 652.73 1039.49 649.93 1040.4 643.08 1041.37 640.84 1042.54 638.87 1037.23 635.9 1033.55 631.27 1032.99 631.49 1028.59 630.03 1023.98 621.83 1025.1 619.43 1026.07 614.62 1026.66 611.47 1024.07 607.61 1023.03 604.02 1024.22 602.92 1026.01 597.39 1029.26 590.03 1029.16 588.21 1029.53 585.09 1022.9 583.83 1021.85 581.68 1016.9 583.17 1009.44 584.34 1008.64 585.98 1005.14 585.81 1003.02 583.82 998.91 582.12 997.84 582.03 991.59 583.95 984.63 584.37 979.63 586.42 977.4 585.81 971.78 589.28 965.63 589.08 963.02 587.49 958.25 589.07 951.38 588.94 948.67 587.59 945.06 587.86 942.47 584.46 939.56 584.88 937.85 584.23 931.32 583.92 923.52 579.99 917.64 579.32 914.46 580.28 913.58 580.58 910.03 581.67 905.6 580.3 902.87 582.41 895.6 580.01 890.46 580.35 884.85 581.16 880.74 579.81 877.62 580.02 873.8 581.51 873.86 583.05 871.38 585.59 869.81 583.77 868.38 582.94 863.95 585.27 861.89 586.52 855.76 585.36 854.2 584.07 848.41 581.1 848.16 579.57 843.94 577.52 841.65 569.9 835.76 569.13 831.97 564.95 831.85 559.54 834.46 556.79 832.41 555.03 833.22 552.29 831.8 542.54 830.9 541.46 829.33 543.04 818.9 539.72 818.84 535.65 820.33 532.34 820.4 530.5 821.61 526.18 821.56 522.91 822.97 516.21 821.81 514.12 821.87 507.92 809.27 503.87 803.73 501.88 802.86 497.51 805.39 495.36 813.39 490.66 820.05 486.83 822.45 480.54 825.35 479.06 827.62 474.45 825.58 471.52 829.03 466.5 829.35 461.32 824.87 464.62 822.49 465.69 820.72 465.74 817.99 466.84 815.84 465.69 810.94 463.34 810.69 461.71 808.38 458.43 800 457.17 799.23 457.28 794.84 454.88 794.4 451.86 792.76 448.86 792.64 445.8 788.62 445.95 787.14 439.26 778.48 436.15 776.68 432.45 776.74 428.42 777.89 426.09 779.51 422.75 779.57 420.58 774.69 421.3 768.42 419.08 764.68 419.46 761.74 416.17 749.31 419.57 749.39 422.33 748.69 423.56 746.56 425.62 746.75 429.68 742.25 432.34 740.95 435.44 735.91 437.35 736.7 440.44 734.61 443.4 733.59 444.11 731.71 452.7 731.37 456.22 730.04 458.66 728.08 462 727.11 466.93 721.45 469.45 720.07 478.07 719.32 480.39 717.54 485.83 718.22 489.33 716.65 492.02 716.67 495.01 715.47 496.39 713.68 500.88 712.92 505 709.13 508.77 710.62 511.79 710.59 515.12 711.51 519.53 708.73 522.13 705.47 523.79 702.25 525.76 701.6 526.93 698.83 532.01 698.71 534.67 696.85 536.91 696.96 540.05 695.8 545.34 696.14 546.88 698 552.04 698.61 554.46 698.3 557.11 700.07 560.05 703.06 569.83 709.8 573.74 710.06 577.89 712.69 579.03 715.09 582.27 718.58 585.83 719.79 591.46 720.8 593.65 719.62 596.3 721.14 602.61 722.88 608.66 718.47 610.81 715.6 614.91 716.15 617.71 713.85 621.23 717.12 624.7 719.34 626.78 718.2 628.56 720.08 631.88 719.69 634.6 721.71 638.59 725.95 642.5 727.18 643.78 726.12 645.96 728.68 646.81 731.57 648.88 732.8 651.74 732.35 655.88 734.88 655.56 737.23 656.69 739.27 655.22 744.49 652.26 746.12 653.68 747.59 652.7 750.54 653.62 753.79 652.73 758.89 653.86 761.48 651.3 768.38 652.36 771.92 654.54 785.62 657.54 786.83 661.24 785.16 662.56 785.8 666.61 785.79 674.55 782.13 678.18 782.96 679.85 782.32 681.89 788.31 681.44 798.08 684.31 800.02 687.55 808.12 Z" id="36510350"/>
<path d="M 485.15 584.83 485.17 587.1 486.62 590.58 491.94 594.91 494.15 594.16 497.46 594.57 501.35 598.86 502.89 606 510.04 603.14 513.26 604.03 515.99 602.67 524.43 604.35 526.88 607.53 532.07 608.17 531.76 606.91 535.81 603.7 538.85 602.35 543.52 604.04 547.03 603.55 551.54 604.51 553.63 605.53 556.68 605.46 560.49 607.42 565.85 607.91 571.19 606.61 574.89 610.05 575.79 612.6 581.98 612.14 589.72 609.52 593.48 607.02 604.49 604.13 606.67 601.57 608.13 596.72 611.87 591.87 619.62 592.7 620.13 590.12 621.69 588.13 625.21 585.75 625.3 581.11 631.5 582.33 637.96 585.72 641.37 585.88 640.39 579.08 640.94 575.2 643.94 570.54 647.53 573 650.27 572.92 655.12 570.15 659 569.25 661.84 571 665.77 572.35 669.12 575.16 674.39 575.79 676.25 574.88 681.34 575.69 683.97 577.26 687.25 578.05 690.95 582.2 691.62 584.57 696.42 585.33 697.75 586.44 704.18 586.65 707.81 589.61 711.7 590.38 713.61 593.91 717.41 597.86 722.57 600.86 725.45 600.39 726.49 603.12 730.31 603.8 730.06 605.19 734.34 608.36 733.07 608.79 731.24 614.11 728.45 617.76 729.65 620.96 729.36 625.57 731.22 630.12 732.68 632.28 731.27 636.73 728.4 643.33 724.6 645.13 718.73 651.96 718.08 655.55 722.15 655.06 722.29 658.22 720.13 662.61 720.32 667.31 717.15 673.04 717.64 681.88 718.88 687.91 720.24 688.81 718.83 696.95 719.94 698.91 723.78 702.14 724.79 705.88 724.58 711.03 727.57 712.75 728.91 717.24 732.8 722.18 737.92 723.91 741.48 726 743.14 729.38 742.17 736.3 738.03 738.53 739.69 741.56 738.37 743.99 738.44 746.13 739.87 752.41 737.29 753.47 730.96 760.49 728.14 765.61 724.4 767.98 721.45 768.52 718.56 771.83 719.51 776.56 718.88 779.64 715.49 780.06 713.25 784.27 709.67 786.09 707.65 789.23 703.12 794.58 698.66 796.9 696.05 799.05 690.82 805.14 688.72 805.97 687.55 808.12 684.31 800.02 681.44 798.08 681.89 788.31 679.85 782.32 678.18 782.96 674.55 782.13 666.61 785.79 662.56 785.8 661.24 785.16 657.54 786.83 654.54 785.62 652.36 771.92 651.3 768.38 653.86 761.48 652.73 758.89 653.62 753.79 652.7 750.54 653.68 747.59 652.26 746.12 655.22 744.49 656.69 739.27 655.56 737.23 655.88 734.88 651.74 732.35 648.88 732.8 646.81 731.57 645.96 728.68 643.78 726.12 642.5 727.18 638.59 725.95 634.6 721.71 631.88 719.69 628.56 720.08 626.78 718.2 624.7 719.34 621.23 717.12 617.71 713.85 614.91 716.15 610.81 715.6 608.66 718.47 602.61 722.88 596.3 721.14 593.65 719.62 591.46 720.8 585.83 719.79 582.27 718.58 579.03 715.09 577.89 712.69 573.74 710.06 569.83 709.8 560.05 703.06 557.11 700.07 554.46 698.3 552.04 698.61 546.88 698 545.34 696.14 540.05 695.8 536.91 696.96 534.67 696.85 532.01 698.71 526.93 698.83 525.76 701.6 523.79 702.25 522.13 705.47 519.53 708.73 515.12 711.51 511.79 710.59 508.77 710.62 505 709.13 503.12 705.51 502.65 701.85 499.12 696.51 498.68 693.91 495.77 688.04 493.48 686.92 491.74 684.6 489.42 683.43 488.64 681.84 485.31 681.15 483.69 682.12 474.41 681.85 467.52 680.28 465.36 682.22 462.74 686.06 458.09 686.31 454.81 688.89 451.11 690.8 447.66 691.88 446.19 689.4 444.5 692.38 440.89 689.32 440.13 686.81 432.27 693.16 428.92 694 427.62 695.8 424.04 696.34 421.06 699.39 417.83 699.32 414.07 698.46 410.55 703.94 407.57 705.13 406.93 706.45 403.19 707.13 399.99 708.94 397.26 711.3 395.21 710.08 388.36 712.04 386.61 710 382.8 707.99 378.54 701.92 374.5 700.04 374.51 690.19 373.45 684.86 371.85 680.04 371.7 676.94 369.41 668.96 369.54 666.86 367.58 661.33 367.55 658.27 365.54 652.61 376.17 653.59 382.24 652.04 386.3 647.43 391.31 640.84 391.87 638.23 395.4 637.56 395.47 630.91 416.98 630.78 420.28 630.95 420.27 635.92 436.52 636.12 438.29 635.04 438.3 631 441.59 631 441.58 625.77 443.06 622.84 445.07 620.82 446.16 616.96 449.36 617.66 450.43 612.79 447.53 612.15 447.45 608.71 441.72 605.45 441.36 600.46 442.33 597.31 444.15 595.47 443.04 593.12 446.31 587.66 445.22 585.14 447.66 583.13 451.5 578.5 455 577.75 456.13 575.62 455.75 571.77 456.32 568.36 460.85 570.09 464 572.24 468.28 574.3 469.14 575.65 472.71 576.45 475.42 574.41 477.65 574.17 481.57 575.85 485.15 584.83 Z" id="36510360"/>
<path d="M 454.55 430.98 456.18 427.84 455.68 425.6 456.9 422.25 456.42 417.84 459.47 416.08 460.74 413 458.36 409.31 458.57 406.39 456.77 404.03 458.63 401.61 459.69 396.89 459.94 392.44 461.63 391.78 465.8 388.5 463.16 384.26 461.75 384.66 455.44 382.35 453.24 382.1 455.87 377.9 457.53 369.52 459.61 365.64 460.93 361.74 461.16 351.24 460.36 350.53 460.65 345.49 462.91 344.79 468.13 345.2 471.2 344.1 473.98 344.39 478.1 342.43 479.16 337.27 478.6 334.59 481.27 331.46 484.65 330.49 487.21 326.97 491.74 325.53 497.21 327.98 498.4 329.43 503.2 333.21 505.77 333.96 507.91 336.57 510.94 337.19 513.44 336.42 514.62 334.85 521 330.73 525.39 326.61 529.46 320.37 534.64 324.7 539.41 324.51 546.88 326.46 547.79 327.78 552.64 328.43 554.62 322.05 559.89 319.53 564.79 321.59 569.16 322.66 573.89 326.48 578.39 327.79 581.57 329.49 584.73 330.39 589.37 329.73 594.48 327.32 597.63 322.7 599.14 321.71 599.88 319.14 602.31 316.99 604.16 313.03 608.07 309.49 610.02 305.83 610.51 303.3 614.04 306.05 615.98 309.7 616.9 314.61 619.95 316.01 621.4 318.64 624.61 322.67 626.71 324.29 628.68 328.17 628.96 330.99 630.95 332.75 632.87 332.76 636.13 334.77 638.08 334.94 635.54 344.11 634.48 352.9 633.6 353.68 633.9 357.29 636.47 358.65 638.99 361.55 643.95 363.58 649.27 370.62 649.97 371.45 655.1 373.44 652.79 379.95 650.7 384.49 647.7 387.8 648 392.65 646.49 393.63 644.81 398.79 638.95 402.04 639.47 403.44 638.84 408.88 642.63 412.25 646.75 413.28 648.75 415.89 653 425.49 648.46 430.11 651.7 435.7 649.67 440.37 647.65 441.16 646.61 444.9 644.77 446.76 647.18 449.67 647.38 454.24 649.42 455.72 651.39 459.09 653.95 461.57 654.72 464.94 652.91 469.98 650.54 471.48 646.59 472.31 646.06 473.71 640.15 476.99 638.48 480.37 633.82 480.41 630.31 481.4 625.75 477.93 618.21 476.89 617.36 473.51 615.59 471.98 612.48 467.5 608.76 463.67 599.94 466.62 598.81 472.77 600.27 476.04 600.39 482.65 594.44 486.78 594.14 491.94 597.3 497.74 595.05 498.62 595.77 506.8 593.56 509.25 591.26 509.99 590.41 514.51 588 515.74 584.46 520.63 580.87 521.13 579.82 524.31 577.38 525.25 573.66 531.15 572.05 534.43 574.85 537.13 575.41 538.63 578.79 541.35 581.47 546.55 584.43 548.11 590.93 548.01 591.79 550.95 595.45 552.1 595.68 553.48 598.63 554.08 602.7 551.74 604.17 549.42 607.75 549.11 610.89 551.37 614.71 549.38 615.65 551.63 618.84 553.86 622.37 551.64 625.74 551.29 628.55 551.94 630.56 553.57 631.73 556.9 633.89 559.77 637.26 565.52 642.58 566.47 643.94 570.54 640.94 575.2 640.39 579.08 641.37 585.88 637.96 585.72 631.5 582.33 625.3 581.11 625.21 585.75 621.69 588.13 620.13 590.12 619.62 592.7 611.87 591.87 608.13 596.72 606.67 601.57 604.49 604.13 593.48 607.02 589.72 609.52 581.98 612.14 575.79 612.6 574.89 610.05 571.19 606.61 565.85 607.91 560.49 607.42 556.68 605.46 553.63 605.53 551.54 604.51 547.03 603.55 543.52 604.04 538.85 602.35 535.81 603.7 531.76 606.91 532.07 608.17 526.88 607.53 524.43 604.35 515.99 602.67 513.26 604.03 510.04 603.14 502.89 606 501.35 598.86 497.46 594.57 494.15 594.16 491.94 594.91 486.62 590.58 485.17 587.1 485.15 584.83 491.09 583.67 492.65 582.53 492.84 578.61 496.34 577.91 496.25 575.94 493.84 576.1 491.13 573.42 491.84 568.45 488.57 563.66 486.56 557.24 488.15 553.47 485.46 547.84 485.32 546.31 496.04 542 499.67 543.11 502.9 540.84 508.72 538.6 508.61 530.3 514.89 527.66 516.61 523.54 513.13 518.68 511.23 518.74 508.33 516.5 511.02 514.3 512.18 511.62 508.46 504.75 506.39 502.76 503.29 503.21 501.29 502.63 498.55 498.36 497.88 494.41 500.42 493.23 506.16 491.98 506.86 490.08 505.32 485.97 506.64 480.99 503.93 480.52 499.96 484.02 502.77 485.29 501.51 488.3 500.25 488.22 498.72 484.55 495.69 487.45 494.6 486.59 493.44 482.49 489.88 480.55 488.33 481.08 485.21 480.38 483.32 481.78 483.36 477.39 480.45 476.34 478.48 474.75 476.26 475.02 472.13 468.11 474.11 463.65 477.88 463.67 478.39 466.01 487.72 463.46 490.06 466.2 491.75 465.33 492.61 462.84 494.3 461.03 493.12 459.73 493.07 456.95 488.86 457.03 482.94 452.6 480.35 448.49 476.88 445.74 474.36 442.11 470.75 442.04 465.57 443.99 461.69 440.48 458.27 436.35 454.91 433.05 454.55 430.98 Z" id="36510370"/>
<path d="M 580.43 224.3 584.54 229 583.51 238.18 578.09 241.82 574.42 245.16 572.57 248.72 567.75 251 566.12 250.77 564.25 247.61 562.43 247.32 554.45 249.15 550.27 247.44 546.3 247.94 543.96 247.53 541.13 244.44 532.84 247.94 523.38 246.83 523.29 248.93 526.65 254 525.02 259.34 524.74 265.92 532.67 273.81 532.47 276.48 533.8 282.85 539.82 285.24 542.16 284.24 544.23 285.27 547.04 284.72 546.57 291.17 548.92 296.1 550.68 297.88 557.06 300.78 561.22 305.25 563.06 311.61 562.44 314.86 559 317.87 559.89 319.53 554.62 322.05 552.64 328.43 547.79 327.78 546.88 326.46 539.41 324.51 534.64 324.7 529.46 320.37 525.39 326.61 521 330.73 514.62 334.85 513.44 336.42 510.94 337.19 507.91 336.57 505.77 333.96 503.2 333.21 498.4 329.43 497.21 327.98 491.74 325.53 487.21 326.97 484.65 330.49 481.27 331.46 478.6 334.59 479.16 337.27 478.1 342.43 473.98 344.39 471.2 344.1 468.13 345.2 462.91 344.79 460.65 345.49 460.36 350.53 461.16 351.24 460.93 361.74 459.61 365.64 457.53 369.52 455.87 377.9 453.24 382.1 455.44 382.35 461.75 384.66 463.16 384.26 465.8 388.5 461.63 391.78 459.94 392.44 459.69 396.89 458.63 401.61 456.77 404.03 458.57 406.39 458.36 409.31 460.74 413 459.47 416.08 456.42 417.84 456.9 422.25 455.68 425.6 456.18 427.84 454.55 430.98 449.92 435.26 448 436.21 446.69 434.19 444.89 433.7 443.44 436.11 439.4 435.53 438.34 432.67 436.03 433.44 433.14 436.26 430.39 435.43 429.52 430.08 428.4 427.12 422.31 428.37 418.85 430.03 415.06 433.78 412.98 437.83 408.63 441.14 404.97 444.78 399.17 445.18 397.14 447.37 395.39 447.6 393.16 451.75 392.1 453.42 383.64 453.39 381.59 452.58 381.07 449.49 378.72 452.26 375.54 449.71 373.65 449.07 369.14 445.62 370.49 442.06 371.35 435.3 369.91 431.79 369.99 427.71 367.5 421.12 365.29 417.58 362.08 415.49 362.04 413.54 364.83 411.25 365.69 404.71 364.34 400.83 364.99 396.83 363.98 392.19 366.82 391.73 368.5 389.76 366.1 384.48 364.98 380.66 362.56 376.38 363.27 368.85 361.32 361.34 361.11 358.11 358.64 353.8 357.74 349.86 355.61 347 355.6 343.5 352.04 340.3 351.85 338.88 348.1 337.25 344.08 337.23 342.54 333.24 343.5 329.48 341.68 324.66 339.58 322.75 339.43 321.27 336.62 317.91 331.71 315.7 329.03 313.53 328.97 310.85 324.23 306.8 320 305.54 315.85 302.56 313.4 301.64 311.74 298.76 312.01 296.96 316.63 293.09 317.2 290.62 316.41 287.8 318.81 279.76 318.38 276.98 320.19 273.85 320.77 269.53 324.24 267.03 325.52 264.47 330.39 264.9 334.89 263.08 339.84 260.21 344.15 260.06 346.4 258.9 348.26 256.16 351.72 257.45 354.68 252.62 362.76 246.56 367.62 247.02 369.65 246.13 370.76 243.56 369.98 236.69 370.97 234.62 369.89 224.79 368.86 223.57 369.28 219.48 366.4 213.55 362.83 204.64 357.86 198.19 355.66 192.3 355.57 186.35 354.7 181.87 353.16 178.82 353.46 175.91 352.12 173.28 352.38 169.59 351.83 161.3 352.95 155.84 354.34 151.9 355.42 144.22 360.8 143.76 364.43 143.92 372.14 142.5 373.46 143.48 376.05 143.09 377.98 145.3 380.47 146.81 386.34 148.01 386.9 142.07 390.36 135.78 393.36 134.73 396.76 135.43 395.59 130.92 392.49 126.56 391.61 121.8 393.96 116.89 395.11 115.98 397.46 110.8 402.53 110.1 404.49 107.29 408.91 104.9 410.29 102.09 412.64 101.49 416.11 102.13 419.05 100.28 425.34 99.47 426.87 94.04 425.81 89.44 426.69 85.26 431.28 82.03 435.73 76.23 436.59 71.84 436.31 68.64 437.79 63.8 437.56 62.21 439.12 59.01 440.38 58.14 441.95 54.52 443.49 47.24 442.03 45.67 439.64 40.71 435.85 34.92 438.57 27.67 440.21 20.28 440.23 17.09 441.86 14.37 446.53 10.68 450.94 8.51 456.02 10.92 462.06 16.34 471.58 18.76 478.67 24.53 481.28 29.96 484.93 33.02 488.22 28.58 494.11 28.33 497 25.8 499.82 21.53 503.65 18.83 509.42 15.46 512.65 10.32 514.03 9.35 521.15 7.14 524.72 11.28 528 9.47 531.71 8.49 535.71 4.74 545.48 1 547.68 3.98 547.63 8.07 549.71 16.45 550.87 17.44 552 25.66 550.13 28.51 547.18 36.04 547.28 41.27 548.49 45.67 549.73 52.36 548.79 53.91 548.15 58.05 547.41 70.53 550.69 73.88 552.89 79.25 552.93 81.75 551.68 86.05 553.81 91.14 555.14 98.22 554.58 102.8 555.46 105.32 557.28 107.15 556.23 111.97 556.42 117.63 554.55 121.4 557.75 125.47 563.09 129.02 566.97 126.12 568.32 126.04 571.62 123.15 576.45 122.53 579.14 128.62 580.49 130.63 589.79 131.61 596.5 145.28 599.72 148.45 598.19 151.72 593.82 158.64 591.92 162.32 592.07 168.21 591.05 174.18 587.35 177.86 586.48 188.82 580.91 212.43 579.63 217.08 578.1 219.64 580.43 224.3 Z" id="36510380"/>
<path d="M 325.52 264.47 324.24 267.03 320.77 269.53 320.19 273.85 318.38 276.98 318.81 279.76 316.41 287.8 317.2 290.62 316.63 293.09 312.01 296.96 311.74 298.76 313.4 301.64 315.85 302.56 320 305.54 324.23 306.8 328.97 310.85 329.03 313.53 331.71 315.7 336.62 317.91 339.43 321.27 339.58 322.75 341.68 324.66 343.5 329.48 342.54 333.24 344.08 337.23 348.1 337.25 351.85 338.88 352.04 340.3 355.6 343.5 355.61 347 357.74 349.86 358.64 353.8 361.11 358.11 361.32 361.34 363.27 368.85 362.56 376.38 364.98 380.66 366.1 384.48 368.5 389.76 366.82 391.73 363.98 392.19 364.99 396.83 364.34 400.83 365.69 404.71 364.83 411.25 362.04 413.54 362.08 415.49 365.29 417.58 367.5 421.12 369.99 427.71 369.91 431.79 371.35 435.3 370.49 442.06 369.14 445.62 373.65 449.07 375.54 449.71 378.72 452.26 381.07 449.49 381.59 452.58 383.64 453.39 392.1 453.42 393.16 451.75 391.9 458.33 385.46 464.17 384.46 466.6 381.27 468.21 374.78 474.65 372.79 476.14 365.61 477.78 360.59 480.47 357.2 484.53 353.66 485.82 351.04 489.63 350.36 494.41 348.55 497.85 347.29 501.71 346.72 506.12 346.66 511.15 345.28 511.95 336.38 512.48 333.66 510.67 328.55 513.02 326.16 515.49 322.38 514.2 319.63 512.52 317.91 512.75 313.69 510.13 310.8 509.26 308.93 506.06 307.89 500.59 306.34 497.96 301.66 496.07 299.31 491.31 297.54 491.34 296.13 489.73 283.82 482.63 281.34 482.58 274.54 480.45 270.3 480.99 268.14 480.05 266.12 482.06 262.33 481.87 261.85 483.58 258.07 487.99 256.12 485.84 251.93 485.7 243.75 483.18 240.13 482.73 235.29 484.19 228.89 486.97 222.99 485.82 216.66 488.52 212.69 494.21 212.26 504.1 209.22 504.54 207.12 506.86 204.3 507.23 201.11 509.51 196.89 507.73 192.01 504.78 189.62 502.55 184.73 503.5 181.89 502.84 177.7 499.59 175.54 499.8 170.6 497.75 164.38 498.3 162.03 497.98 153.75 494.41 151.39 491.52 148.98 492.7 147.85 494.47 144.11 496.98 140.92 500.65 138.64 501.47 134.94 504.69 134.04 508.2 132.75 509.93 129.76 510.45 128.45 511.64 124.41 512.11 120.27 511.66 114.05 514.1 108.63 518.28 103.98 517.71 102.58 518.97 99.43 512.18 96.4 507.86 95.66 503.6 93.49 501.39 89.01 492.21 86.04 488.84 83.18 484.68 82.31 482.07 82.33 478.36 78.31 475.14 77.07 473.17 76.99 467.92 73.45 465.03 67.69 461.89 66.5 458.58 68.74 454.82 68.76 448.82 71.42 446.55 71.37 443.19 73.55 441.54 74.55 439.05 75.83 431.75 76.18 421.87 80.93 424.61 82.5 426.98 88.28 427.18 90.22 420.3 88.91 416.03 88.83 411.71 91.33 406.83 90.85 403.74 88.65 400.12 91.18 397.15 93.85 389.69 91.92 385.81 94.86 383.62 96.2 380.63 98.76 379.04 98.6 377.15 100.44 374.94 104.87 375 108.87 376.63 110.33 375.82 114.18 375.88 120.64 372.65 126.51 371.18 125.95 366.86 127.74 362.56 130.72 359.53 132.53 355.91 133.45 352.47 134.93 349.81 137.6 349.99 141.61 347.61 145.7 346.5 148.93 344.56 147.41 338.96 148.43 328.07 153.38 327.98 154.91 325.66 160.3 321.45 161.66 319.3 163.32 319.2 165.34 316.98 169.06 314.55 172.7 314.02 175.9 314.25 178.27 311.63 180.53 311.02 181.58 308.03 183.19 306.22 182.41 303.93 182.66 300.44 184.02 296.55 185.34 294.68 188.48 297.82 189.24 299.72 191.58 300.58 196.9 303.94 200.12 307.92 201.94 308.81 204.02 311.73 204.57 317.39 209.3 321.01 211.9 322.1 213.91 317.56 213.24 308.46 215.63 304.94 219.28 302.51 219.2 298.9 217.17 298.17 215.67 295.55 215.29 288.93 213.07 282.98 213.44 274.97 212.68 271.99 214.56 269.1 214.66 267.5 216.6 265.42 216.18 262.06 217.32 257.84 215.77 254.69 215.63 250.9 214.16 248.58 211.72 247.77 207.76 244.48 205.29 244 198.59 239.04 200.7 234.89 205.14 234.92 207.87 234.07 209.67 234.48 210.45 231.8 215.22 230.1 220.16 227.8 221.9 226.34 225.02 226.67 230.56 224.08 233.36 225.27 240.24 223.77 240.31 228.47 238.84 233.22 236.93 236.21 236.91 240.38 232.9 240.66 230.52 244.16 232.15 246.97 232.37 250.82 235.24 252.81 238.32 251.94 239.26 255.55 239.75 261.58 241.06 264.2 245.85 263.02 246.64 266.32 252.66 265.75 259.33 263.14 261.17 261.9 264.51 267.92 271.52 265.11 275.12 266.73 281.06 261.56 284.74 262.38 287.18 260.19 291.02 263.63 295.86 264.96 297.51 264.84 299.96 261.9 303.72 258.69 307.8 259.64 313.37 259.8 318.33 261.36 321.33 263.02 325.52 264.47 Z" id="36510390"/>
<path d="M 310.21 604.12 308.92 606.41 307.95 613.15 306.11 618.55 300.67 626.33 296.61 636.8 297.51 641.87 299.81 645.54 300.36 648.63 297.91 656.25 293.56 661.26 292.3 665.02 293.09 671.46 290.67 677.26 286.72 681.4 284.95 684.04 285.22 689.85 288.47 697.34 287.87 701.33 284.88 704.92 278.06 708.69 270.89 716.18 265.73 719.19 263.25 721.29 259.96 725.24 258.14 726.54 250.42 727.21 244.82 728.9 238.64 732.95 230.49 740 226.61 744.19 223.46 755.16 223.42 758.5 217.57 759.01 211.58 760.03 205.9 758.3 201.02 758.47 194.96 760.15 189.76 764.47 188.41 763.36 184.73 762.43 181.81 760.14 182.01 756.15 181.21 753.48 186.12 751.14 184.67 748.41 186.24 744.29 188.58 743.29 188.74 740.82 187.16 739.56 188.25 735.51 191.63 731.19 190.9 726.57 192.72 721.8 192.25 718.03 191.03 716.75 192.13 714.07 195.39 712.8 207.77 703.67 207.9 703.35 203.78 682.31 201.12 679.35 199.64 672.31 196.43 670.82 197.19 648.09 194.05 650.04 191.42 647.12 190.5 643.53 189.13 642.06 185.26 640.28 182.94 637.87 181.99 638.63 177.25 635.01 159.06 622.89 158.1 621.81 157.15 617.34 154.83 613.03 155.9 605.2 151.89 602.21 150.88 600.12 151.43 597.94 141.4 588.45 133.83 590.45 130.01 585.81 128.67 585 124.78 586.34 121.77 585.07 114.2 584.39 108.54 583.18 104.75 583.46 99.36 582.81 95.99 584.47 93.28 581.86 90.85 576.15 90.24 572.81 90.79 570.34 89.8 568.74 85.62 565.58 84.83 564.09 84.19 550.57 82.55 543.72 80.29 537.69 80.15 535.9 89.45 529.79 90.66 528.29 94.12 526.25 99.32 520.95 102.58 518.97 103.98 517.71 108.63 518.28 114.05 514.1 120.27 511.66 124.41 512.11 128.45 511.64 129.76 510.45 132.75 509.93 134.04 508.2 134.94 504.69 138.64 501.47 140.92 500.65 144.11 496.98 147.85 494.47 148.98 492.7 151.39 491.52 153.75 494.41 162.03 497.98 164.38 498.3 170.6 497.75 175.54 499.8 177.7 499.59 181.89 502.84 184.73 503.5 189.62 502.55 192.01 504.78 196.89 507.73 201.11 509.51 204.3 507.23 207.12 506.86 209.22 504.54 212.26 504.1 212.69 494.21 216.66 488.52 222.99 485.82 228.89 486.97 235.29 484.19 238.63 488.21 241.56 493.16 248.59 496.02 249.18 497.03 247.91 501.78 248.07 504.85 249.94 511.76 251.81 516.15 253.35 517.91 255.87 518.93 257.31 522.57 259.12 524.67 259.33 534.99 256.07 536.18 257.76 539.69 260.3 551.79 262.46 556.67 268.81 557.2 268.37 561.49 270.58 562.01 270.58 563.75 274.32 567.45 277.65 567.74 281.54 569.16 284.93 569.36 288.97 571.83 288.65 574.89 293.52 578.22 296.95 576.76 308.81 580.24 310.16 577.03 312.74 576.85 311.58 583.07 311.81 588.41 311.08 594.87 311.57 600.01 310.21 604.12 Z" id="36510400"/>
<path d="M 80.15 535.9 80.29 537.69 82.55 543.72 84.19 550.57 84.83 564.09 85.62 565.58 89.8 568.74 90.79 570.34 90.24 572.81 90.85 576.15 93.28 581.86 95.99 584.47 99.36 582.81 104.75 583.46 108.54 583.18 114.2 584.39 121.77 585.07 124.78 586.34 128.67 585 130.01 585.81 133.83 590.45 141.4 588.45 151.43 597.94 150.88 600.12 151.89 602.21 155.9 605.2 154.83 613.03 157.15 617.34 158.1 621.81 159.06 622.89 177.25 635.01 181.99 638.63 182.94 637.87 185.26 640.28 189.13 642.06 190.5 643.53 191.42 647.12 194.05 650.04 197.19 648.09 196.43 670.82 199.64 672.31 201.12 679.35 203.78 682.31 207.9 703.35 207.77 703.67 195.39 712.8 192.13 714.07 191.03 716.75 192.25 718.03 192.72 721.8 190.9 726.57 191.63 731.19 188.25 735.51 187.16 739.56 188.74 740.82 188.58 743.29 186.24 744.29 184.67 748.41 186.12 751.14 181.21 753.48 182.01 756.15 181.81 760.14 184.73 762.43 188.41 763.36 189.76 764.47 186.82 768.03 183.52 769.23 176.51 768.9 172.83 768.27 167.82 768.35 161.72 769.19 155.86 769.08 151.7 770.69 149.71 772.11 145.1 778.62 139.81 785.38 135.42 788.54 128.48 790.92 121.36 795.36 117.33 797.22 113.29 799.89 111.94 801.52 108.45 809.37 107.89 811.77 105.24 811.05 103.73 812.01 97.9 813.36 97.05 811.58 94.68 811.93 92.87 810.49 88.27 809.93 81.22 808.06 79.71 808.28 75.41 805.56 74.73 801.35 76.57 797.59 77.54 793.79 75.9 788.59 76.73 786.75 75.38 780.27 72.73 776.02 72.79 773.12 70.45 768.25 68.52 765.48 67.98 761.01 64.75 757.91 61.95 752.91 59.03 745.73 56.19 742.51 54.31 736.6 49.37 732.61 48.27 728.4 45.67 722.4 44.14 721.77 41.86 717.2 38.19 718.08 35.18 713.98 33.87 710.98 35.66 706.78 32.94 703.99 31.13 699.46 30.02 694.91 30.98 689.52 28.51 681.19 26.02 677.11 25.4 674.7 23.66 672.64 23.21 666.92 22.41 665.32 20.19 656.36 18.58 651.35 16.44 650.15 10.9 645.24 1 635.23 4.39 632.68 7.73 629.19 10.18 623.82 10.68 621.42 14.88 617.69 19.28 615.83 22.51 610.61 22.02 608.24 22.75 602.67 22.6 600.47 23.61 598.02 22.51 592.64 23.65 588 22.85 580.62 19.34 576.91 21.54 570.77 24.28 564.68 26.19 563.65 24.85 559.57 24.47 553.12 25.43 549.77 26.71 548.77 25.25 545.75 23.31 537.95 22.24 537.55 27.07 532.12 32.33 531.99 35.79 532.61 40.39 532.11 46.58 530.71 52.72 530.05 58.81 531.69 62.22 529.76 65.21 531.06 68.82 531.41 72.72 530.43 76.92 534.1 80.15 535.9 Z" id="36510410"/>
<path d="M 588.21 1029.53 590.03 1029.16 597.39 1029.26 602.92 1026.01 604.02 1024.22 607.61 1023.03 611.47 1024.07 614.62 1026.66 619.43 1026.07 621.83 1025.1 630.03 1023.98 631.49 1028.59 631.27 1032.99 635.9 1033.55 638.87 1037.23 640.84 1042.54 640.2 1047.29 638.23 1050.85 635.43 1053.83 635 1056.28 635.49 1059.93 640.72 1064.66 643.13 1068.59 645.55 1073.99 647.32 1076.57 648.23 1081.25 648.25 1084.46 644.55 1090.71 647.12 1093.54 647.94 1098.41 647.74 1101.25 648.54 1107.11 647.71 1113.22 646.73 1114.83 648.04 1120.5 651.36 1122.64 655.75 1131.81 658.28 1136.31 660.17 1137.32 663.91 1144.99 661.7 1151.91 663.08 1156.52 667.96 1158.64 672.31 1164.9 676.87 1167.71 681.84 1172.35 683.1 1175.06 686.19 1176.85 691.37 1177.84 693.18 1184.86 695.46 1187.53 696.7 1190.55 695.15 1195.25 696.44 1201.88 695.25 1205.67 696 1209.95 702.1 1213.35 702.07 1216 703.4 1220.76 704.73 1223.63 704.91 1226.93 708.4 1231.21 709.52 1235.25 707.39 1237.28 711.99 1239.19 712.66 1242.22 710.44 1242.31 710.93 1246.06 709.96 1254.01 707.46 1252.13 703.96 1252.27 696.16 1256.1 693.45 1258.96 693.3 1260.7 689.06 1261.22 683.97 1263.88 680.51 1266.97 681.89 1270.13 683.29 1276.45 685.29 1279.57 681.26 1280.99 678.01 1283.13 670.37 1284.4 665.27 1288.17 663.11 1289.25 660.23 1292.23 657.45 1294 651.92 1289.87 649.27 1285.16 644.52 1282.25 642.71 1279.09 638.18 1276.44 636.04 1273.31 634.06 1272.85 630.69 1275.59 626.5 1274.33 624.8 1276.13 613.8 1272.16 610.54 1267.28 610.18 1263.01 607.05 1257.39 606.99 1255.45 604.16 1251.34 600.56 1252.36 595.04 1249.84 594.26 1246.04 591.81 1244.08 589.27 1244.95 587.75 1243.8 583.98 1243.6 582.31 1244.51 579.83 1248.98 576.61 1248.75 575.44 1246.13 572.77 1244.08 570.02 1244.14 569 1242.34 566.75 1242.74 565.24 1239.52 562.06 1238.67 559.42 1239.37 559.12 1237.54 554.36 1237.73 553.85 1238.69 550.24 1238.97 544.93 1236.09 543.17 1234.02 538.54 1233.32 531.5 1227.01 527.61 1224.02 524.37 1220.06 515.11 1217.08 513.16 1215.62 502.21 1211.86 500.85 1210.86 495.45 1213.32 492.96 1213.55 489.18 1216.24 484.08 1223.66 480.46 1226.58 474.39 1228.29 468.2 1228.44 468.55 1225.33 468.2 1216.01 468.86 1204.11 469.91 1198.8 469.35 1197.12 466.63 1195.78 463.57 1191.1 464.99 1189.12 464.57 1183.4 465.86 1175.72 469.62 1173.5 471.08 1169.89 468.94 1164.89 467.39 1159.91 466.4 1154.86 466.61 1148.24 465.26 1146.62 468.23 1144.83 472.02 1140.94 475.48 1135.55 477.32 1126.75 473.05 1122.89 472.08 1118.03 476.2 1108.85 479.7 1108.58 483.7 1109.22 486.57 1110.9 492.71 1111.94 503.37 1104.29 505.01 1104.83 509.26 1089.7 507.11 1087.33 506.65 1083.51 497.9 1081.09 494.04 1078.45 489.63 1073.94 489.13 1070.73 487.09 1069.78 486.4 1066.29 484.61 1064.75 485.14 1062.1 484.23 1059.03 482.33 1056.42 477.49 1054.21 473.05 1050.4 471.96 1048.08 467.55 1044.97 465.33 1040.93 463 1038.55 458.21 1036.05 452.86 1034.56 448.51 1029.82 441.71 1025.31 432.99 1024.52 430.68 1025 426.92 1028.27 424.29 1032.14 421.05 1033.96 414.9 1034.26 408.31 1031.6 404.94 1026.68 403.06 1025.11 401.05 1026.19 398.93 1025.97 393.03 1031.83 395.62 1035.41 389.63 1043.02 387.28 1043.35 385.31 1041.63 381.28 1042.04 379 1039.04 376.58 1037.62 375.88 1034.93 368.99 1037.5 363.01 1035.2 360.01 1036.86 357.4 1039.55 358.26 1044.75 356.95 1049.67 356.11 1058.42 352.85 1057.89 347.68 1055.48 345.37 1053.6 342.23 1048.57 341.96 1044.99 340.01 1042.02 341.47 1037.92 344.82 1035.14 343.78 1033.74 343.32 1027.76 343.74 1026.62 355.33 1025.68 363.38 1020.67 365.06 1013.93 364.57 1012.22 369.28 1010.39 371.11 1008.73 373.06 1009.53 376.48 1007.42 379.91 1007.32 382.54 1004.19 387.13 1004.62 389.97 998.59 391.39 997.97 390.97 993.07 396.13 993.81 399.79 992.57 404.81 994.35 405.91 992.54 410.16 993.02 413.15 991.78 420.43 990.95 430.77 991.35 433.32 992.86 437.6 989.69 441.42 990.5 446.33 989.34 448.1 990.51 452.68 991.87 478.92 987.99 487.95 998.94 492.95 997.9 496.59 1005.27 496.39 1006.82 498.89 1010.24 502.59 1013.34 503.58 1010.62 505.29 1009.36 512.1 1001.41 519.02 998.5 523.17 1002.61 528.01 1003.5 528.93 1005.94 530.98 1007.8 534.54 1009.18 539.68 1009.65 541.78 1012.01 545.26 1014.57 544.41 1019.13 548.43 1023.88 548.69 1028.41 545.91 1033.19 546.78 1041.2 552.02 1046.1 551.42 1049.69 554.8 1051.01 557.34 1051.25 560.17 1052.87 563.28 1056.4 565.64 1062.35 570.74 1061.97 580.47 1054.27 580.39 1052.76 582.91 1046.95 586.5 1043.21 590.57 1040.02 586.7 1033.28 588.21 1029.53 Z" id="36510420"/>
</g>
</svg>