<?xml version="1.0"?>
<svg xmlns="http://www.w3.org/2000/svg" version="1.2" baseProfile="tiny" width="800" height="786" viewBox="0 0 800 786" stroke-linecap="round" stroke-linejoin="round">
<g id="dong">
<path d="M 712.73 420.39 715.6 422.28 720.05 426.47 726.74 430.11 740.15 434.82 746.38 434.46 751.94 433.64 762.02 431.25 770.09 430.69 778.67 431.12 781.41 431.81 786.24 433.71 786.01 435.47 791.36 435.31 792.07 435.61 791.5 439.06 791.19 443.82 790.04 445.3 790.46 446.96 789.41 450.65 787.33 451.8 787.74 454.32 785.48 459.94 786.19 462.01 787.65 463.64 787.81 468.36 786.81 470.62 786.17 473.66 789.02 478.22 790.94 479.27 791.58 482.32 793.88 484.65 795.36 487.51 796.26 491.51 797.11 492.83 795.69 494.25 796.58 497.14 796.38 499.9 797.12 501.91 796.76 504.32 795.6 506.48 795.79 507.98 794.59 509.66 794.36 512.46 793.4 513.51 792.78 516.91 793.56 518.98 795.97 521.83 796.64 523.8 797.91 524.46 799 526.36 797.02 530.99 795.5 535.47 797.51 537.41 796.34 540.38 795.49 544.15 795.71 545.25 794.07 548.33 795.72 551.19 795.46 554.89 793.59 560.79 788.77 563.18 787.42 564.38 785.6 564.34 783.54 565.9 780.93 565.84 779.4 568.09 780.31 570.73 778.83 572.02 777.26 572.04 775.93 573.84 773.16 579.62 769.91 580.87 773.96 589.78 771.68 593.21 767.42 598.02 764.48 600.31 761.89 604.64 760.33 605.7 759.45 607.58 760.37 608.3 759.17 610.24 755.16 613.38 753.53 612.84 751.51 613.99 746.95 615.15 743.33 614.68 739.12 618.51 736.38 617.54 735.89 618.76 737.13 621.8 737.32 630.04 732.75 634.07 731.13 634.75 730.26 637.79 730.55 641.17 728.37 642.6 726.65 645.51 727.5 650.87 729.08 652.54 728.88 656.31 727.79 659.89 724.27 661.45 723.89 664.81 722.38 670.76 718.94 671.63 717.63 675.57 717.09 680.25 713.7 682.5 714.08 686.02 712.13 689.06 712.34 690.79 710.49 692.61 705.4 692.87 702.56 695.08 700.88 697.08 695.58 699.31 688.91 698.64 687.27 700.64 683.49 700.9 681.2 699.25 674.61 701.59 673.02 702.73 671.23 705.19 666.12 704.28 665.45 703.28 660.05 701.44 657.16 701.55 650.93 700.53 649.78 698.55 644.82 699.25 641.99 700.23 640.37 699.4 636.67 699.7 636.51 696.65 634.69 692.85 636.43 689.59 636.28 687 637.1 684.92 636.12 680.86 635.97 675.18 635.49 672.33 637.8 669.24 642.64 665.21 644.31 663.05 644.05 661.39 645.86 655.34 645.82 652.5 644.36 647.29 641.66 644.2 641.83 639.75 642.57 637.18 639.73 636.61 637.58 633.85 632.31 630.43 630.94 628.01 628.56 625.97 626.41 620.93 623.76 618.1 621.24 612.73 620.58 610.58 618.49 610.21 615.22 608.53 611.82 603.39 610.94 599.94 608.57 596.55 606.58 596.07 605.13 594.17 604.22 588.72 603.12 585.8 600.37 581.02 596.98 579.3 599.11 575.69 599.56 572.74 597.3 571.31 595.95 569.38 594.29 569.4 593.44 567.65 591.77 566.52 587.99 565.11 584.51 562.38 583.57 562.42 581.22 558.39 580.25 552.32 576.14 552.12 573.81 553.97 570.77 562.74 569.74 567.64 568.4 571.75 567.34 576.8 566.49 578.28 562.91 581.88 559.3 584.37 551.99 588.86 546.18 592.05 543.04 595.08 541.88 602.03 540.83 605.17 537.01 608.92 533.16 610.03 531.63 611.39 528.68 612.75 524.94 613.04 521.53 611.02 512.26 600.63 508.31 597.96 503.32 595.45 500.58 595.25 495.08 596.04 492.73 597.97 491.01 608.54 489.72 610.35 487.89 614.95 484.83 618.02 481.86 619.59 476.4 620.65 466.88 619.14 462.36 617.06 457.86 614.16 456.18 611.76 457.98 611.12 459.35 609.46 459.55 606.85 460.67 604.52 459.68 603.4 460.35 601.43 462.66 598.17 459.37 594.16 460.26 591.18 461.24 590.65 460.23 588.34 462.43 583.69 462.28 580.67 464.78 575.49 463.36 571.89 465.19 567.85 465.01 563.79 467.88 556.38 466.49 553.8 467.53 552.47 467.83 550.32 469.44 548.74 472.34 548.25 472.96 546.56 470.56 542.86 471.26 539.47 475.06 536.09 482.25 536.17 484.67 535.57 486.73 535.93 488.3 534.6 490.65 534.5 494.33 532.49 495.45 531.29 497.94 530.16 498.08 526.85 496.79 522.85 497.21 520.55 495.03 517.38 495.47 515.83 494.49 513.16 492.59 511.09 492.09 508.38 493.78 504.26 495.13 501.95 496.01 499.12 495.82 493.06 496.8 489.63 496.33 487.81 497.01 485.79 497.01 483.37 494.7 482.39 492.64 482.54 489.95 481.58 487.82 479.56 485.14 478.29 484.42 474.66 481.87 471.12 479.01 470.88 477.55 470.05 474.91 469.7 471.34 466.5 471.09 464.19 471.61 458.76 469.45 455.64 468.5 452.85 468.6 449.81 467.95 447.37 468.85 445.56 468.32 442.43 469.14 441.14 468.56 438.92 467.25 437.09 467.35 434.28 468.17 430.17 467.59 426.09 468.44 422.22 466.77 418.13 464.7 417.47 462.22 414.56 459.5 410.59 459.7 409.68 457.41 407.74 453.29 406.65 450.73 405.26 446.6 405.62 442.4 400.09 441.72 398.07 436.3 395.26 436.25 391.8 436.75 388.36 435.7 385.32 434.42 384.62 435.88 382.14 437.03 378.63 440.62 375.5 443.28 374.4 444.77 373.37 446.56 373.32 448.65 371.87 450.23 371.93 451.19 370.17 453.81 367.48 455.17 364.46 457.6 364.4 458.47 363.42 461.52 366.6 464.35 366.75 467.83 366.22 469.52 364.89 473.36 364.72 476.96 366.39 478.82 366.34 483.28 367.45 485.21 367.36 489.3 368.21 491.3 369.8 493.93 369.14 500.01 370.37 503.31 371.78 506.03 371.32 509.7 372.99 512.89 372.24 515.3 372.69 515.19 370.48 516.73 366.54 516.96 363.48 516.46 362.38 517.59 358.05 519.36 354.54 521.04 353.73 518.58 347.78 521.78 342.01 523.75 341.24 526.53 342.32 530.46 339.24 532.55 336.91 539.75 334.49 543.82 335.56 545.35 334.8 549.25 334.97 551.56 336.91 556.45 339.12 558.53 339.72 562.15 342.78 565.43 343.96 566.24 346.83 568.97 351.85 569.14 355.23 570.25 357.52 571.1 360.71 570.26 363.02 570.08 366.03 570.59 371.47 571.94 374.68 572.14 377.44 573.36 381.57 573.33 385.29 575.14 387.54 579.84 390.51 581.74 390.32 588.6 393.3 590.33 393.76 593.78 396.48 593.8 397.15 597.86 399.3 598.93 401.17 602.22 404.6 603.57 407.37 604.47 411.64 604.49 413.68 611.07 414.05 614.94 413.23 622.37 414.63 627.42 413.43 629.7 415.81 632.26 416.9 632.16 419.27 635.5 421.81 636.32 423.03 639.25 423.93 640.17 424.78 643.18 423.3 644.8 420.96 647.92 418.87 651.05 418.77 653.78 419.62 656.68 418.77 658.51 418.99 660.75 417.69 663.55 417.44 667.02 415.13 670.06 416.79 671.6 418.82 671.22 420.97 672.49 425.11 675.9 427.04 678.08 428.83 681.31 433.57 685.37 434.41 690.12 437.79 692.36 439.99 694.82 438.14 702.93 428.91 704.91 426.25 708 423.23 712.73 420.39 Z" id="36520350"/>
<path d="M 730.56 100.34 735.64 106.55 734.65 108.18 735.03 113.29 733.42 118.44 731.29 122.34 729.79 122.55 728.06 124.6 727.97 128.91 724.47 135.58 724.71 137.13 723.15 141.04 722.99 145.46 724.15 150.33 722.51 153.06 720.03 155.68 721 157.09 723.56 166.17 727.43 165.39 733.66 169.05 737.95 171.12 741.97 170.54 742.43 174.72 743.03 176.39 741.83 180.63 743.47 185.69 745.93 186.83 748.93 195.66 749.42 200.11 749.04 201.96 750.46 205.08 751.71 205.26 751.93 207.51 751.1 210.05 754.03 213.34 755.95 213.99 754.92 216.51 755.64 217.64 754.58 220.61 755.37 221.87 755.75 225.93 757.69 225.6 758.74 226.67 758.42 231.19 759.47 233.28 759.44 235 761.41 237.48 761.92 240.98 764.63 242.94 765.31 245.17 765.34 248.64 768.55 253.66 771.71 257.35 770.99 260.12 771.23 262.03 768.92 265.39 771.29 269.6 772.51 270.19 771.97 274.17 773.21 274.47 775.13 279.12 771.09 280.53 770.06 282.45 770.66 284.13 768.54 287.4 766.13 288.23 763.47 290 763.09 291.67 761.09 292.09 752.93 290.33 748.47 290.89 745.11 291.7 742 294.86 740.54 300.77 738.37 304.66 735.93 305.6 732.36 309.52 731.32 312.95 728.71 314.69 727.52 317.32 725.98 317.06 721.9 318.82 718.6 319.12 716.92 320.86 715.37 325.39 713.8 326.41 707.56 325.41 705.94 326.21 698.9 325.19 697.93 324.52 697.13 321.53 693.41 320.19 691.53 317.74 692.48 316.09 697.48 312.26 699.61 306.99 700.4 295.66 699.88 293.46 698.51 291.11 698.44 285.57 695.01 278.09 693.5 276.57 688.09 272.62 683.17 267.59 679.3 265.02 672.5 258.97 668.64 256.02 666.99 256.07 662.19 254.17 657.68 250.93 655.09 243.84 653.34 241.26 650.46 238.18 649.9 235.75 649.29 229.87 646.45 219.85 643.96 214.84 640.11 211.91 636.4 210.54 629.65 210.26 625.59 207.62 623.1 206.44 619.41 204 615.5 201.95 612.77 199.73 606.26 197.95 603.69 196.63 600.87 194.19 596.49 191.86 591.77 183.14 589.33 174.09 589.25 171.75 591.07 166.29 592.63 164.34 594.6 159.35 596.14 157.07 598.47 154.76 599.3 150.52 599.3 142.34 598.38 138.27 593.78 132.37 592.96 126.92 593.02 121.79 591.63 117.03 591.18 112.59 591.39 109.13 590.66 97.48 589.92 92.92 588.63 90.03 584.75 86.89 583.54 86.33 587.11 79.46 588.58 77.31 589.36 79.76 590.56 80.97 594.94 77.52 596.27 75.97 597.91 75.59 600.14 72.3 599.34 67.18 600.83 64.3 604.81 63.51 607.34 63.93 609.04 62.59 611.53 62.82 612.81 64.23 614.71 64.22 616.2 61.99 618.49 60.83 619.97 59.06 620.76 56.11 622.51 55.31 624.35 55.48 626.44 57.05 629.34 54.93 631.39 55.91 633.83 54.27 635.47 54.55 638.39 53.94 638.6 52.25 641.06 51.12 643.43 53.16 645.19 50.46 647.54 48.37 650.77 47.73 657.44 42.21 658.86 42.78 661.19 44.96 663.71 45.66 666.69 45.84 669.13 47.42 670.82 49.26 671.11 50.7 675.48 55.93 679.3 59.64 681.46 60.88 684.87 59.38 686.19 62.97 687.52 64.68 689.83 66.14 697 64.81 698.9 66.5 705.6 69.81 708.68 71.83 711.39 74.42 713.48 79.65 714.09 82.05 715.57 83.95 717.02 89.43 718.77 93.54 719.77 96.79 722.47 96.01 730.56 100.34 Z" id="36520360"/>
<path d="M 256.95 42.64 254.76 46.1 250.47 46.37 248.07 49.16 244.93 50.33 243.47 48.27 240.79 47.37 240.31 49.76 238.68 51.12 238.91 52.8 235.03 56.18 235 61.14 231.93 64.65 228.83 67.26 226.92 69.41 228.41 72.97 228.77 75 226.64 77.46 226.95 81.08 227.53 82.13 225.99 83.57 224 82.61 221.32 84.31 220.25 86.49 222.86 88.98 223.71 90.7 225.88 91.24 227.54 93.75 227.29 97.53 228.09 99.31 231.67 99.46 231.69 106.72 226.57 110.51 226.22 113.06 225.01 113.1 221.87 111.1 218.37 113.35 216.08 114.28 213.22 119.48 214.71 120.66 213.5 123.32 210.87 126.2 210.85 127.83 212.31 129.85 211.56 130.7 210.19 134.69 211.04 136.79 211.02 138.92 209.34 141.48 207.99 145.17 205.89 145.15 203.6 147.81 198.22 149.92 193.77 150.04 190.91 151.78 189.78 153.08 186.08 154.54 184.02 158 182.41 158.21 179.52 159.68 179.31 162.33 177.11 164.59 173.22 166.77 172.07 165.97 169.31 167.81 166.54 172.28 167.61 175.98 168.87 178.88 167.2 182.14 164.83 182.34 163.02 180.64 160.47 181.17 155.63 179.5 154.48 180.9 153.54 186.76 153.17 191.05 153.72 200.26 152.52 202.29 150.93 202.97 148.7 201.93 145.5 207.48 143.17 206.12 141.41 204.07 139.96 203.52 136.16 203.67 136.52 205.38 132.07 209.51 129.57 210.88 130.16 214.21 127.49 214.69 127.87 216.85 129.47 217.75 128.49 220.59 128.98 221.78 127.87 224.28 127.48 226.69 124.8 226.55 122.46 225.82 121.85 222.84 118.38 224.93 117.13 226.17 117.33 228.48 114.59 227.55 114.1 233.05 112.42 233.25 110.73 230.39 106.57 230.8 102.85 235.3 104.37 238.75 103.19 240.17 100.57 241.47 99.15 246.01 98.17 250.26 96.05 248.8 94.03 246.4 93.98 245.12 92.23 242.09 90.39 240.81 89.18 236.96 89.63 232.41 92.31 228.77 96.88 227.85 98.75 226.72 100.38 224.35 101.44 221.69 101.64 217.21 103.01 212.19 105.68 209.28 104.12 204.71 102.5 203.06 100.18 201.81 96.23 195.79 92.86 196.19 91.81 193.94 87.62 188.45 87.76 187.2 86.39 183.09 84.36 180.38 83.29 176.5 72.06 175.46 69.66 177.24 68.52 175.63 64.1 175.19 61.96 171.22 61.53 168.83 63.29 166.7 59.74 162.34 55.39 161.73 54.13 160.52 51.98 160.51 47.48 158.07 46.84 156.49 42.76 154.78 41.85 150.19 38.96 149.94 37.43 148.9 35.29 146.2 33.92 146.17 31.89 144.58 31.54 141.09 30.64 139.66 28.54 141.07 25.29 141.46 25.82 138.6 30.49 133.17 33.51 131.73 35.79 126.49 36.91 122.94 35.75 121.23 34.27 117.61 34.5 113.94 33.55 111.39 35.77 108.48 37.22 104.25 38.23 103.91 40.98 103.45 43.09 104.63 47.55 104.03 50.35 104.2 51.32 105.16 53.05 108.89 55 110.1 58.62 111.46 62.57 111.04 63.64 110.14 68.19 110 69.82 109.31 76.22 108.64 79.99 110.36 82.1 109.75 83.34 110.36 86.56 109.28 89.23 106.59 94.89 103.64 96.44 104.28 98.37 102.43 100.79 101.6 105.11 99.05 108.53 99.68 111.15 94.29 111.1 90.56 110.07 89.01 113.05 85.97 116.51 87.16 117.93 86.04 118.12 82.34 123.99 82.76 128.15 84.25 131.96 83.89 134.65 82.61 140.02 81.66 142.37 83.12 145.39 82.16 147.39 84 148.35 83.62 151.4 84.44 153.58 82.6 155.37 82.73 156.56 79.98 158.39 77.17 157.23 72.75 158.5 70.86 158.8 67.5 157.24 64.89 163.08 60.56 166.47 56.66 170.3 56.65 174.5 49.63 176.32 47.78 175.1 44.43 176.21 42.36 178.59 42.97 180.31 42.57 184.49 37.43 187.1 33.63 190.84 29.06 193.58 26.89 195.38 26.86 201.8 22.79 204.85 19.42 205.68 19.39 209.56 15.04 211.42 15.18 214.53 12.91 217.02 12.44 219.1 14.84 220.99 15.79 220.44 18.5 221.38 19.56 228.53 17.34 232.11 14.76 234.14 14.16 237.17 10.85 239.33 12.35 242.43 10.01 246.89 7.36 250.2 4.21 252.29 1 254.56 2.64 253.27 5.39 249.76 10.55 248.46 14.39 247.71 21.25 249.78 32.29 254.6 38.94 257.83 41 256.95 42.64 Z" id="36520370"/>
<path d="M 207.99 145.17 209.34 141.48 211.02 138.92 211.04 136.79 210.19 134.69 211.56 130.7 212.31 129.85 210.85 127.83 210.87 126.2 213.5 123.32 214.71 120.66 213.22 119.48 216.08 114.28 218.37 113.35 221.87 111.1 225.01 113.1 226.22 113.06 226.57 110.51 231.69 106.72 231.67 99.46 228.09 99.31 227.29 97.53 227.54 93.75 225.88 91.24 223.71 90.7 222.86 88.98 220.25 86.49 221.32 84.31 224 82.61 225.99 83.57 227.53 82.13 226.95 81.08 226.64 77.46 228.77 75 228.41 72.97 226.92 69.41 228.83 67.26 231.93 64.65 235 61.14 235.03 56.18 238.91 52.8 238.68 51.12 240.31 49.76 240.79 47.37 243.47 48.27 244.93 50.33 248.07 49.16 250.47 46.37 254.76 46.1 256.95 42.64 268.41 47.71 271.68 48.72 278.71 52.23 281.22 55.09 282.72 58.31 284.2 59.99 288.26 61.22 296.71 63.18 303.58 63.47 309.93 63.1 313.12 61.72 316.08 59.38 317.05 57.86 317.79 54.45 322.51 42.18 324.15 37.14 324.39 28.87 323.94 26.64 325.5 21.18 327.32 17.46 332.6 10.22 336.38 6.58 339.41 6.35 344.87 7.4 349.6 9.17 355.45 8.95 362.83 9.66 364.05 10.04 367.44 13.05 367.89 15.97 370.06 20.85 371.85 22.89 377.32 25.63 379.45 27.38 384.98 35.11 390.93 41.6 393.92 43.41 393.24 44.63 393.97 47.38 393.71 50.47 392.61 51.74 391.99 54.33 392.09 56.88 393.44 58.05 393.66 60.09 395.42 63.61 394.26 64.47 393.32 66.9 394.18 69.27 392.16 71.49 389.26 71.59 387.8 72.97 385.72 73.5 382.44 73.26 379.45 73.57 377.33 77.06 373.34 77.31 372.03 78.07 365.38 77.82 363.61 78.93 363.22 82.66 362.33 84.83 363.52 87.26 362.58 89.83 363.16 93.25 365.88 98.09 365.21 101.19 365.91 103.77 365.17 105.95 364.08 106.51 364.27 108.43 365.86 110.65 365.84 113.17 366.98 115.03 366.81 116.35 368.2 117.97 369.73 125.06 370.51 127.14 372.15 128.35 373.92 133.32 373.89 135.2 374.78 136.74 376.09 142.28 380.53 147.54 382.58 148.12 383.83 151.83 384.78 151.99 386.46 156.01 386.75 160.83 390.28 163.15 386.76 165.93 384.1 171.99 382.54 174.4 381.97 176.35 380.03 178.41 379.11 181.16 377.6 181.66 376.64 184.23 374.86 187.02 371.8 189.73 369.61 195.77 369.27 198.08 370.56 200.47 367.54 209.01 367.96 213.29 369.37 214.04 371.14 217.34 371.28 220.7 370.74 222.46 369.33 223.51 368.76 225.42 362.77 228.77 359.04 233.42 356.55 235.12 354.86 233.75 352.58 233.41 347.89 230.11 343.72 230.42 341.55 228.94 340.48 227.17 339.91 224.64 338.27 221.56 336.13 220.61 335.54 219.46 331.71 215.5 324.18 211.46 321.48 209.66 315.88 213.47 314.44 213.53 311.77 212.44 308.96 212.91 306.61 211.88 303.35 212.23 299.21 207.98 298.49 205.17 298.83 204.17 296.47 202.73 296.94 198.16 294.41 195.05 291.08 193.96 285.7 187.6 284.23 188.04 283.58 186.15 278.59 185.81 275.96 180.63 274.78 176.76 271.19 175.43 268.36 175.13 267.81 172.87 265.74 172.52 264.63 168.76 265.43 165.31 264.51 161.01 262.55 156.69 258.87 155.28 257.98 153.39 254.08 152.5 248.4 153.29 247.93 151.57 243.49 151.86 241.4 148.93 238.2 151.86 238.18 153.56 235.85 156.36 234.39 155.62 231.38 155.81 229.29 153.52 227.04 152.45 225.68 149.74 226.32 146.96 225.7 144.73 223.26 144.48 220.82 141.3 217.59 141.39 216.02 142.49 212.89 143.56 211.48 145.15 207.99 145.17 Z" id="36520380"/>
<path d="M 356.55 235.12 355.23 238.58 350.5 239 343.8 239.05 334.87 244.76 331.39 244.66 326.92 246.7 325.63 245.53 322.85 246.16 321.76 247.49 323.72 250.72 325.86 252.57 325.69 255.43 326.74 256.96 325.4 261.29 322.79 265.06 319.53 263.86 316.94 265.45 314.73 268.21 310.43 271.8 306.23 273.92 304.04 276.91 302.89 276.56 299.36 277.67 295.15 278.31 295.21 281.04 296.38 282.57 294.6 284.14 290.69 286.11 288.47 286.06 286.5 284.63 285.6 285.8 288.1 291.39 286.82 293.78 285.2 295.35 286.48 298.5 284.08 301.85 281.51 304.22 279.91 307.2 280.01 308.27 283.06 309.47 282.97 311.63 285.11 316.02 285.07 324.76 285.59 325.46 282.42 329.63 281.93 332.39 282.39 333.61 280.75 336 280.58 338.94 279.8 341.51 277.95 345.38 277.3 348.62 275.25 352.86 271.37 357.56 268.6 358.84 266.25 361.28 260.64 364.58 256.85 365.62 255.68 363.37 253.26 360.89 252.7 359.37 245.32 353.51 244.56 351.09 243.21 348.96 243.04 346.96 240.5 345.41 237.95 345.52 236.63 346.51 232.83 344.64 231.17 344.8 228.03 343.9 225.96 341.22 225.62 339.53 221.46 338.13 219.89 338.9 219.05 336.13 214.57 335.69 213.76 334.22 212.09 334.51 209.82 332.26 208.05 334.42 205.91 333.51 203.53 335.6 200.88 337.14 199.12 339.7 196.19 339.07 193.21 343.37 191.15 344.66 188.78 340.28 186.22 336.23 185.91 332.33 183.14 328.88 179.14 329.11 179.18 326.67 177.07 324.55 176.67 321.5 178.56 319.58 177.92 315.26 175.75 312.82 174.46 312.75 171.42 308.42 172.96 304.9 170.69 299.98 171.17 296.49 172.19 293.59 173.68 291.75 171.2 291.01 169.67 288.78 169.22 285.85 167.9 282.63 167.24 279.36 168.42 276.62 168.24 274.81 167.03 273.93 166.04 270.35 165.63 265.4 164.35 264.3 163.54 261.87 162.16 260.6 162.21 258.23 158.33 255.32 150.11 253.15 148.31 251.99 142.54 249.64 142.69 248.31 141.29 246.17 141.18 242.55 142.53 239 144.65 235.55 144.76 232.49 141.39 230.64 135.78 232.81 131.5 232.93 129.6 232.34 127.4 229.8 127.48 226.69 127.87 224.28 128.98 221.78 128.49 220.59 129.47 217.75 127.87 216.85 127.49 214.69 130.16 214.21 129.57 210.88 132.07 209.51 136.52 205.38 136.16 203.67 139.96 203.52 141.41 204.07 143.17 206.12 145.5 207.48 148.7 201.93 150.93 202.97 152.52 202.29 153.72 200.26 153.17 191.05 153.54 186.76 154.48 180.9 155.63 179.5 160.47 181.17 163.02 180.64 164.83 182.34 167.2 182.14 168.87 178.88 167.61 175.98 166.54 172.28 169.31 167.81 172.07 165.97 173.22 166.77 177.11 164.59 179.31 162.33 179.52 159.68 182.41 158.21 184.02 158 186.08 154.54 189.78 153.08 190.91 151.78 193.77 150.04 198.22 149.92 203.6 147.81 205.89 145.15 207.99 145.17 211.48 145.15 212.89 143.56 216.02 142.49 217.59 141.39 220.82 141.3 223.26 144.48 225.7 144.73 226.32 146.96 225.68 149.74 227.04 152.45 229.29 153.52 231.38 155.81 234.39 155.62 235.85 156.36 238.18 153.56 238.2 151.86 241.4 148.93 243.49 151.86 247.93 151.57 248.4 153.29 254.08 152.5 257.98 153.39 258.87 155.28 262.55 156.69 264.51 161.01 265.43 165.31 264.63 168.76 265.74 172.52 267.81 172.87 268.36 175.13 271.19 175.43 274.78 176.76 275.96 180.63 278.59 185.81 283.58 186.15 284.23 188.04 285.7 187.6 291.08 193.96 294.41 195.05 296.94 198.16 296.47 202.73 298.83 204.17 298.49 205.17 299.21 207.98 303.35 212.23 306.61 211.88 308.96 212.91 311.77 212.44 314.44 213.53 315.88 213.47 321.48 209.66 324.18 211.46 331.71 215.5 335.54 219.46 336.13 220.61 338.27 221.56 339.91 224.64 340.48 227.17 341.55 228.94 343.72 230.42 347.89 230.11 352.58 233.41 354.86 233.75 356.55 235.12 Z" id="36520390"/>
<path d="M 127.48 226.69 127.4 229.8 129.6 232.34 131.5 232.93 135.78 232.81 141.39 230.64 144.76 232.49 144.65 235.55 142.53 239 141.18 242.55 141.29 246.17 142.69 248.31 142.54 249.64 148.31 251.99 150.11 253.15 158.33 255.32 162.21 258.23 162.16 260.6 163.54 261.87 164.35 264.3 165.63 265.4 166.04 270.35 167.03 273.93 168.24 274.81 168.42 276.62 167.24 279.36 167.9 282.63 169.22 285.85 169.67 288.78 171.2 291.01 173.68 291.75 172.19 293.59 171.17 296.49 170.69 299.98 172.96 304.9 171.42 308.42 174.46 312.75 175.75 312.82 177.92 315.26 178.56 319.58 176.67 321.5 177.07 324.55 179.18 326.67 179.14 329.11 183.14 328.88 185.91 332.33 186.22 336.23 188.78 340.28 191.15 344.66 193.21 343.37 196.19 339.07 199.12 339.7 200.88 337.14 203.53 335.6 205.91 333.51 208.05 334.42 209.82 332.26 212.09 334.51 213.76 334.22 214.57 335.69 219.05 336.13 219.89 338.9 221.46 338.13 225.62 339.53 225.96 341.22 228.03 343.9 231.17 344.8 232.83 344.64 236.63 346.51 237.95 345.52 240.5 345.41 243.04 346.96 243.21 348.96 244.56 351.09 245.32 353.51 252.7 359.37 253.26 360.89 249.28 360.48 245.77 362.43 244.73 361.9 235.27 365.32 231.73 369.04 230.12 372.54 228.88 372.74 222.49 376.35 220.46 378.65 217.88 383.84 215.4 387.54 210.68 388.73 207.22 392.71 200.67 396.89 196.09 396.6 195.01 401.46 192.7 403.15 187.99 405.77 186.36 405.92 184.31 407.4 181.47 407.76 180.3 409.92 177.65 411.62 174.75 412.52 169.02 415.2 164.96 414.72 162.9 415.24 162.3 416.67 154.36 420.6 151.63 417.79 150.48 418.66 149.39 417.09 147.91 416.61 145.81 417.56 141.46 417.72 138.82 415.66 136.49 417.61 136.23 419.08 133.12 419.2 131.03 420.31 128.84 419.69 125.6 420.2 120.98 420.4 119.16 418.33 117.68 417.76 115.08 419.17 111.26 417.92 110.29 418.08 109.38 415.25 107.3 413.17 106.98 411.93 102.47 410.4 99.12 408.14 95.86 410.02 94.14 412.66 90.87 416.75 89.69 417.51 80.95 415.82 78.87 414.56 76.72 411.79 73.27 408.56 71.92 408.69 68.41 411.32 65.32 408.69 62.18 407.97 59.7 404.97 59.95 403.96 59.56 396.5 61 395.04 61.92 392.95 61.81 390.66 58.25 387.9 56.4 387.29 54.6 385.58 54.17 383.16 54.54 380.04 55.33 378.19 55.67 374.26 53.53 372.79 53.13 371.62 50.96 369.54 48.18 367.64 45.81 362.04 44.02 359.92 42.4 355.82 41.93 353.49 39.6 350.16 40.52 344.8 40.42 342.77 38.87 340.65 34.31 338.46 33.48 334.54 32.11 332.51 29.85 330.36 30.56 324.82 30.49 318.67 29.66 315.48 29.71 313.57 30.75 311.34 30.45 309.18 28.05 307.42 25.98 304.34 22.78 302.67 19.9 301.81 20.75 299.38 15.84 291.63 17.14 287.06 16.28 283.87 15.1 281.77 16.28 279.26 16.11 278.05 13.34 275.39 12.81 273.52 10.13 269.94 5.79 265.6 1 262.85 1.93 261.14 3.61 260.48 7.77 255.63 9.84 253.92 13.39 252.08 16.99 247.82 18.61 245.32 21.45 243.87 23.23 240.52 25.93 240.2 26.43 237.74 25.68 233.98 27.98 231.34 30.32 230.91 33.3 229.03 35.54 224.95 40.58 219.37 42.64 218.53 41.5 213.53 41.44 211.83 42.49 209.89 41.17 207.48 44.46 205.71 45.23 200.2 43.91 197.51 41.08 195.85 37.01 194.48 33.91 190.54 32.85 186.97 30.47 185.61 30.64 181.5 29.83 178.53 26.78 175.96 25.9 174.4 27.02 167.92 25.93 167.21 24.94 162.41 24.56 155.37 27.08 150.82 26.93 147.08 28.64 143.58 28.54 141.07 30.64 139.66 31.54 141.09 31.89 144.58 33.92 146.17 35.29 146.2 37.43 148.9 38.96 149.94 41.85 150.19 42.76 154.78 46.84 156.49 47.48 158.07 51.98 160.51 54.13 160.52 55.39 161.73 59.74 162.34 63.29 166.7 61.53 168.83 61.96 171.22 64.1 175.19 68.52 175.63 69.66 177.24 72.06 175.46 83.29 176.5 84.36 180.38 86.39 183.09 87.76 187.2 87.62 188.45 91.81 193.94 92.86 196.19 96.23 195.79 100.18 201.81 102.5 203.06 104.12 204.71 105.68 209.28 103.01 212.19 101.64 217.21 101.44 221.69 100.38 224.35 98.75 226.72 96.88 227.85 92.31 228.77 89.63 232.41 89.18 236.96 90.39 240.81 92.23 242.09 93.98 245.12 94.03 246.4 96.05 248.8 98.17 250.26 99.15 246.01 100.57 241.47 103.19 240.17 104.37 238.75 102.85 235.3 106.57 230.8 110.73 230.39 112.42 233.25 114.1 233.05 114.59 227.55 117.33 228.48 117.13 226.17 118.38 224.93 121.85 222.84 122.46 225.82 124.8 226.55 127.48 226.69 Z" id="36520400"/>
<path d="M 421.25 316.31 420.62 318.96 421.03 323.17 423.69 327.49 425.72 328.3 427.17 331.26 426.15 335.19 427.02 336.94 429.72 338.92 429.9 343.43 430.85 346.6 434.95 350.2 435.95 351.89 437.73 353.18 440.74 356.95 441.19 358.8 441.38 367.87 440.72 370.22 443.28 374.4 440.62 375.5 437.03 378.63 435.88 382.14 434.42 384.62 435.7 385.32 436.75 388.36 436.25 391.8 436.3 395.26 441.72 398.07 442.4 400.09 446.6 405.62 445.22 411.01 441.8 415.66 442.16 419.11 439.8 419.88 437.3 422.1 432.17 427.7 430.58 430.78 428.37 431.72 426.15 433.49 421.36 433.86 419.19 435.45 416.35 439.51 410.74 438.4 406.86 442.6 406.22 443.82 402.68 445.18 396.55 445.19 394.14 446.35 389.19 446.33 388.24 444.96 384.91 445.94 382.92 449.36 380.32 451.65 377.99 452.73 375.16 452.97 373.9 452.2 369.13 452.02 363.35 452.93 360.63 455.18 356.17 455.59 349.6 454.18 347.76 454.78 347.12 456 343.24 458.58 342.91 460.7 340.68 464.58 337.4 467.03 334.25 467.75 331.77 469.82 329.22 470.09 325.13 465.25 322.12 458.74 321.6 455.34 314.85 454.37 312.91 456.98 310 456.8 307.99 455.9 304.23 455.94 301.86 456.52 285.08 449.82 285.81 448.28 289.14 444.22 291.19 442.25 289.15 440.6 288.07 437.24 289.24 434.65 286.95 433.92 286.61 432.47 284.62 429.04 285.02 426.24 283.76 423.94 280.3 422.67 279.2 420.94 280.85 416.07 280.03 413.84 281.25 410.84 281.2 403.95 278.82 402.44 278.24 400.88 278.48 397.41 279.58 395.04 277.72 390.52 271.92 389.44 268.79 387.29 267.68 387.35 266.23 385.48 263.66 379.4 260.75 376.22 262.11 371.64 260.63 368.21 258.72 366.27 256.85 365.62 260.64 364.58 266.25 361.28 268.6 358.84 271.37 357.56 275.25 352.86 277.3 348.62 277.95 345.38 279.8 341.51 280.58 338.94 280.75 336 282.39 333.61 281.93 332.39 282.42 329.63 285.59 325.46 285.07 324.76 285.11 316.02 282.97 311.63 283.06 309.47 280.01 308.27 279.91 307.2 281.51 304.22 284.08 301.85 286.48 298.5 285.2 295.35 286.82 293.78 288.1 291.39 285.6 285.8 286.5 284.63 288.47 286.06 290.69 286.11 294.6 284.14 296.38 282.57 295.21 281.04 295.15 278.31 299.36 277.67 302.89 276.56 304.04 276.91 306.23 273.92 310.43 271.8 314.73 268.21 316.94 265.45 319.53 263.86 322.79 265.06 325.4 261.29 326.74 256.96 325.69 255.43 325.86 252.57 323.72 250.72 321.76 247.49 322.85 246.16 325.63 245.53 326.92 246.7 331.39 244.66 334.87 244.76 343.8 239.05 350.5 239 355.23 238.58 357.61 243.38 357.83 244.66 360.4 246.28 359.69 249.05 360.45 252.42 363.59 253.14 370.46 252.51 372.15 253.92 373.04 257.66 372.67 261.68 373.51 263.72 372.53 265.26 372.68 269.82 374.42 273 374.76 275.2 376.67 278.26 374.86 280.29 374.77 281.71 373.12 285.15 374.67 287.43 373.97 288.85 375.29 291.63 379.75 292.5 381.07 293.98 382.88 294.71 384.02 297.12 386.39 299.56 388.75 300 390.82 301.14 391.24 302.36 389.71 303.92 389.86 307.49 391.74 310.08 394.16 311.51 396.87 313.92 401.77 316.26 413.86 313.75 417.93 314.46 418.83 314.18 421.25 316.31 Z" id="36520320"/>
<path d="M 456.18 611.76 453.99 608.21 452.29 604.36 451.25 603.26 446.35 599.81 440.46 599.55 437.12 599.85 428.49 601.88 425.19 607.11 423.44 613.07 423.96 619.49 423.53 631.19 424.9 640.29 423.18 644.94 421.04 647.68 415.75 650.87 411.11 650.23 406.92 648.41 398.61 650.04 397.54 650.87 397.99 661.45 399.45 665.62 397.46 665.84 398.67 668.07 397.17 671.68 398.63 674.58 398.13 676.06 398.6 679.82 398.29 684.34 397.15 688.13 398.19 689.23 397.45 691.38 393.47 691.17 392.76 692.03 390.46 690.8 387.94 690.53 386.99 689.44 387.68 684.41 386.86 681.14 387.62 677.95 387.62 675.17 388.25 671.81 385.58 670.86 380.82 668.21 379.25 668.32 375.94 666.19 372.31 665.41 372.7 662.57 371.32 660.84 371.13 658.55 368.88 657.34 368.25 654.43 366.14 652.45 365.36 650.5 363.26 649.89 359.65 650.22 355.6 648.59 354.82 647.72 350.02 646.83 346.21 645.41 340.93 645.14 339.21 643.55 334.67 641.59 333.3 638.22 333.25 635.15 332.46 632.65 331.29 631.57 331.81 628.15 331.17 624.33 332.75 620.75 333.69 619.66 335.05 611.33 333.22 608.82 331.19 608.86 327.79 606.12 325.99 602.82 322.82 600.1 320.93 599.39 317.54 599.72 303.64 608.55 301.25 609.88 297.64 610.67 289.13 607.16 282.36 602.95 281.64 600.16 281.76 596.19 279.63 593.05 280.23 591.51 279.82 588.43 278.51 586.11 277.67 581.97 278.18 576.35 279.32 574.84 279.23 572.51 280.18 569.82 279.08 567.35 280.52 561.89 281.37 557.56 279.2 555.6 279.46 551.09 277.83 550.59 277.22 548.78 277.41 544.3 278.36 541.58 279.88 539.55 279.5 535.88 280.57 533.98 279.64 531.12 280.6 529.06 279.23 527.3 279.25 523.01 276.32 520.9 276.31 519.24 269.97 517.47 267.24 513.9 265.97 513.11 265.44 510.86 263.5 508.84 260.13 506.27 262.85 499.38 262.97 497.02 264.35 493.22 266.92 489.76 268.96 487.69 269.76 482.52 270.6 480.36 269.7 478.6 269.9 474.72 272.64 470.8 274.02 466.59 275.29 464.04 274.45 461.07 276.34 460.46 279.7 457.83 281.14 455.3 284.21 452.05 285.08 449.82 301.86 456.52 304.23 455.94 307.99 455.9 310 456.8 312.91 456.98 314.85 454.37 321.6 455.34 322.12 458.74 325.13 465.25 329.22 470.09 331.77 469.82 334.25 467.75 337.4 467.03 340.68 464.58 342.91 460.7 343.24 458.58 347.12 456 347.76 454.78 349.6 454.18 356.17 455.59 360.63 455.18 363.35 452.93 369.13 452.02 373.9 452.2 375.16 452.97 377.99 452.73 380.32 451.65 382.92 449.36 384.91 445.94 388.24 444.96 389.19 446.33 394.14 446.35 396.55 445.19 402.68 445.18 406.22 443.82 406.86 442.6 410.74 438.4 416.35 439.51 419.19 435.45 421.36 433.86 426.15 433.49 428.37 431.72 430.58 430.78 432.17 427.7 437.3 422.1 439.8 419.88 442.16 419.11 441.8 415.66 445.22 411.01 446.6 405.62 450.73 405.26 453.29 406.65 457.41 407.74 459.7 409.68 459.5 410.59 462.22 414.56 464.7 417.47 466.77 418.13 468.44 422.22 467.59 426.09 468.17 430.17 467.35 434.28 467.25 437.09 468.56 438.92 469.14 441.14 468.32 442.43 468.85 445.56 467.95 447.37 468.6 449.81 468.5 452.85 469.45 455.64 471.61 458.76 471.09 464.19 471.34 466.5 474.91 469.7 477.55 470.05 479.01 470.88 481.87 471.12 484.42 474.66 485.14 478.29 487.82 479.56 489.95 481.58 492.64 482.54 494.7 482.39 497.01 483.37 497.01 485.79 496.33 487.81 496.8 489.63 495.82 493.06 496.01 499.12 495.13 501.95 493.78 504.26 492.09 508.38 492.59 511.09 494.49 513.16 495.47 515.83 495.03 517.38 497.21 520.55 496.79 522.85 498.08 526.85 497.94 530.16 495.45 531.29 494.33 532.49 490.65 534.5 488.3 534.6 486.73 535.93 484.67 535.57 482.25 536.17 475.06 536.09 471.26 539.47 470.56 542.86 472.96 546.56 472.34 548.25 469.44 548.74 467.83 550.32 467.53 552.47 466.49 553.8 467.88 556.38 465.01 563.79 465.19 567.85 463.36 571.89 464.78 575.49 462.28 580.67 462.43 583.69 460.23 588.34 461.24 590.65 460.26 591.18 459.37 594.16 462.66 598.17 460.35 601.43 459.68 603.4 460.67 604.52 459.55 606.85 459.35 609.46 457.98 611.12 456.18 611.76 Z" id="36520330"/>
<path d="M 636.67 699.7 633.19 704.18 631.46 705.22 629.35 705.28 627.75 708.88 625.52 711.89 623.41 713.48 620.89 713.66 619.66 714.46 617.82 718.87 618.02 720.49 616.76 723.04 616.07 727.05 614.69 729.37 614.54 732.77 616 736.07 616.24 738.13 618.51 740.97 619.14 744.94 620.43 747.86 620.47 749.89 615.78 758.92 613.59 761.38 610.58 762.78 606.12 768.47 604.25 772.4 603.78 774.88 602.81 775.85 597.97 776.47 595.57 778.27 593.44 777.92 590.82 780.44 588.19 780.71 586.43 782.63 585.13 782.85 583.61 784.71 580.76 785 578.39 783.45 577.01 780.93 576.5 778.2 573.72 776.13 572.99 774.65 569.2 770.96 564.41 769.67 560.76 766.64 558.2 767.2 555.16 766.09 553.53 764.66 551.33 765.06 550.2 766.03 546.3 765.86 545.26 764.31 540.86 763.95 539.71 762.36 535.01 763.31 534.1 763.04 530.24 765.04 528.07 760.52 527.21 756.29 526.26 754.21 526.47 752.61 525.68 748.85 524.12 748.5 520.78 746.22 518.44 745.35 516.36 743.81 513.58 740.2 512.05 739.25 510.95 737.23 510.99 735.66 507.65 735.19 506.76 735.83 500.69 737.13 497.91 739.79 494.77 738.92 491.49 740.76 490.05 740.61 487.6 739.01 486.22 739.85 484.87 738.22 484.54 733.81 483.15 730.77 482.7 724.98 480.1 721.62 479.07 721.2 474.83 722.62 470.53 726.19 469.87 730.86 460.16 737.45 457.72 737.2 452.62 740.74 451.75 740.69 449.87 742.73 447.52 743.05 444.62 746.19 442.35 746.67 438.11 749.15 436.07 748.31 435.48 746.63 431.55 743.71 433.32 738.99 432.91 735.73 431.6 732.69 430.09 733.81 428.81 732.4 431.42 731.66 433.32 730.42 435.83 727.1 436.3 722.87 435.54 718.54 433.2 714.36 432.31 711.49 433.75 709.73 433.43 706.16 432.03 703.78 428.96 701.5 427.77 698.47 426.5 696.85 423.24 694.34 420.84 693.2 415.74 689.59 414.89 686.31 411.53 682.62 406 674.53 404.02 672.04 400.54 665.53 399.45 665.62 397.99 661.45 397.54 650.87 398.61 650.04 406.92 648.41 411.11 650.23 415.75 650.87 421.04 647.68 423.18 644.94 424.9 640.29 423.53 631.19 423.96 619.49 423.44 613.07 425.19 607.11 428.49 601.88 437.12 599.85 440.46 599.55 446.35 599.81 451.25 603.26 452.29 604.36 453.99 608.21 456.18 611.76 457.86 614.16 462.36 617.06 466.88 619.14 476.4 620.65 481.86 619.59 484.83 618.02 487.89 614.95 489.72 610.35 491.01 608.54 492.73 597.97 495.08 596.04 500.58 595.25 503.32 595.45 508.31 597.96 512.26 600.63 521.53 611.02 524.94 613.04 528.68 612.75 531.63 611.39 533.16 610.03 537.01 608.92 540.83 605.17 541.88 602.03 543.04 595.08 546.18 592.05 551.99 588.86 559.3 584.37 562.91 581.88 566.49 578.28 567.34 576.8 568.4 571.75 569.74 567.64 570.77 562.74 573.81 553.97 576.14 552.12 580.25 552.32 581.22 558.39 583.57 562.42 584.51 562.38 587.99 565.11 591.77 566.52 593.44 567.65 594.29 569.4 595.95 569.38 597.3 571.31 599.56 572.74 599.11 575.69 596.98 579.3 600.37 581.02 603.12 585.8 604.22 588.72 605.13 594.17 606.58 596.07 608.57 596.55 610.94 599.94 611.82 603.39 615.22 608.53 618.49 610.21 620.58 610.58 621.24 612.73 623.76 618.1 626.41 620.93 628.56 625.97 630.94 628.01 632.31 630.43 637.58 633.85 639.73 636.61 642.57 637.18 641.83 639.75 641.66 644.2 644.36 647.29 645.82 652.5 645.86 655.34 644.05 661.39 644.31 663.05 642.64 665.21 637.8 669.24 635.49 672.33 635.97 675.18 636.12 680.86 637.1 684.92 636.28 687 636.43 689.59 634.69 692.85 636.51 696.65 636.67 699.7 Z" id="36520340"/>
<path d="M 574.53 89.37 576.74 88.77 580.41 86.76 583.54 86.33 584.75 86.89 588.63 90.03 589.92 92.92 590.66 97.48 591.39 109.13 591.18 112.59 591.63 117.03 593.02 121.79 592.96 126.92 593.78 132.37 598.38 138.27 599.3 142.34 599.3 150.52 598.47 154.76 596.14 157.07 594.6 159.35 592.63 164.34 591.07 166.29 589.25 171.75 589.33 174.09 591.77 183.14 587.66 185.28 585.34 187.07 581.34 187.66 580.83 180.1 579.94 177.98 577.33 176.74 574.42 176.3 567.69 173.09 565.28 172.43 561.2 170.3 556.03 169.83 554.5 169.36 553.47 167.46 552.78 164.11 551.84 162.02 547.32 155.2 545.48 153.83 541.54 153.32 539.14 156.42 536.73 158.74 534.8 161.59 531.44 164.11 527.54 168.16 529.01 170.2 528.58 173.44 530.42 175.15 529.79 176.85 527.74 177.05 526.87 181.07 525.72 182.61 523.04 183.21 521.79 184.43 522.32 186.76 519.96 188.45 520.66 190.22 520.4 192.41 518.64 195.82 516.85 196.99 516.6 199.77 517.47 202.29 516.8 205.82 517.03 209.01 515.51 213.75 516.48 217.98 513.22 222.44 513.07 223.79 510.39 222.42 507.97 220.56 506.55 220.44 502.99 222.38 499.66 222.09 498.87 223.7 497.09 223.7 496.47 225.28 493.26 228.27 489.28 229.62 487.66 230.94 485.35 228.78 484.87 231.23 482.81 233.88 482.92 238.04 481.74 241.22 480.59 241.57 479.86 244.26 477.46 245.72 475.86 249.6 474.14 250.53 471.97 253.4 472.43 256.6 473.4 258.95 471.41 260.38 471.97 265.67 468.52 267.97 465.03 268.9 463.24 268.1 461.51 268.24 460.22 270.32 457.38 271.03 455.16 270.91 454.83 275.17 453.88 276.27 450.58 277.35 448.39 280.44 446.65 286.46 446.62 287.81 444.53 293.54 442.23 294.79 440.56 298.93 436.89 299.45 434.76 298.88 433.08 296.79 429.88 299.24 428.77 301.59 426.67 302.56 426.15 303.83 423.78 305.68 424.18 307.72 423.98 312.91 421.25 316.31 418.83 314.18 417.93 314.46 413.86 313.75 401.77 316.26 396.87 313.92 394.16 311.51 391.74 310.08 389.86 307.49 389.71 303.92 391.24 302.36 390.82 301.14 388.75 300 386.39 299.56 384.02 297.12 382.88 294.71 381.07 293.98 379.75 292.5 375.29 291.63 373.97 288.85 374.67 287.43 373.12 285.15 374.77 281.71 374.86 280.29 376.67 278.26 374.76 275.2 374.42 273 372.68 269.82 372.53 265.26 373.51 263.72 372.67 261.68 373.04 257.66 372.15 253.92 370.46 252.51 363.59 253.14 360.45 252.42 359.69 249.05 360.4 246.28 357.83 244.66 357.61 243.38 355.23 238.58 356.55 235.12 359.04 233.42 362.77 228.77 368.76 225.42 369.33 223.51 370.74 222.46 371.28 220.7 371.14 217.34 369.37 214.04 367.96 213.29 367.54 209.01 370.56 200.47 369.27 198.08 369.61 195.77 371.8 189.73 374.86 187.02 376.64 184.23 377.6 181.66 379.11 181.16 380.03 178.41 381.97 176.35 382.54 174.4 384.1 171.99 386.76 165.93 390.28 163.15 386.75 160.83 386.46 156.01 384.78 151.99 383.83 151.83 382.58 148.12 380.53 147.54 376.09 142.28 374.78 136.74 373.89 135.2 373.92 133.32 372.15 128.35 370.51 127.14 369.73 125.06 368.2 117.97 366.81 116.35 366.98 115.03 365.84 113.17 365.86 110.65 364.27 108.43 364.08 106.51 365.17 105.95 365.91 103.77 365.21 101.19 365.88 98.09 363.16 93.25 362.58 89.83 363.52 87.26 362.33 84.83 363.22 82.66 363.61 78.93 365.38 77.82 372.03 78.07 373.34 77.31 377.33 77.06 379.45 73.57 382.44 73.26 385.72 73.5 387.8 72.97 389.26 71.59 392.16 71.49 394.18 69.27 393.32 66.9 394.26 64.47 395.42 63.61 393.66 60.09 393.44 58.05 392.09 56.88 391.99 54.33 392.61 51.74 393.71 50.47 393.97 47.38 393.24 44.63 393.92 43.41 399.83 46.97 408.7 55.25 409.57 58.09 413.29 64.84 414.26 65.98 420.01 69.8 424.01 71.96 431.38 72.69 434.74 72.62 437.21 70.67 440.36 69.27 444.47 68.24 448.73 68.68 450.93 69.59 455.4 70.17 459.93 70.19 476.32 67.76 481.85 67.71 495.07 67.19 497.4 67.81 505.28 69.07 508.3 71.56 515.44 76.31 521.52 79.46 524.18 80.1 534.75 89.36 538.17 92.74 541.79 94.68 544.2 94.95 550.9 94.92 554.05 94.41 559.1 92.58 562.07 90.47 566.1 89.97 574.53 89.37 Z" id="36520110"/>
<path d="M 591.77 183.14 596.49 191.86 600.87 194.19 603.69 196.63 606.26 197.95 612.77 199.73 615.5 201.95 619.41 204 623.1 206.44 625.59 207.62 629.65 210.26 636.4 210.54 640.11 211.91 643.96 214.84 646.45 219.85 649.29 229.87 649.9 235.75 650.46 238.18 653.34 241.26 655.09 243.84 657.68 250.93 662.19 254.17 666.99 256.07 668.64 256.02 672.5 258.97 679.3 265.02 683.17 267.59 688.09 272.62 693.5 276.57 695.01 278.09 698.44 285.57 698.51 291.11 699.88 293.46 700.4 295.66 699.61 306.99 697.48 312.26 692.48 316.09 691.53 317.74 690.29 320.49 689.3 324.41 688.88 327.82 690.36 330.66 691.63 334.38 693.41 337.97 698.48 344.22 700.87 347.62 705.22 351.05 707.58 353.47 707.94 354.58 703.89 360.72 702.05 365.16 701.55 368.55 701.42 374.25 701.59 383.75 702.66 386.7 706.67 401.37 709.52 407.49 711.23 410.26 711.96 412.7 712.73 420.39 708 423.23 704.91 426.25 702.93 428.91 694.82 438.14 692.36 439.99 690.12 437.79 685.37 434.41 681.31 433.57 678.08 428.83 675.9 427.04 672.49 425.11 671.22 420.97 671.6 418.82 670.06 416.79 667.02 415.13 663.55 417.44 660.75 417.69 658.51 418.99 656.68 418.77 653.78 419.62 651.05 418.77 647.92 418.87 644.8 420.96 643.18 423.3 640.17 424.78 639.25 423.93 636.32 423.03 635.5 421.81 632.16 419.27 632.26 416.9 629.7 415.81 627.42 413.43 622.37 414.63 614.94 413.23 611.07 414.05 604.49 413.68 604.47 411.64 603.57 407.37 602.22 404.6 598.93 401.17 597.86 399.3 593.8 397.15 593.78 396.48 590.33 393.76 588.6 393.3 581.74 390.32 579.84 390.51 575.14 387.54 573.33 385.29 573.36 381.57 572.14 377.44 571.94 374.68 570.59 371.47 570.08 366.03 570.26 363.02 571.1 360.71 570.25 357.52 569.14 355.23 568.97 351.85 566.24 346.83 565.43 343.96 562.15 342.78 558.53 339.72 556.45 339.12 551.56 336.91 549.25 334.97 545.35 334.8 543.82 335.56 539.75 334.49 532.55 336.91 530.46 339.24 526.53 342.32 523.75 341.24 521.78 342.01 518.58 347.78 521.04 353.73 519.36 354.54 517.59 358.05 516.46 362.38 516.96 363.48 516.73 366.54 515.19 370.48 515.3 372.69 512.89 372.24 509.7 372.99 506.03 371.32 503.31 371.78 500.01 370.37 493.93 369.14 491.3 369.8 489.3 368.21 485.21 367.36 483.28 367.45 478.82 366.34 476.96 366.39 473.36 364.72 469.52 364.89 467.83 366.22 464.35 366.75 461.52 366.6 458.47 363.42 457.6 364.4 455.17 364.46 453.81 367.48 451.19 370.17 450.23 371.93 448.65 371.87 446.56 373.32 444.77 373.37 443.28 374.4 440.72 370.22 441.38 367.87 441.19 358.8 440.74 356.95 437.73 353.18 435.95 351.89 434.95 350.2 430.85 346.6 429.9 343.43 429.72 338.92 427.02 336.94 426.15 335.19 427.17 331.26 425.72 328.3 423.69 327.49 421.03 323.17 420.62 318.96 421.25 316.31 423.98 312.91 424.18 307.72 423.78 305.68 426.15 303.83 426.67 302.56 428.77 301.59 429.88 299.24 433.08 296.79 434.76 298.88 436.89 299.45 440.56 298.93 442.23 294.79 444.53 293.54 446.62 287.81 446.65 286.46 448.39 280.44 450.58 277.35 453.88 276.27 454.83 275.17 455.16 270.91 457.38 271.03 460.22 270.32 461.51 268.24 463.24 268.1 465.03 268.9 468.52 267.97 471.97 265.67 471.41 260.38 473.4 258.95 472.43 256.6 471.97 253.4 474.14 250.53 475.86 249.6 477.46 245.72 479.86 244.26 480.59 241.57 481.74 241.22 482.92 238.04 482.81 233.88 484.87 231.23 485.35 228.78 487.66 230.94 489.28 229.62 493.26 228.27 496.47 225.28 497.09 223.7 498.87 223.7 499.66 222.09 502.99 222.38 506.55 220.44 507.97 220.56 510.39 222.42 513.07 223.79 513.22 222.44 516.48 217.98 515.51 213.75 517.03 209.01 516.8 205.82 517.47 202.29 516.6 199.77 516.85 196.99 518.64 195.82 520.4 192.41 520.66 190.22 519.96 188.45 522.32 186.76 521.79 184.43 523.04 183.21 525.72 182.61 526.87 181.07 527.74 177.05 529.79 176.85 530.42 175.15 528.58 173.44 529.01 170.2 527.54 168.16 531.44 164.11 534.8 161.59 536.73 158.74 539.14 156.42 541.54 153.32 545.48 153.83 547.32 155.2 551.84 162.02 552.78 164.11 553.47 167.46 554.5 169.36 556.03 169.83 561.2 170.3 565.28 172.43 567.69 173.09 574.42 176.3 577.33 176.74 579.94 177.98 580.83 180.1 581.34 187.66 585.34 187.07 587.66 185.28 591.77 183.14 Z" id="36520310"/>
</g>
</svg>