<?xml version="1.0"?>
<svg xmlns="http://www.w3.org/2000/svg" version="1.2" baseProfile="tiny" width="800" height="1021" viewBox="0 0 800 1021" stroke-linecap="round" stroke-linejoin="round">
<g id="dong">
<path d="M 290.09 534 297.02 534.63 303.83 536.48 310.23 537.53 313.4 538.29 316.37 543.51 317.06 548.57 318.89 556.73 319.09 560.33 318.09 565.76 318.93 570.61 322.9 575.97 326.45 578.56 329.55 577.75 334.85 582.52 339.96 585.88 342.96 586.64 346.53 586.43 350.98 588.48 354.08 589.13 356.63 590.84 357.81 593.35 359.09 598.79 359.89 598.76 361.97 608.77 366.39 615.72 359.99 620.35 351.69 622.98 346.41 624.18 336.59 628.48 329.55 633.72 321.84 642.74 316.3 647.78 314.64 652.72 314.56 660.72 312.46 675.13 313.12 688.09 312.82 701.68 313.36 707.93 314.89 715.27 314.91 728.87 311.06 740.45 308.36 747.66 305.7 752.34 300.53 759.4 292.63 769.11 285.82 766.79 280.89 765.89 278.6 763.92 264.41 754.16 261.22 752.76 255.93 747.69 250.43 745.79 244.24 742.46 240.93 737.43 238.66 734.92 225.5 723.26 224.12 720.48 220.13 715.28 215.66 708.06 213.84 705.82 209.6 702.47 204.72 699.81 199.43 696.26 193.68 693.22 182 683.38 176.7 679.85 169.95 674.5 164.16 671.28 159.72 669.69 153.34 666.81 150.57 666.09 148.28 673.49 144.98 672.31 138.92 671.33 133.52 669.84 132.61 669.46 125.73 669.67 126.04 667.41 119.84 664.97 116.31 664.08 105.3 663.53 94.93 664.25 81.98 667.31 74.84 668.37 66.85 668.83 49.62 662.79 41.03 658.1 35.32 652.73 31.64 650.29 30.64 640.41 29.71 637.28 27.51 633.73 23.85 625.86 18.7 607.03 17.33 603.24 17.11 591.04 17.27 583.71 17.91 579.36 20.27 573.65 25.48 565.77 25.02 564.34 21.98 561.23 16.41 556.82 13.33 552.46 6.83 544.43 4.54 539.82 2.9 535.05 1 531.4 1.54 527.02 2.82 521.98 4.4 518.44 6.82 521.6 11.6 523.32 12.62 527.16 13.87 528.01 22.92 529.33 24.99 528.3 33.01 529.59 35.02 528.28 37.01 522.46 39.17 520.21 43.41 519.83 48.65 517.58 50.62 517.9 52.15 514.53 55.51 512.29 56.84 507.89 61.43 502.86 64.56 501.65 67.34 496.65 69.22 489.06 73.22 484.99 77.53 483.95 83.25 483.24 93.73 485.5 96.3 484.96 96.79 482.82 100.22 480.54 103.3 479.48 106.03 475.28 105.26 473.11 106.58 470.65 111.77 468.84 111.48 478.65 112.98 482.48 113.73 486.71 112.82 492.29 113.08 495.33 111.68 499.4 109.98 501.3 110.75 507.97 113.01 511.54 117.54 516.69 118.74 522.72 121.14 527.42 123.86 529.54 123.3 532.42 125.17 533.35 128.24 533.17 133.32 535.25 136.24 535.37 137.71 536.64 139.66 535.5 142.77 537.6 145.66 536.75 147.89 538.11 154.51 538.22 156.37 539.78 159.21 543.93 160.33 542.11 160.82 535.18 164.79 530.66 165.96 526.96 169.61 526.66 171.42 525.22 175.21 519.79 177.31 520.1 181.83 522.75 184.81 522.68 187.78 525.87 190.94 525.85 193.81 529.04 193.22 532.1 195.06 535.1 198.74 534.88 200.23 536.1 206.16 536.9 209.85 540.87 212.94 542.12 217.31 540.55 221.77 540.57 224.27 541.92 225.2 544.38 228.34 546.15 232.82 546.78 237.52 545.87 238.23 548.51 241.37 549.3 242.38 553.9 246.13 555 249.49 552.1 253.25 551.51 258.92 549.2 260.06 547.55 264.67 544.18 267.8 542.58 272.58 544.3 276.44 546.73 279.69 545.73 281.54 543.77 285.89 544.03 290.59 542.76 290.86 538.89 289.92 536.8 290.09 534 Z" id="36530110"/>
<path d="M 511.2 675.54 512.12 681.43 514.83 681.65 517.55 684.41 518.17 689.61 520.01 693.8 518.5 696.44 516.62 697.07 515.99 699.64 514.45 701.31 516.08 703.39 515.29 706.73 512.71 711.89 514.22 716.58 517.74 722.41 516.72 726.67 518.16 728.44 517.28 731.28 516.82 738.97 517.47 740.97 516.09 745.09 516.66 746.9 514.56 750.22 509.9 751.24 507.12 755.43 502.63 756.31 500.6 760.71 500.43 767.15 493.95 771.18 484.5 778.46 483.73 780.55 479.5 782.54 477.24 782.05 476.62 786.49 474.87 788.22 474.8 790.42 472.76 792.55 476.11 798.81 476.64 801.51 476.12 805.46 476.44 814.61 479.27 819.35 479.06 820.71 475.08 824.97 475.98 827.79 475.01 829.47 477.06 833.49 474.75 836.99 476.21 838.77 475.6 843.8 475.88 847.94 477.75 850.22 478.4 853.39 481.47 856.09 481.7 859.56 484.53 867.89 484.85 871.56 483.08 873.46 483.13 877.11 481.9 878.47 482.31 880.99 481.3 885.07 482.38 888.35 480.18 895.39 476.64 897.42 475.73 898.95 472.93 900.59 472.49 903.28 470.19 906.36 465.33 907.88 460.08 906.79 450.35 909.74 446.07 909.04 440.13 909.39 436.7 908.65 434.27 906.39 432.44 906.26 428.22 908.89 424.51 908.85 422.67 907.1 418.63 906.94 407.53 899.11 402.45 896.8 404.19 893.89 407.1 891.74 407.43 887.14 408.68 885.76 409 879.01 407.9 877.49 408.3 874.4 402.83 868.96 401.52 866.61 396.83 862.97 394.74 859.63 392.45 858.96 392.34 857.2 386.96 849.34 385.07 844.5 384.7 838.89 381.18 836.46 376.37 836.02 373.31 833.07 369.81 825.14 368.77 824.01 368.95 818.42 367.43 818.74 362.39 814.38 361.72 811.57 360.07 808.83 356.23 804.27 350.96 803.52 344.73 798.44 341.56 796.7 339.57 797.56 332.02 792.76 329.32 793.84 326.08 791.44 323.67 788.35 321.37 781.96 318.99 778.76 311.55 772.76 310.94 770.77 304.05 770.5 300.23 770.83 292.63 769.11 300.53 759.4 305.7 752.34 308.36 747.66 311.06 740.45 314.91 728.87 314.89 715.27 313.36 707.93 312.82 701.68 313.12 688.09 312.46 675.13 314.56 660.72 314.64 652.72 316.3 647.78 321.84 642.74 329.55 633.72 336.59 628.48 346.41 624.18 351.69 622.98 359.99 620.35 366.39 615.72 375.98 612.41 380.5 612.5 388.66 613.92 392.78 616.32 397.48 620.11 400.86 627.64 401.21 630.28 403.38 635.4 411.47 643.66 414.49 647.36 416.43 646.64 423.36 647.64 431.6 651.42 437.72 653.37 448.56 657.7 454.51 661.18 459.05 664.48 464.82 669.5 471.17 674.5 477.28 675.05 486.85 676.62 503.42 677.82 511.2 675.54 Z" id="36530310"/>
<path d="M 778.75 656.12 783.42 660.98 787.76 667.24 792.76 678.48 799 687.38 797 686.93 793.68 690.95 791.02 693.21 787.31 694.12 784.61 697.05 785.2 706.8 781.48 712.28 779.83 717.56 773.5 722.53 771.53 732.84 772.86 736.24 771.12 741.94 768.63 741.72 766.37 743.99 763.57 750.44 760.69 751.57 757.93 754.33 756.4 754.85 756.27 757.7 754.55 760.23 752.61 761.3 752.72 763.83 751.5 766.38 746.48 769.22 746.01 773.24 744.78 775.88 745.29 780.95 744.49 783.23 742.31 785.92 742.61 791.57 741.94 795.83 742.11 799.07 739.03 806.43 739.13 808.77 736.64 811.69 736.47 818.18 735.78 822.32 737.53 823.87 738.99 831.72 737.83 833.6 740.82 836.38 743.83 835.63 744.81 837.59 744.97 843.59 744.1 848.9 744.27 852.26 742.72 857.77 741.66 859.35 741.85 862.42 739.36 864.78 737.09 873.75 737.28 876 739.42 879.29 741.17 885.74 739.57 891.46 739.8 894 738.92 898.13 738.63 906.91 737.03 917.2 736.88 929.16 727.85 926.74 724.15 926.56 720.27 923.53 717.58 919.9 714.4 918.99 708.18 915.81 705.5 916.63 704.36 918.85 700.77 920.89 699.25 922.93 695.38 924.99 689.73 923.12 687.71 923.26 684.88 924.92 683.86 926.54 679.52 927.76 674.16 927.71 672.87 931.14 670.05 933.61 667.34 939.32 663.41 942.38 655.41 947.56 651.95 948.31 647.87 948.95 645.48 951.59 640.4 953.38 637.51 955.55 632.95 956.94 629.46 960.65 627.56 964.55 621.31 966.13 617.6 965.25 612.27 968.58 612.61 975.21 611.17 977.5 612.75 981.95 612.08 985.22 612.67 991.92 611.05 996.87 608.45 1000.44 607.86 1003.72 605.6 1007.35 601.35 1012.59 599.8 1016.44 595.9 1016.73 594.24 1015.69 591.45 1016.04 589.42 1017.36 583.65 1017.7 577.13 1020 572.76 1015.19 571.22 1012.68 567.3 1010.91 565.29 1010.99 560.82 1007.39 556.42 1005.28 551.53 1003.82 546.29 1001.57 543.14 997.73 538.04 995.35 536.65 991.99 530.51 988.56 528.45 985.18 523.91 982.78 522.51 980.78 523.29 979.42 519.29 974.27 516.76 972.65 513.59 967.69 514.31 961.76 513.71 958.66 514.42 957.26 513.54 953.2 511.2 951.86 504.52 951.62 498.01 947.34 495.21 942.87 496.49 940.26 496.08 938.43 491.27 934.7 484.26 930.27 479.77 929.1 478.95 924.58 480.78 921.54 477.88 915.34 476.17 913.99 476.52 908.17 472.49 903.28 472.93 900.59 475.73 898.95 476.64 897.42 480.18 895.39 482.38 888.35 481.3 885.07 482.31 880.99 481.9 878.47 483.13 877.11 483.08 873.46 484.85 871.56 484.53 867.89 481.7 859.56 481.47 856.09 478.4 853.39 477.75 850.22 475.88 847.94 475.6 843.8 476.21 838.77 474.75 836.99 477.06 833.49 475.01 829.47 475.98 827.79 475.08 824.97 479.06 820.71 479.27 819.35 476.44 814.61 476.12 805.46 476.64 801.51 476.11 798.81 472.76 792.55 474.8 790.42 474.87 788.22 476.62 786.49 477.24 782.05 479.5 782.54 483.73 780.55 484.5 778.46 493.95 771.18 500.43 767.15 500.6 760.71 502.63 756.31 507.12 755.43 509.9 751.24 514.56 750.22 516.66 746.9 516.09 745.09 517.47 740.97 516.82 738.97 517.28 731.28 518.16 728.44 516.72 726.67 517.74 722.41 514.22 716.58 512.71 711.89 515.29 706.73 516.08 703.39 514.45 701.31 515.99 699.64 516.62 697.07 518.5 696.44 520.01 693.8 518.17 689.61 517.55 684.41 514.83 681.65 512.12 681.43 511.2 675.54 515.21 672.85 522.13 666.52 524.23 665.21 533.32 660.9 550.08 658.84 555.49 659.11 567.44 661.11 575.87 661.18 583.99 659.83 595.69 654.3 601.21 648.58 603.84 644.7 606.59 641.93 610.22 639.72 614.24 638.54 621.75 637.14 624.9 635.9 631.46 630.92 635.25 629.07 641.64 628.79 653.38 622.64 658.16 621.82 662.19 620.29 668.76 619.78 671.45 620.15 675.06 617.51 683.97 614.7 692.94 614.57 697.61 615.49 704.06 619.49 707.58 620.79 710.99 623.05 716.53 623.22 720.16 624.21 727.88 625.09 738.72 628.2 751.07 632.49 753.48 633.72 757.08 638.57 762.32 643.55 766.04 648.26 769.24 650.81 776.89 654.37 778.75 656.12 Z" id="36530320"/>
<path d="M 778.75 656.12 776.89 654.37 769.24 650.81 766.04 648.26 762.32 643.55 757.08 638.57 753.48 633.72 751.07 632.49 738.72 628.2 727.88 625.09 720.16 624.21 716.53 623.22 710.99 623.05 707.58 620.79 704.06 619.49 697.61 615.49 692.94 614.57 683.97 614.7 675.06 617.51 671.45 620.15 668.76 619.78 662.19 620.29 658.16 621.82 653.38 622.64 641.64 628.79 635.25 629.07 631.46 630.92 624.9 635.9 621.75 637.14 614.24 638.54 610.22 639.72 606.59 641.93 603.84 644.7 601.21 648.58 595.69 654.3 583.99 659.83 575.87 661.18 567.44 661.11 555.49 659.11 550.08 658.84 533.32 660.9 524.23 665.21 522.13 666.52 515.21 672.85 511.2 675.54 503.42 677.82 486.85 676.62 477.28 675.05 471.17 674.5 464.82 669.5 459.05 664.48 454.51 661.18 448.56 657.7 437.72 653.37 431.6 651.42 423.36 647.64 416.43 646.64 414.49 647.36 411.47 643.66 403.38 635.4 401.21 630.28 400.86 627.64 404.29 624.44 405.91 621.95 405.77 616.63 410.92 611.8 414.46 613.45 416.17 610.69 410.33 607.36 410.51 605.25 416.38 606.66 422.67 611.44 428.82 607.99 433.43 608.69 440.93 603.69 443.23 600.43 449.26 594.92 449.63 589.84 455.35 583.06 454.66 579.84 457.1 579.13 458.99 577.09 457.8 572.45 460 567.85 461.7 566.81 461.13 563.09 459.86 560.35 454.4 555.22 453.23 551.67 454.44 549.88 455.17 545 455.37 539.88 456.54 537.63 454.66 534.5 454.49 529.21 456.15 525.74 456.54 519.86 459.36 515.15 463.68 504.8 463.56 502.24 465.31 493.6 469.62 488.11 468.74 484.69 469.62 482.71 468.63 480.41 469.11 478.56 468.05 475.69 469.14 469.54 472.46 463.76 472.32 459.72 475.85 453.81 473.65 451.11 471.6 447.41 468.85 446.39 464.06 439.1 465.38 435.76 464.64 434.43 467.56 428.25 467.59 425.79 472.07 416.99 473.96 415.8 474.06 413.74 476.75 407.26 476.26 402.61 476.34 397.82 477.97 393.95 476.64 390.82 476.03 387.15 479.01 383.11 478.83 379.9 481.02 375.35 483.38 373.16 484.24 370.03 483.68 368.57 485.04 361.72 484.26 355.29 483.01 353.24 483.11 350.1 484.47 344.49 488.43 337.34 489.48 331.89 495.16 326.43 495.55 323.74 494.81 319.94 494.59 312.68 493.61 309.6 491.63 307.23 494.76 300.69 493.83 297.13 496.73 287.75 497.31 282.58 498.91 280.66 498.44 275.01 499.53 272.01 501.2 270.01 508.51 268.01 519.75 267.84 526.73 266.46 536.28 265.03 551.47 259.71 554.64 259.41 557.51 257.82 561.89 249.34 562.38 246.71 573.24 243.75 577 245.57 578.07 243.87 582.52 241.83 585.07 242.1 589.15 237.96 593.83 236 597.49 233.39 601.84 231.16 603.07 228.9 606.5 227.99 613.41 220.91 620.4 217.65 622.79 215.66 625.45 208.83 633.41 200.97 634.41 198.2 637.34 202.38 650.37 212.01 648.51 213.91 647.05 218.06 646.08 222.67 646.18 231.09 647.16 237.01 648.62 241.04 648.79 253.11 650.32 263.83 654.32 266.25 664.78 274.08 667.07 277.88 671.13 278.99 674.02 286.58 676.37 290.12 680.19 299.54 681.92 305.13 684.99 311.02 686.42 316.13 688.62 318.51 688.7 320.61 690.19 325.05 692.1 328.18 693.07 331.25 692.65 335.75 695.1 341.19 700.45 346.55 707.08 350.75 706.96 352.99 708.7 357.8 707.57 365.37 708.72 365.47 713.37 368.22 719.54 370.45 725.9 371.19 728.76 374.43 729.13 376.42 731.29 377.31 734.01 377.02 735.6 380.12 738.69 382.67 744.4 384.75 747.55 386.95 751.31 387.05 752.4 388.05 753.05 392.38 755.3 396.26 756.65 403.19 755.87 405.6 758.35 411.28 758.81 415.48 760.33 420.34 767.64 430.12 768.41 431.9 766.49 435.07 764.74 435.22 762.51 439.47 759.76 441.08 761.94 450.28 762.15 452.64 763.52 454.83 762.25 456.6 761.89 462.14 761.11 465.02 763.92 469.38 767.47 470.54 768.46 472.53 773.13 475.06 773.67 478.16 775.52 479.91 778.51 485.47 781.24 487.56 779.75 494.75 780.2 496.95 779.25 502.06 779.25 505.12 780.73 506.6 781.36 512.01 783.87 517.08 783.08 518.87 783.71 523.01 786.93 527.78 787.13 531.44 786.12 534.34 786.31 540.04 784.65 541.96 784.61 548.08 786.92 552.12 785.94 552.72 786.66 565.83 786.16 568.75 786.24 574.04 784.57 575.06 781.49 578.58 776.14 583.83 774.98 585.71 775.31 588.92 774.74 591.82 774.71 597.46 776.24 601.01 776.82 605.43 776.13 609.91 777.79 611.65 778.3 615.32 778.18 622.78 780.96 626.61 784.39 629.79 784.39 641.32 785.64 642.56 788.61 649.64 789.08 652.7 783.38 653.86 778.75 656.12 Z" id="36530330"/>
<path d="M 499.53 272.01 498.44 275.01 498.91 280.66 497.31 282.58 496.73 287.75 493.83 297.13 494.76 300.69 491.63 307.23 493.61 309.6 494.59 312.68 494.81 319.94 495.55 323.74 495.16 326.43 489.48 331.89 488.43 337.34 484.47 344.49 483.11 350.1 483.01 353.24 484.26 355.29 485.04 361.72 483.68 368.57 484.24 370.03 483.38 373.16 481.02 375.35 478.83 379.9 479.01 383.11 476.03 387.15 476.64 390.82 477.97 393.95 476.34 397.82 476.26 402.61 476.75 407.26 474.06 413.74 473.96 415.8 472.07 416.99 467.59 425.79 467.56 428.25 464.64 434.43 465.38 435.76 464.06 439.1 468.85 446.39 471.6 447.41 473.65 451.11 475.85 453.81 472.32 459.72 472.46 463.76 469.14 469.54 468.05 475.69 469.11 478.56 468.63 480.41 469.62 482.71 468.74 484.69 469.62 488.11 465.31 493.6 463.56 502.24 463.68 504.8 459.36 515.15 456.54 519.86 456.15 525.74 454.49 529.21 454.66 534.5 456.54 537.63 455.37 539.88 455.17 545 454.44 549.88 453.23 551.67 454.4 555.22 459.86 560.35 461.13 563.09 461.7 566.81 460 567.85 457.8 572.45 458.99 577.09 457.1 579.13 454.66 579.84 455.35 583.06 449.63 589.84 449.26 594.92 443.23 600.43 440.93 603.69 433.43 608.69 428.82 607.99 422.67 611.44 416.38 606.66 410.51 605.25 410.33 607.36 416.17 610.69 414.46 613.45 410.92 611.8 405.77 616.63 405.91 621.95 404.29 624.44 400.86 627.64 397.48 620.11 392.78 616.32 388.66 613.92 380.5 612.5 375.98 612.41 366.39 615.72 361.97 608.77 359.89 598.76 359.09 598.79 357.81 593.35 356.63 590.84 354.08 589.13 350.98 588.48 346.53 586.43 342.96 586.64 339.96 585.88 334.85 582.52 329.55 577.75 326.45 578.56 322.9 575.97 318.93 570.61 318.09 565.76 319.09 560.33 318.89 556.73 317.06 548.57 316.37 543.51 313.4 538.29 310.23 537.53 307.36 526.36 302.01 523.63 299.55 518.81 294.75 515.81 293.43 512.3 296.27 509.13 295.96 506.12 299.37 502.75 298.82 497.08 301.92 494.89 305.32 494.25 310.43 491.52 312.02 491.23 313.43 488.53 317.94 485.25 319.78 482.88 322.54 480.94 325.6 479.95 328.85 477.42 334.02 474.79 339.42 472.79 341.4 471.12 339.91 465.56 346.38 463.42 348.57 455.21 351.87 452.38 358.1 448.92 363.17 442.33 368.17 439.42 369.49 434.19 370.94 431.81 374.13 428.55 372.54 419.27 373.49 418.32 372.94 415.16 370.35 412.44 370.1 410.83 366.53 409.03 364.3 404.86 364.99 401.64 367.58 396.58 371.05 395.4 372.59 393.01 375.02 391.8 379.6 388.32 381.75 387.47 383.2 384.63 387.17 381.9 387.94 380.37 393.17 374.3 396.25 368.45 395.87 367.37 397.14 363.16 396.86 359.39 399.42 355.85 401.16 351.64 400.79 349.03 403.64 346.2 404.33 340.75 409.23 338.02 409.98 334.76 413.18 332.9 414.33 331.05 416.42 324.33 418.63 321.39 419.84 318.54 419 315.71 421.32 310.49 424.72 307.3 427.67 305.99 432.09 294.99 437.99 291.03 442.15 289.51 444.38 285.99 447.83 282.56 450.19 277.15 450.99 272.81 454.35 268.01 456.06 264.39 460.32 259.15 465.07 259.05 466.65 258.19 475.38 258.04 480.7 259.55 488.47 264.76 491.43 269.52 497.3 270.76 499.53 272.01 Z" id="36530340"/>
<path d="M 460.32 259.15 456.06 264.39 454.35 268.01 450.99 272.81 450.19 277.15 447.83 282.56 444.38 285.99 442.15 289.51 437.99 291.03 432.09 294.99 427.67 305.99 424.72 307.3 421.32 310.49 419 315.71 419.84 318.54 418.63 321.39 416.42 324.33 414.33 331.05 413.18 332.9 409.98 334.76 409.23 338.02 404.33 340.75 403.64 346.2 400.79 349.03 401.16 351.64 399.42 355.85 396.86 359.39 397.14 363.16 395.87 367.37 396.25 368.45 393.17 374.3 387.94 380.37 387.17 381.9 383.2 384.63 381.75 387.47 379.6 388.32 375.02 391.8 372.59 393.01 371.05 395.4 367.58 396.58 364.99 401.64 364.3 404.86 366.53 409.03 370.1 410.83 370.35 412.44 372.94 415.16 373.49 418.32 372.54 419.27 374.13 428.55 370.94 431.81 369.49 434.19 368.17 439.42 363.17 442.33 358.1 448.92 351.87 452.38 348.57 455.21 346.38 463.42 339.91 465.56 341.4 471.12 339.42 472.79 334.02 474.79 328.85 477.42 325.6 479.95 322.54 480.94 319.78 482.88 317.94 485.25 313.43 488.53 312.02 491.23 310.43 491.52 305.32 494.25 301.92 494.89 298.82 497.08 299.37 502.75 295.96 506.12 296.27 509.13 293.43 512.3 294.75 515.81 299.55 518.81 302.01 523.63 307.36 526.36 310.23 537.53 303.83 536.48 297.02 534.63 290.09 534 282.98 530.21 278.6 526.52 276.26 523.04 273.41 517.56 271.63 511.33 268.74 506.52 266.59 504.72 261.61 504.44 257.41 501.42 254.27 497.87 253.64 496.05 256.33 491.23 255.14 488.73 253.04 486.77 248.57 484.43 246.18 478.94 245.15 472.07 242.66 464.21 241.16 461.08 236.15 454.43 241.05 453.98 243.19 454.57 244.75 453.51 248.55 454.45 250.67 451.63 252.03 447.11 254.76 445.4 254.76 441.56 256.3 438.38 259.39 435.55 264.14 433.14 267.28 430.47 269.36 427.21 269.72 423.13 267.38 419.86 267.93 418.55 272.26 417.45 273.63 413.91 278.43 412.46 280.67 410.8 282.97 406.6 286.74 405.23 287.62 402.12 290.52 398.88 288.4 395.99 286.71 397.61 280.42 398.08 275.18 399.3 268.86 401.67 263.28 402.82 257.85 401.91 253.56 402.3 246.87 401.6 241.46 403.03 237.29 406.93 234.59 405.76 233.27 407.37 231.36 405.77 222.28 399.95 219.5 399.33 210.66 384.43 208.58 382.6 202.32 380.43 195.86 377.46 192.4 374.05 189.39 368.06 186.32 365.65 178.68 361.8 177.31 352.51 179.57 348.3 187.01 342.37 191.6 339.48 192.95 337.64 191.17 334.91 197.47 329.79 196.69 324.24 197.84 321.54 197.19 318.17 198.48 315.16 201.61 314.76 203.51 312.45 206.77 305.42 212.19 301.48 216.17 300.28 219.05 301.18 220.07 296.71 221.22 295.79 222.57 291.29 224.56 288.17 226.53 283.4 231.78 277.55 233.81 273.58 236.88 273.2 240.22 270.69 243.2 270.27 247.34 272.86 248.48 274.41 253.29 272.51 254.36 273.32 258.66 273.27 259.72 271.95 263.9 271.12 267.11 269.01 271.04 269.62 273.42 271.83 277.33 272.73 281.23 272.13 285.29 270.44 289.91 272.73 292.92 274.78 295.57 278.9 300.08 281.99 301.64 285.65 304.81 283.7 306.05 280.33 313.52 277.54 315.86 276.12 318.4 276.8 322.44 276.67 323.72 274.79 326.39 275.36 331.67 272.03 334.26 269.15 337.65 269.45 344.65 265.8 346.33 265.65 349.12 267.37 352.61 266.44 355.36 267.65 359.49 263.86 368.03 263.53 373.17 265.45 376.84 264.68 378.41 263.54 380.11 260.6 383.74 257.72 384.06 253.74 386.1 250.99 388.03 250.14 391.36 245.41 393.24 244.68 397.75 240.3 400.48 236.23 404.26 234.58 406.96 234.11 412.52 238.97 413.14 241.83 417.88 242.19 424.5 246.17 431.48 245.31 436.95 246.33 443.07 249.96 446.65 250.74 447.96 253.36 457.6 254.08 460.32 259.15 Z" id="36530350"/>
<path d="M 191.17 334.91 192.95 337.64 191.6 339.48 187.01 342.37 179.57 348.3 177.31 352.51 178.68 361.8 186.32 365.65 189.39 368.06 192.4 374.05 195.86 377.46 202.32 380.43 208.58 382.6 210.66 384.43 219.5 399.33 222.28 399.95 231.36 405.77 233.27 407.37 234.59 405.76 237.29 406.93 241.46 403.03 246.87 401.6 253.56 402.3 257.85 401.91 263.28 402.82 268.86 401.67 275.18 399.3 280.42 398.08 286.71 397.61 288.4 395.99 290.52 398.88 287.62 402.12 286.74 405.23 282.97 406.6 280.67 410.8 278.43 412.46 273.63 413.91 272.26 417.45 267.93 418.55 267.38 419.86 269.72 423.13 269.36 427.21 267.28 430.47 264.14 433.14 259.39 435.55 256.3 438.38 254.76 441.56 254.76 445.4 252.03 447.11 250.67 451.63 248.55 454.45 244.75 453.51 243.19 454.57 241.05 453.98 236.15 454.43 241.16 461.08 242.66 464.21 245.15 472.07 246.18 478.94 248.57 484.43 253.04 486.77 255.14 488.73 256.33 491.23 253.64 496.05 254.27 497.87 257.41 501.42 261.61 504.44 266.59 504.72 268.74 506.52 271.63 511.33 273.41 517.56 276.26 523.04 278.6 526.52 282.98 530.21 290.09 534 289.92 536.8 290.86 538.89 290.59 542.76 285.89 544.03 281.54 543.77 279.69 545.73 276.44 546.73 272.58 544.3 267.8 542.58 264.67 544.18 260.06 547.55 258.92 549.2 253.25 551.51 249.49 552.1 246.13 555 242.38 553.9 241.37 549.3 238.23 548.51 237.52 545.87 232.82 546.78 228.34 546.15 225.2 544.38 224.27 541.92 221.77 540.57 217.31 540.55 212.94 542.12 209.85 540.87 206.16 536.9 200.23 536.1 198.74 534.88 195.06 535.1 193.22 532.1 193.81 529.04 190.94 525.85 187.78 525.87 184.81 522.68 181.83 522.75 177.31 520.1 175.21 519.79 171.42 525.22 169.61 526.66 165.96 526.96 164.79 530.66 160.82 535.18 160.33 542.11 159.21 543.93 156.37 539.78 154.51 538.22 147.89 538.11 145.66 536.75 142.77 537.6 139.66 535.5 137.71 536.64 136.24 535.37 133.32 535.25 128.24 533.17 125.17 533.35 123.3 532.42 123.86 529.54 121.14 527.42 118.74 522.72 117.54 516.69 113.01 511.54 110.75 507.97 109.98 501.3 111.68 499.4 113.08 495.33 112.82 492.29 113.73 486.71 112.98 482.48 111.48 478.65 111.77 468.84 109.3 462.87 107.71 462.48 108.4 457.37 106.84 456.62 103.79 451.2 106.76 446.89 106.46 444.43 107.38 440.88 103.32 436.14 99.2 429.69 99.15 425.23 98.28 422.36 94.8 419.85 94.15 415.35 91.62 412.17 91.66 409.96 90.31 407.28 90.72 401.47 89.38 400.1 86.88 400.52 86.39 395.3 85.38 393.69 86.74 389.88 85.81 388.43 87.14 385.18 84.67 384.35 80.9 380.13 81.97 376.86 81.69 373.97 80.09 373.73 78.27 369.73 78.76 367.35 78.12 361.64 74.27 350.3 77.18 349.3 80.49 349.62 82.48 348.58 88.12 347.97 91.08 346.3 93.91 346.62 94.1 343.89 102.01 342.85 106.05 340.56 112.12 340.83 114 342.11 115.53 340.67 118.54 340.24 119.77 337.98 123.13 336.16 129.47 335.28 130.42 335.99 133.46 333.89 136.49 332.77 140.9 333.91 141.69 332.68 146.72 331.82 153.15 334.14 157.29 337.02 160 336.41 167.01 336.91 170.16 339.18 171.92 337.28 173.97 337.51 178.22 335.84 182.77 336.43 185.67 334.56 191.17 334.91 Z" id="36530360"/>
<path d="M 453.41 53.87 461.71 68.34 465.56 70.96 478.38 73.08 485.91 77.34 492.17 83.96 494.04 87.63 498.59 99.83 506.12 110.5 510.86 113.28 520.2 114.52 533.44 115.18 538.78 119.34 540.57 127.98 540.4 136.29 541.24 138.74 545.25 141.53 549.94 143.68 554.47 144.71 568.7 150.49 572.23 152.49 573.71 157.13 581.25 163.49 585.02 163.01 597.55 166.57 608.99 172.66 613.59 172.9 617.69 174.14 620.36 175.94 627.59 187.75 632.93 194.68 634.41 198.2 633.41 200.97 625.45 208.83 622.79 215.66 620.4 217.65 613.41 220.91 606.5 227.99 603.07 228.9 601.84 231.16 597.49 233.39 593.83 236 589.15 237.96 585.07 242.1 582.52 241.83 578.07 243.87 577 245.57 573.24 243.75 562.38 246.71 561.89 249.34 557.51 257.82 554.64 259.41 551.47 259.71 536.28 265.03 526.73 266.46 519.75 267.84 508.51 268.01 501.2 270.01 499.53 272.01 497.3 270.76 491.43 269.52 488.47 264.76 480.7 259.55 475.38 258.04 466.65 258.19 465.07 259.05 460.32 259.15 457.6 254.08 447.96 253.36 446.65 250.74 443.07 249.96 436.95 246.33 431.48 245.31 424.5 246.17 417.88 242.19 413.14 241.83 412.52 238.97 406.96 234.11 404.26 234.58 400.48 236.23 397.75 240.3 393.24 244.68 391.36 245.41 388.03 250.14 386.1 250.99 384.06 253.74 383.74 257.72 380.11 260.6 378.41 263.54 376.84 264.68 373.17 265.45 368.03 263.53 359.49 263.86 355.36 267.65 352.61 266.44 349.12 267.37 346.33 265.65 344.65 265.8 337.65 269.45 334.26 269.15 331.67 272.03 326.39 275.36 323.72 274.79 322.44 276.67 318.4 276.8 315.86 276.12 313.52 277.54 306.05 280.33 304.81 283.7 301.64 285.65 300.08 281.99 295.57 278.9 292.92 274.78 289.91 272.73 285.29 270.44 281.23 272.13 277.33 272.73 273.42 271.83 271.04 269.62 267.11 269.01 263.9 271.12 259.72 271.95 258.66 273.27 254.36 273.32 253.29 272.51 248.48 274.41 247.34 272.86 243.2 270.27 240.22 270.69 236.88 273.2 233.81 273.58 231.78 277.55 226.53 283.4 224.56 288.17 222.57 291.29 221.22 295.79 220.07 296.71 219.05 301.18 216.17 300.28 212.19 301.48 206.77 305.42 203.51 312.45 201.61 314.76 198.48 315.16 197.19 318.17 197.84 321.54 196.69 324.24 197.47 329.79 191.17 334.91 185.67 334.56 182.77 336.43 178.22 335.84 173.97 337.51 171.92 337.28 170.16 339.18 167.01 336.91 160 336.41 157.29 337.02 153.15 334.14 146.72 331.82 141.69 332.68 140.9 333.91 136.49 332.77 133.46 333.89 130.42 335.99 129.47 335.28 123.13 336.16 119.77 337.98 118.54 340.24 115.53 340.67 114 342.11 112.12 340.83 106.05 340.56 102.01 342.85 94.1 343.89 93.91 346.62 91.08 346.3 88.12 347.97 82.48 348.58 80.49 349.62 77.18 349.3 74.27 350.3 71.11 348.83 69.01 342.33 70.55 336.88 69.78 334.74 69.19 329.37 64.02 330.12 58.51 327.46 50.51 322.75 45.54 323.76 42.26 312.09 41.01 310.29 44.19 306.93 46.3 303.42 44.81 297.15 45.01 291.48 47.02 286.46 46.71 284.47 51.21 275.9 51.32 270.37 53.54 267.73 55.47 267.47 58.2 262.45 60.26 255.84 59.79 249.28 61.06 247.18 54.54 239.2 61.93 235.48 67.91 231.92 69.79 225.79 74.81 222.65 79.58 220.67 80.73 217.42 81 213.82 78.86 208.99 79.71 200.38 83.05 198.09 91.82 194.54 95.08 189.82 99.41 184.37 99.81 177.67 99.45 173.41 100.44 170.29 105.48 162.59 109.52 160.79 117.72 158.35 120.67 156.14 125.37 149.09 129.01 144.23 131.35 139.96 131.35 135.76 134.92 131.92 137.33 126.73 137.56 122.61 144.85 115.96 148.27 112.37 150.3 107.5 151.11 102.2 152.57 96.4 152.7 93.73 156.31 91.78 159.03 87.43 160.23 82.67 163.83 77.5 165.21 70.82 164.69 65.29 167.58 56.22 174.74 54.13 177.77 51.68 176.72 49.28 179.93 47.3 181.08 45.04 186.18 42.91 189.94 39.03 189.81 35.08 193.67 30.8 199.47 27.23 201.58 26.75 204.68 22.55 212.4 17.11 213.3 14.25 215.28 11.37 218.79 11.21 223.92 8.47 228.96 7.07 230.85 8.42 229.12 13.59 232.37 16.69 236.32 17.94 239.62 17.32 244.76 19.49 246.22 15.87 247.97 15.97 253.31 18.15 257.04 16.07 261.14 17.29 263.91 16.63 268.37 18.51 272.74 13.87 275.59 12.89 279.23 13.25 280.96 10.28 281.09 7.94 287.64 7.51 292.5 6.52 294.63 8.51 297.84 8.62 304.84 7.86 306.24 5.55 309.2 5.4 312.83 2.24 316.53 2.15 319.71 1 322.69 3.24 328.51 3.65 330.22 5.54 337.95 5.39 340.19 6.36 344.43 5.2 349.09 7.24 350.53 14.68 361.94 22.71 365.95 27.11 372.83 25.51 377.44 25.16 386.03 25.18 389.63 23.27 393.93 22.94 401.36 21.23 403.62 21.13 410.17 23.48 416.31 26.81 423.34 32.67 428.27 38.36 431.44 43.28 435.07 46.25 439.01 48.11 447.39 49.61 453.41 53.87 Z" id="36530370"/>
</g>
</svg>