<?xml version="1.0"?>
<svg xmlns="http://www.w3.org/2000/svg" version="1.2" baseProfile="tiny" width="800" height="1006" viewBox="0 0 800 1006" stroke-linecap="round" stroke-linejoin="round">
<g id="dong">
<path d="M 434.75 331.37 431.31 332.54 428.82 335.39 428.06 337.12 427.12 341.92 424.96 344.42 422.26 345.03 419.03 345 417.45 345.73 416.5 347.13 415.74 349.61 412.79 351.66 409.11 350.36 406.59 350.01 402.36 347.03 400.13 346.94 398.91 345.11 395.94 344.94 391.72 344.13 391.87 345.21 391.07 348.58 392.05 353.53 393.02 356.21 394.71 364.79 392.55 366.62 387.07 377.33 386.28 379.34 389.04 385.26 391.32 388.05 391.73 392.62 391.12 393.35 391.38 396.72 390.4 399.03 391.6 402.77 392.99 405.42 394.83 410.48 396.69 411.92 397.77 416.62 393.64 418.31 390.41 417.56 387.29 418.81 386.68 420.77 383.52 421.77 383.56 425.38 384.96 428.67 385.59 429.1 386.07 432.86 386.94 436.98 389.04 439.37 387.99 444.62 386.98 446.41 388.13 448.02 392.42 457.45 393.41 459.02 390.61 461.78 390.62 463.28 389.52 464.92 388.06 465.15 387.36 466.25 386.72 469.46 383.97 470.51 383.68 474.23 380.36 478.46 379.04 483.11 375.13 486.39 373.02 487.2 372.06 488.62 369.18 489.56 367.11 489.7 363.35 491.28 361.18 495.18 358.28 495.01 353.27 496.16 352 497.03 348.96 497.58 347.85 501.8 346.55 502.54 346.65 504.85 344.16 505.16 342.91 504.39 341.47 502.34 338.9 500.85 334.39 501.16 333.52 502.08 333.17 504.48 330.3 506.57 329.24 511.28 326.06 512.15 321.89 511.24 319.59 510 319.38 507.84 318.48 506.02 316.87 505.6 316.18 503.56 316.13 501.43 314.21 500.49 313.66 496.91 315.35 492.45 314.82 490.65 315.17 483.97 314.94 480.47 310.74 475.53 310.04 474.15 306.79 472.53 307.32 471.49 304.65 470.36 303.88 469.29 301.05 468.69 295.72 469.42 293.93 471.02 290.77 472.11 287.9 472.12 285.86 473.45 283.8 473.96 282.16 475.8 279.46 475.51 276.48 476.54 272.48 476.24 268.25 474.36 266.96 472.98 265.26 472.35 261.76 473.18 260.56 472.44 259.05 474.88 258.9 479.99 257.55 479.92 255.67 478.36 254.48 479.88 255.06 481.96 254.39 484.9 251.75 488.53 249.85 487.01 244.57 485.49 242.74 485.84 241.02 485.15 239.2 483.18 236.98 483.96 233.67 482.84 233.44 481.97 230.74 481.04 229.21 478.23 228.53 475.97 226.9 475.84 223.8 476.76 222.38 475.18 218.92 473.67 218.1 471.79 218.2 470.48 212.4 469.37 209.19 467.33 205.09 465.92 204.37 463.26 206.8 460.3 207.22 457.92 209.08 454.19 209.69 450.63 211.41 447.04 209.43 444.07 206.55 442.64 205.43 443.28 201.94 443.28 198.93 442.52 195.12 443.74 193.32 442.74 193.05 441.39 190.57 438.45 188.95 437.63 189.15 434.76 188.22 432.28 185.59 432.73 178.13 432.4 173.63 434.06 170.76 433.61 170.69 432 167.92 429.31 164.57 427.92 161.13 427.48 159.15 429.13 155.43 430.11 153.05 433.77 149.68 434.05 147.52 436.63 145.97 436.88 141.33 433.36 141.59 430.45 143.6 427.25 144.19 424.46 146.47 421.91 151.52 420.32 152.36 419.57 155.74 418.39 156.78 415.91 158.83 413.63 160.55 412.59 160.92 410.76 159.51 409.13 158.05 402.74 156.23 399.85 153.61 397.11 151.72 394.66 151.26 392.67 148.53 391.09 149.77 390.06 153.9 388.36 153.42 386.4 151.08 384.84 151.33 382.72 153.35 381.08 152.91 376.63 153.56 373.81 153.41 368.42 153.54 365.25 152.84 363.21 151.16 360.69 149.94 359.75 143.52 356.31 145.93 353.06 145.75 351.59 148.65 349.19 149.95 346.89 152.34 344.5 157.66 343.17 160.76 343.3 162.45 344.51 167 343.74 169.11 342.93 172.25 342.78 174.94 341.09 175.41 338.65 177.15 335.96 180.58 333.05 183.14 330.25 183.49 329.04 185.31 327.27 185.17 324.11 188.05 323.34 193.45 320.89 197.96 317.48 200.74 316.77 203.7 316.69 206.14 316.35 209.74 319.31 211.6 322.44 214.78 325.84 214.33 328.78 215.52 331.91 218.26 335.06 217.77 340.24 219.36 341.13 220 343.49 221.13 345.26 223.06 345.62 224.53 347.86 227.37 349.83 231.35 352.04 231.61 354.26 230.92 355.72 230.85 360.81 232.81 360.51 236.47 360.79 238.67 360.59 244.18 361.88 245.16 361.64 249.25 362.63 252.02 365.77 255.13 363.09 261.36 365.18 265.27 364.87 267.08 365.1 272.21 364.01 274.97 361.75 276.47 361.59 278.77 359.68 281.99 354.18 283.69 351.8 285.76 349.78 288.25 348.66 288.48 345.27 286.31 340.98 286.41 339.78 287.81 338.79 289.38 336.27 290.73 333.3 292.15 332.43 293.99 329.3 295.8 327.6 297.84 327.41 301.05 323.94 303.12 322.32 305.32 322.06 311.67 320.05 314.74 319.86 315.55 318.29 319 315.96 320.93 315.89 324.41 316.71 326.45 315.14 328.92 316.26 330.78 315.93 332.44 314.72 335.2 313.81 338.92 311.97 341.59 312 342.52 311.34 347.75 310.6 350.49 307.94 350.02 302.69 348.12 299.82 347.6 296.25 348.05 293.78 350.08 291.64 347.41 286.93 345.46 282.08 345.01 279.78 347.73 276.77 350.29 276.37 350.69 272.08 351.29 270.39 350.04 269.5 351.31 267.46 353.59 266.7 356.51 266.41 362 264.86 363.88 263.61 369.17 261.67 373.67 258.95 375.23 261.66 377.97 265.54 379.45 267.06 383.22 269.59 385.04 268.34 388.13 267.51 391.63 269.35 394.34 274.82 394.56 276.09 398.57 279.82 400.43 282.46 402 285.4 405.03 287.79 409.82 290.82 411.71 290.82 415.79 291.67 416.15 296.01 417.01 299.42 418.04 301.93 421.46 305.97 425.15 313.17 428.41 316.64 429.19 320.61 432.93 328.72 434.75 331.37 Z" id="36570111"/>
<path d="M 361.18 495.18 362.54 497.93 363.65 501.86 365.16 504.06 367.41 503.99 368.85 503.23 371.26 505.32 374.11 505.83 375.03 507.22 375.73 510.12 375.33 511.61 376.46 516.6 375.06 519.23 374.68 524.23 373.27 527.3 374.39 529.72 376.67 530.16 377.92 531.55 379.18 531.86 380.15 533.19 382.6 534.07 382.58 536.89 380.52 539.64 379.32 543.02 379.85 545.53 381.59 551.48 381.61 552.79 383.76 557.39 385.24 559.18 387.25 563.26 387.78 565.08 390.34 568.49 392.7 569.38 393.76 573.6 394.73 574.18 397.26 574.09 399.42 576.12 400.79 575.98 402.38 577.65 402.53 579.19 404.06 581.23 404.62 582.84 408.76 585.29 410.02 586.64 411.79 590 414.29 586.92 416.21 586.68 417.42 585.35 419.87 585.23 424.78 582.46 426.02 581.46 428.63 580.59 428.45 578.53 431.56 574.33 433.37 569.2 435.68 565.87 437.52 564.14 439.93 564.29 443.55 565.73 445.95 565.2 447.39 565.41 449.3 564.65 452.69 564.19 456.57 561.58 460.66 561.26 462.75 559.89 468.29 559.5 469.4 559.04 474.44 558.97 476.68 553.2 480.46 552.86 483.17 551.27 483.73 549.93 485.81 552.1 489.93 555.04 490.59 556.43 495.22 562.84 499.1 564.88 500.27 571.3 502.73 570.76 504.28 569.43 506.14 569.61 508.72 568.94 511.94 569.34 514.01 569.98 516.47 571.85 518.02 572.31 518.46 574.08 520.77 574.13 522.73 572.01 526.32 572.8 529.62 576.5 532.93 578.77 537.59 580 541.31 578.75 541.08 580.69 540.16 582.08 539.32 585.86 539.18 590.24 538.35 593.89 536.86 595.7 535.4 598.55 536.66 601.53 536.45 604.19 534.98 612.55 534.19 618.83 536.48 620.49 538.07 622.58 540.46 622.9 542.48 624.13 543.54 628.43 545.65 629.24 546.82 628.98 549.99 633.39 553.54 635.68 554.64 638.53 557.45 640.76 557.98 642.91 559.89 645.68 562.57 647.99 563.93 649.89 563.27 651.43 564.54 653.8 564.86 656.09 567.01 660.55 567.78 663.34 567.91 667.18 570.89 671.09 571.28 672.66 572.96 673.61 573.7 674.88 576.07 676.47 577.41 676.61 580.87 678.7 582.54 682.53 584.06 685.27 585.54 686.24 586.69 688.8 589.06 690.91 595.88 694.8 598.51 698.22 598.64 699.15 596.78 701.97 594.61 703.03 591.96 706.31 588.58 708.11 587 712 583.83 713.32 579.82 712.8 578.32 715.59 573.89 715.3 571.21 714.58 569.49 714.88 567.43 714.04 565.22 715.5 563.87 717.43 561.93 722.88 561.55 726.82 559.87 729.92 557.82 737.18 553.83 740.65 551.37 741.59 549.17 741.67 548.11 742.29 547.43 744.9 544.61 742.73 539.59 741.79 537.73 742.02 533.52 741.15 525.78 739.18 521.12 737.51 519.02 738.37 517.79 736.94 516.63 736.82 512.61 734.52 511.56 734.48 508.27 732.48 503.71 731.72 501.69 731.75 499.86 730.66 499.01 730.91 495.37 728.9 492.4 729.28 487.49 726.17 485.57 722.53 483.06 721.46 480.59 718.72 477.83 719.11 475.95 718.42 473.3 716.34 469.41 714.23 468.67 712.78 466.48 711.56 463 710.54 460.57 709.29 457.73 710.3 455.19 712.12 451.86 711.15 449.78 710.93 448.74 709.64 445.92 708.49 442.29 705.47 441.4 705.58 439.31 703.8 433.75 701.57 433.05 698.6 429.92 695.95 427.09 693.98 425.68 693.55 425.5 690.52 424.93 689.24 425.66 686.26 427.83 681.37 428.78 679.93 426.03 677.24 423.04 675.9 420 675.06 417.9 674.97 416.51 676.24 413.23 674.23 411.42 673.86 409.96 672.66 406.83 671.67 404.1 672.84 401.26 672.18 398.51 672.82 397.83 673.48 395.97 673.1 392.54 669.76 388.06 663.83 384.5 661.75 382.9 657.63 379.01 654.28 375.55 649.78 371.33 649.15 369.32 646.08 366.82 645.49 365.91 647.4 361.35 651.63 360.19 652.98 357.36 653.83 355.15 653.27 352.52 650.93 349.36 650.38 347.58 647.92 345.37 646.46 342.17 646.29 338.98 644.1 337.8 642.72 334.68 641.75 331.92 641.46 331.34 641.9 329.84 638.68 328.05 636.13 325.19 635.41 324.53 633.53 323.34 633.01 322.99 628.57 322.17 627.29 320.2 626.01 319.27 626.86 317.86 629.63 316.84 630.49 315.52 629.83 314.08 630.34 311.45 630.3 309.89 629.2 308.51 632.28 306.66 632.09 304.2 630.63 301.63 628.37 296.37 622.82 293.48 621.93 290.76 619.39 290.21 616.31 290.61 615.71 292.44 614.76 296.48 610.97 298.66 608.56 301.38 603.61 302.77 599.69 304.44 594.07 304.87 591.69 304.81 585.04 305.22 582.87 306.43 580.72 310.94 576.52 315.14 574.66 316.59 571.89 315.06 570.28 312.61 565.8 309.95 564.07 309.45 559.45 310.84 556.23 313 554.91 314.9 552.93 316.92 548.18 318.96 545.67 319.04 544.32 322.7 542.93 323.74 541.36 321.45 538.03 320.72 535.39 321.09 533.35 320.85 530.57 322.42 528.05 322.03 526.16 322.76 524.35 322.54 520.66 320.87 517.82 321.02 514.9 321.89 511.24 326.06 512.15 329.24 511.28 330.3 506.57 333.17 504.48 333.52 502.08 334.39 501.16 338.9 500.85 341.47 502.34 342.91 504.39 344.16 505.16 346.65 504.85 346.55 502.54 347.85 501.8 348.96 497.58 352 497.03 353.27 496.16 358.28 495.01 361.18 495.18 Z" id="36570310"/>
<path d="M 290.61 615.71 290.21 616.31 290.76 619.39 293.48 621.93 296.37 622.82 301.63 628.37 304.2 630.63 306.66 632.09 308.51 632.28 309.89 629.2 311.45 630.3 314.08 630.34 315.52 629.83 316.84 630.49 317.86 629.63 319.27 626.86 320.2 626.01 322.17 627.29 322.99 628.57 323.34 633.01 324.53 633.53 325.19 635.41 328.05 636.13 329.84 638.68 331.34 641.9 331.92 641.46 334.68 641.75 337.8 642.72 338.98 644.1 342.17 646.29 345.37 646.46 347.58 647.92 349.36 650.38 352.52 650.93 355.15 653.27 357.36 653.83 360.19 652.98 361.35 651.63 365.91 647.4 366.82 645.49 369.32 646.08 371.33 649.15 375.55 649.78 379.01 654.28 382.9 657.63 384.5 661.75 388.06 663.83 392.54 669.76 391.53 671.06 391.71 672.82 389.92 675.3 387.45 680.54 389.35 685.29 391.24 687.18 391.27 690.94 393.74 694.49 393.42 697.34 392.31 698.57 390.61 703.85 386.13 706.21 385.04 707.35 380.97 709.88 374.49 709.86 371.41 711.46 366.85 711.94 364.01 711.89 362.61 710.35 360.59 710.37 358.21 711.43 357.61 711.42 353.08 706.77 352.21 708.65 350.13 710.45 348.14 710.62 346.82 712.24 345.1 712.67 340.42 711.38 338.62 713.75 334.82 715.46 329.23 715.46 323.35 714.99 322.18 717.12 320.49 717.55 320.01 719.41 318.72 719.55 317.37 722.39 314.98 724.53 315.07 725.65 313.87 729.31 314.74 730.21 314.91 733.28 315.45 734.71 315.07 737.61 313.37 740.08 313.04 743.13 311.33 744.29 309.89 747.47 307.36 748.7 305.16 745.43 303.47 744.08 300.9 744.66 299.02 743.79 296.87 746.47 294.43 747.07 292.78 746.68 290.49 747.6 289.81 752.36 288.89 755.22 287.94 756.31 285.12 757.45 283.29 759.6 284.12 761.45 284.59 764.48 284.15 766.34 284.48 768.09 283.2 769.68 281.36 773.27 280.07 773.89 280.26 776.49 278.49 779.45 278.15 781.7 276.58 783.65 275.47 786.25 275.44 787.68 272.37 788.1 270.94 789.71 269.43 790.16 267.6 791.59 268.45 794.38 266.81 797.25 266.93 802.72 266.1 803.86 262.62 803.56 259.77 804.45 258.72 807.26 254.57 809.2 252.55 809.05 248.92 811.46 248.06 813.84 246.1 817.01 244.24 819.33 241.74 821.59 240.06 820.99 236.83 822.02 233.83 821.39 232.93 820.64 230.1 820.37 226.68 821.13 224.36 823.96 224.61 825.45 223.38 827.28 220.59 828.59 217.11 829.07 216.63 830.15 212.19 830.18 211.19 831.88 207.45 832.16 205.79 833.19 201.96 830.71 197.98 826.35 197.1 827.41 194.92 827.07 193.05 825.47 194.63 822.26 194.37 817.03 193.01 815.2 191.38 810.5 191.93 807.17 190.89 805.96 189.38 805.85 187.68 804.55 183.91 800.31 182.23 798.92 181.84 797.47 183.55 795.34 183.61 793.68 185.71 790.17 187.11 788.91 188.41 786.09 188.31 783.41 190.82 782.91 193 781.79 194.19 780.46 196.36 780.77 197.83 779.16 198.67 776.3 202.73 773 204.07 770.08 204.4 768.19 203.87 766.37 205.06 763.67 205.39 761.44 207.18 760.49 207.35 758.93 208.65 754.37 207.62 748.55 204.77 746.24 203.4 743.27 204.21 742.22 200.48 740.46 199.56 741.21 197.85 740.37 198.48 738.91 199.47 733.73 198.35 729.63 197.35 728.12 195.21 727.04 195.8 725.4 196.25 721.4 195.45 718.08 197.34 716.13 200.56 714.39 199.72 711.67 194.72 712.58 191.79 709.53 191.39 706.41 190.55 704.45 190.75 701.46 189.6 699.01 189.97 696.22 188.38 692.93 188.85 689.97 192.09 688.56 193.25 686.93 192.86 684.26 194.14 680.09 194.38 676.47 193.91 673.7 195.12 672.01 193.44 669.66 193.01 668.24 190.52 667.22 190.7 663.32 188.86 661.25 187.49 660.76 188.25 658.11 186.32 656.65 185.3 654.78 185.84 653.79 182.91 651.04 182.54 649.27 182.77 646 181.9 644.07 183.42 644.55 188.09 647.03 189.89 645.03 192.92 643.61 194.07 643.65 195.72 640.77 197.23 639.57 198.67 637.54 203.39 636.79 204.62 636.01 207.35 635.95 209.62 631.2 212.95 628.42 217 625.81 218.32 625.44 219.36 623.14 219.28 620.99 218.56 619.47 223.65 616.82 225.66 614.52 225.85 612.18 227.96 611.12 229.41 608.66 229.73 606.26 228.19 601.6 229.75 600.92 234.51 600.74 240.26 600.98 240.21 599.42 240.92 596.59 243.32 595.83 246.64 594.03 247.84 594.41 251.72 593.45 254.76 591.06 255.24 594.34 256.56 596.13 256.29 597.78 257.61 599.47 259.54 599.77 261.2 604.1 265.68 607.45 266.6 606.47 270.47 607.51 273.23 606.06 274.87 607.62 278.69 606.78 280.62 607.39 281.45 608.49 281.12 610.67 283.09 615.09 283.02 617.46 284.23 618.57 286.69 616.87 288.29 616.71 290.61 615.71 Z" id="36570320"/>
<path d="M 358.21 711.43 357.73 712.48 355.18 712.86 352.79 713.74 347.54 717.89 346.17 720.31 344.63 725.91 344.86 729.6 346.15 731.5 344.7 735.09 343.68 740.58 341.35 747.05 342.78 753.78 345.48 755.56 346.12 757.05 346.13 759.51 344.18 764.18 340.8 769.54 339.87 770.11 336.62 774.08 333.55 779.18 332.71 781.26 330.7 787.85 331.67 790.93 334.38 794.16 337.25 796.7 340.83 799.42 343.06 802.69 346.65 805.74 347.34 806.68 347.45 809.8 346.78 811.14 346.82 813.11 348.09 814 347.96 820.41 346.63 823.04 344.89 828.68 344.31 832.51 344.64 834.43 343.16 840.72 340.95 845.37 338.82 848.2 340.81 850.47 342.18 852.65 344.97 854.29 349.07 855.29 355.67 855.44 360.87 856.25 360.25 858.15 359.21 858.01 357.83 859.43 355.29 861.16 349.51 862.43 348.63 862.32 345.24 865.48 345.33 866.86 344.36 870.61 341.89 872.68 343.3 875.86 343.61 878.24 344.54 878.6 344.59 883.31 346.69 883.88 349.59 885.57 348.78 889.52 350 891.55 350.63 894.04 348.33 896.84 346.6 897.87 346.43 900.51 345.29 903.6 347.13 906.11 343.03 909.8 342.57 911.87 340.98 914.22 337.87 918 336.64 920.95 336.21 923.91 336.43 925.27 337.8 925.92 338.04 928.01 336.47 929.57 332.97 930.29 332.13 932.12 330.37 932.65 329.17 935.41 327.69 936.87 325.39 936.03 323.42 937.96 322.14 938.15 320.44 937.22 318.65 937.51 317.08 936.66 315.37 938.63 312.36 936.3 308.71 935.28 307.52 935.78 306.02 938.75 309.24 940.88 307.94 943.92 306.46 946.21 301.8 947.48 299.86 949.28 296.53 951.12 296.97 953.73 294.56 955.69 295.42 957.19 294.21 961.09 293.53 962.24 288.46 960.42 286.85 961.47 285.32 961.11 283.31 963.05 281.29 960.83 278.37 960.58 277.17 961.25 272.06 962.29 270.46 961.96 268.75 959.95 265.55 958.74 267.26 963.21 266.63 966.34 264.5 969.4 264.26 971.07 263.29 971.9 265.23 974.58 262.57 977.48 263.21 979.71 265.02 981.13 264.42 985.39 266.82 989.26 267.99 992.48 267.44 994.53 264.16 997.42 263.03 997.59 260.63 1000.2 257.71 1002.05 255.83 1004.7 252.25 1003.22 248.66 1005 246.75 1004.35 245.28 1000.78 245.71 996.76 244.15 993.04 242.91 991.05 240.35 991.6 237.68 990.94 237.36 987.89 234.03 988.31 231.36 985.13 227.49 989 225.15 987.8 223.04 988.24 222.1 984.29 221.17 983.26 217.29 982.64 216.15 980.32 213.41 975.78 211.92 974.38 211.68 973.09 210.11 972.44 209.06 971.2 206.47 973.81 205.36 971.52 207.45 967.01 208.87 965.6 210.86 965.02 211.1 960.78 210.91 957.11 208.73 955.67 207.55 951.46 206.58 950.95 203.37 952.31 201.29 949.84 195.62 948.09 191.97 947.54 188.46 948.56 186.51 947.34 183.21 947.94 180.66 946.44 178.83 945.85 175.12 947.32 173.31 943.85 173.81 941.97 173.53 939.31 174.07 936.87 173.73 935.28 174.63 933.91 175.04 927.9 175.5 924.66 174.8 921.18 175.46 919.16 177.09 918.01 180.86 916.8 182.61 917.65 183.76 919.56 186.45 917.6 190.56 917.18 192.58 917.7 193.39 916.63 197.6 913.81 198.77 911.99 200.43 911.52 203.82 909.57 204.35 908.35 204.49 904.68 204.01 902.5 205.05 901.28 205.08 896.92 205.48 893.49 204.84 891.85 205.96 889.77 205.89 886.02 208.01 883.53 204.64 878.01 204.37 876.26 204.93 872.39 205.76 870.17 204.93 865.1 204.96 860.6 204.23 859.51 203.4 853.86 203.47 849.84 203.89 845.19 203.36 841.14 204.43 838.68 205.6 837.5 205.79 833.19 207.45 832.16 211.19 831.88 212.19 830.18 216.63 830.15 217.11 829.07 220.59 828.59 223.38 827.28 224.61 825.45 224.36 823.96 226.68 821.13 230.1 820.37 232.93 820.64 233.83 821.39 236.83 822.02 240.06 820.99 241.74 821.59 244.24 819.33 246.1 817.01 248.06 813.84 248.92 811.46 252.55 809.05 254.57 809.2 258.72 807.26 259.77 804.45 262.62 803.56 266.1 803.86 266.93 802.72 266.81 797.25 268.45 794.38 267.6 791.59 269.43 790.16 270.94 789.71 272.37 788.1 275.44 787.68 275.47 786.25 276.58 783.65 278.15 781.7 278.49 779.45 280.26 776.49 280.07 773.89 281.36 773.27 283.2 769.68 284.48 768.09 284.15 766.34 284.59 764.48 284.12 761.45 283.29 759.6 285.12 757.45 287.94 756.31 288.89 755.22 289.81 752.36 290.49 747.6 292.78 746.68 294.43 747.07 296.87 746.47 299.02 743.79 300.9 744.66 303.47 744.08 305.16 745.43 307.36 748.7 309.89 747.47 311.33 744.29 313.04 743.13 313.37 740.08 315.07 737.61 315.45 734.71 314.91 733.28 314.74 730.21 313.87 729.31 315.07 725.65 314.98 724.53 317.37 722.39 318.72 719.55 320.01 719.41 320.49 717.55 322.18 717.12 323.35 714.99 329.23 715.46 334.82 715.46 338.62 713.75 340.42 711.38 345.1 712.67 346.82 712.24 348.14 710.62 350.13 710.45 352.21 708.65 353.08 706.77 357.61 711.42 358.21 711.43 Z" id="36570330"/>
<path d="M 547.43 744.9 547.4 748.73 546.8 750.31 546.54 754.4 545.94 756.16 546.29 761.1 544.01 765.82 544.26 768.56 543.39 771.06 541.43 772.52 543.46 774.53 545.61 778.19 546.25 781.31 545.93 782.48 547.81 785.01 546.73 787.02 545.64 790.27 545.21 793.12 543.08 795.16 544.14 799.22 546.19 801.01 547.76 805.63 550.32 809.45 550.33 811.64 552.64 812.22 552.75 813.7 553.86 815.5 554.8 819.09 554.13 823.03 553.37 824.55 551.14 825.72 550.46 826.71 547.42 828.06 547.3 829.95 548.62 832.31 549.42 835.59 551.08 836.21 552.42 838.2 553.61 838.89 554.77 841.25 555.86 841.35 556.24 843.36 559.24 844.99 559.97 846.31 561.86 847.41 561.6 849.24 560.5 849.3 558.5 850.73 557.1 852.53 558.85 855.38 560.18 856.74 561.47 859.36 561.44 864.91 560.45 867.66 562.2 870.2 562.98 874.03 564.12 876.38 562.58 880.3 558.51 881.88 556.35 883.29 553.7 887.04 553.42 888.27 550.64 888.41 548.6 889.49 546.16 889.09 544.17 888.23 543.4 889.35 541.6 889.76 539.3 891.17 536.93 891.19 535.23 894.04 533.7 894.64 531.03 894.19 529.46 893.28 526.72 892.89 524.33 895.72 522.07 897.8 521.26 897.77 519.31 901.99 517.44 902.86 516.1 902.64 514.86 903.51 512.87 903.71 510.1 906.89 507.31 909 507.67 910.21 505.74 914.5 505.99 916.27 505.39 917.98 505.53 922.14 506.55 926.89 505.9 930.49 506.14 931.56 505.02 933.98 505.46 937.41 502.38 945.25 499.12 945.32 497.87 944.9 496.13 945.68 492.87 946.24 489.99 948.06 488.98 952.96 489.15 955.19 487.43 956.72 485.21 957.79 479.85 959.22 477.4 961.14 474.49 961.27 471.11 961.92 468.79 965.27 466.51 966.43 460.5 967.32 459.46 967.07 453.69 969.03 453.12 967.88 453.11 967.01 451.21 965.11 450.06 965.34 447.98 964.52 444.98 964.31 443.71 962.7 440.48 964.24 436.54 964.1 433.36 965.9 429.6 964.54 428.18 963.16 427.15 963.75 423.74 964.29 421.59 963.87 420.74 962.86 417.66 963.96 415.06 963.52 415.28 961.82 414.46 960.96 410.29 962.25 406.07 963.26 403.39 965.76 402.34 965.13 400.04 965.05 396.14 961.22 393.77 960.18 391.7 960.01 388.79 960.87 388.2 962.15 385.58 963.79 383.28 963.43 381.04 964.82 379.9 966.09 375.39 964.7 374.02 967.15 371.29 967.62 370.31 968.59 370.24 971.02 369.2 972.02 368.64 973.97 367.07 974.34 364.81 973.66 359.79 973.09 358.16 974.5 356.81 974.07 355.98 971.92 353.5 968.61 353.48 967.89 350.64 963.71 347.3 961.56 346.55 958.62 344.02 956.13 343.29 956.68 340.69 956.43 339.01 953.57 336.79 953.67 334.39 953.11 332.4 949.06 331.61 946 332.32 942.82 329.66 939.24 330.2 937.39 329.17 935.41 330.37 932.65 332.13 932.12 332.97 930.29 336.47 929.57 338.04 928.01 337.8 925.92 336.43 925.27 336.21 923.91 336.64 920.95 337.87 918 340.98 914.22 342.57 911.87 343.03 909.8 347.13 906.11 345.29 903.6 346.43 900.51 346.6 897.87 348.33 896.84 350.63 894.04 350 891.55 348.78 889.52 349.59 885.57 346.69 883.88 344.59 883.31 344.54 878.6 343.61 878.24 343.3 875.86 341.89 872.68 344.36 870.61 345.33 866.86 345.24 865.48 348.63 862.32 349.51 862.43 355.29 861.16 357.83 859.43 359.21 858.01 360.25 858.15 360.87 856.25 355.67 855.44 349.07 855.29 344.97 854.29 342.18 852.65 340.81 850.47 338.82 848.2 340.95 845.37 343.16 840.72 344.64 834.43 344.31 832.51 344.89 828.68 346.63 823.04 347.96 820.41 348.09 814 346.82 813.11 346.78 811.14 347.45 809.8 347.34 806.68 346.65 805.74 343.06 802.69 340.83 799.42 337.25 796.7 334.38 794.16 331.67 790.93 330.7 787.85 332.71 781.26 333.55 779.18 336.62 774.08 339.87 770.11 340.8 769.54 344.18 764.18 346.13 759.51 346.12 757.05 345.48 755.56 342.78 753.78 341.35 747.05 343.68 740.58 344.7 735.09 346.15 731.5 344.86 729.6 344.63 725.91 346.17 720.31 347.54 717.89 352.79 713.74 355.18 712.86 357.73 712.48 358.21 711.43 360.59 710.37 362.61 710.35 364.01 711.89 366.85 711.94 371.41 711.46 374.49 709.86 380.97 709.88 385.04 707.35 386.13 706.21 390.61 703.85 392.31 698.57 393.42 697.34 393.74 694.49 391.27 690.94 391.24 687.18 389.35 685.29 387.45 680.54 389.92 675.3 391.71 672.82 391.53 671.06 392.54 669.76 395.97 673.1 397.83 673.48 398.51 672.82 401.26 672.18 404.1 672.84 406.83 671.67 409.96 672.66 411.42 673.86 413.23 674.23 416.51 676.24 417.9 674.97 420 675.06 423.04 675.9 426.03 677.24 428.78 679.93 427.83 681.37 425.66 686.26 424.93 689.24 425.5 690.52 425.68 693.55 427.09 693.98 429.92 695.95 433.05 698.6 433.75 701.57 439.31 703.8 441.4 705.58 442.29 705.47 445.92 708.49 448.74 709.64 449.78 710.93 451.86 711.15 455.19 712.12 457.73 710.3 460.57 709.29 463 710.54 466.48 711.56 468.67 712.78 469.41 714.23 473.3 716.34 475.95 718.42 477.83 719.11 480.59 718.72 483.06 721.46 485.57 722.53 487.49 726.17 492.4 729.28 495.37 728.9 499.01 730.91 499.86 730.66 501.69 731.75 503.71 731.72 508.27 732.48 511.56 734.48 512.61 734.52 516.63 736.82 517.79 736.94 519.02 738.37 521.12 737.51 525.78 739.18 533.52 741.15 537.73 742.02 539.59 741.79 544.61 742.73 547.43 744.9 Z" id="36570340"/>
<path d="M 321.89 511.24 321.02 514.9 320.87 517.82 322.54 520.66 322.76 524.35 322.03 526.16 322.42 528.05 320.85 530.57 321.09 533.35 320.72 535.39 321.45 538.03 323.74 541.36 322.7 542.93 319.04 544.32 318.96 545.67 316.92 548.18 314.9 552.93 313 554.91 310.84 556.23 309.45 559.45 309.95 564.07 312.61 565.8 315.06 570.28 316.59 571.89 315.14 574.66 310.94 576.52 306.43 580.72 305.22 582.87 304.81 585.04 304.87 591.69 304.44 594.07 302.77 599.69 301.38 603.61 298.66 608.56 296.48 610.97 292.44 614.76 290.61 615.71 288.29 616.71 286.69 616.87 284.23 618.57 283.02 617.46 283.09 615.09 281.12 610.67 281.45 608.49 280.62 607.39 278.69 606.78 274.87 607.62 273.23 606.06 270.47 607.51 266.6 606.47 265.68 607.45 261.2 604.1 259.54 599.77 257.61 599.47 256.29 597.78 256.56 596.13 255.24 594.34 254.76 591.06 255.04 588.16 253.47 586.39 253.61 585.09 250.8 582.75 250.32 581.01 246.64 576.85 247.89 571.29 246.69 567.54 249.96 566.32 250.98 567.05 252.98 566.99 254.59 565.45 257.77 566.71 259.32 568.06 260.85 568.56 262.86 564.49 264.67 563.95 266.78 562.41 267.73 560.83 258.21 555.82 255.47 555.26 249.67 552.46 244.96 551.01 240.12 548.91 236.1 541.19 218.94 542.2 217.99 541.99 217.54 533.36 224.67 532.95 224.61 531.71 226.37 530.54 226.9 528.54 228.73 528.7 232.47 528.15 240.2 525.69 244.48 525.76 246.32 526.33 250.69 529.42 254.42 531 256.35 529.16 257.82 526.48 258.05 524 257.53 521.34 255.56 517.28 253.93 518.13 254.39 515.2 253.34 512.88 253.57 509.21 254.56 503.71 256.54 498.57 258.3 492.61 259.27 487.18 258.9 479.99 259.05 474.88 260.56 472.44 261.76 473.18 265.26 472.35 266.96 472.98 268.25 474.36 272.48 476.24 276.48 476.54 279.46 475.51 282.16 475.8 283.8 473.96 285.86 473.45 287.9 472.12 290.77 472.11 293.93 471.02 295.72 469.42 301.05 468.69 303.88 469.29 304.65 470.36 307.32 471.49 306.79 472.53 310.04 474.15 310.74 475.53 314.94 480.47 315.17 483.97 314.82 490.65 315.35 492.45 313.66 496.91 314.21 500.49 316.13 501.43 316.18 503.56 316.87 505.6 318.48 506.02 319.38 507.84 319.59 510 321.89 511.24 Z" id="36570350"/>
<path d="M 258.9 479.99 259.27 487.18 258.3 492.61 256.54 498.57 254.56 503.71 253.57 509.21 253.34 512.88 254.39 515.2 253.93 518.13 255.56 517.28 257.53 521.34 258.05 524 257.82 526.48 256.35 529.16 254.42 531 250.69 529.42 246.32 526.33 244.48 525.76 240.2 525.69 232.47 528.15 228.73 528.7 226.9 528.54 226.37 530.54 224.61 531.71 224.67 532.95 217.54 533.36 217.99 541.99 218.94 542.2 236.1 541.19 240.12 548.91 244.96 551.01 249.67 552.46 255.47 555.26 258.21 555.82 267.73 560.83 266.78 562.41 264.67 563.95 262.86 564.49 260.85 568.56 259.32 568.06 257.77 566.71 254.59 565.45 252.98 566.99 250.98 567.05 249.96 566.32 246.69 567.54 247.89 571.29 246.64 576.85 250.32 581.01 250.8 582.75 253.61 585.09 253.47 586.39 255.04 588.16 254.76 591.06 251.72 593.45 247.84 594.41 246.64 594.03 243.32 595.83 240.92 596.59 240.21 599.42 240.26 600.98 234.51 600.74 229.75 600.92 228.19 601.6 229.73 606.26 229.41 608.66 227.96 611.12 225.85 612.18 225.66 614.52 223.65 616.82 218.56 619.47 219.28 620.99 219.36 623.14 218.32 625.44 217 625.81 212.95 628.42 209.62 631.2 207.35 635.95 204.62 636.01 203.39 636.79 198.67 637.54 197.23 639.57 195.72 640.77 194.07 643.65 192.92 643.61 189.89 645.03 188.09 647.03 183.42 644.55 181.9 644.07 177.71 639.83 176.74 639.56 174.91 636.48 170.89 635.26 170.67 636.01 167.7 636.1 163.92 631.74 157.1 629.93 150.49 628.68 151.36 626.44 150.93 623.58 151.22 621.92 149.34 619.95 145.94 618.06 145.62 616.06 143.88 613.04 145.24 611.27 145.1 608.84 145.8 608.55 147.78 602.12 145.97 600.27 144.16 597.3 145.07 596.61 147.21 592.83 147.59 591.36 149.29 588.71 149.51 585.33 150.15 584.76 151.15 580.51 150.15 576.79 150.73 573.13 150.69 571.11 149.55 568.28 146.67 565.48 143.82 563.56 143.76 560.42 143.11 557.59 142.1 556.21 141.83 554.55 140.3 553.38 137.08 552.04 134.73 551.57 131.45 547.44 129.34 543.58 120.86 539.08 119.23 538.76 115.62 536.66 113.23 534.13 111.31 533.01 109.28 532.48 107.14 530.93 102.66 528.68 97.91 528.31 95.11 527.07 97.71 521.69 99.2 519.5 100.13 516.36 102.14 514.16 102.66 512.35 105.26 511.13 106.41 507.77 106.88 505.15 108.18 503.35 111.19 500.67 113.68 500.11 117.92 498.65 119.15 499.37 121.55 498.53 122.63 497.27 125.48 496.67 126.05 494.38 125.09 491.78 125.32 488.88 126.03 486.51 123.96 483.09 124.57 478.01 123.6 475.69 122.06 474.65 122.54 470.35 128.13 469.27 128.51 467.83 130.76 464.72 131.59 460.7 136.73 460.04 140.12 457.54 142.41 454.2 142.58 451.23 145.01 447.26 146.61 443.89 146.64 440.82 145.97 436.88 147.52 436.63 149.68 434.05 153.05 433.77 155.43 430.11 159.15 429.13 161.13 427.48 164.57 427.92 167.92 429.31 170.69 432 170.76 433.61 173.63 434.06 178.13 432.4 185.59 432.73 188.22 432.28 189.15 434.76 188.95 437.63 190.57 438.45 193.05 441.39 193.32 442.74 195.12 443.74 198.93 442.52 201.94 443.28 205.43 443.28 206.55 442.64 209.43 444.07 211.41 447.04 209.69 450.63 209.08 454.19 207.22 457.92 206.8 460.3 204.37 463.26 205.09 465.92 209.19 467.33 212.4 469.37 218.2 470.48 218.1 471.79 218.92 473.67 222.38 475.18 223.8 476.76 226.9 475.84 228.53 475.97 229.21 478.23 230.74 481.04 233.44 481.97 233.67 482.84 236.98 483.96 239.2 483.18 241.02 485.15 242.74 485.84 244.57 485.49 249.85 487.01 251.75 488.53 254.39 484.9 255.06 481.96 254.48 479.88 255.67 478.36 257.55 479.92 258.9 479.99 Z" id="36570360"/>
<path d="M 181.9 644.07 182.77 646 182.54 649.27 182.91 651.04 185.84 653.79 185.3 654.78 186.32 656.65 188.25 658.11 187.49 660.76 188.86 661.25 190.7 663.32 190.52 667.22 193.01 668.24 193.44 669.66 195.12 672.01 193.91 673.7 194.38 676.47 194.14 680.09 192.86 684.26 193.25 686.93 192.09 688.56 188.85 689.97 188.38 692.93 189.97 696.22 189.6 699.01 190.75 701.46 190.55 704.45 191.39 706.41 191.79 709.53 194.72 712.58 199.72 711.67 200.56 714.39 197.34 716.13 195.45 718.08 196.25 721.4 195.8 725.4 195.21 727.04 197.35 728.12 198.35 729.63 199.47 733.73 198.48 738.91 197.85 740.37 199.56 741.21 200.48 740.46 204.21 742.22 203.4 743.27 204.77 746.24 207.62 748.55 208.65 754.37 207.35 758.93 207.18 760.49 205.39 761.44 205.06 763.67 203.87 766.37 204.4 768.19 204.07 770.08 202.73 773 198.67 776.3 197.83 779.16 196.36 780.77 194.19 780.46 193 781.79 190.82 782.91 188.31 783.41 188.41 786.09 187.11 788.91 185.71 790.17 183.61 793.68 183.55 795.34 181.84 797.47 182.23 798.92 183.91 800.31 187.68 804.55 189.38 805.85 190.89 805.96 191.93 807.17 191.38 810.5 193.01 815.2 194.37 817.03 194.63 822.26 193.05 825.47 194.92 827.07 197.1 827.41 197.98 826.35 201.96 830.71 205.79 833.19 205.6 837.5 204.43 838.68 203.36 841.14 203.89 845.19 203.47 849.84 203.4 853.86 204.23 859.51 204.96 860.6 204.93 865.1 205.76 870.17 204.93 872.39 204.37 876.26 204.64 878.01 208.01 883.53 205.89 886.02 205.96 889.77 204.84 891.85 205.48 893.49 205.08 896.92 205.05 901.28 204.01 902.5 204.49 904.68 204.35 908.35 203.82 909.57 200.43 911.52 198.77 911.99 197.6 913.81 193.39 916.63 192.58 917.7 190.56 917.18 186.45 917.6 183.76 919.56 182.61 917.65 182.83 916.35 179.15 914.56 176.99 911.73 176.91 908 176.34 906.15 174.59 903.41 174.18 900.61 173.19 898.56 172.74 896.12 171.14 894.64 171.47 891.79 170.24 890.04 168.36 889 166.79 886.34 165.65 885.95 160.45 878.88 157.42 878.27 156.65 877.58 152.61 876.45 152.18 875.73 149.94 875.48 147.66 874.35 145.16 875.44 142.33 875.51 139.5 874.79 137.38 875.54 135.51 875.02 134.06 873.14 133.89 869.47 129.4 867.16 126.39 867.92 125.58 869.36 123.9 870.29 119.43 870.13 116.79 866.79 114.64 866.53 113.74 865.79 111.47 872.94 111.19 875.91 108.48 875.09 101.9 874.45 99.53 873.15 97.17 874.94 94.44 875.46 93.42 878.72 92.23 880.21 89.38 880.59 83.86 878.71 82.23 880.25 78.53 881.39 77.38 883.51 76.93 885.59 75.54 886.44 73.11 888.92 71.27 888.27 69.68 886.78 64.23 886.42 63.99 887.22 61.38 890.01 55.94 891.04 49.24 887.3 46.57 887.1 43.93 886.41 42.41 885.29 41.39 885.99 40.23 888.46 37.21 890.04 34.27 888.93 31.76 889.44 29.11 891.22 26.59 891.09 25.11 892.44 21.97 890.91 15.48 891.17 11.45 891.82 10.02 889.03 9.72 887.4 5.55 885.8 3.39 885.3 1 882.95 1.48 881.87 3.34 880.34 4.93 880.31 6.67 878.17 7.69 877.66 11.66 872.85 13.28 871.7 14.17 870.28 15.75 869.48 16.06 868.43 18.55 868.14 21.45 866.6 22.74 864.34 22.6 862.59 25.06 859.52 27.5 858.04 30 858.02 33.45 859.18 35.8 858.19 38.05 856.09 38.84 854.37 42.18 850.33 44.43 848.64 46.46 848.65 48.78 847.74 51.41 847.33 53.49 845.19 56.39 843.46 64.2 842.43 69.16 843.38 71.88 841.88 75.61 842.6 78.7 841.84 82.42 838.16 86.14 835.47 89.29 835.1 92.5 834.19 98.46 833.07 100 832.21 101.32 830.22 100.06 827.44 99.8 825.25 102.49 819.39 104.9 816.88 107.24 816.29 110.35 814.6 111.73 813.14 112.34 810.01 111.53 808.89 110.59 805.8 110.69 804.58 112.14 799.65 110.11 796.15 105.7 793.36 103.13 792.62 101.69 790.21 102.18 783.68 103.15 782.04 102.86 775.74 104.04 770.97 102.86 768.68 99.73 765.75 98.21 764.82 97.19 762.67 96.59 753.78 98.6 752.09 101.23 752.19 101.92 749.85 101.66 747.31 102.71 744.83 105.77 740.77 105.85 739.32 104.63 736.82 103.12 735.13 102.45 733.22 104.14 730.56 103.99 728.87 102.42 724.59 99.82 723.07 98.67 721.35 94.81 719.39 91.81 713.26 92.21 710.07 91.49 706.92 95.23 699.24 96.72 697.46 97.89 697.15 99.82 693.53 102.35 690.66 105.55 689.04 105.87 686.48 107.44 685.41 110.39 685.05 113.86 683.73 116.05 681.89 116.94 677.3 116.49 675.36 118.13 673.76 117.86 668.93 118.38 665.62 123.43 660.95 123.38 656.57 124.63 653.96 122.61 651.76 120.25 651.08 118.28 649.86 116.92 648.25 114.54 643.85 113.08 640.18 113.08 637.99 114.72 633.38 117.02 632.07 119.39 628.69 121.38 627.28 121.61 626.28 123.34 624.35 126.37 623.63 127.15 622.95 127.32 617.17 129.48 613.58 129.79 608.92 131.2 605.18 131.27 603.94 132.53 602.33 136.5 600.37 144.16 597.3 145.97 600.27 147.78 602.12 145.8 608.55 145.1 608.84 145.24 611.27 143.88 613.04 145.62 616.06 145.94 618.06 149.34 619.95 151.22 621.92 150.93 623.58 151.36 626.44 150.49 628.68 157.1 629.93 163.92 631.74 167.7 636.1 170.67 636.01 170.89 635.26 174.91 636.48 176.74 639.56 177.71 639.83 181.9 644.07 Z" id="36570370"/>
<path d="M 560.29 213.08 568.04 214.36 570.11 214.01 572.81 212.37 575.99 209.89 576.6 208.93 580.93 208.37 587.29 208.21 593.6 210.35 596.91 210.9 603.67 207.66 604.81 213.65 604.49 215.59 605.71 217 609.35 222.72 610.88 222.82 612.27 223.99 613.91 221.98 616.88 219.28 618.61 218.51 621.35 218.47 623.13 219.2 624.68 220.82 623.87 225.52 626.07 227.58 630.56 230.47 631.91 232.94 632.51 235.68 633.64 238.78 634.81 239.84 638.14 239.91 639.35 239.39 645.17 239.98 651.12 246.7 651.32 249.58 654.29 252.49 654.65 254.36 653.28 256.49 653.17 259.16 651.86 260.37 651.91 262.96 650.36 264.17 648.95 264.18 647.14 266.19 646.16 266.52 646 268.48 646.89 270.83 647.44 274.86 648.12 277.42 648.01 279.31 649.89 281.57 649.03 283.68 650.54 285.29 650.07 287.72 650.38 289.8 649.72 291.2 644.32 293.41 643.46 295.35 643.41 298.08 641.44 302.32 639.17 308.53 636.52 311.13 632.76 314.01 631.16 316.01 630.6 320.06 629.69 321.77 622.6 319.91 621.69 319.12 619.09 321.79 615.58 323.14 613.32 323.37 610.42 322.1 606.94 325.63 603.83 326.42 603.01 327.15 597.46 325.09 595.91 324.88 592.56 327.15 590.98 328.66 587.95 330 588.06 335.6 589.37 343.09 589.71 347.91 590.91 351.02 589.03 353.2 586.96 357.37 585.28 359.08 581.98 355.04 579.57 353.54 578.71 354.52 578.64 356.51 577.71 358.61 575.61 361.83 573.15 363.38 574.63 369.31 574.4 372.27 571.81 374.57 567.2 373.31 565.28 371.91 564.75 372.69 562.05 371.45 559.1 371.12 556.91 371.93 554.04 371.02 553.22 369.57 551.52 369.09 549.81 365.83 549.79 364.75 546.88 362.47 546.36 360.7 544.72 359.36 544.39 357.82 541.58 355.37 538.78 356.67 536.13 356.17 529.54 353.57 529.68 348.56 528.31 347.19 526.66 344.66 526.79 342.97 523.27 339.37 517.64 337.25 518.55 335.16 518.76 333.21 516.57 331.76 515.49 328.99 511.5 324.4 511.03 321.79 510.19 320.91 506.98 319.64 503 315.05 499.54 315.07 497.31 318.12 493.35 320.64 492.67 322.36 492.62 324.39 488.7 328.55 486.57 328.58 484.16 329.72 484.12 331.75 480.76 333.77 478.96 335.28 479.23 338.24 475.96 342.47 474.38 346.43 472.81 347.92 472.8 350.79 473.8 351.69 473.11 355.33 470.48 356.43 467.93 356.95 467.25 354.99 465.73 352.72 463.87 350.82 462.23 349.96 462.09 348.89 460.12 347.77 458.27 348.34 455.66 348.3 456.23 345.59 456.67 341.06 455.74 339.7 451.66 338.05 450.71 336.68 448.31 335.2 444.18 333.58 440.23 334.05 434.75 331.37 432.93 328.72 429.19 320.61 428.41 316.64 425.15 313.17 421.46 305.97 418.04 301.93 417.01 299.42 416.15 296.01 415.79 291.67 411.71 290.82 409.82 290.82 405.03 287.79 402 285.4 400.43 282.46 398.57 279.82 394.56 276.09 394.34 274.82 391.63 269.35 388.13 267.51 385.04 268.34 383.22 269.59 379.45 267.06 377.97 265.54 375.23 261.66 373.67 258.95 371.04 254.57 375.87 250.46 379.2 246.68 382.15 244.46 382.84 240.82 383.5 239.14 384.75 238.12 387.21 237.16 390.42 233.42 393.91 233.15 396.2 232.58 398.22 227.57 398.78 223.58 397.1 220.2 394.14 215.93 393.14 213.38 392.2 208.33 396.52 208.23 400.74 207.04 403.26 205.01 406.81 199.84 409.45 197.96 411.18 197.8 414.94 196.09 415.89 196.78 423.52 199.4 424.88 200.42 431.32 202.5 433.58 205.25 436.29 207.34 441.19 211.74 444.42 212.22 445.64 213.67 449.34 215.67 451.86 215.48 452.21 214.81 455.53 214.67 455.73 215.95 457.58 215.46 459.79 216.06 460.85 218.3 462.41 218.02 463.12 219.27 465.03 219.23 466.89 220.66 467.71 222.49 469.95 222.64 471.69 219.53 472.84 218.89 475.47 219.04 476.53 219.83 478.3 219.23 480.01 220.6 480.55 223.24 484.39 225 486.9 224.29 488.87 227.15 488.91 228.5 491.1 232.42 491.34 235.39 493.62 238.79 501.28 241.56 502.46 240.3 505.38 241.18 507.72 239.27 509.11 239.59 510.6 241.77 513.75 243.62 515.01 245.82 518.32 247.85 520.16 251.13 524.02 254.01 525.96 252.78 527.96 250.7 529.47 249.95 533.02 247.32 538.34 246.44 540.6 244.95 543.41 243.95 542.02 241.78 541.04 237.38 540.08 235.18 542.49 233.02 546.04 231.17 548.99 230.81 549.1 229.6 550.98 227.61 556.41 224.94 558.85 224.84 560.59 226.15 561.27 220.61 560.93 218 562.48 217.94 562.01 215.83 558.81 214.49 560.29 213.08 Z" id="36570380"/>
<path d="M 779.39 217.41 778.71 219.45 779.46 221.35 778.32 223.93 776.45 225.54 775.55 228.55 773.56 230.95 771.05 231.56 769.96 232.83 769.43 234.88 770.75 236.29 770.9 237.97 772 239.07 771.4 240.61 773.85 243.12 774.08 245.25 772.01 246.69 769.66 251.27 771.85 253.1 773.29 256.48 773.05 259.37 773.83 259.84 775.65 262.66 776.6 263.07 775.88 268.37 775.15 271.02 773.35 273.01 771.51 273.97 769.77 277.81 769.82 280.31 768.52 283.66 769.87 285.45 770.01 287.32 768.03 291.91 765.12 295.28 761.1 296.71 760.26 297.55 761.14 300.49 759.13 303.19 759.1 305.53 757.37 307.63 758.38 309.99 759.36 313.94 763.58 313.75 766.17 314.6 765.55 316.2 765.97 320.21 764.12 323.83 764.63 329.37 765.17 331.43 764.16 335.16 764.32 338.71 765.68 341.3 765.03 342.95 765.51 346.38 765.17 349.83 766.43 351.28 766.04 354.39 765.17 355.44 765.27 358.27 764.42 360.29 764.69 363.01 764.03 365.21 765.7 369.85 765.85 373.85 769.15 375.56 772.69 379.76 774.31 380.2 775.88 381.76 778.02 382.99 780.15 387.1 777.9 389.19 777.63 390.8 776.03 392.87 774.41 396.99 774.43 398.21 770.82 403.13 770.41 403.11 765.49 407.38 765.39 410.38 767.71 416.19 765.53 417.99 764.02 420.38 763.13 425.03 762.21 426.49 762.68 429.52 762.21 430.83 764.68 432.98 762.37 438.03 762.82 440.53 764.11 444.93 763.46 446.28 762.67 449.89 763.4 452.59 761.99 457.77 760.12 459.83 758.16 460.26 753.79 457.76 750.14 458.12 746.1 457.77 743.17 456.66 737.76 456.91 733.16 456.33 733.14 453.36 734.2 446.33 733.44 443.4 731.83 439.72 730.78 436.45 727.82 434.48 727.84 432.92 726.62 431.92 726.72 429.44 725.23 428.02 724.44 426.3 724.61 424.16 721.84 424.37 717.87 423.45 716.61 424.27 714.76 423.78 712.5 424.62 707.17 423.87 705.37 424.92 703.05 423.28 699.77 424.57 696.9 424.14 692.86 426.2 691.19 429.31 688.32 430.04 688.08 431.27 686.1 432.32 681.87 436.64 679.03 438.76 677.34 438.54 676.62 439.53 673.96 445.85 672.74 447.35 671.18 447.77 670.8 449.35 669 449.74 667.94 452.96 667.99 454.42 665.89 454.71 663.07 454.22 657.96 452.64 655.99 454.6 653.35 453.77 649.9 452.06 649.01 450.74 646.27 449.95 644.47 447.86 642.33 446.85 640.84 447.23 636.34 446.38 635.07 445.24 632.9 445.24 632.1 448.03 630.2 450.51 618.62 457.92 615.65 462.88 610.92 464.43 608.56 462.05 606.7 459.65 606.79 457.63 605.62 455.56 602.95 453.83 600.91 453.36 600.31 451.73 597.37 451.28 595.36 449.72 594.46 447.43 588.68 445.49 588.44 443.4 587.14 441.49 585.09 439.6 584.44 437.06 582.26 435.33 581.49 432.7 579.45 429.31 579.51 426.68 576.33 423.46 576.02 420.88 577.57 419.78 579.04 416.26 579.03 414.97 576.41 413.67 574.41 410.65 574.81 409.15 574.43 403.51 573.53 402.41 572.56 399.58 573.62 396.05 572.1 389.9 570.07 389.24 567.86 386.91 567.83 385.11 567.11 383.38 567.58 382.03 569.26 381.08 570.81 378.5 570.73 376.25 571.81 374.57 574.4 372.27 574.63 369.31 573.15 363.38 575.61 361.83 577.71 358.61 578.64 356.51 578.71 354.52 579.57 353.54 581.98 355.04 585.28 359.08 586.96 357.37 589.03 353.2 590.91 351.02 589.71 347.91 589.37 343.09 588.06 335.6 587.95 330 590.98 328.66 592.56 327.15 595.91 324.88 597.46 325.09 603.01 327.15 603.83 326.42 606.94 325.63 610.42 322.1 613.32 323.37 615.58 323.14 619.09 321.79 621.69 319.12 622.6 319.91 629.69 321.77 630.6 320.06 631.16 316.01 632.76 314.01 636.52 311.13 639.17 308.53 641.44 302.32 643.41 298.08 643.46 295.35 644.32 293.41 649.72 291.2 650.38 289.8 650.07 287.72 650.54 285.29 649.03 283.68 649.89 281.57 648.01 279.31 648.12 277.42 647.44 274.86 646.89 270.83 646 268.48 646.16 266.52 647.14 266.19 648.95 264.18 650.36 264.17 651.91 262.96 651.86 260.37 653.17 259.16 653.28 256.49 654.65 254.36 654.29 252.49 656.52 251.64 657.75 250.56 661.96 250.29 666.75 248.86 670 246.71 674.53 245.74 678.12 246.27 683.89 245.49 687.67 246.99 690.77 247.74 694.02 247.06 695.6 245.97 697.55 242.52 700.48 242.33 703.28 240.61 704.86 240.53 707.99 242.96 711.2 239.33 715.99 233.16 719.03 230.86 719.76 228.79 722.8 229.48 724.44 228.6 727.31 228.42 735.8 229.55 738.81 229.1 742.53 221.41 743.61 217.47 742.67 213.9 745.85 213.7 748.51 212.42 751.19 213.57 754.48 214.45 759.89 212.65 762.96 214.64 765.93 215.66 767.87 215.85 770.02 216.96 774.25 215.5 775.5 216.58 779.39 217.41 Z" id="36570400"/>
<path d="M 571.81 374.57 570.73 376.25 570.81 378.5 569.26 381.08 567.58 382.03 567.11 383.38 567.83 385.11 567.86 386.91 570.07 389.24 572.1 389.9 573.62 396.05 572.56 399.58 573.53 402.41 574.43 403.51 574.81 409.15 574.41 410.65 576.41 413.67 579.03 414.97 579.04 416.26 577.57 419.78 576.02 420.88 576.33 423.46 579.51 426.68 579.45 429.31 577.7 429.9 575.64 431.61 573.7 435.05 571.31 436.06 571.37 439.1 570.65 443.25 562.64 443.75 560.64 443.27 559.07 444.92 555.76 445.62 554.01 448.75 554.45 450.49 552.54 452.46 551.67 454.78 551.68 456.7 549.24 460.15 547.23 464.77 546.31 468.22 548.16 473.15 549.77 475.35 547.3 477.76 544.56 479.79 544.68 483.59 547.37 487.48 547.9 491.73 547.34 493.41 545.45 495.39 544.46 498.08 544.73 500.85 543.44 502.16 541.93 505.2 539.12 504.18 537.25 504.08 529.61 505.3 526.27 505.07 524.08 506.79 521.25 506.44 521.36 508.86 518.61 512.43 517.55 514.87 515.73 517.17 513.54 518.39 511.43 521.96 508.88 523.47 506.02 524.28 504.39 523.88 496.2 523.57 495.21 524.67 493.21 529.26 491.42 531.23 489.6 535.12 486.37 540.43 486.53 542.25 483.73 549.93 483.17 551.27 480.46 552.86 476.68 553.2 474.44 558.97 469.4 559.04 468.29 559.5 462.75 559.89 460.66 561.26 456.57 561.58 452.69 564.19 449.3 564.65 447.39 565.41 445.95 565.2 443.55 565.73 439.93 564.29 437.52 564.14 435.68 565.87 433.37 569.2 431.56 574.33 428.45 578.53 428.63 580.59 426.02 581.46 424.78 582.46 419.87 585.23 417.42 585.35 416.21 586.68 414.29 586.92 411.79 590 410.02 586.64 408.76 585.29 404.62 582.84 404.06 581.23 402.53 579.19 402.38 577.65 400.79 575.98 399.42 576.12 397.26 574.09 394.73 574.18 393.76 573.6 392.7 569.38 390.34 568.49 387.78 565.08 387.25 563.26 385.24 559.18 383.76 557.39 381.61 552.79 381.59 551.48 379.85 545.53 379.32 543.02 380.52 539.64 382.58 536.89 382.6 534.07 380.15 533.19 379.18 531.86 377.92 531.55 376.67 530.16 374.39 529.72 373.27 527.3 374.68 524.23 375.06 519.23 376.46 516.6 375.33 511.61 375.73 510.12 375.03 507.22 374.11 505.83 371.26 505.32 368.85 503.23 367.41 503.99 365.16 504.06 363.65 501.86 362.54 497.93 361.18 495.18 363.35 491.28 367.11 489.7 369.18 489.56 372.06 488.62 373.02 487.2 375.13 486.39 379.04 483.11 380.36 478.46 383.68 474.23 383.97 470.51 386.72 469.46 387.36 466.25 388.06 465.15 389.52 464.92 390.62 463.28 390.61 461.78 393.41 459.02 392.42 457.45 388.13 448.02 386.98 446.41 387.99 444.62 389.04 439.37 386.94 436.98 386.07 432.86 385.59 429.1 384.96 428.67 383.56 425.38 383.52 421.77 386.68 420.77 387.29 418.81 390.41 417.56 393.64 418.31 397.77 416.62 396.69 411.92 394.83 410.48 392.99 405.42 391.6 402.77 390.4 399.03 391.38 396.72 391.12 393.35 391.73 392.62 391.32 388.05 389.04 385.26 386.28 379.34 387.07 377.33 392.55 366.62 394.71 364.79 393.02 356.21 392.05 353.53 391.07 348.58 391.87 345.21 391.72 344.13 395.94 344.94 398.91 345.11 400.13 346.94 402.36 347.03 406.59 350.01 409.11 350.36 412.79 351.66 415.74 349.61 416.5 347.13 417.45 345.73 419.03 345 422.26 345.03 424.96 344.42 427.12 341.92 428.06 337.12 428.82 335.39 431.31 332.54 434.75 331.37 440.23 334.05 444.18 333.58 448.31 335.2 450.71 336.68 451.66 338.05 455.74 339.7 456.67 341.06 456.23 345.59 455.66 348.3 458.27 348.34 460.12 347.77 462.09 348.89 462.23 349.96 463.87 350.82 465.73 352.72 467.25 354.99 467.93 356.95 470.48 356.43 473.11 355.33 473.8 351.69 472.8 350.79 472.81 347.92 474.38 346.43 475.96 342.47 479.23 338.24 478.96 335.28 480.76 333.77 484.12 331.75 484.16 329.72 486.57 328.58 488.7 328.55 492.62 324.39 492.67 322.36 493.35 320.64 497.31 318.12 499.54 315.07 503 315.05 506.98 319.64 510.19 320.91 511.03 321.79 511.5 324.4 515.49 328.99 516.57 331.76 518.76 333.21 518.55 335.16 517.64 337.25 523.27 339.37 526.79 342.97 526.66 344.66 528.31 347.19 529.68 348.56 529.54 353.57 536.13 356.17 538.78 356.67 541.58 355.37 544.39 357.82 544.72 359.36 546.36 360.7 546.88 362.47 549.79 364.75 549.81 365.83 551.52 369.09 553.22 369.57 554.04 371.02 556.91 371.93 559.1 371.12 562.05 371.45 564.75 372.69 565.28 371.91 567.2 373.31 571.81 374.57 Z" id="36570420"/>
<path d="M 765.8 1.36 767.91 3.53 768.94 5.5 770.57 6.08 772.25 7.77 773.55 10.78 772.35 14.79 774.9 17.57 777.14 22.89 778.42 24.53 779.39 24.48 782.13 26.36 787.21 27.31 788.84 31.26 787.87 33.33 787.66 36.37 788.17 37.74 790.25 39.07 790.3 45.1 789.23 47.72 789.94 49.68 788.5 53.94 789.46 55.45 792.49 56.57 793.6 58.58 793.25 61.03 794.99 64.04 795.29 65.31 797.29 65.94 796.27 68.21 797.22 71.15 799 72.6 797.2 74.32 794.29 77.88 793.65 79.23 792.89 81.18 790.2 84.03 788.94 86.24 785.99 88.54 784.34 89.07 785.08 91.68 783.97 93.91 782.76 97.6 780.36 101.03 780.19 104.42 780.97 105.97 780.24 107.86 779.54 112.38 777.76 114.2 775.5 117.22 774.29 120.55 774.19 122.62 771.81 128.65 774.75 130.9 776.46 132.66 776.92 134.64 778.04 135.33 780.43 138.45 785.97 140.01 785.98 141.45 788.54 143.31 788.53 147.06 789.73 148.6 788.88 150.4 789.7 152.91 788.76 154.57 789.1 157.79 787.76 159.56 786.93 161.94 786.77 165.87 787.31 167.46 788.73 167.89 788.5 171.84 790.4 173.56 789.66 177.34 788.4 182.13 789.36 184.29 788.53 186.64 788.61 188.68 787.61 190.01 787.16 194.93 787.89 198.56 789.05 200.59 789.4 203.28 788.88 204.63 790.74 207.38 790.64 210.85 791.27 213.29 787.48 215.22 785.34 215.88 782.46 216 779.39 217.41 775.5 216.58 774.25 215.5 770.02 216.96 767.87 215.85 765.93 215.66 762.96 214.64 759.89 212.65 754.48 214.45 751.19 213.57 748.51 212.42 745.85 213.7 742.67 213.9 743.61 217.47 742.53 221.41 738.81 229.1 735.8 229.55 727.31 228.42 724.44 228.6 722.8 229.48 719.76 228.79 719.03 230.86 715.99 233.16 711.2 239.33 707.99 242.96 704.86 240.53 703.28 240.61 700.48 242.33 697.55 242.52 695.6 245.97 694.02 247.06 690.77 247.74 687.67 246.99 683.89 245.49 678.12 246.27 674.53 245.74 670 246.71 666.75 248.86 661.96 250.29 657.75 250.56 656.52 251.64 654.29 252.49 651.32 249.58 651.12 246.7 645.17 239.98 639.35 239.39 638.14 239.91 634.81 239.84 633.64 238.78 632.51 235.68 631.91 232.94 630.56 230.47 626.07 227.58 623.87 225.52 624.68 220.82 623.13 219.2 621.35 218.47 618.61 218.51 616.88 219.28 613.91 221.98 612.27 223.99 610.88 222.82 609.35 222.72 605.71 217 604.49 215.59 604.81 213.65 603.67 207.66 596.91 210.9 593.6 210.35 587.29 208.21 580.93 208.37 576.6 208.93 575.99 209.89 572.81 212.37 570.11 214.01 568.04 214.36 560.29 213.08 559.51 210.26 557.08 207.28 556.95 204.98 556.02 202.99 555.1 199.67 555.12 197.82 550.87 195.45 550.35 192.47 551.18 189.84 550.28 185.22 551.36 181.94 550.49 179.84 548.91 177.97 547.64 173.08 544.04 172.39 541.88 171.15 541.01 169.26 537.54 166.03 534.37 164.07 531.34 159.71 527.94 158.24 526.98 155.02 528.52 150.2 525.91 144.86 524.6 144.15 522.83 141.02 519.78 134.63 517.46 133.14 516.55 129.19 517.23 128.07 517.81 123.82 517.25 119.73 517.39 117.75 516.83 114.36 515.03 112.39 517.61 108.03 517.59 105.8 516.97 102.54 515.73 100.74 514.04 96.98 512.36 94.24 508.72 90.95 508.38 88.4 508.68 86.7 510.63 84.62 512 82.14 512.45 78.83 514.01 78.02 518.78 77.34 520.73 76.71 521.58 77.3 522.63 80.87 527.01 83.64 529.74 84.2 531.43 85.05 535.48 84.21 537.69 84.83 539.46 86.26 543.25 88.02 544.66 89.3 547 88.86 549.01 87.64 550.76 87.5 552.03 86.48 554.6 88.1 558.58 86.09 560.59 84.74 564.09 85.42 565.92 82.01 569.98 82.8 572.31 77.42 574.55 74.61 576.82 70.98 578.9 68.84 581.77 68.17 583.89 66.41 585.65 65.92 593.73 61.99 596.01 61.74 599.68 60.35 602.05 60.2 604.44 60.78 610.53 59.53 612.31 60.08 616.22 58.56 618.4 58.26 619.63 56.48 618.89 53.54 620.05 52.16 622.61 50.94 623.65 50.27 626.51 46.69 628.02 44.38 630.87 42.73 633.8 44.71 637.75 46.05 638.03 47.14 639.85 48.96 640.64 51.44 641.5 51.29 644.84 52.39 647.12 51.15 648.41 51.65 650 53.46 654.05 53.29 656.88 52.85 658.8 53.38 660.63 52.42 663.36 52.31 663.58 51.03 665.62 49.32 667.93 51.12 671.74 50.98 673.58 50.15 674.87 50.57 675.83 51.95 676.83 51.18 679.23 53.64 686.17 50.2 686.7 48.95 688.5 48.5 692.06 48.92 697.08 46.57 699.61 45.78 701.93 44.29 702.96 42.4 705.44 42.09 707.24 40.79 708.66 40.66 712.78 38.37 714.81 36.89 715.76 32.63 719.76 32.89 725.49 29.22 728.52 25.74 732.65 24.7 734.82 21.46 737.08 16.91 738.87 14.9 744.46 11.74 745.54 11.56 746.95 8.5 750.05 5.25 758.33 2.25 759.24 2.71 762.31 1 765.8 1.36 Z" id="36570430"/>
<path d="M 760.12 459.83 761.32 462.64 763.74 465.41 764.54 467.57 765.53 471.85 766.46 474.41 769.57 479.8 767.84 482.22 769.15 485.06 768.41 489.86 767.1 493.33 767.76 497.88 766.19 500.19 767.8 501.87 769.02 504.25 767.96 507.84 767.49 511.29 769.11 515.11 770.41 519.86 767.41 520.09 765.14 520.69 763.52 522.11 761.53 522.97 759.57 523.07 758.27 524.98 756.79 528.3 754.97 530.27 752.97 531.22 749.73 534.95 748.97 537.07 750.31 537.57 750.25 539.8 749.42 546.05 747.7 547.34 746.72 553.33 745.89 553.72 745.33 557.01 746.62 558.6 747.01 560.89 748.6 563.02 749.73 565.29 748.98 567.58 748.15 567.96 747.65 570.83 745.16 571.95 744.81 573.11 745 576.19 744.24 577.2 743.51 580.9 745.45 583.69 745.33 585.23 749.13 588.24 751.85 589.18 752.68 589.98 750.56 592.52 750.46 593.96 748.9 597.96 745.2 603.02 743.45 607.91 744.33 609.18 743.5 610.19 741.37 610.81 739.7 613.9 739.94 616.02 738.86 617.65 738.9 620.07 738.03 620.99 735.72 621.34 733.34 623.01 730.35 621.74 729.56 624.46 727.67 626.13 724.95 627.75 722.94 628.16 719.74 630.34 715.86 631.83 711.78 630.74 709.73 631.03 706.55 633.12 704.34 633.8 702.78 635.11 702.18 637.73 698.81 641.12 695.16 642.27 691.07 642.69 687.05 642.57 685.8 643.67 682.81 643.44 680.88 645.49 679.41 646.24 674.37 644.78 672.7 643.44 671.13 644.15 668.67 641.94 668.4 640.81 666.35 640.44 664.93 640.96 661.7 640.41 658.62 641.6 655.86 639.03 654.27 638.62 651.7 635.96 649.86 635.23 646.43 634.56 644.16 632.9 642.27 634.79 640.23 634.88 639.51 637.76 639.87 640.03 639.27 640.79 640.02 642.54 639.83 644.53 634.44 647.27 633.02 649.67 632.45 653.18 628.97 654.96 628.07 656.09 625.67 656.93 620.28 660.11 616.08 661.08 615.81 662.91 616.07 666 615.69 668.96 618.37 669.99 619.94 671.67 619.62 673.22 621.09 675.94 619.24 678.3 615.9 680.65 612.46 683.91 609.78 687.95 607.05 688.78 605.23 694.87 602.97 695.42 600.22 694.62 598.51 698.22 595.88 694.8 589.06 690.91 586.69 688.8 585.54 686.24 584.06 685.27 582.54 682.53 580.87 678.7 577.41 676.61 576.07 676.47 573.7 674.88 572.96 673.61 571.28 672.66 570.89 671.09 567.91 667.18 567.78 663.34 567.01 660.55 564.86 656.09 564.54 653.8 563.27 651.43 563.93 649.89 562.57 647.99 559.89 645.68 557.98 642.91 557.45 640.76 554.64 638.53 553.54 635.68 549.99 633.39 546.82 628.98 545.65 629.24 543.54 628.43 542.48 624.13 540.46 622.9 538.07 622.58 536.48 620.49 534.19 618.83 534.98 612.55 536.45 604.19 536.66 601.53 535.4 598.55 536.86 595.7 538.35 593.89 539.18 590.24 539.32 585.86 540.16 582.08 541.08 580.69 541.31 578.75 537.59 580 532.93 578.77 529.62 576.5 526.32 572.8 522.73 572.01 520.77 574.13 518.46 574.08 518.02 572.31 516.47 571.85 514.01 569.98 511.94 569.34 508.72 568.94 506.14 569.61 504.28 569.43 502.73 570.76 500.27 571.3 499.1 564.88 495.22 562.84 490.59 556.43 489.93 555.04 485.81 552.1 483.73 549.93 486.53 542.25 486.37 540.43 489.6 535.12 491.42 531.23 493.21 529.26 495.21 524.67 496.2 523.57 504.39 523.88 506.02 524.28 508.88 523.47 511.43 521.96 513.54 518.39 515.73 517.17 517.55 514.87 518.61 512.43 521.36 508.86 521.25 506.44 524.08 506.79 526.27 505.07 529.61 505.3 537.25 504.08 539.12 504.18 541.93 505.2 543.44 502.16 544.73 500.85 544.46 498.08 545.45 495.39 547.34 493.41 547.9 491.73 547.37 487.48 544.68 483.59 544.56 479.79 547.3 477.76 549.77 475.35 548.16 473.15 546.31 468.22 547.23 464.77 549.24 460.15 551.68 456.7 551.67 454.78 552.54 452.46 554.45 450.49 554.01 448.75 555.76 445.62 559.07 444.92 560.64 443.27 562.64 443.75 570.65 443.25 571.37 439.1 571.31 436.06 573.7 435.05 575.64 431.61 577.7 429.9 579.45 429.31 581.49 432.7 582.26 435.33 584.44 437.06 585.09 439.6 587.14 441.49 588.44 443.4 588.68 445.49 594.46 447.43 595.36 449.72 597.37 451.28 600.31 451.73 600.91 453.36 602.95 453.83 605.62 455.56 606.79 457.63 606.7 459.65 608.56 462.05 610.92 464.43 615.65 462.88 618.62 457.92 630.2 450.51 632.1 448.03 632.9 445.24 635.07 445.24 636.34 446.38 640.84 447.23 642.33 446.85 644.47 447.86 646.27 449.95 649.01 450.74 649.9 452.06 653.35 453.77 655.99 454.6 657.96 452.64 663.07 454.22 665.89 454.71 667.99 454.42 667.94 452.96 669 449.74 670.8 449.35 671.18 447.77 672.74 447.35 673.96 445.85 676.62 439.53 677.34 438.54 679.03 438.76 681.87 436.64 686.1 432.32 688.08 431.27 688.32 430.04 691.19 429.31 692.86 426.2 696.9 424.14 699.77 424.57 703.05 423.28 705.37 424.92 707.17 423.87 712.5 424.62 714.76 423.78 716.61 424.27 717.87 423.45 721.84 424.37 724.61 424.16 724.44 426.3 725.23 428.02 726.72 429.44 726.62 431.92 727.84 432.92 727.82 434.48 730.78 436.45 731.83 439.72 733.44 443.4 734.2 446.33 733.14 453.36 733.16 456.33 737.76 456.91 743.17 456.66 746.1 457.77 750.14 458.12 753.79 457.76 758.16 460.26 760.12 459.83 Z" id="36570440"/>
</g>
</svg>