<?xml version="1.0"?>
<svg xmlns="http://www.w3.org/2000/svg" version="1.2" baseProfile="tiny" width="800" height="922" viewBox="0 0 800 922" stroke-linecap="round" stroke-linejoin="round">
<g id="dong">
<path d="M 695.92 143.58 698.87 146 700.49 147.66 701.75 150.67 703.14 152.47 705.74 153.1 707.62 154.25 709.62 154.14 711.66 153.34 714.21 151.23 714.83 150 716.19 149.97 718.81 151.24 719.54 152.35 723.36 154.06 724.44 153.4 726.26 152.99 729 153.56 730.92 153.48 731.53 154.02 733.92 154.32 734.87 155.81 737.48 158.31 739.21 158.36 739.65 157.76 742.27 157.22 743.83 156.44 745.38 156.84 749.62 159.26 752.02 161.11 753.11 161.56 752.86 163.58 752.19 165.36 751.41 165.9 751.06 168.87 748.62 172.54 747.75 174.42 747.82 175.36 746.15 176.66 745.22 178.11 742.08 179.67 741.62 181.05 742.81 183.55 742.96 185.64 743.99 188.03 743.61 189.91 744.83 189.94 746.86 193.64 747.22 197.46 746.62 200.24 742.59 200.8 740.27 202.08 737.75 201.65 736.11 200.87 734.2 202.07 733.93 203.76 732.74 206.15 731.37 206.48 730.83 208.01 732.09 208.49 733.38 210.15 733.79 211.31 735.66 213.02 736.13 214.29 737.79 215.86 737.74 218.02 738.26 220.39 739.74 221.96 739.42 223.5 738.74 223.96 735.69 224.67 733.98 224.73 732.72 225.36 732.9 226.64 732.03 228.46 731.3 228.63 731.01 230.25 729.25 231.7 727.9 233.94 727.95 235.44 727.01 236.47 727.17 238.1 726.38 240.47 725.26 241.17 725.18 242.98 724.69 244 725.37 245.59 724.15 245.98 722.07 248.39 718.95 249.26 718.71 250.51 717.68 251.35 717.42 253.13 716.26 255.27 715.83 257.82 717.59 258.02 719.38 258.63 720.42 258.53 724.05 259.1 726.04 260.03 728.12 261.72 730.19 264.58 732.96 265.85 736.31 264.61 737.41 263.85 740.5 262.92 741.3 262.3 742.44 262.98 744.93 262.23 742.13 266.93 740.18 268.47 738.09 271.44 736.96 273.71 734.68 275.72 731.88 275.76 731.66 277.23 729.66 281.04 729.61 283.14 727.83 285.62 727.91 287.04 726.99 288.58 727.32 291.4 727.06 294.96 725.53 298.59 725.46 301.12 722.72 303.37 724.31 306.05 722.68 308.86 721 310.02 718.17 313.14 716.15 316.02 713.04 318.8 711.6 319.29 709.35 321.27 707.5 321.64 706.3 323.06 704.11 324.18 703.29 326.17 702.03 327.01 699.19 325.88 697.65 325.47 698.24 323.62 699.19 322.24 700.56 321.14 701.3 319.94 701.25 317.51 701.86 315.51 700.2 314.42 699.8 312.18 700.59 309.74 698.97 309.64 696.93 307.56 695.58 308.15 694.64 304.93 693.79 303.51 691.97 303.11 690.26 303.61 690.48 302.08 689.07 300.45 688.99 299.17 689.81 297.37 689.54 296.31 690.7 293.91 689.55 291.77 688.81 289.76 688.93 287.24 689.94 286.74 690.13 285.08 688.88 283.95 689.94 281.33 689.09 280.81 688.21 279.35 686.78 278.39 685.71 276.52 684.45 276.32 682.78 276.95 682.34 276.55 679.41 277.29 676.97 276.99 675.58 277.26 674.69 278.77 673.21 279.58 670.71 278.9 668.28 280.24 667.57 280.03 666.83 277.65 667.1 276.41 666.02 275.74 666.18 273.47 664.44 272.39 663.4 271.25 662.14 268.18 662.75 263.2 661.97 261.84 660.14 260.36 659.16 258.18 657.24 256.85 656.53 259.37 654.96 262.92 654.01 266.32 651.45 269.41 650.89 271.01 648.25 271.42 646.43 271.2 645.97 273.02 643.95 275.28 640.65 272.67 638.63 271.42 638.82 268.9 637.42 269.6 635.37 268.54 635.23 267.33 633.84 266.44 634.06 264.54 633.79 263.36 632.55 261.69 629.23 260.07 628.23 260.18 627.13 261.68 626.07 261.52 625.7 260.26 622.74 258.13 618.95 259.64 616.98 261.43 604.93 258.05 565.7 250.27 549.48 248.28 547.08 247.21 543.87 244.31 542.17 239.7 538.11 235.28 531.91 231.33 519.88 229.42 491.93 207.42 501.44 195.42 508.47 200.98 514.04 194 514.69 192.98 517.65 192.81 522.51 189.84 522.52 188.64 521.86 187.25 522.71 185.46 523.78 181.24 525 179.31 525.96 178.89 527.06 177.54 527.6 176.23 529.37 174.67 529.6 172.05 532.29 171.39 533.62 168.1 534.24 167.25 536.85 168.08 539.62 166.83 542.4 166.83 543.76 164.28 547.14 162.63 548.68 164.45 550.98 164.9 554.98 165.03 559.06 165.83 562.52 165.49 565.7 163.59 571.81 163.55 572.83 162.67 576.55 158.69 579.47 158.56 582.52 158.13 585.27 157.51 586.6 157.96 589.64 158 591.06 157.56 593.92 159.4 595.48 162.46 597.3 163.37 599.05 162.93 603.76 161.05 605.42 160.9 608.74 161.74 612.83 163.88 616.57 165.23 619.51 166.99 620.12 166.23 622.71 164.63 625.38 165.67 629.78 169.78 632.24 169.72 634.02 170.9 635.96 172.6 636.26 173.56 637.79 174.59 638.74 175.93 639.69 175.79 641.58 176.73 644.07 176.61 645.51 175.64 646.62 173.24 646.43 170.07 647.48 167.06 649.04 164.81 650.92 163.3 652 161.18 652.21 159.59 654.39 157.6 657.09 156.01 658.63 154.84 659.11 152.5 659.3 148.32 661.83 147 663.69 145.57 664.79 145.23 668.05 145.58 669.13 145.24 670.89 145.83 675.3 146.4 676.4 144.92 680.09 143.25 682.37 143.33 686.58 142.23 687.44 142.39 688.68 141.66 691.55 142.21 693.27 141.69 695.07 143.44 695.92 143.58 Z" id="36600380"/>
<path d="M 643.95 275.28 643.87 279.3 643.28 280.86 641.95 283.01 641.6 284.33 640.03 286.59 637.46 288.07 634.16 289.09 631.87 288.78 629.19 290.9 628.43 294.08 629.83 299.04 627.69 299.98 625.86 299.76 623.25 300.04 623.09 297.97 620.16 298.55 619.33 298.19 618.16 299.54 616.57 299.52 614.76 300.06 613.97 301.12 612.13 301.42 609.69 302.93 606.1 304.2 604.12 305.67 602.3 307.9 601.38 311.25 601.59 314.52 601.4 316.5 600.48 319.39 598.86 320.19 596.35 320.55 596.79 323.08 597.59 325.39 596.43 326.6 594.87 329.72 593.69 330.54 592.23 332.34 590.45 335.53 590.26 336.66 587.67 337.38 586.96 337.14 585.38 338.27 583.66 338.05 582.2 336.93 579.71 336.43 577.52 334.85 576.29 334.69 573.95 333.28 571.4 334.33 568.55 333.49 566.33 333.2 564.86 331.84 563.92 331.63 559.52 329.61 557.55 327.93 554.58 331.07 551.75 331.57 547.5 333.45 544.14 335.23 544.04 335.99 540.36 340.43 539.3 341.93 539.18 342.97 537.49 343.31 535.04 345.01 531.91 346.58 531.46 349.57 531.21 352.94 527.83 352.03 523.9 352 518.7 352.96 515.25 353.9 512.07 356.63 510.74 356.72 508.19 354.99 505.6 355.83 501.79 355.14 498.67 355.55 496.98 355.07 496.76 353.28 495.92 352.77 495.84 351.43 493.96 349.76 492.16 349.32 488.53 350.76 480.49 355.92 477.73 358.48 476.65 360.81 476.04 364.35 465.22 362.88 464 360.59 463.89 357.87 462.93 356.1 463.72 353.7 461.71 350.99 461.91 348.08 461.59 347.27 462.29 345.91 462.34 342.47 463.81 340.83 467.5 339.37 469.52 338.83 470.15 337.5 471.54 335.82 471.44 333.81 467.51 332.56 465.67 333.55 463.6 332.29 460.81 330.94 459.51 329.48 459.34 326.85 457.6 325.11 456.83 323.84 454.98 321.92 452.6 321.56 450.68 317.88 451.96 315.49 450.66 313.68 449.81 311.67 448.26 311.22 446.98 312.02 444.79 311.8 442.91 312.27 441.28 313.57 439.15 314.17 436.7 315.28 433.82 316.05 430.24 315.49 429.39 316.97 428.51 315.75 427.46 315.52 424.57 316.04 424.64 315.2 422.39 311.26 420.14 310.8 416.35 309.68 415.47 308.16 415.97 303.79 415.78 302.61 420.93 302.45 421.86 299.46 422.98 297.49 425.32 295.91 425.84 294.11 426.87 294.67 429.08 293.21 431.87 292.72 433.48 291.6 433.55 290.13 435.27 290.62 438.55 288.05 437.83 286.46 439.9 285.66 441.55 284.15 441.46 281.47 442.08 280.04 444.03 277.81 446.51 278.19 447.72 277.15 447.87 275.03 449.69 273.46 452.89 271.1 453.4 268.49 454.93 266.75 456.87 265.6 459.91 260.17 458.76 259.84 459.14 257.14 461.36 252.45 462.03 251.56 461.38 250.75 460.78 248.06 452.8 241.8 440.85 227.74 434.77 219.04 430.63 215.45 424.32 211.97 417.23 210.99 403.35 213.65 393.82 211.38 380.64 200.95 370.68 177.94 368.69 167.8 368.09 162.1 368.48 150.77 372.06 138.79 377 128.9 383.83 121.84 408.9 142.73 409.78 143.52 415.73 146.75 420.65 149.42 491.93 207.42 519.88 229.42 531.91 231.33 538.11 235.28 542.17 239.7 543.87 244.31 547.08 247.21 549.48 248.28 565.7 250.27 604.93 258.05 616.98 261.43 618.95 259.64 622.74 258.13 625.7 260.26 626.07 261.52 627.13 261.68 628.23 260.18 629.23 260.07 632.55 261.69 633.79 263.36 634.06 264.54 633.84 266.44 635.23 267.33 635.37 268.54 637.42 269.6 638.82 268.9 638.63 271.42 640.65 272.67 643.95 275.28 Z" id="36600390"/>
<path d="M 324.14 465.54 324.63 465.98 324.87 467.88 323.46 468.19 323.19 466.2 324.14 465.54 Z M 301.33 452.73 300.09 453.57 299.24 451.82 300.6 451.35 301.33 452.73 Z M 342.43 451.06 340.63 451.52 340.68 450.07 341.51 449.6 342.43 451.06 Z M 299.08 440.04 299.47 441.29 298.84 443.12 296.94 444.21 295.5 443.52 296.45 441.54 299.08 440.04 Z M 289.23 423.62 287.63 424.13 288.1 422.59 289.23 423.62 Z M 233.36 419.68 232.27 420.11 231.15 419.53 231.27 418.09 233.31 419.09 233.36 419.68 Z M 415.78 302.61 415.97 303.79 415.47 308.16 416.35 309.68 420.14 310.8 422.39 311.26 424.64 315.2 424.57 316.04 427.46 315.52 428.51 315.75 429.39 316.97 430.24 315.49 433.82 316.05 436.7 315.28 439.15 314.17 441.28 313.57 442.91 312.27 444.79 311.8 446.98 312.02 448.26 311.22 449.81 311.67 450.66 313.68 451.96 315.49 450.68 317.88 452.6 321.56 454.98 321.92 456.83 323.84 457.6 325.11 459.34 326.85 459.51 329.48 460.81 330.94 463.6 332.29 465.67 333.55 467.51 332.56 471.44 333.81 471.54 335.82 470.15 337.5 469.52 338.83 467.5 339.37 463.81 340.83 462.34 342.47 462.29 345.91 461.59 347.27 461.91 348.08 461.71 350.99 463.72 353.7 462.93 356.1 463.89 357.87 464 360.59 465.22 362.88 476.04 364.35 474.34 377.32 473.46 379.77 472.23 381.43 470.49 382.74 468.95 383.44 465.57 384.31 464 384.92 462.29 386.64 461.39 388.83 461.27 390.44 458.79 400.46 457.08 404.77 452.54 409.36 451.52 410.89 446.12 413.35 441.12 416.75 411.72 416.78 406.61 418.51 388.1 455.77 384.18 463.65 371.25 476.02 362.69 483.23 361.67 481.66 361.88 480.9 358.55 474.78 357.07 474.2 356.56 475.36 354.89 475.09 351.99 476.77 349.52 476.71 350.71 475.14 350.88 473.93 351.83 472.88 352.39 471.49 351.8 470.27 350.5 469.15 348.74 468.47 346.6 469.74 346.43 470.59 345.29 471.62 342.99 470.2 341.59 470.45 340.4 471.37 339.55 471.31 337 472.17 335.08 471.72 332.58 472.64 330.94 472.74 328.18 471.97 326.48 472.47 325.71 471.45 326.81 469.36 326.92 467.37 327.9 466.9 328.05 465.87 327.17 464.48 327.39 462.15 328.14 461.72 331.07 462.59 332.67 462.11 333.98 460.86 336.08 460.74 337.04 459.66 338.41 459.95 339.52 459.24 339.88 460.49 340.93 460.52 344.06 459.01 345.05 459.23 346.47 457.37 347.92 456.4 349.45 456.02 351.86 456.76 355.96 452.42 350.98 447.09 349.73 445.38 347.26 444.64 345.1 446.81 343.23 446.28 343.03 445.47 338.9 443.68 337.74 444.31 337.12 445.31 334.17 445.48 333.88 444.19 335.21 443.28 334.42 441.71 332.96 440.49 330.67 439.07 328.33 437.94 325.89 438.69 323.85 439.63 322.87 440.53 323.34 442.57 322.19 444.59 318.86 444.56 317.8 444.01 315.72 445.99 313.84 445.82 314.3 443.2 315.8 442.34 318.81 441.67 320.07 440.96 320.56 437.19 319.96 435.43 318.01 435.34 317.51 437.51 316.06 438.29 313.41 437.91 313.27 437.18 315.63 435.5 316.6 435.47 316.94 432.88 315.6 430.67 312.78 428.49 311.01 428.32 310.64 426.37 312.66 424.65 313.9 424.13 316.26 420.44 316.02 419 316.24 416.81 315.12 416.45 311.12 413.81 308.41 410.62 308.09 409.96 307.49 406.38 305.57 406.52 302.42 407.47 297.93 406 297.19 406.69 293.07 407.5 290.57 408.23 286.86 406.14 284.98 403.97 283.68 401.74 282.34 401.44 285.65 408.06 286.46 408.51 287.8 410.74 287.57 413.05 287.02 415.36 288.03 417.33 287.91 418.62 286.94 419.04 286.48 420.1 287.78 421.26 286.93 422.5 285.56 423.35 283.84 423.88 281 423.17 281.03 421.65 279.09 420.63 275.76 420.1 273.44 419.98 270.62 422.77 268.94 423.01 267.88 421.9 265.56 422.13 265.45 423.49 264.32 423.67 262.1 423.11 262.33 425.84 261.19 426.74 260.08 424.98 258.57 425.05 260.27 426.93 261.13 426.99 262.05 428.3 260.72 428.98 261.67 431.88 263.82 433.23 263.74 435.22 262.9 436.18 263.4 438.24 261.11 440.17 259.32 440.68 258.31 442.23 256.67 442.06 255.57 441.32 253.5 441.27 253.81 442.93 253.48 444.12 252.24 445.28 250.61 445.67 250.27 446.31 247.47 447.6 245.24 447.75 243.75 448.59 243.75 449.42 242.65 450.65 239.68 451.56 236.5 450.84 235.92 449.09 233.66 447.98 233.84 446.27 232.35 445.44 230.96 445.42 230.07 444.77 229.91 442.76 228.98 442.27 227.58 442.34 227.24 441.41 225.91 441.24 225.55 440.15 224.31 439.51 223.76 437.33 224.41 436.95 226.84 438.14 226.63 436.3 225.16 436.19 224.84 435.57 227.15 434.54 227.96 433.15 228.09 430.85 229.11 430.55 232.17 431.47 234.18 430.57 235.01 426.72 234.59 426.18 235.62 423.87 237.71 423.21 238.79 422.3 239.56 417.73 239.08 417.09 239.8 415.85 241.38 415.03 240.84 411.81 238.52 411.25 237.75 410.6 234.28 411.09 233.6 410.54 233.03 407.78 234.09 405.93 235.49 404.67 235.07 398.46 232.49 397.19 232.37 395.07 231.61 393.44 228.4 392.49 226.26 391.51 223.25 392.13 221.36 392.8 218.98 394.51 218.36 396.15 219.09 398.38 218.65 399.25 215.29 397.97 214.31 396.47 213.92 394.95 209.09 394.87 208.71 397.05 207.43 397.36 205.99 396.62 204.89 395.54 203.3 395.39 200.26 395.68 199.91 399.24 198.15 399.5 197.61 398.57 198.46 396.45 198.42 394.81 195.67 391.13 195.16 389.22 193.95 388.02 190.01 386.05 187.44 385.24 185.32 386.34 186.2 383.49 184.91 380.9 185.29 377.29 183.25 376.3 182.71 376.73 181.9 378.77 182.42 380.68 180.99 382.42 179.47 382.47 176.85 381.06 174.88 380.67 173.4 381.05 171.49 380.58 170.76 378.83 165.55 376.88 165.11 377.02 165.36 375.88 164.24 374.87 164.24 364.48 191.83 364.48 191.39 366.06 194 366.78 196.05 367.84 199.15 368.68 200.51 368.67 200.92 369.79 202.15 370.96 204.87 371.02 207.85 372.22 209.33 370.82 213.13 369.6 216.37 369.71 216.86 366.18 217.61 364.36 217.05 361.45 218.29 360.16 218.38 359.04 220.29 355.97 211.47 345.65 211.6 344.81 214.49 342.34 212.82 340.47 209.29 339.37 208.24 338.29 207.71 336.32 207.94 335.53 210.08 332.25 210.94 330.22 210.31 328.5 208.24 325.93 207.31 318.56 207.86 314.19 208.74 312.27 208.81 310.42 212.69 304.89 217.42 296.07 217 292.66 216.03 289.91 215.8 284.18 230.65 273.34 245.1 280.89 258.56 285.26 280.11 294.43 293.73 304.47 297.17 317.09 304.07 322.21 316.99 328.86 325.7 331.24 327.69 323.74 328.4 322.13 329.42 322.71 332.02 331.76 336.05 331.49 341.99 328.8 354.68 322.64 365.35 317.34 370.18 313.37 371.6 311.74 372.94 309.47 375.67 302.33 377.62 293.15 378.55 291.33 382.79 288.61 385.79 287.85 388.25 287.7 390.49 287.99 392.72 288.76 394.69 289.92 396.33 292.17 396.66 294.47 398.47 294.43 399.76 297.76 400.94 299.82 401.86 300.7 404.99 301.28 407.24 300.65 410.53 300.05 413.4 299.94 415.24 301.12 415.78 302.61 Z" fill-rule="evenodd" id="36600400"/>
<path d="M 614.48 603.12 614.59 604.58 613.93 607.27 613.18 609 613.25 610.66 615.97 613.44 616.15 615.99 621.1 621.45 621.08 627.54 620.45 630.07 619.33 632.52 619.24 634.84 616.79 638.74 615.87 640.96 616.1 642.6 614.29 647.93 613.12 650.74 612.5 654 610.44 658.93 607.65 662.79 606.42 663.8 605.19 666.33 603.33 669.51 603.22 670.27 599.69 673.85 598.94 675.11 595.38 677.49 595.08 678.21 595.67 680.35 596.8 682.07 594.53 686.33 593.55 687.09 592.45 686.47 590.72 686.22 585.12 687.98 584.11 689.56 583.19 692.31 583.35 694.15 584.17 694.81 585.82 698.1 585.53 699.06 586.53 702.08 585.92 703.74 587 705.92 586.04 708.28 584.32 710.06 583.22 711.63 582.79 712.99 579.3 716.1 577.71 717.74 575.4 717.64 573.71 718.95 573.79 721.54 572.83 723.89 572.08 724.19 571 725.93 568.14 728.97 565.33 730.62 564.21 734.68 564.04 737.01 562.12 742.03 560.38 740.77 557.57 739.17 555.16 737.06 551.19 733.95 549.48 732.13 549.03 730.99 547.56 729.69 547.59 727.63 546.65 725.56 546.37 723.6 545.19 722.06 543.46 722.6 541.24 722.22 539.86 721.32 537.58 718.67 537.08 717.67 531.99 717.31 531.92 714.39 532.35 712.38 533.13 710.83 535.76 707.59 536.23 706.52 535.85 705.31 534.65 705.77 531.27 705.67 528.2 705.83 526.38 705.33 526.51 704.44 525.48 703.55 523.36 702.48 519.86 702.37 519.02 701.4 516.76 701.43 516.76 698.89 516.4 696.72 515.55 695.61 516.43 691.57 517.09 690.85 518.33 687.36 519.82 681.67 519.35 680.91 520.26 679.55 520.07 678.49 520.76 677.19 520.6 675.34 520.97 674.23 523.37 673.91 524.68 674.43 526.27 674.22 531.12 672.28 532.45 668.06 530.23 667.29 529.12 668.03 528.35 666.74 526.82 667.46 526.43 665.65 524.2 665.2 522.61 666.85 522.01 668.35 518.64 669.73 518.64 668.57 517.57 666.27 515.57 665.43 515.57 663.79 512.04 663.86 512.06 665.24 510.43 665.03 509.88 666.27 508.94 666.34 509.16 663.52 507.96 663.97 507.48 665.91 506.55 665.86 505.97 664.76 505.02 664.45 504.27 663.22 503.01 664.21 502.05 663.31 501.2 663.37 499.33 662.54 497.26 660.42 494.86 659.5 491.99 658.89 489.07 658.6 487.3 658.84 485.47 657.3 482.25 658.44 477.71 659.49 471.03 660.2 468.2 661.23 466.49 662.64 465.57 664.79 463.47 665.96 461.48 666.47 460.3 667.74 460.07 670.57 459.08 671.26 455.74 672.64 453.79 672.13 449.1 668.55 446.84 666.16 438.62 667.19 436.35 662.36 435.63 661.97 433.8 662.12 432.16 658.45 432.52 654.82 434.4 652.57 434.74 651.07 436.01 649.37 437.28 648.52 439.71 647.78 441.61 645.36 441.21 643.42 440.45 641.71 438.63 638.8 436.66 636.43 434.47 634.39 436.21 634.21 438.26 632.87 441.7 631.16 442 630.3 443.94 629.69 442.43 627.83 440.75 626.32 442.79 623.67 442.04 621.88 443.73 620.72 445.11 620.7 443.24 618.09 440.47 616.98 439.24 614.24 436.2 611.56 435.3 608.81 435.38 607.31 436.03 606.02 435.98 604.95 437.51 602.72 437.02 600.4 439.04 599.06 440.15 596.83 440.89 596.28 442.45 593.5 444.73 592.84 447.05 594 448.41 593.57 449.01 594.06 451.78 593.33 452.31 593.74 454.19 592.57 454.98 589.9 457.58 589.57 459.65 587.05 461.69 586.4 463.24 585.43 463.48 582.99 463.13 582.37 462.63 579.08 461.52 578.58 460.48 578.97 459.15 578.14 458.13 575.01 458.15 573.05 459.06 570.19 457.77 568.63 456.05 565.06 457.7 561.44 457.77 559.68 460.36 559.13 461.5 556 461.82 554.25 463.69 552.49 466.11 550.85 465.53 549.22 467.39 546.46 470.86 545.28 473.32 543.68 473.85 542.9 472.8 540.35 471.49 539.62 468.29 534.32 466.88 532.81 465.07 530.27 462.56 528.54 461.37 527.38 462.67 525.1 463.63 522.78 466.4 522.9 467.98 523.69 472.57 522.97 473.35 522.25 473.09 520.14 474.14 517.5 475.96 516.21 478.81 514.92 480.5 513.54 481.9 513.37 482.49 511.84 483.58 511.49 484.71 510.29 486.49 509.95 488.96 509.05 491.03 507.33 493.46 506.7 495 506.69 496.33 505.66 499.72 506.05 500.04 504.93 503.04 503.76 504.33 504.75 505.51 504.01 505.87 503.13 505.4 501.06 506.09 499.54 509.01 497.1 512.73 495.81 514.65 494.75 514.8 494.24 517.14 493.03 519.27 492.98 522.07 491.97 524.59 490.68 526.71 491.14 527.89 490.58 528.8 491.08 530.83 490.33 533.6 489.73 534.26 490.26 537.28 491.19 540.31 494.22 540.05 495.65 543.23 498.11 545.04 500.67 546.41 500.83 547.7 501.81 548.16 503.51 550.14 503.61 552.38 504.16 553.33 503.62 555.9 500.64 557.41 499.98 558 498.03 557.71 494.55 558.89 492.88 560.28 493.09 561.74 492.52 564.48 493.86 566.69 493.77 565.5 497.17 565.12 500.95 566.76 502.92 568.41 504.18 569.9 505.88 572.07 510 573.7 511.48 573.59 512.3 572.05 515.94 571.22 516.62 571.38 517.6 574.3 524.24 578.44 523.11 581.31 523.41 582.26 527.21 587.71 531.56 590.12 534.16 591.73 535.2 590.78 537.71 590.75 541.24 590.36 543.89 591.06 546 591.65 546.7 590.76 549.2 591.33 551.25 589.92 553.14 589.1 557.6 588.38 560.05 586.81 566.41 587.03 567.76 590.4 567.81 592.2 567.53 595.97 569.58 597.7 571.77 598.75 573.7 599.2 575.93 600.55 577.64 601.56 580.58 601.91 583.53 601.64 584.51 602.78 586.24 603.48 589.03 603.55 591.01 605.27 592.97 609.75 596.47 610.95 598.92 614.48 603.12 Z" id="36600330"/>
<path d="M 381.75 833.16 381.37 834.79 379.99 833.29 381.75 833.16 Z M 443 817.94 441.36 819.96 441.12 821.28 439.81 821.3 440.94 819.54 440 818.33 440.8 817.69 443 817.94 Z M 361.03 816.19 362.21 816.72 364.34 818.89 366.4 819.73 370.43 820.74 371.54 820.58 374.68 821.89 376.49 821.53 377.63 820.3 378.16 818.94 380.17 817.23 381.96 818.54 382.37 820.94 382.3 822.84 380.08 823.27 379.29 824.13 378.9 825.56 377.88 827.53 379.79 830.95 378.64 831.73 376.98 830.14 376.01 830.45 374.75 832.43 374.6 834.55 375.1 835.63 378.25 835.88 378.27 836.85 377.04 837.87 377.66 841.44 376.06 844.51 375.34 844.49 373.27 843.23 373.33 841.15 372.94 840.42 370.88 838.91 370.47 838.08 371.15 836.47 372.47 835.24 372.3 833.75 371.6 832.88 367.06 830.58 365.94 829.09 363.4 827.33 363.62 825.22 362.38 823.55 361.73 821.17 362.19 820.49 361.27 817.97 359.53 816.7 361.03 816.19 Z M 357.91 781.46 358.54 783.24 357.21 784.11 355.97 782.58 356.31 781.76 357.91 781.46 Z M 376.89 764.35 378.35 767.22 376.91 767.7 373.78 767.28 372.34 766.02 372.3 764.94 375.16 763.57 376.89 764.35 Z M 371.09 744.29 372.12 744.64 371.91 745.93 370.87 748.09 369.2 748.74 368.16 748.66 367.28 749.64 365.72 749.33 366 748.48 367.62 748.26 367.38 747.06 369.96 744.43 371.09 744.29 Z M 401.23 690.63 399.96 691.58 399.41 690.8 399.81 688.9 400.44 688.75 401.23 690.63 Z M 438.62 667.19 446.84 666.16 449.1 668.55 453.79 672.13 455.74 672.64 459.08 671.26 460.07 670.57 460.3 667.74 461.48 666.47 463.47 665.96 465.57 664.79 466.49 662.64 468.2 661.23 471.03 660.2 477.71 659.49 482.25 658.44 485.47 657.3 487.3 658.84 489.07 658.6 491.99 658.89 494.86 659.5 497.26 660.42 499.33 662.54 501.2 663.37 502.05 663.31 503.01 664.21 504.27 663.22 505.02 664.45 505.97 664.76 506.55 665.86 507.48 665.91 507.96 663.97 509.16 663.52 508.94 666.34 509.88 666.27 510.43 665.03 512.06 665.24 512.04 663.86 515.57 663.79 515.57 665.43 517.57 666.27 518.64 668.57 518.64 669.73 522.01 668.35 522.61 666.85 524.2 665.2 526.43 665.65 526.82 667.46 528.35 666.74 529.12 668.03 530.23 667.29 532.45 668.06 531.12 672.28 526.27 674.22 524.68 674.43 523.37 673.91 520.97 674.23 520.6 675.34 520.76 677.19 520.07 678.49 520.26 679.55 519.35 680.91 519.82 681.67 518.33 687.36 517.09 690.85 516.43 691.57 515.55 695.61 516.4 696.72 516.76 698.89 516.76 701.43 519.02 701.4 519.86 702.37 523.36 702.48 525.48 703.55 526.51 704.44 526.38 705.33 528.2 705.83 531.27 705.67 534.65 705.77 535.85 705.31 536.23 706.52 535.76 707.59 533.13 710.83 532.35 712.38 531.92 714.39 531.99 717.31 537.08 717.67 537.58 718.67 539.86 721.32 541.24 722.22 543.46 722.6 545.19 722.06 546.37 723.6 546.65 725.56 547.59 727.63 547.56 729.69 549.03 730.99 549.48 732.13 551.19 733.95 555.16 737.06 557.57 739.17 560.38 740.77 562.12 742.03 559.84 743.77 557.93 746.19 555.93 748.27 553.69 750.05 551.53 750.3 549.72 754.16 547.85 757.6 547.24 761.25 543.81 764.45 543.83 765.74 540.76 768.96 540.54 770.69 541.06 775.42 539.91 776.49 538.19 778.72 535.9 779.91 535.23 781.62 534.36 782.23 533.86 783.67 533.64 785.83 532.67 788.29 530.86 790.38 529.55 793.23 529.2 794.89 528.26 795.34 527.36 796.6 526.09 797.3 525.58 798.82 524.76 799.67 523.84 801.6 523.71 805.04 524.51 807.03 522.52 811.2 520.05 815.42 520.34 816.21 518.93 818.59 518.06 818.84 517.72 820.19 518 822.22 519.01 824.93 520.98 827.5 523.52 829.47 525.58 833.08 524.04 834.75 523.75 835.84 521.59 838.16 521.63 839.9 522.09 840.74 525.28 843.19 527.13 842.64 529.2 843.54 530.48 844.83 533 845.33 534.8 846.08 535.68 847.95 536.69 848.67 542.6 848.47 544.07 847.15 545.9 847.68 548.1 847.04 550.88 847.39 552.26 847.12 557.61 848.16 560.02 851.01 561.61 851.98 561.96 853.29 563.27 854.92 565.22 859.68 567.11 860.53 567.35 862.09 569.57 864.59 570.47 866.58 571.37 869.78 572.4 869.97 572.87 872.77 573.93 874.8 576.86 878.21 577.12 879.46 578.12 880.26 577.75 882.47 577.33 882.03 574.42 882.02 569.88 879.81 566.39 876.56 564.27 875.05 562.33 871.29 559.65 868.65 556.86 867.64 551.98 867.05 550.14 867.19 546.19 865.97 540.94 865.89 538.93 866.77 536.28 865.8 535.23 866.45 531.88 865.76 530.19 865.08 527.75 864.9 525.01 866.1 522.95 864.99 523.06 863.71 520.52 863.15 518.19 862.98 513.25 863.32 510.79 865.05 510.76 865.97 509.15 866.58 506.58 869.13 506.06 871.88 502.37 873.95 500.94 878.92 500.94 880.79 500.22 881.47 499.72 883.06 498.4 885.46 497.99 888.27 496.15 889.01 495.26 891.08 493.52 892.36 492.42 894.78 491.22 895.87 489.89 900.04 487.98 900.16 487.18 899.37 485.7 900.38 483.86 900.61 483.11 899.63 482.24 899.71 480.99 898.94 477.76 898.72 475.74 899.17 474.74 899.98 474.4 901.07 473.26 901.89 471.44 901.93 468.07 902.68 466.42 904.38 464.75 904.72 464.41 905.64 465.37 908.76 466.65 908.79 466.88 907.74 467.82 907.53 467.36 909.47 465.96 909.44 465.34 910.75 463.61 911.66 463.03 912.64 463.65 914.99 463.76 917.14 463.49 918.57 462.25 919.66 459.41 920.01 458.38 920.92 456.39 921 454.73 920.07 452.21 919.63 453.36 916.24 453.21 914.97 451.84 913.76 448.85 913.87 448.63 914.52 446.79 914.54 445.53 915.64 444.23 915.15 444.28 913.97 445.11 912.88 444.65 911.35 445.73 909.7 445.94 907.59 445.41 905.53 445.81 903.87 445.24 901.13 445.35 899.92 444.75 897.83 443.38 895.12 442.19 894.7 441.92 893.43 442.92 893.13 444.1 893.98 445.14 893.9 446.02 892.61 444.21 891.54 443.77 890.64 443.87 888.43 445.79 888.14 445.74 887.08 447.68 886.14 449.14 885.93 449.7 883.22 449.29 881.11 448.03 877.53 446.15 874.7 444.86 873.74 443.66 874.88 441.2 875.04 442.15 872.14 440.5 870.43 439.53 870.45 437.78 868.34 438.15 867.22 440.28 865.45 442.19 865.61 443.61 864.79 444.03 862.86 445.05 862.3 444.61 860.89 444.59 858.97 445.59 858.3 446.91 859.4 447.53 860.81 448.54 860.64 450.26 859.38 451.37 859.06 452.23 858.09 452.68 856.06 451.99 854.82 452.58 853.82 454.9 851.68 455.19 850.21 456.37 849.03 457.48 849.61 458.82 847.88 459.07 846.38 460.31 844.36 459.99 843.16 460.77 842.43 461.55 838.68 460.45 833.7 458.82 830.16 456.66 827.13 454.26 824.9 452.22 826.46 448.78 828.2 447.84 829.74 444.33 830.61 443.52 829.51 444.02 828.56 446.6 828.47 449.99 827.45 452.25 826.21 454.03 824.76 452.25 820.98 451.69 820.6 450.94 818.12 453.52 816.12 453.88 811.94 452.71 810.44 451.52 807.43 450.71 806.75 450.26 805.15 451.05 803.98 452.52 803.47 453.33 798.6 453.07 796.97 453.2 794.33 452.58 793.61 450.95 793.17 450 791.31 450.74 790.01 450.77 788.02 450.41 787.08 446.53 783.84 442.86 781.78 441.75 781.44 438.03 779.58 435.4 778.61 433.52 778.19 429.61 778.25 428.86 777.31 425.7 778.41 423.68 778.68 421.68 779.32 420.42 780.72 420.75 785.92 421.09 787.46 420.15 789.38 419.16 789.28 417.45 790.22 417.41 792.66 415.33 794.64 413.5 792.94 413.35 791.93 411.11 791.33 410.22 792.25 409.25 792.25 409.21 790.73 409.9 789.89 407.98 789.13 405.68 788.93 403.94 789.13 402.28 789.83 401.64 791.67 402.6 792.52 400.49 795.15 396.76 796.98 395.67 798.26 394.26 798.84 394.36 799.65 391.18 800.17 388.14 800.11 386.76 801.76 384.48 799.84 383.18 802.12 383.24 802.96 384.56 804.23 383.23 806.44 383.7 807.31 382.74 809.26 381.84 809.52 379.93 811.51 379.46 811.14 380.16 807.27 376.85 806.4 374.63 807.85 375.06 808.46 374.31 810 371.35 809.97 370.51 806.52 371.17 804.92 371.17 803.48 372.03 802.41 370.51 799.24 367.56 796.85 367.03 795.54 365.17 795.05 362.8 792.66 363.14 790.89 362.56 787.76 361.69 785.06 361.05 784.1 361.99 783.22 365.04 782.71 365.96 781.46 367.41 781.77 368.18 783.23 370.1 785.25 371.16 785.97 371.3 787.3 372.71 788.96 373.83 791.11 375.6 792.98 377.59 794.41 378.1 796.89 378.67 797.29 380.64 796.92 384.27 794.94 386.48 793.13 387.85 791.08 385.42 787.14 384.14 786.33 382.38 783.87 381.16 782.58 379.46 779.16 380.59 778.77 382.05 779.27 382.61 780.33 383.96 780.81 383.93 781.78 385.26 783.71 386.29 785.92 388.79 785.5 388.91 784.02 388.67 781.08 389.29 779.3 390.95 779.16 391.84 779.85 394.96 781.04 395.54 781.67 396.84 780.17 396.89 779.14 394.32 777.07 392.43 775.99 391.39 774.37 389.93 774.17 387.59 773.07 386.2 771.88 386.11 769.3 384.93 768.71 382.86 768.78 381.5 766.55 380.87 764.91 379.12 764.03 379.28 762.83 380.39 762.87 381.98 763.93 382.78 763.45 384.4 761.34 385.12 760.95 387 761.39 387.62 760.77 388.1 758.35 387.72 757.05 384.13 756.26 382.77 755.72 381.44 755.85 378.93 755.35 376.22 754.01 375.39 752.51 375.67 751.53 377.17 750.2 380.61 750.07 381.73 747.88 383.64 746.84 385.01 746.56 387.37 746.78 387.91 745.76 387.6 744.02 385.99 743.55 384.87 743.78 383.04 742.99 380.77 743.45 377.96 745.97 375.51 744.53 373.41 744 372.1 744.2 371.01 742.75 371.72 741.22 372.86 740.65 374.08 741.45 375.01 742.86 376.87 742.52 379.18 740.78 381.81 738.18 381.78 736.49 383.45 735.86 383.85 737.65 386.74 738.79 387.43 739.37 388.89 739.12 391.37 737.53 392.5 736.26 390.89 731.74 391.41 731.29 392.69 732.13 395.2 735.41 395.41 737.04 396.69 737.93 398.29 738.21 400.51 737.27 401.81 737.16 404.33 738.05 406.03 739.32 409.01 740.22 411.14 741.28 414.16 738.65 415.38 731.96 413.8 731.05 411.75 730.79 409.82 728.99 409.86 728.29 407.84 725.42 409.15 723.95 408.95 721.61 406.7 720.24 405.07 720.27 403.17 720.96 402.19 718.8 401.02 717.74 400.93 716.43 402.44 714.89 403.03 712.72 402.54 711.09 401.11 709.57 398.44 709.67 397.13 708.47 397 707.04 397.78 706.15 401.82 705.36 403.41 703.99 404.37 701.91 405.5 700.33 403.33 698.64 402.99 699.58 400.75 699.8 400.51 698.71 398.37 695.64 397.91 694.41 399.71 692.18 401.39 692.4 401.28 693.5 402.51 693.78 404.45 693.21 406.75 693.55 408.23 694.17 409.34 695.32 409.43 696.24 410.48 697.92 411.55 698.03 415.66 699.73 417.95 699.97 426.73 700.1 427.83 697.84 432.22 698.42 430.71 696.37 430.98 695.46 432.89 693.99 435.45 689.7 437.25 689.73 439.54 687.41 440.85 685.35 441.7 684.78 443.45 685.37 445.47 683.39 445.7 682.42 438.62 667.19 Z" fill-rule="evenodd" id="36600340"/>
<path d="M 607.04 827.32 608.79 827.82 610.16 829.53 611.21 831.46 610.7 833.95 607.65 833.68 606.38 832.13 606.01 829.54 606.38 827.34 607.04 827.32 Z M 656.11 702.18 657.15 703.8 655.39 704.22 653.21 703.59 653.6 702.25 654.98 701.86 656.11 702.18 Z M 577.75 882.47 578.12 880.26 577.12 879.46 576.86 878.21 573.93 874.8 572.87 872.77 572.4 869.97 571.37 869.78 570.47 866.58 569.57 864.59 567.35 862.09 567.11 860.53 565.22 859.68 563.27 854.92 561.96 853.29 561.61 851.98 560.02 851.01 557.61 848.16 552.26 847.12 550.88 847.39 548.1 847.04 545.9 847.68 544.07 847.15 542.6 848.47 536.69 848.67 535.68 847.95 534.8 846.08 533 845.33 530.48 844.83 529.2 843.54 527.13 842.64 525.28 843.19 522.09 840.74 521.63 839.9 521.59 838.16 523.75 835.84 524.04 834.75 525.58 833.08 523.52 829.47 520.98 827.5 519.01 824.93 518 822.22 517.72 820.19 518.06 818.84 518.93 818.59 520.34 816.21 520.05 815.42 522.52 811.2 524.51 807.03 523.71 805.04 523.84 801.6 524.76 799.67 525.58 798.82 526.09 797.3 527.36 796.6 528.26 795.34 529.2 794.89 529.55 793.23 530.86 790.38 532.67 788.29 533.64 785.83 533.86 783.67 534.36 782.23 535.23 781.62 535.9 779.91 538.19 778.72 539.91 776.49 541.06 775.42 540.54 770.69 540.76 768.96 543.83 765.74 543.81 764.45 547.24 761.25 547.85 757.6 549.72 754.16 551.53 750.3 553.69 750.05 555.93 748.27 557.93 746.19 559.84 743.77 562.12 742.03 564.04 737.01 564.21 734.68 565.33 730.62 568.14 728.97 571 725.93 572.08 724.19 572.83 723.89 573.79 721.54 573.71 718.95 575.4 717.64 577.71 717.74 579.3 716.1 582.79 712.99 583.22 711.63 584.32 710.06 586.04 708.28 587 705.92 585.92 703.74 586.53 702.08 585.53 699.06 585.82 698.1 584.17 694.81 583.35 694.15 583.19 692.31 584.11 689.56 585.12 687.98 590.72 686.22 592.45 686.47 593.55 687.09 594.53 686.33 596.8 682.07 595.67 680.35 595.08 678.21 595.38 677.49 598.94 675.11 599.69 673.85 603.22 670.27 603.33 669.51 605.19 666.33 606.42 663.8 607.65 662.79 610.44 658.93 612.5 654 613.12 650.74 614.29 647.93 616.1 642.6 615.87 640.96 616.79 638.74 619.24 634.84 619.33 632.52 620.45 630.07 621.08 627.54 621.1 621.45 616.15 615.99 615.97 613.44 613.25 610.66 613.18 609 613.93 607.27 614.59 604.58 614.48 603.12 617.05 602.64 619.66 602.53 621.84 600.03 624.08 595.58 625.53 594.34 627.98 593.44 632.31 590.94 632.94 589.15 634.81 586.97 636.2 586.3 638.22 583.35 639.46 585.58 640.41 586.05 641.66 587.46 642.69 587.47 644.5 589.31 647.64 590.94 649.74 594.39 652.15 595.95 654.62 598.8 656.18 600.04 656.44 602.99 656.36 606.35 657.88 608.09 660.26 609.93 662.36 612.54 663.75 615.15 668.03 616.11 669.29 617.91 672.78 619.95 672.9 621.58 674.25 622.42 672.67 624.25 670.63 625.01 669.11 626.06 668.73 626.87 666.75 628.92 665.25 629.72 664.86 630.78 665.18 633.3 666.33 634.59 666.31 635.87 668.9 637.6 670.68 640.17 670.46 641.84 672.11 642.78 673.7 644.39 673.64 645.74 675.44 645.73 678.08 647.04 678.56 647.67 678.04 649.5 678.81 651.4 681.63 652.79 682.56 654.23 683.15 656.54 684.48 656.74 684.87 658.89 683.58 659.52 681.03 660 679.99 660.82 678.08 661.05 676.57 665.37 677.04 667.94 676.46 669.26 674.53 670.63 672.86 671.01 670.91 670.05 668.93 670.15 667.56 669.12 665.15 668.85 664.49 667.08 665.41 665.96 663.84 665.7 662.54 666.1 661.39 668.3 661.87 672.21 663.07 673.97 663.22 677.16 660.54 676.26 658.03 676.64 656.62 675.6 655.21 675.69 655.56 679.31 657.01 681.54 657.72 685.7 659.82 685.55 660.18 686.73 663.6 686.65 664.79 686.25 666.24 687.03 666.26 687.86 664.96 689.18 664.11 688.5 664.32 687.23 663.11 686.67 659.85 687.55 658.54 685.97 657.18 686.31 654.9 686.16 653.15 686.59 651.93 687.98 651.92 688.75 655.19 692.62 655.21 693.79 654.46 694.59 652.76 692.47 651.28 692.08 648.1 692.94 647.2 692.61 644.33 690.33 643.35 689.12 641.17 688.69 639.81 689.2 638.62 688.17 636.98 687.94 635.54 689.7 635.36 690.99 634.06 691.29 633.28 692.16 632.72 694.32 634.21 694.98 634.8 694.63 635.73 696.23 635.85 697.71 635.27 698.66 632.93 697.34 631.44 697.39 629.36 699.84 628.36 703.06 628.55 704.11 627.05 705.49 626.17 707.2 624.95 707.34 622.57 704.22 621.41 704.16 621.5 703.1 619.42 700.95 616.87 698.94 613.69 700.48 612.59 703.03 611.38 702.63 610.63 703.14 609.04 705.52 606.78 706.13 606.37 707.33 607.52 708.24 606.94 710.51 607.73 711.27 609.66 710.26 611.05 711.18 613.99 712.63 613.86 714.29 613.13 715.05 613.95 716.73 615.1 717.42 615.5 718.38 614.21 720.86 612.98 722.47 613.98 723.16 613 725.54 610.96 726.95 608.26 727.51 606.78 729.13 606.53 730.53 604.37 733.4 601.91 734.67 600.61 736.53 598.49 738.29 600.18 740.1 600.77 741.4 601.31 745.26 601.85 745.64 602.66 749.9 602.58 751.02 603.46 752.01 606.24 752.32 607.83 751.98 613.34 752.4 614.19 753.48 613.81 754.55 610.5 760.06 610.76 761.06 609.99 762.9 610.07 764.78 612.74 767.86 612.35 769.57 613.27 770.41 612.32 771.3 612.15 772.4 610.19 774.2 610.23 776.58 609.3 777.73 607.63 778.98 607.1 780.07 605.97 778.68 604.74 779.35 606.06 781.69 606.99 780.75 608.97 780.62 609.47 780.17 610.97 781.04 611.69 782.35 611.22 783.53 611.85 785.37 611.48 787.3 613.06 791.05 612.68 792.14 610.26 792.98 608.66 794.2 606.04 795.49 604.99 795.01 603.83 796.38 604.79 798 604.22 800.25 603.3 801.29 601.56 801.74 599.26 801.23 597.32 802.62 592.82 807.12 591.32 809.76 590.46 809.76 587.05 807.92 585.17 808.62 582.58 811.41 583.24 811.88 584.35 814.23 584.41 816.08 586.98 818.09 589.39 818.53 590.69 819.11 594.49 818.28 594.04 819.51 594.87 822.64 596.75 823.69 595.5 824.39 594.06 824.39 593.44 826.14 592.54 826.71 590.12 826.87 588.34 827.89 586.49 829.37 585.46 831.23 585.44 832.83 587.24 832.99 588.05 834.83 586.35 836.31 586.17 833.62 583.98 833.05 581.54 834.12 580.64 836.04 579.37 836.66 579.71 837.59 581.5 839.15 581.73 841.28 584.02 840.99 585.77 841.24 586.07 842.17 586.45 846.56 584.39 849 584.23 849.84 585.27 851.55 585.54 853.09 583.94 854.17 582.95 855.85 582.91 857.9 584.29 858.79 584.66 860.51 583.2 861.61 582.52 864.49 582.71 865.24 581.83 866.24 581.49 868.03 581.59 869.68 582.21 870.54 584.37 870.62 587.79 872.37 589.49 875.01 588.91 876.97 587.3 877.45 586.57 876.74 584.16 876.04 582.27 876.94 579.48 879.74 578.98 881.71 577.75 882.47 Z" fill-rule="evenodd" id="36600350"/>
<path d="M 712.26 663.28 713.4 663.89 713.07 665.75 711.6 665.18 711.52 663.52 712.26 663.28 Z M 799 603.35 798.92 604.58 797.45 606.1 789.48 618.45 790.17 620.28 794.5 622.01 796.79 621.64 797.86 620.74 798.7 621.92 797.29 624.2 795.91 624.01 793.28 621.75 791.4 620.98 790.27 622.32 789.38 622.17 787.11 622.88 782.28 627.38 780.89 627.94 777.33 624.55 775.9 624.18 773.59 623 770.44 623.55 764.45 626.29 762.2 628.53 761.26 628.56 760.92 631.3 761.31 632.69 759.65 633.56 758.93 634.61 756.27 634.93 753.41 634.95 751.05 634.36 749.18 633.17 745.08 633.32 745.27 633.78 745.91 638.45 746.11 642.3 746.88 643.29 750.22 645.05 752.86 645.83 758.36 644.25 759.34 643.81 760.29 644.3 761.73 643.42 764.43 642.67 765.1 642 767.33 642.66 767.38 644.14 764.07 645.26 763.2 646.1 761.23 646.88 759.41 646.83 754.53 647.98 754.12 647.43 752.06 647.23 747 645.78 746.14 645.36 745.84 638.35 745.2 633.78 744.76 632.81 741.84 632.96 740.68 632.48 737.98 633.71 737.82 635.28 736.04 635.66 732.88 638.11 724.15 644.53 723.96 645.78 726.37 648.44 723.09 650.52 722.14 651.72 720.45 653.04 717.13 652.87 715.41 653.25 714.29 656.67 712.4 658.48 711.5 659.78 709.88 660.24 708.13 659.99 706.87 659.36 705.73 658.08 703.07 657.58 701.64 656.74 699.6 658.2 699.36 658.92 701.16 660.54 701.04 662.02 701.77 662.88 702.28 664.88 704.11 665.89 704.64 668.08 706.25 668.38 707.34 670.96 707.38 672.08 706.16 673.53 704.2 672.7 703.02 673.51 702.9 674.81 704.08 674.88 705.25 675.62 706.04 677.86 705.49 679.67 704.49 680.26 702.81 679.89 701.97 680.26 700.01 679.94 699.62 679.14 699.48 676.82 699.98 674.74 696.12 670.93 695.29 669.93 693.21 668.35 691.32 667.48 688.97 665.42 688.01 663.96 686.74 660.37 684.87 658.89 684.48 656.74 683.15 656.54 682.56 654.23 681.63 652.79 678.81 651.4 678.04 649.5 678.56 647.67 678.08 647.04 675.44 645.73 673.64 645.74 673.7 644.39 672.11 642.78 670.46 641.84 670.68 640.17 668.9 637.6 666.31 635.87 666.33 634.59 665.18 633.3 664.86 630.78 665.25 629.72 666.75 628.92 668.73 626.87 669.11 626.06 670.63 625.01 672.67 624.25 674.25 622.42 672.9 621.58 672.78 619.95 669.29 617.91 668.03 616.11 663.75 615.15 662.36 612.54 660.26 609.93 657.88 608.09 656.36 606.35 656.44 602.99 656.18 600.04 654.62 598.8 652.15 595.95 649.74 594.39 647.64 590.94 644.5 589.31 642.69 587.47 641.66 587.46 640.41 586.05 639.46 585.58 638.22 583.35 637.65 579.38 640.39 571.61 639.68 569.91 637.27 567.31 635.88 564.96 635.87 554.39 635.53 552.59 635.93 551.57 639.06 549.95 640.72 548.28 641.56 546.63 644.25 548.07 646.95 548.54 650.01 548.14 652.92 546.5 654.64 545.89 657.18 543.29 658.36 543.71 660.6 542.45 662.04 542.11 662.5 542.5 664.62 540.67 667.14 541.57 668.34 541.04 669.22 540 675.01 540.37 675.45 539.28 676.79 538.48 678.89 535.17 680.79 533.17 681.2 531.65 682.14 530 681.87 529.21 682.83 527.84 683.65 527.53 686.26 524.98 687.45 522.44 689.65 519.36 692.25 514.56 693.41 512.77 694.82 511.46 698.38 510.64 700.15 508.23 701.82 506.51 703.91 503.58 704.86 501.62 706.48 499.38 709.03 496.93 713.72 494.95 715.24 496.18 718.73 496.07 720.23 494.91 723.46 494.52 725.67 495.8 726.32 496.55 724.82 497.77 721.45 501.45 721.4 502.7 719.9 504.98 720.11 507.65 718.68 509.5 719.28 511.38 720.53 513.6 720.38 515.24 720.72 516.42 720.04 517.99 719.74 520.98 719.08 522.81 719.27 524.6 718.71 525.78 718.5 527.95 718.69 529.56 719.67 530.24 716.42 534.03 715.24 537.08 716.02 538.91 715.64 542.04 716.06 547.92 716.73 549.89 716.16 553.77 715.23 554 715.06 555.94 715.88 556.1 715.52 560.4 716.23 565.1 714.27 567.6 715.69 570.17 716.17 572.58 715.79 574.42 714.74 574.19 713.81 572.2 713.01 573.53 713.79 574.42 718.23 576.14 720.03 577.01 723.51 578.28 726.29 578.79 729.16 577.55 729.71 574.44 739 572.96 767.62 573.89 769.55 574.14 770.92 575.2 771.65 576.5 774.03 582.37 799 603.35 Z" fill-rule="evenodd" id="36600360"/>
<path d="M 699.19 325.88 698.88 327.59 697.93 329.03 698.71 329.8 699.7 331.71 699.56 332.65 697.65 335.95 698.38 338.09 700.03 340.46 701.54 341.44 702.28 342.57 703.68 343.48 704.2 345.52 706.35 346.48 705.98 348.93 707.81 350.2 709.32 350.86 711.49 350.82 711.65 352.19 712.43 354.37 711.45 355.62 710.18 355.82 710.11 357.13 712.13 358.79 712.85 361.5 716.31 364.13 715.47 367.9 717.21 369.94 718.73 370.79 719.93 372.7 720.69 373.32 723.63 374.82 723.58 376.17 724.15 377.66 725.33 379.34 726.34 379.76 726.82 381.39 728.78 383.38 729.78 385.06 729.64 385.97 732.01 388.75 732.85 389.12 735.31 391.65 734.24 394.22 732.97 394.9 733.13 396.84 732.79 399.02 731.71 400.17 731.99 404.78 731.24 406.87 729.84 407.07 729.67 409.4 728.22 410.73 728.37 412.23 727.5 413.32 726.11 414.09 727.49 416.27 725.97 417.3 724.74 417.47 723.39 418.35 724.17 420.53 722.51 420.6 721.06 421.37 720.37 422.89 718.99 423.78 718.39 425.5 716.81 427.85 715.47 428.77 714.85 429.85 711.28 432.89 710.04 433.07 709.75 434.66 707.68 434.38 703.9 437.04 703.59 438.17 702.61 438.91 701.08 438.71 698.46 439.63 697.19 440.7 695.96 440 693.72 440.55 692.84 440.02 689.98 440.96 690.24 442.05 689.87 444.68 690.91 446.8 692.42 448.31 693.78 449.09 699.97 450.94 701.27 453.24 701.24 454.8 705.62 456.53 706.27 456.25 708.2 456.7 709.65 458.1 711.29 458.28 714.85 457.92 716.03 457 717.96 460.15 719.17 460.66 718.68 462.18 719.47 465.37 720.95 467.48 720.58 469.02 720.88 470.15 719.93 474 718.39 476.31 716.42 478.55 714.25 479.46 713.75 481.51 711.29 485.36 712.22 489.86 713.59 493.67 713.72 494.95 709.03 496.93 706.48 499.38 704.86 501.62 703.91 503.58 701.82 506.51 700.15 508.23 698.38 510.64 694.82 511.46 693.41 512.77 692.25 514.56 689.65 519.36 687.45 522.44 686.26 524.98 683.65 527.53 682.83 527.84 681.87 529.21 682.14 530 681.2 531.65 680.79 533.17 678.89 535.17 676.79 538.48 675.45 539.28 675.01 540.37 669.22 540 668.34 541.04 667.14 541.57 664.62 540.67 662.5 542.5 662.04 542.11 662.44 540.14 661.19 537.72 659.72 536.77 659.86 531.2 658.69 530.84 657.9 529.37 655.71 527.04 652.62 525.42 651.63 524.1 652.05 521.27 650.49 519.35 648.29 517.84 647.06 515.28 647.83 510.51 647.6 509.12 647.93 506.87 647.34 505.43 646.35 504.92 645.95 503.17 642.92 499.31 644.73 496.88 646.12 496.56 647.1 496.96 648.81 495.58 649.01 494.76 650.18 494.33 650.6 491.9 650.34 491.37 651.09 488.09 649.93 485.13 649.16 483.89 648.92 482.43 649.43 481.01 650.34 480.81 653.93 477.47 655.07 476.91 655.26 475.71 655.01 473.06 655.92 472.11 656.44 470.35 656.11 468.07 655.03 466.73 653.42 464 651.98 462.31 652.18 459.56 651.51 457.42 647.85 454.39 646.21 451.73 648.06 449.76 647.7 448.3 647.95 445.35 647.01 443.78 646.02 443.2 645.99 442.19 646.86 440.77 648.17 440.7 648.99 438.82 650.37 437.69 651.61 435.86 650.97 434.84 649 433.75 649.01 430.83 648.12 430.27 645 429.34 644.03 429.37 641.78 427.86 641.7 426.74 640.58 425.25 637.92 422.68 636.81 420.83 635.54 420.27 632.14 421.06 632.53 420.06 632.25 417.4 632.4 415.86 630.16 413.07 630.67 410.54 630.37 408.64 629.8 407.75 629.28 402.82 629.46 399.39 630.76 398.19 630.4 393.84 628.83 391.54 629.35 390.06 629.56 387.38 628.87 385.81 631.92 383.48 632.72 381.77 633.04 379.44 631.89 376.87 631.03 375.67 630.79 373.75 631.55 372.36 631.33 370.46 630.69 369.04 629.07 366.67 631.18 365.67 634.67 364.42 634.46 360.06 633.33 357.83 631.68 352.95 629.81 350.94 629.17 346.34 627.56 345.17 626.58 343.03 624.84 341.28 623.22 339.23 620.06 338.09 618.91 339.1 617.76 338.1 615.42 337.37 614.69 335.8 614.12 333.13 612.51 332.81 609.75 331.35 608.85 330.58 607.58 330.85 604.29 329.45 600.38 326.24 597.59 325.39 596.79 323.08 596.35 320.55 598.86 320.19 600.48 319.39 601.4 316.5 601.59 314.52 601.38 311.25 602.3 307.9 604.12 305.67 606.1 304.2 609.69 302.93 612.13 301.42 613.97 301.12 614.76 300.06 616.57 299.52 618.16 299.54 619.33 298.19 620.16 298.55 623.09 297.97 623.25 300.04 625.86 299.76 627.69 299.98 629.83 299.04 628.43 294.08 629.19 290.9 631.87 288.78 634.16 289.09 637.46 288.07 640.03 286.59 641.6 284.33 641.95 283.01 643.28 280.86 643.87 279.3 643.95 275.28 645.97 273.02 646.43 271.2 648.25 271.42 650.89 271.01 651.45 269.41 654.01 266.32 654.96 262.92 656.53 259.37 657.24 256.85 659.16 258.18 660.14 260.36 661.97 261.84 662.75 263.2 662.14 268.18 663.4 271.25 664.44 272.39 666.18 273.47 666.02 275.74 667.1 276.41 666.83 277.65 667.57 280.03 668.28 280.24 670.71 278.9 673.21 279.58 674.69 278.77 675.58 277.26 676.97 276.99 679.41 277.29 682.34 276.55 682.78 276.95 684.45 276.32 685.71 276.52 686.78 278.39 688.21 279.35 689.09 280.81 689.94 281.33 688.88 283.95 690.13 285.08 689.94 286.74 688.93 287.24 688.81 289.76 689.55 291.77 690.7 293.91 689.54 296.31 689.81 297.37 688.99 299.17 689.07 300.45 690.48 302.08 690.26 303.61 691.97 303.11 693.79 303.51 694.64 304.93 695.58 308.15 696.93 307.56 698.97 309.64 700.59 309.74 699.8 312.18 700.2 314.42 701.86 315.51 701.25 317.51 701.3 319.94 700.56 321.14 699.19 322.24 698.24 323.62 697.65 325.47 699.19 325.88 Z" id="36600370"/>
<path d="M 632.14 421.06 630.43 423.76 629.42 424.19 628.74 426.21 626.19 426.74 624.72 427.54 621.91 430.58 620.37 430.83 619.53 433.91 617.52 435.33 616.24 435.37 615.63 436.38 614.07 436.98 612.48 438.33 612.03 439.4 609.69 439.78 608.14 439.25 605.36 439.4 603.87 438.95 602.06 437.22 600.02 439.37 598.46 438.57 597.65 437.7 595.19 437.11 594.76 436.58 592.35 435.63 588.87 434.59 588.38 435.29 585.71 435.62 584.09 438.17 581.29 438.43 580.35 436.86 578.32 434.83 576.34 432.48 573.88 434.5 571.7 435.36 569 437.29 568.15 439.17 566 439.49 561.32 438.1 556.82 436.12 554.83 435.69 552.6 434.05 550.96 433.71 550.22 434.97 546.69 438.41 545.15 436.24 543.6 435.79 543.37 437.78 539.98 438.05 538.43 437.24 536.84 437.37 535.86 436.87 534.6 437.31 532.35 437.53 527.34 435.48 525.17 435.41 521.1 432.79 520.39 431.51 518.16 431.58 517 432.23 513.94 433.1 512.37 435.76 511.49 436.06 510.98 437.77 508.99 438.43 508.35 439.9 509.71 440.84 509.19 443.4 509.97 444.93 509.45 447.81 506.23 451.9 505.36 453.26 501.42 452.77 499 451.86 497.46 450.44 494.22 453.03 492.76 454.87 491.88 456.65 490.31 457.73 487.91 457.66 486.56 458.29 486.05 460.77 487.27 461.77 485.19 465.23 484.15 473.3 483.95 475.62 479.31 476.5 468.4 475 460.36 472.24 455.22 469.93 450.99 470.02 444.11 472.4 440.61 471.96 434.57 469.65 429.82 468 418.59 467.17 413.31 465.85 388.1 455.77 406.61 418.51 411.72 416.78 441.12 416.75 446.12 413.35 451.52 410.89 452.54 409.36 457.08 404.77 458.79 400.46 461.27 390.44 461.39 388.83 462.29 386.64 464 384.92 465.57 384.31 468.95 383.44 470.49 382.74 472.23 381.43 473.46 379.77 474.34 377.32 476.04 364.35 476.65 360.81 477.73 358.48 480.49 355.92 488.53 350.76 492.16 349.32 493.96 349.76 495.84 351.43 495.92 352.77 496.76 353.28 496.98 355.07 498.67 355.55 501.79 355.14 505.6 355.83 508.19 354.99 510.74 356.72 512.07 356.63 515.25 353.9 518.7 352.96 523.9 352 527.83 352.03 531.21 352.94 531.46 349.57 531.91 346.58 535.04 345.01 537.49 343.31 539.18 342.97 539.3 341.93 540.36 340.43 544.04 335.99 544.14 335.23 547.5 333.45 551.75 331.57 554.58 331.07 557.55 327.93 559.52 329.61 563.92 331.63 564.86 331.84 566.33 333.2 568.55 333.49 571.4 334.33 573.95 333.28 576.29 334.69 577.52 334.85 579.71 336.43 582.2 336.93 583.66 338.05 585.38 338.27 586.96 337.14 587.67 337.38 590.26 336.66 590.45 335.53 592.23 332.34 593.69 330.54 594.87 329.72 596.43 326.6 597.59 325.39 600.38 326.24 604.29 329.45 607.58 330.85 608.85 330.58 609.75 331.35 612.51 332.81 614.12 333.13 614.69 335.8 615.42 337.37 617.76 338.1 618.91 339.1 620.06 338.09 623.22 339.23 624.84 341.28 626.58 343.03 627.56 345.17 629.17 346.34 629.81 350.94 631.68 352.95 633.33 357.83 634.46 360.06 634.67 364.42 631.18 365.67 629.07 366.67 630.69 369.04 631.33 370.46 631.55 372.36 630.79 373.75 631.03 375.67 631.89 376.87 633.04 379.44 632.72 381.77 631.92 383.48 628.87 385.81 629.56 387.38 629.35 390.06 628.83 391.54 630.4 393.84 630.76 398.19 629.46 399.39 629.28 402.82 629.8 407.75 630.37 408.64 630.67 410.54 630.16 413.07 632.4 415.86 632.25 417.4 632.53 420.06 632.14 421.06 Z" id="36600110"/>
<path d="M 662.04 542.11 660.6 542.45 658.36 543.71 657.18 543.29 654.64 545.89 652.92 546.5 650.01 548.14 646.95 548.54 644.25 548.07 641.56 546.63 640.72 548.28 639.06 549.95 635.93 551.57 635.53 552.59 635.87 554.39 635.88 564.96 637.27 567.31 639.68 569.91 640.39 571.61 637.65 579.38 638.22 583.35 636.2 586.3 634.81 586.97 632.94 589.15 632.31 590.94 627.98 593.44 625.53 594.34 624.08 595.58 621.84 600.03 619.66 602.53 617.05 602.64 614.48 603.12 610.95 598.92 609.75 596.47 605.27 592.97 603.55 591.01 603.48 589.03 602.78 586.24 601.64 584.51 601.91 583.53 601.56 580.58 600.55 577.64 599.2 575.93 598.75 573.7 597.7 571.77 595.97 569.58 592.2 567.53 590.4 567.81 587.03 567.76 586.81 566.41 588.38 560.05 589.1 557.6 589.92 553.14 591.33 551.25 590.76 549.2 591.65 546.7 591.06 546 590.36 543.89 590.75 541.24 590.78 537.71 591.73 535.2 590.12 534.16 587.71 531.56 582.26 527.21 581.31 523.41 578.44 523.11 574.3 524.24 571.38 517.6 571.22 516.62 572.05 515.94 573.59 512.3 573.7 511.48 572.07 510 569.9 505.88 568.41 504.18 566.76 502.92 565.12 500.95 565.5 497.17 566.69 493.77 564.48 493.86 561.74 492.52 560.28 493.09 558.89 492.88 557.71 494.55 558 498.03 557.41 499.98 555.9 500.64 553.33 503.62 552.38 504.16 550.14 503.61 548.16 503.51 547.7 501.81 546.41 500.83 545.04 500.67 543.23 498.11 540.05 495.65 540.31 494.22 537.28 491.19 534.26 490.26 533.6 489.73 530.83 490.33 528.8 491.08 527.89 490.58 526.71 491.14 524.59 490.68 522.07 491.97 519.27 492.98 517.14 493.03 514.8 494.24 514.65 494.75 512.73 495.81 509.01 497.1 506.09 499.54 505.4 501.06 505.87 503.13 505.51 504.01 504.33 504.75 503.04 503.76 500.04 504.93 499.72 506.05 496.33 505.66 495 506.69 493.46 506.7 492.55 505.36 490.84 505 489.32 503.81 489.03 500.74 487.97 499.63 486.8 499.49 486.08 498.43 485.88 496.63 487.55 494.05 486.09 493.32 485.17 491.81 483.88 490.89 484.34 486.56 483.75 484.88 483.43 482.33 484.35 481.34 484.19 480.26 485.33 478.8 484.71 477.94 483.72 478.39 483.95 475.62 484.15 473.3 485.19 465.23 487.27 461.77 486.05 460.77 486.56 458.29 487.91 457.66 490.31 457.73 491.88 456.65 492.76 454.87 494.22 453.03 497.46 450.44 499 451.86 501.42 452.77 505.36 453.26 506.23 451.9 509.45 447.81 509.97 444.93 509.19 443.4 509.71 440.84 508.35 439.9 508.99 438.43 510.98 437.77 511.49 436.06 512.37 435.76 513.94 433.1 517 432.23 518.16 431.58 520.39 431.51 521.1 432.79 525.17 435.41 527.34 435.48 532.35 437.53 534.6 437.31 535.86 436.87 536.84 437.37 538.43 437.24 539.98 438.05 543.37 437.78 543.6 435.79 545.15 436.24 546.69 438.41 550.22 434.97 550.96 433.71 552.6 434.05 554.83 435.69 556.82 436.12 561.32 438.1 566 439.49 568.15 439.17 569 437.29 571.7 435.36 573.88 434.5 576.34 432.48 578.32 434.83 580.35 436.86 581.29 438.43 584.09 438.17 585.71 435.62 588.38 435.29 588.87 434.59 592.35 435.63 594.76 436.58 595.19 437.11 597.65 437.7 598.46 438.57 600.02 439.37 602.06 437.22 603.87 438.95 605.36 439.4 608.14 439.25 609.69 439.78 612.03 439.4 612.48 438.33 614.07 436.98 615.63 436.38 616.24 435.37 617.52 435.33 619.53 433.91 620.37 430.83 621.91 430.58 624.72 427.54 626.19 426.74 628.74 426.21 629.42 424.19 630.43 423.76 632.14 421.06 635.54 420.27 636.81 420.83 637.92 422.68 640.58 425.25 641.7 426.74 641.78 427.86 644.03 429.37 645 429.34 648.12 430.27 649.01 430.83 649 433.75 650.97 434.84 651.61 435.86 650.37 437.69 648.99 438.82 648.17 440.7 646.86 440.77 645.99 442.19 646.02 443.2 647.01 443.78 647.95 445.35 647.7 448.3 648.06 449.76 646.21 451.73 647.85 454.39 651.51 457.42 652.18 459.56 651.98 462.31 653.42 464 655.03 466.73 656.11 468.07 656.44 470.35 655.92 472.11 655.01 473.06 655.26 475.71 655.07 476.91 653.93 477.47 650.34 480.81 649.43 481.01 648.92 482.43 649.16 483.89 649.93 485.13 651.09 488.09 650.34 491.37 650.6 491.9 650.18 494.33 649.01 494.76 648.81 495.58 647.1 496.96 646.12 496.56 644.73 496.88 642.92 499.31 645.95 503.17 646.35 504.92 647.34 505.43 647.93 506.87 647.6 509.12 647.83 510.51 647.06 515.28 648.29 517.84 650.49 519.35 652.05 521.27 651.63 524.1 652.62 525.42 655.71 527.04 657.9 529.37 658.69 530.84 659.86 531.2 659.72 536.77 661.19 537.72 662.44 540.14 662.04 542.11 Z" id="36600310"/>
<path d="M 322.38 653.46 323.26 654.03 322.87 655.71 321.5 655.17 320.9 654.05 322.38 653.46 Z M 359.85 651.92 362.76 653.26 363.18 658.19 360.83 658.04 358.55 660.55 356.97 661.24 355.96 661.04 354.33 659.88 354.62 658.03 358.32 655.48 358.9 653.98 358.34 652.73 359.85 651.92 Z M 314.96 640.86 317.04 642.46 318.77 642.48 320.04 643.12 322.24 643.18 323.69 643.67 324.41 645.2 324.34 647.48 321.28 646.85 319.36 647.42 318.69 648.87 316.16 649.1 315.29 648.86 313.92 649.81 313.79 650.8 314.49 651.76 313.56 652.99 311.09 648.78 310.43 647.18 311.2 646.51 314.1 645.84 316.4 643.8 316.46 643.13 314.21 642.62 313.46 641.46 313.81 640.31 314.96 640.86 Z M 307.71 631.99 309.33 633.06 310.08 632.92 313.23 634.65 313.27 635.59 314.37 636.49 313.46 638.27 312.44 638.91 312.35 639.94 310.99 641.16 310.94 642.15 309.76 642.36 308.37 643.87 304.46 644.43 302.61 643.74 302.7 643.07 304.46 642.61 305.36 641.55 306.44 641.47 308.18 640.63 309.61 638.83 308.39 638.11 309.53 636.32 308.36 634.34 305.91 633.21 305.66 632.1 307.1 631.48 307.71 631.99 Z M 295.9 617.94 297.78 618.17 299.25 620.32 300.46 620.78 302.32 622.64 304.18 623.49 304.36 625.25 302.27 625.72 300.48 623.43 296.45 622.3 295.15 619.34 294.96 618.21 295.9 617.94 Z M 277.37 579.03 280.4 580.89 282.31 584.71 282.91 585.37 283.93 588.39 285.75 590.26 286.63 592.75 287.64 594.61 287.65 596.35 290.02 599.46 290.9 601.3 291.23 604.89 290.89 605.81 289.73 606.54 290.09 609.19 287.88 609.5 286.3 608.81 285.86 607.71 283.9 607.37 283.53 605.52 282.18 604.56 280.85 604.21 279.78 601.74 280.12 600.45 280.94 599.53 282.64 600.27 284.74 601.98 285.57 601.46 286.52 599.92 285.74 597.66 286.91 596.8 285.13 594.32 283.89 593.77 282.9 594.25 281.8 593.76 281.01 594.15 280.96 595.39 279.17 594.77 278.12 593.75 276.43 590.63 278.08 589.82 277.64 587.37 279.37 587.19 279.98 586.15 278.6 583.95 278.43 582.56 277.61 580.59 277.37 579.03 Z M 483.95 475.62 483.72 478.39 484.71 477.94 485.33 478.8 484.19 480.26 484.35 481.34 483.43 482.33 483.75 484.88 484.34 486.56 483.88 490.89 485.17 491.81 486.09 493.32 487.55 494.05 485.88 496.63 486.08 498.43 486.8 499.49 487.97 499.63 489.03 500.74 489.32 503.81 490.84 505 492.55 505.36 493.46 506.7 491.03 507.33 488.96 509.05 486.49 509.95 484.71 510.29 483.58 511.49 482.49 511.84 481.9 513.37 480.5 513.54 478.81 514.92 475.96 516.21 474.14 517.5 473.09 520.14 473.35 522.25 472.57 522.97 467.98 523.69 466.4 522.9 463.63 522.78 462.67 525.1 461.37 527.38 462.56 528.54 465.07 530.27 466.88 532.81 468.29 534.32 471.49 539.62 472.8 540.35 473.85 542.9 473.32 543.68 470.86 545.28 467.39 546.46 465.53 549.22 466.11 550.85 463.69 552.49 461.82 554.25 461.5 556 460.36 559.13 457.77 559.68 457.7 561.44 456.05 565.06 457.77 568.63 459.06 570.19 458.15 573.05 458.13 575.01 459.15 578.14 460.48 578.97 461.52 578.58 462.63 579.08 463.13 582.37 463.48 582.99 463.24 585.43 461.69 586.4 459.65 587.05 457.58 589.57 454.98 589.9 454.19 592.57 452.31 593.74 451.78 593.33 449.01 594.06 448.41 593.57 447.05 594 444.73 592.84 442.45 593.5 440.89 596.28 440.15 596.83 439.04 599.06 437.02 600.4 437.51 602.72 435.98 604.95 436.03 606.02 435.38 607.31 435.3 608.81 436.2 611.56 439.24 614.24 440.47 616.98 443.24 618.09 445.11 620.7 443.73 620.72 442.04 621.88 442.79 623.67 440.75 626.32 442.43 627.83 443.94 629.69 442 630.3 441.7 631.16 438.26 632.87 436.21 634.21 434.47 634.39 432.11 632.77 430.6 632.04 429.82 631.01 427.64 632.91 425.72 633.5 424.74 634.79 422.88 635.63 422.28 636.4 419.88 637.39 419.02 638.12 416.11 642.26 415.67 644.84 416.07 646.19 415.1 648.42 414.44 648.16 412.79 648.86 410.85 647.7 409.57 647.54 409.3 646.77 407.57 646.13 407.09 644 404.97 642.7 402.59 642.18 401.37 642.62 400.83 642 399.23 642.04 396.98 642.56 395.22 643.61 394.16 643.33 392.38 644.62 390.21 647.31 388.39 650.67 388.55 651.63 389.99 653.1 390.07 655.64 390.66 656.55 390.76 658.48 391.56 659.22 390.22 660.34 387.44 659.31 386.36 659.2 384.07 657.66 382.73 657.29 381.12 657.6 379.44 655.91 379.84 654.53 379.73 653.1 377.49 650.35 375.01 647.98 374.29 646.93 372.02 641.74 370.21 638.34 367.48 634.28 363.92 629.42 359.17 624.15 356.64 622.47 355.09 622.32 353.76 621.62 351.74 619.38 348.4 616.9 346.22 616.33 345.09 614.9 345.41 612.5 346.11 612.3 348.19 613.66 350.67 613.77 353.79 613.13 356.15 611.44 358.82 608.76 360.54 606 361.89 605.86 363.93 607.36 365 610.07 365.14 612.61 366.79 614.59 367.63 616.17 369.26 616.94 371.38 616.87 372.91 617.71 373.58 618.6 375.33 618.78 378.15 617.49 379.11 615.88 382.82 612.44 379.41 607.3 374.35 603.85 372.98 601.92 371.65 601.59 366.98 599.38 367.74 595.67 368.39 594.54 368.27 593.05 367.25 592.05 367.05 589.64 368.39 588.8 369.87 588.49 370.24 586.69 372.21 581.49 373.41 577.93 374.05 576.65 372.74 574.98 370.51 573.05 368.17 571.97 365.63 571.33 363.27 573.19 362.31 574.75 360.05 576.14 359.24 574.48 357.17 573.38 356.13 572.43 355.27 570.56 352.84 569.4 353.32 567.92 351.8 565.19 351.77 564.54 349.74 561.66 347.51 559.26 348.12 555.44 347.35 553.08 348.12 550.12 352.46 550.48 354.51 550.17 356.68 550.62 359.67 550.85 361.17 550.62 362.73 549.24 364.16 546.19 364.85 543.64 364.5 543.13 362.32 542.91 361.3 542.16 360.42 540.5 360.1 539.01 358.37 537.01 357.54 536.69 356.3 535.01 354.92 533.81 353.31 534.63 352.65 535.63 350.47 536.9 348.47 535.5 349.65 533.72 352.06 533.57 352.82 534.25 355.13 532.81 354.91 532.1 357.51 531.23 358.87 528.42 359.06 527.17 359.9 526.72 360.12 525.31 362.43 524.56 362.8 523.43 362.36 521.72 359.65 519.41 358.47 518.83 357.24 520.19 355.26 521.37 353.05 520.89 352.52 518.81 350.54 516.55 349.92 513.38 349.02 513.41 348.87 512.13 349.61 511.01 350.35 511.41 351.73 510.27 352.85 510.31 353.99 509.04 356.27 507.55 360.31 507.25 363.15 507.48 365.96 506.71 368.15 505.04 369.15 504.79 369.92 503.53 371.12 503.13 373.09 501.57 370.09 496.12 369.01 494.42 364.04 485.3 362.69 483.23 371.25 476.02 384.18 463.65 388.1 455.77 413.31 465.85 418.59 467.17 429.82 468 434.57 469.65 440.61 471.96 444.11 472.4 450.99 470.02 455.22 469.93 460.36 472.24 468.4 475 479.31 476.5 483.95 475.62 Z" fill-rule="evenodd" id="36600320"/>
<path d="M 361.69 106 366.66 107.53 383.83 121.84 377 128.9 372.06 138.79 368.48 150.77 368.09 162.1 368.69 167.8 370.68 177.94 380.64 200.95 393.82 211.38 403.35 213.65 417.23 210.99 424.32 211.97 430.63 215.45 434.77 219.04 440.85 227.74 452.8 241.8 460.78 248.06 461.38 250.75 462.03 251.56 461.36 252.45 459.14 257.14 458.76 259.84 459.91 260.17 456.87 265.6 454.93 266.75 453.4 268.49 452.89 271.1 449.69 273.46 447.87 275.03 447.72 277.15 446.51 278.19 444.03 277.81 442.08 280.04 441.46 281.47 441.55 284.15 439.9 285.66 437.83 286.46 438.55 288.05 435.27 290.62 433.55 290.13 433.48 291.6 431.87 292.72 429.08 293.21 426.87 294.67 425.84 294.11 425.32 295.91 422.98 297.49 421.86 299.46 420.93 302.45 415.78 302.61 415.24 301.12 413.4 299.94 410.53 300.05 407.24 300.65 404.99 301.28 401.86 300.7 400.94 299.82 399.76 297.76 398.47 294.43 396.66 294.47 396.33 292.17 394.69 289.92 392.72 288.76 390.49 287.99 388.25 287.7 385.79 287.85 382.79 288.61 378.55 291.33 377.62 293.15 375.67 302.33 372.94 309.47 371.6 311.74 370.18 313.37 365.35 317.34 354.68 322.64 341.99 328.8 336.05 331.49 332.02 331.76 329.42 322.71 328.4 322.13 327.69 323.74 325.7 331.24 316.99 328.86 304.07 322.21 297.17 317.09 293.73 304.47 280.11 294.43 258.56 285.26 245.1 280.89 230.65 273.34 221.39 251.34 213.11 247.04 206.76 237.4 203.36 221.9 187.62 185.31 181.87 177.84 170.97 167.07 164.36 153.48 163.86 149.33 164.99 141.8 166.89 136.23 177.61 128.02 178.14 127.38 180.05 129.61 182.01 130.32 183.35 131.25 187.35 136.06 192.49 136.29 197.03 135.19 199.9 134.31 201.89 132.92 201.92 131.78 200.71 130.54 201.14 129.28 203.06 128.45 203.73 127.63 205.18 128.06 206.83 127.01 208.74 126.65 210.08 125.85 214.45 114.44 211.85 112.39 211.91 111.41 213.62 109.5 216.43 109.9 219.93 104.16 219.63 102.68 218.23 102.1 220.47 99.67 220.75 98.01 222.26 95.62 222.31 95.01 223.72 93.99 225.99 95.3 230.21 91.3 231.2 90.03 232.08 89.94 235.39 86.72 236.74 85.1 236.19 84.63 238.13 82.37 238.91 80.64 239.89 77.33 240.87 73.29 241.62 73.44 267.68 78.92 298.01 86.41 361.69 106 Z" id="36600410"/>
<path d="M 127.23 389.87 128.42 390.85 128.24 391.96 126.35 392.48 125.04 391.27 126.33 389.89 127.23 389.87 Z M 147.01 380.84 147.5 382.25 147.22 384.46 147.4 388.78 147.87 389.54 146.96 390.39 144.6 389.17 142.74 389.15 141.23 392.29 138.16 392.13 135.66 393.43 134.26 394.58 132.72 396.75 130.4 398.21 129.17 397.6 129.69 393.19 131.04 391.69 131.62 390.39 131.63 388.67 130.92 387.38 132.75 385.62 134.79 383.16 135.87 383.41 136.61 384.52 137.57 384.39 138.36 383.43 140.46 383.17 142.03 383.67 143.07 381.5 144.84 381.83 145.19 381.07 147.01 380.84 Z M 105.58 340.86 106.4 342.1 108.21 343.33 108.36 345.15 107.73 346.63 106.26 347.84 105.6 348.98 104.14 348.54 102.9 349.16 101.55 348.63 100.51 349.65 99.18 351.98 97.41 352.1 97.69 353.52 96.86 354.67 93.66 354.2 92.8 353.32 93.07 352.35 94.55 351.71 96 345.87 95.89 344.31 98.63 342.11 99.7 340.78 103.47 340.02 105.58 340.86 Z M 34.07 296.58 33.96 297.7 32.09 298.04 32.19 296.94 34.07 296.58 Z M 45.15 233.29 46.91 234.55 48.34 234.39 49.82 233.18 52.06 232.96 53.87 233.92 56.7 234.72 60.11 234.39 62.81 233.51 63.25 233.8 66.58 232.93 67.38 235.59 68.5 238.01 70.24 237.16 71 238.78 74.41 237.19 75.52 239.11 76.23 241.95 79.59 242.94 81.67 244.27 82.43 245.15 85.03 245.01 87.48 245.96 89.91 247.51 92.26 248.56 93.83 249.65 95.03 249.78 98.37 249.1 100.72 247.26 102.05 243.72 102.83 243.25 105.92 242.84 106.75 243.18 107.37 244.57 109.12 244.54 108.65 242.51 109.1 241.19 110.66 242.04 110.94 244.15 113.74 245.5 116.02 248.06 120.75 247.8 121.8 248.58 124.14 247.95 126.44 248.69 128.1 248.59 131.55 246.51 132.54 245.66 134.83 246.11 136.92 247.78 139.43 247.71 142.39 248.11 145.87 247.43 147.55 247.97 150.79 248.35 152.47 248.93 153.74 248.9 154.84 248.29 157.23 248.25 158.55 249.15 161.04 249.19 161.78 249.66 163.84 249.18 166.43 250.5 167.68 249.17 169.4 248.34 170.9 246.1 172.27 246.09 173.66 244.57 173.24 243.48 174.78 239.88 175.74 241.68 178.25 242.83 180.68 243.29 182.51 243.13 183.77 242.28 185.27 242.33 186.47 241.62 188.1 241.88 187.24 243.11 187.39 244.74 206.76 237.4 213.11 247.04 221.39 251.34 230.65 273.34 215.8 284.18 216.03 289.91 217 292.66 217.42 296.07 212.69 304.89 208.81 310.42 208.74 312.27 207.86 314.19 207.31 318.56 208.24 325.93 210.31 328.5 210.94 330.22 210.08 332.25 207.94 335.53 207.71 336.32 208.24 338.29 209.29 339.37 212.82 340.47 214.49 342.34 211.6 344.81 211.47 345.65 220.29 355.97 218.38 359.04 218.29 360.16 217.05 361.45 217.61 364.36 216.86 366.18 216.37 369.71 213.13 369.6 209.33 370.82 207.85 372.22 204.87 371.02 202.15 370.96 200.92 369.79 200.51 368.67 199.15 368.68 196.05 367.84 194 366.78 191.39 366.06 191.83 364.48 164.24 364.48 164.24 374.87 165.36 375.88 165.11 377.02 164.45 377.68 163.26 377.45 162.34 375.22 152.48 370.56 152.02 370.49 150.05 373.21 148.96 374.02 147.78 373.88 146.51 376.23 143.16 377.37 141.76 378.64 138.83 378.52 137.61 378.95 135.59 378.23 133.18 378.39 131.78 376.53 127.34 378.49 127.96 379.76 127.2 380.27 125.66 379.53 124.12 380.47 123.42 382.18 122.39 382.84 120.8 382.56 119.71 383.17 118.23 379.01 117.24 378.21 114.58 377.7 114.44 376.82 115.22 375.1 114.8 374.35 113.44 374.18 110.36 371.45 109.45 371.94 107.47 371.49 106.32 369.92 107.73 369.36 110.81 366.98 112.28 364.22 110.22 362.58 108.5 362.76 106.98 362.33 106.61 364.34 105.13 364.87 104.92 363.54 103.96 363.44 103.39 362.03 104.56 358.92 106.09 358.59 109.18 356.62 110.44 354.92 112.34 355.06 113.6 352.48 113.62 351.1 115.53 350.85 116.76 349.43 117.09 348.32 118.79 345.62 118.53 343.28 117.99 342.18 114.01 341.24 112.53 340.1 110.56 339.76 107.19 336.35 105.12 336.61 102.74 337.38 99.32 336.73 98.26 337.56 96.53 337.32 95.28 335.76 94.84 333.98 92.66 332.31 93.93 330.72 95.72 329.31 95.72 327.98 93.74 327.81 93.43 326.53 95.02 325.04 95.6 320.77 90.04 316.65 87.72 318.81 88.44 319.54 89.49 321.66 88.73 323.39 88.76 324.95 86.61 327.88 86.63 328.97 85.61 330.97 84.17 332.25 84.64 333.35 81.19 332.64 78.61 331 78.62 330.28 76.14 329.41 74 330.67 73.68 328.83 72.7 327.53 71.3 326.87 70.79 327.73 68.25 327.31 66.96 327.49 65.47 326.8 64.99 325.44 64.3 325.24 65.25 323.39 65.6 321.94 65.25 320.47 66.14 318.61 68.39 319.74 69.25 319.31 70.48 317.49 70.96 315.76 71.08 313.77 70.64 311.95 69.75 311.22 70.09 310.28 71.49 309.71 72.21 310.15 74.99 309.44 76.98 309.72 78.06 308.5 77.85 307.08 70.71 301.46 68.94 301.97 67.49 298.93 66.23 297.85 66.51 295.49 64.85 295.01 60.59 295.67 56.01 296.09 54.19 296.59 51.72 294.99 49.99 294.94 49.12 297.39 46.73 297.08 45.72 297.7 45.04 298.92 42.3 298.59 40.42 298.67 39.34 300.4 38.67 300.44 35.73 299.21 36.81 297.59 35.87 296.23 33.68 294.45 35.95 293.95 37.89 295.22 37.21 296.68 38.95 296.86 39.14 295.95 41.22 295.7 41.46 295.03 44.43 293.23 45.46 291.6 45.18 290.63 46.69 289.44 48.72 288.31 50.38 288.95 48.76 292.91 48.7 294.42 49.66 294.85 52.78 292.06 53.12 293.17 55.27 293.13 57.21 291.91 58.88 292.04 61.52 293.57 61.98 295.01 65.29 294.55 65.94 293.54 67.65 292.88 68.46 291.72 68.32 290.46 69.18 290.02 70.49 288 70.15 286.3 71.44 285.65 72.39 283.32 72.39 282.19 71.31 280.54 71.17 279.37 69.74 279.1 69.06 278.37 68.74 276.77 66.56 275.85 67.37 274.63 69 274.81 70.44 275.57 72.85 273.52 73.84 273.34 74.4 274.51 76.31 275.08 77.49 276.57 78.54 276.84 79.72 277.87 81.34 277.14 81.78 276.21 81.14 274.08 80.1 273.62 80.13 271.54 79.63 270.39 77.99 269.85 79.65 268.78 79.96 267.37 82.05 263.81 83.29 264.36 88.37 260.8 88.61 259.31 87.65 256.92 86.09 255.89 85.55 254.57 85.61 253.33 83.82 251.72 81.89 248.62 79.06 248.05 75.18 250.89 74.42 254.08 76.13 255.06 74.83 257.55 73.28 257.92 71.99 258.87 71.06 258.2 69.87 258.25 69.53 259.12 66.51 258.91 66.29 257.68 63.34 257.55 62.8 255.28 61.08 255.35 58.09 255.07 55.62 254.27 55.05 252.89 54.03 252.79 53.41 253.62 52.43 253.04 50.25 250.94 50.56 249.13 49.98 248.39 47.39 247.55 46.23 244.44 42.44 242.75 41.06 242.8 38.51 241.59 37.29 239.67 34.48 238.24 33.52 235.37 33.21 231.5 33.57 229.31 34.18 228.86 36.96 229.69 39.54 232.51 41.62 232.71 42.69 233.35 44.92 234.03 45.15 233.29 Z" fill-rule="evenodd" id="36600420"/>
<path d="M 21.29 211.99 21.75 212.34 21.11 215.34 19.72 215.18 19.87 213.29 21.29 211.99 Z M 19.35 169.07 19.11 171.4 17.49 171.04 17.2 169.95 19.35 169.07 Z M 2.27 119.57 3.85 120.98 5.85 121.34 7.09 120.88 8.61 121.53 8.94 123.05 9.04 126.3 7.99 126.76 6.35 126.39 4.29 127.59 3.41 127.14 3.14 125.57 4 124.47 2.83 122.49 1.1 120.86 1 119.72 2.27 119.57 Z M 163.52 76.62 163.08 75.81 164.67 73.9 165.34 74.52 164.88 76.04 163.52 76.62 Z M 178.14 127.38 177.61 128.02 166.89 136.23 164.99 141.8 163.86 149.33 164.36 153.48 170.97 167.07 181.87 177.84 187.62 185.31 203.36 221.9 206.76 237.4 187.39 244.74 187.24 243.11 188.1 241.88 186.47 241.62 185.27 242.33 183.77 242.28 182.51 243.13 180.68 243.29 178.25 242.83 175.74 241.68 174.78 239.88 173.24 243.48 173.66 244.57 172.27 246.09 170.9 246.1 169.4 248.34 167.68 249.17 166.43 250.5 163.84 249.18 161.78 249.66 161.04 249.19 158.55 249.15 157.23 248.25 154.84 248.29 153.74 248.9 152.47 248.93 150.79 248.35 147.55 247.97 145.87 247.43 142.39 248.11 139.43 247.71 136.92 247.78 134.83 246.11 132.54 245.66 131.55 246.51 128.1 248.59 126.44 248.69 124.14 247.95 121.8 248.58 120.75 247.8 116.02 248.06 113.74 245.5 110.94 244.15 110.66 242.04 109.1 241.19 108.65 242.51 109.12 244.54 107.37 244.57 106.75 243.18 105.92 242.84 102.83 243.25 102.05 243.72 100.72 247.26 98.37 249.1 95.03 249.78 93.83 249.65 92.26 248.56 89.91 247.51 87.48 245.96 85.03 245.01 82.43 245.15 81.67 244.27 79.59 242.94 76.23 241.95 75.52 239.11 74.41 237.19 71 238.78 70.24 237.16 68.5 238.01 67.38 235.59 66.58 232.93 63.25 233.8 62.81 233.51 60.11 234.39 56.7 234.72 53.87 233.92 52.06 232.96 49.82 233.18 48.34 234.39 46.91 234.55 45.15 233.29 47.35 224.51 46.15 222.65 44.86 222.87 42.22 222.78 41.5 221.13 40.34 219.91 38.96 216.21 39.34 214.22 38.26 213.1 35.3 213.85 33.43 213.74 32.85 212.53 33.04 211.37 35.41 209.54 37.7 209.79 38.7 208.03 38.16 207.42 39.01 204.79 38.98 203.48 37.17 202.19 35.9 200.6 34.66 199.76 35.33 197.68 31.93 194.47 30.5 194.58 28.88 195.55 27.35 193.33 26.51 192.87 26.43 191.05 27.08 189.9 26.83 186.82 27.63 185.11 28.8 184.74 30.94 185.09 32.91 182.68 33.94 180.76 33.34 179.6 34.53 176.55 34.59 174.21 33.73 172.52 32.7 171.87 30.85 171.84 30.86 170.82 32.23 170.2 34.75 169.76 34.33 168.51 32.77 166.73 29.37 166.71 27.98 166.99 26.53 163.72 26.21 162.31 27.38 160.48 29.6 160.32 30.43 159.28 30 157.84 30.42 156.72 30.16 155.49 30.92 154.69 34.64 155.66 35.55 153.69 35.54 145.82 34.73 146.09 33.12 143.47 34.6 141.87 35.27 140.58 35.5 138.95 35.05 136.95 34.07 135.78 32.51 136 31.55 135.34 31.55 133.35 32.52 131.31 34.19 129.34 34.51 127.12 33.87 125.09 32.69 124.2 32.83 121.03 34.91 119.74 35.61 118.5 35.19 117.16 34.34 116.29 34.32 115.22 37.78 111.5 36.68 108.42 37.84 107.18 38.43 108.19 38.84 110.36 38.63 111.39 40.47 112 40.79 113.46 40.28 114.27 42.06 116.91 44.95 117.71 48.15 119.19 48.83 119.26 53 116.34 53.31 115.16 52.04 112.79 50.85 111.66 53.31 105 54.73 103 57.95 99.94 58.15 97.87 59.39 95.08 58.76 93.77 57.61 90.25 58.11 88.49 59.86 86.38 62.15 85.59 62.81 84.79 64.67 84.48 66.8 89.07 68.39 87.44 66.39 81.49 64.3 79.62 62.29 80.02 61.26 79.79 59.67 78.5 60.28 76.86 59.33 73.55 58.33 73.35 58.09 72.39 58.68 71.31 58.26 68.12 59.18 67.16 59.51 64.72 60.72 63.18 63.88 57.78 64.24 55.12 66.15 50.31 66.56 47.24 67.64 43.49 68.21 40.31 72.17 34.16 73.95 29.25 74.41 24.19 74.91 22.5 75.92 20.68 76.04 19.4 77.83 14.77 77.72 12.38 76.4 12.46 76.12 11.08 76.86 9.84 78 9.21 78.58 10.09 81.36 6.25 82.68 6.08 85.31 5.11 88.17 3.38 89.16 3.34 93.19 1.09 95.48 1 97.9 1.59 100.12 4.01 101.35 4.43 101.48 5.5 102.5 6.51 104.07 6.53 104.8 7.47 109.53 11.24 110.57 12.31 111.81 12.78 112.26 14.71 113.45 17.44 116.27 18.25 117 19.13 117.08 20.62 116.49 21.89 113.41 24.28 112.58 24.62 111.5 27.23 110.65 28.25 111.85 28.77 111.83 29.55 118.46 33.43 121.91 32.98 124.59 30.6 124.8 29.34 127.71 27.14 127.01 24.44 127.66 23.86 130.75 25.97 132.99 29.53 132.17 30.17 132.93 31.13 133.98 30.61 138.22 35.77 137.52 36.42 140.63 39.03 141.28 38.51 143.68 39.57 141.86 40.45 144.82 42.16 149.02 43.73 149.39 44.09 151.81 44.29 152.03 45.79 153.64 47.6 154.78 47.77 155.47 49.3 153.94 50.58 153.49 51.53 154.15 52.69 153.37 53.2 151.86 53.14 150.47 52.52 149.27 53.62 148.49 55.31 147.94 59.73 148.41 60.67 147.69 65 148.71 68.77 147.88 70.6 148.25 72.21 149.96 75.22 150.07 76.69 149.42 77.99 148.36 81.73 148.77 83.22 151.99 85.62 153.83 86.27 157.93 86.57 161.48 87.36 162.66 88.06 164.3 90.68 167.04 94.04 168.56 94.7 168.65 97.03 171.21 100.29 174.16 101.48 175.5 102.34 177.93 106.49 177.86 107.19 178.59 110.58 179.58 112.67 179.16 114.98 179.26 116.13 178.58 119.22 177.15 121.16 177 122.06 174.84 123.48 178.14 127.38 Z" fill-rule="evenodd" id="36600430"/>
</g>
</svg>