<?xml version="1.0"?>
<svg xmlns="http://www.w3.org/2000/svg" version="1.2" baseProfile="tiny" width="800" height="1239" viewBox="0 0 800 1239" stroke-linecap="round" stroke-linejoin="round">
<g id="dong">
<path d="M 181.42 387.72 179.84 386.02 182.61 385.38 181.42 387.72 Z M 50.12 351.23 50.79 341.61 50.72 336.24 49.44 318.19 48.22 314.56 46.46 311.59 38.2 302.59 30.34 297.17 24.32 292.18 19.44 288.48 16.58 286.87 12.07 285.23 8.15 281.69 6.79 278.17 6.37 270.12 6.86 260.3 7.64 253.93 8.82 250.89 14.87 242.74 18.06 234.3 18.86 225.32 16.64 216.36 20.76 216.63 23.07 217.7 25.73 212.57 30.1 202.56 35.07 201.8 38.59 202.55 42.69 204.4 43.75 205.91 40.2 211.98 40.06 213.94 44.78 216.65 40.87 226.27 42.57 226.97 44.6 226.54 46.36 223.7 51.71 220.69 53.36 220.54 51.4 209.37 49.86 208.13 51.62 203.66 51.48 201.33 50.26 200.93 47.89 197.22 47.04 194.25 33.96 189.07 27.41 186.01 25.56 183.09 19.28 180.93 17.82 173.41 13.79 172.95 9.79 171.81 6.74 172.02 4.92 171.55 1 172.65 1.34 168.01 5.14 164.89 8.97 161.15 10.33 158.46 8.35 154.06 9.95 151.46 12.16 149.82 13.87 146.06 12.29 142.55 12.89 140.46 15.94 136.46 16.06 134.16 19.28 130.07 21.37 124.95 23.14 122.45 25.2 118 29.79 113.24 30.81 110.04 27.06 106.21 26.76 104.75 29.6 101.46 34.98 101.06 36.83 102.53 45.33 98.9 45.34 96.23 42.25 92.46 41.18 90.26 39.35 89.53 38.25 87.13 39.49 84.87 38.48 83.76 40.83 80.99 41.3 79.13 45.09 74.85 46.18 75.57 48.61 74.39 51.62 71.03 51.99 68.88 54.06 67.41 57.38 65.93 58.58 66.99 62.43 66.88 64.13 68.42 64.26 70.07 66.37 70.24 68.44 69.29 69.8 65.61 71.31 65.13 72.31 66.75 75.71 68.23 78.75 65.51 76.1 62.38 74.56 56.24 75.04 53.4 76.82 52.28 80.62 52.67 83.38 51.18 84.03 53.2 82.27 56.55 82.76 58.53 84.46 60.28 84.97 63.37 82.6 65.89 83.6 68.24 89.36 74.68 92.89 75.77 94.14 77.08 94.21 80.95 93.66 84.89 94.49 87.08 97.22 88.78 93.28 95.12 95.28 97.29 103.25 100.8 109.06 101.14 114.16 100.58 117.65 99.8 122.47 98.12 126.26 96.33 129.04 93.93 129.85 89.59 128.69 86.33 125.06 84.91 124.5 83.73 125.51 81.37 128.26 79.99 129.16 82.16 128.97 85.31 133.24 86.72 135.27 86.65 135.46 88.52 138.44 88.97 139.39 90.55 141.27 91.55 144.4 91.09 151.01 88.91 154.01 88.95 154.98 89.81 159.91 90.22 161.28 90.92 167.95 91.76 169.72 92.85 171.21 99.02 168.66 100.37 170.82 107.03 169.87 108.11 163.75 110.31 164.12 112.41 167.1 118.28 169.12 123.26 174.02 122.13 175.71 119.68 177.21 120.79 201.33 123.65 204.84 120.4 203.62 117.57 203.25 113.98 207.9 110.49 214.04 104.69 219.66 97.12 224.56 87.86 224.66 86.33 226.25 82.6 227.81 80.31 228.3 76.91 227.29 75.86 226.58 73.16 224.78 69.69 221.31 68.7 214.74 65.95 213.86 63.1 215.31 60.61 214.33 58.79 215.49 55.3 219.04 51.88 221.65 52 224.47 50.38 225.66 51.13 226.17 54 225.63 58.21 230.1 57.26 231.42 54.64 232.72 56.05 235.75 56.44 239.15 54.15 245.26 48.29 249.03 44.31 252.98 40.67 257.27 35.93 262.07 30.08 262.97 27.01 267 24.53 269 25.81 269.19 27.33 272.06 31.78 270.22 31.71 265.88 35.76 265.08 38.53 265.78 39.27 263.67 46.54 262.94 51.26 265.48 61.85 264.61 66.38 263.45 70.33 263.47 74.97 262.68 82.58 264.2 86.26 266.18 88.07 267.66 88.16 267.92 90 267.39 94.12 265.19 97.12 264.25 101.06 261.92 104.99 261.8 106.72 257.74 109.19 256.05 111.57 253.48 113.96 252.88 117.28 254.21 119.11 257.36 119.96 257.65 120.82 253.98 123.59 252.18 125.57 251.82 129.41 250.31 131.06 246.7 139.09 247.14 142.75 249.68 142.83 251.9 144.03 252.75 145.66 250.51 146.96 248.77 150.54 248 150.41 244.57 152.94 243.07 155.11 239.86 156.11 238.62 158.08 235.32 160.16 232.68 160.38 229.17 161.54 227.73 163.29 230.19 165.14 233.17 168.1 233.45 170.25 232.16 176.37 230.83 178.36 226.24 179.09 223.86 180.58 223.96 183.67 228.59 193.61 232.38 194.3 234.47 194.15 235.03 195.75 237.68 199.56 238.39 201.85 237.09 204.05 237.58 209.28 237.33 211.54 238.32 213.5 238.64 216.33 237.54 218.21 232.54 219.78 231.38 219.54 227.57 225.25 229.43 229.85 233.21 231.29 236.5 235.12 234.59 238.48 233.41 241.99 231.26 245.6 228.32 244.48 224.28 243.86 221.93 243.06 218.42 242.79 217.54 241.98 213.82 241.76 204.01 241.8 200.51 242.76 199.61 243.8 197.55 243.84 192.31 246.23 189.7 248.55 189.51 250.63 191.22 253.4 191 256.39 187.59 259.42 190.36 272.21 192.61 272.19 193.47 275.48 190.08 277.7 187.94 277.37 176.62 283.41 178 290.65 184.7 295.74 187.75 296.42 189.25 298.16 189.49 299.98 185.65 302.71 184.41 303.06 183.83 305.88 181.21 309.66 179.34 310.77 177.37 308.88 175.75 308.35 170.1 309.5 166.46 311.47 160.63 312.52 156.73 317.44 153.7 319.4 153.61 321.91 152.49 324.5 148.65 326.23 148.2 328.9 150.6 333.02 152.54 332.76 156.25 334.21 159.21 334.15 161.15 335.35 166.54 334.64 169.38 333.67 175.16 334.6 179.96 336.89 182.46 340.36 183.74 347.21 184.34 347.88 183.63 350.98 179.61 354.05 172.06 360.35 165.89 364.06 162.84 368.53 160.26 374.02 159.39 377.28 157.75 377.12 152.62 381.26 141.26 387.8 140.46 386.23 145.05 383.98 149.18 380.09 152.28 375.81 152.24 373.04 150.88 372.19 150.37 369.74 142.79 366.21 139.74 366.34 137.33 363.51 132.53 362.41 131.27 363.57 129.13 363.5 126.4 365.11 125.13 363.4 132.13 358.88 136.8 353.2 136.56 348.16 126.44 340.13 126.76 337.57 125.92 332.78 124.41 331.8 122.45 331.87 117.62 329.42 115.03 329.93 110.66 325.55 107.24 326.29 103.38 325.21 100.85 326.31 99.63 328 98.44 331.29 99.94 333.72 100.05 337.88 99.02 340.13 97.1 341.23 95.97 343.88 93.85 345.16 90.97 348.11 89.27 349.03 82.87 351.28 79.1 351.94 75.56 349.04 71.46 347.79 66.6 351.72 65.34 353.43 60.98 353.62 58.3 351.84 56.26 349.74 50.12 351.23 Z M 243.55 1.12 244.37 1 246.22 4.49 246.83 7.11 244.88 8.82 244.28 14.09 242.67 15.24 239.37 13.48 237.95 10.11 241.81 1.16 243.55 1.12 Z" fill-rule="evenodd" id="36620360"/>
<path d="M 337.45 799.11 335.2 798.52 335.98 796.39 337.86 794.72 339.09 795.91 337.45 799.11 Z M 209.52 757.35 208.93 757.79 204.18 757.84 205.71 756.38 209.25 755.31 209.52 757.35 Z M 202.5 757.17 200.67 752.52 207.3 750.45 208.54 755.31 202.5 757.17 Z M 343.36 647.78 341.31 649.11 342.37 645.07 343.53 644.15 346.36 643.86 343.36 647.78 Z M 294.19 548.23 300.36 550.5 304.52 547.32 308.06 548.93 309.63 548.64 311.12 547.14 318.74 546.45 318.2 549.67 319.01 551.72 315.45 560.41 313.62 562.32 313.53 565.26 314.4 567.81 314.59 570.48 313.9 574.33 312.59 575.84 313.48 579.15 314.92 579.74 315.65 582.71 319.19 585.46 321.42 588.36 322.4 592.38 323.43 594.52 323.16 596.05 319.25 597.38 317.96 600.61 314.47 603.33 309.85 606 306.31 606.29 301.28 605.38 300.61 607.29 298.13 610.88 296.32 616.31 297.18 618.18 300.87 621.83 301.64 623.76 301.39 626.59 299.44 630.79 297.82 631.91 297.41 634.92 300.11 635.83 305.12 634.52 306.51 633.26 308.96 633.55 315.85 632.9 319.61 634.23 323.65 639.04 326.14 643.43 328.1 647.62 333.8 652.12 335.81 652.2 336.04 653.76 331.57 656.38 328.08 660.24 326.16 666.27 326.63 668.02 326.03 672.8 328 676.3 328.66 679.03 327.54 681.57 324.91 681.01 322.08 682.17 318.99 684.78 315.87 686.37 312.87 689.68 313.02 692.05 312.04 694.18 311.78 697.02 313.44 697.67 317.45 697.54 321.72 699.16 326.06 699.55 327.3 701.17 331.19 700.9 332.61 700.31 333.35 703.02 332.38 706.88 323.17 712.93 319.92 716.11 320.55 718.17 319.21 723.3 314.54 726.55 313.74 728.03 313.44 736.75 315.23 737.43 315.13 744.63 316.15 747.05 319.38 750.15 323.81 752.28 325.12 751.64 326.39 753.98 323.22 754.67 319.69 758.47 318.32 762.79 319.46 766.94 317.55 767.64 316.18 766.03 314.11 765.76 308.63 766.75 307.52 768.02 306.02 765.83 300.91 765.64 299.2 763.34 294.84 760.36 289.76 761.16 279.57 759.52 277.46 760.84 275.02 763.24 274.91 767.46 275.66 769.88 274.42 773.1 274.43 775.92 272.78 776.72 270.47 776.21 270.41 775.11 260.07 779.47 255.41 782.2 255.5 784.1 251.92 781.4 243.52 779.33 242.83 781.63 237.25 776.94 232.11 775.87 228.04 775.46 222.09 776.44 219.62 777.69 217.96 776.45 217.53 772.95 217.86 770.2 219.12 766.97 220.47 766.11 217.24 757.31 216.25 752.97 215.27 750.96 216.12 749.1 220.57 747.65 220.35 744.18 219.3 742.21 219.92 740.42 211.85 733.23 209.84 733.62 208.07 732.44 201.03 733.35 201.25 736.7 200.08 739.5 197.47 736.4 195.84 732.71 195.51 729.63 193.76 728.48 190.8 729.51 188.6 729.37 187 731.85 184.85 733.49 183.49 735.67 180.73 737.05 178.11 739.51 178.04 741.78 176.71 743.51 173.08 745.85 169.59 744.18 168.45 742.49 164.39 740.12 160.3 741.04 159.88 736.12 160.61 733.82 159.05 728.92 158.89 724.97 156.63 723.21 156.46 720.76 157.71 719.84 160.81 723.99 164.66 724.49 165.5 725.6 170.52 723.69 172.21 718.68 171.57 717.65 175.76 714.83 178.03 714.86 179.62 714.06 184.23 713.58 186.69 712.02 187.83 710.52 188.33 706.98 187.93 701.02 189.77 701.02 190.03 699.26 192.72 697.06 198.2 693.48 196.9 690.67 181.5 682.99 175.71 682.62 173.56 680.03 169.87 678.15 166.47 674.27 167.07 667.37 166.84 665.5 163.9 662.37 161.46 656.14 162.08 654.48 160.01 653.38 153.77 651.97 149.27 649.77 147.05 650.4 146.05 649.51 147.07 644.91 146.68 643.46 142.96 641.87 140.33 638.08 139.01 637.85 137.38 631.97 132.31 625.3 135.14 619.82 134.3 614.57 138.81 606.37 139.65 603.12 140.91 600.46 140.62 598.21 138.78 596.08 138.63 593.26 139.36 591.4 141.95 589.41 147.16 591.1 150.3 590.75 155.44 588.98 155.06 587.33 156.18 583.84 155.75 579.69 157.48 577.42 159.02 572.57 158.98 570 158.21 569.07 158.79 566.46 157.92 564.26 158.41 563.04 161.15 560.2 163.85 560.54 166.95 563.23 171.39 563 174.26 560.69 176.55 556.86 179.67 554.38 180.56 554.32 180.92 561.62 179.8 563.95 178.07 565.12 191.82 576.23 194.28 577.59 194.76 580.43 197.4 588.49 198.72 591.23 199.39 597.57 199.12 600.85 201.22 603.98 201.15 605 205.11 604.86 209.72 603.82 213.28 606.63 214.47 610.43 212.28 615.09 213.36 619.22 214.95 620.91 217.29 621.28 222.46 620.35 224.23 616.99 226.67 613.39 226.58 612.21 230.66 609.16 236.58 606.03 241.3 604.21 243.78 603.8 247.58 604.82 253.08 604.93 254.69 605.84 258.39 603.45 261.26 600.95 260.92 599.05 264.17 596.02 267.69 593.32 267.96 592.28 271.1 587.7 270.91 584.57 271.95 581.48 273.38 579.21 274.6 574.78 277.51 570.99 279.92 569.27 283.05 567.9 289.18 566.56 290.91 567.33 291.83 569.8 294.78 565.59 296.88 559.87 294.6 555.08 293.42 551.12 294.19 548.23 Z" fill-rule="evenodd" id="36620370"/>
<path d="M 606.08 437.77 607 441.26 608.76 445.95 607.7 450.1 610.19 451.73 611.67 458.11 610.39 461.47 613.91 467.68 619.14 462.72 624.57 464.74 627.79 467.61 631.93 470.39 634.05 468.93 635.03 470.77 639.5 465.9 643.56 465.62 644.24 464.99 647.46 465.09 649.25 466.16 652.27 471.87 655 472.95 657 474.99 657.41 477.63 656.09 478.58 655.63 483.05 653.1 486.8 652.37 489.13 652.22 492.87 650.5 495.72 650.32 497.79 651.4 499.97 657.39 502.34 657.11 504.23 653.91 507.94 649.92 507.17 648.71 508.17 647.32 510.86 640.8 512.5 634.1 515.28 631.89 516.72 631.91 518.69 636.55 521.03 636.3 522.62 633.97 524.53 636.4 528.21 638.64 530.51 638.88 533.25 641.64 536.19 641.83 537.99 643.77 540.87 646.31 543.59 649.32 544.09 651.62 547.6 651.16 550.92 654.98 555.85 653.48 560.01 654.63 562.95 655.13 565.78 658.7 565.04 660.71 565.38 663.11 564.81 669.1 565.32 671.71 564.47 674.84 562.07 675.67 556.11 679.08 552.93 681.39 551.52 683.85 551.21 687.18 552.33 687.74 556.46 690.17 560.93 693.8 564.31 695.71 564.86 698.27 570.1 700.54 573.12 697.97 574.53 696.29 577.07 694 578.42 688.69 578.41 686.97 579.52 685.79 581.85 682.68 583.99 679.38 583.92 679.18 586.58 677.63 587.99 676.71 591.05 675.64 592.21 675.84 594.93 678.98 598.57 682.73 598.21 686.47 601.02 689.19 601.57 689.75 603.67 695.03 609.02 694.04 611.96 693.44 615.86 691.71 619.46 690.42 619.74 684.38 622.73 682.34 621.29 678.32 623.32 677.06 622.92 674.23 619.5 671.98 620.38 669.68 618.17 667.07 619.76 664.56 623.54 661.94 628.48 660.25 629.42 659.06 633.83 655.69 632.58 652.12 632.86 647.49 634.8 642.66 634.6 642.26 637.08 639.79 640.67 638.64 644.27 636.18 646.53 633.79 645.76 633.26 648.12 632.15 648.66 631.14 651.05 629.95 647.12 627.67 644.06 625.42 642 622.98 638.7 620.99 638.46 616.59 634.81 615.2 635.91 613.82 635.02 610.54 634.48 602.34 631.05 599.48 630.41 595.55 630.24 592.65 631.17 590.01 629.71 589.78 627.9 587.99 625.31 584.72 623.51 583.43 624.05 580.71 623.73 576.02 621.88 573.36 621.73 572.39 620.7 572.64 616.21 569.87 607 569.24 602.19 565.43 601.58 562.55 602.09 559.13 599.95 557.33 600.47 557.04 590.36 554.9 585.63 552.66 585.28 549.85 587.54 546.8 587.14 545.79 585.18 543.73 583.21 540.31 583.79 538.38 586.13 537.01 589.47 533.82 593.08 533.14 595.14 529.21 596.05 530.38 600.52 528.26 604.86 526.92 606.57 524.81 607.26 524.64 609.25 522.85 611.86 523.68 615.37 520.02 617.91 517.47 616.63 515.34 614.14 513.2 613.77 509.8 612.12 507.27 609.99 503.17 608.55 476.58 597.36 473.63 596.54 469.53 596.13 466.63 594.62 460.78 589.17 458.22 588.16 456.8 588.52 453.68 591.83 453.2 595.33 450.8 597.15 446.78 596.9 444.42 594.07 442.54 588.34 441 585.92 446.47 578.15 446.5 577.16 449.19 571.25 451.7 568.06 451.96 565.07 452.79 563.21 463.61 555.78 465.57 553.48 463.43 550.64 462.8 548.34 464.89 548.61 474.76 553.29 477.37 555.74 480.8 551.87 483.27 549.85 485.79 546.91 487.06 541.78 489.21 541.59 492.56 543.2 495 543.5 497.39 542.76 499.05 543.98 501.43 543.27 505.66 543.83 508.82 545 510.52 544.77 514.13 546.57 517.38 545.6 517.76 544.8 522.56 543.37 524.56 538.53 525.88 539.4 529.76 540.51 536.63 536.08 537.77 531.8 540.03 527.19 540.13 525.34 537.41 519.91 536.31 514.6 532.17 512.17 531.59 510.99 531.48 506.67 529.97 503.13 527.28 501.48 524.65 498.24 523.1 495.11 525.65 493.13 524.2 486.19 525.28 481.55 525.08 479.41 526.94 475.22 525.83 473.77 528.51 472.64 529.86 472.93 532.34 471.41 532.77 469.43 535.25 467.24 535.67 465.03 538.33 461.02 540.98 458.59 541.83 457.04 540.97 449.39 540.3 448 540.82 443.02 540.22 439.56 538.78 434.85 536.97 432.58 536.56 429.13 537.2 426.17 539.31 424.97 541.02 422.24 541.89 419.39 541.79 417.41 540.65 416.46 541.81 413.46 543.48 411.73 545.57 407.47 544.25 405.94 544.37 403.78 547.25 401.36 548.18 399.62 551.29 399.24 556.43 399.81 561.66 402.65 564.23 402.73 566.77 404.01 565.77 408.2 566.27 410.35 564.94 413.95 564.72 417.08 565.75 419.46 564.49 423.93 568.11 426.34 570.73 430.47 572.64 431.2 573.55 432.9 571.68 434.93 571.1 437.11 571.65 442.19 570.33 443.8 573.07 446.68 574.96 449.38 576.4 449.97 579.76 453.95 583.79 454.54 587.09 450.86 590.6 451.11 592.64 446.75 597.36 443.81 600.41 439.38 606.08 437.77 Z" id="36620110"/>
<path d="M 789.4 947.59 789.04 958.71 787.71 972.4 775.83 1053.9 773.03 1068.05 769.31 1081.82 765.25 1094.04 762.67 1101.03 761.43 1103.16 753.24 1112.51 740.39 1126.1 735.96 1131.12 732.24 1132.87 727.51 1134.64 723.49 1136.64 715.7 1141.02 711.13 1144 709.01 1146.38 706.25 1148.36 701.66 1154.16 700.69 1157.62 701.86 1161.59 704.38 1172.99 704.48 1177.5 697.56 1203.65 694.5 1208.32 694.29 1212.71 690.7 1218.74 686.21 1225.28 682.66 1228.54 679.16 1231.82 673.77 1235.54 666.46 1237.72 659.64 1238 651.21 1237.34 646.83 1237.21 638.25 1235.13 632.63 1232.73 630.07 1230.2 623.19 1222.36 611.67 1207.91 590.22 1190.13 583.25 1183.71 571.74 1171.29 558.97 1163.96 574.11 1148.13 599.21 1115.43 603.26 1111.81 608.51 1108.23 610.23 1106.56 610.55 1102.65 608.92 1097.85 608.68 1095.81 609.53 1093.58 612.69 1089.96 621.27 1084.78 632.22 1078.9 636.27 1075.78 641.2 1069.73 639.79 1068.96 637.82 1059.81 637.49 1054.26 637.87 1048.64 640.24 1044.26 645.48 1036.11 646.25 1033.76 646.41 1029.73 644.15 1027.34 641.09 1025.87 631.86 1023.48 625.6 1019.88 623.32 1016.52 621.21 1015.15 620.42 1010.95 618.55 1006.86 618.9 1004.9 620.25 1003.99 620.67 1002.18 618.69 1000.83 617.6 999.09 619.85 995.1 620.11 991.9 617.19 989.18 615.7 991.67 612.05 992.37 608.58 989 607.07 988.46 603.25 990.33 601.21 988.96 597.75 985.36 597.38 982.58 600.45 980.39 601.02 977.35 603.29 972.94 602.01 969.01 599.77 965.7 596.89 963.51 596 960.52 592.18 958.9 586.47 952.98 582.31 952.47 578.09 956.13 575.53 956.47 573.07 957.96 572.56 959.42 570.34 961.31 567.81 962.15 559.78 961.03 558.23 954.01 556.91 951.3 556.57 948.38 553.67 947.15 551.78 943.54 548.73 940.46 547.08 938.05 544.64 937.63 544 936.24 539.84 936.06 536.57 935.21 535.75 932.84 535.38 928.77 534.57 928.01 533.48 924.54 533 921.13 533.06 918.5 535.31 911.99 535.97 906.98 535.31 905.29 538.12 904.06 540.74 904.64 544.96 903.07 549.17 898.29 551.4 899.1 554.27 899.06 555.45 896.69 558.55 892.88 561.03 890.8 566.47 890.99 568.97 891.52 571.69 890.51 573.72 892.46 573.93 896.06 576.16 901.76 575.45 902.86 577.04 904.76 580.36 906.2 580.24 902.44 580.8 900.99 583.62 899.56 586.1 900.37 589.67 902.44 593.12 903.37 596.78 903.58 598.54 907.48 601.14 909.28 602.36 908.36 604.11 909.05 606.19 905.9 609.01 905.69 611.44 904.3 612.41 902.41 618.16 901.95 621.81 899.2 622.59 897.52 627.24 892.66 631.88 891.08 636 892.12 642.43 888.38 643.65 885.44 645.57 884.99 646.61 883.2 646.36 881.16 649.74 879.49 650.3 877.76 652.6 877.14 653.28 875.75 655.32 876.4 658.15 872.84 661.28 871.47 662.81 869.44 666.71 866.9 672.81 871.52 676.66 873.42 680.69 873.22 684.59 876.72 687.63 876.67 691.26 879.69 693.4 879.69 698.96 884.91 699.44 887.06 703.43 887.63 707.26 889.73 706.96 890.83 709.07 894.23 711.23 894.4 712.15 896.37 713.97 896.15 715.19 899.71 715.69 903.69 716.47 904.32 720.28 904.15 721.02 902.07 724.61 901.61 726.07 903.36 727.36 902.12 730.85 902.16 732.28 900.12 733.75 908.11 771.41 908.01 783.24 907.8 786.17 916.78 787.28 921.51 788.6 930.72 789.1 936.35 789.4 947.59 Z" id="36620120"/>
<path d="M 396.29 960.03 396.89 962.07 392.49 964.2 390.84 962.3 389.45 959.17 388.55 953.97 389.25 953.16 391.63 953.5 393.46 954.77 396.29 960.03 Z M 381.41 955.14 380.9 953.61 381.16 950.83 383.41 952.37 383.62 954.79 381.41 955.14 Z M 351.34 959.76 347.96 959.78 347.26 958.39 346.61 954.53 347.35 952.43 346.55 943.29 347.26 941.6 349.19 940.48 352.27 941.93 353.26 945.12 353.07 949.3 353.47 955.33 352.49 958.72 351.34 959.76 Z M 380.07 884.15 384.05 878.83 387.97 875.53 396.68 873.08 411.27 871.27 423.96 868.1 427.65 867.7 433.29 868.19 435.96 868.09 439.39 866.86 443.16 864.35 446.84 864.09 449.8 863.24 455.75 867.63 458.3 865.83 462.46 872.1 468.21 873.58 474.64 874.1 477.05 873.69 482.15 876.16 485.14 876.66 486.5 877.53 489.17 880.57 488.83 884.63 491.44 890.76 493 892.2 497.86 894.01 497.6 896.71 498.7 899.97 497.84 902.49 498.66 905 503.05 905.99 506.56 907.46 508.93 909.73 512.18 910.19 519.24 908.81 520.84 907.85 526.29 916.44 526.83 918.13 529.31 918.37 530.86 920.78 533 921.13 533.48 924.54 534.57 928.01 535.38 928.77 535.75 932.84 536.57 935.21 539.84 936.06 544 936.24 544.64 937.63 547.08 938.05 548.73 940.46 551.78 943.54 553.67 947.15 556.57 948.38 556.91 951.3 558.23 954.01 559.78 961.03 567.81 962.15 570.34 961.31 572.56 959.42 573.07 957.96 575.53 956.47 578.09 956.13 582.31 952.47 586.47 952.98 592.18 958.9 596 960.52 596.89 963.51 599.77 965.7 602.01 969.01 603.29 972.94 601.02 977.35 600.45 980.39 597.38 982.58 597.75 985.36 601.21 988.96 603.25 990.33 607.07 988.46 608.58 989 612.05 992.37 615.7 991.67 617.19 989.18 620.11 991.9 619.85 995.1 617.6 999.09 618.69 1000.83 620.67 1002.18 620.25 1003.99 618.9 1004.9 618.55 1006.86 620.42 1010.95 621.21 1015.15 623.32 1016.52 625.6 1019.88 631.86 1023.48 641.09 1025.87 644.15 1027.34 646.41 1029.73 646.25 1033.76 645.48 1036.11 640.24 1044.26 637.87 1048.64 637.49 1054.26 637.82 1059.81 639.79 1068.96 641.2 1069.73 636.27 1075.78 632.22 1078.9 621.27 1084.78 612.69 1089.96 609.53 1093.58 608.68 1095.81 608.92 1097.85 610.55 1102.65 610.23 1106.56 608.51 1108.23 603.26 1111.81 599.21 1115.43 574.11 1148.13 558.97 1163.96 547.21 1160.91 546 1160.32 546 1137.44 546 1121.33 547.71 1121.33 549.04 1119.94 549.04 1113.23 547.05 1113.33 545.32 1114.56 544.92 1106.84 544.36 1106.28 538.05 1106.28 538.05 1095.16 537.41 1092.46 537.46 1087.76 536.3 1085.15 532.11 1082.57 529.04 1081.45 526.77 1081.39 523.44 1080.42 522.31 1081.43 516.92 1078.72 513.57 1077.48 511.69 1078.14 505.07 1077.5 501.39 1075.72 500.27 1074.62 497.29 1074.42 495.38 1073.47 492.97 1064.05 494.9 1061.26 495.14 1058.42 497.3 1053.44 496.83 1048.3 498 1045.44 496.59 1041.91 497.92 1039.87 496.79 1037.02 497.45 1033.96 494.32 1028.87 491.88 1026.77 490.04 1024.02 485.59 1021.23 482.28 1022.91 480.21 1021.38 476.85 1021.49 475.29 1020.89 471.88 1021.19 468.97 1022.16 465.23 1020.04 461.96 1019.03 458.08 1013.16 456.24 1007.85 453.75 1007.74 452.51 1008.48 452.28 1012.08 449.41 1011.39 448.42 1008.69 449.04 1005.28 448.68 1003.3 446.36 1001.74 444.09 1002.75 440.83 1003.03 435.4 1002.9 429.48 1003.39 429.11 998.15 425.02 996.88 423.59 997.39 421.4 995.93 420.5 992.54 415.72 991.24 414.61 992.34 411.2 990.63 409.97 988.01 410.95 986.43 413.46 985.56 415.06 983 416.57 977.85 413.76 972.74 413.71 969.52 412.12 963.42 410.92 961.72 407.03 960.38 404.37 954.6 404.3 953.23 402.72 950.59 403.32 947.46 405.77 944.24 406.87 943.9 407.45 939.78 403.85 937.14 401.71 937.6 400.7 940.26 399.58 940.22 394.02 936.67 394.31 933.93 392.02 933.5 387.98 929.96 387.42 927.45 385.55 923.59 386.88 918.72 387.18 911.66 389.46 910.97 392.13 909.2 394.17 906.16 395.09 902.51 396.65 900.02 403.29 895.48 403.9 892.92 401.99 889.61 400.27 888.94 384.63 884.58 383.2 885.01 380.07 884.15 Z" fill-rule="evenodd" id="36620130"/>
<path d="M 561.03 890.8 562.25 885.96 564.01 881.61 563.94 880.18 565.77 877.05 566.47 874.35 564.05 872.08 564.34 867.93 561.09 864.04 561.14 861.79 558.46 861.1 558.53 859.41 560.27 856.62 560.83 851.75 563.11 846.94 563.35 843.89 562.82 841.24 561.13 840.71 558.68 837.73 557.32 834.44 558.46 829.79 557.65 826.48 555.71 824.53 553.23 823.31 549.98 818.25 550.14 816.16 548.23 811.66 546.02 811.45 542.97 807.93 544.3 805.55 543.97 803.55 545.91 799.45 543.31 797.81 540.29 796.91 536.16 795.06 535.5 790.79 536.34 789.39 536.51 786.19 535.77 784.48 536.39 780.72 534.2 777.22 532.57 773.45 531.68 772.81 528.81 768.21 527 766.24 524.66 762.51 522.14 761.88 521.5 759.44 522.8 758.04 526.39 755.83 526.69 755.03 530.67 753.71 534.97 753.25 536.36 752.18 537.86 753.07 540.29 756.3 543.66 755.41 546.43 755.95 547.75 757.26 551.75 758.97 553.19 759.11 556.32 754.32 559.15 752.36 561.19 750.16 560.13 743.57 561 741.46 559.15 737.17 557.3 734.1 557.35 728.84 556.35 726.77 558.1 717.49 559.4 714.39 557.68 709.34 558.69 708.39 563.56 701.41 562.93 699.72 563.9 695.82 563.01 692.98 564.34 689.92 563.81 685.13 566.41 680.32 571.16 679.13 572.88 675.51 572.83 673.76 577.79 667.43 579.26 664.76 581.47 663.18 582.76 659.81 583.93 654.09 584.43 648.53 589.52 641.07 591.86 638.58 591.28 637.2 592.49 635.69 592.65 631.17 595.55 630.24 599.48 630.41 602.34 631.05 610.54 634.48 613.82 635.02 615.2 635.91 616.59 634.81 620.99 638.46 622.98 638.7 625.42 642 627.67 644.06 629.95 647.12 631.14 651.05 632.15 648.66 633.26 648.12 633.79 645.76 636.18 646.53 638.64 644.27 639.79 640.67 642.26 637.08 642.66 634.6 647.49 634.8 652.12 632.86 655.69 632.58 659.06 633.83 660.25 629.42 661.94 628.48 664.56 623.54 667.07 619.76 669.68 618.17 671.98 620.38 674.23 619.5 677.06 622.92 678.32 623.32 682.34 621.29 684.38 622.73 690.42 619.74 691.71 619.46 693.44 615.86 694.04 611.96 695.03 609.02 689.75 603.67 689.19 601.57 686.47 601.02 682.73 598.21 678.98 598.57 675.84 594.93 675.64 592.21 676.71 591.05 677.63 587.99 679.18 586.58 679.38 583.92 682.68 583.99 685.79 581.85 686.97 579.52 688.69 578.41 694 578.42 696.29 577.07 697.97 574.53 700.54 573.12 701.6 572.49 705.62 573.71 709.48 574.27 712.21 573.58 718.99 573.03 720.25 574.81 722.46 575.92 723.56 579.2 728.33 579.54 731.42 582.11 732.4 584.38 734.79 585.88 736.48 588.34 739.14 590.18 743.18 589.67 745.07 591.18 750.56 591.57 754.4 595.28 754.35 597.82 760.14 598.89 757.84 607.38 756.01 613.22 753.69 617.4 750.8 623.57 748.16 630.39 745.53 638.26 745.45 639.9 738.19 653.52 736.06 657.03 733.17 662.72 731.58 668.14 730.74 669.91 729.14 677.37 729.78 683.48 730.98 688.7 732.69 698.38 734.42 704.72 738.71 712.92 742.8 721.44 744.97 724.9 747.96 730.7 749.8 733.53 753.51 737.62 757.86 743.99 760.6 746.96 763.12 758.38 762.5 769.55 759.07 774.69 755.03 775.75 751.17 776 745.41 775.38 740.86 769.55 731.46 752.29 726.98 748.56 717.75 742.17 710.49 741.83 703.87 742.39 697.71 746.36 691.87 751.14 689.81 755.92 688.5 762.02 688.31 766.56 689.95 773.3 695.55 781.35 702.02 791.54 710.71 803.04 717.51 814.67 724.94 825.39 738.74 843.76 740.07 841.45 742.76 843.74 748.39 849.59 755.62 856.78 760.32 861.2 769.73 871.35 772.81 876.06 777.48 885.45 781.27 891.37 787.4 905.02 790.67 912.68 794.01 921.81 796.12 925.59 799 927.23 789.96 945.21 789.4 947.59 789.1 936.35 788.6 930.72 787.28 921.51 786.17 916.78 783.24 907.8 771.41 908.01 733.75 908.11 732.28 900.12 730.85 902.16 727.36 902.12 726.07 903.36 724.61 901.61 721.02 902.07 720.28 904.15 716.47 904.32 715.69 903.69 715.19 899.71 713.97 896.15 712.15 896.37 711.23 894.4 709.07 894.23 706.96 890.83 707.26 889.73 703.43 887.63 699.44 887.06 698.96 884.91 693.4 879.69 691.26 879.69 687.63 876.67 684.59 876.72 680.69 873.22 676.66 873.42 672.81 871.52 666.71 866.9 662.81 869.44 661.28 871.47 658.15 872.84 655.32 876.4 653.28 875.75 652.6 877.14 650.3 877.76 649.74 879.49 646.36 881.16 646.61 883.2 645.57 884.99 643.65 885.44 642.43 888.38 636 892.12 631.88 891.08 627.24 892.66 622.59 897.52 621.81 899.2 618.16 901.95 612.41 902.41 611.44 904.3 609.01 905.69 606.19 905.9 604.11 909.05 602.36 908.36 601.14 909.28 598.54 907.48 596.78 903.58 593.12 903.37 589.67 902.44 586.1 900.37 583.62 899.56 580.8 900.99 580.24 902.44 580.36 906.2 577.04 904.76 575.45 902.86 576.16 901.76 573.93 896.06 573.72 892.46 571.69 890.51 568.97 891.52 566.47 890.99 561.03 890.8 Z" id="36620320"/>
<path d="M 367.03 868.92 368.09 870.52 365.7 872.23 361.06 873.81 361.22 871.25 363.64 869.26 367.03 868.92 Z M 359.3 763 358.62 764.21 354.93 763.5 356.33 761.5 359.43 759.45 360.45 760.65 359.3 763 Z M 376.04 621.42 376.06 619.86 379.87 615.49 385.32 610 387.34 607.16 389.48 602.06 394.73 588.25 399.13 578.67 408.01 584.24 419.79 588.62 428.46 589.03 441 585.92 442.54 588.34 444.42 594.07 446.78 596.9 450.8 597.15 453.2 595.33 453.68 591.83 456.8 588.52 458.22 588.16 460.78 589.17 466.63 594.62 469.53 596.13 473.63 596.54 476.58 597.36 503.17 608.55 507.27 609.99 509.8 612.12 513.2 613.77 515.34 614.14 517.47 616.63 520.02 617.91 523.68 615.37 522.85 611.86 524.64 609.25 524.81 607.26 526.92 606.57 528.26 604.86 530.38 600.52 529.21 596.05 533.14 595.14 533.82 593.08 537.01 589.47 538.38 586.13 540.31 583.79 543.73 583.21 545.79 585.18 546.8 587.14 549.85 587.54 552.66 585.28 554.9 585.63 557.04 590.36 557.33 600.47 559.13 599.95 562.55 602.09 565.43 601.58 569.24 602.19 569.87 607 572.64 616.21 572.39 620.7 573.36 621.73 576.02 621.88 580.71 623.73 583.43 624.05 584.72 623.51 587.99 625.31 589.78 627.9 590.01 629.71 592.65 631.17 592.49 635.69 591.28 637.2 591.86 638.58 589.52 641.07 584.43 648.53 583.93 654.09 582.76 659.81 581.47 663.18 579.26 664.76 577.79 667.43 572.83 673.76 572.88 675.51 571.16 679.13 566.41 680.32 563.81 685.13 564.34 689.92 563.01 692.98 563.9 695.82 562.93 699.72 563.56 701.41 558.69 708.39 557.68 709.34 559.4 714.39 558.1 717.49 556.35 726.77 557.35 728.84 557.3 734.1 559.15 737.17 561 741.46 560.13 743.57 561.19 750.16 559.15 752.36 556.32 754.32 553.19 759.11 551.75 758.97 547.75 757.26 546.43 755.95 543.66 755.41 540.29 756.3 537.86 753.07 536.36 752.18 534.97 753.25 530.67 753.71 526.69 755.03 526.39 755.83 522.8 758.04 521.5 759.44 522.14 761.88 524.66 762.51 527 766.24 528.81 768.21 531.68 772.81 532.57 773.45 534.2 777.22 536.39 780.72 535.77 784.48 536.51 786.19 536.34 789.39 535.5 790.79 536.16 795.06 540.29 796.91 543.31 797.81 545.91 799.45 543.97 803.55 544.3 805.55 542.97 807.93 546.02 811.45 548.23 811.66 550.14 816.16 549.98 818.25 553.23 823.31 555.71 824.53 557.65 826.48 558.46 829.79 557.32 834.44 558.68 837.73 561.13 840.71 562.82 841.24 563.35 843.89 563.11 846.94 560.83 851.75 560.27 856.62 558.53 859.41 558.46 861.1 561.14 861.79 561.09 864.04 564.34 867.93 564.05 872.08 566.47 874.35 565.77 877.05 563.94 880.18 564.01 881.61 562.25 885.96 561.03 890.8 558.55 892.88 555.45 896.69 554.27 899.06 551.4 899.1 549.17 898.29 544.96 903.07 540.74 904.64 538.12 904.06 535.31 905.29 535.97 906.98 535.31 911.99 533.06 918.5 533 921.13 530.86 920.78 529.31 918.37 526.83 918.13 526.29 916.44 520.84 907.85 519.24 908.81 512.18 910.19 508.93 909.73 506.56 907.46 503.05 905.99 498.66 905 497.84 902.49 498.7 899.97 497.6 896.71 497.86 894.01 493 892.2 491.44 890.76 488.83 884.63 489.17 880.57 486.5 877.53 485.14 876.66 482.15 876.16 477.05 873.69 474.64 874.1 468.21 873.58 462.46 872.1 458.3 865.83 455.75 867.63 449.8 863.24 446.84 864.09 443.16 864.35 439.39 866.86 435.96 868.09 433.29 868.19 427.65 867.7 423.96 868.1 411.27 871.27 396.68 873.08 387.97 875.53 384.05 878.83 380.07 884.15 377.63 883.36 375.98 886.82 372.83 890.38 371.12 895.17 369.76 897.92 367.81 899.35 365.3 898.44 363.88 890.37 364.27 887.49 363.87 884.14 364.59 883.39 368.48 883.23 371.68 879.1 372.73 878.51 374.23 875.61 373.62 872.17 372.25 870.37 371.55 868.06 373 863.47 372.11 861.58 372.53 859.53 376.04 857.13 378.51 853.41 379.08 851.72 381.96 848.24 383.16 844.85 383.11 842.96 381.13 841.56 380.47 839.95 380.84 837.9 379.01 835.84 378.58 833.24 376.84 831.77 376.72 830.08 377.93 828.76 382.1 830.08 383.59 831.49 386.01 831.63 387.92 834.01 392.4 834.86 394.32 832.72 396.8 831.33 400.81 827.58 401.28 825.54 399.68 822.36 402.05 821.21 406.79 815.94 407.06 812.75 405.78 810.88 409.56 805.1 412.05 796.79 412.02 794.09 410.25 790.68 408.85 785.64 409.08 784 407.23 782.23 404.2 781.56 402.14 779.89 397.93 775.13 397.52 773.08 393.03 771.27 391.12 770.97 387.84 771.63 382.95 768.29 377.44 761.82 377.31 758.51 375.2 745.3 373.42 744.11 372.95 742.13 374.82 739.33 379.85 735.08 385.09 733.3 387.42 731.06 390.86 726.86 392.8 723.51 395.89 720.18 395.22 717.72 392.84 714.84 390.75 718.62 378.68 718.79 378.36 718.37 378.48 708.05 375.29 705.79 372.63 702.97 372.45 699.37 371.68 696.62 371.06 690.79 368.84 683.75 368.83 682.01 370.23 677.38 372.55 674.69 373.11 669.67 374.27 666.72 373.46 664.24 374.36 660.17 375.88 658.87 379.46 657.26 385.47 639.35 385.16 636.68 382.26 630.68 383.67 630.82 383.2 627.65 376.04 621.42 Z" fill-rule="evenodd" id="36620330"/>
<path d="M 391.15 385.58 389.64 389.56 388.94 389.45 379.7 385.21 381.79 379.59 382.43 378.82 387.91 381.5 390.12 383.4 391.15 385.58 Z M 406.04 268.35 405.85 271.79 404.51 273.43 402.58 273.89 402.87 270.89 404.49 268.7 406.04 268.35 Z M 396.01 261.42 397.15 263.29 395.96 265.23 394.08 263.46 394.27 261.64 396.01 261.42 Z M 357.86 235.05 358.69 236.86 357.98 239.44 354.85 236.64 357.86 235.05 Z M 339.14 217.32 342.09 218.21 340.61 221.23 337.98 219.89 336.69 218.07 339.14 217.32 Z M 548.74 291.43 551.77 292.22 553.17 293.89 556.7 295.21 557.7 296.47 560.12 297.33 563.79 300.48 564.82 299.5 567.77 300.68 568.72 303.9 570.11 304.78 572.32 304.34 574.6 306.45 575.62 308.84 577.69 309.88 577.98 313.23 581.87 314.89 585.66 315.17 588.63 313.98 591.17 315.12 592.01 318.04 593.28 319.12 594.77 318.63 600.93 320.18 602.88 320.06 602.67 323.43 604.4 325.19 604.99 330.04 598.27 334.43 596.51 334.87 594.36 338.02 592.5 342.43 592.35 345.54 591.47 348.86 589.93 350.29 587.04 357.13 582.58 356.74 580.71 361.31 579.01 362.54 574.35 370.34 571.55 374.53 568.56 378.29 568 381.24 566.04 385.09 566.22 388.19 565.2 389.87 563.22 390.68 565.03 396.69 564.45 398.84 566.66 401.42 566.77 404.01 564.23 402.73 561.66 402.65 556.43 399.81 551.29 399.24 548.18 399.62 547.25 401.36 544.37 403.78 544.25 405.94 545.57 407.47 543.48 411.73 541.81 413.46 540.65 416.46 541.79 417.41 541.89 419.39 541.02 422.24 539.31 424.97 537.2 426.17 536.56 429.13 536.97 432.58 538.78 434.85 540.22 439.56 540.82 443.02 540.3 448 540.97 449.39 541.83 457.04 540.98 458.59 538.33 461.02 535.67 465.03 535.25 467.24 532.77 469.43 532.34 471.41 529.86 472.93 528.51 472.64 525.83 473.77 526.94 475.22 525.08 479.41 525.28 481.55 524.2 486.19 525.65 493.13 523.1 495.11 524.65 498.24 527.28 501.48 529.97 503.13 531.48 506.67 531.59 510.99 532.17 512.17 536.31 514.6 537.41 519.91 540.13 525.34 540.03 527.19 537.77 531.8 536.63 536.08 529.76 540.51 525.88 539.4 524.56 538.53 522.56 543.37 517.76 544.8 517.38 545.6 514.13 546.57 510.52 544.77 508.82 545 505.66 543.83 501.43 543.27 499.05 543.98 497.39 542.76 495 543.5 492.56 543.2 489.21 541.59 487.06 541.78 485.79 546.91 483.27 549.85 480.8 551.87 477.37 555.74 474.76 553.29 464.89 548.61 462.8 548.34 463.43 550.64 465.57 553.48 463.61 555.78 452.79 563.21 451.96 565.07 451.7 568.06 449.19 571.25 446.5 577.16 446.47 578.15 441 585.92 428.46 589.03 419.79 588.62 408.01 584.24 399.13 578.67 404.04 568 404.79 553.24 405.8 548.13 405.95 543.49 408.04 535.11 408.53 528.29 408.27 525.68 411.62 522.74 411.29 520.76 421.19 515.99 421.89 513.55 423.37 511.76 422.45 510.11 421.1 505.66 420.87 502.98 417.58 491.99 417.62 490.21 411 490.55 410.75 485.45 415.61 481.15 418.1 481.03 421.59 482.12 421.96 479.54 423.1 478.01 424.13 472.66 422.27 471.65 419.87 467.81 418.88 468.28 411.84 468.31 410.7 463.76 409.52 454.65 411.48 451.37 409.74 451.43 407.79 449.58 403.73 448.79 401.13 446.52 397.4 444.47 391.87 443.98 389.16 445.23 387.62 444.7 386.17 448.7 383.73 449.27 382.47 447.88 379.55 447.56 376.52 445.92 376.44 444.3 376.19 440.75 377.52 435.22 377.24 433.12 377.89 428.92 377.3 424.04 377.15 419.04 376.42 417.78 375.88 414 374.67 411.65 372.64 403.94 370.85 399.95 369.21 397.91 368.59 395.37 362.25 385.17 360.87 381.19 357.98 375.33 355.7 371.96 355.89 369.5 354.79 367.86 352.63 366.36 351.82 368.99 348.59 368.85 342.93 372.54 340.54 375.32 339.4 377.65 339.05 380.76 336.95 382.15 335.8 379.62 332.89 375.26 332.7 373.55 328.84 372.11 322.04 374.13 318.77 376.49 312.17 382 306.48 384.22 302.58 386.37 294.37 387.08 291.38 389.12 292.31 390.3 293.7 397.09 293.66 398.75 292.26 400.16 288.16 400.06 281.66 399.27 278.1 394.98 274.64 388.78 271.98 380.07 269.78 378.6 268.69 374.79 269.19 369.06 268.4 368.16 268.1 365.02 266.69 362.6 266.27 359.26 269.12 358.85 273.51 360.03 277.95 359.28 281.42 355.4 278.66 354.86 275.78 347.7 274.41 346.87 273.23 343.99 269.93 340.2 265.6 337.16 257.39 334 249.29 331.79 244.32 330.84 239.58 330.83 237.18 331.78 237.03 335.45 235.31 336.01 231.88 333.96 231.21 330.49 227.41 327.09 230 325.19 233.98 323.17 234.78 324.67 234.56 326.89 237.05 327.48 239.75 326.94 244.3 325.06 248.27 322.87 250.42 320.93 251.71 318.2 252.92 317.2 257.04 311.94 260.08 306.09 261.27 302.01 261.23 298.71 259.58 295.16 256.58 291.99 250.28 284.28 246.12 276.73 244.11 266.61 242.77 263.02 240.4 259.02 238.04 256.05 234.57 253.11 233.71 250.99 233.58 247.49 231.26 245.6 233.41 241.99 234.59 238.48 236.5 235.12 241.64 234.93 244.51 234.08 246.93 234.11 255.05 235.38 258.71 234.68 260.22 233.46 261.5 230.87 264.28 228.51 266.07 227.68 271.83 228.34 274.32 225.4 275.02 220.06 274.5 217.71 276.01 213.3 275.43 210.65 279.34 208.46 283.36 210.23 282.89 212.58 283.89 215.72 281.94 217.94 278.14 220.16 276.95 222.98 276.58 228.52 276.99 232.57 278.09 236.55 280.4 241.79 280.46 245.24 276.16 252.89 274.98 248.38 273.7 245.79 271.41 245.91 269.66 246.96 266.71 246.56 266.33 245.66 262.98 246.14 262.82 249.67 261.24 251.01 259.3 250.33 256.06 251.18 256.11 253.46 257.3 258.05 262.47 260.3 263.54 262.61 260.66 269.58 262.21 273.92 261.01 277.71 261.16 281.36 263.6 285.23 268.78 285.68 271.55 285.24 275.16 282.74 275.79 278.68 275.8 272.81 282.68 274.65 285.01 277.36 289.68 281.07 291.63 282.11 294.71 286.85 297.02 287.12 303.47 286.88 305.83 285.63 306.72 284.18 305.87 280.39 304.47 279.17 305.02 276.7 307.33 275.46 308.37 273.33 310.83 273.1 312.95 275.2 316.04 275.91 317.61 276.92 320.4 280.35 316.63 282.66 312.88 283.9 310.29 287.07 311.9 290.49 315.35 294.34 319.36 297.31 319.44 301.75 318.64 304.57 318.79 309.31 317.11 310.34 315.98 313.13 313.71 316.8 313.69 317.92 317.54 320.99 318.34 325.18 325.99 327.92 330.07 326.92 331.57 325.4 333.29 322.28 335 321.73 336.76 319.42 335.19 318.15 337.24 315.27 338.8 306.45 341.27 303.99 341.51 302 344.95 297.16 347.49 293.03 351.48 288.95 352.24 287.15 357.54 281.52 359.04 278.72 357.72 276.63 357.72 274.49 356.49 271.66 353.21 267.22 353.21 265.23 355.73 264.41 362.11 260.34 366.94 258.11 370.02 255.67 372.2 252.47 374.63 251.55 375.47 252.74 378.5 252.13 381.13 253.86 380.26 256.16 380.13 259.28 381.35 261.56 386.26 263.72 382.55 263.83 380.7 263.27 377.36 263.64 375.3 265.56 374.07 269.7 370.98 273.07 368.34 275.06 368.58 277.39 370.22 278.72 370.57 282.95 369.21 284.54 366.77 284.1 364.55 287.8 367.72 291.99 368.01 294.41 364.33 298.02 364.43 300.54 363.46 301.54 361.43 301.59 361.68 303.24 361 306.17 361.57 306.97 362.36 313.15 363.65 315.48 367.39 315.69 368.6 316.53 370.15 315.57 374.68 316.57 378.12 319.59 381.9 314.56 381.21 312.6 383.1 306.37 382.7 303.27 383.44 300.13 383.36 297.5 386.35 295.45 388.21 293.01 390.45 291.79 389.96 289.57 391.23 288.33 391.31 285.78 393.73 284.17 395.55 284.63 398.37 286.53 399.7 288.3 401.41 292.96 403.4 295.36 412.6 300.06 412.55 302.56 413.56 306.23 413.64 308.97 416.17 314.88 414.64 314.55 412.74 308.55 410.84 309.6 408.79 311.82 409.27 315.99 412.54 317.2 414.86 319.8 416.74 320.72 418.33 322.6 419.51 325.97 419.85 332.17 419.56 333.75 417.02 339.94 415.68 342.15 409.57 344.75 403.69 347.86 398.3 355.8 399.19 358.04 402.03 359.75 408.66 361.44 408.32 363.59 405.8 365.42 402.8 366.02 394.64 369.92 392.2 369.8 388.28 370.67 386.92 369.6 383.48 369.21 385.6 371.94 384.73 374.64 380.59 378.8 377.62 385.29 384.49 391.27 389.48 391.65 392.63 388.43 396.55 385.75 397.08 384.68 400.28 384.89 401.95 385.59 404.99 385.59 405.13 386.98 403.82 390.63 404.84 404.39 405.32 406.59 402.35 410.83 399.39 412.4 397.85 417.44 401.06 422 402.92 423.51 404.75 426.5 406.05 430.5 409.86 435.88 413.22 435 415.47 435.17 417.59 432.4 422.47 430.22 430.74 429.03 431.46 430.37 434.44 431.58 435.09 432.63 439.16 434.09 439.85 435.19 446.18 437.88 454.9 435.11 457.8 435.24 462.03 434.54 464.68 434.53 470.01 435.92 470.82 434.19 469.23 432.71 468.99 427.51 466.6 424.48 466.15 421.81 464.93 421.49 461.58 417.4 460.31 413.58 459.87 408.86 456.07 406.5 454.94 404.27 453.56 403.38 452.84 401.34 450.81 401.48 449.34 398.2 446.87 396.48 447.68 393.23 450.16 387.96 451.92 385.77 451.98 383.09 454.02 379.98 459.09 374.24 460.62 371.05 464.29 368.85 467.96 366.04 470.98 364.87 472.15 363.69 474.75 362.68 479.13 360.27 479.82 358.14 481.52 357.65 482.1 359.61 484.02 359.3 489.2 356.61 494.01 354.65 495 353.58 501.49 349.34 505.21 346.61 510.11 341.19 513.2 339.34 515.15 337.11 515.58 334.1 517.28 332.42 522.56 324.45 522.92 322.16 527.33 314.31 529.95 309.12 531.37 305.54 530.14 303.4 532.41 303.44 533.89 299.01 533.64 296.92 537.01 295.18 537.71 297.06 540.25 296.17 542.73 293.99 545.51 292.46 548.74 291.43 Z M 280.06 192.67 279.3 195.24 277.59 194.68 280.06 192.67 Z" fill-rule="evenodd" id="36620340"/>
<path d="M 188.44 472 194.42 474.9 195.59 476.73 192.7 479.26 191.76 481.79 190.32 483.14 189.86 485.21 191.03 487.3 191.11 489.14 193.58 491.96 191.95 494.59 192.3 496.35 188.85 497.18 185.73 500.55 184.64 504.26 183.14 512.97 183.16 517.31 181.04 517.69 179.88 512.61 180.53 509.87 179.19 508.37 178.73 506.06 178.97 502.3 177.92 502.03 175.39 495.35 176.78 493.33 179.72 493.05 181.25 490.69 181.99 488.38 181.84 484.98 180.9 481.49 179.42 478.98 177.16 477.48 174.69 478.3 173.32 477.69 173.19 475.15 174.82 473.37 175.86 474.06 180.85 473.09 183.96 473.03 188.04 471 188.44 472 Z M 318.74 546.45 311.12 547.14 309.63 548.64 308.06 548.93 304.52 547.32 300.36 550.5 294.19 548.23 295.35 544.13 295.51 541.12 291.29 539.61 288.39 541.38 286.3 541.89 283.78 540.51 280.64 539.6 277.18 536.03 276.42 533.64 274.97 532.9 268.17 534.03 267.26 533.61 261.84 533.13 257.05 531.9 255.83 529.95 251.17 527.03 250.02 526.72 245.32 527.18 241.44 529.79 236.87 534.56 234 539.64 234.51 542.07 233.39 545.66 231.44 544.34 229.36 537.8 232.91 534.1 243.37 527.24 250.85 522.8 252.54 520.69 256.1 519.11 259.74 516.4 260.79 512.8 263.97 510.94 270.71 508.19 277.28 504.55 278.91 504.02 289.78 498.77 296.88 495 304 490.76 312.73 484.89 321.89 477.3 326.38 474 327.96 472.42 332.57 469.26 332.65 468.58 336.22 466.86 340.83 463.08 343.2 461.54 349.24 458.41 353.53 456.89 355.75 457.15 359.03 454.93 361.06 452.9 360.75 448.48 364.37 445.84 370.06 444.73 373.99 445.38 376.44 444.3 376.52 445.92 379.55 447.56 382.47 447.88 383.73 449.27 386.17 448.7 387.62 444.7 389.16 445.23 391.87 443.98 397.4 444.47 401.13 446.52 403.73 448.79 407.79 449.58 409.74 451.43 411.48 451.37 409.52 454.65 410.7 463.76 411.84 468.31 418.88 468.28 419.87 467.81 422.27 471.65 424.13 472.66 423.1 478.01 421.96 479.54 421.59 482.12 418.1 481.03 415.61 481.15 410.75 485.45 411 490.55 417.62 490.21 417.58 491.99 420.87 502.98 421.1 505.66 422.45 510.11 423.37 511.76 421.89 513.55 421.19 515.99 411.29 520.76 411.62 522.74 408.27 525.68 408.53 528.29 408.04 535.11 405.95 543.49 405.8 548.13 404.79 553.24 404.04 568 399.13 578.67 394.73 588.25 389.48 602.06 387.34 607.16 385.32 610 379.87 615.49 376.06 619.86 376.04 621.42 373.49 622.42 370.99 619.75 367.58 618.51 357.08 616.78 354.39 614.37 353.4 611.98 350.41 608.54 349.36 609.9 347.37 606.84 347.92 598.79 347.06 596.27 347.1 592.24 348.09 586.12 350.5 581.13 348.66 574.54 348.72 571.66 349.71 566.54 349.82 563.36 350.81 558.82 350.65 557.01 343.13 552.21 341.2 551.84 335.27 553.1 333.17 550.84 334.22 546.49 335.79 545.03 334.74 541.13 335.31 536.04 334.75 532.84 335.74 530.35 333.53 527.18 333.75 522.66 330.14 522.28 327.11 525.54 325.61 529.58 321.79 531.16 318.74 532.95 319.6 534.45 317.6 536.69 316.65 540.41 317.57 541.28 318.74 546.45 Z M 336.17 443.23 333.59 443.64 332.44 444.6 331.18 441.65 334.41 436.03 334.2 435.21 337.31 430.91 336.11 435.67 337.29 439.82 336.17 443.23 Z" fill-rule="evenodd" id="36620350"/>
</g>
</svg>