<?xml version="1.0"?>
<svg xmlns="http://www.w3.org/2000/svg" version="1.2" baseProfile="tiny" width="800" height="399" viewBox="0 0 800 399" stroke-linecap="round" stroke-linejoin="round">
<g id="dong">
<path d="M 596.95 70.13 599.26 70.38 601.62 70.91 603.59 72.45 603.94 73.55 603.84 76.65 604.03 78.46 605.51 80.26 606.83 81.6 607.24 82.55 607.97 83.15 611.02 84.41 613.48 86.26 615.02 88.22 616.85 88.7 620.13 88.21 621.07 89.43 621.39 90.71 620.38 92.31 619.36 93.16 620.02 94.96 619.61 96.42 619.95 98.28 619.65 99.84 620.45 100.23 620.91 101.05 620.73 102.08 620.1 102.47 618.93 104.46 618.39 105.71 619.07 106.36 619.17 108.03 618.98 111.08 619.42 112.46 616.72 115.07 615.69 116.52 614.54 117.59 615.05 118.46 614.73 119.79 615.25 120.56 615.35 121.57 616.22 123.1 618.32 123.81 619.77 123.86 620.89 122.77 620.61 122.11 621.22 121.36 623.08 117.41 622.7 116.92 625.94 115.21 626.35 114.83 627.8 112.01 629.55 110.1 630.68 109.68 631.48 108.42 632.11 108.15 634.07 106.56 636.31 106.01 637.99 106.5 639.53 106.02 639.91 109.3 639.99 111.79 640.58 112.51 640.85 114.29 640.18 115.4 639.68 117.24 637.44 119.01 637.14 119.85 637.05 121.81 637.9 125.41 638.56 126.9 639.41 129.65 639.95 132.26 640.65 132.76 640.07 135.76 639.07 137.65 638.83 138.66 637.46 139.68 636.54 141.32 635.47 141.87 634.31 141.77 634.3 143.4 632.65 143.39 632.63 145.73 631.51 147.04 630.57 147.2 629.96 148.21 629.87 149.09 628.69 150.6 627.85 151.02 626.09 150.66 625.07 150.78 623.79 152.34 622.72 152.69 621.78 153.54 621.5 155.77 621.94 157.93 621.6 159.17 620.44 158.89 619.98 158.28 618.73 160.03 616.74 159.69 615.97 159.33 615.33 158.42 613.62 157.05 611.29 156.23 610.73 157.51 609.63 157.14 605.78 156.78 603.04 156.78 598.94 157.12 596.49 156.88 594.17 156.47 593.44 156.73 593.01 157.74 589.95 158.79 588.22 159.78 585.62 160.42 581.6 159.59 580.59 158.63 578.81 157.74 575.18 157.21 573.93 157.83 571.6 160.38 570.83 161.53 570.13 161.57 568.4 162.46 565.73 161.63 563.23 160.34 559.99 157.95 558.77 157.29 558.35 156.7 558.31 155.17 556.29 150.1 555.51 148.86 552.44 145.99 550.98 145.35 550.61 144.46 549.45 143.71 548.71 142.78 546.61 142.41 543.73 143.65 543.08 142.64 542.05 142.49 541.5 141.96 541.65 140.9 541.16 140.15 542.14 137.62 544.04 135.68 544.83 135.26 546.79 134.8 552.54 135.86 554.38 135.32 559.04 132.59 562.27 129.39 562.76 126.63 561.61 122.88 562 120.49 560.94 119.06 560.21 118.51 558.32 115.75 557.53 113.32 556.56 111.92 550.87 110.09 549.89 109.24 546.23 108.67 544.24 108.95 543.85 109.31 541.25 110.35 538.83 110.09 537.33 109 536.11 107.52 534.28 104.95 531.64 100.72 533.22 99.02 534.97 98.77 536.74 98.97 537.63 98.63 539.07 97.19 539.08 96.77 540.44 93.54 539.25 91.83 538.67 90.41 539.03 90.05 542.13 89.46 544.54 89.63 548.78 88.21 551.14 87.56 552.89 87.42 555.18 86.9 561.83 85.02 564.44 84.45 566.53 83.77 570.35 81.88 573.93 79.36 576.42 77.21 576.9 76.19 577.77 72.24 578.52 70.8 579.97 69.27 581.86 67.56 584.41 67.11 586.36 67.34 588.56 69.3 589.66 69.25 591.73 69.96 594.04 70.96 595.86 71.37 596.95 70.13 Z" id="36640370"/>
<path d="M 741.23 245.82 739.8 248.36 739.77 249.97 738.42 252.06 735.54 255 734.65 256.36 731.1 257.71 730.15 258.48 726.07 260.24 725.38 260.19 726.14 263.62 725.17 266.46 726.04 268.35 727.81 270.53 728.56 272.63 728.18 272.94 728.46 275.23 729.21 277.52 728.4 279.95 726.6 280.55 726.27 281.33 725.35 281.73 724.75 282.92 725.41 284.95 725.39 285.89 724.11 287.52 725.56 289.43 726.62 289.96 727.96 291.08 729.04 291.43 730.77 293.94 732.6 294.58 733.22 296.23 734.65 298.46 733.63 299.66 732.74 300.13 732.23 301.36 731.39 302.41 733.36 305.17 733.07 306.51 733.49 308.15 734.1 308.75 735.7 309.62 735.39 310.38 734.31 311.32 733.97 312.17 732.75 312.57 732.14 313.82 731.48 316.13 732.03 317.21 731.67 319.32 731.91 319.88 732.95 320.01 733.24 321.26 732.53 323.4 732.75 324.49 732.27 326.39 730.72 329.29 728.58 331.46 728.57 332.3 728.05 333.1 727.87 335.53 726.83 337.65 725.61 339.05 725.39 342.75 724.03 344.21 723.8 345.18 722.66 346.07 722.09 348.19 721.58 348.76 720.49 350.88 719.37 351.44 717.76 350.83 716.86 349.4 714.99 349.07 713.43 349.05 711.71 348.1 704.38 347.17 702.24 347.62 700.72 348.22 698.41 350.37 697.41 349.76 696.56 347.38 696.77 346.48 695.5 344.33 692.86 343.4 692.25 342.79 691.6 341.17 690.77 340.47 689.74 338.25 687.51 337.13 686.61 335.82 686.23 334.67 686.38 333.33 684.02 332 682.42 331.82 682.04 331.35 681.5 329.48 681.71 328.35 679.4 327.86 677.38 326.88 676.14 325.91 675.21 324.68 675.28 322.59 674.42 321 673.86 318.88 672.26 318.45 671.62 317.73 669.58 314.41 668.24 311.87 667.51 310.78 667.05 309.3 665.87 308.76 665.25 307.38 664.53 306.52 663.34 305.98 661.38 306.73 661.74 305.18 661.09 304.26 660.67 302.89 659.84 302.38 658.21 302.08 657.44 301.27 656.59 300.93 656.15 299.88 655.29 299.46 654.83 298.6 654.9 297.65 654.01 295.76 652.67 295.84 650.38 294.49 650.37 293.45 649.59 292.04 648.62 292.23 646.5 291.71 646.04 290.99 646.93 290.12 647.8 289.69 648.83 289.67 651.49 287.93 654.28 286.28 657.2 285.38 657.72 284.03 657.54 282.96 658.47 280.12 657.28 277.86 658.11 277.02 657.76 274.67 658.35 272.29 657.94 271.45 656.8 270.35 656.19 268.73 656.48 266.87 657.85 267.19 660.23 267.31 659.55 264.99 660.61 263.22 660.81 261.88 662.63 258.85 664.39 257.82 663.74 255.49 664.74 254.36 664.63 252.53 662.89 250.35 661.55 249.47 660.22 246.49 660.98 243.51 660.06 242.59 657.41 241.89 656.01 240.28 656.01 238.71 656.83 237.57 656.38 236.26 656.61 235.42 655.31 234.35 654.53 233.07 655.45 231.72 657.52 230.16 659.46 229.16 660.75 229.71 662.06 229.11 664.45 226.08 665.12 224.73 664.92 223.52 665.57 222.93 666.16 221.33 665.95 220.66 664.53 219.58 662.94 217.75 661.25 216.77 660.56 216.05 659.68 214.26 659.19 212.13 659.73 207.37 662.57 208.55 663.88 207.97 664.71 207.02 665.76 206.71 667.1 205.13 668.62 204.87 671.09 203.59 671.98 204.47 674.89 201.46 675.89 202.19 676.03 202.85 677.4 203.44 676.85 204.22 677.36 204.94 677.54 206.84 678 207.8 679.29 208.64 678.46 209.68 678.39 211.08 679.01 211.78 678.17 214.44 678.78 215.47 677.81 217.01 678.04 217.94 678.87 218.01 679.37 219.55 679.85 219.32 681.89 223.68 681.13 224.75 682.3 225.95 682.79 227.13 682.71 228.99 682.27 229.43 682.43 230.51 684.17 229.97 686.79 230.46 690.29 230.06 691.61 230.3 694.11 231.8 695.27 233.06 697.2 233.76 699.35 233.99 700.88 233.08 701.97 234.11 703.31 234.41 704.24 234.19 705.6 234.98 708.12 234.04 711.19 233.85 712.97 235.19 715.74 235.96 717.19 235.88 717.83 236.49 720.43 237.66 721.54 237.54 723.91 238.01 725.64 238 727.68 237.5 729.32 237.41 732.15 239.07 734.21 239.65 735.97 241.21 736.83 241 738.67 241.44 740.03 242.95 740.3 244.72 741.23 245.82 Z" id="36640320"/>
<path d="M 636.46 285.81 637.92 286.57 638.88 286.38 640.58 286.62 640.58 288 640.2 289.07 640.9 290.37 642.91 289.59 643.85 289.63 645.77 290.25 646.93 290.12 646.04 290.99 646.5 291.71 648.62 292.23 649.59 292.04 650.37 293.45 650.38 294.49 652.67 295.84 654.01 295.76 654.9 297.65 654.83 298.6 655.29 299.46 656.15 299.88 656.59 300.93 657.44 301.27 658.21 302.08 659.84 302.38 660.67 302.89 661.09 304.26 661.74 305.18 661.38 306.73 663.34 305.98 664.53 306.52 665.25 307.38 665.87 308.76 667.05 309.3 667.51 310.78 668.24 311.87 669.58 314.41 671.62 317.73 672.26 318.45 673.86 318.88 674.42 321 675.28 322.59 675.21 324.68 676.14 325.91 677.38 326.88 679.4 327.86 681.71 328.35 681.5 329.48 682.04 331.35 682.42 331.82 684.02 332 686.38 333.33 686.23 334.67 686.61 335.82 687.51 337.13 689.74 338.25 690.77 340.47 691.6 341.17 692.25 342.79 692.86 343.4 695.5 344.33 696.77 346.48 696.56 347.38 697.41 349.76 698.41 350.37 700.79 353.56 701.4 355.68 701.18 356.18 701.6 359.26 699.6 359.91 698.89 361.3 696.96 362.87 696.14 363.13 693.81 363.25 691.41 363.17 690.55 363.63 688.6 365.55 685.55 365.82 684.08 366.17 682.43 367.12 679.92 365.3 679.85 363.25 678.15 363.73 675.98 363.57 673.02 366.45 668.44 367.61 667.73 367.99 666.83 369.15 666.5 370.05 662.94 371.69 661.69 371.14 660.02 371.03 658.76 370.64 658.69 369.61 657.59 368.67 657.31 366.57 656.18 365.77 654.26 365.32 650.44 366.6 648.92 367.34 647.19 365.51 646.12 366.59 644.28 366.12 643.19 364.97 642.2 364.77 640.13 363.62 638.51 364.54 637.82 365.73 635.13 367.13 634.72 368.39 633.01 368.9 631.89 367.95 630 367.54 627.49 367.64 626.11 368.97 624.72 368.97 623.7 369.97 621.1 368.92 620.01 369.14 618.2 368.48 616.4 366.82 614.95 367 614.22 365.91 614.61 364.97 613.95 363.54 612.72 362.9 610.53 363.97 609.97 363.63 609.73 362.2 609.83 361.11 609.28 358.81 608.75 358.47 607.9 357.14 606.92 357.08 606.06 357.93 604.66 357.49 604.21 356.6 603.22 356.72 601.4 357.76 600.52 358.68 599.19 357.68 597.77 357.12 596.25 356.11 594.93 354.18 593.59 355.01 591.83 354.98 590.49 355.76 589.13 353.62 588.6 353.46 588.18 352.33 588.44 351.46 588.31 350 588.53 348.01 588.27 347.24 586.97 346.17 587.32 344.97 586.69 344.22 586.85 343.42 588.38 342.01 588.67 340.37 589.16 340.06 591.1 336.91 591.59 336.87 591.88 334.34 592.18 333.62 592.01 332.56 590.72 331.99 588.42 329.92 587.28 328.61 587.25 326.93 586.53 325.43 586.86 324.16 586.6 322.06 587.04 320.94 586.37 320.18 586.18 319.27 586.81 317.29 588.36 317.3 589.41 316.79 591.91 316.09 594.11 314.79 594.88 313.8 596.86 312.26 597.2 311.02 596.95 308.34 596.3 305.82 596.36 303.54 595.89 301.51 596.67 300.07 596.42 299.5 597.14 298.34 598.47 297.41 599.97 297.11 601.24 295.89 601.08 294.26 600.53 292.96 601.83 290.29 604.37 288.9 605.96 287.23 605.61 285.77 606.64 286.22 607.63 286.7 609.28 283.13 611.02 284.08 613.14 284.24 613.91 286.88 616.24 286.79 616.74 286.45 618.14 286.98 620.97 287.18 621.02 286.36 623.84 286.56 623.71 288.19 624.32 288.31 624.49 292.22 624.24 293.16 624.33 294.59 623.79 295.56 624.34 296.6 626.37 297.69 627.4 296.92 627.84 295.57 629.63 294.98 631.14 293.43 632.11 291.9 632.68 291.83 634.65 290.68 635.29 289.76 635.26 288.65 636.27 287.33 636.46 285.81 Z" id="36640330"/>
<path d="M 643.37 151.88 642.78 154.14 640.11 154.08 640.47 155.31 640.79 157.61 643.27 158.74 645.32 160.02 645.96 158.99 647.75 160.31 649.25 160.59 649.45 162.16 650.58 164.66 650.48 165.44 651.56 166.53 651.92 169.86 651.68 170.23 652.25 171.43 652.33 172.83 652.73 173.63 651.93 174.9 652.41 175.9 653.3 176.45 653.25 177.78 654.08 177.39 654.52 178.17 656.06 178.85 659.43 179.18 659.85 179.99 658.85 180.82 659.19 181.58 660.04 181.99 660.21 182.91 659.62 184.07 659.74 184.85 660.47 185.7 662.82 187.79 665.08 187.04 665.87 185.55 666.65 184.99 668.25 184.39 669.07 184.5 670 184.07 670.9 182.52 671.88 182.08 672.72 182.58 675.37 183.27 677 182.98 677.92 181.87 679.33 181.05 680.98 179.31 681.99 177.95 683.61 178.1 685.56 177.66 686.33 177.87 686.64 179.21 688.02 179.9 689.45 179.85 691.27 179.26 692.97 179.93 693.32 181.02 693.08 182.31 691.36 183.86 691.3 184.57 690.43 185.66 688.16 187.61 687.1 189.97 685.65 190.81 684.6 192.31 684.2 194.13 682.49 194.96 680.85 196.57 679.18 199.77 677.47 200.31 676.77 201 674.89 201.46 671.98 204.47 671.09 203.59 668.62 204.87 667.1 205.13 665.76 206.71 664.71 207.02 663.88 207.97 662.57 208.55 659.73 207.37 659.19 212.13 659.68 214.26 660.56 216.05 661.25 216.77 662.94 217.75 664.53 219.58 665.95 220.66 666.16 221.33 665.57 222.93 664.92 223.52 665.12 224.73 664.45 226.08 662.06 229.11 660.75 229.71 659.46 229.16 657.52 230.16 655.45 231.72 654.53 233.07 655.31 234.35 656.61 235.42 656.38 236.26 656.83 237.57 656.01 238.71 656.01 240.28 657.41 241.89 660.06 242.59 660.98 243.51 660.22 246.49 661.55 249.47 662.89 250.35 664.63 252.53 664.74 254.36 663.74 255.49 664.39 257.82 662.63 258.85 660.81 261.88 660.61 263.22 659.55 264.99 660.23 267.31 657.85 267.19 656.48 266.87 656.19 268.73 656.8 270.35 657.94 271.45 658.35 272.29 657.76 274.67 658.11 277.02 657.28 277.86 658.47 280.12 657.54 282.96 657.72 284.03 657.2 285.38 654.28 286.28 651.49 287.93 648.83 289.67 647.8 289.69 646.93 290.12 645.77 290.25 643.85 289.63 642.91 289.59 640.9 290.37 640.2 289.07 640.58 288 640.58 286.62 638.88 286.38 637.92 286.57 636.46 285.81 637.06 285.32 637.78 284.01 637.12 283.19 637.68 282.34 638.94 281.46 640.22 281.3 641.26 279.72 641.6 278.51 640.67 276.72 640.71 275.18 641.38 273.82 641.37 272.55 642.43 269.86 641.27 268.17 639.54 266.78 639.43 264.98 637.63 265.96 636.36 266.11 634.92 266.69 632 266.55 631.32 266.72 628.59 264.84 625.53 265.09 624.33 264.99 622.01 263.57 621.15 263.63 617.77 263.01 616.81 262.58 613.64 260.53 614.02 259.91 615.16 260.24 615.56 258.62 616.86 255.9 614.45 255.2 615.37 251.94 614.48 251.68 614.58 249.75 613.64 248.9 613.08 247.19 611.8 246.71 610.89 245.72 610.03 245.26 610.18 243.97 609.93 243.22 610.44 241.76 610.57 240.29 609.14 238.47 608.31 235.84 609.26 234.19 608.45 233.47 605.92 233.09 604.25 232.23 601.8 230.56 601.68 228.52 599.83 225.73 599.29 222.53 599.38 221.26 598.83 219.39 600.74 219.17 601.52 217.81 602.53 216.76 602.69 215.76 603.46 215.17 600.93 214.42 597.71 214.19 596.89 216.03 596.18 216.73 594.84 216.63 594.7 215.48 595.36 213.66 594.6 210.84 593.58 209.34 591.06 208.64 588.73 208.21 587.17 208.18 586.34 207.63 585.96 206.46 584.75 205.13 583.92 203.51 584.71 200.89 584.25 199.4 583.97 196.75 581.52 195.53 580.62 194.91 580.51 194.3 582.92 192.87 583.04 191.6 583.87 191.07 584.34 190.04 584.63 188.49 585.71 187.03 586.55 186.54 588.31 184.89 588.02 183.06 588.22 180.41 588.11 179.24 584.76 177.06 584.14 176.38 582.69 176.04 581.93 175.35 581.9 173.3 580.98 171.86 578.93 170.63 576.07 170.87 575.02 170.38 574.01 169.49 571.61 164.29 570.83 161.53 571.6 160.38 573.93 157.83 575.18 157.21 578.81 157.74 580.59 158.63 581.6 159.59 585.62 160.42 588.22 159.78 589.95 158.79 593.01 157.74 593.44 156.73 594.17 156.47 596.49 156.88 598.94 157.12 603.04 156.78 605.78 156.78 609.63 157.14 610.73 157.51 611.29 156.23 613.62 157.05 615.33 158.42 615.97 159.33 616.74 159.69 618.73 160.03 619.98 158.28 620.44 158.89 621.6 159.17 621.94 157.93 621.5 155.77 621.78 153.54 622.72 152.69 623.79 152.34 625.07 150.78 626.09 150.66 627.85 151.02 628.69 150.6 629.87 149.09 629.96 148.21 630.57 147.2 631.51 147.04 632.63 145.73 632.65 143.39 634.3 143.4 634.31 141.77 635.47 141.87 636.54 141.32 637.46 139.68 638.83 138.66 639.07 137.65 640.07 135.76 640.65 132.76 639.95 132.26 639.41 129.65 638.56 126.9 637.9 125.41 637.05 121.81 637.14 119.85 637.44 119.01 639.68 117.24 640.18 115.4 640.85 114.29 641.26 114.61 642.87 117.82 643.4 119.5 644.93 122.31 645.71 122.51 648.15 124.51 648.84 126.27 648.33 128.71 647.71 129.45 647.42 131.48 648.06 134.41 647.08 133.91 646.69 134.3 647.19 135.48 647.21 136.73 646.7 137.03 645.78 138.53 644.74 140.77 644.5 144.58 644.91 145.46 645.08 147.24 644.49 149.32 643.37 151.88 Z" id="36640110"/>
<path d="M 561.61 122.88 562.76 126.63 562.27 129.39 559.04 132.59 554.38 135.32 552.54 135.86 546.79 134.8 544.83 135.26 544.04 135.68 542.14 137.62 541.16 140.15 541.65 140.9 541.5 141.96 542.05 142.49 543.08 142.64 543.73 143.65 546.61 142.41 548.71 142.78 549.45 143.71 550.61 144.46 550.98 145.35 552.44 145.99 555.51 148.86 556.29 150.1 558.31 155.17 558.35 156.7 558.77 157.29 559.99 157.95 563.23 160.34 565.73 161.63 568.4 162.46 570.13 161.57 570.83 161.53 571.61 164.29 574.01 169.49 575.02 170.38 576.07 170.87 578.93 170.63 580.98 171.86 581.9 173.3 581.93 175.35 582.69 176.04 584.14 176.38 584.76 177.06 588.11 179.24 588.22 180.41 588.02 183.06 588.31 184.89 586.55 186.54 585.71 187.03 584.63 188.49 584.34 190.04 583.87 191.07 583.04 191.6 582.92 192.87 580.51 194.3 580.62 194.91 581.52 195.53 580.52 196.47 580.47 197.07 579.25 197.56 578.22 199.44 578.84 201.36 577.62 203.25 576.07 205.07 575.33 206.37 573.97 206.25 570 204.24 567.43 204.04 565.76 203.21 565.36 204.72 564.63 206.11 568.18 211.51 570.63 215.53 571.61 217.71 572.2 219.75 571.45 220.13 569.43 220.42 568.12 220.38 566.02 220.99 564.83 221.96 562.68 222.67 560.13 223.31 559.3 223.11 558.81 223.81 557.67 228.72 554.66 228.75 554.56 233.18 552.9 237.32 552.32 238.28 551.14 239.43 543.71 243.88 543.55 243.86 535.13 248.78 532.69 250.3 531.18 249.11 529.07 247.97 527.14 247.15 524.53 246.32 517.88 245.45 514.57 244.73 511.22 244.6 506.45 245.87 503.96 246.02 491.26 254.69 484.61 258.62 479.89 262.22 477.96 263.95 472.57 266.3 466.21 268.94 456.74 272.47 454.8 272.63 440.35 272.5 436.65 272.65 436.22 273.47 433.35 274.11 432.63 273.93 431.38 272.58 430.13 266.81 428.3 264.48 427.16 263.82 422.39 264.96 421.22 265.71 420.34 267.01 420.17 268.29 420.36 269.9 421.53 274.26 419.23 277.16 415.46 279.07 415.53 275.06 414.75 273.56 413.49 274.07 412.63 273.9 411.4 270.99 410.21 266.7 410.77 265.61 412.13 265.07 412.34 264.52 411.98 261.95 413.63 259.35 413.66 258.39 412.04 258.8 410.89 257.41 410.71 256.44 410.8 253.3 408.56 251.6 407.55 251.73 411.94 246.88 412.6 246.77 414.46 248.23 415.36 248.44 413.18 245.84 413.13 245.35 415.65 243.24 416.39 243 418.44 245.95 423.73 241.64 426.56 239.81 427.37 240.08 430.3 241.75 431.3 243.38 432.2 243.2 431.62 242.05 430.5 241.05 428.62 239.93 428.6 239.25 427.32 238.94 425.7 239.68 423 241.61 420.05 244.08 416.88 240.8 415.99 240.68 412.02 239.44 411.48 238.55 413.82 233.03 416.24 227.04 417.1 226.02 420.58 223.04 422.69 222.06 423.32 220.51 428.07 217.41 431.37 216.87 431.52 217.04 434.21 216.72 438.74 216.81 442.27 216.47 445.15 221.7 455.53 219.15 460.66 218.97 466.41 219.92 467.99 219.85 467.93 218.78 467.14 218.39 466.68 215.4 461.32 215.77 460.73 214.89 461.19 208.19 465.39 208.36 466.26 206.18 467.23 206.12 467.88 204.56 471.14 197.48 471.73 194.83 476.13 188.05 474.67 185.9 475.25 184.56 474.6 184.07 473.64 181.35 474.15 180.45 473.26 179.43 473.75 178.65 473.35 177.59 474.05 176.46 475.03 173.82 475.09 172.65 475.57 171.04 476.29 169.45 477.41 168.26 477.78 166.18 477.64 164.55 476.87 163.06 476.35 161.19 476.95 159.11 476.5 158.37 476.98 157.6 476.64 155.46 476.69 154.29 477.99 153.45 479.1 150.51 478.11 150.03 478.45 149.21 479.38 148.63 480.45 148.55 481.17 147.46 481.43 146 482.75 145.23 483.17 143.54 484.49 139.69 484.5 138.61 484.94 137 486.12 136.04 487.24 134.77 488.21 131.87 488.51 128.88 487.34 127.23 487.67 126.17 487.16 125.16 487.47 123.82 487.35 122.23 487.63 118.9 487.84 118.32 489.39 117.68 489.62 116.15 491.47 114.34 492.62 114.39 493.35 113.79 492.82 112.13 493.35 111.11 494.12 111.07 494.82 108.93 495.13 105.84 494.76 105.32 494.77 103.83 495.06 103.06 496.16 102.42 497.5 98.82 498.12 98.84 498.92 96.5 499.84 94.62 501.77 94.11 505.62 94.39 507.56 95.11 507.59 96.86 508.09 97.89 507.3 100 506.89 101.81 507.11 103.33 508.47 104.04 510.53 104.45 510.51 103.31 511 100.55 511.55 100.31 513.66 100.33 513.7 101.49 514.28 101.96 515.64 101.5 517.36 101.62 518.47 102.66 518.48 103.74 519.9 103.82 522.22 102.77 523.88 101.58 525.1 100.99 527.47 101.08 529.43 100.5 530.13 100.9 531.14 102.11 533.05 106.23 534.05 107.75 535.54 109.07 536.97 111.08 539 111.94 541.61 111.9 546.45 110.5 548.53 110.37 549.59 110.62 555.46 112.47 556.68 114.03 557.4 115.95 558.32 117.63 559.32 119.03 559.18 120.81 560.67 123.94 561.1 125.46 561.61 122.88 Z M 501.48 83.99 501.97 84.73 501.56 85.99 501.6 87.69 500.89 89.65 499.43 91.31 499.11 89.78 497.32 89.81 495.47 90.31 494.83 90.05 494.77 87.88 495.24 86.42 496.82 85.69 497.99 86.22 498.88 86.22 500.42 85.05 500.85 84.16 501.48 83.99 Z" fill-rule="evenodd" id="36640120"/>
<path d="M 561.52 5.78 564.44 8.35 566.06 9.17 568.23 9.85 571.1 9.92 577.75 11.28 581.29 12.12 586.58 12.51 588.19 12.01 590.73 10.59 592.46 9.78 593.95 8.44 594.91 6.47 595.65 6.39 600.02 10.58 599.16 13.18 599.32 13.85 600.68 16.19 600.82 17.83 601.45 18.66 599.95 18.8 601.64 19.96 602 20.63 602.93 20.9 604.71 23.06 606.14 25.49 607.41 25.68 609.25 28.68 609.16 30.09 610.07 30.93 612.16 31.15 612.81 30.75 614.49 33.34 614.65 34.26 615.56 36.11 615.85 36.17 615.71 38.78 614.82 40.01 613.61 43 613.43 44.26 613.93 47.01 614.02 50.01 613.01 50.37 612.26 52.19 611.58 53.06 612.65 54.68 612.57 56.45 612.97 56.97 611.71 58.44 611.92 59.45 610.62 59.95 609.75 60.92 607.92 62.38 606.33 63.42 606 64.32 604.86 64.38 603.4 63.8 602.71 64.34 602.45 65.19 601.35 66.74 599.43 67.94 597.13 69.74 596.95 70.13 595.86 71.37 594.04 70.96 591.73 69.96 589.66 69.25 588.56 69.3 586.36 67.34 584.41 67.11 581.86 67.56 579.97 69.27 578.52 70.8 577.77 72.24 576.9 76.19 576.42 77.21 573.93 79.36 570.35 81.88 566.53 83.77 564.44 84.45 561.83 85.02 555.18 86.9 552.89 87.42 551.14 87.56 548.78 88.21 544.54 89.63 542.13 89.46 539.03 90.05 538.67 90.41 539.25 91.83 540.44 93.54 539.08 96.77 538.23 97.94 537.03 98.74 534.76 98.6 533.6 98.72 532.44 99.35 531.57 100.49 530.94 100.09 529.26 97.84 529.21 96.07 528.37 94.72 526.62 94.56 525.45 93.76 524.58 94.18 524.89 92.41 524.44 91.53 524.8 90.04 524.09 87.96 522.95 87.51 521.89 87.81 520.59 87.7 519.76 85.95 518.59 86.18 516.57 85.5 515.42 83.05 516.06 82.06 515.78 80.58 516.36 79.8 517.17 80.32 518.7 80.68 519.04 81.53 520.33 82.07 520.8 83.16 521.76 82.64 523.21 80.77 524.31 79.96 525.39 79.57 525.87 78.3 527.52 77.13 527.23 75.67 526.17 74.05 524.67 73.79 524 74.26 521.88 74.63 521.15 75.41 519.84 75.9 519.34 76.56 518.02 76.54 516.49 76.11 516.23 75.55 515.18 75.5 514.22 76.76 513.21 76.52 512.37 75.66 512.54 74.79 514.69 73.03 513.9 72.06 512.94 72.22 510.97 73.83 510.2 73.28 509.7 72.27 511.32 72.19 512.21 70.54 511.95 69.34 511.09 70.78 508.54 70.68 508.83 65.65 511.14 65.34 511.66 64.74 511.95 60.25 510.71 58.3 508.99 57.92 507.98 58.35 507.37 63.24 507.11 61.98 507.33 59.4 507.66 57.62 507.15 56.6 506.4 56.31 506.03 55.15 506.57 53.19 508.21 52.42 508.38 53.42 509.57 53.67 510.85 52.67 511.44 53.19 513.33 51.41 514.53 49.28 514.28 48.17 513.03 47.24 513.05 45.57 511.72 45.46 508.23 44.67 508.12 43.87 507.26 43.43 507.05 42.32 508.06 40.86 508.05 39.95 509.5 39.84 509.87 38.75 509.47 37.96 510.05 37.06 510.51 35.39 512.58 34.05 514.26 32.45 514.07 31.3 515.16 30.29 515.31 28.12 514.14 26.86 513.06 27.09 512.65 26.46 512.97 25.47 511.99 24.07 512.21 23.67 520.67 17.34 521.61 17.22 523.78 15.29 525.12 14.65 525.06 14.07 525.8 12.88 527.58 11.07 524.1 8.18 515.76 1.39 516.1 1 527.24 10.18 528.27 9.06 528.82 9.56 530.52 7.05 530.89 6.11 532.12 4.49 532.67 4.66 532.87 5.74 533.79 6.37 534.4 7.72 536.42 10.33 537.04 10.3 538.93 9.27 540.27 9.35 540.69 10.08 542.03 9.64 542.41 9.04 542.27 7.83 542.73 6.62 543.84 7.16 544.69 7.94 545.42 8.03 546.02 6.27 546.92 5.63 549.56 6.09 550.75 5.13 551.86 5.38 553.25 6.88 555.36 7.01 556.05 8 557.27 8.92 558.03 9.11 561.05 5.83 561.52 5.78 Z" id="36640130"/>
<path d="M 799 169.11 798.82 169.48 796.26 171.65 794.15 172.21 792.92 173.16 793.94 173.74 795.05 174.86 794.21 176.97 793.65 177.79 793.51 178.85 791.72 180.57 791.74 181.65 792.25 182.15 792.98 184.84 792.81 185.41 791.44 186.84 788.86 188.64 787.86 189.92 782.86 194.6 779.58 195.01 778.22 194.03 775.31 194.59 774.21 194.49 772.43 195 771.53 193.85 770.69 191.64 769.79 191.13 766.81 191.19 766.15 192.02 764.61 193.17 763.99 194.99 762.77 195.2 759.85 196.63 758.55 197.6 758.15 198.52 758.25 201.57 759.56 202.31 760.15 202.12 763.51 203.3 763.93 205.21 765.68 206.86 767.05 207.3 766.29 208.26 765.08 210.49 765.35 212.61 764.18 212.93 762.42 215.42 762.13 219.53 761.81 220.37 762.04 221.57 761.61 222.74 761.9 223.65 761.85 225.03 762.77 227.97 763.67 229.37 762.7 229.56 761.37 232.03 760.5 233.27 759.25 233.75 758.71 234.41 758.36 236 756.84 238.74 756.7 240.01 756.52 240.7 755.09 241.45 755 242.58 751.62 242.65 750.23 243.22 749.66 244.08 748.8 244.31 747.51 244.12 746.18 244.29 745.15 245.02 744.3 244.69 741.23 245.82 740.3 244.72 740.03 242.95 738.67 241.44 736.83 241 735.97 241.21 734.21 239.65 732.15 239.07 729.32 237.41 727.68 237.5 725.64 238 723.91 238.01 721.54 237.54 720.43 237.66 717.83 236.49 717.19 235.88 715.74 235.96 712.97 235.19 711.19 233.85 708.12 234.04 705.6 234.98 704.24 234.19 703.31 234.41 701.97 234.11 700.88 233.08 699.35 233.99 697.2 233.76 695.27 233.06 694.11 231.8 691.61 230.3 690.29 230.06 686.79 230.46 684.17 229.97 682.43 230.51 682.27 229.43 682.71 228.99 682.79 227.13 682.3 225.95 681.13 224.75 681.89 223.68 679.85 219.32 679.37 219.55 678.87 218.01 678.04 217.94 677.81 217.01 678.78 215.47 678.17 214.44 679.01 211.78 678.39 211.08 678.46 209.68 679.29 208.64 678 207.8 677.54 206.84 677.36 204.94 676.85 204.22 677.4 203.44 676.03 202.85 675.89 202.19 674.89 201.46 676.77 201 677.47 200.31 679.18 199.77 680.85 196.57 682.49 194.96 684.2 194.13 684.6 192.31 685.65 190.81 687.1 189.97 688.16 187.61 690.43 185.66 691.3 184.57 691.36 183.86 693.08 182.31 693.32 181.02 693.62 180.78 695.73 180.87 697.38 180.5 697.9 180.65 698.11 181.72 699.57 182.82 700.2 184.29 701.05 184.09 701.71 183.12 703.6 182.99 704.86 181.76 706.44 181.34 710.82 182.97 711.71 182.98 712.83 185.08 713.45 186.6 714.74 187.4 715.51 188.24 715.85 190.78 717.26 192.27 718.87 193.28 720.84 193.59 722.14 192.71 723.58 193.74 723.31 194.1 724.4 195.55 725.28 195.86 726.42 196.87 727.28 195.79 727.63 194.69 727.25 193.82 728.39 192.42 729.41 190.49 730.15 189.88 730.32 188.68 730.89 187.59 731 185.65 730.75 183.78 732.08 182.31 733.38 181.89 732.01 180.38 730.98 177.54 731.31 174.81 731.88 173.41 732.01 172.2 730.77 171.86 729.8 172.21 729.05 171.81 726.63 172.39 725.27 173.96 724.12 174.82 722.09 173.33 722.45 172.24 723.19 172.29 724.62 171.25 723.67 169.49 723.25 167.37 722.97 166.97 722.08 164.09 721.24 162.73 723.33 161.13 723.94 158.84 724.33 158.28 724.47 156.34 724.93 155.06 726.66 153.46 729.21 152.54 730.23 153.54 732.6 153.8 734.13 152.94 735.73 152.83 737.38 154.06 738.32 155.22 741.47 153.58 742.5 153.62 744.05 152.91 744.41 152.16 745.34 151.73 746.64 149.4 747.15 147.15 747.93 147.07 750.33 145.61 751.57 148.09 753.57 149.67 754.09 150.77 755.87 152.16 757.86 153.1 759.06 154.26 761.2 155.88 762.14 155.77 763.64 156.08 764.87 157.39 764.84 158.42 765.95 158.84 766.31 159.87 767.38 160.52 767.93 162.06 768.85 162.73 770.19 162.58 771.46 163.18 773.11 164.38 774.94 164.2 775.36 165.15 776.38 165.83 776.64 166.58 778.64 167.01 779.22 166.85 780.87 167.98 784.31 168.17 785.94 167.91 786.79 168.15 788.76 167.68 791.04 167.74 792.22 167.42 794.3 167.82 795.36 167.54 798.24 168.32 799 169.11 Z" id="36640310"/>
<path d="M 636.46 285.81 636.27 287.33 635.26 288.65 635.29 289.76 634.65 290.68 632.68 291.83 632.11 291.9 631.14 293.43 629.63 294.98 627.84 295.57 627.4 296.92 626.37 297.69 624.34 296.6 623.79 295.56 624.33 294.59 624.24 293.16 624.49 292.22 624.32 288.31 623.71 288.19 623.84 286.56 621.02 286.36 620.97 287.18 618.14 286.98 616.74 286.45 616.24 286.79 613.91 286.88 613.14 284.24 611.02 284.08 609.28 283.13 607.63 286.7 606.64 286.22 606.1 285.15 605.85 282.77 603.87 280.87 603.4 278.87 600.58 277.8 598.88 276.26 596.99 275.9 596.46 275.52 594.73 272.23 593.6 272.35 592.51 273.04 586.11 273.93 584.41 273.67 581.88 272.7 580.44 271.94 577.75 271.55 576.55 271.99 575.75 271.13 574.64 271.2 574.4 271.75 573.37 271.5 571.09 272.33 567.97 274.13 566.66 275.38 564.45 276.41 562.58 276.75 560.71 276.57 558.28 276.71 554.51 272.47 551.14 269.14 549.51 267.34 547.3 265.36 541.11 260.73 538.14 257.56 535.01 253.29 534.05 251.84 532.69 250.3 535.13 248.78 543.55 243.86 543.71 243.88 551.14 239.43 552.32 238.28 552.9 237.32 554.56 233.18 554.66 228.75 557.67 228.72 558.81 223.81 559.3 223.11 560.13 223.31 562.68 222.67 564.83 221.96 566.02 220.99 568.12 220.38 569.43 220.42 571.45 220.13 572.2 219.75 571.61 217.71 570.63 215.53 568.18 211.51 564.63 206.11 565.36 204.72 565.76 203.21 567.43 204.04 570 204.24 573.97 206.25 575.33 206.37 576.07 205.07 577.62 203.25 578.84 201.36 578.22 199.44 579.25 197.56 580.47 197.07 580.52 196.47 581.52 195.53 583.97 196.75 584.25 199.4 584.71 200.89 583.92 203.51 584.75 205.13 585.96 206.46 586.34 207.63 587.17 208.18 588.73 208.21 591.06 208.64 593.58 209.34 594.6 210.84 595.36 213.66 594.7 215.48 594.84 216.63 596.18 216.73 596.89 216.03 597.71 214.19 600.93 214.42 603.46 215.17 602.69 215.76 602.53 216.76 601.52 217.81 600.74 219.17 598.83 219.39 599.38 221.26 599.29 222.53 599.83 225.73 601.68 228.52 601.8 230.56 604.25 232.23 605.92 233.09 608.45 233.47 609.26 234.19 608.31 235.84 609.14 238.47 610.57 240.29 610.44 241.76 609.93 243.22 610.18 243.97 610.03 245.26 610.89 245.72 611.8 246.71 613.08 247.19 613.64 248.9 614.58 249.75 614.48 251.68 615.37 251.94 614.45 255.2 616.86 255.9 615.56 258.62 615.16 260.24 614.02 259.91 613.64 260.53 616.81 262.58 617.77 263.01 621.15 263.63 622.01 263.57 624.33 264.99 625.53 265.09 628.59 264.84 631.32 266.72 632 266.55 634.92 266.69 636.36 266.11 637.63 265.96 639.43 264.98 639.54 266.78 641.27 268.17 642.43 269.86 641.37 272.55 641.38 273.82 640.71 275.18 640.67 276.72 641.6 278.51 641.26 279.72 640.22 281.3 638.94 281.46 637.68 282.34 637.12 283.19 637.78 284.01 637.06 285.32 636.46 285.81 Z" id="36640340"/>
<path d="M 532.69 250.3 534.05 251.84 535.01 253.29 538.14 257.56 541.11 260.73 547.3 265.36 549.51 267.34 551.14 269.14 554.51 272.47 558.28 276.71 560.71 276.57 562.58 276.75 564.45 276.41 566.66 275.38 567.97 274.13 571.09 272.33 573.37 271.5 574.4 271.75 574.64 271.2 575.75 271.13 576.55 271.99 577.75 271.55 580.44 271.94 581.88 272.7 584.41 273.67 586.11 273.93 592.51 273.04 593.6 272.35 594.73 272.23 596.46 275.52 596.99 275.9 598.88 276.26 600.58 277.8 603.4 278.87 603.87 280.87 605.85 282.77 606.1 285.15 606.64 286.22 605.61 285.77 605.96 287.23 604.37 288.9 601.83 290.29 600.53 292.96 601.08 294.26 601.24 295.89 599.97 297.11 598.47 297.41 597.14 298.34 596.42 299.5 596.67 300.07 595.89 301.51 596.36 303.54 596.3 305.82 596.95 308.34 597.2 311.02 596.86 312.26 594.88 313.8 594.11 314.79 591.91 316.09 589.41 316.79 588.36 317.3 586.81 317.29 586.18 319.27 586.37 320.18 587.04 320.94 586.6 322.06 586.86 324.16 586.53 325.43 587.25 326.93 587.28 328.61 588.42 329.92 590.72 331.99 592.01 332.56 592.18 333.62 591.88 334.34 591.59 336.87 591.1 336.91 589.16 340.06 588.67 340.37 588.38 342.01 586.85 343.42 586.69 344.22 587.32 344.97 586.97 346.17 588.27 347.24 588.53 348.01 588.31 350 588.44 351.46 588.18 352.33 588.6 353.46 589.13 353.62 590.49 355.76 589.9 356.22 589.58 357.56 588.55 358.76 588.62 360.11 587.19 361.43 586.79 362.28 584.14 364.07 583.21 364.25 581.71 363.58 579.28 364.64 578.17 364.05 577.57 362.68 576.74 362.36 574.15 362.92 572.2 364.52 570.05 364.02 568.64 363.34 567.58 363.52 566.29 364.36 564.8 364.55 562.57 364.21 562.39 365.87 561.74 367.08 559.32 369.88 559.3 371.13 559.66 372.76 558.56 373.57 557.65 374.93 556.02 376.29 554.93 376.38 554.51 376.91 553.12 377.07 551.43 377.79 549.36 379.4 548.35 381.69 547.66 382.02 545.75 384.07 545.02 384.17 544.23 384.94 542.8 383.05 542.4 381.85 540.94 382.15 539.52 380.47 538.79 378.19 538.17 377.49 537.42 377.41 534.46 375.59 533.77 374.33 531.42 371.17 530.93 370.07 529.71 369.64 528.35 367.71 527.18 367.25 525.33 365.94 525.17 364.65 525.56 364.07 526.04 362 525.96 360.51 526.54 359.72 526.35 358.69 527.47 356.85 527.07 355.17 527.16 354.16 526.23 351.72 523.77 351.46 522.7 350.44 520.97 349.21 520.22 348.99 520.71 348.06 520.44 346.55 520.88 344.73 520.11 344.06 519.93 343.31 519.02 342.31 518.78 340.43 518.94 339.58 516.88 337.78 516.7 336.53 517.23 336.07 518.83 332.37 519.42 331.47 519.78 329.72 521.49 328.19 523.38 327.4 524 326.87 524.08 325.07 524.37 323.44 525.33 322.34 525.24 320.88 524.6 319.22 524.51 317.23 525.49 316.08 526.27 314.62 525.39 313.45 525.12 311.39 523.97 309.91 523.67 307.68 522.91 306.39 521.72 305.55 521.39 304.46 521.48 303.3 520.39 302.45 519.47 300.29 517.74 298.92 516.01 298.8 515.68 298.01 515.94 296.57 515.04 295.14 514.77 290.36 513.11 289.93 511.18 287.07 510.27 287.87 507.07 288.55 503.31 288.92 501.66 288.51 499.68 288.68 499.31 288.34 499.09 285.24 499.79 282.81 500.16 282.34 499.01 281.36 498.11 280.96 497.72 279.79 496.65 282.16 495.65 280.16 495.13 279.89 494.44 277.72 496.5 275.36 497.5 274.9 496.93 274.08 499.34 273.26 499.69 272.57 498.9 269.78 495.63 266.72 487.7 261.97 486.15 260.83 484.61 258.62 491.26 254.69 503.96 246.02 506.45 245.87 511.22 244.6 514.57 244.73 517.88 245.45 524.53 246.32 527.14 247.15 529.07 247.97 531.18 249.11 532.69 250.3 Z" id="36640350"/>
<path d="M 446.12 386.93 447.45 388.04 449.9 389.12 449.34 389.55 447.95 389.35 447.24 388.31 446.22 388.32 445.44 387.44 446.12 386.93 Z M 434.17 380.47 432.35 382.63 430.98 383.07 429.7 382.64 430.77 381.07 431.83 380.48 434.17 380.47 Z M 456.33 360.82 455.85 361.81 454.01 360.15 454.47 359.57 456.33 360.82 Z M 525.33 365.94 524.69 366.31 523.41 366.1 522.41 366.44 521.65 365.8 520.52 366.09 519.36 365.79 518.43 364.34 517.59 364.06 515.91 364.76 514.79 365.63 514.13 365.69 512.22 364.88 511.23 364.74 511.49 365.83 511.52 367.71 511.96 369.56 511.33 371.21 510.6 372.05 509.22 372.91 507.32 375.05 507.58 376.16 505.91 377.71 504.75 377.24 502.71 377.17 503.18 377.86 502.01 378.47 501.26 379.94 499.99 379.48 499.15 379.55 497.37 378.54 496.88 374.98 495.31 375.08 492.15 374.52 489.78 376.39 489.01 377.61 485.26 380.06 484.19 381.25 483.47 382.49 482.69 382.9 481.84 382.74 480.45 383.01 474.61 387.86 472.86 387.75 471.33 393.04 468.59 392.21 467.2 392.14 465.42 398 460.04 390.92 456.41 391.5 455.9 392.15 455.1 391.23 454.06 390.54 453.52 391.11 451.89 390.23 452.27 389.11 453.07 387.92 454.4 386.83 453.47 380.5 453.13 379.82 453.32 378 450.37 373.44 448.57 369.95 447.27 369.6 446.4 368.82 445.23 368.67 445.05 367.6 446.2 367.77 449.33 366.98 451.6 367.52 453.36 367.27 454.64 366.36 456.33 365.61 457.89 365.91 459.04 365.56 460.31 364.44 461.84 364.4 463.46 363.01 465.91 360.31 468.28 359.06 467.73 357.57 467.52 355.91 465.78 354.95 464.74 353.03 463.03 351.49 462.69 350.61 463.18 348.63 462.79 347.54 463.28 347.13 464.59 347.18 468.02 346.25 474.84 334.17 476.24 331.64 476.16 331.15 473.72 326.85 473.04 326.97 472.59 327.88 471.21 327.93 469.94 328.54 460.67 336.62 460.21 336.87 445.8 341.69 447.06 345.87 446.77 348.73 446.12 349.92 445.05 350.2 433.88 352.19 431.34 352.52 430.03 353.67 425.64 355.55 424.85 352.49 425.12 349.49 426.09 345.02 426.89 343.09 427.34 338.68 427.89 337.35 429.27 336.29 431.58 332.83 431.74 327.84 432.95 326.71 431.89 323.54 431.32 323.92 430.14 325.91 429.56 326.11 428.38 324.8 426.72 322.37 426.23 320.9 426.23 319.88 423.96 320.95 423.99 322.05 425.29 323.2 426.61 325.57 427.53 328.18 428.33 329.14 428.46 330.53 429.02 331.33 428.45 333.35 426.63 335.12 425.27 335.1 423.66 337.24 418.98 337.05 416.8 337.51 416.1 338.24 415.05 340.05 412.98 339.28 411.95 338.33 411.66 337.28 406.44 338.24 400.76 336.39 398.81 332.63 400.61 330.64 400.47 328.48 400.86 327.05 402.56 323.58 403.63 321.66 402.42 321.1 401.04 319.28 400.94 318.55 400.07 317.47 399.06 315.6 398.9 314.35 397.94 313.82 398.3 315.53 399.09 317.05 400 318.09 401.56 323.15 399.75 323.35 399.31 327.19 397.94 329.08 394.74 328.89 392.35 327.99 389 327.11 388.04 326.3 387.38 327.21 386.56 329.24 385.29 330.18 384 329.72 382.93 328.96 381.15 328.62 380.12 327.84 379.83 326.87 380.46 325 381.35 317.72 379.92 316.67 379.68 314.43 379.69 311.7 378.91 311.13 379.61 310.19 379.62 309.04 379.2 308.51 378.2 310.08 377.43 310.83 377.49 311.45 376.32 312.07 375.71 311.49 378.37 307.34 379.01 305.51 380.65 303.74 380.45 302.12 381.03 300.78 381.18 299.35 380.97 297.75 381.99 295.47 382.49 292.65 384.97 288.88 384.91 286.72 385.67 284.75 387.11 283.05 388.23 280.38 389.25 278.48 390.65 277.54 389.06 277.25 389.85 276.07 389.46 274.83 389.6 272.86 390.5 272.57 390.6 271.69 391.22 270.87 390.68 270.37 390.83 268.68 392.02 268.36 393.11 266.53 394.49 265.27 395.84 264.95 396.44 265.35 396.61 266.36 397.18 267.21 398.15 267.69 399.58 269.98 401.47 272.03 400.89 273.15 405.91 277.08 406.7 276.55 410.24 279.12 411.69 280.37 412.42 280.62 415.46 279.07 419.23 277.16 421.53 274.26 420.36 269.9 420.17 268.29 420.34 267.01 421.22 265.71 422.39 264.96 427.16 263.82 428.3 264.48 430.13 266.81 431.38 272.58 432.63 273.93 433.35 274.11 436.22 273.47 436.65 272.65 440.35 272.5 454.8 272.63 456.74 272.47 466.21 268.94 472.57 266.3 477.96 263.95 479.89 262.22 484.61 258.62 486.15 260.83 487.7 261.97 495.63 266.72 498.9 269.78 499.69 272.57 499.34 273.26 496.93 274.08 497.5 274.9 496.5 275.36 494.44 277.72 495.13 279.89 495.65 280.16 496.65 282.16 497.72 279.79 498.11 280.96 499.01 281.36 500.16 282.34 499.79 282.81 499.09 285.24 499.31 288.34 499.68 288.68 501.66 288.51 503.31 288.92 507.07 288.55 510.27 287.87 511.18 287.07 513.11 289.93 514.77 290.36 515.04 295.14 515.94 296.57 515.68 298.01 516.01 298.8 517.74 298.92 519.47 300.29 520.39 302.45 521.48 303.3 521.39 304.46 521.72 305.55 522.91 306.39 523.67 307.68 523.97 309.91 525.12 311.39 525.39 313.45 526.27 314.62 525.49 316.08 524.51 317.23 524.6 319.22 525.24 320.88 525.33 322.34 524.37 323.44 524.08 325.07 524 326.87 523.38 327.4 521.49 328.19 519.78 329.72 519.42 331.47 518.83 332.37 517.23 336.07 516.7 336.53 516.88 337.78 518.94 339.58 518.78 340.43 519.02 342.31 519.93 343.31 520.11 344.06 520.88 344.73 520.44 346.55 520.71 348.06 520.22 348.99 520.97 349.21 522.7 350.44 523.77 351.46 526.23 351.72 527.16 354.16 527.07 355.17 527.47 356.85 526.35 358.69 526.54 359.72 525.96 360.51 526.04 362 525.56 364.07 525.17 364.65 525.33 365.94 Z" fill-rule="evenodd" id="36640360"/>
<path d="M 269.88 361.34 272.13 362.31 273.14 361.89 274.28 362.6 275.38 362.08 276.09 362.74 276.49 363.92 276.4 366.54 275.29 367 274.39 366.82 271.86 368.1 270.75 367.55 270 368.21 268.44 368.09 267.3 367.47 266.3 367.9 265.71 367.44 265.48 366.41 265.85 364.42 267.03 363.11 268.39 363.05 268.95 361.76 269.88 361.34 Z M 286.73 350.41 287.39 350.88 287.81 352.47 286.96 353.49 287.5 354.78 287.5 356.09 286.17 355.82 285.78 355.25 284.4 354.83 283.15 355.3 282.68 353.92 283.66 353.29 283.82 352.21 284.9 350.46 286.73 350.41 Z M 317.09 338.16 318.38 338.09 319.43 338.58 319.77 340.06 318.1 340.91 317.25 342.43 315.42 341.51 314.08 341.51 313.18 341.92 312.79 340.99 314.23 340.19 314.16 339.59 314.97 338.71 317.09 338.16 Z M 205.8 325.44 206.52 325.37 207.14 328.32 207.14 329.18 206.1 330.34 204.04 331.37 202.38 331.81 199.91 332.75 199.31 333.3 198.44 334.8 196.61 336.79 196.08 338.56 195.48 339.48 193.39 340.33 191.63 341.27 190.3 340.86 188.17 339.86 187 338.98 185.34 339.13 181.05 340.12 178.75 339.97 173.93 342.04 173.28 342.69 172.34 344.75 171.98 346.23 171.3 347.86 172.77 349.98 174.06 351.08 174.85 353.21 175.58 354.27 174.29 355.76 173.71 356.04 173.21 354.31 172.14 353.96 171.32 354.25 171.02 355.06 169.11 354.69 167.64 355.22 166.78 355.09 165.34 356.29 164.26 356.11 164.68 354.98 164.19 353.26 165.49 351.31 165.92 350.07 167.05 348.97 168.02 348.53 167.99 347.21 166.92 346.8 166.16 344.39 164.99 343.54 165.21 342.86 166.26 341.64 167.24 339.3 167.88 338.73 168.61 339.27 169.23 338.97 170.49 339.07 171.3 338.05 172.84 338.18 172.54 340.17 173.97 341.83 178.38 339.86 178.48 339.05 177.61 337.7 178.49 337.29 179.35 336.36 180.4 336.31 182.36 335.16 184.26 335.63 185.6 334 186.55 333.78 187.64 333.05 187.79 332.4 186.78 331.93 186.85 330.09 187.31 330.11 188.26 331.63 189.34 332.49 189.45 333.19 192.99 333.88 193.95 333.79 195.76 332.89 196.01 331.5 196.85 330.03 197.87 329.47 197.86 328.47 199.03 327.26 199.85 327.38 200.3 325.84 201.95 325.63 202.67 326.03 204.8 325.86 205.8 325.44 Z M 139.27 258.98 139.5 259.73 141.12 259.06 142.51 260.4 143.31 261.83 142.13 262.56 140.98 263.75 140.5 265 140.43 266.16 142.07 267.73 142.41 268.89 141.23 270.58 140.94 271.46 138.95 273.51 138.04 275.41 135.61 278.01 133.92 278.73 132.58 278.71 130.04 277.89 129.42 278.43 128.51 278.07 127.92 277.29 128.41 275.86 127.26 274.75 126.39 274.43 126.46 273.49 127.46 271.9 128.49 270.89 128.25 269.6 129.2 268.94 129.42 267.71 130.7 267.89 132.03 267.34 132.3 266.61 133.7 266.48 134.91 266.82 136.08 265.34 136.75 264.98 138.54 265.3 140.07 263.93 140 263.1 139.35 262.23 139.02 260.13 139.27 258.98 Z M 126.43 253.6 127.26 254.26 126.73 255.43 125.93 256.31 124.37 256.19 123.79 256.66 121.74 257.35 121 257.14 119.98 257.47 118.84 258.31 118.15 257.95 117.53 256.91 119.55 255.36 120.02 255.94 121.29 255.2 122.52 255.65 123.11 254.21 124.49 254.38 125 253.63 126.43 253.6 Z M 162.09 253.28 163.5 253.06 163.38 255.21 160.85 255.25 159.71 255.7 158.76 256.73 159.16 258.28 157.94 258.66 157.78 259.1 156.44 259.97 155.57 259.49 153.53 257.02 157.36 255.14 158.69 254.84 160.16 253.6 160.94 253.77 162.09 253.28 Z M 286.25 246.17 287.42 246.43 287.81 247.81 286.84 247.79 285.95 246.52 286.25 246.17 Z M 272.09 216.23 273.09 216.63 273.76 217.66 274.85 218.62 275.52 219.71 274.64 220.82 273.81 220.53 273.08 219.18 271.49 217.33 272.3 216.87 272.09 216.23 Z M 263.11 201.47 264.54 203.37 264.83 205.5 265.65 206.78 262.99 205.25 262.06 205.2 261.31 204.06 259.84 203.48 259.18 202.27 260.28 201.91 260.92 202.27 261.67 201.6 262.28 202.15 263.11 201.47 Z M 189.84 194.5 191.1 195.07 191.4 196.21 192.74 197.83 193.96 200.32 195.11 201.55 194.91 202.69 195.93 204.47 197.02 205.24 198.64 205.27 199.5 206.41 200.27 206.17 202.04 207.58 202.82 208.85 202.57 210.36 201.97 212.12 202.43 217.63 202.22 218.04 203.28 219.17 202.58 220.25 203.07 221.69 204.09 223.21 204.57 225.63 205.15 226.64 203.76 227.67 203.35 228.31 203.51 229.96 203.08 231.71 202.43 231.96 201.45 233.02 200.76 234.33 200.21 234.07 198.65 234.17 197.71 235.44 197.16 237.46 195.43 237.79 194.05 237.28 190.82 237.75 190.03 237.48 189.13 236.61 188.13 235.03 187.19 234.81 186.76 234.1 186.99 233.08 188.36 231.93 190.47 231.44 191.14 230.32 191.02 228.34 189.87 227.35 189.54 226.52 187.75 226 186.34 224.96 185.66 225.13 184.87 224.42 183.31 224.23 182.63 223.33 180.69 222.97 180.61 222.32 178.57 221.14 177.59 219.36 177.03 216.61 178.07 215.75 178.17 214.74 179.05 213.8 178.7 213 179.17 211.36 180 210.66 179.78 209.78 180.3 209.29 182.01 209.87 184.02 211.64 184.9 209.31 185.92 209.49 185.76 208.33 185.01 207.4 185.58 205.71 186.9 204.89 188.31 205.58 188.91 204.76 188.23 203.75 188.15 201.4 188.54 200.28 188.35 197.58 187.94 196.98 188.66 196.28 189.01 195.11 189.84 194.5 Z M 336.47 175.68 336.92 176.15 336.69 177.7 335.58 177.33 335.31 176.08 336.47 175.68 Z M 341.71 166.84 342.52 166.81 342.88 167.72 341.87 168.03 340.71 167.36 341.71 166.84 Z M 346.82 164.25 347.32 164.56 347.16 167.98 346.36 168.31 345.01 166.84 345.92 164.49 346.82 164.25 Z M 355.25 160.66 355.83 161.82 354.73 163.32 352.98 163.56 351.69 164.32 350.99 165.4 350.4 164.69 350.42 163.34 351.01 162.46 353.09 162.3 354.28 160.8 355.25 160.66 Z M 13.35 159.81 13.87 160.54 13.61 163.39 12.88 164.07 11.85 164.05 10.62 165.22 9.14 165.26 8.92 164.68 9.4 163.26 10.15 163.26 10.26 162.14 10.97 161.4 11.92 161.22 12.41 160.3 13.35 159.81 Z M 17.1 143.78 18.18 144.86 18.21 145.83 19.06 145.75 19.84 146.53 20.49 146.59 21.23 144.9 23.02 144.75 23.87 145.31 26.4 145.62 27.23 144.71 28.55 145.86 29.57 145.97 31.56 148.23 31.68 150.29 31.06 152 27.5 150.61 25.04 150.7 24.46 149.86 23.36 149.23 22.25 149.06 21.57 149.55 21.62 151.71 20.3 151.3 17.86 153.07 17.7 154.64 17.34 155.51 15.83 156.43 15.48 158.5 14.71 157.31 15.03 156.57 14.06 154.28 14.29 153.29 14 152.42 15.39 151.83 15.91 152.07 16.67 150.65 17.53 151.06 17.84 150.29 17.48 149.35 17.81 147.62 16.88 147.07 16.3 145.56 17.1 143.78 Z M 6.81 135.14 7.49 136.46 9.15 137.91 10.08 136.97 12.08 137.04 14.98 136.67 16.02 137.61 16.13 138.39 15.59 138.99 15.7 141.34 13.06 140.64 12.06 139.53 9.61 140.12 6.46 141.56 5.88 141.32 5.16 140.18 3.79 139.5 2.82 140.39 1.21 139.66 1 138.43 2.04 137.07 4.58 135.57 6.81 135.14 Z M 44.67 98.33 46.16 98.84 46.4 99.46 47.66 99.56 48.48 101.25 47.9 102.15 48.54 103.75 49.79 104.42 49.79 105.2 52.6 106.01 53.6 104.34 54 104.66 55.21 104.25 55.81 104.72 55.2 105.82 53.35 110.03 54.39 112.47 55.09 112.4 56.04 113.08 56.67 113.05 57.71 113.95 59.22 114.24 60.2 114.93 61.88 115.45 63.26 115.41 64.19 116.36 63.85 117.54 63.86 119.12 63.45 119.91 63.82 121.12 63.69 122.37 64.58 123.09 65.98 123.71 66.97 123.36 67.85 123.56 69.24 124.38 67.81 127.92 67.37 128.28 67.8 129.52 66.32 129.67 65.37 129.13 64.79 129.65 64.82 130.75 63.94 132.84 62.54 133.46 62.02 134.37 61.07 134.89 61.17 135.76 60.05 136.9 58.88 137.29 57.91 138.44 57.04 137.57 56.35 137.95 56.38 141.17 56.71 142.17 55.47 142 54.37 142.17 52.77 139.92 51.6 140.05 50.84 139.63 49.56 140.76 49.12 141.83 48.22 141.06 47.47 141.22 46.09 139.93 44.74 140.09 44.15 141.48 42.95 142.68 42.35 144.82 40.99 145.06 40.38 144.56 39.46 144.54 38.81 145.24 37.81 145.45 36.85 145.21 36.07 146.34 35.25 145.67 35.3 145.07 36.47 144.04 36.14 143.25 37 142.57 37.08 141.6 38.95 141.24 39.98 140.42 41.69 139.88 42.34 138.89 43.89 138.59 43.45 137.61 43.6 136.62 42.85 136 43.19 135.38 42.59 134.56 42.46 133.4 41.56 133.23 39.35 131.31 38.54 131.4 38.07 132.35 36.71 132.77 35.11 134.21 34.1 134.3 33.32 133.11 32.54 132.72 31.28 131.43 31.88 130.71 31.21 130.24 30.6 129.01 29.56 128.07 29.26 126.75 30.05 126.34 28.85 122.74 29.27 122.85 30.35 126.23 32.85 127.45 34.3 126.91 35.87 127.05 37.31 127.53 37.91 125.8 40.86 125.87 41.66 126.19 41.67 127.19 42.36 127.42 45.72 127.43 46.47 126.48 47.11 124.82 47.04 123.16 45.17 122.88 43.89 122.45 42.07 121.46 41.74 119.77 42.35 118.92 42.33 117.41 41.71 116.28 41 115.91 39.09 116.22 36.07 115.3 34.63 116.1 33.33 115.36 33.11 114.48 31.66 113.33 30.75 113.25 30.06 112.59 29.39 110.75 28.13 110.67 26.25 112.29 26.57 113.17 24.69 113.75 23.8 115.1 22.89 116.04 26.25 121.48 25.83 121.37 22.25 115.68 21.01 115.31 19.93 115.85 17.79 114.97 17.55 113.84 15.85 112.75 15.24 110.39 14.51 109.88 14.91 108.96 16.35 109.68 16.52 110.35 19.6 111.49 20.48 112.18 21.14 112.08 22.75 110.65 23.48 109.2 24.81 110.04 25.97 110.04 26.97 111.05 27.75 110.57 27.11 108.16 27.78 107.82 28.07 105.88 29.42 105.89 30.44 106.94 32.21 106.64 33.55 107.7 35.09 107.68 35.62 107.22 36.9 108.12 39.62 109.53 42.1 108.24 43.08 109.36 44.18 110.03 45.55 109.18 45.82 108.11 45.34 106.97 45.78 105.67 44.38 104.87 43.95 104.13 44.1 102.73 44.67 101.7 44.65 100.51 45.08 99.69 44.51 99.16 44.67 98.33 Z M 89.94 90.87 91.28 91.08 91.54 92.23 92.15 92.93 92.1 93.84 92.56 95.21 92.81 97.18 92.1 97.74 90.38 95.98 89.27 96.07 87.82 95.07 86.91 94.89 85.87 94.15 86.52 92.69 86.39 91.93 87.45 91.45 89.94 90.87 Z M 179.35 88 178.41 90.26 177.52 90.75 176.44 90.37 176.99 89.64 179.35 88 Z M 180.44 86.86 180.85 88.26 180.24 88.29 180.44 86.86 Z M 86.78 86.55 86.4 85.93 84.71 85.8 83.16 86.88 81.75 86.92 80.77 87.79 78.65 88.31 77.3 88.96 76.44 89.71 76.05 91.02 76.45 92.67 76.02 93.32 74.94 93.67 72.87 93.32 71.57 91.98 71.47 91.18 70.64 90.83 70.08 89.81 69.15 89.21 70.79 88.05 69.91 86.85 70.62 84.93 71.26 84.58 72.11 85.22 72.89 84.63 73.2 83.8 74.51 83.14 77.37 84.22 78.03 83.57 80.33 85.28 82.51 84.5 82.55 83.57 84.79 82.56 86.14 82.33 86.68 82.68 88.19 82.72 88.97 84.43 89.02 86.35 88.32 87.06 87.69 86.46 86.78 86.55 Z M 179.69 80.09 179.06 81.74 177.48 81.04 179.69 80.09 Z" fill-rule="evenodd" id="36640380"/>
</g>
</svg>