<?xml version="1.0"?>
<svg xmlns="http://www.w3.org/2000/svg" version="1.2" baseProfile="tiny" width="800" height="841" viewBox="0 0 800 841" stroke-linecap="round" stroke-linejoin="round">
<g id="dong">
<path d="M 359.07 664.15 358.73 667.02 357.39 667.55 356.87 670.16 354.6 673.54 353.29 674.4 351.36 677.62 348.96 680.25 346.46 684.18 346.51 685.64 344.58 688.3 342.6 689.67 341.93 691.03 342.59 696.75 343.15 698.62 341.98 703.18 341.2 703.98 340 708.29 337.24 710.88 335.1 710.51 333.53 712.51 333.74 714.55 332.04 714.9 330.25 718.56 330.32 721.06 328.54 722.25 328.44 723.96 327.09 727.02 328.41 728.44 326.43 732.58 323.92 735.47 322.03 736.09 318.49 738.1 318.93 742.3 315.83 749.92 315.19 752.17 316.82 753.53 318.74 758.09 320.39 760.61 320.09 763.57 319.06 765.95 319.19 768.56 316.08 769.5 314.86 771.97 315.26 776.59 313.2 778.83 312.24 778.69 307.09 779.81 305.53 778.73 302.74 779.65 299.66 779.76 297.02 779.13 295.24 780.21 290.21 784.3 288.59 785.22 286.56 784.88 284.98 785.75 284.32 787.76 282.8 789.16 280.9 789.53 278.98 792.09 278.04 792.43 274.93 790.55 271.78 789.87 271.76 788.57 268.65 786.99 265.15 787.57 264.34 786.11 261.41 783.92 260.57 782.24 257.62 781.16 255.8 778.78 254.6 778.2 251.83 775.48 249.89 771.26 249.82 770.12 254.1 764.19 255.29 761.08 254.96 758.85 253.76 756.86 255.55 755.32 255.23 753.23 258.23 751.11 260.64 748.29 263.42 746.83 267.64 742.84 269.65 743.68 271.69 743.46 274.1 740.36 275.68 737.54 278.99 742.5 280.61 742.77 282.91 741.83 280.21 735.85 280.05 733.07 281.04 730.93 279.69 728.51 278.23 722.68 279.95 720.82 281.66 717.82 281.25 714.24 280.04 712.66 280.79 710.93 282.24 710.37 288.59 704.75 291.81 703.33 292.44 700.4 293.69 698.6 295.2 697.86 295.5 694.71 297.05 690.7 295.86 689.54 294.73 686.5 294.91 684.55 296.15 682.98 297.81 682.47 297.89 678.48 295.5 676.46 297.5 675.28 298.17 673.92 293.9 669.89 291.23 666.52 289.51 665.31 289.91 663.67 293.75 660.18 294.06 656.15 295.59 650.1 298.63 650.61 301.37 647.92 304.21 642.63 305.91 641.89 304.72 638.94 305.67 635.98 304.8 633.93 306.21 629.34 305.11 626.51 302.4 624.54 299.93 623.36 296.06 619.03 297.52 615.07 296.83 613.14 294.77 610.78 295.21 609.45 298.05 607.08 299.69 604.72 298.81 601.97 296.08 597.87 295.87 594.5 297.01 591.34 294.09 587.88 295 584.56 294.02 583.58 294.79 579.5 293.48 577.36 290.59 576.84 289.48 577.95 287.23 578.67 286.28 575.9 283.53 572.94 283.22 572.03 277.98 570.86 277.23 571.53 274.32 571.78 273.32 570.4 270.04 567.54 270.63 564.26 267.97 559.16 266.6 557.11 266.5 553.53 261.49 548.23 258.28 542.86 259.87 541.08 258.91 538.65 258.74 534.81 257.8 531.67 256.34 530.08 255.97 526.66 256.54 521.63 254.91 516.23 253.54 513.99 255.11 512.16 255.47 509.7 256.85 505.57 260.41 504.44 260.87 503.18 263.53 505.65 268.29 508.17 273.78 508.52 276.46 508.23 280.01 509 283.83 511.3 285.9 512.02 288.43 510.99 290.82 512.15 292.58 511.63 293.65 513.09 296.6 513.4 299.1 514.39 300.11 514.11 303.52 516.29 304.51 517.8 307.84 518.72 310.5 518.78 312.45 519.81 318.53 521.14 321.3 522.93 322.28 525.49 324.21 526.91 325.78 527.01 326.27 529.96 328.75 532.85 330.18 537.1 334.6 537.82 338.97 537.49 341.69 538.19 344.7 536.7 344.4 532.42 345.77 531.31 348.43 530.77 350.81 529.5 353.8 530.39 355.96 530.08 359 528.07 360.25 526.74 364.43 527.26 367.38 528.62 368.67 528.07 370.18 529.96 371.14 533.03 372.78 534.57 375.55 535.79 377.52 537.54 377.82 539.53 380.35 540.83 382.31 544.29 384.78 547.33 386.62 553.22 386.05 557.61 386.83 559.5 385.44 561.59 378.9 562.27 375.82 563.77 373.7 567.1 375.57 568.98 377.92 568.89 379.1 570.33 377.99 571.86 376.95 576.54 377.82 578.83 380.38 579.99 381.32 581.52 381.34 583.43 379.87 586.28 380.5 588.14 376.94 590.13 375.93 594.15 373.22 597.52 369.65 601.3 371.37 602.31 374.16 606.4 371.8 608.74 369.39 611.94 367.89 614.58 365.62 615.19 364.3 616.65 365.33 620.75 364.94 623.38 363.88 625.5 361.1 627.09 360.44 628.54 357.94 631.47 356.8 635.86 357.3 637.47 358.85 637.38 362.55 640.97 360.58 642.77 360.28 644.7 365.11 647.23 365.2 649.2 364.17 650.59 361.77 652.27 360.45 657.07 359.47 656.84 358.44 661.44 359.07 664.15 Z" id="36650330"/>
<path d="M 647.54 471.69 648.36 472 649.85 477.99 650.97 480.32 649.99 481.08 649.25 483.66 649.55 488.62 650.57 491.75 649.1 492.54 647 497.22 645.31 501.94 648.01 504.8 648.62 510.47 647.74 514.03 648.59 518.17 647.81 520.05 647.93 521.75 647.37 526.03 647.74 527.85 645.27 531.86 641.88 533.29 638.65 536.16 638.27 538.01 636.39 542.13 633.82 544.82 631.21 546.77 628.49 548.1 625.73 548.31 621.13 550.77 618.91 551.45 616.38 553.29 613.68 549.4 607.86 545.72 604.49 545.2 602.51 543.44 599.27 538.81 597.59 537.93 594.42 533.96 591.83 532.98 589.81 531.55 587.85 531.9 582.58 532.04 582.05 534.61 580.26 536.4 577.66 538 569.22 532.14 567.62 532.3 564.04 531.1 561.75 535.05 559.99 535.55 559.38 538.58 558.66 539.58 558.75 543.07 557.94 544.83 555.79 551.9 554.4 554.17 552.53 555.94 550.97 558.28 550.51 561.34 547.82 563.06 546.29 563.27 542.06 565.63 541.51 567.24 541.94 570.73 540.03 574.03 539.25 577.73 537.79 580.88 538.61 582.69 538.02 584.79 538.6 588.05 538.36 591.33 533.16 591.86 533.11 594.12 531 595.77 530.35 599.94 527.69 600.53 526.02 601.74 522.6 601.12 521.69 601.65 521.03 604.34 518.97 607.97 517.63 609.01 510.22 609.87 506.75 609.13 505.3 609.81 504.22 611.82 501.15 613.55 498.12 610.91 494.31 604.04 492.08 605.57 490.04 605.92 485.92 610.51 484.62 615.44 483.6 616.88 483.23 619.02 479.81 619.21 478.23 620.13 476.55 620.01 471.75 622.96 470.22 622.65 466.08 619.09 464.12 615.83 462.66 615.46 461.86 613.83 461.97 610.88 461.16 607.29 464.35 605.59 465.81 602.22 469.67 598.6 470.85 595.65 470.99 593.71 472.22 591.35 470.59 589.85 467.04 582.76 462.78 582.17 459 576.84 461.37 574.86 461.69 571.7 463.76 569.1 464.03 563.86 460.33 563.23 459.79 560.91 455.1 557.91 451.67 556.31 448.23 556.29 446 557.56 445.03 553.67 443.25 552.61 444.46 547.62 443.58 543.39 443.56 540.64 441.81 536.29 438.65 534.75 436.8 533.18 433.94 534.52 432.05 533.8 430.76 534.25 428.43 533.18 427.03 531.07 426.29 527.69 423.22 524.8 424.88 522.24 424.66 519.66 423.61 516.95 425.46 514.8 423.67 513.05 426.03 508.88 426.02 507.4 426.15 504.63 427.76 503.17 430.7 504.95 435.26 503.29 436.58 505.5 439.34 506.05 440.16 507.04 441.94 506.7 442.5 509.98 445.95 510.18 446.02 508.2 444.16 505.75 444.19 500.41 445.37 497.1 444.09 492.29 443.99 490.14 444.81 487.52 447.59 485.19 448.79 482.05 449.6 477.51 449.78 474.59 450.62 472.96 456.26 467.49 459.73 465.17 463.14 461 462.81 458.85 460.91 457.98 458.01 457.86 457.02 457.1 456.2 454.44 454.09 451.4 448.15 445.24 445.89 441.18 443.4 433.94 442.47 432.58 439.83 431.2 437.63 427.49 434.29 420.74 430.68 415.19 431.13 411.23 433.12 402.82 433.13 398.44 434.3 395.48 436.82 393.31 440.3 391.39 442.51 389.2 446.43 389.87 446.2 391.14 447.05 394.04 449.61 394.67 450.87 393.69 453.34 393.59 455.4 390.96 456.6 388.31 459.86 388.89 462.05 390.37 470.3 391 472.9 390.35 476.48 393.24 479.03 396.1 482.81 397.02 483.64 393 485.87 393.03 486.03 387.54 486.8 383.82 486.58 381.36 489.09 383.42 493.51 385.34 494.76 386.91 497.13 387.36 497.76 386.28 501.6 382.54 503.28 380.36 505.45 380.12 509.6 380.38 510.74 378.74 511.82 374.31 514.91 372.71 516.17 369.31 517.82 368.63 518.75 362.99 518.34 361.2 520.7 358.23 521.39 355.33 522.99 353.05 522.08 351.4 521.75 349 524.07 343.92 525.33 343.23 525.96 341.44 528.45 339.63 530.26 340.15 530.8 338.68 535.64 335.94 537.66 336.02 537.26 332.04 537.82 324.86 538.74 321.09 541.47 316.89 541.96 315.51 544.78 311.89 542.11 307.53 543.44 301.11 545.53 297.41 546.83 294.13 546.76 289.62 548.95 287.6 551.89 282.95 553.76 281.48 558.09 281.03 564.68 284.07 565.77 286 565.83 289.78 566.92 292.57 567.65 296.59 570.42 300.22 574.98 299.71 576.25 298.73 579.48 299.12 580.04 297.21 582.92 294.34 585.36 294.77 586.23 296.39 588.66 293.44 589.7 294.87 592.17 291.25 594.88 288.86 595.19 286.44 596.98 285.26 597.59 280.65 599.32 278.68 602.39 277.94 604.34 275.58 606.72 274.39 607.46 274.69 606.94 277.61 607.69 281.08 607.02 283.56 605.24 297.94 609.01 298.37 614.94 301.45 616.5 302.87 615.53 304.28 615.31 309.79 614.57 314.04 614.72 317.13 613.8 319.78 613.68 322.86 610.03 326.78 607.66 328.28 604.94 331.77 605.37 335.12 607.4 337.65 608.18 344.65 610.61 346.35 613.52 349.57 616.08 350.29 617.3 354.65 619.99 354.42 622.34 355.86 624.63 356.55 626.41 355.64 627.45 353.73 629.22 354.18 633.76 358.07 637.88 362.55 639.61 368.71 640.62 371.32 642.33 373.59 640.62 377.05 638.14 379.14 638.14 380.83 636.93 382.44 638.61 385.88 638.94 389.67 638.48 392.37 635.14 395.66 634.65 400.93 632.42 406.9 631.32 407.1 630.23 411.18 630.95 416.04 630.76 418.51 631.38 427.56 632.65 429.29 631.59 431.4 631.55 435.25 630.38 437.53 634.06 438.71 635.15 446.91 639 467.44 647.54 471.69 Z" id="36650110"/>
<path d="M 631.21 546.77 638.82 554.47 643.08 558.24 644.72 559.16 645.96 563.02 647.67 569.9 648.28 571.13 648.63 575.53 649.97 577.12 650.44 578.97 652.36 582.1 654.26 588.5 653.52 592.65 654.37 596.14 655.76 599.63 657.85 601.77 656.48 605 657.48 607.3 659.8 610.46 662.62 609.78 664.37 613.3 665.55 613.78 667.54 618.39 668.39 621.63 672.19 624.7 673.64 629.24 675.82 631.71 678.06 637.23 680.22 641.07 682.7 643.46 683.11 646.89 684.59 649.02 686.4 652.76 686.35 654.99 688.39 658.26 689.43 663.24 688.79 664.65 690.04 668.65 687.16 669.26 683.09 671.61 679.95 672.61 677.55 672.79 675.27 674.56 673.62 676.76 671.27 678.37 670.84 679.75 666.59 683.27 664.75 683.92 660.25 683.8 658.38 683.3 655.08 685.84 654.39 684.8 652.67 685.03 650.64 686.39 649.92 688.32 648.15 689.25 646.97 693.09 647.05 696.94 645 699.73 642.28 701.6 640.75 701.25 639.47 702.84 638.11 702.64 634.95 704.96 630.63 705.57 626.72 705.52 624.86 706.04 622.8 707.75 619.12 711.87 616.71 713.3 614.98 709.39 612.85 703.19 615 699.15 614.64 696.1 612.81 694.16 609.36 693.85 606.94 695.09 605.91 698.21 603.79 699.3 602.94 698.62 600.21 699.06 589.94 699.29 588.99 695.29 588.07 694.56 583.58 695.09 581.86 692.59 579.65 691.62 582.09 688.99 584.7 684.95 588.32 681.15 590.7 677.82 591.88 674.7 590.86 670.94 591.1 668.01 592.75 665.82 589.59 660.96 586.97 659.63 584.57 656.01 582.99 652.13 578.41 651.27 577.59 652.25 573.53 651.23 572.22 649.93 568.45 648.96 566.93 647.75 563.59 646.26 562.06 642.66 561.29 641.84 554.35 637.97 550.27 641.37 548.89 645.92 547.78 648.15 545.35 650.09 542.72 657.06 543.64 658.52 545.23 659.02 543.97 663.48 546.4 664.18 543.76 673.13 541.52 672.4 540.94 673.67 539.12 674.9 535.6 675.09 533.41 673.31 530.33 660.57 527.66 657.03 525.66 653.51 524.79 648.45 523.85 646.32 521.23 643.08 520.3 639.24 517.52 636.74 516.86 632.44 515.55 630.71 514.27 630.43 511 630.91 508.34 630.5 507.3 628.94 506.79 626.46 504.45 625.33 503.89 621.91 503.08 621.41 498.45 620.82 495.44 619.02 492.79 615.07 492.08 605.57 494.31 604.04 498.12 610.91 501.15 613.55 504.22 611.82 505.3 609.81 506.75 609.13 510.22 609.87 517.63 609.01 518.97 607.97 521.03 604.34 521.69 601.65 522.6 601.12 526.02 601.74 527.69 600.53 530.35 599.94 531 595.77 533.11 594.12 533.16 591.86 538.36 591.33 538.6 588.05 538.02 584.79 538.61 582.69 537.79 580.88 539.25 577.73 540.03 574.03 541.94 570.73 541.51 567.24 542.06 565.63 546.29 563.27 547.82 563.06 550.51 561.34 550.97 558.28 552.53 555.94 554.4 554.17 555.79 551.9 557.94 544.83 558.75 543.07 558.66 539.58 559.38 538.58 559.99 535.55 561.75 535.05 564.04 531.1 567.62 532.3 569.22 532.14 577.66 538 580.26 536.4 582.05 534.61 582.58 532.04 587.85 531.9 589.81 531.55 591.83 532.98 594.42 533.96 597.59 537.93 599.27 538.81 602.51 543.44 604.49 545.2 607.86 545.72 613.68 549.4 616.38 553.29 618.91 551.45 621.13 550.77 625.73 548.31 628.49 548.1 631.21 546.77 Z" id="36650310"/>
<path d="M 614.98 709.39 612.31 709.11 607.94 709.74 607.88 710.97 609.36 716.13 608.08 717.28 606.18 715.8 604.4 715.72 602.85 717.59 599.8 717.09 598.66 718.28 598.57 720.18 597.11 724.14 598.11 727.47 594.38 730.04 590.6 729.63 587.06 729.73 585.94 732.26 586.37 733.01 582.23 734.11 578.3 730.92 574.3 728.18 569.87 726.8 565.93 725.24 563.82 724.06 562.17 725.36 561.38 727.41 562.74 733.07 562.9 738.04 560.54 741.45 555.54 740.49 553.76 741.42 552.72 740.36 550.92 740.39 550.52 742.35 548.94 743.55 546.29 746.89 544.32 746.52 543.55 745.47 541.23 744.6 538.51 747.1 536.35 748.05 535.46 750.17 533.33 750 531.77 750.68 530.09 753.97 528.89 754.51 525.12 754.81 524.21 757.45 519.29 759.72 517.35 762.6 516.4 760.92 515.55 757.84 515.05 754.02 509.8 755.16 507.81 758.3 506.21 758.49 501.34 757.45 497.87 757.19 496.07 758.6 493.81 758.28 489.4 754.83 488.1 752.47 485.1 750.84 483.56 748.81 480.5 746.64 478.18 746.07 476.08 748.32 473.72 746.73 468.52 745.76 463.18 743.59 462.13 744.08 458.79 741.54 453.75 736.48 451.61 733.96 449.79 730.38 447.57 727.63 443.27 727.76 438.76 725.93 435.8 721.19 431.5 722.33 431.21 723.82 428.56 723.54 426.89 721.87 423.35 721.19 421.34 721.59 416.9 718.87 414.87 718.78 412.58 717.91 409.93 719.01 405.01 718.58 400.84 716.78 399.06 713.98 397.58 709.04 398.78 706.42 399.56 701.83 400.73 697.3 399.9 695.39 401.28 693.57 401.69 691.32 404.4 690.47 408.4 685.97 410.47 684.77 413.85 679.73 415.24 674.48 415.22 670.08 417.02 667.78 416.91 666.53 419.28 664.82 420.61 662.94 421.07 658.6 420.38 657.33 419.89 654 422.1 652.9 424.45 653.72 429.13 653.31 431.34 655.02 433.61 652.68 432.44 650.94 433.99 649.29 434.26 647.5 435.84 645.74 435.52 644.43 442.98 645.26 443.78 639.74 444.47 637.53 445.93 635.58 449.2 633.25 450.39 633.08 453.89 634.38 456.08 633.48 458 630.83 465.83 627.12 470.22 622.65 471.75 622.96 476.55 620.01 478.23 620.13 479.81 619.21 483.23 619.02 483.6 616.88 484.62 615.44 485.92 610.51 490.04 605.92 492.08 605.57 492.79 615.07 495.44 619.02 498.45 620.82 503.08 621.41 503.89 621.91 504.45 625.33 506.79 626.46 507.3 628.94 508.34 630.5 511 630.91 514.27 630.43 515.55 630.71 516.86 632.44 517.52 636.74 520.3 639.24 521.23 643.08 523.85 646.32 524.79 648.45 525.66 653.51 527.66 657.03 530.33 660.57 533.41 673.31 535.6 675.09 539.12 674.9 540.94 673.67 541.52 672.4 543.76 673.13 546.4 664.18 543.97 663.48 545.23 659.02 543.64 658.52 542.72 657.06 545.35 650.09 547.78 648.15 548.89 645.92 550.27 641.37 554.35 637.97 561.29 641.84 562.06 642.66 563.59 646.26 566.93 647.75 568.45 648.96 572.22 649.93 573.53 651.23 577.59 652.25 578.41 651.27 582.99 652.13 584.57 656.01 586.97 659.63 589.59 660.96 592.75 665.82 591.1 668.01 590.86 670.94 591.88 674.7 590.7 677.82 588.32 681.15 584.7 684.95 582.09 688.99 579.65 691.62 581.86 692.59 583.58 695.09 588.07 694.56 588.99 695.29 589.94 699.29 600.21 699.06 602.94 698.62 603.79 699.3 605.91 698.21 606.94 695.09 609.36 693.85 612.81 694.16 614.64 696.1 615 699.15 612.85 703.19 614.98 709.39 Z" id="36650320"/>
<path d="M 292.44 700.4 291.81 703.33 288.59 704.75 282.24 710.37 280.79 710.93 280.04 712.66 281.25 714.24 281.66 717.82 279.95 720.82 278.23 722.68 279.69 728.51 281.04 730.93 280.05 733.07 280.21 735.85 282.91 741.83 280.61 742.77 278.99 742.5 275.68 737.54 274.1 740.36 271.69 743.46 269.65 743.68 267.64 742.84 263.42 746.83 260.64 748.29 258.23 751.11 255.23 753.23 255.55 755.32 253.76 756.86 254.96 758.85 255.29 761.08 254.1 764.19 249.82 770.12 249.89 771.26 247.34 771.49 245.92 772.87 242.2 770.63 238.86 775.12 238.73 777.19 237.21 779.89 236.08 783.06 236.15 785.84 231.53 789.34 227.16 791.05 226.62 792.89 227.74 795.57 227.01 798.88 225.48 802.26 222.69 803.25 220.25 805.59 219.38 809.8 221.12 815.3 220.6 818.44 219.29 820.91 217.3 823.45 217.54 825.16 218.64 826.55 220.42 831.38 219.1 835.83 218.84 839 216.03 840 212.59 838.5 211.37 835.81 210.87 833.47 209.01 833.57 208.05 830.89 206.96 829.94 205.03 831.29 201.25 829.25 199.82 831.91 197.76 834.48 194.68 832.48 191.21 834.78 188.58 835.23 186.61 834.75 186.06 831.97 182.9 831.37 179.23 833.31 176.72 835.49 174.9 833.68 171.84 832.18 170.16 830.26 166.12 832.34 163.18 834.91 158.18 832.36 158.12 831.39 159.68 828.7 159.21 827.64 160.13 824.29 157.58 821.48 156.04 818.84 153.11 816.4 149.49 814.47 149.27 811.79 148.5 809.45 145.72 807 146.06 803.61 144.71 803.35 142.22 801.55 141.14 798.84 140.86 796.13 139.08 795.46 138.18 793.22 136.31 792.23 130.69 791.68 129.71 790.04 127.79 788.64 126.81 786.54 125.47 785.47 121.97 785.22 120.45 784.45 117.26 781.76 113.16 777.03 107.98 772.12 106.85 770.61 104.79 764.88 102.86 762.78 100.18 758.94 98.3 757.66 94.1 756.18 90.85 755.44 86.62 751.38 83.58 749.78 81.84 747.95 80.9 745.98 75.79 740.99 72.9 739.79 71.07 737.55 70.01 733.69 71.38 731.03 69.38 727.81 67.53 729.06 63.48 726.54 60.5 723.64 53.68 719.15 48.81 717.07 44.33 712.83 42.22 712.16 39.43 712.53 36.79 714.44 34.01 715.2 31.78 714.79 29.75 716.64 28.72 718.58 26.43 719.58 24.75 719.49 21.24 722.13 18.49 717.86 17.3 714.69 13.78 713.46 10.47 708.63 8.4 707.97 5.82 705.81 3.78 704.79 1 701.13 3.45 698 3.49 696.19 2.23 692.31 3.39 690.02 5.15 689.25 5.79 687.76 9.23 686.59 10.8 681.94 9.36 677.53 8.82 673.15 9.55 672.54 8.1 668.51 4.71 664.33 3.04 660.69 4.9 655.24 3.44 648.67 4.76 648.76 12.59 645.37 14.41 643.89 21.25 641.31 22.95 638.71 28.48 633.06 31.06 629.04 31.13 625.95 33.87 621.07 39.77 618.9 41.41 619.54 43.37 618.14 45.94 617.81 48.42 618.18 50.05 617.73 51.16 616.09 53.83 614.99 60.31 614.85 60.49 612.69 63.23 611.24 63.57 609.91 67.5 610.24 69.5 613.04 70.6 617.24 70.81 622.3 73.37 624.07 75.11 624.28 77.7 625.66 80.61 627.79 83.81 631.81 87.63 634.22 89.33 634.22 93.01 636.43 94.82 635.11 102.83 634.33 111.97 640.58 115.72 641.65 117.25 643.46 117.46 646.56 119.61 649.03 120.69 651.52 120.69 653.62 125.26 654.78 126.41 658.15 127.94 657.95 128.89 656.56 131.06 655.16 133.18 651.83 135.69 650.27 140.4 648.84 143.46 646.85 145.1 646.97 149.29 649.82 151.37 649.03 154.77 651.83 155.23 654.33 157.76 655.95 156.52 659.47 158.14 662.69 157.41 663.71 157.68 667.29 156.7 668.91 157.36 670.47 157.25 676.21 162.71 681.09 165.67 681.93 166.65 684.54 168.59 685.46 173.03 685.28 171.02 692.7 170.01 699.29 174.4 701.82 176.86 702.11 179.81 703.88 182 704.56 180.4 698.33 181.07 694.71 182.58 690.31 184.35 687.93 187.47 686.14 188.42 683.84 190.72 682.58 196.39 683.45 198.5 685.7 198.78 687.06 197.75 690.66 199.26 693.78 203.53 696.33 204.29 697.67 208.01 700.1 209.37 699.11 211.69 695.53 215.83 696.31 217.08 695.17 221.18 694.43 223.38 693.32 224.52 691.67 225.6 691.69 228.02 693.29 228.84 692.77 231.83 694.31 234.27 694.63 238.15 693.82 240.95 694.27 241.76 693.62 245.04 693.53 246.88 692.72 247.41 691.09 250.18 691.11 252.19 691.9 254.04 691.72 256.61 693.99 257.6 696.85 257.92 700.98 259.31 702.47 261.51 703.22 267.85 700.32 270.83 697.91 273.64 696.9 274.35 694.92 277.51 694.37 280.04 698.03 283.81 697.94 286.28 695.72 288.83 696.17 289.16 698.14 292.44 700.4 Z" id="36650340"/>
<path d="M 240.11 404.78 240.06 406.99 239.33 408.87 237.1 411.19 234.77 414.8 229.95 413 229.73 415.82 228.49 416.13 227.69 418.13 225.61 421.36 224.81 424.46 223.85 432.89 222.9 436.83 222.26 437.82 222.5 444.35 224.34 452.04 219.88 456.58 220.88 459.87 222.14 461.14 222.12 466.95 223.02 468.2 225.31 468.13 228.48 469.25 229.51 468.59 231.83 468.64 233.1 469.32 236.31 472.24 237.93 472.43 239.98 473.76 241.44 476.16 243.45 476.91 244.3 479.62 243.1 483.63 244.88 485.16 244.44 487.4 245.97 492.41 247.92 495.34 251.72 499.35 252.77 503.22 256.85 505.57 255.47 509.7 255.11 512.16 253.54 513.99 254.91 516.23 256.54 521.63 255.97 526.66 256.34 530.08 257.8 531.67 258.74 534.81 258.91 538.65 259.87 541.08 258.28 542.86 261.49 548.23 266.5 553.53 266.6 557.11 267.97 559.16 270.63 564.26 270.04 567.54 273.32 570.4 274.32 571.78 277.23 571.53 277.98 570.86 283.22 572.03 283.53 572.94 286.28 575.9 287.23 578.67 289.48 577.95 290.59 576.84 293.48 577.36 294.79 579.5 294.02 583.58 295 584.56 294.09 587.88 297.01 591.34 295.87 594.5 296.08 597.87 298.81 601.97 299.69 604.72 298.05 607.08 295.21 609.45 294.77 610.78 296.83 613.14 297.52 615.07 296.06 619.03 299.93 623.36 302.4 624.54 305.11 626.51 306.21 629.34 304.8 633.93 305.67 635.98 304.72 638.94 305.91 641.89 304.21 642.63 301.37 647.92 298.63 650.61 295.59 650.1 294.06 656.15 293.75 660.18 289.91 663.67 289.51 665.31 291.23 666.52 293.9 669.89 298.17 673.92 297.5 675.28 295.5 676.46 297.89 678.48 297.81 682.47 296.15 682.98 294.91 684.55 294.73 686.5 295.86 689.54 297.05 690.7 295.5 694.71 295.2 697.86 293.69 698.6 292.44 700.4 289.16 698.14 288.83 696.17 286.28 695.72 283.81 697.94 280.04 698.03 277.51 694.37 274.35 694.92 273.64 696.9 270.83 697.91 267.85 700.32 261.51 703.22 259.31 702.47 257.92 700.98 257.6 696.85 256.61 693.99 254.04 691.72 252.19 691.9 250.18 691.11 247.41 691.09 246.88 692.72 245.04 693.53 241.76 693.62 240.95 694.27 238.15 693.82 234.27 694.63 231.83 694.31 228.84 692.77 228.02 693.29 225.6 691.69 224.52 691.67 223.38 693.32 221.18 694.43 217.08 695.17 215.83 696.31 211.69 695.53 209.37 699.11 208.01 700.1 204.29 697.67 203.53 696.33 199.26 693.78 197.75 690.66 198.78 687.06 198.5 685.7 196.39 683.45 190.72 682.58 188.42 683.84 187.47 686.14 184.35 687.93 182.58 690.31 181.07 694.71 180.4 698.33 182 704.56 179.81 703.88 176.86 702.11 174.4 701.82 170.01 699.29 171.02 692.7 173.03 685.28 168.59 685.46 166.65 684.54 165.67 681.93 162.71 681.09 157.25 676.21 157.36 670.47 156.7 668.91 157.68 667.29 157.41 663.71 158.14 662.69 156.52 659.47 157.76 655.95 155.23 654.33 154.77 651.83 151.37 649.03 149.29 649.82 145.1 646.97 143.46 646.85 140.4 648.84 135.69 650.27 133.18 651.83 131.06 655.16 128.89 656.56 127.94 657.95 126.41 658.15 125.26 654.78 120.69 653.62 120.69 651.52 119.61 649.03 117.46 646.56 117.25 643.46 115.72 641.65 111.97 640.58 102.83 634.33 94.82 635.11 93.01 636.43 89.33 634.22 87.63 634.22 83.81 631.81 80.61 627.79 77.7 625.66 75.11 624.28 73.37 624.07 70.81 622.3 70.6 617.24 69.5 613.04 67.5 610.24 63.57 609.91 63.84 607.48 66.77 602.22 67.44 599.17 68.48 597.9 70.87 596.98 72.54 594.6 75.1 589.86 76.97 589.5 75.23 586.81 73.46 581.17 73.56 578.52 73 576.76 73.84 574.53 73.39 572.22 74.01 570.61 74.56 562.71 77.94 557.93 80.19 557.32 79.66 553.24 82 548.98 83.46 547.12 80.82 546.27 77.46 543.12 76.65 539.45 70.21 537.18 69.07 537.54 66.56 536.12 66.37 530.27 67.14 528.51 69.63 526.64 75.24 523.89 77.58 523.5 78.77 520 81.73 517.8 82.99 516.2 88.71 516.08 90.44 517.07 92.05 521.3 93.78 523.52 97.19 522.53 99.3 522.73 104.89 521.66 107.51 523.53 113.82 522.75 123.4 513.76 125.33 511.3 130.28 507.86 132.91 505.1 133.25 504.01 131.83 498.86 130.87 497.89 130.82 495.81 134.26 492.52 134.52 490.47 135.61 488.9 137.22 484.85 135.09 482.71 133.13 481.58 135.48 479.76 139.54 478.69 144.45 474.52 144.8 473.81 145.83 469.56 149.11 464.85 149.97 460.93 148.88 457.89 146.36 454.84 143.66 452.74 145.85 451.81 147.4 450.3 150.11 449.2 152.83 450.53 154.63 450.29 158.53 453.33 160.97 453.89 166.02 448.35 170.43 439.39 171.28 436.74 174.9 431.77 179.33 432.05 177.67 427.73 178.41 426.38 179.3 422.04 178.28 419.79 180.39 417.48 182.07 416.86 182.46 412.87 180.75 410.24 180.53 404.57 184.5 401.09 190.6 400.45 191.15 397.26 190.33 393.55 194.7 386.49 195.49 384.07 202.19 384.07 205.04 385.94 211.62 389.55 214.94 392.3 217.37 392.05 221.71 393.94 223.54 393.01 228.41 395.86 232.2 396.55 233.49 400.03 237.27 402.13 240.11 404.78 Z" id="36650350"/>
<path d="M 470.22 622.65 465.83 627.12 458 630.83 456.08 633.48 453.89 634.38 450.39 633.08 449.2 633.25 445.93 635.58 444.47 637.53 443.78 639.74 442.98 645.26 435.52 644.43 435.84 645.74 434.26 647.5 433.99 649.29 432.44 650.94 433.61 652.68 431.34 655.02 429.13 653.31 424.45 653.72 422.1 652.9 419.89 654 414.78 648.24 412.71 647.79 409.67 648.69 407.16 648.73 404.81 650.86 403.02 651.79 400.52 654.12 395.04 652.96 390.01 654.22 389.58 655.18 387.5 655.71 386.39 660.28 385.01 662.95 378.98 665.87 377.41 665.52 374.77 667.52 373.39 667.88 371.5 666.3 369.6 670.07 366.5 669.05 364.26 667.56 362.34 667.17 361.08 664.95 359.07 664.15 358.44 661.44 359.47 656.84 360.45 657.07 361.77 652.27 364.17 650.59 365.2 649.2 365.11 647.23 360.28 644.7 360.58 642.77 362.55 640.97 358.85 637.38 357.3 637.47 356.8 635.86 357.94 631.47 360.44 628.54 361.1 627.09 363.88 625.5 364.94 623.38 365.33 620.75 364.3 616.65 365.62 615.19 367.89 614.58 369.39 611.94 371.8 608.74 374.16 606.4 371.37 602.31 369.65 601.3 373.22 597.52 375.93 594.15 376.94 590.13 380.5 588.14 379.87 586.28 381.34 583.43 381.32 581.52 380.38 579.99 377.82 578.83 376.95 576.54 377.99 571.86 379.1 570.33 377.92 568.89 375.57 568.98 373.7 567.1 375.82 563.77 378.9 562.27 385.44 561.59 386.83 559.5 386.05 557.61 386.62 553.22 384.78 547.33 382.31 544.29 380.35 540.83 377.82 539.53 377.52 537.54 375.55 535.79 372.78 534.57 371.14 533.03 370.18 529.96 368.67 528.07 367.38 528.62 364.43 527.26 360.25 526.74 359 528.07 355.96 530.08 353.8 530.39 350.81 529.5 348.43 530.77 345.77 531.31 344.4 532.42 344.7 536.7 341.69 538.19 338.97 537.49 334.6 537.82 330.18 537.1 328.75 532.85 326.27 529.96 325.78 527.01 324.21 526.91 322.28 525.49 321.3 522.93 318.53 521.14 312.45 519.81 310.5 518.78 307.84 518.72 304.51 517.8 303.52 516.29 300.11 514.11 299.1 514.39 296.6 513.4 293.65 513.09 292.58 511.63 290.82 512.15 288.43 510.99 285.9 512.02 283.83 511.3 280.01 509 276.46 508.23 273.78 508.52 268.29 508.17 263.53 505.65 260.87 503.18 260.41 504.44 256.85 505.57 252.77 503.22 251.72 499.35 247.92 495.34 245.97 492.41 244.44 487.4 244.88 485.16 243.1 483.63 244.3 479.62 243.45 476.91 241.44 476.16 239.98 473.76 237.93 472.43 236.31 472.24 233.1 469.32 231.83 468.64 229.51 468.59 228.48 469.25 225.31 468.13 223.02 468.2 222.12 466.95 222.14 461.14 220.88 459.87 219.88 456.58 224.34 452.04 222.5 444.35 222.26 437.82 222.9 436.83 223.85 432.89 224.81 424.46 225.61 421.36 227.69 418.13 228.49 416.13 229.73 415.82 229.95 413 234.77 414.8 237.1 411.19 239.33 408.87 240.06 406.99 240.11 404.78 240.49 402.83 243.21 396.69 244.34 395 247.93 391.87 252.12 389.29 252.71 386.06 254.33 384.42 257.45 384.84 265.95 389.48 268.14 388.97 271.84 389.7 272.41 385.94 275.23 381.43 275.81 375.57 277.55 374.14 277.91 370.36 279.73 367.85 279.85 364.36 281.37 358.73 281.5 355.86 282.48 350.52 284.16 345.66 288.07 347.2 290.17 346.24 291.82 346.75 295.33 345.23 295.5 347.71 298.57 348.35 302.39 348.02 303.57 346.6 306.62 346.21 307.86 346.92 312.5 347.18 315.25 346.37 318.38 346.17 317.98 350.74 317.33 354.06 316.41 355.81 316.66 358.37 314.4 361.22 310.46 363.95 308.45 363.43 305.13 364.67 304.65 367.5 305.57 369.83 305.64 373.75 306.42 377.46 305.18 379.58 304.9 382.07 309.27 385.56 310.34 388.36 310.3 390.34 312.78 393.64 313.01 397.14 313.6 398.82 313.34 403.87 312.27 404.79 313.94 408.56 318.68 407.67 321.09 408.36 324.59 407.59 324.98 408.14 331.34 408.05 334.18 408.99 333.15 413 334.1 414.61 333.6 417.97 333.84 422.53 332.63 425.4 334.1 427.5 337.55 426.47 340.25 428.15 340.02 429.53 341.04 432.79 342.17 434.22 342.53 437.2 343.83 438.08 346.8 438.35 347.71 442.69 348.41 443.35 348.09 445.93 348.68 448.66 350.71 451.84 353.18 452.99 354.42 454.88 355.39 454.91 359.59 453.33 360.24 451.22 362.71 449.07 363.93 446.77 371.29 443.95 371.71 446.66 372.72 448.16 373.6 453.01 375.12 457.55 374.91 458.11 376.79 462.3 376.56 463.64 379.92 468.83 378.94 472.8 380.22 474.66 379.94 476.39 380.07 482.34 382.77 486.1 385.95 491.67 385.96 494.25 388.98 495.59 390.43 492.35 392.93 491.71 397.43 493.43 399.04 496.92 402.22 494.65 406.19 496.08 406.7 497.9 409.15 499.38 412.6 499.31 414.83 500.61 416.38 500.19 416.56 503.97 419.08 504.97 420.81 505.03 423.47 507.09 426.02 507.4 426.03 508.88 423.67 513.05 425.46 514.8 423.61 516.95 424.66 519.66 424.88 522.24 423.22 524.8 426.29 527.69 427.03 531.07 428.43 533.18 430.76 534.25 432.05 533.8 433.94 534.52 436.8 533.18 438.65 534.75 441.81 536.29 443.56 540.64 443.58 543.39 444.46 547.62 443.25 552.61 445.03 553.67 446 557.56 448.23 556.29 451.67 556.31 455.1 557.91 459.79 560.91 460.33 563.23 464.03 563.86 463.76 569.1 461.69 571.7 461.37 574.86 459 576.84 462.78 582.17 467.04 582.76 470.59 589.85 472.22 591.35 470.99 593.71 470.85 595.65 469.67 598.6 465.81 602.22 464.35 605.59 461.16 607.29 461.97 610.88 461.86 613.83 462.66 615.46 464.12 615.83 466.08 619.09 470.22 622.65 Z" id="36650360"/>
<path d="M 486.58 381.36 486.8 383.82 486.03 387.54 485.87 393.03 483.64 393 482.81 397.02 479.03 396.1 476.48 393.24 472.9 390.35 470.3 391 462.05 390.37 459.86 388.89 456.6 388.31 455.4 390.96 453.34 393.59 450.87 393.69 449.61 394.67 447.05 394.04 446.2 391.14 446.43 389.87 442.51 389.2 440.3 391.39 436.82 393.31 434.3 395.48 433.13 398.44 433.12 402.82 431.13 411.23 430.68 415.19 434.29 420.74 437.63 427.49 439.83 431.2 442.47 432.58 443.4 433.94 445.89 441.18 448.15 445.24 454.09 451.4 456.2 454.44 457.02 457.1 458.01 457.86 460.91 457.98 462.81 458.85 463.14 461 459.73 465.17 456.26 467.49 450.62 472.96 449.78 474.59 449.6 477.51 448.79 482.05 447.59 485.19 444.81 487.52 443.99 490.14 444.09 492.29 445.37 497.1 444.19 500.41 444.16 505.75 446.02 508.2 445.95 510.18 442.5 509.98 441.94 506.7 440.16 507.04 439.34 506.05 436.58 505.5 435.26 503.29 430.7 504.95 427.76 503.17 426.15 504.63 426.02 507.4 423.47 507.09 420.81 505.03 419.08 504.97 416.56 503.97 416.38 500.19 414.83 500.61 412.6 499.31 409.15 499.38 406.7 497.9 406.19 496.08 402.22 494.65 399.04 496.92 397.43 493.43 392.93 491.71 390.43 492.35 388.98 495.59 385.96 494.25 385.95 491.67 382.77 486.1 380.07 482.34 379.94 476.39 380.22 474.66 378.94 472.8 379.92 468.83 376.56 463.64 376.79 462.3 374.91 458.11 375.12 457.55 373.6 453.01 372.72 448.16 371.71 446.66 371.29 443.95 363.93 446.77 362.71 449.07 360.24 451.22 359.59 453.33 355.39 454.91 354.42 454.88 353.18 452.99 350.71 451.84 348.68 448.66 348.09 445.93 348.41 443.35 347.71 442.69 346.8 438.35 343.83 438.08 342.53 437.2 342.17 434.22 341.04 432.79 340.02 429.53 340.25 428.15 337.55 426.47 334.1 427.5 332.63 425.4 333.84 422.53 333.6 417.97 334.1 414.61 333.15 413 334.18 408.99 331.34 408.05 324.98 408.14 324.59 407.59 321.09 408.36 318.68 407.67 313.94 408.56 312.27 404.79 313.34 403.87 313.6 398.82 313.01 397.14 312.78 393.64 310.3 390.34 310.34 388.36 309.27 385.56 304.9 382.07 305.18 379.58 306.42 377.46 305.64 373.75 305.57 369.83 304.65 367.5 305.13 364.67 308.45 363.43 310.46 363.95 314.4 361.22 316.66 358.37 316.41 355.81 317.33 354.06 317.98 350.74 318.38 346.17 320.61 343.47 322.16 343.47 324.34 341.35 325.7 340.88 328.08 336.5 330.87 333.99 331.37 332.41 335.19 328.69 335.98 324.44 336.96 323.66 337.98 320.99 340.52 318.02 341.79 317.6 344.16 315.28 346.12 312.52 346.55 310.39 345.84 309.29 346.8 307.73 346.03 302.93 346.13 300.7 349.63 300.65 351.99 299.36 354.63 300.87 358.04 301.29 361.26 300.1 364.87 296.88 366.07 294.25 369.14 292.88 369.96 291.69 372.29 293.47 380.47 293.19 381.75 292.22 382.23 290.3 384.84 287.31 390.08 288.38 394.51 288.04 396.77 285.84 399.65 285.73 402.49 284.82 404.32 285.3 405.76 288.17 407.73 290.32 410.84 290.96 413.45 293.16 416.35 293.5 416.75 294.35 419.29 295.76 418.4 298.27 419.18 301.27 423.28 303.01 426.31 306.99 427.61 306.88 429.75 305.07 431.17 306.17 435.44 304.04 439.19 304.7 441.09 306.81 439.44 307.54 438.34 309.48 437.94 315.37 437.15 317.23 437.37 320.19 435.94 323.72 436.18 327.79 434.68 331.35 435.65 332.39 435.57 334.5 434.74 335.52 434.47 337.97 437.1 340.1 440.48 339.72 446.16 341.23 449.66 340.31 452.34 342.65 452.62 343.76 456.93 347.98 457.02 349.38 458.51 351.72 461.52 351.96 463.52 355.85 465.22 358.17 466.62 361.75 470.23 366.13 472.49 367.77 469.38 372.72 469.41 375.57 470.5 377.8 474.34 380.4 477.53 381.47 479.02 381.03 480.16 379.15 481.27 378.92 484.35 381.87 486.58 381.36 Z" id="36650370"/>
<path d="M 558.09 281.03 553.76 281.48 551.89 282.95 548.95 287.6 546.76 289.62 546.83 294.13 545.53 297.41 543.44 301.11 542.11 307.53 544.78 311.89 541.96 315.51 541.47 316.89 538.74 321.09 537.82 324.86 537.26 332.04 537.66 336.02 535.64 335.94 530.8 338.68 530.26 340.15 528.45 339.63 525.96 341.44 525.33 343.23 524.07 343.92 521.75 349 522.08 351.4 522.99 353.05 521.39 355.33 520.7 358.23 518.34 361.2 518.75 362.99 517.82 368.63 516.17 369.31 514.91 372.71 511.82 374.31 510.74 378.74 509.6 380.38 505.45 380.12 503.28 380.36 501.6 382.54 497.76 386.28 497.13 387.36 494.76 386.91 493.51 385.34 489.09 383.42 486.58 381.36 484.35 381.87 481.27 378.92 480.16 379.15 479.02 381.03 477.53 381.47 474.34 380.4 470.5 377.8 469.41 375.57 469.38 372.72 472.49 367.77 470.23 366.13 466.62 361.75 465.22 358.17 463.52 355.85 461.52 351.96 458.51 351.72 457.02 349.38 456.93 347.98 452.62 343.76 452.34 342.65 449.66 340.31 446.16 341.23 440.48 339.72 437.1 340.1 434.47 337.97 434.74 335.52 435.57 334.5 435.65 332.39 434.68 331.35 436.18 327.79 435.94 323.72 437.37 320.19 437.15 317.23 437.94 315.37 438.34 309.48 439.44 307.54 441.09 306.81 439.19 304.7 435.44 304.04 431.17 306.17 429.75 305.07 427.61 306.88 426.31 306.99 423.28 303.01 419.18 301.27 418.4 298.27 419.29 295.76 416.75 294.35 416.35 293.5 413.45 293.16 410.84 290.96 407.73 290.32 405.76 288.17 404.32 285.3 402.49 284.82 399.65 285.73 396.77 285.84 394.51 288.04 390.08 288.38 384.84 287.31 382.23 290.3 381.75 292.22 380.47 293.19 372.29 293.47 369.96 291.69 369.14 292.88 366.07 294.25 364.87 296.88 361.26 300.1 358.04 301.29 354.63 300.87 351.99 299.36 349.63 300.65 346.13 300.7 346.81 299.6 346.97 296.75 348.32 294.65 347.64 288.51 346.29 284.7 346.14 280.95 345.13 279 342.75 277.79 343.82 275.19 343.17 269.94 343.3 267.47 342.39 266.46 342.48 262.24 341.47 261.71 336.1 256.55 334.64 254.63 329.76 255.49 327.3 254.04 325.1 251.85 325.29 249.07 325.89 247.1 329.55 245.16 332.62 244.44 338.29 245.17 339.94 243.49 343.52 243.21 346.43 242.5 348.13 239.59 352.7 238.44 354.59 238.46 357.8 237.33 359.19 237.38 361.3 235.94 359.77 234.35 359.63 231.9 361.27 230.03 363.39 228.71 365.73 228.26 370.08 224.82 370.62 223.06 377.12 222.23 377.01 221.05 378.51 219.04 379.12 217.01 381.26 214.6 383.02 211.39 384.36 206.97 386.85 202.87 389.58 200.97 391.8 200.86 395.32 199.79 399.66 200.31 398.74 202.03 399.38 204.95 402.42 209.92 406.03 214.19 408.05 213.81 414.16 217.12 417.22 217.39 416.6 221.12 417.37 222.81 418.02 227.36 419.94 229.61 421.55 227.5 424.97 225.09 428.77 226.19 430.99 223.96 433.07 221.01 435.04 220.08 436.63 220.98 441.05 221.44 443.82 223.6 447.83 225.86 449.25 225.37 451.22 226.18 454.84 224.82 456.23 223.67 459.28 222.93 462.88 225.68 465.04 224.57 468.38 225 470.7 228.79 472 229.8 472.71 231.7 475.02 234.11 476.16 234.36 477.34 238.08 478.82 239.56 479.87 243.36 483.43 246.03 486.62 245.93 487.13 245.29 495.37 246.56 497.23 248.01 498.54 247.02 503.56 250.44 504.91 253.91 507.67 254.74 508.11 255.98 513.53 257.87 512.88 261.78 514.13 263.13 515.21 265.5 516.35 266.18 519.65 264.24 520.86 264.32 524.02 262.81 525.74 260.8 525.83 257.93 523.87 252.56 524.09 246.53 524.97 240.71 530.36 243.58 533.26 246.09 538.63 247.17 538.57 250.53 539.53 251.86 540.2 255.26 539.15 257.84 540.91 260.88 540.2 262.21 540.03 265.71 542.58 268.71 546.86 270.85 548.7 272.34 550.63 275.5 554.08 277.1 558.86 277.04 558.09 281.03 Z" id="36650380"/>
<path d="M 538.64 52.33 541.84 57.1 542.36 58.82 548.18 66.46 549.14 70.32 550.93 72.23 552.96 72.29 555.02 73.91 557.81 74.66 559.32 77.04 564.39 80.65 570.88 87.93 571.35 91.44 573.88 95.74 576.62 95.96 576.91 99.64 578.68 105.35 579.51 105.94 582.54 114.07 583.61 120.6 581.86 127.34 582.04 133.2 585 138.5 586.29 138.93 588.25 141.96 589.74 146.08 588.42 151.79 588.81 153.44 590.38 155.08 590.51 161.18 589.69 164.94 587.53 165.83 590.96 169.38 591.98 171.48 597.31 173.88 598.58 175.13 597.67 178.29 593.84 181.09 593.34 185.2 592.27 187.16 593.05 189.9 593.39 193.79 595.29 196.16 593.18 196.5 589.68 198.85 588.8 201.62 586.38 206.06 586.24 209.64 589.03 210.45 591.83 216.07 593.94 216.71 594.13 223.2 593.67 224.1 594.65 228.3 596.55 231.48 595.64 232.64 594.67 238.79 594.58 241.54 590.39 250.16 590.1 252.65 590.99 254.71 589.67 255.8 588.83 259.42 588.12 260.63 588.25 263.05 589.42 265.02 592.99 264.87 596.43 268.53 598.31 268.45 599.59 271.1 600.27 274.47 602.03 273.38 605.71 273.28 606.72 274.39 604.34 275.58 602.39 277.94 599.32 278.68 597.59 280.65 596.98 285.26 595.19 286.44 594.88 288.86 592.17 291.25 589.7 294.87 588.66 293.44 586.23 296.39 585.36 294.77 582.92 294.34 580.04 297.21 579.48 299.12 576.25 298.73 574.98 299.71 570.42 300.22 567.65 296.59 566.92 292.57 565.83 289.78 565.77 286 564.68 284.07 558.09 281.03 558.86 277.04 554.08 277.1 550.63 275.5 548.7 272.34 546.86 270.85 542.58 268.71 540.03 265.71 540.2 262.21 540.91 260.88 539.15 257.84 540.2 255.26 539.53 251.86 538.57 250.53 538.63 247.17 533.26 246.09 530.36 243.58 524.97 240.71 524.09 246.53 523.87 252.56 525.83 257.93 525.74 260.8 524.02 262.81 520.86 264.32 519.65 264.24 516.35 266.18 515.21 265.5 514.13 263.13 512.88 261.78 513.53 257.87 508.11 255.98 507.67 254.74 504.91 253.91 503.56 250.44 498.54 247.02 497.23 248.01 495.37 246.56 487.13 245.29 486.62 245.93 483.43 246.03 479.87 243.36 478.82 239.56 477.34 238.08 476.16 234.36 475.02 234.11 472.71 231.7 472 229.8 470.7 228.79 468.38 225 465.04 224.57 462.88 225.68 459.28 222.93 456.23 223.67 454.84 224.82 451.22 226.18 449.25 225.37 447.83 225.86 443.82 223.6 441.05 221.44 436.63 220.98 435.04 220.08 433.07 221.01 430.99 223.96 428.77 226.19 424.97 225.09 421.55 227.5 419.94 229.61 418.02 227.36 417.37 222.81 416.6 221.12 417.22 217.39 414.16 217.12 408.05 213.81 406.03 214.19 402.42 209.92 399.38 204.95 398.74 202.03 399.66 200.31 399.45 196.11 398.69 193.36 400.45 192.58 399.99 190.73 396.75 187.98 393.45 182.56 393.61 178.01 394.45 175.25 393.93 172.49 394.51 169.62 395.66 168.06 395.2 165.5 396.2 163.48 394.12 158.81 392.74 154.85 393.2 150.95 392.52 149.64 394.41 147.64 393.39 144.39 388.55 136.14 385.87 133.86 383.49 132.56 375.74 131.69 375.25 130.13 371.81 125.53 371.19 122.43 368.73 116.53 367.94 116.22 364.65 111.16 362.16 109.53 361.83 107.65 361.65 106.67 364.13 103.83 369.32 96.81 372.79 98.25 377.23 101.97 378.87 101.77 385.69 103.64 389 101.48 389.76 100.13 393.02 97.09 395.91 93.32 399.55 90.47 403.18 88.98 402.58 87.59 403.05 85.18 404.41 81.68 405.25 77.88 407.08 72.65 408.27 70.51 412.26 67.79 416.52 64.22 420.31 59.2 424.02 58.09 424.83 57.02 428.99 56.77 430.39 57.41 432.18 56.76 438.81 56.64 441.43 55.8 442.74 54.68 446.1 53.1 453.9 50.94 459.02 50.22 461.66 48.91 464.27 46.99 468.38 48.4 471.39 50.06 473.96 52.5 476.58 53.18 480.62 53.53 485.33 55.22 488.49 55.53 492.47 54.21 493.12 53.43 496.2 52.67 499.61 53.93 502.48 54.26 506.99 54.05 510.72 52.83 514.72 54.66 519.84 54.2 525.15 54.15 531.15 52.47 538.64 52.33 Z" id="36650390"/>
<path d="M 564.35 2.45 565.99 2.75 568.72 1.83 570.92 2.81 572.12 4.47 572.88 9.87 575.54 13 576.98 18.37 579.95 19.93 588.01 22.04 592.04 22.08 595.49 22.6 598.3 22.4 605.66 23.66 606.33 25.09 606.16 31.56 604.28 33.76 601.72 44.93 601.54 47.88 600.32 49.89 599.58 52.8 601.59 54.05 602.85 57.64 599.6 59.54 597.18 62.13 594.15 64.54 595.91 69.03 597.8 70.72 599.04 71 602.61 69.65 603.82 67.26 604.95 66.33 606.96 66.45 608.81 65.33 616.15 64.67 617.8 63.1 622.91 61.18 624.81 61.16 628.92 62.65 631.22 62.94 632.76 64.4 639.51 66.06 642.75 70.66 645.75 71.46 648.19 71.33 652.87 74.04 658.72 72.76 666 73.41 668.77 73.24 670.28 74.78 673.89 76.88 677.4 77.76 679.77 79.2 681.3 81.61 682.08 85.06 683.57 86.49 688.14 88.96 691.53 88.47 694.27 89.11 695.01 91.06 697.7 93.08 697.48 96.63 698.39 99.18 701.31 102.16 705.12 103.07 707.58 104.53 720.83 107.05 723.46 109.06 730.61 111.62 730.36 114.12 731.16 117.08 733.14 117.88 735.28 120.03 735.58 122.37 736.68 123.75 737.24 126.62 739.25 128.25 743.48 129.23 745.72 130.73 749.93 131.97 741.22 139.17 739.75 142.46 738.5 143.83 733.6 145.48 732.2 148.68 732.51 154.26 739.05 160.04 741.28 161.35 748.05 163.5 747.17 165.91 747.43 168.31 744.62 170.09 743.93 171.45 744.03 177.72 742.68 180.22 742.36 182.44 743.67 185.04 745.13 189.22 749.44 189.84 753.49 189.82 755.13 190.36 758.26 193.5 758.75 195.94 757.14 201.57 758.47 204.01 761.06 204.38 763.56 205.35 766.09 204.12 767.49 204.47 770.74 202.82 773.14 202.18 775.47 202.8 776.91 205.51 777.03 208.27 778.71 211 782.61 213.24 784.31 215.85 786.2 216.94 783.86 219.54 782.01 222.72 780.32 226.52 779.44 229.83 777.03 232.23 776.51 233.77 777.86 235.87 777.73 238.48 778.4 241.67 781.43 242.56 783.1 242.23 788.25 246.04 790.15 246.41 793.19 248.94 795.06 249.57 796.19 251.35 796.3 254.26 797.49 256.68 796.62 259.92 796.94 262.51 795.45 264.11 795.37 265.33 793.93 267.55 794.51 269.85 794.23 276.01 795.93 280.58 796.22 285.67 797.38 287.68 798.94 288.24 799 291.02 796.19 292.89 794.36 295.59 794.87 302.59 793.32 306.08 791.33 305.24 787.69 302.45 787.27 298.1 785.67 295.86 784.27 295.17 781.8 292.11 777.71 289.53 775.91 288.87 775.32 287.41 772.91 285 771.89 286.44 770.85 289.42 770.66 292.11 771.25 293.87 770.02 295.26 769.22 297.56 767.48 298.03 765.66 300.04 763.19 299.87 760.4 300.27 757.54 302.14 755.99 303.85 754.71 303.92 753.66 305.57 749.52 308.82 748.34 310.59 744.54 310.66 743.75 319.04 744.92 323.34 742.44 324.83 739.29 325.68 736.22 327.52 734.16 327.37 733.02 329.42 732.32 332.06 730.92 334.85 728.63 337.18 727.26 340.49 727.69 343.8 723.17 344.93 718.21 347.42 715.25 347.37 714.13 347.99 711.05 346.74 707.65 346.69 706.24 348.39 706.36 349.84 704.39 351.07 703.36 353.36 701.1 355.05 702.59 358.03 700.53 363.77 698.58 366.05 700.28 368.83 700.64 371.21 698.72 374.96 698.79 378.28 699.8 381.56 698.3 386.85 693.86 386.7 692.65 384.87 689 382.76 688.73 390.36 687.75 395.97 686.98 397.89 685.3 399.16 685.34 401.74 683.3 403.49 683.28 408.1 681.56 410.99 682.48 413.53 686.9 415.94 689.62 418.16 689.68 422.2 690.63 423.72 693.73 426.19 693.71 429.04 694.38 431.05 696.58 434.25 698.87 436.84 702.31 443.89 703.98 445.59 704.54 448.87 706.87 452.19 709.3 457.4 706.78 458.93 702.79 463 700.13 464.57 699.2 465.73 692.05 470.42 689.57 469.03 686.34 466.22 683.34 466.97 680.57 466.7 678.27 465.7 675.65 467.18 670.97 465.92 666.25 466.43 661.49 467.51 657.95 467.89 655.29 467.42 651.25 467.52 647.54 471.69 639 467.44 635.15 446.91 634.06 438.71 630.38 437.53 631.55 435.25 631.59 431.4 632.65 429.29 631.38 427.56 630.76 418.51 630.95 416.04 630.23 411.18 631.32 407.1 632.42 406.9 634.65 400.93 635.14 395.66 638.48 392.37 638.94 389.67 638.61 385.88 636.93 382.44 638.14 380.83 638.14 379.14 640.62 377.05 642.33 373.59 640.62 371.32 639.61 368.71 637.88 362.55 633.76 358.07 629.22 354.18 627.45 353.73 626.41 355.64 624.63 356.55 622.34 355.86 619.99 354.42 617.3 354.65 616.08 350.29 613.52 349.57 610.61 346.35 608.18 344.65 607.4 337.65 605.37 335.12 604.94 331.77 607.66 328.28 610.03 326.78 613.68 322.86 613.8 319.78 614.72 317.13 614.57 314.04 615.31 309.79 615.53 304.28 616.5 302.87 614.94 301.45 609.01 298.37 605.24 297.94 607.02 283.56 607.69 281.08 606.94 277.61 607.46 274.69 606.72 274.39 605.71 273.28 602.03 273.38 600.27 274.47 599.59 271.1 598.31 268.45 596.43 268.53 592.99 264.87 589.42 265.02 588.25 263.05 588.12 260.63 588.83 259.42 589.67 255.8 590.99 254.71 590.1 252.65 590.39 250.16 594.58 241.54 594.67 238.79 595.64 232.64 596.55 231.48 594.65 228.3 593.67 224.1 594.13 223.2 593.94 216.71 591.83 216.07 589.03 210.45 586.24 209.64 586.38 206.06 588.8 201.62 589.68 198.85 593.18 196.5 595.29 196.16 593.39 193.79 593.05 189.9 592.27 187.16 593.34 185.2 593.84 181.09 597.67 178.29 598.58 175.13 597.31 173.88 591.98 171.48 590.96 169.38 587.53 165.83 589.69 164.94 590.51 161.18 590.38 155.08 588.81 153.44 588.42 151.79 589.74 146.08 588.25 141.96 586.29 138.93 585 138.5 582.04 133.2 581.86 127.34 583.61 120.6 582.54 114.07 579.51 105.94 578.68 105.35 576.91 99.64 576.62 95.96 573.88 95.74 571.35 91.44 570.88 87.93 564.39 80.65 559.32 77.04 557.81 74.66 555.02 73.91 552.96 72.29 550.93 72.23 549.14 70.32 548.18 66.46 542.36 58.82 541.84 57.1 538.64 52.33 539.84 49.11 539.07 42.67 540.2 41.44 540.5 39.52 541.81 38.28 538.14 34.27 536.05 31.51 537.17 26.83 538.27 24.82 537.71 22.37 537.92 19.16 540.04 14.12 538.51 8.68 540.24 6.98 544.17 6.75 547.17 4.7 547.89 3.3 550.9 2.26 553.2 4.04 556.4 4.31 558.98 3.2 560.46 1 562.25 1.15 564.35 2.45 Z" id="36650400"/>
</g>
</svg>