<?xml version="1.0"?>
<svg xmlns="http://www.w3.org/2000/svg" version="1.2" baseProfile="tiny" width="800" height="577" viewBox="0 0 800 577" stroke-linecap="round" stroke-linejoin="round">
<g id="dong">
<path d="M 366.56 169.13 365.86 168.03 366.14 167.59 367.28 167.57 367.42 168.21 366.56 169.13 Z M 347.66 116.24 348.73 116.05 349.29 116.6 349.66 117.81 349.72 119.87 348.7 120.38 347.47 120.41 346.33 120.14 345.56 119.26 346.23 118.75 346.76 117.85 346.9 116.79 347.66 116.24 Z M 340.9 95.34 341.19 96.35 342.72 98.07 342.66 98.76 342.91 100.27 341.89 100.5 341.87 101.38 342.45 102.22 343.25 102.68 343.28 103.21 343.85 103.61 343.8 104.46 343.43 104.94 343.63 105.68 343.32 106.96 343.47 107.62 343.98 107.84 344.52 108.59 344.12 110.98 343.25 110.85 341.98 111.27 342.21 113.15 341.86 114.49 341.24 115.19 341.17 116 343.25 118.14 344.41 118.72 343.45 119.62 342.42 121.1 342.32 122.92 342.77 123.79 342.44 124.4 342.72 125.75 342.9 127.79 343.71 127.49 344.23 128.11 345.81 128.64 347.73 130.47 348.67 130.68 349.24 131.97 348.97 132.22 349.19 133.4 348.47 134.81 348.4 136.76 346.73 137.69 351.53 145.54 351.94 145.71 353.08 145.41 353.26 145.05 354.21 145.02 354.87 145.97 354.46 146.8 354.69 147.95 354.61 149.15 353.74 149.73 352.24 149.8 352.13 150.83 353.53 151.85 354.16 152.03 354.56 151.01 356 151.06 356.81 151.91 356.78 152.42 356.19 153.6 356.29 154.71 357.28 155.35 357.79 155.34 360.13 155.88 360.8 156.74 363.72 157.97 363.67 158.14 361.2 157.1 359.14 160.47 358.96 162.67 361.74 166.59 363.56 167.49 363.39 167.82 364.85 168.52 364.6 169.5 365.99 170.41 368.03 170.17 369.69 169.65 369.39 168.79 372.08 167.78 371.97 167.43 373.87 166.72 376.3 166.71 376.32 167.64 378.54 168.25 378.54 169.75 379.48 170.75 379.48 171.28 380.29 173.16 380.96 173.48 382.24 173.6 382.33 174.16 381.81 174.83 380.9 174.68 380.81 175.82 379.89 177.06 379.41 177.38 379.24 178.18 378.2 178.79 377.84 179.99 376.67 181.74 377.34 181.77 377.53 182.53 376.19 183.04 375.4 183.68 374.83 183.42 372.94 183.26 372.49 183.77 372.46 184.59 371.74 185.38 371.68 186.63 371.87 187.78 372.53 188.71 372.31 189.21 373.28 190.74 374.2 190.28 376.05 190.32 376.82 189.89 377.69 190.49 378.15 191.63 377.78 192.18 377.85 192.86 378.49 193.49 379.39 193.78 380.32 193.75 381.71 194.21 382.19 194.64 382.46 196.8 382.42 197.71 383.93 199.11 384.77 199.43 385.46 200.11 385.6 200.83 386.56 201.73 387.28 201.94 387.38 202.5 384.68 202.03 384.55 202.32 382.9 202.3 380.88 203.29 379.02 202.94 378.62 202.54 378.96 201.7 378.51 201.08 378.33 200.24 378.51 199.58 377.42 199.29 376.25 198.39 374.6 197.9 374.35 197.59 372.15 197.1 371.38 197.13 370.38 196.49 369.17 196.86 368.5 198.08 368.72 198.86 367.96 199.1 367.16 198.9 366.54 197.94 365.02 197.59 363.59 198.72 362.37 198.68 361.84 198.29 361.54 196.92 361.06 196.2 360.3 196.83 359.48 198.05 358.71 197.82 356.57 196.46 356 195.63 354.92 195.45 354.18 193.9 352.98 193.26 351.99 193.12 351.09 192.24 351.17 191.15 351.96 191.39 352.79 192.14 353.64 192.27 354.47 191.46 353.86 189.91 353.33 189.41 351.45 188.39 349.01 187.49 348.31 186.86 346.8 186.31 346.28 184.59 347.74 185.04 347.59 184.03 347.1 183.97 346.38 182.78 345.57 182.45 344.36 182.77 343.76 183.27 343.83 184.51 342.93 186.1 343.5 187.26 345.52 188.73 345.83 188.62 346.51 189.91 345.35 191.38 345.32 192.51 346.05 193.06 346.47 193.81 347.49 194.77 347.33 196.25 346.8 197.36 346.43 197.6 346.3 198.88 346.53 199.94 347.67 201.07 348.72 201.52 349.1 202.82 348.73 203.53 347.46 203.66 346.87 203.32 345.65 203.41 344.78 203.17 343.19 203.21 342.2 202.65 341.41 201.55 340.39 201.1 339.59 200.01 338.23 199.43 337.72 198.98 337.49 198.16 336.32 196.9 334.95 196.43 334.79 195.84 333.5 195.44 332.53 193.92 331.57 192.98 330.83 192.75 330.39 192.12 328.7 191.29 326.65 191.3 325.82 191.57 324.98 191.52 324.49 190.86 322.43 190.9 321.35 190.36 314.91 190.97 314.04 191.2 313.01 192.46 312.02 192.4 310.98 193.33 308.3 194.55 307.55 195.07 307.08 196.62 306.13 195.75 306.18 195.34 304.88 194.01 303.93 193.61 303.86 192.79 303.26 192.24 302.22 191.8 301.69 191.95 300.73 191.6 300.01 189.94 299.52 189.65 299.14 187.74 298.77 186.85 298.86 186.33 298.4 185.75 296.18 184.29 294.6 183.84 292.58 183.55 290.89 181.47 291.91 180.8 292.13 181.35 293.07 180.62 294.08 180.17 294.02 179.25 294.51 179.03 289.98 170.42 288.85 168.85 288.01 168.83 287.39 170.08 286.48 170.19 283.88 169.71 283.14 169.07 282.27 166.84 282.42 166.14 281.77 165.28 281.76 162.99 282.75 162.63 282.83 161.37 282.49 160.72 281.59 159.91 280.39 159.89 279.21 159.56 279 156.95 279.45 156.87 280.15 156 280.41 154.81 280.19 152.72 280.87 151.75 282.37 151 283.08 149.44 284.41 148.59 285.03 147.28 286.27 145.76 286.95 144.71 288.51 142.99 288.5 140.95 289.28 140.88 290.45 140.16 293.18 139.97 295.36 139.47 296.38 138.91 299.13 138.9 302 137.73 301.17 135.94 303.47 134.86 304.83 133.24 305.18 131.34 303.98 129.97 303.15 129.38 301.38 128.65 300.08 128.33 298.86 126.21 298.47 124.52 297.05 123.19 297.68 121.18 297.67 118.69 297.29 116.78 296.4 114.98 295.36 113.17 295.21 112.24 297.62 110.32 299.79 108.91 301.01 107.86 302 106.7 306.33 105.14 308.12 104.15 309.62 104.51 310.41 104.35 314.27 104.65 316.15 104.46 316.89 104.17 319.38 103.85 321.09 100.97 321.11 98.58 320.25 96.52 321.6 94.29 323.16 93.79 324.57 94.4 324.91 95.33 325.7 95.85 326.37 96.62 327.16 98.28 327.73 98.84 328.71 100.36 330.15 100.45 332.37 98.81 334 98.07 334.75 98.77 336.43 97.43 337.61 96.84 338.23 96.76 340.9 95.34 Z" fill-rule="evenodd" id="36660110"/>
<path d="M 679.86 317.99 679.14 318.89 678.42 318.55 676.85 320.11 676.18 321.79 675.09 323.06 673.23 322.65 673.46 321.44 674.36 320.59 675.06 320.27 675.22 319.6 676.04 318.92 677.35 318.27 678.02 318.32 678.82 317.89 679.86 317.99 Z M 677.09 311.79 678.2 312.13 678.57 312.63 679.97 312.94 680.51 312.86 681.3 313.35 681.41 314.27 680.47 314.47 679.07 314.02 676.77 314.9 677.35 316.24 677 316.69 676.4 316.11 674.99 316.16 674.51 316.53 673.12 316.37 672.11 316.9 670.99 316.31 671.07 315.52 670.69 314.96 672.44 314.75 673.06 313.33 674.29 312.65 675 312.56 675.65 312.05 677.09 311.79 Z M 677.86 308.49 677.62 309.64 676.36 309.74 675.79 309.11 676.29 308.53 677.26 308.67 677.86 308.49 Z M 751.22 300.07 751.24 300.75 749.97 300.78 749.72 300.44 751.22 300.07 Z M 746.43 299.87 746.88 300.54 748.65 301.12 748.7 301.94 747.85 303 747.76 303.45 746.81 303.97 746.71 304.39 745.77 304.39 744.98 303.72 743.51 300.81 743.88 300.42 745.91 299.82 746.43 299.87 Z M 771.33 293.81 771.7 294.1 773.46 293.87 775.38 294.41 776.15 295.63 775.25 296.81 774.07 297.41 774.3 297.8 773.43 299.38 773.23 300.47 771.71 299.65 770.77 299.97 770.63 300.72 768.27 300.3 767.75 300.72 766.96 300.76 767.03 302.21 767.49 302.95 765.63 303.06 763.57 302.24 763.32 301.51 762.79 300.99 761.91 300.96 761.75 300.19 761.12 299.37 759.25 299.36 757.87 299.17 756.68 299.73 755.88 300.55 756.09 301.71 756.75 302.25 756.48 302.82 754.89 301.85 753.48 301.55 752.21 300.66 752.42 299.93 752.17 298.78 750.58 298.71 749.99 297.79 750.9 297.1 752.51 296.81 752.9 296.07 753.7 296.36 754.54 296.09 755.23 296.34 755.86 295.96 757.49 295.89 758.08 295.08 758.9 294.77 759.75 294.87 760.7 294.59 762.45 294.51 763.96 294.87 764.58 295.35 765.84 294.4 767.17 294.44 768.18 293.99 769.29 294.22 771.33 293.81 Z M 798.09 292.72 797.95 293.64 797.06 294.29 796.56 293.71 796.94 292.89 798.09 292.72 Z M 732.87 285.18 734.02 285.32 734.12 285.67 732.77 285.99 732.87 285.18 Z M 796.51 277.34 797.93 278.47 799 281.01 798.68 282.85 796.67 284.44 795.73 285.4 792.24 284.84 791.55 284.19 791.07 282.89 791.68 282.01 792.44 280.08 793.24 279.95 793.82 279.24 795.2 278.18 796.1 276.88 796.51 277.34 Z M 754.96 211.32 755.91 212.09 755.13 212.81 754.47 212.61 754.17 211.66 754.26 210.65 754.96 211.32 Z M 755.99 206.44 756.64 206.67 757.7 208.5 758.2 208.77 758.5 209.9 757.48 209.53 756.61 209.5 754.73 208.69 755.29 208 755.49 206.79 755.99 206.44 Z M 727.29 181.66 728.31 181.99 730.36 183.67 730.87 184.74 732.13 185.21 732.01 186.68 732.23 187.93 731.24 188.08 730.13 186.96 729.24 186.88 727.51 187.73 726.36 187.5 725.09 187.85 724.73 188.78 724.3 188.96 723.4 187.99 723.16 186.88 720.84 185.3 721.31 184.37 722.25 183.96 723.58 183.68 723.86 182.8 724.37 182.63 725.98 182.86 726.61 181.93 727.29 181.66 Z M 689.8 175.01 690.81 176.04 690.14 177.25 689.31 177.56 688.97 178.07 687.94 178.26 687.64 178.63 686.86 178.2 686.89 177.68 688.4 177.08 688.76 176.61 689.1 175.37 689.8 175.01 Z M 664.01 172.92 664.15 173.35 665.44 174.31 666.14 175.97 665.66 176.79 665.74 177.98 665.34 178.73 664.21 179.33 663.24 178.5 663.02 176.98 663.45 175.13 663.44 173.21 664.01 172.92 Z M 701.91 172.91 702.03 173.88 702.8 174.37 703.55 175.75 702.72 177.24 703.01 178.34 702.82 179.28 703.55 180.12 703.63 180.81 703.4 182.78 703.02 183.53 702.35 183.59 701.29 184.34 700.45 184.44 699.96 185.02 698.76 184.53 697.59 184.92 696.66 184.07 696.81 183.6 695.24 183.59 695.01 182.96 695.34 181.72 695.31 180.78 695.67 180.47 697.17 180.55 698.54 180.06 699.31 179.18 699.64 178.27 701.02 177.33 701.01 175.33 700.63 174.08 701.04 173.06 701.91 172.91 Z M 726.67 169.95 727.31 169.91 728.85 170.36 729.81 170.02 730.44 170.49 731.41 170.33 733.13 170.82 732.18 172.15 733.87 173.38 734.42 174.51 734.33 175.63 735.5 175.85 735.22 176.61 733.92 176.88 732.65 176.83 731.72 175.35 730.78 175.33 730.01 175.58 729.39 175.05 729.32 173.49 729.76 173.3 728.96 171.59 728.51 171.28 727.05 171.17 725.89 172.53 725.07 171.51 725.28 170.72 725.79 170.15 726.67 169.95 Z M 686.27 152.48 686.79 152.69 688.22 152.67 688.62 153.2 689.54 153.45 689.43 154.42 688.93 154.77 688.91 155.53 689.3 156.47 690.11 157.11 690.1 157.75 691.59 159.5 692.21 160.56 692.16 161 690.9 161.94 689.82 163.34 689.99 164.24 689.27 164.49 688.85 162.83 688.54 162.5 687.35 162.49 686.97 162.8 686.22 164.63 685.39 163.42 685.16 162.75 684.41 162.21 683.11 161.95 682.75 162.32 681.79 161.78 682.16 160.76 681.59 159.64 680.42 158.88 680.48 158.23 679.91 157.91 679.26 156.85 679.52 156.01 679.35 154.65 682.37 153.89 683.08 153.23 683.99 153.17 684.59 153.66 685.43 153.58 685.33 152.78 686.27 152.48 Z M 681.05 147.29 682.28 147.08 682.57 148.08 682.2 148.43 680.83 148.88 679.83 148.87 679.83 147.38 681.05 147.29 Z M 627.74 136.87 627.24 137.09 626.08 136.42 626.59 135.78 627.74 136.87 Z M 623.04 132.58 623.23 133.27 622.62 133.91 621.86 133.64 622.43 132.64 623.04 132.58 Z M 689.47 121.22 689.8 122.08 687.66 122.55 687.59 122.13 689.47 121.22 Z M 701.7 118.07 702.09 118.58 701.98 119.57 701.12 121.16 700.09 121.24 699.55 120.83 698.87 119.4 698.89 118.86 701.7 118.07 Z M 659.56 116.13 660.26 117.53 661.03 118.23 661.38 118.98 661.96 119.31 661.91 120.12 662.47 120.39 662.79 121.23 662.45 121.78 661.35 122.25 660.49 121.53 658.86 121.55 658.03 121.31 657.04 120.44 656.93 119.56 657.38 118.89 656.75 117.68 656.84 117.12 658.18 116.43 659.56 116.13 Z M 649.92 114.89 651 115.56 650.81 116.52 649.35 116.32 648.9 114.72 649.92 114.89 Z M 703.06 113.11 703.55 113.6 703.37 114.66 701.63 114.43 701.34 114.08 701.64 113.23 702.74 112.9 703.06 113.11 Z M 695.24 102.32 695.85 103.35 695 103.2 695.24 102.32 Z M 632.3 93.63 633.83 95.02 634.66 96.38 634.6 97.17 633.95 97.73 634.44 98.59 634.05 99.5 634.92 100.82 636.44 101.41 636.7 100.97 637.6 101 637.96 101.8 638.71 102.15 638.47 102.97 637.44 103.3 636.65 104.86 636.92 105.63 637.98 106.18 638.98 105.77 639.81 105.81 640.89 106.75 641.32 107.75 641.88 108.08 642.42 108.87 642.04 109.48 642.87 109.88 644.03 109.57 644.31 109.25 643.62 108.19 643.91 107.44 644.98 107.57 646.09 107.43 647.21 108.41 647.15 109.13 647.66 110.33 647.08 111.58 646.54 111.81 645.57 113.11 644.62 113.53 643.99 114.93 644.47 115.83 645.06 116.17 645.67 116.04 646.9 117.12 648.86 117.68 649.97 117.28 650.49 117.75 649.69 118.6 648.55 118.9 648.18 118.42 647.55 118.39 646.04 120.24 645.05 121.01 644.86 121.45 645.17 122.89 646.01 123.56 646.7 124.65 646.53 125.66 646.93 126.56 646.47 127.22 646.46 128.02 647.2 128.59 648.76 129.04 649.39 128.96 650.91 127.01 652.58 126.49 653.44 126.51 654.21 126.11 656.2 125.66 656.6 124.39 657.21 124.55 657.3 125.73 659.21 126.2 661.2 125.15 661.87 124.58 663.31 123.84 664.86 122.27 665.27 121.24 665.01 119.49 665.8 118.5 666.69 117.74 667.83 117.2 669.29 117.68 670.75 118.92 671.64 118.87 672.53 118.04 672.91 117.12 673.7 116.51 675.22 117.02 676.1 116.83 676.27 116.41 677.24 116.16 677.16 116.84 677.43 118.48 676.42 119.82 675.24 121.94 675.76 122.32 676.64 121.94 677.38 120.42 678.22 120.44 679.69 119.99 680.71 120.19 681.79 120.88 682.52 120.9 683.45 119.96 684.3 120.77 685.18 120.98 686.21 120.55 686.33 121.12 685.7 122 685.62 122.84 684.86 123.55 684.52 124.25 685.02 124.75 683.61 125.06 683.3 125.93 683.38 127.56 683.98 128.62 684.7 129.17 685.59 129.22 686.03 128.83 686.58 129.14 686.86 129.89 687.91 129.89 688.29 129.32 689.39 129.36 689.75 129.91 689.2 131.28 689.78 131.55 690.4 132.99 690.59 133.95 691.09 134.77 690.61 135.9 692.1 136.64 692.39 137.15 693.86 136.91 695.02 137.86 696.06 138.22 696.19 139.2 696.91 140.37 697.91 140.62 697.86 141.66 698.57 141.99 698.82 142.52 699.68 142.68 700.94 143.74 701.95 143.61 701.75 144.39 700.1 144.96 699.36 144.82 698.44 145.4 697.8 146.66 696.19 146.65 695.74 146.42 694.58 146.57 693.14 145.82 692.24 145.08 690.71 144.62 690.52 143.88 689.89 142.93 689.82 141.61 688.81 139.39 688.64 138.63 687.54 137.66 685.65 137.36 684.32 136.51 683.63 136.46 682.52 137.01 681.89 136.42 680.03 136.68 678.48 137.61 677.89 136.89 677.22 137.33 676.48 136.69 674.68 136.93 674.49 135.93 673.81 134.4 673.02 133.74 671.45 133.56 669.35 132.66 668.35 133.38 667.14 135.11 667.27 135.94 666.84 136.73 666.62 137.84 664.38 138.65 663.59 140.06 663.66 140.7 668.43 143.42 669.54 143.25 670.53 143.84 671.03 142.92 670.95 142.28 671.54 141.86 672.51 141.81 672.97 142.07 674.35 142.21 675.25 142.86 677.08 142.83 679.41 144.38 680.09 145.1 679.6 145.82 678.25 146.5 678.56 146.92 676.84 147.73 675.17 147.29 674.77 147.55 674.97 148.67 676.27 149.18 676.47 148.8 677.51 148.63 678.26 149.03 678.3 150.23 677.77 151.04 676.16 151.98 675.58 151.61 675.93 151.03 675.85 150.16 674.97 149.74 673.82 150.03 672.85 149.62 672.44 148.91 670.83 148.06 668.18 148.54 664.75 149.49 661.1 150.98 659.88 151.7 657.98 153.14 656.9 154.18 656.36 155.03 656.64 155.88 657.64 157.17 657.81 158.52 657.42 159.91 657.74 161.16 657.3 161.36 655.38 160.81 654.42 160.14 654.46 159.56 653.27 159.14 652.43 159.42 651.8 160.62 651.04 161.13 650.86 162.53 650.4 163.73 649.54 164.54 647.65 166.01 647.89 166.49 647.37 167.16 646.33 167.33 645.58 168.94 644.76 168.72 643.53 169.4 643.53 170.91 644.07 171.54 645.27 171.63 646.02 172.55 645.54 172.78 645.48 173.78 644.95 173.95 644.96 175.96 643.79 178.27 641.06 175.22 641.24 173.41 641.93 172.62 641.69 172.06 641.94 171.4 640.8 170.78 640.48 170.07 640.48 169.11 641.28 168.22 640.48 167.19 640.36 166.45 639.69 165.52 639.12 164.36 638.66 160.77 639.09 158.55 639.83 157.65 640.69 157.06 642.71 156.67 643.67 155.87 646.08 155.32 647.04 154.26 647.77 154.33 648.42 154.89 649.92 154.48 650.97 154.97 651.2 155.37 652.54 154.87 653.86 153.21 653.62 152.51 652.56 151.33 652.93 150.93 654.94 150.41 655.19 149.12 654.93 148.72 655.81 147.72 655.67 145.83 655.32 144.63 654.08 141.94 652.74 140.3 651.55 140.64 649.57 139.97 648.38 139.88 647.65 140.13 646.35 139.96 644.97 139.58 644.08 140.01 643.61 140.95 642.74 141.25 640.5 141.26 639.32 141.73 639.48 142.28 638.86 142.71 637.85 144.34 637.6 145.22 637.76 146.35 638.42 147.53 638.22 148.55 637.55 149.86 635.48 151.11 634.6 150.4 633.26 150.52 632.59 149.66 632.46 148.86 631.4 148.84 631.65 147.88 631.62 146.69 632.81 145.71 634.89 144.46 635.07 144.13 634.73 143.11 634.05 142.31 632.53 141.78 631.94 142.05 631.65 143.82 630.74 144.66 629.6 144.79 628.83 145.53 626.93 144.93 626.91 143.31 626.21 142.72 624.36 143.11 624.15 143.47 623.11 143.39 622.22 143.04 621.83 143.55 621.24 143.56 621.06 142.47 624.21 141.86 625.29 142.11 625.88 141.95 627.22 142.15 627.91 142.84 629.93 142.97 630.38 142.66 631.38 140.75 632.35 140.41 634.49 140.82 634.9 140.2 635.23 138.76 635.53 138.5 634.85 136.28 633.38 136.08 632.42 135.66 631.49 135.7 630.66 134.46 631.61 134.05 631.74 132.77 631.39 131.81 629.41 132.3 628.57 131.83 628.8 131.13 628.73 129.92 627.94 129.6 625.75 129.65 623.84 129.38 623.88 128.1 622.54 126.52 622.26 125.48 621.35 125.1 621.06 125.44 620.22 125.39 619.56 124.72 618.62 124.52 618.25 124.04 617.36 123.96 616.88 123.51 615.79 123.3 615.07 124.32 614.15 124.19 613.58 124.79 613.26 125.91 614.35 126.96 614.62 127.85 613.66 128.63 613.44 129.58 612.39 129.85 612.06 130.38 610.45 130.52 608.16 129.15 608.18 128.3 607.6 127.78 606.1 127.44 605.34 127.49 604.05 127.96 602.75 127.7 602.23 127.08 602.01 125.77 601.23 124.33 600.41 123.84 598.35 123.57 597.66 123.72 594.68 123.42 593.72 122.51 593.21 121.63 591.87 120.7 591.28 119.9 590.41 119.2 589.53 119.02 588.92 118.09 589.02 117.57 590.08 117.49 591.04 117.79 591.88 117.17 593.15 115.52 594.25 116.4 594.53 116.99 596.07 117.93 597.47 118.34 598.13 118.77 598.37 119.45 597.92 120.03 598.53 120.36 598.97 121.59 599.62 122.07 601.58 121.41 601.72 120.99 600.83 119.53 601.96 119.54 603.47 120.88 605.55 120.6 606.6 121.01 609.55 121.79 610.41 121.4 611.16 120.71 610.71 118.5 611.22 117.81 612.58 117.32 614.08 115.11 614.45 113.85 614.49 112.93 614.16 111.9 612.51 111.52 611.43 111.93 610.77 111.23 610.9 110.24 612.49 109.15 612.48 108.44 613.83 107.63 614.22 108.79 613.61 109.3 614.2 109.82 615.01 109.46 616.94 111.08 617.59 110.94 618.09 110.16 619.92 108.03 619.97 107.73 617.45 105.46 616.66 105.06 614.77 102.97 614.01 102.86 613.62 101.8 614.88 101.65 615.05 101.1 615.91 100.58 616.64 99.8 617.37 99.95 617.62 99.2 617.06 98.25 617.66 97.99 618.55 98.34 619.99 98.19 621.18 98.51 621.81 99.6 622.75 99.64 623.71 98.54 624.99 99.18 625.11 99.99 626.85 101.55 627.8 101.59 628.11 102.05 628.9 102.2 629.16 103.11 629.86 104.36 631.04 104.17 631.32 103.75 631.08 102.14 631.11 101.08 631.46 100.44 632.04 100.27 632.24 98.9 633.34 97.31 632.81 96.56 632.68 95.25 632.16 94.77 631.98 93.85 632.3 93.63 Z M 628.46 89.41 629.23 89.42 629.23 90.89 629.01 91.7 631.07 92.78 631.27 93.27 630.3 94.02 629.43 94.09 628.89 93.78 628 93.8 627.53 94.23 626.65 94.2 625.75 93.13 625.81 92.06 626.82 91.43 626.91 90.94 626.13 89.86 627.73 89.36 628.46 89.41 Z M 588.78 85.58 589.2 86.31 588.59 86.65 587.64 86.34 587.92 85.69 588.78 85.58 Z M 693.28 80.66 694.23 80.59 694.7 81.7 694.2 83.92 694.12 85.4 694.72 86.39 696.03 86.59 695.9 87.08 696.25 87.99 695.81 88.45 693.8 89.14 693.55 88.35 692.37 88.18 691.46 88.8 691.4 89.39 690.21 90.24 689.38 90.42 689.53 91.23 688.78 92.45 689.03 94.05 689.88 94.8 691.34 93.95 691.94 93.96 692.23 94.55 692.13 96.36 691.79 97.73 690.16 97.36 689.65 96.78 689.45 95.59 688.3 95.5 687.69 95.83 687.13 96.83 687.37 97.78 686.77 97.73 685.16 98.45 684.96 99.15 684.04 100.06 683.34 100.36 682.4 99.94 682.09 99.37 681.05 98.59 680.5 97.46 680.02 97.45 678.66 99.71 678.19 101.17 676.53 101.63 676.14 100.98 675.42 101.01 674.07 100.17 672.76 100.82 671.79 102.26 672.21 103.19 672.32 104.1 671.18 104.37 670.98 104.85 670.22 104.87 670.47 103.55 669.8 102.94 669.65 102.1 670.8 100.89 671.59 100.32 671.57 99.79 672.2 99.33 673.28 97.54 673.61 96.36 674.99 95.77 676.94 95.64 677.28 94.72 676.55 94.39 676.77 93.64 678.25 92.26 679.71 92.09 680.02 91.49 679.37 90.34 678.69 89.98 676.4 90.41 675.47 90.91 674.68 90.71 674.7 90.13 674.11 89.39 673.88 88.32 674.61 88.02 674.94 87.47 676.07 87.07 677.66 87.26 678.15 86.8 679.83 86.17 681.14 85.84 682.37 84.67 683.07 84.39 684.01 83.51 685.76 82.45 687.42 81.84 688.6 81.83 689.49 80.94 691.42 80.6 691.87 80.84 693.28 80.66 Z M 629.13 76.86 629.93 77.31 629.15 78.78 629.13 76.86 Z M 647.64 76.3 647.95 77.13 647.78 78.59 648.65 78.43 649.87 78.63 651.92 79.55 653.04 79.67 653.26 80.94 653.88 82.93 653.66 83.65 652.3 85.2 649.16 85.62 649.19 86.53 650.53 86.99 651.5 87.02 651.16 88.24 650.47 88.25 649.78 88.68 648.33 88.04 648.13 87.64 645.08 86.36 644.11 86.32 643.4 86.76 643.16 87.83 640.51 87.14 639.18 87.29 636.45 85.95 636.31 84.8 636.77 84.51 638.13 84.25 638.11 83.51 637.03 83.24 635.29 81.84 635.15 81.5 636.59 81.32 639.25 79.91 640.02 79.84 640.19 79.14 639 78.27 639.3 77.32 640.11 77.19 640.66 77.48 643.2 77.82 646.08 76.96 646.79 76.36 647.64 76.3 Z M 592.61 77.36 593.5 78.43 593.5 79.13 592.86 79.25 592.74 78.5 592.09 77.94 591.61 77 592.28 76.92 592.61 77.36 Z M 587.96 74.72 589.23 75.72 589.98 75.89 589.93 76.52 589.14 77.37 588.56 77.24 587.99 76.48 586.8 77.06 586.37 76.75 587.09 75.69 587.13 75.05 587.96 74.72 Z M 595.72 56.3 596.93 57.18 597.53 58.58 597.28 58.95 597.84 60.17 597.62 61.52 596.8 61.17 596.65 60.46 597.1 58.92 595.97 57.08 595.72 56.3 Z" fill-rule="evenodd" id="36660120"/>
<path d="M 95.5 337.01 97.51 337.43 98.58 338.38 98.87 339.59 98.79 340.74 98.01 340.96 97.38 342.57 97.52 343.66 98.04 345.11 97.66 345.69 96.22 346.23 94.95 346.19 94.5 345.63 94.29 344.51 93.05 343.94 92.78 343.4 92.9 342.27 93.59 341.07 93.74 339.96 93.34 338.49 93.41 337.78 93.87 337.05 95.5 337.01 Z M 226.69 337.03 225.54 337.37 224.78 337 225.22 335.66 226.48 336.09 226.69 337.03 Z M 71.54 336.46 72.92 338.87 72.85 339.34 73.72 340.06 74.16 341.32 73.76 342 71.65 339.51 70.36 338.91 69.29 337.12 69.9 335.38 71.25 335.54 71.54 336.46 Z M 210.32 333.04 208.9 333.92 208.92 334.68 209.78 334.97 209.87 335.39 208.22 335.74 207.38 334.79 206.18 334.5 206.02 333.94 206.59 333.38 208.37 333.02 209.68 332.59 210.32 333.04 Z M 176.42 332.94 177.24 333.04 178.45 334.36 178.99 334.67 179.16 335.43 179.61 335.81 181.22 335.88 181.76 335.6 182.43 336.68 181.7 338.07 180.77 338.4 179.15 338.06 178.26 337.32 177.46 337.25 175.18 337.81 173.57 337.48 173.04 336.63 173.02 334.41 173.95 333.69 173.98 333.1 174.65 332.61 176.42 332.94 Z M 236.51 327.63 236.11 328.31 235.16 328.31 235.31 327.51 235.93 327.04 236.51 327.63 Z M 233.22 323.2 232.57 323.09 232.17 322.33 233.12 321.96 233.95 322.32 233.78 322.98 233.22 323.2 Z M 235.54 321.29 236.44 321.56 237.69 321.36 238.37 322.2 236.07 322.44 234.96 321.86 235.54 321.29 Z M 209.83 319.69 210.13 320.11 209.39 320.72 208.4 320.77 208.26 320.28 209.83 319.69 Z M 66.03 316.24 66.8 316.47 66.98 317.47 66.6 318.25 66.01 318.26 65.3 317.3 65.35 316.53 66.03 316.24 Z M 99.97 312.56 101.13 313.65 102.47 313.81 103.6 315.11 103.7 317.12 102.49 318.29 101.55 320.19 102.06 321.4 101.89 321.81 100.29 322.86 100.58 324.57 99.8 326.83 98.73 327.92 98.39 329.52 97.64 330.6 96.57 330.56 95.92 330.13 96.03 327.19 95.03 325.17 94.21 324.1 94.63 322.69 95.46 321.68 95.35 321.02 93.72 320.38 93.52 319.92 92.35 319.29 91.72 318.25 90.89 318.5 90.44 319.24 89.94 318.82 89.61 315.9 89.23 315.01 89.58 314.57 91.61 314.8 92.71 315.44 93.73 315.16 95.88 313.88 97.31 313.62 97.72 313.78 98.58 313.27 99.16 313.28 99.97 312.56 Z M 236.16 308.9 236.46 309.28 236.11 310.36 234.76 311.44 233.36 311.67 231.08 310.24 232.48 309.89 234.09 309.04 236.16 308.9 Z M 229.19 307.44 229.83 307.92 229.57 308.76 229.02 309.19 227.86 308.71 228.4 307.64 229.19 307.44 Z M 112.17 304.53 112.63 305.3 112.02 307 111.01 307.34 108.89 306.83 108.25 308.17 107.52 308.63 105.95 308.24 105.64 307.82 104.55 307.21 104.68 306.43 105.24 305.89 106.76 305.46 107.25 305.96 108.97 305.85 109.58 305.21 111.11 304.96 112.17 304.53 Z M 122.31 298.44 123.19 298.67 123.18 299.36 125.36 300.53 125.84 301.58 125.77 302.39 126.32 303.13 126.43 304.16 128.04 304.74 129.45 304.56 130.5 304.21 131.15 304.26 132.65 303 133.24 304.21 134.71 304.97 134.84 305.57 133.94 306.46 133.57 306.41 132.02 307.35 131.21 307.55 129.4 308.73 128.04 310.65 127.49 311.25 126.52 313.51 126.5 315.13 127.14 316.49 127.41 318.13 126.9 319.19 124.97 319.67 123.59 320.69 122.87 321.59 122.38 321.78 122.32 320.32 121.3 319.43 120.29 319.05 117.92 318.69 116.97 319.21 115.36 320.47 114.67 321.51 114.25 322.89 113.9 322.71 112.64 323.64 111.82 325.2 111.98 325.77 112.62 326.27 112.23 326.79 111.44 325.85 110.81 326.13 110.79 327.07 110.28 328.61 109.2 330.14 108.57 331.51 108.02 330.59 107.23 330.18 107.27 329.29 106.86 328.47 105.64 328.46 104.19 329.01 103.47 328.78 102.61 327.95 102.69 326.49 103.58 325.58 105.27 324.41 107.35 324.27 109.12 323.72 111.12 322.21 111.49 321.77 111.86 320.33 112.93 318.73 112.25 316.75 113.25 315.06 112.96 313.59 112.5 313.07 113.6 311.25 114.05 310.9 114.34 310.06 115.54 309.11 117 308.38 118.31 306.68 119.43 305.57 119.61 304.03 119.91 303.1 119.74 302.69 120.12 301.88 120.11 300.89 120.75 300.48 121.69 299.42 122.31 298.44 Z M 158.8 297.79 159.19 298 160.06 299.55 160 299.89 161.06 300.77 162.46 303.04 162.42 303.65 162.86 304.33 161.42 305.22 160.07 305.45 155.95 306.73 155.17 306.36 154.14 305.2 153.98 304 154.68 302.81 154.71 301.75 155.46 300.64 155.99 300.3 155.71 299.44 156.66 298.8 157.66 298.72 157.86 298.22 158.8 297.79 Z M 240.89 291.73 240.87 292.46 239.89 294.08 239.12 294.25 238.85 295.08 238.26 295.54 237.59 295.24 237.9 294.25 238.56 293.95 239.34 291.91 239.93 291.54 240.89 291.73 Z M 132.25 284.17 132.96 284.69 132.9 286.32 132.36 287.33 131.91 287.64 131.4 288.9 130.45 290.2 130.88 291.58 131.86 292.48 131.96 293.09 131.32 294.45 129.52 294.01 128.32 294.43 126.77 294.43 126.12 294.05 125.54 292.98 126.33 292.58 127.72 293.09 128.38 291.77 129.64 290.7 129.49 290.01 129.93 289.58 130.15 288.71 131.28 287.55 131.61 284.95 132.25 284.17 Z M 50.34 284.55 50.62 285.57 50.18 285.76 49.9 284.79 50.34 284.55 Z M 46.99 280.57 47.81 281.26 47.13 281.85 46.38 281.57 46.21 281.01 46.99 280.57 Z M 232.45 277.06 234.5 277.21 234.71 278.27 234.3 278.53 232.83 278.53 231.69 277.59 232.45 277.06 Z M 230.06 276.5 230.67 276.48 230.76 277.33 229.67 277 230.06 276.5 Z M 2.32 271 4.18 271.53 4.5 271.42 5.35 272.32 5.26 272.79 4.05 274.72 2.45 275.06 1.63 274.54 1.34 273.89 1 272.22 1.35 271.37 2.32 271 Z M 27.34 269.93 28.28 270.26 28.02 271.03 27.27 271.74 26.87 271.67 25.73 273.86 25.68 274.61 24.38 275.17 23.86 275.03 23.81 274 24.29 273.28 25.01 272.92 25.42 272 26.12 271.15 26.6 270.03 27.34 269.93 Z M 178.74 262.98 180.65 263.24 181.37 263.59 183.18 264.05 183.43 264.44 182.7 265.26 182.22 266.49 182.28 267.15 181.02 268.39 180.76 269.2 181.57 270.4 182.04 270.64 182.76 270 183.74 270.01 184.83 271.36 185.79 271.26 185.98 270.42 186.86 269.17 187.43 269.93 187.53 270.88 186.76 271.39 185.96 271.55 185.76 272.65 186.67 274.3 187.42 275.25 187.53 276.12 187.27 277.17 187.64 278.05 189.39 278.43 189.32 277.83 189.67 276.72 190.25 276.94 190.51 274.72 190.85 274.09 190.56 273.13 191.74 272.64 192.58 271.6 194.51 271.34 195.32 272.23 197.88 273.72 199.37 275.45 200.62 276.36 201.9 276.77 202.98 276.59 203.45 277.77 204.72 277.79 205.45 277.54 206.53 276.72 206.69 275.98 206.23 275.32 206.97 274.85 207.48 273.65 208.45 273.07 209.59 272.88 210.6 273.14 211.65 273.93 212.44 274.78 213.35 274.98 214.04 274.6 215.26 274.8 216.6 275.64 217.67 276.61 218.11 277.32 218.63 276.92 219.18 277.86 219.93 277.26 220 276.31 220.88 275.9 222.1 276.24 222.42 277.83 221.35 278.06 221.09 278.89 221.22 280.57 221.63 281.01 221.77 282.08 222.54 282.57 223.04 283.37 223.64 283.11 223.79 282.5 224.84 282.55 225.88 283.21 225.95 284.6 227.22 285.48 228.65 285.75 229.14 286.23 229.48 287.41 229 288.74 229.97 291.34 231.14 292.83 231.26 293.91 232.58 295.03 233.77 295.79 234.95 296.28 236.94 296.72 237.69 297.31 238.58 299.09 238.66 300.66 237.09 302.9 235.91 304.21 235.23 304.62 232.72 305.3 230.78 305.58 229.82 306.07 228.75 306.95 228.01 307.1 227.17 306.86 226.47 307.05 225.95 308.14 224.81 308.73 224.33 308.32 224.62 306.97 222.66 306.29 221.97 306.24 221.23 305.04 221.16 304.32 220.38 303.64 217.39 304.59 217.31 305.62 217.84 305.86 218.61 307.29 219.16 307.9 218.98 308.45 217.82 308.79 217.37 309.95 217.3 310.78 220.21 310.57 220.67 310.98 221.42 311.05 222.42 312.29 223.13 312.74 224.73 313.24 225.48 313.82 224.08 314.41 224.16 315.5 226.07 316.45 226.84 317.14 227.23 318.14 227.15 319.28 228.34 320.92 228.63 322.6 230.21 324.21 229.11 324.62 227.46 326.34 226.55 326.62 223.84 326.03 223.41 325.15 223.68 324.49 221.84 324.27 221.13 326.54 219.22 326.64 218.22 325.98 217.59 325.02 216.95 324.76 215.14 325.65 214.06 325.26 212.39 324.37 211.99 324.39 210.78 323.68 210.82 322.51 211.53 322.14 212.52 320.27 213.08 319.75 213.39 318.55 213.31 317.83 213.93 317.14 212.59 315.16 210.73 315.32 210.35 315.82 209.58 315.88 208.35 316.47 206.41 316.67 205.83 316.33 205.28 315.15 201.37 314.94 200.18 316.37 200.03 319.75 200.3 319.95 200.39 321.27 200.83 322.49 200.59 323.01 199.4 323.21 198.34 323.16 197.24 325.7 197.2 326.05 198.24 326.54 198.37 327.18 199.33 327.46 200.27 328.47 200.44 330.99 202.67 331.94 203.17 333.75 204.12 333.7 205.33 335.56 204.49 336.28 203.7 336.06 203.43 335.41 202.77 335.54 201.83 336.48 201.09 336.01 200.45 334.78 198.76 334.2 198.19 334.18 196.33 333.58 195.43 334.02 194.74 334.71 193.7 334.69 192.18 334.05 190.11 332.71 190.29 332.27 189.19 331.8 188.52 332.99 186.07 331.94 183.98 331.81 182.56 331.46 180.9 331.26 180.71 330.79 177.87 329.59 177.73 329.2 176.22 328.85 176.51 327.81 176.27 326.61 176.35 323.47 176.72 321.9 177.14 321.21 178.34 321.42 178.9 320.82 179.12 318.64 178.09 317.43 177.44 316.94 176.45 316.79 176.01 317.27 174.45 317.16 173.71 316.43 173.13 315.49 172 316.13 170.6 316.19 169.07 317.24 167.41 317.26 165.93 316.48 164.39 317.05 163.96 316.4 163.88 315.52 163.19 314.71 163.12 313.78 162.72 312.81 164.11 312.37 164.22 312.71 165.9 312.44 167.18 312.03 167.77 311.23 168.48 312.01 169.49 312.09 170.52 311.14 171.88 310.79 172.07 310.18 171.92 308.97 167.82 308.14 167.6 307.32 167.84 306.82 168.66 306.49 170 307.41 171.13 306.7 170.65 304.12 169.83 303.57 170.65 303.09 171.23 302.08 171.52 303.11 172.39 303.54 173.79 302.24 174.14 301.57 174.04 300.86 173.47 300.38 173.38 299.36 172.36 299.92 171.52 300.12 170.78 299.83 170.05 299.99 169.62 299.34 168.99 299.39 168.31 298.77 169.04 297.03 169.98 296.93 170.48 297.21 170.62 298.05 171.12 298.21 173.04 297.38 174.85 297.31 175.35 297.02 175.52 295.16 175.25 293.77 174.96 293.63 175.61 292.33 176.4 291.49 179.97 290.75 180.01 290.22 179.18 288.89 178.16 288.53 177.67 287.91 176.82 287.49 176.02 287.46 175.45 286.84 174.45 286.79 174.07 287.44 173.4 289.37 173.05 291.36 172.51 291.96 171.33 291.58 171.55 291.17 170.17 290.32 169.87 289.82 170.37 288.92 171.48 288.8 171.53 288.36 172.34 287.5 172.17 286.64 172.97 285.84 173.05 285.08 172.45 284.58 172.26 282.88 172.68 282.79 173.97 283.17 174.87 282.47 176.06 282.66 176.64 283.11 178.17 283.34 178.57 282.93 180.74 283.25 181.75 281.68 182.19 280.03 181.2 279.19 182.67 276.91 182.64 276.33 181.65 275.06 181.02 274.65 180.41 273.46 179.22 273.21 179.13 274.13 178.02 274.77 177.24 274.79 176.5 273.85 176.33 272.13 175.76 271.35 176.43 270.75 176.44 269.7 178.22 267.48 178.27 266.88 177.23 265.76 175.83 265.28 175.23 265.71 174.53 267.11 173.64 268.31 173.07 268.37 172.54 267.76 172.79 266.68 172.16 265.69 170.61 265.87 169.05 265.5 168.93 265.12 169.86 264.4 171.19 264.64 172.4 265.13 173.91 264.65 174.87 264.96 175.09 264.23 175.85 264.73 176.26 264.53 176.58 263.62 177.3 263.25 178.74 262.98 Z M 38.57 259.01 39.27 259.87 38.85 260.59 39.02 262.45 39.53 264.52 40.26 264.6 41.06 266.47 40.91 267.48 41.21 269.7 41.66 270.35 42.03 272.09 42.11 273.3 41.96 274.75 41.55 275.33 40.28 275.1 39.83 275.55 38.8 275.95 37.73 276.76 37.75 275.65 38.46 274.9 38.21 273.55 38.76 272.25 40.47 271.47 40.76 270.48 39.7 268.96 39.3 268.11 39.26 266.59 38.91 266.06 37.9 265.51 37.69 264.17 38.07 263.46 37.82 263.02 38.07 262.05 37.58 261.67 37.32 260.44 38.19 259.1 38.57 259.01 Z M 197.23 256.47 197.71 258.1 197.54 258.83 197.86 259.65 196.99 259.79 196.78 258.85 196.62 256.67 197.23 256.47 Z M 178.7 247.36 179.43 248 179.25 248.96 180 250.17 181.29 250.46 182.5 251.14 182.6 251.72 183.41 251.99 183.99 251.12 185.01 251.23 184.95 252.04 183.85 252.05 182.75 253.04 182.71 253.7 181.53 255.73 180.89 255.68 180.31 255.11 179.87 253.81 179.66 252.31 178.44 251.6 178.29 250.46 178.66 250.03 177.02 248.62 176.83 248.04 177.43 247.52 178.7 247.36 Z M 74.21 229.88 74.8 230.62 74.04 231.61 73.05 231.8 72.19 232.25 71.33 233.06 70.05 233.19 69.51 233.59 68.06 232.65 66.49 232.05 64.96 232.28 65.19 231.47 66.15 230.5 67.58 229.89 69.07 230.27 69.32 230.84 70.33 230.86 70.03 230.03 70.66 229.97 71.45 228.91 72.73 228.71 73.73 229.17 74.21 229.88 Z M 46.32 224.58 48.36 225.69 47.94 226.08 47.92 227.53 46.83 227.56 45.41 228.65 44.01 229.27 43.04 228.98 43.41 227.43 44.49 226.61 44.84 225.4 45.39 224.71 46.32 224.58 Z M 44.13 219.28 45.25 219.93 46.97 219.84 47.57 220.11 48.38 219.98 48.64 221.14 48.1 221.9 47.13 222.24 46.76 221.59 45.34 221.32 44.7 221.56 43.14 220.88 43.01 219.91 43.48 219.36 44.13 219.28 Z M 70.47 217.02 71.22 217.98 71.92 218.05 73.15 219.32 71.99 219.71 71.05 221.17 69.98 221.13 69.28 220.79 68.66 219.9 68.93 218.41 69.64 217.2 70.47 217.02 Z M 95.63 198.8 94.88 200.31 95.14 201.18 96.91 201.83 96.82 203.4 96.36 203.94 95.53 203.96 95.07 205.36 95.64 207.22 94.99 207.47 94.85 205.98 94.06 205.31 93.29 205.14 91.81 205.2 90.54 205.54 88.95 207.32 88.92 208.5 88.39 208.66 88.27 209.69 87.7 210.27 87.79 211.06 87.54 212.15 86.96 212.83 86.82 213.64 85.72 213.66 84.92 214.32 84.26 213.99 86.71 212.01 86.61 211.33 87.39 209.68 86.8 208.91 87.04 207.78 87.42 207.57 88.1 205.93 88.61 205.34 88.42 204.44 88.66 204.05 88.14 202.65 89.21 202.72 89.45 202.17 88.95 201.1 90.35 200.38 92.41 200.48 93.04 200.77 93.63 199.44 94.65 198.88 95.63 198.8 Z M 97.92 197.86 98.22 198.73 97.65 199.2 97.01 198.96 96.93 198.28 97.92 197.86 Z" fill-rule="evenodd" id="36660130"/>
<path d="M 178.9 206.52 180.55 208.02 181.45 208.47 182.36 208.57 185.3 207.45 186.35 208.03 187.55 209.51 187.18 210.82 186.48 212.56 186.69 213.55 185.82 214.65 184.26 214.4 183.04 215.03 183 216.38 181.93 216.06 181.19 215.56 180.35 215.93 178.58 216 177.56 216.52 176.29 216.26 174.64 216.34 172.68 216.95 171.02 217.03 169.28 218.05 168.79 218.14 168.12 217.63 167.8 216.68 167 216.66 165.71 215.61 165.77 214.64 164.54 214.46 164.04 215.41 162.61 215.03 162.47 214.35 161.4 214.04 160.44 215.58 159.32 215.64 158.51 214.83 157.57 216.3 156.74 216.47 156.59 214.34 155.79 213.79 155.55 213.11 155.64 212.18 156.39 211.77 156.27 211.07 157.09 209.5 156.93 208.7 157.55 207.67 158.47 207.4 159.21 207.53 159.37 208.05 160.43 208.78 162.1 209.31 163.24 209.22 163.62 209.78 164.64 209.53 165.07 209.79 166.57 210.02 170.08 209.51 171.21 209.43 172.19 209.01 174.14 209.02 175.67 207.93 177.05 207.14 178.06 206.18 178.9 206.52 Z M 237.15 196.46 238.06 196.7 237.91 197.85 237.14 198.68 236.68 198.49 236.36 197.01 237.15 196.46 Z M 223.82 195.23 224.47 195.84 225.07 195.53 226.29 195.74 226.53 195.52 227.83 195.93 227.96 196.54 227.6 197.1 227.29 199.1 225.79 199.83 225.79 201.37 225.48 202.28 225.46 204.11 225.05 206.57 225.03 207.34 224.48 208.76 223.56 209.33 222.99 208.81 221.39 208.9 220.44 208.18 220.35 206.94 220.95 206.54 220.63 205.53 221.29 204.41 220.67 203.83 221.26 201 221.64 200.67 221.99 199.51 222.46 198.8 223.25 198.22 223.33 197.27 224.44 195.97 223.82 195.23 Z M 128.75 183.14 128.09 184.45 127.68 184.76 127.28 185.95 127.28 187.33 126.47 189.19 126.57 189.61 125.95 190.68 125.15 190.4 125.34 188.54 124.93 187.77 123.55 187.67 123.86 187.2 125.09 187.33 126.43 186.11 126.31 185.43 126.99 184.16 128.75 183.14 Z M 209.52 181.86 209.98 182.81 209.05 183.17 207.89 184.53 206.69 185.27 206.1 186.13 205.14 189.3 204.62 190.66 204.62 191.74 205.07 193.01 205.92 193.45 206.67 192.83 206.99 193.56 206.74 194 207 195.32 208.63 195.94 208.93 196.62 208.73 197.98 207.19 198.83 207.08 199.32 204.76 200.32 204.01 199.11 204.3 197.45 205.2 196.7 204.76 195.66 203.73 194.92 202.15 194.13 201.19 194.01 199.77 195.22 198.3 196.07 197.21 196.09 195.95 196.77 195.47 197.94 194.88 198.8 194.07 199.36 192.96 199.64 192.46 200.41 191.29 200.68 190.83 200.41 190.44 199.57 191.02 198.15 192.66 195.56 193.31 195.16 194.14 193.44 194.64 192.82 195.59 190.78 196.14 189.9 197.13 189.46 197.71 188.82 200.52 187.01 201.42 186.78 202.2 185.99 202.78 186.09 203.39 185.64 204.57 185.8 206.94 184.13 208.88 182.13 209.52 181.86 Z M 224.96 174.55 225.56 175.13 226.16 176.28 224.95 176.31 224.55 177.07 224.04 176.95 224.27 175.32 224.96 174.55 Z M 121.96 165.72 121.74 168.03 121.8 168.57 121.14 170.48 120.68 170.41 119.49 171.11 119.17 171.04 118.41 169.71 118.16 168.32 118.84 167.25 119.68 166.87 121.19 164.81 121.63 164.84 121.96 165.72 Z M 240.38 68.52 241.87 69.29 243.19 69.56 243.76 69.28 244.34 69.84 245.58 70.61 246.01 70.21 246.92 70.29 248.11 69.43 249.15 69.39 250.15 71.12 250.82 71.39 252.12 71.44 252.71 72.26 253.43 72.72 256.39 73.35 257.24 72.02 257.91 71.5 258.45 71.82 258.64 72.72 258.23 73.18 256.96 73.65 256.87 74.73 257.49 75.29 258.37 75.46 258.07 77.42 256.63 77.54 256.56 79.92 256.31 80.3 254.98 81.2 254.65 82.16 253.59 83.71 253 83.81 252.41 84.59 251.1 85.3 250.16 84.72 250.47 83.66 251.09 82.5 251.94 81.77 253.72 80.85 254.04 80.44 253.83 79.07 253.36 78.29 252.54 77.6 251.99 77.66 249.51 76.68 248.27 77.32 247.46 77.38 245.94 78.12 244.22 77.41 241.96 76.8 241.27 75.54 241.8 74.82 241.75 74.11 240.55 73.54 240.76 71.78 239.07 71.05 238.53 70.16 239.75 68.71 240.38 68.52 Z M 346.59 67.13 347.27 67.93 347.9 69.29 348.14 70.3 349.29 71.2 349.76 72.3 350.75 72.4 351.46 72.13 352.2 70.35 353.64 69.2 354.58 68.94 355.23 69.38 355.35 70.22 355.91 70.92 355.81 72.13 356.04 73.27 355.39 73.81 354.36 73.59 353.28 73.93 351.66 73.8 350.97 74.25 350.99 75.04 351.79 76.21 351.88 77.18 352.73 77.96 353.89 79.73 354.33 80.7 353.9 81.89 353.34 82.23 352.23 81.9 349.84 80.04 348.87 79.78 347.99 79.21 346.29 78.91 345.76 77.97 346.16 77.48 346.81 77.99 347.37 77.47 347.16 76.52 347.26 75.64 346.78 74.96 346.73 74.21 346.05 73.35 345.37 73.24 345.53 71.66 345.22 70.26 344.73 70.11 343.87 69.11 344.64 67.29 346.59 67.13 Z M 340.9 95.34 338.23 96.76 337.61 96.84 336.43 97.43 334.75 98.77 334 98.07 332.37 98.81 330.15 100.45 328.71 100.36 327.73 98.84 327.16 98.28 326.37 96.62 325.7 95.85 324.91 95.33 324.57 94.4 323.16 93.79 321.6 94.29 320.25 96.52 321.11 98.58 321.09 100.97 319.38 103.85 316.89 104.17 316.15 104.46 314.27 104.65 310.41 104.35 309.62 104.51 308.12 104.15 306.33 105.14 302 106.7 301.01 107.86 299.79 108.91 297.62 110.32 295.21 112.24 295.36 113.17 296.4 114.98 297.29 116.78 297.67 118.69 297.68 121.18 297.05 123.19 298.47 124.52 298.86 126.21 300.08 128.33 301.38 128.65 303.15 129.38 303.98 129.97 305.18 131.34 304.83 133.24 303.47 134.86 301.17 135.94 302 137.73 299.13 138.9 296.38 138.91 295.36 139.47 293.18 139.97 290.45 140.16 289.28 140.88 288.5 140.95 288.51 142.99 286.95 144.71 286.27 145.76 285.03 147.28 284.41 148.59 283.08 149.44 282.37 151 280.87 151.75 280.19 152.72 280.41 154.81 280.15 156 279.45 156.87 279 156.95 279.21 159.56 278.33 159.61 276.72 158.74 276.33 158.21 275.06 157.34 273.97 156.78 273 155.75 271.92 155.56 270.49 154.14 269.62 154.29 268.92 154.8 269.02 156.2 267.76 156.18 267.04 154.77 267.61 154.11 268.14 154.26 268.34 153.01 267.52 152.14 267.11 152.12 266.73 151 265.76 151.08 264.5 151.92 264.32 152.71 264.9 152.77 265.7 153.88 265.29 154.53 264.64 154.71 264.35 155.48 263.49 155.65 261.55 154.43 258.57 154.86 257.41 155.55 257.04 154.92 257.7 153.68 259.68 152.97 261.57 151.25 262.31 150.13 262.33 148.96 262.61 147.94 261.81 145.8 261.8 144.92 261.02 143.96 261.19 142.74 260.49 141.86 258.43 140.61 257.56 140.86 256.4 140.79 255.96 140.06 254.92 139.23 254.9 138.79 256.17 138.57 257.08 138.01 258.35 136.25 258.43 135.06 259.27 132.55 258.15 130.14 258.07 128.83 258.62 127.99 258.88 127.07 258.72 125.67 258.16 124.71 258.25 123.14 257.73 122.34 257.16 122.07 256.99 119.64 256.62 118.57 255.81 117.06 255.23 115.38 255.5 114.12 255.36 113.13 255.57 112.3 256.63 110.61 257.08 109.61 259.41 108.88 258.1 106.25 257.9 105.46 256.76 105.38 255.97 104.26 255.93 103.07 255.35 102.7 255.13 101.99 255.46 101.58 255.22 100.8 255.35 99.89 254.95 99.75 254.72 97.82 254.83 96.82 254.48 95.91 253.59 95.4 253.34 94 253.37 92.67 253.64 92.03 252.99 91.49 254.97 88.75 255.71 89.21 255.74 88.03 257.07 86.47 258.25 85.99 258.62 85.49 259.93 84.88 260.55 82.94 262.09 78.68 262.37 77.56 262.95 77.73 264.07 77.36 264.88 77.42 267.33 78.43 268.62 78.61 269.88 78.21 271.53 78.02 272.38 77.18 273.56 77.22 274.06 76.32 275.54 75.79 276.57 74.93 277.64 75.19 278.18 74.65 277.87 73.75 277.72 72.32 278.04 71.84 279.18 71.82 279.79 72.98 280.37 75.81 281.19 75.86 281.48 75.42 282.28 75.3 282.81 75.55 284.21 75.08 285.36 74.33 285.33 73.81 284.73 72.54 284.27 71.11 286.04 70.45 287.36 70.55 288.17 71.09 289.76 71.24 291.88 70.74 292.95 70.93 293.81 70.37 293.98 69.75 294.75 68.91 296.4 68.32 297.03 67.81 297.83 67.76 298.16 66.91 299.13 67.24 299.09 67.97 299.71 68.92 299.86 69.72 300.81 70.76 301.33 70.93 302.62 72.43 304.09 72.84 305.15 73.87 306.35 74.04 306.88 72.56 307.82 72.64 308.68 73.23 309.83 73.21 310.72 72.85 311.98 72.88 312.4 73.28 313.63 72.66 314.71 72.71 315.57 73.68 315.46 74.93 316.39 75.44 316.72 76.03 317.59 76.08 320.32 77.89 321.84 77.48 322.11 78.27 323.58 80.37 324.24 81.55 324.07 82.63 324.35 83.61 325.87 85.18 326.71 85.78 327.45 85.46 328.54 85.57 329.12 85.38 330.01 85.6 331.6 85.62 332.24 86.45 331.61 87.23 331.1 88.56 331.24 89.12 332.59 89.07 333.12 88.54 333.67 88.91 335.21 90.48 337.32 90.03 338.1 90.63 338.06 91.65 337.39 92.17 337.87 92.69 338.7 92.78 340.28 93.95 340.9 95.34 Z M 291.11 65.42 291.63 65.14 292.24 65.77 291.89 66.68 290.79 66.87 290.52 66.28 291.11 65.42 Z M 324.93 51.72 326.05 51.56 327.1 51.05 327.81 51.45 328.54 51.43 329.63 52.72 330.84 52.85 332.42 53.91 333.15 54.02 334.44 54.9 335.13 55.06 337 56.43 337.02 57.11 338.53 60.1 338.68 62.16 338.31 63.44 337.69 63.77 335.45 63.62 333.74 62.94 332.92 62.03 332.48 61.98 330.55 60.74 329.41 57.82 328.78 57.2 328.76 56.72 328 55.54 326.75 55.08 326.16 55.37 324.77 55.28 324.01 55.48 323.44 55.22 321.64 55.65 321.13 55.39 319.75 55.73 317.11 57.61 316.58 56.86 315 57.21 312.74 55.24 312.57 54.92 313.38 53.55 314.06 52.86 315.22 52.31 317.5 51.67 318.02 51.76 319.23 51.37 322.05 49.81 322.99 49.58 324.12 51.2 324.93 51.72 Z M 305.81 45.76 306.76 45.84 307.02 46.99 306.05 47.49 304.4 47.02 304.07 46.23 304.11 45.32 304.86 45.11 305.81 45.76 Z M 300.44 45.14 301.92 44.69 302.59 45.1 302.75 45.71 301.84 47.48 300.43 47.79 300.25 46.79 299.34 46.33 299.09 46.99 297.42 47.62 297.02 46.61 297.42 45.17 297.98 45.03 299.35 43.74 300.44 45.14 Z" fill-rule="evenodd" id="36660310"/>
<path d="M 502.97 201.25 503.88 202.33 504.74 202.53 505.76 202.38 506.58 202.67 506.79 203.18 505.61 204.82 506.08 205.45 505.24 205.62 504.49 206.4 504.31 207.14 503.53 206.99 502.93 206.13 502.52 206.21 501.97 205.22 501.31 204.84 501.59 204.02 502.78 202.32 502.39 201.45 502.97 201.25 Z M 471.64 199.68 471.55 200.1 472.25 200.8 472.61 201.8 472.25 202.38 472.45 203.33 472.32 204.57 472.96 205.47 472.79 206.3 473.95 207.98 474.71 208.03 475.15 209.09 474.46 209.28 473.58 209.07 472.11 208.39 471.28 206.99 471.33 206.07 470.94 205.47 470.95 204.21 470.53 203.08 470.59 201.89 471.64 199.68 Z M 474.03 185.9 473.63 186.9 472.95 187.4 473.69 188.07 473.31 188.4 472.51 189.84 471.87 189.2 472.49 188.42 472.34 187.12 472.63 186.45 474.03 185.9 Z M 444.34 186.04 445.06 186.61 445.27 187.38 444.44 188.77 444.59 189.67 443.84 189.77 443.05 190.42 442.46 190.14 441.91 189.12 441.29 188.94 441.16 187.67 441.8 187 442.68 186.7 444.11 185.7 444.34 186.04 Z M 469.21 184.67 470.3 184.69 469.77 185.67 468.89 185.67 468.65 186.39 467.78 185.97 467.56 185 467.92 183.95 468.89 183.9 469.21 184.67 Z M 496.47 182.94 497.05 183.16 496.94 183.79 496.29 184.15 495.87 183.5 496.47 182.94 Z M 495.01 181.78 494.69 182.22 493.58 181.76 493.61 180.98 495.01 181.78 Z M 510.64 151.7 510.91 152.9 511.44 153.9 511.12 154.38 511.93 154.94 512.17 155.63 513.23 155.89 513.97 156.86 512.39 157.67 511.25 156.14 511.41 155.77 509.74 154.83 509.62 152.75 509.29 151.65 509.7 151.07 510.64 151.7 Z M 511.62 143.14 512.19 143.15 512.28 144.73 511.62 145.16 511.09 144.59 511.21 143.6 511.62 143.14 Z M 519.65 141.44 519.66 142.05 518.54 142.84 519.19 143.78 519.15 144.73 517.54 144.21 516.46 143.38 515.89 143.89 514.83 144.04 514.52 143.38 514.78 142.78 516.52 142.35 517.79 141.47 519.65 141.44 Z M 404.32 125.82 405.02 126.11 404.67 127.17 402.18 128.12 401.23 127.4 402.01 126.16 402.5 125.93 404.32 125.82 Z M 443.08 120.33 443.93 122 445.32 122.17 446.05 122.92 445.53 123.46 445.75 124.36 446.47 125.33 447.52 126.34 449.2 126.68 451.25 126.42 451.48 127.03 450.53 128.58 450.53 130.2 450.29 130.5 451.96 132.69 452.89 133.44 453.83 133.91 454.25 134.62 454.92 135.07 455.72 136.3 456.68 136.17 458.14 135.33 457.84 134.62 458.95 134.04 459.36 132.92 458.79 131.84 459.33 130.69 459.93 130.47 460.57 129.77 461.49 129.21 464.03 128.18 464.18 129.97 463.77 130.71 463.89 132.68 464.28 133.54 464.34 134.41 464.03 135.32 464.94 136.44 466.56 136.9 466.64 135.35 467.64 134.6 468.6 133.47 469.71 133 471.06 131.94 472.16 131.33 472.52 130.57 473.34 130.08 473.9 130.11 475.48 129.49 475.9 129.53 477.35 130.35 478.62 130.23 479.13 130.43 480.6 131.71 481.62 132.27 482.43 132.46 483.25 133.7 483.43 134.63 482.75 135.54 481.67 135.57 481.77 136.25 482.85 137.69 484.91 138.07 486.05 139.02 485.39 141.03 485.81 141.93 485.31 143.38 485.82 144.13 486.62 144.76 486.64 145.25 488.56 145.87 489.39 145.64 489.29 144.88 489.6 143.87 491.5 142.96 492.63 141.17 494.02 141.45 495.26 140.92 496.68 138.21 498.77 136.97 499.09 137.15 500.9 136.3 502.08 136.45 502.69 135.76 503.29 135.87 503.59 136.51 504.18 136.74 505.03 138.09 505.45 139.5 504.75 139.71 504.49 140.55 503.89 140.6 503.29 141.75 503.62 142.14 503.3 142.85 503.5 146.69 503.7 146.8 503.84 149.24 503.51 150.05 502.09 151.01 501.88 151.82 501.27 152.35 499.4 152.78 499.23 151.88 497.12 150.57 496.39 149.68 496.56 148.71 496.3 147.82 494.3 148.26 493.69 149.2 492.78 148.87 492.14 149.3 491.17 149.29 490.76 149.87 489.92 150 489.4 150.93 488.44 151.57 487.27 153.54 486.75 155.29 486.7 156.93 486.16 157.53 487.59 158.13 488.09 159.17 488.75 159.09 489.2 160.54 491.05 162.14 491.55 161.88 491.83 161.08 493.4 160.61 493.13 161.42 492.5 162.06 492.84 162.67 492.49 164.17 492.55 165.44 491.92 166.56 491.64 167.9 490.21 167.95 490.65 169.91 488.57 171.12 488.37 171.48 488.84 172.79 488.63 173.46 488.77 175.19 489.33 175.45 489.81 176.43 489.54 176.77 488.53 176.49 487.06 175.65 485.2 176.2 484.7 175.69 484 176.1 482.83 177.19 481.52 177.51 481.02 177.2 479.13 177.03 478.89 176.77 479.39 175.57 480.15 175.29 481.96 173.91 481.94 172.86 481.45 171.44 479.61 169.5 479.83 168.55 479.23 166.75 478.27 166.27 477.14 164.26 477.33 163.23 476.68 163.01 475.71 162.05 473.98 161.86 472.91 162.08 471.63 162.76 470.14 163.28 469.29 164.34 469.66 165.59 471.91 167.23 471.98 168.27 473.99 171.6 473.5 172.23 472.59 172.17 471.1 171.52 470.32 171.89 469.94 173.13 469.27 173.54 468.47 173.12 467.32 174.2 467.64 175.12 467.08 175.55 465.84 175.01 464.05 175.66 462.93 176.49 462.2 177.55 462.07 178.22 462.41 180.16 463.18 181.14 461.09 180.86 459.86 181.21 458.95 181.79 457.75 182.21 457.02 183.06 457.09 184.12 456.8 184.68 457.44 186.07 456.55 187.05 455.91 187.46 455.73 188.14 454.79 186.9 453.83 186.75 452.72 187.09 452.15 187.74 452.22 188.89 451.59 189.44 450.95 189.02 449.67 189.29 448.71 188.64 448.45 187.47 447.64 187.4 447.39 186.21 446.32 184.24 446.19 183.39 445.35 181.54 444.6 180.41 444.73 179.21 445.09 178.9 446.05 178.83 446.81 178.09 447.03 177.03 448.19 176.26 448.21 175.48 447.79 173.73 448.29 172.83 447.53 171.41 446.98 171.06 445.83 171.45 444.89 171.54 443.78 169.96 443.76 169.02 443.15 166.4 442.6 165.76 442.04 162.49 441.51 161.58 441.31 160.7 440.07 159.91 439.76 159.28 437.52 158.09 434.19 157.29 431.12 156.84 426 156.46 424.79 156.24 423.93 156.46 418.19 156.8 413.85 157.32 413.25 158.65 412.88 158.67 411.71 159.77 411.17 159.21 410.43 159.26 408.45 159.83 408.13 160.43 407.27 161.17 406.92 161.9 406.96 162.99 407.41 163.96 408.3 164.24 408.48 164.9 407.85 165.54 406.11 165.45 405.6 165.81 404.49 165.91 404.3 167.21 403.5 167.48 403.8 168.45 403.39 169.13 403.3 170.04 401.93 169.69 400.11 166.89 400.01 166.01 400.15 164.07 399.93 162.6 398.64 161.79 396.41 161.34 394.81 160.52 394.59 159.74 393.62 158.86 392.93 157.88 391.89 156.85 390.94 156.49 389.94 155.19 389.28 155 386.94 155.02 385.73 155.81 384.66 155.4 383.55 155.64 382.98 155.47 382.32 154.52 382.34 153.48 381.45 152.78 380.09 153.12 378.95 154.73 378.17 154.29 378.18 153.03 377.33 152.29 376.97 151.04 376.22 150.66 375.63 151 374.76 150.92 373.53 149.55 372.3 149.07 371.34 148.98 369.23 149.44 367.23 150.66 366.4 149.45 365.79 149.61 364.36 148.94 363.99 148.21 362.58 147.69 362.15 147.08 362.37 146.35 363.18 145.86 364.3 146.51 365.14 145.73 365.83 146.24 366.61 145.86 368.16 146.1 368.95 145.75 370.09 146.79 370.96 146.18 370.67 145.43 369.97 144.65 368.95 144.38 368.67 144 370.44 143.08 371.15 143.43 372.43 143.07 372.46 143.94 373.03 144.1 373.48 143.45 374.28 143.47 374.62 144.01 375.67 144.42 375.38 144.98 375.64 145.92 376.61 144.9 378.16 145.71 378.46 146.66 379.19 146.36 380.75 147.22 381.22 147.78 381.73 147.46 383.73 147.54 385.04 147.88 385.42 147.71 386.39 148.12 386.39 148.89 387.67 150.19 388.63 149.56 388.61 148.61 389.26 147.1 388.79 146.16 389.23 145.86 391.21 143.93 391.93 142.81 392.88 141.82 393.61 141.63 394.46 140.62 394.18 140.24 394.08 138.96 393.64 138.38 392.55 137.59 393.27 137.07 393.83 137.41 394.66 137.29 395.69 135.84 395.93 134.44 396.58 134.07 398.06 135 398.84 135.3 399.87 135.28 402.03 137.35 401.75 138.87 402.52 139.23 403.86 140.29 404.52 141.12 405.97 142.21 406.84 143.66 408 144.47 409.25 145.06 409.62 145.52 409.61 146.28 409.21 146.74 409.43 147.4 410.57 148.45 411.6 148.91 413.17 149.02 414.88 148.39 415.85 148.3 417.61 147.54 420.83 145.93 422.9 145.41 424.44 145.44 427.48 143.75 429.01 142.21 428.97 141.68 428.21 140.76 426.77 139.87 426.58 139.01 427.08 138.08 426.61 136.57 426.99 135.15 427.58 134.76 428.73 134.47 428.66 133.65 427.09 132.68 427.56 131.81 428.87 130.45 428.72 129.59 429.14 129.04 430.37 128.77 431.58 129.41 432.23 129.2 433.08 128.32 432.58 127.82 432.42 126.76 432.63 126.31 434.1 125.31 435.36 124.07 437.03 123.24 437.62 123.43 438.25 123.1 439.28 121.46 441.6 119.8 443.01 119.43 443.08 120.33 Z" fill-rule="evenodd" id="36660320"/>
<path d="M 379.74 125.41 380.31 126.03 379.75 127.07 378.68 125.95 379.74 125.41 Z M 463.59 84.61 464.24 86.41 463.69 86.98 462.53 86.78 462.6 86.1 462.08 84.95 463.59 84.61 Z M 471.68 73.66 470.39 73.57 470.1 73.27 470.73 72.26 471.25 72.19 472.12 73.05 471.68 73.66 Z M 480.2 53.85 479.98 55.44 479.03 54.7 478.47 54.93 478.18 54.28 479.43 53.86 480.2 53.85 Z M 469.72 52.5 470.97 52.68 471.55 53.11 471.89 54.21 471.08 54.72 470.1 56.19 468.92 56.72 468.7 56.54 468.54 54.72 469.08 53.34 469.72 52.5 Z M 457.77 48.78 457.02 48.23 457.66 47.48 457.77 48.78 Z M 468.76 44.99 469.39 45.34 469.83 46.88 468.5 47.9 467.41 48.41 466.72 48.32 466.08 48.97 464.92 48.9 464.13 47.71 464.07 46.8 463.47 45.39 463.11 43.24 463.74 42.18 464.59 42.33 465.51 43.04 468.16 44.72 468.76 44.99 Z M 480.97 38.84 481.47 39.17 482.06 42.5 482.47 43.86 482.92 44.55 483.08 45.96 483.61 47.75 483.66 48.44 484.15 50.04 484.88 51.35 484.28 51.63 484.25 53.71 484.64 54.17 484.45 55.21 483.53 53.92 482.82 53.34 482.66 51.8 482.06 51.56 481.46 50.63 481.72 49.89 481.53 48.7 480 47.79 478.72 47.34 476.93 46.38 476.36 45.43 476.43 44.75 476.94 44.47 477.25 43.43 478.5 42.81 479.17 41.78 479.5 40.4 480.04 39.46 480.97 38.84 Z M 384.26 37.14 385.42 37.57 384.83 38.44 383.83 38.26 384.26 37.14 Z M 460.82 34.13 461.2 34.86 463.23 36.88 464.25 36.82 464.45 37.44 463.97 38.66 464.05 39.33 464.54 39.81 464.95 40.91 464.57 41.42 463.79 41.48 462.89 41.08 462.23 41.41 461.75 40.88 460.85 38.55 460.94 37.37 460.52 36.75 459.95 36.82 458.89 36.27 460.82 34.13 Z M 360.75 95.34 360.31 95.26 360.34 94.38 361.62 92.64 361.8 91.67 361.71 90.35 362.42 88.71 363.56 88.63 364.79 88.02 365.8 87.27 366.19 86.67 366.24 82.01 367.71 80.02 368.72 78.36 370.76 76.65 371.69 76.46 373.53 76.73 375.78 75.38 377.53 73.63 378.72 71.56 378.82 70.8 378.17 69.54 377.62 69.12 377.23 68.24 375.77 67.84 375.26 66.02 374.17 64.93 373.89 62.99 374.27 60.69 374.61 59.89 376.3 57.45 377.06 57.28 379.62 56.03 380.51 55.83 380.94 54.91 380.45 54.6 380.69 53.9 382.13 52.34 382.73 50.12 384.08 47.54 385.04 44.52 386.2 43.71 387.02 44.09 387.62 44.03 388.03 43.18 389.45 42.03 390.38 41.55 394.23 37.67 394.36 36.73 395.03 36.45 396.83 33.71 398.43 32.6 400.49 32.17 401.33 32.16 403.03 32.51 403.95 32.44 404.94 32.84 405.94 32.91 407.46 34.45 408.21 34.23 410 34.29 413.04 33.23 414.19 32.63 415.98 32.11 418.34 31.27 419.71 31.28 421.77 30.34 422.73 30.95 423.5 31.81 424.22 31.84 424.96 31.48 425.93 31.56 426.39 30.94 425.55 30.47 424.43 29.49 424.35 28.94 425.75 27.71 427.87 26.7 428.28 25.5 429.68 25.31 430.51 25.82 431.8 24.79 433.57 25.24 434.92 23.97 435.9 23.87 436.77 24.33 437.72 22.7 438.42 22.64 439.25 21.69 441.9 20.51 442.52 20.02 443.16 20.38 442.78 22.16 442.86 23.23 443.71 23.48 443.99 24.54 443.46 24.8 442.7 24.16 441.89 25.24 441.59 27.7 442.48 30.14 442.32 30.76 441.5 31.53 441.49 32.5 442.54 34.28 443.15 34.55 444.12 34.33 445.74 33.54 445.55 32.45 446.32 31.32 447.96 31.3 449.89 32.93 450.91 34.46 451.65 35.26 453.07 35.29 453.54 35.71 453.88 37.89 452.82 38.19 452.03 38.91 451.17 40.02 450.66 40.35 451.16 41.29 451.98 41.69 452.45 42.32 451.17 43.38 449.8 43.89 450.41 44.96 451.64 46.58 451.57 46.98 449.94 47.78 448.05 47.83 446.23 47.05 445.3 46.98 444.76 47.44 444.76 49.2 443.89 48.97 443.46 47.78 442.73 47.22 441.13 46.44 440.31 46.83 440.25 45.87 438.42 45.36 437.73 45.53 436.97 44.95 436.16 44.73 434.32 45.25 434.49 46.14 433.54 46.43 432.7 46.21 432.73 48.6 434.15 49.22 434.77 49.89 435.76 50.43 436.9 51.55 437.61 51.88 438.73 51.93 440.39 52.97 441.68 52.86 442.72 53.12 443.7 54.3 444.7 55.23 445.37 56.36 445.97 56.66 447.13 58.12 448.59 58.16 449.24 57.51 449.06 56.65 449.48 56.38 450.34 56.58 450.91 57.28 451.53 56.31 452.73 55.85 453.53 54.95 453.37 53.41 453.79 52.89 453.83 51.49 454.26 50.5 455.94 50.68 457.93 49.52 458.51 50.79 459.47 52.05 458.76 52.98 459.2 54.32 460.68 55.29 461.01 55.96 460.59 56.38 458.93 56.37 458.29 56.56 458.07 57.23 458.57 58.45 458.2 59.87 457.14 60.56 456.21 60.29 455.67 61.09 456.58 63.46 457.31 63.73 458.42 63.09 460.07 63.12 460.36 64.14 462.19 63.87 462.09 62.32 463.27 61.36 464.58 61.32 465.16 62.06 464.87 62.91 464.9 63.97 465.64 65.49 465.74 66.3 466.72 67.5 467.84 67.9 466.88 69.01 466.88 69.62 467.5 69.89 468.35 69.58 468.5 70.3 467.88 70.88 468.62 71.62 468 72.48 466.81 73.12 466.43 74.96 466.73 75.43 469.18 75.23 471.59 75.25 472.87 74.41 473.86 74.98 472.65 77.04 472.59 79.79 473.22 79.98 473.09 80.78 473.38 82.3 472.74 83.26 471.94 83.49 470.86 83.25 468.3 81.8 467.77 81.19 466.79 81.04 466.04 80.64 464.37 80.52 462.62 79.88 461.47 80.11 460.12 81.97 460 82.95 458.61 83.1 458.1 83.5 458.15 84.52 457.33 84.69 456.89 84.21 456.32 84.29 454.83 82.78 445.54 88.99 444.46 89.94 442.01 89.31 440 91.13 439.65 92.1 439.9 92.81 440.9 93.6 440.7 94.3 439.57 95.91 439.61 96.44 438.24 96.69 437.73 95.64 436.56 94.9 435.9 92.74 434.77 90.94 433.67 89.93 433.58 88.97 433.85 87.44 431.96 86.29 431.28 86.82 429.72 87.34 429.39 89.26 428.31 90 427.93 91.54 427.45 92.19 426.5 91.35 425.67 91.11 423.72 91.65 422.48 91.52 420.9 90.5 419.94 90.77 417.84 91.09 417.21 90.26 415.82 90.29 415.67 89.23 414.92 88.22 413.92 87.99 412.11 88.33 410.51 89.49 409.41 90.87 408.16 91.8 407.87 91.15 407.2 90.56 406.53 90.6 405.07 91.14 404.13 91.8 402.99 91.63 402.33 91.97 400.56 94.24 399.79 96.37 398.83 97.15 398.24 98.57 397.37 99.91 397.69 100.86 397.22 101.96 395.78 102.73 395.17 104.03 394.99 105.21 393.33 106.54 392.93 107.17 392.28 107.49 391.38 106.87 390.25 107.21 390.41 107.6 389.98 110.3 390.17 111.51 391.33 111.97 391.63 114.74 391.17 115.62 389.86 116.66 389.25 116.69 388.79 117.24 388.29 119.42 387.02 119.19 386.49 119.79 386.27 120.58 386.39 121.9 386.81 121.94 387.1 123.06 387.67 123.57 388.18 124.81 389.68 125.08 390.52 125.86 389.67 126.69 388.3 126.66 387.12 125.82 387.19 125.49 385.99 124.71 383.36 124.64 383.04 122.54 382.31 121.08 381.45 120.58 379.77 120.47 379.05 121.33 378 120.91 376.13 118.82 375.87 117.79 376.75 114.15 376.49 113.04 377.39 112.31 378.17 111.36 378.63 110.47 378.19 109.3 378.82 108.66 379.49 108.46 380.2 106.9 379.98 105.26 380.58 104.94 381.75 102.51 382.2 101.09 382.19 99.91 382.97 99.7 384.21 100.32 385.41 99.95 386.06 98.71 386.15 97.28 386.48 96.33 387.56 95.19 388.45 95.3 389.28 93.16 389.26 92.1 387.52 91.59 386.09 92.26 385.27 92.39 383.17 92.22 382.12 91.66 380.82 91.27 379.06 91.26 377.98 91.42 376.52 92.24 374.25 91.87 373.17 91.92 371.49 91.67 370.27 91.03 368.54 90.46 367.38 90.36 366.15 90.77 365.3 92.87 364.56 93.23 364.03 93.98 362.36 94.32 360.75 95.34 Z" fill-rule="evenodd" id="36660330"/>
<path d="M 518.34 61.23 519.33 61.61 518.58 63.26 517.9 63.4 516.94 64.15 516.54 64.82 515.36 65.04 514.91 63.03 516.94 63.93 517.57 63.33 517.15 61.55 518.34 61.23 Z M 473.11 103.28 471.39 103.34 470.8 102.7 471.09 102.23 470.91 101.3 471.39 100.85 471.54 98.15 471.88 97.68 471.86 96 471.63 94.65 472.23 94.3 472.11 93.66 472.66 91.79 472.39 91.29 472.32 90.09 473.22 88.96 473.45 87.71 474.18 86.86 475 84.7 475.34 83.13 475.19 82.24 475.58 81.59 477.18 82.37 477.73 81.94 477.44 81.14 477.83 80.23 480 80.32 481.63 81.02 481.95 79.67 480.69 78.75 479.14 78.45 479.33 76.83 479.05 75.51 479.17 73.94 478.79 70.98 478.29 70.52 477.21 70.99 476.92 70.81 476.28 69.02 476.14 68.04 475.11 67.32 474.36 67.45 474.01 66.17 472.66 65.83 471.69 65.35 470.55 64.33 469.63 64.29 469.25 63.3 470.12 62.54 470.86 61.59 471.41 60.41 472.1 58.29 473.65 57.86 474.08 58.32 473.93 59.27 474.76 59.89 474.6 60.39 475.06 62.2 475.57 61.03 476.11 60.57 477.74 61.19 478.22 60.58 479.09 60.82 479.32 61.28 481.16 62.84 481.25 63.99 479.74 65.59 478.37 65.08 478.01 65.53 478.42 66.42 477.68 67.21 478.16 68.72 479.34 69.9 480.37 69.57 481.64 70.63 481.54 72.15 481.91 72.25 482.61 71.38 483.17 71.38 484.95 71.91 485.74 72.57 486.15 72.06 486.35 70.05 487.37 69.47 487.58 69.05 488.71 68.64 489.51 67.88 488.81 66.79 488.52 65.37 488.48 63.79 488.69 62.92 489.19 63.08 490.53 64.51 491.1 65.92 492.62 67.48 493.89 68.42 494.99 68.52 495.52 69.71 497.09 70.54 497.08 72.86 498.61 75.06 499.68 75.24 500.35 75.97 502.39 75.39 502.39 74.82 503.12 74.28 502.91 73.72 501.96 73.27 501.5 72.15 502.16 71.16 500.5 70.14 500.66 69.22 501.51 68.37 501.3 67.3 502 67.01 502.99 67.74 504.27 68.19 504.8 67.97 505.09 70.04 505.03 70.71 504.11 71.57 504.04 72.81 504.51 73.14 506.3 73.61 507.52 73.6 508.74 73.3 508.81 72.36 508.4 71.27 509.42 70.29 510.24 68.42 512.45 68.17 513.84 68.58 513.12 69.05 512.98 69.8 512.29 71.01 512.59 71.87 514.06 72.6 516.1 74.72 516.71 75.18 517.48 75.01 518.51 76.11 518.49 76.66 519.16 77.28 519.47 78.17 518.27 80.56 518.76 81.17 520.5 81.36 520.93 81.17 522.24 81.24 522.75 80.64 524.49 79.89 525.28 79.16 525.57 78.12 526.4 77.38 527.64 77.7 528.38 78.71 527.56 80.04 528.45 80.71 528.92 80.28 530.12 80.17 530.6 79.8 530.5 78.93 531.29 78.29 532.05 78.3 533.13 79.6 533.51 80.38 534.46 81.09 535.53 81.24 536.21 82.12 540.98 80.64 541.73 80.16 541.53 79.5 540.9 79.36 540.51 78.78 540.48 77.81 541.35 76.15 542.78 75.05 542.63 74.21 543.22 73.13 545 71.98 544.4 71.28 544.75 69.87 547.26 68.72 548.06 67.95 547.99 64.92 546.24 64.15 545.54 63.15 545.64 62.56 547.68 62 549.1 60.78 548.52 59.97 547.47 57.98 547.52 57.35 548.37 56.11 548.97 56.48 550.06 56.59 550.8 56.41 551.2 57.82 552.39 59.08 552.87 59.36 553.49 61.59 554.88 61.75 554.91 63.54 555.54 64.95 555.9 66.14 555.94 67.16 555.38 67.73 555.14 68.89 554.19 69.62 553.24 71.13 552.8 71.29 551.45 72.6 551.41 73.65 550.75 74.42 549.45 75.46 548.25 77.05 547.99 78.76 548.76 80.04 548.86 80.66 548.02 82.59 547.77 84.11 547.87 84.67 547.28 86.56 546.72 87.45 544.88 88.41 544.3 89.14 543.96 88.63 541.99 88.94 540.59 89.77 540.28 90.29 540.92 91.18 541.96 91.17 544.4 91.84 545.33 91.81 545.31 92.36 546.08 92.46 547.33 93.11 547.42 93.41 548.9 94.93 550.48 96.19 551.94 96.81 552.66 97.65 553.16 99.76 553.59 100.67 553.82 101.98 554.26 103.13 553.79 104.24 554.03 105.66 553.93 106.22 553.16 107.38 553.22 107.99 552.82 108.89 551.74 108.97 550.32 109.48 549.31 110.18 547.85 110.64 546.88 110.29 546.04 110.7 545.42 110.54 544.3 110.95 543.49 110.92 542.43 109.8 542.11 109.86 540.73 108.14 539.43 106.84 537.96 106.17 536.87 105.89 535.68 106.3 534.63 105.79 533.03 106.55 533 107.2 533.6 108.33 533.39 108.92 532.57 109.38 531.25 109.38 530.26 110.13 529.29 110.35 528.97 111.24 529.25 111.7 528.77 112.78 528.82 113.31 529.72 113.73 529.33 115.02 530.04 115.63 530.05 116.47 529.7 117.32 528.74 117.72 528.03 118.62 527.16 118.68 525.42 120.39 525 120.44 524.1 121.69 523.43 122.24 523.23 122.88 520.46 122.49 520.33 123.13 518.89 122.83 518.19 121.78 518.47 121.25 517.94 120.55 518.25 119.98 517.08 119.24 515.4 119.33 513.98 119.95 513.29 120.96 513.56 122.18 514.14 122.61 514.66 123.56 514.95 125.29 514.33 125.79 512.16 125.1 510.61 123.9 510.64 123.51 509.36 122.8 507.67 122.58 506.78 121.69 505.6 120.11 504.44 119.88 500.43 121.42 500.61 121.06 503.81 119.84 503.49 119.01 501.17 117.95 501.05 117.37 500.46 117.2 499.86 117.58 498.74 117.74 497.75 117.64 497.6 118.81 496.26 119.62 495.64 119.49 494.45 118.12 493.89 117.04 493.59 115.98 493.74 114.81 494.78 113.96 495.51 112.75 495.24 111.81 493.71 111.27 492.26 111.14 490.88 110.77 490.53 110.18 477.83 108.19 477.55 108.59 475.71 107.37 474.8 106.54 474.37 105.53 473.87 103.72 473.11 103.28 Z M 558.65 52.5 559.07 53.66 559.03 56.21 559.21 57.03 558.54 57.79 556.9 59.19 556.35 58.87 555.41 57.78 554.52 56.11 554.41 55.42 555.07 54.71 556.15 54.88 557.43 54.48 558.12 52.4 558.65 52.5 Z" fill-rule="evenodd" id="36660340"/>
<path d="M 527.42 551.25 529.32 552.13 531.69 552.15 533.07 553.25 534.27 553.83 535.26 555.05 536.53 555.54 536.94 556.23 538.11 557.22 538.89 558.28 538.71 558.89 539.08 560.3 539.57 560.88 539.54 561.84 539.95 562.44 540.8 562.06 541.43 562.54 541.09 563.54 541.99 564.67 541.32 565.26 541.02 566.76 541.23 567.16 541 568.14 541.53 568.32 542.16 570 542 570.82 541.47 571.62 540.24 572.44 540.17 574.97 539.55 576 538.3 575.81 537.1 574.83 534.71 573.16 534.22 573.58 533.5 572.61 531.9 574 531.92 574.54 530.5 575.17 529.72 574.84 527.94 574.99 526.84 574.57 525.8 574.93 522.77 574.59 521.41 574.53 519.66 574.64 519.16 573.59 519.06 572.67 518.18 571.98 518.49 570.91 519.24 569.2 517.83 568.02 517.74 566.31 516.55 565.51 515.9 564.14 514.87 562.77 515.06 560.39 514.85 559.62 515.59 558.77 515.77 557.73 516.42 557.68 517.16 557.13 517.73 556.04 517.54 555.43 518.91 554.45 519.31 554.46 519.88 553.4 522.59 551.9 524.17 551.85 525.06 552.18 525.74 553.24 526.11 554.26 526.19 555.41 527.71 555.09 528.4 553.35 528.78 553.48 529.19 552.4 527.42 551.25 Z M 506.03 366.15 506.57 366.86 506.16 367.52 505.08 367.22 505.49 366.44 506.03 366.15 Z M 358.56 356.1 358.95 356.17 359.26 357.22 359.64 357.54 359.74 358.7 358.84 359.29 358.34 360.73 358.09 362.2 357.45 362.21 357.66 363.07 358.42 364.83 358.21 365.28 357.22 364.15 356.13 363.91 355.65 364.92 356.42 365.93 356.2 367.51 355.36 366.85 354.59 365.44 355.09 364.88 354.46 364.39 354.48 363.55 355.64 362.17 355.77 361.21 357.68 359 357.99 357.2 357.8 356.5 358.56 356.1 Z M 456.99 314.72 457.46 315.15 457.48 316.43 457.75 316.93 457.42 317.8 456.04 318.58 454.16 318.19 452.84 317.28 452.85 316.11 451.99 315.77 451.67 314.99 452.4 314.93 454.03 316.39 455.23 316.31 456.77 315.19 456.99 314.72 Z M 455.98 297.87 455.13 299.03 455.64 299.85 457.41 299.54 458.04 300.09 459.03 299.54 459.78 299.63 462.58 300.76 463.67 300.65 465.34 300.92 466.45 301.5 465.52 301.94 465.25 301.42 463.83 301.22 462.84 301.52 461.94 301.38 461.01 301.68 459.8 301.28 458.89 301.38 458.34 301.81 457.18 301.59 455.46 301.87 454.11 301.7 452.35 300.75 453.26 299.68 453.81 298.33 455.98 297.87 Z M 373.5 291.55 374.12 292.06 374.33 292.9 375.12 293.33 375.89 294.85 376.87 295.82 376.64 296.08 377.63 296.93 378.55 298.93 378.4 299.79 378.89 300.25 379.15 301.12 379 303.56 378.23 304.72 378.42 305.7 379.29 306.75 379.95 306.7 380.39 307.32 381.61 308.19 382.28 307.95 382.39 308.83 383.14 309.21 383.17 310.18 381.85 310.71 381.35 310.28 380.46 310.27 379.2 310.68 378.33 311.45 378.65 312.17 378.32 312.69 378.71 313.53 379.41 313.57 379.26 315.41 379.36 316.36 378.67 317.54 378.01 318.12 377.69 317.46 376.8 317.35 376.44 316.87 375.78 316.81 375.27 317.39 375.22 318.1 374.05 318.17 373.11 319.84 372.73 320.8 372.65 322.16 372.26 322.53 372.67 324.31 372.71 325.2 372.23 325.72 372.14 327.05 372.29 328.46 372.1 329.56 371.75 330.12 371.74 331.37 371.36 331.91 370.52 331.88 369.81 331.29 369.64 329.38 368.97 327.63 367.61 327.24 366.85 326 366.15 325.83 364.95 324.38 364.62 322.6 363.29 320.55 361.11 320.74 360.03 319.91 359.83 319.28 360.08 318.33 360.51 317.76 361.14 316.08 362.42 314.16 362.32 313.09 362.59 312.56 362.1 310.6 363.16 308.71 363.05 306.47 362.52 305.58 360.92 304.88 361.07 303.74 362.42 302.54 362.01 302.11 362.14 301.4 362.97 301.02 362.63 299.7 363.07 298.8 364.46 297.03 365.04 295.57 365.25 294.25 366.24 294.21 367.5 295.09 368.79 294.96 370.32 294.11 370.45 293.67 372.26 291.93 373.5 291.55 Z M 496.84 284.82 497.82 285.05 498.59 286.03 498.23 287.12 497.66 287.43 497.61 288.3 498.38 289.36 499.3 289.33 499.95 290.04 502.06 290.6 502.66 290.93 504.92 291.11 506.64 291.6 507.26 291.2 508.26 291.06 508.6 290.39 509.67 289.36 511.39 289.28 512.7 288.49 513.52 288.78 513.89 290.09 514.65 289.32 515.38 289.4 515.7 290.18 516.32 290.72 515.45 292.13 515.82 292.88 516.74 293.19 517.28 293.91 517.09 294.7 517.46 295.25 517.93 296.68 517.41 297.38 517.32 298.39 515.77 299.09 515.85 299.64 515.13 300.12 512.95 300.6 511.59 301.3 510.99 300.98 509.83 302.05 509.65 303 511.06 304.16 513.08 305.26 513.15 305.76 513.95 306.85 513.85 307.64 514.53 309.46 516.84 310.32 517.49 311.46 517.8 314.05 518.24 314.27 518.03 315.26 516.62 315.16 516.23 315.95 516.24 316.81 516.58 317.67 517.09 318.2 517.18 319.7 515.92 320.62 515.61 322.26 513.89 322.66 513.24 323.66 514.38 324.88 515.03 324.9 515.64 325.37 516.9 325.33 517.54 324.96 519.14 322.63 520.31 321.75 521.84 320 523.05 320.58 524.22 320.53 524.58 320.02 525.47 320.19 525.41 319.55 526.55 318.53 527.51 318.22 528.5 317.47 529.09 315.13 529.59 315.13 531.83 316.8 533.73 317.42 534.35 317.03 535.28 317.79 536.12 317.76 536.5 318.36 534.25 318.25 532.86 319.21 531.87 319.16 530.85 318.85 531.23 319.73 531.27 320.73 530.73 321.15 528.64 320.2 527.13 320.03 526.37 320.5 525.73 321.44 526.89 322.49 527.27 323.82 527.99 324.91 527.62 325.3 527.9 326.15 527.44 326.52 527.64 327.18 529.6 327.84 529.95 328.83 529.49 329.39 529.49 330.18 530.03 331.78 530.1 333.51 531.06 336.12 530.16 337.09 528.05 336.94 527.46 338.01 526.66 338.56 526.31 339.38 526.53 340.18 525.54 340.64 525.17 342.08 525.46 342.62 525.59 343.8 524.89 344.02 524.19 345.04 524.58 345.47 523.86 346.02 524.05 347.91 524.11 349.93 523.69 350.24 523.47 354.03 522.88 354.67 522.82 355.31 522.27 355.59 521.06 358.69 520.56 359.46 519.9 359.94 518.66 359.34 517.87 359.26 517.2 359.68 516.46 359.35 515.84 360.07 514.85 359.94 514.84 360.59 514.25 362.01 514.38 362.86 513.11 363.23 511.8 362.27 511.78 361.57 512.2 359.8 511.79 358.61 510.8 358.05 509.18 358.81 508.25 359.02 507.52 358.69 507.52 358.18 506.5 357.19 505.23 357.05 505 357.7 503.77 358.59 503.21 358.42 502.48 358.75 500.83 358.56 499.56 358.98 498.82 359.5 498.37 360.22 498.29 361.37 496.78 360.72 496.32 361.2 495.26 361.18 494.54 361.5 494.95 362.16 494.85 362.86 493.91 362.67 492.86 361.97 491.37 362.04 489.97 362.33 489.4 363.69 488.64 364.02 487.57 363.95 486.64 363.01 485.53 362.44 485.11 361.76 486.17 360.7 486.59 360.57 486.84 359.62 487.42 359.76 487.85 359.13 487.87 357.7 487.26 357.01 486.41 357.18 485.19 356.61 485.21 355.52 484.96 355.05 484.26 355.24 483.51 354.93 481.16 353.09 480.79 352.49 479.95 352.11 478.47 350.11 478.6 349.73 478.33 348.38 478.88 347.87 478.74 346.79 477.77 345.9 477.58 345.21 476.78 344.83 475.64 344.7 475.53 345.79 474.9 346.45 473.55 346.33 472.85 345.83 472.65 345.06 471.84 345.13 471.43 345.87 468.74 348.22 467.73 348.87 466.75 349.91 466.55 350.4 466.98 351.72 467.59 352.68 467.29 353.7 467.75 354.9 467.23 356.21 466.55 356.67 466.52 357.46 465.33 358.65 465.48 359.71 464.88 360.78 465.15 361.28 464.63 362.41 463.68 363.02 463.28 362.64 462.96 360.38 463 359.47 463.33 358.79 462.8 357.92 461.37 358.21 460.84 357.18 461.12 356.71 460.51 355.99 460.45 355.34 460.82 354.6 460.77 353.66 462.04 352.49 462.51 351.39 461.81 350.27 460.46 350.5 459.3 350.2 459.22 349.19 457.88 348.25 456.99 348.89 455.82 348.67 456.09 348.04 457.08 347.53 457.73 346.55 458.01 345.38 459.2 344.72 460.8 344.58 462.13 344.9 463.54 343.85 464.88 342.35 465.21 341.69 466.32 340.88 466.78 339.85 466.23 338.52 465.27 337.4 463.75 336.55 462.69 336.53 461.52 338.35 461.1 339.6 459.86 340.46 459.32 341.07 458.08 341.3 457.47 340.47 458.24 339.92 457.81 338.81 456.39 338.66 455.11 337.17 455.22 336.7 454.93 335.43 455 334.23 456.15 334.29 456.77 333.62 456.75 333.13 457.67 332.12 456.61 331.3 456.41 330.42 456.96 329.71 458.33 326.56 458.52 326.66 457.14 329.81 458.16 330.71 459.93 330.68 460.25 329.83 460.72 329.65 461.53 330.37 462.28 330.71 462.59 331.6 463.43 332.38 464.52 331.76 464.97 330.66 464.66 329.84 464.78 328.27 462.96 327.37 461.19 327.26 461.54 326.02 460.7 325.59 461.19 324.55 460.96 323.15 460.31 322.03 460.85 320.91 462.09 320.26 463.82 320.02 464.72 317.36 464.06 315.46 463.66 315 464.81 313.92 466.28 313.42 467.48 313.29 468.48 312 468.86 310.36 468.9 308.84 468.74 307.83 468.14 306.75 467.69 306.53 465.29 306.45 464.51 306.14 465.77 304.49 467.43 304.19 468.9 304.24 470.22 304.03 471.85 303.29 472.42 302.75 474.05 301.89 475.61 301.89 476.52 301.52 477.96 300.45 479.36 298.8 480.2 297.26 480.37 296.11 479.21 295.45 478.88 294.64 479.2 294.14 478.91 293.34 480.61 292.79 480.85 292.3 482.3 291.54 482.76 290.64 482.62 290.07 484.07 289.65 484.64 289.99 485.59 291.07 487.5 291.02 489.32 289.6 490.57 290.19 491.26 289.03 490.41 288.13 490.18 286.64 490.45 286.03 491.24 285.49 492.28 285.58 493.26 285.14 494.84 286.46 495.28 286.23 495.4 285.26 496.08 284.85 496.84 284.82 Z M 379.47 270.62 380.86 271.27 380.74 271.7 381.91 272.14 382.58 272.66 383.66 272.89 385.06 272.73 385.51 273.28 387.15 273.17 387.78 273.54 387.7 276.23 387.46 277.02 386.98 277.35 386.64 278.22 386.17 278.59 383.42 279.29 381.91 278.52 380.93 278.41 380.75 277.6 380.14 277.23 379.66 275.94 379.85 274.88 379.57 273.57 378.67 272.16 379.17 271.7 379.47 270.62 Z" fill-rule="evenodd" id="36660350"/>
<path d="M 204.93 404.3 206.63 404.83 207.19 405.39 209.23 406.34 210.24 407.62 210.09 408.01 208.62 408.81 208.42 409.83 208.55 410.84 209.24 412.14 210.16 412.3 211.23 414.12 211.55 414.92 212.46 415.58 213.63 415.73 215.85 416.41 216.32 417.6 217.01 418.44 217.21 419.34 217.81 419.73 217.84 421.01 217.62 421.57 218.62 422.17 218.79 422.59 218.38 423.64 217.51 424.64 216.85 424.66 216.17 425.24 214.93 425.02 214.34 423.82 212.38 422.54 211.07 422.92 210.2 422.45 208.9 422.34 208.6 421.71 207.58 421.35 205.73 421.54 204.6 421.34 204.13 420.93 201.22 420.89 200.47 420.56 199.65 421.27 198.86 422.41 197.97 422.72 197.83 422.13 198.13 420.67 198.9 420.23 199 419.17 200.07 418.48 200.45 418.5 203.57 417.28 204.48 416.21 204.62 415.14 204.34 414.52 203.29 413.67 203.74 412.28 204.51 411.42 204.53 410.81 205 410.32 204.58 409.12 201.94 407.91 200.89 407.67 199.9 406.91 199.77 405.98 200.11 405.5 202.87 405.35 203.97 405.02 204.93 404.3 Z M 251.11 395.82 251.35 396.34 251.02 397.01 250.33 397 250.64 396.15 251.11 395.82 Z M 240.98 306.48 242.28 307.03 242.94 307.85 243.4 308.9 242.34 308.76 240.39 306.61 240.98 306.48 Z M 262.81 304.84 263.48 304.9 266.18 305.76 266.61 306.01 268.96 308.44 269.79 309.07 271.49 309.82 272.29 310.62 273.73 311.4 275.33 311.7 277.7 311.45 278.59 311.13 278.93 310.63 279.83 310.8 280.45 311.38 280.96 313.46 281.83 316.15 282.67 317.13 283.35 317.42 288.36 318.66 290.19 319.84 290.89 320.63 292.32 321.65 292.93 322.79 293.76 323.48 294.85 325.55 296.9 326.61 296.31 327.11 296.07 328.05 295.08 328.42 294.3 330.03 294.52 331.2 293.38 331.9 292.46 332.76 290.78 333.38 289.09 332.73 288.73 333.59 287.71 334.13 286.36 333.89 285.11 334.37 283.62 334.22 283.3 334.39 281.72 333.87 280.04 334.73 278.73 334.77 277.03 334.53 275.41 334.67 271.56 335.86 270.38 336.69 269.77 336.49 268.66 337.81 268.82 338.25 268.24 339.62 268.25 341.4 268.79 344.13 269.11 345.22 270.07 346.84 271.68 348.1 272.94 348.4 273.82 348 274.16 347.45 275.06 347.45 275.56 347.02 276.83 346.82 277.25 347.79 278.29 348.08 280.68 349.55 280.59 350.85 280.04 351.83 279.12 352.57 279.02 353.71 279.81 354.82 279.74 355.3 280.65 355.41 281.48 355.94 281.74 356.7 280.98 358.55 281.41 359.28 281.51 360.94 282.23 361.15 281.04 363.45 281.82 364.57 282.86 364.27 283.11 364.81 282.01 365.31 281.96 365.72 282.8 366.44 283.88 366.41 284.55 365.15 285.18 365.15 286.58 364.15 286.96 363.31 287.93 363.21 288.43 362.77 289.35 362.5 290.81 361.7 291.81 363.42 293.43 363.52 294.65 364.68 294.67 365.43 294.11 367.13 293.42 366.92 293.41 367.86 293.04 368.23 292.1 368.21 292.1 369.21 292.88 369.53 293.14 370.61 291.95 371.33 291.36 371.45 291.27 372.16 292.35 372.43 292.18 373 292.72 373.33 292.18 375.54 290.81 374.15 290.08 374.33 289.54 375.43 289.85 375.93 288.57 375.99 288 374.42 288.65 373.46 288.89 372.57 288.7 371.93 287.59 371.6 287.51 371.09 285.63 370.47 284.08 368.84 282.49 369.33 281.65 369.99 280.75 371.47 280.87 372.69 282.62 373.97 283.72 374.23 283.84 376.14 284.22 377.2 283.83 379.97 284.39 380.51 284.1 381.06 284.16 381.95 284.97 382.68 284.41 383.84 284.41 384.78 284.08 385.32 283.79 387.01 282.05 386.86 281.57 387.4 281.81 388.91 279.65 389.11 278.55 390.14 278.61 392 280.45 393.03 281 393.76 281.27 395.02 281.03 395.58 281.56 396.47 281.31 396.9 282.19 397.63 281.78 398.52 280.15 398.38 280.01 398.79 278.39 399.51 278.71 401.59 276.02 401.12 275.31 401.61 274.84 402.67 276.34 404.4 276.01 405.77 276 406.61 275.46 406.79 275.67 407.68 274.63 408.17 273.64 408.01 271.8 408.51 271.85 407.96 272.74 407.39 272.88 406.55 271.65 406.18 271.55 405.55 270.71 404.52 268.94 403.89 268.01 403.84 267.32 404.85 265.87 405.04 264.07 403.98 262.84 404.33 262.96 403.7 262.69 402.68 263.48 402.06 265.52 401.77 265.71 400.89 265.61 399.5 264.84 398.02 262.76 396.41 262.93 395.85 262.55 394.87 262.59 393.01 263.28 392.67 263.22 391.52 263.93 391.21 264.17 390.54 264.77 390.19 264.98 389.38 264.65 388.18 263.98 387.32 262.18 386.01 261.03 385.61 259.57 385.46 257.79 385.89 257.04 386.54 257.14 389.49 256.59 390.12 255.17 390.24 254.5 391.01 253.59 391.05 252.12 392.98 252.48 393.67 252.27 394.71 250.95 395.51 250.55 395.32 249.82 394.16 250.07 393.19 249.58 392.73 249.45 391.79 248.77 389.41 248.61 388.44 248.96 387.57 249.87 386.55 250.08 385.81 249.12 383.21 248.55 381.31 247.61 380.39 246.14 379.92 245.26 379.12 243.41 379.47 243.01 379 243.05 377.96 244.53 377.39 245.1 376.15 246.46 374.77 246.74 373.69 246.68 372.57 245.53 370.44 244.54 369 243.2 368.22 241.31 368.34 241.14 366.52 243.71 363.67 245.2 363.51 246.44 363.9 246.93 364.36 248.05 363.89 249.29 362.61 249.98 359.35 249.94 358.81 252.05 356.5 252.51 355.37 252.54 353.7 252.95 352.83 253.37 350.76 255.46 348.09 257.65 346.96 258.92 345.8 259.85 345.86 260.71 344.63 261.6 343.87 262.84 343.27 263.89 341.38 264.66 340.77 264.91 339.45 264.78 337.87 264.03 337.2 262.91 336.96 262.25 336 260.66 335.68 260.36 334.21 259.71 333.55 256.03 333.53 255.76 333.41 254.08 330.64 252.77 330.36 250.33 328.9 248.82 328.35 247.7 328.44 247.81 327.82 248.55 327.76 249.04 326.62 250.05 326.26 251.87 326.61 253.48 325.94 254.51 324.63 254.63 323.09 253.94 322.31 253.4 322.49 252.75 322.03 252.06 322.34 250.72 322.48 249.53 322.12 249.41 321.44 248.79 320.77 246.64 319.08 247.08 318.33 248.02 318.24 248.88 318.65 249.45 317.99 250.45 318.28 250.53 319.23 250.98 320.46 251.86 320.54 253.53 320.06 254.34 320.87 255.24 320.79 256.17 320.3 256.35 319.8 256.11 318.27 257.73 317.3 259.56 315.89 260.14 315.15 260.28 314.28 260.93 313.91 261.04 312.98 259.1 311.89 258.59 311.91 258.86 309.99 258.98 308.17 259.23 306.89 260.58 306.85 261.18 306.58 262.08 305.3 262.81 304.84 Z M 248.11 294.33 249.67 294.46 250.37 295.45 251.41 296.09 251.99 297.47 251.93 298.71 250.71 299.62 248.54 299.56 247.47 299.36 246.61 299.47 245.51 298.87 244.27 296.94 244.84 295.89 245.65 295.19 247.49 294.34 248.11 294.33 Z M 226.82 245.24 228.09 245.57 228.62 245.49 231.05 246.06 232.63 247.76 232.62 248.27 234.21 249.34 236.26 249.87 236.06 250.74 235.47 251.58 235.46 252.72 236.82 254.96 237.37 255.49 237.4 256.05 238.73 257.28 239.3 257.62 239.51 258.61 240.01 259.49 239.45 260.3 237.86 260.82 236.99 260.33 236.73 259.71 235.62 259.34 234.67 259.29 233.69 258.97 233.11 259.4 232.23 259.32 231.38 259.79 231.39 260.3 230.73 260.94 230.17 260.88 229.93 261.95 230.22 262.22 229.53 263.08 227.89 263.94 227.78 265.32 227.16 265.81 225.65 265.24 224.59 263.31 225.24 262.04 224.62 261.25 223.46 260.77 221.55 260.74 219.94 261.46 219.83 261.91 218.94 263.04 218.24 263.27 216.82 264.98 217.01 265.51 215.7 266.18 214.34 266.15 213.53 266.44 212.63 266.39 212.57 265.21 212.09 264.88 210.47 265.64 209.91 265.05 208.93 265.14 208.5 264.21 207.73 263.37 207.74 262.24 208.78 260.93 208.58 260.4 209 259.46 209.22 256.58 208.95 255.04 210.42 253.19 211.54 252.06 212.19 251.97 213 250.68 214 250.16 214.43 250.32 215.33 251.65 213.92 254.14 214.41 254.54 215.2 253.91 216.14 253.98 216.47 253.43 216.25 252.54 216.73 251.78 216.01 249.94 216.81 248.94 216.99 248.27 218.28 247.66 219.38 246.77 220.11 246.5 220.1 248.11 219.7 248.66 220.43 251.24 221.25 252.59 222.41 252.64 222.12 251.3 221.63 250.44 221.74 249.5 222.43 249.05 221.8 247.68 222.92 247.2 223.65 246.11 224.52 246.3 224.82 246.8 226.17 246.66 226.94 247.4 228.12 246.22 226.66 245.75 226.82 245.24 Z" fill-rule="evenodd" id="36660360"/>
<path d="M 643.59 66.09 644.23 66.66 644.13 67.93 643.24 69.08 643.03 68.44 643.33 67.93 642.99 66.42 643.59 66.09 Z M 652.15 65.78 652.16 66.51 651.73 66.99 650.65 66.93 651.4 65.85 652.15 65.78 Z M 641.1 64.69 641.89 65.25 641.71 66.38 642.11 66.93 641.28 68.08 640.58 67.57 640.51 66.71 640.08 66.24 640.09 64.8 641.1 64.69 Z M 653.73 64.19 654.14 64.78 653.31 66.03 653.02 65.3 653.18 64.13 653.73 64.19 Z M 636.13 61.23 636.75 61.51 637.05 62.35 637.15 63.68 637.87 64.48 637.93 65.53 637.57 66.58 638.5 66.76 638.79 68.4 638.6 69.39 638.05 69.25 636.86 67.56 636.42 66.51 635.78 66.39 635 66.74 634.84 67.29 634.08 67.89 633.59 67.32 633.87 66 634.42 64.9 635.05 64.11 634.99 62.9 635.47 62.4 635.72 61.51 636.13 61.23 Z M 717.37 55.08 718.29 55.73 719 57.55 718.77 59.04 717.76 61.7 717.24 62.18 716.14 62.59 715.59 62.16 715.92 59.99 716.72 58.52 716.48 56.38 715.96 55.64 716 54.29 716.81 53.95 717.37 55.08 Z M 636.81 45.23 638.48 45.55 637.99 46.12 636.55 46.77 636.27 46.15 636.81 45.23 Z M 613.73 42.69 613.2 45.55 612.73 45.37 612.34 44.37 613.2 43.02 613.73 42.69 Z M 679.43 41.94 679.82 41.02 679.64 40.18 680.79 39.94 682.95 40.21 682.86 40.69 683.5 41.65 684.81 42.26 685.13 44.05 683.51 44.62 684.33 45.45 685.38 45.7 685.9 46.47 686.25 47.68 686.25 49.39 686.67 51.28 686.19 52.11 684.81 51.59 684.59 51.29 684.57 49.98 683.75 50.32 684.02 51.69 684.47 52.52 684.37 54.47 682.7 54.65 682.29 54.34 682.43 52.68 681.86 52.49 681.08 53.4 680.49 53.63 679.66 53.48 679.28 53.99 679.4 54.81 679.82 55.01 679.36 56.31 679.99 56.97 680.2 58.36 680.83 58.56 681.4 57.05 681.77 56.76 682.78 57.15 683.24 57.95 682.23 58.52 682.78 58.96 683.07 60.13 683.07 61.07 682.74 61.72 683.47 63.14 683.39 63.7 682.06 62.87 681.77 61.97 680.42 60.17 678.87 59.37 676.85 59.06 676.94 58.44 677.53 58.06 678.24 57.14 677.6 56.19 677.73 54.89 677.33 53.9 677.68 52.67 678.26 52.62 678.28 51.91 680.27 51.59 679.95 51.1 680.12 50.4 679.75 49.2 680.08 49.02 680.65 47.07 680.03 46.18 679.8 44.42 679.12 43.17 679.56 42.84 679.43 41.94 Z M 610.57 32.04 610.63 32.56 609.8 32.79 609.28 31.92 609.53 30.58 610.57 32.04 Z M 611.76 27.07 612.13 26.82 613.19 27.39 613.66 28.42 614.88 29.08 614.57 29.76 613.06 29.62 611.93 28.93 611.73 28.16 610.58 27.4 609.6 28.32 609.46 27.34 610.19 27.31 609.81 25.37 610.52 24.99 611.02 25.78 611.05 26.75 611.76 27.07 Z M 610.01 20.75 609.23 20.62 609.53 19.47 610.15 19.15 610.01 20.75 Z M 625.31 11.94 626.52 13.04 627.19 14.48 627.12 15.64 626.24 15.23 625.08 16.32 624.14 15.94 623.71 14.85 622.75 14.02 622.62 13.13 623.99 12.09 625.31 11.94 Z M 645.43 1.18 646.47 1 647.15 1.6 647.38 2.32 647.04 3.44 648 4.01 649.3 5.54 651.62 9.68 652.33 10.48 653.41 10.7 653.5 11.36 654.45 11.37 654.61 10.91 654.29 9.61 654.54 8.86 656.68 8.62 657.47 8.94 657.79 8.58 659.92 9.22 660.24 8.8 659.75 8.04 658.88 7.72 659 6.39 657.93 6.42 656.59 5.33 655.93 4.52 656.08 3.43 656.55 2.76 657.72 3.14 658.48 4.42 660.6 5.17 660.52 5.7 661.38 6.5 662.62 7.03 662.69 7.35 664.6 8.93 665.64 10.49 666.34 11.02 667.1 12.33 667.16 13.11 668.32 16.08 669.34 17.91 669.33 18.41 669.86 19.58 670.41 22.55 670.97 23.93 670.18 24.51 670.98 25.11 671.56 26.08 671.19 27.33 670.71 27.06 669.34 27.96 669.39 28.3 670.67 28.28 670.34 29.01 670.64 29.59 670.5 30.34 671.25 30.66 671.03 31.57 671.82 31.49 671.7 30.15 672.19 29.47 672.96 30.69 673.34 30.8 674.16 33.09 673.85 33.95 674.08 34.96 675.41 36.85 676.37 37.57 676.33 38.97 674.25 38.8 674.3 39.81 675.32 40.57 676.63 42.38 676.97 43.35 675.81 44.19 674.69 44.39 673.53 43.44 672.6 44.31 671.3 44.57 670.54 44.27 670.33 45.06 669.45 45.62 667.73 46.2 667.36 47.31 668.11 48.3 668.82 48.56 668.96 49.64 669.4 49.94 671.1 49.63 671.77 49.75 672.19 50.49 673.71 50.6 674.01 51.55 672.55 51.34 671.62 52.03 671.99 53.21 672.53 53.02 673.27 53.81 672.54 54.41 671.98 55.84 671.13 56.58 669.74 58.8 669.62 59.41 670.15 60.61 669.7 60.78 669.42 59.81 669.32 58.05 669.55 57.62 668.98 55.56 669.03 54.41 668.16 53.55 667.93 52.65 667.41 52.94 667.83 54.12 667.83 54.96 667.39 55.28 666.5 54.94 666.32 55.71 666.84 56.37 667.56 56.5 667.9 57.45 667.51 58.1 667.3 60.81 667.64 62.13 667.98 64.42 667.84 64.9 666.15 66.2 665.28 67.02 663.38 69.45 663.68 70.16 663.42 70.87 662.65 71.44 661.91 71.15 661.81 70.32 662.43 70.16 663.37 69.16 663.23 68.82 663.97 66.1 663.75 64.34 663.3 62.82 663.33 60.7 662.36 60.05 662.1 59.14 662.18 56.65 661.1 55.9 660.79 55.44 660.51 53.98 660.47 52.71 660.98 51.57 659.75 50.56 659.8 49.69 660.79 49.12 661.12 48.66 662.11 48.82 662.95 47.82 662.29 46.47 661.59 46.39 661.24 45.77 661.63 45 661.62 43.67 661.93 42.61 662.61 42.35 662.8 40.9 660.19 39.32 659.72 39.85 658.94 39.24 658.4 39.22 657.56 38.06 657.44 37.39 657.72 36.38 657.06 35.71 655.96 35.64 656.02 36.73 655.4 37.05 654.83 36.74 653.87 36.84 653.41 36.41 651.15 38.68 650.77 39.2 650.62 40.27 651.2 40.66 651.8 40.48 652.39 41.56 652.34 42.86 653.27 42.27 653.69 42.6 653.62 43.31 654.1 44.02 654.44 46.01 653.67 45.84 652.71 46.17 651.89 46.11 651.18 46.79 651.13 48.31 652.11 48.64 652.35 49.16 651.85 50 653.73 50.44 654.46 50.31 654.15 51.94 653.69 53.22 651.91 53.38 651.41 52.38 650.56 52.25 649.72 52.77 649.63 54.02 648.38 53.35 648.21 52.71 648.65 52.13 649.42 51.82 649.58 51.15 648.64 50.03 647.22 49.74 646.25 48.91 646.2 48.33 645.65 47.51 643.15 46.08 642.48 46.19 642.53 47.13 641.88 47.19 640.9 46.59 640.4 46 640.9 45.07 640.14 44.47 639.43 43.53 639.25 42.59 639.76 42.47 640.2 41.77 640.17 40.43 639.44 40.34 639.13 39.6 639.93 39.09 639.9 38.44 638.99 38.24 638.87 37.63 639.5 36.7 638.97 35.03 639.72 32.23 639.24 30.51 640.04 29.69 640.31 28.9 640.04 28.33 638.8 27.97 638.46 27.17 637.92 26.73 637.36 25.06 637.71 24.25 637.18 23.38 637.93 21.28 638.35 21.19 638.38 20.16 637.4 18.44 637.31 17.56 636.62 17.12 636.24 15.85 636.76 15.08 636.55 13.15 636.18 12.62 634.54 12.21 632.41 12.62 631.14 12.32 629.36 12.1 627.76 11.48 625.66 8.41 625.39 6.96 625.82 6.06 628.62 6.23 630.3 6 632.24 5.99 632.51 5.83 634.43 6.21 635.45 6.28 636.62 6.08 636.94 5.71 638.49 5.18 639.89 4.53 640.76 3.66 641.58 3.18 641.74 2.63 642.43 1.96 642.83 2.1 644.12 1.24 645.43 1.18 Z" fill-rule="evenodd" id="36660370"/>
<path d="M 190.14 404.43 191.2 404.57 191.73 405.63 189.85 405.24 190.14 404.43 Z M 134.45 399.94 135.38 400.28 135.59 401.11 134.94 401.53 134.22 401.11 134.45 399.94 Z M 134.55 398.7 135.35 399.28 135.43 399.98 134.64 399.94 134.2 399.2 134.55 398.7 Z M 189.24 388.83 189.37 389.23 187.7 389.94 187.37 389.1 187.91 388.37 188.61 388.34 189.24 388.83 Z M 184.12 379.28 184.82 379.12 185.17 379.61 184.76 380.66 185.6 381.77 186.59 383.47 187.04 385.73 187.1 386.63 185.5 387.35 183.15 387.86 181.94 388.42 180.42 387.43 181.01 386.08 181.15 384.58 181.87 382.33 181.69 381.91 182.83 380.81 182.74 380.11 183.69 378.91 184.12 379.28 Z M 110.55 370.5 110.72 370.78 109.78 372.16 108.93 372.75 108.88 371.25 109.08 370.67 110.55 370.5 Z M 114.43 369.73 115.21 370.32 115.89 371.37 115.52 372.07 114.48 373.12 113.35 372.8 113.38 371.16 113.64 370.3 114.43 369.73 Z M 201.27 368.75 202.1 369.34 203.52 369.92 202.86 370.78 200.59 369.02 201.27 368.75 Z M 106.22 367.77 106.98 368.03 108.29 368.09 108.28 369.53 107.49 369.79 106.3 369.11 105.66 367.97 106.22 367.77 Z M 106.67 364.27 108.53 364.8 108.79 365.39 107.82 365.85 106.59 365.75 106.25 364.52 106.67 364.27 Z M 201.08 355.36 201.93 355.61 201.56 356.51 201.59 357.32 201.97 357.64 201.61 359.6 200.78 359.69 199.94 358.53 199.79 357.93 200.41 357.18 200.45 355.4 201.08 355.36 Z M 109.71 355.73 110.57 356.35 110.66 357.41 109.99 357.2 109.53 356.18 109.71 355.73 Z M 218.38 343.31 217.6 343.8 217.03 343.31 217.27 342.76 218.33 342.74 218.38 343.31 Z M 156.5 325.4 157.25 326.06 159.43 326.49 160 326.75 160.87 327.65 161.83 328.32 163 328.67 164.7 328.61 165.33 329.19 165.81 330.8 166.75 331.81 168.2 332.33 169.87 333.39 170.78 334.66 170.63 335.94 171.11 337.22 171.08 338.1 170.14 339.36 169.89 340.53 170.4 341.68 170.96 342.09 174.17 342.26 174.45 341.79 175.44 341.88 175.83 340.76 176.75 340.11 177.66 340.14 178.62 339.37 180.24 339.56 184.87 339.75 185.45 340.33 185.56 341.1 187.02 342.19 186.6 343.16 185.64 343.03 185.69 344.32 185.99 345.58 186.22 347.54 187.41 348.55 187.59 349.74 190.24 346.65 190.25 343.88 191.06 342.04 192.46 341.07 194.04 341.06 194.95 340.62 196.26 340.52 197.31 339.8 199.03 339.64 203.15 340.82 204.52 341.66 205.31 342.51 206.54 343.3 207.19 343.23 207.47 342.53 208.37 341.95 208.65 341.29 209.32 341.16 210.68 341.4 212.78 342.14 213.71 342.91 214.44 343.21 215.48 344.81 215.93 346.06 217.24 345.99 218.19 345.28 218.41 344.42 219.01 344.12 220.38 344.76 221.23 345.35 221.26 345.94 221.96 347.68 222.58 348.73 223.43 349.42 224.13 349.58 225.61 349.34 226.67 348.73 227.64 347.78 228.55 347.79 230.85 346.2 231.79 345.82 234.53 346.02 234.9 347.06 234.78 350.82 234.96 351.65 232.97 352.12 232.6 353.33 233.02 353.96 234.54 354.67 236.28 353.95 237.4 354.35 237.11 355.76 235.45 356.22 234.21 356.94 233.22 358.05 233.25 359.05 232.27 360.02 231.91 361.45 231.54 362.16 230.27 363.04 230.24 364.11 229.84 364.78 229.27 364.72 228.43 363 228.58 362.39 228.22 361.78 228.18 360.83 227.84 359.79 226.94 358.99 225.55 359.36 225.02 359.16 224.45 358.23 223.95 357.88 223.28 356.54 223.41 355.51 222.88 354.04 220.92 353.6 220.3 352.98 220.48 352.28 219.58 351.91 218.93 350.07 218.32 350.2 217.5 349.92 216.87 350.33 216.58 351.38 216.91 352.03 216.22 353.32 216.24 354.38 217.68 356.82 217.93 359.18 217.89 360.24 217.15 361 216.89 362.36 217.7 362.84 219.4 365.34 219.41 365.98 218.61 366.24 218.27 367.68 216.76 367.31 217.02 365.25 216.72 363.97 216.01 362.7 214.21 360.94 213.02 360.25 212.29 359.23 211.43 358.59 211.71 357.72 211.56 356.7 211.11 355.67 211.09 354.41 210.79 352.78 210.06 352.56 208.95 352.67 208.43 353.12 207.72 351.26 208.19 350.56 208.81 350.53 208.92 349.83 207.79 348.93 207.7 349.61 205.3 348.46 203.89 348.58 202.67 349.35 202.73 349.9 203.4 350.54 202.78 350.86 202.92 351.79 201.94 353.38 201.01 354.3 199.68 353.5 197.63 352.82 196.07 352.87 194.24 353.61 193.26 354.82 193.19 356.46 193.73 357.56 194.87 358.67 195.01 360.04 194.5 360.57 193.49 360.17 192.85 360.81 192.29 360.87 191.82 361.7 190.39 362.86 188.77 363.14 188.56 363.62 188.5 365.12 188.94 365.88 190.18 367.05 191.06 368.67 190.5 368.94 188.88 368.81 187.96 368.56 187.65 368.83 186.13 368.66 184.95 368.8 181.93 368.95 180.4 369.92 179.28 371.44 178.54 373.19 178.31 374.21 178.36 376.75 178.79 378.01 178.24 378.24 177.44 379.82 176.37 380.26 174.94 379.83 174.37 379.88 173.47 380.46 172.03 382 171.41 382.4 171.17 383.07 168.02 385.11 165.54 385.21 163.71 386.15 163.08 387.42 163.22 388.06 161.35 390.19 160.14 390.1 158.57 391.25 157.88 391.44 156.35 390.79 156.04 391.16 155.02 390.74 154.35 390.92 154 390.45 152.39 390.45 151.21 390.82 150.46 391.65 149.67 392.17 148.76 392.36 148.38 392.99 147.56 393.13 146.76 393.94 145.4 394.13 144.06 395.34 143.53 395.58 141.31 395.82 140.67 395.57 139.79 395.72 138.43 394.63 137.48 392.53 136.53 391.53 135.3 391.3 133.91 391.67 133.14 392.26 132.21 393.98 132.29 394.52 131.79 395.27 128.43 395.35 128.36 394.4 127.88 393.72 127.59 391.47 128.16 389.58 125.12 386.42 125.6 386.22 128.58 389.48 129.62 388.28 130.62 387.87 130.04 387.38 127.57 384.47 126.85 384.13 125.89 382.56 125.35 382.24 124.95 381.3 124.08 380.5 124 379.75 122.88 378.48 121.69 377.49 121.66 376.27 120.79 375.61 120.66 374.73 121.99 373.94 123.5 373.44 124.02 372.92 125.05 371.15 125.27 370.11 125.8 369.25 125.69 368.51 125.12 367.19 124.08 366.15 123.02 365.53 120.8 366.15 120.21 365.7 120.58 365.09 120.35 364.5 121.2 363.76 122.3 363.61 125.68 362.2 125.99 361.57 126.08 358.91 125.56 355.76 124.71 354.79 124 354.31 122.87 354.06 122.12 353.22 121.16 352.65 121.15 351.41 121.78 350.35 123.33 349.38 124.59 349.78 124.9 349.09 128.22 347.14 128.18 346.09 128.72 345.54 129.43 345.51 130.33 344.95 132.4 344.64 132.84 344.21 133.1 343.16 133.01 341.24 132.39 339.73 133 338.88 133.97 338.69 134.85 338.93 135.27 338.65 136.74 338.72 137.33 338.36 139.16 337.87 140.79 336.32 140.95 335.01 141.44 334.32 142.33 334.09 143.99 334.35 146.52 333.18 148.09 332.66 148.66 331.94 149.03 330.85 148.13 329.82 147.64 328.26 148.59 328.13 148.65 329.14 149.81 329.28 150.54 329.72 151.82 329.38 152.95 328.86 154.13 327.87 154.37 326.66 154.88 325.56 155.71 325.17 156.5 325.4 Z" fill-rule="evenodd" id="36660380"/>
<path d="M 612.07 286.96 613.55 287.66 614.11 288.45 614.73 288.73 614.44 289.55 613.89 289.71 612.88 289.04 612.36 288.3 611.48 287.6 612.07 286.96 Z M 594.27 282.1 594.77 282.6 594.7 283.78 595.32 284.82 595.26 286.02 594.13 286.11 593.53 286.54 592.46 285.65 592.24 283.98 592.51 282.57 593.16 282.2 594.27 282.1 Z M 612.95 276.63 614.64 277.11 616.08 277.33 616.19 278.2 615.77 278.88 615.83 279.75 614.93 280.35 614.06 280.56 613.05 280.48 612.68 280.9 611.76 280.89 611.02 281.31 610.93 281.88 609.72 281.75 608.43 280.84 608.22 280.1 607.4 279.63 606.68 278.42 606.79 277.69 608.44 276.69 609.7 276.82 611.85 276.8 612.95 276.63 Z M 614.73 237.45 615.6 237.73 616.03 237.53 617.65 239.43 618.39 241.34 619.14 241.67 619.73 241.21 620.7 241.73 621.1 242.23 621.17 243.43 621.98 244.84 622 245.46 620.23 245.14 619.94 246.04 619.53 246.03 619.31 246.94 619.77 248.23 621.19 248.48 621.94 249.22 621.86 249.98 621 250.97 622.07 251.41 622.6 252.61 621.97 254.09 621.03 254.57 620.82 256.53 620.56 257.44 619.95 258.22 618.55 258.68 617.62 257.48 616.59 257.22 616.42 256.26 615.91 255.91 615.67 254.98 616.62 253.68 617.22 253.27 617.63 252.15 617.47 250.09 617.12 249.36 616.35 248.65 617.24 247.84 617.27 247.13 615.84 246.1 615.59 244.96 614.5 245.01 614.03 244.59 612.72 244.11 612.13 243.21 612.02 241.78 611.72 241.36 611.77 240.44 613.21 239.48 613.86 237.87 614.73 237.45 Z M 609.1 225.25 609.97 225.38 610.28 226.06 609.04 227.08 608.89 227.88 609.05 229.01 609.47 229.47 609.42 230.19 608.93 230.57 608.07 230.14 608.26 228.4 607.69 226.32 607.81 225.95 609.1 225.25 Z M 612.08 214 612.38 214.69 611.49 215.17 611.74 214.02 612.08 214 Z M 608.34 208.87 610.82 210.07 610.82 211.25 609.63 211.64 609.01 211.54 607.62 210.85 607.12 209.75 607.78 208.6 608.34 208.87 Z M 603.93 178.51 604.67 178.67 604.29 179.67 604.39 180.45 603.05 180.68 601.64 180.73 602.17 179.04 603.02 178.51 603.93 178.51 Z M 621.08 164.82 621.41 165.87 620.9 166.25 620.31 165.66 620.39 164.97 621.08 164.82 Z M 614.94 163.14 615.69 163.26 616.98 164.48 616.82 165.41 615.81 165.35 614.68 164.94 614.39 164.43 614.45 163.22 614.94 163.14 Z M 586.58 140.29 587.97 140.81 588.88 141.71 590.47 142.57 590.55 143.85 591.24 144.97 593.34 145.42 593.65 145.11 595.49 146.27 597.01 145.78 597.12 145.17 597.77 144.4 599 144.09 599.72 146.44 599.09 147.23 599.09 147.85 599.83 148.67 600.59 148.91 601.05 148.59 601.75 146.81 601.58 145.39 601.13 144.39 601.6 143.56 602.46 143.01 603.74 142.77 606.45 143.91 607.82 144.78 608.14 145.18 608.82 147.28 609.15 147.86 610.26 147.87 611.2 149.43 611.5 150.63 611.18 151.1 611.62 151.85 614.12 151.93 615.78 151.67 616.55 151.4 617.42 151.5 617.9 152.32 616.68 152.46 616.73 153.04 616.24 153.48 616.49 154.54 617.34 155.11 617.11 156.69 618.53 156.44 618.93 156.76 618.59 157.43 617.64 157.55 618.04 158.48 619.09 158.99 618.92 160.69 617.74 161.13 616.82 161.86 616.18 161.66 616.37 160.87 615.7 160.69 615.07 161.42 614.17 162.06 613.41 162.22 612.34 161.97 610.95 162.54 609.09 162.76 608.03 163.64 608.54 164.71 608.31 165.29 607.34 166.39 606.79 167.58 606.93 168.23 607.74 169.72 607.38 169.92 606.84 171.21 605.86 172 603.93 172.32 601.09 171.69 600.39 172.65 598.94 173.03 596.44 174.14 595.07 175.34 593.69 177.08 593.26 178.56 593.42 179.74 593.9 180.56 595.64 180.11 596.19 180.64 596.38 181.36 595.8 181.99 594.36 181.64 592.9 180.99 593.18 180.01 592.9 179.5 591.38 179.36 591.05 179.09 590.21 179.56 586.57 179.91 581.73 180.93 581.09 181.27 581.04 181.91 580.19 183.2 580.12 184.32 579.41 185.13 579.23 186 578.03 186.33 577.56 187.13 576.56 186.78 576.07 185.66 574.37 184.25 572.73 183.93 573.72 182.48 573.97 181.72 573.89 179.84 573.27 177.75 572.59 176.44 571.36 175.5 570.55 174.61 569.7 174.37 568.34 174.29 566.42 174.87 565.99 175.23 566.12 176.88 566.33 177.36 566.11 178.86 564.64 177.91 564.5 176.99 564.04 176.23 563.91 174.28 562.97 172.56 562.32 171.83 561.88 170.12 562.24 168.62 561.94 167.79 562.62 166.22 563.91 165.23 563.97 163.28 563.18 162.04 562.71 161.73 562.58 160.95 561.94 159.39 562.17 157.25 561.95 156.7 562.91 154.8 563.55 154.42 563.95 153.43 564.65 152.89 565.97 152.94 566.75 152.27 567.43 150.53 567.04 150.02 567.24 148.54 568 148.31 568.89 148.38 570.95 147.05 571.75 145.67 572.67 145 573.13 143.93 572.86 143.62 573.88 142.94 575.54 142.93 577.66 143.96 577.68 143.3 578.54 141.83 579.69 142.2 582.17 141.57 583.55 140.61 584.52 140.82 586.58 140.29 Z" fill-rule="evenodd" id="36660390"/>
</g>
</svg>