<?xml version="1.0"?>
<svg xmlns="http://www.w3.org/2000/svg" version="1.2" baseProfile="tiny" width="800" height="786" viewBox="0 0 800 786" stroke-linecap="round" stroke-linejoin="round">
<g id="dong">
<path d="M 427.67 367.24 426.88 367.96 426.01 367.78 426.6 365.57 426.52 363.84 427.7 363.77 428.01 365.41 427.67 367.24 Z M 359.26 280.08 360.72 281.34 360.98 283.19 360.78 285.74 359 286.43 357.34 285.82 356.62 284.3 356.43 282.56 357.85 281.1 358.2 279.66 359.26 280.08 Z M 376.4 261.19 376.9 261.94 375.62 262.55 375.39 261.61 376.4 261.19 Z M 367.87 260.55 368.13 261.24 370.19 261.34 370.52 262.79 369.9 263.8 368.56 264.04 368.63 265.77 367.42 266.4 366.5 265.24 365.97 262.37 366.44 260.42 367.87 260.55 Z M 374.01 255.6 375.4 257.41 375.17 258.52 374.41 258.52 372.73 256.18 374.01 255.6 Z M 328.6 255.32 330.04 255.34 332.55 255.89 333.01 257.85 332.7 258.55 333.2 260.12 333.46 262.08 332.51 262.86 331.82 262.28 329.74 262.08 328.27 260.55 328.35 258.03 327.73 256.67 328.6 255.32 Z M 396.94 232.4 398.11 233.49 398.39 234.76 397.25 235.83 395.83 233.79 396.94 232.4 Z M 372.13 222.56 373.66 222.97 374.36 225.02 375.01 225.52 375.25 226.78 376.4 228.34 377.07 230.11 378.24 231.01 380 231.08 381.69 232.39 383.2 232.64 384.36 231.97 386.17 232.2 388.4 233.84 389.67 234.43 389.8 235.65 387.7 235.52 386.88 236.41 384.8 236.03 383.83 236.31 382.75 234.94 381.68 234.64 379.76 235.25 378.34 233.92 373.12 232.23 372.99 230.64 372.24 228.47 370.64 226.23 370.06 224.09 370.61 223.1 372.13 222.56 Z M 484.01 174.68 485.02 176 485.08 177.81 484.48 179.84 483.11 180.96 481.78 180 482.41 177.22 484.01 174.68 Z M 540.21 158.3 541.71 160.25 544.93 165.54 545.72 168.13 545.66 170.11 547.22 174.32 547.79 177.63 547.87 179.33 547.54 182.39 546.69 187.14 545.18 191.9 544.05 196.65 543.59 200.04 543.92 203.21 544.51 206.16 548.5 215.67 550.18 220.42 551.8 224.08 552.17 228.3 551.35 232.77 549.32 241.92 549.04 244.18 548.89 249.46 548.84 251.27 548.28 254.25 546.35 259.14 545.89 259.95 544.27 265.41 542.49 268.66 540.75 270.37 538.14 273.85 536.46 276.76 535.86 278.57 534.58 281.25 532.95 282.92 531.56 284.74 530.06 285.51 528.72 286.58 526.43 290.66 524.68 292.66 523.14 295.59 523.06 299.89 519.06 305.58 518.9 306.41 519.14 308.81 517.43 309.62 516.37 310.52 514.87 310.37 511.35 310.84 509.17 313.61 508.04 312.74 506.22 312.26 501.67 313.66 499.17 313.34 498.35 315.68 497.9 317.67 498.2 320.69 497.39 322.32 494.86 323.12 491.92 324.34 491.99 326.23 490.97 326.81 491.63 330.31 492.58 332.08 492.06 335.72 493.15 336.92 495.21 337.16 496.57 339.16 496.28 339.94 496.74 341.31 494.78 342.72 494.16 343.58 491.26 344.05 489.06 344.93 487.08 343.71 486.38 342.2 484.56 341.51 483.89 340.82 482.22 340.86 481.08 341.57 479.72 341.45 478.24 339.52 476.27 340.94 473.98 341.66 473.29 342.58 470.81 344.22 467.6 344.01 466.13 341.38 464.78 341.01 465 339.5 464.71 338.59 461.77 336.18 458.01 335.01 457.88 333.27 455.62 332.73 453.91 329.86 453.22 329.43 451.41 329.21 449.05 330.28 447.85 330.01 445.76 333.53 444.44 335.25 446.52 338.1 447.34 338.88 446.6 340.04 444.56 340.54 443.35 341.92 444.11 342.93 443.87 345.25 444.63 355.86 445.81 357.42 445.25 358.06 444.29 357.98 426.79 357.14 425.86 357.48 420.94 362.93 420.14 363.57 421.42 364.82 421.26 365.75 421.48 369.26 420.27 369.53 417.96 368.83 416.33 368.61 413.64 367.8 412.62 367.22 409.71 367.03 408.73 367.82 408.93 368.96 408.17 370.46 407.56 368.69 407.68 366.87 406.97 366.73 404.88 364.95 403.67 364.52 402.58 363.05 403.19 361.31 404.49 360.69 403.5 358.17 403.23 356.14 401.4 354.11 401.32 353.62 398.29 350.01 397.11 347.87 396.32 347.2 396.48 345.94 395.82 345.16 395.97 343.86 397.3 342.97 399.66 343.01 399.68 342.17 398.45 340.01 396.91 340.32 395.51 338.9 393.71 338.09 392.13 335.86 393.35 334.29 392.78 333.85 390.98 334.15 390.57 333.65 388.96 333.92 388.36 332.35 387.57 331.53 386.53 331.98 385.72 330.74 384.53 330.52 384.5 329.73 383.63 328.98 381.84 328.37 383.27 326.33 384.3 325.76 383.58 324.6 380.03 324.64 378.63 323.3 378.66 322.29 377.93 320.59 377.94 319.5 377.22 318.98 377.64 315.17 378.04 314.62 375.78 311.63 374.18 310.8 373.07 307.59 371.78 307.77 369.47 306.44 368.77 304.91 370.14 303.96 371.96 304.37 372.69 303.3 370.83 301.46 367.72 299.28 367.62 297.86 368.9 296.33 370.75 295.94 372.29 296.4 373.18 297.45 374.51 297.33 376.34 297.8 376.47 296.7 374.62 296.24 372.69 295.36 370.75 294.04 370.56 292.61 372.75 290.75 374.26 289.98 375.57 290.41 378.34 292.74 379.43 292.7 378.34 289.89 377.24 289.54 376.79 288.67 374.2 285.98 372.46 285.5 373.23 284.13 373.07 282.86 373.6 281.31 375.12 281.33 375.9 279.98 377.42 278.93 378.95 278.65 378.83 277.33 380.6 277.22 381.84 278.47 382.99 278.22 384 277.08 383.81 275.8 381.33 273.24 379.17 272.14 378.35 272.49 377.39 270.95 377.63 268.58 379.24 266.74 380.05 266.26 381.94 267.05 383.61 268.35 385.45 267.41 386.14 266.13 386.16 264.52 385.12 263.92 384.17 262.67 385.22 262.09 386.01 260.6 385.6 258.86 386.44 258.89 387.89 257.5 389.32 256.78 390.29 255.63 393 254.47 393.76 253.41 393.68 251.97 395.83 251.94 396.93 251.25 398.91 249.4 399.16 248.63 401.32 246.87 403.14 246.62 404.83 246.87 406.65 246.63 408.14 246.05 409.01 245.01 410.11 244.84 410.85 245.89 411.13 247.21 412.66 247.3 413.73 248.48 414.65 250.55 414.17 251.74 414.54 252.98 416.48 254.9 419.29 256.51 420.21 257.42 423.55 255.12 424.22 255.13 425.33 256.16 427.39 256.68 425.8 255.04 424.22 254.13 421.87 251.2 420.34 248.77 420.51 247.42 421.83 244.41 420.25 243.87 420.11 242.85 421.3 240.15 420.2 239.29 419.08 239.05 415.57 239.5 414.71 239.37 412.17 237.86 410.18 237.31 408.27 233.34 408.48 232.3 407.51 229.14 407.97 227.27 408.55 226.31 409.35 227.52 411.87 226.57 413.61 225.37 415.42 223.69 418.13 220.72 418.22 218.96 419.1 218.15 421.5 217.7 423.64 216.36 428.11 215.83 431.95 216.77 433.5 216.35 434.81 214.87 436 214.02 439.41 212.26 440.83 211.88 442.41 210.95 446.13 207.36 447.37 204.32 447.42 202.62 449.37 199.04 450.14 198.84 451.83 197.31 452.77 197.03 455.32 195.38 457.06 195.03 458.73 195.14 459.49 194.74 462.53 192.35 463.74 191.18 466.42 190.22 468.38 188.56 470.6 187.26 471.35 187.47 473.61 186.01 475.3 186.09 476 186.6 481.04 185.37 486.79 184.1 489.59 183.27 489.66 180.89 492 179.52 492.77 178.53 492.72 177.44 493.31 175.28 493.19 174.15 494.48 171.44 494.06 170.11 493.31 169.53 491.97 169.32 490.82 166.15 491.78 164.61 492.59 164.42 494.28 165 496.23 163.92 496.58 162.38 495.85 161.42 495.66 159 496.62 158.06 496.83 157.13 498.54 153.39 501.12 150.76 502.12 150.03 505.25 146.62 506.23 145.13 507.16 143.11 508.49 141.15 509.57 140.12 514.02 134.08 515.55 133.07 516.68 131.34 517.59 131.19 519.22 132.03 519.8 134.4 522.01 135.99 521.81 137.77 520.59 137.31 519.41 137.52 518.04 138.82 517.07 142.29 516.01 143.15 516.09 146.59 516.42 147.69 514.69 147.93 514.04 148.49 514.81 150.9 514.56 152.13 514.54 154.61 515.07 155.59 514.89 156.74 513.05 156.73 512.87 163.42 514.32 164.4 515.55 164.51 516.95 166.18 517.5 167.38 518.37 167.19 526.69 166.2 529.67 164.87 530.85 165.04 532.83 164.26 535.18 164.71 536.71 164.47 538.42 162.07 540.21 158.3 Z" fill-rule="evenodd" id="36670350"/>
<path d="M 144.85 747.78 145.8 748.59 147.02 751.67 144.88 755.07 146.98 759.72 148.99 762.34 148.35 764.57 147.26 764.76 148.58 766.78 149.63 767.27 149.6 768.41 151.78 771.54 151.89 773.34 154.53 772.89 156.32 774.07 155.55 776.1 157.06 778.17 156.49 780.11 155.64 779.4 153.78 780.43 152.67 779.96 153.44 783.51 151.72 785 150.84 782.65 150.75 781.58 148.45 781.13 148.43 779.37 147.16 778.07 148.24 777.19 148.05 775.43 147.24 773.99 147.65 771.34 147.3 770.66 147.67 769.34 148.51 767.9 147.69 767.23 147.39 766.1 146.63 765.58 146.09 764.39 141.71 762.29 141.08 761.27 142.47 760.7 142.07 759.66 142.66 759.16 142.15 757.69 139.66 756.92 139.18 754.22 142.25 751.54 143.05 749.25 143.1 747.92 144.14 747.39 144.85 747.78 Z M 26.49 681.6 27.67 682.35 29 682.41 30.88 683.51 32.78 685.33 31.73 687.21 32.14 688.14 31.12 690.39 30.12 690.9 29.47 690.54 28.26 688.67 26.84 688.06 25.52 687.94 24.81 686.74 23.22 685.85 22.35 686.35 21.33 685.79 21.26 684.81 22.44 684.48 24.27 683.02 24.62 681.96 25.82 682.44 26.49 681.6 Z M 58.01 661.08 59.11 661.73 59.24 663.27 57.86 663.15 56.89 661.42 58.01 661.08 Z M 487.74 649.08 486.58 649.4 485.59 648.72 485.51 647.95 486.48 647.04 487.74 649.08 Z M 13.82 646.96 14.67 647.1 15.42 648.36 17.34 649.48 18.49 650.75 21.02 649.09 21.91 649.23 22.64 648.43 24.23 648.27 25.92 648.91 25.68 650.79 26.52 651.18 26.32 653.05 28.19 656.74 29.46 657.48 30.66 658.76 32.66 660.05 34.37 662.41 34.81 663.85 36.07 665.22 35.31 667.37 33.73 668.14 33.69 668.88 32.52 669.27 32.03 670.39 29.73 669.38 28.15 669.36 26.58 668.45 26.01 666.58 25.39 665.98 23.63 666.22 23 665.83 21.98 663.3 20.97 662.01 19.95 661.47 18.07 659.68 17.99 658.82 16.46 657.7 16.02 656.84 13.96 654.42 11.25 655.16 10.12 653.34 9.83 652.06 10.58 650.72 10.08 649.82 11.29 648.09 13.82 646.96 Z M 286.87 644.97 286.91 645.7 286.03 646.76 285.16 646.39 285.87 645.21 286.87 644.97 Z M 28.56 642.38 30.11 643.09 30.75 644.9 31.48 645.94 28.75 646.34 27.9 645.4 27.88 643.38 28.56 642.38 Z M 474.67 639.68 475.14 640.36 475.25 643.24 474.59 643.9 475 644.83 473.92 645.81 473.08 645.61 472.4 644.46 471.67 645.62 470.71 646.13 469.96 645.72 467.74 643.13 468.01 641.51 469.88 640.88 472.44 640.65 473.78 639.44 474.67 639.68 Z M 453.79 636.33 454.64 636.69 455.95 638.62 457.75 639.99 457.9 642.97 457.2 643.48 456.48 642.6 455.37 643.14 454.21 642.46 453.41 641.35 453.84 640.09 453.24 638.51 450.74 636.86 451.97 636.31 453.79 636.33 Z M 474.22 634.54 473.81 635.59 471.54 635.13 471.45 633.8 473.87 633.2 474.22 634.54 Z M 361.19 631.33 362.56 632.18 363.71 633.79 362.34 634.13 362.18 633.04 360.19 631.64 361.19 631.33 Z M 2.92 631.13 4.41 631.83 5.3 634.09 6.92 634.41 8.16 634.27 10.21 632.72 11.82 633.93 12.25 634.82 13.48 635.16 14.14 636.11 12.01 639.55 11.52 641 10.76 641.56 9.37 641.81 8.92 644.85 7.9 646.19 5.94 645.86 3.28 644.92 2.4 645.24 1.19 644.8 2.03 643.59 3.41 643.58 4.41 642.32 6.37 641.5 5.64 638.84 5.5 637.46 4.5 635.36 1.72 632.82 1 631.52 2.92 631.13 Z M 222.2 628.92 222.52 630.88 221.1 632.44 219.43 632.26 218.6 632.66 216.96 629.83 222.2 628.92 Z M 498.75 617.62 501.16 618.86 501.61 620.16 500.79 620.44 500.07 619.6 498.99 619.23 498.75 617.62 Z M 342.6 618.23 346.8 620.01 347.7 622.16 346.9 623.11 348.44 625.94 346.91 626.28 346.97 628.25 345.52 627.78 343.16 628.36 341.32 626.99 341.48 625.77 340.19 624.28 340.13 623.29 341.14 621.23 341.32 619.7 342.6 618.23 Z M 179.04 612.22 179.87 612.77 181.64 614.66 180.41 617.07 179.63 615.77 177.91 615.99 177.12 613.98 179.04 612.22 Z M 127.08 611.93 127.67 612.58 126.84 613.4 125.9 612.45 127.08 611.93 Z M 341.73 601.18 343.63 601.65 343.87 602.46 341.94 603.08 341.17 602.37 341.73 601.18 Z M 133 602.05 133.3 602.96 132.69 604.02 130.89 604.58 130.53 603.53 133 602.05 Z M 134.49 599.48 134.72 600.5 134.26 601.42 133.26 601.81 132.32 601.18 132.86 599.65 134.49 599.48 Z M 143.25 598.09 145.02 598.41 145.56 599.53 145.57 601.07 147.93 601.76 149.04 602.35 149.13 603.41 147.83 604.48 149.06 604.87 148.72 606.8 146.85 608.96 145.26 609.71 145.33 610.59 147.06 610.55 146.44 612.16 147.28 613.3 149.82 611.51 150.18 609.12 151.38 607.1 152.8 605.69 153.75 603.66 154.93 605.83 155.73 605.08 155.67 603.53 157.22 603.3 158.67 603.57 159.26 601.76 159.04 600.75 162.02 600.85 164.03 602.26 167.43 602.68 168.82 607.96 169.83 608.41 168.96 610.34 167.67 610.48 167.25 611.67 165.68 613.66 164.36 614.26 162.96 615.79 161.38 616.28 159.62 616.36 159.36 615.71 158.03 615.75 158.59 617.72 156.25 618.92 153.72 623.68 152.31 623.68 152.42 624.92 151.77 625.91 151.02 625.75 150.23 624.63 149.16 625.08 147.4 626.84 144.78 627.59 143.91 628.62 142.51 629.47 139.85 629.86 139.13 628.64 140.39 627.5 137.71 627.07 136.88 626.39 136.6 625.39 137.32 622.05 136.28 621.55 132.74 627.09 131.76 627.94 130.1 627.88 128.7 627.13 127.8 625.57 127.84 624.16 129.4 623.78 130.97 622.4 130.43 621.02 129.76 620.58 126.99 616.5 126.05 614.64 127.76 615.43 129.82 615.68 130.71 614.81 132.02 614.24 133.22 614.47 134.48 613.79 134.47 612.17 131.1 611.74 132.12 610.69 133.14 608.77 133.59 606.96 134.68 606.58 135.26 604.64 136.75 602.64 139.04 601.95 140.21 602.19 140.75 601.17 138.95 600.12 139.2 599 140.05 598.67 142.42 599.41 143.25 598.09 Z M 102.56 597.55 103.16 598.5 104.46 599.22 106.89 599.41 108.51 600.17 110.34 598.01 110.83 598.52 108.75 600.53 109.57 601.6 108.4 602 107.64 602.96 107.92 605.19 108.74 605.95 108.75 606.8 105.74 608.07 104.17 607.1 101.98 604.04 102.19 602.72 103.08 601.05 102.56 597.55 Z M 361.36 595.6 361.98 596.67 364.81 598.01 365.96 599.06 364.51 599.65 364.6 600.43 363.37 600.56 362.68 600.05 362.35 602.16 363.16 604.75 360.99 605.81 359.23 605.66 358.82 604.41 356.43 605.78 355.08 605.33 353.99 605.66 354.36 606.83 351.76 607.04 351.32 607.73 349.98 607.05 349.09 604.46 348.28 604.19 346.93 601.65 346 601.15 344.2 601.4 347.84 597.49 350.55 598.23 355.63 598.68 358.59 597.22 359.29 597.09 360.03 596.01 361.36 595.6 Z M 126.36 590.18 128.25 590.87 128.56 592.29 129.55 593.98 128.77 594.86 127.44 594.99 127.66 596.31 126.79 597.89 126.98 598.37 125.42 600.67 124.38 599.34 123.44 598.81 123.36 597.78 122.54 596.42 123.11 594.51 121.85 593.95 122.55 592.75 123.55 592.9 124.23 592.33 123.79 590.82 124.66 590.38 126.36 590.18 Z M 308.63 586.34 308.37 586.88 309.5 588.44 309.5 589.13 310.6 590.88 312.65 593.48 313.8 594.29 315.52 594.76 317.69 594.5 318.69 595.45 320.73 596.09 322.14 595.74 324.72 594.56 325.43 593.48 325.24 592.49 326.06 591.64 327.23 593.24 327.01 594.48 325.81 595.09 325.07 598.04 325 600.11 325.77 600.87 325.96 603.16 326.41 603.94 326.84 606.18 327.78 607.35 328.89 610.06 329.56 610.71 331.96 611.54 334.01 611.32 334.72 612.53 334.57 614.27 333.1 616.7 331.43 615.71 331.16 613.3 330.65 612.31 327.68 613.25 326.39 613.92 324.45 614.33 323.15 614.92 322.42 615.8 323.07 618.15 323.97 619.19 323.58 620.45 324.3 622.09 324.28 623.02 323.06 624.16 323.1 625.05 322.24 626.98 320.57 627.11 319 626.57 317.6 627 316.77 628.24 317.72 631.08 319.04 633.72 318.03 637.11 318.79 638.45 317.7 639.16 316.11 638.48 314.87 637.08 314.05 634.83 313.02 633.6 311.67 633.44 309.91 632.59 308.69 633.43 307.13 633.98 305.33 633.13 305.37 632.14 304.59 630.8 303.93 630.83 301.58 628.77 300.57 626.89 299.64 626.66 298.67 627.25 296.87 625.81 295.16 626.44 293.84 628.05 292.79 628.84 292.76 629.93 291.97 632.61 293.51 634.66 292.28 635.72 291.65 636.92 290.24 636.3 290.12 638.85 288.72 639.24 288.93 640.98 288.47 641.71 289.03 643.11 287.92 644.16 286.93 642.7 286.67 640.44 285.69 639.64 286.29 638.28 285.66 636.93 284.09 635.69 283.9 634.87 284.72 633.29 285.11 629.95 283.13 626.63 281.86 627.05 280.36 626.65 279.25 627.54 277.8 627.72 276.72 626.95 274 627.2 272.54 626.29 272.07 628.59 271.62 629.17 269.07 627.43 268.7 625.72 269.86 623.83 270.67 623.46 271.54 620.57 270.36 618.02 271.37 616.9 270.89 615.93 271.36 614.64 272.35 613.97 274.24 614.05 276.87 616.07 279.04 618.89 279.77 619 281.75 618.31 282.27 617.36 283.75 616.72 283.99 616.09 286.2 614.8 287.6 613.43 288.89 613.04 289.68 614.35 291 615.33 292.94 618.04 294.98 618.65 297.71 617.96 299.08 616.69 299.91 614.82 299.41 613.32 300.48 612.09 301.74 613.31 303.15 613.24 305.33 611.91 307.79 607.47 308.95 604.43 310.36 600.15 311.4 596.24 310.46 594.95 309.13 594.34 308.9 592.73 306.95 591.72 305.56 590.11 305.09 588.6 305.98 588.05 305.6 587.07 307.04 586.15 308.63 586.34 Z M 461.96 585.23 462.5 586.27 463.6 587.17 462.45 588.77 461.21 588.79 460.67 588.16 461.07 585.44 461.96 585.23 Z M 123.36 584.76 125.11 584.04 126.21 585.03 127.41 585.13 127.99 588.54 127.45 590.34 126.33 589.93 125.33 588.07 123.77 587.88 121.5 588.29 120.46 587.95 119.49 586.33 120.28 584.94 121.73 584.19 123.19 584.19 123.36 584.76 Z M 501.63 574.19 502.72 575.06 502.78 576 503.96 576.45 503.74 577.96 504.48 578.96 506.79 580.44 506.54 581.18 506.99 585.16 507.63 587.15 507.48 588.67 506.27 590.94 505.52 591.26 504.51 589.89 502.92 589.47 501.48 590.16 501.32 590.92 502.19 592.72 502.44 594.15 502.2 596.32 501.17 597.76 499.36 598.89 496.79 599.45 497.41 601.95 496.59 602.68 496.5 604.24 497.32 606.51 496.69 607.46 496.66 609.25 496.17 609.73 494.17 609 493.21 609.18 492.1 610.6 490.78 611.28 492.8 612.07 493.57 613.56 495.42 614.72 495.32 616 495.79 617.51 497.59 618.66 494.57 619.04 493.42 620.31 491.48 620.42 489.65 619.6 489.08 618.6 487.41 616.79 485.35 615.49 484.21 615.78 483.82 613.94 485.2 613.11 486.68 611.68 487.49 611.35 489.55 611.35 490.28 610.47 489.11 609.21 487.17 605.91 487.43 605.16 489.05 604.25 490.32 602.1 490.01 599.38 489.42 598.62 490.5 596.63 491.65 592.58 492.08 589.85 493.04 588.31 494.32 587.06 494.34 586.45 495.99 584.46 497.58 583.2 498.84 579.92 499.05 577.51 500.23 574.04 501.63 574.19 Z M 310.57 575.51 313.09 576.52 314.28 577.94 315.03 579.43 314.83 581.82 312.36 582.08 308.87 582.08 308.52 583.05 306.56 583.5 305.86 582.65 304.77 580.43 304.77 578.71 305.78 576.47 305.61 575.17 306.73 573.95 310.57 575.51 Z M 490.03 571.92 491.31 571.94 493.43 573.57 494.32 574.93 493.95 576.2 492.75 575.51 490.87 575.68 490.17 575.03 488.2 574.22 487.91 572.69 486.9 572.03 486.6 571.11 488.04 570.26 490.03 571.92 Z M 122.16 571.01 123.76 571.54 124.16 572.35 123.29 574.88 124.76 576.42 124.64 577.68 126.24 580.22 125.77 580.96 125.72 582.51 123.86 582.75 121.55 582.06 120.9 579.49 119.04 580.43 118.77 582.17 116.54 583.07 116.97 585.46 116.24 586.47 116.94 588.95 116.43 590.3 116.87 591.7 116.68 593.77 115.25 595.04 113.97 594.5 113.68 593.39 114.47 590.34 114.44 586.38 113.08 585.2 111.45 586.73 112.05 588.09 111.43 589.43 110.7 589.77 107.8 589.21 107.85 590.45 109.63 592.13 109.64 593.28 107.52 594.53 106.74 592.24 105.75 590.88 103.13 589.75 101.7 591.17 104.21 593.92 104.04 594.55 102.5 595.66 101.51 598.61 100.84 598.97 99.72 597.88 98.43 597.36 96.53 597.4 96.67 598.83 95.93 599.32 95.02 598.38 93.3 598.48 91.31 597.76 90.81 596.89 88.93 598.57 85.89 598.7 86.04 600.21 84.39 599.25 84.33 597.37 85.83 595.55 88.19 594.63 87.75 593.82 86.63 593.37 85.37 590.91 86.19 587.16 87.3 587.05 88.19 585.22 90.5 583.92 89.83 582.91 90.62 580.25 94.11 579.95 95.74 579.34 97.06 577.86 99.18 577.95 99.46 576.73 101.82 576.48 102.3 576.08 104.07 576.33 105.07 575.99 105.61 576.74 106.97 577.05 108.47 576.12 109.18 576.47 110.25 575.18 113.21 574.38 115.45 574.53 116.64 573.68 119.71 572.13 120.68 572.03 122.16 571.01 Z M 250.07 569.06 251.47 569.09 253.38 570.19 253.86 571.31 252.31 571.86 251.71 573.02 250.38 571.81 250.07 569.06 Z M 445.58 566.97 447.92 567.83 450.38 567.48 451.53 567.78 453.23 567.17 454.88 567.83 455.31 568.93 455.2 570.44 456.05 571.7 455.8 573.17 456 575.61 457.58 577.24 460.13 577.75 461.81 578.72 461.76 582.26 458.94 581.06 456.3 579.26 454.83 578.74 453.69 576.94 451.4 575.56 449.84 573.08 448.91 572.78 447.72 571.52 447.15 570.15 445.09 569.28 444 567.54 445.58 566.97 Z M 480.1 564.61 480.82 564.99 480.61 566.02 479.55 565.97 480.1 564.61 Z M 369.06 561.12 369.82 562.75 368.58 562.99 367.62 561.39 369.06 561.12 Z M 419.88 561.32 420.95 562.99 421.26 565.79 420.35 566.16 419.44 565.49 417.97 563.16 416.86 562.56 417.78 560.06 419.43 560.37 419.88 561.32 Z M 376.54 557.51 378.11 558.63 379.6 560.21 381.89 563.45 382.46 565.37 383.96 565.02 385.34 565.36 386.93 565.24 389.49 564.23 391.1 561.82 393.31 561.95 393.93 562.74 393.95 564.22 392.28 565.11 392.33 566.45 396.11 570.15 397.16 571.52 397.29 573.36 396.97 574.05 397.34 575.66 395.88 574.96 394.9 575.74 393.1 572.99 391.72 573.43 390.84 572.33 389.5 572.3 388.72 573.02 387.86 572.5 386.95 573.49 384.48 572.13 383.51 572.46 381.26 572.32 380.2 570.14 378.72 565.85 377.73 565.1 377.76 562.82 376.64 560.64 374.76 558.71 375.51 557.83 376.54 557.51 Z M 315.17 554.96 316.98 556.1 317.65 558.65 316.79 559.11 316.3 560.46 315.11 559.59 314.07 557.69 312.78 556.99 312.94 555.82 314.05 554.98 315.17 554.96 Z M 221.8 542.39 222.65 542.78 223.47 544.6 224.17 544.97 225.86 546.75 225.55 548.05 226.02 548.59 228.81 548.98 229.7 553.4 229.32 554.02 229.51 555.77 230.07 557.2 229.54 557.69 228.19 557.68 227.6 559.1 228.32 560.99 228.12 562.39 227.34 562.62 226.55 561.77 225.19 562.27 224.26 565.62 224.24 567.42 225.2 568.77 226.74 567.85 228.39 567.35 229.11 565.86 230.23 565.88 231.53 567.06 232.12 568.17 235.63 568.36 236.6 566.38 238.09 566.41 239.45 564.41 240.47 563.81 241.03 561.21 239.95 559.9 241.59 558.85 242.34 559.43 242.42 560.92 243.72 561.68 243.76 563.63 244.38 565.04 248.36 566.78 248.84 568.26 248.28 568.99 246.22 568.46 245.49 567.96 244.8 566.23 242.67 567.06 240.98 568.12 240.05 569.9 239.12 570.58 239.52 573.02 239.26 574.32 237.64 574.83 236.65 574.11 235.1 573.63 234.31 573.93 232.97 575.66 232.64 576.82 232.63 579.04 233.41 580.72 234.58 580.34 236.45 580.63 237.23 581.1 237.69 582.22 237.54 583.81 236.7 586.01 237.94 587.87 239.52 589.32 238.93 590.34 237.68 589.46 236.71 589.38 235.9 588.53 235.48 586.18 233.53 585.53 232.66 584.17 230.12 584.48 228.91 583.9 227.5 583.81 225.19 586.14 224.12 585.5 224.09 584.2 224.93 583.39 226.2 581.33 226.91 579.6 225.59 578.02 226.18 577.55 225.37 576.13 224.81 573.75 223.58 573.57 222.22 572 220.26 573.1 219.24 572.98 216.92 570.47 216.52 568.78 217.25 566.8 218.89 566.63 219.85 565.21 219.05 561.53 219.59 561.25 220.16 559.32 220.14 558.27 219.17 557.4 217.54 557.02 216.62 557.2 215.56 558.3 215.8 558.94 214.86 560.01 214.96 562.35 213.22 563.43 211.35 562.38 210.52 563.99 210.71 565.41 209.13 566.42 209.22 569.08 208.56 569.3 205.09 566.6 205.18 565.16 203.27 562.8 202.66 561.31 203.02 560.89 202.62 558.35 203.69 557.7 202.9 555.52 203.95 551.58 203.99 550.63 203.18 549.85 203.13 548.07 204.32 547.84 205.07 547.15 206.63 547.07 206.34 548.11 209.16 547.98 210.18 547.15 210.93 545.83 213.65 545.35 213.72 544.16 214.86 543.3 216.45 544.39 217.69 545.92 218.93 545.67 219.48 544.5 221.24 544.64 221.02 542.73 221.8 542.39 Z M 244.9 520.32 245.86 521.98 245.21 522.99 244.02 522.96 243.39 523.51 242.99 521.17 243.96 520.21 244.9 520.32 Z M 226.95 518.77 229.4 520.07 230.74 521.09 231.49 522.53 233.04 523.81 235.15 523.17 237.54 523.87 237.99 524.8 235.54 527.6 234.58 527.29 232.56 525.72 227.35 528.15 226.71 526.55 225.79 526.47 223.51 527.89 222.75 525.29 222.94 524.35 223.84 523.93 225.46 523.87 226.62 522.95 227.09 521.73 226.68 520.81 226.95 518.77 Z M 188.59 503.02 189.43 503.25 189.95 504.54 188.28 503.92 188.59 503.02 Z M 155.98 500.16 157 500.76 157.9 500.57 159.81 501.24 160.82 502.64 160.44 503.21 158.51 503.51 155.72 502.88 154.3 501.72 154.24 500.37 155.98 500.16 Z M 174.72 498.73 174.99 499.57 172.83 501.23 171.92 500.68 173.62 499.87 174.72 498.73 Z M 195.76 497.98 198 498.29 199.1 498 201.4 499.2 204.05 501.51 204.47 502.33 206.62 504.29 207.85 504.98 209.96 504.91 211.36 504.43 212.03 505.12 212.45 507.82 212.37 508.92 212.67 511.7 210.56 512.47 207.04 513.18 205.28 513.03 204.2 512.07 202.57 511.59 201.93 510.48 201.14 510.8 199.81 510.45 198.23 511.05 195.23 508.75 194.87 507.49 192.6 505.05 192.01 504.02 192.59 502.14 193.45 501.22 193.89 498.89 194.64 498.01 195.76 497.98 Z M 254.9 493.75 255.78 494.55 255.38 496.93 253.04 497.83 252.49 497.04 253.2 495.17 254.9 493.75 Z M 268.02 492.68 269.14 493.37 267.74 494.34 267.03 493.23 268.02 492.68 Z M 93.27 493.03 95.28 493.45 95.57 495.24 93.88 495.39 92.63 494.64 91.75 493.4 93.27 493.03 Z M 220.44 484.61 223.52 484.76 223.05 485.37 219.29 486.55 218.3 486.06 218.31 485.31 220.44 484.61 Z M 154.39 483.87 155.84 485.72 157.04 487.76 156.89 488.4 157.94 490.72 159.19 491.29 158.35 492.18 158.49 493.34 160.48 495.29 159.55 496.1 157.84 494.72 156.85 496.15 156.06 497.98 155.04 498 153.83 497.2 152.33 495.04 151.64 492.28 151.89 489.79 151.37 489.01 151.42 487.53 151.85 486.8 151.97 484.95 153.19 484.75 154.39 483.87 Z M 182.32 478.3 183.05 478.98 184.13 481.18 184.01 483.3 184.76 484.41 184.05 485.29 183.76 487.04 182.52 487.58 181.25 487.27 180.66 485.31 178.72 487.29 176.25 488.19 174.95 488.07 174.24 489.03 174.48 491.77 172.52 490.62 171.55 488.85 169.67 488.6 168.51 489.35 168.39 490.86 166.63 491.57 165.93 491.31 165.07 490.13 164.22 488.16 164.02 487.03 164.45 486.13 165.58 485.74 166.96 485.82 168.73 484.31 170.33 484.55 171.48 483.42 173.21 482.31 172.7 481.31 173.5 480.15 174.32 480.96 175.63 481.11 176.3 481.67 177.41 481.59 178.3 480.7 179.31 480.69 179.71 479.43 181.28 478.38 182.32 478.3 Z M 259.21 474.71 259.33 476.11 260.02 477.99 263.96 485.09 262.98 486.58 263 487.55 260.77 487.88 260.1 486.08 259.1 485.81 254.77 486.35 254.03 485.31 251.95 485.37 250.71 485.95 248.94 487.72 248.08 490 246.59 490.57 245.13 490.69 244.55 493.09 244.54 494.24 243.57 495.95 242.21 495.92 241.84 494.67 242.55 494.39 242.21 492.91 242.47 490.89 244.22 489.4 243.83 486.86 244.51 484.35 243.5 483.14 242.38 483.58 241.46 483.2 240.22 484.14 237.93 484.36 235.24 482.17 233.85 483.1 232.16 481.85 231.85 480.99 233.89 480.33 234.13 478.61 232.88 476.22 233.93 475.82 236.11 475.57 237.96 475.86 239.97 477.11 241.34 478.8 242.87 478.5 245.5 478.44 247.18 478.05 248.05 478.3 250.54 476.44 252.43 476.92 254.15 476.45 255.27 475.66 257.12 475.66 259.21 474.71 Z M 292.81 473.48 294.16 474.05 295.62 476.83 296.58 476.94 297.62 477.74 298.07 479.48 299.49 483.13 300.11 483.75 300.91 485.62 300.99 487.38 301.97 489.89 303.19 491.53 305.63 492.81 308.26 492.12 309.16 493.51 310.46 494 311.72 495.05 311.49 497.68 313.91 499.28 315.16 498.96 316.11 499.2 318.04 498.01 320.14 497.59 321.01 496.16 322.38 498.12 323.86 498.77 325.04 498.79 325.65 498.15 327.15 498.2 328.34 497.71 332.34 496.99 333.54 495.83 333.86 493.5 334.63 492.93 336.91 493.94 337.88 494.77 339.78 495.09 344.06 494.58 345.48 495.24 346 494.53 349.15 494.42 349.72 493.28 352.08 493.65 353.97 493.28 354.58 492.53 356.02 491.89 358.88 489.58 361.22 488.56 362.51 486.92 364.7 486.34 363.87 489.09 364.1 491.04 363.33 492.08 363.34 495 364.95 496.08 364.75 498.31 362.59 499.17 362.2 500.34 362.2 502.55 361.14 505.4 360.69 505.87 360.66 508.06 361 510.2 362.19 512.09 363.65 512.23 364.16 513.47 363.21 516.53 363.26 519.24 362.93 520.32 365.56 521.72 367.78 522.24 369 523.88 370.37 527.06 370.69 529.32 369.85 530.68 368.39 531.82 366.62 531.21 365.75 532.72 366.27 534.82 367.66 535.55 367.53 536.81 368.95 539.02 368.65 540.39 367.17 540.66 367.18 541.89 368.02 541.92 369.9 543.2 370.98 545.04 374.05 548.75 373.75 550.46 372.23 550.21 370.31 548.38 368.63 547.48 367.86 546.25 366.75 545.45 366.61 544.3 364.71 541.83 362.88 540.05 361.76 539.73 359.84 540.2 359.89 542.05 358.25 542.43 357.31 541.24 355.71 540.14 352.66 539.3 353.68 537.35 353.09 535.96 351.4 534.62 348.7 533.8 344.53 534.73 343.16 535.36 341.64 537.22 342.39 539.53 341.41 539.84 340.13 539.34 338.29 540.02 338.07 540.72 338.51 543.64 337.27 545.54 335.46 546.02 334.77 546.81 334.38 549.38 334.79 551.63 334.3 552.76 333.23 552.78 332.08 549.91 332.88 547.38 331.84 546.33 328.23 546.9 326.54 545.8 326.08 544.34 326.76 542.65 327.16 540.75 327.13 538.45 328.64 536.4 329.5 534.59 329.83 532.87 330.65 530.41 331.26 529.96 331.17 526.19 329.22 525.23 325.73 525.13 324 525.35 323.07 526.73 324.02 528.78 323.83 530.37 323.26 532.1 322.36 532.24 321.16 531.54 319.48 529.97 319.03 528.37 317.57 526.82 315.98 527.07 315.15 526.73 311.84 529.07 311.6 529.65 311.57 532.28 313.23 533.11 313.73 533.98 314.15 535.88 315.73 537.74 316.33 539.25 316.91 539.68 318.1 541.65 318.94 542.17 320.77 545.19 320.68 546.75 319.98 548.99 318.17 550.55 315.15 551.98 312.85 549.98 312.39 548.7 311.49 547.67 310.92 545.64 310.61 542.8 308.07 538.59 307.64 536.85 306.67 536.1 306.52 535.28 304.86 534.98 304.05 536.63 302.75 537.9 300.39 538.65 298.74 538.13 298.26 537.38 295.58 535.67 293.77 535.7 292.55 533.02 291.49 531.8 290.32 531.43 288.6 532.83 288.42 534.08 287.05 535.48 285.09 536.59 283.41 536.44 283.55 534.54 281.97 532.75 279.95 532.66 278.68 533.34 277.72 534.46 274.69 533.44 273.51 531.21 272.46 531.05 271.76 531.85 270.66 531.53 269.05 531.72 268.63 531.23 268.6 528.84 270.69 526.71 272.91 526.12 273.25 524.43 275.09 524.16 275.55 522.99 274.15 518.88 272.86 516.61 270.92 514.33 269.94 514.38 267.67 515.21 265.63 517.12 264.37 516.5 262.4 517.85 260.68 517.99 259.65 519.06 259.59 520.69 258.63 520.86 257.83 519.94 257.96 517.15 258.74 516.06 258.77 513.8 260.16 511.44 261.37 510.43 262.25 509.18 263.26 508.49 261.48 507.16 263.15 505.2 264.4 504.95 264.95 504.04 266.18 503.46 267 502.28 268.43 501.64 269.77 501.52 270.57 501.95 271.2 503.18 270.87 503.77 272.1 507.49 273.1 507.43 275.99 502.89 276.05 500.89 277.78 500.26 281.42 499.49 283.46 498.1 284.25 496.25 284.06 493.67 283.66 493.4 279.99 493.41 277.91 493.04 276.58 493.13 275.04 492.79 272.6 490.82 271.85 490.71 270.39 489.52 268.54 489.59 267.02 488.72 269.09 487.22 269.99 485.24 271.79 483.19 273.15 483.35 274.8 484.6 274.87 486.71 277.23 488.86 278.74 489.17 280.75 488.65 283.9 487.01 284.88 486.8 286.74 484.7 286.7 483.56 285.52 482.38 284.13 480.35 281.15 478.13 279.78 477.71 279.72 476.77 281.26 476.96 283.58 475.32 285.69 474.65 287.47 474.67 288.54 475.6 289.39 473.93 292.26 473.06 292.81 473.48 Z M 197.97 467.69 199.47 467.85 201.64 470.37 200.75 472.8 201.5 474.87 202.52 475.6 203.2 475.2 206.06 477.13 206.73 478.23 206.43 479.96 205.17 479.94 203.53 482.04 202.45 485.24 202.33 486.85 202.65 489.31 201.05 490.48 200.07 490.04 196.6 489.85 195.1 491.02 193.36 494.22 192.14 493.77 193.31 492.04 194.56 491 193.2 489.62 191.57 489.15 190.65 487.66 189.73 488.4 188.12 487.75 188.48 487.01 190.27 485.85 190.92 485.87 191.28 482.67 191.78 480.1 191.25 479.52 191.1 477.03 190.29 475.44 190.39 474.24 189.22 473.53 188.27 471.75 189.11 470.71 189.58 468.8 190.65 468.24 192.47 469.09 193.44 468.53 194.54 468.98 195.41 468.05 196.95 468.09 197.97 467.69 Z M 275.32 463.55 275.67 463.77 275.45 466.19 274.8 466.55 273.86 468.19 272.36 469.05 272.23 466.51 273.16 463.46 273.54 463.02 275.32 463.55 Z M 480.3 461.49 485.24 464.35 485.86 466.23 484.66 466.44 484.16 465.27 480.33 463.12 479.68 462.47 480.3 461.49 Z M 416.1 455.14 416.72 455.63 415.6 458.56 416.61 460.29 416.82 461.31 416.04 461.82 414.36 461.51 412.94 459.19 411.22 458.41 410.7 457.48 411.33 455.75 412.52 455.42 416.1 455.14 Z M 203.49 450.85 204.5 452.93 207.51 454.39 206.79 456.62 207.26 457.69 207.54 459.61 206.32 461.28 205.35 461.87 202.9 464.08 201.15 464.06 200.18 463.1 199.07 461.16 201.15 455.76 200.9 454.75 201.58 454.28 202.02 452.15 203.49 450.85 Z M 306.19 447.22 307.95 447.73 307.92 448.67 305.99 448.02 306.19 447.22 Z M 227.26 436.98 228.81 437.65 230.42 439.34 229.95 439.99 228.4 439.44 227.16 440.72 225.77 441.23 224.81 441.08 222.83 438.38 223.53 437.32 224.93 438.08 225.12 437.27 227.26 436.98 Z M 267.82 437.39 265.96 436.86 266.92 436.02 267.93 436.72 267.82 437.39 Z M 232.87 433.64 233.88 433.8 234.89 435.09 234.2 435.52 232.71 434.79 232.87 433.64 Z M 275.27 431.13 275.85 431.14 277.03 432.67 278.24 432.77 279.05 433.56 279.27 434.64 280.78 436.08 281.79 437.6 283.87 439.41 284.92 439.94 287.01 440.47 288.63 441.22 290.41 441.42 293.3 442.97 299.21 444.83 300.91 444.87 302.99 445.53 303.26 446.34 302.53 447.39 301.5 448.06 300.13 448.08 299.89 449.02 301.18 449.19 301.89 449.77 302.71 448.49 306.63 449.14 307.15 449.74 308.38 449.46 310.39 450.55 311.15 449.72 312.63 449.8 313.6 450.24 313.72 451.66 315.02 454.19 317.86 455.41 318.75 458.53 318.44 459.86 319.07 460.8 320.86 465.87 322.18 467.24 323.98 469.76 322.28 471.12 322.06 472.44 319.25 472.73 318.18 472.09 316.36 470.14 315.72 468.64 313.22 467.06 311.35 464.57 307.62 464.46 305.49 465.12 303.46 467.22 303.86 469.55 302.67 470.59 301.61 469.23 301.62 468.05 300.83 467.55 299.68 467.88 299.59 466.73 296.07 465.8 295.61 466.65 294.66 466.78 293.87 466.18 292.59 467.07 291.07 466.87 290.36 466.21 290.42 465.33 291.74 462.2 293.9 463.1 295.91 465.33 302.41 466.89 302.9 466.66 303.64 464.99 303.51 464.08 302.52 463.17 298.01 461.12 297.17 459.57 295.94 458.87 292.63 457.75 291.98 457.14 291.84 454.73 290.72 453.2 289.57 452.88 287.78 456.41 286.8 457.94 286.71 458.85 287.3 460.37 286.55 461.76 285.41 461.21 284.87 463.1 283.41 462.45 281.98 461.26 281.1 459.46 280.67 456.1 278.49 456.11 278.07 457 276.69 456.39 275.9 455.28 271.79 452.92 270.31 452.41 267.24 456.62 267.55 457.71 269.53 458.89 269.64 460.33 267.63 461.96 265.81 466.1 263.35 467.09 262.77 466.64 260.52 467.09 256.94 466.72 253.18 467.23 251.43 468.59 249.59 467.61 246.76 466.76 243.83 465.03 240.72 464.19 238.29 463.04 235.16 460.68 233.51 461.84 232.24 462.34 230.97 462.35 230.12 459.94 228.12 457.64 228.5 455.81 228.42 454.44 229.39 451.89 229.27 450.53 228.66 448.58 227.73 447.02 227.62 446.1 229.07 443.76 230.3 443.57 232.29 444.71 233.61 443.98 233.25 442.07 233.9 439.98 233.04 439.32 230.75 439.37 230.74 438.14 232.12 437.29 234.11 437.15 234.36 436.51 236.67 438.71 236.17 439.53 234.58 440.32 235.67 441.33 236.47 440.98 237.91 441.22 238.62 441.98 240.06 442.49 240.79 441.95 242.58 442.99 242.89 443.85 245.02 444.85 247.77 446.59 249.22 447.01 250.41 446.4 253.54 446.13 254.75 446.56 255.47 445.68 256.08 443.98 255.83 441.06 254.79 440.96 252.53 439.49 252.19 438.56 252.4 437.33 253.44 437.02 254.5 438.04 255.54 437.45 257.01 437.88 257.92 436.92 259.99 435.93 260.93 436.36 261.95 435.32 262.65 435.57 262.82 437.23 264.33 439.05 265.88 440.23 267.05 440.76 267.54 439.24 268.68 437.83 271.58 437.77 271.85 435.83 273.01 435.24 272.86 433.68 274.69 430.9 275.27 431.13 Z M 197.29 425.04 199.92 425.41 199.43 426.72 200.52 427.58 201.44 427.71 201.24 428.93 200.1 428.91 199.44 428.08 197.29 429.38 195.02 427.99 194.22 426.15 194.89 425.25 196.6 424.73 197.29 425.04 Z M 395.34 419.17 396.56 420.18 397.04 419.7 398.28 421.18 398.9 424.22 398.02 427.22 399.06 429.81 400.63 430.82 400.81 431.84 399.7 433.68 398.21 434.81 397.91 435.71 396.01 438.05 395.34 438.54 394.29 440.45 394.11 441.83 393.39 442.63 392.12 440.91 392.56 440.35 393.94 436.34 396.4 432.95 396.3 431.78 394.31 430.72 392.94 429.27 393.32 428.35 393.63 425.52 394.54 424.39 395.57 422.36 395.22 420.61 395.34 419.17 Z M 87.77 415.36 86.86 414.92 87.78 413.29 88.46 414.1 87.77 415.36 Z M 216.63 410.98 218.45 412 218.48 414.93 219.49 415.69 220.59 419.07 219.73 420.82 218.98 420.79 217.81 419.6 217.34 418.02 215.75 417.51 213.75 415.61 212.86 415.66 210.82 414.86 211.88 412.96 211.86 411.83 212.78 411.64 214.7 412.58 216.63 410.98 Z M 166.17 410.71 167.49 411.5 168.23 413.18 170.14 414.16 171.33 414.09 172.15 415.19 174.64 416.06 174.71 417.07 174.07 418.31 174.6 419.97 175.3 420.56 174.74 423.19 175.57 424.92 175.48 425.87 174.37 426.16 170.86 426.1 169.73 426.97 167.63 426.27 165.72 426.66 163.2 426.61 162.53 427.66 161.36 427.96 161.65 429.78 160.83 432.22 159.42 429.86 157.16 428.36 157.21 427.03 159.39 425.48 159.5 423.97 161.9 422.32 161.19 420.45 161.09 418.71 162.68 418.19 164.54 417.18 165.35 414.54 165.67 412.69 165.06 410.98 166.17 410.71 Z M 134.52 408.74 135.08 410.53 134.96 412.36 134.21 413.12 133.57 411.45 133.67 410.4 132.78 409.77 133 409.03 134.52 408.74 Z M 255.23 407.54 256.46 408.55 255.62 410.18 254.45 410.16 254.1 409.34 254.25 407.89 255.23 407.54 Z M 257.93 400.02 259.25 401.28 261.1 400.84 261.29 401.6 262.68 401.72 263.91 402.41 265.61 403.9 264.62 405.68 264.81 406.59 266.22 406.77 267.24 405.15 268.89 405.65 268.43 406.7 269.33 408.8 270.35 409.27 269.58 410.97 270.08 411.68 270.26 413.34 268.8 413.89 269.61 416.25 270.6 417.92 270.46 419.68 271.3 421.4 272.6 421.08 272.98 421.76 272.64 423.54 273.71 425.57 273.77 427.46 274.78 429.67 272.93 430.73 271.95 429.92 269.51 431.82 268.43 430.94 267.43 432.21 265.9 431.4 264.67 431.78 263.68 431.02 263.7 429.4 263.03 428.74 261.01 429.81 260.3 428.32 258.05 428.55 257.04 428.31 256.56 426.51 256.85 425.72 256.16 424.73 256.98 423.53 255.2 423.73 254.49 423.33 254.93 421.61 255.62 420.51 257.74 421.23 258.88 421.23 260.41 420.01 260.08 418.98 264.08 419.68 264.53 419.16 267.73 418.32 266.56 415.62 265.14 414.24 263.52 414.97 262.96 416.88 262.42 416.71 263.2 414.94 260.1 413.37 260.09 412.38 261.32 412.01 261.16 410.95 260.05 410.15 258.74 412.04 257.53 411.33 257.66 410.47 259.29 409.32 258.98 408.23 258.14 407.63 256.25 408.02 254.96 406.44 255.64 405.3 254.97 403.96 255.41 402.91 256.53 402.22 255.88 399.91 257.08 399.63 257.93 400.02 Z M 250.76 398.71 251.48 399.41 252.67 399.46 254.56 400.06 253.8 400.66 252.91 400.3 251.92 400.62 250.42 399.46 250.76 398.71 Z M 297.44 368.74 298.26 368.87 300.04 371.5 299.83 373.05 301.1 373.95 301.02 375.07 300.29 376.13 298.9 375.98 299.1 374.62 298.53 373.07 297.56 372.26 297.08 370.8 297.44 368.74 Z M 150.21 365.16 150.58 365.92 152.14 366.94 152.97 366.34 156.8 366.49 156.99 367.38 155.98 369.74 155.22 370.56 155.05 371.99 154.25 373.33 152.34 372.65 151.65 373.25 150.81 375.59 150.16 378.1 151.95 380.12 151.39 382.23 150.1 384.03 149.74 386.73 150.02 388.35 151.17 390.64 151.09 391.79 150.26 392.64 148.07 392.73 146.87 391.58 144.79 390.81 143.47 391.33 142.09 391.1 141.11 389.21 140.98 387.43 140.02 386.91 139.97 385.71 138.12 384.47 138.19 384 140.1 384.09 141.48 383.03 140.59 382.12 139.41 379.56 142.28 378.87 142.4 377.49 143 375.48 144.05 375.62 144.54 374.79 145.76 374.41 145.63 373.69 146.53 372.59 143.64 372.61 143.3 369.99 145.27 368.64 146.25 369.99 147.3 370.11 148.36 370.95 149.13 369.91 147.61 369.75 146.12 369.01 145.86 368.34 146.41 367.09 149.2 365.01 150.21 365.16 Z M 185.74 362.05 189.96 363.82 190.78 364.57 192.36 364.95 194.22 366.01 195.02 368.63 195.72 369.86 195.94 372.5 195.55 373.6 196.81 376.46 197.21 377.99 195.26 380.48 193.18 382.09 192.67 383.03 191.79 388.05 189.7 389.41 188.46 389.43 184.62 390.91 183.63 392.3 181.86 393.91 180.51 393.51 179.64 392.32 178.73 389.94 179.21 387.89 180.05 387.09 181.43 386.99 181.19 385.35 180.72 384.72 180.61 383.08 181.01 381.95 183.04 382.53 182.99 381.23 181.96 379.99 182.03 379.11 182.84 378.37 184.47 378.44 184.03 376.58 184.04 374.78 182.93 374.92 181.84 374.07 181.79 372.44 182.92 371.28 185.13 370.09 187.37 371.26 188.97 373.05 190.88 372.98 192.09 372.54 193.46 372.64 194.2 371.1 193.29 369.8 192.61 369.9 190.87 368.4 189.2 366.1 188.6 365.91 186.65 364 184.7 364.67 184.91 363.23 185.74 362.05 Z M 292.24 360.85 294.22 361.46 296.23 360.78 296.75 362.12 295.8 365.65 293.88 364.99 292.33 363.47 292.24 360.85 Z M 243.83 358.32 245.15 358.66 245.51 359.26 245.33 361.11 245.45 363.08 244.73 364.63 244.6 368.63 245.42 371.23 246.26 372.41 246.5 373.48 244.32 374.42 242.51 376.17 241.08 375.64 240.4 372.85 239.83 371.84 240.04 369.43 241.09 368.58 241.52 367.49 241.62 364.3 241.92 363.58 243.17 363.13 243.53 361.13 243.29 358.53 243.83 358.32 Z M 259.52 354.98 260.84 356.01 260.58 357.15 262.3 358.63 262.75 360.02 261.59 360.2 259.02 358.42 258.14 357 258.19 355.28 259.52 354.98 Z M 288.81 328.16 290.09 329.6 289.97 330.38 291.81 330.76 292.11 331.63 293.82 332.68 294.77 334.66 296.18 338.68 296.62 341.48 295.96 342.15 294.16 341.91 293.5 341.09 289.8 340.07 288.53 340.23 288.07 341.77 287.29 342.54 285.8 341.78 286.01 340.1 287.08 339.13 288.13 338.85 288.49 336.25 288.17 335.73 288.78 334.34 288.63 333.33 286.93 330.76 285.34 330.77 285.08 329.65 286.95 329.49 288.81 328.16 Z M 251.33 322.83 253.38 324.18 253.89 325.84 253.07 326.19 253.55 327.86 256.22 328.59 257.89 330.23 256.21 331.03 254.62 332.55 255.46 334.51 254.8 335.5 254.44 336.93 253.42 337.18 252.76 335.69 251.81 334.61 249.96 333.23 248.9 333.26 248.23 330.81 249.18 328.5 249.69 328.49 249.87 324.4 251.33 322.83 Z M 296.53 319.27 298.35 320.09 300.01 320.47 301.19 321.17 301.66 322.15 303.82 322.46 304.64 322.93 305.31 322.36 307.02 325.1 308.54 326.79 309.58 327.07 310.55 328.69 311.14 329.05 310.86 335.09 312.9 338.29 312.98 340.48 314.19 340.64 316.01 341.61 315.8 343.43 314.96 343.06 312.54 343.48 312.19 344.38 309.72 341.68 307.77 341.1 305.9 339.32 304.5 338.38 303.05 336.38 302.04 337.67 299.91 337.4 298.03 334.94 296.47 331.8 296.39 330.57 297.27 329.17 296.23 327.63 295.15 327.03 294.73 326.03 293.69 325.25 294 322.46 296.21 321.64 295.09 319.6 295.56 318.48 296.53 319.27 Z M 249.12 281.68 248.99 283.54 247.57 284.31 247.59 285.37 246.12 286.78 244.66 286.73 244.22 285.84 243.05 284.94 245.4 283.31 245.93 282.16 247.41 282.33 249.12 281.68 Z M 212.79 281.19 213.64 280.95 214.92 281.86 215.95 281.8 217.48 282.51 217.45 283.18 218.98 284.78 222.28 286.26 222.95 288.22 224.29 290.86 224.44 292.51 222.95 293.16 220.43 291.17 218.77 291.07 218.29 289.54 217.65 289.41 217.55 287.66 215.96 286.09 214.62 283.46 213.43 282.41 212.79 281.19 Z M 235.3 231.96 236.23 233.17 237.29 233.65 237.57 235.52 240.78 237.4 240.31 238.15 238.68 238.21 235.48 237.4 235.02 235.63 234.43 234.97 234.43 233.23 235.3 231.96 Z M 299.44 232.23 298.41 232.09 298.26 229.46 299.14 229.23 300.05 230.36 299.44 232.23 Z M 216.79 228.41 217.45 228.88 217.42 230.75 217.9 231.79 216.96 232.32 217.24 233.45 215.43 233.75 214.97 230.5 215.41 228.66 216.79 228.41 Z M 276.28 225.49 276.8 226.68 278.37 228.41 278.36 229.5 277.04 231.1 276.5 231.17 275.53 227.84 276.28 225.49 Z M 218.32 217.92 218.77 218.72 222.8 218 225.68 218.91 225.4 220.17 225.74 222.02 223.88 222.36 222.34 222.19 220.67 221.55 219.38 221.77 217.68 221.45 217.75 220.34 218.4 219.17 218.32 217.92 Z M 362.94 166.99 363.15 167.61 364.89 169.36 366.37 173.01 365.63 174.28 365.41 175.71 364.72 176.57 364.77 177.93 363.68 179.32 361.8 180.39 356.97 182.33 355.99 181.89 354.49 180.15 353.6 178.62 351.82 177.66 352.6 175.62 353.67 172.04 353.53 171.07 354.09 169.57 355.27 169.62 356.45 168.74 357.89 168.42 360.44 167.32 361.54 167.51 362.94 166.99 Z M 389.53 165.21 390.82 165.79 392.89 165.24 394.26 165.92 395.69 167.37 397.54 168.38 399.69 170.05 399.49 171.36 399.95 172.38 399.17 173.94 398.31 174.25 396.82 173.33 393.59 172.9 392.48 172.22 390.11 171.41 387.81 171.73 386.65 170.36 386.73 169.4 386.01 167.87 385.85 166.71 386.39 165.82 387.72 166.13 389.53 165.21 Z M 318.58 158.36 321.69 160.66 322.59 161 322.56 163.54 323.12 164.4 324.41 168.14 327.52 167.46 331.25 167.4 333.02 168.29 334.41 170.12 334.54 170.99 334.19 173.13 333.24 175.16 331.26 175.42 330.15 174.79 326.62 174.93 325 175.86 324.33 179.17 324.79 180.43 324 181.2 324.36 182.57 324.13 184.52 328.18 189.1 330.06 188.16 330.41 186.9 332.45 186.17 335.41 183.41 337.33 184.54 338.17 184.55 340.54 186.11 341.17 187.23 340.75 188.36 339.37 188.46 339 189.34 336.08 191 334.88 192.57 332.79 193.45 332.41 194.74 333.5 196.12 334.87 197.27 334.59 198.24 332.83 199.03 332.11 197.05 330.09 196.77 327.87 198.34 327.32 199.63 325.83 200.43 324.85 200.38 322.18 202.91 321.59 202.39 316.97 202.25 315.21 203.53 314.27 205.28 313.46 207.93 313.83 209.17 316.23 211.41 315.9 212.71 314.33 213.25 312.41 212.37 311.49 212.4 311.18 214.07 309.76 215.79 306.83 215.86 305.54 220.81 304.43 222.41 303.05 222.6 301.17 224.31 300.86 225.96 299.76 226.98 298.93 225.24 298.2 225.03 298.64 222.98 296.68 221.78 294.99 222.96 293.17 222.59 292.53 221.97 290.86 222.54 289.4 219.5 290.48 218.01 293.74 218.45 293.67 216.46 295.39 216.45 294.99 214.59 295.69 213.34 296.73 214.05 297.77 213.67 298.35 211.83 299.51 211.59 299.61 210.86 298.8 209.38 299.88 208.4 299.07 206.74 296.93 207.1 295.98 205.06 296.12 204.37 297.36 203.18 297.6 200.91 296.33 200.74 295.03 199.5 294.84 197.76 294.01 196.5 289.57 194.97 289.44 193.08 288.25 192.27 288.38 191.43 285.6 189.79 284.66 187.9 285.79 185.73 285.09 185.38 285.05 183.75 286.68 183.65 287.36 185.37 287.09 187.24 288.7 188.62 288.58 189.41 289.7 190.4 292 189.9 294.03 189.95 294.85 190.47 296.36 189.79 297.19 188.54 297.2 187.43 298.54 186.66 299.32 185.17 299.88 183.36 301.7 181.23 303.22 177.75 303.28 175.75 303.95 174.83 303.64 173.79 302.82 173.24 304.2 172.11 304.09 169.63 305.75 169.14 306.95 169.49 309.71 169.58 312.86 169.04 313.21 168.12 310.84 166 309.05 165.41 306.92 163.55 307.33 161.94 310.33 162.29 311.61 161.38 315.1 160.78 316.24 159.42 318.58 158.36 Z M 419.27 133.71 419.85 133.85 419.59 135.39 418.36 136.16 416.73 136.23 417.05 135.16 419.27 133.71 Z M 422.49 130.68 423.86 131.43 423.87 132.61 422.25 133.32 420.76 133.37 420.56 132.8 421.25 131.16 422.49 130.68 Z M 366.21 125.25 366.13 125.73 369.21 126.25 369.09 129 367.96 130.17 366.95 130.11 366.16 129.17 364.5 128.79 364.6 128.06 363.85 126.79 364.9 125.86 366.21 125.25 Z M 363.73 120.81 365.32 121.58 363.67 122.39 363.08 123.49 361.97 123.57 362.01 122.62 362.87 121.12 363.73 120.81 Z M 379.25 118.78 381.45 119.37 381.96 121.14 382 122.95 381.25 124.68 380.59 124.99 379.83 123.14 377.69 122.13 375.69 122.62 374.81 121.6 375.2 120.5 377.06 119.51 379.25 118.78 Z M 391.54 99.73 392.84 100.35 393.27 101.14 395.81 103.78 396.14 105.2 395.1 106.88 392.75 107.65 391.84 108.68 391 108.33 388.73 105.5 388.16 104.15 389.18 103.84 389.94 104.6 391.18 104.87 392.25 104 392.08 101.91 391.16 100.96 391.54 99.73 Z" fill-rule="evenodd" id="36670360"/>
<path d="M 455.17 454.47 456.5 455.01 458.41 455.04 460.65 455.78 464.25 457.62 465.71 459.06 464.52 460.63 463.15 460.8 461.3 460.24 460.85 459.3 459.14 457.94 458.24 458.44 457.11 459.76 455.03 457.55 454.79 455.82 454.23 454.67 455.17 454.47 Z M 509.02 424.07 510.06 425.07 510.52 426.72 508.94 426.08 509.02 424.07 Z M 547.01 420.58 549.07 421.61 550.05 422.76 549.97 425.8 548.25 427.28 546.74 427.98 546.16 424.54 546.3 422.6 547.01 420.58 Z M 422.96 411.2 423.91 412.17 424.54 413.77 424.44 414.71 423.03 413.96 422.43 411.94 422.96 411.2 Z M 418.98 407.28 419.55 407.94 419.04 409.63 416.97 410.51 416.68 411.23 415.51 411.54 414.83 409.6 417.94 407.35 418.98 407.28 Z M 424.91 403.38 424.8 405.13 424.05 404.93 423.88 403.48 424.91 403.38 Z M 418.47 390.71 418.6 394.04 417.59 394.3 415.56 393.95 415.31 393.46 416.96 390.5 418.47 390.71 Z M 445.25 358.06 445.81 357.42 444.63 355.86 443.87 345.25 444.11 342.93 443.35 341.92 444.56 340.54 446.6 340.04 447.34 338.88 446.52 338.1 444.44 335.25 445.76 333.53 447.85 330.01 449.05 330.28 451.41 329.21 453.22 329.43 453.91 329.86 455.62 332.73 457.88 333.27 458.01 335.01 461.77 336.18 464.71 338.59 465 339.5 464.78 341.01 466.13 341.38 467.6 344.01 470.81 344.22 473.29 342.58 473.98 341.66 476.27 340.94 478.24 339.52 479.72 341.45 481.08 341.57 482.22 340.86 483.89 340.82 484.56 341.51 486.38 342.2 487.08 343.71 489.06 344.93 491.26 344.05 494.16 343.58 494.78 342.72 496.74 341.31 496.28 339.94 496.57 339.16 495.21 337.16 493.15 336.92 492.06 335.72 492.58 332.08 491.63 330.31 490.97 326.81 491.99 326.23 491.92 324.34 494.86 323.12 497.39 322.32 498.2 320.69 497.9 317.67 498.35 315.68 499.17 313.34 501.67 313.66 506.22 312.26 508.04 312.74 509.17 313.61 511.35 310.84 514.87 310.37 516.37 310.52 517.43 309.62 519.14 308.81 518.9 306.41 519.06 305.58 523.06 299.89 523.14 295.59 524.68 292.66 526.43 290.66 528.72 286.58 530.06 285.51 531.56 284.74 532.95 282.92 534.58 281.25 535.86 278.57 536.46 276.76 538.14 273.85 540.75 270.37 542.49 268.66 544.27 265.41 545.89 259.95 546.35 259.14 548.28 254.25 548.84 251.27 548.89 249.46 557.05 254.28 556.04 253.02 557.67 248.9 558.28 245.18 559.74 245 562.91 246.56 565.51 246.84 566.81 245.63 569.56 245.43 571.38 244.09 574.53 242.67 576.52 242.25 575.95 244.01 576.76 245.81 579.37 247.61 579.19 251.3 578.49 252.54 580.36 254.83 581.32 257.42 584.47 259.95 584.29 260.85 584.95 263.84 584.58 265.85 587.9 268.78 590.24 269.51 590.6 270.64 591.74 271.74 592.76 272.06 594.08 273.92 593.72 275.59 592.59 276.81 592.81 279.45 594.2 281.59 593.88 282.76 595.07 283.89 595.27 284.64 596.34 285.66 597.87 284.68 601.3 284.49 603.45 282.99 604.48 282.8 606.47 283.04 607.7 282.74 608.39 281.84 610.84 281.84 611.55 282.79 610.91 284.39 612.47 288.81 612.49 290.08 611.6 291.52 611.93 294.39 611.5 295.63 611.26 298.58 612.15 300.59 614.99 302.61 618.85 304.78 619.91 305.05 619.45 306.59 617.82 309.22 617.44 310.61 616.12 311.06 615.9 313.68 613.28 315.92 612.89 317.19 613.38 318.76 614.72 319.99 615.11 322.62 616.18 323.6 618.63 324.67 619.55 324.41 620.72 325.1 622.7 325.24 624.16 326.13 625.92 326.37 625.97 328.8 626.81 330.28 628.02 331.47 627.76 333.29 628.04 335 629.33 337.05 629.29 338.66 629.61 341.17 628.06 340.72 626.9 339.14 623.91 338.1 622.8 338.99 619.34 342.65 616.88 346.5 616.06 348.91 615.09 353.27 615.16 356.32 615.64 358.06 617.71 358.99 620.38 359.33 623.02 359.4 625.04 360.67 627.2 360.44 628.44 361.89 627.74 362.88 626.79 362.98 626.16 363.75 624.65 364.28 624.11 365.11 623.76 367.37 624.69 369.52 626.82 370.11 626.5 371.98 625.7 372.28 624.36 371.9 623.15 372.02 619.01 370.59 616.78 369.14 615.4 367.98 613 367.93 611.74 367.59 610.07 368.91 609.82 366.94 608.98 366.13 608.01 366.62 607.96 367.5 608.57 370.16 607.2 370.85 606.55 370.72 604.11 371.77 602.68 371.64 601.08 370.97 598.93 370.49 596.72 369.28 593.04 370 591.91 370.94 591.47 372.18 589.8 373.87 589.5 374.73 589.52 377.51 588.39 378.53 586.55 382.47 586.81 382.82 585.76 384.86 583.49 385.65 582 385.87 580.17 387.44 578.57 387.67 577.87 388.47 576.46 387.78 576.15 386.77 576.66 385.38 576.09 380.97 575.95 378.71 573.84 377.76 572.25 377.83 570.84 378.5 570.23 381.48 570.66 382.36 570.75 385.48 568.91 385.45 568.38 385.87 565.9 384.9 564.52 385.02 563.83 386.26 561.61 388.87 559.85 389.23 558.86 390.17 557.67 389.88 556.55 390.48 556.01 388.41 554.68 387.8 551.62 387.26 550.55 387.27 550.1 385.65 548.04 384.28 546.75 385.05 543.97 384.42 542.91 384.56 540.47 382.2 538.5 382.19 536.62 383.48 534.61 383.22 531.38 383.49 528.7 385.4 528.24 386.75 526.47 388.25 526.15 389.27 527.28 389.81 529.8 389.1 530.92 386.13 531.66 385.98 534.03 386.92 535.53 387.15 540.21 388.63 540.84 388.03 541.77 390.78 543.09 392.85 547.47 396.68 547.6 398.88 548.57 400.36 547.95 401.16 547.81 402.64 546.42 402.69 545.8 401.08 543.79 400.43 543.69 399.99 541.14 400.12 538.36 400.96 537.98 400.74 536.21 401.62 535.62 403.35 534.68 404.6 532.67 406.58 529.32 406.16 526.46 407.16 524.18 406.18 521.12 408.06 520.51 407.97 519.56 409.13 518.64 408.6 517.77 409.06 516.32 408.66 514.92 408.94 513.48 408.39 512.56 409.28 511.21 409.89 510.21 408.71 508.46 410.36 507.64 411.85 507.19 414.21 507.1 415.99 507.79 417.44 506.3 417.69 504.79 416.65 503.16 416.2 501.98 416.88 500.21 418.67 499.04 418.96 499.35 420.05 499.22 421.62 497.93 421.37 497.78 420.01 498.45 419.23 498.44 416.97 499.32 414.58 501.44 413.42 502.32 411.99 502.14 410.54 500.95 408.97 502.28 405.53 501.89 404.7 500.65 403.93 499.05 404.72 497.21 406.99 496.76 408.03 493.96 410.97 493.17 412.05 491.58 412.29 490.42 413.18 489.95 416.05 488.17 415.41 487.02 415.54 485.27 415.07 484.16 415.49 482.58 415.1 481.67 415.62 479.9 415.84 477.09 415.58 475.22 415.83 470.44 413.59 470.21 411.42 469.51 410.33 467.21 410.15 466.01 409.26 464.46 408.88 464.18 406.74 463.64 404.98 464.15 403.47 464.99 402.14 466.53 400.62 467.85 400.57 470.88 398.29 472.32 397.94 472.44 396.49 474.62 395.55 474.49 394.89 471.34 393.27 469.81 394.03 470.78 395.15 471.04 396.55 469.04 397.69 467.04 398.06 466.15 397.6 464.12 398.55 463.79 399.38 461.74 397.73 462.22 396.89 464.53 395.42 464.41 394.18 463.51 392.87 461.2 391.65 460.59 392.07 459.44 391.14 456.99 390.43 454.6 390.62 452.68 392.09 450.19 391.94 447.15 393.71 446.02 395.35 445.97 396.86 447.41 398.39 449.05 399.05 448.85 400.47 449.19 402.21 448.6 403.68 449.93 405.01 449.56 405.91 448.04 404.81 445.75 404.64 444.72 405.03 443.54 406.71 441.01 406.89 439.64 407.48 438.34 407.24 437.5 406.12 437.13 404.67 434.72 403.03 431.97 402.67 429.63 403.77 427.68 403.33 427.2 403.77 425.59 403.1 425.07 401.24 426.62 399.56 429.22 395.51 431.58 394.52 434.97 394.72 435.65 390.83 433.17 390.35 431.09 390.23 430.96 389.82 433.65 389.18 434.24 386.91 435.22 387.22 436.34 386.62 437.24 384.1 435.06 381.97 433.56 379.64 432.45 378.37 432.07 376.32 434.47 374.25 438.92 373.16 438.99 370.76 442.33 370.75 444.17 372.19 445.51 370.73 446.12 371.97 447.58 371.58 448.05 370.1 443.58 370.02 443.55 363.49 442.98 362.49 443.59 360.09 445.28 358.86 445.25 358.06 Z" fill-rule="evenodd" id="36670340"/>
<path d="M 490.95 136.84 491.6 137.09 491.7 138.48 490.5 138.77 489.47 137.49 490.95 136.84 Z M 484.52 136.66 485.32 137.67 485.26 138.84 484.53 139.73 482.72 140.46 480.33 142.23 479.41 144.87 476.44 146.44 475.57 145.4 475.74 143.59 477.51 142.32 478.21 141.36 477.84 139.16 476.96 138.06 475.89 138.74 475.16 138.25 475.57 137.22 476.47 136.79 478.28 136.69 479.86 137.17 484.05 136.43 484.52 136.66 Z M 558.7 93.47 559.41 94.83 558.68 97.83 557.46 97.76 556.62 96.9 557.22 94.89 558 93.71 558.7 93.47 Z M 496.28 88.34 496.6 94.59 496.36 95.62 494.22 97.68 493.59 97.39 493.33 95.86 494.99 88.97 496.28 88.34 Z M 584.01 90.54 591.56 104.34 592.38 104.71 591.6 109.8 591.39 112.08 590.67 115.9 592.17 116.21 592.78 117.52 594.43 118.65 596.54 118.54 599.7 117.36 600.41 120.02 600.91 119.79 602.43 117.86 604.33 117.76 607.09 122.37 608.56 123.49 609.13 125.06 607.74 127.72 608.36 129.25 609.91 130.93 610.9 131.58 610.88 134.11 611.72 135.93 611.39 140.29 609.89 142.44 610.13 143.34 609.84 145.13 608.81 148.84 608.46 150.97 608.68 151.48 611.38 152.61 611.97 155.15 611.17 157.14 613.92 158.83 615.24 161.15 617.74 162.52 621.32 163.61 625.96 165.69 627.96 165.14 629.07 163.76 629.93 163.32 632.76 162.63 634.37 163.49 636.08 163.08 638.73 164.11 640.63 166.04 642.98 166.97 647.12 167.91 649.3 169.49 649.17 172.25 648.42 173.22 648.85 175.62 649.7 176.29 651.43 179.15 650.03 181.05 651.46 182.29 651.94 183.45 654.32 183.48 655.96 184.24 658.66 185.07 660.31 185.09 662.86 186.75 664.23 187.4 665.96 189.79 668.42 190.07 670.42 189.21 671.92 191.51 673.46 193.34 674.05 194.59 676.76 195.81 677.81 195.52 679.72 196.94 680.18 197.92 679.68 199.36 680.02 201.08 678.71 201.04 677.3 201.85 677.45 204.41 674.93 204.79 672.68 203.89 670.61 204.03 669 202.53 666.91 201.91 664.28 202 663.6 201.71 661.23 201.96 660.49 204.2 658.97 205.9 657.9 207.72 656.58 207.11 653.83 207.89 652.42 206.42 651.38 206.39 650.04 205.72 648.06 205.58 645.16 204.58 642.25 204.58 640.98 204.18 640.34 205.82 641.29 208.01 640.81 209.16 640.74 211.14 638.54 213.04 637.19 214.58 636.24 217.17 635.14 218.05 634.03 219.98 632.53 219.69 631.87 218.74 628.51 216.4 626.42 216.31 623.34 215.86 621.41 215.14 620.24 216.3 618.17 216.19 617.08 216.66 616.21 218.23 613.9 221.43 612.79 222.59 610.93 222.83 610.15 223.33 607.99 223.34 607.17 221.05 606.06 219.87 603.96 219.54 603.88 220.47 602.52 225.77 602.8 227.19 592 230.14 592.8 230.88 593.27 232.36 592.27 234.39 589.78 235.08 589.08 233.84 587.55 232.87 586.75 231.19 585.76 230.34 584.72 227.56 581.64 228.74 580.32 230.37 580.02 231.94 580.4 234.21 578.38 235.55 577.65 237.97 576.97 238.46 576.16 240.03 576.7 241.37 576.52 242.25 574.53 242.67 571.38 244.09 569.56 245.43 566.81 245.63 565.51 246.84 562.91 246.56 559.74 245 558.28 245.18 557.67 248.9 556.04 253.02 557.05 254.28 548.89 249.46 549.04 244.18 549.32 241.92 551.35 232.77 552.17 228.3 551.8 224.08 550.18 220.42 548.5 215.67 544.51 206.16 543.92 203.21 543.59 200.04 544.05 196.65 545.18 191.9 546.69 187.14 547.54 182.39 547.87 179.33 547.79 177.63 547.22 174.32 545.66 170.11 545.72 168.13 544.93 165.54 541.71 160.25 540.21 158.3 541.35 156.09 541.46 154.6 540.85 153.37 537.7 150.43 536.61 150.14 535.27 145.25 533.63 145.34 532.67 145.74 532.62 146.85 530.38 148.38 529.86 147.82 529.14 145.56 526.92 143.22 526.96 141.68 527.6 139.26 528.68 137.52 529.57 137.91 532.61 136.4 534.25 133.07 534.87 132.61 534.65 130.75 536.08 130.64 537.76 131.6 540.32 131.24 541.43 131.62 542.48 131.06 543.51 128.97 544.96 128.58 546.09 127.47 549.1 127.86 550.96 127.79 552.77 128.07 555.33 127.9 558.48 128.03 559.58 128.5 561.85 128.81 563.89 128.54 564.82 126.6 565.09 124.55 564.88 123.68 563.37 123.4 562.23 122.33 561.78 121.09 560.73 120.71 557.24 120.95 555.93 120.22 554.92 118.46 554.93 116.76 552.88 115.31 551.47 116.35 551 115.4 549.7 114.29 548.06 114.29 547.78 113.46 548.78 112.89 547.68 110.94 547.42 109.82 548.38 109.41 549.3 109.72 552.14 109.45 553.74 108.48 554.96 106.66 555.24 105.05 554.8 102.65 555.53 101.4 557.62 99.72 559.5 102.15 561.04 102.85 561.93 102.6 562.9 104.65 565.19 104.83 566.32 104.5 566.99 102.24 566.87 101.02 567.46 99.55 566.6 98.32 567.55 95.74 567.51 94.61 566.54 93.49 566.32 92.44 566.97 90.83 566.44 90.38 566.22 88.68 567.14 87.23 566.81 85.76 567.55 85.57 567.91 84.53 569.94 86.64 569.76 87.23 570.69 88.52 572.08 87.27 573.28 88.05 570.59 88.94 570.21 89.99 570.59 91.8 570.17 92.6 570.61 93.77 573.35 94.78 574.41 96.15 575.41 96.2 576.95 95.56 578.52 95.84 579.48 97.02 580.23 96.2 580.14 95.11 581.89 94.57 581.1 93.03 582.75 93.03 584.01 90.54 Z M 568.72 64.82 570.55 64.91 571.65 65.95 568.03 67.5 564.9 67.12 562.76 64.91 566.12 65.23 568.72 64.82 Z M 558.79 63.61 560.57 63.83 559.51 64.74 558.79 63.61 Z M 543.58 53.12 544.55 53.57 545.16 54.9 545.24 56.09 546.13 56.06 546.25 53.98 547.21 53.95 549.24 54.8 549.87 55.54 549.68 56.88 548.5 58.05 549.38 58.69 548 59.49 545.78 59.7 544.22 59.38 542.46 58.09 541.96 56.17 541.9 53.75 543.58 53.12 Z" fill-rule="evenodd" id="36670110"/>
<path d="M 687.29 59.33 690.12 59.84 690.64 61.07 689.3 61.36 686.69 60.62 687.29 59.33 Z M 700.86 60.02 700.48 60.31 698.37 60.17 695.92 57.81 696.53 56.59 697.61 55.75 698.72 56.59 700.86 59.63 700.86 60.02 Z M 712.74 87.33 711.32 90.34 709.73 92.41 708.88 95.11 708.75 97.25 709.23 98.43 710.71 98.9 710.66 100.44 712.4 102.37 709.89 102.65 710.43 104.4 711.22 105.86 711.15 106.71 709.35 109.98 710.56 111.77 713.31 112.29 714.15 112.94 716.65 112.35 717.93 112.61 719.11 111.09 718.86 109.77 719.32 108.32 719.32 106.66 720.47 106.37 721.87 106.68 723.79 105.95 725.82 105.8 728.44 104.9 729.54 105.99 729.97 108.8 731.03 111.58 732.38 113.19 734.19 114.39 736.29 114.76 736.08 116.54 736.99 117.65 737.26 118.81 739.11 121.71 739.47 122.96 740.69 123.97 741.88 124.06 744.25 126.41 744.23 128 744.88 128.21 744.83 130.88 743.97 130.78 742.61 131.5 739.48 132.1 736.02 134.4 735.34 136.68 734.23 138.08 734.11 139.37 731.56 140.1 730.2 140.85 728.31 142.46 727.74 141.5 725.26 138.71 722.95 138.53 720.7 137.16 717.99 136.48 717.15 136.69 715.69 136.31 711.94 134.38 709.82 133.56 708.25 132.6 706.57 133.83 705.17 134.1 703.79 135.74 703.87 137.37 703.59 140.36 703.92 140.87 703.5 142.73 702.56 142.77 698.58 141.88 697.53 141.21 697.68 145.24 697.3 145.71 696.64 148.07 697.03 150.04 697.79 151.26 694.69 152.19 694.56 153.55 693.5 153.43 692.15 151.43 690.65 150.4 687.98 146.62 685.75 144.93 685.72 143.8 683.05 144.26 679.51 143.32 679.13 143.8 679.4 145.25 680.15 146.84 679.98 147.77 679.07 149.13 677.14 150.99 675.17 150.9 672.28 150.05 671.78 150.28 669.44 149.04 666.92 145.7 664.98 145.37 663.21 146.99 662.73 150.24 663.88 150.38 663.58 151.66 664.04 154.05 665.28 154.58 666.17 155.66 665.98 156.7 667.42 159.52 667.64 161.03 668.86 162.68 669.98 161.48 670.65 161.64 672.58 163.54 674.24 163.76 676.48 167.19 678.36 169.01 680.93 169.42 682.42 171.38 683.02 171.77 684.49 173.77 685.64 175.81 686.82 176.68 689.29 177.06 691.43 178.02 693.36 177.55 693.33 178.69 694.13 182.24 694.65 182.44 697.7 186.17 699.17 187.35 700.4 190.25 697.67 192.51 696.37 193 695.08 193.02 693.17 192.46 690.89 193.16 686.45 193.04 686.05 193.64 683.65 194.64 680.96 196.06 679.72 196.94 677.81 195.52 676.76 195.81 674.05 194.59 673.46 193.34 671.92 191.51 670.42 189.21 668.42 190.07 665.96 189.79 664.23 187.4 662.86 186.75 660.31 185.09 658.66 185.07 655.96 184.24 654.32 183.48 651.94 183.45 651.46 182.29 650.03 181.05 651.43 179.15 649.7 176.29 648.85 175.62 648.42 173.22 649.17 172.25 649.3 169.49 647.12 167.91 642.98 166.97 640.63 166.04 638.73 164.11 636.08 163.08 634.37 163.49 632.76 162.63 629.93 163.32 629.07 163.76 627.96 165.14 625.96 165.69 621.32 163.61 617.74 162.52 615.24 161.15 613.92 158.83 611.17 157.14 611.97 155.15 611.38 152.61 608.68 151.48 608.46 150.97 608.81 148.84 609.84 145.13 610.13 143.34 609.89 142.44 611.39 140.29 611.72 135.93 610.88 134.11 610.9 131.58 609.91 130.93 608.36 129.25 607.74 127.72 609.13 125.06 608.56 123.49 607.09 122.37 604.33 117.76 602.43 117.86 600.91 119.79 600.41 120.02 599.7 117.36 596.54 118.54 594.43 118.65 592.78 117.52 592.17 116.21 590.67 115.9 591.39 112.08 591.6 109.8 592.38 104.71 591.56 104.34 584.01 90.54 589.58 79.57 604.55 49.95 604 47.87 604.79 46.75 604.03 44.7 602.35 44.73 600 43.75 598.3 44.05 597.96 42.41 596.24 41.83 596.03 40.68 597.44 39.09 596.2 36.72 595.52 36.21 593.62 35.99 592.81 36.24 591.7 40.05 590.69 41.42 589.03 42.36 588.47 41.39 588.69 39.84 589.64 37.85 590.86 36.42 590.96 35.13 590.12 33.63 589.07 33.3 589.05 32.16 591.17 29.8 592.18 27.42 591.05 25.62 590.12 26.58 588.97 24.44 590.56 22.66 591.98 21.96 592.96 19.68 594.69 17.56 595.81 17.04 596.03 15.92 595.74 14.29 594.93 11.94 593.89 10.84 591.81 12.07 590.89 12 589.67 10.99 587.44 11.56 586.76 10.54 588.49 6.91 589.11 6.26 589.66 4.54 590.59 4.94 591.53 3.67 592.54 5.7 593.32 5.84 594.42 4.57 593.63 3.51 594.65 2.82 595.67 3.08 596.86 1.9 598.54 2.48 600.64 1.34 600.31 3.05 601.11 3.4 602.76 1.62 604.08 1 604.23 2.36 605.48 4.06 603.77 6.83 604.34 7.75 605.5 7.2 606.64 7.98 606.43 9.01 608.67 9.84 610.03 9.01 609.94 7.72 609.03 6.29 610.65 4.24 612.02 4.6 615.44 3.87 616.21 5.41 616.18 6.9 618.17 8.18 618.49 8.99 619.55 9.05 620.01 7.92 620.81 7.34 621.52 8.87 622.6 8.74 623.34 10.53 624.98 10.36 625.35 9.64 626.65 8.91 625.62 8.02 625.41 6.67 632.77 9.24 633.59 9.39 634.86 8.48 636.67 8.23 639.26 8.74 640.57 9.69 640.74 10.6 641.8 10.7 643.46 10 645.64 10.3 645.85 11.53 645.55 13.49 645.1 13.92 641.51 14.1 641.34 15.8 642.86 16.37 643.88 14.71 644.61 14.68 645.37 15.61 646.48 15.79 647.73 15.14 649.14 16.18 648.19 17.75 646.06 18.27 646.06 20.59 648.9 21.42 650.08 23.18 651.06 23.31 652.42 22.41 653.99 22.57 656.59 22.33 658.24 21.95 659.35 21.18 659.97 21.57 662.8 21.43 663.36 21.79 663.89 23.31 664.03 25.03 663.66 26.02 663.63 29.77 663.87 30.79 664.95 30.72 666.82 29.41 667.82 28.2 668.75 27.68 670.87 27.88 672.9 27.62 673.42 28.23 673.31 29.51 672.47 30.37 673.47 31.47 675.13 32.26 675.55 30.16 676.52 30.42 676.42 31.37 677 32.24 678.33 32.95 679.26 32.76 680.18 33.69 680.84 33.06 681.89 33.52 682.05 35.21 683.36 38.51 684.83 38.79 686.18 40.9 686.8 41.05 687.29 42.48 689.2 43.18 689.23 44.42 690.43 47.66 689.65 49.59 688.05 52.55 687.29 53.45 685.92 54.23 684.74 54.3 683.77 53.04 682.42 52.57 681.44 52.73 679.3 54.29 677.5 54.51 677.18 55.47 677.67 57.49 677.12 58.89 678.66 59.61 679.65 60.58 679.46 61.27 682.54 62.39 684.72 61.66 686.08 66.37 691.44 68.63 692.29 69.19 691.42 70.66 693.38 73.01 693.18 75.2 694.2 76.6 695.08 77.16 696.68 79.56 696.75 80.81 697.29 81.46 711.77 86.92 712.74 87.33 Z" fill-rule="evenodd" id="36670310"/>
<path d="M 772.32 304 774 304.24 776.59 305.48 778.26 307.31 778.97 307.72 779.96 309.2 780.78 311.06 781.87 311.46 782.4 313.99 781.26 315.24 781.43 316.78 781.14 318.07 779.69 318.55 779.24 319.48 777.46 319.7 775.14 318.62 773.91 318.42 773.31 317.83 771.77 318.04 770.79 317.79 769.52 316.84 769.25 315.51 770.24 314.22 770.02 313.46 767.74 312.13 767.85 311.01 769.08 310.42 769.19 308.84 767.28 308.47 767.51 307.28 769.61 305.84 770.52 304.04 772.32 304 Z M 768.16 249.33 767.31 248.1 768.64 247.79 768.16 249.33 Z M 797.86 201.35 798.59 203.12 797.87 203.83 797.43 202.11 797.86 201.35 Z M 752.55 89.65 753.72 90.2 755.41 89.73 757.15 90 758.01 91.39 756.57 94.37 754.47 95.71 753.53 94.86 749.43 93.25 749.56 92.22 750.46 91.53 751.56 89.91 752.55 89.65 Z M 736.2 306.92 734.8 304.32 734.13 303.67 733.56 300.99 733.28 298.48 732.36 297.11 731.79 294.5 730.88 293.46 730.86 291.58 731.61 290.33 732.62 289.78 734.09 288.3 735.19 284.45 736.04 283.24 733.93 280.78 732.31 279.22 731.26 278.87 728.95 274.56 728.11 273.71 727.5 271.96 727.94 270.3 727.23 267.98 727.21 266.9 726.51 265.4 726.63 264.08 726.27 263.06 726.61 262.1 725.82 258.99 725.89 257.42 724.31 255.62 723.33 254.96 721.07 250.44 721.08 248.08 720.13 247.45 718.94 246.04 717.99 243.97 716.56 241.93 715.84 239.95 717.81 238.62 721.07 236.91 720.45 233.45 718.81 231.54 718.68 230.43 717.08 228.23 715.4 226.77 714.35 224.79 713.99 223.27 714.04 220.75 711.06 217.41 709.39 214.6 708.5 212.47 708.72 208.33 710.24 206.46 709.86 205.32 707.8 201.17 707.18 200.46 708.24 197.1 707.7 194.18 706.6 192.26 705.19 190.61 700.4 190.25 699.17 187.35 697.7 186.17 694.65 182.44 694.13 182.24 693.33 178.69 693.36 177.55 691.43 178.02 689.29 177.06 686.82 176.68 685.64 175.81 684.49 173.77 683.02 171.77 682.42 171.38 680.93 169.42 678.36 169.01 676.48 167.19 674.24 163.76 672.58 163.54 670.65 161.64 669.98 161.48 668.86 162.68 667.64 161.03 667.42 159.52 665.98 156.7 666.17 155.66 665.28 154.58 664.04 154.05 663.58 151.66 663.88 150.38 662.73 150.24 663.21 146.99 664.98 145.37 666.92 145.7 669.44 149.04 671.78 150.28 672.28 150.05 675.17 150.9 677.14 150.99 679.07 149.13 679.98 147.77 680.15 146.84 679.4 145.25 679.13 143.8 679.51 143.32 683.05 144.26 685.72 143.8 685.75 144.93 687.98 146.62 690.65 150.4 692.15 151.43 693.5 153.43 694.56 153.55 694.69 152.19 697.79 151.26 697.03 150.04 696.64 148.07 697.3 145.71 697.68 145.24 697.53 141.21 698.58 141.88 702.56 142.77 703.5 142.73 703.92 140.87 703.59 140.36 703.87 137.37 703.79 135.74 705.17 134.1 706.57 133.83 708.25 132.6 709.82 133.56 711.94 134.38 715.69 136.31 717.15 136.69 717.99 136.48 720.7 137.16 722.95 138.53 725.26 138.71 727.74 141.5 728.31 142.46 730.2 140.85 731.56 140.1 734.11 139.37 734.23 138.08 735.34 136.68 736.02 134.4 739.48 132.1 742.61 131.5 743.97 130.78 744.83 130.88 744.88 128.21 744.23 128 744.25 126.41 741.88 124.06 740.69 123.97 739.47 122.96 739.11 121.71 737.26 118.81 736.99 117.65 736.08 116.54 736.29 114.76 734.19 114.39 732.38 113.19 731.03 111.58 729.97 108.8 729.54 105.99 728.44 104.9 725.82 105.8 723.79 105.95 721.87 106.68 720.47 106.37 719.32 106.66 719.32 108.32 718.86 109.77 719.11 111.09 717.93 112.61 716.65 112.35 714.15 112.94 713.31 112.29 710.56 111.77 709.35 109.98 711.15 106.71 711.22 105.86 710.43 104.4 709.89 102.65 712.4 102.37 710.66 100.44 710.71 98.9 709.23 98.43 708.75 97.25 708.88 95.11 709.73 92.41 711.32 90.34 712.74 87.33 714.3 84.74 715.02 81.65 714.43 80.39 714.19 77.43 714.74 75.95 717.09 74.75 718.76 74.57 720.19 75.87 722.3 74.75 722.05 73.76 723.23 73.05 725.15 72.45 726.63 72.33 729.27 71.18 730.13 69.16 731.14 68.43 732.01 68.72 732.7 67.62 734.72 70.2 736.73 70.4 737.76 71.72 737.89 72.71 736.46 73.46 733.96 73.31 732.17 73.68 730.79 75.67 730.66 76.78 731.38 79.54 729.96 80.56 729.72 82.07 730.9 82.87 733.17 83.74 735.05 82.63 736.5 82.73 738.87 81.76 740.55 83.65 741.91 83.8 742.08 85.02 741.43 86.45 741.78 87.61 743.01 88.53 743.06 90.26 741.74 90.57 741.76 92.13 745.79 97.58 748.3 97.92 749.04 99.02 751.26 98.97 752.84 101.04 754.12 101.57 753.73 103.12 754.07 104.39 750.88 106.38 749.91 109.14 750.76 110.22 753.33 110.48 755.42 111.1 757.06 110.87 758.63 112.1 760.26 112.86 761.89 112.4 762.8 111.74 763.08 113.38 765.89 114.78 767.36 118.19 767.95 118.75 769.23 122.43 769.24 123.62 768.55 124.7 768.98 126.1 771.6 125.85 772.83 127.99 774.45 130.32 774.47 131.25 776.12 132.7 777.52 132.27 779.23 133.12 780.42 134.37 781.73 134.54 783.11 133.48 784.67 133.87 784.66 134.53 785.74 135.5 786.26 135.07 787.52 135.95 788.35 137.19 788.29 138.49 787.07 139.42 787.36 143.59 787.78 144.44 789.29 145.17 789.72 145.84 791.14 146.14 792.8 147.1 793.57 148.66 794.52 148.39 796.07 149.38 796.6 152.25 794.76 155.24 793.03 156.58 791.21 156.83 788.61 154.5 787.54 154.86 785.44 157.25 784.66 157.76 782.11 157.22 781.59 157.94 781.87 165.31 782.31 166.43 783.61 166.44 785.52 167.6 786.04 169.17 788.61 170.35 789.91 171.95 792.17 170.84 793.25 172.2 791.77 173.66 790.66 177.05 791.08 178 790.28 179.1 790.06 182.02 791.66 183.59 793.08 184.02 794.86 185.15 796.1 186.84 796.17 188.03 797.12 188.88 798.78 191.08 799 192.64 798.48 193.4 797.07 193.27 795.79 194.1 794.05 196.19 792.62 197.38 790.02 196.89 788.71 195.49 787.99 193.74 786.64 191.55 786.19 189.31 787.24 187.96 787.68 186.18 786.82 185.1 785.5 185.05 783.26 184.35 781.41 185.45 780.81 186.93 778.28 188.5 777.14 188.47 774.92 186.9 775.42 185.68 774.34 185.21 772.11 185.34 769.82 186.14 767.69 185.58 766.98 185.95 765.12 188.31 762.35 188.16 761.08 190.46 760.36 190.53 760.24 192.2 759.27 193.14 760 194.22 760.4 195.63 760.13 197.24 759.43 198.54 759.54 200.88 760.21 202.5 763.35 206.02 766.36 206.86 767.32 207.96 769.41 207.79 773.08 208.9 775.58 208.49 778.95 209.06 780.27 210.17 779.49 211.57 779.62 213.24 779.25 213.98 778.88 216.25 779.23 218.22 778.74 219.3 777.84 219.97 777.65 221.11 776.89 221.31 774.14 220.06 772 220.52 768.52 223.66 765.95 226.18 762.63 230.08 760.63 232.79 759.89 234.27 759.85 236.07 761.51 238.6 761.48 242.32 762.6 243.89 762.57 244.79 764.64 247.67 765.31 248.92 768.03 251.78 768.75 251.97 769.53 253.63 768.28 254.9 768.92 256.87 770.66 258.37 769 260.83 767.16 261.43 764.43 263.52 761.66 265.35 760.48 266.61 758.29 268.23 757.28 269.85 757.58 270.81 755.02 272.91 751.96 276.35 750.03 279.44 749.85 281.42 750.41 283.92 750.11 284.92 750.4 287.01 748.8 289.52 747.33 290.88 744.54 293.92 743.06 295.12 742.9 295.93 740.91 295.65 739.29 296.66 738.09 298.48 736.91 299.76 737.09 301.65 736.51 304.76 736.68 306.2 736.2 306.92 Z" fill-rule="evenodd" id="36670320"/>
<path d="M 716.46 595.55 716.99 595.68 719.22 598.81 718.36 599.12 714.84 597.73 715.22 596.36 716.46 595.55 Z M 734.36 534.64 735.46 536.9 734.11 536.46 733.64 535.83 734.36 534.64 Z M 741.24 533.85 742.59 534.37 743.54 535.2 744.08 534.49 745.69 534.35 746.58 534.67 747.89 536.17 748.7 537.75 748.61 538.65 747.79 539.04 745.83 537.42 744.14 536.62 743.25 537.36 741.75 536.64 741.51 535.84 740.53 535.67 740.36 534.06 741.24 533.85 Z M 668.07 464.16 668.22 464.7 669.92 465.02 671.46 466.61 672.91 468.77 675.44 470.41 677.24 469.68 677.07 470.73 676.16 470.79 675.47 472 675.47 473.3 671.25 472.73 669.85 471.56 668.45 469.88 664.98 467.72 664.32 467.64 663.51 465.95 663.43 464.82 664.27 464.07 665.42 464.19 666.77 465.04 667.89 465.02 668.07 464.16 Z M 676.23 448.95 677.58 449.53 678.11 450.27 677.27 451.4 676.04 450.5 675.61 449.49 676.23 448.95 Z M 670.05 447.37 670.37 449.32 671.03 450.3 671.14 453.64 671.4 454.47 673.25 457.35 673.75 458.82 674.84 460.2 675.79 460.21 677.25 459.25 679.15 459.78 678.88 462.25 676.11 461.4 675.14 462.11 673.62 460.94 671.64 458.84 668.89 459.15 668.27 458.9 668.53 456.69 670.2 456.74 671 456.09 670.91 454.55 668.94 453.35 668.51 452.59 668.95 450.74 668.63 448.96 669.3 447.66 670.05 447.37 Z M 690.82 373.88 690.57 373.59 692.81 370.78 693.03 371.2 690.82 373.88 Z M 691.97 369.78 689.95 368.54 690.38 367.63 692.01 368.48 691.97 369.78 Z M 741.54 356.72 742.42 357.16 742.78 358.26 741.57 359.75 740.32 360.41 739.12 360.44 737.91 359.13 738.39 357.63 740.76 356.45 741.54 356.72 Z M 717.77 354.73 717.36 355.33 718.39 357.64 717.74 358.97 716.64 359.56 716.52 360.84 714.87 361.31 713.84 360.71 713.96 358.2 715.8 356.51 716.06 355.64 717.19 354.57 717.77 354.73 Z M 712.09 345.86 713.14 346.26 713.31 347.85 714.11 348.55 713.35 349.64 712.08 350.22 711.19 351.61 709.82 350.39 709.87 348.66 710.84 348.2 710.63 346.53 712.09 345.86 Z M 693.71 339.4 695.21 339.87 696.25 340.99 694.76 343.59 693.04 343.6 692.14 342.57 692.8 339.54 693.71 339.4 Z M 684.21 336.92 685.7 337.33 685.09 338.58 686.46 339.92 685.48 340.68 684.87 339.35 683.95 338.28 684.21 336.92 Z M 747.17 330.15 747.16 333.43 749.03 334.84 749.8 336.38 749.44 337.53 748.48 337.84 747.49 336.86 747.58 335.97 745.59 334.75 745.52 333.85 746.35 333.33 746.26 332.21 745.53 331.08 746.31 330.21 747.17 330.15 Z M 758.31 312.79 759.66 313.22 759.19 314.95 758.04 316.47 757.8 317.64 758.11 320.45 757.86 323.06 755.46 325.09 755.3 326.32 754.13 325.84 751.98 327.74 751.79 328.49 750.48 329.23 748.27 328.8 747.99 327.03 748.25 325.92 750.24 324.79 751.11 322.94 751.81 322.21 752.83 320.31 753.75 319.48 752.74 316.68 753.66 315.39 755.78 314.6 757.73 312.35 758.31 312.79 Z M 736.2 306.92 735.15 307.26 733.17 306.26 732.07 305.33 728.81 306.39 727.03 307.79 726.02 309.26 727.93 312.3 727.96 313.7 726.44 315.6 727.16 318.05 728.03 318.69 728.33 321.18 728.92 322.41 727.5 324.22 727.16 326.07 729.15 327.64 728.96 329.64 728.19 329.93 727.54 331.99 727.9 333.06 727.07 333.85 725.15 333.51 723.97 335.35 722.67 334.84 721.4 333.53 719.03 332.85 717.85 333.37 717.43 334.31 716.1 335.15 715.82 336.77 715.96 338.74 715.03 339.07 714.7 341.05 716.59 341.73 716.97 343.62 715.88 344.52 712.93 344.52 711.99 343.54 711.74 342.49 713.5 342.26 714.04 341.02 714.1 339.71 713.3 337.76 712.34 337.27 710.95 335.44 709.03 333.83 708.13 331.3 708.37 329.93 707.64 328.57 706.59 327.89 705.79 327.99 704.33 325.59 704.27 324.54 706.88 325.25 709.02 325.08 710.94 326.96 713.13 325.97 714.53 324.15 714.51 323.11 713 321.55 711.43 320.55 710.04 319.26 709.97 317.01 708.79 315 705.56 312.66 704.6 311.05 705.44 309.53 707.86 309.19 709.19 309.33 710.39 308.91 711.96 308.85 713.65 307.4 712.38 306.09 709.65 306.18 707.44 305.01 707.14 303.76 707.13 301.73 707.7 300.95 709.72 300.69 710.84 299.37 710.98 297.85 710.61 296.78 707.71 297.29 706.83 296.21 706.42 294.7 705.72 293.84 705.73 292.9 704.79 291.25 703.79 290.79 701.69 291.53 701.7 293.28 702.86 295.61 702.67 297.2 703.14 299.18 702.41 300.54 700.42 301.21 699.04 300.43 698.56 298.74 697.65 299.74 690.73 305.68 691.24 307.83 693.48 308.97 693.52 311.8 692.3 314.57 692.33 315.21 693.72 316.43 693.39 317.6 694.37 319.46 694.51 321.22 695.66 324.42 695.75 327.28 696.03 329.01 695.65 330.83 696.48 332.75 695.02 333.75 693 332.75 693.18 331.3 692.15 327.5 692.7 325.41 692.51 324.07 690.55 323.12 689.69 322.03 687.86 321.65 687.77 320.35 686.8 319.31 685.79 318.85 685.18 317.97 684.78 315.8 683.86 314.41 681.6 312.92 680.07 309.74 678.84 308.66 677.4 308.47 675.87 310.95 677.13 312.66 677.05 315.04 677.7 316.28 679.11 316.72 679.63 317.66 679.23 318.86 680.33 319.85 680.29 322.39 682.54 323.45 684.42 325.64 683.55 326.8 684.42 328.11 683.24 329.35 681.55 327.67 678.94 327.02 677.55 327.24 675.76 328.12 674.25 327.9 673.2 326.97 673.52 324.75 672.07 322.99 672.81 321.73 672.78 319.41 671.44 317.78 670.17 318.33 670.14 319.21 667.41 318.85 663.62 317.98 663.29 319.09 663.5 320.64 662.81 321.66 663.84 323.57 663.65 324.14 662.17 324.22 662.01 325.32 662.36 328.11 662.73 328.91 664.75 329.55 665.54 330.56 665.85 332.29 666.81 332.38 667.71 333.19 667.99 335.05 669.71 336.29 670.03 338.11 668.88 340.01 667.23 339.87 665.43 340.87 663.46 340.51 661.08 341.18 660.04 341.84 659.05 343.13 658.92 344.18 660.02 345.28 662.7 348.97 664.65 348.83 666.16 349.25 666.93 348.85 669.24 350.03 670.36 349.81 671.33 348.13 671.18 346.91 671.47 344.53 672.42 343.77 674.4 343.63 675.81 343.05 676.8 341.48 677.79 341.78 678.25 344 677.77 344.96 677.65 346.48 678.71 347.13 679.12 350.07 679.45 350.93 680.87 352.25 680.65 353.43 678.92 354.85 676.67 356.06 676.05 356.07 674.07 354.75 672.19 355.62 671.22 356.91 668.96 357.9 668.83 359.53 669.44 361.11 670.77 361.75 671.74 364.35 673.18 365.05 673.89 364.51 674.2 363.35 675.74 362.84 678.87 364.75 679.88 363.62 680.59 361.75 679.77 360.3 681.52 359.78 682.77 360.21 684.27 359.18 685.27 359.45 684.72 360.66 684.9 361.69 686.83 363.79 688.24 363.61 689 364.96 688.73 366.66 684.94 365.82 683.28 368.19 682.19 368.31 682.35 369.57 684.84 369.97 685.22 370.29 686.27 373.14 685.19 374.08 685.68 375.77 687.08 376.18 690.97 375.34 691.5 375.71 687.48 376.58 686.44 378.25 686.57 379.79 685.21 380.67 684.58 380.15 682.59 379.88 682.15 379.45 680.52 379.34 679.58 382.33 677.75 383.05 677.54 385.1 676.99 386.38 675.32 386.24 672.38 388.4 671.16 388.22 670.81 387.04 668.52 386.43 667.35 385.23 667.56 384.11 666.02 382.94 665.37 381.89 666.2 379.83 664.68 378.93 663.04 378.88 662.06 379.5 661.4 381.05 660.44 381.38 658.66 383.45 658.94 384.21 657.99 386.1 658.93 387.18 660.09 389.5 660.71 389.57 661.11 391.06 662.55 391.89 662.3 392.9 659.73 393.88 656.93 396.58 653.65 396.14 652.66 395.71 653.49 394.74 653.21 393.86 653.54 390.72 652.3 389.1 651.62 389.83 648.86 390.36 647.46 390.21 644.08 387.75 645 387 644.85 385.69 644.14 384.16 644.6 382.72 646.4 382.58 647.71 380.85 646.93 379.11 647.27 377.44 645.67 376 645.89 375.19 647.4 372.91 648.9 371.42 649.4 371.78 650.89 369.13 652.21 368.64 652.29 366.58 650.74 365.75 651.34 365.04 650.24 363.84 650.71 360.98 649.96 360.77 650.03 358.93 650.62 356.37 650.72 354.29 652.04 354.33 653.53 353.71 654.19 352.86 655.78 352 656.78 352.9 657.02 354.82 658.38 354.83 660.65 354.03 661.78 353.07 661.11 350.95 662.31 348.9 659.71 345.54 659.1 345.02 656.96 345.45 653.73 344.08 653.06 344.09 651.26 343.02 650.15 343.86 650.42 345.38 649.36 347.13 647.38 348.01 647.3 348.82 645.97 350.05 645.02 351.37 643.02 350.55 639.76 350.06 639.39 349.26 639.82 347.86 639.14 346.58 639.64 345.54 641.03 345.66 642.23 345.29 642.59 344.34 642.41 342.86 640.71 340.71 636.99 341.2 635.16 341.13 634.1 339.43 632.86 341.11 630.58 340.97 629.61 341.17 629.29 338.66 629.33 337.05 628.04 335 627.76 333.29 628.02 331.47 626.81 330.28 625.97 328.8 625.92 326.37 624.16 326.13 622.7 325.24 620.72 325.1 619.55 324.41 618.63 324.67 616.18 323.6 615.11 322.62 614.72 319.99 613.38 318.76 612.89 317.19 613.28 315.92 615.9 313.68 616.12 311.06 617.44 310.61 617.82 309.22 619.45 306.59 619.91 305.05 618.85 304.78 614.99 302.61 612.15 300.59 611.26 298.58 611.5 295.63 611.93 294.39 611.6 291.52 612.49 290.08 612.47 288.81 610.91 284.39 611.55 282.79 610.84 281.84 608.39 281.84 607.7 282.74 606.47 283.04 604.48 282.8 603.45 282.99 601.3 284.49 597.87 284.68 596.34 285.66 595.27 284.64 595.07 283.89 593.88 282.76 594.2 281.59 592.81 279.45 592.59 276.81 593.72 275.59 594.08 273.92 592.76 272.06 591.74 271.74 590.6 270.64 590.24 269.51 587.9 268.78 584.58 265.85 584.95 263.84 584.29 260.85 584.47 259.95 581.32 257.42 580.36 254.83 578.49 252.54 579.19 251.3 579.37 247.61 576.76 245.81 575.95 244.01 576.52 242.25 576.7 241.37 576.16 240.03 576.97 238.46 577.65 237.97 578.38 235.55 580.4 234.21 580.02 231.94 580.32 230.37 581.64 228.74 584.72 227.56 585.76 230.34 586.75 231.19 587.55 232.87 589.08 233.84 589.78 235.08 592.27 234.39 593.27 232.36 592.8 230.88 592 230.14 602.8 227.19 602.52 225.77 603.88 220.47 603.96 219.54 606.06 219.87 607.17 221.05 607.99 223.34 610.15 223.33 610.93 222.83 612.79 222.59 613.9 221.43 616.21 218.23 617.08 216.66 618.17 216.19 620.24 216.3 621.41 215.14 623.34 215.86 626.42 216.31 628.51 216.4 631.87 218.74 632.53 219.69 634.03 219.98 635.14 218.05 636.24 217.17 637.19 214.58 638.54 213.04 640.74 211.14 640.81 209.16 641.29 208.01 640.34 205.82 640.98 204.18 642.25 204.58 645.16 204.58 648.06 205.58 650.04 205.72 651.38 206.39 652.42 206.42 653.83 207.89 656.58 207.11 657.9 207.72 658.97 205.9 660.49 204.2 661.23 201.96 663.6 201.71 664.28 202 666.91 201.91 669 202.53 670.61 204.03 672.68 203.89 674.93 204.79 677.45 204.41 677.3 201.85 678.71 201.04 680.02 201.08 679.68 199.36 680.18 197.92 679.72 196.94 680.96 196.06 683.65 194.64 686.05 193.64 686.45 193.04 690.89 193.16 693.17 192.46 695.08 193.02 696.37 193 697.67 192.51 700.4 190.25 705.19 190.61 706.6 192.26 707.7 194.18 708.24 197.1 707.18 200.46 707.8 201.17 709.86 205.32 710.24 206.46 708.72 208.33 708.5 212.47 709.39 214.6 711.06 217.41 714.04 220.75 713.99 223.27 714.35 224.79 715.4 226.77 717.08 228.23 718.68 230.43 718.81 231.54 720.45 233.45 721.07 236.91 717.81 238.62 715.84 239.95 716.56 241.93 717.99 243.97 718.94 246.04 720.13 247.45 721.08 248.08 721.07 250.44 723.33 254.96 724.31 255.62 725.89 257.42 725.82 258.99 726.61 262.1 726.27 263.06 726.63 264.08 726.51 265.4 727.21 266.9 727.23 267.98 727.94 270.3 727.5 271.96 728.11 273.71 728.95 274.56 731.26 278.87 732.31 279.22 733.93 280.78 736.04 283.24 735.19 284.45 734.09 288.3 732.62 289.78 731.61 290.33 730.86 291.58 730.88 293.46 731.79 294.5 732.36 297.11 733.28 298.48 733.56 300.99 734.13 303.67 734.8 304.32 736.2 306.92 Z" fill-rule="evenodd" id="36670330"/>
</g>
</svg>