<?xml version="1.0"?>
<svg xmlns="http://www.w3.org/2000/svg" version="1.2" baseProfile="tiny" width="800" height="795" viewBox="0 0 800 795" stroke-linecap="round" stroke-linejoin="round">
<g id="dong">
<path d="M 780.61 170.73 784.02 171.61 786.63 170.33 789.17 170.03 791.55 172.56 792.27 174.77 791.44 175.82 791.69 179.67 791.03 183.55 788.84 185.02 782.99 186.38 781.61 188.41 779.95 188.8 779.15 191.08 779.63 192.7 779.04 195.61 780.49 198.04 782.8 198.43 783.19 200.73 784.78 201.33 786.62 200.7 786.87 204.31 789.13 205.7 790.38 208.5 793.52 210.8 792.96 212.75 794.13 219.22 799 219.73 796.83 221.74 794.17 222.42 793.62 223.71 790.16 225.75 789.83 228.99 791.22 230.12 789.78 231.75 787.94 231.88 785.56 233.3 783.06 233.14 782.43 235.82 780.39 236.63 780.05 238.65 780.5 242.58 782.71 244.85 783.45 248.14 780.41 248.36 778.25 249.44 777.01 251.59 777.34 254.73 775.78 257.98 775.04 260.9 771.95 262.36 769.02 262.53 766.34 263.52 764.57 265.38 763.83 267.28 763.64 272.42 760.33 275.49 759.62 277.63 760.61 279.07 760.04 280.98 757.34 280.01 756.04 280.69 753.85 283.43 752.72 287.99 754.21 289.74 755.34 292.73 755.08 295.09 754 295.95 755.08 298.25 758.49 301.39 756.21 306.63 752.93 307.18 751.06 305.78 748.05 306.17 744.06 308.39 740.8 308.52 731.52 318.04 730.32 316.77 738.16 308.49 732.96 304.31 728.07 305.07 725.91 307.34 727.99 309.35 726.55 310.8 724.9 309.22 718.29 316.12 716.85 321.59 722.69 326.43 721.14 329.38 722.1 330.44 733.28 325.6 736.88 321.6 737.37 322.22 734.05 325.73 733.2 329.59 729.3 331.85 727.45 336.61 722.38 339.04 718.28 340.14 716.45 344.47 716.39 346.84 717.48 351.09 719.22 354.35 720.96 355.48 720.11 358.39 718.83 357.5 717.06 358.88 716.46 360.55 717.52 363.28 721.62 366.35 722.92 369.74 724.58 376.5 724.22 377.6 719.85 380.44 715.58 381.72 711.4 381.88 709.22 385.06 709.28 386.46 706.66 390.31 706.72 392.82 708.01 394.46 711.49 394.43 713.14 395.15 712.04 396.95 713.18 398.03 713.46 400.37 715.08 402.33 710.17 406.05 709 410.21 706.61 411.4 704.53 420.89 704.9 423.82 707.09 426.44 709.77 427.31 712.34 429.22 707.97 430.8 705.76 429.1 702.33 425.54 701.26 426.59 700.5 430.93 699.1 429.8 696.65 430.61 697.06 433.93 695.63 434.88 692.69 434.75 689.56 436.26 687.03 440.21 686.51 445.6 689.36 447.28 687.5 450.98 686.16 450.24 684.61 451.32 682 451.81 680.22 453.53 678.59 453.56 677.14 454.87 676.97 456.54 677.83 459.37 674.69 461.7 674.34 465.11 675.82 467.8 673.98 472.73 672.05 475.95 673.29 477.28 673.71 480.46 672.63 481.49 669.49 480.17 663.55 483.36 662.69 485.56 662.79 487.87 662.19 485.94 656.5 483.35 657.64 480.94 655.54 479.65 652 479.82 650.51 481.44 646.71 481.71 644.94 480.72 643.34 481.57 641.94 480.2 638.74 480.85 635.93 479.96 635.88 475.15 634.51 476.71 630.52 479.08 630.23 480.81 624.39 482.79 623.06 483.87 620.19 488.23 614.32 480.83 612.01 477.18 610.14 478.15 606.95 477.86 604.98 475.27 603.49 470.06 598.78 470.73 595.9 471.75 592.79 469.83 591.7 467.4 591.67 464.34 590.92 462.71 589.65 456.56 587.36 452.31 584.56 448.13 585.34 445.6 587.45 443.84 587.21 441.06 584.17 437.83 582.01 437.42 578.51 435.35 573.24 434.66 570.61 432.82 567.4 432.45 562.83 432.79 561.75 431.55 561.47 428.9 557.21 425.42 559.26 422.6 558.85 418.94 559.48 418.14 562.52 417.47 567.19 419.14 570.79 416.98 573.35 418.2 574.96 416 578.09 415.5 582.15 418.72 584.73 417.52 585.86 421.39 585.81 423.24 588.76 423.37 592.82 424.79 595.29 424.27 598.67 424.66 601.65 425.64 598.61 419.06 598.99 415.78 597.81 414.24 601.08 409.92 604.39 409.13 603.85 405.83 602.92 404.74 600.28 404.15 600.53 402.19 595.17 393.5 594.25 390.09 593.51 384.96 592.21 385.27 592 380.61 592.25 376.97 594.13 373.52 592.51 369.83 590.72 362.91 589.2 361.52 591.36 359.01 593.32 359.06 595.34 356.11 596.75 355.31 596.55 351.11 595.79 348.5 596.15 345.93 594.76 345.22 595.29 341.27 596.56 339.85 595.85 337.65 597.26 335.94 597.11 333.54 594.48 331.19 596.32 326.64 595.93 322.85 593.61 318.72 595.32 317.98 597.3 314.8 597.65 312.69 590.75 309.6 588.92 309.12 589.64 305.54 588.95 302.4 589.89 299.46 591.92 299.1 593.91 297.53 593.33 296.22 596.49 293.44 594.77 291.88 595.03 287.05 596.19 283.52 600.51 279.34 599.96 278.6 602.73 276.19 604.41 273.39 608.02 270.16 609.63 271.58 611.42 269.89 611.27 265.83 609.47 262.23 612.32 259.4 613.88 259.4 617.51 256.95 617.98 248.95 621.18 244.62 626.96 245.2 631.73 244.51 631.86 242.88 634 241.21 639.23 233.12 640.64 235.85 644.55 235.22 646.87 237.26 648.18 237.31 651.68 240.87 654.72 240.29 657.79 242 659.1 240.9 658.96 238.54 664.51 236.42 663.68 232.5 661.19 228.89 662.72 225.8 660.8 224.52 660.54 223.19 661.88 216.99 662.68 215.71 667.77 212.84 662.79 208.24 663.23 205.43 662.41 203.15 665.8 200.38 666.28 195.44 673.16 190.42 676.58 188.75 678.3 190.55 680.62 195.58 682.04 195.35 684.47 197.38 694.32 197.2 696.3 195.48 701.37 195.44 702.04 197 706.22 197.52 710.98 194.77 712.92 193.15 718.59 191.51 720.87 193.31 723.9 193.53 725.5 191.93 731.33 192.14 734.41 189.69 733.92 186.1 735.86 185.04 737.1 185.85 740 185.83 742.2 183.95 744.59 182.76 746.75 183.23 747.79 182.17 752.12 180.46 753.83 177.28 757.02 176.48 757.1 171.54 755.51 165.63 755.6 160.89 756.77 160.47 761.42 161.47 763.2 163.37 766.32 164.61 766.59 167.19 769.33 171.33 770.08 174.09 772.95 173.06 777.18 173.19 780.61 170.73 Z" id="37011110"/>
<path d="M 104.41 160.6 102.41 163.09 102.52 164.96 98.7 165.57 97.74 165.2 92.8 168.25 91.19 170.72 91.63 174.63 89.94 177.75 91.42 180.75 91.24 181.88 92.63 185.29 92.67 188.65 93.3 190.37 92.5 192.29 92.95 194.55 91.99 198.65 89.06 201.27 88.02 208.18 88.96 209.76 88.75 211.73 89.98 214.12 89.79 216.86 88.63 218.9 89.46 220.37 91.22 220.97 92.59 223.94 94.23 224.99 94.78 227.9 98.96 230.31 101.58 233.77 103.41 233.41 106.71 236.25 106.43 238.16 109.59 244.15 107.74 245.85 108.09 248.94 107.18 251.84 109.52 254.93 114.28 257.58 116.08 262.22 117.75 262.87 118.75 264.74 123.54 265.88 121.97 269.01 123.15 271 123.03 273.21 125.7 278.39 134.94 278.22 140.21 277.56 144.16 277.44 147.32 277.87 158.1 282.55 163.76 283.37 172.5 279.22 175.1 276.16 177.21 276.38 175.48 279.78 177.74 280.49 182.26 280.52 184.06 281.17 188.98 281.01 191.8 279.73 196.88 280.74 197.44 279.76 199.86 280.56 205.03 279.74 210.74 277.01 215.98 275.36 221.09 274.94 236.02 269.37 235.78 272.84 234.95 274.65 233.19 275.83 230.91 279.4 229.42 284.43 225.51 290.83 225.43 292.21 222.81 298.32 222.24 302.44 221.07 305.8 218.11 309.03 218.74 310.52 217.27 313.31 215.88 318.41 214.68 320.45 215.16 323.13 216.35 323.62 216.76 326.11 214.76 326.26 215.88 329.86 219.91 340.68 222.01 346.99 222.36 350.44 221.45 354.64 218.72 352.52 219.15 351.11 217.98 348.69 217.5 344.04 215.14 343 212.59 348.79 212.66 351.09 210.18 349.36 207.97 349.5 202.57 346.66 200.37 347.21 197.62 346.17 196 351.07 192.65 349.82 191.15 354.61 187.83 355.58 185.66 354.96 182.17 352.41 181.38 355.48 178.57 354.71 174.8 356.04 172.5 355.65 170.25 357.96 174.19 359.4 176.2 360.88 178.39 363.6 180.39 362.92 185.68 365.59 191.42 367.2 194.34 369.97 197.61 371.69 197.95 374.72 199.59 377.06 201.5 381.23 200.24 383.01 197.14 383.73 196.26 384.91 199.86 385.88 207.14 385.53 209.72 384.45 209.23 388.98 207 389.34 201.65 391.63 198.83 390.77 196.45 391.84 194.25 391.79 193.06 394.72 193.85 396.3 191.57 399.52 186.34 397.16 183.19 399.22 181.03 397.02 176.91 398.53 174.94 401.01 174.74 402.32 170.67 403.38 169.59 404.95 167.59 405.65 165.47 402.98 163.66 404.47 162.3 403.95 158.21 404.05 155.12 403.14 152 405.96 146.09 407.44 143.68 408.96 141.34 412.02 138 414.73 135.16 413.62 132.94 414.77 130.26 413.8 126.7 413.37 125.37 414.8 123.35 420.42 117.94 424.19 114.4 424.28 111.47 421.81 105.56 419.22 102.48 412.47 101.93 408.56 99.41 404.28 96.88 397.85 97.51 394.73 97.25 392.21 94.84 389.11 89.05 389.81 86.32 388.1 87.16 385.63 83.44 379.15 82.95 374.91 80.02 370.24 78.96 367.6 76.72 365.17 77.86 360.44 76.8 357.67 74.16 355.73 70.42 351.41 70.09 348.85 67.39 341.98 67.71 337.93 72.09 335.59 71.27 333.54 73.26 329.95 75.06 324.38 76.81 322.91 74.74 319 73.22 319.63 72.27 317.18 74.65 315.04 74.64 309.8 75.15 308.9 72.2 307.28 63.66 309.29 55.67 310.31 49.4 310.75 48 307.75 52.67 307.44 56.12 306.62 58.77 301.99 59.05 296.37 58.71 290.09 59.26 286.29 55.52 285.38 52.82 282.81 51.35 280.67 53.98 276.74 52.88 272.24 54.07 271.33 54.2 268.08 53.62 265.9 51.53 262.95 50.49 258.03 48.58 259.76 47.43 258.37 46.34 255.06 46.21 251.11 42.8 248.74 43.3 246.12 40.57 245.55 40.26 242.71 36.82 240.09 33.71 238.96 33.94 237.13 31.65 231.1 29.21 230.1 29.26 228.52 24.64 226.92 22.23 224.49 19.09 218.1 17.16 217.87 14.29 219.3 10.22 218.45 5.76 214.08 4.52 211.17 5.47 209.53 2.02 207.39 2.18 206.04 1 201.87 3.27 200.25 5.41 197.75 4.55 196.01 5.45 194.16 5.29 191.85 7.51 189.18 5.08 184.66 5.75 182.79 7.62 180.8 9.31 175.81 9.79 168.03 11.42 166.68 12.43 163.83 12.48 161.05 14.69 159.51 15.62 155.88 14.26 154.12 16.11 151.95 14.9 147.9 18.73 144.86 18.45 141.89 17.03 138.05 17.74 135.75 17.38 132.15 15.33 129.98 15.33 122.53 14.79 119.51 11.21 114.81 9.88 114.17 7.65 109.78 9.18 107 13.91 102.24 15.23 99.55 14.3 97.8 14.48 95.33 20.39 96.29 22.81 95.52 23.11 92.86 25.52 95.08 28.08 94.83 30.48 96.58 33.21 94.72 37.28 97.92 40.98 98.88 44.24 101.68 46.23 104.62 50.47 107.51 49.96 110.23 51.4 112.41 55.57 114.22 56.17 117.44 59.35 121.71 62.9 124.51 66.29 129.07 66.79 130.54 68.91 131.13 71.89 134.24 72.74 138.85 74.02 139.2 77.44 145.46 76.27 150.19 77.36 152.42 84.27 154.93 87.13 153.19 90.19 152.55 90.96 153.21 97.84 150.39 99.88 153.59 99.89 155.45 101.43 158.35 104.41 160.6 Z" id="37011120"/>
<path d="M 397.4 350.52 400.5 351.99 398.71 357.08 401.87 358.21 400.43 362.12 401.57 364.63 405.91 363.56 409.23 366.32 411.52 366.46 414.71 368.42 415.86 370.04 415.03 375.67 417.19 379.08 418.97 378.59 421.62 379.11 425.17 374.69 426.67 378.21 428.56 380.57 429.1 382.66 431.19 384.62 428.6 386.56 427.9 392.61 429.25 396.66 430.02 402.06 429.91 406.45 431.68 409.41 431.44 411.66 434 413.05 435 415.03 438.14 417.75 435.04 421.52 433.82 424.06 433.99 426.45 437.63 428.68 435.9 430.81 427.87 434.61 427.74 437.54 426.68 441.08 426.18 445.91 425.4 449.41 426.74 451.75 426.07 457.34 427.41 459.26 428.35 463.71 427.54 464.26 426.36 469.37 423.47 472.2 423.5 475.37 420.3 479.24 416.69 485.43 414.98 491.08 416.96 494.64 413.2 500.01 409.53 501.62 410.55 506.75 408.41 508.09 406.4 505.98 402.9 507.8 399.72 512.88 397.73 514.36 393.5 514.37 392.14 515.04 392.36 519.08 391.51 520.24 390.51 527.33 388 525.36 383.27 525.38 382.2 527.71 379.84 530.15 375.19 532.63 371.03 535.83 369.85 538.72 376.8 541.88 378.2 543.52 378.69 547.33 380.69 549.98 381.87 549.86 385.43 553.29 387.19 553.72 388.73 556.88 392.31 558.41 400.18 559.54 404.93 562.49 406.65 567.89 404.9 572.66 403.05 572.48 398.75 570.79 399.22 574.13 398.71 576.34 397.22 576.17 393.74 578.23 391.34 580.86 389.55 579.39 387.78 580.98 384.57 586.06 383.25 587.35 384.86 591.36 383.61 592.04 381.09 595.78 382.39 596.43 383.22 600.18 382.27 602.57 384.73 606.69 383.76 607.56 382.47 612.72 380.45 615.74 379.32 623.56 379.3 625.45 377.74 628.11 382.35 635.13 381.9 638.66 384.94 641.96 383.89 649.6 384.53 651.88 386.4 653.99 384.81 658.72 383.14 659.57 383.13 661.42 384.65 661.85 383.88 664.97 385.88 665.23 386.51 667.33 387.2 673.52 383.72 676.28 378.7 674.66 374.87 675.78 373.54 677.23 370.22 678.95 368.34 683.49 366.07 685.43 365.29 690.81 363.65 691.33 361.83 695.48 359.26 697.76 359.04 700.67 358.1 702.81 358.03 705.66 358.81 709.18 361.61 710.89 359.51 712.09 358.41 713.85 359.26 715.27 359.45 718.9 357.71 721.6 360.15 723.41 360.33 726.71 357.3 730.19 354.64 732.21 351.58 738.4 347.53 737.51 346.08 737.92 341.06 737.16 337.92 740.52 335.26 740.17 333.35 738.8 330.58 738.91 328.46 737.17 325.12 740.35 325.18 741.63 319.58 743.2 316.85 742.08 317.8 738.34 316.58 734.53 314.31 732.34 315.14 728.38 313.51 725.24 310.8 724.43 310.97 722.47 307.16 722.77 305.17 725.18 302.75 725.13 301.22 723.04 299 723.17 294.29 722.29 293.82 723.55 291.06 724.88 288.91 723.58 285.06 722.66 283.2 721.06 279.33 718.92 276.13 719.58 268.76 723.37 265.21 726.65 265.27 729.48 262.6 729.63 260.29 731.33 257.21 728.64 255.61 728.3 251.75 724.78 251.5 720.27 249.72 717.91 247.97 720.87 244.95 720.23 242.24 721.54 239.97 719.66 238.13 719.94 233.4 718.4 229.3 719.92 227.83 719.2 227.45 714.65 229.34 710.11 225.62 707.64 224.51 705.43 220.81 702.29 219.97 697.91 216.15 694.43 217.99 691.09 219.8 689.55 224.15 689.78 229.84 689.08 231.86 687.48 231.01 685.99 235.58 684.97 237.62 681.33 238.38 678.25 237.4 672.5 238.03 669.01 241.4 665.65 238.43 663.78 235.3 660.95 235.92 658.18 234.76 656.01 234.68 650.76 234.01 647.54 231.93 646.54 231.95 644.15 227.93 645.89 226 649.68 223.18 651.11 215.6 648.67 213.26 649.82 211.25 649.22 209.6 645.36 210.41 641.91 206.71 637.88 205.09 637.35 203.23 634.87 201.85 637.78 202.42 639.15 199.1 645.22 197.08 646.17 192.86 644.21 184.93 645.98 175.95 639.27 173.09 639.15 170.69 634.65 170.56 633.18 168.52 632.02 169.1 628.33 170.82 627.02 171.36 625.04 174.37 623.05 175.77 618.72 177.24 615.86 183.53 607.61 184.29 604.71 184.01 601.81 185.02 600.91 189.87 599.11 194.69 599.38 197.87 598.93 201.06 599.76 204.71 597.85 208.03 594.03 209.04 587.84 210.48 585.23 212.27 580.12 213.8 579.08 212.03 577.33 211.69 574.48 213.24 572.41 213.57 570.38 215.97 568.11 218.13 566.97 220.07 562.45 221.39 561.65 221.6 559.38 223.25 556.87 224.96 555.9 225.54 550.27 228.01 547.97 233.03 545.76 235.21 545.24 234.01 541.93 230.44 536.17 236.47 525.46 238 517.79 241.26 512.23 244.2 510.88 248.15 510.31 249.63 509.32 251.45 505.33 258.25 501.73 259.7 499.49 260.55 495.98 262.11 494.04 262.11 489.69 263.29 484.51 267.67 479.97 266.87 477.36 267.2 475.79 270.02 471.6 271.59 468.24 271.2 466.43 272.94 465.29 276.1 464.99 278.44 462.67 278.33 460.68 276.28 458.15 276.22 451.96 279.88 452.02 283.63 451.48 287.18 444.17 294.06 433.02 294.43 431.25 298.87 422.74 302.14 412.66 306.91 413.86 308.27 410.56 308.35 407.66 306.92 404.3 306.81 400.74 300.94 398.66 298.85 393.78 299.17 392.39 297.84 387.4 298.49 385.9 298.1 380.49 297.3 372.85 301.02 368.56 301.77 365.54 304.25 363.19 308.27 358.3 310.97 356.92 311.88 354.11 312.32 346.25 311.68 344.82 312.39 342.79 314.77 339.35 317.76 338.98 321.95 342.2 324.56 342.36 325.78 343.72 328.55 343.77 331.93 342.63 333.24 340.27 335.31 338.65 337.22 338.47 344.4 339.59 347.2 338.83 345.06 335.35 342.97 335.08 338.21 331.95 335.39 328.75 340.46 325.85 344.86 324.71 349.26 325.45 355.36 324.34 360.74 333.39 366.16 339.62 367.53 342.16 371 345.98 372.36 348.26 375.76 350.56 378.3 354.04 381.57 353.74 382.4 352.77 385.53 353.17 387.02 352.32 392.03 352.01 393.24 352.43 394.46 349.03 397.4 350.52 Z" id="37011130"/>
<path d="M 638.95 782.09 637.46 782.78 633.9 785.95 630.51 788.37 626.3 789.55 623.93 791.89 619.82 792.53 614.66 794 614.14 791.96 610.58 791.34 608.8 788.57 606.41 787.94 604.62 788.6 599.63 786.82 597.08 789.2 595.2 789.57 591.18 788.48 588.92 786.72 587.65 783.99 583.15 784.57 578.01 779.76 573.89 780.64 572.37 779.71 568.33 779 565.67 776.58 564.91 774.96 561.41 772.66 557.71 766.34 557.17 764.29 554.27 760.9 552.75 757.97 549.77 755.62 545.89 753.72 542.13 748.61 538.24 750.17 536.29 752.81 532.17 754.58 531.61 755.94 529.06 758.63 527.23 758.94 524.86 758.16 521.46 759.79 520.04 759.2 516.49 759.42 514.97 758.86 511.16 755.42 510.13 755.54 505.73 762.06 504.08 761.84 502.55 763.75 498.73 763.09 495.06 763.06 492.01 762.4 488.67 765.9 486 769.45 483.77 769.82 479.08 769.44 477.42 770.36 475.4 769.64 472.65 767.52 469.93 767.31 465.55 763.31 463.47 763.25 464.04 760.64 461.5 757.5 460.49 753.17 459.39 751.69 459.49 747.88 458.14 744.5 460.74 736.45 459.74 734.96 455.64 736.56 455.3 734.27 452.55 732.27 453.69 726.19 452.01 722.09 450.39 719.93 450.41 716.93 453.38 712.42 452.68 710.43 450.21 707.43 444.5 706.6 441.8 703.41 438.07 701.35 436.27 695.19 436.18 691.2 434.17 687.73 431.61 685.72 428.19 681.44 429.71 677.35 428.23 670.97 426.83 668.65 425.18 668.91 422.61 666.31 420.94 665.91 420.05 667.23 418.01 666.62 414.49 666.51 409.57 664.51 407.93 661.59 404.38 661.11 404.38 657.59 402.39 655.33 398.73 654.91 396.89 653.12 393.57 654.24 392.2 653.89 388.43 655.08 386.4 653.99 384.53 651.88 383.89 649.6 384.94 641.96 381.9 638.66 382.35 635.13 377.74 628.11 379.3 625.45 379.32 623.56 380.45 615.74 382.47 612.72 383.76 607.56 384.73 606.69 382.27 602.57 383.22 600.18 382.39 596.43 381.09 595.78 383.61 592.04 384.86 591.36 383.25 587.35 384.57 586.06 387.78 580.98 389.55 579.39 391.34 580.86 393.74 578.23 397.22 576.17 398.71 576.34 399.22 574.13 398.75 570.79 403.05 572.48 404.9 572.66 406.65 567.89 404.93 562.49 400.18 559.54 392.31 558.41 388.73 556.88 387.19 553.72 385.43 553.29 381.87 549.86 380.69 549.98 378.69 547.33 378.2 543.52 376.8 541.88 369.85 538.72 371.03 535.83 375.19 532.63 379.84 530.15 382.2 527.71 383.27 525.38 388 525.36 390.51 527.33 391.51 520.24 392.36 519.08 392.14 515.04 393.5 514.37 397.73 514.36 399.72 512.88 402.9 507.8 406.4 505.98 408.41 508.09 410.55 506.75 409.53 501.62 413.2 500.01 416.96 494.64 414.98 491.08 416.69 485.43 420.3 479.24 423.5 475.37 423.47 472.2 426.36 469.37 427.54 464.26 428.35 463.71 427.41 459.26 426.07 457.34 426.74 451.75 425.4 449.41 426.18 445.91 426.68 441.08 427.74 437.54 427.87 434.61 435.9 430.81 437.63 428.68 442.24 428.16 445.43 426.93 448.17 423.54 452.33 427.47 455.05 426.18 456.62 424.06 456.41 418.46 458.63 418.21 460.73 418.85 462.66 418.14 463.45 415.63 464.61 415.92 471.31 409.68 471.67 407.95 474.26 407.2 477.91 404.84 478.3 402.05 476.87 399.17 476.3 395.98 477.49 392.28 482.49 390.72 485.76 385.71 489.62 384.37 489.38 379.27 489.77 376.48 490.88 373.82 493 372.18 499.61 368.75 502.67 365.31 503.16 363.63 505.9 362.73 513.42 357.36 515.13 359.02 518.58 360.88 522.56 364.13 524.48 363.88 524.69 365.5 526.4 366.12 532.64 369.92 535.2 370.85 537.03 370.44 537.16 373.03 538.04 375.22 539.96 376.97 538.38 381.5 537.03 384.01 536.54 387.64 540.12 392.74 541.79 394.21 539.15 397.03 538.61 399.65 540.16 401.47 540.6 403.9 543.23 405.3 544.77 407.88 547.98 407.79 549.71 409.21 550.34 412.09 552.19 413.52 555.04 414.53 559.48 418.14 558.85 418.94 559.26 422.6 557.21 425.42 561.47 428.9 561.75 431.55 562.83 432.79 567.4 432.45 570.61 432.82 573.24 434.66 578.51 435.35 582.01 437.42 584.17 437.83 587.21 441.06 587.45 443.84 585.34 445.6 584.56 448.13 587.36 452.31 589.65 456.56 590.92 462.71 591.67 464.34 591.7 467.4 592.79 469.83 595.9 471.75 598.78 470.73 603.49 470.06 604.98 475.27 606.95 477.86 610.14 478.15 612.01 477.18 614.32 480.83 620.19 488.23 623.06 483.87 624.39 482.79 630.23 480.81 630.52 479.08 634.51 476.71 635.88 475.15 635.93 479.96 638.74 480.85 641.94 480.2 643.34 481.57 644.94 480.72 646.71 481.71 650.51 481.44 652 479.82 655.54 479.65 657.64 480.94 656.5 483.35 662.19 485.94 662.79 487.87 664.31 491.06 666.16 492.4 667.11 494.2 665.03 495.35 659.69 495.02 659.53 490.45 654.16 488.9 653.7 490.36 651.35 489.46 648.62 489.38 644.03 491.34 640.29 495.97 637.27 501.43 636.48 503.61 635.11 510.51 634.91 517.35 635.56 530.96 639.08 538.46 641.1 539.37 641.09 540.89 646.63 543.9 649.35 543.41 650.57 547.01 647.76 548.99 648.18 550.92 647.44 553.51 649 556.01 652.96 556.96 654.5 559.42 654.91 562.35 659.08 566.27 658.7 567.72 655.95 568.83 655.76 572.2 656.69 573.9 659.08 575.35 660.39 573.8 661.7 574.96 659.86 578.87 661.63 582.56 663.32 584.09 665.14 582.89 669.02 581.43 668.16 583.87 670.23 584.53 670.01 586.62 673.11 586.73 673.93 587.84 673 591.14 676.52 592.92 677.82 595.11 676.99 598.83 672 600.66 671.73 601.54 666.36 602.74 659.94 603.2 657.62 606.49 657.54 607.58 655.26 609.46 654.6 612.18 654.48 617.64 655.53 628.84 656.22 631.41 658.66 636.34 660.74 638.41 664.16 639.79 664.94 641.41 664.34 643.55 665.39 644.4 665.21 647.24 666.54 648.53 665.16 650.11 664.67 652.18 662.64 653.89 662.32 656.6 664.45 673.41 663.55 672.99 661.43 655.91 659.16 656.19 654.72 654.34 643.74 654.73 641.86 657.34 640.22 661.23 639.82 664.73 640.16 667.62 642.72 667.81 640.22 672.19 639.77 674.39 639.85 678.38 640.41 680.86 641.72 682.68 644.98 685.23 648.53 684.08 650.96 685.6 653.05 684.66 656.83 688.03 661.5 688.51 664.83 687.5 667.74 689.54 673.2 687.14 676.7 686.63 679.44 688.52 681.31 688.74 679.56 691.24 679.37 695.34 680.88 696.52 676.12 701.59 673.05 703.21 669.53 707.38 665.48 709.5 663.03 711.74 661.22 715.71 660.99 718.34 661.68 720.47 663.99 722.38 665.46 721.52 666.95 722.95 666.21 724.23 663.77 724.77 662.93 723.92 660.04 725.81 659.77 728.91 658.08 731.53 658.05 733.61 656.97 737.59 657.13 739.45 660.02 744.59 658.96 745.95 656.87 745.85 652.34 749.15 648.94 749.44 645.49 751.59 644.41 753.06 644.18 755.87 642.11 761.27 643.09 765.41 642.12 771.06 639.45 778.32 640.22 781.11 638.95 782.09 Z" id="37011330"/>
<path d="M 780.61 170.73 777.18 173.19 772.95 173.06 770.08 174.09 769.33 171.33 766.59 167.19 766.32 164.61 763.2 163.37 761.42 161.47 756.77 160.47 755.6 160.89 755.51 165.63 757.1 171.54 757.02 176.48 753.83 177.28 752.12 180.46 747.79 182.17 746.75 183.23 744.59 182.76 742.2 183.95 740 185.83 737.1 185.85 735.86 185.04 733.92 186.1 734.41 189.69 731.33 192.14 725.5 191.93 723.9 193.53 720.87 193.31 718.59 191.51 712.92 193.15 710.98 194.77 706.22 197.52 702.04 197 701.37 195.44 696.3 195.48 694.32 197.2 684.47 197.38 682.04 195.35 680.62 195.58 678.3 190.55 676.58 188.75 676.27 185.96 676.68 183.45 679 178.79 682.25 175.23 683.58 173.19 684.85 169.83 688.83 167.31 692.62 159.48 695.2 154.94 699.55 149.58 691.93 150.17 689.06 148.32 684.3 147.81 681.16 147.88 679.84 145.92 677.02 147.03 676.17 145.63 676.04 142.31 671.54 138.62 667.47 139.61 665.86 137.71 665.33 133.09 660.96 133.7 659.74 130.43 661.87 127.45 660.32 123.93 658.8 122.08 657.44 123.8 655.93 124.11 652.08 122.23 649.52 120.4 649.01 118.25 650.29 117.61 650.02 111.9 647.72 109.59 648.68 107.83 647.63 106.36 643.15 106.8 640.3 105.71 640.03 102.86 636.95 103.27 636.3 101.5 638.44 99.04 640.65 98.95 638.96 95.95 641.86 92.5 643.32 93.39 644.45 91.49 645.82 93.72 648.41 92.98 649.12 93.76 652.64 94.63 654.42 96.67 655.99 97.03 658.56 96.08 661.91 93.69 663.32 91.17 662.07 87.84 662.42 85.85 660.64 84.73 660.04 80.56 662.55 79.73 665.35 79.71 668.93 76.54 669.28 70.48 671.57 66.67 672.95 65.63 675.47 66.22 677.09 65.54 679.86 61.25 680.72 56.16 680.55 51.62 679.67 47.07 681.32 42.64 683.72 41.33 686.44 38.82 690.18 37.85 692.51 33.69 692.9 28.7 693.8 26.74 693.24 21.93 691.45 18.56 692.37 17.89 694.93 8.3 696.25 5.32 702.61 4.69 706.44 7.22 708.87 6.66 710.25 4.81 711.91 5.42 717.75 1 719.35 2.27 721.81 2.34 724.82 6.86 727.41 7.96 727.99 9.36 726.77 12.11 728.33 15.46 732.34 14.27 729.31 19.08 729.3 20.2 731.8 22.77 735 25.25 738.93 24.14 742.38 22.51 745.83 22.63 753.11 24.96 754.11 24.55 755.66 26.9 754.72 31.95 755.14 36.18 756.4 39.44 755.75 47.41 754.22 53.3 756.01 54.53 752.5 55.6 752.49 58.14 755.86 61.13 758.62 63.02 760.9 62.36 762.54 63.53 764.75 69.42 765.98 70.97 768.13 71.44 770.04 75.23 770.46 78.76 771.73 83 774.11 88.17 776.29 90.37 776.72 98.61 777.78 102.25 777.84 105.92 776.98 107.9 778.6 109.56 781.19 109.38 779.12 112.65 776.78 114.9 776.98 117.17 780.87 118.17 782.78 117.35 786.05 119.41 787.65 121.37 788.56 119.67 790.4 121.42 793.75 126.55 792.41 129.67 790.36 130.09 787.87 133.27 785.73 139.12 785.41 142.47 781.97 146.39 782.02 148.86 785.15 151 787.59 150.55 787.94 157.48 786.14 157.24 784.58 158.88 781.84 158.98 779.11 161.35 778.16 164.77 778.44 168.16 780.61 170.73 Z" id="37011350"/>
<path d="M 283.13 195.72 284.93 197.97 279.97 199.48 281.8 202.81 279.91 206.74 278.35 204.09 275.74 202.37 276.16 205.84 277.22 209.97 271.67 213.24 266.91 217.41 260.6 216.79 258.27 217.21 260.59 213.07 261.3 210.66 257.06 211.67 255.06 203.75 258.51 202.29 246.98 182.53 246.77 182.62 245.19 181.84 244.76 179.6 243.49 178.44 242.76 176.02 240.13 170.26 241.19 168.57 243.26 151.87 246.59 132.11 247.31 128.42 251.33 129.17 256.65 127.88 259.29 138.81 264.03 137.67 264.62 140.06 260.41 141.09 258.87 146.09 258.65 149.24 260.19 155.15 266.83 171.48 269.21 175.84 270.3 176.61 271.47 179.51 276.77 185.14 276.4 187.38 283.13 195.72 Z" id="37011550"/>
<path d="M 368.49 223.63 368.28 223.92 358.37 216.99 358.58 216.72 368.49 223.63 Z M 407.08 296.8 405.51 300.19 404.26 300.46 401.29 304.01 401.22 306.53 400.19 308.22 397.97 313.98 403.86 316.47 402.85 318.43 401.01 319.75 400.17 322.58 398.99 323.09 403.45 326.1 404.21 327.82 402.68 332.84 402.9 334.8 397.4 350.52 394.46 349.03 393.24 352.43 392.03 352.01 387.02 352.32 385.53 353.17 382.4 352.77 381.57 353.74 378.3 354.04 375.76 350.56 372.36 348.26 371 345.98 367.53 342.16 366.16 339.62 360.74 333.39 355.36 324.34 349.26 325.45 344.86 324.71 340.46 325.85 335.39 328.75 327.35 327.85 326.83 322.43 327.44 314.58 326.35 310.36 322.29 304.9 319.91 298.7 320.15 294.49 320.96 288.65 322.29 285.65 324.41 283.12 326.86 279 328.99 277.12 330 274.9 330.09 272.05 354.39 247.02 361.85 245.89 362.43 231.54 368.19 230.74 367.66 243.57 376.12 242.32 379.3 241.33 379.41 238.2 377.97 237.95 378.46 224.05 380.18 224.07 380.29 220.95 381.65 220.95 381.95 213.56 382.24 212.97 381 248.48 378.77 250.61 362.14 265.17 358.43 270.15 360.58 271.68 364.04 266.91 367.26 264.08 383.11 250.91 383.18 251.33 367.54 264.25 368.71 264.95 370.75 271.03 373.4 272.46 377.41 279.41 377.48 280.47 382.7 284.5 383.89 284.69 388.63 287.38 395.24 291.66 400.05 293.99 407.08 296.8 Z" fill-rule="evenodd" id="37011560"/>
<path d="M 354.39 247.02 330.09 272.05 330 274.9 328.99 277.12 326.86 279 324.41 283.12 322.29 285.65 320.96 288.65 320.15 294.49 319.91 298.7 322.29 304.9 326.35 310.36 327.44 314.58 326.83 322.43 327.35 327.85 335.39 328.75 338.21 331.95 342.97 335.08 345.06 335.35 347.2 338.83 344.4 339.59 337.22 338.47 335.31 338.65 333.24 340.27 331.93 342.63 328.55 343.77 325.78 343.72 324.56 342.36 321.95 342.2 317.76 338.98 314.77 339.35 312.39 342.79 311.68 344.82 312.32 346.25 311.88 354.11 310.97 356.92 308.27 358.3 304.25 363.19 301.77 365.54 301.02 368.56 297.3 372.85 298.1 380.49 294.95 388.57 293.48 391.67 289.37 402.27 279.78 397.81 262.18 389.34 256.92 386.69 262.63 375.33 263.19 373.59 263.09 369.18 250.77 369.19 245.98 368.08 242.42 365.66 237.62 360.36 245.97 345.16 235 336.63 230.6 332.67 225.41 331.18 221.95 327.37 216.76 326.11 216.35 323.62 215.16 323.13 214.68 320.45 215.88 318.41 217.27 313.31 218.74 310.52 218.11 309.03 221.07 305.8 222.24 302.44 222.81 298.32 225.43 292.21 225.51 290.83 229.42 284.43 230.91 279.4 233.19 275.83 234.95 274.65 235.78 272.84 236.02 269.37 240.28 266.4 246.42 262.65 250.16 258.68 254.1 253.46 256.74 247.05 258.56 238.68 258.87 235.15 258.41 225.88 257.56 220.13 258.27 217.21 260.6 216.79 266.91 217.41 271.67 213.24 277.22 209.97 276.16 205.84 275.74 202.37 278.35 204.09 279.91 206.74 281.8 202.81 279.97 199.48 284.93 197.97 283.13 195.72 293.99 189.28 303.99 179.97 303.84 179.73 322.68 162.11 326.74 163.33 349.93 171.01 349.94 170.08 323.8 161.15 367.1 175.46 367.11 175.82 401.63 187.14 402.6 195.82 402.42 196.65 385.41 198.33 385.12 198.15 371.06 199.87 368.1 198.88 367.64 200.24 341.12 191.52 339.35 191.84 335.12 198.05 334.41 197.56 327.67 207.57 328.69 208.23 323.62 215.86 322.06 217.1 313.38 219.49 308.94 229.41 307.16 228.52 304.36 234.72 305.83 236.41 301.44 246.64 301.83 247.46 308.26 251.14 313.65 240.69 323.77 241.57 328 245.38 333.8 239.95 338.59 241.01 337.2 243.85 334.48 245.73 331.3 249.26 339.64 256.83 346.43 249.31 347.05 233.84 353.9 232.88 353.35 247.18 354.39 247.02 Z" id="37011570"/>
<path d="M 175.14 263.14 174.66 266.65 177.89 269.07 178.65 271.47 177.9 276.45 177.21 276.38 175.1 276.16 172.5 279.22 163.76 283.37 158.1 282.55 147.32 277.87 144.16 277.44 140.21 277.56 134.94 278.22 125.7 278.39 123.03 273.21 123.15 271 121.97 269.01 123.54 265.88 118.75 264.74 117.75 262.87 116.08 262.22 114.28 257.58 109.52 254.93 107.18 251.84 108.09 248.94 107.74 245.85 109.59 244.15 106.43 238.16 106.71 236.25 103.41 233.41 101.58 233.77 98.96 230.31 94.78 227.9 94.23 224.99 92.59 223.94 91.22 220.97 89.46 220.37 88.63 218.9 89.79 216.86 89.98 214.12 88.75 211.73 88.96 209.76 88.02 208.18 89.06 201.27 91.99 198.65 92.95 194.55 92.5 192.29 93.3 190.37 92.67 188.65 92.63 185.29 91.24 181.88 91.42 180.75 89.94 177.75 91.63 174.63 91.19 170.72 92.8 168.25 97.74 165.2 98.7 165.57 102.52 164.96 102.49 166.69 103.95 167.27 110.04 173.67 112.99 175.39 113.3 176.69 116.38 178.07 118.68 180.88 124.26 179.59 130.21 180.53 132.46 180.01 134.92 181.4 137.68 184.56 136.45 188.11 140.59 192.63 139.66 196.53 140.32 198.1 138.83 203.06 139.57 205.52 140.94 207.49 140.34 210.1 142.35 213.14 142.12 217.46 143.06 221.37 142.48 224.21 141.52 225.2 141.85 229.08 143.84 235.19 139.29 240.35 137.13 243.77 137.02 245.54 146.05 251.94 146.18 253.14 150.66 253.95 150.71 255.43 154.81 255.62 159.19 256.44 160.57 257.23 162.86 255.73 163.37 259.29 164.52 261.85 166.69 262.42 170.69 264.52 175.14 263.14 Z" id="37011580"/>
<path d="M 141.36 154.57 141.93 155.65 147.44 157.75 149.41 159.3 149.88 162 153.87 164.18 153.82 169.13 155.1 171.84 155.34 175.1 156.91 179.01 161.15 180.37 162.36 181.64 163.1 184.92 162.2 186.14 159.78 186.23 162.28 192.25 167.54 192.04 166.94 193.12 170 195.66 171.39 198.06 174.22 198.93 175.43 200.17 175.11 201.92 175.89 204.77 178.76 207.45 178.5 211.45 180.13 213.44 182.98 214.91 183.17 218.77 181.21 221.75 181.53 224.7 180.79 227.38 184.66 229.87 192.22 234.46 188.81 240.03 185.78 244.98 187.63 246.11 182.15 255.08 179.79 257.51 177.18 262.81 175.14 263.14 170.69 264.52 166.69 262.42 164.52 261.85 163.37 259.29 162.86 255.73 160.57 257.23 159.19 256.44 154.81 255.62 150.71 255.43 150.66 253.95 146.18 253.14 146.05 251.94 137.02 245.54 137.13 243.77 139.29 240.35 143.84 235.19 141.85 229.08 141.52 225.2 142.48 224.21 143.06 221.37 142.12 217.46 142.35 213.14 140.34 210.1 140.94 207.49 139.57 205.52 138.83 203.06 140.32 198.1 139.66 196.53 140.59 192.63 136.45 188.11 137.68 184.56 134.92 181.4 132.46 180.01 130.21 180.53 124.26 179.59 118.68 180.88 116.38 178.07 113.3 176.69 112.99 175.39 110.04 173.67 103.95 167.27 102.49 166.69 102.52 164.96 102.41 163.09 104.41 160.6 105.68 160.36 108.64 156.92 110.42 156.29 114.26 156.53 117.35 157.78 122.28 157 125.49 156.01 126.65 156.32 129.32 154.71 130.84 155.23 136.71 154.19 141.36 154.57 Z" id="37011590"/>
<path d="M 240.28 266.4 236.02 269.37 221.09 274.94 215.98 275.36 210.74 277.01 205.03 279.74 199.86 280.56 197.44 279.76 196.88 280.74 191.8 279.73 188.98 281.01 184.06 281.17 182.26 280.52 177.74 280.49 175.48 279.78 177.21 276.38 177.9 276.45 178.65 271.47 177.89 269.07 174.66 266.65 175.14 263.14 177.18 262.81 179.79 257.51 182.15 255.08 187.63 246.11 185.78 244.98 188.81 240.03 194.67 243.62 198.09 238.05 201.78 240.32 204.87 235.27 207.05 234.02 209.29 230.38 210.77 230.84 215.77 223.44 219.66 221.39 218.31 213.32 221.36 208.21 219.25 206.04 221.27 201.79 224.79 200.03 231.49 198.38 231.71 199.52 230.63 204.33 233.66 206.21 234.43 207.73 236.67 209.1 235.13 212.43 237.39 213.78 238.37 217.61 236.32 217.92 235.98 219.64 234.19 220.27 235.15 224.26 232.79 224.46 236.43 233.35 235.12 237.11 235.97 240.01 234.48 248.48 233.07 251.98 232.41 255.51 234.05 255.36 234.6 257.04 236.82 259.36 235.37 260.49 238.3 263.52 240.28 266.4 Z" id="37011600"/>
<path d="M 258.27 217.21 257.56 220.13 258.41 225.88 258.87 235.15 258.56 238.68 256.74 247.05 254.1 253.46 250.16 258.68 246.42 262.65 240.28 266.4 238.3 263.52 235.37 260.49 236.82 259.36 234.6 257.04 234.05 255.36 232.41 255.51 233.07 251.98 234.48 248.48 235.97 240.01 235.12 237.11 236.43 233.35 232.79 224.46 235.15 224.26 234.19 220.27 235.98 219.64 236.32 217.92 238.37 217.61 237.39 213.78 235.13 212.43 236.67 209.1 234.43 207.73 233.66 206.21 230.63 204.33 231.71 199.52 231.49 198.38 233.89 198.53 236.77 197.37 238.13 195.75 239.88 191.44 241.06 187.48 244.68 182.57 246.77 182.62 246.98 182.53 258.51 202.29 255.06 203.75 257.06 211.67 261.3 210.66 260.59 213.07 258.27 217.21 Z" id="37011610"/>
<path d="M 216.76 326.11 221.95 327.37 225.41 331.18 230.6 332.67 235 336.63 245.97 345.16 237.62 360.36 242.42 365.66 245.98 368.08 250.77 369.19 263.09 369.18 263.19 373.59 262.63 375.33 256.92 386.69 262.18 389.34 279.78 397.81 289.37 402.27 293.48 391.67 294.95 388.57 298.1 380.49 298.49 385.9 297.84 387.4 299.17 392.39 298.85 393.78 300.94 398.66 306.81 400.74 306.92 404.3 308.35 407.66 308.27 410.56 306.91 413.86 302.14 412.66 298.87 422.74 294.43 431.25 294.06 433.02 287.18 444.17 283.63 451.48 279.88 452.02 276.22 451.96 276.28 458.15 278.33 460.68 278.44 462.67 276.1 464.99 272.94 465.29 271.2 466.43 271.59 468.24 270.02 471.6 267.2 475.79 266.87 477.36 267.67 479.97 263.29 484.51 262.11 489.69 262.11 494.04 260.55 495.98 259.7 499.49 258.25 501.73 251.45 505.33 249.63 509.32 248.15 510.31 244.2 510.88 241.26 512.23 238 517.79 236.47 525.46 230.44 536.17 234.01 541.93 235.21 545.24 233.03 545.76 228.01 547.97 225.54 550.27 224.96 555.9 223.25 556.87 221.6 559.38 221.39 561.65 220.07 562.45 218.13 566.97 215.97 568.11 213.57 570.38 213.24 572.41 211.69 574.48 212.03 577.33 213.8 579.08 212.27 580.12 210.48 585.23 209.04 587.84 208.03 594.03 204.71 597.85 201.06 599.76 197.87 598.93 194.69 599.38 189.87 599.11 185.02 600.91 184.01 601.81 184.29 604.71 183.53 607.61 177.24 615.86 175.77 618.72 174.37 623.05 171.36 625.04 169.78 622.99 167.39 621.2 164.76 618.43 163.88 616.4 164.23 611.23 157.99 608.39 157.18 605.28 159.72 599.57 158.72 598.01 157.04 590.56 158.53 588.07 157.78 585.84 158.12 578.4 157.84 572.64 162.57 570.16 160.7 565.41 164.04 558.61 164.42 556.93 162.64 552.02 160.35 548.59 160.72 546.93 158.18 546.16 157.84 543.16 154.33 539.62 154.19 536.24 149.91 531.2 146.53 527.95 145.44 524.15 147.43 520.57 151.11 518.15 153.16 514.5 153.13 511.27 152.04 508.73 150.02 506.45 149.57 501.86 147.22 499.06 144.74 498.34 143.63 492.77 141.74 490.72 141.32 487.61 139.6 485.1 138.17 484.26 134.94 484.43 129.09 485.37 126.42 481.87 127.58 479.92 125.13 478.5 125.31 476.8 123.11 476.52 122.14 474.65 119.68 474.59 117.15 473.47 117.21 470.41 112.91 465.76 110.88 461.96 111.57 458.22 113.23 456.31 112.09 451.3 114.6 448.53 117.41 448.38 119.46 438.38 115.62 436.15 115.31 434.42 116.59 433.47 116.25 430.44 117.78 428.5 117.37 426.56 117.94 424.19 123.35 420.42 125.37 414.8 126.7 413.37 130.26 413.8 132.94 414.77 135.16 413.62 138 414.73 141.34 412.02 143.68 408.96 146.09 407.44 152 405.96 155.12 403.14 158.21 404.05 162.3 403.95 163.66 404.47 165.47 402.98 167.59 405.65 169.59 404.95 170.67 403.38 174.74 402.32 174.94 401.01 176.91 398.53 181.03 397.02 183.19 399.22 186.34 397.16 191.57 399.52 193.85 396.3 193.06 394.72 194.25 391.79 196.45 391.84 198.83 390.77 201.65 391.63 207 389.34 209.23 388.98 209.72 384.45 207.14 385.53 199.86 385.88 196.26 384.91 197.14 383.73 200.24 383.01 201.5 381.23 199.59 377.06 197.95 374.72 197.61 371.69 194.34 369.97 191.42 367.2 185.68 365.59 180.39 362.92 178.39 363.6 176.2 360.88 174.19 359.4 170.25 357.96 172.5 355.65 174.8 356.04 178.57 354.71 181.38 355.48 182.17 352.41 185.66 354.96 187.83 355.58 191.15 354.61 192.65 349.82 196 351.07 197.62 346.17 200.37 347.21 202.57 346.66 207.97 349.5 210.18 349.36 212.66 351.09 212.59 348.79 215.14 343 217.5 344.04 217.98 348.69 219.15 351.11 218.72 352.52 221.45 354.64 222.36 350.44 222.01 346.99 219.91 340.68 215.88 329.86 214.76 326.26 216.76 326.11 Z" id="37011310"/>
<path d="M 676.58 188.75 673.16 190.42 666.28 195.44 665.8 200.38 662.41 203.15 663.23 205.43 662.79 208.24 667.77 212.84 662.68 215.71 661.88 216.99 660.54 223.19 660.8 224.52 662.72 225.8 661.19 228.89 663.68 232.5 664.51 236.42 658.96 238.54 659.1 240.9 657.79 242 654.72 240.29 651.68 240.87 648.18 237.31 646.87 237.26 644.55 235.22 640.64 235.85 639.23 233.12 634 241.21 631.86 242.88 631.73 244.51 626.96 245.2 621.18 244.62 617.98 248.95 617.51 256.95 613.88 259.4 612.32 259.4 609.47 262.23 611.27 265.83 611.42 269.89 609.63 271.58 608.02 270.16 604.41 273.39 602.73 276.19 599.96 278.6 600.51 279.34 596.19 283.52 595.03 287.05 594.77 291.88 596.49 293.44 593.33 296.22 593.91 297.53 591.92 299.1 589.89 299.46 588.95 302.4 589.64 305.54 588.92 309.12 590.75 309.6 597.65 312.69 597.3 314.8 595.32 317.98 593.61 318.72 595.93 322.85 596.32 326.64 594.48 331.19 597.11 333.54 597.26 335.94 595.85 337.65 596.56 339.85 595.29 341.27 594.76 345.22 596.15 345.93 595.79 348.5 596.55 351.11 596.75 355.31 595.34 356.11 593.32 359.06 591.36 359.01 589.2 361.52 590.72 362.91 592.51 369.83 594.13 373.52 592.25 376.97 592 380.61 592.21 385.27 593.51 384.96 594.25 390.09 595.17 393.5 600.53 402.19 600.28 404.15 602.92 404.74 603.85 405.83 604.39 409.13 601.08 409.92 597.81 414.24 598.99 415.78 598.61 419.06 601.65 425.64 598.67 424.66 595.29 424.27 592.82 424.79 588.76 423.37 585.81 423.24 585.86 421.39 584.73 417.52 582.15 418.72 578.09 415.5 574.96 416 573.35 418.2 570.79 416.98 567.19 419.14 562.52 417.47 559.48 418.14 555.04 414.53 552.19 413.52 550.34 412.09 549.71 409.21 547.98 407.79 544.77 407.88 543.23 405.3 540.6 403.9 540.16 401.47 538.61 399.65 539.15 397.03 541.79 394.21 540.12 392.74 536.54 387.64 537.03 384.01 538.38 381.5 539.96 376.97 538.04 375.22 537.16 373.03 537.03 370.44 535.2 370.85 532.64 369.92 526.4 366.12 524.69 365.5 524.48 363.88 522.56 364.13 518.58 360.88 515.13 359.02 513.42 357.36 505.9 362.73 503.16 363.63 502.67 365.31 499.61 368.75 493 372.18 490.88 373.82 489.77 376.48 489.38 379.27 489.62 384.37 485.76 385.71 482.49 390.72 477.49 392.28 476.3 395.98 476.87 399.17 478.3 402.05 477.91 404.84 474.26 407.2 471.67 407.95 471.31 409.68 464.61 415.92 463.45 415.63 462.66 418.14 460.73 418.85 458.63 418.21 456.41 418.46 456.62 424.06 455.05 426.18 452.33 427.47 448.17 423.54 445.43 426.93 442.24 428.16 437.63 428.68 433.99 426.45 433.82 424.06 435.04 421.52 438.14 417.75 435 415.03 434 413.05 431.44 411.66 431.68 409.41 429.91 406.45 430.02 402.06 429.25 396.66 427.9 392.61 428.6 386.56 431.19 384.62 429.1 382.66 428.56 380.57 426.67 378.21 425.17 374.69 421.62 379.11 418.97 378.59 417.19 379.08 415.03 375.67 415.86 370.04 414.71 368.42 411.52 366.46 409.23 366.32 405.91 363.56 401.57 364.63 400.43 362.12 401.87 358.21 398.71 357.08 400.5 351.99 397.4 350.52 402.9 334.8 402.68 332.84 404.21 327.82 403.45 326.1 398.99 323.09 400.17 322.58 401.01 319.75 402.85 318.43 403.86 316.47 397.97 313.98 400.19 308.22 401.22 306.53 401.29 304.01 404.26 300.46 405.51 300.19 407.08 296.8 409.88 298.24 417.52 301.41 425.24 303.91 428.25 304.61 434.84 307.32 441.87 309.43 452.24 309.63 456.19 309.18 466.68 304.09 468.28 303.63 468.19 301.59 469.24 297.38 471.64 294.38 472.24 288.58 470.95 287.34 468.2 281.75 470.1 277.67 472.14 275.13 473.46 271.72 474.81 270.67 479.36 269.72 482.61 268.09 486.3 263.12 488.56 261.94 491.07 258.8 492.61 256.14 494.26 256.19 498.94 252.5 501.67 249.36 506.41 246.3 510.28 244.41 514.36 239.32 517.98 237.98 522.22 234.51 527.39 232.88 530.22 232.58 532.28 231.33 532.84 228.97 534.55 227.59 540.96 228.68 546.35 228.08 548.79 228.26 550.33 227.54 550.94 225.79 554.09 223.63 560.07 220.93 564.8 216.22 566.46 212.76 567.76 211.9 568.51 209.16 567.87 205.41 571.79 205.41 576.16 204.33 582.1 201.69 584.95 199.45 588.03 194.78 586.83 191.98 588.18 187.06 586.74 180.48 588.88 175.05 589.4 172.27 586.99 171.6 586.8 169.65 589.47 164.19 590.6 160.62 594.6 157.9 596.37 155.13 600.83 151.31 604.93 150.25 606.37 148.42 607.93 147.82 610.29 145.12 614.61 142.39 617.55 139.73 619.06 135.58 619.01 131.53 620.86 130.55 624.28 124.62 626.85 123 628.72 117.89 629.04 115.81 633.06 113.92 636.12 110.65 635.76 108.05 637.07 105.68 636.95 103.27 640.03 102.86 640.3 105.71 643.15 106.8 647.63 106.36 648.68 107.83 647.72 109.59 650.02 111.9 650.29 117.61 649.01 118.25 649.52 120.4 652.08 122.23 655.93 124.11 657.44 123.8 658.8 122.08 660.32 123.93 661.87 127.45 659.74 130.43 660.96 133.7 665.33 133.09 665.86 137.71 667.47 139.61 671.54 138.62 676.04 142.31 676.17 145.63 677.02 147.03 679.84 145.92 681.16 147.88 684.3 147.81 689.06 148.32 691.93 150.17 699.55 149.58 695.2 154.94 692.62 159.48 688.83 167.31 684.85 169.83 683.58 173.19 682.25 175.23 679 178.79 676.68 183.45 676.27 185.96 676.58 188.75 Z" id="37011320"/>
</g>
</svg>