<?xml version="1.0"?>
<svg xmlns="http://www.w3.org/2000/svg" version="1.2" baseProfile="tiny" width="800" height="658" viewBox="0 0 800 658" stroke-linecap="round" stroke-linejoin="round">
<g id="dong">
<path d="M 685.15 554.34 681.02 554.16 679.49 554.39 675.2 555.98 673.64 555.3 673.13 554.45 671.84 554.29 671.21 553.07 668.94 552.88 666.62 553.47 665.13 554.32 661.06 558.87 659.74 560.77 658.47 564.85 657.57 566.25 656.8 570.35 654.85 569.92 654.53 568.18 649.92 566.84 649.31 565.28 647.45 565.96 646.98 566.84 643.88 566.46 642.96 565.07 643.02 563.55 643.28 560.63 644.1 556.14 645.13 552.08 646 545.48 646.53 543.03 648.7 544.26 649.17 546.95 648.62 547.65 649.83 549.26 652.65 552.02 654.44 551.74 654.74 552.48 653.3 553.98 657.19 555.91 658.8 556 659 553.52 662 550 661.32 549.28 660.52 538.39 662.42 536.54 663.38 537.08 665.85 536.39 665.83 537.49 667.63 537.22 669.26 538.09 669.21 540.01 670.29 541.92 672.63 541.93 673.14 542.5 673.54 545.13 673.59 547.46 675.74 548.04 675.93 549.03 678.06 550.31 679.19 550.16 681.53 551.24 682.84 551.01 684.96 552.76 685.15 554.34 Z" id="37012640"/>
<path d="M 710.73 517.65 708.59 518.87 707.05 522.92 703.86 524.77 700.73 523.62 699.78 522.63 699.03 523.92 692.99 526.36 691 525.93 686.72 526.37 686.74 526.95 684.31 526.99 683.27 527.5 682.14 529.09 679.8 531.35 680.22 533.37 679.14 534.58 676.68 535.33 676.42 538.43 675.6 538.77 674.59 541.31 673.14 542.5 672.63 541.93 670.29 541.92 669.21 540.01 669.26 538.09 667.63 537.22 665.83 537.49 665.85 536.39 663.38 537.08 662.42 536.54 660.52 538.39 661.32 549.28 662 550 659 553.52 658.8 556 657.19 555.91 653.3 553.98 654.74 552.48 654.44 551.74 652.65 552.02 649.83 549.26 648.62 547.65 649.17 546.95 648.7 544.26 646.53 543.03 638.7 541.89 638.33 539.71 639.55 539.45 638.37 537.67 636.98 539.8 633.57 537.61 634.03 536.07 633.66 535.07 631.13 533.73 630.78 531.25 630.96 529.78 631.76 528.04 630.51 527.36 630.48 525.09 628.84 523.44 629.7 522.07 629.68 521.03 627.58 520.02 626.22 520.33 624.45 519.56 624.21 518.55 621.87 517.14 621.42 515.43 622.82 512.59 625.9 511.67 625.22 509.19 624.55 507.88 626.09 506.6 624.44 502.98 626.88 501.79 626.55 498.18 628.73 498.11 628.76 495.3 631.84 493.81 634.69 493.43 635.67 491.42 637.89 490.94 638.16 487.56 640.07 487.21 641.29 487.61 642.16 485.43 644.55 482.96 645.82 483.31 648.01 482.93 650.19 480.44 650.91 480.01 652.41 480.95 655.64 480.18 656.91 481.19 658.05 481.25 661.22 483.2 665.65 484.18 668.65 485.35 670.09 486.99 674.39 486.87 675.36 488.16 678.79 488.02 679.66 486.65 681.86 487.63 682.75 488.42 686.77 489.25 689.29 491.57 690.31 487.82 690.37 486.54 693.3 484.97 696.19 486.16 697.37 487.49 697.56 488.42 699.61 490.15 699.33 491.29 699.59 493.29 700.26 494.5 700.36 496.78 701.67 498.06 700.75 499.97 701.68 502.46 702 505.61 704.32 506.06 710.73 517.65 Z" id="37012650"/>
<path d="M 720.53 515.37 721.98 519.95 724.02 523.77 725.31 525.4 723.7 529.35 722.32 531.34 719.59 532.15 717.8 532.37 716.22 534.09 714.16 534.86 711.67 533.78 710.85 532.94 709.66 532.99 706.88 533.76 704.99 535.1 703.97 536.82 701.71 536.19 700.71 537.38 699.16 538.01 694.66 540.63 693.26 543.02 692.12 547.59 689.5 551.55 686.99 553.79 685.15 554.34 684.96 552.76 682.84 551.01 681.53 551.24 679.19 550.16 678.06 550.31 675.93 549.03 675.74 548.04 673.59 547.46 673.54 545.13 673.14 542.5 674.59 541.31 675.6 538.77 676.42 538.43 676.68 535.33 679.14 534.58 680.22 533.37 679.8 531.35 682.14 529.09 683.27 527.5 684.31 526.99 686.74 526.95 686.72 526.37 691 525.93 692.99 526.36 699.03 523.92 699.78 522.63 700.73 523.62 703.86 524.77 707.05 522.92 708.59 518.87 710.73 517.65 713.16 516.57 714.36 515.57 718.02 514.68 720.53 515.37 Z" id="37012660"/>
<path d="M 656.8 570.35 656.58 572.67 656.91 574.55 656.73 576.81 660.75 578.78 660.73 579.31 662.81 580.6 664.14 584.6 660.25 579.92 653.58 578.46 650.36 578.91 647.86 580.56 647.53 582.43 647.07 584.82 644.91 597.61 643.57 608.42 642.89 609.51 642.2 609.52 635.66 611.42 630.65 613.56 628.13 616.64 627.07 615.93 627.09 614.39 625.67 610.93 626.65 607.62 626.24 604.94 628.33 602.32 628.54 599.93 630.05 599.14 630.67 597.91 630.78 595.68 628.78 595.03 627.76 593.87 628.24 589.38 631.13 585.43 631.43 584.03 630.77 580.7 630.94 578.94 632.27 578.44 632.48 579.83 633.97 579.06 635.16 577.37 635.58 575.81 637.55 574.95 637.52 572.69 638.69 571.08 640.15 569.88 639.18 567.33 641.53 565.37 643.02 563.55 642.96 565.07 643.88 566.46 646.98 566.84 647.45 565.96 649.31 565.28 649.92 566.84 654.53 568.18 654.85 569.92 656.8 570.35 Z" id="37012670"/>
<path d="M 647.18 617.51 645.83 617.48 643.49 620.66 642.73 623.22 641.6 626.01 640.72 627.06 638.85 627.81 637.29 627.71 632.97 628.78 630.68 629.92 629.38 632.68 630.74 634.08 628.77 637.38 629.64 642.61 627.12 643.94 623.89 648.73 622.94 648.43 621.49 650.78 620.07 651.59 618.08 654.86 615.68 653.39 613.48 657 609.68 654.67 611.89 651.07 607 648.1 608.01 646.99 614.81 635.85 617.19 637.31 622.32 628.83 622.38 627.88 624.15 624.7 626.79 621.29 627.18 617.89 628.13 616.64 630.65 613.56 635.66 611.42 642.2 609.52 642.89 609.51 644.59 613.24 645.06 614.81 645.88 615.56 646.16 617.01 647.18 617.51 Z" id="37012680"/>
<path d="M 451.98 249.72 452.57 254.2 453.57 260.11 454.35 260.74 453.6 262.33 453.39 264.15 454.12 265.46 453.97 266.78 455.43 268.23 457.15 272.62 455.98 275.39 456.57 277.42 455.84 279.21 457.97 283.23 458.46 282.73 461.68 283.09 463.58 284.45 466.05 284.53 468.37 285.29 471.62 289.38 471.19 291.73 473.55 293.76 474 294.93 473.87 297.71 473.08 299.3 472.59 302.26 472.95 303.26 472.75 306.18 475.04 309.5 477.93 311.28 478.33 312.99 480.05 315.86 479.66 317.64 483.17 322.65 485.39 322.65 489.25 324.8 491.41 326.81 494.23 328.15 494.69 330.27 496.38 331.67 495.91 332.84 496.39 333.81 499.36 335.06 500.41 336.31 501.01 337.81 502.6 338.1 502.09 340.26 502.99 341.04 502.73 343.73 503.51 343.81 503.88 349.02 504.45 349.51 505.89 352.93 503.32 353.4 502.12 356.43 501.32 357.22 501.25 360.47 500.76 361.86 498.85 364.09 498.25 366.24 496.46 368.13 497.47 370.64 498.63 371.59 498.54 372.77 497.74 374.25 500.35 375.96 500.09 377.11 500.88 378.29 500.77 381.72 500.46 382.46 501.15 387.34 500.17 389.3 501.16 390.43 504.05 391.11 506.11 392.31 508.31 391.63 510.53 393.24 513.74 392.23 514.64 393.15 517.19 393.25 523.45 397.27 525.26 398.03 522.38 402.25 520.35 403.99 521.43 408.47 523.06 412.21 523.18 414.39 525.23 415.97 525.54 416.98 524.33 418.81 523.79 420.35 524.98 421.69 524.42 423.6 525.42 424.85 526.62 429.08 525.87 429.58 526.09 432.24 527.75 433.18 527.94 435.28 526.18 438.18 526.93 440.41 526.65 442.25 525.12 443.52 524.49 444.93 522.75 446.6 521.5 445.69 519.37 445.68 518.09 446.63 518.17 448.41 516.69 450.78 515.23 451.98 512.13 453.13 509.68 453.61 507.91 455.61 507.91 456.48 503.85 457.47 501.2 459.04 499.92 459.35 498.96 460.42 498.64 462.04 495.81 462.46 494.37 464.15 493.32 464.77 491.93 467.68 491.03 468.19 488.14 473.63 486.92 478.79 487.72 480.93 484.64 484.63 484.06 486.32 484.45 487.13 484.11 489.63 486.16 491.82 486.67 493.84 486.14 496 484.66 497.61 483.89 501.51 484.84 502.29 485.3 504.34 487.67 510.36 488.28 511.31 488 512.94 486.83 514.16 485.93 517.44 484.35 518.21 483.91 520.02 484.36 521.48 483.26 523.55 483.7 525.79 481.74 524.97 479.32 524.85 477.21 525.51 474.15 525.53 474.28 526.82 473.53 528.24 471.78 529.57 469.43 530.79 468.23 530.65 465.13 531.41 464.75 532.73 463.21 534.63 457.76 535.83 455.74 535.17 453.34 536.49 452.06 536.31 449.05 535.23 448.11 533.71 447.41 534.89 445.68 535.82 442.54 539.44 440.96 538.82 437.66 538.45 437.67 536 436.53 535.63 435.81 533.24 435.11 529.1 435.79 527.48 433.9 526.45 433.13 526.76 430.88 526.24 426.9 526.29 425.71 527.18 421.32 529.18 419.86 529.2 414.28 524.46 413.89 523.81 414.33 522.02 413.34 520.92 413.62 520.1 412.55 517.4 412.59 516.19 411.46 515.94 411.86 514.35 411.95 509.67 410.08 508.99 408.92 507.04 409.62 505.21 409.6 503.86 406.67 500.56 407.27 499.66 407.25 498.24 406.58 496.94 407.86 494.24 408.66 493.58 409.78 490.39 409.93 488.61 410.94 485.26 412.04 484.24 412.94 482.21 411.85 480.63 412.09 478.93 411.25 476.79 407.62 477.52 406.48 473.47 406.17 469.99 405.75 469.66 405.57 465.62 403.42 462.95 403.33 460.68 404.37 458.28 405.7 457.88 407.75 455.83 409.04 455.65 408.52 453.74 409.45 452.36 408.66 449.96 408.95 447.39 407.41 445.44 407.46 444.25 408.61 442.86 408.1 441.33 406.61 440.29 406.35 434.41 406.01 432.52 406.92 430.92 406.77 429.19 404.91 424.82 401.97 422.63 401.92 420.01 401.55 417.53 400.4 415.68 401.74 413.47 399.92 404.66 398.27 399.16 397.76 396.56 400.65 392.18 401.41 389.53 401.24 385.88 401.64 381.14 399.28 377.6 398.84 376.21 394.8 375.05 393.79 373.61 391.99 372.94 390.48 369.82 390.84 369.01 390.46 367.08 387.69 363.8 387.98 362.28 387.28 361.72 387.57 357.47 386.64 355.01 383.83 352.77 382.56 349.93 382.48 347.98 380.51 343.25 381.26 341.99 383.68 340.91 384.43 338.87 386.26 337.32 385.68 335.18 383.4 330.29 382.42 325.28 383.14 323.13 382.94 321.41 381.62 317.56 380.68 316.76 381.02 314.79 381.9 313.85 383.23 313.95 385.58 308.08 386.03 305.62 388.5 304.58 389.01 301.3 391.79 297.31 392.13 295.28 394.64 292.06 394.26 285.53 391.93 283.06 389.65 280.08 387.24 278.58 384.55 275.9 380.52 272.49 377.33 270.46 376.21 270.6 373.56 268.58 371.39 267.88 369.87 265.59 371.51 264.56 372.68 261.17 373.97 258.75 376.4 257.3 376.8 256.29 378.95 255.66 381.5 250.79 384.04 248.86 386.01 247.8 386.83 246.69 388.1 246.3 392.8 246.61 395.38 244.78 395.37 241.19 402.36 235.65 410.62 236.61 412.63 237.09 415.86 238.57 418.01 239.86 421.26 239.66 423.1 238.88 424.66 237.05 426.07 237.07 432.16 239.69 434.11 241.77 435.66 241.55 437.53 241.84 442.29 245.25 444.68 245.66 446.92 245.15 447.8 245.92 449.31 249.05 451.98 249.72 Z" id="37012310"/>
<path d="M 661.2 234.65 662.42 236.01 662.03 237.3 660.79 238.8 660.6 240.33 661.32 241.5 661.08 242.61 658.79 244.29 658.76 246.96 657.17 247.96 656.22 249.92 655.21 250.59 654.11 250.34 651.91 251.61 651.14 253.04 649.59 253.62 649.21 254.41 646.06 255.96 644.88 255.65 642.5 255.71 641.1 256.5 639.55 258.13 638.61 261.54 638.3 264.43 638.45 269.61 638.78 272.44 639.78 277.34 641.19 281.77 642.27 284.23 644.95 289.35 646.24 290.84 646.29 291.56 647.94 293.59 650.76 294.65 652.57 297.02 653.06 298.14 655.57 300.9 657.75 301.82 658.86 301.05 661.38 303.11 662.23 304.94 665.25 305.62 667 304.37 668.04 303.12 671.81 304.06 673.18 305.34 674.14 308.04 675.77 310.13 675.65 312.05 674.88 312.53 674.88 314 675.57 315.23 676.38 314.84 676.86 316.46 676.69 318.68 679.22 320.94 680.51 325.31 679.03 326.08 679.1 328.62 680.06 330.35 683.56 331.22 682.66 332.34 682.66 333.71 684.18 336.91 682.95 337.84 681.65 338.11 680.1 340.32 677.36 341.45 676.78 340.78 674.26 340.16 670.91 341.87 668.37 339.98 667.35 340.85 663.78 342.14 663.96 342.8 661.85 344.78 661.69 347.89 663.13 350.46 662.96 351 663.72 354.08 662.97 355.69 663.55 356.51 665.57 357.03 666.95 359.67 666.64 360.62 667.16 361.86 664.84 362.76 664.37 363.4 660.94 363.59 660.13 365.44 659.81 368.61 659.2 369.3 657.47 368.68 656.63 373.1 657.65 373.88 659.11 376.07 658.06 378.62 658.46 380.3 656.75 380.49 655.62 382.64 653.93 383.96 652.53 384.17 651.26 383.17 649.54 384.28 648.8 386.05 646.26 387.73 643.94 387.19 644.48 384.7 641.02 382.49 633.73 380.66 632.19 382.22 630.66 382.07 629.9 380.19 627.52 381.41 625.56 380.72 624.73 381.18 622.67 379.91 620.64 377.64 619.67 377.83 618.52 377.04 617.19 374.86 616.13 374.11 613.72 374.14 611.91 373.3 608.75 374.39 604.92 374.98 602.66 373.9 601.02 372.51 597.84 372.52 596.98 371.99 595.35 369.3 592.94 366.48 591.84 366.01 589.72 367.25 587.58 367.34 586.61 366.92 585.45 365.52 581.23 364.16 580.7 362.68 579.76 362.12 577.34 363.01 576.57 361.85 573.64 361.48 573.05 363.07 570.87 363.55 568.63 365.5 567.75 364.74 564.65 363.83 563.91 364.75 559.05 366.73 557.53 366.84 554.09 365.77 551.56 366.64 550.16 366.26 546.67 367.37 544.72 366.49 544.46 365.08 542 363.92 539.38 364.72 537.79 363.32 537.93 361.62 535.09 361.99 533.71 360.44 531.32 361.09 529.49 361.94 527.34 363.72 526.38 363.01 523.94 363.91 521.87 363.24 521.67 362.45 520.23 361.95 519.05 360.98 517.54 360.79 516.28 359.99 514.24 359.64 512.8 358.23 511.76 358.12 508.56 357 506.14 354.47 505.89 352.93 504.45 349.51 503.88 349.02 503.51 343.81 502.73 343.73 502.99 341.04 502.09 340.26 502.6 338.1 501.01 337.81 500.41 336.31 499.36 335.06 496.39 333.81 495.91 332.84 496.38 331.67 494.69 330.27 494.23 328.15 491.41 326.81 489.25 324.8 485.39 322.65 483.17 322.65 479.66 317.64 480.05 315.86 478.33 312.99 477.93 311.28 475.04 309.5 472.75 306.18 472.95 303.26 472.59 302.26 473.08 299.3 473.87 297.71 474 294.93 473.55 293.76 471.19 291.73 471.62 289.38 468.37 285.29 466.05 284.53 463.58 284.45 461.68 283.09 458.46 282.73 457.97 283.23 455.84 279.21 456.57 277.42 455.98 275.39 457.15 272.62 455.43 268.23 453.97 266.78 454.12 265.46 453.39 264.15 453.6 262.33 454.35 260.74 453.57 260.11 452.57 254.2 451.98 249.72 454.92 246.09 455.43 243.6 455.56 240.18 457.8 238.74 460.67 238.6 465.71 237.85 468.09 231.31 468.05 224.02 471.45 213.81 471.08 210.22 473.46 206.3 474.16 203.4 477.12 197.9 481.16 193.9 482.31 191.49 484.99 189.2 487.13 188.39 487.6 185.17 490.22 184.48 491.23 182.77 494.32 182 495.22 180.84 497.88 180.44 500.35 174.44 503.26 172.17 504.43 172.49 508.81 175.86 512.16 178.78 512.49 179.63 515.29 181.55 520.85 180.82 523.11 182.38 523.62 183.97 527.09 186.02 531.26 186.23 531.55 188.57 532.06 189.08 532.12 191.1 535.57 193.6 536.3 195.2 537.75 196.16 539.92 198.41 539.27 200.21 543.89 203.78 543.79 205.2 544.17 211.15 546.05 212.06 547.96 213.4 549.6 213.68 551.77 214.97 551.53 216.16 551.98 219.61 553.87 224.53 556.28 227.05 558.16 228.01 560.09 229.59 562.58 230.78 564.87 234.3 565.23 235.57 569.07 238.53 570.04 239.88 568.6 242.29 568.91 244.41 568.34 246.41 567.4 247.42 570.21 248.47 571.52 249.3 573.13 251.53 573.95 253.31 575.4 255.48 576.66 255.95 579.97 256.13 582.93 256.93 587.39 257.01 588.97 257.4 591.88 257.48 594.05 258.12 596.29 258.11 599.14 257.24 601.12 256.98 605.34 255.5 607.99 255.33 612.59 255.41 615.45 255.12 621.89 255.68 625.68 253.93 627.02 252.67 628.91 251.59 629.43 248.83 632.26 245.9 635.3 244.39 637.74 243.74 639.68 243.63 642.76 245.38 642.68 240.91 643.55 239.37 645.58 238.54 648.56 238.4 651.31 237.6 652.65 236.74 653.48 237.15 656.09 235.9 658.02 234.36 661.2 234.65 Z" id="37012320"/>
<path d="M 642.26 131.72 642.34 135.02 641.49 137.07 640.86 139.65 640.9 141.04 641.79 143.79 640.8 146.08 640.28 148.24 640.96 149.45 640.21 150.18 639.98 151.91 640.5 152.35 639.41 156.26 637.71 158.82 638.04 160.15 639.77 163.99 644.02 172.46 647.31 178.06 651.01 182.95 652.11 183.86 654.12 183.79 654.35 185.2 654 186.93 655.54 187.09 656.65 185.95 658.62 188.64 659.34 191.45 658.66 198.88 657.43 201.08 657.31 202.25 654.77 203.8 652.73 205.91 652.41 210.12 653.89 215.08 655.72 218.81 657.68 221.72 660.45 221.4 661.86 222.61 662.56 223.89 662.5 225.63 661.36 226.4 661.98 228.23 661.11 231 661.73 232.01 661.2 234.65 658.02 234.36 656.09 235.9 653.48 237.15 652.65 236.74 651.31 237.6 648.56 238.4 645.58 238.54 643.55 239.37 642.68 240.91 642.76 245.38 639.68 243.63 637.74 243.74 635.3 244.39 632.26 245.9 629.43 248.83 628.91 251.59 627.02 252.67 625.68 253.93 621.89 255.68 615.45 255.12 612.59 255.41 607.99 255.33 605.34 255.5 601.12 256.98 599.14 257.24 596.29 258.11 594.05 258.12 591.88 257.48 588.97 257.4 587.39 257.01 582.93 256.93 579.97 256.13 576.66 255.95 575.4 255.48 573.95 253.31 573.13 251.53 571.52 249.3 570.21 248.47 567.4 247.42 568.34 246.41 568.91 244.41 568.6 242.29 570.04 239.88 569.07 238.53 565.23 235.57 564.87 234.3 562.58 230.78 560.09 229.59 558.16 228.01 556.28 227.05 553.87 224.53 551.98 219.61 551.53 216.16 551.77 214.97 549.6 213.68 547.96 213.4 546.05 212.06 544.17 211.15 543.79 205.2 543.89 203.78 539.27 200.21 539.92 198.41 537.75 196.16 536.3 195.2 535.57 193.6 532.12 191.1 532.06 189.08 531.55 188.57 531.26 186.23 527.09 186.02 523.62 183.97 523.11 182.38 520.85 180.82 515.29 181.55 512.49 179.63 512.16 178.78 508.81 175.86 504.43 172.49 503.26 172.17 500.35 174.44 497.88 180.44 495.22 180.84 494.32 182 491.23 182.77 490.22 184.48 487.6 185.17 487.13 188.39 484.99 189.2 482.31 191.49 481.16 193.9 477.12 197.9 474.16 203.4 473.46 206.3 471.08 210.22 471.45 213.81 468.05 224.02 468.09 231.31 465.71 237.85 460.67 238.6 457.8 238.74 455.56 240.18 454.32 238.76 449.55 236.58 448.95 236.02 446.57 235.88 443.84 231.72 441.34 230.38 439.4 227.98 434.62 227.41 431.17 226.15 428.26 224.25 428.36 217.89 426.44 215.22 426.21 212.69 423.45 207.17 423.69 202.19 422.69 198.12 423.8 191.15 423.26 185.16 430.08 184.26 432.5 186.04 436.49 185.97 443.46 178.32 443.84 174.62 442.97 168.78 441.36 165.17 439.48 162.87 436.73 160.38 438.7 154.44 442.59 151.81 444.71 147.49 446.29 146.49 448.85 142.05 448.78 138.68 449.8 136.34 450.2 134.18 452 132.61 457.29 127.4 463.59 123.39 468.49 121.5 474.81 123.93 482.39 121.86 486.33 122.03 488.82 121.3 492.8 118.93 495.02 116.4 496.36 115.37 497.12 113.31 499.59 112.08 501.53 113.47 503.47 116.39 503.8 117.88 506.21 118.74 507.88 120.83 509.17 120.79 510.49 121.74 512.64 122.18 515.36 123.46 515.55 128.21 517.68 129.13 518.38 130.41 520.09 131.8 520.72 133.51 522.18 135.32 524.47 134.93 527.89 134.99 528.9 134.71 530.55 132.82 531.6 132.12 532.84 132.23 537.39 127.61 539.64 127.54 541.3 126.67 546.16 129.31 550.57 129.92 553.41 131.56 556.19 131.84 557.73 131.38 561.59 131.96 562.29 134.97 563.73 135.09 565.94 133.97 570.46 135.26 570.78 134.54 573.08 132.28 574.77 132.14 575.71 133.7 576.93 133.88 578.98 135.75 580.86 136.62 581.93 136.28 584.87 132.98 586.55 132.77 586.21 131.84 586.78 129.3 589.42 128.25 591.16 128.87 592.65 128.16 594.17 126.79 594.76 127.56 597.7 127.82 600.31 127.23 601.71 126.04 602.46 124.69 604.39 122.61 605.87 122.3 608.19 122.57 608.01 124.05 611.07 124.47 613.32 125.24 613.7 124.18 617.63 126.76 622.06 128.94 623.43 129.97 626.19 131.35 628.63 131.59 631.51 131.5 634.33 132.76 636.32 132.99 640.46 131.94 642.26 131.72 Z" id="37012330"/>
<path d="M 794.68 475.24 798.74 479.23 798.57 480.49 798.84 486.52 798.78 490.55 799 493.46 798.42 496.26 798.1 479.79 797.25 478.3 774.51 456.36 756.18 438.78 756.45 438.54 774.85 456.17 794.68 475.24 Z M 720.53 515.37 718.02 514.68 714.36 515.57 713.16 516.57 710.73 517.65 704.32 506.06 702 505.61 701.68 502.46 700.75 499.97 701.67 498.06 700.36 496.78 700.26 494.5 699.59 493.29 699.33 491.29 699.61 490.15 697.56 488.42 697.37 487.49 696.19 486.16 693.3 484.97 690.37 486.54 690.31 487.82 689.29 491.57 686.77 489.25 682.75 488.42 681.86 487.63 679.66 486.65 678.79 488.02 675.36 488.16 674.39 486.87 670.09 486.99 668.65 485.35 665.65 484.18 661.22 483.2 658.05 481.25 656.91 481.19 655.64 480.18 652.41 480.95 650.91 480.01 650.19 480.44 648.01 482.93 645.82 483.31 644.55 482.96 642.16 485.43 641.29 487.61 640.07 487.21 638.16 487.56 637.89 490.94 635.67 491.42 634.69 493.43 631.84 493.81 628.76 495.3 628.73 498.11 626.55 498.18 626.88 501.79 624.44 502.98 626.09 506.6 624.55 507.88 625.22 509.19 625.9 511.67 622.82 512.59 621.42 515.43 621.87 517.14 624.21 518.55 624.45 519.56 621.44 522.32 620.4 525.03 619.95 525.33 618.26 523.75 616.25 525.23 613.58 528.01 612.78 529.38 613.58 531.28 615.06 532.75 613.4 534.34 610.03 534.83 608.75 536.86 609.86 538.55 608.98 540.56 606.95 540.46 604.68 541.1 603.18 540.07 602.12 540.8 600.84 543.03 601.6 544.54 601.23 545.87 602.31 548.8 603.84 549.08 602.97 551.08 602.38 553.61 601.08 552.92 599.84 553.72 599.89 556.02 599.27 557.73 597.88 559.61 598.17 561.56 598.02 564.34 596.87 564.93 596.69 566.74 597.79 568.67 596.66 569.97 597 571.15 595.58 573.51 593.22 572.41 591.68 574.19 591.14 575.62 591.18 577.84 589.35 579.78 588.21 581.52 588.6 583.35 587.83 586.28 586.94 586.41 586.29 591.28 585.29 591.59 583.51 592.75 583.79 594.04 582.49 595.58 580.17 595.74 578.98 599.36 575.97 599.11 572.18 599.78 571.19 599.45 569.46 600.49 568.71 600.29 566.63 600.93 563.44 601.43 561.45 600.62 558.96 600.47 557.81 600.88 555.89 603.11 555.07 603.26 553.14 601.81 552.15 599.93 552.14 598.72 550.82 596.65 546.37 598.47 545.87 598.05 543.89 598.47 542.04 599.59 537.57 597.96 536.87 596.52 537.62 593.46 535.41 589.41 534.58 589.18 534.03 586.2 532.1 584.19 530.73 583.8 530.41 582.85 528.21 579.9 525.92 578.09 523.86 575.32 523.47 573.24 520.77 572.06 519.84 570.66 520.17 568.89 517.43 567.02 516.14 565.12 514.03 563.31 511.63 562.68 509 560.61 507.24 561.82 505.69 560.69 504.02 560.85 502.46 559.41 502.78 557.51 502.16 554.92 500.71 553.34 499.77 550.74 500.05 548.06 501.46 545.08 502.34 544.32 501.03 542.6 499.92 541.85 499.86 540.63 496.65 538.51 495.88 536.86 493.04 534.86 491.76 535.07 490.28 534.3 490.14 532.85 487.12 530.99 486.15 528.56 484.7 525.84 483.7 525.79 483.26 523.55 484.36 521.48 483.91 520.02 484.35 518.21 485.93 517.44 486.83 514.16 488 512.94 488.28 511.31 487.67 510.36 485.3 504.34 484.84 502.29 483.89 501.51 484.66 497.61 486.14 496 486.67 493.84 486.16 491.82 484.11 489.63 484.45 487.13 484.06 486.32 484.64 484.63 487.72 480.93 486.92 478.79 488.14 473.63 491.03 468.19 491.93 467.68 493.32 464.77 494.37 464.15 495.81 462.46 498.64 462.04 498.96 460.42 499.92 459.35 501.2 459.04 503.85 457.47 507.91 456.48 507.91 455.61 509.68 453.61 512.13 453.13 515.23 451.98 516.69 450.78 518.17 448.41 518.09 446.63 519.37 445.68 521.5 445.69 522.75 446.6 524.49 444.93 525.12 443.52 526.65 442.25 526.93 440.41 526.18 438.18 527.94 435.28 527.75 433.18 526.09 432.24 525.87 429.58 526.62 429.08 525.42 424.85 524.42 423.6 524.98 421.69 523.79 420.35 524.33 418.81 525.54 416.98 525.23 415.97 523.18 414.39 523.06 412.21 521.43 408.47 520.35 403.99 522.38 402.25 525.26 398.03 523.45 397.27 517.19 393.25 514.64 393.15 513.74 392.23 510.53 393.24 508.31 391.63 506.11 392.31 504.05 391.11 501.16 390.43 500.17 389.3 501.15 387.34 500.46 382.46 500.77 381.72 500.88 378.29 500.09 377.11 500.35 375.96 497.74 374.25 498.54 372.77 498.63 371.59 497.47 370.64 496.46 368.13 498.25 366.24 498.85 364.09 500.76 361.86 501.25 360.47 501.32 357.22 502.12 356.43 503.32 353.4 505.89 352.93 506.14 354.47 508.56 357 511.76 358.12 512.8 358.23 514.24 359.64 516.28 359.99 517.54 360.79 519.05 360.98 520.23 361.95 521.67 362.45 521.87 363.24 523.94 363.91 526.38 363.01 527.34 363.72 529.49 361.94 531.32 361.09 533.71 360.44 535.09 361.99 537.93 361.62 537.79 363.32 539.38 364.72 542 363.92 544.46 365.08 544.72 366.49 546.67 367.37 550.16 366.26 551.56 366.64 554.09 365.77 557.53 366.84 559.05 366.73 563.91 364.75 564.65 363.83 567.75 364.74 568.63 365.5 570.87 363.55 573.05 363.07 573.64 361.48 576.57 361.85 577.34 363.01 579.76 362.12 580.7 362.68 581.23 364.16 585.45 365.52 586.61 366.92 587.58 367.34 589.72 367.25 591.84 366.01 592.94 366.48 595.35 369.3 596.98 371.99 597.84 372.52 601.02 372.51 602.66 373.9 604.92 374.98 608.75 374.39 611.91 373.3 613.72 374.14 616.13 374.11 617.19 374.86 618.52 377.04 619.67 377.83 620.64 377.64 622.67 379.91 624.73 381.18 625.56 380.72 627.52 381.41 629.9 380.19 630.66 382.07 632.19 382.22 633.73 380.66 641.02 382.49 644.48 384.7 643.94 387.19 646.26 387.73 648.8 386.05 649.54 384.28 651.26 383.17 652.53 384.17 653.93 383.96 655.62 382.64 656.75 380.49 658.46 380.3 658.06 378.62 659.11 376.07 657.65 373.88 656.63 373.1 657.47 368.68 659.2 369.3 659.81 368.61 660.13 365.44 660.94 363.59 664.37 363.4 664.84 362.76 667.16 361.86 666.64 360.62 666.95 359.67 665.57 357.03 663.55 356.51 662.97 355.69 663.72 354.08 662.96 351 663.13 350.46 661.69 347.89 661.85 344.78 663.96 342.8 663.78 342.14 667.35 340.85 668.37 339.98 670.91 341.87 674.26 340.16 676.78 340.78 677.36 341.45 680.1 340.32 681.65 338.11 682.95 337.84 684.18 336.91 683.51 338.85 684.43 340.52 685.68 341.85 686.64 340.32 688.74 342.85 688.63 344.05 687.59 344.46 686.6 346.78 684.75 349.05 684.09 352.6 686.11 354.23 688.08 355.31 687.46 357.05 686.12 357.92 685.04 359.45 685.54 362.27 688.58 366.07 689.45 366.38 685.32 374.92 685.11 376.5 684.22 378.23 684.46 380.03 683.95 381.17 683.76 383.15 685.71 387.85 684.13 388.43 682.88 387.68 681.49 389.31 680.39 392.15 680.81 394.63 681.78 396.41 683.57 398.71 685.76 399.28 685.45 401.84 686.29 403.16 685.07 405.12 686.21 407.27 688.17 409.08 689.68 411.02 692.31 413.73 695.29 416.44 698.95 420.28 699.68 420.32 709.26 428.19 712.66 431.16 716.81 434.01 718.84 435.74 721.84 438.73 725.22 441.32 728.96 445.28 734.36 448.95 739.06 451.27 741.54 451.42 742.39 448.38 752.2 448.21 752.09 448.66 744.15 448.8 743.88 450.84 742.52 450.87 742.55 452.52 743.92 452.49 744.27 454.48 756.79 454.21 756.86 455.7 757.5 487.53 752 487.73 752.05 491.26 739.77 491.27 739.65 484.05 737.29 484.25 736.09 485.48 734.22 488.62 732.56 490.45 731.25 492.85 729.54 494.58 727.97 497.59 725.54 499.45 725.86 501.11 724.43 501.11 723.19 502.37 722.39 503.9 721.06 507.6 720.7 509.55 720.95 511.91 720.53 515.37 Z" fill-rule="evenodd" id="37012110"/>
<path d="M 397.76 396.56 398.27 399.16 399.92 404.66 401.74 413.47 400.4 415.68 401.55 417.53 401.92 420.01 401.97 422.63 404.91 424.82 406.77 429.19 406.92 430.92 406.01 432.52 406.35 434.41 406.61 440.29 408.1 441.33 408.61 442.86 407.46 444.25 407.41 445.44 408.95 447.39 408.66 449.96 409.45 452.36 408.52 453.74 409.04 455.65 407.75 455.83 405.7 457.88 404.37 458.28 403.33 460.68 403.42 462.95 405.57 465.62 405.75 469.66 406.17 469.99 406.48 473.47 407.62 477.52 411.25 476.79 412.09 478.93 411.85 480.63 412.94 482.21 412.04 484.24 410.94 485.26 409.93 488.61 409.78 490.39 408.66 493.58 407.86 494.24 406.58 496.94 407.25 498.24 407.27 499.66 406.67 500.56 409.6 503.86 409.62 505.21 408.92 507.04 410.08 508.99 411.95 509.67 411.86 514.35 411.46 515.94 412.59 516.19 412.55 517.4 413.62 520.1 413.34 520.92 414.33 522.02 413.89 523.81 414.28 524.46 419.86 529.2 421.32 529.18 425.71 527.18 426.9 526.29 430.88 526.24 433.13 526.76 433.9 526.45 435.79 527.48 435.11 529.1 435.81 533.24 436.53 535.63 435.72 538.24 433.75 540.37 432.56 542.25 431.5 546.48 432.07 549.52 430.72 552.72 431.21 554.7 430.92 555.74 428.37 559.66 427.71 563.49 428.4 567.1 428.23 568.64 424.89 572.62 423.6 575.29 423.37 580.48 423.71 581.19 422.45 582.51 419 584.06 417.85 585.94 416.64 589.08 413.75 589.35 411.72 588.48 408.92 590.43 408.2 592.12 404.42 592.17 403.01 593.66 401.76 595.56 400.64 598.58 398.54 600.87 394.08 601.67 388.93 603.06 373.96 603.16 372.13 603.42 365.27 602.63 360.82 607.22 354.75 608.45 349.2 616.71 343.76 620.84 341.86 623.28 341.04 625.82 332.59 632.94 331.48 633.22 328.11 636 323.4 636.33 322.53 633.6 319.93 628.76 319.88 626.2 323.03 622.18 322.37 608.82 318.15 606 319.46 603.23 320.58 599.95 320.64 598.19 318.98 594.42 315.04 593.94 312.24 592.7 311.62 592.1 309.04 592.24 308.65 588.74 309.13 585.92 308.17 583.22 303.01 582.23 300.67 581.23 299.15 579.63 293.69 580.12 282.42 581.37 276.77 580.8 272.85 577.14 272.05 574.16 270.38 573.81 268.82 574.76 267.32 576.7 264.5 576.29 263.36 575.14 261.52 574.1 259.28 573.5 258.39 572.87 257.36 570.57 255.11 568.71 252.72 568.49 250.98 566.17 252.55 563.01 253.01 561.43 250.72 557.61 248.33 556.17 246.46 553.72 247.25 549.26 248.02 547.72 248.54 544.78 248.34 541.62 247.89 540.95 243.59 537.39 242.09 536.48 240.96 535.15 240.23 533.55 238.1 531.26 236.55 528.4 235.96 528.02 230.26 529.58 226.6 531.59 224.47 531.3 223.83 532.05 221.58 532.44 218.85 530.41 215.66 531.14 214.52 530.78 211.01 532.43 209.6 531.27 208.7 529 209.56 528.03 209.87 526.13 207.83 523.6 205.01 522.6 203.15 520.41 202.02 519.89 200.09 520.13 198.06 519.28 197.25 517.63 195.59 515.99 193.77 514.82 193.37 513.71 192.01 512.56 190.13 509.27 185.57 504.89 185.15 502.16 182.3 500.42 180.53 499.85 178.89 497.51 179.4 496.28 179.39 492.75 179.1 491.49 177.49 489.7 177.04 488.22 176.99 486.22 177.83 481 179.13 480.32 179.5 478.92 182.31 477.72 187.66 476.45 187.61 475.09 192.01 468.05 192.46 466.69 194.56 464.7 196.86 460.3 195.01 456.82 195.16 454.87 196.83 453.71 200.48 452.97 204.41 450.93 207.52 448.92 208.38 447.99 208.74 446.47 211.67 442.66 212.22 440.18 213.83 438.64 215.37 438.56 217.39 437.86 218.97 438.1 219.74 436.45 220.11 434.52 219.36 433.09 220.47 432.75 221.22 431.47 221.38 429.61 222.12 428.19 222.73 425.03 224.1 420.99 227.05 418.08 229.55 416.96 229.87 416.44 234.12 412.57 236.12 413.36 239.27 412.35 243.34 407.46 244.84 407.03 251.93 406.32 253.16 407.92 252.29 410.98 252.54 412.03 251.3 416.67 251.21 418.13 252.94 421.32 251.71 425.1 251.02 426.46 251.88 429.33 252.44 432.69 256.32 435.16 257.59 438.19 260.05 441.71 260.48 443.99 261.79 444.78 263.33 446.37 262.31 450.23 261.26 451.46 260.97 453.31 261.26 455.46 258.66 461.13 260.47 462.56 263.29 466.17 265.39 467.89 267.97 468.91 270.25 470.61 270.6 471.69 271.84 472.5 270.76 474.72 271.74 474.67 273.51 476.54 273.76 478.19 275.57 481.01 275.9 483.12 277.67 485.66 281.12 484.98 283.96 482.46 284.9 481.17 286.41 481.07 288.85 479.47 291.72 479.32 292.71 480.5 294.52 481.5 297.99 480.9 300.82 482.01 301.05 481.27 303.31 479.52 303.75 478.15 307.18 477.87 308.8 476.15 311.92 475.93 313.87 478.72 315.39 479.23 318.03 476.47 319.34 477.09 320.6 476.72 322.88 476.7 325.63 477.74 326.75 476.72 327.08 474.74 328.81 472.1 328.02 470.19 328.32 468.37 329.5 466.07 330.42 465.21 330.3 462.76 329.28 459.02 329.67 455.52 329.19 454.31 328.89 451.13 328.14 447.65 328.4 445.63 329.59 445.43 332.71 443.29 334.27 443.1 336.78 439.66 340.1 438.97 341.09 437.82 342.33 437.43 343.62 433.46 347.26 431.1 350.68 431.24 353.48 430.5 354.05 429.03 354.87 428.49 354.8 425.56 354.43 424.38 354.92 423.38 356.36 422.58 357.79 420.9 359.27 420.27 360.2 417.14 360.77 416.09 360.67 414.34 358.91 409.38 358.93 408.1 359.67 407.5 362.29 406.74 365.67 407.61 367.44 408.63 371.25 406.47 372.28 406.59 376.87 403.53 380.9 402.13 382.81 399.34 383.58 397.55 384.58 397.24 386.22 397.56 389.89 396.26 390.88 396.82 397.76 396.56 Z" id="37012340"/>
<path d="M 499.59 112.08 497.12 113.31 496.36 115.37 495.02 116.4 492.8 118.93 488.82 121.3 486.33 122.03 482.39 121.86 474.81 123.93 468.49 121.5 463.59 123.39 457.29 127.4 452 132.61 450.2 134.18 449.8 136.34 448.78 138.68 448.85 142.05 446.29 146.49 444.71 147.49 442.59 151.81 438.7 154.44 436.73 160.38 439.48 162.87 441.36 165.17 442.97 168.78 443.84 174.62 443.46 178.32 436.49 185.97 432.5 186.04 430.08 184.26 423.26 185.16 423.8 191.15 422.69 198.12 423.69 202.19 423.45 207.17 426.21 212.69 426.44 215.22 428.36 217.89 428.26 224.25 431.17 226.15 434.62 227.41 439.4 227.98 441.34 230.38 443.84 231.72 446.57 235.88 448.95 236.02 449.55 236.58 454.32 238.76 455.56 240.18 455.43 243.6 454.92 246.09 451.98 249.72 449.31 249.05 447.8 245.92 446.92 245.15 444.68 245.66 442.29 245.25 437.53 241.84 435.66 241.55 434.11 241.77 432.16 239.69 426.07 237.07 424.66 237.05 423.1 238.88 421.26 239.66 418.01 239.86 415.86 238.57 412.63 237.09 410.62 236.61 402.36 235.65 395.37 241.19 395.38 244.78 392.8 246.61 388.1 246.3 386.83 246.69 386.01 247.8 384.04 248.86 381.5 250.79 378.95 255.66 376.8 256.29 376.4 257.3 373.97 258.75 372.68 261.17 371.51 264.56 369.87 265.59 368.33 267.17 363.83 265.87 360.77 264.03 358.97 262.62 356.63 262.31 355.09 262.58 351.76 266.98 350.31 267.57 349.51 267.3 348.08 269.78 346.44 271.71 344.56 272.73 343.18 274.21 342.25 274.6 339.4 277.48 339.04 278.73 338.98 281.26 336.54 282.94 333.24 284.55 332.42 285.35 331.52 288.09 328.85 288.43 326.17 288.3 325.39 289.64 325.56 291.25 329.09 295.7 329.82 298.39 330.65 300.21 330.23 301.81 332.18 305.87 335.34 308.32 334.8 310.27 333.33 311.13 333.34 312.93 330.94 314.66 329.83 317.75 325.92 319.36 324.75 320.9 322.59 322.54 318.9 322.36 315.14 326.31 312.61 327.4 311.71 333.59 308.42 335.26 304.3 341.7 302.83 346.02 301.69 347.96 301.59 349.67 300.94 352.54 296.88 356.97 295.49 356.22 294.8 354.66 291.08 354.65 289.22 353.54 286.43 354.13 283.02 352.68 281.85 354.33 279.89 355.02 277.33 356.59 273.72 356.46 270.82 358.19 270.53 359.29 266.51 365.41 268.2 370.21 266.92 371.73 263.3 375.03 264.41 378.18 263.7 380.4 260.51 382.52 256.57 385.5 256.38 387.38 257.11 389.88 257.31 393.45 256.51 396.35 255.62 397.52 255.14 399.5 252.06 403.83 251.93 406.32 244.84 407.03 243.34 407.46 239.27 412.35 236.12 413.36 234.12 412.57 229.87 416.44 229.55 416.96 227.05 418.08 224.1 420.99 222.73 425.03 222.12 428.19 221.38 429.61 221.22 431.47 220.47 432.75 219.36 433.09 220.11 434.52 219.74 436.45 218.97 438.1 217.39 437.86 215.37 438.56 213.83 438.64 212.22 440.18 211.67 442.66 208.74 446.47 208.38 447.99 207.52 448.92 204.41 450.93 200.48 452.97 196.83 453.71 195.16 454.87 191.95 452.81 190.27 451.18 189.81 450.17 188.33 448.79 186.72 446.15 185.31 444.39 184.46 444.3 180.45 445.62 179.32 447.28 176.39 447.15 174.61 447.82 172.11 449.45 169.88 452.21 165.3 452.85 164.39 453.79 163.12 453.03 161.79 452.92 160.73 453.86 159.16 454.28 158.45 453.9 156.26 453.86 154.51 458.59 152.68 464.66 152.85 466.5 152.24 466.68 150.71 464.98 148.78 462.18 142.79 461.26 139.62 461.44 138.8 460.38 138.82 458.89 137.33 457.16 135.67 454.36 134.6 453.59 135.64 449.51 134.98 448.75 131.53 443.03 132.12 441.7 128.37 437.66 127.04 437.02 123.63 432.95 122.13 431.65 120.98 431.43 119.52 429.85 119.75 428.66 125.09 424.17 126.96 421.31 127.94 418.51 127.94 414.61 125.36 411.18 126.15 406.35 125.7 402.75 124.89 401.29 122.87 400.48 118.36 399.43 114.44 396.43 112.12 395.57 109.75 392.16 109.46 389.78 101.7 389.4 99.68 388.61 98.47 387.65 96.18 384.74 92.98 379.49 93.23 375.97 88.06 375.74 86.54 376.23 82.82 376.37 79.98 377.16 75.85 373.78 73.4 372.1 70.3 370.44 68.03 370.61 64.97 370.06 63.17 369.01 61.59 369.97 60.11 370.38 59.01 369 53.93 368.33 51.53 367.78 49.38 366.51 46.4 365.83 44.05 364.95 40.88 363.2 40.08 361.21 37.69 361.57 30.95 361.48 30.1 362.11 28.42 361.78 26.43 359.73 23.95 357.72 22.28 357.42 20.55 355.82 18.8 356.24 17.64 354.89 14.8 353.41 12.97 353.89 8.37 352.46 3.31 352.82 1 352.83 1.88 349.18 3.51 347.23 3.92 344.77 3.87 342.76 2.61 338.11 9.54 333.86 11.79 332.28 13.37 330.29 14.85 330.62 18.11 329.1 20 328.74 21.52 329.75 23.47 329.61 25.7 330.34 29.1 329.49 30.48 328.75 33.21 329.98 34.08 329.93 36.15 328.65 37.9 328.64 41.31 327.82 43.57 326.86 47.2 326.3 48.68 324.62 50.78 323.46 53.81 320.97 56.16 320.78 60.29 321.61 62.49 320.04 63.83 317.05 63.7 311.93 64.42 308.95 64.9 305.74 63.86 302.71 63.63 300.7 64.04 297.43 64.06 294.74 64.42 293.05 65.37 291.85 67.47 290.09 70.46 289.34 71.33 284.92 71.05 281.79 71.59 278.09 76.38 278.31 75.86 274.66 76.03 272.08 75.7 268.93 75.9 264.57 76.88 262.9 76.32 260.84 76.61 258.15 78.75 254.43 78.78 253.18 80.59 248.75 82.34 245.49 86.52 239.8 89.6 238.79 91.4 240.51 94.53 238.37 95.82 238.87 98 238.62 99.28 236.72 101.03 238.57 102.17 238.79 103.42 238.05 104.28 236.89 107.74 236.3 110.74 235.22 113.31 236.05 116.57 238.5 120.35 242.91 122.39 242.9 124.85 244.1 125.93 241.22 125.38 237.54 125.35 234.58 123.54 232.43 123.88 231.35 126.09 228.5 129.49 224.68 132.25 223.4 134.5 225.05 139.52 222.52 139.45 220.63 141.21 218.71 144.56 217.64 145.41 216.59 146.74 216.68 147.97 215.29 150.88 213.7 152.48 211.58 152.9 209.67 150.79 209.87 149.7 206.46 148.14 205.04 147.69 203.26 146.09 201.22 146.13 198.3 147.07 195.82 146.71 193.61 145.85 191.67 143.6 191.85 141.83 190.16 141.91 188.93 141.17 187.78 140.48 185.63 141.8 182.68 141.55 180.64 140.28 179.94 138.6 177.96 137.96 176.19 136.39 176.21 135.54 178.02 132.38 178.88 129.74 177.55 127.04 174.08 124.44 173.1 121.47 174.81 121.52 176.05 120.19 176.96 118.61 176.85 116.37 174.64 114.44 174.7 113.49 173.61 111.54 172.4 109.33 169.97 108.4 169.67 108.33 168.07 107.61 166.09 104.14 161.83 103.78 159.14 102.08 156.33 102.93 153.13 101.74 150.3 101.79 149.41 108.96 143.58 110.79 143.1 113.01 139.22 114.7 138.13 117.73 139.01 118.82 136.99 122.73 135.85 126.39 135.21 127.32 134.4 128.62 135.55 131.2 136.63 131.8 137.32 133.35 135.55 134.8 134.73 136.88 132.92 139.28 131.67 142.77 127.8 144.92 125 147.77 124.39 153.1 125.49 156.41 129.7 159.41 132.17 162.55 134.24 164 134.42 167.13 133.02 167.96 131.65 169.66 129.86 171.54 132.05 173.43 133.26 175.47 135.52 176.95 135.93 179.45 137.28 180.28 140.47 179.37 143.14 182.27 145.32 184.89 149.14 186.42 148.27 192.06 143.93 196.32 145.49 201.31 150.07 203.59 149.38 205.47 149.5 206.09 148.35 208.34 146.82 209.82 146.3 213.01 148.93 216.31 150.83 217.15 152.6 217.79 154.97 219.53 155.08 221.99 152.88 224.31 152.47 225.2 149.95 228.37 150.38 230.75 152.14 233.6 153.34 236.37 153.87 237.44 155.13 237.18 156.77 237.5 159.02 238.13 160.22 238 161.81 242.65 165.13 244.54 168.06 244.7 172.46 243.64 174.31 243.9 177.91 248.41 180.24 248.22 182.82 249.66 184.26 251.52 184.55 252.88 187.26 254.9 188.65 258.48 191.82 260.79 195.76 260.38 197.79 261.49 200.59 263.25 202.13 265.68 202.28 267.69 203.93 268.62 205.73 269.87 206.61 270.88 208.44 275.68 209.35 282.48 211.81 286.33 213.06 292.98 214.49 292.43 217.38 293.44 220.24 297.24 223.81 299.39 225.59 299.95 227.68 301.84 229.33 304.8 228.13 306.82 226.2 309.3 224.44 313.44 223.41 314.3 221.48 317.09 220.23 318.17 218.21 320.4 217.35 322.04 215.3 323.6 214.24 324.24 213.01 325.31 212.84 327.51 211.23 328.35 208.24 329.63 206.94 331.87 205.99 333.7 204.06 333.8 201.81 335.21 200.09 336.41 197.87 336.12 195.82 337.47 194.63 338.56 192 340.1 189.71 345.02 188.47 345.87 187.2 346.65 184.62 348.04 182.39 346.2 180.06 346.71 177.12 351.19 174.6 353.17 169.57 354.91 166.42 356.62 162.87 358.9 160.84 358.63 157.95 358.01 155.24 358.15 152.97 357.8 151.65 358.92 150.14 359.17 148.79 360.33 147.73 359.47 145.3 360.19 144.1 360.3 141.46 362.17 140.77 365.72 138.34 369.51 139.71 371.06 139.66 371.2 137.98 370.71 136.16 370.45 131.5 371.85 130.25 373.93 130.16 374.84 130.82 376.77 130.79 379.05 129.69 381.16 129.53 383 127.28 385.85 127.19 389.29 124.2 390.5 122.05 392.57 119.46 391.99 117.35 393.15 115.82 392.31 109.11 391.56 106.59 386.91 102.53 382.56 97.41 383.93 95.08 386.43 94.18 388.62 92.48 389.66 90.64 389.18 88.47 389.94 86.38 389.79 83.78 393.57 82.24 394.69 80.36 392.31 76.13 388.66 75.54 386.7 72.35 386.24 71.6 385.92 68.34 388.6 61.15 393.96 57.67 398.63 54.1 397.37 51.39 398.1 49.73 399.65 48.61 399.78 44.6 403.69 42.46 407.02 41.92 406.88 37.5 409.29 36.06 410.78 34.38 412.57 34.44 414.05 32.67 416.13 34.43 417.84 35.34 419.23 34.6 424.03 34.3 427.33 32.43 432.25 26.62 433.6 25.51 435.04 23.44 436.64 22.99 439.21 21.78 444 23.52 446.6 25.33 449.48 25.76 451.49 27.42 457.06 27.63 457.45 25.09 457.22 19.6 458.92 17.37 460.59 17.04 460.65 14.01 458.84 8.83 458.14 8.17 458.71 7.07 462.21 4.84 463.68 8.46 464.6 8.77 466.21 11.12 468.46 11.99 470.22 13.13 471.67 12.59 475.63 9.73 477.51 8.66 479.54 9.37 482.25 8.43 482.87 5.96 486.23 2.79 486.91 1.03 489.55 1 491.28 4.34 495.2 9.12 496.51 11.71 500.22 14.29 504.38 15.48 508.78 20.01 510.46 24.78 510.83 29.88 509.18 30.8 509.35 34.89 509.74 36.44 509.13 37.87 509.38 41.31 509.94 43.73 509.74 45.64 510.38 48.64 509.63 50.56 508.19 52.58 506.76 53.97 501.89 56.29 500.01 56.69 500.09 65.43 499.22 67 498.11 67.02 496.94 68.67 496.43 71.39 492.75 73.25 489.1 74.52 488.86 76.94 489.89 79.96 491.47 82.24 493.79 92.34 494.5 93.95 494.44 95.29 491.82 97.85 493.19 101.13 496.56 104.26 498.14 106.84 499.47 110.02 499.59 112.08 Z" id="37012350"/>
<path d="M 369.87 265.59 371.39 267.88 373.56 268.58 376.21 270.6 377.33 270.46 380.52 272.49 384.55 275.9 387.24 278.58 389.65 280.08 391.93 283.06 394.26 285.53 394.64 292.06 392.13 295.28 391.79 297.31 389.01 301.3 388.5 304.58 386.03 305.62 385.58 308.08 383.23 313.95 381.9 313.85 381.02 314.79 380.68 316.76 381.62 317.56 382.94 321.41 383.14 323.13 382.42 325.28 383.4 330.29 385.68 335.18 386.26 337.32 384.43 338.87 383.68 340.91 381.26 341.99 380.51 343.25 382.48 347.98 382.56 349.93 383.83 352.77 386.64 355.01 387.57 357.47 387.28 361.72 387.98 362.28 387.69 363.8 390.46 367.08 390.84 369.01 390.48 369.82 391.99 372.94 393.79 373.61 394.8 375.05 398.84 376.21 399.28 377.6 401.64 381.14 401.24 385.88 401.41 389.53 400.65 392.18 397.76 396.56 390.88 396.82 389.89 396.26 386.22 397.56 384.58 397.24 383.58 397.55 382.81 399.34 380.9 402.13 376.87 403.53 372.28 406.59 371.25 406.47 367.44 408.63 365.67 407.61 362.29 406.74 359.67 407.5 358.93 408.1 358.91 409.38 360.67 414.34 360.77 416.09 360.2 417.14 359.27 420.27 357.79 420.9 356.36 422.58 354.92 423.38 354.43 424.38 354.8 425.56 354.87 428.49 354.05 429.03 353.48 430.5 350.68 431.24 347.26 431.1 343.62 433.46 342.33 437.43 341.09 437.82 340.1 438.97 336.78 439.66 334.27 443.1 332.71 443.29 329.59 445.43 328.4 445.63 328.14 447.65 328.89 451.13 329.19 454.31 329.67 455.52 329.28 459.02 330.3 462.76 330.42 465.21 329.5 466.07 328.32 468.37 328.02 470.19 328.81 472.1 327.08 474.74 326.75 476.72 325.63 477.74 322.88 476.7 320.6 476.72 319.34 477.09 318.03 476.47 315.39 479.23 313.87 478.72 311.92 475.93 308.8 476.15 307.18 477.87 303.75 478.15 303.31 479.52 301.05 481.27 300.82 482.01 297.99 480.9 294.52 481.5 292.71 480.5 291.72 479.32 288.85 479.47 286.41 481.07 284.9 481.17 283.96 482.46 281.12 484.98 277.67 485.66 275.9 483.12 275.57 481.01 273.76 478.19 273.51 476.54 271.74 474.67 270.76 474.72 271.84 472.5 270.6 471.69 270.25 470.61 267.97 468.91 265.39 467.89 263.29 466.17 260.47 462.56 258.66 461.13 261.26 455.46 260.97 453.31 261.26 451.46 262.31 450.23 263.33 446.37 261.79 444.78 260.48 443.99 260.05 441.71 257.59 438.19 256.32 435.16 252.44 432.69 251.88 429.33 251.02 426.46 251.71 425.1 252.94 421.32 251.21 418.13 251.3 416.67 252.54 412.03 252.29 410.98 253.16 407.92 251.93 406.32 252.06 403.83 255.14 399.5 255.62 397.52 256.51 396.35 257.31 393.45 257.11 389.88 256.38 387.38 256.57 385.5 260.51 382.52 263.7 380.4 264.41 378.18 263.3 375.03 266.92 371.73 268.2 370.21 266.51 365.41 270.53 359.29 270.82 358.19 273.72 356.46 277.33 356.59 279.89 355.02 281.85 354.33 283.02 352.68 286.43 354.13 289.22 353.54 291.08 354.65 294.8 354.66 295.49 356.22 296.88 356.97 300.94 352.54 301.59 349.67 301.69 347.96 302.83 346.02 304.3 341.7 308.42 335.26 311.71 333.59 312.61 327.4 315.14 326.31 318.9 322.36 322.59 322.54 324.75 320.9 325.92 319.36 329.83 317.75 330.94 314.66 333.34 312.93 333.33 311.13 334.8 310.27 335.34 308.32 332.18 305.87 330.23 301.81 330.65 300.21 329.82 298.39 329.09 295.7 325.56 291.25 325.39 289.64 326.17 288.3 328.85 288.43 331.52 288.09 332.42 285.35 333.24 284.55 336.54 282.94 338.98 281.26 339.04 278.73 339.4 277.48 342.25 274.6 343.18 274.21 344.56 272.73 346.44 271.71 348.08 269.78 349.51 267.3 350.31 267.57 351.76 266.98 355.09 262.58 356.63 262.31 358.97 262.62 360.77 264.03 363.83 265.87 368.33 267.17 369.87 265.59 Z" id="37012360"/>
<path d="M 614.81 635.85 608.01 646.99 607 648.1 604.49 646.49 604.97 644.75 604.76 642.84 606.03 640.91 605.91 638.42 604.06 637.47 603.01 636.18 603.18 633.58 601.32 631.85 600.82 630.01 601.02 628.87 600.24 628.07 598.41 627.51 597.51 625.96 595.53 624.31 595.92 623.61 592.52 623.75 590.9 619.85 592.46 619.79 593.05 619 592.56 616.88 591.79 616.06 589.04 615.18 588.03 612.64 587.87 610.54 587.04 608.78 587.08 605.58 584.49 604.17 584.19 602.42 582.92 601.41 579.35 600.06 578.98 599.36 580.17 595.74 582.49 595.58 583.79 594.04 583.51 592.75 585.29 591.59 587.26 593.4 588.43 595.91 590.13 596.11 591.43 597.45 593.25 598.02 594.45 602.26 595.36 603.49 596.83 608.86 598.53 609.81 599.82 613.4 601.99 613.34 602.48 612.16 605.54 612.57 607.52 613.46 610.05 615.53 610.25 616.72 613.48 617.54 613.55 618.87 615.94 622.11 615.53 623.54 616.01 625.57 614.41 628.02 614.52 630.51 613.74 631.48 615.82 632.44 613.74 635.2 614.81 635.85 Z" id="37012580"/>
<path d="M 628.24 589.38 627.76 593.87 628.78 595.03 630.78 595.68 630.67 597.91 630.05 599.14 628.54 599.93 628.33 602.32 626.24 604.94 626.65 607.62 625.67 610.93 627.09 614.39 627.07 615.93 628.13 616.64 627.18 617.89 626.79 621.29 624.15 624.7 622.38 627.88 622.32 628.83 617.19 637.31 614.81 635.85 613.74 635.2 615.82 632.44 613.74 631.48 614.52 630.51 614.41 628.02 616.01 625.57 615.53 623.54 615.94 622.11 613.55 618.87 613.48 617.54 610.25 616.72 610.05 615.53 607.52 613.46 605.54 612.57 602.48 612.16 601.99 613.34 599.82 613.4 598.53 609.81 596.83 608.86 595.36 603.49 594.45 602.26 593.25 598.02 591.43 597.45 590.13 596.11 588.43 595.91 587.26 593.4 585.29 591.59 586.29 591.28 586.94 586.41 587.83 586.28 588.6 583.35 588.21 581.52 589.35 579.78 591.18 577.84 591.14 575.62 591.68 574.19 593.22 572.41 595.58 573.51 597.35 575.73 599.17 576.5 600.23 577.61 600.3 578.61 602.39 580.47 606.01 580.02 607.62 581.75 609.72 581.23 610.86 581.86 611.11 582.87 612.83 584.09 614.23 582.92 615.38 583.69 615.57 585.66 617.42 587.05 618.46 586.31 619.78 586.44 621.23 587.49 622.75 586.18 623.85 586.48 624.3 587.76 625.79 589.29 626.99 588.69 628.24 589.38 Z" id="37012610"/>
<path d="M 646.53 543.03 646 545.48 645.13 552.08 644.1 556.14 643.28 560.63 643.02 563.55 641.53 565.37 639.18 567.33 640.15 569.88 638.69 571.08 637.52 572.69 637.55 574.95 635.58 575.81 635.16 577.37 633.97 579.06 632.48 579.83 632.27 578.44 630.94 578.94 630.77 580.7 631.43 584.03 631.13 585.43 628.24 589.38 626.99 588.69 625.79 589.29 624.3 587.76 623.85 586.48 622.75 586.18 621.23 587.49 619.78 586.44 618.46 586.31 617.42 587.05 615.57 585.66 615.38 583.69 614.23 582.92 612.83 584.09 611.11 582.87 610.86 581.86 609.72 581.23 607.62 581.75 606.01 580.02 602.39 580.47 600.3 578.61 600.23 577.61 599.17 576.5 597.35 575.73 595.58 573.51 597 571.15 596.66 569.97 597.79 568.67 596.69 566.74 596.87 564.93 598.02 564.34 598.17 561.56 597.88 559.61 599.27 557.73 599.89 556.02 599.84 553.72 601.08 552.92 602.38 553.61 602.97 551.08 603.84 549.08 602.31 548.8 601.23 545.87 601.6 544.54 600.84 543.03 602.12 540.8 603.18 540.07 604.68 541.1 606.95 540.46 608.98 540.56 609.86 538.55 608.75 536.86 610.03 534.83 613.4 534.34 615.06 532.75 613.58 531.28 612.78 529.38 613.58 528.01 616.25 525.23 618.26 523.75 619.95 525.33 620.4 525.03 621.44 522.32 624.45 519.56 626.22 520.33 627.58 520.02 629.68 521.03 629.7 522.07 628.84 523.44 630.48 525.09 630.51 527.36 631.76 528.04 630.96 529.78 630.78 531.25 631.13 533.73 633.66 535.07 634.03 536.07 633.57 537.61 636.98 539.8 638.37 537.67 639.55 539.45 638.33 539.71 638.7 541.89 646.53 543.03 Z" id="37012630"/>
</g>
</svg>