<?xml version="1.0"?>
<svg xmlns="http://www.w3.org/2000/svg" version="1.2" baseProfile="tiny" width="800" height="794" viewBox="0 0 800 794" stroke-linecap="round" stroke-linejoin="round">
<g id="dong">
<path d="M 703.39 410.98 703.52 412.49 704.56 413.92 701.78 415.63 700.34 416.94 701.37 418.96 700.91 419.27 700.17 424.02 700.42 425.46 701.45 425.25 703.19 429.48 702.97 430.57 703.32 432.02 701.85 433.59 701.38 435.01 700.15 436.89 701.37 438.9 701.12 439.99 702.6 444.83 702.45 445.45 701.19 446.24 701.23 448.99 703.17 451.16 703.75 452.7 703.22 453.33 704.31 454.77 703.39 456.8 703.1 459.26 703.23 460.25 702.23 460.78 702.42 461.89 701.41 462.81 698.73 463.73 698.14 464.35 696.8 464.61 694.9 467.33 697.04 467.86 697.49 469.86 697.05 470.81 697.56 472.83 697.06 473.19 696.7 476.27 696.85 477.75 698.05 479.29 698.58 480.76 698.45 481.97 696.98 483.17 696.18 484.59 695.18 484.92 694.63 486.11 692.38 485.29 690.88 487.07 690.73 488.73 688.06 491.62 687.53 493.11 687.52 494.51 686.27 496.83 686.53 497.38 688.13 497.93 689.55 499.11 689.95 500.38 691.43 501.04 691.96 502.99 694.13 504.24 694.45 506.01 695.9 507.08 695.38 508.46 695.51 509.6 696.94 510.6 697.23 512.76 696.61 514.2 699.07 515.08 700.09 516.15 700.94 515.77 701.81 516.26 703.88 519.78 703.58 521.42 703.82 523.79 705.22 523.63 706.58 525.06 706.74 527.27 707.62 527.91 708.5 530.21 710.12 531.74 712.13 531.77 712.61 533.52 713.74 534.17 714.17 537.01 716.45 538.46 716.46 540.17 717.33 541.7 719.09 542.78 720.38 542.71 721.37 543.66 722.49 543.67 722.55 546.62 721.39 547.56 722.84 548.66 724.04 550.55 723.49 552.34 724.15 553.95 723.78 554.69 723.51 557.18 723.62 559.37 724.73 560.31 725.37 562.59 725.17 566.1 726.93 566.71 728.91 569.25 732.36 571.46 733.61 573.21 734.66 573.98 736.03 576.19 737.62 576.64 737.97 579.62 740.24 581.16 741.97 581.17 742.44 583.17 743.4 584.2 744.03 585.73 745.15 586.73 746.11 590.35 743.28 592.12 744.25 593.13 744.99 594.76 746.43 595.35 749.78 595.25 749.8 598.03 750.8 602.87 751.55 604.66 751.5 606.82 752.62 611.44 752.62 612.29 753.34 615.63 753.52 618.1 754.27 619.46 753.85 620.17 750.07 633.43 749.02 634 746.84 634.05 746.42 633.19 743.29 633 743.22 633.72 740.1 633.24 737.87 633.71 738.56 635.15 736.1 635.26 733.47 636.59 732.98 637.77 728.42 638.32 728.06 638.64 724.23 638.07 723.14 639.42 722.42 639.22 721.47 638.03 720.98 636.2 719.32 634.96 717.63 633.27 715.97 632.21 715.01 630.56 715 629.44 713.7 627.11 713.54 624.92 712.47 623.69 712.13 622.26 711.18 621.47 711.33 620.22 710.28 618.82 711.45 617.27 712.61 617.07 713.67 612.8 713.33 611.62 711.17 610.76 708.33 610.56 706.07 611.33 705.11 609.84 703.65 609.03 701.37 609 698.61 610 697.57 609.95 693.8 607.67 690.5 608.28 691.76 605.36 691.31 603.67 691.66 601.54 689.37 599 689.02 597.83 689.27 596 688.66 595.57 688.14 592.49 686.41 586.61 686.85 584.96 685.69 584.05 685.96 582.92 684.19 583.41 680.79 583.35 680.05 581.89 679.96 580.65 678.04 577.08 675.74 577.14 673.14 578.87 673.65 580.82 673.26 581.79 672.05 582.8 671.26 584.71 671.44 587.52 669.3 587.89 666.7 586.9 665.27 588.05 664.11 589.61 663.96 590.46 662.42 591.39 661.85 592.54 660.18 593.68 660.18 595.85 656.92 596.64 655.45 596.35 652.69 598.25 648.64 599.88 646.6 598.8 645.91 597.2 645.15 596.79 642.09 597.14 641.53 596.05 640.29 595.59 639.34 594.52 637.55 593.73 636.29 590.66 634.37 591.86 633 592.38 630.41 591.69 629.72 590.84 626.62 590.98 624.44 591.66 621.54 590.6 619.81 590.66 619.49 590.01 617.12 588.89 616.22 588.81 614.22 589.61 612.1 588.39 610.7 586.57 609.23 585.82 605.36 582.4 604.65 582.4 603.28 580.37 603.73 578.3 600.53 576.04 596.74 574.87 592.63 575.78 590.56 578.29 590.09 580.44 589.2 581.14 587.89 581.05 586.15 582.42 584.28 583 583.37 585.89 582.83 586.41 583.24 588.22 583.24 590.46 582.1 590.16 581.23 594.12 578.56 591.47 575.89 589.46 574.64 587.07 572.38 586.31 569.77 586.24 569.34 584.16 567.09 581.68 566.74 580.56 565.24 578.02 563.52 577.14 560.08 576.78 560.6 575.5 559.83 574.53 561.23 571.28 561.51 568.41 560.1 563.52 560.24 561.24 559.1 559.83 557.96 559.04 557.21 559.3 557.01 557.79 557.74 556.4 558.45 556.28 558.79 555.02 558.63 553.5 557.85 553.2 556.09 549.44 559.24 546.54 559 545.96 559.7 544.21 559 543.75 558.56 541.57 558.98 540.7 558.07 539.31 558.4 537.83 559.25 536.99 558.75 535.07 558.9 533.76 560.57 532.37 560.04 531.41 557.15 531.23 555.96 531.6 555.19 531.26 555.1 529.53 553.96 526.5 553.73 524.31 554.24 523.49 553.83 521.7 554.64 520.56 554.42 518.09 553.63 517.02 552.36 514.5 551.98 511.59 552.17 510.9 553.94 510.98 554.31 510.12 556.07 508.88 557.21 509.04 557.45 507.92 559.17 507.23 557.23 504.96 555.73 505.1 551.52 504.12 550.08 504.48 548.68 504.23 548.41 503.54 548.28 500.69 547.77 498.38 545.83 496.49 545.88 495.16 546.59 493.22 549.42 492.57 550.75 492.84 557.27 493.48 559.47 493.47 563.07 492.83 563.55 492.02 562.06 489.17 562.81 483 563.16 481.56 562.95 480.4 563.97 478.67 565.16 478.44 566.4 477.26 569.68 475.41 571.77 472.99 573.03 472.44 576.42 471.63 577.1 469.83 578.74 468.68 578.75 466.79 579.58 464.35 580.32 463.63 580.59 462.48 581.81 461.21 581.85 459.87 584.01 453.85 583.55 452.1 583.91 451.69 584.41 449.39 586.34 447.93 587.83 447.62 591.16 445.47 591.67 442.34 592.39 442.05 592.44 440.54 591.76 439.39 591.45 437.02 588.7 435.41 586.09 435.68 584.85 435.39 585.51 431.39 583.72 428.87 583.89 426.46 583.13 424.46 583.32 422.47 581.45 419.85 580.24 417.04 581.25 415.06 580.98 413.81 581.2 412.48 582.45 412.52 583 411.57 586.01 411.26 584.67 409.71 582.25 407.97 581.11 405.06 582.06 402.95 582.74 399.44 582.15 398.5 582.29 396.84 583.71 394.9 586.45 395.12 587.78 392.92 586.89 392.27 586.58 390.95 587.25 389.12 586.45 386.3 586.26 384.62 590.39 382.5 592.19 382.12 594.36 383.33 595.41 384.22 597.57 384.74 598.77 385.47 600.32 384.73 600.59 384.02 603.23 384.51 604.48 384.44 605.34 385.61 606.69 385.64 607.81 384.28 609.95 384.12 609.85 385.22 611.38 385.67 612.29 387.43 611.82 389.66 613.1 390.88 613.78 393.02 613.25 395.12 614.79 395.75 617.92 394.86 617.89 394.15 619.77 392.36 620.96 393.34 622.51 393.28 623.59 394.05 625.08 394.24 626.84 392.36 629.66 392.78 630.47 392.56 632.75 393.05 634.47 389.58 635.96 388.45 637.66 386.5 637.56 384.65 636.19 383.63 637.16 382.12 637.06 380.08 636.58 379.28 637.2 378.29 638.38 377.62 636.81 376.66 636.37 374.69 636.41 373.09 636.93 371.89 637.06 370.26 638.5 368.98 639.52 366.65 640.45 366.36 640.88 363.34 642.16 362.25 643.21 359.71 645.07 358.74 645.82 357.93 647.97 357.3 650.79 358.21 652.74 356.66 652.35 353.19 652 352.01 650.88 351.86 651.31 350.11 650.46 349.87 650.46 348.83 651.4 348.36 652.29 345.7 653.43 346.32 655.55 345.65 656.32 345.85 658.18 345.22 659.22 346.22 661.27 346.45 662.39 347.72 662.39 349.7 664.38 349.97 665.3 351.61 668.07 352.73 670.04 352.79 671.18 353.13 671.68 352.39 672.62 352.62 674.06 354.08 674.99 353.93 675.78 355.23 676.61 358.81 675.76 361.1 677.67 363.5 679.11 364.63 680.24 366.58 680.29 368.82 681.3 372.27 683.39 373.43 684.91 375.22 688.12 375.68 689.5 377.37 689.9 378.48 688.23 381.01 688.22 382.7 689.13 383.91 690.07 386.2 689.43 389.61 690.97 390.74 691.17 392.02 693.47 391.13 694.03 391.96 692.57 396.48 693.32 398.37 693.27 400.51 693.89 401.34 694.45 403.77 695.88 405.53 695.56 406.99 696.73 407.03 699.19 409.27 700.72 409.39 702.26 410.58 703.39 410.98 Z" id="37020390"/>
<path d="M 794.07 417.56 795.12 417.53 796.9 421.19 797.71 423.3 799 424.87 797.47 425.86 796.45 425.73 795.3 426.54 794.6 427.92 792.97 428.97 792.4 430.2 790.64 432.1 789.45 436.03 789.26 437.83 788.13 438.9 787.59 440.26 787.86 442.03 787.2 442.25 786.18 444.06 784.78 445 784.35 446.15 784.47 447.72 783.61 449.31 783.67 452.15 784.35 454.99 785.19 456.93 786.61 458.67 788.62 462.22 789.84 462.57 790.56 463.65 789.07 465.29 787.84 465.47 786.85 466.64 785.8 468.67 785.96 469.76 785.1 471.54 785.32 473.19 785.85 473.7 785.8 475.1 786.82 477.41 788.92 477.36 788.91 478.23 788.17 479.84 787.03 481.02 785.86 480.19 784.51 481.34 783.04 483.93 782.32 483.52 784.01 481.23 783.75 480.11 779.44 477.21 778.43 477.26 775.71 479.66 774.61 482.65 775.16 484.66 777.72 484.96 780.29 482.07 780.76 482.54 779.44 484 778.83 485.19 778.89 486.33 782.84 485.87 782.99 486.55 778.92 486.84 778.72 487.69 777.55 489.18 776.92 490.61 776.03 491.28 774.42 490.8 771.8 490.73 770.53 491.79 769.76 493.58 769.63 495.39 770.06 497.82 771.13 499.56 771.62 502.82 773.02 504.38 772 505.25 769.76 506.08 768.45 507.66 768.55 508.97 767.84 509.79 765.15 508.55 762.98 508.52 761.8 509.64 761.95 511.9 760.52 512.4 759.63 513.69 759.1 515.2 758.99 517.05 759.31 519.17 759.17 521.38 759.56 524.03 760.12 526.04 761.86 530.55 762.54 531.39 763.14 533.66 764.76 535.75 764.28 536.92 764.97 538.48 765.71 539.11 766.97 541.07 767.6 543.5 763.81 546.74 763.53 547.77 763.46 550.53 764.31 552.13 763.63 554.2 764.13 555.48 765.21 556.43 763.96 557.52 764.16 560.33 764.5 561.53 763.47 566.61 763.04 566.23 763.85 563.16 761.07 564.85 761.2 565.45 760.14 566.56 759.89 568.05 760.28 569.59 760.53 572.83 761.36 575.03 763.46 576.56 764.99 579 763.09 579.37 760.53 581.47 759.83 582.86 760.06 583.76 758.86 584.32 757.98 585.47 757.16 585.4 756.04 586.67 755.75 588.26 754.24 589.06 753.62 590.43 752.02 591.87 750.85 593.8 750.24 593.93 749.78 595.25 746.43 595.35 744.99 594.76 744.25 593.13 743.28 592.12 746.11 590.35 745.15 586.73 744.03 585.73 743.4 584.2 742.44 583.17 741.97 581.17 740.24 581.16 737.97 579.62 737.62 576.64 736.03 576.19 734.66 573.98 733.61 573.21 732.36 571.46 728.91 569.25 726.93 566.71 725.17 566.1 725.37 562.59 724.73 560.31 723.62 559.37 723.51 557.18 723.78 554.69 724.15 553.95 723.49 552.34 724.04 550.55 722.84 548.66 721.39 547.56 722.55 546.62 722.49 543.67 721.37 543.66 720.38 542.71 719.09 542.78 717.33 541.7 716.46 540.17 716.45 538.46 714.17 537.01 713.74 534.17 712.61 533.52 712.13 531.77 710.12 531.74 708.5 530.21 707.62 527.91 706.74 527.27 706.58 525.06 705.22 523.63 703.82 523.79 703.58 521.42 703.88 519.78 701.81 516.26 700.94 515.77 700.09 516.15 699.07 515.08 696.61 514.2 697.23 512.76 696.94 510.6 695.51 509.6 695.38 508.46 695.9 507.08 694.45 506.01 694.13 504.24 691.96 502.99 691.43 501.04 689.95 500.38 689.55 499.11 688.13 497.93 686.53 497.38 686.27 496.83 687.52 494.51 687.53 493.11 688.06 491.62 690.73 488.73 690.88 487.07 692.38 485.29 694.63 486.11 695.18 484.92 696.18 484.59 696.98 483.17 698.45 481.97 698.58 480.76 698.05 479.29 696.85 477.75 696.7 476.27 697.06 473.19 697.56 472.83 697.05 470.81 697.49 469.86 697.04 467.86 694.9 467.33 696.8 464.61 698.14 464.35 698.73 463.73 701.41 462.81 702.42 461.89 702.23 460.78 703.23 460.25 703.1 459.26 703.39 456.8 704.31 454.77 703.22 453.33 703.75 452.7 703.17 451.16 701.23 448.99 701.19 446.24 702.45 445.45 702.6 444.83 701.12 439.99 701.37 438.9 700.15 436.89 701.38 435.01 701.85 433.59 703.32 432.02 702.97 430.57 703.19 429.48 701.45 425.25 700.42 425.46 700.17 424.02 700.91 419.27 701.37 418.96 700.34 416.94 701.78 415.63 704.56 413.92 703.52 412.49 703.39 410.98 704.32 410.46 706.96 410.68 708.21 410.47 709.71 408.48 711.58 406.52 713.29 406.89 715.35 406.91 717.5 407.27 718.36 406.2 719.29 406.33 721.75 402.67 722.33 402.6 724.47 404.53 725.33 404.84 727.32 404.72 728.11 405.05 730.02 404.14 731.36 404.58 732.38 404.4 733.81 402.89 734.13 402.13 736.44 401.14 737.54 399.65 739.71 398.78 741.83 401.65 744 402.71 745.68 404.03 746.53 405.67 748.16 407.58 748.46 408.73 750.54 412.27 752.51 413.56 752.93 414.47 754.43 415.83 756.69 416.22 757.55 416.75 759.86 416.25 762.74 418.95 765.27 418.63 765.99 420.16 767.26 421.15 769.51 421.76 770.57 421.55 772 420.22 774.8 421.21 775.81 420.84 777.14 421.2 778.14 422.75 780.14 423.1 780.43 424.24 783.33 423.42 785.64 423.06 786.97 421.75 789.33 421.09 791.24 419.73 793.24 417.95 794.07 417.56 Z" id="37020110"/>
<path d="M 380.02 49.82 380.58 51.82 378.89 54.62 378.83 56.13 377.53 59.22 376.73 60.52 376.93 61.85 375.93 64.05 376.56 67.81 376.3 69.43 378.47 73.87 378.58 77.5 378.28 78.87 378.66 82 379.32 82.51 379.81 84.99 381.04 88.13 382.66 89.68 382.58 90.82 380.61 96.44 382.42 110.59 383.42 110.93 383.56 112.2 381.83 116.56 381.56 122.46 379.65 124.75 379.55 131.32 378.16 131.67 376.31 130.89 375.56 130.24 374.37 130.19 374.16 134.09 374.51 138.33 377.85 138.05 378.81 148.73 387.96 147.98 388.5 147.84 391.78 149.94 393.14 157.6 393.7 158.58 393.58 160 393.05 160.77 392.59 163.69 389.48 163.1 387.28 163.46 384.76 163.03 382.98 173.9 383.99 176.41 385.15 176.06 385.37 174.68 386.24 173.16 388.13 174.94 388.15 176.09 387.3 178.73 385.77 180.19 385.15 182.2 385.79 183.35 384.1 185.94 383.16 187.84 381.01 190.57 380.08 192.47 379.54 194.5 379.15 199.49 379.57 202.23 380.35 205.37 380.27 207.25 381.1 209.5 382.1 210.59 382.59 211.77 381.18 216.18 380.7 218.34 380.59 222.24 380.66 227.02 380.93 229.74 381.77 232.13 384.07 237.19 383.35 238.31 382.61 240.57 384.34 245.35 385.84 250.4 386.76 252.28 387.95 253.98 389.18 256.78 388.85 259.79 387.67 263.26 384.73 264.59 381.36 263.88 376.66 265.02 375.79 265.66 374.75 268.81 374.65 271.31 375.74 276.39 376.94 277.52 379.92 282.77 381.54 286.94 385.23 288.7 387.57 291.97 388.05 295.5 387.63 301.96 386.6 308.43 386.42 310.62 385.68 310.64 384.03 314.94 382.59 313.1 382.12 311.36 381.95 308.33 382.5 306.62 382.19 303.19 381.87 302.42 380.52 304.53 380.02 306.31 379.05 307.97 377.6 309.39 375.14 310.93 373.28 310.74 371.72 312.95 369.24 315.62 366.01 314.25 364.5 312.39 361.25 311.76 360.52 310.75 360.11 307.7 358.65 307.14 356.68 307.12 354.93 306.41 352.29 307.14 347.4 303.17 344.61 303.17 342.62 301.99 342.21 300.91 338.6 301.37 337.32 301.18 336.3 300.01 333.82 300.32 331.93 300.16 329.99 299.25 326.07 300 324.3 300.75 323.36 301.95 320.26 304.68 319.42 303.46 318.51 300.87 316.25 298.57 314.5 295.25 310.85 294.04 308.75 290.94 308.96 290.45 307.31 287.32 304.79 284.86 300.93 282.82 299.76 280.9 297.85 280.58 296.3 280.83 295.07 280.49 294.48 280.9 293.34 280.36 289.97 280.12 287.27 281.37 286.52 279.96 284.27 279.23 284.11 278.64 281.47 277.51 280.3 276.76 279.69 275.68 277.16 274.76 275.99 272.58 274.1 270.6 273.03 269.86 272.72 268.6 271.56 270.84 270.38 270.45 265.67 267.99 263.66 268.48 261.3 272.79 259.91 273.82 258.67 271.81 258.58 269 257.55 267.43 256.75 266.91 255.36 265.07 250.71 266.29 246.43 267.59 239.98 269.81 238.99 270.58 237.11 271.34 234.08 270.49 235.21 267.85 234.04 264.93 230.92 258.45 229.53 256.67 225.47 255.04 225.61 251.4 226.5 249.88 226.79 248.54 225.07 247.63 223.4 246.24 224 243.11 223.99 241.26 222.66 239.06 220.87 237.81 218.97 237.1 217.78 236.33 217.27 234.18 215.77 232.58 215.33 231.29 215.45 229.19 213.43 228.63 212.75 228.15 212.39 226.37 211.23 223.78 207.81 220.43 205.03 217.08 205.99 214.11 206.69 212.74 206.71 209.71 207.51 208.4 208.52 203.55 206.26 202 205.23 199.86 205.69 198.02 206.77 197.39 207.21 193.93 206.31 192.44 206.27 191.23 207.08 189.62 205.56 186.87 206.32 184.64 206.09 180.7 205.51 177.35 205.66 174.6 200.89 168.2 200.46 165.79 200.23 162.16 200.63 161.3 199.52 159.02 198.09 158.18 197.76 157.18 196.68 155.74 196.22 153.88 197.01 151.41 199.48 147.5 199.25 146.47 198.24 145.3 197.13 144.64 197.21 141.79 195.77 139.6 195.82 137.66 196.58 136.45 197.3 131.85 201.03 124.55 203.74 124.52 203.86 126.36 205.24 128.77 206.69 130.81 208.14 131.44 208.68 132.81 211.78 135.73 213.72 137.11 215.53 137.28 218.58 138.77 220.92 137.85 223.64 138.01 228.09 137.45 230.1 136.27 230.58 136.81 232.85 133.59 233.36 133.12 236.37 132.6 240.59 130.06 243.69 129.18 243.86 127.81 244.99 126.15 243.78 123.4 242.95 118.62 242.38 116.81 241.78 113.03 240.85 112.29 240.64 110.66 240.85 108.06 240.3 107.48 239 104.08 238.74 102.61 236.69 99.54 236.21 98.35 234.22 96.95 233.51 94.05 233.61 93.09 230.65 89.95 230.13 88.47 228.49 86.59 229.56 86.04 229.28 82.8 232.78 83.09 233.24 79.95 234.87 75.97 236.99 74.12 239.42 75.26 241.54 73.17 244.4 69.13 245.61 66.96 246.85 63.97 247.12 59.13 252.11 56.53 251.46 53.6 252.22 49.45 252.53 49.48 257.44 49.97 267.21 48.89 271.95 48.47 273.27 49.85 275.3 50.72 279.77 51.58 280.61 53.91 280.2 56.36 280.53 59.4 282.77 59.27 283.31 59.79 285.74 60.87 289.16 61.29 290.6 64.55 290.55 66.07 289.57 68.92 288.44 71.32 292.1 73.76 292.67 85.34 289.94 88.82 289.98 91.04 292.23 95.23 292.99 97.6 297.08 97.31 300 94.91 300.96 94.66 308.3 88.49 309.01 86.3 310.66 84.18 315.38 80.6 320.19 73.44 325.45 72.37 329.32 68.4 335.27 69.08 336.86 68.86 349.85 68.77 354.31 67.57 358.19 66.87 360 64.89 360.98 62.27 362.06 60.63 363.28 59.34 366.56 59.29 367.19 57.83 369.62 56.14 371.38 56.89 373.88 56.66 374.94 53.94 375.93 52.31 378.93 50.96 380.02 49.82 Z" id="37020120"/>
<path d="M 239.31 387.59 237.4 388.55 238.01 391.3 237.21 397.22 236.43 399.1 235.93 403.24 233.8 404.86 232.34 407.03 233.21 409.1 232.48 411.55 231.48 412.66 231.43 414.57 230.59 415.52 230.34 417.43 230.77 418.2 232.13 419.07 231.14 420.13 231.2 421.17 229.72 422.65 229.9 424.15 231.2 425.65 232.03 428.05 233.16 430.58 235.15 431.1 237.06 432.72 237.21 434.57 234.46 438.42 233.86 439.66 234.97 442.75 234.72 443.47 232.58 444.99 231.8 444.99 230.85 444.15 229.3 443.99 227.78 443.16 226.83 443.79 228.21 445.88 228.95 449.01 229.99 450.66 232.75 453.26 234.37 453.92 238.46 455.99 240.58 457.86 242.09 463.93 242.14 466.17 242.75 467.84 243.74 468.74 245.54 468.38 246.86 467.52 249.6 466.87 249.9 467.67 249.71 470.3 250.45 473.58 251.57 474.67 253.62 475.16 253.92 476.16 253.65 478.06 253.95 479.43 255.04 479.27 256.5 478.05 257.1 478.91 258 478.91 265.45 481.92 269.69 482.95 271.45 482.61 273.28 484.63 275.72 486.56 277.2 487.44 273.25 491.88 273.87 493.25 275.26 493.9 274.14 499.12 275.99 502.33 278.46 505.18 280.87 506.45 280.48 509.2 278.93 509.12 278.08 509.89 276.78 512.2 275.64 512.91 275.07 514.23 273.24 517 274.24 520.78 274.15 521.89 272.76 523.12 271.95 524.32 270.7 525.39 269.61 527.31 268.99 529.63 267.08 530.75 266.83 531.27 265.02 531.61 262.47 533.8 261.91 533.94 261.7 535.95 260.56 536.86 258.86 539.24 257.3 544.1 257.6 544.99 257.11 547.04 255.25 550.61 248.98 550.09 248.29 549.88 245.46 550.24 241.07 552.15 240.07 552.92 237.84 553.47 237.88 554.44 239.24 557.12 239.44 559.2 240.66 561.54 241.96 562.58 241.23 565.28 240.08 567.37 239.78 569.06 238.42 570.04 234.7 567.99 234.47 567.12 230.41 565.03 228.96 564.98 228.12 564 225.7 564.19 224.79 564.02 220.51 562.34 219.08 561.43 217.35 561.1 216.26 559.57 214.45 558.3 213.93 557.45 213.07 557.86 212.17 556.05 211.2 556.18 207.53 553.33 206.68 552.09 205.76 551.91 204.57 549.42 201.42 543.5 201.91 541.54 201.7 536.68 200.28 534.17 198.25 533.27 195.66 532.43 192.45 532.69 188.87 530.12 186.08 529.83 183.59 528.08 178.94 527.04 177.3 527.39 176.8 526.01 175.77 524.79 175.06 520.99 174.1 518.68 171.77 516.88 170.34 518.94 169.19 522.2 168.3 522.65 167.57 523.85 166.18 525.13 164.85 527.43 163.4 527.21 162.17 525.72 159.94 524.29 158.06 524.3 155.35 525.53 151.6 526.12 149.65 525.18 146.48 522.62 145.25 520.78 144.2 520.73 139.97 519.79 134.23 517.06 134.2 514.22 133.08 510.85 134.32 509.03 133.37 505.47 131.94 501.79 131.74 499.45 131.21 497.4 131.51 496.87 130.77 493.86 130.05 491.92 131.37 488.05 132.04 486.88 131.69 485.07 130.08 483.74 129.26 482.16 129.95 478.66 129.87 477.47 127.89 472.7 127.73 469.52 126.82 468.82 124.77 469.38 118.12 465.62 114.86 464.71 111.55 464.23 109.16 465.1 107.09 464.93 104.67 462.95 100.81 462 100.39 459.52 102.66 458.36 104.36 454.69 104.29 453.4 103.7 451.61 103.9 449.63 104.68 446.23 104.54 444.87 105.41 442.97 105.36 440.94 102.93 439.63 102.41 436.05 100.36 434.67 99.42 434.77 97.62 433.57 97.43 432.99 98.09 432.4 98.03 430.3 98.72 429.68 98.45 428.29 99.3 427.83 100.79 427.92 101.68 426.99 103.12 426.75 103.42 425.66 103.23 423.31 105.13 422.46 106.11 422.42 107.52 423 110.92 418.26 111.15 417.68 113.7 415.07 113.75 412.39 114.83 411.98 115.84 413.05 117.49 412.18 120.06 412.31 123.5 413.95 124.11 412.45 125.78 409.62 125.13 399.08 126.09 398.06 126.32 396.95 125.31 394.06 126.15 393.03 126.45 391.65 127.56 390.02 128.94 389.62 129.66 387.03 129.62 385.42 129.99 382.68 130.74 379.14 132.38 379.65 133.6 377.67 133.77 376.82 135.17 374.91 137.17 374.55 138.32 373.53 139.77 374 140.3 372.74 142.98 371.82 143.73 373.16 145.21 373.98 146.47 373.86 150.64 377.75 154.91 381.55 155.52 380.85 155.6 379.1 156.24 377.48 155.44 376.3 154.61 375.99 154.56 374.02 155.43 373.11 155.69 370.59 156.63 369.94 158.06 367.63 159.68 368.28 162.15 367.75 165.31 368.57 167.2 368.37 168.68 369.19 169.89 369.4 170.96 367.79 172.15 367.46 172.06 363.99 172.8 362.79 175.45 363.57 177.48 363.15 177.82 360.03 179.05 359.09 178.94 357.43 180.23 356.21 179.79 354.41 180.8 353.08 182.57 351.61 184.41 350.5 183.78 348.42 182.07 347.06 180.74 344.88 181.06 342.82 180.36 341.98 179.92 339.99 179.19 338.22 179.49 337.35 180.76 337.55 181.37 336.78 183.94 336.5 185.39 335.61 187.03 333.79 187.61 331.22 190.41 332.4 193.86 331.22 193.96 329.92 195.13 329.14 195.36 327.8 193.78 326.38 194.68 324.67 195.81 323.79 197.2 323.88 197.93 321.47 199.07 321.12 198.63 319.61 198.71 317.99 198.03 315.65 196.83 313.57 196.99 311.16 198.26 307.91 199.95 309.28 201.59 311.42 203.23 317.47 204.72 318.9 206.06 319.39 206.54 320.72 206.34 322.03 206.74 323.92 208.59 324.26 208.79 325.08 210.18 326.12 211.8 326.62 213 326.13 213.86 327.53 214.19 329.21 214.95 330.85 216.42 333 218.27 333.8 219.31 335.58 221.16 336.59 222.09 338.86 223.14 342.99 228.21 343.38 230.73 343.3 233.71 346.43 234.12 349.08 236.48 352.41 236.57 353.09 238.76 357.12 238.42 360.83 236.65 366.85 239.15 374.34 240.4 375.98 240.76 379.46 239.23 381.3 237.94 383.55 239.07 384.58 239.31 387.59 Z" id="37020130"/>
<path d="M 559 543.75 559.7 544.21 559 545.96 559.24 546.54 556.09 549.44 557.85 553.2 558.63 553.5 558.79 555.02 558.45 556.28 557.74 556.4 557.01 557.79 557.21 559.3 557.96 559.04 559.1 559.83 560.24 561.24 560.1 563.52 561.51 568.41 561.23 571.28 559.83 574.53 560.6 575.5 560.08 576.78 563.52 577.14 565.24 578.02 566.74 580.56 567.09 581.68 569.34 584.16 569.77 586.24 572.38 586.31 574.64 587.07 575.89 589.46 578.56 591.47 581.23 594.12 580.3 598.56 580.49 600.72 581.06 603.89 579.64 605.92 577.97 606.93 575.98 607.12 574.19 608.71 574.13 609.46 575.62 612.05 575.29 614.03 575.78 618.1 577.33 620.55 577.16 622.52 577.69 623.06 582.72 623.62 584.63 622.62 585.25 623.73 587.38 625.01 588.65 629.2 589.82 629.92 589.57 632.08 591.32 633.91 590.27 635.98 587.82 636.67 586.2 637.96 584.2 639.16 583.9 641.06 582.63 641.54 581.23 646.28 581.19 649.15 580.52 651.14 580.24 655.81 580.74 657.51 580.42 659.91 579.71 662.86 579.82 668.03 579.67 668.65 581.07 672.08 582.39 672.64 582.72 674.78 581.44 678.81 580.07 680.07 579.23 681.96 579.96 682.81 580.15 685.41 578.78 687.64 579.04 688.71 578.53 689.64 578.25 691.58 578.67 693.01 577.6 695.41 578.2 695.85 577.81 698.75 577.04 700.38 579.22 701.86 578.89 704.6 578.51 705.18 578.6 711.12 578.24 714.01 577.88 714.5 576.56 715.07 572.75 714.72 570.83 713.9 569.64 714.21 568.24 713.91 565.83 713.89 564.58 714.15 562.52 714.07 561.93 715.16 560.33 715.31 557.15 717.1 555.59 718.18 554.55 719.83 554.36 721.17 553.49 721.52 553 722.63 551.52 724.11 549.86 724.76 547.46 728.07 545.78 729.98 544.59 730.51 543.22 731.97 541.38 732.17 539.25 732.97 536.94 733.01 534.5 731.95 533.92 733.95 533.14 735.17 533.34 736.46 532.39 737.79 532.9 739.78 532.47 740.44 530.22 739.58 528.51 741.68 529.11 742.72 526.85 744.79 527.01 748.86 528.06 748.51 529.01 749.06 528.66 751.77 527.67 752.84 525.82 751.71 522.69 753.78 519.73 752.29 518.31 753.22 517.69 753.17 515.75 754.79 515.53 755.81 513.56 756.43 512.96 755.44 513.15 753.64 511.67 752.19 509.24 751.17 508.72 751.3 506.94 753.24 505.13 751.09 503.57 749.69 501.39 749.26 500.42 749.88 498.56 752.07 498.31 753.34 497.26 753.76 496.08 755.34 493.56 754.73 491.51 755.79 490.87 761.6 491.4 763.84 491.24 765.38 489.28 765.3 488.52 766.68 490.4 768.21 489.95 769.44 490.1 771.39 489.34 771.92 486.8 772.06 485.16 773.12 483.28 772.73 481.32 774.89 481.15 777.3 480.32 777.99 480.61 780.19 478.36 779.18 477.56 778.36 475.55 777.65 473.99 777.73 473.42 777.34 471.57 774.37 471.28 772.6 469.59 771.29 466.84 770.25 464.23 768.02 461.82 767.48 460.52 765.95 458.74 767 457.31 768.91 456.57 768.8 453.57 767.16 453.03 766.1 450.97 764.73 450.71 764.17 448.86 763.79 446.37 764.78 441.39 767.56 438.66 765.14 436.17 764.49 435 763.2 427.61 761.51 426.78 761.09 426.63 759.71 424.18 756.67 423.49 753.94 420.16 751.27 419.33 745.4 418.81 740.65 419.79 740.12 421.18 737.29 421.32 736.09 423.16 733.91 424.98 732.11 425.83 729.98 425.96 727.45 427.19 721.52 427.46 717.8 425.21 716.08 425.3 715.38 423.91 712.2 423.81 710.65 428.42 706.6 428.87 705.5 428.25 702.3 429.07 698.1 429.25 696.19 428.11 692.14 425.42 689.4 424.87 685.99 423.89 683.78 422.6 682.75 420.47 679.26 419.71 679.02 422.11 675.64 422.75 672.55 425.09 669.48 425.55 668.06 427.05 666.57 428.39 662.82 428.36 660.75 430.39 661.46 435.35 660.26 436.17 655.73 434.69 655.12 434.63 651.68 434.88 651.54 430.51 645.33 428.06 644.18 428.48 642.01 428.98 641.34 430.49 640.82 432.61 638.52 432.3 636.43 432.45 633.73 431.61 631.64 430.68 630.62 430.31 629.24 430.34 627.02 429.31 625.85 429.87 621.72 428.13 619.65 427.38 618.02 426.93 616.05 427.52 612.13 428.48 611.9 429.21 612.91 432.31 612.17 434.21 612.63 435.24 612.31 435.19 610.91 435.63 609.42 436.61 607.87 436.84 606.62 438.89 603.24 439.68 602.78 441.29 603.34 442.87 602.89 446.32 603.18 447.16 602.28 448.16 600.2 451.07 599.2 451.71 598.43 453.03 598.13 453.93 597.43 453.71 595.71 452.91 594.82 453.36 593.62 454.22 593.8 455.5 591.95 458.17 590.56 456.09 588.38 455.27 586.66 454.92 582.77 454.49 582.16 454.13 580.2 454.6 577.91 453.77 576.89 454.09 576.28 455.87 575.01 456.31 573.96 457.44 573.61 458.49 571.01 461.97 570.91 463.54 570.27 464.37 570.47 466.78 569.52 467.61 568.5 467.77 567.23 470.58 568.84 473.32 568.23 476.2 568.62 479.39 567.64 479.59 565.34 481.03 564.6 480.92 562.6 481.47 561.97 481.96 559.22 483.01 559.19 484.01 559.9 487.61 560.06 490.13 559.06 493.08 558.33 494.59 558.36 496.64 556.64 496.99 555.44 498.73 553.02 498.53 551.92 499.83 550.56 498.65 549.4 498.82 548.56 500.05 546.91 500.06 545.85 499.18 544.76 499.47 543.82 503.35 542.12 504.56 540.87 505.08 541.02 508.18 539.99 509.58 539.28 511.79 539.14 514.39 539.69 518.39 538.94 520.59 539 523.69 539.38 526.58 538.68 528.72 537.46 530 537.01 532.33 537.16 533.07 536.92 535.94 537.61 536.85 536.92 537.22 535.64 539.24 534.56 541.37 533.8 543.05 534.17 545.5 533.51 548.48 532.02 550.8 531.49 551.82 531.97 552.22 533.25 551.5 534.27 551.79 535.36 551.19 536.32 552.22 537.42 553.8 536.58 554.71 536.89 555 538.4 553.72 539.57 553.07 540.67 554.22 541.24 554.54 542.88 556.56 543.34 556.71 545.55 558.76 545.56 559 543.75 Z" id="37020140"/>
<path d="M 749.02 634 749.25 636.35 746.55 638.98 746.16 639.74 746.63 640.93 744.12 641.1 743.91 642.47 746.44 641.83 746.64 642.5 744.76 642.81 744.52 647.35 745.95 650.82 748.34 653.25 748.59 653.86 748.53 659.89 747.89 659.12 747.99 653.74 747.22 653.66 743.98 650.52 742.19 651.67 740.73 653.82 741.27 654.43 744.22 656.45 743.39 656.63 742.83 659.25 744.44 658.9 745.08 659.36 741.41 660.11 738.55 659.19 737.2 660.46 736.53 661.81 735.89 664.89 735.94 668.22 736.85 672.66 737.82 674.5 740.29 677.15 740.48 678.11 739.77 679.76 739.69 681.38 740.42 683.13 739.97 684.39 742.02 686.92 742.88 688.78 743.39 691.09 742.61 691.31 742.51 689.45 741.49 686.94 739.96 685.07 738.08 687.97 738.19 688.42 741.39 690.37 739.63 691.04 739.34 691.78 739.31 694.14 738.51 696.12 739.64 697.43 737.43 699.14 737.08 700.5 735.09 704.71 735.49 707.72 733.97 708.21 733.92 709.8 733.05 709.77 731.77 710.51 730 710.01 729.64 710.76 727.99 710.95 726.48 712.06 724.59 715.02 724.14 717.15 724.09 718.89 724.44 722.52 725.52 727.19 726.81 729.51 726.23 730.3 726.5 731.4 726.11 732.54 725.3 733.12 723.87 733.25 722.05 733.92 719.73 733.33 717.71 734.67 715.79 733.33 714.74 733.41 712.33 734.46 709.84 736.69 708.36 740.2 707.6 745.2 707.4 747.6 706.95 749.03 707.09 750.57 706.68 753.08 706.1 755.21 705.45 756.06 705.52 758.5 704.16 759.96 704.25 761.27 702.6 761.21 701.28 760.44 698.64 758.27 697.65 757.21 695.37 756.3 693.23 755.1 690.67 755.18 688.7 754.18 685.99 755.47 685.25 756.07 684.71 757.73 682.71 759.34 681.76 758.93 679.71 756.01 679.73 754.25 679.2 751.91 677.68 752.08 675.26 753.44 672.82 753.97 672.3 752.01 670.72 751.25 668.87 751.23 665.68 749.53 662.41 747.51 660.44 747.17 659.57 745.98 658.56 745.49 656.58 745.45 655.89 744.38 654.12 743.08 650.85 741.23 647 739.85 645.84 739.82 644.3 740.4 642.5 740.41 641.03 741.81 636.49 741.75 635.62 741.49 635.09 740.1 633.86 738.43 631.85 734.13 630.82 733.55 629.21 733.23 627.01 733.32 625.17 732.75 621.55 732.91 620.43 731.99 619.04 732.2 615.88 731.14 610.87 729.08 610.02 729.22 607.29 728.75 606.15 728.05 604.17 727.73 602.59 728.11 598.27 729.73 595.91 730.37 593.51 730.66 590.83 731.56 590.96 729.9 589.16 726.47 587.59 725.05 584.17 724.98 583.66 724.65 582.76 721.93 581.92 720.95 579.46 720.25 578.13 718.42 578.32 715.71 577.88 714.5 578.24 714.01 578.6 711.12 578.51 705.18 578.89 704.6 579.22 701.86 577.04 700.38 577.81 698.75 578.2 695.85 577.6 695.41 578.67 693.01 578.25 691.58 578.53 689.64 579.04 688.71 578.78 687.64 580.15 685.41 579.96 682.81 579.23 681.96 580.07 680.07 581.44 678.81 582.72 674.78 582.39 672.64 581.07 672.08 579.67 668.65 579.82 668.03 579.71 662.86 580.42 659.91 580.74 657.51 580.24 655.81 580.52 651.14 581.19 649.15 581.23 646.28 582.63 641.54 583.9 641.06 584.2 639.16 586.2 637.96 587.82 636.67 590.27 635.98 591.32 633.91 589.57 632.08 589.82 629.92 588.65 629.2 587.38 625.01 585.25 623.73 584.63 622.62 582.72 623.62 577.69 623.06 577.16 622.52 577.33 620.55 575.78 618.1 575.29 614.03 575.62 612.05 574.13 609.46 574.19 608.71 575.98 607.12 577.97 606.93 579.64 605.92 581.06 603.89 580.49 600.72 580.3 598.56 581.23 594.12 582.1 590.16 583.24 590.46 583.24 588.22 582.83 586.41 583.37 585.89 584.28 583 586.15 582.42 587.89 581.05 589.2 581.14 590.09 580.44 590.56 578.29 592.63 575.78 596.74 574.87 600.53 576.04 603.73 578.3 603.28 580.37 604.65 582.4 605.36 582.4 609.23 585.82 610.7 586.57 612.1 588.39 614.22 589.61 616.22 588.81 617.12 588.89 619.49 590.01 619.81 590.66 621.54 590.6 624.44 591.66 626.62 590.98 629.72 590.84 630.41 591.69 633 592.38 634.37 591.86 636.29 590.66 637.55 593.73 639.34 594.52 640.29 595.59 641.53 596.05 642.09 597.14 645.15 596.79 645.91 597.2 646.6 598.8 648.64 599.88 652.69 598.25 655.45 596.35 656.92 596.64 660.18 595.85 660.18 593.68 661.85 592.54 662.42 591.39 663.96 590.46 664.11 589.61 665.27 588.05 666.7 586.9 669.3 587.89 671.44 587.52 671.26 584.71 672.05 582.8 673.26 581.79 673.65 580.82 673.14 578.87 675.74 577.14 678.04 577.08 679.96 580.65 680.05 581.89 680.79 583.35 684.19 583.41 685.96 582.92 685.69 584.05 686.85 584.96 686.41 586.61 688.14 592.49 688.66 595.57 689.27 596 689.02 597.83 689.37 599 691.66 601.54 691.31 603.67 691.76 605.36 690.5 608.28 693.8 607.67 697.57 609.95 698.61 610 701.37 609 703.65 609.03 705.11 609.84 706.07 611.33 708.33 610.56 711.17 610.76 713.33 611.62 713.67 612.8 712.61 617.07 711.45 617.27 710.28 618.82 711.33 620.22 711.18 621.47 712.13 622.26 712.47 623.69 713.54 624.92 713.7 627.11 715 629.44 715.01 630.56 715.97 632.21 717.63 633.27 719.32 634.96 720.98 636.2 721.47 638.03 722.42 639.22 723.14 639.42 724.23 638.07 728.06 638.64 728.42 638.32 732.98 637.77 733.47 636.59 736.1 635.26 738.56 635.15 737.87 633.71 740.1 633.24 743.22 633.72 743.29 633 746.42 633.19 746.84 634.05 749.02 634 Z" id="37020320"/>
<path d="M 367.22 524.06 366.51 528.33 366.78 530.21 367.56 531.96 368.32 534.53 368.84 535.49 370.98 537.28 373.23 540.53 375.32 542.56 376.14 542.96 378.95 545.75 380.52 548.52 379.45 551.69 380.22 554.08 382.73 557.17 384.94 559.61 385.72 561 388.33 559.95 391.29 559.92 392.81 558.69 392.78 557.55 394.56 556.71 395.77 555.49 397.07 556.48 399.69 555.81 401.54 554.89 402.75 553.76 403.45 552.5 405.78 552.2 407.54 551.54 408.77 550.41 409.26 548.44 409.8 547.62 411.75 546.93 414 548.27 415.66 550.16 415.85 553.3 417.13 556.05 418.16 556.95 417.97 558.1 418.78 560.48 417.56 562.48 418.43 562.88 418.9 565.95 418.28 567.77 417.13 568.4 417.4 569.79 416.82 570.93 417.76 571.68 417.28 572.78 417.35 574.11 419 575.17 419.85 578.6 419.85 579.97 419.28 582.48 420.72 583.89 422.04 583.94 421.98 584.78 421.15 585.88 421.7 587.98 421.75 589.38 423.48 590.54 424.1 592.47 424 593.83 422.62 595.29 422.25 596.73 422.43 599.12 421.57 600.9 421.88 601.96 420.93 604.26 422.48 606.12 422.27 607.95 422.99 609.72 424.53 610.31 425.91 610.36 427.52 612.13 426.93 616.05 427.38 618.02 428.13 619.65 429.87 621.72 429.31 625.85 430.34 627.02 430.31 629.24 430.68 630.62 431.61 631.64 432.45 633.73 432.3 636.43 432.61 638.52 430.49 640.82 428.98 641.34 428.48 642.01 428.06 644.18 430.51 645.33 434.88 651.54 434.63 651.68 434.69 655.12 436.17 655.73 435.35 660.26 430.39 661.46 428.36 660.75 428.39 662.82 427.05 666.57 425.55 668.06 425.09 669.48 422.75 672.55 422.11 675.64 419.71 679.02 414.84 677.55 411.81 677.19 409.36 677.63 407.41 677.08 405.94 677.73 405.22 677.39 398.92 675.39 397.75 674.12 394.94 673.86 392.98 673.89 388.13 674.47 387.01 674.35 386.16 671.92 386.48 670.29 384.95 667.64 383.55 666.27 382.25 665.71 380.8 665.66 378.5 664.85 377.19 665.05 375.81 666.09 372.71 664.5 368.97 660.23 368.64 658.6 366.3 656.57 363.28 658.25 361.26 656.7 359.98 655.13 358.26 654.04 357.1 654.06 353.52 650.92 353.66 650.09 351.71 649.07 350.45 648.74 350.32 646.91 350.66 646.08 349.33 645.15 349.73 644.41 346.28 643.86 344.66 644.36 341.84 646.99 339.26 648.57 338.18 651.23 338.11 653.78 334.14 656.51 333.47 654.23 332.76 653.7 329.44 652.61 327.65 652.46 327.34 650.85 325.33 649.35 317.28 647.93 316.6 644.79 315.5 643.85 312.63 642.09 309.93 640.67 309.11 640.94 309.24 643 308.91 644.58 307.87 646.56 305.83 648.51 305.85 650.85 305.38 652.32 302.56 655.17 300.69 655.35 300.01 656.6 298.27 656.93 297.53 658.17 296.04 658.38 294.74 657.14 292.02 656.66 290.41 655.64 288.54 655.71 287.08 656.69 285.69 656.59 284.57 657.05 281.31 656.59 279.04 657.2 278.63 656.03 277.79 655.35 276.91 652.81 274.95 651.57 273.85 649.16 270.8 646.41 269.62 644.61 267.9 644.65 263.05 642.06 261.79 642.08 259.54 640 257.95 639.58 255.62 639.8 252.02 640.73 250.49 641.65 250.61 642.56 249.08 644.55 246.79 645.43 245.58 647.4 248.56 651.73 246.29 653.86 245.79 655.29 244.37 656.76 243.34 660.09 244.78 661.43 242.63 662.41 240.87 662.38 236.75 661.78 235.79 662.15 234.69 661.38 230.99 659.49 229.32 660.5 229.34 661.79 228.62 662.54 228 665.98 227.09 667.38 226.62 670.04 224.31 671.11 222.34 671.18 219.98 672.46 216.89 673.13 216.33 672.12 214.19 669.94 211.63 670.34 209.89 670.2 207.49 672.53 206.45 672.03 204.14 673.36 201.09 673.97 196.04 674.03 193.94 674.69 191.22 677.13 185.2 678.54 182.29 680.48 177.34 681.11 178.25 676.91 177.83 675.32 175.65 672.5 176.81 666.72 176.66 665.67 173.77 660.41 173.28 659.99 171.67 652.59 172.6 650.25 172.07 648.5 174.18 646.18 173.96 644.3 174 641.59 174.51 639.92 175.93 638.22 177.02 636.09 175.92 630.85 175.54 628.33 178.44 625.38 177.01 624.65 176.38 620.22 174.59 619.59 171.85 616.66 171.87 614.59 170.27 612.03 166.51 610.81 167.95 608.38 170.04 608.28 172.92 604.76 172 601.97 172.82 599.72 174.74 595.71 175.34 593.33 175.83 590.21 175.96 585.45 175.87 583.88 177.01 581.24 177.59 578.57 176.79 577.14 175.94 573.5 174.98 572.06 174.32 570.06 174.01 566.5 175.67 564.74 175.94 563.1 176.76 561.1 175.09 557.63 172.35 554.39 168.06 546.05 166.83 544.87 166.2 543.7 166.38 542.28 165.72 540.15 165.08 539.21 165.09 536.16 166.62 533.74 166.76 532.51 164.85 527.43 166.18 525.13 167.57 523.85 168.3 522.65 169.19 522.2 170.34 518.94 171.77 516.88 174.1 518.68 175.06 520.99 175.77 524.79 176.8 526.01 177.3 527.39 178.94 527.04 183.59 528.08 186.08 529.83 188.87 530.12 192.45 532.69 195.66 532.43 198.25 533.27 200.28 534.17 201.7 536.68 201.91 541.54 201.42 543.5 204.57 549.42 205.76 551.91 206.68 552.09 207.53 553.33 211.2 556.18 212.17 556.05 213.07 557.86 213.93 557.45 214.45 558.3 216.26 559.57 217.35 561.1 219.08 561.43 220.51 562.34 224.79 564.02 225.7 564.19 228.12 564 228.96 564.98 230.41 565.03 234.47 567.12 234.7 567.99 238.42 570.04 239.78 569.06 240.08 567.37 241.23 565.28 241.96 562.58 240.66 561.54 239.44 559.2 239.24 557.12 237.88 554.44 237.84 553.47 240.07 552.92 241.07 552.15 245.46 550.24 248.29 549.88 248.98 550.09 255.25 550.61 257.11 547.04 257.6 544.99 257.3 544.1 258.86 539.24 260.56 536.86 261.7 535.95 261.91 533.94 262.47 533.8 265.02 531.61 266.83 531.27 267.08 530.75 268.99 529.63 269.61 527.31 270.7 525.39 271.95 524.32 272.76 523.12 274.15 521.89 274.24 520.78 273.24 517 275.07 514.23 275.64 512.91 276.78 512.2 278.08 509.89 278.93 509.12 280.48 509.2 280.87 506.45 282.78 506.12 284.92 505.34 286.58 505.93 287.63 505.78 290.5 506.09 291.8 505.46 294.24 509.25 293.59 511.2 293.38 513.17 293.77 514.46 295.22 515.26 296.45 516.46 296.4 517.07 297.47 518.71 299.02 519.47 299.81 520.75 301.78 522.06 302.75 523.63 304.68 524.18 306.69 523.82 307.21 521.74 308.63 521.44 310.5 521.85 311.44 521.17 313.7 521.07 314.37 520.75 314.61 519.58 314.07 518.19 314.04 516.14 314.49 514.91 318.54 513.83 321.44 513.79 321.61 512.38 323.43 510.58 324.32 510.39 324.79 509.26 325.28 506.62 328.77 505.14 331.21 504.58 331.4 505.35 328.4 507.39 328.51 508.03 328.51 508.08 328.63 509.54 329.67 510.98 329.89 514.75 329.47 516.3 329.25 521.75 330.18 524.23 331.33 526.61 333.65 526.64 334.93 526.1 336.69 523.95 338.2 520.18 339.12 520.04 340.28 520.99 341.44 520.13 343.53 520.61 344.25 520.32 346.17 520.65 348.44 521.73 349.66 521.63 350.59 522.4 353.87 523.15 360.25 522.48 367.22 524.06 Z" id="37020330"/>
<path d="M 63.63 420.48 66.8 421.75 69.05 423.31 69.62 424.7 71.71 426.02 72.56 425.58 73.61 424.01 77.43 425.93 79.18 427.13 79.83 428.25 81.01 429.17 83.07 429 85.22 429.76 86.31 430.64 86.1 432.22 87.94 432.31 89.42 430.46 90.84 430.21 92.54 430.78 93.15 430.03 94.62 430.53 95.21 431.63 97.43 432.99 97.62 433.57 99.42 434.77 100.36 434.67 102.41 436.05 102.93 439.63 105.36 440.94 105.41 442.97 104.54 444.87 104.68 446.23 103.9 449.63 103.7 451.61 104.29 453.4 104.36 454.69 102.66 458.36 100.39 459.52 100.81 462 104.67 462.95 107.09 464.93 109.16 465.1 111.55 464.23 114.86 464.71 118.12 465.62 124.77 469.38 126.82 468.82 127.73 469.52 127.89 472.7 129.87 477.47 129.95 478.66 129.26 482.16 130.08 483.74 131.69 485.07 132.04 486.88 131.37 488.05 130.05 491.92 130.77 493.86 131.51 496.87 131.21 497.4 131.74 499.45 131.94 501.79 133.37 505.47 134.32 509.03 133.08 510.85 134.2 514.22 134.23 517.06 139.97 519.79 144.2 520.73 145.25 520.78 146.48 522.62 149.65 525.18 151.6 526.12 155.35 525.53 158.06 524.3 159.94 524.29 162.17 525.72 163.4 527.21 164.85 527.43 166.76 532.51 166.62 533.74 165.09 536.16 165.08 539.21 165.72 540.15 166.38 542.28 166.2 543.7 166.83 544.87 168.06 546.05 172.35 554.39 175.09 557.63 176.76 561.1 175.94 563.1 175.67 564.74 174.01 566.5 174.32 570.06 174.98 572.06 175.94 573.5 176.79 577.14 177.59 578.57 177.01 581.24 175.87 583.88 175.96 585.45 175.83 590.21 175.34 593.33 174.74 595.71 172.82 599.72 172 601.97 172.92 604.76 170.04 608.28 167.95 608.38 166.51 610.81 170.27 612.03 171.87 614.59 171.85 616.66 174.59 619.59 176.38 620.22 177.01 624.65 178.44 625.38 175.54 628.33 175.92 630.85 177.02 636.09 175.93 638.22 174.51 639.92 174 641.59 173.96 644.3 174.18 646.18 172.07 648.5 172.6 650.25 171.67 652.59 173.28 659.99 173.77 660.41 176.66 665.67 176.81 666.72 175.65 672.5 177.83 675.32 178.25 676.91 177.34 681.11 177.27 681.31 176.87 684.17 175.26 685.36 173.18 687.77 170.87 689.45 169.52 689.96 166.99 690.33 165.96 691.49 162.98 692.86 163.26 693.52 162.34 695.99 160.14 696.9 158.47 698.74 157.9 700.98 156.44 704.05 156.06 706.1 154.78 706.73 154.09 708.26 154.33 709.57 151.17 714.44 148.32 718.05 148.24 719.72 148.58 722.32 149.67 724.7 152.03 726.51 153.1 726.88 150.48 730.27 147.36 733.48 146.06 734.52 144.76 737.85 147.6 741.89 146.41 745.41 146.94 751.4 145.28 754.57 146.31 760.26 146.58 760.67 149.91 760.47 151.06 763.23 152.68 765.78 157.42 772.5 158.7 774.1 161.37 775.89 164.01 777.21 165.4 779.26 166.09 781.24 166.49 784.22 165.82 787.66 163.09 789.66 158.18 793 153.16 787.1 150.7 785.04 148.87 784.15 145.72 783.62 143.61 783.88 142.14 783.65 141.09 782.52 137.62 781.63 131.79 779.42 127.58 779.08 125.02 777.8 123.54 778.16 121.38 777.45 120.73 776.67 119.51 776.61 115.97 775.71 115.29 774.81 115.22 773.65 113.91 772.09 113 769.84 110.3 766.59 109.51 764.74 109.2 762.19 109.39 760.6 108.72 757.25 108.34 754.22 107.32 752.47 106.39 751.66 105.3 749.47 103.59 747.43 102.84 745.25 101.19 742.5 99.61 736.69 97.97 731.78 97.98 729.07 99.17 725.36 98.53 721.9 99.17 719.78 100.15 718.14 100.73 714.01 101.33 711.02 101.5 708.72 101.29 707.85 102.56 705.5 101.11 701.19 100.38 699.83 100.74 698.2 100.39 696.47 96.12 696.93 94.11 699.39 91.79 701 88.82 701.09 86.62 702.89 85.05 703.55 82.31 703.72 80.6 706.46 77.94 707.77 75.31 707.05 72.71 706.57 70.79 704.79 68.74 704.42 66.14 703.2 64.59 702.07 59.48 699.29 57.62 699.11 56.21 698.15 54.22 699.42 52.1 700.35 50.4 699.4 51.08 698.24 51.57 689.81 51.37 688.16 49.99 682.51 49.96 679.81 48.62 675.2 42.8 670.06 41.38 668.95 41.22 667.16 40.64 664.66 41.58 661.6 41.49 657.87 38.1 656.37 35.17 655.52 32.65 654.56 31.37 652.11 28 646.14 26.09 644.48 25.1 640.81 23.71 640.85 22.17 639.77 21.59 638.94 19.63 637.26 17.31 635.72 15.03 633.66 15.18 630.08 12.42 625.19 8.94 623.82 8.49 623.42 4.76 622.54 4.76 620.21 5.48 617.56 6.22 612.86 7.25 609.62 7.35 606.77 6.69 605.74 8.5 602.83 8.29 600.43 6.72 598.79 5.01 598.19 5.03 597.11 2.48 594.74 2.44 593.72 1 591.75 1.96 589.33 2.15 587.16 3.79 584.1 2.78 582.6 3.77 580.17 4.77 578.82 5.22 576.63 4.95 573.53 5.55 572.4 8.23 571.94 9.84 572.78 10.7 572.54 10.69 570.93 10.2 568.46 9.29 567.66 6.96 563.2 7.5 562.69 6.12 561.18 13.52 559.86 16.35 557.6 21.04 558.5 23.97 558.02 26.2 558.32 28.71 558.98 31.31 555.67 32.34 554.01 34.56 553.94 35.54 553.45 38.56 549.04 37.11 547.88 38.99 546.48 39.75 544.22 34.13 538.09 34.59 534.47 33.32 532.24 33.78 530.26 33.15 528.21 33.86 526.27 34.66 521.25 32.51 516.99 30.73 516.18 30.57 514.93 29.63 511.94 27.9 510.39 28.7 508.68 30.03 507.83 31.48 506.02 32.46 505.52 32.59 504.6 34.33 501.17 37.62 498.5 37.88 496.3 39.72 493.65 40.63 491.79 40.74 490.56 42.35 488.34 42.39 487.04 43.46 486.17 43.91 483.45 45.78 480.7 46.28 479.01 45.84 477.8 46.73 475.04 46.63 474.22 47.56 470.08 47.29 468.74 48.25 467.31 49.07 465.36 50.89 464.89 52.93 462.83 53.06 460.1 52.86 457.12 53.8 453.49 53.47 452.76 53.75 451.43 55.77 449.48 56.53 449.63 57.83 448.74 59.01 448.79 60.95 447.63 61.57 446.87 60.41 444.65 61.34 442.53 61.5 440.9 63.08 439.28 64.6 438.5 63.74 434.81 63.99 431.15 65.02 429.35 65.08 428.41 63.92 427.02 62.53 426.77 59.72 426.44 59.39 425.56 60.01 424.14 60.9 423.08 62.15 420.52 63.63 420.48 Z" id="37020340"/>
<path d="M 206.08 297.03 202.97 300.47 200.52 304.26 198.4 305.28 198.26 307.91 196.99 311.16 196.83 313.57 198.03 315.65 198.71 317.99 198.63 319.61 199.07 321.12 197.93 321.47 197.2 323.88 195.81 323.79 194.68 324.67 193.78 326.38 195.36 327.8 195.13 329.14 193.96 329.92 193.86 331.22 190.41 332.4 187.61 331.22 187.03 333.79 185.39 335.61 183.94 336.5 181.37 336.78 180.76 337.55 179.49 337.35 179.19 338.22 179.92 339.99 180.36 341.98 181.06 342.82 180.74 344.88 182.07 347.06 183.78 348.42 184.41 350.5 182.57 351.61 180.8 353.08 179.79 354.41 180.23 356.21 178.94 357.43 179.05 359.09 177.82 360.03 177.48 363.15 175.45 363.57 172.8 362.79 172.06 363.99 172.15 367.46 170.96 367.79 169.89 369.4 168.68 369.19 167.2 368.37 165.31 368.57 162.15 367.75 159.68 368.28 158.06 367.63 156.63 369.94 155.69 370.59 155.43 373.11 154.56 374.02 154.61 375.99 155.44 376.3 156.24 377.48 155.6 379.1 155.52 380.85 154.91 381.55 150.64 377.75 146.47 373.86 145.21 373.98 143.73 373.16 142.98 371.82 140.3 372.74 139.77 374 138.32 373.53 137.17 374.55 135.17 374.91 133.77 376.82 133.6 377.67 132.38 379.65 130.74 379.14 129.99 382.68 129.62 385.42 129.66 387.03 128.94 389.62 127.56 390.02 126.45 391.65 126.15 393.03 125.31 394.06 126.32 396.95 126.09 398.06 125.13 399.08 125.78 409.62 124.11 412.45 123.5 413.95 120.06 412.31 117.49 412.18 115.84 413.05 114.83 411.98 113.75 412.39 113.7 415.07 111.15 417.68 110.92 418.26 107.52 423 106.11 422.42 105.13 422.46 103.23 423.31 103.42 425.66 103.12 426.75 101.68 426.99 100.79 427.92 99.3 427.83 98.45 428.29 98.72 429.68 98.03 430.3 98.09 432.4 97.43 432.99 95.21 431.63 94.62 430.53 93.15 430.03 92.54 430.78 90.84 430.21 89.42 430.46 87.94 432.31 86.1 432.22 86.31 430.64 85.22 429.76 83.07 429 81.01 429.17 79.83 428.25 79.18 427.13 77.43 425.93 73.61 424.01 72.56 425.58 71.71 426.02 69.62 424.7 69.05 423.31 66.8 421.75 63.63 420.48 65.2 415.56 66.12 414.72 66.37 412.25 67.36 407.99 68.14 407.24 69.44 405.25 71.4 403.88 72.18 403.02 72.5 401.55 73.79 400.06 74.36 396.52 74.77 395.69 76.19 395.95 77.12 395.35 78.76 395.19 82.28 390.6 83.8 388.15 84.14 386.49 85.24 386.03 86.94 382.5 86.69 379.96 86.11 379.08 85.2 376.64 83.45 375.12 84.8 372.5 83.26 370.52 84.04 367.03 82.49 365.81 82.64 364.52 81.6 363.39 81.64 362.69 80.68 361.19 82.31 359.18 81.02 358.25 79.87 353.15 78.14 349.4 75.99 348.39 75.05 347.18 76.49 345.53 76.94 344.05 77.47 340.8 76.89 340.04 76.39 336.59 78.28 335.27 79 333.64 77.56 332 76.17 331.15 77.39 328.71 78.17 325.49 77.69 324.83 77.88 322.2 77.55 321.21 76.27 320.63 76.59 318.51 78.81 318.86 82 317.33 83.86 317.1 85.43 315.91 87.55 313.77 89.04 314.6 89.75 313.61 91.89 308.4 92.49 307.49 94.22 307.52 96.76 308.46 99.43 308.11 102.82 306.53 104.01 307.05 104.86 305.43 104.34 302.9 104.95 301.18 104.97 299.45 105.56 298.68 105.95 296.8 106.76 296.72 108.55 295.33 109.77 295.06 111.47 296.14 112.66 294.14 115.17 293.56 117.39 293.71 118.3 291.37 119.67 289.8 118.96 286.8 120.48 284.02 123.87 282.39 124.29 282.37 125.85 280.71 125.91 278.78 127.11 276.08 126.98 273.92 123.09 271.29 122.41 270.52 122.95 269.01 123.67 268.21 124.85 265.7 125.78 265.35 126.44 264.15 125.93 262.75 126.92 262.16 127.46 261.2 128.42 259.56 131.36 256.11 131.4 255.25 134.02 254.07 136.73 255.15 137.82 254.29 139.07 254.48 142.09 252.82 142.91 253.53 147.24 253.54 148.59 254.55 149.4 253.98 150.96 254.26 151.46 255.11 151.51 256.47 153.02 257 153.1 258.09 154.55 259.05 154.76 260.14 155.78 261.36 157.45 259.1 157.32 257.79 158.09 257.08 160 257.72 160.75 258.3 163.3 258.74 163.62 259.91 164.44 259.88 165.18 258.76 166.71 259.53 168 259.42 169.69 258.55 169.93 257.65 171.12 257.73 172.89 256.26 173.99 256.58 175.11 255.67 175.83 256.79 179.22 258.53 181.2 260.9 182.59 260.55 184.12 262.18 185.24 264.13 187.59 264.39 188.34 265.58 190.52 266.7 191.61 267.9 192.05 269.6 194.25 271.26 196.66 273.61 198.41 276.64 199.03 278.23 200.26 280.37 201.32 283.29 203.19 285.85 203.37 287.64 204 289.11 204.04 290.98 204.41 292.45 203.67 294.53 203.77 295.34 206.08 297.03 Z" id="37020350"/>
<path d="M 384.03 314.94 383.41 317.17 382.69 317.92 380.76 319.09 378.53 321.49 378.29 325.48 377.39 327.12 377.09 329.14 376.19 330.53 374.01 333.03 372.4 335.96 372.02 338.18 370.92 341 369.5 343.94 368.17 345.96 363.27 348.99 359.46 351.01 358.01 352.4 356.82 352.81 354.67 352.96 353.69 352.47 352.79 352.74 351.7 354.29 350.2 357.66 349.79 359.32 349.33 362.67 348 367.26 344.8 373.78 343 377.71 342 380.29 339.82 384.36 337.6 386.83 336.3 390.08 335.98 391.91 334.26 391.57 333.04 390.72 330.78 390.02 330.37 388.67 328.48 386.83 327.31 387.47 325.71 386.69 325.13 384.75 322.97 383.42 322.69 382.84 319.01 381.93 317.03 380.03 314.29 381.03 312.12 379.9 310.75 378.76 308.34 379.18 305.57 378.09 303.85 377.66 301.97 378.37 300.46 379.28 298.8 381.08 296.99 382.31 296.25 383.91 296.38 386.91 294.5 388.22 294.5 390.57 294.81 391.39 294 393.11 293.14 396.89 292.51 396.82 289.87 395.05 288.97 393.95 284.89 392.92 282.45 393.34 280.95 391.69 275.3 389.96 273.98 392.41 272.81 392.7 271.25 392.45 268.41 389.81 266.41 390.43 265.59 392.61 264.73 393.43 259.99 395.71 257.79 397.16 257.52 398.79 251.41 395.49 249.49 393.83 247.02 394.07 244.12 392 241.74 391.48 239.31 387.59 239.07 384.58 237.94 383.55 239.23 381.3 240.76 379.46 240.4 375.98 239.15 374.34 236.65 366.85 238.42 360.83 238.76 357.12 236.57 353.09 236.48 352.41 234.12 349.08 233.71 346.43 230.73 343.3 228.21 343.38 223.14 342.99 222.09 338.86 221.16 336.59 219.31 335.58 218.27 333.8 216.42 333 214.95 330.85 214.19 329.21 213.86 327.53 213 326.13 211.8 326.62 210.18 326.12 208.79 325.08 208.59 324.26 206.74 323.92 206.34 322.03 206.54 320.72 206.06 319.39 204.72 318.9 203.23 317.47 201.59 311.42 199.95 309.28 198.26 307.91 198.4 305.28 200.52 304.26 202.97 300.47 206.08 297.03 207.54 297.22 210.37 297 211 296.44 210.43 293.55 211.48 290.98 213.27 289.84 214.47 287.84 215.48 287.23 217.32 286.89 218.15 286.34 219.29 287.67 220.51 287.07 221.23 288.36 222.93 288.16 223.32 286.2 225.61 284.63 227.28 283.84 229.1 281.53 229.71 280.14 231.73 277.54 232.99 274.04 232.92 272.28 234.08 270.49 237.11 271.34 238.99 270.58 239.98 269.81 246.43 267.59 250.71 266.29 255.36 265.07 256.75 266.91 257.55 267.43 258.58 269 258.67 271.81 259.91 273.82 261.3 272.79 263.66 268.48 265.67 267.99 270.38 270.45 271.56 270.84 272.72 268.6 273.03 269.86 274.1 270.6 275.99 272.58 277.16 274.76 279.69 275.68 280.3 276.76 281.47 277.51 284.11 278.64 284.27 279.23 286.52 279.96 287.27 281.37 289.97 280.12 293.34 280.36 294.48 280.9 295.07 280.49 296.3 280.83 297.85 280.58 299.76 280.9 300.93 282.82 304.79 284.86 307.31 287.32 308.96 290.45 308.75 290.94 310.85 294.04 314.5 295.25 316.25 298.57 318.51 300.87 319.42 303.46 320.26 304.68 323.36 301.95 324.3 300.75 326.07 300 329.99 299.25 331.93 300.16 333.82 300.32 336.3 300.01 337.32 301.18 338.6 301.37 342.21 300.91 342.62 301.99 344.61 303.17 347.4 303.17 352.29 307.14 354.93 306.41 356.68 307.12 358.65 307.14 360.11 307.7 360.52 310.75 361.25 311.76 364.5 312.39 366.01 314.25 369.24 315.62 371.72 312.95 373.28 310.74 375.14 310.93 377.6 309.39 379.05 307.97 380.02 306.31 380.52 304.53 381.87 302.42 382.19 303.19 382.5 306.62 381.95 308.33 382.12 311.36 382.59 313.1 384.03 314.94 Z" id="37020360"/>
<path d="M 432.07 1.81 432.94 1.85 434.2 4.21 435.04 6.32 437.66 7.93 437.78 9.18 439.06 9.85 440.17 9.67 442.63 11.4 443.3 12.83 446.09 14.67 446.14 15.72 447.1 16.37 448.24 17.87 447.48 18.53 446.25 21.11 446.01 23.44 446.82 25.68 448.09 27.05 448.62 29.3 448.35 30.95 448.18 32.44 446.83 32.87 443.51 32.33 443.41 33.72 443.93 34.7 443.19 36.21 440.53 38.88 439.67 40.44 440.92 42.9 441.67 43.26 443.68 45.9 443.98 47.59 443.99 51.77 445.13 52.99 445.34 55 444.94 56.29 445.74 58.45 445.89 60.11 443.74 61.82 444.42 64.09 443.38 65.31 444.15 66.3 443.62 68.33 442.39 69.19 442.36 70.76 441.79 72.36 440.87 73.11 440.6 77.48 439.66 80.27 438.61 81.39 438.23 82.44 439.6 84.98 438.35 86.47 438.44 87.77 437.93 88.81 438.42 89.78 437.21 91.19 435.94 92.09 436.6 94.43 436.51 95.19 438.45 96.39 437.92 97.31 438.61 98.94 441.11 101.39 443.4 101.87 445.01 101.07 446.09 101.2 447.86 104.78 449.21 106.14 451.8 107.04 451.77 107.93 453.15 108.49 454.43 111.87 454.3 112.9 456.05 113.53 457.98 115 458.15 116.6 459.68 116.91 459.4 118.38 461.32 119.71 461.39 121.93 462 123.79 462.65 124.56 463.72 123.6 464.3 126.35 465.48 128.01 465.8 129.23 465.73 131.06 465.06 131.57 465.68 134.09 464.2 136.29 465.03 137.5 466.55 138.94 468.65 139.45 468.33 141.58 468.53 145.1 468.37 148.26 466.88 150.85 464.95 151.31 462.32 151.49 463.11 153.17 466.63 152.92 471.12 152.35 475.91 151.22 477.56 152.13 477.28 152.64 477.28 155.58 475.95 156.77 476.48 158.15 477.34 157.8 478.5 159.99 477.52 160.82 476.51 163.94 475.39 165.95 475.85 167.1 473.39 168.41 473.21 170.69 474.73 174.54 474.91 175.98 477.01 178.4 478.49 179.49 479.09 181.04 478.45 183.69 479.71 185.06 480.3 186.54 481.94 189.16 482.22 191.53 484.31 195.17 483.84 196.56 485.37 197.51 488.62 197.12 489.97 198.86 490.12 200.27 489.77 202.02 491.18 205.63 492.6 208.03 492.91 210.23 494.64 214.01 497.95 215.47 499.6 216.85 501.59 216.8 501.26 218.13 501.5 219.22 500.64 220.31 500.83 222.01 500.11 222.54 500.28 223.51 502.44 224.76 501.29 230.37 499.71 230.46 498.3 232.01 498.94 234.82 498.01 235.89 497.63 237.99 498.76 240.12 501.18 242.73 501.14 244.45 502.56 245.07 503.94 245.11 504.49 246.15 505.72 246.31 505.62 247.27 507 248.06 506.35 249.15 507.85 251.12 511.13 250.59 512.95 250.49 513.75 250.97 514.71 252.38 514.95 254.12 516.01 255.27 516.63 258.4 518.02 258.8 519.34 260.37 519.6 262.94 520.73 264.23 521.34 265.65 521.36 267.46 520.21 269.51 518.14 270.86 517.03 272.87 512.44 272.2 511.57 271.83 508.12 271.9 506.03 273.33 504.64 273.24 501.38 273.81 499.28 275 491.52 273.06 491.42 271.67 486.62 269.83 483.55 268.1 479.75 268.92 476.99 267.73 474.59 266.17 473.25 266.65 472.28 265.73 471.18 265.35 469.45 263.82 467.14 262.8 466.16 262.62 463.24 263.88 462.61 264.43 460.24 264.78 459.81 265.29 455 265.36 453.45 265.14 453.2 259.77 451.34 260.07 450.37 259.85 446.06 259.94 444.69 260.37 445.2 256.19 445.06 254.6 442.65 252.85 442.92 251.03 442.73 249.69 441.24 248.58 442.26 246.78 441.33 245.63 440.35 245.27 437.06 245.57 436.21 245.18 436.45 244.15 434.92 242.98 434.64 241.77 431.56 241.21 430.31 242.01 427.9 242.98 426.03 242.52 424.74 242.85 423.95 240.05 423.93 238.85 422.18 237.76 421.44 237.79 419.97 238.7 419.85 240.73 418.82 242.57 418.75 243.31 417.65 243.82 416.58 246.05 414.62 247.41 411.13 246.61 409.61 246.05 407.44 245.77 406.55 246.57 405.05 247.13 403.59 247.09 402.6 245.9 401.17 246.18 397.1 246.02 395.46 245.06 393.69 243.54 392.88 241.39 391.51 240.94 389.21 241.56 387.91 240.23 385.4 239.54 383.35 238.31 384.07 237.19 381.77 232.13 380.93 229.74 380.66 227.02 380.59 222.24 380.7 218.34 381.18 216.18 382.59 211.77 382.1 210.59 381.1 209.5 380.27 207.25 380.35 205.37 379.57 202.23 379.15 199.49 379.54 194.5 380.08 192.47 381.01 190.57 383.16 187.84 384.1 185.94 385.79 183.35 385.15 182.2 385.77 180.19 387.3 178.73 388.15 176.09 388.13 174.94 386.24 173.16 385.37 174.68 385.15 176.06 383.99 176.41 382.98 173.9 384.76 163.03 387.28 163.46 389.48 163.1 392.59 163.69 393.05 160.77 393.58 160 393.7 158.58 393.14 157.6 391.78 149.94 388.5 147.84 387.96 147.98 378.81 148.73 377.85 138.05 374.51 138.33 374.16 134.09 374.37 130.19 375.56 130.24 376.31 130.89 378.16 131.67 379.55 131.32 379.65 124.75 381.56 122.46 381.83 116.56 383.56 112.2 383.42 110.93 382.42 110.59 380.61 96.44 382.58 90.82 382.66 89.68 381.04 88.13 379.81 84.99 379.32 82.51 378.66 82 378.28 78.87 378.58 77.5 378.47 73.87 376.3 69.43 376.56 67.81 375.93 64.05 376.93 61.85 376.73 60.52 377.53 59.22 378.83 56.13 378.89 54.62 380.58 51.82 380.02 49.82 379.73 49.21 379.92 44.7 381.05 42.39 383.94 38.94 384.09 37.61 383.49 34.48 384.06 31.16 386.27 27.77 386.53 26.86 386.1 25.15 387.27 22.37 386.78 19.74 387.7 16.08 388.73 14.45 390.44 12.6 391.14 10.33 392.13 10.66 392.12 12.78 394.98 13.1 396.36 13.64 399.08 10.5 400.58 9.69 401.19 8.67 402 9.99 404.62 10.93 405.72 11.08 407.81 9.94 409.57 10.51 414.29 9.47 415.63 7.82 415.95 6.68 418.64 6.02 419.69 6.14 421.72 5.08 423.24 3.93 423.9 2.71 423.78 1.59 426.44 1.57 428.27 1 430.37 1.1 432.07 1.81 Z" id="37020370"/>
<path d="M 517.03 272.87 517.64 275 519.54 276.83 521.94 279.65 522.01 281.55 523.98 283.53 524.18 285.22 525.6 285.65 525.4 286.58 526.68 288.5 527.68 291.26 527.47 292.2 525.59 296.02 526.64 298.68 523.99 300.07 524.14 303.3 523.95 307.48 524.37 308.73 523.54 310.12 519.29 309.67 516.23 310.21 515.29 310.57 513.98 309.37 508.09 312.04 504.96 313.01 503.5 314.8 500.66 314.8 497.44 319.99 494.76 321.85 493.45 323.38 493.35 327.28 491.59 331.11 490.91 333.77 490.2 334.69 490.17 338.05 489.04 339.77 488.57 342.36 489.16 343.54 492.65 347.75 490.07 351.74 490.13 352.45 486.85 352.63 484.39 351.5 483.45 350.65 483.4 353.24 485.42 353.72 487.42 354.52 488.74 356.57 489.16 357.7 488.97 359.51 487.79 361.34 491.06 364.07 491.53 364.81 490.86 367.71 490.51 368.15 490.77 369.84 489.65 371.01 488.73 372.95 488.38 376.9 487.15 378.81 484.29 378.8 482.59 379.54 481.47 379.32 479.37 380.1 478.42 380.87 476.31 381.27 476.08 382.23 474.66 383.61 473.98 382.56 470.2 379.91 468.69 379.5 466.87 379.9 465.83 381.73 463.62 382.85 461.94 382.91 461.15 383.41 459.86 385.67 457.55 386.65 456.9 387.5 455.95 386.96 453.76 387.04 452.58 386 451.41 383.69 447.89 383.51 444.69 384.39 443.65 384.05 442.66 382.67 442.15 383.65 442.33 384.68 443.4 386.5 443.27 388.2 443.8 388.64 442.89 390.05 441.64 389.22 439.97 390.01 438.53 391.54 437.35 391.99 436.13 391.79 435.32 391.11 434.11 391.57 432.43 391.44 429.65 391.73 429.17 391.33 427.48 387.99 426.43 388.15 425.52 387.09 423.77 386.34 420.65 381.65 419.71 381.76 415.61 380.79 413.72 379.84 412.35 378.47 411.58 376.67 410.77 376.6 409.83 375.36 407.67 375.46 405.35 373.12 404.55 372.94 403.17 371.43 402.07 370.81 401.31 371.74 399.8 372.48 396.97 372.22 395.35 371.38 395.17 368.1 394.03 366.63 393.81 364.25 392.76 362.14 390.87 359.72 388.86 358.7 386.6 355.35 385.34 354.09 383.56 353.95 381.92 353.45 380.13 352.03 378.91 351.61 378.27 350.16 378.31 348.79 375.92 347.31 375.3 345.74 374.51 346.43 372.32 345.07 371.69 345.32 369.75 347.62 369.03 346.97 367.75 347.67 368.17 345.96 369.5 343.94 370.92 341 372.02 338.18 372.4 335.96 374.01 333.03 376.19 330.53 377.09 329.14 377.39 327.12 378.29 325.48 378.53 321.49 380.76 319.09 382.69 317.92 383.41 317.17 384.03 314.94 385.68 310.64 386.42 310.62 386.6 308.43 387.63 301.96 388.05 295.5 387.57 291.97 385.23 288.7 381.54 286.94 379.92 282.77 376.94 277.52 375.74 276.39 374.65 271.31 374.75 268.81 375.79 265.66 376.66 265.02 381.36 263.88 384.73 264.59 387.67 263.26 388.85 259.79 389.18 256.78 387.95 253.98 386.76 252.28 385.84 250.4 384.34 245.35 382.61 240.57 383.35 238.31 385.4 239.54 387.91 240.23 389.21 241.56 391.51 240.94 392.88 241.39 393.69 243.54 395.46 245.06 397.1 246.02 401.17 246.18 402.6 245.9 403.59 247.09 405.05 247.13 406.55 246.57 407.44 245.77 409.61 246.05 411.13 246.61 414.62 247.41 416.58 246.05 417.65 243.82 418.75 243.31 418.82 242.57 419.85 240.73 419.97 238.7 421.44 237.79 422.18 237.76 423.93 238.85 423.95 240.05 424.74 242.85 426.03 242.52 427.9 242.98 430.31 242.01 431.56 241.21 434.64 241.77 434.92 242.98 436.45 244.15 436.21 245.18 437.06 245.57 440.35 245.27 441.33 245.63 442.26 246.78 441.24 248.58 442.73 249.69 442.92 251.03 442.65 252.85 445.06 254.6 445.2 256.19 444.69 260.37 446.06 259.94 450.37 259.85 451.34 260.07 453.2 259.77 453.45 265.14 455 265.36 459.81 265.29 460.24 264.78 462.61 264.43 463.24 263.88 466.16 262.62 467.14 262.8 469.45 263.82 471.18 265.35 472.28 265.73 473.25 266.65 474.59 266.17 476.99 267.73 479.75 268.92 483.55 268.1 486.62 269.83 491.42 271.67 491.52 273.06 499.28 275 501.38 273.81 504.64 273.24 506.03 273.33 508.12 271.9 511.57 271.83 512.44 272.2 517.03 272.87 Z" id="37020380"/>
<path d="M 351.94 413.84 352.16 414.65 351.99 423.34 351.56 424.11 351.57 429.75 351.75 430.64 344.81 433.04 336.04 434.96 334.8 435.35 333.8 433.71 332.31 429.6 333.38 427.97 342.6 427.88 342.56 425.67 342.83 424.02 342 423.37 341.61 418.44 341.41 414.19 341.6 413.77 351.59 413.66 351.94 413.84 Z" id="37020510"/>
<path d="M 335.98 391.91 335.58 394.66 339.07 397.5 342.42 399.62 347.25 402.92 354.41 407.24 353.04 409.24 352.12 409.41 351.94 413.84 351.59 413.66 341.6 413.77 341.41 414.19 341.61 418.44 342 423.37 342.83 424.02 342.56 425.67 342.6 427.88 333.38 427.97 332.31 429.6 331.63 428.62 328.17 425.71 327.61 423.69 327.64 421.72 328.14 419.77 326.03 419.84 324.03 418.9 322.8 417.73 320.28 417.27 318.94 416.28 318.61 415.51 318.45 413.37 317.71 412.19 309.11 410.04 306.97 409.78 303.12 408.63 300.28 405.99 299.83 405.21 297.54 404.41 296.13 404.27 293.4 401.51 293.35 397.95 293.14 396.89 294 393.11 294.81 391.39 294.5 390.57 294.5 388.22 296.38 386.91 296.25 383.91 296.99 382.31 298.8 381.08 300.46 379.28 301.97 378.37 303.85 377.66 305.57 378.09 308.34 379.18 310.75 378.76 312.12 379.9 314.29 381.03 317.03 380.03 319.01 381.93 322.69 382.84 322.97 383.42 325.13 384.75 325.71 386.69 327.31 387.47 328.48 386.83 330.37 388.67 330.78 390.02 333.04 390.72 334.26 391.57 335.98 391.91 Z" id="37020550"/>
<path d="M 460.19 511.1 456.18 511.49 455.32 512.33 454.41 512.07 452.88 512.67 452.03 513.57 450.22 513.71 447.33 516.92 446.96 518.32 445.27 519.39 443.32 519.58 440.75 520.15 438.4 521.38 437.79 521.22 437.17 519.93 435.91 520.13 434.93 521.02 434.08 518.43 433.41 517.64 431.78 517.33 429.63 517.41 428.7 518.11 425.67 517.22 420.86 514.79 417.82 511.91 416.48 512.02 415.1 512.58 413.59 514.62 413.86 516.36 413.18 517.45 412.76 519.22 412.95 521 411.85 523.44 412.39 524.51 411.82 526.12 411.61 527.79 411.86 529.09 412.81 531.21 411.94 533.72 413.26 534.55 413.39 535.57 413.03 539.57 411.52 539.94 411.3 542.83 411.75 546.93 409.8 547.62 409.26 548.44 408.77 550.41 407.54 551.54 405.78 552.2 403.45 552.5 402.75 553.76 401.54 554.89 399.69 555.81 397.07 556.48 395.77 555.49 394.56 556.71 392.78 557.55 392.81 558.69 391.29 559.92 388.33 559.95 385.72 561 384.94 559.61 382.73 557.17 380.22 554.08 379.45 551.69 380.52 548.52 378.95 545.75 376.14 542.96 375.32 542.56 373.23 540.53 370.98 537.28 368.84 535.49 368.32 534.53 367.56 531.96 366.78 530.21 366.51 528.33 367.22 524.06 370.11 518.73 371.87 514.89 373.81 508.79 375.57 502.1 375.46 499.5 375.16 498.59 375.74 497.78 375.99 493.96 375.52 491.69 373.92 490.3 372.1 489.47 371.92 487.29 372.68 481.84 372.06 481.33 375.34 477.99 373.13 476.03 372.55 473.86 371.49 473.15 370.88 471.54 370.18 471.66 368.91 470.14 369.24 467.92 367.09 465.47 366.06 465.7 364.13 465.26 363 465.66 361.26 465.1 360.85 463.21 360.04 461.78 358.81 461.46 358.22 459.28 357.59 458.13 356.73 457.87 353.99 460.59 351.86 461.87 351.86 459.95 352.21 458.07 351.71 455.55 350.38 453.81 350.93 452.56 350.56 451.07 353.69 449.93 353.03 447.76 352.34 447.31 351.89 445.47 354 445.72 355.52 444.68 357.45 444.6 360.29 443.65 359.44 440.47 358.58 438.15 356.7 436.41 360.08 432.08 360.44 430.62 362 430.65 362.93 431.13 364.52 431.15 364.42 428.5 365.96 428.46 374.24 428.7 374.27 424.08 377.91 425.34 383.62 426.95 385.52 426.21 389.49 426.7 392.02 427.9 393.38 428.25 396.16 428.37 399.38 427.52 401.62 426.12 404.16 425.16 407.1 422.17 410.14 420.54 412.12 419.71 414.42 417.5 418.82 415.46 422.31 415.4 427.4 414.96 428.18 415.74 430.42 416.44 427.78 419.06 426.27 420.85 425.11 423.51 425.98 425.71 426.38 428.28 427.15 431.47 424.56 433.34 426.48 436.7 428.14 438.91 428.64 440.99 429.69 442.83 429.15 444.09 427.57 445.68 428.34 446.59 429.33 446.95 430.3 448.05 431.6 448.91 432.71 449.07 433.4 450.1 432.35 451.12 432.28 452.56 432.73 453.54 431.96 454.17 430.3 457.11 430.15 458.25 429.44 459.15 429.44 462.15 429.88 462.88 429.42 464.58 430.23 465.59 429.92 467.08 431.07 467.78 431.5 470.86 432.3 471.75 433.5 475.89 436.21 477.19 438.91 480.51 439.52 483.38 440.4 483.68 440.98 484.72 444.3 486.31 443.39 488.7 444.79 493.64 444.53 494.67 445.85 496.37 446.9 496.92 447.24 498.13 449.92 499.23 450.86 499.24 451.36 500.02 452.6 500.18 453.12 501.18 455.18 502 455.39 502.82 456.78 503.74 457.69 505.34 457.39 506.36 458.43 507.87 458.6 509.03 460.02 510.33 460.19 511.1 Z" id="37020580"/>
<path d="M 293.14 396.89 293.35 397.95 293.4 401.51 296.13 404.27 297.54 404.41 299.83 405.21 300.28 405.99 303.12 408.63 306.97 409.78 309.11 410.04 317.71 412.19 318.45 413.37 318.61 415.51 318.94 416.28 320.28 417.27 322.8 417.73 324.03 418.9 326.03 419.84 328.14 419.77 327.64 421.72 327.61 423.69 328.17 425.71 331.63 428.62 332.31 429.6 333.8 433.71 334.8 435.35 336.32 438.45 335.65 444.91 335.73 446.24 335.08 449.44 334.4 451.38 333.57 452.46 332.02 451.11 331.18 452.19 330.81 454.13 328.89 457.94 329.12 461.83 329.91 464.37 329.08 465.65 328.88 466.67 329.96 470.08 331.64 471.3 332.92 471.48 333.58 473.83 332.54 474.04 331.6 473.26 331.1 474.92 330.12 475.2 326.39 477.93 324.78 478.67 324.69 479.36 322.78 480.83 320.23 482.13 318.5 483.42 316.13 483.58 314.86 484.28 314.28 483.38 302.35 480.4 300.91 479.41 298.05 476.51 297.47 475.2 294.73 474.88 289.78 473.33 289.39 472.5 286.32 472.27 281.22 468.92 277.31 467.48 275.02 466.96 272.02 466.91 273.44 468.24 274.39 468.53 275.35 470.28 273.17 470.42 273.37 472.02 272.84 475.74 273.27 478.25 272.87 478.74 271.45 482.61 269.69 482.95 265.45 481.92 258 478.91 257.1 478.91 256.5 478.05 255.04 479.27 253.95 479.43 253.65 478.06 253.92 476.16 253.62 475.16 251.57 474.67 250.45 473.58 249.71 470.3 249.9 467.67 249.6 466.87 246.86 467.52 245.54 468.38 243.74 468.74 242.75 467.84 242.14 466.17 242.09 463.93 240.58 457.86 238.46 455.99 234.37 453.92 232.75 453.26 229.99 450.66 228.95 449.01 228.21 445.88 226.83 443.79 227.78 443.16 229.3 443.99 230.85 444.15 231.8 444.99 232.58 444.99 234.72 443.47 234.97 442.75 233.86 439.66 234.46 438.42 237.21 434.57 237.06 432.72 235.15 431.1 233.16 430.58 232.03 428.05 231.2 425.65 229.9 424.15 229.72 422.65 231.2 421.17 231.14 420.13 232.13 419.07 230.77 418.2 230.34 417.43 230.59 415.52 231.43 414.57 231.48 412.66 232.48 411.55 233.21 409.1 232.34 407.03 233.8 404.86 235.93 403.24 236.43 399.1 237.21 397.22 238.01 391.3 237.4 388.55 239.31 387.59 241.74 391.48 244.12 392 247.02 394.07 249.49 393.83 251.41 395.49 257.52 398.79 257.79 397.16 259.99 395.71 264.73 393.43 265.59 392.61 266.41 390.43 268.41 389.81 271.25 392.45 272.81 392.7 273.98 392.41 275.3 389.96 280.95 391.69 282.45 393.34 284.89 392.92 288.97 393.95 289.87 395.05 292.51 396.82 293.14 396.89 Z" id="37020590"/>
<path d="M 395.35 371.38 394.97 373.95 394.34 376.43 392.31 377.87 390.97 379.81 390.4 381.57 391.87 383.48 393.45 384.59 392.94 387.45 393.37 388.56 392.72 389.91 393.32 394.24 393.13 396.63 392.64 397.13 390.86 396.03 386.58 396.3 383.19 395.97 381.39 395.98 381.12 396.98 378.16 396.83 377.85 395.05 376.03 396.05 373.48 395.63 372.72 395 371.6 393.15 369.97 395.81 366.3 395.86 366.05 396.86 364.09 396.55 360.42 396.93 360.33 395.3 361.16 393.53 361.72 390.07 361.65 388.18 362.49 388.4 363.4 385.66 361.54 385.08 361.48 382.47 362.11 379.37 362.27 376.64 363.78 374.01 364.61 370.78 365.45 371 367.39 362.75 366.7 360.2 366 359.32 365.03 356.58 365.41 352.25 363.27 348.99 368.17 345.96 367.75 347.67 369.03 346.97 369.75 347.62 371.69 345.32 372.32 345.07 374.51 346.43 375.3 345.74 375.92 347.31 378.31 348.79 378.27 350.16 378.91 351.61 380.13 352.03 381.92 353.45 383.56 353.95 385.34 354.09 386.6 355.35 388.86 358.7 390.87 359.72 392.76 362.14 393.81 364.25 394.03 366.63 395.17 368.1 395.35 371.38 Z" id="37020620"/>
<path d="M 360.42 396.93 358.67 403.81 357.02 409.83 355.3 408.76 354.41 407.24 347.25 402.92 342.42 399.62 339.07 397.5 335.58 394.66 335.98 391.91 336.3 390.08 337.6 386.83 339.82 384.36 342 380.29 343 377.71 344.8 373.78 348 367.26 349.33 362.67 349.79 359.32 350.2 357.66 351.7 354.29 352.79 352.74 353.69 352.47 354.67 352.96 356.82 352.81 358.01 352.4 359.46 351.01 363.27 348.99 365.41 352.25 365.03 356.58 366 359.32 366.7 360.2 367.39 362.75 365.45 371 364.61 370.78 363.78 374.01 362.27 376.64 362.11 379.37 361.48 382.47 361.54 385.08 363.4 385.66 362.49 388.4 361.65 388.18 361.72 390.07 361.16 393.53 360.33 395.3 360.42 396.93 Z" id="37020630"/>
<path d="M 393.13 396.63 394.07 396.95 394.28 400.03 397.32 400.56 398.31 401.41 399.34 404.14 400.12 405.37 402.55 405.83 404.77 404.46 407.06 404.43 407.55 406.14 408.17 406.01 408.93 409.18 410.1 409.19 412.79 410.82 415.01 409.46 416.33 409.29 418.25 410.43 419.26 411.36 419.54 413.34 418.82 415.46 414.42 417.5 412.12 419.71 410.14 420.54 407.1 422.17 404.16 425.16 401.62 426.12 399.38 427.52 396.16 428.37 393.38 428.25 392.02 427.9 389.49 426.7 385.52 426.21 383.62 426.95 377.91 425.34 374.27 424.08 371.84 422.16 369.14 421.15 367.54 420.18 363.66 416.82 362.3 414.42 361.48 413.45 359.52 412.17 358.27 411.8 357.02 409.83 358.67 403.81 360.42 396.93 364.09 396.55 366.05 396.86 366.3 395.86 369.97 395.81 371.6 393.15 372.72 395 373.48 395.63 376.03 396.05 377.85 395.05 378.16 396.83 381.12 396.98 381.39 395.98 383.19 395.97 386.58 396.3 390.86 396.03 392.64 397.13 393.13 396.63 Z" id="37020640"/>
<path d="M 545.88 495.16 545.83 496.49 547.77 498.38 548.28 500.69 548.41 503.54 548.68 504.23 550.08 504.48 551.52 504.12 555.73 505.1 557.23 504.96 559.17 507.23 557.45 507.92 557.21 509.04 556.07 508.88 554.31 510.12 553.94 510.98 552.17 510.9 551.98 511.59 552.36 514.5 553.63 517.02 554.42 518.09 554.64 520.56 553.83 521.7 554.24 523.49 553.73 524.31 553.96 526.5 555.1 529.53 555.19 531.26 555.96 531.6 557.15 531.23 560.04 531.41 560.57 532.37 558.9 533.76 558.75 535.07 559.25 536.99 558.4 537.83 558.07 539.31 558.98 540.7 558.56 541.57 559 543.75 558.76 545.56 556.71 545.55 556.56 543.34 554.54 542.88 554.22 541.24 553.07 540.67 553.72 539.57 555 538.4 554.71 536.89 553.8 536.58 552.22 537.42 551.19 536.32 551.79 535.36 551.5 534.27 552.22 533.25 551.82 531.97 550.8 531.49 548.48 532.02 545.5 533.51 543.05 534.17 541.37 533.8 539.24 534.56 537.22 535.64 536.85 536.92 535.94 537.61 533.07 536.92 532.33 537.16 530 537.01 528.72 537.46 526.58 538.68 523.69 539.38 520.59 539 518.39 538.94 514.39 539.69 511.79 539.14 509.58 539.28 508.18 539.99 505.08 541.02 504.56 540.87 503.35 542.12 499.47 543.82 499.18 544.76 500.06 545.85 500.05 546.91 498.82 548.56 498.65 549.4 499.83 550.56 498.53 551.92 498.73 553.02 496.99 555.44 496.64 556.64 494.59 558.36 493.08 558.33 490.13 559.06 487.61 560.06 484.01 559.9 483.01 559.19 481.96 559.22 481.47 561.97 480.92 562.6 481.03 564.6 479.59 565.34 479.39 567.64 476.2 568.62 473.32 568.23 470.58 568.84 467.77 567.23 467.61 568.5 466.78 569.52 464.37 570.47 463.54 570.27 461.97 570.91 458.49 571.01 457.44 573.61 456.31 573.96 455.87 575.01 454.09 576.28 453.77 576.89 454.6 577.91 454.13 580.2 454.49 582.16 454.92 582.77 455.27 586.66 456.09 588.38 458.17 590.56 455.5 591.95 454.22 593.8 453.36 593.62 452.91 594.82 453.71 595.71 453.93 597.43 453.03 598.13 451.71 598.43 451.07 599.2 448.16 600.2 447.16 602.28 446.32 603.18 442.87 602.89 441.29 603.34 439.68 602.78 438.89 603.24 436.84 606.62 436.61 607.87 435.63 609.42 435.19 610.91 435.24 612.31 434.21 612.63 432.31 612.17 429.21 612.91 428.48 611.9 427.52 612.13 425.91 610.36 424.53 610.31 422.99 609.72 422.27 607.95 422.48 606.12 420.93 604.26 421.88 601.96 421.57 600.9 422.43 599.12 422.25 596.73 422.62 595.29 424 593.83 424.1 592.47 423.48 590.54 421.75 589.38 421.7 587.98 421.15 585.88 421.98 584.78 422.04 583.94 420.72 583.89 419.28 582.48 419.85 579.97 419.85 578.6 419 575.17 417.35 574.11 417.28 572.78 417.76 571.68 416.82 570.93 417.4 569.79 417.13 568.4 418.28 567.77 418.9 565.95 418.43 562.88 417.56 562.48 418.78 560.48 417.97 558.1 418.16 556.95 417.13 556.05 415.85 553.3 415.66 550.16 414 548.27 411.75 546.93 411.3 542.83 411.52 539.94 413.03 539.57 413.39 535.57 413.26 534.55 411.94 533.72 412.81 531.21 411.86 529.09 411.61 527.79 411.82 526.12 412.39 524.51 411.85 523.44 412.95 521 412.76 519.22 413.18 517.45 413.86 516.36 413.59 514.62 415.1 512.58 416.48 512.02 417.82 511.91 420.86 514.79 425.67 517.22 428.7 518.11 429.63 517.41 431.78 517.33 433.41 517.64 434.08 518.43 434.93 521.02 435.91 520.13 437.17 519.93 437.79 521.22 438.4 521.38 440.75 520.15 443.32 519.58 445.27 519.39 446.96 518.32 447.33 516.92 450.22 513.71 452.03 513.57 452.88 512.67 454.41 512.07 455.32 512.33 456.18 511.49 460.19 511.1 461.93 510.9 463.38 511.6 463.82 513.16 465.59 512.88 466.84 513.49 467.73 513.02 468.22 511.63 468.94 511.06 471.89 511.72 473.59 511.42 474.5 510.01 474.47 509.14 475.27 507.69 475.33 505.86 474.28 502.2 472.61 500.25 474.11 497.58 475.12 493.81 476.38 491.28 475.84 489.38 473.65 488.54 473.58 487.3 474.63 486.09 473.95 484.33 474.85 483.01 475.46 481.26 475.33 478.91 476.55 475.53 475.46 474.77 476.94 471.85 478.94 470.73 482.49 472.72 484.38 473.18 486.67 470.36 488.57 469.12 488.79 468.17 490.78 466.62 491.42 465.17 491.56 462.65 493.07 462.48 495.45 463.96 497.61 464.89 501.52 464.4 503.87 465.02 505.22 467.91 506.21 469.4 505.6 471.06 504.98 471.07 504.34 474.54 503.9 475.33 506.4 476.74 506.28 478.68 507.2 479.47 511 479.1 512.1 480.79 512.37 482.3 513.85 483.91 515.5 484.71 517.06 484.99 519.28 484.21 522.35 485.75 523.04 484.72 524.1 484.51 525.61 485.57 526.74 485.18 527.29 485.88 529.86 487.39 532.48 486.56 532.9 486.71 534.24 484.99 536.86 486.29 539.25 490.44 541.56 491.82 541.94 492.71 544.02 493.83 544.36 494.77 545.88 495.16 Z" id="37020660"/>
<path d="M 523.54 310.12 524.48 314.31 525.04 315.18 523.62 318.38 524.07 320.12 527.57 321.72 527.38 324.62 527.87 325.76 529.35 327.31 530.69 328.31 531.57 329.46 531.28 330.58 530.3 331.31 529.98 333.38 531.12 334.03 531.2 334.85 532.55 337.38 534.15 337.45 539.19 341.21 543.64 340.22 546.01 341.32 547.15 340.78 549.01 337.38 548.69 336.61 549.47 334.98 550.51 336.37 551.42 336.67 553.5 338.93 553.04 340.86 553.97 343.03 555.1 343.37 556.41 342.72 560.67 344.09 562.25 343.29 563.33 341.16 565.59 340.19 565.58 341.52 566.74 342.09 567.12 343.89 567.17 346.84 567.82 348.05 567.47 349.61 569.23 351.2 570.89 352.25 569 354.13 568.65 356.09 569.2 359.31 568.77 361.04 567.63 363.09 565.06 363.65 565.54 364.49 564.41 365.39 561.21 365.78 558.77 365.65 557.75 366.51 556.72 368.39 558.86 370.34 559.34 372.8 561.41 374.56 562.03 375.8 564.13 377.18 563.06 379.73 563.28 382.28 564.1 382.69 566.4 381.83 569.06 382.7 570.09 382.54 571.36 383.6 572.89 382.86 574.59 383.22 575.57 381.56 576.57 382.89 576.71 385.41 578.87 387.39 579.77 387.58 581.5 389.09 582.8 388.13 584.3 388.05 584.26 386.46 586.26 384.62 586.45 386.3 587.25 389.12 586.58 390.95 586.89 392.27 587.78 392.92 586.45 395.12 583.71 394.9 582.29 396.84 582.15 398.5 582.74 399.44 582.06 402.95 581.11 405.06 582.25 407.97 584.67 409.71 586.01 411.26 583 411.57 582.45 412.52 581.2 412.48 580.98 413.81 581.25 415.06 580.24 417.04 581.45 419.85 583.32 422.47 583.13 424.46 583.89 426.46 583.72 428.87 585.51 431.39 584.85 435.39 586.09 435.68 588.7 435.41 591.45 437.02 591.76 439.39 592.44 440.54 592.39 442.05 591.67 442.34 591.16 445.47 587.83 447.62 586.34 447.93 584.41 449.39 583.91 451.69 583.55 452.1 584.01 453.85 581.85 459.87 581.81 461.21 580.59 462.48 580.32 463.63 579.58 464.35 578.75 466.79 578.74 468.68 577.1 469.83 576.42 471.63 573.03 472.44 571.77 472.99 569.68 475.41 566.4 477.26 565.16 478.44 563.97 478.67 562.95 480.4 563.16 481.56 562.81 483 562.06 489.17 563.55 492.02 563.07 492.83 559.47 493.47 557.27 493.48 550.75 492.84 549.42 492.57 546.59 493.22 545.88 495.16 544.36 494.77 544.02 493.83 541.94 492.71 541.56 491.82 539.25 490.44 536.86 486.29 534.24 484.99 532.9 486.71 532.48 486.56 529.86 487.39 527.29 485.88 526.74 485.18 525.61 485.57 524.1 484.51 523.04 484.72 522.35 485.75 519.28 484.21 517.06 484.99 515.5 484.71 513.85 483.91 512.37 482.3 512.1 480.79 511 479.1 507.2 479.47 506.28 478.68 506.4 476.74 503.9 475.33 504.34 474.54 504.98 471.07 505.6 471.06 506.21 469.4 505.22 467.91 503.87 465.02 501.52 464.4 497.61 464.89 495.45 463.96 493.07 462.48 491.56 462.65 491.42 465.17 490.78 466.62 488.79 468.17 488.57 469.12 486.67 470.36 484.38 473.18 482.49 472.72 478.94 470.73 476.94 471.85 475.46 474.77 476.55 475.53 475.33 478.91 475.46 481.26 474.85 483.01 473.95 484.33 474.63 486.09 473.58 487.3 473.65 488.54 475.84 489.38 476.38 491.28 475.12 493.81 474.11 497.58 472.61 500.25 474.28 502.2 475.33 505.86 475.27 507.69 474.47 509.14 474.5 510.01 473.59 511.42 471.89 511.72 468.94 511.06 468.22 511.63 467.73 513.02 466.84 513.49 465.59 512.88 463.82 513.16 463.38 511.6 461.93 510.9 460.19 511.1 460.02 510.33 458.6 509.03 458.43 507.87 457.39 506.36 457.69 505.34 456.78 503.74 455.39 502.82 455.18 502 453.12 501.18 452.6 500.18 451.36 500.02 450.86 499.24 449.92 499.23 447.24 498.13 446.9 496.92 445.85 496.37 444.53 494.67 444.79 493.64 443.39 488.7 444.3 486.31 440.98 484.72 440.4 483.68 439.52 483.38 438.91 480.51 436.21 477.19 433.5 475.89 432.3 471.75 431.5 470.86 431.07 467.78 429.92 467.08 430.23 465.59 429.42 464.58 429.88 462.88 429.44 462.15 429.44 459.15 430.15 458.25 430.3 457.11 431.96 454.17 432.73 453.54 432.28 452.56 432.35 451.12 433.4 450.1 432.71 449.07 431.6 448.91 430.3 448.05 429.33 446.95 428.34 446.59 427.57 445.68 429.15 444.09 429.69 442.83 428.64 440.99 428.14 438.91 426.48 436.7 424.56 433.34 427.15 431.47 426.38 428.28 425.98 425.71 425.11 423.51 426.27 420.85 427.78 419.06 430.42 416.44 428.18 415.74 427.4 414.96 422.31 415.4 418.82 415.46 419.54 413.34 419.26 411.36 418.25 410.43 416.33 409.29 415.01 409.46 412.79 410.82 410.1 409.19 408.93 409.18 408.17 406.01 407.55 406.14 407.06 404.43 404.77 404.46 402.55 405.83 400.12 405.37 399.34 404.14 398.31 401.41 397.32 400.56 394.28 400.03 394.07 396.95 393.13 396.63 393.32 394.24 392.72 389.91 393.37 388.56 392.94 387.45 393.45 384.59 391.87 383.48 390.4 381.57 390.97 379.81 392.31 377.87 394.34 376.43 394.97 373.95 395.35 371.38 396.97 372.22 399.8 372.48 401.31 371.74 402.07 370.81 403.17 371.43 404.55 372.94 405.35 373.12 407.67 375.46 409.83 375.36 410.77 376.6 411.58 376.67 412.35 378.47 413.72 379.84 415.61 380.79 419.71 381.76 420.65 381.65 423.77 386.34 425.52 387.09 426.43 388.15 427.48 387.99 429.17 391.33 429.65 391.73 432.43 391.44 434.11 391.57 435.32 391.11 436.13 391.79 437.35 391.99 438.53 391.54 439.97 390.01 441.64 389.22 442.89 390.05 443.8 388.64 443.27 388.2 443.4 386.5 442.33 384.68 442.15 383.65 442.66 382.67 443.65 384.05 444.69 384.39 447.89 383.51 451.41 383.69 452.58 386 453.76 387.04 455.95 386.96 456.9 387.5 457.55 386.65 459.86 385.67 461.15 383.41 461.94 382.91 463.62 382.85 465.83 381.73 466.87 379.9 468.69 379.5 470.2 379.91 473.98 382.56 474.66 383.61 476.08 382.23 476.31 381.27 478.42 380.87 479.37 380.1 481.47 379.32 482.59 379.54 484.29 378.8 487.15 378.81 488.38 376.9 488.73 372.95 489.65 371.01 490.77 369.84 490.51 368.15 490.86 367.71 491.53 364.81 491.06 364.07 487.79 361.34 488.97 359.51 489.16 357.7 488.74 356.57 487.42 354.52 485.42 353.72 483.4 353.24 483.45 350.65 484.39 351.5 486.85 352.63 490.13 352.45 490.07 351.74 492.65 347.75 489.16 343.54 488.57 342.36 489.04 339.77 490.17 338.05 490.2 334.69 490.91 333.77 491.59 331.11 493.35 327.28 493.45 323.38 494.76 321.85 497.44 319.99 500.66 314.8 503.5 314.8 504.96 313.01 508.09 312.04 513.98 309.37 515.29 310.57 516.23 310.21 519.29 309.67 523.54 310.12 Z" id="37020670"/>
<path d="M 357.02 409.83 358.27 411.8 359.52 412.17 361.48 413.45 362.3 414.42 363.66 416.82 367.54 420.18 369.14 421.15 371.84 422.16 374.27 424.08 374.24 428.7 365.96 428.46 364.42 428.5 364.52 431.15 362.93 431.13 362 430.65 360.44 430.62 360.08 432.08 356.7 436.41 354.14 434.87 353.11 433.42 351.75 430.64 351.57 429.75 351.56 424.11 351.99 423.34 352.16 414.65 351.94 413.84 352.12 409.41 353.04 409.24 354.41 407.24 355.3 408.76 357.02 409.83 Z" id="37020680"/>
<path d="M 356.7 436.41 358.58 438.15 359.44 440.47 360.29 443.65 357.45 444.6 355.52 444.68 354 445.72 351.89 445.47 352.34 447.31 353.03 447.76 353.69 449.93 350.56 451.07 350.93 452.56 350.38 453.81 351.71 455.55 352.21 458.07 351.86 459.95 351.86 461.87 353.99 460.59 356.73 457.87 357.59 458.13 358.22 459.28 358.81 461.46 360.04 461.78 360.85 463.21 361.26 465.1 363 465.66 364.13 465.26 366.06 465.7 367.09 465.47 369.24 467.92 368.91 470.14 370.18 471.66 370.88 471.54 371.49 473.15 372.55 473.86 373.13 476.03 375.34 477.99 372.06 481.33 372.68 481.84 371.92 487.29 372.1 489.47 373.92 490.3 375.52 491.69 375.99 493.96 375.74 497.78 375.16 498.59 375.46 499.5 375.57 502.1 373.81 508.79 371.87 514.89 370.11 518.73 367.22 524.06 360.25 522.48 353.87 523.15 350.59 522.4 349.66 521.63 348.44 521.73 346.17 520.65 344.25 520.32 343.53 520.61 341.44 520.13 340.28 520.99 339.12 520.04 338.2 520.18 336.69 523.95 334.93 526.1 333.65 526.64 331.33 526.61 330.18 524.23 329.25 521.75 329.47 516.3 329.89 514.75 329.67 510.98 328.63 509.54 328.51 508.08 328.51 508.03 328.4 507.39 331.4 505.35 331.21 504.58 328.77 505.14 325.28 506.62 324.79 509.26 324.32 510.39 323.43 510.58 321.61 512.38 321.44 513.79 318.54 513.83 314.49 514.91 314.04 516.14 314.07 518.19 314.61 519.58 314.37 520.75 313.7 521.07 311.44 521.17 310.5 521.85 308.63 521.44 307.21 521.74 306.69 523.82 304.68 524.18 302.75 523.63 301.78 522.06 299.81 520.75 299.02 519.47 297.47 518.71 296.4 517.07 296.45 516.46 295.22 515.26 293.77 514.46 293.38 513.17 293.59 511.2 294.24 509.25 291.8 505.46 290.5 506.09 287.63 505.78 286.58 505.93 284.92 505.34 282.78 506.12 280.87 506.45 278.46 505.18 275.99 502.33 274.14 499.12 275.26 493.9 273.87 493.25 273.25 491.88 277.2 487.44 275.72 486.56 273.28 484.63 271.45 482.61 272.87 478.74 273.27 478.25 272.84 475.74 273.37 472.02 273.17 470.42 275.35 470.28 274.39 468.53 273.44 468.24 272.02 466.91 275.02 466.96 277.31 467.48 281.22 468.92 286.32 472.27 289.39 472.5 289.78 473.33 294.73 474.88 297.47 475.2 298.05 476.51 300.91 479.41 302.35 480.4 314.28 483.38 314.86 484.28 316.13 483.58 318.5 483.42 320.23 482.13 322.78 480.83 324.69 479.36 324.78 478.67 326.39 477.93 330.12 475.2 331.1 474.92 331.6 473.26 332.54 474.04 333.58 473.83 332.92 471.48 331.64 471.3 329.96 470.08 328.88 466.67 329.08 465.65 329.91 464.37 329.12 461.83 328.89 457.94 330.81 454.13 331.18 452.19 332.02 451.11 333.57 452.46 334.4 451.38 335.08 449.44 335.73 446.24 335.65 444.91 336.32 438.45 334.8 435.35 336.04 434.96 344.81 433.04 351.75 430.64 353.11 433.42 354.14 434.87 356.7 436.41 Z" id="37020690"/>
</g>
</svg>