<?xml version="1.0"?>
<svg xmlns="http://www.w3.org/2000/svg" version="1.2" baseProfile="tiny" width="800" height="996" viewBox="0 0 800 996" stroke-linecap="round" stroke-linejoin="round">
<g id="dong">
<path d="M 458.94 417.58 459.03 421.42 458.29 424.72 456.74 428.02 455.23 433.13 452.63 435.68 450.65 438.75 449.28 441.57 447.6 445.81 446.32 449.96 446.12 453.79 446.99 466.6 450.57 474.86 451.68 479.59 453 483.14 456.39 491.4 463.96 494.04 465.2 495.05 466.26 498.24 466.1 503.36 465.46 506.01 465.46 507.87 466.21 509.68 466.29 512.39 468.69 516.13 470.12 519.45 473.03 523.26 477.96 527.11 480.54 533.32 481.56 533.81 484.67 532.99 489.36 534.14 491.64 535.46 493.96 534.6 497.34 534.96 501.35 536.18 503.57 534.81 506.86 534.46 508.6 533.32 509.34 531.32 509.12 528.95 510.43 527.76 511.73 527.36 512.22 524.82 515.32 522.07 516.68 519.11 519.49 519.14 521.41 517.86 525.72 516.32 528.74 515.52 532.61 516.77 533.7 516.83 535.82 518.98 536.78 519.05 538.79 520.52 541.53 520.33 542.94 521.63 544.49 523.8 544.55 525.63 548.19 527.43 549.78 535.55 549.95 538.76 549.38 540.65 550.25 542.31 550.6 544.29 549.37 545.61 549.53 549.1 550.15 551.41 552.53 554.07 555.64 554.65 556.14 556.85 557.46 559.49 557.67 561.04 560.37 563.66 558.52 566.26 557.09 566.58 554.93 568.72 554.14 570.27 552.2 570.7 551.04 573.29 551.49 574.56 550.08 580.08 549.78 584.27 548.47 588.23 548.44 590.06 547.79 591.79 546.14 593.13 547.48 594.47 547.78 596.57 547.39 597.82 549.98 598.65 551.32 600.78 554.29 603.81 555.97 604.25 554.8 606.43 554.27 608.77 555.52 609.69 555.72 612.39 554.42 613.12 554.15 614.84 553.07 616.51 552.76 618.52 551.23 620.16 550.9 621.78 550 622.87 547.3 624.71 545.69 623.42 540.3 624.24 538.49 624.74 531.67 625.88 530.43 629.31 531.55 631.47 531.42 635.77 529.61 638.13 528.75 642.12 528.85 644.02 528.37 645.42 529.87 648.31 524.55 648.05 521.55 651.1 520.35 650.9 519.26 652.77 519.7 655.71 517.87 659.69 518.86 660.24 519.89 662.15 521.8 666.85 523.12 667.87 522.59 669.41 519.73 674.7 518.39 675.13 514.21 677.73 509.55 677.84 508.81 679.29 505.62 680.89 504.29 681.16 503.76 683.23 499.04 681.96 497.83 683.93 498.8 684.52 497.89 686.13 495.64 686.18 492.96 687.01 491.31 688.17 489.77 690.11 489.66 691.14 487.69 691.62 484.65 692.91 483.36 691.13 483.58 690.02 480.87 689.31 478.87 689.48 475.82 687.63 473.46 687.96 470.16 686.44 468.18 684.78 465.78 685.85 463.46 687.63 461.2 688.48 460.06 690.16 458.36 691.65 455.98 690.04 455.18 688.73 452.08 685.85 451.84 684.94 450.07 683.76 447.83 680.66 446.34 679.38 444.27 679.52 443.1 680.79 440.61 682.33 438.35 680.7 437.53 678.34 434.32 676.74 432.45 674.66 429.75 673.54 427.8 671.87 425.31 670.44 424.2 670.74 421.45 670.39 418.13 668.77 415.41 667.99 412.61 667.72 411.82 668.86 409.61 668.92 407.51 671.05 406.23 670.78 403.4 671.37 401.35 669.88 398.78 667.4 397.95 663.98 396.69 662.63 395.45 662.67 393.31 659.73 391.06 657.98 388.45 656.82 387.41 654.97 386.21 654.85 384.06 652.11 381.71 650.27 381.35 648.9 382.98 647.36 383.28 645.72 384.41 644.02 385.52 643.4 385.82 641.76 387.3 639.97 388.73 639.34 389.81 637.16 391.19 635.56 390.66 633.77 390.62 631.03 390.32 629.44 391.29 627.12 390.34 624.96 391.2 622.01 390.91 621.2 388.79 620.75 387.5 621.48 385.66 620.36 382.33 619.93 381.98 617.81 381.01 616.64 381.3 615.05 379.6 611.26 378.98 608.9 379.9 606.54 379.79 605.19 377.38 604.03 376.71 602.99 376.43 600.44 375.77 598.42 375.97 595.75 374.95 594.85 374.35 593.18 374.74 592.1 374.83 588.09 375.74 586.83 374.96 585.84 373.95 581.18 374.89 578.97 373.63 577.82 374.42 574.75 373.52 572.62 375.2 570.31 373.93 566.91 374.64 565.57 374.13 564.12 374.45 560.57 373.83 556.54 373.39 556.04 374.11 553.67 376.46 551.24 376.09 549.81 377.36 547.16 377 545.81 377.39 543.8 376.97 541.88 377.87 540.03 376.72 538.19 378.38 535.96 377.53 532.73 377.76 530.19 379.82 529.06 381.66 526.39 381.11 524.56 379.62 523.81 381.63 521.06 381.72 518.97 383.13 516.63 384.94 514.78 387.54 513.58 389.33 511.04 388.57 509.72 389.17 506.81 388.95 504.89 390.24 503.66 391.51 504.29 393.35 504.22 394.23 505.5 395.79 506.14 396.02 507 398.87 507.47 399.6 507.06 399.48 500.9 398.58 498.4 398.89 494.34 402.6 492.94 404.09 489.74 404.51 487.88 404.29 484.57 404.81 483.39 404.77 480.57 404.36 478.76 404.16 474.1 404.71 473.79 406.04 471.1 407.61 469.83 407.16 467.4 407.47 466.34 409.52 466.28 411.79 467.32 413.7 467.15 413.89 465.07 414.7 464.84 415.29 462.5 415.15 460.76 415.85 457.59 416.82 457.07 416.23 452.37 415.25 451.1 411.8 451.15 409.87 450.46 409.53 448.35 407.49 447.72 407.33 445.66 408.24 444.17 405.8 438.82 408.61 434.53 409.77 433.13 409.33 427.06 414.87 426.99 417.81 425.28 420.56 424.13 421.35 423.32 424.01 422.03 424.9 421.03 425.69 417.01 427.35 415.1 428.72 415.16 430.54 414.13 431.29 412.69 433.53 412.26 434.07 411.5 436.22 410.74 437.17 409.44 440.86 407.73 441.44 406.4 442.9 406.08 444.81 404.12 447.41 404.65 448.31 403.89 449.15 405.78 450.79 406.43 453.47 412.54 454.7 414.69 455.21 418.06 458.94 417.58 Z" id="37030390"/>
<path d="M 431.29 412.69 430.54 414.13 428.72 415.16 427.35 415.1 425.69 417.01 424.9 421.03 424.01 422.03 421.35 423.32 420.56 424.13 417.81 425.28 414.87 426.99 409.33 427.06 409.77 433.13 408.61 434.53 405.8 438.82 408.24 444.17 407.33 445.66 407.49 447.72 409.53 448.35 409.87 450.46 411.8 451.15 415.25 451.1 416.23 452.37 416.82 457.07 415.85 457.59 415.15 460.76 415.29 462.5 414.7 464.84 413.89 465.07 413.7 467.15 411.79 467.32 409.52 466.28 407.47 466.34 407.16 467.4 407.61 469.83 406.04 471.1 404.71 473.79 404.16 474.1 404.36 478.76 404.77 480.57 404.81 483.39 404.29 484.57 404.51 487.88 404.09 489.74 402.6 492.94 398.89 494.34 398.58 498.4 399.48 500.9 399.6 507.06 398.87 507.47 396.02 507 395.79 506.14 394.23 505.5 393.35 504.22 391.51 504.29 390.24 503.66 388.95 504.89 389.17 506.81 388.57 509.72 389.33 511.04 387.54 513.58 384.94 514.78 383.13 516.63 381.72 518.97 381.63 521.06 379.62 523.81 381.11 524.56 381.66 526.39 379.82 529.06 377.76 530.19 377.53 532.73 378.38 535.96 376.72 538.19 377.87 540.03 376.97 541.88 377.39 543.8 377 545.81 377.36 547.16 376.09 549.81 376.46 551.24 374.11 553.67 373.39 556.04 373.83 556.54 374.45 560.57 374.13 564.12 374.64 565.57 373.93 566.91 375.2 570.31 373.52 572.62 374.42 574.75 373.63 577.82 374.89 578.97 373.95 581.18 374.96 585.84 375.74 586.83 374.83 588.09 374.74 592.1 374.35 593.18 374.95 594.85 375.97 595.75 375.77 598.42 376.43 600.44 376.71 602.99 377.38 604.03 379.79 605.19 379.9 606.54 378.98 608.9 379.6 611.26 381.3 615.05 381.01 616.64 381.98 617.81 382.33 619.93 385.66 620.36 387.5 621.48 388.79 620.75 390.91 621.2 391.2 622.01 390.34 624.96 391.29 627.12 390.32 629.44 390.62 631.03 386.96 631 384.69 632.14 382.19 632.26 380.41 631.5 377.89 631.49 377.09 631.03 375.97 632.29 373.52 632.98 371.9 632.24 369.79 632.58 368.34 632.19 365.8 632.32 365.31 630.45 363.56 628.43 360.62 626.62 358.6 623.65 360.09 621.37 360.08 619.04 358.12 617.46 357.1 615.68 354.75 615.69 353.37 616.53 349.04 616.31 346.52 615.35 344.41 613.62 342.76 613.32 341.83 611.53 340.37 611.7 340.05 608.28 336.65 605.45 338.12 601.33 338.42 599.25 337.82 597.82 338.72 595.05 338.73 593.68 339.66 590.92 338.7 587.91 338.18 585.13 336.98 584.12 335.18 584.07 333.84 585.07 332.36 587.14 330.34 587.06 329.26 587.62 327.04 589.99 326.05 591.75 324.34 592.57 322.42 592.81 320.03 594.4 318.58 592.82 317.02 592.63 310.77 590.11 309.72 590.07 308.94 592.92 307.14 594.23 304.92 594.42 303.3 595.43 302.37 594.85 299.65 594.46 298.2 592.76 296.71 588.86 295.32 588.89 294.76 589.96 293.18 590.4 289.95 592.93 287.97 592.7 286.49 591.9 285.3 592.08 282.59 593.72 275.6 595.03 273.45 595.89 271.22 595.5 271.21 597.09 269.33 597.31 267.51 601.05 267.96 603.25 266.28 606.18 265.22 606.28 264.2 605.25 261.27 604.68 259.8 603.57 257.58 604.56 255.95 603.83 253.33 605.47 252.08 605.36 249.68 606.7 248.33 607.89 245.17 607.46 243.77 610.01 242.47 610.33 241.27 610.34 239.6 608.78 239.13 606.89 236.08 604.43 233.81 604.5 232.43 600.16 228.08 597.64 227.17 597.5 226.82 595.81 227.31 593.6 225.91 592.02 223.55 590.12 223.31 586.9 221.35 586.6 219.04 584.33 214.21 583.04 211.07 583.25 208.87 582.12 207.3 582.13 204.87 581.26 203.22 579.17 200.79 578.13 197.76 575.65 197.24 572.18 194.34 571.28 191.82 569.71 191.37 567.74 188.99 567.47 188.38 566.62 186.47 566.97 184.58 566.7 181.83 567.4 179.26 565.74 176.39 565.92 172.95 566.78 171.99 566.22 170.79 563.62 170.87 559.18 171.2 554.65 172 553.3 171.55 551.98 170.5 551.34 170.75 548.05 169.47 546.26 169.78 544.1 168.55 539.91 167.68 539.61 167.01 537.37 166.62 532.91 165.01 528.6 159.89 524.31 158.14 521.95 155.98 520.47 155.64 518.96 155.9 515.04 155.06 513.34 152.75 514.65 150.3 514.61 149.53 513.6 147.2 512.13 144.56 509.98 141.74 506.02 140.11 505.13 135.69 502.02 133.45 502.14 129.62 501.48 127.85 502.27 122.83 502.16 120.51 501.63 117.72 501.85 115.81 499.48 110.24 495.84 109.02 492.75 108.91 490.22 107.83 488.43 107.96 484.87 109.41 483.9 112.62 483.21 114.72 483.23 120.42 478.79 124.49 474.72 128.76 471.16 131.27 469.88 135.02 468.94 135.9 465.6 140.03 463.02 141.7 460.06 142.8 456.67 143.76 455.54 144.31 453.69 143.82 451.46 145.54 449.11 148.69 445.51 154.55 440.92 156.36 440.3 160.38 438.29 161.33 439.39 160.61 441.38 161.07 442.4 161.31 445.11 164.13 446.22 166.74 447.69 170.15 452.02 171.89 453.19 172.79 455.04 174.83 455.53 176.53 457.27 179.54 458.42 181.65 459.96 184.87 460.82 185.67 463.39 187.92 465.37 189.17 467.06 189.4 468.52 193.18 472.22 195.62 472.44 195.56 473.84 196.65 474.43 198.16 474.25 202.04 474.58 205.22 474.38 208.21 472.51 208.33 470.84 210.4 468.64 211.31 467.08 214.76 464.46 215.95 464.09 217.53 464.86 220.1 467.43 222.09 467.39 225.63 469.61 227.04 469.39 229.42 468.2 231.74 468.91 233.26 471.11 233.64 472.32 234.87 473.52 235.24 474.73 236.73 475.91 238.27 474.35 241.75 474.26 245.19 474.88 248.06 476.51 249 476.52 251.84 475.05 253.41 475.25 255.21 474.17 256.8 475.84 260.77 474.73 260.78 471.76 262.36 470.08 264.29 468.73 265.16 468.98 267.24 466.62 267.93 463.91 270.7 461.32 271.7 459.55 275.95 458.02 277.5 455.23 277.19 450.44 277.93 447.94 277.74 446.75 278.75 445.46 279.07 443.99 278.45 440.98 280.34 437.49 281.44 433.52 283.01 431.69 283.55 429.07 285.73 427.77 286.82 426.12 287.08 423.19 287.54 422.42 287.44 420.3 289.21 417.9 291.36 415.65 292.99 412.48 294.32 411.16 296.8 410.41 298.08 409.06 297.32 405.82 298.86 405.19 299.55 403.64 301.06 403.09 301.7 401.05 303.2 400.56 303.56 399.5 306.8 396.86 309.19 397.63 311.89 397.95 313.18 397.71 318.41 394.86 319.19 394.9 319.75 392.91 322.09 391.42 324.38 393.3 326.99 391.89 329.94 391.42 331.52 392.5 333.58 392.14 333.97 393.28 335.83 393.86 338.41 394.07 340.33 395.99 343.26 396.39 346.11 393.61 346.9 391.85 346.97 390.23 348.74 389 350.3 386.33 350.25 385.72 351.83 383.14 352.29 380.86 354.19 377.17 358.22 375.27 359.2 374.15 362.06 374.06 363.31 373.41 365.39 373.49 366.64 374.12 368.32 373.83 369.09 374.82 373.51 375.11 374.3 375.93 379.51 374.09 382.01 371.92 384.78 368.69 386.65 367.77 388.12 368.28 390.67 366.28 392.45 366.06 393.57 366.37 392.7 369.28 393.04 370.37 392.17 371.74 392.12 373.2 395.59 379.1 395.42 383.07 396.82 386.63 400.06 388.44 399.43 390.03 400.57 391.5 403.84 392.3 404.03 393.01 405.94 393.43 408.35 392.4 410.16 392.97 411.16 394.11 414.02 392.9 414.88 393.99 417.22 392.42 419.19 393.65 419.29 396.23 420.03 397.23 420.7 401.34 421.5 402.62 419.94 405.03 419.93 407.26 421.96 408.81 424.49 409.95 426.36 409.86 427.72 408.54 429.46 410.16 431.29 412.69 Z" id="37030400"/>
<path d="M 385.31 200.67 386.1 199.88 384.7 196.73 380.9 193.39 381.52 189.32 380.34 187.73 380.04 184.75 378.44 181.54 375.68 177.11 372.01 175.76 370.58 174.13 367.78 173.61 364.55 173.57 362.62 174.03 361.72 171.23 359.64 169.15 357.83 169.06 355.81 168.1 354.25 166.77 351.48 167.04 347.76 165.22 347.48 163.05 345.5 160.09 343.36 157.71 342.09 155.49 342.63 152.12 345.76 150.25 347.64 145.05 349.04 138.51 347.68 137.85 345.3 135.79 344.97 134.71 342.78 133.72 339.48 133.98 338.9 132.02 335.94 132.08 333.43 129.95 330.16 126.31 327.56 125.2 325.6 123.15 324.84 120.2 325.22 119.07 324.46 117.96 322.79 112.24 323.69 110.47 323.54 105.94 324.49 103.08 324.42 100.28 324.02 98.99 322.81 98.68 319.33 99.78 316.66 98.61 313.01 97.77 309.27 96.64 307.48 92.97 305.94 90.97 305.49 88.93 304.09 87.93 303.12 86 303.34 84.34 304.86 82.89 304.63 81.49 305.8 80.2 303.94 78.16 303.52 75.82 304.06 73.2 303.6 70.99 301.19 69.05 298.86 68.63 298.36 67.04 298.54 65.21 296.98 64.18 295.94 61.94 293.52 61.06 291.85 59.47 291.38 55.87 290.13 54.03 288.94 53.18 289.22 51.51 288.14 50.21 287.98 48.16 287.19 45.65 285.66 44.98 287.78 42.84 290.04 41.44 292.69 40.89 293.23 39.55 295.18 37.33 296.34 36.89 296.6 34.07 295.97 30.75 300.02 27.15 300.88 25.52 301.33 23.22 304.75 17.03 309.26 16.33 314.42 17.22 314.97 16.7 316.34 17.59 316.78 20.4 315.88 22.32 317.47 24.61 318.02 27.55 320.89 31.06 322.19 31.9 322.39 33.35 323.95 34.79 327.72 34.43 329.25 35.29 332.09 35.36 336.84 36.14 337.15 34.43 339.92 32.43 342.65 31.82 344.53 29.35 350.59 33.06 352.45 35.13 352.57 35.94 354.38 37.59 357.62 37.35 360.83 37.59 362.09 36.72 365.51 37.69 367.84 39.83 369.37 39 372.56 39.68 374.05 40.93 375.96 39.65 377.26 39.56 378.93 34.14 383.01 31.18 383.9 30.11 386.27 25.18 388.49 26.39 393.66 22.69 395.74 18.57 395.4 16.45 399.27 13.91 400.4 12.03 402.77 15.69 405.48 15.67 406.83 16.31 410.23 15.29 410.78 16.49 413.08 18.81 414.63 22.26 415.68 22.62 415.91 24.84 417.05 27.9 420 30.78 419.71 31.73 420.76 34 420.8 35.54 421.91 36.78 423.6 37.57 424.75 39.61 426.62 41.42 432.26 43.92 431.79 47.19 433.24 49.94 433.65 51.42 432.54 53.49 433.29 55.41 432.92 56.26 434.67 58 435.88 60.39 436.05 61.97 438.67 67.68 440.93 68.92 442.04 70.6 442.78 73.27 442.64 75.94 443.58 77.71 443.97 80.04 446.31 83.47 447.24 84.2 447.25 87.93 448.13 90.01 452.71 94.69 453.46 96.49 452.7 98.15 453.42 101.87 451.93 104 451.34 105.84 450.23 106.74 450.64 109.01 453.31 112.02 458.38 115.81 459.85 115.76 462.11 117.68 464.68 116.78 468.89 118.98 470.38 120.71 472.96 120.53 473.72 121.35 476.39 121.96 478.03 124.79 478.79 124.91 480.07 127.25 482.88 128.56 482.72 130.84 483.6 135.97 485.39 136.95 485.99 139.84 487.57 140.89 489.45 142.92 491.16 143.59 492.54 145.2 493.67 149.59 495.34 151.35 495.96 152.83 499.2 153.12 502.96 154.79 504.36 156.98 504.21 157.74 505.45 162.7 510.14 164.9 511.5 164.22 514.37 161.88 515.86 162.48 519.68 161.35 520.71 160.17 522.84 159.82 522.71 162.14 524.09 168.39 524.62 169.43 524.99 171.51 526.88 174.77 526.81 176.32 525.9 177.72 527.72 181.73 528.32 186.18 529.5 188.5 530.89 189.5 529.84 193.26 527.17 195.76 525.64 197.66 523.23 198.31 521.79 199.12 518.8 199.51 517.65 200.42 515.01 201.4 515.68 202.75 515.49 205.36 515.7 209.24 515.35 214.13 512.65 216.14 510.36 219.88 510.35 220.73 508.45 221.92 507.94 224.05 506.31 225.03 504.87 227.4 504.83 229.53 506.97 231.68 506.86 234.29 506.02 235.78 504.3 235.5 503.31 234.16 501.38 233.07 498.39 234.84 496.44 234.98 495 234.49 492.99 235.97 489.5 236.35 487.38 237.39 485.86 236.99 484.83 233.98 482.58 235.25 481.2 234.47 478.8 234.58 475.73 233.59 474.67 233.96 473.24 233.43 470.17 233.96 468.31 233.8 467.92 232.4 466.49 229.74 465.51 229.07 463.04 228.44 462.57 229.99 463.03 233.74 461.41 236.07 461.59 237.84 460.28 239.63 457.59 239.99 456.39 239.65 455.14 240.94 453.36 240.32 451.24 240.5 447.28 238.14 444.95 237.89 442.85 238.52 441.28 239.91 441.12 240.73 438.74 244.2 436.76 242.47 434.83 239.21 432.6 236.66 433.31 233.92 432.33 230.25 431.22 229 429.34 229.51 428.37 230.92 426.6 231.81 424.54 232.1 423.45 230.73 419.43 229.58 418.14 228.68 417.84 224.3 416.79 223.29 413.03 222.65 411.65 220.77 409.35 219.22 410.01 215.39 408.35 214.28 406.48 210.55 405.87 207.02 403.35 204.93 397.55 202.71 394.84 203.39 391.61 203.48 389.61 201.79 387.33 201.78 385.31 200.67 Z" id="37030350"/>
<path d="M 339.48 133.98 342.78 133.72 344.97 134.71 345.3 135.79 347.68 137.85 349.04 138.51 347.64 145.05 345.76 150.25 342.63 152.12 342.09 155.49 343.36 157.71 345.5 160.09 347.48 163.05 347.76 165.22 351.48 167.04 354.25 166.77 355.81 168.1 357.83 169.06 359.64 169.15 361.72 171.23 362.62 174.03 364.55 173.57 367.78 173.61 370.58 174.13 372.01 175.76 375.68 177.11 378.44 181.54 380.04 184.75 380.34 187.73 381.52 189.32 380.9 193.39 384.7 196.73 386.1 199.88 385.31 200.67 384.09 204.96 384.71 206.69 383.31 207.12 382.41 208.17 381.62 210.56 380.22 211.54 379.24 213.44 378.97 215.94 379.81 219.94 379.97 222.74 380.46 223.38 378.99 225.15 379.04 226.98 378.53 229.15 379.34 229.89 378.31 231.3 377.5 233.51 376.04 235.99 377.29 238.88 376.23 240.63 376.31 241.53 374.07 242.53 373.97 244.64 371.79 246.3 369.5 246.66 369.23 248.44 366.4 250.8 365.4 252.06 365.23 253.46 363.95 254.96 363.32 257.3 361.38 258.95 360.22 260.45 359.59 262.21 360.7 262.76 361.09 264.05 360.2 266.75 362.22 269.28 361.29 271.91 361.26 273.74 360.24 275.31 358.19 276.71 357.84 278.65 358.35 281.99 360.31 282.23 362.88 285.03 363.35 287.02 368.94 287.73 371.13 287.54 373.23 287.83 376.45 288.82 374.81 289.6 373.44 292.58 371.54 294.15 369.76 294.28 366.27 296.34 360.1 297.48 359.96 298.71 358.16 300.44 356.29 299.47 354.14 300.08 353.1 299.89 350.58 297.61 347.26 296.52 347.27 295.72 341.58 294.5 336.72 295.24 334.8 294.49 331.3 294.3 328.94 293.37 328.02 293.95 326.41 293.33 322.47 293.83 314.93 292.16 309.63 292.14 307.89 292.68 305.49 294.06 301.9 294.97 297.77 297.47 295.59 295.89 296.37 295.38 295.87 292.72 298.14 288.75 294.44 287.67 292.05 286.5 290.15 288.19 290.32 289.08 289.15 290.54 286.43 288.93 284.52 286.8 278.49 286.89 278.17 285.89 273.63 283.07 271.71 283.82 268.95 282.97 267.91 281.49 268.67 280.47 268.82 278.8 268.39 275.65 267.49 273.81 268.02 271.8 265.85 269.61 262.93 268.31 262.27 265.49 260.64 265.51 256.74 267.53 254.01 266.64 247.9 266.92 246.71 265.86 246.59 264.16 242.17 261 240.88 260.71 238.79 261.4 236.92 259.59 235 258.71 235.44 256.03 234.01 254.79 231.34 253.37 228.95 250.62 228.86 249.56 226.94 247.25 225.72 244.66 224.62 243.72 226.48 240.94 225.59 239.24 221.98 236.36 219.24 236.41 217.95 234.7 216.77 234.85 214.8 234.24 213.81 233.2 213.73 228.75 212.82 224.68 212.07 222.9 212.16 219.5 213.09 217.51 211.37 217.05 206.27 214.28 206.21 212.62 202.61 210.23 201.73 208.82 199.46 207.92 198.78 206.36 198.3 202.63 199.48 198.28 198.74 196.93 199.84 195.89 201.38 191.43 201.47 188.75 198.94 188.69 197.73 187.24 196.22 186.59 195.28 184.59 195.22 183.17 194.27 181.62 193.97 178.48 192.07 177.48 191.3 175.25 188.41 172.39 186.47 168.78 184.77 166.87 186.32 165.23 186.86 159.46 186.41 156.82 188.5 156.16 191.05 154.05 194.13 149.54 195.56 147.9 195.56 146.94 193.14 147.79 190.59 145.17 189.55 142.79 191.88 141.96 194.07 141.61 197.78 139.61 200.89 137.16 201.57 135.58 205.09 135.79 207.31 136.33 210.48 139.22 215.76 138.68 217.63 138.07 218.2 136 217.73 134.56 220.13 131.34 220.74 128.39 222.21 127.17 222.86 125.79 224.43 124.54 226.7 123.71 227.6 121.17 228.19 120.79 230.59 122 233.75 121.27 235.25 121.45 236.13 120.09 239.08 121.18 242.41 120.97 245.11 119.09 248.69 116.19 252.88 117.74 255.73 116.66 256.81 117.57 259.43 118.41 260.45 117.61 264.46 118.59 267.78 119.11 270.11 119.86 272.82 121.58 275.52 122.18 275.92 123.1 280.49 125.49 281.47 126.8 283.07 131.56 286.03 131.82 287.54 132.67 290.04 135.03 290.11 136.64 292.95 136.94 294.98 139.04 295.87 141.23 298.58 142.5 299.4 145.26 300.79 146.7 301.27 147.97 303.13 150.75 304.63 149.52 305.73 150.07 307.14 149.61 308.62 147.89 310.07 145.19 311.24 146.37 314.02 146.5 317.45 144.65 319.7 140.99 321.83 139.47 324.12 139.21 325.57 137.34 327.39 136.63 329.68 135.06 330.72 135.86 333.26 135.86 334.55 134.4 338.06 135 339.48 133.98 Z" id="37030360"/>
<path d="M 390.62 631.03 390.66 633.77 391.19 635.56 389.81 637.16 388.73 639.34 387.3 639.97 385.82 641.76 385.52 643.4 384.41 644.02 383.28 645.72 382.98 647.36 381.35 648.9 381.71 650.27 384.06 652.11 386.21 654.85 387.41 654.97 388.45 656.82 391.06 657.98 393.31 659.73 395.45 662.67 396.69 662.63 397.95 663.98 398.78 667.4 401.35 669.88 403.4 671.37 406.23 670.78 407.51 671.05 409.61 668.92 411.82 668.86 412.61 667.72 415.41 667.99 418.13 668.77 421.45 670.39 424.2 670.74 425.31 670.44 427.8 671.87 429.75 673.54 432.45 674.66 434.32 676.74 437.53 678.34 438.35 680.7 440.61 682.33 439.37 684.5 439.45 685.77 438.41 689.15 436.94 691.19 432.87 694.72 428.34 697.51 427.57 696.8 425.43 697.72 424.5 700.59 420.72 700.38 419.78 702.41 415.83 702.79 415.13 705.57 412.43 708.19 411.88 709.52 410.17 710.24 407.31 712.41 405.99 714.26 405.31 716.42 405.7 718.36 404.49 720.73 403.07 721.54 402.75 723.72 403.63 727.8 404.7 728.64 404.96 731.47 403.98 733.74 404.82 734.96 405.18 736.8 406.7 738.43 406.48 739.4 407.23 743 406.03 744.58 405.44 747.31 404.69 748.26 405.62 750.75 407.73 753.67 407.53 754.8 408.46 757.44 406.48 759.37 407.38 762.07 407.36 765.53 404.75 767.18 403.73 769.11 403.18 773.32 402.46 776.53 403.13 779.6 402.82 780.66 400.51 780.73 399.56 778.99 396.6 781.19 393.44 778.39 392.77 777.06 390.69 776.11 389.89 775.23 389.81 773.45 388.49 772.15 386.66 769.06 385.36 765.73 382.32 766.3 378.48 767.58 374.76 763.59 373.84 760.01 373.32 759.28 373.77 757.33 372.69 753.88 370.61 752.41 370.54 750.53 372.02 747.02 370.18 745.37 368.88 746.18 365.02 743.31 363.65 744.46 360.87 744.31 357.62 741.98 354.77 741.02 352.65 738.68 351.47 738.29 350.23 736.93 345.66 734.76 342.24 733.42 341.25 733.72 340.12 735.61 338.02 736.82 337.43 739.03 335.54 740.45 333.33 740.95 332.44 739.8 330.79 739.21 329.14 740.52 326.34 740.44 324.81 741.25 322.6 740.75 320.95 740.96 318.52 738.73 318.53 737.64 315.18 738.34 313.61 737.62 309.71 736.91 306.46 738.32 304.93 737.64 304.33 735.69 301.6 736.64 299.09 737.04 296.85 736.57 295.32 736.96 293.22 738.39 292.7 739.94 290.82 740.84 290.32 745.37 288.88 746.67 284.42 746.76 282.33 745.46 280.35 745.61 278.92 745.02 274.21 746.47 273.97 748.85 273.07 749.54 270.69 750.11 270.1 751.9 268.98 752.27 264.5 754.87 263.22 754.49 261.75 754.95 261.09 756.18 258.77 757.77 255.19 757.45 253.42 757.74 249.97 757.06 245.46 758.38 244.38 760.47 243.31 759.75 241.56 756.96 241.64 754.28 240.91 753.36 241.12 751.38 240.54 749.63 242.14 748.39 243.99 745.97 245.78 744.41 248.24 740.6 247.78 739.81 248.33 737.52 253.05 732.85 254.76 729.09 253.38 725.15 253.48 724.25 252.25 720.11 252.21 718.26 252.76 716.38 251.92 714.89 250.86 714.37 250.21 712.36 251.37 710.56 251.95 707.79 251.93 705.17 251.08 703.16 248.03 703.59 247.78 705.98 246.87 707.32 244.54 706.34 243.45 706.6 241.89 704.46 239 704.9 237.68 706.34 236.64 705.5 235.7 703.6 232.89 702.43 230.97 702.2 229.02 700.74 226.09 700.24 224.21 698.7 224.92 694.2 226.31 693.43 226.76 692.01 225.85 690.35 226.18 689.18 225.47 687.82 226.13 686.69 225.13 685.36 224.55 682.66 225.48 680.29 225.68 679.31 227.14 678.04 230.32 677.17 233.8 676.88 234.39 675.97 236.06 675.74 237.09 674.79 238.46 676.65 241.88 677.9 243.32 677.7 244.5 676.51 244.54 675.44 243.26 674.79 241.85 673.02 241.99 670.63 240.57 670.26 239.61 668.78 239.67 666.75 238.84 665.78 239.95 664.23 239.77 662.19 240.91 659.62 241.85 659.77 242.83 661.13 244.11 661.16 245.18 662.38 246.55 662.91 248.4 662.54 249.8 660.68 251.19 660.43 253.95 657.05 252.4 654.93 251.89 651.81 249.98 650.9 248.65 651.29 245.08 651.19 243.73 649.68 243.06 647.8 241.39 640.63 242.95 640.82 248.45 639.15 248.12 637.68 249.05 637.1 247.77 633.35 246.95 632.13 246.76 628.74 245.24 623.59 244.6 622.28 244.72 620.21 243.84 617.03 242.19 613.34 242.47 610.33 243.77 610.01 245.17 607.46 248.33 607.89 249.68 606.7 252.08 605.36 253.33 605.47 255.95 603.83 257.58 604.56 259.8 603.57 261.27 604.68 264.2 605.25 265.22 606.28 266.28 606.18 267.96 603.25 267.51 601.05 269.33 597.31 271.21 597.09 271.22 595.5 273.45 595.89 275.6 595.03 282.59 593.72 285.3 592.08 286.49 591.9 287.97 592.7 289.95 592.93 293.18 590.4 294.76 589.96 295.32 588.89 296.71 588.86 298.2 592.76 299.65 594.46 302.37 594.85 303.3 595.43 304.92 594.42 307.14 594.23 308.94 592.92 309.72 590.07 310.77 590.11 317.02 592.63 318.58 592.82 320.03 594.4 322.42 592.81 324.34 592.57 326.05 591.75 327.04 589.99 329.26 587.62 330.34 587.06 332.36 587.14 333.84 585.07 335.18 584.07 336.98 584.12 338.18 585.13 338.7 587.91 339.66 590.92 338.73 593.68 338.72 595.05 337.82 597.82 338.42 599.25 338.12 601.33 336.65 605.45 340.05 608.28 340.37 611.7 341.83 611.53 342.76 613.32 344.41 613.62 346.52 615.35 349.04 616.31 353.37 616.53 354.75 615.69 357.1 615.68 358.12 617.46 360.08 619.04 360.09 621.37 358.6 623.65 360.62 626.62 363.56 628.43 365.31 630.45 365.8 632.32 368.34 632.19 369.79 632.58 371.9 632.24 373.52 632.98 375.97 632.29 377.09 631.03 377.89 631.49 380.41 631.5 382.19 632.26 384.69 632.14 386.96 631 390.62 631.03 Z" id="37030410"/>
<path d="M 107.96 484.87 107.83 488.43 108.91 490.22 109.02 492.75 110.24 495.84 115.81 499.48 117.72 501.85 120.51 501.63 122.83 502.16 127.85 502.27 129.62 501.48 133.45 502.14 135.69 502.02 140.11 505.13 141.74 506.02 144.56 509.98 147.2 512.13 149.53 513.6 150.3 514.61 152.75 514.65 155.06 513.34 155.9 515.04 155.64 518.96 155.98 520.47 158.14 521.95 159.89 524.31 165.01 528.6 166.62 532.91 167.01 537.37 167.68 539.61 168.55 539.91 169.78 544.1 169.47 546.26 170.75 548.05 170.5 551.34 171.55 551.98 172 553.3 171.2 554.65 170.87 559.18 170.79 563.62 171.99 566.22 172.95 566.78 176.39 565.92 179.26 565.74 181.83 567.4 184.58 566.7 186.47 566.97 188.38 566.62 188.99 567.47 191.37 567.74 191.82 569.71 194.34 571.28 197.24 572.18 197.76 575.65 200.79 578.13 203.22 579.17 204.87 581.26 207.3 582.13 208.87 582.12 211.07 583.25 214.21 583.04 219.04 584.33 221.35 586.6 223.31 586.9 223.55 590.12 225.91 592.02 227.31 593.6 226.82 595.81 227.17 597.5 228.08 597.64 232.43 600.16 233.81 604.5 236.08 604.43 239.13 606.89 239.6 608.78 241.27 610.34 242.47 610.33 242.19 613.34 243.84 617.03 244.72 620.21 244.6 622.28 245.24 623.59 246.76 628.74 246.95 632.13 247.77 633.35 249.05 637.1 248.12 637.68 248.45 639.15 242.95 640.82 241.39 640.63 243.06 647.8 243.73 649.68 245.08 651.19 248.65 651.29 249.98 650.9 251.89 651.81 252.4 654.93 253.95 657.05 251.19 660.43 249.8 660.68 248.4 662.54 246.55 662.91 245.18 662.38 244.11 661.16 242.83 661.13 241.85 659.77 240.91 659.62 239.77 662.19 239.95 664.23 238.84 665.78 239.67 666.75 239.61 668.78 240.57 670.26 241.99 670.63 241.85 673.02 243.26 674.79 244.54 675.44 244.5 676.51 243.32 677.7 241.88 677.9 238.46 676.65 237.09 674.79 236.06 675.74 234.39 675.97 233.8 676.88 230.32 677.17 227.14 678.04 225.68 679.31 225.48 680.29 223.44 679.79 222.27 678.01 220.26 677.37 219.03 676.46 218.81 675.34 217.16 674.49 214.14 677.81 211.77 679.69 210.74 679.08 208.28 680.01 206.76 679.51 203.65 682.69 200.51 683.03 199.97 681.14 199.2 680.62 196.63 680.77 194.95 679.68 193.93 680.13 192.23 679.46 191.45 677.6 187.79 676.25 186.49 674.9 185.73 672.53 182.13 671.72 181.13 674.7 178.66 674.7 177.5 676.72 175.22 679.52 175.65 682.28 174.55 682.99 173.41 681.69 171.87 680.91 170.08 681.26 168.8 680.28 166.09 681.76 164.82 680.48 162.36 680.77 161.62 682.36 159.78 682.66 156.37 688.26 151.72 688.83 150.91 689.73 147.53 687.32 148.03 685.13 144.74 682.7 144.21 680.84 140.11 675.91 137.91 675.91 136.17 677.07 134.25 677.09 131.86 678.06 128.3 677.58 125.91 673.83 123.85 673.37 122.73 674.34 122.64 676.1 121.75 677.91 120.19 679.81 118.51 680.42 114.47 683.76 110.33 684.65 108.49 683.97 104.93 684.23 104.27 685.86 103.59 689.29 101.76 691.37 100.38 693.86 98.67 693.63 96.97 694.51 95.65 695.91 95.64 696.94 93.96 698.16 93.6 699.03 91.95 698.77 90.05 700.41 89.29 703.75 87.1 707.22 87.27 708.76 86.42 709.69 84.67 709.46 82.8 708.2 79.21 711.24 78.72 712.47 74.92 713.32 74.09 714.33 72.92 717.76 70.17 719.07 68.37 716.66 67.7 714.37 63.33 712.21 62.25 711.35 60.9 708.81 59.23 708.23 56.14 707.87 55.42 706.68 55.18 702.75 52.93 701.39 52 698.58 52.38 694.05 51.62 692.84 51.28 690.7 48.76 689.08 48.19 687.42 48.92 684.3 48.73 679.12 47.65 675.94 45.54 674.5 43.7 669.46 41.68 667.59 41.38 665.17 42.51 661.85 42.35 658.33 41.36 653.54 39.03 651.81 33.86 651.53 28.66 649.04 29.27 646.02 30.84 644.14 32.52 640.58 34.93 638.27 37.09 637.47 37.08 635.63 35.29 632.52 33.12 630.75 31.7 630.17 26.63 624.93 24.88 623.79 23.47 622.26 22.46 620.05 17.9 619.39 15.4 617.23 12.34 615.62 9.74 615.84 8.17 613.91 5.49 612.33 2.01 609.42 2.45 604.15 3.3 601.89 5.14 600.57 6.94 599.89 7.6 596.48 6.63 592.02 6.71 590.23 6.22 587.68 4.1 586.51 3.27 585.34 1.94 581.63 2.31 578.03 2.02 575.43 2.33 573.46 2.01 569.83 1.31 568 1 565.48 1.32 562.54 2.02 560.75 2.08 558.05 2.79 556.7 2.93 553.56 3.68 550.27 4.67 548.18 10.78 543.87 16.11 537.33 15.91 534.23 15.99 527.45 18.71 524.89 18.53 519.23 21.09 519.61 23.59 521.95 25.51 521.57 28.15 519.52 31.14 518.78 35.38 515.02 38.48 515.69 41.64 515.65 42.29 514.07 46 513.48 51.96 511.49 52.58 510.88 52.51 509.01 53.04 508.13 53.13 504.84 53.63 503.99 53.4 501.5 56.46 497.84 58.22 493.93 61.63 490.84 61.65 490.12 63.73 486.9 66.22 484.67 68.79 485.07 71.21 483.15 72.73 480.95 75.11 478.71 77.22 475.77 78.62 476.85 79.54 476.75 83.33 477.49 85.19 476.54 89.34 478.51 91.49 479.19 93.88 479.35 96.06 481.75 98.63 483.04 100.24 485.6 103.29 487.13 106.65 485.16 107.96 484.87 Z" id="37030420"/>
<path d="M 225.48 680.29 224.55 682.66 225.13 685.36 226.13 686.69 225.47 687.82 226.18 689.18 225.85 690.35 226.76 692.01 226.31 693.43 224.92 694.2 224.21 698.7 226.09 700.24 229.02 700.74 230.97 702.2 232.89 702.43 235.7 703.6 236.64 705.5 237.68 706.34 239 704.9 241.89 704.46 243.45 706.6 244.54 706.34 246.87 707.32 247.78 705.98 248.03 703.59 251.08 703.16 251.93 705.17 251.95 707.79 251.37 710.56 250.21 712.36 250.86 714.37 251.92 714.89 252.76 716.38 252.21 718.26 252.25 720.11 253.48 724.25 253.38 725.15 254.76 729.09 253.05 732.85 248.33 737.52 247.78 739.81 248.24 740.6 245.78 744.41 243.99 745.97 242.14 748.39 240.54 749.63 241.12 751.38 240.91 753.36 241.64 754.28 241.56 756.96 243.31 759.75 244.38 760.47 243.28 764.03 244.95 769.55 243.06 774.21 240.47 776.21 240.53 781.16 240.11 783.8 239.22 784.89 238.66 787.59 239.73 790.16 240.51 790.97 240.72 793.92 241.18 795.14 240.54 796.66 240.81 798.75 243.15 802.23 242.44 804.38 242.85 805.36 240.87 806.4 240.9 808.68 239.45 809.23 238.55 810.99 238.68 813.09 237.94 814.53 238.36 815.48 235.14 819.2 234.62 820.35 236.55 822 236.72 824.47 233.77 826.28 232.37 826.26 232.53 827.85 230.4 831.49 230.77 833.12 229.29 834.29 226.45 833.98 227.03 835.43 226.54 837.27 224.99 838.92 225.11 841.81 224.13 845.23 222.62 846.46 222.74 847.79 221.78 850.07 221.35 856.02 220.63 856.69 220.8 858.6 219.59 861.57 217.9 863.89 215.21 864.91 213.27 868.22 211.58 870.23 210.26 873.33 208.49 876.42 208.84 880.48 208.06 881.29 207.48 884.89 207.48 886.87 208.26 888.31 207.64 891.23 210.99 894.47 211.26 896.54 210.56 898.14 211.96 899.36 210.91 902.26 211.18 903.49 209.92 904.87 210.24 906.01 209.11 909.67 210.01 911.19 208.52 914.86 207.04 916.21 206.13 918.43 205.12 919.24 204.14 923.14 204.44 926.73 201.55 928.87 197.19 933.94 195.09 936.97 194.42 938.62 192.63 940.57 189.99 942.28 188.5 942.34 184.58 941.71 183.48 941.01 181.53 939.97 179.79 938.05 176.32 935.72 172.28 935.83 168.42 934.86 167.64 933.72 165.99 932.87 165.73 929.61 164.93 928.9 164.01 925.77 164.07 924.71 162.83 923.52 158.82 923.78 157.17 922.83 154.76 922.46 152.66 922.89 150.08 922.83 149.18 921.76 147.6 921.74 146.91 920.58 144.9 920.55 142.18 924.65 139.18 925.11 138.28 927.15 136.86 928.8 136.19 930.99 135.5 931.57 134.95 933.96 132.97 935.59 130.26 937.15 123.63 935.76 121.55 935.63 118.08 937.29 116.18 936.04 115.05 936.18 112.95 934.65 109.36 934.33 107.85 933.13 105.12 933.23 103.77 934.27 99.29 934.95 98.81 933.05 99.28 931.8 101.9 928.44 103.53 929.29 105.76 929.38 107.84 927.51 109.66 927.08 110.71 925.49 110.74 920.99 112.65 917.15 113.06 914.91 112.35 912.08 111.23 910.38 111.38 909.36 110.4 908.31 110.2 906.23 108.43 904.83 107.11 904.63 105.83 902.06 104.63 900.88 104.93 898.77 105.89 897.18 105.43 895.58 106.63 893.1 105.21 891.54 105.15 889.44 103.78 886.05 104.35 883.95 106.66 883.19 107.13 881.72 105.3 879.88 104.39 877.1 103.04 875.66 101.41 875.14 99.24 875.81 98.19 874.29 95.42 874.13 93.23 872.72 91.86 867.96 91.56 865.83 89.59 862.8 87.4 858.38 85.94 856.84 84.87 854.78 85.2 852.31 87.2 850.03 86.67 848.31 81.94 850.87 79.83 850.8 79.12 852.11 76.09 854.23 74.63 854.05 72.82 854.67 72.64 856.16 70.42 856.39 67.5 856.14 62.63 857.54 60.89 856.28 59.9 854.86 55.28 854.37 54.51 855.07 54.19 857.72 53.09 858.9 52.28 861.6 49.57 862.6 48.65 861.28 46.48 861.05 40.86 862.08 39.35 863.22 37.97 863.49 37.25 862.85 33.47 857.61 32.8 855.34 30.31 853.62 27.94 850.76 25.44 850.1 24.61 849.1 21.42 849.07 20.93 845.88 21.86 843.87 20.43 842.81 21.05 839.71 20.68 838.06 18.13 837.41 17.44 835.4 19.37 833.26 19.81 830.14 16.34 825.83 17.8 821.24 18.05 819.64 20.95 815.57 21.59 810.95 22.86 808.16 26.8 805.23 26.68 802.68 27.24 799.85 27.14 798.56 22.65 795.13 20.15 792.94 16.64 788.73 16.01 785.96 17.04 784.33 17.67 781.8 18.61 775.88 16 770.12 15.89 766.47 17.69 763.85 21.61 760.84 23.04 760.17 26.31 759.71 30.33 759.48 33.84 758.28 36.62 756.52 39.32 754.41 41.03 753.98 42.66 750.45 43.95 748.79 47.11 746.06 48.96 745.41 50.25 744.09 52.75 743.04 56.92 740.29 59.75 739.38 60.89 738.6 63.62 738 65.12 736.64 63.92 731.53 64.41 729.98 66.68 728.46 67.89 726.62 70.17 719.07 72.92 717.76 74.09 714.33 74.92 713.32 78.72 712.47 79.21 711.24 82.8 708.2 84.67 709.46 86.42 709.69 87.27 708.76 87.1 707.22 89.29 703.75 90.05 700.41 91.95 698.77 93.6 699.03 93.96 698.16 95.64 696.94 95.65 695.91 96.97 694.51 98.67 693.63 100.38 693.86 101.76 691.37 103.59 689.29 104.27 685.86 104.93 684.23 108.49 683.97 110.33 684.65 114.47 683.76 118.51 680.42 120.19 679.81 121.75 677.91 122.64 676.1 122.73 674.34 123.85 673.37 125.91 673.83 128.3 677.58 131.86 678.06 134.25 677.09 136.17 677.07 137.91 675.91 140.11 675.91 144.21 680.84 144.74 682.7 148.03 685.13 147.53 687.32 150.91 689.73 151.72 688.83 156.37 688.26 159.78 682.66 161.62 682.36 162.36 680.77 164.82 680.48 166.09 681.76 168.8 680.28 170.08 681.26 171.87 680.91 173.41 681.69 174.55 682.99 175.65 682.28 175.22 679.52 177.5 676.72 178.66 674.7 181.13 674.7 182.13 671.72 185.73 672.53 186.49 674.9 187.79 676.25 191.45 677.6 192.23 679.46 193.93 680.13 194.95 679.68 196.63 680.77 199.2 680.62 199.97 681.14 200.51 683.03 203.65 682.69 206.76 679.51 208.28 680.01 210.74 679.08 211.77 679.69 214.14 677.81 217.16 674.49 218.81 675.34 219.03 676.46 220.26 677.37 222.27 678.01 223.44 679.79 225.48 680.29 Z" id="37030430"/>
<path d="M 333.33 740.95 331.64 743.36 330.24 744.07 329.67 745.25 328.29 745.96 328.69 748.6 327.6 750.47 327.11 752.44 325.1 753.84 324.64 755.13 325.46 756.95 325 758.03 325.95 760.88 326.02 762.67 326.69 763.35 324.94 765.07 325.83 767.65 325.67 768.59 327.03 771.54 328.51 771.69 329.36 773.22 332.37 773.74 332.53 774.49 330.67 778.93 329.97 778.85 328.52 783.55 331.44 786.34 333.61 787.56 334.29 788.77 336.09 790.01 340.13 793.73 342.24 797.68 341.66 799.5 342.06 800.8 341.4 802.68 344.1 807.29 346.28 807.29 351.65 812.85 349.83 814.08 348.58 816.73 346.51 817.83 344.11 818.09 343.38 819.98 345.41 825.32 348.5 827.88 352.17 829.44 356.45 832.94 357.68 834.94 362.92 839.18 362.7 841.93 361.92 844.64 362.68 845.68 363.09 847.97 361.21 855.31 365.55 860.19 367.37 862.63 367.97 866.7 369.39 872.89 371.64 877.17 376.46 879.1 378.91 880.86 380.21 882.83 383.3 886.28 386.2 888.54 388.85 891.46 393.32 892.9 396.98 892.54 401.69 893.01 400.04 896.92 398.51 899.61 395.13 902 391.15 909.24 388.75 911.36 386.51 914.45 384.59 917.68 381.25 918.97 382.83 921.82 382.87 926.44 382.43 929.26 382.72 932.55 381.4 935.82 380.11 936.71 379.84 939.64 378.64 942.45 376.8 943.93 376.7 945.59 377.46 948.77 382.37 957.54 384.96 960.1 385.38 962.27 384.52 964.94 384.94 966.83 384.69 968.91 382.04 969.41 378.77 970.59 377.61 970.07 376.78 968.72 374.91 968.73 372.61 966.47 370.4 965.5 368.85 967.67 367.88 967.94 363.16 971.3 361.04 973.77 356.72 976.56 355.16 980.73 353.86 981.52 352.42 981.6 349.89 983.08 346.65 983.38 342.52 981.61 341.53 983.12 339.59 983.96 339.21 986.28 338.26 989.21 336.59 992.02 334.22 991.88 332.82 991.36 329.58 991.4 324.61 988.84 321.09 988.96 319.82 987.82 318.34 987.34 315.62 985.16 313.59 984.24 311.65 982.65 305.68 981.02 303.25 979.89 299.66 979.69 298.46 979.26 295.31 979.14 293.19 979.62 289.9 981.76 286.93 984.82 285.02 985.56 283.68 985.18 281.38 985.29 279.99 984.22 277.65 984.91 275.28 986.07 272.3 986.6 270.61 988.22 267.57 989.88 266.23 991.74 262.44 992.8 261.62 995 258.84 993.82 254.37 990.79 253.06 988.51 252.2 985.59 250.41 983.55 248.88 983.27 247.32 981.96 246.91 980.85 243.43 980.18 242.58 979.45 237.64 978.52 233.62 976.53 232.63 975.19 231.52 969.66 229.19 967.85 226.93 965 225.78 962.48 225.04 962.51 223.6 959.55 221.7 956.34 221.96 954.39 220.83 951.99 219.02 950.71 215.16 944.52 213.53 942.23 213.5 937.84 212.45 936.17 211.2 935.23 210.34 932.68 209.35 930.91 209.12 929.2 206.14 928.84 204.44 926.73 204.14 923.14 205.12 919.24 206.13 918.43 207.04 916.21 208.52 914.86 210.01 911.19 209.11 909.67 210.24 906.01 209.92 904.87 211.18 903.49 210.91 902.26 211.96 899.36 210.56 898.14 211.26 896.54 210.99 894.47 207.64 891.23 208.26 888.31 207.48 886.87 207.48 884.89 208.06 881.29 208.84 880.48 208.49 876.42 210.26 873.33 211.58 870.23 213.27 868.22 215.21 864.91 217.9 863.89 219.59 861.57 220.8 858.6 220.63 856.69 221.35 856.02 221.78 850.07 222.74 847.79 222.62 846.46 224.13 845.23 225.11 841.81 224.99 838.92 226.54 837.27 227.03 835.43 226.45 833.98 229.29 834.29 230.77 833.12 230.4 831.49 232.53 827.85 232.37 826.26 233.77 826.28 236.72 824.47 236.55 822 234.62 820.35 235.14 819.2 238.36 815.48 237.94 814.53 238.68 813.09 238.55 810.99 239.45 809.23 240.9 808.68 240.87 806.4 242.85 805.36 242.44 804.38 243.15 802.23 240.81 798.75 240.54 796.66 241.18 795.14 240.72 793.92 240.51 790.97 239.73 790.16 238.66 787.59 239.22 784.89 240.11 783.8 240.53 781.16 240.47 776.21 243.06 774.21 244.95 769.55 243.28 764.03 244.38 760.47 245.46 758.38 249.97 757.06 253.42 757.74 255.19 757.45 258.77 757.77 261.09 756.18 261.75 754.95 263.22 754.49 264.5 754.87 268.98 752.27 270.1 751.9 270.69 750.11 273.07 749.54 273.97 748.85 274.21 746.47 278.92 745.02 280.35 745.61 282.33 745.46 284.42 746.76 288.88 746.67 290.32 745.37 290.82 740.84 292.7 739.94 293.22 738.39 295.32 736.96 296.85 736.57 299.09 737.04 301.6 736.64 304.33 735.69 304.93 737.64 306.46 738.32 309.71 736.91 313.61 737.62 315.18 738.34 318.53 737.64 318.52 738.73 320.95 740.96 322.6 740.75 324.81 741.25 326.34 740.44 329.14 740.52 330.79 739.21 332.44 739.8 333.33 740.95 Z" id="37030440"/>
<path d="M 471.59 327.99 466.27 335.74 465.05 337.32 464.51 343.29 466.45 343.66 466.38 349.59 467.28 357.9 467.45 364.58 467.75 367.69 467.82 376.2 466.15 380.6 465.54 382.93 464.61 384.4 462.93 388.66 462.17 391.32 461.15 397.41 459.52 400.9 459.54 408.04 458.78 412.3 458.94 417.58 455.21 418.06 454.7 414.69 453.47 412.54 450.79 406.43 449.15 405.78 448.31 403.89 447.41 404.65 444.81 404.12 442.9 406.08 441.44 406.4 440.86 407.73 437.17 409.44 436.22 410.74 434.07 411.5 433.53 412.26 431.29 412.69 429.46 410.16 427.72 408.54 426.36 409.86 424.49 409.95 421.96 408.81 419.93 407.26 419.94 405.03 421.5 402.62 420.7 401.34 420.03 397.23 419.29 396.23 419.19 393.65 417.22 392.42 414.88 393.99 414.02 392.9 411.16 394.11 410.16 392.97 408.35 392.4 405.94 393.43 404.03 393.01 403.84 392.3 400.57 391.5 399.43 390.03 400.06 388.44 396.82 386.63 395.42 383.07 395.59 379.1 392.12 373.2 392.17 371.74 393.04 370.37 392.7 369.28 393.57 366.37 392.45 366.06 392.29 364.08 396.12 362.73 397.09 360.48 399.75 359.01 400.76 358.99 402.27 357.7 403.95 357.46 406.49 355.01 408.98 353.28 410.72 353.46 412.44 352.31 413.54 352.34 415.92 350.48 417.23 350.98 418.48 352.45 419.52 351.92 422.71 351.86 424.07 354.4 428.81 352.25 431.14 353.01 434.88 350.87 437.18 348.52 438.22 347.91 442.14 345.89 442.58 342.18 444.85 339.87 447.99 339.75 449.42 339.34 452.3 336.95 453.05 335.18 453.11 333.63 454.11 332.36 454.05 330.83 455.27 328.64 457.49 326.23 458.59 326.57 462.21 324.92 462.37 322.7 471.59 327.99 Z" id="37030550"/>
<path d="M 506.02 235.78 511.21 239.13 513.39 241.6 512.91 242.86 510.31 246.64 509.84 249.2 510.33 252.01 511.38 253.04 512.12 255.47 513.17 257.18 516.99 260.51 517.39 263.26 519.27 265.76 521.14 267.48 524.53 269.85 522.07 274.13 521.68 275.49 522.08 279.54 519.49 281.86 514.61 284.55 508.2 287.33 504.31 290.25 499.91 292.16 493.91 294.44 491.66 296.07 487.42 300.24 483.75 302.45 482.45 302.77 480.02 304.51 478.57 306.17 476.7 304.54 472.49 300.33 472.24 300.85 468.45 298.69 466.74 296.55 465.28 295.65 462.78 295.28 461.2 295.5 459.7 296.89 456.35 299.17 454.12 300.36 451.96 300.51 449.18 299.37 443.09 295.33 440.43 293.37 437.87 292.17 434.76 292.24 431.51 293.16 429.24 294.78 425.57 296.41 421.36 297.3 417.49 298.81 414.02 299.32 409.25 299.68 405.52 302.22 403.2 303.01 399.89 302.74 397.29 301.04 395.58 299.09 393.21 295.06 389.88 293.56 387.3 293.38 383.79 294.63 380.87 294.36 379.43 293.07 377.58 290.1 376.45 288.82 373.23 287.83 371.13 287.54 368.94 287.73 363.35 287.02 362.88 285.03 360.31 282.23 358.35 281.99 357.84 278.65 358.19 276.71 360.24 275.31 361.26 273.74 361.29 271.91 362.22 269.28 360.2 266.75 361.09 264.05 360.7 262.76 359.59 262.21 360.22 260.45 361.38 258.95 363.32 257.3 363.95 254.96 365.23 253.46 365.4 252.06 366.4 250.8 369.23 248.44 369.5 246.66 371.79 246.3 373.97 244.64 374.07 242.53 376.31 241.53 376.23 240.63 377.29 238.88 376.04 235.99 377.5 233.51 378.31 231.3 379.34 229.89 378.53 229.15 379.04 226.98 378.99 225.15 380.46 223.38 379.97 222.74 379.81 219.94 378.97 215.94 379.24 213.44 380.22 211.54 381.62 210.56 382.41 208.17 383.31 207.12 384.71 206.69 384.09 204.96 385.31 200.67 387.33 201.78 389.61 201.79 391.61 203.48 394.84 203.39 397.55 202.71 403.35 204.93 405.87 207.02 406.48 210.55 408.35 214.28 410.01 215.39 409.35 219.22 411.65 220.77 413.03 222.65 416.79 223.29 417.84 224.3 418.14 228.68 419.43 229.58 423.45 230.73 424.54 232.1 426.6 231.81 428.37 230.92 429.34 229.51 431.22 229 432.33 230.25 433.31 233.92 432.6 236.66 434.83 239.21 436.76 242.47 438.74 244.2 441.12 240.73 441.28 239.91 442.85 238.52 444.95 237.89 447.28 238.14 451.24 240.5 453.36 240.32 455.14 240.94 456.39 239.65 457.59 239.99 460.28 239.63 461.59 237.84 461.41 236.07 463.03 233.74 462.57 229.99 463.04 228.44 465.51 229.07 466.49 229.74 467.92 232.4 468.31 233.8 470.17 233.96 473.24 233.43 474.67 233.96 475.73 233.59 478.8 234.58 481.2 234.47 482.58 235.25 484.83 233.98 485.86 236.99 487.38 237.39 489.5 236.35 492.99 235.97 495 234.49 496.44 234.98 498.39 234.84 501.38 233.07 503.31 234.16 504.3 235.5 506.02 235.78 Z" id="37030560"/>
<path d="M 425.57 296.41 427.67 301.19 431.23 304.75 432.43 306.32 433.2 308.79 434.22 309.53 434.39 310.98 433.87 312.5 435.27 314.76 437.63 314.29 436.52 318.55 436.37 320.29 437.03 321.39 438.78 322.74 439.21 324.16 437.48 328.58 435.75 329.76 435.33 332.52 435.8 334.13 435.71 336.18 436.74 338.34 437.14 342.41 438.36 345.41 438.22 347.91 437.18 348.52 434.88 350.87 431.14 353.01 428.81 352.25 424.07 354.4 422.71 351.86 419.52 351.92 418.48 352.45 417.23 350.98 415.92 350.48 413.54 352.34 412.44 352.31 410.72 353.46 408.98 353.28 406.49 355.01 403.95 357.46 402.27 357.7 400.76 358.99 399.75 359.01 397.09 360.48 396.12 362.73 392.29 364.08 392.45 366.06 390.67 366.28 388.12 368.28 386.65 367.77 384.78 368.69 382.01 371.92 379.51 374.09 374.3 375.93 373.51 375.11 369.09 374.82 368.32 373.83 366.64 374.12 365.39 373.49 363.31 373.41 362.06 374.06 359.2 374.15 358.22 375.27 354.19 377.17 352.91 374.67 355.15 370.39 355.01 367.2 354.13 366.42 353.98 364.93 347.97 360.72 347.01 358.97 344.83 357.72 343.55 356.03 343.58 354.55 345.06 352.35 344.22 351.05 344.73 349.14 342.92 348.87 341.29 347.23 341.45 345.69 339.62 343.35 336.8 342.98 335.94 340.63 336.33 338.89 335.55 337.83 336.59 336.93 337.31 333.81 338.76 330.69 339.06 328.93 340.62 326.12 339.33 325.02 340.1 323.26 342.28 320.95 343.69 315.86 343.51 314.68 347.73 309.95 349.88 308.02 353.25 307.71 354.46 303.9 356.03 301.89 358.16 300.44 359.96 298.71 360.1 297.48 366.27 296.34 369.76 294.28 371.54 294.15 373.44 292.58 374.81 289.6 376.45 288.82 377.58 290.1 379.43 293.07 380.87 294.36 383.79 294.63 387.3 293.38 389.88 293.56 393.21 295.06 395.58 299.09 397.29 301.04 399.89 302.74 403.2 303.01 405.52 302.22 409.25 299.68 414.02 299.32 417.49 298.81 421.36 297.3 425.57 296.41 Z" id="37030580"/>
<path d="M 509.88 369.57 508.25 368.34 506.03 367.88 504.93 366.12 505.46 364.78 505.69 362.1 504.84 358.55 502.97 357.7 501.24 354.73 499.12 356.56 498.62 357.92 497.22 359 496.24 360.83 495.03 361.85 493.1 361.96 490.99 363.08 490.11 363.01 486.63 364.87 484.82 365.24 483.58 364.78 483.03 363.66 480.77 361.97 477.88 363.7 475.65 362.75 474.28 363.26 473.28 365.02 470.22 365.78 469.79 364.58 467.45 364.58 467.28 357.9 466.38 349.59 466.45 343.66 464.51 343.29 465.05 337.32 466.27 335.74 471.59 327.99 473.64 326.05 475.42 323.01 476.07 320.62 476.34 309.93 475.82 308.19 476.7 304.54 478.57 306.17 480.02 304.51 482.45 302.77 483.75 302.45 487.42 300.24 491.66 296.07 493.91 294.44 499.91 292.16 504.31 290.25 508.2 287.33 514.61 284.55 519.49 281.86 522.08 279.54 524.92 280.07 527.51 279.78 530.93 278.38 535.25 275.81 537.74 273.93 541.07 274.05 540.69 275.17 537.37 278.36 535.88 280.13 534.09 281.6 532.32 284.33 531.65 288.29 529.99 289.52 532.04 293.48 532.24 295.4 530.4 297.27 529.39 298.93 526.35 300.04 525.51 303.1 527.47 308.01 528.88 309.69 527.8 312.65 527.4 315.27 527.53 319.83 528.67 320.99 530.45 319.71 536.12 318.16 537.87 316.25 537.25 321.74 533.71 322.75 533.2 323.98 534.92 325.73 535.59 327.16 535.36 330.21 535.85 331.39 537.88 332.99 540.04 335.34 540.86 338.07 538.3 337.24 532.24 334.75 530.22 339.68 530.78 340.59 530.13 342.3 530.89 343.83 530.37 344.57 529.99 347.25 527.3 350.19 526.44 351.84 528.48 354.4 528.34 355.36 526.17 358.15 525.82 359.95 526.41 362.17 524.66 364.2 524.77 368.16 522.84 368.33 518.4 366.75 514.59 366 512.27 368.56 509.88 369.57 Z" id="37030590"/>
<path d="M 567.08 331.17 557.48 327.74 555.24 322.19 554.6 315.68 552.73 310.53 555.67 309.22 559.01 308.13 559.99 303.47 561.12 301.32 563.69 299.45 564.98 289.25 566.98 287.9 568.77 292.53 570.51 292.76 570.89 290.62 576 290.98 576.85 290.43 579.33 291.05 580.94 290.02 583.42 289.18 586.51 286.87 589.04 283.97 592.46 283.66 596.13 284.09 597.2 285.81 598.43 285.89 599.86 288.1 601.43 288.81 603.1 291.04 604.92 291.74 605.55 293.67 605.35 294.84 617.05 297.39 616.37 300.57 615.26 300.56 614.17 303.6 612.66 304.73 610.78 305.19 610.51 306.47 607.62 306.32 607.78 309.31 597.03 319.11 595.31 319.95 592.61 322.44 590.65 323.85 586.51 325.17 582.51 325.79 579.37 325.24 582.47 333.83 583.4 335.17 581.48 336.32 567.08 331.17 Z" id="37030620"/>
<path d="M 476.7 304.54 475.82 308.19 476.34 309.93 476.07 320.62 475.42 323.01 473.64 326.05 471.59 327.99 462.37 322.7 454.95 318.56 453.44 317.31 453.01 316.17 453.63 314.99 453.49 307.52 453.84 300.66 454.12 300.36 456.35 299.17 459.7 296.89 461.2 295.5 462.78 295.28 465.28 295.65 466.74 296.55 468.45 298.69 472.24 300.85 472.49 300.33 476.7 304.54 Z" id="37030600"/>
<path d="M 462.37 322.7 462.21 324.92 458.59 326.57 457.49 326.23 455.27 328.64 454.05 330.83 454.11 332.36 453.11 333.63 453.05 335.18 452.3 336.95 449.42 339.34 447.99 339.75 444.85 339.87 442.58 342.18 442.14 345.89 438.22 347.91 438.36 345.41 437.14 342.41 436.74 338.34 435.71 336.18 435.8 334.13 435.33 332.52 435.75 329.76 437.48 328.58 439.21 324.16 438.78 322.74 437.03 321.39 436.37 320.29 436.52 318.55 437.63 314.29 435.27 314.76 433.87 312.5 434.39 310.98 434.22 309.53 433.2 308.79 432.43 306.32 431.23 304.75 427.67 301.19 425.57 296.41 429.24 294.78 431.51 293.16 434.76 292.24 437.87 292.17 440.43 293.37 443.09 295.33 449.18 299.37 451.96 300.51 454.12 300.36 453.84 300.66 453.49 307.52 453.63 314.99 453.01 316.17 453.44 317.31 454.95 318.56 462.37 322.7 Z" id="37030610"/>
<path d="M 358.16 300.44 356.03 301.89 354.46 303.9 353.25 307.71 349.88 308.02 347.73 309.95 343.51 314.68 343.69 315.86 342.28 320.95 340.1 323.26 339.33 325.02 340.62 326.12 339.06 328.93 338.76 330.69 337.31 333.81 336.59 336.93 335.55 337.83 336.33 338.89 335.94 340.63 336.8 342.98 339.62 343.35 341.45 345.69 341.29 347.23 342.92 348.87 344.73 349.14 344.22 351.05 345.06 352.35 343.58 354.55 343.55 356.03 344.83 357.72 347.01 358.97 347.97 360.72 353.98 364.93 354.13 366.42 355.01 367.2 355.15 370.39 352.91 374.67 354.19 377.17 352.29 380.86 351.83 383.14 350.25 385.72 350.3 386.33 348.74 389 346.97 390.23 346.9 391.85 346.11 393.61 343.26 396.39 340.33 395.99 338.41 394.07 335.83 393.86 333.97 393.28 333.58 392.14 331.52 392.5 329.94 391.42 326.99 391.89 324.38 393.3 322.09 391.42 319.75 392.91 319.19 394.9 318.41 394.86 313.18 397.71 311.89 397.95 309.19 397.63 306.8 396.86 303.56 399.5 303.2 400.56 301.7 401.05 301.06 403.09 299.55 403.64 298.86 405.19 297.32 405.82 298.08 409.06 296.8 410.41 294.32 411.16 292.99 412.48 291.36 415.65 289.21 417.9 287.44 420.3 287.54 422.42 287.08 423.19 286.82 426.12 285.73 427.77 283.55 429.07 283.01 431.69 281.44 433.52 280.34 437.49 278.45 440.98 279.07 443.99 278.75 445.46 277.74 446.75 277.93 447.94 277.19 450.44 277.5 455.23 275.95 458.02 271.7 459.55 270.7 461.32 267.93 463.91 267.24 466.62 265.16 468.98 264.29 468.73 262.36 470.08 260.78 471.76 260.77 474.73 256.8 475.84 255.21 474.17 253.41 475.25 251.84 475.05 249 476.52 248.06 476.51 245.19 474.88 241.75 474.26 238.27 474.35 236.73 475.91 235.24 474.73 234.87 473.52 233.64 472.32 233.26 471.11 231.74 468.91 229.42 468.2 227.04 469.39 225.63 469.61 222.09 467.39 220.1 467.43 217.53 464.86 215.95 464.09 214.76 464.46 211.31 467.08 210.4 468.64 208.33 470.84 208.21 472.51 205.22 474.38 202.04 474.58 198.16 474.25 196.65 474.43 195.56 473.84 195.62 472.44 193.18 472.22 189.4 468.52 189.17 467.06 187.92 465.37 185.67 463.39 184.87 460.82 181.65 459.96 179.54 458.42 176.53 457.27 174.83 455.53 172.79 455.04 171.89 453.19 170.15 452.02 166.74 447.69 164.13 446.22 161.31 445.11 161.07 442.4 160.61 441.38 161.33 439.39 160.38 438.29 160.4 435.97 160.87 432.22 160.47 429.87 162.04 425.61 162.03 422.49 160.69 419.77 160.29 416.79 161.13 415.11 161.63 409.07 160.43 408.71 160.63 407.03 159.89 404.54 159.96 403 157.16 402.13 155.96 398.61 155.61 390.84 157.51 387.35 157.65 382.47 159.64 382.35 162.38 381.08 166.85 379.97 167.57 376.16 167.26 372.88 170.53 369.05 172.84 365.36 174.28 362.4 174.8 359.57 172.81 352.82 168.65 347.07 168.12 345.05 168.58 342.2 167.52 340.05 170.28 334.12 170.09 332.46 169.91 330.78 170.39 327.94 172.1 325.26 175.72 321.59 176.61 319.04 181.88 319.03 184.3 318.02 187.65 317.27 189.59 316.1 191.06 313.01 192.35 311.2 196.66 310.84 202.54 305.35 207.76 304.48 209.47 302.69 210.7 299.11 209.32 296.88 210.4 294.51 211.38 293.8 211.05 290.84 210.13 289.28 210.24 288.21 209.18 284.97 208.48 284.38 208.52 282.06 209.6 280.75 208.43 277.76 208.25 274.85 209.35 273.39 209.4 271.59 211.71 267.66 209.46 265.33 209.09 261.44 208.47 259.8 210.04 257.75 212.77 255.96 214.7 253.38 213.98 251.5 214.53 250.41 217.16 249.37 219.41 249.34 219.38 247.83 221.46 246.5 222.47 246.41 224.62 243.72 225.72 244.66 226.94 247.25 228.86 249.56 228.95 250.62 231.34 253.37 234.01 254.79 235.44 256.03 235 258.71 236.92 259.59 238.79 261.4 240.88 260.71 242.17 261 246.59 264.16 246.71 265.86 247.9 266.92 254.01 266.64 256.74 267.53 260.64 265.51 262.27 265.49 262.93 268.31 265.85 269.61 268.02 271.8 267.49 273.81 268.39 275.65 268.82 278.8 268.67 280.47 267.91 281.49 268.95 282.97 271.71 283.82 273.63 283.07 278.17 285.89 278.49 286.89 284.52 286.8 286.43 288.93 289.15 290.54 290.32 289.08 290.15 288.19 292.05 286.5 294.44 287.67 298.14 288.75 295.87 292.72 296.37 295.38 295.59 295.89 297.77 297.47 301.9 294.97 305.49 294.06 307.89 292.68 309.63 292.14 314.93 292.16 322.47 293.83 326.41 293.33 328.02 293.95 328.94 293.37 331.3 294.3 334.8 294.49 336.72 295.24 341.58 294.5 347.27 295.72 347.26 296.52 350.58 297.61 353.1 299.89 354.14 300.08 356.29 299.47 358.16 300.44 Z" id="37030370"/>
<path d="M 509.88 369.57 509.54 372.48 509.95 373.15 509.7 375.96 507.96 379.61 507.51 383.8 507.99 385.95 509.95 387.04 511 392.47 512.09 395.49 511.87 396.88 509.95 398.69 511.37 399.64 512 401.09 511.3 401.76 513.4 403.66 513.24 406.49 511.84 412.36 512.38 415.84 512.61 420.76 514.22 422.26 517.27 424.24 519.8 425.08 521.54 426.64 520.23 434.99 521.03 439.91 523.66 439.85 524.64 442.01 527.19 441.89 529 444.92 531.92 445.08 533.52 447.72 533.8 448.88 535.56 451.09 537.45 451.39 538.17 452.34 539.11 456.28 542.28 456.74 544.26 458.58 544.48 462.55 543.82 464.2 546.89 466.61 547.19 468.5 549.98 468.82 550.16 470.72 551.75 472.57 551.37 473.22 552.04 475.72 554.47 479.46 555.87 484.47 556.1 486.21 557.62 488.91 558.02 491.03 557.65 493.24 555.99 495.46 556.35 498.5 556.18 500.8 554.82 503.01 553.6 506.13 553.85 510.42 554.4 511.7 552.29 514.44 548.57 517.23 546.09 518.71 545.66 519.77 542.94 521.63 541.53 520.33 538.79 520.52 536.78 519.05 535.82 518.98 533.7 516.83 532.61 516.77 528.74 515.52 525.72 516.32 521.41 517.86 519.49 519.14 516.68 519.11 515.32 522.07 512.22 524.82 511.73 527.36 510.43 527.76 509.12 528.95 509.34 531.32 508.6 533.32 506.86 534.46 503.57 534.81 501.35 536.18 497.34 534.96 493.96 534.6 491.64 535.46 489.36 534.14 484.67 532.99 481.56 533.81 480.54 533.32 477.96 527.11 473.03 523.26 470.12 519.45 468.69 516.13 466.29 512.39 466.21 509.68 465.46 507.87 465.46 506.01 466.1 503.36 466.26 498.24 465.2 495.05 463.96 494.04 456.39 491.4 453 483.14 451.68 479.59 450.57 474.86 446.99 466.6 446.12 453.79 446.32 449.96 447.6 445.81 449.28 441.57 450.65 438.75 452.63 435.68 455.23 433.13 456.74 428.02 458.29 424.72 459.03 421.42 458.94 417.58 458.78 412.3 459.54 408.04 459.52 400.9 461.15 397.41 462.17 391.32 462.93 388.66 464.61 384.4 465.54 382.93 466.15 380.6 467.82 376.2 467.75 367.69 467.45 364.58 469.79 364.58 470.22 365.78 473.28 365.02 474.28 363.26 475.65 362.75 477.88 363.7 480.77 361.97 483.03 363.66 483.58 364.78 484.82 365.24 486.63 364.87 490.11 363.01 490.99 363.08 493.1 361.96 495.03 361.85 496.24 360.83 497.22 359 498.62 357.92 499.12 356.56 501.24 354.73 502.97 357.7 504.84 358.55 505.69 362.1 505.46 364.78 504.93 366.12 506.03 367.88 508.25 368.34 509.88 369.57 Z" id="37030380"/>
<path d="M 778.94 198.74 780.18 201.7 782.51 203.32 784.21 205.03 784.09 205.78 785.22 209.08 784.39 210.75 781.69 212.07 779.18 217.74 778.8 219.26 779.79 221.63 779.04 224.68 779.06 226.29 777.61 229.04 776.59 233.09 774.87 233.5 773.58 235.32 771.55 234.64 770.33 235.64 770.31 239.17 769.39 244.17 766.21 248.87 766.37 250.34 769.6 252.79 768.4 254.77 769.83 257.28 769.97 259.35 768.99 262.11 769.49 264.41 768.2 264.75 766.11 266.3 765.89 268.2 764.5 269.72 767.35 271.2 769.39 273.99 771.6 274.67 771.94 276.6 774.73 278.17 783.93 284.74 787.11 287.54 783.72 293.07 779.81 296.51 778.19 298.56 774.26 301.6 770.39 308.29 767.6 312.8 763.47 316.44 760.42 321.14 758.99 325.54 757.96 326.92 754.94 328.44 753.24 330.54 751.22 334.62 751.02 336.37 751.67 337.68 751.04 339.39 750.57 342.49 750.71 346.08 749.71 348.19 749.57 349.61 748.06 352.12 748.12 353.49 749.17 354.84 753.06 356.21 756.93 356.22 756.77 358.16 755.45 359.73 751.99 359.6 751.19 361.84 749.12 363.01 745.99 362.59 742.8 364.93 741.62 365.27 740.6 367.15 738.42 368.82 736.81 368.35 734.35 366.81 732.99 363.64 733.75 362.68 734.08 360.51 733.16 359.1 731.48 358.18 729.68 355.15 728.42 354.73 726.27 352.79 725.2 348 725.37 345.63 725.96 344.68 725.07 343.37 724.99 340.61 724.33 337.18 718.28 335.02 716.99 332.89 716.23 328.7 713.85 327.8 710.06 325.66 709.18 323.62 710.43 317.65 711.75 316.09 712.57 314.26 712.9 312.05 712.16 310.09 711.73 307.56 710.62 306.44 710.52 304.54 708.44 301.79 707.78 299.73 705.4 296.96 703.73 295.81 702.98 293.01 701.96 290.73 700.2 289 698.5 288.88 695.09 287.42 693.74 285.36 687.31 285.55 682.06 283.67 680.79 282.8 678.42 283.08 677.37 281.61 670.29 278.71 668.1 276.72 663.44 273.39 662.34 272.05 659.7 270.64 657.12 268.77 654.65 267.7 650.1 268.05 648.76 267.84 647.04 264.6 646.3 262.58 645.9 257.29 646.09 256.19 644.07 255.98 643.39 256.44 639.97 256.29 638.89 253.89 636.95 250.9 633.79 252.78 629.96 257.11 627.46 257.52 626.47 259.31 624.26 261.48 623.23 263.31 621.95 264.55 618.33 266.16 615.66 266.27 613.86 268.46 611.51 269.64 608.68 272.39 606.37 270.44 604.61 269.81 602.43 269.79 599.65 267.5 596.67 266.5 594.76 263.86 593.98 263.72 593.01 261.84 591.19 261.76 589.57 260.21 585.25 261.14 583.4 261.02 580.67 259.15 577.42 259.69 575.61 259.13 574 257.18 573.41 253.73 575.19 252.62 576.88 250.88 577.67 249.07 579.34 247.86 580.53 245.82 581.38 245.21 581.94 242.04 583.32 239.31 581.74 236.96 582.45 235.93 582.71 233.75 581.64 233.38 580.69 234.97 579.22 233.98 581.46 231.82 589.78 222.7 594.34 218.29 595.26 217.77 597.31 217.79 602.46 217.25 606.92 217.74 613.16 217.03 617.31 216.76 623.57 214.11 627.61 211.38 629.83 209.49 630.77 204.59 633.14 203.05 635.86 198.45 636.9 196.14 637.56 189.27 638.7 187.77 640.79 184.08 642.3 179.37 645.42 173.73 647.58 170.31 654.62 162.45 656.38 161.29 660.69 158.84 663.43 157.64 667.89 153.85 668.03 152.53 669.88 151.25 673.05 147.4 674.2 145.39 678.29 145.26 682.77 140.67 685.31 139.41 688.55 137.87 692.49 135.16 695.92 134.4 698.87 133.31 705.37 132.86 709.26 132.24 716.02 128.65 718.34 133.64 720.35 135.25 721.1 137.09 722.4 138.33 724.67 137.67 727.45 137.47 730.08 141.1 733.25 140.81 736.82 141.4 738.77 142.32 738.97 144.28 738.33 147.57 737.33 148.81 737.77 151.55 735.92 153.8 736.96 157.21 739.76 160.22 739.82 160.91 742.07 164.91 739.15 166.29 740.77 167.86 742.05 171.43 742.71 174.52 742.27 175.33 742.56 177.3 742.07 178.53 742.44 184.93 742.02 187.71 739.74 189.85 738.22 191.99 740.33 193.21 742.99 195.7 748.86 196.81 749.64 197.83 751.18 197.69 752.82 199.03 755.08 198 756.91 195.01 759.86 196.25 761.53 195.47 763.08 196.52 764.1 196.23 768.46 196.78 769.59 197.39 771.45 197.04 772.92 198.15 774.5 200.26 776.59 199.11 778.94 198.74 Z" id="37030110"/>
<path d="M 541.07 274.05 542.93 273.04 544.1 270.77 545.52 269.16 549.91 267.09 553.22 266.37 554.44 268.86 555.07 272.76 554.47 275.58 556.55 276.83 556.69 279.27 560.61 282.16 560.65 284.63 562.33 287.9 562.71 289.76 564.37 288.49 564.98 289.25 563.69 299.45 561.12 301.32 559.99 303.47 559.01 308.13 555.67 309.22 552.73 310.53 554.6 315.68 555.24 322.19 557.48 327.74 567.08 331.17 569.6 336.32 570.53 339.35 572.44 343.43 572.39 348.66 574.11 349.29 580.34 349.05 582.04 349.49 584.53 350.74 587.72 353.79 590.23 354.23 597.88 359.46 603.68 362.52 609.95 364.94 612.68 365.66 614.89 367.47 617.7 369.26 620.46 369.89 625.78 369.74 627.74 368.79 630.79 369.47 630.47 373.59 628.48 377.02 626.77 377.56 626.68 378.59 624.41 379.92 624.39 382.44 623.91 383.26 623.82 387.68 624.05 388.79 623.54 392.93 624.69 393.27 626.12 392.44 626.89 394 629.39 395.82 629.78 400.38 629.47 402.89 631.27 403.76 632.63 405.08 635.28 405 636.14 404.37 637.66 404.96 639.23 406.84 640.45 406.82 640.86 408.02 642.89 408.95 645.12 411.8 644.98 417.12 644.48 419.57 646.33 420.87 647.47 423.56 652.53 425.8 656.65 426.01 657.9 426.52 660.28 426.47 662.42 428.49 661.89 433.78 660.84 436.23 663.24 440.97 664.91 441.76 669.06 445.93 671.32 446.12 671.08 448.81 669.3 451.49 667.11 453.85 665.93 454.52 663.84 456.64 662.17 457.58 661.73 458.5 658.73 461.24 656.3 460.12 655.83 462.36 654.03 464.31 652.58 467.29 651.72 469.98 650.14 470.82 648.89 472.53 645.32 473.78 643.48 476.81 637.97 482.61 635.99 482.49 633.48 483.88 632.74 486.24 630.62 487.4 626.42 490.42 624.64 489.81 623.14 491.1 620.69 491.41 617.68 490.31 615.4 490.51 611.65 489.43 610.08 489.41 606.51 488.62 602.94 488.68 598.6 492.39 597.48 492.1 598.68 495.34 598.77 499.17 598.45 502.25 598.73 504.06 601.93 505.87 602.07 507.95 602.78 509.57 599.69 513.09 601.48 516.34 601.78 517.53 599.98 520.43 599.76 522.08 598.29 523.09 595.45 523.68 591.37 522.78 589.59 523.91 588.4 523.95 585.66 522.69 582.21 518.58 580.66 519.36 577.96 518.83 574.87 522.36 570.05 523.14 568.03 524.06 564.45 522.62 561.91 520.9 558.3 519.75 552.29 514.44 554.4 511.7 553.85 510.42 553.6 506.13 554.82 503.01 556.18 500.8 556.35 498.5 555.99 495.46 557.65 493.24 558.02 491.03 557.62 488.91 556.1 486.21 555.87 484.47 554.47 479.46 552.04 475.72 551.37 473.22 551.75 472.57 550.16 470.72 549.98 468.82 547.19 468.5 546.89 466.61 543.82 464.2 544.48 462.55 544.26 458.58 542.28 456.74 539.11 456.28 538.17 452.34 537.45 451.39 535.56 451.09 533.8 448.88 533.52 447.72 531.92 445.08 529 444.92 527.19 441.89 524.64 442.01 523.66 439.85 521.03 439.91 520.23 434.99 521.54 426.64 519.8 425.08 517.27 424.24 514.22 422.26 512.61 420.76 512.38 415.84 511.84 412.36 513.24 406.49 513.4 403.66 511.3 401.76 512 401.09 511.37 399.64 509.95 398.69 511.87 396.88 512.09 395.49 511 392.47 509.95 387.04 507.99 385.95 507.51 383.8 507.96 379.61 509.7 375.96 509.95 373.15 509.54 372.48 509.88 369.57 512.27 368.56 514.59 366 518.4 366.75 522.84 368.33 524.77 368.16 524.66 364.2 526.41 362.17 525.82 359.95 526.17 358.15 528.34 355.36 528.48 354.4 526.44 351.84 527.3 350.19 529.99 347.25 530.37 344.57 530.89 343.83 530.13 342.3 530.78 340.59 530.22 339.68 532.24 334.75 538.3 337.24 540.86 338.07 540.04 335.34 537.88 332.99 535.85 331.39 535.36 330.21 535.59 327.16 534.92 325.73 533.2 323.98 533.71 322.75 537.25 321.74 537.87 316.25 536.12 318.16 530.45 319.71 528.67 320.99 527.53 319.83 527.4 315.27 527.8 312.65 528.88 309.69 527.47 308.01 525.51 303.1 526.35 300.04 529.39 298.93 530.4 297.27 532.24 295.4 532.04 293.48 529.99 289.52 531.65 288.29 532.32 284.33 534.09 281.6 535.88 280.13 537.37 278.36 540.69 275.17 541.07 274.05 Z" id="37030310"/>
<path d="M 756.93 356.22 762.81 359.49 767.18 364.15 772.92 367.19 777.22 371.76 779.13 374.61 779.42 377.08 779.01 378.22 777.35 379.06 777.94 381.13 776.21 382.93 776.77 384.42 779.68 389.33 780.82 390.35 777.42 393.58 775.69 394.02 774.19 395.52 773.74 396.68 771.44 398.53 769.77 401.61 767.75 406.47 768.17 407.36 770.48 408.98 771.83 413.95 772.68 417.94 774.04 421.46 779.6 429.83 783.46 429.89 784.26 430.22 785.65 432.36 787.25 433.15 787.89 435.31 789.41 437.59 789.24 438.93 791.29 440.8 792.38 442.34 793.65 442.75 795.47 445.15 796.37 446.93 797.5 447.44 798.17 449.16 797.43 451.22 795.98 452.14 794.94 453.95 796.42 458.75 799 460.96 797.84 466.4 796.86 467.74 795.54 472.71 795.79 475.11 792.89 476.33 788.46 476.81 787.44 477.61 785.59 477.21 782.35 481.75 782.1 483.85 780.65 486.01 779.99 487.76 778.61 488.98 777.87 492.4 776.08 494.02 771.89 491.67 769.72 488.67 768.57 487.57 767.27 487.3 765.68 485.65 760.93 485.59 757.64 484.41 754.79 484.92 750.51 483.06 747.56 484.88 745.5 483.18 739.28 481.74 728.87 481.61 726.66 481.09 723.88 482.33 720.46 480.45 716.89 477.03 715.43 474.71 713.85 475.14 711.77 474.99 707.36 478.76 706.5 478.67 703.94 480.42 702.88 482.59 701.59 483.31 697.14 480.92 695.54 480.8 693.19 481.74 690.6 482.37 686.37 482.5 679.23 478.21 675.8 477.73 673.62 476.18 671.83 474.02 669.34 472.83 667.19 471.12 665.37 470.28 663.21 470.69 661.05 470.52 658.48 471.35 658 470.09 652.58 467.29 654.03 464.31 655.83 462.36 656.3 460.12 658.73 461.24 661.73 458.5 662.17 457.58 663.84 456.64 665.93 454.52 667.11 453.85 669.3 451.49 671.08 448.81 671.32 446.12 669.06 445.93 664.91 441.76 663.24 440.97 660.84 436.23 661.89 433.78 662.42 428.49 660.28 426.47 657.9 426.52 656.65 426.01 652.53 425.8 647.47 423.56 646.33 420.87 644.48 419.57 644.98 417.12 645.12 411.8 642.89 408.95 640.86 408.02 640.45 406.82 639.23 406.84 637.66 404.96 636.14 404.37 635.28 405 632.63 405.08 631.27 403.76 629.47 402.89 629.78 400.38 629.39 395.82 626.89 394 626.12 392.44 624.69 393.27 623.54 392.93 624.05 388.79 623.82 387.68 623.91 383.26 624.39 382.44 624.41 379.92 626.68 378.59 626.77 377.56 628.48 377.02 630.47 373.59 630.79 369.47 627.74 368.79 625.78 369.74 620.46 369.89 617.7 369.26 614.89 367.47 612.68 365.66 609.95 364.94 603.68 362.52 597.88 359.46 590.23 354.23 587.72 353.79 584.53 350.74 582.04 349.49 580.34 349.05 574.11 349.29 572.39 348.66 572.44 343.43 570.53 339.35 569.6 336.32 567.08 331.17 581.48 336.32 583.4 335.17 582.47 333.83 579.37 325.24 582.51 325.79 586.51 325.17 590.65 323.85 592.61 322.44 595.31 319.95 597.03 319.11 607.78 309.31 607.62 306.32 610.51 306.47 610.78 305.19 612.66 304.73 614.17 303.6 615.26 300.56 616.37 300.57 617.05 297.39 605.35 294.84 605.55 293.67 604.92 291.74 603.1 291.04 601.43 288.81 599.86 288.1 598.43 285.89 597.2 285.81 596.13 284.09 592.46 283.66 589.04 283.97 586.51 286.87 583.42 289.18 580.94 290.02 579.33 291.05 576.85 290.43 576 290.98 570.89 290.62 570.51 292.76 568.77 292.53 566.98 287.9 564.98 289.25 564.37 288.49 562.71 289.76 562.33 287.9 560.65 284.63 560.61 282.16 556.69 279.27 556.55 276.83 554.47 275.58 555.07 272.76 554.44 268.86 553.22 266.37 554.92 264.47 559.05 258.33 561.19 256.11 564.96 251.44 566.79 247.56 571.12 242.76 573.61 239.09 576.09 237.38 579.22 233.98 580.69 234.97 581.64 233.38 582.71 233.75 582.45 235.93 581.74 236.96 583.32 239.31 581.94 242.04 581.38 245.21 580.53 245.82 579.34 247.86 577.67 249.07 576.88 250.88 575.19 252.62 573.41 253.73 574 257.18 575.61 259.13 577.42 259.69 580.67 259.15 583.4 261.02 585.25 261.14 589.57 260.21 591.19 261.76 593.01 261.84 593.98 263.72 594.76 263.86 596.67 266.5 599.65 267.5 602.43 269.79 604.61 269.81 606.37 270.44 608.68 272.39 611.51 269.64 613.86 268.46 615.66 266.27 618.33 266.16 621.95 264.55 623.23 263.31 624.26 261.48 626.47 259.31 627.46 257.52 629.96 257.11 633.79 252.78 636.95 250.9 638.89 253.89 639.97 256.29 643.39 256.44 644.07 255.98 646.09 256.19 645.9 257.29 646.3 262.58 647.04 264.6 648.76 267.84 650.1 268.05 654.65 267.7 657.12 268.77 659.7 270.64 662.34 272.05 663.44 273.39 668.1 276.72 670.29 278.71 677.37 281.61 678.42 283.08 680.79 282.8 682.06 283.67 687.31 285.55 693.74 285.36 695.09 287.42 698.5 288.88 700.2 289 701.96 290.73 702.98 293.01 703.73 295.81 705.4 296.96 707.78 299.73 708.44 301.79 710.52 304.54 710.62 306.44 711.73 307.56 712.16 310.09 712.9 312.05 712.57 314.26 711.75 316.09 710.43 317.65 709.18 323.62 710.06 325.66 713.85 327.8 716.23 328.7 716.99 332.89 718.28 335.02 724.33 337.18 724.99 340.61 725.07 343.37 725.96 344.68 725.37 345.63 725.2 348 726.27 352.79 728.42 354.73 729.68 355.15 731.48 358.18 733.16 359.1 734.08 360.51 733.75 362.68 732.99 363.64 734.35 366.81 736.81 368.35 738.42 368.82 740.6 367.15 741.62 365.27 742.8 364.93 745.99 362.59 749.12 363.01 751.19 361.84 751.99 359.6 755.45 359.73 756.77 358.16 756.93 356.22 Z" id="37030320"/>
<path d="M 656.38 161.29 654.62 162.45 647.58 170.31 645.42 173.73 642.3 179.37 640.79 184.08 638.7 187.77 637.56 189.27 636.9 196.14 635.86 198.45 633.14 203.05 630.77 204.59 629.83 209.49 627.61 211.38 623.57 214.11 617.31 216.76 613.16 217.03 606.92 217.74 602.46 217.25 597.31 217.79 595.26 217.77 594.34 218.29 589.78 222.7 581.46 231.82 579.22 233.98 576.09 237.38 573.61 239.09 571.12 242.76 566.79 247.56 564.96 251.44 561.19 256.11 559.05 258.33 554.92 264.47 553.22 266.37 549.91 267.09 545.52 269.16 544.1 270.77 542.93 273.04 541.07 274.05 537.74 273.93 535.25 275.81 530.93 278.38 527.51 279.78 524.92 280.07 522.08 279.54 521.68 275.49 522.07 274.13 524.53 269.85 521.14 267.48 519.27 265.76 517.39 263.26 516.99 260.51 513.17 257.18 512.12 255.47 511.38 253.04 510.33 252.01 509.84 249.2 510.31 246.64 512.91 242.86 513.39 241.6 511.21 239.13 506.02 235.78 506.86 234.29 506.97 231.68 504.83 229.53 504.87 227.4 506.31 225.03 507.94 224.05 508.45 221.92 510.35 220.73 510.36 219.88 512.65 216.14 515.35 214.13 515.7 209.24 515.49 205.36 515.68 202.75 515.01 201.4 517.65 200.42 518.8 199.51 521.79 199.12 523.23 198.31 525.64 197.66 527.17 195.76 529.84 193.26 530.89 189.5 529.5 188.5 528.32 186.18 527.72 181.73 525.9 177.72 526.81 176.32 526.88 174.77 524.99 171.51 524.62 169.43 528.03 169.11 529.67 167.7 528.79 165.68 529.36 164.58 530.69 164.27 535.34 161.82 538.67 161.58 540.82 160.38 544.2 159.62 545.77 157.55 543.63 154.95 541.8 151.98 540.05 150.34 538.66 146.99 539.34 144.75 538.43 141.53 537.31 139.48 535.27 138.94 533.89 136.84 536.64 134.77 536.17 133.32 536.78 130.3 538.61 128.87 539.9 129.41 541.12 128.14 542.24 125.53 543.47 126.05 545.43 124.28 547.28 123.77 548.81 124.13 549.92 122.01 549.75 120.72 551.71 121.28 553.75 121.11 555.18 121.8 557.38 124.25 558.51 126.19 560.43 127.82 563.15 133.75 564.08 137.23 565.45 139.56 567.57 140.64 568.85 140.2 573.43 140.76 574.28 139.48 575.81 138.78 578.54 138.47 579.54 138.73 584.19 136.39 586.32 137.97 590.47 139.14 590.33 140.39 591.81 142.04 593.4 141.75 595.59 142.25 596.3 143.48 598.75 146.04 603.21 147.86 603.73 149.33 605.53 151.37 607.94 150.55 610.04 150.47 612.8 148.02 615.33 147.91 618.56 149.27 620.18 150.48 623.23 152.02 624.47 150.44 626.56 149.31 628.93 150.2 630.42 149.6 633.11 146.48 635.57 144.58 637.47 141.66 640.33 140.07 643 143.27 645.73 149.31 648.45 150.53 649.91 151.55 653.86 155.94 656.38 161.29 Z" id="37030330"/>
<path d="M 652.86 60.6 654.66 63.33 657.37 64.98 660.59 71.28 662.19 71.32 663.41 72.37 666.08 70.87 666.88 71.81 668.18 71.67 671.2 74.04 672.62 75.85 672.28 77.43 670.91 79.81 671.39 81.59 670.27 84.39 669.06 85.86 669.08 87.18 668.15 88.18 667.14 90.67 667.33 92.51 668.57 93.34 668.58 95.08 667.15 99.69 668.85 100.54 670.91 102.39 671.68 105.9 671.86 109.17 673.55 111.59 670.32 114.54 672.74 117.14 671.05 117.94 671.02 120.71 670.28 122.1 670.17 123.95 669.06 125.27 670.13 128.29 669.61 128.98 670.63 130.69 673.3 130.74 675.52 133.08 678.5 131.97 680.02 130.92 679.96 134.06 683.62 136.86 685.31 139.41 682.77 140.67 678.29 145.26 674.2 145.39 673.05 147.4 669.88 151.25 668.03 152.53 667.89 153.85 663.43 157.64 660.69 158.84 656.38 161.29 653.86 155.94 649.91 151.55 648.45 150.53 645.73 149.31 643 143.27 640.33 140.07 637.47 141.66 635.57 144.58 633.11 146.48 630.42 149.6 628.93 150.2 626.56 149.31 624.47 150.44 623.23 152.02 620.18 150.48 618.56 149.27 615.33 147.91 612.8 148.02 610.04 150.47 607.94 150.55 605.53 151.37 603.73 149.33 603.21 147.86 598.75 146.04 596.3 143.48 595.59 142.25 593.4 141.75 591.81 142.04 590.33 140.39 590.47 139.14 586.32 137.97 584.19 136.39 579.54 138.73 578.54 138.47 575.81 138.78 574.28 139.48 573.43 140.76 568.85 140.2 567.57 140.64 565.45 139.56 564.08 137.23 563.15 133.75 560.43 127.82 558.51 126.19 557.38 124.25 555.18 121.8 553.75 121.11 551.71 121.28 549.75 120.72 549.92 122.01 548.81 124.13 547.28 123.77 545.43 124.28 543.47 126.05 542.24 125.53 541.12 128.14 539.9 129.41 538.61 128.87 536.78 130.3 536.17 133.32 536.64 134.77 533.89 136.84 535.27 138.94 537.31 139.48 538.43 141.53 539.34 144.75 538.66 146.99 540.05 150.34 541.8 151.98 543.63 154.95 545.77 157.55 544.2 159.62 540.82 160.38 538.67 161.58 535.34 161.82 530.69 164.27 529.36 164.58 528.79 165.68 529.67 167.7 528.03 169.11 524.62 169.43 524.09 168.39 522.71 162.14 522.84 159.82 520.71 160.17 519.68 161.35 515.86 162.48 514.37 161.88 511.5 164.22 510.14 164.9 505.45 162.7 504.21 157.74 504.36 156.98 502.96 154.79 499.2 153.12 495.96 152.83 495.34 151.35 493.67 149.59 492.54 145.2 491.16 143.59 489.45 142.92 487.57 140.89 485.99 139.84 485.39 136.95 483.6 135.97 482.72 130.84 482.88 128.56 480.07 127.25 478.79 124.91 478.03 124.79 476.39 121.96 473.72 121.35 472.96 120.53 470.38 120.71 468.89 118.98 464.68 116.78 462.11 117.68 459.85 115.76 458.38 115.81 453.31 112.02 450.64 109.01 450.23 106.74 451.34 105.84 451.93 104 453.42 101.87 452.7 98.15 453.46 96.49 452.71 94.69 448.13 90.01 447.25 87.93 447.24 84.2 446.31 83.47 443.97 80.04 443.58 77.71 442.64 75.94 442.78 73.27 442.04 70.6 440.93 68.92 438.67 67.68 436.05 61.97 435.88 60.39 434.67 58 432.92 56.26 433.29 55.41 432.54 53.49 433.65 51.42 433.24 49.94 435.52 49.56 437.36 47.56 440.1 46.18 440.47 44.28 443.47 40.29 445.33 39.3 446.31 38.06 448.42 37.97 452.55 36.09 453.78 32.85 454.7 32.23 455.56 30.12 456.67 28.75 455.6 26.18 453.52 23.03 453.63 20.9 453.17 19.67 454.73 15.72 455.91 15.15 454.53 13.17 456.93 12.78 458.26 13.86 460.71 14.35 462.44 13.87 466.44 14.84 467.98 14.81 469.88 15.87 474.77 16.94 474.91 14.34 475.5 12.84 477.86 12.15 479.56 12.19 481.32 11.45 483.29 9.6 484.57 5.75 485.44 4.84 485.33 3.63 490.04 1.02 493.82 1 496.84 2.25 498.46 3.43 499.89 2.27 503.15 2.73 504.32 3.56 505.98 3.09 512.44 4.34 515.72 4.13 517.79 3.47 521.88 4.28 525.29 2.97 527.7 1.23 528.41 2.27 530.59 3.83 532 3.76 533.53 5.81 536.8 6.59 540.12 8.44 540.37 9.3 542.93 10.76 543.38 12.67 542.9 16.05 543.74 18.92 545.35 20.93 546.34 23.62 548.12 24.58 549.43 26.98 551.97 29.01 552.94 28.94 557.59 30.46 561.72 29.73 563.13 31.11 564.17 31.25 565.85 30.47 569.01 31.29 570.27 30.81 572.25 31.22 573.9 32.12 575.35 33.71 577.03 34.6 578.99 34.77 582.03 32.43 583 32.73 584.61 31.91 588.88 31.28 591.82 31.2 595.99 32.22 597.83 30.46 600.55 32.81 602.08 36.03 604.55 38.47 605.73 38.94 606.29 40.69 609.28 41.77 611.3 41.33 612.62 43.59 614.72 43.47 618.16 46.15 621.62 45.75 622.24 46.37 627.68 48.27 627.87 49.7 630.37 49.23 631.49 50.15 632.36 53.03 633.95 55.69 634.99 56.43 636.23 59.47 638.5 64.04 643.37 64.21 644.63 62.85 645.71 62.58 649.47 63.08 651.16 61.03 652.86 60.6 Z" id="37030340"/>
</g>
</svg>