<?xml version="1.0"?>
<svg xmlns="http://www.w3.org/2000/svg" version="1.2" baseProfile="tiny" width="800" height="913" viewBox="0 0 800 913" stroke-linecap="round" stroke-linejoin="round">
<g id="dong">
<path d="M 414.09 391.92 412.36 394.57 412.48 396.58 411.25 397.22 410.28 398.89 410.21 400.48 410.83 401.24 408.98 402.62 407.86 404.08 404.29 407.36 404.07 407.89 401.16 410.48 402.66 411.38 398.79 415.09 399.33 416.1 401.88 417.94 403.89 417.32 405.96 416.01 406.66 415.19 409.02 415.65 409.47 416.41 410.76 416.58 412.18 416.02 413.63 416.66 415.89 418.26 416.36 420.69 417.7 421.34 416.35 422.06 415.31 423.57 415.62 424.02 415.52 427.73 414.94 429.67 415.25 432.41 414.39 434.17 412.74 434.84 411.6 436.66 409.96 437.64 409.77 438.44 406.25 439.26 405.63 440.54 404.45 440.3 404.03 441.12 401.58 440.25 401.71 438.45 401.07 436.51 401.21 435.77 398.91 434.37 398.3 431.89 399.19 430.68 398.05 430.49 397.37 428.76 395.99 429.58 394.03 428.67 394.44 426.97 394.2 425.57 392.29 423.75 392.08 421.61 392.87 420.14 392.86 419.12 392.08 418.73 391.83 416.95 391 415.63 391.6 414.21 392.33 413.79 391.98 410.8 391.1 410.3 389.32 410.57 388.76 409.48 388.47 407.02 388.57 405.74 388.15 404.56 387.18 404.02 386.1 404.44 383.85 404.58 382.12 404.28 381.68 403.36 380.52 403.19 378.89 405.24 378.89 406.24 377.52 406.61 375.3 408.16 373.32 409.08 372.27 408.09 373.07 406.22 373.93 403.06 372.9 401.7 373.05 400.1 372.36 399.34 372.61 397.53 371.33 397.05 371.08 396.25 369.01 393.35 369.02 392.72 367.06 390.56 367.14 390.01 368.61 389.8 370.04 387.55 371.13 383.41 371.86 383.39 373.17 382.25 375.17 382.57 375.77 383.27 375.19 383.98 376.23 385.8 378.24 386.12 379.66 386.05 381.03 386.88 384.43 387.02 385.04 386.45 385.67 384.47 385.79 382.59 384.39 382.48 383.86 381.21 385.45 379.66 384.73 379.35 383.51 377.46 383.9 376.29 386.21 376.41 387.53 377.01 388.05 373.99 389.03 373.15 390.26 374.01 392 373.47 392.79 373.84 395.47 373.43 398.13 373.76 399.28 374.48 400.29 373.49 400.42 371.42 401.17 370.21 403.68 368.01 405.68 367.56 406.31 368.16 405.58 369.56 408.79 369.34 409.74 370.52 410.79 371.08 411.35 372.04 412.54 371.41 414.59 371.56 413.97 375.49 412.76 377.67 413.97 378.99 415.23 382.35 414.59 382.95 413.64 382.59 412.9 383.26 412.47 387.17 413.75 388.54 413.55 391.32 414.09 391.92 Z" id="37040590"/>
<path d="M 382.75 445.42 382.15 447.2 383.81 449.71 384.32 451.98 387.82 451.04 388.34 451.82 390.13 451.26 390.44 452 389.26 453.18 389.86 453.57 389.36 455.22 389.43 456.42 387.21 457.22 385.48 456.73 384.36 457.45 384.38 460.14 381.45 461.08 380.62 461.58 381.3 462.85 380.53 463.62 380.82 467.67 379.75 468.54 378.97 467.52 377.15 469.58 378.02 469.99 378.61 471.24 378.14 472.77 378.23 476.94 375.7 479.13 372.99 480.8 370.53 482.05 366.24 482.81 360.1 482.79 358.4 482.1 355.43 479.4 353.98 477.45 353.33 471.22 353.26 467.86 352 466.13 350.52 465.07 349.61 458.67 348.26 456.99 354.4 456.94 358.61 457.01 359.67 457.97 359.51 455.53 359.15 453.64 359.92 452.59 359.43 450.27 358.97 449.73 359.07 448.2 358.44 446.64 359.83 445.83 358.71 444.54 358.17 443.19 358.05 441.61 359.05 440.62 359.53 439.53 359.85 436.48 361.94 436.58 362.39 437.3 364.76 437.61 369.64 437.13 369.52 438.19 368.33 438.52 367.36 440.23 368.16 441.67 366.97 443.13 367.55 444.9 367.65 446.75 368.34 447.66 369.61 447.11 369.3 445.9 371.41 445.44 372.34 445.94 375.99 444.6 377.53 445.63 379.13 445.42 380.46 444.78 380.85 445.25 382.75 445.42 Z" id="37040600"/>
<path d="M 394.03 428.67 393.54 429.01 392.44 431.58 390.85 432.92 387.49 434.68 385.96 434.09 385.09 434.47 384.75 435.37 383.26 436.62 383.65 437.41 385.19 438.39 385.13 439.84 384.09 440.58 381.6 440.43 381.59 442.7 383.45 443.28 382.75 445.42 380.85 445.25 380.46 444.78 379.13 445.42 377.53 445.63 375.99 444.6 372.34 445.94 371.41 445.44 369.3 445.9 369.61 447.11 368.34 447.66 367.65 446.75 367.55 444.9 366.97 443.13 368.16 441.67 367.36 440.23 368.33 438.52 369.52 438.19 369.64 437.13 364.76 437.61 362.39 437.3 361.94 436.58 359.85 436.48 359.53 439.53 359.05 440.62 358.05 441.61 358.17 443.19 358.71 444.54 359.83 445.83 358.44 446.64 359.07 448.2 358.97 449.73 359.43 450.27 359.92 452.59 359.15 453.64 359.51 455.53 359.67 457.97 358.61 457.01 354.4 456.94 348.26 456.99 346.65 456.92 344.55 457.22 341.77 458.95 339.96 458.73 339.5 449.31 338.7 444.15 340.98 438.94 341.67 436.34 341.73 433.98 341.55 430.78 341.44 429.54 340.45 424.97 340.62 420.68 341.76 417.82 341.95 415.24 343.19 411.28 346.34 406.5 348.16 404.01 350.6 399.74 351.4 396.31 352.54 393.18 353.06 392.6 354.62 392.75 355.71 393.34 356.44 394.64 356.43 397.08 356.9 398.06 357.82 398.55 360.15 397.63 361.07 396.45 362.19 396.09 361.7 393.03 363.06 391.39 364.32 390.84 367.06 390.56 369.02 392.72 369.01 393.35 371.08 396.25 371.33 397.05 372.61 397.53 372.36 399.34 373.05 400.1 372.9 401.7 373.93 403.06 373.07 406.22 372.27 408.09 373.32 409.08 375.3 408.16 377.52 406.61 378.89 406.24 378.89 405.24 380.52 403.19 381.68 403.36 382.12 404.28 383.85 404.58 386.1 404.44 387.18 404.02 388.15 404.56 388.57 405.74 388.47 407.02 388.76 409.48 389.32 410.57 391.1 410.3 391.98 410.8 392.33 413.79 391.6 414.21 391 415.63 391.83 416.95 392.08 418.73 392.86 419.12 392.87 420.14 392.08 421.61 392.29 423.75 394.2 425.57 394.44 426.97 394.03 428.67 Z" id="37040610"/>
<path d="M 404.18 447.76 403.45 450.03 403.36 452.99 402.42 456.28 402.27 459.56 403.41 461.5 403.74 463.92 403.67 468.23 401.48 469.14 397.55 469.65 393.71 470.84 391.87 471.06 389.57 471.74 385.95 473.13 382.39 474.28 379.94 475.6 378.23 476.94 378.14 472.77 378.61 471.24 378.02 469.99 377.15 469.58 378.97 467.52 379.75 468.54 380.82 467.67 380.53 463.62 381.3 462.85 380.62 461.58 381.45 461.08 384.38 460.14 384.36 457.45 385.48 456.73 387.21 457.22 389.43 456.42 389.36 455.22 389.86 453.57 389.26 453.18 390.44 452 390.13 451.26 388.34 451.82 387.82 451.04 384.32 451.98 383.81 449.71 382.15 447.2 382.75 445.42 383.45 443.28 381.59 442.7 381.6 440.43 384.09 440.58 385.13 439.84 386.07 439.99 387.62 439.37 388.56 438.13 389.57 438.73 390.89 440.46 392.82 440.92 393.08 439.82 394.69 439.93 395.97 440.39 395.36 444.14 394.44 445.46 394.36 447.39 395.37 448.64 397.21 448.24 404.18 447.76 Z" id="37040560"/>
<path d="M 405.63 440.54 405.25 440.59 405.22 443.72 404.74 445.76 404.09 446.66 404.18 447.76 397.21 448.24 395.37 448.64 394.36 447.39 394.44 445.46 395.36 444.14 395.97 440.39 394.69 439.93 393.08 439.82 392.82 440.92 390.89 440.46 389.57 438.73 388.56 438.13 387.62 439.37 386.07 439.99 385.13 439.84 385.19 438.39 383.65 437.41 383.26 436.62 384.75 435.37 385.09 434.47 385.96 434.09 387.49 434.68 390.85 432.92 392.44 431.58 393.54 429.01 394.03 428.67 395.99 429.58 397.37 428.76 398.05 430.49 399.19 430.68 398.3 431.89 398.91 434.37 401.21 435.77 401.07 436.51 401.71 438.45 401.58 440.25 404.03 441.12 404.45 440.3 405.63 440.54 Z" id="37040580"/>
<path d="M 528.27 48.61 528.38 51.09 528.02 51.99 528.54 54.82 528.86 55.3 528.3 56.79 529.22 57.71 528.7 58.97 529.89 60.16 530.01 61.24 529.09 62.99 528.99 64.78 526.2 67.18 524.27 66.66 522.34 67.09 520.93 68.61 519.37 69.57 518.02 71.31 517.05 71.85 515.51 70.47 513.34 70.74 511.59 70.51 510.35 72.6 507.98 72.64 507.08 73.11 505.7 73.09 504.43 75.7 505.05 76.86 504.8 78.23 503.94 79.98 503.84 81.44 501.18 84.38 498.79 88.12 500.34 89.28 500.46 90.93 502.16 92.6 503.67 95.81 503.79 96.78 502.84 98.23 502.48 99.78 503.27 100.55 504.08 102.85 506.06 102.79 506.64 104.44 506.68 107.53 507.05 108.29 505.79 108.86 505.34 110.1 503.68 112.61 503.89 113.44 503.13 114.83 502.91 115.97 501.69 116.54 503.35 118.14 503.1 121.68 502.42 122.52 502.48 123.96 501.53 125.43 501.54 126.73 500.32 126.63 500.02 127.87 500.62 129.24 500.19 130.01 499.22 129.93 498.52 130.9 498.22 132.31 496.82 133.32 496.58 134.74 495.96 135.39 495.66 137.85 498.58 138.57 499.04 139.24 500.04 139.2 500.48 140.17 502.85 141.12 503.21 140.52 504.49 140.62 505.3 141.45 507.39 142.01 509.44 142.02 509.62 144.35 511.3 146.28 510.34 148.33 511.05 149.13 508.75 150.76 508.28 151.91 506.39 153.11 504.55 154.74 503.93 155.59 504.27 156.67 506.5 158.04 506.86 159.26 506.43 160.23 507 161.9 506.62 162.72 506.81 164.13 505.41 164.94 504.7 167.11 504.81 168.9 505.74 170.74 505.64 171.52 506.42 173.53 507.46 174.08 507.7 175.27 509.55 176.99 509.5 178.33 511.26 179.58 512.2 182.56 512.95 183.8 513.27 185.27 514.21 186.75 514.32 187.75 516.03 187.69 516.88 187.26 518.78 187.17 519.32 187.98 520.89 188.14 523.39 189.4 522.14 191.27 520.22 192.12 519.11 193.56 517.34 193.59 517 193.99 514.75 194.6 513.1 194.74 512.7 194.17 509.78 194.34 508.65 193.88 507.94 194.52 506.17 194.52 504.97 195.81 504.74 196.95 503.74 197.27 503.48 198.17 501.8 198.29 499.65 197.11 498.79 195.21 497.36 195.04 495.7 195.62 494.48 198.31 493 198.66 491.47 199.78 491.48 201.15 490.89 202.14 491.21 203.67 490.61 204.8 490.62 206.16 489.87 207.68 489.06 208.42 488.62 209.91 488.75 212.31 488.46 214.6 490.03 216.27 490.13 217.61 494.22 219.88 493.92 222.61 494.17 223.51 496.36 225.12 496.93 224.86 497.7 225.98 498.2 227.46 496.45 229.06 496.81 230.24 497.68 231.32 497.87 232.26 496.33 236.49 496.41 238.18 494.65 238.91 494.4 241.26 493.23 240.77 491.04 238.05 488.74 237.59 487.61 238.17 485.47 237.34 484.26 237.55 483.57 238.26 482.04 238.92 481.94 240.19 483.33 244.45 482.63 245.87 481.24 247.83 481.26 249.25 480.87 250.07 478.64 250 477.67 248.96 476.44 248.98 475.88 247.79 474.25 247.27 472.07 248.34 468.63 247.5 467.65 246.66 466.52 247.05 465.21 245.17 463.51 245.4 462.01 247.01 459.3 247.57 458.2 245.71 456.24 245.08 453.55 245.69 450.87 244.55 449.23 244.51 447.84 243.6 446.41 241.41 443.24 239.28 442.43 239.35 442.71 236.78 443.41 235.58 440.62 235.02 439.07 232.59 437.94 231.73 438.81 228.6 436.41 226.94 431.3 225.79 432.43 222.87 432.35 221.14 430.53 221.28 429.22 220.72 429.7 218.85 429.04 217.95 427.53 218.64 427.16 219.49 425.77 217.79 426.01 217.19 425.18 216.28 424.03 215.99 423.96 213.17 425.29 213.3 426.37 212.07 427.58 212.2 428.34 211.73 428.25 210.67 427.62 209.93 426.86 207.37 427.14 205.51 427 203.76 426.42 203.33 424.28 202.86 422.92 200.64 422.55 199.42 419.67 197.99 418.87 198.15 417.68 197.29 415.71 193.99 415.18 191.87 416.35 188.36 417.11 186.89 416.81 185.53 417.38 185.18 417.67 183.51 420.09 183.15 421.09 182.25 421.38 179.65 423.75 172.93 423.33 171.72 423.43 169.97 422.59 168.54 421.46 167.76 418.73 166.89 418.44 165.36 418.94 165.11 419.24 162.33 420.39 161.7 419.94 160.42 420.74 158.33 420.68 157.44 421.31 156.45 421.76 154.85 421.54 153.22 421.05 152.31 421.4 151.12 423.42 149.5 424.72 148.74 425.93 148.75 425.97 146.95 424.85 143.62 425.45 141.9 424.96 139.85 425.38 138.89 427.6 138.44 428.23 137.8 428.9 134.47 430.26 131.81 431.31 131.41 433.26 129.37 432.72 127.4 432.61 125.77 433.14 124.92 433.26 123.65 432.75 122.2 433.21 120.09 433.16 118.98 430.79 117.97 429.11 115.57 427.82 112.43 425.73 108.67 424.78 107.98 422.83 107.58 422.28 105.48 422.98 104.93 422.97 103.92 423.54 100.91 425.55 99.65 425.87 98.63 428.24 95.03 428.57 93.76 430.69 91.63 429.71 90.36 431.1 89.78 433.15 87.34 432.84 84.92 434.4 84.12 436.04 81.89 435.53 80.5 434.38 80.43 432.38 79.69 431.96 78.96 429.92 77.74 428.96 76.28 426.6 74.59 425.42 72.06 423.59 71.25 423.6 70.03 423.04 68.04 422.87 63.97 423.67 62.33 423.68 58.23 424.94 57.03 428.48 59.67 429.33 59.45 429.99 55.95 431.35 54.06 432.36 49.94 432.38 46.6 432.45 45.1 432.88 43.94 434.75 40.79 435.57 38.55 435.91 32.9 436.4 30.77 438.27 27.11 438.86 26.36 439.91 26.75 441.7 28.72 444.26 30.02 447.59 29.21 448.8 28.73 449.4 25.86 452.01 24.93 453.19 25.33 456.71 27.67 457.16 28.74 458.12 28.9 458.59 30.37 459.53 31.26 459.39 33.12 460.11 33.93 460.1 36.74 459.58 38.58 460.43 39.05 461.76 38.98 462.52 37.66 465.08 36.38 464.32 34.93 464.89 32.32 466.24 30.26 467.44 31.37 469.23 31.87 469.96 31.3 472.11 31.91 473.58 31.56 476.24 33.06 477.24 33.15 480.07 31.66 481.15 31.58 481.44 30.78 483.77 29.47 485.18 28.97 485.62 25.08 488.81 23.41 490.03 23.45 490.1 22.16 491.05 21.22 491.46 19.89 492.44 20 493.47 19.05 494.67 19.13 497.14 18 497.38 16.31 497.87 15.96 499.49 16.07 500.88 17.57 502.61 15.91 502.37 14.82 503.44 14.08 503.79 12.84 503.52 11.96 505.15 11.44 506.16 9.78 507.36 7.08 508.92 6.47 508.98 5.29 509.62 4.72 509.92 2.57 511.35 1.47 514.48 1 515.13 1.74 516.81 2.78 518.32 4.19 517.65 7.16 517.99 8.35 519.56 9.65 520.26 10.68 521.89 11.24 522.99 12.29 521.33 14.3 519.67 15.23 518.34 17 517.1 17.54 515.45 20.64 515.34 22.04 516.68 22.94 517.92 24.35 519.29 24.7 520.09 26.33 519.59 27.75 518.66 28.85 518.48 29.94 519.01 31.14 518.08 32.35 518.96 33.44 519.45 34.85 519.35 35.91 520.56 37.32 520.45 39.23 521.67 40.65 522.25 41.85 523.81 42.22 524.79 44.51 526.08 45.41 526.26 47.06 528.27 48.61 Z" id="37040430"/>
<path d="M 447.86 447.53 444.35 450.58 440.23 455.89 438.5 456.95 432.54 461.22 429.7 462.29 423.23 462.89 416.24 463.21 415.89 455.54 415.17 451.69 415.45 450.12 416.65 448.89 416.42 447.37 416.91 445.55 417.56 444.76 418.56 445.34 421.65 445.06 422.75 444.41 423.68 442.83 423.7 441.38 426.03 442.1 426.56 441.63 427.11 439.95 427.98 439.09 429.79 438.12 432.06 438.23 433.4 437.26 434.49 439.05 435.44 438.09 436.55 438.53 437.4 438.16 438.39 438.72 441.59 438.67 443.14 439.28 444.6 439.14 445.41 441.09 446.96 442.45 448.06 444.87 447.86 447.53 Z M 489.19 418.42 486.8 418.47 478.49 412.33 475.66 414.27 470.67 418.85 466.98 425.13 463.13 431.46 458.88 431.54 459.49 430.09 458.64 428.68 457.37 427.61 457.83 426.07 457.88 424.23 459.49 423.09 460.87 419.99 459.9 418.22 459.8 417.44 460.87 415.21 462.7 414.81 464.03 413.93 465.29 414.09 465.95 412.44 467.49 411.69 469.44 409.52 471.66 408.26 473.37 406.71 473.25 404.62 473.53 402.98 476.82 401.52 477.56 400.88 479.05 401.08 479.89 402.08 482.51 403.77 485.3 405.32 485.97 405.05 486.68 408.14 487.71 407.79 488.93 408.04 488.64 409 490.96 408.37 491.26 411.53 491.8 412.3 491.37 413.16 491.76 414.33 491.02 418.2 489.19 418.42 Z" fill-rule="evenodd" id="37040510"/>
<path d="M 459.8 417.44 459.9 418.22 460.87 419.99 459.49 423.09 457.88 424.23 457.83 426.07 457.37 427.61 458.64 428.68 459.49 430.09 458.88 431.54 463.13 431.46 460.43 433.88 455.48 439 451.11 444.2 447.86 447.53 448.06 444.87 446.96 442.45 445.41 441.09 444.6 439.14 443.14 439.28 441.59 438.67 438.39 438.72 437.4 438.16 436.55 438.53 435.44 438.09 434.49 439.05 433.4 437.26 432.06 438.23 429.79 438.12 427.98 439.09 427.11 439.95 426.56 441.63 426.03 442.1 423.7 441.38 423.68 442.83 422.75 444.41 421.65 445.06 418.56 445.34 417.56 444.76 417.57 443.33 418.59 440.78 419.39 440.11 419.5 439.05 420.23 437.41 420.16 436.39 419.37 436.13 418.65 434.65 416.24 433.86 415.25 432.41 414.94 429.67 415.52 427.73 415.62 424.02 415.31 423.57 416.35 422.06 417.7 421.34 416.36 420.69 415.89 418.26 413.63 416.66 412.18 416.02 410.76 416.58 409.47 416.41 409.02 415.65 406.66 415.19 405.96 416.01 403.89 417.32 401.88 417.94 399.33 416.1 398.79 415.09 402.66 411.38 401.16 410.48 404.07 407.89 404.29 407.36 407.86 404.08 408.98 402.62 410.83 401.24 410.21 400.48 410.28 398.89 411.25 397.22 412.48 396.58 412.36 394.57 414.09 391.92 415.78 392.18 417.03 391.88 417.54 395.05 417.9 395.71 420.29 397.9 421.49 398.36 421.52 400.79 422.04 401.38 422.28 402.8 421.93 404.14 422.54 405.59 423.98 404.31 425.08 401.82 425.95 401.79 426.92 401.02 427.24 399.15 428.72 396.98 429.22 394.84 432 392.47 434.08 392.31 434.3 394.3 434.66 394.96 436.59 396.72 437.25 398.52 439.71 400.65 441.22 401.15 442.93 400.95 444.3 397.74 446.17 396.9 446.74 395.69 446.97 393.97 447.8 393.6 447.98 395.48 447.48 397.68 447.79 398.08 450.07 399 451.5 399.33 451.36 400.8 453.63 403.68 451.01 406.06 448.2 404.07 447.25 404.16 444.88 406.18 444.23 408.65 445.06 409.34 446.71 408.88 447.89 409.1 449.48 411 450.58 416.14 451.82 416.97 453.98 417.63 455.17 416.66 457.65 416.44 457.86 416.93 459.8 417.44 Z" id="37040520"/>
<path d="M 532.83 498.8 526.98 499.02 525.97 499.37 521.39 499.41 519.99 499.75 517.6 499.03 516.24 497.69 514.57 496.72 512.75 496.61 511.32 496.85 507.72 496.6 505.31 496.2 501.78 495.21 500.58 495.44 498.19 494.51 496.53 494.37 496.3 493.57 494.79 491.47 494.19 490.16 492.58 487.95 491.27 486.73 492.3 482.58 494.8 481.04 493.23 479.16 490.5 479.45 489.6 479.25 487.52 478.12 485.68 478.02 482.77 481.53 480.81 483.22 477.72 485.12 475.51 485.51 475.3 486.9 474.19 487.08 471.63 485.2 470.11 484.55 468.87 484.49 467.96 481.41 462.99 479.71 458.77 476.98 456.03 474.61 451.35 470.08 449.87 468.4 448.9 467.7 446.04 466.49 441.98 465.66 438.25 464.21 436.59 462.92 435.5 461.68 432.54 461.22 438.5 456.95 440.23 455.89 444.35 450.58 447.86 447.53 451.11 444.2 455.48 439 460.43 433.88 463.13 431.46 466.98 425.13 470.67 418.85 475.66 414.27 478.49 412.33 486.8 418.47 489.19 418.42 491.65 420.81 493.35 422.08 495.59 422.78 500.4 422.5 501.96 422.07 504.17 420.98 507.94 418.03 509.67 417.25 516.01 413.82 520.61 411.11 523.91 409.93 529.36 408.31 532.55 408.05 536.73 409.06 542.9 411.06 545.07 413.71 545.91 415.03 548.75 420.33 545.87 421.03 543.87 422.41 543.4 423.45 543.2 426.5 543.7 427.29 542.82 429.59 542.27 430.37 542.41 431.48 541.74 433.13 541.74 434.21 540.46 435.3 539.34 435.64 538.76 436.54 536.93 438 535.58 438.64 535.61 440.35 534.72 440.41 535.37 443.39 534.9 443.81 534.73 445.73 534.99 447.32 534.05 448.41 533.38 450.41 534.45 453.55 533.69 454.81 533.75 457 532.82 458.09 531.15 458.9 530.42 460.18 529.37 460.7 528.92 462.09 529.87 463.89 528.79 465.98 529.83 466.24 530.15 467.29 531.65 468.88 531.22 470.82 531.43 471.36 535.18 473.24 537.23 472.95 538.73 473.83 539.53 473.71 541.49 474.67 542.13 474.44 545.19 475.62 546.03 477.18 546.63 477.37 549.25 476.91 550.27 477.15 552.66 475.61 554.13 475.21 555.79 476.81 555.07 479.27 554.32 483.8 552.21 485.37 551.06 485.11 550.32 485.87 549.07 488.68 549.06 490.05 546.42 491.57 545.92 492.19 542.51 495.27 539.61 495.8 536.78 496.69 534.77 498.67 532.83 498.8 Z" id="37040540"/>
<path d="M 242.84 301.63 244.48 303.05 244.42 303.99 245.56 305.36 247.14 305.21 248.26 305.89 251.16 306.82 251.86 307.88 251.32 310.35 251.44 312.46 250.54 314.87 250.4 316.59 251.13 319.04 249.8 320.45 249.72 324.17 250.31 326.24 250.25 327.51 248.85 327.94 248.33 329.72 249.09 331.55 248.72 332.81 249.47 335.43 248 336.02 247.65 337.04 247.94 339.6 247.65 341.39 245.38 343.44 245.42 344.2 246.74 344.38 248.66 345.53 249.57 346.94 249.01 348.33 249.69 350.23 248.94 352.24 248.4 352.49 247.91 353.86 246.74 354.93 246.97 356.4 246.1 357.69 246.27 359.4 245.86 361.02 246.59 361.54 248.43 364.73 249.22 365.46 248.75 367.76 247.8 369.19 248.09 369.9 247.51 371.7 247.35 374.46 246.99 374.67 246.17 378.08 246.73 380.7 246.3 382.02 247.97 383.47 247.76 386.18 245.81 388.46 245.89 389.42 243.41 390.17 243.13 389.85 242.62 390.06 238.98 391.67 235.96 393.33 233.96 394.75 235.66 396.06 237.16 396.76 239.64 394.97 243.29 394.15 243.8 396.14 245.29 396.17 248.82 396.74 250.08 395.26 251.63 394.04 252.65 393.61 253.38 392.59 253.99 390.69 256.35 389.73 257.01 388.58 258.96 388.01 259.7 387.14 257.87 385.01 259.93 382.86 261.57 383.54 264.12 382.47 265.31 382.61 266.49 379.09 267.25 377.95 269.81 378.36 272.23 377.65 273.74 378.66 275.2 377.84 275.93 378.05 277.23 379.62 277.88 379.77 279.58 381.2 281.23 384.61 282.37 385.65 283.31 385.45 284.64 386 285.84 387.17 286.73 388.98 287.87 390.61 288.95 391.41 290.75 393.42 292.44 393.96 293.35 396.22 292.75 398.64 294.83 399.95 296.09 402.48 297.77 402.81 298.32 404.07 297.8 405.35 296.24 406.4 295.18 409.12 295.39 410.32 297.62 410.52 300.25 409.91 302.29 410.85 304.99 411.11 306.96 412.48 309.48 412.82 313.47 414.17 315.23 415.31 316.81 416.75 318.49 417.45 319.42 417.04 320.63 417.96 323.01 418.47 324.31 418.45 325.15 419.07 326.69 419.31 328.36 420.76 331.72 420.87 333.41 422.13 334.25 424.16 334.12 424.98 335.34 425.83 338.8 429.18 341.55 430.78 341.73 433.98 341.67 436.34 340.98 438.94 338.7 444.15 339.5 449.31 339.96 458.73 341.77 458.95 338.88 461.36 337.59 466.18 333.99 471.62 331.35 474.46 329.25 477.96 326.9 481.01 323.73 483.36 319.86 484.4 316.01 487.52 311.7 488.06 308.22 488.11 299.05 487.24 294.83 486.35 290.47 485.97 285.73 482.23 284.96 479.75 284.83 475.9 285.52 473.85 285.4 470.28 284.83 468.15 284.17 466.76 275.35 456.19 272.97 454.15 270.21 451.24 268.75 453.48 264.82 453.33 263.14 449.6 257.5 449.91 251.81 450.69 249.65 451.52 244.7 454.74 237.4 460.28 236.77 460.95 235.18 459.88 234.94 464.75 234.31 467.01 233.27 468.83 234.64 469.34 233.3 472.87 232.22 474.84 231.43 475.77 228.89 477.14 226.14 477.53 223.38 477.31 220.93 476.36 218.53 474.02 217.36 473.5 215.2 471.93 211.13 467.93 207.76 463.33 206.23 462.48 198.33 457.65 195.4 458.18 194.13 458.19 190.55 459.06 182.75 458.88 178.76 459.76 174.96 459.92 173.38 460.56 170.56 462.53 167.35 469.08 167.16 469.13 164.97 469.74 163.52 469.64 162.04 469.06 159.52 469.02 160.18 458.24 158.61 458.14 158.72 456.18 156.87 456.07 157.14 451.76 152.2 451.46 152.55 445.6 152.35 445.25 149.74 446.53 147.75 446.43 145.73 445.18 147.23 442.23 148.41 438.97 147.1 437.5 144.74 437.2 145.01 435.61 144.47 431.05 143.54 429.45 138.61 430.4 137.38 429.74 135.91 430.43 134.16 430.86 133.8 431.35 130.77 428.2 130.18 426.61 128.5 424.26 126.74 422.42 124.68 420.62 123.94 420.32 122.33 421.82 120.58 422.03 119.44 421.68 118.21 422.9 116.46 423.02 113.32 422.8 110.6 423.61 109.44 423.69 106.12 425.1 104.36 424.87 103.65 423.92 102.01 423.97 101.54 424.58 100.46 424.43 98.58 422.77 97.91 421.56 97.25 420.13 96.49 420.16 94.72 419.39 93.27 420.28 90.3 419.61 87.96 418.08 86.57 415.14 86.51 414.35 87.72 411.47 87.97 409.04 88.91 408.39 88.6 405.89 89.55 403.58 88.27 402.31 88.58 400.48 89.22 399.32 89.45 397.48 90.66 394.95 91.57 394.65 95.42 389.15 97.98 387.41 99.76 385.86 102.45 384.01 103.27 382.97 105.47 383.06 105.58 384.07 107.08 385.34 106.96 387.88 107.85 391 113.15 392.19 114.71 392.2 115.44 393.42 116.41 393.86 117.23 393.43 118.63 391.41 119.44 390.81 120.69 390.91 121.23 391.82 122.7 392.4 124.81 391.98 126.35 391.15 127.99 390.72 130.16 392.43 131.68 392.9 133.04 392.62 134.13 391.75 134.9 393.24 135.49 393.62 138.08 393.15 138.72 392.16 139.91 391.78 140.49 389.91 140.15 388.28 140.68 386.34 139.09 385.06 138.74 384.01 139.22 383.03 141.29 383.05 144.01 381.87 144.66 380.39 144.4 379.14 144.22 375.92 144.82 375.16 145.07 373.46 145.84 371.91 146.98 371.34 147.13 370.58 146.46 369.5 144 367.71 141.51 367.35 140.66 366.11 139.43 365.56 139.13 362.51 137.71 361.71 136.81 362.07 135.26 361.69 133.67 361.72 131.88 360.27 129.89 360.25 128.91 360.53 128.9 359.2 131.1 357.5 130.92 356.91 132.09 355.27 131.18 349.8 131.39 347.38 132.5 346.1 132.72 344.83 135.01 345.33 137.29 345.49 137.97 344.62 139.09 344.72 141.08 344.26 141.69 342.13 143.98 341.78 144.58 342.2 146.16 339.22 148.21 337.99 148.63 337.17 149.72 337.21 150.8 335.44 152.28 335.1 154.09 335.49 155.55 336.72 158.18 337.94 160.2 338.53 162.04 338.26 163.2 337.78 165.09 334.74 166.3 333.78 169.61 333.15 170.72 332.12 171.54 330.15 174.75 331.37 175.07 332.41 178.47 331.31 179.94 331.27 180.28 330.39 181.83 329.13 181.93 328.22 185.49 324.72 187.44 324.33 188.95 323.67 190.24 321.7 188.99 319.26 188.89 317.46 189.73 316.17 189.49 314.96 190.68 312.96 193.57 312.69 193.46 311.48 195.89 310.53 196.15 309.89 197.3 309.5 198.02 310.05 200.34 309.18 200.97 308.41 203.11 308.32 205.64 307.57 206.41 306.69 208.03 308.07 208.28 308.91 210.29 311.58 210.41 310.74 214.48 308.11 215.66 308.04 216.38 306.62 217.95 305.82 220.52 305 221.34 305.22 222.27 304.6 226.71 305.66 227.78 304.88 228.86 303.12 230.96 301.82 233.52 301.49 235.59 302.77 235.89 304.88 238.11 304.43 240.6 302.8 242.84 301.63 Z" id="37040110"/>
<path d="M 535.91 228.76 536.93 228.84 537.74 230.89 537.88 236.28 538.2 239.09 538.15 241.77 538.67 246.57 539.46 248.41 540.25 251.87 541.98 255.47 542.96 256.62 545.38 258.34 548.83 259.1 553.18 259.28 554.01 259.64 556.42 259.95 557.02 260.33 560.02 260.22 560.72 260.95 561.11 263.17 563.2 263.33 564.68 269.13 565 271.31 565.63 273.17 564.83 273.19 566.18 278.05 567.35 280.7 571.2 284.81 572.59 285.93 573.7 286.22 576.86 286.42 583.1 285.83 584.98 285.99 586.15 286.39 587.78 287.56 588.91 289.08 589.34 291.42 588.19 297.69 586.7 303.96 586.68 308.31 587.3 315.23 587.18 319.77 586.63 321.82 585.48 322.95 583.03 323.36 581.27 323.25 576.83 321.84 573.67 321.01 570.11 320.42 567.7 320.53 565.99 321.84 565.04 324.28 564.79 326.88 565.11 329.21 566.86 333.69 568.81 337.09 571.26 339.56 575.84 342.6 581 344.81 582.86 345.74 584.62 347.22 584.87 349.3 583.76 352.82 583.79 354.05 584.29 354.95 585.99 355.59 590.15 356.11 595.29 355.78 596.44 357.12 597.32 359.89 597.34 361.48 596.75 366.21 594.81 366.25 594.26 368.42 593.88 371.55 593.04 375.2 591.5 379.25 590.73 384.02 591.56 386.98 591.8 388.66 591.8 392.03 593.2 394.32 595.71 395.46 596.67 396.31 599.64 396.74 602.29 394.84 602.86 394.95 606.63 394.44 609.4 394.3 611.52 393.37 614.16 393.07 617.01 393.42 620.74 395.28 623.44 396.37 623.78 397.41 624.13 401.84 623.53 403.35 626.58 402.31 624.03 406.14 620.71 408.15 616.08 410.14 609.06 409.84 603.37 409.89 600.45 410.83 598.13 414.69 597.91 419.25 597.86 422.78 598 425.89 598.37 428.64 598.49 430.29 598.12 432.07 597.39 433.46 596.11 434.27 593.2 434.91 589.45 434.63 587.98 434.32 586.28 433.58 584.22 432.23 581.57 428.99 578.4 426.09 574.39 423.7 572.22 422.94 567.82 421.95 562.16 422.16 557.89 423.24 557.44 423.86 556.55 427.19 556.54 428.54 557.5 430.23 558.89 431.62 561.41 434.56 562.44 436.31 562.71 437.66 562.21 439.23 560.96 439.86 559.25 439.49 556.91 436.42 553.17 433.82 551.94 432.22 551.26 429.62 550.49 428.88 549.57 425.87 548.75 420.33 545.91 415.03 545.07 413.71 542.9 411.06 536.73 409.06 532.55 408.05 529.36 408.31 523.91 409.93 520.61 411.11 516.01 413.82 509.67 417.25 507.94 418.03 504.17 420.98 501.96 422.07 500.4 422.5 495.59 422.78 493.35 422.08 491.65 420.81 489.19 418.42 491.02 418.2 491.76 414.33 491.37 413.16 491.8 412.3 491.26 411.53 490.96 408.37 488.64 409 488.93 408.04 487.71 407.79 486.68 408.14 485.97 405.05 485.3 405.32 482.51 403.77 479.89 402.08 479.05 401.08 477.56 400.88 476.82 401.52 473.53 402.98 473.25 404.62 473.37 406.71 471.66 408.26 469.44 409.52 467.49 411.69 465.95 412.44 465.29 414.09 464.03 413.93 462.7 414.81 460.87 415.21 459.8 417.44 457.86 416.93 457.65 416.44 455.17 416.66 453.98 417.63 451.82 416.97 450.58 416.14 449.48 411 447.89 409.1 446.71 408.88 445.06 409.34 444.23 408.65 444.88 406.18 447.25 404.16 448.2 404.07 451.01 406.06 453.63 403.68 451.36 400.8 451.5 399.33 450.07 399 447.79 398.08 447.48 397.68 447.98 395.48 447.8 393.6 446.97 393.97 446.74 395.69 446.17 396.9 444.3 397.74 442.93 400.95 441.22 401.15 439.71 400.65 437.25 398.52 436.59 396.72 434.66 394.96 434.3 394.3 434.08 392.31 432 392.47 429.22 394.84 428.72 396.98 427.24 399.15 426.92 401.02 425.95 401.79 425.08 401.82 423.98 404.31 422.54 405.59 421.93 404.14 422.28 402.8 422.04 401.38 421.52 400.79 421.49 398.36 420.29 397.9 417.9 395.71 417.54 395.05 417.03 391.88 415.78 392.18 414.09 391.92 413.55 391.32 413.75 388.54 412.47 387.17 412.9 383.26 413.64 382.59 414.59 382.95 415.23 382.35 413.97 378.99 412.76 377.67 413.97 375.49 414.59 371.56 412.54 371.41 411.35 372.04 410.79 371.08 409.74 370.52 408.79 369.34 405.58 369.56 406.31 368.16 405.68 367.56 403.68 368.01 401.17 370.21 400.42 371.42 399.21 369.5 398.71 366.69 397.93 364.68 398.67 364.14 397.15 362.68 398.85 362.57 399.21 361.26 399.93 360.61 399.89 359.47 400.48 358.78 401.14 356.87 401.11 354.45 402.35 352.71 402.21 350.53 403.81 349.35 405.41 346.25 405.33 345.49 406.06 343.24 407.38 342.79 408.78 343.76 409 344.62 410 345.44 410.91 345.59 411.79 347.8 413.64 347.98 414.84 347.03 416.21 346.6 416.34 345.31 417.8 344.89 418.07 340.91 417.74 340.02 415.81 339.33 415.72 338.18 417.43 336.9 417.99 335.32 417.82 334.05 418.62 332.79 419.91 331.93 419.75 330.7 422.42 329.04 423.52 327.81 423.67 326.73 425.51 325.74 425.94 324.12 424.48 322.6 425.85 321.99 426.84 320.52 428.3 317.34 428.95 316.53 429.56 314.19 428.79 312.92 429.43 312.14 430.46 311.92 431.17 310.11 430.56 308.68 432.04 306.18 432.32 304.99 431.46 304.38 431.08 302.26 430.46 301.61 430.4 298.37 431.43 295.78 432 295.37 431.68 292.24 432.5 291.53 432.77 289.8 433.72 288.03 433.66 287.31 432.71 286.38 432.91 285.4 433.94 284.85 434.35 283.77 435.22 283.14 435.55 279.87 436.16 277.74 436.09 276.28 437.7 274.63 437.26 273.76 436.19 273.18 434.5 271.19 435.26 270.8 435.87 269.57 436.83 268.73 436.5 266.8 434.58 266.08 433.93 264.38 433.99 262.7 434.94 261.68 433.95 260.55 433.9 259.12 434.5 258.04 434.39 255.31 432.53 255.88 429.71 254.45 429.65 253.15 430.8 251.11 432.41 249.42 433.46 249.2 436.04 247.56 437.08 246.69 436.96 245.62 436.16 244.69 438.34 242.97 439 243.37 441.18 241.44 442.43 239.35 443.24 239.28 446.41 241.41 447.84 243.6 449.23 244.51 450.87 244.55 453.55 245.69 456.24 245.08 458.2 245.71 459.3 247.57 462.01 247.01 463.51 245.4 465.21 245.17 466.52 247.05 467.65 246.66 468.63 247.5 472.07 248.34 474.25 247.27 475.88 247.79 476.44 248.98 477.67 248.96 478.64 250 480.87 250.07 481.26 249.25 481.24 247.83 482.63 245.87 483.33 244.45 481.94 240.19 482.04 238.92 483.57 238.26 484.26 237.55 485.47 237.34 487.61 238.17 488.74 237.59 491.04 238.05 493.23 240.77 494.4 241.26 494.65 238.91 496.41 238.18 496.33 236.49 497.87 232.26 497.68 231.32 496.81 230.24 496.45 229.06 498.2 227.46 497.7 225.98 500.16 224.79 502.17 224.97 503.41 225.8 505.05 228.84 506.68 230.42 507.7 230.59 510.98 229.24 512.07 229.39 513.52 227.93 514.92 226.03 516.35 224.5 517.65 222.65 519.71 221.74 521.96 223.45 523.01 225.35 523.13 226.24 522.15 227.64 523.59 229.24 524.74 229.46 527.04 229.35 529.15 228.7 531.22 228.59 532.75 228.2 535.91 228.76 Z" id="37040310"/>
<path d="M 285.89 185.46 288.67 185.77 289.24 186.27 292.22 186.72 293.39 187.56 294.42 187.79 296.31 191.23 297.89 191.46 301 193.5 305.12 197.06 305.59 198.43 304.77 199.5 307.11 201.23 307.53 199.17 309.52 198.4 310.87 197.44 311.93 198.09 313.76 197.56 315.17 196.36 316.15 196.78 318.94 196.14 320.02 194.6 321.89 192.95 322.93 193.7 328.38 195.75 329.18 197.99 330.22 198.37 331.53 200.07 332.12 201.8 332.67 202.03 335.24 201.76 337.16 202.88 337.4 203.4 336.83 205.85 336.73 207.93 337.96 209.93 339.07 210.38 340.86 210.36 341.05 212.9 342.12 214.06 343.45 214.38 345.72 215.83 347.19 215.76 348.12 216.95 351.26 215.61 352.22 215.66 353.95 216.85 356.17 215.65 358.26 215.54 359.31 214.24 361.42 213.06 363.24 212.85 364.92 212.34 366.21 212.69 367.07 209.8 368.32 209.31 369.89 208 370.07 207.08 372.63 205.32 373.32 205.55 376.05 208.24 377.97 210.65 379.69 213.31 380.75 213.72 381.95 215.28 385.42 216.65 387.58 217.19 389.91 216.26 390.88 214.97 392.29 213.66 394.37 212.32 395.36 212.44 395.74 211.34 397.65 210.65 398.65 211.66 400.23 212.04 403.72 212.07 405.79 213.68 407.32 215.91 408.06 219.07 409.42 219.69 410.48 219.17 411.29 219.38 412.66 221.29 413.32 223.95 415.63 224.25 415.62 223.28 418.29 222.38 419.57 222.69 422.33 222.5 424.16 221.36 425 221.53 425.83 220.36 427.16 219.49 427.53 218.64 429.04 217.95 429.7 218.85 429.22 220.72 430.53 221.28 432.35 221.14 432.43 222.87 431.3 225.79 436.41 226.94 438.81 228.6 437.94 231.73 439.07 232.59 440.62 235.02 443.41 235.58 442.71 236.78 442.43 239.35 441.18 241.44 439 243.37 438.34 242.97 436.16 244.69 436.96 245.62 437.08 246.69 436.04 247.56 433.46 249.2 432.41 249.42 430.8 251.11 429.65 253.15 429.71 254.45 432.53 255.88 434.39 255.31 434.5 258.04 433.9 259.12 433.95 260.55 434.94 261.68 433.99 262.7 433.93 264.38 434.58 266.08 436.5 266.8 436.83 268.73 435.87 269.57 435.26 270.8 434.5 271.19 436.19 273.18 437.26 273.76 437.7 274.63 436.09 276.28 436.16 277.74 435.55 279.87 435.22 283.14 434.35 283.77 433.94 284.85 432.91 285.4 432.71 286.38 433.66 287.31 433.72 288.03 432.77 289.8 432.5 291.53 431.68 292.24 432 295.37 431.43 295.78 430.4 298.37 430.46 301.61 431.08 302.26 431.46 304.38 432.32 304.99 432.04 306.18 430.56 308.68 431.17 310.11 430.46 311.92 429.43 312.14 428.79 312.92 429.56 314.19 428.95 316.53 428.3 317.34 426.84 320.52 425.85 321.99 424.48 322.6 425.94 324.12 425.51 325.74 423.67 326.73 423.52 327.81 422.42 329.04 419.75 330.7 419.91 331.93 418.62 332.79 417.82 334.05 417.99 335.32 417.43 336.9 415.72 338.18 415.81 339.33 417.74 340.02 418.07 340.91 417.8 344.89 416.34 345.31 416.21 346.6 414.84 347.03 413.64 347.98 411.79 347.8 410.91 345.59 410 345.44 409 344.62 408.78 343.76 407.38 342.79 406.06 343.24 405.33 345.49 405.41 346.25 403.81 349.35 402.21 350.53 402.35 352.71 401.11 354.45 401.14 356.87 400.48 358.78 399.89 359.47 399.93 360.61 399.21 361.26 398.85 362.57 397.15 362.68 398.67 364.14 397.93 364.68 398.71 366.69 399.21 369.5 400.42 371.42 400.29 373.49 399.28 374.48 398.13 373.76 395.47 373.43 392.79 373.84 392 373.47 390.26 374.01 389.03 373.15 388.05 373.99 387.53 377.01 386.21 376.41 383.9 376.29 383.51 377.46 381.77 376.52 381.32 375.15 381.57 373.33 380.45 371.32 380.96 370.56 380.95 367.03 381.57 366.22 381.7 365.01 382.95 363.23 383.39 361.61 385.03 360 386.17 357.72 387.17 356.97 387.64 355.56 388.55 354.73 388.17 353.88 386.34 351.42 385.36 350.92 385.07 349.4 386.36 346.05 385.38 343.81 385.06 341.05 385.59 340.03 387.64 338.1 388.25 336.46 388.9 335.89 388.37 334.12 387.93 331.58 388.18 329.89 388.79 329.37 388.42 327.81 387.15 325.52 388.42 324.21 388.91 322.52 387.26 319.59 386.57 318.84 387.73 317.49 387.16 314.1 385.28 311.39 385.49 310.05 382.76 308.27 383.23 307.05 383.9 303.64 383.91 302.56 382.83 301.78 384.06 300.22 384.18 297.9 382.93 296.62 381.62 292.52 380.7 290.1 379.34 290.09 377.76 290.66 375.9 288.38 373.87 287.98 372.41 289.92 372.25 291.44 370.57 293.35 369.81 293.75 367.76 292.76 365.87 293.58 364.06 294.87 362.5 294.96 361.13 294.49 358.26 293.95 354.92 294.87 351.57 293.81 348.54 292.25 345.71 291.43 344.53 290.43 343.78 290.32 341.59 289.09 338.28 288.91 336.98 288.51 335.13 288.55 333.86 287.82 333.18 286.77 330.72 285.48 328.32 285.21 326.41 285.23 325.96 281.99 326.08 279.56 325.34 278.29 325.1 276.26 325.29 274.12 326.4 272.53 327.5 271.53 328.87 269.66 328.52 269.06 327.05 268.26 325.61 269.04 323.21 269.17 321.88 268.72 320.36 267.71 318.29 267.74 317.84 265.89 312.96 265.35 312.23 266.21 309.32 265.58 307.05 265.96 307.6 267.45 308.43 272.21 307.61 272.9 306.14 272.75 304.31 274.84 302.96 275.29 301.19 275.1 299.66 275.6 299.08 275.06 297.13 275.39 295.93 276.48 293.51 277.63 291.11 277.54 289.98 279.2 288.87 279.96 288.75 281.89 286.42 283.95 286.06 285.44 284.15 285.97 282.61 285.99 282.15 284.77 280.83 283.27 278.93 283.71 278.42 284.7 275.95 286 274.78 286.35 273 288.92 271.02 289.59 268.64 290.05 265.82 288.94 264.49 288.83 263.57 289.35 262.03 288.15 260.49 287.95 258.98 286.52 256.38 285.72 254.42 286.44 253.21 285.76 252.18 286.09 250.33 285.49 248.97 283.95 245.88 284.85 244.55 284.76 242.53 283.58 242.79 281.06 242.27 277.79 242.17 275.33 242.49 272.56 243.3 269.95 243.72 267.58 242.73 265.89 241.03 263.6 241.27 261.19 239.25 259.31 238.01 257.32 237.83 255.5 241.36 251.93 245.21 250.07 246.91 247.29 247.71 246.71 250.26 245.87 250.5 245.04 249.39 242.52 249.03 240.12 249.46 238.03 250.46 236.06 249.04 235.22 248.07 233.85 248.4 231.6 246.86 230.92 245.61 231.22 244.58 230.97 242.59 231.08 242.22 229.88 240.58 229.28 239.22 227.39 238.68 225.93 234.72 223.98 233.4 224.04 231.47 222.63 228.73 224.6 226.91 224.89 224.27 223.62 222.54 222.43 222.75 220.4 222.68 217.88 224.97 217.52 228.14 217.26 230 216.08 230.86 214.63 231.88 211.12 232.04 207.35 231.31 205.69 229.73 205 228.91 201.71 229.44 197.27 230.72 195.11 232.54 193.31 235.37 191.81 236.57 191.4 238.96 191.25 239.46 190.52 241.6 190.2 244.28 189.49 247.17 190.37 248.42 191.4 251.11 192.34 251.46 193.82 253.06 195.52 255.29 197.46 256.4 197.67 258.81 196.29 259.85 194.68 260.39 192.51 261.66 192.08 263.9 192.06 265.81 191.26 273.66 189.97 274.99 188.94 276.3 186.33 276.38 184.61 277.52 184.37 279.31 184.92 280.61 184.92 283.19 186.02 283.72 185.66 285.89 185.46 Z" id="37040320"/>
<path d="M 242.84 301.63 243.41 301.04 243.19 297.95 243.26 295.84 243.94 293.94 243.52 292.37 244.39 289.41 244.06 288.13 244.55 284.76 245.88 284.85 248.97 283.95 250.33 285.49 252.18 286.09 253.21 285.76 254.42 286.44 256.38 285.72 258.98 286.52 260.49 287.95 262.03 288.15 263.57 289.35 264.49 288.83 265.82 288.94 268.64 290.05 271.02 289.59 273 288.92 274.78 286.35 275.95 286 278.42 284.7 278.93 283.71 280.83 283.27 282.15 284.77 282.61 285.99 284.15 285.97 286.06 285.44 286.42 283.95 288.75 281.89 288.87 279.96 289.98 279.2 291.11 277.54 293.51 277.63 295.93 276.48 297.13 275.39 299.08 275.06 299.66 275.6 301.19 275.1 302.96 275.29 304.31 274.84 306.14 272.75 307.61 272.9 308.43 272.21 307.6 267.45 307.05 265.96 309.32 265.58 312.23 266.21 312.96 265.35 317.84 265.89 318.29 267.74 320.36 267.71 321.88 268.72 323.21 269.17 325.61 269.04 327.05 268.26 328.52 269.06 328.87 269.66 327.5 271.53 326.4 272.53 325.29 274.12 325.1 276.26 325.34 278.29 326.08 279.56 325.96 281.99 326.41 285.23 328.32 285.21 330.72 285.48 333.18 286.77 333.86 287.82 335.13 288.55 336.98 288.51 338.28 288.91 341.59 289.09 343.78 290.32 344.53 290.43 345.71 291.43 348.54 292.25 351.57 293.81 354.92 294.87 358.26 293.95 361.13 294.49 362.5 294.96 364.06 294.87 365.87 293.58 367.76 292.76 369.81 293.75 370.57 293.35 372.25 291.44 372.41 289.92 373.87 287.98 375.9 288.38 377.76 290.66 379.34 290.09 380.7 290.1 381.62 292.52 382.93 296.62 384.18 297.9 384.06 300.22 382.83 301.78 383.91 302.56 383.9 303.64 383.23 307.05 382.76 308.27 385.49 310.05 385.28 311.39 387.16 314.1 387.73 317.49 386.57 318.84 387.26 319.59 388.91 322.52 388.42 324.21 387.15 325.52 388.42 327.81 388.79 329.37 388.18 329.89 387.93 331.58 388.37 334.12 388.9 335.89 388.25 336.46 387.64 338.1 385.59 340.03 385.06 341.05 385.38 343.81 386.36 346.05 385.07 349.4 385.36 350.92 386.34 351.42 388.17 353.88 388.55 354.73 387.64 355.56 387.17 356.97 386.17 357.72 385.03 360 383.39 361.61 382.95 363.23 381.7 365.01 381.57 366.22 380.95 367.03 380.96 370.56 380.45 371.32 381.57 373.33 381.32 375.15 381.77 376.52 383.51 377.46 384.73 379.35 385.45 379.66 383.86 381.21 384.39 382.48 385.79 382.59 385.67 384.47 385.04 386.45 384.43 387.02 381.03 386.88 379.66 386.05 378.24 386.12 376.23 385.8 375.19 383.98 375.77 383.27 375.17 382.57 373.17 382.25 371.86 383.39 371.13 383.41 370.04 387.55 368.61 389.8 367.14 390.01 367.06 390.56 364.32 390.84 363.06 391.39 361.7 393.03 362.19 396.09 361.07 396.45 360.15 397.63 357.82 398.55 356.9 398.06 356.43 397.08 356.44 394.64 355.71 393.34 354.62 392.75 353.06 392.6 352.54 393.18 351.4 396.31 350.6 399.74 348.16 404.01 346.34 406.5 343.19 411.28 341.95 415.24 341.76 417.82 340.62 420.68 340.45 424.97 341.44 429.54 341.55 430.78 338.8 429.18 335.34 425.83 334.12 424.98 334.25 424.16 333.41 422.13 331.72 420.87 328.36 420.76 326.69 419.31 325.15 419.07 324.31 418.45 323.01 418.47 320.63 417.96 319.42 417.04 318.49 417.45 316.81 416.75 315.23 415.31 313.47 414.17 309.48 412.82 306.96 412.48 304.99 411.11 302.29 410.85 300.25 409.91 297.62 410.52 295.39 410.32 295.18 409.12 296.24 406.4 297.8 405.35 298.32 404.07 297.77 402.81 296.09 402.48 294.83 399.95 292.75 398.64 293.35 396.22 292.44 393.96 290.75 393.42 288.95 391.41 287.87 390.61 286.73 388.98 285.84 387.17 284.64 386 283.31 385.45 282.37 385.65 281.23 384.61 279.58 381.2 277.88 379.77 277.23 379.62 275.93 378.05 275.2 377.84 273.74 378.66 272.23 377.65 269.81 378.36 267.25 377.95 266.49 379.09 265.31 382.61 264.12 382.47 261.57 383.54 259.93 382.86 257.87 385.01 259.7 387.14 258.96 388.01 257.01 388.58 256.35 389.73 253.99 390.69 253.38 392.59 252.65 393.61 251.63 394.04 250.08 395.26 248.82 396.74 245.29 396.17 243.8 396.14 243.29 394.15 239.64 394.97 237.16 396.76 235.66 396.06 233.96 394.75 235.96 393.33 238.98 391.67 242.62 390.06 243.13 389.85 243.41 390.17 245.89 389.42 245.81 388.46 247.76 386.18 247.97 383.47 246.3 382.02 246.73 380.7 246.17 378.08 246.99 374.67 247.35 374.46 247.51 371.7 248.09 369.9 247.8 369.19 248.75 367.76 249.22 365.46 248.43 364.73 246.59 361.54 245.86 361.02 246.27 359.4 246.1 357.69 246.97 356.4 246.74 354.93 247.91 353.86 248.4 352.49 248.94 352.24 249.69 350.23 249.01 348.33 249.57 346.94 248.66 345.53 246.74 344.38 245.42 344.2 245.38 343.44 247.65 341.39 247.94 339.6 247.65 337.04 248 336.02 249.47 335.43 248.72 332.81 249.09 331.55 248.33 329.72 248.85 327.94 250.25 327.51 250.31 326.24 249.72 324.17 249.8 320.45 251.13 319.04 250.4 316.59 250.54 314.87 251.44 312.46 251.32 310.35 251.86 307.88 251.16 306.82 248.26 305.89 247.14 305.21 245.56 305.36 244.42 303.99 244.48 303.05 242.84 301.63 Z" id="37040330"/>
<path d="M 167.16 469.13 168.79 470.76 172.32 472.88 173.52 474.14 174.59 475.83 177.57 481.12 178.69 482.14 180.44 484.82 181.76 486.43 184.46 483.94 186.12 485.27 188.6 487.88 189 490.67 189.91 491.4 190.58 493.32 190.77 495.61 191.76 497.85 193.65 499.52 192.09 502.26 191.37 504.02 191.46 505.19 192.04 505.81 193.3 508.61 195.43 510.02 195.38 514.14 197.72 517.98 198.63 519.15 199.3 521.36 199.12 523.24 198.05 525.35 200.63 527.97 201.82 529.54 203.31 530.14 205.23 530.51 206.74 531.97 206.59 537.04 207.64 538.79 209 540.27 210.19 542.41 210.02 543.32 212.24 546.33 214 548.28 216.24 550.43 215.9 554.17 216.3 554.91 218.33 556.84 219.03 560.18 220.34 561.48 221.66 562.29 222.56 562.01 224.97 563.51 226.16 565.89 224.21 569.89 222.78 570.66 221.81 572.21 222.45 573.71 222.83 577.24 223.98 578.26 224.65 580.02 223.83 581.45 223.85 583.65 222.36 584.78 220.36 584.61 219.33 584.85 216.59 587.45 215.58 588.93 214.61 589.55 212.59 591.69 212.95 593.93 211.72 595.71 211.56 597.06 211.75 600 210.14 604.14 211.84 605.13 212.85 607.01 212.94 607.93 216.24 608.32 217.61 610.65 217.82 612.63 219.26 612.84 219.75 616.59 218.42 618.88 219.29 621.48 220.05 624.66 216.78 627.73 214.28 628.47 212.47 631.45 213.27 633.49 212.35 635.8 213.22 637.87 211.7 641.32 209.83 642.12 207.5 643.52 205.99 643.89 205.14 645.62 203.27 646.96 202.54 649.59 200.75 651.48 195.69 648.89 195.09 645.38 193.83 643.96 194.85 641.5 194.74 639.4 193.99 638.73 194.38 637.06 192.68 635.97 193.04 634.46 190.97 634.08 190.54 633.28 187.34 630.43 186.83 628.66 186.16 627.68 186.08 626.47 186.46 625.26 185.72 623.32 184.36 621.78 183.55 619.54 184.01 618.44 183.85 617.3 184.73 614.92 183.73 614.03 181.39 612.97 180.39 612.9 179.14 611.58 177.33 610.8 175.4 608.61 175.54 605.76 174.66 604.48 175.33 602.14 174.72 599.93 176.15 596.68 175.25 595.54 175.23 594.24 175.73 593.23 174.5 591.09 174.08 587.35 173.45 585.83 171 583.62 169.58 583.68 166.47 583.17 163.78 584.08 162.67 583.88 161.81 581.97 161.01 581.78 160.23 580.27 158.98 579.72 157.36 577.28 156.32 574.99 154.59 574.95 153.6 575.73 150.35 575.47 149.02 574.99 148.18 572.75 147.26 571.76 147.02 570.82 145.5 570.29 143.25 570.85 138.46 569.43 137.51 570.86 136.03 571.99 133.85 570.52 131.14 570.89 130.55 570.64 129.31 571.19 127.73 570.44 126.35 572.21 124.91 572.55 123.64 571.5 122.31 571.43 121.32 571.9 119.62 571.29 117.39 568.31 115.71 567.28 112.53 568.2 110.55 568.35 109.06 569.52 107.67 567.93 106.78 565.14 105.84 563.96 104.34 562.81 102.52 560.27 102.25 559.52 102.24 555.25 100.43 551.67 99.74 548.84 100.14 547.24 99.38 545.2 98.26 543.34 96.26 541.37 95.6 540.09 94.58 539.4 93.53 539.56 92.51 538.84 91.05 538.84 89.37 537.8 85.52 538.65 84.26 539.77 81.98 542.85 79.32 542.75 77.25 543.92 75.34 542.78 74.28 542.72 71.79 543.64 69.85 542.98 68.26 543.69 67.1 545.38 66.92 547.92 68.75 550.78 68.11 553.53 68.27 557.32 66.62 558.72 66.74 564.93 66.51 567.58 66.06 568.23 66.32 569.99 65.45 570.98 64.58 570.63 60.91 570.33 59.76 569.89 58.57 570.13 53.99 570.41 50.92 571.15 51.24 573.18 49.25 574.83 48.97 575.97 49.13 577.47 48.91 580.32 49.02 582.94 48.73 584.58 46.96 585.76 45.58 585.11 44.91 583.98 43.33 582.64 42.23 579.53 39.64 581.63 38.26 584.74 36.42 584.53 34.89 583.5 33.93 581.89 32.98 582.13 31.66 581.55 30.07 579.44 27.01 578.4 26.17 577.62 24.89 577.23 23.94 576.22 23.76 575.12 22.54 572.75 18.95 571.01 16.8 569.51 14.14 566.48 13.27 565.14 11.28 564.49 9.81 565.43 8.51 565.25 7.89 564.53 8.6 561.34 7.87 558.42 7.56 556.36 6.56 554.43 6.12 550.27 6.91 549.32 7.68 547.48 8.61 547 9.87 545.09 10.86 544.24 13.07 541.09 11.43 538.95 11.04 537.97 9.12 536.61 7.06 536.79 4.04 535.47 2.18 535.05 1 534.25 2.43 533.32 4.12 532.93 5.36 532.08 11.04 531.54 12.52 529.06 12.5 527.88 13.34 526.01 15.86 521.57 17.11 519.84 20.09 518.88 24.27 516.82 27.82 514.63 30.19 512.26 33.33 509.63 35.4 508.13 35.45 505.81 37.92 503.92 40.25 502.71 50.99 502.49 50.83 497.09 49.7 497.02 49.33 495.43 47.31 494.6 46.42 491.74 45.82 491.39 45.04 488.45 43.9 487.89 43.81 487 41.83 486.29 41.03 486.37 39.23 481.97 41.73 482.07 43.37 479.55 42.4 476.85 40.53 476.92 37.95 475.17 38.16 474.19 39.02 473.73 40.86 471.77 41.94 471.76 42.89 472.29 46.3 471.74 45.28 468.88 46.36 468.05 47.74 468.96 48.67 466.14 51.16 465.35 52.98 465.58 55.21 464.99 56.09 464.02 55.95 462.63 55.03 461.56 54.42 459.74 59.1 459.55 60.42 458.95 61.02 459.39 62.77 457.19 63.29 457.84 76.23 450.26 89.28 447.72 88.94 447 89.81 445.63 89.77 443.49 90.14 441.69 90.82 441.87 91 439.83 90.71 438.02 89.75 436.25 92.32 433.6 93.48 433.25 93.66 430.32 94.17 428.09 93.35 425.22 97.91 421.56 98.58 422.77 100.46 424.43 101.54 424.58 102.01 423.97 103.65 423.92 104.36 424.87 106.12 425.1 109.44 423.69 110.6 423.61 113.32 422.8 116.46 423.02 118.21 422.9 119.44 421.68 120.58 422.03 122.33 421.82 123.94 420.32 124.68 420.62 126.74 422.42 128.5 424.26 130.18 426.61 130.77 428.2 133.8 431.35 134.16 430.86 135.91 430.43 137.38 429.74 138.61 430.4 143.54 429.45 144.47 431.05 145.01 435.61 144.74 437.2 147.1 437.5 148.41 438.97 147.23 442.23 145.73 445.18 147.75 446.43 149.74 446.53 152.35 445.25 152.55 445.6 152.2 451.46 157.14 451.76 156.87 456.07 158.72 456.18 158.61 458.14 160.18 458.24 159.52 469.02 162.04 469.06 163.52 469.64 164.97 469.74 167.16 469.13 Z" id="37040340"/>
<path d="M 374.08 569.15 374.78 571.4 374.67 573.27 374.16 576.58 374.78 585.37 375.36 588.5 376.76 590.52 378.4 591.37 378.86 591.05 380.83 591.53 382 590.84 383.51 592.12 384.94 592.31 385.6 593.41 387.99 595.99 390.1 597.52 392.75 599.17 392.62 599.83 393.65 600.67 395.77 603.33 395.44 603.75 395.82 607.03 396.24 609.15 396.05 609.81 393.79 611.74 392.08 612.16 390.7 613.13 390.12 615.17 388.62 615.92 387.79 616.99 387.3 619.58 387.48 621.3 387.12 622.13 387.38 623.55 388.9 625.63 389.94 626.46 390.12 628.34 389.73 629.98 389.05 631.23 390.06 632.63 389.39 633.02 390.51 634.62 391.74 635.87 391.13 636.48 391.58 638.27 391.38 641.62 389.99 644.18 390.7 648.01 391.48 649.43 392.41 652.01 392.31 653.23 390.07 654.63 389.52 655.26 388.09 655.68 385.54 655.26 384.25 655.45 382.08 654.45 380.45 656.16 379.1 656.15 377.73 656.79 375.55 656.17 375.46 657.51 374.01 658.36 372.96 659.44 370.77 660.56 366.78 661.14 364.72 660.66 363.19 660.59 362.07 660.16 359.37 660.29 358.66 661.96 357.52 662.57 354.77 664.75 354.04 666.46 348.3 673.18 346.36 674 345.31 673.7 343.26 672.17 340.73 671.33 339.27 670.34 338.08 670.35 335.44 671.21 333.43 671.52 330.99 672.97 327.72 675.41 327.75 676.69 325.94 678.17 324.42 679 322.64 680.41 322.03 681.27 320.07 683.02 319.65 684.95 318.31 686.22 315.59 686.34 313.55 685.43 312.32 685.45 310.99 686.11 307.51 688.61 303.4 689.1 300.79 688.62 298.8 686.84 295.71 686.66 294.6 689.32 293.69 690.84 292.59 690.61 290.66 693.05 290.02 694.56 288.77 694.16 286.76 694.33 284.97 692.22 283.29 693.37 283.26 694.96 282.43 696.63 283.57 698.22 283.41 699.16 284.33 702.43 283.7 703.59 281.96 703.47 281.12 704.39 279.36 704.44 277 705.67 275.31 705.33 273.06 706.54 271.76 706.04 270.98 705.14 269.19 705.79 267.77 705.08 266.51 705.33 265.41 704.69 263.87 705 263.16 706.05 261.81 705.96 260.23 706.34 259.81 707.03 258.13 707.35 256.76 710.53 256.04 711.2 256.81 713.21 255.85 715.59 254.93 716.52 254.84 717.53 253.47 719.24 253.58 721.1 252.56 721.85 252.52 724.27 252.05 725.69 250.52 727.32 249.95 729.1 248.99 729.97 248.1 729.43 246.22 725.54 245.1 725.78 244.55 725.17 242.55 724.09 241.04 723.64 239.9 721.41 239.22 717.24 239.52 715.99 239.25 715.13 239.73 713.61 239.21 712.73 239.26 711.43 238.11 708.67 237.9 706.55 237.24 702.55 236.74 700.82 238.15 697.54 239.44 695.62 238.53 694.79 237.07 692.81 236.83 691.65 238.18 689.29 238.79 689.02 238.71 687.52 239.19 685.82 240.73 684.2 239.06 681.97 236.9 680.73 236.57 679.48 235.4 677.65 233.52 675.69 231.31 674.61 228.01 671.39 226.01 670.36 224.88 670.66 223.8 669.62 221.18 669.56 219.84 668.82 217.8 669.96 215.21 670.29 213.64 670.85 210.93 670.14 210.81 668.91 209.21 667.27 208.18 663.97 206.88 662.53 205.85 659.94 203.87 658.19 201.95 654.1 201.73 653.12 200.75 651.48 202.54 649.59 203.27 646.96 205.14 645.62 205.99 643.89 207.5 643.52 209.83 642.12 211.7 641.32 213.22 637.87 212.35 635.8 213.27 633.49 212.47 631.45 214.28 628.47 216.78 627.73 220.05 624.66 219.29 621.48 218.42 618.88 219.75 616.59 219.26 612.84 217.82 612.63 217.61 610.65 216.24 608.32 212.94 607.93 212.85 607.01 211.84 605.13 210.14 604.14 211.75 600 211.56 597.06 211.72 595.71 212.95 593.93 212.59 591.69 214.61 589.55 215.58 588.93 216.59 587.45 219.33 584.85 220.36 584.61 222.36 584.78 223.85 583.65 223.83 581.45 224.65 580.02 223.98 578.26 222.83 577.24 222.45 573.71 221.81 572.21 222.78 570.66 224.21 569.89 226.16 565.89 228.44 565.9 230.69 568.93 232.52 570.78 234.98 571.42 236.19 572.16 235.84 573.88 237.14 575.33 239.72 577.2 240.07 578.15 242.34 578.52 243.53 579.13 244.15 577.15 245.85 576.17 246.48 574.54 250.03 574.73 250.52 573.57 253.49 571.2 255.84 572.56 257.75 570.95 257.95 569.84 259.54 567.78 260.62 567.15 261.72 567.38 262.62 566.87 263.76 567.13 265.61 566.15 267.34 566.01 267.78 564.38 270.49 563.19 270.71 560.74 270.4 559.47 272.32 557.98 273.91 558.13 275.35 557.1 276.88 556.52 278.2 556.53 278.64 555.02 280.57 553.74 281.31 552.07 281.26 550.67 281.75 549.25 282.62 548.54 282.34 545.89 285.65 545.24 286.54 543.8 288.79 541.38 290.65 538.42 290.97 537.5 293.73 536.04 295.42 535.62 296.52 538.43 297.71 539.73 298.77 540.24 300.32 542.61 301.82 544.37 302.29 545.41 303.88 544.66 305.13 546.53 304.96 549.92 304.31 551.39 305.9 553.09 307.35 553.51 308.18 554.77 311.39 557.31 313.18 559.62 313.16 560.6 313.9 561.6 315.17 562.5 317.7 565.53 318.19 565.64 319.78 564.64 322.16 563.96 324.28 564.81 325.87 566.63 326.36 567.78 328.76 567.34 332.08 567.35 337.49 566.82 338.69 564.71 340.69 563.06 342.89 562.51 343.85 563.09 344.25 563.99 345.6 565 346.19 566.74 348.86 566.96 351.71 566.97 352.94 570.41 353.79 570.84 356.2 570.64 356.8 570.95 358.8 569.92 359.89 568.24 361.44 567.33 363.73 566.69 364.69 568.04 367.75 568.65 368.99 569.42 370.08 569.16 371.61 569.73 374.08 569.15 Z" id="37040350"/>
<path d="M 326.9 481.01 328.42 483.02 326.75 483.87 324.14 484.28 322.12 485.53 324.99 485.72 326.13 485.43 328.17 485.77 330.07 487.01 330.93 486.86 333.22 484.87 335.05 483.79 337.58 485.18 338 485.09 339.71 486.31 340.73 487.82 340.81 489.57 341.8 489.9 344.08 491.3 345.97 491.32 346.62 492.41 348.17 493.32 347.96 493.81 349.78 495.08 352.67 493.57 355.22 496.17 357.23 495.78 358.63 497.17 360.08 496.11 361.66 496.89 363.83 498.86 364.42 500.02 363.93 500.92 363.89 502.72 365.49 503.49 365.32 505.5 365.54 507.38 365.03 508.42 365.03 509.65 366.27 509.61 366.82 511.87 366.73 512.99 367.87 513.37 368.64 514.51 370.64 514.6 369.9 517.45 370.67 518.87 370.47 520.52 369.73 521.93 371.08 524.23 371.81 524.34 372.86 525.43 373.52 528.68 375.8 530.15 376.33 531.69 377.1 532.21 377.3 534.77 376.96 535.96 375.67 536.72 374.63 538.48 373.21 540.34 374.71 541.56 375.35 543.31 377.85 545.16 378.34 546.06 378.55 548.09 379.27 549.09 381.39 549.32 381.98 550.79 381.68 553.22 380.5 555.12 380.59 557.52 381.37 560.35 383.73 562.34 383.19 564.2 381.88 565.34 380.49 565.99 375.9 566.08 374.49 567.04 374.08 569.15 371.61 569.73 370.08 569.16 368.99 569.42 367.75 568.65 364.69 568.04 363.73 566.69 361.44 567.33 359.89 568.24 358.8 569.92 356.8 570.95 356.2 570.64 353.79 570.84 352.94 570.41 351.71 566.97 348.86 566.96 346.19 566.74 345.6 565 344.25 563.99 343.85 563.09 342.89 562.51 340.69 563.06 338.69 564.71 337.49 566.82 332.08 567.35 328.76 567.34 326.36 567.78 325.87 566.63 324.28 564.81 322.16 563.96 319.78 564.64 318.19 565.64 317.7 565.53 315.17 562.5 313.9 561.6 313.16 560.6 313.18 559.62 311.39 557.31 308.18 554.77 307.35 553.51 305.9 553.09 304.31 551.39 304.96 549.92 305.13 546.53 303.88 544.66 302.29 545.41 301.82 544.37 300.32 542.61 298.77 540.24 297.71 539.73 296.52 538.43 295.42 535.62 293.73 536.04 290.97 537.5 290.65 538.42 288.79 541.38 286.54 543.8 285.65 545.24 282.34 545.89 282.62 548.54 281.75 549.25 281.26 550.67 281.31 552.07 280.57 553.74 278.64 555.02 278.2 556.53 276.88 556.52 275.35 557.1 273.91 558.13 272.32 557.98 270.4 559.47 270.71 560.74 270.49 563.19 267.78 564.38 267.34 566.01 265.61 566.15 263.76 567.13 262.62 566.87 261.72 567.38 260.62 567.15 259.54 567.78 257.95 569.84 257.75 570.95 255.84 572.56 253.49 571.2 250.52 573.57 250.03 574.73 246.48 574.54 245.85 576.17 244.15 577.15 243.53 579.13 242.34 578.52 240.07 578.15 239.72 577.2 237.14 575.33 235.84 573.88 236.19 572.16 234.98 571.42 232.52 570.78 230.69 568.93 228.44 565.9 226.16 565.89 224.97 563.51 222.56 562.01 221.66 562.29 220.34 561.48 219.03 560.18 218.33 556.84 216.3 554.91 215.9 554.17 216.24 550.43 214 548.28 212.24 546.33 210.02 543.32 210.19 542.41 209 540.27 207.64 538.79 206.59 537.04 206.74 531.97 205.23 530.51 203.31 530.14 201.82 529.54 200.63 527.97 198.05 525.35 199.12 523.24 199.3 521.36 198.63 519.15 197.72 517.98 195.38 514.14 195.43 510.02 193.3 508.61 192.04 505.81 191.46 505.19 191.37 504.02 192.09 502.26 193.65 499.52 191.76 497.85 190.77 495.61 190.58 493.32 189.91 491.4 189 490.67 188.6 487.88 186.12 485.27 184.46 483.94 181.76 486.43 180.44 484.82 178.69 482.14 177.57 481.12 174.59 475.83 173.52 474.14 172.32 472.88 168.79 470.76 167.16 469.13 167.35 469.08 170.56 462.53 173.38 460.56 174.96 459.92 178.76 459.76 182.75 458.88 190.55 459.06 194.13 458.19 195.4 458.18 198.33 457.65 206.23 462.48 207.76 463.33 211.13 467.93 215.2 471.93 217.36 473.5 218.53 474.02 220.93 476.36 223.38 477.31 226.14 477.53 228.89 477.14 231.43 475.77 232.22 474.84 233.3 472.87 234.64 469.34 233.27 468.83 234.31 467.01 234.94 464.75 235.18 459.88 236.77 460.95 237.4 460.28 244.7 454.74 249.65 451.52 251.81 450.69 257.5 449.91 263.14 449.6 264.82 453.33 268.75 453.48 270.21 451.24 272.97 454.15 275.35 456.19 284.17 466.76 284.83 468.15 285.4 470.28 285.52 473.85 284.83 475.9 284.96 479.75 285.73 482.23 290.47 485.97 294.83 486.35 299.05 487.24 308.22 488.11 311.7 488.06 316.01 487.52 319.86 484.4 323.73 483.36 326.9 481.01 Z" id="37040360"/>
<path d="M 532.83 498.8 533.59 499.07 534.81 500.47 534.4 500.96 534.63 503.81 534.49 505.08 533.55 506.71 534.32 517.34 534.28 520.53 534.46 521.61 535.28 522.83 537.06 523.78 538.14 525.13 538.07 528.87 537.36 529.84 537.06 531.08 535.55 530.8 534.14 530.98 529.02 533.13 528.49 536.03 527.84 536.99 525.41 539.26 523.19 541.68 518.97 543.45 520.75 548.36 521.05 550.08 521.94 552.8 522.05 554.56 521.51 555.02 521.01 559.15 521.25 561.66 522.16 564.11 521.82 565.21 521.85 567.38 522.39 568.73 519.68 570.01 517.98 572.11 516.07 571.42 514.88 572.93 513.16 576.23 513.15 577.5 512.53 579.03 512.54 582.87 512.9 584.76 512.68 585.61 508.13 589.57 507.99 591.65 508.14 594.15 510.94 598.12 511.49 600.79 509.45 604.2 511.96 606.71 512.2 612.79 512.58 614.77 511.84 618.79 511.36 620 510.78 620.61 509.48 620.54 506.4 621.44 504.82 620.83 501.93 618.68 500.12 620.46 499.07 621.97 497.09 622.37 496.81 620.37 495.09 618.44 493.48 617.82 490.53 617.83 489.73 616.4 488.29 615.83 487.53 613.23 486.59 611.7 485.25 610.59 485.33 609.02 484.78 607.78 483.75 603.59 482.1 603.49 480.19 602.63 480.05 599.54 479.4 598.42 477.52 597.09 476.37 595.31 471.89 593.48 469.96 591.86 467.85 591.65 465.87 589.47 464.6 588.73 462.36 588.62 460.2 587.13 457.87 588.42 456.52 588.45 454.07 586.75 452.11 586.36 451.46 584.27 450.16 583.01 447.56 581.47 447.23 582.35 444.11 586.59 440.82 588.71 439.64 590.58 438.02 591.1 435.54 592.87 434.69 594.47 434.17 596.39 432.18 597.59 430.63 599.03 429.69 600.38 427.25 601.71 424.63 602.27 422.92 601.8 420.92 603.58 419.15 601.99 418.35 600.8 415.99 600.34 415.99 599.26 414.42 597.66 413.32 597.65 412.07 596.9 410.93 597.25 409.63 596.76 408.83 594.68 407.93 593.38 406.01 594.77 402.66 594.73 401.55 596.4 401.1 597.8 400.87 600 399.76 601.26 398.13 600.84 397.33 601.8 396.14 602.52 395.77 603.33 393.65 600.67 392.62 599.83 392.75 599.17 390.1 597.52 387.99 595.99 385.6 593.41 384.94 592.31 383.51 592.12 382 590.84 380.83 591.53 378.86 591.05 378.4 591.37 376.76 590.52 375.36 588.5 374.78 585.37 374.16 576.58 374.67 573.27 374.78 571.4 374.08 569.15 374.49 567.04 375.9 566.08 380.49 565.99 381.88 565.34 383.19 564.2 383.73 562.34 381.37 560.35 380.59 557.52 380.5 555.12 381.68 553.22 381.98 550.79 381.39 549.32 379.27 549.09 378.55 548.09 378.34 546.06 377.85 545.16 375.35 543.31 374.71 541.56 373.21 540.34 374.63 538.48 375.67 536.72 376.96 535.96 377.3 534.77 377.1 532.21 376.33 531.69 375.8 530.15 373.52 528.68 372.86 525.43 371.81 524.34 371.08 524.23 369.73 521.93 370.47 520.52 370.67 518.87 372.09 518.34 374.97 519.51 377.19 519.85 377.88 518.96 378.65 516.24 379.55 515.97 380.83 514.28 384.18 515.09 385.16 514.73 385.41 513.93 386.36 513.5 387.31 511.92 387.3 511.14 388.24 510.33 388.67 509.05 390.2 507.48 393.09 505.46 394.47 503.71 394.42 502.66 395.38 501.21 396.58 501.16 397.87 499.94 398.89 499.81 400.33 501.69 401.05 504.29 402.06 505.33 403.04 505.62 404.28 508.25 405.44 508.66 406.27 508.23 406.97 508.95 408.42 509.57 410.27 509.63 411.09 508.47 411.67 506.37 414.62 505.96 416.22 503.96 416.96 503.88 418.85 505.12 419.03 507.45 419.52 508.49 421.23 509.54 422.62 510.82 423.92 511.4 426.21 513.54 427.34 513.07 427.64 511.97 430.21 510.54 430.85 509.03 432.13 509.14 432.63 510.17 433.66 509.79 434.73 508.38 435.88 508.39 437.23 507.35 438.23 508.1 440.21 507.45 442.47 509.34 444.59 508.36 445.58 507 446.6 507.27 447.78 506.16 449.09 501.72 448.93 500.82 450.85 500.64 451.89 500.04 454.71 501.57 456.91 501.91 459.78 500.16 461.48 500.5 466.09 499.8 467.57 498.84 469.08 498.95 469.9 498.1 472.65 496.06 473.76 495.89 475.02 494.73 475.13 492.81 474.55 491.69 474.85 490.18 474.27 488.9 474.19 487.08 475.3 486.9 475.51 485.51 477.72 485.12 480.81 483.22 482.77 481.53 485.68 478.02 487.52 478.12 489.6 479.25 490.5 479.45 493.23 479.16 494.8 481.04 492.3 482.58 491.27 486.73 492.58 487.95 494.19 490.16 494.79 491.47 496.3 493.57 496.53 494.37 498.19 494.51 500.58 495.44 501.78 495.21 505.31 496.2 507.72 496.6 511.32 496.85 512.75 496.61 514.57 496.72 516.24 497.69 517.6 499.03 519.99 499.75 521.39 499.41 525.97 499.37 526.98 499.02 532.83 498.8 Z" id="37040370"/>
<path d="M 598.37 428.64 600.58 428.59 600.73 430.52 601.41 431.69 602.46 431.67 603.8 432.43 604.08 433.23 605.3 433.52 606.04 436.73 606.08 437.86 605.56 440.86 607.39 442.52 607.88 443.44 610 443.76 610.93 445.89 610.62 447.59 609.65 448.57 608.41 450.73 606.26 451.87 605.81 452.43 605.83 454.2 604.86 456.46 605.44 457.76 604.73 458.69 604.88 461.07 606.59 462.47 608.29 462.32 608.93 463.85 610.44 464.67 612.84 467.22 614.03 467.22 614.08 471.85 615.48 473.19 614.42 476.01 615.02 476.6 615.1 478.24 616.33 478.74 617.04 479.6 619.13 479.57 618.73 481.36 621.41 482.7 621.51 484.61 622.77 485.1 623.73 486.21 623.38 487.22 624.29 488.46 624.32 492.88 628.28 491.17 630.45 490.53 632.77 490.37 636.57 491 636.68 494.77 641.08 493.32 642.62 492.95 642.73 494.7 644.96 498.07 644.6 498.95 645.45 501.47 646.5 505.3 647.39 506.06 647.19 507.56 648.91 509.14 649.64 510.54 648.91 510.87 648.38 513.86 648.63 515.46 648.42 516.81 645.68 523.05 644.21 527.47 641.69 529.53 640.78 530.86 637.67 533.79 635.42 534.82 633.8 537.46 634.14 538.72 639.88 541.5 646.51 544.16 648.15 544.55 651.03 543.97 651.96 543.55 654.66 541.52 658.52 536.29 659.12 535.2 661.54 533.35 665.31 529.74 665.58 527.43 666.6 526.25 667.92 525.95 670.76 526.09 673.38 527.03 676 527.45 681.47 529.3 685.65 532.26 686.36 533 684.01 533.21 683.8 534.17 682.26 532.35 681.25 534.53 680.84 534.82 679.47 533.99 676.55 536.64 675.82 538.46 675.66 540.32 674.98 541.36 676.09 544.06 675.91 546.09 675.4 547.89 674.34 548.13 672.34 550.81 670.57 550.65 670.6 552.4 669.78 554.13 669.83 555.66 668.99 557.24 668.85 559.12 669.42 559.51 669 561.32 668.92 563.89 668.19 565.54 669.39 566.24 670.55 567.56 671.07 567.5 671.99 571.11 672.65 572.44 671.24 575.85 672.68 578.11 672.67 578.98 674.1 580.36 674.29 581.6 672.12 583.92 673.2 585.29 675.08 586.28 674.77 588.84 672.08 592.54 672.07 593.6 672.98 594.76 672.86 597.39 671.68 598.13 670.45 598.19 669.58 598.74 669.06 600.14 669.69 601.57 670 603.65 669.24 607.68 667.97 607.1 667.23 609.19 666.58 609.53 665.39 612.6 665.57 619.49 661.61 620.41 661.12 619.53 658.54 618.96 653.77 615.9 653.09 614.65 652.13 614 646.4 612.13 644.8 610.22 643.7 609.8 642.8 608.71 642.18 608.69 641.49 606.39 640.34 603.43 639.88 601.31 638.86 601.24 638.34 600.32 638.28 598 636.14 596.25 635.84 596.86 636.01 599.09 631.97 601.65 627.82 603.38 626.74 604.31 626.08 603.89 624.7 601.97 621.58 602.24 620.54 600.21 618.57 598.59 616.97 598.02 615.24 596.67 613.21 598 612.66 597.77 610.29 598.18 609.3 599.08 606.01 599.74 606.17 601.12 605.74 603.17 604.23 604.55 602.57 604.36 602.24 606.9 602.41 607.96 601.94 609.57 602.09 610.91 602.63 612.02 602.59 613.85 599.23 615.46 596.85 615.07 595.49 616.08 593.2 616.7 591.37 616.33 590.59 618.29 588.51 619.84 588.02 620.7 586.54 620.53 585.63 624.09 585.25 624.42 581.76 623.99 580.94 624.91 578.89 624.46 578.23 623.33 577.05 622.97 572.97 623.46 572.21 627.66 571.61 629.12 572.02 630.49 570.96 632.05 570.19 634.49 568.92 635.31 568.62 636.69 569.08 638.09 569.04 639.66 568.12 640.72 567.31 642.59 565 642.56 563.08 642.09 560.02 642.12 559.21 642.6 556.3 642.09 554.57 643.03 554.15 641.42 551 640.28 549.97 640.23 546.01 641.2 545.43 640.83 540.97 640.44 540.74 639.38 539.81 638.12 539.12 636.05 538.23 635.09 537.83 633.69 535.75 631.13 534.02 631.39 531.68 631.25 530.15 631.67 528.18 631.1 525.29 631.2 524.14 632.07 521.69 632.16 520.62 628.35 519.42 627.03 517.92 626.17 517.15 625.3 515.62 624.83 515.24 623.8 513.94 622.61 513.2 621.23 511.36 620 511.84 618.79 512.58 614.77 512.2 612.79 511.96 606.71 509.45 604.2 511.49 600.79 510.94 598.12 508.14 594.15 507.99 591.65 508.13 589.57 512.68 585.61 512.9 584.76 512.54 582.87 512.53 579.03 513.15 577.5 513.16 576.23 514.88 572.93 516.07 571.42 517.98 572.11 519.68 570.01 522.39 568.73 521.85 567.38 521.82 565.21 522.16 564.11 521.25 561.66 521.01 559.15 521.51 555.02 522.05 554.56 521.94 552.8 521.05 550.08 520.75 548.36 518.97 543.45 523.19 541.68 525.41 539.26 527.84 536.99 528.49 536.03 529.02 533.13 534.14 530.98 535.55 530.8 537.06 531.08 537.36 529.84 538.07 528.87 538.14 525.13 537.06 523.78 535.28 522.83 534.46 521.61 534.28 520.53 534.32 517.34 533.55 506.71 534.49 505.08 534.63 503.81 534.4 500.96 534.81 500.47 533.59 499.07 532.83 498.8 534.77 498.67 536.78 496.69 539.61 495.8 542.51 495.27 545.92 492.19 546.42 491.57 549.06 490.05 549.07 488.68 550.32 485.87 551.06 485.11 552.21 485.37 554.32 483.8 555.07 479.27 555.79 476.81 554.13 475.21 552.66 475.61 550.27 477.15 549.25 476.91 546.63 477.37 546.03 477.18 545.19 475.62 542.13 474.44 541.49 474.67 539.53 473.71 538.73 473.83 537.23 472.95 535.18 473.24 531.43 471.36 531.22 470.82 531.65 468.88 530.15 467.29 529.83 466.24 528.79 465.98 529.87 463.89 528.92 462.09 529.37 460.7 530.42 460.18 531.15 458.9 532.82 458.09 533.75 457 533.69 454.81 534.45 453.55 533.38 450.41 534.05 448.41 534.99 447.32 534.73 445.73 534.9 443.81 535.37 443.39 534.72 440.41 535.61 440.35 535.58 438.64 536.93 438 538.76 436.54 539.34 435.64 540.46 435.3 541.74 434.21 541.74 433.13 542.41 431.48 542.27 430.37 542.82 429.59 543.7 427.29 543.2 426.5 543.4 423.45 543.87 422.41 545.87 421.03 548.75 420.33 549.57 425.87 550.49 428.88 551.26 429.62 551.94 432.22 553.17 433.82 556.91 436.42 559.25 439.49 560.96 439.86 562.21 439.23 562.71 437.66 562.44 436.31 561.41 434.56 558.89 431.62 557.5 430.23 556.54 428.54 556.55 427.19 557.44 423.86 557.89 423.24 562.16 422.16 567.82 421.95 572.22 422.94 574.39 423.7 578.4 426.09 581.57 428.99 584.22 432.23 586.28 433.58 587.98 434.32 589.45 434.63 593.2 434.91 596.11 434.27 597.39 433.46 598.12 432.07 598.49 430.29 598.37 428.64 Z" id="37040380"/>
<path d="M 766.43 583.88 766.17 585.48 767.55 587.89 765.98 591.17 764.99 591.65 764.86 592.47 766.67 592.24 769.1 593.73 770.54 595.21 772.18 595.82 773.61 597.23 775.01 597.8 774.97 599.36 774.5 601.94 773.27 603.34 772.76 604.59 771.68 605.39 772.84 610.19 773.62 610.43 775.42 612.24 777.06 612.87 778.24 614.66 779.79 615.09 780.82 615.75 780.47 618.08 778.51 617.73 776.83 618.04 773.41 617.58 770.63 616.11 769.46 614.78 765.89 612.3 764.85 613.36 764.2 615.96 762.91 616.76 762.54 617.77 760.11 619.42 758.61 619.73 756.91 623.06 758.36 625.63 758.99 626.06 759.01 629.21 758.59 629.9 759.8 631.21 759.91 632.15 759.34 633.71 758.84 636.74 759.24 638.89 762.04 638.19 764.68 638.88 765.66 639.37 765.64 645.69 768.55 648.08 769.4 648.08 770.99 650.31 769.28 652.23 767.49 657.77 766.58 659.53 765.45 660.65 765.11 661.58 765.5 663.29 766.46 664.44 765.73 666.32 766.15 666.89 766.52 669.09 766.12 670.59 765.31 671.27 765.03 672.37 765.09 674.33 766.01 676.63 769.47 680.01 770.43 681.48 771.03 684.12 772.19 687.03 772.4 689.42 772.92 691.96 774.57 693.67 775.78 696.35 777.09 696.35 777.17 697.88 778.11 699.6 779.99 702.35 779.74 704.46 780.92 706.11 780.49 709.25 780.85 709.91 780.53 711.61 781.07 712.63 780.97 714.95 781.29 716.58 780.17 719.15 781.17 721.1 779.75 721 778.46 721.5 776.6 722.69 775.04 724.45 775.59 725.03 777.19 725.5 776.65 729.7 774.9 732.25 774.26 734.63 771.5 737.77 771.15 740.03 769.75 741.49 770.72 744.15 771.1 745.96 769.6 749.02 768.28 752.58 766.91 754.68 762.16 759.58 761.92 761.64 763.23 764.53 761.81 766.07 759.82 767.41 758.59 769.96 758.15 774.43 757.45 775.37 757.02 778.21 756.01 782.48 754.1 785.1 752.15 787.12 751.36 787.21 752.47 789.9 752.27 790.99 753.67 792.73 755.48 794.32 756.12 795.55 758.11 796.86 757.5 799.25 758.46 799.98 758.13 802.33 757.36 803.31 758.27 804.78 757.31 806.44 753.74 808.75 754.16 810.77 753.64 811.69 753.79 813.78 754.43 814.39 756.31 817.77 758.1 820.07 758.53 822.66 757.89 823.36 757.43 825.01 756.34 827.16 755.05 828.22 754.28 829.76 754.38 830.56 753.09 833.38 753.36 835.57 751.46 836.63 750.61 837.54 748.22 839.35 745.38 840.03 742.77 839.58 741.5 839.07 740.4 839.37 737.51 840.9 735.67 845.73 734.54 848.04 733.43 849.51 733.61 852.9 731.02 856.59 730.02 857.48 729.56 858.46 725.75 859.4 724.89 859.13 723.18 862.04 722.55 864.19 721.45 865.86 719.52 867.25 717.11 868.28 715.15 869.84 714.01 872.37 714.65 874.28 714.06 877.39 712.64 879.06 712.73 880.44 713.56 881.31 713.42 883.62 714.02 885.02 713.42 886.07 713.4 888.89 712.66 889.84 711.63 891.99 710.53 893.29 709.55 893.84 707.53 893.7 706.84 892.11 705.8 892.21 703.57 891.65 702.42 893.16 700.67 893.65 697.16 895.08 692.9 895.92 692.08 897.26 691.56 898.84 689.83 899.49 689.49 901.04 688.56 902.65 688.64 903.44 687.53 903.99 685.49 906.52 685.33 907.1 683.19 906.7 681.24 905.87 679.67 907.41 679.21 908.83 678.56 909.53 675.89 910.08 674.38 910.67 672.9 910.81 669.35 910.64 666.74 911.3 665.4 912 664.28 911.47 662.9 911.63 661.55 911.08 658.6 911.64 655.99 910.96 652.83 909.34 653.51 905.36 654.53 904.52 654.37 902.42 654.95 900.23 655.04 898.61 655.59 897.33 656.5 896.41 655.35 895.04 654.26 892.77 652.09 890.26 650.51 887.89 649.33 887.36 647.79 884.89 648.59 882.24 649.76 880.52 648.65 878.3 648.59 876.4 648.92 875.64 650.69 874.12 652.39 871.36 654.53 870.67 655.61 869.99 656.19 869.02 656.23 867.42 655.85 864.73 656.57 862.67 656.28 860.35 654.83 857.86 654.26 855.75 652.5 853.57 650.99 853.1 650.42 851.7 651.81 847.1 649.75 841.77 648.34 838.99 648.14 836.64 647.41 835.9 646.8 831.07 645.6 829.45 644.27 829.48 642.27 828.84 640.13 827.59 633.54 827.53 633.96 825.22 635.14 822.56 633.85 820.85 636.61 816.38 636.64 813.75 637.39 812.44 636.99 810.6 637.58 808.93 638.8 806.87 638.67 806.04 638.95 803.03 638.52 802.2 636.15 800.61 635.1 798.02 633.91 796.68 633.63 795.89 632.41 794.48 631.54 792.77 629.48 792.48 626.01 790.98 625.6 789.73 625.78 784.4 625.98 783.45 627.7 783.58 628.93 780.35 629.1 778.65 631.74 777.71 634.01 775.74 634.4 774.39 634.11 773.65 631.68 772.43 630.9 773.14 628.3 771.87 626.5 771.5 624.79 770.01 623.41 769.43 622.72 767.55 621.72 765.98 619.73 764.38 617.12 764.64 616.97 762.13 617.49 761.26 613.25 758.06 610.93 758.07 608.11 753.58 604.32 753.88 602.54 754.73 599.03 753.92 597.55 754.46 596.22 753.49 594.87 752.99 595.4 750.77 594.92 748.97 594.72 745.66 597.01 742.26 596.26 739.75 595.61 738.41 596.06 734 595.45 732.83 593.49 730.37 592.24 730.56 589.93 728.28 589.85 726.71 587.81 726.27 587.23 724.85 587.53 722.42 586.04 719.95 585.9 717.7 586.88 716.31 586.72 713.83 587.65 712.65 586.36 710.48 586.57 709.9 586.05 708.28 585.08 707.16 583.59 706.07 583.45 704.98 582.56 702.03 581.63 701.09 582.38 699.56 583.06 696.58 581.89 695.07 580.63 694.12 578.45 693.41 575.75 692.82 574.47 691.26 573.42 690.59 573.42 689.69 572.39 687.65 571.12 686.26 570.88 685.33 570.96 681.63 569.72 677.9 570.03 677.09 570.11 674.59 571.82 673.63 571.51 671.88 572.52 669.58 570.01 668.13 568.46 667.47 568.57 665.79 567.57 664.62 567.87 663.82 567.29 659.57 566.54 658.58 564.22 657.19 564.3 654 565.22 652.42 566.3 651.45 566.16 650.2 566.24 645.38 565 642.56 567.31 642.59 568.12 640.72 569.04 639.66 569.08 638.09 568.62 636.69 568.92 635.31 570.19 634.49 570.96 632.05 572.02 630.49 571.61 629.12 572.21 627.66 572.97 623.46 577.05 622.97 578.23 623.33 578.89 624.46 580.94 624.91 581.76 623.99 585.25 624.42 585.63 624.09 586.54 620.53 588.02 620.7 588.51 619.84 590.59 618.29 591.37 616.33 593.2 616.7 595.49 616.08 596.85 615.07 599.23 615.46 602.59 613.85 602.63 612.02 602.09 610.91 601.94 609.57 602.41 607.96 602.24 606.9 602.57 604.36 604.23 604.55 605.74 603.17 606.17 601.12 606.01 599.74 609.3 599.08 610.29 598.18 612.66 597.77 613.21 598 615.24 596.67 616.97 598.02 618.57 598.59 620.54 600.21 621.58 602.24 624.7 601.97 626.08 603.89 626.74 604.31 627.82 603.38 631.97 601.65 636.01 599.09 635.84 596.86 636.14 596.25 638.28 598 638.34 600.32 638.86 601.24 639.88 601.31 640.34 603.43 641.49 606.39 642.18 608.69 642.8 608.71 643.7 609.8 644.8 610.22 646.4 612.13 652.13 614 653.09 614.65 653.77 615.9 658.54 618.96 661.12 619.53 661.61 620.41 665.57 619.49 665.39 612.6 666.58 609.53 667.23 609.19 667.97 607.1 669.24 607.68 670 603.65 669.69 601.57 669.06 600.14 669.58 598.74 670.45 598.19 671.68 598.13 672.86 597.39 672.98 594.76 672.07 593.6 672.08 592.54 674.77 588.84 675.08 586.28 673.2 585.29 672.12 583.92 674.29 581.6 674.1 580.36 672.67 578.98 672.68 578.11 671.24 575.85 672.65 572.44 671.99 571.11 671.07 567.5 670.55 567.56 669.39 566.24 668.19 565.54 668.92 563.89 669 561.32 669.42 559.51 668.85 559.12 668.99 557.24 669.83 555.66 669.78 554.13 670.6 552.4 670.57 550.65 672.34 550.81 674.34 548.13 675.4 547.89 675.91 546.09 676.09 544.06 674.98 541.36 675.66 540.32 675.82 538.46 676.55 536.64 679.47 533.99 680.84 534.82 681.25 534.53 682.26 532.35 683.8 534.17 684.01 533.21 686.36 533 691.64 529.4 693.46 529.39 693.5 530.33 697.75 535.41 699.45 537.05 700.95 537.99 702.59 534.14 704.5 532.07 706.74 531.5 707.88 531.77 709.75 533.29 712.57 537.94 714.84 542.74 718.34 547.23 720.87 550.2 723.01 551.5 725.73 552.33 727.4 552.27 731.23 551.53 739.12 547.25 741.28 544.99 741.82 543.75 742.42 539.42 743.36 536.22 746.03 533.64 749.38 532.68 751.98 532.87 752.87 533.51 753.49 536.58 753.46 543.55 754.83 545.49 756.87 549.47 758.8 556.35 761.04 560.1 763.88 562.96 768.82 565.11 773.72 565.22 773.37 566.53 772.14 568.78 771.58 570.34 770.13 571.46 769.62 571.3 767.78 572.13 766.33 573.13 763.37 574.15 762.84 576.08 762.67 578.66 762.05 579.68 763.03 580.65 761.73 581.75 762.71 582.11 764.82 583.52 766.43 583.88 Z" id="37040390"/>
<path d="M 782.1 228.33 783.64 230.06 783.67 231.73 784.09 232.54 785.23 233.04 785.19 235.1 784.71 235.72 785.55 239.36 786.2 239.87 786.31 241.95 784.9 243.08 784.3 245.79 784.48 246.8 782.89 249.31 780.9 249.91 779.46 253.68 782.54 259.34 785.04 262.47 781.68 264.12 780.15 267.48 780.56 269.39 781.6 271.84 783.96 274.02 785.92 273.98 788.06 275.28 787.95 277.15 788.15 279.39 789.23 282.45 789.14 285.3 790.09 287.09 788.89 288.94 787.22 290.44 785.34 290.95 784.01 293.39 784.13 294.52 783.46 295.25 781.83 298.37 780.29 299.69 780.42 300.59 781.5 301.67 782.89 305.36 784.27 306.7 785.76 307.05 786.12 308.38 788.21 309.67 788.08 310.66 786.66 312.29 786.14 313.74 785.88 315.61 784.34 318.6 783.64 320.69 783.71 321.42 783.28 325.25 783.72 329.13 784.35 329.7 785.12 331.96 784.13 333.3 783.58 335.39 783.76 336.64 783.3 338.43 783.27 340.99 784.56 342.74 788.72 344.27 789.53 348.15 790.74 349.51 791.48 349.84 792.19 352.42 791.89 354.62 791.95 357.4 792.35 359.65 792.97 360.92 793.03 362.77 791.72 363.84 792.45 365.24 790.83 366.82 791.28 369.06 792.22 371.02 793.13 371.61 793.72 372.8 792.93 374.65 793.57 374.98 794.82 377.15 795.99 376.99 799 377.77 798.51 378.71 796.11 381.35 795.76 383.6 796.93 385.62 796.09 388.42 796 390.6 796.8 392.53 796.7 394 797.06 397.03 798.3 400.75 798.28 401.82 797.46 403.88 795.83 404.84 795.79 405.72 793.77 408.15 793.73 409.66 792.78 411.2 791.89 411.74 790.75 411.62 788.91 412.46 787.15 414.4 787.08 416.53 786.46 417.28 786.41 418.69 785.41 419.65 785.34 421.25 784.74 422.53 782.69 422.62 780.1 425.87 779.84 426.86 779.04 426.88 777.61 428.15 776.03 428.54 776.34 429.93 775.74 431.6 775.68 434.52 775.28 435.7 775.61 436.5 775.58 438.35 774.6 438.76 772.25 441.43 772.12 442.22 769.81 442.96 770.49 446.14 770.09 446.63 770.05 448.66 769.22 450.27 770.9 451.08 772.61 451.36 774.25 449.91 775.87 450 776.86 451.04 777.48 452.48 779.09 453.23 780.64 455.2 781.84 456.21 783.47 459.41 784.18 461.75 784.85 462.62 785.18 464.18 785.12 465.75 786.65 468.36 786.66 469.66 787.43 471.15 784.48 472.94 782.03 472.44 778.69 472.34 775.71 474.38 774.6 475.6 771.56 476.78 769.71 476.86 769.06 475.38 767.83 474.94 766.06 475.4 765.26 476.41 765.21 477.24 763.99 478.46 763.63 479.62 764.53 481.47 764.27 483.21 764.74 485.69 764.04 487.37 762.58 487.69 763.24 489.61 762.79 491.38 763.26 494.75 762.67 495.71 761.75 495.77 760.57 496.85 760.51 497.87 761.24 498.55 761.61 500.44 758.91 502.45 757.3 502.69 756.79 503.37 758.65 504.11 761.15 503.38 762.94 504.69 763.21 505.93 764.33 506.43 764.55 509.04 765.61 509.2 767.01 510.54 770.43 510.3 771.48 509.65 772.44 509.78 773.44 511.73 774.36 512.72 774.1 513.92 774.81 515.09 775.26 516.85 774.94 519.07 775.74 520.32 775.88 522.84 776.33 523.52 776.59 525.35 777.54 526.6 777.86 528.14 778.5 528.89 780.46 528.84 781.67 528.52 783.67 528.77 785.68 527.4 788.37 526.05 789.93 524.39 789.97 527.36 790.53 530.82 791.51 530.91 792.1 532.41 793.08 533.87 793.17 537.02 795.26 536.97 795.9 540.1 795.96 542.59 794.24 546.57 793.36 547.35 791.87 549.53 791.72 552.6 792.26 553.46 792.44 555.77 791.85 557.6 790.83 559.26 789.93 558.61 789.23 559.58 786.67 561.43 784.98 564.08 784.64 565.69 784.83 568.65 787.71 570.76 788.26 571.64 784.9 571.51 784.04 571.11 782.92 571.98 781.15 572.58 780.36 573.36 778.85 577.3 777.02 579.51 774.94 580.1 773.22 579.88 771.7 580.64 770.65 581.87 769.49 582.26 768.31 581.85 766.82 583.02 766.43 583.88 764.82 583.52 762.71 582.11 761.73 581.75 763.03 580.65 762.05 579.68 762.67 578.66 762.84 576.08 763.37 574.15 766.33 573.13 767.78 572.13 769.62 571.3 770.13 571.46 771.58 570.34 772.14 568.78 773.37 566.53 773.72 565.22 768.82 565.11 763.88 562.96 761.04 560.1 758.8 556.35 756.87 549.47 754.83 545.49 753.46 543.55 753.49 536.58 752.87 533.51 751.98 532.87 749.38 532.68 746.03 533.64 743.36 536.22 742.42 539.42 741.82 543.75 741.28 544.99 739.12 547.25 731.23 551.53 727.4 552.27 725.73 552.33 723.01 551.5 720.87 550.2 718.34 547.23 714.84 542.74 712.57 537.94 709.75 533.29 707.88 531.77 706.74 531.5 704.5 532.07 702.59 534.14 700.95 537.99 699.45 537.05 697.75 535.41 693.5 530.33 693.46 529.39 691.64 529.4 686.36 533 685.65 532.26 681.47 529.3 676 527.45 673.38 527.03 670.76 526.09 667.92 525.95 666.6 526.25 665.58 527.43 665.31 529.74 661.54 533.35 659.12 535.2 658.52 536.29 654.66 541.52 651.96 543.55 651.03 543.97 648.15 544.55 646.51 544.16 639.88 541.5 634.14 538.72 633.8 537.46 635.42 534.82 637.67 533.79 640.78 530.86 641.69 529.53 644.21 527.47 645.68 523.05 648.42 516.81 648.63 515.46 648.38 513.86 648.91 510.87 649.64 510.54 648.91 509.14 647.19 507.56 647.39 506.06 646.5 505.3 645.45 501.47 644.6 498.95 644.96 498.07 642.73 494.7 642.62 492.95 641.08 493.32 636.68 494.77 636.57 491 632.77 490.37 630.45 490.53 628.28 491.17 624.32 492.88 624.29 488.46 623.38 487.22 623.73 486.21 622.77 485.1 621.51 484.61 621.41 482.7 618.73 481.36 619.13 479.57 617.04 479.6 616.33 478.74 615.1 478.24 615.02 476.6 614.42 476.01 615.48 473.19 614.08 471.85 614.03 467.22 612.84 467.22 610.44 464.67 608.93 463.85 608.29 462.32 606.59 462.47 604.88 461.07 604.73 458.69 605.44 457.76 604.86 456.46 605.83 454.2 605.81 452.43 606.26 451.87 608.41 450.73 609.65 448.57 610.62 447.59 610.93 445.89 610 443.76 607.88 443.44 607.39 442.52 605.56 440.86 606.08 437.86 606.04 436.73 605.3 433.52 604.08 433.23 603.8 432.43 602.46 431.67 601.41 431.69 600.73 430.52 600.58 428.59 598.37 428.64 598 425.89 597.86 422.78 597.91 419.25 598.13 414.69 600.45 410.83 603.37 409.89 609.06 409.84 616.08 410.14 620.71 408.15 624.03 406.14 626.58 402.31 629.26 401.23 629.7 399.94 628.54 396.73 627.45 394.78 625.5 393.21 624.42 391.98 623.29 390.1 622.13 389.29 618.35 387.58 613.64 387.52 609.25 387.68 606.68 387.39 606.02 387.64 604.32 387.37 603.75 386.33 604.52 385.15 607 383.37 608.52 380.5 608.67 377.45 608.35 375.89 608.9 375.18 610.22 375.26 612.18 374.76 613.97 373.87 615.15 372.62 616.37 372.18 617.84 372.34 621.62 372.18 622.81 371.13 625.1 370.14 628.7 371.17 631.11 370.34 632.86 370.58 634.31 371.66 636.62 368.47 639.24 367.7 639.55 366.61 640.48 365.55 641.77 366.01 642.47 366.8 643.75 367.25 645.01 368.96 646.12 369.14 648.42 367.26 649.18 365.23 648.81 362.98 649.16 362.28 652.06 362.3 653.41 362.65 654.97 359.63 655.7 359.47 655.98 357.76 658.19 355.77 659.36 355.6 662.31 353.76 663.12 352.66 664.52 352.04 665.94 352.34 666.47 351.45 668.14 350.62 669.4 351.83 670.5 352.28 671.68 350.9 672.45 351.22 673.86 349.8 674.12 349.06 676.36 347.22 677.56 346.51 678.62 346.37 679.87 345.24 681.9 344.49 683.4 344.22 684.6 346.11 685.62 346.09 687.22 347.39 686.03 349.39 686.43 350.14 686.55 352.15 686.15 352.38 686.75 354.13 688.29 355.38 691.93 353.24 692.85 350.65 693.27 348.61 695.33 347.59 696.63 347.73 698.18 346.88 700.06 345.06 701.65 345.05 703.24 344.08 703.43 342.61 705.19 341.24 704.65 339.54 708.59 336.32 708.78 333.04 709.3 331.79 710.85 329.56 710.8 328.99 709.16 327.87 710.5 327.3 712.94 325.45 714.2 324.13 715.56 323.76 716.47 322.65 717.97 322.97 719.09 320.07 720.39 319.38 722.99 319.23 724.22 317.4 726.36 317.01 727.18 315.81 729.96 315.61 731.23 315.89 733.91 314.68 734.39 313.4 735.14 313.25 736.01 311.73 736.85 311.12 737.62 307.08 736.13 306.84 735.39 304.08 736.51 302.67 734.7 300.48 735.05 298.59 736.8 296.16 737.63 294.68 739.56 293.37 738.63 290.86 738.74 289.84 738.02 288.07 736.49 286.59 734.53 285.47 735.11 283.58 735.77 280.37 738.69 275.8 738.44 275.23 738.7 271.92 738.15 271.03 737.95 268.5 739.4 267.61 739.81 266.77 738.71 263.91 737.8 262.92 735.45 261.05 736.61 259.61 736.69 258.84 737.89 256.59 738.48 256.49 739.41 254.48 740.77 254.28 741.71 251.54 743.56 247.52 744.59 247.18 747.14 247.62 749.8 248.8 753.17 244.91 754.65 244.84 757.3 242.75 759.44 239.86 758.52 236.44 759.51 235.86 760.13 234.28 760.76 233.81 761.31 231.9 762.41 231.24 762.92 229.7 763.72 229.36 764.35 228.29 766.67 230.08 768.04 229.7 769.52 230.32 771.41 230.36 774.03 227.24 775.22 227.13 775.54 228.25 776.51 229.79 779.51 229.81 782.1 228.33 Z" id="37040400"/>
<path d="M 779.14 126.08 777.96 127.03 778.06 128.62 779.19 129.88 779.23 131.34 778.62 134.21 779.14 135.64 778.46 136.53 778.82 137.98 778.45 139.94 777.15 141.3 777.52 142.88 777.15 143.45 774.75 145.21 774.47 147.46 775.74 149.93 776.44 150.7 776.5 151.65 777.29 153.83 778.73 154.4 781.52 154.82 782.71 155.62 784.03 157.49 787.39 161.09 788.01 161.52 787.35 165.17 788.6 166.38 787.6 167.8 786.98 169.55 788.72 172.46 789.22 174.52 790.52 174.92 791.95 176.01 791.84 177.07 792.35 179.07 791.58 179.76 791.27 181.16 791.58 182.85 792.61 183.16 791.73 184.19 791.15 186.43 791.33 187.44 789.93 189.44 790.38 190.21 789.08 191.8 789.27 192.94 788.9 194.1 789.3 195.52 789.07 197.15 787.98 198.46 787.14 198.9 785.8 200.48 785.1 202 785.73 203.61 786.84 205.02 788.68 206.1 788.74 209.58 789.01 212.09 789.91 214.74 789.82 217.54 787.09 219.15 787.08 219.91 784.88 220.85 783.76 221.98 783.11 222.1 782.41 223.37 782.26 224.59 783.08 226.28 782.1 228.33 779.51 229.81 776.51 229.79 775.54 228.25 775.22 227.13 774.03 227.24 771.41 230.36 769.52 230.32 768.04 229.7 766.67 230.08 764.35 228.29 763.72 229.36 762.92 229.7 762.41 231.24 761.31 231.9 760.76 233.81 760.13 234.28 759.51 235.86 758.52 236.44 759.44 239.86 757.3 242.75 754.65 244.84 753.17 244.91 749.8 248.8 747.14 247.62 744.59 247.18 743.56 247.52 741.71 251.54 740.77 254.28 739.41 254.48 738.48 256.49 737.89 256.59 736.69 258.84 736.61 259.61 735.45 261.05 737.8 262.92 738.71 263.91 739.81 266.77 739.4 267.61 737.95 268.5 738.15 271.03 738.7 271.92 738.44 275.23 738.69 275.8 735.77 280.37 735.11 283.58 734.53 285.47 736.49 286.59 738.02 288.07 738.74 289.84 738.63 290.86 739.56 293.37 737.63 294.68 736.8 296.16 735.05 298.59 734.7 300.48 736.51 302.67 735.39 304.08 736.13 306.84 737.62 307.08 736.85 311.12 736.01 311.73 735.14 313.25 734.39 313.4 733.91 314.68 731.23 315.89 729.96 315.61 727.18 315.81 726.36 317.01 724.22 317.4 722.99 319.23 720.39 319.38 719.09 320.07 717.97 322.97 716.47 322.65 715.56 323.76 714.2 324.13 712.94 325.45 710.5 327.3 709.16 327.87 710.8 328.99 710.85 329.56 709.3 331.79 708.78 333.04 708.59 336.32 704.65 339.54 705.19 341.24 703.43 342.61 703.24 344.08 701.65 345.05 700.06 345.06 698.18 346.88 696.63 347.73 695.33 347.59 693.27 348.61 692.85 350.65 691.93 353.24 688.29 355.38 686.75 354.13 686.15 352.38 686.55 352.15 686.43 350.14 686.03 349.39 687.22 347.39 685.62 346.09 684.6 346.11 683.4 344.22 681.9 344.49 679.87 345.24 678.62 346.37 677.56 346.51 676.36 347.22 674.12 349.06 673.86 349.8 672.45 351.22 671.68 350.9 670.5 352.28 669.4 351.83 668.14 350.62 666.47 351.45 665.94 352.34 664.52 352.04 663.12 352.66 662.31 353.76 659.36 355.6 658.19 355.77 655.98 357.76 655.7 359.47 654.97 359.63 653.41 362.65 652.06 362.3 649.16 362.28 648.81 362.98 649.18 365.23 648.42 367.26 646.12 369.14 645.01 368.96 643.75 367.25 642.47 366.8 641.77 366.01 640.48 365.55 639.55 366.61 639.24 367.7 636.62 368.47 634.31 371.66 632.86 370.58 631.11 370.34 628.7 371.17 625.1 370.14 622.81 371.13 621.62 372.18 617.84 372.34 616.37 372.18 615.15 372.62 613.97 373.87 612.18 374.76 610.22 375.26 608.9 375.18 608.35 375.89 608.67 377.45 608.52 380.5 607 383.37 604.52 385.15 603.75 386.33 604.32 387.37 606.02 387.64 606.68 387.39 609.25 387.68 613.64 387.52 618.35 387.58 622.13 389.29 623.29 390.1 624.42 391.98 625.5 393.21 627.45 394.78 628.54 396.73 629.7 399.94 629.26 401.23 626.58 402.31 623.53 403.35 624.13 401.84 623.78 397.41 623.44 396.37 620.74 395.28 617.01 393.42 614.16 393.07 611.52 393.37 609.4 394.3 606.63 394.44 602.86 394.95 602.29 394.84 599.64 396.74 596.67 396.31 595.71 395.46 593.2 394.32 591.8 392.03 591.8 388.66 591.56 386.98 590.73 384.02 591.5 379.25 593.04 375.2 593.88 371.55 594.26 368.42 594.81 366.25 596.75 366.21 597.34 361.48 597.32 359.89 596.44 357.12 595.29 355.78 590.15 356.11 585.99 355.59 584.29 354.95 583.79 354.05 583.76 352.82 584.87 349.3 584.62 347.22 582.86 345.74 581 344.81 575.84 342.6 571.26 339.56 568.81 337.09 566.86 333.69 565.11 329.21 564.79 326.88 565.04 324.28 565.99 321.84 567.7 320.53 570.11 320.42 573.67 321.01 576.83 321.84 581.27 323.25 583.03 323.36 585.48 322.95 586.63 321.82 587.18 319.77 587.3 315.23 586.68 308.31 586.7 303.96 588.19 297.69 589.34 291.42 588.91 289.08 587.78 287.56 586.15 286.39 584.98 285.99 583.1 285.83 576.86 286.42 573.7 286.22 572.59 285.93 571.2 284.81 567.35 280.7 566.18 278.05 564.83 273.19 565.63 273.17 565 271.31 564.68 269.13 563.2 263.33 561.11 263.17 560.72 260.95 560.02 260.22 557.02 260.33 556.42 259.95 554.01 259.64 553.18 259.28 548.83 259.1 545.38 258.34 542.96 256.62 541.98 255.47 540.25 251.87 539.46 248.41 538.67 246.57 538.15 241.77 538.2 239.09 537.88 236.28 537.74 230.89 536.93 228.84 535.91 228.76 537.09 226.51 539.05 224.01 541.78 222.37 544.6 221.29 545.62 221.14 548.08 221.58 554.21 223.01 562.32 225.98 566.69 227.11 571.27 228.65 573.19 229.11 575.87 230.69 577.79 232.19 582.31 234.69 584.62 234.61 586.28 233.35 587.99 230.65 588.44 228.78 588.19 226.69 586.51 225.3 585.91 224.28 585.94 222.08 584.69 220.21 582.47 217.85 578.57 214.21 577.32 212.48 575.34 208.54 574.97 208.52 571.54 200.81 571.1 198.37 570.37 196.41 571.14 196.18 569.88 191.7 569.84 190.76 570.65 190.3 572.91 187.67 573.85 186.01 575.54 185.46 577.9 185.57 578.4 187.24 580.86 188.71 581.93 188.72 582.95 189.69 583.53 191.44 587.22 191.34 588.9 192.42 589.69 192.35 591.58 193.17 591.95 190.34 594.63 190.44 596.79 190.82 597.5 190.09 598.02 187.37 599.18 186.35 600.31 186.41 605.2 184.45 606.36 185.53 608.77 186.51 610.7 187.77 611.57 191.29 614.75 191.32 618.7 189.57 620.44 189.19 626.47 188.8 627.21 188.38 629.55 189.1 631.49 190.43 631.48 191.61 634.81 192.35 636.13 192.19 637.67 192.8 639.72 192.65 641.95 192.01 642.68 191.36 643.97 192.86 645.7 193.6 646.8 194.58 649.31 195.45 653.29 193.92 656.3 192.05 658.86 189.58 659.07 188.05 658.87 186.07 658.12 185.22 657.72 183.45 658.26 182.6 657.7 181.11 659.11 177.64 657.64 175.38 656.88 173.46 655.45 172.95 654.17 170.98 652.02 171.19 652.13 170.34 651.38 168.77 651.94 167.16 652.69 166.55 652.89 165.35 654.04 164.33 655.07 162.56 655.61 162.2 656.12 160.64 656.03 158.14 655.22 156.9 656.59 154.36 658.72 153.4 660.02 152.16 660.75 150.71 663.58 151.04 667.03 150.66 667.65 150.11 669.3 149.79 673.26 150.09 675.14 144.76 676.48 143.05 676.46 142.17 677.48 140.83 676.2 137.78 676.94 136.71 676.34 135.98 678.81 133.37 678.23 131.65 678.26 129.71 677.27 128.45 676.65 126.81 677.36 124.8 677.18 122.94 675.92 119.01 675.24 117.83 677.04 116.48 678.41 115.81 679.16 114.95 681.93 114.57 682.38 112.99 681.5 111.85 680.13 111.29 678.85 109.23 678.46 107.38 677.3 104.96 678.84 103.69 679.54 102.52 679.89 98.4 678.51 94.99 680.91 94.31 686.1 91.43 688.57 92.31 690.33 93.47 692.48 93.88 693.72 93.71 694.61 93.03 694.93 91.98 695.91 91.15 699.75 90.37 702.17 88.55 702.7 88.79 704.5 86.73 706.02 85.83 707.03 85.93 710.16 83.08 712.07 83.56 714.59 83.77 717.08 85.31 720 85.41 722.13 86.25 724.52 86.69 725.22 87.5 726.57 87.84 727.45 88.67 728.9 91.02 730.59 92.1 730.72 94.53 732.23 94.8 733.01 96.04 732.76 97.99 733.06 98.81 732.62 100.1 732.76 101.16 735.44 104.71 735.46 105.6 736.13 107.71 737.62 109 738.39 112.43 739.2 114.63 739.47 116.25 741.2 119.72 742.66 119.3 744.72 120.73 747.47 120.87 750.72 123.18 751.96 123.08 753.16 125.5 753.96 125.92 756.4 125.57 757.14 127.02 758.68 127.11 759.8 128.27 760.93 127.14 762.27 128.15 763.48 127.89 765.73 127.86 766.59 128.81 767.19 128.14 769.59 127.64 770.44 125.82 771.8 126.35 774.15 125.72 776.6 126.31 777.94 126.94 779.14 126.08 Z" id="37040410"/>
<path d="M 567.06 24.46 567.44 26.65 568.62 27.86 568.65 30.39 570.49 34.15 571.9 35.23 572.81 35.04 574.07 35.94 575.85 35.91 578.37 36.41 581.04 36.54 583.23 36.93 585.91 37.95 588.59 37.12 593.56 39.08 594.86 40.15 597.3 40.28 598.62 40.65 599.54 42.12 600.18 44.03 599.95 45.2 601.04 46.9 600.89 49.18 604.01 51.57 607.2 54.99 608.44 54.65 609.65 55.07 611.5 57.62 611.08 59.01 611.37 62.37 612.08 63.54 616.9 66.08 618.92 66.36 620.15 67.03 622.57 66.29 629.07 68.44 629.48 69.17 629.5 71.12 631.4 76.14 633.56 79.57 636.21 84.32 638.03 87.16 638.97 87.3 641.3 86.65 642.67 88.19 646.59 87.33 648.39 86.12 648.94 84.92 650.24 84.22 651.39 81.97 653.99 82.15 655.18 81.15 655.84 79.59 657.5 79.45 659.67 81.69 663.32 81.58 665.43 82.25 667.23 83.09 668.17 83.09 670.26 84.72 670.06 86.88 673.32 90.77 676.9 93.56 677.55 94.52 678.51 94.99 679.89 98.4 679.54 102.52 678.84 103.69 677.3 104.96 678.46 107.38 678.85 109.23 680.13 111.29 681.5 111.85 682.38 112.99 681.93 114.57 679.16 114.95 678.41 115.81 677.04 116.48 675.24 117.83 675.92 119.01 677.18 122.94 677.36 124.8 676.65 126.81 677.27 128.45 678.26 129.71 678.23 131.65 678.81 133.37 676.34 135.98 676.94 136.71 676.2 137.78 677.48 140.83 676.46 142.17 676.48 143.05 675.14 144.76 673.26 150.09 669.3 149.79 667.65 150.11 667.03 150.66 663.58 151.04 660.75 150.71 660.02 152.16 658.72 153.4 656.59 154.36 655.22 156.9 656.03 158.14 656.12 160.64 655.61 162.2 655.07 162.56 654.04 164.33 652.89 165.35 652.69 166.55 651.94 167.16 651.38 168.77 652.13 170.34 652.02 171.19 654.17 170.98 655.45 172.95 656.88 173.46 657.64 175.38 659.11 177.64 657.7 181.11 658.26 182.6 657.72 183.45 658.12 185.22 658.87 186.07 659.07 188.05 658.86 189.58 656.3 192.05 653.29 193.92 649.31 195.45 646.8 194.58 645.7 193.6 643.97 192.86 642.68 191.36 641.95 192.01 639.72 192.65 637.67 192.8 636.13 192.19 634.81 192.35 631.48 191.61 631.49 190.43 629.55 189.1 627.21 188.38 626.47 188.8 620.44 189.19 618.7 189.57 614.75 191.32 611.57 191.29 610.7 187.77 608.77 186.51 606.36 185.53 605.2 184.45 600.31 186.41 599.18 186.35 598.02 187.37 597.5 190.09 596.79 190.82 594.63 190.44 591.95 190.34 591.58 193.17 589.69 192.35 588.9 192.42 587.22 191.34 583.53 191.44 582.95 189.69 581.93 188.72 580.86 188.71 578.4 187.24 577.9 185.57 575.54 185.46 573.85 186.01 572.91 187.67 570.65 190.3 569.84 190.76 569.88 191.7 571.14 196.18 570.37 196.41 571.1 198.37 571.54 200.81 574.97 208.52 575.34 208.54 577.32 212.48 578.57 214.21 582.47 217.85 584.69 220.21 585.94 222.08 585.91 224.28 586.51 225.3 588.19 226.69 588.44 228.78 587.99 230.65 586.28 233.35 584.62 234.61 582.31 234.69 577.79 232.19 575.87 230.69 573.19 229.11 571.27 228.65 566.69 227.11 562.32 225.98 554.21 223.01 548.08 221.58 545.62 221.14 544.6 221.29 541.78 222.37 539.05 224.01 537.09 226.51 535.91 228.76 532.75 228.2 531.22 228.59 529.15 228.7 527.04 229.35 524.74 229.46 523.59 229.24 522.15 227.64 523.13 226.24 523.01 225.35 521.96 223.45 519.71 221.74 517.65 222.65 516.35 224.5 514.92 226.03 513.52 227.93 512.07 229.39 510.98 229.24 507.7 230.59 506.68 230.42 505.05 228.84 503.41 225.8 502.17 224.97 500.16 224.79 497.7 225.98 496.93 224.86 496.36 225.12 494.17 223.51 493.92 222.61 494.22 219.88 490.13 217.61 490.03 216.27 488.46 214.6 488.75 212.31 488.62 209.91 489.06 208.42 489.87 207.68 490.62 206.16 490.61 204.8 491.21 203.67 490.89 202.14 491.48 201.15 491.47 199.78 493 198.66 494.48 198.31 495.7 195.62 497.36 195.04 498.79 195.21 499.65 197.11 501.8 198.29 503.48 198.17 503.74 197.27 504.74 196.95 504.97 195.81 506.17 194.52 507.94 194.52 508.65 193.88 509.78 194.34 512.7 194.17 513.1 194.74 514.75 194.6 517 193.99 517.34 193.59 519.11 193.56 520.22 192.12 522.14 191.27 523.39 189.4 520.89 188.14 519.32 187.98 518.78 187.17 516.88 187.26 516.03 187.69 514.32 187.75 514.21 186.75 513.27 185.27 512.95 183.8 512.2 182.56 511.26 179.58 509.5 178.33 509.55 176.99 507.7 175.27 507.46 174.08 506.42 173.53 505.64 171.52 505.74 170.74 504.81 168.9 504.7 167.11 505.41 164.94 506.81 164.13 506.62 162.72 507 161.9 506.43 160.23 506.86 159.26 506.5 158.04 504.27 156.67 503.93 155.59 504.55 154.74 506.39 153.11 508.28 151.91 508.75 150.76 511.05 149.13 510.34 148.33 511.3 146.28 509.62 144.35 509.44 142.02 507.39 142.01 505.3 141.45 504.49 140.62 503.21 140.52 502.85 141.12 500.48 140.17 500.04 139.2 499.04 139.24 498.58 138.57 495.66 137.85 495.96 135.39 496.58 134.74 496.82 133.32 498.22 132.31 498.52 130.9 499.22 129.93 500.19 130.01 500.62 129.24 500.02 127.87 500.32 126.63 501.54 126.73 501.53 125.43 502.48 123.96 502.42 122.52 503.1 121.68 503.35 118.14 501.69 116.54 502.91 115.97 503.13 114.83 503.89 113.44 503.68 112.61 505.34 110.1 505.79 108.86 507.05 108.29 506.68 107.53 506.64 104.44 506.06 102.79 504.08 102.85 503.27 100.55 502.48 99.78 502.84 98.23 503.79 96.78 503.67 95.81 502.16 92.6 500.46 90.93 500.34 89.28 498.79 88.12 501.18 84.38 503.84 81.44 503.94 79.98 504.8 78.23 505.05 76.86 504.43 75.7 505.7 73.09 507.08 73.11 507.98 72.64 510.35 72.6 511.59 70.51 513.34 70.74 515.51 70.47 517.05 71.85 518.02 71.31 519.37 69.57 520.93 68.61 522.34 67.09 524.27 66.66 526.2 67.18 528.99 64.78 529.09 62.99 530.01 61.24 529.89 60.16 528.7 58.97 529.22 57.71 528.3 56.79 528.86 55.3 528.54 54.82 528.02 51.99 528.38 51.09 528.27 48.61 529.15 48.33 531.18 44.05 532.57 42.28 535.25 40.51 536.66 38.04 537.67 36.97 537.43 35.86 538.33 34.41 538.15 32.87 539.91 31.92 538.72 29.23 538.8 28.28 539.81 26.29 539.78 24.94 540.84 22.96 542.98 22.58 543.2 22.19 545.59 22.37 547.57 23.66 548.48 23.42 549.59 23.87 550.91 23.45 552.72 24.13 554.63 23.56 557.09 23.91 560.14 22.71 562.63 24.17 564.93 24.73 567.06 24.46 Z" id="37040420"/>
<path d="M 417.56 444.76 416.91 445.55 416.42 447.37 416.65 448.89 415.45 450.12 415.17 451.69 415.89 455.54 416.24 463.21 413.62 463.49 409.65 464.89 403.67 468.23 403.74 463.92 403.41 461.5 402.27 459.56 402.42 456.28 403.36 452.99 403.45 450.03 404.18 447.76 404.09 446.66 404.74 445.76 405.22 443.72 405.25 440.59 405.63 440.54 406.25 439.26 409.77 438.44 409.96 437.64 411.6 436.66 412.74 434.84 414.39 434.17 415.25 432.41 416.24 433.86 418.65 434.65 419.37 436.13 420.16 436.39 420.23 437.41 419.5 439.05 419.39 440.11 418.59 440.78 417.57 443.33 417.56 444.76 Z" id="37040620"/>
<path d="M 348.26 456.99 349.61 458.67 350.52 465.07 352 466.13 353.26 467.86 353.33 471.22 353.98 477.45 355.43 479.4 358.4 482.1 360.1 482.79 366.24 482.81 370.53 482.05 372.99 480.8 375.7 479.13 378.23 476.94 379.94 475.6 382.39 474.28 385.95 473.13 389.57 471.74 391.87 471.06 393.71 470.84 397.55 469.65 401.48 469.14 403.67 468.23 409.65 464.89 413.62 463.49 416.24 463.21 423.23 462.89 429.7 462.29 432.54 461.22 435.5 461.68 436.59 462.92 438.25 464.21 441.98 465.66 446.04 466.49 448.9 467.7 449.87 468.4 451.35 470.08 456.03 474.61 458.77 476.98 462.99 479.71 467.96 481.41 468.87 484.49 470.11 484.55 471.63 485.2 474.19 487.08 474.27 488.9 474.85 490.18 474.55 491.69 475.13 492.81 475.02 494.73 473.76 495.89 472.65 496.06 469.9 498.1 469.08 498.95 467.57 498.84 466.09 499.8 461.48 500.5 459.78 500.16 456.91 501.91 454.71 501.57 451.89 500.04 450.85 500.64 448.93 500.82 449.09 501.72 447.78 506.16 446.6 507.27 445.58 507 444.59 508.36 442.47 509.34 440.21 507.45 438.23 508.1 437.23 507.35 435.88 508.39 434.73 508.38 433.66 509.79 432.63 510.17 432.13 509.14 430.85 509.03 430.21 510.54 427.64 511.97 427.34 513.07 426.21 513.54 423.92 511.4 422.62 510.82 421.23 509.54 419.52 508.49 419.03 507.45 418.85 505.12 416.96 503.88 416.22 503.96 414.62 505.96 411.67 506.37 411.09 508.47 410.27 509.63 408.42 509.57 406.97 508.95 406.27 508.23 405.44 508.66 404.28 508.25 403.04 505.62 402.06 505.33 401.05 504.29 400.33 501.69 398.89 499.81 397.87 499.94 396.58 501.16 395.38 501.21 394.42 502.66 394.47 503.71 393.09 505.46 390.2 507.48 388.67 509.05 388.24 510.33 387.3 511.14 387.31 511.92 386.36 513.5 385.41 513.93 385.16 514.73 384.18 515.09 380.83 514.28 379.55 515.97 378.65 516.24 377.88 518.96 377.19 519.85 374.97 519.51 372.09 518.34 370.67 518.87 369.9 517.45 370.64 514.6 368.64 514.51 367.87 513.37 366.73 512.99 366.82 511.87 366.27 509.61 365.03 509.65 365.03 508.42 365.54 507.38 365.32 505.5 365.49 503.49 363.89 502.72 363.93 500.92 364.42 500.02 363.83 498.86 361.66 496.89 360.08 496.11 358.63 497.17 357.23 495.78 355.22 496.17 352.67 493.57 349.78 495.08 347.96 493.81 348.17 493.32 346.62 492.41 345.97 491.32 344.08 491.3 341.8 489.9 340.81 489.57 340.73 487.82 339.71 486.31 338 485.09 337.58 485.18 335.05 483.79 333.22 484.87 330.93 486.86 330.07 487.01 328.17 485.77 326.13 485.43 324.99 485.72 322.12 485.53 324.14 484.28 326.75 483.87 328.42 483.02 326.9 481.01 329.25 477.96 331.35 474.46 333.99 471.62 337.59 466.18 338.88 461.36 341.77 458.95 344.55 457.22 346.65 456.92 348.26 456.99 Z" id="37040630"/>
</g>
</svg>