<?xml version="1.0"?>
<svg xmlns="http://www.w3.org/2000/svg" version="1.2" baseProfile="tiny" width="800" height="1134" viewBox="0 0 800 1134" stroke-linecap="round" stroke-linejoin="round">
<g id="dong">
<path d="M 503.6 731.4 501.92 731.38 500.82 735.78 500.3 741.41 497.45 748.43 482.38 733.7 479.01 735.87 476.99 736.03 476.43 734.69 468.78 738.45 469.93 729.94 471.09 726.79 471.31 721.51 473.85 721.44 476.9 720.04 481.57 719.7 483.79 718.1 485.75 713.89 487.56 712.53 489.35 710.01 489.2 707.47 493.1 705.67 494.92 708.89 494.61 709.85 496.4 711.75 498.27 712.23 498.95 713.69 503.83 714.25 501.2 717.58 502.01 722.66 504.2 724.37 503.89 727.51 505.19 728.75 503.6 731.4 Z" id="37060550"/>
<path d="M 315.96 521.96 316.77 525.25 316.76 527.73 317.55 529.76 319.94 530.73 319.98 532.33 318.45 533.01 316.17 536.02 314.13 541.63 313 542.62 313.43 545.06 312.58 545.96 312.25 548.75 307.86 552.11 305.41 557.74 307.4 559.6 309.03 563.82 309.57 567.21 307.49 570.32 306.52 574.75 310.67 576.85 313.22 578.67 316.27 580.05 319.81 580.04 320.95 579.09 323.66 579.18 325.25 580.58 326.03 586.93 323.27 588.26 321.13 591.16 320.85 596.88 319.9 598.17 320.79 600.47 316.89 604.17 314.36 609.37 313.1 609.42 313.18 613.4 311.83 614.02 312.4 616.7 309.97 618.94 310.57 622.68 308.8 625.71 309.46 628.57 307.26 631.66 306.03 632.35 306.21 637.14 302.92 640.94 300.53 640.9 299.76 643.31 296.55 641.6 293.29 638.47 289.87 638.62 287.02 636.08 285.67 633.64 282 631.01 278.94 632.97 274.55 631.46 271.88 628.03 268.33 626.78 265.7 627.29 259.08 624.38 256.49 624.26 255.52 617.23 253.42 615.6 251.58 615.72 247.87 613.69 244.44 613.42 241.89 612.62 238.5 612.29 236.37 611.1 234.87 605.85 231.14 602.17 228.87 600.96 224.91 600.08 220.69 596.22 216.33 596.33 213.83 594.66 208.96 593.34 207.22 593.46 203.34 592.33 199.79 592.83 197.08 592.26 194.89 590.91 192.12 591.48 190.02 590.61 186.78 590.43 186.34 592.37 184.91 594.33 187.52 595.89 186.15 598.01 183.51 599.67 181.91 601.53 179.94 605.32 177.6 606.63 175.55 609.18 174.68 611.53 172.94 612.7 169.93 612.95 166.6 612.59 160.74 613.73 158.15 615.77 154.71 616.17 150.2 618.69 147.65 618.55 143.66 617.41 138.88 616.94 134.07 620.64 132.42 621.37 129.42 621.29 124.49 624.09 119.37 624 114.62 624.59 110.6 624.64 105.11 623.5 102.55 625.99 99.34 626.17 94.31 628.38 90.81 629.05 87.2 630.95 80.72 631.01 76.53 629.82 69.74 631.16 67 630.68 63.62 630.72 60.77 626.12 57.67 623.33 49.1 613.84 47 614.58 39.64 605.76 37.57 602.13 36.78 599.23 31.87 598.13 26.38 595.86 20.12 592.53 14.04 592.61 11.54 594.13 7 592.76 3.3 589.92 1 589.77 1.84 584.91 2.87 580.96 5.5 577.49 8.38 575.14 9.58 572.17 10.12 568.79 9.32 567.62 10.94 564.35 10.35 561.29 8.56 556.23 8.52 553.79 7.36 550.67 10.6 544.93 12.64 543.83 13.6 541.42 19.75 539.37 23.87 531.43 26.04 530.09 30.09 526.28 30.9 522.44 32.19 520.24 34.62 518.43 35.87 515.31 37.39 515.48 40.05 513.35 39.68 508.37 41.4 503.57 41.98 500.45 43.25 497.68 43.38 495.9 44.89 491.88 46.82 481.02 46.47 479.04 48.61 477.36 50.48 475.02 49.51 470.7 50.16 469.28 50.38 465.49 51.35 463.59 47.69 459.54 45.46 456.22 46.08 446.99 43.82 440.65 43.67 436.89 42.44 433.2 46.04 432.67 51.55 430.72 53.02 428.74 57.08 426.87 58.94 425 61.76 423.81 63.68 422.37 67.5 423.1 69.18 422.5 72.33 418.6 72.84 417.3 76.35 413.58 77.18 412.15 79.42 413.1 85.7 412.15 88.05 412.13 87.19 405.88 87.94 404.13 87.38 400.74 88.97 396.05 90.36 395.07 91.76 389.26 93.65 386.16 95.05 382.1 93.3 371 101.45 362.18 103.71 360.59 103.91 358.37 109.98 354.07 116.38 348.86 118.43 346.19 120.88 345.31 124.09 341.44 127.94 339.62 135.1 338.8 138.74 338.05 147.25 339.22 151.65 340.82 156.72 346.46 157.75 348.11 160.75 350.23 163.55 353.77 166.83 353.85 169.43 355.38 175.09 360.7 177.92 361.3 184.8 365.44 191.34 364.4 193.27 364.95 195.31 366.59 195.15 368.31 200.36 373.65 203.78 374.03 203.78 376.31 207.29 379.24 208.41 383.56 211.73 386.22 215.16 394 216.54 397.82 218.52 400.13 217.24 403.69 218.13 408.61 220.2 413.53 222.47 417.75 223.84 428.21 227.89 430.74 234.64 432.55 237.85 434.73 241.58 435.96 243.58 440.19 243.99 445.03 245.87 451.26 249.42 452.49 251.54 456.06 251.58 459.18 254.05 462.72 254.38 465.65 256.61 466.79 260.34 469.51 265.7 472.88 267.69 474.55 268.21 478.52 269.52 479.46 269.88 485.63 268.67 487.69 268.81 491.83 270.8 492.96 272.32 495.65 275.12 496.48 279.78 499.69 282.36 498.47 284.32 499.58 289.78 499.64 292.37 502.05 295.34 503 297.38 502.64 298.9 503.84 297.46 506.64 297.17 510.46 298.42 511.94 302.14 513.34 302.13 514.29 305.01 516.07 307.02 516.39 311.26 519.55 312.45 521.25 315.96 521.96 Z" id="37060110"/>
<path d="M 773.15 676.44 772.4 678.28 773.15 681.29 771.22 683.27 772.03 685.58 773.65 687.73 773.49 690.61 772.39 694.33 768.88 699.9 765.58 697.48 762.98 698.71 760.82 701.02 759.34 706.44 757.62 708.99 756.37 709.1 755.74 712.73 754.31 713.64 753.24 717.72 748.89 719.06 745.45 717.76 745.03 716.47 741.47 716.14 738.01 716.75 734.06 717.99 732.91 721.06 730.52 721.76 729.14 722.95 726.16 719.8 725.21 721.84 725.19 726.19 723.23 728.23 724.18 731.67 723.88 737.93 719.09 739.66 716.14 745.24 718.18 746.31 719.3 748.24 723.02 747.5 724.89 748.14 725.08 749.75 728.28 754.5 731.26 755.71 732.94 755.37 734.42 756.48 735.91 756.09 741.07 756.7 742.68 758.59 746.16 757.78 748.13 755.49 751.39 754.24 752.29 754.68 753.19 757.59 751.2 761.73 753.9 766.76 753.27 769.05 753.59 771.67 752.34 774.92 752.77 776.38 750.76 779.84 749.1 781.64 749.3 783.32 748.14 785.23 745.76 786.74 745.68 788.65 744.56 792.11 744.99 795.1 743.09 796.98 742.03 799.58 743.22 805.27 741.58 807.11 739.76 807.12 737.72 809.34 735.28 811.13 733.94 813.51 731.03 814.93 726.04 815.11 724.04 813.71 723.57 816.69 722.51 818.2 724.17 821.28 723.13 823.64 720.56 825.66 719.85 827.13 717.64 829.07 717.86 830.81 717.04 834.79 720.39 837.73 716.55 841.08 715.05 841.9 714.66 844.02 711.1 843.42 706.42 843.27 705.05 841.57 705.18 839.78 703.26 839.33 699.27 836.77 693.36 837.81 691.99 837.69 689.48 839.63 692.73 843.33 695.99 846.44 698.14 850.1 698.67 853.87 698.01 856.72 696.37 859 691.15 863.23 687.25 867.11 680.44 873 678.75 877.14 676.43 884.14 674.55 888.53 669.65 890.5 663.9 891.9 659.69 893.33 654.09 895.64 650.06 900.85 649.21 904.84 648.25 906.85 647.16 912.06 646.47 917.94 645.67 934.5 645.71 941.26 642.55 941.06 642.48 936.09 637.6 936.32 636.69 934.89 632.63 937.72 630.84 936.52 627.39 937.13 624.7 938.8 621.68 938.41 619.11 934.21 618.32 934.08 615.71 930.5 615.87 927.32 613.95 924.21 611.51 922.69 610.58 917.27 608.68 915.44 604.88 914.28 598.26 906.44 595.54 905.19 592.96 901.49 592.65 897.77 591.06 895.41 589.13 891.3 587.07 890.83 585.12 889.12 583.02 889.57 576.55 887.46 572.47 885.06 571.43 883.28 568.44 881.56 562.89 880.74 559.19 881.87 556.59 881.13 552.99 878.77 551.89 879.41 550.59 877.25 546.63 875.5 545.6 873.37 547.56 872 546.55 870.36 547.75 869.37 548.02 866.31 549.57 865.93 550.64 864.26 551.06 861.68 549.51 860.52 549.58 856.78 545.95 853.34 543.56 854.71 541.86 853.62 544.92 849.58 544.63 848.54 545.7 845.34 546.32 846.43 549 847.58 552.66 846.82 556.35 847.44 558.3 846.55 558.43 842.47 557.48 841.31 559.15 838.6 563.71 840.41 565.47 841.5 565.53 843.16 568.12 843.57 571.65 841.85 573.28 840.07 577.09 843.38 577.86 841.25 580.31 839.39 581.46 839.74 583.62 836.8 585.62 836.28 587.08 837 589.38 836.19 591.99 837 593.55 835.26 595.46 834.73 595.94 833.11 597.48 832.73 599.68 830.93 599.5 829.06 600.56 827.07 604.08 825.82 605.11 823.67 604.42 822.72 604.76 819.91 603.32 816.53 604.72 812.7 607.89 811.22 608.21 809.35 606.61 807.46 600.02 804.89 598.47 805.58 598 803.09 599.25 801.8 601.88 801.85 605.04 800.06 606.12 794.34 607.87 794.32 610.67 790.24 609.81 787.73 607.13 785.82 608.44 783.9 607.91 781.7 612.41 780.2 614.64 776.9 614.22 773.83 612.68 770.77 610.4 769.41 608.88 769.39 607.96 766.51 608.08 764.75 610.67 762.41 606.18 758.01 605.96 755.63 604.35 755.14 602.62 757.58 600.77 757.48 600.23 759.87 595.36 761.72 592.41 759.48 589.94 758.41 588.59 759.81 587.89 756.72 584.71 752.8 582.71 753.28 583.71 755.4 582.38 759.2 581.41 763.37 579.09 760.82 573.06 759.46 572.13 756.49 567.74 754.69 562.87 756.43 560.21 754.7 557.32 755.08 556.21 753.34 556.4 748.98 557.05 747.61 556.7 745.22 554.85 745.5 555.66 742.86 555.37 741.24 547.87 736.8 545.93 736.91 543.88 735.05 540.8 735.69 540.87 732.24 539.44 730.68 540.55 729.21 539.91 727.51 541.48 726.23 543.39 726.73 543.71 723.12 545.37 722.67 546.27 716.04 548.97 714.32 551.34 715.04 556.56 713.43 559.42 711.03 562.26 711.7 567.88 709.31 569.3 709.78 570.73 708.5 570.45 706.52 572.58 705.53 573.52 703.2 575.59 703.74 576.78 705.38 579.61 704.61 583.18 705.36 584.43 709.62 586.63 710.29 589.8 708.72 591.03 707.05 596.87 704.52 598.19 703.49 598.78 700.32 597.85 699.01 597.72 695.96 599.37 693.5 601.52 692.71 604.29 689.42 605.09 687.51 608.72 681.93 612.92 681.81 620.08 684.03 621.01 679.38 619.83 676.62 620.51 672.68 618.12 670.76 617.42 667.53 620.71 665.47 622.18 662.34 623.82 661.47 628.1 663.79 627.89 655.4 628.19 653.9 627.51 649.97 625.98 647.26 626.15 643.1 628.05 643.06 630.45 641.04 631.89 640.96 633.1 639.37 634.4 639.45 637.16 636.29 638.3 636.64 640.6 625.97 640.53 622.59 643.85 623.22 648.68 621.4 652.17 621.86 656.4 620.38 656.78 622.48 658.75 626.46 660.73 627.91 661.54 625.69 664.54 622.99 668.52 622.72 669.39 621.56 672.59 622.69 674.35 624.02 677.65 623.47 681.27 623.78 684.23 627.39 685.86 626.06 687.4 626.12 688.82 623.21 689.42 618.83 690.33 618.08 689.7 615.17 692.62 610.34 695.04 607.34 698.43 606.8 698.95 608.3 702.17 607.59 706.17 609.15 707.38 608.63 709.17 610.15 710.1 612.09 712.65 613.49 719.1 615.47 722.07 612.23 722.15 610.33 724.79 609.06 725.69 607.11 727.94 607.76 729.6 605.53 731.59 604.72 735.45 606.82 739.08 607.45 742.36 611.42 744.07 610.1 747.17 609.46 749.49 615.49 748.34 621.77 745.74 623.51 743.33 622.96 741.63 624.85 743.15 626.55 744.67 626.67 746.4 628.86 747.46 631.26 746.78 633.03 748.94 635.7 749.52 638 747.98 639.06 747.22 641.85 747.39 644.23 748.52 645.88 753.17 645.91 754.35 646.88 752.98 649.65 757.12 652.57 756.93 656.02 759.05 659.3 757.85 661.56 761.87 663.96 760.81 666.08 761.92 668.31 766.02 670.3 773.15 676.44 Z" id="37060310"/>
<path d="M 792.51 818.43 792.48 824.34 790.69 831.63 788.28 834.98 787.11 841.18 785.6 841.56 779.34 836.9 777.12 839.02 777.09 846.27 775.67 849.18 775.98 856.39 776.96 859.92 776.96 862.07 780.18 863.5 782.28 867.99 786.46 870.98 788.17 873.56 791.77 875.73 792.52 877.01 796.06 878.33 798.1 878.45 799 880.9 796.1 884.85 793.33 886.28 793.88 890.56 790.25 894.88 787.79 895.9 789.53 898.16 785.78 901.93 785.18 904.17 780.99 910.55 780.42 912.36 776.87 914.59 775.85 919.92 775.87 921.7 774.63 922.68 775.6 926.41 779.06 927.11 780.74 928.33 784.45 934.98 786.72 940.56 789.7 944.79 793.91 946.59 793.99 948.56 793.17 952.29 794.08 954.86 793.86 957.11 792.92 958.61 793.12 961.5 794.08 964.99 790.62 968.6 788.77 969.3 786.35 974.02 785.18 979.91 784.05 981.05 780.12 981.84 779.38 983.54 780.24 987.18 779.17 990.22 781.16 996.11 781.09 999.31 778.96 999.29 776.65 1000.63 773.07 1003.5 772.44 1005.61 773.32 1007.23 773.7 1010.1 772.92 1012.95 771.8 1014.69 771.89 1016.27 770.49 1019.98 771.29 1022.24 769.25 1023.35 768.71 1028.27 767.83 1028.72 768.34 1031.42 773.18 1032.97 775.18 1034.35 776.66 1036.87 776.49 1039.98 777.24 1042.13 773.03 1054.03 772.52 1058.63 770.75 1060.22 766.46 1060.86 765.95 1063.82 764.95 1064.44 765.47 1066.84 764.12 1069.44 762.05 1075.67 762.98 1079.41 766.48 1085.26 768.59 1086.79 770 1086.5 775.1 1089.02 775.77 1091.19 778.18 1095.13 781.96 1095.95 782.99 1096.72 783.23 1099.82 782.74 1103.11 784.08 1107.64 785.2 1108.95 785.37 1110.83 784.02 1111.66 781.88 1111.44 779.95 1113.61 777.6 1113.38 777.73 1118.37 779.76 1118.89 781.23 1120.51 780.8 1121.56 783.26 1124.57 780.92 1126.11 779.45 1128.17 777.96 1127.88 774.72 1129.9 769.82 1130.24 767.56 1129.69 762.84 1131.29 762.86 1133 758.76 1132.46 757.58 1127.76 755.17 1124.38 753.73 1124 751.85 1124.92 749.44 1123.83 748.13 1118.23 745.42 1114.28 741.75 1111.43 735.56 1111.38 732.78 1110.71 731.01 1108.92 727.63 1110.13 726.94 1112.09 725.19 1111.88 721.5 1114.25 719.01 1116.56 717.29 1118.86 713.17 1120.5 709.34 1119.54 703.19 1117.11 701.07 1114.35 699.19 1113.62 696.14 1108.91 692.74 1104.66 687.91 1099.89 686.69 1099.48 682.14 1102.6 681.83 1104.22 679.04 1106.55 676.84 1107.42 675.31 1112.53 673.02 1111.91 670.05 1112.82 666.83 1113.19 663.09 1115.27 661.22 1117.57 657.52 1117.78 653.6 1119.89 650.53 1117.79 648.82 1117.7 643.26 1120.07 641.62 1117.97 639.02 1118.09 634.99 1115.53 632.64 1114.95 630.74 1112.9 630.41 1108.4 627.24 1108.44 625.28 1107.64 623.1 1104.09 623.27 1100.43 624.29 1096.08 623.85 1095.15 620.46 1093.18 615.9 1093.65 614.92 1093.25 613.88 1090.18 611.56 1087.17 609.72 1086.5 608.3 1082.53 598.65 1078.91 596.8 1077.58 593.49 1080.5 591.59 1083.22 586.64 1084.36 584.9 1083.62 582.41 1085.73 579.16 1086.67 577.29 1085.53 574.89 1087.23 571.37 1088.59 570.62 1092.24 566.49 1089.18 567.94 1087.28 567.1 1084.86 559.8 1078.55 554.3 1074.93 551.49 1074.53 548.15 1068.43 546.32 1068.02 544.26 1066.55 538.98 1065.75 537.96 1064.86 533.03 1064.31 533.57 1063.01 532.49 1060.56 531.56 1056.84 533.64 1055.75 533.86 1053.39 535.89 1053.33 537.94 1052.19 541.27 1052.57 543.34 1051.52 546.39 1049.1 545.65 1045.69 542.99 1040.52 543.13 1035.67 540.27 1035.01 538.33 1032.85 537.84 1029.34 536.06 1024.92 532.87 1020.87 527.48 1017.85 521.47 1016.33 523.89 1013.52 526.6 1013.22 530 1014.38 531.61 1013.08 533.55 1013.74 537.03 1013.04 538.85 1013.89 541.02 1012.95 542.95 1008.92 546.62 1009.2 547.65 1010.83 554.12 1011.42 555.27 1010.85 557.4 1011.58 560.11 1011.09 558.07 1009.45 556.66 1006.21 556.59 1000.46 559.73 999.42 562.97 997.17 563.1 994.12 565.38 990.6 567.59 989.63 568.12 985.65 571.26 983.03 572.24 979.78 574.16 977.79 573.91 975.85 574.59 972.68 576.4 970.36 584.37 965.23 586.64 964.92 588.52 965.56 590.61 967.51 591.4 969.78 592.95 969.9 596.11 971.45 597.49 971.09 598.44 973.58 609.39 978.95 612.1 980.7 613.5 979.01 616.91 976.56 618.11 974.65 620.34 973.88 621.06 972.44 619.91 966.13 623.07 964.48 625.97 964.79 626.12 961.92 628.99 959.94 630.47 957.53 631.9 952.65 630.86 951.9 633.34 947.81 631.73 946.32 630.4 941.84 633.58 941.64 638.44 939.98 636.97 938.08 632.63 937.72 636.69 934.89 637.6 936.32 642.48 936.09 642.55 941.06 645.71 941.26 645.67 934.5 646.47 917.94 647.16 912.06 648.25 906.85 649.21 904.84 650.06 900.85 654.09 895.64 659.69 893.33 663.9 891.9 669.65 890.5 674.55 888.53 676.43 884.14 678.75 877.14 680.44 873 687.25 867.11 691.15 863.23 696.37 859 698.01 856.72 698.67 853.87 698.14 850.1 695.99 846.44 692.73 843.33 689.48 839.63 691.99 837.69 693.36 837.81 699.27 836.77 703.26 839.33 705.18 839.78 705.05 841.57 706.42 843.27 711.1 843.42 714.66 844.02 715.05 841.9 716.55 841.08 720.39 837.73 717.04 834.79 717.86 830.81 717.64 829.07 719.85 827.13 720.56 825.66 723.13 823.64 724.17 821.28 722.51 818.2 723.57 816.69 724.04 813.71 726.04 815.11 731.03 814.93 733.94 813.51 735.28 811.13 737.72 809.34 738.65 810.77 741.71 810.67 742.86 812.1 742.08 815.01 740.71 816.71 747.5 829.14 746.12 832.53 748.76 834.17 752.35 833.81 753.95 834.58 756.42 837.94 756.26 842.27 759.39 842.98 762.35 841.97 765.47 837.1 764.35 834.64 765.29 830.46 766.36 828.43 770.13 825.93 772.62 825.35 773.08 823.03 770.21 819.55 771.07 817.33 770.03 814.71 774.04 808.49 774.45 805.53 775.77 805.72 777.91 810.37 779.05 811.66 779.71 814.72 784.61 816.52 785.06 818.03 788.99 819.47 792.51 818.43 Z" id="37060320"/>
<path d="M 545.7 845.34 544.63 848.54 544.92 849.58 541.86 853.62 543.56 854.71 545.95 853.34 549.58 856.78 549.51 860.52 551.06 861.68 550.64 864.26 549.57 865.93 548.02 866.31 547.75 869.37 546.55 870.36 547.56 872 545.6 873.37 546.63 875.5 550.59 877.25 551.89 879.41 552.99 878.77 556.59 881.13 559.19 881.87 562.89 880.74 568.44 881.56 571.43 883.28 572.47 885.06 576.55 887.46 583.02 889.57 585.12 889.12 587.07 890.83 589.13 891.3 591.06 895.41 592.65 897.77 592.96 901.49 595.54 905.19 598.26 906.44 604.88 914.28 608.68 915.44 610.58 917.27 611.51 922.69 613.95 924.21 615.87 927.32 615.71 930.5 618.32 934.08 619.11 934.21 621.68 938.41 624.7 938.8 627.39 937.13 630.84 936.52 632.63 937.72 636.97 938.08 638.44 939.98 633.58 941.64 630.4 941.84 631.73 946.32 633.34 947.81 630.86 951.9 631.9 952.65 630.47 957.53 628.99 959.94 626.12 961.92 625.97 964.79 623.07 964.48 619.91 966.13 621.06 972.44 620.34 973.88 618.11 974.65 616.91 976.56 613.5 979.01 612.1 980.7 609.39 978.95 598.44 973.58 597.49 971.09 596.11 971.45 592.95 969.9 591.4 969.78 590.61 967.51 588.52 965.56 586.64 964.92 584.37 965.23 576.4 970.36 574.59 972.68 573.91 975.85 574.16 977.79 572.24 979.78 571.26 983.03 568.12 985.65 567.59 989.63 565.38 990.6 563.1 994.12 562.97 997.17 559.73 999.42 556.59 1000.46 556.66 1006.21 558.07 1009.45 560.11 1011.09 557.4 1011.58 555.27 1010.85 554.12 1011.42 547.65 1010.83 546.62 1009.2 542.95 1008.92 541.02 1012.95 538.85 1013.89 537.03 1013.04 533.55 1013.74 531.61 1013.08 530 1014.38 526.6 1013.22 523.89 1013.52 521.47 1016.33 527.48 1017.85 532.87 1020.87 536.06 1024.92 537.84 1029.34 538.33 1032.85 540.27 1035.01 543.13 1035.67 542.99 1040.52 545.65 1045.69 546.39 1049.1 543.34 1051.52 541.27 1052.57 537.94 1052.19 535.89 1053.33 533.86 1053.39 533.64 1055.75 531.56 1056.84 532.49 1060.56 533.57 1063.01 533.03 1064.31 529.2 1064.67 528.25 1065.29 523.69 1063.36 521.39 1063.35 518.22 1062.38 516.2 1062.81 516.05 1065.85 513.74 1070.47 511.38 1072.3 497.48 1074.58 494.08 1076 490.13 1076.04 487.88 1076.79 486.91 1080.65 485.08 1083.48 480.81 1085.93 478.84 1085.56 474.9 1082.13 472.06 1079.11 471.43 1076.49 466.68 1074.82 464.46 1073.01 459.34 1071.46 454.6 1072.7 450.8 1073.28 449.91 1074.56 445.67 1074.84 443.55 1075.55 438.53 1078.22 435.33 1081.39 433.05 1085.23 432.11 1093.08 433.56 1098.92 436.36 1100.13 437.65 1103.07 437.37 1109.74 435.57 1115.96 434.04 1118.53 430.75 1120.62 425.14 1121.08 421.08 1121.72 417.44 1120.71 418.3 1116.15 417.21 1114.63 418.32 1110.38 411.28 1101.79 410.48 1098.65 409.45 1097.61 405.9 1096.75 404.71 1097.59 402.3 1096.32 401.93 1093.25 402.42 1087.88 403.37 1084.6 400.51 1079.57 399.94 1074.06 400.94 1072.87 400 1071.35 401.33 1064.29 404.23 1059.09 405 1054.55 404.23 1052.31 401.86 1050.76 398.32 1052.2 395.03 1052.78 392.38 1050.13 390.03 1049.24 384.71 1043.24 385.29 1039.46 386.6 1036.53 384.75 1033.27 385.02 1029.92 385.77 1027.39 388.85 1026.51 391.03 1024.71 392.1 1024.92 394.38 1020.15 395.43 1016.15 396.97 1015.33 397.92 1013.02 400.68 1009.65 403.96 1012.24 405.94 1015.16 409.03 1016.37 411.52 1012.92 413.58 1011.31 413.97 1009.91 416.9 1006.5 418.31 1006.15 421.93 1006.95 424.34 1003.12 423.8 1001.82 425.63 999.65 428.42 997.6 431.36 998.45 433.5 996.73 435.39 992.63 432.72 986.82 436.72 980.55 437.06 978.91 438.78 975.85 437.01 974.12 436.43 970.16 434.93 968.91 435.52 966.22 436.87 964.82 439.21 960.15 439.56 957.28 441.56 956.24 443.77 951.54 443.01 946.99 443.16 943.12 442.37 941.83 442.77 937.52 444.36 934.51 444.34 930.75 444.98 926.34 442.71 922.86 443.09 921.85 442 919.27 442.41 917.92 441.31 915.09 442.24 910.2 443.4 907.95 443.38 906.38 440.5 904.57 441.83 901.24 440.23 897.6 442.97 891.18 446.2 887.56 446.25 885.57 445.2 883.32 447.72 881.34 448.89 878.83 452.3 876.66 452.74 875.01 455.61 872.38 456.94 867.67 459.25 865.38 460.33 863.61 461.7 863.43 463 866 464.9 868.09 467.24 869.07 468.62 870.78 469.49 874.83 471.63 877.65 475.49 878.69 478.99 881.75 477.61 883.71 476.23 884.1 474.63 886.53 475.88 889.41 479.92 890.75 480.98 890.61 482.93 893.81 483.14 897.49 482.18 901.32 484.09 902.47 484.27 904.52 483.34 906.77 483.83 908.72 488.48 910.52 490.57 909.07 494.5 909.82 495.34 903.08 494.68 900.15 491.36 893.97 488.67 890.36 488.4 882.31 492.57 878.23 495.02 876.88 504.31 874.86 509.89 873.96 513.67 871.7 518.22 867.35 521.47 859.53 521.8 856.94 521.21 849 516.83 842.18 512.74 837.3 507.21 834.09 503.78 832.5 514.09 832.24 514.46 829.46 515.81 829.19 518.12 834.14 519.2 835.63 520.5 832.49 521.9 831.4 523.58 831.78 524.65 833.34 526.77 834 528.2 835.64 530.86 841.28 535.3 843.63 536.08 844.57 542.14 844.61 542.77 845.38 545.7 845.34 Z" id="37060330"/>
<path d="M 420.46 769.71 419.32 773.18 417.53 774.49 417.69 779.91 419.43 781.05 418.71 782.57 419.42 784.8 423.62 785.98 424.92 787.89 424.56 790.21 427.04 791.84 425.02 793.47 424.56 797.05 423.54 799.05 423.8 800.57 425.69 800.83 428.04 802.63 428.95 802.45 431.29 804.36 429.62 807.67 429.79 811.36 428.67 814.11 428.13 817.22 428.59 819.2 426.98 821.08 424.64 822.25 424.81 823.56 423.52 825.72 421.28 826.99 420.28 830.27 420.73 831.52 418.92 833.12 415.22 834.56 413.37 835.8 414.39 837.42 414.3 839.42 411.79 842.83 411.59 845.45 410.14 848.16 411.92 848.5 415.56 847.43 416.23 846.34 418.26 846.72 420.87 850.5 424.01 850.16 425.62 849.16 427.35 849.84 428.74 848.07 431.21 846.97 433.33 847.13 435.47 844.37 438.54 844.06 441.54 842.7 446.04 843.84 445.77 846.56 446.83 850.71 448.28 852.46 449.1 855.88 451.1 857.98 454.39 860.36 456.88 861.29 457.26 862.91 459.25 865.38 456.94 867.67 455.61 872.38 452.74 875.01 452.3 876.66 448.89 878.83 447.72 881.34 445.2 883.32 446.25 885.57 446.2 887.56 442.97 891.18 440.23 897.6 441.83 901.24 440.5 904.57 443.38 906.38 443.4 907.95 442.24 910.2 441.31 915.09 442.41 917.92 442 919.27 443.09 921.85 442.71 922.86 444.98 926.34 444.34 930.75 444.36 934.51 442.77 937.52 442.37 941.83 443.16 943.12 443.01 946.99 443.77 951.54 441.56 956.24 439.56 957.28 439.21 960.15 436.87 964.82 435.52 966.22 434.93 968.91 436.43 970.16 437.01 974.12 438.78 975.85 437.06 978.91 436.72 980.55 432.72 986.82 435.39 992.63 433.5 996.73 431.36 998.45 428.42 997.6 425.63 999.65 423.8 1001.82 424.34 1003.12 421.93 1006.95 418.31 1006.15 416.9 1006.5 413.97 1009.91 413.58 1011.31 411.52 1012.92 409.03 1016.37 405.94 1015.16 403.96 1012.24 400.68 1009.65 397.92 1013.02 396.97 1015.33 395.43 1016.15 394.38 1020.15 392.1 1024.92 391.03 1024.71 388.85 1026.51 386.08 1022.28 385.33 1023.93 382.48 1023.11 382.79 1021.08 381.26 1020.57 379.91 1017.73 377.38 1015.66 373.99 1014.45 369.54 1015.61 368.76 1011.42 365.7 1005.75 366.27 1002.7 367.89 1000.49 369.34 995.43 370.52 993.57 367.98 992.5 367.14 990.05 365.89 989.48 364.22 987.25 363.41 984.98 363.27 982.42 358.07 979.98 357.2 978.32 358.35 975.07 356.15 973.45 355.51 971.41 357.47 967.01 354.26 961.28 354.04 959.72 351.41 958.83 349.48 956.43 349.65 951.28 345.82 944.12 344.35 940.42 341.39 939.57 338.64 942.36 336.16 938.47 334.66 939.49 333.04 939.31 330.27 935.06 326.82 933.95 323.78 927.28 321.37 925.07 321.53 922.91 320.99 919.49 321.38 915.97 320.17 914.34 318.27 915.27 315.71 915.5 314.19 918.47 310.23 921.49 308.8 919.22 304.52 922.43 299.95 920.55 298.88 920.65 295.73 918.62 294.13 915.89 290.69 914.5 290.13 911.07 290.77 909.65 287.98 907.41 286.73 903.72 283.74 901.37 281.74 901.94 276.98 902.36 272.22 904.83 272.13 907.43 270.39 907.66 269.07 909 266.67 910.11 263.57 910.66 257.91 910.08 255.57 912.18 249.48 911.8 247.77 910.6 244.19 906.93 242.76 906.94 237.73 908.35 235.57 912.05 234.65 915.23 231.92 915.12 230.89 911.22 228.42 907.68 227.37 903.5 227.55 901.72 226.9 897.18 227.62 894.88 225.76 893.98 223.83 891.98 222.97 888.39 222.87 885.5 221.94 882.42 220.24 880.36 220.89 878.39 221.4 874.13 220.34 864.43 218.11 863.61 219.48 861.43 219.33 857.51 220.07 857.01 220.37 852.88 221.4 849.19 224.78 848.54 225.8 847.28 228.18 848.1 230.09 847.32 232.31 847.38 234.17 848.37 240.64 850.33 244.47 850.51 246.45 853.01 249.09 851.17 250.85 849.19 251.23 847.12 252.72 845.15 254.21 844.41 259.33 839.13 263.05 837.97 266.08 837.89 268.08 838.49 270.01 840.2 272.38 840.51 276.15 843.04 279.19 847.99 281.75 847.09 283.99 847.89 288.16 852.17 290.04 852.44 290.45 853.84 293.05 856.83 298.52 853.69 300.04 853.83 303.23 852.85 304.25 850.17 307.26 847.59 308.29 845.57 308.35 843.04 311.51 841.11 311.42 836.99 312.44 835.06 312.67 832.82 310.07 829.28 309.05 829.36 303.82 827.66 299.85 824.72 300.23 822.77 302.75 819.22 303.57 816.37 302.26 811.96 303.66 809.11 302.93 807.29 299.23 807.43 298.01 805.79 297.76 803.96 298.83 802.54 302.35 802.4 304.63 801.04 308.17 800.1 308.63 798.24 311.41 796.79 313.91 800.01 316.87 801.81 319.34 802.59 320.88 804.61 323.27 803.43 324.65 805.7 328.01 804.89 329.49 805.46 330.9 804.59 334.38 804.66 339.16 806.57 340.77 805.4 339.97 803.53 343.51 799.46 343.7 797.35 345.62 797.79 348.3 795.98 352.91 796.81 355.59 794.89 357.38 795.6 360.33 786.34 365.09 780.94 367.14 782.16 368.33 779.37 370.74 778.46 374.17 772.55 373.96 770.34 372.16 765.61 372.31 764.02 370.6 762.74 371.2 760.41 374.18 755.34 373.47 753.19 371.4 752.2 370.49 750.53 368.08 749.87 366.9 748.21 367.55 746.1 366.44 743.98 365.02 738.99 366.38 737.34 368.57 737.01 368.54 732.36 371.98 732.59 373.69 730.78 378.37 731.66 379.22 734.01 382.16 733.65 384.95 728.19 387.57 726.39 388.82 729.09 391.29 729.91 390.63 733.8 392.41 736.86 394.32 737.39 393.85 739.09 395.56 741.08 394.25 742.86 396.61 746.58 398.79 745.41 400.47 746.82 402.49 747.34 402.2 750.68 404.25 753.12 405.17 756.85 406.98 758.77 407.27 760.12 412.13 761.45 415.33 763.98 415.55 765.47 417.3 768.01 420.46 769.71 Z" id="37060340"/>
<path d="M 430.09 574.49 431.95 577.74 432.96 580.59 438.54 590.52 442.57 593.07 444.91 593.69 448.04 595.75 448.58 594.73 451.47 596.14 456.83 600.4 457.16 603.39 458.98 607.05 456.41 608.25 453.86 608.24 449.9 610.66 447.92 609.83 447.02 611.28 444.15 610.1 442.94 608.86 440.29 608.42 439.31 609.33 437.01 607.64 434.62 608.38 435.15 611.08 436.84 612.69 435.41 615.13 436.74 620.69 435.56 623.08 435.07 627.55 431.62 627.92 429.03 626.8 425.53 626.3 423.95 623.06 419.46 620.95 416.38 620.63 414.83 619.33 412.83 620.53 414.02 623 416.01 624.96 416.61 631.26 415.88 637.76 413.79 636.64 411.38 639.93 409.36 645.22 410.04 648.3 413.57 651.03 412.33 652.44 409.06 653.94 406.67 656.93 404.48 662.85 405.75 664.55 410.86 664.56 411.42 667.42 409.41 669.56 409.59 672.37 408.72 673.92 409.28 675.95 408.66 678.88 407.78 679.69 407.49 682.26 402.33 680.73 400.83 679.18 398.57 679.18 397.01 681.27 396.86 685.75 395.95 687.89 394.55 693.12 388.37 690.94 386.62 691.22 387.79 693.84 395.57 697.58 397.33 698.94 393.78 703.21 391.57 703.31 390.32 701.08 390.16 698.31 386.69 697.99 382.99 699.04 381.3 698.79 378.06 696.78 377.05 694.77 373.67 695.78 369.95 695.97 366.8 694.84 366.68 697.87 367.73 699.48 367.51 702.78 363.81 702.43 361.61 703.21 360.33 702.8 358.29 703.97 359.9 706.72 357.86 709.39 358.35 710.7 357.25 715.51 353.91 717.21 352.73 719.78 352.86 723.25 351.67 724.96 351.8 727.48 350.77 728.88 348.68 729.52 347.87 731.32 349.78 732.24 349.63 733.48 353.68 736.18 357.02 735.93 359.23 737.42 361.41 736.58 365.02 738.99 366.44 743.98 367.55 746.1 366.9 748.21 368.08 749.87 370.49 750.53 371.4 752.2 373.47 753.19 374.18 755.34 371.2 760.41 370.6 762.74 372.31 764.02 372.16 765.61 373.96 770.34 374.17 772.55 370.74 778.46 368.33 779.37 367.14 782.16 365.09 780.94 360.33 786.34 357.38 795.6 355.59 794.89 352.91 796.81 348.3 795.98 345.62 797.79 343.7 797.35 343.51 799.46 339.97 803.53 340.77 805.4 339.16 806.57 334.38 804.66 330.9 804.59 329.49 805.46 328.01 804.89 324.65 805.7 323.27 803.43 320.88 804.61 319.34 802.59 316.87 801.81 313.91 800.01 311.41 796.79 308.63 798.24 308.17 800.1 304.63 801.04 302.35 802.4 298.83 802.54 297.76 803.96 298.01 805.79 299.23 807.43 302.93 807.29 303.66 809.11 302.26 811.96 303.57 816.37 302.75 819.22 300.23 822.77 299.85 824.72 303.82 827.66 309.05 829.36 310.07 829.28 312.67 832.82 312.44 835.06 311.42 836.99 311.51 841.11 308.35 843.04 308.29 845.57 307.26 847.59 304.25 850.17 303.23 852.85 300.04 853.83 298.52 853.69 293.05 856.83 290.45 853.84 290.04 852.44 288.16 852.17 283.99 847.89 281.75 847.09 279.19 847.99 276.15 843.04 272.38 840.51 270.01 840.2 268.08 838.49 266.08 837.89 263.05 837.97 259.33 839.13 254.21 844.41 252.72 845.15 251.23 847.12 250.85 849.19 249.09 851.17 246.45 853.01 244.47 850.51 240.64 850.33 234.17 848.37 232.31 847.38 230.09 847.32 228.18 848.1 225.8 847.28 224.78 848.54 221.4 849.19 221.43 847.52 222.66 845.6 223.06 841.54 224.42 838.84 227.35 834.31 228.32 832.15 230.54 829.47 230.47 828.36 232.97 826.07 234.63 823.45 234.93 819.81 237.38 815.46 240.02 814.84 240.92 813.34 241.75 809.93 242.98 808.14 242.9 803.78 243.95 801.24 244.46 797.9 242.69 793.66 242.72 792.46 245.64 788.06 245.32 783.09 245.76 780.28 247.6 778.54 248.21 776.09 247.59 774.9 247.85 770.66 249.49 768.96 248.67 767.1 249.46 765.82 248.28 762.06 248.43 759.86 247.35 758.21 247.77 756.17 247.21 753.52 245.09 750.35 245.82 747.25 248.16 745.88 248.65 741.65 251.52 737.13 254.32 730.1 254.09 728.62 256.44 724.5 259.25 722.22 261.43 719.8 261.5 716.94 263.49 715.8 263.5 710.7 261.96 707.93 261.91 706.24 260.65 703.32 260.9 700.09 258.59 698.8 259.99 694.82 261.63 693.48 266.02 687.71 268.27 685.9 271.24 684.84 272.52 681.13 272.17 679.48 273.16 675.81 275.37 671.87 273.72 671.05 274.8 666.23 276.98 663.32 276.51 660.84 275.35 659.93 276.57 657.2 273.63 654.72 272.49 653.04 272.84 651.69 272.1 648.42 272.1 645.75 274.51 640.79 275.77 640.59 278.94 632.97 282 631.01 285.67 633.64 287.02 636.08 289.87 638.62 293.29 638.47 296.55 641.6 299.76 643.31 300.53 640.9 302.92 640.94 306.21 637.14 306.03 632.35 307.26 631.66 309.46 628.57 308.8 625.71 310.57 622.68 309.97 618.94 312.4 616.7 311.83 614.02 313.18 613.4 313.1 609.42 314.36 609.37 316.89 604.17 320.79 600.47 319.9 598.17 320.85 596.88 321.13 591.16 323.27 588.26 326.03 586.93 325.25 580.58 323.66 579.18 320.95 579.09 319.81 580.04 316.27 580.05 313.22 578.67 310.67 576.85 306.52 574.75 307.49 570.32 309.57 567.21 309.03 563.82 307.4 559.6 305.41 557.74 307.86 552.11 312.25 548.75 312.58 545.96 313.43 545.06 313 542.62 314.13 541.63 316.17 536.02 318.45 533.01 319.98 532.33 319.94 530.73 317.55 529.76 316.76 527.73 316.77 525.25 315.96 521.96 319.95 522.88 323.42 526.88 325.82 526.88 328.15 527.86 331.33 522.13 332.87 516.58 335.6 515.59 337.01 516.15 339.26 513.44 343.45 514.24 346.66 516.52 349.93 517.53 351.23 521.67 352.33 523.3 349.15 525.52 348.9 526.99 350.35 529.51 350.99 534.86 352.33 538.23 351.39 543.22 350.37 544.21 350.61 546.09 353.24 552.1 354.85 552.25 356.44 554.23 359.17 554.8 360.06 554.06 363.32 555.12 363.68 556.86 362.37 558.41 362.52 560.38 364.84 560.2 367.03 561.36 370.31 566.51 373.84 565.72 374.22 563.37 373.32 561.2 374.09 559.4 376.91 558.35 377.71 559.19 381.43 557.16 382.24 558.37 384.05 558.05 385.63 558.93 389.01 558.01 393.17 558.86 393.28 561.02 396.37 562.9 398.51 562.26 400.52 565.47 402.11 566.52 403.66 569.13 407.6 570.49 407.86 569.11 410.29 570.18 412.28 571.9 415.78 571.07 418.13 574.96 418.95 575.16 421.52 571.1 421.85 569.52 426.34 570.87 430.09 574.49 Z" id="37060350"/>
<path d="M 278.94 632.97 275.77 640.59 274.51 640.79 272.1 645.75 272.1 648.42 272.84 651.69 272.49 653.04 273.63 654.72 276.57 657.2 275.35 659.93 276.51 660.84 276.98 663.32 274.8 666.23 273.72 671.05 275.37 671.87 273.16 675.81 272.17 679.48 272.52 681.13 271.24 684.84 268.27 685.9 266.02 687.71 261.63 693.48 259.99 694.82 258.59 698.8 260.9 700.09 260.65 703.32 261.91 706.24 261.96 707.93 263.5 710.7 263.49 715.8 261.5 716.94 261.43 719.8 259.25 722.22 256.44 724.5 254.09 728.62 254.32 730.1 251.52 737.13 248.65 741.65 248.16 745.88 245.82 747.25 245.09 750.35 247.21 753.52 247.77 756.17 247.35 758.21 248.43 759.86 248.28 762.06 249.46 765.82 248.67 767.1 249.49 768.96 247.85 770.66 247.59 774.9 248.21 776.09 247.6 778.54 245.76 780.28 245.32 783.09 245.64 788.06 242.72 792.46 242.69 793.66 244.46 797.9 243.95 801.24 242.9 803.78 242.98 808.14 241.75 809.93 240.92 813.34 240.02 814.84 237.38 815.46 234.93 819.81 234.63 823.45 232.97 826.07 230.47 828.36 230.54 829.47 228.32 832.15 227.35 834.31 224.42 838.84 223.06 841.54 222.66 845.6 221.43 847.52 221.4 849.19 220.37 852.88 220.07 857.01 219.33 857.51 219.48 861.43 218.11 863.61 220.34 864.43 221.4 874.13 220.89 878.39 220.24 880.36 221.94 882.42 222.87 885.5 222.97 888.39 223.83 891.98 225.76 893.98 227.62 894.88 226.9 897.18 227.55 901.72 227.37 903.5 228.42 907.68 230.89 911.22 231.92 915.12 227.88 919.69 226.48 920.63 226.01 922.84 222.43 926.65 221.57 928.27 215.85 932.22 210.66 931.83 209.41 932.32 206.31 930.23 203.18 926.99 201.03 926.68 198.92 925.08 195.49 925.63 194.62 929.27 192.1 929.92 190.88 927.61 186.98 926.12 186.3 923.88 184.18 919.92 183.06 915.51 180.36 912.52 177.76 911.03 173.56 910.72 170.81 910.04 168.54 905.53 168.26 903.39 164.24 902.39 159.93 899.99 157.2 896.85 155.39 895.83 150.82 894.22 149.17 893.04 145.95 893.17 144.22 894.11 137.92 895.67 134.99 894.62 131.52 894.04 130.05 890.54 130.34 888.61 129.66 885.18 130.69 883.6 130.46 880.79 129.32 878.63 131.74 875.86 132.91 873.02 132.39 871.63 133.63 870.44 133.58 866.56 134.78 863.57 133.88 860.1 132.01 858.22 133.33 856.06 133.79 850.78 133.15 849.08 133.84 846.62 132.96 845.13 133.26 841.63 131.32 838.79 131.67 836.44 130.49 834.14 130.26 828.28 128.92 826.04 127.98 822.29 125.52 819.62 124.1 819.38 122.76 817.45 120.75 811.93 121.72 805.16 122.28 803.43 121.78 801.54 123.75 795.81 124.64 791.13 124.21 789.28 124.91 783 125.53 772.25 125.05 769.24 126.89 768.49 129.55 768.59 131.78 766.61 132.83 763.69 134.4 757.46 133.8 752.92 136.47 747.79 138.84 746.23 138.47 745.28 139.75 741.36 143.74 739.98 145.36 736.07 145.11 735.17 147.59 731.03 146.08 725.83 146.35 723.2 144.96 715.98 141.5 713.63 139.16 712.92 134.89 710.25 133.98 708.91 129.84 706.86 127.16 704.33 126.95 700.81 125.48 699.09 123.12 698.4 120.59 696.14 120.1 694.79 116.75 692.12 111.16 689.48 109.92 687.77 107.61 687.31 104.82 685.3 104.29 684.23 100.96 682.36 97.96 679.05 94.43 681.02 91.38 681.92 89.58 683.94 87.65 683.51 82.63 680.58 74.55 679.3 69.29 676.97 66.83 674.79 63.96 674.49 63.26 671.12 61.46 667.34 61.98 665.89 58.81 662.14 57.98 659.96 61.03 653.32 60.97 650.84 59.39 649.38 60.75 643.75 60.35 640.69 60.42 635.07 63.62 630.72 67 630.68 69.74 631.16 76.53 629.82 80.72 631.01 87.2 630.95 90.81 629.05 94.31 628.38 99.34 626.17 102.55 625.99 105.11 623.5 110.6 624.64 114.62 624.59 119.37 624 124.49 624.09 129.42 621.29 132.42 621.37 134.07 620.64 138.88 616.94 143.66 617.41 147.65 618.55 150.2 618.69 154.71 616.17 158.15 615.77 160.74 613.73 166.6 612.59 169.93 612.95 172.94 612.7 174.68 611.53 175.55 609.18 177.6 606.63 179.94 605.32 181.91 601.53 183.51 599.67 186.15 598.01 187.52 595.89 184.91 594.33 186.34 592.37 186.78 590.43 190.02 590.61 192.12 591.48 194.89 590.91 197.08 592.26 199.79 592.83 203.34 592.33 207.22 593.46 208.96 593.34 213.83 594.66 216.33 596.33 220.69 596.22 224.91 600.08 228.87 600.96 231.14 602.17 234.87 605.85 236.37 611.1 238.5 612.29 241.89 612.62 244.44 613.42 247.87 613.69 251.58 615.72 253.42 615.6 255.52 617.23 256.49 624.26 259.08 624.38 265.7 627.29 268.33 626.78 271.88 628.03 274.55 631.46 278.94 632.97 Z" id="37060360"/>
<path d="M 430.09 574.49 426.34 570.87 421.85 569.52 421.52 571.1 418.95 575.16 418.13 574.96 415.78 571.07 412.28 571.9 410.29 570.18 407.86 569.11 407.6 570.49 403.66 569.13 402.11 566.52 400.52 565.47 398.51 562.26 396.37 562.9 393.28 561.02 393.17 558.86 389.01 558.01 385.63 558.93 384.05 558.05 382.24 558.37 381.43 557.16 377.71 559.19 376.91 558.35 374.09 559.4 373.32 561.2 374.22 563.37 373.84 565.72 370.31 566.51 367.03 561.36 364.84 560.2 362.52 560.38 362.37 558.41 363.68 556.86 363.32 555.12 360.06 554.06 359.17 554.8 356.44 554.23 354.85 552.25 353.24 552.1 350.61 546.09 350.37 544.21 351.39 543.22 352.33 538.23 350.99 534.86 350.35 529.51 348.9 526.99 349.15 525.52 352.33 523.3 351.23 521.67 349.93 517.53 346.66 516.52 343.45 514.24 339.26 513.44 337.01 516.15 335.6 515.59 332.87 516.58 331.33 522.13 328.15 527.86 325.82 526.88 323.42 526.88 319.95 522.88 315.96 521.96 312.45 521.25 311.26 519.55 307.02 516.39 305.01 516.07 302.13 514.29 302.14 513.34 298.42 511.94 297.17 510.46 297.46 506.64 298.9 503.84 297.38 502.64 295.34 503 292.37 502.05 289.78 499.64 284.32 499.58 282.36 498.47 279.78 499.69 275.12 496.48 272.32 495.65 270.8 492.96 268.81 491.83 268.67 487.69 269.88 485.63 269.52 479.46 268.21 478.52 267.69 474.55 265.7 472.88 260.34 469.51 256.61 466.79 254.38 465.65 254.05 462.72 251.58 459.18 251.54 456.06 249.42 452.49 245.87 451.26 243.99 445.03 243.58 440.19 241.58 435.96 237.85 434.73 234.64 432.55 227.89 430.74 223.84 428.21 222.47 417.75 220.2 413.53 218.13 408.61 217.24 403.69 218.52 400.13 216.54 397.82 215.16 394 211.73 386.22 208.41 383.56 207.29 379.24 203.78 376.31 203.78 374.03 200.36 373.65 195.15 368.31 195.31 366.59 193.27 364.95 191.34 364.4 184.8 365.44 177.92 361.3 175.09 360.7 169.43 355.38 166.83 353.85 163.55 353.77 160.75 350.23 157.75 348.11 156.72 346.46 151.65 340.82 147.25 339.22 148.81 331.19 149.76 328.48 149.8 325.51 153.27 322.86 155.11 322.53 158.44 319.86 161.65 319.91 168.97 317.56 173.15 315.21 174.89 313.48 178.24 312.37 182.04 310.21 184.13 307.81 189.49 306.61 190.76 305.12 193.69 304.14 196.5 302.45 199.82 299.8 200.08 297.44 199.47 290.17 207.59 285.66 211.38 282.74 215.78 279.96 219.43 276.39 226.3 278.56 233.24 282.09 239.05 279.31 241.71 278.49 248.53 279.04 252.08 280.98 255.07 281.58 258.66 281.13 259.85 282.24 263.14 282.53 264.74 284.37 266.71 284.44 269.71 286.17 273.34 287.25 276.38 285.95 279.15 288.23 278.75 290.52 279.68 295.2 282.51 297.09 287.76 297.54 292.94 300.52 294.09 303.04 297.6 304.5 300.95 304.98 307.68 312.04 308.64 312.13 312.21 314.9 314.26 317.32 317.87 319.06 319.92 321.35 321.67 321.24 325.13 322.43 327.59 326.7 330.08 328.37 331.87 330.97 336.73 334.09 339.06 336.58 341.27 337.38 343.23 339.24 343.73 343.58 344.76 345.9 347.81 347.46 349.08 350.56 348.87 351.92 351.93 351.74 354.38 352.37 360.03 352.21 362.69 352.72 365.06 352.35 367.05 353.42 372.76 353.02 375.76 353.39 377.85 355.04 382.52 356.83 385.66 355.97 388.68 357.26 388.66 360.46 389.33 362.3 391.75 364.52 394.38 366.16 396.22 366.55 397.54 365.38 402.33 365.94 403.28 365.04 406.03 365.32 408.27 366.35 409.07 368.55 412.47 371.56 412.83 374.79 411.98 377.73 413.49 380.64 413.71 384.01 415.85 385.55 416.21 390.46 414.68 391.54 416.03 394.79 417.72 395.33 417.68 397.06 419.16 398.78 415.51 402.44 414.51 404.55 409.47 409.3 409.44 411.26 407.79 413.28 409.85 418.59 410.98 419.49 409.16 423.03 408.7 425.55 411.47 429.44 414.32 428.98 417.08 430.94 418 434.57 416.48 438.18 415.44 438.58 412.9 441.68 414.67 445.17 414 446.7 412.47 446.73 411.11 448.14 410.97 451.94 407.65 456.6 408.76 457.17 408.49 459.74 409.66 462.54 409.89 464.61 408.15 468.17 410.53 471.02 409.86 474.15 410.27 475.95 409.26 478.5 406.89 479.46 407.32 480.66 404.53 484.21 403.68 488.85 406.01 489.7 406.15 492.89 404.51 497.95 405.06 500.31 407.37 502.36 407.4 505.51 408 509.37 410.59 510.34 412.25 514.19 415.01 515.72 418.47 515.81 419.94 516.91 420.4 519.92 421.75 523.23 420.84 524.15 420.44 527.97 417.05 532.42 415.76 532.52 414.26 534.45 413.28 538.63 412.28 540.07 412.37 542.52 416.26 546.28 417.96 548.95 420.92 550.29 421.19 548.78 426.48 549.46 426.34 551.19 429.86 551.44 428.66 566.15 431.85 566.42 432.63 567.72 432.45 570.96 430.09 574.49 Z" id="37060370"/>
<path d="M 507.25 78.59 512.74 87.16 514.09 88.57 515.48 91.83 516.67 93.29 518.9 94.39 520.27 97.59 522.69 101.41 522.07 102.38 521.02 107.2 522.91 110.51 523 112.01 521.39 116.82 521.35 122.32 518.72 124.15 516.75 126.3 513.46 134.21 508.1 142.22 506.74 142.93 506.86 145.9 504.26 144.71 500.52 145.53 498.38 144.76 496.33 145.68 495.05 145.19 492 147.87 487.88 147.8 484.32 150.41 483.74 147.65 482.03 145.98 478.26 147.33 475.64 145.04 471.73 147.35 469.59 147.51 467.47 148.78 466.5 151.25 461.26 151.85 457.77 155.44 457.45 157.53 455.88 159.92 452.92 161.46 450.64 160.71 449.15 161.62 446.06 162.31 443.69 161.69 438.26 162.87 437.55 165.44 435.84 168.98 434.05 168.72 431.68 171.01 430.26 173.68 424.63 176.62 419.79 177.77 419.79 180.25 422.59 183.46 423.19 185.97 425.15 188.26 430.38 190.37 431.94 189.32 434.5 191.23 440.71 192.25 444.41 195.66 446.03 195.86 447.47 199.77 454.45 205.88 456.23 208.62 457.78 215.77 456.21 219.15 458.94 223.19 464.09 227.74 468.3 230.82 468.36 234.72 471.72 239.21 473.76 241.25 475.11 243.78 476.78 248.74 479.61 252.35 484.8 257.48 484.64 261.03 482.99 263.39 481.58 266.5 481.82 270.35 478.91 272.29 478.79 274.66 484.25 279.84 486.59 283.22 489 282.93 491.62 285.84 494.76 287.79 496.73 287.51 498.01 288.3 498.18 290.54 499.16 292.59 497.84 294.55 499.15 296.04 498 300.44 497.07 309.04 501.04 313.27 501.86 315.32 498.46 320.05 497.98 323.07 498.57 325.1 495.54 329.33 496.31 332.88 500.78 333.02 500.56 336.64 502.15 340.35 500.3 342.37 500.16 344.34 501.25 347.59 500.7 348.4 495.78 351.24 495.55 352.58 493.62 354.85 497.27 361.95 495.4 363.59 495.47 365.98 494.27 368.23 494.79 369.67 492.56 370.54 489.96 370.25 489.36 374.36 488.27 376.22 488.98 378.77 485.61 383.84 481.62 386.21 483.47 388.64 484.34 392.82 483.16 394.55 483.29 396.06 485.51 396.49 489.71 401.22 492.06 403.37 494.97 403.8 496.46 404.71 495.88 407.45 496.75 408.49 494.27 413.27 491.22 415.51 484.85 417.9 483.41 421.79 480.92 424.36 480.26 426.02 478.18 428.21 476.67 428.22 476.14 431.62 474.77 433.82 471.97 436.76 469.89 437.2 466.18 440.32 466.75 442.27 465.56 445.44 465.77 448.06 464.06 454.27 462.58 457.79 462.69 460.05 459.53 461 457.53 463.16 461.03 465.32 462.25 467.86 463.64 467.22 465.61 464.75 467.55 464.01 470.81 461.41 471.99 461.95 475.38 460.58 478.03 457.47 481.66 454.07 481.73 451.6 484.1 449.81 488.2 450.51 488.89 453.7 490.1 455.58 492.73 451.95 494.2 451.35 499.39 452.23 502.44 450.35 504.98 451.35 505.49 448.37 508.49 447.08 511.11 449.11 513.63 449.34 513.74 447.13 515.76 445.77 518.19 445.94 521.33 444.09 523.65 448.07 523.58 450.6 524.88 451.7 526.42 454.42 529.1 456.08 527.2 457.91 526.15 461.83 527.6 464.23 527.41 466.01 529.53 470.56 531.81 472.06 531.66 474.61 528.67 476.47 524.56 478.38 524.21 480.93 522.69 482.73 518.39 486.13 521.4 488.9 520.66 493.05 519.36 494.44 517.19 495.32 518.12 498.65 519.52 498.88 520.75 501.62 520.4 503.07 521.17 505.46 519.96 508.81 520.91 510.37 519.39 513.52 519.9 516.21 522.48 517.78 523.33 515.76 524.88 516.29 526.95 519.13 532.37 518.81 535.89 518.92 539.27 521.02 536.73 525.36 535.32 525.59 533.55 528.5 535.15 531.35 534.83 534.46 532.69 536.25 532.49 539.27 531.71 540.71 527.28 541.79 526.82 543.9 527.11 546.49 524.75 548.41 524.98 550.13 523.75 553.81 517.38 558.33 515.98 560.46 512.81 563.8 513.27 566.95 511.15 569.22 511.24 572.88 513.17 574.29 516.03 578.62 512.29 580.6 512.05 582.05 509.65 580.79 504.32 580 502.66 581.25 500.45 580.57 497.34 580.6 495.35 581.94 491.83 582.7 491.36 585.15 489.54 587.34 486.49 587.04 484.16 588.94 484.01 591.03 481.47 590.98 479.84 591.69 479.92 593.55 478.34 594.55 479.36 596.27 478.28 598.49 476.37 600.07 474.68 603.19 472.06 605.22 470.4 608.05 468.36 609.55 466.98 608.66 464.15 608.58 463.39 607.44 460.2 607.75 459.49 600.37 458.75 599.24 456.83 600.4 451.47 596.14 448.58 594.73 448.04 595.75 444.91 593.69 442.57 593.07 438.54 590.52 432.96 580.59 431.95 577.74 430.09 574.49 432.45 570.96 432.63 567.72 431.85 566.42 428.66 566.15 429.86 551.44 426.34 551.19 426.48 549.46 421.19 548.78 420.92 550.29 417.96 548.95 416.26 546.28 412.37 542.52 412.28 540.07 413.28 538.63 414.26 534.45 415.76 532.52 417.05 532.42 420.44 527.97 420.84 524.15 421.75 523.23 420.4 519.92 419.94 516.91 418.47 515.81 415.01 515.72 412.25 514.19 410.59 510.34 408 509.37 407.4 505.51 407.37 502.36 405.06 500.31 404.51 497.95 406.15 492.89 406.01 489.7 403.68 488.85 404.53 484.21 407.32 480.66 406.89 479.46 409.26 478.5 410.27 475.95 409.86 474.15 410.53 471.02 408.15 468.17 409.89 464.61 409.66 462.54 408.49 459.74 408.76 457.17 407.65 456.6 410.97 451.94 411.11 448.14 412.47 446.73 414 446.7 414.67 445.17 412.9 441.68 415.44 438.58 416.48 438.18 418 434.57 417.08 430.94 414.32 428.98 411.47 429.44 408.7 425.55 409.16 423.03 410.98 419.49 409.85 418.59 407.79 413.28 409.44 411.26 409.47 409.3 414.51 404.55 415.51 402.44 419.16 398.78 417.68 397.06 417.72 395.33 416.03 394.79 414.68 391.54 416.21 390.46 415.85 385.55 413.71 384.01 413.49 380.64 411.98 377.73 412.83 374.79 412.47 371.56 409.07 368.55 408.27 366.35 406.03 365.32 403.28 365.04 402.33 365.94 397.54 365.38 396.22 366.55 394.38 366.16 391.75 364.52 389.33 362.3 388.66 360.46 388.68 357.26 385.66 355.97 382.52 356.83 377.85 355.04 375.76 353.39 372.76 353.02 367.05 353.42 365.06 352.35 362.69 352.72 360.03 352.21 354.38 352.37 351.93 351.74 348.87 351.92 349.08 350.56 347.81 347.46 344.76 345.9 343.73 343.58 343.23 339.24 341.27 337.38 339.06 336.58 336.73 334.09 331.87 330.97 330.08 328.37 327.59 326.7 325.13 322.43 321.67 321.24 319.92 321.35 317.87 319.06 314.26 317.32 312.21 314.9 308.64 312.13 307.68 312.04 300.95 304.98 297.6 304.5 294.09 303.04 292.94 300.52 287.76 297.54 282.51 297.09 279.68 295.2 278.75 290.52 279.15 288.23 276.38 285.95 273.34 287.25 269.71 286.17 266.71 284.44 264.74 284.37 263.14 282.53 259.85 282.24 258.66 281.13 255.07 281.58 252.08 280.98 248.53 279.04 241.71 278.49 239.05 279.31 233.24 282.09 226.3 278.56 219.43 276.39 217.9 271 217.45 267.78 219.28 262.63 219.19 261.25 221.62 257.97 221.09 248.01 224.66 247.69 226.58 246.15 228.13 245.89 232.44 244.02 235.41 243.71 240.06 240.61 242.52 240.35 246.9 237.63 250.15 237.24 255.86 235.22 257.95 236.41 262.69 236.15 265.45 237.04 267.04 236.35 270.28 236.79 276.07 233.13 278.04 234.58 285.4 231.12 288.62 230.76 291.5 229.24 295.1 223.75 299.05 225.31 299.84 223.49 312.15 214.64 313.84 213.87 317.11 211.3 317.02 209.42 319.17 205.74 318.81 203.78 319.61 200.01 319.39 197.32 317.71 195.07 318.95 193.3 319.71 188.5 323.69 188.21 331.45 183.79 333.28 182.09 336.78 181.5 337.72 177.66 338 174.62 347.64 170.22 349.45 167.39 351.83 166.28 354.72 162.48 357.52 153.85 357.12 149.76 358.41 148.44 358.68 145.59 360.68 141.51 359.89 137.94 356.92 135.22 355.93 135.28 351.24 132.67 350.45 130.12 349.11 129.34 345.71 125.81 345 123.33 344.86 119.87 345.4 115.45 343.66 112.5 341.75 111.39 342.28 108.89 343.57 107.96 344.77 105.5 351.08 98.45 352.7 98.73 356.68 96.01 360.07 95.07 363.44 96.59 366.89 95.67 370.37 96.52 371.8 96.01 371.74 93.01 373.3 90.58 374.42 87.38 378.58 84.75 379.31 81.48 382.26 74.13 385.63 70.73 391.83 73.02 393.35 71.11 395.32 72.43 403.4 72.37 407.74 76.03 411.77 75.47 418.44 76.22 421.2 74.71 421.39 72.06 430.14 68.87 436.55 69.65 438.84 71.07 442.84 70.81 443.65 69.41 443.5 67.17 442.54 66.04 442.39 62.3 445.23 59.03 445.33 57.37 443.27 51.31 444.73 47.07 445.97 44.72 446.4 41.85 449.7 44.19 451.04 43.85 454.72 45.46 457.67 45.19 459.54 45.96 469.4 48.06 479.24 52.76 480.21 56.32 479.42 60.11 482.18 64.18 486.69 63.7 490.24 68.72 495.71 73.75 502.72 77.25 507.25 78.59 Z" id="37060380"/>
<path d="M 694.62 78.81 692.18 80.75 689.96 84.21 688.95 86.72 687.05 94.22 684.3 96.44 680.49 98.82 677.43 102.79 677.31 104.87 675.13 108.45 674.36 111.54 674.89 115.33 673.32 120.02 672.87 125.21 673.91 126.96 672.61 130.44 672.97 134.3 674.06 139.56 673.71 142.56 672.14 143.79 672.81 145.75 680.03 150.17 678.97 155.61 678.76 161.39 675.57 166.8 674.53 166.69 671.06 168.34 671.19 170.81 669.97 173.75 663.78 178.95 662.28 180.58 660.87 184.13 661.01 187.08 656.11 186.31 659.64 198.1 660.93 203.29 659.87 206.49 659.98 209.05 659.26 211.4 657.92 211.87 654.93 216.14 655.45 223.1 656.46 226.84 655.1 231.67 655.31 234.57 653.29 238.56 656.23 240.5 656.23 242.13 652.51 243.14 653.01 244.9 656.83 246.18 656.07 249.6 653.9 251.71 652.61 253.84 652.89 256.8 651.39 259.51 651.59 262.88 651.01 264.42 652.19 266.39 654.66 266.25 655.48 268.84 657.42 268.74 659.54 270.95 658.79 272.87 658.27 276.9 658.84 278.88 658.45 280.68 656.28 282.55 653.87 283.52 652.1 286.01 650.59 286.74 649.89 288.36 646.61 290.05 646.83 293.19 644.36 294.05 643.79 296.68 644.36 298.6 642.87 299.72 643.96 301.88 645.88 303.66 646.12 305.6 643.45 307.36 643.37 309.18 642.09 311.07 643 312.47 642.46 315.95 643.01 318.61 642.21 320.54 642.91 322.91 640.96 325.15 638.86 325.47 639.39 328.38 636.77 329.63 635.14 334.9 631.3 339.31 630.79 340.69 631.7 343.1 628.77 343.45 623.65 342.62 621.27 343.91 620.43 345.74 622.82 348.63 621.27 351.25 619.07 353.58 618.75 354.81 619.77 357.83 616.93 366.04 613.08 367.56 611.94 370.11 611.96 377.57 608.27 379.3 606.64 377.43 603.03 376.46 602.08 375.12 599.77 375.47 598.19 374.67 596.36 375.76 595.11 377.53 593.22 375.52 590.99 375.81 588.66 379.3 589.63 384.7 587.66 386.91 583.18 388.23 583.8 394.65 582.91 395.13 582.62 398.55 581.42 399.7 581.42 404.99 579.9 406.08 579.98 407.72 576.86 409.12 577.36 412.23 576.77 414.02 579.29 416.72 579.45 420.7 581.68 421.21 582.81 422.57 583.26 425.91 585.26 427.73 589.24 429.13 591.41 431.17 592.05 433.04 595.96 435.6 593.95 440.18 592.43 445.51 594.19 449.9 597.25 450.51 597.94 448.06 602 447.8 603.93 446.77 606.19 450.07 604.44 452.59 601.31 454.37 596.39 453.32 593.77 457.28 591.68 459.53 590.29 462.55 589.87 464.84 584.86 468.8 584.11 470.85 582.49 471.11 581.46 474.27 579.7 475.97 578.68 478.47 574.64 480.04 568.62 478.33 568.9 475 568.16 473 564.39 474.43 563.16 475.57 559.07 474.51 554.18 478.75 554.92 481.64 553.35 484.48 554.74 488.77 551.68 492.94 550.06 492.56 549.78 497.96 548.01 500.01 548.88 502.27 548.79 504.39 547.36 506 545.2 506.77 544.92 508.66 541.78 511.15 540.11 515.31 540.79 517.56 539.27 521.02 535.89 518.92 532.37 518.81 526.95 519.13 524.88 516.29 523.33 515.76 522.48 517.78 519.9 516.21 519.39 513.52 520.91 510.37 519.96 508.81 521.17 505.46 520.4 503.07 520.75 501.62 519.52 498.88 518.12 498.65 517.19 495.32 519.36 494.44 520.66 493.05 521.4 488.9 518.39 486.13 522.69 482.73 524.21 480.93 524.56 478.38 528.67 476.47 531.66 474.61 531.81 472.06 529.53 470.56 527.41 466.01 527.6 464.23 526.15 461.83 527.2 457.91 529.1 456.08 526.42 454.42 524.88 451.7 523.58 450.6 523.65 448.07 521.33 444.09 518.19 445.94 515.76 445.77 513.74 447.13 513.63 449.34 511.11 449.11 508.49 447.08 505.49 448.37 504.98 451.35 502.44 450.35 499.39 452.23 494.2 451.35 492.73 451.95 490.1 455.58 488.89 453.7 488.2 450.51 484.1 449.81 481.73 451.6 481.66 454.07 478.03 457.47 475.38 460.58 471.99 461.95 470.81 461.41 467.55 464.01 465.61 464.75 463.64 467.22 462.25 467.86 461.03 465.32 457.53 463.16 459.53 461 462.69 460.05 462.58 457.79 464.06 454.27 465.77 448.06 465.56 445.44 466.75 442.27 466.18 440.32 469.89 437.2 471.97 436.76 474.77 433.82 476.14 431.62 476.67 428.22 478.18 428.21 480.26 426.02 480.92 424.36 483.41 421.79 484.85 417.9 491.22 415.51 494.27 413.27 496.75 408.49 495.88 407.45 496.46 404.71 494.97 403.8 492.06 403.37 489.71 401.22 485.51 396.49 483.29 396.06 483.16 394.55 484.34 392.82 483.47 388.64 481.62 386.21 485.61 383.84 488.98 378.77 488.27 376.22 489.36 374.36 489.96 370.25 492.56 370.54 494.79 369.67 494.27 368.23 495.47 365.98 495.4 363.59 497.27 361.95 493.62 354.85 495.55 352.58 495.78 351.24 500.7 348.4 501.25 347.59 500.16 344.34 500.3 342.37 502.15 340.35 500.56 336.64 500.78 333.02 496.31 332.88 495.54 329.33 498.57 325.1 497.98 323.07 498.46 320.05 501.86 315.32 501.04 313.27 497.07 309.04 498 300.44 499.15 296.04 497.84 294.55 499.16 292.59 498.18 290.54 498.01 288.3 496.73 287.51 494.76 287.79 491.62 285.84 489 282.93 486.59 283.22 484.25 279.84 478.79 274.66 478.91 272.29 481.82 270.35 481.58 266.5 482.99 263.39 484.64 261.03 484.8 257.48 479.61 252.35 476.78 248.74 475.11 243.78 473.76 241.25 471.72 239.21 468.36 234.72 468.3 230.82 464.09 227.74 458.94 223.19 456.21 219.15 457.78 215.77 456.23 208.62 454.45 205.88 447.47 199.77 446.03 195.86 444.41 195.66 440.71 192.25 434.5 191.23 431.94 189.32 430.38 190.37 425.15 188.26 423.19 185.97 422.59 183.46 419.79 180.25 419.79 177.77 424.63 176.62 430.26 173.68 431.68 171.01 434.05 168.72 435.84 168.98 437.55 165.44 438.26 162.87 443.69 161.69 446.06 162.31 449.15 161.62 450.64 160.71 452.92 161.46 455.88 159.92 457.45 157.53 457.77 155.44 461.26 151.85 466.5 151.25 467.47 148.78 469.59 147.51 471.73 147.35 475.64 145.04 478.26 147.33 482.03 145.98 483.74 147.65 484.32 150.41 487.88 147.8 492 147.87 495.05 145.19 496.33 145.68 498.38 144.76 500.52 145.53 504.26 144.71 506.86 145.9 506.74 142.93 508.1 142.22 513.46 134.21 516.75 126.3 518.72 124.15 521.35 122.32 521.39 116.82 523 112.01 522.91 110.51 521.02 107.2 522.07 102.38 522.69 101.41 520.27 97.59 518.9 94.39 516.67 93.29 515.48 91.83 514.09 88.57 512.74 87.16 507.25 78.59 506.91 74.87 508.11 73.72 509.84 62.69 510.87 59.96 514.02 56.35 514.12 54.86 515.8 51.4 515.87 49.27 518.19 47.36 518.84 44.82 515.93 42.04 517.78 39.98 521.65 41.52 522.34 36.93 524.35 36.03 528.14 32.88 530.35 28.05 534.42 22.21 535.17 19.35 538.64 14.89 546.94 9.58 549.12 10.25 552.62 7.26 551.77 4.64 553.06 1.28 556.03 1 559.82 2.06 562.73 4.11 564.44 8.34 566.32 14.16 571.31 16.58 577.41 14.35 578.57 14.79 583.24 14.67 590.73 16.5 595.61 19.07 598.16 18.91 602.15 21.43 605.12 20.2 607.86 19.96 608.84 20.92 611.32 20.49 613 22.59 614.39 22.86 616.02 26.04 617.96 27.7 621.58 29.68 621.83 31.85 623.79 35.66 626.64 36.14 629.4 37.67 631.59 42.87 635.62 40.6 638.77 40.48 644.63 37.67 646.33 39.47 647.67 41.95 650.81 45.72 652.43 48.54 658.28 54.75 658.52 56.21 660.24 58.45 663.82 61.16 664.19 64.36 664.88 64.84 673.15 74.68 678.02 74.68 682.31 74.24 684.65 76.64 687.75 76.7 692.23 78.49 694.62 78.81 Z" id="37060390"/>
<path d="M 608.72 681.93 605.09 687.51 604.29 689.42 601.52 692.71 599.37 693.5 597.72 695.96 597.85 699.01 598.78 700.32 598.19 703.49 596.87 704.52 591.03 707.05 589.8 708.72 586.63 710.29 584.43 709.62 583.18 705.36 579.61 704.61 576.78 705.38 575.59 703.74 573.52 703.2 572.58 705.53 570.45 706.52 570.73 708.5 569.3 709.78 567.88 709.31 562.26 711.7 559.42 711.03 556.56 713.43 551.34 715.04 548.97 714.32 546.27 716.04 545.37 722.67 543.71 723.12 543.39 726.73 541.48 726.23 539.91 727.51 540.55 729.21 539.44 730.68 540.87 732.24 540.8 735.69 541.32 738.11 540.7 739.08 536.69 741.92 534.66 742.37 534.44 740.78 530.22 738.42 528.11 739.26 528.19 736.61 529.08 730.83 528.74 729.13 526.8 729.43 524.9 731.29 524.97 733.78 521.46 735.83 520.75 734.43 517.87 735 517.56 733.68 514.73 732.48 503.6 731.4 505.19 728.75 503.89 727.51 504.2 724.37 502.01 722.66 501.2 717.58 503.83 714.25 498.95 713.69 498.27 712.23 496.4 711.75 494.61 709.85 494.92 708.89 493.1 705.67 494.82 703.07 494.31 701.96 496.42 699.18 494.52 696.48 495.94 694.07 500.33 691.42 500.21 689.02 502.39 686.89 505.11 685.2 503.87 683.19 505.67 682.61 506 680.93 505.49 675.67 506.38 674.44 508.53 674.08 509.09 671.41 507.5 669.54 505 668.09 504.41 665.39 503.34 663.57 501.93 663.7 499.48 662.62 497.14 660.62 494.94 657.42 494.71 655.57 492.93 654.78 490.03 656.67 487.06 659.6 484.98 659.05 483.29 660.74 480.36 657.02 479.44 653.9 476.42 653.85 474.48 654.63 469.91 654.43 466.91 651.24 463.1 649.38 462.68 648.13 464.6 646.97 465.35 644.14 465.22 641.58 467 638.86 466.86 637.51 469.18 636.19 469.69 633.71 471.42 631.87 471.39 628.42 473.01 625.79 473.43 619.15 478.33 616.99 479.16 615.78 476.84 614.88 475.52 610.59 476.59 607.65 476.22 604.96 474.68 603.19 476.37 600.07 478.28 598.49 479.36 596.27 478.34 594.55 479.92 593.55 479.84 591.69 481.47 590.98 484.01 591.03 484.16 588.94 486.49 587.04 489.54 587.34 491.36 585.15 491.83 582.7 495.35 581.94 497.34 580.6 500.45 580.57 502.66 581.25 504.32 580 509.65 580.79 512.05 582.05 512.29 580.6 516.03 578.62 513.17 574.29 511.24 572.88 511.15 569.22 513.27 566.95 512.81 563.8 515.98 560.46 517.38 558.33 523.75 553.81 524.98 550.13 524.75 548.41 527.11 546.49 529.27 547.88 530.07 550.62 529.8 553.16 532.38 553.95 534.36 557.38 537.89 562.43 538.17 566.05 543.76 569.68 543.77 571.87 546.8 571.31 547.68 570.07 549.47 570.17 554.35 566.34 556.9 565.13 562.02 564.37 562.95 566.61 560.33 568.04 559.14 570.97 559.57 572.79 558 576.11 561.03 578.41 560.92 580.27 562.58 582.04 565.74 582.64 566.56 585.83 569.03 588.89 569.34 591.66 571.02 592.14 572.15 599.22 572.84 599.66 571.67 603.66 569.65 604.29 568.73 605.79 569.07 608.16 566.9 609.49 564.97 609.07 562.16 610.25 559.2 608.18 556.17 608.16 554.03 609.95 553.46 613.04 550.74 615.16 550.05 616.48 547.52 617.31 544.53 622.16 544.73 626.45 542.44 627.72 542.8 629.77 541.87 630.67 541.8 633.94 540.44 634.89 540.11 638.99 538.7 640.54 541.57 643.38 541.5 646.09 542.89 648.23 546.48 652.39 549.97 648.4 552.01 647.42 552.58 645.07 553.84 644.21 556.07 646.05 557.3 648.18 560.6 650.16 564.56 649.72 565.31 651.37 567.96 652.02 569.48 653.75 572.65 653.94 575.91 656.05 574.43 658.13 574.64 660.28 582.61 660.88 583.19 662.63 582.64 664.26 583.8 665.84 585.9 670.38 587.05 671.83 587.03 676.13 589.18 676.27 589.88 679.12 589.42 683.61 593.59 685.72 595.99 684.24 597.45 682.09 601.33 678.03 603.53 677.98 606.06 680.5 608.72 681.93 Z" id="37060510"/>
<path d="M 540.8 735.69 543.88 735.05 545.93 736.91 547.87 736.8 555.37 741.24 555.66 742.86 554.85 745.5 556.7 745.22 557.05 747.61 556.4 748.98 556.21 753.34 557.32 755.08 555.46 756.27 553.86 758.89 547.41 763.28 546.14 762.25 541.59 761.6 541.22 758.57 539.08 756.23 539.48 753.43 538.75 751.7 535.34 750.03 535.5 748.52 532.89 747.68 531.13 748.7 528.34 747.47 527.2 749.05 527.85 752.01 525.29 752.27 522.03 750.99 518.54 754.31 515.03 750.74 507.98 751.3 507.27 749.56 504.33 750 503.69 748.97 500.56 752.02 497.45 748.43 500.3 741.41 500.82 735.78 501.92 731.38 503.6 731.4 514.73 732.48 517.56 733.68 517.87 735 520.75 734.43 521.46 735.83 524.97 733.78 524.9 731.29 526.8 729.43 528.74 729.13 529.08 730.83 528.19 736.61 528.11 739.26 530.22 738.42 534.44 740.78 534.66 742.37 536.69 741.92 540.7 739.08 541.32 738.11 540.8 735.69 Z" id="37060530"/>
<path d="M 497.45 748.43 500.56 752.02 499.63 752.55 493.98 753.76 490.34 756.06 488.24 757.87 490.09 761.3 487.9 764.6 484.26 772.23 483.35 773 478.66 772.43 477.43 778.15 474.76 779.4 474.75 778.06 472.53 774.28 474.26 771.2 474.04 769.3 475.5 764.25 473.58 761.57 476.56 759.31 474.35 758.62 474.19 756.97 473.01 753.33 471.37 750.57 469.32 749.23 469.49 747.37 474.37 750.32 473.58 747.45 471.84 746.86 469.32 744.7 468.35 741.09 468.78 738.45 476.43 734.69 476.99 736.03 479.01 735.87 482.38 733.7 497.45 748.43 Z" id="37060580"/>
<path d="M 557.32 755.08 560.21 754.7 562.87 756.43 567.74 754.69 572.13 756.49 573.06 759.46 579.09 760.82 581.41 763.37 582.38 759.2 583.71 755.4 582.71 753.28 584.71 752.8 587.89 756.72 588.59 759.81 589.94 758.41 592.41 759.48 595.36 761.72 600.23 759.87 600.77 757.48 602.62 757.58 604.35 755.14 605.96 755.63 606.18 758.01 610.67 762.41 608.08 764.75 607.96 766.51 608.88 769.39 610.4 769.41 612.68 770.77 614.22 773.83 614.64 776.9 612.41 780.2 607.91 781.7 608.44 783.9 607.13 785.82 609.81 787.73 610.67 790.24 607.87 794.32 606.12 794.34 605.04 800.06 601.88 801.85 599.25 801.8 598 803.09 598.47 805.58 596.52 806.57 593.09 805.25 590.66 805.76 589.14 804.67 583.82 806.17 581.86 804.78 581.52 802.85 579.99 800.42 578.07 800.52 578.45 797.47 576.4 794.71 576.62 791.42 575.56 790.4 572.64 790.48 571.38 789.23 566.97 788.74 565.88 784.29 563.84 783.41 561.87 785.21 560.73 784.12 558.4 784.28 556.45 783.57 553.64 785.16 552.75 784.49 550.9 786.53 547.02 786.97 543.82 789.5 541.39 789.87 540.4 790.79 536.52 790 535.03 791.27 534.91 794.47 533.5 795.86 531.84 795.68 531.41 797.39 531.79 800.3 526.61 804.85 527.1 807.97 526.57 811.05 525.06 812.35 523.9 811.27 521.14 811.45 519.13 814.1 518.32 814.06 516.81 810.67 517.69 808.17 515.52 806.19 516.12 803.76 518 801.71 519.99 800.62 521.22 798.5 519.47 795.88 516.91 796.18 515.2 794.04 515.76 792.81 514.98 790.17 514.93 787.09 514.25 785.87 516.44 782.1 515.2 778.75 515.56 774.78 516.99 772.07 513.41 771.75 511.38 772.66 509.92 777.13 505.86 776.36 505.74 775.33 505.85 758.89 504.7 756.13 501.72 753.17 504.33 750 507.27 749.56 507.98 751.3 515.03 750.74 518.54 754.31 522.03 750.99 525.29 752.27 527.85 752.01 527.2 749.05 528.34 747.47 531.13 748.7 532.89 747.68 535.5 748.52 535.34 750.03 538.75 751.7 539.48 753.43 539.08 756.23 541.22 758.57 541.59 761.6 546.14 762.25 547.41 763.28 553.86 758.89 555.46 756.27 557.32 755.08 Z" id="37060590"/>
<path d="M 489.77 830.81 484.64 821.8 481.19 817.99 473.19 811.59 469.76 809.77 463.66 807.89 462.77 804.65 465.23 797.86 463.69 796.54 467.14 793.44 471.14 787.6 473.41 786.12 475.7 781.67 474.76 779.4 477.43 778.15 478.66 772.43 483.35 773 484.26 772.23 487.9 764.6 490.09 761.3 488.24 757.87 490.34 756.06 489.69 757.3 494.83 768.19 498.18 772.2 501.34 773.84 502.72 779.59 503.29 785.91 502.39 788.2 506.26 796.19 505.97 798.11 503.91 799.4 505.41 801.67 503.79 804.46 501.37 803.67 500.52 802 498.25 801.27 495.69 802.29 495.71 803.85 494.38 805.1 495.44 808.55 497.53 809.43 498.55 813.49 498.29 817.38 496.98 818.75 493.72 818.82 491.92 820.53 490.17 824.85 489.77 830.81 Z" id="37060600"/>
<path d="M 504.33 750 501.72 753.17 504.7 756.13 505.85 758.89 505.74 775.33 505.86 776.36 509.92 777.13 511.38 772.66 513.41 771.75 516.99 772.07 515.56 774.78 515.2 778.75 516.44 782.1 514.25 785.87 514.93 787.09 514.98 790.17 515.76 792.81 515.2 794.04 516.91 796.18 519.47 795.88 521.22 798.5 519.99 800.62 518 801.71 516.12 803.76 515.52 806.19 517.69 808.17 516.81 810.67 518.32 814.06 519.13 814.1 521.14 811.45 523.9 811.27 525.06 812.35 526.57 811.05 527.1 807.97 526.61 804.85 531.79 800.3 531.41 797.39 531.84 795.68 533.5 795.86 534.91 794.47 535.03 791.27 536.52 790 540.4 790.79 541.39 789.87 543.82 789.5 547.02 786.97 550.9 786.53 552.75 784.49 553.64 785.16 556.45 783.57 558.4 784.28 560.73 784.12 561.87 785.21 563.84 783.41 565.88 784.29 566.97 788.74 571.38 789.23 572.64 790.48 575.56 790.4 576.62 791.42 576.4 794.71 578.45 797.47 578.07 800.52 579.99 800.42 581.52 802.85 581.86 804.78 583.82 806.17 589.14 804.67 590.66 805.76 593.09 805.25 596.52 806.57 598.47 805.58 600.02 804.89 606.61 807.46 608.21 809.35 607.89 811.22 604.72 812.7 603.32 816.53 604.76 819.91 604.42 822.72 605.11 823.67 604.08 825.82 600.56 827.07 599.5 829.06 599.68 830.93 597.48 832.73 595.94 833.11 595.46 834.73 593.55 835.26 591.99 837 589.38 836.19 587.08 837 585.62 836.28 583.62 836.8 581.46 839.74 580.31 839.39 577.86 841.25 577.09 843.38 573.28 840.07 571.65 841.85 568.12 843.57 565.53 843.16 565.47 841.5 563.71 840.41 559.15 838.6 557.48 841.31 558.43 842.47 558.3 846.55 556.35 847.44 552.66 846.82 549 847.58 546.32 846.43 545.7 845.34 542.77 845.38 542.14 844.61 536.08 844.57 535.3 843.63 530.86 841.28 528.2 835.64 526.77 834 524.65 833.34 523.58 831.78 521.9 831.4 520.5 832.49 519.2 835.63 518.12 834.14 515.81 829.19 514.46 829.46 514.09 832.24 503.78 832.5 507.21 834.09 512.74 837.3 516.83 842.18 521.21 849 521.8 856.94 521.47 859.53 518.22 867.35 513.67 871.7 509.89 873.96 504.31 874.86 495.02 876.88 492.57 878.23 488.4 882.31 488.67 890.36 491.36 893.97 494.68 900.15 495.34 903.08 494.5 909.82 490.57 909.07 488.48 910.52 483.83 908.72 483.34 906.77 484.27 904.52 484.09 902.47 482.18 901.32 483.14 897.49 482.93 893.81 480.98 890.61 479.92 890.75 475.88 889.41 474.63 886.53 476.23 884.1 477.61 883.71 478.99 881.75 475.49 878.69 471.63 877.65 469.49 874.83 468.62 870.78 467.24 869.07 464.9 868.09 463 866 461.7 863.43 463.58 856.35 467.42 855.77 468.72 854.28 471.33 854.16 474.05 851.12 474.1 849.09 476 846.07 477.97 844.03 479.76 839.66 481.69 838.21 484.71 841.17 488.35 840.35 490.53 839.26 493.42 836.93 493.57 834.38 495.99 834.02 497.05 832.31 493.48 832.23 489.77 830.81 490.17 824.85 491.92 820.53 493.72 818.82 496.98 818.75 498.29 817.38 498.55 813.49 497.53 809.43 495.44 808.55 494.38 805.1 495.71 803.85 495.69 802.29 498.25 801.27 500.52 802 501.37 803.67 503.79 804.46 505.41 801.67 503.91 799.4 505.97 798.11 506.26 796.19 502.39 788.2 503.29 785.91 502.72 779.59 501.34 773.84 498.18 772.2 494.83 768.19 489.69 757.3 490.34 756.06 493.98 753.76 499.63 752.55 500.56 752.02 503.69 748.97 504.33 750 Z" id="37060610"/>
<path d="M 474.19 756.97 474.35 758.62 476.56 759.31 473.58 761.57 475.5 764.25 474.04 769.3 474.26 771.2 472.53 774.28 474.75 778.06 474.76 779.4 475.7 781.67 473.41 786.12 471.14 787.6 467.14 793.44 463.69 796.54 465.23 797.86 462.77 804.65 463.66 807.89 469.76 809.77 473.19 811.59 481.19 817.99 484.64 821.8 489.77 830.81 493.48 832.23 497.05 832.31 495.99 834.02 493.57 834.38 493.42 836.93 490.53 839.26 488.35 840.35 484.71 841.17 481.69 838.21 479.76 839.66 477.97 844.03 476 846.07 474.1 849.09 474.05 851.12 471.33 854.16 468.72 854.28 467.42 855.77 463.58 856.35 461.7 863.43 460.33 863.61 459.25 865.38 457.26 862.91 456.88 861.29 454.39 860.36 451.1 857.98 449.1 855.88 448.28 852.46 446.83 850.71 445.77 846.56 446.04 843.84 441.54 842.7 438.54 844.06 435.47 844.37 433.33 847.13 431.21 846.97 428.74 848.07 427.35 849.84 425.62 849.16 424.01 850.16 420.87 850.5 418.26 846.72 416.23 846.34 415.56 847.43 411.92 848.5 410.14 848.16 411.59 845.45 411.79 842.83 414.3 839.42 414.39 837.42 413.37 835.8 415.22 834.56 418.92 833.12 420.73 831.52 420.28 830.27 421.28 826.99 423.52 825.72 424.81 823.56 424.64 822.25 426.98 821.08 428.59 819.2 428.13 817.22 428.67 814.11 429.79 811.36 429.62 807.67 431.29 804.36 428.95 802.45 428.04 802.63 425.69 800.83 423.8 800.57 423.54 799.05 424.56 797.05 425.02 793.47 427.04 791.84 424.56 790.21 424.92 787.89 423.62 785.98 419.42 784.8 418.71 782.57 419.43 781.05 417.69 779.91 417.53 774.49 419.32 773.18 420.46 769.71 423.75 769.54 427.64 768.5 428.01 764.76 430.75 760.86 432.29 760.96 436.87 759.81 448.73 759.5 458.65 760.43 460.39 759.24 464.62 758.09 465.79 756.99 467.97 758.09 472.15 758.65 474.19 756.97 Z" id="37060620"/>
<path d="M 474.68 603.19 476.22 604.96 476.59 607.65 475.52 610.59 476.84 614.88 479.16 615.78 478.33 616.99 473.43 619.15 473.01 625.79 471.39 628.42 471.42 631.87 469.69 633.71 469.18 636.19 466.86 637.51 467 638.86 465.22 641.58 465.35 644.14 464.6 646.97 462.68 648.13 463.1 649.38 466.91 651.24 469.91 654.43 474.48 654.63 476.42 653.85 479.44 653.9 480.36 657.02 483.29 660.74 484.98 659.05 487.06 659.6 490.03 656.67 492.93 654.78 494.71 655.57 494.94 657.42 497.14 660.62 499.48 662.62 501.93 663.7 503.34 663.57 504.41 665.39 505 668.09 507.5 669.54 509.09 671.41 508.53 674.08 506.38 674.44 505.49 675.67 506 680.93 505.67 682.61 503.87 683.19 505.11 685.2 502.39 686.89 500.21 689.02 500.33 691.42 495.94 694.07 494.52 696.48 496.42 699.18 494.31 701.96 494.82 703.07 493.1 705.67 489.2 707.47 489.35 710.01 487.56 712.53 485.75 713.89 483.79 718.1 481.57 719.7 476.9 720.04 473.85 721.44 471.31 721.51 471.09 726.79 469.93 729.94 468.78 738.45 468.35 741.09 469.32 744.7 471.84 746.86 473.58 747.45 474.37 750.32 469.49 747.37 469.32 749.23 471.37 750.57 473.01 753.33 474.19 756.97 472.15 758.65 467.97 758.09 465.79 756.99 464.62 758.09 460.39 759.24 458.65 760.43 448.73 759.5 436.87 759.81 432.29 760.96 430.75 760.86 428.01 764.76 427.64 768.5 423.75 769.54 420.46 769.71 417.3 768.01 415.55 765.47 415.33 763.98 412.13 761.45 407.27 760.12 406.98 758.77 405.17 756.85 404.25 753.12 402.2 750.68 402.49 747.34 400.47 746.82 398.79 745.41 396.61 746.58 394.25 742.86 395.56 741.08 393.85 739.09 394.32 737.39 392.41 736.86 390.63 733.8 391.29 729.91 388.82 729.09 387.57 726.39 384.95 728.19 382.16 733.65 379.22 734.01 378.37 731.66 373.69 730.78 371.98 732.59 368.54 732.36 368.57 737.01 366.38 737.34 365.02 738.99 361.41 736.58 359.23 737.42 357.02 735.93 353.68 736.18 349.63 733.48 349.78 732.24 347.87 731.32 348.68 729.52 350.77 728.88 351.8 727.48 351.67 724.96 352.86 723.25 352.73 719.78 353.91 717.21 357.25 715.51 358.35 710.7 357.86 709.39 359.9 706.72 358.29 703.97 360.33 702.8 361.61 703.21 363.81 702.43 367.51 702.78 367.73 699.48 366.68 697.87 366.8 694.84 369.95 695.97 373.67 695.78 377.05 694.77 378.06 696.78 381.3 698.79 382.99 699.04 386.69 697.99 390.16 698.31 390.32 701.08 391.57 703.31 393.78 703.21 397.33 698.94 395.57 697.58 387.79 693.84 386.62 691.22 388.37 690.94 394.55 693.12 395.95 687.89 396.86 685.75 397.01 681.27 398.57 679.18 400.83 679.18 402.33 680.73 407.49 682.26 407.78 679.69 408.66 678.88 409.28 675.95 408.72 673.92 409.59 672.37 409.41 669.56 411.42 667.42 410.86 664.56 405.75 664.55 404.48 662.85 406.67 656.93 409.06 653.94 412.33 652.44 413.57 651.03 410.04 648.3 409.36 645.22 411.38 639.93 413.79 636.64 415.88 637.76 416.61 631.26 416.01 624.96 414.02 623 412.83 620.53 414.83 619.33 416.38 620.63 419.46 620.95 423.95 623.06 425.53 626.3 429.03 626.8 431.62 627.92 435.07 627.55 435.56 623.08 436.74 620.69 435.41 615.13 436.84 612.69 435.15 611.08 434.62 608.38 437.01 607.64 439.31 609.33 440.29 608.42 442.94 608.86 444.15 610.1 447.02 611.28 447.92 609.83 449.9 610.66 453.86 608.24 456.41 608.25 458.98 607.05 457.16 603.39 456.83 600.4 458.75 599.24 459.49 600.37 460.2 607.75 463.39 607.44 464.15 608.58 466.98 608.66 468.36 609.55 470.4 608.05 472.06 605.22 474.68 603.19 Z" id="37060630"/>
</g>
</svg>