<?xml version="1.0"?>
<svg xmlns="http://www.w3.org/2000/svg" version="1.2" baseProfile="tiny" width="800" height="764" viewBox="0 0 800 764" stroke-linecap="round" stroke-linejoin="round">
<g id="dong">
<path d="M 211.03 352.83 212.92 354.77 216.21 357.57 218.25 357.27 218.15 354.87 216.06 351.82 215.06 351.48 214.77 348.22 221.47 350.71 224.84 350.64 228.78 350.04 231.17 350.03 233.19 349.59 237.75 350.42 239.85 351.29 241.56 353 243.81 353.36 243 355.67 243.63 357.14 245.78 359.08 246.95 363.5 249.26 363.02 250.24 364.35 252.7 364.36 254.5 365.22 258.03 364.07 258.98 365.52 256.92 365.9 256 366.93 254.67 370.03 252.84 371.95 248.07 375.01 248.4 375.96 253.21 375.35 256.46 374.34 259.98 377.92 263.2 377 264.16 376.13 265.81 376 268.14 376.93 268.69 378.13 270.53 378.89 271.64 380.61 273.02 380.94 273.83 382.6 275.66 383.98 276.86 385.65 278.32 389.08 280.22 391.1 281.84 393.81 284.77 395.31 287.29 397.17 287.85 396.63 290.35 397.07 290.89 398.21 290.79 400.26 292.56 402.59 296.05 402.2 296.48 401.84 298.18 404.08 299.58 403.67 300.13 402.8 302.05 404.41 304.21 408.13 307.27 409.76 308.49 410.8 309.97 409.25 311.27 409.29 311.75 408.4 310.82 407.32 311.1 405.9 310.63 404.04 310.88 401.83 310.19 401.46 311.49 398.37 313.1 395.74 314.11 397.31 317.68 399.67 318.39 400.45 320.82 398.79 321.56 395.87 321.04 394.18 323.03 395.14 324.44 396.48 327.94 399.01 331.01 399.25 334.98 400.3 336.49 398.41 334.72 397.57 335.63 394.92 332.79 392.94 333.15 391.18 332.77 390.15 333.69 388.24 335.92 389.01 336.92 387.12 338.72 385.29 341.78 385.6 343.38 386.98 342.76 388.3 344.07 389.58 345.17 389.92 349.57 388.84 350.58 392.1 350.6 395.12 351.19 398.71 351.28 401.41 353.65 403.99 355.77 405.6 357.73 408.09 359.47 406.35 360.01 404.37 361.29 401.9 362.84 401.82 365.6 400.45 368 397.76 368.99 396.08 370.11 396.12 372.76 397.27 375.48 401.85 376.29 402.55 376.32 404.14 378.31 405.37 378.18 406.8 378.79 408.39 377.24 409.86 376.46 411.39 374.26 412.28 372.22 412.19 372.53 415.49 365.99 417.08 363.46 417.95 362.03 419.13 361.85 421.51 360.75 423.21 358.52 424.15 357.47 425.73 356.55 430.03 354.65 429.34 352.55 432.5 351.49 434.5 350.41 434.45 348.85 433.11 346.81 433.94 345.78 432.03 343.07 431.61 339.62 432.44 337.6 430.89 336.18 428.65 333.84 428.71 333.62 429.36 331.03 431.34 329.68 430.54 326.4 429.42 324.43 431.39 323.38 431.99 321.25 431.51 319.95 432.36 319.78 433.92 319.91 438.62 319.17 440.98 319.73 442.15 319.93 444.78 319.26 445.98 319.56 447.84 319.05 449.29 318 449.83 316.65 451.74 315.23 452.22 313.22 451.61 311.75 452.46 310.35 451.26 309.8 451.67 309.39 453.94 309.88 456.38 310.96 457.65 310.91 458.94 310.1 462.23 310.29 465.9 311.04 467.09 312.99 468.95 314.65 469.82 316.71 469.83 320.47 470.74 321.34 471.21 321.81 472.48 323.42 474.83 321.84 478.71 322.01 483.21 321.9 485.34 320.42 486.86 318.89 490.28 315.5 493.53 313.87 493.34 313.03 492.51 311.03 491.74 309.7 493.38 308.48 493.81 307.61 496.32 304.99 496.73 303.74 498.18 302.87 498.03 301.97 499.9 302.69 502.86 301.81 507.15 300.45 508.2 301.75 510.32 302.76 514.52 305.06 515.56 305.29 516.25 304.63 521.1 302.71 521.11 301.39 521.8 302.29 523.67 303.53 531.44 302.14 533.37 302.9 534.5 300.73 535.77 297.49 535.04 296.79 533.95 294.68 532.21 293.92 527.85 294.82 525.42 293.82 523.98 295.01 523.1 294.22 521.62 295.19 519.81 294.17 516.51 294.82 515.2 291.46 509.77 290.9 507.59 291.81 506.51 292.26 503.39 293.14 501.14 289.95 496.9 287.26 496.47 285.56 497.43 285.09 498.45 283.67 497.66 283.42 494.82 282.7 492.8 281.15 490.94 280.32 488.16 279.44 487.16 277.38 486.28 274.58 483.23 272.1 482.41 271.52 481.67 268.76 480.49 268.32 479.8 266.64 479.58 263.11 481.67 261.61 481.83 260.03 481.33 257.29 479.59 257.21 475.83 256.35 474.35 253.73 471.22 252.81 470.47 251.45 470.35 249.94 471.09 248.47 470.97 247.01 472.32 244.82 473.21 243.53 475.16 237.03 478.41 236.63 478.75 233.66 478.67 232.04 478.29 230.17 476.97 228.33 476.21 226.54 477.62 222.89 476.81 220.17 476.87 217.57 476.49 214.5 475.7 213.65 476.57 211.42 476.13 210.31 475.4 209.28 472.33 208.03 471.21 209.66 466.33 208.35 464 208.73 461.86 208.71 458.99 205.55 458.06 203.71 458.25 203.15 456.7 201.47 455.44 199.41 455.13 197.49 453.35 196.31 451.81 193.95 450.97 193.66 449.87 190.16 448.34 187.33 446.11 187.19 444.4 185.57 442.63 182.76 441.49 180.12 441.76 178.1 440.48 177.89 438.83 176.97 437.53 175.64 437 172.37 438.83 171 438.38 171.63 436.42 167.84 434.06 165.21 430.48 165.13 428.67 164.17 428.09 160.59 428.72 159.22 429.47 157.77 432.71 157.37 434.62 154.44 435.12 151.62 433.93 147.38 434.09 145.01 435.37 141.9 436.43 140.08 438.73 137.21 439.74 135.33 439.32 134.85 439.82 132.79 439.4 129.47 438.08 126.76 437.47 124.92 436.18 125.03 434.17 123.05 433.28 120.54 431.68 118.55 429.64 114.98 428.07 111.03 424.69 104.75 423.58 97.41 424.22 93.62 423.08 90.91 421.76 87.57 419.07 84.82 418.56 82.13 417.32 75.58 417.75 72.88 419.2 70.93 417.41 71.95 415.9 71.24 414.17 70.04 413.16 69.09 411.03 67.76 409.71 65.17 408.77 62.87 408.93 61.33 408.04 62.04 407.24 61.56 405.36 61.92 402.94 60.48 399.72 58.81 397.59 56.81 396.09 55 395.92 51.31 391.48 49.53 391.21 49.21 389.43 49.8 386.81 52.18 386.79 56.13 384.66 57.91 384.97 59.99 384.12 60.08 381.87 61.95 379.93 62.27 377.66 63.43 378.03 66.49 377.95 66.55 375.26 68.8 374.08 70.54 371.98 74.08 370.78 77.42 370.79 81.14 369.07 85.36 367.63 89.24 365.6 90.43 363.69 93.57 360.9 94.1 359.31 95.45 357.51 97.14 358.03 98.08 355.36 101 352.12 107.11 348.17 108.63 347.49 111.32 345.25 113.62 346.39 118.42 347.46 123.44 351.68 125.91 351.04 128.34 351.12 133.59 354.32 135.32 356.18 136.42 356.49 138.83 355.47 139.31 353 139.17 348.74 139.65 344.61 140.85 342.44 144.61 344.32 146.22 345.67 147.96 345.96 149.7 345.1 150.82 346.61 150.64 347.78 151.71 348.41 154.15 346.97 156.07 346.57 156.51 345.45 157.74 344.83 161.06 346.11 162.45 345.67 163.99 346.26 164.42 347.53 166.7 348.25 167.15 350.71 168.83 348.83 170.72 349.36 173.49 350.92 175.27 351.11 182.05 357.33 184.81 357.5 186.16 357.15 189.48 355.48 192.36 355.68 194.5 356.81 196.37 357.25 200.76 356.87 202.62 355.88 204.13 352.92 205.8 351.63 206.98 351.37 211.03 352.83 Z" id="37070310"/>
<path d="M 211.84 203.06 213.33 205.02 215.56 206.13 217.15 207.74 218.14 210.56 220.48 215.02 220.63 216.18 220.36 219.79 220.69 222.83 219.64 226.31 219.54 229.72 219.79 232.27 218.88 233.73 220.52 240.08 222.78 242.66 222.35 245.41 222.66 248.78 224.19 252.62 224.97 253.62 226.17 256.57 225.95 257.39 224.05 259.1 222.36 262.54 222.57 269.43 222.11 270.75 222.19 272.67 221.39 274.79 220.47 275.01 220.53 277.46 217.85 277.6 216.51 278.59 216.21 281.37 214.75 281.9 214.43 283.41 215.18 285.98 214.24 287.89 214.64 289.24 214.41 291.93 214.77 294.19 213.31 299.36 212.07 298.08 210.6 297.87 208.93 299.34 207.52 299.3 206.57 300.23 203.93 301.21 205.82 301.83 206.83 302.75 207.3 304.76 209.08 304.62 209.63 307.39 208.58 309.26 207.18 309.83 206.22 310.96 204.61 311.47 201.97 312.85 202.61 314.16 201.03 323.24 201.39 325.53 200.69 331.78 199.78 333.55 199.63 336.95 200.1 338.84 202.48 341.2 204.55 344.12 205.93 344.22 207.87 345.96 207.98 347.7 209.55 349.56 210.86 350.43 211.03 352.83 206.98 351.37 205.8 351.63 204.13 352.92 202.62 355.88 200.76 356.87 196.37 357.25 194.5 356.81 192.36 355.68 189.48 355.48 186.16 357.15 184.81 357.5 182.05 357.33 175.27 351.11 173.49 350.92 170.72 349.36 168.83 348.83 167.15 350.71 166.7 348.25 164.42 347.53 163.99 346.26 162.45 345.67 161.06 346.11 157.74 344.83 156.51 345.45 156.07 346.57 154.15 346.97 151.71 348.41 150.64 347.78 150.82 346.61 149.7 345.1 147.96 345.96 146.22 345.67 144.61 344.32 140.85 342.44 139.65 344.61 139.17 348.74 139.31 353 138.83 355.47 136.42 356.49 135.32 356.18 133.59 354.32 128.34 351.12 125.91 351.04 123.44 351.68 118.42 347.46 113.62 346.39 111.32 345.25 108.63 347.49 107.11 348.17 101 352.12 98.08 355.36 97.14 358.03 95.45 357.51 94.1 359.31 93.57 360.9 90.43 363.69 89.24 365.6 85.36 367.63 81.14 369.07 77.42 370.79 74.08 370.78 70.54 371.98 68.8 374.08 66.55 375.26 66.49 377.95 63.43 378.03 62.27 377.66 61.95 379.93 60.08 381.87 59.99 384.12 57.91 384.97 56.13 384.66 52.18 386.79 49.8 386.81 49.21 389.43 49.53 391.21 48.17 389.59 44.05 388.26 42.85 387.33 40.79 387.19 39.39 386.59 37.61 387.31 35.5 387.02 32.29 385.29 25.56 384.29 22.79 384.19 19.26 383.55 13.91 381.97 11.32 379.74 5.81 377.12 5.72 374.07 3.59 370.72 1 366.35 3.09 364.81 6.66 358.62 7.46 355.2 9.13 352.66 9.82 350 9.4 349.04 10.54 347.1 10.17 346.63 10.54 343.71 10.06 341.62 9.23 340.52 9.06 339.05 8.2 336.78 6.88 334.91 5.89 331.27 4.44 329.95 5.05 327.47 6.03 325.93 7.54 324.48 7.83 323.59 9.78 322.37 12.3 319.74 13.55 317.04 14.82 315.69 16.24 311.9 17.41 309.69 17.35 307.52 18.25 303.15 18.45 300.61 17.8 297.81 16.54 294.23 15.67 290.66 16.58 288.32 15.65 287.85 16.03 286.31 14.84 285.83 15.31 283.86 16.87 282.06 16.25 280.42 17.81 277.57 20.22 276.47 20.99 275.18 22.71 274.01 24.05 269.64 25 268.76 24.86 267.65 27.16 266.04 26.59 263.26 27.32 262.5 29.06 262.22 30.18 261.37 29.39 259.08 30.65 255.43 30.61 252.54 32.31 250.44 31.56 248.05 32.34 245.81 33.3 244.58 33.6 242.51 37.53 243.06 40.26 244.51 42.07 243.62 43.45 245.45 45.86 246 46.63 247.34 49.06 246.96 50.73 245.96 52.5 244.27 52.06 241.65 53.71 241.37 56.03 238.69 55.6 235.23 57.03 234.16 59.29 230.87 60.22 230.23 59.59 227.25 60.01 226.42 58.68 223.49 57.76 223.11 57.96 220.74 56.69 217.72 53.39 217.2 53.36 215.74 50.32 213.64 50.6 211.82 48.53 210.52 49.92 208.81 51.07 206.59 52.2 206.21 53.73 204.54 55.12 203.85 56.56 204.78 58.5 204.78 59.29 205.31 61.91 204.34 67.09 201.49 68.12 199.82 69.98 198.59 71.36 195.5 70.02 193.03 70.71 190.93 71.66 190.33 74.98 190.88 76.93 189.73 78.47 189.73 81.3 187.15 82.44 185.33 84.51 184.52 85.17 183.75 84.48 181.62 85.51 179.92 85.73 178.32 85.32 177.08 86.07 176.34 86.72 171.83 86.69 168.87 87.71 169.34 89.76 171.49 90.08 174.02 92.36 174.84 93.16 176.28 94.54 177.42 96.18 180.24 98.27 182.02 98.51 184.55 97.73 187.64 98 190.4 100.14 190.69 100.5 192.16 99.45 194.31 100.48 197.53 98.95 201.23 96.28 205.69 97.43 206.25 99.08 206.23 100.59 206.77 102.29 208.36 104.56 204.23 108.54 201.26 108.88 197.71 110.64 195.16 112.18 193.56 115.8 191.15 120.86 186.76 124.95 187.7 125.75 189.12 125.63 191.8 127.38 190.91 129.51 194.09 129.59 194.66 132.3 195.11 137.76 196.81 139.22 198.07 141.96 197.11 148.38 202.24 150.46 204.82 152.66 205.18 154.58 206.39 157.46 207.41 159.33 209.11 161.2 209.84 161.69 210.8 163.3 217.22 164.19 217.66 166.82 216.07 168.64 215.77 169.94 216.04 175.05 215.04 176.65 215.25 179.47 216.75 180.91 218.68 187.1 217.16 188.44 215.95 191.24 212.54 196.76 212.03 198.57 211.13 201.92 210.28 203.08 209.64 203.41 207.81 204.82 206.77 207.03 204.31 211.84 203.06 Z" id="37070320"/>
<path d="M 368.52 325.87 369.12 331.45 369.53 332.56 371.23 333.71 369.7 336.91 370.3 338.66 370.07 340.67 371.77 343.11 372.76 343.83 372.38 345.53 372.36 349.36 373.26 351.93 378.31 357.55 378.16 358.34 375.74 359.32 374.7 361.84 375.4 362.41 379.53 364.27 379.35 366.11 379.98 367.08 379.95 370.19 379.22 370.84 379.69 372.76 379.75 376.32 378.87 377.82 378.73 380.15 377.88 381.95 378.31 382.6 377.55 384.38 377.39 386.63 377.84 387.97 375.18 391.53 373.69 396.42 372.76 397.27 370.11 396.12 368.99 396.08 368 397.76 365.6 400.45 362.84 401.82 361.29 401.9 360.01 404.37 359.47 406.35 357.73 408.09 355.77 405.6 353.65 403.99 351.28 401.41 351.19 398.71 350.6 395.12 350.58 392.1 349.57 388.84 345.17 389.92 344.07 389.58 342.76 388.3 343.38 386.98 341.78 385.6 338.72 385.29 336.92 387.12 335.92 389.01 333.69 388.24 332.77 390.15 333.15 391.18 332.79 392.94 335.63 394.92 334.72 397.57 336.49 398.41 334.98 400.3 331.01 399.25 327.94 399.01 324.44 396.48 323.03 395.14 321.04 394.18 321.56 395.87 320.82 398.79 318.39 400.45 317.68 399.67 314.11 397.31 313.1 395.74 311.49 398.37 310.19 401.46 310.88 401.83 310.63 404.04 311.1 405.9 310.82 407.32 311.75 408.4 311.27 409.29 309.97 409.25 308.49 410.8 307.27 409.76 304.21 408.13 302.05 404.41 300.13 402.8 299.58 403.67 298.18 404.08 296.48 401.84 296.05 402.2 292.56 402.59 290.79 400.26 290.89 398.21 290.35 397.07 287.85 396.63 287.29 397.17 284.77 395.31 281.84 393.81 280.22 391.1 278.32 389.08 276.86 385.65 275.66 383.98 273.83 382.6 273.02 380.94 271.64 380.61 270.53 378.89 268.69 378.13 268.14 376.93 265.81 376 264.16 376.13 263.2 377 259.98 377.92 256.46 374.34 253.21 375.35 248.4 375.96 248.07 375.01 252.84 371.95 254.67 370.03 256 366.93 256.92 365.9 258.98 365.52 258.03 364.07 254.5 365.22 252.7 364.36 250.24 364.35 249.26 363.02 246.95 363.5 245.78 359.08 243.63 357.14 243 355.67 243.81 353.36 241.56 353 239.85 351.29 237.75 350.42 233.19 349.59 231.17 350.03 228.78 350.04 224.84 350.64 221.47 350.71 214.77 348.22 215.06 351.48 216.06 351.82 218.15 354.87 218.25 357.27 216.21 357.57 212.92 354.77 211.03 352.83 210.86 350.43 209.55 349.56 207.98 347.7 207.87 345.96 205.93 344.22 204.55 344.12 202.48 341.2 200.1 338.84 199.63 336.95 199.78 333.55 200.69 331.78 201.39 325.53 201.03 323.24 202.61 314.16 201.97 312.85 204.61 311.47 206.22 310.96 207.18 309.83 208.58 309.26 209.63 307.39 209.08 304.62 207.3 304.76 206.83 302.75 205.82 301.83 203.93 301.21 206.57 300.23 207.52 299.3 208.93 299.34 210.6 297.87 212.07 298.08 213.31 299.36 214.77 294.19 214.41 291.93 214.64 289.24 214.24 287.89 215.18 285.98 214.43 283.41 214.75 281.9 216.21 281.37 216.51 278.59 217.85 277.6 220.53 277.46 220.47 275.01 221.39 274.79 222.19 272.67 222.11 270.75 222.57 269.43 222.36 262.54 224.05 259.1 225.95 257.39 226.17 256.57 224.97 253.62 224.19 252.62 222.66 248.78 222.35 245.41 222.78 242.66 220.52 240.08 218.88 233.73 219.79 232.27 219.54 229.72 219.64 226.31 220.69 222.83 220.36 219.79 220.63 216.18 220.48 215.02 218.14 210.56 217.15 207.74 215.56 206.13 213.33 205.02 211.84 203.06 212.92 200.9 214.32 199.65 216.03 199.06 216.11 198.15 214.77 194.11 214.92 193.09 216.63 190.05 218.03 189.37 221.8 185.3 224.16 185.54 225.5 184.34 227.28 184.26 228.28 183.7 230.94 183.1 233.57 180.99 235.83 180 238.14 180.65 239.81 181.69 240.13 183.48 241.8 183.66 243.17 184.67 245.59 185.52 246.52 186.49 249.11 187.55 254.26 188.08 255.02 188.35 255.63 194.56 257.07 196.55 257.64 198.27 256.16 203.08 256.45 205.13 257.71 208.24 259.74 211.3 260.64 215.05 261.52 221.16 262.48 222.27 263.04 223.91 264.71 230.65 262.05 234.57 262.89 237.24 262.63 242.55 265.39 242.4 271.33 251.06 272.83 252.13 273.32 253.32 278.02 257.07 279.3 258.45 281.01 259.29 282.54 258.64 283.93 259.19 285.27 258.83 287.72 261.31 287.6 262.6 288.15 264.79 289.46 266.84 290.41 269.05 291.45 268.9 293.58 267.22 294.9 267.32 297.68 270.16 298.49 270 299.35 272.92 299.25 275.64 299.9 276.49 302.35 276.18 303.24 276.61 302.53 278.05 300.87 279.75 301.12 282.05 301.96 282.53 304.71 286.07 306.47 286.61 308.45 289.91 309.55 290.98 310.75 294.57 311.88 294.87 312.78 293.91 313.34 292.03 315.19 292.55 316.06 296.22 317.04 298.41 318.82 300.67 319 301.99 320.43 305.3 320.55 307.92 321.03 309.26 320.49 310.82 322.14 312.44 324.2 311.9 325.42 310.87 333.44 308.88 335.22 308.81 335.81 306.79 336.97 305.2 338.19 305.73 341.98 305.41 342.57 307.02 342.04 308.3 342.67 310.76 345.87 313.28 346.42 312.36 350.37 312.83 350.92 312.31 353.47 313.63 355.35 313.75 358.35 313.02 360.44 314.73 360.45 316.51 363.62 318.72 364.76 319.01 365.92 320.95 367.69 322.1 367.51 323.37 368.52 325.87 Z" id="37070330"/>
<path d="M 511.02 34.02 513.44 34.01 518.72 33.63 523.52 35.13 525.43 34.63 528.4 36.17 529.61 37.57 531.44 37.14 533.25 38.8 534.99 39.12 537.58 41.21 539.66 43.36 541.41 43.69 542.47 46.89 542.36 49.04 541.26 51.03 540.81 53.04 541.1 58.23 541.93 61.11 543.74 63.14 544.82 65.94 544.47 71.03 542.8 71.67 540.18 74.5 538.79 75.36 537.6 77.22 539.44 80.83 540.35 84.18 538.14 85.84 534.78 89.72 534.48 90.47 535.88 94.21 535.49 95.86 532.04 95.97 530.91 96.67 528.89 97.13 527.47 99.7 528.31 102.38 529.46 104.53 530.8 105.12 531.34 109.09 532.02 112.27 533.16 112.95 536.16 113.43 538.65 116.44 541.27 118.78 544.6 124.5 544.03 129.36 539.97 134.99 536.85 136.76 536.12 136.62 529.43 133.77 526.45 133.26 523.73 135.37 518.86 137.91 517.77 138.81 515.07 138.9 512.47 141.3 511.85 142.44 509.9 143.32 509.3 144.89 506.17 146.05 505.79 147.69 502.85 149.1 499.52 148.49 491.45 148.63 490.06 149.05 489.56 150.62 487.27 153.37 485.91 155.51 484.18 157.26 485.16 160.76 485.74 161.71 485.69 163.69 486.81 167.02 487.71 170.51 487.42 172.15 489.97 175.49 491.89 179.2 492.01 180.76 489.49 183.02 488.2 185.48 488.9 188.1 487.96 192.49 485.87 195.59 485.55 198.93 483.49 200.26 483.46 201.7 481.6 207.41 479.78 208.79 477.39 208.69 474.33 209.17 473.28 210.39 470.96 211.01 469.41 210.79 467.33 211.81 461.21 213.92 460.72 215.33 458.75 217.57 458.05 217.69 457.39 219.76 455.44 219.33 454.36 221.95 454.8 224.63 453.79 226.99 454.32 227.75 453.21 230.1 451.07 231.06 448.66 231.07 446.99 232.63 446.5 233.64 444.83 234.13 441.93 236.61 438.42 232.27 436.06 235.13 434.01 233.81 433.1 234.62 431.53 233.37 429.93 234.29 429.52 236.33 427.37 239.44 425.41 240.65 423.83 240.67 422.9 241.71 419.38 241.99 415.77 239.75 413.46 239.37 412.09 238.25 409.3 238.77 407.41 237.52 404.77 239.55 403.54 242.47 401.37 242.43 400.12 242.8 400.2 244 399.26 245.22 396.56 242.88 394.75 242.38 393.11 240.43 389.95 240.11 388.83 238.83 386.63 237.69 383.55 228.65 382.49 227.4 379.11 225.92 377.53 222.84 377.05 220.42 377.1 216.86 376.69 215.09 373.15 212.72 372.24 211.07 372.2 209.83 371.12 208.66 370.78 205.91 371.66 204.59 371.23 201.82 371.84 200.81 370.8 199.11 371.28 195.19 370.81 194.78 371.34 192.47 371.25 189.24 371.66 187.15 372.36 186.54 373.59 183.59 373.69 181.92 371.84 179.39 371.7 177.24 369.83 174.74 369.56 173.48 370.68 171.69 369.96 170.5 368 169.72 367.09 168.3 366.83 166.82 365.08 164.44 363.95 164.66 361.83 166.07 361.09 165.18 360.89 163.51 358.84 162.83 358.27 159.65 356.2 159.05 355.43 156.29 355.6 155.01 354.02 150.56 352.99 150.16 352.11 148.47 348.73 145.36 347.47 144.55 347.31 142.79 349.15 140.88 350.02 136.74 346.55 134.09 345.21 132.81 342.01 130.92 340.12 128.94 339.45 123.7 340.04 121.58 339.91 119.33 341 118.16 342.17 115.4 343.68 113.72 344.51 112.22 347.44 109.22 347.6 107.77 349.46 104.97 349.76 103.05 351.3 100.75 349.67 98.35 349.85 96.87 348.66 94.93 348.92 92.72 347.28 92.14 345.67 90.43 343.66 89.61 341.11 90.44 340.06 88.45 339.37 85.93 338.55 84.65 338.25 82.37 339.51 80.04 339.29 78.66 340.34 74.03 341.77 71.94 341.83 68.08 340.66 65.55 341.81 65 343.83 62.66 345.58 58.23 347.23 55.13 350.1 53.59 353.82 50.47 355.35 49.47 353.76 47.98 351.71 44.53 350.39 43.16 346.94 38.47 345.02 34.54 345.52 32.82 345.84 26.37 347.44 26.07 348.84 22.09 349.65 18.71 353.71 16.64 357.18 15.79 359.5 16.75 362.33 17.49 365.4 16.33 365.72 14.81 366.83 12.62 370.32 11.23 371 9.66 373.86 10.09 377.23 9.07 378.51 10.73 379.77 11.53 380.41 10.2 384.2 7.49 385.71 5.84 387.08 5.28 388.22 1 390.93 2.58 392.95 4.97 395.36 5.3 399.19 9.29 403.46 11.76 405.75 11.26 406.51 8.21 410.38 12.82 412.8 13.95 414.02 13.6 416.27 13.79 419.37 11.64 420.83 12.52 424.65 16.09 427.64 17.47 428.27 20.65 429.84 22.34 430.32 23.74 434.64 25.41 436.12 27.09 437.58 27.27 441.35 32.04 441.82 33.57 445.22 34.41 448.61 34.07 453.29 35.94 454.75 35.88 456.19 36.85 460.83 37.06 464.38 38.32 465.55 39.89 466.53 42.75 468.42 43.72 470.04 45.5 471.27 46.18 475.51 49.47 478.61 48.4 483.86 48.26 483.87 50.31 488.14 42.78 488.35 41.68 489.51 41.41 491.7 38.61 494.69 37.71 499.01 35.71 501.77 34.71 504.4 34.17 507.73 34.52 511.02 34.02 Z" id="37070340"/>
<path d="M 341.11 90.44 343.66 89.61 345.67 90.43 347.28 92.14 348.92 92.72 348.66 94.93 349.85 96.87 349.67 98.35 351.3 100.75 349.76 103.05 349.46 104.97 347.6 107.77 347.44 109.22 344.51 112.22 343.68 113.72 342.17 115.4 341 118.16 339.91 119.33 340.04 121.58 339.45 123.7 340.12 128.94 342.01 130.92 345.21 132.81 346.55 134.09 350.02 136.74 349.15 140.88 347.31 142.79 347.47 144.55 348.73 145.36 352.11 148.47 352.99 150.16 354.02 150.56 355.6 155.01 355.43 156.29 356.2 159.05 358.27 159.65 358.84 162.83 360.89 163.51 361.09 165.18 361.83 166.07 363.95 164.66 365.08 164.44 366.83 166.82 367.09 168.3 368 169.72 369.96 170.5 370.68 171.69 369.56 173.48 369.83 174.74 371.7 177.24 371.84 179.39 373.69 181.92 373.59 183.59 372.36 186.54 371.66 187.15 371.25 189.24 371.34 192.47 370.81 194.78 371.28 195.19 370.8 199.11 371.84 200.81 371.23 201.82 371.66 204.59 370.78 205.91 371.12 208.66 372.2 209.83 372.24 211.07 373.15 212.72 376.69 215.09 377.1 216.86 377.05 220.42 377.53 222.84 379.11 225.92 382.49 227.4 383.55 228.65 386.63 237.69 388.83 238.83 389.95 240.11 393.11 240.43 394.75 242.38 396.56 242.88 399.26 245.22 400.2 244 400.12 242.8 401.37 242.43 403.54 242.47 404.77 239.55 407.41 237.52 409.3 238.77 412.09 238.25 413.46 239.37 415.77 239.75 419.38 241.99 422.9 241.71 423.83 240.67 425.41 240.65 427.37 239.44 429.52 236.33 429.93 234.29 431.53 233.37 433.1 234.62 434.01 233.81 436.06 235.13 438.42 232.27 441.93 236.61 444.83 234.13 446.5 233.64 446.99 232.63 448.66 231.07 451.07 231.06 453.21 230.1 454.32 227.75 453.79 226.99 454.8 224.63 454.36 221.95 455.44 219.33 457.39 219.76 458.05 217.69 458.75 217.57 460.72 215.33 461.21 213.92 467.33 211.81 469.41 210.79 470.96 211.01 472.66 215.34 474.46 217.44 473.62 221.84 476.15 224.5 474.37 227.56 475.34 228.74 475.67 230.34 476.9 231.67 476.47 234.43 480.2 237.34 480.23 238.39 483.48 240.23 483.55 241.45 485.99 246.19 485.56 247.85 484.26 248.83 483.53 251.33 485.56 257.51 484.67 258.63 484.99 260.14 483.23 264.41 484.1 267.15 485.43 269.59 485.08 272.37 484.21 273.96 482.7 274.72 479.82 274.92 478.17 276.8 478.4 280.49 477.83 281.87 475.86 283.23 475.38 284.78 473.65 284.92 473 286.14 471.16 287.15 469.11 288.82 466.21 290.07 464.2 289.51 462.88 290.51 462.78 292.36 463.63 295.64 464.53 297.43 464.39 300.93 464.85 304.31 462.98 306.19 462.75 308.15 460.85 308.77 459.15 313.46 458.28 314.65 457.3 315.71 455.99 315.73 454.27 313.26 452.99 313.01 452.08 313.83 449.32 314.53 448.99 315.47 447.45 316.36 445.89 316.08 444.86 317.95 442.69 316.75 439.51 316.5 440.11 318.96 438.61 321.39 437.97 324.14 434.33 324.06 433.78 325.38 429.35 326.12 428.56 327.92 428.62 328.9 426.38 333.41 424.76 334.32 424.27 337.92 422.68 338.49 421.91 340.84 422.25 343.44 421.69 346.38 419.23 347.89 416.9 348.91 416.01 350.89 413.07 351.64 413.13 349.76 408.88 346.9 406.18 342.55 405.38 340.44 403.67 334.62 402.93 327.89 401.32 324.9 398.13 321.78 394.03 320.32 389.76 317.84 387.47 317.76 383.81 318.02 382.2 318.87 380.3 319.23 378.99 320.22 379.04 321.4 375.83 325.02 375.72 326.31 374.24 325.89 372.58 327.39 370.86 325.69 368.52 325.87 367.51 323.37 367.69 322.1 365.92 320.95 364.76 319.01 363.62 318.72 360.45 316.51 360.44 314.73 358.35 313.02 355.35 313.75 353.47 313.63 350.92 312.31 350.37 312.83 346.42 312.36 345.87 313.28 342.67 310.76 342.04 308.3 342.57 307.02 341.98 305.41 338.19 305.73 336.97 305.2 335.81 306.79 335.22 308.81 333.44 308.88 325.42 310.87 324.2 311.9 322.14 312.44 320.49 310.82 321.03 309.26 320.55 307.92 320.43 305.3 319 301.99 318.82 300.67 317.04 298.41 316.06 296.22 315.19 292.55 313.34 292.03 312.78 293.91 311.88 294.87 310.75 294.57 309.55 290.98 308.45 289.91 306.47 286.61 304.71 286.07 301.96 282.53 301.12 282.05 300.87 279.75 302.53 278.05 303.24 276.61 302.35 276.18 299.9 276.49 299.25 275.64 299.35 272.92 298.49 270 297.68 270.16 294.9 267.32 293.58 267.22 291.45 268.9 290.41 269.05 289.46 266.84 288.15 264.79 287.6 262.6 287.72 261.31 285.27 258.83 283.93 259.19 282.54 258.64 281.01 259.29 279.3 258.45 278.02 257.07 273.32 253.32 272.83 252.13 271.33 251.06 265.39 242.4 262.63 242.55 262.89 237.24 262.05 234.57 264.71 230.65 263.04 223.91 262.48 222.27 261.52 221.16 260.64 215.05 259.74 211.3 257.71 208.24 256.45 205.13 256.16 203.08 257.64 198.27 257.07 196.55 255.63 194.56 255.02 188.35 254.26 188.08 249.11 187.55 246.52 186.49 245.59 185.52 243.17 184.67 241.8 183.66 240.13 183.48 239.81 181.69 241.7 179.31 243.12 176.9 243.91 174.39 244.45 173.98 246.47 170.71 247.16 168.68 246.55 165.14 247.58 160.68 248.48 157.71 251.39 156.99 252.93 157.45 254.17 156.89 257.75 157.82 259.04 157.15 259.84 155.48 258.98 153.69 260.94 150.43 262.8 149.59 265.77 149.05 271.18 146.25 273.29 141.01 273.68 139.49 272.16 135.26 270.84 133.15 272.04 131.22 273.3 128.07 275.18 127.02 275.11 124.13 274.17 119.84 272.91 116.52 271.86 115.75 269.79 111.02 269.76 107.93 269.43 107.03 270.22 103.49 272.33 102.83 274.8 100.75 279.91 95.4 279.94 94.4 283.39 88.34 288.89 87.71 289.82 88.21 294.46 89.48 299.82 87.45 301.29 88.25 303.58 88.59 306.96 90.13 310.95 92.4 314.85 92.78 317.27 92.63 320.84 92.86 323.78 92.37 325.95 92.7 328.8 90.63 332.57 92.35 333.96 91.99 338.14 92.54 338.81 91.29 341.11 90.44 Z" id="37070350"/>
<path d="M 713.78 140.43 713.63 142.47 715.55 146.1 713.15 150.69 710.96 152.76 710.49 154.18 705.9 161.53 705.95 162.94 700.37 164.27 697.42 165.52 697.04 166.98 695.68 167.69 694.81 173.13 694.86 175.22 695.32 176.76 697.01 178.63 697.31 179.94 697.32 183.62 696.79 184.9 698.51 187.34 700.35 187.94 703.33 189.75 703.76 192.6 708.53 197.17 710.49 200.6 711.91 201.8 712.33 202.95 714.23 204.18 715.96 205.88 716.81 207.61 718.93 208.49 720.95 208.25 722.12 208.79 724.07 211.07 727.01 212.12 729.14 214.76 728.81 216.73 727.91 217.75 728.86 220.12 728.03 224.41 726.42 225.28 725.57 226.47 723.74 230.09 722.38 229.74 719.99 230.5 718.16 232.61 714.08 235.38 712.71 235.36 710.75 237.58 707.96 240.3 705.41 242.05 704.26 243.51 701.02 246.72 699.52 248.6 698.43 248.91 697.46 248.27 696.01 248.74 694.3 248.17 692.92 249.02 691.33 248.81 688.96 249.43 689.46 252.51 688.23 253.44 687.04 257.55 686.01 259.14 684.92 262.35 682.85 262.72 682.16 264.05 682.6 265.71 680.17 267.35 677.53 267.97 677.05 272.05 676.19 274.03 673.7 272.39 671.62 271.7 668.74 272.12 667.72 273.54 666.28 274.21 665 272.98 662.47 271.93 659.28 272.14 656.77 270.46 652.51 269.65 651.44 269.94 649.28 271.49 646.19 270.9 641.88 271.54 632.09 269.43 629.02 268.42 627.29 268.32 623.31 269.34 619.38 269.48 615.4 267.55 610.86 267.77 607.84 268.15 604.51 266.51 602.6 266.71 599.45 264.95 596.3 264.9 592.68 264.38 588.81 265.26 586.08 264.72 580.07 267.4 574.51 262.3 572.86 261.86 572.46 259.42 568.15 256.15 552.52 260.14 550.45 259.24 546.37 255.88 544.23 255.36 543.18 252.29 541.34 250.13 540.41 248.53 537.8 247.54 537.13 246.26 534.45 246.28 531.48 243.39 528.05 241.93 527.15 241.8 526.08 240.42 525.78 236.6 524.19 232.94 523.1 232.45 520.99 229.65 518.87 228.61 515.25 228.47 510.59 227.85 508.51 228.3 505.34 226.75 504.21 224.93 501.9 222.13 501.7 219.66 500.52 218.31 499.25 214.73 498.46 211.33 499.5 209.04 502.54 207.48 504.36 205.4 503.5 203.81 504.27 200.6 504.41 198.87 505.69 197.28 509.83 193.93 507.79 191.42 507.35 189.49 507.76 185.74 504.49 182.69 503.67 181.16 500.45 181.82 496.66 182.01 494.06 181.53 492.01 180.76 491.89 179.2 489.97 175.49 487.42 172.15 487.71 170.51 486.81 167.02 485.69 163.69 485.74 161.71 485.16 160.76 484.18 157.26 485.91 155.51 487.27 153.37 489.56 150.62 490.06 149.05 491.45 148.63 499.52 148.49 502.85 149.1 505.79 147.69 506.17 146.05 509.3 144.89 509.9 143.32 511.85 142.44 512.47 141.3 515.07 138.9 517.77 138.81 518.86 137.91 523.73 135.37 526.45 133.26 529.43 133.77 536.12 136.62 536.85 136.76 539.97 134.99 544.03 129.36 544.6 124.5 541.27 118.78 538.65 116.44 536.16 113.43 533.16 112.95 532.02 112.27 531.34 109.09 530.8 105.12 529.46 104.53 528.31 102.38 527.47 99.7 528.89 97.13 530.91 96.67 532.04 95.97 535.49 95.86 535.88 94.21 534.48 90.47 534.78 89.72 538.14 85.84 540.35 84.18 539.44 80.83 537.6 77.22 538.79 75.36 540.18 74.5 542.8 71.67 544.47 71.03 544.82 65.94 543.74 63.14 541.93 61.11 541.1 58.23 540.81 53.04 541.26 51.03 542.36 49.04 542.47 46.89 541.41 43.69 542.3 43.04 549.33 43.14 551.84 42.76 552.67 44.84 555.98 46.66 558.43 47.57 561.55 48.28 563.8 49.61 566.3 50.18 571.61 50.89 572.75 52.32 574.3 51.9 575.94 50.89 577.83 51.99 581.02 52.56 583.4 52.38 586.63 54.12 589.18 55.87 593.5 59.39 596.47 58.56 600.35 58.42 601.94 57.91 607.34 58.15 607.08 61.82 610.41 67.3 612.81 70.33 614.07 71.34 616.19 72.16 624.28 72.55 624.59 75.03 627.06 78.59 629.48 79.49 633.58 82.62 638.29 83.71 640.4 84.56 641.24 86.08 641.71 89.84 640.89 94.87 643.59 98.44 643.58 102.52 642.56 105.43 640.61 108.42 635.03 113.1 634.79 114.34 636.31 115.99 637.51 116.22 639.09 117.57 642.64 121.82 644.03 122.49 647.95 126.7 647.34 128.09 650.93 134.05 651.62 134.84 650.54 139.1 651.66 139.91 653.39 142.82 654.94 144.63 654.93 146.18 655.78 147.28 659.09 147.1 665.35 148.05 667.36 150.98 668.96 152.75 669.6 152.56 669.42 150.65 671.33 144.31 673.16 139.38 675.45 139.42 676.19 139.82 677.82 139.38 678.94 138.41 680.32 138.52 681.65 139.31 682.6 138.33 687.38 137.66 689.71 134.79 692.32 133.08 694.17 132.39 697.23 132.52 698.41 130.79 702.61 129.41 703.5 129.5 704.96 131.34 706.64 134.1 708.19 135.53 708.67 136.59 710.43 138.29 713.78 140.43 Z" id="37070360"/>
<path d="M 728.86 220.12 730.33 221.33 734 219.6 735.19 219.98 738.52 219.22 741.37 221.34 743.72 220.93 744.39 220.15 746.61 220.44 750.43 218.35 756.39 216.73 757 217.13 758.62 220.11 760.84 222.49 761.61 224.16 762.79 225.55 764.35 226.5 768.84 230.21 769.32 230.91 769.52 234.2 768.98 237.27 768.18 238.87 767.35 243.52 769.31 246.08 771.8 247.58 774.19 251.57 773.71 253.22 772.07 256.51 773.89 258.93 776.39 259.16 778.73 261.1 779.8 263.5 780.74 264.15 783.08 264.78 785 265.86 786.18 267.07 789.13 267.49 790.7 265.47 792.33 264.48 794.07 264.84 794.91 267.95 799 271.77 798.62 271.73 797.71 276.73 798.49 280.26 792.48 283.38 792.16 289.21 790.67 292.81 789.21 295.42 785.77 300.28 783.22 302.79 780.29 301.42 777.74 303.65 775.78 308.43 775.22 312.22 771.01 311.87 771.35 315.77 770.07 316.43 766.17 315.31 764.31 315.39 760.84 313.93 757.91 313.55 755.73 312.7 753.6 312.38 750.12 309.96 747.24 309.28 740.57 303.84 739.65 303.8 736.74 308.95 733.83 311.36 733.06 314.31 729.89 316.18 726.22 315.69 723.62 314.57 721.31 315.14 720.53 314.5 718.29 314.71 716.11 313.91 714.79 313.99 713.82 315.17 712.09 315.74 710.76 316.96 707.45 318.97 706.8 320.6 705.41 322.14 704.61 324.27 703.88 325.11 703.93 330.98 704.65 333.57 706.83 335.92 704.67 337.9 703.7 338.05 701.64 339.84 699.43 339.59 699.18 340.74 695.44 346.31 694.16 346.23 691.37 348.43 689.72 348.41 687.04 346.33 684.11 344.47 683.29 345.11 680.75 343.2 679.06 343.3 678.45 342.1 676.2 342.44 675.96 341.58 669.88 338.59 668.98 337.85 666.76 339.01 664.99 336.91 660.95 336.26 659.14 334.95 657.78 334.8 654.89 333.21 653.74 335.54 651.61 335.79 650.79 334.96 647.3 333.49 644.77 333.01 642.8 330.45 640.4 326.78 639 322.7 637.43 321.48 635.45 320.74 635.12 322.09 633.63 324.24 631.57 325.04 629.36 323.33 627.23 324.72 626.33 323.75 624.82 320.74 621.02 320.18 620.74 322.02 621.46 323.71 621.5 326.92 620.39 328.69 618.27 329.79 615.92 331.75 614.05 334 612.05 334.07 610.34 335.62 609.01 333.81 608.04 333.54 606.78 332.22 603.24 332.42 601.52 332.06 599.55 329.53 597.1 328.77 596.02 331.59 595.06 335.92 593.14 336.31 593.46 338.22 592.42 339.71 590.9 340.54 589.11 339.53 585.71 341.15 584.09 342.66 582.67 342.41 581.49 341.31 580.56 342.05 579.99 344.36 578.38 345.48 578.07 347.38 576.08 347.67 574.84 346.78 573.63 347.74 572.78 347.47 571.25 350.03 572.25 353.49 571.75 354.37 571.8 358 571.45 360.16 573.11 362.96 573.43 365.88 572.07 366.45 571.75 368.34 570.01 368.49 568.75 369.91 566.5 369.59 562.5 372.05 558.19 372.79 556.33 374.28 556.26 376.02 555.45 379.06 554.35 378.54 552.64 379.04 551.8 380.23 549.89 381.52 548.17 381.75 547.72 383.28 544.92 384.35 542.94 384.14 541.28 383.52 538.96 385.14 537.11 384.89 536.4 386.08 533.61 386.77 530.49 386.39 529.27 389.21 528.34 390.15 528.72 392.25 524.04 391.61 522.68 392.17 521.43 391.77 518.79 393.42 515.7 394.94 512.63 395.44 510.49 397.82 509.18 397.98 508.48 396.05 507.85 391.04 506.13 390.2 505.21 387.58 504.67 387.13 503.15 388.09 502.24 389.84 499.74 392.04 500.38 397.81 499.72 402.06 498.75 404.08 496.85 407.09 497.45 409.96 495.08 410.03 491.65 410.88 490.54 409.97 488.95 413.03 488.71 414.12 487.01 414.09 484.92 416.79 482.86 415.63 480.22 413.48 477.67 416.71 477.35 419.8 475.72 422.55 474.87 421.2 473.18 419.69 471.55 419.04 471.8 418.05 470.41 416.7 471.8 412.35 469.45 406.95 469.67 405.8 468.61 403.32 467.25 401.19 466.62 399.28 466.97 396.61 469.61 394.64 470.04 393.85 469.2 390.51 468.51 389.91 466.22 385.21 465.92 383.5 463.59 381.17 462.67 378.34 461.9 372.57 461.3 370.44 459.97 368.72 459.79 364.84 460.49 363.77 458.76 361.93 457.2 358.4 456.3 357.84 456.48 354.54 457.28 353.54 457.97 351.28 458.04 348.87 459.8 345.2 458.66 344.83 458.33 343.63 458.18 340.29 457.56 339.37 458.09 334.06 456.89 332.49 457.9 329.22 459.09 328.95 459.22 325.04 460.13 323.44 459.69 320.3 460.24 317.39 458.28 314.65 459.15 313.46 460.85 308.77 462.75 308.15 462.98 306.19 464.85 304.31 464.39 300.93 464.53 297.43 463.63 295.64 462.78 292.36 462.88 290.51 464.2 289.51 466.21 290.07 469.11 288.82 471.16 287.15 473 286.14 473.65 284.92 475.38 284.78 475.86 283.23 477.83 281.87 478.4 280.49 478.17 276.8 479.82 274.92 482.7 274.72 484.21 273.96 485.08 272.37 485.43 269.59 484.1 267.15 483.23 264.41 484.99 260.14 484.67 258.63 485.56 257.51 483.53 251.33 484.26 248.83 485.56 247.85 485.99 246.19 483.55 241.45 483.48 240.23 480.23 238.39 480.2 237.34 476.47 234.43 476.9 231.67 475.67 230.34 475.34 228.74 474.37 227.56 476.15 224.5 473.62 221.84 474.46 217.44 472.66 215.34 470.96 211.01 473.28 210.39 474.33 209.17 477.39 208.69 479.78 208.79 481.6 207.41 483.46 201.7 483.49 200.26 485.55 198.93 485.87 195.59 487.96 192.49 488.9 188.1 488.2 185.48 489.49 183.02 492.01 180.76 494.06 181.53 496.66 182.01 500.45 181.82 503.67 181.16 504.49 182.69 507.76 185.74 507.35 189.49 507.79 191.42 509.83 193.93 505.69 197.28 504.41 198.87 504.27 200.6 503.5 203.81 504.36 205.4 502.54 207.48 499.5 209.04 498.46 211.33 499.25 214.73 500.52 218.31 501.7 219.66 501.9 222.13 504.21 224.93 505.34 226.75 508.51 228.3 510.59 227.85 515.25 228.47 518.87 228.61 520.99 229.65 523.1 232.45 524.19 232.94 525.78 236.6 526.08 240.42 527.15 241.8 528.05 241.93 531.48 243.39 534.45 246.28 537.13 246.26 537.8 247.54 540.41 248.53 541.34 250.13 543.18 252.29 544.23 255.36 546.37 255.88 550.45 259.24 552.52 260.14 568.15 256.15 572.46 259.42 572.86 261.86 574.51 262.3 580.07 267.4 586.08 264.72 588.81 265.26 592.68 264.38 596.3 264.9 599.45 264.95 602.6 266.71 604.51 266.51 607.84 268.15 610.86 267.77 615.4 267.55 619.38 269.48 623.31 269.34 627.29 268.32 629.02 268.42 632.09 269.43 641.88 271.54 646.19 270.9 649.28 271.49 651.44 269.94 652.51 269.65 656.77 270.46 659.28 272.14 662.47 271.93 665 272.98 666.28 274.21 667.72 273.54 668.74 272.12 671.62 271.7 673.7 272.39 676.19 274.03 677.05 272.05 677.53 267.97 680.17 267.35 682.6 265.71 682.16 264.05 682.85 262.72 684.92 262.35 686.01 259.14 687.04 257.55 688.23 253.44 689.46 252.51 688.96 249.43 691.33 248.81 692.92 249.02 694.3 248.17 696.01 248.74 697.46 248.27 698.43 248.91 699.52 248.6 701.02 246.72 704.26 243.51 705.41 242.05 707.96 240.3 710.75 237.58 712.71 235.36 714.08 235.38 718.16 232.61 719.99 230.5 722.38 229.74 723.74 230.09 725.57 226.47 726.42 225.28 728.03 224.41 728.86 220.12 Z" id="37070370"/>
<path d="M 770.07 316.43 772.03 318.7 772.66 320.47 776.22 324.25 776.11 325.4 776.96 328.9 779.35 330.58 779.93 332.01 782.4 335.7 782.72 337.47 784.28 341.57 784.94 342.27 784.69 345.39 784.94 347.36 786.06 348.25 786.78 352.8 787.46 354.98 788.47 360.73 789.92 364.04 788.56 366.03 788.35 367.68 784.63 368.74 779.54 371.8 775.93 372.43 775.31 372.99 772.58 376.87 772 376.22 769.58 377.63 764.22 378.31 760.95 378.12 758.14 379.23 754.46 377.43 752.29 377.23 749.94 375.57 746.21 372.05 745.57 370.4 743.83 369.64 742.08 367.2 740.42 364.29 740.27 362.08 737.01 362.11 732.52 370.89 731.65 376.43 730.74 377.89 730.68 380.23 732.41 382.87 732.32 386.29 733.65 387.08 734.87 388.49 735.15 389.73 732.17 394.44 731.21 397.41 731.77 399.65 733.07 401.38 733.47 402.58 735.2 403.6 736.53 406.35 736.04 407.38 736.32 411.74 736.84 414.65 742.59 422.35 742.4 425.66 743.1 429.69 743.38 434.43 742.46 437.12 744.3 440.43 743.32 442.36 743.37 443.82 744.45 445.61 743.92 449.77 742.62 450.53 742.07 452.75 743.3 455.32 746.02 457.18 744.81 463.02 743.85 464.6 743.82 468.25 742.98 469.89 741.82 473.46 745.17 477.51 749.28 481.53 750.69 484.65 751.11 486.79 751.93 487.38 754.37 488.04 754.22 490.57 754.75 492.13 756.56 494.06 757.16 496.63 758.6 497.57 760.89 498.42 763.04 499.92 764.65 502.57 764.66 504.8 763.94 508.56 765.94 510.24 768.01 511.33 767.66 512.95 766.59 514.77 766.43 519.16 771.32 521.11 772.99 523.26 776.74 531.06 778.15 534.58 776.79 537.74 775.4 539.9 775.47 542.02 773.96 546.23 771.53 549.36 770.8 551.03 768.6 553.81 766.6 554.76 763.84 556.65 763.37 559.01 761.32 559.26 760.46 557.7 758.99 558.42 757.61 556.82 756.61 557.49 754.4 557.9 753.18 558.62 751.74 561.03 749.58 562.41 748.33 565.5 749.01 568.97 748.26 569.66 744.85 569.91 743.09 569.69 740.31 567.66 740.19 566.68 741.07 564.17 740.63 562.41 740.59 560.16 739.83 558.39 739.61 556.24 737.36 553.15 736.08 549.64 734.6 547.06 733.85 545.15 731.75 541.5 728.84 538.68 726.2 536.67 725.67 534.63 724.36 533.19 721.73 531.84 720.84 530.4 718.01 530.1 716.65 527.75 714.81 525.79 713.14 526.21 710.75 523.35 706.67 521.26 705.81 519.91 704.46 521.01 703.14 520.62 701.01 522.39 699.58 522.3 699.29 523.38 697.25 524.43 695.71 524.56 693.86 523.63 692.97 524.97 691.98 525.02 691.59 523.61 688.53 523.07 687.63 522.38 685.33 521.62 684.4 522.46 684.56 524.04 682.54 526.76 681.32 525.29 681.07 523.99 679.33 522.83 679.23 521.51 677.41 520.87 677.34 519.24 676.74 518.21 674.87 517.88 673.89 518.57 672.27 517.35 667.06 517.34 666.07 516.49 662.44 518.48 660.93 518.25 659.62 519.28 656.36 517.99 653.2 519.4 653.16 520.45 649.62 524.6 648.46 526.56 646.81 523.44 645.01 522.5 642.6 523.22 641.11 522.89 639.78 519.76 637.98 519.01 636.72 515.77 634.6 512.84 633.18 512.32 633.02 510.76 631.98 509.78 629 509.72 626.94 510.36 626.15 509.14 622.39 510.61 620.98 511.74 620.33 513.88 618.07 513.87 615.32 514.74 612.92 517.61 610.64 515.99 609.31 514.6 606.45 514.14 605.46 514.72 604.89 511.85 602.32 509.35 600 508.14 598.23 508.15 596.82 506.35 595.92 505.97 592.87 507.33 591.59 507.32 587.76 505.59 586.19 504.6 585.34 505.39 583.18 505.04 581.34 503.3 580.04 503.04 577.35 500.69 576.57 500.96 574.33 500.51 573.25 501.42 570.56 500.95 569.78 498.93 568.71 499.3 567.29 500.89 566.23 500.84 565.84 503 564.57 503.84 562.95 505.91 561.12 506.98 560.44 508.6 558.89 508.74 557.85 510.72 556.07 510.98 555.47 512.26 552.82 511.97 552.17 513.09 552.26 514.9 550.87 517.29 549.96 517.37 548.94 519.07 546.9 519.74 544.11 515.48 544.53 514.37 543.02 512.97 542.38 510.53 540.67 509.52 539.79 509.54 536.69 507.44 536.13 506.67 536.31 505.04 534.93 503.72 534.31 502.35 534.39 499.91 531.35 498.01 529.86 495.91 527.77 494.35 525.19 490.58 523.62 491.95 523.37 492.95 521.12 494.54 516.22 493.9 516.75 491.79 516.76 489.24 515.73 486.96 514.48 483.13 511.05 483.26 510.39 484.19 508.66 484.45 507.35 483.95 506.51 481.49 505.85 481.24 504.67 478.86 504.88 475.89 503.45 472.58 499.4 471.6 498.17 469.06 495.18 467.16 494.61 465.89 494.14 462.05 493.16 462.11 491.47 461.16 489.47 460.78 488.22 461.6 484.32 461.77 483.81 459.56 483.75 457.52 481.37 453.97 481.37 449.46 480.21 440.53 483.42 434.5 485.78 432.39 490.88 430.5 491.54 429.49 495.01 422.65 496.85 415.45 497.93 414.76 497.22 413.64 497.6 411.34 497.45 409.96 496.85 407.09 498.75 404.08 499.72 402.06 500.38 397.81 499.74 392.04 502.24 389.84 503.15 388.09 504.67 387.13 505.21 387.58 506.13 390.2 507.85 391.04 508.48 396.05 509.18 397.98 510.49 397.82 512.63 395.44 515.7 394.94 518.79 393.42 521.43 391.77 522.68 392.17 524.04 391.61 528.72 392.25 528.34 390.15 529.27 389.21 530.49 386.39 533.61 386.77 536.4 386.08 537.11 384.89 538.96 385.14 541.28 383.52 542.94 384.14 544.92 384.35 547.72 383.28 548.17 381.75 549.89 381.52 551.8 380.23 552.64 379.04 554.35 378.54 555.45 379.06 556.26 376.02 556.33 374.28 558.19 372.79 562.5 372.05 566.5 369.59 568.75 369.91 570.01 368.49 571.75 368.34 572.07 366.45 573.43 365.88 573.11 362.96 571.45 360.16 571.8 358 571.75 354.37 572.25 353.49 571.25 350.03 572.78 347.47 573.63 347.74 574.84 346.78 576.08 347.67 578.07 347.38 578.38 345.48 579.99 344.36 580.56 342.05 581.49 341.31 582.67 342.41 584.09 342.66 585.71 341.15 589.11 339.53 590.9 340.54 592.42 339.71 593.46 338.22 593.14 336.31 595.06 335.92 596.02 331.59 597.1 328.77 599.55 329.53 601.52 332.06 603.24 332.42 606.78 332.22 608.04 333.54 609.01 333.81 610.34 335.62 612.05 334.07 614.05 334 615.92 331.75 618.27 329.79 620.39 328.69 621.5 326.92 621.46 323.71 620.74 322.02 621.02 320.18 624.82 320.74 626.33 323.75 627.23 324.72 629.36 323.33 631.57 325.04 633.63 324.24 635.12 322.09 635.45 320.74 637.43 321.48 639 322.7 640.4 326.78 642.8 330.45 644.77 333.01 647.3 333.49 650.79 334.96 651.61 335.79 653.74 335.54 654.89 333.21 657.78 334.8 659.14 334.95 660.95 336.26 664.99 336.91 666.76 339.01 668.98 337.85 669.88 338.59 675.96 341.58 676.2 342.44 678.45 342.1 679.06 343.3 680.75 343.2 683.29 345.11 684.11 344.47 687.04 346.33 689.72 348.41 691.37 348.43 694.16 346.23 695.44 346.31 699.18 340.74 699.43 339.59 701.64 339.84 703.7 338.05 704.67 337.9 706.83 335.92 704.65 333.57 703.93 330.98 703.88 325.11 704.61 324.27 705.41 322.14 706.8 320.6 707.45 318.97 710.76 316.96 712.09 315.74 713.82 315.17 714.79 313.99 716.11 313.91 718.29 314.71 720.53 314.5 721.31 315.14 723.62 314.57 726.22 315.69 729.89 316.18 733.06 314.31 733.83 311.36 736.74 308.95 739.65 303.8 740.57 303.84 747.24 309.28 750.12 309.96 753.6 312.38 755.73 312.7 757.91 313.55 760.84 313.93 764.31 315.39 766.17 315.31 770.07 316.43 Z" id="37070380"/>
<path d="M 648.46 526.56 647.81 527.72 646.62 528.43 647.23 530.12 646.44 531.56 645.32 531.99 643.9 535.01 643.03 535.97 642.38 537.79 643.2 538.72 647.88 541.88 648.03 544.48 646.6 547.72 646.52 550.05 644.64 552.04 644.14 552.06 640.06 554.03 638.22 557.38 639.08 560.99 637.44 562.87 636.34 565.7 633.67 565.51 630.65 566.21 629.21 568.62 627.17 567.32 625.7 567.65 623.54 569.31 622.57 569.41 622.1 571.68 621.39 572.6 621.37 574.69 620.63 576.75 621.26 579.79 620.23 581.74 618.81 581.12 614.73 583.03 611.51 583.44 608.46 582.31 606.37 582.28 605.65 583.38 603.06 589.64 602.22 590.84 600.43 589.83 597.87 592.41 595.98 593.84 593.75 594.12 589.9 595.96 587.23 595.53 586.85 598.09 588.38 598.79 588.78 599.98 588.56 603.15 589.13 603.94 588.19 607.82 586.72 610.75 588.4 611.77 590.13 613.75 589.26 615.7 586.99 617.3 587.59 621.45 588.29 622.37 587.65 626.27 587.11 628.06 585.38 630.05 586.51 631.5 589.09 632.72 591.18 637.23 592.57 643.36 594.12 644.49 592.16 646.91 593.31 648.71 593.26 649.56 594.52 650.92 594.33 652.47 596.2 653.93 595.26 658.13 597.12 660.51 595.49 663.67 597.6 665.5 598.69 668.43 599.39 669.5 599.69 672.55 597.64 676.8 596.31 677.35 595.91 679.35 594.08 682.29 589.84 687.83 587.86 688.01 586.75 688.74 585.05 688.42 584.54 689.42 583.86 693.68 582.31 695.48 581.93 697.24 580.98 698.28 578.63 699.93 577.06 702.33 576.12 703.23 574.93 708.35 574.63 711.32 573.52 712.34 571.64 718.26 569.85 718.31 568.34 721.39 567.27 722.67 566.52 724.37 566.93 725.43 570.3 725.83 568.51 727.02 567.2 727.22 567.33 728.85 565.17 729.98 563.27 728.77 561 728.71 555.68 732.03 554.49 733.06 549.99 734.88 548.41 734.48 546.63 735.14 543.63 735.2 541.91 735.7 541.13 736.49 538.07 737.19 534.76 739.08 532.86 739.18 531.53 741.39 528.37 744.19 526.39 744.93 523.31 744.69 522.12 746.18 522.7 750.45 522.02 751.62 518.18 752.97 517 754.12 514.08 754.3 511.83 755.28 507.42 755.16 504.77 756.35 503.69 755.78 502.78 754.26 501.01 753.48 500.21 752.13 497.78 752.43 492.43 750.36 493.01 746.8 492.8 745.08 491.53 739.73 490.35 739.12 489.25 737.7 489.17 736.78 489.99 734.95 491.24 733.93 491.11 732.11 492.9 728.51 492.78 726.39 494.16 725.61 494.75 723.58 495.49 722.59 492.58 718.36 493.03 714.6 495.19 712.64 495.92 711.23 496 709.88 496.75 709.17 499.39 708.59 497.72 700.35 495.74 698 494.51 695.55 493.08 691.88 494.24 689.56 495 686.78 494.56 686.49 493.01 683.41 490.34 679.37 488.81 673.97 489.59 672.5 490.88 671.95 491.23 668.98 490.81 667.12 488.34 664.03 485.95 662.43 485.09 659.76 483.58 658.08 482.76 655.73 481.77 654.92 482.52 652.83 483.7 651.26 484.62 646.18 487.52 645.84 488.43 645.4 489.65 646.56 490.82 646.45 491.42 644.63 493.12 641.52 494.69 639.73 497.4 638.56 497.51 637.3 500.39 634.16 500.4 631.79 499.44 629.75 499.8 628.59 498.61 624.36 498.07 623.5 496.36 622.89 496.04 622.08 496.76 620.63 497.13 617.69 495.69 616.04 494.96 614.17 490.47 613.49 489.49 613.07 488.49 610.71 486.94 607.95 486.04 605.04 484.54 603.76 484.34 599.57 484.82 598.61 485 595.52 485.46 592.6 486.89 590.66 487.15 589.51 488.78 586.47 489.21 582.78 489.96 582.02 490.07 580.45 489.54 578.71 489.98 576.26 489.91 574.22 488.68 569.61 489.49 568.35 490.62 563.46 490.61 561.52 491.93 557.15 491.99 554.79 491.28 550.45 490.21 547.01 489.32 546.17 487.3 545.51 486.5 544.01 486.14 540.54 486.23 538.78 484.92 538.01 480.66 536.2 478.39 536.48 476.51 535.82 473.56 533.76 473.63 531.55 472.81 528.22 472.1 527.46 472.17 525.23 469.94 522.76 470.32 521.85 474.78 523.21 476.39 523.5 479.47 522.69 481.92 521.15 486.03 521.26 487.34 519.28 487.08 517.24 489.24 516.55 491.12 516.63 491.67 515.24 494.99 511.91 498.93 509.87 500.38 510.41 501.63 511.53 503.2 511.82 505.03 511.42 507.02 511.63 509.2 514.55 510.2 514.54 511.54 511.08 509.81 508.73 508.91 507.01 509.56 505.1 511.09 503 511.49 501.52 513.88 497.12 516.22 493.9 521.12 494.54 523.37 492.95 523.62 491.95 525.19 490.58 527.77 494.35 529.86 495.91 531.35 498.01 534.39 499.91 534.31 502.35 534.93 503.72 536.31 505.04 536.13 506.67 536.69 507.44 539.79 509.54 540.67 509.52 542.38 510.53 543.02 512.97 544.53 514.37 544.11 515.48 546.9 519.74 548.94 519.07 549.96 517.37 550.87 517.29 552.26 514.9 552.17 513.09 552.82 511.97 555.47 512.26 556.07 510.98 557.85 510.72 558.89 508.74 560.44 508.6 561.12 506.98 562.95 505.91 564.57 503.84 565.84 503 566.23 500.84 567.29 500.89 568.71 499.3 569.78 498.93 570.56 500.95 573.25 501.42 574.33 500.51 576.57 500.96 577.35 500.69 580.04 503.04 581.34 503.3 583.18 505.04 585.34 505.39 586.19 504.6 587.76 505.59 591.59 507.32 592.87 507.33 595.92 505.97 596.82 506.35 598.23 508.15 600 508.14 602.32 509.35 604.89 511.85 605.46 514.72 606.45 514.14 609.31 514.6 610.64 515.99 612.92 517.61 615.32 514.74 618.07 513.87 620.33 513.88 620.98 511.74 622.39 510.61 626.15 509.14 626.94 510.36 629 509.72 631.98 509.78 633.02 510.76 633.18 512.32 634.6 512.84 636.72 515.77 637.98 519.01 639.78 519.76 641.11 522.89 642.6 523.22 645.01 522.5 646.81 523.44 648.46 526.56 Z" id="37070390"/>
<path d="M 443.53 632.95 443.57 636.06 445.12 638.2 446.76 638.76 447.96 642.97 448.91 645.35 450.28 646.69 450.84 648.12 451 650.1 452.3 649.7 459.22 651.15 461.39 650.94 463.96 649.86 466.05 649.88 468.44 648.41 473.55 646.67 474.25 645.55 476.29 645.26 481.19 645.19 483.31 645.37 484.62 646.18 483.7 651.26 482.52 652.83 481.77 654.92 482.76 655.73 483.58 658.08 485.09 659.76 485.95 662.43 488.34 664.03 490.81 667.12 491.23 668.98 490.88 671.95 489.59 672.5 488.81 673.97 490.34 679.37 493.01 683.41 494.56 686.49 495 686.78 494.24 689.56 493.08 691.88 494.51 695.55 495.74 698 497.72 700.35 499.39 708.59 496.75 709.17 496 709.88 495.92 711.23 495.19 712.64 493.03 714.6 492.58 718.36 495.49 722.59 494.75 723.58 494.16 725.61 492.78 726.39 492.9 728.51 491.11 732.11 491.24 733.93 489.99 734.95 489.17 736.78 489.25 737.7 487.43 736.87 484.13 737.75 481.58 737.03 479.16 735.75 477.49 737.36 476.2 737.6 475.21 736.82 472.33 737.08 471.03 739.45 469.47 740.86 463.92 747.27 459.73 753.2 456.94 754.63 456.69 757.16 453.43 756.69 451.71 759.95 449.46 760.79 447.14 763 446.53 761.65 443.53 760.36 442.24 758.71 442.24 756.97 441.49 755.54 440.66 752.6 439.66 751.55 436.9 750.44 434.11 751.5 431.11 750.92 430.21 751.19 428.82 749.91 427.77 748.13 426.94 747.92 425.43 748.73 421.85 749.36 420.1 750.14 416.91 749.89 415.14 751.05 413.4 753.77 412 754.46 408.83 750.63 407.4 750.73 406 750.06 403.33 750.54 400.38 751.71 397.35 749.63 395 748.57 393.97 750.45 393.62 752.55 394.21 755.21 393.92 756.39 392.29 757.52 388.89 757.94 387.4 760.44 385.71 761.02 383.49 759.23 382 755.22 381.02 753.66 372.9 749.49 369.92 748.42 367.28 748.66 364.23 749.59 362.2 749.85 360.03 746.24 360.04 743.84 359.6 742.98 357.88 742.21 356.9 740.18 356.9 738.03 355.11 733.36 350.38 734.16 348 734.82 344.84 734.95 343.67 737.06 342.91 737.37 340.68 736.58 338.99 736.85 338.35 736.35 337.65 730.4 335.18 727.13 333.1 725.01 331.29 725.12 329.67 721.14 327.73 721.5 325.39 719.31 325.05 718.41 325.55 717.4 324.16 713.45 324.58 712.93 323.55 708.74 323.73 706.64 324.62 703 324.22 701.69 325.04 700.47 322.17 694.96 321.57 691.16 319.85 688.34 317.41 686.68 315.05 684.54 310.56 682.23 309.53 681.09 306.81 679.35 304.39 678.37 302.1 676.28 299.53 675.47 299.46 673.78 298.1 672.14 296.9 669.41 297.77 669.07 296.08 665.99 295.2 663.68 295.69 662.79 296.01 660.2 300.87 657.47 301.78 655.85 304.12 653.48 306.07 652.33 307.57 650.26 310.46 650.64 313.28 650.6 315.74 648.76 316.41 647.02 318.94 644.41 322.17 639.17 322.2 638.21 327.37 637.09 329.44 634.4 331.43 632.37 333.33 630.88 334.35 628.93 333.82 627.16 333.19 623.01 333.79 621.26 333.47 620.42 333.56 616.98 334.51 615.74 335.46 616.7 337.67 616.62 340.28 615.95 342.14 616.39 342.67 617.07 342.8 619.79 343.44 622.53 345.21 623.57 347.34 626.32 347.93 627.72 349.98 626.49 352.14 623.92 352.67 622.47 356.01 618.7 358.49 616.7 360.29 617.55 364.09 615.47 368.67 613.81 370.15 615.02 370.8 617.66 372.01 620.53 371.67 623.64 374.09 625.82 375.67 628.12 379.21 630.04 379.99 629.89 382.08 626.48 383.23 625.63 384.6 625.51 387.49 627.05 389.18 628.92 388.31 632.68 390.82 633.5 387.69 636.73 386.41 636.83 390.5 640.93 391.48 641.49 392.31 643.64 393.61 643.9 394.86 642.26 395.86 641.86 397.25 642.34 398.65 644.57 399.58 644.35 401.55 646.32 405.19 646.67 407.94 649.96 411.77 653.05 412.65 655.28 412.5 657.11 415.43 656.38 417.36 654.57 419.28 654.79 421.55 653.53 423.34 650.55 425.84 649.65 426.08 648.29 428.02 647.46 429.38 645.02 432.92 641.37 432.39 639.49 434.67 637.1 438.38 635.33 438.92 634.15 441.62 634.37 443.53 632.95 Z" id="37070400"/>
<path d="M 497.45 409.96 497.6 411.34 497.22 413.64 497.93 414.76 496.85 415.45 495.01 422.65 491.54 429.49 490.88 430.5 485.78 432.39 483.42 434.5 480.21 440.53 481.37 449.46 481.37 453.97 483.75 457.52 483.81 459.56 484.32 461.77 483.33 463.76 481.09 466.88 478.24 469.77 476.85 470.23 475.05 471.75 473.71 472.27 470.28 472.91 466.25 472.54 459.78 469.94 457.39 468.1 450.74 462.36 448.83 461.15 447.54 460.99 445.31 461.89 442.98 462.12 437.86 462.24 432.94 462.1 432.36 459.01 434.89 457.41 432.22 453.05 434.33 451.72 432.58 449.41 430.43 450.56 430.27 449.02 431.13 448.57 430.6 447.13 431.9 445.3 429.18 444.94 429.61 443.96 429.09 441.74 430.54 437.33 430.72 434.4 433.01 431.82 434.21 429.62 435.01 427.2 435.02 426 432.73 422.35 429.61 421.67 428.81 416.39 430.67 410.44 435.62 405.41 436.95 405.35 438.47 404.46 438.94 403.43 440.13 402.8 444.73 401.65 445.82 400.08 446.19 396.84 445.4 395.57 445.48 394.14 444.75 391.25 444.15 387.33 446.14 385.55 446.67 384.54 448.28 383.24 447.98 380.97 446.52 379.79 447.82 374.77 446.07 372.74 445.2 371.03 445.85 368.22 445.69 367.51 447.29 365.5 447.74 364.29 451 362.95 452.44 361.85 454.23 359.14 456.3 357.84 457.2 358.4 458.76 361.93 460.49 363.77 459.79 364.84 459.97 368.72 461.3 370.44 461.9 372.57 462.67 378.34 463.59 381.17 465.92 383.5 466.22 385.21 468.51 389.91 469.2 390.51 470.04 393.85 469.61 394.64 466.97 396.61 466.62 399.28 467.25 401.19 468.61 403.32 469.67 405.8 469.45 406.95 471.8 412.35 470.41 416.7 471.8 418.05 471.55 419.04 473.18 419.69 474.87 421.2 475.72 422.55 477.35 419.8 477.67 416.71 480.22 413.48 482.86 415.63 484.92 416.79 487.01 414.09 488.71 414.12 488.95 413.03 490.54 409.97 491.65 410.88 495.08 410.03 497.45 409.96 Z" id="37070510"/>
<path d="M 458.28 314.65 460.24 317.39 459.69 320.3 460.13 323.44 459.22 325.04 459.09 328.95 457.9 329.22 456.89 332.49 458.09 334.06 457.56 339.37 458.18 340.29 458.33 343.63 458.66 344.83 459.8 345.2 458.04 348.87 457.97 351.28 457.28 353.54 456.48 354.54 456.3 357.84 454.23 359.14 452.44 361.85 451 362.95 447.74 364.29 447.29 365.5 445.69 367.51 445.85 368.22 445.2 371.03 446.07 372.74 447.82 374.77 446.52 379.79 447.98 380.97 448.28 383.24 446.67 384.54 446.14 385.55 444.15 387.33 444.75 391.25 445.48 394.14 445.4 395.57 446.19 396.84 445.82 400.08 444.73 401.65 440.13 402.8 438.94 403.43 438.47 404.46 436.95 405.35 435.62 405.41 430.67 410.44 428.81 416.39 429.61 421.67 432.73 422.35 435.02 426 435.01 427.2 434.21 429.62 433.01 431.82 430.72 434.4 430.54 437.33 429.09 441.74 429.61 443.96 429.18 444.94 431.9 445.3 430.6 447.13 431.13 448.57 430.27 449.02 430.43 450.56 432.58 449.41 434.33 451.72 432.22 453.05 434.89 457.41 432.36 459.01 432.94 462.1 430.75 461.91 429.3 462.3 426.36 464.81 426.63 465.72 422.51 468.78 421.05 470.74 418.66 472.99 416.21 473.62 413.93 468.89 415.42 467.96 414.78 464.97 414.78 462.08 413.47 457.59 409.89 455.4 407.98 454.77 406.87 453.6 409.17 452.36 409.71 450.18 407.18 446.76 405.97 445.61 403.41 444.36 402.44 443.36 400.98 438.71 401.13 436.44 402.18 435.61 402.97 432.33 403.91 430.04 403.75 421.11 403.86 418.45 403.12 416.51 401.41 417.72 399.57 418.25 398.35 419.55 397.05 419.25 396.11 419.93 394.78 416.99 391.73 412.6 389.16 413.94 384.7 414.55 381.4 413.18 379.65 410.11 377.24 409.86 378.79 408.39 378.18 406.8 378.31 405.37 376.32 404.14 376.29 402.55 375.48 401.85 372.76 397.27 373.69 396.42 375.18 391.53 377.84 387.97 377.39 386.63 377.55 384.38 378.31 382.6 377.88 381.95 378.73 380.15 378.87 377.82 379.75 376.32 379.69 372.76 379.22 370.84 379.95 370.19 379.98 367.08 379.35 366.11 379.53 364.27 375.4 362.41 374.7 361.84 375.74 359.32 378.16 358.34 378.31 357.55 373.26 351.93 372.36 349.36 372.38 345.53 372.76 343.83 371.77 343.11 370.07 340.67 370.3 338.66 369.7 336.91 371.23 333.71 369.53 332.56 369.12 331.45 368.52 325.87 370.86 325.69 372.58 327.39 374.24 325.89 375.72 326.31 375.83 325.02 379.04 321.4 378.99 320.22 380.3 319.23 382.2 318.87 383.81 318.02 387.47 317.76 389.76 317.84 394.03 320.32 398.13 321.78 401.32 324.9 402.93 327.89 403.67 334.62 405.38 340.44 406.18 342.55 408.88 346.9 413.13 349.76 413.07 351.64 416.01 350.89 416.9 348.91 419.23 347.89 421.69 346.38 422.25 343.44 421.91 340.84 422.68 338.49 424.27 337.92 424.76 334.32 426.38 333.41 428.62 328.9 428.56 327.92 429.35 326.12 433.78 325.38 434.33 324.06 437.97 324.14 438.61 321.39 440.11 318.96 439.51 316.5 442.69 316.75 444.86 317.95 445.89 316.08 447.45 316.36 448.99 315.47 449.32 314.53 452.08 313.83 452.99 313.01 454.27 313.26 455.99 315.73 457.3 315.71 458.28 314.65 Z" id="37070520"/>
<path d="M 416.21 473.62 411.63 475.85 407.99 479.06 407.75 479.94 405.11 484.53 402.84 490.03 402.42 490.59 402.61 497.44 402.63 504.63 396.08 506.8 393.13 509.1 389.59 504.04 387.85 504.52 387.47 503.35 385.05 501.72 381.93 502.27 379.74 501.9 377.37 502.12 377.28 501.23 375.48 498.65 374.5 497.74 374.49 495.49 372.72 495.49 369.49 496.22 368.72 492.65 368.22 492.05 367.89 488.94 364.9 482.89 365.06 480.19 361.37 475.82 360.56 474.37 356.9 471.41 355.83 471.67 353.43 469.6 346.99 469.14 344.06 470.6 342.47 470.87 342.65 472.93 339.95 471.7 338.03 471.59 335.76 472.09 334.08 470.79 333.13 471.11 331.09 468.84 328.58 469.19 327.09 468.81 325.13 469.27 322.59 468.82 322.2 470.36 321.34 471.21 320.47 470.74 316.71 469.83 314.65 469.82 312.99 468.95 311.04 467.09 310.29 465.9 310.1 462.23 310.91 458.94 310.96 457.65 309.88 456.38 309.39 453.94 309.8 451.67 310.35 451.26 311.75 452.46 313.22 451.61 315.23 452.22 316.65 451.74 318 449.83 319.05 449.29 319.56 447.84 319.26 445.98 319.93 444.78 319.73 442.15 319.17 440.98 319.91 438.62 319.78 433.92 319.95 432.36 321.25 431.51 323.38 431.99 324.43 431.39 326.4 429.42 329.68 430.54 331.03 431.34 333.62 429.36 333.84 428.71 336.18 428.65 337.6 430.89 339.62 432.44 343.07 431.61 345.78 432.03 346.81 433.94 348.85 433.11 350.41 434.45 351.49 434.5 352.55 432.5 354.65 429.34 356.55 430.03 357.47 425.73 358.52 424.15 360.75 423.21 361.85 421.51 362.03 419.13 363.46 417.95 365.99 417.08 372.53 415.49 372.22 412.19 374.26 412.28 376.46 411.39 377.24 409.86 379.65 410.11 381.4 413.18 384.7 414.55 389.16 413.94 391.73 412.6 394.78 416.99 396.11 419.93 397.05 419.25 398.35 419.55 399.57 418.25 401.41 417.72 403.12 416.51 403.86 418.45 403.75 421.11 403.91 430.04 402.97 432.33 402.18 435.61 401.13 436.44 400.98 438.71 402.44 443.36 403.41 444.36 405.97 445.61 407.18 446.76 409.71 450.18 409.17 452.36 406.87 453.6 407.98 454.77 409.89 455.4 413.47 457.59 414.78 462.08 414.78 464.97 415.42 467.96 413.93 468.89 416.21 473.62 Z" id="37070530"/>
<path d="M 484.32 461.77 488.22 461.6 489.47 460.78 491.47 461.16 493.16 462.11 494.14 462.05 494.61 465.89 495.18 467.16 498.17 469.06 499.4 471.6 498.71 472.21 497.11 475.51 496.24 476.41 493.39 477.27 492.85 479.31 493.1 480.9 491.63 482.32 491.26 483.32 488.95 484.03 486.74 482.81 485.13 483.14 483.31 485.51 479.09 487.17 478.24 489.27 475.84 487.75 474.14 490.16 472.83 490.48 471.34 492.33 470.49 494.09 469.19 495.01 465.49 495.82 464.59 497.15 461.67 499.25 460.41 499.78 459.3 499.36 458.72 498.18 457.19 496.98 454.54 497.96 453.32 495.81 453.72 494.94 452.58 493.12 452.75 489.91 451.86 489.17 450.35 490.99 446.59 492.48 444.96 492.04 442.82 492.49 442.37 491.84 440.51 491.26 436.93 493.41 436.01 493.05 430.79 496.38 429.63 496.27 425.18 491.17 421.88 486.12 420.71 484.95 421.41 481.34 423.07 476.96 422.08 474.31 418.73 476.28 417.79 475.13 416.97 475.61 416.21 473.62 418.66 472.99 421.05 470.74 422.51 468.78 426.63 465.72 426.36 464.81 429.3 462.3 430.75 461.91 432.94 462.1 437.86 462.24 442.98 462.12 445.31 461.89 447.54 460.99 448.83 461.15 450.74 462.36 457.39 468.1 459.78 469.94 466.25 472.54 470.28 472.91 473.71 472.27 475.05 471.75 476.85 470.23 478.24 469.77 481.09 466.88 483.33 463.76 484.32 461.77 Z" id="37070540"/>
<path d="M 516.22 493.9 513.88 497.12 511.49 501.52 511.09 503 509.56 505.1 508.91 507.01 509.81 508.73 511.54 511.08 510.2 514.54 509.2 514.55 507.02 511.63 505.03 511.42 503.2 511.82 501.63 511.53 500.38 510.41 498.93 509.87 494.99 511.91 491.67 515.24 491.12 516.63 489.24 516.55 487.08 517.24 487.34 519.28 486.03 521.26 481.92 521.15 479.47 522.69 476.39 523.5 474.78 523.21 470.32 521.85 469.94 522.76 472.17 525.23 472.1 527.46 472.81 528.22 473.63 531.55 473.56 533.76 476.51 535.82 478.39 536.48 480.66 536.2 484.92 538.01 486.23 538.78 486.14 540.54 486.5 544.01 487.3 545.51 489.32 546.17 490.21 547.01 491.28 550.45 491.99 554.79 491.93 557.15 490.61 561.52 490.62 563.46 489.49 568.35 488.68 569.61 489.91 574.22 489.98 576.26 489.54 578.71 490.07 580.45 489.96 582.02 489.21 582.78 488.78 586.47 487.15 589.51 486.89 590.66 485.46 592.6 485 595.52 484.82 598.61 484.34 599.57 484.54 603.76 486.04 605.04 486.94 607.95 488.49 610.71 489.49 613.07 490.47 613.49 494.96 614.17 495.69 616.04 497.13 617.69 496.76 620.63 496.04 622.08 496.36 622.89 498.07 623.5 498.61 624.36 499.8 628.59 499.44 629.75 500.4 631.79 500.39 634.16 497.51 637.3 497.4 638.56 494.69 639.73 493.12 641.52 491.42 644.63 490.82 646.45 489.65 646.56 488.43 645.4 487.52 645.84 484.62 646.18 483.31 645.37 481.19 645.19 476.29 645.26 474.25 645.55 473.55 646.67 468.44 648.41 466.05 649.88 463.96 649.86 461.39 650.94 459.22 651.15 452.3 649.7 451 650.1 450.84 648.12 450.28 646.69 448.91 645.35 447.96 642.97 446.76 638.76 445.12 638.2 443.57 636.06 443.53 632.95 442.89 629.5 444.36 628.74 444.04 625.46 443.58 623.93 445.12 621.54 447.65 615.33 447.98 613.03 449.6 611.52 451.69 610.73 452.39 608.04 453.1 607.11 452.38 604.21 453.29 604.1 453.63 602.58 455.05 599.29 453.56 598.71 452.04 596.92 449.22 596.89 449.44 575.11 451.82 575.13 451.78 573.59 451.13 572 451.71 569.19 450.78 566.05 448.61 561.25 446.59 558.93 445.87 557.64 443.03 557.19 441.84 558.02 440.96 557.23 439.35 557.73 437.47 559.62 435.95 560.55 432.88 560.07 431.36 560.35 429.02 559.67 427.3 557.61 426.9 558.77 425.26 556.71 419.36 555.67 418.56 558.95 417.55 560.29 415.91 563.38 410.81 563.48 408.19 564.14 409.69 562.14 410.3 559.4 410.67 556.31 412.39 551.11 407.47 542.72 406.57 540.88 404.48 538.07 403.94 535.24 404.11 525.41 403.87 520.71 405.12 517.61 404.44 513.96 403.28 509.9 402.63 504.63 402.61 497.44 402.42 490.59 402.84 490.03 405.11 484.53 407.75 479.94 407.99 479.06 411.63 475.85 416.21 473.62 416.97 475.61 417.79 475.13 418.73 476.28 422.08 474.31 423.07 476.96 421.41 481.34 420.71 484.95 421.88 486.12 425.18 491.17 429.63 496.27 430.79 496.38 436.01 493.05 436.93 493.41 440.51 491.26 442.37 491.84 442.82 492.49 444.96 492.04 446.59 492.48 450.35 490.99 451.86 489.17 452.75 489.91 452.58 493.12 453.72 494.94 453.32 495.81 454.54 497.96 457.19 496.98 458.72 498.18 459.3 499.36 460.41 499.78 461.67 499.25 464.59 497.15 465.49 495.82 469.19 495.01 470.49 494.09 471.34 492.33 472.83 490.48 474.14 490.16 475.84 487.75 478.24 489.27 479.09 487.17 483.31 485.51 485.13 483.14 486.74 482.81 488.95 484.03 491.26 483.32 491.63 482.32 493.1 480.9 492.85 479.31 493.39 477.27 496.24 476.41 497.11 475.51 498.71 472.21 499.4 471.6 503.45 472.58 504.88 475.89 504.67 478.86 505.85 481.24 506.51 481.49 507.35 483.95 508.66 484.45 510.39 484.19 511.05 483.26 514.48 483.13 515.73 486.96 516.76 489.24 516.75 491.79 516.22 493.9 Z" id="37070550"/>
<path d="M 322.2 638.21 320.14 637.93 318.97 637.26 317.46 635.5 316.97 634.07 314.87 632.96 313.91 630.41 313.74 627.37 311.99 626.49 308.02 625.87 304.5 622.6 303.55 622.12 300.32 621.92 297.82 620.17 296.03 619.82 293.38 617.98 293.13 616.85 291.92 616.34 289.48 617.97 288.9 616.2 287.79 616.11 287.05 612.77 286.65 609.5 287.13 606.44 286.27 601.76 284.81 598.84 284.05 597.55 285.85 594.65 287.46 591.19 288.34 587.34 288.25 584.29 287.69 580.67 286.75 577.6 282.23 572.95 282.78 569.67 286.89 566.33 288.25 564.39 290.08 563.09 288.85 560.13 289.64 558.44 290.84 557.44 293.12 556.37 293.64 555.26 296.06 554.24 297.8 554.17 298.71 552.49 298.38 550.15 296.82 549 297.02 547.98 296.54 544.95 295.41 543.36 293.88 542.72 294.35 539.56 295.27 538.98 295.76 536.18 297.49 535.04 300.73 535.77 302.9 534.5 302.14 533.37 303.53 531.44 302.29 523.67 301.39 521.8 302.71 521.11 304.63 521.1 305.29 516.25 305.06 515.56 302.76 514.52 301.75 510.32 300.45 508.2 301.81 507.15 302.69 502.86 301.97 499.9 302.87 498.03 303.74 498.18 304.99 496.73 307.61 496.32 308.48 493.81 309.7 493.38 311.03 491.74 313.03 492.51 313.87 493.34 315.5 493.53 318.89 490.28 320.42 486.86 321.9 485.34 322.01 483.21 321.84 478.71 323.42 474.83 321.81 472.48 321.34 471.21 322.2 470.36 322.59 468.82 325.13 469.27 327.09 468.81 328.58 469.19 331.09 468.84 333.13 471.11 334.08 470.79 335.76 472.09 338.03 471.59 339.95 471.7 342.65 472.93 342.47 470.87 344.06 470.6 346.99 469.14 353.43 469.6 355.83 471.67 356.9 471.41 360.56 474.37 361.37 475.82 365.06 480.19 364.9 482.89 367.89 488.94 368.22 492.05 368.72 492.65 369.49 496.22 372.72 495.49 374.49 495.49 374.5 497.74 375.48 498.65 377.28 501.23 377.37 502.12 379.74 501.9 381.93 502.27 385.05 501.72 387.47 503.35 387.85 504.52 389.59 504.04 393.13 509.1 396.08 506.8 402.63 504.63 403.28 509.9 404.44 513.96 405.12 517.61 403.87 520.71 404.11 525.41 403.94 535.24 404.48 538.07 406.57 540.88 407.47 542.72 412.39 551.11 410.67 556.31 410.3 559.4 409.69 562.14 408.19 564.14 410.81 563.48 415.91 563.38 417.55 560.29 418.56 558.95 419.36 555.67 425.26 556.71 426.9 558.77 427.3 557.61 429.02 559.67 431.36 560.35 432.88 560.07 435.95 560.55 437.47 559.62 439.35 557.73 440.96 557.23 441.84 558.02 443.03 557.19 445.87 557.64 446.59 558.93 448.61 561.25 450.78 566.05 451.71 569.19 451.13 572 451.78 573.59 451.82 575.13 449.44 575.11 449.22 596.89 452.04 596.92 453.56 598.71 455.05 599.29 453.63 602.58 453.29 604.1 452.38 604.21 453.1 607.11 452.39 608.04 451.69 610.73 449.6 611.52 447.98 613.03 447.65 615.33 445.12 621.54 443.58 623.93 444.04 625.46 444.36 628.74 442.89 629.5 443.53 632.95 441.62 634.37 438.92 634.15 438.38 635.33 434.67 637.1 432.39 639.49 432.92 641.37 429.38 645.02 428.02 647.46 426.08 648.29 425.84 649.65 423.34 650.55 421.55 653.53 419.28 654.79 417.36 654.57 415.43 656.38 412.5 657.11 412.65 655.28 411.77 653.05 407.94 649.96 405.19 646.67 401.55 646.32 399.58 644.35 398.65 644.57 397.25 642.34 395.86 641.86 394.86 642.26 393.61 643.9 392.31 643.64 391.48 641.49 390.5 640.93 386.41 636.83 387.69 636.73 390.82 633.5 388.31 632.68 389.18 628.92 387.49 627.05 384.6 625.51 383.23 625.63 382.08 626.48 379.99 629.89 379.21 630.04 375.67 628.12 374.09 625.82 371.67 623.64 372.01 620.53 370.8 617.66 370.15 615.02 368.67 613.81 364.09 615.47 360.29 617.55 358.49 616.7 356.01 618.7 352.67 622.47 352.14 623.92 349.98 626.49 347.93 627.72 347.34 626.32 345.21 623.57 343.44 622.53 342.8 619.79 342.67 617.07 342.14 616.39 340.28 615.95 337.67 616.62 335.46 616.7 334.51 615.74 333.56 616.98 333.47 620.42 333.79 621.26 333.19 623.01 333.82 627.16 334.35 628.93 333.33 630.88 331.43 632.37 329.44 634.4 327.37 637.09 322.2 638.21 Z" id="37070110"/>
</g>
</svg>