<?xml version="1.0"?>
<svg xmlns="http://www.w3.org/2000/svg" version="1.2" baseProfile="tiny" width="800" height="543" viewBox="0 0 800 543" stroke-linecap="round" stroke-linejoin="round">
<g id="dong">
<path d="M 418.36 185.56 419.3 185.67 420.06 187.49 421.03 188.36 420.12 190.4 421.37 191.54 422.44 190.97 423.85 191.19 424.04 193.02 424.98 194 425.68 192.64 427.19 192.1 429.52 192.59 432.73 192.53 434.84 194.14 436.04 193.57 438.88 193.95 440.1 195.25 441.16 195.97 442.88 196 443.61 197.48 442.24 197.82 440.86 200.55 441.49 203.44 441.94 204.52 443.16 205.2 445.97 207.23 449.37 206.45 451.39 208.03 452.66 207.85 453.46 206.69 454.35 206.33 454.69 207.23 456.36 208.88 454.75 210.84 454.68 211.81 455.26 213.06 456.4 213.57 457.22 214.44 458.68 215.39 460 217.95 460.13 219.83 462.18 221.89 462.31 224.33 464.19 226.33 464.38 228.11 464.23 229.53 464.69 230.65 464.75 232.22 465.19 233.63 467.01 232.61 470.43 231.97 470.43 232.99 471.31 235.48 472.43 237.86 474.27 237.11 475.13 237.73 476.3 237.54 478 238.22 478.77 239.85 480.14 240.32 481.15 241.57 481.82 241.87 481.72 242.91 482.48 243.48 483.21 245.67 482.15 247.43 482.38 248.31 483.97 249.83 484.79 251.38 486.38 252.99 486.85 253.81 487.01 255.84 486.63 256.98 486.2 259.63 485.21 260.91 485.33 262.6 485.02 263.74 482.9 266.8 481.88 268.61 479.98 270.21 480.94 270.99 480.96 272.32 481.88 273.54 481.96 277.78 481.09 279.54 481.21 281.37 480.76 283.59 480.96 284.89 480.72 287.55 479.52 287.91 479.89 290.49 480.94 292.61 480.4 293.94 479.58 294.97 478.1 293.36 476.33 291.98 474.12 289.97 470.41 289.29 469.27 289.3 468.37 288.67 468.32 287.82 465.9 288.19 465.08 288.91 463.71 289.07 463 288.26 461.67 289.7 461.61 291.89 460.95 292.61 460.47 294.39 459.8 295.46 458.56 296.31 456.56 299.26 454.95 300.23 454.71 301.61 453.58 302.43 451.9 305.99 450.63 305 448.01 304.64 446.69 305.04 445.47 304.75 444.67 305.64 443.92 307.62 443.65 309.95 442.98 312.04 443.12 314.45 442.83 315.8 442.23 316.11 440.36 315.21 437.69 315.17 436.52 316.56 434.55 316.56 432.84 314.42 431.54 315.47 429.73 316.27 428.77 315.68 426.22 315.77 424.19 313.66 423.35 314.18 421.86 314.06 419.93 315 418.62 314.81 417.05 313.78 415.7 311.88 413.83 313.28 411.93 313.35 410.27 317.39 410.09 318.71 407.54 320.1 406.47 321.05 406.17 322.08 403.95 322.65 403.03 323.39 401.69 322.87 400.74 323.59 400.6 324.39 399.08 325.74 397.6 326.61 396.41 326.27 395.44 325.23 394.22 322.2 392.82 322.02 390.88 320.48 388.62 320.44 386.72 320.83 384.6 320.66 383.36 320.08 382.36 320.25 380.84 319.02 380.71 318.44 379.62 317.56 377.77 315.16 375.42 314.84 374.17 315.43 372.37 316.79 370.47 316.19 368.25 316.59 367.25 315.91 366.93 313.25 365.57 311.25 364.59 310.68 363.95 307.65 362.29 307.26 361.03 304.67 358.89 303.27 358.31 301.65 359.2 300.24 359.5 298.42 359.08 296.62 359.27 294.99 358.29 293.57 356.55 291.8 355.05 290.94 353.92 287.75 354.64 287.05 355.81 284.85 354.77 283.93 354.24 281.25 349.38 279.28 348.02 277.73 348.34 276.11 349.01 274.62 348.72 272.72 348 271.27 346.71 270.16 345.94 268.62 344.53 267.14 344.71 264.21 343.32 260.95 341.98 260.62 341.61 259.95 341.29 257.36 340.85 251.61 338.77 248.67 338.68 247.62 337.52 246.47 336.86 244.71 334.55 241.97 334.26 241.26 331.04 236.66 329.04 234.92 328.21 234.82 325.7 235.79 325.29 236.19 322.35 236.53 321.59 236.99 318.59 236.2 317.09 237.32 315.44 237.42 313.79 238.28 312.62 237.68 310.63 234.92 307.19 233.32 303.99 232.31 300.63 232 300.88 229.99 300.29 229.05 300.8 228.24 300.63 226.91 299.92 226.3 300.05 224.68 299.63 223.02 299.85 222.36 299.24 220.82 299.99 219.34 299.76 218.12 300.54 216.37 298.6 211.83 298.7 210.61 297.99 209.06 297.79 207.64 298.56 205.27 300.19 204.09 299.8 202.45 298.95 201.67 298.96 200.67 298.27 199.78 296.66 199.72 296.23 198.97 294.6 198.05 295.57 194.81 295.27 194.22 295.58 191.46 296.26 189.68 296.97 186.36 297.75 185.8 296.85 184.08 296.9 183.17 295.88 182.42 295.32 180.96 294.07 179.29 294.92 176.29 296.16 176.31 298.63 175.56 299.45 174.96 301.52 174.67 303.33 175.19 304.74 176.08 306.01 175.24 308.11 174.57 310.17 174.32 310.84 174.67 312.5 174.42 313.85 172.96 315.65 171.48 316.34 170.43 317.4 169.51 316.64 168.3 316.59 166.45 315.98 165.49 316.09 164.33 317.56 162 317.66 160.49 318.2 159.21 317.1 156.58 315.91 155.34 315.67 154.25 314.87 153.25 313.97 151.18 315.04 150.38 315.53 148.34 316.52 147.34 317.87 146.64 321.58 147.22 322.08 146.86 324.27 147.57 325.46 147.43 326.95 147.93 327.6 147.67 330.21 147.8 331.02 146.88 332.5 146.79 334.26 145.46 334.88 144.07 336.23 144.53 338.01 144.64 339.74 146.56 341.79 147.5 342.26 148.32 343.34 147.71 344.57 146.54 346.3 145.51 348.39 142.9 348.58 141.58 349.22 140.44 350.1 140.16 352.01 135.65 353.64 133.32 355.34 133.59 356.46 131.86 359.82 130.5 359.61 129.25 360.39 126.54 361.5 125.78 366.21 128.18 367.12 129.71 367.32 130.61 369.1 134.42 370.95 136.05 371.91 138.45 373.11 139.79 374.07 142.86 375.56 144.38 375.67 145.52 378.2 146.18 379.65 145.67 382.07 145.36 383.96 144.3 385.21 144.99 387.65 145.04 388.66 146.01 389.71 145.73 391.57 146.69 394.64 149.68 396.69 150.68 398.44 152.51 399.53 154.21 399.84 155.37 401.85 156.52 403.41 158.6 401.96 160.1 401.52 161.69 401.6 163.08 401.03 163.33 399.78 165.52 399.99 166.6 401.36 168.44 402.2 169.22 401 171 399.69 174.05 400.15 175.65 400.77 179.37 400.96 181.35 402.03 183.9 401.99 185.11 402.47 185.94 402.02 187.34 402.28 188.15 402 189.3 402.63 193.18 403.69 195.26 405.09 195.67 406.96 196.68 407.47 197.24 408.51 197.02 410.26 200.64 411.09 201.14 411.98 200.33 412.51 198.68 413.93 197.16 414.38 195.84 414.41 193.59 415.36 192.89 415.26 191.17 416.53 189.58 416.62 188.64 417.47 187.77 418.36 185.56 Z" id="37520460"/>
<path d="M 180.35 19.21 181.45 19.95 183.18 20.34 185.98 21.57 187.9 21.4 189.69 22.67 190.05 23.57 191.57 25.57 189.52 28.5 188.6 29.29 187.43 31.06 186.56 31.5 185.85 33.21 185.11 34.1 185.52 37.96 186.45 39.76 186.74 41.67 187.42 44.39 186.76 47.35 187.33 48.02 188.54 48.19 189.91 47.32 191.76 47.92 192.57 49.17 195.05 51.98 197.05 53.38 200.39 55 201.52 57.2 201.69 58.22 202.57 59.16 203.77 59.52 204.55 60.25 207.4 61.22 208.88 63.17 210.1 63.72 210.99 63.49 211.88 64.99 213.3 65.95 212.78 66.91 212.69 69.47 211.86 70.22 210.84 73.33 211.71 74.5 212.79 76.7 214.6 78.45 217.51 78.82 219.95 79.38 221.48 80.2 223.63 80.48 224.98 81.32 226.26 82.52 227.17 82.91 227.93 83.91 229.71 85.4 233.66 87.44 236.71 87.35 237.4 88.47 239.95 90.07 240.57 91.05 242.25 92.91 243.96 93.82 243.77 94.22 243.96 99.63 244.21 100.81 243.29 103.52 243.93 103.78 244.13 104.96 244.84 106.14 248.3 108.64 250.68 108.59 251.73 108.95 253.25 111 254.18 114.61 254.02 116.42 255.02 118.54 254.36 121.42 254.24 122.82 256.72 124.2 259.26 125.87 261.87 125.47 264.09 127.76 266.22 130.59 266.64 132.22 266.51 133.96 266.62 136.36 267.05 137.99 267.87 138.24 268.94 139.37 270.66 139.99 272.15 141.58 274.25 142.07 275.67 143.74 277.11 144.84 276.58 145.68 275.88 147.79 276.6 152.27 275.6 154.13 275.37 155.05 273.88 157.42 273.46 159 275.77 160.41 277.73 160.86 278.91 162.39 280.36 163.06 283.05 165.79 284.42 166.51 284.76 168.43 284.4 169.03 284.97 170.62 286.9 171.32 289.12 174.45 293.87 175.4 294.92 176.29 294.07 179.29 295.32 180.96 295.88 182.42 296.9 183.17 296.85 184.08 297.75 185.8 296.97 186.36 296.26 189.68 295.58 191.46 295.27 194.22 295.57 194.81 294.6 198.05 296.23 198.97 296.66 199.72 298.27 199.78 298.96 200.67 298.95 201.67 299.8 202.45 300.19 204.09 298.56 205.27 297.79 207.64 297.99 209.06 298.7 210.61 298.6 211.83 300.54 216.37 299.76 218.12 299.99 219.34 299.24 220.82 299.85 222.36 299.63 223.02 300.05 224.68 299.92 226.3 300.63 226.91 300.8 228.24 300.29 229.05 300.88 229.99 300.63 232 299.24 233.07 296.09 234.02 295.35 235.29 295.05 237.15 293.52 238.43 291.98 238.34 288.57 237.23 288.6 236.99 288.63 236.29 287.58 234.76 287.03 234.46 286.29 232.83 286.8 229.94 287.62 227.49 287.22 226.15 287.53 225.11 285.54 223.26 284.64 221 283.76 220.65 282.86 219.54 281.8 219.41 280.36 218.56 279.12 217.22 276.54 216.76 274.4 217.39 271.58 215.62 269.94 216.36 268.89 216.33 267.08 216.98 265.8 217.95 263.58 217.18 263.13 216.37 262.27 216.1 262.02 213.3 260.24 212.44 260.74 210.39 260.39 208.21 259.17 207.22 259.16 205.01 258.54 204.04 257.77 201.99 258.28 201.6 258.05 199.44 260.1 198.18 260.25 197.37 261.87 195.93 261.2 194.92 260.7 192.1 259.05 191.81 257.88 190.4 255.4 189.55 252.6 188.17 251.1 188.71 250 189.66 249.77 190.79 247.44 192.75 245.2 192.84 243.62 192.52 242.93 193.22 241.48 192.24 238.89 190.15 237.91 186.65 237.18 185.5 237.31 183.37 238 180.96 238.41 180.36 238.39 176.21 235.37 173.51 235.28 171.92 233.22 171.48 232.99 169.62 232.07 168.17 232.83 167.3 232.36 165.65 229.97 163.96 227.07 163.74 225.27 163.35 221.51 163.18 220.31 163.79 219.67 164.61 218.39 164.72 216.71 163.22 216.36 164.29 214.71 166.55 213.38 169.32 210.52 169.04 209.22 168.53 208.12 168.9 205.48 166.57 203.88 165.42 202.75 163.88 201.6 161.27 200.17 160.39 198.34 160.32 197.12 159.15 195.37 158.08 192.83 157.82 190.48 158.56 188.72 156.75 187.13 156 185.82 155.42 184.84 155.81 183.32 155.65 181.99 154.28 180.68 153.79 178.65 151.2 179.05 150.08 177.63 148.25 175.33 146.8 174.81 146.19 175.5 144.32 174.07 142.97 173.57 142.05 172.92 139.34 170.35 137.28 169.35 134.91 171.31 131.74 173.88 129.58 175.53 127.02 175.99 125.81 176.57 123.13 176.51 121.76 177.02 119.47 178.4 116.52 179 113.63 177.38 111.59 176.17 109.72 173.03 106.2 171.25 105.02 170.83 101.58 169.91 99.3 169.07 95.91 169.83 93.45 168.19 92.53 168.19 90.64 166.58 88.34 166.08 86.21 164.81 82.48 163.86 82.53 163.23 80.59 161.49 78.87 160.85 78.58 159.97 76.82 159.99 75.7 159.04 73.5 157.43 73.33 156.36 71.98 155.67 71.9 154.6 70.58 153.74 70.47 152.59 69.46 151.41 69.32 149.43 67.4 148.39 67.77 145.58 66.68 144.65 66.53 143.51 65.61 142.27 65.97 140.06 66.14 139.02 63.32 138.19 62.52 138.66 61.52 137.35 56.26 136.29 55.13 134.69 54.87 132.19 53.73 130.21 51.46 128.67 52.51 127.25 53.1 126.17 52.49 125.26 50.81 124.01 50.56 122.67 48.9 121.6 48.06 120.33 45.68 123.77 44.6 126.31 43.02 131.3 41.35 134.8 40.61 140.74 37.54 143.59 36.32 147 33.44 146.95 32.01 150.18 28.84 154.99 25.44 157.4 22.39 159.87 19.98 162.1 18.36 168.43 15.22 169.33 16.7 170.81 17.54 173.77 18.74 175.96 18.87 178.81 18.21 180.35 19.21 Z" id="37520470"/>
<path d="M 678.11 511.02 678.76 513.5 679.66 515.51 677.26 516.75 675.02 517.56 675.91 519.47 676.72 520.09 677.91 521.7 677.14 522.78 677.4 523.48 677.21 525.14 675.1 530.3 671.69 533.32 670.62 537.5 668.69 541.78 666 542 662.98 541.13 657.2 538.32 654.02 537.66 652.62 537.2 649.62 537.46 647.97 536.43 647.16 536.67 644.11 536.69 643.13 536.32 641.21 536.3 640.37 535.73 637.15 536.08 634.02 538.22 633.06 537.51 630.76 535.18 628.56 533.24 628.45 532.6 625.21 528.86 622.63 528.83 620.28 527.54 618.92 526.04 618.99 525.25 618.1 523.31 615.5 523.99 614.21 524.05 611.2 523.52 609.81 525.39 610.1 526.23 609.6 527.98 608.72 528.47 607.76 529.91 608.5 531.17 608.36 532.73 607.64 533.37 607.35 534.62 604.54 535.85 602.6 537.14 601.53 536.31 600.11 534.69 599.06 534.35 598.8 532.39 597.02 530.67 595.32 529.65 593.72 529.59 592.71 528.47 590.68 527.91 590.25 528.3 588.92 528.18 588.15 527.29 584.83 529.47 582.79 529.66 581.05 530.5 578.33 527.41 577 528.05 575.82 527.45 574.81 527.86 575.85 528.9 575.12 529.82 573.76 530.42 572.04 530.04 569.95 531.83 567.52 531.91 567.49 530.95 566.8 528.66 565.86 528.79 564.25 528.17 562.39 528.71 560.11 528.9 558.41 530.4 557.03 529.91 555.01 530.98 553.72 531.36 550.11 530.38 548.12 530.71 547.25 528.77 546.31 528.82 545.25 528.17 544.91 527.48 542.48 527.21 541.32 527.37 537.66 525.9 537.52 522.14 538.22 520.88 539.55 519.66 540.08 516.83 540.89 516.57 542.08 515.04 542.59 514.39 542.52 512.75 543.43 510.61 543.71 508.9 545.01 508.37 547.46 506.57 549.41 506.08 550.26 505.56 550.31 502.86 549.85 501.33 550.85 498.86 552.66 498.86 554.07 499.18 555.94 498.87 555.85 496.36 554.91 494.15 552.56 492.6 550.63 490.47 551.3 488.67 550.38 487.19 550.04 485.03 549.04 483.83 547.75 483.04 548.49 477.4 546.47 473.56 545.62 470.49 548.07 469.12 549.7 469.1 552.71 468.58 553.55 467.62 555.65 467.51 558.38 468.21 559.2 467.21 559.27 466.38 560.39 464.83 560.55 463.9 561.98 462.54 562.12 461.61 562.91 461.27 564.27 460.07 564.45 459.29 563.94 458.26 565.48 456.83 567.4 454.04 567.79 452.85 567.78 451.36 567.33 449.49 567.9 445.98 571.45 442.15 572.17 440.09 573.02 438.63 574.73 437.37 575.77 437.11 578.27 435.67 578.7 432.69 579.76 431.95 582.17 431.37 583.18 429.92 588.61 428.62 589.77 426.74 593.34 422.54 595.06 420.2 599 426.12 601.46 429.58 601.27 432.15 602.44 433.32 603.3 435.26 605.97 439.52 607.76 441.7 607.69 442.57 608.7 443.62 609.3 445.75 610.52 448.14 610.8 450.2 611.85 451.21 611.95 452.15 613.48 453.92 614.54 453.97 615.62 454.88 617.08 455.04 619.21 457.99 619.7 459.1 619.44 460.81 618.83 461.95 619.46 464.25 616.59 465.79 615.49 465.97 614.28 469.18 613.73 469.5 612.18 472.32 611.61 474.06 610.64 474.9 608.88 477.06 610.13 481.09 609.93 483.11 610.3 484.5 612.06 486.89 613.03 486.79 615.08 485.61 618.2 486.81 619.41 487.52 622.56 486.51 624.15 486.54 625.67 487.03 628.49 489.12 629.89 490.88 630.78 491.28 631.11 492.07 632.61 492.02 636.6 491.25 637.98 490.64 639.56 489.15 642.59 487.93 644.42 489.79 645.76 490.15 648.15 490.41 649.29 490.14 650.38 488.65 651.45 488.03 652.14 487.11 653.62 487.41 654.75 487.26 656.06 487.58 657.85 486.89 659.53 487.21 661.34 488.95 662.27 488.94 663.51 487.22 664.84 487.18 666.53 486.12 667.62 486.33 668.63 484.89 669.18 483.18 671.42 482 671.36 484.15 671.09 485.58 671.83 488.06 673.42 490.05 674.21 491.59 675.18 494.59 675.68 494.75 677.37 498.01 677.57 499.08 677.68 502.84 676.11 505.43 676.93 508.34 677.18 510.04 678.11 511.02 Z" id="37520360"/>
<path d="M 600.84 402.85 599.05 405.76 598.77 409.15 598.34 411.49 599.21 412.14 598.21 417.68 598.37 418.97 596.93 418.7 595.34 419.46 595.06 420.2 593.34 422.54 589.77 426.74 588.61 428.62 583.18 429.92 582.17 431.37 579.76 431.95 578.7 432.69 578.27 435.67 575.77 437.11 574.73 437.37 573.02 438.63 572.17 440.09 571.45 442.15 567.9 445.98 567.33 449.49 567.78 451.36 567.79 452.85 567.4 454.04 565.48 456.83 563.94 458.26 564.45 459.29 564.27 460.07 562.91 461.27 562.12 461.61 561.98 462.54 560.55 463.9 560.39 464.83 559.27 466.38 559.2 467.21 558.38 468.21 555.65 467.51 553.55 467.62 552.71 468.58 549.7 469.1 548.07 469.12 545.62 470.49 546.47 473.56 548.49 477.4 547.75 483.04 549.04 483.83 550.04 485.03 550.38 487.19 551.3 488.67 550.63 490.47 552.56 492.6 554.91 494.15 555.85 496.36 555.94 498.87 554.07 499.18 552.66 498.86 550.85 498.86 549.85 501.33 550.31 502.86 550.26 505.56 549.41 506.08 547.46 506.57 545.01 508.37 543.71 508.9 543.43 510.61 542.52 512.75 542.59 514.39 542.08 515.04 539.45 512.87 539.63 510.53 538.18 510.22 537.23 508.8 535.56 508.23 534.53 506.92 533.06 507.15 531.15 509.27 529.31 509.87 527.48 509.1 526.4 507.39 523.36 506.76 522.63 505.85 520.99 505.91 519.48 505.04 518.52 505.13 517.95 505.88 513.11 508.05 512.06 508 511.02 509.33 509.29 509.36 509.12 510.09 508.06 510.64 507.34 512.13 507.07 513.41 506.44 513.79 506.46 514.97 505.83 516.66 503.93 515.41 502.24 514.88 501.38 512.81 499.59 510.44 499.94 508.19 499.68 506.3 496.82 504.69 497.46 502.85 495.7 501.57 495.79 499.54 492.93 499.48 492.95 497.29 490.88 496.26 489.34 495.76 488.45 497.61 484.04 497.88 484.33 499.57 484.01 500.72 482.37 501.25 480.68 502.75 479.38 502.84 478.62 502.1 477.28 502.2 475.01 501.33 473.3 503.55 473.5 504.79 472.1 506.72 471.18 507.11 469.84 508.4 469.04 508.65 468.89 509.5 467.13 511.06 466.36 513.29 463.21 518.51 461.08 517.35 457.9 516.23 456.66 511.12 456.34 508.73 455.3 507.85 453.01 504.69 453.27 503.64 455.62 502.71 456.97 500.99 458.12 497.24 458.63 492.34 456.42 490.99 454.65 490.45 454.19 489.7 456.19 488.87 458.71 487.19 459.56 486.25 459.68 484.93 459.16 482.64 457.15 482.14 456.05 480.59 458.18 478.82 458.87 477.4 458.53 476.52 456.92 473.89 456.97 473.33 455.72 472.14 456.34 470.66 454.11 468.52 456.05 467.17 457.48 465.74 458.4 465.69 459.71 465.02 462.33 464.11 461.59 461.5 462.63 460.32 462.75 459.03 464.71 458.45 463.19 456.37 462.37 454.26 461.25 453.86 461.18 452.25 460.66 451.25 460.98 450.21 460.75 447.2 462.36 446.94 462.51 446.13 463.43 444.97 463.32 442.99 462.67 440.95 463.35 438.01 462.37 436.77 461.22 436.35 460.13 435.41 459.51 434.34 458.8 434.23 458.63 433.12 457.42 431.68 456.78 431.63 456.08 428.83 457.57 425.93 457.85 422.23 458.85 419.89 457.76 416.87 457.33 415.12 459.14 413.82 459.2 411.69 460.29 410.49 461.04 408.67 461.17 407.13 461.97 406.06 462.1 405.22 464.06 404.63 465.65 403.85 466.9 404.13 467.9 402.58 470.29 402.04 471.99 402.12 472.56 401.52 475.28 400.91 477.25 401.14 477.55 399.95 477.4 398.31 477.81 396.03 482.22 395.32 482.72 393.91 482.47 393.09 482.66 391.29 483.11 390.53 484.71 390.04 485.74 389.36 486.85 387.03 487.75 384.03 488.41 382.81 489.23 382.21 490.46 380.22 490.68 378.91 490.12 377.66 489.2 376.93 488.67 375.27 489.13 373.47 490.17 373.05 493.68 370.48 494.47 370.81 495.22 369.7 497.56 365.34 497.1 364.59 497.34 362.71 497.85 362.02 499.25 361.73 499.72 360.17 499.01 358.14 499.25 357.44 499.68 356.56 501.1 356.98 502.11 358.37 503.54 357.17 504.27 355.9 505.62 356.71 506.18 357.6 507.9 358.54 508.67 358.58 509.43 357.83 511.34 357.14 512.25 358.64 512.12 359.57 514.4 361.07 515.69 361.6 515.35 363.03 516.88 364.72 518.3 364.07 518.73 363.23 521.19 363.05 521.44 364.9 524.05 365.77 525.13 365.52 526.04 366.02 526.38 368.16 525.74 369.02 525.66 370.37 526.37 371.49 528.07 371.6 529.25 372.66 530.76 373.36 532.72 373.32 533.57 372.93 533.64 371.59 534.45 370.28 534.04 369.62 535.52 367.12 536.21 367.05 537.38 367.74 538.1 366.86 538.89 366.78 539.15 365.75 540.68 364.58 542.02 365.64 542.68 365.72 543.16 362.61 543.06 360.84 543.5 359.82 545.63 360.11 547.18 358.9 549.91 359.79 550.69 360.28 551.74 360.03 553.66 360.6 554.4 361.53 556.02 360.44 557.74 361.67 558.84 360.49 560.38 360.08 561.09 359.28 560.67 357.93 563.39 355.25 564.23 352.06 565.63 350.36 566.98 349.53 567.72 351.62 569.04 354.13 571.19 356.18 573.04 357.29 573.97 359.76 574.6 363.93 574.36 364.43 573.92 368.05 574.61 368.93 574.42 370.12 575.47 371.24 575.97 372.88 576.02 376.13 576.61 376.46 577.39 379.12 577 381.21 577.51 383.49 578.95 385.19 580.36 386.43 583.81 386.96 585.34 387.75 587.79 388.15 590.57 389.47 593.74 390.34 595.55 391.69 599.53 392.77 600.15 393.4 602.58 394.07 603.75 394.97 603.55 398.62 602.16 400.81 600.97 401.82 600.84 402.85 Z" id="37520370"/>
<path d="M 479.58 294.97 479.91 297.14 481.35 297.99 482.46 299.56 483.42 301.99 483.25 303.63 484.33 305.43 484.04 306.78 483.32 307.54 483.83 309.91 483.72 310.82 484.34 312.28 483.39 315.36 484.98 315.81 486.21 317.25 488.53 316.97 488.17 318.81 487.11 320.01 486.21 322.88 486.31 324.04 487.02 327.26 486.83 328.23 485.75 329.1 485.65 331.21 485.14 333.6 483.27 336.31 481.98 337.51 480.88 337.72 480.9 339.08 480.48 340.88 480.2 344.02 481.94 345.48 484.15 343.97 485.96 344.69 486.36 345.45 487.49 346.16 488.84 345.76 489.27 344.9 490.6 344.9 491.67 345.77 492.15 346.7 494.37 347.4 495.69 346.3 496.43 347.74 497.53 348.52 497.81 350.84 498.73 353.87 497.63 354.18 497.79 356.08 499.25 357.44 499.01 358.14 499.72 360.17 499.25 361.73 497.85 362.02 497.34 362.71 497.1 364.59 497.56 365.34 495.22 369.7 494.47 370.81 493.68 370.48 490.17 373.05 489.13 373.47 488.67 375.27 489.2 376.93 490.12 377.66 490.68 378.91 490.46 380.22 489.23 382.21 488.41 382.81 487.75 384.03 486.85 387.03 485.74 389.36 484.71 390.04 483.11 390.53 482.66 391.29 482.47 393.09 482.72 393.91 482.22 395.32 477.81 396.03 477.4 398.31 477.55 399.95 477.25 401.14 475.28 400.91 472.56 401.52 471.99 402.12 470.29 402.04 467.9 402.58 466.9 404.13 465.65 403.85 464.06 404.63 462.1 405.22 461.97 406.06 461.17 407.13 461.04 408.67 460.29 410.49 459.2 411.69 459.14 413.82 457.33 415.12 457.76 416.87 458.85 419.89 457.85 422.23 457.57 425.93 456.08 428.83 456.78 431.63 454.69 431.52 452.74 431.11 451.02 429.59 449.3 430.37 448.08 428.16 446.55 427.07 445.42 425.89 444.17 425.33 443.57 424.57 442.08 423.54 440.19 422.84 437.06 422.43 435.68 421.42 433.02 422.44 431.39 422.7 430.04 421.77 429.66 421.02 427.73 418.96 425.19 418.32 423.85 417.47 421.64 416.65 418.86 416.83 416.7 418.28 414.44 418.83 412.38 418.66 411.08 418.08 409.28 418.02 406.92 416.7 406.63 416.03 407 414.44 406.7 413.51 405.69 412.52 405.35 409.96 404.12 407.55 402.67 406.49 400.76 407.54 398.73 406.72 397.67 407.51 395.27 407.32 395.12 406.64 393.78 405.68 392.58 405.48 390.84 405.87 390.24 405.18 388.02 405.21 387.33 404.65 386.05 404.56 384.53 403.91 383.82 404.24 381.86 403.59 378.24 403.32 377.74 404.57 376.12 405.8 375.93 407.52 374.9 408.88 372.76 409.7 373.02 410.77 370.74 411.93 366.57 412.72 365.54 412.34 364.67 411.44 362.08 410.16 361.82 411 357.99 410.7 356.25 412.15 354.58 413.15 352.05 412.93 351 411.53 349.53 412.81 347.08 411.72 346.7 407.82 347.18 406.9 345.83 406.07 344.47 404.76 344.47 401.47 344.23 399.44 344.28 396.93 342.82 396.2 343.05 394.02 341.86 392.67 341.44 389.8 340.83 388.68 338.66 387.58 338.12 386.83 338.41 384.61 339.42 382.04 340.84 380.01 341.51 378.38 342.21 375.87 343.62 376.12 344.46 375.74 346.84 375.95 348.17 374.63 350.17 373.4 348.81 371.67 348.69 370.13 349.22 367.29 347.23 365.2 346.78 363.88 347.56 362.53 346.82 359.4 346.9 357.98 349 356.21 349.42 355.38 350.92 350.43 348.81 349.74 348.29 350.05 346.61 349.1 346.55 347.46 345.24 347.38 346.28 344.49 346.11 342.61 345.65 341.74 348.86 341.19 349.29 340.95 349.47 338.92 350.54 335.92 350.22 334.17 350.63 333.78 354.22 332.47 354.83 331.8 356 331.66 357.81 332.29 360.33 331.54 362 331.75 363.22 331.02 364.84 330.54 366.07 328.79 365.88 327.06 366.13 326.02 364.79 325.49 362.97 322.75 362.66 321.38 363.59 319.25 364.69 318.9 366.21 316.9 367.25 315.91 368.25 316.59 370.47 316.19 372.37 316.79 374.17 315.43 375.42 314.84 377.77 315.16 379.62 317.56 380.71 318.44 380.84 319.02 382.36 320.25 383.36 320.08 384.6 320.66 386.72 320.83 388.62 320.44 390.88 320.48 392.82 322.02 394.22 322.2 395.44 325.23 396.41 326.27 397.6 326.61 399.08 325.74 400.6 324.39 400.74 323.59 401.69 322.87 403.03 323.39 403.95 322.65 406.17 322.08 406.47 321.05 407.54 320.1 410.09 318.71 410.27 317.39 411.93 313.35 413.83 313.28 415.7 311.88 417.05 313.78 418.62 314.81 419.93 315 421.86 314.06 423.35 314.18 424.19 313.66 426.22 315.77 428.77 315.68 429.73 316.27 431.54 315.47 432.84 314.42 434.55 316.56 436.52 316.56 437.69 315.17 440.36 315.21 442.23 316.11 442.83 315.8 443.12 314.45 442.98 312.04 443.65 309.95 443.92 307.62 444.67 305.64 445.47 304.75 446.69 305.04 448.01 304.64 450.63 305 451.9 305.99 453.58 302.43 454.71 301.61 454.95 300.23 456.56 299.26 458.56 296.31 459.8 295.46 460.47 294.39 460.95 292.61 461.61 291.89 461.67 289.7 463 288.26 463.71 289.07 465.08 288.91 465.9 288.19 468.32 287.82 468.37 288.67 469.27 289.3 470.41 289.29 474.12 289.97 476.33 291.98 478.1 293.36 479.58 294.97 Z" id="37520380"/>
<path d="M 586.16 230.08 586.53 230.44 587.21 232.59 588.16 233.5 588.35 234.4 589.2 235.33 589.31 236.49 590.28 238.1 590.17 240.23 590.97 242.32 590.51 243.86 590.85 244.44 590.91 246.38 589.92 248.33 590.32 248.86 589.68 250.45 590.71 252.53 591.39 253.13 591.65 254.45 590.66 255.76 590.82 257.45 590.23 259.95 590.53 260.74 592.83 262.68 592.46 264.93 591.91 265.6 591.84 266.77 592.72 268.84 593.7 268.82 594.51 269.49 594.67 270.3 595.5 270.94 596.28 272.16 597.43 272.55 597.53 274.59 598.34 275.6 600.35 278.95 600.25 280.64 601.61 281.31 601.4 282.25 599.2 283.88 598.87 284.6 597.7 285.58 596.47 285.89 597.14 286.74 598.38 287.46 598.62 288.53 599.29 289.42 599.32 290.43 600.53 291.21 602.93 291.87 603.75 295 605.41 295.51 605.89 297.3 605.86 298.25 606.48 299.59 607.35 300.06 608.66 299.44 609.35 300.52 610.57 299.75 611.28 298.12 612.59 298.75 613.15 299.75 614.55 299.44 616.06 300.65 618.83 300.97 619.18 302.14 617.39 303.96 615.3 303.73 613.1 305.31 612.75 307.01 612.91 309.94 611.55 310.65 610.57 312.09 609.9 314.84 608.16 314.87 606.9 313.79 606.84 311.98 605.94 310.82 604.78 310.56 603.74 310.86 601.61 309.99 599.53 310.4 597.67 311.35 595.66 313.04 594.43 314.65 595.56 316 594.99 317.54 593.28 319.74 593.3 322.56 591.43 323.73 590.92 324.99 588.93 323.94 583.25 324.26 581.46 322.41 580.59 320.97 579.54 321.45 579.36 322.43 577.22 326.5 578.2 327.64 578.45 329.15 577.51 330.93 577.6 331.51 576.63 332.86 575.77 333.02 574.34 336.53 572.97 338.62 573.15 341.3 571.73 344.06 570.13 344.1 568.14 345.23 567.22 348.17 566.98 349.53 565.63 350.36 564.23 352.06 563.39 355.25 560.67 357.93 561.09 359.28 560.38 360.08 558.84 360.49 557.74 361.67 556.02 360.44 554.4 361.53 553.66 360.6 551.74 360.03 550.69 360.28 549.91 359.79 547.18 358.9 545.63 360.11 543.5 359.82 543.06 360.84 543.16 362.61 542.68 365.72 542.02 365.64 540.68 364.58 539.15 365.75 538.89 366.78 538.1 366.86 537.38 367.74 536.21 367.05 535.52 367.12 534.04 369.62 534.45 370.28 533.64 371.59 533.57 372.93 532.72 373.32 530.76 373.36 529.25 372.66 528.07 371.6 526.37 371.49 525.66 370.37 525.74 369.02 526.38 368.16 526.04 366.02 525.13 365.52 524.05 365.77 521.44 364.9 521.19 363.05 518.73 363.23 518.3 364.07 516.88 364.72 515.35 363.03 515.69 361.6 514.4 361.07 512.12 359.57 512.25 358.64 511.34 357.14 509.43 357.83 508.67 358.58 507.9 358.54 506.18 357.6 505.62 356.71 504.27 355.9 503.54 357.17 502.11 358.37 501.1 356.98 499.68 356.56 499.25 357.44 497.79 356.08 497.63 354.18 498.73 353.87 497.81 350.84 497.53 348.52 496.43 347.74 495.69 346.3 494.37 347.4 492.15 346.7 491.67 345.77 490.6 344.9 489.27 344.9 488.84 345.76 487.49 346.16 486.36 345.45 485.96 344.69 484.15 343.97 481.94 345.48 480.2 344.02 480.48 340.88 480.9 339.08 480.88 337.72 481.98 337.51 483.27 336.31 485.14 333.6 485.65 331.21 485.75 329.1 486.83 328.23 487.02 327.26 486.31 324.04 486.21 322.88 487.11 320.01 488.17 318.81 488.53 316.97 486.21 317.25 484.98 315.81 483.39 315.36 484.34 312.28 483.72 310.82 483.83 309.91 483.32 307.54 484.04 306.78 484.33 305.43 483.25 303.63 483.42 301.99 482.46 299.56 481.35 297.99 479.91 297.14 479.58 294.97 480.4 293.94 480.94 292.61 479.89 290.49 479.52 287.91 480.72 287.55 480.96 284.89 480.76 283.59 481.21 281.37 481.09 279.54 481.96 277.78 481.88 273.54 480.96 272.32 480.94 270.99 479.98 270.21 481.88 268.61 482.9 266.8 485.02 263.74 485.33 262.6 485.21 260.91 486.2 259.63 486.63 256.98 487.01 255.84 486.85 253.81 488.2 251.74 488.16 250.54 489.2 250.33 489.83 249.55 488.52 247.58 488.72 245.92 491.8 244.17 492.81 244.08 494.32 243.02 493.96 242.15 494.13 240.89 493.84 239.9 494.31 238.77 493.27 237.73 493.57 237.29 493.34 235.46 493.93 234.56 494.1 231.9 494.88 231.1 494.33 229.48 495.07 228.01 496.7 227.42 497.26 225.53 496.77 224.62 497.84 223.66 499.98 222.92 501.65 223.35 503.37 223.07 505.81 221.67 506.49 221.66 507.5 223.12 508.29 223.27 509.9 226.31 512.05 225.99 513.91 226.52 514.37 224.47 515.08 223.6 515.32 222.53 516.87 220.38 518.05 218.09 517.85 215.59 519.61 213.03 517.99 211.74 517.81 210.21 518.27 209.2 519.53 207.85 520.51 206.3 521.62 206.02 521.71 204.82 523.62 203.68 525.97 203.91 526.94 203.28 527.52 203.58 530.09 201.08 531.16 201.8 532.06 203.43 534.07 204.3 535.14 206.02 537.23 206.78 538.06 207.84 540.54 209.37 541.85 210.9 543.19 210.44 544.39 210.85 544.64 213 545.47 214.23 545.47 215.26 546.57 216.48 547.48 216.8 546.09 218.64 546.39 219.66 546.65 223.44 547.91 225.48 548.75 226.21 550 225.83 551.06 227.42 552.17 227.43 552.58 228.78 552.4 229.72 553.08 230.4 552.77 232.45 555.95 234.77 558.2 235.61 559.78 233.43 559.54 232.32 561.77 230.75 562.8 230.79 564.52 230.13 565.73 230.4 567.92 228.11 569.23 229.21 571.73 229.35 573.29 231.16 572.79 232.27 573.51 233.97 576.51 234.53 577 235.09 578.94 235.38 580 234.53 580.74 233.43 582.4 233.23 583.66 231.64 584.41 231.5 586.16 230.08 Z" id="37520110"/>
<path d="M 641.93 101.12 642.14 101.41 642.02 103.87 642.48 104.85 641.47 109.24 639.71 109.76 638.78 109.09 637.15 109.75 635.66 109.45 634.97 106.93 634.35 105.99 633.13 105.31 631.48 105.84 628.9 102.41 628.53 101.42 627.28 100.6 626.7 99.12 623.47 98.78 620.98 99.54 619.89 98.5 618.07 97.8 615.69 95.76 615.45 94.95 613.41 94.95 613.06 97.25 612.29 100.38 611.06 101.45 611.44 103.6 610.86 109.29 609.38 111.59 610.3 113.54 609.89 116.84 609.41 119.35 608.79 120.84 604.05 120.22 602.37 121.48 599.8 119.89 597.26 119.81 594.51 120.03 593.73 120.7 593.93 122.8 593.65 124.52 592.47 126.52 587.43 127.82 586.3 127.92 585.55 128.48 583.8 127.73 582.11 128.03 581.25 128.76 579.83 128.31 577.79 128.72 576.44 129.41 573.16 128.84 572.63 130.72 572.39 132.85 571.55 134.44 570.91 136.78 568.58 139.62 568.62 140.83 570.62 143.67 568.83 145.54 565.38 147.58 564.23 147.96 562.38 149.09 561.55 150.78 561.69 153.32 563.38 153.44 565.62 153.04 569.27 153.15 571.55 153.94 573.6 153.4 576.83 153.89 579.05 155.16 580.04 156.52 580.72 158.41 581.77 159.85 585.43 162.94 587.62 164.08 589.03 165.27 591.13 166.46 588.86 168.26 591.71 174.18 588.09 175.63 586.02 177.2 584.36 179.4 584.7 183.4 585.72 185.55 586.65 187.01 587.53 189.66 588.5 191.25 588.58 195.04 589.23 196.49 587.73 198.04 586.77 198.2 584.45 199.51 581.42 200.48 579.77 200.04 576.34 200.71 576.39 203.08 575.59 204.01 577.17 206.66 578.44 207.68 580.03 208.23 580.66 209.85 579.87 211.02 579.75 212.48 579.2 214.3 579.98 215.2 580.15 216.47 581.82 218.89 582.94 219.35 582.69 220.25 583.95 222.28 585.26 222.95 585.92 224.31 585.47 226.07 586.7 228.52 586.16 230.08 584.41 231.5 583.66 231.64 582.4 233.23 580.74 233.43 580 234.53 578.94 235.38 577 235.09 576.51 234.53 573.51 233.97 572.79 232.27 573.29 231.16 571.73 229.35 569.23 229.21 567.92 228.11 565.73 230.4 564.52 230.13 562.8 230.79 561.77 230.75 559.54 232.32 559.78 233.43 558.2 235.61 555.95 234.77 552.77 232.45 553.08 230.4 552.4 229.72 552.58 228.78 552.17 227.43 551.06 227.42 550 225.83 548.75 226.21 547.91 225.48 546.65 223.44 546.39 219.66 546.09 218.64 547.48 216.8 546.57 216.48 545.47 215.26 545.47 214.23 544.64 213 544.39 210.85 543.19 210.44 541.85 210.9 540.54 209.37 538.06 207.84 537.23 206.78 535.14 206.02 534.07 204.3 532.06 203.43 531.16 201.8 530.09 201.08 527.52 203.58 526.94 203.28 525.97 203.91 523.62 203.68 521.71 204.82 521.62 206.02 520.51 206.3 519.53 207.85 518.27 209.2 517.81 210.21 517.99 211.74 519.61 213.03 517.85 215.59 518.05 218.09 516.87 220.38 515.32 222.53 515.08 223.6 514.37 224.47 513.91 226.52 512.05 225.99 509.9 226.31 508.29 223.27 507.5 223.12 506.49 221.66 505.81 221.67 503.37 223.07 501.65 223.35 499.98 222.92 497.84 223.66 496.77 224.62 497.26 225.53 496.7 227.42 495.07 228.01 494.33 229.48 494.88 231.1 494.1 231.9 493.93 234.56 493.34 235.46 493.57 237.29 493.27 237.73 494.31 238.77 493.84 239.9 494.13 240.89 493.96 242.15 494.32 243.02 492.81 244.08 491.8 244.17 488.72 245.92 488.52 247.58 489.83 249.55 489.2 250.33 488.16 250.54 488.2 251.74 486.85 253.81 486.38 252.99 484.79 251.38 483.97 249.83 482.38 248.31 482.15 247.43 483.21 245.67 482.48 243.48 481.72 242.91 481.82 241.87 481.15 241.57 480.14 240.32 478.77 239.85 478 238.22 476.3 237.54 475.13 237.73 474.27 237.11 472.43 237.86 471.31 235.48 470.43 232.99 470.43 231.97 467.01 232.61 465.19 233.63 464.75 232.22 464.69 230.65 464.23 229.53 464.38 228.11 464.19 226.33 462.31 224.33 462.18 221.89 460.13 219.83 460 217.95 458.68 215.39 457.22 214.44 456.4 213.57 455.26 213.06 454.68 211.81 454.75 210.84 456.36 208.88 454.69 207.23 454.35 206.33 453.46 206.69 452.66 207.85 451.39 208.03 449.37 206.45 445.97 207.23 443.16 205.2 441.94 204.52 441.49 203.44 440.86 200.55 442.24 197.82 443.61 197.48 442.88 196 441.16 195.97 440.1 195.25 438.88 193.95 436.04 193.57 434.84 194.14 432.73 192.53 429.52 192.59 427.19 192.1 425.68 192.64 424.98 194 424.04 193.02 423.85 191.19 422.44 190.97 421.37 191.54 420.12 190.4 421.03 188.36 420.06 187.49 419.3 185.67 418.36 185.56 417.64 183.7 418.31 183.07 419.59 180.11 421.15 179.82 421.55 179.18 423.02 178.82 424.27 178.91 424.93 177.93 426.36 177.64 427.38 178.24 428.56 178 429.89 178.67 431.55 178.07 432.27 178.9 433.49 179.36 435.57 178.24 437.15 178.55 439.34 177.41 440.98 177.36 441.76 176.5 443.38 176.62 443.96 175.54 443.11 172.5 443.27 171.63 442.2 170.15 442.97 168.59 443 167.12 444.56 166.05 446.23 168.01 448.1 167.85 449.27 168.22 449.86 166.83 451.65 164.56 452.68 164.77 453.52 163.36 454.56 160.88 457.43 161.05 459.28 162.7 461.71 163.15 465.54 162.69 468.78 160.37 470.01 159.76 471.16 159.74 473.05 160.58 475.58 160.47 476.83 159.29 477.23 157.5 479.05 155.87 479.61 155.07 481.27 153.76 482.69 152.99 484.37 151.61 484.34 150.43 487.38 148.16 489.66 146.81 491.52 146.52 493.98 145.72 495.09 145.71 496.45 146.64 498.8 147.42 500.71 148.84 501.68 149.11 503.49 148.36 508.83 142.11 509.51 140.52 512.07 138.49 513.13 137.92 513.79 136.37 516.3 136.24 517.34 136.65 518.77 136.71 520.68 137.16 524.4 136.62 526.43 135.58 527.41 134.57 528.76 133.79 528.85 132.54 530.87 133.12 532.15 132.52 533.4 132.53 534.92 130.95 536.93 131.87 538.14 131.69 540.51 132.08 541.84 131.7 542.35 131.11 544.43 129.81 544.53 128.67 543.66 126.27 542.94 124.96 542.28 121.39 543.57 119.02 543.76 115.9 543.34 114.24 543.9 113.67 542.76 112.51 541.73 111.02 542.34 110.66 541.4 109.36 542.03 108.19 542.4 106.67 542.23 104.92 541.26 104.15 539.85 102.22 539.61 100.9 539.94 100.13 539.77 98.53 540.23 96.12 541 95.13 542.4 94.43 542.94 92.54 544.22 91.63 545.82 91.24 547.92 89.45 548.09 88.83 547.7 86.86 547.35 83.82 547.66 83.42 548 82.67 549.11 82 549.86 81.11 551.37 81.5 552.4 80.33 552.62 78.29 553.03 76.98 554.07 75.42 557.18 75.46 558.97 74.17 559.81 75.39 560.55 77.32 561.76 77.77 562.83 77.45 563.98 78.14 565.01 78.15 566.47 79.64 566.47 80.65 568.67 81.07 569.41 82.18 571.06 83.65 572.92 82 574.51 82.44 576.94 81.91 579.22 80.68 580.09 79.43 581.53 78.09 583.39 76.97 583.87 75.18 584.66 73.7 586.97 72.06 588.47 71.57 589.57 69.83 592.63 67.86 595.54 63.92 595.85 63.1 598.26 64.53 599.48 65.71 600.07 67.65 601.9 68.01 604.19 69.59 605.44 69.57 607.6 68.36 609.62 69.75 611.7 69.85 612.88 70.54 614.72 72.57 616.68 72.76 618.48 74.27 622.65 75.97 623.72 77.62 625.47 78.85 626.08 79.9 626.2 82.77 627.99 83.58 629.52 83.66 630.47 87.56 630.99 88.71 630.91 90.17 632.16 91.2 633.03 92.63 633.74 95.04 635.08 95.57 635.83 96.9 638.57 96.9 640.07 97.47 641.67 99.26 641.93 101.12 Z" id="37520310"/>
<path d="M 641.93 101.12 643.77 100.75 644.75 99.35 646.43 97.69 649.12 99.69 650.59 100.25 653.45 99.42 654.67 99.49 655.2 98.92 656.92 100.07 657.6 101.34 658.82 102.45 659.17 103.41 660.59 103.85 661.31 104.65 662.7 105.45 663.83 106.68 664.82 110.22 667.1 110.14 668.17 109.33 670.85 109.24 672.69 109.77 674.12 109.38 676.29 109.51 677.91 109.26 679.83 111.64 680.21 112.95 681.03 113.84 681.68 115.76 682.54 116.93 682.75 117.92 681.75 119.07 682.87 121.36 681.42 125.01 681.78 127.62 681.59 129.24 680.49 131.77 683.2 133.6 683.23 136.19 681.99 137.5 680.65 139.46 679.98 142.3 679.34 144.15 676.76 145.02 674.5 147.37 673.1 148.12 671.95 149.75 671.73 151.05 670.9 151.99 670.48 153.35 671.72 154.47 670.97 157.28 670.44 159.84 669.2 161.82 670.78 166.75 670.73 168.46 668.41 171.53 666.21 173.58 663.47 174.57 663.57 175.71 664.89 177.98 665.42 178.22 666.82 179.86 668.21 182.18 667.77 183.72 666.6 184.67 662.53 190.19 660.72 195.38 660.22 195.49 660.75 197.65 659.88 198.26 659.08 199.52 658.25 201.47 656.37 202.38 654.78 200.18 653.54 199.18 651.35 199.45 650.4 200.55 649.57 205.29 649.04 206.29 648.42 208.79 648.99 210.49 650.44 211.83 650.67 213.22 651.51 215.77 651.52 217.52 649.76 219.57 649.22 221.79 648.5 222.28 648.02 223.41 648.26 224.96 649.28 227.4 649.38 228.66 650.24 230.92 650.92 233.28 649.26 235.21 649.12 237.42 647.52 238.87 647.96 240.12 648.11 242.11 645.96 243.86 644.82 245.23 645.03 246.57 644.55 247 642.17 247.89 642.32 249.43 643.14 250.99 643.65 252.94 643.56 253.66 644.96 255.18 645.97 255.4 646.84 257.1 646.84 258.04 646.06 259.15 646.01 263.13 643.24 264.25 642.76 265.84 640.99 266.99 641.06 267.93 641.84 268.88 641.7 270.98 641.86 272.25 640.89 274.37 641.62 276.02 641.14 277.3 641.11 279.19 640.81 281.92 640.34 283.27 640.62 284.61 640.49 286.83 638.85 288.87 638.45 290.26 639.04 290.79 638.96 291.3 637.04 291.2 635.82 290.52 634.36 290.37 633.36 290.77 632.64 290.48 630.77 290.9 630.02 292.17 628.66 292.74 628.15 296.58 628.53 298.26 628.44 299.35 626.73 301.68 626.07 301.71 625.51 300.61 623.72 299.83 621.84 301.16 620.67 301.15 619.18 302.14 618.83 300.97 616.06 300.65 614.55 299.44 613.15 299.75 612.59 298.75 611.28 298.12 610.57 299.75 609.35 300.52 608.66 299.44 607.35 300.06 606.48 299.59 605.86 298.25 605.89 297.3 605.41 295.51 603.75 295 602.93 291.87 600.53 291.21 599.32 290.43 599.29 289.42 598.62 288.53 598.38 287.46 597.14 286.74 596.47 285.89 597.7 285.58 598.87 284.6 599.2 283.88 601.4 282.25 601.61 281.31 600.25 280.64 600.35 278.95 598.34 275.6 597.53 274.59 597.43 272.55 596.28 272.16 595.5 270.94 594.67 270.3 594.51 269.49 593.7 268.82 592.72 268.84 591.84 266.77 591.91 265.6 592.46 264.93 592.83 262.68 590.53 260.74 590.23 259.95 590.82 257.45 590.66 255.76 591.65 254.45 591.39 253.13 590.71 252.53 589.68 250.45 590.32 248.86 589.92 248.33 590.91 246.38 590.85 244.44 590.51 243.86 590.97 242.32 590.17 240.23 590.28 238.1 589.31 236.49 589.2 235.33 588.35 234.4 588.16 233.5 587.21 232.59 586.53 230.44 586.16 230.08 586.7 228.52 585.47 226.07 585.92 224.31 585.26 222.95 583.95 222.28 582.69 220.25 582.94 219.35 581.82 218.89 580.15 216.47 579.98 215.2 579.2 214.3 579.75 212.48 579.87 211.02 580.66 209.85 580.03 208.23 578.44 207.68 577.17 206.66 575.59 204.01 576.39 203.08 576.34 200.71 579.77 200.04 581.42 200.48 584.45 199.51 586.77 198.2 587.73 198.04 589.23 196.49 588.58 195.04 588.5 191.25 587.53 189.66 586.65 187.01 585.72 185.55 584.7 183.4 584.36 179.4 586.02 177.2 588.09 175.63 591.71 174.18 588.86 168.26 591.13 166.46 589.03 165.27 587.62 164.08 585.43 162.94 581.77 159.85 580.72 158.41 580.04 156.52 579.05 155.16 576.83 153.89 573.6 153.4 571.55 153.94 569.27 153.15 565.62 153.04 563.38 153.44 561.69 153.32 561.55 150.78 562.38 149.09 564.23 147.96 565.38 147.58 568.83 145.54 570.62 143.67 568.62 140.83 568.58 139.62 570.91 136.78 571.55 134.44 572.39 132.85 572.63 130.72 573.16 128.84 576.44 129.41 577.79 128.72 579.83 128.31 581.25 128.76 582.11 128.03 583.8 127.73 585.55 128.48 586.3 127.92 587.43 127.82 592.47 126.52 593.65 124.52 593.93 122.8 593.73 120.7 594.51 120.03 597.26 119.81 599.8 119.89 602.37 121.48 604.05 120.22 608.79 120.84 609.41 119.35 609.89 116.84 610.3 113.54 609.38 111.59 610.86 109.29 611.44 103.6 611.06 101.45 612.29 100.38 613.06 97.25 613.41 94.95 615.45 94.95 615.69 95.76 618.07 97.8 619.89 98.5 620.98 99.54 623.47 98.78 626.7 99.12 627.28 100.6 628.53 101.42 628.9 102.41 631.48 105.84 633.13 105.31 634.35 105.99 634.97 106.93 635.66 109.45 637.15 109.75 638.78 109.09 639.71 109.76 641.47 109.24 642.48 104.85 642.02 103.87 642.14 101.41 641.93 101.12 Z" id="37520320"/>
<path d="M 705.12 119.89 706.27 122.51 706.2 126.99 706.33 128.15 705.32 129.05 704.47 130.52 704.39 133.49 706.55 134.78 707.25 135.7 707.79 139.65 707.51 140.4 708.44 141.49 708.34 143.04 709.78 143.66 712.12 145.01 711.17 147.14 711.46 148.77 709.87 149.67 709.8 151.99 709.51 152.74 710.66 156.21 710.58 159.65 710.81 160.51 712 161.81 712.95 163.7 712.95 164.53 713.92 165.16 715.12 166.61 717.63 167.16 719.66 167.82 720.83 168.7 721.92 170.1 721.29 172.88 720.59 174.3 721.45 175.17 722.29 177.91 722.41 178.93 723.8 179.94 724.71 180.98 725.18 182.49 724.99 183.02 726.19 185.04 725.33 186.14 725.47 188.45 724.56 189.74 724.7 191.82 726.08 194.13 725.8 196.38 726.34 197.7 728.24 198.11 728.31 199.57 730.46 201.69 731.63 201.51 733.45 203.8 734.02 204.89 733.6 208.99 734.2 210.23 734.9 212.56 732.77 215.73 732.96 218.8 733.4 220.48 732.91 222.54 734.17 223.01 735.4 223.91 736.78 223.41 740.05 224.16 741.7 223.36 745.22 223.09 747.85 227.27 750.01 227.25 753.95 230.23 753.47 231.03 753.61 233.37 756.04 233.13 757.89 234.61 758.83 236.07 759.46 237.82 760.75 238.37 762.34 239.74 764.01 240.09 766.43 241.27 767.15 240.61 769.42 241.75 769.69 242.43 769.33 243.69 767.21 245.52 764.75 246.39 764.6 247.98 763.45 250.97 761.85 250.86 761.67 251.74 761.5 256.69 761.88 257.85 765.12 259.25 767.03 259.52 767.84 261.1 768.97 262.41 769.23 263.15 770.34 264.4 771.31 266.8 773.52 268.29 773.93 269.06 773.66 271.86 773.79 272.62 772.65 274.54 772.1 276.1 772.47 277.8 771.78 279.02 771.75 281.46 769.17 285.62 770.38 287.21 769.28 289.69 768.89 291.83 775.02 291.89 777.01 293.04 778.87 293.64 780.11 293.61 781.22 295.12 781.79 299.61 782.47 300.3 782.66 302.48 783.97 305.07 785.88 310.02 784.59 314.3 785.13 315.6 786.53 316.04 788.16 318.06 788.69 320.03 790.04 322.34 790.31 324.5 789.64 326.41 790 328.91 789.96 330.4 789.43 331.3 788.41 331.94 786.43 332.57 784.85 335.14 783.2 336.55 782.89 337.26 782.95 339.02 783.98 341.08 782.9 342.68 782.15 345.15 783.58 347.44 784.68 347.93 786.15 350.14 788.16 352.48 789.18 354.58 790.25 355.86 789.4 356.71 788.89 357.9 788.81 359.41 788.27 361.44 788.41 363.4 787.47 364.18 786.84 367.88 782.22 370.66 781.02 370.27 779.94 368.41 779.2 367.59 778.3 368.04 776.03 368.32 775.23 370.32 773.96 369.93 772.3 369.05 771.6 369.16 770.46 367.73 768.83 366.61 767.38 367.74 764.69 369.34 763.78 369.64 763 368.88 761.08 369.32 760.28 370.51 760.35 372.12 759.47 372.83 756.72 370.64 755.84 370.84 754.45 368.75 752.47 368.74 752.21 366.72 750.59 365.08 749.44 364.23 748.24 364.17 747.62 363.54 746.32 363.63 745.67 363.25 745.45 362.07 743.04 360.22 742.25 360.01 740.95 358.98 740.54 358.26 738.72 356.52 737.03 355.83 735.33 354.64 733.89 354.32 732.63 354.38 730.46 353.97 730.14 355.04 727.72 356.31 726.32 355.54 723.48 352.19 721.09 351.43 718.63 354.31 717.2 355 714.46 354.86 711.61 356.58 709.65 353.96 708.57 353.88 706.45 352.89 707.3 352.45 707.54 350.81 709.27 349.38 708.37 347.78 708.41 346.3 708.79 344.72 707.84 341.8 705.63 341 704.4 341.22 701.6 339.75 699.91 339.56 697.83 338.68 696.53 336.21 695.85 335.32 695.08 335.93 693.91 337.7 694 339.34 693.48 342.64 691.88 344.6 690.02 344.83 689.44 345.53 683.42 349.09 681.75 349.23 680.68 348.24 679.46 346.27 678.3 345.19 676.74 343.31 672.99 338.22 672.07 335.83 671.37 335.76 669.72 334.71 668.12 334.08 667.15 334.51 664.2 330.38 664.21 328.6 663.77 328.16 663.01 326.29 660.38 325.64 660 323.9 659.01 323.68 657.02 321.76 657.01 320.87 655.7 318.04 654.95 315.66 654.06 314.89 653.69 312.07 653.1 311.12 651.39 311.04 648.64 310.36 648.18 309.78 646 305.34 644.83 304.87 644.21 303.72 642.1 301.3 641.84 300.29 642.26 299.04 643.84 298.2 644.16 296.86 643.87 294.84 642.18 293.68 640.83 291.67 639.04 290.79 638.45 290.26 638.85 288.87 640.49 286.83 640.62 284.61 640.34 283.27 640.81 281.92 641.11 279.19 641.14 277.3 641.62 276.02 640.89 274.37 641.86 272.25 641.7 270.98 641.84 268.88 641.06 267.93 640.99 266.99 642.76 265.84 643.24 264.25 646.01 263.13 646.06 259.15 646.84 258.04 646.84 257.1 645.97 255.4 644.96 255.18 643.56 253.66 643.65 252.94 643.14 250.99 642.32 249.43 642.17 247.89 644.55 247 645.03 246.57 644.82 245.23 645.96 243.86 648.11 242.11 647.96 240.12 647.52 238.87 649.12 237.42 649.26 235.21 650.92 233.28 650.24 230.92 649.38 228.66 649.28 227.4 648.26 224.96 648.02 223.41 648.5 222.28 649.22 221.79 649.76 219.57 651.52 217.52 651.51 215.77 650.67 213.22 650.44 211.83 648.99 210.49 648.42 208.79 649.04 206.29 649.57 205.29 650.4 200.55 651.35 199.45 653.54 199.18 654.78 200.18 656.37 202.38 658.25 201.47 659.08 199.52 659.88 198.26 660.75 197.65 660.22 195.49 660.72 195.38 662.53 190.19 666.6 184.67 667.77 183.72 668.21 182.18 666.82 179.86 665.42 178.22 664.89 177.98 663.57 175.71 663.47 174.57 666.21 173.58 668.41 171.53 670.73 168.46 670.78 166.75 669.2 161.82 670.44 159.84 670.97 157.28 671.72 154.47 670.48 153.35 670.9 151.99 671.73 151.05 671.95 149.75 673.1 148.12 674.5 147.37 676.76 145.02 679.34 144.15 679.98 142.3 680.65 139.46 681.99 137.5 683.23 136.19 683.2 133.6 680.49 131.77 681.59 129.24 681.78 127.62 681.42 125.01 682.87 121.36 681.75 119.07 682.75 117.92 686.91 118.28 687.45 118.63 691.13 117.72 692.09 117.77 695.02 118.83 695.42 120.33 697.02 119.45 699.72 119.92 700.48 119.48 703.33 119.45 705.12 119.89 Z" id="37520330"/>
<path d="M 639.04 290.79 640.83 291.67 642.18 293.68 643.87 294.84 644.16 296.86 643.84 298.2 642.26 299.04 641.84 300.29 642.1 301.3 644.21 303.72 644.83 304.87 646 305.34 648.18 309.78 648.64 310.36 651.39 311.04 653.1 311.12 653.69 312.07 654.06 314.89 654.95 315.66 655.7 318.04 657.01 320.87 657.02 321.76 659.01 323.68 660 323.9 660.38 325.64 663.01 326.29 663.77 328.16 664.21 328.6 664.2 330.38 667.15 334.51 668.12 334.08 669.72 334.71 671.37 335.76 672.07 335.83 672.99 338.22 676.74 343.31 678.3 345.19 679.46 346.27 680.68 348.24 681.75 349.23 683.42 349.09 689.44 345.53 690.02 344.83 691.88 344.6 693.48 342.64 694 339.34 693.91 337.7 695.08 335.93 695.85 335.32 696.53 336.21 697.83 338.68 699.91 339.56 701.6 339.75 704.4 341.22 705.63 341 707.84 341.8 708.79 344.72 708.41 346.3 708.37 347.78 709.27 349.38 707.54 350.81 707.3 352.45 706.45 352.89 708.57 353.88 709.65 353.96 711.61 356.58 714.46 354.86 717.2 355 718.63 354.31 721.09 351.43 723.48 352.19 726.32 355.54 727.72 356.31 730.14 355.04 730.46 353.97 732.63 354.38 733.89 354.32 735.33 354.64 737.03 355.83 738.72 356.52 740.54 358.26 740.95 358.98 742.25 360.01 743.04 360.22 745.45 362.07 745.67 363.25 746.32 363.63 747.62 363.54 748.24 364.17 749.44 364.23 750.59 365.08 752.21 366.72 752.47 368.74 754.45 368.75 755.84 370.84 756.72 370.64 759.47 372.83 760.35 372.12 760.28 370.51 761.08 369.32 763 368.88 763.78 369.64 764.69 369.34 767.38 367.74 768.83 366.61 770.46 367.73 771.6 369.16 772.3 369.05 773.96 369.93 773.23 371.46 773.24 372.64 773.67 373.61 773.08 374.33 772.37 376.52 772.68 379.52 771.99 379.98 771.88 381.14 772.3 382.88 771.88 384.88 773.45 386.3 773.11 389.09 772.33 392.48 772.54 395.29 771.21 397.75 771.26 399.8 771.75 400.9 771.67 405.64 768.52 407.05 767.52 406.92 765.76 407.16 763.92 405.83 762.4 406.42 758.66 405.57 757.17 404.66 755.55 405.54 753.58 405.6 753.21 406.3 753.47 407.79 754.3 409.03 754.54 410.13 753.05 411.53 753.29 414.68 752.77 415.95 751.23 416.88 750.51 416.91 747.88 417.97 746.45 418.9 744.11 419.02 742.69 419.35 741.39 418.6 739.04 418.54 735.83 420.23 733.35 423.46 732.74 424.83 732.43 426.62 727.64 424.14 725.72 423.34 725.21 423.61 723.46 423.42 722.96 423 720.34 422.12 718.27 421.78 716.75 421.86 714.54 422.96 712.91 424.03 712.27 424.88 710.12 425.9 709.08 427.26 706.85 428.36 705.8 429.47 704.18 429.6 703.42 429.15 703.14 428.25 701.94 427.29 700.74 424.87 699.74 424.18 698.85 423.05 698.02 422.77 696.82 423.57 694.02 423.45 692.01 425.83 691.39 426.14 690.32 425.79 689.19 426.18 686.67 425.45 686.51 421.86 686.02 420.11 685.86 418.12 685.22 416.32 684.57 415.83 682.83 413.6 682.1 413.41 680.26 413.61 678.96 413.01 676.94 413.08 675.82 412.11 671.53 410.48 669.2 409 667.13 409.45 664.6 408.83 661.16 408.55 659.45 407.57 657.87 408.2 656.55 408.2 655.44 408.58 652.99 408.28 648.2 408.33 647.35 408.52 644.74 408.25 642.75 407.81 641.63 407.32 640.46 408.58 636.22 407.62 634.94 406.31 632.87 405.93 632.47 407.55 631.13 408.81 629.58 409.53 628.82 409.5 625.99 407.39 624.19 408.76 622.85 409.38 622.38 410.45 621.29 411.35 619.66 411.98 615.37 410.71 613.45 408.48 611.77 408.01 607.32 406.07 606.25 404.72 605.09 404 603.65 404.17 601.62 402.84 600.84 402.85 600.97 401.82 602.16 400.81 603.55 398.62 603.75 394.97 602.58 394.07 600.15 393.4 599.53 392.77 595.55 391.69 593.74 390.34 590.57 389.47 587.79 388.15 585.34 387.75 583.81 386.96 580.36 386.43 578.95 385.19 577.51 383.49 577 381.21 577.39 379.12 576.61 376.46 576.02 376.13 575.97 372.88 575.47 371.24 574.42 370.12 574.61 368.93 573.92 368.05 574.36 364.43 574.6 363.93 573.97 359.76 573.04 357.29 571.19 356.18 569.04 354.13 567.72 351.62 566.98 349.53 567.22 348.17 568.14 345.23 570.13 344.1 571.73 344.06 573.15 341.3 572.97 338.62 574.34 336.53 575.77 333.02 576.63 332.86 577.6 331.51 577.51 330.93 578.45 329.15 578.2 327.64 577.22 326.5 579.36 322.43 579.54 321.45 580.59 320.97 581.46 322.41 583.25 324.26 588.93 323.94 590.92 324.99 591.43 323.73 593.3 322.56 593.28 319.74 594.99 317.54 595.56 316 594.43 314.65 595.66 313.04 597.67 311.35 599.53 310.4 601.61 309.99 603.74 310.86 604.78 310.56 605.94 310.82 606.84 311.98 606.9 313.79 608.16 314.87 609.9 314.84 610.57 312.09 611.55 310.65 612.91 309.94 612.75 307.01 613.1 305.31 615.3 303.73 617.39 303.96 619.18 302.14 620.67 301.15 621.84 301.16 623.72 299.83 625.51 300.61 626.07 301.71 626.73 301.68 628.44 299.35 628.53 298.26 628.15 296.58 628.66 292.74 630.02 292.17 630.77 290.9 632.64 290.48 633.36 290.77 634.36 290.37 635.82 290.52 637.04 291.2 638.96 291.3 639.04 290.79 Z" id="37520340"/>
<path d="M 732.43 426.62 733.31 427.61 736.01 427.75 737.1 427.03 740.2 432.09 741.97 433.64 744.1 434.94 745.08 436.45 745.26 437.67 750.36 436.7 751.65 436.11 752.72 436.33 755.34 436.34 756.92 435.88 758.22 436.68 761.49 437.23 764.33 435.54 765.07 434.39 767.2 434.88 769.6 435.76 769.72 436.54 770.56 437.24 772.87 437.73 774.7 437.73 776.7 438.31 778.7 440.02 779.12 444.28 779.45 446.23 779.99 447.74 781.43 449.1 781.65 452.92 781.66 455.79 779.16 457.72 777.63 458.11 778.32 462.54 775.22 467.04 774.33 467.44 771.43 468.06 769.46 469.59 766.26 471.42 762.92 472.35 762.11 472.87 762.55 474.36 763.83 474.89 768.02 477.75 768.43 479.05 770.27 479.05 771.3 479.99 772.46 480.56 774.6 481.15 776.06 482.64 777.49 483.19 778.87 487.14 779.37 489.63 779.08 490.44 780.42 492.49 781.02 494.84 781.84 494.77 783.34 496.5 785.67 497.67 788.62 497.19 790.03 497.77 791.77 500.25 794.08 500.64 794.26 501.88 795.31 502.07 797.9 503.31 796.93 506.91 797.85 508.85 798.06 510.58 797.76 512.05 799 513.65 798.28 514.48 798.34 515.25 797.45 517.66 796.54 517.93 795.4 519.12 793.65 518.92 791.87 520.28 790.51 521.78 786.27 522.27 785.2 524.3 783.45 526.14 781.7 527.44 778.55 526.75 775.34 526.87 772.39 527.14 770.15 525.38 768.44 521.65 767.05 519.26 765.88 516.85 762.57 516.31 758.94 516.59 756.12 514.65 753.3 513.61 751.63 514.25 750.33 513.79 749.03 512.91 747.84 511.4 747.31 509.76 744.19 508.08 742.09 506.78 741.39 505.25 739.48 505.31 737.68 504.18 735.94 502.04 735.24 501.91 732.15 502.34 729.59 500.79 728.94 499.76 727.47 499.89 725.51 500.85 723.46 501.58 720.23 501.63 718.79 502.58 717.29 502.57 714.97 500.74 712.56 497.11 710.05 497.4 707.17 496.9 705.43 497.47 703.62 498.6 702.51 498.84 701.1 499.81 700.23 500.82 698.38 501.61 696.81 502.58 695.85 504 695.12 504.21 693.03 507.06 691.26 508.89 690.2 509.63 688.86 509.71 687.65 510.44 686.98 510.01 683.02 510.45 679.23 510.23 678.11 511.02 677.18 510.04 676.93 508.34 676.11 505.43 677.68 502.84 677.57 499.08 677.37 498.01 675.68 494.75 675.18 494.59 674.21 491.59 673.42 490.05 671.83 488.06 671.09 485.58 671.36 484.15 671.42 482 669.18 483.18 668.63 484.89 667.62 486.33 666.53 486.12 664.84 487.18 663.51 487.22 662.27 488.94 661.34 488.95 659.53 487.21 657.85 486.89 656.06 487.58 654.75 487.26 653.62 487.41 652.14 487.11 651.45 488.03 650.38 488.65 649.29 490.14 648.15 490.41 645.76 490.15 644.42 489.79 642.59 487.93 639.56 489.15 637.98 490.64 636.6 491.25 632.61 492.02 631.11 492.07 630.78 491.28 629.89 490.88 628.49 489.12 625.67 487.03 624.15 486.54 622.56 486.51 619.41 487.52 618.2 486.81 615.08 485.61 613.03 486.79 612.06 486.89 610.3 484.5 609.93 483.11 610.13 481.09 608.88 477.06 610.64 474.9 611.61 474.06 612.18 472.32 613.73 469.5 614.28 469.18 615.49 465.97 616.59 465.79 619.46 464.25 618.83 461.95 619.44 460.81 619.7 459.1 619.21 457.99 617.08 455.04 615.62 454.88 614.54 453.97 613.48 453.92 611.95 452.15 611.85 451.21 610.8 450.2 610.52 448.14 609.3 445.75 608.7 443.62 607.69 442.57 607.76 441.7 605.97 439.52 603.3 435.26 602.44 433.32 601.27 432.15 601.46 429.58 599 426.12 595.06 420.2 595.34 419.46 596.93 418.7 598.37 418.97 598.21 417.68 599.21 412.14 598.34 411.49 598.77 409.15 599.05 405.76 600.84 402.85 601.62 402.84 603.65 404.17 605.09 404 606.25 404.72 607.32 406.07 611.77 408.01 613.45 408.48 615.37 410.71 619.66 411.98 621.29 411.35 622.38 410.45 622.85 409.38 624.19 408.76 625.99 407.39 628.82 409.5 629.58 409.53 631.13 408.81 632.47 407.55 632.87 405.93 634.94 406.31 636.22 407.62 640.46 408.58 641.63 407.32 642.75 407.81 644.74 408.25 647.35 408.52 648.2 408.33 652.99 408.28 655.44 408.58 656.55 408.2 657.87 408.2 659.45 407.57 661.16 408.55 664.6 408.83 667.13 409.45 669.2 409 671.53 410.48 675.82 412.11 676.94 413.08 678.96 413.01 680.26 413.61 682.1 413.41 682.83 413.6 684.57 415.83 685.22 416.32 685.86 418.12 686.02 420.11 686.51 421.86 686.67 425.45 689.19 426.18 690.32 425.79 691.39 426.14 692.01 425.83 694.02 423.45 696.82 423.57 698.02 422.77 698.85 423.05 699.74 424.18 700.74 424.87 701.94 427.29 703.14 428.25 703.42 429.15 704.18 429.6 705.8 429.47 706.85 428.36 709.08 427.26 710.12 425.9 712.27 424.88 712.91 424.03 714.54 422.96 716.75 421.86 718.27 421.78 720.34 422.12 722.96 423 723.46 423.42 725.21 423.61 725.72 423.34 727.64 424.14 732.43 426.62 Z" id="37520350"/>
<path d="M 367.25 315.91 366.21 316.9 364.69 318.9 363.59 319.25 362.66 321.38 362.97 322.75 364.79 325.49 366.13 326.02 365.88 327.06 366.07 328.79 364.84 330.54 363.22 331.02 362 331.75 360.33 331.54 357.81 332.29 356 331.66 354.83 331.8 354.22 332.47 350.63 333.78 350.22 334.17 350.54 335.92 349.47 338.92 349.29 340.95 348.86 341.19 345.65 341.74 346.11 342.61 346.28 344.49 345.24 347.38 346.55 347.46 346.61 349.1 348.29 350.05 348.81 349.74 350.92 350.43 349.42 355.38 349 356.21 346.9 357.98 346.82 359.4 347.56 362.53 346.78 363.88 347.23 365.2 349.22 367.29 348.69 370.13 348.81 371.67 350.17 373.4 348.17 374.63 346.84 375.95 344.46 375.74 343.62 376.12 342.21 375.87 341.51 378.38 340.84 380.01 339.42 382.04 338.41 384.61 335.52 383.02 334.82 381.55 330.82 380.22 329.1 380.89 326.09 380.13 325.47 378.57 323.04 379.86 322.43 379.79 318.04 381.9 317.24 381.99 316.12 379.75 313.55 376.74 313.51 375.28 312.62 373.17 311.39 372.12 309.08 372.76 307.28 371.34 305.68 372.03 304.41 371.78 303.16 370.56 302.34 369.1 299.55 369.33 298.43 369.04 297.48 370.38 296.06 370.91 294.55 370.2 292.89 371.29 290.6 368.88 289.87 367.07 287.92 366.57 287.33 367.05 283.87 367.3 281.63 366.48 279.07 366.48 274.13 367.9 273.79 367.03 269.65 365.14 268.53 365.4 267.22 366.28 266.81 365.76 266.13 363.08 264.46 361.07 262.65 359.77 262.01 360.05 260.64 359.78 259.98 360.48 258.33 360.84 257.19 360.29 256.01 358.78 253.67 357.25 252.07 356.8 251.36 355.25 249.36 355.19 248.24 354.55 246.87 354.23 244.75 354.28 243.59 353.52 243.85 350.1 243.37 347.89 243.86 344.22 242.53 343.32 241.65 343.1 240.57 339.47 239.39 340.79 238.63 339.53 237.34 338.12 234.5 338.06 232.08 336.8 229.4 336.66 227.21 335.75 226.29 334.42 223.81 334.52 223.01 333.83 220.55 333.19 220.14 332.58 220.1 330.19 220.86 330.09 222.89 328.62 222.95 327.9 225.82 326.01 228.91 325.12 230.07 325.26 231.33 322.75 230.54 319.85 229.68 317.75 228.89 315.06 228.32 313.85 228.07 312.31 228.63 311.25 229.42 311.1 228.61 303.95 229.47 303.1 229.28 299.26 229.57 297 229.83 291.49 230.42 286.23 231.44 279.83 232.72 274.01 231.98 269.58 231.66 268.77 230.22 269.13 229.14 268.28 231.69 268.23 232.52 270.01 233.54 271.16 234.16 273.51 235.2 274.48 236.9 274.29 238.17 274.53 239.77 275.84 241.27 277.47 242.16 278.05 242.29 279.19 243.43 280.09 244.06 279.73 246.03 279.68 246.85 279.32 248.96 279.19 252.83 278.34 254.33 280.16 257.12 279.9 258.73 280.43 260.72 280.41 261.7 280.79 263.16 284.17 263.3 285.33 264.48 284.26 264.41 283.74 266.28 280.97 267.62 279.7 269.17 278.81 271.89 278.26 274 277.04 274.73 276.18 274.98 275.19 274.25 274.18 276.46 272.03 275.8 269.32 277.8 268.05 278.24 264.99 278.69 264.52 278.89 262.12 277.44 260.73 276.8 258.65 277.02 257.78 280.02 255.97 281.36 254.84 282.24 254.56 283.84 251.48 283.66 249.6 284.34 246.87 284.23 245.02 285.53 243.09 287 241.56 287.19 239.91 288.6 236.99 288.57 237.23 291.98 238.34 293.52 238.43 295.05 237.15 295.35 235.29 296.09 234.02 299.24 233.07 300.63 232 303.99 232.31 307.19 233.32 310.63 234.92 312.62 237.68 313.79 238.28 315.44 237.42 317.09 237.32 318.59 236.2 321.59 236.99 322.35 236.53 325.29 236.19 325.7 235.79 328.21 234.82 329.04 234.92 331.04 236.66 334.26 241.26 334.55 241.97 336.86 244.71 337.52 246.47 338.68 247.62 338.77 248.67 340.85 251.61 341.29 257.36 341.61 259.95 341.98 260.62 343.32 260.95 344.71 264.21 344.53 267.14 345.94 268.62 346.71 270.16 348 271.27 348.72 272.72 349.01 274.62 348.34 276.11 348.02 277.73 349.38 279.28 354.24 281.25 354.77 283.93 355.81 284.85 354.64 287.05 353.92 287.75 355.05 290.94 356.55 291.8 358.29 293.57 359.27 294.99 359.08 296.62 359.5 298.42 359.2 300.24 358.31 301.65 358.89 303.27 361.03 304.67 362.29 307.26 363.95 307.65 364.59 310.68 365.57 311.25 366.93 313.25 367.25 315.91 Z" id="37520390"/>
<path d="M 229.14 268.28 230.22 269.13 231.66 268.77 231.98 269.58 232.72 274.01 231.44 279.83 230.42 286.23 229.83 291.49 229.57 297 229.28 299.26 229.47 303.1 228.61 303.95 229.42 311.1 228.63 311.25 228.07 312.31 228.32 313.85 228.89 315.06 229.68 317.75 230.54 319.85 231.33 322.75 230.07 325.26 228.91 325.12 225.82 326.01 222.95 327.9 222.89 328.62 220.86 330.09 220.1 330.19 218.04 329.65 217 330.31 215.12 329.76 213.9 332.08 214.38 333.64 211.93 335.92 210.72 335.65 209.25 337.11 209.21 338.78 207.04 342.06 206.84 344.05 204.62 346.56 202.83 348.02 200.48 348.4 198.45 350.17 197.72 351.2 198.74 352.3 199.29 353.95 199.11 356.01 198.26 357.41 199 357.96 198.66 359.82 198.94 360.83 198.47 362.64 199.07 364.21 198.56 365.59 197.02 366.87 195.53 366.72 194.82 365.52 193.44 364.72 191.88 365.24 189.97 366.86 189.92 369.67 187.33 373.18 184.85 375.75 181.71 375.45 180.74 376.35 179.47 375.92 178.05 376.1 176.03 376.77 174.31 375.51 171.97 375.71 171.63 375.36 170.01 376.28 169.68 377.52 168.61 378.55 166.99 380.6 166.56 382.53 165.32 384.46 165.86 386.81 166.78 388.32 166.37 389.41 163.28 393.23 162.37 394.94 160.04 395.09 157.68 395.02 155.79 394.7 153.52 393.59 151.81 392.2 150.16 392.19 147.54 390.03 145.65 387.28 143.34 385.78 142.69 383.55 142.7 382 142.22 379.37 140.52 377.61 139.01 377.51 138.16 377.05 136.58 376.85 136.25 374.69 132.52 368 134.23 359.22 129.61 357.47 122.58 355.25 123.53 350.01 123.4 346.39 122.73 345.34 120.89 343.45 121.2 343.02 120.21 338.56 121.78 337.92 122.38 336.43 123.98 334.74 125.1 334.12 124.65 333.31 127.15 328.36 128.72 325.77 129.02 323.96 130.52 322.58 131.41 321.35 131.78 320 131.22 317.89 132.27 315.45 133.86 312.42 134.42 309.92 133.85 309.11 134.67 306.53 136.62 303.82 139.79 302.63 140.17 302.23 142.54 301.13 143.7 300.22 144.79 300.31 145.48 300.91 148.01 299.67 149.07 299.78 151.19 299.17 152.16 299.28 153.16 298.77 154.15 297.63 154.79 297.88 156.33 295.82 155.46 294.92 153.82 293.86 153.02 292.89 151.66 292.37 151.14 291.4 149.43 289.37 150.3 288.43 150.68 287.35 150.49 284.13 152.35 283.48 153.09 283.61 158.46 279.44 159.74 277.95 160.24 278 162.7 275.46 162.38 274.64 164.6 271.02 165.91 268.36 167.22 266.71 168.65 267.35 170.57 266.17 173.14 265.2 176.41 264.73 181.74 264.66 187.51 265.38 187.34 266.19 195.46 266.13 195.53 264.47 201.06 263.87 207.71 263.6 213.38 263.89 216.56 264.33 218.05 264.83 220.58 264.82 225.34 266.24 228.33 267.56 229.14 268.28 Z" id="37520400"/>
<path d="M 167.22 266.71 165.91 268.36 164.6 271.02 162.38 274.64 162.7 275.46 160.24 278 159.74 277.95 158.46 279.44 153.09 283.61 152.35 283.48 150.49 284.13 150.68 287.35 150.3 288.43 149.43 289.37 151.14 291.4 151.66 292.37 153.02 292.89 153.82 293.86 155.46 294.92 156.33 295.82 154.79 297.88 154.15 297.63 153.16 298.77 152.16 299.28 151.19 299.17 149.07 299.78 148.01 299.67 145.48 300.91 144.79 300.31 143.7 300.22 142.54 301.13 140.17 302.23 139.79 302.63 136.62 303.82 134.67 306.53 133.85 309.11 134.42 309.92 133.86 312.42 132.27 315.45 131.22 317.89 131.78 320 131.41 321.35 130.52 322.58 129.02 323.96 128.72 325.77 127.15 328.36 124.65 333.31 125.1 334.12 123.98 334.74 122.38 336.43 121.78 337.92 120.21 338.56 118.55 338.06 115.53 335.48 114.34 335.56 111.92 334.85 111.74 334.08 108.57 327.85 105.38 324.68 104.65 320.48 102.89 313.8 100.34 312.76 97.6 310.37 94.5 310.11 93.18 309.11 91.38 308.99 87.22 307.67 86.93 309.79 83.97 308.02 80.04 305.99 80.11 304.23 77.46 301.68 77.02 300.1 75.73 299.7 73 299.46 70.14 299.56 69.5 298.51 67.97 298.28 67.05 296.9 65.37 296.37 62.13 296.58 62.15 297.77 60.38 300.74 59.52 302.89 60.74 304.96 59.85 305.04 58.76 306.3 58.45 307.38 57.09 306.93 55.73 307.68 54.85 307.47 52.25 307.64 50.69 307.31 49.79 308.53 47.96 309.54 48.28 310.57 46.8 311.87 46.57 312.83 45.88 313.45 42.4 315.68 41.22 317.76 38.07 318.96 38.43 320.49 37.8 321.94 37.75 323.09 39.42 324 37.36 325.62 36.64 326.59 35.29 325.97 34.66 326.46 32.88 326.56 32.37 327.9 30.45 326.8 28.2 327.49 27.74 326.86 25.54 325.71 24.49 325.44 23.54 323.47 24.22 322.25 23.33 320.48 23.34 319.59 23.94 317.05 23.84 315.84 22.48 313.57 22.55 312.78 21.28 310.75 21.43 310.14 20.74 308.51 19.59 307.27 19.51 306.34 17.9 303.72 16.59 304.24 15.63 304.13 15.46 305.47 13.87 305.43 13.29 303.81 11.53 302.2 10.85 300.97 10.12 300.38 8.68 298.21 6.17 300.22 1 302.03 6.59 295.15 9.66 293.89 12.61 291.6 15.42 287.12 16.48 284.95 19.46 281.34 23.64 276.98 25.67 275.47 26.24 275.29 26.87 277.44 30.13 272.9 30.91 270.86 31.87 266.56 31.87 263.52 31.39 261.3 31.17 255.22 32.07 254.84 35.65 243.37 35.49 241.39 35.98 240.38 38.59 236.46 38.94 234.97 40.58 235.78 44.08 236.95 46.34 238.3 47.69 238.27 50.39 237.13 52.48 234.61 52.96 233.63 54.33 232.49 54.11 231.09 54.33 229.86 55.05 228.96 55.61 226.15 56.47 223.87 58.23 222.16 58.17 220.33 59.64 218.23 59.71 217.64 58.51 215.79 59.27 215.16 59.29 214.25 60.81 213.82 61.85 212.62 62.41 211.37 64.22 210.3 65.01 208.66 66.62 206.71 66.3 205.61 66.38 204.19 65.96 202.84 68.81 204.32 71.58 204.42 74.49 203.75 74.81 201.84 75.93 199.11 76.46 195.98 77.7 192.85 78.59 192.31 81.3 191.79 83.12 192.1 84.21 193.32 85.84 195.6 86.44 196.73 87.1 198.79 86.28 201.58 87.59 204.3 88.44 207.34 89.55 210.36 91.42 214.9 92.03 214.95 93.38 217.16 94.83 218.14 96.53 218.93 98.72 219.47 100.97 221.06 99.93 221.32 101.01 223.07 102.91 224.45 106.7 228.21 110.12 228.88 110.26 228.2 111.86 228.03 113.09 228.35 113.15 229.24 115.66 229.27 118.85 229.93 120.42 230.84 122.96 231.14 125.07 233.36 126.82 238.25 127.35 241.07 128.31 244.46 130.86 247.13 131.8 249.16 135.96 249.09 137.9 248.87 139.13 248.16 138.71 247.44 141.15 247.17 142.29 249.56 144.41 251.43 148.15 252.68 149.32 251.24 151.87 252.24 150.76 254.96 151.85 256.05 152.1 257.63 153.14 259.75 153.93 258.8 155.06 259.72 154.3 260.63 155.16 261.17 159.01 261.5 160.32 263.88 162.19 261.32 166.36 264.37 167.46 263.62 171.06 264.2 169.12 265.74 167.22 266.71 Z" id="37520410"/>
<path d="M 166.46 191.29 167.95 193.44 168.81 195.59 169.55 199.37 170.47 200.41 172.18 202.95 173.28 203 173.21 204.22 174.69 204.41 175.07 203.84 177.8 202.5 179.07 203.76 178.44 204.73 178.34 206.92 177.5 207.8 177.33 208.8 178.57 209.7 178.15 210.63 177.58 214.42 177.83 215.79 178.53 216.47 177.7 218.01 180.6 222.33 181.08 223.29 184.06 224.48 185 226.52 186.87 228.56 188.02 230.08 186.74 231.11 185.56 232.56 183.55 233.7 182.55 235.13 180.54 235.76 180.32 236.48 181.25 237.88 182.09 238.46 183.05 241.4 184.13 241.52 186.52 242.61 189.29 243.05 189.78 245.83 189.58 247.31 188.43 249.86 188.69 251.12 187.65 251.2 188.29 259.81 187.67 259.71 188.19 262.59 187.51 265.38 181.74 264.66 176.41 264.73 173.14 265.2 170.57 266.17 168.65 267.35 167.22 266.71 169.12 265.74 171.06 264.2 167.46 263.62 166.36 264.37 162.19 261.32 160.32 263.88 159.01 261.5 155.16 261.17 154.3 260.63 155.06 259.72 153.93 258.8 153.14 259.75 152.1 257.63 151.85 256.05 150.76 254.96 151.87 252.24 149.32 251.24 148.15 252.68 144.41 251.43 142.29 249.56 141.15 247.17 138.71 247.44 139.13 248.16 137.9 248.87 135.96 249.09 131.8 249.16 130.86 247.13 128.31 244.46 127.35 241.07 126.82 238.25 125.07 233.36 122.96 231.14 120.42 230.84 118.85 229.93 115.66 229.27 113.15 229.24 113.09 228.35 111.86 228.03 110.26 228.2 110.12 228.88 106.7 228.21 102.91 224.45 101.01 223.07 99.93 221.32 100.97 221.06 98.72 219.47 96.53 218.93 94.83 218.14 93.38 217.16 92.03 214.95 91.42 214.9 89.55 210.36 88.44 207.34 87.59 204.3 86.28 201.58 87.1 198.79 86.44 196.73 85.84 195.6 84.21 193.32 86.15 191.84 87.39 192.1 88.43 191.06 88.62 189.82 87.88 186.91 88 185.74 87.86 183.04 89.13 181.62 89.27 180.96 90.42 181.05 90.67 181.83 93.86 182.19 95.3 182.83 96.83 184.24 97.61 186.21 98.77 187.41 99.58 188.89 100.98 189.92 101.74 190.11 102.87 189.59 103.43 190.72 105.77 191.36 108.51 192.75 109.32 193.77 111.16 193.18 113.32 191.67 118.35 190.56 120.25 191.34 121.27 190.06 122.74 189.01 123.56 187.71 124.75 187.28 125.1 185.5 122.64 183.1 123.4 181.8 124.84 180.68 125.45 179.68 126.86 179.39 127.59 178.52 128.94 177.99 129.51 179.44 130.69 181.16 132.2 182.88 134.42 184.35 136.16 185.09 137.05 185.97 139.27 186.88 140.3 188.04 141.51 188.65 142.25 189.7 142.86 192.33 147.2 195.71 149.1 196.72 151.63 199.1 153.62 199.77 153.97 198.38 154.93 197.44 157.36 196.55 158.89 196.31 161.82 194.2 163.01 194.42 164.67 193.6 165.99 191.62 166.46 191.29 Z" id="37520420"/>
<path d="M 288.6 236.99 287.19 239.91 287 241.56 285.53 243.09 284.23 245.02 284.34 246.87 283.66 249.6 283.84 251.48 282.24 254.56 281.36 254.84 280.02 255.97 277.02 257.78 276.8 258.65 277.44 260.73 278.89 262.12 278.69 264.52 278.24 264.99 277.8 268.05 275.8 269.32 276.46 272.03 274.25 274.18 274.98 275.19 274.73 276.18 274 277.04 271.89 278.26 269.17 278.81 267.62 279.7 266.28 280.97 264.41 283.74 264.48 284.26 263.3 285.33 263.16 284.17 261.7 280.79 260.72 280.41 258.73 280.43 257.12 279.9 254.33 280.16 252.83 278.34 248.96 279.19 246.85 279.32 246.03 279.68 244.06 279.73 243.43 280.09 242.29 279.19 242.16 278.05 241.27 277.47 239.77 275.84 238.17 274.53 236.9 274.29 235.2 274.48 234.16 273.51 233.54 271.16 232.52 270.01 231.69 268.23 229.14 268.28 228.33 267.56 225.34 266.24 220.58 264.82 218.05 264.83 216.56 264.33 213.38 263.89 207.71 263.6 201.06 263.87 195.53 264.47 195.46 266.13 187.34 266.19 187.51 265.38 188.19 262.59 187.67 259.71 188.29 259.81 187.65 251.2 188.69 251.12 188.43 249.86 189.58 247.31 189.78 245.83 189.29 243.05 186.52 242.61 184.13 241.52 183.05 241.4 182.09 238.46 181.25 237.88 180.32 236.48 180.54 235.76 182.55 235.13 183.55 233.7 185.56 232.56 186.74 231.11 188.02 230.08 186.87 228.56 185 226.52 184.06 224.48 181.08 223.29 180.6 222.33 177.7 218.01 178.53 216.47 177.83 215.79 177.58 214.42 178.15 210.63 178.57 209.7 177.33 208.8 177.5 207.8 178.34 206.92 178.44 204.73 179.07 203.76 177.8 202.5 175.07 203.84 174.69 204.41 173.21 204.22 173.28 203 172.18 202.95 170.47 200.41 169.55 199.37 168.81 195.59 167.95 193.44 166.46 191.29 169.34 189.68 170.62 187.92 172.19 184.16 174.57 181.83 176.83 180.11 177.99 179.54 178.82 179.74 180.98 178.75 181.38 176.01 181.96 175.18 182.03 173.46 179.91 170.88 179.99 168.15 181.02 166.48 181.76 166.44 183.33 165.54 184.28 163.8 184.78 162.2 184.82 160.85 185.81 158.02 187.13 156 188.72 156.75 190.48 158.56 192.83 157.82 195.37 158.08 197.12 159.15 198.34 160.32 200.17 160.39 201.6 161.27 202.75 163.88 203.88 165.42 205.48 166.57 208.12 168.9 209.22 168.53 210.52 169.04 213.38 169.32 214.71 166.55 216.36 164.29 216.71 163.22 218.39 164.72 219.67 164.61 220.31 163.79 221.51 163.18 225.27 163.35 227.07 163.74 229.97 163.96 232.36 165.65 232.83 167.3 232.07 168.17 232.99 169.62 233.22 171.48 235.28 171.92 235.37 173.51 238.39 176.21 238.41 180.36 238 180.96 237.31 183.37 237.18 185.5 237.91 186.65 238.89 190.15 241.48 192.24 242.93 193.22 243.62 192.52 245.2 192.84 247.44 192.75 249.77 190.79 250 189.66 251.1 188.71 252.6 188.17 255.4 189.55 257.88 190.4 259.05 191.81 260.7 192.1 261.2 194.92 261.87 195.93 260.25 197.37 260.1 198.18 258.05 199.44 258.28 201.6 257.77 201.99 258.54 204.04 259.16 205.01 259.17 207.22 260.39 208.21 260.74 210.39 260.24 212.44 262.02 213.3 262.27 216.1 263.13 216.37 263.58 217.18 265.8 217.95 267.08 216.98 268.89 216.33 269.94 216.36 271.58 215.62 274.4 217.39 276.54 216.76 279.12 217.22 280.36 218.56 281.8 219.41 282.86 219.54 283.76 220.65 284.64 221 285.54 223.26 287.53 225.11 287.22 226.15 287.62 227.49 286.8 229.94 286.29 232.83 287.03 234.46 287.58 234.76 288.63 236.29 288.6 236.99 Z" id="37520430"/>
<path d="M 120.33 45.68 121.6 48.06 122.67 48.9 124.01 50.56 125.26 50.81 126.17 52.49 127.25 53.1 128.67 52.51 130.21 51.46 132.19 53.73 134.69 54.87 136.29 55.13 137.35 56.26 138.66 61.52 138.19 62.52 139.02 63.32 140.06 66.14 142.27 65.97 143.51 65.61 144.65 66.53 145.58 66.68 148.39 67.77 149.43 67.4 151.41 69.32 152.59 69.46 153.74 70.47 154.6 70.58 155.67 71.9 156.36 71.98 157.43 73.33 159.04 73.5 159.99 75.7 159.97 76.82 160.85 78.58 161.49 78.87 163.23 80.59 163.86 82.53 164.81 82.48 166.08 86.21 166.58 88.34 168.19 90.64 168.19 92.53 169.83 93.45 169.07 95.91 169.91 99.3 170.83 101.58 171.25 105.02 173.03 106.2 176.17 109.72 177.38 111.59 179 113.63 178.4 116.52 177.02 119.47 176.51 121.76 176.57 123.13 175.99 125.81 175.53 127.02 173.88 129.58 171.31 131.74 169.35 134.91 170.35 137.28 172.92 139.34 173.57 142.05 174.07 142.97 175.5 144.32 174.81 146.19 175.33 146.8 177.63 148.25 179.05 150.08 178.65 151.2 180.68 153.79 181.99 154.28 183.32 155.65 184.84 155.81 185.82 155.42 187.13 156 185.81 158.02 184.82 160.85 184.78 162.2 184.28 163.8 183.33 165.54 181.76 166.44 181.02 166.48 179.99 168.15 179.91 170.88 182.03 173.46 181.96 175.18 181.38 176.01 180.98 178.75 178.82 179.74 177.99 179.54 176.83 180.11 174.57 181.83 172.19 184.16 170.62 187.92 169.34 189.68 166.46 191.29 165.99 191.62 164.67 193.6 163.01 194.42 161.82 194.2 158.89 196.31 157.36 196.55 154.93 197.44 153.97 198.38 153.62 199.77 151.63 199.1 149.1 196.72 147.2 195.71 142.86 192.33 142.25 189.7 141.51 188.65 140.3 188.04 139.27 186.88 137.05 185.97 136.16 185.09 134.42 184.35 132.2 182.88 130.69 181.16 129.51 179.44 128.94 177.99 127.59 178.52 126.86 179.39 125.45 179.68 124.84 180.68 123.4 181.8 122.64 183.1 125.1 185.5 124.75 187.28 123.56 187.71 122.74 189.01 121.27 190.06 120.25 191.34 118.35 190.56 113.32 191.67 111.16 193.18 109.32 193.77 108.51 192.75 105.77 191.36 103.43 190.72 102.87 189.59 101.74 190.11 100.98 189.92 99.58 188.89 98.77 187.41 97.61 186.21 96.83 184.24 95.3 182.83 93.86 182.19 90.67 181.83 90.42 181.05 89.27 180.96 89.13 181.62 87.86 183.04 88 185.74 87.88 186.91 88.62 189.82 88.43 191.06 87.39 192.1 86.15 191.84 84.21 193.32 83.12 192.1 81.3 191.79 78.59 192.31 77.7 192.85 76.46 195.98 75.93 199.11 74.81 201.84 74.49 203.75 71.58 204.42 68.81 204.32 65.96 202.84 64.08 200.49 62.92 199.49 61.07 198.33 59.77 198.18 58.84 197.59 59.92 196.86 59.06 194.82 58.56 190.24 57.74 188.47 58.36 187.7 57.76 184.56 59.4 182.36 59.65 181.46 59.1 180.75 56.33 180.6 54.81 178.92 54.09 177.15 52.42 176.89 50.32 176.15 46.07 176.46 45.33 176.39 43.69 176.98 43.73 173.51 44.32 171.92 45.26 170.44 45 166.06 44.32 165.05 43.96 163.56 43.36 163.06 44.8 161.82 45.78 160.29 46.58 158.2 48.43 155.9 49.59 155.44 49.26 153.71 48.18 152.8 48.51 152.03 48.72 150 48.29 149.61 47.32 147.43 46.7 147.12 45.7 145.4 45.76 143.57 45.31 142.93 43.37 141.47 40.68 141.04 38.92 139.67 37.88 136.09 37.25 135.34 35.99 133.05 34.04 131.96 32.82 130.65 32.99 128.05 32.29 127.24 31.87 125.08 31.4 123.98 30.74 121 30.4 120.53 30.38 118.37 29.84 116.96 28.51 116.09 28.57 115.22 27.82 113.88 27.01 113.6 25.73 112.48 26.15 111 28.07 106.99 29.41 104.69 30.84 103.94 33.32 101.19 34.98 101.51 37.65 101.4 38.21 100.57 40.97 100.1 40.5 99.16 40.97 96.22 41.53 95.06 42.98 93.5 44.79 93.95 45.85 92.24 46.42 90.64 47.24 89.98 50.02 86.13 49.97 84.34 52.8 81.86 53.14 80.75 53.8 80.04 54.65 78.04 54.76 77.17 56.18 76.62 58.16 75.22 58.52 74.59 60.49 72.99 60.79 72.03 63.13 71.88 64.34 69.97 63.38 67.68 62.19 67.12 61.99 65.54 60.75 62.77 60.6 61.51 62.04 60.4 63.52 58.64 63.21 57.85 60.86 55.78 60.52 54.74 62.19 51.93 63.77 50.35 65.31 49.19 66.19 47.51 66.35 46.38 67.16 45.62 66.55 44.24 68.14 42.52 67.7 37.84 68.57 37.29 69.63 35.38 71.18 33.58 71.82 31.69 72.59 30.32 71.92 28.3 71.73 27 70.53 23.69 70.49 22.44 69.9 21.19 70.05 19.63 68.76 19.18 66.48 16.79 66.14 15.44 67.83 13.01 68.88 12.42 70.81 12.14 71.94 11.36 73.13 10.96 74.92 9.11 77.28 9.93 78.45 10.1 79.47 9.56 82.06 9.45 83.1 9.79 84.64 8.67 86.02 6.87 87 6.45 88.86 4.16 88.75 1 91.45 1.1 92.67 1.45 94.79 2.5 96.45 3.66 98.35 4.64 99.6 5.72 101.47 9.71 101.44 14.42 101.54 18.36 102.01 22.53 105.3 26.18 105.5 27.04 105.21 29.54 104.17 33.89 103.91 35.81 104.16 38.74 105.47 41.73 107.7 45.11 109.8 47.17 111.89 48.18 114.98 47.47 119.11 45.96 120.33 45.68 Z" id="37520440"/>
<path d="M 361.5 125.78 360.39 126.54 359.61 129.25 359.82 130.5 356.46 131.86 355.34 133.59 353.64 133.32 352.01 135.65 350.1 140.16 349.22 140.44 348.58 141.58 348.39 142.9 346.3 145.51 344.57 146.54 343.34 147.71 342.26 148.32 341.79 147.5 339.74 146.56 338.01 144.64 336.23 144.53 334.88 144.07 334.26 145.46 332.5 146.79 331.02 146.88 330.21 147.8 327.6 147.67 326.95 147.93 325.46 147.43 324.27 147.57 322.08 146.86 321.58 147.22 317.87 146.64 316.52 147.34 315.53 148.34 315.04 150.38 313.97 151.18 314.87 153.25 315.67 154.25 315.91 155.34 317.1 156.58 318.2 159.21 317.66 160.49 317.56 162 316.09 164.33 315.98 165.49 316.59 166.45 316.64 168.3 317.4 169.51 316.34 170.43 315.65 171.48 313.85 172.96 312.5 174.42 310.84 174.67 310.17 174.32 308.11 174.57 306.01 175.24 304.74 176.08 303.33 175.19 301.52 174.67 299.45 174.96 298.63 175.56 296.16 176.31 294.92 176.29 293.87 175.4 289.12 174.45 286.9 171.32 284.97 170.62 284.4 169.03 284.76 168.43 284.42 166.51 283.05 165.79 280.36 163.06 278.91 162.39 277.73 160.86 275.77 160.41 273.46 159 273.88 157.42 275.37 155.05 275.6 154.13 276.6 152.27 275.88 147.79 276.58 145.68 277.11 144.84 275.67 143.74 274.25 142.07 272.15 141.58 270.66 139.99 268.94 139.37 267.87 138.24 267.05 137.99 266.62 136.36 266.51 133.96 266.64 132.22 266.22 130.59 264.09 127.76 261.87 125.47 259.26 125.87 256.72 124.2 254.24 122.82 254.36 121.42 255.02 118.54 254.02 116.42 254.18 114.61 253.25 111 251.73 108.95 250.68 108.59 248.3 108.64 244.84 106.14 244.13 104.96 243.93 103.78 243.29 103.52 244.21 100.81 243.96 99.63 243.77 94.22 243.96 93.82 242.25 92.91 240.57 91.05 239.95 90.07 237.4 88.47 236.71 87.35 233.66 87.44 229.71 85.4 227.93 83.91 227.17 82.91 226.26 82.52 224.98 81.32 223.63 80.48 221.48 80.2 219.95 79.38 217.51 78.82 214.6 78.45 212.79 76.7 211.71 74.5 210.84 73.33 211.86 70.22 212.69 69.47 212.78 66.91 213.3 65.95 215.02 66.14 216.3 63.25 218.71 61.3 219.73 64.19 221.21 65.43 221.82 66.49 223.11 67.09 224.76 65.99 225.03 64.46 224.92 62.04 225.13 59.38 224.98 57.99 225.24 56.93 227.09 55.39 226.79 53.51 229.65 52.82 233.91 52.56 235.02 52.34 236.09 52.74 239.51 53.02 240.31 53.35 241.13 52.43 240.88 50.8 241.3 50.19 241.52 47.73 241.4 41.95 242.94 40.66 242.79 37.13 243.39 34.57 241.68 31.92 241.84 29.56 242.92 27.98 244.41 27.33 246.22 27.94 248.53 27.08 249.52 27.13 251.29 28.2 253.22 27.11 255.7 27.21 257.81 24.34 258.99 23.3 262.57 22.51 264.14 23.48 265.49 23.47 266.44 24.14 267.42 24 268.37 24.64 268.98 25.82 270.84 27.66 271.88 29.39 272.59 31.28 272.22 32.77 272.86 35.4 274.55 38.73 274.56 42.7 274.8 43.4 276.5 45.76 277.89 46.83 278.77 47.92 279.6 50.51 280.89 51.99 282.27 50.91 284.11 50.77 287.08 49.92 288.64 50.87 290.71 53.64 292.3 54.21 293.22 53.77 294.45 53.84 295.63 54.81 296.97 54.5 298.26 52.85 299.73 53.55 300.89 53.03 301.43 53.27 303.96 52.93 305.98 54.29 307.36 53.24 308.25 51.91 312.7 53.23 314.79 52.71 316.21 53.2 316.43 54.07 317.29 55 318.07 57.08 319.31 57.53 322.33 57.77 323.25 57.05 324.86 57.08 325.83 59.2 327.34 61.47 328.5 61.99 329.23 63.39 329.97 63.57 330.78 65.34 331.81 65.53 334.3 64.68 337.2 65.16 338.52 65.1 340.8 67.15 341.39 68.57 341.78 72.04 342.92 74.03 342.46 74.97 342.48 76.18 343.31 77.24 341.98 80.26 342.55 82.31 341.93 84.5 342.75 85.68 342.62 88.33 344.41 90.37 346.09 91.09 347.26 92.32 348.19 92.38 350.37 93.37 351.29 94.19 350.48 96.41 350.63 97.47 350.2 98.49 350.95 100.58 352.21 102.01 352.91 103.81 352.55 104.94 352.63 106.05 353.25 106.97 353.72 108.61 356.7 111.26 357.11 112 359.03 112.36 358.69 113.77 360.27 114.78 359.91 116.33 360.61 116.95 360.72 118.91 359.76 121.19 360.93 122.51 361.5 125.78 Z" id="37520450"/>
</g>
</svg>