<?xml version="1.0"?>
<svg xmlns="http://www.w3.org/2000/svg" version="1.2" baseProfile="tiny" width="800" height="1059" viewBox="0 0 800 1059" stroke-linecap="round" stroke-linejoin="round">
<g id="dong">
<path d="M 539.6 332.23 541.47 334.92 543.66 336.91 544.87 336.97 548.7 335.52 552.1 336.18 556.97 335.74 559.13 337.72 560.99 340.49 562.15 341.4 563.47 345.32 567.15 344.02 569.32 344.02 572.24 344.89 573.79 344.78 578.83 345.48 584.08 345.14 585.76 346.89 587.17 347.48 589.2 346.99 594.95 348.09 598.32 347.05 600.29 346.85 601.22 346.11 603.23 342.67 606.85 341.28 607.83 339.11 609.22 337.7 614.22 342 617.48 345.39 619.87 346.55 622.94 351.03 623.08 352.03 625.56 354.95 625.42 358.5 624.79 360.19 625.24 362.88 624.17 365.59 625.44 367.84 626.52 371.79 626.46 373.46 628.66 376.67 629.07 380.71 630.5 382.15 631.69 384.17 633.92 385.01 636.92 387.25 640.09 390.15 644.05 391.78 648.37 393.9 650.11 394.07 652.99 394.97 655.12 394.69 656.76 395.69 659.63 396.16 661.72 397.52 662.4 399.68 661.16 401.85 655.01 399.57 652.76 400.78 651.37 400.13 648.49 399.96 647.34 400.84 642.74 402.51 641.48 406.04 637.39 408.47 634.84 408.98 634.31 409.68 630.41 410.75 628.64 410.68 628.58 412.41 627.52 413.92 625.33 414.77 623.98 418.98 621.64 419.2 619.23 420.25 617.34 422.28 613.15 422.02 612.54 425.13 611.29 428.08 609.47 430.39 609.39 432.04 606.99 435.15 600.64 438.26 598.82 440.2 598.4 441.7 595.21 443.29 594.11 446.17 593.19 446.38 588.36 445.08 584.8 445.82 583.04 445.47 576.59 448.32 571.83 451.18 570.37 450.54 566.75 452.32 564.12 455.6 561.04 460.74 559.4 466.07 552.79 466.35 548.75 467.86 545.31 468.06 541.67 469.04 540.54 470.04 537.48 471.43 537.22 472.8 534.4 474.68 533.16 476.78 531.39 477.99 527.88 479.47 524.27 480.37 522.14 479.94 521.48 482.1 520.11 483.71 520.88 484.75 520.44 487.26 519.51 489.73 518.24 491.69 516.99 491.81 514.96 494.06 514.32 495.88 512.88 496.59 510.81 500.38 509.65 499.86 507.29 499.97 505.82 501.13 505.67 502.29 506.8 506 505.55 507.59 505.67 508.5 504.65 512.2 503.92 511.4 500.8 512.83 500.2 515.79 495.08 520.8 491.59 518.36 490.71 517.04 488.5 517.17 483.92 519.34 480 520.31 477.46 521.79 476.94 523.72 473.87 524.63 471.38 528.11 466.97 528.39 464.74 530.22 462.93 530.6 461.24 529.7 460.41 530.8 457.35 531.4 454.5 534.56 453.65 534.34 449.82 536.31 449.31 538.18 447.38 538.19 447.09 540.9 445.37 540.73 443.46 539.2 442.05 539.82 439.65 539.29 436.86 536.54 429.74 533.56 427.34 534.32 425.13 534.1 423.92 536.16 422.58 536.27 420.83 537.7 420.23 539.22 419 539.42 417.36 541.24 409.68 541.1 407.77 539.4 405.19 538.5 402.93 538.67 400.12 538.1 400.02 534.64 400.64 533.32 399.95 530.66 401.86 529.1 401.4 525.45 400.76 522.77 402.52 520.11 402.27 517.98 403.23 512.08 405.33 509.82 405.84 503.63 405.22 503.27 404.96 501.03 402.48 499.58 401.75 498.42 401.27 494.96 399.81 494.21 398.38 489.26 397.55 487.61 396.34 483 395.21 482.45 393.44 479.08 392.62 476.88 393.38 475.41 393 473.17 391.41 471.89 392.63 470.91 392.49 468 391.01 465.02 387.64 463.56 388.23 461.13 388.14 458.56 387.45 457.66 388.06 455.69 388.04 452.98 386.42 451.21 385.72 449.67 382.76 446.99 381.73 443.96 378.55 444.62 377.17 443.75 375.23 440.26 376.4 437.79 372.24 430.57 373.23 427.95 371.8 425.55 371.49 423.24 374.02 420.82 374.72 419.49 375 417.21 374.37 414.98 372.11 414.49 368.55 409.66 368.57 406.72 366.83 404.16 364.11 401.53 361.77 397.14 361.03 395.01 358.84 392.87 356.47 389.16 356.99 387.64 354.92 384.49 355.03 382.98 354.23 381.24 354.81 379.16 353.67 376.26 354.74 374.93 353.77 373.47 354.96 371.52 356.61 372.77 359.55 375.97 361.2 376.6 362.33 373.71 363.69 371.56 366.31 371.05 368.07 369.77 369.61 370.18 373.18 370.25 375.73 371.12 377.95 370.22 379.69 370.47 380.98 369.17 383.26 369.95 384.43 368.54 385.6 368.27 386.05 367.02 390 365.52 392.26 363.3 393.97 362.16 395.99 363.31 401.71 363.11 403.16 362.06 406.34 361.01 407.73 361.74 408.38 363.96 410.89 363.72 412.81 362.7 413.98 361.3 416.42 360.92 419.01 356.46 420.15 353.58 418.06 351.81 417.14 351.73 416.59 349.03 416.52 345.03 413.65 344.91 412.97 342.42 413.4 340.86 411.88 338.93 411.93 337.15 410.86 335.65 411.93 333.81 415.38 333.73 416.04 331.24 415.89 330.11 417.91 326.05 416.75 324.24 416.66 322.55 417.84 319.74 420.73 315.51 422.14 314.15 424.51 314.73 426.09 313.56 427.39 311.86 427.5 310.63 431.63 310.04 434.78 308.41 437.37 308.02 438.86 308.59 441.05 307.78 445 309.48 446.49 309.82 449.92 312.43 455.54 317.67 457.98 321.58 462.18 324.33 465.7 325.59 469.87 322.9 470.61 320.17 472.11 317.97 473.96 316.13 476.03 316.73 480.6 314.87 484.8 314.39 487.52 317.46 493.07 317.09 496.15 318.4 498.5 318.48 499.54 319.29 502.84 324.66 504.59 326.94 508.77 329.97 510.32 330.09 512.43 329.16 514.14 330.42 519.44 329.74 524.64 330.77 526.77 332.01 528.97 331.56 531.64 331.82 535.67 331.4 539.6 332.23 Z" id="37530110"/>
<path d="M 741.45 709.07 743.76 712.83 748.07 713.52 750.87 718.51 749.55 720.73 745.09 722.53 745.27 725.6 744.37 728.06 744.94 730.62 743.72 732.79 741.13 734.79 738.19 735.86 736.56 738.6 741.7 744.63 747.19 749.42 748.07 752.39 749.06 760.3 747.69 762.09 748.38 764.59 745.93 767.63 744.5 770.17 740.45 773.69 737.09 773.8 734.91 776.45 732.43 776.64 729.74 777.93 727.46 777.97 726.39 777.19 723.93 777.3 722.28 778.77 722.59 784.26 723.16 786.41 723 788.39 721.17 788.44 716.7 786.83 712.52 789.7 710.31 790.51 710.18 793.62 709.33 795.03 710.35 797.89 708.98 799.15 708.68 800.74 707.37 802.51 707.77 804.08 707.61 806.74 708.34 809.94 708.65 813.34 705.96 815.74 703.96 819.92 701.9 823.64 699.56 829.57 694.28 832.53 693.68 836 695.84 838.74 694.21 841.37 693.29 844.41 692.29 845.91 686.48 847.36 684.67 850.07 683.38 853.16 681.79 854.57 682.13 856.99 680.72 859.6 679.05 861.62 678.93 864.28 676.77 866.55 674.13 867.67 672.63 869.2 671.63 872.73 669.03 874.62 667.77 874.83 667.02 876.27 665.18 877.52 663.25 879.93 660.62 880.95 659.35 883.34 656.05 884.8 655.04 887.08 650.15 888.29 647.23 890.37 644.84 892.65 641.36 894.06 639.12 892.11 638.47 889.65 635.93 887.55 631.45 883.35 630.25 879.98 630.91 876.57 623.06 874.88 618.51 873.41 610.5 870.52 604.84 869.44 603.65 867.28 602.18 866.25 601.08 864.12 598.7 862.18 595.83 862 593.76 860.19 592.45 856.89 592.93 854.5 590.21 849.85 585.99 846.12 583.61 844.48 582 841.28 579.81 840.95 578.11 839.25 578.34 836.21 573.01 833.46 572.7 829.22 573.95 827.04 573.77 821.86 571.54 818.4 566.06 814.49 566.21 812.61 565.47 811.2 565.09 808.55 565.39 806.61 564.13 805.14 560.86 804.5 557.5 803.09 554.7 801.02 550.96 800.51 549.9 803.48 547.17 803.96 544.27 806.56 542.22 806.43 541.46 803.63 540.47 801.55 536.57 799.31 532.81 796.21 531.07 796.82 528.42 798.62 527.69 799.98 525.47 799.85 522.78 800.65 516.89 795.26 511.86 793.41 505.21 798.53 503.4 799.56 500.32 795.06 496.89 792.49 497.97 789.34 496.99 785.59 494.04 783.99 492.3 783.5 489.89 780.85 487.66 779.42 485.45 776.84 483.44 778.95 482.46 780.56 478.77 782.21 477.05 782 473.36 779.56 469.82 776.65 465.91 771.69 459.62 770.4 458.51 767.35 455.73 765.87 455.06 762.26 451.89 760.69 451.28 757.94 447.11 749.96 446.86 746.91 447.02 743.64 445.33 739.1 443.19 738.42 442.37 735.82 439.34 733.36 439.26 731.34 440.01 724.4 440.64 723.26 440.61 719.48 439.48 717.56 439.75 715.7 437.36 715.33 434.1 714.2 431.44 709.89 426.96 706.65 426.52 705.32 424.87 697.43 423.39 696.89 421.06 698.35 420.09 700.14 416.78 698.26 413.9 697.14 413.41 696.13 410.01 694.91 407.17 695.16 404.64 696.47 402.57 698.03 400.69 697.86 399.59 692.62 398.69 692.29 399.07 689.76 396.63 687.93 393.8 686.81 391.38 683.83 389.36 683.09 388.64 680.48 388.84 677.07 387.63 675.41 385.95 670.5 385.99 667.35 384.64 663.55 384.32 661.32 382.06 660.7 380.92 658.25 381.24 655.91 380.63 652.67 379.83 651.36 379.72 649.01 377.21 646.24 374.06 645.88 373.2 644.31 371.49 643.25 370.31 641.23 369.44 638.59 368.08 637.95 365.58 635.14 364.46 630.91 365.03 629.88 364.73 627.72 364.01 626.59 363.71 623.71 361.56 619.98 361.43 617.51 362.58 616.58 362.44 615.42 360.34 613.07 359.72 611.41 360.21 609.21 359.45 603.68 359.98 601.49 359.34 599.75 360.3 596.13 361.38 594.8 360.78 592.51 362.07 586.39 362.89 586.69 364.95 585.87 367.26 583.24 369.44 576.81 369.32 574.46 370.98 571.07 373.36 568.79 374.63 568.3 379.41 564.59 381.98 564.22 383.58 562.84 385.33 560.32 386.54 557.46 387.13 554.81 390.89 553.78 392.22 552.99 396.17 553.05 397.43 554.51 401.36 554.62 402.43 555.58 403.4 558.05 406.46 558.81 413.35 559.27 414.76 558.27 415.85 559.22 419.29 558.89 420.99 558.08 423.68 557.64 424.41 556.72 427.44 556.49 429.51 555.01 432.21 555.2 434.65 556.49 436.11 556.12 437.88 557.62 438.91 561.92 440.33 565.32 441.22 563.34 440.76 559.49 441.5 559.5 442.31 563.67 444.34 566.87 444.42 569.8 442.52 571.25 439.18 572.08 437.07 571.43 432.44 570.75 431.07 571.26 422.08 572.54 419.2 573.98 418.32 575.55 416.22 576.95 416.24 578.9 414.76 579.98 415.37 581.33 420.21 585.84 422.53 586.75 425.81 585.73 428.14 585.64 430.36 586.5 431.54 584.58 435.46 587.73 436.94 591.23 438.1 592.61 440.12 592.41 444.75 592.83 445.63 598.07 447.11 601.11 447.67 603.27 448.92 604.76 449.34 606.17 451.63 608.83 454.73 611.22 454.95 612.76 456.1 614.62 455.87 618.58 456.61 621.59 459.55 624.01 461.13 624.5 464.35 626.68 465.97 628.38 468.7 629.38 470.07 629.47 471.56 632.2 476.51 630.12 477.73 631.44 481.37 631.2 483.73 631.94 486.76 630.48 488.56 630.05 490.5 634.8 492 635.31 493.01 636.73 494.66 637.47 495.79 639.04 498.31 640.05 500.24 639.72 503.42 642 505.87 642.39 507.52 645.41 508.65 645.46 513.72 648.45 514.3 649.51 517.14 649.49 518.67 647.67 520.23 645.04 520.21 643.38 521.16 642.19 523.06 642.03 526.33 644 528.53 644.59 531.17 646.36 533.48 644.73 535.4 643.88 537.3 645.04 541.15 642.72 542.64 640.13 543.67 636.13 545.97 634.46 548.42 634.72 550.9 632.54 553 634.18 554.75 636.91 555.95 637.8 559.88 638.25 560.9 640.14 563.19 641.97 562.5 645.46 563.81 647.96 565.11 648.01 566.52 646.53 569.04 646.41 569.55 645.85 572.7 645.35 575.48 644.3 577.58 639.28 578.8 639.35 582.2 638.58 582.84 639.18 584.81 638.88 586.08 641.15 589.41 641.6 590.41 642.5 591.33 641.38 593.91 642.56 595.31 642.66 596.71 641.49 602.01 639.29 604.02 637.31 605.29 638.81 608.45 640.22 608.68 637.09 610.16 634.52 612.48 634.14 613.14 632.71 617.2 631.7 620.37 629.96 621.81 628.26 623.04 628.74 625.96 627.37 627.5 624.89 632.11 621.16 635.49 621.12 638.75 621.53 641.93 624.61 643.15 625.27 643.13 627.8 642.53 628.7 643.8 632.27 643.03 634.67 642.99 636.4 641.88 636.91 641.18 638.65 639.75 639.47 637.34 642.17 637.03 644.93 639.9 647.38 640.56 652.33 640.76 656.58 639.18 659.89 639.01 661.74 641.75 663.08 643.6 663.54 644.68 662.09 646.87 661.34 650.1 663.31 652.31 665.69 652.6 667.32 656.25 669.07 656.88 670.19 655.87 673.12 655.72 675.03 654.7 675.31 652.59 677.53 649.61 682.3 648.66 682.27 647.9 684.9 646.55 685.2 645.69 686.38 644.92 690.06 645.55 691.53 645.83 695.01 648.57 694.46 651.31 695.24 653.02 696.36 655.13 698.97 656.25 699.15 657.54 702.85 658.47 703.97 659.98 704.5 661.29 708.17 661.28 710.13 664.82 712.33 666.79 712.09 669.59 710.04 672.83 709.34 673.86 708.6 679.19 709.87 682.74 710.39 686.09 709.18 689.41 709.6 692.92 708.13 699.85 704.59 701.23 703.13 706.16 705.32 707.4 705.35 710.36 707.01 716.12 705.42 719.78 704.75 720.88 703.75 721.54 701.5 723.97 700.38 725.88 701.09 731.05 700.96 733.33 701.71 733.87 706.5 734.52 707.28 736.58 707.63 737.64 709.07 741.45 709.07 Z" id="37530320"/>
<path d="M 389.36 683.09 391.38 683.83 393.8 686.81 396.63 687.93 399.07 689.76 398.69 692.29 399.59 692.62 400.69 697.86 402.57 698.03 404.64 696.47 407.17 695.16 410.01 694.91 413.41 696.13 413.9 697.14 416.78 698.26 420.09 700.14 421.06 698.35 423.39 696.89 424.87 697.43 426.52 705.32 426.96 706.65 431.44 709.89 434.1 714.2 437.36 715.33 439.75 715.7 439.48 717.56 440.61 719.48 440.64 723.26 440.01 724.4 439.26 731.34 439.34 733.36 442.37 735.82 443.19 738.42 445.33 739.1 447.02 743.64 446.86 746.91 447.11 749.96 451.28 757.94 451.89 760.69 455.06 762.26 455.73 765.87 458.51 767.35 459.62 770.4 456.26 771.11 453.73 774.41 449.61 778.97 446.78 780.44 444.32 782.57 442.62 783.54 440.78 785.63 440.07 784.82 437.03 783.55 435.5 782.19 434.41 783.15 430.08 783.9 425.48 785.24 424.19 787.62 420.62 786.58 418.63 787.87 416 792.44 413.85 793.01 405.39 799.87 405.33 800.93 406.73 804.26 405.74 808.03 407.74 811.34 408.17 814.51 412.26 819.53 413.1 821.86 413.19 823.75 414.28 824.11 416.89 826.97 419.19 828.39 420.31 829.68 422.59 829.61 425.22 832.21 427.1 832.34 428.66 831.28 428.6 829.81 432.11 827.79 435.17 828.95 438.36 833.04 441.47 834.61 445.2 833.59 446.2 831.46 448.05 831.43 448.81 833.52 450.79 835.85 452.28 836.68 452.58 839.08 451.03 842.56 451.84 845.1 452.72 846.45 452.62 847.9 454.71 849.89 457.36 849.68 458.38 851.97 458.8 854.56 457.69 857.48 457.64 860.92 459.53 863.34 460.06 865.43 461.9 867.11 463.19 871.13 465.67 870.89 465.18 873.14 463.29 875.63 459.86 877.51 458.41 879.15 456.85 879.05 455.84 880.28 451.88 881.54 449.81 883.81 449.9 886.03 443.97 889.01 441.31 887.07 438.06 888.57 434.05 893.08 431.45 896.43 431.05 897.71 433.18 900.25 433.22 903.73 433.86 908.07 432.59 911.46 429.69 910.05 427.28 910.06 422.82 904.87 418.98 901.98 415.95 900.99 412.4 902.27 408.33 902.97 407.31 904.33 405.84 905.2 404.5 904.95 402.43 902.77 400.92 905.01 398.35 905.3 396.83 904.71 393.14 907.23 391.01 905.21 387.38 906.39 382.45 913.1 380.38 916.94 378.25 922.16 378.22 923.64 375.69 928.02 375.35 931.18 376.01 933.61 374.85 935.59 374.62 940.72 375 944.44 374.81 947.47 375.41 951.77 369.76 951.52 369.13 955.87 369.47 959.56 368.44 964.77 364.91 965.65 362.44 967.72 361.31 969.15 360.89 971.14 360.86 974.31 360.37 978.16 360.65 980.53 361.87 984.1 361.31 987.88 360.47 991.4 360.61 997.43 359.03 1000.95 356.43 1002.81 351.57 1001.83 348.79 1002.05 345.22 1004.98 342.74 1006.35 341 1008.33 336.72 1008.99 334.05 1010.12 330.03 1011.08 327.96 1011.1 325.52 1012.6 324.5 1012.66 321.27 1011.21 319.65 1012.09 315.64 1013.09 313.01 1012.23 310.7 1012.39 308.92 1011.2 311.15 1003.79 312.32 1001.33 313.36 997.84 313.4 991.91 312.15 991.65 309.88 989.95 307.27 986.83 306.72 985.18 307.44 983.48 307.18 981.46 308.42 977.11 308.15 973.91 306.15 971.27 306.65 967.29 306.13 965.84 307 961.97 308.14 960.66 308.62 957.19 306.17 955.42 305.54 954.13 303.21 952.73 301.91 951.37 299.93 951.06 297.01 949.05 296.44 946.43 295.56 944.89 296.15 942.68 294.25 937.12 294.93 935.05 291.24 927.49 290.1 924.78 287.82 922.26 286.28 919.18 286.92 911.38 288.06 903.74 285.95 901.65 282.01 899.16 278.5 898.5 278.88 895.95 280.89 892.57 280.87 888.06 282.27 887.21 283.07 883.78 283.09 881.7 286.97 879.69 289.04 880.41 292.93 878.24 294.23 875.36 296.66 873.24 297.62 870.91 296.87 869.29 298.99 866.08 298.49 863.9 294.5 860.25 292.98 859.76 290.07 857.03 282.08 850.42 280.42 849.87 280.47 846.42 280.89 842.97 279.57 839.25 280.75 838.77 281.8 835.78 283.29 833.47 283.41 832.48 285.25 830.52 288.5 829.66 290.41 827.52 289.26 823.58 289.75 821.55 291.38 820.61 294.06 820.58 296.27 819.02 297.48 818.72 300.15 819.99 303.12 819.81 307.14 820.71 311.96 815.24 310.96 808.26 311.82 804.27 311.87 802.43 316.01 799.26 316.38 797.97 315.07 795.2 315.29 792.14 318.28 789.95 319.33 787.64 321.14 786.72 323.58 786.28 323.9 784.6 325.66 783.19 325.8 777.84 325.5 774.81 323.24 771.21 324.84 770.46 326.73 770.9 328.08 770.27 325.36 764.76 324.04 759.04 321.29 756.54 318.86 752.44 317.42 748.01 315.48 744.11 315.41 743.09 313.54 739.68 313.65 738.44 311.96 735.81 311.72 733.77 310.53 731.31 306.77 728.95 303.33 725.54 302.18 723.62 300.69 722.37 299.11 720.28 296.8 718.43 293.93 717.05 291.93 714.99 291.62 710.59 289.75 709.93 284.4 707.44 283.16 706.47 283.63 702.97 281.26 697.32 279.8 696.35 279.3 691.8 278.11 689.43 276.08 688.31 275.23 684.11 275.35 683.35 277.49 680.02 279.54 671.21 279.55 669.15 280.71 668.84 285.24 672.46 288.58 674.64 289.1 677.7 290.44 678.34 292.09 680.33 294.15 679.67 297.71 679.3 300.34 678.05 303.11 678.63 308.88 678.96 310.65 681.11 312.7 680.05 314.35 680.21 315.31 683.17 317.02 684.09 321.9 680.06 325.37 682.01 329.56 679.44 331.2 679.82 332.76 678.94 334.83 679.4 336.71 678.32 337.6 678.67 341.46 677.13 341.87 676.58 344.72 675.63 346.78 674.5 348.38 674.75 352.99 672.64 355.96 670.46 356.31 669.1 358.39 669.1 360.87 672 362.35 674.55 365.09 674.14 366.75 676.41 367.86 676.73 370.64 676.36 372.15 678.72 376.85 681.54 379.78 684.33 382.29 685.57 384.32 687.05 386.19 685.64 388.39 683.35 389.36 683.09 Z" id="37530330"/>
<path d="M 164.2 706.61 166.71 707.62 167.47 709.34 169.05 711.25 169.91 714.77 174.25 720.74 175.5 725.36 175.65 728.17 176.65 731.06 178.5 733.49 176.26 736.39 176.3 738.57 174.66 742.14 174.74 743.53 178.05 749.91 175.64 750.55 174.29 754.51 173.34 756.04 173.51 758.84 173.2 760.62 173.81 762.41 172.93 764.57 174.01 766.67 174.42 768.76 178.98 774.96 178.71 777.13 179.49 778.29 178.66 779.79 179.08 780.84 178.46 782.57 178.12 789.51 178.78 790.87 179.06 794.09 183.12 794.69 184.64 796.67 186.2 797.23 188.34 799.24 189.9 800.02 190.31 804.28 189.16 806.65 188.45 807.1 185.17 812.65 184.95 814.14 183.28 817.96 184.06 818.81 183.78 820.38 181.91 822.66 180.86 825.85 181.1 830.49 180.24 831.33 178.46 835.29 176.64 836.91 175.33 837.36 174.67 839.62 172.52 842.5 172.85 844.69 174.08 846.6 176.29 848.77 178.95 848.42 182.08 847.21 183.12 847.26 184.56 844.95 186.29 843.56 191.86 845.91 193.77 845.95 197.57 845.08 198.38 844.02 200.38 845.02 202.32 845.32 203.08 846.96 205.56 848.22 207.92 848.92 207.3 853.83 208.72 855.18 208.75 856.83 212.55 861.25 214.63 862.06 215.72 863.83 216.91 867.68 218.57 869.51 219.94 869.65 221.51 871.98 222.72 870.02 225.28 869.08 227.83 867.3 228.02 868.4 231.03 869.62 233.29 869.47 237.91 870.06 240.9 869.82 243.84 870.11 246.1 871.55 246.92 873.57 249.32 874.25 253.53 873.11 255.61 871.11 259.66 871.63 261.03 873.52 264.72 875.24 269.72 875.34 271.19 876.8 274.55 876.37 279.09 878.62 283.09 881.7 283.07 883.78 282.27 887.21 280.87 888.06 280.89 892.57 278.88 895.95 278.5 898.5 282.01 899.16 285.95 901.65 288.06 903.74 286.92 911.38 286.28 919.18 287.82 922.26 290.1 924.78 291.24 927.49 294.93 935.05 294.25 937.12 296.15 942.68 295.56 944.89 296.44 946.43 297.01 949.05 299.93 951.06 301.91 951.37 303.21 952.73 305.54 954.13 306.17 955.42 308.62 957.19 308.14 960.66 307 961.97 306.13 965.84 306.65 967.29 306.15 971.27 308.15 973.91 308.42 977.11 307.18 981.46 307.44 983.48 306.72 985.18 307.27 986.83 309.88 989.95 312.15 991.65 313.4 991.91 313.36 997.84 312.32 1001.33 311.15 1003.79 308.92 1011.2 306.68 1011.62 302.84 1013.42 301.1 1013.03 299.23 1015.37 296.58 1017.24 288.41 1022.25 289.88 1027.72 289.95 1030.1 289.47 1032.99 287.54 1035.29 286.5 1039.59 282.79 1040.16 279.03 1039.76 276.05 1040.37 272.94 1041.5 268.06 1043.76 264.67 1044.77 262.2 1047.94 260.89 1048.25 260.66 1049.49 255.83 1058 255.83 1055.68 249.89 1055.84 246.39 1057.05 241.6 1053.33 240.21 1052.57 238.38 1050.55 236.25 1049.46 235.14 1046.23 233.82 1044.45 229.81 1043.02 224.57 1042.79 222.94 1041.69 221.3 1041.77 216.01 1039.65 212.18 1040.03 208.34 1039.09 207.81 1037.35 203.55 1031.97 201.89 1031.77 200.23 1029.87 195.35 1027.97 194.81 1026.4 193.03 1024.48 192.32 1020.9 188.94 1019.33 184.63 1015.3 182.98 1014.31 179.48 1016.73 176.93 1016.52 175.56 1016.91 172.83 1015.64 168.45 1010.42 167.6 1013.87 165.01 1014.44 160.19 1011.65 155.86 1007.14 153.13 1006.77 150.85 1004.07 147.79 1002.28 146.51 1007.12 144.96 1007.75 143.26 1009.62 138.98 1012.68 138.25 1014.18 136.83 1013.27 135.38 1011.4 131.57 1012.55 128.34 1012.07 127.58 1013.84 123.63 1015.41 122.38 1017.89 122.02 1019.6 118.55 1020.91 115.35 1020.08 112.73 1018.99 108.81 1019.95 104.23 1022.3 103.31 1026.11 101.74 1030.61 99.93 1030.94 97.42 1028.56 96.75 1028.52 94.97 1026.19 93.3 1025.49 91.76 1023.75 92.26 1022.63 92.36 1017.9 91.76 1012.53 89.42 1009.15 83.02 1006.64 82.02 1005.52 79.84 1005.02 77.14 1005.36 77.34 1003.16 77.99 1001.99 76.44 994.32 71.02 990.06 72.04 986.48 74.12 984.61 74.42 981.5 73.9 977.71 74.28 973.52 75.4 970.13 78.03 968.16 80.67 965.39 82.3 962.32 88.69 961.58 90.75 959.32 93.44 957.26 96.07 957.56 97.8 955.77 99.17 955.35 100.51 951.72 100.43 950.56 101.51 949.3 99.63 946.89 100.09 944.67 99.77 942.06 98.38 939.12 99.85 933.68 95.93 931.82 94.35 931.52 94.08 929.66 90.59 929.06 87.96 925.32 85.83 924.45 81.38 925.17 77.87 923.41 75.6 920.79 74.36 920.9 73.46 917.35 71.44 914.25 71.87 913.02 71.11 909.27 69.03 903.31 66.87 902.48 64.67 900.23 61.44 899.33 59.69 898.47 58.13 897.04 55.36 897.05 54.74 895.09 48.41 890.77 46.47 889.96 45.82 887.72 47.04 886.94 52.08 885.52 56.91 882.76 59.89 880.44 64.26 879.52 65.61 878.9 70.28 872.11 69.25 865.43 71.56 864.83 75.33 861.91 75.31 857.58 74.98 851.81 72.81 849.77 72 847.49 71.5 844.54 70.86 838.09 67.84 835.52 64.83 834.65 62.06 834.64 58.58 833.9 57.3 832.85 57.12 831.66 53.51 830.34 50.28 829.6 49.17 831.34 44.88 833.89 39.95 833.06 37.98 831.85 35.59 832.55 31.64 832.52 30.02 832.19 28.08 833.09 20.37 834.55 20.11 832.7 18.62 830.42 15.41 828.46 12.74 826.12 8.05 818.48 6.41 819.58 2.33 819.35 1 817.86 1.47 815.16 2.39 813.09 6.13 808.22 10.99 805.66 14.53 805.75 16.5 806.88 18.64 806.39 22.17 806.2 24.34 804.79 28.3 803.2 29.39 803.16 31.71 801.75 32.5 799.83 32.13 795.08 34.39 792.96 34.02 791.29 32.77 789.42 32.38 787.17 32.94 786.11 35.91 786.02 38.36 784.7 40.61 786.07 46.24 787.35 48.54 786.46 51.32 788.47 53.98 788.1 55.49 788.31 60.25 786.18 60.36 779.02 59.64 777.35 59.55 774.26 61.57 770.54 61.25 766.31 62.43 761.18 62.94 756.96 60.56 754.82 61.21 751.8 60.56 749.17 60.73 747.42 61.78 746.72 61.3 742.19 62.38 738.88 63.26 737.8 62.61 736.33 62.6 734.55 63.7 732.24 65.62 732.83 66.83 729.82 70.26 729.38 71.61 728.71 72.73 729.94 74.36 732.75 76.18 733.35 83.15 729.14 87.58 731.42 91.25 732.37 95.4 731.59 97.29 732.36 99.23 732.14 100.8 732.88 102.68 731.89 106.36 730.97 111.35 731.21 113.42 731.01 115.53 730.18 119.29 729.41 120.2 728.43 120.86 726.44 123.06 724.27 125.79 725.44 128.81 726 129.03 725.19 131.89 721.63 133.45 720.86 133.33 719.75 134.65 717.49 135.13 715.31 137.56 714.41 138.28 712.18 139.44 710.3 145.41 709.12 150.35 707.12 152.81 706.43 154.42 704.31 157.56 705.09 159.02 704.95 159.98 707.18 162.82 707.38 164.2 706.61 Z" id="37530340"/>
<path d="M 387.13 554.81 386.54 557.46 385.33 560.32 383.58 562.84 381.98 564.22 379.41 564.59 374.63 568.3 373.36 568.79 370.98 571.07 369.32 574.46 369.44 576.81 367.26 583.24 364.95 585.87 362.89 586.69 362.07 586.39 360.78 592.51 361.38 594.8 360.3 596.13 359.34 599.75 359.98 601.49 359.45 603.68 360.21 609.21 359.72 611.41 360.34 613.07 362.44 615.42 362.58 616.58 361.43 617.51 361.56 619.98 363.71 623.71 364.01 626.59 364.73 627.72 365.03 629.88 364.46 630.91 365.58 635.14 368.08 637.95 369.44 638.59 370.31 641.23 371.49 643.25 373.2 644.31 374.06 645.88 377.21 646.24 379.72 649.01 379.83 651.36 380.63 652.67 381.24 655.91 380.92 658.25 382.06 660.7 384.32 661.32 384.64 663.55 385.99 667.35 385.95 670.5 387.63 675.41 388.84 677.07 388.64 680.48 389.36 683.09 388.39 683.35 386.19 685.64 384.32 687.05 382.29 685.57 379.78 684.33 376.85 681.54 372.15 678.72 370.64 676.36 367.86 676.73 366.75 676.41 365.09 674.14 362.35 674.55 360.87 672 358.39 669.1 356.31 669.1 355.96 670.46 352.99 672.64 348.38 674.75 346.78 674.5 344.72 675.63 341.87 676.58 341.46 677.13 337.6 678.67 336.71 678.32 334.83 679.4 332.76 678.94 331.2 679.82 329.56 679.44 325.37 682.01 321.9 680.06 317.02 684.09 315.31 683.17 314.35 680.21 312.7 680.05 310.65 681.11 308.88 678.96 303.11 678.63 300.34 678.05 297.71 679.3 294.15 679.67 292.09 680.33 290.44 678.34 289.1 677.7 288.58 674.64 285.24 672.46 280.71 668.84 279.55 669.15 279.54 671.21 277.49 680.02 275.35 683.35 275.23 684.11 276.08 688.31 278.11 689.43 279.3 691.8 279.8 696.35 281.26 697.32 283.63 702.97 283.16 706.47 284.4 707.44 289.75 709.93 291.62 710.59 291.93 714.99 293.93 717.05 296.8 718.43 299.11 720.28 300.69 722.37 302.18 723.62 303.33 725.54 306.77 728.95 310.53 731.31 311.72 733.77 311.96 735.81 313.65 738.44 313.54 739.68 315.41 743.09 315.48 744.11 317.42 748.01 318.86 752.44 321.29 756.54 324.04 759.04 325.36 764.76 328.08 770.27 326.73 770.9 324.84 770.46 323.24 771.21 325.5 774.81 325.8 777.84 325.66 783.19 323.9 784.6 323.58 786.28 321.14 786.72 319.33 787.64 318.28 789.95 315.29 792.14 315.07 795.2 316.38 797.97 316.01 799.26 311.87 802.43 311.82 804.27 310.96 808.26 311.96 815.24 307.14 820.71 303.12 819.81 300.15 819.99 297.48 818.72 296.27 819.02 294.06 820.58 291.38 820.61 289.75 821.55 289.26 823.58 290.41 827.52 288.5 829.66 285.25 830.52 283.41 832.48 283.29 833.47 281.8 835.78 280.75 838.77 279.57 839.25 280.89 842.97 280.47 846.42 280.42 849.87 282.08 850.42 290.07 857.03 292.98 859.76 294.5 860.25 298.49 863.9 298.99 866.08 296.87 869.29 297.62 870.91 296.66 873.24 294.23 875.36 292.93 878.24 289.04 880.41 286.97 879.69 283.09 881.7 279.09 878.62 274.55 876.37 271.19 876.8 269.72 875.34 264.72 875.24 261.03 873.52 259.66 871.63 255.61 871.11 253.53 873.11 249.32 874.25 246.92 873.57 246.1 871.55 243.84 870.11 240.9 869.82 237.91 870.06 233.29 869.47 231.03 869.62 228.02 868.4 227.83 867.3 225.28 869.08 222.72 870.02 221.51 871.98 219.94 869.65 218.57 869.51 216.91 867.68 215.72 863.83 214.63 862.06 212.55 861.25 208.75 856.83 208.72 855.18 207.3 853.83 207.92 848.92 205.56 848.22 203.08 846.96 202.32 845.32 200.38 845.02 198.38 844.02 197.57 845.08 193.77 845.95 191.86 845.91 186.29 843.56 184.56 844.95 183.12 847.26 182.08 847.21 178.95 848.42 176.29 848.77 174.08 846.6 172.85 844.69 172.52 842.5 174.67 839.62 175.33 837.36 176.64 836.91 178.46 835.29 180.24 831.33 181.1 830.49 180.86 825.85 181.91 822.66 183.78 820.38 184.06 818.81 183.28 817.96 184.95 814.14 185.17 812.65 188.45 807.1 189.16 806.65 190.31 804.28 189.9 800.02 188.34 799.24 186.2 797.23 184.64 796.67 183.12 794.69 179.06 794.09 178.78 790.87 178.12 789.51 178.46 782.57 179.08 780.84 178.66 779.79 179.49 778.29 178.71 777.13 178.98 774.96 174.42 768.76 174.01 766.67 172.93 764.57 173.81 762.41 173.2 760.62 173.51 758.84 173.34 756.04 174.29 754.51 175.64 750.55 178.05 749.91 174.74 743.53 174.66 742.14 176.3 738.57 176.26 736.39 178.5 733.49 176.65 731.06 175.65 728.17 175.5 725.36 174.25 720.74 169.91 714.77 169.05 711.25 167.47 709.34 166.71 707.62 164.2 706.61 165.74 704.78 167.19 701.76 168.23 700.43 168.26 696.47 169.1 694.99 168.26 693.03 168.46 689.79 167.29 688.57 167.17 686.63 169.16 684.29 169.98 679.92 169.08 677.24 170.68 673.69 173.45 671.49 176.83 670.06 179.54 668.1 181.08 665.75 181.97 662.74 184.37 658.65 185.57 659.02 190.93 657.71 191.58 656.34 192.99 655.09 196.62 649.9 196.36 645.14 197.93 643.08 199.52 639.84 202.1 633.05 206.16 630.91 207.71 630.49 209.49 631.21 213.15 631.84 217.14 630.89 220.5 628.34 221.69 627.06 224.37 625.57 223.98 622.51 225.8 618.54 225.66 617.42 226.75 615.26 228.55 613.77 230.08 610.75 230.73 608.43 231.62 607.45 231.02 603.81 228.51 600.59 225.87 595.83 224.97 594.98 224.76 592.04 225.48 590.75 224.9 587.92 229.91 584.68 231.26 582.35 229.98 580.28 231.06 578.9 231.53 575.61 230.18 574.59 231.04 571.22 228.25 569.4 227.34 567.66 224.8 565.43 222.83 562.98 223.11 561.46 221.56 557.67 222.67 557.56 225.4 554.72 228.09 551.04 229.51 545.04 230.1 541.06 231.1 539.74 231.71 533.46 233.45 529.88 236.24 528.01 238.24 525.84 236.39 521.78 236.73 518.89 243.4 512.02 245.32 509.06 247.18 504.06 249.28 499.77 248.75 497.23 247.4 493.49 249.35 491.45 249.85 488.28 253.72 483.87 254.63 480.52 257.08 476.94 257.85 471.05 255.59 470.38 254.82 469.58 257.01 467.1 259.63 465.42 261.44 464.73 263.43 464.87 265.37 466.42 268.3 467.82 269.05 469.06 272.75 470.83 277.67 476.63 279.46 479.23 283.12 481.74 286.78 482.57 290.89 482.03 293.54 481.1 295.76 479.28 299.69 480.84 303.36 481.3 304.97 480.5 306 481.58 308.84 481.98 312.3 483.52 315.19 486.01 317.5 487.18 322.37 487.28 323.82 489.13 326.6 489.91 328.41 491.26 330.52 491.1 333.32 489.95 334.89 490.53 339.17 488.48 340.1 488.44 341.26 490.87 345.09 491.63 347.04 496.59 348.5 499.22 348.68 503.69 346.84 504.81 348.8 507.3 349.92 510.01 349.56 511.91 351.75 514.52 352.97 515.13 354.75 518.09 356.32 518.57 357.52 521.08 359.38 521.37 361.4 523.01 361.86 525.39 361.54 526.88 361.68 529.66 360.88 530.71 359.36 534.47 363.86 538.7 367.15 540.32 371.37 543.08 373.63 545.1 373.82 546.04 376.28 548.7 379.73 549.8 381.47 552.49 383.35 553.68 386.6 554.11 387.13 554.81 Z" id="37530350"/>
<path d="M 539.6 332.23 535.67 331.4 531.64 331.82 528.97 331.56 526.77 332.01 524.64 330.77 519.44 329.74 514.14 330.42 512.43 329.16 510.32 330.09 508.77 329.97 504.59 326.94 502.84 324.66 499.54 319.29 498.5 318.48 496.15 318.4 493.07 317.09 487.52 317.46 484.8 314.39 480.6 314.87 476.03 316.73 473.96 316.13 472.11 317.97 470.61 320.17 469.87 322.9 465.7 325.59 462.18 324.33 457.98 321.58 455.54 317.67 449.92 312.43 446.49 309.82 445 309.48 441.05 307.78 438.86 308.59 437.37 308.02 434.78 308.41 431.63 310.04 427.5 310.63 427.39 311.86 426.09 313.56 424.51 314.73 422.14 314.15 420.73 315.51 417.84 319.74 416.66 322.55 416.75 324.24 417.91 326.05 415.89 330.11 416.04 331.24 415.38 333.73 411.93 333.81 410.86 335.65 411.93 337.15 411.88 338.93 413.4 340.86 412.97 342.42 413.65 344.91 416.52 345.03 416.59 349.03 417.14 351.73 418.06 351.81 420.15 353.58 419.01 356.46 416.42 360.92 413.98 361.3 412.81 362.7 410.89 363.72 408.38 363.96 407.73 361.74 406.34 361.01 403.16 362.06 401.71 363.11 395.99 363.31 393.97 362.16 392.26 363.3 390 365.52 386.05 367.02 385.6 368.27 384.43 368.54 383.26 369.95 380.98 369.17 379.69 370.47 377.95 370.22 375.73 371.12 373.18 370.25 369.61 370.18 368.07 369.77 366.31 371.05 363.69 371.56 362.33 373.71 361.2 376.6 359.55 375.97 356.61 372.77 354.96 371.52 353.77 373.47 354.74 374.93 353.67 376.26 354.81 379.16 354.23 381.24 355.03 382.98 354.92 384.49 356.99 387.64 356.47 389.16 358.84 392.87 361.03 395.01 361.77 397.14 364.11 401.53 366.83 404.16 368.57 406.72 368.55 409.66 372.11 414.49 374.37 414.98 375 417.21 374.72 419.49 374.02 420.82 371.49 423.24 371.8 425.55 373.23 427.95 372.24 430.57 376.4 437.79 375.23 440.26 377.17 443.75 378.55 444.62 381.73 443.96 382.76 446.99 385.72 449.67 386.42 451.21 388.04 452.98 388.06 455.69 387.45 457.66 388.14 458.56 388.23 461.13 387.64 463.56 391.01 465.02 392.49 468 392.63 470.91 391.41 471.89 393 473.17 393.38 475.41 392.62 476.88 393.44 479.08 395.21 482.45 396.34 483 397.55 487.61 398.38 489.26 399.81 494.21 401.27 494.96 401.75 498.42 402.48 499.58 404.96 501.03 405.22 503.27 405.84 503.63 405.33 509.82 403.23 512.08 402.27 517.98 402.52 520.11 400.76 522.77 401.4 525.45 401.86 529.1 399.95 530.66 400.64 533.32 400.02 534.64 400.12 538.1 395.92 541.64 394.1 543.79 392.61 547.67 393.18 548.87 392.39 551 392.22 552.99 390.89 553.78 387.13 554.81 386.6 554.11 383.35 553.68 381.47 552.49 379.73 549.8 376.28 548.7 373.82 546.04 373.63 545.1 371.37 543.08 367.15 540.32 363.86 538.7 359.36 534.47 360.88 530.71 361.68 529.66 361.54 526.88 361.86 525.39 361.4 523.01 359.38 521.37 357.52 521.08 356.32 518.57 354.75 518.09 352.97 515.13 351.75 514.52 349.56 511.91 349.92 510.01 348.8 507.3 346.84 504.81 348.68 503.69 348.5 499.22 347.04 496.59 345.09 491.63 341.26 490.87 340.1 488.44 339.17 488.48 334.89 490.53 333.32 489.95 330.52 491.1 328.41 491.26 326.6 489.91 323.82 489.13 322.37 487.28 317.5 487.18 315.19 486.01 312.3 483.52 308.84 481.98 306 481.58 304.97 480.5 303.36 481.3 299.69 480.84 295.76 479.28 293.54 481.1 290.89 482.03 286.78 482.57 283.12 481.74 279.46 479.23 277.67 476.63 272.75 470.83 269.05 469.06 268.3 467.82 265.37 466.42 263.43 464.87 262.03 462.12 263.61 458.52 263.16 456.24 263.29 452.98 262.53 451.54 262.98 449.15 262.47 448.23 263.08 443.82 261.42 441.51 261.78 438.54 259.13 434.69 257.82 432.26 257.7 430.13 255.86 430.12 254.15 426.36 251.85 423.95 251.12 420.4 250.82 417.04 249.18 412.95 248.35 409.25 247 407.19 242.14 402.43 240.85 399.21 240.76 396.45 241.15 394.9 242.3 393.96 242.85 391.84 242.33 388.76 241.75 387.97 242.77 385.32 241.42 383.71 240.87 381.31 241.35 380 242.94 378.43 244.21 375.96 246.73 368.18 249.13 365.48 246.89 362.35 245.71 362.35 241.61 359 241.65 350.13 240.27 349.44 236.55 348.47 232.63 349.45 232.06 346.43 232.77 342.18 233.57 339.99 233.42 338.67 231.72 336.83 232.3 335.86 232.28 331.44 231.39 330.83 229.35 327.22 231.74 322.55 233.84 322.11 237.26 319.8 237.78 318.38 239.59 317.26 240.5 313.61 241.97 312.12 246.99 315.6 248.63 317.47 252.53 319.53 257.34 320.18 259.69 319.74 262.45 320.24 262.94 316.97 261.49 316.04 259.32 315.44 257.66 312.92 255.36 312.04 252.83 309.49 251.73 309.16 250.1 302.42 251.62 301.3 252.33 299.54 254.06 297.57 254.72 293.96 254.78 291.77 252.81 290.96 250.81 288.99 248.51 288.12 246.48 286.05 243.06 283.95 240.52 284.29 240.7 283.13 242.1 282.46 244.3 277.85 242.36 274.47 242.73 272.22 243.27 271.02 245.36 269.37 247.03 269.95 248.65 269.39 250.13 267.68 252.27 266.6 254.68 266.92 257.6 266.09 260.18 262.99 262.3 257.46 263.41 256.35 265.88 255.51 267.46 254.29 268.67 254.86 273.39 255.04 272.62 253.8 268.58 250.84 268.31 246.69 268.79 244.42 271.16 240.71 274.75 238.1 275.74 236.75 277 237.65 278.44 235.33 279.26 232.76 279 229.52 278.25 228.31 278.46 224 280.55 220.93 281.79 219.84 285.38 219.25 287.62 217.78 290.43 216.83 291.37 217.37 292.61 221.55 295.56 222.92 295.74 224.17 297.07 225.67 297.34 227.37 298.77 228.24 299.88 227.78 305.32 227.06 307.75 227.31 310.01 226.58 313.25 227.82 313.92 229.13 317.83 229.2 318.9 227.69 319.15 226.17 320.17 225.76 320.61 223.46 318.83 218.48 319.61 216.83 318.15 214.56 318.21 211.01 317.55 207.81 320.46 208.15 322.58 209.75 323.59 208.52 325.26 207.97 329.36 209.67 332.3 209.27 332.74 207.66 336.23 207.56 340.74 209.72 342.04 209.38 349.46 212.75 350.31 214.08 352.01 215.37 355.21 216.52 357.17 217.66 357.98 217.15 359.37 218.31 361.15 216.57 363.09 215.57 366.65 214.63 368.12 215.45 371.3 214.86 373.31 213.74 375.61 214.38 378.57 214.56 381.18 214.21 382.37 213.22 384.77 214.08 386.94 213.52 387.32 211.5 386.76 209.46 387.88 207.25 385.83 204.48 388.38 199.96 388.17 197.5 387.44 195.19 388.57 194.24 390.95 193.82 392.24 195.56 395.69 196.27 399.38 198.72 402.48 201.64 406.65 203.03 408.85 199.68 411.14 195.58 412.8 193.39 415.32 193.47 420.94 194.63 419.53 200.29 419.04 210.05 421.75 212.79 424.31 215.87 425.34 217.78 425.86 219.86 427.29 221.98 427.06 226.68 424.79 234.22 424.39 237.64 422.69 242.93 421.84 244.04 423.61 247.08 425.39 251.75 429.55 250.68 432.27 251.34 437.28 250.26 438.82 250.92 440.3 254.61 442.75 257.52 445.22 265.31 448.78 263.31 455.71 263 456.96 263.83 463.36 266.35 464.94 264.06 465.96 261.31 472.65 258.08 473.85 258.15 477.7 261.45 478.99 266.89 482.69 270.31 485.5 270.09 487.12 269.1 491.78 267.87 493.19 270.61 489.6 277.38 488.37 286.09 490.66 289.37 492.71 288.65 496.44 288.06 502.02 287.69 504.2 286.9 508.02 286.35 509.06 287.73 509.84 291.19 513.48 293.14 516.47 294.18 516.37 297.88 518.8 300.05 519.45 301.99 520.72 303.3 521.47 306.21 521.02 308.23 521.32 310.55 522.29 312.69 526.14 313.82 528.16 313.5 528.82 314.62 532.68 316.41 535.19 318.15 536.27 319.6 537.33 322.6 537.75 327.12 539.6 332.23 Z" id="37530360"/>
<path d="M 499.88 116.06 499.52 119.65 501.49 122.3 503.59 123.6 504.98 126.19 505.34 127.99 507.81 129.72 512.07 130.73 514.85 132.7 520.41 132.13 521.86 134.58 523.44 135.15 525.04 134.74 526.31 135.91 526.79 138.18 528.08 138.69 529.86 141.4 531.61 140.37 533.11 141.18 536.61 141.51 538.51 142.55 540.79 144.38 542.18 148.33 543.98 151.06 545.18 153.93 545.01 156.1 545.66 157.84 545.78 160.37 546.44 163.2 544.61 164.83 544.41 165.66 542.21 166.24 540.07 171.09 538.33 173.18 539.19 174.88 540.98 175.31 542.79 177.68 543.83 180.37 545.03 181.98 547.94 181.96 548.45 184.02 547.49 186.38 545.47 189.14 542.93 191.67 542.16 194.33 540.22 195.56 540.32 198.03 542.17 200.15 543.85 199.88 543.99 202.82 545.58 203.71 546 205.27 547.39 207.01 547.41 209.47 546.66 211.62 546.64 213.49 544.47 217.41 546.2 219.99 548.12 221.16 549.59 221.47 549.97 223.11 550.97 224.4 552.56 223.93 553.2 222.85 557.38 223.91 559.98 223.06 563.89 226.36 567.58 226.98 569.12 226.76 571.5 228.43 574.51 228.19 578.4 222.77 579.49 223.28 585.29 224.58 589.31 225.19 587.82 228.23 588.14 230.23 588.31 238.43 591.58 241.48 593.2 243.39 592.06 247.31 590.91 249.16 589.42 252.87 589.55 257.6 588.46 259.04 587.12 259.72 587.29 262.03 585.84 264.2 587.29 266.89 587.18 269.37 586.45 272.49 587.32 274.23 588.19 277.72 583.69 278.94 581.82 280.24 582.62 281.62 582.63 283.56 585.29 287.11 585.05 288.45 586.29 289.45 586.57 290.71 588.57 292.15 588.67 294.24 590.48 297.66 590.01 300.67 590.72 303.01 592.54 304.81 592.72 306.19 594.14 306.7 596.14 309.19 599.05 310.41 600.3 311.85 601.67 314.78 603.72 315.35 604.64 317.44 605.53 321.42 607.09 321.98 608.81 323.79 611.24 327.56 610.05 331.2 610.2 332.59 609.2 334.12 609.22 337.7 607.83 339.11 606.85 341.28 603.23 342.67 601.22 346.11 600.29 346.85 598.32 347.05 594.95 348.09 589.2 346.99 587.17 347.48 585.76 346.89 584.08 345.14 578.83 345.48 573.79 344.78 572.24 344.89 569.32 344.02 567.15 344.02 563.47 345.32 562.15 341.4 560.99 340.49 559.13 337.72 556.97 335.74 552.1 336.18 548.7 335.52 544.87 336.97 543.66 336.91 541.47 334.92 539.6 332.23 537.75 327.12 537.33 322.6 536.27 319.6 535.19 318.15 532.68 316.41 528.82 314.62 528.16 313.5 526.14 313.82 522.29 312.69 521.32 310.55 521.02 308.23 521.47 306.21 520.72 303.3 519.45 301.99 518.8 300.05 516.37 297.88 516.47 294.18 513.48 293.14 509.84 291.19 509.06 287.73 508.02 286.35 504.2 286.9 502.02 287.69 496.44 288.06 492.71 288.65 490.66 289.37 488.37 286.09 489.6 277.38 493.19 270.61 491.78 267.87 487.12 269.1 485.5 270.09 482.69 270.31 478.99 266.89 477.7 261.45 473.85 258.15 472.65 258.08 465.96 261.31 464.94 264.06 463.36 266.35 456.96 263.83 455.71 263 448.78 263.31 445.22 265.31 442.75 257.52 440.3 254.61 438.82 250.92 437.28 250.26 432.27 251.34 429.55 250.68 425.39 251.75 423.61 247.08 421.84 244.04 422.69 242.93 424.39 237.64 424.79 234.22 427.06 226.68 427.29 221.98 425.86 219.86 425.34 217.78 424.31 215.87 421.75 212.79 419.04 210.05 419.53 200.29 420.94 194.63 415.32 193.47 412.8 193.39 411.14 195.58 408.85 199.68 406.65 203.03 402.48 201.64 399.38 198.72 395.69 196.27 392.24 195.56 390.95 193.82 388.57 194.24 387.44 195.19 388.17 197.5 388.38 199.96 385.83 204.48 387.88 207.25 386.76 209.46 387.32 211.5 386.94 213.52 384.77 214.08 382.37 213.22 381.18 214.21 378.57 214.56 375.61 214.38 373.31 213.74 371.3 214.86 368.12 215.45 366.65 214.63 363.09 215.57 361.15 216.57 359.37 218.31 357.98 217.15 357.17 217.66 355.21 216.52 352.01 215.37 350.31 214.08 349.46 212.75 342.04 209.38 340.74 209.72 336.23 207.56 332.74 207.66 332.3 209.27 329.36 209.67 325.26 207.97 323.59 208.52 322.58 209.75 320.46 208.15 317.55 207.81 318.21 211.01 318.15 214.56 319.61 216.83 318.83 218.48 320.61 223.46 320.17 225.76 319.15 226.17 318.9 227.69 317.83 229.2 313.92 229.13 313.25 227.82 310.01 226.58 307.75 227.31 305.32 227.06 299.88 227.78 298.77 228.24 297.34 227.37 297.07 225.67 295.74 224.17 295.56 222.92 292.61 221.55 291.37 217.37 290.43 216.83 287.62 217.78 285.38 219.25 281.79 219.84 284.21 214.25 284.12 210.76 283.22 206.37 280.29 206.44 280.16 202.01 278.78 199.96 277.96 197.86 276.57 197.73 275.8 192.87 275.74 188.71 273.55 191.03 269.77 192.93 266.94 194.86 264.13 194.49 262.44 194.95 259.68 195.02 258.78 193.96 258.33 191.81 257 190.05 256.64 187.48 256 186.52 255.8 182.99 254.68 181.24 255.13 178.12 254.5 175.65 253.5 174.01 253.87 172.32 252.57 170.93 251.16 168.2 249.82 168.01 248.35 168.93 243.54 169.26 241.58 167.38 240.08 167.15 239.77 163.48 238.21 162.78 237.82 161.04 235.31 159.2 231.79 160.23 229.18 159.2 229.9 158.23 232.16 157.9 235.95 155.08 235.43 152.42 234.4 151.48 234.49 150.04 236.15 148.52 237.45 148.44 238.27 147.08 237.61 142.36 238.24 139.88 237.32 137.17 239.37 136.73 240.35 134.37 239.7 130.89 240.06 128.45 238.8 125.85 239.3 124.22 241.01 122.51 241.08 121.34 242.21 119.92 244.69 119.28 246.42 119.9 247.34 121.97 249.94 121.86 254.2 120.21 255.77 118.5 259.94 115.63 264.64 115.77 268.08 116.48 272.22 113.96 271.15 111.87 271.13 110.03 268.98 106.37 269.07 104.17 268.6 101.98 267.65 100.76 266.67 97.48 264.37 92.98 262.69 91.56 260.51 88.8 258.25 87.75 257.38 85.72 255.98 84.27 253.7 84.13 251.41 86.17 249 85.78 246.64 84.65 247.81 82.38 247.86 79.53 248.43 78.84 247.47 74.38 250.72 73.34 250.91 72.24 254.2 68.48 255.59 67.91 255.62 65.31 255.16 64.18 255.72 62.53 255.8 58.43 256.64 56.09 256.21 54.13 258.43 53.58 260.44 51.8 261.57 51.78 261.93 50.39 265.57 45.82 268.45 45.7 269.29 43.9 269.38 41.65 270.79 40.31 270.87 38.33 271.74 37.28 271.83 34.29 274.3 31.56 276.89 30.38 278.49 30.55 279.74 29.79 281.07 27.63 281.14 25.51 283.96 22.1 284.03 20.86 286.31 19.52 287.47 16.62 287.49 15.12 285.75 9.9 285.24 5.65 285.39 3.58 288.49 2.47 289.23 2.95 292.12 2.28 294.32 1 295.92 4.05 296.14 6.23 297.07 7.92 299.6 8.57 301.83 10.68 302.6 12.22 304.02 12.83 305.37 12.03 307.33 13.61 308.12 12.95 310.17 14.46 310.78 16.01 312.19 16.34 313.93 15.2 317.38 16.88 320.35 15.47 323.55 15.09 325.25 16.95 327.67 16.49 329.92 17.65 331.09 15.13 334.64 13.22 335.92 14.55 338.26 15.03 341.44 13.56 344.38 16.47 348.81 16.68 348.46 20.93 352.79 22.02 354.57 22.82 356.28 24.7 356.41 27.23 355.9 29.2 356.8 30.5 359.67 30.94 360.71 30.28 362.28 30.8 365.22 33.43 369.63 35.05 370.33 33.86 373.08 35.53 377.18 35.3 377.67 37.44 376.48 40.52 377.94 42.49 379.68 44.04 378.68 46.86 374.68 47.59 378.3 54.23 378.39 56.48 381.31 62.14 381.21 65.7 383.19 65.94 383.13 67.49 385.5 70.35 385.87 73.51 384.87 75.86 385.06 77.81 386.94 80.75 387.38 83.74 386.68 86.81 388.37 90.51 392.19 92.81 394.73 95.09 395.81 96.56 398.12 95.11 400.07 94.71 401.78 94.98 403.84 96.06 407.14 99.87 410.61 105.34 411.21 107.87 412.33 114.78 415.69 118.36 418.22 121.43 419.96 122.78 420.17 124.02 421.5 126.06 425.23 127.11 430.47 127.06 434.04 126.33 439.45 125.98 442.86 124.67 446.16 121.92 448.8 120.95 453.71 123.16 456.88 122.41 457.48 122.82 460.42 121.77 461.99 122.45 463.65 121.69 468.43 122.92 469.51 122.29 472.1 122.65 476.66 120.85 477.59 121.14 482.8 121.18 484.51 123.82 487.62 122.59 489.55 122.28 490.34 121.19 492.69 120.16 494.98 117.69 499.88 116.06 Z" id="37530370"/>
<path d="M 740.47 468.04 742.88 471.21 743.86 474.66 740.86 476.94 739.37 480.43 736.29 481.5 733.06 484.45 733.32 486.29 731.47 493.72 730.62 494.1 729.14 497.15 731.9 499.99 732.8 502.71 735.49 502.28 739.01 505.03 742.35 505.27 743.79 508.5 744.62 513.58 739.11 519.34 735.66 520.8 732.18 525.52 728.96 529.49 726.97 530.81 725.7 533.53 725.4 535.26 726.38 537.87 726.78 540.82 725.6 542.43 725.77 546.36 723.02 552.64 723.44 555.73 723.44 561.68 724.74 562.54 729.05 563.92 731.11 566.35 731.27 570.85 732.51 572.18 731.33 575.58 732.16 577.36 732.33 580.44 733.05 581.69 736.8 584.35 739.5 587.06 740.49 591.21 739.14 595.46 743.9 598.05 745.49 599.48 748.12 600.85 750.41 600.42 752.33 599.36 754.51 599.23 758.03 599.68 760.57 600.88 764.86 599.87 765.76 598.54 770.96 598.36 772.44 597.82 774.69 595.85 777.5 595.9 779.02 597.45 781.05 597.96 785.15 601 788.58 606.03 792.02 608.95 797.49 612.54 799 616.13 798.39 619.69 796.52 624.52 796.37 628.05 796.85 631.04 798.33 632.27 798.64 635.9 796.92 637.63 796.63 640.72 791.9 648.35 793.64 651.21 795.18 655.17 789.37 662.02 785.49 664.23 779.83 664.59 778.18 665.46 776.16 664.38 773.71 662.31 771.97 664.39 769.86 664.33 768.1 666.31 765.25 668 765.42 673.21 761.48 673.84 756.87 676.37 756.73 681.1 754.89 682.41 754.04 684.37 755.52 687.56 750.02 691.77 743.69 695.87 740.53 704.34 740.9 708.18 741.45 709.07 737.64 709.07 736.58 707.63 734.52 707.28 733.87 706.5 733.33 701.71 731.05 700.96 725.88 701.09 723.97 700.38 721.54 701.5 720.88 703.75 719.78 704.75 716.12 705.42 710.36 707.01 707.4 705.35 706.16 705.32 701.23 703.13 699.85 704.59 692.92 708.13 689.41 709.6 686.09 709.18 682.74 710.39 679.19 709.87 673.86 708.6 672.83 709.34 669.59 710.04 666.79 712.09 664.82 712.33 661.28 710.13 661.29 708.17 659.98 704.5 658.47 703.97 657.54 702.85 656.25 699.15 655.13 698.97 653.02 696.36 651.31 695.24 648.57 694.46 645.83 695.01 645.55 691.53 644.92 690.06 645.69 686.38 646.55 685.2 647.9 684.9 648.66 682.27 649.61 682.3 652.59 677.53 654.7 675.31 655.72 675.03 655.87 673.12 656.88 670.19 656.25 669.07 652.6 667.32 652.31 665.69 650.1 663.31 646.87 661.34 644.68 662.09 643.6 663.54 641.75 663.08 639.01 661.74 639.18 659.89 640.76 656.58 640.56 652.33 639.9 647.38 637.03 644.93 637.34 642.17 639.75 639.47 641.18 638.65 641.88 636.91 642.99 636.4 643.03 634.67 643.8 632.27 642.53 628.7 643.13 627.8 643.15 625.27 641.93 624.61 638.75 621.53 635.49 621.12 632.11 621.16 627.5 624.89 625.96 627.37 623.04 628.74 621.81 628.26 620.37 629.96 617.2 631.7 613.14 632.71 612.48 634.14 610.16 634.52 608.68 637.09 608.45 640.22 605.29 638.81 604.02 637.31 602.01 639.29 596.71 641.49 595.31 642.66 593.91 642.56 591.33 641.38 590.41 642.5 589.41 641.6 586.08 641.15 584.81 638.88 582.84 639.18 582.2 638.58 578.8 639.35 577.58 639.28 575.48 644.3 572.7 645.35 569.55 645.85 569.04 646.41 566.52 646.53 565.11 648.01 563.81 647.96 562.5 645.46 563.19 641.97 560.9 640.14 559.88 638.25 555.95 637.8 554.75 636.91 553 634.18 550.9 632.54 548.42 634.72 545.97 634.46 543.67 636.13 542.64 640.13 541.15 642.72 537.3 645.04 535.4 643.88 533.48 644.73 531.17 646.36 528.53 644.59 526.33 644 523.06 642.03 521.16 642.19 520.21 643.38 520.23 645.04 518.67 647.67 517.14 649.49 514.3 649.51 513.72 648.45 508.65 645.46 507.52 645.41 505.87 642.39 503.42 642 500.24 639.72 498.31 640.05 495.79 639.04 494.66 637.47 493.01 636.73 492 635.31 490.5 634.8 488.56 630.05 486.76 630.48 483.73 631.94 481.37 631.2 477.73 631.44 476.51 630.12 471.56 632.2 470.07 629.47 468.7 629.38 465.97 628.38 464.35 626.68 461.13 624.5 459.55 624.01 456.61 621.59 455.87 618.58 456.1 614.62 454.95 612.76 454.73 611.22 451.63 608.83 449.34 606.17 448.92 604.76 447.67 603.27 447.11 601.11 445.63 598.07 444.75 592.83 440.12 592.41 438.1 592.61 436.94 591.23 435.46 587.73 431.54 584.58 430.36 586.5 428.14 585.64 425.81 585.73 422.53 586.75 420.21 585.84 415.37 581.33 414.76 579.98 416.24 578.9 416.22 576.95 418.32 575.55 419.2 573.98 422.08 572.54 431.07 571.26 432.44 570.75 437.07 571.43 439.18 572.08 442.52 571.25 444.42 569.8 444.34 566.87 442.31 563.67 441.5 559.5 440.76 559.49 441.22 563.34 440.33 565.32 438.91 561.92 437.88 557.62 436.11 556.12 434.65 556.49 432.21 555.2 429.51 555.01 427.44 556.49 424.41 556.72 423.68 557.64 420.99 558.08 419.29 558.89 415.85 559.22 414.76 558.27 413.35 559.27 406.46 558.81 403.4 558.05 402.43 555.58 401.36 554.62 397.43 554.51 396.17 553.05 392.22 552.99 392.39 551 393.18 548.87 392.61 547.67 394.1 543.79 395.92 541.64 400.12 538.1 402.93 538.67 405.19 538.5 407.77 539.4 409.68 541.1 417.36 541.24 419 539.42 420.23 539.22 420.83 537.7 422.58 536.27 423.92 536.16 425.13 534.1 427.34 534.32 429.74 533.56 436.86 536.54 439.65 539.29 442.05 539.82 443.46 539.2 445.37 540.73 447.09 540.9 447.38 538.19 449.31 538.18 449.82 536.31 453.65 534.34 454.5 534.56 457.35 531.4 460.41 530.8 461.24 529.7 462.93 530.6 464.74 530.22 466.97 528.39 471.38 528.11 473.87 524.63 476.94 523.72 477.46 521.79 480 520.31 483.92 519.34 488.5 517.17 490.71 517.04 491.59 518.36 495.08 520.8 500.2 515.79 500.8 512.83 503.92 511.4 504.65 512.2 505.67 508.5 505.55 507.59 506.8 506 505.67 502.29 505.82 501.13 507.29 499.97 509.65 499.86 510.81 500.38 512.88 496.59 514.32 495.88 514.96 494.06 516.99 491.81 518.24 491.69 519.51 489.73 520.44 487.26 520.88 484.75 520.11 483.71 521.48 482.1 522.14 479.94 524.27 480.37 527.88 479.47 531.39 477.99 533.16 476.78 534.4 474.68 537.22 472.8 537.48 471.43 540.54 470.04 541.67 469.04 545.31 468.06 548.75 467.86 552.79 466.35 559.4 466.07 561.04 460.74 564.12 455.6 566.75 452.32 570.37 450.54 571.83 451.18 576.59 448.32 583.04 445.47 584.8 445.82 588.36 445.08 593.19 446.38 594.11 446.17 595.21 443.29 598.4 441.7 598.82 440.2 600.64 438.26 606.99 435.15 609.39 432.04 609.47 430.39 611.29 428.08 612.54 425.13 613.15 422.02 617.34 422.28 619.23 420.25 621.64 419.2 623.98 418.98 625.33 414.77 627.52 413.92 628.58 412.41 628.64 410.68 630.41 410.75 634.31 409.68 634.84 408.98 637.39 408.47 641.48 406.04 642.74 402.51 647.34 400.84 648.49 399.96 651.37 400.13 652.76 400.78 655.01 399.57 661.16 401.85 664.05 402.72 666.24 400.69 669.43 399.74 671.36 398.39 673.39 396.13 677.56 395.16 678.54 394.14 682.5 393.74 684.05 393.22 686.54 395.8 689.43 395.72 691.57 396.81 692.85 401.3 694.34 402.87 696.68 406.43 699.6 408.33 700.88 409.78 702.51 413.96 705.58 415.32 707.83 419.74 708.95 421.16 708.12 422.95 708.61 425.43 710.96 432.33 711.08 440.41 711.87 442.23 710.75 444.32 709.39 445.63 708.73 447.55 711.93 447.41 714.49 448.65 717.92 449.05 718.92 451.37 720.51 453.94 721.58 457.07 725.71 458.64 727.11 459.6 729.94 462.95 731.6 463.43 733.53 466.1 735.4 465.84 736.82 467.26 740.47 468.04 Z" id="37530380"/>
</g>
</svg>