<?xml version="1.0"?>
<svg xmlns="http://www.w3.org/2000/svg" version="1.2" baseProfile="tiny" width="800" height="1180" viewBox="0 0 800 1180" stroke-linecap="round" stroke-linejoin="round">
<g id="dong">
<path d="M 481.52 552.93 483.73 554.96 484.85 559.05 483.72 559.77 482.72 564.2 484.32 568.24 483.48 570.91 486.25 571.57 487.37 574.33 490.3 577.63 492.48 576.17 495.47 577.88 496.68 579.77 498.54 580.35 500.69 578.6 505.88 580.02 509.51 581.91 510.1 587.08 511.28 593.06 512.15 593.23 514.29 598 516.42 601.05 518.32 601.27 519.44 602.44 522.55 603.56 523.83 606.58 523.37 609.58 522.4 611.79 524.34 614.11 526.24 617.73 528.29 617.14 529.98 619.94 532.02 622.24 534.73 620.28 537.67 617.04 548.76 608.92 553.79 604.03 563.57 596.05 563.94 588.26 567.93 580.61 575.37 580.07 579.51 576.67 583.14 574.57 585.64 571.02 587.58 567.19 588.58 567.11 591.76 563.84 597.09 560.46 597.58 558.74 599.96 556.45 605.33 556.28 607.74 555.9 612.21 550.95 614.46 551.34 621.12 548.52 622.01 546.83 626.51 545.87 632.45 542.88 636.18 541.79 639.54 545.34 641.11 547.74 645.44 547.49 648.62 545.38 650.46 541.39 657.46 541.27 659.32 540.7 661.51 541.69 667.08 542.13 667.13 543.21 669.18 546.68 671.36 551.8 674.39 551.88 676.02 553.08 678.44 553.41 681.26 551.88 686.09 553.43 689.82 553.77 691.9 555.57 697.04 555.71 699.96 559.56 703.38 560.99 705.3 564.35 708.21 566.67 713.87 566.14 714.6 570.16 715.97 574.62 714.64 576.88 717.13 582.3 719.21 584.7 719.12 588.69 720.17 591.28 720.13 596.56 716.9 600.68 717.05 602.98 715.15 603.74 712.3 607.74 707.48 608.85 706.32 610.04 703.22 610.69 700.35 613.86 699.24 615.83 697.65 620.71 693.09 620.27 689.84 621.6 688.7 626.29 684.99 629 682.57 632.27 678.86 631.97 676.92 634.39 676.9 636.58 674.39 635.48 671.79 633.47 669.23 633.57 665.94 630.65 662.7 630.22 660.89 629.06 658.61 630.31 658.07 632.47 654.33 635.76 652.11 635.78 651.4 638.48 647.1 639.42 645.64 641.92 642.61 643.35 641.04 642.42 638.2 643.48 636.13 646.3 633.19 647.59 630.88 649.36 628.91 648.18 628.5 649.87 626.5 652.13 622.61 653.22 620.78 655.48 618.56 655.74 615.63 654.92 614.32 655.88 612.28 658.7 610.48 659.22 610.03 662.52 609.28 663.36 610.6 666.21 611.9 667.31 610.8 669.43 609.04 677.33 606.92 679.96 605.84 683.68 605.99 687.23 607.12 689.62 606.46 694.54 604.69 696.16 604.67 701.6 606.22 703.29 605.96 705.5 608.17 708.49 606.84 712.54 608.95 714.23 614.14 713.88 616.92 716.54 617.99 718.73 618 725.95 618.69 726.58 622.68 727.36 623.52 729.36 622.76 732.62 623.58 733.97 623.1 735.82 626.46 737.01 628.45 741.59 627.39 742.74 627.96 746.66 629.53 748.75 630.83 756.76 628.59 757.7 626.16 759.55 624.19 762.73 625.34 765.63 627 766.63 629.34 770.32 628.73 775.08 626.04 777.95 625.56 779.62 622.46 782.11 614.65 782.73 608.44 783.5 607.42 787.43 606.98 794.44 605.38 800.05 607.28 806.06 609.68 809.87 609.14 812.68 608.57 819.39 609.95 822.26 609.67 825.85 611.19 828.24 610.36 831.76 605.04 830.24 601.11 831.95 599.3 834.29 595.17 835.05 591.9 832.53 589.86 833.29 590.73 836.7 590.85 840.97 590.02 845.54 592.34 847.57 593.53 852.08 591.36 855.21 588.23 858.36 585.72 858.14 582.68 861.15 582.54 863.48 580.81 866.07 578.66 871.34 576.98 877.51 578.22 880.11 578.41 882.15 583.66 884.79 585.01 887.14 587.36 889.14 590.95 887.83 593.25 889.68 597.54 888.08 599.09 887.96 605.15 889.67 606.54 891.95 609.21 892.99 611.91 895.58 611.77 899.56 613.52 906.4 613.14 912.1 607.18 911.08 602.18 909.3 596.73 915.02 595.71 918.75 593.71 921.82 593.77 923.2 590.31 925.21 588.61 927.51 586.01 925.95 582.97 927.76 581.09 928.25 576.38 928.47 572.81 929.95 570.84 931.73 570.67 933.31 568.13 932.98 567.59 928.47 566.31 924.35 565.33 922.95 565.73 919.04 563.95 918.25 564.02 916 561.08 913.3 559.16 912.65 559.57 909.86 557.41 905.63 556.59 899.89 554.28 893.82 546.79 889.16 544.34 886.37 543.07 882.07 542.59 878.48 540.97 875.81 538.38 873.92 535.2 869.85 534.25 867.54 535.63 863.53 535.56 860.89 530.97 856.17 529.12 850.24 528.51 849.59 523.59 852.18 520.53 853.14 514.73 853.8 513.1 848.41 514 848.29 518.64 842.95 517 840.06 519.28 836.05 519.38 833.37 520.85 831.67 520.83 826.78 521.31 823.98 523.07 822.88 524.66 820.05 523.8 816.11 521.7 814.98 520.78 811.84 517.85 810.42 518.23 808.86 517.01 807.01 517.46 805.84 513.16 805.69 508.9 803.95 506.43 804.46 505.5 802.88 501.54 802.75 496.04 800.9 493.08 797.78 491.86 791.74 488.57 788.8 486.6 789.28 482.59 789.04 478.88 792.67 474.52 792.75 472.56 791.89 471.19 790.12 469.34 790.4 468.12 793.16 465.2 794.03 463.18 796.42 460.13 794.62 457.1 796.14 455.42 798.66 453.16 800.76 449.87 799.44 448.29 801.65 445.85 802.65 442.85 801.35 443.4 796.05 442.45 794.46 441.73 791.25 440.5 789.29 437.03 786.19 432.76 786.28 431.59 785.46 428.95 785.17 427.41 782.87 426.41 778.45 423.32 774.81 420.36 775.42 418.16 774.45 414.56 771.28 412.7 770.43 407.95 769.67 406.37 772.72 404.23 772.8 402.77 775.09 398.84 777.49 396.65 773.35 393.62 773.07 390.08 776.14 385.71 782.04 384.77 783.89 380.96 782.21 379.57 782.31 377.72 779.6 374.82 780.46 374 779.61 371.02 779.51 369.66 782.85 367.31 783.53 365.18 782.91 359.25 783.31 353.32 782.59 348.8 780.9 342.89 779.59 339.58 780.62 336.77 780.63 332.33 780.01 329.75 780.3 324.89 783.19 324.17 785.02 318.55 785.63 316.55 787.97 315.24 791.22 312.02 794.6 311.35 798.04 308.86 802.06 305.54 804.15 304.63 806.29 302.52 809.32 302.37 811.69 300.89 813.31 298.48 811.73 295.95 811.57 292.55 814.09 287.45 820.88 284.97 825.85 281.51 828.33 274.37 827.96 269.06 826.77 265.54 824.79 266.25 819.91 266.89 818.31 268.57 817.47 268 811.92 263.52 804.66 262.16 799.24 255.32 798.99 251.29 797.23 248.8 795.13 248.27 792.08 246.67 788.54 245.82 783.97 242.98 782.12 240.47 781.15 239.76 778.16 239.91 773.47 240.94 770.47 241 767.94 243.87 760.72 242.88 759.16 242.89 757 242.08 755.6 239.86 754.51 239.43 752.12 240.37 747.99 241.42 746.02 240.06 743.75 242.06 740.9 242.07 739.45 244.28 736.55 246.82 736.07 247.78 732.81 249.77 730.24 249.16 726.9 250.18 722.43 251.36 721.25 252.95 718.08 255.2 716.99 253.62 712.97 255.9 711.13 253.93 707.6 254.98 705.06 255.23 700.36 254.31 696.12 255.43 692.48 253.15 689.93 253.79 686.9 251.54 683.44 253.06 677.05 255.08 674.79 258.38 674.13 260.44 670.15 263.37 668.61 262.22 665.78 261.61 661.8 259.7 658.38 256.68 653.98 258.2 650.24 257.34 647.92 258.69 644.4 258.35 643.04 259.69 635.31 257.43 632.92 256.76 630.45 257.22 625.66 258.77 623.23 261.2 622.2 261.58 618.89 266.15 617.39 269.79 615.79 275.89 615.79 277.99 613.71 278.57 606.51 279.97 604.55 282.94 597.37 282.35 594.07 278.86 588.15 277.63 587.16 277.5 584.42 276.15 581.02 274.34 578.75 272.09 574.25 269.73 568.5 268.17 568.16 262.75 563.61 261.45 558.02 260.95 553.36 267.36 551.25 270.42 547.28 272.69 546.57 274.84 543.55 275.43 541.72 279.57 543.02 282.65 543.5 285.87 545.34 287.63 547.04 290.42 548.69 292.95 549.3 299.35 549.66 301.79 552.84 306.91 553.47 307.55 554.88 309.51 556.08 311.8 564.16 313.38 567.02 313.39 569.37 317.72 570.08 320.17 572.84 320.71 574.84 324.18 578.05 324.6 581.1 327.13 585.25 329.37 586.57 330.48 588.77 331.32 592.14 331.46 594.76 333.35 599.94 335.35 599.81 336.63 601.46 336.65 603.31 339.5 606.59 341.6 610.29 345 613.22 352.48 616.2 355.56 616.56 357.13 614.02 356.06 609.95 358.69 607.4 358.58 606.11 361.64 602.34 360.95 599.08 361.62 594.17 364.74 588.83 364.87 585.56 366.3 582.32 368.31 575.28 368.64 572.82 368.41 569.41 369.32 568.06 371.23 562.7 374.31 561.5 377.71 561.43 378.4 560.63 382.69 561.81 388 560.69 390.18 557.66 392.33 557.69 394.36 556.75 398.49 557.81 400.99 554.92 403.78 553.6 404.39 550.99 406.16 549.08 409.2 549.37 412.29 548.49 414.49 547.29 416.99 548.48 419.67 547.39 422.44 545.24 426.35 545.34 428.33 542.31 428.5 540.87 433.18 537.86 437.23 539.62 442.15 540.87 448.31 543.4 449.7 542.26 453.84 544.74 456.59 547.7 461.95 550.12 463.47 549.67 466.94 546.11 468.2 545.46 476.52 553.27 480.47 554.06 481.52 552.93 Z" id="37540110"/>
<path d="M 239.91 773.47 239.76 778.16 240.47 781.15 242.98 782.12 245.82 783.97 246.67 788.54 248.27 792.08 248.8 795.13 251.29 797.23 255.32 798.99 262.16 799.24 263.52 804.66 268 811.92 268.57 817.47 266.89 818.31 266.25 819.91 265.54 824.79 269.06 826.77 274.37 827.96 281.51 828.33 284.97 825.85 287.45 820.88 292.55 814.09 295.95 811.57 298.48 811.73 300.89 813.31 302.37 811.69 302.52 809.32 304.63 806.29 305.54 804.15 308.86 802.06 311.35 798.04 312.02 794.6 315.24 791.22 316.55 787.97 318.55 785.63 324.17 785.02 324.89 783.19 329.75 780.3 332.33 780.01 336.77 780.63 339.58 780.62 342.89 779.59 348.8 780.9 353.32 782.59 359.25 783.31 365.18 782.91 367.31 783.53 369.66 782.85 371.02 779.51 374 779.61 374.82 780.46 377.72 779.6 379.57 782.31 380.96 782.21 384.77 783.89 387.27 787.35 387.27 791.02 388.27 792.84 388.34 797.3 387.09 800.49 385.48 808.06 382.7 809.97 382.79 812.44 381.99 813.94 378.07 814.19 374.62 815.44 372.89 819.91 374.62 822.33 372.42 826.36 371.19 831.72 369.92 833.04 367.72 837.61 365.22 836.49 363.32 838.92 363.71 839.86 362.74 845.61 359.89 847.4 358.29 849.41 356.6 852.95 351.55 852.44 349.72 854.49 345.08 853.13 344.84 856.82 345.11 860.14 343.06 862.6 342.07 866.45 340.47 870.52 338.28 873.99 335.11 877.22 333.63 880.75 331.52 882.26 330.75 886.7 328.92 888.92 327.84 891.89 327.67 894.05 325.39 896.34 325.35 900.29 322.35 903.15 321.3 905.24 323.05 909.81 322.57 915.26 323.24 919.11 322.72 921.27 323.45 922.92 321.24 925.4 322.82 928.16 321.56 933.33 316.45 935.7 314.9 937.64 309.8 938.96 309 940.31 305.52 941.39 301.8 947.7 300.24 949.59 296.77 949.08 296.24 953.34 295.3 954.22 295.49 956.89 294.59 960.23 293.63 961.81 294.11 967.82 294.44 975.59 295.01 977.9 290.81 980.27 285.72 981.01 283.22 980.87 278.31 984.53 278.76 987.4 281.13 990.1 281.41 992.6 283.23 994.2 285.27 997.35 287.13 998.76 288.67 996.96 290.26 1000.8 289 1002.97 291.05 1003.73 294.65 1002.12 297.55 1004.17 300.99 1004.34 310.1 1007.21 314.45 1006.93 318.3 1007.29 316.43 1011.24 315.57 1014.1 309.52 1016.12 306.69 1019.17 303.78 1020.45 302.8 1021.79 300.42 1022.17 296.57 1023.7 294.46 1020.44 288.02 1020.38 286.87 1020.02 281.23 1022.24 278.02 1021.8 276.69 1022.58 270.78 1021.07 268.73 1022 266.78 1021.16 263.15 1022.46 262.42 1021.95 258.49 1022.88 252.43 1020.14 249.16 1021.35 245.08 1024.75 240.86 1026.36 234.17 1026.8 229.76 1027.7 223.28 1027.76 218.67 1026.47 217.03 1023.95 216.77 1022.41 214.62 1020.75 211.49 1016.95 207.34 1012.52 205.95 1003.96 205.21 1000.84 200.92 994.08 196.84 989.37 194.3 988.03 192.18 987.69 189.77 988.19 186.91 989.98 185.57 988.17 182.44 985.34 177.71 982.5 175.63 977.92 176.49 974.13 175.94 970.43 173.63 966.79 173.39 964.38 174.63 961.47 174.16 957.56 171.24 954.02 171.31 952.1 168.86 951.81 168.98 947.41 165.37 940.4 165.27 937.62 160.79 929.41 165.73 928.51 166.97 925.02 164.82 923.1 163.01 920.66 164.48 916.86 163.88 914.21 158.81 914.49 155.41 912.42 154.54 913.9 149.09 911.9 145.46 908.65 143.52 908.01 142.24 908.82 138.69 908.28 137.57 906.67 138.21 904.24 138.04 901.1 135.93 898.78 133.73 897.78 128.37 896.44 128.81 891.18 123.33 890.93 119.69 887.32 115.76 889.14 112.87 888.55 111.29 886.9 106.9 889.26 105.46 892.38 102.67 890.95 99.68 891.52 97.58 889.21 93.62 889.69 89.95 891.43 85.69 889.35 83.53 890.76 81.79 890.35 81.03 888.43 78.5 886.57 77.52 887.39 75.11 885.43 73.44 886.42 71.67 885.66 70.73 883.76 67.97 881.15 64.84 880.34 63.69 878.25 63.42 875.56 61.45 871.79 58.72 873.37 55.15 874.2 54.23 873.61 50.4 874.98 49.02 871.63 49.16 867.85 50.63 862.98 48.59 859.48 49.21 855.57 53.37 850.99 54.22 849.36 49 848 46.96 848.28 44.79 844.51 43.68 843.94 45.05 840.72 44.02 838.66 42.44 837.62 40.81 834.22 40.03 830.34 42.85 827.6 41.57 825.16 43.86 823.3 43.75 820.1 42.67 817.89 41.98 813.97 41.88 809.15 42.4 805.33 41.16 800.85 39.87 800.28 37.78 797.91 36.37 791.19 29.13 788.53 26.89 785.49 26.95 781.04 27.76 777.93 27.44 775.76 28.4 772.13 30.11 769.81 28.78 765.88 27.68 764.89 26.91 758.16 27.67 751.5 27.54 750.24 28.75 746.61 31.44 741.42 31.89 738.18 32.79 735.65 35.26 732.81 35.47 731.1 31.86 728.86 31.23 726.55 28.64 725.95 26.25 723.62 23.82 717.22 21.95 715.33 21.72 713.77 24.4 711.47 27.23 706.07 28.39 704.8 28.18 702.84 30.49 698.6 33.76 697.71 36.66 695.11 38.74 691.9 41.7 690.83 44.1 692.21 46.71 689.34 49.25 689.3 55.46 687.56 58.04 687.84 61.17 689.44 62.92 691.32 63.93 693.42 65.1 698.4 64.89 699.61 66.15 702.19 67.77 703.7 70.25 704.59 71.16 707.43 73.52 710.83 77.59 710.18 79.17 711.99 82.87 712.5 85 714.73 88.44 717.29 90.3 719.95 93.37 720.43 96.82 718.37 99.78 720.54 101.27 722.49 103.76 723.06 107.35 725.77 109.94 725.83 112.6 722.79 116.09 721.64 118.44 720.17 120.28 718.15 123 720.79 124.45 723.46 125.93 723.45 128.69 724.91 131.41 728.19 131.9 732.04 133.25 735.21 136.95 735.82 139.42 737.49 141.51 739.79 142.02 742.11 144.93 744.37 143.16 750.57 143.79 751.97 146.94 752.98 151.6 761.66 152.12 763.57 153.68 765.47 156.98 764.75 161.02 767.73 163.59 774.36 165.36 775.73 166.11 777.34 168.96 780.01 171.62 780.94 173.74 782.47 175.63 780.57 178.47 779.49 184.92 779.76 187.94 779.32 190.36 779.66 194.55 781.5 200.65 782.88 200.68 781.03 205.25 778.23 204.94 777.13 206.16 773.83 208.71 773.26 210.13 773.63 212.84 770.76 218.55 769.66 219.29 770.63 225.19 773.86 229.05 774.4 233.72 771.83 236.72 771.5 239.91 773.47 Z" id="37540310"/>
<path d="M 481.52 552.93 480.47 554.06 476.52 553.27 468.2 545.46 466.94 546.11 463.47 549.67 461.95 550.12 456.59 547.7 453.84 544.74 449.7 542.26 448.31 543.4 442.15 540.87 437.23 539.62 433.18 537.86 428.5 540.87 428.33 542.31 426.35 545.34 422.44 545.24 419.67 547.39 416.99 548.48 414.49 547.29 412.29 548.49 409.2 549.37 406.16 549.08 404.39 550.99 403.78 553.6 400.99 554.92 398.49 557.81 394.36 556.75 392.33 557.69 390.18 557.66 388 560.69 382.69 561.81 378.4 560.63 377.71 561.43 374.31 561.5 371.23 562.7 369.32 568.06 368.41 569.41 368.64 572.82 368.31 575.28 366.3 582.32 364.87 585.56 364.74 588.83 361.62 594.17 360.95 599.08 361.64 602.34 358.58 606.11 358.69 607.4 356.06 609.95 357.13 614.02 355.56 616.56 352.48 616.2 345 613.22 341.6 610.29 339.5 606.59 336.65 603.31 336.63 601.46 335.35 599.81 333.35 599.94 331.46 594.76 331.32 592.14 330.48 588.77 329.37 586.57 327.13 585.25 324.6 581.1 324.18 578.05 320.71 574.84 320.17 572.84 317.72 570.08 313.39 569.37 313.38 567.02 311.8 564.16 309.51 556.08 307.55 554.88 306.91 553.47 301.79 552.84 299.35 549.66 292.95 549.3 290.42 548.69 287.63 547.04 285.87 545.34 282.65 543.5 279.57 543.02 275.43 541.72 274.84 543.55 272.69 546.57 270.42 547.28 267.36 551.25 260.95 553.36 257.74 548.71 253.46 543.55 253.3 540.07 259.25 535.61 262.07 534.2 265.69 531.13 267.93 530.84 268.89 529.71 269.95 526.67 265.68 520.25 265.92 516.75 264.33 512.45 265.49 509.81 265.33 507.73 263.87 506.03 260.56 505.6 259.72 503.08 258.14 500.74 256.78 501.57 253.71 500.08 254.48 498.43 254.42 496.15 255.41 494.22 255.68 491.32 253 489.55 252.86 487.9 251.33 483.35 250.08 482.25 249.19 479.82 247.33 478.59 244.58 479.27 242.08 480.99 239.61 481.27 237.06 485.84 235.93 485.02 231.23 484.91 227.96 485.95 224.66 485.44 223.65 484.7 222.53 481.73 218.32 482.1 217.26 480.98 218.63 478.89 217.69 475.13 219.53 473.41 218.43 471.68 219.05 469.21 217.72 467.68 217.22 465.4 214.01 464.93 212.93 463.9 213.41 462.35 211.13 457.12 211.46 454.68 209.84 453.26 207.12 446.34 205.3 444.44 204.23 441.81 203.89 438.86 205.56 437.05 204.46 434.34 204.27 432.09 205.79 431.51 205.82 429.32 204.15 427.27 202.38 421.92 202.78 419.17 203.61 418.25 202.92 414.82 201.34 412.8 200.72 408.13 202.22 406.75 201.67 404.68 202.53 402.51 205.01 403.81 206.86 403.03 207.2 401.05 206.69 398.01 207.16 395.12 205.3 391.4 206.06 388.87 207.09 388.22 207.98 385.47 208.02 383.17 209.58 380.17 213.29 378.04 211.62 372.16 212.06 370.84 209.22 366.8 210.55 365.31 210.83 361.66 211.72 359.82 211.48 357.69 212.44 353.21 209.55 349.62 209.12 347.91 210.79 345.95 209.88 341.41 206.84 339.01 205.21 335.61 205.72 332.6 204.83 330.71 203.51 326 204 322.32 203.4 318.01 205.66 313.27 209.64 311.65 213.25 309.61 213.63 307.77 215.94 304.46 218.5 302.44 217.75 299.68 218.06 298.22 220.76 295.62 223.12 292.01 225.83 292.39 228.8 293.94 230.08 290.51 233.5 288 235.1 283.01 238.84 280.44 239.96 278.3 241.44 277.61 242.41 273.09 243.89 272.63 251.24 267.29 252.86 266.88 255.77 267.45 258.13 265.62 259.4 261.96 261.26 260.94 263.99 257.1 273.38 247.46 272.87 243.77 274.12 241.11 276.17 239.47 272.77 233.81 269.23 233.78 267.41 232.46 263.35 231.56 260.37 229.94 255.19 224.66 250.58 223.79 245.77 222.41 244.56 220.45 242.93 213.88 241.32 211.13 238.64 208.68 238.13 206.4 235.48 204.15 233.34 199.2 231.76 198.54 230.73 196.88 238.59 189.64 247.21 180.47 250.08 178.73 255.12 180.24 258.93 180.03 263.09 179.2 264.53 180.37 266.53 180 270.05 177.48 270.48 176.01 272.71 175.07 278.79 171.31 282.26 171.27 284.82 168.69 284.45 164.78 287.09 161.9 287.13 160.56 289.43 159.03 290.06 157.23 292.75 154.6 297.58 154.13 301.2 156.46 304.48 154.89 304.87 152.23 307.19 151.07 309.25 148.1 310.51 145.39 314.91 144 318.16 145.62 320.84 147.52 322.67 147.62 324.96 149.8 329.56 151.21 330.96 151.06 332.78 148.14 338.48 145.99 343.02 146.05 346.77 145.29 350.41 146.73 353 146.55 357.5 148.76 362.36 145.22 366.25 144.63 367.97 145.39 371.61 143.24 376.43 142.02 378.17 139.01 381.65 138.45 384.29 139.35 386.57 139.02 391.18 141.07 394.11 141.88 400.42 142.3 402.99 146.56 404.66 148.1 406.48 148.06 409.32 146.46 413.61 144.78 414.98 143.56 416.01 139.74 414.46 136.03 413.42 134.94 411.7 130.87 415.63 126.83 418.62 127.46 422.51 124.03 428.39 124.41 432.05 122.94 435.94 124.71 438.06 124.67 442.76 125.96 441.36 130.54 441.83 133.78 441.27 140 443.4 141.95 445.49 147.06 445.46 147.92 448.9 151.42 450.95 155.77 452.03 160.52 450.53 164.64 450.17 170.51 451.07 173.54 450.47 175.56 452.01 179.51 452.44 182.26 453.87 183.42 454.25 188.38 456.01 193.29 458.3 194.76 455.65 198.45 453.39 203.29 451.07 203.9 449.25 207.05 448.96 210.45 448.08 212.62 444.85 216.55 443.49 217.02 441.89 221.06 441.45 224.44 442.13 227.38 440.92 229.63 438.93 231.85 438.03 236.12 439.53 238.57 439.18 240.48 437.69 242.42 439.19 245.07 440.79 251.37 438.95 254.77 440.05 257.65 439 259.67 438.96 266.19 436.72 266.68 435.7 270.76 434.79 271.27 432.29 278.39 428.42 277.93 425.63 279.31 421.14 282.54 415.98 283.13 414.13 285.98 414.89 287.45 415.61 292.54 418.16 294.21 419.27 299.63 420.19 300.38 422.61 307.63 422.92 310.99 421.86 315.41 422.54 316.91 422.15 319.3 420.52 321.39 424.5 322.08 426.52 323.57 427.4 325.78 425.34 333.1 426.74 333.47 429.99 341.71 431.27 346.84 431.75 350.44 430.63 354.04 429.39 355.84 430.92 358.92 433.27 362.25 433.65 363.93 435.64 365.88 437.59 362.9 438.23 359.31 437.94 356.54 440.89 352.47 444 349.42 448.47 350.04 449.46 353.41 454.08 360.97 454.24 366.09 455.8 367.71 458.62 367.48 462.9 371.91 462.95 374.33 461.78 377.9 464.75 379.6 467.96 379.12 473.33 377.18 480.27 376.74 482.09 380.82 485.44 382.44 485.76 383.54 484.71 386.84 482.14 389.64 477.44 390.53 477.01 391.44 472.88 393.55 474.27 396.36 468.88 400.95 474.64 414.13 477.55 417.77 479.57 419.14 479.19 421.25 477.91 423.47 474.96 425.11 473.5 429 470.56 429.19 469.07 434.35 466.93 437.81 472.53 439.22 475.49 439.01 477.46 442 482.3 447.26 481.61 452.67 487.2 455.17 488.95 457.73 491.01 462.42 497.5 468.32 499.78 472.05 501.73 481.59 500.63 483.98 497.26 486.29 495.64 488.99 495.43 492.24 493.76 494.3 491.65 498.83 491.35 500.41 489.35 502.43 489.36 504.17 488.32 506.94 490.71 509.8 489.87 511.31 491.15 512.93 490.95 520.51 491.41 521.89 490.04 523.48 489.74 526.44 490.95 529.08 492.93 531.78 493.65 533.97 492.72 537.31 488.99 541.31 486.34 543.67 483.52 547.29 483.21 550.69 481.52 552.93 Z" id="37540330"/>
<path d="M 613.14 912.1 616.65 916.41 616.4 920.36 618.37 923.88 618.52 925.87 623.31 931.22 626.18 933.22 626.03 938.21 626.81 942.02 632.17 942.52 635.6 941.69 638.3 941.94 642.34 943.86 644.3 950.16 644.26 951.56 650.57 954.72 652.32 960.47 652.47 963.97 649.96 963.97 646.63 965.65 641.76 963.99 639.72 964.91 639.14 967.83 637.96 969.83 639.53 972.9 638.75 975.53 638.9 979.12 636.27 981.65 636.2 982.81 638.08 986.32 638.6 989.22 637.16 994.11 637.98 995.89 640.69 998.44 640.41 1001.81 641.26 1003.65 640.98 1007.31 641.36 1010.23 638.44 1012.33 635.06 1013.78 634.12 1016.32 627.93 1022.72 627.32 1026.33 629.26 1028.28 630.19 1031.4 629.17 1033.6 629.43 1035.97 628.95 1038.18 627.7 1039.86 626.82 1043.77 626.96 1046.52 628.95 1053.05 631.98 1058.43 634.06 1059.62 635.4 1061.25 636.04 1063.49 636.1 1067.6 637.06 1073.34 639.34 1074.27 638.95 1076.48 636.71 1078.8 636.6 1081.52 640.05 1083.82 645.63 1085 646.41 1088.55 647.83 1092.59 651.09 1094.68 653.82 1102.41 655.14 1107.59 656.72 1110.14 658.04 1113.35 654.84 1116.57 651.3 1116.7 648.13 1119.03 643.22 1116.63 639.66 1117.68 638.07 1114.2 632.69 1114.36 629.62 1109.2 626.56 1105.59 623.47 1108.16 621.19 1108.18 619.85 1109.72 616.26 1108.04 613.87 1106.32 613.48 1105.24 609.9 1105.05 605.86 1103.24 605.01 1105.5 604.85 1111.95 605.76 1115.03 603.19 1120.33 602.76 1123.35 601.2 1125.63 600.92 1129.76 598.9 1131.25 597.62 1133.15 598.72 1134.36 599.56 1137.51 599.22 1140.51 598.06 1141.68 599.18 1147.15 602.25 1148.36 603.93 1150.89 602.83 1152.39 604.74 1153.52 603.66 1157.08 605.63 1157.88 605.86 1159.7 607.69 1161.76 601.78 1168.55 602.13 1170 604.97 1173.7 603.67 1176 604.29 1177.79 602.21 1179 595.22 1174.59 595.39 1173.43 591.72 1172.57 589.01 1173.78 588.26 1175.52 586.77 1174.57 586.46 1172.68 584.81 1169.42 586.58 1167.99 585.96 1164.85 587.24 1162.82 586.5 1159.86 582.66 1155.33 580.94 1149.42 577.83 1148.45 575.97 1146.62 575.49 1145.19 570.29 1146.69 568.37 1146.49 567.37 1145.4 564.68 1145.55 558.73 1141.67 555.88 1140.62 554.44 1139.03 550.35 1140.73 549.68 1143.44 547.95 1146.04 546.28 1143.91 542.71 1143.44 540.12 1144.13 535.51 1143.47 533.52 1141.62 531.91 1141.99 529.75 1140.32 526.14 1139.61 524.53 1137.65 518.83 1138.32 519.92 1140.45 516.45 1143.11 516.77 1144.64 514.54 1148.64 511.72 1146.23 510.35 1141.68 507.13 1138.75 505.42 1132.93 502.28 1131.05 497.65 1131.45 496.71 1129.48 497.84 1125.55 495.33 1124.69 490.89 1126.25 488.09 1125.97 487.13 1124.72 484.95 1124.89 483.46 1124.02 480.38 1125.57 479.03 1124.88 476.5 1125.73 473.92 1128.27 472.3 1129 469.49 1132.36 465.38 1133.27 463.6 1134.4 456.87 1136.06 452.62 1134.82 451.7 1136.61 448.5 1136.16 446.32 1138.34 444.99 1138.52 444.43 1141.02 441.9 1143.01 438.5 1144.97 430.39 1146.45 427.58 1148.74 426.13 1149.07 421.16 1148.32 413.99 1146.71 412.64 1146.08 407.84 1152.78 404.12 1153.09 401.17 1151.02 399.26 1151.29 394.7 1150.52 389.87 1146.44 386.66 1147.49 381.49 1146.18 380.69 1147.52 378.73 1148.1 377.49 1146.5 377.03 1144.47 375.2 1144.09 372.84 1142.64 370.69 1139.46 373.37 1134.61 373.4 1132.29 374.33 1129.63 374.3 1126.59 372.59 1124.44 372.07 1122.5 370.1 1121.4 369.93 1117.77 367.85 1118.1 365.56 1115.49 365.44 1112.43 367.84 1110.9 368.8 1107.61 371.94 1104.48 374.43 1101.07 375.62 1098.15 374.99 1095.61 371.39 1095.63 369.9 1093.64 368.62 1090.31 366.39 1087.39 364.18 1086.84 363.11 1084.75 365.26 1082.16 367.91 1076.16 370.63 1075.44 370.87 1074.41 373.14 1072.4 372.32 1068.9 372.17 1065.77 371.36 1063.61 371.57 1060.94 370.09 1057.39 367.86 1054.01 366.15 1049.12 363.33 1046.86 360.98 1045.58 356.65 1045.17 354.8 1044.17 352.64 1045.44 350.43 1042.09 348.83 1041.46 348.24 1038.65 346.68 1037.2 344.69 1037.7 342.75 1037.01 340.95 1033.97 334.08 1034.67 330.65 1032.24 325.37 1031 322.33 1028.85 321.88 1026.63 320.15 1023.42 317.56 1021.82 315.13 1018.54 315.57 1014.1 316.43 1011.24 318.3 1007.29 314.45 1006.93 310.1 1007.21 300.99 1004.34 297.55 1004.17 294.65 1002.12 291.05 1003.73 289 1002.97 290.26 1000.8 288.67 996.96 287.13 998.76 285.27 997.35 283.23 994.2 281.41 992.6 281.13 990.1 278.76 987.4 278.31 984.53 283.22 980.87 285.72 981.01 290.81 980.27 295.01 977.9 294.44 975.59 294.11 967.82 293.63 961.81 294.59 960.23 295.49 956.89 295.3 954.22 296.24 953.34 296.77 949.08 300.24 949.59 301.8 947.7 305.52 941.39 309 940.31 309.8 938.96 314.9 937.64 316.45 935.7 321.56 933.33 322.82 928.16 321.24 925.4 323.45 922.92 322.72 921.27 323.24 919.11 322.57 915.26 323.05 909.81 321.3 905.24 322.35 903.15 325.35 900.29 325.39 896.34 327.67 894.05 327.84 891.89 328.92 888.92 330.75 886.7 331.52 882.26 333.63 880.75 335.11 877.22 338.28 873.99 340.47 870.52 342.07 866.45 343.06 862.6 345.11 860.14 344.84 856.82 345.08 853.13 349.72 854.49 351.55 852.44 356.6 852.95 358.29 849.41 359.89 847.4 362.74 845.61 363.71 839.86 363.32 838.92 365.22 836.49 367.72 837.61 369.92 833.04 371.19 831.72 372.42 826.36 374.62 822.33 372.89 819.91 374.62 815.44 378.07 814.19 381.99 813.94 382.79 812.44 382.7 809.97 385.48 808.06 387.09 800.49 388.34 797.3 388.27 792.84 387.27 791.02 387.27 787.35 384.77 783.89 385.71 782.04 390.08 776.14 393.62 773.07 396.65 773.35 398.84 777.49 402.77 775.09 404.23 772.8 406.37 772.72 407.95 769.67 412.7 770.43 414.56 771.28 418.16 774.45 420.36 775.42 423.32 774.81 426.41 778.45 427.41 782.87 428.95 785.17 431.59 785.46 432.76 786.28 437.03 786.19 440.5 789.29 441.73 791.25 442.45 794.46 443.4 796.05 442.85 801.35 445.85 802.65 448.29 801.65 449.87 799.44 453.16 800.76 455.42 798.66 457.1 796.14 460.13 794.62 463.18 796.42 465.2 794.03 468.12 793.16 469.34 790.4 471.19 790.12 472.56 791.89 474.52 792.75 478.88 792.67 482.59 789.04 486.6 789.28 488.57 788.8 491.86 791.74 493.08 797.78 496.04 800.9 501.54 802.75 505.5 802.88 506.43 804.46 508.9 803.95 513.16 805.69 517.46 805.84 517.01 807.01 518.23 808.86 517.85 810.42 520.78 811.84 521.7 814.98 523.8 816.11 524.66 820.05 523.07 822.88 521.31 823.98 520.83 826.78 520.85 831.67 519.38 833.37 519.28 836.05 517 840.06 518.64 842.95 514 848.29 513.1 848.41 514.73 853.8 520.53 853.14 523.59 852.18 528.51 849.59 529.12 850.24 530.97 856.17 535.56 860.89 535.63 863.53 534.25 867.54 535.2 869.85 538.38 873.92 540.97 875.81 542.59 878.48 543.07 882.07 544.34 886.37 546.79 889.16 554.28 893.82 556.59 899.89 557.41 905.63 559.57 909.86 559.16 912.65 561.08 913.3 564.02 916 563.95 918.25 565.73 919.04 565.33 922.95 566.31 924.35 567.59 928.47 568.13 932.98 570.67 933.31 570.84 931.73 572.81 929.95 576.38 928.47 581.09 928.25 582.97 927.76 586.01 925.95 588.61 927.51 590.31 925.21 593.77 923.2 593.71 921.82 595.71 918.75 596.73 915.02 602.18 909.3 607.18 911.08 613.14 912.1 Z" id="37540350"/>
<path d="M 230.73 196.88 231.76 198.54 233.34 199.2 235.48 204.15 238.13 206.4 238.64 208.68 241.32 211.13 242.93 213.88 244.56 220.45 245.77 222.41 250.58 223.79 255.19 224.66 260.37 229.94 263.35 231.56 267.41 232.46 269.23 233.78 272.77 233.81 276.17 239.47 274.12 241.11 272.87 243.77 273.38 247.46 263.99 257.1 261.26 260.94 259.4 261.96 258.13 265.62 255.77 267.45 252.86 266.88 251.24 267.29 243.89 272.63 242.41 273.09 241.44 277.61 239.96 278.3 238.84 280.44 235.1 283.01 233.5 288 230.08 290.51 228.8 293.94 225.83 292.39 223.12 292.01 220.76 295.62 218.06 298.22 217.75 299.68 218.5 302.44 215.94 304.46 213.63 307.77 213.25 309.61 209.64 311.65 205.66 313.27 203.4 318.01 204 322.32 203.51 326 204.83 330.71 205.72 332.6 205.21 335.61 206.84 339.01 209.88 341.41 210.79 345.95 209.12 347.91 209.55 349.62 212.44 353.21 211.48 357.69 211.72 359.82 210.83 361.66 210.55 365.31 209.22 366.8 212.06 370.84 211.62 372.16 213.29 378.04 209.58 380.17 208.02 383.17 207.98 385.47 207.09 388.22 206.06 388.87 205.3 391.4 207.16 395.12 206.69 398.01 207.2 401.05 206.86 403.03 205.01 403.81 202.53 402.51 201.67 404.68 202.22 406.75 200.72 408.13 201.34 412.8 202.92 414.82 203.61 418.25 202.78 419.17 202.38 421.92 204.15 427.27 205.82 429.32 205.79 431.51 204.27 432.09 204.46 434.34 205.56 437.05 203.89 438.86 204.23 441.81 205.3 444.44 207.12 446.34 209.84 453.26 211.46 454.68 211.13 457.12 213.41 462.35 212.93 463.9 214.01 464.93 217.22 465.4 217.72 467.68 219.05 469.21 218.43 471.68 219.53 473.41 217.69 475.13 218.63 478.89 217.26 480.98 218.32 482.1 222.53 481.73 223.65 484.7 224.66 485.44 227.96 485.95 231.23 484.91 235.93 485.02 237.06 485.84 239.61 481.27 242.08 480.99 244.58 479.27 247.33 478.59 249.19 479.82 250.08 482.25 251.33 483.35 252.86 487.9 253 489.55 255.68 491.32 255.41 494.22 254.42 496.15 254.48 498.43 253.71 500.08 256.78 501.57 258.14 500.74 259.72 503.08 260.56 505.6 263.87 506.03 265.33 507.73 265.49 509.81 264.33 512.45 265.92 516.75 265.68 520.25 269.95 526.67 268.89 529.71 267.93 530.84 265.69 531.13 262.07 534.2 259.25 535.61 253.3 540.07 253.46 543.55 257.74 548.71 260.95 553.36 261.45 558.02 262.75 563.61 268.17 568.16 269.73 568.5 272.09 574.25 274.34 578.75 276.15 581.02 277.5 584.42 277.63 587.16 278.86 588.15 282.35 594.07 282.94 597.37 279.97 604.55 278.57 606.51 277.99 613.71 275.89 615.79 269.79 615.79 266.15 617.39 261.58 618.89 261.2 622.2 258.77 623.23 257.22 625.66 256.76 630.45 257.43 632.92 259.69 635.31 258.35 643.04 258.69 644.4 257.34 647.92 258.2 650.24 256.68 653.98 259.7 658.38 261.61 661.8 262.22 665.78 263.37 668.61 260.44 670.15 258.38 674.13 255.08 674.79 253.06 677.05 251.54 683.44 253.79 686.9 253.15 689.93 255.43 692.48 254.31 696.12 255.23 700.36 254.98 705.06 253.93 707.6 255.9 711.13 253.62 712.97 255.2 716.99 252.95 718.08 251.36 721.25 250.18 722.43 249.16 726.9 249.77 730.24 247.78 732.81 246.82 736.07 244.28 736.55 242.07 739.45 242.06 740.9 240.06 743.75 241.42 746.02 240.37 747.99 239.43 752.12 239.86 754.51 242.08 755.6 242.89 757 242.88 759.16 243.87 760.72 241 767.94 240.94 770.47 239.91 773.47 236.72 771.5 233.72 771.83 229.05 774.4 225.19 773.86 219.29 770.63 218.55 769.66 212.84 770.76 210.13 773.63 208.71 773.26 206.16 773.83 204.94 777.13 205.25 778.23 200.68 781.03 200.65 782.88 194.55 781.5 190.36 779.66 187.94 779.32 184.92 779.76 178.47 779.49 175.63 780.57 173.74 782.47 171.62 780.94 168.96 780.01 166.11 777.34 165.36 775.73 163.59 774.36 161.02 767.73 156.98 764.75 153.68 765.47 152.12 763.57 151.6 761.66 146.94 752.98 143.79 751.97 143.16 750.57 144.93 744.37 142.02 742.11 141.51 739.79 139.42 737.49 136.95 735.82 133.25 735.21 131.9 732.04 131.41 728.19 128.69 724.91 125.93 723.45 124.45 723.46 123 720.79 120.28 718.15 118.44 720.17 116.09 721.64 112.6 722.79 109.94 725.83 107.35 725.77 103.76 723.06 101.27 722.49 99.78 720.54 96.82 718.37 93.37 720.43 90.3 719.95 88.44 717.29 85 714.73 82.87 712.5 79.17 711.99 77.59 710.18 73.52 710.83 71.16 707.43 70.25 704.59 67.77 703.7 66.15 702.19 64.89 699.61 65.1 698.4 63.93 693.42 62.92 691.32 61.17 689.44 58.04 687.84 55.46 687.56 49.25 689.3 46.71 689.34 44.1 692.21 41.7 690.83 38.74 691.9 37.1 688.78 37.26 683.84 35.38 678.52 35.03 674.64 35.22 671.39 31.5 669.13 28.1 669.2 23.99 665.41 22.2 661.16 21.48 657.84 24.15 652.01 29.97 649.14 25.64 643.7 20.28 633.88 22.79 627.33 26.24 626.28 29 621.94 28.69 620.17 29.73 615.47 32.18 613.51 32 609.91 30.86 609.02 29.4 602.68 30.25 601.61 30.31 598.03 28.33 597.17 27.6 595.76 27.55 592.87 24.87 589.86 26.57 586.3 25.14 583.36 25.41 581.26 26.63 579.05 27.75 578.84 29.7 576.87 33.53 575.23 33.53 573.92 38.27 571.12 38.43 566.27 36.87 561.67 36.4 557.31 36.29 551.26 33.11 549.39 31.18 546.94 30.09 544.15 31.3 541.5 33.62 538.76 35.09 537.99 36.97 535.72 37.38 532.9 36.67 530.43 37.33 528.42 37 526.43 39.26 523.66 38.47 522.33 40.9 518.86 40.59 517.1 41.59 513.21 43.12 511.42 41.33 510.88 40.79 507.95 41.33 505.53 42.68 504.32 41.79 500.85 41.98 499.01 39.5 497.13 37.24 496.42 36.37 492.85 33.34 487.79 34.42 484.75 36.16 482.3 33.98 480.18 35.13 473.85 34.05 473.1 28.23 466.85 25.93 463.61 23.87 462.23 19.02 461.48 16.51 460.5 15.14 456.71 15.04 455.06 13.82 453.73 11.62 449.43 12.1 445.52 16.27 442.47 16.92 441.49 16.27 438.74 18.52 436.38 19.17 432.98 18.55 430.46 19.72 428.91 18.82 426.43 19.89 421.45 19.82 418.91 17.85 416.73 17.69 413.96 19.73 412.31 20.97 411.68 20.91 409.91 18 408.03 17.8 406.05 16.19 404.87 19.07 399.24 18.51 393.42 21.39 388.07 18.7 383.64 14.87 381.94 14.82 381.25 9.6 375.76 7.8 370.85 5.12 369.56 3.9 367.61 1 365.79 1.46 357.14 3.27 352.4 1.13 347.81 2.84 345.13 1.92 342.05 2.48 338.54 7.51 337.03 11.44 335.38 11.35 330.35 16.24 327.58 15.88 325.6 22.8 323.84 28.16 321.3 29.85 322.31 31.08 321.86 33.25 317.89 37.6 315.7 39.17 315.52 40.78 313.62 45.44 314.11 50.66 315.83 56.03 314.59 59.35 315.19 60.13 313.72 62.06 313.28 64.58 310.18 65.68 309.62 67.93 306.48 70.51 305.64 74.69 306.48 75.9 303.68 78.94 302.71 79.57 301.48 82.87 300.57 85.21 301.51 87.78 300.64 92.04 304.22 98.01 300.86 99.9 298.4 102.05 298.55 104.59 297.71 107.99 297.27 109.18 294.15 112.2 292.57 112.98 291.44 116.65 292.53 118.06 289.44 121.93 286.12 125.7 285.9 125.48 282.71 127.76 280.86 128.65 277.72 127.79 274.34 130.43 270.25 131.49 267.87 133.25 266.67 135.76 266.58 141.27 264.08 143.38 260.84 144.65 260.07 148.12 260.09 149.97 261.3 151.04 260.94 152.93 257.86 154.55 257.12 155.29 253.06 156.23 251.63 156.45 248.48 160.52 243.38 161.72 240 163.42 239.64 165.11 237.54 166.71 233.59 172.48 235.17 174.58 232.99 175.64 228.74 177.32 227.46 179.89 223.49 182.21 221.23 184.37 216.93 187.57 213.3 189.74 211.87 189.93 210.1 191.48 207.57 191.52 204.37 192.54 198.29 196.04 195.47 199.54 195.86 203.78 192.68 205.4 192.31 209.42 189.73 214.43 189.98 219.42 191.83 220.47 190.96 225 191.26 229.11 194.37 230.73 196.88 Z" id="37540320"/>
<path d="M 747.32 164.14 746.97 167.4 744.44 170.38 742.47 173.93 739.76 175.79 739.51 181.09 738.77 184.04 737.65 185.05 738.07 188.09 737.29 191.48 734.55 196.4 734.11 199.26 736.65 202.77 734.72 207.73 734.49 210.47 732.78 213.72 733.9 215.22 735.64 215.13 738.04 217.15 742.33 219.67 745.06 222.96 744.88 227.62 745.52 230.41 746.55 231.1 749.21 236.07 748.82 237.76 754.3 239.08 756.3 240.55 758.07 243.09 757.4 245.72 760.44 248.87 761.3 250.35 761.96 254.27 764.29 257.4 766.33 258.57 770.28 258.14 778.82 260.37 781.72 263.5 783.08 268.8 783.69 272.44 789.45 275.46 790.19 277.6 793.73 280.05 794.54 283.14 795.76 284.49 796.57 288.6 798 291.57 799 296.04 796.57 298.9 796.04 301.34 793.17 305.35 793.16 307.62 794.7 309.95 794.74 312.54 791.48 317.09 787.51 317.21 783.72 312.41 780.4 308.97 777.33 308.02 773.14 308.96 772.39 309.9 767.14 318.97 766.75 321.44 764.2 323.93 762.42 326.54 761.8 329.16 762.24 331.35 761.72 332.73 759.66 333.37 757.48 335.57 757.92 339.43 756.92 341.63 756.92 343.73 758.62 347.25 758.49 349.29 760.53 350.51 759.87 353.29 758.05 356.48 758.24 362.34 760.83 370.11 758.18 373.97 757.37 376.36 754.87 379.17 752.18 379.87 749.62 382.94 747.68 382.04 744.03 379.03 742.86 380.25 739.61 380.5 735.28 382.97 734.51 383.96 732.56 383.47 729.88 384.83 728.31 386.88 724.66 388.25 723.76 389.92 720.88 390.92 717.98 393.55 716.31 394.26 714.04 397.04 712.23 397.98 711.71 401.33 707.19 402.85 705.84 404.35 701.3 406.36 699.01 406.84 701.88 413.3 701.29 416.73 702.25 418.78 700.93 421.68 700.67 426.21 699.88 428.66 698.91 434.61 697.86 437.05 700.78 447.52 699.44 450.58 699.38 454.03 697.2 458.04 699.11 462.37 701.06 465.37 705.78 468.2 709.34 471.78 713.7 470.29 717.63 471.58 720.04 471.62 722.9 470.72 728.31 473.63 731.82 476.65 734.2 479.96 737.39 480.87 739.73 483.62 744.63 483.99 749.36 483.13 756.13 482.84 757.43 483.77 755.88 486.7 750.87 488.14 749.4 493.44 746.98 495.13 745.88 499.77 744.48 501.2 744.44 504.5 745.79 506.36 744.03 508.61 743.48 511.01 736.81 515.62 736.16 522.89 736.8 527.08 738.31 528.84 736.1 531.85 734.9 535.05 734.77 538.55 733.89 541.82 731.51 542.48 728.75 542.28 727.86 543.87 727.09 548 729.68 551.08 729.36 554.78 727.09 558.71 724.27 562.25 722.05 562.91 717.06 566.57 715.13 565.73 713.87 566.14 708.21 566.67 705.3 564.35 703.38 560.99 699.96 559.56 697.04 555.71 691.9 555.57 689.82 553.77 686.09 553.43 681.26 551.88 678.44 553.41 676.02 553.08 674.39 551.88 671.36 551.8 669.18 546.68 667.13 543.21 667.08 542.13 661.51 541.69 659.32 540.7 657.46 541.27 650.46 541.39 648.62 545.38 645.44 547.49 641.11 547.74 639.54 545.34 636.18 541.79 632.45 542.88 626.51 545.87 622.01 546.83 621.12 548.52 614.46 551.34 612.21 550.95 607.74 555.9 605.33 556.28 599.96 556.45 597.58 558.74 597.09 560.46 591.76 563.84 588.58 567.11 587.58 567.19 585.64 571.02 583.14 574.57 579.51 576.67 575.37 580.07 567.93 580.61 563.94 588.26 563.57 596.05 553.79 604.03 548.76 608.92 537.67 617.04 534.73 620.28 532.02 622.24 529.98 619.94 528.29 617.14 526.24 617.73 524.34 614.11 522.4 611.79 523.37 609.58 523.83 606.58 522.55 603.56 519.44 602.44 518.32 601.27 516.42 601.05 514.29 598 512.15 593.23 511.28 593.06 510.1 587.08 509.51 581.91 505.88 580.02 500.69 578.6 498.54 580.35 496.68 579.77 495.47 577.88 492.48 576.17 490.3 577.63 487.37 574.33 486.25 571.57 483.48 570.91 484.32 568.24 482.72 564.2 483.72 559.77 484.85 559.05 483.73 554.96 481.52 552.93 483.21 550.69 483.52 547.29 486.34 543.67 488.99 541.31 492.72 537.31 493.65 533.97 492.93 531.78 490.95 529.08 489.74 526.44 490.04 523.48 491.41 521.89 490.95 520.51 491.15 512.93 489.87 511.31 490.71 509.8 488.32 506.94 489.36 504.17 489.35 502.43 491.35 500.41 491.65 498.83 493.76 494.3 495.43 492.24 495.64 488.99 497.26 486.29 500.63 483.98 501.73 481.59 499.78 472.05 497.5 468.32 491.01 462.42 488.95 457.73 487.2 455.17 481.61 452.67 482.3 447.26 477.46 442 475.49 439.01 472.53 439.22 466.93 437.81 469.07 434.35 470.56 429.19 473.5 429 474.96 425.11 477.91 423.47 479.19 421.25 479.57 419.14 477.55 417.77 474.64 414.13 468.88 400.95 474.27 396.36 472.88 393.55 477.01 391.44 477.44 390.53 482.14 389.64 484.71 386.84 485.76 383.54 485.44 382.44 482.09 380.82 480.27 376.74 473.33 377.18 467.96 379.12 464.75 379.6 461.78 377.9 462.95 374.33 462.9 371.91 458.62 367.48 455.8 367.71 454.24 366.09 454.08 360.97 449.46 353.41 448.47 350.04 444 349.42 440.89 352.47 437.94 356.54 438.23 359.31 437.59 362.9 435.64 365.88 433.65 363.93 433.27 362.25 430.92 358.92 429.39 355.84 430.63 354.04 431.75 350.44 431.27 346.84 429.99 341.71 426.74 333.47 425.34 333.1 427.4 325.78 426.52 323.57 424.5 322.08 420.52 321.39 422.15 319.3 422.54 316.91 421.86 315.41 422.92 310.99 422.61 307.63 420.19 300.38 419.27 299.63 418.16 294.21 415.61 292.54 414.89 287.45 414.13 285.98 415.98 283.13 421.14 282.54 425.63 279.31 428.42 277.93 432.29 278.39 434.79 271.27 435.7 270.76 436.72 266.68 438.96 266.19 439 259.67 440.05 257.65 438.95 254.77 440.79 251.37 439.19 245.07 437.69 242.42 439.18 240.48 439.53 238.57 438.03 236.12 438.93 231.85 440.92 229.63 442.13 227.38 441.45 224.44 441.89 221.06 443.49 217.02 444.85 216.55 448.08 212.62 448.96 210.45 449.25 207.05 451.07 203.9 453.39 203.29 455.65 198.45 458.3 194.76 456.01 193.29 454.25 188.38 453.87 183.42 452.44 182.26 452.01 179.51 450.47 175.56 451.07 173.54 450.17 170.51 450.53 164.64 452.03 160.52 450.95 155.77 448.9 151.42 445.46 147.92 445.49 147.06 443.4 141.95 441.27 140 441.83 133.78 441.36 130.54 442.76 125.96 438.06 124.67 435.94 124.71 432.05 122.94 428.39 124.41 422.51 124.03 418.62 127.46 415.63 126.83 411.7 130.87 413.42 134.94 414.46 136.03 416.01 139.74 414.98 143.56 413.61 144.78 409.32 146.46 406.48 148.06 404.66 148.1 402.99 146.56 400.42 142.3 394.11 141.88 391.18 141.07 386.57 139.02 384.29 139.35 381.65 138.45 378.17 139.01 376.43 142.02 371.61 143.24 367.97 145.39 366.25 144.63 362.36 145.22 357.5 148.76 353 146.55 350.41 146.73 346.77 145.29 343.02 146.05 338.48 145.99 332.78 148.14 330.96 151.06 329.56 151.21 324.96 149.8 322.67 147.62 320.84 147.52 318.16 145.62 314.91 144 310.51 145.39 309.25 148.1 307.19 151.07 304.87 152.23 304.48 154.89 301.2 156.46 297.58 154.13 292.75 154.6 290.06 157.23 289.43 159.03 287.13 160.56 287.09 161.9 284.45 164.78 284.82 168.69 282.26 171.27 278.79 171.31 272.71 175.07 270.48 176.01 270.05 177.48 266.53 180 264.53 180.37 263.09 179.2 258.93 180.03 255.12 180.24 250.08 178.73 251.8 177.61 253.11 171.38 256.16 171.69 259.18 173.61 261.38 174.09 262.63 173.07 266.1 171.78 268.96 172.14 273.29 168.53 276.4 166.92 279.05 163.88 280.81 157.87 280.44 154.04 281.88 152.19 282.46 149.43 286.71 142.83 289.3 141.79 294.59 138.94 296.97 137 299.89 132.74 300.21 130.34 301.49 128.59 309.26 126.83 310.19 124.94 309.91 122.71 311.84 119.83 316.91 117.12 321.2 116.43 322.06 115.58 324.2 111.31 326.41 109.05 328.15 106.11 329.01 102.9 329.95 101.71 331.6 95.37 333 93.79 334.47 89.49 334.76 87.1 334.61 81.42 333.99 78.44 334.87 77.02 337.19 75.24 342.94 74.09 344.29 73 344.76 67.49 343.92 63.16 346.07 53.31 350.06 51.03 354.26 49.82 354.85 46.52 358.35 42.75 361.71 39.79 362.62 36.71 364.92 33.29 362.73 29.72 362.57 28.47 366.17 26.49 368.34 26.23 373.31 27.05 377.77 24.77 382.07 26.34 385.87 24.8 387.77 25.76 392.95 26.48 397.15 26.45 402.99 25.22 405 22.84 408.45 13.25 409.54 12.84 413.32 16.5 415.06 19.56 417.68 22.16 421.61 22.38 426.99 23.57 430.25 22.12 431.46 20.8 433.78 19.8 434.33 15 434.32 10.8 432.11 8.51 434.75 5.61 438.38 4.58 441.24 1.55 445.99 1 450.01 2.56 453.4 1.37 457.71 6.91 460.35 7.57 463.62 6.75 465.56 5.32 467.1 7.15 472.43 9.7 474.26 9.53 476.66 7.33 479.67 6.66 483.2 7.39 486.37 7.4 489.93 6.73 492.82 5.11 494.64 5.17 496.08 6.6 497.4 6.6 499.35 9.19 502.6 14.87 506.43 19.96 506.62 20.88 504.96 27.65 506.21 35.17 509.14 38.11 509.51 39.19 515.31 42.31 515.46 43.4 519.43 48.78 518.97 49.81 519.56 57.64 522.37 61.85 522.67 63.67 526.37 67.78 529.94 69.57 531.21 76.38 533.04 75.76 535.64 72.76 537.82 73.32 538.48 65.98 540.89 64.02 542.63 60.12 542.99 54.58 544.51 52.51 547.74 53.3 548.01 56.35 550.12 57.92 553.12 58.74 553.74 61.83 556.09 67.62 558.54 66.77 560.43 68.14 562.82 66.53 565.54 63.94 568.67 59.9 571.78 57.99 574.19 57.77 578.37 59.3 581.64 58.19 586.3 57.21 590.51 55.14 595.24 53.42 594.77 55.68 593.37 57.93 586.51 62.05 586.19 63.72 584.56 66.01 585.26 68.02 582.82 70.95 581.16 74.37 584.98 76.88 585.17 78.98 589.55 79.48 592.94 78.41 594.61 81.15 597.62 81.83 599.37 83.1 601.63 82.86 603.68 80.7 605.55 76.82 607.78 77.76 607.48 80.48 611.72 84.85 615.23 86.28 619.63 83.57 620.44 85.04 622.96 84.78 626.59 86.04 628.11 84.5 631.66 84.71 635 81.82 637.01 78.47 638.89 77.11 639.25 74.43 638.74 73.35 641.01 69.61 642.77 68.76 644.57 65.27 648.07 65.33 649.31 64.04 650.89 60.75 650.83 58.33 651.69 55.14 651.35 52.27 652.52 49.45 650.56 47.32 652.13 43.64 651.98 39.3 652.82 38.69 653.34 33.96 652.62 29.92 651.54 28.88 652.01 24.61 653.47 23.93 654.54 20.46 658.37 18.67 660.22 16.29 666.99 12.36 667.98 11.29 666.65 9.11 668.6 8.23 669.94 9.96 669.98 13.1 665.33 17.97 663.94 20.29 664.28 22.73 663.32 26.55 666.08 29.05 669.67 25.97 675.07 25.24 677.34 25.99 678.66 25 678.75 22.21 679.73 21.9 685.74 24.27 688.41 25.63 689.76 25.6 695.37 16.74 699.43 14.22 704.43 15.59 708.49 18.17 709.64 21.9 709.8 24.26 711.68 27.89 714.25 29.55 716.08 31.57 716.67 35.96 723.16 44.18 723.59 49.43 721.15 50.5 714.92 48.68 710.1 46.08 707.43 46.56 707.04 48.22 707.93 49.69 711.1 52 712.43 54.44 711.68 57.11 709.28 59.65 706.75 61.12 701.91 62.48 700.32 63.38 700.13 67.12 702.53 69.24 704.86 70.42 704.49 72.89 700.66 77.12 701.72 82.51 701.52 85.42 699.57 88.47 701.21 92.89 704.78 96.48 705.5 97.89 704.25 101.09 695.97 109.14 693.71 112.46 693.52 115.04 689.8 118.14 696.16 118.8 697.04 120.34 696.08 123.25 692.38 125.37 694.97 136.33 694.98 140.16 697.19 141.57 698.88 141.17 700.98 142.4 704.57 141.28 706.78 141.7 711.01 144.26 712.76 143.28 716.19 143.87 720.05 140.8 722.64 141.06 726.01 139.2 728.32 139.85 730.25 139.34 733.14 140.34 735.48 143.44 735.27 148.59 736.47 151.92 739.6 155.02 742.88 156.99 744.57 160 745.91 161.11 747.32 164.14 Z" id="37540340"/>
</g>
</svg>