<?xml version="1.0"?>
<svg xmlns="http://www.w3.org/2000/svg" version="1.2" baseProfile="tiny" width="800" height="1319" viewBox="0 0 800 1319" stroke-linecap="round" stroke-linejoin="round">
<g id="dong">
<path d="M 757.31 653.24 759.74 658.16 760.2 660.01 759.83 663.25 761.34 665.53 761.77 669.78 761.25 674.65 760.08 676.58 760.7 679.66 759.4 687.21 756.87 690.68 757.49 697.71 756.85 703.41 756.02 705.84 757.72 710.3 758.21 715 760.16 719.68 759.84 724.35 760.62 726.59 759.59 728.99 757.53 730.64 754.43 731.99 757 739.86 756.18 743.32 751.16 745.78 750.43 747.58 751.72 749.89 751.69 758.36 754.42 765.55 755.82 767.09 754.93 768.98 755.44 773.09 758.21 776.44 758.79 781.79 760.05 783.55 759.93 786.6 760.58 788.26 760.92 793.68 760.49 796.51 758.7 798.3 757.77 800.97 757.73 803.84 753.58 808.35 753.86 810.25 753.14 813.48 751.19 815.84 750.25 819.28 748.69 822.12 749.02 825.13 746.54 830.1 746.48 836.99 745.34 841.15 746.22 843.41 745.25 845.44 744.75 849.55 741.38 853.04 739.96 857.61 739.05 858.66 734.96 858.36 734.85 859.17 730.19 863.68 730.56 867.74 729.11 869.47 725.92 874.93 723.6 880.16 721.3 880.49 719.58 882.54 715.34 884.19 713.37 886.41 712.38 888.73 712.62 891.1 710.17 897.69 708.7 899.46 708.84 901.04 707.05 900.87 706.51 898.27 704.18 897.81 698.43 893.35 697.54 891.36 696.49 886.52 697.16 882.05 699.02 879.49 697.72 872.49 696.24 869.67 692.91 870.87 691.47 869.56 688.28 869.68 685.9 867.46 687.52 865.1 686.53 863.75 683.37 865.2 681.58 865.34 680.72 863.48 678.83 862.5 680.28 858.6 682.18 855.42 678.45 853.67 676.94 850.48 680.15 847.99 682.79 846.6 683.87 843.67 683.14 841.6 680.29 839.22 680.16 836.94 682.3 833.46 683.19 831.04 685.62 827.64 682.6 826.61 681.19 826.8 680.08 823.71 680.65 822.53 677.84 816.69 673.15 817.44 673.02 819.81 671.25 823.4 667.54 823.19 665.28 824.4 663.07 823.93 661.06 824.63 659.24 822.85 655.3 822.58 650.23 820.66 647.37 822.63 644.72 821.02 640.53 824.66 638.56 825.37 636.17 828.15 633.57 830 633.03 831.55 635.31 834.62 634.5 837.9 635.31 843.17 634.29 845.48 628.78 852.71 626.49 854.99 625.73 861.86 625.52 866.77 624.19 872.8 624.56 876.54 626.94 875.47 631.38 875.63 630.23 880.27 627.28 880.8 625.71 884.42 623.23 884.77 621.32 887.58 620.32 886.72 618.2 887.3 616.41 893.22 614.99 893.28 610.13 895.14 605.24 895.02 602.98 901.94 596.19 911.76 594.59 916.57 594.7 920.33 598.05 926.52 602.71 931.39 600.7 932.2 598.98 934.3 590.56 938.53 588.05 937.93 586.22 939.13 581.43 935.52 580.74 932.04 577.64 931.48 574.1 929.69 571.26 929.55 570.5 924.51 568.38 921.96 563.18 918.63 561.22 916.82 560.26 918.62 556.47 917.29 552.49 918.02 551.5 916.18 550.77 912.51 548.46 911.13 547.6 907.85 545.14 902.71 540.5 901.21 533.16 900.13 530.1 899.99 523.78 895.03 518.81 886.75 515.26 886.54 515.24 882.11 511.95 880.45 508.92 877.06 507.48 876.31 506.31 873 503.31 869 501.29 865.12 499.18 858.98 498.68 854.31 499.1 850.48 502.35 848.62 499.75 841.7 501.41 835.74 500.76 832.79 503.24 829.49 505.04 828.72 506.67 826.6 506.24 825.51 507.59 822.55 507 818.96 509.95 818.12 515.26 817.36 514.39 816.22 517 813.4 519.45 811.89 519.35 810.38 520.61 808.57 524.74 805.29 528.66 803.32 529.81 801.21 531.57 800.15 535.69 799.36 539.93 795.42 542.15 794.71 545.38 794.69 550.16 790.5 549.18 789.81 545.82 791.83 542.86 791.44 539.72 788.97 535.76 788.85 536.39 785.01 536.16 782.05 533.71 778.71 530.91 777.61 527.95 775.61 524.57 769.59 521.4 766.41 520.5 762.91 522.61 754.17 522.34 750.87 520.87 746.01 519.08 745.32 517.85 742.31 515.81 739.18 514.2 737.85 513.02 734.42 513.37 731.81 512.14 727.65 512.73 725.85 515.42 725.12 510.42 722.04 506.28 716.68 503.02 716.28 500.83 715.28 495.57 714.22 496.19 710.3 495.7 706.83 496.04 704.3 493.81 702.02 493.47 697.61 492.74 695.51 489.45 695.6 488.8 694.13 490.83 688.18 489.56 685.47 485.7 683.79 485.62 681.1 486.42 678.35 481.07 674.02 477 671.92 472.9 668.46 470.71 663.96 471.12 660.64 470.2 659.24 469.43 653.38 464.01 645.96 463.47 642.08 464.59 634.82 463.53 631.16 463.43 628.56 462.6 627.03 462.55 623.15 460.95 621.36 460.71 617.51 463.51 614.46 470.39 616.58 475.8 616.53 481.46 621.52 482.69 624.53 484.88 625.55 486.69 625.35 491.99 625.86 493.91 626.45 498.91 629.96 501.89 629.87 504.19 628.08 509.39 629.77 512.91 629.51 517.04 627.87 518.41 626.66 525.1 624.9 530.6 625.47 531.51 628.79 533.52 629.17 536.99 628.39 537.45 629.66 541.14 634.47 542.8 633.58 545.56 630.18 548.54 631 552.43 628.98 553.78 630.44 557.77 628.73 561.59 626.33 563.01 622.72 565.5 622.13 567.36 623.48 570.99 623.06 572.02 621.99 575.96 620.03 577.81 623.55 579.71 623.63 579.75 626.55 580.51 628.17 580.17 630.34 583.25 631.25 583.24 633.54 584.47 636.63 587.93 637.18 591.44 639.64 593.8 637.52 596.2 638.01 598.51 639.73 601.82 639.86 603.27 641.87 605.17 642.32 607.26 641.7 608.76 644.35 609.34 647.18 611.07 648.77 609.18 652.84 609.96 656.18 611.78 658.34 613.4 659.17 614.47 661.42 618.75 664.5 621.73 664.44 624.65 665.08 627.2 663.44 630.93 663.3 631.09 665.85 635.75 668.09 640.4 667.83 645.13 666.28 646.26 667.33 648.28 671.13 650.77 672.34 650.84 673.48 648.77 677.19 648.64 679.03 646.81 686.29 645.18 689.7 645.01 694.01 647.84 697.51 645.09 700.27 644.93 702.08 642.98 704.27 636.91 705.95 637.27 708.5 641.21 708.26 642.22 709.77 648.28 710.68 648.8 708.44 651.75 706.95 654.73 709.13 656.74 714.15 658.17 715.81 660.13 716.44 661.79 714.87 662.77 712.6 664.86 711.04 667.56 711.13 669.14 706.29 670.91 702.54 670.75 698.95 671.52 697.08 671.41 694.17 673.13 691.36 672.84 688.38 676.55 686.69 678.18 684.5 680.6 685.81 684.71 686.83 686.64 683.94 690.78 681.27 693.44 680.18 692.15 678.01 691.86 675.78 694.58 669.92 698.7 668.04 699.9 666.35 702.12 665.2 703.13 661.84 708.11 656.71 712.5 657.7 714.38 656.74 715.61 653.33 718.66 652.28 717.74 648.98 722.52 646.58 724.39 647.64 726.92 650.67 730.84 650.58 733.7 646.17 737.59 644.92 738.73 641.9 741.97 643.13 742.68 645.5 744.43 648.2 747.27 648.64 751.07 651.04 757.31 653.24 Z" id="37550110"/>
<path d="M 708.84 901.04 706.63 904.23 706.44 906.2 702.61 909.57 701.99 911.21 699.43 912.77 695.4 912.85 691.12 914.42 689.45 916.12 687.54 920.31 686.67 925.42 685.77 935.19 685.67 939.88 679.43 951.25 677.11 953.76 674.96 957.53 672.23 961.24 672.28 964.44 669.79 968.89 667.92 969.36 666.47 972.68 666.1 978.21 661.21 980.14 659.93 982.25 659.21 985.26 657.67 985.77 656.9 987.7 658.09 989.72 657.01 992.5 655.7 993.96 656.43 999.08 655.41 1000.87 657.74 1003.96 658.26 1007.12 655.52 1010.32 655.56 1013.9 649.09 1015.91 646.19 1019.96 641.96 1023.47 641.29 1029.04 639.12 1030.27 639.11 1033.86 640.05 1036.17 640.07 1038.65 641.38 1042.38 641.19 1046.06 642.48 1048.51 639.02 1052.1 638.2 1054.57 638.97 1055.82 638.07 1059.51 636.97 1060.28 637.34 1062.5 633.34 1064.85 630.17 1065.05 626.77 1070.07 625.95 1073.57 626.87 1079.99 626.06 1083.49 624.35 1086.86 624.22 1089.5 620.3 1089.39 618.96 1089.96 616.26 1093.97 612.49 1093.71 611.79 1092.67 611.39 1088.56 607.02 1087.86 605.89 1085.83 605.74 1081.95 603.64 1081.47 603.19 1076.39 600.61 1076.03 600.45 1071.1 596.45 1066.97 596.04 1063.83 594.31 1061.89 593.73 1055.47 592.2 1053.56 588.6 1054.77 586.73 1053.74 586.35 1051.37 583.1 1051.68 581.02 1049.87 580.75 1046.95 579.65 1044.53 575.7 1043.05 574.62 1040.92 571.41 1039.2 568.94 1034.81 565.08 1032.72 563.6 1027.24 562.16 1025.03 557.87 1025.35 556.56 1023.2 554.86 1022.4 551.23 1022.12 546.98 1020.26 544.62 1017.26 544.73 1014.32 543.9 1011.31 542.67 1010.56 539.62 1006.87 537.47 1005.18 537.03 1000 534.17 997.87 530.22 996.75 526.75 995.11 525.91 990.57 523.71 988.33 520.63 983.98 520.39 981.78 517.76 980.41 513.46 974.81 508.13 971.96 505.56 972.17 503.35 973.89 499.87 973.42 494.29 971.84 489.41 973.77 485.9 971.53 479.06 971.99 476.57 968.58 472.39 966.34 470.33 967.63 465.14 968.16 463.81 965.82 463.2 960.49 463.4 956.51 465.4 951.82 466.34 950.72 466.34 947.64 469.18 942.81 468.46 940.41 469.13 937.99 467.47 932.2 468.32 930.21 468.25 924.89 469.22 922.34 470.99 920.32 472.12 915.93 471.95 914.64 467.68 913.17 465.12 914.97 461.82 915.23 460.01 912.01 456.7 910.14 454.96 904.95 456.11 902.92 455.38 901.08 457.66 898.93 457.77 895.01 459.91 891.58 456.3 889.72 454.21 887.4 453.75 885.12 451.07 882.47 451.7 876.81 450.4 874.93 451.02 873.02 447.74 869.16 446.5 863.97 450.24 860.52 453.09 854.74 453.31 851.88 455.73 847.24 455.64 840.86 459.06 839.49 462.3 842.68 464.22 841.05 467.53 843.82 471.01 843.48 473.65 842.4 475.99 842.33 478.49 840.96 480.42 841.03 481.8 843.87 482.49 846.92 486.14 846.94 487.76 848.55 492.42 847.39 493.92 850.11 499.1 850.48 498.68 854.31 499.18 858.98 501.29 865.12 503.31 869 506.31 873 507.48 876.31 508.92 877.06 511.95 880.45 515.24 882.11 515.26 886.54 518.81 886.75 523.78 895.03 530.1 899.99 533.16 900.13 540.5 901.21 545.14 902.71 547.6 907.85 548.46 911.13 550.77 912.51 551.5 916.18 552.49 918.02 556.47 917.29 560.26 918.62 561.22 916.82 563.18 918.63 568.38 921.96 570.5 924.51 571.26 929.55 574.1 929.69 577.64 931.48 580.74 932.04 581.43 935.52 586.22 939.13 588.05 937.93 590.56 938.53 598.98 934.3 600.7 932.2 602.71 931.39 598.05 926.52 594.7 920.33 594.59 916.57 596.19 911.76 602.98 901.94 605.24 895.02 610.13 895.14 614.99 893.28 616.41 893.22 618.2 887.3 620.32 886.72 621.32 887.58 623.23 884.77 625.71 884.42 627.28 880.8 630.23 880.27 631.38 875.63 626.94 875.47 624.56 876.54 624.19 872.8 625.52 866.77 625.73 861.86 626.49 854.99 628.78 852.71 634.29 845.48 635.31 843.17 634.5 837.9 635.31 834.62 633.03 831.55 633.57 830 636.17 828.15 638.56 825.37 640.53 824.66 644.72 821.02 647.37 822.63 650.23 820.66 655.3 822.58 659.24 822.85 661.06 824.63 663.07 823.93 665.28 824.4 667.54 823.19 671.25 823.4 673.02 819.81 673.15 817.44 677.84 816.69 680.65 822.53 680.08 823.71 681.19 826.8 682.6 826.61 685.62 827.64 683.19 831.04 682.3 833.46 680.16 836.94 680.29 839.22 683.14 841.6 683.87 843.67 682.79 846.6 680.15 847.99 676.94 850.48 678.45 853.67 682.18 855.42 680.28 858.6 678.83 862.5 680.72 863.48 681.58 865.34 683.37 865.2 686.53 863.75 687.52 865.1 685.9 867.46 688.28 869.68 691.47 869.56 692.91 870.87 696.24 869.67 697.72 872.49 699.02 879.49 697.16 882.05 696.49 886.52 697.54 891.36 698.43 893.35 704.18 897.81 706.51 898.27 707.05 900.87 708.84 901.04 Z" id="37550310"/>
<path d="M 624.22 1089.5 625.18 1090.97 622.86 1092.23 622.29 1093.98 624.12 1096.22 621.09 1096.5 619.35 1099.65 619.19 1104.42 619.76 1108.12 621.51 1114.15 622.02 1118.77 623.75 1121.54 624.08 1124.78 625.19 1124.93 625.39 1128.52 626.83 1128.53 626.04 1133.52 628.06 1135.93 624.19 1141.48 625.93 1144.13 627 1150.57 625.54 1149.66 624.74 1144.92 623.1 1142.73 620.51 1144.62 619.65 1147.64 619.75 1149.64 620.94 1150.99 620.14 1154.55 621.12 1156.45 620.58 1159.37 621.69 1160.44 620.29 1162.15 621.27 1164.1 621.23 1167.14 622.41 1169.28 622.66 1172.27 621.33 1174.08 622.34 1176.62 619.97 1180.41 617.22 1182.64 616.28 1184.84 616.33 1187.3 617.73 1192.36 617.52 1193.69 620.05 1196.26 620.64 1198.92 620.31 1203.38 619.49 1205.23 620.94 1206.18 623.22 1210.26 622.54 1212.27 619.71 1214.13 620.13 1216.31 622.86 1216.56 621.78 1218.5 619.69 1219.37 619.26 1220.88 620.29 1223.4 621.98 1222.66 623.14 1226.12 620.5 1227.48 619.1 1229.86 621.13 1230.8 619.3 1232.7 620.89 1236.13 619.3 1238.79 616.21 1239.04 614.18 1240.05 612.43 1239.89 610.84 1242.41 610.44 1245.21 611.67 1254.52 614.09 1262.35 617.64 1270.26 619.34 1272.15 621.84 1272.67 620.33 1274.46 620.28 1276.42 621.41 1279.52 622.61 1280.7 625.51 1279.63 626.98 1280.8 628.14 1285.52 627.74 1288.7 626.59 1289.6 626.17 1291.9 623.84 1295.36 622.35 1296.11 620.17 1298.95 617 1301.77 616.45 1304.01 615.11 1305.79 615.83 1310.3 613 1310.64 606.5 1312.29 603.36 1311.93 598.92 1309.96 594.39 1310.09 590.56 1309.71 586.22 1307.54 584.05 1305.93 577.09 1302.51 570.91 1298.44 570.32 1300.11 566.77 1298.9 561.96 1298.24 562.24 1295.91 558.59 1295.49 556.27 1295.98 553.24 1299.24 552.06 1301.36 549.84 1303.24 545.74 1304.18 541.12 1303.75 540.2 1302.54 537.81 1304.7 535.46 1305.81 532.72 1304.85 528.57 1306.49 527.67 1310.49 528.2 1311.94 525.57 1312.29 520.93 1317.46 519.26 1318 516.3 1316.63 513.07 1313.7 511.15 1313.41 509.68 1310.96 507.03 1311.18 503.4 1314.73 502.89 1315.87 495.8 1313.84 492.32 1315.6 490.04 1315.41 488.95 1310.68 482.87 1309.76 480.45 1310.49 476.08 1310.05 471.61 1307.48 464.68 1306.52 457.04 1302.36 454.43 1303.73 450.88 1303.84 443.73 1311.1 441.77 1310.93 440.12 1312.02 437.53 1315.01 435.94 1315.43 430.57 1315.35 426.96 1315.96 424.66 1313.11 423.67 1310.42 420.98 1308.24 419.89 1306.23 416.54 1304.77 416.23 1297.31 411.95 1295.3 408.57 1294.62 406.49 1293.12 404.47 1293.18 401.84 1289.9 398.06 1288.54 397.53 1286.2 394.48 1281.61 391.43 1279.42 391.24 1276.18 389.15 1271.19 386.66 1267.13 381.37 1262.2 379.21 1257.04 383.32 1253.03 383.42 1250.92 382.3 1248.38 378.66 1232.51 376.18 1228.93 374.56 1224.17 374.93 1220.37 380.66 1218.37 386.45 1215.45 387.27 1211.17 389.1 1208.58 390.85 1208.54 392.22 1206.08 392.09 1192.35 395.05 1191.72 402.7 1188.07 404.96 1185.88 407.22 1182.7 408.39 1179.69 407.39 1174.96 407.71 1171.96 406.83 1168.16 406.44 1162.76 407.4 1160.51 406.78 1158.07 406.51 1151.64 409.11 1150.19 408.53 1142.17 405.88 1134.68 398.96 1127.55 392.41 1125.69 386.58 1121.62 384.52 1117.55 378.35 1110.04 375.64 1104.79 380.45 1101.54 386.13 1100.2 391.16 1098.15 394.47 1094.16 397.31 1092.83 398.79 1090.83 400.73 1090.59 401.35 1088.51 404.18 1088.16 407.88 1085.26 412.48 1085.63 412.62 1084.12 410.91 1078.93 411.97 1076.33 414.91 1076.84 419.23 1075.72 422.56 1073.19 425.76 1069.95 427.79 1063.8 430.15 1061.26 430.85 1058.6 433.14 1058.31 435.1 1059.74 437.91 1060.42 442.13 1063.82 446.16 1061.35 449.36 1061.97 450.56 1061.43 452.73 1055.53 454.31 1053.55 455.78 1053.54 457.33 1051.82 455.94 1046.75 456.33 1042.73 458.08 1039.93 456.57 1037.63 456.55 1036.22 453.87 1031.45 454.87 1028.25 455.32 1024.22 454.79 1020.51 457.43 1016.95 458.23 1012.97 457.09 1009.78 458.74 1004.94 460.05 999.85 459.63 996.98 460.37 995.18 459.1 993.72 459.31 988.45 457.5 984.6 457.53 982.04 459.09 979.65 460.91 978.95 463.32 973.3 463.67 970.01 465.14 968.16 470.33 967.63 472.39 966.34 476.57 968.58 479.06 971.99 485.9 971.53 489.41 973.77 494.29 971.84 499.87 973.42 503.35 973.89 505.56 972.17 508.13 971.96 513.46 974.81 517.76 980.41 520.39 981.78 520.63 983.98 523.71 988.33 525.91 990.57 526.75 995.11 530.22 996.75 534.17 997.87 537.03 1000 537.47 1005.18 539.62 1006.87 542.67 1010.56 543.9 1011.31 544.73 1014.32 544.62 1017.26 546.98 1020.26 551.23 1022.12 554.86 1022.4 556.56 1023.2 557.87 1025.35 562.16 1025.03 563.6 1027.24 565.08 1032.72 568.94 1034.81 571.41 1039.2 574.62 1040.92 575.7 1043.05 579.65 1044.53 580.75 1046.95 581.02 1049.87 583.1 1051.68 586.35 1051.37 586.73 1053.74 588.6 1054.77 592.2 1053.56 593.73 1055.47 594.31 1061.89 596.04 1063.83 596.45 1066.97 600.45 1071.1 600.61 1076.03 603.19 1076.39 603.64 1081.47 605.74 1081.95 605.89 1085.83 607.02 1087.86 611.39 1088.56 611.79 1092.67 612.49 1093.71 616.26 1093.97 618.96 1089.96 620.3 1089.39 624.22 1089.5 Z" id="37550320"/>
<path d="M 455.64 840.86 455.73 847.24 453.31 851.88 453.09 854.74 450.24 860.52 446.5 863.97 447.74 869.16 451.02 873.02 450.4 874.93 451.7 876.81 451.07 882.47 453.75 885.12 454.21 887.4 456.3 889.72 459.91 891.58 457.77 895.01 457.66 898.93 455.38 901.08 456.11 902.92 454.96 904.95 456.7 910.14 460.01 912.01 461.82 915.23 465.12 914.97 467.68 913.17 471.95 914.64 472.12 915.93 470.99 920.32 469.22 922.34 468.25 924.89 468.32 930.21 467.47 932.2 469.13 937.99 468.46 940.41 469.18 942.81 466.34 947.64 466.34 950.72 465.4 951.82 463.4 956.51 463.2 960.49 463.81 965.82 465.14 968.16 463.67 970.01 463.32 973.3 460.91 978.95 459.09 979.65 457.53 982.04 457.5 984.6 459.31 988.45 459.1 993.72 460.37 995.18 459.63 996.98 460.05 999.85 458.74 1004.94 457.09 1009.78 458.23 1012.97 457.43 1016.95 454.79 1020.51 455.32 1024.22 454.87 1028.25 453.87 1031.45 456.55 1036.22 456.57 1037.63 458.08 1039.93 456.33 1042.73 455.94 1046.75 457.33 1051.82 455.78 1053.54 454.31 1053.55 452.73 1055.53 450.56 1061.43 449.36 1061.97 446.16 1061.35 442.13 1063.82 437.91 1060.42 435.1 1059.74 433.14 1058.31 430.85 1058.6 430.15 1061.26 427.79 1063.8 425.76 1069.95 422.56 1073.19 419.23 1075.72 414.91 1076.84 411.97 1076.33 410.91 1078.93 412.62 1084.12 412.48 1085.63 407.88 1085.26 404.18 1088.16 401.35 1088.51 400.73 1090.59 398.79 1090.83 397.31 1092.83 394.47 1094.16 391.16 1098.15 386.13 1100.2 380.45 1101.54 375.64 1104.79 371.49 1104.84 370.41 1107.6 365.13 1112.58 364.16 1116.46 359.89 1117.95 356.7 1116.83 353.75 1118.51 347.51 1123.01 345.24 1123.86 342.46 1122.07 338.92 1120.7 336.39 1117.01 334.94 1116.52 332.63 1110.83 327.13 1114.32 326.24 1116.06 327.33 1117.09 330.17 1125.25 330.09 1130 327.45 1130.52 324.78 1134.03 325.14 1142.66 324.53 1146.66 315.78 1146.33 312.61 1143.71 308.08 1143.04 303.99 1140.2 296.46 1137.46 292.41 1139.36 289.89 1140.06 287.64 1143.31 285.51 1145.06 283.46 1139.78 281.14 1135.96 287.45 1125.77 287.83 1121.66 290.12 1119.34 289.72 1114.5 287.73 1112.86 287.1 1108.87 287.3 1104.16 289.79 1097.71 290.61 1092.97 288.59 1088.17 281.3 1083.39 276.71 1079.5 272.14 1072.78 266.67 1068.72 263.97 1068.05 261.93 1065.98 258.2 1065.91 255.19 1068.54 253.21 1069.26 246.28 1069.51 245.08 1071.27 239.36 1072.62 235.97 1071.02 231.28 1070.42 228.38 1070.59 225.82 1072.01 222.76 1072.58 219.25 1070.75 217.13 1068.84 210.78 1065.39 212.58 1059.72 211.27 1054.19 207.66 1050.58 202.66 1047.02 201.7 1045.35 201.47 1041.25 200.37 1038.86 201.95 1034.34 200.29 1032.56 200.07 1026.56 197.33 1023.31 191.59 1021.48 189.84 1020.33 189.85 1012.38 189.3 1008.27 192.96 999.89 192.73 994.65 194.3 992.5 193.77 988.57 192.47 985.07 192.87 982.77 194.56 979.14 197.2 977.38 201.5 972.08 206.15 965.78 210.75 963.84 218.09 956.15 216.98 949.37 215.07 945.06 210.62 944.74 205.92 941.08 202.33 941.65 201.13 938.03 197.45 934.23 199.43 930.16 200.56 929.66 203.03 919.75 202.68 917.29 206.99 913.35 211.1 911.93 213.08 907.27 217.08 904.22 215.78 899.62 212.56 895.39 213.29 891.44 215.37 887.95 214.44 884.36 217.08 880.41 219.35 880.13 222.41 878.38 223.61 876.92 227.55 876.76 234.04 873.16 234.9 872.23 238.83 870.54 242.18 870.87 242.87 869.18 244.8 869.19 250.6 872.08 251.36 870.66 254.56 870.22 255.05 871.92 259.05 872.24 259.97 870.44 264.93 865.86 268.5 868.48 271.59 869.34 273.63 867.95 278.73 867.28 282.31 866.26 288.82 865.37 290.47 867.15 294.01 868.81 296.44 864.97 297.35 862.72 300.13 861.6 305.17 861.38 303.99 855.65 303.07 854.59 302.75 851.53 305.11 848.46 308.34 846.92 313.36 845.37 316.12 844.94 320.17 840.21 319.64 837.9 321.38 835.7 322.84 830.7 324.1 830.51 328.35 825.61 331.42 825.05 332.41 826.56 335.78 827.69 339.61 828.29 341.36 829.41 343.58 825.77 345.12 825.88 347.74 823.22 351.88 823.86 358.52 825.44 360.1 830.65 361.49 832.78 363.24 832.8 366.88 830.98 368.25 829.53 371.32 827.76 379.62 825.37 389.35 824.62 389.29 829.06 388.77 830.2 389.3 835.33 392.34 841.01 394.56 841.47 398 836.87 400.43 834.27 403.89 834.94 404.3 832.8 410.4 833.3 415.78 835.21 419.84 839.66 421.54 840.88 423.43 840.65 425.31 841.81 429.36 841.01 434.29 840.73 438.05 842.85 440.93 840.64 441.66 838.71 444.69 839.04 447.15 837.71 450.24 837.71 453.04 839.95 455.64 840.86 Z" id="37550330"/>
<path d="M 261.14 532.87 264.6 533.59 268 536.4 269.01 538.43 273.78 544.41 275 544.79 276.78 548.29 278.42 550.39 279.84 549.31 285.96 547.86 287.07 548 291.69 546.55 295.2 547.2 298.18 546.45 301.69 546.39 303.37 544.78 307.1 544.28 309.59 542.15 315.08 538.9 318.24 537.91 322.65 538.42 325.38 541.78 326.03 538.44 328.13 538.48 330.03 539.9 331.95 539.85 336.63 537.87 337.49 536.34 340.54 535.22 340.8 531.93 344.33 531.97 350.06 530.67 353.19 531.91 354.03 533.31 356.66 533.11 358.33 535.56 362.67 537.18 363.82 539.94 363.79 542.44 367.23 547.07 370.46 547.35 371.02 548.97 373.35 550.03 374.57 552.99 379.54 556.52 383.34 560.08 383.14 562.23 385.2 562.68 386.51 564 390.7 563.84 391.23 565.06 394.64 567.43 396.24 567.46 400.11 570.61 400.09 573.55 402.14 575 402.73 576.58 409.66 580.55 409.01 581.99 408.41 587.95 412.63 590.82 414.88 591.3 416.82 592.96 419.42 593.4 420.54 595.86 422.37 595.7 426.46 599.09 427.69 603.61 427 605.11 430.99 605.98 432.71 608.1 437.46 610.33 438.53 614.82 440.87 617.5 443.12 619.04 448.58 620.05 452.22 619.07 456.62 620.53 460.95 621.36 462.55 623.15 462.6 627.03 463.43 628.56 463.53 631.16 464.59 634.82 463.47 642.08 464.01 645.96 469.43 653.38 470.2 659.24 471.12 660.64 470.71 663.96 472.9 668.46 477 671.92 481.07 674.02 486.42 678.35 485.62 681.1 485.7 683.79 489.56 685.47 490.83 688.18 488.8 694.13 489.45 695.6 492.74 695.51 493.47 697.61 493.81 702.02 496.04 704.3 495.7 706.83 496.19 710.3 495.57 714.22 500.83 715.28 503.02 716.28 506.28 716.68 510.42 722.04 515.42 725.12 512.73 725.85 512.14 727.65 513.37 731.81 513.02 734.42 514.2 737.85 515.81 739.18 517.85 742.31 519.08 745.32 520.87 746.01 522.34 750.87 522.61 754.17 520.5 762.91 521.4 766.41 524.57 769.59 527.95 775.61 530.91 777.61 533.71 778.71 536.16 782.05 536.39 785.01 535.76 788.85 539.72 788.97 542.86 791.44 545.82 791.83 549.18 789.81 550.16 790.5 545.38 794.69 542.15 794.71 539.93 795.42 535.69 799.36 531.57 800.15 529.81 801.21 528.66 803.32 524.74 805.29 520.61 808.57 519.35 810.38 519.45 811.89 517 813.4 514.39 816.22 515.26 817.36 509.95 818.12 507 818.96 507.59 822.55 506.24 825.51 506.67 826.6 505.04 828.72 503.24 829.49 500.76 832.79 501.41 835.74 499.75 841.7 502.35 848.62 499.1 850.48 493.92 850.11 492.42 847.39 487.76 848.55 486.14 846.94 482.49 846.92 481.8 843.87 480.42 841.03 478.49 840.96 475.99 842.33 473.65 842.4 471.01 843.48 467.53 843.82 464.22 841.05 462.3 842.68 459.06 839.49 455.64 840.86 453.04 839.95 450.24 837.71 447.15 837.71 444.69 839.04 441.66 838.71 440.93 840.64 438.05 842.85 434.29 840.73 429.36 841.01 425.31 841.81 423.43 840.65 421.54 840.88 419.84 839.66 415.78 835.21 410.4 833.3 404.3 832.8 403.89 834.94 400.43 834.27 398 836.87 394.56 841.47 392.34 841.01 389.3 835.33 388.77 830.2 389.29 829.06 389.35 824.62 379.62 825.37 371.32 827.76 368.25 829.53 366.88 830.98 363.24 832.8 361.49 832.78 360.1 830.65 358.52 825.44 351.88 823.86 347.74 823.22 345.12 825.88 343.58 825.77 341.36 829.41 339.61 828.29 335.78 827.69 332.41 826.56 331.42 825.05 328.35 825.61 324.1 830.51 322.84 830.7 321.38 835.7 319.64 837.9 320.17 840.21 316.12 844.94 313.36 845.37 308.34 846.92 305.11 848.46 302.75 851.53 303.07 854.59 303.99 855.65 305.17 861.38 300.13 861.6 297.35 862.72 296.44 864.97 294.01 868.81 290.47 867.15 288.82 865.37 282.31 866.26 278.73 867.28 273.63 867.95 271.59 869.34 268.5 868.48 264.93 865.86 259.97 870.44 259.05 872.24 255.05 871.92 254.56 870.22 251.36 870.66 250.6 872.08 244.8 869.19 242.87 869.18 242.18 870.87 238.83 870.54 234.9 872.23 234.04 873.16 227.55 876.76 223.61 876.92 222.41 878.38 219.35 880.13 217.08 880.41 214.44 884.36 215.37 887.95 213.29 891.44 212.56 895.39 207.69 894.35 205.8 892.47 203.31 892.8 200.73 889.25 198.51 888.61 194.75 884.14 192.88 882.85 187.37 880.76 185.94 876.58 183.82 873.16 182.49 870.06 177.92 869.53 174.49 867.87 170.23 868.06 171.11 865.5 172.93 863.75 174.42 860.96 173.37 858.53 173.2 847.75 170.08 838.56 169.41 835.24 170.53 832.86 169.03 830.96 166.04 825.06 161.94 823.25 159.76 817.67 158.06 815.73 154.16 813.21 151.04 808.45 149.06 806.36 147.36 800.37 144.49 798.91 140.64 799.02 137.32 795.58 135.25 796.27 129.97 796.81 128.66 798.17 123.11 799.46 120.4 802.47 117.83 804.27 113.57 805.54 110.65 808.25 106.8 807.1 108.45 804.19 107.55 801.32 104.75 799.5 100.93 798.87 98.75 797.54 95.91 797.92 92.07 796.71 89.74 796.49 83.98 793.65 78.7 791.49 74.47 787.61 70.47 784.62 67.5 783.5 65.92 780.81 64 778.89 63.46 773.5 60.53 769.21 60.61 766.99 59.17 761.71 57.48 758.72 58.9 755.11 58.31 751.51 59.14 749.25 59.32 744.52 56.02 740.63 55.83 739.3 51.74 733.31 48.55 731.77 44.21 727.25 37.53 721.51 37.51 716.73 38.84 714.69 38.65 712.84 40.23 707.98 37 702.95 34.7 700.53 32.62 699.78 31.43 694.48 30.2 691.69 27.47 690.93 25.64 687.02 23.98 685.1 20.1 683.47 17.43 680.15 15.54 679.47 15.3 677.62 12.87 675.22 11.93 672.11 12.55 668.09 10.13 663.52 10 660.73 7.34 658.81 6.96 657.14 5.31 655.8 5.63 654.01 2.08 649.28 2.06 646.69 1 644.85 3.5 643.11 9.49 641.48 8.33 636.82 7.17 634.51 8.15 630.34 8.29 627.03 6.36 623.45 8.3 620.56 8.06 617.48 9.85 616.56 11.31 614.65 11.14 608.34 13.12 603.39 14.65 600.92 16.18 595.69 14.01 593.13 9.66 589.07 9.43 578.12 9 575.46 10.99 571.4 12.55 571.05 15.58 568.57 24.32 566.97 28 564.87 30.73 562.72 31.33 560.02 32.76 559.82 35.11 557.47 38.57 557.96 39.56 556.02 44.15 557.36 51.4 555.58 53.33 554.36 57.75 553.38 60.79 549.75 62.53 548.97 65.32 546.23 68.04 545.31 69.5 546.05 72.83 544.38 74.43 545.31 76.78 545.13 77.81 546.49 80.84 546.78 85.63 545.1 88.34 546.03 87.11 550.27 88.13 552.39 93.12 551.97 96.51 553.99 98.35 560.27 101.83 563.43 103.3 568.34 106.35 570.93 108.75 566.62 108.41 564.97 112.15 562.1 110.97 559.81 117.13 559.08 118.86 561.19 122.75 561.96 125.09 563.77 126.82 563.36 128.96 565.36 133.94 566.07 136.73 565.33 140.58 565.83 142.38 568.13 144.25 565.33 144.97 562.41 149.39 560.57 150.94 562.29 154.01 563.42 160.43 567.6 163.33 567.45 164.41 568.61 166.48 568.83 172.09 567.21 172.61 568.76 174.62 570.73 177.97 571.77 179.83 578.15 183.96 583.03 184.77 586.23 183.38 588.42 184.06 591.81 182.14 593.35 183.93 596.86 184.26 598.9 185.86 599.93 186.68 598.05 189.6 596.75 193.55 597.67 193.37 598.92 200.91 603.68 203.15 602.38 202.49 600.45 203.88 597.97 200.83 593.98 200.45 592.41 206.82 585.08 204.85 582.87 204.6 580.91 202.48 580.04 203.64 576.2 201.58 574.98 202.76 573.37 200.95 570.63 197.65 569.33 196.43 563.43 197.69 562.17 198.05 558.92 197.15 555.53 195.96 554.22 197.34 552.18 199.52 550.57 199.82 546.12 201.51 543.66 201.97 540.4 204.74 534.69 203.75 531.36 203.94 524.4 204.85 521.96 209.21 523.92 213.07 524.12 213.49 525.29 216.07 527.14 219.94 528.96 221.39 527.29 223.85 527.27 227.17 524.5 230.47 528.39 233.79 533.96 239.59 533.79 241.3 537.54 245.15 536.4 250.44 539 253.86 536.49 257.68 536.34 261.14 532.87 Z" id="37550340"/>
<path d="M 774.61 514.21 776.15 514.34 778.7 513.06 781.37 512.67 784.56 514.42 787.48 512.66 788.02 514.36 790.71 517.26 794.92 517.19 795.43 518.36 790.27 518.36 787.06 516.91 785.62 519.64 784.73 524.52 781.81 525.05 782.38 526.99 785.07 528.95 789.1 528.27 787.78 524.43 789.82 522.72 796.74 522.99 798.8 525.12 799 526.65 797.11 532.13 793.76 534.24 791.58 536.28 786.38 534.65 784.1 536.49 782.33 538.81 781.36 541.69 781.51 546.39 780.78 548.7 781.06 553.14 781.91 554.27 781.94 558.94 780.77 561.15 782.17 563.85 779.24 572.57 775.91 577.57 775.78 579.42 777 583.15 776.76 584.81 778.5 585.64 776.79 590.46 774.87 591.66 774.01 593.37 771.7 595.28 770.53 593.98 766.29 595.4 766.06 597.94 763.9 601.34 762.47 600.09 761.06 600.75 758.88 605.11 754.4 605.49 753.32 607.39 751.37 608.07 749.59 611.3 747.88 615.76 750.33 619.62 749.15 621.7 750.37 626.89 748.61 627.51 747.6 629.68 750.01 632.77 753.4 630.94 753.61 632.05 750.68 633.31 749.59 634.56 751.02 637.69 753.66 638.56 751.46 640.6 752.98 644.25 755.41 645.32 756.37 647.26 756.33 650.71 757.31 653.24 751.07 651.04 747.27 648.64 744.43 648.2 742.68 645.5 741.97 643.13 738.73 641.9 737.59 644.92 733.7 646.17 730.84 650.58 726.92 650.67 724.39 647.64 722.52 646.58 717.74 648.98 718.66 652.28 715.61 653.33 714.38 656.74 712.5 657.7 708.11 656.71 703.13 661.84 702.12 665.2 699.9 666.35 698.7 668.04 694.58 669.92 691.86 675.78 692.15 678.01 693.44 680.18 690.78 681.27 686.64 683.94 684.71 686.83 680.6 685.81 678.18 684.5 676.55 686.69 672.84 688.38 673.13 691.36 671.41 694.17 671.52 697.08 670.75 698.95 670.91 702.54 669.14 706.29 667.56 711.13 664.86 711.04 662.77 712.6 661.79 714.87 660.13 716.44 658.17 715.81 656.74 714.15 654.73 709.13 651.75 706.95 648.8 708.44 648.28 710.68 642.22 709.77 641.21 708.26 637.27 708.5 636.91 705.95 642.98 704.27 644.93 702.08 645.09 700.27 647.84 697.51 645.01 694.01 645.18 689.7 646.81 686.29 648.64 679.03 648.77 677.19 650.84 673.48 650.77 672.34 648.28 671.13 646.26 667.33 645.13 666.28 640.4 667.83 635.75 668.09 631.09 665.85 630.93 663.3 627.2 663.44 624.65 665.08 621.73 664.44 618.75 664.5 614.47 661.42 613.4 659.17 611.78 658.34 609.96 656.18 609.18 652.84 611.07 648.77 609.34 647.18 608.76 644.35 607.26 641.7 605.17 642.32 603.27 641.87 601.82 639.86 598.51 639.73 596.2 638.01 593.8 637.52 591.44 639.64 587.93 637.18 584.47 636.63 583.24 633.54 583.25 631.25 580.17 630.34 580.51 628.17 579.75 626.55 579.71 623.63 577.81 623.55 575.96 620.03 572.02 621.99 570.99 623.06 567.36 623.48 565.5 622.13 563.01 622.72 561.59 626.33 557.77 628.73 553.78 630.44 552.43 628.98 548.54 631 545.56 630.18 542.8 633.58 541.14 634.47 537.45 629.66 536.99 628.39 533.52 629.17 531.51 628.79 530.6 625.47 525.1 624.9 518.41 626.66 517.04 627.87 512.91 629.51 509.39 629.77 504.19 628.08 501.89 629.87 498.91 629.96 493.91 626.45 491.99 625.86 486.69 625.35 484.88 625.55 482.69 624.53 481.46 621.52 475.8 616.53 470.39 616.58 463.51 614.46 460.71 617.51 460.95 621.36 456.62 620.53 452.22 619.07 448.58 620.05 443.12 619.04 440.87 617.5 438.53 614.82 437.46 610.33 432.71 608.1 430.99 605.98 427 605.11 427.69 603.61 426.46 599.09 422.37 595.7 420.54 595.86 419.42 593.4 416.82 592.96 414.88 591.3 412.63 590.82 408.41 587.95 409.01 581.99 409.66 580.55 402.73 576.58 402.14 575 400.09 573.55 400.11 570.61 396.24 567.46 394.64 567.43 391.23 565.06 390.7 563.84 386.51 564 385.2 562.68 383.14 562.23 383.34 560.08 379.54 556.52 374.57 552.99 373.35 550.03 371.02 548.97 370.46 547.35 367.23 547.07 363.79 542.44 363.82 539.94 362.67 537.18 364.76 533.66 367.16 533.34 373 531.52 375.96 529.53 378.8 528.31 381.21 524.24 382.97 522.59 384.98 522.86 386.17 525.32 385.89 527.72 384.67 530.72 386.83 533.59 391.23 534.51 394.45 532.01 395.73 530.19 398.2 532.12 398.23 533.42 399.93 535.2 402.83 534.27 411.45 535.77 419.59 539.26 422.21 538.65 423.32 539.9 428.49 536.39 428.94 535.66 433.86 534.84 435.43 533.01 440.25 534.38 442.57 534.2 446.22 534.95 449.73 532.94 454.59 532.61 457.89 529.67 460.23 529.52 463.3 531.66 466.99 535.68 471.19 535.58 476.35 534.55 478.53 534.64 480.87 536.59 481.27 539.32 482.34 541.15 491.33 544.31 494.55 544.21 498.4 545.95 499.83 545.34 505.45 547.17 508.67 546.97 513.66 543.14 514.1 544.14 518.62 543.02 522.29 542.94 522.61 540.26 520.85 537.43 521.41 533.34 523.2 532.22 523.78 528.15 527.17 526.88 528.48 527.11 531.75 522.95 533.26 526.3 533.22 529.65 535.05 531.42 537.51 531.32 540.09 532.7 543.94 532.19 546.11 530.33 546.19 527.85 545.16 524.29 545.25 522.11 547.43 517.21 547.5 514.46 548.87 512.57 551.2 512.95 552.78 507.65 552.29 505.48 557.34 502.51 555.87 499.94 554.46 494.34 554.72 488.91 554.35 486.97 555.42 485.9 556.43 480.51 557.46 479.39 561.3 478.9 562.97 476.81 564.43 471.52 564.7 467.68 566.95 465.1 566.9 468.63 567.75 470.18 570.91 472.53 577.36 474.01 578.74 473.84 579.91 476.07 582.15 477.16 584.52 479.92 586.57 480.2 589.13 484.6 591.6 486.69 594.43 488.15 599.98 490.03 600.8 491.62 603.14 491.88 605.92 490.09 608.29 490.75 611.22 486.82 615.03 486.63 618.35 488.92 619.85 489.3 621.99 488.01 624.22 490.4 626.88 489.89 628.88 488.11 631.12 488.37 631.71 489.58 634.43 491.32 637.19 489.9 639.07 487.73 640.53 488.19 641.38 490.76 643.17 491.46 646.62 491.48 649.92 486.4 652.23 480.48 658.05 480.05 661.8 480.99 666.49 483.34 671.52 482.23 674.65 482.73 676.11 485.07 677.77 490.56 680.39 491.54 683.52 489.18 686.71 489.02 687.4 491.74 690.25 492.57 694.73 486.74 697.86 489.12 700.03 488.64 701.48 485.49 701.15 482.82 703.18 481.88 706.51 484.67 709.16 485.37 711.04 482.81 712.45 479.69 715.12 479.02 716.19 477.7 718.75 478.25 719.42 476.66 721.92 474.65 725.82 474.78 726.14 473.23 728.77 473.37 730.51 470.54 733.72 469.23 735.01 466.36 736.72 466.36 739.54 474.26 741.31 475.8 741.65 479.13 739.18 481.26 740.49 484.38 741.4 489.23 744.01 495.18 747.11 496.1 748.17 497.06 753.96 498.91 757.06 499.01 757.8 503.23 761.15 507.57 761.67 508.97 764.73 509.07 764.26 512.07 767.6 514.15 774.61 514.21 Z" id="37550350"/>
<path d="M 774.61 514.21 767.6 514.15 764.26 512.07 764.73 509.07 761.67 508.97 761.15 507.57 757.8 503.23 757.06 499.01 753.96 498.91 748.17 497.06 747.11 496.1 744.01 495.18 741.4 489.23 740.49 484.38 739.18 481.26 741.65 479.13 741.31 475.8 739.54 474.26 736.72 466.36 735.01 466.36 733.72 469.23 730.51 470.54 728.77 473.37 726.14 473.23 725.82 474.78 721.92 474.65 719.42 476.66 718.75 478.25 716.19 477.7 715.12 479.02 712.45 479.69 711.04 482.81 709.16 485.37 706.51 484.67 703.18 481.88 701.15 482.82 701.48 485.49 700.03 488.64 697.86 489.12 694.73 486.74 690.25 492.57 687.4 491.74 686.71 489.02 683.52 489.18 680.39 491.54 677.77 490.56 676.11 485.07 674.65 482.73 671.52 482.23 666.49 483.34 661.8 480.99 658.05 480.05 652.23 480.48 649.92 486.4 646.62 491.48 643.17 491.46 641.38 490.76 640.53 488.19 639.07 487.73 637.19 489.9 634.43 491.32 631.71 489.58 631.12 488.37 628.88 488.11 626.88 489.89 624.22 490.4 621.99 488.01 619.85 489.3 618.35 488.92 615.03 486.63 611.22 486.82 608.29 490.75 605.92 490.09 603.14 491.88 600.8 491.62 599.98 490.03 594.43 488.15 591.6 486.69 589.13 484.6 586.57 480.2 584.52 479.92 582.15 477.16 579.91 476.07 578.74 473.84 577.36 474.01 570.91 472.53 567.75 470.18 566.9 468.63 566.95 465.1 564.7 467.68 564.43 471.52 562.97 476.81 561.3 478.9 557.46 479.39 556.43 480.51 555.42 485.9 554.35 486.97 554.72 488.91 554.46 494.34 555.87 499.94 557.34 502.51 552.29 505.48 552.78 507.65 551.2 512.95 548.87 512.57 547.5 514.46 547.43 517.21 545.25 522.11 545.16 524.29 546.19 527.85 546.11 530.33 543.94 532.19 540.09 532.7 537.51 531.32 535.05 531.42 533.22 529.65 533.26 526.3 531.75 522.95 528.48 527.11 527.17 526.88 523.78 528.15 523.2 532.22 521.41 533.34 520.85 537.43 522.61 540.26 522.29 542.94 518.62 543.02 514.1 544.14 513.66 543.14 508.67 546.97 505.45 547.17 499.83 545.34 498.4 545.95 494.55 544.21 491.33 544.31 482.34 541.15 481.27 539.32 480.87 536.59 478.53 534.64 476.35 534.55 471.19 535.58 466.99 535.68 463.3 531.66 460.23 529.52 457.89 529.67 454.59 532.61 449.73 532.94 446.22 534.95 442.57 534.2 440.25 534.38 435.43 533.01 433.86 534.84 428.94 535.66 428.49 536.39 423.32 539.9 422.21 538.65 419.59 539.26 411.45 535.77 402.83 534.27 399.93 535.2 398.23 533.42 398.2 532.12 395.73 530.19 394.45 532.01 391.23 534.51 386.83 533.59 384.67 530.72 385.89 527.72 386.17 525.32 384.98 522.86 382.97 522.59 381.21 524.24 378.8 528.31 375.96 529.53 373 531.52 367.16 533.34 364.76 533.66 362.67 537.18 358.33 535.56 356.66 533.11 354.03 533.31 353.19 531.91 350.06 530.67 344.33 531.97 340.8 531.93 340.54 535.22 337.49 536.34 336.63 537.87 331.95 539.85 330.03 539.9 328.13 538.48 326.03 538.44 325.38 541.78 322.65 538.42 318.24 537.91 315.08 538.9 309.59 542.15 307.1 544.28 303.37 544.78 301.69 546.39 298.18 546.45 295.2 547.2 291.69 546.55 287.07 548 285.96 547.86 279.84 549.31 278.42 550.39 276.78 548.29 275 544.79 273.78 544.41 269.01 538.43 268 536.4 264.6 533.59 261.14 532.87 259.71 529.4 258 526.66 256.58 521.07 253.63 512.73 250.12 510.47 248.59 506.12 247.75 502.28 241.73 501.02 238.01 498.54 238.13 495.6 240.54 493.1 240.96 490.71 238.5 489.71 237.47 483.52 237.41 479.09 236.71 476.67 235.26 474.91 233.02 473.62 229.75 467.82 227.61 460.78 227.45 457.81 228.41 453.6 229.75 451.79 230.27 449.4 229.99 446.84 231.1 444.47 230.08 441.1 228 439 228.66 435.11 235.33 428.21 236.34 425.47 239.99 423.9 243.13 421.64 242.73 418.49 243.03 414.54 242.11 412.55 242.42 408.92 239.49 406.17 238.61 404.25 240.16 398.97 239.61 395.85 237.57 392.06 237.65 390.8 240.48 388.08 240.33 384.2 241.17 381.37 239.48 378.05 240.74 375.9 241.37 372.75 243.57 371.76 248.82 373.55 252.42 371.73 255.12 371.74 261.07 371.38 267.85 370.48 279.28 369.54 285.41 370.26 292.21 373.71 294.86 375.95 297.69 377.15 299.67 379.31 302.37 378.66 307.2 380.37 309.85 380.04 313.27 380.78 316.17 383.18 319.88 385.48 321.73 385.07 324.82 387.26 325.87 387.12 328.12 384.68 332.82 382.27 332.89 387.09 336.43 387.93 339.84 387.1 342.14 389.99 342.92 394.73 338.5 397.78 336.89 400.07 334.2 401.58 334.64 403.92 332.9 405.89 330.88 409.65 329.86 410.5 331.04 415.12 332.34 415.62 331.18 418.62 329.36 421.52 330.87 424.24 327.99 427.87 327.36 432.45 327.4 436.99 328.43 438.7 326.71 442.26 324.06 444.65 324.29 447.02 326.95 450.86 328.23 451.66 330.41 455.4 330.44 456.79 338.93 459.22 341.76 460.93 343.98 461.24 343.89 465.66 346.72 466.78 350.76 469.95 354.9 469.54 360.91 472.78 363.64 471.95 365.71 469.37 370.28 469.75 373.18 471.93 376.38 471.67 378.25 475.33 379.83 476 385.41 475.81 386.99 473.47 391.31 472.14 392 471.05 394.56 470.5 398.51 470.44 400.92 469.44 405.89 464.86 405.9 462.23 406.9 459.82 409.77 457.76 410.22 456.72 408.04 454.56 408.56 447.65 409.58 444.46 413.26 443.05 415.42 441.47 415.06 438.34 416.52 435.19 419.6 431.45 422.18 432.18 423.27 434.29 428.51 434.09 429.42 434.73 434.61 435.97 437.84 438.23 440.93 439.35 442.92 438.29 445.1 441.19 450.02 440.53 451.27 439 455.35 438.09 457 436.42 456.87 432.61 458.59 430.45 466.02 429.15 467.56 429.94 470.49 430.15 475.9 431.69 478.4 431.64 480.59 433.57 484.22 433.96 489.89 437.72 494.19 438.81 497.14 441.69 499.7 443.2 504.87 443.27 505.75 444.17 509.07 444.18 510.14 443.18 515.55 443.26 516.85 442.8 518.54 440.27 519.9 441.13 524.93 440.46 525.84 439.33 530.64 437.76 535.02 438.37 537.65 437.98 542.64 432.72 541.94 430.94 544.55 428.66 548.52 426.16 549.91 419.45 547.77 419.24 547.65 416.01 550.19 414.84 555.77 413.15 561.11 411.08 568.21 409.2 572.86 402.76 576.82 401.48 579.76 402.14 581.6 404.32 586.58 403.81 588.76 402.49 591.26 399.84 594.09 399.31 600.68 401.43 604.83 403.56 609.33 407.5 612.78 409.54 619.66 413.7 626.42 415.96 633.11 417.26 638.83 417.13 643.96 415.22 646.41 413.43 649.82 410.16 651.76 406.8 653.6 404.65 656.29 402.86 657.49 399.73 657.87 395.66 659.72 392.73 663.04 389.86 665.6 386.07 666.49 383.75 674.39 376.17 677.33 374.13 680.73 373.65 685.18 375.67 690.07 378.64 695.24 380.97 701.94 381.18 704.9 379.18 706.6 375.28 707.54 371.19 707.52 366.53 708.28 356.8 708.79 354.09 710.74 351.09 716.85 344.65 723.36 341.12 729.32 346.65 733.16 347.6 736.24 352.17 735.14 353.86 737.18 356.61 737.86 358.86 740.58 358.05 740.93 360.34 744.04 360.89 749.65 363.98 749.16 365.27 745.57 362.61 742.32 361.44 741.03 365.08 737.95 366.86 738.62 368.71 742.27 368.31 746.54 366.24 745.19 368.75 747.83 370.88 749.21 371.2 751.67 373.82 754.09 374.74 755.61 378.12 757.79 380.95 759.04 380.76 759.86 383.99 762.02 384.58 760.99 387.24 762.01 389.32 762.37 392.28 763.76 394.6 760.4 394.6 760.12 397.29 761.13 400.1 761.82 404.12 759.32 406.92 759.14 408.68 760.33 411.51 763.1 413.23 763.33 415.3 761.7 417.98 762.31 421.49 759.59 423.58 760.34 429.13 761.34 430.82 759.82 435.59 762.25 436.93 761.21 439.66 762.31 442.11 762.11 445.42 763 447.58 761.36 448.64 762.33 450.64 763.84 451.14 762.72 455.82 764.82 457.91 764.71 459.03 767.21 464.89 767.92 469.37 767.19 472.52 767.76 476.32 767.35 479.57 767.77 482.21 771.56 484.61 772.62 486.57 772.03 488.05 775.04 489.75 773.95 492.73 775.58 495.7 776.32 501.25 774.3 505.13 775.17 508.09 774.44 511.27 774.61 514.21 Z" id="37550360"/>
<path d="M 638.59 19.72 636.74 21.99 637.06 25.47 636.26 28.56 637.59 32.89 643.09 35.32 646.67 32.73 650.96 33.93 654.16 37.54 657.48 37.76 659.69 39.59 661.67 39.07 664.92 39.65 666.1 42.46 669.03 45.8 673.6 49.03 674.53 52.59 675.56 53.82 675.34 56.63 676.2 59.69 679.78 60.31 681 58.79 683.8 60.37 685.91 60.18 687.95 61.54 690.09 61.52 692.05 63.79 693.54 66.52 694.75 67.31 698.23 66.83 697.34 70.54 695.35 74.67 696.96 80.52 699.35 83.56 700.73 86.58 703.27 86.34 704.53 88.32 709.16 89.56 709.29 91.43 707.23 94.02 706.56 96.54 702.96 96.72 696.86 100.8 694.78 104.01 693.32 114.08 694.44 127.75 694.22 132.78 691.1 138.08 687.63 146.65 686.77 150.55 684.29 150.77 683.49 154.18 684.17 155.48 682.27 157.37 681.66 160.35 681.87 172.27 683.25 178.68 684.24 184.9 685.17 187.26 686.89 195.25 687.99 197.57 689.03 202.87 690.9 208.65 692.78 211.04 692.84 213.47 693.84 216.05 693.51 217.55 694.3 220.09 693.22 221.7 694.19 223.5 692.71 226.93 692.94 229.18 690.99 232.7 688.57 232.76 688.77 236.85 686.69 236.14 684.48 236.74 681.69 239.32 679.65 244.1 678.91 247.96 679.82 256.59 681.71 265.09 683.95 272.2 685.16 277.15 686.23 278.57 686.86 282.73 689.22 288.34 691.56 292.7 693.3 296.78 694.96 298.84 695.9 302.15 698.55 307.16 700.61 309.2 700.8 310.92 706.2 318.93 708.46 321.72 711.16 325.99 719.28 335.69 723.36 341.12 716.85 344.65 710.74 351.09 708.79 354.09 708.28 356.8 707.52 366.53 707.54 371.19 706.6 375.28 704.9 379.18 701.94 381.18 695.24 380.97 690.07 378.64 685.18 375.67 680.73 373.65 677.33 374.13 674.39 376.17 666.49 383.75 665.6 386.07 663.04 389.86 659.72 392.73 657.87 395.66 657.49 399.73 656.29 402.86 653.6 404.65 651.76 406.8 649.82 410.16 646.41 413.43 643.96 415.22 638.83 417.13 633.11 417.26 626.42 415.96 619.66 413.7 612.78 409.54 615.48 408.49 615.34 405.87 613.09 401.14 609.01 396.6 605.48 390.74 601.41 389.79 599.13 388.54 598.27 385.69 597.85 381.91 596.12 380.01 590.96 375.63 589.94 373.72 588.25 373.26 584.92 373.59 584.08 372.02 586.01 369.09 585.34 366.87 581.34 361.81 581.84 358.17 581.52 354.72 577.77 354.28 577.16 350.38 574.23 348.11 573.45 340.16 571.69 337.7 570.42 331.85 568.89 329.44 560.73 325.61 561.76 322.46 558.45 319.86 557.57 318.28 555.35 318.06 551.76 316.68 546.61 318.38 543.9 319.83 541.24 317.79 535.54 318.4 532.73 317.42 533.58 309.31 530.8 308.54 529.29 305.44 528.31 299.01 526.82 297.3 525.5 292.34 522.75 289 521.26 288.09 521.3 283.98 520.32 282.54 521.31 277.26 523.21 273.93 523.2 272.82 519.6 269.69 520.92 267.85 521.28 265.41 526.85 262.15 525.33 255.35 525.72 253.96 522.1 249.21 521.45 246.61 521.76 243.67 520.53 242.07 520.72 238.23 520.21 236.48 520.07 228.93 519.44 228 519.73 223.59 518.08 218.61 516.55 217.52 514.2 213.94 514.66 212.33 513.84 208.94 514.03 207.09 516.33 203.46 518.35 203.17 521.83 201.02 523.26 201.07 522.88 197.13 523.59 195.13 523.12 192.88 523.41 189.59 524.57 188.36 525.45 181.89 525.31 178.67 529.64 170.8 528.23 168.48 523.55 165.75 522.39 159.84 523.3 157.51 521.88 154.38 519.42 150.38 522.84 139.91 530.66 134.9 531.24 132.55 534.92 128.89 534.58 122.96 537.93 122.29 532.68 113.61 531.33 109.83 531.13 107.76 529.28 105.18 525.84 103.76 521.92 101.49 521.46 100.32 523.07 94.78 526.48 89.19 525.8 80.22 525.05 78.69 526.71 72.84 528.52 69.8 531.19 68.35 533.56 64.99 535.57 64.22 537.64 59.26 539.08 57.63 540.04 53.41 541.67 48.89 545.87 42.83 546.47 38.62 548.42 38.9 555.07 37.02 556.66 33.84 558.7 32.21 559.47 29.95 564.19 30.3 566.26 31.21 570.28 29.97 573.6 31.92 576.01 31.57 578.54 28.17 578.76 24.43 584.44 21.12 586.5 19.55 590.73 19.65 592.58 16.45 594.38 14.43 603.35 9.92 605.08 12.07 605.47 13.93 610.14 17.22 610.81 19.12 617.63 23.59 620.33 20.75 623.91 19.98 626.67 17.58 629.44 17.08 631.71 17.71 635.88 17.95 638.59 19.72 Z" id="37550370"/>
<path d="M 528.52 69.8 526.71 72.84 525.05 78.69 525.8 80.22 526.48 89.19 523.07 94.78 521.46 100.32 521.92 101.49 525.84 103.76 529.28 105.18 531.13 107.76 531.33 109.83 532.68 113.61 537.93 122.29 534.58 122.96 534.92 128.89 531.24 132.55 530.66 134.9 522.84 139.91 519.42 150.38 521.88 154.38 523.3 157.51 522.39 159.84 523.55 165.75 528.23 168.48 529.64 170.8 525.31 178.67 525.45 181.89 524.57 188.36 523.41 189.59 523.12 192.88 523.59 195.13 522.88 197.13 523.26 201.07 521.83 201.02 518.35 203.17 516.33 203.46 514.03 207.09 513.84 208.94 514.66 212.33 514.2 213.94 516.55 217.52 518.08 218.61 519.73 223.59 519.44 228 520.07 228.93 520.21 236.48 520.72 238.23 520.53 242.07 521.76 243.67 521.45 246.61 522.1 249.21 525.72 253.96 525.33 255.35 526.85 262.15 521.28 265.41 520.92 267.85 519.6 269.69 523.2 272.82 523.21 273.93 521.31 277.26 520.32 282.54 521.3 283.98 521.26 288.09 522.75 289 525.5 292.34 526.82 297.3 528.31 299.01 529.29 305.44 530.8 308.54 533.58 309.31 532.73 317.42 535.54 318.4 541.24 317.79 543.9 319.83 546.61 318.38 551.76 316.68 555.35 318.06 557.57 318.28 558.45 319.86 561.76 322.46 560.73 325.61 568.89 329.44 570.42 331.85 571.69 337.7 573.45 340.16 574.23 348.11 577.16 350.38 577.77 354.28 581.52 354.72 581.84 358.17 581.34 361.81 585.34 366.87 586.01 369.09 584.08 372.02 584.92 373.59 588.25 373.26 589.94 373.72 590.96 375.63 596.12 380.01 597.85 381.91 598.27 385.69 599.13 388.54 601.41 389.79 605.48 390.74 609.01 396.6 613.09 401.14 615.34 405.87 615.48 408.49 612.78 409.54 609.33 407.5 604.83 403.56 600.68 401.43 594.09 399.31 591.26 399.84 588.76 402.49 586.58 403.81 581.6 404.32 579.76 402.14 576.82 401.48 572.86 402.76 568.21 409.2 561.11 411.08 555.77 413.15 550.19 414.84 547.65 416.01 547.77 419.24 549.91 419.45 548.52 426.16 544.55 428.66 541.94 430.94 542.64 432.72 537.65 437.98 535.02 438.37 530.64 437.76 525.84 439.33 524.93 440.46 519.9 441.13 518.54 440.27 516.85 442.8 515.55 443.26 510.14 443.18 509.07 444.18 505.75 444.17 504.87 443.27 499.7 443.2 497.14 441.69 494.19 438.81 489.89 437.72 484.22 433.96 480.59 433.57 478.4 431.64 475.9 431.69 470.49 430.15 467.56 429.94 466.02 429.15 458.59 430.45 456.87 432.61 457 436.42 455.35 438.09 451.27 439 450.02 440.53 445.1 441.19 442.92 438.29 440.93 439.35 437.84 438.23 434.61 435.97 429.42 434.73 428.51 434.09 423.27 434.29 422.18 432.18 419.6 431.45 416.52 435.19 415.06 438.34 415.42 441.47 413.26 443.05 409.58 444.46 408.56 447.65 408.04 454.56 410.22 456.72 409.77 457.76 406.9 459.82 405.9 462.23 405.89 464.86 400.92 469.44 398.51 470.44 394.56 470.5 392 471.05 391.31 472.14 386.99 473.47 385.41 475.81 379.83 476 378.25 475.33 376.38 471.67 373.18 471.93 370.28 469.75 365.71 469.37 363.64 471.95 360.91 472.78 354.9 469.54 350.76 469.95 346.72 466.78 343.89 465.66 343.98 461.24 341.76 460.93 338.93 459.22 330.44 456.79 330.41 455.4 328.23 451.66 326.95 450.86 324.29 447.02 324.06 444.65 326.71 442.26 328.43 438.7 327.4 436.99 327.36 432.45 327.99 427.87 330.87 424.24 329.36 421.52 331.18 418.62 332.34 415.62 331.04 415.12 329.86 410.5 330.88 409.65 332.9 405.89 334.64 403.92 334.2 401.58 336.89 400.07 338.5 397.78 342.92 394.73 342.14 389.99 339.84 387.1 336.43 387.93 332.89 387.09 332.82 382.27 328.12 384.68 325.87 387.12 324.82 387.26 321.73 385.07 319.88 385.48 316.17 383.18 313.27 380.78 309.85 380.04 307.2 380.37 302.37 378.66 299.67 379.31 297.69 377.15 294.86 375.95 292.21 373.71 285.41 370.26 279.28 369.54 267.85 370.48 261.07 371.38 255.12 371.74 254.97 367.96 253.07 361.76 246.26 358.35 246.31 356.84 244.2 350.05 239.84 347.97 236.93 347.7 233.23 348.6 227.45 348.06 226.6 343.95 226.76 338.57 223.67 336.41 218.51 330.64 218.34 328.5 216.22 324.7 216.49 320.44 212.7 315.79 213.11 309.64 211.22 302.26 211.37 297.97 208.46 295.17 205.58 294.05 204.08 291.59 197.55 289.75 195.87 289.88 191.25 291.6 188.77 289.61 184.89 291.02 182.36 288.87 180.9 286.32 175.23 283.48 175.04 281.28 173.7 278.47 175.51 271.82 177.83 266.14 179.7 263.34 179.85 260.83 183.13 257.58 185.83 257.82 189.21 254.42 191.55 251.04 190.26 246.18 187.76 243.99 188.66 239.06 188.53 234.46 187.59 230.77 189.8 229.95 193.32 232.68 197.77 231.86 199.73 229.34 203.97 227.49 209.7 229.12 210.59 225.33 208.96 222.75 209.27 218.88 207.78 215.78 208.38 208.55 208.96 205.52 206.38 201.41 204.33 194.92 206.06 188.87 206.53 181.31 207.63 177.07 214.33 176.24 222.75 175.57 226.1 172.88 226.62 171.09 229.51 167.99 230.17 162.86 227.65 158.88 225.86 157.8 224.62 154.67 226.74 151.24 229.36 149.24 231.78 148.23 230.38 139.59 228.69 137.34 228.07 133.11 229.22 131.87 227.07 126.92 223.44 125.63 223.96 123.65 223.08 122.19 223.9 118.67 222.99 116.51 218.68 115.67 217.94 114.99 217.93 107.21 216.78 104.84 213.78 101.98 208.19 102.36 205.91 100.53 207.34 96.16 204.95 92.93 205.24 90.55 203.57 88.73 203.59 82.86 205.49 81.11 206.21 75.81 204.99 73.22 204.83 69.4 205.99 65.38 208.28 62.55 210.17 54.03 211.36 51.74 209.96 50.55 208.54 47.47 209.35 46.58 209.83 43.02 211.78 42.45 213.97 39.41 215.38 38.37 218.54 39.25 220.94 38.98 222.92 36.55 227.11 35.36 229.27 32.93 229.71 31.11 231.84 32.38 234.33 30.47 237.5 29.08 239.74 26.04 242.8 24.9 244.49 25.9 247.76 24.36 249.33 21.65 253.96 20.65 254.74 17.73 257.13 17.71 261.16 14.16 261.74 11.82 264.21 10.48 266.16 11.73 269.65 12.2 273.2 15.34 275.96 15.23 278.76 17.41 281.48 18.59 281.49 16.23 283.58 13.62 287.59 13.94 290.2 10.41 294.2 7.49 295.43 2.44 298.93 1 303.86 1.47 307.31 1.8 310.55 3 313.68 5.5 316.51 8.61 320.69 11.28 323.56 11.86 327.06 10.99 328.63 9.04 332.5 9.24 333.87 12.48 340.74 17.69 347.06 18.81 349.09 18.54 351.4 16.28 353.86 15.01 358.62 13.38 360.31 12.03 365.99 12.15 367.85 9.34 370.71 7.41 374.55 11.45 378.52 12.72 380.46 14.91 381.94 14.33 388.76 16.13 393.15 16.26 397.09 18.43 402.57 16.29 407.2 15.72 410.69 16.76 412.47 16.22 427.06 23.05 431.29 24.59 435.73 23.03 437.76 22.97 439.9 21.1 445.07 20.39 448.79 18.9 450.79 18.96 456.64 20.57 458.23 22.5 461.02 27.63 462.18 31.96 463.46 33.11 463.14 36.14 464.3 37.08 471.21 38.5 473.44 39.69 477.03 40.08 488.05 42.85 490.71 44.32 492.13 46.49 495.48 47.63 500.17 46.8 503.49 49.77 507.09 49.69 508.06 51.07 511.5 50.56 514.13 51.3 516.29 54.05 518.25 54.12 519.92 57.36 521.57 58.09 522.93 60.35 524.05 64.78 528.52 69.8 Z" id="37550380"/>
</g>
</svg>