<?xml version="1.0"?>
<svg xmlns="http://www.w3.org/2000/svg" version="1.2" baseProfile="tiny" width="800" height="533" viewBox="0 0 800 533" stroke-linecap="round" stroke-linejoin="round">
<g id="dong">
<path d="M 799 367.25 797.79 369.88 797.59 371.74 796.4 375.22 795.57 380.52 793.92 385.29 792.32 388.19 791.21 389.06 789.96 392.3 789.83 393.64 785.91 396.9 785 399.3 784.47 401.45 782.22 402.33 778.72 400.3 777.76 399.46 774.4 398.76 772.12 397.61 768.44 394.4 765.63 395.01 763.63 396.58 759.39 397.27 758.51 399.05 756.41 405.26 755.53 407.33 753.66 409.02 750.56 410.95 747.36 412.69 742.86 414.64 737.43 419.32 734.13 422.68 732.46 425.43 732.08 426.96 728.59 431.21 727.25 431.74 725.44 433.13 724 435.47 719.5 438.05 718.65 439.1 715.34 440.22 714.11 441.12 713.58 442.57 711.18 443.47 708.36 446.83 706.41 446.76 705.52 447.2 704.4 446.93 702.07 447.74 700.01 446.78 697.5 446.22 694.85 442.72 691.28 442.02 689.73 440.92 688.31 440.56 686.81 439.14 684.03 438.48 682.48 438.52 681.37 437.69 678.27 437.39 675.35 436.32 672.35 436.26 668.43 435.5 668.05 433.4 669.19 432.16 669.27 428.83 668.84 426.14 663.07 421.31 660.86 420.85 657.77 417.84 656.9 417.6 657.14 414.33 654.82 412.47 653.05 408.45 646.09 405.47 637.45 399.52 636.82 399.41 635.28 392.59 636.88 390.43 637.75 388.49 639 386.6 638.6 385.46 639.71 383.9 640.82 379.14 640.79 375.67 642.06 373.34 644.16 371.09 644.61 369.4 644.88 366.58 645.78 363.52 647.84 363 649.35 359.6 649.01 357.4 649.3 355.77 648.33 353.1 649.39 350.25 649.47 347.86 649.84 346.01 649.59 343.31 649 342.39 647.28 341.31 646.39 340.33 645.14 336.52 642.56 335.38 640.56 333.61 639.46 332.25 637.7 331.61 637.21 330.67 635.35 329.03 635.17 328.11 631.81 325.18 631.36 322.9 630.73 321.39 630.91 317.98 630.72 315.91 629.8 313.48 631.08 310.99 631.11 308.05 632.94 305.65 632.33 298.77 631.38 297.68 631.28 295.87 630.59 293.53 630.62 290.47 631.57 288.72 630.55 286.96 630.56 285.42 631.24 283.87 630.62 280.77 628.44 278.49 626.98 275.32 626.39 272.35 627.03 271.25 627.66 266.44 627.25 264.92 627.83 263.07 627.19 259.88 625.25 260.13 624.3 260.72 622.48 260.44 621.45 261.46 619.79 262.09 618.43 262.03 617.63 262.87 614.32 263.98 608.61 264.13 606.34 263.7 603.47 261.75 601.27 260.6 596.43 265.5 594.34 262.83 595.61 261.66 589.25 254.24 587.71 252.75 587.18 251.79 585.47 251.39 582.72 249.93 581.29 250.18 579.32 249.19 577.7 247.19 573.47 244.85 574.8 242.28 575.59 241.56 578.25 237.84 579.9 238.68 580.97 238.62 583.18 236.01 583.93 235.67 582.85 234 583.85 231.69 585.04 227.03 586.38 224.52 587.07 223.93 586.97 222.27 587.43 220.66 588.66 218.92 588.84 215.95 589.94 212.32 592.01 208 591.41 207.45 590.31 205.28 589.99 203.29 590.77 200.99 592.74 200.77 594.43 199.97 595.99 198.67 597.58 194.54 597.69 192.87 601.6 192.15 603.25 192.25 605.79 190.45 607.31 188.61 610.31 187.13 612.62 186.68 611.87 185.53 612.98 181.59 612.51 178.84 610.86 175.29 610.7 174.17 611.1 172.33 615.82 170.79 618.14 167.65 617.9 166.14 617.72 164.47 621.12 162.48 622.44 161.18 624.14 155.78 623.75 154.06 625.41 151.79 627.18 148.81 628.71 146.72 628.68 146.21 630.61 143.06 631.03 141.33 630.17 139.27 629.99 137.65 632.59 135.33 632.53 132.7 633.16 131.4 636.62 125.39 639.21 122.89 637.7 118.92 636.13 117.23 635.92 115.64 637.5 110.72 639.34 110.4 640.09 109.38 642.9 106.68 644.94 102.19 645.91 92.07 647.16 88.13 649.68 86.13 650.92 86.75 653.42 86.92 654.18 83.85 654.33 81.04 654.83 79.57 653.73 77.59 652.87 74.42 652.07 72.39 650.52 67.18 651.27 63.78 653.85 59.95 655.42 56.77 656.53 53.02 656.15 49.83 656.23 48.62 658.42 41.18 661.94 37.64 662.59 36.53 662.11 33.38 661.76 32.71 664.14 29.66 666.47 27.94 667.61 24.32 671.01 23.78 673.77 23.07 674.96 22.4 679.64 24.2 681.75 23.94 682.45 25.11 683.99 25.8 684.79 27.12 685.73 27.61 688.04 26.58 691.88 26.69 693.85 25.83 696.4 25.67 697.43 24.67 700.77 23.49 701.37 22.47 700.86 18.75 701.9 17.45 704.59 17.66 706.32 17.01 709.07 14.57 710.23 12.64 711.89 12.56 714.77 10.91 717.44 10.29 718.12 9.6 719.62 9.18 722.24 9.12 723.8 8.54 725.17 8.9 729.1 7.3 730.13 6.41 734.77 3.51 736.76 3.57 738.42 4.62 740.3 3.63 740.19 2.21 741.32 2.03 742.89 1 744.36 1.26 745.58 2.72 745.51 3.7 744.43 5.6 744.17 9.44 745.06 13.31 743.47 14.13 741.81 15.83 741.65 17.54 740.67 19.76 741.89 22.1 741.24 22.9 739.2 24.11 737.96 24.05 736.6 24.99 735.8 24.84 733.68 26.88 733.38 28.27 733.73 29.05 732.74 32.85 732.95 35.98 732.81 38.85 730.67 41.01 728.76 41.5 727.9 43.55 726.89 45.04 727.18 46.46 726.21 50.8 726.31 51.66 725.38 54.56 725.83 55.83 725.31 57.6 723.35 60.49 722.88 63.35 721.75 64.26 721.71 65.62 720.02 67.95 719.9 69.24 718.95 71.19 717.02 73.98 716.75 76.29 713.29 79.09 711.46 82.69 711.33 83.65 710.29 84.18 708.77 86.08 707.38 86.97 706.54 88.77 708.35 90.39 709.34 93.53 709.5 94.84 711.38 95.69 713.64 100.17 712.79 105.43 712.05 107.47 712.71 109.62 712.23 111.7 713.57 114.04 713.08 117.84 718.98 124.27 718.18 126.65 716.21 128.11 717.73 129.33 714.56 133.97 713.53 134.48 711.2 134.55 710.12 136.29 707.39 139.77 704.75 139.07 702.41 138.76 699.33 139.26 694.41 138.32 691.44 140.69 683.67 142.08 685.12 143.66 684.56 144.2 687 148.88 687.95 149.72 688.46 152.31 688.48 154 687.58 154.25 685.88 153.37 683.07 153.85 682.45 155.04 682.72 158.3 682.25 160.59 681.21 162.01 680.17 164.56 681.22 166.13 679.5 169.35 679.3 171.63 678.3 174.16 679.81 176.23 679.85 177.3 682.52 179.78 682.5 180.93 684.3 181.55 685.95 183.27 686.17 185.8 684.27 188.85 684.97 189.93 684.86 192.92 683.78 196.32 683 201.26 682.24 204.04 682.24 206.48 686.16 207.4 686.64 207.82 690.28 209.27 693.18 214.39 693.02 218.16 695.42 220.32 697.85 221.93 699.91 223.7 700.53 224.56 702.14 225.7 703.6 225.65 704.64 229.51 706.65 231.25 710.18 237.52 711.52 240.09 714.17 241.09 717.25 241.99 720.81 243.56 720.9 247.48 719.92 250.69 720.53 253.32 720.69 255.19 722.18 256.36 728.29 261.76 729.7 266.59 729.73 269.43 731.18 275.36 731.39 277.08 730.88 285.94 730.16 287.16 731.94 288.15 734.17 287.18 736.26 285.84 737.74 286.85 739.69 287.04 745.06 289.95 746.69 291.14 749.42 292.42 751.57 292.82 753.59 294.68 756.32 295.18 759.08 295.95 761.87 294.57 763.67 291.69 766.54 291.51 768.19 290.81 770.5 288.93 773.62 288.84 776.05 287.15 778.16 284.57 782.64 284.08 783.01 285.89 782.64 287.6 783.4 289.04 784.92 293.55 783.59 296.03 783.81 296.94 783.63 299.35 783 302.49 782.39 306.82 781.37 308.54 780.7 310.77 781.37 314.41 780.11 318.3 780.11 321.14 781.82 326.3 783.48 332.4 785.21 335.28 786 337.57 787.8 339.71 788.95 342.01 789.92 342.86 790.99 344.7 791.39 347.87 792.09 351.39 791.9 353.06 792.22 355.73 793.05 357.68 795.88 361.09 796.84 363.46 798.22 365.09 798.29 366.31 799 367.25 Z" id="37560350"/>
<path d="M 617.9 166.14 618.14 167.65 615.82 170.79 611.1 172.33 610.7 174.17 610.86 175.29 612.51 178.84 612.98 181.59 611.87 185.53 612.62 186.68 610.31 187.13 607.31 188.61 605.79 190.45 603.25 192.25 601.6 192.15 597.69 192.87 597.58 194.54 595.99 198.67 594.43 199.97 592.74 200.77 590.77 200.99 589.99 203.29 590.31 205.28 591.41 207.45 592.01 208 589.94 212.32 588.84 215.95 588.66 218.92 587.43 220.66 586.97 222.27 587.07 223.93 586.38 224.52 585.04 227.03 583.85 231.69 582.85 234 583.93 235.67 583.18 236.01 580.97 238.62 579.9 238.68 578.25 237.84 575.59 241.56 574.8 242.28 573.47 244.85 577.7 247.19 579.32 249.19 581.29 250.18 582.72 249.93 585.47 251.39 587.18 251.79 587.71 252.75 589.25 254.24 595.61 261.66 594.34 262.83 596.43 265.5 601.27 260.6 603.47 261.75 606.34 263.7 608.61 264.13 614.32 263.98 617.63 262.87 618.43 262.03 619.79 262.09 621.45 261.46 622.48 260.44 624.3 260.72 625.25 260.13 627.19 259.88 627.83 263.07 627.25 264.92 627.66 266.44 627.03 271.25 626.39 272.35 626.98 275.32 628.44 278.49 630.62 280.77 631.24 283.87 630.56 285.42 630.55 286.96 631.57 288.72 630.62 290.47 630.59 293.53 631.28 295.87 631.38 297.68 632.33 298.77 632.94 305.65 631.11 308.05 631.08 310.99 629.8 313.48 630.72 315.91 630.91 317.98 630.73 321.39 631.36 322.9 631.81 325.18 635.17 328.11 635.35 329.03 637.21 330.67 637.7 331.61 639.46 332.25 640.56 333.61 642.56 335.38 645.14 336.52 646.39 340.33 647.28 341.31 649 342.39 649.59 343.31 649.84 346.01 649.47 347.86 649.39 350.25 648.33 353.1 649.3 355.77 649.01 357.4 649.35 359.6 647.84 363 645.78 363.52 644.88 366.58 644.61 369.4 644.16 371.09 642.06 373.34 640.79 375.67 640.82 379.14 639.71 383.9 638.6 385.46 639 386.6 637.75 388.49 636.88 390.43 635.28 392.59 636.82 399.41 620.62 396.74 619.12 396.65 615.06 393.9 610.81 392.85 604.61 391.58 600.74 391.22 597.24 389.9 593.89 391.12 590.33 393.96 588.61 390.62 586.48 384.91 585.88 381.49 586.92 380.42 587.41 379.27 586.93 376.34 585.9 376.14 584.68 374.79 584.95 373.5 584.64 372.22 583.15 370.17 582.68 368.89 581.07 368 580.02 366.87 577.98 367.28 574.76 364.53 572.67 363.3 571.1 363.67 569.35 363.14 565.66 360.07 566.12 358.97 565.37 356.62 558.57 358.12 556.58 358.2 557.29 355.88 557.94 355.32 558.86 352.75 557.94 350.52 556.15 349.55 555.62 347.79 553.78 345.63 552.21 341.09 552.83 340.43 554.07 337.29 553.86 335.84 552.75 333.35 552.01 330.55 550.42 328.77 549.86 331.13 547.8 328.86 547.65 322.63 545.63 320.53 545.5 318.93 543.37 317.19 541.74 315.38 540.62 310.27 540.96 308.94 541.95 308.47 540.06 303.01 537.75 301.35 536.15 300.98 531.25 294.38 527.43 290.59 525.58 288.96 525.73 287.37 524.61 282.48 525.26 280.74 525.11 279.22 525.97 277.92 524.97 276 523.85 272.08 523.6 270.49 523.72 268.61 522.65 267.23 522.14 265.5 520.98 260.12 521.57 259.56 520.91 257.97 519.58 253.26 518.1 249.29 516.26 246.94 514.15 247.37 512.77 247 511.21 247.93 509.27 248.07 507.78 248.51 505.85 248.49 503.84 246.79 502.13 248.13 500.29 248.91 498.81 250.44 498.49 252.75 495.47 253.38 492.73 255.46 492.68 253.64 488.6 252.6 487.08 251.31 486.37 250.18 484.45 249.44 484.42 247.07 480.78 244.88 479.03 242.89 477.4 240.31 474.27 238.95 474.1 236.65 474.62 235.57 474.6 232.29 474.21 231.16 472.84 231.5 472.14 230.9 471.27 225.58 469.75 224.33 466.86 220.25 463.58 218.38 461.41 217.75 461.09 216.36 459.2 213.46 459.41 212.54 458.57 208.17 461.1 207.38 462.68 206.04 464.52 205.61 465.88 204.7 466.19 202.92 465.85 202.06 469 198.68 469.21 195.77 469.74 195.31 471.92 195.4 473.84 196.07 475.11 197.29 476.87 198.38 480.2 199.7 483.74 200.75 486.24 202.75 488.04 202.76 489.28 201.86 490.39 201.61 491.5 202.64 494.01 202.87 497.13 201.04 502.09 197.79 502.57 196.83 504.12 195.59 506.19 193.02 505.88 192.33 506.68 191 506.73 188.85 504.32 185.13 504.34 183.47 503.77 180.81 503.02 179.97 500.8 178.78 500.35 176.53 500.83 173.57 503.72 172.36 505.08 172.93 506.22 172.71 507.38 173.63 507.66 174.78 509.53 176.03 510.16 174.62 512.9 173.93 515.56 172.4 515.5 171.28 516.45 170.17 518.18 170.66 519.76 171.97 520.51 173.84 522.26 175.93 523.23 176.25 523.95 178.49 524.34 181.23 524.83 181.85 527.68 182.98 529.66 184.89 531.51 187.69 533.72 189.54 534.98 188.29 537.78 188.26 540.5 186.5 541.35 184.9 543.02 183.97 544.77 183.41 545.84 183.67 548.88 183.57 550.67 181.87 553.55 180.34 554.33 176.99 555.99 176.19 557.57 176.15 558.75 174.35 558.13 171.48 558.01 168.86 558.99 166.48 560.17 161.58 561.34 158.9 563.23 159.04 564.29 161.09 565.85 161.29 566.67 162.21 566.12 164.79 566.13 165.95 568.91 168.72 569.78 171.59 570.88 176.1 572.37 178.18 571.34 180.63 571.71 183.13 572.72 185.03 573.02 186.28 574.46 188.45 575.33 190.57 576.87 192.02 578.94 191.29 581.15 189.86 581.22 188.9 578.43 189.14 577.05 187.98 576.53 186.83 577.57 183.73 579.92 181.17 580.63 181.36 580.91 182.75 582.55 181.92 588.89 175.29 589.76 170.99 591.22 169.08 593.82 170.37 594.81 170.4 595.91 169.47 604.83 166.72 606.02 165.43 608.08 164.06 611.24 164.01 613.73 165.7 617.9 166.14 Z" id="37560360"/>
<path d="M 458.57 208.17 459.41 212.54 459.2 213.46 461.09 216.36 461.41 217.75 463.58 218.38 466.86 220.25 469.75 224.33 471.27 225.58 472.14 230.9 472.84 231.5 474.21 231.16 474.6 232.29 474.62 235.57 474.1 236.65 474.27 238.95 477.4 240.31 479.03 242.89 480.78 244.88 484.42 247.07 484.45 249.44 486.37 250.18 487.08 251.31 488.6 252.6 492.68 253.64 492.73 255.46 495.47 253.38 498.49 252.75 498.81 250.44 500.29 248.91 502.13 248.13 503.84 246.79 505.85 248.49 507.78 248.51 509.27 248.07 511.21 247.93 512.77 247 514.15 247.37 516.26 246.94 518.1 249.29 519.58 253.26 520.91 257.97 521.57 259.56 520.98 260.12 522.14 265.5 522.65 267.23 523.72 268.61 523.6 270.49 523.85 272.08 524.97 276 525.97 277.92 525.11 279.22 525.26 280.74 524.61 282.48 525.73 287.37 525.58 288.96 527.43 290.59 531.25 294.38 536.15 300.98 537.75 301.35 540.06 303.01 541.95 308.47 540.96 308.94 540.62 310.27 541.74 315.38 543.37 317.19 545.5 318.93 545.63 320.53 547.65 322.63 547.8 328.86 549.86 331.13 550.42 328.77 552.01 330.55 552.75 333.35 553.86 335.84 554.07 337.29 552.83 340.43 552.21 341.09 553.78 345.63 555.62 347.79 556.15 349.55 557.94 350.52 558.86 352.75 557.94 355.32 557.29 355.88 556.58 358.2 558.57 358.12 565.37 356.62 566.12 358.97 565.66 360.07 569.35 363.14 571.1 363.67 572.67 363.3 574.76 364.53 577.98 367.28 580.02 366.87 581.07 368 582.68 368.89 583.15 370.17 584.64 372.22 584.95 373.5 584.68 374.79 585.9 376.14 586.93 376.34 587.41 379.27 586.92 380.42 585.88 381.49 586.48 384.91 588.61 390.62 590.33 393.96 588.28 395.41 585.23 396.67 583.07 398.74 576.99 404.2 574.5 405.31 570.63 407.8 565.83 409.55 562.17 411.81 557.37 412.75 555.02 412.32 552.31 408.12 551.03 406.99 551.58 404.4 551.09 403.24 548.39 402.51 545.92 400.54 539.27 404 536.71 406.63 536.82 408.52 537.66 410.04 536.37 412.68 536.08 413.88 536.5 416.13 535.66 418.49 535.45 420.79 534.77 424.68 534.79 426.74 531.98 433.15 529.17 433.81 526.2 437.26 525.84 439.94 524.69 441.49 523.43 445.87 521.3 450.63 520 452.07 516.9 453.18 515.89 455.04 513.07 456.09 511.72 459.79 510.07 461.66 508.73 464.77 505.46 467.65 505.29 473.21 501.7 478.07 497.8 481.09 496.66 482.39 495.73 482.54 495.24 484.16 493.63 485 493.56 486.03 492.7 487.64 491.22 487.66 490.18 488.49 488.84 488.4 488.03 488.9 485.69 486.37 483.11 482.9 482.36 481.23 480.94 480.47 478.85 478.25 477.47 477.16 475.88 474.61 473.95 473.47 469.2 474.28 466.88 474.92 462.69 474.77 460.85 476.1 458.83 476.07 457.53 476.74 456.1 478.89 455.28 480.94 453.27 481.74 450.78 482.11 448.28 483.92 446.01 484.6 444.71 485.82 441.92 487.12 437.29 489.86 436.25 490 434.19 489.43 430.96 489.85 429.18 489.23 426.67 489.75 425.17 490.8 423.76 492.66 423.54 496.28 423.01 496.23 421.2 494.73 420.04 493.33 418.3 487.45 416.86 486.35 415.38 484.38 412.91 482.83 411.94 481.91 408.09 473.68 404.64 472.55 400.03 471.85 400.01 469.67 400.66 469.1 400.56 466.68 400.77 464.08 401.18 463.2 400.03 461.23 398.1 460.17 399.64 459.79 402.23 458.04 403.22 457.09 405.21 456.87 407.74 457.59 409.62 456.11 407.48 453.66 406.84 451 405.55 448.25 404.99 446.39 402.09 441.93 401.52 438.88 400.97 437.35 399.67 436.35 396.03 431.9 395.75 426.75 394.38 425.17 392.8 423.97 390.78 422.85 389.17 423.28 388.77 419.07 388.56 413.47 385.95 411.68 384.92 409.86 384.45 403.06 387.18 404.78 389.94 403.46 392.81 398.22 393.16 395.41 392.67 392.9 393.46 391.83 395.45 390.41 394.71 389.52 392.67 385.63 393.03 383.6 395.05 380.76 400.23 379.14 402.51 377.95 406.07 377.17 411.3 377.52 412.79 377.92 414.34 379.22 417.56 378.72 418 376.78 418.02 374.68 418.57 374.1 417.99 371.98 417.81 368.97 418.32 365.26 419.56 364.18 421.64 363.14 422.08 362.13 421.69 360.71 422.33 359.83 422.24 357.76 422.52 356.32 423.88 355.23 426.72 355.45 427.91 354.77 429.45 355.33 429.56 354.53 430.74 353.26 430.42 351.16 430.82 347.12 431.21 345.92 431.26 343.81 429.91 340.14 427.13 339.29 426.27 334.8 427.13 333.13 427.29 330.46 426.96 328.54 427.38 326.96 429.08 325.6 427.92 323.51 425.65 323.91 424.51 323.59 420.87 321.94 417.92 319.47 415.85 318.2 414.49 320.09 413.16 320.79 409.65 319.43 407.01 317.6 404.64 318.1 404.11 316.51 403.97 314.58 404.41 312.27 403.13 310.69 402 307.09 403.05 305.49 402.96 303.81 401.83 301.44 400.85 298.76 399.61 298.61 397.49 297.01 397.48 294.1 396.21 292.28 395.49 289.24 391.34 289.86 389.97 288.87 388.14 289.58 384.82 288.15 383.56 286.12 381.64 286.62 378.37 284.44 375.96 284.77 370.64 284.52 367.73 285.49 366.05 280.2 366.91 278.78 366.95 275.46 367.43 273.56 367.42 270.94 366.86 270.19 362.52 266.64 363.31 263.38 362.17 261.06 363.6 258.08 363.93 254.88 363.92 252.76 363.49 250.87 363.99 249.3 365.61 248.29 366.27 247.44 368.43 246.71 369.72 244.87 370.96 243.88 372.6 243.61 373.83 242.07 376.03 241 377.75 239.7 377.45 238.37 377.69 235.47 377.14 234.21 376.97 231.85 378.66 228.19 379.99 226.52 384.3 223.88 385.29 223.53 387.11 223.76 392.89 222.48 395.55 221.04 397.18 218.67 394.59 215.72 394.4 215.07 395.4 213.85 397.11 210.02 395.95 208.35 397.42 208.27 397.87 205.88 398.77 204.12 399.76 202.95 400.52 200.62 401.03 200 403.41 199.29 406.47 199.06 409.24 199.63 410.22 199.17 411.88 199.62 413.26 199.6 415.34 198.93 416.09 197.45 418.48 195.82 419.72 196.97 424.82 197.44 426.07 197.88 427.49 199.14 428.93 201.3 430.71 203 432.68 205.86 435.21 205.14 437.94 202.79 440.06 201.74 441.21 200.52 443.48 201.01 445.42 201.8 448.09 203.62 450.66 205.04 452.07 205.06 455.33 205.85 457.02 207.86 458.57 208.17 Z" id="37560370"/>
<path d="M 287.71 244.46 292.02 245 295.16 245.04 298.54 247.18 300.34 247.46 302.13 246.87 303.62 246.83 307.28 244.92 310.45 245.8 311.94 245.27 314.53 246.2 316.31 247.29 318.08 251.12 318.41 253.99 318.87 254.72 319.19 256.72 320.01 257.94 319.79 260.54 320.74 261.93 321.38 264.56 323.07 266.89 324.84 267.49 328.46 269.46 329.05 270.88 330.03 271.79 333.54 273.96 332.04 275.07 328.51 278.45 326.13 279.17 324.54 281.11 323 282.17 323.35 284.06 322.02 285.67 318.64 288.71 317.47 289.37 318.58 293.38 318.17 294.65 319.03 296.63 318.35 299.9 318.54 301.07 316.94 302.02 316.92 304.57 317.45 305.68 318.73 307.08 318.63 307.98 319.05 311.32 321.91 314.71 323.3 317.8 325.74 320.2 326.76 322.01 327.51 323.99 329.01 326.38 329.5 327.94 332.16 328.35 332.8 328.94 333.2 330.79 335.27 333.16 336.13 334.97 337.28 336.15 337.77 342.4 336.97 344.35 336.26 345.19 335.38 347.9 335.63 351.51 330.56 351.71 326.52 351.1 324.17 351.82 322.44 351.7 323.43 354.28 323.83 356.61 324.91 358.28 325.47 359.77 326.56 360.65 327.3 362.11 329.41 364.11 331.35 366.57 334 368.61 333.59 370.85 332.78 373.57 330.83 377.06 327.27 379.45 323.93 380.75 322.26 381.97 319.43 383.51 318.05 384.66 318.71 386.72 320.97 388.96 321.6 391.82 321.22 395.47 320.88 396.39 322.01 397.83 322.47 399.22 323.68 401.49 324.67 404.39 325.5 407.82 322.85 410.73 321.98 412.55 322.63 414.05 322.38 416.45 321.78 419.45 321.87 422.76 320.85 426.68 318.97 428.92 319 430.77 317.13 434.97 315.41 437.68 314.27 437.75 313.73 438.76 310.18 440.01 306.79 440.73 300.57 442.72 300.36 443.98 297.13 444.1 294.91 444.92 293.17 444.58 290.31 445.03 285.94 445.24 281.9 446.89 277.33 446.94 276.43 447.18 272.9 440.32 271.58 438.77 272.08 435.73 270.02 433.3 270.3 431.25 270.14 428.31 269.26 425.1 266.43 420.04 265.3 415.98 266.05 413.1 266.91 411.14 266.31 408.78 266.54 405.43 266.56 402.1 264.82 399.04 263.37 397.48 261.18 394.61 260.44 392.56 259.12 390.82 258.49 391.05 257.12 387.38 256.99 386.22 257.5 384.97 257.6 382.52 258.08 380.46 257.12 378.25 256.16 376.88 256.48 374.49 256.03 373.33 254.79 371.81 254.45 369.13 257.14 367.7 257.86 365.9 258.96 365.13 259.43 364.1 259.01 362.75 259.56 361.76 261.74 360.92 262.96 359.94 258.14 357.7 254.44 357.45 252.16 357.81 249.88 359.1 247.91 359.11 246.69 359.86 245.94 361.8 245.02 363.02 241.79 363.09 239.58 364.76 237.82 364.72 234.22 364.13 233.43 363.34 232.79 358.98 232.92 357.84 234.09 356.09 235.04 355.28 235.58 353.9 235.35 351.19 236.47 348.74 236.76 346.82 238.59 346.1 239.73 345.26 239.43 343.47 241.05 341.87 242.1 339.98 241.96 338.3 243.08 336.76 246.01 336.04 246.21 335.41 248.82 334.72 248.77 332.14 247.26 330.53 247.32 329.54 246.5 328.41 247.01 327.07 246.72 326.01 245.7 325.46 245.39 324.59 246.29 322.82 246.18 321.53 246.69 319.98 245.31 316 246.53 315.76 248.33 316.65 249 316.1 251.17 315.59 253.9 313.76 253.98 312.4 254.82 310.59 256.14 309.3 256.45 308.08 255.7 305.5 257.56 303.38 259.23 302.01 261.13 297.92 262.55 296.7 265.41 294.82 266.92 294.11 270.03 294.25 273.76 293.98 275.6 293.28 276.8 290.5 275.81 287.61 277.08 280.66 278.52 278.28 278.33 276.22 278.66 273.59 278.21 271.58 278.26 270.09 279.84 264.79 280.73 263.74 279.87 258.13 281.48 256.98 281.74 256.28 283.21 255.5 285.83 252.57 284.28 249.51 287.71 244.46 Z" id="37560110"/>
<path d="M 366.05 280.2 367.73 285.49 370.64 284.52 375.96 284.77 378.37 284.44 381.64 286.62 383.56 286.12 384.82 288.15 388.14 289.58 389.97 288.87 391.34 289.86 395.49 289.24 396.21 292.28 397.48 294.1 397.49 297.01 399.61 298.61 400.85 298.76 401.83 301.44 402.96 303.81 403.05 305.49 402 307.09 403.13 310.69 404.41 312.27 403.97 314.58 404.11 316.51 404.64 318.1 407.01 317.6 409.65 319.43 413.16 320.79 414.49 320.09 415.85 318.2 417.92 319.47 420.87 321.94 424.51 323.59 425.65 323.91 427.92 323.51 429.08 325.6 427.38 326.96 426.96 328.54 427.29 330.46 427.13 333.13 426.27 334.8 427.13 339.29 429.91 340.14 431.26 343.81 431.21 345.92 430.82 347.12 430.42 351.16 430.74 353.26 429.56 354.53 429.45 355.33 427.91 354.77 426.72 355.45 423.88 355.23 422.52 356.32 422.24 357.76 422.33 359.83 421.69 360.71 422.08 362.13 421.64 363.14 419.56 364.18 418.32 365.26 417.81 368.97 417.99 371.98 418.57 374.1 418.02 374.68 418 376.78 417.56 378.72 414.34 379.22 412.79 377.92 411.3 377.52 406.07 377.17 402.51 377.95 400.23 379.14 395.05 380.76 393.03 383.6 392.67 385.63 394.71 389.52 395.45 390.41 393.46 391.83 392.67 392.9 393.16 395.41 392.81 398.22 389.94 403.46 387.18 404.78 384.45 403.06 384.92 409.86 385.95 411.68 388.56 413.47 388.77 419.07 389.17 423.28 390.78 422.85 392.8 423.97 394.38 425.17 395.75 426.75 396.03 431.9 399.67 436.35 400.97 437.35 401.52 438.88 402.09 441.93 404.99 446.39 405.55 448.25 406.84 451 407.48 453.66 409.62 456.11 407.74 457.59 405.21 456.87 403.22 457.09 402.23 458.04 399.64 459.79 398.1 460.17 400.03 461.23 401.18 463.2 400.77 464.08 400.56 466.68 400.66 469.1 400.01 469.67 400.03 471.85 404.64 472.55 408.09 473.68 411.94 481.91 412.91 482.83 415.38 484.38 416.86 486.35 418.3 487.45 420.04 493.33 421.2 494.73 423.01 496.23 423.31 498.3 422.7 504.53 422.43 506.22 421.11 510.2 419.05 513.06 415.34 519.9 411.51 525.1 404.53 530.8 401.17 532 396.82 531.78 390.72 530.39 386.43 530.27 378.87 529.13 378.16 528.82 377.3 527.44 374.85 525.05 373.02 527.53 371.69 529.99 370.48 530.01 369.56 529.23 367.8 528.61 364.81 529.22 362.15 531 359.84 531.04 359.11 531.62 356.26 530.71 355.21 530.03 354.28 528.49 352.44 526.4 350.14 526.35 347.94 526.03 347.13 526.54 344.62 525.8 342.27 524.29 340.49 522.2 338.66 521.52 336.24 519.91 333.04 519.62 332.6 519.3 331.35 516.76 331.59 516.12 328.11 515.41 327 514.06 323.44 515.57 322.81 515.43 318.69 516.46 318.19 515.24 316.58 514.57 312.05 513.65 310.66 511.15 309.15 510.01 308.32 507.69 307.22 506.29 304.1 506.48 301.02 507.8 299.52 509.47 297.67 510.42 292.53 513.83 291.03 512.01 288.57 511.06 283.84 512.08 280.91 513.31 280.26 513.04 277.93 513.45 276.37 512.96 274.64 513.36 273.06 511.53 268.46 508.29 267.01 506.92 266.14 506.79 264.66 505.66 262.84 504.78 261.63 503.44 260.12 496.81 260.08 494.41 258.7 489.49 256.25 486.09 256.19 484.94 255.74 483.03 255.96 479.53 256.68 478 257.41 475.37 258.25 470.68 257.99 467.64 260.43 462.88 261.85 457.53 263.26 454.09 265.2 451.84 268.39 452.36 271.66 451.05 274.04 449.73 274.41 448.76 276.43 447.18 277.33 446.94 281.9 446.89 285.94 445.24 290.31 445.03 293.17 444.58 294.91 444.92 297.13 444.1 300.36 443.98 300.57 442.72 306.79 440.73 310.18 440.01 313.73 438.76 314.27 437.75 315.41 437.68 317.13 434.97 319 430.77 318.97 428.92 320.85 426.68 321.87 422.76 321.78 419.45 322.38 416.45 322.63 414.05 321.98 412.55 322.85 410.73 325.5 407.82 324.67 404.39 323.68 401.49 322.47 399.22 322.01 397.83 320.88 396.39 321.22 395.47 321.6 391.82 320.97 388.96 318.71 386.72 318.05 384.66 319.43 383.51 322.26 381.97 323.93 380.75 327.27 379.45 330.83 377.06 332.78 373.57 333.59 370.85 334 368.61 331.35 366.57 329.41 364.11 327.3 362.11 326.56 360.65 325.47 359.77 324.91 358.28 323.83 356.61 323.43 354.28 322.44 351.7 324.17 351.82 326.52 351.1 330.56 351.71 335.63 351.51 335.38 347.9 336.26 345.19 336.97 344.35 337.77 342.4 337.28 336.15 336.13 334.97 335.27 333.16 333.2 330.79 332.8 328.94 332.16 328.35 329.5 327.94 329.01 326.38 327.51 323.99 326.76 322.01 325.74 320.2 323.3 317.8 321.91 314.71 319.05 311.32 318.63 307.98 318.73 307.08 317.45 305.68 316.92 304.57 316.94 302.02 318.54 301.07 318.35 299.9 319.03 296.63 318.17 294.65 318.58 293.38 317.47 289.37 318.64 288.71 322.02 285.67 323.35 284.06 323 282.17 324.54 281.11 326.13 279.17 328.51 278.45 332.04 275.07 333.54 273.96 338.36 276.29 342.23 277.62 343.52 278.35 346.34 280.48 349.18 281.27 351.51 280.88 353.73 281.82 355.11 282 358.66 281.06 362.04 280.61 364.92 280.59 366.05 280.2 Z" id="37560120"/>
<path d="M 276.43 447.18 274.41 448.76 274.04 449.73 271.66 451.05 268.39 452.36 265.2 451.84 263.26 454.09 261.85 457.53 260.43 462.88 257.99 467.64 258.25 470.68 257.41 475.37 256.68 478 255.96 479.53 255.74 483.03 256.19 484.94 252.52 482.87 250 481.85 247.47 482.31 239.4 481.82 235.71 482.61 233 481.4 229.47 480.18 226.88 480.65 224.72 482.62 223.09 483.71 219.63 483.67 219.06 484.06 214.47 484.84 210.73 480.96 206.22 478.07 204.95 477.61 202.49 478.08 201.92 477.31 200.33 477.31 200.54 478.9 198.08 480.67 195.69 481.36 195.14 482.16 193.26 483.58 191.42 484.04 188.12 485.48 185.05 485.49 183.31 486.68 181.9 490.05 179.93 492.42 178.55 494.71 174.21 495.19 172.68 497.81 173.13 499.37 171.98 502.55 169.9 502.05 168.04 500.84 164.89 499.87 163.66 497.9 163.02 497.59 160.57 498.19 158.52 499.33 157.15 500.6 157.03 501.41 154.61 502.09 151 502.83 148.68 502.39 144.3 504.65 141.78 504.51 139.77 506.76 138.58 508.81 136.98 508.66 135.42 509.07 133 508.82 132.01 509.47 130.52 509.76 128.57 510.81 124.96 511.68 122.15 511.66 120.45 512.09 118.73 511.05 117.5 510.92 116.01 511.49 115.63 510.01 113.66 508.43 111.97 508.83 110.26 508.12 109.83 507.12 105.49 504.11 105.44 504.06 106.42 504.06 106.73 502.27 105.9 501.25 104.78 497.34 105.16 494.67 104.95 490.71 105.39 489.11 107.93 487.98 109.27 487.99 113.93 484.47 116.24 481.86 117.65 478.9 118.58 477.73 120.6 476.78 122.03 474.81 125.9 473.82 127.77 473.75 130.48 471.42 132.69 470.98 134.41 469.27 137.14 467.39 138.56 466.95 139.94 464.28 142.33 463.91 145.89 460.78 147.1 457.48 147.6 455.49 148.73 454.8 149.56 452.21 148.98 451.22 148.26 448.86 150.24 446.36 149.23 445.34 148.74 442.25 149.88 442.26 150.78 440.35 149.03 436.25 147.38 434.09 146.33 429.68 148.01 429.52 150.98 430.17 153.2 429.5 155.77 427.98 158.67 426.85 159.8 425.31 160.11 423.65 159.73 421.33 158.95 420.71 157.42 418.09 154.86 416.64 153.55 414.57 153.94 413.45 151.96 410.13 152 409.57 153.58 408.56 155.35 406.9 157.58 406.01 160.23 405.47 162.75 405.23 164.15 404.62 165.48 402.37 165.27 400 165.9 397.93 165.88 396.53 166.69 394.83 168.56 393.03 169.86 392.75 170.6 393.43 172.65 391.37 174.23 390.14 181.15 391.22 185.14 392.66 188.46 392.92 191.2 392.22 192.91 392.05 195.92 389.66 199.56 386.09 201.34 384.09 208.79 381.29 208.6 379.76 211.1 380.23 213.58 378.95 216.37 379.44 218.46 380.12 220.19 379.82 222.7 378.91 224.5 377.76 224.83 376.91 226.57 376.66 228.74 375.66 235.36 374.34 239.54 371.21 239.58 369.89 241.55 367.04 245.02 363.02 245.94 361.8 246.69 359.86 247.91 359.11 249.88 359.1 252.16 357.81 254.44 357.45 258.14 357.7 262.96 359.94 261.74 360.92 259.56 361.76 259.01 362.75 259.43 364.1 258.96 365.13 257.86 365.9 257.14 367.7 254.45 369.13 254.79 371.81 256.03 373.33 256.48 374.49 256.16 376.88 257.12 378.25 258.08 380.46 257.6 382.52 257.5 384.97 256.99 386.22 257.12 387.38 258.49 391.05 259.12 390.82 260.44 392.56 261.18 394.61 263.37 397.48 264.82 399.04 266.56 402.1 266.54 405.43 266.31 408.78 266.91 411.14 266.05 413.1 265.3 415.98 266.43 420.04 269.26 425.1 270.14 428.31 270.3 431.25 270.02 433.3 272.08 435.73 271.58 438.77 272.9 440.32 276.43 447.18 Z" id="37560310"/>
<path d="M 159.36 393.87 160.85 394.13 163.17 396.38 164.12 396.69 165.88 396.53 165.9 397.93 165.27 400 165.48 402.37 164.15 404.62 162.75 405.23 160.23 405.47 157.58 406.01 155.35 406.9 153.58 408.56 152 409.57 151.96 410.13 153.94 413.45 153.55 414.57 154.86 416.64 157.42 418.09 158.95 420.71 159.73 421.33 160.11 423.65 159.8 425.31 158.67 426.85 155.77 427.98 153.2 429.5 150.98 430.17 148.01 429.52 146.33 429.68 147.38 434.09 149.03 436.25 150.78 440.35 149.88 442.26 148.74 442.25 149.23 445.34 150.24 446.36 148.26 448.86 148.98 451.22 149.56 452.21 148.73 454.8 147.6 455.49 147.1 457.48 145.89 460.78 142.33 463.91 139.94 464.28 138.56 466.95 137.14 467.39 134.41 469.27 132.69 470.98 130.48 471.42 127.77 473.75 125.9 473.82 122.03 474.81 120.6 476.78 118.58 477.73 117.65 478.9 116.24 481.86 113.93 484.47 109.27 487.99 107.93 487.98 105.39 489.11 104.95 490.71 105.16 494.67 104.78 497.34 105.9 501.25 106.73 502.27 106.42 504.06 105.44 504.06 104.71 503.33 101 502.77 97.73 502.92 92.53 500.57 88.91 498.31 82.97 494.1 79.98 490.61 78.58 489.29 77.24 489.52 75.63 489.14 74.19 488.15 73.37 485.48 73.26 483.42 73.93 481.85 73.62 479.71 71.82 479.02 69.11 476.62 67.89 470.91 68.42 468.07 66.64 469.33 64.96 471 63.64 471.7 61.85 471.53 60.5 470.6 57.06 470.65 55.25 469.65 54.13 467.86 53.5 464.5 52.37 463.14 51.95 461.94 52.28 460.34 53.16 459.28 52.66 456.8 53.06 454.99 52.05 454.15 50.92 452.47 50.8 451.62 51.39 450.14 51.72 447.99 48.72 445.82 47.63 444.22 46.76 445.07 45.38 445.26 43.81 443.87 41.46 444.1 40.19 444.88 39.14 444.24 38.72 442.28 36.88 441.85 33.85 439.24 29.85 437.05 24.65 435.71 23.01 433.69 21.26 432.51 19.95 432.71 17.97 431.58 17.43 430.33 17.22 427.29 16.79 424.54 17.79 422.29 17.59 420.71 18.56 419.21 19.69 416.39 19.66 415.1 18.36 413.53 18.59 411.62 18.27 407.27 17.51 406.11 17.13 402.36 16.06 400.17 15.06 397.35 15 396.01 14.13 394.34 15.38 391.87 16.16 389.75 16.3 385.87 18.62 380.97 18.31 377.62 18.82 374.35 18.17 371.77 17.67 368.73 17.74 364.13 16.59 361.37 15.29 360.72 14.99 359.92 10.92 359.77 10.1 360.09 8.51 359.76 7.25 358.34 6.94 356.23 7.48 354.02 3.33 344.62 2.82 342.22 1.05 338.6 1.25 335.58 1 334.73 4.16 330.63 5.32 324.39 5.44 320.68 5.51 319.77 8.41 320.03 8.79 320.07 11.98 323.02 13.29 326.33 17.39 327.38 18.66 328.99 25.13 328.67 28.35 328.79 29.76 329.49 32.32 330.14 33.72 329.29 33.88 328.35 35.36 327.74 39.35 328.94 43.67 327.75 46.73 327.07 50.27 324.78 53.94 321.89 55.28 322.14 58.46 321.87 59.92 321.05 61.42 319.28 61.72 317.95 62.86 315.5 63.32 313.75 64.13 313.34 65.6 311.52 67.83 310.82 70.05 310.74 70.72 311.25 72.86 311.05 74.37 312.7 75.57 313.1 78.52 312.98 79.94 313.29 80.12 316.41 82.74 317.93 83.73 320.11 83.81 321.1 86.54 324.91 88.06 325.69 90.47 326.38 92.84 328.68 93.74 331.26 95.25 333.68 95.84 337.05 92.38 338.55 93.15 343.41 94.74 346.32 94.36 350.18 95.12 353.4 95.03 354.15 96.49 356.29 99.46 357.22 99.76 358.77 100.62 360.3 103.99 360.01 107.58 361.66 108.66 363.21 111.41 362.44 112.91 364.56 114.6 367.52 118.73 366.95 119.36 368.79 120.44 370.15 121.62 371 121.79 371.96 123.13 373.06 123.89 378.69 126.07 380.4 128.58 381.54 131.76 382.38 134.28 382.83 136.44 383.66 138.3 384.03 140.29 385.64 142.15 385.66 143.23 386.42 145.56 387.25 146.43 388.23 147.98 389.19 148.83 390.22 154.6 394.04 156.71 394.42 159.36 393.87 Z" id="37560320"/>
<path d="M 142.61 281.25 142.22 282.41 139.13 283.52 134.99 287.76 131.88 289.17 129.67 289.86 129.96 293.89 130.74 295.63 130.76 297.7 128.95 300.8 128.87 302.88 130.13 305.39 131.13 305.91 131.37 308.81 133.43 310.86 135.62 314.85 135.68 315.76 134.3 320.01 134.95 324.47 135.99 328.69 135.91 330.53 136.72 332.1 136.8 333.17 136.2 336.72 136.66 338.57 137.94 339.93 139.97 340.42 140.57 341.09 141.02 342.79 143.73 344.96 145.42 345.65 148.1 345.73 150.77 346.49 151.68 347.51 154.52 347.65 154.14 349 152.7 349.88 151.68 349.54 150.98 352 153.52 358.3 152.28 359.88 150.98 363.3 149.49 364.98 148.32 366.84 147.85 370.7 151.73 373.88 153.84 373.77 155.2 374.88 156.63 376.94 158.42 380.7 160.05 381.95 162.37 386.21 159.87 388.57 160.06 390.18 160.78 392.89 159.36 393.87 156.71 394.42 154.6 394.04 148.83 390.22 147.98 389.19 146.43 388.23 145.56 387.25 143.23 386.42 142.15 385.66 140.29 385.64 138.3 384.03 136.44 383.66 134.28 382.83 131.76 382.38 128.58 381.54 126.07 380.4 123.89 378.69 123.13 373.06 121.79 371.96 121.62 371 120.44 370.15 119.36 368.79 118.73 366.95 114.6 367.52 112.91 364.56 111.41 362.44 108.66 363.21 107.58 361.66 103.99 360.01 100.62 360.3 99.76 358.77 99.46 357.22 96.49 356.29 95.03 354.15 95.12 353.4 94.36 350.18 94.74 346.32 93.15 343.41 92.38 338.55 95.84 337.05 95.25 333.68 93.74 331.26 92.84 328.68 90.47 326.38 88.06 325.69 86.54 324.91 83.81 321.1 83.73 320.11 82.74 317.93 80.12 316.41 79.94 313.29 78.52 312.98 75.57 313.1 74.37 312.7 72.86 311.05 70.72 311.25 70.05 310.74 67.83 310.82 65.6 311.52 64.13 313.34 63.32 313.75 62.86 315.5 61.72 317.95 61.42 319.28 59.92 321.05 58.46 321.87 55.28 322.14 53.94 321.89 50.27 324.78 46.73 327.07 43.67 327.75 39.35 328.94 35.36 327.74 33.88 328.35 33.72 329.29 32.32 330.14 29.76 329.49 28.35 328.79 25.13 328.67 18.66 328.99 17.39 327.38 13.29 326.33 11.98 323.02 8.79 320.07 8.41 320.03 7.77 316.06 7.55 311.55 9.72 307.31 9.81 306.68 11.25 304.66 12.54 300.46 13.41 299.84 8.12 295.1 9.42 291.93 9.16 287.4 11.03 282.59 8.85 279.2 6.98 275.65 5.75 271.15 4.92 269.61 3.31 267.67 1.59 264.94 5.23 263.48 6.96 260.98 9.76 257.82 10.86 257.41 13.85 256.99 15.12 257.04 16.75 256.16 17.4 254.82 18.46 254.59 21.48 252.66 22.9 252.93 26.17 251.99 27.28 249.89 28.24 248.84 28.53 247.02 29.15 245.91 29.95 245.77 34.17 242.26 35.73 241.66 37.17 240.49 38.6 238.81 43.43 235.93 44.75 236.52 45.66 236.16 47.29 234.36 49.78 233.85 51.75 232.29 52.55 230.56 52.71 228.74 54.23 227.5 55.49 220.66 57.03 219.64 57.33 218.97 59.66 218.8 61.77 220.03 62.33 221.11 65.43 222.3 66.7 223.01 68.06 222.91 69.89 221.48 71.2 221.02 72.45 219.25 75.23 218.6 76.99 217.13 78.54 217.33 79.56 216.93 81.39 215.01 84.31 215.59 85.56 217.32 86.01 218.86 87.32 219.89 88.6 222.63 90.33 224.04 92.88 225.36 95.52 228.23 97.24 227.06 99.4 226 100.14 224.23 102.3 220.53 101.84 218.95 102.46 217.66 104.56 217.37 106.34 218.34 107.95 218.09 111.3 218.9 112.83 218.34 115.4 218.1 116.61 216.99 119.1 216.49 122.69 213.72 125.29 213.83 130.27 214.49 132.55 217.51 132.98 223.05 133.48 223.52 132.46 225.88 134.12 228.65 134.34 229.82 133.78 231.15 131.46 232.46 129.29 234.59 127.08 237.65 126.86 240.16 129.82 242.87 131.1 244.54 133.26 245.24 136.02 248.85 136.57 249.95 137.11 252.52 137.79 253.57 137.43 255.94 133.34 260.14 133.24 261.72 133.42 268.27 135.69 270.2 136.87 272.07 138.38 272.79 138.96 275.35 142.58 278.13 142.61 281.25 Z" id="37560330"/>
<path d="M 287.71 244.46 284.28 249.51 285.83 252.57 283.21 255.5 281.74 256.28 281.48 256.98 279.87 258.13 280.73 263.74 279.84 264.79 278.26 270.09 278.21 271.58 278.66 273.59 278.33 276.22 278.52 278.28 277.08 280.66 275.81 287.61 276.8 290.5 275.6 293.28 273.76 293.98 270.03 294.25 266.92 294.11 265.41 294.82 262.55 296.7 261.13 297.92 259.23 302.01 257.56 303.38 255.7 305.5 256.45 308.08 256.14 309.3 254.82 310.59 253.98 312.4 253.9 313.76 251.17 315.59 249 316.1 248.33 316.65 246.53 315.76 245.31 316 246.69 319.98 246.18 321.53 246.29 322.82 245.39 324.59 245.7 325.46 246.72 326.01 247.01 327.07 246.5 328.41 247.32 329.54 247.26 330.53 248.77 332.14 248.82 334.72 246.21 335.41 246.01 336.04 243.08 336.76 241.96 338.3 242.1 339.98 241.05 341.87 239.43 343.47 239.73 345.26 238.59 346.1 236.76 346.82 236.47 348.74 235.35 351.19 235.58 353.9 235.04 355.28 234.09 356.09 232.92 357.84 232.79 358.98 233.43 363.34 234.22 364.13 237.82 364.72 239.58 364.76 241.79 363.09 245.02 363.02 241.55 367.04 239.58 369.89 239.54 371.21 235.36 374.34 228.74 375.66 226.57 376.66 224.83 376.91 224.5 377.76 222.7 378.91 220.19 379.82 218.46 380.12 216.37 379.44 213.58 378.95 211.1 380.23 208.6 379.76 208.79 381.29 201.34 384.09 199.56 386.09 195.92 389.66 192.91 392.05 191.2 392.22 188.46 392.92 185.14 392.66 181.15 391.22 174.23 390.14 172.65 391.37 170.6 393.43 169.86 392.75 168.56 393.03 166.69 394.83 165.88 396.53 164.12 396.69 163.17 396.38 160.85 394.13 159.36 393.87 160.78 392.89 160.06 390.18 159.87 388.57 162.37 386.21 160.05 381.95 158.42 380.7 156.63 376.94 155.2 374.88 153.84 373.77 151.73 373.88 147.85 370.7 148.32 366.84 149.49 364.98 150.98 363.3 152.28 359.88 153.52 358.3 150.98 352 151.68 349.54 152.7 349.88 154.14 349 154.52 347.65 151.68 347.51 150.77 346.49 148.1 345.73 145.42 345.65 143.73 344.96 141.02 342.79 140.57 341.09 139.97 340.42 137.94 339.93 136.66 338.57 136.2 336.72 136.8 333.17 136.72 332.1 135.91 330.53 135.99 328.69 134.95 324.47 134.3 320.01 135.68 315.76 135.62 314.85 133.43 310.86 131.37 308.81 131.13 305.91 130.13 305.39 128.87 302.88 128.95 300.8 130.76 297.7 130.74 295.63 129.96 293.89 129.67 289.86 131.88 289.17 134.99 287.76 139.13 283.52 142.22 282.41 142.61 281.25 149.1 282.18 149.83 280.18 151.59 279.25 153.15 277.57 154.22 276.89 156.25 276.31 157.88 275.23 158.92 273.8 163.74 274.3 165.28 274.13 168.47 274.68 169.09 275.3 170.82 275.26 173.9 274.43 175.65 273.05 178.82 272.86 181.6 271.02 182.94 270.58 182.89 269.19 183.7 268.26 184.46 264.33 187.2 263.99 188.63 263.23 189.59 261.97 192.93 259.46 193.85 259.69 196.34 257.04 197.1 254.93 197.98 253.72 198.56 252.14 199.92 251.75 204.06 249.12 205.27 247.91 207.2 249.02 209.07 247 212.23 249.87 213.36 249.24 215.68 249.05 220.47 249.82 221.7 246.74 224.11 245.8 226.76 245.36 231.07 245.48 233.66 245.77 234.61 244.97 237.2 245.03 239.23 244.7 239.67 243.17 239.21 241.38 238.94 236.96 239.81 236.31 242.68 233.14 245.97 231.28 248.24 229.01 249.55 228.18 250.76 226.79 252.27 222.31 251.44 220.23 252.12 218.48 251.24 216.89 249.86 216.04 247.64 213.28 247.66 210.16 247.88 209.37 250.95 207.14 252.14 205.36 254.47 202.76 255.39 201.57 261.32 203.51 266.63 202.29 268.1 202.44 267.35 204.4 267.46 210.95 269.03 214.48 274.75 219.28 276.47 221.24 279.09 223.14 280.08 225.31 281.27 227.03 283.63 231.98 284.35 234.7 283.89 235.27 283.73 237.08 285.59 238.86 285.48 240.01 286.96 241.06 287.71 244.46 Z" id="37560340"/>
</g>
</svg>