<?xml version="1.0"?>
<svg xmlns="http://www.w3.org/2000/svg" version="1.2" baseProfile="tiny" width="800" height="739" viewBox="0 0 800 739" stroke-linecap="round" stroke-linejoin="round">
<g id="dong">
<path d="M 266.41 288.72 272.33 292.83 275.14 293.03 286.23 300.41 288.11 303.05 290.42 299.39 290.39 296.93 291.93 293.97 293.57 293.54 295.08 295.32 300.29 295.93 300.74 293.92 302.05 293.42 304.6 293.98 310.81 294.66 312.4 296.44 312.88 299.32 312.79 304.2 313.75 311.27 316.12 316.87 316.56 319.21 315.96 324.46 314.49 331.1 313.08 339.3 312.45 344.51 315.12 348.84 317.06 348.99 320.2 351.01 323.75 351.44 324.61 364.85 326.44 367.81 325.9 370.81 324.85 375.4 324.63 379.01 325.22 384.17 324.13 388.56 323.18 390.31 323.07 394.71 322.13 397.51 324.39 401.29 323.98 404.99 324.17 407.85 323.76 412.09 332.17 419.55 333.36 422.7 333.35 426.04 334.38 427.86 338.01 431.13 341.28 433.16 344.01 435.94 343.74 438.66 340.89 439.52 339.31 441.45 344.86 444.99 343.86 446.67 348.08 448.91 350.36 451.76 352.92 452.79 358.26 456.5 362.95 460.33 365.64 461.09 368.69 460.31 373.71 457.59 377.05 454.81 379.57 461.59 379.55 465.74 379.97 467.38 379.86 472.51 382.07 476.7 381.71 479.71 382.79 482.87 379.84 486.62 377.98 486.02 374.85 486.14 373.71 487.33 369.87 486.9 367.78 488.06 366.08 487.48 362.01 487.63 363.28 489.94 363.92 492.71 361.93 494.81 359.35 501.01 357.87 509.84 358.7 512.74 358.58 515.84 356.83 519.46 354.59 523.01 355.98 525.43 354.29 527.36 355.62 528.81 355.2 531.16 352.99 532.08 351.25 531.48 346.4 534.15 345.19 536.11 343.79 535.76 339.27 539.2 332.79 539.53 330.46 539.27 327.84 537.83 325.45 537.37 325.04 534.77 323.43 531.62 321.21 531.01 318.82 528.88 316.26 524.16 313.38 521.03 312.77 519.35 307.42 516.86 307.3 515.08 305.68 513.07 304.75 509.8 303.73 508.64 300.61 508.67 297.75 506.71 292.75 504.75 291.2 504.71 286.62 499.68 283.38 493.67 281.59 493.35 278.94 491.4 279.05 488.89 277.48 486.79 276.28 482.07 273.82 481.35 270.49 473.45 267.51 470.35 265.33 467.16 255.32 463.68 250.86 463.47 252.58 465.38 248.57 464.93 244.31 462.92 243.42 461.17 239.12 456.67 238.45 454.18 239.46 447.54 242.03 441.23 243.96 439.82 246.8 439.38 244.26 435.53 240.64 433.05 235.35 432.54 232.15 431.74 228.39 432.52 223.68 432.41 223.41 429.15 222.74 428.07 222.35 423.47 221 421.29 217.97 418.72 214.63 415.19 209.52 415.01 206.13 414.13 203.61 414.8 194.49 414.48 190.51 410.62 190.56 409.63 186.5 407.03 186.24 403.19 185.41 401.82 180 399.97 176.5 393.15 176.72 381.47 172.96 377.95 170.99 374.21 169.18 369.24 168.35 365.61 165.92 362.58 162.45 359.78 161.66 357.66 158.49 355.88 157.18 356.2 153.92 360.51 149.49 361.74 147.26 364.04 143.68 364.44 137.85 364.47 134.61 363.42 131.72 364.29 127.93 363.73 126.14 365.06 121.86 364.61 118.98 361.99 116.58 361.88 114.31 363.08 110.18 362.1 107.12 360.24 101.89 360.36 97.85 360.81 94.52 362.44 94.18 361.44 89 358.44 86.96 356.3 83.71 356.23 82.92 354.99 82.82 350.99 80.71 346.16 78.55 338.77 77.66 336.67 76.2 329.03 75.55 326.97 70.22 320.76 71.72 315.6 78.8 312.8 83.14 312.97 85.8 310.92 88.57 310.07 89.64 308.95 91.92 308.36 93.3 306.92 94.61 301.48 93.98 297.94 95.27 296.57 94.72 292.86 100.65 289.88 103.16 287.82 107.84 285.34 111.29 281.45 115.56 281.59 117.89 280.66 120.71 278.49 122.74 277.94 124.19 276.55 128.75 276.65 133.45 273.69 137.17 274.64 139.37 274.18 142.39 271.11 145.48 269.16 148.65 268.17 153.75 269.42 158.25 270.13 164.72 270.1 168.86 267.37 168.26 271.08 169.51 271.49 170.56 273.82 173.6 278.01 178.33 279.65 178.24 281.38 179.92 283.05 180.55 285.98 185.59 288.82 188.17 284.9 192.36 285.87 197.14 289.83 198.14 291.61 201.15 292.83 203.79 292.57 208.34 296.09 210.14 294.31 214.77 297.27 220.81 298.14 222.59 295.96 224.13 298.62 226.53 300.88 228.02 307.23 234.39 313.32 237.87 311.11 239.67 309.17 242.51 309.08 242.13 305.19 243.67 301.02 243.06 299.03 244.07 297.34 244.74 291.68 247.05 292.39 250.53 292.24 252.37 293.17 259.12 291.28 262.54 292.08 262.61 289.08 266.41 288.72 Z" id="37570120"/>
<path d="M 226.28 223.41 227.91 226.1 231.83 229.08 234.85 229.99 235.9 229.7 239.07 232.08 240.88 235.25 244.1 239.75 244.1 241.67 246.24 248.92 243.95 250 243.61 253.59 242.06 256.72 242.62 259.23 241.15 261.97 242.26 265.74 241.08 269.09 241.13 270.6 243.29 270.66 250.51 272.87 253.95 274.87 256.21 277.68 257.02 279.71 260.71 281.26 263.98 283.21 266.41 288.72 262.61 289.08 262.54 292.08 259.12 291.28 252.37 293.17 250.53 292.24 247.05 292.39 244.74 291.68 244.07 297.34 243.06 299.03 243.67 301.02 242.13 305.19 242.51 309.08 239.67 309.17 237.87 311.11 234.39 313.32 228.02 307.23 226.53 300.88 224.13 298.62 222.59 295.96 220.81 298.14 214.77 297.27 210.14 294.31 208.34 296.09 203.79 292.57 201.15 292.83 198.14 291.61 197.14 289.83 192.36 285.87 188.17 284.9 185.59 288.82 180.55 285.98 179.92 283.05 178.24 281.38 178.33 279.65 173.6 278.01 170.56 273.82 169.51 271.49 168.26 271.08 168.86 267.37 164.72 270.1 158.25 270.13 153.75 269.42 148.65 268.17 145.48 269.16 142.39 271.11 139.37 274.18 137.17 274.64 133.45 273.69 128.75 276.65 124.19 276.55 122.74 277.94 120.71 278.49 117.89 280.66 115.56 281.59 111.29 281.45 107.84 285.34 103.16 287.82 100.65 289.88 94.72 292.86 95.27 296.57 93.98 297.94 94.61 301.48 93.3 306.92 91.92 308.36 89.64 308.95 88.57 310.07 85.8 310.92 83.14 312.97 78.8 312.8 71.72 315.6 72.02 314.37 67 309.72 64.06 308.1 60.37 307.45 55.18 305.62 53.09 304.05 50.62 301.37 46.73 299.57 45.76 298.14 41.83 296.27 38.49 295.38 32.26 292.86 30.11 292.35 27.25 290.78 25.23 288.48 22.63 288.22 19.33 283.68 15.43 281.98 11.25 279.33 6.73 280.36 7.33 278.65 6.62 277.13 8.06 274.65 7.77 271.99 5.17 267.8 2.75 260.5 2.68 254.9 3.33 254.35 4.1 250.47 5.71 245.8 6.01 242.3 7.55 237.58 10.15 234.65 19.31 230.08 22.96 224.27 23.48 222.62 27.26 220.59 29.11 218.03 30.79 216.86 34.28 211.28 37.69 209.16 44.76 206.2 43.13 199.42 41.89 197.51 40.69 194.01 39.81 189.24 36.37 182.95 34.2 180.15 29.87 176.11 29.81 173.58 26.63 175.33 21.07 172.22 18.95 170.27 10.56 165.49 9.86 160.82 8.35 156.64 4.94 154.68 3.12 151.43 3.33 144.33 5.94 139.52 6.33 137.93 8.32 134.97 10.4 130.54 9.41 129.6 13.58 125.73 15.95 122.96 18.8 121.19 20.52 119.37 24.05 118.63 27.58 117.17 32.47 116.2 33.31 114.37 36.97 112.85 38.02 111.65 42.08 110.36 46.04 110.03 52.6 111.68 56.99 111.07 60.98 110.1 62.76 108.74 66.05 108.36 70.74 110.32 74.84 109.99 81.33 111.79 82.39 111.7 87.26 116.91 92.55 119.96 100.62 121.34 103.37 121.36 113.76 119.86 114.98 120.89 119.07 118.21 120.02 118.12 122.89 121.01 123.25 123.16 126.72 130.71 126.91 132.09 129.3 135.55 130.28 137.84 126.71 141.78 126.66 145.02 130.46 151.41 129.83 151.93 129.97 155.51 130.65 158.43 130.33 164.43 129.32 168.7 130.64 169.05 131.09 170.83 135.84 173.75 137.44 173.57 139.18 180.78 138.68 182.44 139.13 189.32 139.58 190.46 146.84 194.51 150.61 198.19 154.18 200.17 159.59 204.04 163.42 203.97 164.59 203.31 169.09 203.16 174.55 204.86 177.98 204.98 180.11 205.86 183.5 210.18 185.12 212.92 189.94 215.48 192.63 219.69 195.06 220.23 201.26 220.1 204.29 221.53 207.19 222.3 214.93 221.55 217.75 221.61 219.84 224.82 221.85 226 225.41 225.89 226.28 223.41 Z" id="37570310"/>
<path d="M 439.07 169.87 433.41 175.83 432.31 178.06 430.45 180.03 428.1 183.59 423.5 187.53 419.88 191.27 420.48 197.08 420.03 200 420.14 204.83 420.8 207.23 418.47 209.56 417 211.83 416.04 215.04 417.87 216.91 416.98 220.38 417.78 221.55 418.05 224.79 419.34 225.61 420.34 228.32 425.8 233.93 425.7 235.7 429.45 239.01 429.22 240.2 430.88 241.97 433.07 247.02 432.02 248.35 431.54 251.53 427.76 254.03 425.69 257.29 426.63 260.77 425.78 262.59 427.34 265.52 427.56 272.28 429.14 274.72 433.77 279.07 434.6 282.54 434.04 283.85 431.91 285.19 432.74 287.74 432.44 290.52 430.17 291.99 428.94 294.06 429.72 295.47 428.14 301.7 426.87 305.04 425.2 306.66 422.25 306.81 420.66 308.68 417.67 309.56 415.41 308.46 414.64 311.4 410.84 312.06 408.46 314.44 406.9 313.97 402.56 315.05 401.82 313.88 399.37 313.63 398.05 312.31 395.32 311.09 390.64 309.93 388.83 310.84 387.97 309.11 384.27 305.83 383.2 304.2 380.56 302.62 378.97 303.23 376.22 302.64 374.6 304.99 370.54 305.56 366.92 307 362.12 305.3 360.93 305.27 359.75 307.97 359.66 313.35 357.88 316.41 355.03 317.39 352.65 319.26 350.12 319.87 349.14 319.11 343.52 319.5 343.98 322.13 343.74 325.26 344.67 326.39 345.42 329.56 344.21 331.58 346.21 336.31 344.45 338.27 343.52 342.36 342.28 344.82 338.41 345.84 335.56 345.09 333.05 346.79 330.07 347.9 326.43 347.68 324.26 349.19 323.75 351.44 320.2 351.01 317.06 348.99 315.12 348.84 312.45 344.51 313.08 339.3 314.49 331.1 315.96 324.46 316.56 319.21 316.12 316.87 313.75 311.27 312.79 304.2 312.88 299.32 312.4 296.44 310.81 294.66 304.6 293.98 302.05 293.42 300.74 293.92 300.29 295.93 295.08 295.32 293.57 293.54 291.93 293.97 290.39 296.93 290.42 299.39 288.11 303.05 286.23 300.41 275.14 293.03 272.33 292.83 266.41 288.72 263.98 283.21 260.71 281.26 257.02 279.71 256.21 277.68 253.95 274.87 250.51 272.87 243.29 270.66 241.13 270.6 241.08 269.09 242.26 265.74 241.15 261.97 242.62 259.23 242.06 256.72 243.61 253.59 243.95 250 246.24 248.92 244.1 241.67 244.1 239.75 240.88 235.25 239.07 232.08 235.9 229.7 234.85 229.99 231.83 229.08 227.91 226.1 226.28 223.41 226.43 222.45 224.26 219.21 222.79 215.29 223.68 211.44 222.65 207.14 223.01 205.14 221.89 202.02 220.98 197.48 223.68 195.72 229.67 194.98 232.56 193.07 238.03 190.07 241.29 190.49 244.3 187.27 245.83 180.24 247.68 180.23 250.73 179.12 251.38 177.92 259.11 180.86 263.48 183.94 272.34 191.17 274.27 189.5 274.09 184.57 275.71 182.24 276.81 177.87 279.67 177.14 280.52 173.11 279.94 172.6 278.67 167.66 279.3 163.39 276.67 158.47 277.94 154.24 275.88 150.49 276.42 148.6 279.3 144.48 280.83 139.22 281.55 134.14 279.04 128.65 277.66 127.22 276.83 122.75 276.35 118.06 277.42 113.55 278.14 112.94 278.95 109.16 278.73 102.72 278.09 100.34 278.23 95.96 279.48 88.33 282.56 83.71 285.44 83.1 289.82 83.57 288.71 82.04 292.59 81.06 293.5 81.5 300.17 81.32 302.49 82.27 305.71 82.79 310.62 84.77 314.83 84.65 318.88 83.67 321.65 88.21 322.57 91.14 324.21 93.31 327.99 96.48 329.66 98.67 330.77 98.6 335.05 102.67 337.22 106.1 338.45 108.96 340.88 111.4 342.78 117.84 346.14 117.56 350.45 117.97 353.53 118.8 356.23 120.93 358.08 125.96 360.09 125.24 368.44 125.61 371.77 125.16 374.07 121.66 377.91 118.75 378.65 120.41 385.28 121.85 387.13 121.29 391.1 122.23 393.25 125.14 397.61 125.61 397.2 128.74 398.03 133.52 400.03 136.23 402.13 137.42 406.79 138.2 413.24 142.22 421.75 152.25 424.93 155.57 429.88 158.07 433.46 163.17 437.61 167.24 439.07 169.87 Z" id="37570320"/>
<path d="M 513.21 179.08 514.88 183.1 517.16 185.87 518.65 186.62 518.93 188.56 521.59 190.27 522.88 193.56 524.36 194.03 526.38 195.93 527.3 200.49 529.33 201.23 534.13 205.5 535.39 207.65 535.89 210.42 537.32 211.05 538.8 213.04 541.53 213.68 543.62 215.2 545.75 213.21 547.3 212.79 549.47 210.57 552.77 208.23 558.38 205.14 559.75 204.95 563.33 207.2 569.18 206.57 571.19 205.77 573.43 209.53 578.84 207.81 581.45 206.43 587.11 202.69 587.89 199.51 595.92 201.51 592.85 211.59 591.51 218.34 588.57 225.56 586.92 228.51 584.23 231.83 575.23 242.07 569.18 252.24 564.51 262.35 560.37 272.48 556.51 277.96 554.3 282.64 553.93 287.23 554.92 289.29 557.76 292.55 565.17 302.34 570.65 312.18 571.96 314.94 574.13 318.15 579.15 321.95 586.88 327.26 599.54 333.03 612.25 341.03 624.92 347.3 636.42 354.49 631.34 360.05 631.82 360.45 628.61 364.81 626.98 366.33 623.97 366.12 618.53 366.63 616.89 368.51 617.6 370.6 616.65 377.82 618.38 380.26 617.33 382.08 617.84 383.62 617.81 387.58 618.88 388.1 619.57 391.11 618.02 392.36 615.12 397.26 612.98 397.62 609.08 402.01 600.71 404.52 600 403.14 596.74 400.34 595.2 400.11 589.68 394.32 586.43 394.49 581.53 395.69 578.62 394.51 576.56 391.98 571.18 386.55 569.04 386.71 567.93 384.16 565.93 382.1 563.91 378.84 562.98 375.75 559.9 375.68 557.76 377.64 551.69 374.54 548.83 374.7 547.16 372.53 541.53 372.64 540.07 369.85 538.18 368.12 536.58 368.09 534.31 364.9 533.24 361.83 529.34 359.22 527.93 357.68 526.15 357.84 524.18 362.75 518.52 367.42 516.54 370.25 514.47 369.52 509.2 372.81 507.82 371.47 505.47 371.2 502.9 372.02 497.13 372.7 495.37 372.59 493.14 369.47 487.71 365.49 481.45 363.18 477.06 364.2 473.52 366.58 471.19 365.54 468.67 366.55 462.26 366.39 457.77 368.11 457.7 370.1 455.66 371.43 457.1 375.61 456.32 382.91 454.81 385.65 451.69 387.04 446.97 385.08 443.86 387.88 442.23 388.46 439.43 388.24 435.95 384.67 432.29 382.45 429.14 381.97 425.74 379.29 423.84 379.3 422.33 377.87 419.51 378.16 417.87 379.28 413.75 378.93 408.03 377.08 405.53 379.02 402.62 377.83 400.41 379.32 398.28 378.59 395.23 379.8 393.88 381.28 392.15 381.37 388.21 377.54 385.21 375.82 380.97 375.62 378.75 373.55 376.02 372.61 372.62 373.05 371.52 371.66 368.98 371.62 368.18 370.11 365.57 369.62 363.46 367.7 360.33 367.25 357.61 367.63 356.61 364.84 354.74 363.56 351.13 362.74 347.74 366.34 347.24 368.04 347.7 370.14 349.55 372.91 348.4 373.77 346.74 372.21 344.19 371.76 340.01 371.84 336.04 370.9 334.57 371.51 325.9 370.81 326.44 367.81 324.61 364.85 323.75 351.44 324.26 349.19 326.43 347.68 330.07 347.9 333.05 346.79 335.56 345.09 338.41 345.84 342.28 344.82 343.52 342.36 344.45 338.27 346.21 336.31 344.21 331.58 345.42 329.56 344.67 326.39 343.74 325.26 343.98 322.13 343.52 319.5 349.14 319.11 350.12 319.87 352.65 319.26 355.03 317.39 357.88 316.41 359.66 313.35 359.75 307.97 360.93 305.27 362.12 305.3 366.92 307 370.54 305.56 374.6 304.99 376.22 302.64 378.97 303.23 380.56 302.62 383.2 304.2 384.27 305.83 387.97 309.11 388.83 310.84 390.64 309.93 395.32 311.09 398.05 312.31 399.37 313.63 401.82 313.88 402.56 315.05 406.9 313.97 408.46 314.44 410.84 312.06 414.64 311.4 415.41 308.46 417.67 309.56 420.66 308.68 422.25 306.81 425.2 306.66 426.87 305.04 428.14 301.7 429.72 295.47 428.94 294.06 430.17 291.99 432.44 290.52 432.74 287.74 431.91 285.19 434.04 283.85 434.6 282.54 433.77 279.07 429.14 274.72 427.56 272.28 427.34 265.52 425.78 262.59 426.63 260.77 425.69 257.29 427.76 254.03 431.54 251.53 432.02 248.35 433.07 247.02 430.88 241.97 429.22 240.2 429.45 239.01 425.7 235.7 425.8 233.93 420.34 228.32 419.34 225.61 418.05 224.79 417.78 221.55 416.98 220.38 417.87 216.91 416.04 215.04 417 211.83 418.47 209.56 420.8 207.23 420.14 204.83 420.03 200 420.48 197.08 419.88 191.27 423.5 187.53 428.1 183.59 430.45 180.03 432.31 178.06 433.41 175.83 439.07 169.87 439.9 171.28 446.8 172.6 450.92 172.66 456.64 171.06 463.5 167.09 467.49 165.47 470.67 165.19 475.86 169.3 483.78 172.12 488.08 172.2 491.54 174.03 499.11 178.7 499.96 178.54 505.31 181.25 508.43 181.72 511.85 180.35 513.21 179.08 Z" id="37570330"/>
<path d="M 633.04 2.86 639.04 5.53 667.84 7.64 681.35 11.68 702.56 12.62 715.73 16.28 729.33 23.69 741.67 31.31 757.26 36.78 762.92 37.12 762.51 40.57 772.3 55.24 776.34 58.42 793.65 65.51 794.65 69.71 797.26 78.05 798.66 87.18 799 92.86 798.86 102.42 798.34 110 795.43 108.55 786.56 119.87 775.19 129.66 774.04 130.32 776.33 135.9 772.65 137.96 768.32 139.74 751.88 139.92 750.75 139.58 746.57 140.28 743.41 139.04 736.12 140.09 695.28 140.53 695.04 140.46 694.93 130.54 644.96 131.09 645.07 140.39 643.77 141.1 632.58 141.22 632.69 151.21 624.42 151.3 620.26 156.65 619.86 161.96 613.84 162.48 609.42 171.15 605.56 181.25 600.2 191.4 595.92 201.51 587.89 199.51 587.11 202.69 581.45 206.43 578.84 207.81 573.43 209.53 571.19 205.77 569.18 206.57 563.33 207.2 559.75 204.95 558.38 205.14 552.77 208.23 549.47 210.57 547.3 212.79 545.75 213.21 543.62 215.2 541.53 213.68 538.8 213.04 537.32 211.05 535.89 210.42 535.39 207.65 534.13 205.5 529.33 201.23 527.3 200.49 526.38 195.93 524.36 194.03 522.88 193.56 521.59 190.27 518.93 188.56 518.65 186.62 517.16 185.87 514.88 183.1 513.21 179.08 514.89 175.46 514.99 172.08 516.07 165.88 516.21 159.33 515.85 149.11 518.79 143.33 519.23 138.78 516.61 131.57 515.99 128.24 516.62 119.98 517.4 118.39 515.39 110.16 516.91 109.05 518.44 109.63 520.39 109.14 524.27 109.39 525.5 108.43 529.43 108.75 535.13 101.39 536.19 101.23 540.12 90.7 538.83 81.34 536.81 76.96 536.04 76.23 534.89 70.51 532.77 66.98 533.25 63.33 530.11 58.27 525.45 55.07 529.71 50.92 534.17 50.51 539 46.24 539.6 46.5 546.12 42.07 549.15 43.55 560.65 43.65 562.63 42.55 565.61 42.66 568.69 43.64 572.44 43.34 573.44 41.05 573.15 36.43 569.96 34.95 569.53 33.91 567.09 32.23 566.66 29.51 564.7 24.53 561.23 13.3 561.05 10.58 558.91 9.99 557.99 4.39 560.55 1 565.39 2.14 577.88 1.81 590.38 1.99 618.57 1.75 631.05 1.97 633.04 2.86 Z" id="37570340"/>
<path d="M 683.41 414.46 684.11 419.02 684.12 431.89 683.6 435.76 682.19 442.5 680.13 446.16 677.72 449.2 666.98 459.49 661.34 466.71 655.81 471.34 653.38 472.81 645.69 475.59 640.96 475.51 636.49 476.83 628.52 477.52 615.9 472.85 590.68 464.7 578.13 462.69 566.21 461.77 553.09 461.19 549.73 460.01 540.47 456.75 528.34 450.7 515.18 446.04 510.6 443.81 502.56 441.51 495.35 440.18 492.93 440.71 486.62 444.47 477.94 454.71 477.34 468.7 477.6 474.71 479.59 484.66 482.59 495.66 476.15 495.65 472.35 494.48 470.46 494.56 463.38 493.58 457.82 493.85 457.27 493.02 457.94 487.32 457.2 485.56 457.36 481.34 455.85 478.4 451.57 474.68 448.9 474.51 447.96 472.32 445.87 469.63 444.1 464.15 442.38 460.97 440.03 459.91 436.78 456.6 432.52 452.86 427.98 449.76 427.76 447.73 426.18 446.98 422.45 447.14 419.48 446.58 415.16 447.01 412.46 449.57 406.33 456.06 403 456.12 401.84 453.73 399.99 451.51 396.43 450.03 390.32 449.64 385.29 450.9 377.94 453.72 377.05 454.81 373.71 457.59 368.69 460.31 365.64 461.09 362.95 460.33 358.26 456.5 352.92 452.79 350.36 451.76 348.08 448.91 343.86 446.67 344.86 444.99 339.31 441.45 340.89 439.52 343.74 438.66 344.01 435.94 341.28 433.16 338.01 431.13 334.38 427.86 333.35 426.04 333.36 422.7 332.17 419.55 323.76 412.09 324.17 407.85 323.98 404.99 324.39 401.29 322.13 397.51 323.07 394.71 323.18 390.31 324.13 388.56 325.22 384.17 324.63 379.01 324.85 375.4 325.9 370.81 334.57 371.51 336.04 370.9 340.01 371.84 344.19 371.76 346.74 372.21 348.4 373.77 349.55 372.91 347.7 370.14 347.24 368.04 347.74 366.34 351.13 362.74 354.74 363.56 356.61 364.84 357.61 367.63 360.33 367.25 363.46 367.7 365.57 369.62 368.18 370.11 368.98 371.62 371.52 371.66 372.62 373.05 376.02 372.61 378.75 373.55 380.97 375.62 385.21 375.82 388.21 377.54 392.15 381.37 393.88 381.28 395.23 379.8 398.28 378.59 400.41 379.32 402.62 377.83 405.53 379.02 408.03 377.08 413.75 378.93 417.87 379.28 419.51 378.16 422.33 377.87 423.84 379.3 425.74 379.29 429.14 381.97 432.29 382.45 435.95 384.67 439.43 388.24 442.23 388.46 443.86 387.88 446.97 385.08 451.69 387.04 454.81 385.65 456.32 382.91 457.1 375.61 455.66 371.43 457.7 370.1 457.77 368.11 462.26 366.39 468.67 366.55 471.19 365.54 473.52 366.58 477.06 364.2 481.45 363.18 487.71 365.49 493.14 369.47 495.37 372.59 497.13 372.7 502.9 372.02 505.47 371.2 507.82 371.47 509.2 372.81 514.47 369.52 516.54 370.25 518.52 367.42 524.18 362.75 526.15 357.84 527.93 357.68 529.34 359.22 533.24 361.83 534.31 364.9 536.58 368.09 538.18 368.12 540.07 369.85 541.53 372.64 547.16 372.53 548.83 374.7 551.69 374.54 557.76 377.64 559.9 375.68 562.98 375.75 563.91 378.84 565.93 382.1 567.93 384.16 569.04 386.71 571.18 386.55 576.56 391.98 578.62 394.51 581.53 395.69 586.43 394.49 589.68 394.32 595.2 400.11 596.74 400.34 600 403.14 600.71 404.52 609.08 402.01 612.98 397.62 615.12 397.26 618.02 392.36 619.57 391.11 618.88 388.1 617.81 387.58 617.84 383.62 617.33 382.08 618.38 380.26 616.65 377.82 617.6 370.6 616.89 368.51 618.53 366.63 623.97 366.12 626.98 366.33 628.61 364.81 631.82 360.45 631.34 360.05 636.42 354.49 644.76 360.12 650.36 363.47 656.03 369.81 667.43 379.49 675.98 386.08 679.54 392.93 681.25 399.11 683.41 414.46 Z" id="37570350"/>
<path d="M 482.59 495.66 485.52 504.49 489.11 514.39 492.26 521.06 499.24 531.97 505.31 541.07 518.15 553.58 526.62 563.34 531.05 568.02 536.66 573.06 545.1 580.01 556.63 589.24 559.2 592.43 569.4 599.11 572.24 602.07 580.78 607.49 595.02 621.44 600.45 631.28 601.66 641.25 604.28 651.17 605.65 661.13 604.03 670.35 596.58 678.45 594.1 681.45 589.43 691.57 584.66 699.53 582.05 701.77 575.73 711.95 572.62 715.93 560.31 722.37 548 729.33 535.6 733.05 531.52 738 516.1 730.55 513.71 730.7 512.43 726.58 512.65 725.85 511.18 714.94 510.83 709.73 509.77 703.23 508.52 692.22 506.32 683.3 502.44 672.56 496.02 657.75 493.43 652.94 487.92 644.3 483.68 638.48 481.28 635.92 473.81 630.34 470.51 630.81 470.2 631.7 467.2 632.49 464.73 631.46 462.15 631.65 460.28 631.04 457.09 631.17 455.24 635.55 449.16 636.19 445.64 635.71 443.5 634.41 442.15 631.45 440.85 631.17 438.05 628.87 431.47 627.51 424.88 624.64 422.61 625.98 421.34 627.71 418.08 629.89 411.28 630.68 405.94 625.55 403.66 624.41 401.5 620.32 399.21 618.1 395.82 616.01 391.67 615.9 384.82 611.44 375.73 607.75 373.49 607.51 365.99 604.25 362.7 604.67 361.01 606.1 358.62 606.44 354.81 604.74 350.53 603.6 348.7 602.56 346.24 602.23 345.06 600.63 345.89 597.38 348.26 595.45 350.02 587.58 349.74 585.54 350.75 583.62 351.11 580.67 343.44 572.47 343.16 571 341.04 567.08 338.47 564.64 334.02 561.85 331.11 553.57 328.5 551.09 328.83 549.3 328.61 544.72 330.46 539.27 332.79 539.53 339.27 539.2 343.79 535.76 345.19 536.11 346.4 534.15 351.25 531.48 352.99 532.08 355.2 531.16 355.62 528.81 354.29 527.36 355.98 525.43 354.59 523.01 356.83 519.46 358.58 515.84 358.7 512.74 357.87 509.84 359.35 501.01 361.93 494.81 363.92 492.71 363.28 489.94 362.01 487.63 366.08 487.48 367.78 488.06 369.87 486.9 373.71 487.33 374.85 486.14 377.98 486.02 379.84 486.62 382.79 482.87 381.71 479.71 382.07 476.7 379.86 472.51 379.97 467.38 379.55 465.74 379.57 461.59 377.05 454.81 377.94 453.72 385.29 450.9 390.32 449.64 396.43 450.03 399.99 451.51 401.84 453.73 403 456.12 406.33 456.06 412.46 449.57 415.16 447.01 419.48 446.58 422.45 447.14 426.18 446.98 427.76 447.73 427.98 449.76 432.52 452.86 436.78 456.6 440.03 459.91 442.38 460.97 444.1 464.15 445.87 469.63 447.96 472.32 448.9 474.51 451.57 474.68 455.85 478.4 457.36 481.34 457.2 485.56 457.94 487.32 457.27 493.02 457.82 493.85 463.38 493.58 470.46 494.56 472.35 494.48 476.15 495.65 482.59 495.66 Z" id="37570360"/>
<path d="M 330.46 539.27 328.61 544.72 328.83 549.3 328.5 551.09 331.11 553.57 334.02 561.85 338.47 564.64 341.04 567.08 343.16 571 343.44 572.47 351.11 580.67 350.75 583.62 349.74 585.54 350.02 587.58 348.26 595.45 345.89 597.38 345.06 600.63 346.24 602.23 344.91 602.95 345.59 605.03 345.32 608.13 343.77 614.85 341.96 619.05 338.63 618.23 333.89 618.75 330.85 616.66 326.2 614.71 321.7 614.03 317.17 614.59 312.34 614.16 306.6 614.85 304.49 614.12 300.16 614.77 297.88 616.66 296.06 620.93 297.26 625.84 295.07 630.16 293.68 631.15 290.26 631.92 287.1 631.37 281.85 631.73 277.8 635.38 269.33 636.9 266.94 637.81 262.7 640.15 261.5 642.47 257.88 644.52 256.1 642.5 252.23 634.19 250.76 631.56 248.48 629.21 242.91 626.6 236.42 623.97 232.42 620.44 230.44 620.56 228.52 618.99 226.53 619.13 222.52 615.77 222.23 615 219.04 613.25 215.35 610.49 213.95 608.89 212.84 606.39 210.52 606.34 206.38 607.42 204.49 610.35 204.99 613.12 202.48 616.73 196.35 617.41 192.9 619.89 193.42 625.32 194.23 629.22 193.42 631.18 194.87 633.61 196.57 639.69 196.43 642.37 194.17 646.48 194.22 647.23 191.73 652.37 187.66 653.95 183.78 654.16 182.13 653.48 179.03 655.16 176.85 655.54 175.4 655.26 171.22 651.18 168.83 649.29 161.47 650.67 157.3 651.85 154.88 653.75 153.05 654.23 148.61 652.68 146.28 651.25 141.17 651.33 137.3 652.01 132.12 650.34 130.7 646.71 129.37 645.3 128.54 642.94 123.84 643.35 122.9 644.29 118.52 643.14 113.55 643.37 111.77 644.02 105.75 643.42 103.76 640.75 102.27 637.77 102.45 634.59 101.73 631.46 99.67 626.93 97.63 625.32 94.95 621.95 92.01 621.72 87.12 615.78 84.94 614.46 84.23 612.6 81.71 609.51 74.27 605 70.1 603.37 67.23 601.75 65.44 601.37 60.85 602.74 55.64 603.92 51.46 603.47 45.23 604.33 44.46 603.81 40.32 607.11 35.05 610.35 30.8 611.99 29.29 611.53 22.39 613.92 21.2 614.01 17.47 616.21 12.49 616.03 6.51 613.92 3.19 610.62 3.26 609.6 1 604.89 1.47 602.57 5.13 597.07 6.7 595.63 5.44 593.17 5.95 590.22 5.5 586.67 4.48 582.51 2.01 577.63 2.52 572.15 5.28 568.18 7.51 566.09 8.21 561.95 7.91 558.32 9.41 557.67 11.82 553.86 14.05 553.77 18.46 551.86 19.54 552.69 23.3 552.97 34.91 555.09 37.22 554.08 38.74 552.44 41.07 551.34 42.61 551.74 49.06 555.04 50.11 554.75 54.41 547.64 57.28 546.55 57.44 544.48 59.35 543.41 61.31 543.26 61.88 533.18 66.54 533.63 69.56 534.3 73.14 532.7 75.74 534.03 76.97 535.37 79.77 536.83 81.76 534.71 82.47 530.5 82.6 527.36 88.33 529.61 92.93 528.59 96.84 525.8 95.49 523.06 97.21 522.56 97.35 519.92 99.44 519.1 104.66 519.78 106.44 521.42 113.18 520.73 110.29 513.34 110.15 510.52 111.53 506.77 111.13 504.69 108.14 500.16 107.43 494.21 109.91 488.22 111.21 486.3 112.15 483.36 111.94 479.46 110.27 476.29 109.95 473.63 110.43 471.56 109.6 469.41 108.71 462.49 107.35 460.03 104.16 456.07 104.2 454.45 102.45 452.32 101.32 448.99 100.87 443.46 102.44 440.41 104.58 439.41 106.36 435.45 106.23 431.12 104.89 428.19 105.11 422.14 104.63 419.86 105.54 418.13 103.71 414.9 104.77 413.34 103.61 410.91 98.35 410.01 99.69 406.98 101.59 404.42 102.83 401.21 101.53 399.91 98.35 392.83 97.06 391.88 96.27 387.67 95.28 384.84 91.09 379.32 91 376.04 94.27 368.55 94.52 362.44 97.85 360.81 101.89 360.36 107.12 360.24 110.18 362.1 114.31 363.08 116.58 361.88 118.98 361.99 121.86 364.61 126.14 365.06 127.93 363.73 131.72 364.29 134.61 363.42 137.85 364.47 143.68 364.44 147.26 364.04 149.49 361.74 153.92 360.51 157.18 356.2 158.49 355.88 161.66 357.66 162.45 359.78 165.92 362.58 168.35 365.61 169.18 369.24 170.99 374.21 172.96 377.95 176.72 381.47 176.5 393.15 180 399.97 185.41 401.82 186.24 403.19 186.5 407.03 190.56 409.63 190.51 410.62 194.49 414.48 203.61 414.8 206.13 414.13 209.52 415.01 214.63 415.19 217.97 418.72 221 421.29 222.35 423.47 222.74 428.07 223.41 429.15 223.68 432.41 228.39 432.52 232.15 431.74 235.35 432.54 240.64 433.05 244.26 435.53 246.8 439.38 243.96 439.82 242.03 441.23 239.46 447.54 238.45 454.18 239.12 456.67 243.42 461.17 244.31 462.92 248.57 464.93 252.58 465.38 250.86 463.47 255.32 463.68 265.33 467.16 267.51 470.35 270.49 473.45 273.82 481.35 276.28 482.07 277.48 486.79 279.05 488.89 278.94 491.4 281.59 493.35 283.38 493.67 286.62 499.68 291.2 504.71 292.75 504.75 297.75 506.71 300.61 508.67 303.73 508.64 304.75 509.8 305.68 513.07 307.3 515.08 307.42 516.86 312.77 519.35 313.38 521.03 316.26 524.16 318.82 528.88 321.21 531.01 323.43 531.62 325.04 534.77 325.45 537.37 327.84 537.83 330.46 539.27 Z" id="37570370"/>
</g>
</svg>