<?xml version="1.0"?>
<svg xmlns="http://www.w3.org/2000/svg" version="1.2" baseProfile="tiny" width="800" height="777" viewBox="0 0 800 777" stroke-linecap="round" stroke-linejoin="round">
<g id="dong">
<path d="M 449.37 347.62 456.38 350.37 464.6 352.25 474.06 352.65 479.23 352.45 489.62 352.5 487.86 354.03 485.98 356.56 485.19 359.83 482.76 360.73 482.03 363.13 478.08 363.96 475.97 366.56 476.35 367.56 472.69 370.93 472.28 373.9 471.09 376.28 469.36 377.55 468.59 380.63 465.26 384.6 469.48 387.07 468.11 388.58 466.92 392.3 467.13 392.95 471.96 394.88 471.97 396.81 474.02 396.73 475.45 398.65 477.63 399.52 473.63 401.42 471.95 402.66 468.95 403.21 464.69 404.63 463.11 408.09 460.17 409.7 458.34 411.62 457.7 413.35 459.05 415.41 457.52 418.09 459.13 419.12 459.97 423.14 459.75 424.88 461.31 426.93 462.22 429.53 461.94 431.31 460.22 434.08 457.98 435.52 453.22 437.36 453.04 441.12 451.99 442.1 451.14 445.63 447.29 449.74 445.63 452.34 444.45 455.54 445.41 458.38 452.02 462.94 453.46 470.57 452.21 473.14 449.32 475.69 448.27 477.69 447.14 478.36 440.04 479.37 438.34 480.9 436.56 479.94 433.74 481.23 429.84 482.38 427.54 483.46 425.87 483.6 421.91 481.09 420.35 477.44 419.29 476.43 417.87 477.03 414.88 476.23 411.27 476.55 406.79 476.32 403.04 473.37 399.34 473.17 396.87 471.56 396.67 469.07 394.07 469.47 392.88 467.72 388.82 467.39 385.09 464.92 383.71 465.08 382.3 467.37 381.06 467.47 379.05 468.92 379.12 470.99 371.55 474.51 366.97 475.67 365.27 475.29 362.52 476.52 358.4 477.53 355.21 477.59 353.78 476.49 350.67 478.4 349.79 482.53 347.74 483.25 347.47 484.8 348.38 486.18 347.78 488.55 345.18 490.91 345.03 493.14 342.62 495.71 336.9 497.12 337.53 500.87 338.28 501.93 338.84 506.18 337.21 508.9 337.13 511.07 335.96 512.33 333.31 511.46 330.43 511.44 328 507.66 326.66 506.9 317.76 504.14 311.44 503.99 304.21 503.54 301.13 502.36 298.49 500.37 294.31 495.82 292.1 491.94 288.5 487.76 290.54 484.4 290.02 480.69 291.48 478.95 291.97 475.6 293.15 474.99 294.87 472.77 292.54 466.98 292.39 465.52 293.17 461.25 295.65 459.69 295.67 458.04 293.87 454.57 293.47 452.87 289.03 449.34 284.14 447.59 283.29 446.16 280.23 444.3 280.65 440.41 277.83 439.55 277.38 435.04 275.07 432.97 274.44 428.42 275.29 426.2 280.32 424.62 283.04 425.43 284.68 424.19 290.09 425.64 292.3 424.12 296.61 423.56 299.37 424.45 300.4 424.08 305.48 416.47 307.49 414.43 309.44 414.33 313.44 411.71 315.26 411.41 315.48 409.22 316.78 408.19 318.47 409.77 321.91 410.55 323.23 412.27 326.26 413.22 325.94 414.94 331.31 417.35 332.35 421.32 333.63 423.23 339.02 423.83 340.58 425.12 342.86 424.3 346.69 425.23 348.59 424.27 349.79 424.53 353.51 423.55 354.15 419.77 360.71 416.64 361.17 413.06 363.22 412.22 364.53 408.5 366.37 405.74 366.01 402.72 368.49 399.37 370.04 399.05 370.69 397.65 372.54 395.88 375.31 396.29 376.2 395.1 373.35 391.8 372.71 388.72 373.55 386.98 373.91 384.19 376.01 379.51 377.28 378.81 378.23 371.98 374.36 369.7 371.74 367.53 371.12 367.84 364.07 367.36 364.01 363.92 361.81 361.63 361.86 360.16 363.14 357.4 365.74 355.77 364.34 352.62 365.34 351.69 366.85 350.13 368.01 351.05 371.26 351.66 372.69 349.99 372.67 347.55 375.25 342.94 374.8 342.03 376.24 340.57 378.42 336.65 380.16 336.77 384.73 339.02 385.42 340.09 387.22 339.01 388.15 339.44 390.17 337.98 393.62 337.65 395.38 340.13 396.99 344.35 398.16 344.81 398.69 347.51 399.84 349.52 401.25 350.08 401.75 352.23 404 354.17 406.1 355.21 408.11 357.3 408.66 360.06 406.8 364.16 406.77 366.52 407.89 367.87 406.51 371.52 406.78 372.65 408.83 375.31 413.13 382.96 416.74 385.99 418.2 386.69 420.13 382.04 423.06 382.01 425.94 379.74 426.24 375.81 425.25 375.14 424.59 372.55 426.72 370.07 427.4 367.75 425.97 365.55 427.97 360.27 429.68 358.48 432.29 357.72 434.61 355.62 436.3 352.28 438.41 350.51 442.55 349.44 446.2 346.96 449.37 347.62 Z" id="37580360"/>
<path d="M 331.99 66.93 331.9 69.78 333.41 72.82 332.61 76.76 332.88 79.12 338.07 83.99 335.24 86.33 335.03 88.81 339.57 92.98 340.9 95.05 346.64 94.91 351.25 93.55 352.11 94.67 357.58 94.05 360.54 92.83 362.3 93.34 363.3 95.6 366.29 95.91 375.17 99.21 377.86 105.01 380.44 106.52 383.17 107.04 385.74 109.97 381.65 114.61 381.55 117.78 379.18 124.94 377.02 127.3 376.72 129.28 375.39 131.58 375.22 134.19 377.52 136.4 374.69 141.26 375.99 142.68 376.85 144.78 374.69 149.15 373.33 152.66 371.8 153.8 370.06 159.02 370.66 161.74 375.38 165.08 377.3 166.08 380.57 162.52 383.79 160.16 387.98 164.52 389.33 169.31 386.87 172.68 390.32 175.28 391.47 177.14 391.6 178.74 393.77 180.82 392.89 183.19 393.04 186.63 398.34 192.44 402.63 194.38 407.06 200.67 410.96 202.84 411.16 208.94 410.22 211.34 411.19 212.86 410.87 214.66 411.99 218.45 413.1 220.3 412.72 224.74 410.49 226.09 408.93 230.98 410.49 233.81 413.74 236.94 415.53 237.62 417.78 240.34 417.06 242.93 418.48 245.1 418.07 250.22 420.44 251.73 421.96 253.34 422.58 259.03 424.54 260.48 427.65 260.61 429.19 262.76 432.66 264.03 433.11 267.55 432.63 269.38 433.04 271.93 435.08 271.89 435.04 274.34 435.59 277.54 436.59 278.73 435.98 282.1 437.43 284.17 439.35 285.34 440.81 285.39 443.43 286.71 444.59 285.68 446.45 286.63 447.25 290.26 450.15 291.52 450.81 292.52 453.56 289.78 455.11 289.18 456.37 287.17 458.33 288.5 457.8 291.19 459.4 296.17 459.55 299.95 458.23 300.71 458.33 302.04 460.7 303.55 462.56 306.43 463.9 309.34 466.85 311.44 469.76 315.59 470.02 318.59 470.63 319.41 466.84 319.6 463.62 322.28 461 323.49 456.79 323.03 454.92 325.96 454.88 328.23 453.35 331.77 453.7 337.91 452.06 339.35 452.23 340.46 448.41 342.57 449.68 345.24 449.37 347.62 446.2 346.96 442.55 349.44 438.41 350.51 436.3 352.28 434.61 355.62 432.29 357.72 429.68 358.48 427.97 360.27 425.97 365.55 427.4 367.75 426.72 370.07 424.59 372.55 425.25 375.14 426.24 375.81 425.94 379.74 423.06 382.01 420.13 382.04 418.2 386.69 416.74 385.99 413.13 382.96 408.83 375.31 406.78 372.65 406.51 371.52 407.89 367.87 406.77 366.52 406.8 364.16 408.66 360.06 408.11 357.3 406.1 355.21 404 354.17 401.75 352.23 401.25 350.08 399.84 349.52 398.69 347.51 398.16 344.81 396.99 344.35 395.38 340.13 393.62 337.65 390.17 337.98 388.15 339.44 387.22 339.01 385.42 340.09 384.73 339.02 380.16 336.77 378.42 336.65 376.24 340.57 374.8 342.03 375.25 342.94 372.67 347.55 372.69 349.99 371.26 351.66 368.01 351.05 366.85 350.13 365.34 351.69 363.75 350.5 358.72 351.43 356.81 350.72 352.44 351.11 343.85 350.25 343.34 350.68 340.64 349.12 337.66 349 334.6 351.81 333.22 353.63 329.63 355.57 325.98 351.48 324.18 350.18 322.15 349.72 319.5 347.69 316.7 347.24 315.8 345.69 316.93 343.62 315.65 339.73 316.72 337.59 318.19 336.02 315.83 333.54 314.97 330.97 315.39 327.69 313.4 326.35 313.8 324.72 313.21 321.85 311.98 321.03 310.46 318.67 307.33 310.84 307.4 308.88 305.77 306.52 299.31 304.84 297.69 308.21 296.19 310.25 293.48 311.34 291.5 311.52 287.89 313.31 286.37 312.62 285.23 313.19 282.54 312.31 279.69 312.29 275.69 310.25 276.26 308.26 274.77 306.23 273.46 303.07 270.82 300.91 269.35 297.44 269.93 294.52 269.67 292.63 270.45 289.22 269.59 287.4 270.19 285.9 268.25 283.74 265.6 279.41 262.79 278.05 260.31 277.6 257.27 272.76 257.23 271.4 255.38 271.35 251.32 267.48 248.78 262.9 248.95 259.91 246.85 259.01 242.91 254.93 236.58 251.87 235.7 250.57 239.14 244.2 239.79 242.35 238.2 241.12 235.9 235.48 234.65 233.17 233.46 232.51 235.67 227.72 235.14 224.18 236.45 221.94 237.89 222.17 241.5 218.5 247.9 218.82 246.1 215.34 246.67 213.65 246.55 211.37 247.59 206.57 249.76 203.72 249.93 198.56 248.57 195.95 250.07 191.83 258.28 190.46 260.45 189.86 266.94 188.86 268.87 190.43 272.12 188.21 273.21 186.89 273.6 184.95 275.44 182.97 275.82 180.55 277.12 178.55 277.44 176.48 279 175.6 278.76 172.35 277.26 171.24 277.9 168.42 279.31 165.8 277.28 165.27 273.71 161.62 272.09 159.06 268.98 158.06 269.45 156.56 269.09 154.03 267.48 152.41 269.46 150.8 270.24 148.73 270.29 146.52 271.86 141.76 272.22 136.71 273.91 130.08 273.37 128.55 274.77 125.43 277.1 124.91 278.05 123.04 280.66 120.47 282.37 120.09 284.6 116.96 281.35 113.8 281.1 111.94 279.5 108.77 278.9 106.12 275.17 105.42 272.31 102.22 271.55 99.44 271.36 95.24 272.84 93.65 272.42 91.27 271.38 89.27 272.07 87 271.85 83.14 269.94 73.36 265.57 71.19 265.49 68.99 263.62 66.39 266.91 64.15 267.42 62.87 270.4 61.08 274.87 57.73 282.1 64.12 286.45 65.5 289.5 67.58 293.81 69.31 296.24 68.21 302.04 67.26 305.76 63.02 309 63.65 310.87 62.71 315.02 67.66 318.32 69.18 319.75 69.13 321.9 67.76 326.81 68.86 330.22 68.14 331.99 66.93 Z" id="37580370"/>
<path d="M 537.55 275.55 536.1 276.44 532.96 276.49 531.78 278.66 529.82 280.2 529.14 282.18 521.94 283.44 519.49 286.18 516.11 283.76 514.7 287.37 512.5 289.41 512.46 291.75 511.15 294.35 512.79 296.56 513.13 298.76 514.58 299.58 516.51 302.45 512.54 304.57 510.27 309.12 506.26 312.56 503.69 313.28 502.71 314.66 500.86 315.23 499.77 314.39 496.99 315 492.27 314.26 489.99 315.25 484.77 310.88 481.11 311.34 479.4 313.08 477.95 316.16 478.26 317.31 474.36 319.53 470.63 319.41 470.02 318.59 469.76 315.59 466.85 311.44 463.9 309.34 462.56 306.43 460.7 303.55 458.33 302.04 458.23 300.71 459.55 299.95 459.4 296.17 457.8 291.19 458.33 288.5 456.37 287.17 455.11 289.18 453.56 289.78 450.81 292.52 450.15 291.52 447.25 290.26 446.45 286.63 444.59 285.68 443.43 286.71 440.81 285.39 439.35 285.34 437.43 284.17 435.98 282.1 436.59 278.73 435.59 277.54 435.04 274.34 435.08 271.89 433.04 271.93 432.63 269.38 433.11 267.55 432.66 264.03 429.19 262.76 427.65 260.61 424.54 260.48 422.58 259.03 421.96 253.34 420.44 251.73 418.07 250.22 418.48 245.1 417.06 242.93 417.78 240.34 415.53 237.62 413.74 236.94 410.49 233.81 408.93 230.98 410.49 226.09 412.72 224.74 413.1 220.3 411.99 218.45 410.87 214.66 411.19 212.86 410.22 211.34 411.16 208.94 410.96 202.84 407.06 200.67 402.63 194.38 398.34 192.44 393.04 186.63 392.89 183.19 393.77 180.82 391.6 178.74 391.47 177.14 390.32 175.28 386.87 172.68 389.33 169.31 387.98 164.52 383.79 160.16 380.57 162.52 377.3 166.08 375.38 165.08 370.66 161.74 370.06 159.02 371.8 153.8 373.33 152.66 374.69 149.15 376.85 144.78 375.99 142.68 374.69 141.26 377.52 136.4 375.22 134.19 375.39 131.58 376.72 129.28 377.02 127.3 379.18 124.94 381.55 117.78 381.65 114.61 385.74 109.97 383.17 107.04 380.44 106.52 377.86 105.01 375.17 99.21 366.29 95.91 363.3 95.6 362.3 93.34 360.54 92.83 357.58 94.05 352.11 94.67 351.25 93.55 346.64 94.91 340.9 95.05 339.57 92.98 335.03 88.81 335.24 86.33 338.07 83.99 332.88 79.12 332.61 76.76 333.41 72.82 331.9 69.78 331.99 66.93 332.25 64.94 334.42 61.44 334.06 60.02 331.9 56.1 335.62 51.87 334.77 49.92 334.6 47.42 330.74 45.24 330.41 43.06 330.8 39.35 330.68 34.75 329.24 30.85 330.59 31.19 335.82 26.73 340.1 26.66 344.4 27.62 346.29 27.63 350.81 28.94 353.54 28.69 357.17 30.02 360.11 29.65 361.92 28.09 364.06 28.82 369.11 25.2 371.67 23.8 372.56 20.95 375.57 19.29 377.96 19.43 384.59 12.45 386.8 8.8 391.1 7.3 392.6 5.25 394.5 4.24 395.53 1 402.05 4.36 402.63 5.88 405.72 4.88 408.32 5.09 410.92 4.6 413.12 5.61 415.7 7.67 418.7 9.09 420.84 11.7 423.47 13.56 427.59 14.14 436.18 19.3 441.28 19.14 444.39 18.39 447.22 17.25 449.15 17.4 454.49 20.27 456.05 19.4 457.32 16.79 460.4 14.69 461.44 14.8 466.74 10.26 469.24 10.44 471.15 9.92 472.9 12.71 477.2 16.83 481.31 19.1 484.65 17.6 487.32 18.23 499.84 18.39 507.32 20.12 509.8 22.16 513.35 19.97 518.5 22.21 521.93 21.59 525.88 23.02 531.6 23.09 533.51 25.07 535.07 25.4 536.46 26.72 539.07 30.33 544.11 33.16 546.26 31.21 546.78 38.6 545.97 40.25 549.97 44.18 550.13 48.6 551.61 52.79 552.99 52.84 557.69 57.06 560.34 65.49 560.9 66.69 557.16 66.65 553.15 67.95 551.53 70.69 547.95 72.86 548.76 76.03 550.22 78.28 549.83 82.37 548.75 85.12 545.34 86.52 542.52 88.82 540.2 92.27 539.12 95.96 537.91 98.78 539.39 101.94 535.89 104.43 536.15 108.24 538.13 111.75 537.95 114.98 533.77 116.98 533.99 118.91 535.25 120.37 532.26 123.34 530.7 129.3 528.96 131.24 530.11 136.45 531.18 139.32 529.95 144.7 530.07 147.82 530.72 151.34 532.26 153.92 531.8 159.39 536.47 162.99 537.89 167.23 538.81 172.15 536.39 172.69 533.67 174.43 532.63 174.01 529.83 175.33 527.57 177.01 524.22 178.43 522.19 181.72 520.57 186.27 518.9 188.62 518.77 190.49 520.1 192.89 520.47 197.67 517.7 203.02 516.3 203.85 514.7 206.05 513.32 206.1 511.9 209.21 509.84 212.19 506.23 212.39 504.89 213.35 496.95 212.66 494.73 213.56 493.97 223.6 494.45 227.52 495.84 233.59 495.29 240.02 495.62 242.56 499.54 245.65 502.11 246.64 506.29 247.7 509.4 248.89 512.61 251.13 515.4 251.62 518.85 253.21 520.36 252.79 521.59 253.61 527.28 252.96 531.52 253.01 530.93 257.15 531.72 258.09 532.49 261.43 534.21 261.85 537.32 264.91 536.54 269.28 538.12 270.92 538.72 273.53 537.55 275.55 Z" id="37580380"/>
<path d="M 594.21 74.28 593.32 77.81 594.56 79.73 595.2 83.27 596.65 85.54 596.62 88.29 599.87 91.16 602.26 90.54 603.58 92.05 604.67 94.39 605.54 98.37 609.68 100.44 610.1 101.21 606.43 105.02 604.05 109.82 602.64 110.57 598.2 111.43 597.86 113.37 598.57 121.94 599.58 124.45 598.47 125.43 597.74 130.35 595.62 131.22 594.96 132.84 596.57 134.78 598.05 140.75 597.81 142.12 601.8 142.96 602.66 144.4 602.88 146.68 602.43 148.89 603.04 150.86 603.04 153.66 600.7 159.52 601.05 171.08 603.5 176.56 606.36 181.46 605.96 183.27 608.65 185.45 611.13 186.91 613.4 195.59 614.3 200.2 617.58 202.91 620.19 203.64 627.47 208.49 632.48 207.29 633.24 206.45 635.6 206.34 638.62 207.76 639.1 210.88 638.17 212.64 638.34 214.5 643.06 213.63 646.29 213.46 646.99 215.41 651.92 217.43 656.07 217.76 656.98 217.16 658.5 218.94 660.56 219.47 660.63 221.28 659.74 223.75 659.85 226.53 660.56 229.4 660.7 234.72 668.4 241.55 663.38 252.22 666.84 257.77 671.18 258.19 671.92 260.29 671.45 262.82 675.39 266.71 676.85 269 679.67 275.68 680.92 277.15 678.86 279.38 677.34 281.78 675.47 282.05 673.5 284.23 673.17 285.54 670.36 286.8 668.3 290.71 665.46 297.04 655.63 298.69 650.63 304.45 649.84 308.9 648.47 314.66 646.78 317.22 645.53 320.33 651.46 326.62 651.2 329.41 652.02 332.7 651.05 334.88 651.52 337.08 649.68 345.96 650.12 350.71 649.47 352.27 647.45 354.6 647.75 358.97 647.04 361.07 646.79 366.06 647.65 369.27 643.81 371.4 640.96 373.94 636.64 376.53 630.68 375.31 629.57 374.46 632.47 366.54 632.44 364.77 629.66 358.94 628.19 358.36 624.23 358.05 618.78 355.26 614.24 352.66 610.4 349.74 607.64 350.53 603.76 352.7 600.21 352.1 596 349.99 598.21 344.94 597.13 341.13 597.46 339.79 595.76 338.19 595.4 336.01 593.65 334.19 591.96 331.4 593.95 324.51 595.79 320.97 591.22 316.54 588.08 316.4 585.99 315.58 584.83 314.32 582.65 310.02 580.7 303.23 580.49 300.2 581.18 295.38 581.28 291.97 578.06 286.36 569.36 279.27 568 277.89 563.29 277.7 560.57 278.36 554.82 277.52 552.93 278.51 550.04 278.44 547.15 279.9 545.27 277.44 542.17 276.94 539.03 278.48 537.84 277.53 537.55 275.55 538.72 273.53 538.12 270.92 536.54 269.28 537.32 264.91 534.21 261.85 532.49 261.43 531.72 258.09 530.93 257.15 531.52 253.01 527.28 252.96 521.59 253.61 520.36 252.79 518.85 253.21 515.4 251.62 512.61 251.13 509.4 248.89 506.29 247.7 502.11 246.64 499.54 245.65 495.62 242.56 495.29 240.02 495.84 233.59 494.45 227.52 493.97 223.6 494.73 213.56 496.95 212.66 504.89 213.35 506.23 212.39 509.84 212.19 511.9 209.21 513.32 206.1 514.7 206.05 516.3 203.85 517.7 203.02 520.47 197.67 520.1 192.89 518.77 190.49 518.9 188.62 520.57 186.27 522.19 181.72 524.22 178.43 527.57 177.01 529.83 175.33 532.63 174.01 533.67 174.43 536.39 172.69 538.81 172.15 537.89 167.23 536.47 162.99 531.8 159.39 532.26 153.92 530.72 151.34 530.07 147.82 529.95 144.7 531.18 139.32 530.11 136.45 528.96 131.24 530.7 129.3 532.26 123.34 535.25 120.37 533.99 118.91 533.77 116.98 537.95 114.98 538.13 111.75 536.15 108.24 535.89 104.43 539.39 101.94 537.91 98.78 539.12 95.96 540.2 92.27 542.52 88.82 545.34 86.52 548.75 85.12 549.83 82.37 550.22 78.28 548.76 76.03 547.95 72.86 551.53 70.69 553.15 67.95 557.16 66.65 560.9 66.69 564.06 67.24 565.8 66.55 570.27 69.36 572.59 69.43 574.33 70.57 576.43 70.02 577.1 67.5 580.64 67.52 582.04 68.5 584.07 68.57 588.27 70.21 589.57 71.62 593.41 72.09 594.21 74.28 Z" id="37580390"/>
<path d="M 603.76 352.7 602.48 353.47 603.48 355.56 604.94 355.82 606.62 358.57 605.22 360.22 604.59 362.19 603.3 363.02 599.36 369.54 597.93 369.71 596.31 371.47 596.24 376.26 595.81 377.27 597.18 383.52 598.02 385.28 596.93 388.15 597.27 390.34 595.95 393.54 597.59 397.26 597.83 399.05 599.3 399.99 598.4 403.38 600.09 403.24 600.14 406.02 603.87 407.61 603.33 408.96 604.16 410.88 604.17 414.01 606.29 416.12 605.86 418.51 603.88 419.65 603.01 421.11 600.24 422.51 600.8 424.57 600.18 426.74 602.64 428.09 603.88 429.45 603.55 433.85 603.71 436.95 604.41 440.45 602.51 444.11 599.05 445.12 596.38 447.12 595.17 449.06 590.69 450.91 585.56 451.91 582.28 453.97 580.51 454.44 579.07 455.8 576.86 456.47 574.45 455.89 570.21 457.89 565.54 456.85 564.63 453.35 562.36 452.06 559.88 453.04 559.01 454.45 556.56 454.23 555.06 455.77 552.19 456.66 549.59 458.52 548.68 460.13 546.15 458.83 543.39 461.9 539.79 462.68 537.08 464.15 535.91 462.33 529.53 464.9 528.25 463.83 526.33 465.33 523.19 465.25 519.54 465.97 516.49 467.33 514.49 467.7 510.9 469.41 509.55 469.43 505.18 466.67 501.16 468.71 497.8 470.77 497 472.8 492.13 473.61 490.85 474.5 486.61 475.19 485.13 474.11 481.59 473.52 478.62 471.18 474.65 470.94 470.72 468.99 464.01 467.88 458 470.35 455.49 468.04 453.46 470.57 452.02 462.94 445.41 458.38 444.45 455.54 445.63 452.34 447.29 449.74 451.14 445.63 451.99 442.1 453.04 441.12 453.22 437.36 457.98 435.52 460.22 434.08 461.94 431.31 462.22 429.53 461.31 426.93 459.75 424.88 459.97 423.14 459.13 419.12 457.52 418.09 459.05 415.41 457.7 413.35 458.34 411.62 460.17 409.7 463.11 408.09 464.69 404.63 468.95 403.21 471.95 402.66 473.63 401.42 477.63 399.52 475.45 398.65 474.02 396.73 471.97 396.81 471.96 394.88 467.13 392.95 466.92 392.3 468.11 388.58 469.48 387.07 465.26 384.6 468.59 380.63 469.36 377.55 471.09 376.28 472.28 373.9 472.69 370.93 476.35 367.56 475.97 366.56 478.08 363.96 482.03 363.13 482.76 360.73 485.19 359.83 485.98 356.56 487.86 354.03 489.62 352.5 479.23 352.45 474.06 352.65 464.6 352.25 456.38 350.37 449.37 347.62 449.68 345.24 448.41 342.57 452.23 340.46 452.06 339.35 453.7 337.91 453.35 331.77 454.88 328.23 454.92 325.96 456.79 323.03 461 323.49 463.62 322.28 466.84 319.6 470.63 319.41 474.36 319.53 478.26 317.31 477.95 316.16 479.4 313.08 481.11 311.34 484.77 310.88 489.99 315.25 492.27 314.26 496.99 315 499.77 314.39 500.86 315.23 502.71 314.66 503.69 313.28 506.26 312.56 510.27 309.12 512.54 304.57 516.51 302.45 514.58 299.58 513.13 298.76 512.79 296.56 511.15 294.35 512.46 291.75 512.5 289.41 514.7 287.37 516.11 283.76 519.49 286.18 521.94 283.44 529.14 282.18 529.82 280.2 531.78 278.66 532.96 276.49 536.1 276.44 537.55 275.55 537.84 277.53 539.03 278.48 542.17 276.94 545.27 277.44 547.15 279.9 550.04 278.44 552.93 278.51 554.82 277.52 560.57 278.36 563.29 277.7 568 277.89 569.36 279.27 578.06 286.36 581.28 291.97 581.18 295.38 580.49 300.2 580.7 303.23 582.65 310.02 584.83 314.32 585.99 315.58 588.08 316.4 591.22 316.54 595.79 320.97 593.95 324.51 591.96 331.4 593.65 334.19 595.4 336.01 595.76 338.19 597.46 339.79 597.13 341.13 598.21 344.94 596 349.99 600.21 352.1 603.76 352.7 Z" id="37580110"/>
<path d="M 789.56 311.97 791.43 316.43 792.24 327.74 795.06 337.71 796.88 347.7 797.68 353.63 797.78 356.15 797.31 361.51 797.39 365.99 796.6 367.75 795.96 371.16 794.83 373.49 794.7 377.81 796.23 381.93 796.73 387.1 795.59 393.83 794.68 397.84 793.5 407.94 797.78 417.85 798.17 420.19 798.55 430.75 799 437.87 796.73 447.94 795.62 450.42 792.16 455.92 790.37 461.06 789.31 463.21 786.11 473.17 784.9 478.26 782.47 481.89 779.77 488.38 778.47 493.65 778.21 498.44 775.81 506.48 772.98 511.33 769.82 515.43 768.95 517.06 766.46 523.59 766.22 526.35 765.19 532.23 764.99 536.82 765.22 542.84 765.03 545.55 765.68 548.82 765.28 551.33 765.38 559.25 760.21 559.22 756.28 560.84 751.21 557.04 750.15 555.27 749.91 550.88 748.84 549.01 747.2 547.92 751.19 546.24 751.66 547.34 754.21 546.93 757.77 545.15 758.77 543.18 758.69 540.3 756.95 537.62 753.47 535.93 751.6 535.58 748.53 533.89 745.92 531.76 743.57 529.21 743.05 528.01 742.59 523.35 740.51 519.26 738.88 515.34 738.59 513.65 732.42 512.98 729.05 511.79 725.8 508.9 725.92 504.92 725.31 499.13 723.96 495.99 722.84 494.6 720.29 494.16 718.6 491.36 716.31 492.76 713.47 488.12 711.21 489.5 710.69 488.64 708.61 489.91 706.98 488.64 704.24 488.58 701.55 490.84 698.12 489.07 696.42 489.53 692.57 485.07 690.13 485.39 688.39 487 686.42 487.17 683.37 489.1 683.23 493.02 680.3 493.89 677.7 495.2 676.47 494.28 674.87 495.35 673.03 494.04 670.03 495.05 668.78 496.38 664.95 498.51 663.88 500.12 661.65 501.26 660.59 507.26 659.74 509.84 656.68 515.74 656.36 519.17 650.74 520.79 649.74 520.32 646.13 521.7 642.83 523.78 640.72 523.61 637.51 522.2 633.75 518.86 630.95 520.13 625.7 518.41 624.34 519.97 623.92 521.97 624.16 527.25 624.79 530.85 624.54 533.65 625.77 534.72 627.14 538.58 623.08 539.39 618.96 541.21 616.4 540.9 613.9 541.99 610.66 540.96 609.57 541.44 608.66 544.07 605.51 545.4 602.86 546.04 601.7 544.81 600.92 542.3 599.56 542.95 597.38 542.79 594.29 541.83 592.27 543.05 589.54 542 586.66 543.09 586.66 540.68 585.5 538.94 583.81 534.44 581.86 533.28 580.68 531.5 577.32 531.74 573.49 529.79 570.62 532.32 565.9 527.8 564.98 525.29 563.35 523.95 563.12 522.17 563.64 518.61 562.13 517.07 562.55 511.49 563.27 509.63 560.61 508.78 560.18 504.53 560.69 504 561.4 500.28 563.87 498.98 564.21 496.17 567.13 494.81 563.32 491.19 560.6 490.6 558.91 489.45 556.88 487.19 556.35 485.21 554.57 484.82 554.31 482.21 553.6 480.99 553.45 478.6 554.34 476.45 554.23 474.92 555.87 473.35 554.86 471.1 552.57 468.11 549.91 465.65 549.69 463.1 548.68 460.13 549.59 458.52 552.19 456.66 555.06 455.77 556.56 454.23 559.01 454.45 559.88 453.04 562.36 452.06 564.63 453.35 565.54 456.85 570.21 457.89 574.45 455.89 576.86 456.47 579.07 455.8 580.51 454.44 582.28 453.97 585.56 451.91 590.69 450.91 595.17 449.06 596.38 447.12 599.05 445.12 602.51 444.11 604.41 440.45 603.71 436.95 603.55 433.85 603.88 429.45 602.64 428.09 600.18 426.74 600.8 424.57 600.24 422.51 603.01 421.11 603.88 419.65 605.86 418.51 606.29 416.12 604.17 414.01 604.16 410.88 603.33 408.96 603.87 407.61 600.14 406.02 600.09 403.24 598.4 403.38 599.3 399.99 597.83 399.05 597.59 397.26 595.95 393.54 597.27 390.34 596.93 388.15 598.02 385.28 597.18 383.52 595.81 377.27 596.24 376.26 596.31 371.47 597.93 369.71 599.36 369.54 603.3 363.02 604.59 362.19 605.22 360.22 606.62 358.57 604.94 355.82 603.48 355.56 602.48 353.47 603.76 352.7 607.64 350.53 610.4 349.74 614.24 352.66 618.78 355.26 624.23 358.05 628.19 358.36 629.66 358.94 632.44 364.77 632.47 366.54 629.57 374.46 630.68 375.31 636.64 376.53 640.96 373.94 643.81 371.4 647.65 369.27 646.79 366.06 647.04 361.07 647.75 358.97 647.45 354.6 649.47 352.27 650.12 350.71 649.68 345.96 651.52 337.08 651.05 334.88 652.02 332.7 651.2 329.41 651.46 326.62 645.53 320.33 646.78 317.22 648.47 314.66 649.84 308.9 650.63 304.45 655.63 298.69 665.46 297.04 668.3 290.71 670.36 286.8 673.17 285.54 673.5 284.23 675.47 282.05 677.34 281.78 678.86 279.38 680.92 277.15 683.99 277.97 686.99 277.13 690.19 274.09 692.48 273.12 694.5 274.06 703.72 273.43 706.77 272.68 710.1 275.47 712.36 275.6 712.78 278.89 715.36 281.3 716.83 281.67 718.81 285.14 718.64 287.26 719.73 288.17 720.38 290.29 719.46 293.44 717.2 296.71 717.92 298.91 720.16 303.73 722.17 305.09 724.16 305.55 727.1 307.41 728.22 311.87 734.03 313 739.29 312.26 742.46 312.14 744.37 312.57 748.28 314.42 750.05 315.79 752.03 319.77 753.41 320.83 756.32 318.31 758.46 318.72 760 317.65 762.75 317.87 766.1 318.96 767.12 318.22 770.52 319.82 772.2 318.27 775.33 314 776.16 312 780.46 313.4 783.95 313.92 786.48 313.71 787.38 312.51 789.56 311.97 Z" id="37580310"/>
<path d="M 765.38 559.25 769.92 560.68 772.3 563.41 773.14 568.51 775.09 569.05 775.26 571.53 778.42 581.77 780.2 586.3 780.59 588.79 782.82 590.32 783.21 591.27 786.12 592.61 786.38 596.83 785.47 598.92 782.05 599.19 779.24 598.3 776.53 598.19 774.72 599.19 764.25 599.11 761.48 597.76 755.54 601.79 754.99 601.55 750.59 605.45 746.52 605.83 742.64 609.61 746.89 612.52 749.75 617.13 749.32 620.47 751.24 623.69 752.3 628.9 753 629.57 754.84 633.56 756.02 642.09 752.43 651.69 751.47 651.84 746.27 658.54 742.69 658.26 741.57 659.13 738.03 658.9 736.26 659.35 734.86 658.82 733.48 659.83 735.31 667.33 734.6 668.78 734.03 676.31 734.59 679.35 736.98 685.92 736.57 690.07 733.9 695.34 734.22 704.66 734.1 710.63 733.11 716.28 733.02 719.36 731.49 722.66 730.25 723.82 727.13 725.07 724.29 724.64 719.42 722.17 718.64 722.32 711.74 718.06 708.59 716.4 704.67 716.31 697.45 713.75 692.72 710 689.83 710.26 686.19 711.73 679.94 715.35 674.72 716.81 670.97 716.75 664.68 715.55 663.92 714.27 662.59 711.87 658.81 708.16 655.55 703.51 651.03 701.23 648.14 698.2 640.39 689.06 634.5 685.39 630.26 684.68 628.35 683.6 626.53 681.13 625.76 676.77 626.14 673.92 622.17 673.49 620.21 670.83 616.59 669.97 614.9 670.49 608.86 669.18 608.18 667.66 604.69 670.32 602.59 673.5 599.55 673.91 591.95 673.58 590.11 674.23 588.43 669.65 585.97 667.71 583.16 666.95 579.23 666.58 576.17 666.83 574.44 660.96 572.23 658.73 571.1 656.13 569.13 653.01 565.23 649.29 564.22 649.36 562.69 647.36 559.25 644.47 557.76 642.5 556.91 639.82 554.39 635.68 550.7 636.58 546.87 636.68 542.39 634.88 539.45 634.4 537.34 633.54 531.26 633.7 530.43 633.3 526.9 634.2 527.91 635.59 523.92 635.16 522.91 634.48 520.52 631.32 520.95 628.52 518.17 626.22 516.74 624.4 514.35 622.93 510.73 623.98 508.61 623.77 503.04 620.56 500.22 619.63 498.11 615.8 496.66 614.53 492.24 615.67 489.46 617.57 487.24 617.27 484.09 618.1 482.93 617.89 479.29 618.68 475.97 619.9 473.03 618.98 471.35 619.02 469.84 616.72 469.68 614.92 465.23 611.03 462.79 610.75 461.86 609.61 458.98 608.22 456.21 608.95 453.01 605.61 453.11 603.19 451.55 593.6 450.13 592.26 450.33 589.14 452.43 587.93 453.55 585.89 455.51 585.47 453.28 580.05 452.26 579.46 452.74 576.11 454.64 572.48 453.91 569.35 451.55 566.87 450.71 564.44 448.56 561.66 448.62 558.84 446.06 556.72 446.44 552.99 449.67 550.41 448.26 546.71 448.34 544.61 446 538.84 443.26 538.02 441.39 535.63 438.23 532.38 437.95 529.5 435.48 524.21 431.74 521.57 431.12 520.55 428.54 520.32 426.3 521.85 424.59 524.48 421.68 520.63 421.85 519.08 421.43 512.13 422.15 508.86 421.63 507.38 423.04 505.18 422.63 503.96 423.66 502.13 423.41 500.54 427.61 496.29 427.66 489.99 425.92 486.13 425.87 483.6 427.54 483.46 429.84 482.38 433.74 481.23 436.56 479.94 438.34 480.9 440.04 479.37 447.14 478.36 448.27 477.69 449.32 475.69 452.21 473.14 453.46 470.57 455.49 468.04 458 470.35 464.01 467.88 470.72 468.99 474.65 470.94 478.62 471.18 481.59 473.52 485.13 474.11 486.61 475.19 490.85 474.5 492.13 473.61 497 472.8 497.8 470.77 501.16 468.71 505.18 466.67 509.55 469.43 510.9 469.41 514.49 467.7 516.49 467.33 519.54 465.97 523.19 465.25 526.33 465.33 528.25 463.83 529.53 464.9 535.91 462.33 537.08 464.15 539.79 462.68 543.39 461.9 546.15 458.83 548.68 460.13 549.69 463.1 549.91 465.65 552.57 468.11 554.86 471.1 555.87 473.35 554.23 474.92 554.34 476.45 553.45 478.6 553.6 480.99 554.31 482.21 554.57 484.82 556.35 485.21 556.88 487.19 558.91 489.45 560.6 490.6 563.32 491.19 567.13 494.81 564.21 496.17 563.87 498.98 561.4 500.28 560.69 504 560.18 504.53 560.61 508.78 563.27 509.63 562.55 511.49 562.13 517.07 563.64 518.61 563.12 522.17 563.35 523.95 564.98 525.29 565.9 527.8 570.62 532.32 573.49 529.79 577.32 531.74 580.68 531.5 581.86 533.28 583.81 534.44 585.5 538.94 586.66 540.68 586.66 543.09 589.54 542 592.27 543.05 594.29 541.83 597.38 542.79 599.56 542.95 600.92 542.3 601.7 544.81 602.86 546.04 605.51 545.4 608.66 544.07 609.57 541.44 610.66 540.96 613.9 541.99 616.4 540.9 618.96 541.21 623.08 539.39 627.14 538.58 625.77 534.72 624.54 533.65 624.79 530.85 624.16 527.25 623.92 521.97 624.34 519.97 625.7 518.41 630.95 520.13 633.75 518.86 637.51 522.2 640.72 523.61 642.83 523.78 646.13 521.7 649.74 520.32 650.74 520.79 656.36 519.17 656.68 515.74 659.74 509.84 660.59 507.26 661.65 501.26 663.88 500.12 664.95 498.51 668.78 496.38 670.03 495.05 673.03 494.04 674.87 495.35 676.47 494.28 677.7 495.2 680.3 493.89 683.23 493.02 683.37 489.1 686.42 487.17 688.39 487 690.13 485.39 692.57 485.07 696.42 489.53 698.12 489.07 701.55 490.84 704.24 488.58 706.98 488.64 708.61 489.91 710.69 488.64 711.21 489.5 713.47 488.12 716.31 492.76 718.6 491.36 720.29 494.16 722.84 494.6 723.96 495.99 725.31 499.13 725.92 504.92 725.8 508.9 729.05 511.79 732.42 512.98 738.59 513.65 738.88 515.34 740.51 519.26 742.59 523.35 743.05 528.01 743.57 529.21 745.92 531.76 748.53 533.89 751.6 535.58 753.47 535.93 756.95 537.62 758.69 540.3 758.77 543.18 757.77 545.15 754.21 546.93 751.66 547.34 751.19 546.24 747.2 547.92 748.84 549.01 749.91 550.88 750.15 555.27 751.21 557.04 756.28 560.84 760.21 559.22 765.38 559.25 Z" id="37580320"/>
<path d="M 270.67 776 268.77 774.39 265.73 773.22 263.23 772.93 259.78 768.12 259.52 766.84 257.75 764.27 259.87 758.11 256.12 756.02 252.75 755.56 250.19 753.8 249.22 750.52 244.67 752.1 239.98 754.51 237.04 757.04 234.79 757.47 231.88 756.24 230.61 756.47 227.75 755.14 225.32 755.43 220.82 756.68 217.68 756.26 215.76 757.38 211.15 757.05 207.18 755.48 204.58 752.48 199 747.26 198.48 747.27 195.15 744.05 193.72 743.31 190.85 743.16 191.18 739.61 190.33 732.95 190.89 729.4 188.99 727.61 186.94 724.29 186.61 722.12 185.13 721.11 182.03 715.67 180.82 712.41 181.3 711.25 179.58 709.89 177.58 709.33 176.36 705.23 175.17 703.99 177.24 702.1 177.74 698.64 178.5 698.06 175.33 693.58 174.39 688.27 175.32 685.21 174.98 680.9 178.85 677.91 177.64 674 176.27 673.6 178.01 668.96 179.12 663.75 179.28 661.7 180.65 659.6 179.37 657.94 177.17 651.32 179.13 651.31 182.79 649.03 184.44 649.14 193.49 647.32 198.99 645.79 205.64 648.22 208.88 649.16 214.19 648.73 214.26 646.15 212.66 644.91 211.88 640.89 219.84 633.81 220.09 632.44 223.59 625.73 225.93 624.11 229.89 617.69 232.27 615.58 236.89 604.42 239.92 603.61 244.36 604.24 247.26 599.97 249.64 594.28 251.89 591.71 253.22 591.97 254.69 591.05 261.09 589.88 261.84 589.08 262.95 585.63 262.18 582.3 262.92 577.37 264.45 573.42 268.59 572.25 270.05 570.46 270.17 568.8 271.59 565.9 273.22 566 275.12 563.91 278.99 562.78 283.63 562.69 285.63 563.28 287.06 562.62 288.62 563.44 292.88 563.07 294.84 564.22 298.51 563.64 299.64 562.31 298.6 560.71 299.03 556.3 297.83 555.76 297.89 553.99 294.59 550.55 293.49 545.52 293.56 540.72 292.25 538.31 291.15 537.94 290.23 535.98 293.01 532.91 294.92 528.55 297.22 521.72 299.77 516.53 300.46 513.93 299.79 510.63 303.42 507.18 304.21 503.54 311.44 503.99 317.76 504.14 326.66 506.9 328 507.66 330.43 511.44 333.31 511.46 335.96 512.33 337.13 511.07 337.21 508.9 338.84 506.18 338.28 501.93 337.53 500.87 336.9 497.12 342.62 495.71 345.03 493.14 345.18 490.91 347.78 488.55 348.38 486.18 347.47 484.8 347.74 483.25 349.79 482.53 350.67 478.4 353.78 476.49 355.21 477.59 358.4 477.53 362.52 476.52 365.27 475.29 366.97 475.67 371.55 474.51 379.12 470.99 379.05 468.92 381.06 467.47 382.3 467.37 383.71 465.08 385.09 464.92 388.82 467.39 392.88 467.72 394.07 469.47 396.67 469.07 396.87 471.56 399.34 473.17 403.04 473.37 406.79 476.32 411.27 476.55 414.88 476.23 417.87 477.03 419.29 476.43 420.35 477.44 421.91 481.09 425.87 483.6 425.92 486.13 427.66 489.99 427.61 496.29 423.41 500.54 423.66 502.13 422.63 503.96 423.04 505.18 421.63 507.38 422.15 508.86 421.43 512.13 421.85 519.08 421.68 520.63 424.59 524.48 426.3 521.85 428.54 520.32 431.12 520.55 431.74 521.57 435.48 524.21 437.95 529.5 438.23 532.38 441.39 535.63 443.26 538.02 446 538.84 448.34 544.61 448.26 546.71 449.67 550.41 446.44 552.99 446.06 556.72 448.62 558.84 448.56 561.66 450.71 564.44 451.55 566.87 453.91 569.35 454.64 572.48 452.74 576.11 452.26 579.46 453.28 580.05 455.51 585.47 453.55 585.89 452.43 587.93 450.33 589.14 450.13 592.26 451.55 593.6 453.11 603.19 453.01 605.61 456.21 608.95 458.98 608.22 461.86 609.61 462.79 610.75 465.23 611.03 469.68 614.92 469.84 616.72 471.35 619.02 473.03 618.98 475.97 619.9 479.29 618.68 482.93 617.89 484.09 618.1 487.24 617.27 489.46 617.57 492.24 615.67 496.66 614.53 498.11 615.8 500.22 619.63 503.04 620.56 508.61 623.77 510.73 623.98 514.35 622.93 516.74 624.4 518.17 626.22 520.95 628.52 520.52 631.32 522.91 634.48 523.92 635.16 521.29 635.72 518.49 639.93 517.35 646.88 517.22 650.88 517.8 653.05 518.01 658.92 517.26 662.37 516.6 662.92 515.63 667.03 516.07 671.31 516.82 675.38 518.09 676.69 520.37 681.7 519.71 686.33 518.32 691.12 515.7 694.88 515.2 696.6 517.09 700.02 515.92 703.87 518.32 708.36 517.74 712.26 518.91 716.76 519.43 717.22 518.66 720.89 516.05 721.56 515.05 725.55 513.57 727.67 513.74 732.16 511.98 733.69 503.91 727.1 499.92 724.28 492.87 721.61 492.29 722.7 489.5 723.71 487.82 723.72 486.43 730.13 483.68 733.06 480.71 732.68 475.73 735.42 473.09 737.16 467.63 737.83 465.17 739.44 466 743.58 467.02 746.42 466.7 748.24 467.63 752.16 466.82 755.67 468.16 759.25 470.14 762.21 470 763.07 469.21 765.34 465.97 765.44 464.13 764.36 462.23 761.44 459.66 761.38 452.61 762.06 449.96 761.37 447.2 760.06 441.55 760.18 439.34 759.69 436.88 755.84 432.49 753.52 431.01 751.02 427.93 747.08 425.99 746.27 422.86 746.17 417.88 744.62 413.78 744.75 412.72 745.36 409.23 745.42 404.3 741.9 401.04 740.08 397.61 736.73 390.99 733.04 390.58 732 390.17 725.72 390.63 724.21 389.04 717.64 387.58 717.8 383.25 715.14 382.84 713.52 381.64 713.2 382.56 709.31 382.85 703.84 382.23 701.18 382.1 697.91 382.68 697.43 379.21 691.61 379.26 688.66 382.51 685.07 381.62 682.98 379.45 679.83 379.27 678.56 376.11 671.69 375.78 669.72 373.17 667.09 372.29 667.17 368.57 669.61 367.46 668.67 357.99 670.04 355.48 670.02 348.13 668.77 343.31 665.99 338.87 661.23 337.9 661.32 331.99 659.67 328.25 659.98 323.98 658.19 320.99 658.54 319.36 659.78 315.72 660.66 311.72 661.22 305.75 659.71 302.14 660.01 298.43 661.19 297.48 662.29 294.14 663.67 293.38 665.33 288.92 666.22 285.7 667.55 282.48 668.23 280.92 669.88 278.32 671.5 276.16 674.03 272.36 677.55 273.26 678.41 271.37 682.45 269.56 685.15 269.2 686.6 266.82 690.98 266.63 697.46 268.29 700.42 271.39 702.21 272.78 706.02 273.41 710.27 281.06 714.63 282.98 716.41 288.06 719.24 290.95 717.65 291.01 719.96 294.95 723.64 296.93 726.19 300.06 731.93 300.87 736.27 301.96 739.46 303.09 741.21 304.58 747.39 298.14 750.08 295.03 752.02 291.85 757.1 290.32 758.17 288.63 760.51 285.18 762.35 284.71 763.87 281.38 769.16 273.04 773.32 270.67 776 Z" id="37580330"/>
<path d="M 275.29 426.2 274.44 428.42 275.07 432.97 277.38 435.04 277.83 439.55 280.65 440.41 280.23 444.3 283.29 446.16 284.14 447.59 289.03 449.34 293.47 452.87 293.87 454.57 295.67 458.04 295.65 459.69 293.17 461.25 292.39 465.52 292.54 466.98 294.87 472.77 293.15 474.99 291.97 475.6 291.48 478.95 290.02 480.69 290.54 484.4 288.5 487.76 292.1 491.94 294.31 495.82 298.49 500.37 301.13 502.36 304.21 503.54 303.42 507.18 299.79 510.63 300.46 513.93 299.77 516.53 297.22 521.72 294.92 528.55 293.01 532.91 290.23 535.98 291.15 537.94 292.25 538.31 293.56 540.72 293.49 545.52 294.59 550.55 297.89 553.99 297.83 555.76 299.03 556.3 298.6 560.71 299.64 562.31 298.51 563.64 294.84 564.22 292.88 563.07 288.62 563.44 287.06 562.62 285.63 563.28 283.63 562.69 278.99 562.78 275.12 563.91 273.22 566 271.59 565.9 270.17 568.8 270.05 570.46 268.59 572.25 264.45 573.42 262.92 577.37 262.18 582.3 262.95 585.63 261.84 589.08 261.09 589.88 254.69 591.05 253.22 591.97 251.89 591.71 249.64 594.28 247.26 599.97 244.36 604.24 239.92 603.61 236.89 604.42 232.27 615.58 229.89 617.69 225.93 624.11 223.59 625.73 220.09 632.44 219.84 633.81 211.88 640.89 212.66 644.91 214.26 646.15 214.19 648.73 208.88 649.16 205.64 648.22 198.99 645.79 193.49 647.32 184.44 649.14 182.79 649.03 179.13 651.31 177.17 651.32 172.15 649.41 168.76 644.56 163.51 648.59 160.44 648.59 149.67 647.6 145.97 645.54 144.12 643.02 143.05 642.54 141.59 640.37 137.04 635.9 133.89 634.68 132.73 633.15 130.01 633.19 128.97 632.24 124.41 631.06 122.47 630 117.93 625.34 115.55 624.66 112.89 624.71 108.91 626.18 108.1 627.62 104.66 629.54 103.79 629.34 100.52 626.8 97.14 625.3 93.6 622.88 92.64 620.93 91.95 617.76 89.45 614.46 89.25 611.8 86.78 612.03 84.45 610.48 79.21 608.74 77.19 606.84 75.52 606.69 73.24 604.6 73.54 602.1 73.04 599.83 74.07 596.61 73.57 593.99 70.45 590.91 64.55 580.36 63.63 576.54 63.75 574.54 65.96 572.75 67.4 569.37 67.73 565.86 69.28 564.78 70.87 560.84 70.53 556.88 71.06 553.49 71 547.94 69.11 544.5 73.12 542.95 75.43 539.06 78.13 535.35 81.02 532.8 85.81 524.08 89.87 521.21 91.72 517.97 93.69 513.27 95.69 508.05 95.58 506.07 96.91 503.48 98.51 502.76 100.6 500.24 101.81 495.25 101.15 491.6 103 489.94 104.83 486.31 103.81 483.33 105.42 480.39 105.09 476.53 106.1 473.65 105.85 471.9 106.6 469.93 110.01 469.4 110.25 466.07 110.92 465.75 112.62 462.62 114.65 460.35 115 458.62 113.44 454.42 113.97 450.74 115.38 449.17 122.83 447.15 124.11 446.31 125.26 444.39 125.58 441 128.24 436.09 128.96 433.7 131.74 428.48 135.62 429.69 139.03 426.8 144.68 425.22 147.32 422.78 151.21 423.94 155.13 424.28 157.94 425.46 159.57 424.83 161.46 423.16 163.95 424.11 163.96 425.77 168.36 427.71 171.13 426.41 171.75 427.74 174.9 428.24 176.74 427.86 180.88 428.36 185.9 431.8 186.97 433.52 189.57 434.38 192.29 435.95 194.53 438.07 199.7 438.37 200.86 437.24 204 438.06 205.81 437.54 207.51 435.15 207.08 433.52 209.03 430.17 218.17 426.31 218.71 422.45 221.19 420.89 221.98 417.31 223.62 416.16 226.77 415.97 228.38 415.17 229.08 412.47 230.32 411.55 230.98 409.27 231.33 405.77 234.1 404.03 235.74 403.54 238.84 399.4 243.4 396.98 244.83 395.9 245.28 392.92 246.75 391.25 248.97 390.12 251.58 390.76 252.65 390.29 255.71 393 259.69 394.76 260.36 396.11 263.64 397.03 265.01 398.84 264.54 400.35 265.45 402.79 264.93 404.97 265.72 407.29 268.35 409.83 269.02 412.36 270.39 413.56 270.84 415.96 272.33 418.04 272.63 420.64 273.99 421.82 275.29 426.2 Z" id="37580340"/>
<path d="M 235.7 250.57 236.58 251.87 242.91 254.93 246.85 259.01 248.95 259.91 248.78 262.9 251.32 267.48 255.38 271.35 257.23 271.4 257.27 272.76 260.31 277.6 262.79 278.05 265.6 279.41 268.25 283.74 270.19 285.9 269.59 287.4 270.45 289.22 269.67 292.63 269.93 294.52 269.35 297.44 270.82 300.91 273.46 303.07 274.77 306.23 276.26 308.26 275.69 310.25 279.69 312.29 282.54 312.31 285.23 313.19 286.37 312.62 287.89 313.31 291.5 311.52 293.48 311.34 296.19 310.25 297.69 308.21 299.31 304.84 305.77 306.52 307.4 308.88 307.33 310.84 310.46 318.67 311.98 321.03 313.21 321.85 313.8 324.72 313.4 326.35 315.39 327.69 314.97 330.97 315.83 333.54 318.19 336.02 316.72 337.59 315.65 339.73 316.93 343.62 315.8 345.69 316.7 347.24 319.5 347.69 322.15 349.72 324.18 350.18 325.98 351.48 329.63 355.57 333.22 353.63 334.6 351.81 337.66 349 340.64 349.12 343.34 350.68 343.85 350.25 352.44 351.11 356.81 350.72 358.72 351.43 363.75 350.5 365.34 351.69 364.34 352.62 365.74 355.77 363.14 357.4 361.86 360.16 361.81 361.63 364.01 363.92 364.07 367.36 371.12 367.84 371.74 367.53 374.36 369.7 378.23 371.98 377.28 378.81 376.01 379.51 373.91 384.19 373.55 386.98 372.71 388.72 373.35 391.8 376.2 395.1 375.31 396.29 372.54 395.88 370.69 397.65 370.04 399.05 368.49 399.37 366.01 402.72 366.37 405.74 364.53 408.5 363.22 412.22 361.17 413.06 360.71 416.64 354.15 419.77 353.51 423.55 349.79 424.53 348.59 424.27 346.69 425.23 342.86 424.3 340.58 425.12 339.02 423.83 333.63 423.23 332.35 421.32 331.31 417.35 325.94 414.94 326.26 413.22 323.23 412.27 321.91 410.55 318.47 409.77 316.78 408.19 315.48 409.22 315.26 411.41 313.44 411.71 309.44 414.33 307.49 414.43 305.48 416.47 300.4 424.08 299.37 424.45 296.61 423.56 292.3 424.12 290.09 425.64 284.68 424.19 283.04 425.43 280.32 424.62 275.29 426.2 273.99 421.82 272.63 420.64 272.33 418.04 270.84 415.96 270.39 413.56 269.02 412.36 268.35 409.83 265.72 407.29 264.93 404.97 265.45 402.79 264.54 400.35 265.01 398.84 263.64 397.03 260.36 396.11 259.69 394.76 255.71 393 252.65 390.29 251.58 390.76 248.97 390.12 246.75 391.25 245.28 392.92 244.83 395.9 243.4 396.98 238.84 399.4 235.74 403.54 234.1 404.03 231.33 405.77 230.98 409.27 230.32 411.55 229.08 412.47 228.38 415.17 226.77 415.97 223.62 416.16 221.98 417.31 221.19 420.89 218.71 422.45 218.17 426.31 209.03 430.17 207.08 433.52 207.51 435.15 205.81 437.54 204 438.06 200.86 437.24 199.7 438.37 194.53 438.07 192.29 435.95 189.57 434.38 186.97 433.52 185.9 431.8 180.88 428.36 176.74 427.86 174.9 428.24 171.75 427.74 171.13 426.41 168.36 427.71 163.96 425.77 163.95 424.11 161.46 423.16 159.57 424.83 157.94 425.46 155.13 424.28 151.21 423.94 147.32 422.78 144.68 425.22 139.03 426.8 135.62 429.69 131.74 428.48 128.96 433.7 128.24 436.09 125.58 441 125.26 444.39 124.11 446.31 122.83 447.15 115.38 449.17 113.97 450.74 113.44 454.42 115 458.62 114.65 460.35 112.62 462.62 110.92 465.75 110.25 466.07 110.01 469.4 106.6 469.93 105.85 471.9 106.1 473.65 105.09 476.53 105.42 480.39 103.81 483.33 104.83 486.31 103 489.94 101.15 491.6 101.81 495.25 100.6 500.24 98.51 502.76 96.91 503.48 95.58 506.07 95.69 508.05 93.69 513.27 88.03 512.7 83.62 513.14 78.25 511.41 75.06 507.89 71.58 505.17 67.85 501.01 66.29 498.65 63.34 496.53 57.54 494.2 54.84 489.05 53.13 481.61 52.41 476.71 50.22 473.78 44.99 467.91 47.26 459.07 46.77 456.32 45.85 455.06 46.79 451.81 47.06 448.5 40.74 443.39 39.26 440.99 34.12 436.77 29.7 434.9 25.98 431.81 23.55 425.39 24.42 423.12 27.3 422.8 29.79 421.48 31.3 418.29 33.49 416.8 27.03 410.12 24.41 410.12 21.16 404.57 21.96 402.31 21.47 400.75 22.17 398.56 19.64 393.81 14.77 389.33 12.61 387.83 11.79 386.37 9.17 384.91 5.67 381.56 7.41 375.89 8.25 375.99 10.49 370.65 10.3 369.74 6.68 369.12 5.65 367.28 3.88 367.1 2.24 363.55 2.43 362.41 1.36 359.31 3.47 357.25 2.65 356.43 2.58 354.27 1.43 350.85 1.99 349.54 1 347.35 1.55 345.8 3.97 344.11 4.56 341.75 5.86 339.5 5.39 336.32 7.05 335.46 7.73 334.04 9.42 333.19 11.45 330.29 14.11 329.69 16.39 327.98 17.09 325.32 19.63 323.86 20.98 321.59 22.18 321.23 26.29 322.84 31.78 325.45 33.28 327.09 34.7 327.56 37.24 330.38 40.67 331.53 44.59 334.33 47.93 334.52 49.58 333.13 54.23 336.59 55.79 335.61 58.01 337.59 56.22 341.82 56.3 344.09 58.81 345.85 60.1 350 59.56 352.34 60.19 353.23 61.29 357.54 65.77 362.33 70.4 360.79 74.05 360.11 75.61 364.11 77.81 367.83 79.41 369.39 79.49 371.54 80.45 372.61 82.97 373.75 83.77 375.35 87.57 378.71 91.13 376.06 92.28 378.16 95.06 378.07 95.43 376.8 94.62 373.11 95.49 369.24 96.15 364.18 97.38 361.86 100.51 359.87 100.54 355.7 99.45 352.46 101.84 350.14 100.72 346.96 100.97 345.6 98.43 342.09 97.31 339.09 98.2 337.95 98.91 334.66 100.36 332.76 99.46 328.42 99.72 327.26 97.89 325.3 97.45 323.09 96.45 321.61 97.63 318.88 97.32 315.48 96.03 314.47 94.98 309.56 95.35 306.93 97.06 305.96 98.52 303.11 98.05 300.78 98.87 298.17 100.46 295.94 103.89 293.34 105.95 292.47 106.61 290.87 109.86 287.72 110.71 284.37 115.45 283.92 116.59 281.47 121.13 281.72 122.26 278.27 124.83 277.16 125.76 278.02 131.2 274.66 136.1 270.41 137.87 267.96 139.12 263.9 139.03 262.37 140.52 259.76 143.51 257.9 144.92 256.38 147.41 256.21 149.21 257.75 151.9 261.48 154.03 262.89 154.32 263.99 158.05 267.46 159.01 269.03 161.88 270.97 163.92 269.17 165.28 267.15 168.01 266.13 170.79 263.99 173.69 262.7 176.07 264.7 180.04 266.52 182.88 266.14 186.55 268.36 188.96 268.16 192.22 269.01 191.95 270.34 193.5 272.49 197.15 270.94 199.52 270.35 199.67 269.11 201.52 266.78 203.5 265.39 206.73 264.39 209.43 264.32 210.53 262.39 209.36 261.68 210.81 259.31 216.49 260.84 217.13 258.34 218.73 258.02 222.57 256.1 223.45 254.35 229.07 254.22 234.09 251.09 235.7 250.57 Z" id="37580350"/>
</g>
</svg>