<?xml version="1.0"?>
<svg xmlns="http://www.w3.org/2000/svg" version="1.2" baseProfile="tiny" width="800" height="1128" viewBox="0 0 800 1128" stroke-linecap="round" stroke-linejoin="round">
<g id="dong">
<path d="M 524.23 452.92 521.63 453.27 521.19 455.61 519.33 456.08 517.35 459.46 517.33 462.8 514.15 465.6 514.36 467.9 513.63 470.28 515.08 473.42 517.05 475.88 516.41 477.02 512.86 480.17 513.11 482.4 510.29 483.24 509.94 485.28 508.59 487.92 509.47 491.41 509.4 493.94 511.56 498.43 511.17 500.75 512.19 502.35 515.69 504.49 517.79 504.96 519.17 507.85 518.31 511.85 515.46 515.17 514.92 516.46 514.87 519.69 516.32 522.29 516.45 523.76 512.95 528.85 511.88 533.18 509.66 536.52 507.93 538.25 508.45 539.38 510.19 539.67 511.59 541.29 515.19 543.21 519.32 543.37 519.48 546.99 520.99 547.23 521.45 549.43 522.78 549.16 525.43 547.08 528.21 547.54 528.84 551.66 529.89 553.98 530.22 556.23 529.55 559.49 531.72 563.28 534.63 563.17 535.33 564.03 538.69 563.99 534.87 574.34 533.39 584.63 530.14 590.73 528.23 595 527.92 605.27 528.38 608.68 528.17 615.52 525.48 622.65 524.89 625.85 525.48 627.57 524.97 631.76 523.86 634.31 524.34 636.12 524.14 646.38 516.49 642.29 513.56 643.5 510.63 641.21 506.02 641.62 502.34 642.39 499.75 641.26 496.19 644.58 494.49 644.82 491.05 647.02 486.32 647.35 484.76 648 482.03 651.19 477.5 650.87 475.45 650.31 476.23 648.65 472.38 644.7 471.9 641.38 472.68 638.49 474.56 635.17 475.4 631.75 474.97 630.53 471.45 630.98 469.49 630.36 467.73 628.26 467.92 626.01 466.65 623.38 464.92 623.35 463.22 624.82 460.19 624.84 457.12 626.01 454.76 625.36 453.23 627.21 449.7 626.78 448.21 624.34 443.22 624.76 443.76 628.59 442.29 630.02 439.51 629.84 439.05 622.79 435.99 622.68 434.03 623.34 431.65 625.92 426.55 626.65 425.87 628.34 424.2 628.95 424.31 630.33 423.21 632.81 423.1 635.16 421.8 638.6 419.21 638.84 417.21 640.13 414.91 638.31 411.88 634.52 410.62 631.33 408.77 630.31 403.87 631.72 400.68 631.92 398.19 632.82 389.49 627 387.5 627.95 386.05 626.65 384.65 626.82 382.85 628.81 381.26 631.57 376.16 630.35 375.49 628.96 374.88 625.1 370.95 626.54 370.33 623.86 367.03 624.19 365.51 623.48 363.24 625.89 360.05 625.06 359.09 624.04 357.15 624.21 355.02 623.1 353.73 624.22 349.76 622.97 346.73 620.35 344.74 619.26 343.63 617.72 342.33 617.6 340.11 615.76 337.62 611.99 338.45 607.13 335.46 606.63 333.84 604.25 333.97 593.69 332.56 592.22 331.57 588.82 331.37 581.44 330.12 579.5 330.02 577.16 331.57 575.47 332.03 573.43 330.09 567.06 330.54 563.29 328.07 561.03 328.14 559.5 325.83 556.71 326.33 553.39 326.46 548.14 328.91 546.79 330.66 545.1 332.42 545.65 335.57 544.87 337 543.23 342.7 540.98 342.97 539.33 344.93 537.22 347.77 537.05 350.48 535.29 350.23 533.29 349.15 532.44 346.24 525.15 345.97 523.67 346.77 522.17 348.53 521.15 349.63 519.35 351.09 519.34 353.66 518.15 356.46 518.82 361.36 514.38 365 513.11 367.46 513.86 370.95 511.22 373.06 510.11 376.15 506.8 380.64 505.3 382.09 503.55 382.48 501.75 383.66 500.55 383.76 495.31 384.34 494.16 383.67 491.59 385.83 489.12 392.47 488.94 385.85 487.71 383.65 486.82 381.67 485.21 377.46 482.81 376.47 481.83 377.21 480.44 379 480.44 382.38 478.36 382.95 474.99 385.53 475.31 387.51 474.84 387.48 472.19 388.29 471.4 388.15 469.33 388.65 465.38 389.53 462.02 389.59 458.63 388.32 455.39 389.86 452.87 390.34 450.34 392.76 447.84 395.76 445.79 397.75 446.84 399.4 446.83 402.03 445.21 405.25 445.14 405.79 448.49 407.87 453.03 408.41 456.48 411.12 459.91 414.85 460.06 419.96 461.21 421.7 461.01 424.65 462.43 426.32 462.62 427.69 464.25 433.27 464.64 435.62 463.7 439.27 463.5 439.36 462.73 443.38 456.98 443.41 455.48 446.04 452.79 448.36 453.08 449.09 454.1 449.26 457.37 451.98 449.05 456.57 448.79 459.44 447.84 461.56 449.19 465.15 449.39 466.42 450.52 469.61 447.22 471 446.58 471.06 445.18 472.65 441.56 474.59 438.7 477.22 437.75 480.58 438.05 480.59 436.42 482.69 434.22 484.33 429.92 483.13 427.63 482.28 424.05 483.9 420.13 488.15 422.53 489.75 422.07 494.1 419.83 496.86 419.33 499.63 420.08 502 422.78 501.84 423.53 505.58 426.92 508.66 433.62 510.39 435.21 512.87 440.44 518.47 437.52 521.76 438.13 524.52 440.13 524.82 441.49 527.51 442.46 526.35 444.37 526.1 446.83 525.21 448.68 526.53 450.52 524.23 452.92 Z" id="37600110"/>
<path d="M 306.53 293.73 306.78 297.18 308.07 301.75 311.91 304.53 313.4 306.9 316 308.62 319.04 309.36 320.61 311.78 323.38 313.44 323.79 317.52 326.9 319.11 327.63 322.67 330.58 325.26 331.18 327.03 333.4 327.85 332.84 330.05 333.08 333.76 336.21 333.48 337.16 334.7 340.27 336.11 343.13 338.87 344.54 343.46 346.74 344.21 348.53 345.73 351.89 346.45 354.6 350.28 356.68 352.46 357.08 355.27 356.64 356.32 357.29 360.99 356.86 364.27 357.7 365.74 358.28 371.31 356.33 374.04 356.56 376.64 355.85 379.43 359.06 386.1 362.2 385.78 365.06 384.99 366.78 385.5 368.34 387.96 371.24 390.77 376.87 394.61 379.49 395.21 384.68 393.24 385.1 391.19 387.81 389.83 390.1 387.98 392.11 389.86 394.4 390.85 396.88 389.63 398.56 384.49 401.22 383.15 402.84 380.02 405.3 379.61 406.36 380.17 409.03 379.51 412.01 385.69 413.52 387.85 417.28 390.37 418.94 392.1 419.09 393.55 418.09 397.07 419.3 397.18 421.7 395.39 424.06 395.92 425.95 395.51 426.99 394.36 427.77 391.9 428.92 391 432.98 389.99 433.08 388.62 436.45 387.85 438.4 384.14 442.81 379.32 442.72 375.22 444.46 373.07 446.9 371.13 447.34 369.28 450.72 367.73 451.54 365.05 453.15 362.71 455.35 362 455.11 360.81 457.13 359.39 457.9 356.61 457.56 355.06 459.95 347.75 461.22 348.18 462.81 347.24 465.46 347.65 466.75 347.08 472.93 349.55 475.34 353.51 476.48 353.96 477.4 358.14 476.93 359.82 478.1 360.43 477.91 362.38 480.23 364.46 482.64 365.09 485.71 367.87 485.62 369.65 482.43 377.19 482.76 378.47 481.52 380.17 482.1 382.81 484.92 384.8 485.97 386.81 485.21 388.17 485.29 391.53 482.68 394.38 482.88 396.01 485.86 397.7 487.55 403.82 486.27 408.18 486.58 409.77 484.46 412.71 483.93 414.95 484.34 418.61 483.9 420.13 482.28 424.05 483.13 427.63 484.33 429.92 482.69 434.22 480.59 436.42 480.58 438.05 477.22 437.75 474.59 438.7 472.65 441.56 471.06 445.18 471 446.58 469.61 447.22 466.42 450.52 465.15 449.39 461.56 449.19 459.44 447.84 456.57 448.79 451.98 449.05 449.26 457.37 449.09 454.1 448.36 453.08 446.04 452.79 443.41 455.48 443.38 456.98 439.36 462.73 439.27 463.5 435.62 463.7 433.27 464.64 427.69 464.25 426.32 462.62 424.65 462.43 421.7 461.01 419.96 461.21 414.85 460.06 411.12 459.91 408.41 456.48 407.87 453.03 405.79 448.49 405.25 445.14 402.03 445.21 399.4 446.83 397.75 446.84 395.76 445.79 392.76 447.84 390.34 450.34 389.86 452.87 388.32 455.39 389.59 458.63 389.53 462.02 388.65 465.38 388.15 469.33 388.29 471.4 387.48 472.19 387.51 474.84 385.53 475.31 382.95 474.99 382.38 478.36 379 480.44 377.21 480.44 376.47 481.83 377.46 482.81 381.67 485.21 383.65 486.82 385.85 487.71 392.47 488.94 385.83 489.12 383.67 491.59 384.34 494.16 383.76 495.31 383.66 500.55 382.48 501.75 382.09 503.55 380.64 505.3 376.15 506.8 373.06 510.11 370.95 511.22 367.46 513.86 365 513.11 361.36 514.38 356.46 518.82 353.66 518.15 351.09 519.34 349.63 519.35 348.53 521.15 346.77 522.17 345.97 523.67 343.25 522.73 340.56 523.86 332.09 524.79 330.29 523.88 329.84 522.66 326.72 523.64 324.53 523.79 322.57 526.68 320.29 526.65 317.87 527.94 316 526.98 313.02 528.4 311.25 528.15 307.08 528.64 306.16 529.51 304.31 528.02 304.04 526.77 301.74 527.12 298.81 525.68 296.25 526.87 294.19 527.18 291.66 528.32 290.88 529.58 287.85 528.67 285 528.8 284 525.08 284.66 521.28 284.05 518.23 280.59 517.24 279.11 515.25 279.24 511.43 277.87 508.69 278.77 507.77 276.89 504.86 274.28 504.7 270.77 501.64 268.46 500.73 268.24 496.5 266.2 497.04 259.85 496.54 254.39 492.87 254.73 490.19 250.91 488.58 249.04 489.43 245.09 489.59 241.03 491.92 238.81 492.76 233.04 489 228.53 486.68 228.25 482.82 224.07 480 220.26 475.81 220.47 474 218.05 471.99 213.03 468.66 212.12 464.2 210.74 461.18 210.18 456.94 208.66 456.09 207.82 454.52 205.57 454.06 204.64 452.71 198.73 451.96 197.28 451.27 196.44 445.87 194.65 446.96 191.17 445.54 183.84 444.63 180.1 445.76 179.06 445.1 175.03 444.33 172.26 442.89 171.64 445.67 170.23 445.17 167 442.88 165.92 442.6 164.96 438.93 162.07 437.12 157.83 437.3 157.08 435.22 158.6 434.33 158.21 429.82 161.94 423.11 163.78 422.12 164.3 420.43 166.71 417.33 167.62 413.61 167.87 410.34 165.39 407.95 165.29 407.19 169.08 399.75 169.32 395.73 167.92 392.2 168.38 390.23 167.75 388.76 165.22 386.58 164.82 382.72 162.48 378.27 159.65 375.88 159.51 372.62 158.29 369.7 158.58 365.64 161.82 364.72 165.43 361.38 165.47 358.23 164.43 355.13 161.91 352.94 161.17 349.37 162.47 340.65 161.82 336.73 161.9 333.56 160.74 331.72 159.64 328.15 160.51 326.23 163.33 324.74 165.21 323.22 170.28 324.05 173.07 319.51 173.35 315.99 174.75 311.23 181.79 311.94 183.68 312.89 190.36 311.75 196.66 311.49 201.51 310.79 202.86 310.19 205.63 310.79 215.21 310.26 216.91 309.91 220.17 310.4 222.51 312.52 226.64 310.93 226.98 309.04 226.5 306.37 226.71 303.79 227.84 302.11 231.71 298.89 234.64 294.29 236.43 293.05 239.13 290.14 241.45 282.87 243.04 281.03 245.76 281.49 248.67 282.8 253.15 286.65 254.86 288.87 258.33 290.54 258.52 292.24 260.35 293.23 263.06 292.48 264.36 293.05 269.75 292.67 272.39 293.12 273.87 291.96 276.33 291.11 278.79 292.78 280.44 294.67 283.07 296.52 286.37 299.51 290.51 296.19 292.34 296.11 296.05 294.62 299.14 296.49 301.62 296.36 306.53 293.73 Z" id="37600310"/>
<path d="M 577.73 224.24 580.27 224.34 581.12 221.39 583.13 217.96 587.8 216.64 589.12 216.64 592.44 220.04 594.04 221.15 599.69 221.51 601.86 219.57 607.11 220.1 609.98 219.59 612.21 218.56 613.43 217.32 615.05 217.1 615.13 214.69 619.55 212.4 623.97 212.01 625.83 211.48 628.6 213.66 629.76 217.08 632.35 219.16 631.76 220.48 632.27 223.66 635.47 224.95 636.95 227.48 639.87 229.36 640.86 229.27 645.11 231.02 649.08 228.04 650.41 230.15 654.08 227.34 655.49 224.59 657.86 224.38 659.63 223.52 660.75 225.02 660.39 228.29 660.9 231.46 660.75 233.47 662.98 235.52 665.8 241.71 669 242.73 671.57 246.68 673.08 246.84 674.47 245.9 676.77 249.5 679.32 246.92 682.07 247.71 683.43 251.14 686.98 257.78 686.83 262.56 688.62 264.79 691.06 265.61 691.26 267.06 694.24 272.38 692.42 276.45 693.02 278.35 695.06 279.85 693.99 282.86 694.8 284.41 699.62 286.67 699.75 289.05 700.5 291.16 702.06 293.22 703.22 293.75 703.99 296.02 706.35 297.02 705.25 298.74 703.91 303.43 702.41 305.48 701.88 308.31 704.72 313.58 705.44 317.46 709.58 316.38 712.72 317.51 715.07 319.43 716.32 322.07 717.74 322.53 717.45 324.42 720.09 325.18 720.79 323.65 723.36 327.57 720.5 328.39 719.81 330.74 719.55 333.84 715.11 335.38 713.55 336.37 709.7 341.3 705.18 342.35 703.05 341.89 700.11 343.38 698.86 344.66 697.69 339.98 697.87 335.92 695.61 335.31 692.82 335.3 692.13 337.75 687.5 341.64 684.39 343.15 680.72 343.32 678.9 344.05 677.86 346.19 678.33 347.67 677.04 351.42 677.84 352.6 675.21 354.22 674.61 355.67 672.77 356.76 668.42 355.49 665.16 357.6 661.03 356.29 659.86 357.86 660.32 360.56 654.2 362.78 652.45 364.51 651.62 364.2 649.76 366.52 650.01 368.3 647.84 369.01 647.8 372.05 649.39 373.75 651.12 378.26 652.76 379.62 654.08 381.84 656.92 382.51 656.39 384.4 657.86 386.69 663.29 392.15 662.17 394.21 664.11 397.12 664.06 399.8 665.17 401.08 664.69 403.57 667.45 406.15 666.35 410.23 668.34 411.5 670.23 410.21 672.51 410.72 673.66 411.96 669.71 416.01 667.43 422.27 664.63 421.3 657.21 421.37 654.51 422 646.86 425.56 642.53 429.44 639.2 431.31 633.74 435.15 630.04 439.42 628.61 442.33 625.29 443.5 625.52 449.34 620.79 459.7 620.8 460.34 617.74 462.83 613.75 463.78 611.79 463.12 606.75 465.04 605.27 462.47 604.62 460.04 603.3 458.49 600.16 458.8 597.38 461.4 596.04 461.51 594.48 460.25 592.65 453.47 593.78 451.24 593.59 448.81 594.45 446.6 593.76 445.81 594.94 442.84 594.5 440.9 596.98 435.89 596.22 429.65 593.02 427.3 589.22 430.05 587.58 429.56 584.08 431.19 581.48 431.42 579.52 434.84 580.11 435.98 578.52 438.04 575.72 438.85 574.9 441.06 570.81 441.01 569.43 441.51 569.5 438.15 569 435.73 567.58 434.54 566.76 431.85 565.89 431.18 563.06 433.22 558.34 434.31 558.23 436.38 558.96 438.02 557.3 439.15 554.3 438.61 550.98 439.07 547.57 441.71 543.32 446.84 542.48 448.73 542.4 451.09 537.04 451.07 534.7 451.56 532.27 451.22 529.15 454.01 528.52 456.79 526.23 456.83 525.17 455.58 524.23 452.92 526.53 450.52 525.21 448.68 526.1 446.83 526.35 444.37 527.51 442.46 524.82 441.49 524.52 440.13 521.76 438.13 518.47 437.52 512.87 440.44 510.39 435.21 508.66 433.62 505.58 426.92 501.84 423.53 502 422.78 499.63 420.08 496.86 419.33 494.1 419.83 489.75 422.07 488.15 422.53 483.9 420.13 484.34 418.61 483.93 414.95 484.46 412.71 486.58 409.77 486.27 408.18 487.55 403.82 485.86 397.7 482.88 396.01 482.68 394.38 485.29 391.53 485.21 388.17 485.97 386.81 484.92 384.8 482.1 382.81 481.52 380.17 482.76 378.47 482.43 377.19 485.62 369.65 485.71 367.87 482.64 365.09 480.23 364.46 477.91 362.38 478.1 360.43 476.93 359.82 477.4 358.14 476.48 353.96 475.34 353.51 472.93 349.55 466.75 347.08 465.46 347.65 462.81 347.24 461.22 348.18 459.95 347.75 460.07 346.15 461.56 344.9 462.5 342.92 464.13 341.82 465.77 335.32 467.58 334.51 468.55 331.8 467.42 329.23 469.46 328.28 468.83 326.32 469.67 322.89 471.6 320.07 473.68 319.08 473.81 317.62 476.69 313.92 478.26 313.19 479.9 311.35 481.35 306.66 483.86 303.72 483.99 302.32 485.59 299.83 487.58 293.13 489.89 291.4 492.38 287.14 492.65 285.2 491.88 283.37 492.65 279.37 491.57 278.66 488.67 278.25 486.3 276.77 483.4 273.02 481.35 272.3 480.32 270.39 482.59 266.56 484.12 262.94 484.45 256.99 483.14 255.47 482.44 251 481.33 249.17 482.9 242.97 482.56 240.57 484.92 239.27 485.18 234.32 486.34 232.06 486.93 227.85 483.3 225.96 482.85 224.31 481.46 223.33 480.74 221.24 478.6 220.06 477.68 217.04 478.3 213.25 479.43 212.84 480.69 208.68 484.57 204.68 487.79 205.22 490.51 206.2 496.36 204.75 497.96 203.87 500.95 203.75 502.48 204.85 506.73 206.34 508.4 207.28 510.93 210.2 514.93 212.43 518.67 213.35 518.92 215.34 521.03 219.52 523.58 220.15 527.48 220.44 529.89 221.83 532.4 224.6 533.44 228.69 535.4 232.36 536.03 234.44 539.66 235.82 540.79 237.96 543.13 237.37 543.93 233.98 547.12 233.47 549.08 234.96 551.07 235.25 553.97 238.26 556.85 240.19 558.01 239.73 562.82 240.1 568.13 236.44 568.93 234.93 572.26 231.4 572.69 229.35 573.99 228.48 577.73 224.24 Z" id="37600340"/>
<path d="M 753.27 415.9 753.39 420.04 753.04 423.37 755.88 425.33 760.22 427.41 763.21 426.94 767.71 423.7 770.89 426.01 773.05 425.93 779.56 429.12 780.45 431.52 782.7 434.63 785.39 435.62 786 437.58 789.27 437.4 790.96 437.82 793.01 437.32 795.55 438.43 794.99 442.14 796.6 444.39 798.93 445.76 797.28 448.99 796.57 452.44 797.17 456.38 799 460.52 798.6 461.88 794.4 463.25 793.1 464.22 790.31 468.78 783.97 471.83 778.17 477.71 778.46 480.68 780.5 483.96 783.82 487.04 783.44 491 786.22 494.76 787.85 497.55 787.16 501.44 785.82 505.72 785.3 510.28 785.47 514.32 786.32 519.68 785.89 523.83 789.21 525.77 788.41 531.3 788.96 533.4 787.51 538.26 788.2 540.84 787.09 543.96 786.98 547.43 787.35 552.52 786.41 553.47 782.72 555.4 778.62 558.08 774.98 558.81 774.49 555.36 771.09 553.26 766.88 553.8 763.42 555.92 761.64 558.81 759.88 560.1 752.59 558.36 751.07 559.38 749.71 559.01 745.5 560.36 742.9 561.67 741.73 564 739.79 564.13 733.09 568.44 732.91 569.82 729.6 565.44 729.19 564.06 726.52 561.8 725.26 563.24 721.09 564.47 717.58 564.62 716.54 565.88 712.74 567.3 711.55 566.41 709.66 567.04 709.22 568.1 705.24 569.65 705.42 571.64 700.66 572.1 698.71 575.37 699.1 577.37 697.72 579.48 697.9 582.44 699.95 586.44 697.83 589.69 695.34 590.77 692.13 591.4 686.28 597.16 686.12 598.66 683.57 600.72 683.02 602.16 680.59 602.24 675.02 604.03 674.49 602.34 669.21 600.33 667.86 603.57 666.03 605.26 660.59 606.29 658.61 607.88 655.5 612.86 653.6 613.66 650.57 614.1 647.25 613.12 642.92 611.12 640.53 609.1 641.64 603.99 641.69 598.83 642.09 597.76 640.28 590.79 638.86 587.42 637.06 581.66 634.26 578.42 627.98 573.99 623.01 571.98 620.66 571.68 618.84 570.54 616.23 568.06 609.13 564.32 606.55 561.33 605.07 560.64 602.34 556.95 600.57 556.59 596.79 556.89 595.01 555.01 593.54 550.46 592.14 549.45 592.01 547.09 590.28 544.18 591.01 542.56 590.44 540.53 588.79 538.32 589.67 536.59 589.44 533.65 585.91 534.2 586.1 532.36 583.96 532.37 581.47 530.63 581.05 528.63 579.13 529.66 576.67 532.44 575.66 537.06 575.35 542.39 576.35 545.26 575.75 547.8 575.66 552.98 571.63 556.81 566.91 559.02 564.53 558.93 561.4 557.29 560.39 556 556.1 548.84 553.84 547.14 547.21 549.86 543.56 553.64 541.23 557.61 537.83 559.54 538.69 563.99 535.33 564.03 534.63 563.17 531.72 563.28 529.55 559.49 530.22 556.23 529.89 553.98 528.84 551.66 528.21 547.54 525.43 547.08 522.78 549.16 521.45 549.43 520.99 547.23 519.48 546.99 519.32 543.37 515.19 543.21 511.59 541.29 510.19 539.67 508.45 539.38 507.93 538.25 509.66 536.52 511.88 533.18 512.95 528.85 516.45 523.76 516.32 522.29 514.87 519.69 514.92 516.46 515.46 515.17 518.31 511.85 519.17 507.85 517.79 504.96 515.69 504.49 512.19 502.35 511.17 500.75 511.56 498.43 509.4 493.94 509.47 491.41 508.59 487.92 509.94 485.28 510.29 483.24 513.11 482.4 512.86 480.17 516.41 477.02 517.05 475.88 515.08 473.42 513.63 470.28 514.36 467.9 514.15 465.6 517.33 462.8 517.35 459.46 519.33 456.08 521.19 455.61 521.63 453.27 524.23 452.92 525.17 455.58 526.23 456.83 528.52 456.79 529.15 454.01 532.27 451.22 534.7 451.56 537.04 451.07 542.4 451.09 542.48 448.73 543.32 446.84 547.57 441.71 550.98 439.07 554.3 438.61 557.3 439.15 558.96 438.02 558.23 436.38 558.34 434.31 563.06 433.22 565.89 431.18 566.76 431.85 567.58 434.54 569 435.73 569.5 438.15 569.43 441.51 570.81 441.01 574.9 441.06 575.72 438.85 578.52 438.04 580.11 435.98 579.52 434.84 581.48 431.42 584.08 431.19 587.58 429.56 589.22 430.05 593.02 427.3 596.22 429.65 596.98 435.89 594.5 440.9 594.94 442.84 593.76 445.81 594.45 446.6 593.59 448.81 593.78 451.24 592.65 453.47 594.48 460.25 596.04 461.51 597.38 461.4 600.16 458.8 603.3 458.49 604.62 460.04 605.27 462.47 606.75 465.04 611.79 463.12 613.75 463.78 617.74 462.83 620.8 460.34 620.79 459.7 625.52 449.34 625.29 443.5 628.61 442.33 630.04 439.42 633.74 435.15 639.2 431.31 642.53 429.44 646.86 425.56 654.51 422 657.21 421.37 664.63 421.3 667.43 422.27 669.71 416.01 673.66 411.96 672.51 410.72 670.23 410.21 668.34 411.5 666.35 410.23 667.45 406.15 664.69 403.57 665.17 401.08 664.06 399.8 664.11 397.12 662.17 394.21 663.29 392.15 657.86 386.69 656.39 384.4 656.92 382.51 654.08 381.84 652.76 379.62 651.12 378.26 649.39 373.75 647.8 372.05 647.84 369.01 650.01 368.3 649.76 366.52 651.62 364.2 652.45 364.51 654.2 362.78 660.32 360.56 659.86 357.86 661.03 356.29 665.16 357.6 668.42 355.49 672.77 356.76 674.61 355.67 675.21 354.22 677.84 352.6 677.04 351.42 678.33 347.67 677.86 346.19 678.9 344.05 680.72 343.32 684.39 343.15 687.5 341.64 692.13 337.75 692.82 335.3 695.61 335.31 697.87 335.92 697.69 339.98 698.86 344.66 700.11 343.38 703.05 341.89 705.18 342.35 709.7 341.3 713.55 336.37 715.11 335.38 719.55 333.84 721.28 336.87 720.06 339.59 719.52 343.09 724.45 348.66 726.64 349.48 729.09 351.94 732.15 351.4 735.44 350.07 737.64 351.51 738.35 353.59 737.63 357.79 734.95 362.62 733.71 369.17 734.58 370.58 733.65 371.68 734.19 376.8 736.84 381.46 735.95 384.51 735.5 389.49 735.84 392.34 738.08 393.52 739.18 392.73 742.48 393.53 743.44 394.5 744.18 397.41 750.71 405.38 749.68 409.32 750.69 410.73 749.89 414.96 753.27 415.9 Z" id="37600350"/>
<path d="M 640.53 609.1 637.55 608.46 635.12 609.01 633.34 611.93 631.56 611.87 630.86 613.21 627.5 615.22 624.89 620.12 623.9 619.44 620.15 620 619.14 623.51 615.87 624.27 614.03 624.1 612.91 625.53 609.17 625.26 605.39 624.45 605.05 626.53 603.22 628.63 602.87 632.61 604.36 641.59 602.45 644.28 602.74 645.26 599.12 648.05 599.14 650.24 600.76 649.77 604.02 649.81 606.96 652.2 609.57 652.15 612.12 652.77 613.6 652.17 615.94 653.49 616.44 658.49 618.46 659.41 619.85 661.43 623.95 662.03 627.98 664.97 629.08 666.75 628.83 668 626.96 668.93 625.71 671.48 625.29 674.27 624.29 675.51 624.59 680.8 625.03 682.87 623.96 685.3 619.48 687.23 616.08 687.19 615.29 688.8 615.88 690.53 618.48 692.63 617.61 695.82 618.18 698.51 617.23 701.57 615.26 702.19 614.2 703.83 609.95 704.6 608.99 703.98 607.73 701.52 605.92 702.96 603.68 703.42 601.19 702.64 597.62 699.84 594.93 700.54 592.39 701.89 588.92 702.6 586.51 701.64 585.63 700.15 583.58 699.98 582.24 700.97 579.94 704.28 578.59 704.99 577 704.27 575.79 702.26 573.24 702.25 564.53 700.29 563.06 695.17 563.26 691 560.79 688.9 560.61 687.25 557 687.1 555.64 688.8 551.23 691.85 548.3 694.4 544.08 697.26 537.76 706.29 536.27 706.78 534.28 710.94 533.9 713.95 532.85 715.87 532.34 718.87 534.45 720.95 532.88 724.76 533.4 728.86 531.85 729.93 531.44 733.93 529.44 738.65 529.54 739.94 531.82 744.77 535.68 747.29 540.56 748.38 542.94 746.93 545.85 748.19 547.11 748.15 548.18 750.49 540.69 756.51 542.04 761.22 541.19 764.88 540.9 769.69 539 770.28 534.78 774.63 536.35 777.53 536.82 780.51 536.53 783.86 535.42 783.56 534.81 786.51 534.86 790.04 533.44 792.28 533.99 793.47 512.54 797.64 491.27 810.1 490.43 809.02 487.55 812.63 486.56 811.92 484.38 812.9 476.7 813.21 477.69 816.21 479.22 817.95 479.45 820.25 477.99 821.84 474.33 822.8 471.34 822.43 467.25 823.72 465.72 828.36 463.44 826.86 461.67 828.23 463.34 832.93 457.75 833.84 456.19 832.96 454.41 832.98 452.25 826.7 451.11 824.91 451.33 823.22 448.39 821.41 447.35 819.14 447.47 816.14 448.05 814.25 448.1 811.17 446.44 808.97 446.33 806.45 443.31 803.54 443.11 801.25 439.74 801.17 438.56 799.32 437.16 799.56 433.04 803.44 429.83 804.06 425.77 805.69 423.03 805.12 420.66 803.87 417.94 804.78 415.92 804.59 414.31 800.9 414.81 797.83 413.41 796.82 411.39 796.5 411.02 794 409.47 789.06 406.27 787.87 402.32 782.01 400.65 782.13 396.84 775.95 391.62 774.58 392.04 773.43 389.56 767.33 387.51 763.03 386.73 755.7 386.09 753.25 383.21 753.54 379.87 752.89 377.24 755.3 374.41 754.42 371.98 756.01 369.79 755.12 368.2 752.45 365.87 751.78 365.76 747.84 364.54 744.94 364.5 741.99 362.99 740.89 359.32 741.44 356.61 742.33 354.53 744.47 352.9 744.35 351.73 742.05 351.95 740.65 349.34 739.56 343.98 739.73 343.13 738.14 339.97 737.87 337.57 738.17 331.89 735.66 323.37 734.62 320.27 732.63 326.81 732.25 331.89 732.45 331.79 730 339.59 729.82 342.75 729.24 349.71 726.64 351.54 724.92 352.26 722.91 355.03 720.19 359.41 716.75 360.81 715.18 362.29 712.36 364.29 709.58 364.12 701.01 363.41 690.76 363.4 684.86 365.16 680.47 365.99 676.46 367.82 670.16 371.74 659.81 372.34 656.88 374.55 652.6 376.43 651.12 377.98 647.98 379.1 644.17 379.23 637.13 381.26 631.57 382.85 628.81 384.65 626.82 386.05 626.65 387.5 627.95 389.49 627 398.19 632.82 400.68 631.92 403.87 631.72 408.77 630.31 410.62 631.33 411.88 634.52 414.91 638.31 417.21 640.13 419.21 638.84 421.8 638.6 423.1 635.16 423.21 632.81 424.31 630.33 424.2 628.95 425.87 628.34 426.55 626.65 431.65 625.92 434.03 623.34 435.99 622.68 439.05 622.79 439.51 629.84 442.29 630.02 443.76 628.59 443.22 624.76 448.21 624.34 449.7 626.78 453.23 627.21 454.76 625.36 457.12 626.01 460.19 624.84 463.22 624.82 464.92 623.35 466.65 623.38 467.92 626.01 467.73 628.26 469.49 630.36 471.45 630.98 474.97 630.53 475.4 631.75 474.56 635.17 472.68 638.49 471.9 641.38 472.38 644.7 476.23 648.65 475.45 650.31 477.5 650.87 482.03 651.19 484.76 648 486.32 647.35 491.05 647.02 494.49 644.82 496.19 644.58 499.75 641.26 502.34 642.39 506.02 641.62 510.63 641.21 513.56 643.5 516.49 642.29 524.14 646.38 524.34 636.12 523.86 634.31 524.97 631.76 525.48 627.57 524.89 625.85 525.48 622.65 528.17 615.52 528.38 608.68 527.92 605.27 528.23 595 530.14 590.73 533.39 584.63 534.87 574.34 538.69 563.99 537.83 559.54 541.23 557.61 543.56 553.64 547.21 549.86 553.84 547.14 556.1 548.84 560.39 556 561.4 557.29 564.53 558.93 566.91 559.02 571.63 556.81 575.66 552.98 575.75 547.8 576.35 545.26 575.35 542.39 575.66 537.06 576.67 532.44 579.13 529.66 581.05 528.63 581.47 530.63 583.96 532.37 586.1 532.36 585.91 534.2 589.44 533.65 589.67 536.59 588.79 538.32 590.44 540.53 591.01 542.56 590.28 544.18 592.01 547.09 592.14 549.45 593.54 550.46 595.01 555.01 596.79 556.89 600.57 556.59 602.34 556.95 605.07 560.64 606.55 561.33 609.13 564.32 616.23 568.06 618.84 570.54 620.66 571.68 623.01 571.98 627.98 573.99 634.26 578.42 637.06 581.66 638.86 587.42 640.28 590.79 642.09 597.76 641.69 598.83 641.64 603.99 640.53 609.1 Z" id="37600360"/>
<path d="M 345.97 523.67 346.24 525.15 349.15 532.44 350.23 533.29 350.48 535.29 347.77 537.05 344.93 537.22 342.97 539.33 342.7 540.98 337 543.23 335.57 544.87 332.42 545.65 330.66 545.1 328.91 546.79 326.46 548.14 326.33 553.39 325.83 556.71 328.14 559.5 328.07 561.03 330.54 563.29 330.09 567.06 332.03 573.43 331.57 575.47 330.02 577.16 330.12 579.5 331.37 581.44 331.57 588.82 332.56 592.22 333.97 593.69 333.84 604.25 335.46 606.63 338.45 607.13 337.62 611.99 340.11 615.76 339.84 616.95 337.22 616.29 333.63 614.76 328.5 617.32 327.54 619.65 327.17 624.07 325.51 628.29 320.07 631.25 318.72 630.61 316.45 630.68 315.78 631.89 312.77 633.62 311.33 639.34 309.06 639.6 307.41 640.89 303.73 639.37 300.4 639.92 297.91 639.47 297.11 640.35 295.53 639.1 294.69 635.98 292.19 639.17 291.04 639.61 290.22 641.74 288.63 643.96 287.74 643.6 285.04 644.77 283.05 644.28 280.92 645.95 274.05 646.61 269.77 645.68 268.04 646.43 266.4 648.6 264.5 652.55 259.04 649.65 256.21 649.32 253.79 647.13 250.04 648.74 248.94 650.06 246.88 648.85 244.17 652.11 243.49 654.95 245.37 657.64 244.82 660.74 245.02 665.7 246.15 666.82 246.38 669.6 243.08 667.3 239.99 667.15 237.33 665.71 235.25 668.18 232.25 670.39 230.21 670.19 229.06 672.44 229.03 674.53 227.42 674.85 225.17 673.14 222.58 673.71 220.25 673.32 216.6 673.84 216.68 670.61 217.77 668.05 215.34 664.85 214.07 662.45 214.55 659.5 212.28 657.01 212.46 655.28 210.3 652.68 209.23 652.2 208.89 649.95 207.51 647.02 207.54 645.49 205.06 642.4 206.66 641.98 205.94 639.98 203.05 639.44 204.73 634.6 208.68 635.02 209.67 632.19 210.61 631.4 208.88 628.21 209.61 627.23 208.22 625.5 201.59 623.92 199.62 622.33 195.64 623.05 186.77 622.04 184.11 622.72 181.1 620.96 180.06 620.97 176.54 617.28 175.07 617.11 172.65 615.02 170.72 614.75 168.4 610.28 168.1 606.26 167.54 604.79 164.05 603.75 163.86 602.19 164.77 600.68 163.76 598.55 166.11 595.74 166.45 592.5 167.4 589.88 169.28 588.93 169.84 587.49 171.47 587.27 172.81 585.78 174.57 582.71 173.51 581.34 174.73 579.6 176.6 579.41 177.55 578.08 180.76 577.51 180.71 579.58 184.26 579.61 186.17 581.78 187.59 581.23 189.64 581.56 194.35 579.92 197.95 579.96 198.56 577.21 199.47 576.29 199.96 573.39 199.79 570.78 202.44 569.28 203.28 565.43 204.43 563.15 203.38 561.09 202.55 557.68 201 556.24 197.76 556.4 195.26 555.72 193.23 552.96 191.47 552.89 188.97 554.33 186.1 552.87 183.81 552.79 181.31 550.98 179.44 548.09 175.5 547.01 174.11 545.74 171.33 546.57 169.71 545.57 168.18 540.53 168.74 537.93 165.66 536.63 167.25 534.97 167.52 530.48 166.64 526.13 162.86 521.4 159.63 520.11 157.96 520.65 152.27 518.64 150.94 516.78 149.21 515.96 148.1 512.29 146.88 512.16 145.4 510.26 144.44 503.61 143.89 502.15 140.49 497.78 137.95 495.77 137.21 493.37 135.47 491.79 134.48 489.85 137.19 487.77 140.72 484.13 141.91 483.38 146.14 478.05 144.25 475.22 147.77 471.67 152.03 473.63 157.76 468.11 164.32 462.41 164.18 459.18 166.07 453.92 167.35 451.32 169.5 450.34 171.64 445.67 172.26 442.89 175.03 444.33 179.06 445.1 180.1 445.76 183.84 444.63 191.17 445.54 194.65 446.96 196.44 445.87 197.28 451.27 198.73 451.96 204.64 452.71 205.57 454.06 207.82 454.52 208.66 456.09 210.18 456.94 210.74 461.18 212.12 464.2 213.03 468.66 218.05 471.99 220.47 474 220.26 475.81 224.07 480 228.25 482.82 228.53 486.68 233.04 489 238.81 492.76 241.03 491.92 245.09 489.59 249.04 489.43 250.91 488.58 254.73 490.19 254.39 492.87 259.85 496.54 266.2 497.04 268.24 496.5 268.46 500.73 270.77 501.64 274.28 504.7 276.89 504.86 278.77 507.77 277.87 508.69 279.24 511.43 279.11 515.25 280.59 517.24 284.05 518.23 284.66 521.28 284 525.08 285 528.8 287.85 528.67 290.88 529.58 291.66 528.32 294.19 527.18 296.25 526.87 298.81 525.68 301.74 527.12 304.04 526.77 304.31 528.02 306.16 529.51 307.08 528.64 311.25 528.15 313.02 528.4 316 526.98 317.87 527.94 320.29 526.65 322.57 526.68 324.53 523.79 326.72 523.64 329.84 522.66 330.29 523.88 332.09 524.79 340.56 523.86 343.25 522.73 345.97 523.67 Z" id="37600370"/>
<path d="M 147.67 586.8 148.99 590.6 148.85 591.55 145.77 593.15 144.26 593.21 143.29 596.13 143.37 597.73 144.55 601 146.29 601.04 150.97 604.45 151.02 608.93 151.68 611.96 151.44 616.6 153.05 622.94 152.63 624.77 153.24 630.19 154.65 633.31 153.5 636.04 151.89 637.4 146.96 640.23 142.37 642.43 137.98 644.03 134.05 644.15 132.57 643.64 130.32 640.03 128.76 639.69 125.25 641.77 124.43 644.45 122.94 646.62 126.3 646.79 128.74 648.38 129 650.03 130.26 651.5 132.96 652.81 132.49 654.75 134.27 655.86 135.38 658.87 132.94 660.55 133.07 662.99 131.7 665.44 133.14 666.78 131.32 671.84 131.67 672.78 130.47 675.58 131.54 678.26 135.75 680.07 136.18 681.99 134.8 685.53 134.8 691.46 133.38 693.92 133.17 698.18 131.74 699.99 131.84 702.39 130.9 705.09 127.41 707.31 131.55 714 132.39 716.81 138.12 716.06 142.5 717.47 149.46 716.96 149.46 715.65 156.15 713.13 157.87 710.91 160.65 708.5 162.18 710.06 162.18 711.45 165.83 713.15 167.33 715.45 169.08 715.63 169.8 717.09 173.29 719.38 174.51 719.7 174.18 721.69 176.46 724.52 176.06 725.65 177.67 729.54 175.99 733.17 174.74 734.66 176.41 738.23 178.04 739.94 179.22 744.57 180.21 746.02 177.2 747.82 175.45 749.75 173.98 753.06 173.87 755.47 174.54 759.16 176.51 761.49 179.76 763.58 183.08 767.14 184.69 771.78 172.47 778.89 161.18 785.88 152.98 787.47 148.42 788.88 141.76 789.3 135.57 787.83 134.48 786.67 134.47 784.52 133.35 774.62 131.18 772.8 129.82 770.64 127.62 769.91 126.74 773.5 122.63 772.19 120.28 773.76 119.55 776.22 117.96 778.01 115.89 779 115.41 780.16 113.2 781.6 113.29 786.6 110.76 789.83 108.6 790.71 108.03 794.13 106.49 795.36 107.78 800.97 107.41 802.94 108.19 805.76 106.95 811.98 99.19 808.57 97.52 808.41 93.05 809.67 89.48 811.24 86.51 813.22 81.26 817.83 81.94 813.65 80.52 813 79.86 811.07 82.11 810.84 81.09 806.32 80.59 799.24 80.67 794 81.85 786.51 82.16 782.43 81.89 778.69 82.03 775.03 77.55 772.91 71.15 772.49 68.44 773 63.98 775.93 59.87 777.26 58.39 777.06 58.33 774.07 57.49 772.71 56.87 768.96 54 762.21 53.47 758.77 50.8 752.24 50.22 747.99 47.85 744.86 46.59 741.69 44.68 738.51 41.54 735.33 39.55 731.78 35.71 726.88 34.49 724.38 24.98 715.94 22.45 711.94 18.51 709.89 13.76 705.37 11.5 702.66 6.96 700.3 5.44 698.22 4.96 692.9 1.35 691.33 2.62 688.02 1.32 685.74 1 683.5 2.05 681.75 4.07 683.3 6.99 684.68 9.17 685.06 12.56 686.68 15.96 687.13 17.67 686.06 21.39 687.22 24.56 686.11 26.72 686.7 26.76 683.83 27.67 681.63 26.79 680.04 26.65 677.28 25.13 676.05 21.25 675 21.29 671.67 22.94 671.08 26.16 674.05 28.59 672.46 28.88 669.88 33.04 668.81 38.31 670.08 39.17 668.8 41.29 667.47 43.28 667.2 47.36 667.52 48.91 667.19 51.07 665.65 52.7 663.62 54.09 659.23 60.82 653.48 61.28 649.57 58.76 648.39 60.23 642.75 58.66 639.86 59.35 637.56 59.25 634.43 61.34 632.68 63.43 629.02 64.87 629.06 68.57 630.61 71.48 630.35 76.67 628.28 77.69 623.25 79.35 623.29 80.77 621.68 83.64 621.8 86.01 617.16 86.52 613.69 85.5 611.19 89.86 610.17 94.13 611.03 97.06 610.47 99.72 610.74 100.43 609.77 100.72 606.33 104.19 605.72 106.18 602.66 108.75 599.98 108.24 597.71 111.06 596.49 111.51 594.72 110.04 589.83 111.07 586.55 109.42 584.32 109.55 582.28 108.5 581.12 109.09 578.49 110.51 575.94 108.28 573.32 108.6 569.45 107.34 567.28 106.73 565 107.58 562.02 107.47 557.7 108.99 554.65 110.33 552.99 111.27 553.41 114.27 551.51 117.85 551.83 121.31 550.71 123.4 551.14 125.75 550.72 128.66 553.62 133.09 552.26 134.41 553.4 132.33 555.89 131.15 559.18 131.31 561.37 132.48 565.43 134.77 571.02 136.07 571.51 138.92 575.18 138.49 579.55 134.01 582.7 133.23 585.4 135.58 586.63 141 586.1 143.55 584.44 147.67 586.8 Z" id="37600380"/>
<path d="M 166.45 592.5 166.11 595.74 163.76 598.55 164.77 600.68 163.86 602.19 164.05 603.75 167.54 604.79 168.1 606.26 168.4 610.28 170.72 614.75 172.65 615.02 175.07 617.11 176.54 617.28 180.06 620.97 181.1 620.96 184.11 622.72 186.77 622.04 195.64 623.05 199.62 622.33 201.59 623.92 208.22 625.5 209.61 627.23 208.88 628.21 210.61 631.4 209.67 632.19 208.68 635.02 204.73 634.6 203.05 639.44 205.94 639.98 206.66 641.98 205.06 642.4 207.54 645.49 207.51 647.02 208.89 649.95 209.23 652.2 210.3 652.68 212.46 655.28 212.28 657.01 214.55 659.5 214.07 662.45 215.34 664.85 217.77 668.05 216.68 670.61 216.6 673.84 220.25 673.32 222.58 673.71 225.17 673.14 227.42 674.85 229.03 674.53 229.06 672.44 230.21 670.19 232.25 670.39 235.25 668.18 237.33 665.71 239.99 667.15 243.08 667.3 246.38 669.6 246.15 666.82 245.02 665.7 244.82 660.74 245.37 657.64 243.49 654.95 244.17 652.11 246.88 648.85 248.94 650.06 250.04 648.74 253.79 647.13 256.21 649.32 259.04 649.65 264.5 652.55 266.4 648.6 268.04 646.43 269.77 645.68 274.05 646.61 280.92 645.95 283.05 644.28 285.04 644.77 287.74 643.6 288.63 643.96 290.22 641.74 291.04 639.61 292.19 639.17 294.69 635.98 295.53 639.1 297.11 640.35 297.91 639.47 300.4 639.92 303.73 639.37 307.41 640.89 309.06 639.6 311.33 639.34 312.77 633.62 315.78 631.89 316.45 630.68 318.72 630.61 320.07 631.25 325.51 628.29 327.17 624.07 327.54 619.65 328.5 617.32 333.63 614.76 337.22 616.29 339.84 616.95 340.11 615.76 342.33 617.6 343.63 617.72 344.74 619.26 346.73 620.35 349.76 622.97 353.73 624.22 355.02 623.1 357.15 624.21 359.09 624.04 360.05 625.06 363.24 625.89 365.51 623.48 367.03 624.19 370.33 623.86 370.95 626.54 374.88 625.1 375.49 628.96 376.16 630.35 381.26 631.57 379.23 637.13 379.1 644.17 377.98 647.98 376.43 651.12 374.55 652.6 372.34 656.88 371.74 659.81 367.82 670.16 365.99 676.46 365.16 680.47 363.4 684.86 363.41 690.76 364.12 701.01 364.29 709.58 362.29 712.36 360.81 715.18 359.41 716.75 355.03 720.19 352.26 722.91 351.54 724.92 349.71 726.64 342.75 729.24 339.59 729.82 331.79 730 315.87 730.05 313.93 729.52 301.1 729.38 295.02 728.91 290.55 729.22 288.28 729.86 275.46 730.15 269.06 733.76 262.83 739.29 261.77 739.58 250.12 744.88 237.38 749.2 222.07 753.58 211.92 758.33 199.19 763.32 184.69 771.78 183.08 767.14 179.76 763.58 176.51 761.49 174.54 759.16 173.87 755.47 173.98 753.06 175.45 749.75 177.2 747.82 180.21 746.02 179.22 744.57 178.04 739.94 176.41 738.23 174.74 734.66 175.99 733.17 177.67 729.54 176.06 725.65 176.46 724.52 174.18 721.69 174.51 719.7 173.29 719.38 169.8 717.09 169.08 715.63 167.33 715.45 165.83 713.15 162.18 711.45 162.18 710.06 160.65 708.5 157.87 710.91 156.15 713.13 149.46 715.65 149.46 716.96 142.5 717.47 138.12 716.06 132.39 716.81 131.55 714 127.41 707.31 130.9 705.09 131.84 702.39 131.74 699.99 133.17 698.18 133.38 693.92 134.8 691.46 134.8 685.53 136.18 681.99 135.75 680.07 131.54 678.26 130.47 675.58 131.67 672.78 131.32 671.84 133.14 666.78 131.7 665.44 133.07 662.99 132.94 660.55 135.38 658.87 134.27 655.86 132.49 654.75 132.96 652.81 130.26 651.5 129 650.03 128.74 648.38 126.3 646.79 122.94 646.62 124.43 644.45 125.25 641.77 128.76 639.69 130.32 640.03 132.57 643.64 134.05 644.15 137.98 644.03 142.37 642.43 146.96 640.23 151.89 637.4 153.5 636.04 154.65 633.31 153.24 630.19 152.63 624.77 153.05 622.94 151.44 616.6 151.68 611.96 151.02 608.93 150.97 604.45 146.29 601.04 144.55 601 143.37 597.73 143.29 596.13 144.26 593.21 145.77 593.15 148.85 591.55 148.99 590.6 147.67 586.8 150.82 585.47 151.89 586.98 153.2 587.07 155.13 588.57 156.44 591.55 158.55 593.22 159.95 593.43 166.45 592.5 Z" id="37600390"/>
<path d="M 331.79 730 331.89 732.45 326.81 732.25 320.27 732.63 323.37 734.62 331.89 735.66 337.57 738.17 339.97 737.87 343.13 738.14 343.98 739.73 349.34 739.56 351.95 740.65 351.73 742.05 352.9 744.35 354.53 744.47 356.61 742.33 359.32 741.44 362.99 740.89 364.5 741.99 364.54 744.94 365.76 747.84 365.87 751.78 368.2 752.45 369.79 755.12 371.98 756.01 374.41 754.42 377.24 755.3 379.87 752.89 383.21 753.54 386.09 753.25 386.73 755.7 387.51 763.03 389.56 767.33 392.04 773.43 391.62 774.58 396.84 775.95 400.65 782.13 402.32 782.01 406.27 787.87 409.47 789.06 411.02 794 411.39 796.5 413.41 796.82 414.81 797.83 414.31 800.9 415.92 804.59 417.94 804.78 420.66 803.87 423.03 805.12 425.77 805.69 429.83 804.06 433.04 803.44 437.16 799.56 438.56 799.32 439.74 801.17 443.11 801.25 443.31 803.54 446.33 806.45 446.44 808.97 448.1 811.17 448.05 814.25 447.47 816.14 447.35 819.14 448.39 821.41 451.33 823.22 451.11 824.91 452.25 826.7 454.41 832.98 451.39 836.2 449.98 836.96 449.62 838.56 453.87 841.43 456.94 841.32 458.53 845.75 455.85 849.89 451.73 849.74 454.68 856.96 456.01 856.83 459.25 858 459.4 859.45 461.28 860.37 462.57 865.2 463.55 865.78 465.01 870.48 468.34 871.85 468.95 874.45 470.8 874.58 471.06 883.44 453.4 883.81 449.58 885.8 445.52 888.89 445.44 892.71 442.04 895.17 436.88 899.48 432.98 903.39 427.15 906.97 420.27 910.36 415.37 911.95 413.32 914.78 409.17 922.07 407.79 925.14 407.83 927.09 405.4 931.16 396.06 932.05 394.03 933.44 391.25 934.09 388.89 935.62 386.18 933.85 381.15 935.02 377.28 934.79 372.05 932.67 369.43 931.18 367.85 928.57 356.67 934.12 352.71 936.99 348.35 941.24 344.1 946.63 335.61 952.64 329.9 958.24 329.99 960.77 323.95 965.86 318.92 968.01 308.43 973.43 302.25 974.74 293.44 977.69 288.95 980.49 282.87 982.39 280.72 982.89 273.41 985.57 267.96 986.81 264.27 985.03 260.56 981.38 256.61 975.41 254.31 970.14 253.86 964.96 254.33 961.55 256.16 953.87 256.67 949.45 256.32 947.94 250.51 941.48 249.68 934.11 249.49 927.15 249.56 918.82 246.25 911.78 244.03 909.86 240.68 908.13 237.76 906.09 234 904.24 231.85 903.61 227.09 903.44 222 905.51 218.03 904.07 218.48 901.39 211.21 900.55 211.15 899.28 209.55 898.35 207.04 894.57 204.67 887.27 203.28 880.4 201.6 878.79 199.64 875.52 195.22 871.72 189.46 867.96 186.71 867.25 179.74 864.34 175.61 862.9 165.92 862.73 162.79 862.85 157.03 862.52 150.89 860.72 145.38 859.44 141.19 857.39 136.94 853.58 135.1 849.39 134.08 843.67 133.81 839.16 132.03 830.38 129.1 824.53 125.29 819.62 123.39 818.86 121.69 817.08 117.38 815 112.82 813.79 110.46 813.58 106.95 811.98 108.19 805.76 107.41 802.94 107.78 800.97 106.49 795.36 108.03 794.13 108.6 790.71 110.76 789.83 113.29 786.6 113.2 781.6 115.41 780.16 115.89 779 117.96 778.01 119.55 776.22 120.28 773.76 122.63 772.19 126.74 773.5 127.62 769.91 129.82 770.64 131.18 772.8 133.35 774.62 134.47 784.52 134.48 786.67 135.57 787.83 141.76 789.3 148.42 788.88 152.98 787.47 161.18 785.88 172.47 778.89 184.69 771.78 199.19 763.32 211.92 758.33 222.07 753.58 237.38 749.2 250.12 744.88 261.77 739.58 262.83 739.29 269.06 733.76 275.46 730.15 288.28 729.86 290.55 729.22 295.02 728.91 301.1 729.38 313.93 729.52 315.87 730.05 331.79 730 Z" id="37600400"/>
<path d="M 227.09 903.44 227.28 909.03 223.99 913.07 222.26 913.82 219.82 917 217.1 918.97 215.27 918.37 210.68 918.57 208.88 919.51 206.83 919.21 202.64 917.77 199.49 921.05 197.38 921.75 195.38 923.13 191.99 923.63 190.12 924.66 187.13 928.96 187.74 931.34 191.76 935.56 194.05 936.36 193.78 939.12 194.82 941.33 194.9 943.54 197.02 949.39 197.34 951.68 198.53 955.25 197.18 957.68 196.05 961.01 193.3 964.19 191.43 967.57 189.9 968.54 190.68 976.81 187.86 979.86 188.94 982.29 187.52 983.64 187.24 985.64 185.67 988.59 182.95 990.66 180.16 993.45 177.21 998.41 177.8 1000.24 181.96 1003.91 182.52 1005.3 179.91 1008.42 177.34 1010.36 177.61 1012.59 179.81 1017.5 180.16 1020.28 182.26 1021.27 183.96 1025.32 181.82 1028.69 177.69 1028.96 177.16 1030.66 173.68 1033.49 173.04 1034.6 169.54 1037.07 167.04 1038.04 166.84 1039.59 165.34 1043.12 164.18 1044.37 163.58 1046.34 158.57 1050.72 158.67 1053.88 153.75 1060.69 152.31 1061.84 151.3 1064.68 149.42 1067.7 146.23 1066.91 143.67 1069.66 142.67 1071.72 141.85 1076.9 142.67 1078.57 137.79 1079.4 136.82 1080.87 132.08 1081.06 129.16 1080.49 124.79 1085.36 122.26 1086.69 119.88 1090.75 116.5 1097.83 115.76 1100.44 118.01 1102.42 119.45 1102.92 120.76 1105.29 120.66 1106.82 123.02 1108.36 123.97 1110.86 124.01 1114.68 124.6 1115.5 125.77 1120.77 126.61 1122.72 127.34 1126.53 121.34 1126.47 116.14 1127 113.95 1122.09 111.96 1121.67 109.12 1119.37 107.23 1118.4 105.32 1114.66 103.96 1113.15 103.58 1110.82 98.22 1106.63 96.17 1104.75 95.1 1101.7 88.62 1098.36 85.04 1097.23 80.24 1098.49 78.09 1103.52 75.72 1106.61 70.32 1106.37 68.55 1105.16 61.96 1103.06 60.31 1104.62 51.3 1102.06 47.89 1098.96 46.47 1093.11 46.58 1090.62 45.92 1086.1 47.75 1078.52 42.99 1076.52 42.78 1075.88 38.54 1072.21 37.77 1070.98 32.81 1068.71 29.95 1066.85 28.74 1063.81 24.89 1064.51 20.57 1062.59 18.07 1064.37 15.17 1067.54 14.42 1067.46 8.2 1064.37 12.91 1057.09 17.78 1046.74 17.78 1045.08 21.33 1041.76 25.38 1039.98 26.8 1036.29 26.72 1033.95 25.41 1026.58 22.91 1023.62 22.16 1021.01 19.93 1015.92 19.72 1011.81 19.22 1009.5 16.85 1005.72 16.03 993.08 14.6 988.54 14.24 985.26 13.32 983.15 12.4 978.58 13.06 968.32 14.86 964.73 14.9 962.65 16.36 954.45 17.17 952.37 23.52 950.29 24.97 948.62 26.83 943.97 24.19 933.77 24.02 923.51 22.91 920.97 21.32 919.32 21 913.32 20.32 908.64 19.64 900.86 19.59 896.91 18.48 892.87 15.21 892.99 15.15 889.47 10.23 882.77 8.31 880.66 5.06 878.45 8.83 878.36 8.22 872.55 8.99 869.84 5.73 867.51 7.59 863.81 7.55 859.32 8.82 856.04 12.12 851.01 13.01 851.36 18.97 851.79 21.44 850.28 33.2 849.42 59.89 848.94 72.76 851.08 76.97 850.57 81.38 848.9 85.46 845.58 82.68 841.19 84.28 841.32 84.3 838.87 77.57 829.9 81.26 817.83 86.51 813.22 89.48 811.24 93.05 809.67 97.52 808.41 99.19 808.57 106.95 811.98 110.46 813.58 112.82 813.79 117.38 815 121.69 817.08 123.39 818.86 125.29 819.62 129.1 824.53 132.03 830.38 133.81 839.16 134.08 843.67 135.1 849.39 136.94 853.58 141.19 857.39 145.38 859.44 150.89 860.72 157.03 862.52 162.79 862.85 165.92 862.73 175.61 862.9 179.74 864.34 186.71 867.25 189.46 867.96 195.22 871.72 199.64 875.52 201.6 878.79 203.28 880.4 204.67 887.27 207.04 894.57 209.55 898.35 211.15 899.28 211.21 900.55 218.48 901.39 218.03 904.07 222 905.51 227.09 903.44 Z" id="37600410"/>
<path d="M 482.53 190.39 477.11 189.04 472.97 188.86 471.12 189.31 467.5 189.21 461.9 190.53 457.29 191.28 453.66 189.93 447.81 190.08 445.97 193.32 438.34 193.27 437.65 195.91 438.39 200.88 439.97 204.7 439.19 205.52 436.58 204.91 431.99 201.6 430.31 199.71 428.26 202.03 427.35 206 428.51 207.47 428.86 210.66 426.41 213.25 424.92 213.53 425.6 216.4 427.86 218.6 428.67 221.88 427.43 225.14 428.74 226.3 427.4 227.48 428.85 229.67 430.42 230.78 429.4 231.87 428.19 235.32 429.16 236.66 426.92 240.84 423.25 240.93 421.64 240.15 421.63 238.41 420.67 237 416.57 234.68 415.03 234.39 411.29 232.5 406.49 230.9 403.75 231.68 403.01 230.37 398.3 227.22 397.02 225.87 395.25 225.92 392.31 223.8 387.7 223.54 383.26 226.48 381.79 226.89 377.96 230.6 377.74 232.12 375.27 234.88 372.98 236.28 371.55 237.97 369.54 237.07 367.73 237.59 365.21 237.06 361.48 240.32 359.04 241.43 358.04 243.1 355.75 242.5 354.69 244.69 352.45 245.96 352.23 247.03 349.06 249.8 347.99 249.79 343.36 251.77 340.05 253.91 338.86 260.18 338.02 260.68 338.54 264.09 337.07 267.94 337.27 273.78 337.01 276.78 335.2 279.69 335.96 281.46 337.97 281.57 336.85 284.25 336.96 285.51 334.32 287.13 333.75 288.54 330.83 288.47 326.45 289.72 323.68 291.57 321.13 294.06 317.02 293.26 314.14 290.67 312.78 288.07 309.64 289.39 306.53 293.73 301.62 296.36 299.14 296.49 296.05 294.62 292.34 296.11 290.51 296.19 286.37 299.51 283.07 296.52 280.44 294.67 278.79 292.78 276.33 291.11 273.87 291.96 272.39 293.12 269.75 292.67 264.36 293.05 263.06 292.48 260.35 293.23 258.52 292.24 258.33 290.54 254.86 288.87 253.15 286.65 248.67 282.8 245.76 281.49 243.04 281.03 243.35 278.48 240.99 276.22 241.19 273.94 240.69 270.01 237.92 268.79 233.37 265.53 231.02 258.82 230.75 256.75 229.74 255.39 229.49 252.23 231.47 251.16 234.99 248.05 234.86 245.39 236.76 243.28 237.72 240.43 237.28 237.79 239.4 234.21 239.05 230.33 236.84 229.37 235 226.68 233.76 224.06 232.55 219.73 232.91 218.06 231.63 215.05 232.17 209.53 234.51 208.31 235.36 206.85 234.67 205.45 235.91 199.63 236.01 195.86 236.87 193.31 236.22 188.59 237.18 186.11 241.59 180.38 243.51 171.12 241.33 164.85 244.04 160.84 248.02 152.56 247.64 148.98 245.49 145.4 243.23 139.44 239.43 136.11 242.83 132.52 249.25 126.49 250.44 120.03 253.25 118.28 255.15 115.6 257.39 114.72 260.36 110.49 262.43 110.14 264.12 108.29 268.39 102.1 273.15 101.9 276.47 102.19 282.93 100.53 285.32 100.69 291.07 100.16 293.16 100.25 298.3 98.84 301.87 100.21 304.67 101.74 310.47 104.37 315.87 104.83 319.13 106.3 321.67 106.03 325.22 106.84 330.07 105.8 337.68 108.16 341.05 108.45 342.81 107.94 345.88 105.78 349.55 105.67 351.05 106.29 354.26 106.52 358.22 107.52 359.73 106.66 369.02 98.07 370.51 94.85 370.27 92.39 370.65 87.82 373.92 85.25 375.06 80.65 378.88 77.09 379.46 76.04 382.18 74.62 384.16 71.41 385.35 66.41 387.59 61.24 386.58 57.58 387.93 53.27 387.92 50.63 388.99 46.2 388.46 42.66 392.01 40.98 396.83 37.77 400.35 36.29 405.22 32.57 407.33 28.26 407.27 24.88 411.21 21.61 412.87 19.31 416.9 16.23 418.02 12.68 417.79 8.01 421.4 4.39 421.88 1 424.54 1.28 426.83 3.3 431.7 5.47 439.21 6.65 443.87 9.37 445.65 9.77 447.32 7.89 450.15 7.07 453.43 5.23 456.21 8.31 459.3 10.04 459.8 11.03 462.38 12.89 464.52 13.33 465.67 14.91 470.86 17.36 473.97 19.84 474.43 21.09 476.78 23.18 478.97 23.82 480.33 25.43 480.53 28.68 483.01 31.04 486.86 32.94 487.69 34.18 491.66 36.66 493.83 37.31 497.05 39.49 498.33 46.19 498.08 48.63 499.48 53.46 497.18 57.29 497.41 58.14 495.91 61.76 492.2 63.04 491.02 66.68 491.37 67.56 489.17 69 486.69 73.77 487.25 77.97 485.79 83.75 484.81 86.46 482.74 88.3 480.28 88.21 478.56 88.9 479.02 91.7 478.44 101.67 477.79 107.49 478.19 109.21 477.36 113.56 475.53 118.87 476 120.62 475.48 122.23 474.58 128.51 476.44 133.63 477.69 135.42 479 135.64 481.29 138.12 482.16 141.6 483.4 143.68 483.61 149.11 484.71 151.25 484.39 153.43 486.19 156.06 485.9 159.31 486.73 160.69 486.09 162.97 486.67 164.55 486.25 169.44 485.03 171.45 486.76 173.19 487.6 176.41 486.48 179.19 486.53 182.79 485.38 183.89 485.86 185.18 484.77 187.82 482.53 190.39 Z" id="37600420"/>
<path d="M 482.53 190.39 483.58 192.39 483.8 195 482.84 196.46 483.48 199.65 483.21 201.44 484.57 204.68 480.69 208.68 479.43 212.84 478.3 213.25 477.68 217.04 478.6 220.06 480.74 221.24 481.46 223.33 482.85 224.31 483.3 225.96 486.93 227.85 486.34 232.06 485.18 234.32 484.92 239.27 482.56 240.57 482.9 242.97 481.33 249.17 482.44 251 483.14 255.47 484.45 256.99 484.12 262.94 482.59 266.56 480.32 270.39 481.35 272.3 483.4 273.02 486.3 276.77 488.67 278.25 491.57 278.66 492.65 279.37 491.88 283.37 492.65 285.2 492.38 287.14 489.89 291.4 487.58 293.13 485.59 299.83 483.99 302.32 483.86 303.72 481.35 306.66 479.9 311.35 478.26 313.19 476.69 313.92 473.81 317.62 473.68 319.08 471.6 320.07 469.67 322.89 468.83 326.32 469.46 328.28 467.42 329.23 468.55 331.8 467.58 334.51 465.77 335.32 464.13 341.82 462.5 342.92 461.56 344.9 460.07 346.15 459.95 347.75 457.56 355.06 457.9 356.61 457.13 359.39 455.11 360.81 455.35 362 453.15 362.71 451.54 365.05 450.72 367.73 447.34 369.28 446.9 371.13 444.46 373.07 442.72 375.22 442.81 379.32 438.4 384.14 436.45 387.85 433.08 388.62 432.98 389.99 428.92 391 427.77 391.9 426.99 394.36 425.95 395.51 424.06 395.92 421.7 395.39 419.3 397.18 418.09 397.07 419.09 393.55 418.94 392.1 417.28 390.37 413.52 387.85 412.01 385.69 409.03 379.51 406.36 380.17 405.3 379.61 402.84 380.02 401.22 383.15 398.56 384.49 396.88 389.63 394.4 390.85 392.11 389.86 390.1 387.98 387.81 389.83 385.1 391.19 384.68 393.24 379.49 395.21 376.87 394.61 371.24 390.77 368.34 387.96 366.78 385.5 365.06 384.99 362.2 385.78 359.06 386.1 355.85 379.43 356.56 376.64 356.33 374.04 358.28 371.31 357.7 365.74 356.86 364.27 357.29 360.99 356.64 356.32 357.08 355.27 356.68 352.46 354.6 350.28 351.89 346.45 348.53 345.73 346.74 344.21 344.54 343.46 343.13 338.87 340.27 336.11 337.16 334.7 336.21 333.48 333.08 333.76 332.84 330.05 333.4 327.85 331.18 327.03 330.58 325.26 327.63 322.67 326.9 319.11 323.79 317.52 323.38 313.44 320.61 311.78 319.04 309.36 316 308.62 313.4 306.9 311.91 304.53 308.07 301.75 306.78 297.18 306.53 293.73 309.64 289.39 312.78 288.07 314.14 290.67 317.02 293.26 321.13 294.06 323.68 291.57 326.45 289.72 330.83 288.47 333.75 288.54 334.32 287.13 336.96 285.51 336.85 284.25 337.97 281.57 335.96 281.46 335.2 279.69 337.01 276.78 337.27 273.78 337.07 267.94 338.54 264.09 338.02 260.68 338.86 260.18 340.05 253.91 343.36 251.77 347.99 249.79 349.06 249.8 352.23 247.03 352.45 245.96 354.69 244.69 355.75 242.5 358.04 243.1 359.04 241.43 361.48 240.32 365.21 237.06 367.73 237.59 369.54 237.07 371.55 237.97 372.98 236.28 375.27 234.88 377.74 232.12 377.96 230.6 381.79 226.89 383.26 226.48 387.7 223.54 392.31 223.8 395.25 225.92 397.02 225.87 398.3 227.22 403.01 230.37 403.75 231.68 406.49 230.9 411.29 232.5 415.03 234.39 416.57 234.68 420.67 237 421.63 238.41 421.64 240.15 423.25 240.93 426.92 240.84 429.16 236.66 428.19 235.32 429.4 231.87 430.42 230.78 428.85 229.67 427.4 227.48 428.74 226.3 427.43 225.14 428.67 221.88 427.86 218.6 425.6 216.4 424.92 213.53 426.41 213.25 428.86 210.66 428.51 207.47 427.35 206 428.26 202.03 430.31 199.71 431.99 201.6 436.58 204.91 439.19 205.52 439.97 204.7 438.39 200.88 437.65 195.91 438.34 193.27 445.97 193.32 447.81 190.08 453.66 189.93 457.29 191.28 461.9 190.53 467.5 189.21 471.12 189.31 472.97 188.86 477.11 189.04 482.53 190.39 Z" id="37600430"/>
</g>
</svg>