<?xml version="1.0"?>
<svg xmlns="http://www.w3.org/2000/svg" version="1.2" baseProfile="tiny" width="800" height="609" viewBox="0 0 800 609" stroke-linecap="round" stroke-linejoin="round">
<g id="dong">
<path d="M 329.38 328.77 326.97 329.37 317.93 333.2 316.49 336.19 314.63 335.99 311.94 334.97 311.66 334.22 310.15 334.12 309 333.23 306.55 329.47 306.05 329.2 302.98 325.72 300.21 323.61 300.62 320.09 316.4 314.48 319.75 313.93 319.4 312.76 322.47 311.68 324.9 320.09 327.34 327.49 329.23 327.56 329.38 328.77 Z" id="38030730"/>
<path d="M 352.31 315.15 351.42 318.27 353.43 320.26 353.78 322.87 351.44 323.59 350.84 324.9 349.05 326.31 349.75 328.13 347.42 329.62 347.72 330.87 347.13 334.08 345.31 334.96 343.28 332.69 339.69 327.73 338.82 327.35 336.05 327.57 329.38 328.77 329.23 327.56 327.34 327.49 324.9 320.09 322.47 311.68 324.18 311.08 323.31 308.53 323.91 306.7 323.13 304.27 323.15 299.74 322.52 298.4 322.97 297.08 324.11 297.11 325.1 298.32 325.42 300.71 326.36 302.11 327.6 302.17 328.31 303.15 329.33 303.03 332.11 303.59 334.79 305.54 335.74 305.07 337.96 305.79 340.59 305.16 343.06 307 344.82 307.01 347.29 305.16 348.28 305.04 349.08 306.59 350.71 308.7 352.26 309.26 351.77 311.71 352.49 314.37 352.31 315.15 Z" id="38030740"/>
<path d="M 322.97 297.08 322.52 298.4 323.15 299.74 323.13 304.27 323.91 306.7 323.31 308.53 324.18 311.08 322.47 311.68 319.4 312.76 319.75 313.93 316.4 314.48 300.62 320.09 300.91 317.13 300.5 315.57 301.21 314.08 300.23 313.41 299.25 314 296.89 313.25 295.07 311.96 292.69 310.76 291.23 308.82 290.98 307.19 291.81 304.31 290.75 302.6 291.19 299.93 290.15 297.85 290.79 295.6 291.95 295.06 293.07 292.44 296.1 289.44 298.03 291.39 301.07 293.6 301.75 292.3 303.91 291.47 304.69 290.58 305.21 288.05 304.54 285.38 305.56 284.54 306.81 282.71 307.55 282.47 308.32 282.35 311.19 283.93 312.28 284.86 312.88 286.55 314.5 286.29 315.54 287.15 316.49 286.29 318.7 286.6 319.79 287.45 321.14 287.68 321.85 288.41 324.54 289.56 325.3 293.14 324.52 295.27 323.4 295.67 322.97 297.08 Z" id="38030750"/>
<path d="M 443.42 346.52 443.9 347.22 448.06 351.52 446.9 354.92 447.85 357.23 450.32 359.98 451.39 362.36 451.04 362.83 446.94 364.15 445.06 363.88 443.19 362.79 441.39 362.67 439.43 363.24 438.32 363.98 436.94 366.8 427.38 371.21 421.97 373.38 420.78 374.3 416.95 375.87 414.93 376.34 407.57 377.12 403.48 378.32 399.38 380.49 398.12 380.8 397.7 380.02 398.57 378.52 398.28 376.92 398.54 375.36 400.07 374.13 398.58 373.7 397.87 372.48 398.03 370.28 396.71 369.48 400.88 365.56 402.63 364.62 403.73 363.59 406.43 360.03 404.1 360.09 406.94 353.3 407 350.02 406.1 346.02 403.23 338.78 404.25 335.74 405.37 332.46 416.26 338.27 419.03 340.15 422.68 340.5 424.82 339.81 427.34 339.74 429.06 338.69 432.24 337.7 434.66 337.44 435.8 337.81 438.29 337.73 439.99 338.43 440.54 339.26 443.42 346.52 Z" id="38030760"/>
<path d="M 404.25 335.74 403.23 338.78 406.1 346.02 407 350.02 401.99 350.14 402.05 351.13 394.91 351.66 394.86 350.82 387.59 351.46 387.65 352.26 374.56 353.12 374.41 350.92 355.78 352.17 355.04 352.33 354.71 354 352.68 347.1 348.58 339.88 345.31 334.96 347.13 334.08 347.72 330.87 347.42 329.62 349.75 328.13 349.05 326.31 350.84 324.9 352.48 323.83 354.95 325.17 357.84 325.82 357.98 327.07 361.21 329.16 361.44 330.05 364.12 333.03 364.93 332.77 369.5 332.56 371.32 334.66 373.22 334.45 376.29 331.61 377.44 331.09 379.56 330.78 386.2 330.35 386.76 338.93 401.88 337.92 401.74 336.09 404.25 335.74 Z" id="38030770"/>
<path d="M 403.99 317.71 408.12 324.09 405.37 332.46 404.25 335.74 401.74 336.09 401.88 337.92 386.76 338.93 386.2 330.35 379.56 330.78 377.44 331.09 376.29 331.61 373.22 334.45 371.32 334.66 369.5 332.56 364.93 332.77 364.12 333.03 361.44 330.05 361.21 329.16 357.98 327.07 357.84 325.82 354.95 325.17 352.48 323.83 350.84 324.9 351.44 323.59 353.78 322.87 353.43 320.26 351.42 318.27 352.31 315.15 354.03 315.71 355.15 315.5 357.08 314.23 359.15 313.32 362.09 311.5 363.88 311.51 366.09 312.98 367.06 311.6 368.22 311.19 371.11 311.66 373.94 313.57 378.15 314.96 378.71 315.38 384.52 314.98 386.19 315.69 386.26 316.65 395.74 315.99 394.71 317.58 397.39 317.9 398.84 318.54 400.07 317.98 403.99 317.71 Z" id="38030780"/>
<path d="M 599.85 450.1 599.93 452.86 600.51 454.37 598.98 455.37 596.09 455.64 594.69 454.83 593.17 456.66 589.7 454.3 588.69 452.33 587.04 451.89 586.52 450.11 584.79 448.85 584.46 447.22 582.74 445.12 581.24 445.05 579.15 442.99 577.27 442.93 576.2 441.96 573.93 444.33 573.3 444.36 571.56 443.17 571.13 442.19 569 442.25 568.33 440.73 567.92 437.95 566.7 437.01 567.46 435.97 567.19 434.87 566.23 433.9 562.96 435.75 561.72 435.35 559.04 433.33 556.78 432.59 554.33 429.93 554.05 428.87 553.05 428.5 551.59 429.69 549.24 428.08 548.81 427.06 547.7 426.36 548.13 425.21 546.53 424.58 544.23 422.77 543.26 423.02 542.02 420.77 540.05 419.68 538.4 419.6 535.43 421.5 533.53 420.68 532.7 421.5 532.42 424.55 531.16 425.06 530.11 423.87 527.98 425.34 526.24 427.73 524.62 429.17 523.1 429.68 522.38 431.51 519.59 434.33 517.79 433.33 514.99 432.9 514.57 434.11 512.04 435.77 507.98 442.31 505.57 440.77 505.52 435.71 502.39 435.67 500.2 434.78 495.26 432.33 494.3 429.79 491.91 424.39 492.43 421.99 493.41 421.04 493.93 419.05 491.66 415.91 487.75 415.45 485.26 416.41 484.63 417.56 483.13 418.71 482.49 419.92 478.06 422.76 476.98 424.27 474.89 425.12 474.76 427.34 473.66 429.66 471.82 428.98 470.28 429.24 471.65 436.95 465.31 438.04 460.97 438.64 460.8 439.8 461.34 441.07 460.24 441.6 460.2 442.85 458.14 443.9 456.56 444.2 455.42 443.45 453.79 444.25 453.11 442.74 452.02 441.79 448.99 441.02 448.09 439.19 446.76 439 443.38 436.89 440.46 435.83 439.43 435.97 437.75 434.02 436.73 433.51 436.31 431.09 435.3 430.2 434.56 430.83 432.8 430.68 432.18 429.91 427.01 429.43 423.77 428.41 422.81 427.75 421.86 425.93 418.4 424.16 417.36 424.58 414.94 426.48 412.42 425.9 410.91 426.71 410.61 425.07 409.45 423.16 407.73 421.98 406.11 420.14 403.83 420.28 404.97 418.44 405.34 417.02 404.75 415.33 406.02 414.61 405.77 413.22 406.82 412.63 407.46 410.6 408.5 409.26 408.67 408.26 407.5 407.02 406.71 404.32 405.52 402.62 405.91 401.7 405.21 399.36 405.06 397.59 404.06 396.15 403.49 390.7 400.68 388.6 400.12 386.64 400.43 385.08 401.98 383.32 403.03 380.25 406.14 380.04 407.08 378.74 409.8 380.72 408.85 382.71 409.61 383.52 412.66 380.86 413.19 378.9 414.38 378.64 416.39 379.68 417.24 379.64 417.97 378.26 420.21 378.87 421.7 377.63 420.78 374.3 421.97 373.38 427.38 371.21 436.94 366.8 438.32 363.98 439.43 363.24 441.39 362.67 443.19 362.79 445.06 363.88 446.94 364.15 451.04 362.83 451.39 362.36 450.32 359.98 447.85 357.23 446.9 354.92 448.06 351.52 443.9 347.22 443.42 346.52 446.04 346.57 448.04 347.33 449.46 348.27 450.07 349.63 451.41 349.63 452.23 350.9 453.28 350.78 456.59 352.06 459.42 352.85 460.67 354.46 463.57 354.23 464.67 354.45 465.82 355.52 466.92 354.69 468.38 354.58 468.91 353.57 471.18 353.24 472.57 353.81 473.85 353.09 475.91 352.7 477.65 353.23 478.73 350.48 479.02 348.36 480.57 345.48 479.97 343.73 480.91 342.44 483.06 341.59 484.29 340.51 488.68 339.22 488.77 336.36 490.02 333.34 492.87 332.67 496.38 332.33 498.15 331.56 498.86 330.35 500.7 329.86 501.97 328.34 502.2 326.87 503.19 325.17 505.07 320.56 512.26 323.49 515.94 324.02 520.93 325.17 521.78 327.84 521.9 331.78 522.89 339.03 522.6 339.92 524.08 344.76 524.55 347.65 522.75 351.27 523.33 352.15 525.53 353.32 527.28 353.88 529.75 355.36 532.49 355.68 533.64 356.58 535.8 356.35 537.23 357.1 539.61 359.13 541.83 358.25 543.64 359.48 546.26 360.16 546.3 362.18 547.35 363.76 545.51 365.16 546.34 368.78 548.64 371.98 548.72 373.79 546.65 375.82 546.5 377.43 547.01 380.11 546.01 383.74 544.68 385.06 545.93 386.13 546.08 388.33 546.71 389.62 549.84 391.53 550.82 391.32 553.52 393.12 555.69 391.96 556.59 395.78 557.22 396.54 557.99 398.75 557.57 400.38 557.93 404.13 559.36 403.72 561.2 404.82 561.98 405.83 564.09 406.79 564.84 409.36 565.6 409.85 566.65 412.34 567.99 412.83 568.16 414.88 567.66 415.89 567.74 419.08 569.13 421.01 569.03 422.67 570.63 423.52 573.05 425.27 574.12 426.8 575.79 426.99 578.78 429.62 581.34 430.11 583.45 431.74 587.99 431.97 589.06 433.79 591.22 433.61 592.95 434.91 595.24 435.04 595.53 437.23 596.06 438.29 595.85 441.12 597.24 442.87 597.3 444.7 599.25 447.8 599.85 450.1 Z" id="38030110"/>
<path d="M 290.71 379.03 291.49 378.52 298.14 373.24 299.92 375.96 302.95 376.84 304.5 376.14 306.1 376 306.96 375.35 309 374.94 310.58 374.99 312.04 376.45 313.16 378.15 313.78 381.75 314.78 381.97 316.35 381.37 319.48 382.19 322.04 382.53 324.41 382.53 326.41 381.99 329.9 382.73 331.31 383.87 332.74 383.46 335.7 384.32 336.16 385.49 336.45 388.63 337.53 390.14 337.98 392.85 338.93 396.13 340.9 397.76 340.52 399.05 341.13 400.9 342.38 402.37 343.81 402.61 344.94 403.89 346.97 407.89 347.72 407.77 348.04 411.14 346.5 413.66 345.67 416.5 345.76 417.49 343 419.86 343.11 420.78 341.01 423.35 339.7 422.9 338.08 426.29 336.46 428.7 334.64 430.05 333.54 429.85 331.22 432.81 328.92 432.61 326.24 431.37 324.5 431.45 323.55 430.95 320.9 431.65 319.53 431.3 316.32 431.67 315.27 432.47 313.88 432.58 313.5 433.28 308.54 430 306.29 432.55 305.87 434.13 304.43 435.81 302.74 435.68 298.13 433.78 297.25 434.01 296.64 435.31 295.28 436.92 291.96 439.15 291.6 440.05 290.29 440.3 285.63 443.26 284.35 443.78 283.97 444.95 282.99 445.29 282.48 446.79 281.63 446.89 279.96 450.82 279.15 450.51 278.16 448.88 277.19 449.26 275.03 449.02 273.54 448.29 273.05 447.5 270.29 450.71 269.19 453.26 268.13 454.94 268.16 455.93 269.49 457.18 270.23 459.59 270 461.48 266.43 465.65 263.76 466.63 263.3 467.78 260.66 469.5 258.22 467.75 256.81 467.98 253.95 470.02 250.98 471.44 249.79 470.01 246.02 468.02 245.19 469.27 242.97 468.99 240.85 468.28 235.81 465.27 234.01 466.92 231.07 467.08 229.49 468.54 229.28 469.52 229.83 472.56 229.65 473.9 228.15 475.68 226.03 476.97 224.47 476.54 224.28 477.38 224.1 476.59 222.75 475.92 221.74 476.04 220.97 473.72 218.7 474.45 217.64 474.06 213.29 476.62 210.16 480.01 207.66 481.08 206.97 482.27 205.73 483.29 205.16 484.51 203.49 485.28 203.73 483.12 202.9 482.91 201.88 483.95 200.22 484.66 197.37 482.5 193.64 483.16 194.4 481.36 192.93 478.69 190.88 476.27 190.74 474.76 191.41 473.47 191.75 468.04 190.58 467.55 188.21 464.18 189.95 463.17 191.35 460.86 191.73 458.24 192.72 456.84 192.92 455.2 193.77 452.65 192.96 450.38 194.01 448.01 194.1 444.02 193.22 442.39 190.56 439.61 186.36 438.28 187.61 436.44 188.7 435.91 189.33 434 188.97 432.25 187.84 430.38 187.55 428.94 187.9 427.5 185.15 424.45 183.32 421.04 187.48 418.03 187.23 413.32 186.67 411.02 187.17 408.98 184.21 405.7 183.99 404.95 186.06 400 184.74 399.77 186.91 396.98 188.13 395.97 191.54 394.13 195.15 392.41 200.58 390.55 201.23 390.6 202.13 391.11 205.07 393.86 205.83 394.98 209.85 398.43 213.24 403.24 216.32 406.14 219.15 407.26 220.87 407.46 222.55 406.9 223.86 405.65 225 403.61 225.25 400.75 224.98 390.89 225.24 388.34 225.8 386.14 226.86 384.22 229.1 382.03 231.21 378.73 232.07 377.78 236.72 374.62 239.48 373.07 244.19 378.47 245.96 381.12 248.57 381.06 246.61 385.1 247.28 385.71 255.26 389.73 256.83 390.66 259.69 391.7 264.41 391.68 268.62 391.17 273.48 389.6 282.49 384.33 290.71 379.03 Z" id="38030310"/>
<path d="M 403.83 420.28 406.11 420.14 407.73 421.98 409.45 423.16 410.61 425.07 410.91 426.71 412.42 425.9 414.94 426.48 417.36 424.58 418.4 424.16 421.86 425.93 422.81 427.75 423.77 428.41 427.01 429.43 432.18 429.91 432.8 430.68 434.56 430.83 435.3 430.2 436.31 431.09 436.73 433.51 437.75 434.02 439.43 435.97 440.46 435.83 443.38 436.89 446.76 439 448.09 439.19 448.99 441.02 452.02 441.79 453.11 442.74 453.79 444.25 453.31 446.28 453.24 448.23 453.92 449.41 453.3 453.03 454.51 454.98 458.01 459.7 456.48 462.98 456.75 464.59 459.69 465.76 459.19 468.04 460.15 469.49 459.62 470.68 460.03 471.86 458.84 476.06 459.36 477.53 459.25 479.34 454.99 481.69 454.25 484.33 452.85 485.85 450.89 485.45 449.84 486.86 448.35 487.63 446.06 487.93 445.4 488.8 444.51 487.66 440.87 485.46 438.56 483.35 436.78 482.69 434.14 480.12 430.88 478.73 428.22 478.42 426.97 477.24 423.56 476.62 420.29 477.22 419.08 478.55 415.92 477.16 414.38 476.11 413.85 474.59 412.64 475.09 410.17 475.35 408.34 474.92 407.5 476.98 405.46 477.4 402.92 479.9 401.4 479.85 401.11 478.59 400.04 477.51 397.16 476.81 391.09 481.48 389.68 482.16 387.26 481.16 385.56 481.31 384.75 482.68 383.94 486.22 383.12 487.84 380.78 490.6 378.81 492.58 377.45 493.4 375.14 493.59 374.67 496.06 370.74 499.03 368.75 499.08 366.39 498.14 363.24 498.25 360.35 497.87 357.69 497.1 354.83 496.83 352.25 497.36 351.68 499.76 349.48 501.58 345.77 502.72 343.81 504.56 343.39 506.23 343.94 507.32 341.64 508.36 340.71 507.74 340.07 506.27 339.96 504.51 340.7 503.82 340.15 502.53 338.84 502.55 337.9 501.73 338.93 500.02 339.36 496.62 339.79 495.6 341.98 494.92 342.29 491.51 340.6 489.06 341.72 487.55 341.4 485.58 340.69 484.24 340.63 477.95 338.85 475.59 335.92 472.97 333.83 472.22 331.02 472.03 330.03 471.47 327.03 470.83 324.61 469.81 324.43 467.74 322.72 466.19 321.07 466.17 318.6 464.85 314.97 463.72 313.65 462.57 312.37 459.67 312.88 458.4 311.04 457.4 310.01 456.04 308.69 455.87 306.31 453.52 302.01 452.68 299.45 454.8 295.76 454.43 294.65 455.1 293.17 454.71 290.22 455.09 289.54 454.58 288.17 455.22 286.34 455.44 283.54 454.69 282.71 454.87 281.45 451.07 279.96 450.82 281.63 446.89 282.48 446.79 282.99 445.29 283.97 444.95 284.35 443.78 285.63 443.26 290.29 440.3 291.6 440.05 291.96 439.15 295.28 436.92 296.64 435.31 297.25 434.01 298.13 433.78 302.74 435.68 304.43 435.81 305.87 434.13 306.29 432.55 308.54 430 313.5 433.28 313.88 432.58 315.27 432.47 316.32 431.67 319.53 431.3 320.9 431.65 323.55 430.95 324.5 431.45 326.24 431.37 328.92 432.61 331.22 432.81 333.54 429.85 334.64 430.05 336.46 428.7 338.08 426.29 339.7 422.9 341.01 423.35 343.11 420.78 343 419.86 345.76 417.49 345.67 416.5 348.08 416.18 348.82 416.4 348.84 418.16 350.5 419.26 351.91 419.38 353.75 420.17 356.81 422.71 358.47 423.09 359.82 421.37 361.44 421.7 363.34 421.56 366.29 422.73 366.8 421.77 369.19 420.89 369.47 417.64 368.68 416.32 370.68 415.92 372.12 415.13 374.11 416.19 375.7 415.58 377.44 417.01 378.57 416.77 380.58 417.14 383.77 415.38 385.87 418.33 387.98 420.66 389.23 420.27 390.27 418 390.67 416.28 392.36 416.15 393.69 416.73 394.95 416.45 396.27 420.48 397.29 421.52 398.12 423.11 399.65 422.51 400.52 421.29 402.02 420.37 403.83 420.28 Z" id="38030320"/>
<path d="M 524.74 555.96 527.75 555.48 529.96 556.06 531.69 556.13 532.24 555.64 533.69 556.23 535.56 556.43 540.35 557.65 540.96 560.27 540.9 562.26 540.24 563.18 536.54 565.87 535.68 564.6 532.41 566.38 530.41 567.07 529.13 568.23 528.11 568.37 526.35 570.3 524.93 570.75 524.36 571.97 521.05 575.79 518.27 576.92 517.78 578.58 516.48 579.23 513.86 582.6 513.65 584.53 512.19 586.25 513.04 588 512.45 588.96 510.98 589.73 510.13 591.57 510.2 592.8 509.55 593.82 508.82 596.32 507.32 598.8 506.57 601.42 505.2 602.82 502.67 603.95 502.21 605.07 500.97 606.33 499.48 606.66 498.28 607.82 497.28 607.96 497.11 608 494.55 606.92 491.11 604.59 488.71 603.41 486.63 602.81 485.72 602.94 484.47 605.03 482.8 604.95 481.27 605.44 477.3 606.15 476.17 604.89 476.74 603.29 475.15 599.71 474.53 599.17 472.59 595.36 471.64 594.2 468.7 591.73 468.08 589.54 466.93 588.18 466.01 585.44 464.61 583.68 464.57 582.64 461.16 579.33 460.34 577.55 457.69 576.76 455 578.92 453.26 579.13 452.68 578.32 449.73 578.47 448.49 573.7 446.77 568.45 445.4 567.49 444.75 565.44 442.81 561.17 437.45 559.69 435.98 554.64 437.16 554.27 439.78 551.12 441.6 549.43 442.37 547.65 443.97 548.29 449.65 549.01 450.56 548.15 452.23 547.56 457.06 548.62 457.89 549.29 460.56 549.87 463 548.02 463.42 546.61 465.59 545.52 465.86 544.08 468.53 543.36 471.39 541.74 470.08 540.33 468.68 537.97 470.01 536.99 469.85 534.21 470.16 531.57 472.39 529.68 472.82 527.57 472.32 526.79 472.57 525.12 474.29 521.68 474.48 520.6 475.66 518.39 474.68 517.09 472.98 516.45 472 514.85 469.84 516.02 467.28 516.14 466.23 515.31 462.87 510.56 461.69 508.2 459.94 505.84 456.35 508.03 454.9 508.37 453.49 507.57 452.51 505.95 452.15 500.91 450.73 499.14 449.43 496.41 446.95 494.95 448 493.34 447.76 491.39 446.39 490.67 445.4 488.8 446.06 487.93 448.35 487.63 449.84 486.86 450.89 485.45 452.85 485.85 454.25 484.33 454.99 481.69 459.25 479.34 459.36 477.53 458.84 476.06 460.03 471.86 459.62 470.68 460.15 469.49 459.19 468.04 459.69 465.76 456.75 464.59 456.48 462.98 458.01 459.7 454.51 454.98 453.3 453.03 453.92 449.41 453.24 448.23 453.31 446.28 453.79 444.25 455.42 443.45 456.56 444.2 458.14 443.9 460.2 442.85 460.24 441.6 461.34 441.07 460.8 439.8 460.97 438.64 465.31 438.04 471.65 436.95 470.28 429.24 471.82 428.98 473.66 429.66 474.76 427.34 474.89 425.12 476.98 424.27 478.06 422.76 482.49 419.92 483.13 418.71 484.63 417.56 485.26 416.41 487.75 415.45 491.66 415.91 493.93 419.05 493.41 421.04 492.43 421.99 491.91 424.39 494.3 429.79 495.26 432.33 500.2 434.78 502.39 435.67 505.52 435.71 505.57 440.77 507.98 442.31 512.04 435.77 514.57 434.11 514.99 432.9 517.79 433.33 519.59 434.33 522.38 431.51 523.1 429.68 524.62 429.17 526.24 427.73 527.98 425.34 530.11 423.87 531.16 425.06 532.42 424.55 532.7 421.5 533.53 420.68 535.43 421.5 538.4 419.6 540.05 419.68 542.02 420.77 543.26 423.02 544.23 422.77 546.53 424.58 548.13 425.21 547.7 426.36 548.81 427.06 549.24 428.08 551.59 429.69 553.05 428.5 554.05 428.87 554.33 429.93 556.78 432.59 559.04 433.33 561.72 435.35 562.96 435.75 566.23 433.9 567.19 434.87 567.46 435.97 566.7 437.01 567.92 437.95 568.33 440.73 569 442.25 571.13 442.19 571.56 443.17 573.3 444.36 573.93 444.33 576.2 441.96 577.27 442.93 579.15 442.99 581.24 445.05 582.74 445.12 584.46 447.22 584.79 448.85 586.52 450.11 587.04 451.89 588.69 452.33 589.7 454.3 593.17 456.66 592.44 457.92 592.11 459.66 590.75 460.43 591.33 462.83 591.07 465.32 589.6 465.37 587.59 466.7 586.2 466.57 585.62 467.85 584.46 469.06 583.07 468.61 581.72 469.02 579.93 470.77 578.04 474 575.1 472.93 574.41 471.21 572.54 472.43 570.63 472.43 569.23 473.42 567.91 479.16 566.01 480.1 562.45 480.2 561.37 480.61 560.58 479.47 559.67 479.53 558.79 478.52 555.63 479.59 554.2 477.87 551.66 478.01 551.32 478.77 549.85 479.37 547.45 478.87 546.18 478.1 543.94 479.31 542.25 479.29 540.94 478.48 539.7 476.88 537.36 478.1 537.13 479.58 537.68 483.38 536.34 484.39 534.9 484.4 533.63 485.44 532.68 485.53 530.95 487.72 529.74 488.67 526.74 489.24 526.87 490.84 525.86 493.55 525.5 495.93 523.96 496.63 521.67 496.01 520.32 497.98 520.41 499.24 519.22 501.08 521.53 501.94 522.69 503.62 523.05 507.31 523.55 507.93 522.02 509.12 520.45 514.33 519.37 515.97 517.03 517.39 514.64 516.91 512.02 515.64 508.38 513.12 507.13 510.63 505.74 511.25 506.21 514.2 504.45 517.4 503.65 520.23 502.33 523.52 501.95 528.27 501.98 534.55 503.09 537.74 502.48 540.32 502.95 545.54 503.73 548.41 506.04 553.83 507.52 555.83 508.62 556.1 510.53 555.64 519.95 555.45 524.16 556.11 524.74 555.96 Z" id="38030330"/>
<path d="M 555.13 281.75 557.09 283.05 558.05 283.18 559.44 284.17 559.55 284.99 558.52 287.21 558.63 289.92 560.53 293.28 560.36 296.14 561.69 297.55 563.35 297.78 564.3 299.04 564.72 300.82 565.86 303.5 567.25 303.12 567.81 301.07 569.01 300.34 569.68 301.18 571.66 305.05 572.67 307.67 573.08 311.34 574.13 312.21 575.67 312.24 578.73 313.78 579.58 314.5 580.73 316.66 583.61 317.31 585.73 316.43 587.39 316.27 588.35 317.29 588.48 320.01 597.97 320.29 598.01 320.48 605.44 320.56 605.55 320.71 605.62 329.01 606.4 331.02 605.73 333.11 604.6 334.15 603.56 336.38 603.35 338.34 605.23 339.91 606.02 342.33 605.81 343.11 606.56 345.58 606.98 349.27 606.73 350.83 607.3 354.49 608.17 357.01 612.91 360.62 616.91 364.36 620.99 367.57 621.16 367.99 624.01 370.29 626.33 373.07 626.55 373.83 624.4 377.3 627.07 379 627.85 381.13 627.29 383.39 627.71 384.35 629.88 384.97 631.24 386.91 630.66 389.37 633.05 391 635.22 391.69 636.12 394.46 635.78 395.39 635.97 399.75 637.07 401.01 637.83 403.13 637.33 404.76 632.61 407.66 632.05 408.82 629.59 408.45 628.95 406.76 627.15 404.6 624.25 405.01 623.39 406.29 620.46 406.54 619.75 407.34 617.67 407.02 613.86 406.98 613.72 408.27 612.95 409.71 614.28 411.53 615.96 412.37 615.11 413.91 616.56 415.91 617.87 415.87 619.93 418.18 620.98 418.88 621.52 421.17 622.33 422.7 624.1 424.17 628.02 426.18 629.71 425.35 631.41 426.84 631.36 428.07 630.56 430.08 630.78 432.38 632.75 433.98 633.64 436.43 634.19 436.71 635.08 439.6 636.84 442.7 636.04 444.03 635.15 446.47 634.03 447.36 632.57 447.78 632.16 449.07 631.24 449.79 628.98 450.51 626.91 452.17 624.45 451.35 621.77 449.85 618.67 449.52 616.59 450.54 615.67 452.1 614.44 453.09 612.22 451.81 609.88 449.82 608.09 450.83 605.81 451.07 602.66 450.88 599.85 450.1 599.25 447.8 597.3 444.7 597.24 442.87 595.85 441.12 596.06 438.29 595.53 437.23 595.24 435.04 592.95 434.91 591.22 433.61 589.06 433.79 587.99 431.97 583.45 431.74 581.34 430.11 578.78 429.62 575.79 426.99 574.12 426.8 573.05 425.27 570.63 423.52 569.03 422.67 569.13 421.01 567.74 419.08 567.66 415.89 568.16 414.88 567.99 412.83 566.65 412.34 565.6 409.85 564.84 409.36 564.09 406.79 561.98 405.83 561.2 404.82 559.36 403.72 557.93 404.13 557.57 400.38 557.99 398.75 557.22 396.54 556.59 395.78 555.69 391.96 553.52 393.12 550.82 391.32 549.84 391.53 546.71 389.62 546.08 388.33 545.93 386.13 544.68 385.06 546.01 383.74 547.01 380.11 546.5 377.43 546.65 375.82 548.72 373.79 548.64 371.98 546.34 368.78 545.51 365.16 547.35 363.76 546.3 362.18 546.26 360.16 543.64 359.48 541.83 358.25 539.61 359.13 537.23 357.1 535.8 356.35 533.64 356.58 532.49 355.68 529.75 355.36 527.28 353.88 525.53 353.32 523.33 352.15 522.75 351.27 524.55 347.65 524.08 344.76 522.6 339.92 522.89 339.03 521.9 331.78 521.78 327.84 520.93 325.17 515.94 324.02 512.26 323.49 505.07 320.56 502.75 319.47 501.77 317.99 495.26 313.83 495.19 312.86 498.07 303.72 499.06 301.75 499.16 299.49 499.54 298.64 503.02 297.57 506.05 295.62 509.86 294.13 509.03 292.66 508.86 290.6 507.2 286.91 507.35 286.29 506 282.18 506.34 280.56 504.3 277.41 503.61 274.99 504.58 270.13 506.18 269.46 506.91 268.47 509.63 266.58 510.59 266.32 513 264.45 513.91 261.9 517.02 260.61 526.16 261.97 528.19 263.28 535.42 269.1 537.46 270.39 544.71 277.54 553.92 281.99 555.13 281.75 Z" id="38030340"/>
<path d="M 704.23 348.1 703.39 349.34 700.8 351.16 700.9 352.15 701.91 354.22 700.83 355.58 701.62 358.98 701.64 360.61 700.57 363.12 700.66 364.14 701.77 364.99 703.48 364.78 704.93 367.43 703.39 368.7 700.85 369.94 699.01 372.11 697.89 374.32 696.72 375.26 695.63 375.05 694.45 373.8 693.4 371.72 692.42 371.56 688.99 372.75 687.81 374.03 687.32 376.43 686.18 377.22 684.22 377.24 678.59 376.66 676.22 376.88 674.35 377.42 672.64 378.87 672.32 381.36 670.74 382.95 672.1 386.09 672.89 386.89 673.48 389 676.89 391.36 677.97 391.5 678.52 390.35 680.27 390.52 682.78 394.04 684.26 394.9 683.69 396.07 685.51 396.78 685.57 398.29 688.09 401.4 687.6 402.3 688.62 403.75 690.86 406.02 692.09 408.08 693.06 408.63 692.49 411.71 693.8 414.45 693.81 415.67 692.95 417.73 693.91 419.1 693.65 420.39 691.81 422.24 688.46 424.57 688.79 425.99 689.85 426.49 690.35 427.9 690.25 429.29 691.76 430.7 691.71 432.31 692.36 433.82 691.88 434.68 692.86 437.59 693.21 439.85 693.03 442.98 693.51 443.94 693.43 448.18 694.27 449.75 694.19 451.34 689.77 453.89 687.57 454.62 685.26 452.32 684.13 451.74 682.75 449.93 681.47 449.44 679.66 447.93 676.42 446.6 675.19 445.34 673.42 444.38 671.48 444.06 669.43 443.01 666.53 443.39 664.06 444.89 662.34 444.16 660.2 444.43 657.6 442.57 655.77 443.09 652.48 441.84 651.42 442.67 649.6 443.13 646.5 441.71 644.86 441.74 643.72 441.19 641.32 442.57 637.81 443.12 636.84 442.7 635.08 439.6 634.19 436.71 633.64 436.43 632.75 433.98 630.78 432.38 630.56 430.08 631.36 428.07 631.41 426.84 629.71 425.35 628.02 426.18 624.1 424.17 622.33 422.7 621.52 421.17 620.98 418.88 619.93 418.18 617.87 415.87 616.56 415.91 615.11 413.91 615.96 412.37 614.28 411.53 612.95 409.71 613.72 408.27 613.86 406.98 617.67 407.02 619.75 407.34 620.46 406.54 623.39 406.29 624.25 405.01 627.15 404.6 628.95 406.76 629.59 408.45 632.05 408.82 632.61 407.66 637.33 404.76 637.83 403.13 637.07 401.01 635.97 399.75 635.78 395.39 636.12 394.46 635.22 391.69 633.05 391 630.66 389.37 631.24 386.91 629.88 384.97 627.71 384.35 627.29 383.39 627.85 381.13 627.07 379 624.4 377.3 626.55 373.83 626.33 373.07 624.01 370.29 621.16 367.99 620.99 367.57 616.91 364.36 612.91 360.62 608.17 357.01 610.82 356.53 613.67 356.47 613.9 354.49 636.02 356.95 639.61 357.41 641.82 357.29 642.03 356.66 643.86 355.91 644.67 356.27 646.6 355.76 650.24 352.29 652.52 349.48 654.46 348.15 656.73 347.49 658.1 345.01 659.34 344.34 661.37 346.86 663.24 347.35 664.43 348.33 666 347.74 666.36 346.82 668.12 345.04 667.6 342.92 667.61 341.03 668.33 340.65 669.41 337.8 670.54 336 671.02 334.43 672.5 333.29 673.22 330.5 673.71 327.03 675.29 327.87 676.53 329.61 677.34 330.14 678.22 332.2 679.33 332.15 679.69 334.17 683.91 336.4 686.56 336.08 687.41 337.34 688.13 337.19 689.32 338.58 691.29 338.88 692.7 337.48 693.79 337.96 695.59 336.99 696.36 337.32 698.65 336.6 699.76 338.03 703.43 340.5 704.5 342.22 703.94 342.79 704.77 345.64 703.89 346.68 704.23 348.1 Z" id="38030350"/>
<path d="M 797.32 313.99 798.18 316.52 799 320.68 797.76 323.23 796.92 326.7 796.74 328.85 797.65 331.17 797.92 334.3 796.75 337.39 795.71 341.16 794.73 343.67 793.03 345.31 793.57 346.81 793.52 348.27 793.94 351.1 794.1 357.8 794.66 359.1 793.49 362.4 792.27 363.76 791.27 365.58 791.52 366.9 790.82 369 789.46 370.99 789.8 375.37 788.3 376.75 788.14 378.95 789.8 381.67 790.3 383.53 789.89 384.62 787.82 387.03 788.04 387.93 787.07 389.18 788.26 390.91 788.97 394.08 788.75 397.13 790.1 399.28 789.57 400.37 789.59 401.95 787.96 402.95 785.21 406.64 785.21 408.13 784.21 410.06 784.79 411.88 786.32 412.19 788 413.94 788.85 417.47 790.16 420.13 792.19 420.76 792.46 421.76 791.5 423.45 788.58 423.55 787.42 423.05 783.69 424.83 781.61 427.3 781.85 430.3 779.45 431.46 777.42 434.24 773.94 435.99 773.87 436.94 771.77 439.18 770.7 440.87 767.36 442.85 767.53 444.51 768.35 446.19 767.69 450.38 764.22 450.23 762.47 450.41 761.09 450.08 759.15 450.36 756.71 451.13 754.21 450.58 751.27 448.92 748.27 450.35 743.84 455.71 740.51 455.61 735.92 457.05 734.24 457.1 733.99 454.93 733.23 453.66 730.81 451.43 728.87 450.16 727.34 448.24 727.03 446.73 725.02 445.37 721.59 447.73 718.68 446.56 717.23 446.8 714.22 446.09 712.22 447.54 711.63 449.37 710.67 451.02 708.63 452.47 705.89 452.98 702.97 455.12 702.03 455.29 699.86 454.86 698.09 455.59 696.58 454.57 695.65 452.22 694.19 451.34 694.27 449.75 693.43 448.18 693.51 443.94 693.03 442.98 693.21 439.85 692.86 437.59 691.88 434.68 692.36 433.82 691.71 432.31 691.76 430.7 690.25 429.29 690.35 427.9 689.85 426.49 688.79 425.99 688.46 424.57 691.81 422.24 693.65 420.39 693.91 419.1 692.95 417.73 693.81 415.67 693.8 414.45 692.49 411.71 693.06 408.63 692.09 408.08 690.86 406.02 688.62 403.75 687.6 402.3 688.09 401.4 685.57 398.29 685.51 396.78 683.69 396.07 684.26 394.9 682.78 394.04 680.27 390.52 678.52 390.35 677.97 391.5 676.89 391.36 673.48 389 672.89 386.89 672.1 386.09 670.74 382.95 672.32 381.36 672.64 378.87 674.35 377.42 676.22 376.88 678.59 376.66 684.22 377.24 686.18 377.22 687.32 376.43 687.81 374.03 688.99 372.75 692.42 371.56 693.4 371.72 694.45 373.8 695.63 375.05 696.72 375.26 697.89 374.32 699.01 372.11 700.85 369.94 703.39 368.7 704.93 367.43 703.48 364.78 701.77 364.99 700.66 364.14 700.57 363.12 701.64 360.61 701.62 358.98 700.83 355.58 701.91 354.22 700.9 352.15 700.8 351.16 703.39 349.34 704.23 348.1 707.27 348.06 711.1 349.88 712.44 349.06 714.97 344.64 717.6 340.76 719.02 339.45 718.19 338.4 717.64 335.99 720.28 333.96 721.4 331.36 720.43 330.59 719.8 328.86 718.85 327.89 719.38 326.57 718.92 324.99 717.58 324.84 717.66 322.75 716.51 315.02 716.51 313.47 715.93 312.5 716.03 310.28 715.69 308.56 715.85 306.66 715.4 304.38 713.79 301.4 716.47 301.21 719.66 302.44 724.57 306.88 727.51 307.38 728.37 306.83 730.2 306.67 732.29 305.92 731.35 304.14 732.63 302.34 732.97 300.15 731.27 298.88 731.89 295.78 732.58 293.65 734.11 290.38 734.81 289.62 735.41 288.86 736.7 289.25 738.36 289.14 740.47 287.98 743.51 287.97 745.59 286.16 748.63 285.11 751.86 287.4 753.58 287.56 754.59 286.91 755.89 286.85 759.47 286.02 762.72 285.7 763.82 285.01 765.65 285 767.66 282.36 768.68 282.73 773.16 283.42 774.64 284.34 774.74 286.02 775.69 286.63 777.77 286.92 780.26 288.95 781.57 290.87 782.97 294.04 782.81 295.51 785.08 300.21 786.89 301.05 788.06 304.21 792.22 306.43 793.67 309.24 794.69 309.93 795.13 312.36 794.7 312.98 797.32 313.99 Z" id="38030360"/>
<path d="M 694.57 255.32 695.43 257.25 697.31 260.19 700.49 260.05 704.68 258.87 709.53 259.43 710.56 258.08 711.89 257.55 715.35 259.64 717.02 261.74 718.42 261.72 718.74 264.01 719.77 266.13 720.55 266.55 721.46 269.07 721.93 271.65 721.23 273.11 722.86 276.53 724.37 276.67 727.54 280.09 728.79 280.38 730.02 285.94 730.93 287.73 733.01 289.35 734.81 289.62 734.11 290.38 732.58 293.65 731.89 295.78 731.27 298.88 732.97 300.15 732.63 302.34 731.35 304.14 732.29 305.92 730.2 306.67 728.37 306.83 727.51 307.38 724.57 306.88 719.66 302.44 716.47 301.21 713.79 301.4 715.4 304.38 715.85 306.66 715.69 308.56 716.03 310.28 715.93 312.5 716.51 313.47 716.51 315.02 717.66 322.75 717.58 324.84 718.92 324.99 719.38 326.57 718.85 327.89 719.8 328.86 720.43 330.59 721.4 331.36 720.28 333.96 717.64 335.99 718.19 338.4 719.02 339.45 717.6 340.76 714.97 344.64 712.44 349.06 711.1 349.88 707.27 348.06 704.23 348.1 703.89 346.68 704.77 345.64 703.94 342.79 704.5 342.22 703.43 340.5 699.76 338.03 698.65 336.6 696.36 337.32 695.59 336.99 693.79 337.96 692.7 337.48 691.29 338.88 689.32 338.58 688.13 337.19 687.41 337.34 686.56 336.08 683.91 336.4 679.69 334.17 679.33 332.15 678.22 332.2 677.34 330.14 676.53 329.61 675.29 327.87 673.71 327.03 673.22 330.5 672.5 333.29 671.02 334.43 670.54 336 669.41 337.8 668.33 340.65 667.61 341.03 667.6 342.92 668.12 345.04 666.36 346.82 666 347.74 664.43 348.33 663.24 347.35 661.37 346.86 659.34 344.34 658.1 345.01 656.73 347.49 654.46 348.15 652.52 349.48 650.24 352.29 646.6 355.76 644.67 356.27 643.86 355.91 642.03 356.66 641.82 357.29 639.61 357.41 636.02 356.95 613.9 354.49 613.67 356.47 610.82 356.53 608.17 357.01 607.3 354.49 606.73 350.83 606.98 349.27 606.56 345.58 605.81 343.11 606.02 342.33 605.23 339.91 603.35 338.34 603.56 336.38 604.6 334.15 605.73 333.11 606.4 331.02 605.62 329.01 605.55 320.71 605.44 320.56 598.01 320.48 597.97 320.29 588.48 320.01 588.35 317.29 587.39 316.27 585.73 316.43 583.61 317.31 580.73 316.66 579.58 314.5 578.73 313.78 575.67 312.24 574.13 312.21 573.08 311.34 572.67 307.67 571.66 305.05 569.68 301.18 569.01 300.34 567.81 301.07 567.25 303.12 565.86 303.5 564.72 300.82 564.3 299.04 563.35 297.78 561.69 297.55 560.36 296.14 560.53 293.28 558.63 289.92 558.52 287.21 559.55 284.99 559.44 284.17 558.05 283.18 557.09 283.05 555.13 281.75 560.22 277.23 562.88 274.21 565.91 269.82 571.75 262.4 579.24 247.65 580.59 248.53 582.45 250.57 581.01 253.88 584.58 258.17 585.89 257.87 587.31 261.57 589.87 264.88 589.97 266.18 590.81 268.34 591.46 267.92 592.71 269.79 597.11 270.94 596.95 272.31 598.52 274.11 599.02 275.65 599.98 275.97 601.68 278.58 604.18 279.88 605.42 280.14 606.69 283.2 608.85 285.43 607.41 286.61 607.62 288.32 609.91 289.99 609.34 290.75 609.66 292.04 611.27 292.87 611.87 294.89 613.7 297.53 614.41 299.77 615.73 300.18 616.95 299.33 617.95 296.73 621.02 297.1 622.19 296.16 623.54 293.62 625.72 294.11 627.24 291.18 626.59 289.3 626.8 286.29 625.46 282.02 625.67 280.65 626.76 279.63 627.68 276.87 629.19 275.25 632.15 276.3 632.62 277.5 637.46 278.24 639.58 279.57 640.47 279.54 641.36 278.25 641.74 276.37 643.83 275.74 645.4 272.94 645.39 270.12 648.91 269.73 650.7 268.26 651.21 266.62 652.34 266.11 654.1 266.11 655.91 266.94 656.93 266.69 659.16 268.17 660.28 267.85 663.08 268.94 664.25 270 665.06 273.41 664.88 274.77 665.93 275.97 666.24 277.31 668.15 280 670.41 281.37 670.73 283.06 674.19 283.82 676.36 283.75 677.62 285.02 678.71 287.17 678.61 288.43 679.63 289.39 679.42 291.08 681 291.79 682.13 290.99 683.39 291.62 685.07 290.55 686.59 288.92 687.77 286.45 686.83 284.14 686.84 283.11 685.92 282.36 685.4 280.58 685.41 279.01 683.28 277.02 683.39 275.69 681.51 273.08 682.2 270.63 684.26 269.48 685.67 269.72 686.86 268.36 687.83 266.29 689.1 264.8 689.38 261.83 689.82 260.25 692.87 256.62 694.57 255.32 Z" id="38030370"/>
<path d="M 640.98 188.28 643.44 188.62 646.54 189.38 648.31 190.82 650.45 191.63 651.76 192.6 654.12 195.37 655.52 196.32 659.91 198.37 661.55 199.83 666.48 198.49 667 196.81 670.72 196.09 671.66 196.35 673.46 195.86 674.91 196.79 679.39 200.91 680.74 201.57 681.97 202.96 681.33 205.12 681.65 206.11 680.07 209.6 678.16 210.42 676.62 214.51 674.48 216.68 674.61 218.78 674.13 221.45 677.89 222.57 679.89 223.85 680.49 228.06 684.02 227.56 686.1 227.04 687.38 226.2 689.09 228.1 690.45 228.55 690.7 229.92 692.18 233.38 694.37 234.63 696.32 237.68 698.21 244.26 694.98 252.18 695.22 252.78 694.57 255.32 692.87 256.62 689.82 260.25 689.38 261.83 689.1 264.8 687.83 266.29 686.86 268.36 685.67 269.72 684.26 269.48 682.2 270.63 681.51 273.08 683.39 275.69 683.28 277.02 685.41 279.01 685.4 280.58 685.92 282.36 686.84 283.11 686.83 284.14 687.77 286.45 686.59 288.92 685.07 290.55 683.39 291.62 682.13 290.99 681 291.79 679.42 291.08 679.63 289.39 678.61 288.43 678.71 287.17 677.62 285.02 676.36 283.75 674.19 283.82 670.73 283.06 670.41 281.37 668.15 280 666.24 277.31 665.93 275.97 664.88 274.77 665.06 273.41 664.25 270 663.08 268.94 660.28 267.85 659.16 268.17 656.93 266.69 655.91 266.94 654.1 266.11 652.34 266.11 651.21 266.62 650.7 268.26 648.91 269.73 645.39 270.12 645.4 272.94 643.83 275.74 641.74 276.37 641.36 278.25 640.47 279.54 639.58 279.57 637.46 278.24 632.62 277.5 632.15 276.3 629.19 275.25 627.68 276.87 626.76 279.63 625.67 280.65 625.46 282.02 626.8 286.29 626.59 289.3 627.24 291.18 625.72 294.11 623.54 293.62 622.19 296.16 621.02 297.1 617.95 296.73 616.95 299.33 615.73 300.18 614.41 299.77 613.7 297.53 611.87 294.89 611.27 292.87 609.66 292.04 609.34 290.75 609.91 289.99 607.62 288.32 607.41 286.61 608.85 285.43 606.69 283.2 605.42 280.14 604.18 279.88 601.68 278.58 599.98 275.97 599.02 275.65 598.52 274.11 596.95 272.31 597.11 270.94 592.71 269.79 591.46 267.92 590.81 268.34 589.97 266.18 589.87 264.88 587.31 261.57 585.89 257.87 584.58 258.17 581.01 253.88 582.45 250.57 580.59 248.53 579.24 247.65 581.95 240.3 582.17 236.34 581.75 231.44 581.27 228.81 580.13 225.74 575.2 219.08 570.87 218.66 552.65 218.99 547.61 217.17 543.4 211.88 538.76 204.68 537.18 197.41 536.94 190.12 538.75 182.78 542.72 178.78 543.57 176.11 547.25 174.33 548.9 174.25 551.17 175.23 553.78 177.54 557.44 180.12 559.66 182.36 562.36 183.96 565.88 186.47 570.33 191.64 574.28 194.05 576.56 195 581.66 196.6 588.67 197.11 592.99 196.95 595.22 196.63 598.85 195.46 604.58 193.88 607.94 193.25 615.91 191.37 628.32 191.01 634.13 190.73 640.98 188.28 Z" id="38030380"/>
<path d="M 457.14 31.1 460.87 34.17 461.44 36.48 463.55 38.73 464.41 40.22 465.53 40.82 466.34 42.43 467.42 43.1 469.2 45.37 469.88 47.13 472.54 46.97 473.65 50.61 475.68 52.15 477.02 53.98 478.89 55.06 479.67 57.06 480.79 58.2 480.92 60.33 481.53 61.01 481.88 64.34 480.02 66.62 480.34 68.72 479.51 70.33 478.02 70.88 475.12 72.58 473.6 74.41 472.37 74.42 471.39 75.81 471.86 76.63 472.42 79.4 473.39 81.4 473.61 82.63 472.29 84.95 471.69 87.44 473.19 89.79 474.64 92.85 474.68 95.09 474.26 96.64 475.19 97.82 475.79 100.91 477.56 101.93 477.68 103.08 479.24 104.01 479.92 106.17 479.74 108.12 478.36 109.64 475.72 113.97 474.48 115.64 475.16 117.51 474.88 118.78 475.36 120.55 477.74 122.88 478.48 125.22 478.77 127.28 482.4 130.68 483.54 132.85 486.01 133.83 485.07 136.71 483.32 140.03 483.29 141.89 484.72 146.35 486.07 147.32 488.14 149.39 489.37 149.82 490.12 151.37 492.52 153.76 496.25 153.58 497.69 154.66 499.11 157.31 501.45 160.29 500.54 164.14 502.51 165.41 502.85 168.23 503.51 170.04 505.33 170.15 507.58 171.01 509.21 172.81 510.86 173.23 509.8 175.27 511.02 178.06 511.01 184.22 510.67 185.75 509.68 187.03 509.83 188.18 508.18 190.46 508 191.85 510.43 193.18 511.95 193.39 514.52 196.24 517.36 197.06 518.66 197.71 520.71 197.35 522.89 194.25 523.14 191.54 523.84 189.13 523.59 187.48 524.75 185.63 525.45 182.61 526.29 180.92 527.61 179.98 527.89 178.46 529.61 177.55 531.33 176 534.05 174.24 536.04 174.6 537.54 173.63 539.25 173.89 541.8 175.02 543.09 175.09 543.57 176.11 542.72 178.78 538.75 182.78 536.94 190.12 537.18 197.41 538.76 204.68 543.4 211.88 547.61 217.17 552.65 218.99 570.87 218.66 575.2 219.08 580.13 225.74 581.27 228.81 581.75 231.44 582.17 236.34 581.95 240.3 579.24 247.65 571.75 262.4 565.91 269.82 562.88 274.21 560.22 277.23 555.13 281.75 553.92 281.99 544.71 277.54 537.46 270.39 535.42 269.1 528.19 263.28 526.16 261.97 517.02 260.61 513.91 261.9 507.97 263.69 498.93 267.42 489.81 267.36 479.45 261.05 477.31 258.29 476.85 249.72 476.25 241.82 475.5 234.08 472.37 225.23 470.53 221.11 464.19 213.6 461.39 214.55 452.18 219.13 450.48 220.13 446.4 223.43 442.76 226.06 441.33 226.76 436.2 228.02 430.48 229.62 427.65 229.67 425.22 228.86 422.51 228.87 417.62 224.33 415.9 222.51 415.42 222.76 410.65 221.24 409.7 219.78 409.92 217.01 406.96 215.99 405.11 214.9 402.34 212.59 401.95 211.23 401.56 207.45 398 206.6 397.79 205.8 394.58 202.57 396.65 200.38 398.04 198.52 398.64 195.62 397.26 194.59 395.15 190.11 390.6 189.04 389.54 187.79 390.34 186.19 394.91 182.5 396.24 180.58 397.35 180.04 398.27 178.03 399.57 178.09 400.83 176.78 402 176.24 401.94 174.49 404.59 174.15 404.93 171.82 404.56 166.65 405.21 165.64 405.17 163.92 407.7 161.47 408.39 160.03 409.5 159.44 412.2 156.65 412.84 154.87 411.72 154.81 409.28 153.64 409.87 153.09 408.93 151.26 409.42 150.05 409.97 146.5 408.23 141.87 409.15 140.56 408.84 138.27 411.12 138.21 413.2 139.12 413.89 140.37 414.96 140.58 417.48 139.68 419.63 139.92 421.86 139.57 422.24 138.8 421.7 136.3 422.92 134.03 425.36 132.22 426.36 133.96 430.15 137.57 433.15 136.96 437.41 135.32 439.03 133.45 439.28 131.55 440.18 129.64 442.24 128.22 442.57 126.24 444.34 124.79 443.69 122.63 443.42 120.11 442.1 118.7 442.9 117.36 442.07 112.96 442.36 111.81 441.96 108.96 443.45 107.48 445.1 105.28 446.88 102.35 449.1 101.06 448.13 98.32 447.03 96.51 447.51 95.23 447.18 94.13 444.87 94.05 441.87 93.2 439.96 91.85 439.52 91.08 437.35 90.99 436.59 90.35 436.13 87.63 434.64 85.04 435.04 84.02 434.79 82.22 435.11 81.35 435.29 77.34 433.18 76.29 432.7 74.92 431.23 74.28 431.08 73.45 429.54 70.79 429.81 68.99 428.97 67.18 429.06 66.38 428.13 64.95 428.31 62.58 427.58 61.2 427.32 58.95 427.77 57.93 427.37 56.59 428.36 53.99 428.61 52.39 428.25 49.91 427.32 48.19 428.02 47.38 430.04 46.9 430.84 46.01 432.07 46.33 434.83 46.2 435.53 44.66 436.58 44.22 437.5 41.93 438.84 41.16 439.09 40.06 438.26 37.45 438.23 34.07 438.52 32.58 441.26 30.84 444.3 31.15 446.05 30.65 447.36 31.66 448.56 31.06 450.35 31.82 453.2 31.67 454.31 32.18 457.14 31.1 Z" id="38030390"/>
<path d="M 513.91 261.9 513 264.45 510.59 266.32 509.63 266.58 506.91 268.47 506.18 269.46 504.58 270.13 503.61 274.99 504.3 277.41 506.34 280.56 506 282.18 507.35 286.29 507.2 286.91 508.86 290.6 509.03 292.66 509.86 294.13 506.05 295.62 503.02 297.57 499.54 298.64 499.16 299.49 499.06 301.75 498.07 303.72 495.19 312.86 495.26 313.83 501.77 317.99 502.75 319.47 505.07 320.56 503.19 325.17 502.2 326.87 501.97 328.34 500.7 329.86 498.86 330.35 498.15 331.56 496.38 332.33 492.87 332.67 490.02 333.34 488.77 336.36 488.68 339.22 484.29 340.51 483.06 341.59 480.91 342.44 479.97 343.73 480.57 345.48 479.02 348.36 478.73 350.48 477.65 353.23 475.91 352.7 473.85 353.09 472.57 353.81 471.18 353.24 468.91 353.57 468.38 354.58 466.92 354.69 465.82 355.52 464.67 354.45 463.57 354.23 460.67 354.46 459.42 352.85 456.59 352.06 453.28 350.78 452.23 350.9 451.41 349.63 450.07 349.63 449.46 348.27 448.04 347.33 446.04 346.57 443.42 346.52 440.54 339.26 439.99 338.43 438.29 337.73 435.8 337.81 434.66 337.44 432.24 337.7 429.06 338.69 427.34 339.74 424.82 339.81 422.68 340.5 419.03 340.15 416.26 338.27 405.37 332.46 408.12 324.09 403.99 317.71 403.78 316.87 403.19 309.59 400.35 302.35 400.06 295.05 399.65 289.07 399.06 287.81 397.71 275.67 397.43 273.21 398.62 265.89 401.33 259.73 400.12 258.56 403.56 255.05 399.29 253.22 399.67 249.17 400.32 246.53 404.08 241.26 406.88 238.7 411.26 236.2 416.25 232.6 424.37 230.44 425.22 228.86 427.65 229.67 430.48 229.62 436.2 228.02 441.33 226.76 442.76 226.06 446.4 223.43 450.48 220.13 452.18 219.13 461.39 214.55 464.19 213.6 470.53 221.11 472.37 225.23 475.5 234.08 476.25 241.82 476.85 249.72 477.31 258.29 479.45 261.05 489.81 267.36 498.93 267.42 507.97 263.69 513.91 261.9 Z" id="38030400"/>
<path d="M 389.54 187.79 390.6 189.04 395.15 190.11 397.26 194.59 398.64 195.62 398.04 198.52 396.65 200.38 394.58 202.57 397.79 205.8 398 206.6 401.56 207.45 401.95 211.23 402.34 212.59 405.11 214.9 406.96 215.99 409.92 217.01 409.7 219.78 410.65 221.24 415.42 222.76 415.9 222.51 417.62 224.33 422.51 228.87 425.22 228.86 424.37 230.44 416.25 232.6 411.26 236.2 406.88 238.7 404.08 241.26 400.32 246.53 399.67 249.17 399.29 253.22 403.56 255.05 400.12 258.56 401.33 259.73 398.62 265.89 397.43 273.21 397.71 275.67 391.82 276.55 388.53 276.66 386.69 277.04 385.74 277.68 384.8 279.54 383.8 277.75 382.85 278.17 381.19 276.07 379.64 276.41 376.08 275.25 375.57 273.74 374.49 273.17 373.41 273.4 371.67 272.63 368.68 268.12 367.92 267.83 365.6 268.05 363.61 267.75 362.5 268.85 360.89 268.66 359.61 269.07 356.46 266.38 355.93 264.69 354.81 262.87 353.97 259.49 354.21 254.82 352.54 255.1 350.39 254.2 347.15 254.77 345.75 253.68 345.46 252.36 344.56 251.29 344.1 249.14 340.89 248.72 339.29 249.21 337.4 249.09 336.24 249.44 334.73 247.68 334.64 246.58 332.9 246.58 331.49 245.79 330.34 246.18 328.94 245.63 328.29 246.39 328.42 249.06 328.14 250.65 328.25 254.49 327.84 257.95 325.63 258.51 324.65 259.17 323.69 258.26 321.9 258.19 319.32 254.47 318.37 253.89 315.88 253.77 314.45 254.58 310.88 254.95 307.55 258.21 306.52 261.85 302.71 266.58 304.21 267.72 305.83 270.88 305.69 272.14 306.48 278.27 307.28 279.46 307.74 281.51 307.55 282.47 306.81 282.71 305.56 284.54 304.54 285.38 305.21 288.05 304.69 290.58 303.91 291.47 301.75 292.3 301.07 293.6 298.03 291.39 296.1 289.44 294.1 286.7 291.87 285.06 287.22 285.55 285.12 286.87 280.57 288.47 280.09 289 277.3 289.71 271.56 284.21 269.14 282.29 270.2 280.78 271.29 281.05 272.74 280.41 274.3 276.71 273.24 275.43 273.08 272.51 271.84 271.29 272.3 270.55 271.74 267.8 271.1 266.54 271.34 263.2 270.44 262.02 270.89 258.99 270.54 258.35 271.38 256.28 271.11 253.36 274.11 251.67 275.34 250.05 275.79 247.73 275.09 245.78 275.38 245.05 277.68 243.09 282.87 241.93 282.49 240.28 282.61 238.35 283.18 237.05 285.39 236.5 286.96 235.57 286.93 233.94 285.81 228.82 286.61 226.92 287.61 225.97 286.83 223.97 286.79 222.52 286.1 219.81 287.24 218.1 290.07 216.16 290.87 215.24 292.29 210.14 290.04 208.21 289.45 208.15 286.66 206.17 287.41 203.17 290.21 200.31 292.04 199.98 292.32 199.13 291.06 195.11 287.96 191.41 287.12 188.84 288.84 185.01 290.9 183.29 290.95 181.15 290.19 180.65 290.01 177.97 288.1 175.93 286.81 173.56 286.22 173.15 285.89 171.02 283.29 167.5 281.59 166.09 282.71 162.18 282.39 160.78 281.06 158.48 280.86 156.88 279.55 155.79 279.78 154.94 281.15 153.26 283.19 151.97 284.1 151.79 284.54 150.45 285.58 149.01 285.99 146.79 288.16 144.59 286.98 141.95 287.43 140.78 286.39 137.12 286.57 136.08 285.55 134.34 285.38 133.29 283.93 130.24 282.25 128.66 281.49 126.41 280.44 125.01 280.63 122.64 280.24 121.74 278.28 120.59 277.69 118.79 277.8 117.5 276.88 115.62 275.71 114.31 274.51 114.02 274.72 111.66 273.66 109.27 271.76 106.99 267.92 103.8 266.94 99.54 266.7 97.28 266.27 96.49 263.99 95.89 260.54 94.12 262.34 91.64 263.74 90.6 265.82 90.27 267.35 87.98 267.23 86.69 268.31 85.51 272 80.69 275.3 83.31 276.32 84.35 277.61 87.16 279.96 88.87 280.25 93.41 282.23 95.03 284.72 95.32 286.76 96.93 288.14 96.77 290.58 98.86 292.68 98.59 298.97 98.21 300.11 97.82 306.58 98.95 309.47 98.66 310.59 96.99 312.64 95.49 314.72 94.58 319.19 95.37 319.85 97.62 321.82 97.61 322.89 99.63 324.2 100.5 323.93 102.55 326.1 104.72 326.73 106.41 329.3 109.8 330.38 110.08 328.14 112.95 328.04 114.97 329.74 117.53 329.63 120.31 330.04 122.42 331.34 123.93 329.67 125.72 329.89 128.28 329.28 129.93 329.27 132.76 330.82 133.8 331.9 135.46 332.13 140.35 333.22 140.66 332.75 142.16 333.67 144.52 334.87 146.05 336.25 148.78 336.3 150.88 335.86 152.03 336.56 152.93 337.05 156.12 338.57 156.59 338.56 158.03 339.84 160.04 341.32 160.13 343.78 159.6 346.72 160.48 347.93 160.49 349.9 161.84 351.45 162.1 354.14 163.66 354.48 164.9 354.15 168.29 356.26 171.25 357.28 171.74 357.67 172.94 359.32 175.28 360.33 177.53 362.11 178.79 363.44 180.35 364.4 179.73 366.67 179.6 368.71 178.35 369.78 176.91 371.07 177.43 371.97 180.43 373.83 180.26 374.65 181.57 377.57 183.86 378.96 184.19 380.91 185.57 381.62 186.89 383.46 188.89 384.95 187.94 385.04 186.75 386.12 185.67 388.79 188.26 389.54 187.79 Z" id="38030410"/>
<path d="M 457.14 31.1 454.31 32.18 453.2 31.67 450.35 31.82 448.56 31.06 447.36 31.66 446.05 30.65 444.3 31.15 441.26 30.84 438.52 32.58 438.23 34.07 438.26 37.45 439.09 40.06 438.84 41.16 437.5 41.93 436.58 44.22 435.53 44.66 434.83 46.2 432.07 46.33 430.84 46.01 430.04 46.9 428.02 47.38 427.32 48.19 428.25 49.91 428.61 52.39 428.36 53.99 427.37 56.59 427.77 57.93 427.32 58.95 427.58 61.2 428.31 62.58 428.13 64.95 429.06 66.38 428.97 67.18 429.81 68.99 429.54 70.79 431.08 73.45 431.23 74.28 432.7 74.92 433.18 76.29 435.29 77.34 435.11 81.35 434.79 82.22 435.04 84.02 434.64 85.04 436.13 87.63 436.59 90.35 437.35 90.99 439.52 91.08 439.96 91.85 441.87 93.2 444.87 94.05 447.18 94.13 447.51 95.23 447.03 96.51 448.13 98.32 449.1 101.06 446.88 102.35 445.1 105.28 443.45 107.48 441.96 108.96 442.36 111.81 442.07 112.96 442.9 117.36 442.1 118.7 443.42 120.11 443.69 122.63 444.34 124.79 442.57 126.24 442.24 128.22 440.18 129.64 439.28 131.55 439.03 133.45 437.41 135.32 433.15 136.96 430.15 137.57 426.36 133.96 425.36 132.22 422.92 134.03 421.7 136.3 422.24 138.8 421.86 139.57 419.63 139.92 417.48 139.68 414.96 140.58 413.89 140.37 413.2 139.12 411.12 138.21 408.84 138.27 409.15 140.56 408.23 141.87 409.97 146.5 409.42 150.05 408.93 151.26 409.87 153.09 409.28 153.64 411.72 154.81 412.84 154.87 412.2 156.65 409.5 159.44 408.39 160.03 407.7 161.47 405.17 163.92 405.21 165.64 404.56 166.65 404.93 171.82 404.59 174.15 401.94 174.49 402 176.24 400.83 176.78 399.57 178.09 398.27 178.03 397.35 180.04 396.24 180.58 394.91 182.5 390.34 186.19 389.54 187.79 388.79 188.26 386.12 185.67 385.04 186.75 384.95 187.94 383.46 188.89 381.62 186.89 380.91 185.57 378.96 184.19 377.57 183.86 374.65 181.57 373.83 180.26 371.97 180.43 371.07 177.43 369.78 176.91 368.71 178.35 366.67 179.6 364.4 179.73 363.44 180.35 362.11 178.79 360.33 177.53 359.32 175.28 357.67 172.94 357.28 171.74 356.26 171.25 354.15 168.29 354.48 164.9 354.14 163.66 351.45 162.1 349.9 161.84 347.93 160.49 346.72 160.48 343.78 159.6 341.32 160.13 339.84 160.04 338.56 158.03 338.57 156.59 337.05 156.12 336.56 152.93 335.86 152.03 336.3 150.88 336.25 148.78 334.87 146.05 333.67 144.52 332.75 142.16 333.22 140.66 332.13 140.35 331.9 135.46 330.82 133.8 329.27 132.76 329.28 129.93 329.89 128.28 329.67 125.72 331.34 123.93 330.04 122.42 329.63 120.31 329.74 117.53 328.04 114.97 328.14 112.95 330.38 110.08 329.3 109.8 326.73 106.41 326.1 104.72 323.93 102.55 324.2 100.5 322.89 99.63 321.82 97.61 319.85 97.62 319.19 95.37 314.72 94.58 312.64 95.49 310.59 96.99 309.47 98.66 306.58 98.95 300.11 97.82 298.97 98.21 292.68 98.59 290.58 98.86 288.14 96.77 286.76 96.93 284.72 95.32 282.23 95.03 280.25 93.41 279.96 88.87 277.61 87.16 276.32 84.35 275.3 83.31 272 80.69 271.34 78.47 269.91 71.44 269.64 68.61 269.48 63.94 271.38 59.01 272.59 56.72 273.98 55.16 275.46 52.92 276.98 51.28 278.47 48.87 280.02 44.39 280.58 42.06 281.31 41.16 281.97 38.32 288.38 38.45 290.49 39.07 292.89 38.43 294.76 38.8 296.26 40.47 299.09 40.45 301.49 39.75 302.08 39.19 304.67 39.33 305.83 39.03 307.66 37.7 308.73 36.14 307.97 33.4 310.2 32.76 311.44 32.77 312.93 32.13 314.2 32.27 318.15 30.9 320.28 32.71 322.34 32.98 324.25 31.66 326.05 31.72 326.27 32.8 330.37 32.6 333.94 33.44 336.37 32.9 337.69 32.96 338.82 34.1 344.59 34.94 346.31 34.67 348.94 34.97 350.59 34.52 353.26 34.62 354.05 33.87 355.15 35.63 355.71 38 358.83 39.61 360.92 39.83 361.36 41.31 362.87 41.03 365.18 44.26 366.58 43.19 367.39 43.18 369.23 41.83 370.12 42.01 371.01 41.17 373.13 42.03 375.03 42.17 375.49 43.39 376.56 44.43 378.55 43.03 382.5 42.17 383.95 39.49 385.13 39.12 387.32 39.4 387.97 38.78 390.16 38.41 393.82 35.41 395.62 33.07 397.29 32.79 400.64 30.27 403.51 28.5 404.53 27.21 405.47 25.05 405.35 23.78 405.84 21.52 408.99 20 412.01 19.61 413.81 18.94 414.48 16.92 417.51 13.18 418.98 12.67 420.51 11.03 422.24 10.69 422.8 9.41 424.88 7.84 426.18 6.27 428.29 7.34 429.33 6.37 431.93 4.82 433.31 3.54 435.36 4.05 436.91 4.03 439.3 1.67 441.14 1 442.94 1.57 443.59 2.31 444.56 5.02 444.55 6.5 446.87 10.31 446.42 11.67 448.68 13.67 449.8 15.21 453.3 16.87 455.74 18.37 456.41 20.06 455.76 22.34 456.44 24.12 456.14 27.1 456.82 29 457.14 31.1 Z" id="38030420"/>
<path d="M 260.54 94.12 263.99 95.89 266.27 96.49 266.7 97.28 266.94 99.54 267.92 103.8 271.76 106.99 273.66 109.27 274.72 111.66 274.51 114.02 275.71 114.31 276.88 115.62 277.8 117.5 277.69 118.79 278.28 120.59 280.24 121.74 280.63 122.64 280.44 125.01 281.49 126.41 282.25 128.66 283.93 130.24 285.38 133.29 285.55 134.34 286.57 136.08 286.39 137.12 287.43 140.78 286.98 141.95 288.16 144.59 285.99 146.79 285.58 149.01 284.54 150.45 284.1 151.79 283.19 151.97 281.15 153.26 279.78 154.94 279.55 155.79 280.86 156.88 281.06 158.48 282.39 160.78 282.71 162.18 281.59 166.09 283.29 167.5 285.89 171.02 286.22 173.15 286.81 173.56 288.1 175.93 290.01 177.97 290.19 180.65 290.95 181.15 290.9 183.29 288.84 185.01 287.12 188.84 287.96 191.41 291.06 195.11 292.32 199.13 292.04 199.98 290.21 200.31 287.41 203.17 286.66 206.17 289.45 208.15 290.04 208.21 292.29 210.14 290.87 215.24 290.07 216.16 287.24 218.1 286.1 219.81 286.79 222.52 286.83 223.97 287.61 225.97 286.61 226.92 285.81 228.82 286.93 233.94 286.96 235.57 285.39 236.5 283.18 237.05 282.61 238.35 282.49 240.28 282.87 241.93 277.68 243.09 275.38 245.05 275.09 245.78 275.79 247.73 275.34 250.05 274.11 251.67 271.11 253.36 271.38 256.28 270.54 258.35 270.89 258.99 270.44 262.02 271.34 263.2 271.1 266.54 271.74 267.8 272.3 270.55 271.84 271.29 273.08 272.51 273.24 275.43 274.3 276.71 272.74 280.41 271.29 281.05 270.2 280.78 268.21 279.69 266.09 280.64 267 283.14 266.6 284.75 267.55 286.67 267.69 292.98 265.07 291.14 263.91 289.64 262.99 289.55 259.11 287.13 257.83 285.49 255.28 286.09 254.44 287.08 250.8 287.77 249.83 288.76 248.12 289.38 246.52 289.03 245.02 289.77 242.57 293.43 242.38 295.93 241.61 296.94 241.79 297.88 240.01 298.22 237.5 297.95 234.55 295.5 233.92 294.59 231.55 294.76 230.77 294.38 228.32 294.46 225.06 294.89 224.2 296.07 224.92 298.12 223.64 300.66 222.66 305.55 221.72 306.09 220.07 308.91 218.8 309.13 215.58 307.65 214.76 308.8 212.67 309.28 210.26 307.73 209.43 307.91 208.19 306.69 207.46 306.64 206.42 305.29 202.41 304.29 198.66 302.34 195.25 297.45 193.66 295.73 189.89 295.73 188.01 295.96 187.53 293.51 186.05 292.41 185.31 290.21 185.27 288.73 183.09 286.65 183.01 285.71 180.71 285.45 179.4 286.06 175.47 285.22 172.17 283.03 171.38 281.79 169.91 281.84 168.52 279.73 168.25 276.27 167.67 275.21 169.35 273.09 169.73 271.17 170.81 270.02 172.11 267.41 171.47 264.39 170.68 263.74 170.05 261.87 169.22 261 169.36 258.01 170.85 256.8 171.1 255.45 172.31 253.04 171.42 249.24 169.95 245.62 167.78 244.62 167.97 243.43 167.21 240.55 165.41 237.86 165.45 236.16 164.81 235.5 163.22 236.11 162.04 235.07 160.29 234.51 157.76 232.27 156.81 231.84 154.17 228.33 153.29 226.65 150.62 224.59 148.49 221.15 148.38 219.05 147.13 216.84 143.4 213.75 143.22 211.27 142.19 211.98 140.32 211.09 139.09 208.76 140.34 206.54 139.58 203.82 140.08 200.18 139.79 199.13 140.09 196.93 140.56 196.18 139.91 194.79 139.9 193.2 140.45 190.58 141.24 189.98 140.97 187.54 141.78 185.04 141.46 184.56 141.71 181.34 140.84 177.03 141.5 176 141.3 173.4 141.95 171.84 141.55 170.44 142.25 168.37 147.12 167.45 148.73 168.18 149.6 167.22 151.77 166.78 152.88 167.81 156.48 166.78 157.74 167.22 158.49 166.5 159.4 164.22 159.3 162.9 161.78 160.89 162.16 158.81 161.99 157.69 162.97 156.78 163.26 153.82 162.86 152.46 160.87 148.84 160.75 145.65 159.89 144.31 160.39 142.15 161.76 140.22 161.45 138.55 163.15 134.08 166.05 135.69 168.46 135 171.99 135.42 174.92 136.68 175.94 136.39 177.85 137.31 179.15 136.66 179.15 133.99 181.01 132.78 182.47 130.53 184.55 128.74 184.94 127.03 186.07 126.59 188.19 126.78 190.31 124.85 192.21 121.5 192.82 121.18 194 115.92 195.42 112.41 196.59 111.44 198.21 110.88 199.67 111.11 201.96 110.73 203.07 109.97 205.26 109.91 207.78 107.82 208.17 105.5 209.62 102.98 210.63 100.71 212.2 101.24 213.82 100.63 216.69 101.36 217.11 99.96 217.96 99.4 218.65 97.91 219.8 97.86 220.85 96.88 225.97 96.33 226.74 95.54 228.64 95.56 233.8 93.56 235.48 93.56 238.5 91.86 240.86 91.9 242.59 90.97 244.22 92.8 245.5 93.67 249.58 95.73 252.64 98.31 254.1 98.78 255.47 98.42 257.38 96.94 259.55 94.44 260.54 94.12 Z" id="38030430"/>
<path d="M 220.07 308.91 220.52 308.91 221.76 311.49 222.4 314.42 222.8 318.31 221.53 321.01 222.82 323.17 226.74 324.08 227.17 325.13 230.02 326.55 230.6 330.11 229.76 334.17 231.09 335.41 233.44 336.31 233.7 339.39 232.45 342.99 233.62 344.98 233.4 346.64 234.41 348.82 236.19 351.07 235.08 352.69 233.62 353.07 231.22 349.54 230.77 348.48 230.24 345.38 226.91 340.18 224.93 338.91 221.31 337.76 217.75 337.98 208.72 342.03 199.65 344.55 195.49 345.95 191.36 346.02 186.45 348.84 188.67 351.61 185.95 355.54 188.84 359.44 189.62 361.25 189.94 364.4 189.11 365.68 190.45 367.67 189.63 369.2 190.69 372.16 192.8 375.26 193.8 378.05 193.87 379.05 195.53 380.26 197.98 383.33 199.82 386.22 200.91 388.78 201.23 390.6 200.58 390.55 195.15 392.41 191.54 394.13 188.13 395.97 186.91 396.98 184.74 399.77 181.58 399.42 176.73 397.8 172.49 397.28 169.82 396.55 167.4 396.35 163.61 396.84 158.67 397.92 157.55 397.92 157.01 394.52 156.29 392.71 154.93 392.43 151.94 394.27 150.73 394.24 148.41 395.84 145.44 395.39 143.55 397.82 142.04 398.5 140.65 396.67 138.06 395.44 137.73 394.35 136.5 393.79 135.65 393.07 133.92 389.16 134.26 387.18 133.54 384.84 133.81 383.43 131.63 380.93 130.19 381.04 129.42 379.47 130.64 377.25 129.63 375.88 128.38 375.12 126.85 373.23 125.32 372.55 124.79 371.49 125.23 369.52 124.63 367.84 125.04 366.06 123.68 365.23 123.09 364.1 119.57 360.83 123.15 356.89 124.86 356.25 125.55 354.95 123.55 353.53 122.86 352.45 120.79 350.92 120.75 349.59 119.65 347.09 120.26 343.28 121.4 340.9 121.94 339.06 121.74 336.32 119.35 333.16 119.01 331.13 118.28 329.33 118.61 327.4 117.39 325.78 118.56 324.64 119.81 322.11 117.48 318.3 115.3 315.05 113.17 313.24 110.55 312.57 108.54 309.79 109.04 307.51 108.99 305.49 110.23 302.53 110.03 300.73 109.31 299.24 108.26 298.54 108.1 295.9 107.03 294.43 107.08 290.54 104.04 288.03 104.59 285.43 102.72 283.81 101.57 283.76 99.54 282.42 98.79 278.86 100.12 276.85 102.66 272.28 105.6 268.28 103.32 264.55 100.8 257.3 97.48 250.07 97.66 235.47 99.25 228.1 99.55 226.17 103.89 226.06 109.11 224.22 112.42 222.37 114.75 220.73 116.11 220.48 123.86 217.82 127.62 217.4 129.97 216.36 131.49 216.06 132.27 215.38 135.14 211.78 136.29 206.28 137.19 206.34 139.09 208.76 140.32 211.09 142.19 211.98 143.22 211.27 143.4 213.75 147.13 216.84 148.38 219.05 148.49 221.15 150.62 224.59 153.29 226.65 154.17 228.33 156.81 231.84 157.76 232.27 160.29 234.51 162.04 235.07 163.22 236.11 164.81 235.5 165.45 236.16 165.41 237.86 167.21 240.55 167.97 243.43 167.78 244.62 169.95 245.62 171.42 249.24 172.31 253.04 171.1 255.45 170.85 256.8 169.36 258.01 169.22 261 170.05 261.87 170.68 263.74 171.47 264.39 172.11 267.41 170.81 270.02 169.73 271.17 169.35 273.09 167.67 275.21 168.25 276.27 168.52 279.73 169.91 281.84 171.38 281.79 172.17 283.03 175.47 285.22 179.4 286.06 180.71 285.45 183.01 285.71 183.09 286.65 185.27 288.73 185.31 290.21 186.05 292.41 187.53 293.51 188.01 295.96 189.89 295.73 193.66 295.73 195.25 297.45 198.66 302.34 202.41 304.29 206.42 305.29 207.46 306.64 208.19 306.69 209.43 307.91 210.26 307.73 212.67 309.28 214.76 308.8 215.58 307.65 218.8 309.13 220.07 308.91 Z" id="38030440"/>
<path d="M 99.55 226.17 99.25 228.1 97.66 235.47 97.48 250.07 100.8 257.3 103.32 264.55 105.6 268.28 102.66 272.28 100.12 276.85 98.79 278.86 99.54 282.42 101.57 283.76 102.72 283.81 104.59 285.43 104.04 288.03 107.08 290.54 107.03 294.43 108.1 295.9 108.26 298.54 109.31 299.24 110.03 300.73 110.23 302.53 108.99 305.49 109.04 307.51 108.54 309.79 110.55 312.57 113.17 313.24 115.3 315.05 117.48 318.3 119.81 322.11 118.56 324.64 117.39 325.78 118.61 327.4 118.28 329.33 119.01 331.13 119.35 333.16 121.74 336.32 121.94 339.06 121.4 340.9 120.26 343.28 119.65 347.09 120.75 349.59 120.79 350.92 122.86 352.45 123.55 353.53 125.55 354.95 124.86 356.25 123.15 356.89 119.57 360.83 123.09 364.1 123.68 365.23 125.04 366.06 124.63 367.84 125.23 369.52 124.79 371.49 125.32 372.55 126.85 373.23 128.38 375.12 129.63 375.88 130.64 377.25 129.42 379.47 130.19 381.04 131.63 380.93 133.81 383.43 133.54 384.84 134.26 387.18 133.92 389.16 135.65 393.07 136.5 393.79 132.89 397.12 133.72 399.66 133.29 401.84 130.47 403.37 130.5 404.5 129.48 405.07 128.74 407.31 128.49 409.1 127.08 410.4 125.21 410.06 127.72 406.36 128.38 402.7 127.85 400.13 125.11 397.2 123.4 396.21 119.95 396.33 119.15 397.61 115.61 397.77 113.49 399.4 113.74 399.79 111.8 402.06 111.72 403.74 109.43 404.78 107.87 406.36 107.15 407.58 105.65 407.34 104 406.38 102.3 406.18 101.11 405.58 99.97 406.06 98.12 405.27 94.69 405.44 93.12 406.23 92 407.76 89.71 407.67 86.56 406.6 85.56 403.93 86.12 401.77 85.57 399.55 85.32 396.49 84.71 394.22 84.02 387.23 85.43 383.27 87.37 379.57 84.97 376.08 83.28 374.41 82.03 372.62 78.14 368.1 72.86 365.17 69.15 360.79 68.57 358.92 67.05 357.8 63.59 354.74 60.15 353.9 54.41 351.57 50.97 351.57 47.05 347.19 41.87 347.12 38.57 344 35.55 342.92 32.1 338.96 28.93 335.7 26.22 332.35 25.21 331.8 19.14 324.62 16.92 323.23 13.06 317.45 11.12 312.46 12.27 306.64 12.68 303.81 13.08 302.99 13.46 299.74 12.34 295.35 9.93 292.51 7.82 289.38 5.31 287.39 4.02 285.33 1.27 278.09 1 274.04 1.63 270.79 3.72 263.45 4.45 259.47 4.22 255.68 5.62 258.8 6.59 258.51 7.49 256.41 8.4 258.64 9.72 259.1 11.27 258.12 12.56 258.62 14.91 257.49 16.6 256.13 18 255.58 19.84 255.76 20.23 257.59 21.37 258.86 23.67 260.11 24.48 262.37 27.72 264.55 30.36 265.44 32.06 264.52 33.13 263.23 34.87 263.66 36.72 262.47 37.75 259.7 38.22 256.35 39.25 255.41 38.75 252.91 38.91 251.33 38.17 250.5 38.75 248.23 38.46 244.73 39.46 242.3 39.49 240.79 40.25 239.67 39.85 237.78 40.68 235.09 39.26 232.53 40.05 231.56 39.6 229.55 40.66 228.63 42.23 224.85 43.25 223.54 42.5 221.24 45.16 219.88 46.05 218.96 47.11 215.73 47.89 215.37 48.28 213.41 49.8 213.23 51.08 211.97 52.57 211.68 52.3 210.36 52.68 207.38 53.85 205.8 55.29 205.02 57.05 205.35 58.6 204.9 59.11 206.88 59.26 209.23 60.65 210.92 63.02 210.91 64.62 210.03 68.22 208.94 69.91 208.96 74.41 208.21 77.16 208.76 81.31 211.41 83.72 210.49 85.02 212.26 85.13 213.36 88.96 214.32 89.83 215.09 91.34 217.95 92.29 218.99 93.43 218.7 95.24 219.19 97 220.89 98.51 223.2 99.55 226.17 Z" id="38030450"/>
<path d="M 407 350.02 406.94 353.3 404.1 360.09 400.58 363.23 391.64 372.15 388.06 373.51 382.58 375.03 374.77 375.84 373.46 374.69 366.57 372.78 364.3 372.65 361.91 372.13 357.36 370.55 355.11 368.94 352.98 361.69 354.71 354 355.04 352.33 355.78 352.17 374.41 350.92 374.56 353.12 387.65 352.26 387.59 351.46 394.86 350.82 394.91 351.66 402.05 351.13 401.99 350.14 407 350.02 Z" id="38030650"/>
<path d="M 397.71 275.67 399.06 287.81 399.65 289.07 400.06 295.05 400.35 302.35 403.19 309.59 403.78 316.87 403.99 317.71 400.07 317.98 398.84 318.54 397.39 317.9 394.71 317.58 395.74 315.99 386.26 316.65 386.19 315.69 384.52 314.98 378.71 315.38 378.15 314.96 373.94 313.57 371.11 311.66 368.22 311.19 367.06 311.6 366.09 312.98 363.88 311.51 362.09 311.5 359.15 313.32 357.08 314.23 355.15 315.5 354.03 315.71 352.31 315.15 352.49 314.37 351.77 311.71 352.26 309.26 350.71 308.7 349.08 306.59 348.28 305.04 347.29 305.16 344.82 307.01 343.06 307 340.59 305.16 337.96 305.79 335.74 305.07 334.79 305.54 332.11 303.59 329.33 303.03 328.31 303.15 327.6 302.17 326.36 302.11 325.42 300.71 325.1 298.32 324.11 297.11 322.97 297.08 323.4 295.67 324.52 295.27 325.3 293.14 324.54 289.56 321.85 288.41 321.14 287.68 319.79 287.45 318.7 286.6 316.49 286.29 315.54 287.15 314.5 286.29 312.88 286.55 312.28 284.86 311.19 283.93 308.32 282.35 307.55 282.47 307.74 281.51 307.28 279.46 306.48 278.27 305.69 272.14 305.83 270.88 304.21 267.72 302.71 266.58 306.52 261.85 307.55 258.21 310.88 254.95 314.45 254.58 315.88 253.77 318.37 253.89 319.32 254.47 321.9 258.19 323.69 258.26 324.65 259.17 325.63 258.51 327.84 257.95 328.25 254.49 328.14 250.65 328.42 249.06 328.29 246.39 328.94 245.63 330.34 246.18 331.49 245.79 332.9 246.58 334.64 246.58 334.73 247.68 336.24 249.44 337.4 249.09 339.29 249.21 340.89 248.72 344.1 249.14 344.56 251.29 345.46 252.36 345.75 253.68 347.15 254.77 350.39 254.2 352.54 255.1 354.21 254.82 353.97 259.49 354.81 262.87 355.93 264.69 356.46 266.38 359.61 269.07 360.89 268.66 362.5 268.85 363.61 267.75 365.6 268.05 367.92 267.83 368.68 268.12 371.67 272.63 373.41 273.4 374.49 273.17 375.57 273.74 376.08 275.25 379.64 276.41 381.19 276.07 382.85 278.17 383.8 277.75 384.8 279.54 385.74 277.68 386.69 277.04 388.53 276.66 391.82 276.55 397.71 275.67 Z" id="38030660"/>
<path d="M 309.53 355.83 308.07 362.59 301.76 370.02 300.46 371.38 298.14 373.24 291.49 378.52 290.71 379.03 278.65 364.35 276.23 362.05 273.65 360.3 272.3 359.72 272.42 358.65 269.39 358.21 267.81 356.84 264.54 357.59 263.5 355.8 264.24 354.42 264.85 349.03 264.58 346.28 264.99 345.89 267.78 345.64 270.68 344.05 273.36 346.74 274.96 346.46 278.78 344.48 280.6 344.43 281.85 343.69 283.24 344.35 285.15 343.29 286.88 342.72 289.19 342.7 290.79 341.44 292.82 340.53 294.71 340.94 295.83 338.55 298.03 339.79 301.5 340.14 296.77 348.44 309.53 355.83 Z" id="38030670"/>
<path d="M 357.36 370.55 357.12 373.58 356.26 375.05 353.92 375.91 350.54 373.87 349.72 374.48 347.51 374.85 346.78 374.53 345.01 375.79 344.98 377.88 343.97 379.58 342.07 378.86 341.02 379.81 336.73 381.26 335.64 383.31 335.7 384.32 332.74 383.46 331.31 383.87 329.9 382.73 326.41 381.99 324.41 382.53 322.04 382.53 319.48 382.19 316.35 381.37 314.78 381.97 313.78 381.75 313.16 378.15 312.04 376.45 310.58 374.99 309 374.94 306.96 375.35 306.1 376 304.5 376.14 302.95 376.84 299.92 375.96 298.14 373.24 300.46 371.38 301.76 370.02 308.07 362.59 309.53 355.83 311.77 347.92 314.37 340.57 316.49 336.19 317.93 333.2 326.97 329.37 329.38 328.77 336.05 327.57 338.82 327.35 339.69 327.73 343.28 332.69 345.31 334.96 348.58 339.88 352.68 347.1 354.71 354 352.98 361.69 355.11 368.94 357.36 370.55 Z" id="38030720"/>
<path d="M 316.49 336.19 314.37 340.57 311.77 347.92 309.53 355.83 296.77 348.44 301.5 340.14 298.03 339.79 295.83 338.55 292.6 329.56 299.34 327.38 302.98 325.72 306.05 329.2 306.55 329.47 309 333.23 310.15 334.12 311.66 334.22 311.94 334.97 314.63 335.99 316.49 336.19 Z" id="38030680"/>
<path d="M 296.1 289.44 293.07 292.44 291.95 295.06 290.79 295.6 290.15 297.85 291.19 299.93 290.75 302.6 291.81 304.31 290.98 307.19 291.23 308.82 292.69 310.76 295.07 311.96 296.89 313.25 299.25 314 300.23 313.41 301.21 314.08 300.5 315.57 300.91 317.13 300.62 320.09 300.21 323.61 302.98 325.72 299.34 327.38 292.6 329.56 295.83 338.55 294.71 340.94 292.82 340.53 290.79 341.44 289.19 342.7 286.88 342.72 285.15 343.29 283.24 344.35 281.85 343.69 280.6 344.43 278.78 344.48 274.96 346.46 273.36 346.74 270.68 344.05 271.04 341.68 273.1 338.77 274.34 338.79 276.86 336.22 275 332.72 272.9 332.02 271.99 332.24 270.21 330.18 268.26 329.32 265.87 326 264.89 325.24 263.91 323.18 263.1 322.39 260.99 321.47 259.78 320.2 259.07 318.02 258.83 314.58 257.52 312.63 257.73 311.53 254.36 307.1 253.23 306.75 253.6 303.04 252.44 299.36 250.46 297.12 251.88 296.17 255.06 295.41 255.28 294.1 256.21 292.62 255.57 291.73 254.44 287.08 255.28 286.09 257.83 285.49 259.11 287.13 262.99 289.55 263.91 289.64 265.07 291.14 267.69 292.98 267.55 286.67 266.6 284.75 267 283.14 266.09 280.64 268.21 279.69 270.2 280.78 269.14 282.29 271.56 284.21 277.3 289.71 280.09 289 280.57 288.47 285.12 286.87 287.22 285.55 291.87 285.06 294.1 286.7 296.1 289.44 Z" id="38030690"/>
<path d="M 270.68 344.05 267.78 345.64 264.99 345.89 264.58 346.28 264.85 349.03 264.24 354.42 263.5 355.8 264.54 357.59 267.81 356.84 269.39 358.21 272.42 358.65 272.3 359.72 273.65 360.3 276.23 362.05 278.65 364.35 290.71 379.03 282.49 384.33 273.48 389.6 268.62 391.17 264.41 391.68 259.69 391.7 256.83 390.66 255.26 389.73 247.28 385.71 246.61 385.1 248.57 381.06 245.96 381.12 244.19 378.47 239.48 373.07 236.72 374.62 232.07 377.78 231.21 378.73 229.1 382.03 226.86 384.22 225.8 386.14 225.24 388.34 224.98 390.89 225.25 400.75 225 403.61 223.86 405.65 222.55 406.9 220.87 407.46 219.15 407.26 216.32 406.14 213.24 403.24 209.85 398.43 205.83 394.98 205.07 393.86 202.13 391.11 201.23 390.6 200.91 388.78 199.82 386.22 197.98 383.33 195.53 380.26 193.87 379.05 193.8 378.05 192.8 375.26 190.69 372.16 189.63 369.2 190.45 367.67 189.11 365.68 189.94 364.4 189.62 361.25 188.84 359.44 185.95 355.54 188.67 351.61 186.45 348.84 191.36 346.02 195.49 345.95 199.65 344.55 208.72 342.03 217.75 337.98 221.31 337.76 224.93 338.91 226.91 340.18 230.24 345.38 230.77 348.48 231.22 349.54 233.62 353.07 235.08 352.69 236.19 351.07 234.41 348.82 233.4 346.64 233.62 344.98 232.45 342.99 233.7 339.39 233.44 336.31 231.09 335.41 229.76 334.17 230.6 330.11 230.02 326.55 227.17 325.13 226.74 324.08 222.82 323.17 221.53 321.01 222.8 318.31 222.4 314.42 221.76 311.49 220.52 308.91 220.07 308.91 221.72 306.09 222.66 305.55 223.64 300.66 224.92 298.12 224.2 296.07 225.06 294.89 228.32 294.46 230.77 294.38 231.55 294.76 233.92 294.59 234.55 295.5 237.5 297.95 240.01 298.22 241.79 297.88 241.61 296.94 242.38 295.93 242.57 293.43 245.02 289.77 246.52 289.03 248.12 289.38 249.83 288.76 250.8 287.77 254.44 287.08 255.57 291.73 256.21 292.62 255.28 294.1 255.06 295.41 251.88 296.17 250.46 297.12 252.44 299.36 253.6 303.04 253.23 306.75 254.36 307.1 257.73 311.53 257.52 312.63 258.83 314.58 259.07 318.02 259.78 320.2 260.99 321.47 263.1 322.39 263.91 323.18 264.89 325.24 265.87 326 268.26 329.32 270.21 330.18 271.99 332.24 272.9 332.02 275 332.72 276.86 336.22 274.34 338.79 273.1 338.77 271.04 341.68 270.68 344.05 Z" id="38030700"/>
<path d="M 420.78 374.3 421.7 377.63 420.21 378.87 417.97 378.26 417.24 379.64 416.39 379.68 414.38 378.64 413.19 378.9 412.66 380.86 409.61 383.52 408.85 382.71 409.8 380.72 407.08 378.74 406.14 380.04 403.03 380.25 401.98 383.32 400.43 385.08 400.12 386.64 400.68 388.6 403.49 390.7 404.06 396.15 405.06 397.59 405.21 399.36 405.91 401.7 405.52 402.62 406.71 404.32 407.5 407.02 408.67 408.26 408.5 409.26 407.46 410.6 406.82 412.63 405.77 413.22 406.02 414.61 404.75 415.33 405.34 417.02 404.97 418.44 403.83 420.28 402.02 420.37 400.52 421.29 399.65 422.51 398.12 423.11 397.29 421.52 396.27 420.48 394.95 416.45 393.69 416.73 392.36 416.15 390.67 416.28 390.27 418 389.23 420.27 387.98 420.66 385.87 418.33 383.77 415.38 380.58 417.14 378.57 416.77 377.44 417.01 375.7 415.58 374.11 416.19 372.12 415.13 370.68 415.92 368.68 416.32 369.47 417.64 369.19 420.89 366.8 421.77 366.29 422.73 363.34 421.56 361.44 421.7 359.82 421.37 358.47 423.09 356.81 422.71 353.75 420.17 351.91 419.38 350.5 419.26 348.84 418.16 348.82 416.4 348.08 416.18 345.67 416.5 346.5 413.66 348.04 411.14 347.72 407.77 346.97 407.89 344.94 403.89 343.81 402.61 342.38 402.37 341.13 400.9 340.52 399.05 340.9 397.76 338.93 396.13 337.98 392.85 337.53 390.14 336.45 388.63 336.16 385.49 335.7 384.32 335.64 383.31 336.73 381.26 341.02 379.81 342.07 378.86 343.97 379.58 344.98 377.88 345.01 375.79 346.78 374.53 347.51 374.85 349.72 374.48 350.54 373.87 353.92 375.91 356.26 375.05 357.12 373.58 357.36 370.55 361.91 372.13 364.3 372.65 366.57 372.78 373.46 374.69 374.77 375.84 382.58 375.03 388.06 373.51 391.64 372.15 400.58 363.23 404.1 360.09 406.43 360.03 403.73 363.59 402.63 364.62 400.88 365.56 396.71 369.48 398.03 370.28 397.87 372.48 398.58 373.7 400.07 374.13 398.54 375.36 398.28 376.92 398.57 378.52 397.7 380.02 398.12 380.8 399.38 380.49 403.48 378.32 407.57 377.12 414.93 376.34 416.95 375.87 420.78 374.3 Z" id="38030710"/>
</g>
</svg>