<?xml version="1.0"?>
<svg xmlns="http://www.w3.org/2000/svg" version="1.2" baseProfile="tiny" width="800" height="691" viewBox="0 0 800 691" stroke-linecap="round" stroke-linejoin="round">
<g id="dong">
<path d="M 357.38 440.07 358.66 440.86 359.16 442.11 359.14 443.72 358.5 444.81 357.29 445.48 355.49 445.08 354.29 443.9 353.09 443.56 351.77 442.62 351.8 441.47 352.86 440.85 354.09 441.04 356.59 440.09 357.38 440.07 Z M 357.52 418.48 357.47 419.39 358.19 420.16 357.65 420.75 358.72 421.39 358.79 423.01 357.68 423.55 356.06 423.29 354.73 423.39 353.75 423.96 353.7 424.58 352.42 425.17 351.65 423.72 351.85 421.84 351.42 420.7 351.65 419.3 352.46 419.21 353.36 418.34 354.21 418.53 355.56 418.27 356.57 417.65 357.52 418.48 Z M 395.59 381.64 396.32 381.93 396.2 383.16 396.62 384.79 397.53 385.64 397.53 387.75 398.36 389.61 397.44 390.68 396.85 392.23 396.13 393.14 396.52 395.92 396.14 396.36 396.02 398.19 395.52 399.05 396.28 400.12 396.47 401.79 397 403.65 395.42 404.25 393.41 403.31 392.85 402.44 393.02 401.58 391.49 398.64 390.97 394.79 389.76 392.78 390.66 390.78 391.18 387.89 390.78 387.25 391.43 385.58 392.91 384.61 394.68 381.45 395.59 381.64 Z M 360.51 374.07 363.8 376.7 365.28 377.43 366.12 379.79 367.03 380.48 367.94 382.24 366.76 385.94 367.51 387.14 367.69 389.25 365.09 389.31 364.43 389.88 362.73 389.98 361.21 389.42 360.11 389.53 358.02 387.75 357.26 387.63 357.33 386.49 356.65 386.28 355.61 384.23 355.91 383.22 355.3 382.14 354.31 381.66 352.56 382.01 352.65 380.86 351.63 380.69 350.5 379.65 350.13 378.42 350.67 377.42 352.09 378 354 378.27 356.18 376.31 356.94 374.57 356.48 373.55 358 373.9 359.03 372.45 359.45 372.54 360.51 374.07 Z M 336.3 370.48 337.97 371.15 339.03 371.9 341.43 372.53 342.04 372.34 343.1 371.17 344.42 371.28 345.06 373.01 346.02 373.59 347.22 373.81 347.18 374.73 348.01 376.33 349.09 377.23 348.36 377.75 345.15 375.96 343.44 374.49 341.12 374.1 338.77 375.92 336.7 376.24 334.1 375.45 333.17 376.07 331.95 376.33 331.7 375.13 332.93 374.53 334.23 373.35 334.97 372.05 335.09 371.08 336.3 370.48 Z M 367.94 360.02 369.11 359.84 370.35 360.82 371.65 359.06 372.24 359.21 372.44 360.58 373.57 361.36 373.99 360.89 375.01 361.26 376.29 360.66 376.71 359.01 380.36 359.02 381.2 359.64 381.01 361.49 382.39 362.15 382.89 363.29 382.38 363.3 381 363.78 380.03 362.09 378.9 361.55 375.69 362.56 374.93 363.21 373.94 363.18 372.93 363.71 370.94 365.47 369.76 366.22 368.6 366.32 367.41 367.63 366.97 368.58 365.76 369.6 364.92 369.74 363.29 368.52 362.54 367.41 364.28 366.29 364.36 364.41 363.58 363.01 361.44 362.89 359.16 363.46 358.27 362.49 359.32 360.51 360.51 359.49 362.32 359.31 362.97 358.46 363.18 356.41 363.84 355.1 365.09 355.11 365.02 357 365.7 358.65 366.78 359.77 367.94 360.02 Z M 211.48 350 210.9 350.93 209.68 350.87 208.44 351.32 208.3 350.68 209.69 350.03 211.48 350 Z M 367.88 348.3 368.68 348.62 370.96 348.53 371.68 349.33 371.57 351.2 370.5 352.87 369.46 352.74 368.1 353.24 366.48 352.74 365.17 353.25 364.68 352.45 365.38 351.18 366.43 350.72 366.39 349.52 367.88 348.3 Z M 359.28 347.71 360.83 348.08 361.17 348.65 360.98 351.63 360.06 353.13 360.28 354.66 359.73 356.16 358.35 355.64 356.5 356.14 354.97 356.12 354.23 355.3 352.33 355 351.1 354.16 351.22 353.33 350.02 352.2 350.12 351.61 349.05 350.67 350.97 349.25 352.16 351.34 353.71 353.11 354.74 352.99 357.1 351.46 357.14 350.1 357.72 348.19 359.28 347.71 Z M 391.04 347.36 392.23 348.74 393.12 349.23 392.29 350.18 390.82 353.19 389.57 354.11 389.52 355.06 390.67 356.02 390.67 357.56 389.34 358.66 388.85 359.42 387.89 359.88 388.29 361.14 388.37 362.92 387.9 363.61 384.97 365.2 381.55 365.79 380.84 365.61 380.34 364.51 381.01 363.85 382.24 363.4 383.29 364.25 383.85 362.25 386.12 360.47 387.42 358.79 387.28 356.84 387.68 354.92 387.35 353.86 388.03 353.02 388.34 351.68 387.05 349.2 388.01 348.05 389.04 347.54 389.89 347.91 391.04 347.36 Z M 222.92 338.55 223.35 338.77 225.04 341.32 225.8 341.68 226.22 342.7 227.37 343.91 229.99 346.02 231.54 346.15 233.37 346.65 235.21 346.61 236.41 346.97 239.86 348.64 240.75 349.66 239.44 350.47 237.74 353.6 237.98 355.05 238.81 356.16 237.64 356.77 235.97 355.54 235.45 355.59 233.91 354.63 232.79 354.24 232.43 353.39 231.31 352.86 229.7 353.48 229.25 354.77 228.51 355.11 228.12 357.12 229.09 357.6 229.22 358.69 226.59 358.83 226.6 360.27 229.4 362.39 231.14 363.27 233.21 365.07 232.05 365.13 231.29 364.01 228.07 363.1 227.03 362.37 225.96 360.83 224.77 360.7 222.91 361.63 221.31 361.53 220.14 362.51 219.23 361.08 218.58 360.6 218.81 359.22 216.83 357.61 215.72 357.47 215.98 356.34 215.2 354.09 213.85 353.93 212.86 353.22 213.29 352.46 213.12 351.57 214.31 348.96 215.13 348.98 215.46 347.87 215.23 346.5 213.54 346.56 213.67 345.03 212.48 345.58 212.63 344.41 213.28 343.22 214.68 342.39 215.93 342.29 216.43 341.71 219.02 341.11 219.14 339.66 221.65 338.2 222.92 338.55 Z M 346.02 331.28 346.9 331.51 347.86 332.98 348.88 335.41 348.19 335.81 346.76 334.78 346.55 333.69 345.72 332.89 346.02 331.28 Z M 335.98 325.81 336.61 326.72 336.36 327.52 335.56 327.5 335.3 326.17 335.98 325.81 Z M 318.19 324.08 318.7 324.55 318.55 326.07 317.89 326.72 317.16 326.58 315.78 326.97 315.16 326.19 315.84 324.84 318.19 324.08 Z M 333.66 309.33 333.48 310.93 332.2 312.21 332.25 312.86 330.66 313.42 330.49 312.92 329.28 312.44 329.31 311.58 330.53 310.51 331.6 310.4 332.59 309.44 333.66 309.33 Z M 318.12 301.09 318.58 303.84 318.06 304.35 318.37 305.25 320.17 306.74 321.72 305.66 323.18 305.71 325.17 306.59 324.92 307.86 324.04 309.36 324.2 311.81 323.36 311.79 322.35 312.42 321.79 313.23 322.42 314.52 322.59 316.17 321.19 317.25 319.33 316.66 318.35 315.55 317.39 315.26 316.07 315.34 314.29 313.4 313.53 313.33 311.68 313.95 311.27 314.52 311.08 316.21 308.94 317.85 307.73 318.02 307.82 318.95 305.04 318.83 303.83 316.83 303.93 315.49 301.66 314.59 301.25 312.95 301.36 311.84 302.51 310 303.24 309.92 304.12 310.72 306.85 310.88 308.27 311.78 309.88 311.03 309.22 309.68 310.46 308.11 310.39 307 309.43 306.8 309.34 305.79 308.63 304.93 309.24 303.8 310.39 303.55 311.43 304.51 311.46 305.06 313.19 305.67 314.87 304.14 314.16 303.27 315.3 302.44 316.13 302.88 316.18 301.53 318.12 301.09 Z M 305.52 299.47 308.23 300.64 309.65 301.49 309.5 302.57 308.38 303.25 306.9 303.71 305.72 303.43 304.5 302.73 304.08 301.02 304.73 299.6 305.52 299.47 Z M 285.9 249.84 287.14 251.68 287.16 252.7 285.98 252.83 285.76 252.16 283.98 251.18 284.01 250.1 285.22 249.57 285.9 249.84 Z M 294.81 245.02 296.25 245.31 296.3 246.55 296.98 248.43 297.7 248.54 298.65 247.75 299.53 246 300.97 246.83 301.86 248.08 302.46 247.82 303.64 248.14 305.82 249.62 306.38 250.84 305.12 251.63 303.49 251.24 302.92 253.2 304.43 253.83 304.69 254.47 303.9 255.52 302.26 255.98 301.35 255.9 301.15 256.8 303.15 258.13 304.09 258.25 305.68 257.44 307.13 256.2 308.61 256.04 309.95 254.63 310.64 254.96 310.34 257.09 310.96 257.5 312.79 257.37 313.58 258.11 317.7 259.22 318.33 260.2 318.19 261.34 317.23 261.2 314.6 259.01 313.38 259.2 312.38 258.79 311.03 259.05 309.78 258.61 309.31 257.95 307.98 257.82 306.77 259.35 304.37 259.09 302.27 260.89 301.38 260.82 301.91 259.33 301.42 258.5 300.35 257.7 299.27 257.5 298.03 256.28 296.97 256.02 296.58 255.24 294.68 253.72 292.09 253.66 290.16 254.38 289.5 253.17 288.63 252.57 288.96 248.89 290.49 247.04 291.85 247 292.38 246.26 294 244.97 294.81 245.02 Z M 307.38 224.91 307.97 225.27 307.58 226.37 306.58 225.14 307.38 224.91 Z M 253.38 224.35 254.23 225.13 253.82 226.44 252.55 228.05 251.4 228.86 250.52 231.36 249.73 231.89 248.94 231.51 247.78 231.88 246.26 231.52 245.74 228.04 246.68 227.88 247.77 228.66 248.87 228.61 250.6 227.59 250.87 226.58 251.69 225.52 251.97 224.59 253.38 224.35 Z M 288.36 222.67 289.06 222.97 288.84 224.14 287.87 223.1 288.36 222.67 Z M 337.51 232.57 337.69 234.94 339.16 235.77 339.79 237.14 341.63 238.17 342.56 239.25 342.63 240.64 342.12 241.48 342.32 244.04 343.07 246.47 347.16 247.84 349.4 248.23 351.24 247.63 353.19 250.03 356.23 253.09 357.66 252.56 362.6 251.29 363.66 251.28 365.3 250.62 366.94 251.34 368.64 251.47 370.41 252.5 370.98 253.62 372.76 254.1 373.66 254.91 374.06 256.71 375.3 259.37 377.84 261.19 378.76 262.19 380.22 258.64 382.23 255.52 382.49 252.8 383.16 251.13 383.97 251.05 386.18 249.79 387.25 248.63 389.75 247.79 391.11 246.17 391.79 246.67 393.11 245.21 395.27 245.54 396.71 245.22 397.18 245.8 400.27 246.91 401.42 246.66 402.03 245.56 404.05 243.52 405.32 243.08 406.59 243.28 407.66 242.69 410.48 243.72 411.68 244.62 411.08 245.71 410.04 246.16 408.88 247.88 409.18 249.29 408.73 250.68 408.58 252.15 409.11 254.93 408.87 256 408.97 258.32 410.26 260.28 411.01 260.83 412.29 263.78 411.89 265.38 411.74 267.25 411.37 267.95 411.25 269.59 413.06 271.32 412.34 273.68 410.95 273.21 410.03 273.62 408.22 273.57 405.85 274.52 404.2 273.41 403.53 272.39 401.87 268.54 401.57 266.9 401.61 264.98 400.74 265.06 399.1 268.29 398.88 269.21 399.69 270.78 399.97 272.36 398.67 273.97 398.85 275.33 400.26 277.12 400.14 278.68 401.03 279.17 403.78 278.03 404.43 278.62 406.45 279.51 408.16 281.7 409.22 282.56 409.6 284.34 410.39 286.18 409.4 287.08 407.37 289.91 407.19 291.01 404.07 292.79 402.93 294.16 402.81 295.03 400.44 294.37 398.8 293.44 397.6 291.7 396.86 291.62 395.3 292.89 394.06 292.83 390.09 290.37 387.92 290.21 385.36 288.35 383.82 290.04 385.3 292.55 385.72 293.99 386.41 295.05 386.31 296.43 388.33 297.05 388.63 296.68 390.77 296.3 391.67 296.53 393.54 299.12 395.72 300.24 397.39 302 399.83 303.35 400.09 304.4 401.61 305.61 403.47 304.77 403.74 305.46 404.81 306.46 404.85 308.25 405.2 309.58 404.69 310.34 402.83 310.76 401.22 311.98 401.2 312.93 400.23 313.77 399.01 314.23 398.57 315.43 399.31 316.09 398.61 317.24 397.38 317.33 397.39 318.36 396.48 318.71 395.06 321 393.09 322.02 390.51 324.04 389.76 325.52 392.33 327.45 391.53 329.47 392.07 329.74 392.03 332.07 391.08 332.96 390.43 334.05 390.12 337.44 389.08 337.75 388.06 336.64 388.02 334.28 386.57 332.78 384.78 334.02 383.12 334.01 381.75 334.63 378.31 336.63 376.86 336.85 373.99 336.02 370.49 336.5 368.92 337.23 367.41 337.44 366.31 336.71 364.65 334.67 365.22 333.13 366.95 332.16 368.87 329.01 367.57 328.39 366.06 329.07 362.58 328.87 361.26 329.19 361.06 329.74 359.39 330.8 357.84 333.05 356.59 333.29 355.31 332.05 355.29 329.34 355.58 328.57 355.81 324.94 354.95 322.72 353.85 321.26 351.55 320.23 351.99 319.39 351.77 318.54 353.15 317.89 353.24 315.97 353.89 314.91 353.91 313.81 354.71 312.53 354.8 311.21 355.25 310.7 353.97 309.44 351.63 308.45 350.62 308.73 350.24 310.07 347.81 309.99 346.26 310.71 345.23 313.34 345.46 314.22 344.63 316.17 343.83 316.64 342.89 316.28 343.36 315.01 343.7 312.84 343.57 311.8 342.7 311.09 340.59 310.63 340.69 308.86 341.04 307.54 342.03 305.97 344.52 304.77 346.84 302.83 347.3 300.2 346.6 298.17 344.88 294.83 343.68 293.75 341.95 292.98 339.67 292.76 337.43 291.36 335.74 290.94 334.55 290.23 334.78 288.84 336.64 287.67 337.18 283.75 335.76 282.83 331.69 285.23 330.77 284.5 329.92 285.54 326.95 286.77 325.98 287.33 326.02 288.23 328.91 288.13 329.15 290.34 328.4 292.57 327.65 295.86 327.02 296.51 325.61 296.45 324.61 294.9 324.54 292.7 324.87 291.47 324.72 289.72 324.35 288.59 322.94 288.25 321.33 286.58 320.19 286.43 320.46 288.13 319.61 288.89 318.73 288.3 316.88 287.57 316.76 286.86 315.34 286.01 314.7 286.64 312.78 286.6 311.33 284.57 312.1 283.34 313.87 282.65 313.97 281.61 315.06 281.45 315.47 280.7 316.87 280.22 317.09 279.25 318.32 277.64 320.43 279 321.1 279.84 322.6 280.68 322.22 279.3 322.12 276.46 321.58 275.74 321.55 274.79 322.91 274.44 324.45 276.64 325.57 277.45 325.73 279.92 327.09 281.4 329.38 281.48 330.16 281.12 330.14 280.08 329.16 279.17 329.86 277.72 329.56 275.65 327.07 273.77 328.16 272.95 329.66 273.44 330.56 274.1 331.82 272.56 332.55 270.51 333.13 269.83 332.99 268.9 330.79 267.49 330.06 267.37 328.64 267.95 327.08 267.77 326.98 266.39 327.36 265.3 328.79 264.01 328.96 262.56 329.68 261.61 332.04 261.14 333.22 261.5 334.32 261.42 333.97 260.26 332.93 258.73 332.83 258.04 331.26 255.26 330.34 254.56 329.72 255 327.71 255.07 327.03 253.95 325.71 252.74 323.89 251.81 322.1 251.18 317.88 250.22 315.83 250.18 314.72 249.78 312.72 247.92 311.69 246.68 309.34 245.55 307.39 244.32 306.83 244.46 305.19 243.43 304.21 243.19 303.77 242.12 304.62 238.83 304.19 237.8 303.15 237.76 302.63 239.16 301.45 241.23 300.1 241.58 295.36 240.07 291.81 239.61 289.69 239.69 287.75 239.53 287.13 239.73 286.88 241.19 286.33 242.47 285.38 242.85 283.27 244.35 282.49 244.24 282.32 245.35 280.85 247.21 281.08 250.6 280.52 251.4 279.4 251.11 278.19 252.24 275.76 252.71 274.5 251.42 274.03 250.35 275.08 249.85 274.76 249.1 275.95 247.74 276 246.22 275.06 245.6 275.25 244.47 274.85 243.81 273.83 243.63 271.97 244.68 271.65 243.69 270.68 242.52 269.16 241.71 268.39 240.79 267.96 238.69 267.29 238.18 267.94 237 267.76 235.3 267.25 234.86 266.95 232.85 267.82 232.65 269.04 233.1 270.74 235.64 272.35 237.12 273.78 237.27 274.36 238.22 276.34 236.4 274.11 234.53 274.57 232.2 273.41 231.34 273.33 229.88 272.5 227.5 271.39 226.56 270.91 225.66 273.18 226.29 274.85 227.68 274.75 228.95 275.82 230.17 275.44 231.99 276.63 233.88 277.82 233.97 279.24 235.49 280.11 235.61 280.36 234.63 279.86 233.94 279.4 229.47 281.08 226.78 281.49 225.27 279.4 225.17 278.39 224.38 278.3 222.59 278.94 221.48 278.74 219.85 279.09 219.02 278.75 217.84 277.55 216.73 275.46 215.19 275.69 213.76 276.81 212.75 276.86 214.01 277.44 215.05 278.41 215.66 279.55 215.44 280.01 214.58 282.09 214.12 282.66 215.3 282.67 216.42 282.05 217.78 282.34 218.91 282.14 220.66 281.51 221.86 281.88 222.55 283.16 222.98 282.59 225.14 283.17 226.15 284.64 227.08 285.21 228.52 284.83 229.23 285.26 230.04 286.35 229.47 286.57 228.44 287.78 227.54 288.31 225.51 290.01 225.72 291.18 225.17 291.73 224.11 290.59 220.84 289.54 219.69 288.83 216.29 289.92 215.15 290.14 213.62 290.91 212.88 292.36 213.72 293.23 215.6 294.28 215.66 295.16 214.47 295.05 213.92 296.21 212.54 297.62 212.36 298.84 212.94 298.32 215.28 298.79 216.86 298.42 217.89 299.38 218.24 300.74 216.8 301.42 215.03 302.69 216.3 303.74 216.95 303.66 217.68 304.38 219.79 303.8 220.28 302.51 220.27 302.3 220.85 302.76 223.07 302.03 224.71 300.99 225.92 300.2 226.29 299.67 227.51 300.43 228.35 300.76 229.42 302 229.49 303.3 227.69 306.55 227.58 307.67 226.67 308.89 226.44 309.11 225.09 310.3 224.74 310.86 224.06 312.56 224.11 313.03 225.12 312.23 225.82 310.7 228.21 312.73 229.17 312.48 229.78 312.96 230.77 314.34 230.87 315.51 228.05 318.45 225.43 319.02 225.2 320.1 225.8 321.57 227.5 323.14 228.16 323.21 229 322.4 230.5 321.69 232.41 322.02 233.91 323.36 234.12 324.03 233.12 325.44 232.62 326.24 231.84 327.79 232.46 329.32 232.55 329.86 234.04 329.07 234.16 327.66 235.27 325.66 235.64 325.72 237.26 326.25 237.97 330.4 237.66 331.91 238.86 332.37 238.86 333.39 240.5 334.13 240.76 335.05 242.35 334.28 247.25 334.72 249.33 336.49 249.93 336.68 250.73 337.99 252 338.09 252.92 338.89 254.8 339.09 257.54 340.11 257.49 340.25 256.34 341.77 255.24 342.09 254.5 341.6 253.22 341.83 252.7 340.49 248.13 338.24 247.38 337.66 246.88 339.48 244.92 338.71 244.19 338.91 241.82 338.11 239.3 337.14 238.59 336.9 237.47 337.44 236.38 336.49 235.52 336.49 233.74 336.89 232.51 337.51 232.57 Z" fill-rule="evenodd" id="38050110"/>
<path d="M 437.33 197.24 437.27 198.61 436.25 198.32 436.55 197.54 437.33 197.24 Z M 425.56 181.12 425.68 181.99 424.26 181.74 425.07 180.78 425.56 181.12 Z M 444.99 168.84 446.43 169.64 445.25 171.39 445.13 172.11 446.7 173.81 446.46 174.75 445.35 175.3 444.92 177.17 443.7 177.15 442.99 177.77 442.33 177.19 442.38 176.13 443.47 176.03 444.1 175.15 443.89 172.66 442.57 171.08 443.47 170.6 443.79 169.38 444.99 168.84 Z M 404.69 129.53 404.08 129.15 403.67 127.48 405.32 126.97 405.87 128.11 404.69 129.53 Z M 452.17 118.76 453.23 119.99 453.64 121.46 452.44 121.43 450.92 120.31 451.2 118.92 452.17 118.76 Z M 473.57 100.45 474.64 101.06 474.79 101.93 474.34 102.83 472.11 103.09 472.09 101.25 473.57 100.45 Z M 432.14 99.33 432.56 99.62 432.24 101.25 430.89 101.17 431.27 99.57 432.14 99.33 Z M 420.35 205.7 419.08 205.21 418.73 204.47 417.61 203.53 414.49 203.19 413.58 202.01 415.17 198.7 414.33 196.47 413.15 195.87 412.82 194.81 411.09 194.05 410.27 193.97 409.08 192.94 408.09 193.45 405.99 193.56 404.65 194.12 403.46 193.67 404.46 192.58 405.61 192.39 406.87 190.86 409.83 189.32 409.93 187.64 408.9 186.38 406.58 184.41 405.73 183.1 404.23 181.48 402.41 180.25 398.26 179.7 397.24 178.75 395.68 178.41 394.87 177.9 394.42 175.99 394.48 175.01 393.48 173.14 390.73 172.63 388.28 171.79 386.76 171.5 384.56 171.58 383.08 170.61 378.61 169.5 377.72 169.45 378.7 167.2 380.56 164.11 380.23 162.91 382.45 162.89 383.89 161.52 384.48 161.81 383.89 162.21 384.34 163.6 385.29 164.61 386.94 165.03 387.07 164.51 389.06 163.6 389.5 162.06 391.21 160.76 392.06 158.79 393.21 156.7 393.81 156.53 395.72 158.26 396.99 157.88 397.49 157.11 398.73 156.59 399.01 155.48 398.77 154.47 397.64 153.99 398.29 151.89 398.83 152.21 399.6 151.46 400.98 150.9 401.17 150.17 400.41 148.29 401.01 147.69 401.1 145.59 400.65 144.91 399.78 144.76 398.73 145.6 397.66 145.61 396.24 146.44 396.48 142.97 396.09 141.69 397.59 139.44 399.16 138.98 400.12 140.01 401.14 140.2 401.35 142.13 402.73 142.31 403.26 140.87 403.44 139.41 402.89 137.51 403.3 136.64 405.44 137.48 406.03 138.01 408.4 138.31 409.38 138.89 410.9 138.05 412.01 138.77 414.25 138.89 415.26 138.73 414.91 137.41 413.81 136.58 413.34 136.76 412.5 135.72 410.61 135.64 409.79 135.22 409.59 134.39 411.01 133.69 412.89 133.44 412.89 131.77 411.95 132.04 410.58 132.96 408.76 133.22 406.68 132.35 407.03 131.55 407.97 131.51 409.27 130.17 409.65 129.36 410.75 128.94 413.57 128.76 413.94 126.73 410.77 126.16 410.83 124.46 413.37 122.75 413.05 121.58 413.49 120.57 415 119.86 416.08 119 418.11 117.86 418.64 117.17 420.57 117.34 422.09 117.18 422.59 116.56 421.85 114.66 420.4 112.48 419.56 111.9 418.56 111.86 417.08 113.13 415.54 113.22 415.58 111.74 413.75 108.25 412.96 107.57 411.93 104.79 410.59 103.67 409.28 103.7 408.63 104.28 405.26 102.03 405.77 101.35 408.08 99.84 410.31 99.9 411.92 99.29 412.46 98.33 414.32 98.99 417.28 98.63 418.76 97.41 421.15 96.74 422.77 96.85 424.54 98.01 424.05 98.87 425.11 99.88 423.7 102.04 423.34 103.9 424.59 105.18 428.04 107.42 429.31 107.96 429.55 108.64 429.47 110.7 430.24 111.61 432.41 111.6 434.28 112.6 434.22 113.3 433.3 114.52 430.89 114.79 429.54 116.41 428.5 116.28 427.36 117.48 426.56 117.68 425.68 119.11 428.63 120.95 430.77 121.15 431.14 121.77 431.51 123.76 432.66 124.14 433.71 121.66 435.18 120.56 436.64 120.19 437.62 121.54 438.51 121.78 438.95 120.9 440.5 122.17 440.94 124.04 440.66 124.54 441.25 126.73 440.39 128.42 438.87 128.96 439.8 131.26 440.77 132.55 441.98 133.69 443.53 133.79 444.67 133.05 445.82 133.32 446.59 132.93 448.32 133.16 449.36 130.79 451.13 129.84 452.43 132.23 452.89 134.28 454.28 135.8 454.36 136.38 451.2 137.03 450.12 137.91 448.27 137.84 447.11 138.1 445.83 139.92 445.07 140.07 446.82 143.11 448.01 143.76 448.44 144.69 447.28 146.51 445.52 147.71 444.12 148.32 443.76 149.27 444.05 150.47 444.94 151.16 444.9 152.6 443.99 153.77 443.78 154.98 442.95 156.1 442.79 157.86 443.12 158.88 442.9 160.03 443.63 161.45 443.99 163.42 443.64 164.78 442.52 165.65 440.34 165.34 439.21 165.74 436.69 165.65 436.38 164.15 434.81 162.77 435.48 161.07 434.75 159.11 434.03 158.56 434.63 156.64 433.2 155.45 433.73 154.17 434.88 153.97 435.04 152.2 433.63 151.6 433.91 149.85 430.76 147.83 428.32 148.74 427.69 150.29 428.27 150.51 429.53 151.93 428.67 154.01 428.94 154.6 427.99 155.35 428.55 156.93 429.11 157.36 428.79 158.99 428.1 159.89 429.25 161.59 429.92 161.93 429.64 163.3 427.89 163.75 427.64 163.13 428.22 162.2 426.94 160.01 425.61 159.87 424.39 160.64 423.83 161.47 424.52 163.01 425.18 163.55 425.52 165.21 427.99 167.1 428.66 166.78 428.97 168 429.75 167.98 430.39 169.76 429.06 170.66 427.82 169.58 426.69 170.66 427.79 172.46 428.9 172.16 429.27 174.07 429.98 174.98 429.3 176.13 428.24 175.51 427.92 174.69 426.96 174.71 426.89 176.18 426.17 176.24 425.66 175.21 423.74 174.89 423.88 172.92 422.56 172.8 423.19 171.62 422.09 170.84 420.95 170.88 417.63 174.45 417.59 176.67 417.25 177.13 418.29 178.99 420.23 179.38 420.02 180.94 421.44 182.67 422.93 182.47 423.33 183.43 422.81 184.06 422.59 185.48 422.13 186.08 423.82 186.85 425.2 185.89 425.79 187.32 424.93 188.36 425.4 190.39 426.84 190.97 426.97 191.78 423.49 194.89 422.64 196.69 422.98 198.9 424.61 199.74 424.92 200.65 424.38 201.81 424.82 202.61 424.81 204.51 421.36 205.13 420.35 205.7 Z M 464.83 92.98 466.75 93.28 467.58 94.73 466.45 96.49 465.04 96.85 464.33 96.18 463.65 94.86 464.19 94.17 465.16 94.03 464.83 92.98 Z M 440.95 86.91 443.28 88 444.49 87.89 444.87 88.73 446.57 88.9 447.48 88.21 448.14 88.73 449.93 88.98 451.1 89.6 451.48 90.36 452.65 90.44 451.94 92.2 449.91 91.63 449.42 92.09 449.39 94.88 449.66 96.81 451.79 99.76 453.02 102.08 454.33 103.36 455.73 103.67 456.94 103.26 458.07 103.92 459.26 103.86 459.24 104.72 458.59 105.79 457.22 106.03 456.49 105.61 455.24 106.27 455.07 108.1 455.88 108.74 455.54 110.69 454.9 112.61 453.47 113.39 451.71 112.63 449.1 112.69 447.83 113.15 444.75 112.31 443.32 111.43 441.54 111.1 441.15 109.51 440.08 107.5 439.03 106.6 438.41 103.95 438.83 100.75 439.53 98.02 440.76 95.49 441.57 94.48 443.92 92.14 445.09 91.3 441.66 88.52 439.75 87.97 440.95 86.91 Z M 468.62 58.87 469.69 60.17 471.38 63.05 471.57 65.55 473.38 68.37 473.5 70.22 472.95 72.12 471.77 74.16 470.86 73.87 468.03 74.31 465.93 72.85 465.53 72.01 466.05 70.26 464.89 68.36 464.32 66.98 464.82 66.31 465 64.98 466.7 64.42 467.01 63.05 468.13 61.49 467.99 59.95 468.62 58.87 Z M 466.61 12.95 466.81 14.4 467.77 15.27 470.83 16.17 470.76 17.05 468.39 18.06 466.98 19.15 465.88 21.33 466.08 22.47 464.9 25.17 464.77 26.02 465.3 27.27 465.43 29.09 466.21 30.12 468.9 32.16 469.93 32.41 471.35 32.24 472.08 32.55 472.55 33.86 472.23 35.29 469.97 35.5 467 34.9 465.72 35.25 464.24 34.72 463.31 33.55 463.18 31.44 463.73 28.24 464.12 26.87 464 24.95 462.34 22.46 461.93 21.45 460.81 20.15 461.43 18.08 462.23 16.7 463.44 15.84 465.59 15.22 466.11 14.44 466.03 13.2 466.61 12.95 Z" fill-rule="evenodd" id="38050310"/>
<path d="M 291.1 173.81 292.45 174.3 293.87 175.87 294.03 176.79 293.6 177.54 293.74 179.48 292.58 179.18 292.28 178.1 291.31 177.73 290.29 176.24 288.6 175.41 287.24 176.32 286.33 177.52 285.99 178.53 284.77 178.99 283.9 177.92 284.94 176.55 286.46 175.58 288.16 175.24 289.42 174.01 291.1 173.81 Z M 272.06 168.09 273.39 168.69 273.91 169.71 274.7 169.98 276.77 171.27 275.83 171.71 274.61 171.16 272.65 169.78 273 169.15 272.06 168.09 Z M 326.16 159.66 324.81 159.76 324.51 158.71 326.12 158.99 326.16 159.66 Z M 324.9 157.49 323.54 156.25 324.9 155.85 324.9 157.49 Z M 233.79 134.81 232.83 134.84 232.45 134.18 233.43 133.16 233.79 134.81 Z M 226.86 115.57 225.83 115.95 224.85 115.18 224.94 114.29 226.52 113.67 226.86 115.57 Z M 295.31 93.9 295.03 94.53 293.26 95.21 292.96 94.16 293.45 93.61 295.31 93.9 Z M 254.8 80.9 255.77 81.06 256.67 82.57 257.79 83.34 258.25 84.57 258.31 86.6 257.23 87.03 256.84 85.59 256.01 85.38 255.41 87.05 254.71 87.03 254.1 87.9 252.31 86.66 251.78 87.33 251.61 89.42 251.71 91.53 250.81 91.3 251.09 89.63 249.89 88.03 250.05 86.11 251.56 84.27 251.79 82.73 252.84 81.37 253.87 80.77 254.8 80.9 Z M 268.91 80.58 268.9 82.84 267.22 83.57 267.35 86.31 266.95 87.12 266.11 87.55 265.2 87.12 264.62 86.06 263.45 85.7 264.29 83.8 263.22 82.18 263.09 81.33 264.29 81.15 264.6 81.78 266.69 81.87 268.72 80.21 269 78.77 269.71 78.88 268.91 80.58 Z M 279.76 72.74 280.16 73.8 278.69 73.98 279.22 72.68 279.76 72.74 Z M 268.37 63.45 269.58 63.46 270.6 64.27 268.53 65.25 267.51 64.63 268.37 63.45 Z M 283.21 63.77 285.01 62.39 286.19 59.26 287.44 58.89 287.64 59.67 288.61 59.63 290.39 60.46 292 62.3 292.99 61.17 293.61 59.94 293.62 58.79 295.29 56.64 298.28 56.23 298.88 55.48 300.04 55.21 300.97 54.46 302.46 54.26 304.04 53.44 307.71 54.04 309.56 53.68 310.1 53.18 310.76 51.63 312.14 50.38 314.87 49.37 316.95 49.38 318.71 50.85 320.34 50.61 321.78 50.94 323.41 50.24 325.41 49.71 327.71 47.69 329.01 48.27 330.53 48.03 332.11 47.06 333.16 47.24 333.08 50.48 333.21 51.81 333.97 53.83 335.23 54.93 335.57 55.62 337.63 56.86 338.25 58.11 337.98 58.94 338.51 60.06 338.01 61.97 338.4 63.02 337.79 64.23 336.69 64.08 334.73 64.55 334.03 67.18 332.74 69.65 332.19 72.26 331.31 74.43 331.56 75.73 332.62 76.09 334.58 77.83 336.04 78.47 336.89 79.32 338.09 79.48 339.17 80.3 341.48 82.65 341.7 83.92 342.82 87.21 341.64 89.58 341.95 90.75 342.82 90.88 345.24 93.4 345.82 95.85 346.45 97.54 348.51 99.85 351.12 101.6 352.6 103.42 353.18 106.75 353.08 107.59 354.03 108.03 353.73 110.56 353.4 111.61 352.18 112.73 351.92 113.92 351.18 115.16 351.18 116.26 350.5 116.97 349.49 116.55 347.82 117.23 346.16 117.62 345.14 118.25 345.69 120.34 345.53 123.85 343.59 124.67 342.73 124.6 341.24 125.56 340.35 128.53 339.19 129.21 337.06 130.04 334.16 130.33 332.9 130.1 331.18 129.41 330.13 129.4 329.66 130.71 328.27 131.98 328.13 132.79 325.76 135.98 324.2 137.12 324.72 137.7 326.45 138.3 327.85 139.58 328.84 141.31 329.99 142.71 330.68 144.67 330.37 145.74 329.01 148.32 327.07 149.56 324.04 150.32 322.99 148.8 321.3 147.72 319.93 145.38 318.77 144.34 317.23 144.18 316.11 145.19 316.95 146.2 317.07 148.09 318.09 149.37 319.73 150.52 320.09 152.19 321.06 153.59 320.03 155.76 319.89 156.79 320.13 158.34 319.79 159.41 320.12 160.61 322.31 161.59 324.12 163.85 324.97 164.52 324.99 165.47 325.67 166.62 325.6 167.56 324.38 169.43 322.96 170.13 321.65 170.22 320.34 169.6 317.68 166.64 316.77 166.26 315.61 165.2 314.39 165.43 313.37 166.07 311.49 167.78 309.21 169.29 308.15 169.25 308.39 167.9 307.94 167.31 306.8 167.54 305.97 169.34 305.19 169.5 302.99 168.94 302.14 167.92 301.57 166.64 300.35 167.66 299.77 167.68 299 165.68 298.92 164.82 300.03 163.84 300.05 162.44 298.73 161.8 300.06 159.34 301.35 158.18 301.4 156.88 299.74 156.46 301.49 154.44 301.25 153.11 300.53 152.63 298.49 153.74 297.19 153.91 296.83 155.09 295.85 155.11 295.84 153.8 294.84 152.68 294.48 148.7 294.51 147.65 293.95 145.61 292.53 143.19 291.06 143.03 290.4 142.1 289 143.53 289.74 144.68 291.42 146.65 291.74 149.19 291.28 149.8 291.08 151.46 291.47 153.53 292.47 156.77 292.15 158.32 292.54 158.91 290.84 161.38 290.17 162.81 290.2 164.11 289.73 164.71 288.28 164.09 286.3 165.3 285.02 164.78 282.82 164.31 282.64 163.38 281.26 162.69 281.02 162.13 281.58 160.95 281.16 159.16 281.1 156.48 281.7 154.62 281.48 153.7 281.9 152.72 280.24 150.55 278.64 150.37 278.08 150.73 277.67 152 276.8 152.16 275.19 151.66 274.37 150.67 272.76 150.45 271.46 149.57 270.32 149.69 269.43 150.65 268.68 152.3 270.02 152.19 271.66 153.83 271.88 154.78 273.45 155.81 274.71 157.18 273.79 158 273.19 157.63 271.1 158.07 268.9 158.13 268.55 155.42 267.52 155.41 266.8 157.82 267.31 159.67 266.09 159.3 265.24 160.65 263.42 160.48 262.75 158.82 261.74 158.01 261.43 156.96 259.86 155.19 260.31 153.79 259.65 152.56 261.07 150.55 262.36 150.33 263.17 149.59 263.84 148 265.26 146.28 263.99 144.49 262.54 143.68 260.91 143.54 259.51 144.69 258.65 146.54 257.06 146.49 255.71 147.41 255.18 148.3 255.45 149.62 255.1 151.14 253.21 152.64 252.59 154.24 252.44 155.45 251.87 155.68 250.91 154.95 248.29 153.92 248.61 152.14 248.01 150.4 248.03 148.52 247.43 147.66 243.98 145.73 242.86 145.44 241.96 145.93 241.37 146.85 238.87 146.63 238.26 145.55 239.79 144.73 240.71 143.93 240.51 141.71 239.45 139.31 239.72 138.16 239.25 134.46 238.5 133.15 237.22 132.11 235.87 131.52 234.19 128.27 233.12 127.31 230.88 126.41 229.55 127.05 228.54 127.04 226.96 126.23 224.46 123.69 223.61 122.45 224.36 119.61 225.39 118.93 228.06 118.02 230.21 116.13 231.01 114.91 233.33 112.01 234.54 111.72 235.13 110.85 236.78 109.65 238.59 109.56 242.74 108.73 246.42 109.42 248.05 109.01 251.01 107.84 251.87 108.19 252.76 109.98 251.78 111.25 252.95 112.12 254.17 111.64 255.14 112.29 256.67 112.16 258.84 111.43 260.05 111.68 261.6 111.38 262.46 110.36 264.22 109.65 265.89 109.5 267.99 108.85 270.05 109.1 271.12 110.15 272.62 110.22 273.11 109.33 274.77 109.68 277.15 109.28 279.13 110.52 280.26 111.79 281.03 111.65 283.05 112.3 285.38 114.12 285.14 114.77 286.43 115.34 287.56 114.09 288.98 113.78 291.07 114.11 291.87 113.76 293.24 112.25 294.58 111.57 295.73 110.26 296.76 109.76 298.14 109.93 298.74 108.31 298.02 107.53 298.1 106.3 296.65 104.9 297 104.61 295.85 102.78 295.57 101.86 294.34 101.85 293.62 100.8 292.94 98.32 292 96.69 292.8 96.07 293.51 97.64 294.29 97.76 294.93 96.72 296.13 96.04 297.12 93.99 296.9 91.85 295.47 90.65 294.92 91.14 293.04 91.4 291.66 92.04 291.79 90.57 290.63 91.42 289.26 91.78 288.19 91.22 287.7 90.33 286.12 89.39 285.96 88.01 287.06 87.3 288.19 87.02 290.66 86.88 291.72 87.08 291.97 85.62 289.91 84.74 288.98 85.05 287.62 83.87 286.6 84.75 285.5 84.51 284.82 85.64 283.52 85.86 284.29 83.46 283.06 83 282.86 82.14 281.77 82.39 281.13 84.5 279.92 85.5 279.54 88.23 277.3 85.94 276.02 85.8 274 86.68 273.66 87.38 274.17 88.86 272.63 89.48 272.8 87.74 272.34 86.6 273.53 84.48 272.68 83.57 273.29 82.4 274.55 81.74 275.09 80.45 276.05 81.52 275.49 82.74 274.49 83.31 274.97 84.55 277.02 83.69 278.96 85.08 279.92 84.52 279.8 81.99 280.76 82.14 281.35 81.47 280.86 80.13 281.28 79.48 283.02 79.95 283.11 78.82 284.98 76.76 282.86 76.58 281.5 75.19 282.57 74.24 284.55 74.82 285.2 72.28 286.25 71.28 285.98 69.94 284.23 69.31 284.02 68.52 285.27 67.76 284.94 64.48 283.21 63.77 Z" fill-rule="evenodd" id="38050320"/>
<path d="M 388.1 130 387.87 131.87 387.24 132.93 387.8 135.38 387.15 137.12 386.64 137.35 385.96 135.51 385.65 133.49 383.49 130.78 384.08 130.08 385.03 128.1 386.67 126.84 388.12 126.66 388.57 127.55 388.74 129.05 388.1 130 Z M 391.79 119.45 390.25 119.05 389.66 118.49 390.33 117.58 391.79 119.45 Z M 404.72 78.3 404.81 79.04 406.84 79.95 406.81 80.51 404.53 81.21 402.88 82.3 401.96 82.18 401.64 80.89 402.17 79.27 403.31 78.47 403.92 77.58 404.72 78.3 Z M 411.4 74.04 410.33 75.1 409.95 74.48 411.4 74.04 Z M 399.61 51.3 401.09 51.47 400.99 53.37 400.31 54.5 398.81 55.24 398.49 53.93 398.77 53.07 398.31 52.3 398.59 51.33 399.61 51.3 Z M 325.76 135.98 328.13 132.79 328.27 131.98 329.66 130.71 330.13 129.4 331.18 129.41 332.9 130.1 334.16 130.33 337.06 130.04 339.19 129.21 340.35 128.53 341.24 125.56 342.73 124.6 343.59 124.67 345.53 123.85 345.69 120.34 345.14 118.25 346.16 117.62 347.82 117.23 349.49 116.55 350.5 116.97 351.18 116.26 351.18 115.16 351.92 113.92 352.18 112.73 353.4 111.61 353.73 110.56 354.03 108.03 353.08 107.59 353.18 106.75 352.6 103.42 351.12 101.6 348.51 99.85 346.45 97.54 345.82 95.85 345.24 93.4 342.82 90.88 341.95 90.75 341.64 89.58 342.82 87.21 341.7 83.92 341.48 82.65 339.17 80.3 338.09 79.48 336.89 79.32 336.04 78.47 334.58 77.83 332.62 76.09 331.56 75.73 331.31 74.43 332.19 72.26 332.74 69.65 334.03 67.18 334.73 64.55 336.69 64.08 337.79 64.23 338.4 63.02 338.01 61.97 338.51 60.06 337.98 58.94 338.25 58.11 337.63 56.86 335.57 55.62 335.23 54.93 333.97 53.83 333.21 51.81 333.08 50.48 333.16 47.24 332.11 47.06 330.53 48.03 332.08 47.07 333.3 45.58 334.16 45.36 335.95 43.74 336.91 41.88 338.25 41.73 340.05 40.53 341.3 40.06 343.34 40.02 342.95 38.06 342.17 35.4 341.7 33.21 341.04 31.34 340.93 29.49 340.63 28.61 340.66 25.9 343.58 24.46 344.53 22.37 344.35 21.7 348.09 21.26 350.41 20.24 352.68 20.95 354.5 21.03 355.41 17.63 354.94 16.87 355.11 15.39 354.79 14.75 355.48 12.92 355 10.87 355.97 9.93 357.3 10.71 358.82 10.9 359.46 11.95 361.42 13.62 365.31 14.19 367.52 14.09 368.42 14.77 371.09 15.4 371.96 15.05 374.84 15.71 375.63 14.92 376.65 12.69 376.91 11.49 378.58 8.97 381.46 7.59 381.82 5.64 383.06 3.9 384.23 2.69 386.18 2.31 386.86 1.66 388.6 2.25 389.94 1.98 391.65 2.17 394.38 1.01 395.86 1 397.02 1.48 397.83 3.2 398.72 3.75 400.04 3.15 400.1 4.51 400.92 5.45 404.63 6.63 404.82 7.06 406.55 7.3 407.98 7.94 407.24 9.53 407.49 9.87 411.26 13.22 402.45 23.17 402.65 23.34 396.26 30.59 395.34 31.51 392.44 31.57 392.69 43.25 393.18 43.29 393.3 46.68 397.01 46.76 402.08 44.52 402.18 44.85 397.05 47.06 393.4 47.37 394.18 49.94 392.49 52.36 391.59 52.51 391 53.84 389.17 53.5 388.31 54.4 387.24 57.8 388.06 59.42 389.22 59.47 391.44 60.34 392.58 60.06 393.02 60.74 392.62 61.91 391.12 62.55 390.96 63.36 391.44 64.75 392.26 65.75 393.52 66.31 394.69 65.86 396.18 67.07 398.17 67.35 397.93 69.96 398.06 70.53 399.79 71.11 400.3 71.63 401.65 71.07 401.92 71.52 399.93 73.36 398.22 73.5 396.67 74.22 395.59 75.16 393.21 75.57 392.2 77.05 393.02 78.62 392.43 80.62 393.92 83.07 393.41 84.45 394.41 86.44 394.21 87.54 394.06 90.6 393.75 91.21 394.08 92.63 393.66 93.65 392.19 94.69 392.5 96.24 393.29 97.46 392.79 98.95 391.01 96.81 391.28 95.44 390.89 95.06 388.57 95.42 387.41 96.48 387.4 97.59 385.94 97.85 384.09 98.6 382.5 99.8 382.41 101.28 383.97 101.25 381.67 102.73 380.87 102.05 379.46 103.2 378.88 105.07 378.88 106.74 379.44 108.61 379.83 108.96 381.33 111.64 382.84 112.42 382.64 113.17 383.28 114.91 385.1 115.5 386.5 113.5 387.48 113.15 388.94 113.83 389.37 115.21 388.74 115.94 389.09 116.86 387.51 117.38 387.18 118.18 384.65 117.94 383.98 120.03 383.41 121.06 384.27 121.9 384.33 122.79 381.65 126.42 382.1 127.57 381.83 129.02 380.52 131.71 380.07 134.53 381.02 135.81 380.78 137.12 381.53 138.04 386.72 146 386.89 147.01 384.82 160.28 384.48 161.81 383.89 161.52 382.45 162.89 380.23 162.91 380.56 164.11 378.7 167.2 377.72 169.45 376.8 172.21 374.93 172.18 373.83 172.86 373.07 174.9 374.41 176.12 374.2 176.85 369.63 176.35 368.68 175.69 370.27 174.48 370.09 173.54 368.03 172.69 366.86 172.43 364.97 172.42 364.32 172.01 363.15 172.14 363.58 173.61 363.33 175.74 362.35 175.34 361.07 175.35 360.01 174.97 356.11 174.18 355.02 173.74 351.87 173.14 350.38 173.47 349.68 174.03 348.05 174.17 344.79 173.6 342.87 173.56 341.11 173.09 337.62 171.33 337.06 170.51 336.95 168.1 337.11 167.3 338.04 167.03 338.55 164.82 340.68 163.41 341.54 163.65 343.64 165.2 344.59 165.02 345.01 164.06 344.89 163.01 343.53 162.55 343.33 161.53 342.54 159.8 341.67 159.13 339.34 159.77 339.21 161.27 338.45 162.44 336.03 163.92 334.97 164.97 333.42 165.17 332.28 163.91 331.84 162.26 332.45 160.39 333.45 160.48 334.9 159.95 335.28 158.72 332.99 157.04 333.46 155.64 333.43 154.62 334.5 155.07 335.67 154.17 337.08 152.46 337.06 150.53 336.74 149.67 335.55 148.07 334.78 146.06 334.33 143.5 333.7 142.52 332.79 142.01 332.01 140.43 331.93 138.82 331.2 137.91 330.16 138.15 329.95 137.09 328.47 137.44 325.76 135.98 Z" fill-rule="evenodd" id="38050330"/>
<path d="M 423.16 672.8 425.04 673.19 427.03 674.07 427.7 674.96 427.94 677.12 426.72 679.45 424.73 679.65 423.43 681.12 421.91 681.66 421.97 682.21 420.23 682.54 420.16 683.2 421.94 683.78 421.31 685.29 419.75 685.45 418.89 687.29 417.41 688.4 416.43 688.33 414.55 689.38 412.08 690 410.4 689.48 410.41 688.54 409.61 687.78 410.69 686.52 408.57 685.99 409.31 685.19 411.93 684.67 412.59 683.2 414.94 682.1 414.86 681.39 415.42 680.21 415.03 679.24 415.95 678.84 416.45 677.88 417.41 677.7 419.32 675.58 419.41 674.93 420.83 674.3 421.59 673.08 423.16 672.8 Z M 82.51 663.07 82.79 663.87 81.69 664.19 80.85 663.56 81.97 662.78 82.51 663.07 Z M 287.72 659.97 290.02 660.08 289.69 661.54 288.23 661.12 287.72 659.97 Z M 292.91 651.4 294.51 651.75 294.14 653.39 295.01 655.03 295.7 655.26 295.84 657.22 295.52 658.21 296.13 658.99 295.63 659.56 294.4 659.8 292.46 659.68 292.77 658.74 291.25 658.57 291.03 659.14 288.98 658.83 290.01 656.76 289.74 655.71 290.43 655.03 291.33 655.15 291.15 653.7 291.73 652.15 291.72 650.9 292.91 651.4 Z M 296.09 644.97 296.5 645.86 295.23 646.16 294.19 647.4 293.36 647.84 292.78 646.03 293.72 645.92 293.13 644.86 294.59 643.92 295.32 643.95 296.09 644.97 Z M 297.16 642.3 297.32 643.01 295.75 644.02 294.98 643.29 296.27 642.42 297.16 642.3 Z M 297.01 639.01 297.74 639.77 296.4 640.13 296.23 639.05 297.01 639.01 Z M 85.92 638.96 87.91 639.19 89.37 640.12 88.68 641.17 89.76 641.76 90.06 642.4 89.95 644.12 90.81 644.63 88.75 645.97 88.13 647.33 88.02 648.8 88.21 650.57 88.61 651.25 87.75 651.88 88.44 652.48 88.77 653.89 88.13 654.54 86.68 654.62 85.6 654.35 84.23 655.65 83.29 656.13 83.6 657.55 83.1 658.44 82.19 658.61 82.14 660.45 80.82 661.25 79.03 661.5 76.94 662.41 75.9 661.18 74.72 661.69 73.32 661.03 74.54 659.83 73.94 659.3 74.36 658.39 76.06 657.7 76.24 656.35 77.3 655.71 79.14 656.17 81.25 656.05 82.14 655.01 82.24 653.36 83.08 652.74 83.17 651.81 82.73 650.87 83.84 649.31 83.04 647.92 83.26 646.93 84.39 645.07 83.73 644.56 83.56 643.61 82.09 642.87 81.06 640.09 81.42 639.25 82.85 639.02 84.71 639.33 85.92 638.96 Z M 297.92 631.36 297.23 633.65 298.71 634.68 297.1 637.39 295.46 637.02 295.88 636.28 295.46 633.9 295.56 631.59 297.92 631.36 Z M 254.61 557.19 255.96 557.56 256.5 558.48 260 558.49 261.2 558.89 261.21 560.08 263.48 561.43 264.48 561.45 266.09 562.12 264.56 562.66 264.4 561.97 262.25 563.08 257.53 563.18 256.71 562.5 255.21 562.57 253.82 561.82 253.4 560.95 253.17 559.19 251.98 558.35 253.08 556.88 254.61 557.19 Z M 236.02 554.17 237.88 554.9 239.02 554.85 240.12 555.61 239.14 556.89 240.05 558.96 241.72 560.33 241.89 561.49 241.48 561.91 242.57 563.71 241.87 564.6 243.04 565.98 243.45 568.29 244.21 569.17 243.12 570.19 240.63 569.3 239.67 568.45 239.87 567.69 237.87 566.9 236.43 566.11 236.63 565.07 235.81 564.06 234.11 564.57 233.75 565.34 231.78 566.56 230.88 565.65 231.56 563.58 230.96 563.4 230.4 561.2 232.49 558.52 233.67 557.37 234.42 557.2 234.05 554.39 234.94 554.68 236.02 554.17 Z M 253.19 550.49 253.1 551.39 252.06 551.08 251.68 550.42 252.46 549.55 253.19 550.49 Z M 146.28 512.47 147.08 513.52 147.94 513.96 148.58 515.19 149.46 515.84 151.29 515.84 152.44 515.33 153.65 515.83 156.34 514.89 156.9 513.56 158.19 513.06 159.71 513.27 160.44 513.71 162.74 513.79 164.61 514.14 166.67 515.53 168.29 516.9 169.67 517.5 171.06 519.2 173.1 520.75 174.78 522.45 177 524.05 178.43 524.4 180.2 524.02 181.01 524.73 183.27 524.25 183.79 524.66 185.77 523.42 186.13 522.14 187.59 524.49 188.64 525.81 191.92 527.6 194.64 531 196.49 531.73 197.91 532.05 200.51 533.2 200.14 533.61 200.3 535.11 198.55 535.73 197.26 537.63 197.51 540.27 195.89 540.97 193.76 539.77 192.64 540.23 192.72 541.06 192.01 541.69 190.22 541.56 188.07 539.38 186.73 540.95 188.06 545.02 189.86 546.07 191.79 546.55 192.32 547.27 194.2 548.75 195.62 547.36 197.09 548.03 196.15 551.02 197.48 552.44 197.2 553.5 199.27 554.67 199.28 555.85 200.71 555.86 201.09 553.52 202.45 552.72 203.49 551.28 204.71 550.79 204.42 548.61 202.66 547.43 203.14 546.28 204.02 545.82 204.19 544.74 205.12 543.42 204.43 542.53 204.77 541.59 205.97 540.62 205.7 539.98 207.1 539.03 208.25 539.56 209.55 539.23 210.84 537.61 210.22 535.84 212.01 534.02 213.72 533.12 215.09 532.93 217.93 530.9 219.58 530.36 221.47 530.97 223.5 531.24 224.42 531.67 225.77 531.16 226.99 531.4 227.44 531.89 228.64 531.33 229 531.74 230.94 531.93 230.71 534.21 230.13 535.34 229.22 535.22 225.63 536.75 225.34 537.89 223.87 539.08 223.95 540.52 226.44 541.44 227.04 542.11 227.07 543.79 227.71 544.88 226.04 545.2 225.04 543.73 224.08 543.88 223.31 545.34 224.44 545.98 224.61 546.76 223.39 548.3 221.77 549.14 220.86 547.78 219.83 546.93 218.73 547.05 218.57 548.05 217.7 548.18 217.07 549.75 217.29 551.17 216.49 552.27 214.68 553.63 215.49 554.67 214.88 556.93 216.88 557.31 217.33 558.17 216.98 559.6 217.31 560.56 218.34 561.36 217.94 561.92 219.02 562.52 218.34 563.27 215.93 562.5 215.64 560.5 214.52 560.24 213.92 560.84 212.43 560.74 210.35 561.27 208.95 561.04 208.61 561.69 207.11 562.38 205.34 562.69 204.93 562.42 203.73 563.71 201.73 564.48 200.97 564.03 200.44 562.74 198.47 562.24 197.68 561.62 196.93 562.03 195.94 561.55 195.53 559.03 196 557.27 195.61 556.43 194.71 555.77 192.54 555.87 191.27 555.57 189.94 554.58 190.08 553.48 189.43 553.29 187.68 551.98 185.89 551.52 184.19 551.98 183.98 552.74 183.04 553.1 182.16 556.06 180.36 557.1 179.6 558.97 179.65 559.96 178.94 560.65 178.67 561.95 177.21 562.43 175.23 562.07 173.9 562.22 173.44 562.81 172.37 562.26 171.92 562.92 168.78 563.4 167.77 564.88 164.78 565.26 162.86 565.01 161.82 565.66 160 565.36 159.48 566.45 160.19 567.64 160.01 569.21 160.73 569.38 161.3 570.82 162.06 571.42 161.44 572.23 161.88 572.89 160.91 574.98 160.07 575.69 159.29 575.7 158.55 577.21 155.56 577.32 154.02 578.08 152.36 577.73 150.25 576.67 149.55 577 146.58 575.34 145.51 573.87 146.25 572.98 144.34 572.92 144.65 571.87 145.44 571.39 143.57 570.23 142.98 568.79 145.15 569.05 147.02 567.91 148.09 567.66 150.29 568.33 154.19 566.9 154.77 566.42 157.16 565.63 158.06 564.09 157.76 562.58 158.21 560.21 157.87 558.12 154.97 556.1 154.35 556.37 152.25 554.88 151.88 553.64 151.08 553.41 150.91 551.41 149.14 550.94 147.99 551.36 147.69 550.25 148.46 547.92 149.32 547.32 149.19 545.24 150.54 543.22 150.29 542.3 151.13 541.27 150.54 539.95 148.87 539.3 147.38 541.33 146.27 542.42 144.37 542.99 141.07 545.53 140.2 546.61 138.66 546.55 136.87 545.57 135.06 543.92 134.85 542.33 134.24 541.6 133.46 538.65 133.29 535.71 134.1 535.87 135.55 534.85 137.9 533.59 139.27 533.53 141.62 532.98 143.04 532.99 143.85 533.45 146.21 533.98 146.01 532.54 146.81 531.88 147.67 531.9 148.16 530.62 147.48 529.72 147.74 528.26 147.58 526.29 144.47 524.48 142.51 524.08 140.52 521.42 139.09 520.72 137.94 518.92 139.87 518.08 140.99 518.29 143.99 518.3 144.5 517.59 144.26 516.69 144.51 515.47 144.17 514.99 145.56 513.86 146.28 512.47 Z M 298.46 514.54 298.99 514.12 298.12 512.61 299.31 511.4 300.81 512.05 301.1 512.91 302.63 513.82 304.38 513.7 304.67 514.96 305.38 515.8 307.58 517.75 308.94 518.25 310.51 519.27 312.11 518.37 312.36 517.29 313.35 517.08 314.66 519.29 314.99 520.32 317.32 519.91 319.41 520.48 320.36 521.32 319.21 522.74 319.71 523.99 319.51 525.51 320.47 527.75 322.67 527.53 323.69 528.33 324.46 529.97 325.24 530.91 327.39 530.52 328.13 529.34 327.48 527.87 327.88 526.05 329.51 524.94 329.71 524.12 330.84 523.55 330.62 522.64 331.43 521.91 333.83 522.52 334.56 524.02 335.35 525 335.97 526.91 336.52 527.15 337.27 529.09 336.76 529.68 334.11 528.9 333.74 529.83 332.5 530.81 330.84 531.49 329.35 531.03 328.92 532.08 329.97 532.3 330.55 533.16 329.95 533.76 330.81 534.64 330.32 535.93 332.31 537.83 331.9 538.43 330.88 537.83 330.52 536.98 328.41 536.05 328.17 534.65 327.17 534.01 324.57 532.97 324.45 532.22 323.06 532.57 321.33 532.66 318.28 530.91 317.94 530.12 316.95 529.48 315.72 529.27 314.66 528.47 314.66 527.14 312.68 525.47 311.34 525.78 310.52 525.22 309.37 525.81 308.44 527.02 308.85 527.57 306.66 528.63 306.58 530.84 305.15 531.03 305.34 532.02 302.81 531.13 301.28 531.04 300.11 531.35 299.07 530.91 297.72 531.38 297.32 530.88 296.03 530.98 294.92 529.24 295.18 528.19 292.94 528.23 291.66 527.63 291.39 528.4 290.41 528.14 290.28 526.34 291.35 525.73 291.03 524.81 287.88 521.5 288.42 520.96 288.99 518.43 288.63 517.69 289.04 515.97 290.41 515.19 292.48 515.58 296.12 515.28 297.37 516.44 298.66 515.88 299.15 514.91 298.46 514.54 Z M 299.97 509.49 298.89 509.56 297.92 509 297.83 507.91 298.95 507.29 300.75 508.25 299.97 509.49 Z M 178.31 498.94 178.91 499.45 179.71 498.93 180.71 499.55 180.9 500.71 179.1 501.15 178.73 499.68 177.11 499.84 177.51 498.89 178.31 498.94 Z M 283.53 495.13 285.01 496.14 286.82 495.44 288.02 496.03 288.76 495.62 290.15 496.15 292.5 495.96 293.56 496.48 295.22 498.13 295.22 499.31 296.28 500.33 296.14 500.95 297.13 501.89 296.83 502.32 297.6 503.8 298.59 503.95 299.54 505.13 298.09 506.87 296.8 506.43 294.07 506.33 291.96 504.85 289.4 506.25 289.59 504.76 290.18 503.94 288.36 503.26 287.06 502.52 285.95 502.92 284.78 502.16 284.79 501.64 283.86 500.29 284.85 499.31 282.92 496.77 282.8 495.24 283.53 495.13 Z M 251.37 494.65 251.65 495 251.25 498.04 251.8 499.29 252.44 501.75 250.98 501.67 249.96 500.39 251.16 498.88 250.71 497.41 249.99 496.36 250.06 495.65 250.85 494.63 251.37 494.65 Z M 283.23 493.26 283.1 494.35 282.28 494.2 282.37 493.27 283.23 493.26 Z M 168.81 488.25 171.09 488.33 172.21 488.04 173.07 489.29 174.29 489.43 174.71 490.5 175.89 490.86 175.74 491.86 174.53 491.96 173.74 492.86 171.14 493.49 170.54 495.12 172 497.09 171.75 497.7 168.48 497.2 166.85 496.67 164.74 496.59 164.05 496.16 160.77 496.18 160.08 494.88 158.62 493.73 159.01 493.19 157.79 491.04 158.78 489.88 159.52 491.08 161.18 489.94 162.72 490.21 162.6 491.14 163.24 491.8 165.3 492 167.05 490.56 168.78 488.6 168.81 488.25 Z M 188.02 486.12 187.84 487.9 188.55 488.47 188.6 489.55 189.87 490.78 190.92 491.32 190 492.82 188.99 493 188.69 492.25 187.65 491.81 187.29 491.05 184.99 491.86 183.78 490.84 184.23 490 186.48 489.4 186.55 488.38 185.96 487.91 185.86 486.85 187.29 486.72 188.02 486.12 Z M 235.18 483.25 236.55 484.04 237.76 483.96 238.79 486.67 239.91 487.93 239.52 489.22 238.31 489.36 238.24 490.33 235.48 490.24 233.51 488.48 234.49 488.03 236.06 486.4 235.82 485.34 234.61 483.88 235.18 483.25 Z M 239.83 480.71 239.31 481.03 238.66 479.51 240.37 479.82 239.83 480.71 Z M 136.32 479.69 137.75 479.98 137.17 480.73 136.32 479.69 Z M 133.87 479.13 136.06 479.62 135 480.7 134.15 480.16 133.87 479.13 Z M 178.75 477.18 178.53 479.41 177.63 480.05 176.65 479.85 176.19 478.61 178.16 477.13 178.75 477.18 Z M 204.16 476.73 204.17 478.37 203.22 479.47 203.24 480.42 201.49 479.6 201.65 478.63 203 477.81 202.87 476.96 204.16 476.73 Z M 129.13 474.7 129.2 475.85 129.84 476.83 130.99 477.44 131.97 477.52 132.53 478.76 130.38 480.27 129.97 480.21 127.87 477.06 127.98 474.97 129.13 474.7 Z M 127.85 469.17 129.84 469.66 130.5 470.44 130.62 471.89 129.44 472.38 128.08 473.56 127.07 473.66 125.9 473.03 126.29 472.42 125.29 470.62 125.96 469.41 127.85 469.17 Z M 170.31 467.92 170.23 469.48 168.79 470.08 168.66 471.21 169.29 473.49 171.71 477.72 172.56 478.37 174.04 478.5 174.06 477.78 175.27 477.74 174.79 478.73 173.65 479.18 173.64 480.88 172.96 483.64 171.82 484.15 170.1 484.47 165.08 485.69 164.1 486.4 162.88 486.09 161.09 486.07 160.11 487.21 160 487.98 159.18 488.79 158.39 488.35 159.01 487.58 157.3 486.18 157.27 483.25 155.01 483.56 150.5 482.9 149.2 483.56 145.23 484.3 143.99 485.14 143.68 484.79 144.19 483.27 144.2 482.04 142.73 482.57 141.8 482.08 140.94 482.31 139.83 481.86 139.77 481.26 142.71 479.9 143.9 480.05 144.6 477.79 144.71 476.28 143.65 476.2 143.91 475.21 144.76 475.49 144.8 473.51 145.32 473.34 146.67 474.56 147.47 474.67 147.36 475.71 148.14 476.41 148.94 476.42 149.73 475.28 151.92 473.87 152.94 474.08 154.44 473.86 154.93 474.46 156.44 474.16 157.23 472.5 157.9 472.26 158.38 471.31 159.1 471.21 161.22 472.14 162.03 473.52 162.88 473.77 165.2 473.06 166.24 471.82 166.49 470.19 167.42 468.52 168.85 468.39 170.31 467.92 Z M 182.73 465.15 184.12 465.6 183.94 466.6 184.44 468.4 188.93 470.92 186.2 471.62 186.14 470.88 183.92 469.66 183.35 468.7 182.09 467.71 181.08 468.33 179.11 467.42 179.91 466.76 180.57 467.32 181.33 466.7 181.77 465.37 182.73 465.15 Z M 212.18 451.08 211.84 451.51 212.98 452.58 214 453.07 213.37 453.87 213.56 454.69 214.57 455.37 215.29 455.35 216.78 456.35 214.77 457.28 211.16 456.93 210.76 455.81 209.34 455.87 207.28 456.8 206.54 457.55 204.27 457.44 205.09 455.41 206.24 455.46 209.32 454.58 210.15 452.85 211.27 452.1 211.19 451.45 212.18 451.08 Z M 69.27 421.12 70.79 421.33 71.9 422.04 72.74 422.15 73.36 422.92 74.8 423.24 78.13 424.95 81.46 424.15 82.4 423.2 83.7 422.88 84.85 423.1 85.14 422.59 87.37 422.15 91.2 423.32 93.6 424.91 94.38 426.32 96.21 428.1 98.55 428.43 100.41 430.4 100.37 431.5 101.3 431.98 101.1 432.94 102.6 433.96 103.26 435.26 102.73 435.83 103.29 436.98 101.57 438.92 101.02 441.26 101.73 443.29 103.84 444.8 104.12 446.91 103.61 447.62 104.49 449.05 104.22 450.29 104.47 451.14 104.22 452.79 103.57 452.94 101.26 452.61 101.29 454.5 99.06 456.32 97.94 456.58 98.13 457.28 97.4 457.89 96.88 459.53 94.18 460.32 93.78 458.87 94.86 458.33 96.72 455.92 97.45 454.66 97.24 453.57 96.5 452.37 93.63 451.12 92.4 451.12 88.8 452.29 86.88 452.27 85.16 453.22 82.17 452.97 80.2 453.74 77.61 451.7 77.15 450.62 76.05 450.57 74.92 449.16 70.81 447.69 69.75 445.68 68.15 444.9 67.58 445.6 66.64 445.61 65.7 444.98 65.24 442.96 65.52 441.72 64.56 441.4 64.27 440.73 63.11 439.74 61.82 439.23 60.18 437.28 58.92 433.14 59.14 430.98 59.8 428.72 61.1 428.7 65.29 425.36 66.82 424.46 68.01 422.89 68.75 421.13 69.27 421.12 Z" fill-rule="evenodd" id="38050340"/>
<path d="M 794.38 680.89 794.93 681.9 796.27 681.84 798.01 682.96 799 684.51 798.25 685.42 796.5 686.27 797.01 686.72 796.7 687.72 795.58 688.11 795.76 686.95 795.11 686.05 795.33 684.15 794.57 684.16 793.23 682.04 794.38 680.89 Z M 556.5 621.55 557.25 621.79 556.26 622.98 554.93 621.95 556.5 621.55 Z M 562.25 541.23 562.96 541.29 564.45 544.36 563.47 545.16 562.18 546.87 562.38 547.54 561.04 548.75 560.56 549.67 561.02 551.32 559.6 552.67 559.53 553.24 556.86 554.67 555.63 554.97 555.24 555.63 556.62 557.23 556.47 557.89 555.24 558.17 556.38 559.38 556.99 559.55 557.21 560.96 555.08 561.13 554.5 560.06 553.49 560.23 551.77 559.93 551.47 558.44 551.92 556.94 553.05 556.38 555.39 554.67 555.33 553.98 553.04 553.26 552.48 552.78 553.31 551.37 552.23 550.14 551.46 550.12 551.35 548.56 550.33 547.27 550.16 546.22 550.95 544.25 551.67 543.97 553.78 543.81 554.19 542.78 557.1 542.32 557.8 541.72 560.34 541.98 562.25 541.23 Z M 447.67 521.44 450.3 522.53 451.12 523.85 450.18 525.18 452.41 525.55 453.15 524.67 454.24 524.22 456.24 524.3 455.88 525.14 454.94 525.08 454.16 525.93 450.4 527.04 449.78 528.11 450.46 528.98 450.24 529.84 448.8 529.81 448.39 528.76 448.87 527.53 447.92 526.46 447.3 524.73 447.4 524.05 446.13 523.07 446.6 521.52 447.67 521.44 Z M 592.27 509.54 594.21 509.8 593.74 511.02 594.27 511.95 593.45 512.73 593.85 514.67 592.35 515.89 592.21 516.95 593.34 517.8 595.22 517.06 597.03 517.59 598.09 516.74 598.76 517.85 599.99 517.94 601.57 519.34 602.09 520.55 599.79 521.56 600.38 522.76 600.28 523.52 600.98 524.11 602.52 524.27 602.43 526.2 600.02 524.4 599.17 524.4 597.83 525.34 596.28 525.26 594.89 526.23 591.65 527.56 591.4 528.36 592.09 529.52 590.99 532.02 588.37 533.82 587.4 534.71 587.68 535.34 586.18 535.55 586.13 536.35 585.01 536.38 584.32 536.89 581.78 535.98 581.52 536.56 580.45 536.53 578.8 537.56 577.43 537.74 576.32 538.26 574.93 537.72 574.26 536.56 572.93 535.98 572.27 535.11 571.19 535.19 569.95 534.52 569.53 534.88 566.79 534.77 567.06 534.1 569.26 533.82 572.13 532.62 573.19 531.51 573.87 531.65 576.17 529.14 578.16 528.2 578.73 527.48 580.45 526.63 582.7 524.95 583 523.99 584.34 522.91 584.85 518.9 585.58 517.55 586.68 516.8 587.17 515.55 588.87 513.93 588.42 512.26 589.22 510.33 590.56 509.71 592.27 509.54 Z M 587.81 496.98 588.16 497.31 589.75 497.03 591.03 497.67 591.75 496.73 592.88 497.6 592.66 498.65 591.18 500.11 588.92 504.31 587.89 504.5 587.45 505.48 585.38 504.61 584.94 503.33 585.64 501.31 585.37 500.85 585.88 499.29 586.66 498.85 586.3 497.33 587.81 496.98 Z M 592.33 450.21 592.67 450.34 593.22 452.41 594.42 453.74 596.48 455.58 597.33 455.9 596.91 457.06 597.47 458.74 597.29 459.78 599.59 461.52 598.97 462.16 597.91 461.99 597.27 461.36 596.25 461.71 595.17 461.38 594.14 462.4 591.24 461.94 588.19 460.54 587.44 460.59 586.95 459.34 586.87 457.98 588.36 455.85 588.3 454.16 590.63 450.71 592.33 450.21 Z M 551.42 430.89 553.16 431.64 553.61 433.71 552.51 434.91 552.52 435.71 554.34 436.78 554.53 437.24 553.27 438.54 552.42 438.06 550.57 437.62 550.75 436.73 547.59 436.8 546.32 435.71 545.2 433.8 544.52 433.15 544.35 432.26 545.83 431.2 547.12 431.92 548.38 431.05 551.42 430.89 Z M 565.67 424.13 566.68 426.66 565.27 427.82 564.03 427.61 562.69 426.4 561.62 426.06 563.25 424.14 564.86 423.91 565.67 424.13 Z M 560.48 403.99 561.53 404.87 562.67 404.9 564.53 405.74 566.68 407.31 567.16 407.91 567.32 409.94 568.26 410.3 568.39 411.1 569.77 413.12 569.84 414.14 570.83 415.6 571.93 416.43 572.47 417.73 574.51 419.3 574.69 420.55 572.91 421.33 571.07 421.41 570.27 421.06 569.37 421.63 567.82 420.26 567.85 419.09 567.22 418.1 566.29 417.93 566.66 416.44 566.09 415.25 566.04 413.64 565.39 411.99 563.67 409.76 562 408.77 560.82 407.06 560.32 407.27 558.76 406.05 558.23 405.27 558.71 404.03 560.48 403.99 Z M 429.62 398.52 430.27 399.69 429.43 401.37 428.7 402.11 428.21 399.29 429.05 398.43 429.62 398.52 Z M 527.85 378.67 528.54 379.15 530.34 379.4 531.89 378.92 532.21 379.36 533.56 379.35 534.52 379.96 536.13 380.37 536.77 381.43 537.73 382.1 537.64 383.31 537.11 383.55 536.21 385.44 535.62 387.23 533.98 387.08 533.33 387.94 531.09 388.6 530.87 389.3 529.21 390.26 528.05 390.47 527.01 389.56 525.77 388.98 523.92 389.14 521.6 388.04 520.31 387.01 519.73 387.87 518.17 388.33 518.97 389.38 518.79 389.97 517.56 390.39 517.43 389.21 516.28 388.74 515.43 387.39 516.34 386.54 518.55 382.5 519.29 381.63 521.97 381.87 524.74 380.91 526.54 379.02 527.85 378.67 Z M 443.2 378.16 445.22 379.56 445.31 380.65 446.32 381.42 446.86 382.7 447.7 383.69 450.33 384.76 451.22 385.93 451.61 387.84 452.32 388.55 452.17 389.41 451.31 389.31 450.28 391.26 450.74 391.81 450.31 393.1 448.51 393.48 447.02 394.79 446.58 396.38 446.91 397.73 444.98 398.06 444 399.14 444.02 400.33 442.94 400.4 442.1 401.06 441.06 400.93 439.75 402.93 438.47 406.14 438.47 407.9 439.93 409.87 441.81 411.78 442.94 412.57 443.45 413.48 445.07 415.32 445.56 415.5 446.37 417.51 446.19 419.02 447.09 420.58 447.95 421.01 446.75 422.82 446.75 423.9 445.37 423.22 444.32 423.88 444.77 425.09 443.41 426.38 441.7 427.12 441.63 428.38 441.07 428.63 439.07 428.39 436.91 428.62 436.08 429.14 434.83 430.56 433.33 430.2 433.61 428.12 430.95 427.41 429.21 427.55 428.73 428.07 426.95 427.94 426.11 426.42 425.32 426.11 425.69 425.23 425.41 424.38 424.58 423.82 424.44 422.17 422.88 421.72 421.6 420.88 421.71 419.54 422.79 419.69 423.4 420.44 424.71 418.32 425.91 417.41 425.44 414.44 425.92 413.37 426.84 412.9 428.54 412.62 431.08 410.98 433.21 410.25 434.83 410.05 436.16 408.15 437.31 407.76 437.8 406.54 437.92 404.6 436.96 401.09 436.16 399.56 435.28 399.18 433.63 397.18 432.69 396.74 432.62 395.02 431.65 394.23 431.79 393.45 430.91 393.18 430.61 391.92 431.82 390.39 431.56 389.2 432.37 387.36 434.16 387.4 434.51 386.77 435.54 386.38 436.43 386.65 437.7 385.82 438.59 385.75 439.42 383.54 439.22 382.36 440.1 379.62 441.49 379.03 442.42 378.15 443.2 378.16 Z M 482.1 355.02 485 357.36 485.92 359.08 487.43 362.94 487.89 364.82 490 368.87 491.4 370.83 492.07 370.69 494.22 372.15 496.17 370.61 497.35 370.72 498.92 372.42 501.63 372.75 502.45 374.14 503.52 374.87 505.27 375.27 506.22 375.93 507.29 375.49 507.9 375.93 507.96 377.15 507.47 378.52 507.62 379.52 506.6 380.1 506.67 380.7 505.26 380.73 504.51 381.43 502.54 382.25 501.62 382.28 501.02 382.96 499.04 381.86 498.38 382.63 497.4 382.18 495.13 383.01 494.41 382.36 493.82 380.6 494.16 379.65 494.05 378.51 493.34 377.75 493.53 376.8 492.29 375.55 492.48 374.03 491.15 373.34 490.4 374.04 488.93 376.56 487.6 378.44 487.93 379.49 487.2 381.02 484.9 383.4 484.68 384.14 483.51 383.49 481.51 383.03 481.14 380.41 480.48 379.66 480.18 378.28 478.66 377.99 477.62 378.26 476.93 379.15 477.42 380.33 476.55 381.4 475.35 382.2 474.3 382.06 473.7 380.02 472.57 378 472.28 376.72 470.07 376.34 468.66 377.05 467.72 378.06 468.72 378.68 467.42 379.52 465.37 378.57 467.76 375.91 467.81 374.72 467.22 373.22 465.49 371.65 461.78 371.87 460.48 371.51 459.54 372.14 456.86 370.92 455.12 371.32 453.01 370.96 450.68 371.95 449.84 371.57 446.24 372.68 445.45 370.59 444.82 369.6 445.12 367.79 446.75 367.58 448.09 366.47 451.13 365.35 452.19 364.33 453.11 364.05 454.94 362.69 457.47 361.32 459.07 361.25 460.82 361.97 462.51 361.91 464.02 362.52 464.16 363.04 467.34 362.89 468.87 363.31 470.13 363.25 470.98 362.71 472.13 361.25 473.98 359.71 475.21 357.55 476.13 356.91 477.57 356.59 479.02 355.54 479.67 355.55 481.27 354.77 482.1 355.02 Z M 519.19 329.7 520.97 330.9 522.24 331.37 524.19 332.47 525.3 332.44 527.81 331.3 529.59 330.7 530 331.1 532.55 331.58 531.9 333.08 531.14 333.36 529.88 334.7 527.6 335.14 527.09 336.89 527.01 339.81 527.31 341.68 528.54 342.77 530.29 343.22 531.61 342.91 532.79 343.19 534.53 342.85 535.92 342.96 537.16 344.05 539 344.36 542.06 341.45 543.19 339.41 543.13 338.03 546.05 337.64 547.36 336.77 550.18 336.66 553.61 337.4 555.07 338.11 557.22 338.65 558.45 338.33 559.69 338.76 561.96 338.61 562.76 338.91 564.44 338.56 565.12 339.38 566.32 339.99 566.92 340.73 567.32 342.48 566.96 343.8 567.29 344.43 566.4 345.41 565.18 345.56 563.15 345.08 560.31 345.4 558.76 346.05 558.49 346.81 558.58 349.04 560.83 348.93 561.47 349.71 563.07 350.92 564.4 350.84 567.74 352.55 567.63 353.49 566.65 354.61 564.9 355.3 562.47 355.96 561.29 355.13 558.75 355.83 557.06 356.63 556.49 357.22 555.18 356.63 553.88 356.7 550.81 355.76 550.6 355.24 548.56 354.05 548.15 353.19 546.49 352.87 544.87 351.64 543.56 351.68 541.18 350.89 539.85 349.87 538.59 347.87 535.4 346.51 533.88 346.54 532.05 346.22 531.52 345.64 527.79 345.15 526.87 345.66 525.25 345.78 522.94 347.19 521.15 347.15 519.9 346.3 516.6 344.86 513.48 342.86 511.52 342.45 510.31 341.29 507.11 340.51 505.94 340.57 502.15 341.26 499.88 342.25 498.96 341.19 499.98 340.2 502.12 340.19 503.37 339.81 503.38 336.92 502.59 335.01 500.83 331.6 501.61 330.35 502.53 329.48 505.8 329.11 511.21 329.91 514.14 329.71 516.33 328.88 519.19 329.7 Z M 437.79 313.51 437.84 314.38 438.47 315 437.94 316.37 437.27 316.05 436.83 314.32 437.79 313.51 Z M 440.78 308.54 441.24 308.99 441.04 310.61 439.57 311.2 438.22 312.2 438.17 311.25 437.4 310.43 438.08 308.86 439.46 309.23 440.78 308.54 Z M 484.9 297.76 485.37 298.33 484.88 299.14 482.47 299.76 481.33 299.15 482.17 297.54 483.09 297.17 484.9 297.76 Z M 508.92 278.51 511.39 278.96 512.74 279.59 512.3 282.17 512.84 284.22 513.63 285.19 514.4 285.26 515.16 285.97 515.27 287.14 514.59 288.4 513.01 288.87 511.44 288.09 509.84 288.42 508.44 288 507.27 286.68 505.51 286.81 503.9 286.06 501.85 283.83 501.69 283.28 504.8 282.75 505.2 282.09 504.42 280.46 504.83 279.76 507.17 278.75 508.92 278.51 Z M 494.25 274.16 495.93 273.88 497.89 274.12 498.61 274.71 499.81 274.49 501.55 275.31 501.35 276.35 499.58 276.45 499.06 276.05 497.84 276.46 497.31 277.78 496.73 280.17 496.39 280.76 495.83 283.46 495.79 285.95 495.06 287.52 494.35 288.26 494.42 289.78 493.81 290.81 493.42 293.01 493.54 293.92 494.31 295.4 494.03 296.73 493.09 296.69 491.27 295.68 490.48 294.79 489.98 293.57 489.92 292.35 489.21 291.15 489.92 290.3 489.54 289.51 488.64 289.2 488.22 288 486.98 288.04 486.35 289.43 486.64 291.31 486.03 292.42 484.99 292.15 484.09 291.23 482.98 290.98 482.2 290.09 481.35 290.13 481.44 288.98 480.78 287.11 481.19 285.33 482.58 284.94 482.63 284 483.47 284.03 484.64 285.09 485.09 284.6 487.4 284.18 486.95 282.78 485.65 282.21 485.07 281.42 485.71 279.91 484.99 278.63 485.81 274.68 485.49 273.6 486.37 272.28 487.45 272.08 488.02 271.47 488.3 270.01 489.47 271.19 489.51 272.05 490.52 273.55 494.25 274.16 Z M 431.99 257.9 432.47 259.56 431.65 261.17 431.66 261.75 430.44 262.25 429.72 260.55 430.4 258.91 431.35 258.62 431.99 257.9 Z M 482.31 255.9 483.84 256.4 485.33 257.24 486.44 258.52 486.52 259.35 485.21 259.19 483.05 258.47 482.27 259.01 482.03 261.51 481.66 262.18 479.85 262.14 479.24 261.51 479.71 258.92 479.33 258.34 477.31 258.43 475.54 257.61 475.73 256.44 476.54 256.73 478.48 256.73 480.99 255.92 482.31 255.9 Z M 434.87 253.73 435.56 254.9 435.25 255.79 433.97 257.44 433.63 258.67 432.4 258.09 432.98 256.45 432.8 254.98 433.58 254.29 434.07 253.22 434.87 253.73 Z M 466.79 248.72 467.39 249.44 466.01 250.69 466.34 252.03 465.37 252.69 464.54 252.34 462.36 252.62 460.99 253.13 459.82 254.2 458.74 255.71 459.16 257.04 459.16 258.25 459.88 260.11 460.93 261.51 460.75 263.1 461.41 264.19 462.66 264.41 464.8 263.75 465.89 262.36 466.31 260.01 465.81 258.47 466.65 257.91 467.71 259.75 468.48 259.94 469.16 258.81 469.69 258.83 471.46 257.55 472.08 257.83 471.01 259.31 470.93 260.64 469.74 261.93 468.83 262.28 467.96 263.95 467.94 265.74 468.42 266.84 469.82 267.17 470.45 267.88 471.1 270.15 474.5 271.99 476.28 273.75 477.38 277.34 476.97 278.57 475.64 278.61 475.19 280.75 475.04 283.25 474.32 283.76 475.41 285.61 476.19 286.32 476.36 288.28 477.1 289.51 476.89 291.61 478.72 293.2 478.89 293.75 477.99 294.64 477.63 295.88 478.27 297.96 478.84 298.51 479.87 298.63 479.97 300.44 480.3 301.52 479.21 303.39 479.99 304.85 482.12 305.27 484.62 304.69 486 305.42 486.46 304.74 488.23 303.5 488.31 302.98 490.38 302.3 491.42 303.11 493.32 301.92 494.11 301.72 496.64 302.1 495.35 303.97 494.37 303.96 493.74 304.6 493.64 305.56 494.53 306.65 497.74 307.55 498.32 308.63 498.98 308.96 500.39 308.77 502.19 309.46 502.5 310.56 501.7 311.64 501.23 313.44 500.48 314.35 500.47 315.96 501.73 318.6 501.92 320.5 501.76 323.58 501.32 323.92 500.09 326.3 499.45 328.81 498.53 329.14 496.59 329.06 495.34 328.7 492.09 329.55 491.02 331.11 489.48 332.17 487.78 334.25 485.69 335.72 483.96 336.63 482.16 338.4 480.04 340.76 477.43 342.52 476.75 343.5 473.14 344.05 471.81 343.94 470.17 343.29 468.5 342.96 467.75 342.38 467.87 341.52 465.62 338.62 464.14 337.6 462.07 337.43 462.09 336.74 460.77 336.3 459.15 337.17 457.14 340.23 457.27 340.82 455.85 341.43 454.58 339.53 452.78 338.48 451.73 338.37 448.06 338.77 447.63 338.04 449.41 335.93 450.9 336 451.46 335.09 451.56 332.9 451.09 330.6 448.67 328.46 446.94 328.66 446.32 326.95 447.58 327.51 448.29 327.28 449.77 327.78 451.3 327.57 452.05 326.43 452.86 326.13 453.81 324.12 454.19 321.29 454.14 320.43 453.47 319.38 452.41 319.03 452.17 318.29 453.03 317.64 453.61 316.5 453.46 315.03 451.89 314.29 451.67 313.52 450.04 311.99 450.25 311.03 449.29 309.75 449.22 307.15 448.08 305.59 448 304.17 447.4 303.44 445.85 304.82 444.99 306.21 442.48 306.02 442.25 304.35 440.99 302.95 440.95 302.37 438.71 300.78 437.86 299.28 436.95 299.25 436.47 297.24 437.19 296.32 437.84 296.34 439.24 295.03 439.45 293.5 440.3 290.64 439.3 287.96 438.2 287.09 439.04 285.15 439.3 283.32 440.58 283.31 441.62 281.06 440.27 279.87 439.97 277.87 439.24 277.65 439.57 276.61 438.66 276.32 438.47 275.3 439.67 275.15 439.55 273.5 438.88 271.83 438.45 271.57 438.91 270.03 437.58 269.43 437.89 268.41 438.83 268.57 439.94 269.6 442.35 273.08 443.86 273.67 445.63 274.7 446.59 275.6 445.28 278.46 445.45 280.6 443.84 282.84 444.19 285.02 443.65 285.78 443.28 288.08 443.51 289.91 443.48 292.14 443.09 294.56 443.64 296.06 444.41 296.77 445.26 296.61 446.53 294.68 446.19 293.63 447.46 292.29 446.5 289 447.66 287.12 447.63 285.22 448.86 285.11 449.28 285.64 449.26 287.17 450.27 287.62 450.91 286.82 450.6 285.93 451.69 285.01 452.47 285.91 452.81 286.92 453.65 287.29 455.53 285.4 455 284.19 453.79 283.21 453.52 281.43 454.42 280.52 455.35 280.26 454.74 278.99 453.46 278.89 452.91 278.27 454.1 276.37 453.13 274.02 452.74 272.28 456.05 270.33 457.24 270.54 458.74 271.61 459.3 272.39 460.67 273.32 461.56 275.71 463.03 275.72 464.51 277.28 464.79 279.43 467.33 280.47 468.15 279.6 467.38 277.98 467.02 276.37 466.41 275.32 464.31 272.92 463.56 272.34 462.94 270.9 462.02 270.77 460.7 269.43 459.78 267.75 456.51 267.83 455.15 268.64 454.56 268.58 452.96 269.31 450.17 269.52 448.47 270.62 447.64 270.08 447.38 268.84 446.59 268.37 446.11 266.71 445.68 261.25 443.86 258.96 443.77 258.25 442.87 256.53 444.82 256.69 446.42 255.2 445.93 254.32 446.18 253.01 445.82 251.45 446.32 250.18 448 249.05 448.46 249.51 449.93 249.67 451.13 250.53 453.09 250.46 456.54 252.03 457.51 251.85 459.52 252.55 461.38 251.5 462.79 251.35 463.62 250.17 465.29 249.95 466.79 248.72 Z" fill-rule="evenodd" id="38050350"/>
<path d="M 163.01 287.69 166.22 288.36 166.59 289.21 165.12 289.99 163.9 290.13 162.55 288.44 163.01 287.69 Z M 172.1 272.8 173.48 275.92 173.42 277.34 173.95 277.9 173.62 280.12 172.6 279.87 172.72 277.86 171.47 276.91 171.76 276.02 171.18 275.29 171.15 273.68 172.1 272.8 Z M 69 247.73 70.72 248.56 71.46 250.18 69.65 252.59 68.73 251.99 68.58 250.94 67.18 251.68 67.21 250.52 64.7 250.32 65.43 249.55 66.79 249.74 69 247.73 Z M 9.93 226.08 11.84 226.24 12.81 227.69 14.14 228.07 14.64 229.01 16.17 229.08 17.98 229.92 18.4 228.8 19.61 228.74 20.85 229.84 21.54 229.93 22.38 230.82 23.9 231.57 22.73 232.6 22.5 233.95 23.46 233.94 24.66 233.27 25.8 235.5 25.41 237.24 23.02 237.3 23.37 237.9 22.47 239.32 21.67 239.76 21.12 240.69 22.26 241.66 23.72 242.41 23.18 243.42 21.79 244.31 20.21 244.2 18.44 244.84 18.54 243.58 17.81 243.32 16.8 243.72 16.81 244.76 15.48 245.77 13.66 245.55 12.57 244.76 12.17 243.66 9.58 242.94 8.91 242.3 8.05 242.63 7.33 241.56 6.41 241.46 4.18 238.34 2.67 237 1.72 234.79 1 234.1 1.27 231.08 2.59 228.6 2.97 227.25 6.46 226.83 8 226.3 9.93 226.08 Z M 44.26 223.59 44.48 224.05 46.09 225.2 45.82 225.79 46.47 227.01 45.68 227.62 44.31 227.38 43.58 225.86 44.64 225.56 44.26 223.59 Z M 146.03 216.99 147.44 219.57 147.71 222.28 148.88 223.09 149.66 224.13 151.29 225.21 151.78 227.42 150.85 228.75 149.92 229.1 150.03 230.38 151.26 230.48 152.18 231.02 152.6 232.75 152.66 234.3 154 234.66 154.58 231.73 154.15 230.83 155.03 229.57 155.88 229.18 157.4 230.18 157.98 232.55 157.85 233.37 159.43 234.85 160.35 234.14 161.39 234.77 161.74 237.75 161.1 239.33 161.43 240.48 163.53 242.92 164.81 243.18 166.39 244.26 167.42 244.38 170.15 245.85 170.76 246.43 173.39 248.03 177.34 249.72 178.3 250.47 180.47 251.53 181.15 252.18 182.92 252.12 183.9 252.69 183.42 254.78 184.11 255.72 184.31 257.81 183.18 257.99 182.47 258.55 180.47 258.61 178.7 257.89 177.88 258.72 178.54 260.81 177.83 263.46 178.03 264.79 177.01 266.59 174.61 266 173.4 264.06 172.46 264.06 171.41 264.84 172.43 265.65 172.46 267.03 170.05 268.37 168.75 268.51 167.69 268.11 164.44 267.66 162.72 267.05 161.02 266.89 159.97 266.15 158.01 265.3 158.33 263.93 157.52 262.05 157.38 260.8 155.95 260.72 155.01 262.71 154.97 263.64 153.5 264.11 152.09 263.42 149.99 263.57 148.5 264.02 147.71 265.7 148.88 265.36 148.73 266.7 151.3 267.05 154.42 268.04 154.21 269.54 154.97 270.64 156.21 271.78 156.08 273.35 156.56 275.2 157.54 276.4 157.71 278.5 158.54 280.6 160.76 281.45 158.39 282.46 157.78 283.67 155.49 284.68 154.89 285.4 154.72 286.92 154.93 287.91 153.74 289.25 151.95 289.06 150.49 289.3 149.8 288.98 149.52 287.67 150.34 286.81 150.43 285.19 148.72 283.69 149.07 281.96 148.51 280.5 146.85 279.31 145.95 279.59 144.66 281.06 143.69 281.34 142.69 280.52 140.94 280.56 139.87 280.91 137.94 280.91 136.3 280.26 135.63 281.29 133.41 281.85 133.65 282.9 132.8 282.91 132.33 282.06 133.19 281.64 133.56 279.83 133.07 279.27 131.37 278.94 130.74 279.51 129.01 278.25 128.47 276.75 128.75 275.88 128.56 272.98 129.97 270.72 130.73 269.95 130.38 268.99 129.14 269.09 126.74 268.4 125.56 268.85 124.56 268.55 124.21 269.16 122.23 269.35 121.13 270.43 120.29 270 118.52 270.3 118.05 270.74 116.94 270.44 115.84 270.72 112.53 269.82 111.37 268.7 110.77 268.6 109.29 267.51 111.02 264.54 111.58 264.63 112.42 263.41 114.52 262.25 115.81 262.29 118.75 263.14 119.67 260.54 118.88 260.47 117.28 259.13 117.2 257.92 116.1 257.64 114.39 258.76 112.5 258.43 113.33 256.66 112.89 254.83 111.79 254.57 110.48 255.25 108.03 256.02 106.19 256.19 104.07 255.47 100.67 255.16 99.37 254.44 99.22 253.68 98.24 252.8 98.59 252.22 98.32 250.76 99.7 249.47 101.07 249.3 102.01 248.21 101.97 247.24 101.28 246.3 100.28 245.84 99.08 245.9 98.76 245.05 99.4 242.6 100.6 242.33 101.62 242.77 103.76 245.02 104.28 246.84 108.75 247.7 110.37 247.23 112.42 248 115.84 248.68 116.52 248.56 116.85 246.3 114.97 244.43 112.92 243.47 109.46 239.92 108.57 240.22 107.6 239.11 108.39 238.71 108.3 237.95 109.75 236.46 111.86 234.77 113.13 234.5 115.06 232.8 116.02 231.22 115.81 230.28 116.38 229.13 117.71 227.7 117.79 225.2 119.08 223.76 119.52 222.58 121.61 220.3 122.63 220.87 122.26 222.75 123.53 222.59 125.36 221.46 125.7 220.53 127.88 220.62 129.34 220.93 131.23 222.07 133.52 221.35 134.83 220.69 136.61 220.66 138.99 219.38 139.93 217.81 142.21 217.07 143.42 217.24 145.58 216.24 146.03 216.99 Z M 98.23 187.93 98.6 188.31 100.79 188.01 100.92 188.58 102.41 189.91 104.34 190.58 105.87 190.45 105.38 191.93 106.58 194.13 107.84 194.99 108.85 195.03 109.48 193.92 111.75 194.8 112.1 196.7 110.8 196.8 110.64 198.15 111.88 200.2 113.18 201.02 114.87 201.2 116.73 200.63 117.29 199.86 119.86 199.37 121.68 199.8 121.98 199.23 124.42 199.2 126.73 199.58 128.11 199.34 129.45 200.38 130.84 200.98 133.13 203.51 134.38 204.33 135.42 204.22 136.49 206.3 137.27 206.71 137.58 207.86 138.65 208.55 139.17 209.67 140.25 210.02 140.32 211.34 138.1 212.69 136.97 213.91 136.27 215.12 135.03 215.22 134.32 214.64 130.95 213.75 130.22 212.92 128.49 212.2 125.71 212.03 125.86 215.05 124.19 215.56 122.05 215.87 120.83 214.64 119.34 213.88 117.91 213.57 117.56 214.19 115.35 214.3 114.45 214.62 113.69 214.24 111.58 214.72 107.11 214.71 106.05 215.65 103.87 215.98 103.48 215.58 102 216.18 100.58 218.82 98.38 220.65 98.16 221.96 98.65 222.66 97.73 223.26 97.37 224.77 97.86 225.48 97.12 226.55 97.37 227.3 97.12 228.62 96.55 229.36 97.08 230.78 96.85 231.64 95.21 232.82 93.77 232.65 92.67 232.85 92.35 233.58 93.05 235.01 92.64 236.19 91.56 237.14 89.98 237.43 90.02 238.02 88.59 239.58 87.36 239.85 85.93 240.92 84.75 241 84.36 239.69 82.86 240.16 81.8 239.85 81.44 240.73 80.34 241.28 79.03 240.4 78.66 239.79 77.7 240.37 75.24 239.74 72.23 236.06 71.77 234.25 71.67 232.77 72.78 232.64 72.93 231.58 74.19 231.39 76.67 230.21 77.03 229.37 78.13 228.67 77.12 226.24 77.92 225.77 76.79 224.79 76.48 224.01 74.84 222.69 73.86 222.95 71.63 224.16 70.85 225.8 69.91 225.8 69.29 224.62 69.28 223.39 68.7 221.92 67.16 221.38 64.98 221.36 63.11 222.17 62.83 219.24 61.02 219.24 59.61 219.56 59.09 218.73 58.13 218.28 56.76 216.77 56.06 215.4 55.73 213.74 55.79 211.45 56.17 210.49 57.45 208.65 57.59 207.66 57.1 205.31 56.43 204.94 56.33 201.34 57.19 200.43 58.32 199.87 60.65 197.65 61.85 197.53 64.47 196.79 66.4 196.85 68.28 195.95 69.65 194.87 70.68 194.67 72.04 195.08 72.96 194.89 75.47 194.99 77.86 192.4 79.74 192.58 81.51 191.39 82.35 191.38 83.79 190.07 85.51 188.97 86.56 189.76 88.14 190.23 91.54 188.95 92.75 187.35 94.35 188.1 96.29 187.41 97.07 187.87 98.23 187.93 Z" fill-rule="evenodd" id="38050360"/>
<path d="M 380.36 184.91 380.41 185.25 378.63 185.87 378.27 187.66 378.62 188.69 377.92 189.89 377.93 192.97 378.58 193.9 379.81 193.85 380.85 194.86 382.49 195.13 383.65 197.18 383.73 198.36 382.57 198.63 381.24 199.54 381.34 202.12 381.53 202.69 383.99 207.04 383.7 208.08 384.12 208.76 385.11 209.07 384.32 210.57 383.25 210.84 383.51 212.02 384.85 212.98 385.81 216.21 385.35 215.95 381.91 216.94 381.51 215.6 380.99 215.74 379.96 212.08 378.64 211.56 378.77 210.81 377.82 210.15 375.35 209.79 373.91 209 373.29 207.75 373.13 205.94 372.35 204.47 371 203.79 369.78 202.84 368.91 201.49 366.08 201.61 365.18 202.47 363.61 202.02 361.72 202.46 361.15 204 358.54 206.25 355.33 205.88 354.67 204.75 352.64 203.84 351.39 202.72 350.69 201.57 350.86 199.36 348 196.85 347.45 194.28 346.53 193.36 344.99 192.36 343.58 190.3 344.41 187.73 345.33 186.07 346.57 185.19 346.46 183.15 345.29 181.2 343.23 180.39 341.82 180.28 342.75 179.93 346.35 179.93 347.21 181.58 348.13 181.39 348.3 180.01 349.69 179.25 350.35 180 351.34 179.43 352.79 179.87 353.32 180.82 353.59 182.79 353.05 184.19 351.69 186.04 353.12 187.15 354.92 186.48 354.93 185.31 356.29 183.54 357.98 180.69 360.99 181.18 362.59 181.92 366.01 182.58 367.46 182.44 368.77 183.13 370.24 183.4 372 184.43 373.12 185.42 374.97 185.4 375.37 183.8 376.13 183.16 375.87 182.09 376.43 181.7 377.55 182.06 378.84 184.36 379.73 184.14 380.36 184.91 Z" id="38050520"/>
<path d="M 393.67 200.43 393.87 201.74 393.09 201.78 392.81 204.19 393.14 205.91 391.81 206.23 390.94 206.83 390.42 208.06 389.14 208.27 387.87 210.97 390.23 212.52 390.52 213.21 390.02 215.99 386.08 217.15 385.81 216.21 384.85 212.98 383.51 212.02 383.25 210.84 384.32 210.57 385.11 209.07 384.12 208.76 383.7 208.08 383.99 207.04 381.53 202.69 381.34 202.12 381.24 199.54 382.57 198.63 383.73 198.36 384.91 198.74 388.62 198.6 389.2 199.12 391.24 199.37 391.66 200.55 393.67 200.43 Z" id="38050530"/>
<path d="M 420.35 205.7 420.12 206.34 418.7 207.47 416.81 207.26 415.6 208.06 414.22 208.39 413.9 209.81 413.36 210.15 411.38 209.62 410.76 210.97 402.57 209.24 400.83 207.82 398.42 210.79 399.76 213.37 402.63 212.81 403.88 215.34 406.41 214.09 406.86 215.01 409.14 213.87 409.24 214.46 402.99 217.61 402.47 218.08 400.27 217.19 398.7 215.97 397.17 217.5 396.18 217.35 393.04 215.94 391.7 212.7 391.38 211.53 391.43 210.25 392.1 208.62 390.42 208.06 390.94 206.83 391.81 206.23 393.14 205.91 392.81 204.19 393.09 201.78 393.87 201.74 393.67 200.43 394.34 199.17 395.13 198.46 398.26 196.51 399.52 196.38 401.42 195.71 403.33 196.07 404.65 194.12 405.99 193.56 408.09 193.45 409.08 192.94 410.27 193.97 411.09 194.05 412.82 194.81 413.15 195.87 414.33 196.47 415.17 198.7 413.58 202.01 414.49 203.19 417.61 203.53 418.73 204.47 419.08 205.21 420.35 205.7 Z" id="38050540"/>
<path d="M 398.26 196.51 395.13 198.46 394.34 199.17 393.67 200.43 391.66 200.55 391.24 199.37 389.2 199.12 388.62 198.6 384.91 198.74 383.73 198.36 383.65 197.18 382.49 195.13 380.85 194.86 379.81 193.85 378.58 193.9 377.93 192.97 377.92 189.89 378.62 188.69 378.27 187.66 378.63 185.87 380.41 185.25 381.36 185.11 382.4 185.5 384.19 185.59 385.54 186.26 393.78 187.65 394.69 188.21 397.52 191.26 396.96 191.86 397.99 194.19 398.48 195.87 398.26 196.51 Z" id="38050550"/>
<path d="M 376.8 172.21 377.72 169.45 378.61 169.5 383.08 170.61 384.56 171.58 386.76 171.5 388.28 171.79 390.73 172.63 393.48 173.14 394.48 175.01 394.42 175.99 394.87 177.9 395.68 178.41 397.24 178.75 398.26 179.7 402.41 180.25 404.23 181.48 405.73 183.1 406.58 184.41 408.9 186.38 409.93 187.64 409.83 189.32 406.87 190.86 405.61 192.39 404.46 192.58 403.46 193.67 404.65 194.12 403.33 196.07 401.42 195.71 399.52 196.38 398.26 196.51 398.48 195.87 397.99 194.19 396.96 191.86 397.52 191.26 394.69 188.21 393.78 187.65 385.54 186.26 384.19 185.59 382.4 185.5 381.36 185.11 380.41 185.25 380.36 184.91 382.62 183.11 382.97 181.68 383.62 180.65 383.75 179.63 382.72 176.8 382.07 175.55 379.72 174.45 378.06 172.51 376.8 172.21 Z" id="38050560"/>
<path d="M 333.02 221.52 332.56 222.57 331.06 221.98 332.51 220.59 333.02 221.52 Z M 335.79 219.28 335.23 219.32 333.12 220.65 332.79 219.7 334.74 218.72 335.79 219.28 Z M 301.58 197.41 302.47 196.75 304.36 198.54 303.87 199.24 298.6 197.52 299.84 196.61 301.58 197.41 Z M 314.63 194.25 316.29 195.3 316.53 197.89 316.95 199.18 316.9 200.21 315.74 199.69 315.17 198.79 314.95 196.75 313.67 194.8 314.63 194.25 Z M 286.11 194.12 287.09 194.86 286.79 195.85 285.28 196.83 284.9 197.91 282.73 197.76 281.78 196.41 279.72 196.4 280.01 195.43 281.75 195.98 283.05 195.73 283.59 194.86 284.44 194.43 286.11 194.12 Z M 328.8 181.44 329.49 181.76 329.88 183.37 328.88 183.69 327.9 183.1 327.77 181.59 328.8 181.44 Z M 380.99 215.74 380.73 215.81 376.73 219.84 373.76 221.36 371.18 223.6 369.29 224.02 368.23 224 367 224.5 366.38 225.33 364 227.28 362.82 227.06 361.53 226.41 359.69 222.02 355.84 223.05 355 224.1 355.85 225.73 355.31 226.4 354.29 225.22 353.63 225.86 353.5 226.88 354.29 229 352.72 230.09 352.27 232.3 350.02 232.79 348.23 232.42 347.58 230.26 347.9 229.82 350.11 229.11 349.67 227.97 349.06 225.25 346.43 223.66 346.04 222.68 344.07 223.55 343.02 222.69 341.94 222.43 340.76 223.45 340.44 224.17 338.43 226.01 337.9 224.81 336.16 223.22 335.95 222.38 336.27 219.89 335.96 219.2 338.14 218.42 339.81 218.13 341.47 217.42 343.06 217.47 342.9 215.13 342.15 212.63 341.69 212 339.83 210.56 338.44 209.86 333.59 209.95 333.27 210.77 333.15 213.77 332.19 214.31 330.06 214.45 327.52 215.78 326 214.43 324.39 214.57 324.17 213.15 322.76 211.1 321.38 210.82 320.87 210.13 321.58 209.47 324.06 209.93 324.92 210.67 327.28 210.36 328.2 208.93 328.19 206.95 327.31 206.21 325.19 205.29 323.36 204.85 322.79 202.93 321.13 202.12 318.64 202.04 317.77 200.77 318.99 200.19 319.03 198.99 320.01 197.33 321.34 195.76 322.58 196.03 322.86 196.62 324.9 198.56 326.79 198.32 327.92 198.42 329.43 197.51 330.19 195.75 330.32 194.43 332.12 193.68 333.37 193.62 333.81 191.73 334.77 191.08 336.45 191.6 337.83 190.38 337.98 189.56 337.55 187.33 336.87 185.71 336.55 182.93 337.18 182.52 338.39 184.46 339.37 185.45 341.44 184.79 342.06 183.1 343.08 182.63 343.52 181.82 341.82 180.28 343.23 180.39 345.29 181.2 346.46 183.15 346.57 185.19 345.33 186.07 344.41 187.73 343.58 190.3 344.99 192.36 346.53 193.36 347.45 194.28 348 196.85 350.86 199.36 350.69 201.57 351.39 202.72 352.64 203.84 354.67 204.75 355.33 205.88 358.54 206.25 361.15 204 361.72 202.46 363.61 202.02 365.18 202.47 366.08 201.61 368.91 201.49 369.78 202.84 371 203.79 372.35 204.47 373.13 205.94 373.29 207.75 373.91 209 375.35 209.79 377.82 210.15 378.77 210.81 378.64 211.56 379.96 212.08 380.99 215.74 Z" fill-rule="evenodd" id="38050620"/>
<path d="M 373.96 226.01 374.22 227.63 374.72 228.82 374.51 230.21 373.94 231.72 374.98 232.8 374.14 233.28 373.55 234.2 374.08 234.94 375.53 235.05 375.62 236.14 374.86 236.96 375.42 238.84 374.82 239.64 373.54 239.16 372.11 239.36 371.89 241.74 370.88 242.75 369.6 245.17 368.4 247.84 368.18 249.1 366.94 251.34 365.3 250.62 363.66 251.28 362.6 251.29 357.66 252.56 356.23 253.09 353.19 250.03 351.24 247.63 349.4 248.23 347.16 247.84 343.07 246.47 342.32 244.04 342.12 241.48 342.63 240.64 342.56 239.25 341.63 238.17 339.79 237.14 339.16 235.77 337.69 234.94 337.51 232.57 338.4 232.94 338.74 234.52 339.35 234.94 341.37 234.85 342.13 235.48 344.66 236.11 346.89 237.68 347.34 238.62 347.23 239.84 346.55 240.53 345.68 242.17 346.08 243.28 347.55 242.92 348.38 242.31 348.9 240.66 350.18 239.87 356.94 234.74 356.69 234.36 358.55 232.96 360.23 233.38 360.94 233.89 363.21 234.17 363.16 230.11 365.57 230.05 365.9 228.4 366.92 227.11 367.91 225.27 368.57 224.82 370.14 224.69 372.24 225.94 373.96 226.01 Z" id="38050630"/>
<path d="M 410.48 243.72 407.66 242.69 406.59 243.28 405.32 243.08 404.05 243.52 402.03 245.56 401.42 246.66 400.27 246.91 397.18 245.8 396.71 245.22 395.27 245.54 393.11 245.21 391.79 246.67 391.11 246.17 389.75 247.79 387.25 248.63 386.18 249.79 383.97 251.05 383.16 251.13 382.49 252.8 382.23 255.52 380.22 258.64 378.76 262.19 377.84 261.19 375.3 259.37 374.06 256.71 373.66 254.91 372.76 254.1 370.98 253.62 370.41 252.5 368.64 251.47 366.94 251.34 368.18 249.1 368.4 247.84 369.6 245.17 370.88 242.75 371.89 241.74 372.11 239.36 373.54 239.16 374.82 239.64 375.42 238.84 374.86 236.96 375.62 236.14 375.53 235.05 374.08 234.94 373.55 234.2 374.14 233.28 374.98 232.8 373.94 231.72 374.51 230.21 374.72 228.82 374.22 227.63 373.96 226.01 376.83 226.13 377.71 225.92 379.96 224.21 379.84 223.57 381.79 223.53 382.16 223.01 384.11 223.75 384.91 225.26 386.07 225.43 385.89 226.27 387.64 226.63 388.06 225.23 389.24 225.37 389.29 227.2 392.11 227.62 393.59 228.11 394.51 229.43 394.97 229.34 395.72 230.96 397.63 233.39 397.57 232.07 399.01 231.76 400.33 230.74 400.54 231.46 402.5 233.29 403.38 233.65 401.7 234.94 400.97 235.06 401.01 236.48 402.87 238.19 403.94 237.66 404.85 238.1 406.2 236.71 406.2 236.01 409.37 232.79 410.37 233.75 409.98 235.06 411.13 236.14 411.33 236.75 410.21 238.15 409.54 241.23 410.48 243.72 Z" id="38050640"/>
</g>
</svg>