<?xml version="1.0"?>
<svg xmlns="http://www.w3.org/2000/svg" version="1.2" baseProfile="tiny" width="800" height="646" viewBox="0 0 800 646" stroke-linecap="round" stroke-linejoin="round">
<g id="dong">
<path d="M 380.44 395.64 379.87 399.02 379.18 401.2 377.47 403.89 376.51 405.89 375.79 409.12 373.71 412.66 371.77 416.97 371.23 420.55 371.93 424.77 373.78 428.37 377.01 432.48 380.1 435 384.26 438.75 393 446.06 396.01 447.71 399.99 451.52 402.43 455.4 404.69 463.16 404.79 464.96 403.2 467.7 402.41 471.01 402.47 478.82 400.88 486.66 398.51 491.39 396.88 502.36 394.85 510.21 393.5 518.05 392.32 533.69 393 538.08 394.89 539.63 400.28 541.34 403.02 543.33 413.58 549.46 416.01 550.48 421.37 553.21 424.48 554.58 429.49 556.37 434.37 561.01 437.96 568.03 434.54 569.56 422.28 576.99 415.3 583.1 412.99 587.94 408.77 595.83 405.95 603.7 404.23 607.62 402.5 611.58 393.74 623.08 388.88 613.55 388 611.05 387.95 609.34 386.04 610.27 384.18 607.29 389.51 604.05 389.45 603.63 372.2 598.2 375.14 588.84 382.05 591.7 381.95 588.54 381.13 586.61 381.29 585.5 379.14 585.03 375.8 585.8 372.88 584.04 371.64 581.4 370.41 581.16 366.51 581.51 363.12 577.65 361.41 578.71 356.57 577.17 355.78 576.52 354.06 576.33 346.31 571.56 344.71 570.34 341.2 565.66 339.32 564.93 339.82 563.13 340.94 562.01 340.54 560.26 338.87 558.85 338.5 557.1 337.09 556.58 335.39 556.88 334.4 555.39 332.35 554.73 331.58 553.77 331.33 551.74 329.38 548.33 327.98 543.37 326.99 537.84 325.18 536.29 323.85 533.68 323.12 529.75 323.45 526.42 321 520.68 319.84 518.88 317.21 517.12 315.46 514.76 314.41 514.27 309.38 514.58 306.54 513.73 305.03 512.76 303.97 510.71 303.84 507.06 303.54 505.81 300.37 503.54 294.72 502.95 292.62 502.19 290.54 499.8 290.08 497.38 290.13 495.7 289.37 492.02 287.5 489.5 285.76 487.78 284.2 484.68 281.56 482.82 280.25 482.27 279.2 481.12 277.28 480.16 274.64 479.78 272.11 480.41 269.44 480.28 267.39 479.03 266.52 476.99 265.07 475.66 262.75 475.78 261.15 474.52 258.57 473.14 255.83 470.91 252.19 469.76 252.02 469.04 249.54 466.22 248.28 465.93 246.37 464.73 246.53 460.18 247.32 458.12 246.4 456.07 246.79 452.14 247.76 448.59 248.25 448.02 247.41 445.45 247.85 440.04 249.41 437.81 250.88 438.35 251.84 437.68 259.06 436.36 261.11 434.87 263.61 430.03 267.84 425.21 267.91 424.01 269.85 423.32 271.45 423.41 273.68 421.48 276.04 420.13 277.74 419.95 281.92 416.85 282.32 415.88 284.07 415.63 286.38 413.19 287.76 413.06 290.09 410.41 291.54 409.61 294 409.12 295.37 407.66 296.34 407.37 297.34 405.29 299.82 402.24 301.17 402 302.26 400.77 303.77 399.97 304.24 398.34 305.59 396.96 307.03 393.78 308.49 393.22 310.65 390.55 312.84 389.26 314 387.54 315 384.6 318.48 382.7 319.23 380.6 320.31 379.49 321.42 379.28 322.91 377.75 322.04 376.21 321.66 373.2 321.81 371.42 323.2 369.91 328.21 369.69 329.58 368.86 331.19 369.56 332.03 369.18 332.86 367.61 336.89 370.82 342.8 374.39 347.04 376.57 350.86 377.97 355.18 378.34 358.68 378.18 362.33 377.26 367.05 376.53 370.54 376.43 372.09 377.24 376.69 381.62 378.79 385.59 380.59 390.25 380.44 395.64 Z" id="38080360"/>
<path d="M 250.26 393.15 251.72 394.34 254.07 397.31 255.96 398.16 258.33 400.73 261.26 401.95 263.47 402.57 265.13 404.65 267.54 406.19 271.38 411.75 272.9 415.62 273.37 418.3 272.76 419.83 273.68 421.48 271.45 423.41 269.85 423.32 267.91 424.01 267.84 425.21 263.61 430.03 261.11 434.87 259.06 436.36 251.84 437.68 250.88 438.35 249.41 437.81 247.85 440.04 247.41 445.45 248.25 448.02 247.76 448.59 246.79 452.14 246.4 456.07 247.32 458.12 246.53 460.18 246.37 464.73 248.28 465.93 249.54 466.22 252.02 469.04 252.19 469.76 252.33 474.08 250.96 478.39 251.31 482.56 249.34 488.63 249.18 491.7 248.59 493.23 246.93 495.08 246.95 496.31 244.47 497.21 243.91 498.15 242.78 503.65 245.53 506.41 246.75 509.7 248.26 511.85 250.49 513.8 252.51 516.39 254.93 517.07 256.94 518.71 260.68 519.27 261.85 519.82 262.1 521.91 261.38 523.04 261.32 524.56 260.28 526.15 259.33 528.52 259.43 530.08 257.89 531.02 257.08 532.31 254.73 533.69 254.67 535.32 252.21 535.64 251.91 537.38 250.19 543.67 250.79 545.66 251.81 552.73 248.87 558.44 245.03 560.88 241.27 569.61 231.07 565.13 229.22 569.42 230.5 570.79 228.64 573.3 229.03 575.29 229.64 575.59 227.79 577.9 227.48 578.96 224.21 582.55 214.47 577.93 200.49 578.32 183.09 578.72 180.98 578.76 171.29 581.85 161.62 586.47 146.06 584.82 143.73 581.44 141.93 577.8 140.34 575.13 140.17 572.31 145.38 570.7 147.42 569.88 146.79 567.41 144.94 565.16 143.68 561.85 142.09 562.61 137.71 563.89 133.83 563.74 130.78 564.34 127.94 566.03 124.81 564.73 124.17 564.18 124.38 559.91 126.43 558.38 130.93 557.89 133.05 557.1 134.43 555.63 134.65 553.71 133.34 551.16 132.92 549.14 133.78 545.45 136.51 541.84 137.33 540.2 139.62 537.58 143.08 534.94 140.89 529.9 140.17 527.28 140.02 523.19 139.7 521.31 138.36 517.38 138.16 511.44 136.4 504.58 136.3 502.04 137.61 497.14 138.81 494.42 141.43 490.07 144.5 482.75 144.44 478.42 144.96 473.92 148.61 474.81 151.48 472.79 153.93 472.03 156.2 470.38 160.61 469.92 162.81 467.98 164.85 465.46 167.38 463.36 170.04 463.43 172.84 462.43 175.16 459.03 176.53 457.69 180.03 457.54 179.58 455.53 179.71 454.13 181.76 452.66 185.73 451.11 189.06 448.92 190.31 448.92 192.22 446.55 190.56 445.41 188.94 442.87 187.92 442.57 186.42 440.27 186.58 439.31 187.78 438.52 189.81 436 190.61 433.77 192.17 433.2 193.21 431.62 193.69 430 190.46 428.04 188.89 428.03 188.48 426.56 186.08 426.52 185.97 425.8 186.85 422.16 186.97 420.05 186.39 417.96 187.97 417.08 188.84 415.71 189.95 415.19 191.46 412.96 191.97 411.09 191.79 409.83 193.03 408.19 193.15 406.7 191.86 405.21 192.31 404.52 193.84 404.95 195.77 403.71 196.84 398.51 198.27 395.05 199.01 391.54 198.28 389.46 198.4 387.04 196.89 383.72 196.58 381.64 196.86 380.16 197.9 377.83 197.67 375.09 196.23 373.09 197.56 367.68 199.35 368.59 201.5 371.43 202.24 372.91 204.56 373.73 206.64 372.6 207.9 369.94 211.33 368.45 212.75 366.39 215.45 366.73 217.56 367.95 220.63 368.93 225.91 371.67 228.26 371.68 234.84 371.02 236.03 373.52 236.31 376.62 236.72 378.13 236.2 381.76 236.46 387.02 237.31 390.03 240.14 391.39 244.4 390.68 247.7 391.41 249.54 392.31 250.26 393.15 Z" id="38080370"/>
<path d="M 250.26 393.15 249.54 392.31 247.7 391.41 244.4 390.68 240.14 391.39 237.31 390.03 236.46 387.02 236.2 381.76 236.72 378.13 236.31 376.62 236.03 373.52 234.84 371.02 228.26 371.68 225.91 371.67 220.63 368.93 217.56 367.95 215.45 366.73 212.75 366.39 211.33 368.45 207.9 369.94 206.64 372.6 204.56 373.73 202.24 372.91 201.5 371.43 199.35 368.59 197.56 367.68 196.23 373.09 197.67 375.09 197.9 377.83 196.86 380.16 196.58 381.64 196.89 383.72 198.4 387.04 198.28 389.46 199.01 391.54 198.27 395.05 196.84 398.51 195.77 403.71 193.84 404.95 192.31 404.52 191.86 405.21 193.15 406.7 193.03 408.19 191.79 409.83 191.97 411.09 191.46 412.96 189.95 415.19 188.84 415.71 187.97 417.08 186.39 417.96 186.97 420.05 186.85 422.16 185.97 425.8 186.08 426.52 188.48 426.56 188.89 428.03 190.46 428.04 193.69 430 193.21 431.62 192.17 433.2 190.61 433.77 189.81 436 187.78 438.52 186.58 439.31 186.42 440.27 187.92 442.57 188.94 442.87 190.56 445.41 192.22 446.55 190.31 448.92 189.06 448.92 185.73 451.11 181.76 452.66 179.71 454.13 179.58 455.53 180.03 457.54 176.53 457.69 175.16 459.03 172.84 462.43 170.04 463.43 167.38 463.36 164.85 465.46 162.81 467.98 160.61 469.92 156.2 470.38 153.93 472.03 151.48 472.79 148.61 474.81 144.96 473.92 143.31 473.78 142.3 472.69 140.11 472.99 138.47 470.36 137.35 469.23 137.76 466.8 137.85 464.18 134.66 461.9 134.32 459.91 133.21 459.29 130.2 458.83 128.52 458.88 127.09 458.01 126.13 456.69 124.69 455.71 120.84 455.78 118.12 455.59 115.03 451.03 114.61 449.67 115.16 448.36 115.05 445.1 113.65 439.2 111.97 433.22 109.93 428.23 108.25 425.06 105.79 424.46 102.79 422.11 99.64 418.67 94.54 419.63 92.67 421.38 89.66 422.04 89.29 422.64 87.32 422.97 86.8 424.02 83.52 424.77 81.87 427.02 81.77 429.2 81 431.5 76.43 430.45 74.99 429.52 69.4 427.49 68.21 427.72 64.09 423.71 63.87 422.15 62.32 421.22 61.02 421.14 60.36 420.33 55.76 420.86 52.12 417.66 48.6 418.56 48.2 417.94 43.68 416.81 43.06 416.44 39.8 417.94 38.44 419.31 37.14 418.91 35.51 419.29 32.89 418.8 31.68 419.04 29.22 416.92 25.38 417.04 23.64 416.41 21.51 413.95 20.51 413.41 20 410.72 14.61 405.58 12.91 403.26 14.24 398.62 14.33 395.68 15.32 391.84 16.13 390.51 15.78 388.23 13.44 385.37 13.39 382.87 12.86 380.42 10.78 379.92 8.47 377.99 6.31 377.62 6.44 375.81 5.89 373.15 5.16 371.38 5.24 369.46 4.62 365.83 3.68 364.06 5.25 361.96 5.35 359.95 3.38 358.25 2.08 355.12 2.65 352.78 1.58 347.18 2.88 344.82 4.41 341 4.59 339.18 4.01 338.12 2.57 337.28 1.14 337.3 1 332.66 2.58 327.75 3.93 325.93 5.33 325 4.93 322.63 5.08 320.19 8.09 315.36 8.33 314.13 10.41 309.04 11.22 306.09 11.71 302.33 14.51 302.38 17.44 301.74 26.58 302.15 27.92 297.99 30.44 295.93 31.83 295.38 33.44 293.03 33.41 291.4 34.45 290.44 34.39 287.1 35.09 284.93 36.61 283.48 36.86 281.6 36.43 277.86 39.7 275.66 41.03 275.11 42.06 276.9 45.75 277.89 49.12 274.85 56.32 275.87 61.87 275.25 66.43 275.88 71.15 277.46 74.8 275.83 80.35 278.75 82.81 279.22 91.27 275.49 91.64 271.47 92.54 268.8 92.38 268.06 96.6 262.46 98.78 262.47 101.56 261.44 104.79 258.92 109.07 260.32 110.71 258.87 112.82 259.05 116.45 257.42 119.3 257.54 120.87 256.01 123.72 254.09 123.81 253.37 125.61 252.54 128.13 250.2 130.98 250.57 133.21 248.12 134.86 247.02 136.35 246.6 139.4 242.99 143.67 241.9 145.17 242.16 146.67 241.12 148.08 238.02 142.78 235.6 141.09 234.16 142.75 227.63 144.53 224.75 145.2 222.16 148.55 222.42 148.68 221.77 150.72 219.39 152.24 218.62 153.1 217.44 155.37 215.65 157.9 215.85 159.86 216.43 161.73 218.26 165.7 216.47 165.55 213.2 167.61 208.77 168.87 207.37 170.84 207.08 170.83 205.1 173.51 203.06 176.04 203.74 180.32 203.87 180.99 204.48 182.91 208.41 184.82 210.09 185.3 212.17 184.83 214.27 185.14 218.3 186.45 218.65 188.06 221.75 191.16 225.46 197.08 234.96 195.62 241.07 192.65 241.39 189.41 242.66 187.8 244.46 188.17 246.29 187.45 249.92 186.34 252.08 184.83 261.27 186.26 263.55 188.24 264.3 191.69 264.56 194.07 266.35 199.43 267.16 201.59 268.05 202.88 269.15 207.2 274.08 209.04 274.85 210.84 274.75 212.61 273.52 213.13 271.51 215.51 269.06 215.66 266.57 216.74 262.78 218.28 263.4 220.58 263.58 222.26 264.78 223.39 266.16 225.44 267.35 227.61 268.09 230.17 273.64 226.65 277.04 227.08 281.69 226.07 287.49 223 288.61 220.42 290.6 220.44 292.67 216.33 293.81 218.22 294.89 219.07 297.79 219.36 300.35 221.04 303.51 222.87 307.98 227.43 311.04 230.7 312.32 233.18 314.33 241.09 316.15 242.39 318.02 243.01 320.04 242.54 322.14 243.54 323.86 244.42 327.44 244.97 328.51 247.56 331.02 250.22 331.81 249.3 333.26 249.6 335.26 250.56 338.16 251.67 343 250.9 344.95 251.81 347.22 253.41 349.2 254.67 352.71 255.46 358.27 256.63 358.6 260.08 361.35 259.45 364.05 257.95 366.89 257.9 370.49 256.96 371.92 256.7 373.82 255.81 374.93 255.55 376.57 254.28 377.64 253.02 381.13 253.18 382.9 250.95 387.15 251.01 390.98 250.26 393.15 Z" id="38080380"/>
<path d="M 210.42 110.67 210.49 111.99 213.32 115.91 214.91 121.59 214.96 124.36 216.69 132 218.09 133.55 220.19 134.57 219.79 137 218.05 142.81 214.09 145.4 211.89 146.54 207.61 154.31 205.61 155.62 206.05 157.96 205 159.71 200.51 162.43 197.68 163.65 194.85 160.37 191.28 160.13 189.89 159.14 185.98 159.77 183.12 161.13 182.27 164.3 181.28 166.72 180.1 168.51 180.2 169.73 181.47 171.14 181.87 173.46 182.27 179.04 181.49 180.89 181.96 183.67 181.63 186.51 182.32 188.75 182.07 190.62 180.42 192.56 179.53 196 180.19 198.52 180.32 203.87 176.04 203.74 173.51 203.06 170.83 205.1 170.84 207.08 168.87 207.37 167.61 208.77 165.55 213.2 165.7 216.47 161.73 218.26 159.86 216.43 157.9 215.85 155.37 215.65 153.1 217.44 152.24 218.62 150.72 219.39 148.68 221.77 148.55 222.42 145.2 222.16 144.53 224.75 142.75 227.63 141.09 234.16 142.78 235.6 148.08 238.02 146.67 241.12 145.17 242.16 143.67 241.9 139.4 242.99 136.35 246.6 134.86 247.02 133.21 248.12 130.98 250.57 128.13 250.2 125.61 252.54 123.81 253.37 123.72 254.09 120.87 256.01 119.3 257.54 116.45 257.42 112.82 259.05 110.71 258.87 109.07 260.32 104.79 258.92 101.56 261.44 98.78 262.47 96.6 262.46 92.38 268.06 92.54 268.8 91.64 271.47 91.27 275.49 82.81 279.22 80.35 278.75 74.8 275.83 71.15 277.46 66.43 275.88 61.87 275.25 56.32 275.87 49.12 274.85 45.75 277.89 42.06 276.9 41.03 275.11 39.7 275.66 36.43 277.86 32.35 277.18 30.67 275.59 29.04 274.9 27.96 273.35 24.28 271.35 22.67 267.47 20.21 264.38 19.5 264.03 18.58 261.66 20.27 260.68 20.13 256.51 22.02 253.18 19.51 248.39 19.87 245.21 18.55 241.34 17.23 239.78 15.35 238.53 14.15 236.75 10.79 235.98 10.48 234.11 13.06 233.49 14.54 232.77 17.82 233.01 23.99 232.08 25.93 232.73 27.58 234.12 29.65 234.65 31.52 235.64 32.97 235.22 34.73 235.56 35.13 232.04 37.08 228.15 39.57 226.39 39.14 224.01 37.18 223.7 35.19 222.69 32.03 219.83 30.86 215.99 29.92 214.15 28.02 213.72 28.74 208.68 26.2 203.24 24.99 199.53 24.34 196.16 25.35 195.35 26.98 192.93 28.54 192.87 30.45 191.88 30.84 186.88 31.27 184.41 29.77 181.69 30.24 180.42 29.58 178.74 27.37 176.22 25.56 175.66 23.78 173.65 20.42 171.66 21.27 170.09 21.52 168.53 23 166.47 23.99 162.14 23.91 158.97 22.65 154.67 22.6 149.84 23.03 146.31 21.88 143.22 24.87 141.62 25.78 139.79 30.74 135.8 31.92 134.26 35.68 133.39 36.71 132.78 41.72 136.25 42.22 137.41 44.19 138.23 46.13 137.77 48.41 139.59 48.84 141.3 50.56 140.64 51.97 140.79 53.96 141.99 55.91 141.49 59.16 141.52 63.32 140.51 65.56 139.3 67.28 138.97 68.43 138.22 71.21 138.51 73.01 138.03 74.86 138.2 76.22 135.84 78.55 133.24 81.45 133.4 86.5 130.8 89.17 131.3 93.34 130.45 96.13 129.66 96.26 128.73 97.84 127.27 100.2 125.95 103.02 125.25 103.77 125.62 105.18 127.89 108.81 129.01 110.95 130.4 113.35 130.98 114.68 127.32 114.16 125.51 115.92 122.49 120.93 121.93 122.52 119.29 124.79 116.56 126.42 112.67 128.42 111.3 131.96 111.29 135.76 109.62 137.88 109.09 140.06 107.45 140.68 106.53 143.44 105.74 146.28 103.7 146.04 101.86 147.87 101.86 148.53 102.75 151.36 102.21 152.82 102.74 158.03 106.07 162.33 110.55 167.62 109.65 168.28 109.2 172.27 109.24 174.15 107.99 176.64 105.71 179.62 105.17 183.69 106.57 186.81 107.97 191.07 107.06 200.37 107.63 203.28 107.09 206.2 108.27 210.42 110.67 Z" id="38080390"/>
<path d="M 376.87 309.47 381.56 312.07 386.23 313.8 390.39 317.09 392.13 317.96 396.66 319.58 398.93 320.89 402.62 324.04 404.56 324.86 407.28 325.28 410.12 327.53 413.31 329.06 415.55 329.03 417.49 329.47 417.1 331.43 418.89 334.09 421.44 336.2 422.42 337.48 424.87 338.43 426.52 339.46 428.58 342.26 434.26 345.6 436.5 347.24 438.17 347.52 443.3 349.18 444.96 348.79 447.14 347.59 448.64 348.9 451.89 349.54 454.74 350.75 456.66 350.51 457.41 349.66 459.17 349.56 460.14 348.66 464.37 352.9 463.74 354.66 465 356.58 464.91 359.17 463.86 360.89 466.33 363.19 470.37 370.46 470.5 371.31 469.61 373.18 469.5 374.41 468.25 376.48 469.1 381.13 466.22 381.32 464.24 382.23 462.56 380.99 462.25 377.36 461.58 376.41 459.93 376.63 457.37 374.29 452.6 374.08 450.95 375.35 447.12 375.89 445.75 376.31 443.89 375.36 441.45 376.37 438.77 376.16 435.6 374.56 430.58 374.04 426.48 376.61 425.32 376.08 425 373.19 422.89 372.05 418.52 370.75 416.46 370.51 415.81 369.46 411.46 367.38 411.79 365.8 413.21 364.99 412.41 363.68 410.47 363.1 410.11 359.13 407.45 357.72 405.18 355.06 402.3 352.23 401.38 349.18 394.58 344.37 393.7 342.89 393.51 340.39 389.28 341.19 386.32 342.47 384.59 342.91 381.14 345.4 378.32 346.07 374.62 348.98 372.61 345.98 369.89 347.59 364.03 350.3 361.79 350.86 355.96 351.45 353.81 351.23 350.18 350.05 347.83 348.12 346.06 345.2 343.37 342.21 340.99 339.5 337.54 331.76 336.66 331.11 332.1 330.2 324.89 331.36 322.33 331.54 319.44 329.97 319.65 328.52 319.37 326.04 319.85 321.33 319.4 318.92 318.39 318.35 320.47 316.43 321 312.76 323.26 313.07 325.2 312.63 328.54 312.77 331.05 313.67 334.55 313.19 335.92 312.37 335.55 310.7 336.88 309.76 338.03 307.35 338.7 304.58 341.31 304.34 342.73 305.12 345.32 303.71 350.19 302.33 352.62 304.16 353.75 304.49 354.93 306.29 355.91 304.8 359.38 305.15 359.83 306.36 361.99 308.26 363.97 309.19 367.02 309.23 369.4 308.7 370.77 310.17 373.8 311.37 376.87 309.47 Z" id="38080510"/>
<path d="M 306.68 299.94 306.65 300.84 307.82 301.72 309.09 306.04 313.59 305.27 322.04 303.14 322.37 305.18 321.9 309.8 321.05 311.3 321 312.76 320.47 316.43 318.39 318.35 319.4 318.92 319.85 321.33 319.37 326.04 319.65 328.52 319.44 329.97 319.1 330.88 317.25 332.14 316.28 333.56 313.08 335.23 310.28 337.05 307.21 338.64 305.06 340.34 305.66 341.23 303.73 344.47 302.2 349.17 301.3 351.07 299.47 349.53 298.56 348.17 297.22 345.11 298.55 343.19 299.07 341.53 298.83 340.35 296.98 337.2 295.88 333.84 295.78 332.61 294.29 330.57 293.85 328.95 294.75 327.97 295.22 325.7 294.53 320.56 292.57 317.76 293.1 317.04 293.91 313.48 293.89 311.51 290.91 309.28 286.17 305 284 301.61 283.01 298.21 282.6 295.62 281.44 292.87 279.11 290.99 280.92 289.65 283.33 289.52 284.94 288.01 284.6 286.76 286.15 284.94 287.39 285.48 288.38 284.91 290.1 286.35 292.55 289.01 294.88 290.14 300.91 293.61 299.27 295.47 300.27 297.08 304.41 296.51 305.73 295.28 306.07 298.28 306.68 299.94 Z" id="38080520"/>
<path d="M 356.8 273.85 356.75 279.19 356.9 281.09 358.61 284.48 358.97 286.46 360.53 288.27 367.61 293.05 370.43 296.25 371.77 297.06 374.64 299.77 377.07 303.37 377.68 307.52 376.87 309.47 373.8 311.37 370.77 310.17 369.4 308.7 367.02 309.23 363.97 309.19 361.99 308.26 359.83 306.36 359.38 305.15 355.91 304.8 354.93 306.29 353.75 304.49 352.62 304.16 350.19 302.33 345.32 303.71 342.73 305.12 341.31 304.34 338.7 304.58 338.03 307.35 336.88 309.76 335.55 310.7 335.92 312.37 334.55 313.19 331.05 313.67 328.54 312.77 325.2 312.63 323.26 313.07 321 312.76 321.05 311.3 321.9 309.8 322.37 305.18 322.04 303.14 313.59 305.27 309.09 306.04 307.82 301.72 306.65 300.84 306.68 299.94 308.07 296.19 310.69 293.72 312.59 293.96 313.66 293.52 317.99 288.71 319.75 287.78 321.48 285 317.96 281.13 317.2 279.28 320.76 271.97 322.26 272.36 324.85 270.94 327.94 270.56 331.09 273.69 333.05 274.14 335.1 275.32 336.32 275.25 341.01 277.17 344.59 279.08 348.21 281.41 346.75 277.42 346.05 274.69 345.98 271.41 346.53 269.2 346.42 267.09 349.23 267.09 350.38 269.03 352.58 269.85 354.15 271.17 355.41 272.82 356.8 273.85 Z" id="38080530"/>
<path d="M 411.46 367.38 410.21 368.08 408.97 367.12 403.85 366.88 401.73 368.97 399.33 370.34 397.85 372.05 395.4 378.24 397.08 383.19 397.64 386.24 396.4 387.45 396.41 389.09 395.03 392.25 394.9 394.15 393.09 395.62 389.99 395.16 387.9 396.34 385.71 396.2 383.89 395.68 382.92 396.22 380.44 395.64 380.59 390.25 378.79 385.59 376.69 381.62 372.09 377.24 370.54 376.43 367.05 376.53 362.33 377.26 358.68 378.18 355.18 378.34 350.86 377.97 347.04 376.57 342.8 374.39 336.89 370.82 332.86 367.61 330.36 365.91 332.76 362.85 335.88 360.86 337.54 355.19 338.34 349.25 343.37 342.21 346.06 345.2 347.83 348.12 350.18 350.05 353.81 351.23 355.96 351.45 361.79 350.86 364.03 350.3 369.89 347.59 372.61 345.98 374.62 348.98 378.32 346.07 381.14 345.4 384.59 342.91 386.32 342.47 389.28 341.19 393.51 340.39 393.7 342.89 394.58 344.37 401.38 349.18 402.3 352.23 405.18 355.06 407.45 357.72 410.11 359.13 410.47 363.1 412.41 363.68 413.21 364.99 411.79 365.8 411.46 367.38 Z" id="38080550"/>
<path d="M 343.37 342.21 338.34 349.25 337.54 355.19 335.88 360.86 332.76 362.85 330.36 365.91 327.18 363.21 322.97 361.22 316.97 360.3 313.19 360.56 304.67 359.47 303.39 358.35 302.59 355.9 301.6 354.28 301.3 351.07 302.2 349.17 303.73 344.47 305.66 341.23 305.06 340.34 307.21 338.64 310.28 337.05 313.08 335.23 316.28 333.56 317.25 332.14 319.1 330.88 319.44 329.97 322.33 331.54 324.89 331.36 332.1 330.2 336.66 331.11 337.54 331.76 340.99 339.5 343.37 342.21 Z" id="38080540"/>
<path d="M 411.46 367.38 415.81 369.46 416.46 370.51 418.52 370.75 422.89 372.05 425 373.19 425.32 376.08 426.48 376.61 430.58 374.04 435.6 374.56 438.77 376.16 441.45 376.37 443.89 375.36 445.75 376.31 447.12 375.89 450.95 375.35 452.6 374.08 457.37 374.29 459.93 376.63 461.58 376.41 462.25 377.36 462.56 380.99 464.24 382.23 466.22 381.32 469.1 381.13 469.84 383.01 471.65 385.21 472.76 385.63 473.18 387.34 475.53 391.8 479.56 394.07 481.03 395.64 482.81 396.36 485.79 395.49 487.25 397 490.61 399.06 491.58 399.39 495.2 402.74 497.6 402.4 500.27 403.17 504.33 400.14 506.4 399.16 509.51 398.74 512.26 398.97 515.79 398.56 519.78 397.84 520.42 400.53 521.34 402.63 522.79 403.9 522.61 407.34 526.97 408.94 530.05 410.69 531.84 413.63 533.56 415.06 538.85 421.58 541.18 422.61 542.08 423.43 545.26 424.47 545.69 425.88 545.69 428.57 548.18 427.67 550.1 428.66 551.27 428.7 554.07 426.85 556.15 427.89 558.33 427.06 559.86 427.19 560.73 426.22 563.92 426.3 565.2 427.33 566.7 427.18 567.58 425.41 570.27 425.28 572.4 424.55 574.29 422.21 575.3 422.58 577.89 421.78 579.59 419.56 582.45 421.51 584.4 423.37 585.99 424.17 587.33 425.7 588.18 427.59 592.45 432.55 594.07 434.18 596.78 435.91 596.74 441.48 599.53 445.7 603.09 447.62 606.14 449.96 608.18 453.03 609.23 453.91 610.21 455.68 613.33 456.46 614.24 457.1 616.73 457.71 618.3 460.09 620.49 461.91 621.66 463.59 625.35 465.61 626.13 469.61 627.46 470.98 627.85 472.08 627.95 475.97 629.4 479.4 624.95 479.85 623.15 482.33 621.09 484.64 617.62 487.32 614.28 488.37 612.1 489.37 609.95 489.75 609.84 490.7 607.65 490.31 606.04 488.35 601.64 486.04 599.82 484.48 597.87 483.8 592.43 479.57 587.5 482.67 586.61 483.62 584.88 484.28 583.67 484.15 583.28 487.4 578.7 487.98 573.57 489.87 570.25 491.4 570.94 492.22 572.74 497.4 572.12 500.03 572.08 502.75 570.35 504.04 570.57 507.6 569.71 508.92 570.03 511.7 569.57 514.25 567.55 513.77 565.4 513.77 562.42 516.92 559.88 518.17 559.23 520.44 557.26 522.09 554.07 523.86 553.41 524.81 550.59 527.38 550.39 530.54 551.22 538.9 550.27 542.16 549.35 543.41 551.25 546.37 552.56 548.96 553.16 552.41 550.16 552.55 545.24 554.58 544.08 558.62 543.86 560.55 542.13 561.89 538.76 562.04 536.87 554.19 535.55 547.53 533.17 541.4 530.04 538.71 525.54 533.53 515.38 533.55 511.94 536.18 502.27 540.35 492.65 547.28 482.98 551.73 473.07 557.09 458.3 564.82 444.24 566.5 437.96 568.03 434.37 561.01 429.49 556.37 424.48 554.58 421.37 553.21 416.01 550.48 413.58 549.46 403.02 543.33 400.28 541.34 394.89 539.63 393 538.08 392.32 533.69 393.5 518.05 394.85 510.21 396.88 502.36 398.51 491.39 400.88 486.66 402.47 478.82 402.41 471.01 403.2 467.7 404.79 464.96 404.69 463.16 402.43 455.4 399.99 451.52 396.01 447.71 393 446.06 384.26 438.75 380.1 435 377.01 432.48 373.78 428.37 371.93 424.77 371.23 420.55 371.77 416.97 373.71 412.66 375.79 409.12 376.51 405.89 377.47 403.89 379.18 401.2 379.87 399.02 380.44 395.64 382.92 396.22 383.89 395.68 385.71 396.2 387.9 396.34 389.99 395.16 393.09 395.62 394.9 394.15 395.03 392.25 396.41 389.09 396.4 387.45 397.64 386.24 397.08 383.19 395.4 378.24 397.85 372.05 399.33 370.34 401.73 368.97 403.85 366.88 408.97 367.12 410.21 368.08 411.46 367.38 Z" id="38080110"/>
<path d="M 393.74 623.08 387 631.73 377.35 637.23 367.7 642.63 357.96 643.71 348.23 645 338.45 644.11 329.41 639.45 311.19 639.72 299.15 630.75 291.71 621.63 280.54 611.89 259.42 596.69 251.25 594.56 239.8 591.44 229.91 585.31 224.21 582.55 227.48 578.96 227.79 577.9 229.64 575.59 229.03 575.29 228.64 573.3 230.5 570.79 229.22 569.42 231.07 565.13 241.27 569.61 245.03 560.88 248.87 558.44 251.81 552.73 250.79 545.66 250.19 543.67 251.91 537.38 252.21 535.64 254.67 535.32 254.73 533.69 257.08 532.31 257.89 531.02 259.43 530.08 259.33 528.52 260.28 526.15 261.32 524.56 261.38 523.04 262.1 521.91 261.85 519.82 260.68 519.27 256.94 518.71 254.93 517.07 252.51 516.39 250.49 513.8 248.26 511.85 246.75 509.7 245.53 506.41 242.78 503.65 243.91 498.15 244.47 497.21 246.95 496.31 246.93 495.08 248.59 493.23 249.18 491.7 249.34 488.63 251.31 482.56 250.96 478.39 252.33 474.08 252.19 469.76 255.83 470.91 258.57 473.14 261.15 474.52 262.75 475.78 265.07 475.66 266.52 476.99 267.39 479.03 269.44 480.28 272.11 480.41 274.64 479.78 277.28 480.16 279.2 481.12 280.25 482.27 281.56 482.82 284.2 484.68 285.76 487.78 287.5 489.5 289.37 492.02 290.13 495.7 290.08 497.38 290.54 499.8 292.62 502.19 294.72 502.95 300.37 503.54 303.54 505.81 303.84 507.06 303.97 510.71 305.03 512.76 306.54 513.73 309.38 514.58 314.41 514.27 315.46 514.76 317.21 517.12 319.84 518.88 321 520.68 323.45 526.42 323.12 529.75 323.85 533.68 325.18 536.29 326.99 537.84 327.98 543.37 329.38 548.33 331.33 551.74 331.58 553.77 332.35 554.73 334.4 555.39 335.39 556.88 337.09 556.58 338.5 557.1 338.87 558.85 340.54 560.26 340.94 562.01 339.82 563.13 339.32 564.93 341.2 565.66 344.71 570.34 346.31 571.56 354.06 576.33 355.78 576.52 356.57 577.17 361.41 578.71 363.12 577.65 366.51 581.51 370.41 581.16 371.64 581.4 372.88 584.04 375.8 585.8 379.14 585.03 381.29 585.5 381.13 586.61 381.95 588.54 382.05 591.7 375.14 588.84 372.2 598.2 389.45 603.63 389.51 604.05 384.18 607.29 386.04 610.27 387.95 609.34 388 611.05 388.88 613.55 393.74 623.08 Z" id="38080120"/>
<path d="M 252.31 143.99 253.08 145.42 253.28 148.86 254.11 151.09 253.76 157.01 253.96 162.11 255.64 164.91 254.71 166.38 255.46 168.01 259 171.5 260.84 172.61 264.13 173.65 267.04 176.25 267.21 177.23 266.16 181.33 267.99 182.42 269.54 184.02 271.67 186.91 273.15 187.2 273.46 188.57 276.15 189.91 277.04 191.35 280.75 191.53 283.98 192.84 285.34 195.75 288.88 195.4 291.12 194.51 293.62 194.75 294.07 201.51 299.6 205.83 301.84 207.36 299.61 208.59 298.36 211.3 298.96 213.37 298.62 219.84 300.13 226.2 300.21 227.96 300.95 230.14 304.74 234.55 309.14 237.46 310.63 241.78 313.08 244.15 312.25 250.88 313.09 252.78 312.93 253.93 314.39 255.3 314.85 259.35 315.24 260.63 314.84 261.82 315.71 264.71 318.97 267.76 320.28 268.27 320.76 271.97 317.2 279.28 317.96 281.13 321.48 285 319.75 287.78 317.99 288.71 313.66 293.52 312.59 293.96 310.69 293.72 308.07 296.19 306.68 299.94 306.07 298.28 305.73 295.28 304.41 296.51 300.27 297.08 299.27 295.47 300.91 293.61 294.88 290.14 292.55 289.01 290.1 286.35 288.38 284.91 287.39 285.48 286.15 284.94 284.6 286.76 284.94 288.01 283.33 289.52 280.92 289.65 279.11 290.99 281.44 292.87 282.6 295.62 283.01 298.21 284 301.61 286.17 305 290.91 309.28 293.89 311.51 293.91 313.48 293.1 317.04 292.57 317.76 294.53 320.56 295.22 325.7 294.75 327.97 293.85 328.95 294.29 330.57 295.78 332.61 295.88 333.84 296.98 337.2 298.83 340.35 299.07 341.53 298.55 343.19 297.22 345.11 298.56 348.17 299.47 349.53 301.3 351.07 301.6 354.28 302.59 355.9 303.39 358.35 304.67 359.47 313.19 360.56 316.97 360.3 322.97 361.22 327.18 363.21 330.36 365.91 332.86 367.61 332.03 369.18 331.19 369.56 329.58 368.86 328.21 369.69 323.2 369.91 321.81 371.42 321.66 373.2 322.04 376.21 322.91 377.75 321.42 379.28 320.31 379.49 319.23 380.6 318.48 382.7 315 384.6 314 387.54 312.84 389.26 310.65 390.55 308.49 393.22 307.03 393.78 305.59 396.96 304.24 398.34 303.77 399.97 302.26 400.77 301.17 402 299.82 402.24 297.34 405.29 296.34 407.37 295.37 407.66 294 409.12 291.54 409.61 290.09 410.41 287.76 413.06 286.38 413.19 284.07 415.63 282.32 415.88 281.92 416.85 277.74 419.95 276.04 420.13 273.68 421.48 272.76 419.83 273.37 418.3 272.9 415.62 271.38 411.75 267.54 406.19 265.13 404.65 263.47 402.57 261.26 401.95 258.33 400.73 255.96 398.16 254.07 397.31 251.72 394.34 250.26 393.15 251.01 390.98 250.95 387.15 253.18 382.9 253.02 381.13 254.28 377.64 255.55 376.57 255.81 374.93 256.7 373.82 256.96 371.92 257.9 370.49 257.95 366.89 259.45 364.05 260.08 361.35 256.63 358.6 255.46 358.27 254.67 352.71 253.41 349.2 251.81 347.22 250.9 344.95 251.67 343 250.56 338.16 249.6 335.26 249.3 333.26 250.22 331.81 247.56 331.02 244.97 328.51 244.42 327.44 243.54 323.86 242.54 322.14 243.01 320.04 242.39 318.02 241.09 316.15 233.18 314.33 230.7 312.32 227.43 311.04 222.87 307.98 221.04 303.51 219.36 300.35 219.07 297.79 218.22 294.89 216.33 293.81 220.44 292.67 220.42 290.6 223 288.61 226.07 287.49 227.08 281.69 226.65 277.04 230.17 273.64 227.61 268.09 225.44 267.35 223.39 266.16 222.26 264.78 220.58 263.58 218.28 263.4 216.74 262.78 215.66 266.57 215.51 269.06 213.13 271.51 212.61 273.52 210.84 274.75 209.04 274.85 207.2 274.08 202.88 269.15 201.59 268.05 199.43 267.16 194.07 266.35 191.69 264.56 188.24 264.3 186.26 263.55 184.83 261.27 186.34 252.08 187.45 249.92 188.17 246.29 187.8 244.46 189.41 242.66 192.65 241.39 195.62 241.07 197.08 234.96 191.16 225.46 188.06 221.75 186.45 218.65 185.14 218.3 184.83 214.27 185.3 212.17 184.82 210.09 182.91 208.41 180.99 204.48 180.32 203.87 180.19 198.52 179.53 196 180.42 192.56 182.07 190.62 182.32 188.75 181.63 186.51 181.96 183.67 181.49 180.89 182.27 179.04 181.87 173.46 181.47 171.14 180.2 169.73 180.1 168.51 181.28 166.72 182.27 164.3 183.12 161.13 185.98 159.77 189.89 159.14 191.28 160.13 194.85 160.37 197.68 163.65 200.51 162.43 205 159.71 206.05 157.96 205.61 155.62 207.61 154.31 211.89 146.54 214.09 145.4 218.05 142.81 219.79 137 220.19 134.57 221.9 135.88 222.9 136.03 224.57 137.6 229.87 141.35 231.69 143.46 233.69 142.99 235.48 143.56 238.17 143.08 238.91 143.4 242.3 141.98 247.74 140.8 250.59 141.9 252.31 143.99 Z" id="38080310"/>
<path d="M 477.66 115.23 477.8 117.99 478.53 119.85 478.32 122.98 479.67 124.24 480.56 126.24 480.81 129.72 482.11 130.99 482.61 133.16 483.61 135.46 483.91 138.76 483.53 140.49 484.04 142.16 483.72 144.84 481.93 146.9 480.88 151.69 480.17 152.21 479.37 154.47 476.74 157.79 476.12 161.45 478.6 170.21 478.7 177.86 478.17 179.99 477.51 184.45 476.23 188.24 475.62 191.34 478.27 193.94 478.38 196.46 470.88 199.97 465.34 203.04 462.71 204 458.98 207.1 454.65 209.33 447.32 212.8 446.74 210.86 442.08 207.12 441.1 205.28 437.32 204.47 434.31 202.36 430.53 201.52 426.71 201.72 423.53 201.02 419.8 201.08 415.01 200.54 411.79 203.21 409.46 204.7 408.2 206.73 406.61 206.84 405.48 207.52 405.14 209.55 405.51 218.42 403.67 219.23 401.7 222.99 401.28 224.71 400.41 226.19 398.05 228.53 395.88 230.02 394.49 233 394.43 235.62 392.73 238.03 391.87 241.24 388.64 244.8 388.05 246.69 388.03 252.25 385.68 260.64 384.45 261.93 380.83 263.99 378.97 268.1 378.32 270.85 374.15 270.99 370.5 270.19 367.25 268.94 364.3 268.59 360.89 266.6 359.46 266.85 359.88 267.97 358.61 268.62 356.8 273.85 355.41 272.82 354.15 271.17 352.58 269.85 350.38 269.03 349.23 267.09 346.42 267.09 346.53 269.2 345.98 271.41 346.05 274.69 346.75 277.42 348.21 281.41 344.59 279.08 341.01 277.17 336.32 275.25 335.1 275.32 333.05 274.14 331.09 273.69 327.94 270.56 324.85 270.94 322.26 272.36 320.76 271.97 320.28 268.27 318.97 267.76 315.71 264.71 314.84 261.82 315.24 260.63 314.85 259.35 314.39 255.3 312.93 253.93 313.09 252.78 312.25 250.88 313.08 244.15 310.63 241.78 309.14 237.46 304.74 234.55 300.95 230.14 300.21 227.96 300.13 226.2 298.62 219.84 298.96 213.37 298.36 211.3 299.61 208.59 301.84 207.36 299.6 205.83 294.07 201.51 293.62 194.75 291.12 194.51 288.88 195.4 285.34 195.75 283.98 192.84 280.75 191.53 277.04 191.35 276.15 189.91 273.46 188.57 273.15 187.2 271.67 186.91 269.54 184.02 267.99 182.42 266.16 181.33 267.21 177.23 267.04 176.25 264.13 173.65 260.84 172.61 259 171.5 255.46 168.01 254.71 166.38 255.64 164.91 253.96 162.11 253.76 157.01 254.11 151.09 253.28 148.86 253.08 145.42 252.31 143.99 258.24 140.06 260.37 138.96 262.1 137.04 265.65 135.52 269.25 135.29 270.52 136.91 271.47 139.58 273.21 140.91 274.81 143.79 280.03 144.85 281.88 145.62 282.46 147.03 287.22 145.85 287.94 146.01 292.05 144.26 293.32 145.82 297.34 146.64 297.06 147.37 298.5 150.3 299.01 150.68 302.7 151.02 305.48 152.87 307.6 153.65 309.64 156.06 312.36 157.8 315.25 158.66 316.18 158.07 318.71 158.44 321.37 158.5 323.49 160.91 324.57 162.68 325.78 163.48 329.06 164.52 329.9 163.85 332.56 163.81 335.63 161.76 339.07 161.06 341.1 161.76 342.17 162.66 343.56 162.65 345.09 159.8 347.21 156.94 350.02 159.7 351.02 161.29 351.84 161.65 360.54 162.97 365.5 163.11 372.53 164.71 377.54 164.96 381.42 163.57 389.46 157 393.87 151 398.15 143.11 400.53 139.81 402.04 135.22 402.36 133.26 403.06 126.08 402.72 123.69 403.33 123.75 403.58 119.57 405.21 117.43 406.94 116.21 409.82 115.61 411.88 116.33 415.6 115.84 417.98 116.5 419.18 116.34 424.51 113.18 427.73 111.68 429.22 110.27 431.84 109.48 434.73 107.4 437.6 106.97 439.91 106.05 440.86 103.68 442.51 101.21 444 100.43 446.33 100.46 448.45 98.92 453.29 99.11 455.95 98.36 461.43 97.43 463.66 98.75 465.49 101.68 467.08 102.94 469.49 105.51 471.13 106.38 471.99 108.31 474.97 112.31 477.66 115.23 Z" id="38080320"/>
<path d="M 537.07 210.46 532.82 212.57 532.65 215.47 531.56 216.87 527.82 218.72 524.73 220.82 519.92 225.92 520.72 230.95 519.99 231.95 517.56 238.55 515.48 241.01 515.81 242.79 514.8 244.08 514.55 248.82 513.75 252.07 512.64 253.65 509.23 257.26 504.04 260.72 501.89 264.24 502.18 265.24 498.43 264.44 496.68 264.58 493.38 265.51 490.26 268.57 488.5 271.83 488.01 275.22 488.23 279.5 486.61 282.8 482.11 285.66 477.66 289.06 475.35 289.92 470.96 294.19 468.98 297.85 463.25 301.23 459.87 304.54 459.51 305.84 459.58 309.26 458.48 310.95 456.04 312.89 454.86 313.43 452.02 313.48 448.91 315.11 446.26 315.81 444.37 319 440.98 327.67 436.38 329.75 432.29 330.95 424.62 331.71 419.93 330.09 417.49 329.47 415.55 329.03 413.31 329.06 410.12 327.53 407.28 325.28 404.56 324.86 402.62 324.04 398.93 320.89 396.66 319.58 392.13 317.96 390.39 317.09 386.23 313.8 381.56 312.07 376.87 309.47 377.68 307.52 377.07 303.37 374.64 299.77 371.77 297.06 370.43 296.25 367.61 293.05 360.53 288.27 358.97 286.46 358.61 284.48 356.9 281.09 356.75 279.19 356.8 273.85 358.61 268.62 359.88 267.97 359.46 266.85 360.89 266.6 364.3 268.59 367.25 268.94 370.5 270.19 374.15 270.99 378.32 270.85 378.97 268.1 380.83 263.99 384.45 261.93 385.68 260.64 388.03 252.25 388.05 246.69 388.64 244.8 391.87 241.24 392.73 238.03 394.43 235.62 394.49 233 395.88 230.02 398.05 228.53 400.41 226.19 401.28 224.71 401.7 222.99 403.67 219.23 405.51 218.42 405.14 209.55 405.48 207.52 406.61 206.84 408.2 206.73 409.46 204.7 411.79 203.21 415.01 200.54 419.8 201.08 423.53 201.02 426.71 201.72 430.53 201.52 434.31 202.36 437.32 204.47 441.1 205.28 442.08 207.12 446.74 210.86 447.32 212.8 454.65 209.33 458.98 207.1 462.71 204 465.34 203.04 470.88 199.97 478.38 196.46 481.52 199.12 483.39 200.09 491.17 201.14 495.98 203.27 499.72 206.29 506.46 205.22 508.42 205.23 509.42 206.83 511.7 208.1 513.29 210.19 517.67 210.28 524.03 208 524.59 208.18 529.51 206.71 532.13 209.25 537.07 210.46 Z" id="38080330"/>
<path d="M 759.41 42 762.32 43.64 764.77 44.5 766.08 45.67 768.74 50.62 769.79 51.15 775.16 51.19 778.25 52.28 784.22 50.09 787.51 51.35 789.09 51.5 794.53 54.36 795.56 56.03 795.51 60.04 796.78 65.09 795.77 76.35 795.37 78.75 796.1 79.86 798.37 81.77 799 85.26 796.33 93.3 795.74 93.86 795.43 97.1 796.06 101.55 796.08 104.06 794.88 107.07 794.15 108.18 792.24 109.87 790.36 112 789.52 113.95 789.79 115.1 789.41 117.65 790.1 119.35 789.59 120.32 786.77 121.63 781.82 123.18 779.29 122.38 777.89 122.99 774.62 126.87 772.58 128.26 770.36 128.58 768.01 132.75 765.88 133.94 763.19 137.42 760.42 142.92 758.68 145.29 755.88 147.43 751.78 151.63 749.47 155.66 746.44 157.65 744.84 156.92 740.06 158.68 738.58 159.81 736.53 159.65 734 161.37 730.47 163.17 727.23 162.17 724.6 164.9 722.88 165.08 720.93 165.89 717.98 165.91 714.02 169.34 707.42 173.07 706.24 172.96 701.18 172.51 698.99 173.02 695.58 173.16 691.63 172.91 689.77 172.19 685.16 173.76 677.27 179.24 674.4 180.07 669.57 180.78 666.04 178.24 664.4 175.94 663.2 174.93 661.54 175.37 656.45 171.77 654.27 169.5 645.09 161.42 642.77 159.54 642.18 158.41 641.23 154.39 641.48 152.34 641.01 148.21 640.37 147.43 640.44 145.14 640.94 142.19 640.77 137.03 640.33 135.41 637.76 129.78 636.58 128.58 634.42 127.94 632.37 128.75 630.24 128.09 627.42 125.02 621.87 121.54 619.7 121.77 617.04 120.7 614.93 120.49 609.7 123.13 608.8 125 608.46 127.04 607.12 130.28 606.45 130.94 606.35 132.49 605.55 133.5 604.72 137.39 603.97 139.31 602.27 140.44 601.64 142.02 600.82 147.28 600.73 149.42 599.45 152.18 599.16 154.07 599.36 161.42 601.06 167.78 600.15 173.15 599.92 176.37 597.5 178.46 593.78 180.46 592.49 183.41 589.44 186.64 589.11 190.13 590.18 192.72 588.87 194.56 589.39 197.41 588.48 199.18 588.38 200.8 587.25 203.69 585.31 205.5 583.65 205.39 582.78 204.68 581.34 205.17 579.28 204.14 575.25 204.74 572.13 205.47 566.37 200.61 563.25 197.12 561.09 196.4 557.82 197.5 553.52 197.38 547.71 201.46 548.01 202.89 546.95 204.66 545.27 204.94 538.3 209.2 537.07 210.46 532.13 209.25 529.51 206.71 524.59 208.18 524.03 208 517.67 210.28 513.29 210.19 511.7 208.1 509.42 206.83 508.42 205.23 506.46 205.22 499.72 206.29 495.98 203.27 491.17 201.14 483.39 200.09 481.52 199.12 478.38 196.46 478.27 193.94 475.62 191.34 476.23 188.24 477.51 184.45 478.17 179.99 478.7 177.86 478.6 170.21 476.12 161.45 476.74 157.79 479.37 154.47 480.17 152.21 480.88 151.69 481.93 146.9 483.72 144.84 484.04 142.16 483.53 140.49 483.91 138.76 483.61 135.46 482.61 133.16 482.11 130.99 480.81 129.72 480.56 126.24 479.67 124.24 478.32 122.98 478.53 119.85 477.8 117.99 477.66 115.23 478.59 114.65 480.13 114.76 481.34 113.8 483.05 113.78 484.04 111.92 484.11 110.73 485.98 109.76 486.54 107.89 487.61 107.72 488.93 106.22 493.42 102.73 497.55 97.12 497.76 90.71 501.52 87.39 503.06 83.81 504.97 81.64 506.53 77.37 509.78 76.17 510.94 74.02 514.52 72.74 516.01 71.07 518.47 65.58 519.92 60.53 521.25 58.74 521.66 55.64 525.08 51.66 528.32 50.9 531.56 43.51 531.54 41.14 532.33 36.64 532.57 33.99 533.53 31.27 533.04 28.67 533.38 27.28 534.86 24.25 533.9 22.48 533.77 20.3 536.72 17.27 544.39 13.28 547.23 15.55 550.35 16.4 550.91 17.74 550.28 20.72 551.76 22.03 554.88 26.88 557.59 27.37 563.13 26.28 567.34 23.68 572.87 21.66 577.33 18.79 580.2 17.5 587.21 11.21 589.7 8.81 593.22 7.36 595.58 5.69 599.68 2.41 603.55 1 607.58 2.52 612.04 2.94 619.19 4.4 624.09 5.61 628.77 8.79 630.49 8.89 649.17 11.97 649.89 12.1 659.86 18.96 667.87 22.41 669.92 27.04 672.59 29.19 672.31 32.96 673.32 33.24 676.88 36.71 679.43 37.24 686.07 42.82 686.57 45.92 686.48 49.76 685.17 51.19 685.61 53.62 690.12 54.49 693.58 54.56 696.95 55.79 700.52 56.15 701.8 57.1 703.58 57.05 706.79 57.82 708.53 59.46 710.16 59.87 711.95 61.14 716.06 61.95 719.12 65.99 722.01 66.63 724.39 67.74 727.07 66.81 728.36 67.12 729.38 66.61 731.63 66.69 734.88 62.81 737.65 61.77 738.26 60.1 739.67 59.06 743.49 57.77 744.48 56.56 749.66 53.58 751.32 50.88 753.41 49.28 754.95 48.67 758.98 43.77 759.41 42 Z" id="38080340"/>
<path d="M 706.24 172.96 708.18 178.04 708.46 179.8 707.85 181.33 709.48 182.08 713.66 188.13 716.95 191.67 721.76 197.92 723.08 201.36 724.06 202.77 730.02 197.63 731.99 195.75 735.38 193.15 738.74 191.15 741.68 196.8 744.13 200.21 747.16 200.41 747.94 203.63 752.56 205.23 751.89 207.28 752.1 209.43 753.28 211.22 755.1 212.23 756.26 215.93 755.6 217.91 756.1 219.09 754.7 221.06 751.95 224.26 751.09 226.33 751.13 228.36 751.73 232.79 749.07 236.8 749.04 241.79 747.52 243.01 743.79 244.04 742.95 245.56 743.9 247.15 742.79 252.47 740.41 253.29 739.09 255.85 738.78 260.14 740.01 263.1 740.24 265.32 740.79 266.84 739.28 268.43 734.93 270.26 734.41 270.74 732.32 270.76 731.02 272.36 730.96 273.89 728.47 277.05 724.25 279.7 722.29 283.44 719.3 286.93 716.44 286.89 714.53 286.19 712.48 286.04 710.92 284.89 707.62 285.9 705.44 286.29 703.81 285.42 696.29 284.57 695.09 283.89 692.06 283.58 690.81 288.27 688.03 292.05 686.23 292.14 685.69 300.1 686.8 301.26 685.43 304.93 685.41 306.2 688.17 309.51 688.88 312.83 690.33 313.96 692.14 316.87 693.95 317.09 695.33 319.19 697.51 319.98 698.71 319.79 699.88 321.94 702.83 325.11 703.18 326.64 701.25 326.57 700.71 328.57 697.4 332.61 695.3 337.38 696.2 338.36 698.48 339.64 700.47 344.27 699.09 345.32 698.21 348.03 698.53 349.3 697.85 351.93 698.05 353.81 699.12 355.92 701.74 357.47 703.9 362.54 705.11 364.52 703.7 366.65 705.17 369.08 703.96 374.54 702.96 375.72 700.41 375.8 698.68 375.47 697.87 376.14 693.88 376.03 692.27 380.28 697.51 382.19 696.9 383.05 693.69 385.58 693.01 388.55 688.58 391.43 689.01 393.25 685.65 395.71 681.5 397.67 680.14 397.48 676.84 399.65 673.48 403.33 669.92 403.17 667.84 402.17 662.93 400.78 661.54 399.69 659.75 399.05 652.62 401.49 651.99 403.65 648.74 404.89 647.36 405.11 644.15 407.4 641 405.19 637.57 403.9 634.06 405.41 632.79 407.75 631.54 408.77 627.08 408.52 623.81 407.96 617.62 409.8 616.49 411.72 614.96 415.75 612.59 417.36 611.46 419.03 607.5 422.49 604.66 423.65 602.9 425.5 600.72 429.35 601.82 431.8 601.56 433.58 600.77 433.79 598.12 436.12 596.78 435.91 594.07 434.18 592.45 432.55 588.18 427.59 587.33 425.7 585.99 424.17 584.4 423.37 582.45 421.51 579.59 419.56 577.89 421.78 575.3 422.58 574.29 422.21 572.4 424.55 570.27 425.28 567.58 425.41 566.7 427.18 565.2 427.33 563.92 426.3 560.73 426.22 559.86 427.19 558.33 427.06 556.15 427.89 554.07 426.85 551.27 428.7 550.1 428.66 548.18 427.67 545.69 428.57 545.69 425.88 545.26 424.47 542.08 423.43 541.18 422.61 538.85 421.58 533.56 415.06 531.84 413.63 530.05 410.69 526.97 408.94 522.61 407.34 522.79 403.9 521.34 402.63 520.42 400.53 519.78 397.84 515.79 398.56 512.26 398.97 509.51 398.74 506.4 399.16 504.33 400.14 500.27 403.17 497.6 402.4 495.2 402.74 491.58 399.39 490.61 399.06 487.25 397 485.79 395.49 482.81 396.36 481.03 395.64 479.56 394.07 475.53 391.8 473.18 387.34 472.76 385.63 471.65 385.21 469.84 383.01 469.1 381.13 468.25 376.48 469.5 374.41 469.61 373.18 470.5 371.31 470.37 370.46 466.33 363.19 463.86 360.89 464.91 359.17 465 356.58 463.74 354.66 464.37 352.9 460.14 348.66 459.17 349.56 457.41 349.66 456.66 350.51 454.74 350.75 451.89 349.54 448.64 348.9 447.14 347.59 444.96 348.79 443.3 349.18 438.17 347.52 436.5 347.24 434.26 345.6 428.58 342.26 426.52 339.46 424.87 338.43 422.42 337.48 421.44 336.2 418.89 334.09 417.1 331.43 417.49 329.47 419.93 330.09 424.62 331.71 432.29 330.95 436.38 329.75 440.98 327.67 444.37 319 446.26 315.81 448.91 315.11 452.02 313.48 454.86 313.43 456.04 312.89 458.48 310.95 459.58 309.26 459.51 305.84 459.87 304.54 463.25 301.23 468.98 297.85 470.96 294.19 475.35 289.92 477.66 289.06 482.11 285.66 486.61 282.8 488.23 279.5 488.01 275.22 488.5 271.83 490.26 268.57 493.38 265.51 496.68 264.58 498.43 264.44 502.18 265.24 501.89 264.24 504.04 260.72 509.23 257.26 512.64 253.65 513.75 252.07 514.55 248.82 514.8 244.08 515.81 242.79 515.48 241.01 517.56 238.55 519.99 231.95 520.72 230.95 519.92 225.92 524.73 220.82 527.82 218.72 531.56 216.87 532.65 215.47 532.82 212.57 537.07 210.46 538.3 209.2 545.27 204.94 546.95 204.66 548.01 202.89 547.71 201.46 553.52 197.38 557.82 197.5 561.09 196.4 563.25 197.12 566.37 200.61 572.13 205.47 575.25 204.74 579.28 204.14 581.34 205.17 582.78 204.68 583.65 205.39 585.31 205.5 587.25 203.69 588.38 200.8 588.48 199.18 589.39 197.41 588.87 194.56 590.18 192.72 589.11 190.13 589.44 186.64 592.49 183.41 593.78 180.46 597.5 178.46 599.92 176.37 600.15 173.15 601.06 167.78 599.36 161.42 599.16 154.07 599.45 152.18 600.73 149.42 600.82 147.28 601.64 142.02 602.27 140.44 603.97 139.31 604.72 137.39 605.55 133.5 606.35 132.49 606.45 130.94 607.12 130.28 608.46 127.04 608.8 125 609.7 123.13 614.93 120.49 617.04 120.7 619.7 121.77 621.87 121.54 627.42 125.02 630.24 128.09 632.37 128.75 634.42 127.94 636.58 128.58 637.76 129.78 640.33 135.41 640.77 137.03 640.94 142.19 640.44 145.14 640.37 147.43 641.01 148.21 641.48 152.34 641.23 154.39 642.18 158.41 642.77 159.54 645.09 161.42 654.27 169.5 656.45 171.77 661.54 175.37 663.2 174.93 664.4 175.94 666.04 178.24 669.57 180.78 674.4 180.07 677.27 179.24 685.16 173.76 689.77 172.19 691.63 172.91 695.58 173.16 698.99 173.02 701.18 172.51 706.24 172.96 Z" id="38080350"/>
</g>
</svg>