<?xml version="1.0"?>
<svg xmlns="http://www.w3.org/2000/svg" version="1.2" baseProfile="tiny" width="800" height="567" viewBox="0 0 800 567" stroke-linecap="round" stroke-linejoin="round">
<g id="dong">
<path d="M 620.36 528.21 623.07 532.71 622.28 534.81 622.78 537.98 617.81 538.53 616.77 545.7 615.22 547.83 613.49 547.76 609.36 549.29 607.79 544.32 607.94 541.57 611.65 540.26 611.23 537.25 607.6 534.97 607.92 532.15 611.42 530.66 617.09 530.79 617.74 529.07 620.36 528.21 Z M 797.95 524.6 799 526.28 797.69 527.71 792.95 527.67 788.52 530.12 786.49 532.67 785.64 534.87 782.15 537.22 780.88 535.56 778.43 534.36 775.26 533.76 778.91 529.83 778.23 526.36 780.29 522.84 784.08 519.04 788.11 517.26 791.15 517.21 791.32 519.56 790.27 521.52 791.28 524.15 793.66 523.79 797.95 524.6 Z M 616.48 522.9 614.8 524.01 611.24 522.85 609.07 519.55 610.05 517.49 612.65 515.26 615.62 516.76 617.46 519.57 616.48 522.9 Z M 624.6 517.49 626.04 517.64 627.6 520.38 625.79 522.37 623.19 521.96 619.51 522.19 621.5 518.11 620.71 515.72 621.26 513.79 623.33 514.38 624.6 517.49 Z M 793.95 515.3 794.09 512.32 795.38 510.92 797.5 511.57 793.95 515.3 Z M 558.69 507.08 560.78 507.35 561.94 508.59 564.24 508.02 566.87 509.9 568.32 512.34 569.66 510.85 571.6 512.69 573.62 513.37 576.69 512.96 577.61 515.23 576.28 517.36 578.77 520.28 580.63 519.15 582.84 519.67 584.25 517.16 586.95 520.19 586.83 523.46 587.88 525.02 590.56 525.13 590.09 527.22 586.56 525.84 582.23 526.47 581.82 528.29 584.03 531.77 587.05 533.82 588.87 537.66 589.39 540.3 587.14 541.89 587.72 544.3 590.59 543.53 592.62 542.28 594.78 544.88 594.05 549.55 597.37 550.12 600.76 547.67 601.32 549.56 600.86 552.59 603.82 556.36 603.53 559.62 600.38 561.78 597.85 559.19 595.14 559.02 593.61 560.86 592.6 563.79 590.29 563.99 589.78 565.9 587.52 566 583.19 564.64 581.56 563.64 577.27 562.58 572.54 562.21 568.53 560.01 568.3 559.2 564.22 556.09 561.44 552.12 556.26 547.51 552.55 540.67 552.2 535.67 551.54 534.13 547.16 530.75 545.6 527.44 538.13 523.38 535.03 520.56 533.34 520.24 532.52 516.43 531.96 511.21 532.79 510.4 536.45 510.15 541.58 508.79 546.87 508.12 553.02 508.85 555.9 509.7 557.24 507.14 558.69 507.08 Z M 567.93 494.44 571.55 495.83 573.43 495.22 575.94 496.75 578.22 496.75 579.48 498.03 581.53 497.88 583.86 495.61 587.6 495.88 589.88 497.53 587.84 499.43 585.51 499.19 582.87 499.86 578.31 499.84 576.44 498.58 571.82 498.7 568.98 500.82 566.15 499.55 561.35 499.58 561.56 496.74 566.03 494.51 567.93 494.44 Z M 553.55 491.2 553.94 492.19 551.18 493.55 548.54 495.61 547 495.86 545.45 493.6 548.45 490.39 549.84 490.04 553.55 491.2 Z M 566.48 477.48 568.4 478.81 565.4 481.28 563.65 481.16 562.06 478.87 566.48 477.48 Z M 572.61 463.61 575.77 464.49 574.32 466.92 570.24 466.15 569.79 463.73 572.61 463.61 Z M 546.59 462.25 547.64 466.82 546.78 469.86 544.47 468.63 543.49 463.96 545.59 461.91 546.59 462.25 Z M 543.73 455.96 544.7 457.05 544.75 459.54 543.78 460.53 541.39 458.98 539.52 459.6 540.24 463.18 538.82 467.75 539.18 469.07 537.28 470.88 537.74 477.66 536.23 478.93 534.07 479.34 533.25 478.1 534.14 473.01 531.96 471.63 531.13 470.13 532.63 467.54 532.67 464.73 533.45 463.5 533.12 460.69 534.11 458.88 537.14 455.72 539.77 455.99 541.97 455.36 543.73 455.96 Z M 511.01 352 508.75 348.33 508.81 345.14 506.34 341.68 503.56 339.95 502.24 337.26 500.61 336.19 498.38 332.25 496.35 330.92 495.37 329.03 492.06 326.11 490.11 326.8 488.36 328.91 485.02 330.84 483.12 333.05 481.14 333.61 478.44 332.77 477.35 333.89 473.76 334.37 469.36 330.86 468.85 328.74 470.11 320.73 471.17 317.61 471.25 314.02 471.89 311.74 473.72 309.53 474.13 306.18 473.44 304.34 475.24 301.26 478.68 297.64 479.6 295.35 483.1 290.05 488.06 287.62 493.69 287.91 502.26 286.84 505.15 287.25 512.25 282.76 514.79 281.61 514.41 282.92 515.52 287.3 515.46 289.71 517.47 291.65 519.58 294.73 524.2 296.25 527.31 298.06 528.14 301.62 532.74 303.62 533.86 305.18 536.59 306.68 540.56 311.25 541.32 313.23 541.76 318.22 546.12 320.87 551.47 315.11 554.31 315.43 556.79 314.84 560.17 312.29 561.01 310.57 561.3 305.84 564.95 299.03 567.42 299.62 569.43 298.12 573.26 298.79 576.47 298.11 578.91 298.39 580.63 297.12 581.54 293.88 583.02 293.47 586.37 295.34 598 299.17 601.68 299.1 605.68 296.69 610.94 297.17 610.54 299.1 614.74 303.14 617.33 304.3 617.89 306.19 621.04 307.89 623.98 306.32 628.14 307.07 630.1 308.05 631.46 310.32 631.1 313.11 632.57 313.03 636.7 311.39 638.97 312.86 638.34 315.79 642.2 314.14 644.75 313.81 648.12 312.23 652.54 311.64 655.98 311.79 661.37 309.76 663.83 305.9 665.22 301.02 668.14 300.71 669.9 298.74 682.01 297.61 683.74 297.89 686.77 300.06 686.68 304.77 687.43 306.35 687.29 308.89 682.92 315.45 682.57 316.91 683.58 321.18 684.49 322.81 683.17 326.06 678.58 329.02 675.74 329.59 674.33 331.08 674.12 333.11 666.33 331.37 661.18 331.72 657.57 333.71 654.18 337.14 650.27 338.38 648.58 339.55 653.09 346.46 656.6 343.36 658.13 341.19 660.42 339.67 665.29 339.24 670.01 340.38 673.35 343.05 674.68 345.94 677.76 345.4 678.13 342.96 679.92 341.77 685.49 342.47 685.64 344.09 684.53 348.82 686.74 351.72 686.78 354.1 685.42 357.79 687.5 361.86 688.39 369.28 689.64 369.13 689.68 373.88 690.59 376.53 689.62 382.48 690.93 386.62 691.57 391.25 690.42 394.91 691.31 397.81 692.86 398.75 703.36 403.41 708.09 409.14 711.73 415.4 715.06 416.86 719.68 419.68 724.51 421.08 728.85 423.37 730.96 423.5 734.66 424.84 736.13 426.21 736.19 428.56 733.72 428.16 730.58 431.19 726.98 429.58 720.31 428.89 720.21 432.37 726.51 435.83 729.84 439.52 735 440.47 737.98 439.02 744.57 437.78 748 437.98 752.31 441.97 755.55 445.5 756.93 448 760.27 451.34 760.7 452.69 762.91 454.66 764.03 456.86 762.84 459.39 758.83 457.66 755.57 457.87 752.32 458.95 749.49 460.74 747.57 463.16 743.63 465.67 739.13 466.88 735.98 466.88 734.17 468.07 731.85 468.37 723.17 467.25 719.08 468.35 715.35 467.71 708.07 469.93 703.81 470.09 699.03 468.71 697.3 469.52 696.91 471.11 703.61 476.52 706.94 478.6 707.16 481.73 698.52 483.14 695.98 484.64 695.85 486.81 697.26 490.13 701.28 492.88 705.27 494.7 705.96 490.15 707.96 488.04 709.96 486.97 712.48 486.9 714.87 485.93 718.33 486.54 719.85 487.43 720.83 489.57 720.23 491.05 721.78 495.38 720.6 497.61 717.55 498.22 712.82 500.39 710.75 501.79 710.85 503.74 713.25 504.07 718.21 505.89 723.21 506.85 727.1 506.91 730.28 506.38 733.44 503.97 735.47 503.09 737.51 500.35 742.45 496.84 744.68 496.28 747.33 494 751.63 493.5 755.45 491.18 760.14 491.33 768.43 496.34 772.01 499.16 775.57 499.73 780.14 498.27 786.02 499.47 786.84 503.3 784.59 507.79 782.63 509.37 768.8 512.75 766.21 514.46 765.24 516.84 759.36 521.45 756.04 522.77 749.36 523.13 743.1 522.94 740.46 526.8 737.03 530 733.12 530.3 728.74 528.91 725.58 529.52 724.98 532.12 722.03 533.43 719.1 535.66 714.12 535.98 711.74 540.89 712.35 543 710.47 545.6 708.23 544.75 707.4 542.47 705.29 542.66 704.56 545.1 702.63 547.29 697.49 549.15 694.68 550.62 689.88 547.43 688.25 548.88 679.27 548.86 675.86 549.9 673.15 549.34 669.79 550.33 667.98 550.17 665.22 548.32 662.12 548.7 660.89 551.66 654.77 554.64 652.18 555.08 650.12 554.61 642.99 557.09 639.09 558.91 633.67 558.53 628.3 560.35 621.3 559.61 618.68 560.21 616.48 558.12 617.14 556.12 621.73 553.28 623.13 550.49 623.35 548.12 626.23 546.8 630.62 542.33 631.28 540.11 630.74 537.63 636.23 536.03 638.63 534.77 640.81 535.77 644.09 535.29 647.08 535.83 649.46 534.6 648.53 531.7 650.03 530.23 654.12 529.62 658.07 529.71 658.46 527.82 657.32 524.59 658.22 522.83 661.82 525.36 662.72 527.68 664.8 527.37 665.43 525.92 664.65 522.94 660.94 522.21 659.9 519.83 662.77 517.05 665.2 515.48 667.98 515.12 669.62 516.9 673.87 519.12 675.16 517.82 671.46 513.11 673.91 510.3 676.42 511.36 680.59 511.22 681.55 509.31 680.75 506.07 678.75 504.42 674.68 506.52 671.86 506.2 666.19 499.35 663 497.29 653.94 496.87 651.8 499.57 655.17 502.28 656.4 504.72 653.22 510.14 650.05 512.19 649.37 514.67 645.78 517.27 643.8 520.44 639.08 523.84 636.45 524.09 634.76 519.42 635.2 516.04 637.75 512.83 637.67 511.53 633.81 510.31 632.42 514.04 630.48 515.95 627.76 514.29 626.68 511.69 622.83 511.84 621.29 512.83 619.94 511.47 614.67 509.34 611.81 509.09 610.41 507.89 607.25 506.7 605.24 506.67 603.79 507.73 603.64 509.99 605.03 513.81 603.84 516.26 599.35 514.63 596.41 514.75 593.38 515.58 591.36 517.13 589.18 516.88 587.14 515.16 586.63 513.55 584.11 510.46 583.85 507.79 587.35 507.37 594.72 508.13 596.81 506.44 597.3 504.32 596.01 501.97 596.92 499.89 596.42 495.77 595.35 495.09 593.41 491.51 589.77 491.04 588.4 488 589.45 483.77 591.01 482.77 590.03 479.62 592.49 478.03 591.89 475.14 590.33 473.97 590.72 471.27 591.76 470.95 591.19 466.56 593.49 464.84 594.87 466.32 600.8 466.41 602.07 465.26 605.04 465.4 606.58 464.36 607.96 460.15 611.01 459.7 611.97 457.11 616.68 451.66 620.49 450.84 623.63 451.05 627.06 449.57 629.29 448.01 632.29 447.76 637.22 448.3 639.13 449.24 642.25 448.55 643.28 446.08 641.2 444.81 640.95 438.87 642.66 435.78 636.37 434.41 632.24 434.98 631.2 436.14 626.67 437.99 625.16 438.1 621.79 436.3 618.69 436.69 613.98 434.86 609.69 431.46 606.76 429.9 602.64 429.01 598.2 429.01 594.93 428.01 590.31 428.08 584.71 426.08 580.64 426.05 575.59 425.45 572.03 422.78 567.34 421.83 562.08 422.27 552.55 418.84 547.85 419.58 546.98 421.85 547.82 423.15 548.46 427.99 546.75 430.88 544.95 432.27 542.51 431.48 541.75 428.54 543.4 422.77 545.22 419.97 543.65 417.77 540.29 416.12 539.68 414.14 541.57 411.59 545.24 411.15 546.23 409.47 546.42 406.86 545.27 405.11 543.05 404.35 539.78 405.62 538.79 404.3 535.72 403.88 534.33 404.62 532.1 404.01 529.32 405.03 528.51 403.6 532.65 399.2 535.34 394.56 537.5 393.62 539.92 393.64 544.04 394.64 545.91 393.01 547.31 390.5 548.23 384.77 547.46 382.66 544.58 378.77 539.06 374.9 533.9 372.93 531.59 373.5 529.32 376.63 529.58 379.8 527.91 381.79 523.52 382.4 521.98 385.25 520.17 386.46 518.52 384.75 516.19 383.82 513.67 379.45 513.26 376.26 515.37 373.94 517.41 375.62 517.3 377.88 520.14 381.33 522.23 380.5 522.17 378.24 526.2 375.93 524.61 372.31 521.65 372.81 520.5 370.61 522.3 369.62 523.26 366.6 521.05 364.96 520.13 360.68 520.96 359.02 526.86 353.05 526.35 347.83 521.81 349.55 520.36 344.27 518.96 341.38 517.41 340.11 515.78 340.64 516.62 343.38 512.47 343.75 511.82 347.6 511.74 351.53 511.01 352 Z" fill-rule="evenodd" id="38113310"/>
<path d="M 407.69 501.4 408.31 504.9 409.7 505.78 410.25 508.55 408.2 511.32 404.5 511.64 404.05 509.11 400.89 506.46 400.94 504.41 402.34 501.42 405.19 500.16 407.69 501.4 Z M 384.9 463.49 386.5 464.63 390.26 465.26 393.09 468.88 396.62 471.67 402.38 473.6 402.17 478.77 399.65 479.65 397.96 482.41 394.86 483.99 392.86 486.53 390.28 487.07 386.79 486.2 385.08 484.71 384.02 482.06 385.93 476.84 386.5 472.79 385.22 467 384.9 463.49 Z M 445.75 441.53 444.97 441.54 443.01 438.28 442.5 436.32 444.03 434.84 446.06 438.28 445.75 441.53 Z M 398.07 430.65 399.66 433.2 398.41 435.13 398.36 437.13 400.78 439.23 398.06 443.11 398.08 446.29 399.79 450.31 400.93 451.78 401.41 454.5 403.74 456.68 403.88 460.26 401.72 460.12 400.27 456.38 395.97 447.97 393.12 444.94 391.73 444.71 389.84 446.21 388.7 450.22 389.68 451.7 387.6 452.98 386.16 452.14 387.39 450.01 388.07 446.7 390.98 445.1 390.8 441.63 388.74 440.68 386.07 438.24 383.94 440.64 381.39 439.97 383.86 437.59 384.44 435.79 386.29 434.93 386.99 432 389.63 431.8 391.51 430.71 393.89 430.68 396 429.48 398.07 430.65 Z M 453.13 421.69 454.43 423.35 451.07 425.58 448.33 428.72 446.33 428.74 444.39 427.15 444.93 425.34 446.7 425.18 449.26 422.16 453.13 421.69 Z M 472.28 420.84 475.48 421.28 475.83 423.02 472.04 424.16 469.75 426.46 470.3 428.31 467.53 429.43 466.22 430.82 465.58 434.9 466.72 436.98 468.88 437.67 468.59 440.34 466.57 439.38 464.26 439.81 462.23 444.26 463.27 445.64 461.41 446.86 458.91 443.34 458.55 439.93 456.88 437.14 456.39 433.94 456.61 430.26 455.17 427.28 455.57 423.89 457.92 424.49 460.21 423.76 463.43 421.12 466.15 420.82 468.63 421.65 470.44 420.37 472.28 420.84 Z M 484.52 401.06 483.44 402.61 483.63 406.17 482.67 407.63 480.24 404.29 480.9 402.31 484.52 401.06 Z M 321.03 404.81 323.39 404.91 324.77 403.96 325.09 400.55 326.07 400.43 328.72 394.76 334.4 393.17 331.06 383.87 327.52 380.64 332.81 376.87 335.74 370.8 336.51 368.31 335.85 364.82 334.54 363.79 337.86 361.91 340.76 361.76 344.57 363.12 345.08 362.6 351.41 363.49 352.98 363.33 357.03 366.04 360.66 364.69 356.57 360.05 356.31 357.83 358.04 356.95 356.67 350.92 355.11 347.41 355.08 343.95 356.23 340.14 358.51 340.34 362.52 338.57 364.19 339.7 367.36 336.32 368.95 335.81 370.82 337.37 372.21 335.23 372.37 329.43 373.41 327.59 373.4 324.38 379.34 323.35 386.35 325.12 392.69 322.22 397.84 317.77 396.99 316.37 397.15 313.9 395.91 310.84 395.33 306.19 396.32 301.46 395.04 298.46 396.46 296.02 399.24 293.01 408.14 277.91 409.85 273.19 411.49 271.81 412.1 257.5 413.32 254.71 411.1 253.17 408.52 249.42 403.68 244.54 403.97 242.67 402.62 232.24 393.5 228.46 393.1 225.76 391.93 224.96 392.06 220.94 392.79 217.32 394.12 215.12 394.74 209.89 396.18 207.6 398.33 205.63 399.55 200.13 399.04 196.6 399.76 189.93 400.68 185.77 400.7 183.12 403.61 179.4 405.19 175.74 406.86 173.38 409.09 166.75 411.28 163.54 416.59 159.55 420.43 153.68 425.44 151.36 430.22 149.87 435.42 154 438.21 154.64 446.61 150.6 453.84 153.65 460.71 154.35 465.27 152.38 469.5 149.87 473.53 158.35 474 163.78 476.61 167.42 482.45 174.17 483.01 174.14 488.57 177.99 493.45 182.66 498.92 184.52 501.37 187.72 502.52 191.08 504.86 194.24 508.41 194.41 510.12 196.68 514.66 197.56 514.5 199.21 516.54 203.39 517.73 204.31 521.59 204.79 523.55 206.29 524.12 208.27 521.2 216.44 520.78 218.97 516.76 223.19 513.69 227.71 510.55 228.18 509.66 229.89 503.03 232.55 501.92 239.73 498.77 241.39 498.51 243.07 496.78 244.92 497.38 247.55 500.75 250.1 502.01 254.38 500.77 259.54 500.81 263.04 505.2 263.93 509.64 265.8 511.48 268.38 514.96 274.91 514.79 281.61 512.25 282.76 505.15 287.25 502.26 286.84 493.69 287.91 488.06 287.62 483.1 290.05 479.6 295.35 478.68 297.64 475.24 301.26 473.44 304.34 474.13 306.18 473.72 309.53 471.89 311.74 471.25 314.02 471.17 317.61 470.11 320.73 468.85 328.74 469.36 330.86 473.76 334.37 477.35 333.89 478.44 332.77 481.14 333.61 483.12 333.05 485.02 330.84 488.36 328.91 490.11 326.8 492.06 326.11 495.37 329.03 496.35 330.92 498.38 332.25 500.61 336.19 502.24 337.26 503.56 339.95 506.34 341.68 508.81 345.14 508.75 348.33 511.01 352 509.1 351.92 506.37 356.14 508.84 357.51 509.46 360.52 505.5 365.73 502.9 365.41 501.27 366.3 501.78 369.39 501.35 371.1 498.36 374.01 497.39 373.95 494.78 377.29 498.14 378.51 499.11 379.84 497.25 382.58 498.17 384.66 495.26 387.48 494.71 390.32 491.01 390.72 490.64 393.81 487.9 394.54 485.98 393.58 481.73 390.42 477.11 389.84 470.39 391.91 469.52 392.76 470.62 397.4 468.96 401.28 469.42 405.93 468.92 410.43 467.51 413.26 463.69 416.19 460.51 414.5 460.93 411.27 460.34 409.13 457.97 408.04 456.12 411.55 453.35 412.35 451.97 414.01 450.44 413.22 450.1 409.91 446.93 410.28 444.87 412.72 437.62 412.49 434.91 414.95 431.57 414.86 431.31 411.86 429.88 411 426.06 410.58 421.61 407.07 420.08 405.16 418.5 405.5 417.37 402.32 414.95 401.92 411.1 405.31 404.35 407 404.22 406.31 411.02 404.59 413.08 402.59 406.87 396.52 404.73 389.06 403.05 387.58 398.68 386.9 393.54 386.72 387.17 384.96 383.94 383.42 380.23 383.87 378.77 385.21 375.45 384.66 374.62 383.56 372.14 383.71 378.69 390.14 378.75 392 375.42 398.43 376.61 401.76 376.17 405.21 372.71 405.24 372.27 407.93 371.15 409.54 367.96 410.11 366.81 411.92 365.08 411.02 364 402.77 360.46 403.16 360.02 408.58 359.17 409.88 355.59 412.74 351.55 413.17 351.52 415.14 349.22 414.35 345.84 416.45 344.33 414.35 342.8 414.06 337.82 416.22 335.28 416.79 334.97 414.56 331.79 415.57 328.92 414.76 329 412.29 327.72 409.81 324.94 409.39 321.7 407.31 321.03 404.81 Z" fill-rule="evenodd" id="38113320"/>
<path d="M 354.41 119.63 355.97 121.76 357.55 126.79 367.4 134.07 369.2 138.97 370.69 140.63 376.6 144.42 380.68 145.6 384.6 145.09 387.16 145.92 389.24 142.99 390.43 142.55 394.68 143.86 396.89 145.45 401.4 143.62 405.62 143.04 410.05 147.29 414.7 150.49 420.43 153.68 416.59 159.55 411.28 163.54 409.09 166.75 406.86 173.38 405.19 175.74 403.61 179.4 400.7 183.12 400.68 185.77 399.76 189.93 399.04 196.6 399.55 200.13 398.33 205.63 396.18 207.6 394.74 209.89 394.12 215.12 392.79 217.32 392.06 220.94 391.93 224.96 393.1 225.76 393.5 228.46 402.62 232.24 403.97 242.67 403.68 244.54 408.52 249.42 411.1 253.17 413.32 254.71 412.1 257.5 411.49 271.81 409.85 273.19 408.14 277.91 399.24 293.01 396.46 296.02 395.04 298.46 396.32 301.46 395.33 306.19 395.91 310.84 397.15 313.9 396.99 316.37 397.84 317.77 392.69 322.22 386.35 325.12 379.34 323.35 373.4 324.38 373.41 327.59 372.37 329.43 372.21 335.23 370.82 337.37 368.95 335.81 367.36 336.32 364.19 339.7 362.52 338.57 358.51 340.34 356.23 340.14 355.08 343.95 355.11 347.41 356.67 350.92 358.04 356.95 356.31 357.83 356.57 360.05 360.66 364.69 357.03 366.04 352.98 363.33 351.41 363.49 345.08 362.6 344.57 363.12 340.76 361.76 337.86 361.91 334.54 363.79 335.85 364.82 336.51 368.31 335.74 370.8 332.81 376.87 327.52 380.64 326.26 378.71 321.23 377.79 319.48 377.04 316.06 377.99 314.37 377.46 312.49 374.69 309.31 372.97 305.41 378.86 302.74 379.63 300.59 378.89 297.42 378.92 295.21 375.92 292.78 373.94 289.84 373.15 289.63 370.25 287.73 367.87 283.8 368.91 281.06 365.69 281.19 361.49 280.62 358.01 277.78 354.06 278.15 351 274.61 346.75 271.32 345.62 268.93 343.11 268.28 340.95 264.84 339.5 261.14 337.14 255.93 337.26 251.95 335.78 243.91 335.81 240.18 334.95 236.62 335.7 232.45 338.14 228.53 338.18 226.94 338.77 221.59 338.17 214.21 335.22 204.91 332.38 200.42 331.39 198.46 330.07 198.32 327.98 195.86 324.99 194.44 320.09 194.55 317 187.74 305.23 183.3 302.57 183.41 293.52 180.44 286.37 180.36 283.29 178.94 280.92 182.89 273.51 183.49 269.73 185.05 267.72 187.04 263.77 188.04 262.87 194.23 260.99 197.52 260.66 196.05 256.84 197.7 253.61 198.64 248.84 199.55 247.04 198.54 244.09 196.29 240.5 196.63 237.38 195.76 234.38 193.23 231.83 192.01 226.34 192.09 223.62 190.54 220.73 188.04 217.57 186.66 217.59 185.64 215 183.66 213.52 185.79 207.8 186.27 204.9 188.97 200.81 190.68 195.14 193.93 187.36 193.68 184.29 197.9 185.32 201.44 187.68 208.78 190.49 209.47 191.79 216.34 196.9 221.72 197.72 222.91 200.05 227.19 200.99 230.64 200.02 233.84 200.43 239.33 198.53 242.78 196.55 246.21 191.34 249.62 189.44 251.81 186.86 257.42 181.44 259.97 180.07 261.07 172.84 262.91 164.74 263.12 162.15 264.47 158.19 264.5 151.33 263.17 145.59 267.74 144.43 275.32 142.97 285.94 139.13 291.4 136.17 296.24 133.97 297.11 128.41 299.88 126.73 305.33 125.67 309.28 124.25 314.04 118.46 317.51 117.04 320.79 117.85 328.54 118.96 330.56 118.58 336.01 119.03 338.73 118.03 347.24 117.29 349.03 118.87 353.42 120.29 354.41 119.63 Z" id="38113330"/>
<path d="M 151.97 86.93 152.26 88.32 156.35 95.1 158.65 102.54 157.86 105.05 158.82 109.27 152.78 115.82 151.54 117.61 150.42 122.58 150.95 124.56 148.14 132.52 149.75 134.86 150.68 137.59 152.91 139.81 155.05 147.05 155.63 150.36 161.18 151.79 166.15 152.03 167.84 154.44 171.63 156.76 178.28 164.43 178.75 166.18 182 168.96 183.76 173.24 184.19 177.86 186.03 181.09 187.28 181.06 193.68 184.29 193.93 187.36 190.68 195.14 188.97 200.81 186.27 204.9 185.79 207.8 183.66 213.52 185.64 215 186.66 217.59 188.04 217.57 190.54 220.73 192.09 223.62 192.01 226.34 193.23 231.83 195.76 234.38 196.63 237.38 196.29 240.5 198.54 244.09 199.55 247.04 198.64 248.84 197.7 253.61 196.05 256.84 197.52 260.66 194.23 260.99 188.04 262.87 187.04 263.77 185.05 267.72 183.49 269.73 182.89 273.51 178.94 280.92 180.36 283.29 180.44 286.37 183.41 293.52 183.3 302.57 187.74 305.23 194.55 317 194.44 320.09 195.86 324.99 198.32 327.98 198.46 330.07 200.42 331.39 204.91 332.38 214.21 335.22 221.59 338.17 226.94 338.77 228.53 338.18 232.45 338.14 236.62 335.7 240.18 334.95 243.91 335.81 251.95 335.78 255.93 337.26 261.14 337.14 264.84 339.5 268.28 340.95 268.93 343.11 271.32 345.62 274.61 346.75 278.15 351 277.78 354.06 280.62 358.01 281.19 361.49 281.06 365.69 283.8 368.91 287.73 367.87 289.63 370.25 289.84 373.15 292.78 373.94 295.21 375.92 297.42 378.92 300.59 378.89 302.74 379.63 305.41 378.86 309.31 372.97 312.49 374.69 314.37 377.46 316.06 377.99 319.48 377.04 321.23 377.79 326.26 378.71 327.52 380.64 331.06 383.87 334.4 393.17 328.72 394.76 326.07 400.43 325.09 400.55 324.77 403.96 323.39 404.91 321.03 404.81 318.97 402.27 317.28 404.62 315.02 404.19 313.55 402.52 313.35 400.07 309.78 398.42 309.64 396.89 306.33 393.16 305.11 392.43 303.2 394.8 304.61 396.97 302.46 398.32 300.99 396.56 295.5 395.12 294.58 394.41 291.06 395.02 289.54 393.05 287.35 394.05 281.52 394 281.6 397.16 283.18 397.88 286.48 401.66 281.98 409.76 279.03 409.07 276.2 407.49 276.58 410.25 274.32 414 273.62 416.39 271.74 419.19 274.86 421.85 276.2 425.62 279.53 427.23 281.75 429.01 285.25 432.75 291.18 437.85 293.03 439.07 298.62 440.61 302.58 442.09 306.06 442.43 308.68 444.22 311.19 448.68 313.55 450.4 315.71 453.03 317.82 453.91 322.06 459.09 324.07 460.24 327.66 459.64 329.92 459.87 333.75 463.59 340.71 466.66 341.72 467.44 345.67 468.3 349.59 468.26 351.38 468.82 352.15 470.46 354.88 470.41 359.72 471.63 361.76 476.25 360.42 482.56 358.15 483.52 357.52 486.47 354.11 486.47 352.23 488.16 353.12 490.19 351.94 491.13 345.96 491.98 342.97 490.3 342.02 487.77 343.01 485.09 337.6 473.05 334.02 472.24 330.49 472.26 324.83 477.89 323.06 479.19 321.91 482.83 321.22 490.93 321.4 497.22 320.06 499.3 317.19 499.98 314.89 501.47 313.34 504.69 310.39 505.81 307.64 504.98 304.22 502.53 300.46 500.66 291.67 499.05 288.28 497.48 285.14 497.9 282.18 500.58 277.59 502.09 273.65 505.02 270.43 506.1 265.54 504.61 262.07 505.23 258 505.01 254.1 507.27 252.02 505.64 250.45 507.16 252.05 509.05 254.99 508.93 255.26 514.08 253.08 516.91 253.13 518.33 251.55 521.97 250.49 523.05 246.62 522.88 244.47 521.69 242.8 521.87 241.91 524.14 242.37 527.16 240.71 533.05 238.81 536.27 237.44 542.13 235.92 543.14 231.11 543.29 228.59 544.52 229.47 547.91 232.32 548.59 233.18 550.1 232.68 553.35 230.4 554.34 228.68 553.93 226.59 555.59 223.14 560.39 219.78 561.89 216.97 558.7 214.68 558.21 212.87 556.15 210.52 555.65 208.6 557.89 207.3 552.66 208.51 549.97 209.72 542.44 212.07 535.86 212.06 531.66 214.13 527.81 214.43 523.89 215.35 518.92 216.47 517.73 216.08 514.7 217.14 513.8 218.55 508.93 220.28 507.42 218.41 504.49 216.95 503.99 215.94 498.12 213.03 493.24 213.99 491.38 213.97 483.92 213.39 481.86 214.56 475.98 218.95 472.48 220.94 468.86 220.54 465.46 221.28 464.05 218.93 460.74 217.83 457.93 215.73 456.14 211.48 454.92 207.38 451.97 200.38 453.13 198.49 452.73 195.47 449.26 193.75 445.41 190.23 441.66 184.26 441.92 178.75 438.69 174.06 438.06 168.81 441.07 166.01 442.18 161.65 442.28 158.61 443.58 154.95 443.77 152.48 444.99 148.61 445.11 145.44 446.13 143.32 445.81 141.67 450.96 142.48 453.69 147.07 461.09 146.67 467.13 143.15 468.61 137.17 463.86 132.38 459.43 129.67 458.69 125.18 456.68 123.16 453.28 123.39 450.1 120.33 444.03 118.02 443.15 117.59 439.75 117.96 437.59 116.73 434.22 116.28 431.15 116.8 428.82 116 426.92 117.49 424.3 116.21 420.76 116.22 418.82 114.45 416.39 110.24 413.06 109.34 410.22 105.36 404.85 96.02 402.55 89.62 400.22 87.71 400.67 86.65 397.62 82.77 393.28 81.31 392.49 78.01 387.93 73.04 384.55 70.05 383.21 66.63 378.31 58.67 379.26 50.62 385.83 42.16 386.49 36.16 382.91 30.98 385.39 27.39 386.2 25.91 389.4 20.35 384.21 15.45 381.97 12.79 381.63 10.69 377.83 7.25 376.87 9.4 373.1 14.24 367.45 14.85 365.85 14.82 360.31 16.63 354.98 15.1 353.59 13.34 349.16 11.71 339.45 10.82 337.94 8.01 334.25 2.76 329.49 1.54 326.41 2.63 319.55 1.29 316.8 1 314.08 6.48 310.85 8.22 308.09 11.66 304.41 11.79 302.86 17.49 300.01 20.81 295.46 24.73 293.55 24.34 288.65 27.74 284.6 33.86 281.69 35.76 282.51 40.54 282.34 42.12 279.58 41.68 277.95 38.35 276.92 36.2 272.56 34.81 266.79 32.05 263.92 29.56 263.42 28.6 260.45 30.23 257.28 30.25 254.85 34.75 248.81 37.42 247.18 37.38 244.6 38.25 242.8 36.04 239.3 36.4 234.3 35.23 229.12 33.28 226.28 34.87 224.24 34.52 222.77 37.91 218.83 38.57 217.05 37.75 214 35.03 209.55 35.29 205.94 37.76 203.69 37.2 196.53 39.42 193.27 40.58 189.84 40.17 187.68 41.81 184.69 43.8 182.47 45.71 177.07 44.8 174.94 44.54 163.99 43.86 159.36 43.94 156.97 43.05 154.51 45.84 151.84 47.43 147.72 49.14 141.56 51.06 136.51 50.61 131.39 49.12 127.58 49.42 124.07 50.8 118.39 52.83 114.23 51.48 107.42 50.07 103.27 53.83 102.09 61.68 104.35 66.33 104.48 68.77 107.01 72.35 102.62 75.06 97.4 73.9 93.88 73.51 89.9 74.54 88.46 77.18 87.73 79.01 84.36 81.26 82.64 82.13 80.57 84.32 77.98 92.03 74.48 96.74 71.36 98.56 68.53 102.08 67.7 104.48 65.04 111.43 62.13 112.45 59.54 122.45 62.6 126.99 64.99 134.02 65.63 135.09 64.62 141.05 67.06 143.7 68.98 147.06 73.2 149.88 79.51 151.97 86.93 Z" id="38113340"/>
<path d="M 536.15 136.91 536.05 138.81 537.59 145.09 540.84 147.25 541.16 150.54 540.43 154.23 542.74 156.1 543.5 158.44 547.18 163.77 547.07 166.97 549.56 174.08 553 176.18 558.98 175.99 564.54 179.53 564.86 182.58 566.2 184.12 566.39 186.38 567.73 189.25 572.55 191.28 579.22 192.95 579.21 197.81 578.76 203.03 581.97 203.68 582.96 207.75 582.64 209.56 583.87 211.14 585.99 211.45 587.9 213.34 586.91 218.55 587.6 219.41 590.7 219.51 593.77 221.69 595.17 225.72 596.59 227.53 600.39 234.47 601.29 236.88 603.65 240.09 608.38 238.07 611.74 237.98 614.9 239.18 618.98 239.38 621.01 238.4 625.63 238.43 630.11 241.04 632.15 240.34 635.93 241.29 639.52 239.16 640.52 237.66 643.14 237.57 648.8 238.61 650.54 239.52 652.11 242.84 653.99 244.39 649.16 247.28 645.45 250.94 645.82 252.73 648.52 253.92 650.82 253.15 655.5 252.89 658.69 251.76 660.55 251.75 663.28 253.39 664.89 257.35 668.86 257.82 675 260.85 676.98 262.78 678.82 266.11 678.39 267.97 676.62 270.6 672.72 274.79 671.05 277.79 671.53 280.5 670.53 283.17 667.96 285.12 665.58 285.52 662.18 288.56 660.7 290.72 658.35 292 655.29 290.55 652.66 284.86 650.43 290.21 654.78 296.09 656.06 298.65 653.8 303.44 651.32 305.7 650.26 302.71 647.06 298.46 645.91 292.73 643.15 290.71 638.42 288.68 633.66 285.28 633.64 283.35 632.12 277.78 628.8 275.8 626.79 279 624.58 281.38 625.19 282.66 622.46 284.18 620.97 283.33 618.13 283.11 618.37 296.96 617.72 297.41 610.94 297.17 605.68 296.69 601.68 299.1 598 299.17 586.37 295.34 583.02 293.47 581.54 293.88 580.63 297.12 578.91 298.39 576.47 298.11 573.26 298.79 569.43 298.12 567.42 299.62 564.95 299.03 561.3 305.84 561.01 310.57 560.17 312.29 556.79 314.84 554.31 315.43 551.47 315.11 546.12 320.87 541.76 318.22 541.32 313.23 540.56 311.25 536.59 306.68 533.86 305.18 532.74 303.62 528.14 301.62 527.31 298.06 524.2 296.25 519.58 294.73 517.47 291.65 515.46 289.71 515.52 287.3 514.41 282.92 514.79 281.61 514.96 274.91 511.48 268.38 509.64 265.8 505.2 263.93 500.81 263.04 500.77 259.54 502.01 254.38 500.75 250.1 497.38 247.55 496.78 244.92 498.51 243.07 498.77 241.39 501.92 239.73 503.03 232.55 509.66 229.89 510.55 228.18 513.69 227.71 516.76 223.19 520.78 218.97 521.2 216.44 524.12 208.27 523.55 206.29 521.59 204.79 517.73 204.31 516.54 203.39 514.5 199.21 514.66 197.56 510.12 196.68 508.41 194.41 504.86 194.24 502.52 191.08 501.37 187.72 498.92 184.52 493.45 182.66 488.57 177.99 483.01 174.14 482.45 174.17 476.61 167.42 474 163.78 473.53 158.35 469.5 149.87 471.43 147.72 476.51 143.6 476.99 142.09 481.3 136.55 485.59 133.12 490.04 126.93 489.63 123.04 492.61 122.55 495.09 120.85 501.76 119.42 503.61 117.21 511.31 111.32 513.47 111.82 517.73 111.46 520.62 110.65 522.93 116.69 527.8 121.92 531.41 124.46 532.69 126.14 532.54 128.63 533.6 133.75 536.15 136.91 Z" id="38113510"/>
<path d="M 653.99 244.39 652.11 242.84 650.54 239.52 648.8 238.61 643.14 237.57 640.52 237.66 639.52 239.16 635.93 241.29 632.15 240.34 630.11 241.04 625.63 238.43 621.01 238.4 618.98 239.38 614.9 239.18 611.74 237.98 608.38 238.07 603.65 240.09 601.29 236.88 600.39 234.47 596.59 227.53 595.17 225.72 593.77 221.69 590.7 219.51 587.6 219.41 586.91 218.55 587.9 213.34 585.99 211.45 583.87 211.14 582.64 209.56 582.96 207.75 581.97 203.68 578.76 203.03 579.21 197.81 579.22 192.95 572.55 191.28 567.73 189.25 566.39 186.38 566.2 184.12 564.86 182.58 564.54 179.53 566.28 179.89 570.06 178.04 574.88 177.64 574.88 182.84 576.34 182.97 583.26 172.8 585.71 170.42 594.23 163.62 596.36 161.53 603.52 158.95 611.98 157.44 612.37 159.6 617.27 160.31 620.37 161.29 621.36 160.3 629.1 166.03 645.4 190.37 637.66 195.74 640.33 198.12 641.25 201.5 643.41 204.54 646.26 204.56 647.96 206.56 652.28 206.52 655.96 209.71 657.31 212.38 659.82 214.14 660.05 216.02 658.16 219.26 658.83 220.79 649.07 222.36 644.2 221.14 642.74 223.32 645.78 226.42 648.34 226.84 650.08 228.36 656.15 229.01 660.59 230.21 661.62 231.49 661.94 239.89 660.3 242.25 655.29 243.25 653.99 244.39 Z" id="38113520"/>
<path d="M 629.27 141.87 632.58 140.93 638.52 141.9 640.56 151.01 637.6 149.66 634.5 149.31 631.13 147.76 625.55 146.92 625.74 145.03 629.27 141.87 Z M 587.22 127.57 596.75 146.68 600.89 154.5 603.52 158.95 596.36 161.53 594.23 163.62 585.71 170.42 583.26 172.8 576.34 182.97 574.88 182.84 574.88 177.64 570.06 178.04 566.28 179.89 564.54 179.53 558.98 175.99 553 176.18 549.56 174.08 547.07 166.97 547.18 163.77 543.5 158.44 542.74 156.1 540.43 154.23 541.16 150.54 540.84 147.25 537.59 145.09 536.05 138.81 536.15 136.91 539.39 134.04 538.2 132.84 540.88 131.31 545.17 131.05 547.16 129.87 550.9 130.92 557.54 126.8 568.67 129.04 570.94 134.84 570.58 137.27 568.52 138.61 570.57 140.44 574.53 142 575.42 139.83 578.18 140.93 583.87 126.76 585.43 125.31 587.22 127.57 Z" fill-rule="evenodd" id="38113530"/>
<path d="M 596.94 106.62 598.24 104.88 599.87 106.09 603.48 105.55 605.65 106.97 606.99 109.38 608.89 116.54 613.07 122.69 614.65 126.87 614.9 131.84 613.12 137.04 610.6 139.9 604.08 143.61 600.67 144.15 598.08 143.29 596.01 141.13 592.58 134.32 592.39 132.64 594.93 128.72 596.52 119.92 594.76 115.15 595.4 111.83 598.38 107.68 596.94 106.62 Z M 587.58 119.3 586.84 120.3 590.46 124.91 587.22 127.57 585.43 125.31 583.87 126.76 578.18 140.93 575.42 139.83 574.53 142 570.57 140.44 568.52 138.61 570.58 137.27 570.94 134.84 568.67 129.04 557.54 126.8 550.9 130.92 547.16 129.87 545.17 131.05 540.88 131.31 538.2 132.84 539.39 134.04 536.15 136.91 533.6 133.75 532.54 128.63 532.69 126.14 531.41 124.46 527.8 121.92 522.93 116.69 520.62 110.65 523.11 107.02 534.05 107.52 536.52 106.93 538.82 108.06 541.07 105.3 542.61 105.25 547.03 101.76 550.62 101.24 552.61 99.18 555.33 98.42 558.41 104.32 565.27 108.53 567.66 109.6 569.83 108.54 573.7 111.12 576.01 113.9 584.55 117.06 587.58 119.3 Z" fill-rule="evenodd" id="38113540"/>
<path d="M 546.64 59.92 552.3 66.4 553.53 68.62 557.12 71.74 560.78 73.52 564.88 74.07 569.9 75.76 575.53 75 576.85 73.24 580.49 71.56 582.16 71.66 583.63 73.47 587.51 73.37 588.42 72.1 594.12 70.1 593.59 80.33 593.18 84.25 593.43 87.69 588.35 87.29 585.9 88.25 584.25 92.95 579.21 90.76 578.66 97.59 577.76 98.64 573.43 95.19 569.02 94.05 567.59 92.96 564.44 94.92 563.05 94.78 559.29 97.79 556.63 97.48 555.33 98.42 552.61 99.18 550.62 101.24 547.03 101.76 542.61 105.25 541.07 105.3 538.82 108.06 536.52 106.93 534.05 107.52 523.11 107.02 520.38 100.8 517.31 98.49 517.63 97.65 517.11 90.86 515.77 87.45 515.47 85.1 514.02 80.51 514.31 76.51 515.5 67.55 515.25 64.35 517.16 62.81 524.1 58.6 532.52 60.12 539.02 60.29 546.64 59.92 Z" id="38113570"/>
<path d="M 591.24 47.61 594.06 48.33 595.56 49.53 597.4 56.43 595.46 57.07 596.86 59.21 597.36 64.09 598.31 65.53 595.25 68.09 594.38 70.06 594.12 70.1 588.42 72.1 587.51 73.37 583.63 73.47 582.16 71.66 580.49 71.56 576.85 73.24 575.53 75 569.9 75.76 564.88 74.07 560.78 73.52 557.12 71.74 553.53 68.62 552.3 66.4 546.64 59.92 552.03 58.93 553.9 59.36 555.31 55.51 558.17 54.11 560.09 54.86 562.89 53.26 565.6 52.57 568.08 48.83 570.48 47.21 573.42 47.92 577.15 45.49 581.18 47.76 582.52 49.28 585.53 48.76 587.77 47.26 589.91 46.81 591.24 47.61 Z" id="38113580"/>
<path d="M 594.38 70.06 594.57 72.64 598.01 73.92 599.32 80.81 602.43 81.83 600.62 94.17 599.32 96.67 602.59 98.98 598.24 104.88 596.94 106.62 587.58 119.3 584.55 117.06 576.01 113.9 573.7 111.12 569.83 108.54 567.66 109.6 565.27 108.53 558.41 104.32 555.33 98.42 556.63 97.48 559.29 97.79 563.05 94.78 564.44 94.92 567.59 92.96 569.02 94.05 573.43 95.19 577.76 98.64 578.66 97.59 579.21 90.76 584.25 92.95 585.9 88.25 588.35 87.29 593.43 87.69 593.18 84.25 593.59 80.33 594.12 70.1 594.38 70.06 Z" id="38113660"/>
<path d="M 613.57 43.69 615.74 44.56 620.56 45.09 626.61 44.38 630.69 45.47 633.6 47.67 637.44 49.65 641.24 53.69 642.66 56.17 642.64 58.1 640.19 59.71 629.79 68.33 627.08 72.12 617.67 79.92 618.44 84.38 608.84 97.54 604.93 95.79 602.59 98.98 599.32 96.67 600.62 94.17 602.43 81.83 599.32 80.81 598.01 73.92 594.57 72.64 594.38 70.06 595.25 68.09 598.31 65.53 597.36 64.09 596.86 59.21 595.46 57.07 597.4 56.43 595.56 49.53 594.06 48.33 591.24 47.61 593.46 43.78 595.6 42.68 596.94 39.41 598.35 38.48 599.5 36.03 602.34 36.85 603.78 38.65 611.65 41.93 613.57 43.69 Z" id="38113670"/>
<path d="M 599.88 22.79 602.99 21.42 606.25 23.59 612.3 24.12 617.5 25.81 618.66 26.91 613.57 43.69 611.65 41.93 603.78 38.65 602.34 36.85 599.5 36.03 598.35 38.48 596.94 39.41 595.6 42.68 593.46 43.78 591.24 47.61 589.91 46.81 587.77 47.26 585.53 48.76 582.52 49.28 581.18 47.76 577.15 45.49 573.42 47.92 570.48 47.21 568.08 48.83 565.6 52.57 562.89 53.26 560.09 54.86 558.17 54.11 555.31 55.51 553.9 59.36 552.03 58.93 546.64 59.92 539.02 60.29 532.52 60.12 524.1 58.6 517.16 62.81 516.72 60.68 509.28 55.04 508.75 45.84 518.83 39.76 519.29 38.95 521.87 34.91 526.01 32.02 530.05 29.98 533.24 31.28 541.6 33.29 542.99 35.44 548.39 36.92 553.42 35.47 556.75 33.03 560.09 32.95 561.03 32.17 566.44 30.62 567.96 26.97 571.61 23.45 573.6 25.28 576.61 24.12 575.45 20.48 580.45 20.12 581.24 22.17 585.11 20.84 585.42 17.32 590.25 21.36 596.11 23.99 599.88 22.79 Z" id="38113680"/>
<path d="M 650.37 35.52 648.9 39.9 645.36 40.09 641.24 53.69 637.44 49.65 633.6 47.67 630.69 45.47 626.61 44.38 620.56 45.09 615.74 44.56 613.57 43.69 618.66 26.91 619.06 26.37 622.52 22.58 624.02 26.43 625.87 29.26 629.92 29.73 631.95 31.66 635.18 31.9 637.94 32.83 643.29 33.25 650.37 35.52 Z" id="38113640"/>
<path d="M 654.57 9.02 655.56 13.57 656.13 26.6 652.02 30.08 650.37 35.52 643.29 33.25 637.94 32.83 635.18 31.9 631.95 31.66 629.92 29.73 625.87 29.26 624.02 26.43 622.52 22.58 619.06 26.37 620.36 19.97 619.6 15.75 625.12 8.98 624.22 8.86 627.12 8.38 629.67 10.03 632.13 9.1 633.16 6.51 635.14 6.59 639.67 1 642.79 3.15 650.74 10.09 652.55 12.07 653.85 11.39 654.57 9.02 Z" id="38113650"/>
</g>
</svg>