<?xml version="1.0"?>
<svg xmlns="http://www.w3.org/2000/svg" version="1.2" baseProfile="tiny" width="800" height="577" viewBox="0 0 800 577" stroke-linecap="round" stroke-linejoin="round">
<g id="dong">
<path d="M 443.68 246.51 483.59 273.34 464.09 302.44 461 304.65 454.94 313.67 455.12 316.07 476.76 329.6 470.61 336.67 467.04 345.36 466.67 348.98 460.14 350.02 457.9 351.91 456.93 358.68 450.29 367.06 445.43 374.34 442.91 384.55 438.66 398.04 425.52 420.54 416.57 408.91 408.61 400 398.98 392.72 387.32 392.28 380.08 390.22 369.32 391.82 359.52 395.06 342.08 395.62 331.71 397.47 323.85 396.6 304.84 405.82 302.48 404.72 298.42 410.68 297.36 412.38 289.27 413.04 285.91 420.05 271.95 420.85 265.58 422.04 251.62 419.32 249.71 421.01 243.9 419.74 241.41 421.79 233.14 432.42 219.51 452.18 211.03 457.69 201.77 464.59 199.31 467.2 187.22 495.5 172.17 510.21 160.81 521.91 152.02 530.33 147.98 538.7 151.34 546.35 147.15 552.59 141.31 557.37 131.08 556.35 129.48 552.91 124.33 556.67 121.86 570.59 110.57 574.12 106.67 576 103.24 570.86 99.26 568.36 98.8 565.64 103.63 563.05 106.61 554.62 101 545.25 96.19 542.64 96.91 537.01 101.02 532.79 103.48 527.78 104.18 522.27 103.7 515.2 111.29 505.62 108.59 501.05 98.89 498.28 96.04 500.49 95.51 508.38 86.52 519.36 81.96 519.84 74.25 512.16 71.92 508.51 64 505.72 57.54 499.54 56.43 495.2 53.43 493.41 48.21 492.87 47.96 489.29 53.35 487.75 59.71 481.99 60.25 475.03 53.01 466.87 43.06 464.81 38.81 459.11 35.68 457.31 32.7 450.97 28.23 450.48 22.72 442.83 19.37 434.56 20.69 427.97 13.24 413.91 15.75 408.9 24.64 408.06 24.66 406.03 18.94 405.66 19.07 396.37 16.23 392.06 16.9 335.18 1.01 311.77 7.98 306.98 6 301.8 4.45 293.82 5.97 289.67 1 286.97 51.73 246.22 53 246.06 92.17 211.84 96.05 209.57 105.07 209.48 110.26 208.39 121.6 209.96 130.51 212.74 137.47 212.61 144.64 209.22 150.28 209.75 161.86 207.34 164.75 207.83 173.83 203.53 195.02 183.36 194.7 181.26 199.47 176.45 207.75 170.87 212.81 170.28 214.54 164.61 224.85 166.31 268.81 152.17 281.59 154.05 293.45 157.95 301.76 161.92 300.4 164.72 318.36 166.48 324.93 167.96 332.29 171.6 443.68 246.51 Z" id="38112570"/>
<path d="M 794.76 261.13 794.1 266.53 796.44 272.55 799 283.72 796.49 291.72 795.1 302.67 787.44 305.43 786.31 308.39 781.89 312.67 779.82 316.72 774.16 319.64 774.8 330.97 768.82 347.62 762.21 360.24 763.5 366.44 764.28 380.75 760.96 384.96 760.18 395.9 760.87 398.69 759.82 407.82 758.44 410.67 758.88 422.42 755.33 429.85 752.31 432.44 750.62 447.83 748.02 450.19 752.15 456.61 751 468.03 746.21 480.73 745.18 492.98 744.08 499.65 744.12 510.93 741.75 514.14 741.06 520.38 738.98 525.03 739.59 531.8 734.21 528.9 728.01 529.32 717.1 527.01 712.72 527.07 703.4 521.52 697.11 521.19 689.12 514.83 679.71 512.45 676.03 509.62 660.81 502.46 657.62 498.11 643.1 495.56 635.96 493.53 629.97 489.84 625.7 485.13 623.91 481.34 618.75 481.95 614.71 477.07 608.59 472.17 601.73 471.97 590.1 466.91 580.25 470.22 576.42 467.92 566.8 468.92 556.38 463.58 548.15 462.7 543.06 463 537.87 461.77 528 461.17 523.38 462.06 504.94 458.45 498.72 457.27 495.09 456.58 483.61 448.12 479.13 442.76 475.07 441.12 453.75 435.4 445.76 435.08 437.23 429.48 425.52 420.54 438.66 398.04 442.91 384.55 445.43 374.34 450.29 367.06 456.93 358.68 457.9 351.91 460.14 350.02 466.67 348.98 467.04 345.36 470.61 336.67 476.76 329.6 455.12 316.07 454.94 313.67 461 304.65 464.09 302.44 483.59 273.34 503.77 243.25 508.23 246.24 509.69 243.88 553.83 273.71 556.59 278.08 574.09 289.78 576.22 285.29 569.79 280.94 573 276.48 577.31 277.99 580.77 275.39 579.91 267.06 584.37 263.27 583.65 256.83 582.11 253.93 599.79 249.6 604.97 246.54 605.83 250.34 609.25 257.46 612.04 255.86 619.35 254.2 612.98 247.38 616.08 241.46 616.97 236.88 620.72 235.9 635.01 236.54 636.81 242.63 644.2 243.56 653.81 253.05 661.46 258.84 668.21 261.22 676.75 261.41 682.11 257.01 682.5 254.51 679.74 238.99 682.86 230.26 695.34 234.64 701.98 233.48 709.83 238.2 718.16 235.56 726.99 237.57 740.43 238.4 748.6 236.53 755.9 235.75 757.93 233.27 768.74 233.83 766.73 238.92 771.46 246.02 777.44 252.69 786.17 257.82 790.9 258.27 794.76 261.13 Z" id="38112560"/>
<path d="M 410.37 86.67 445.04 110.53 466.09 124.75 442.27 160.26 457.14 170.78 457.15 177.31 456.06 183.87 452.79 192.84 451.54 197.52 452.4 208.7 463.9 216.43 443.68 246.51 332.29 171.6 324.93 167.96 318.36 166.48 300.4 164.72 301.76 161.92 293.45 157.95 281.59 154.05 268.81 152.17 224.85 166.31 214.54 164.61 216.28 159.44 220.99 152.73 216.9 150.76 220.49 145.9 265.48 83.03 269.7 85.86 271.42 83.86 264.73 79.37 274.92 63.57 276.5 63.12 277.76 64.15 293.81 39.28 299.88 37.82 307.21 31.48 342.75 48.51 364.27 61.15 365.1 59.76 388.98 73.79 410.37 86.67 Z" id="38112520"/>
<path d="M 451.53 24.08 448.83 28.86 446.27 29.24 439.67 39.84 440.73 40.57 410.51 84.59 410.37 86.67 388.98 73.79 365.1 59.76 364.27 61.15 342.75 48.51 307.21 31.48 299.88 37.82 293.81 39.28 299.9 29.82 303.44 29.06 308.83 24.85 322.17 17.28 367.74 2.09 371.53 1.28 390.18 1 392.17 1.36 448.8 22.69 451.53 24.08 Z" id="38112510"/>
<path d="M 514.31 81.52 520.81 92.52 525.88 104.83 531.29 113.63 513.56 137.9 502.92 153.32 488.93 139.82 466.09 124.75 445.04 110.53 410.37 86.67 410.51 84.59 440.73 40.57 439.67 39.84 446.27 29.24 448.83 28.86 451.53 24.08 452.67 23.98 484.98 51.06 500.14 61.26 504.9 66.94 514.31 81.52 Z" id="38112580"/>
<path d="M 682.86 230.26 679.74 238.99 682.5 254.51 682.11 257.01 676.75 261.41 668.21 261.22 661.46 258.84 653.81 253.05 644.2 243.56 636.81 242.63 635.01 236.54 620.72 235.9 616.97 236.88 616.08 241.46 612.98 247.38 619.35 254.2 612.04 255.86 609.25 257.46 605.83 250.34 604.97 246.54 599.79 249.6 582.11 253.93 583.65 256.83 584.37 263.27 579.91 267.06 580.77 275.39 577.31 277.99 573 276.48 569.79 280.94 576.22 285.29 574.09 289.78 556.59 278.08 553.83 273.71 558.24 273.45 575.03 247.91 577.32 241.73 577.2 233.59 573.89 220.02 574.09 216.28 569.31 194.3 564.34 182.47 564.44 180.2 559.31 173 555.73 176.12 549.28 176.59 545.86 181.62 539.13 182.23 538.6 187.75 534.3 190.35 527.69 191.51 522.51 184.87 507.24 158.91 502.92 153.32 513.56 137.9 531.29 113.63 525.88 104.83 520.81 92.52 514.31 81.52 528.5 72.99 539.07 69.23 547.66 70.53 550.15 72.97 556.93 73.6 572.63 64.43 599.62 53.15 606.09 55.71 619.35 52.98 622.33 57.28 627.35 61.55 639.88 57.38 645.96 52.1 649.87 52.8 660.01 50.1 666.44 47.29 670.82 52.21 665.62 61.16 667.26 64.85 663.33 70.33 665.36 75.2 664.43 80.35 666.15 86.75 662.58 93.21 662.18 100.03 659.35 106.57 647.95 120.26 641.33 122.58 641.93 130.97 649.28 136.85 650.4 142.64 649.7 159.9 652.57 164.99 654.18 171.04 658.68 178.5 655.11 186 659.64 191.74 663.91 201.52 667.91 205.97 670.87 212.86 678.97 221.1 682.86 230.26 Z" id="38112540"/>
<path d="M 553.83 273.71 509.69 243.88 508.23 246.24 503.77 243.25 483.59 273.34 443.68 246.51 463.9 216.43 452.4 208.7 451.54 197.52 452.79 192.84 468.1 195.06 475.15 192.01 477.3 193.83 484.29 191.97 489 191.92 495.36 195.12 500.31 196.57 507.48 192.42 515.46 191.86 522.51 184.87 527.69 191.51 534.3 190.35 538.6 187.75 539.13 182.23 545.86 181.62 549.28 176.59 555.73 176.12 559.31 173 564.44 180.2 564.34 182.47 569.31 194.3 574.09 216.28 573.89 220.02 577.2 233.59 577.32 241.73 575.03 247.91 558.24 273.45 553.83 273.71 Z" id="38112550"/>
<path d="M 452.79 192.84 456.06 183.87 457.15 177.31 457.14 170.78 442.27 160.26 466.09 124.75 488.93 139.82 502.92 153.32 507.24 158.91 522.51 184.87 515.46 191.86 507.48 192.42 500.31 196.57 495.36 195.12 489 191.92 484.29 191.97 477.3 193.83 475.15 192.01 468.1 195.06 452.79 192.84 Z" id="38112530"/>
</g>
</svg>