<?xml version="1.0"?>
<svg xmlns="http://www.w3.org/2000/svg" version="1.2" baseProfile="tiny" width="800" height="733" viewBox="0 0 800 733" stroke-linecap="round" stroke-linejoin="round">
<g id="dong">
<path d="M 394.93 276.51 394.68 278.88 395.65 280.52 395.6 282.6 392.48 288.33 390.98 290.41 387.76 290.81 386.4 291.79 383.1 291.81 381.33 292.62 380.37 294.1 380.67 296.18 378.72 298.39 379.57 302.05 377.39 307.02 374.05 310.09 371.5 310.27 367.52 316.22 365.68 317.4 363.62 314.29 359.55 312.99 357.01 313.43 354.73 312.4 350.05 313.89 352 321.39 352.68 322.89 356.46 335.48 356.46 336.45 354.49 341.87 356.95 342.4 361.68 346.42 361.65 348.29 364.19 351.01 363.26 352.6 363.72 354.43 365.31 356.75 364.83 358.7 366.94 360.12 369.79 359.24 369.7 362.01 368.67 364.53 366.74 365.81 366.48 367.03 368.66 369.48 368.58 371.05 366.46 375.68 366.6 378.72 373.03 378.61 375.57 379.17 379.29 381.36 382.4 382.32 381.47 385.02 381.62 387.08 380.8 393.37 385.12 400.12 386.63 401.14 388.79 403.86 388.19 405.36 388.64 407.65 387.95 412.03 388.66 416.07 389.8 416.75 389.99 420.74 382.37 429.84 382.92 432.91 382.12 434.75 382.91 437.09 384.76 450.38 384.96 453.02 377.21 450.87 375.55 451.6 372.68 450.93 369.97 449.37 367.36 448.87 363.42 449.54 360.07 448.86 359.29 451.63 358.07 452.22 355.45 455.27 356.46 457.97 355.47 461.18 355.13 465.49 353.68 468.8 353.43 471.85 353.98 475.05 352.84 478.94 352.18 483.31 353.23 489.28 356.43 489.82 356.72 493.08 355.31 494.56 355.73 500.27 351.44 499.64 350.04 498.8 348.4 499.5 346.33 498.57 343.33 498.39 338.03 497.39 335.2 496.39 335.04 493.25 332.42 492.68 330.16 490.67 328.49 491.46 324.73 491.01 319.17 497.34 316 499.35 314.27 504.93 314.26 507 312.51 509.12 312.52 510.29 315.22 512.01 317 515.07 316.88 516.46 313.35 518.49 312.72 519.88 309.8 521.25 308.86 523.02 306.1 525.53 300.08 525.86 296.38 526.47 295.89 529.04 293.56 530.9 293.22 533.12 292.11 535.06 292.8 536.29 289.41 539.34 289.05 541.8 285.79 544.76 285.14 546.18 284.09 552.25 281.4 556.33 275.74 552.81 273.48 544.84 270.39 540.5 268.96 539.26 265.08 538.64 264.44 532.14 264.74 531.19 263.54 527.06 262.24 525.52 261.81 523.3 263.67 520.47 263.85 518.32 260.38 517.31 257.53 518.35 252.85 515.84 250.98 515.57 251.46 513.57 250.3 512.27 250.5 508.58 251.15 507.6 248.65 504.34 246.87 503.09 246.22 501.01 244.56 500.68 245.07 497.78 244.71 494.15 243.12 490.99 244.38 489.94 243.15 485.08 241.22 482.11 241.53 479.23 238.66 478.54 235.76 475.18 233.09 471.06 233.96 469.12 233.93 465.63 233.23 464.14 235.78 461.57 235.01 458.38 235.7 457.49 233.91 455.25 233.93 453.85 231.54 451.85 230.08 449.55 229.08 446.64 228.32 440.65 230.32 437.84 229.51 430.75 228.64 428.57 231.48 428.39 231.83 425.96 233.08 423.09 232.18 418.92 232.92 416.94 230.77 411.9 229.28 411.52 227.44 407.84 227.91 406.22 226.91 402.57 227.43 398.96 226.31 397.63 226.16 387.29 229.06 385.83 231.97 382.99 233.48 378.73 235.51 375.23 236.69 371.81 237.58 370.91 237.37 366.13 236.58 364.82 238.58 359.58 235.9 357.36 233.75 353.46 233.59 351.26 232.39 349.03 232.51 346.52 235.17 344.26 236.9 340.98 236.19 340.16 237.3 337.5 240.01 335.66 240.89 334.07 238.29 330.71 237.69 327.13 234.59 325.89 235.73 324.31 237.64 319.88 241.61 314.45 243.46 314.66 244.35 313.04 248.93 310.7 249.66 309.01 254.05 308.94 257.65 305.72 258.9 303.38 260.92 302.35 263.77 302.77 266.96 306.26 268.22 304.5 273.22 302.28 274.79 298.99 276.24 297.58 278.7 299.11 282.35 306.83 285.56 309.42 288.89 308.54 293.05 305.95 295.05 305.19 294.43 301.97 296 301.25 298.99 301.91 302.78 300.66 304.98 300.7 297.13 272.91 319.18 266.72 327.79 265.36 327.59 263.12 325.92 261.32 326.44 259.36 329.97 260.05 332 261.7 334.95 260.4 336.29 258.64 338.69 258.16 340.2 260.44 348.19 267.21 353.85 264.78 356.25 264.26 358.57 264.66 360.57 265.84 363.15 268.53 363.52 271.02 365.09 273.12 367.69 273.36 370.87 275.75 374.19 275.22 375.92 272.23 377.06 271.26 380.09 272.46 382.17 271.1 389.16 271.93 392.76 275.98 394.93 276.51 Z" id="38520110"/>
<path d="M 799 391.06 794.5 392.7 788.59 394.43 785.07 394.8 779.35 397.86 777.4 399.4 773.34 400 770.35 402.33 766.16 404.06 764.1 404.44 757.92 402.57 740 389.5 737.46 390.62 731.73 388.28 729.93 385.73 725.62 383.86 724.07 384.3 714.95 380.69 711.64 380.69 707.88 382.47 707.53 384.06 704.92 385.77 699.12 387.9 693.42 392.5 689.43 392.55 688.76 394.5 687.01 396.34 683.9 398.12 682.15 400.54 680.88 401.08 677.12 399.32 673.07 399.16 667.07 398.06 665.93 397.16 663.38 397.75 660.8 401.18 660.69 403.91 658.03 406.19 658.18 408.35 656.68 409.75 657.45 413.02 653 414.24 650.96 413.89 650.11 411.44 647.54 410.39 643.26 406.86 640.74 410.78 637.87 407.89 634.52 407.99 630.11 406.22 630.22 402.55 626.76 403.92 623.57 403.58 620.54 404.81 617.3 406.8 615.31 407.41 612.09 406.6 611.2 408.12 608.09 408.56 605.76 407.48 599.53 408.12 597.12 407.23 595.6 408.58 592.45 408.1 590.99 406.58 590.36 402.43 588.08 398.18 586.41 394.03 582.92 392.83 577.91 392.96 576.56 394.08 574.62 393.09 571.92 392.96 570.03 390.93 566.96 389.72 565.36 389.87 561.34 387.64 558.99 388.47 558.25 389.99 556.18 391.83 552.86 390.7 547.74 393.02 546.05 392.94 544.94 393.17 541.99 390.07 537.95 389.27 537.25 385.37 537.18 381.24 533.83 382.29 532.85 381.37 529.05 380.72 525.28 378.59 524.32 377.55 520.94 376.23 518.28 376.57 514.73 375.7 510.76 377.63 508.47 377.78 506.13 376.66 498.05 375.7 494.62 373.86 490.79 373.74 487.81 370.89 481.28 367.63 475.81 367.3 475.05 364.39 474.02 362.82 473.29 359.31 468.42 357.26 466.88 355.87 466.1 350.78 464.43 347.56 463.87 344.38 461.57 342.41 459.62 339.42 461.78 336.7 465.51 329.43 465.69 327.48 469.1 323.45 471.33 316.41 472.59 311.04 473.64 308.42 478.89 303.42 479.82 301.35 481.25 300.38 480.27 294.28 482.43 289.43 484.96 287.28 487.65 287.3 491.9 288.16 493.29 289.06 496.71 288.3 500.38 291.22 503.03 290.64 510.56 295.17 514.31 295.44 518.13 291.61 519.53 289.1 522.3 289.31 529.28 294.5 532.61 295.68 537.41 296.07 540.88 295.13 544.67 292.65 546.53 292.15 548.73 293.42 549.99 293.16 551.77 294.55 556.96 294.22 559.77 296.22 559.72 300.71 564.48 301.52 565.52 302.57 568.19 299.12 571.06 297.08 572.84 297.06 574.43 294.36 576.57 288.72 576.84 286.65 576.04 280.52 572.86 274.69 571.22 272.65 575.45 271.07 578.18 268.79 580.64 267.51 587.06 266.85 589.91 265.28 595.04 268.02 598.53 268.66 600.59 267.69 601.87 264.2 602.04 262.05 603.26 259.96 603.61 256.03 606.43 257.29 610.26 257.5 612.49 253.96 614.6 253.84 617.69 255.16 620.71 254.36 623.72 254.91 629.22 256.76 630.84 255.41 633.83 254.58 636.95 251.79 639.56 251.3 641.15 251.76 643.94 249.88 649.01 247.5 651.09 245.59 651.09 244.26 653.61 240.99 655.23 240.21 656.74 237.41 656.29 235.18 659.23 234.43 662 233.01 664.8 232.36 669.13 230.3 671.36 227.24 674.75 228.58 677.46 230.55 680.83 235.46 685.93 235.67 690.51 235.4 694.92 233.25 702.73 231.68 704.88 232.3 709.49 231.86 712.04 232.22 714.41 231.63 718.67 231.54 725.05 230.13 728.91 225.76 733.84 230.01 736.55 234.69 738.17 233.41 741.6 239.12 741.71 241.75 743.71 243.82 745.58 244.65 746.53 246.92 748.52 248.76 747.3 251.46 748.76 254.82 747.42 257.24 747.61 261.71 750.72 263.72 754 267.01 756.47 270.19 757.99 270.96 760.23 269.3 763.11 270.15 766.02 276.66 771.39 279.61 772.56 280.76 773.61 283.87 772.49 285.19 770.8 288.94 767.15 291.81 761.49 294.41 758.53 297.44 757.48 299.1 757.31 301.31 751.98 305.47 750.33 306.37 750.52 308.89 752.94 312.85 755.55 323.64 759.75 330.31 760.19 336 761.09 338.4 767.92 345.31 772.57 348.4 773.48 355.43 772.19 358.23 773.3 361.35 773.6 367.2 776.47 374.28 777.93 375.5 793.21 376.92 795.46 384.04 799 391.06 Z" id="38520120"/>
<path d="M 484.34 545.17 480.74 549.44 477.94 550.96 477.78 552.75 471.76 555.68 470.24 558.04 466.87 560.06 463.15 560.58 461.71 560.3 459.75 563.04 459.48 564.71 455.36 568.89 452.43 569.63 446.12 572.14 443.44 578.49 442.06 580.39 437.92 581.17 436.63 582.61 432.09 585.58 428.85 586.51 426.05 588.24 425.62 593.16 421.45 592.57 417.33 592.42 415.97 593.39 413.63 597.52 411.43 597.22 409.03 594.58 408.69 590.9 411.11 583.04 409.21 579.91 403.25 587.04 402.65 592.87 401.47 597.62 399.54 602.9 398.71 602.46 391.78 601.23 389.45 600.15 387.74 597.14 386.48 598.96 382.72 599.6 378.38 598.25 375.02 598.63 371.14 600.43 369.52 603.27 363.07 603 358.83 602.42 358.79 603.54 355.17 605.42 352.88 605.86 350.71 607.54 347.77 607.49 345.86 609.7 343.85 614.27 342.05 617.32 339.64 619.45 336.26 621.16 333.02 626.09 332.35 626.41 330.41 619.54 327.81 613.7 324.69 609.79 322.24 608.01 316.72 605.76 315.73 606.69 309.22 606.1 305.03 603.89 295.77 601.06 293.36 599.9 292.15 597.2 290.27 596.65 288.64 594.1 288.3 589.91 291.39 588.85 292.53 584.78 294.47 582.76 295.81 580.15 297.08 575.43 297.67 569.63 293.3 568.25 289.24 566.52 286.54 562.85 282.59 558.65 281.4 556.33 284.09 552.25 285.14 546.18 285.79 544.76 289.05 541.8 289.41 539.34 292.8 536.29 292.11 535.06 293.22 533.12 293.56 530.9 295.89 529.04 296.38 526.47 300.08 525.86 306.1 525.53 308.86 523.02 309.8 521.25 312.72 519.88 313.35 518.49 316.88 516.46 317 515.07 315.22 512.01 312.52 510.29 312.51 509.12 314.26 507 314.27 504.93 316 499.35 319.17 497.34 324.73 491.01 328.49 491.46 330.16 490.67 332.42 492.68 335.04 493.25 335.2 496.39 338.03 497.39 343.33 498.39 346.33 498.57 348.4 499.5 350.04 498.8 351.44 499.64 355.73 500.27 355.31 494.56 356.72 493.08 356.43 489.82 353.23 489.28 352.18 483.31 352.84 478.94 353.98 475.05 353.43 471.85 353.68 468.8 355.13 465.49 355.47 461.18 356.46 457.97 355.45 455.27 358.07 452.22 359.29 451.63 360.07 448.86 363.42 449.54 367.36 448.87 369.97 449.37 372.68 450.93 375.55 451.6 377.21 450.87 384.96 453.02 384.76 450.38 382.91 437.09 382.12 434.75 382.92 432.91 382.37 429.84 389.99 420.74 389.8 416.75 388.66 416.07 387.95 412.03 388.64 407.65 388.19 405.36 388.79 403.86 391.05 403.36 393.55 405.09 397.12 405.86 398.64 406.86 399.86 406.05 402.87 406.49 404.86 405.74 406.01 403.5 408.35 406.13 411.3 404.75 413.1 406.88 413.88 409.15 411.55 411.91 412.36 414.08 412.09 416.28 413.01 417.37 416.04 418.48 420.61 417.12 423.57 421.84 427.56 418.26 432.75 421.55 431.52 425.42 431.86 427.34 429.03 428.83 427.65 430.71 425.36 430.99 421.89 433.99 418.53 436 417.6 438.23 417.62 441.32 415.56 444.03 415.75 445.06 418.9 447.98 419.09 450.94 419.95 454.59 422.32 455.22 422.55 459.92 425.4 460.08 427.11 463.62 428.26 463.54 432.82 471.19 434.07 471.42 435.47 473.7 438.56 474.36 439.46 475.72 441.67 475.75 443.24 477.72 445.12 478.51 446.03 480.58 449.92 484.91 451.87 487.71 451.61 491.61 450.63 492.34 448.88 497.53 448.12 500.78 444.69 502.42 444.42 506.97 445.84 507.94 446.75 511.96 447 517.06 447.52 519.4 449.13 520.56 451.01 523.61 454.21 525.44 455.94 525.53 458.82 524.39 461.63 524.74 464.83 522.25 466.88 526.1 469.64 527.46 470.81 528.86 475.88 530.51 478.72 531.94 480.7 534.14 481.05 538.8 482.22 543.71 484.34 545.17 Z" id="38520310"/>
<path d="M 234.59 325.89 237.69 327.13 238.29 330.71 240.89 334.07 240.01 335.66 237.3 337.5 236.19 340.16 236.9 340.98 235.17 344.26 232.51 346.52 232.39 349.03 233.59 351.26 233.75 353.46 235.9 357.36 238.58 359.58 236.58 364.82 237.37 366.13 237.58 370.91 236.69 371.81 235.51 375.23 233.48 378.73 231.97 382.99 229.06 385.83 226.16 387.29 226.31 397.63 227.43 398.96 226.91 402.57 227.91 406.22 227.44 407.84 229.28 411.52 230.77 411.9 232.92 416.94 232.18 418.92 233.08 423.09 231.83 425.96 231.48 428.39 228.64 428.57 229.51 430.75 230.32 437.84 228.32 440.65 229.08 446.64 230.08 449.55 231.54 451.85 233.93 453.85 233.91 455.25 235.7 457.49 235.01 458.38 235.78 461.57 233.23 464.14 233.93 465.63 233.96 469.12 233.09 471.06 235.76 475.18 238.66 478.54 241.53 479.23 241.22 482.11 243.15 485.08 244.38 489.94 243.12 490.99 244.71 494.15 245.07 497.78 244.56 500.68 246.22 501.01 246.87 503.09 248.65 504.34 251.15 507.6 250.5 508.58 250.3 512.27 251.46 513.57 250.98 515.57 252.85 515.84 257.53 518.35 260.38 517.31 263.85 518.32 263.67 520.47 261.81 523.3 262.24 525.52 263.54 527.06 264.74 531.19 264.44 532.14 265.08 538.64 268.96 539.26 270.39 540.5 273.48 544.84 275.74 552.81 281.4 556.33 282.59 558.65 286.54 562.85 289.24 566.52 293.3 568.25 297.67 569.63 297.08 575.43 295.81 580.15 294.47 582.76 292.53 584.78 291.39 588.85 288.3 589.91 288.64 594.1 290.27 596.65 292.15 597.2 293.36 599.9 295.77 601.06 294.82 603.45 288.39 606.14 286.17 608.61 282.91 609.38 281.22 611.99 276.87 614.88 269.73 618.13 267.7 620.52 266.89 622.44 264.81 624.03 263.12 627.15 260.68 627.83 259.72 629.16 260.09 632.85 261.15 636.1 258.65 640.94 255.33 645.01 253.08 642.65 248.77 642.54 241.51 640.44 238.03 641.54 234.06 640.02 234.7 639.08 234.03 635.4 232.5 634.35 230.29 630.09 223.99 626.73 222.21 621.95 219.48 620.68 216.03 613.56 216.26 611.33 214.15 606.53 212.16 603.63 208.39 600.56 205.24 600.11 203.79 599.19 203.65 596.64 201.4 595.25 194.61 594.2 193.06 593.65 190.01 597.65 187.24 597.66 185.57 598.71 180.64 599.19 175.21 600.44 173.24 600.53 171.71 601.53 169.11 601.27 164.2 597.81 159.6 599.4 156.45 602.15 151.83 602.16 148.65 603.92 146.13 604.07 144.16 603.49 143.25 604.64 140.53 604.22 137.37 601.78 136 599.07 134.12 590.64 132.23 590.21 127.43 585.02 125.14 584.81 122.67 579.64 123.73 577.42 123.02 573.51 121.64 569.7 120.46 569.06 118.89 565.85 118.41 562.38 116.29 562.41 113.76 559.23 108.51 556.07 106.5 556.88 104.93 558.92 97.57 558.07 91.22 559.85 86.41 560.07 83.55 555.61 82.26 552.7 83.24 548.85 82.87 547.93 87.76 535.94 84.9 525.97 81.94 521.36 78.63 519.47 76.38 514.22 76 512.15 73.94 511.46 71.35 508.59 69.4 509.87 66.26 510.64 60.91 511.41 59.99 505.03 56.96 503.1 51.26 501.4 51.99 497.36 51.79 494.17 55.04 490.88 57.37 484.68 60.27 483.44 62.66 478.17 62.17 476.66 63.15 473.39 61.29 471.28 59.24 470.28 52.44 464.05 50.24 462.64 47.52 463.38 46.1 462.99 40.45 464.08 39.67 466.62 32.19 468.66 29.7 466.45 23.05 463.34 20.92 461.9 17.35 457.7 15.36 456.24 12.12 455 9.43 452.83 4.74 451.68 1 451.15 5.02 439.63 7.36 433.65 7.96 428.51 9.62 421.53 10.18 417.41 13.33 406.3 21.47 395.06 30.78 390.81 51.94 383.41 58.24 381.34 62.02 379.69 67.02 374.97 69.35 372.01 68.35 367.42 63.76 361.06 61.11 358.03 57.67 353.31 51.1 350.27 43.54 338.05 40.99 328.36 40.53 317.32 40.54 313.65 42.9 306.21 46.74 295.09 51.52 283.94 56.1 275.74 58.21 272.75 69.68 263.76 79.6 253.78 81.74 251.6 97 247.56 107.45 241.54 111.44 241.51 113.16 243.1 112.01 246.97 110.83 248.16 107.88 248.08 106.8 250.57 108.29 253.77 107.47 258.2 108.41 259.39 111.52 259.4 111.66 263.83 110.79 267.43 109.32 270.85 109.76 275.01 109.61 278.42 108.89 281.86 109.78 283.15 113.39 284.91 113.26 286.36 110.93 288.6 110.84 290.24 115.17 292.38 116.77 294.97 117.83 300.66 120.37 304.93 122.48 304.89 145.75 311.27 143.76 304.03 144.65 303.58 150.36 306.53 150.93 305.69 155.52 302.32 157.74 298.16 159.96 297.72 161.87 295.59 162.22 292.87 163.07 291.29 165.25 291.08 166.85 289.04 169.66 287.64 169.66 286.31 171.63 283.72 173.09 285.93 174.25 289.47 176.33 292.09 179.28 293.7 182.52 296.09 184.57 296.78 185.07 298.29 188.43 302.01 190.61 303.46 192.28 301.75 194.69 302.71 198.55 303.49 198.55 304.81 200.49 308.09 200.89 310.19 203.72 311.62 206.05 313.68 207.68 313.46 210.53 315.47 213.02 319.27 213.67 323.37 216.13 325.47 221.15 323.07 222.89 322.95 224.22 321.79 227.21 321.23 231.44 322.99 234.59 325.89 Z" id="38520320"/>
<path d="M 305.42 206.98 310.11 209.53 312.78 213.01 314.93 217.32 315.97 220.36 318 228.26 317.13 233.87 316.26 235.15 310.92 235.92 309.83 237.16 308.61 242.01 309.83 245.56 313.6 249.17 313.93 252.09 315.07 253.76 318.27 253.77 319.82 254.4 320.8 256.39 320.94 258.73 321.78 260.26 325.92 261.32 327.59 263.12 327.79 265.36 319.18 266.72 297.13 272.91 304.98 300.7 302.78 300.66 298.99 301.91 296 301.25 294.43 301.97 295.05 305.19 293.05 305.95 288.89 308.54 285.56 309.42 282.35 306.83 278.7 299.11 276.24 297.58 274.79 298.99 273.22 302.28 268.22 304.5 266.96 306.26 263.77 302.77 260.92 302.35 258.9 303.38 257.65 305.72 254.05 308.94 249.66 309.01 248.93 310.7 244.35 313.04 243.46 314.66 241.61 314.45 237.64 319.88 235.73 324.31 234.59 325.89 231.44 322.99 227.21 321.23 224.22 321.79 222.89 322.95 221.15 323.07 216.13 325.47 213.67 323.37 213.02 319.27 210.53 315.47 207.68 313.46 206.05 313.68 203.72 311.62 200.89 310.19 200.49 308.09 198.55 304.81 198.55 303.49 194.69 302.71 192.28 301.75 190.61 303.46 188.43 302.01 185.07 298.29 184.57 296.78 182.52 296.09 179.28 293.7 176.33 292.09 174.25 289.47 173.09 285.93 171.63 283.72 169.66 286.31 169.66 287.64 166.85 289.04 165.25 291.08 163.07 291.29 162.22 292.87 161.87 295.59 159.96 297.72 157.74 298.16 155.52 302.32 150.93 305.69 150.36 306.53 144.65 303.58 143.76 304.03 145.75 311.27 122.48 304.89 120.37 304.93 117.83 300.66 116.77 294.97 115.17 292.38 110.84 290.24 110.93 288.6 113.26 286.36 113.39 284.91 109.78 283.15 108.89 281.86 109.61 278.42 109.76 275.01 109.32 270.85 110.79 267.43 111.66 263.83 111.52 259.4 108.41 259.39 107.47 258.2 108.29 253.77 106.8 250.57 107.88 248.08 110.83 248.16 112.01 246.97 113.16 243.1 111.44 241.51 107.45 241.54 108.53 238.57 106.76 235.96 105.75 233.46 100.71 216.62 98.19 205.62 97.15 194.58 95.14 183.57 92.82 172.56 92.08 161.52 92.52 150.46 93.73 144.41 97 139.32 103.49 131.08 106.28 129.46 108.43 129.09 113.61 127.12 122.19 126.25 131.11 127.57 136.06 128.71 144.85 131.2 149.98 133.42 158.48 138.07 160.89 140.29 164.01 143.9 169.47 148.91 177.24 159.8 183.39 170.73 189.14 181.67 192.54 187.44 200.26 196.27 220.52 204.3 234.41 207.67 248.31 211.59 262.15 212.35 276.02 214.98 289.87 216.28 303.62 212.52 305.55 208.68 305.42 206.98 Z" id="38520330"/>
<path d="M 486.49 68.05 491.17 76.52 488.5 77.74 488.33 79.18 486.74 81.96 487.46 83.69 487.08 85.96 484.52 92.77 487.31 95.02 488.69 97.72 487.93 102.5 488.64 103.47 488.05 106.78 488.4 108.35 490.76 112.77 493.01 113.55 494.23 114.86 496.38 119.38 497.7 123.5 493.9 125.15 493.26 126.16 495.13 128.61 494.65 130.48 495.5 131.73 498.11 132.86 498.2 135.69 500.18 137.79 500.55 140.92 501.42 142.22 501.59 145.77 498.85 145 495.78 146.04 494.38 145.55 492.67 148.5 492.47 151.07 490.66 152.23 490.51 154.23 488.25 155.31 484.43 153 482.67 151.46 480.81 152.57 479.16 151.9 478.44 154.32 476.36 158.34 478.75 161.27 478.35 163.23 479.45 164.39 479.5 167.15 478.41 169.05 479.15 170.4 481.4 169.99 484.22 171.27 482.92 177.17 483.88 178.36 487.11 179 489.41 181.83 493.34 181.84 496.14 184.09 501.6 184.85 500.99 186.68 498.67 189.05 498.06 191.79 495.87 194.66 496.59 197.57 498.54 199.49 498.57 201.95 499.66 203.71 501.72 205.35 504.66 205.91 505.86 206.78 511.07 208.06 512.69 207.48 516.36 209.96 521.8 212.35 525 217.8 524 219.92 521.66 222.24 525.14 227.27 525.35 229.11 527.14 232.18 528.27 232.95 528.47 237.42 526.72 240.62 525.59 245.04 522.66 247.1 518.18 248.8 516.33 249.02 512.08 247.38 507.61 247.81 503.62 251.07 502.32 250.81 501.22 252.84 502.03 254.23 500.54 259.36 502.13 265.11 500.9 267.31 497.13 268.76 494.77 271.03 492.66 270.33 490.82 271.11 489.22 270.62 486.54 271.46 483.95 270.31 480.24 272.13 478.23 271.16 480.32 266.61 480.72 264.73 480.05 262.24 478.51 259.81 478.47 258.19 473.93 253.64 472.8 251.71 469.75 250.75 468.22 248.64 466.77 248.38 465.81 246.77 465.15 243.82 462.2 241.03 458.4 238.47 456.14 238.86 453.4 237.89 450.08 237.99 446.64 237.55 444.96 240.75 444.83 243.41 443.22 244.48 442.46 247.43 442.68 250.5 439.51 252.27 437.01 252.32 435.51 251.46 433.46 254.41 428.06 255.15 425.01 252.86 423.68 254.27 420.1 254.57 416.99 258.75 413.67 258.23 412.07 261.23 410.53 262 409.51 265.7 403.77 265.25 402.61 269.61 401.77 271.29 395.96 274.91 394.93 276.51 392.76 275.98 389.16 271.93 382.17 271.1 380.09 272.46 377.06 271.26 375.92 272.23 374.19 275.22 370.87 275.75 367.69 273.36 365.09 273.12 363.52 271.02 363.15 268.53 360.57 265.84 358.57 264.66 356.25 264.26 353.85 264.78 348.19 267.21 340.2 260.44 338.69 258.16 336.29 258.64 334.95 260.4 332 261.7 329.97 260.05 326.44 259.36 325.92 261.32 321.78 260.26 320.94 258.73 320.8 256.39 319.82 254.4 318.27 253.77 315.07 253.76 313.93 252.09 313.6 249.17 309.83 245.56 308.61 242.01 309.83 237.16 310.92 235.92 316.26 235.15 317.13 233.87 318 228.26 315.97 220.36 314.93 217.32 312.78 213.01 310.11 209.53 305.42 206.98 303.39 201.47 296.72 190.55 289.19 182.68 287.6 179.68 275.09 168.88 270.2 162.85 267.28 157.98 267.31 154.17 267.34 151.18 269.48 146.88 270.96 142.15 274.45 136.94 281.43 133.73 288.18 132.57 301.97 131.1 315.77 130.04 329.59 129.65 339.16 134.42 343.54 136.04 350.16 136.97 350.66 135.48 349.22 134.22 352.97 123.65 357.09 123.01 364.09 125.64 366.54 125.29 372.77 122.95 374.94 122.64 381.08 118.65 384.59 115.67 385.32 113.61 384.5 111.4 375.68 100.52 367.61 89.63 364.69 84.49 362.19 78.68 362.21 75.33 363.92 71.78 367.42 67.52 369.71 63.1 373.92 56.34 383.12 42.88 390.75 36.14 396.76 33.77 405.62 30.66 407.28 33.55 416.96 44.41 424.72 49.32 435.28 55.1 440.19 58.1 452.62 62.16 468.98 66.03 480.39 68.12 486.49 68.05 Z" id="38520340"/>
<path d="M 653.61 240.99 651.09 244.26 651.09 245.59 649.01 247.5 643.94 249.88 641.15 251.76 639.56 251.3 636.95 251.79 633.83 254.58 630.84 255.41 629.22 256.76 623.72 254.91 620.71 254.36 617.69 255.16 614.6 253.84 612.49 253.96 610.26 257.5 606.43 257.29 603.61 256.03 603.26 259.96 602.04 262.05 601.87 264.2 600.59 267.69 598.53 268.66 595.04 268.02 589.91 265.28 587.06 266.85 580.64 267.51 578.18 268.79 575.45 271.07 571.22 272.65 572.86 274.69 576.04 280.52 576.84 286.65 576.57 288.72 574.43 294.36 572.84 297.06 571.06 297.08 568.19 299.12 565.52 302.57 564.48 301.52 559.72 300.71 559.77 296.22 556.96 294.22 551.77 294.55 549.99 293.16 548.73 293.42 546.53 292.15 544.67 292.65 540.88 295.13 537.41 296.07 532.61 295.68 529.28 294.5 522.3 289.31 519.53 289.1 518.13 291.61 514.31 295.44 510.56 295.17 503.03 290.64 500.38 291.22 496.71 288.3 493.29 289.06 491.9 288.16 487.65 287.3 484.96 287.28 482.43 289.43 480.17 286.65 477.77 282.87 476.45 281.9 475.89 277.91 475.23 277.05 474.7 272.6 478.23 271.16 480.24 272.13 483.95 270.31 486.54 271.46 489.22 270.62 490.82 271.11 492.66 270.33 494.77 271.03 497.13 268.76 500.9 267.31 502.13 265.11 500.54 259.36 502.03 254.23 501.22 252.84 502.32 250.81 503.62 251.07 507.61 247.81 512.08 247.38 516.33 249.02 518.18 248.8 522.66 247.1 525.59 245.04 526.72 240.62 528.47 237.42 528.27 232.95 527.14 232.18 525.35 229.11 525.14 227.27 521.66 222.24 524 219.92 525 217.8 521.8 212.35 516.36 209.96 512.69 207.48 511.07 208.06 505.86 206.78 504.66 205.91 501.72 205.35 499.66 203.71 498.57 201.95 498.54 199.49 496.59 197.57 495.87 194.66 498.06 191.79 498.67 189.05 500.99 186.68 501.6 184.85 496.14 184.09 493.34 181.84 489.41 181.83 487.11 179 483.88 178.36 482.92 177.17 484.22 171.27 481.4 169.99 479.15 170.4 478.41 169.05 479.5 167.15 479.45 164.39 478.35 163.23 478.75 161.27 476.36 158.34 478.44 154.32 479.16 151.9 480.81 152.57 482.67 151.46 484.43 153 488.25 155.31 490.51 154.23 490.66 152.23 492.47 151.07 492.67 148.5 494.38 145.55 495.78 146.04 498.85 145 501.59 145.77 501.42 142.22 500.55 140.92 500.18 137.79 498.2 135.69 498.11 132.86 495.5 131.73 494.65 130.48 495.13 128.61 493.26 126.16 493.9 125.15 497.7 123.5 496.38 119.38 494.23 114.86 493.01 113.55 490.76 112.77 488.4 108.35 488.05 106.78 488.64 103.47 487.93 102.5 488.69 97.72 487.31 95.02 484.52 92.77 487.08 85.96 487.46 83.69 486.74 81.96 488.33 79.18 488.5 77.74 491.17 76.52 486.49 68.05 494.19 67.22 513.58 64.57 518.08 59.79 521.58 54.68 524.28 53.29 532.38 42.08 539.98 30.87 548.51 19.64 566.83 4.3 592.67 1 594.66 7.65 600.53 18.59 605.02 24.21 605.74 24.66 617.89 32.53 627.7 40.09 624.96 41.87 625.44 54.19 626.21 58.11 625.28 59.25 619.33 60.71 619.24 62.15 620.5 66.3 620.85 72.47 619.61 74.19 616.32 74.6 611.84 76.39 606.69 79.81 602.32 80.63 594.13 84.21 595.01 86.22 592.57 89.14 587.16 97.85 582.31 103.57 581.08 105.58 577.57 115.26 575.09 113.76 574.26 116.72 570.29 121.91 568.63 125.94 568.23 129.52 566.96 133.42 567.89 137.41 567.72 140.86 564.86 144.22 562.93 147.66 559.9 150.11 559.41 152.95 559.68 156.12 561.76 156.49 565.81 162.48 569.27 163.19 570.72 164.77 574.35 166.19 578.13 170.33 580.88 172.52 582.51 172.48 586.2 173.72 588.68 175.26 591.41 175.1 591.45 177.98 593.34 178.4 593.48 180.03 596.55 178.37 600.32 178.51 602.98 181.51 603.25 184.36 605.5 186.6 606.58 190.44 603.53 191.7 607.69 198.98 610.71 200.54 613.42 202.55 616.11 202.16 617.58 204.62 616.64 209.69 615.43 213.45 617.63 214.13 620.34 215.91 624.88 215.25 626.75 216.37 629.97 217.1 631.27 216.53 632.4 218.8 632.82 226.26 635.12 228.66 634.35 232.19 636.34 233.61 637.17 236.72 641.89 239.84 643.9 239.05 646 239.93 650.2 239.27 651.48 238.25 653.64 239.14 653.61 240.99 Z" id="38520350"/>
<path d="M 755.38 61.96 756.09 70.72 752.9 83.45 750.66 86.43 749.97 88.77 750.7 91.59 752.17 92.91 752.42 97.35 754.13 99.02 755.6 102.98 757.69 105.16 758.16 107.5 754.92 109.47 752.82 109.85 752.19 112.96 750.28 116.38 744.73 120.17 744.01 121.33 744.24 126.73 744.08 131.46 742.2 133.03 737.3 133.37 735.11 132.9 734.11 134.61 728.99 135.21 726.88 134.83 723.06 135.81 718.6 135.59 719.77 139.56 720 142.05 713.8 148.82 714.89 149.39 715.9 151.72 717.15 152.42 721.91 153.62 722.85 155.46 727.35 157.79 727.42 159.63 722.76 162.94 721.56 165.3 723.55 169.17 725.23 169.52 726.66 172.04 726.99 174.77 730.9 180.09 728.94 181.71 728.88 184.76 730.52 187.92 730.55 189.13 732.74 191.84 740.11 195.7 741.92 199.79 740.75 205.23 738.61 207.85 737.13 215.76 731.77 220.19 731.3 221.62 729.12 223.49 728.91 225.76 725.05 230.13 718.67 231.54 714.41 231.63 712.04 232.22 709.49 231.86 704.88 232.3 702.73 231.68 694.92 233.25 690.51 235.4 685.93 235.67 680.83 235.46 677.46 230.55 674.75 228.58 671.36 227.24 669.13 230.3 664.8 232.36 662 233.01 659.23 234.43 656.29 235.18 656.74 237.41 655.23 240.21 653.61 240.99 653.64 239.14 651.48 238.25 650.2 239.27 646 239.93 643.9 239.05 641.89 239.84 637.17 236.72 636.34 233.61 634.35 232.19 635.12 228.66 632.82 226.26 632.4 218.8 631.27 216.53 629.97 217.1 626.75 216.37 624.88 215.25 620.34 215.91 617.63 214.13 615.43 213.45 616.64 209.69 617.58 204.62 616.11 202.16 613.42 202.55 610.71 200.54 607.69 198.98 603.53 191.7 606.58 190.44 605.5 186.6 603.25 184.36 602.98 181.51 600.32 178.51 596.55 178.37 593.48 180.03 593.34 178.4 591.45 177.98 591.41 175.1 588.68 175.26 586.2 173.72 582.51 172.48 580.88 172.52 578.13 170.33 574.35 166.19 570.72 164.77 569.27 163.19 565.81 162.48 561.76 156.49 559.68 156.12 559.41 152.95 559.9 150.11 562.93 147.66 564.86 144.22 567.72 140.86 567.89 137.41 566.96 133.42 568.23 129.52 568.63 125.94 570.29 121.91 574.26 116.72 575.09 113.76 577.57 115.26 581.08 105.58 582.31 103.57 587.16 97.85 592.57 89.14 595.01 86.22 594.13 84.21 602.32 80.63 606.69 79.81 611.84 76.39 616.32 74.6 619.61 74.19 620.85 72.47 620.5 66.3 619.24 62.15 619.33 60.71 625.28 59.25 626.21 58.11 625.44 54.19 624.96 41.87 627.7 40.09 645.97 54 663.54 66.68 673.87 67.32 684.92 68.79 687.73 68.36 701.58 69.56 729.21 68.97 742.98 66.06 755.38 61.96 Z" id="38520360"/>
<path d="M 478.23 271.16 474.7 272.6 475.23 277.05 475.89 277.91 476.45 281.9 477.77 282.87 480.17 286.65 482.43 289.43 480.27 294.28 481.25 300.38 479.82 301.35 478.89 303.42 473.64 308.42 472.59 311.04 471.33 316.41 469.1 323.45 465.69 327.48 465.51 329.43 461.78 336.7 459.62 339.42 461.57 342.41 463.87 344.38 464.43 347.56 466.1 350.78 466.88 355.87 468.42 357.26 473.29 359.31 474.02 362.82 475.05 364.39 475.81 367.3 481.28 367.63 487.81 370.89 490.79 373.74 494.62 373.86 498.05 375.7 506.13 376.66 508.47 377.78 510.76 377.63 514.73 375.7 518.28 376.57 520.94 376.23 524.32 377.55 525.28 378.59 529.05 380.72 532.85 381.37 533.83 382.29 537.18 381.24 537.25 385.37 537.95 389.27 541.99 390.07 544.94 393.17 546.05 392.94 545.25 394 544.85 399.05 545.09 401.61 544.14 407.36 545.82 409.4 545.57 412.55 545.98 417.65 542.84 421.01 541.66 423.12 539.91 429.18 539.8 435.93 538.76 438.11 535.56 441.89 534.25 441.92 530.78 444.58 529.85 446.71 526.62 447.43 522.71 449.34 518.52 454.96 516.53 456.36 514.77 460.92 513.21 462.06 512.87 465.56 511.37 468.22 509.06 469.29 507.73 471.93 510.21 475.41 509.34 480.19 507.79 481.34 507.53 484.77 506.58 488.79 505.75 489.95 506.18 493.04 505.75 494.37 503.8 496.21 506.32 500.73 508.11 500.94 509.41 504 509.34 507.09 508.27 508.24 508.4 514.32 507.68 515.74 508.73 519.24 508.59 524.42 505.42 529.64 507.55 536.62 508.73 544.44 505.95 551.67 500.06 549.94 491.88 550.38 487.72 548.97 484.34 545.17 482.22 543.71 481.05 538.8 480.7 534.14 478.72 531.94 475.88 530.51 470.81 528.86 469.64 527.46 466.88 526.1 464.83 522.25 461.63 524.74 458.82 524.39 455.94 525.53 454.21 525.44 451.01 523.61 449.13 520.56 447.52 519.4 447 517.06 446.75 511.96 445.84 507.94 444.42 506.97 444.69 502.42 448.12 500.78 448.88 497.53 450.63 492.34 451.61 491.61 451.87 487.71 449.92 484.91 446.03 480.58 445.12 478.51 443.24 477.72 441.67 475.75 439.46 475.72 438.56 474.36 435.47 473.7 434.07 471.42 432.82 471.19 428.26 463.54 427.11 463.62 425.4 460.08 422.55 459.92 422.32 455.22 419.95 454.59 419.09 450.94 418.9 447.98 415.75 445.06 415.56 444.03 417.62 441.32 417.6 438.23 418.53 436 421.89 433.99 425.36 430.99 427.65 430.71 429.03 428.83 431.86 427.34 431.52 425.42 432.75 421.55 427.56 418.26 423.57 421.84 420.61 417.12 416.04 418.48 413.01 417.37 412.09 416.28 412.36 414.08 411.55 411.91 413.88 409.15 413.1 406.88 411.3 404.75 408.35 406.13 406.01 403.5 404.86 405.74 402.87 406.49 399.86 406.05 398.64 406.86 397.12 405.86 393.55 405.09 391.05 403.36 388.79 403.86 386.63 401.14 385.12 400.12 380.8 393.37 381.62 387.08 381.47 385.02 382.4 382.32 379.29 381.36 375.57 379.17 373.03 378.61 366.6 378.72 366.46 375.68 368.58 371.05 368.66 369.48 366.48 367.03 366.74 365.81 368.67 364.53 369.7 362.01 369.79 359.24 366.94 360.12 364.83 358.7 365.31 356.75 363.72 354.43 363.26 352.6 364.19 351.01 361.65 348.29 361.68 346.42 356.95 342.4 354.49 341.87 356.46 336.45 356.46 335.48 352.68 322.89 352 321.39 350.05 313.89 354.73 312.4 357.01 313.43 359.55 312.99 363.62 314.29 365.68 317.4 367.52 316.22 371.5 310.27 374.05 310.09 377.39 307.02 379.57 302.05 378.72 298.39 380.67 296.18 380.37 294.1 381.33 292.62 383.1 291.81 386.4 291.79 387.76 290.81 390.98 290.41 392.48 288.33 395.6 282.6 395.65 280.52 394.68 278.88 394.93 276.51 395.96 274.91 401.77 271.29 402.61 269.61 403.77 265.25 409.51 265.7 410.53 262 412.07 261.23 413.67 258.23 416.99 258.75 420.1 254.57 423.68 254.27 425.01 252.86 428.06 255.15 433.46 254.41 435.51 251.46 437.01 252.32 439.51 252.27 442.68 250.5 442.46 247.43 443.22 244.48 444.83 243.41 444.96 240.75 446.64 237.55 450.08 237.99 453.4 237.89 456.14 238.86 458.4 238.47 462.2 241.03 465.15 243.82 465.81 246.77 466.77 248.38 468.22 248.64 469.75 250.75 472.8 251.71 473.93 253.64 478.47 258.19 478.51 259.81 480.05 262.24 480.72 264.73 480.32 266.61 478.23 271.16 Z" id="38520380"/>
<path d="M 505.95 551.67 508.47 555.39 509.56 559.69 513.33 563.22 516.26 564.24 517.76 566.28 517.77 573.54 519.27 581.26 521.19 582.05 525.08 581.89 529.99 583.65 531.87 583.51 535.3 587.04 535.96 588.75 537.58 589.75 544.15 596.19 545.41 597.91 546.17 604.2 547.78 605 546.53 609.57 547.01 611.44 545.27 615.01 543.47 619.74 542.88 622.23 540.94 623.39 539.25 626.05 534.99 626.98 533.08 633.12 531.72 634.36 530.14 640.56 527.55 644.27 525.3 649.26 522.53 652.57 519.74 656.69 518.82 657.29 514.75 655.98 513.1 654.52 505.22 655.2 502.71 656.13 497.66 655.71 495.79 656.07 488.62 655.04 485.58 654.28 482.37 655.6 477.96 660.96 474.3 662.28 469.26 663.26 466.7 664.81 465.89 669.96 461.41 671.99 456.36 674.74 446.52 678.3 439.51 679.64 435.28 680.72 436.51 686.03 436.49 692.38 435.24 696.04 435.03 698.45 433.33 705.94 432.32 712.64 429.96 713.9 424.77 718.92 422.74 721.31 419.58 723.07 416.41 727.89 413.21 729.73 408.13 731.49 405.17 731.1 401.97 732 398.01 731.14 396.91 728.98 391.93 728.22 385.57 723.49 384.94 722.29 378.14 719.68 374.86 717.5 370.95 716.55 365.03 713.56 363.87 713.59 362.17 710.59 361.77 706.31 360.14 702.35 357.13 699.78 356.7 698.16 350.54 691.06 347.04 688.91 345.47 686.68 340.87 686.46 335.73 685.13 335.19 682.07 333.22 675.36 331.15 673.31 330.29 670.79 328.81 668.62 331.41 661.24 330.91 659.41 331.95 654.81 333.1 653.16 338.69 647.1 337.8 643.19 338.54 640.86 336.4 633.97 332.62 627.7 332.35 626.41 333.02 626.09 336.26 621.16 339.64 619.45 342.05 617.32 343.85 614.27 345.86 609.7 347.77 607.49 350.71 607.54 352.88 605.86 355.17 605.42 358.79 603.54 358.83 602.42 363.07 603 369.52 603.27 371.14 600.43 375.02 598.63 378.38 598.25 382.72 599.6 386.48 598.96 387.74 597.14 389.45 600.15 391.78 601.23 398.71 602.46 399.54 602.9 401.47 597.62 402.65 592.87 403.25 587.04 409.21 579.91 411.11 583.04 408.69 590.9 409.03 594.58 411.43 597.22 413.63 597.52 415.97 593.39 417.33 592.42 421.45 592.57 425.62 593.16 426.05 588.24 428.85 586.51 432.09 585.58 436.63 582.61 437.92 581.17 442.06 580.39 443.44 578.49 446.12 572.14 452.43 569.63 455.36 568.89 459.48 564.71 459.75 563.04 461.71 560.3 463.15 560.58 466.87 560.06 470.24 558.04 471.76 555.68 477.78 552.75 477.94 550.96 480.74 549.44 484.34 545.17 487.72 548.97 491.88 550.38 500.06 549.94 505.95 551.67 Z" id="38520390"/>
</g>
</svg>