<?xml version="1.0"?>
<svg xmlns="http://www.w3.org/2000/svg" version="1.2" baseProfile="tiny" width="800" height="1006" viewBox="0 0 800 1006" stroke-linecap="round" stroke-linejoin="round">
<g id="dong">
<path d="M 635.01 314.64 635.08 314.72 633.55 315.62 628 316.92 626.24 319.19 618.9 325.09 617.56 327.82 607.39 328.54 601.9 328.13 597.69 331.25 593.6 333.12 589.44 332.04 585.49 329.95 584.58 328.98 580.74 327.69 579.68 326.17 576.42 325.9 571.61 326.69 569.04 327.52 568.13 326.27 566.1 325.79 553.89 328.38 548.65 331.99 544.68 331.16 538.73 330.97 536.96 330.24 534.51 326.65 531.94 321.04 527.03 320.61 523.92 318.09 520.6 313.9 517.92 309.65 514.91 305.64 513.85 302.84 511.89 300.3 509.55 301.28 506.87 300.43 505.74 298.5 503.74 296.88 501.11 293.2 497.26 294.95 492.35 292.86 489.89 289.76 485.64 285.99 481.17 283.73 480.42 282.32 475.22 282.68 471.12 284.31 465.01 280.95 459.85 280.15 456.17 283.5 452.62 289.1 450.24 289.59 446.8 286.87 439.99 282.81 435.76 282.08 432.57 280.96 431.26 281.47 428.71 280.47 426.42 278.36 427.06 277.44 428.61 269.65 426.5 268.1 424.69 265.25 419.17 263.09 414.06 259.75 410.52 255.71 409.67 250.78 407.15 250.37 403.51 247.66 400.63 244.8 393.16 246.65 390.79 246.3 385.64 244.49 383.4 245.56 380.89 245.84 374.88 245.42 371.91 245.76 369.1 244.69 368.16 242.83 366.49 242.67 363.72 239.43 360.57 242.35 358.53 242.77 357.49 244.16 355.23 243.16 355.03 240.04 353.93 238.36 353 234.38 352.97 231.39 350.86 229.93 349.55 226.31 346.95 223.78 347.75 221.73 351.21 215.54 347.83 212.54 346.95 208.49 341.34 210.36 336.32 210.31 334.03 207.79 329.02 205.83 320.56 207.07 319.35 209.36 314.73 211.38 314.1 215.75 312.55 216.59 309.94 215.16 307.73 214.93 304.7 212.27 300.78 211.52 297.74 210.05 295.67 208.36 293.62 207.62 288.79 207.79 283.76 206.06 280.34 207.35 278.45 202.21 276.71 199.65 277.04 196.45 275.4 195.1 275.23 192.71 274.06 191.93 272.47 187.92 268.72 185.23 267.04 183.4 269.19 178.7 269.47 175.76 272.17 169.47 273.67 167.34 277.39 167.85 277.3 164.6 278.48 163.55 275.81 159.98 270.51 158.3 269.29 157.03 266.43 157.61 263.48 155.75 262.12 155.58 260.72 153.56 260.29 151.27 258.67 149.82 261.55 148.82 264.14 152.05 266.46 152.23 268.8 151.54 271.27 149.85 274.64 150.47 275.09 148.1 276.81 147.01 277.22 143.33 280.55 141.35 284.6 140.16 286.6 139.89 287.92 142.65 291.19 146.13 294.67 148.22 300.26 152.24 303.04 152.03 311.86 152.48 316.79 147.36 321.35 146.02 326.07 140.75 328.85 139.71 332.09 139.63 334.63 140.55 336.37 142.15 337.54 144.6 338 150.41 339.79 156.39 342.35 157.24 345.5 156.73 348.22 155.61 351.84 155.44 356.77 154.02 359.64 154.6 361.12 153.86 362.03 152 367.87 149.54 368.89 150 370.5 147.79 375.85 147.05 377.16 143.73 379.63 144.57 382.84 144.01 385.94 144.95 388.51 143.07 395.63 144.41 401.11 143.56 404.72 141.64 407.37 138.74 407.06 137.48 409.18 136.48 414.1 130.44 414.18 126.54 415.87 123.4 415.82 118.98 412.57 115.26 411.9 113.55 409.58 110.47 405.71 107.66 405.69 101.04 406.81 99.66 404.34 96.22 402.54 92.41 406.37 90.82 408.27 80.88 408.15 76.71 408.64 70.67 408.22 64.11 411.06 58.5 410.35 54.37 410.89 53.45 410.96 47.02 410.39 43.78 407.24 39.33 406.23 36.69 406.52 34.83 409.64 30.04 411.41 28.81 415.04 29.22 417.85 27.94 421.72 27.52 425.36 26.34 428.76 21.39 428.82 20.57 433.95 13.34 437.73 12.58 439.22 10.89 441.77 10.3 443.37 8.45 450.91 4.73 452.82 4.83 454.44 3.17 459.29 1 464.34 1.37 464.14 7.71 462.16 18.37 456.76 25.37 457.19 26.83 456.85 31.98 459.88 38.17 460.74 42.28 467.81 58.33 466.9 62.11 467.43 65.72 469.57 68.13 472.29 68.7 473.7 68.15 480.64 68.41 481.15 69.78 483.36 70.88 485.33 75.61 485.21 83.46 486.07 88.66 487.18 93.05 486.31 98.65 486.84 104.37 482.87 112.75 482.64 119.37 481.31 122.98 479.16 127.2 480.65 130.06 480.75 132.35 482.46 137.17 484.28 140.91 484.94 147.31 486.24 149.29 486.78 156.73 486.4 159.99 488.6 162.67 488.65 164.87 486.74 169.69 485.08 172.26 485.43 174.96 483.71 178.8 484.45 183.49 484.8 188.69 485.73 190.82 489.11 192.76 491.34 192.4 494.33 194.43 497.13 197.88 506 200.17 512.84 203.91 518 208.36 521.14 209.1 521.85 212.45 523.65 213.55 525.82 212.21 529.83 211.81 532.5 214.2 534.86 213.86 536.35 212.41 538.21 215.14 543.33 218.86 542.77 222.52 541.75 225.05 541.96 226.5 543.9 229.37 545.61 230.82 544.94 233.9 545.79 238.15 544.29 239.94 543.71 242.69 544.44 244.74 546.36 247.06 547.43 252.8 549.36 255.85 552.44 257.57 558.31 257.48 560.62 259.06 563.67 259.36 565.92 258.16 568.79 255.31 571.82 253.15 570.92 258.01 573 267.76 577.62 271.85 580.7 273.04 581.23 276.7 580.09 279.38 580.28 282.9 581.67 287.46 584.13 289.15 586.88 289.8 589.16 289.41 591.55 291.66 596.66 297.63 606.8 304.81 612.98 308.68 621.85 312.69 627.42 312.43 633.77 313.39 635.01 314.64 Z" id="38530320"/>
<path d="M 258.67 149.82 260.29 151.27 260.72 153.56 262.12 155.58 263.48 155.75 266.43 157.61 269.29 157.03 270.51 158.3 275.81 159.98 278.48 163.55 277.3 164.6 277.39 167.85 273.67 167.34 272.17 169.47 269.47 175.76 269.19 178.7 267.04 183.4 268.72 185.23 272.47 187.92 274.06 191.93 275.23 192.71 275.4 195.1 277.04 196.45 276.71 199.65 278.45 202.21 280.34 207.35 283.76 206.06 288.79 207.79 293.62 207.62 295.67 208.36 297.74 210.05 300.78 211.52 304.7 212.27 307.73 214.93 309.94 215.16 312.55 216.59 314.1 215.75 314.73 211.38 319.35 209.36 320.56 207.07 329.02 205.83 334.03 207.79 336.32 210.31 341.34 210.36 346.95 208.49 347.83 212.54 351.21 215.54 347.75 221.73 346.95 223.78 349.55 226.31 350.86 229.93 352.97 231.39 353 234.38 353.93 238.36 355.03 240.04 355.23 243.16 350.76 245.68 350.21 247.26 347.71 251.05 346.72 253.95 351.29 257.46 350.44 259.75 353.02 262.84 354.81 268.15 355.3 271.93 362.34 272.22 364.31 274.54 367.38 276.21 369.61 278.98 371.11 279.86 371.9 283.5 371.52 293.68 372.11 294.93 369.91 299.74 370.03 301.29 361.37 303.16 359.89 305.23 357.89 305.34 351.94 307.72 351.49 309.5 352.51 312.23 352.04 314.9 349.62 316.39 346.9 316.46 344.28 317.58 343.36 323.6 341.98 325.63 341.79 329.27 340.08 330.6 337.99 333.91 337.68 335.95 336.13 335.9 334.95 338.29 336.23 343.96 335.41 345.55 334.68 349.33 332.34 349.04 330.26 349.88 329.63 352.16 328.45 352.39 323.22 359.25 322.37 358.79 320.44 362.73 317.47 365.04 315.93 367.56 315.35 370.79 312.09 373.2 312.25 374.38 307.18 376.78 303.82 377.1 301.28 378.99 298.65 378.51 298.18 381.05 298.75 383.57 298.07 384.53 294.79 385.22 294.41 386.03 288.4 386.78 287.06 385.57 283.82 385.45 283.72 387.89 282.41 392.64 280.32 393.4 278.08 397.69 277.97 400.23 279.11 402.28 275.1 403.82 270.37 403.24 266.14 403.8 261.19 406.89 259.99 407.14 256.69 409.8 251.72 408.9 250.71 410.29 248.51 410.4 244.55 412.44 242.15 412.58 241.64 410.52 239.17 409.86 235.89 409.85 231.38 413.31 229.71 415.84 225.32 417.05 223.04 418.63 221.31 420.71 218.22 422.06 211.73 417.89 207.37 415.81 204.76 413.1 203.25 408.24 200.9 403.4 198.81 403.25 194.78 398.71 193.35 398.2 190.37 398.75 188.35 401.8 184.45 403.57 181.93 401.56 180.28 402.29 177.16 400.99 177.09 395.8 178.21 394.18 176.98 390.88 178.16 387.68 177.89 385.28 176.46 384.03 175 378.95 172.52 377.05 169.8 373.47 169.31 371.44 170.19 367.92 174.15 364.43 175.21 360.97 177.44 360.35 178.13 356.13 180.4 355.05 181.55 353.42 186.24 353.54 189.19 352.5 189.3 349.2 187.64 348.16 185.9 345.16 184.95 342 182.45 339.66 180.33 339.58 176.57 333.78 174.16 332.25 173.19 328.94 174.84 328.36 181.53 324.38 184.4 321.07 187.52 319.78 187.67 315.34 186.77 311.96 184.79 309.56 184.83 308.04 183.4 303.14 182.03 301.81 183.2 296.85 182.22 292.42 178.36 285.62 175.79 284.08 172.22 284.13 169.79 282.87 167.21 279.45 167.01 277.07 165.42 275.67 163.39 271.11 161.79 270.65 159.32 274.2 158.04 273.54 155.46 276.19 152.97 279.73 150.68 282.17 147.28 283.57 143.51 283.52 142.68 285.85 140.68 287.34 139.8 290.09 140.82 293.02 137.1 297.51 133.97 299.97 133.02 302.35 129.92 299.93 130.01 296.09 127.28 293.96 126.09 291.93 123.97 290.77 125.36 287.34 125.18 284.1 123.7 282.8 124.45 280.53 125.87 279.16 124.81 275.48 125.5 272.43 122.01 268.4 120 268.87 116.19 266.61 119.47 264.46 121.56 261.28 119.83 258.58 120.89 256.99 119.83 255.36 121.87 253.27 121.25 251.65 123.46 247.54 122.58 246.69 122.22 241.08 120.68 242.45 119.42 241.95 118.65 237.86 116.79 235.89 116.18 232.84 116.86 227.4 118.6 225.32 122.86 224.6 125.98 221.55 135.52 223.69 135.08 221.96 135.43 216.97 136.91 216.61 140.59 220.04 140.54 223.29 142.59 225.65 145.04 226.8 148.64 224.37 154.46 223.78 156.45 220.77 158.2 220.85 160.22 219.18 161.83 218.99 164.2 216.79 164.73 215.1 167.68 211.38 168 208.46 169.33 207.43 168.44 204.83 170.36 202.44 172.33 201.75 175.45 202.45 176.46 204.18 176.4 206.73 177.49 208.7 181.52 200.2 183.44 197.25 184.33 194.79 186.86 191.3 190.09 191.63 191.97 189.95 193.26 190.53 198.24 194.77 198.36 195.79 202.06 197.43 203.33 199.39 205.77 201.23 207.45 200.77 208.65 202.02 210.98 198.74 211.21 195.23 214.2 190.03 216.38 187.56 218.22 183.67 222.74 178.58 224.18 174.54 226.22 172.53 228.84 173.9 233.02 172.96 233.52 166.5 235.2 165.75 234.49 162.04 237.35 160.19 239.27 157.76 242.48 157.35 244.17 159.64 246.23 159.47 247.26 157.86 246.49 155.88 246.91 152.91 248.41 147.65 250.2 147.82 252.69 149.54 255.52 149.79 257.93 151.14 258.67 149.82 Z" id="38530330"/>
<path d="M 177.09 395.8 176.14 397.29 173.88 396.59 172.14 400.58 168.15 402.46 167.19 404.45 167.46 406.6 165.8 407.61 163.89 412.1 162.32 413.22 161.03 415.46 159.15 416.84 156.08 416.94 150.4 421.56 146.83 423.98 146.12 419.72 142.52 419.71 142.08 417.66 140.4 417.44 140.65 420.3 139.26 422.61 138.62 428.2 140.47 434.04 139.38 435.9 142.52 438.71 143.74 442.56 143.04 443.82 139.95 445.13 139.47 447.33 137.29 449.63 137.51 451.59 139.95 452.38 139.64 454.94 137.95 454.66 133.78 456.11 133.08 460.59 134.03 463.36 139.44 469.48 139.78 471.35 138.73 473.96 139.86 474.81 144.17 473.65 145.38 474.98 144.99 478.02 143.57 479.36 139.87 480.82 136.96 479.91 134.16 481.93 134.43 484.72 131.3 488.21 129.03 487.53 127.24 484.85 125.27 485.07 122.39 488.56 123.26 490.02 125.43 490.68 125.49 492.87 123.14 495.9 122.48 498.84 122.85 501.59 120.11 505.64 116.78 506.22 114.65 503.26 112.89 503.6 112.61 507.4 106.56 504.86 107.01 503.15 105.57 502.1 102.25 502.46 100.4 501.4 99.32 499.09 97.25 497.68 93.68 499.91 89.82 499.6 88.64 497.61 86.28 497.22 84.99 499.37 82.01 498.88 78.39 499.17 77.86 504.16 74.58 505.44 71.12 507.79 69.36 510.62 72.42 514.17 73.19 518.52 75.13 522.54 76.46 524.21 79.63 526.75 79.01 528.68 75.25 529.24 66.97 532.37 65.45 534.24 62.46 542.03 49.61 529.74 34.68 514.94 26.27 504.78 8.18 480.79 4.16 476.8 2.94 456.86 2.47 446.23 1.51 434.69 1 431.95 3.87 422.43 6.97 411.46 18.52 388.11 19.99 376.52 21.27 364.93 22.68 334.02 18.5 318.75 13.06 297.46 12.59 295.75 7.15 284.3 1.87 261.29 3.6 249.69 10.28 242.32 24.58 235.08 33.21 232.73 35.54 232.62 35.39 231.04 37.91 230.88 54.12 238.72 52.58 240.82 52.87 242.87 56.06 245.2 56.82 246.48 59.38 246.67 62.34 248.49 68.25 251.03 71.56 250.92 72.31 247.77 75.32 243.64 77.93 244.94 77.28 248.19 80.93 252.02 84.4 247.97 85.69 244.88 86.11 242.38 88.65 240.83 93.06 240.25 96.04 240.47 99.34 236.26 101.05 235.13 102.16 233.23 104.56 233.36 110.93 231.8 113.16 228.09 115.32 226.22 116.86 227.4 116.18 232.84 116.79 235.89 118.65 237.86 119.42 241.95 120.68 242.45 122.22 241.08 122.58 246.69 123.46 247.54 121.25 251.65 121.87 253.27 119.83 255.36 120.89 256.99 119.83 258.58 121.56 261.28 119.47 264.46 116.19 266.61 120 268.87 122.01 268.4 125.5 272.43 124.81 275.48 125.87 279.16 124.45 280.53 123.7 282.8 125.18 284.1 125.36 287.34 123.97 290.77 126.09 291.93 127.28 293.96 130.01 296.09 129.92 299.93 133.02 302.35 133.97 299.97 137.1 297.51 140.82 293.02 139.8 290.09 140.68 287.34 142.68 285.85 143.51 283.52 147.28 283.57 150.68 282.17 152.97 279.73 155.46 276.19 158.04 273.54 159.32 274.2 161.79 270.65 163.39 271.11 165.42 275.67 167.01 277.07 167.21 279.45 169.79 282.87 172.22 284.13 175.79 284.08 178.36 285.62 182.22 292.42 183.2 296.85 182.03 301.81 183.4 303.14 184.83 308.04 184.79 309.56 186.77 311.96 187.67 315.34 187.52 319.78 184.4 321.07 181.53 324.38 174.84 328.36 173.19 328.94 174.16 332.25 176.57 333.78 180.33 339.58 182.45 339.66 184.95 342 185.9 345.16 187.64 348.16 189.3 349.2 189.19 352.5 186.24 353.54 181.55 353.42 180.4 355.05 178.13 356.13 177.44 360.35 175.21 360.97 174.15 364.43 170.19 367.92 169.31 371.44 169.8 373.47 172.52 377.05 175 378.95 176.46 384.03 177.89 385.28 178.16 387.68 176.98 390.88 178.21 394.18 177.09 395.8 Z" id="38530340"/>
<path d="M 218.22 422.06 221.49 424.35 223.04 423.67 226.41 419.07 228.1 420.56 227.18 425.2 228.14 427.05 228.1 429.53 227.2 431.68 229.33 434.93 232.72 436.08 233.84 443.61 235.08 447.13 232.28 454.24 230.03 455.54 228.34 458.31 225.19 461.06 223.11 467.81 221.99 469.33 221.68 473.23 222.27 476.7 224.33 479.83 221.13 485.06 218.64 483.85 217.43 486.58 223.37 488.23 226.98 496.97 227.78 496.66 229.46 500.61 235.98 503.62 239.72 507.97 238.4 509.73 242.89 518.57 239.22 519.39 238.82 521.66 235.51 522.25 234.43 523.88 225.18 534.58 229.21 536.52 231.11 539.36 236.99 539.93 238.8 538.72 238.91 536.73 241.53 536.49 241.64 535.16 243.93 535.03 243.13 538.1 243.2 541.56 239.03 542.43 237.1 545.24 234.65 545.8 231.79 544.76 225.12 538.2 224.04 538.03 217.39 543.1 212.94 542.18 211.42 543.95 209.55 543.97 208.08 542.34 206.51 543.54 207.07 546.75 209.31 546.38 210.78 548.19 209.45 552.15 212.13 552.59 213.45 554.44 215.13 553.99 215.79 552.09 218.31 553.65 218.07 555.55 221.49 556.56 222.88 554.59 227.47 556.04 228.54 554.78 230.55 554.58 234.89 555.93 236.36 557.19 238.41 560.84 239.31 566.08 238.69 567.57 240.9 568.83 244.02 568.56 247.29 564.86 250.09 563.47 252.37 564.68 254.1 566.55 257.91 567.47 262.03 563.55 264.23 559.88 265.52 559.24 266.6 555.13 269.81 555.46 270.79 553.79 272.7 553.8 275.62 554.86 276.52 556.55 279.6 559.18 280.95 559.57 281.99 561.81 282.58 565.15 281.92 566.44 281.96 571.68 283.53 573.74 284.48 576.93 286.89 581.9 285.96 583.01 284.97 586.69 282.37 589.94 279.87 591.4 279.28 593.79 277.46 594.99 276.43 600.34 273.97 601.29 272.83 603.71 270.28 605.44 270.05 608.75 273.64 611.62 278.67 613.31 279.92 615.11 280.67 620.21 281.53 622.35 281.24 623.99 282.31 625.8 282.32 629.6 285.2 633.25 283.83 633.55 281.05 637.34 280.49 640.72 280.37 646.3 276.83 646.63 273.51 649.96 272.23 650.21 271.64 652.46 270.29 653.09 266.76 653.02 264.62 651.17 262.97 652.08 262.04 656.1 260.48 658.33 257.02 657.06 256.11 657.83 258.88 661.7 259.15 664.46 257.76 667.02 255.42 668.03 253.73 669.87 250.28 670.5 246.83 669.04 243.95 669.01 241.31 672.02 237.99 672.06 232.1 670.95 230.68 666.2 228.89 664.54 229.95 662.31 232.11 660.51 232.98 654.32 232.64 649.77 233.87 648.57 235.14 645.23 235.63 642.46 232.98 639.23 233.41 637.52 230.38 636.91 227.02 636.86 223.08 636.1 220.46 638.45 220.03 641.67 217.31 643.93 212.14 641.76 210.43 644.56 210.09 647.14 207.68 650.22 205.72 650.85 204.44 652.42 204.24 655.91 202.43 657.65 202.6 659.01 199.07 658.04 189.61 658.36 190.14 650.5 190.71 646.48 189.79 638.95 185.25 613.09 176.56 604.53 166.69 593.18 164.49 590.39 148.68 581.98 147.18 580.58 132.6 573.92 117.97 564.82 103.37 557.37 88.85 553.72 79.71 550.18 64.78 544.21 62.46 542.03 65.45 534.24 66.97 532.37 75.25 529.24 79.01 528.68 79.63 526.75 76.46 524.21 75.13 522.54 73.19 518.52 72.42 514.17 69.36 510.62 71.12 507.79 74.58 505.44 77.86 504.16 78.39 499.17 82.01 498.88 84.99 499.37 86.28 497.22 88.64 497.61 89.82 499.6 93.68 499.91 97.25 497.68 99.32 499.09 100.4 501.4 102.25 502.46 105.57 502.1 107.01 503.15 106.56 504.86 112.61 507.4 112.89 503.6 114.65 503.26 116.78 506.22 120.11 505.64 122.85 501.59 122.48 498.84 123.14 495.9 125.49 492.87 125.43 490.68 123.26 490.02 122.39 488.56 125.27 485.07 127.24 484.85 129.03 487.53 131.3 488.21 134.43 484.72 134.16 481.93 136.96 479.91 139.87 480.82 143.57 479.36 144.99 478.02 145.38 474.98 144.17 473.65 139.86 474.81 138.73 473.96 139.78 471.35 139.44 469.48 134.03 463.36 133.08 460.59 133.78 456.11 137.95 454.66 139.64 454.94 139.95 452.38 137.51 451.59 137.29 449.63 139.47 447.33 139.95 445.13 143.04 443.82 143.74 442.56 142.52 438.71 139.38 435.9 140.47 434.04 138.62 428.2 139.26 422.61 140.65 420.3 140.4 417.44 142.08 417.66 142.52 419.71 146.12 419.72 146.83 423.98 150.4 421.56 156.08 416.94 159.15 416.84 161.03 415.46 162.32 413.22 163.89 412.1 165.8 407.61 167.46 406.6 167.19 404.45 168.15 402.46 172.14 400.58 173.88 396.59 176.14 397.29 177.09 395.8 177.16 400.99 180.28 402.29 181.93 401.56 184.45 403.57 188.35 401.8 190.37 398.75 193.35 398.2 194.78 398.71 198.81 403.25 200.9 403.4 203.25 408.24 204.76 413.1 207.37 415.81 211.73 417.89 218.22 422.06 Z" id="38530350"/>
<path d="M 600.07 463.82 596.25 464.74 596.71 467.51 601.69 468.65 603.46 471.28 606.24 473.14 608.19 475.45 610.15 481.17 609.62 485.89 613.33 492.97 610.53 497.91 610.75 504.08 608.24 505.53 609.6 509.04 610.65 509.56 614.3 514.13 616.68 519.88 622.13 522.84 623.73 525.14 626.14 526.15 628.63 528.5 634.67 529.51 635.31 535.05 634.93 537.84 632.68 539.99 631.65 543.2 631.74 548.14 630.2 549.56 630.25 551.97 627.86 555.46 625.8 556.27 622.07 559.31 620.08 565.48 606.56 564.87 602.21 565.82 598.07 565.74 597.34 571.32 596.14 575.68 593.06 583.22 592.71 585.03 588.25 592.18 588.03 595.79 588.62 599.3 586.56 600.68 584.55 603.37 582.21 610.65 578.58 607.87 575.54 609.33 575.18 612.26 573.22 616.76 571.44 619.1 566.42 620.58 566.86 627.62 566.57 631.46 565.31 633.01 562.17 631.19 559.21 631.37 553.62 630.99 550.58 630.38 545.74 627.84 536.94 623.81 532.85 618.7 527.83 613.47 525.02 609.73 523.71 609.05 519.69 603.38 519.75 599.29 517.9 598.05 513.47 590.27 510.69 588.54 505.88 578.6 503.97 575.5 502.97 569.37 491.48 566.5 489.91 565.72 484.71 565.51 483.87 561.05 482.23 556.29 473.05 555.06 471.93 555.64 463.29 558.16 455.3 558.52 449.81 561.17 444.49 566.55 438.66 568.49 437.12 568.24 430.62 570.2 424.8 573.41 421.54 573.3 419.37 574.44 416.97 574.3 412.41 575.82 409.05 574.3 407.08 572.69 403.83 571.94 401.59 568.62 400.45 568.4 399.48 565.78 397.62 565.94 394.77 564.4 393.47 562.81 391.26 563.75 389.36 561.4 386.54 560.61 383.21 562.33 380.6 564.81 377.17 566.38 375.7 566.18 373.84 568.04 370.37 566.32 366.21 568.23 364.3 571.25 362.38 572.04 359.76 571.81 357.99 572.49 352.81 575.64 349.68 575.94 349.57 580.41 350.06 581.54 348.98 583.88 345.9 585.95 345.07 587.84 344.64 591.45 340.47 595.66 340.1 597.69 337.86 598.84 334.44 599.68 334.18 597.5 330.98 595.34 328.6 599.43 325.44 598.75 323.78 599.88 317.31 600.77 314.57 602.44 312.86 602.13 311.17 603.98 310.09 607.29 310.03 609.67 307.35 616.14 306.29 617.01 303.33 616.65 301.7 617.51 300.7 619.49 298.32 619.55 295.11 618.33 291.88 616.05 290.26 617.26 289.91 620.9 288.93 623.84 282.31 625.8 281.24 623.99 281.53 622.35 280.67 620.21 279.92 615.11 278.67 613.31 273.64 611.62 270.05 608.75 270.28 605.44 272.83 603.71 273.97 601.29 276.43 600.34 277.46 594.99 279.28 593.79 279.87 591.4 282.37 589.94 284.97 586.69 285.96 583.01 286.89 581.9 284.48 576.93 283.53 573.74 281.96 571.68 281.92 566.44 282.58 565.15 281.99 561.81 280.95 559.57 279.6 559.18 276.52 556.55 275.62 554.86 272.7 553.8 270.79 553.79 269.81 555.46 266.6 555.13 265.52 559.24 264.23 559.88 262.03 563.55 257.91 567.47 254.1 566.55 252.37 564.68 250.09 563.47 247.29 564.86 244.02 568.56 240.9 568.83 238.69 567.57 239.31 566.08 238.41 560.84 236.36 557.19 234.89 555.93 230.55 554.58 228.54 554.78 227.47 556.04 222.88 554.59 221.49 556.56 218.07 555.55 218.31 553.65 215.79 552.09 215.13 553.99 213.45 554.44 212.13 552.59 209.45 552.15 210.78 548.19 209.31 546.38 207.07 546.75 206.51 543.54 208.08 542.34 209.55 543.97 211.42 543.95 212.94 542.18 217.39 543.1 224.04 538.03 225.12 538.2 231.79 544.76 234.65 545.8 237.1 545.24 239.03 542.43 243.2 541.56 243.13 538.1 243.93 535.03 245.4 535.2 248.86 538.29 248.07 540.25 249.94 544.18 258.25 545.91 260.82 542.82 265.16 543.05 267.37 543.92 271.26 543.59 280.04 539.57 280.46 538.07 283.56 538.38 285.3 537.73 288.2 538.46 293.72 535.46 294.17 532.81 299.32 526.21 299.81 524.92 299.36 521.1 300.02 518.75 301.91 516.32 308.08 514.03 314.08 508.12 315.33 500.75 318.02 498.2 320.26 494.41 325.15 489.95 325.59 488.57 327.69 486.76 337.75 483.37 339.33 481.02 337.78 480.1 332.17 478.32 329.61 476.38 327.19 475.47 323.57 475.21 322.85 477.28 319.55 482.33 318.08 481.04 313.38 478.18 312.28 476.18 314.16 473.9 314.58 470.53 311.52 469.75 313.47 466.49 311.03 463 311.94 458.1 314.59 455.09 321.65 453.8 326.07 455.36 327.63 456.62 329.82 455.53 331.6 455.92 335.06 455.59 342.46 456.42 343.64 455.88 346.82 456.5 347.63 452.63 349.74 450.43 353.26 449.86 356.44 447.25 359.59 446.31 355.54 443.25 354.69 440.97 352.62 438.06 352.01 435.22 349.13 432.68 348.11 430.59 347.6 426.3 348.26 424.21 347.65 419.4 345.84 414.88 345.93 411.23 347.09 407.73 346.6 403.93 347.06 402.4 346.72 397.9 343.02 395.36 344.97 393.03 345.5 387.55 346 385.94 347.98 385.2 350.58 384.82 352.81 386.33 354.52 386.56 360.89 393.27 362.59 395.62 368.26 398.88 370.36 397.24 376.92 396.6 381.79 391.45 382.94 388.25 384.49 386.2 384.61 383.54 386.08 382.75 386.13 379.73 391.33 379.81 395.67 380.25 396.27 378.97 400.21 379.9 406.75 376.05 407.8 374.01 409.95 374.8 412.06 376.78 414.39 380.62 415.84 384.36 417.56 385.84 417.68 390.85 418.56 392.85 418.8 396.42 419.9 399.44 422.81 404.63 425.15 406.39 428.94 406.83 431.27 405.12 433.62 404.65 436.05 402.79 439.35 406.03 443.09 406.67 445.15 405.85 448.03 406.33 451.38 406.1 453.87 408.71 455.5 408.69 460.2 410.56 462.24 414.04 463.83 420.63 466.54 419.96 468.25 424.9 467.84 432.17 471.62 435.6 478.01 438.15 481.34 438.51 485.78 437.15 488.08 435.35 493.46 433.73 498.11 433.68 500.41 432.43 502.79 432.07 503.94 433.35 508.2 434.45 512.15 432.93 515.71 428.69 521.41 427.22 523.04 428.51 525.11 428.23 525.57 432.81 526.84 437.33 530.73 442.78 534.57 447.15 535.2 452 534.18 458.02 539.56 461.16 544.86 465.73 549.4 466.77 553.35 466.42 563.63 464.71 569.33 463.06 572.79 459.38 577.08 460.31 579.5 461.64 582.02 464.47 591.68 467.3 593.78 460.81 595.58 458.8 599.88 461.73 600.07 463.82 Z" id="38530110"/>
<path d="M 241.31 672.02 239.8 675.25 239.96 681.26 240.56 684.97 239.56 689.45 239.36 694.27 238.03 696.51 235.29 697.6 234.27 700.25 237.13 700.03 238.91 702.09 239.91 704.32 241.17 710.95 243.84 713.67 243.66 715.54 244.67 716.92 244.63 719.09 243.02 720.29 242.18 723.09 237.78 727.65 236.81 730.37 236.65 737.63 235.99 741.1 234.01 744.98 235.97 746.66 237.38 749.74 240.48 750.4 242.62 754.96 241.79 758.85 240 760 237.62 765.88 234.91 765.59 232.65 767.17 232.49 769.14 231.16 770.94 231.82 775.58 233.48 776.1 234.55 779.77 237.27 782.05 238.22 783.82 240.86 784.91 242.21 786.23 243.52 790.17 246 793.83 247.74 795.17 248.58 798.13 249.93 798.49 251.15 800.81 254.44 802.04 255.38 803.29 255.18 805.41 257.38 807.08 261.66 806.8 264.03 810.22 265.96 811.8 266.75 814.91 269.79 815.76 271.24 816.96 275.86 813.08 275.82 809.02 274.91 803.49 276.27 799.65 277.48 800.19 279.22 798.8 282.19 797.65 287.31 794.2 288.99 794.5 291.36 799.57 293.16 801.58 293.68 803.93 296.11 803.67 295.27 808.55 300.45 810.95 305.1 812.18 323.56 812.69 324.92 813.8 324.99 814.54 319.18 825.14 325.57 828.46 329.82 829.46 331.37 830.33 332.8 832.82 337.18 835.17 331.07 859.94 331.23 860.42 337.11 863.49 339.6 863.79 346.68 865.73 349.12 865.95 351.05 869.09 350.42 870.6 347.28 874.58 345.8 877.76 344.13 883.67 343.75 887.61 344.29 891.05 346.6 894.23 352.38 896.67 354.07 897.87 355.79 901.47 356.26 908.45 357.16 909.49 360.56 910.48 362.51 910.38 365.12 907.25 368.76 900.77 371.96 901.14 374.67 903.62 376.94 904.56 379.45 907.23 382.86 906.91 386.48 905.37 389.5 910 387.29 912.39 385.17 917.21 385.3 923.99 376.39 935.73 368.44 947.45 359.97 959.18 357.15 960.63 353.5 965.98 348.79 970.98 328.52 973.74 320.47 974.61 314.09 974.69 302.17 972.5 285.07 968.45 272.08 964.21 266.94 961.07 255.9 955.03 247.79 949.9 237.68 938.54 235.94 935.51 226.3 920.21 220.28 904.21 218.1 896.14 216.69 892.72 211.12 883.85 197.9 861.82 183.35 858.72 167.19 854.82 143.4 847.97 130.88 844.72 116.69 836.95 105.68 831.17 95.71 817.91 93.84 815.79 84.62 802.92 79.34 797.49 72.86 787.27 69.33 768.55 72.15 742.93 78.15 738.64 83.32 733.59 90.13 718.29 113.84 714.45 135.24 704 144.4 697.67 158.65 692.62 166.16 689.81 176.69 678.58 189.13 664.61 189.61 658.36 199.07 658.04 202.6 659.01 202.43 657.65 204.24 655.91 204.44 652.42 205.72 650.85 207.68 650.22 210.09 647.14 210.43 644.56 212.14 641.76 217.31 643.93 220.03 641.67 220.46 638.45 223.08 636.1 227.02 636.86 230.38 636.91 233.41 637.52 232.98 639.23 235.63 642.46 235.14 645.23 233.87 648.57 232.64 649.77 232.98 654.32 232.11 660.51 229.95 662.31 228.89 664.54 230.68 666.2 232.1 670.95 237.99 672.06 241.31 672.02 Z" id="38530120"/>
<path d="M 617.56 327.82 613.13 330.18 614.83 334.75 614.19 339.97 614.26 347.14 616.13 353.49 616.25 358.19 614.79 364.6 612.59 367.65 612.23 369.96 610.97 372.29 615.94 375.23 618.57 378.21 621.26 379.04 624.53 382.77 625.51 385.25 624.81 387.13 627.03 391.16 626.4 394.82 625.82 402.22 622.99 403.69 620.68 403.77 618.27 407.35 616.77 408.55 617.73 413.54 619.52 419.04 623.28 427.09 622.22 434.55 625.03 435.19 626.42 437.92 628.15 443.6 632.84 447.84 635.78 449.33 638.68 449.79 639.33 453.31 635.63 455.91 632.75 461.67 632.16 466.9 629.55 466.39 627.4 467.01 624.64 465.54 621.57 464.76 619.13 462.69 616.25 461.73 607.12 463.12 602.26 462.75 600.07 463.82 599.88 461.73 595.58 458.8 593.78 460.81 591.68 467.3 582.02 464.47 579.5 461.64 577.08 460.31 572.79 459.38 569.33 463.06 563.63 464.71 553.35 466.42 549.4 466.77 544.86 465.73 539.56 461.16 534.18 458.02 535.2 452 534.57 447.15 530.73 442.78 526.84 437.33 525.57 432.81 525.11 428.23 523.04 428.51 521.41 427.22 515.71 428.69 512.15 432.93 508.2 434.45 503.94 433.35 502.79 432.07 500.41 432.43 498.11 433.68 493.46 433.73 488.08 435.35 485.78 437.15 481.34 438.51 478.01 438.15 471.62 435.6 467.84 432.17 468.25 424.9 466.54 419.96 463.83 420.63 462.24 414.04 460.2 410.56 455.5 408.69 453.87 408.71 451.38 406.1 448.03 406.33 445.15 405.85 443.09 406.67 439.35 406.03 436.05 402.79 433.62 404.65 431.27 405.12 428.94 406.83 425.15 406.39 422.81 404.63 419.9 399.44 418.8 396.42 418.56 392.85 417.68 390.85 417.56 385.84 415.84 384.36 414.39 380.62 412.06 376.78 409.95 374.8 407.8 374.01 406.75 376.05 400.21 379.9 396.27 378.97 395.67 380.25 391.33 379.81 386.13 379.73 386.08 382.75 384.61 383.54 384.49 386.2 382.94 388.25 381.79 391.45 376.92 396.6 370.36 397.24 368.26 398.88 362.59 395.62 360.89 393.27 354.52 386.56 352.81 386.33 350.58 384.82 347.98 385.2 353.08 377.08 354.79 376.01 356.62 373.23 355.68 372.61 352.82 373.16 350.33 374.8 345.58 373.25 344.64 369.29 342.27 367.65 339.52 366.71 338.86 365.04 336.42 363.77 330.61 365.09 329.32 367.2 327.88 366.31 323.42 360.67 323.22 359.25 328.45 352.39 329.63 352.16 330.26 349.88 332.34 349.04 334.68 349.33 335.41 345.55 336.23 343.96 334.95 338.29 336.13 335.9 337.68 335.95 337.99 333.91 340.08 330.6 341.79 329.27 341.98 325.63 343.36 323.6 344.28 317.58 346.9 316.46 349.62 316.39 352.04 314.9 352.51 312.23 351.49 309.5 351.94 307.72 357.89 305.34 359.89 305.23 361.37 303.16 370.03 301.29 369.91 299.74 372.11 294.93 371.52 293.68 371.9 283.5 371.11 279.86 369.61 278.98 367.38 276.21 364.31 274.54 362.34 272.22 355.3 271.93 354.81 268.15 353.02 262.84 350.44 259.75 351.29 257.46 346.72 253.95 347.71 251.05 350.21 247.26 350.76 245.68 355.23 243.16 357.49 244.16 358.53 242.77 360.57 242.35 363.72 239.43 366.49 242.67 368.16 242.83 369.1 244.69 371.91 245.76 374.88 245.42 380.89 245.84 383.4 245.56 385.64 244.49 390.79 246.3 393.16 246.65 400.63 244.8 403.51 247.66 407.15 250.37 409.67 250.78 410.52 255.71 414.06 259.75 419.17 263.09 424.69 265.25 426.5 268.1 428.61 269.65 427.06 277.44 426.42 278.36 428.71 280.47 431.26 281.47 432.57 280.96 435.76 282.08 439.99 282.81 446.8 286.87 450.24 289.59 452.62 289.1 456.17 283.5 459.85 280.15 465.01 280.95 471.12 284.31 475.22 282.68 480.42 282.32 481.17 283.73 485.64 285.99 489.89 289.76 492.35 292.86 497.26 294.95 501.11 293.2 503.74 296.88 505.74 298.5 506.87 300.43 509.55 301.28 511.89 300.3 513.85 302.84 514.91 305.64 517.92 309.65 520.6 313.9 523.92 318.09 527.03 320.61 531.94 321.04 534.51 326.65 536.96 330.24 538.73 330.97 544.68 331.16 548.65 331.99 553.89 328.38 566.1 325.79 568.13 326.27 569.04 327.52 571.61 326.69 576.42 325.9 579.68 326.17 580.74 327.69 584.58 328.98 585.49 329.95 589.44 332.04 593.6 333.12 597.69 331.25 601.9 328.13 607.39 328.54 617.56 327.82 Z" id="38530310"/>
<path d="M 323.22 359.25 323.42 360.67 327.88 366.31 329.32 367.2 330.61 365.09 336.42 363.77 338.86 365.04 339.52 366.71 342.27 367.65 344.64 369.29 345.58 373.25 350.33 374.8 352.82 373.16 355.68 372.61 356.62 373.23 354.79 376.01 353.08 377.08 347.98 385.2 346 385.94 345.5 387.55 344.97 393.03 343.02 395.36 346.72 397.9 347.06 402.4 346.6 403.93 347.09 407.73 345.93 411.23 345.84 414.88 347.65 419.4 348.26 424.21 347.6 426.3 348.11 430.59 349.13 432.68 352.01 435.22 352.62 438.06 354.69 440.97 355.54 443.25 359.59 446.31 356.44 447.25 353.26 449.86 349.74 450.43 347.63 452.63 346.82 456.5 343.64 455.88 342.46 456.42 335.06 455.59 331.6 455.92 329.82 455.53 327.63 456.62 326.07 455.36 321.65 453.8 314.59 455.09 311.94 458.1 311.03 463 313.47 466.49 311.52 469.75 314.58 470.53 314.16 473.9 312.28 476.18 313.38 478.18 318.08 481.04 319.55 482.33 322.85 477.28 323.57 475.21 327.19 475.47 329.61 476.38 332.17 478.32 337.78 480.1 339.33 481.02 337.75 483.37 327.69 486.76 325.59 488.57 325.15 489.95 320.26 494.41 318.02 498.2 315.33 500.75 314.08 508.12 308.08 514.03 301.91 516.32 300.02 518.75 299.36 521.1 299.81 524.92 299.32 526.21 294.17 532.81 293.72 535.46 288.2 538.46 285.3 537.73 283.56 538.38 280.46 538.07 280.04 539.57 271.26 543.59 267.37 543.92 265.16 543.05 260.82 542.82 258.25 545.91 249.94 544.18 248.07 540.25 248.86 538.29 245.4 535.2 243.93 535.03 241.64 535.16 241.53 536.49 238.91 536.73 238.8 538.72 236.99 539.93 231.11 539.36 229.21 536.52 225.18 534.58 234.43 523.88 235.51 522.25 238.82 521.66 239.22 519.39 242.89 518.57 238.4 509.73 239.72 507.97 235.98 503.62 229.46 500.61 227.78 496.66 226.98 496.97 223.37 488.23 217.43 486.58 218.64 483.85 221.13 485.06 224.33 479.83 222.27 476.7 221.68 473.23 221.99 469.33 223.11 467.81 225.19 461.06 228.34 458.31 230.03 455.54 232.28 454.24 235.08 447.13 233.84 443.61 232.72 436.08 229.33 434.93 227.2 431.68 228.1 429.53 228.14 427.05 227.18 425.2 228.1 420.56 226.41 419.07 223.04 423.67 221.49 424.35 218.22 422.06 221.31 420.71 223.04 418.63 225.32 417.05 229.71 415.84 231.38 413.31 235.89 409.85 239.17 409.86 241.64 410.52 242.15 412.58 244.55 412.44 248.51 410.4 250.71 410.29 251.72 408.9 256.69 409.8 259.99 407.14 261.19 406.89 266.14 403.8 270.37 403.24 275.1 403.82 279.11 402.28 277.97 400.23 278.08 397.69 280.32 393.4 282.41 392.64 283.72 387.89 283.82 385.45 287.06 385.57 288.4 386.78 294.41 386.03 294.79 385.22 298.07 384.53 298.75 383.57 298.18 381.05 298.65 378.51 301.28 378.99 303.82 377.1 307.18 376.78 312.25 374.38 312.09 373.2 315.35 370.79 315.93 367.56 317.47 365.04 320.44 362.73 322.37 358.79 323.22 359.25 Z" id="38530360"/>
<path d="M 565.31 633.01 564.75 637.15 562.61 637.42 559.82 644.12 557.34 645.76 555.63 650.23 551.96 653.07 549.06 652.3 543.77 651.8 540.98 650.7 531.56 650.2 529.53 652.48 524.29 650.83 521.4 652.02 518.94 652.15 514.74 655.08 515.5 660.32 516.93 663.14 513.21 666.98 511.79 670.36 503.69 672.99 499.83 675.29 498.34 675.34 496.4 676.82 492.12 676.46 486.71 675.34 483.17 679.1 476.23 680.28 470.31 684.39 468.32 686.48 464.01 689.28 461.84 688.36 456.79 691.55 453.64 697.05 451.19 698.82 446.69 699.95 444.23 700.12 445.91 704.96 444.88 706.96 445.06 711.66 443.14 715.59 443.09 718.98 444.73 721.98 445.8 725.93 446.9 727.3 448.02 731.81 445.35 738.6 444.23 739.58 443.4 742.31 441.51 746 440.75 749.89 438.18 751.98 436.05 752.02 434.59 753.4 432.13 757.68 430.9 757.38 427.89 758.6 424.26 756.39 421.38 753.13 418.26 755.79 413.83 755.81 412.23 756.9 411.93 758.49 405.76 759.52 401.91 759.69 401.64 758.05 397.27 758.73 395.42 761.72 391.98 763.63 392.51 766.52 394.57 769.34 394.42 772.66 391.54 773.3 386.65 775.97 378.31 778.88 373.11 779.22 369.77 777.79 366.16 778.34 366.88 780.43 366.72 782.91 364.47 785.14 363.11 784.88 358.68 785.65 356.19 788.16 355.09 787.5 351.2 789.85 347.23 790.82 344.41 792.53 344.07 789.83 341.69 791.51 340.02 793.59 336.12 794.63 332.45 798.43 329.56 795.9 327.94 793.14 328.93 788.67 331.62 787.59 333.93 785.66 336.27 782.1 336.78 779.62 340.06 774.41 340.67 771.55 342.94 768.31 347.81 766.81 349.53 765.28 354.92 763.03 361.87 762.65 363.78 761.4 364.46 759.86 364.94 754.73 364.66 751.82 366.5 747.42 367.12 740.37 366.45 737.96 366.22 733.29 370.65 734.46 373.17 733.29 373.59 729.8 373.01 728.21 374.89 726.8 375.36 723.29 375.12 720.97 377.63 719.3 379.09 716.88 382.34 715.4 383.57 711.91 382.32 710.08 377.14 707.19 376.9 705.39 374.18 703.6 372.89 706.34 366.25 706.79 363.29 708.57 362.05 710.3 360.75 714.7 358.4 715.22 358.38 712.54 357.64 708.68 355.16 702.76 354.18 697.15 352.05 695.95 348.1 695.36 344.14 696.16 341.17 697.7 340.76 692.51 339.25 687.9 343.54 682.07 344.61 679.94 343.13 677.28 343.89 674.48 346.01 670.93 346.64 667.15 349.31 662.48 350.93 661.03 354.23 655.65 357.91 655.35 360.1 654.23 361.26 656.9 364.09 654.52 366.05 651.67 365.22 650.99 366.47 648.52 368.33 647.49 368.04 646.17 370.09 642.69 369.82 639.1 372.49 638.74 375.52 639.93 376.62 641.33 378.45 641.34 377.68 635.62 378.81 632.05 380.21 632.03 383.85 628.64 385.89 624.33 387.53 623.88 391.14 621.14 392.71 618.47 393.87 618.18 395.3 613.76 396.61 612.58 398.04 608.42 397 605.67 398.78 605.32 402.59 602.01 406.11 600.77 405.13 599.06 406.86 596.7 405.99 593.5 406.73 590.74 406.21 588.14 410.96 587.8 413.98 587.98 417.95 587.07 419.77 583.21 422.74 580.74 427.07 578.51 433.24 578.32 435.32 579.68 438.58 577.88 440.72 577.55 443.73 578.13 449.35 576.33 452.96 577.16 455.59 576.47 459.69 577.17 461.35 576.27 464.91 575.65 466.3 574.79 469.3 570.71 477.95 567.91 481.14 568.03 484.71 565.51 489.91 565.72 491.48 566.5 502.97 569.37 503.97 575.5 505.88 578.6 510.69 588.54 513.47 590.27 517.9 598.05 519.75 599.29 519.69 603.38 523.71 609.05 525.02 609.73 527.83 613.47 532.85 618.7 536.94 623.81 545.74 627.84 550.58 630.38 553.62 630.99 559.21 631.37 562.17 631.19 565.31 633.01 Z" id="38530370"/>
<path d="M 582.21 610.65 582.42 617.51 584.53 617.48 586.67 618.73 587.52 620.31 587.26 622.99 585 628.66 583.07 632.15 584.66 640.44 583.81 643.91 585.73 648.54 588.66 651.06 588.51 654.04 586.19 657.14 587.57 659.76 588.5 665.13 588.37 667.97 589.45 670.59 590.27 674.53 590.08 677.21 593.28 677.75 596.7 680.62 599.77 681.35 600.55 684.99 600.64 688.68 604.09 692.92 604.62 696.3 603.41 698.27 601.95 703.96 601.82 708.31 599.85 715.17 602.37 718.61 598.77 720.43 597.68 722.37 595.6 723.56 594.51 725.48 591.4 728.88 587.23 728.23 585.03 728.57 581.75 726.96 578.38 730.33 574.92 731.57 573.07 731.42 570.45 734.13 564.46 735.46 563.67 737.05 560.57 735.78 553.01 730.22 547.57 731.75 543.54 734.22 540.58 734.91 537.94 736.44 535.57 736.78 532.97 738.52 522.78 739.8 522.48 742.61 521.16 747.53 520.84 750.82 516.24 755.45 511.61 761.07 510.37 763.66 514.66 764.11 514.88 766.72 513.26 768.83 511.53 769.52 512.55 771.51 513.29 776.63 511.8 778.99 510.59 782.2 506.99 783.55 506.68 785.35 503.9 787.14 506.05 791.93 505.49 793.74 501.6 795.83 499.77 797.33 496.91 798.35 489.97 799 484.45 800.46 481.1 800.23 480.33 795.77 477.9 786.06 479.35 781.77 479.3 780.35 477.43 772.17 475.74 772.62 472.17 775.05 468.98 777.81 465.95 774.18 466 772.25 463.42 768.1 462.78 763.71 457.77 765.15 452.13 771.28 452.92 771.71 451.08 775.31 449.8 775.95 447.34 778.9 446.26 781.56 446.51 784.03 443.81 786.17 441.24 784.67 440.38 782.91 440.39 780.57 438.41 776.61 433.95 773.45 433.42 771.22 430.93 770.97 429.26 772.27 427.99 775.2 426.1 776.59 426.69 780.6 424.84 782.83 424.1 787.27 421.99 789.9 421.67 792.27 426.2 791.97 425.92 796.73 426.27 798.08 424.18 799.28 425.17 803.92 427.12 805.93 429.28 806.43 430.91 808.18 426.6 812.25 425.43 812.67 424.28 815.1 422.32 816.85 417.7 819.56 413.21 820.6 412.22 823.9 415.37 828.93 414.41 833.51 412.95 837.68 410.66 842.65 409.83 847.18 406.02 852.64 405.82 857.99 404.94 861.41 402.49 863.68 400.89 867.37 397.42 870.01 396.07 871.9 395.71 879.38 398.96 885.5 375.84 888.9 374.12 900.25 371.96 901.14 368.76 900.77 365.12 907.25 362.51 910.38 360.56 910.48 357.16 909.49 356.26 908.45 355.79 901.47 354.07 897.87 352.38 896.67 346.6 894.23 344.29 891.05 343.75 887.61 344.13 883.67 345.8 877.76 347.28 874.58 350.42 870.6 351.05 869.09 349.12 865.95 346.68 865.73 339.6 863.79 337.11 863.49 331.23 860.42 331.07 859.94 337.18 835.17 332.8 832.82 331.37 830.33 329.82 829.46 325.57 828.46 319.18 825.14 324.99 814.54 324.92 813.8 331.45 801.91 332.45 798.43 336.12 794.63 340.02 793.59 341.69 791.51 344.07 789.83 344.41 792.53 347.23 790.82 351.2 789.85 355.09 787.5 356.19 788.16 358.68 785.65 363.11 784.88 364.47 785.14 366.72 782.91 366.88 780.43 366.16 778.34 369.77 777.79 373.11 779.22 378.31 778.88 386.65 775.97 391.54 773.3 394.42 772.66 394.57 769.34 392.51 766.52 391.98 763.63 395.42 761.72 397.27 758.73 401.64 758.05 401.91 759.69 405.76 759.52 411.93 758.49 412.23 756.9 413.83 755.81 418.26 755.79 421.38 753.13 424.26 756.39 427.89 758.6 430.9 757.38 432.13 757.68 434.59 753.4 436.05 752.02 438.18 751.98 440.75 749.89 441.51 746 443.4 742.31 444.23 739.58 445.35 738.6 448.02 731.81 446.9 727.3 445.8 725.93 444.73 721.98 443.09 718.98 443.14 715.59 445.06 711.66 444.88 706.96 445.91 704.96 444.23 700.12 446.69 699.95 451.19 698.82 453.64 697.05 456.79 691.55 461.84 688.36 464.01 689.28 468.32 686.48 470.31 684.39 476.23 680.28 483.17 679.1 486.71 675.34 492.12 676.46 496.4 676.82 498.34 675.34 499.83 675.29 503.69 672.99 511.79 670.36 513.21 666.98 516.93 663.14 515.5 660.32 514.74 655.08 518.94 652.15 521.4 652.02 524.29 650.83 529.53 652.48 531.56 650.2 540.98 650.7 543.77 651.8 549.06 652.3 551.96 653.07 555.63 650.23 557.34 645.76 559.82 644.12 562.61 637.42 564.75 637.15 565.31 633.01 566.57 631.46 566.86 627.62 566.42 620.58 571.44 619.1 573.22 616.76 575.18 612.26 575.54 609.33 578.58 607.87 582.21 610.65 Z" id="38530380"/>
<path d="M 484.71 565.51 481.14 568.03 477.95 567.91 469.3 570.71 466.3 574.79 464.91 575.65 461.35 576.27 459.69 577.17 455.59 576.47 452.96 577.16 449.35 576.33 443.73 578.13 440.72 577.55 438.58 577.88 435.32 579.68 433.24 578.32 427.07 578.51 422.74 580.74 419.77 583.21 417.95 587.07 413.98 587.98 410.96 587.8 406.21 588.14 406.73 590.74 405.99 593.5 406.86 596.7 405.13 599.06 406.11 600.77 402.59 602.01 398.78 605.32 397 605.67 398.04 608.42 396.61 612.58 395.3 613.76 393.87 618.18 392.71 618.47 391.14 621.14 387.53 623.88 385.89 624.33 383.85 628.64 380.21 632.03 378.81 632.05 377.68 635.62 378.45 641.34 376.62 641.33 375.52 639.93 372.49 638.74 369.82 639.1 370.09 642.69 368.04 646.17 368.33 647.49 366.47 648.52 365.22 650.99 366.05 651.67 364.09 654.52 361.26 656.9 360.1 654.23 357.91 655.35 354.23 655.65 350.93 661.03 349.31 662.48 346.64 667.15 346.01 670.93 343.89 674.48 343.13 677.28 344.61 679.94 343.54 682.07 339.25 687.9 340.76 692.51 341.17 697.7 344.14 696.16 348.1 695.36 352.05 695.95 354.18 697.15 355.16 702.76 357.64 708.68 358.38 712.54 358.4 715.22 360.75 714.7 362.05 710.3 363.29 708.57 366.25 706.79 372.89 706.34 374.18 703.6 376.9 705.39 377.14 707.19 382.32 710.08 383.57 711.91 382.34 715.4 379.09 716.88 377.63 719.3 375.12 720.97 375.36 723.29 374.89 726.8 373.01 728.21 373.59 729.8 373.17 733.29 370.65 734.46 366.22 733.29 366.45 737.96 367.12 740.37 366.5 747.42 364.66 751.82 364.94 754.73 364.46 759.86 363.78 761.4 361.87 762.65 354.92 763.03 349.53 765.28 347.81 766.81 342.94 768.31 340.67 771.55 340.06 774.41 336.78 779.62 336.27 782.1 333.93 785.66 331.62 787.59 328.93 788.67 327.94 793.14 329.56 795.9 332.45 798.43 331.45 801.91 324.92 813.8 323.56 812.69 305.1 812.18 300.45 810.95 295.27 808.55 296.11 803.67 293.68 803.93 293.16 801.58 291.36 799.57 288.99 794.5 287.31 794.2 282.19 797.65 279.22 798.8 277.48 800.19 276.27 799.65 274.91 803.49 275.82 809.02 275.86 813.08 271.24 816.96 269.79 815.76 266.75 814.91 265.96 811.8 264.03 810.22 261.66 806.8 257.38 807.08 255.18 805.41 255.38 803.29 254.44 802.04 251.15 800.81 249.93 798.49 248.58 798.13 247.74 795.17 246 793.83 243.52 790.17 242.21 786.23 240.86 784.91 238.22 783.82 237.27 782.05 234.55 779.77 233.48 776.1 231.82 775.58 231.16 770.94 232.49 769.14 232.65 767.17 234.91 765.59 237.62 765.88 240 760 241.79 758.85 242.62 754.96 240.48 750.4 237.38 749.74 235.97 746.66 234.01 744.98 235.99 741.1 236.65 737.63 236.81 730.37 237.78 727.65 242.18 723.09 243.02 720.29 244.63 719.09 244.67 716.92 243.66 715.54 243.84 713.67 241.17 710.95 239.91 704.32 238.91 702.09 237.13 700.03 234.27 700.25 235.29 697.6 238.03 696.51 239.36 694.27 239.56 689.45 240.56 684.97 239.96 681.26 239.8 675.25 241.31 672.02 243.95 669.01 246.83 669.04 250.28 670.5 253.73 669.87 255.42 668.03 257.76 667.02 259.15 664.46 258.88 661.7 256.11 657.83 257.02 657.06 260.48 658.33 262.04 656.1 262.97 652.08 264.62 651.17 266.76 653.02 270.29 653.09 271.64 652.46 272.23 650.21 273.51 649.96 276.83 646.63 280.37 646.3 280.49 640.72 281.05 637.34 283.83 633.55 285.2 633.25 282.32 629.6 282.31 625.8 288.93 623.84 289.91 620.9 290.26 617.26 291.88 616.05 295.11 618.33 298.32 619.55 300.7 619.49 301.7 617.51 303.33 616.65 306.29 617.01 307.35 616.14 310.03 609.67 310.09 607.29 311.17 603.98 312.86 602.13 314.57 602.44 317.31 600.77 323.78 599.88 325.44 598.75 328.6 599.43 330.98 595.34 334.18 597.5 334.44 599.68 337.86 598.84 340.1 597.69 340.47 595.66 344.64 591.45 345.07 587.84 345.9 585.95 348.98 583.88 350.06 581.54 349.57 580.41 349.68 575.94 352.81 575.64 357.99 572.49 359.76 571.81 362.38 572.04 364.3 571.25 366.21 568.23 370.37 566.32 373.84 568.04 375.7 566.18 377.17 566.38 380.6 564.81 383.21 562.33 386.54 560.61 389.36 561.4 391.26 563.75 393.47 562.81 394.77 564.4 397.62 565.94 399.48 565.78 400.45 568.4 401.59 568.62 403.83 571.94 407.08 572.69 409.05 574.3 412.41 575.82 416.97 574.3 419.37 574.44 421.54 573.3 424.8 573.41 430.62 570.2 437.12 568.24 438.66 568.49 444.49 566.55 449.81 561.17 455.3 558.52 463.29 558.16 471.93 555.64 473.05 555.06 482.23 556.29 483.87 561.05 484.71 565.51 Z" id="38530390"/>
<path d="M 591.4 728.88 592.57 734.37 592.44 738.11 590.75 740.04 590.06 742.77 590.9 750.2 590.02 752.58 586.58 756 585.19 758.97 587.43 766.97 587.45 771.87 588.34 779.71 584.38 781.25 578.94 780.07 575.86 781.94 572.92 782.84 570.8 787.17 569.1 787.87 567.85 789.93 566.58 797.6 568.31 800 567.12 802.82 566.64 805.76 567.27 810.2 566.04 812.87 565.57 815.97 562.47 822.14 557.07 825.34 554.86 828.41 552.3 830.58 548.87 835.13 546.74 835.13 548.42 838.05 547.4 839.16 547.06 843.2 544.52 847.37 542.78 847.77 541.83 852.12 542.28 860.83 544.48 869 541.78 874.58 542.07 877.68 538.8 878.95 531.53 880.47 527.8 882.05 523.82 887.61 520.45 889.53 517.55 888.73 509.4 892.48 507.53 892.82 504.96 890.86 502.77 887.91 499.73 886.94 495.8 887.2 494.58 891.49 492.77 892.53 492.74 897.83 490.74 898.8 489.79 900.28 486.07 903.6 485.02 905.24 480.99 905.3 480.98 909 475.82 909.11 475.28 910.53 467.6 916.09 462.05 921.22 461.89 923.05 459.67 922.32 456.99 922.43 453.61 921.45 449.47 923.78 445.12 929.24 444.37 928.77 439.67 922.89 433.54 911.46 431.46 904.5 404.45 907.95 385.3 923.99 385.17 917.21 387.29 912.39 389.5 910 386.48 905.37 382.86 906.91 379.45 907.23 376.94 904.56 374.67 903.62 371.96 901.14 374.12 900.25 375.84 888.9 398.96 885.5 395.71 879.38 396.07 871.9 397.42 870.01 400.89 867.37 402.49 863.68 404.94 861.41 405.82 857.99 406.02 852.64 409.83 847.18 410.66 842.65 412.95 837.68 414.41 833.51 415.37 828.93 412.22 823.9 413.21 820.6 417.7 819.56 422.32 816.85 424.28 815.1 425.43 812.67 426.6 812.25 430.91 808.18 429.28 806.43 427.12 805.93 425.17 803.92 424.18 799.28 426.27 798.08 425.92 796.73 426.2 791.97 421.67 792.27 421.99 789.9 424.1 787.27 424.84 782.83 426.69 780.6 426.1 776.59 427.99 775.2 429.26 772.27 430.93 770.97 433.42 771.22 433.95 773.45 438.41 776.61 440.39 780.57 440.38 782.91 441.24 784.67 443.81 786.17 446.51 784.03 446.26 781.56 447.34 778.9 449.8 775.95 451.08 775.31 452.92 771.71 452.13 771.28 457.77 765.15 462.78 763.71 463.42 768.1 466 772.25 465.95 774.18 468.98 777.81 472.17 775.05 475.74 772.62 477.43 772.17 479.3 780.35 479.35 781.77 477.9 786.06 480.33 795.77 481.1 800.23 484.45 800.46 489.97 799 496.91 798.35 499.77 797.33 501.6 795.83 505.49 793.74 506.05 791.93 503.9 787.14 506.68 785.35 506.99 783.55 510.59 782.2 511.8 778.99 513.29 776.63 512.55 771.51 511.53 769.52 513.26 768.83 514.88 766.72 514.66 764.11 510.37 763.66 511.61 761.07 516.24 755.45 520.84 750.82 521.16 747.53 522.48 742.61 522.78 739.8 532.97 738.52 535.57 736.78 537.94 736.44 540.58 734.91 543.54 734.22 547.57 731.75 553.01 730.22 560.57 735.78 563.67 737.05 564.46 735.46 570.45 734.13 573.07 731.42 574.92 731.57 578.38 730.33 581.75 726.96 585.03 728.57 587.23 728.23 591.4 728.88 Z" id="38530400"/>
<path d="M 661.68 928.29 645.56 932.7 624.21 953.84 602.92 967.78 601.53 968.24 588.57 972.53 574.18 975.57 545.29 976.2 530.82 974.94 527.88 975.39 516.33 973.85 505.53 973.18 487.17 959.92 468.08 945.37 457.82 937.47 445.12 929.24 449.47 923.78 453.61 921.45 456.99 922.43 459.67 922.32 461.89 923.05 462.05 921.22 467.6 916.09 475.28 910.53 475.82 909.11 480.98 909 480.99 905.3 485.02 905.24 486.07 903.6 489.79 900.28 490.74 898.8 492.74 897.83 492.77 892.53 494.58 891.49 495.8 887.2 499.73 886.94 502.77 887.91 504.96 890.86 507.53 892.82 509.4 892.48 517.55 888.73 520.45 889.53 523.82 887.61 527.8 882.05 531.53 880.47 538.8 878.95 542.07 877.68 541.78 874.58 544.48 869 542.28 860.83 541.83 852.12 542.78 847.77 544.52 847.37 547.06 843.2 547.4 839.16 548.42 838.05 546.74 835.13 548.87 835.13 552.3 830.58 554.86 828.41 557.07 825.34 562.47 822.14 565.57 815.97 566.04 812.87 567.27 810.2 566.64 805.76 567.12 802.82 568.31 800 566.58 797.6 567.85 789.93 569.1 787.87 570.8 787.17 572.92 782.84 575.86 781.94 578.94 780.07 584.38 781.25 588.34 779.71 595.23 785.1 596.96 787.21 599.76 788.16 601.2 789.36 606.23 792.24 610.87 792.86 614.5 794.28 619.65 800.19 620.43 805.13 619.66 808.33 620.2 809.99 619.97 813.65 620.89 817.98 621.39 824.84 622.78 826.63 623.48 829.74 622.9 832.64 622.4 839.55 625.14 840.35 628.11 842.1 630.66 845.69 634.11 848.09 637.35 846.61 639.87 844.13 644.84 843.57 649.53 844.05 651.6 847.3 656.52 852.12 658.32 858.9 658.68 865.49 660.51 868.5 661.07 877.92 661.96 880.03 662.86 884.52 661.93 889.21 662.21 895.18 668.34 899.1 658.97 912.46 654.77 914.19 652.71 914.33 650.89 917.74 651.32 919.03 655.37 918.27 657.68 919.06 659.77 921.41 661.68 928.29 Z" id="38530410"/>
<path d="M 795.36 819.79 794.58 826.45 794.67 832.85 790.13 843.7 786.25 850.14 784.47 854.16 782.53 861.42 782.68 865.18 785.29 875.34 785.59 884.14 787.57 889.94 788.05 892.73 788.27 898.79 789.33 902.66 792.58 910.13 787.46 914.03 784.06 917.91 782.85 920.34 778.8 925.69 777.54 931.15 778.16 934.15 780.09 937.92 779.77 940.77 777.72 942.94 774.59 944.11 767.93 944.84 764.89 947.1 764.58 953.41 765.53 954.23 770.17 956.16 774.37 953.66 778.88 952.76 784.62 953 791.1 951.09 793.46 949.96 795.34 954.87 798.07 958.2 799 961.86 795.97 963.07 788.27 965.46 788.51 969.63 790.87 973.59 793.53 978.98 796.99 983.98 791.13 986.64 776.78 991.25 774.14 993.24 762.54 1001.91 754.39 1005 748.06 1000.25 733.38 988.62 717.02 975.08 702.92 963.81 689.05 952.3 679.37 941.16 670.99 929.77 666.84 926.88 661.68 928.29 659.77 921.41 657.68 919.06 655.37 918.27 651.32 919.03 650.89 917.74 652.71 914.33 654.77 914.19 658.97 912.46 668.34 899.1 662.21 895.18 661.93 889.21 662.86 884.52 661.96 880.03 661.07 877.92 660.51 868.5 658.68 865.49 658.32 858.9 656.52 852.12 651.6 847.3 649.53 844.05 644.84 843.57 639.87 844.13 637.35 846.61 634.11 848.09 630.66 845.69 628.11 842.1 625.14 840.35 622.4 839.55 622.9 832.64 623.48 829.74 622.78 826.63 621.39 824.84 620.89 817.98 619.97 813.65 620.2 809.99 619.66 808.33 620.43 805.13 619.65 800.19 614.5 794.28 610.87 792.86 606.23 792.24 601.2 789.36 599.76 788.16 596.96 787.21 595.23 785.1 588.34 779.71 587.45 771.87 587.43 766.97 585.19 758.97 586.58 756 590.02 752.58 590.9 750.2 590.06 742.77 590.75 740.04 592.44 738.11 592.57 734.37 591.4 728.88 594.51 725.48 595.6 723.56 597.68 722.37 598.77 720.43 602.37 718.61 610.34 726.22 611.11 730.2 612.58 731 615.73 734.64 618.3 735.57 624 735.39 627.64 738.53 629.43 738.18 633.31 738.91 635.73 738.34 637.65 738.93 639.65 736.91 644.49 734.68 645.4 735.23 652.09 736.91 652.69 737.82 657.9 736.5 663.29 741.23 670.1 740.45 671.08 741.64 673 741.76 675.3 743.14 675.62 745.46 681.72 751.38 683.48 751.04 691.76 754.05 693.89 755.44 700.66 756.98 701.79 753.58 701.94 750.35 704.38 747.02 709.24 745.91 710.02 744.36 712.94 743.86 713.48 742.97 717.94 742 720.71 739.42 728.25 737.99 732.93 743.08 737.36 746.56 741.01 747.44 743.49 752.14 746.52 759.52 749.01 768.38 751.08 777.13 751.23 781.94 750.42 783.88 751.05 785.89 755.63 792.65 759.65 792.93 765.34 792.83 767.48 794.28 768.9 796.23 771.02 797.51 773.51 797.44 777.97 798.13 779.6 799.05 780.11 801.99 784.84 805.36 784.7 809.24 784.08 812.84 785.75 814.52 788.17 818.41 791.41 817.97 792.91 819.59 795.36 819.79 Z" id="38530420"/>
</g>
</svg>