<?xml version="1.0"?>
<svg xmlns="http://www.w3.org/2000/svg" version="1.2" baseProfile="tiny" width="800" height="1539" viewBox="0 0 800 1539" stroke-linecap="round" stroke-linejoin="round">
<g id="dong">
<path d="M 624.87 354.21 627.04 355.01 630.7 354.88 635.22 355.67 636.62 355.41 637.85 357.65 641.11 360.27 640.73 362.11 637.42 363.05 632.96 360.31 631.44 360.51 628.18 359.17 625.74 360.36 623.83 358.61 622.23 354.36 624.87 354.21 Z M 781.54 348.47 784.66 350.26 780.78 351.13 781.54 348.47 Z M 669.52 170.02 668.28 169.69 665.89 166.88 668.23 164.95 670.43 165.1 671.58 167.34 669.52 170.02 Z M 631.32 83.31 633.41 83.92 635.35 87.67 638.75 89.99 638.32 92.53 635.07 94.69 634.14 96.44 636.95 97.45 638.66 99.48 638.78 101.34 636.1 103.04 634 105.85 634.39 107.61 633.76 110.96 632.54 113.61 631.24 113.73 631.13 118.02 628.86 122.41 628.2 125.04 625.83 130.41 625.84 132.28 624.61 136.71 623.24 137.8 621.96 140.52 619.49 148.82 617.55 152.26 615.71 152.66 610.64 157.85 605.98 161.03 607.06 166.12 606.49 166.77 601.49 166.62 599.77 169.01 601.76 171.83 600.84 173.61 598.53 173.43 595.84 176.29 592.25 177.09 591.43 178.48 593.13 179.94 590.65 181.66 589.14 185.18 591.12 188.53 591.44 193.57 586.42 197.71 587.03 201.3 588.29 203.53 588.86 208.41 585.58 213.64 585.38 217.34 586.48 217.76 585.95 221.46 584.42 224.05 580.64 225.06 580.06 226.61 580.43 229.69 580.09 233.42 581.31 234.28 580.98 239.15 578.88 239.24 577.01 240.84 577.8 243.21 574.7 246.44 575.51 248.32 574 253.87 575.53 257.31 577.74 258.75 574.75 262.98 576.66 264.95 575.19 270.25 577.98 274.49 580.49 276.68 585.82 276.96 596.88 276.57 599.86 277.95 601.26 279.68 601.86 284 604.84 284.61 617.21 275.85 617.14 273.52 619.04 272.11 619.98 269.45 616.96 265.43 613.81 262.96 611.31 259.01 610.82 256.86 610.86 251.92 609 246.88 609.11 242.86 610.21 239.49 609.85 236.09 610.87 230.01 608.78 228.13 607.79 225.29 608.73 222.05 611.16 220.08 612.68 216.98 613.93 217.11 616.21 221.7 619.94 220.92 620.08 217.24 619.15 211.94 618.26 210.22 620.51 209.33 624.33 208.95 626.25 205.36 624.19 200.51 626.54 196.98 627.71 196.78 630.91 199.67 630.47 202.47 632.1 202.65 634.07 200.4 638.21 196.85 637.45 195.45 634.51 195.66 632.37 194.97 632.16 192.51 630.29 190.37 632.42 184.63 634.27 183.76 634.87 182.12 642.37 181.4 645.13 181.73 645.7 180.02 641.46 175.62 646.58 173.61 645.79 171.02 646.07 168.59 650.68 165.15 653.14 165.51 654.36 169.63 655.82 170.84 654.69 174.81 655.03 176.51 654.18 179.48 652.82 181.16 650.05 181.13 649.58 182.48 654.45 185.82 656.5 186.19 661.05 183.56 661.53 181.79 663.36 179.89 663.24 176.64 666.73 174.4 670.78 173.28 673.78 170.79 679.15 168.49 681.57 168.7 682.03 170.44 681.47 173.67 682.01 176.32 681.37 177.87 678.12 178.85 675.21 176.26 673.58 177.09 673.59 180.13 670.71 182.53 664.75 180.69 662.7 181.95 662.04 185.18 662.89 186.84 664.91 186.86 666.83 188.8 661.27 193.27 658.07 195.24 658.05 198.29 659.1 199.12 664.21 195.67 669.21 194.09 671.27 194.36 673.63 191.86 675.3 192.15 677.5 193.99 678.46 191.74 681.49 191.76 681.25 197.79 682.66 200.19 685.93 199.23 688.87 202.83 688.61 204.12 685.63 206.55 683.6 209.92 679.8 211.95 678.33 215.16 681.47 219.58 682.67 220.29 685.98 219.22 688.53 214.05 695.37 212.77 703.66 209.74 704.77 211.3 703.35 213.38 704.54 214.94 703.97 217.45 705.63 219.47 706.98 218.88 710.81 214.54 713.3 215.33 712.58 219.2 713.77 220.86 713.66 223.34 710.12 225.76 709.62 227.81 710.52 229.63 713.39 230.2 716.02 232.79 717.15 232.52 718.4 227.53 719.89 229.4 725.37 230.91 728.78 233.59 727.6 236.57 724.76 240.38 724.07 243.2 726.62 247.25 729.28 247.05 732.23 245.14 735.73 245.44 733.12 250.08 730.89 252.12 729.28 252.28 727.93 254.2 729.68 258.98 733.58 259.15 736.88 261 735.15 266.15 734.61 271.2 734.97 277.29 732.4 283.36 732.79 286.57 731.07 288.06 730.06 292.14 723.99 291.92 719.66 295.18 718.55 297.79 720.2 304.45 719.5 305.06 717.63 297.19 715.03 295.46 711.45 298.53 709.64 299.4 709.81 301.6 711.42 303.31 707.02 303.88 705.41 304.94 705.94 311.95 700.82 316.46 698.88 318.96 699.04 320.87 701.16 323.2 704.5 323.27 709.36 320.18 710.48 320.55 712.79 324.51 715.11 323.45 713.86 320.14 714.59 317.48 717.15 314.63 721.53 310.79 723.17 310.53 725.4 311.97 726.5 313.7 724.05 316.62 723.61 321.97 722.64 323.67 724.88 328.44 726.87 328.21 730.96 330.2 730.83 333.45 726.87 334.78 723.05 333.91 719.59 335.13 717.6 339.57 718.52 344.22 720.65 348.37 722.51 348.74 724.87 351.03 728.22 352.43 732.83 351.33 738.13 344.16 734.89 338.52 735.28 338.06 739.8 344.13 741.91 344.77 742.56 346.23 745.48 348.02 748.64 347.75 752.84 345.84 754.88 346.46 757.17 348.65 759.44 349.72 762.6 349.14 766.68 352.6 764.8 355.07 767.53 360.68 764.86 361.79 765.18 366.06 766.95 368.94 769.52 370.16 773.06 368.63 777.88 369.18 780.67 372.48 780.3 374.98 781.9 376.86 783.94 377.54 787.32 375.03 789.62 376.29 789.82 379.88 787.08 381.4 785.44 383.37 789 384.45 789.17 385.63 786.26 387.39 786.45 390.14 788.95 392.81 788.87 394.06 795.05 397.18 796.5 398.78 796.18 403.82 794.09 402.77 788.65 403.3 789.09 401.72 785.81 400.92 782.87 401.07 777.52 403.01 775.26 402.66 774.86 404.49 772.92 405.12 771.34 403.34 768.85 402.92 767.99 397.61 769.7 392.94 769.62 389.84 764.61 387.78 764.43 384.68 763.14 382.45 755.75 380.73 753.67 379 748.3 378.19 746.26 380.54 747.56 386.03 746.85 390.44 743.04 392.3 740.94 394.37 738.94 394.37 735.43 396.59 732.76 396.79 729.36 394.79 729.76 389.71 726.92 386.85 725.98 383.72 723.66 382.82 720.16 384.11 717.83 380.96 718.02 378.61 715.57 376.72 712.84 375.93 711.42 378.18 708.5 375.69 705.44 373.88 706.22 371.07 705.02 369.97 701.18 369.1 697.87 369.84 695.28 371.2 693.27 375.66 689.5 376.85 689.21 374.77 687.03 374.95 686.42 377.56 679.91 379.13 676.82 377.28 674.92 372.88 671.13 371.31 668.03 365.73 663.63 364.34 660 365.68 656.18 363.82 653.54 364.15 653.36 362.05 650.89 358.38 646.5 357.46 645.74 354.43 644.28 351.54 637.66 351.7 632.19 349.39 630.37 347.95 622.68 343.53 620.06 341.39 615.95 340.55 610.9 348.96 611.37 350.45 610.54 352.94 612.47 359.48 614.57 361.3 614.43 364.77 616.61 366.43 615.75 367.88 610.95 365.31 608.84 359.53 607.96 354.29 602.65 354.26 600.78 356.97 600.17 360.88 602.37 366.62 602.05 370.18 600.15 370.69 597.34 372.84 590.01 372.64 588.24 372.16 585.04 368.83 583.07 368.17 582.6 370.09 572.92 374.9 569.1 373.67 565.02 377.04 556.07 379.77 552.97 378.81 552.26 379.92 545.3 378.89 535.69 379.02 532.17 378.07 530.11 379.24 527.12 378.81 523.99 380.03 522.67 379.44 515.23 378.92 511.25 378.04 505.35 374.09 498.35 371.56 496.33 369.18 490.14 363.93 487.67 361.22 485.89 362.41 485.72 364.39 479.51 363.72 478.5 361.15 476.72 359.49 475.14 360.01 470.77 358.91 470.06 359.6 465.69 359.59 463.08 357.45 461 354.66 462 353.59 462.2 349.77 465.99 348.68 468.17 347.41 467.65 344.56 465.16 343.97 464.51 337.94 462.66 335 459.97 333.36 458.01 330.92 450.87 327.08 448.32 324.04 446.29 316.9 447.02 314.44 447.76 309.03 449.08 303.98 448.46 302.79 445.68 302.59 443.48 301.02 443.59 296.81 442.34 292.45 438.09 286.84 438.87 283.42 438.66 280.92 440.2 278.97 440.23 273.68 437.92 271.82 439.58 265.36 443.76 258.97 446.62 256.53 451.66 254.46 454.14 252.8 456.21 250.26 459.82 244.59 461.46 241.37 467.15 236.03 470 236.42 473.99 233.8 480.24 233.62 482.95 232.06 483.23 230.46 486.18 227.15 487.29 223.14 488.76 221.19 487.05 219.71 483.64 218.13 483.35 213.62 484.67 212.36 484.13 208.72 486.57 208.63 487.1 210.71 489.94 212.24 492.49 211.96 494.53 210.79 497.76 207.24 499.09 202.99 500.55 202.49 501.62 199.68 501.1 197.26 502.56 193.22 505.59 187.7 509.82 186.57 512.23 184.11 516.8 181.52 520.26 176.78 521.03 174.27 520.47 167.27 522.47 166.18 523.79 163.64 522.97 159.45 519.32 156.28 516.63 154.96 514.86 156.37 512.51 156.19 511.38 154.47 512.09 152.16 514.51 150.94 515.24 153.67 518.35 154.87 520.02 151.18 521.6 150.87 525.72 147.41 528.86 145.84 529.76 142.74 528.2 140.5 532.91 137.1 535.57 136.47 536.37 133.91 535.07 132.34 534.76 128.12 533.85 126.92 535.79 124.35 539.93 123.42 541.11 123.86 545.17 120.19 546.03 120.52 552.95 115.12 555.69 110.59 553.61 107.13 556.02 106 558.59 106.4 559.28 104.36 561.64 103.49 565.3 104.65 567.03 104.1 567.93 102.17 569.68 100.99 572.1 97.94 578.99 94.91 582.45 94.37 586.81 92.38 593.55 90.36 593.9 86.79 599.99 87.57 601.34 88.91 605.16 89.57 605.31 91.62 607.95 92.13 611.74 91.81 618.64 89.07 621.02 87.11 628.25 83.21 631.32 83.31 Z" fill-rule="evenodd" id="38550390"/>
<path d="M 339.37 400.06 340.93 403.56 340.08 404.67 339.4 411.31 340.89 413.07 341.2 416.79 339.52 418.76 339.33 420.97 338.09 423.14 335.43 424.69 327.45 425.62 324.02 424.39 322.58 427.21 318.49 429.64 316.25 430.38 317.45 435.48 316.61 437.16 314.48 435.31 311.9 434.3 309.35 437.59 303.17 443.09 301.82 442.74 297.78 443.64 298.04 447.31 296.08 449.57 284.32 454.1 282.79 453.49 279.65 454.26 275.81 453.4 274.31 458.44 273.98 463.83 274.19 467.09 271.25 470.65 270.65 473.98 269.32 474.98 268.14 479.6 265.85 483.96 265.94 486.19 267.2 489.62 266.71 493.34 268.36 494.87 271.63 496.33 274.47 499.29 274.43 501.03 278.55 506.99 278.46 511.17 275.37 515.78 275.11 520.37 273.82 523.56 272 525.05 269.81 524.63 265.78 525.38 262.09 523.6 256.89 523.66 253.39 525.43 243.38 524.67 240.48 527.96 235.84 527.77 233.26 528.45 230.63 524.58 226.45 515.84 224.88 515.08 225.37 512.68 223.92 508.27 221.89 503.9 212.97 501.36 209.99 495.37 207.18 488.75 203.58 486.78 200.86 486.57 196.6 480.32 195.45 477.63 191.06 471.59 190.25 466.1 186.95 460.18 189.14 458.14 194.05 455.26 195.43 452.12 188.18 453.6 187.05 452.67 186.15 447.44 189.86 444.41 189.35 442.73 184.94 437.76 183.64 429.87 183.52 426.71 184.07 421.49 185.93 416.8 182.37 414.68 181.65 412.76 177.63 412.33 173.29 409.49 173.72 405.23 172.07 403.34 172.67 397.72 172.09 395.41 172.42 391.01 173.6 386.94 173.28 385.89 176.03 377.57 178.43 373.95 176.66 372.19 176.92 367.75 174.95 366.13 166.16 362.85 162.28 359.78 158.33 357.73 152.29 351.95 148.16 350.34 145.52 346.86 142.09 344.41 138.99 343.29 137.52 341.21 137.27 336.29 138.64 331.49 135.18 327.49 136.72 321.13 140.47 313.31 141.25 310.44 144.42 309.29 149.27 309.45 151.62 308.46 159.65 309.68 163.84 310.03 170.32 310.01 172.6 310.65 182.46 310.85 190.2 303.4 192.43 303.23 197.79 301.78 200.27 302.31 201.99 301.51 204.85 303.31 216.81 304.04 219.77 304.71 219.91 301.74 221.2 299.53 226.91 301.09 228.46 307.03 229.27 308.19 234.46 311.85 237.07 312.54 238.72 314.73 244.45 318.07 246.73 316.5 254.81 316.93 260.88 312.62 261.2 310.29 263.88 308.65 263.26 304.73 263.74 301.82 266.7 299.61 271.47 297.79 274.31 296.72 274.96 299.22 277.72 301.73 278.78 301.25 281 304.07 282.3 307.68 285.27 311.23 284.88 313.41 287.82 315.67 289.54 321.23 291.48 323.28 293.74 327.95 293.5 330.41 297.39 334.01 298.58 334.32 301.34 332.69 304.15 333.7 303.39 336.43 304.11 339.31 305.85 341.82 303.84 344.22 305.97 346.41 304.42 348.39 306.66 355.4 310.1 367.86 314.03 379.42 313.35 383.72 316.9 384.51 323.09 384.76 326.08 385.42 325.97 388.3 329.94 390.86 330.9 392.85 333.1 394.07 332.51 397.75 333.42 399.99 336.04 400.57 339.37 400.06 Z" id="38550110"/>
<path d="M 452.2 474.73 453.29 475.21 456.47 473.93 458.43 476.91 458.55 479.94 460.74 480.49 462.01 478.53 463.93 478.74 466.51 477.67 466.96 479.47 470.51 479.56 475.23 483.16 481.07 483.23 486.54 484.03 485.72 487.99 487.67 490.61 489.34 488.77 494.72 490.01 503.63 494.33 505.71 499.04 507 499.89 515.45 501.72 519.31 503 522.33 502.11 529.26 505.77 535.64 507.17 535.99 510.76 538.33 513.56 541.59 513.22 545.48 513.64 551.26 512.73 552.87 511.68 556.58 512.55 558.89 513.87 561.04 523.96 562.44 537.35 560.92 544.74 558.18 550.88 557.48 553.97 554.38 557.99 551.45 557.9 548.11 560.04 547.12 562.2 547.98 564.6 547.19 569.85 549.86 572.9 549.74 578.66 548.65 583.14 549.29 589.45 548.56 592.93 551.09 594.96 551.02 602.53 552.58 610.34 551.48 614.33 549.46 618.1 546.24 621.39 545.3 626.51 543.05 634.57 543.07 637.25 548.39 641.58 547.8 644.45 547.59 649.27 542.72 654.12 540.65 659.83 536.69 659.89 532.51 662.69 529.11 664.34 527.12 662.99 523.04 663.22 517.25 662.46 513.07 662.4 511.03 662.97 505.08 662.03 502.83 662.52 500.96 658.25 498.67 655.57 496.92 650.12 494.9 649.68 490.75 651.04 480.78 652.26 478 654.11 475.72 653.95 471.81 654.89 467.35 657.07 460.21 652.7 457.17 653.57 451.07 658.05 447 659.95 445.02 661.6 442.44 668.06 440.31 670.88 439.1 674.04 433.46 677.25 431.33 682.82 427.62 684.61 426.5 689.72 418.23 691.05 414.8 689.7 410.08 690.83 407.53 692.93 405.19 693.61 400.77 690.33 393.88 687.93 393.45 687.18 394.84 685.07 397.56 676.78 397.18 673.81 397.74 664.49 397.7 660.14 398.37 659.03 398.2 655.59 399.27 651.83 399.33 647.54 402.33 643.87 402.97 642.23 403.7 635.33 403.66 625.31 404.47 621.97 405.82 619.31 408.33 617.36 411.38 612.97 414.27 606.92 417.29 605.14 421.36 599 421.23 596.99 418.55 591 415.91 587.72 412.11 586.54 410.25 584.53 406.21 582.37 399.75 582.94 390.82 580.84 389.34 581.57 387.44 584.07 386.69 586.33 382.78 586.36 376.53 590.01 376 589.27 370.2 589.09 364.83 589.44 359.56 587.98 357.84 588.48 351.69 588.08 346.24 589.21 344.17 590.58 341.02 594.36 337.14 595.53 335.7 597.92 333.63 597.52 332.26 596.01 329.71 596.64 328.15 599.68 323.21 601.1 321.05 603.42 320.74 607.37 317.41 604.33 313.49 601.6 311.02 598.26 307.26 596.47 306.74 595.05 307.12 590.8 301.94 586.23 300.41 583.39 300.04 578.75 297.19 568.54 298.31 566.58 307.84 559.56 309.69 555.4 307.64 551.84 306.85 549.34 305.08 548.11 305.69 546.52 304.63 541.9 305 540.23 303.16 539.33 301.14 539.71 295.06 538.68 292.57 539.12 287.38 537.83 285.34 538.14 279.99 536.77 278.59 533.85 275.23 528.71 272 525.05 273.82 523.56 275.11 520.37 275.37 515.78 278.46 511.17 278.55 506.99 274.43 501.03 274.47 499.29 271.63 496.33 268.36 494.87 266.71 493.34 267.2 489.62 265.94 486.19 265.85 483.96 268.14 479.6 269.32 474.98 270.65 473.98 271.25 470.65 274.19 467.09 273.98 463.83 274.31 458.44 275.81 453.4 279.65 454.26 282.79 453.49 284.32 454.1 296.08 449.57 298.04 447.31 297.78 443.64 301.82 442.74 303.17 443.09 309.35 437.59 311.9 434.3 314.48 435.31 316.61 437.16 317.45 435.48 316.25 430.38 318.49 429.64 322.58 427.21 324.02 424.39 327.45 425.62 335.43 424.69 338.09 423.14 339.33 420.97 339.52 418.76 341.2 416.79 340.89 413.07 339.4 411.31 340.08 404.67 340.93 403.56 339.37 400.06 341.93 399.68 345.53 397.78 345.4 395.69 350.26 394.03 354.07 391.24 356.99 390.86 361.36 393.3 364.6 394.4 366.14 396.14 368.9 397.19 369.04 398.27 371.95 402.68 375.38 405.13 378.26 409.16 382.08 410.28 383.4 409.13 384.68 405.95 386.86 403.87 389.22 403.72 391.32 405.61 391 407.99 386.92 411.52 384.23 415.54 383.79 417.66 383.74 424.67 382.82 430.12 384.57 430.08 383.75 434.87 382.37 436.29 383.41 438.91 383.29 441.15 381.24 443.01 382.52 445.41 381.74 450.54 382.92 453.67 386.79 455.94 388.96 459.54 389.45 467.28 391.14 468.11 389.29 470.47 389.98 472.26 394.16 474.8 399.79 475.63 403.6 477.35 407.25 478.11 409.59 480.57 416.05 485.31 417.82 487.74 420.74 487.66 434.68 485.83 438.07 481.56 440.9 480.31 442.74 477.54 446.77 475.97 451.22 475.43 452.2 474.73 Z" id="38550310"/>
<path d="M 798.82 1534.96 799 1537.46 797.11 1538 793.96 1537.57 797.89 1534.54 798.82 1534.96 Z M 411.58 929.04 410.55 932.39 408.02 933.28 406.44 927.71 408.43 926.24 411.58 929.04 Z M 542.48 828.64 545.46 829.98 545.68 831.38 548.08 833.89 546.01 836.47 544.1 835.92 541.05 836.72 539.67 833.65 540.4 829.8 542.48 828.64 Z M 520.53 812.43 524.92 812.55 524.67 814.14 520.08 813.7 520.53 812.43 Z M 382.39 742.74 386.12 743.54 387.09 745.25 387.05 747.65 389.34 749.42 389.17 754.35 389.99 758.52 388.23 760.16 390.54 764.06 389.48 768.49 387.72 768.86 378.43 767.69 377.18 766.94 375.62 763.74 373.33 761.34 371.04 760.78 369.77 759.18 370.94 757.32 368.6 754.73 364.55 754.37 365.26 752.64 367.86 750.81 367.51 747.07 367.95 744.46 369.37 743.23 372.86 743.74 374.92 742.32 379.31 742.91 382.39 742.74 Z M 540.65 659.83 544.25 660.38 550.69 663.38 553.93 670.73 554.29 673.8 556.7 677.69 564.33 687.19 572.77 682.98 575.84 684.38 584.27 683.74 586.46 687.3 590.36 690.06 590.75 691.37 588.93 693.14 588.08 699.76 589.73 710.94 588.31 717.07 588.12 722.86 584.21 730.12 583.11 735.03 582.73 740.05 584.18 740.98 584.82 745.08 588.47 752.95 586.9 754.47 586.89 758.83 585.34 762.46 582.7 764.78 583.9 767.34 578.3 770.53 574.64 773.53 572.5 777.52 572.09 779.91 573.78 783.19 576.21 783.75 577.89 787 581.19 787.97 583.96 789.74 583.73 792.42 582.11 793.47 581.11 796.57 578.2 798.86 577.08 802.63 575.83 803.78 574.46 808.02 572.48 809.07 569.23 805.16 563.44 803.61 565.39 798.47 563.37 797.27 561.15 794.38 559.54 794.44 558.15 792.18 556.35 791.36 555.94 789.69 550.46 790.99 548.76 789.11 541.86 792.57 543.13 793.69 539.31 796.9 533.8 798.34 532.13 799.57 529.71 796.93 530.01 793.62 527.77 789.14 530.4 782.98 530.43 780.93 525.97 778.39 523.55 777.89 519.12 778.07 516.9 778.78 512.62 781.16 511.05 781.23 510.15 784.26 505.88 785.28 506.19 789.37 508.39 792.31 510.25 792.71 510.93 794.7 510.76 801.94 512.72 803.54 515.47 803.8 515.32 805.26 518.17 806.59 517.87 808.39 513.11 809.16 512.02 808.55 509 811.83 509.36 814.14 508.26 816.35 505.99 817.12 502.65 816.71 501.41 815.43 496.16 814.78 495.8 812.19 496.99 810.09 495.89 808 491.81 807.6 491.77 809.34 487.99 810.49 488.37 807.62 483.74 810.51 479.52 811.4 476.16 810.94 473.57 808.81 471.65 809.9 468.7 809.89 467.34 808.41 466.45 804.83 461.76 806.35 459.84 808.98 456.77 808.93 457.67 811.73 457.3 813.84 453.33 815.57 449.74 815.54 441.38 814 437.59 815.89 436.97 818.25 435.52 818.69 430.4 816.29 432.41 812.45 431.5 809.83 427.99 809.25 425.15 807.8 421.22 803.51 421.12 799.35 419.1 797.41 420 792.12 423.58 788.55 428.82 788.74 433.47 790.69 435.9 787.86 434.58 785.47 432.44 783.83 432.35 782.57 427.75 778.99 427.27 777.8 429.52 774.2 431.29 773.24 431.39 771.47 429.81 769.31 425.48 769.56 423.08 768.91 420.81 766.55 416.68 767.44 411.06 763.58 409.91 759.86 408.86 758.7 411.01 755.43 415.26 753.78 421.43 745.42 422.82 741.88 418.08 741.04 416.29 743.31 412.54 745.18 410.41 745.18 408.55 746.97 404.34 745.86 402.86 743.24 399.61 733.87 399.79 730.3 398.78 726.6 399 722.09 400.79 714.95 402.03 714.21 402.73 711.52 401.11 707.18 397.71 703.19 396.76 699.81 393.03 690.63 393.45 687.18 393.88 687.93 400.77 690.33 405.19 693.61 407.53 692.93 410.08 690.83 414.8 689.7 418.23 691.05 426.5 689.72 427.62 684.61 431.33 682.82 433.46 677.25 439.1 674.04 440.31 670.88 442.44 668.06 445.02 661.6 447 659.95 451.07 658.05 457.17 653.57 460.21 652.7 467.35 657.07 471.81 654.89 475.72 653.95 478 654.11 480.78 652.26 490.75 651.04 494.9 649.68 496.92 650.12 498.67 655.57 500.96 658.25 502.83 662.52 505.08 662.03 511.03 662.97 513.07 662.4 517.25 662.46 523.04 663.22 527.12 662.99 529.11 664.34 532.51 662.69 536.69 659.89 540.65 659.83 Z" fill-rule="evenodd" id="38550320"/>
<path d="M 484.89 396.82 485.78 398.74 486.09 402.13 485.06 403.35 481.98 402.41 482.21 397.32 484.89 396.82 Z M 497.97 395.2 500.55 397.61 499.29 398.45 497.97 395.2 Z M 703.89 626.76 696.46 628.1 691.99 626.22 687.24 625.07 685.31 625.53 684.24 627.34 678.36 628.79 669.83 632.9 664.81 634.21 659.9 633.41 654.5 634.86 654.18 636.93 655.53 642.62 653.58 647.54 653.36 651.75 652.29 658.74 647.66 661.61 645.96 661.32 640.17 669.94 638.33 670.38 634.5 672.81 627.32 681.19 624.16 686.93 620.82 695.16 619.86 699.41 611.22 696.26 605.4 695.85 598.68 693.3 596.49 693.44 590.75 691.37 590.36 690.06 586.46 687.3 584.27 683.74 575.84 684.38 572.77 682.98 564.33 687.19 556.7 677.69 554.29 673.8 553.93 670.73 550.69 663.38 544.25 660.38 540.65 659.83 542.72 654.12 547.59 649.27 547.8 644.45 548.39 641.58 543.07 637.25 543.05 634.57 545.3 626.51 546.24 621.39 549.46 618.1 551.48 614.33 552.58 610.34 551.02 602.53 551.09 594.96 548.56 592.93 549.29 589.45 548.65 583.14 549.74 578.66 549.86 572.9 547.19 569.85 547.98 564.6 547.12 562.2 548.11 560.04 551.45 557.9 554.38 557.99 557.48 553.97 558.18 550.88 560.92 544.74 562.44 537.35 561.04 523.96 558.89 513.87 556.58 512.55 552.87 511.68 551.26 512.73 545.48 513.64 541.59 513.22 538.33 513.56 535.99 510.76 535.64 507.17 529.26 505.77 522.33 502.11 519.31 503 515.45 501.72 507 499.89 505.71 499.04 503.63 494.33 494.72 490.01 489.34 488.77 487.67 490.61 485.72 487.99 486.54 484.03 481.07 483.23 475.23 483.16 470.51 479.56 466.96 479.47 466.51 477.67 463.93 478.74 462.01 478.53 460.74 480.49 458.55 479.94 458.43 476.91 456.47 473.93 453.29 475.21 452.2 474.73 452.33 472.79 448.05 466.53 445.86 464.15 441.06 462.4 437.53 460.29 433.33 460.3 431.26 457.7 437.8 455.44 441.99 453.06 444.98 452.93 448.73 451.61 451.78 448.83 451.45 446.24 458.23 445.52 460.81 450.35 464.89 449.87 466.69 448.96 467.08 444.6 467.83 443.45 471.14 442.15 478.35 437.64 481.48 438.17 487.22 434.4 487 431.93 485.83 428.75 482.4 428.4 478.21 426.28 481.59 422.7 481.41 419.38 483.04 416.39 485.36 415.7 487.42 416.1 490.64 413.95 495.79 414.53 500.12 412.69 504.86 403.7 511.33 400.91 515.37 400.47 518.18 396.06 520.65 390.14 521.93 389.76 526.75 390.43 530.65 392.39 532.89 395.34 535.23 394.63 541.44 391.32 544.17 390.33 552.92 391.98 556.35 393.36 557.51 392.77 560.89 393.3 562.21 394.35 570.9 397.46 572.26 399.57 579.76 398.31 580.89 396.78 584.75 395.05 587.57 395.15 589.18 397.29 592.6 398.13 595.67 399.69 604.45 399.09 603.95 396.64 602.15 395.57 600.93 392.9 603.33 389.98 607.31 389.68 610.66 390.42 613.9 390.12 617.38 388.13 619.66 386.16 626.12 383.75 628.89 383.91 635.65 385.17 638.12 391.19 639.26 392.93 638.32 396.52 641.11 401.52 640.98 403.31 645.62 409.2 649.47 413.4 651.89 414.77 655.56 418.22 656.73 418.03 659.34 419.97 661.26 419.47 663.15 421.25 665.95 420.65 666.33 424.14 669.24 424.72 672.59 423.42 675.65 421.5 680.39 421.09 682.15 419.54 682.61 417.77 684.69 415.42 688.17 413.45 689.81 408.65 688.87 406.84 690.98 405.69 693.95 407.06 692.88 409.44 692.87 412.04 694.61 417.97 696.79 419.96 698.89 420.2 704.98 426.7 707.59 427.93 710.08 427.27 716.99 427.21 719.58 428.16 720.98 432.5 722.94 436.16 725.32 438.18 729.33 438.59 730.41 437.73 738.04 439.28 736.38 441.07 732.12 442.56 730.5 443.77 728.51 448.35 728.66 453.41 733.04 456.18 733.31 457.2 736.15 458.27 733.84 463.21 731.84 463.62 727.02 468.74 728.8 469.95 725.07 477.18 725.27 478.23 723.45 483.33 724.78 487.48 726.68 491.51 731.14 494 731.17 496.08 733.16 496.76 733.96 499.18 731.62 501.49 729.75 501.09 727.33 502.88 723.98 503.2 718.01 499.04 709.97 495.53 706.73 495.32 703.71 496.9 703.4 498.19 699.01 500.63 697.06 504.24 695.45 508.78 694.22 514.88 694.56 522.3 696.34 521.67 703 524.27 706.87 526.86 706.89 528.97 713.98 525.89 715.04 527.97 712.59 529.94 709.04 535.03 710.62 539.37 710.5 541.78 706.65 545.66 706.86 547.29 703.19 548.93 702.02 550.19 699.93 549.58 694.89 553.23 695.01 554.14 692.17 558.46 690.18 562.73 690.5 565.18 689.58 567.47 690.68 572.39 692.74 573.43 693.77 575.41 692.75 579.22 691.79 587.2 691.86 591.03 693.44 595.04 695.83 597.12 701.46 600.6 702.57 604.14 705.35 606.81 705.32 612.87 705.89 617.01 705.3 622.58 703.89 626.76 Z M 603.73 383.66 601.45 383.49 601.7 381.6 603.74 381.3 603.73 383.66 Z" fill-rule="evenodd" id="38550330"/>
<path d="M 724.32 907.01 725.13 908.23 729.37 907.25 733 908.74 731.89 910.89 735.6 913.9 735.1 915.64 732.47 915.95 730.16 913.97 726.92 913.25 723.17 911.62 720.61 909.03 719.92 907.2 722.79 905.84 724.32 907.01 Z M 712.92 891.21 714.09 894.87 712.73 896.56 711.87 891.82 712.92 891.21 Z M 708.95 878.97 711.68 879.59 713.87 881.46 715.76 880.49 717.58 881.81 719.24 879.29 721.2 880.49 721.66 883.5 724.53 885.13 723.69 886.86 721.99 886.54 716.55 887.67 711.41 884.5 708.73 881.51 708.95 878.97 Z M 689.84 874.86 693.14 876.02 696.88 881.7 700.01 885.49 700.9 887.78 700.32 889.04 700.89 892.63 700.24 899.49 698.61 900.99 697.04 905.26 694.75 904.16 692.85 901.64 690.99 900.66 689.06 902.1 688.69 907.82 687.76 910.15 685.36 911.83 683.25 911.66 681.4 908.74 680.11 908.77 678.11 906.11 679.37 904.25 675.78 899.59 677.47 893.13 678.99 891.63 677.97 889.65 679.23 886.75 681.26 886.6 681.24 884.38 682.93 881.97 681.34 880.67 681.24 878.39 682.42 877.05 685.18 877.14 687.78 874.94 689.84 874.86 Z M 706.31 875.05 708.74 877.45 705.83 877.82 706.31 875.05 Z M 654.87 865.58 657.18 866.14 659.11 868.89 658.67 871.37 653.15 871.96 652.8 876.09 651.16 880.19 648.14 878.56 648.64 876.73 647.79 871.62 646.24 870.33 646.84 868.11 653.4 865.62 654.87 865.58 Z M 719.86 862.64 721.15 862.68 723.48 865.22 721.6 866.37 719.52 864.32 719.86 862.64 Z M 640.24 854.6 648.61 857.49 650.8 859.78 646.54 860.74 642.89 860.08 640.98 858.69 636.36 857.51 636.12 855.43 640.24 854.6 Z M 625.24 853.46 627.43 856.02 624.33 859.63 621.58 859.35 615.31 863.26 613.19 861.62 614.69 858.66 617.29 857.46 618.02 855.48 621.72 853.63 625.24 853.46 Z M 698.97 846.43 702.53 846.81 703.89 848.66 707.31 849.3 708.09 851.33 710.1 850.93 712.08 849.22 716.59 851.92 714.04 854.07 713.92 855.68 715.58 857.91 716.57 860.78 715.56 863.05 713.01 862.61 711.01 863.81 710.12 865.89 705.6 863.93 701.7 867.25 699.06 864.27 699.12 860.52 696.35 857.14 694.81 858.1 694.62 860.2 696.24 862.43 694.63 864.83 687.14 862.79 689.1 859.64 688.69 855.44 690.24 852.25 693.13 853.1 694.65 855.54 697.33 853.44 696.4 850.42 695 848.58 695.48 847.23 698.97 846.43 Z M 732.53 847.41 734.8 848.15 736.86 846.61 738.66 850.32 732.58 850.47 731.75 852.18 726 852.01 723.66 854.94 719.32 853.69 717.84 852.58 723.83 851.4 723.92 848.06 726.05 847.97 731.27 845.7 732.53 847.41 Z M 699.57 769.79 703.83 771.75 705.94 776.34 708.67 777.3 707.38 779.65 703.03 782.03 701.99 780.69 698.42 779.01 697.31 776.94 697.09 773.76 699.57 769.79 Z M 732.95 701.64 735.45 707.08 737.21 708.82 734.28 709.93 732.96 708.25 726.91 709.83 719.97 708.88 719.37 706.85 720.93 705.93 725.79 705.3 727.81 704.19 730.25 701.64 732.95 701.64 Z M 758.53 648.99 760.15 650.12 761.22 652.8 759.78 657.19 757.6 659.21 759.49 661.2 758.26 662.2 759.86 667.01 759.3 669.59 757.05 672.11 754.33 672.53 752.79 671.85 751.31 668.68 751.59 666.63 753.57 664.32 752.21 660.48 750.04 658.4 752.26 656.98 753.31 655.08 754.95 654.46 755.94 649.28 758.53 648.99 Z M 583.9 767.34 582.7 764.78 585.34 762.46 586.89 758.83 586.9 754.47 588.47 752.95 584.82 745.08 584.18 740.98 582.73 740.05 583.11 735.03 584.21 730.12 588.12 722.86 588.31 717.07 589.73 710.94 588.08 699.76 588.93 693.14 590.75 691.37 596.49 693.44 598.68 693.3 605.4 695.85 611.22 696.26 619.86 699.41 620.82 695.16 624.16 686.93 627.32 681.19 634.5 672.81 638.33 670.38 640.17 669.94 645.96 661.32 647.66 661.61 652.29 658.74 653.36 651.75 653.58 647.54 655.53 642.62 654.18 636.93 654.5 634.86 659.9 633.41 664.81 634.21 669.83 632.9 678.36 628.79 684.24 627.34 685.31 625.53 687.24 625.07 691.99 626.22 696.46 628.1 703.89 626.76 703.52 628.99 703.81 636.99 704.96 637.87 704.58 640.42 704.7 650.07 705.03 654.87 707.71 658.88 709.69 658.92 712.68 661.01 712.17 663.47 714.32 666.67 716.49 666.13 718.09 668.33 714.22 670.47 713.54 673.01 714.89 674.95 713.55 676.07 713.78 678.34 709.88 680.9 708.79 683.13 709.79 686.37 711.3 687.1 711.54 689.46 710.05 690.65 707.12 691.24 701.8 695.97 700.41 694.07 697.9 695.59 695.1 695.49 691.59 697.9 689.46 702.93 690.26 707.01 695.67 706.77 692.14 710.21 690.29 709.92 686.86 710.66 684.75 712.84 683.32 711.51 680.49 712.86 678.13 712.8 675.82 714.3 671.08 715.19 667.59 720.34 663.8 725.28 661.73 730.89 662.26 733.9 653.86 737.28 652.07 739.46 650.52 745.56 650.94 747.9 650.38 751.38 650.74 753.33 654.54 756.32 653.74 758.83 651.17 762.26 648.69 764.18 648.88 767.42 649.93 771.03 651.52 773.18 653.22 772.87 655.31 774.02 656.83 776.79 660.7 780.12 662.22 779.84 663.54 781.7 667.36 782.49 670.2 782.2 672.41 787.3 675.14 789.93 679.75 789.49 681.05 792.27 677.87 793.25 678.09 795.82 680.83 799.34 682.04 800.03 686.8 799.42 686.41 796.39 687.59 795.8 690.29 797.54 690.85 795.43 699.39 795.24 699.62 797.86 702.13 798.52 704.11 795.35 703.98 788 704.96 787.23 705.06 794.56 711.46 799.93 716.11 806.04 718.28 807.13 719.34 809.47 721.36 810.06 724.39 814.35 720.05 813.39 718.4 813.84 714.27 817.4 712.69 815.16 712 811.76 710.16 808.37 708.18 807.52 705.07 804.93 703.87 805.52 704.94 812.2 704 818.77 700.89 817.55 696.13 821.59 692.86 822.25 690.34 821.75 689.08 817.74 688.27 811.45 684.8 811.84 685.13 817.29 681.91 819.67 681.84 820.76 678.5 820.88 677.93 822.02 674.07 823.92 673.79 826.65 678.76 827.81 680.53 830.2 682.03 835.34 679.76 836.94 679.2 838.59 672.35 839.02 666.7 837.68 664.45 838.91 661.74 838.01 658.22 838.08 655.52 836.84 653.86 834.21 653.23 831.65 653.23 827.58 656.04 828.16 657.53 827.54 658.55 825.28 656.83 821.26 652.34 820.34 648.68 818.86 646.82 820.32 643.64 818.13 638.51 819.32 636.62 817.49 634.6 818.78 634.2 820.43 631.29 820.52 629.71 821.94 626.87 826.46 626.45 829.28 630.24 831.19 631.88 834.56 631.24 836.23 628.14 838.44 626.95 840.1 624.87 839.76 622.99 842.37 623.84 844.1 620.69 844.54 618.25 842.35 617.35 838.88 615.17 838.27 611.82 839.95 610.33 837.94 607.26 837.93 608.28 834.23 608.11 831.89 613.01 828.72 615.28 825.7 615.73 822.08 614.31 821.49 611.79 816.96 614.79 813.84 615.01 809.64 615.73 808.77 620.05 806.82 620.59 804.48 619.84 799.6 622.45 795.57 623.18 792.38 622.93 789.71 624.96 788.95 626.83 786.09 626.65 783.58 623.1 777.8 620.75 775.49 615.59 771.48 610.49 768.25 605.97 770.96 604.03 770.6 602.9 766.92 599.63 764.83 596.3 764.25 590.67 764.71 583.9 767.34 Z" fill-rule="evenodd" id="38550340"/>
<path d="M 84.15 639.54 88.51 639.62 91.69 640.71 93.31 642.5 93.4 644.37 90.49 643.52 87.52 644.6 83.84 642.09 84.15 639.54 Z M 98.85 589.28 102.17 590.36 100.76 593.57 96.88 594.85 95.01 594.12 95.34 591.21 96.44 589.48 98.85 589.28 Z M 104.77 586.16 106.53 586.4 106.43 588.99 104.46 588.67 104.77 586.16 Z M 90.58 541.26 93.17 538.01 95.86 536.31 98.88 536.19 103.61 531.96 110.14 534.08 112.75 530.76 115.59 529.07 117.11 528.97 119.1 526.82 121.77 526.04 124.3 527.46 131.42 527.95 137.75 528.75 142.82 528.36 143.81 525.79 146.27 523.09 146.86 514.76 148.33 512.93 151.81 510.59 153.94 507.79 157.22 508.63 162.03 510.66 167.57 509.39 170.25 509.43 172.39 511.73 175.8 512.5 178.89 514.94 182.8 513.76 185.95 514.89 193.01 518.97 197.66 518.2 200.49 515.55 203.91 514.18 205.81 514.13 210.58 509.89 211.8 506.55 212.97 501.36 221.89 503.9 223.92 508.27 225.37 512.68 224.88 515.08 226.45 515.84 230.63 524.58 233.26 528.45 235.84 527.77 240.48 527.96 243.38 524.67 253.39 525.43 256.89 523.66 262.09 523.6 265.78 525.38 269.81 524.63 272 525.05 275.23 528.71 278.59 533.85 279.99 536.77 285.34 538.14 287.38 537.83 292.57 539.12 295.06 538.68 301.14 539.71 303.16 539.33 305 540.23 304.63 541.9 305.69 546.52 305.08 548.11 306.85 549.34 307.64 551.84 309.69 555.4 307.84 559.56 298.31 566.58 297.19 568.54 300.04 578.75 300.41 583.39 301.94 586.23 307.12 590.8 306.74 595.05 307.26 596.47 311.02 598.26 313.49 601.6 317.41 604.33 320.74 607.37 320.26 609.67 318.25 612.64 316.56 613.21 313.91 611.8 311.79 612.92 306.3 612.37 304.14 615.15 302.14 615.27 300.33 613.01 297.4 612.19 293.48 613.13 282.34 620.46 278.5 623.97 275.72 627.85 274.68 630.87 274.75 633.24 276.57 636.72 278.33 636.29 280.85 638.76 280.72 641.42 283.19 643.74 282.09 647.9 282.92 650.26 285.24 651.36 285.08 654.22 282.29 660.13 281.74 663.88 284.63 670.42 286.41 671.75 288.55 676.06 290.46 677.31 293.81 678 296.12 677.49 297.03 678.64 296.76 681.43 295.15 685.9 294.69 694.26 293.71 697.04 294.12 698.91 296.94 701.62 299.41 705.89 301.15 706.64 304.48 711.68 304.38 716.97 302.83 719.71 303.47 723.18 303.22 725.58 301.19 726.07 300.52 731.77 299.71 733.84 297.07 734.17 297.48 735.75 296.09 739.21 294.03 742.47 292.03 743.26 288.98 743.31 287.77 746.72 287.38 750.3 285.46 753.01 285.03 754.95 279.67 755.05 276.64 755.99 276.25 757.75 270.61 758.4 267.63 761.51 263.34 759.85 260.36 760.45 255.9 762.58 253.67 764.33 253.66 766.62 249.18 766.22 245.86 767.46 242.84 770.57 244.19 771.62 243.41 775.68 240.76 775.79 239.3 773.53 235.78 774.89 231.78 773.07 226.95 772.49 221.1 770.39 217.87 767.83 215.83 767.53 213.37 765.68 209.26 767.96 206.64 768.49 204.38 767.57 204.15 765.5 205.08 763.52 200.58 759.17 197.01 756.47 195.26 756.16 191.61 757.45 189.84 756.24 187.64 757.18 182.89 755.79 181.81 756.92 179.77 756.39 178.57 758.56 178.54 760.52 175.67 759.83 172.14 757.54 170.94 754.66 168.98 754.79 166.9 756.2 163.15 755.53 161.67 755.88 157.19 754.22 156.8 752.98 152.78 753.05 153.25 754.96 150.93 756.98 147.06 755.31 146.5 753.51 152.19 750.67 154.47 745.42 159.76 745.1 161.04 740.27 160.78 736.86 159.17 733.02 154.82 728.36 149.68 725.15 144.85 724.98 144.79 727.61 142.49 730.48 137.03 730.18 133.57 728.67 133.34 726.78 131.55 725.19 132.39 723.27 129.16 720.61 129.52 718.82 132.11 716.53 135.91 715.4 139.15 713.28 141.74 710.38 142.14 708.84 141.8 702.64 139.73 697.56 138.21 696.18 135.28 691.77 135.91 689.98 134.94 687.62 128.92 682.35 124.45 679.6 121.18 679.48 116.59 686.51 112.89 689.02 108.37 687.94 106.31 685.23 108.99 680.67 106.79 678.51 101.8 681.18 96.73 682.39 93.23 682.74 89.73 682.11 87.61 679.88 86.45 676.99 87.25 676.09 86.28 670.11 86.5 666.45 90.1 665.09 90.31 662.95 86.59 661.94 83.96 659.81 84.81 655.95 86.34 655 89.18 654.79 92.19 653.74 100.84 654.3 102.42 653.9 103.21 651.68 102.32 650.04 99.89 648.37 98.49 645.51 104.16 641.02 106.56 637.53 107.14 635.74 106.18 632.08 101.7 629.13 103.23 625.58 100.81 624.01 100.51 619.67 103.81 618.9 107.92 618.99 111.84 617.71 113.02 616.76 115.45 616.97 118.13 618.93 120.67 619.63 124.56 617.97 127.02 616.11 131.46 613.77 129.27 608.19 125.36 596.63 145.83 590.18 143.24 587.81 138.28 588.81 135.05 591.04 131.07 592.68 128.63 590.76 127.01 590.74 125.55 593.06 121.83 592.52 121.9 589.2 124 586.54 118.21 580.6 123.96 572.48 125.58 571.02 127.73 570.58 135.67 570.64 135.16 568.05 130.33 567.25 126.44 567.62 122.69 572.58 120.48 574.82 117.38 573.56 116.89 574.98 118.59 577.29 116.85 579.35 111.38 581.37 108.93 580.09 111.04 576.58 113.73 576.22 114.36 573.52 111.71 570.92 111.97 568.24 115.55 565.29 115.61 560.69 112.39 554.25 110.25 550.98 106.94 548.85 102.85 548.38 98.54 547.22 95.52 545.26 93.27 545.08 90.58 541.26 Z" fill-rule="evenodd" id="38550350"/>
<path d="M 73.36 552.22 76.74 553.64 77.34 558.63 75.82 559.75 72.86 559.48 72.36 554.1 73.36 552.22 Z M 41.76 217.04 42.42 219.94 46.64 224.23 45.01 226.49 38.09 224.24 36.07 221.94 34.94 218.33 36.84 217.78 38.35 218.65 41.76 217.04 Z M 51.08 209.01 52.46 210.55 50.99 212.64 47.96 211.47 47.59 209.38 48.92 207.99 51.08 209.01 Z M 64.36 207 66.05 206.7 71.62 208.9 78.03 209.39 80.7 211.1 83.89 211.19 87.2 209.76 90.03 207.76 92.87 210.52 96.46 213.24 99.44 219.9 101.93 220.68 105.33 219.2 107.97 218.87 112.66 220.13 115.15 220.04 119.68 218.18 120.93 217.01 124.61 220.62 125.43 223.62 130.26 223.84 131.22 225.81 133.84 226.25 139.76 229.7 138.94 230.6 141.29 233.84 144.15 232.96 145.06 235.17 153.01 236.37 153.91 237.06 155.14 241.23 156.91 242.87 155.38 248.02 153.87 250.39 152.38 254.46 151.52 259.9 150.32 264.12 150.2 266.53 148.99 270.69 150.14 273.4 149.29 278.66 148.12 280.65 146.04 281.03 141.68 283.83 140.11 286.96 139.19 290.89 139.95 298.24 139.98 303.41 138.84 305.9 141.25 310.44 140.47 313.31 136.72 321.13 135.18 327.49 138.64 331.49 137.27 336.29 137.52 341.21 138.99 343.29 142.09 344.41 145.52 346.86 148.16 350.34 152.29 351.95 158.33 357.73 162.28 359.78 166.16 362.85 174.95 366.13 176.92 367.75 176.66 372.19 178.43 373.95 176.03 377.57 173.28 385.89 173.6 386.94 172.42 391.01 172.09 395.41 172.67 397.72 172.07 403.34 173.72 405.23 173.29 409.49 177.63 412.33 181.65 412.76 182.37 414.68 185.93 416.8 184.07 421.49 183.52 426.71 183.64 429.87 184.94 437.76 189.35 442.73 189.86 444.41 186.15 447.44 187.05 452.67 188.18 453.6 195.43 452.12 194.05 455.26 189.14 458.14 186.95 460.18 190.25 466.1 191.06 471.59 195.45 477.63 196.6 480.32 200.86 486.57 203.58 486.78 207.18 488.75 209.99 495.37 212.97 501.36 211.8 506.55 210.58 509.89 205.81 514.13 203.91 514.18 200.49 515.55 197.66 518.2 193.01 518.97 185.95 514.89 182.8 513.76 178.89 514.94 175.8 512.5 172.39 511.73 170.25 509.43 167.57 509.39 162.03 510.66 157.22 508.63 153.94 507.79 151.81 510.59 148.33 512.93 146.86 514.76 146.27 523.09 143.81 525.79 142.82 528.36 137.75 528.75 131.42 527.95 124.3 527.46 121.77 526.04 119.1 526.82 117.11 528.97 115.59 529.07 112.75 530.76 110.14 534.08 103.61 531.96 98.88 536.19 95.86 536.31 93.17 538.01 90.58 541.26 86.13 538.17 85.27 535.46 82.6 532.21 82.65 527.56 80.11 523.5 79.69 520.87 83.26 517.46 85.73 515.77 85.9 511.06 84.49 506.95 82.84 499.92 81.04 497.38 78.87 497.73 76.17 496.89 72.94 493.75 70.29 483.15 70.34 482.42 82.51 479.61 81.93 478.36 76.68 479.17 74.74 470.99 74.86 469.72 70.91 470.62 69.18 473.62 67.24 472.63 65.06 472.77 61.26 470.75 61.1 467.93 59.35 465.23 59.36 463.39 61.62 460.48 60.51 456.84 61.41 451.69 60.28 449.29 55.51 444.39 52.8 442.64 50.59 442.58 47.75 441.43 47.05 438.09 43.13 436.17 42.96 433.07 41.4 431.34 41.74 429.82 39.13 426.9 38.03 423.65 36.05 422.33 34.71 419.08 32.78 416.19 29.57 414.45 29.46 411.4 25.71 402.49 24.69 398.38 22.52 396.41 20.62 393.35 17.79 391.3 17.33 387.86 18.99 385.37 19.03 382.3 16.16 378.12 15.82 375.32 13.57 371.34 14.58 370.58 16.34 366.11 15.86 360.52 16.66 358.95 15.68 349.98 16.57 347.81 16.42 345.05 15.38 342.31 11.38 337.5 8.49 335.29 5.77 331.27 4.94 328.44 2.21 325.04 4.46 324.04 14.09 322.87 11.47 321.25 11.97 317.11 9.62 313.2 7.32 313.72 4.48 313.13 1 311.34 2.05 309.57 5.8 307.33 9.71 303.2 9.87 298.17 11.54 297.27 11.48 291.68 9.32 288.53 10.84 285.8 15.57 290.94 17.61 295.62 18.77 296.4 23.29 293.08 24.4 288.12 25.72 285.08 29.34 280.57 30.88 276.85 32.44 274.67 32.95 270.37 30.66 267.76 30.08 265.44 27 264.48 23.96 261.61 24.83 260.36 32.03 262.18 33.53 259.97 33.25 258.64 31.08 257.63 30.24 252.4 33.09 252.54 34.55 251.34 34.69 248.76 36.51 247.04 39.32 246.26 39.83 248.72 41.76 248.9 43.02 252.21 44.7 253.47 52.89 254.72 56.95 254.45 58.08 252.49 57.5 248.89 60.41 247.75 60.21 242.94 62.23 239.55 63.11 235.13 64.78 230.2 61.76 228.64 57.04 228.54 53.81 223.53 56.31 219.98 56.93 217.69 55.65 216.11 58.23 214.74 61.03 214.38 63.1 215.23 65.51 213.28 65.22 210.08 66.09 208.35 64.36 207 Z" fill-rule="evenodd" id="38550360"/>
<path d="M 35.15 115.25 35.82 116.5 39.57 116.48 38.27 118.36 35.34 120.85 35.49 123.64 34.09 123.75 33.53 120.73 31.41 119.03 30.98 116.59 32.28 115.29 35.15 115.25 Z M 43.13 104.01 41.92 107.15 38.83 104.15 39 101.04 43.13 104.01 Z M 266.99 232.68 267.74 237.05 258.64 247.12 259.94 247.47 257.81 250.77 258.51 252.9 257.83 255.9 258.8 261.39 261.92 269.58 265.8 277.06 267.65 279.09 269.26 283.13 268.27 287.14 268.86 289.95 271.2 291.03 274.54 296.16 271.47 297.79 266.7 299.61 263.74 301.82 263.26 304.73 263.88 308.65 261.2 310.29 260.88 312.62 254.81 316.93 246.73 316.5 244.45 318.07 238.72 314.73 237.07 312.54 234.46 311.85 229.27 308.19 228.46 307.03 226.91 301.09 221.2 299.53 219.91 301.74 219.77 304.71 216.81 304.04 204.85 303.31 201.99 301.51 200.27 302.31 197.79 301.78 192.43 303.23 190.2 303.4 182.46 310.85 172.6 310.65 170.32 310.01 163.84 310.03 159.65 309.68 151.62 308.46 149.27 309.45 144.42 309.29 141.25 310.44 138.84 305.9 139.98 303.41 139.95 298.24 139.19 290.89 140.11 286.96 141.68 283.83 146.04 281.03 148.12 280.65 149.29 278.66 150.14 273.4 148.99 270.69 150.2 266.53 150.32 264.12 151.52 259.9 152.38 254.46 153.87 250.39 155.38 248.02 156.91 242.87 155.14 241.23 153.91 237.06 153.01 236.37 145.06 235.17 144.15 232.96 141.29 233.84 138.94 230.6 139.76 229.7 133.84 226.25 131.22 225.81 130.26 223.84 125.43 223.62 124.61 220.62 120.93 217.01 119.68 218.18 115.15 220.04 112.66 220.13 107.97 218.87 105.33 219.2 101.93 220.68 99.44 219.9 96.46 213.24 92.87 210.52 90.03 207.76 87.2 209.76 83.89 211.19 80.7 211.1 78.03 209.39 71.62 208.9 66.05 206.7 64.36 207 65.35 204.99 68 205.69 69.82 204.3 71.14 201.78 71.84 198.72 73.76 196.88 72.96 193.84 73.19 188.94 68.72 189.78 64.89 187.89 61.95 187.45 60.16 188.65 55.42 187.1 53.02 185.36 48.06 184.67 48.52 182.22 46.59 180.63 47.16 177.68 50.93 179.75 49.47 181.45 52.3 184.2 54.89 183.94 57.66 184.77 59.56 183.25 62.07 184.35 63.79 182.61 66 182.55 67.51 178.74 65.7 177.46 65.4 173.46 61.5 173.43 61.21 168.69 61.79 165.59 59.87 163.63 58.66 160.16 55.85 160.64 55.56 164.66 53.41 167.15 52.33 166.13 54.41 162.1 53.15 159.19 50.84 158.43 53.57 154.09 55.79 152.46 60.32 152.77 60.6 154.86 62.76 156.51 65.86 157.34 68.74 157.27 66.87 161.82 66.74 164.19 72.24 165.8 75.26 164.55 76.35 166.74 80.2 166.78 80.54 169.51 92.05 168.58 93.62 167.6 94.89 168.96 98.43 170.16 102.23 166.18 101.26 163.61 97.43 159.84 95.83 153.52 94.53 151.25 97.22 151.26 99.27 148.12 99.22 145.57 97.07 140.62 99.83 141.39 101.51 143.34 104.21 149 103.83 150.62 104.88 153.57 104.45 156.08 105.3 158.11 113.39 159.72 116.21 158.98 119.07 157.26 121.54 154.24 129.54 154.13 132.91 153.66 140.2 155.03 142.78 152.49 145.62 156.66 151.11 156.3 155.21 158.45 161.93 149.41 158.49 144.66 155.52 143.16 152.79 140.32 151.72 138.32 151.52 135.8 146.58 135.28 142.88 133.16 144.44 131.69 142.3 123.9 140.58 122.63 138.02 125.78 134.16 128.72 125.65 129.81 124.22 128.24 125.39 126.36 127.62 125.21 132.62 124.18 135.3 122.17 137.33 121.63 139.79 119.82 137.42 117.42 136.38 115.04 132.2 114.09 130.35 112.6 129.46 109.82 127.25 110.12 124.87 108.94 121.85 111.35 121.05 110.92 123.62 106.92 126.21 105.29 126.8 102.87 129.41 102.97 131.95 100.76 134.71 100.51 135.15 98.67 134.64 94.97 131.5 91.82 128.99 92.07 130.32 88.52 132.74 87.27 135.03 88.1 138.59 87.87 140.99 89.47 144.46 90.82 146.56 87.85 146.46 85.01 149.19 87.72 151.09 88.76 152.11 92.84 154.93 93.43 162.18 90.78 165.01 91.36 166.58 90.78 173.07 90.15 183.8 91.85 185.81 95.25 188.63 98.32 189.96 98.93 191.09 101.27 194.1 105.04 194.91 107.35 197.32 110.41 198.66 108.62 201.04 107.53 202.29 105.79 206.79 103.85 208.52 102.4 211.78 101.52 217.59 98.89 219.41 98.44 222.1 96.02 229.96 95.37 233.08 95.62 236.49 94.73 238.59 95.07 240.73 96.56 245.09 101.3 247.89 103.73 252.03 104.58 253.28 107.26 256.8 110.15 260.64 111.7 263.94 112.33 268.45 116.78 270.97 120.34 271.28 122.31 269.44 124.01 266.12 128.39 266.51 133.95 264.22 135.67 259.78 143.93 257.1 146.6 257.7 151.15 256.16 157.44 253.72 161.49 247.25 161.76 242.05 160.81 241.4 162.47 240.93 171.61 235.95 178.31 235.29 181.67 236.95 186.04 235.06 189.04 235.05 190.83 232.89 198.66 231.43 201.87 232.35 203.34 230.28 204.42 227.42 208.76 226.82 210.79 230.99 211.58 232.12 213.8 235.33 213.86 239 214.7 239.9 216.48 242.61 216.78 245.1 218.56 247.84 223.58 248.43 225.48 254.52 230.37 266.99 232.68 Z" fill-rule="evenodd" id="38550370"/>
<path d="M 358 111.21 359.4 112.57 365.36 116.18 372.91 119.3 376.18 122.07 374.91 123.95 372.85 122.79 369.15 121.94 366.16 119.77 364.97 117.14 362.3 115.42 358.29 115.61 356.23 114.44 356.95 111.02 358 111.21 Z M 366.14 61.68 368.45 62.31 363.44 66.72 361.93 66.24 362.57 62.89 364.85 61.16 366.14 61.68 Z M 384.78 55.29 384.62 58.37 383.55 60.44 379.5 61.88 377.72 59.13 378.26 57.45 381.99 55.47 384.78 55.29 Z M 163.77 52.66 165.17 53.09 164.87 54.71 164.87 55.58 164.77 55.79 164.19 55.54 163.96 55.21 162.16 54.33 163.77 52.66 Z M 140.52 25.97 141.86 28.14 141.42 31.24 136.99 26.86 140.52 25.97 Z M 266.99 232.68 254.52 230.37 248.43 225.48 247.84 223.58 245.1 218.56 242.61 216.78 239.9 216.48 239 214.7 235.33 213.86 232.12 213.8 230.99 211.58 226.82 210.79 227.42 208.76 230.28 204.42 232.35 203.34 231.43 201.87 232.89 198.66 235.05 190.83 235.06 189.04 236.95 186.04 235.29 181.67 235.95 178.31 240.93 171.61 241.4 162.47 242.05 160.81 247.25 161.76 253.72 161.49 256.16 157.44 257.7 151.15 257.1 146.6 259.78 143.93 264.22 135.67 266.51 133.95 266.12 128.39 269.44 124.01 271.28 122.31 270.97 120.34 268.45 116.78 263.94 112.33 260.64 111.7 256.8 110.15 253.28 107.26 252.03 104.58 247.89 103.73 245.09 101.3 240.73 96.56 238.59 95.07 236.49 94.73 233.08 95.62 229.96 95.37 222.1 96.02 219.41 98.44 217.59 98.89 211.78 101.52 208.52 102.4 206.79 103.85 202.29 105.79 201.04 107.53 198.66 108.62 197.32 110.41 194.91 107.35 194.1 105.04 191.09 101.27 189.96 98.93 188.63 98.32 185.81 95.25 183.8 91.85 173.07 90.15 166.58 90.78 165.01 91.36 162.18 90.78 154.93 93.43 152.11 92.84 151.09 88.76 149.19 87.72 146.46 85.01 145.89 82.19 140.49 76.82 133.13 69.98 132.21 68.47 135.8 67.74 137.63 68.4 142.11 67.21 148.13 66.36 149.25 60.41 148.79 58.98 145.88 57.66 144.39 54.4 145.3 52.2 147.46 49.63 148.9 53.47 152.44 54.16 153.03 57.09 162.3 55.17 164.5 55.95 164.77 55.87 165.04 55.6 164.94 54.73 165.31 53.17 164.44 50.3 162.08 46.58 162.91 42.96 163.09 37.47 165.39 36.42 165.67 33.78 167.57 31.71 169.21 28.13 174.68 23.01 175.13 21.8 178.23 18.8 180.74 18.07 183.26 19.04 185.89 21.93 189.3 20.78 191.08 18.53 194.11 16.29 195.05 17.18 198.01 17.33 204.73 13.65 210.86 11.05 213.78 10.61 221.78 8.19 223.67 6.98 231.59 5.48 234.56 2.27 234.67 1.13 238.84 2.17 240.14 4.08 243.05 4.65 244.23 1 245.93 1.15 248.09 2.81 249.17 5.07 252.5 9.07 254.15 12.55 258.92 16.18 262.35 16.43 263.44 17.79 265.76 18.38 269.09 20.42 276.9 20.32 279.35 16.18 279.17 14.18 281.6 13.83 284.5 15.59 285.19 17.64 287.32 20.18 284.72 21.27 284.58 22.65 286.76 26.26 285.16 28.56 291.78 29.83 294.01 24.69 298.87 19.6 302.28 19.3 303.55 20.41 306.52 26.69 306.38 29.17 312.86 26.41 311.67 22.84 312.95 20.03 313.62 16.1 312.18 14.47 314.92 13.67 317.72 15.13 318.32 17.56 317.68 21.15 320.49 23.41 323.48 18.4 327.54 18.33 330.95 22.52 333.72 21.98 334.2 25.5 330.39 28.15 329.26 30.98 329.12 34.82 326.43 34.64 324.89 37.26 325.49 40.09 323.15 40.41 321.26 42 321.58 43.89 320.61 45.95 323.57 51.15 331.32 56.9 339.01 55.15 341.51 53.84 341.92 57.57 340.84 61.15 339.47 62.21 339.82 66.49 341.03 68.46 347.55 72.81 348.59 77.78 346.89 77.75 344.06 76.18 339.42 70.77 338.02 68.12 335.73 65.78 333.43 66.71 331.51 66.34 329.08 68.17 329.28 72 330.87 73.6 332.36 77.23 337.44 79.37 338.88 82.44 337.74 82.97 331.59 88.92 331.1 92.3 332.19 93.98 336.6 94.4 339.88 96.6 341.15 99.27 343.9 101.25 344.23 108.21 347.02 110.58 344.67 112.48 342.06 112.41 339.97 114.93 340.57 118.73 342.93 118.77 341.85 121.11 335.1 121.64 333.65 122.47 332.42 125.47 334.14 128.62 337.55 131.6 338.33 135.39 339.73 137.81 342.86 137.78 343.67 138.93 340.78 140.99 337.84 140.78 336.87 143.41 334 144.11 331.39 147.21 330.94 150.19 328.44 154.98 325.18 156.78 324.32 159.79 325.58 165.69 326.38 166.93 330.71 170.47 330.14 173.17 331.32 178.36 333.74 181.74 332.96 182.97 335.02 190.49 331.65 191.8 328.88 191.97 327.12 189.98 324.23 189.61 320.92 188.39 319.3 189.31 317.78 191.76 316.21 192.29 309.01 197.18 309.37 200.22 313.03 200.25 313.24 202.52 309.89 204.18 308.34 203.58 308.78 200.69 306.88 199.37 301.55 200.07 299.2 202.22 300.4 203.86 299.74 205.66 297.83 205.66 291.08 209.21 290.09 212.74 292.69 215.48 293.71 217.97 290.71 219.05 287.32 218.57 284.85 221.05 284.12 219.59 280.55 220.69 278.82 224.22 277.29 222.83 276.9 218.12 275.73 214.53 272.53 213.72 267.07 217.15 265.48 224.91 266.99 232.68 Z" fill-rule="evenodd" id="38550380"/>
</g>
</svg>