<?xml version="1.0"?>
<svg xmlns="http://www.w3.org/2000/svg" version="1.2" baseProfile="tiny" width="800" height="1093" viewBox="0 0 800 1093" stroke-linecap="round" stroke-linejoin="round">
<g id="dong">
<path d="M 343.52 550.37 344.84 551.84 345.66 554.1 342.97 557.48 342.7 559.94 339.64 563.6 339.03 567.01 337.72 569.94 338.14 571.24 336.27 572.76 336.12 575.04 335.22 578.56 333.58 583.15 332.24 591.26 334.12 593.24 335.96 593.75 342.25 593.06 343.37 593.25 344.2 594.93 345.31 595.44 346.48 597.59 348.45 598.15 352.66 597.41 353.98 600.34 355 600.24 359.18 601.77 362.67 604.12 366.45 608.5 370.27 609.78 371.31 613.8 374.76 613.76 376.38 614.82 377.09 616.81 381.04 619.61 381.94 622.49 383.11 623.22 384.18 625.6 385.21 626.43 385.55 629.87 389.55 632.69 391.84 635.15 391.37 636.68 391.91 638.54 393.46 640.69 392.35 641.32 392.38 643 391.56 644.63 392.04 646.02 390.99 650.71 391.06 652.74 389.51 655.05 390.35 656.44 389.85 660.56 390.75 662.01 392.13 667.02 393.4 669.62 395.56 671.11 398.39 672.12 399.29 671.66 402.73 673.78 406.45 673.05 407.78 674.01 408.28 676.8 409.44 677.85 410.76 680.61 410.8 681.73 413.64 684.25 414.26 685.61 416.54 685.75 419.27 688.26 417.76 690.41 417.2 692.51 414.94 696.45 414.8 700.67 416.11 703.9 415.39 706.11 415.16 710.64 415.91 711.91 415.05 715 419.57 715.11 420.96 715.9 422.32 717.67 425.48 717.56 428.29 716.45 430.76 715.95 433.67 714.75 435.44 718.22 434.89 720.76 436.45 723.61 439.32 725.47 451.96 728.18 454.78 726.82 456.51 727.07 456.71 728.55 455.25 730.29 454.65 732.77 455.84 736.32 457.33 738.24 457.66 741.19 456.08 743.74 454.29 745.46 451.75 746.97 451.83 750.04 453.35 751.85 453.17 756.25 456.78 757.03 458.59 755.09 460.61 754.99 463.62 756.82 464.41 757.81 464.02 760.07 465.45 761.88 467.77 762.99 467.95 764.9 464.95 768.84 463.05 772.77 462.54 777.06 462.86 779.24 462.72 783.96 464.37 786.68 466.96 788.18 473.11 787.04 473.35 788.23 470.46 790.32 469.58 791.77 469.34 796.3 469.54 799.14 463.52 805.93 461.56 807.56 459.04 808.75 453.52 810.39 446.31 814.09 443.72 809.47 442.27 806.06 438.29 801.83 434.41 796.3 432.54 786.68 432.33 777.06 430.07 767.44 429.83 762.36 428.2 757.81 427.59 755.05 426.27 751.85 423.3 748.19 420.17 743.28 417.87 741.01 416.03 740.1 411.87 739.43 407.91 739.23 402.24 739.72 398.4 738.57 389.87 735.25 384.2 731.71 377.08 727.68 371.62 724.09 364.29 717.72 362.77 712.74 361.36 700.08 356.21 690.45 351.49 685.86 347.8 683.4 342.09 680.83 337.01 677.43 333.3 675.32 324.51 671.21 318.03 667.95 315.09 666.69 311.64 664.43 310.05 661.59 306.01 657.92 303.5 651.96 293.98 638.55 290.58 632.72 281.96 624.11 279.21 623.1 276.35 620.49 269.93 615.86 264.56 603.85 264.55 584.61 264.23 574.98 265.13 565.36 264.21 556.95 269.4 557 271.01 558.22 274.04 558.64 275.44 558.03 276.17 556.54 278.48 555.26 280.18 552.26 284 551.94 285.86 553.93 286.52 555.41 289.8 555.98 290.99 558.08 292.02 558.49 296.4 558.04 299.52 558.93 301.72 561.68 302.02 559.25 303.64 556.77 305.77 555.28 308.17 551.93 308.73 550.03 309.9 548.57 311.68 543.6 317.44 540.3 319.33 539.76 320.45 540.99 322.65 541.86 325.73 540.56 327.7 540.2 329.58 538.82 332.21 538.65 333.87 539.29 337.27 544.79 339.07 546.14 342.37 546.96 343.52 550.37 Z" id="38560110"/>
<path d="M 247.31 35.66 246.83 40.4 246.58 47.01 247.25 53.82 245.58 61.29 247.45 67.56 247.66 71.29 247.43 76.86 246.49 80.46 248.26 88.95 248.1 93.11 249.34 97.67 247.25 102.64 248.21 106.14 253.73 115.96 256.47 119.56 254.97 122.78 251.12 128.97 251.2 130.79 252.84 133.04 256.29 135.61 257.91 137.71 261.74 146.23 263.1 148.04 273.37 154.08 275.96 159.91 278.54 163.21 278.56 165.83 280.87 171.65 283.4 180.44 285.34 181.86 279.13 186.93 274.96 188.85 269.36 190 266.94 190.92 264.7 193.23 259.25 199.74 255.93 201.73 250.35 206.89 249.51 208.29 250.34 211.9 250.21 217.8 249 222.6 249.17 227.52 248.37 229.55 246.64 231.71 245.21 234.37 245.21 240.88 245.95 243.93 250.47 251.45 253.03 256.1 254.22 260.61 256.79 263.4 258.01 265.43 260.9 272.96 262.24 275.07 262.53 276.85 260.61 280.63 261.87 284.35 269.15 290.28 269.86 292.37 268.94 297.53 269.79 299.87 270.05 310.5 268.16 314.7 268.51 318.84 267.19 320.62 262.67 322.06 247.61 334.42 241.72 338.24 240.48 341.24 238.82 351.27 237.93 354.16 234.55 361.11 234.61 367.75 232.66 371.51 233 375.8 233.94 381.03 233.3 383.61 233.33 387.37 232.24 390.9 232 398.43 230.46 402.88 233.93 403.63 231.19 407.74 233.24 416.86 234.09 421.72 233.96 423.17 235.07 425.6 235.4 428.22 232.57 432.55 231.13 436.49 230.21 442.94 228.68 446.01 227.41 450.33 226.49 452.24 227.32 454.44 224.28 455.77 222.39 460.49 221.53 465.26 217.61 469.19 215.53 470.39 209.99 474.47 207.77 478.25 206.64 479.35 205.46 482.12 202.67 478.76 197.77 474.82 187.75 469.14 185.75 463.8 180.63 461.95 173.72 462.18 168.35 461.53 161.69 460.15 156.56 454.17 149.67 444.45 146.28 440.27 144.99 436.05 143.16 432.66 137.64 426.31 126.99 419.49 125.61 418.18 122.99 414.12 121.69 411.4 118.97 407.48 115.51 403.85 113.59 402.67 109.28 401.28 104.86 394.98 101.32 387.02 98.25 382.59 94.95 379.15 98.22 377.55 102.26 376.73 101.93 374.56 99.82 369.55 98.94 368.67 98.94 360.5 96.51 358.26 94.54 355.54 94.63 350.26 94.26 347.67 93.09 346.43 93.58 343.26 93.17 340.13 92.09 337.61 92.11 333.63 92.51 331.57 92.28 329.29 93.09 327.97 96.88 324.25 99.07 321.76 100.25 321.04 100.19 317.29 100.55 315.22 100.03 305.94 100.73 305.51 99.09 302.66 99.13 298.33 100.3 296.97 100.16 292.93 100.88 290.87 100.74 288.28 98.46 284.91 98.01 281.97 98.57 280.71 96.79 277.12 96.35 273.29 95.3 272.24 95.3 270.07 95.97 266.46 95.65 264.9 96.71 259.81 94.78 258.33 92.65 254.4 91.35 253.16 90.97 250.96 87.66 249.17 86.96 247.76 84.44 246.94 82.45 243.85 83.01 241.82 83.26 237.89 84.16 236.64 83.19 235.09 83.04 233.41 81.5 226.9 83.44 225.76 85.02 222.75 86.27 222.64 87.63 220.4 87.08 219.14 81.9 212.22 80.82 208.78 80.5 205.8 78.75 201.78 79.29 200.08 78.34 195.17 76.75 192.42 76.29 189.36 75.52 188.65 72.85 188.58 70.62 187.02 66.57 185.55 64.39 183.74 63.27 181.55 61.34 181.75 59.81 181.12 59.55 179.71 57.52 177.42 53.02 176.9 48.65 175.32 45.36 173.37 44.54 173.3 45.34 167.94 44.11 164.54 44.2 162.95 39.5 159.98 35.71 156.18 33.98 152.33 34.27 149.14 33.59 146.97 32.24 144.76 31.18 141.61 31.13 140.13 29.56 138.44 28.55 134.82 26.38 130.65 25.16 126.69 22.45 120.03 20.79 117.52 18.74 112.14 15.86 111.36 14.24 108.67 6.84 103.12 4.01 101.41 2.92 93.83 2.8 85.28 1.76 82.43 1.07 78.23 1 72.27 1.69 69.01 2.72 66.07 4.04 64.73 8.55 62.86 12.02 63.17 15.04 64.15 18.7 64.34 21.94 63.97 24.56 62.22 28.21 60.94 31.47 59.13 37.86 56.72 40.76 55.09 43.63 52.18 51.86 46.77 57.1 42.35 60.57 40.14 63.6 39.09 66.16 35.95 67.41 32.96 68.54 24.1 69.85 21.24 75.44 16.52 80.83 13.32 86.05 5.97 89.31 5 92.14 3.58 98.27 1 103.01 3.32 104.47 4.43 109.18 9.94 113.16 11.43 117.62 14.62 121.78 16.59 130.75 17.38 140.92 21.99 143.31 21.53 147.33 18.21 154.57 17.25 160.88 14.5 166.47 12.57 170.47 12.13 176.31 11.94 180.26 10.56 182.59 12.89 186.11 18.54 188.5 26.04 191.77 30.55 194.57 32.2 197.74 33 201.6 32.09 204.35 30.43 213.47 27.65 219.33 29.46 223.47 30.21 226.92 29.7 233.95 26.31 236.62 26.53 240.42 28.89 247.31 35.66 Z" id="38560310"/>
<path d="M 378.43 447.02 375 450.46 372.24 451.68 371.79 453.62 370.39 454.46 370.24 456.96 369.48 460.66 365.91 462.4 362.6 465.33 361.17 467.71 359.32 468.97 359.1 470.93 357.83 472.72 358.11 475.6 358.97 477.98 361.65 479.13 361.92 480.54 365.56 485.79 365.26 488.82 363.01 492.69 363.7 495.64 362.55 496.93 363.11 498.48 362.48 500.3 363.81 503.55 363.83 505.13 365.27 507.94 363.91 510.25 362.54 510.6 361.47 513.65 362.65 515.45 361.4 517.94 361.72 521.52 361.59 524.83 360.23 528.09 358.61 528.5 358.74 529.93 356.13 533.59 353.01 537.19 351.99 538.94 349.13 539.69 347.12 540.78 345.43 540.66 343.76 542.24 343.84 544.69 344.75 547.34 343.52 550.37 342.37 546.96 339.07 546.14 337.27 544.79 333.87 539.29 332.21 538.65 329.58 538.82 327.7 540.2 325.73 540.56 322.65 541.86 320.45 540.99 319.33 539.76 317.44 540.3 311.68 543.6 309.9 548.57 308.73 550.03 308.17 551.93 305.77 555.28 303.64 556.77 302.02 559.25 301.72 561.68 299.52 558.93 296.4 558.04 292.02 558.49 290.99 558.08 289.8 555.98 286.52 555.41 285.86 553.93 284 551.94 280.18 552.26 278.48 555.26 276.17 556.54 275.44 558.03 274.04 558.64 271.01 558.22 269.4 557 264.21 556.95 263.72 553.93 261.96 546.11 257.9 537.72 250.5 526.87 245.88 521.76 240.53 517.25 233.89 509.17 231.8 507.63 227.8 502.81 224.93 498 221.82 494.57 214.59 488.38 209.8 485.26 205.46 482.12 206.64 479.35 207.77 478.25 209.99 474.47 215.53 470.39 217.61 469.19 221.53 465.26 222.39 460.49 224.28 455.77 227.32 454.44 226.49 452.24 227.41 450.33 228.68 446.01 230.21 442.94 231.13 436.49 232.57 432.55 235.4 428.22 235.07 425.6 233.96 423.17 234.09 421.72 233.24 416.86 231.19 407.74 233.93 403.63 230.46 402.88 232 398.43 232.24 390.9 233.33 387.37 233.3 383.61 233.94 381.03 233 375.8 232.66 371.51 234.61 367.75 234.55 361.11 237.93 354.16 238.82 351.27 240.48 341.24 241.72 338.24 247.61 334.42 262.67 322.06 267.19 320.62 268.51 318.84 268.16 314.7 270.05 310.5 269.79 299.87 268.94 297.53 269.86 292.37 269.15 290.28 273.85 288.38 276.66 288.06 281.6 288.77 286.89 291.56 289.86 294.32 291.59 294.53 293.85 293.83 296.38 294.01 298.96 295.15 301.28 299.31 303.51 300.63 305.99 301.39 308.3 302.95 309.86 305.15 312.28 305.79 316.95 307.87 321.64 311.45 323.24 313.2 324.05 315.89 326.38 318.02 335.23 322.09 337.3 325.34 343.39 328.27 347.26 329.29 349.62 330.43 353.78 333.16 357.43 334.85 361.89 335.63 360.8 339.56 361.78 344.13 364.78 354.9 364.42 359.69 363.74 360.61 363.98 364.97 364.51 367.7 364.5 370.64 363.6 373.09 360.22 376.37 360.05 378.05 360.67 381.74 359.38 387.26 360.91 389.96 363.64 392.28 363.95 393.21 361.98 395.1 360.73 398.97 361.35 401.33 365.26 404.54 365.62 405.36 363.76 407.68 363.27 410.24 360.6 412.18 359.69 414.21 359.42 416.78 357.26 422.08 361.3 423.82 362.39 426.21 363.83 427.36 365.69 429.75 366.4 431.58 366.41 433.83 370.72 438.22 375.27 441.69 376.75 443.26 377.75 446.48 378.43 447.02 Z" id="38560320"/>
<path d="M 378.43 447.02 380.61 448.33 384.4 448.9 386.74 450.89 389.94 452.22 391.94 453.84 397.6 461.17 398.61 461.88 399.48 464.1 399.99 467.75 399.54 468.53 400.59 470.36 401.16 473.89 402.97 476.11 406.49 477.8 408.93 480.37 414.99 483.6 414.36 485.85 414.25 490.55 413.16 495.98 413.31 498.37 414.6 499.45 415.3 501.28 415.75 504.39 419.5 507.74 421.15 508.85 421.6 511.34 423.01 513.58 425.24 514.72 426.56 516.55 424.74 522.55 424.69 527.12 427.17 529.52 428.43 531.71 431.24 532.73 431.53 534.64 432.86 535.44 433.23 538.04 436.29 538.77 439.06 541.73 439.24 543.32 441.73 543.93 444.8 546.51 445.59 548.57 449.12 549.64 457.02 553.7 460.65 556.91 462.61 557.82 463.05 560.65 464.78 560.46 466.8 559.03 469.33 559.23 473.15 558.5 476.44 557.48 478.76 558.59 480.33 561.9 480.05 563.69 481.3 565.2 482.69 568.19 482.7 570.7 480.79 574.62 480.14 576.64 480.22 579.58 481.07 581.13 479.72 583.88 477.77 585.23 476.86 588.56 476.21 589.17 476.75 594.05 475.58 595.19 475 597.69 471.56 600.16 468.12 604.81 466.38 606.19 465.94 608.04 463.62 611.51 462.16 614.89 462.6 617.46 461.93 618.94 465.15 621.2 468.87 620.74 470.3 622.67 470.58 624.91 469.52 627.83 469.55 631.99 468.62 633.01 469.05 635.93 471.88 637.21 472.39 641.7 472 643.24 472.62 645.26 472.88 649.95 471.87 652.45 475.37 654.4 478.95 655.22 480.92 656.34 485.15 657.73 487.28 656.57 486.67 659.12 489.69 661.59 490.07 663.89 491.1 663.75 492.77 669.08 492.31 674.28 491.8 676.22 489.94 679.12 486.88 680.83 485.67 682.28 482.73 684.02 481.7 685.26 479.89 689.84 477.34 692.73 475.6 694.07 472.26 694.39 469.89 691.92 468.32 691.16 467.27 692.29 470 696.82 470.69 699.45 473.17 703.2 474.4 703.67 476.62 705.84 477.87 708.15 479.51 708.85 481.94 712.12 483.64 713.54 486.16 714.87 486.85 716.33 488.66 716.68 491.35 715.53 497.18 716.02 500.5 715.17 501.93 716.4 506.05 716.31 508.49 719.18 510.33 719.86 511.63 722.9 513.94 724.3 515.9 727.4 514.09 730.82 515.34 733.26 514.66 737.18 513.74 738.17 513.21 743.82 511.9 751.27 508.51 754.12 504.62 755.67 501.08 753.62 498.52 753.6 496.85 754.47 494.32 754.71 491.12 752.16 489.59 750.3 487.6 749.94 486.69 748.88 481.76 746.96 477.21 745.9 475.22 746.19 473.4 745.16 470.8 746.59 466.92 747.64 465.37 746.57 462.46 745.67 458.04 746.99 455.83 747.24 453.35 751.85 451.83 750.04 451.75 746.97 454.29 745.46 456.08 743.74 457.66 741.19 457.33 738.24 455.84 736.32 454.65 732.77 455.25 730.29 456.71 728.55 456.51 727.07 454.78 726.82 451.96 728.18 439.32 725.47 436.45 723.61 434.89 720.76 435.44 718.22 433.67 714.75 430.76 715.95 428.29 716.45 425.48 717.56 422.32 717.67 420.96 715.9 419.57 715.11 415.05 715 415.91 711.91 415.16 710.64 415.39 706.11 416.11 703.9 414.8 700.67 414.94 696.45 417.2 692.51 417.76 690.41 419.27 688.26 416.54 685.75 414.26 685.61 413.64 684.25 410.8 681.73 410.76 680.61 409.44 677.85 408.28 676.8 407.78 674.01 406.45 673.05 402.73 673.78 399.29 671.66 398.39 672.12 395.56 671.11 393.4 669.62 392.13 667.02 390.75 662.01 389.85 660.56 390.35 656.44 389.51 655.05 391.06 652.74 390.99 650.71 392.04 646.02 391.56 644.63 392.38 643 392.35 641.32 393.46 640.69 391.91 638.54 391.37 636.68 391.84 635.15 389.55 632.69 385.55 629.87 385.21 626.43 384.18 625.6 383.11 623.22 381.94 622.49 381.04 619.61 377.09 616.81 376.38 614.82 374.76 613.76 371.31 613.8 370.27 609.78 366.45 608.5 362.67 604.12 359.18 601.77 355 600.24 353.98 600.34 352.66 597.41 348.45 598.15 346.48 597.59 345.31 595.44 344.2 594.93 343.37 593.25 342.25 593.06 335.96 593.75 334.12 593.24 332.24 591.26 333.58 583.15 335.22 578.56 336.12 575.04 336.27 572.76 338.14 571.24 337.72 569.94 339.03 567.01 339.64 563.6 342.7 559.94 342.97 557.48 345.66 554.1 344.84 551.84 343.52 550.37 344.75 547.34 343.84 544.69 343.76 542.24 345.43 540.66 347.12 540.78 349.13 539.69 351.99 538.94 353.01 537.19 356.13 533.59 358.74 529.93 358.61 528.5 360.23 528.09 361.59 524.83 361.72 521.52 361.4 517.94 362.65 515.45 361.47 513.65 362.54 510.6 363.91 510.25 365.27 507.94 363.83 505.13 363.81 503.55 362.48 500.3 363.11 498.48 362.55 496.93 363.7 495.64 363.01 492.69 365.26 488.82 365.56 485.79 361.92 480.54 361.65 479.13 358.97 477.98 358.11 475.6 357.83 472.72 359.1 470.93 359.32 468.97 361.17 467.71 362.6 465.33 365.91 462.4 369.48 460.66 370.24 456.96 370.39 454.46 371.79 453.62 372.24 451.68 375 450.46 378.43 447.02 Z" id="38560330"/>
<path d="M 586.67 460.84 589.17 465.6 589.22 467.56 586.97 471.27 585.65 474.49 583.34 477.4 584.61 480.71 585.78 486.95 585.08 488.08 585.13 490.72 586.16 491.5 586.75 496.13 588.48 498.07 587.43 501.69 588.44 504.07 588.07 505.82 588.66 507.37 588.3 510.28 589.34 513.83 589.37 516.09 590.22 517.43 592.07 518.03 594.13 519.46 597.79 523.28 597.16 527.1 597.84 531.35 596.28 536.28 593.95 538.38 594.44 540.49 592.65 543.33 593.07 546.29 593.73 547.22 592.12 548.84 590.3 553.86 587.35 557.2 587.16 558.36 583.85 562.74 579.89 565.05 580.1 567.92 580.98 571.3 579.21 574.05 578.58 577.15 578.77 578.85 577.87 579.76 578.23 582.65 577.76 584.69 578.07 587.01 576.97 592.79 579.31 598.25 574.03 600.12 571.78 604.03 573.1 607.78 570.67 610.03 569.48 613.32 568.22 614.95 566.66 621.67 564.02 619.49 562 619.86 560.29 619.33 558.47 617.94 554.62 617.8 554.19 616.36 552.85 615.36 552.32 611.09 550.5 612.75 544.73 613.75 542.78 613.67 540.94 620.96 542.14 624.6 541.1 628.44 539.76 630.24 536.78 631.37 532.66 633.59 529.85 633.36 526.27 635.52 526.23 637.67 527.47 639.95 529.33 641.81 529.22 643.28 527.61 644.76 526.21 647.23 526.2 649.75 525.45 651.01 525.1 653.44 523.88 656.92 524.81 657.8 525.28 660.1 524.46 665.64 524.95 672.01 522.03 675.39 521.58 676.66 521.07 681.99 519.37 684.13 519.54 685.24 517.73 688.45 516.62 688.74 515.95 693.32 516.31 694.89 516.17 698.14 514.81 700.13 513.36 700.82 512.64 702.21 512.72 705.29 512.16 707.15 508.53 708.77 507.16 711.48 506.05 716.31 501.93 716.4 500.5 715.17 497.18 716.02 491.35 715.53 488.66 716.68 486.85 716.33 486.16 714.87 483.64 713.54 481.94 712.12 479.51 708.85 477.87 708.15 476.62 705.84 474.4 703.67 473.17 703.2 470.69 699.45 470 696.82 467.27 692.29 468.32 691.16 469.89 691.92 472.26 694.39 475.6 694.07 477.34 692.73 479.89 689.84 481.7 685.26 482.73 684.02 485.67 682.28 486.88 680.83 489.94 679.12 491.8 676.22 492.31 674.28 492.77 669.08 491.1 663.75 490.07 663.89 489.69 661.59 486.67 659.12 487.28 656.57 485.15 657.73 480.92 656.34 478.95 655.22 475.37 654.4 471.87 652.45 472.88 649.95 472.62 645.26 472 643.24 472.39 641.7 471.88 637.21 469.05 635.93 468.62 633.01 469.55 631.99 469.52 627.83 470.58 624.91 470.3 622.67 468.87 620.74 465.15 621.2 461.93 618.94 462.6 617.46 462.16 614.89 463.62 611.51 465.94 608.04 466.38 606.19 468.12 604.81 471.56 600.16 475 597.69 475.58 595.19 476.75 594.05 476.21 589.17 476.86 588.56 477.77 585.23 479.72 583.88 481.07 581.13 480.22 579.58 480.14 576.64 480.79 574.62 482.7 570.7 482.69 568.19 481.3 565.2 480.05 563.69 480.33 561.9 478.76 558.59 481.07 557.13 484.16 551.55 483.8 548.66 484.86 546.86 486.27 546.28 486.39 544.07 488.56 542.69 488.98 538.57 490.34 537 494.64 538.03 496.34 537.67 498.74 535.71 504.85 533.49 506.59 531.55 509.53 529.97 511.23 528.49 510.79 524.97 513.74 522.57 513.21 519.35 515.44 518.67 513.09 514.82 509.57 513.96 510.29 511.3 510.38 507.71 509.99 504.95 512.95 501.46 516.79 499.84 518.48 498.62 520.81 495.02 523.5 495.11 524.54 493.44 527.93 489.73 525.83 486.1 525.83 482.8 526.62 481.17 522.91 474.39 522.31 472.17 521.36 471.3 520.02 467.4 519.95 464.92 518.61 463.42 517.92 461.19 518.06 458.4 516.34 456.64 516.48 454.66 515.26 450.28 514.61 444.75 513.91 443.69 513.5 437.1 512.88 434.49 511.02 431.15 508.67 429.9 506.81 425.96 504.43 425.57 503.21 425.94 500.94 425.19 500.83 424.09 502.14 420.4 499.78 415.63 508.02 411.69 508.19 408.31 512.72 407.87 513.43 408.46 517.01 407.53 518.92 406.13 520.41 406.14 521.39 407.87 523.73 409.65 525.3 409.96 526.8 412.36 530.55 414.7 530.58 421.27 531.04 424.61 533.43 426.82 532.73 429.02 532.73 431.66 531.69 433.48 531.91 435.21 534.35 435.86 537.56 440.17 540.96 441.31 545.13 445.18 545.8 447.84 548.45 452.21 550.6 451.9 552.75 452.66 564.37 454.02 567.59 453.81 569.46 456.09 572.49 458.13 574.12 457.48 577.43 454.51 580.55 457.93 582.09 461.06 584.32 461.71 586.67 460.84 Z" id="38560340"/>
<path d="M 625.93 792.47 622 796.12 618.42 797.83 616.17 798.33 618.96 801.8 621.94 802.77 623.69 804.9 625.65 809.12 625.84 810.52 627.9 814.38 629.06 815.46 628.94 817.4 630.94 818.24 629.71 824.61 628.66 826.17 626.21 827.45 624.33 827.88 620.88 826.76 619.65 828.08 620.78 830.5 621.86 831.03 623.13 833.33 623.4 836.07 621.72 835.76 621.3 837.06 622.31 838.15 623.42 842.41 624.81 845.31 627.41 848.52 629.68 853.91 628.41 857.36 628.58 860.11 629.75 862.79 632.16 866.56 630.87 870.63 626.77 870.52 620.93 869.61 618.17 866.16 616.1 866.19 614.11 865.3 612.88 863.87 608.62 862.9 605.35 865.24 602.16 866.25 598.96 862.75 595.71 860.15 594.49 858.42 588.47 853.74 586.97 851.58 585.63 852.79 580.55 853.03 578.39 852.72 575.71 856.61 574.67 854.04 572.13 857.48 570.23 858.52 571.76 863.65 571.59 864.46 568.7 866.81 566.61 871.38 564.44 872.93 562.78 871.97 561.92 869.79 559.65 868.18 555.78 868.01 552.68 866.11 550.39 866.57 547.52 870.24 546.53 870.9 544.19 871.04 539.09 870.38 536.13 871.69 533.73 870.81 531.38 872.72 527.66 872.69 526.33 873.93 526.08 879.04 525.39 880.57 522.93 883.48 520.52 884.85 516.04 885.75 512.68 887.88 511.32 889.36 510.45 892.53 509.16 893.82 505.38 895.02 504 896.89 504.13 899.38 505.32 903.92 503.75 906.16 499.13 907.78 494.31 904.1 492.17 900.65 490.06 899.22 487.16 898.81 483.78 899.59 480.12 902.15 478.71 903.7 477.73 907.95 476.59 910.38 471.32 913.38 468.87 914.29 466.65 914.43 460.96 911.28 459.93 911.28 457.69 913.39 457.49 911.28 454.98 911.29 455.03 905.49 454.67 902.15 456.41 895.69 457 892.53 458.69 889.5 461.08 881.93 464.3 874.75 466.38 863.66 468.26 858.79 467.71 854.04 467.74 848.14 467.18 844.42 467.38 842.52 466.88 839.06 466.18 837.39 465.2 833.12 463.68 830.21 461.16 827.55 456.7 823.84 450.32 820.19 446.31 814.09 453.52 810.39 459.04 808.75 461.56 807.56 463.52 805.93 469.54 799.14 469.34 796.3 469.58 791.77 470.46 790.32 473.35 788.23 473.11 787.04 466.96 788.18 464.37 786.68 462.72 783.96 462.86 779.24 462.54 777.06 463.05 772.77 464.95 768.84 467.95 764.9 467.77 762.99 465.45 761.88 464.02 760.07 464.41 757.81 463.62 756.82 460.61 754.99 458.59 755.09 456.78 757.03 453.17 756.25 453.35 751.85 455.83 747.24 458.04 746.99 462.46 745.67 465.37 746.57 466.92 747.64 470.8 746.59 473.4 745.16 475.22 746.19 477.21 745.9 481.76 746.96 486.69 748.88 487.6 749.94 489.59 750.3 491.12 752.16 494.32 754.71 496.85 754.47 498.52 753.6 501.08 753.62 504.62 755.67 508.51 754.12 511.9 751.27 513.21 743.82 513.74 738.17 514.66 737.18 515.34 733.26 514.09 730.82 515.9 727.4 513.94 724.3 511.63 722.9 510.33 719.86 508.49 719.18 506.05 716.31 507.16 711.48 508.53 708.77 512.16 707.15 512.72 705.29 512.64 702.21 513.36 700.82 514.81 700.13 516.17 698.14 518.58 699.41 520.12 698.69 521.9 699.38 523.55 700.9 525.67 700.89 530.4 702.26 532.81 701.54 537.77 702.04 540.19 701.69 544.6 702.67 546.47 704.43 550.13 704.86 549.65 707.94 548.63 709.11 549.03 711.4 550.08 712.91 552.79 714.93 552.81 718.88 554.84 719.75 557.02 727.83 556.21 731.05 557.56 734.24 556.36 736.13 555.63 741.24 556.14 743.3 554.61 745.75 552.58 747.42 551.53 749.84 550.06 750.26 548.95 753.39 546.95 754.36 547.06 756.53 551.59 758.42 553.55 760.66 557.18 760.39 558.62 761.18 559.9 763.56 561.16 764.78 562.06 768.03 568.83 771.58 571.99 770.8 573.94 772.56 575.7 772.83 576.38 774.64 578.61 776.48 579.48 778.33 580.06 781.74 584.98 784.68 586.21 786.39 590.16 784.48 591.7 785.87 591.54 787.54 593.37 788.71 596.78 787.52 599.06 785.28 599.22 783.98 601.55 783.12 602.89 778.92 606.55 781.83 607.98 784.32 609.76 785.24 611.99 784.99 609.75 790.04 609.92 792.21 612.26 796.18 611.92 796.99 612.97 799.7 615.16 796.95 618.61 794.78 621.12 794.68 624.25 792.25 625.93 792.47 Z" id="38560350"/>
<path d="M 574.14 1080.43 575.83 1081.9 575.61 1083.61 574.07 1086.01 570.89 1085.4 565.57 1086.19 562.8 1085.84 561.76 1083.67 566.69 1083.27 570.58 1084.04 571.35 1082.71 572.9 1082.03 574.14 1080.43 Z M 586.49 1079.8 586.28 1082.11 587.37 1084.04 588.04 1087.98 586.24 1086.54 585.66 1083.99 584.21 1082.55 585.51 1080.34 586.49 1079.8 Z M 556.81 1066.27 554.09 1068.29 554.5 1065.67 556.81 1066.27 Z M 582.05 1064.4 583.98 1063.78 586.61 1065.31 586.53 1067.57 588.03 1069.66 585.24 1071.67 583.39 1072.17 581.66 1070.04 582.56 1068.18 580.71 1065.13 582.05 1064.4 Z M 581.6 1058.6 580.53 1058.72 579.62 1056.76 580.62 1056.32 581.6 1058.6 Z M 569.56 1046.59 571.82 1047.38 573.05 1046.86 574.61 1048.36 573.65 1049.66 574.18 1052.1 573.6 1052.94 573.21 1056.2 574.68 1058.02 573.81 1059.37 571.15 1059.11 569.94 1061.43 570.13 1062.9 572.26 1064.35 570.51 1065.9 569.68 1068.41 571.32 1069.92 572.76 1069.55 573.1 1071.64 575.09 1074.02 574.64 1077.42 573.96 1078.13 570.64 1077.17 569.56 1077.67 566.38 1077.01 564.15 1076.12 562.79 1074.06 561.41 1073.13 562.06 1071.77 563.51 1071.9 564.09 1070.6 565.74 1069.47 566.37 1066.6 564.89 1064.65 562.59 1064.89 562.24 1061.47 564.8 1061.37 567.01 1059.7 567.29 1057.11 565.93 1055.48 568.42 1054.92 570.04 1053.61 569.41 1051.51 569.56 1046.59 Z M 582.91 1041.35 583.52 1042.03 581.98 1044.02 580.92 1043.86 580.37 1040.43 582.24 1039.27 582.91 1041.35 Z M 585.64 1024.25 584.43 1024.42 583.6 1022.87 584.07 1017.81 585.38 1018.11 585.28 1020.65 586.23 1023.1 585.64 1024.25 Z M 726.41 994.51 723.23 995.1 721.49 996.44 720.85 995.28 723.46 991.8 726.41 994.51 Z M 722.69 976.93 722.15 979.98 720.9 979.53 720.62 977.12 722.69 976.93 Z M 760.17 966.47 761.84 967.45 762.35 969.15 758.88 967.49 760.17 966.47 Z M 755.24 956.24 756.16 957.57 755.41 959.7 757.48 961.29 756.23 963.53 754.84 964.3 753.86 962.63 753.59 960.43 752.35 958.64 753.11 956.5 755.24 956.24 Z M 757.13 945.88 758.51 947.31 759.9 946.11 762.55 948.06 766.15 947.56 766.7 949 766.44 951.34 761.63 951.72 759.29 950.98 757.28 952.68 754.73 952.57 753.5 951.4 752.93 948.35 755.83 947.67 755.58 945.99 757.13 945.88 Z M 751.34 950.08 750.27 948.83 750.81 946.26 752.04 947.68 751.34 950.08 Z M 752.48 942.18 749.95 941.6 750.55 938.07 751.12 937.36 754.18 938.36 754.4 941.54 752.48 942.18 Z M 576.33 994.26 575.21 992.59 574.37 989.66 568.05 991.51 568.7 990.5 566.59 987.59 565.46 988.34 563.08 987.41 560.35 984.81 556.52 983.42 555.74 983.81 553.89 982.13 546.07 981.97 544.56 979.64 544.77 976.31 545.78 972.3 546.99 970.89 550.93 969.5 552.2 967.77 551.09 963.82 549.42 961.92 548.1 957.47 546.08 954.51 543.54 953.29 538.96 952.4 538.09 952.69 534.93 951.08 530.97 951.1 527 950.12 525.03 947.58 524.42 945.27 521.77 945.33 520.14 944.29 519.76 942.66 518.03 942.41 516.42 936.05 515.56 933.86 518.3 929.96 515.39 927.13 514.53 921.63 507.21 923.03 507.68 925.51 501.89 926.6 499.32 926.21 497.97 923.08 494.6 920.57 493.87 919.47 491.8 913.41 492.22 907.79 490.98 905.79 489.31 904.65 488.99 902.15 490.06 899.22 492.17 900.65 494.31 904.1 499.13 907.78 503.75 906.16 505.32 903.92 504.13 899.38 504 896.89 505.38 895.02 509.16 893.82 510.45 892.53 511.32 889.36 512.68 887.88 516.04 885.75 520.52 884.85 522.93 883.48 525.39 880.57 526.08 879.04 526.33 873.93 527.66 872.69 531.38 872.72 533.73 870.81 536.13 871.69 539.09 870.38 544.19 871.04 546.53 870.9 547.52 870.24 550.39 866.57 552.68 866.11 555.78 868.01 559.65 868.18 561.92 869.79 562.78 871.97 564.44 872.93 566.61 871.38 568.7 866.81 571.59 864.46 571.76 863.65 570.23 858.52 572.13 857.48 574.67 854.04 575.71 856.61 578.39 852.72 580.55 853.03 585.63 852.79 586.97 851.58 588.47 853.74 594.49 858.42 595.71 860.15 598.96 862.75 602.16 866.25 605.35 865.24 608.62 862.9 612.88 863.87 614.11 865.3 616.1 866.19 618.17 866.16 620.93 869.61 626.77 870.52 630.87 870.63 629.33 872.43 629.03 874.94 629.56 877.65 630.08 884.82 632.76 890.32 632.76 891.73 635.17 896.97 636.81 897.48 639.55 899.35 641.9 899.54 643.66 900.28 645.9 901.98 648.38 902.63 652.35 904.77 653.67 904.99 657.16 903.51 658.6 903.87 660.22 902.64 665.21 901.73 671.65 904.6 676.34 905.22 683.13 904.08 686.86 906.14 688.4 909.83 694.18 910.9 696.2 912.89 700.87 912.83 704.93 911.81 707.31 910.29 710.71 909.59 716.37 907.6 716.54 908.98 720.06 911.08 721.39 910.69 723.47 913.33 725.39 917.36 727.5 917.32 729.02 918.62 733.39 919.16 735.72 920.49 737.52 920.65 740.26 923.44 741.31 925.98 737.37 925.21 736.64 927.96 733.93 929.17 734.34 930.81 738.64 932.51 739.15 935.49 741.31 936.73 741.73 937.76 740.61 939.63 740.91 941.33 739.7 943.52 741.23 945.17 740.29 946.77 741.43 947.71 741.17 950.32 742.66 952.77 743.73 957.37 741.23 956.56 739.26 953.94 737.32 952.55 731.55 953.99 729.2 955.46 727.28 957.35 728.11 959.35 728.02 961.7 725.93 963.08 724.65 962.35 725.02 961.07 724.37 959.07 722.71 958.22 721.09 958.49 720.43 959.78 721.31 963.21 717.72 971.64 717.23 971.88 713.04 970.96 712.47 971.94 713.92 973.31 716.37 974.07 718.32 977.51 715.9 980.08 715.11 984.49 713.49 984.51 711.05 983.3 709.52 984.04 709.21 985.7 711.72 987.6 709.88 988.53 711.61 990.9 713.7 991.23 714.58 992.16 714.04 993.97 711.89 996.44 713.42 999.75 710.82 1000.44 709.59 1004.1 708.69 1003.99 708.63 999.71 706.99 997.33 705.52 996.26 698.22 1001.28 698.09 1002.85 700.21 1005.3 700.96 1007.78 699.16 1007.58 698.04 1006.34 698.12 1004.49 696.55 1003.57 693.62 1002.8 690.94 1003.39 690.05 1004.47 691.47 1006.52 691.64 1008.93 689.2 1013.27 688.26 1012.63 687.48 1008.78 687.28 1005.72 685.81 1001.04 684.55 1001.16 683.38 1002.62 680.27 1004.21 679.83 1006.01 677.12 1009.59 676.52 1012.41 678.81 1015.31 679.26 1016.77 678.93 1018.83 675.32 1019.31 671.92 1020.52 668.64 1022.31 665.91 1023.34 662.95 1022.98 661.92 1024.9 659.28 1025.7 657.14 1027.36 654.21 1025.45 651.46 1024.15 646.94 1024.15 643.31 1028.62 641.48 1027.33 638.73 1027.68 636.87 1025.08 633.35 1023.63 628.52 1022.97 628.18 1020.28 624.7 1019.83 622.85 1020.42 621.23 1019.79 619.35 1020.12 618.97 1022.56 616.68 1022.39 614.48 1020.87 612.31 1022.3 613.5 1023.82 612.02 1024.78 610.38 1024.83 609.08 1025.97 605.3 1026.16 602.73 1027.1 601.5 1026.98 602.59 1024.27 603.83 1023.79 605.13 1020.99 604.42 1018.13 602.62 1016.78 601.51 1016.94 599.6 1018.69 597.87 1018.7 599.32 1016.29 598.68 1015.2 595.92 1015.28 594.76 1012.93 595.76 1008.13 595.17 1004.96 592.98 1002.92 593.15 1001.72 594.9 1000.59 595.23 999.17 598.43 997.58 598.74 996.56 597.26 994.78 597.38 992.71 594.78 989.22 590.06 986.51 588.81 984.45 587.2 984.88 587.13 991.82 586.41 995.05 584.73 1000.08 581.41 999.09 580.17 996.62 582.02 994.58 580.53 992.9 576.33 994.26 Z" fill-rule="evenodd" id="38560360"/>
<path d="M 460.48 1058.92 457.72 1060.88 457.24 1059.85 458 1057.34 459.82 1056.69 460.48 1058.92 Z M 474.2 1049.8 472.81 1051.65 471.57 1050.3 472.57 1049.37 474.2 1049.8 Z M 461.69 1049.01 462.52 1050.4 461.28 1051.68 459.16 1055.75 458.63 1052.67 456.56 1050.53 454.87 1049.63 448.57 1048.52 446.86 1047.03 450.43 1046.87 451.16 1047.72 453 1047.64 454.77 1048.93 456.99 1048.51 458.64 1046.27 457.66 1044.97 458.39 1042.48 459.72 1042.38 460.47 1048.51 461.69 1049.01 Z M 408.92 975.19 409.47 973.48 411.53 969.51 412.61 963.81 413.7 960.61 416.58 955.75 417.74 950.27 418.91 948.58 421.75 945.61 426.26 942.3 430.92 940.65 435.54 936.85 440.77 931.37 443.42 926.35 446.83 921.4 451.67 917.9 452.84 916.56 454.46 913.57 454.98 911.29 457.49 911.28 457.69 913.39 459.93 911.28 460.96 911.28 466.65 914.43 468.87 914.29 471.32 913.38 476.59 910.38 477.73 907.95 478.71 903.7 480.12 902.15 483.78 899.59 487.16 898.81 490.06 899.22 488.99 902.15 489.31 904.65 490.98 905.79 492.22 907.79 491.8 913.41 493.87 919.47 494.6 920.57 497.97 923.08 499.32 926.21 501.89 926.6 507.68 925.51 507.21 923.03 514.53 921.63 515.39 927.13 518.3 929.96 515.56 933.86 516.42 936.05 518.03 942.41 519.76 942.66 520.14 944.29 521.77 945.33 524.42 945.27 525.03 947.58 527 950.12 530.97 951.1 534.93 951.08 538.09 952.69 538.96 952.4 543.54 953.29 546.08 954.51 548.1 957.47 549.42 961.92 551.09 963.82 552.2 967.77 550.93 969.5 546.99 970.89 545.78 972.3 544.77 976.31 544.56 979.64 546.07 981.97 553.89 982.13 555.74 983.81 556.52 983.42 560.35 984.81 563.08 987.41 565.46 988.34 566.59 987.59 568.7 990.5 568.05 991.51 574.37 989.66 575.21 992.59 576.33 994.26 573.45 995.63 575.18 1000.5 580.76 999.19 583.61 1000.65 583.48 1006.25 584.69 1016.09 583.7 1018.45 581.95 1018.87 581.61 1020.18 575.45 1021.65 574.24 1020.37 569.7 1019.39 566.44 1015.88 565.23 1015.41 562.15 1016.29 558.6 1014.83 556.34 1013.47 553.99 1013.44 549.5 1010.41 551.73 1016.14 556.56 1016.26 559.19 1017.16 560.15 1018.33 562.46 1024.05 554.54 1027.15 555.75 1030.29 553.84 1034.68 553.23 1034.42 555.32 1029.79 554.32 1027.24 548.71 1029.5 551.71 1036.86 551.72 1037.64 548.34 1041 547.89 1040.64 551.46 1036.95 548.47 1029.6 546.98 1030.23 547.45 1031.9 545.26 1032.91 543.9 1030.02 542.01 1029.19 539.88 1025.39 535.51 1021.06 532.32 1022.02 536.38 1028.13 538.1 1028.29 538.49 1030.04 541.12 1036.55 540.32 1037.22 540.18 1039.72 537.27 1042.71 537.89 1045.52 535.19 1048.29 531.85 1048.2 530.7 1047.1 527.96 1047.01 527.14 1046.27 522.96 1046.15 519.23 1048.06 520.24 1049.85 518.02 1051.75 515.69 1054.65 513.12 1054.85 504.14 1057.13 505.07 1059.58 508.09 1071.98 508.79 1075.64 510.07 1079.45 510.31 1082.25 511.5 1087.37 511.27 1088.2 495.87 1092 491.4 1073.9 490.47 1070.52 488.05 1071.3 485.49 1060.84 483.25 1052.49 483.14 1050.87 481.72 1045.29 478.02 1046.04 477.14 1044.3 474.35 1044.01 476.32 1042.18 476.32 1039.32 475.17 1038.1 471.11 1036.99 469.88 1037.55 468.8 1041.01 468.41 1044.03 466.42 1044.03 466.15 1041.58 465.26 1040.36 459.29 1036.67 457.46 1035.05 457.52 1032.69 456.17 1031.15 455.16 1028.65 454.69 1025.77 456.2 1021.17 452.2 1019.18 450.04 1018.54 450.01 1016.03 447.57 1011.7 444.43 1009.04 442.86 1008.63 439.77 1006.42 440.12 1001.96 439.66 1000.56 439.51 995.9 437.35 993.89 436.73 991.78 436.82 986.49 437.37 983.37 432.66 974.19 432.27 974.97 429.36 976.19 426.77 974.89 424.65 970.9 422.9 964.99 420.24 965.05 420.23 969.94 422.47 976.29 420.4 976.36 417.64 974.93 415.45 975.4 408.92 975.19 Z M 481.49 1042.48 481.93 1044.7 488.34 1070.61 488.54 1070.65 505.67 1066.41 505.87 1065.95 503.1 1055 502.64 1054.7 501.29 1048.19 498.79 1038.55 498.37 1038.08 482.8 1041.75 481.49 1042.48 Z M 490.96 1070.43 494.42 1084.8 494.3 1081.38 495.74 1080.97 496.59 1081.95 499.62 1080.03 502.67 1080.58 504 1081.98 505.46 1082.27 509.17 1082.07 509.32 1079.91 506.06 1066.71 490.96 1070.43 Z" fill-rule="evenodd" id="38560370"/>
<path d="M 773.74 939.79 772.52 939.03 772.38 937.19 774.48 937.51 775.35 939 773.74 939.79 Z M 768.54 936.94 766.7 936.03 764.39 933.76 762.84 929.16 761.2 925.64 761.93 924.51 762.1 921.28 763.7 921.31 764.33 922.75 768.06 924.71 768.6 927.53 768.14 928.63 769.63 936.12 768.54 936.94 Z M 764.81 887.62 763.13 887.24 763.34 885.57 765.28 886.74 764.81 887.62 Z M 700.68 653.06 703.07 658.82 705.76 664.26 706.75 667.24 710.08 672.82 712.12 673.52 715.54 672.23 719.46 671.32 721.56 672 722.6 671.37 725.44 672.07 728.94 673.45 731.5 677.92 733.8 685.98 733.46 687.82 740.9 687.68 741.66 691.14 742.07 695.47 743.04 697.13 745.5 698.93 744.86 704.48 746.52 706.3 747.17 711.42 748.92 712.61 756.89 713.94 759.73 711.81 760.32 713.26 762.84 715.77 764.34 717.85 765.9 722.65 767.46 725.7 767.72 728.71 768.98 731.29 767.22 732.8 769.37 737.63 769.95 740.1 774.43 742.77 776.05 747.89 777.87 748.7 780.39 748.87 781.51 751.03 783.25 752.44 784.26 755.91 782.41 760.86 780.45 761.04 777.62 762.71 776.48 764.28 775.15 768.53 775.3 769.41 768.47 771.82 768.47 775.69 767.12 782.03 769.56 783.41 770.37 789.44 769.06 792.55 767.15 793.26 766.56 795.11 768.61 798.33 767.18 800.49 771.47 804.61 770.07 808.83 769.42 809.81 767.09 811.17 767.26 813.01 764.95 812.39 762.47 812.42 760.69 813.85 762.74 815.73 761.25 817.61 763.4 818.91 764.15 820.57 761.9 821.17 761.52 822.62 763.5 825.3 763.97 827.64 765.02 828.64 767.45 833.96 768.77 834.08 770.01 835.42 766.96 842.27 766.53 845.59 765.42 846.5 757.83 855.67 756.74 855.74 755.53 857.21 759.08 859.32 762.83 862.03 763.63 864.28 765.58 865.39 764.58 867.65 765.6 870.08 764.19 872 763.13 870.14 759.95 872.13 757.83 877.71 761.89 881.39 759.65 883.08 759.38 884.47 757.17 883.69 753.2 891.26 754.33 893.56 753.16 894.24 753.5 897.68 755.76 898.66 756.95 897.06 759.76 898.54 760.42 900.91 758.75 903 758.45 904.8 754.96 905.41 755.06 901.84 751.59 901.5 751.74 902.87 749.23 903.8 750.36 905.9 753.35 907.39 751.68 908.47 753.61 910.82 756.66 912.32 759.84 910.36 766.11 910.17 765.17 912.02 765.84 913.77 763.91 914.97 761.94 914.18 758.03 914.44 755.34 913.91 754.62 914.91 755.75 916.55 755.32 919.24 756.75 919.11 757.47 920.85 754.75 922.59 757.55 927.13 756.17 929.33 757.23 930.49 758.72 930.53 759.15 932.89 756.53 933.57 754.25 932.85 752.3 930.44 751.5 928.27 751.73 927.13 748.59 923.79 742.92 924.65 741.31 925.98 740.26 923.44 737.52 920.65 735.72 920.49 733.39 919.16 729.02 918.62 727.5 917.32 725.39 917.36 723.47 913.33 721.39 910.69 720.06 911.08 716.54 908.98 716.37 907.6 710.71 909.59 707.31 910.29 704.93 911.81 700.87 912.83 696.2 912.89 694.18 910.9 688.4 909.83 686.86 906.14 683.13 904.08 676.34 905.22 671.65 904.6 665.21 901.73 660.22 902.64 658.6 903.87 657.16 903.51 653.67 904.99 652.35 904.77 648.38 902.63 645.9 901.98 643.66 900.28 641.9 899.54 639.55 899.35 636.81 897.48 635.17 896.97 632.76 891.73 632.76 890.32 630.08 884.82 629.56 877.65 629.03 874.94 629.33 872.43 630.87 870.63 632.16 866.56 629.75 862.79 628.58 860.11 628.41 857.36 629.68 853.91 627.41 848.52 624.81 845.31 623.42 842.41 622.31 838.15 621.3 837.06 621.72 835.76 623.4 836.07 623.13 833.33 621.86 831.03 620.78 830.5 619.65 828.08 620.88 826.76 624.33 827.88 626.21 827.45 628.66 826.17 629.71 824.61 630.94 818.24 628.94 817.4 629.06 815.46 627.9 814.38 625.84 810.52 625.65 809.12 623.69 804.9 621.94 802.77 618.96 801.8 616.17 798.33 618.42 797.83 622 796.12 625.93 792.47 627.27 789.95 635.63 793.53 638.39 794.12 638.71 797.94 643.87 799.06 645.87 797.67 648.52 798.37 650.42 798.26 657.08 795.75 658.68 793.88 660.36 792.76 663.47 788.04 664.15 785.5 666.42 785.11 667.52 783.24 668.68 782.69 670.41 779.48 668.94 776.02 667.17 774.43 665.93 770.5 664.38 768.53 665.96 765.71 670.9 765.22 674.1 762.61 674.41 758.03 673.99 755.04 672.39 754.26 670.11 751.01 665.46 749.62 667.54 746.84 667.05 745.33 667.12 737.79 663.62 734.41 659.93 734.77 658.44 733.22 655.75 731.96 657.22 728.86 658.49 727.22 658.69 725.51 659.74 723.61 659.31 722.15 663.49 716.31 662.6 714.07 658.94 711.83 656.36 705.98 656.64 705.03 655.24 699.85 655.13 695.84 653.85 691.25 648.62 687.59 645.02 686.29 646.27 685.1 647.2 682.56 646.33 680.13 643.75 676.19 643.38 672.36 644.14 669.57 644.11 667.36 641.14 658.4 639.75 656.1 641.5 654.67 643.96 653.78 649.49 653.55 651.51 651.96 654.87 648.51 657.03 647.33 659.65 647.21 666.25 648.5 674.31 650.67 675.47 651.31 678.81 651.96 682.27 651.44 684.82 649.71 688.19 649.49 690.01 650.61 692.74 651.37 696.78 653.57 700.68 653.06 Z" fill-rule="evenodd" id="38560380"/>
<path d="M 657.03 647.33 654.87 648.51 651.51 651.96 649.49 653.55 643.96 653.78 641.5 654.67 639.75 656.1 641.14 658.4 644.11 667.36 644.14 669.57 643.38 672.36 643.75 676.19 646.33 680.13 647.2 682.56 646.27 685.1 645.02 686.29 648.62 687.59 653.85 691.25 655.13 695.84 655.24 699.85 656.64 705.03 656.36 705.98 658.94 711.83 662.6 714.07 663.49 716.31 659.31 722.15 659.74 723.61 658.69 725.51 658.49 727.22 657.22 728.86 655.75 731.96 658.44 733.22 659.93 734.77 663.62 734.41 667.12 737.79 667.05 745.33 667.54 746.84 665.46 749.62 670.11 751.01 672.39 754.26 673.99 755.04 674.41 758.03 674.1 762.61 670.9 765.22 665.96 765.71 664.38 768.53 665.93 770.5 667.17 774.43 668.94 776.02 670.41 779.48 668.68 782.69 667.52 783.24 666.42 785.11 664.15 785.5 663.47 788.04 660.36 792.76 658.68 793.88 657.08 795.75 650.42 798.26 648.52 798.37 645.87 797.67 643.87 799.06 638.71 797.94 638.39 794.12 635.63 793.53 627.27 789.95 625.93 792.47 624.25 792.25 621.12 794.68 618.61 794.78 615.16 796.95 612.97 799.7 611.92 796.99 612.26 796.18 609.92 792.21 609.75 790.04 611.99 784.99 609.76 785.24 607.98 784.32 606.55 781.83 602.89 778.92 601.55 783.12 599.22 783.98 599.06 785.28 596.78 787.52 593.37 788.71 591.54 787.54 591.7 785.87 590.16 784.48 586.21 786.39 584.98 784.68 580.06 781.74 579.48 778.33 578.61 776.48 576.38 774.64 575.7 772.83 573.94 772.56 571.99 770.8 568.83 771.58 562.06 768.03 561.16 764.78 559.9 763.56 558.62 761.18 557.18 760.39 553.55 760.66 551.59 758.42 547.06 756.53 546.95 754.36 548.95 753.39 550.06 750.26 551.53 749.84 552.58 747.42 554.61 745.75 556.14 743.3 555.63 741.24 556.36 736.13 557.56 734.24 556.21 731.05 557.02 727.83 554.84 719.75 552.81 718.88 552.79 714.93 550.08 712.91 549.03 711.4 548.63 709.11 549.65 707.94 550.13 704.86 546.47 704.43 544.6 702.67 540.19 701.69 537.77 702.04 532.81 701.54 530.4 702.26 525.67 700.89 523.55 700.9 521.9 699.38 520.12 698.69 518.58 699.41 516.17 698.14 516.31 694.89 515.95 693.32 516.62 688.74 517.73 688.45 519.54 685.24 519.37 684.13 521.07 681.99 521.58 676.66 522.03 675.39 524.95 672.01 524.46 665.64 525.28 660.1 524.81 657.8 523.88 656.92 525.1 653.44 525.45 651.01 526.2 649.75 526.21 647.23 527.61 644.76 529.22 643.28 529.33 641.81 527.47 639.95 526.23 637.67 526.27 635.52 529.85 633.36 532.66 633.59 536.78 631.37 539.76 630.24 541.1 628.44 542.14 624.6 540.94 620.96 542.78 613.67 544.73 613.75 550.5 612.75 552.32 611.09 552.85 615.36 554.19 616.36 554.62 617.8 558.47 617.94 560.29 619.33 562 619.86 564.02 619.49 566.66 621.67 568.22 614.95 569.48 613.32 570.67 610.03 573.1 607.78 571.78 604.03 574.03 600.12 579.31 598.25 581.26 599.8 583.21 600.45 586.55 600.08 587.58 601.32 591.83 602.88 593.09 605.57 594.2 606.37 596.06 606.11 598.84 603.58 599.88 606.98 601.32 607.8 603.58 610.34 606.29 611.75 607.31 612.9 611.55 613.68 613.29 615.22 613.99 621.43 615.26 621.84 616.54 623.87 619.23 624.8 622.34 626.73 626.36 628.37 628.26 628.61 632.09 631.87 634.4 632.88 636.94 633.03 643.39 635.7 646.67 638.47 649.31 639.87 654.7 640.62 656.37 643.71 657.03 647.33 Z" id="38560390"/>
<path d="M 667.4 495.6 671.27 501.63 672.46 504.33 671.22 509.14 671.82 512.47 672.88 514.2 675.07 516.06 674.94 519.83 677.16 521.76 679.18 524.44 681.14 525.84 679.64 528.79 681.4 532.18 681.02 534.19 681.91 536.04 684.04 536.33 685.36 535.74 688.95 536.01 692.66 534.52 694.34 535.12 697.13 537.38 697.18 539.5 699.51 541.51 701.94 542.65 704.2 546.69 705.95 547.43 709.74 547.5 711.81 546.53 714.13 547.97 718.39 548.91 720.59 551.31 720.46 552.56 723.16 552.79 726.36 554.6 727.77 559.06 729.2 559.86 737.1 561.7 737.93 567.83 736.12 571.24 731.21 574.08 730.09 575.83 727.54 578.61 726.87 580.01 723.54 582.07 720.24 586.18 716.03 587.14 713.65 591.23 714 593.47 712.99 597.31 714.34 598 714.51 599.72 715.7 600.62 718.02 604.34 721 605.71 721.01 607.39 723.42 609.11 724.51 611.81 726.52 613.56 730.32 615.45 732.57 618.86 734.19 619.97 735.05 621.85 733.54 623.87 731.46 624.91 728.76 624.3 726.21 626.38 724.07 627.13 721.57 628.63 718.79 629.64 719.63 630.93 719.11 635.41 718.38 635.94 720.25 640.15 720.93 644.22 719.88 650.07 717.31 650.81 715.22 649.85 709.38 652.15 700.68 653.06 696.78 653.57 692.74 651.37 690.01 650.61 688.19 649.49 684.82 649.71 682.27 651.44 678.81 651.96 675.47 651.31 674.31 650.67 666.25 648.5 659.65 647.21 657.03 647.33 656.37 643.71 654.7 640.62 649.31 639.87 646.67 638.47 643.39 635.7 636.94 633.03 634.4 632.88 632.09 631.87 628.26 628.61 626.36 628.37 622.34 626.73 619.23 624.8 616.54 623.87 615.26 621.84 613.99 621.43 613.29 615.22 611.55 613.68 607.31 612.9 606.29 611.75 603.58 610.34 601.32 607.8 599.88 606.98 598.84 603.58 596.06 606.11 594.2 606.37 593.09 605.57 591.83 602.88 587.58 601.32 586.55 600.08 583.21 600.45 581.26 599.8 579.31 598.25 576.97 592.79 578.07 587.01 577.76 584.69 578.23 582.65 577.87 579.76 578.77 578.85 578.58 577.15 579.21 574.05 580.98 571.3 580.1 567.92 579.89 565.05 583.85 562.74 587.16 558.36 587.35 557.2 590.3 553.86 592.12 548.84 593.73 547.22 593.07 546.29 592.65 543.33 594.44 540.49 593.95 538.38 596.28 536.28 597.84 531.35 597.16 527.1 597.79 523.28 594.13 519.46 592.07 518.03 590.22 517.43 589.37 516.09 589.34 513.83 588.3 510.28 588.66 507.37 588.07 505.82 588.44 504.07 587.43 501.69 588.48 498.07 586.75 496.13 586.16 491.5 585.13 490.72 585.08 488.08 585.78 486.95 584.61 480.71 583.34 477.4 585.65 474.49 586.97 471.27 589.22 467.56 589.17 465.6 586.67 460.84 593.71 461.25 596.43 459.05 600.02 456.73 601.59 456.67 603.44 458.32 606.23 457.72 608.51 458.51 610.26 458.21 614.33 459.59 616.33 461.14 617.26 463.54 620.47 465.98 622.11 468.12 624.84 470.1 629.24 471.65 633.8 472.38 636.24 473.11 636.93 474.36 642.01 475.24 644.19 476.89 645.26 478.86 647.59 478.39 651.32 483.68 652.75 485.22 653.48 488.25 655.73 489.91 659.63 491.54 660.62 491.07 664.31 491.62 667.4 495.6 Z" id="38560400"/>
<path d="M 445.09 300.18 449.05 300.11 454.62 302.53 454.38 307.38 452.41 311.32 451.75 311.22 451.28 315.17 449.96 322.84 452.28 324.12 453.57 325.57 465.85 330.91 469.5 335.22 471.1 336.52 473.02 340.15 475.01 342.09 475.11 344.5 476.17 346.01 477.48 349.2 478.98 354.82 480.6 356 481.53 358.32 482.65 364.67 482.91 370.01 484.37 373.3 483.5 375.73 485.1 379.44 484.21 381.55 484.61 382.95 489.48 383.22 491.32 383.95 496.29 382.61 498.15 383.29 502.94 381.62 505.11 382.23 507.42 386.41 506.85 390.11 504.55 395.4 505.02 396.66 503.95 398.44 505.65 400.65 506.51 404.92 506.33 406.57 508.19 408.31 508.02 411.69 499.78 415.63 502.14 420.4 500.83 424.09 500.94 425.19 503.21 425.94 504.43 425.57 506.81 425.96 508.67 429.9 511.02 431.15 512.88 434.49 513.5 437.1 513.91 443.69 514.61 444.75 515.26 450.28 516.48 454.66 516.34 456.64 518.06 458.4 517.92 461.19 518.61 463.42 519.95 464.92 520.02 467.4 521.36 471.3 522.31 472.17 522.91 474.39 526.62 481.17 525.83 482.8 525.83 486.1 527.93 489.73 524.54 493.44 523.5 495.11 520.81 495.02 518.48 498.62 516.79 499.84 512.95 501.46 509.99 504.95 510.38 507.71 510.29 511.3 509.57 513.96 513.09 514.82 515.44 518.67 513.21 519.35 513.74 522.57 510.79 524.97 511.23 528.49 509.53 529.97 506.59 531.55 504.85 533.49 498.74 535.71 496.34 537.67 494.64 538.03 490.34 537 488.98 538.57 488.56 542.69 486.39 544.07 486.27 546.28 484.86 546.86 483.8 548.66 484.16 551.55 481.07 557.13 478.76 558.59 476.44 557.48 473.15 558.5 469.33 559.23 466.8 559.03 464.78 560.46 463.05 560.65 462.61 557.82 460.65 556.91 457.02 553.7 449.12 549.64 445.59 548.57 444.8 546.51 441.73 543.93 439.24 543.32 439.06 541.73 436.29 538.77 433.23 538.04 432.86 535.44 431.53 534.64 431.24 532.73 428.43 531.71 427.17 529.52 424.69 527.12 424.74 522.55 426.56 516.55 425.24 514.72 423.01 513.58 421.6 511.34 421.15 508.85 419.5 507.74 415.75 504.39 415.3 501.28 414.6 499.45 413.31 498.37 413.16 495.98 414.25 490.55 414.36 485.85 414.99 483.6 408.93 480.37 406.49 477.8 402.97 476.11 401.16 473.89 400.59 470.36 399.54 468.53 399.99 467.75 399.48 464.1 398.61 461.88 397.6 461.17 391.94 453.84 389.94 452.22 386.74 450.89 384.4 448.9 380.61 448.33 378.43 447.02 377.75 446.48 376.75 443.26 375.27 441.69 370.72 438.22 366.41 433.83 366.4 431.58 365.69 429.75 363.83 427.36 362.39 426.21 361.3 423.82 357.26 422.08 359.42 416.78 359.69 414.21 360.6 412.18 363.27 410.24 363.76 407.68 365.62 405.36 365.26 404.54 361.35 401.33 360.73 398.97 361.98 395.1 363.95 393.21 363.64 392.28 360.91 389.96 359.38 387.26 360.67 381.74 360.05 378.05 360.22 376.37 363.6 373.09 364.5 370.64 364.51 367.7 363.98 364.97 363.74 360.61 364.42 359.69 364.78 354.9 361.78 344.13 360.8 339.56 361.89 335.63 357.43 334.85 353.78 333.16 349.62 330.43 347.26 329.29 343.39 328.27 337.3 325.34 335.23 322.09 326.38 318.02 324.05 315.89 323.24 313.2 321.64 311.45 316.95 307.87 312.28 305.79 309.86 305.15 308.3 302.95 305.99 301.39 303.51 300.63 301.28 299.31 298.96 295.15 296.38 294.01 293.85 293.83 291.59 294.53 289.86 294.32 286.89 291.56 281.6 288.77 276.66 288.06 273.85 288.38 269.15 290.28 261.87 284.35 260.61 280.63 262.53 276.85 262.24 275.07 260.9 272.96 258.01 265.43 256.79 263.4 254.22 260.61 253.03 256.1 250.47 251.45 245.95 243.93 245.21 240.88 245.21 234.37 246.64 231.71 248.37 229.55 249.17 227.52 249 222.6 250.21 217.8 250.34 211.9 249.51 208.29 250.35 206.89 255.93 201.73 259.25 199.74 264.7 193.23 266.94 190.92 269.36 190 274.96 188.85 279.13 186.93 285.34 181.86 291.49 184.41 296.62 186.12 304.95 189.71 307.41 190.99 309.29 193.4 312.25 194.51 318.46 195.19 325.73 196.59 329.13 197.85 330.91 199.82 334.46 201.17 336.76 201.37 339.54 202.19 342.47 204.12 343.96 206.04 347.07 206.77 352.8 204.75 355.27 205.02 368.2 210.92 373.38 215.88 377.36 218.36 380.22 220.9 381.57 223.85 384.02 227.83 382.95 231.48 386.42 243.8 390.71 248.37 389.11 252.08 389.03 254.38 392.24 260.22 395.38 263.37 396.97 267.07 400.01 268.61 405.11 274.1 405.46 276.47 407.24 277.26 412.29 277.41 416.9 279.12 418.23 282.4 420.94 287.41 423.23 290.24 426.32 289.86 428.5 290.73 432.41 291.09 434.59 295.31 440.28 300.44 445.09 300.18 Z" id="38560410"/>
<path d="M 689.28 276.85 689.59 281.85 688.63 287.1 685.86 296.78 685.04 301.07 685.4 306.42 689.03 315.97 690.72 318.67 694.04 321.3 696.82 325.43 700 329.18 701.47 334.96 700.97 339.25 700.45 340.34 699.91 344.07 698.39 351.74 700.94 358.32 706.04 365.95 708.97 367.78 716.99 377.25 718.31 377.97 721.89 382.4 726.07 386.69 730.62 391.91 734.61 393.34 738.96 397.45 745.8 397.54 750.98 403.32 755.51 403.32 763.09 406.4 767.63 407.5 772.19 411.53 774.2 413.01 774.96 415.48 779.86 421.26 786.82 425.12 791.96 431.09 793.61 433.44 795.84 435.64 799 440.25 796.45 445.13 794.58 450.35 795.49 459.57 796.3 462.57 796.63 466.6 797.35 469.53 796.61 472.37 797.93 475.89 795.26 478.45 793.56 479.26 792.04 479.14 789.89 480.41 788.87 482.66 787.65 483.39 783.16 483.68 782.31 484.41 781.44 488.42 781.84 490.64 782.79 491.82 782.61 495.04 779.01 496.97 777.61 495.25 774.06 494.11 772.89 492.48 773.09 489.1 771.28 487.75 768.69 487.83 766.22 486.66 763.72 484.16 760.35 482.29 757.98 483.05 754.2 483.54 749.49 483.21 744.68 483.23 741.81 480.72 740.47 481.15 738.64 483.35 737.69 487.03 734.58 487.67 729.73 484.27 725.94 477.85 724.2 477.33 721.13 472.76 720.02 470.54 718.04 470.68 713.86 469.05 710.71 465.76 708.06 466.84 705.3 466.5 704.88 473.88 705.67 476.19 701.09 476.71 699.2 476.59 696.77 477.71 694.13 479.63 687.64 481.19 680.92 483.23 679.66 484.75 680.06 487.76 679.29 489.91 676.51 489.63 675.39 490.23 672.53 489.28 669.8 487.37 669.1 489.04 669.44 491.03 668.77 494.54 667.4 495.6 664.31 491.62 660.62 491.07 659.63 491.54 655.73 489.91 653.48 488.25 652.75 485.22 651.32 483.68 647.59 478.39 645.26 478.86 644.19 476.89 642.01 475.24 636.93 474.36 636.24 473.11 633.8 472.38 629.24 471.65 624.84 470.1 622.11 468.12 620.47 465.98 617.26 463.54 616.33 461.14 614.33 459.59 610.26 458.21 608.51 458.51 606.23 457.72 603.44 458.32 601.59 456.67 600.02 456.73 596.43 459.05 593.71 461.25 586.67 460.84 584.32 461.71 582.09 461.06 580.55 457.93 577.43 454.51 574.12 457.48 572.49 458.13 569.46 456.09 567.59 453.81 564.37 454.02 552.75 452.66 550.6 451.9 548.45 452.21 545.8 447.84 545.13 445.18 540.96 441.31 537.56 440.17 534.35 435.86 531.91 435.21 531.69 433.48 532.73 431.66 532.73 429.02 533.43 426.82 531.04 424.61 530.58 421.27 530.55 414.7 526.8 412.36 525.3 409.96 523.73 409.65 521.39 407.87 520.41 406.14 518.92 406.13 517.01 407.53 513.43 408.46 512.72 407.87 508.19 408.31 506.33 406.57 506.51 404.92 505.65 400.65 503.95 398.44 505.02 396.66 504.55 395.4 506.85 390.11 507.42 386.41 505.11 382.23 502.94 381.62 498.15 383.29 496.29 382.61 491.32 383.95 489.48 383.22 484.61 382.95 484.21 381.55 485.1 379.44 483.5 375.73 484.37 373.3 482.91 370.01 482.65 364.67 481.53 358.32 480.6 356 478.98 354.82 477.48 349.2 476.17 346.01 475.11 344.5 475.01 342.09 473.02 340.15 471.1 336.52 469.5 335.22 465.85 330.91 453.57 325.57 452.28 324.12 449.96 322.84 451.28 315.17 451.75 311.22 452.41 311.32 454.38 307.38 454.62 302.53 449.05 300.11 445.09 300.18 449.15 300.05 453.11 301.53 453.33 298.13 454.85 296.42 458.79 297 462.23 297.96 465.98 297.66 468.72 296.65 470.73 297.23 472.98 298.77 476.64 298.01 478.87 296.93 481.57 298.78 485.29 299.62 488.52 299.36 491.74 300.59 495.47 299.94 496.59 298.62 501.93 296.93 504.93 297.4 506.72 296.56 510.95 295.36 518.89 295.23 520.67 295.48 523.88 293.48 525.69 293.7 531.83 292.76 534.3 292.02 536.15 292.19 539.83 291.65 541.66 292.93 544.25 292.31 545.83 292.59 550.79 291.51 553.75 289.27 554.41 286.63 557.76 285.9 562.25 282.76 563.38 283.52 566.39 278.96 566.59 276.93 568.31 275 569.83 272.28 573.64 272.98 575.95 274.06 580.53 274.79 587.21 277.61 590.35 275.38 592.38 268.98 591.59 267.24 591.39 263.72 592.51 262.87 592.33 261.1 593.96 259.3 595.69 256.43 598.57 256.29 603.44 254.93 606.91 251.14 608.44 250.71 608.53 248.53 612.92 245.6 614.52 243.31 614.79 241.46 618.76 237.58 618.21 232.52 619.18 230.28 615.97 226.4 617.09 224.18 616.44 222.6 616.41 220.38 621.92 214.95 623.83 210.03 625.9 207.27 630.72 206.46 631.73 204.42 632.28 201.18 634.5 194.45 640.18 192 643.2 190.46 645.6 191.58 648.4 192.2 650.17 193.44 652.27 193.97 653.94 195.65 655.98 196.62 657.86 199.46 657.01 204.58 655.38 207.42 655.42 210.66 655.05 214.67 657.82 213.66 661.24 214.01 668.21 213.67 672.12 215.89 673.63 215.13 676.88 215.59 679.2 217.49 681.47 218.61 682.43 217.06 684.27 215.93 686.32 215.98 689.12 214.49 691.66 214.46 693.54 213.91 693.37 215.93 695.95 215.92 694.95 219.65 692.09 228.56 688.6 238.18 687.48 243.43 685.14 247.8 684.59 249.97 689.93 262.27 689.36 267.05 689.97 270.68 690.17 275.95 689.28 276.85 Z" id="38560420"/>
</g>
</svg>