<?xml version="1.0"?>
<svg xmlns="http://www.w3.org/2000/svg" version="1.2" baseProfile="tiny" width="800" height="818" viewBox="0 0 800 818" stroke-linecap="round" stroke-linejoin="round">
<g id="dong">
<path d="M 305.04 273.66 307.26 276.56 308.27 277.2 317.88 276.88 320.98 276.92 325.2 277.69 327.67 278.56 329.53 280.88 329.71 283.89 328.27 286.74 328.07 287.1 322.53 289.29 320.07 289.97 314.31 290.08 308.65 290.98 307.27 292.05 305.53 295.59 305.4 299.38 306.13 303.04 308.37 307.63 309.49 308.75 311.93 308.83 314.72 311.18 318.42 315.71 319.41 318.76 320.23 320.23 323.03 322.99 324.25 327.01 325.27 329.37 328.32 335.23 329.04 337.44 331.07 337.45 332.56 339.33 336.55 343.46 340.32 345.3 342.14 346.52 346.58 348.6 350.6 351.68 352.01 355.41 350.4 357.73 348.2 359.91 347.14 362.21 345.42 363.38 330.04 368.13 328.3 372.63 326.62 371.84 324.29 373.13 323.98 374.54 322.51 375.85 320.85 376.46 321.28 378.5 320.06 381.75 320.26 384.97 319.72 388.7 318.33 389.94 318.66 392.03 317.4 394.75 317.45 397.38 317.96 398.88 319.58 401.08 319.44 403.63 318.3 405.7 317.52 409.62 316.96 410.4 311.72 415.3 311.07 417.72 311.79 422.37 311.29 423.44 311.94 427.63 311.59 430.04 310.65 432.27 310.07 435.11 307.47 436.13 305.41 438.1 302.95 439.21 302.79 439.88 300.18 439.1 298.3 438.99 294.76 439.55 292.16 439.66 291.16 441.13 288.92 442.29 287.42 444.02 281.73 445.2 277.69 442.02 273.66 441.16 270.62 439.83 259.11 448.33 257.48 452.18 257.49 453.5 258.47 456.3 257.36 457.78 252.41 461.61 250.44 463.84 248.28 465 247.22 468.73 245.39 470.88 244.63 470.33 243.21 470.84 241.1 470.88 239.74 469.22 237.29 468.18 236.51 468.35 230.1 467 228.63 465.26 228.35 464.19 224.12 463.82 223.55 462.33 221.21 459.72 219.49 459.21 218.05 457.65 215.11 456.8 213.69 455.33 210.13 454.14 209 453.41 207.5 446.95 205.38 442.43 204.17 440.58 203.03 435.82 201.61 434.51 199.52 433.4 197.82 431.72 195.73 430.69 193.72 428.37 191.55 427.38 189.93 425.54 187.68 421.82 186.13 421.36 184.97 422.47 184.29 426.38 182.44 427.84 179.04 429.35 176.32 430.05 171.79 430.4 169.81 430.91 167.99 432.4 165 435.63 164.5 437.5 164.75 439.41 163.66 441.1 159.95 443.4 155.68 447.43 152.84 447.52 148.13 446.32 142.44 446.87 139.82 446.32 133.75 442.39 129.91 442.14 125.84 443.14 120.48 442.95 120.56 440.02 119.71 437.86 117.59 434.65 115.91 430.74 115.06 427.27 114.24 425.37 114.13 421.04 112.55 416.04 112.05 413.88 112.49 411.2 114.17 409.44 117.05 408.4 121.5 405.29 126.79 402.64 129.61 400.41 131.24 398.45 132.96 395.76 134.01 392.17 134.05 387.53 133.55 385.4 133.14 379.95 132.07 372.51 132.6 369.74 134.59 368.34 136.65 367.5 139.01 365.63 138.7 364.72 139.89 362.36 140.98 362.67 143.35 361.8 143.95 360.87 148.16 359.22 150.06 359.03 152.39 357.23 152.76 354.7 152.26 352.78 150.02 351.34 149.97 346.24 150.3 344.61 153.91 342.35 155.87 339.66 158.83 337.76 160.2 335.79 161.32 335.03 163.62 331.49 165.76 329.92 167.81 327.65 170.96 325.93 169.23 323.5 165.95 320.35 164.88 318.79 164.51 317.11 163.05 314.57 161.52 313.68 157.21 313.67 157.43 305.25 158.18 302.35 161.33 299.09 163.27 298.17 165.63 297.39 169.15 297.55 171.86 298.2 175.92 299.84 179.82 302.35 181.57 303.16 183.25 303.04 185.03 302.2 187.27 300.3 188.09 299.14 188.52 294.12 188.15 285.97 184.48 282.48 182.09 280.58 177.22 275.93 175.92 275.27 174.82 273.94 174.31 272.19 174.81 269.45 175.92 267.75 179.31 265.94 181.33 264.52 185.25 261.22 186.67 260.36 192.21 257.77 200.08 253 202.27 251.96 206.74 250.41 208.21 249.32 210.19 249.43 213.04 248.71 219.16 247.77 223.83 247.26 227.29 247.18 230.62 246.16 232.33 244.77 233.78 245.3 234.73 244.32 237.65 247.84 239.89 249.89 240.79 250.14 242.05 248.39 245.1 246.98 247.05 246.4 247.78 247.34 250.08 248.24 253.85 248 255.22 248.72 256.49 252.48 256.81 254.45 257.89 257.31 257.57 259.52 258.48 261.11 259.76 261.72 262.7 265.47 264.96 266.54 267.44 269.27 269.65 273.26 270.04 275.11 272.19 277.27 276.32 273.33 278.31 272.47 281.43 272.46 282.35 271.75 285.11 271 286.42 269.15 287.09 269.53 291.52 270.57 293.81 272.72 295.39 273.61 300.16 272.7 301.71 273.49 305.04 273.66 Z" id="38570340"/>
<path d="M 310.07 435.11 313.22 436.75 315.56 439.37 316.79 442.93 317.55 443.77 321.25 450.47 322.39 452.01 323.7 457.49 323.02 459.34 325.44 463.42 328.34 465.87 330.17 469.47 329.54 471.89 330.32 475.66 331.79 476.61 334.81 477.74 337.16 478.98 338.07 480.31 339.56 484.93 343.27 488.24 346.39 488.93 348.82 489.98 350.19 494.31 349.82 499.89 349.42 502.76 349.49 506.33 350.37 510.41 351.99 516.69 351.84 521.96 352.68 525.14 352.77 526.79 350.96 531.28 350.33 534.07 350.13 541.27 349.74 542.39 346.68 548.52 347 552.46 350.92 558.81 351.05 561.24 352.34 562.94 347.97 566.93 345.51 567.96 343.73 566.79 341.16 567.42 340.25 568.14 338.36 571.49 337.21 570.51 334.1 571.05 331.16 572.98 330.2 572.91 329 571.19 326.02 567.99 324.79 567.86 322.28 566.09 320.02 565.27 318.2 565.15 316.13 563.61 315.16 561.5 312.72 561.67 310.84 565.7 308.76 569.42 307.64 569.87 307.53 573.7 306.84 575.56 308.43 578.52 308.96 582.62 308.54 586.04 308.42 590.26 307.99 591.1 308.35 593.34 309.04 594.59 308.16 596.52 309.71 598.27 310.21 601.88 309.22 603.69 306.8 606.65 307.09 607.96 306.1 609.57 306.42 610.51 305.49 612.38 303.76 613.01 302.01 615.68 302.59 619.42 304.62 623.55 304.7 625.56 305.64 627.53 305.58 629.73 306.12 631.29 305.83 632.86 303.67 636.05 302.25 635.76 299.65 636.52 298.05 638.64 297.71 641.23 297.88 642.85 296.88 644.72 296.36 647.5 297.02 649.55 295.08 653.61 295.82 656.47 296.91 657.06 296.22 660.84 294.03 662.37 292.67 662.63 290.8 665.35 288.28 665.53 286.62 665.21 284.42 666.24 282.66 667.88 281.88 670.85 281 672.02 278.82 672.39 277.47 671.23 276.89 674.21 272.98 674.14 271.67 674.48 269.59 674.21 268.84 674.64 267.53 673.61 264.56 672.79 262.99 673.46 262.2 675.15 260.91 676.23 258.82 676.25 257.2 674.45 253.65 673.29 252.63 673.8 246.96 673.07 245.29 671.84 244.18 672.47 242.5 672.42 241.26 673.02 236.62 674.46 233.09 676.44 232.04 676.44 229.48 677.76 227.73 678.28 221.05 677.85 216.72 678.1 214.48 678.8 211.67 681.07 207.93 682.59 206.1 681.18 204.25 675.93 202.08 672.92 201.34 670.46 200.3 661.88 197.86 657.3 195.89 655.32 195.21 653.34 195.75 648.49 194.6 646.01 191.17 643.14 188.88 639.95 189.37 635.2 187.59 629.52 185.35 624.08 182.22 620.39 181.28 619.68 179.47 619.91 175.96 621.84 173.46 621.94 171.84 621.52 166.68 619.08 164.94 619.13 162.18 620.52 156.58 621.14 151.01 623.23 149.27 622.38 146.4 617.9 144.22 612.99 144.85 608.28 146.42 604.61 146.94 598.19 146.47 596.1 147.92 592.18 148.19 586.74 148.94 584.82 150.65 582.65 148.02 578.81 147.2 575.71 144.49 571.7 143.13 566.43 143.52 564.2 142.08 561.12 136.03 556.33 134.25 555.79 130.76 556.09 128.68 555.08 125.42 551.84 121.92 549.69 120.26 545.91 119.62 541.79 119.63 539.4 114.45 536.96 110.04 538.44 107.33 537.47 102.93 534.98 99.03 534.28 93.88 534.69 90.32 534.79 86.34 534.14 88.22 527.99 88.67 525.5 88.19 521.47 88.51 516.65 84.71 508.55 84.31 507.06 84.62 505.34 86.99 501.46 86.49 496.33 86.49 493.41 93.08 487.58 95.17 485.03 95.63 483.1 95.3 478.33 93.87 470.82 94.69 467.74 96.32 465.79 102.47 461.02 105.73 459.86 108.48 458.45 112.26 454.13 113.44 452.34 114.55 449.17 115.63 447 117.25 445 120.48 442.95 125.84 443.14 129.91 442.14 133.75 442.39 139.82 446.32 142.44 446.87 148.13 446.32 152.84 447.52 155.68 447.43 159.95 443.4 163.66 441.1 164.75 439.41 164.5 437.5 165 435.63 167.99 432.4 169.81 430.91 171.79 430.4 176.32 430.05 179.04 429.35 182.44 427.84 184.29 426.38 184.97 422.47 186.13 421.36 187.68 421.82 189.93 425.54 191.55 427.38 193.72 428.37 195.73 430.69 197.82 431.72 199.52 433.4 201.61 434.51 203.03 435.82 204.17 440.58 205.38 442.43 207.5 446.95 209 453.41 210.13 454.14 213.69 455.33 215.11 456.8 218.05 457.65 219.49 459.21 221.21 459.72 223.55 462.33 224.12 463.82 228.35 464.19 228.63 465.26 230.1 467 236.51 468.35 237.29 468.18 239.74 469.22 241.1 470.88 243.21 470.84 244.63 470.33 245.39 470.88 247.22 468.73 248.28 465 250.44 463.84 252.41 461.61 257.36 457.78 258.47 456.3 257.49 453.5 257.48 452.18 259.11 448.33 270.62 439.83 273.66 441.16 277.69 442.02 281.73 445.2 287.42 444.02 288.92 442.29 291.16 441.13 292.16 439.66 294.76 439.55 298.3 438.99 300.18 439.1 302.79 439.88 302.95 439.21 305.41 438.1 307.47 436.13 310.07 435.11 Z" id="38570350"/>
<path d="M 338.36 571.49 336.73 574.11 338.2 575.43 339.74 577.74 340.21 579.8 339.37 583.01 339.81 583.99 338.14 585.9 333.96 588.88 333.05 590.66 333.12 592.52 333.98 596.84 335.73 598.18 335.79 601.24 336.66 605.43 337.64 606.23 338.05 607.62 337.18 609.27 336.65 614.94 337.49 620.63 336.74 623.11 336.51 625.97 335.69 629 335.23 633.28 336.43 635.78 336.4 639.94 338.66 643.62 339.75 646.78 340.34 649.36 339.5 650.47 336.93 652.46 334.64 653.46 330.88 653.64 327.77 656.47 327.8 659.27 327.18 661.41 325.5 663.14 325.39 664.37 326.16 668.17 325.89 669.08 326.43 672.32 327.07 673.81 328.03 678.36 328.08 679.63 326.57 682.03 324.89 688.09 322.79 689.87 323.01 691.14 325.62 694.23 326.62 694.78 326.51 696.2 328.71 697.81 331.94 697.6 334.67 703.01 335.37 703.68 331.2 704.86 328.61 706.14 325.83 708.48 320.83 709.85 318.33 709.9 319.18 711.25 322.04 713.12 324.07 713.36 328.73 717.78 330.58 721.88 330.89 723.99 333.3 725.49 331.4 731.24 330.94 734.01 330.07 735.75 325.95 736.44 324.18 738.8 322.55 743.01 317.84 747.65 317.87 749.54 318.42 750.89 317.46 752.79 320.21 756.11 319.38 758.02 319.85 762.34 316.46 765.66 316.22 767.25 314.86 769.2 311.11 771.71 311.03 773.57 309.73 773.94 306.76 777.17 302.6 778.34 300.14 778.46 298.66 780.91 297.27 782.45 297.42 783.96 296.46 784.68 296.63 787.69 297.31 789.18 295.57 794.65 292.89 796.56 287.18 794.14 283.27 793.52 281.3 792.6 278.05 792 276.74 794.33 275.28 795.97 275.11 797.71 272.53 801.61 271.56 800.96 267.73 803.64 264.87 804.27 264.3 806.52 261.77 808.44 257.54 809.36 256.19 809.12 253.98 809.64 252.41 808.55 249.26 809.02 247.68 808.87 245.58 809.5 240.33 810.31 238.78 810.12 236.04 811.82 234.52 811.61 227.74 811.72 224.12 812.75 222.59 813.47 220.03 813.06 215.47 814.51 214.51 815.64 211.33 816.19 208.57 815.14 205.81 815.36 202.63 814.65 200.33 813.06 198.42 813.99 195.29 814.64 193.37 813.32 191.66 812.82 189.31 813.69 186.11 813.95 183.17 813.12 179.8 812.63 178.5 814.09 178.31 817 174.93 815.73 171.46 815.85 167.36 816.07 162.49 811.68 160.62 808.08 157.28 807.77 155.42 807.03 152.78 807.35 150.83 804.93 148.52 800.65 147.37 797.84 143.44 796.38 139.13 796.26 137.6 795.58 137.3 793.56 132.94 788.86 130.35 787.55 128.99 784.39 126.31 781.69 123.56 776.71 123.63 774.74 125 771.57 121.33 767.66 118.37 757.13 119.28 754.01 117.19 750.61 116.03 748.1 113.59 745.92 110.19 743.8 105.77 739.56 94.72 734.52 92.61 734.29 87.72 736.02 85.05 735.39 83.78 733.75 81.28 732.1 78.9 731.4 76.94 731.23 73.91 730.08 72.38 728.39 69.48 727.32 63.26 726.12 57.97 725.54 55.43 724.59 53.83 722.53 51.72 721.43 44.6 718.37 40.22 716.91 34.97 714.73 33.31 713.52 31.15 706 29.17 701.03 29.15 698.79 26.96 695.97 24.74 690.98 15.97 685.82 14.8 684.28 11.54 677 10.15 675.2 7.2 673.01 5.8 671.08 5.73 669.53 9.02 664.24 10.3 661.48 7.96 658.41 3.24 650.02 2.43 647.02 4.21 642.78 3.15 638.88 3.29 635.32 1.78 628.07 2.58 624.99 2.77 620.24 2.6 617.05 1 611.69 2.43 605.3 1.85 599.49 2.06 593.84 2.48 589.78 5.31 591.7 8.03 591.92 11.73 590.51 14.04 590.94 18.2 593.49 21.42 596.88 22.67 597.52 24.62 596.79 29.91 592.1 31.94 589.91 35.33 586.93 36.66 578.72 37.65 575.05 40 571.94 42.58 570.39 44.01 568.58 47.67 567.07 52.59 560.68 57.76 554.82 60.18 553.23 62.74 552.2 65.77 552.47 68.12 552.17 80.43 548.85 81.53 547.56 81.77 544.26 82.73 541.41 85.32 537.5 86.34 534.14 90.32 534.79 93.88 534.69 99.03 534.28 102.93 534.98 107.33 537.47 110.04 538.44 114.45 536.96 119.63 539.4 119.62 541.79 120.26 545.91 121.92 549.69 125.42 551.84 128.68 555.08 130.76 556.09 134.25 555.79 136.03 556.33 142.08 561.12 143.52 564.2 143.13 566.43 144.49 571.7 147.2 575.71 148.02 578.81 150.65 582.65 148.94 584.82 148.19 586.74 147.92 592.18 146.47 596.1 146.94 598.19 146.42 604.61 144.85 608.28 144.22 612.99 146.4 617.9 149.27 622.38 151.01 623.23 156.58 621.14 162.18 620.52 164.94 619.13 166.68 619.08 171.84 621.52 173.46 621.94 175.96 621.84 179.47 619.91 181.28 619.68 182.22 620.39 185.35 624.08 187.59 629.52 189.37 635.2 188.88 639.95 191.17 643.14 194.6 646.01 195.75 648.49 195.21 653.34 195.89 655.32 197.86 657.3 200.3 661.88 201.34 670.46 202.08 672.92 204.25 675.93 206.1 681.18 207.93 682.59 211.67 681.07 214.48 678.8 216.72 678.1 221.05 677.85 227.73 678.28 229.48 677.76 232.04 676.44 233.09 676.44 236.62 674.46 241.26 673.02 242.5 672.42 244.18 672.47 245.29 671.84 246.96 673.07 252.63 673.8 253.65 673.29 257.2 674.45 258.82 676.25 260.91 676.23 262.2 675.15 262.99 673.46 264.56 672.79 267.53 673.61 268.84 674.64 269.59 674.21 271.67 674.48 272.98 674.14 276.89 674.21 277.47 671.23 278.82 672.39 281 672.02 281.88 670.85 282.66 667.88 284.42 666.24 286.62 665.21 288.28 665.53 290.8 665.35 292.67 662.63 294.03 662.37 296.22 660.84 296.91 657.06 295.82 656.47 295.08 653.61 297.02 649.55 296.36 647.5 296.88 644.72 297.88 642.85 297.71 641.23 298.05 638.64 299.65 636.52 302.25 635.76 303.67 636.05 305.83 632.86 306.12 631.29 305.58 629.73 305.64 627.53 304.7 625.56 304.62 623.55 302.59 619.42 302.01 615.68 303.76 613.01 305.49 612.38 306.42 610.51 306.1 609.57 307.09 607.96 306.8 606.65 309.22 603.69 310.21 601.88 309.71 598.27 308.16 596.52 309.04 594.59 308.35 593.34 307.99 591.1 308.42 590.26 308.54 586.04 308.96 582.62 308.43 578.52 306.84 575.56 307.53 573.7 307.64 569.87 308.76 569.42 310.84 565.7 312.72 561.67 315.16 561.5 316.13 563.61 318.2 565.15 320.02 565.27 322.28 566.09 324.79 567.86 326.02 567.99 329 571.19 330.2 572.91 331.16 572.98 334.1 571.05 337.21 570.51 338.36 571.49 Z" id="38570360"/>
<path d="M 472.47 341.21 471.86 345.5 472.36 347.7 472.31 354.68 471.55 357.69 472.1 359.92 475.44 361.81 476.39 361.66 477.82 362.56 482.54 364.59 485.38 366.41 491 367.45 492.78 368.12 495.2 370.22 497.26 370.55 500.46 372.16 502.28 374.46 498.44 378.33 497.45 378.72 495.51 381 495.1 383.17 493.62 383.83 491.08 385.78 488.02 392.8 488.18 394.94 489.66 396.16 489.52 397.53 489.86 401.14 488.83 403.29 488.75 405.47 484.54 405.57 482.58 408.92 482.81 409.8 481.51 412.56 481.63 414.29 480.23 416.66 480.71 419.47 481.59 420.9 481.96 425.19 480.62 426.79 479.94 427.95 479.87 429.55 477.47 432.17 475.92 435.6 477.78 440.19 477.78 441.55 474.82 443.31 473.56 445.57 468.68 446.53 466.88 449.7 463.62 450.44 461.04 452.13 460.58 453.98 459.31 455.68 458.3 457.8 456.35 459.44 454.82 461.58 452.86 463.47 450.73 463.64 449.62 464.91 446.24 466.45 444.24 467.97 444.2 468.68 440.3 471.33 438.22 472.27 436.32 472.57 431.54 474.76 426.01 474.35 425.52 475.54 423.92 476.04 425.83 484.52 425.78 486.83 421.49 486.66 419.85 487.74 417.27 487.18 414.41 487.76 411.82 486.91 409.62 486.74 407.23 484.89 405.12 484.74 403.19 483.59 401.68 483.85 398.32 483.33 395.91 483.82 395.06 485.32 391.6 486.61 389.23 486.78 388.35 485.8 383.71 484.85 380.23 486.47 371.9 486.76 366.79 489.43 365.97 488.38 360.19 485.93 353.87 486.14 348.82 489.98 346.39 488.93 343.27 488.24 339.56 484.93 338.07 480.31 337.16 478.98 334.81 477.74 331.79 476.61 330.32 475.66 329.54 471.89 330.17 469.47 328.34 465.87 325.44 463.42 323.02 459.34 323.7 457.49 322.39 452.01 321.25 450.47 317.55 443.77 316.79 442.93 315.56 439.37 313.22 436.75 310.07 435.11 310.65 432.27 311.59 430.04 311.94 427.63 311.29 423.44 311.79 422.37 311.07 417.72 311.72 415.3 316.96 410.4 317.52 409.62 318.3 405.7 319.44 403.63 319.58 401.08 317.96 398.88 317.45 397.38 317.4 394.75 318.66 392.03 318.33 389.94 319.72 388.7 320.26 384.97 320.06 381.75 321.28 378.5 320.85 376.46 322.51 375.85 323.98 374.54 324.29 373.13 326.62 371.84 328.3 372.63 330.04 368.13 345.42 363.38 347.14 362.21 348.2 359.91 350.4 357.73 352.01 355.41 350.6 351.68 346.58 348.6 342.14 346.52 340.32 345.3 336.55 343.46 332.56 339.33 331.07 337.45 329.04 337.44 328.32 335.23 325.27 329.37 324.25 327.01 323.03 322.99 320.23 320.23 319.41 318.76 318.42 315.71 314.72 311.18 311.93 308.83 309.49 308.75 308.37 307.63 306.13 303.04 305.4 299.38 305.53 295.59 307.27 292.05 308.65 290.98 314.31 290.08 320.07 289.97 322.53 289.29 328.07 287.1 328.27 286.74 329.61 288.99 332.02 288.49 332.15 286.87 334.37 284.63 335.73 283.73 337.24 284.13 337.31 286.6 338.36 287.75 341.39 292.09 343.62 294.44 343.5 295.52 344.32 296.83 347.05 297.19 347.65 296.71 353.76 297.86 355.98 296.38 358.99 296.04 359.81 294.67 359.33 291.72 359.7 289.68 360.68 288.66 360.69 286.59 362.97 280.32 364.01 280.8 364.8 283.27 366.18 283.52 367.26 284.53 370.98 284.54 373.44 287.53 377.41 288.46 380.13 285.72 382.89 284.38 384.84 284.14 386.42 282.84 387.59 283.68 390.73 284.05 392.46 282.37 395.45 277.38 396.06 275.52 397.77 274 396.85 272.74 395.88 269.66 397.16 267.86 397.31 266.19 402.12 262.26 402.2 263.33 403.28 264.58 406.54 266.69 409.62 266.02 411.11 266.32 411.73 267.31 415.81 269.02 416.22 271.22 419.37 272.2 420.75 272.1 421.72 273.23 425.1 275.93 424.51 277.5 425.56 280.3 424.39 283.23 424.76 284.15 424.16 287.11 424.63 288.88 426.15 289.41 426.55 290.94 425.96 292.01 427.09 294.18 426.73 295.06 427.86 296.71 428.91 300.46 428.5 304.39 431.72 304.52 436.74 308.14 437.97 307.37 439.9 307.65 443.36 306.35 447.91 306.86 450.08 308.61 449.71 309.7 450.09 312.08 450.91 314.51 452.15 315.32 452.06 317.56 452.57 320.83 455.34 323.51 457.28 324.65 459.22 327.9 461.81 327.29 466.83 327.53 466.89 328.91 467.73 331.57 468.05 336.55 468.39 338.31 471.35 340.16 472.47 341.21 Z" id="38570110"/>
<path d="M 504.33 132.02 506.72 135.15 507.11 138.68 506.68 139.26 505.61 145.74 505.81 148.55 506.42 150.45 507.73 152.34 508.45 156.73 508.97 157.49 509.15 162.42 510.74 163.63 509.55 166.99 510.13 173.08 512.31 172.79 513.4 174.22 514.71 174.31 515.28 175.4 518.98 177.84 520.9 178.64 523 180.06 524.8 180.23 526.96 182.19 529.59 183.79 532.62 184.44 533.44 188.14 533.25 190.13 533.87 191.97 533.44 194.26 535.13 197.83 534.85 199.46 536.48 202.47 535.3 204.29 534.95 210.28 534.44 211.06 533.67 215.08 533.28 215.58 535.03 219.32 534.76 221.23 533.09 222.33 531.84 225.72 532.64 229.28 535.6 235.27 536.42 238.07 541.45 245.79 542.21 248.52 541.64 249.51 542.68 251.64 540.68 256.28 540.27 258.56 542.27 262.21 543.73 263.88 546.87 265.36 546.1 266.62 549.67 268.37 552.68 271.91 552.49 275 551.35 277.2 551.59 278.96 550.47 280.15 548.22 281.08 546.77 283.33 545.48 283.42 540.79 285.57 539.62 287.24 539.49 289.74 537.27 291.14 532.36 292.83 531.31 293.7 530.27 293.04 526.37 293.27 524.5 292.17 522.11 291.72 516.64 291.91 515.59 292.82 512.94 292.7 512.27 295.19 513 298.05 514.61 302.02 514.8 303.51 515.87 305.93 517.41 306.64 518.24 308.73 519.21 309.38 519.74 312.03 520.65 313.6 520.46 315 521.33 316.9 521.9 319.34 524.03 321.57 524.5 323.38 526.15 325.74 525.65 327.55 522.72 329.2 520.87 329.38 519.29 331.9 518.86 334.89 517.08 336.33 517.8 338.21 517.25 339.36 513.13 339.61 509.47 337.72 506.2 338.01 505.28 338.66 503.24 338.04 499.92 339.03 494.58 338.83 491.06 340.61 488.81 340.8 485.35 339.52 483.49 339.17 478.95 335.78 476.57 336.44 473.49 340.6 472.47 341.21 471.35 340.16 468.39 338.31 468.05 336.55 467.73 331.57 466.89 328.91 466.83 327.53 461.81 327.29 459.22 327.9 457.28 324.65 455.34 323.51 452.57 320.83 452.06 317.56 452.15 315.32 450.91 314.51 450.09 312.08 449.71 309.7 450.08 308.61 447.91 306.86 443.36 306.35 439.9 307.65 437.97 307.37 436.74 308.14 431.72 304.52 428.5 304.39 428.91 300.46 427.86 296.71 426.73 295.06 427.09 294.18 425.96 292.01 426.55 290.94 426.15 289.41 424.63 288.88 424.16 287.11 424.76 284.15 424.39 283.23 425.56 280.3 424.51 277.5 425.1 275.93 421.72 273.23 420.75 272.1 419.37 272.2 416.22 271.22 415.81 269.02 411.73 267.31 411.11 266.32 409.62 266.02 406.54 266.69 403.28 264.58 402.2 263.33 402.12 262.26 402.52 258.6 401.19 255.42 400.91 253.98 402.16 252.14 401.25 250.86 401.03 248.37 401.72 246.24 401.2 244.96 403.07 242.3 405.73 240.58 408.16 239.7 408.5 238.36 407.76 236.46 406.57 235.27 407.2 232.28 408.26 231.29 408.15 229.65 411.35 224.65 408.87 222.12 409.1 218.44 407.88 217.38 405.97 216.71 404.48 211.83 405.83 209.77 405.58 208.75 406.33 207.44 408.81 205.88 408.54 203.84 409.63 202.46 411.73 201.11 414.06 200.66 414.01 197.31 418.66 197.3 419.86 196.41 424.03 196.71 425.08 197.54 427.56 195.9 429.05 193.37 430.94 193.49 431.68 190.05 434.07 188.45 433.45 187.25 434.15 186.47 434.07 184.26 435.03 184.14 436.94 180.35 437.07 177.72 437.85 175.99 436.64 174.92 435 174.55 435.08 172.92 437.4 171.44 437.31 168.79 437.9 168 437.55 164.75 436.58 160.27 437.6 158.24 437.6 156.35 438.43 154.53 438.4 153.31 439.56 152.09 439.24 151.18 439.92 146.95 439.5 145.5 440.31 144.26 440.79 140.1 440.49 138.67 442.42 137.47 444.12 138.48 445.79 137.24 448.53 137.13 451.62 137.75 452.84 138.46 454.92 137.24 457.47 138.07 459.09 139.87 461.11 139.01 463.39 139.91 465.92 140.12 467 140.69 470 140.59 473.02 137.23 473.76 134.86 475.49 134.3 477.5 130.97 479.73 129.37 483.2 128.83 484.38 128.11 486.14 128.51 487.7 129.52 490.25 128.57 491.72 129.33 495.69 129.67 496.5 130.89 498.95 132.34 504.33 132.02 Z" id="38570310"/>
<path d="M 440.49 138.67 440.79 140.1 440.31 144.26 439.5 145.5 439.92 146.95 439.24 151.18 439.56 152.09 438.4 153.31 438.43 154.53 437.6 156.35 437.6 158.24 436.58 160.27 437.55 164.75 437.9 168 437.31 168.79 437.4 171.44 435.08 172.92 435 174.55 436.64 174.92 437.85 175.99 437.07 177.72 436.94 180.35 435.03 184.14 434.07 184.26 434.15 186.47 433.45 187.25 434.07 188.45 431.68 190.05 430.94 193.49 429.05 193.37 427.56 195.9 425.08 197.54 424.03 196.71 419.86 196.41 418.66 197.3 414.01 197.31 414.06 200.66 411.73 201.11 409.63 202.46 408.54 203.84 408.81 205.88 406.33 207.44 405.58 208.75 405.83 209.77 404.48 211.83 405.97 216.71 407.88 217.38 409.1 218.44 408.87 222.12 411.35 224.65 408.15 229.65 408.26 231.29 407.2 232.28 406.57 235.27 407.76 236.46 408.5 238.36 408.16 239.7 405.73 240.58 403.07 242.3 401.2 244.96 401.72 246.24 401.03 248.37 401.25 250.86 402.16 252.14 400.91 253.98 401.19 255.42 402.52 258.6 402.12 262.26 397.31 266.19 397.16 267.86 395.88 269.66 396.85 272.74 397.77 274 396.06 275.52 395.45 277.38 392.46 282.37 390.73 284.05 387.59 283.68 386.42 282.84 384.84 284.14 382.89 284.38 380.13 285.72 377.41 288.46 373.44 287.53 370.98 284.54 367.26 284.53 366.18 283.52 364.8 283.27 364.01 280.8 362.97 280.32 360.69 286.59 360.68 288.66 359.7 289.68 359.33 291.72 359.81 294.67 358.99 296.04 355.98 296.38 353.76 297.86 347.65 296.71 347.05 297.19 344.32 296.83 343.5 295.52 343.62 294.44 341.39 292.09 338.36 287.75 337.31 286.6 337.24 284.13 335.73 283.73 334.37 284.63 332.15 286.87 332.02 288.49 329.61 288.99 328.27 286.74 329.71 283.89 329.53 280.88 327.67 278.56 325.2 277.69 320.98 276.92 317.88 276.88 308.27 277.2 307.26 276.56 305.04 273.66 306.45 270.74 313.83 265.64 317.97 261.87 319.82 258.94 319.83 255.27 323.97 256.24 325.74 255.47 326.02 254.69 328.72 254.21 329.63 254.95 331.87 252.03 334.22 247.72 333.96 244.04 334.26 241.69 332.93 240.27 332.95 238.08 331.08 235.67 330.03 233.17 329.98 231.59 330.77 228.37 329.52 225.23 328.17 223.94 327.26 219.36 326.58 218.22 326.96 216.8 330.03 214.46 332.32 213.19 335.24 209.71 337.94 207.78 339.66 207.66 342.8 209.07 344.36 206.82 344.74 203.15 345.39 201.61 344.05 199.72 343.45 196.35 343.61 193.09 345.43 193.79 347.78 191.61 350.96 190.31 348.91 185.93 349.07 182.3 349.82 177 348.57 175.84 347.98 174.33 346.83 173.29 346.34 170.58 346.8 169.56 349.43 168.27 348.76 161.92 349.2 159.2 348.04 155.57 349.7 153.29 351.19 149.3 352.3 147.99 351.91 146.02 353 142.69 352.04 141.4 352.25 139.86 348.95 138.62 347.83 137.32 347.34 134.49 347.8 131.96 349.01 128.5 347.25 126.83 346.72 125.45 347.07 123.41 348.13 120.57 349.52 118.55 350.51 116.13 349.69 114.41 350.59 112.83 352.65 111.12 355.08 112.61 357.07 113.04 360.2 110.07 362.13 106.56 365.92 104.25 367.67 104.31 369.63 102.81 373.56 103.96 378.49 104.66 379.99 104.55 381.53 105.52 383.51 104.23 386.24 101.09 387.46 100.33 389.16 97.62 391.53 96.17 395.28 94.43 396.34 94.39 398.32 96 400.57 96.46 401.98 97.78 402.24 98.86 403.68 98.79 405.17 99.72 406.32 102.36 408.4 103.77 408.78 105.76 408.33 107.19 409.13 108.63 411.01 109.12 412.64 111.08 415.91 112.5 417.55 115.54 421.08 115.51 424.34 116.47 425.16 115.82 428 116.46 430.42 118.76 432.63 119.85 432.82 122.22 432.44 124.88 431.07 126.36 430.26 128.33 431.61 131.12 433.94 133.48 437.96 134.84 438.45 136.42 440.49 138.67 Z" id="38570320"/>
<path d="M 337.56 2.44 338.38 5.36 337.75 8.59 338.56 11.79 339.94 12.9 340.57 14.94 341.97 15.87 342.99 18.24 345.1 21.33 345.06 25.43 343.52 27.26 341.48 30.53 341.27 32.25 339.16 34.83 335.07 39.03 335.22 40.2 336.74 40.85 336.08 42.51 336.53 46.08 337.13 48.28 338.47 49.2 338.64 51.63 339.6 52.38 340.48 54.36 340.19 55.57 343.81 56.67 348.89 58.48 350.36 59.54 349.96 62.92 348.6 67.45 348.76 69.83 347.93 71 349.15 74.91 348.21 77.3 346.65 79.44 347.28 80.77 347.46 83.25 345.2 87.12 349.5 91.34 351.07 93.5 350.71 93.94 351.35 98.59 356.59 102.59 355.75 103.54 354.21 106.45 352.65 111.12 350.59 112.83 349.69 114.41 350.51 116.13 349.52 118.55 348.13 120.57 347.07 123.41 346.72 125.45 347.25 126.83 349.01 128.5 347.8 131.96 347.34 134.49 347.83 137.32 348.95 138.62 352.25 139.86 352.04 141.4 353 142.69 351.91 146.02 352.3 147.99 351.19 149.3 349.7 153.29 348.04 155.57 349.2 159.2 348.76 161.92 349.43 168.27 346.8 169.56 346.34 170.58 346.83 173.29 347.98 174.33 348.57 175.84 349.82 177 349.07 182.3 348.91 185.93 350.96 190.31 347.78 191.61 345.43 193.79 343.61 193.09 343.45 196.35 344.05 199.72 345.39 201.61 344.74 203.15 344.36 206.82 342.8 209.07 339.66 207.66 337.94 207.78 335.24 209.71 332.32 213.19 330.03 214.46 326.96 216.8 326.58 218.22 327.26 219.36 328.17 223.94 329.52 225.23 330.77 228.37 329.98 231.59 330.03 233.17 331.08 235.67 332.95 238.08 332.93 240.27 334.26 241.69 333.96 244.04 334.22 247.72 331.87 252.03 329.63 254.95 328.72 254.21 326.02 254.69 325.74 255.47 323.97 256.24 319.83 255.27 319.82 258.94 317.97 261.87 313.83 265.64 306.45 270.74 305.04 273.66 301.71 273.49 300.16 272.7 295.39 273.61 293.81 272.72 291.52 270.57 287.09 269.53 286.42 269.15 285.11 271 282.35 271.75 281.43 272.46 278.31 272.47 276.32 273.33 272.19 277.27 270.04 275.11 269.65 273.26 267.44 269.27 264.96 266.54 262.7 265.47 259.76 261.72 258.48 261.11 257.57 259.52 257.89 257.31 256.81 254.45 256.49 252.48 255.22 248.72 253.85 248 250.08 248.24 247.78 247.34 247.05 246.4 245.1 246.98 242.05 248.39 240.79 250.14 239.89 249.89 237.65 247.84 234.73 244.32 233.78 245.3 232.33 244.77 233.72 242.88 234.53 240.48 233.72 238.37 231.05 234.75 228.52 232.25 222.78 227.08 221.67 225.63 223.32 220.04 225.03 215.05 219.72 211.89 217.17 208.58 217.18 199.99 218.53 195.77 221.76 197 223.02 196.43 225.99 196.11 227.28 195.5 229.3 197.02 232.45 197.55 234.35 196.45 237.52 196.9 238.01 194.75 239.33 193.85 239.46 192.46 241.23 189.58 243.31 187.47 245.13 184.49 245.31 179.55 245.96 178.23 249.44 176.12 249.73 171.74 248.98 170.68 249.5 165.91 249.01 164.47 248.69 161.26 249.57 160.32 248.42 156.71 246.01 156.5 244.56 153.41 245.94 150.25 245.4 148.29 245.37 146.09 247.88 142.91 249.94 139.75 250.08 137.5 247.47 133.69 246.17 132.28 244.69 132.68 243.15 132.23 241.87 130.69 238.66 127.94 238.6 126.46 236.33 126.18 237.09 123.27 238.2 121.21 237.92 117.54 239.74 116.27 240.52 114.69 242.31 115.46 243.87 115.2 245.15 114.08 245.72 112.52 247.25 112.61 248.93 111.81 249.72 110.56 251.66 108.98 253.35 106.21 254.77 102.99 256.4 102.11 257.37 98.65 258.11 98.38 260.73 95.13 260.81 94.17 262.57 91.31 265.14 88.65 265.86 84.43 266.97 83.11 268.2 82.99 270.97 80.24 271.22 79.38 272.79 78.32 273.31 77.26 275.06 76.48 275.66 74.89 278.19 73.85 280.57 71.28 281.44 70.77 282.76 68.5 282.87 66.37 283.53 62.65 284.65 62.22 286.47 60.36 287.37 57.08 288.9 55.83 289.27 53.81 290.57 52.24 292.22 51.3 292.66 47 294.49 45.01 294.96 42.78 297.47 41.48 298.98 41.23 301.27 39.39 303.28 36.85 303.72 34.93 302.87 33.88 304.22 31.47 305.11 28.39 306.09 27.08 306.17 24.99 308.47 22.21 309.16 20.79 309.34 18.91 310.75 16.61 312.22 16.7 314.89 15.42 315.91 14.06 314.54 12.77 317.46 11.11 320.11 5.27 323.24 1.89 325.47 1 328.61 3.5 331.47 4.01 334.29 3.68 336.45 2.16 337.56 2.44 Z" id="38570330"/>
<path d="M 425.78 486.83 427.93 491.48 429.25 499.7 431.19 503.3 434.68 506.17 438.19 507.93 445.84 509.62 455.55 518.16 463.63 524.38 467.04 531.89 468.92 537.26 470.49 543.62 472.04 549.05 473.9 557.25 473.74 557.75 473.76 565.2 478.95 575.28 481.3 579.23 484.17 581.91 490.79 587.71 491.28 588.33 496.48 591.03 500.76 592.31 504.72 592.69 515 592.89 525.28 598.39 529.04 602.55 529.4 606.61 526.95 614.83 525.28 623.06 522.14 626.39 522 632.3 522.19 636.54 525.17 639.45 527.21 638.71 529.53 639.13 533.3 642.68 535.84 644.39 538.34 647.19 539.91 646.22 541.8 647.37 543.19 649.12 545.98 649 547.34 649.86 550.15 649.97 551.07 651.48 553.08 652.08 554.8 653.1 557.33 656.36 557.73 657.63 559.29 658.86 557.38 663.9 557.73 665.78 556.19 667.95 555.62 670.39 556.58 671.9 556.72 675.5 558.96 679.58 559.42 681.1 559.09 684.45 557.98 685.47 558.18 686.73 557.75 689.07 554.96 691.34 555.06 692.82 554.04 695.39 553.19 696.21 551.77 695.71 547.71 696.87 546.47 695.72 544.02 696.2 543.04 697.29 541.22 696.47 535.73 697.51 534.94 699.83 535.39 701.42 534.66 703.17 534.88 706.1 534.14 707.27 535.12 712.13 534.83 715.75 535.2 716.29 534.29 719.11 534.59 721.86 533.7 722.54 533.08 725.49 533.09 727.29 533.82 728.85 533.3 729.7 532.96 732.18 533.29 733.36 532.71 737.46 533.57 740.53 532.16 743.03 530.03 740.3 529.01 740.23 527.71 746.43 524.47 750.49 523.6 751.25 521.89 751.59 519.23 752.77 514.99 753.24 506.26 756.24 504.73 756.52 502.1 758.37 498.37 760.45 492.48 762.53 487.58 762.65 486.41 759.31 484.71 756.7 482.73 754.78 480.69 754.23 479.4 754.56 478.33 753.38 476.63 750.16 475.64 749.3 471.33 748.21 471.21 746.97 469.74 744.98 467.03 746.02 462.35 743.03 459.25 742.41 454.17 743.26 452.27 743.23 448.2 744.46 446.41 745.45 443.73 745.47 442.16 743.56 441.99 740.91 441.42 738.68 439.67 739.19 437.69 738.81 436.06 739.69 434.75 741.48 434.32 744.84 434.62 746.33 432.94 746.64 431.5 748.07 429.79 748.27 429.35 750.48 428.47 750.89 427.27 754.52 426.26 755.56 423.27 757.1 424.12 759.69 422.96 761.17 421.19 765.42 419.99 766.46 420.51 768.73 419.62 769.82 421.22 772.71 420.28 775.74 420.73 777.87 419.88 779.13 419.84 780.83 418.72 783.57 419.04 787.52 418.38 790.07 419.22 791.01 419.03 792.79 419.6 795.61 418.44 796.67 417.91 800.44 416.76 803.57 414.67 804.9 412.7 804.43 411.5 805.87 409.58 806.91 406.6 805.9 402.95 803.46 402.04 800.91 399.45 799.5 398.16 798.07 397.72 796.01 395.64 795.8 394.07 796.41 392.16 797.96 389.51 799.23 388.05 798.66 386.3 799.77 384.83 799.25 383.79 796.74 382.78 799.1 381.69 799.43 380.11 795.91 380.87 795.13 380.69 790.64 380.17 787.53 380.66 783.44 376.1 772.93 376.57 771.08 378.57 767.34 379.52 762.86 382.5 754.64 384.95 747.03 385.8 743.84 383.6 743.84 383.74 742.12 382.14 742.59 379.97 742.61 377.58 743.88 375.82 743.85 374.25 744.81 373.43 746.13 371.49 745.17 369.51 743.55 366.73 743.16 365.44 743.81 362.1 741.91 356.15 742.2 353.22 741.9 350.85 742.76 351.17 739.34 351.14 736.57 352.53 734.14 353.26 729.76 351.65 727.35 349.91 726.51 348.48 725.08 346.69 724.63 345.17 723.56 342.79 723.03 340.73 722.08 338.16 723.39 333.3 725.49 330.89 723.99 330.58 721.88 328.73 717.78 324.07 713.36 322.04 713.12 319.18 711.25 318.33 709.9 320.83 709.85 325.83 708.48 328.61 706.14 331.2 704.86 335.37 703.68 334.67 703.01 331.94 697.6 328.71 697.81 326.51 696.2 326.62 694.78 325.62 694.23 323.01 691.14 322.79 689.87 324.89 688.09 326.57 682.03 328.08 679.63 328.03 678.36 327.07 673.81 326.43 672.32 325.89 669.08 326.16 668.17 325.39 664.37 325.5 663.14 327.18 661.41 327.8 659.27 327.77 656.47 330.88 653.64 334.64 653.46 336.93 652.46 339.5 650.47 340.34 649.36 339.75 646.78 338.66 643.62 336.4 639.94 336.43 635.78 335.23 633.28 335.69 629 336.51 625.97 336.74 623.11 337.49 620.63 336.65 614.94 337.18 609.27 338.05 607.62 337.64 606.23 336.66 605.43 335.79 601.24 335.73 598.18 333.98 596.84 333.12 592.52 333.05 590.66 333.96 588.88 338.14 585.9 339.81 583.99 339.37 583.01 340.21 579.8 339.74 577.74 338.2 575.43 336.73 574.11 338.36 571.49 340.25 568.14 341.16 567.42 343.73 566.79 345.51 567.96 347.97 566.93 352.34 562.94 351.05 561.24 350.92 558.81 347 552.46 346.68 548.52 349.74 542.39 350.13 541.27 350.33 534.07 350.96 531.28 352.77 526.79 352.68 525.14 351.84 521.96 351.99 516.69 350.37 510.41 349.49 506.33 349.42 502.76 349.82 499.89 350.19 494.31 348.82 489.98 353.87 486.14 360.19 485.93 365.97 488.38 366.79 489.43 371.9 486.76 380.23 486.47 383.71 484.85 388.35 485.8 389.23 486.78 391.6 486.61 395.06 485.32 395.91 483.82 398.32 483.33 401.68 483.85 403.19 483.59 405.12 484.74 407.23 484.89 409.62 486.74 411.82 486.91 414.41 487.76 417.27 487.18 419.85 487.74 421.49 486.66 425.78 486.83 Z" id="38570370"/>
<path d="M 638.55 464.68 638.8 465.73 637.58 469.91 636.37 471.33 635.83 473.74 636.17 474.43 635.61 479.61 634.58 480.42 633.9 482.13 633.7 486.07 632.13 486.16 629.41 489 627.51 491.79 625.45 492.5 624.3 492.38 621.44 494.85 618.62 499.36 616.04 500.68 613.66 504.87 613.8 506.22 613.15 509.19 612.39 509.69 613.97 514.42 612.37 515.63 611.8 518.12 612.54 521.57 609.89 525.41 609.57 526.86 607.62 528.63 608.6 531.14 608.74 534.09 607.44 536.72 611.23 538.99 608.69 541.09 607.9 544.49 608.57 546.78 608.65 550.04 606.51 557.27 605.3 559.19 602.63 562.29 599.32 566.92 600.33 567.19 601.7 566.45 603.44 566.3 607.97 569.82 608.06 571.34 609.68 573.58 610.18 576.28 612.01 578.4 613.73 579.25 615.62 578.91 618.5 576.54 622.01 575.1 622.81 573.88 624.97 573.3 628.04 575.06 631.46 575.79 634.09 577.4 634.69 578.24 638.65 580.4 640.14 583.24 639.9 587.08 642.97 588.38 645.43 590.45 646.87 592.74 646.71 594.18 647.39 597.19 648.36 598.66 648.89 601.01 648.91 604.09 649.36 608.46 648.85 610.27 646.9 611.32 644.24 611.28 640.84 613.19 638.95 613.19 633.13 615.45 630.99 615.42 630.12 616.31 624.35 616.93 623.16 618.03 621.87 618.09 621.09 619.77 620.13 620.4 619.66 621.98 616.42 621.16 614.59 621.85 612.82 621.25 611.69 623.81 610.05 626.65 609.61 629.26 606.77 631.62 604.3 631.68 603.05 632.54 600.46 632.97 598.82 632.71 597 633.34 595.68 634.44 594.07 638.39 592.74 644.32 592.05 644.68 589.91 648.45 587.52 650.63 585.13 650.41 583.86 650.91 583.42 652.84 581.07 654.85 579.43 657.39 577.34 658.75 577.33 661.76 575.87 662.5 573.71 661.46 572.56 661.79 569.26 660.37 565.28 659.89 562.56 660.67 559.29 658.86 557.73 657.63 557.33 656.36 554.8 653.1 553.08 652.08 551.07 651.48 550.15 649.97 547.34 649.86 545.98 649 543.19 649.12 541.8 647.37 539.91 646.22 538.34 647.19 535.84 644.39 533.3 642.68 529.53 639.13 527.21 638.71 525.17 639.45 522.19 636.54 522 632.3 522.14 626.39 525.28 623.06 526.95 614.83 529.4 606.61 529.04 602.55 525.28 598.39 515 592.89 504.72 592.69 500.76 592.31 496.48 591.03 491.28 588.33 490.79 587.71 484.17 581.91 481.3 579.23 478.95 575.28 473.76 565.2 473.74 557.75 473.9 557.25 472.04 549.05 470.49 543.62 468.92 537.26 467.04 531.89 463.63 524.38 455.55 518.16 445.84 509.62 438.19 507.93 434.68 506.17 431.19 503.3 429.25 499.7 427.93 491.48 425.78 486.83 425.83 484.52 423.92 476.04 425.52 475.54 426.01 474.35 431.54 474.76 436.32 472.57 438.22 472.27 440.3 471.33 444.2 468.68 444.24 467.97 446.24 466.45 449.62 464.91 450.73 463.64 452.86 463.47 454.82 461.58 456.35 459.44 458.3 457.8 459.31 455.68 460.58 453.98 461.04 452.13 463.62 450.44 466.88 449.7 468.68 446.53 473.56 445.57 474.82 443.31 477.78 441.55 477.78 440.19 475.92 435.6 477.47 432.17 479.87 429.55 479.94 427.95 480.62 426.79 482.13 426.84 486.01 428.7 487.35 428.38 490.21 428.76 493.14 427.75 495.38 428 498.66 427.44 498.69 426.61 501.19 426.59 502.22 427.12 504.65 424.56 506.51 424.02 507.66 422.63 509.54 423.27 513 421.75 515.49 421.08 518.54 422.12 519.43 423.48 521.46 424.72 524.17 425.9 525.13 425.9 527.32 427.46 526.76 429.13 526.88 430.93 528.28 432.83 528.87 434.75 529.71 435.44 530.31 437.82 532.59 440.91 534.73 439.97 536.28 440.76 537.06 444.35 538.31 443.61 540.05 444.71 541.53 444.44 543.92 446.36 548.32 450.49 551.12 451.09 554.27 450.75 556.87 447.99 557.78 447.74 559.89 445.13 561.58 443.86 561.48 442.8 562.75 440.71 564.55 439.43 566.91 439.64 569.29 437.89 570.57 438.02 573.45 436.46 574.61 436.56 578.06 437.9 581.05 437.4 583.42 438.47 586.21 439.19 586.96 440.05 586.81 441.44 589.1 443.53 591.54 443.79 592.6 445.13 594.43 443.14 596.92 447.52 596.45 449.8 597.38 452.34 598.93 452.36 599.65 453.94 604.42 456.01 606.53 456.27 607.44 457.03 609.14 455.68 612.77 456.51 614.18 457.28 617.6 460.37 619.95 462.9 621.53 463.91 624.09 460.86 626.33 460.28 628.59 460.56 632.21 461.64 632.5 462.67 635.24 464.08 638.55 464.68 Z" id="38570380"/>
<path d="M 737.26 468.17 738.22 470 740.72 470.58 743.19 472.12 743.33 473.55 745.11 475.26 746.37 477.1 747.62 475.97 749.04 475.63 750.69 476.09 751.99 475.63 755.16 476.6 757.11 477.87 758.66 476.95 761.18 476.47 763.18 474.3 765.18 473.48 767.24 473.53 769.4 474.59 774.06 473.41 773.62 474.61 773.54 478 772.79 480.26 771.53 481.73 769.83 486.09 767.56 486.32 764.6 487.1 763.35 488.62 761.26 490.25 761.82 492.5 761.06 493.98 761.31 495.97 765.1 497.85 766.73 499.45 766.49 500.72 768.01 502.19 768.41 504.63 766.67 506.29 763.11 510.9 760.26 512.62 758.86 514.81 755.41 516.61 760.01 522.61 759.44 524.38 760.78 526.54 763.22 527.64 763.95 529.39 763.68 531.77 765.61 531.65 769.19 533.41 771.9 532.45 776.01 532.68 777.82 536.46 782.43 538.26 783.28 539.89 786.16 540.29 788.1 539.52 790.02 540.09 791.37 542.61 791.8 544.42 793.88 544.68 795.51 545.4 797.08 546.75 798.98 550.42 799 551.42 797.7 553.28 798.18 555.27 796.03 555.11 793.64 554.14 792.64 555.09 791.64 554.89 789.56 556.41 788.65 556.42 787.07 557.63 784.47 553.99 782.76 554.3 782.26 552.63 779.91 552.39 776.4 550.57 775.77 547.9 774.53 545.92 773.63 546.76 770.62 546.65 768.76 547.15 765.79 546.82 763.85 547.11 757.35 546.17 756.08 544.89 754.59 544.82 751.85 545.43 747.83 544.48 743.2 544.71 742.95 543.49 740.92 543.43 738.77 544.91 736.44 544.6 734.05 542.56 729.59 544.12 728.16 543.95 726.48 544.67 725.08 544.66 722.57 545.38 723.43 548.47 722.22 550.23 720.16 551.73 718.85 552.06 715.92 551.91 715.26 552.54 712.56 553.33 709.37 553.35 707.67 551.47 705.57 551.05 702.86 551.78 700.48 551.07 693.26 550.93 692.52 554.14 691.68 555.14 691.06 557.77 689.31 562.81 687.63 565.54 685.92 567.39 684.25 569.91 682.68 571.67 681.32 574.25 679.17 579.81 679.35 585.07 679.66 588.26 681.27 596.18 682.02 598.68 677.85 604.11 676.63 605.45 676.77 606.9 675.05 609.48 672.7 609.85 671.13 611.03 669.09 613.82 667.98 614.18 665.53 617 663.38 618.66 661.83 619.07 660.19 618.54 656.74 615.63 652.14 613.31 650.7 612.33 648.85 610.27 649.36 608.46 648.91 604.09 648.89 601.01 648.36 598.66 647.39 597.19 646.71 594.18 646.87 592.74 645.43 590.45 642.97 588.38 639.9 587.08 640.14 583.24 638.65 580.4 634.69 578.24 634.09 577.4 631.46 575.79 628.04 575.06 624.97 573.3 622.81 573.88 622.01 575.1 618.5 576.54 615.62 578.91 613.73 579.25 612.01 578.4 610.18 576.28 609.68 573.58 608.06 571.34 607.97 569.82 603.44 566.3 601.7 566.45 600.33 567.19 599.32 566.92 602.63 562.29 605.3 559.19 606.51 557.27 608.65 550.04 608.57 546.78 607.9 544.49 608.69 541.09 611.23 538.99 607.44 536.72 608.74 534.09 608.6 531.14 607.62 528.63 609.57 526.86 609.89 525.41 612.54 521.57 611.8 518.12 612.37 515.63 613.97 514.42 612.39 509.69 613.15 509.19 613.8 506.22 613.66 504.87 616.04 500.68 618.62 499.36 621.44 494.85 624.3 492.38 625.45 492.5 627.51 491.79 629.41 489 632.13 486.16 633.7 486.07 633.9 482.13 634.58 480.42 635.61 479.61 636.17 474.43 635.83 473.74 636.37 471.33 637.58 469.91 638.8 465.73 638.55 464.68 639.1 463.16 640.49 462.41 641.75 458.36 644.97 457.63 646.22 456.93 647.61 457.63 649.4 457.64 652.02 459.48 652.61 460.29 654.02 459.92 655.81 460.55 657.92 462.63 658.67 466.52 662.66 466.39 664.23 465.4 665.88 466.11 669.91 467.05 672.75 468.54 673.95 468.22 674.9 466.57 673.99 464.78 675.9 461.83 675.9 458.9 676.53 458.36 676.75 455.63 674.87 450.35 675.94 448.89 677.78 448.8 679.34 446.26 680.04 445.8 680.5 443.85 679.54 441.19 679.79 440.51 682.62 439.63 685.5 435.9 685.53 434.83 687 433.33 689.07 430.14 690.02 429.56 691.79 429.66 693.49 430.46 693.87 428.65 690.86 425.02 690.26 421.42 692.14 420.17 693.82 417.91 696.56 416.7 697.35 415.35 698.99 414.43 701.5 413.96 702.2 412.1 701.97 410.89 704.56 408.47 705.94 407.63 707.87 409.83 708.68 409.9 713.94 413.75 714.71 414.92 716.73 416.23 716.65 417.59 717.27 419.68 717.1 422.58 718.61 424.3 723.7 424.19 728.3 422.95 733.09 423.84 734.86 426.85 736.49 427.13 737.52 427.94 737.32 430.85 738.48 433.51 741.77 437.37 743.65 438.27 745.63 440.67 748.62 441.08 749.38 442.63 748.55 444.33 747.65 448.46 745.46 451.07 744.92 455.04 743.6 456.7 741.34 458.72 739.5 458.92 737.43 461.39 734.74 462.87 732.77 466.72 733.09 467.25 735.66 467.52 737.26 468.17 Z" id="38570390"/>
<path d="M 546.77 283.33 549.07 283.79 552.82 283.51 555.5 284.4 556.19 288.14 556.86 289.39 556.9 291.16 556.14 295.37 556.74 297.3 561.55 300.62 564.38 303.43 565.52 305.77 566.82 307.51 566.35 308.56 567.29 309.4 571.23 311.83 573.1 312.32 573.78 315.04 573.41 316.26 574.76 317.91 575.83 318.24 576.96 317.16 581.21 318.43 584.68 313.87 586.17 314.09 588.62 315.49 591.4 317.9 592.19 317.33 594.76 317.68 596.93 319.58 596.94 321.13 597.64 322.91 596.63 326.27 596.67 328.29 598.9 330.52 598.61 332.82 599.15 335.02 601.44 337.76 603.37 340.56 604.67 339.64 608.69 340.39 609.63 341.92 612.35 341.01 616.67 342.79 618.27 341.1 620.38 340.53 622.55 340.89 624.77 339.93 626.75 341.85 626.58 344.11 625.75 345.21 626.61 346.97 628.24 348.73 629.97 352.1 631.97 352.54 632.66 353.61 633.55 357.16 634.66 357.46 636.49 359.58 640.19 362.78 642.04 362.42 643.84 362.87 646.63 364.11 646.89 362.89 648.93 363.54 654.82 360.57 655.59 358.93 657.02 357.2 659.34 355.65 660.24 356.85 663.42 358.71 664.91 361.82 666.3 363.67 668 362.87 670.78 362.57 672.72 360.31 675.09 359.67 677.96 359.9 679.21 358.47 680.78 359.09 683.54 362.24 683.44 363.76 684.49 366.15 686.45 368.86 686.99 371.1 686.95 373.47 690.13 377.37 690.7 382.07 692.44 384.58 692.08 385.56 692.64 387.14 693.89 386.95 694.76 387.72 697.33 388.68 698.68 388.7 700.05 391.44 701.92 391.34 705.49 394.04 705.46 395.46 704.64 396.57 704 399.26 704 401.16 703.39 402.06 704.56 404.26 706.21 406.04 705.94 407.63 704.56 408.47 701.97 410.89 702.2 412.1 701.5 413.96 698.99 414.43 697.35 415.35 696.56 416.7 693.82 417.91 692.14 420.17 690.26 421.42 690.86 425.02 693.87 428.65 693.49 430.46 691.79 429.66 690.02 429.56 689.07 430.14 687 433.33 685.53 434.83 685.5 435.9 682.62 439.63 679.79 440.51 679.54 441.19 680.5 443.85 680.04 445.8 679.34 446.26 677.78 448.8 675.94 448.89 674.87 450.35 676.75 455.63 676.53 458.36 675.9 458.9 675.9 461.83 673.99 464.78 674.9 466.57 673.95 468.22 672.75 468.54 669.91 467.05 665.88 466.11 664.23 465.4 662.66 466.39 658.67 466.52 657.92 462.63 655.81 460.55 654.02 459.92 652.61 460.29 652.02 459.48 649.4 457.64 647.61 457.63 646.22 456.93 644.97 457.63 641.75 458.36 640.49 462.41 639.1 463.16 638.55 464.68 635.24 464.08 632.5 462.67 632.21 461.64 628.59 460.56 626.33 460.28 624.09 460.86 621.53 463.91 619.95 462.9 617.6 460.37 614.18 457.28 612.77 456.51 609.14 455.68 607.44 457.03 606.53 456.27 604.42 456.01 599.65 453.94 598.93 452.36 597.38 452.34 596.45 449.8 596.92 447.52 594.43 443.14 592.6 445.13 591.54 443.79 589.1 443.53 586.81 441.44 586.96 440.05 586.21 439.19 583.42 438.47 581.05 437.4 578.06 437.9 574.61 436.56 573.45 436.46 570.57 438.02 569.29 437.89 566.91 439.64 564.55 439.43 562.75 440.71 561.48 442.8 561.58 443.86 559.89 445.13 557.78 447.74 556.87 447.99 554.27 450.75 551.12 451.09 548.32 450.49 543.92 446.36 541.53 444.44 540.05 444.71 538.31 443.61 537.06 444.35 536.28 440.76 534.73 439.97 532.59 440.91 530.31 437.82 529.71 435.44 528.87 434.75 528.28 432.83 526.88 430.93 526.76 429.13 527.32 427.46 525.13 425.9 524.17 425.9 521.46 424.72 519.43 423.48 518.54 422.12 515.49 421.08 513 421.75 509.54 423.27 507.66 422.63 506.51 424.02 504.65 424.56 502.22 427.12 501.19 426.59 498.69 426.61 498.66 427.44 495.38 428 493.14 427.75 490.21 428.76 487.35 428.38 486.01 428.7 482.13 426.84 480.62 426.79 481.96 425.19 481.59 420.9 480.71 419.47 480.23 416.66 481.63 414.29 481.51 412.56 482.81 409.8 482.58 408.92 484.54 405.57 488.75 405.47 488.83 403.29 489.86 401.14 489.52 397.53 489.66 396.16 488.18 394.94 488.02 392.8 491.08 385.78 493.62 383.83 495.1 383.17 495.51 381 497.45 378.72 498.44 378.33 502.28 374.46 500.46 372.16 497.26 370.55 495.2 370.22 492.78 368.12 491 367.45 485.38 366.41 482.54 364.59 477.82 362.56 476.39 361.66 475.44 361.81 472.1 359.92 471.55 357.69 472.31 354.68 472.36 347.7 471.86 345.5 472.47 341.21 473.49 340.6 476.57 336.44 478.95 335.78 483.49 339.17 485.35 339.52 488.81 340.8 491.06 340.61 494.58 338.83 499.92 339.03 503.24 338.04 505.28 338.66 506.2 338.01 509.47 337.72 513.13 339.61 517.25 339.36 517.8 338.21 517.08 336.33 518.86 334.89 519.29 331.9 520.87 329.38 522.72 329.2 525.65 327.55 526.15 325.74 524.5 323.38 524.03 321.57 521.9 319.34 521.33 316.9 520.46 315 520.65 313.6 519.74 312.03 519.21 309.38 518.24 308.73 517.41 306.64 515.87 305.93 514.8 303.51 514.61 302.02 513 298.05 512.27 295.19 512.94 292.7 515.59 292.82 516.64 291.91 522.11 291.72 524.5 292.17 526.37 293.27 530.27 293.04 531.31 293.7 532.36 292.83 537.27 291.14 539.49 289.74 539.62 287.24 540.79 285.57 545.48 283.42 546.77 283.33 Z" id="38570400"/>
</g>
</svg>