<?xml version="1.0"?>
<svg xmlns="http://www.w3.org/2000/svg" version="1.2" baseProfile="tiny" width="800" height="930" viewBox="0 0 800 930" stroke-linecap="round" stroke-linejoin="round">
<g id="dong">
<path d="M 503.08 549.85 503.06 555.89 503.82 557.6 505.04 565.44 505.74 567.75 506.26 572.12 508.22 577.67 509.32 585.29 509.31 590.14 510.54 597.8 511.63 601.21 513.75 604.77 519.25 611.45 521.58 614.79 523.23 616.11 526 619.35 529.26 620.01 531.25 620.92 535.79 629.16 536.38 631.9 537.45 641.31 538.89 646.84 542.13 651.1 545.4 653.78 546.89 654.17 549.48 654.1 552.99 653.14 556.5 651.73 558.41 650.58 563.24 645.89 564.99 643.83 567.81 641.54 571.07 638.17 575.65 634.94 579.18 635.22 582.94 637.62 584.13 639.68 584.71 643.42 586.32 648.45 587.59 650.15 590.05 650.55 592.71 649.6 595.29 649.79 597.57 650.68 601.14 653.16 604.78 656.43 608.77 659.62 614.37 661.19 618.29 660.56 620.79 659.53 621.62 661.21 617.64 666.53 612.76 671.09 612.02 671.99 612.09 674.62 613.1 675.98 612.72 677.09 613.98 678.34 613.59 683.19 615.67 687.93 615.51 690.61 616.75 692.07 615.59 694.21 615.8 694.86 620.11 700.81 616.21 701.07 614.77 700.23 613.63 700.56 612.79 701.95 610.71 703.02 609.12 702.45 607.89 702.98 603.26 702.96 602.69 702.21 598.85 703.85 595.43 704.57 594.67 704.35 593.09 705.99 588.49 706.29 587.26 705.62 585.11 705.98 584.21 705.06 582.74 704.88 579.18 705.97 575.3 707.46 573.66 708.81 570.78 713.47 568.97 713.36 566.74 712.41 559.47 715.74 558.41 716.73 558.31 719.41 556.71 719.59 551.35 716.67 547.6 715.65 545.57 715.79 543.11 714.69 542.82 713 541.05 712.63 538.75 713.61 537.41 713.22 535.25 711.49 532.3 712.11 527.49 711.12 524.86 709.27 523.63 707.81 520.66 705.58 519.23 703.4 518.26 704.89 515.11 706.16 513.8 706.1 511.66 710.85 507.6 714.16 503.11 716.94 502.14 718.44 501.13 721.6 498.57 723.93 496.61 728.04 492.29 729.16 490.74 730.69 488.91 731.4 487.7 732.64 487.04 734.81 485.96 736.69 483.07 736.71 480.9 738.49 478.15 738.87 476.16 739.99 475.66 742.27 473.83 745.75 471.84 746.84 471.54 748.57 472.31 750.61 470.74 750.89 463.36 751.17 462.28 751.69 459.87 748.54 459.16 747.04 455.84 742.6 455.7 739.35 456.08 737.62 455.35 733.29 454.48 731.05 455.46 727.79 454.69 724.16 453.56 723.69 453.1 722.36 453.39 719.86 450.3 713.95 448.99 709.86 447.67 708.45 446.69 708.29 442.65 709.6 440.87 709.54 439.61 710.78 439.23 712.56 437.68 713.65 432.93 715.38 431.81 716.39 429.97 719.69 427.46 720.63 426.97 722.54 425.79 723.11 425 724.69 424.12 728.4 421.78 730.7 419.09 732.02 417.32 734.94 415.74 736.14 412.02 740.24 411.91 741.15 408.87 743.71 407.98 745.58 406.92 745.8 403.85 748.37 402.29 751.15 399.73 752.87 399.03 754.12 397.56 755.25 396.63 757.44 394.7 759.52 396.46 760.36 396.36 762.07 396.85 764.85 395.43 767.02 394.67 767.22 393.28 769.07 393.34 771.97 391.85 773.18 390.84 775.45 389.53 776.79 387.24 777.83 385.47 780.38 384.43 781.15 382.07 781.35 380.84 783.01 377.19 784.65 376.15 783.9 371.48 786.65 370.33 786.36 368.12 787.93 365.2 788.27 362.26 787.75 359.02 785.17 356.73 786.09 353.5 789.56 350.77 795.58 347.76 797.29 349.17 798.62 348.13 800.02 345.38 801.33 343.86 801.24 342.57 799.7 343.42 797.84 340.93 795.07 340.98 792.48 338.51 789.01 335.08 785.67 334.23 785.23 333.5 783.17 332.26 781.45 328.62 782.07 325.58 781.59 320.92 782.57 318.12 781.37 315.93 781.69 314.67 781.19 310 781.72 304.95 784.2 303.51 783.08 303.42 779.03 304.26 778.13 304.14 776.7 305.49 774.84 304.64 772.68 302.88 769.41 305.5 768.43 305.92 765.76 308.36 765.59 311.04 763.39 315.33 761.14 316.55 759.85 319.43 759.05 319.5 756.96 319.01 756.21 319.63 754.27 319.39 751.34 320.85 749.56 321.72 749.25 323.86 746.02 325.39 744.95 325.77 742.3 328.92 741.5 330.91 739.94 332.36 739.87 334.07 738.58 337.42 738.6 338.98 736.75 339.71 733.63 341.97 732.63 342.36 730.64 343.47 729.31 345.44 729 346.84 726.47 346.22 724.13 346.93 722.68 347.1 720.8 349.39 720.76 353.38 717.11 355.37 713.37 356.82 712.38 358.11 709.64 355.82 707.45 355.45 705.09 356.12 702.96 356.92 701.99 361.53 697.74 363.86 694.35 365.34 694.32 365.34 691.91 366.48 689.17 366.18 686.43 367.8 685.93 369.31 683.94 371.04 680.01 371.53 679.56 372.22 675.69 372.13 672.77 369.49 671.26 367.9 668.99 368.09 667.76 369.77 665.25 369.65 662.69 370.26 660.7 369.47 658.53 371.92 657.78 372.09 656.36 370.41 653.68 369.99 650.84 370.23 648.88 371.44 648.59 372.61 647.38 375.25 647.01 375.82 645.15 377.35 642.66 377.51 641.7 379.55 639.51 380.34 637.55 382.3 636.39 383.06 638.13 384.81 638.85 388.21 638.58 389.37 639.89 391.54 639.13 393.94 640.47 396.61 640.87 397.82 639.38 400.64 641.13 404.41 641.79 406.39 640.34 406.9 638.79 406 637.58 405.91 635.24 406.31 633.82 405.02 631.96 404.91 630.64 406.39 629.42 408 626.78 409.03 627.46 409.94 625.87 411.48 624.42 411.23 623.03 410.05 621.44 410.19 620.18 411.95 617.63 412.13 614.94 412.8 612.72 412.07 609.45 413.33 606.51 413.66 604.57 420.14 605.12 420.93 603.49 423.46 601.99 425.55 601.5 429.04 601.57 432.96 599.35 435.3 598.35 436.5 600.66 438.03 599.55 439.48 599.37 441.14 600.02 443.53 598.82 443.75 597.36 446.12 597.58 446.83 596.17 449.54 596.47 449.68 594.54 451.05 594.2 451.31 592.79 453.07 591.66 453.85 589.76 455.52 588.66 455.32 586.33 457.74 584.27 460.91 584.17 462.84 581.97 464.14 581.5 465.64 579.57 468.54 579.09 471.96 579.47 477.77 578.45 481.37 577.58 480.64 575.32 481.37 573.57 482.89 574.07 485.09 572.55 486.81 572.21 488.5 571.07 487.25 569.95 487.24 567.12 488.85 565.81 487.48 563.04 490.33 562.27 491.71 564.01 493.05 564.22 493.94 561.92 494.18 559.85 495.29 559.62 496.22 557.25 495.43 554.77 494.16 552.48 494.2 551.06 493.21 549.08 490.78 547.03 492.01 546.61 493.83 547.02 497.93 545.95 501.21 548.22 503.08 549.85 Z" id="38590370"/>
<path d="M 550.29 418.58 550.53 420.13 552.16 423.06 554.06 424.43 557.09 427.77 557.09 429.34 559 430.81 560.36 430.98 561.55 432.59 564.37 434.5 566.22 434.04 567 435.01 569.06 434.25 569.98 436.72 571.9 438.91 571.24 440.34 571.59 443.33 573.83 446.82 573.13 447.82 573.37 449.24 574.73 449.71 573.41 451.34 572.17 453.74 570.89 454.71 571.17 456.85 572.85 459.92 574.72 461.37 576.55 464.17 576.43 466.36 578.21 467.29 580.37 471.34 578.32 471.33 576 473.77 576.72 475.05 575.55 477.4 574.06 479.11 575.79 479.93 575.49 483 573.79 483.58 574.09 486 574.75 487.65 574.46 489.19 572.28 490.62 572.78 492.4 574.84 495.1 580.18 495.59 582.61 497.02 583.77 501.35 584.65 502.79 586.33 503.3 587.87 505.24 590.06 506.78 593.26 506.28 595.51 507.01 597.69 509.16 597.51 512.23 596.55 515.88 598.04 519.34 602.26 522.01 603.57 523.18 603.78 525.59 605.75 527.8 608.04 528.28 609.1 529.29 611.08 530.01 613.96 532.06 614.69 533.07 617.86 534.5 618.89 536.05 623.2 537.19 624.62 536.54 626.42 536.63 629 538.94 631.01 542.62 633.27 545.16 634.29 545.13 636.27 548.13 638.95 549.64 640.9 551.13 641.27 552.74 643.73 553.8 643.91 555.85 641.85 556.53 641.29 559 640.13 560.61 640.04 565.19 640.92 566.48 641.07 568.28 644.67 569.82 644.7 571.24 642.17 575.05 640.59 576.17 636.48 577.2 633.97 578.96 630.13 582.37 629.03 585.51 630.76 586.35 632.78 586.36 637.03 584.16 639.87 583.79 643.14 584.93 644.48 586.3 645.61 588.39 646.32 592.04 651.83 592.41 652.55 593.91 655.85 596.65 656.63 596.63 657.7 602.67 657.02 603.56 656.12 606.39 656.19 610.48 655.46 611.27 654.85 613.64 654.92 615.29 652.36 617.87 652.47 619.77 651.39 622.13 652.08 622.87 651.51 624.45 648.36 626.3 647.18 626.16 643.59 628.97 642.94 629.91 641.11 629.65 638.5 632.01 634.95 632.73 634.09 634.72 632.18 635.17 630.37 637.38 628.39 637.71 627.95 638.82 625.36 637.74 625.27 639.21 624.32 643.28 621.33 643.68 619.17 646.67 617.31 650.26 617.17 652.41 619.47 656.47 620.79 659.53 618.29 660.56 614.37 661.19 608.77 659.62 604.78 656.43 601.14 653.16 597.57 650.68 595.29 649.79 592.71 649.6 590.05 650.55 587.59 650.15 586.32 648.45 584.71 643.42 584.13 639.68 582.94 637.62 579.18 635.22 575.65 634.94 571.07 638.17 567.81 641.54 564.99 643.83 563.24 645.89 558.41 650.58 556.5 651.73 552.99 653.14 549.48 654.1 546.89 654.17 545.4 653.78 542.13 651.1 538.89 646.84 537.45 641.31 536.38 631.9 535.79 629.16 531.25 620.92 529.26 620.01 526 619.35 523.23 616.11 521.58 614.79 519.25 611.45 513.75 604.77 511.63 601.21 510.54 597.8 509.31 590.14 509.32 585.29 508.22 577.67 506.26 572.12 505.74 567.75 505.04 565.44 503.82 557.6 503.06 555.89 503.08 549.85 502.49 541.49 502.54 538.96 501.33 536.23 500.92 533.83 500.81 530.52 498.39 529.11 497.07 527.2 497.85 526.17 499.73 525.13 502.16 522.2 505.11 522.31 505.92 520.69 505.19 516.79 503.49 514.02 503.5 510.08 504.11 507.68 504.06 505.52 501.7 503.7 500.01 503.14 497.37 501.36 496.24 499.14 497.5 497.23 497.37 495.62 498.1 493.49 502.49 494.38 504.73 491.38 504.07 486.43 504.19 483.17 504.89 478.28 503.33 474.56 501.89 472.09 505.08 469.17 508.71 467.7 511.46 462.93 512.11 460.94 514.42 460.15 517.22 457.06 520.47 457 522.51 456.26 527.27 452.53 527.84 449.01 527.49 448.36 528.58 443.28 530.42 441.04 531.2 436.87 530.42 428.87 531.97 428.08 530.97 422.84 532.45 420.53 534.55 419.57 536.38 417.55 538.93 417.28 543.26 415.69 545.11 415.53 545.08 417.05 546.03 417.62 547.87 417.41 550.29 418.58 Z" id="38590380"/>
<path d="M 588.49 706.29 588.62 708.95 587.1 713.69 586.87 718.52 586.09 719.57 585.59 722.14 585.73 724.81 587.37 729.95 589.61 731.55 589.8 733.55 590.67 735.56 593.15 736.52 593.98 738.17 593.12 740.46 594.03 744.62 593.87 747.21 592.86 751.2 591.83 753.9 590.52 755.84 590.5 759.01 589.54 762.1 586.69 763.57 587.17 766.65 585.37 768.52 585.08 770.13 583.21 772.07 582.21 773.97 581.78 778.15 581.19 779.96 581.31 783.17 580.47 784.74 580.46 786.05 579.59 788.6 580.43 790.75 580.55 792.35 581.4 793.14 581.6 796.81 582.93 799.31 583.27 801.58 582.92 804.83 583.34 807.57 581.03 809.54 580.06 810.86 576.27 810.71 574.68 809.86 570.91 808.89 570.14 810.46 571.39 812.67 570.55 814.22 571.78 817.05 571.17 818.57 570.44 825.82 568.16 827.78 567.71 829 565.84 831.02 563.05 831.69 561.89 832.91 559.93 832.83 557.71 831.21 554.78 832.27 553.31 833.3 552.83 835.42 550.76 837.89 549.36 837.83 546.45 839.99 545.66 841.66 543.91 843.19 542.91 843.01 539.93 844.4 536.89 843.72 534.15 845.18 534.67 848.51 533.42 852.22 533.55 853.14 532.27 855.35 532.47 856.96 531.56 858.08 532.22 862.01 531.84 863.27 532.16 867.07 532.97 868.75 531.71 871.23 532.38 873.22 532.01 876.1 530.93 878.68 531.01 880.49 530.52 882.63 531.98 885.96 533.19 886.64 531.09 892.47 531.8 894.07 532.67 894.21 534.1 897.1 535.3 896.88 537.47 899.94 539.44 898.91 541.07 899.85 542.11 902.93 543.72 903.83 545.02 905.37 544.92 906.58 545.95 907.41 544.47 909.23 544.02 911.62 543.29 920.08 537.75 920.4 535.22 918.91 534.39 917.65 530.29 917.3 528.78 916.52 526.16 917.49 524.55 916.46 522.73 916.05 521.52 916.79 517.95 917.34 515.65 918.99 513.57 922.42 511.79 923 511.04 925.43 507.92 928.89 504.83 929 503.72 928.41 501.11 928.19 498.76 927.27 496.69 928.15 495.01 926.3 492.39 925.45 490.25 926.7 488.99 925.97 485.8 925.34 482.98 925.44 481.26 926.72 479.51 925.69 477.52 926.92 475.42 924.6 474.91 922.98 470.77 921.57 468.37 919.14 466.98 916.27 467.81 914.25 469.23 912.72 469.61 909.98 469.42 907.54 467.15 906.42 464.65 904.05 461.72 903.39 460.88 904.06 457.52 903.07 453.89 903.1 452.2 899.97 448.83 898.51 447.15 896.5 445.21 895.98 444.39 894.5 444.85 893.03 444.46 890.98 442.32 889.53 441.14 886.82 439.6 885.85 438.11 885.93 437.85 884.82 436.39 883.46 434.08 882.98 432.04 881.32 430.95 881.37 427.08 883.16 424.64 884.65 422.89 887.44 421.63 888.22 418.82 891.46 416.78 892.79 415.19 891.79 413.65 891.9 408.57 891.17 404.52 889.99 402.5 891.54 400.69 891.48 396.79 893.86 394.81 897.47 391.58 900.53 389.53 900.08 387.03 898.55 388.63 893.74 390.22 890.75 391.08 889.77 385.69 885.65 385.03 880.87 385.4 880.41 383.78 878.18 379.35 873.85 381.68 869.86 381.49 867.3 380.84 865.93 382.45 863.73 383.42 861.27 382.16 857.24 383.02 856.04 382.86 853.59 384.26 848.92 384.66 845.44 383.15 844.35 377.92 842.49 374.19 841.35 374.49 840.11 373.58 838.07 372.59 837.3 372.41 834.8 371.04 833.85 370.42 831.58 369.96 827.91 370.64 826.2 369.07 825.53 368.91 824.33 373.12 820 375.31 817.35 375.51 815.57 377.62 812.21 379.2 810.32 379.25 806.11 377.07 802.92 376.02 800.48 374.58 799.52 373.93 797.42 372.51 796.28 371.68 792.99 372.32 789.65 371.48 786.65 376.15 783.9 377.19 784.65 380.84 783.01 382.07 781.35 384.43 781.15 385.47 780.38 387.24 777.83 389.53 776.79 390.84 775.45 391.85 773.18 393.34 771.97 393.28 769.07 394.67 767.22 395.43 767.02 396.85 764.85 396.36 762.07 396.46 760.36 394.7 759.52 396.63 757.44 397.56 755.25 399.03 754.12 399.73 752.87 402.29 751.15 403.85 748.37 406.92 745.8 407.98 745.58 408.87 743.71 411.91 741.15 412.02 740.24 415.74 736.14 417.32 734.94 419.09 732.02 421.78 730.7 424.12 728.4 425 724.69 425.79 723.11 426.97 722.54 427.46 720.63 429.97 719.69 431.81 716.39 432.93 715.38 437.68 713.65 439.23 712.56 439.61 710.78 440.87 709.54 442.65 709.6 446.69 708.29 447.67 708.45 448.99 709.86 450.3 713.95 453.39 719.86 453.1 722.36 453.56 723.69 454.69 724.16 455.46 727.79 454.48 731.05 455.35 733.29 456.08 737.62 455.7 739.35 455.84 742.6 459.16 747.04 459.87 748.54 462.28 751.69 463.36 751.17 470.74 750.89 472.31 750.61 471.54 748.57 471.84 746.84 473.83 745.75 475.66 742.27 476.16 739.99 478.15 738.87 480.9 738.49 483.07 736.71 485.96 736.69 487.04 734.81 487.7 732.64 488.91 731.4 490.74 730.69 492.29 729.16 496.61 728.04 498.57 723.93 501.13 721.6 502.14 718.44 503.11 716.94 507.6 714.16 511.66 710.85 513.8 706.1 515.11 706.16 518.26 704.89 519.23 703.4 520.66 705.58 523.63 707.81 524.86 709.27 527.49 711.12 532.3 712.11 535.25 711.49 537.41 713.22 538.75 713.61 541.05 712.63 542.82 713 543.11 714.69 545.57 715.79 547.6 715.65 551.35 716.67 556.71 719.59 558.31 719.41 558.41 716.73 559.47 715.74 566.74 712.41 568.97 713.36 570.78 713.47 573.66 708.81 575.3 707.46 579.18 705.97 582.74 704.88 584.21 705.06 585.11 705.98 587.26 705.62 588.49 706.29 Z" id="38590390"/>
<path d="M 799 511.68 796.88 514.88 796.57 517.3 795.6 520.61 794.7 526.58 785.65 525.71 783.49 524.68 779.63 525.07 775.03 526.59 772.57 528.24 771.04 529.75 767.65 531.81 766.04 533.48 765.66 536.99 763.64 543.61 761.96 546.04 761.13 551.54 757.79 553.43 755.11 554.56 752.98 551.5 751.24 547.94 750.98 545.62 749.3 543.5 749.51 540.79 748.09 537.16 746.88 535.3 746.79 533.29 743.73 531.33 739.68 533.76 738.34 534.05 735.65 533.58 732.27 533.89 730.69 534.68 729.05 536.51 726.15 537.01 722.03 537.26 718.16 539.04 716.71 540.32 713.26 541.61 713.16 544.29 711.09 546.91 708.75 549.29 706.99 550.36 704.19 550.81 701.7 550.2 702.36 552.57 703.32 553.77 703.05 554.88 706.37 560.12 703.88 563 702.89 565.01 703.82 568.18 702.7 570.82 702.25 572.96 703.2 574.11 703.51 576.76 701.89 582.28 700.38 583.74 698.28 583.13 694.42 585.11 693.9 586.7 692.74 588.25 690.36 588.46 686.61 592.19 683.18 592.5 679.57 593.42 675.95 594.93 673.94 597.92 668.72 599.69 664.71 602.6 662.73 602.03 660.88 602.65 657.7 602.67 656.63 596.63 655.85 596.65 652.55 593.91 651.83 592.41 646.32 592.04 645.61 588.39 644.48 586.3 643.14 584.93 639.87 583.79 637.03 584.16 632.78 586.36 630.76 586.35 629.03 585.51 630.13 582.37 633.97 578.96 636.48 577.2 640.59 576.17 642.17 575.05 644.7 571.24 644.67 569.82 641.07 568.28 640.92 566.48 640.04 565.19 640.13 560.61 641.29 559 641.85 556.53 643.91 555.85 643.73 553.8 641.27 552.74 640.9 551.13 638.95 549.64 636.27 548.13 634.29 545.13 633.27 545.16 631.01 542.62 629 538.94 626.42 536.63 624.62 536.54 623.2 537.19 618.89 536.05 617.86 534.5 614.69 533.07 613.96 532.06 611.08 530.01 609.1 529.29 608.04 528.28 605.75 527.8 603.78 525.59 603.57 523.18 602.26 522.01 598.04 519.34 596.55 515.88 597.51 512.23 597.69 509.16 595.51 507.01 593.26 506.28 590.06 506.78 587.87 505.24 586.33 503.3 584.65 502.79 583.77 501.35 582.61 497.02 580.18 495.59 574.84 495.1 572.78 492.4 572.28 490.62 574.46 489.19 574.75 487.65 574.09 486 573.79 483.58 575.49 483 575.79 479.93 574.06 479.11 575.55 477.4 576.72 475.05 576 473.77 578.32 471.33 580.37 471.34 578.21 467.29 576.43 466.36 576.55 464.17 574.72 461.37 572.85 459.92 571.17 456.85 570.89 454.71 572.17 453.74 573.41 451.34 574.73 449.71 573.37 449.24 573.13 447.82 573.83 446.82 571.59 443.33 571.24 440.34 571.9 438.91 569.98 436.72 569.06 434.25 567 435.01 566.22 434.04 564.37 434.5 561.55 432.59 560.36 430.98 559 430.81 557.09 429.34 557.09 427.77 554.06 424.43 552.16 423.06 550.53 420.13 550.29 418.58 552.4 417.19 557 415.08 559.45 414.71 562.03 411.86 564.3 411.04 566.47 410.74 567.85 411.08 568.84 409.94 570.67 411.12 572.82 410.54 574.57 411.39 576.09 411.11 578.35 412.52 579.32 416.23 579.08 417.15 580.22 418.86 581.33 422.46 582.82 424.63 584.35 424.04 585.65 425.67 587.17 426.68 589.01 430.01 590.57 430.33 591.53 431.95 591.07 433.46 592.74 434.87 594.99 434.7 597.07 432.9 596.99 431.06 595.54 429 595.28 422.72 595.71 421.58 599.53 421.81 599.44 420.1 600.47 416.76 602.76 416.15 605.14 416.43 603.89 409.96 603.06 408.33 601.55 403.85 603.02 402.61 603.95 404.26 605.44 404.94 607.32 404.93 611.53 403.2 612.21 403.37 614.01 401.96 614.92 402.39 617.94 400.68 620.24 398 623.43 396.84 626.63 392.7 628.95 390.99 630.8 389.07 634.78 388.86 637.12 388.28 638.93 387.22 643.19 388.57 645.06 389.54 647.38 389.73 649.63 390.66 651.13 392.22 655.15 394.35 658.91 394.11 660.01 394.65 661.21 393.08 661.44 391.68 665.29 386.34 670.43 380.7 672.48 375.12 674.14 374.17 677.49 373.79 681.85 372.43 683.9 371.31 686.44 371.08 691.26 371.09 695.3 370.51 699.83 368.57 700.2 369.83 701.98 371.87 712.23 377.92 713.99 379.65 715.43 381.76 715.79 384.72 715.67 387.09 716.11 388.74 719.03 392.75 722.98 396.64 723.94 401.23 724.79 403.86 727.31 408.8 729.15 414.33 729.81 419.1 731.69 421.66 732.81 424.08 733.84 427.78 733.27 430.4 733.9 434.95 736.93 435.3 739.17 436.09 740.83 435.79 743.16 436.28 750.36 439.49 751.67 440.26 753.87 444.09 754.33 445.86 757.56 448.43 757.07 453.51 757.36 459.03 758.65 463.43 758.99 465.93 758.71 467.2 760.01 473.09 761.04 475.16 760.64 477.65 760.99 478.32 760.23 480.98 758.88 483.35 758.22 485.3 758.67 487.6 760.02 487.93 765.52 495.19 766.57 494.74 768.9 497.22 770.16 499.95 772.17 500.31 775.55 502.93 778.56 502.85 780.99 503.22 783.45 504.75 784.96 504.73 787.3 506.53 787.22 507.28 795.01 510.06 799 511.68 Z" id="38590400"/>
<path d="M 761 162.32 762.92 164.09 764.33 164.22 766.04 165.82 770.48 167.29 772.44 168.6 774.53 168.41 774.7 170.65 776.82 173.44 777.4 176.12 778.21 177.77 781.2 179.81 784.06 181.08 786.83 183.23 785.67 183.91 784.28 185.99 783.42 189.65 780.74 191.11 779.04 192.71 778.83 195.08 777.43 196.44 776.75 198.78 774.88 200.3 773.9 202.79 774.63 204.71 773.94 206.98 774.18 210.63 775.6 214.23 773.88 215.59 768.54 216.75 767.31 217.62 766.24 220.09 764.32 220.87 759.16 221.44 756.8 223.94 756.08 223.88 754.35 228.28 752.66 231.77 752.67 232.68 751.02 233.93 748.46 234.79 748.8 237.4 745.86 241.11 744.26 241.12 741.98 240.24 737.02 241.89 735.38 241.68 733.08 240.55 729.14 243.78 727.03 243.78 724.31 242.04 722.48 242.5 721.02 242.14 719.79 243.24 716.26 242.41 715.59 244 713.72 245.07 712.24 246.71 711.18 248.69 709.42 249.18 708.01 251.89 708.4 253.36 709.68 254.83 708.79 256.4 706.11 259.2 706.56 262.85 705.84 264.29 706.4 265.5 705.78 267.22 702.48 268.82 698.85 269.63 697.5 271.94 695.82 273.4 692.15 273.59 692.06 275.89 690.75 276.77 689.44 276.36 686.94 277.75 685.35 280.93 684.45 281.62 682.22 285.33 682.94 286.51 681.77 287.32 681.3 289.07 683.96 290.25 684.35 292.72 685.71 293.6 685.33 294.55 686.69 295.92 687.76 298.05 689.36 299.11 690.75 302.08 692.47 303.39 695.64 303.15 696.88 303.8 699.31 303.53 700.58 305.67 703.91 305.68 704.93 306.19 708.37 306.25 710.32 307.39 710.51 310.32 712.84 312.46 714.56 316.46 712.55 318.89 712.39 320.82 710.05 323.75 708.44 326.74 709.05 329.39 707.98 331 708.52 333.18 710.25 333.73 711.41 335.14 710.71 340.23 711.5 342.96 711.85 345.73 712.64 347.4 709.56 351.96 710.06 355.4 708.94 357.76 707.33 358.29 704.95 362.08 703.9 362.83 703.42 364.8 702.44 366.61 699.83 368.57 695.3 370.51 691.26 371.09 686.44 371.08 683.9 371.31 681.85 372.43 677.49 373.79 674.14 374.17 672.48 375.12 670.43 380.7 665.29 386.34 661.44 391.68 661.21 393.08 660.01 394.65 658.91 394.11 655.15 394.35 651.13 392.22 649.63 390.66 647.38 389.73 645.06 389.54 643.19 388.57 638.93 387.22 637.12 388.28 634.78 388.86 630.8 389.07 628.95 390.99 626.63 392.7 623.43 396.84 620.24 398 617.94 400.68 614.92 402.39 614.01 401.96 612.21 403.37 611.53 403.2 607.32 404.93 605.44 404.94 603.95 404.26 603.02 402.61 601.55 403.85 603.06 408.33 603.89 409.96 605.14 416.43 602.76 416.15 600.47 416.76 599.44 420.1 599.53 421.81 595.71 421.58 595.28 422.72 595.54 429 596.99 431.06 597.07 432.9 594.99 434.7 592.74 434.87 591.07 433.46 591.53 431.95 590.57 430.33 589.01 430.01 587.17 426.68 585.65 425.67 584.35 424.04 582.82 424.63 581.33 422.46 580.22 418.86 579.08 417.15 579.32 416.23 578.35 412.52 576.09 411.11 574.57 411.39 572.82 410.54 570.67 411.12 568.84 409.94 567.85 411.08 566.47 410.74 564.3 411.04 562.03 411.86 559.45 414.71 557 415.08 552.4 417.19 550.29 418.58 547.87 417.41 546.03 417.62 545.08 417.05 545.11 415.53 543.26 415.69 543.62 413.11 545.15 411.52 545.3 408.65 544.99 407.02 543.41 405.25 545.46 400.9 546.39 399.95 546.74 397.62 548.61 396.09 549.65 394.65 549.64 393 548.21 388.58 546.69 386.37 547.73 384.64 550.16 383.23 549.26 381.25 550.9 379.58 551.17 378.04 552.64 376.54 554.92 376.02 556.83 373.53 557 369.26 557.63 367.18 553.16 364.83 550.32 359.72 548.66 358.87 547.34 357.16 545.37 355.99 544.8 354.92 545.41 353.53 544.41 350.66 540.74 348.96 539.86 345.91 540.08 344.23 542.21 340.98 542.01 338.84 543.85 336.33 543.66 334.12 544.17 332.81 543.79 329.34 541.1 325.16 540.94 322.62 542.37 320.24 544.54 320.17 545.91 318.56 544.65 316.52 544.12 313.19 538.79 307.75 535.56 306.26 535.45 302.9 536.95 302.89 538.29 298.01 539.8 296.47 540.72 294.65 536.88 293.17 535.67 289.64 535.38 287.53 534.37 284.29 533.39 282.79 533.24 278.7 532.13 277.21 531.95 272.64 533.78 266.68 533.78 258.24 535.33 255.61 535.82 253.19 535.86 250.87 536.68 247.57 536.73 245.88 538.51 243.75 540.21 242.66 540.43 237.91 539.93 235.19 540.31 233.73 542.45 232.72 543.61 230.84 542.35 228.85 542.46 227.2 543.54 225.18 543.32 220.2 542.85 218.71 540.96 215.99 541.71 214.09 539.92 213.13 536.5 208.62 536.8 204.49 534.14 200.42 530.06 199.71 528.78 197.68 528.17 195.63 530.09 191.98 532.01 186.47 531.71 184.13 533.17 182.98 532.82 180.21 532.43 173.05 532.67 169.08 534.74 168.62 537.4 167.4 542.49 166.48 544.16 164.15 545.08 162.11 545.89 156.26 548.12 156 548.6 154.79 552.21 151.18 552.52 148.04 552.38 144.2 553.94 138.92 556.34 133.95 557.46 134.67 561.44 135.31 562.96 135.24 565.64 133.51 567.46 131.52 568.14 129.85 570.28 126.77 574.71 121.61 577.66 119.44 579.39 121.58 582.41 121.95 582.65 123.69 583.66 125.48 584.53 128.08 585.8 129.03 586.87 130.73 586.9 135.19 588.56 137.52 592.49 143.81 594.33 145.11 595.47 147.56 595.21 149.54 597.14 152.81 598.61 155.82 599.36 155.78 600.53 158.35 602.83 161.25 605.2 163.08 606.33 168.71 607.33 170.07 611.42 172.09 616.44 173.03 617.32 173.78 620.86 174.46 621.27 175.59 622.86 176.93 624.41 177.2 626.23 179.28 627.11 182.25 628.44 184.56 632.99 187.65 635.81 188.85 636.65 186.61 640.51 185.54 641.87 183.65 644.96 181.96 646.68 180.31 649.71 179.77 652.12 178.59 654.51 177.89 655.91 178.97 658.25 178.86 659.62 179.25 661.56 178.5 664.58 175.38 667.93 173.22 670.09 172.72 673.29 172.84 674.51 173.29 678.16 173.48 680.63 174.64 686.7 176.29 688.68 177.91 690.75 178.84 693.51 181.06 695.02 181.55 696.31 182.71 699.88 182.59 704.94 185.19 708.24 185.15 709.67 185.68 712.07 185.82 713.77 182.96 714.73 179.98 715.12 177.62 717.09 176.77 718.1 175.23 722.3 177.03 725.6 176.73 728.18 175.23 729.64 175.14 730.96 174.34 732.55 170.1 736.94 167.26 739.1 164.76 743.9 161.34 744.89 161.06 746.47 158.85 748.71 159.84 751.05 162.14 752.95 162.13 753.8 163.5 754.98 164.03 758.31 162.83 761 162.32 Z" id="38590410"/>
<path d="M 530.97 422.84 531.97 428.08 530.42 428.87 531.2 436.87 530.42 441.04 528.58 443.28 527.49 448.36 527.84 449.01 527.27 452.53 522.51 456.26 520.47 457 517.22 457.06 514.42 460.15 512.11 460.94 511.46 462.93 508.71 467.7 505.08 469.17 501.89 472.09 503.33 474.56 504.89 478.28 504.19 483.17 504.07 486.43 504.73 491.38 502.49 494.38 498.1 493.49 497.37 495.62 497.5 497.23 496.24 499.14 497.37 501.36 500.01 503.14 501.7 503.7 504.06 505.52 504.11 507.68 503.5 510.08 503.49 514.02 505.19 516.79 505.92 520.69 505.11 522.31 502.16 522.2 499.73 525.13 497.85 526.17 497.07 527.2 498.39 529.11 500.81 530.52 500.92 533.83 501.33 536.23 502.54 538.96 502.49 541.49 503.08 549.85 501.21 548.22 497.93 545.95 493.83 547.02 492.01 546.61 490.78 547.03 493.21 549.08 494.2 551.06 494.16 552.48 495.43 554.77 496.22 557.25 495.29 559.62 494.18 559.85 493.94 561.92 493.05 564.22 491.71 564.01 490.33 562.27 487.48 563.04 488.85 565.81 487.24 567.12 487.25 569.95 488.5 571.07 486.81 572.21 485.09 572.55 482.89 574.07 481.37 573.57 480.64 575.32 481.37 577.58 477.77 578.45 471.96 579.47 468.54 579.09 465.64 579.57 464.14 581.5 462.84 581.97 460.91 584.17 457.74 584.27 455.32 586.33 455.52 588.66 453.85 589.76 453.07 591.66 451.31 592.79 451.05 594.2 449.68 594.54 449.54 596.47 446.83 596.17 446.12 597.58 443.75 597.36 443.53 598.82 441.14 600.02 439.48 599.37 438.03 599.55 436.5 600.66 435.3 598.35 432.96 599.35 429.04 601.57 425.55 601.5 423.46 601.99 420.93 603.49 420.14 605.12 413.66 604.57 413.33 606.51 412.07 609.45 412.8 612.72 412.13 614.94 411.95 617.63 410.19 620.18 410.05 621.44 411.23 623.03 411.48 624.42 409.94 625.87 409.03 627.46 408 626.78 406.39 629.42 404.91 630.64 405.02 631.96 406.31 633.82 405.91 635.24 406 637.58 406.9 638.79 406.39 640.34 404.41 641.79 400.64 641.13 397.82 639.38 396.61 640.87 393.94 640.47 391.54 639.13 389.37 639.89 388.21 638.58 384.81 638.85 383.06 638.13 382.3 636.39 383.69 632.82 380.54 632.36 380.33 631.02 378.27 628.73 378.01 627.47 380.2 625.79 380.23 622.83 379.04 621.96 378.16 619.64 379.27 616.18 377.54 615.72 376.61 614.62 377.11 613.17 376 611.51 376.6 609.5 375.74 607.84 377.57 605.99 378.08 601.9 377.45 600.84 378.32 599.85 378.54 596.83 381.21 594.39 381.53 593.34 379.53 591.18 378.44 588.95 377.55 585.48 378.62 583.4 378.18 580.33 379.84 578.73 380.08 576.56 381.05 575.55 381.29 573.47 382.04 573.06 382.75 570.56 381.03 567.7 381.12 566.06 382.19 563.16 382.93 560.24 382.89 553.42 383.51 550.69 382.17 549.34 383.64 547.55 385.01 543.55 384.69 540.94 383.21 536.89 385.89 534.4 387.87 534.17 388.76 532.48 390.11 531.09 390.17 527.62 387.79 524.16 385.95 519.19 385.7 516.61 384.74 514.01 383.65 515.26 382.86 517.1 381.88 522.22 380.97 525.38 379.76 526.54 378.18 525.99 376.58 524.31 377.31 523.27 376.62 521.34 377.33 519.15 376.02 518.25 375.47 516.89 376.79 514.15 376.65 512.34 377.5 510.44 377.62 508.32 376.41 505.56 375.59 504.77 376.64 502.01 378.66 499.86 380.04 496.16 382.32 494.78 383.6 493.08 383.92 489.75 383.5 487.27 384.15 484.38 385.68 482.11 385.46 479.6 384.77 477.25 382.59 474.91 380.69 474.18 380.49 471.98 381.11 471.22 380.51 469.45 380.99 467.99 381.3 463.54 381.87 462.49 381.68 460.59 380.73 459.08 382.08 455.59 383.56 455.15 385.31 453.43 385.24 451.68 384.39 449.26 385.45 445.78 384.9 443.6 385.19 440.63 384.79 438.66 385.65 437.61 385.09 435.82 386.42 434.29 385.91 433.52 386.46 430.82 386.12 429.63 386.42 425.74 388.43 425.27 388.97 421.63 385.92 417.43 386.47 414.83 388.52 414.7 388.92 413.57 391.11 410.85 392.52 410.28 394.15 407.17 397.15 403.05 396.73 401.44 401.65 400.41 404.42 400.93 405.65 402.35 406.97 399.21 408.04 397.92 409.15 397.82 411.4 399.43 412.3 400.72 415.99 400.93 417.29 400.3 418.99 400.84 421.87 402.69 422.85 404.68 424.97 404.54 427.24 405.2 427.87 406.35 430.53 407.4 433.58 407.22 434.13 411.53 436.48 410.82 438.29 411.39 439.5 413.77 440.64 415.03 442.35 415.97 443.34 417.52 446.03 417.8 447.21 413.35 448.03 413.04 449.32 411.15 450.89 411.27 453 410.65 453.33 408.97 455.25 407.74 456.17 405.69 457.92 405.08 460.05 403.72 460.81 402.05 465.49 400 466.42 397.78 467.55 397.94 471.32 397.53 473.56 394.03 474.86 392.87 479.21 391.39 481.48 390.26 482.94 388.91 483.63 386.9 483.67 383.79 484.21 382.94 487.73 384.02 487.53 386.59 489.89 387.45 492.87 386.47 494.44 386.67 494.64 385.14 496.04 384.24 498.07 383.85 499.16 382.55 500.25 385.06 501.02 385.51 502.26 391.5 503.18 393.93 504.71 396.28 504.32 397.61 505.07 400.12 506.1 401.66 505.45 403.9 507.09 407.32 507.54 409.64 508.76 410.26 509.8 412.2 511.97 413.18 513.61 416.42 517.1 417.52 520.6 419.67 524.16 421.51 526.87 421.99 529.47 421.91 530.97 422.84 Z" id="38590110"/>
<path d="M 406.88 234.36 407.16 238.51 408.32 239.95 408.45 244.05 407.86 245.97 408.03 247.38 409.51 250.23 409.1 252.04 409.9 253 408.59 255.41 409.17 258.7 408.58 259.9 408.56 262.54 409.67 265.13 409.55 269.51 410.41 271.85 413.41 275.44 415.04 276.08 415.47 277.1 417.39 278 418.62 280.12 419.73 284.24 422.17 284.58 423.31 286.14 423.17 290.11 425.98 294.34 427.58 295.37 427.95 298.96 429.72 301.78 433.11 304.49 436.3 305.45 438.66 302.64 439.62 300.22 440.66 299.44 443.26 299.98 444.76 299.6 447.81 300.2 449.38 299.43 451.13 297.87 454.18 297.99 454.11 297.16 456.82 297.24 459.21 298.32 460.12 296.6 462.75 294.85 464.55 291.75 467.76 289.62 471.45 289.59 473.9 291.55 476.88 292.03 479.16 294.65 481.25 296.06 482.29 297.63 483.8 298.48 484.63 299.7 484.46 302.36 485.27 302.39 486.49 304.73 488.21 306.97 492.16 309.11 493.76 307.08 495.32 303.65 496.61 302.82 496.58 300.94 500.54 299.52 503.43 296.51 503.69 294.48 505.21 293.22 505.53 291.53 507 290.48 507.48 286.19 506.54 281.67 507.86 278.18 507.87 276.64 509.83 272.1 512.32 272.05 515.31 269.54 517.54 265.9 518.45 265.94 522 264.63 525.82 261.81 529.99 259.67 532.01 259.21 533.78 258.24 533.78 266.68 531.95 272.64 532.13 277.21 533.24 278.7 533.39 282.79 534.37 284.29 535.38 287.53 535.67 289.64 536.88 293.17 540.72 294.65 539.8 296.47 538.29 298.01 536.95 302.89 535.45 302.9 535.56 306.26 538.79 307.75 544.12 313.19 544.65 316.52 545.91 318.56 544.54 320.17 542.37 320.24 540.94 322.62 541.1 325.16 543.79 329.34 544.17 332.81 543.66 334.12 543.85 336.33 542.01 338.84 542.21 340.98 540.08 344.23 539.86 345.91 540.74 348.96 544.41 350.66 545.41 353.53 544.8 354.92 545.37 355.99 547.34 357.16 548.66 358.87 550.32 359.72 553.16 364.83 557.63 367.18 557 369.26 556.83 373.53 554.92 376.02 552.64 376.54 551.17 378.04 550.9 379.58 549.26 381.25 550.16 383.23 547.73 384.64 546.69 386.37 548.21 388.58 549.64 393 549.65 394.65 548.61 396.09 546.74 397.62 546.39 399.95 545.46 400.9 543.41 405.25 544.99 407.02 545.3 408.65 545.15 411.52 543.62 413.11 543.26 415.69 538.93 417.28 536.38 417.55 534.55 419.57 532.45 420.53 530.97 422.84 529.47 421.91 526.87 421.99 524.16 421.51 520.6 419.67 517.1 417.52 513.61 416.42 511.97 413.18 509.8 412.2 508.76 410.26 507.54 409.64 507.09 407.32 505.45 403.9 506.1 401.66 505.07 400.12 504.32 397.61 504.71 396.28 503.18 393.93 502.26 391.5 501.02 385.51 500.25 385.06 499.16 382.55 498.07 383.85 496.04 384.24 494.64 385.14 494.44 386.67 492.87 386.47 489.89 387.45 487.53 386.59 487.73 384.02 484.21 382.94 483.67 383.79 483.63 386.9 482.94 388.91 481.48 390.26 479.21 391.39 474.86 392.87 473.56 394.03 471.32 397.53 467.55 397.94 466.42 397.78 465.49 400 460.81 402.05 460.05 403.72 457.92 405.08 456.17 405.69 455.25 407.74 453.33 408.97 453 410.65 450.89 411.27 449.32 411.15 448.03 413.04 447.21 413.35 446.03 417.8 443.34 417.52 442.35 415.97 440.64 415.03 439.5 413.77 438.29 411.39 436.48 410.82 434.13 411.53 433.58 407.22 430.53 407.4 427.87 406.35 427.24 405.2 424.97 404.54 422.85 404.68 421.87 402.69 418.99 400.84 417.29 400.3 415.99 400.93 412.3 400.72 411.4 399.43 409.15 397.82 408.04 397.92 406.97 399.21 405.65 402.35 404.42 400.93 401.65 400.41 396.73 401.44 397.15 403.05 394.15 407.17 392.52 410.28 391.11 410.85 388.92 413.57 388.52 414.7 386.47 414.83 382.47 409.13 382.09 407.21 382.34 404.06 380.57 399.69 380.27 397.9 381.36 396.29 381.19 394.77 382.54 393.35 380.61 390.78 381.31 389.75 381.09 388.41 381.53 386.2 380.67 382.66 379.35 379.93 379.61 378.55 379.6 374.35 378.57 373.24 378.53 371.56 377.2 371.36 374.07 368.14 374.29 367.32 373.22 364.66 372.87 362.25 370.85 360.59 368.88 357.12 370.15 355.38 369.36 352.77 370.94 350.38 370.36 349.22 371.91 347.61 371.89 344.37 372.43 341.32 373.57 340.66 373.15 337.61 373.77 335.09 371.49 330.8 371.12 327.53 372.81 324.93 373.37 322.11 374.75 320.24 377.78 318.28 380.2 315 382.22 315.43 380.02 312.61 378.19 307.17 376.03 306.36 374.17 304.49 372.11 303.86 372.69 301.5 372.3 299.64 372.68 297.87 372.01 296.65 372.57 294.92 370.15 294.32 371 291.27 369.92 290.22 369.91 288.45 366.54 288.01 363.61 288.46 360.25 287.62 356.77 285.01 353.46 283.77 353.55 282.84 351.34 281.3 348.41 282.03 345.05 280.07 343.94 278.03 341.37 275.79 340.03 275.85 339.48 272.37 340.35 266.67 343.07 266.11 344.04 266.38 346.1 263.07 348.57 261.91 350.6 259.7 351.35 258.36 352.5 258.08 355.7 258.75 357.26 258.07 358.47 256.87 360.16 257.28 363.1 256.84 365.41 255.61 367.5 255.03 370.49 255.83 370.38 253.95 371.21 252.01 374.03 248.62 374.1 247.01 376.5 246.35 377.27 244.34 376.92 243.4 378.03 242.32 378.15 239.85 380.61 237.84 384.74 239.82 387.49 240.34 388.61 239.43 391.71 239.3 393.96 238.77 394.81 237.75 398.74 235.97 400.49 234.48 404.45 234.82 406.88 234.36 Z" id="38590310"/>
<path d="M 556.34 133.95 553.94 138.92 552.38 144.2 552.52 148.04 552.21 151.18 548.6 154.79 548.12 156 545.89 156.26 545.08 162.11 544.16 164.15 542.49 166.48 537.4 167.4 534.74 168.62 532.67 169.08 532.43 173.05 532.82 180.21 533.17 182.98 531.71 184.13 532.01 186.47 530.09 191.98 528.17 195.63 528.78 197.68 530.06 199.71 534.14 200.42 536.8 204.49 536.5 208.62 539.92 213.13 541.71 214.09 540.96 215.99 542.85 218.71 543.32 220.2 543.54 225.18 542.46 227.2 542.35 228.85 543.61 230.84 542.45 232.72 540.31 233.73 539.93 235.19 540.43 237.91 540.21 242.66 538.51 243.75 536.73 245.88 536.68 247.57 535.86 250.87 535.82 253.19 535.33 255.61 533.78 258.24 532.01 259.21 529.99 259.67 525.82 261.81 522 264.63 518.45 265.94 517.54 265.9 515.31 269.54 512.32 272.05 509.83 272.1 507.87 276.64 507.86 278.18 506.54 281.67 507.48 286.19 507 290.48 505.53 291.53 505.21 293.22 503.69 294.48 503.43 296.51 500.54 299.52 496.58 300.94 496.61 302.82 495.32 303.65 493.76 307.08 492.16 309.11 488.21 306.97 486.49 304.73 485.27 302.39 484.46 302.36 484.63 299.7 483.8 298.48 482.29 297.63 481.25 296.06 479.16 294.65 476.88 292.03 473.9 291.55 471.45 289.59 467.76 289.62 464.55 291.75 462.75 294.85 460.12 296.6 459.21 298.32 456.82 297.24 454.11 297.16 454.18 297.99 451.13 297.87 449.38 299.43 447.81 300.2 444.76 299.6 443.26 299.98 440.66 299.44 439.62 300.22 438.66 302.64 436.3 305.45 433.11 304.49 429.72 301.78 427.95 298.96 427.58 295.37 425.98 294.34 423.17 290.11 423.31 286.14 422.17 284.58 419.73 284.24 418.62 280.12 417.39 278 415.47 277.1 415.04 276.08 413.41 275.44 410.41 271.85 409.55 269.51 409.67 265.13 408.56 262.54 408.58 259.9 409.17 258.7 408.59 255.41 409.9 253 409.1 252.04 409.51 250.23 408.03 247.38 407.86 245.97 408.45 244.05 408.32 239.95 407.16 238.51 406.88 234.36 407.01 233.27 406.12 231.22 406.01 228.32 407.19 226.49 406.67 224.67 407.13 222.92 406.97 221 407.29 217.66 407.82 216.49 411.22 215.32 412.73 212.51 413.33 210.59 414.47 209 416.09 208.93 417.63 206.79 419.33 205.86 419.83 202.63 421.85 201.35 422.21 199.55 419.96 197.37 420.68 194.61 422.59 189.1 422.65 187.19 423.94 185.3 422.96 181.97 421.83 181.05 422.43 178.15 421.22 177.91 418.69 174.12 415.4 173.1 412.93 171.88 413.81 169.75 413.33 165.72 412.45 164.28 413.32 163.31 412.77 162.28 412.3 159.19 412.51 156.86 410.51 155.08 412.26 152.71 411.4 148.39 411.95 144.44 410.04 140.2 409.66 138.41 407.83 136.54 408.1 133.38 406.74 130.68 407.65 129.67 408.49 125.09 407.46 122.55 408.79 120.89 409.86 118.65 409.09 116.81 411.88 113.51 413.13 111.34 413.11 109.32 414.01 108.19 414.06 106.64 413.13 105.46 413.02 98.56 411.14 96.46 411.41 92.56 408.89 91.4 406.3 91.01 404.41 88.6 402.16 87.3 401.57 84.93 402 81.12 401.49 80.12 402.69 78.69 402.7 73.86 403.13 72.73 402.7 70.88 403.4 69.46 403.76 66.78 403.53 64.98 404.56 59.69 408.33 55.14 409.73 54.86 411.26 53.7 416.98 52.66 419.19 52.88 420.12 54.22 422.88 53.21 423.71 50.47 424.82 49.27 425.15 46.57 425.94 45.86 430.64 46.35 431.64 47.8 433.41 49.08 438.36 47.66 441.34 47.91 443.59 47.68 443.77 46.17 445.61 45.53 447.1 45.71 450.19 43.56 450.91 42.23 453.05 42.3 457.86 39.7 458.4 41.44 456.36 43.77 456.03 46.28 457.11 48.37 458.6 49.94 460.83 54.43 462.84 57.52 463.14 59.68 464.54 64.52 466.76 65.95 469.58 66.12 470.64 67.66 472.85 66.98 474.52 67.51 475.88 68.98 476.81 71.8 478.67 73.67 478.19 75.16 475.84 75.94 475.27 78.07 476.66 81.52 476.72 83.65 478.17 85.24 476.95 87.76 477.41 89.39 476.43 91 476.13 93.15 477.35 94.35 478.65 96.96 480 97.17 481.79 98.59 482 100.7 482.99 101.77 482.84 102.81 483.98 104.54 484.71 107.41 484.28 109.69 482.35 113.6 482.32 118.18 481.24 119.79 479.4 120.23 477.28 122.13 475.01 122.04 473.35 121.17 470.69 124.59 470.21 125.86 470.7 127.79 475.25 127.1 476.63 126.04 479.41 125.94 480.94 127.17 484.6 127.49 486.73 129.05 487.88 128.9 489.81 130.17 493.34 128.49 495.46 128.62 502.2 130.03 504.96 128.44 506.97 126.79 507.53 124.36 508.24 123.77 508.92 121.54 510.36 119.86 511.27 117.78 514.32 117.32 517.09 113.15 519.14 113.18 519.84 114.36 521.44 114.38 522.36 115.47 524.98 115.53 527.12 115.09 529.57 115.47 531.25 116.43 535.33 116.17 536.59 117.38 536.53 118.46 537.46 121.64 538.28 122.36 538.55 125.67 540.22 126.54 541.02 127.7 544.95 128.69 549.05 128.58 552.58 130.95 554.35 132.9 556.34 133.95 Z" id="38590320"/>
<path d="M 408.33 55.14 404.56 59.69 403.53 64.98 403.76 66.78 403.4 69.46 402.7 70.88 403.13 72.73 402.7 73.86 402.69 78.69 401.49 80.12 402 81.12 401.57 84.93 402.16 87.3 404.41 88.6 406.3 91.01 408.89 91.4 411.41 92.56 411.14 96.46 413.02 98.56 413.13 105.46 414.06 106.64 414.01 108.19 413.11 109.32 413.13 111.34 411.88 113.51 409.09 116.81 409.86 118.65 408.79 120.89 407.46 122.55 408.49 125.09 407.65 129.67 406.74 130.68 408.1 133.38 407.83 136.54 409.66 138.41 410.04 140.2 411.95 144.44 411.4 148.39 412.26 152.71 410.51 155.08 412.51 156.86 412.3 159.19 412.77 162.28 413.32 163.31 412.45 164.28 413.33 165.72 413.81 169.75 412.93 171.88 415.4 173.1 418.69 174.12 421.22 177.91 422.43 178.15 421.83 181.05 422.96 181.97 423.94 185.3 422.65 187.19 422.59 189.1 420.68 194.61 419.96 197.37 422.21 199.55 421.85 201.35 419.83 202.63 419.33 205.86 417.63 206.79 416.09 208.93 414.47 209 413.33 210.59 412.73 212.51 411.22 215.32 407.82 216.49 407.29 217.66 406.97 221 407.13 222.92 406.67 224.67 407.19 226.49 406.01 228.32 406.12 231.22 407.01 233.27 406.88 234.36 404.45 234.82 400.49 234.48 398.74 235.97 394.81 237.75 393.96 238.77 391.71 239.3 388.61 239.43 387.49 240.34 384.74 239.82 380.61 237.84 378.15 239.85 378.03 242.32 376.92 243.4 377.27 244.34 376.5 246.35 374.1 247.01 374.03 248.62 371.21 252.01 370.38 253.95 370.49 255.83 367.5 255.03 365.41 255.61 363.1 256.84 360.16 257.28 358.47 256.87 357.26 258.07 355.7 258.75 352.5 258.08 351.35 258.36 350.6 259.7 348.57 261.91 346.1 263.07 344.04 266.38 343.07 266.11 340.35 266.67 338.14 264.75 335.44 260.08 332.86 259.58 332.41 258.25 329.54 258.38 328.76 257.95 326.23 258.05 325.04 257.52 322.31 258.8 320.82 258.45 316.92 260.22 314.99 262.01 313.37 262.35 309.14 264.31 307.65 264.37 305.97 265.55 304.15 263.87 304.03 262.16 303.06 260.14 302.85 257.76 303.56 256.68 299.43 252.75 297.03 249.83 297.3 248.38 296.82 246.85 297.32 243.55 298.36 239.99 299.12 234.89 299.91 233.13 300.54 229.71 299.66 226.36 300.55 225.51 301.72 222.61 299.48 220.41 297.97 219.79 296.21 217.64 295.23 217.11 295.55 215.23 294.51 211.95 294.37 209.44 292.86 207.76 289.32 205.47 288.21 204.07 289.36 202.94 289.6 201.52 290.7 200.55 292.99 197.2 293.05 194.89 292.11 191.28 292.16 189.11 293.25 187.38 294.2 187.02 296.11 184.24 296.74 183.89 296.95 180.69 295.4 178.36 292.72 175.4 292 173.9 290.18 172.04 288.19 164.62 287.04 164.88 285.49 162.85 283.95 162.08 281.3 163.24 276.69 162.71 274.82 161.55 273.47 163.49 271.36 160.42 270.4 158.43 264.67 151.53 263.99 149.35 262.21 146.65 258.28 142.93 257.37 140.62 257.01 137.48 255.82 134.53 257.63 133.76 258.68 130.73 257.92 126.93 261.39 123.75 263.15 121.37 267.25 120.18 267.6 115.7 267.13 113.38 269.98 111.22 269.94 109.3 274.3 104.1 276.35 103.14 278.23 101.19 280.69 99.6 286.39 97.8 292.48 98.16 294.71 101.59 296.76 102.87 298.84 102.97 301.36 102.18 309.78 104.29 311.5 101.41 315.01 97 315.65 94.83 314.41 89.84 314.97 87.23 314.53 83.38 316.85 80.5 319.15 76.83 324.93 78.97 327.35 77.37 329.28 74.42 332.27 68.63 330.71 62.25 329.38 59.9 327.83 54.49 327.28 50.6 327.44 49.48 326.08 47.69 327.64 47.21 330.16 45.69 332.11 43.21 336.68 38.26 338.5 36.52 340.74 31.74 341.56 28.56 341.79 25.09 340.64 22.31 340.39 20.31 340.7 17.69 341.25 16.93 340.87 14.54 342.21 13.3 342.96 9.47 344.8 9.76 347.86 9.06 351.66 9.1 355.38 11.75 358.24 15.23 359.89 14.66 361.61 15.13 364.35 14.31 366.87 12.18 369.3 11.16 371.11 9.55 376.94 6.43 378.09 2.84 381.06 1.24 386.26 1 391.67 1.71 391.02 6.41 388.06 10.55 387.81 12.17 386.33 16.84 389.86 21.22 389.41 24.4 387.45 26.57 388.15 28.61 390.74 29.28 391.11 30.95 390.48 34.11 391.93 35.18 391 37.23 391.49 40.47 394.73 40.5 395.59 41.52 398.12 42.19 400.54 45.1 403.07 46.85 403.75 49.15 407.59 54.48 408.33 55.14 Z" id="38590330"/>
<path d="M 305.97 265.55 305 267.85 303.48 269.5 303.52 272.59 302.46 273.84 297.76 277.09 296.45 280.67 294.56 283.86 295.3 286.04 296.87 287.72 296.92 289.49 297.86 290.91 298.16 293.6 297.25 296.05 296.09 297.19 297.15 298.88 297.41 300.97 296.89 304.18 294.75 307.47 294.38 309.1 292.25 312.63 288.53 313.39 284.28 312.85 282.64 313.46 281.44 314.96 281.24 316.47 279.36 318.21 279.52 318.94 278.19 320.51 278.92 322.7 278.02 323.19 277.46 325.66 275.76 325.97 275.44 327.84 275.48 331.13 274.46 333.13 275.41 336.32 274.66 336.88 277.72 338.59 279.04 338.09 281.07 336.35 281.15 338.98 279.37 342.19 279.38 346.32 278.86 348.74 277.01 350.32 276.86 352.07 274.88 354.07 270.91 352.41 265.05 351.4 263.83 349.07 262.39 348.41 261.22 346.67 260.13 346.06 257.87 346.89 253.73 346.57 252.62 345.9 250.03 346.08 248.19 344.61 246.08 345.11 243.8 344.06 241.66 344.93 239.97 344.52 238.71 346.04 238.48 347.63 236.92 348.73 236.82 351.12 235.55 354.82 233.79 356.05 232.03 359.28 230.15 360.08 228.21 362.11 225.73 363.72 223.55 366.18 220.92 368.23 218.79 367.81 214.42 370.78 213.7 372.39 211.64 375.1 211.23 378.7 209.19 379.27 208.12 380.34 206.25 380.7 204.72 381.69 199.95 381.99 196.87 383.57 193.56 383.46 192.34 384.64 191.08 389.13 189.21 389.78 186.85 391.18 183.88 393.41 182.64 393.3 179.69 397.31 178.09 399.94 175.21 401.15 173.51 403.02 171.81 404.04 171.9 404.8 169.52 410.93 168.74 413.62 168.51 415.88 166.27 417.76 165.87 419.44 162.65 420.9 161.19 423.08 157.77 423.65 155.19 423.64 153.65 422.48 150.66 421.64 149.18 419.35 146.77 417.48 144.83 419.38 143.45 418.49 139.97 421.58 138.43 422.53 134.37 422.67 133.22 423.15 129.8 427.03 127.95 429.85 123.91 433.93 123.6 434.86 121.75 436.24 120.47 438.19 116.78 437.93 115.84 437.2 113.78 438.17 113.22 439.51 110.94 441.53 110.28 445.06 107.76 446.93 107.42 448.63 105.74 450.24 101.1 448.21 99.84 446.41 98.15 445.45 96.24 445.3 95.4 443.47 93.66 441.29 92.07 440.22 90.06 439.53 85.42 434.73 80.99 431.54 81.08 429.65 80.06 427.47 78.04 425.35 75.62 424.07 72.05 423.53 69.82 420.1 68.43 415.99 65.71 412.76 65.83 411.24 65.19 409.41 65.76 408.41 65.52 404.93 65.08 403.48 64.93 400.21 63.15 396.84 61.82 392.48 60.85 391.72 59.27 385.55 60.13 384.21 59.49 381.74 56.34 381.44 53.53 378.75 49.82 376.86 47.81 374.41 47.2 374.44 45.96 371.33 43.96 370.26 44.18 366.18 41.15 364.19 39.38 361.46 35.57 361.29 33.8 361.71 31.17 360.78 29.17 358.83 26.79 358.45 24.8 357.24 22.52 355.21 20.17 352.49 17.13 351.22 14.19 350.89 10.38 348.42 8.37 346.46 7.39 343.89 4.56 338.24 1 336.29 4.38 327.71 6.89 324.31 10.29 321.03 10.81 318.93 11.14 314.65 16.82 310.81 22.65 305.07 28.14 301.64 30.25 298.24 39.64 289.93 39.53 289.67 40.55 287.56 46.22 284.23 49.4 282.18 52.47 280.68 55.92 281.96 58.01 282.13 60.04 281.14 62.62 278.05 67.74 274.19 73.16 271.18 76.08 269.15 76.99 268.06 77.27 264.6 78.47 259.17 79.66 256.27 81.36 254.51 84.47 252.15 85.32 250.65 86.06 247.85 85.83 242.68 84.78 238.75 84.56 236.57 86.65 232.32 87.96 230.71 91.43 230.38 94.49 231.09 96.36 231.07 99.24 226.69 100.04 224.31 101.2 218.38 101.6 212.45 103.21 209.25 105.19 207.09 106.82 202.9 107.47 202.01 112.07 199.53 113.21 197.88 113.89 193.79 114.85 191.68 114.41 189.76 112.66 187.3 112.23 183.18 111.54 180.72 112.03 178.84 113.73 176.35 116.02 171.93 117.86 170.22 118.88 166.46 121.37 162.54 124.12 157.06 126.69 159.36 134.28 161.46 137.26 162.71 139.63 164.04 139.86 166.6 142.61 169.73 146.31 170.61 147.6 173.64 149.71 174.85 152.99 174.49 155.81 173.35 162.22 169.89 164.1 169.92 166.53 171.17 170.9 171.05 174.07 169.56 178.36 168.01 179.01 166.84 183.09 162.14 183.77 160.34 186.83 159.33 189.24 154.95 190.57 153.46 190.47 149.93 194.59 145.62 196.69 144.64 199.17 141.41 205.17 138.83 206.44 137.13 208.84 136.9 210.97 137.34 215 137.59 217.61 135.97 218.38 134.81 220.3 133.89 224.59 132.71 225.65 131.57 227.91 131.38 230.72 129.71 232.74 127.53 235.78 125.17 238.19 122.79 239.92 124.34 241.77 124.8 243.69 126.32 247.96 130.99 252.99 133.87 255.82 134.53 257.01 137.48 257.37 140.62 258.28 142.93 262.21 146.65 263.99 149.35 264.67 151.53 270.4 158.43 271.36 160.42 273.47 163.49 274.82 161.55 276.69 162.71 281.3 163.24 283.95 162.08 285.49 162.85 287.04 164.88 288.19 164.62 290.18 172.04 292 173.9 292.72 175.4 295.4 178.36 296.95 180.69 296.74 183.89 296.11 184.24 294.2 187.02 293.25 187.38 292.16 189.11 292.11 191.28 293.05 194.89 292.99 197.2 290.7 200.55 289.6 201.52 289.36 202.94 288.21 204.07 289.32 205.47 292.86 207.76 294.37 209.44 294.51 211.95 295.55 215.23 295.23 217.11 296.21 217.64 297.97 219.79 299.48 220.41 301.72 222.61 300.55 225.51 299.66 226.36 300.54 229.71 299.91 233.13 299.12 234.89 298.36 239.99 297.32 243.55 296.82 246.85 297.3 248.38 297.03 249.83 299.43 252.75 303.56 256.68 302.85 257.76 303.06 260.14 304.03 262.16 304.15 263.87 305.97 265.55 Z" id="38590340"/>
<path d="M 340.35 266.67 339.48 272.37 340.03 275.85 341.37 275.79 343.94 278.03 345.05 280.07 348.41 282.03 351.34 281.3 353.55 282.84 353.46 283.77 356.77 285.01 360.25 287.62 363.61 288.46 366.54 288.01 369.91 288.45 369.92 290.22 371 291.27 370.15 294.32 372.57 294.92 372.01 296.65 372.68 297.87 372.3 299.64 372.69 301.5 372.11 303.86 374.17 304.49 376.03 306.36 378.19 307.17 380.02 312.61 382.22 315.43 380.2 315 377.78 318.28 374.75 320.24 373.37 322.11 372.81 324.93 371.12 327.53 371.49 330.8 373.77 335.09 373.15 337.61 373.57 340.66 372.43 341.32 371.89 344.37 371.91 347.61 370.36 349.22 370.94 350.38 369.36 352.77 370.15 355.38 368.88 357.12 370.85 360.59 372.87 362.25 373.22 364.66 374.29 367.32 374.07 368.14 377.2 371.36 378.53 371.56 378.57 373.24 379.6 374.35 379.61 378.55 379.35 379.93 380.67 382.66 381.53 386.2 381.09 388.41 381.31 389.75 380.61 390.78 377.35 390.63 375.62 392.15 374.42 392.01 369.5 393.37 367.72 392.7 366.87 391.54 363.01 390.54 360.91 389.24 359.33 387.17 357.06 386.76 355.05 384.87 353.12 385.47 350.39 385.21 348.87 383.45 346.82 382.61 344.64 384.71 343.52 384.6 342.51 386.17 341.56 386.3 340.19 390.04 340.59 392.64 340.11 394.27 336.36 398.85 335.87 397.35 333.34 397.14 332.59 398.37 330.88 398.44 330.03 399.29 327.93 399.1 327.09 400.35 329.35 405.07 328.51 406.25 330.9 408.53 331.78 410.59 331.7 412.25 333.7 415.08 333.23 416.42 328.22 417.33 327.68 418.63 328.51 422.15 327.7 424.62 327.88 427.08 324.88 428.45 324.47 429.62 322.52 430.72 322.32 431.8 319.99 432.27 316.34 430.04 316.97 427.15 314.75 424.77 312.33 423.82 312.24 421.85 309.33 417.75 307.66 419 304.51 419.31 303.15 420.44 302.84 422.71 301.74 423.77 297.75 424.9 296.34 426.18 295.66 427.82 295.53 429.81 294.65 435.04 294 435.69 291.49 436.58 290.42 437.41 289.3 440.45 289.24 441.7 288.21 444.81 286.09 445.72 284.6 447.03 281.4 447.55 280.94 450.52 277.62 454.49 272.59 457.26 271.33 457.33 270.77 459.49 271.14 462.83 269.56 463.52 265.04 463.22 264.2 465.1 264 467.4 261.2 468.78 258.79 471.07 258.27 472.69 256.24 474.1 254.51 475.9 253.51 476.08 251.48 477.65 248.69 478.91 245.51 479.95 245.05 480.86 239.79 480.91 237.71 480.25 231.89 481.83 229.19 484.43 225.4 487.35 224.32 485.55 220.83 483.29 218.1 482.52 215.62 482.64 214.38 482.2 210.19 483.26 208.28 483.09 207 483.65 204.93 483.19 203.1 483.37 201.23 480.84 197.69 479.29 196.2 477.65 195.8 475.27 194.13 472.01 192.37 470.43 191.15 467.56 188.91 465.37 184.64 464.41 180.27 461.08 177.65 458.56 176.83 457.33 175.04 456.74 174.04 454.94 170.08 450.84 168.16 449.4 166.7 449 163.9 446.75 163.12 445.61 162.57 441.55 161.3 439.01 161.23 437.34 158.88 433.8 158.38 432 159.51 430.05 160.26 427.73 161.24 426.53 158.78 425.25 157.77 423.65 161.19 423.08 162.65 420.9 165.87 419.44 166.27 417.76 168.51 415.88 168.74 413.62 169.52 410.93 171.9 404.8 171.81 404.04 173.51 403.02 175.21 401.15 178.09 399.94 179.69 397.31 182.64 393.3 183.88 393.41 186.85 391.18 189.21 389.78 191.08 389.13 192.34 384.64 193.56 383.46 196.87 383.57 199.95 381.99 204.72 381.69 206.25 380.7 208.12 380.34 209.19 379.27 211.23 378.7 211.64 375.1 213.7 372.39 214.42 370.78 218.79 367.81 220.92 368.23 223.55 366.18 225.73 363.72 228.21 362.11 230.15 360.08 232.03 359.28 233.79 356.05 235.55 354.82 236.82 351.12 236.92 348.73 238.48 347.63 238.71 346.04 239.97 344.52 241.66 344.93 243.8 344.06 246.08 345.11 248.19 344.61 250.03 346.08 252.62 345.9 253.73 346.57 257.87 346.89 260.13 346.06 261.22 346.67 262.39 348.41 263.83 349.07 265.05 351.4 270.91 352.41 274.88 354.07 276.86 352.07 277.01 350.32 278.86 348.74 279.38 346.32 279.37 342.19 281.15 338.98 281.07 336.35 279.04 338.09 277.72 338.59 274.66 336.88 275.41 336.32 274.46 333.13 275.48 331.13 275.44 327.84 275.76 325.97 277.46 325.66 278.02 323.19 278.92 322.7 278.19 320.51 279.52 318.94 279.36 318.21 281.24 316.47 281.44 314.96 282.64 313.46 284.28 312.85 288.53 313.39 292.25 312.63 294.38 309.1 294.75 307.47 296.89 304.18 297.41 300.97 297.15 298.88 296.09 297.19 297.25 296.05 298.16 293.6 297.86 290.91 296.92 289.49 296.87 287.72 295.3 286.04 294.56 283.86 296.45 280.67 297.76 277.09 302.46 273.84 303.52 272.59 303.48 269.5 305 267.85 305.97 265.55 307.65 264.37 309.14 264.31 313.37 262.35 314.99 262.01 316.92 260.22 320.82 258.45 322.31 258.8 325.04 257.52 326.23 258.05 328.76 257.95 329.54 258.38 332.41 258.25 332.86 259.58 335.44 260.08 338.14 264.75 340.35 266.67 Z" id="38590350"/>
<path d="M 380.61 390.78 382.54 393.35 381.19 394.77 381.36 396.29 380.27 397.9 380.57 399.69 382.34 404.06 382.09 407.21 382.47 409.13 386.47 414.83 385.92 417.43 388.97 421.63 388.43 425.27 386.42 425.74 386.12 429.63 386.46 430.82 385.91 433.52 386.42 434.29 385.09 435.82 385.65 437.61 384.79 438.66 385.19 440.63 384.9 443.6 385.45 445.78 384.39 449.26 385.24 451.68 385.31 453.43 383.56 455.15 382.08 455.59 380.73 459.08 381.68 460.59 381.87 462.49 381.3 463.54 380.99 467.99 380.51 469.45 381.11 471.22 380.49 471.98 380.69 474.18 382.59 474.91 384.77 477.25 385.46 479.6 385.68 482.11 384.15 484.38 383.5 487.27 383.92 489.75 383.6 493.08 382.32 494.78 380.04 496.16 378.66 499.86 376.64 502.01 375.59 504.77 376.41 505.56 377.62 508.32 377.5 510.44 376.65 512.34 376.79 514.15 375.47 516.89 376.02 518.25 377.33 519.15 376.62 521.34 377.31 523.27 376.58 524.31 378.18 525.99 379.76 526.54 380.97 525.38 381.88 522.22 382.86 517.1 383.65 515.26 384.74 514.01 385.7 516.61 385.95 519.19 387.79 524.16 390.17 527.62 390.11 531.09 388.76 532.48 387.87 534.17 385.89 534.4 383.21 536.89 384.69 540.94 385.01 543.55 383.64 547.55 382.17 549.34 383.51 550.69 382.89 553.42 382.93 560.24 382.19 563.16 381.12 566.06 379.47 565.61 373.5 565.19 370.48 563.65 365.95 562.66 365.15 564.77 363.62 566.55 359.36 569.55 358.2 571.93 356.99 573.19 356.48 575.58 355.76 576.16 355.23 579.3 352.82 580.89 353.31 581.71 352.64 584.11 353.33 585.78 352.41 589.27 351.73 589.79 348.08 589.45 345.83 590.55 344.85 592.05 342.43 591.94 339.62 593.32 334.32 593.25 333.47 592.34 331.13 591.77 328.53 588.38 326.65 589.73 326.23 592.91 324.76 594.56 323.66 596.86 321.44 595.35 317.9 591.95 315.83 592.26 313.65 590.51 311.87 588.51 306.88 586.8 305.78 587.25 304.7 586.55 301.13 589.08 300.54 589.92 298.85 588.89 297.39 585.48 298.91 584.08 298.48 582.37 298.96 580.45 297.64 578.56 298.97 575.58 298.75 572.16 299.05 571.14 297.93 568.8 296.68 568.37 297.25 566.15 296.79 565.5 294.79 565.38 291.8 564.29 289.24 564.7 287.35 566.52 284.31 565.94 283.44 564.66 281.72 563.79 279.37 558.03 278.56 555.56 275.07 552.41 272.01 552.34 271.2 551.93 270.08 554.56 267.33 551.82 266.43 550.15 263.61 548.42 262.23 546.66 262.59 544.49 261.13 541.53 259.52 540.19 257.85 539.84 255.1 534.18 254.86 532.96 255.54 529.88 255.2 528.73 252.64 528.49 250.48 528.71 249.24 528.36 245.99 528.42 243.97 527.24 241.95 527.13 240.82 528.3 239.39 527.45 239.55 525.77 238.68 523.7 238.65 521.27 239.55 518.23 237.33 514.43 236.95 512.14 235.86 508.81 235.6 505.58 232.56 500.35 230.47 498.18 230.62 496.87 227.29 493.17 226.29 491.44 225.4 488.74 225.4 487.35 229.19 484.43 231.89 481.83 237.71 480.25 239.79 480.91 245.05 480.86 245.51 479.95 248.69 478.91 251.48 477.65 253.51 476.08 254.51 475.9 256.24 474.1 258.27 472.69 258.79 471.07 261.2 468.78 264 467.4 264.2 465.1 265.04 463.22 269.56 463.52 271.14 462.83 270.77 459.49 271.33 457.33 272.59 457.26 277.62 454.49 280.94 450.52 281.4 447.55 284.6 447.03 286.09 445.72 288.21 444.81 289.24 441.7 289.3 440.45 290.42 437.41 291.49 436.58 294 435.69 294.65 435.04 295.53 429.81 295.66 427.82 296.34 426.18 297.75 424.9 301.74 423.77 302.84 422.71 303.15 420.44 304.51 419.31 307.66 419 309.33 417.75 312.24 421.85 312.33 423.82 314.75 424.77 316.97 427.15 316.34 430.04 319.99 432.27 322.32 431.8 322.52 430.72 324.47 429.62 324.88 428.45 327.88 427.08 327.7 424.62 328.51 422.15 327.68 418.63 328.22 417.33 333.23 416.42 333.7 415.08 331.7 412.25 331.78 410.59 330.9 408.53 328.51 406.25 329.35 405.07 327.09 400.35 327.93 399.1 330.03 399.29 330.88 398.44 332.59 398.37 333.34 397.14 335.87 397.35 336.36 398.85 340.11 394.27 340.59 392.64 340.19 390.04 341.56 386.3 342.51 386.17 343.52 384.6 344.64 384.71 346.82 382.61 348.87 383.45 350.39 385.21 353.12 385.47 355.05 384.87 357.06 386.76 359.33 387.17 360.91 389.24 363.01 390.54 366.87 391.54 367.72 392.7 369.5 393.37 374.42 392.01 375.62 392.15 377.35 390.63 380.61 390.78 Z" id="38590360"/>
</g>
</svg>