<?xml version="1.0"?>
<svg xmlns="http://www.w3.org/2000/svg" version="1.2" baseProfile="tiny" width="800" height="1064" viewBox="0 0 800 1064" stroke-linecap="round" stroke-linejoin="round">
<g id="dong">
<path d="M 404.02 618.98 401.08 620.94 399.85 622.38 397.55 623.83 393.88 624.47 391.39 624.62 388.77 624.3 383.79 623.68 380.86 622.51 372.88 622.13 370.54 621.49 363.95 617.26 361.98 615.4 356.58 611.82 350.36 608.57 350.08 606.94 347.53 604.64 342.69 600.88 340.24 597.56 342.28 595.59 341.8 592.62 340.08 591.5 339.31 590.3 339.68 588.97 338.97 586.69 336.51 585.11 335.75 583.14 332.13 578.55 329.35 577.61 327.88 575.93 328.18 573.43 329.22 572.05 330.84 567.88 331.78 566.5 331.97 564.82 330.19 563.36 328.23 563.67 326.4 562.94 325.57 561.7 323.44 561.16 322.38 559.42 320.13 558.36 315 553.84 312 552.93 311.65 551.7 310.35 550.74 308.65 550.44 307.81 549.25 306.21 548.21 304.14 544.21 303.91 542.16 301.7 541.9 299.82 540.31 298.66 538.73 294.83 538.84 293.37 538.05 292.19 539.12 288.97 540.39 286.49 540.18 284.85 542.36 282.14 544.16 278.09 544.48 277.34 543.93 274.23 545.27 272.2 544.87 267.67 546.48 264.58 545.71 261.56 547.99 259.3 548.4 257.18 547.71 256.19 547.94 254.87 546.79 252.5 546.69 250.05 547.62 247.92 548.01 245.61 547.58 245.87 545.33 247.11 543.69 247.8 541.06 247.54 539.16 248.3 536.95 248.32 535.51 250.01 531.57 250.1 530.76 248.81 529.41 244.31 526.84 243.86 523.8 242.43 522.25 239.45 515.94 237.64 514.99 236.07 515.04 234.39 512.01 233.25 511.11 232.65 508.61 230.85 505.26 230.95 504.22 229.98 501.77 230.55 497.68 229.98 493.23 230.56 491.73 233.29 490.6 235.41 488.04 237.85 488.45 238.02 485.64 241.81 482.16 244.61 481.24 246.13 477.99 248.57 478.35 253.08 477.16 254.66 477.07 257.15 480.09 258.21 480.54 261.37 480.27 261.3 484.11 265.23 485.08 266.88 485.97 268.73 487.81 271.55 487.81 271.85 487.07 274.13 484.87 276.11 484.21 277.69 482.28 279.89 480.84 281.58 481.05 283.5 482.03 285.59 481.62 285.38 480.65 286.75 479.68 287.25 477.51 290.72 473.6 293.27 471.94 292.41 469.18 293.5 466.84 295.13 464.92 296.72 464.75 299.03 462.41 300.09 461.88 301.53 460.03 303.07 460.21 305.6 459.86 310.25 461.77 312.75 461.94 314.95 460.86 315.66 461.28 317.18 460.47 317.57 459.01 319.64 455.45 321.78 455.18 322.71 452.99 323.93 451.4 323.89 450.59 327.05 448.25 330.56 447.76 331.32 446.35 332.45 446.29 332.96 444.94 333 442.18 334.25 440.59 334.17 439.14 336.42 437.24 337.69 436.7 342.14 435.95 344.03 433.89 344.43 432.89 347.31 433.1 350.08 430.1 350.08 426.55 352.74 426.07 354.16 422.19 355.85 419.11 356.7 416.3 359.82 414.6 360.54 413.52 362.39 413.03 363.83 411.04 364.69 408.08 367.68 406.56 371.05 403.38 373.05 402.35 374.46 401.15 376.34 400.56 377.95 398.8 383.24 399.26 382.88 401 384.58 404.53 384.52 405.3 387.01 407.77 391.5 409.36 393.22 414.89 394.6 421.26 396.39 423.44 399.39 425.28 399.76 426.8 400.87 428.1 401.08 429.84 402.54 431.23 403.76 433.39 404.86 434.08 406.39 437.19 406.71 439.07 407.64 439.72 408.09 441.88 413.04 444.4 415.42 445.25 416.09 446.43 415.78 449.64 416.41 450.62 416.74 453.84 416.09 456.3 416.69 457.94 415.88 459.82 416.36 463.35 417.94 463.91 417.93 465.93 419.19 469.32 419.01 471.41 418.24 473.62 419.1 475.04 419.91 478.38 419.32 481.79 418.1 482.22 414.21 480.5 410.81 481.16 409.83 480.49 406.83 480.51 405.87 481.38 404.53 485.1 404.12 489.6 403.1 492.92 403.46 495.88 404.63 496.73 404.33 498.02 404.62 503.62 404.49 505.17 406.22 509.41 405.96 511.92 406.43 513.88 406.54 517.09 409.41 519.23 409.85 520.83 410.88 521.65 410.99 526.6 410.07 528.55 410.49 530.59 411.68 532.49 411.68 534.56 412.42 536.55 412.64 539.78 413.48 541.58 419.68 543.58 421.53 545.24 422.44 545.4 423.16 546.86 424.76 545.47 427.82 551.97 421.69 554.74 418.85 557.94 417.29 559.29 409.17 567.54 406.59 571.19 406.55 575.39 406.12 577.34 404.58 580.49 400.67 584.8 400.87 589.32 403.74 589.81 407.59 593.62 409.08 595.96 411.38 602.73 412.93 606.15 411.57 612.39 410.36 614.42 407.51 616.29 404.02 618.98 Z" id="38600110"/>
<path d="M 327.12 774.25 328.24 775.88 330.37 776.32 331.42 777.84 333.58 778.55 337.81 778.54 338.67 778.1 340.04 779.87 341.81 780.85 344.24 782.8 346.08 782.65 349.08 785.44 352.42 787.07 355.42 790.83 357.19 790.85 358.32 789.29 360.98 789.11 361.26 786.87 363.41 783.57 364.43 784.46 366.62 784.01 371.13 784.08 372.51 786.55 375.52 788.57 377.09 786.84 379.82 784.89 381.44 785.02 382.3 787.68 382.5 789.44 384.32 790.7 385.71 794.87 385.48 796.67 388.59 800.54 389.3 803.8 392.07 803.72 393.05 805.68 393.98 806.07 395.25 804.62 397.46 805.02 400.18 804.25 401.89 804.78 405.11 804.69 406.57 806.37 411.53 806.69 416.36 802.64 418.62 804.4 420.49 804.21 421.95 804.69 424.22 804.44 427.24 809.14 429.03 809.64 431.17 809.01 434.74 808.97 439.16 806.24 442.77 805.5 445.24 802.89 447.23 803.8 448.05 803.21 450.19 803.34 453.87 801.59 455.03 802.82 456.4 803.04 458.18 804.1 458.88 805.38 461.49 807.22 463.46 808.05 464.31 809.03 465.83 808.57 466.85 809.05 464.9 813.26 465.17 814.91 466.85 816.86 468.73 820.28 471.25 821.63 474.51 825.36 475.7 827.32 475.93 829.84 478.02 830.57 480.68 832.72 483.07 833.2 485.43 834.84 487.42 837.02 492.18 839.04 494.31 841.32 494.65 845.77 491.94 846.9 486.49 845.24 484.11 845.01 482.69 846.98 478.79 849.58 478.96 852.09 478.27 854.33 478.87 855.6 479.47 859.09 479.06 862.79 480.02 864.4 480.01 865.78 478.31 869.37 478.85 871.28 477.94 876.37 476.39 878.75 476.21 880.31 472.38 884.01 472.37 885.66 471.66 888.11 470.36 889.69 469.45 895.96 469.53 900.07 471.08 903.13 468.74 904.37 466.41 909.04 465.35 913.57 461.83 916.58 460.33 919.25 455.22 922.68 454.14 924.74 452.16 926.15 451.4 927.36 451.64 930.38 449.76 932.24 446.88 933.73 444.94 937.16 441.38 939.11 439.49 942.81 437.72 943.8 439.73 948.13 440.19 951.25 443.68 952.94 447.44 958.21 447.52 959.41 448.55 961.03 448.9 964.76 449.91 967.9 448.32 973.01 447.27 974.43 447.38 976.44 446.8 980.31 445.98 981.98 446.85 984.59 447.05 989.83 444.51 990.68 443.17 991.54 440.87 991.81 439.87 992.88 434.49 994.28 430.87 996.29 427.92 997.45 422.61 997.67 421.91 994.99 420.05 990.55 418.17 987.87 416.65 987.03 415.48 984.22 414.81 983.78 413.2 980.61 410.92 979.25 409.48 977.96 408.48 975.23 406.41 972.04 404.72 970.26 402.13 970.02 399.44 969.33 396.55 970.73 395.27 969.91 394.52 968.43 393.16 969.01 390.96 967.71 390.52 962.39 390.2 961.33 387.52 959.33 386.83 957.34 387.82 954.36 389.54 951.84 391.59 952.67 393.34 951.63 394.46 950.22 395.63 950.6 397.45 949.87 398.62 946.39 396.87 945.82 395.32 942.91 397.28 940.62 400.27 938.71 403.56 937.52 404.72 936.68 405.83 932.85 405.67 929.75 407.32 929.42 409.14 929.99 410.92 928.35 410.22 927.24 410.38 925.45 409.53 924.14 407.29 923.43 406.35 922.23 404.95 922.9 402.92 921.52 399.96 920.72 398.52 921.45 397.59 920.48 396.44 921.17 393.98 921.71 391.72 918.49 389.53 917.34 390.06 915.29 387.42 912.72 384.18 911.38 382.72 911.39 380.45 910.55 377.48 910.87 376.01 909.95 375.36 910.66 373.94 910.18 371.02 912.65 369.57 911.65 367.28 912.24 364.89 915.5 363.54 916.07 361.75 915.38 359.78 918.88 355.33 919.83 354.03 919.07 352.21 923.19 351.29 924.71 349.55 925.79 347.84 926.01 342.88 924.92 341.29 923.93 340.99 918.89 338.96 915.97 337.21 915.01 334.81 912.01 335.28 909.8 333.21 908.03 331.09 907.94 330.4 908.42 328.69 907.91 327.89 904.46 328.27 901.25 327 900.82 325.98 898.93 324.03 897.21 322.6 897.84 319.41 896.26 317.21 897.26 315.89 896.57 314.65 894.35 313.08 892.74 311.47 891.81 311.76 889.96 310.21 888.48 310.02 885.36 309.35 883.13 307.28 881.04 305.03 881 302.85 881.67 302.3 878.96 300.48 875.94 300.32 874.63 298.1 872.33 296.33 866.52 294.87 866.08 291.29 863.13 289.8 860.75 287.37 860.11 287.28 857.27 286.23 855.38 284.92 854.1 284.49 850.59 283.75 848.17 283.06 848.61 279.11 848.38 276.01 849.44 274.38 849.57 273.9 850.48 272.11 851 270.85 851.94 269.23 852.04 266.69 847.92 265.24 844.77 264.1 844.85 262.84 842.41 257.72 837.66 256.73 835.63 255.41 835.56 253.77 833.96 249.99 833.18 248.69 832.27 247.41 830.3 245.25 830.12 242.93 831.04 239.35 829.32 235.97 829.25 233.42 830.59 232.56 828.37 231.47 827.86 231.46 825.43 230.46 823.74 229.69 820.31 228.23 819.28 229.61 815.88 228.91 813.76 229.76 811.37 232.72 808.08 233.32 806.35 237.37 807.05 238.09 804.33 240.03 803.73 241.25 805.65 243.32 807.4 245.02 807.56 245.92 809.25 248.31 811.1 252.95 810.27 253.73 809.67 255.21 810.96 255.59 812.36 256.98 812.72 260.99 811.87 263.36 812.57 265.63 810.98 267.93 811.24 269.3 812.52 270.97 813.18 271.64 812.23 272.94 813.71 274.38 813.56 277.22 815.24 280.34 815.21 282.48 813.83 283.1 810.52 285.63 810.59 286.8 808.77 286.54 805.93 285.99 804.27 287.25 800.27 288.01 795.89 287.47 793.75 287.9 792.78 289.72 793.54 291.63 792.32 292.97 792.7 296.17 790.98 296.44 788.64 295.95 786.89 296.82 785.3 296.44 781.59 297.4 780.09 300.9 779.6 301.96 778.59 302.91 778.96 305.37 776.84 309.67 774.39 311.18 774.43 312.38 773.44 313.82 773.16 318.04 776.94 319.09 777.21 320.82 776.58 323.73 776.36 327.12 774.25 Z" id="38600420"/>
<path d="M 422.61 997.67 421.19 997.91 419.13 999.44 416.38 999.61 416.11 1000.44 413.47 1000.98 411.45 1000.96 407.08 1001.81 406.19 1001.3 404.38 1001.68 399.63 1004.36 395.72 1007.06 393.93 1008.61 392.27 1008.5 390.2 1009.05 388.03 1007.56 385.2 1008.47 384.13 1009.24 383.8 1011.31 380.35 1013.79 378.5 1014.24 377.67 1015.12 375.6 1014.82 374.83 1015.3 373.27 1018.26 369.9 1019.5 368.31 1020.97 366.69 1020.99 364.71 1019.5 362.64 1020.42 361.81 1019.27 360.35 1019.49 359.56 1021.11 357.86 1021.86 353.67 1020.93 344.23 1019.39 341.19 1019.96 340.64 1019.27 338.76 1018.89 337.19 1018.02 335.01 1017.75 332.85 1017.01 330.72 1019.07 328.79 1020.37 328.59 1022.2 327.85 1023.46 326.61 1024.1 327.47 1025.85 328.92 1025.79 328.96 1027.56 328.35 1028.32 329.1 1032.01 328.9 1034.03 328.02 1035.01 328.82 1037.06 330.46 1037.49 332.27 1040.56 334.18 1047.33 335.66 1050.03 333.96 1050.61 332.12 1050.62 331.18 1052.23 329.78 1052.36 327.61 1050.59 326.36 1048.6 324.54 1047.75 323.45 1045.28 322.16 1040.63 320.68 1040.28 320.36 1039.01 319.23 1039 317.27 1040.77 315.9 1040.49 313.52 1038.96 312.46 1036.95 309.25 1037.52 308.12 1035.48 306.46 1035.85 305.32 1035.38 304.51 1033.04 304.8 1032.22 303.41 1029.81 302.13 1029.69 300.98 1031.78 299.28 1033.27 297.31 1033.96 294.6 1037.69 292.82 1040.51 292.48 1041.7 287.77 1042.74 287.06 1044.6 286.06 1048.91 285.28 1050.07 282.37 1051.42 280.45 1053.65 278.55 1054.29 277.21 1055.91 276.87 1058.3 277.09 1060.58 275.56 1062.03 271.85 1062.88 265.34 1063 260.39 1062.72 255.78 1061.4 249.67 1060.27 247 1059.23 245.39 1058.59 242.82 1058.32 242.49 1057.78 244.47 1053.92 247.16 1052.44 249.24 1049.96 251.08 1049.76 253.35 1047.74 254.68 1046.08 255.22 1042.1 257.42 1039.48 258.31 1035.33 259.14 1033.64 258.39 1032.08 255.39 1031.67 253.4 1029.26 251.52 1028.36 248.22 1024.49 247.06 1021.82 247.25 1018.91 246.22 1018.1 244.58 1017.81 242.82 1014.8 238.01 1013.9 233.4 1015.15 228.29 1015.26 226.78 1013.54 226.95 1010.62 226.33 1008.53 226.41 1007.17 224.38 1005.85 223.61 1004.68 218.33 1000.82 217.53 1000.76 215.59 998.54 215.86 996.95 214.21 995.17 213.04 992.97 213.64 992.06 213.64 990.16 214.29 987.46 215.11 986.35 215.14 984.93 211.56 982.22 209.68 982.32 208.3 979.57 206.95 979.55 204.37 978.59 203.5 977.81 202.25 978.01 201.69 976.42 202.05 975.44 200.31 972.93 199.74 968.21 196.54 964.3 196.59 961.93 196.04 959.68 194.08 956.96 193.03 954.57 193.13 953.05 190.36 949.89 188.78 949.27 189.55 946.47 189.53 944.23 190.77 941.21 191.14 938.1 195.59 936.39 198.61 936.53 199.41 937.99 202.95 936.33 205.31 935.94 206.13 935.18 208 935.02 210.88 933.87 212.76 935.79 213.63 937.25 217.21 941.28 217.27 942.39 218.59 945.44 222.87 945.48 226.57 946.23 231.17 948.08 234.86 948.94 237.11 948.55 239.35 948.78 241.72 949.57 243 948.68 248.94 951.26 249.63 947.3 247.86 942.95 250.65 938.94 250.52 937.6 251.44 936.15 252.68 933.07 250.8 929.59 250.4 927.86 248.76 926.45 247.4 919.68 244.55 915.61 246.6 912.96 246.78 910.53 246.38 908.61 248.92 906.07 252.76 904.87 254.63 903.53 257.36 903.18 256.78 900 257.21 899.21 257.18 895.82 257.99 894.54 258.02 892.87 257.22 891.81 255.94 887.34 255.35 884.11 256.22 881.9 254.41 879.18 252.6 878.83 250.77 875.78 249.05 873.85 245.41 873.2 244.44 871.33 242.79 870.24 241.17 870.35 240.84 868.45 239.56 867.34 239.96 865.37 239.19 863.77 236.84 862.25 235.75 859.91 232.43 860.13 231.18 860.62 229.15 860.08 230.47 857.2 228.53 852.25 227.35 851.26 228.23 849.67 228.17 847.41 227.65 846.48 228.9 844.96 229.33 842.46 229 837.1 229.49 835.14 230.78 834.59 233.13 832.41 233.42 830.59 235.97 829.25 239.35 829.32 242.93 831.04 245.25 830.12 247.41 830.3 248.69 832.27 249.99 833.18 253.77 833.96 255.41 835.56 256.73 835.63 257.72 837.66 262.84 842.41 264.1 844.85 265.24 844.77 266.69 847.92 269.23 852.04 270.85 851.94 272.11 851 273.9 850.48 274.38 849.57 276.01 849.44 279.11 848.38 283.06 848.61 283.75 848.17 284.49 850.59 284.92 854.1 286.23 855.38 287.28 857.27 287.37 860.11 289.8 860.75 291.29 863.13 294.87 866.08 296.33 866.52 298.1 872.33 300.32 874.63 300.48 875.94 302.3 878.96 302.85 881.67 305.03 881 307.28 881.04 309.35 883.13 310.02 885.36 310.21 888.48 311.76 889.96 311.47 891.81 313.08 892.74 314.65 894.35 315.89 896.57 317.21 897.26 319.41 896.26 322.6 897.84 324.03 897.21 325.98 898.93 327 900.82 328.27 901.25 327.89 904.46 328.69 907.91 330.4 908.42 331.09 907.94 333.21 908.03 335.28 909.8 334.81 912.01 337.21 915.01 338.96 915.97 340.99 918.89 341.29 923.93 342.88 924.92 347.84 926.01 349.55 925.79 351.29 924.71 352.21 923.19 354.03 919.07 355.33 919.83 359.78 918.88 361.75 915.38 363.54 916.07 364.89 915.5 367.28 912.24 369.57 911.65 371.02 912.65 373.94 910.18 375.36 910.66 376.01 909.95 377.48 910.87 380.45 910.55 382.72 911.39 384.18 911.38 387.42 912.72 390.06 915.29 389.53 917.34 391.72 918.49 393.98 921.71 396.44 921.17 397.59 920.48 398.52 921.45 399.96 920.72 402.92 921.52 404.95 922.9 406.35 922.23 407.29 923.43 409.53 924.14 410.38 925.45 410.22 927.24 410.92 928.35 409.14 929.99 407.32 929.42 405.67 929.75 405.83 932.85 404.72 936.68 403.56 937.52 400.27 938.71 397.28 940.62 395.32 942.91 396.87 945.82 398.62 946.39 397.45 949.87 395.63 950.6 394.46 950.22 393.34 951.63 391.59 952.67 389.54 951.84 387.82 954.36 386.83 957.34 387.52 959.33 390.2 961.33 390.52 962.39 390.96 967.71 393.16 969.01 394.52 968.43 395.27 969.91 396.55 970.73 399.44 969.33 402.13 970.02 404.72 970.26 406.41 972.04 408.48 975.23 409.48 977.96 410.92 979.25 413.2 980.61 414.81 983.78 415.48 984.22 416.65 987.03 418.17 987.87 420.05 990.55 421.91 994.99 422.61 997.67 Z" id="38600430"/>
<path d="M 219.6 366.39 217.39 368.73 212.33 368.42 209.86 370.25 207.1 371.58 205.31 374.16 203.27 376.44 199.58 376.89 197.97 378.21 195.79 381.2 195.46 382.72 196.12 387.93 196 389.7 196.48 393.95 197.25 396.02 198.87 398.79 202.28 400.81 201.89 407.63 202.68 408.59 202.93 412.1 203.8 412.56 204.71 414.61 204.84 416.37 206.12 418.76 207.64 420.34 207.92 422.73 206.98 423.89 208.5 426.9 208.17 429.04 210.94 432.35 212.26 432.11 214 433.02 218.47 433.11 219.65 431.92 222.13 432.98 224.01 435.21 225.51 434.97 229.01 441.37 230.69 441.15 231.94 442.68 233.03 443.16 233.54 445.31 236.65 445.21 237.55 447.67 238.65 447.81 240.5 450.91 240.45 451.62 242.04 453.54 244.62 454.87 245.13 455.85 246.6 456.53 248.04 459.76 246.88 460.8 247.78 463.24 247.26 465.25 249.24 467.84 249.64 470.29 251.29 473.72 252.81 474.51 253.08 477.16 248.57 478.35 246.13 477.99 244.61 481.24 241.81 482.16 238.02 485.64 237.85 488.45 235.41 488.04 233.29 490.6 230.56 491.73 229.98 493.23 230.55 497.68 229.98 501.77 230.95 504.22 230.85 505.26 232.65 508.61 233.25 511.11 234.39 512.01 236.07 515.04 237.64 514.99 239.45 515.94 242.43 522.25 243.86 523.8 244.31 526.84 248.81 529.41 250.1 530.76 250.01 531.57 248.32 535.51 248.3 536.95 247.54 539.16 247.8 541.06 247.11 543.69 245.87 545.33 245.61 547.58 245.19 548.92 242.41 549.97 240.59 550.15 238.08 551.69 235.22 555.43 233.51 556.82 230.28 560.69 229.91 561.91 228.77 562.59 228.11 563.93 227.96 565.75 224.64 568.33 224.64 569.65 222.74 570.23 223.1 572.68 221.06 575.88 219.77 576.73 218.69 578.58 218.18 582.03 216 582.49 216.33 583.71 215.64 585.53 214.31 585.95 214.54 589.22 211.56 592.58 210.57 596.08 210.28 600.07 208.77 601.25 208.58 602.61 207.51 603.27 206.2 606.66 204.08 607.55 204.34 609.38 202.74 609.85 201.53 611.02 201.42 612.79 199.19 615.31 197.29 615.81 196.85 617.9 194.42 618.86 191.36 618.91 191.45 620.08 188.64 621.34 188.31 622.56 185.85 623.39 184.69 624.66 183.73 624.76 182.4 623.26 182.19 621.05 180.46 619.46 178.97 616.79 178.34 614.6 173.57 610.84 168.39 609.36 167.24 608.55 166.98 606.84 163.63 604.15 163.3 605.85 161.57 605.35 160.86 611.25 158.89 615.02 158.54 617.99 159.26 619.64 161.79 623.39 163.09 625.87 162.75 627.23 158.81 627.17 156.52 626.02 150.73 624.21 143.79 620.73 142.32 620.21 142.16 618.76 140.91 614.34 139.03 609.63 137.03 607.93 133.22 607.6 131.29 608.13 129.34 609.35 128.2 611.22 127.74 615.38 128.65 616.53 125.9 620.57 126.04 622.93 127.08 627.22 123.44 627.79 121.59 626 121.38 623.5 119.41 620.77 119.2 619.24 120.04 618.01 119.14 616.41 119.12 614.95 118.23 614.11 118.57 612.96 117.41 611.59 117.59 605.23 116.56 605.99 109.91 609.28 108.66 610.71 106.39 611.8 104.76 610.74 103.89 611.26 101.17 610.52 99.1 611.96 97.59 611.66 95.28 612.83 93.82 611.84 93.1 612.39 89.58 613.35 88.44 614.22 86.41 614.68 84.69 614.51 83.23 613.16 81.15 614.34 80.28 615.82 76.58 617.84 75.82 617.44 73.35 619.21 71.71 621.36 68.26 623.25 63.52 625.28 62.99 626.28 59.98 627.97 56.63 625.25 55.53 623.82 50.66 625.47 48 628.29 46.27 628.66 45.26 630.24 43.14 630.16 41.1 631.08 39.86 630.49 40.56 623.43 41.15 621.96 39.96 619.21 40.78 617.69 39.57 615.54 40.31 614.02 43.98 614.95 45.53 615.78 49.21 615.93 50.16 614.65 52.41 612.73 52 610.06 52.34 606.9 52.01 604.68 50.72 602.25 50.53 598.68 49.7 597.91 49.58 596.35 48.76 594.26 49.61 591.77 49.61 590.5 50.43 588.97 50.32 585.85 50.9 584.09 51.31 580.02 52.28 578.16 54.11 576.28 54.38 574.71 56.14 572.89 55.67 569.89 58.44 568.46 59.38 565.45 59.4 562.36 60.68 560.48 61.68 557.84 62.66 553.96 62.82 551.44 61.93 547.39 62.76 545.16 61.95 543.55 59.55 542.62 58.69 540.66 58.51 538.71 56.33 537.16 54.74 532.15 54.6 529.55 55.08 527.05 55.84 526.02 56.07 521.33 57.55 516.71 57.42 514.12 61.9 513.83 63.44 512.23 64.18 512.45 67.5 511.75 71.24 510.15 71.8 510.88 76.3 510.9 77.5 510.38 79.04 510.94 81.07 509.9 81.89 508.54 83.01 508.22 84.4 509.03 88.2 508.79 84 502.99 83.8 502.35 84.93 500.27 83.72 498.86 83.88 496.24 81.85 491.63 82.23 486.9 81.01 485.69 81.38 484.61 80.39 483.28 80.32 480.73 81.04 479.85 85.8 475.41 89.67 470.23 88.86 468.59 87.58 465.61 85.33 461.66 85.48 459.57 87.28 456.08 89.38 453.16 92.29 452.77 93.22 448.81 93.31 447.38 95.83 448.42 96.26 447.34 98.18 447.03 99.94 444.87 101.8 444.43 102.64 442.5 106.1 441.79 108.63 439.5 110.42 439.75 111.05 438.83 114.54 436.1 115.69 436.24 118.76 434.43 119.31 432.9 118.64 432.18 119.69 429.88 119.58 428.03 122.08 425.52 122.02 423.92 122.61 421.61 123.31 420.83 123.25 416.86 124.12 414.1 124.78 413.23 127.88 413.21 129.68 412.61 131.6 413.16 135.51 410.33 140.59 408.61 142.55 405.7 146.07 404.23 149.58 403.33 152.92 403.03 156.58 399.4 158.89 399.19 160.02 397.69 160.52 396.14 164.28 394.21 166.33 394.81 167.8 393.38 169.37 388 169.07 385.43 168.15 384.3 168.58 382.22 169.68 379.66 168.77 376.56 169.73 374.61 172.16 371.8 168.93 366.71 169.19 365.62 168.26 364.46 167.61 362.14 170.03 362.74 172.76 362.3 174.48 361.26 176.75 358.94 178.76 356.39 178.86 353.79 182.23 352.52 183.63 351.28 187.4 349.55 191.41 349.3 194.23 348.82 195.83 347.04 197.37 346.26 200.66 345.96 203.28 346.42 204.57 346.14 208.52 343.77 211.5 345.68 211.59 347.64 212.77 349.45 214.14 352.98 213.94 355.62 215.58 357.68 215.83 359.94 217.52 363.42 219.6 366.39 Z" id="38600310"/>
<path d="M 384.02 376.44 383.64 380.55 385.49 384.22 386.26 387.34 386.6 390 386.21 392.21 387.15 394.05 385.98 395.14 383.24 399.26 377.95 398.8 376.34 400.56 374.46 401.15 373.05 402.35 371.05 403.38 367.68 406.56 364.69 408.08 363.83 411.04 362.39 413.03 360.54 413.52 359.82 414.6 356.7 416.3 355.85 419.11 354.16 422.19 352.74 426.07 350.08 426.55 350.08 430.1 347.31 433.1 344.43 432.89 344.03 433.89 342.14 435.95 337.69 436.7 336.42 437.24 334.17 439.14 334.25 440.59 333 442.18 332.96 444.94 332.45 446.29 331.32 446.35 330.56 447.76 327.05 448.25 323.89 450.59 323.93 451.4 322.71 452.99 321.78 455.18 319.64 455.45 317.57 459.01 317.18 460.47 315.66 461.28 314.95 460.86 312.75 461.94 310.25 461.77 305.6 459.86 303.07 460.21 301.53 460.03 300.09 461.88 299.03 462.41 296.72 464.75 295.13 464.92 293.5 466.84 292.41 469.18 293.27 471.94 290.72 473.6 287.25 477.51 286.75 479.68 285.38 480.65 285.59 481.62 283.5 482.03 281.58 481.05 279.89 480.84 277.69 482.28 276.11 484.21 274.13 484.87 271.85 487.07 271.55 487.81 268.73 487.81 266.88 485.97 265.23 485.08 261.3 484.11 261.37 480.27 258.21 480.54 257.15 480.09 254.66 477.07 253.08 477.16 252.81 474.51 251.29 473.72 249.64 470.29 249.24 467.84 247.26 465.25 247.78 463.24 246.88 460.8 248.04 459.76 246.6 456.53 245.13 455.85 244.62 454.87 242.04 453.54 240.45 451.62 240.5 450.91 238.65 447.81 237.55 447.67 236.65 445.21 233.54 445.31 233.03 443.16 231.94 442.68 230.69 441.15 229.01 441.37 225.51 434.97 224.01 435.21 222.13 432.98 219.65 431.92 218.47 433.11 214 433.02 212.26 432.11 210.94 432.35 208.17 429.04 208.5 426.9 206.98 423.89 207.92 422.73 207.64 420.34 206.12 418.76 204.84 416.37 204.71 414.61 203.8 412.56 202.93 412.1 202.68 408.59 201.89 407.63 202.28 400.81 198.87 398.79 197.25 396.02 196.48 393.95 196 389.7 196.12 387.93 195.46 382.72 195.79 381.2 197.97 378.21 199.58 376.89 203.27 376.44 205.31 374.16 207.1 371.58 209.86 370.25 212.33 368.42 217.39 368.73 219.6 366.39 222.21 365.29 225.46 363.45 226.27 358.09 227.9 355.73 229.87 349.28 230.23 345.86 231.8 344.24 235.1 342.23 236.59 340.77 238.99 339.16 243.46 337.68 247.22 337.3 249.32 338.3 258.13 339.15 259.01 333.34 259.95 330.11 260.25 327.75 262.32 324.65 264.41 324.69 268.82 325.89 270.55 325.01 276 324.23 279.5 322.63 279.69 321.69 281.64 321.72 281.9 320.86 281.27 318.37 282.6 315.73 284.14 314.26 287.37 312.68 290.96 311.56 292.9 312.43 298.22 311.2 300.43 312.9 303.74 311.13 309.21 313.94 311.42 313.59 313.55 311.58 314.2 310.04 317.34 304.43 318.53 303.16 321.08 303.73 321.86 302.28 322.44 303.89 325.06 304.51 326.58 305.57 331.91 310.71 335.6 310.16 338.81 311.43 340.33 311.28 342.29 312.6 344.01 313.15 344.54 315.06 345.46 316.09 345.23 317.36 345.72 319.31 349.26 321.08 351.1 320.15 352.7 320.35 353.99 319.42 356.91 319.68 357.34 321.41 360.03 323.65 362.98 326.6 361.93 327.87 362.48 330.46 366.99 333.39 371.74 334.04 375.54 335.19 376.56 338.22 373.03 340.82 372.84 343.11 374.15 347.27 373.17 348.58 371.52 347.38 370.39 348.55 368.67 352.2 366.45 354.59 366.55 357.04 367.14 358.39 366.91 361.47 371.63 362.76 375.07 362.42 377.51 363.2 379.97 365.48 380.78 369.31 381.98 370.86 381.91 372.66 382.51 375.54 384.02 376.44 Z" id="38600320"/>
<path d="M 310.86 22.93 312.66 28.38 313.72 29.75 312.59 31.48 312.46 33.17 311.54 37.45 310.11 41.27 311.24 41.6 312.24 44.82 309.05 47.27 309.33 50.82 308.56 53.34 309.34 57.71 311.95 61.39 311.32 61.87 310.91 64.71 309.21 66.27 310.19 67.29 311.19 70.66 312.83 71.13 314.25 72.25 313.86 73.2 314.85 75.88 317.4 80.35 318.62 81.18 318.89 82.97 320.58 85.7 322.15 87.17 321.69 90.1 322.38 95.57 322.11 98.49 324.47 98.62 325.65 99.22 328.39 101.87 328.82 101.87 333.41 106.16 335.55 108.63 338.82 109.92 342.61 110.2 344.19 109.27 346.77 109.62 350.48 108.59 352.48 108.35 354.83 109.44 355.88 109.26 358.27 110.27 360.12 109.91 362.54 107.83 366.4 105.85 370.14 104.55 370.94 107.25 373.05 108.7 375.82 109.07 378.91 110.8 377.16 115.86 378.62 117.98 378.84 119.03 381.67 122.98 383.73 123.22 386.23 124.19 387.79 125.51 386.64 129.05 386.41 131.67 385.21 135.18 384.63 138.08 384.14 138.5 384.19 142.7 380.99 145.61 378.21 145.61 376.11 146.61 375.58 147.86 374.43 148.05 371.28 150.41 367.69 151.91 366.98 152.76 364.84 153.49 363.11 156.16 363.75 158.5 361.67 160.24 358.36 160.77 356.76 163.38 356.31 165.57 356.08 169.81 354.62 171.74 355.85 174.84 355.28 176.52 355.69 178.46 354.27 179.96 351.64 180.73 348.65 181.18 346.42 182.56 342.74 183.69 340.51 181.84 340.58 183.69 339.6 185.07 337.88 184.68 336.49 185.56 337.44 187.55 337.91 189.66 337.36 190.72 335.47 191.8 334.62 193.35 335.15 195.48 335.07 197.34 335.83 199.75 334.25 202.36 335.27 205.17 335.03 207.08 337.61 207.91 339.83 210.45 343.4 211.03 348.47 214.47 349.22 215.65 351.52 216.25 354.57 220.14 354.44 221.34 353.18 223.59 353.55 226.07 355.08 227.37 356.8 230.48 357.81 230.74 360.02 229.4 361.32 231.03 362.98 231.2 363.91 232.95 363.1 233.77 363.65 235.54 362.56 237.8 359.23 240.31 358.39 241.42 357.22 244.43 355.02 247.02 354.37 250.09 353.4 252.23 355.61 254.43 356.78 258.49 355.26 260.16 354.84 266.79 350.9 267.74 349.94 267.11 348.19 267.61 346.44 268.75 345.73 270.23 346.34 271.98 345.91 273.22 346.75 275.07 345.11 275.05 344.32 276.98 342.36 278.85 341.24 281.19 339.48 282.6 337.74 284.99 337.78 285.99 336.65 288.85 337.34 290.29 336.16 293.86 332.47 293.36 330.18 294.17 327.24 294.7 323.92 294.16 321.42 295.48 322.16 297.17 322.2 300.28 321.86 302.28 321.08 303.73 318.53 303.16 317.34 304.43 314.2 310.04 313.55 311.58 311.42 313.59 309.21 313.94 303.74 311.13 300.43 312.9 298.22 311.2 292.9 312.43 290.96 311.56 287.37 312.68 284.14 314.26 282.6 315.73 281.27 318.37 281.9 320.86 281.64 321.72 279.69 321.69 279.5 322.63 276 324.23 270.55 325.01 268.82 325.89 264.41 324.69 262.32 324.65 258.44 323.07 250.85 320.36 250.92 319.63 248.65 317.87 247.18 317.89 244.79 316.4 242.42 316.05 239.49 316.12 236.2 313.57 234.25 313.23 233.02 310.57 230.75 308.15 229.73 308.58 224.38 301.52 223.06 301.2 222.63 298.95 223.26 297.06 224.58 294.75 225.32 292.17 224.98 291.51 225.37 289.08 224.36 287.07 223.1 281.34 223.37 280.1 223.04 277.66 221.78 273.38 221.51 268.01 221.98 263.06 218.84 260.56 218.39 258.84 216.25 255.11 214.97 254.35 207.97 251.23 205.7 250.75 204.09 251.05 201.9 250.28 198.96 249.94 198.34 245.51 198.9 242.95 197.9 239.35 196.8 237 194.97 234.5 194.33 229.86 192.54 224.48 190.08 219.67 189.26 217.11 188.32 212.64 184.48 208.85 181.64 204.95 181.21 203.34 181.33 201.03 180.98 198.15 179.57 196.09 177.86 194.41 167.88 188.52 166.15 186.54 165.79 185.31 168.33 183.39 169.29 181.63 169.75 179.72 170.77 178.99 173.09 175.29 174.66 174.79 175.75 172.48 175.26 169.14 178.26 164.7 177.49 163.07 177.16 160.38 176.38 157.72 177.06 152.76 175.94 151.39 174.25 150.85 173.72 148.73 174.77 147.16 174.17 144.58 175.74 141.67 178.01 138.82 178.17 136.94 180.13 134.57 178.46 130.67 176.19 128.59 176 125.74 174.1 124.63 170.76 124.58 169.76 124.08 166.52 124.07 165.28 121.99 162.92 122.25 161.72 121.62 158.63 121.85 156.96 120.58 155.6 117.68 154.04 116.65 153 114.57 151.68 113.24 152.04 112.31 150.73 111.46 150.35 109.06 147.76 107.9 148.22 106.2 149.35 105.41 148.65 104.26 150.82 100.65 151.7 99.98 153.25 96.88 155.68 95.53 156.95 95.93 158.23 95.07 158.31 92.83 161.89 92.64 163.52 91.23 164.84 88.97 168.37 88.19 171.59 86.63 172.18 84.95 171.64 83.77 172.34 82.38 171.91 78.82 174.52 76.1 175.38 74.56 174.13 73.14 173.76 71.7 175.13 69.07 176.84 68.59 177.87 66.66 179.31 65.06 181.14 64.02 181.78 62.47 185.22 63.28 186.42 62.21 187.83 62.56 189.62 62.12 192.27 63.81 194.32 63.81 198.15 60.67 200.39 61.76 201.99 61.97 206.82 60.36 209.04 61.22 210.59 61.21 213.46 57.6 213.13 55.06 215.62 54.22 217.22 53 217.22 52.12 218.86 48.71 220.54 44.44 221.25 44.49 223.54 42.06 228.56 41.5 230.43 40.74 231.47 38.34 232.67 37.49 237.86 36.37 239.54 35.04 238.16 31.53 237.93 27.98 238.6 25.77 237.89 23.9 238.84 21.47 240.66 20 241.32 17.72 242.69 16.4 242.89 14.09 244.54 12.53 247.15 11.11 247.99 7.54 249.34 5.51 250.47 4.86 251.18 5.02 254.02 3.44 254.68 2.25 257.96 1.05 260.15 1 262.1 1.57 265.84 5.4 267.44 6.27 271.19 7.24 272.05 8.02 274.28 7.99 275.24 9.25 277.83 10.25 281.57 13.93 282.78 15.71 283.66 16.11 285.18 18.19 288.22 19.88 297.08 20.69 299.61 20.69 303.93 17.37 306.72 21.37 310.86 22.93 Z" id="38600330"/>
<path d="M 435.92 184.02 434.79 187.89 438.79 192.55 439.28 194.1 440.38 199.83 441.04 201.4 442.66 206.94 444.24 210.57 444.32 213.57 444.91 214.5 447.35 214.55 448.88 216.15 452.76 218.41 453.01 219.15 452.83 223.74 450.38 229.35 450.45 231.82 453.59 235.96 454.33 238.08 454.92 241.24 455.89 241.95 458.28 247.26 459.25 248.23 458.32 250.64 456.9 252.57 455.89 254.83 459.83 255.51 460.71 257.33 459.91 258.5 461.28 260.92 460.6 262.22 460.96 263.93 460.8 268.47 461.8 270.67 461.9 273.92 460.56 276.89 458.96 277.63 457.78 279.93 458.12 284.07 458.96 286.57 460.27 288.16 460.25 289.38 462.64 292.35 463.66 294.19 464.33 299.39 464.95 301 464.59 302.55 464.83 304.55 466.08 306.92 466.24 309.85 465.53 312.05 464.56 313.49 462.7 317.98 463.23 322.45 465.47 325.84 465.77 327.41 464.74 330.22 464.85 332.33 467.01 337.88 461.95 338.4 460.62 337.16 456.7 336.65 455.14 337.27 455.03 339.25 453.74 339.63 454.76 341.68 451.82 343.77 448.38 344.54 444.08 342.85 443.98 345.21 443.44 348.36 441.95 349.96 439.86 348.86 438.93 347.85 436.98 346.86 434.3 348.05 432.03 347.55 428.54 347.21 428.11 354.77 426.64 354.89 425.21 355.69 425.09 357.25 422.94 358.06 419.71 363.39 418.92 363.61 414.09 361.13 412.93 360.84 411.18 361.66 410.04 362.89 408.31 363.64 399.6 362.06 396.79 361.85 395.97 361.23 392.67 362.66 391 362.73 389.19 365.59 388.07 366.07 388.29 368.79 387.76 371.9 386.09 373.46 384.02 376.44 382.51 375.54 381.91 372.66 381.98 370.86 380.78 369.31 379.97 365.48 377.51 363.2 375.07 362.42 371.63 362.76 366.91 361.47 367.14 358.39 366.55 357.04 366.45 354.59 368.67 352.2 370.39 348.55 371.52 347.38 373.17 348.58 374.15 347.27 372.84 343.11 373.03 340.82 376.56 338.22 375.54 335.19 371.74 334.04 366.99 333.39 362.48 330.46 361.93 327.87 362.98 326.6 360.03 323.65 357.34 321.41 356.91 319.68 353.99 319.42 352.7 320.35 351.1 320.15 349.26 321.08 345.72 319.31 345.23 317.36 345.46 316.09 344.54 315.06 344.01 313.15 342.29 312.6 340.33 311.28 338.81 311.43 335.6 310.16 331.91 310.71 326.58 305.57 325.06 304.51 322.44 303.89 321.86 302.28 322.2 300.28 322.16 297.17 321.42 295.48 323.92 294.16 327.24 294.7 330.18 294.17 332.47 293.36 336.16 293.86 337.34 290.29 336.65 288.85 337.78 285.99 337.74 284.99 339.48 282.6 341.24 281.19 342.36 278.85 344.32 276.98 345.11 275.05 346.75 275.07 345.91 273.22 346.34 271.98 345.73 270.23 346.44 268.75 348.19 267.61 349.94 267.11 350.9 267.74 354.84 266.79 355.26 260.16 356.78 258.49 355.61 254.43 353.4 252.23 354.37 250.09 355.02 247.02 357.22 244.43 358.39 241.42 359.23 240.31 362.56 237.8 363.65 235.54 363.1 233.77 363.91 232.95 362.98 231.2 361.32 231.03 360.02 229.4 357.81 230.74 356.8 230.48 355.08 227.37 353.55 226.07 353.18 223.59 354.44 221.34 354.57 220.14 351.52 216.25 349.22 215.65 348.47 214.47 343.4 211.03 339.83 210.45 337.61 207.91 335.03 207.08 335.27 205.17 334.25 202.36 335.83 199.75 335.07 197.34 335.15 195.48 334.62 193.35 335.47 191.8 337.36 190.72 337.91 189.66 337.44 187.55 336.49 185.56 337.88 184.68 339.6 185.07 340.58 183.69 340.51 181.84 342.74 183.69 346.42 182.56 348.65 181.18 351.64 180.73 354.27 179.96 355.69 178.46 355.28 176.52 355.85 174.84 354.62 171.74 356.08 169.81 356.31 165.57 356.76 163.38 358.36 160.77 361.67 160.24 363.75 158.5 363.11 156.16 364.84 153.49 366.98 152.76 367.69 151.91 371.28 150.41 374.43 148.05 375.58 147.86 376.11 146.61 378.21 145.61 380.99 145.61 384.19 142.7 386.01 148.18 387.96 151.32 388.17 153.31 387.09 155.17 387.63 156.31 387.18 157.59 390.57 156.82 393.7 158.81 396.63 160.08 399.1 163.49 401.06 163.68 402.57 165.41 404.71 166.59 406.33 166.97 411 168.86 413.5 169.53 416.45 170.93 417.18 172 420.09 173.35 421.95 175.36 423.52 176.54 427.41 177.91 430.18 178.4 432.38 179.61 436.14 183.1 435.92 184.02 Z" id="38600340"/>
<path d="M 514.76 438.99 515.83 440.01 515.81 443.55 517.38 444.39 517.17 448.09 517.81 450.26 519.27 452.61 518.13 454.42 518.01 455.8 519.45 456.51 521.74 458.64 523.27 462.53 524.71 463.83 525.86 463.85 528.19 466.49 528.22 469.35 529.17 471.63 528.39 472.67 526.48 473.21 524.91 473.03 522.8 474.21 524.96 475.49 524.48 477.05 526.25 478.16 527.78 480.09 530.89 481.97 532.64 483.73 535.42 490.21 537.82 496.38 539.22 502.61 540.39 512.82 540.97 516.59 541.35 521.65 543.82 527.03 545.31 529.21 546.62 530.17 549.44 531.13 556.54 530.91 559.75 530.49 561.99 529.6 564.48 529.34 565.86 529.9 574.85 532.54 579.38 534.55 581.46 535.85 585.31 539.94 588.49 544.4 588.95 547.62 588.54 549.84 584.68 553.15 584.07 554.16 579.2 557.9 575.42 560.52 571.48 562.96 568.99 566.08 568.73 567.85 569.25 569.96 570.74 572.39 573.01 574 572.46 574.79 568.73 572.88 565.54 574.46 565.07 575.42 562.6 575.4 562.15 576.69 560.78 578.09 559.63 580.56 559.93 582.02 562.18 581.97 563.19 584.37 564.36 586.2 564.13 587.29 565.92 588.91 567.41 591.01 568.86 591.05 571.33 594.71 572.19 596.73 573 597.08 576.03 602.23 578.42 603.02 577.8 603.82 574.81 605.15 571.99 604.92 568.97 603.77 566.45 600.75 563.3 600.63 562.31 599.17 558.64 596.73 556.67 594.02 555.47 595.6 553.71 595.52 552.34 596.78 551.26 596.66 549.66 595.45 548.59 596.64 546.91 597.36 544.68 597.2 542.12 598 537.39 597.24 536.84 598.19 537.26 600.19 536.86 603.54 535.4 605.5 534.94 606.95 532.7 606.83 531.92 606.3 528.6 607 527.59 608.2 527.38 610.95 528.16 612.12 527.5 614.99 524.89 617.82 523.65 618.11 522.57 619.21 521.54 619.23 520 621.43 519.53 622.82 516.41 625.08 512.04 626.13 509.99 627.97 507.47 628.56 505.99 630.85 506.62 631.94 506.13 636.99 506.73 640.91 506.32 641.83 507.49 645.44 506.27 652 504.42 653.01 503.46 654.11 501.07 655.36 500.25 656.83 500.04 660.78 497.53 662.59 495.97 663.21 496.72 665 496.68 666.51 495.94 668.53 495.6 672.04 496.29 675.5 494.36 678.63 494.74 681.18 490.57 679.78 488.29 678.69 486.15 678.36 485.39 677.49 482.82 677.75 481.11 678.51 474.47 678.09 472.96 678.55 470.69 679.93 467.08 681.53 464.26 680.15 462.96 680.65 459.6 678.22 457.27 677.94 454.61 674.26 453.11 674.52 449.48 673.07 448.23 673.22 447.97 668.03 447 666.62 446.46 664.17 445.26 663.05 443.04 662.99 441.56 661.43 440.43 659.26 435.31 653.47 433.59 653.22 430.51 652.01 426.47 648.01 425.04 643.22 423.18 640.04 421.82 638.21 421.39 636.41 419.69 635.52 420.55 634.52 420.27 630.65 419.39 627.52 418.4 626.57 418 623.76 419.04 620.98 417.71 616.2 415.57 615.61 414.85 616.94 414.56 619.11 413.59 622.23 411.84 624.69 409.94 625.56 407.23 622.73 404.02 618.98 407.51 616.29 410.36 614.42 411.57 612.39 412.93 606.15 411.38 602.73 409.08 595.96 407.59 593.62 403.74 589.81 400.87 589.32 400.67 584.8 404.58 580.49 406.12 577.34 406.55 575.39 406.59 571.19 409.17 567.54 417.29 559.29 418.85 557.94 421.69 554.74 427.82 551.97 424.76 545.47 423.16 546.86 422.44 545.4 421.53 545.24 419.68 543.58 413.48 541.58 412.64 539.78 412.42 536.55 411.68 534.56 411.68 532.49 410.49 530.59 410.07 528.55 410.99 526.6 410.88 521.65 409.85 520.83 409.41 519.23 406.54 517.09 406.43 513.88 405.96 511.92 406.22 509.41 404.49 505.17 404.62 503.62 404.33 498.02 404.63 496.73 403.46 495.88 403.1 492.92 404.12 489.6 404.53 485.1 405.87 481.38 406.83 480.51 409.83 480.49 410.81 481.16 414.21 480.5 418.1 482.22 419.32 481.79 419.91 478.38 419.1 475.04 418.24 473.62 419.01 471.41 419.19 469.32 417.93 465.93 417.94 463.91 416.36 463.35 415.88 459.82 416.69 457.94 416.09 456.3 416.74 453.84 416.41 450.62 415.78 449.64 416.09 446.43 415.42 445.25 413.04 444.4 408.09 441.88 407.64 439.72 406.71 439.07 406.39 437.19 404.86 434.08 403.76 433.39 402.54 431.23 401.08 429.84 400.87 428.1 399.76 426.8 399.39 425.28 396.39 423.44 394.6 421.26 393.22 414.89 391.5 409.36 395.24 409.49 398.03 407.84 398.93 407.77 404.1 405.98 405.23 406.33 408.41 405.09 412.37 402.66 415.48 400.19 416.05 400.58 420.73 399.93 423.86 400.28 427.77 399.39 431.2 398.36 432.55 398.65 434.7 399.86 437.83 401.08 443.41 404.47 445.3 406.79 445.83 408.18 447.47 409.17 451.13 413.62 453.34 413.8 455.35 416.32 456.88 417.53 458.43 420.93 458.97 423.27 458.83 425.66 459.95 427.9 461.44 429.9 465.95 430.34 467.29 429.86 471.02 429.69 474.3 430.55 475.01 429.85 478.53 429.54 479.15 431.3 480.15 432.37 481.21 435.08 485.1 436.34 488 435.83 491.84 435.77 493.58 436.84 496.91 438 498.28 437.64 500.1 436.22 503.23 435.33 508.74 434.3 510.54 435.71 513.67 438.78 514.76 438.99 Z" id="38600350"/>
<path d="M 578.42 603.02 580.6 602.34 581.35 601.2 583 601.38 584.59 599.79 588.26 600.03 590.72 601.77 593.57 602.66 594.37 604.26 596.44 604.79 598.36 606.65 598.92 607.82 600.96 608.9 601.36 610.95 604.17 612.59 606.66 612.19 607.63 612.52 608.3 614.72 610.29 615.48 611.58 617.6 610.1 618.74 609.04 620.53 609.15 622.58 608.65 624.32 606.1 626.33 604.52 627.03 600.66 630.49 600.75 632.26 599.19 635.32 595.21 636.92 592.4 639.73 592.45 640.86 591.28 642.43 587.8 643.78 586.08 645.73 584.09 649.5 582.98 652.75 580.21 656.72 578.31 656.45 574.15 657.41 570.72 659.45 570.9 661.53 571.89 662.84 570.21 665.85 569.18 672.23 567.5 678.08 567.27 680.42 567.87 682.99 567.35 684.47 565.49 686.38 564.91 690.1 564.18 698.09 565.8 699.12 567.09 700.97 567.93 704.06 567.48 705.66 568.51 707.66 568.7 709.69 568.26 710.7 569.22 714.03 570.63 717.06 571.71 718.19 572.61 720.31 574.3 721.51 574.77 722.56 576.42 723.98 579.26 725.4 581.11 727.28 582.1 730 585.65 731 587.16 734.39 585.73 736.42 585.26 738.83 583.78 741.51 582.46 742.79 579.9 744.46 579.43 745.68 576.32 745.63 574.8 746.98 572.44 747.04 568.81 748.65 567.09 748.18 563.44 747.99 561.59 748.18 559.12 746.77 557.6 746.46 555.58 744.97 552.48 743.76 549.42 743.32 547.27 744.19 544.87 743.18 544.08 742.36 543.46 740.16 541.28 737.46 538.61 737.67 536.88 737.3 535.69 736.43 535.79 734.07 534.89 729.4 535.08 728.61 532.59 725.85 529.62 724.69 527.76 722.15 527 721.86 526.32 719.95 525.32 719.21 525.31 716.24 522.38 715.93 520.14 713.46 518.78 712.54 514.73 707.69 513.89 706.14 512.39 704.81 509.73 703.48 509.15 697.24 507.95 695.04 507.03 694.44 505.71 691.79 504.18 690.78 501.49 687 497.48 683.02 496.8 683.19 494.74 681.18 494.36 678.63 496.29 675.5 495.6 672.04 495.94 668.53 496.68 666.51 496.72 665 495.97 663.21 497.53 662.59 500.04 660.78 500.25 656.83 501.07 655.36 503.46 654.11 504.42 653.01 506.27 652 507.49 645.44 506.32 641.83 506.73 640.91 506.13 636.99 506.62 631.94 505.99 630.85 507.47 628.56 509.99 627.97 512.04 626.13 516.41 625.08 519.53 622.82 520 621.43 521.54 619.23 522.57 619.21 523.65 618.11 524.89 617.82 527.5 614.99 528.16 612.12 527.38 610.95 527.59 608.2 528.6 607 531.92 606.3 532.7 606.83 534.94 606.95 535.4 605.5 536.86 603.54 537.26 600.19 536.84 598.19 537.39 597.24 542.12 598 544.68 597.2 546.91 597.36 548.59 596.64 549.66 595.45 551.26 596.66 552.34 596.78 553.71 595.52 555.47 595.6 556.67 594.02 558.64 596.73 562.31 599.17 563.3 600.63 566.45 600.75 568.97 603.77 571.99 604.92 574.81 605.15 577.8 603.82 578.42 603.02 Z" id="38600360"/>
<path d="M 602.38 420.69 603.95 422.96 603.9 423.85 604.99 425.63 604.87 427.99 606.66 430.68 606.84 431.91 608.59 434.39 609.81 434.82 609.92 436.48 611.82 437.37 613.04 441.01 612.88 441.89 614.39 443.14 614.82 444.48 616.36 445.93 616.76 447.04 618.59 447.62 618.64 449.31 620.07 450.25 621.47 450.4 622.02 452.35 622.14 454.62 623.08 457.06 622.95 458.22 625.41 460.29 628.17 462.14 630.48 462.61 634.64 468.85 636.06 469.18 637.78 471.13 638.08 473.79 638.84 475.57 636.31 476.35 634 475.79 632.61 476.93 630.66 476.91 627.59 478.07 625.58 477.7 624.6 478.04 623.37 479.83 622.86 482.24 624.02 482.73 625.47 486.74 624.87 490.42 626.34 492.89 624.81 497.68 623.43 499.52 624.42 501.54 626.56 504.37 628.65 509.35 632.3 509.07 634.49 508.27 637.54 509.13 638.83 508.05 643.26 509.4 645.5 511.6 646.38 513.08 646.82 515.09 646.46 516.12 646.65 518.78 646.32 520.45 647.42 521.77 648.86 525.2 651.19 531.97 651.24 533.15 653.63 535.08 654.66 535.24 656.15 536.93 656.5 540.85 655.85 541.9 655.68 544.46 655.06 547.12 657.36 549.02 658.81 551.52 660.19 552.94 661.31 555.28 662.63 556.11 663.81 559.59 663.93 561.73 663.45 564.52 662.62 565.99 662.97 568.73 660.99 570.61 658.11 572.09 655.85 573.86 652 575.51 650.77 576.69 648.33 577.79 649.31 580.56 650.61 582.07 652.68 583.08 652.65 583.71 650.15 583.51 648.05 584.18 644.82 584.5 642.05 585.54 639.78 587.01 633.97 592.04 633.3 593.35 630.85 596.09 632.11 596.84 630.16 600.22 629.98 602.03 628.38 603.72 628.08 605.97 626.82 608.57 625.33 609.4 623.93 612.36 621.79 612.13 620 614.06 617.75 614.77 616.95 615.96 614.32 618.35 613.24 618.89 611.58 617.6 610.29 615.48 608.3 614.72 607.63 612.52 606.66 612.19 604.17 612.59 601.36 610.95 600.96 608.9 598.92 607.82 598.36 606.65 596.44 604.79 594.37 604.26 593.57 602.66 590.72 601.77 588.26 600.03 584.59 599.79 583 601.38 581.35 601.2 580.6 602.34 578.42 603.02 576.03 602.23 573 597.08 572.19 596.73 571.33 594.71 568.86 591.05 567.41 591.01 565.92 588.91 564.13 587.29 564.36 586.2 563.19 584.37 562.18 581.97 559.93 582.02 559.63 580.56 560.78 578.09 562.15 576.69 562.6 575.4 565.07 575.42 565.54 574.46 568.73 572.88 572.46 574.79 573.01 574 570.74 572.39 569.25 569.96 568.73 567.85 568.99 566.08 571.48 562.96 575.42 560.52 579.2 557.9 584.07 554.16 584.68 553.15 588.54 549.84 588.95 547.62 588.49 544.4 585.31 539.94 581.46 535.85 579.38 534.55 574.85 532.54 565.86 529.9 564.48 529.34 561.99 529.6 559.75 530.49 556.54 530.91 549.44 531.13 546.62 530.17 545.31 529.21 543.82 527.03 541.35 521.65 540.97 516.59 540.39 512.82 539.22 502.61 537.82 496.38 535.42 490.21 532.64 483.73 530.89 481.97 527.78 480.09 526.25 478.16 524.48 477.05 524.96 475.49 522.8 474.21 524.91 473.03 526.48 473.21 528.39 472.67 529.17 471.63 528.22 469.35 528.19 466.49 525.86 463.85 524.71 463.83 523.27 462.53 521.74 458.64 519.45 456.51 518.01 455.8 518.13 454.42 519.27 452.61 517.81 450.26 517.17 448.09 517.38 444.39 515.81 443.55 515.83 440.01 514.76 438.99 516.4 438.7 518.72 437.45 519.96 437.95 522.86 437.8 525.92 436.61 527.78 432.75 527.75 432.19 529.44 429.11 529.55 427.1 528.27 422.54 527.19 420.72 527.79 419.25 527.19 416.32 526.8 412.25 529.38 410.39 533.98 409.88 535.87 407.17 535.49 405.1 536.91 402.9 540.01 402.09 541.75 402.13 542.59 404 543.64 405.2 546.4 407.27 548.79 408.58 549.01 409.16 552.02 411.68 553.51 411.58 554.95 412.75 556.43 412.66 559.43 415.31 564.3 417.29 568.48 419.24 570.19 421 571.29 422.98 574.19 429.21 575.53 430.72 578.25 429.18 579.14 427.45 582.32 425.69 584.12 425.01 590.47 423.87 593.51 421.13 597.44 420.86 599.81 421.27 602.38 420.69 Z" id="38600370"/>
<path d="M 767.39 495.36 767.49 496.48 765.83 496.56 759.67 498.24 749.47 503.4 744.71 508.67 743.47 516.94 747.24 533.35 751.12 541.52 751.46 542.74 747.83 544.36 744.74 540.44 742.54 539 738.42 535.07 735.46 530.31 733.3 526.12 731.93 524.4 733.32 520.89 733.02 518.23 733.24 516.22 731.92 515 732.95 513.67 731.49 509.32 731.32 506.68 730.39 506.63 728.25 503.21 725.74 504.2 725.44 502.16 723.4 499.59 720.47 498.15 717.63 498.39 715.06 497.44 712.05 499.09 709.58 499.87 707.66 499.7 703.47 501.09 700.36 499.45 695.02 494.95 695.32 493.85 694.95 490.67 691.25 489.57 687.55 487.92 683.29 486.92 680.75 485.81 678.03 486.72 676.69 485.97 673.68 486.06 671.52 485.42 670.02 486.1 664.67 486.28 661.68 484.47 659.98 484.16 659.29 482.79 657.03 481.17 655.05 480.5 650.08 477.53 649.05 478.28 646.59 477.63 644.53 479.36 642.42 478.6 641.65 477.28 638.84 475.57 638.08 473.79 637.78 471.13 636.06 469.18 634.64 468.85 630.48 462.61 628.17 462.14 625.41 460.29 622.95 458.22 623.08 457.06 622.14 454.62 622.02 452.35 621.47 450.4 620.07 450.25 618.64 449.31 618.59 447.62 616.76 447.04 616.36 445.93 614.82 444.48 614.39 443.14 612.88 441.89 613.04 441.01 611.82 437.37 609.92 436.48 609.81 434.82 608.59 434.39 606.84 431.91 606.66 430.68 604.87 427.99 604.99 425.63 603.9 423.85 603.95 422.96 602.38 420.69 603.42 419.95 605.07 416.71 604.16 413.03 605.53 409.83 607.24 408.41 610.48 407.92 612.06 408.47 616.37 407.95 620 408.28 623.39 407.86 626.76 408.37 630.25 409.83 632.53 411.4 636.09 411 638.58 411.62 639.94 408.47 641.11 403.43 641.31 401.1 640.8 399.54 641.8 399 643.64 399.25 645.01 400.03 648.22 400.88 651.08 402.17 652.87 401.91 654.14 400.84 656.61 400.52 662.23 402.97 663.91 403.15 670.73 405.91 675.86 409.26 678.98 409.34 681.52 410.91 683.24 412.57 684.86 415.64 686.57 416.49 690.57 420.34 695.67 419.75 698.11 418.12 699.07 416.82 700.77 415.82 705.71 417.96 710.65 418.98 712.75 420.71 713.72 420.92 714.74 423.14 716.34 424.12 718.98 424.48 723.54 424 724.93 420.71 727.32 420.62 728.72 421.07 730.66 420.93 732.51 421.7 734.76 421.11 734.99 420.44 737.47 420.09 743.07 424.27 744.87 426.19 748.05 430.56 752.18 437.04 754.13 440.65 758.94 451.76 761.85 459.81 763.5 466.5 764.43 474.75 765.23 479.63 765.49 483.54 766.59 491.73 766.43 492.27 767.39 495.36 Z" id="38600380"/>
<path d="M 751.46 542.74 755.34 557.93 758.32 568.82 757.31 590.88 756.4 599.14 755.35 607.41 747.11 624.07 744.9 631.89 742.85 638.69 743.21 640.64 743.9 648.88 744.23 656.46 745.1 670.68 747.97 673.53 760.88 690.64 766.88 697.89 777.53 708.45 786.7 717.22 788.35 718.78 799 723.03 795.21 725.57 790.62 726.21 788.93 725.45 786.34 722.23 784.81 720.74 781.01 718.61 779.5 720.11 778.95 722.38 780.84 730.82 785.13 736.72 786.15 738.73 787.18 744.01 787.19 745.39 785.39 749.22 783.57 750.23 778.67 751.34 777.46 752.16 776.25 753.81 775.18 754.11 771.52 754.16 767.68 752.12 764.29 749.52 761.1 747.42 759.17 747.5 755.15 749.33 752.77 748.56 749.68 747.97 748.05 748.34 746.77 749.54 747.91 751.44 746.4 752.8 745.1 752.66 742.95 753.57 741.81 751.21 737.96 750.62 735.72 748 733.68 744.65 731.59 744.31 729.18 742.77 727.62 742.49 726.23 741.29 723.84 738.28 724.02 736.2 723.44 733.9 720.9 733.28 718.45 735.64 711.55 735.62 709.15 736.64 707.29 738.15 705.72 738.1 701.77 737.06 699.52 737.75 696.88 736.93 695.75 736.19 691.78 736.99 689.77 736.58 688.07 734.58 687.36 732.59 685.72 732.47 685.19 731.23 683.76 730.73 682.24 728.54 681.77 725.61 680.04 723.3 679.3 719.83 676.68 719.76 675.2 718.6 672.61 717.6 666.34 717.83 664.24 716.97 660.42 717.89 657.22 720.62 655.78 720.52 654.05 719.12 651.72 719.15 648.16 719.81 645.97 719.45 641.83 717.19 639.2 716.63 636.8 716.98 635.86 716.65 637.12 715.28 636.88 713.23 638.49 710.32 641.2 707.49 641.08 704.13 644.04 701.33 644.97 697.44 644.59 695.79 649.46 693.88 651.33 695.13 654.32 695.35 655.67 694.37 658.65 690.46 661.61 688.64 663.53 689.14 666.06 688.68 666.15 685.58 666.91 684.22 667.67 681.53 670.1 679.89 671.05 678.73 673.65 677.73 674.63 676.26 674.94 673.58 676.62 672.08 677.19 670.1 675.97 666.91 673.56 664.35 672.38 663.83 671.36 660.8 669.22 660.56 668.3 658.62 666.61 657.78 666.59 656.08 665.46 654.91 665.89 652.57 664.63 651.13 665.05 649.35 662.86 648.07 662.49 645.32 660.98 643.11 659.63 641.93 659.09 639.35 656.51 637.17 655.9 635.15 654.63 632.9 652.48 631.51 650.57 629.32 648.96 629.11 646.94 627.56 645.85 625.98 643.72 625.25 643.4 622.11 644.61 622.04 645.91 621.07 648.8 621.24 649.92 620.34 652.11 620.77 653.49 620.09 655.12 621.31 655.84 622.98 658.28 624.77 660.5 624.35 661.56 623.49 662.61 621.67 662.59 620.3 664.48 618.46 665.91 618.29 670.79 616.4 671.49 614.67 670.74 612.03 672.69 609.01 675.52 606.36 677.24 605.84 680.7 603.57 679.39 601.46 683.3 599.32 685.15 597.07 684.16 595.99 681.17 597.52 678.03 597.22 672.72 594.94 668.18 592.17 664.4 590.12 662.5 588.81 658.41 586.96 655.05 584.71 652.65 583.71 652.68 583.08 650.61 582.07 649.31 580.56 648.33 577.79 650.77 576.69 652 575.51 655.85 573.86 658.11 572.09 660.99 570.61 662.97 568.73 662.62 565.99 663.45 564.52 663.93 561.73 663.81 559.59 662.63 556.11 661.31 555.28 660.19 552.94 658.81 551.52 657.36 549.02 655.06 547.12 655.68 544.46 655.85 541.9 656.5 540.85 656.15 536.93 654.66 535.24 653.63 535.08 651.24 533.15 651.19 531.97 648.86 525.2 647.42 521.77 646.32 520.45 646.65 518.78 646.46 516.12 646.82 515.09 646.38 513.08 645.5 511.6 643.26 509.4 638.83 508.05 637.54 509.13 634.49 508.27 632.3 509.07 628.65 509.35 626.56 504.37 624.42 501.54 623.43 499.52 624.81 497.68 626.34 492.89 624.87 490.42 625.47 486.74 624.02 482.73 622.86 482.24 623.37 479.83 624.6 478.04 625.58 477.7 627.59 478.07 630.66 476.91 632.61 476.93 634 475.79 636.31 476.35 638.84 475.57 641.65 477.28 642.42 478.6 644.53 479.36 646.59 477.63 649.05 478.28 650.08 477.53 655.05 480.5 657.03 481.17 659.29 482.79 659.98 484.16 661.68 484.47 664.67 486.28 670.02 486.1 671.52 485.42 673.68 486.06 676.69 485.97 678.03 486.72 680.75 485.81 683.29 486.92 687.55 487.92 691.25 489.57 694.95 490.67 695.32 493.85 695.02 494.95 700.36 499.45 703.47 501.09 707.66 499.7 709.58 499.87 712.05 499.09 715.06 497.44 717.63 498.39 720.47 498.15 723.4 499.59 725.44 502.16 725.74 504.2 728.25 503.21 730.39 506.63 731.32 506.68 731.49 509.32 732.95 513.67 731.92 515 733.24 516.22 733.02 518.23 733.32 520.89 731.93 524.4 733.3 526.12 735.46 530.31 738.42 535.07 742.54 539 744.74 540.44 747.83 544.36 751.46 542.74 Z" id="38600390"/>
<path d="M 635.86 716.65 634.25 718.65 629.92 722.12 631.37 726.91 631.51 728.28 627.08 729.37 622.91 731.02 620.35 731.59 618.6 731.5 615.54 733.25 613.58 733.46 609.32 733.28 605.72 734.49 598.4 734.17 595.94 733.83 592.39 731.34 590.69 732.27 589.65 733.52 587.16 734.39 585.65 731 582.1 730 581.11 727.28 579.26 725.4 576.42 723.98 574.77 722.56 574.3 721.51 572.61 720.31 571.71 718.19 570.63 717.06 569.22 714.03 568.26 710.7 568.7 709.69 568.51 707.66 567.48 705.66 567.93 704.06 567.09 700.97 565.8 699.12 564.18 698.09 564.91 690.1 565.49 686.38 567.35 684.47 567.87 682.99 567.27 680.42 567.5 678.08 569.18 672.23 570.21 665.85 571.89 662.84 570.9 661.53 570.72 659.45 574.15 657.41 578.31 656.45 580.21 656.72 582.98 652.75 584.09 649.5 586.08 645.73 587.8 643.78 591.28 642.43 592.45 640.86 592.4 639.73 595.21 636.92 599.19 635.32 600.75 632.26 600.66 630.49 604.52 627.03 606.1 626.33 608.65 624.32 609.15 622.58 609.04 620.53 610.1 618.74 611.58 617.6 613.24 618.89 614.32 618.35 616.95 615.96 617.75 614.77 620 614.06 621.79 612.13 623.93 612.36 625.33 609.4 626.82 608.57 628.08 605.97 628.38 603.72 629.98 602.03 630.16 600.22 632.11 596.84 630.85 596.09 633.3 593.35 633.97 592.04 639.78 587.01 642.05 585.54 644.82 584.5 648.05 584.18 650.15 583.51 652.65 583.71 655.05 584.71 658.41 586.96 662.5 588.81 664.4 590.12 668.18 592.17 672.72 594.94 678.03 597.22 681.17 597.52 684.16 595.99 685.15 597.07 683.3 599.32 679.39 601.46 680.7 603.57 677.24 605.84 675.52 606.36 672.69 609.01 670.74 612.03 671.49 614.67 670.79 616.4 665.91 618.29 664.48 618.46 662.59 620.3 662.61 621.67 661.56 623.49 660.5 624.35 658.28 624.77 655.84 622.98 655.12 621.31 653.49 620.09 652.11 620.77 649.92 620.34 648.8 621.24 645.91 621.07 644.61 622.04 643.4 622.11 643.72 625.25 645.85 625.98 646.94 627.56 648.96 629.11 650.57 629.32 652.48 631.51 654.63 632.9 655.9 635.15 656.51 637.17 659.09 639.35 659.63 641.93 660.98 643.11 662.49 645.32 662.86 648.07 665.05 649.35 664.63 651.13 665.89 652.57 665.46 654.91 666.59 656.08 666.61 657.78 668.3 658.62 669.22 660.56 671.36 660.8 672.38 663.83 673.56 664.35 675.97 666.91 677.19 670.1 676.62 672.08 674.94 673.58 674.63 676.26 673.65 677.73 671.05 678.73 670.1 679.89 667.67 681.53 666.91 684.22 666.15 685.58 666.06 688.68 663.53 689.14 661.61 688.64 658.65 690.46 655.67 694.37 654.32 695.35 651.33 695.13 649.46 693.88 644.59 695.79 644.97 697.44 644.04 701.33 641.08 704.13 641.2 707.49 638.49 710.32 636.88 713.23 637.12 715.28 635.86 716.65 Z" id="38600400"/>
<path d="M 494.74 681.18 496.8 683.19 497.48 683.02 501.49 687 504.18 690.78 505.71 691.79 507.03 694.44 507.95 695.04 509.15 697.24 509.73 703.48 512.39 704.81 513.89 706.14 514.73 707.69 518.78 712.54 520.14 713.46 522.38 715.93 525.31 716.24 525.32 719.21 526.32 719.95 527 721.86 527.76 722.15 529.62 724.69 532.59 725.85 535.08 728.61 534.89 729.4 535.79 734.07 535.69 736.43 536.88 737.3 538.61 737.67 541.28 737.46 543.46 740.16 544.08 742.36 544.87 743.18 547.27 744.19 549.42 743.32 552.48 743.76 555.58 744.97 557.6 746.46 559.12 746.77 561.59 748.18 563.44 747.99 567.09 748.18 568.81 748.65 572.44 747.04 574.8 746.98 576.32 745.63 579.43 745.68 579.03 747.51 577.94 748.56 576.85 752.4 577.86 754.35 577.92 757.11 578.61 758.87 578.68 763.08 578.94 763.46 577.82 764.15 573.61 765.29 572.51 766.26 570.39 766.08 569.37 767.48 566.33 770.64 562.86 771.03 561.05 768.53 558.57 771.71 554.67 772.96 550.86 769.93 545.72 770.19 544.34 769.97 536.9 770.21 534.08 769.87 526.41 773.86 522.87 776.17 519.52 779.9 516.36 777.83 513.26 778.83 513 781.54 515.12 784.2 511.83 785.83 510.84 785.78 508.85 784.24 505.06 786.22 502.86 788.22 500.76 789.54 499.15 791.58 496 793.84 493.95 794.36 489.44 794.2 487.86 793.29 483.79 794.33 481.43 795.64 479.53 798.58 478.29 801.39 476.6 804.24 475.01 808.28 473.83 808.52 470.18 808.11 467.66 809.24 466.85 809.05 465.83 808.57 464.31 809.03 463.46 808.05 461.49 807.22 458.88 805.38 458.18 804.1 456.4 803.04 455.03 802.82 453.87 801.59 450.19 803.34 448.05 803.21 447.23 803.8 445.24 802.89 442.77 805.5 439.16 806.24 434.74 808.97 431.17 809.01 429.03 809.64 427.24 809.14 424.22 804.44 421.95 804.69 420.49 804.21 418.62 804.4 416.36 802.64 411.53 806.69 406.57 806.37 405.11 804.69 401.89 804.78 400.18 804.25 397.46 805.02 395.25 804.62 393.98 806.07 393.05 805.68 392.07 803.72 389.3 803.8 388.59 800.54 385.48 796.67 385.71 794.87 384.32 790.7 382.5 789.44 382.3 787.68 381.44 785.02 379.82 784.89 377.09 786.84 375.52 788.57 372.51 786.55 371.13 784.08 366.62 784.01 364.43 784.46 363.41 783.57 361.26 786.87 360.98 789.11 358.32 789.29 357.19 790.85 355.42 790.83 352.42 787.07 349.08 785.44 346.08 782.65 344.24 782.8 341.81 780.85 340.04 779.87 338.67 778.1 337.81 778.54 333.58 778.55 331.42 777.84 330.37 776.32 328.24 775.88 327.12 774.25 327.67 771.74 328.6 771.09 329.08 768.14 330.21 765.62 328.39 763.67 326.87 762.61 326.09 761.08 326.36 759.94 324.33 757.23 324.09 755.49 322.86 753.7 324.63 750.3 323.28 747.19 322.28 744.13 322.46 742.86 325.5 743.25 326.95 740.78 329.74 741.23 331.97 742.01 333.72 740.7 338.66 742.89 339.79 740.69 341.28 735.93 343.13 735.29 345.04 735.46 346.17 734.94 349.41 731.89 351.12 731.19 352.96 731.87 355.38 730.37 357.73 730.61 358.02 728.88 360.05 725.75 363.38 725.01 366.89 726.04 370.85 725.25 370.46 723.66 371.12 721.01 372.11 720.54 371.98 718.26 372.94 712.89 372.09 709.94 373.42 708.38 373.14 704.7 373.38 702.71 375.16 700.97 377.57 697.52 378.01 694.12 379.09 692.46 379.11 690.59 377.56 689.05 376.31 685.25 377.45 681.57 378.17 680.68 378.83 678.41 380.1 677.9 380.47 676.48 385.25 674.25 386.27 673.09 384.29 672.47 381.83 669.19 381.91 667.19 381.34 665.94 381.65 664.25 380.02 660.99 380.14 659.26 379.19 657.71 379.51 656.94 378.89 654.22 380.96 652.1 382.01 652.02 383.64 650.14 385.37 649.54 385.31 645.62 384.73 644.4 383.62 639.75 384.13 636.5 383.99 635.37 385.49 634.16 385.4 632.84 386.18 630.38 388.91 629.58 389.92 629.74 388.77 624.3 391.39 624.62 393.88 624.47 397.55 623.83 399.85 622.38 401.08 620.94 404.02 618.98 407.23 622.73 409.94 625.56 411.84 624.69 413.59 622.23 414.56 619.11 414.85 616.94 415.57 615.61 417.71 616.2 419.04 620.98 418 623.76 418.4 626.57 419.39 627.52 420.27 630.65 420.55 634.52 419.69 635.52 421.39 636.41 421.82 638.21 423.18 640.04 425.04 643.22 426.47 648.01 430.51 652.01 433.59 653.22 435.31 653.47 440.43 659.26 441.56 661.43 443.04 662.99 445.26 663.05 446.46 664.17 447 666.62 447.97 668.03 448.23 673.22 449.48 673.07 453.11 674.52 454.61 674.26 457.27 677.94 459.6 678.22 462.96 680.65 464.26 680.15 467.08 681.53 470.69 679.93 472.96 678.55 474.47 678.09 481.11 678.51 482.82 677.75 485.39 677.49 486.15 678.36 488.29 678.69 490.57 679.78 494.74 681.18 Z" id="38600410"/>
<path d="M 181.59 775.24 182.65 776.91 185.46 779.25 191 779.92 193.01 778.36 196.22 777.39 197.54 778.75 200.41 778.96 203.45 780.21 205.37 780.3 206.07 779.2 208.13 778.44 210.18 775.9 211.78 777.33 216.51 777.1 218.73 776.76 219.5 776.14 221.62 776.42 223.97 776.01 227.23 776.06 227.97 775.12 229.51 778.53 228.94 780.03 230.25 783.31 229.62 785.46 229.88 787.82 230.62 789.46 231.98 789.29 232.17 791.08 233.51 791.59 233.76 793.92 235.01 795.38 234.88 797.11 236.83 799.48 238.09 804.33 237.37 807.05 233.32 806.35 232.72 808.08 229.76 811.37 228.91 813.76 229.61 815.88 228.23 819.28 229.69 820.31 230.46 823.74 231.46 825.43 231.47 827.86 232.56 828.37 233.42 830.59 233.13 832.41 230.78 834.59 229.49 835.14 229 837.1 229.33 842.46 228.9 844.96 227.65 846.48 228.17 847.41 228.23 849.67 227.35 851.26 228.53 852.25 230.47 857.2 229.15 860.08 231.18 860.62 232.43 860.13 235.75 859.91 236.84 862.25 239.19 863.77 239.96 865.37 239.56 867.34 240.84 868.45 241.17 870.35 242.79 870.24 244.44 871.33 245.41 873.2 249.05 873.85 250.77 875.78 252.6 878.83 254.41 879.18 256.22 881.9 255.35 884.11 255.94 887.34 257.22 891.81 258.02 892.87 257.99 894.54 257.18 895.82 257.21 899.21 256.78 900 257.36 903.18 254.63 903.53 252.76 904.87 248.92 906.07 246.38 908.61 246.78 910.53 246.6 912.96 244.55 915.61 247.4 919.68 248.76 926.45 250.4 927.86 250.8 929.59 252.68 933.07 251.44 936.15 250.52 937.6 250.65 938.94 247.86 942.95 249.63 947.3 248.94 951.26 243 948.68 241.72 949.57 239.35 948.78 237.11 948.55 234.86 948.94 231.17 948.08 226.57 946.23 222.87 945.48 218.59 945.44 217.27 942.39 217.21 941.28 213.63 937.25 212.76 935.79 210.88 933.87 208 935.02 206.13 935.18 205.31 935.94 202.95 936.33 199.41 937.99 198.61 936.53 195.59 936.39 191.14 938.1 190.77 941.21 189.53 944.23 189.55 946.47 188.78 949.27 187.53 950.7 184.65 950.47 182.28 951.11 180.33 953.37 177.54 953.68 175.84 954.48 174.44 952.62 172.95 949.5 169.76 947.65 168.86 946.44 166.53 947.99 165.1 949.73 164.33 951.38 158.42 954.35 156.37 953.7 156.11 954.92 153.32 953.68 151.52 953.22 149.65 953.59 145.95 950.38 144.12 948.25 143 947.95 142.11 944.39 141.42 943.32 139.41 942.88 137.67 939.5 136.04 937.74 135.18 935.97 136.01 934.87 136.18 932.6 134.2 930.68 131.97 931.64 129.79 931.29 127.68 931.85 126.07 933.55 121.74 931.77 119.01 932.68 118.08 931.14 114.04 930.39 112.73 931.31 110.8 928.51 108.51 925.76 107.97 923.55 108.26 921.25 106.02 919.01 105.98 916.99 106.99 913.62 106.29 911.83 106.28 910.28 104.1 908.37 101.53 908.02 100.74 908.6 97.95 906.18 95.49 904.78 94 904.55 90.51 909.13 86.26 907.86 85.12 908.94 84.05 908.61 82.7 906.95 83.07 905.73 82.39 903.01 80.51 902.51 76.56 900.07 75.62 899.23 76.09 898.18 74.78 896.44 73.64 894.09 70.8 891.27 65.98 887.94 65.38 886.01 66.14 881.79 66.1 880.01 65.43 878.77 64.73 875.01 62.05 874.13 58.28 874.4 55.99 873.95 57.43 871.68 59.69 870.75 60.81 869.56 60.57 867.79 61.72 865.59 61.91 862.5 58.89 858.95 55.31 857.2 56.08 855.93 52.93 854.44 51.47 852.77 49.46 849.11 49.88 846.82 51.88 842.18 50.83 840.04 51.41 839.05 50.65 836.3 45.61 828.57 44.78 825.76 41.82 819.76 41.01 816.19 42.26 812.79 43.94 811.69 44.21 809.77 42.46 806.03 42.84 805.53 43.62 801.5 44.13 800.71 44.48 794.71 45.66 792.89 44.03 789.87 44.32 788.23 42.62 784.65 43.05 782.35 42.42 780.52 42.62 778.51 41.79 774.81 43.6 773.85 45.16 770.78 47.73 767.83 50.94 765.71 54.03 764.82 56.98 761.5 59.18 762.09 62.82 760.65 64.22 760.72 67.47 763.55 70.38 766.77 74.73 768.54 75.86 770.26 78.56 771.16 79.33 772.2 81.96 771.89 82.99 773.01 86.21 773.48 89.09 774.24 89.24 773.24 92.33 769.78 95.26 768.36 97.13 768.26 100.08 766.69 102.39 766.08 104.6 764.65 107.36 765.6 110.22 765.56 110.97 766.69 112.74 767.76 113.8 767.34 117.87 767.44 120.9 766.86 121.75 767.48 124.4 767.87 124.5 765.71 125.94 764.05 129.2 763.33 129.88 762.03 131.99 761.99 133.16 761.43 136.22 762.88 138.27 763.48 139.93 764.55 141.76 766.35 142.69 769.6 143.86 771.19 144.32 773.23 146.48 775.53 146.76 776.85 146.29 780.69 147.02 781.63 148.07 784.77 150.45 784.9 151.89 786.77 152.97 787.41 156.02 787.07 156.31 788.17 157.78 788.8 159.76 788.95 163.47 790.17 165.53 789.28 169.49 786.11 171.1 782.28 172.39 780.46 176.3 777.19 178.59 776.27 179.86 775 181.59 775.24 Z" id="38600440"/>
<path d="M 126.04 622.93 128.29 622.74 130.06 620.29 131.82 621.18 134.5 620.39 137.82 622.32 139.54 623.72 138.57 627.02 138.01 627.65 138.71 629.42 141.95 631.88 142.54 632.87 141.64 636.64 140.43 637.51 138.82 640.33 139.37 642.82 139.03 647.05 140.27 648.79 141.78 650.06 142.37 651.85 143.54 653.11 146.32 654.18 148.32 655.43 151.3 656.44 153.42 657.76 154.36 658.88 157.23 657.2 158.67 655.9 158.82 654.08 159.97 652.6 162.59 650.78 165.68 650.82 167.18 648.37 168.87 648.23 171.74 647.16 172.68 646.18 177.25 644.12 179.42 643.96 180.85 645.64 182.2 644.6 183.58 645.65 182.14 648.77 181.88 650.08 180.06 651.69 179.3 653.51 181.16 653.39 181.22 654.43 184.34 654.43 187.64 655.51 190.58 657.44 192.57 660.08 193.02 662.92 194.28 665 196.27 667.29 197.29 670.53 197.97 671.51 199.22 671.67 202.55 680.76 202.8 682.58 204.35 684.12 204.26 684.85 207.85 684.96 211.76 685.67 214.4 686.54 217.63 687.18 220.01 685.78 220.75 682.74 223.11 685.88 224.27 686.02 225.3 688.24 227.24 690.03 228.82 690.77 228.43 691.61 224.64 693.96 223.72 696.66 221.95 696.15 219.87 697.22 218.58 700.73 216.39 702.29 216.36 707 214.2 709.72 213.18 712.8 211.74 713.92 210.94 715.43 208.48 718.4 207.4 720.22 206.43 723.15 204.96 723.55 204.2 724.51 204.61 726.03 204.08 727.88 202.81 729.32 203 732.21 205.01 732.6 205.47 734.16 206.58 735.13 206.6 736.29 205.34 736.53 204.7 739.66 203.36 741.87 204.41 744.5 202.68 746.31 203.71 748.25 202.29 751.83 199.85 755.22 197.57 757.41 194.94 761.26 193.36 764.24 190.12 767.7 187.45 768.4 185.23 772.23 182.95 774.67 181.59 775.24 179.86 775 178.59 776.27 176.3 777.19 172.39 780.46 171.1 782.28 169.49 786.11 165.53 789.28 163.47 790.17 159.76 788.95 157.78 788.8 156.31 788.17 156.02 787.07 152.97 787.41 151.89 786.77 150.45 784.9 148.07 784.77 147.02 781.63 146.29 780.69 146.76 776.85 146.48 775.53 144.32 773.23 143.86 771.19 142.69 769.6 141.76 766.35 139.93 764.55 138.27 763.48 136.22 762.88 133.16 761.43 131.99 761.99 129.88 762.03 129.2 763.33 125.94 764.05 124.5 765.71 124.4 767.87 121.75 767.48 120.9 766.86 117.87 767.44 113.8 767.34 112.74 767.76 110.97 766.69 110.22 765.56 107.36 765.6 104.6 764.65 102.39 766.08 100.08 766.69 97.13 768.26 95.26 768.36 92.33 769.78 89.24 773.24 89.09 774.24 86.21 773.48 82.99 773.01 81.96 771.89 79.33 772.2 78.56 771.16 75.86 770.26 74.73 768.54 70.38 766.77 67.47 763.55 64.22 760.72 62.82 760.65 59.18 762.09 56.98 761.5 54.03 764.82 50.94 765.71 47.73 767.83 45.16 770.78 43.6 773.85 41.79 774.81 38.76 774.16 36.12 772.55 33.96 770.59 32.15 770.42 30.05 768.99 28.12 768.19 24.4 765.75 23.83 764.66 22.52 764.56 21.43 763.13 19.24 763.42 18.66 757.31 19.86 753.95 18.26 752.73 18.08 747.8 17.56 747.03 16.83 742.63 15.53 740.74 14.91 738.83 14.71 736.01 15.79 729.52 16.22 728.94 15.82 725.4 13.42 722.26 14.14 714.03 14.58 711.71 16.02 709.93 15.01 709.13 15.11 707.94 13.85 706.45 12.28 705.57 11.26 702.58 9.68 701.65 7.76 702.66 5.65 699.68 4.48 699.9 3.09 697.09 2.25 696.95 1.55 695.39 3.6 689.71 2.42 689.05 1 685.81 1.48 683.72 1.4 681.97 2.45 679.45 2.81 676.65 2.15 674.71 3.39 672.3 2.6 670.65 2.28 666.95 2.66 665.73 2.01 661.9 2.9 660.81 2.7 659.24 3.95 657.09 3.82 656.2 5.04 652.59 4.53 649.34 7.2 647.93 10.15 648.59 13.06 647.23 14.03 647.41 15.73 645.92 16.51 644.29 19.34 642.19 20.7 642.24 22.72 639.85 23.18 637.78 24.61 636.77 27.46 635.74 29.62 637.32 31.53 637.4 32.66 636.21 35.38 635.56 37.2 633.59 37.63 632.41 39.86 630.49 41.1 631.08 43.14 630.16 45.26 630.24 46.27 628.66 48 628.29 50.66 625.47 55.53 623.82 56.63 625.25 59.98 627.97 62.99 626.28 63.52 625.28 68.26 623.25 71.71 621.36 73.35 619.21 75.82 617.44 76.58 617.84 80.28 615.82 81.15 614.34 83.23 613.16 84.69 614.51 86.41 614.68 88.44 614.22 89.58 613.35 93.1 612.39 93.82 611.84 95.28 612.83 97.59 611.66 99.1 611.96 101.17 610.52 103.89 611.26 104.76 610.74 106.39 611.8 108.66 610.71 109.91 609.28 116.56 605.99 117.59 605.23 117.41 611.59 118.57 612.96 118.23 614.11 119.12 614.95 119.14 616.41 120.04 618.01 119.2 619.24 119.41 620.77 121.38 623.5 121.59 626 123.44 627.79 127.08 627.22 126.04 622.93 Z" id="38600450"/>
<path d="M 388.77 624.3 389.92 629.74 388.91 629.58 386.18 630.38 385.4 632.84 385.49 634.16 383.99 635.37 384.13 636.5 383.62 639.75 384.73 644.4 385.31 645.62 385.37 649.54 383.64 650.14 382.01 652.02 380.96 652.1 378.89 654.22 379.51 656.94 379.19 657.71 380.14 659.26 380.02 660.99 381.65 664.25 381.34 665.94 381.91 667.19 381.83 669.19 384.29 672.47 386.27 673.09 385.25 674.25 380.47 676.48 380.1 677.9 378.83 678.41 378.17 680.68 377.45 681.57 376.31 685.25 377.56 689.05 379.11 690.59 379.09 692.46 378.01 694.12 377.57 697.52 375.16 700.97 373.38 702.71 373.14 704.7 373.42 708.38 372.09 709.94 372.94 712.89 371.98 718.26 372.11 720.54 371.12 721.01 370.46 723.66 370.85 725.25 366.89 726.04 363.38 725.01 360.05 725.75 358.02 728.88 357.73 730.61 355.38 730.37 352.96 731.87 351.12 731.19 349.41 731.89 346.17 734.94 345.04 735.46 343.13 735.29 341.28 735.93 339.79 740.69 338.66 742.89 333.72 740.7 331.97 742.01 329.74 741.23 326.95 740.78 325.5 743.25 322.46 742.86 322.28 744.13 323.28 747.19 324.63 750.3 322.86 753.7 324.09 755.49 324.33 757.23 326.36 759.94 326.09 761.08 326.87 762.61 328.39 763.67 330.21 765.62 329.08 768.14 328.6 771.09 327.67 771.74 327.12 774.25 323.73 776.36 320.82 776.58 319.09 777.21 318.04 776.94 313.82 773.16 312.38 773.44 311.18 774.43 309.67 774.39 305.37 776.84 302.91 778.96 301.96 778.59 300.9 779.6 297.4 780.09 296.44 781.59 296.82 785.3 295.95 786.89 296.44 788.64 296.17 790.98 292.97 792.7 291.63 792.32 289.72 793.54 287.9 792.78 287.47 793.75 288.01 795.89 287.25 800.27 285.99 804.27 286.54 805.93 286.8 808.77 285.63 810.59 283.1 810.52 282.48 813.83 280.34 815.21 277.22 815.24 274.38 813.56 272.94 813.71 271.64 812.23 270.97 813.18 269.3 812.52 267.93 811.24 265.63 810.98 263.36 812.57 260.99 811.87 256.98 812.72 255.59 812.36 255.21 810.96 253.73 809.67 252.95 810.27 248.31 811.1 245.92 809.25 245.02 807.56 243.32 807.4 241.25 805.65 240.03 803.73 238.09 804.33 236.83 799.48 234.88 797.11 235.01 795.38 233.76 793.92 233.51 791.59 232.17 791.08 231.98 789.29 230.62 789.46 229.88 787.82 229.62 785.46 230.25 783.31 228.94 780.03 229.51 778.53 227.97 775.12 227.23 776.06 223.97 776.01 221.62 776.42 219.5 776.14 218.73 776.76 216.51 777.1 211.78 777.33 210.18 775.9 208.13 778.44 206.07 779.2 205.37 780.3 203.45 780.21 200.41 778.96 197.54 778.75 196.22 777.39 193.01 778.36 191 779.92 185.46 779.25 182.65 776.91 181.59 775.24 182.95 774.67 185.23 772.23 187.45 768.4 190.12 767.7 193.36 764.24 194.94 761.26 197.57 757.41 199.85 755.22 202.29 751.83 203.71 748.25 202.68 746.31 204.41 744.5 203.36 741.87 204.7 739.66 205.34 736.53 206.6 736.29 206.58 735.13 205.47 734.16 205.01 732.6 203 732.21 202.81 729.32 204.08 727.88 204.61 726.03 204.2 724.51 204.96 723.55 206.43 723.15 207.4 720.22 208.48 718.4 210.94 715.43 211.74 713.92 213.18 712.8 214.2 709.72 216.36 707 216.39 702.29 218.58 700.73 219.87 697.22 221.95 696.15 223.72 696.66 224.64 693.96 228.43 691.61 228.82 690.77 227.24 690.03 225.3 688.24 224.27 686.02 223.11 685.88 220.75 682.74 220.01 685.78 217.63 687.18 214.4 686.54 211.76 685.67 207.85 684.96 204.26 684.85 204.35 684.12 202.8 682.58 202.55 680.76 199.22 671.67 197.97 671.51 197.29 670.53 196.27 667.29 194.28 665 193.02 662.92 192.57 660.08 190.58 657.44 187.64 655.51 184.34 654.43 181.22 654.43 181.16 653.39 179.3 653.51 180.06 651.69 181.88 650.08 182.14 648.77 183.58 645.65 182.2 644.6 180.85 645.64 179.42 643.96 177.25 644.12 172.68 646.18 171.74 647.16 168.87 648.23 167.18 648.37 165.68 650.82 162.59 650.78 159.97 652.6 158.82 654.08 158.67 655.9 157.23 657.2 154.36 658.88 153.42 657.76 151.3 656.44 148.32 655.43 146.32 654.18 143.54 653.11 142.37 651.85 141.78 650.06 140.27 648.79 139.03 647.05 139.37 642.82 138.82 640.33 140.43 637.51 141.64 636.64 142.54 632.87 141.95 631.88 138.71 629.42 138.01 627.65 138.57 627.02 139.54 623.72 137.82 622.32 134.5 620.39 131.82 621.18 130.06 620.29 128.29 622.74 126.04 622.93 125.9 620.57 128.65 616.53 127.74 615.38 128.2 611.22 129.34 609.35 131.29 608.13 133.22 607.6 137.03 607.93 139.03 609.63 140.91 614.34 142.16 618.76 142.32 620.21 143.79 620.73 150.73 624.21 156.52 626.02 158.81 627.17 162.75 627.23 163.09 625.87 161.79 623.39 159.26 619.64 158.54 617.99 158.89 615.02 160.86 611.25 161.57 605.35 163.3 605.85 163.63 604.15 166.98 606.84 167.24 608.55 168.39 609.36 173.57 610.84 178.34 614.6 178.97 616.79 180.46 619.46 182.19 621.05 182.4 623.26 183.73 624.76 184.69 624.66 185.85 623.39 188.31 622.56 188.64 621.34 191.45 620.08 191.36 618.91 194.42 618.86 196.85 617.9 197.29 615.81 199.19 615.31 201.42 612.79 201.53 611.02 202.74 609.85 204.34 609.38 204.08 607.55 206.2 606.66 207.51 603.27 208.58 602.61 208.77 601.25 210.28 600.07 210.57 596.08 211.56 592.58 214.54 589.22 214.31 585.95 215.64 585.53 216.33 583.71 216 582.49 218.18 582.03 218.69 578.58 219.77 576.73 221.06 575.88 223.1 572.68 222.74 570.23 224.64 569.65 224.64 568.33 227.96 565.75 228.11 563.93 228.77 562.59 229.91 561.91 230.28 560.69 233.51 556.82 235.22 555.43 238.08 551.69 240.59 550.15 242.41 549.97 245.19 548.92 245.61 547.58 247.92 548.01 250.05 547.62 252.5 546.69 254.87 546.79 256.19 547.94 257.18 547.71 259.3 548.4 261.56 547.99 264.58 545.71 267.67 546.48 272.2 544.87 274.23 545.27 277.34 543.93 278.09 544.48 282.14 544.16 284.85 542.36 286.49 540.18 288.97 540.39 292.19 539.12 293.37 538.05 294.83 538.84 298.66 538.73 299.82 540.31 301.7 541.9 303.91 542.16 304.14 544.21 306.21 548.21 307.81 549.25 308.65 550.44 310.35 550.74 311.65 551.7 312 552.93 315 553.84 320.13 558.36 322.38 559.42 323.44 561.16 325.57 561.7 326.4 562.94 328.23 563.67 330.19 563.36 331.97 564.82 331.78 566.5 330.84 567.88 329.22 572.05 328.18 573.43 327.88 575.93 329.35 577.61 332.13 578.55 335.75 583.14 336.51 585.11 338.97 586.69 339.68 588.97 339.31 590.3 340.08 591.5 341.8 592.62 342.28 595.59 340.24 597.56 342.69 600.88 347.53 604.64 350.08 606.94 350.36 608.57 356.58 611.82 361.98 615.4 363.95 617.26 370.54 621.49 372.88 622.13 380.86 622.51 383.79 623.68 388.77 624.3 Z" id="38600460"/>
</g>
</svg>