<?xml version="1.0"?>
<svg xmlns="http://www.w3.org/2000/svg" version="1.2" baseProfile="tiny" width="800" height="451" viewBox="0 0 800 451" stroke-linecap="round" stroke-linejoin="round">
<g id="dong">
<path d="M 403.18 280.26 403.05 280.46 395.67 281.75 395.43 282.22 394.41 281.96 393.37 282.78 393.1 284.08 390.7 286.12 389.47 285.68 388.61 286.66 387.16 286.39 386.2 286.39 385.75 285.9 386.1 285.3 385.54 284.64 385.55 283.8 386.25 283.13 386.17 282.01 386.77 281.34 385.53 279.25 385.58 278.64 386.46 277.99 384.99 277.76 383.68 277.92 382.35 277.81 383.32 276.25 383.5 275.24 383.21 272.9 384.1 271.68 383.82 270.23 384.07 269.58 383.48 267.08 382.5 265.27 383.15 264.36 382.47 262.88 382.48 262.45 381.71 261.2 380.5 260.09 380.28 259.57 380.44 258.02 379.42 257.42 379.43 256.13 378.74 254.75 378.83 254.32 378.14 252.42 378.6 251.37 377.94 249.47 378.13 248.62 377.73 247.62 377.79 246.8 377.4 245.31 376.09 243.38 374.09 241.55 373.94 240.77 374.22 239.66 373.54 238.03 373.47 237 372.66 236.21 372.73 234.96 373.01 234.3 372.92 232.02 373.24 230.94 372.74 230.13 372.65 227.81 373 227 372.95 225.19 372.44 224.34 371.22 223.11 370.8 222.35 369.88 221.89 368.54 220.67 367.55 220.39 366.58 218.94 365.96 218.8 365.12 215.85 365.42 214.82 365.02 213.08 364.4 212.47 364.38 211.65 364.81 211 364.9 209.83 365.4 209.34 365.57 208.02 364.6 205.82 364.39 204.5 363.65 203.11 363.45 202.17 362.76 200.88 362.18 198.86 362.28 197.55 362.72 195.41 362.75 193.85 363.44 190.9 364.28 188.92 365.56 187.71 365.38 186.48 364.59 185.39 364.35 182.95 364.79 181.4 365.46 177.93 365.45 175.98 364.96 174.32 365.04 172.41 364.78 170.46 364.89 168.47 364.27 165.75 363.2 163.44 362.6 161.92 361.49 159.84 362.2 156.9 363.17 155.18 363.34 153.64 365.22 152.07 365.6 150.96 365.92 149.14 365.63 147.83 367.32 146.89 368.72 146.3 370.26 146.93 371.39 147.9 371.32 148.41 369.83 152.06 369.33 153.95 368.93 154.8 368.04 155.97 367.18 156.67 366.65 158.4 366.55 159.96 366.94 160.97 366.51 161.62 367.37 164.2 366.71 166.18 366.79 169.12 367.21 170.78 368.38 172.38 368.2 172.95 368.47 173.93 368.24 175.14 368.4 176.32 369.25 177.25 369.4 178.89 369.91 180.32 369.33 181.62 369.54 184.27 368.48 185.09 368.83 186.05 369.7 187.02 369.64 187.98 369.19 190.06 368.32 190.99 368.7 192.72 368.6 194.07 368.29 195.34 368.51 196.17 368.26 196.86 369.32 198.76 369.76 198.85 370.04 199.89 372.06 201.62 373.06 201.77 373.95 202.21 374.79 203.35 375.23 203.22 377.5 204.54 378.43 205.43 380.37 208.27 380.09 209.29 380.58 209.55 382.03 211.29 382.5 213.13 382.85 213.62 382.87 214.83 383.12 216.64 382.82 219.26 382.47 220.51 383.01 221.42 382.88 222.51 383.37 223.18 384.05 223.43 384.28 224.88 384.17 226.16 385.39 226.63 386.19 228.19 385.86 229.71 386.25 231.29 386.12 232.29 387.43 233.95 388.63 235.15 388.86 235.78 389.05 237.95 389.37 238.84 389.98 238.92 390.97 240.31 391.86 242.56 392.8 243.56 394.92 245.5 396.2 247.21 396.62 247.17 397.58 248.28 398.28 248.72 398.14 249.23 399.25 252.13 399.81 253.15 400.26 254.89 399.67 257.74 399.5 259.27 399.69 259.91 400.3 260.13 401.12 259.95 401.75 260.45 401.58 261.63 400.85 262.52 401.19 263.17 402.08 263.99 402.26 266.84 400.87 267.11 401.03 269.41 401.32 271.63 401.88 273.64 402.41 274.09 402.33 274.87 403.18 280.26 Z" id="39020580"/>
<path d="M 354.75 322.83 355.06 323.73 354.38 324.18 353.62 323.63 354.75 322.83 Z M 356.88 320.3 357.42 320.48 359.72 322.64 359.74 324.47 359.02 324.8 359.21 325.36 357.93 325.73 356.91 325.64 355.46 324.67 355.07 323.23 355.09 322.28 355.88 321.54 356.22 320.6 356.88 320.3 Z M 387.16 286.39 386.01 290.26 387.91 291.47 387.12 294.96 386.73 295.35 386.49 296.63 386.01 297.35 384.82 297.55 383.88 296.12 383.5 296.35 382.28 294.75 381.33 294.43 380.32 294.58 377.43 296.14 376.32 296.92 375.75 297.63 374.71 297.74 373.52 297.39 371.09 297.08 369.64 297.46 369.27 296.66 366.85 296.37 365.89 296.11 364 295.96 362.33 295.22 361.48 295.54 361.87 296.8 361 297.57 360.99 298.25 359.71 298.85 359.94 299.83 359.29 300.25 358.49 300.24 357.04 299.37 356.42 299.96 356.02 301.77 354.69 302.75 354.54 303.14 354.79 305.33 354.24 305 353.58 305.25 353.21 305.97 352.44 306.38 351.17 307.96 350.39 308.13 349.23 308.78 346.76 308.84 346.39 308.71 345.67 307.36 346.2 306.75 346.5 305.7 347.28 305.29 347.17 304.72 347.41 303.05 347.9 301.76 347.83 300.63 349.52 298.71 349.41 297.87 349.81 296.77 348.7 296.09 348.09 296.02 347.7 295.24 346.55 294.6 346.34 293.92 345.19 293.46 344.65 292.5 343.68 292.3 343.1 292.47 342.41 291.81 342.45 289.81 346.03 289.06 346.51 288.3 347.68 287.31 348.12 286 348.36 284.44 348.89 284.63 349.03 283.31 349.81 282.32 349.03 282.08 350.32 277.88 348.02 277.18 348.83 276.06 351.14 275.36 351.19 271.66 349.75 270.64 349.79 269.2 349.44 268.9 349.03 267.51 349.34 266.62 348.57 265.11 348.6 264.01 348.12 262.83 349.03 260.5 348.69 259.95 349.07 258.79 350.09 256.83 350.32 255.77 350.72 255.2 351.23 253.67 350.86 252.66 349.99 252.37 349.36 250.86 349.65 250.22 349.12 248 348.81 247.62 348.78 246.09 349.12 245.76 348.74 244.15 349.62 242.83 349.89 242.07 350.46 241.89 350.69 241.01 351.89 239.65 352.13 238.26 352.21 234.22 352.65 233.65 352.81 232.57 352.35 231.19 352.24 229.54 353.3 227.42 353.54 224.37 354.29 221.73 354.81 221 355 220.15 354.81 218.45 355.79 218.07 355.96 217.28 355.6 216.58 356.4 215.42 357.12 215.11 357.26 213.98 357.76 213.21 357.49 211.76 356.92 211.26 357.12 210.22 357.91 209.77 357.28 207.49 357.41 205.77 356.93 204.98 356.21 202.45 355.57 201.38 356.17 200.42 356.8 199.95 356.49 199.02 357.18 198.14 357.32 196.43 358.34 195.23 358.68 194.15 358.58 193.42 360.08 191.78 360.56 190.17 360.52 189.49 362.21 187.74 362.06 186.78 362.68 185.7 362.57 185.13 363.23 183.74 363.74 181.42 363.63 180.84 363.93 179.81 364.02 178.29 363.8 175.38 363.33 173.46 361.55 170.97 360.34 168.3 360.22 165.99 360.33 164.27 359.75 161.47 359.02 160.14 357.74 158.63 357.38 156.43 357.49 154.85 360.25 150.24 361.29 149.14 363.21 148.94 365.63 147.83 365.92 149.14 365.6 150.96 365.22 152.07 363.34 153.64 363.17 155.18 362.2 156.9 361.49 159.84 362.6 161.92 363.2 163.44 364.27 165.75 364.89 168.47 364.78 170.46 365.04 172.41 364.96 174.32 365.45 175.98 365.46 177.93 364.79 181.4 364.35 182.95 364.59 185.39 365.38 186.48 365.56 187.71 364.28 188.92 363.44 190.9 362.75 193.85 362.72 195.41 362.28 197.55 362.18 198.86 362.76 200.88 363.45 202.17 363.65 203.11 364.39 204.5 364.6 205.82 365.57 208.02 365.4 209.34 364.9 209.83 364.81 211 364.38 211.65 364.4 212.47 365.02 213.08 365.42 214.82 365.12 215.85 365.96 218.8 366.58 218.94 367.55 220.39 368.54 220.67 369.88 221.89 370.8 222.35 371.22 223.11 372.44 224.34 372.95 225.19 373 227 372.65 227.81 372.74 230.13 373.24 230.94 372.92 232.02 373.01 234.3 372.73 234.96 372.66 236.21 373.47 237 373.54 238.03 374.22 239.66 373.94 240.77 374.09 241.55 376.09 243.38 377.4 245.31 377.79 246.8 377.73 247.62 378.13 248.62 377.94 249.47 378.6 251.37 378.14 252.42 378.83 254.32 378.74 254.75 379.43 256.13 379.42 257.42 380.44 258.02 380.28 259.57 380.5 260.09 381.71 261.2 382.48 262.45 382.47 262.88 383.15 264.36 382.5 265.27 383.48 267.08 384.07 269.58 383.82 270.23 384.1 271.68 383.21 272.9 383.5 275.24 383.32 276.25 382.35 277.81 383.68 277.92 384.99 277.76 386.46 277.99 385.58 278.64 385.53 279.25 386.77 281.34 386.17 282.01 386.25 283.13 385.55 283.8 385.54 284.64 386.1 285.3 385.75 285.9 386.2 286.39 387.16 286.39 Z" fill-rule="evenodd" id="39020590"/>
<path d="M 361.29 149.14 360.25 150.24 357.49 154.85 357.38 156.43 357.74 158.63 359.02 160.14 359.75 161.47 360.33 164.27 360.22 165.99 360.34 168.3 361.55 170.97 363.33 173.46 363.8 175.38 364.02 178.29 363.93 179.81 363.63 180.84 363.74 181.42 363.23 183.74 362.57 185.13 362.68 185.7 362.06 186.78 362.21 187.74 360.52 189.49 360.56 190.17 360.08 191.78 358.58 193.42 358.68 194.15 358.34 195.23 357.32 196.43 357.18 198.14 356.49 199.02 356.8 199.95 356.17 200.42 355.57 201.38 356.21 202.45 356.93 204.98 357.41 205.77 357.28 207.49 357.91 209.77 357.12 210.22 356.92 211.26 357.49 211.76 357.76 213.21 357.26 213.98 357.12 215.11 356.4 215.42 355.6 216.58 355.96 217.28 355.79 218.07 354.81 218.45 355 220.15 354.81 221 354.29 221.73 353.54 224.37 353.3 227.42 352.24 229.54 352.35 231.19 352.81 232.57 352.65 233.65 352.21 234.22 352.13 238.26 351.89 239.65 350.69 241.01 350.46 241.89 349.89 242.07 349.62 242.83 348.74 244.15 349.12 245.76 348.78 246.09 348.81 247.62 349.12 248 349.65 250.22 349.36 250.86 349.99 252.37 350.86 252.66 351.23 253.67 350.72 255.2 350.32 255.77 350.09 256.83 349.07 258.79 348.69 259.95 349.03 260.5 348.12 262.83 348.6 264.01 348.57 265.11 349.34 266.62 349.03 267.51 349.44 268.9 349.79 269.2 349.75 270.64 351.19 271.66 351.14 275.36 348.83 276.06 348.02 277.18 350.32 277.88 349.03 282.08 349.81 282.32 349.03 283.31 348.89 284.63 348.36 284.44 348.12 286 347.68 287.31 346.51 288.3 346.03 289.06 342.45 289.81 342.41 291.81 343.1 292.47 343.68 292.3 344.65 292.5 345.19 293.46 346.34 293.92 346.55 294.6 347.7 295.24 348.09 296.02 348.7 296.09 349.81 296.77 349.41 297.87 349.52 298.71 347.83 300.63 347.9 301.76 347.41 303.05 347.17 304.72 347.28 305.29 346.5 305.7 346.2 306.75 345.67 307.36 344.68 307.85 344.29 307.56 341.69 308.12 340.88 307.71 340.59 306.8 340.07 306.66 339.71 307.86 339.98 308.62 339.71 309.16 338.27 309.02 337.92 307.88 338.34 307.57 337.86 306.48 337.15 305.85 335.57 306.4 335.28 307.09 334.44 307.11 333.47 306.05 332.56 305.66 331.94 305.9 330.76 306.99 329.72 306.46 329.25 307.05 327.33 307.66 326.84 308.37 325.82 308.14 325.77 309.25 324.91 309.29 324.94 309.85 324.24 310.33 322.97 310.07 322.56 310.73 321.89 310.32 321.52 311.09 320.75 310.72 319.31 310.87 318.39 311.32 317.62 311.35 316.71 310.89 315.77 311.03 315.28 310.54 314.79 311.53 315.48 311.75 316.6 313.29 316.35 314.37 315.79 314.53 316.27 315.45 315.42 316.63 313.66 316.04 313.75 315.14 312.71 314 313.34 313.25 312.51 312.91 312.25 314.11 312.83 314.71 312.99 315.6 312.26 316.71 311.37 315.95 310.88 315.9 310.04 314.44 308.55 312.98 309.14 312.3 308.92 311.5 307.28 310.03 306.27 310.26 305.06 309.41 304.33 308.65 303.36 306.91 301.86 306.23 300.78 306.68 300.35 306.12 301.74 304.61 302.3 304.21 302.61 303.31 302.07 302.73 302.14 301.65 301.74 300.07 301.19 298.87 300.42 298.18 300.16 297.46 299.46 296.79 298.61 296.93 296.99 295.4 296.4 294.57 295.95 293.7 296.25 292.91 295.73 291.44 296.25 291.23 296.45 290.5 297.49 289.41 297.56 287.93 298.17 287.28 298.64 285.93 298.57 285 298.99 283.07 299.82 281.2 298.99 278.55 301.6 279.3 302.9 280.08 304.99 280.09 305.99 280.36 308.21 280.32 308.13 279.45 306.89 279.13 306.49 278.27 306.53 276.63 306.2 276.4 306.59 275.12 306.39 274.6 306.98 273.68 306.51 271.93 306.69 271.24 305.99 270.1 306.73 268.45 307.06 266.63 307.8 266.45 308.51 265.56 309.36 263.84 309.37 262.74 309.72 262.11 309.58 261.29 310.54 259.65 310.52 258.74 311.27 257 312.71 257.01 313.49 256.39 313.81 255.43 313.51 251.98 312.91 251.27 313.61 249.74 313.67 248.62 313.46 247.13 312.96 246.32 313.25 245.37 312.72 241.79 312.14 238.8 311.52 237.49 311.68 236.32 311.43 235.48 311.44 233.58 310.55 232.55 310.66 230.92 310.22 230.23 309.87 228.43 309.88 226.68 309.28 226.2 308.88 225.4 309.1 224.65 308.58 223.53 309.32 222.89 309.55 222.22 311.01 222.33 311.2 220.74 313.11 218.44 313.29 216.47 312.09 215.19 312.17 213.44 311.7 213.07 311.95 212 312.58 211.62 313.12 210.4 313.55 208.61 313.6 207.55 313.97 206.6 314.94 205.6 315.95 204.98 316.43 204.25 316.58 203.32 316.2 202.89 316.85 202.09 317.24 200.74 318.33 199.14 318.72 199.22 319.89 197.57 320.21 196.65 320.23 194.61 321.39 192.18 321.67 190.06 322.16 189.82 322.31 188.91 322.92 188.17 323.54 188.39 324.01 187.27 324.46 185.36 325.21 184 324.74 183.11 324.82 182.13 324.5 181.25 325.11 179.41 325.16 178.07 325.57 176.9 325.41 176.08 326.44 174.52 326.33 174.26 327.49 172.94 328.42 172.35 329.64 171.91 331.4 170.73 333.51 168.05 336.56 166.15 337.29 165.53 337.95 165.4 338.25 164 339.56 164.35 341.03 163.69 340.96 162.93 341.92 161.22 342.56 159.65 343.78 159.17 346.11 157.08 346.51 156.34 346.62 155.37 346.16 154.42 347.18 153.61 347.92 152.35 349 152.21 350.01 151.54 352.52 148.66 353.53 148.69 355.78 148.45 359.04 149.49 361.29 149.14 Z" id="39020600"/>
<path d="M 347.92 152.35 347.18 153.61 346.16 154.42 346.62 155.37 346.51 156.34 346.11 157.08 343.78 159.17 342.56 159.65 341.92 161.22 340.96 162.93 341.03 163.69 339.56 164.35 338.25 164 337.95 165.4 337.29 165.53 336.56 166.15 333.51 168.05 331.4 170.73 329.64 171.91 328.42 172.35 327.49 172.94 326.33 174.26 326.44 174.52 325.41 176.08 325.57 176.9 325.16 178.07 325.11 179.41 324.5 181.25 324.82 182.13 324.74 183.11 325.21 184 324.46 185.36 324.01 187.27 323.54 188.39 322.92 188.17 322.31 188.91 322.16 189.82 321.67 190.06 321.39 192.18 320.23 194.61 320.21 196.65 319.89 197.57 318.72 199.22 318.33 199.14 317.24 200.74 316.85 202.09 316.2 202.89 316.58 203.32 316.43 204.25 315.95 204.98 314.94 205.6 313.97 206.6 313.6 207.55 313.55 208.61 313.12 210.4 312.58 211.62 311.95 212 311.7 213.07 312.17 213.44 312.09 215.19 313.29 216.47 313.11 218.44 311.2 220.74 311.01 222.33 309.55 222.22 309.32 222.89 308.58 223.53 309.1 224.65 308.88 225.4 309.28 226.2 309.88 226.68 309.87 228.43 310.22 230.23 310.66 230.92 310.55 232.55 311.44 233.58 311.43 235.48 311.68 236.32 311.52 237.49 312.14 238.8 312.72 241.79 313.25 245.37 312.96 246.32 313.46 247.13 313.67 248.62 313.61 249.74 312.91 251.27 313.51 251.98 313.81 255.43 313.49 256.39 312.71 257.01 311.27 257 310.52 258.74 310.54 259.65 309.58 261.29 309.72 262.11 309.37 262.74 309.36 263.84 308.51 265.56 307.8 266.45 307.06 266.63 306.73 268.45 305.99 270.1 306.69 271.24 306.51 271.93 306.98 273.68 306.39 274.6 306.59 275.12 306.2 276.4 306.53 276.63 306.49 278.27 306.89 279.13 308.13 279.45 308.21 280.32 305.99 280.36 304.99 280.09 302.9 280.08 301.6 279.3 298.99 278.55 299.82 281.2 298.99 283.07 298.57 285 298.64 285.93 298.17 287.28 297.56 287.93 297.49 289.41 296.45 290.5 296.25 291.23 295.73 291.44 296.25 292.91 295.95 293.7 296.4 294.57 295.71 295.88 294.64 295.72 294.45 294.95 293.71 294.5 292.73 294.68 292.08 295.16 291.19 294.14 289.05 294.61 288.25 295.25 288 296.04 286.68 296.91 285.43 297.09 283.62 297.63 283.06 297.27 282.38 298.33 281.31 299.36 280.88 299.37 279.76 297.99 279.01 298.39 278 298.48 277.71 297.11 276.94 297.15 276.79 297.99 276.13 298.78 276.71 299.58 276.03 300.12 275.17 300.36 274.33 299.96 273.75 300.4 273.63 301.15 272.86 302.01 272.77 303.48 271.21 303.68 271.19 302.98 270.52 302.57 270.27 301.74 269.54 301.54 268.69 300.82 268.01 300.71 267.82 301.79 266.96 301.88 265.51 301.11 265.58 299.58 263.81 299.57 263.5 298.9 262.65 299.51 261.71 298.45 261.77 297.13 260.82 296.94 259.68 295.2 259.08 294.98 258.69 293.92 257.9 293.08 256.46 292.38 256.55 291.5 257.06 290.51 256.89 289.28 257.52 288.69 257.79 287.78 257.1 286.82 255.41 285.64 255.03 284.68 254.9 283.24 255.29 282.18 255.13 280.99 255.47 280.04 256.86 278.84 257.44 277.86 258.62 277.29 259.51 276.07 260.61 275.76 261.51 275.01 261.69 272.79 262.64 270.93 262.56 269.96 262.06 269.37 261.55 267.44 261.68 266.91 262.94 265.69 263.26 264.17 263.03 263.14 263.13 262.19 262.84 261.07 262.22 259.86 262.01 258.98 262.65 257.87 262.45 256.47 263.18 255.04 263.09 253.7 263.44 252.49 262.73 251.64 262.43 249.74 261.48 248.07 259.94 246.92 259.33 245.75 259.96 244.67 260.84 242.48 262.07 240.93 263.17 240.3 263.75 239.59 264.49 239.35 264.72 238.18 264.54 236.98 263.35 235.53 262.64 233.58 262.71 232.12 263.25 230.99 262.34 229.58 262.81 228.3 264.28 225.99 264.53 224.88 265.24 224.51 266.01 223.12 266.18 222.03 267.61 219.93 267.56 219.64 265.32 218.79 264.9 218.29 264.33 216.85 264.4 216.06 265.32 214.63 265.83 213.02 265.26 211.85 265.11 210.89 265.48 209.45 266.18 208.28 266.48 206.61 267.25 204.57 267.35 202.48 268.23 200.28 268.16 199.04 268.43 197.18 269.09 196.72 269.48 195.45 269.87 193.27 270.49 192.56 270.73 191.77 270.41 190.94 270.71 190.56 270.76 188.83 271.8 187.24 271.6 186.1 272.36 184.71 273.52 183.95 274.68 182.54 275.98 181.48 277.28 178.7 277.62 177.45 278.64 175.95 279.5 174.4 279.92 174.02 280.12 172.69 282.06 171.1 283.23 169.38 283.77 169.16 285.17 169.42 286.1 169.37 288.02 168.52 289.94 168.14 290.78 167.24 291.69 167.13 293.65 166 294.4 164.67 295.75 164.15 296.55 162.64 297.06 161.11 296.75 158.99 297.23 157.75 298.5 157.38 299.31 156.83 300.35 156.85 302.07 156.04 303.42 154.35 303.81 153.51 304.19 151.97 304.22 149.87 305.1 149.6 307.16 150.03 308.1 149.96 310.24 151.55 311.32 151.66 312.4 151.5 313.01 151.73 314.63 153.42 315.48 154.58 317.28 152.96 318.9 152.02 321.61 150.93 322.55 150.39 324.06 150.28 324.91 150.89 325.6 152.01 327.27 153.09 327.72 153.67 328.22 155.76 329.62 155.97 331.32 155.98 333.16 154.13 334.98 153.24 340.21 150.06 343.91 150.65 346.43 151.34 347.92 152.35 Z" id="39020610"/>
<path d="M 304.22 149.87 304.19 151.97 303.81 153.51 303.42 154.35 302.07 156.04 300.35 156.85 299.31 156.83 298.5 157.38 297.23 157.75 296.75 158.99 297.06 161.11 296.55 162.64 295.75 164.15 294.4 164.67 293.65 166 291.69 167.13 290.78 167.24 289.94 168.14 288.02 168.52 286.1 169.37 285.17 169.42 283.77 169.16 283.23 169.38 282.06 171.1 280.12 172.69 279.92 174.02 279.5 174.4 278.64 175.95 277.62 177.45 277.28 178.7 275.98 181.48 274.68 182.54 273.52 183.95 272.36 184.71 271.6 186.1 271.8 187.24 270.76 188.83 270.71 190.56 270.41 190.94 270.73 191.77 270.49 192.56 269.87 193.27 269.48 195.45 269.09 196.72 268.43 197.18 268.16 199.04 268.23 200.28 267.35 202.48 267.25 204.57 266.48 206.61 266.18 208.28 265.48 209.45 265.11 210.89 265.26 211.85 265.83 213.02 265.32 214.63 264.4 216.06 264.33 216.85 264.9 218.29 265.32 218.79 267.56 219.64 267.61 219.93 266.18 222.03 266.01 223.12 265.24 224.51 264.53 224.88 264.28 225.99 262.81 228.3 262.34 229.58 263.25 230.99 262.71 232.12 262.64 233.58 263.35 235.53 264.54 236.98 264.72 238.18 264.49 239.35 263.75 239.59 263.17 240.3 262.07 240.93 260.84 242.48 259.96 244.67 259.33 245.75 259.94 246.92 261.48 248.07 262.43 249.74 262.73 251.64 263.44 252.49 263.09 253.7 263.18 255.04 262.45 256.47 262.65 257.87 262.01 258.98 262.22 259.86 262.84 261.07 263.13 262.19 263.03 263.14 263.26 264.17 262.94 265.69 261.68 266.91 261.55 267.44 262.06 269.37 262.56 269.96 262.64 270.93 261.69 272.79 261.51 275.01 260.61 275.76 259.51 276.07 258.62 277.29 257.44 277.86 256.86 278.84 255.47 280.04 255.13 280.99 255.29 282.18 254.9 283.24 255.03 284.68 255.41 285.64 257.1 286.82 257.79 287.78 257.52 288.69 256.89 289.28 257.06 290.51 256.55 291.5 254.93 291.58 254.57 292.1 253.5 292.57 253.22 293.1 252.36 292.62 252.45 291.3 251.31 290.2 248.57 289.95 246.68 290.17 246.02 290.42 244.85 291.31 243.64 291.81 242.84 291.85 241.86 291.43 241.19 291.7 240.45 292.89 240.66 293.34 239.43 294.44 237.23 295.21 235.81 294.93 234.86 295.34 235.05 296.45 234.04 296.61 233.35 297.27 232.54 298.45 232.23 298.28 231.04 298.7 230.68 298.38 229.2 298.76 226.84 300.76 226.86 301.69 225.86 301.36 223.8 302.72 222.7 303.12 221.63 304.87 219.84 303.93 219.57 303.12 218.01 302.8 216.34 303.17 216 304.07 215.94 305.07 216.18 306.59 215.55 306.36 214.75 305.11 214.4 304.04 213 303.37 213.03 303.89 213.73 304.83 211.84 305.5 210.61 305.4 209.9 306.44 209.79 308.1 208.08 308.16 207.32 308.52 205.74 307.39 205.76 306.82 204.69 305.84 205.3 303.98 205.8 303.02 205.15 302.6 205.29 300.99 206.44 300.18 207.15 299.26 207.3 295.84 208.11 294.44 207.89 293.73 208.53 292.74 209.07 291.11 209.44 290.58 209.74 289.41 209.54 288.1 209.14 287.06 209.77 285.27 208.72 284.23 208.68 283.16 208.92 281.82 208.09 279.59 207.1 279.32 207.16 278 208.62 276.79 209.54 275.71 210.22 273.69 210.15 272.61 209.02 271.2 209.27 270.61 209.26 269.27 207.67 268.78 208.26 266.44 208.82 265.49 209.66 264.72 209.75 263.57 209.54 261.55 210.8 260.64 211 259.85 209.62 258.37 209.22 257.42 209.1 256.16 209.74 255.45 209.6 254.83 208.64 254.24 207.77 253.3 207.21 251.63 207.29 250.53 206.9 249.96 205.73 249.63 206.22 248.13 207.69 246.43 208.08 244.77 208.88 243.85 208.7 242.2 208.94 241.18 208.9 240.14 209.27 238.58 208.65 237.74 208.36 236.85 209.76 235.43 210.3 234.16 211.01 233.79 211.93 231.97 211.99 231.03 212.94 229.73 213.16 228.79 214.1 227.36 214.54 226.21 215.71 224.48 216.6 221.94 217.5 219.95 218.09 219.53 219.77 217.54 221.08 216.61 221.26 217.34 220.5 219.08 220.55 220.28 222.3 222.79 224.64 225.03 225.8 225.79 228.61 227.27 230.35 228.98 234.38 232.17 235.05 232.51 235.97 232.08 236.97 232.23 238.97 233.08 239.01 231.47 239.58 230.13 239.73 228.99 239.66 227.54 240.07 227.24 240.35 225.34 240.79 224.2 240.85 223.4 241.92 221.39 243.54 220.38 243.43 218.88 243.86 217.95 245.48 216.72 247.69 217.21 250.56 217.09 251.72 216.4 252.48 214.23 254.79 213.56 256.47 212.47 256.52 211.91 256.09 210.82 257.68 208.98 258.41 208.83 259.26 207.99 260.86 207.11 261.69 206.42 261.83 203.92 262.55 202.14 262.08 198.66 262.03 197.34 261.6 195.43 262.31 193 264.18 190.43 265.88 187.8 266.27 186.73 265.68 185.98 266.45 184.51 266.33 183.5 266.67 183.11 266.69 181.85 269.14 180.8 269.86 180.06 271.06 179.38 272.54 178.8 272.84 177.98 274.03 176.89 274.36 175.88 273.37 174.6 272.52 174.03 271.95 172.55 271.18 171.14 271.92 168.94 272.14 167.9 273.02 167.85 275.92 165.83 276.57 165 277.14 163.33 277.36 161.19 276.81 160.06 277.21 159.8 276.55 157.78 276.54 156.1 276.81 155.56 278.16 154.11 278.91 153.56 279.47 153.71 280.13 153.16 281.62 152.44 282.22 152.59 283.91 151.96 285.38 150.95 287.92 150.52 290.65 150.9 292.45 151.3 293.41 151.17 296.2 151.51 300.37 151.24 301.38 150.22 302.98 150.22 304.22 149.87 Z" id="39020620"/>
<path d="M 413.77 290.28 411.9 290.65 409.92 290.56 407.94 290.04 406.63 290.59 404.76 291.07 404.06 291.03 403.69 292.14 403.14 292.21 402.69 290.9 402.02 290.23 400.58 290.27 399.96 289.28 400.5 288.47 401.02 288.65 403.03 287.51 403.95 287.23 408.22 286.14 409.93 285.86 412.01 286.13 412.48 285.82 414.18 286.74 414.3 288.63 413.77 290.28 Z" id="39020520"/>
<path d="M 412.48 285.82 412.01 286.13 409.93 285.86 408.22 286.14 403.95 287.23 403.36 283.11 403.05 280.46 403.18 280.26 403.25 280.31 407.98 279.15 407.86 279.98 408.33 280.84 409.22 281.56 408.5 282.2 409.49 283.31 410.37 283.2 412.48 285.82 Z" id="39020530"/>
<path d="M 403.95 287.23 403.03 287.51 401.02 288.65 400.5 288.47 399.96 289.28 400.58 290.27 402.02 290.23 402.69 290.9 403.14 292.21 403.69 292.14 402.99 294.33 402.32 293.53 401.22 295.28 401.11 297.98 402.13 299.5 401.62 300.02 401.23 300.02 400.57 298.61 399.71 297.58 396.71 298.02 394.9 296.59 393.48 296 392.67 294.94 391.97 295 390.85 296.63 389.46 298.14 389.77 298.69 389.12 299.2 388.77 298.58 386.49 296.63 386.73 295.35 387.12 294.96 387.91 291.47 386.01 290.26 387.16 286.39 388.61 286.66 389.47 285.68 390.7 286.12 393.1 284.08 393.37 282.78 394.41 281.96 395.43 282.22 395.67 281.75 403.05 280.46 403.36 283.11 403.95 287.23 Z" id="39020540"/>
<path d="M 465.95 288.86 463.55 289.8 463.78 289.18 466.01 288.25 466.75 287.76 467 288.47 465.95 288.86 Z M 467.78 283.33 465.81 284.44 465.28 285.53 465.39 287.84 464.77 287.25 464.77 285.6 464.45 284.72 463.25 285.03 463.5 286.3 462.83 287.32 463.12 288.78 462.69 291.14 463.4 291.7 463.48 292.62 463.02 293.46 461.74 295.15 460.02 295.16 459.5 295.76 458.43 296.17 457.4 296.84 457.69 294.02 457.63 293.11 457.15 292.24 455.2 293.4 454.99 292.17 454.23 290.86 454.28 290.06 454.76 289.11 454.19 287.99 454.21 287.14 453.55 286.36 452.87 286.3 452.51 284.69 452.53 282.62 453.06 282.24 453.06 281.16 452.3 279.86 451.14 279.63 449.87 278.72 449.24 278.88 448.48 278.29 447.16 278.12 446.51 277.19 445.28 277.12 445.08 278.03 444.1 279.1 443.43 279.3 442.78 280.47 441.11 280.83 439.3 281.51 437.69 278.8 437.08 276.89 437.39 276.1 436.64 273.22 436.51 272.09 437.06 271.34 437.01 270.61 437.85 269.65 438.85 269.91 439.23 269.09 440.46 268.48 440.58 268.1 442.29 267.37 443.39 266.14 443.44 264.76 444.56 264.38 445.17 263.53 445.38 262.46 444.74 260.89 444.88 260 444.25 258.21 445.53 257 446.73 256.67 447.31 256.84 449.74 255.56 451.78 255.48 452.02 255.11 453.96 254.44 455.21 256.07 456.09 255.33 456.27 254.24 456.2 252.61 456.88 252.51 457.73 251.57 460.27 250.67 460.97 250.2 461.32 249.33 462.81 249.16 463.78 249.37 464.45 250.09 463.95 252.14 464.45 253.44 465.1 253.93 466.27 255.9 466.73 257.42 466.67 258.25 466.25 259.16 466.3 259.91 467.13 260.74 467.19 261.72 466.11 263.18 465.34 263.7 465.21 264.89 466.23 267.11 467.93 267.84 468.48 268.6 468.57 269.33 468.2 270.09 467.74 271.92 467.78 272.6 467.49 275.61 466.86 277.06 466.61 278.24 466.67 279.92 467.02 281.13 467.71 281.64 467.78 283.33 Z" fill-rule="evenodd" id="39020550"/>
<path d="M 461.32 249.33 460.97 250.2 460.27 250.67 457.73 251.57 456.88 252.51 456.2 252.61 456.27 254.24 456.09 255.33 455.21 256.07 453.96 254.44 452.02 255.11 451.78 255.48 449.74 255.56 447.31 256.84 446.73 256.67 445.53 257 444.25 258.21 444.88 260 444.74 260.89 445.38 262.46 445.17 263.53 444.56 264.38 443.44 264.76 443.39 266.14 442.29 267.37 440.58 268.1 440.46 268.48 439.23 269.09 438.85 269.91 437.85 269.65 437.01 270.61 437.06 271.34 436.51 272.09 436.64 273.22 437.39 276.1 437.08 276.89 434.95 277.17 433.49 277.53 434.13 279.06 433.44 279.81 432.52 281.58 432.47 282.37 431.74 282.64 432.13 283.58 431.96 284.14 432.04 286.21 432.32 287.9 431.9 287.98 428.69 287.54 427.72 286.74 425.24 286.62 424.09 286.35 421.64 286.61 420.59 286.98 420.69 285.29 420.39 283.81 419.28 282.3 419.03 280.99 418.96 279.41 419.63 278.68 419.76 277.91 420.39 276.23 420.77 275.69 420.74 274.5 419.85 274.38 419.56 273.69 419.91 272.62 420.36 272.23 420.45 270.47 420.98 270.13 420.94 268.01 421.61 267.34 423.02 266.6 424.8 265.93 422.37 264.3 422.11 263.53 419.35 261.75 418.83 260.8 418.09 260 417.56 257.7 417.85 257.13 417.47 256.38 418.07 254.09 417.01 251.59 415.83 252.15 413.6 252.9 411.82 253.68 409.84 254.81 409.69 253.12 409.15 252.93 408.66 251.6 407.38 249.81 407.33 248.49 406.11 246.59 405.35 244.97 404.66 244.06 403.77 243.29 403.42 242.06 401.54 239.78 402.02 239.02 401.66 237.44 401.94 235.64 402.81 235.39 402.71 232.33 402.02 230.66 401.05 229.15 401.16 227.11 401.13 224.61 399.39 222.51 397.79 220.21 398.23 218.28 397.42 216.58 395.59 214.35 394.59 211.65 393.38 210.72 391.21 209.35 389.36 207.87 387.95 205.97 386.07 204.6 385.21 203.25 384.33 201.52 383.38 199.1 382.87 197.37 383.17 194.46 382.67 193.61 382.87 192.73 382.08 191.49 382.63 190.01 382.03 188.34 382.42 187.11 381.78 186.5 381.39 185.2 379.99 183.84 379.45 182.83 379.37 181.7 379.8 180.15 379.21 179.26 378.93 177.2 379.27 175.62 378.39 173.58 375.96 169.53 373.4 165.57 372.03 162.24 371.52 160.27 372.4 153.8 372.9 151.87 371.98 150.12 371.32 148.41 371.39 147.9 371.85 146.92 374.34 146.27 375.3 145.86 376.74 146.1 378.13 145.11 381.79 142.07 382.85 141.31 383.83 142.8 385.58 143.71 386.7 144.04 389.63 144.22 391.43 144.84 392.46 145.95 393.23 147.16 395.66 148.84 397.23 149.44 398.17 150.02 399.74 150.51 400.84 151.22 401.72 151.47 402.53 152.74 403.28 154.91 403.76 155.55 404.69 157.62 405.03 159.33 406.29 161.14 406.66 162.41 407.39 163.38 408.85 164.21 410.26 165.51 411.14 166.05 412.79 167.44 413.08 168.13 413.9 168.45 415.61 169.93 416.82 171.72 417.94 172.34 419.43 174.03 420.21 175.57 420.84 175.91 422.74 176.22 423.12 176.11 424.27 176.81 427.01 177.88 427.56 178.55 429.13 179.87 429.83 181.31 429.95 182.49 430.64 183.64 430.63 184.28 431.27 185.46 431.18 187.13 432.07 187.77 432.44 188.71 433.67 190.1 434.25 190.36 434.42 192.03 435.12 193.37 436.01 193.92 437.43 195.84 438.12 197.5 438.03 198.14 438.43 201.89 439.68 203.18 440.82 203.66 441.3 203.59 441.95 204.62 443.25 205.48 443.64 207.15 442.96 207.7 442.31 209.6 442.85 211.84 444.11 213.32 444.66 215.41 444.33 215.55 444.79 218.4 444.58 219.23 444.58 220.78 445.09 222.23 444.88 223.83 446.95 226.06 447.69 226.27 448.44 227.86 448.56 230.2 448.48 231.64 447.97 232.47 446.59 233.52 446.18 234.25 446.15 235.02 446.5 235.93 447.14 236.64 447.79 238.1 448.76 238.74 450.44 239.29 452.47 240.36 453.58 241.19 454.64 240.67 456.35 240.46 457.22 240.7 458.05 241.44 458.28 243.79 458.01 244.79 458.23 245.79 459 247.55 460.28 248.3 460.91 249.24 461.32 249.33 Z" id="39020560"/>
<path d="M 420.59 286.98 418.3 287.86 417.35 289.86 416.22 290.53 415.41 290.63 413.77 290.28 414.3 288.63 414.18 286.74 412.48 285.82 410.37 283.2 409.49 283.31 408.5 282.2 409.22 281.56 408.33 280.84 407.86 279.98 407.98 279.15 403.25 280.31 403.18 280.26 402.33 274.87 402.41 274.09 401.88 273.64 401.32 271.63 401.03 269.41 400.87 267.11 402.26 266.84 402.08 263.99 401.19 263.17 400.85 262.52 401.58 261.63 401.75 260.45 401.12 259.95 400.3 260.13 399.69 259.91 399.5 259.27 399.67 257.74 400.26 254.89 399.81 253.15 399.25 252.13 398.14 249.23 398.28 248.72 397.58 248.28 396.62 247.17 396.2 247.21 394.92 245.5 392.8 243.56 391.86 242.56 390.97 240.31 389.98 238.92 389.37 238.84 389.05 237.95 388.86 235.78 388.63 235.15 387.43 233.95 386.12 232.29 386.25 231.29 385.86 229.71 386.19 228.19 385.39 226.63 384.17 226.16 384.28 224.88 384.05 223.43 383.37 223.18 382.88 222.51 383.01 221.42 382.47 220.51 382.82 219.26 383.12 216.64 382.87 214.83 382.85 213.62 382.5 213.13 382.03 211.29 380.58 209.55 380.09 209.29 380.37 208.27 378.43 205.43 377.5 204.54 375.23 203.22 374.79 203.35 373.95 202.21 373.06 201.77 372.06 201.62 370.04 199.89 369.76 198.85 369.32 198.76 368.26 196.86 368.51 196.17 368.29 195.34 368.6 194.07 368.7 192.72 368.32 190.99 369.19 190.06 369.64 187.98 369.7 187.02 368.83 186.05 368.48 185.09 369.54 184.27 369.33 181.62 369.91 180.32 369.4 178.89 369.25 177.25 368.4 176.32 368.24 175.14 368.47 173.93 368.2 172.95 368.38 172.38 367.21 170.78 366.79 169.12 366.71 166.18 367.37 164.2 366.51 161.62 366.94 160.97 366.55 159.96 366.65 158.4 367.18 156.67 368.04 155.97 368.93 154.8 369.33 153.95 369.83 152.06 371.32 148.41 371.98 150.12 372.9 151.87 372.4 153.8 371.52 160.27 372.03 162.24 373.4 165.57 375.96 169.53 378.39 173.58 379.27 175.62 378.93 177.2 379.21 179.26 379.8 180.15 379.37 181.7 379.45 182.83 379.99 183.84 381.39 185.2 381.78 186.5 382.42 187.11 382.03 188.34 382.63 190.01 382.08 191.49 382.87 192.73 382.67 193.61 383.17 194.46 382.87 197.37 383.38 199.1 384.33 201.52 385.21 203.25 386.07 204.6 387.95 205.97 389.36 207.87 391.21 209.35 393.38 210.72 394.59 211.65 395.59 214.35 397.42 216.58 398.23 218.28 397.79 220.21 399.39 222.51 401.13 224.61 401.16 227.11 401.05 229.15 402.02 230.66 402.71 232.33 402.81 235.39 401.94 235.64 401.66 237.44 402.02 239.02 401.54 239.78 403.42 242.06 403.77 243.29 404.66 244.06 405.35 244.97 406.11 246.59 407.33 248.49 407.38 249.81 408.66 251.6 409.15 252.93 409.69 253.12 409.84 254.81 411.82 253.68 413.6 252.9 415.83 252.15 417.01 251.59 418.07 254.09 417.47 256.38 417.85 257.13 417.56 257.7 418.09 260 418.83 260.8 419.35 261.75 422.11 263.53 422.37 264.3 424.8 265.93 423.02 266.6 421.61 267.34 420.94 268.01 420.98 270.13 420.45 270.47 420.36 272.23 419.91 272.62 419.56 273.69 419.85 274.38 420.74 274.5 420.77 275.69 420.39 276.23 419.76 277.91 419.63 278.68 418.96 279.41 419.03 280.99 419.28 282.3 420.39 283.81 420.69 285.29 420.59 286.98 Z" id="39020570"/>
<path d="M 101.42 435.96 102.42 436.14 103.16 438.18 102.95 439.2 103.2 439.99 103.05 441.33 103.82 444.46 103.78 446.29 102.68 448.62 102.84 449.3 102.31 449.95 101.41 450 99.6 449.72 99.25 448.06 98.32 445.96 98.22 444.82 98.59 444.03 98.07 443.54 98.96 442.51 98.6 441.92 99.32 441.14 99.51 439.69 100.14 439.11 99.84 438.46 100.6 437.88 101.42 435.96 Z M 104.03 374.15 105.03 374.16 106.93 373.49 107.67 373.66 108.09 374.23 109 374.65 109.24 375.77 110.05 376.93 110.97 377.68 111.22 378.23 112.73 379.52 113.59 381.87 113.89 383.36 112.5 383.62 111.57 383.1 111.08 383.14 110.08 383.91 109.49 384.72 108.16 384.62 108.15 385.05 106.19 386.02 106.78 386.54 108.49 385.91 109.12 385.1 110.49 385.28 109.1 386.6 108.03 386.92 105.98 389.36 106.23 390.12 105.67 390.49 103.86 390.66 104.06 390.06 102.99 387.54 102.29 386.84 101.81 385.95 101.62 384.78 101.18 384.31 98.77 383.5 97.85 383.3 96.83 382.2 96.11 381.94 96.85 381.12 97.59 379.59 97.62 379.09 98.36 378.3 99.6 377.97 99.83 376.94 100.41 376.64 101.79 375.39 103.08 375.05 102.7 374.23 104.54 372.86 104.03 374.15 Z M 131.54 322.18 130.08 324.13 129.92 327.03 129.02 328.42 127.8 329.02 127.28 330.41 126.83 333.73 126.92 334.09 126.25 335.45 125.48 335.72 124.97 337.33 125.02 338.51 125.36 339.24 127.85 340.4 128.37 341.99 128.42 343.01 128.79 343.78 128.73 344.88 129.7 346.35 129.59 347.33 128.55 347.35 126.74 348.95 125.66 349.49 124.28 349.6 123.5 349.01 122.5 348.79 121.16 347.74 120.56 346.19 120.73 345.56 120.02 344.67 119.93 343.24 119.43 343.07 118.04 343.63 116.86 343.52 115.12 344.74 113.9 345.01 113.04 345.65 112.21 344.53 111.47 344.66 111.11 345.37 109.87 345.49 110.12 346.43 111.48 347.36 110.67 348.71 109.38 349.18 107.88 349.29 106.66 350.22 106.3 350.86 104.56 350.68 101.86 348.76 100.64 348.32 99.42 349.01 98.27 348 98.29 347.38 97.8 346.8 96.72 346.67 96.36 345.6 95.48 344.76 95.04 344.01 94.96 343.08 96.06 341.46 97.55 341.7 98.05 340.71 97.92 340.01 96.31 340.34 95.82 339.01 97.84 338.42 98.63 337.4 98 336.54 98.38 335.92 97.87 335.45 98.08 334.69 97.36 334.21 96.63 332.95 97.11 332.45 96.88 331.61 95.5 330.3 94.22 330.19 93.46 330.55 93.38 331.99 90.42 331.98 89.47 331.54 90.42 334.07 91.74 334.88 93.57 334.76 93.54 335.3 91.73 335.32 90.33 334.51 88.97 331.04 89.19 330.13 88.54 329.89 87.56 328.54 87.15 327.58 85.53 325.82 85.48 324.43 84.72 324.33 84.67 323.44 83.45 323.19 83.16 322.35 83.31 320.86 84.4 320.74 84.96 319.58 83.51 319.03 83.48 319.84 82.64 320.15 82.25 321.93 81.53 321.77 81.09 322.69 82.55 324.26 82.99 325.47 83.07 327.32 83.64 327.92 83.07 328.32 82.65 327.63 82.36 324.79 80.68 322.88 79.93 322.67 79.2 321.89 79.37 321.18 79.09 319.6 78.74 319.19 77.66 318.82 76.72 317.96 76.19 317.96 74.62 317.41 73.93 315.58 73.97 314.35 73.75 313.31 73.09 312.94 73.09 311.58 72.18 310.45 70.75 309.51 69.31 309.24 69.29 307.97 69.58 306.74 68.98 306.04 68.81 304.94 68.13 302.76 67.13 300.81 66.48 300.31 65.33 300.19 64.32 299.79 62.74 299.53 61.14 298.89 60.17 298.11 60.9 297.81 61.32 297.08 60.94 296.1 60.83 294.79 59.49 295.1 59.27 295.56 57.74 294.66 56.7 294.39 56.18 294.56 55.33 293.43 54.32 292.58 53.79 292.46 53.41 291.57 52.45 290.88 49.72 291.23 49.28 290.79 48.42 290.75 47.95 291.33 47.24 291.06 46.79 291.65 45.87 291.83 44.38 291.78 44.17 291.15 43.24 291.02 42.2 289.91 40.54 288.99 38.96 288.73 36.87 287.99 36.73 287.67 35.43 287.53 33.28 285.53 32.61 284.6 32.01 284.79 31.22 284.23 30.5 283.32 30.4 282.37 28.72 282.12 28.46 281.25 27.5 280.68 26.74 280.63 26.89 279.11 25.91 278.45 25.85 277.82 25.31 277.07 23.09 276.49 22.09 275.06 20.48 274.79 19.09 274.1 19 273.53 18.33 272.79 16.69 271.84 16.24 271.18 14.92 270.26 14.27 270.13 14.09 269.01 13.64 268.73 13.41 267.61 12.85 267.11 12.99 264.86 12.53 264.02 12.54 262.27 11.15 261.37 11.52 260.81 11.29 260.04 9.77 258.56 7.5 256.83 6.9 255.9 5.87 255.87 5.33 254.61 4.23 254 3.07 252.51 1.21 251.35 1.04 250.2 1.28 249.62 2.29 249.74 2.82 249.25 1.74 248.85 1.47 247.43 1.32 243.96 1 242.07 2.39 241.08 2.72 240.3 4.46 238.56 4.41 237.89 2.97 236.98 2.86 236.06 3.48 234.92 4.8 234.28 5.63 234.4 7.29 232.24 7.92 232.8 9.43 232.15 10.08 232.15 11.45 232.61 12.41 232.57 13.07 233.06 13.71 232.42 14.91 232.22 16.09 231.05 16.79 230.77 18.2 230.75 18.67 231.45 19.34 230.85 20.3 230.78 21.09 230.38 21.68 229.27 23.64 229.05 24.66 228.78 24.58 227.93 24.88 226.02 24.63 225.47 24.7 224.27 25.03 223.08 26.88 223.72 27.4 224.12 29.59 224.66 30.87 225.15 32.79 225.55 35.97 226.64 39.57 229.11 43.25 230.14 44.76 230.84 47.78 232.72 50.73 234.09 52.93 235.43 55.73 237 59.08 238.05 60.53 238.78 63.64 240.05 64.43 241.31 66.07 243.3 66.86 243.67 68.78 245.31 69.74 245.72 70.69 246.94 72.16 249.57 72.71 250.24 77.1 253.59 78.41 254.39 78.43 252.26 78.04 251.69 78.09 250.8 77.16 248.99 77.16 247.75 77.6 246.37 77.28 244.22 77.58 243.19 76.92 241.99 77.11 240.78 78.27 238.49 78.41 236.62 78.81 235.49 79.29 235.75 81.09 235.69 81.7 234.61 82.68 234.36 84.23 233.08 85.13 233.21 85.96 231.78 87.54 230.31 90.09 229.8 91.3 229.19 92.65 228.95 93.31 228.59 94.15 228.63 94.73 228.1 95.81 227.63 98.16 227.07 98.76 227.32 102.13 226.14 103.28 226.3 104.07 225.46 105.38 224.74 107.18 224.74 108.84 224.53 109.61 223.96 111.71 223.54 114.32 222.28 114.82 221.73 114.94 220.13 115.23 219.41 117.39 217.84 118.14 218.75 118.75 220.05 120.82 220.94 121.06 221.38 123.07 222.05 124.19 222.79 125.56 224.77 127.12 225.13 128.34 225.67 129.21 226.63 129.25 228.3 129.1 229.28 128.61 230.16 128.78 231.3 128.8 233.34 129.38 233.81 129.21 235.54 129.65 236.99 129.39 239.17 129.94 240.21 131.49 241.97 132.62 242.33 134.93 243.89 136.02 244.38 137.38 245.55 138.06 246.39 138.44 248.63 139.27 250.89 139.9 251.54 140.27 252.46 138.61 253.66 137.21 255.39 136.04 256.25 135.42 257 134.43 257.66 132.86 260.1 132.69 260.61 131.4 262.33 130.32 263.18 131.35 264.39 131.17 265.12 131.97 266.2 131 268.05 131.27 269.48 130.74 271.82 131.74 272.09 131.2 272.99 130.53 274.98 129.38 275.23 129.12 276.83 129.53 277.49 129.21 279.55 128.8 279.87 128.68 282.14 129.54 282.22 128.13 283.81 126.68 286.06 125.52 287.08 126.23 287.29 125.29 289.76 125.04 290.13 121.56 293.42 120.07 295.7 119.76 296.44 120.05 297.2 120.32 299.4 120.28 300.92 118.92 303.33 119.45 304.11 119.03 304.38 119.63 305.7 121.32 307.52 121.47 308.19 122.58 308.95 123.38 309.77 124.61 312.02 124.67 313.21 125.03 314.78 125.37 315.36 125.01 317.67 125.02 319.2 125.5 320.16 126.69 320.78 126.48 321.56 131.54 322.18 Z" fill-rule="evenodd" id="39020110"/>
<path d="M 501.13 312.51 502.39 312.79 503.64 314.09 503.29 315.09 502.26 315.18 501.94 315.9 502.47 316.71 501.23 317.34 500.82 317.05 499.35 317.8 498.21 318 497.55 317.28 496.49 316.79 496.35 316.17 497.04 315.25 496.83 314.46 497.18 313.55 497.96 313.73 499.73 312.73 500.31 312.91 501.13 312.51 Z M 467.78 283.33 467.71 281.64 467.02 281.13 466.67 279.92 466.61 278.24 466.86 277.06 467.49 275.61 467.78 272.6 467.74 271.92 468.2 270.09 468.57 269.33 468.48 268.6 467.93 267.84 466.23 267.11 465.21 264.89 465.34 263.7 466.11 263.18 467.19 261.72 467.13 260.74 466.3 259.91 466.25 259.16 466.67 258.25 466.73 257.42 466.27 255.9 465.1 253.93 464.45 253.44 463.95 252.14 464.45 250.09 463.78 249.37 462.81 249.16 461.32 249.33 460.91 249.24 460.28 248.3 459 247.55 458.23 245.79 458.01 244.79 458.28 243.79 458.05 241.44 457.22 240.7 456.35 240.46 454.64 240.67 453.58 241.19 452.47 240.36 450.44 239.29 448.76 238.74 447.79 238.1 447.14 236.64 446.5 235.93 446.15 235.02 446.18 234.25 446.59 233.52 447.97 232.47 448.48 231.64 448.56 230.2 448.44 227.86 447.69 226.27 446.95 226.06 444.88 223.83 445.09 222.23 444.58 220.78 444.58 219.23 444.79 218.4 444.33 215.55 444.66 215.41 444.11 213.32 442.85 211.84 442.31 209.6 442.96 207.7 443.64 207.15 443.25 205.48 441.95 204.62 441.3 203.59 440.82 203.66 439.68 203.18 438.43 201.89 438.03 198.14 438.12 197.5 437.43 195.84 436.01 193.92 435.12 193.37 434.42 192.03 434.25 190.36 433.67 190.1 432.44 188.71 432.07 187.77 431.18 187.13 431.27 185.46 430.63 184.28 430.64 183.64 429.95 182.49 429.83 181.31 429.13 179.87 427.56 178.55 427.01 177.88 424.27 176.81 423.12 176.11 422.74 176.22 420.84 175.91 420.21 175.57 419.43 174.03 417.94 172.34 416.82 171.72 415.61 169.93 413.9 168.45 413.08 168.13 412.79 167.44 411.14 166.05 410.26 165.51 408.85 164.21 407.39 163.38 406.66 162.41 406.29 161.14 405.03 159.33 404.69 157.62 403.76 155.55 403.28 154.91 402.53 152.74 401.72 151.47 400.84 151.22 399.74 150.51 398.17 150.02 397.23 149.44 395.66 148.84 393.23 147.16 392.46 145.95 391.43 144.84 389.63 144.22 386.7 144.04 385.58 143.71 383.83 142.8 382.85 141.31 384.7 140.91 386.17 140.21 386.76 139.59 388.86 138.28 390.19 137.23 390.75 137.05 393.22 135.62 394.01 134.8 395.17 134.31 396.24 133.45 397.1 133.91 398.38 135.06 399.97 135.48 400.5 135.35 401.4 134.1 402.35 134.11 402.96 134.17 404.3 135.09 405.91 135.18 407.71 135.85 409.05 135.78 410.05 136 411.21 135.71 412.1 136 413.02 135.16 414.19 135.03 415.23 135.85 416.39 135.46 417.59 135.8 418.28 135.29 420.51 134.45 422.82 133.92 423.63 133.89 425.3 133.46 427.52 133.85 427.77 133.64 430.1 132.98 431.2 133.06 432.71 132.78 435.18 133.4 435.98 131.38 436.72 130.59 438.75 130.14 439.94 129.42 441.35 128.18 442.13 127.72 444.05 127.04 446.43 125.44 447.84 124.77 449.11 123.97 450.79 123.23 453.26 122.93 455.97 122.38 458.1 122.44 459.3 122.12 460.89 122.24 461.74 122.1 462.89 121.44 464.41 120.08 465.44 119.71 467.44 120.82 468.17 120.02 469.22 119.88 469.67 115.86 470.69 113.6 472.32 112.06 473.09 111.76 473.54 111.07 475.26 110.09 478.14 109.08 478.38 109.88 478.97 110.29 480.21 110.64 480.48 110.35 481.9 110.14 484.31 110 486.66 109.24 488.65 109.08 491.93 109.19 493.04 109.32 495.05 107.86 495.56 107.83 496.69 108.43 498.45 107.77 500.5 110.17 501.81 111.41 503.48 112.51 504.82 113.06 508.08 114.66 508.83 115.23 510.73 115.68 512.13 115.84 513.23 117.75 514.45 118.27 515.02 117.68 516.5 117.86 517.34 118.29 517.4 119.22 518.71 120.36 518.58 121.28 519.06 122.21 519.29 123.83 519.56 124.34 519.67 127.41 521.08 126.9 521.14 127.89 523.6 127.91 524.59 128.78 526.09 130.67 527.28 131.79 529.24 131.58 529.66 130.75 530.19 130.54 530.88 129.53 532.73 129.62 533.69 130.5 534.61 130.05 535.7 131.29 537.16 131.19 537.78 131.38 539.04 132.63 541.61 133.55 542.52 132.77 542.14 131.78 543.63 130.33 545.34 131.12 546.18 130.7 547.09 131.05 548 130.71 549.61 131.5 552.62 133.22 553.34 133.16 553.91 133.7 554.89 134.02 555.65 133.42 556.18 133.51 557.61 134.49 559.18 134.18 559.38 135.21 560.01 135.94 562.16 135.87 563.13 136.74 563.99 136.47 565.5 137.17 566.25 136.91 567.31 137 568.25 138.04 569.84 139.08 572.33 139.79 573.2 140.59 574.87 141.13 575.86 142.67 577.26 144.06 578.63 143.66 580.08 144.42 580.9 144.42 582.07 144.86 582.92 145.86 582.97 146.86 583.96 147.56 584.71 148.58 584.23 150.13 584.26 150.91 585.86 151.46 587.02 152.93 587.06 153.35 588.39 154.49 588.2 155.67 588.94 155.66 589.26 156.97 588.71 157.53 588.87 158.33 589.42 159.3 590.58 160.18 591.56 161.36 592.78 162.28 594.27 162.1 595.54 164.24 596.73 165.44 597.07 166.95 597.96 168.55 597.94 170.05 599.08 172.64 600.47 174.04 601.34 174.52 602.55 174.73 603.42 175.37 603.35 176.49 603.88 178.91 605.06 179.84 605.37 181.03 606.37 183.05 605.7 184.79 606.44 185.41 606.95 184.77 607.42 185.43 607.01 186.12 607.3 187.05 606.66 188.28 606.85 190.02 606.55 190.36 604.73 191 605.06 191.7 606.09 192.74 605.85 193.78 605.87 195.23 606.6 195.63 606.97 195.07 607.67 194.9 608.69 195.45 607.93 196.6 608.48 198.43 608.5 199.49 608.2 200.24 609.05 202.03 611.85 202.3 612.96 203.08 613.23 203.57 612.78 204.5 613.41 205.58 614.27 206.15 615.69 207.84 616.79 209.91 617.5 210.86 618.8 211.44 619.35 211.42 621.1 210.77 621.9 210.98 621.68 212.13 623.58 214.97 624.25 216.79 622.82 218.58 623.01 218.96 621.68 221.38 621.52 222.05 620.71 222.68 620.27 223.48 619.43 223.6 618.88 224.04 617.07 224.24 614.75 225.36 613.88 226.63 614.04 227.14 614.99 227.1 614.88 227.73 613.52 228.38 613.38 229.12 612.66 230.34 612.86 231.88 612.48 232.14 612.1 233.9 612.64 234.09 613.12 235.25 612.34 235.39 611.59 234.53 610.8 234.83 609.76 234.63 608.68 234.08 607.95 235.6 607.03 235.41 606.31 236.43 605.29 236.7 604.92 237.92 604.2 238.94 603.64 239.28 603.95 240.18 602.47 240.07 601.21 240.56 599.85 241.58 597.97 239.38 597.72 238.88 596.92 239.45 598.34 240.21 597.43 241.03 597.62 242.28 597.2 243.18 596.66 243.3 596.55 244.02 596.99 244.72 596.62 245.18 595.64 247.6 595.48 248.73 594.69 248.34 593.13 248.25 592.12 250.3 590.66 250.33 590.16 250.97 588.68 251.18 587.92 250.53 586.62 251.43 585 250.35 585.82 249.21 586.38 247.3 584.68 249.15 584.08 248.47 583.07 248.17 581.84 246.66 580.66 246.89 580.53 246.51 579.45 246.46 578.99 247.4 578.82 248.86 578.16 250.01 575.78 249.71 574.45 249.73 573.22 249.02 572.25 249.09 570.69 250.06 569.44 250.03 569.52 250.67 569.02 251.04 568.6 252.5 567.25 253.03 566.58 252.12 565.96 252.24 565.45 251.62 564.86 251.97 564.77 252.66 563.94 252.76 562.99 253.64 560.99 252.63 560.18 253.25 559.06 253.19 559.17 253.75 558.58 254.45 556.47 254.99 555.97 255.44 555.17 255.3 553.09 255.83 552.58 255.71 551.29 256.04 549.7 257.22 548.92 257.16 547.02 258.1 546.65 258.73 545.72 258.81 544.88 259.45 543.76 259.4 542.99 259.67 540.96 259.77 540.46 260.1 538.9 260 538.2 260.83 536.19 260.31 534.98 260.84 533.56 260.84 532.62 261.19 531.11 261.1 530.3 261.46 529.01 260.93 528.33 261.06 527.78 259.95 527.1 260.12 526.25 259.42 525.1 259.56 524.64 259.92 524.03 259.56 523.16 259.85 523.42 261.54 523.81 262.18 523.27 262.6 522.7 264.07 522.26 264.05 521.46 262.95 519.94 262.47 519.17 262.93 518.76 262.43 518.97 260.74 516.99 260.48 515.98 259.58 513.41 259.05 513.04 260.25 511.38 259.92 510.31 260.35 509.57 260.2 508.56 261.83 508.3 262.53 507.62 262.94 506.54 263.17 506.02 263.73 504.56 264.64 504.2 264.31 505.58 263.56 506.43 262.72 507.74 262.4 508.93 260.54 506.41 258.56 506.32 257 507.57 256.92 506.93 255.36 504.33 255.19 502.63 255.73 503.44 256.84 504.23 259.22 504.25 260.34 503.84 260.73 505.76 262.08 505.35 262.26 503.55 260.91 502.89 262.04 501.65 261.91 500.16 261.24 499.08 262.18 497.25 260.68 496.08 261.41 496.19 263.24 495.54 264.28 493.9 262.03 492.56 262.08 491.32 262.97 489.57 263.51 486.11 265.7 486.41 266.59 486.11 267.27 486.45 268.46 487.72 269.76 487.68 270.77 486.88 271.3 486.35 272.69 484.5 273.06 483.71 273.7 484.54 274.68 484.67 275.63 481.58 276.52 480.46 276.1 479.64 276.89 477.68 278.4 477.54 279.21 476.73 279.34 476.7 280.14 475.76 280.38 475.3 280.14 474.68 279.19 472.59 279.32 472.15 279.84 472.68 281.14 472.26 282.37 471.37 283.19 469.86 283.42 469.19 283.18 467.78 283.33 Z" fill-rule="evenodd" id="39020120"/>
<path d="M 775.33 29.04 774.52 30.47 774.12 30.06 774.9 28.77 775.33 29.04 Z M 781.13 8.29 785.27 8.3 785.45 8.52 779.33 8.53 779.49 8.27 781.13 8.29 Z M 699.25 179.38 698.82 178.86 698.66 177.82 698.97 176.99 698.78 175.93 697.96 174.68 697.42 173.49 696.38 172.78 695.61 171.91 695.15 170.32 694.02 168.58 693.72 167.68 693.41 165.47 692.37 164.21 691.44 162.45 690.62 161.49 690.26 160.7 689.4 159.79 689.34 157.86 687.89 156.84 687.38 156.26 686.84 154.25 686.44 153.63 685.16 152.97 683.6 151.86 681.73 151.55 680.77 151.1 679.47 149.9 677.16 148.79 676.88 148.26 676.03 147.8 674.72 147.46 673.14 146.37 672.83 145.8 671.9 145.12 671.33 144.26 669.9 143.07 669.08 141.79 668.14 141.01 667.08 140.46 666.31 139.55 665.3 139.08 665.07 137.8 664.14 136.41 663.29 136.08 661.43 136.94 660.55 136.84 657.74 135.64 656.61 134.88 654.76 132.38 654.1 131.94 653.38 130.22 652.57 129.61 651.51 129.59 650.95 128.1 650.85 126.6 649.85 125.47 648.92 123.62 649.58 123.11 649.97 122.28 650.57 121.82 652.27 121.48 654.36 120.38 655.16 119.07 654.74 117.48 655.47 116.54 656.63 116.37 656.78 115.19 656.15 113.61 656.68 111.32 657.68 109.02 659.07 108.01 659.41 107.16 659.24 106.39 659.84 104.38 660.81 103.26 661.31 101.59 661.49 100.39 662.09 98.52 662.58 97.48 662.89 95.51 663.44 93.44 663.57 91.97 663.99 89.84 665.09 88.7 665.86 87.52 666.14 85.89 666.63 84.37 667 80.53 667.03 78.15 667.87 76.2 668.38 73.79 668.84 73.37 669.34 72.1 669.28 70.66 669.49 69.05 670.86 64.83 669.7 63.76 668.19 64.45 665.7 65.89 664.57 66.25 664.54 65.18 665.02 61.89 665.2 59.55 664.64 58.49 664.09 58.03 663.64 56.16 663.16 55.29 662.45 54.58 661.32 52.82 657.94 53.06 656.24 52.79 656.82 50.82 656.33 49.02 656.97 47.82 659.39 47.51 661.96 46.5 662.34 46.82 663.43 46.98 663.61 46.32 664.27 45.48 666.37 45.15 667.32 43.84 667.9 43.89 670.55 45.2 671.31 45.21 671.63 44.53 671.65 43.25 672.59 41.74 672.94 40.76 673.49 40.62 673.28 39.72 673.19 37.51 674.19 37.13 674.74 37.35 676.15 36.97 677.22 36.96 678.09 36.63 678.88 36.77 680.47 35.61 681.33 34.34 684.38 32.88 686.39 31.13 688.42 30.2 690.34 29.09 692.61 28.03 696.45 26.46 696.98 26.51 699.04 26.13 701.82 25.97 703.1 25.33 704.68 25.01 707 21.84 706.93 21.44 707.8 20.45 709.1 19.92 711.26 19.47 711.77 19.14 713.11 18.87 715.31 18.96 716.51 18.6 717.02 18.14 718.45 15.9 719.61 15.09 720.74 13.5 721.66 14.09 722.18 13.84 723.16 13.98 723.24 12.73 722.98 10.87 724.27 10.13 727.65 10.1 729.19 8.81 730.1 9.05 731.7 8 732.53 7.73 733.1 6.28 735.22 3.89 736.17 4.14 738.72 6.14 739.23 5.83 739.73 4.06 740.24 3.69 740.89 4.34 741.44 3.51 742.83 3.52 743.93 2.59 744.92 2.39 746.14 2.62 748.15 2.11 749.06 1 750.28 1.53 751.29 1.72 752.17 1.44 753.01 1.64 753.05 2.55 754.99 5.29 756.1 5.86 759.4 6.75 760.27 6.08 760.67 5.29 761.46 6.67 761.42 7.56 761.74 9.08 762.55 10.8 763.23 11.31 762.92 12.15 763.95 13.35 765.01 14.03 766.35 13.62 766.87 14.34 767.43 14.21 768.95 14.59 768.81 15.56 769.83 16.28 770.14 15.76 770.86 16.32 770.64 16.84 771.89 17.62 772.92 17.18 773.05 16.31 773.99 16.36 774.68 15.97 776.64 14.2 778.46 12.8 778.44 13.4 777.1 14.48 776.49 16.8 776.97 17.68 777.77 18.52 777.21 19.02 776.78 18.64 775.14 19.15 774.46 20.16 774.38 21.74 773.23 22.23 772.31 23.43 772.71 23.98 773.85 24.62 773.28 25.06 772.95 27.36 773.55 28.1 773 29.69 774.01 31.06 774.36 32.02 774.09 32.35 774.38 33.58 774.83 34.57 775.47 34.56 776.43 33.92 776.38 33.57 777.6 33.29 779.37 32.27 780.41 31.11 780.54 30.26 780.28 29.4 778.84 28.63 780.46 27.64 780.7 26.8 782.63 25.46 783.43 24.41 783.63 23.49 783.34 22.42 781.97 21.48 781.03 21.2 780.14 21.53 779.34 20.93 779.38 20.24 780.31 19.91 779.72 19.18 779.83 18.25 781.44 14.56 780.27 13.35 780.59 12.64 787.11 12.57 787.1 10.93 787.44 10.93 787.49 7.1 787.97 8.16 788 12.43 786.86 15.56 787.36 17.19 787.72 17.65 788.75 17.97 789.06 18.64 788.74 20.02 788.37 20.57 788.56 22.65 788.44 24.07 790.17 23.54 790.43 24.42 790.88 24.82 791.19 25.87 791.06 26.75 791.5 27.16 792.36 27.17 793.14 27.59 795.24 27.85 797.19 29.53 797.58 30.25 797.51 31.98 797.96 32.71 799 32.98 798.55 33.91 798.01 33.54 796.57 34.8 795.29 35.08 794.38 35.01 791.66 34.19 790.88 33.08 789.44 32.21 788.83 31.27 788.82 30.72 788.06 30.45 786.95 29.33 786.57 29.2 786.46 28.18 785.09 28.44 783.37 29.33 781.82 30.57 780.9 32.05 780.74 32.83 781.72 33.5 781.84 34.09 780.88 35 779.87 35.55 779.84 36.05 778.52 36.81 777.32 37.97 776.73 38.22 776.44 38.88 777.14 39.22 776.27 41.57 775.58 41.73 774.61 41.29 774.2 41.85 773.92 43.64 774.19 44.84 774.77 45.71 773.87 46.6 773.5 47.42 773.28 49.22 773.76 50.79 774.96 50.71 775.81 50.36 776 52.07 774.66 51.98 773.77 52.48 773.82 53.96 774.29 53.79 774.92 54.91 776.29 58.28 777.41 59.53 779.48 60.44 779.7 59.72 780.87 60.23 781.17 61.32 781.76 61.71 783.21 61.38 783.67 62.25 784.62 62.39 785.42 63.82 786.11 63.46 786.6 64.02 786.52 64.9 787.68 65.45 788.42 66.17 788.34 66.76 786.32 67.61 786.27 69.63 785.19 69.6 784.58 70.24 783.46 72.07 783.07 74.16 782.21 74.63 781.44 74.39 781.04 74.73 780.11 73.71 778.58 72.8 777.45 71.73 776.96 71.72 776.35 70.85 775.53 70.36 774.15 69.95 774.03 69.02 774.4 67.4 774.96 67.03 776.39 67.41 776.94 66.86 777.14 65.95 776.99 64.86 776.27 63.36 775.24 62.84 775.45 62.09 775.18 61.3 775.68 60.85 774.9 60.14 773.32 59.48 771.62 59.32 769.88 59.72 768.29 60.33 767.45 60.97 767.74 61.67 767.06 62.03 767.47 62.73 768.59 63.72 767.41 64.07 767.41 65.1 768.1 66.99 769.22 67.3 769.21 68.81 768.55 68.97 768.18 70.43 767.46 70.76 766.51 71.81 766.66 72.38 765.48 73.3 766.11 74.34 765.73 76.06 765.91 76.75 764.47 77.75 763.51 77.82 763.5 80.31 762.76 80.88 762.8 83.04 762.52 83.28 762.62 84.79 762.43 85.29 762.83 86.3 761.46 87.48 761.9 88.46 761.69 89.48 761.16 90.04 761.16 90.63 759.87 91.04 759.48 92.46 759.77 93.48 759.06 94.86 757.63 95.49 756.22 97.06 755.67 96.8 755.13 97.19 755.26 98.27 755.02 98.87 755.59 100.06 755.48 101.05 756.35 102.62 757.28 102.69 757.06 103.43 758.54 104.31 757.67 107.13 758.07 107.71 758.03 108.6 758.4 108.97 757.79 110.32 757.89 111.09 757.54 111.68 757.66 112.81 757.37 113.27 756.32 113.44 755.85 114.21 754.47 114.56 754.06 114.12 753.02 114.19 752.09 114.82 751.55 115.92 750.8 115.85 749.52 116.32 749.33 116.63 746.87 116.7 746.01 116.48 745.59 116.93 743.55 117.26 742.87 118.17 740.97 119.18 739.77 120.22 739.52 120.96 737.62 121.48 737.21 122.42 736.17 121.32 735.55 121.39 735.18 122.54 733.78 122.19 732.61 122.91 732.32 123.47 731.48 123.31 731.45 124.15 732.37 124.36 732.22 126.15 732.44 127.31 731.68 127.66 730.82 128.48 729.81 129.8 729.31 130.09 729.25 130.88 728.27 131.42 727.9 131.97 726.89 132.56 725.53 134.28 725.45 134.96 723.94 135.16 723.61 136.27 723.04 136.43 722.58 135.91 721.4 136.54 721.57 137.29 722.94 137.28 723.88 137.92 723.51 138.56 724.15 138.95 723.79 139.51 723.56 140.66 723.83 141.19 722.37 143.02 722.43 143.91 720.79 144.11 720.25 144.91 719.68 144.85 718.58 145.82 717.55 146.39 717.93 147.34 718.45 147.54 719.7 148.58 719.54 149.18 718.05 150.27 718.79 151.14 718.22 152.31 719.22 154.21 718.74 157.82 718.21 159.04 717.07 160.51 716.24 160.93 715.18 162.49 714.35 163.38 714.15 164.68 713.03 166.08 710.82 166.59 709.98 166.62 709.2 168.16 708.63 168.6 709.18 170.43 708.76 171.28 708.06 171.82 709.09 173.09 708.74 173.23 707.24 171.83 706.47 173.78 705.85 174.4 706.79 175.19 706.39 177.76 705.17 177.7 704.33 177.42 703.22 177.9 702.54 177.78 701.9 178.75 700.39 178.78 701.03 179.56 700.32 180.75 699.25 179.38 Z" fill-rule="evenodd" id="39020130"/>
<path d="M 150.54 331.15 151.2 331.53 150.7 332.27 149.49 333.23 148.49 331.97 149.01 331.08 148.42 329.97 149.28 330.09 150.54 331.15 Z M 271.95 172.55 272.52 174.03 273.37 174.6 274.36 175.88 274.03 176.89 272.84 177.98 272.54 178.8 271.06 179.38 269.86 180.06 269.14 180.8 266.69 181.85 266.67 183.11 266.33 183.5 266.45 184.51 265.68 185.98 266.27 186.73 265.88 187.8 264.18 190.43 262.31 193 261.6 195.43 262.03 197.34 262.08 198.66 262.55 202.14 261.83 203.92 261.69 206.42 260.86 207.11 259.26 207.99 258.41 208.83 257.68 208.98 256.09 210.82 256.52 211.91 256.47 212.47 254.79 213.56 252.48 214.23 251.72 216.4 250.56 217.09 247.69 217.21 245.48 216.72 243.86 217.95 243.43 218.88 243.54 220.38 241.92 221.39 240.85 223.4 240.79 224.2 240.35 225.34 240.07 227.24 239.66 227.54 239.73 228.99 239.58 230.13 239.01 231.47 238.97 233.08 236.97 232.23 235.97 232.08 235.05 232.51 234.38 232.17 230.35 228.98 228.61 227.27 225.8 225.79 224.64 225.03 222.3 222.79 220.55 220.28 220.5 219.08 221.26 217.34 221.08 216.61 219.77 217.54 218.09 219.53 217.5 219.95 216.6 221.94 215.71 224.48 214.54 226.21 214.1 227.36 213.16 228.79 212.94 229.73 211.99 231.03 211.93 231.97 211.01 233.79 210.3 234.16 209.76 235.43 208.36 236.85 208.65 237.74 209.27 238.58 208.9 240.14 208.94 241.18 208.7 242.2 208.88 243.85 208.08 244.77 207.69 246.43 206.22 248.13 205.73 249.63 206.9 249.96 207.29 250.53 207.21 251.63 207.77 253.3 208.64 254.24 209.6 254.83 209.74 255.45 209.1 256.16 209.22 257.42 209.62 258.37 211 259.85 210.8 260.64 209.54 261.55 209.75 263.57 209.66 264.72 208.82 265.49 208.26 266.44 207.67 268.78 209.26 269.27 209.27 270.61 209.02 271.2 210.15 272.61 210.22 273.69 209.54 275.71 208.62 276.79 207.16 278 207.1 279.32 208.09 279.59 208.92 281.82 208.68 283.16 208.72 284.23 209.77 285.27 209.14 287.06 209.54 288.1 209.74 289.41 209.44 290.58 209.07 291.11 208.53 292.74 207.89 293.73 208.11 294.44 207.3 295.84 207.15 299.26 206.44 300.18 205.29 300.99 205.15 302.6 205.8 303.02 205.3 303.98 204.69 305.84 204 306.12 203.45 307.3 203.77 308.23 203.18 308.58 201.9 307.84 202.09 306.81 201.49 306.57 200.02 305.36 199.81 303.95 199.06 303.01 199.52 302.49 199.34 301.69 198.62 300.32 198.45 298.99 197.63 299.85 197.01 300.06 196.94 302.07 196.04 301.8 195.37 302.25 194.77 301.91 195.39 301.15 195.62 300.34 194.34 299.41 193.78 299.46 192.03 300.38 190.16 301.18 188.94 301.36 187.25 301.94 186.42 302.02 185.23 301.58 184.82 300.93 183.04 299.86 180.73 300.07 180.06 300.36 180.08 300.93 176.97 301.47 175.92 301.29 175.11 300.68 173.7 301.83 173.03 301.52 169.67 302.68 165.22 305.22 163.67 305.28 163.7 304.53 165.06 304.53 169.4 302.24 171.59 301.6 170.9 299.49 169.13 300.05 168.77 299 170.51 298.41 169.99 296.09 167.61 294.5 166.56 294.24 166.54 295.82 164.59 295.82 164.58 299.34 164.23 299.35 164.24 294.31 163.52 294.32 162.15 294.75 160.39 296.28 158.58 296.27 156.46 296.69 154.01 298.1 151.93 299.66 151.46 300.59 151.33 302.05 150.56 303.7 150.51 304.25 151.24 304.59 150.85 305.52 150.33 305.74 149.48 305.15 149.45 304.72 147.97 304.34 147.08 304.73 146.41 305.7 146.39 306.18 145.21 307.45 145.48 308.42 144.85 310.91 144.12 311.4 142.98 311.47 141.81 311.08 143.94 310.35 142.31 309.47 140.68 310.1 140.71 310.8 139.98 311.14 139.76 311.85 138.72 311.36 137.92 311.39 136.91 311.83 135.89 313.18 135.93 314.65 135.61 315.04 134.07 315.34 133 316.2 132.62 317 132.69 317.77 132.23 318.96 131.07 320.33 131.85 320.86 131.54 322.18 126.48 321.56 126.69 320.78 125.5 320.16 125.02 319.2 125.01 317.67 125.37 315.36 125.03 314.78 124.67 313.21 124.61 312.02 123.38 309.77 122.58 308.95 121.47 308.19 121.32 307.52 119.63 305.7 119.03 304.38 119.45 304.11 118.92 303.33 120.28 300.92 120.32 299.4 120.05 297.2 119.76 296.44 120.07 295.7 121.56 293.42 125.04 290.13 125.29 289.76 126.23 287.29 125.52 287.08 126.68 286.06 128.13 283.81 129.54 282.22 128.68 282.14 128.8 279.87 129.21 279.55 129.53 277.49 129.12 276.83 129.38 275.23 130.53 274.98 131.2 272.99 131.74 272.09 130.74 271.82 131.27 269.48 131 268.05 131.97 266.2 131.17 265.12 131.35 264.39 130.32 263.18 131.4 262.33 132.69 260.61 132.86 260.1 134.43 257.66 135.42 257 136.04 256.25 137.21 255.39 138.61 253.66 140.27 252.46 139.9 251.54 139.27 250.89 138.44 248.63 138.06 246.39 137.38 245.55 136.02 244.38 134.93 243.89 132.62 242.33 131.49 241.97 129.94 240.21 129.39 239.17 129.65 236.99 129.21 235.54 129.38 233.81 128.8 233.34 128.78 231.3 128.61 230.16 129.1 229.28 129.25 228.3 129.21 226.63 128.34 225.67 127.12 225.13 125.56 224.77 124.19 222.79 123.07 222.05 121.06 221.38 120.82 220.94 118.75 220.05 118.14 218.75 117.39 217.84 119.83 217.14 121 217.05 121.8 216.5 122.73 214.94 122.86 213.13 125.75 210.79 128.06 209.02 128.64 207.68 129.01 205.74 129.64 203.65 130.14 201.3 130.77 199.97 131.11 198.61 132.2 195.08 136.12 194.4 139.67 192.23 140.31 190.92 142.07 189.41 144.86 190.7 145.51 190.89 147.37 189.95 148.07 189.2 149.76 189.21 153.62 188.77 154.77 188.55 155.76 188.82 156.46 189.29 157.45 190.62 158.04 190.82 159.1 190.54 160.41 189.6 160.14 188.95 161.12 188.55 166.13 182.03 166.83 181.69 167.49 180.58 168.15 180.92 169.23 179.66 169.39 178.85 171.63 177.69 172.09 176.35 173.36 174.01 174.78 172.49 175.86 172.09 176.65 171.46 176.75 169.28 177.34 168.95 178.78 168.94 180.32 169.54 182.36 170.09 183.35 170.75 185.13 171.47 185.63 171.92 186.82 172.27 187.93 172.12 189.35 172.6 193.81 172.37 195.29 172 196.96 171.34 198.83 171.01 200.22 171.1 200.57 171.63 203.19 172.1 205.23 172.13 206.49 171.85 207.97 170.68 208.49 169.07 209.95 167.33 211.74 166.63 213.3 165.26 213.93 165.18 215.82 165.47 219.39 165.71 220.37 165.95 221.7 166.57 223.27 166.71 224.39 167.54 225.17 167.78 225.97 167.18 226.3 167.63 228.41 168.19 230.02 169.34 230.78 169.1 233.69 168.57 234.95 167.96 236.3 168.17 239.29 167.98 240.7 168.22 241.5 169.31 242.56 170.05 243.19 169.79 244.62 169.74 245.9 169.42 247.9 171.19 249.07 171.27 252.03 170.65 254.01 170.89 255.97 170.71 256.61 170.5 257.81 170.96 259.38 172.17 261.12 172.1 262.65 171.66 264.66 172.02 265.64 172.61 267.09 172.37 268.02 171.98 268.66 172.38 269.44 172.24 271.95 172.55 Z" fill-rule="evenodd" id="39020310"/>
<path d="M 699.25 179.38 699.21 180.95 698.59 180.86 698.27 180.08 697.36 180.9 697.22 182.8 695.97 183.45 695.44 184.43 693.8 183.96 693.64 185.06 693.1 186.1 692.86 187.2 693 188.78 692.67 189.48 693.55 191.23 695.38 191.85 694.18 192.66 695.12 193.22 696.57 192.7 699.27 193.05 699.51 193.85 698.83 194.42 699.05 194.93 697.21 196.12 697.24 196.83 697.83 197.49 698.07 198.59 698 200.29 697.04 200.36 696.51 199.79 695.37 200.01 695.4 200.57 694.77 201.06 693.57 200.63 692.94 201.28 692.4 202.78 692.65 203.29 691.45 205.02 689.96 204.81 690.16 205.62 689.39 206.93 688.37 207.27 687.49 208.03 687.54 208.64 686.64 210.34 685.83 210.43 684.95 210.08 684.19 210.8 684.26 211.45 685.2 212.58 684.74 213.41 682.98 213.34 681.24 214.13 680.15 215.12 678.94 215.91 678.35 216.59 677.61 216.86 676.18 216.37 674.85 216.63 674.23 217.3 672.58 217.01 670.74 217.5 669.66 216.94 669.2 216.4 669.27 215.79 668.46 214.83 666.69 215.86 665.35 215.26 664.94 214.81 663.58 215.74 663.72 216.99 661.94 216.72 661.78 217.12 660.6 217.68 659.88 218.41 660.44 219.38 659.94 220.13 659.07 220.34 658.23 221.22 657.12 221.75 655.52 221.73 655.23 220.71 653.88 220.3 654.47 219.7 654.05 218.59 653.4 218.01 651.71 218.73 651.75 219.54 651.42 220.33 649.71 219.53 649.62 220.32 648.41 220.63 647.5 220.39 646.68 220.62 643.94 219.49 642.21 218.3 641.71 218.5 641.56 219.47 639.92 220.71 639.26 220.41 638.82 219.53 638.17 219.44 637.18 220.19 636.65 218.62 635.62 219.4 635.11 218.28 634.8 216.98 633.66 216.49 633.19 217.09 632.46 216.89 631.24 217.12 631.21 216.64 629.2 216.56 628.5 215.97 626.76 215.86 626.3 215.57 624.94 216.16 624.25 216.79 623.58 214.97 621.68 212.13 621.9 210.98 621.1 210.77 619.35 211.42 618.8 211.44 617.5 210.86 616.79 209.91 615.69 207.84 614.27 206.15 613.41 205.58 612.78 204.5 613.23 203.57 612.96 203.08 611.85 202.3 609.05 202.03 608.2 200.24 608.5 199.49 608.48 198.43 607.93 196.6 608.69 195.45 607.67 194.9 606.97 195.07 606.6 195.63 605.87 195.23 605.85 193.78 606.09 192.74 605.06 191.7 604.73 191 606.55 190.36 606.85 190.02 606.66 188.28 607.3 187.05 607.01 186.12 607.42 185.43 606.95 184.77 606.44 185.41 605.7 184.79 606.37 183.05 605.37 181.03 605.06 179.84 603.88 178.91 603.35 176.49 603.42 175.37 602.55 174.73 601.34 174.52 600.47 174.04 599.08 172.64 597.94 170.05 597.96 168.55 597.07 166.95 596.73 165.44 595.54 164.24 594.27 162.1 592.78 162.28 591.56 161.36 590.58 160.18 589.42 159.3 588.87 158.33 588.71 157.53 589.26 156.97 588.94 155.66 588.2 155.67 588.39 154.49 587.06 153.35 587.02 152.93 585.86 151.46 584.26 150.91 584.23 150.13 584.71 148.58 583.96 147.56 582.97 146.86 582.92 145.86 582.07 144.86 580.9 144.42 580.08 144.42 578.63 143.66 577.26 144.06 575.86 142.67 574.87 141.13 573.2 140.59 572.33 139.79 569.84 139.08 568.25 138.04 567.31 137 566.25 136.91 565.5 137.17 563.99 136.47 563.13 136.74 562.16 135.87 560.01 135.94 559.38 135.21 559.18 134.18 557.61 134.49 556.18 133.51 555.65 133.42 554.89 134.02 553.91 133.7 553.34 133.16 552.62 133.22 549.61 131.5 548 130.71 547.09 131.05 546.18 130.7 545.34 131.12 543.63 130.33 542.14 131.78 542.52 132.77 541.61 133.55 539.04 132.63 537.78 131.38 537.16 131.19 535.7 131.29 534.61 130.05 533.69 130.5 532.73 129.62 530.88 129.53 530.19 130.54 529.66 130.75 529.24 131.58 527.28 131.79 526.09 130.67 524.59 128.78 523.6 127.91 521.14 127.89 521.08 126.9 519.67 127.41 519.56 124.34 519.29 123.83 519.06 122.21 518.58 121.28 518.71 120.36 517.4 119.22 517.34 118.29 516.5 117.86 515.02 117.68 514.45 118.27 513.23 117.75 512.13 115.84 510.73 115.68 508.83 115.23 508.08 114.66 504.82 113.06 503.48 112.51 501.81 111.41 500.5 110.17 498.45 107.77 498.72 106.41 498.37 105.52 499.21 104.72 499.63 103.91 499.66 102.98 500.06 102.44 502.5 102.09 504.19 101.1 504.99 100 505.69 99.37 506.98 99.09 509.61 99.14 511.67 100.15 513.75 101.5 514.87 101.32 517.75 98.54 519.4 97.69 521.82 95.88 523.49 94.4 526.82 91.18 528.51 90.29 529.99 89.13 531.54 87.52 532.7 86.69 533.65 85.65 536.73 84.03 538.16 83.38 543.14 80.12 545.85 78.48 548.73 77.2 551.73 76.14 552.93 76.02 555.52 75.21 563.94 75.24 565.06 74.73 567.05 74.14 569.09 73.71 571.09 72.47 573.84 72.18 575.93 70.89 576.11 70.5 578.64 69.58 578.84 69.39 580.47 72.31 583.62 74.69 585.9 76.2 587.28 76.87 588.63 77.28 595.62 77.96 598.02 78.33 599.89 77.74 601.44 77.48 604.33 77.34 606.7 76.44 608.98 75.87 616.73 70.92 617.95 70.04 620.14 67.87 621.07 66.81 623.35 65.17 626.08 61.77 626.62 60.63 627.43 60.41 630.71 60.08 631.72 59.53 632.04 58.88 633.97 56.27 635.02 54.66 636.22 52.28 636.96 51.67 641.36 51.65 643.5 52.1 645.02 52.99 646.84 53.65 647.91 53.87 649.23 53.32 650.43 52.61 650.32 50.97 652 50.06 652.7 49.41 655.69 48.08 656.97 47.82 656.33 49.02 656.82 50.82 656.24 52.79 657.94 53.06 661.32 52.82 662.45 54.58 663.16 55.29 663.64 56.16 664.09 58.03 664.64 58.49 665.2 59.55 665.02 61.89 664.54 65.18 664.57 66.25 665.7 65.89 668.19 64.45 669.7 63.76 670.86 64.83 669.49 69.05 669.28 70.66 669.34 72.1 668.84 73.37 668.38 73.79 667.87 76.2 667.03 78.15 667 80.53 666.63 84.37 666.14 85.89 665.86 87.52 665.09 88.7 663.99 89.84 663.57 91.97 663.44 93.44 662.89 95.51 662.58 97.48 662.09 98.52 661.49 100.39 661.31 101.59 660.81 103.26 659.84 104.38 659.24 106.39 659.41 107.16 659.07 108.01 657.68 109.02 656.68 111.32 656.15 113.61 656.78 115.19 656.63 116.37 655.47 116.54 654.74 117.48 655.16 119.07 654.36 120.38 652.27 121.48 650.57 121.82 649.97 122.28 649.58 123.11 648.92 123.62 649.85 125.47 650.85 126.6 650.95 128.1 651.51 129.59 652.57 129.61 653.38 130.22 654.1 131.94 654.76 132.38 656.61 134.88 657.74 135.64 660.55 136.84 661.43 136.94 663.29 136.08 664.14 136.41 665.07 137.8 665.3 139.08 666.31 139.55 667.08 140.46 668.14 141.01 669.08 141.79 669.9 143.07 671.33 144.26 671.9 145.12 672.83 145.8 673.14 146.37 674.72 147.46 676.03 147.8 676.88 148.26 677.16 148.79 679.47 149.9 680.77 151.1 681.73 151.55 683.6 151.86 685.16 152.97 686.44 153.63 686.84 154.25 687.38 156.26 687.89 156.84 689.34 157.86 689.4 159.79 690.26 160.7 690.62 161.49 691.44 162.45 692.37 164.21 693.41 165.47 693.72 167.68 694.02 168.58 695.15 170.32 695.61 171.91 696.38 172.78 697.42 173.49 697.96 174.68 698.78 175.93 698.97 176.99 698.66 177.82 698.82 178.86 699.25 179.38 Z" id="39020320"/>
<path d="M 407.4 311.52 408.86 311.57 410.5 312.55 410.85 313.19 410.37 314.59 409.58 314.46 409.01 314.9 408.46 314.34 407.89 314.49 407.18 314.14 406.33 314.33 405.29 313.49 405.04 312.58 405.27 311.99 405.99 311.49 407.4 311.52 Z M 442.98 306.96 443.71 307.37 444.54 308.74 445.4 308.86 445.72 309.33 445.61 310.42 443.63 310.85 441.81 310.53 441.33 310.85 440.21 310.98 439.91 310.28 439.34 310.32 439.45 309.31 439.06 308.54 439.53 307.37 441.29 306.21 442.98 306.96 Z M 401.62 300.02 402.13 299.5 404.91 298.51 404.95 298.95 406.31 300.36 406.33 303 406.71 303.89 407.65 304.88 407.79 306.57 407.3 306.6 407.17 304.81 406.3 303.76 405.95 302.98 405.14 302.79 404.4 303.21 402.58 301.86 401.82 301.53 400.75 300.54 401.62 300.02 Z M 437.08 276.89 437.69 278.8 439.3 281.51 441.11 280.83 442.78 280.47 443.43 279.3 444.1 279.1 445.08 278.03 445.28 277.12 446.51 277.19 447.16 278.12 448.48 278.29 449.24 278.88 449.87 278.72 451.14 279.63 452.3 279.86 453.06 281.16 453.06 282.24 452.53 282.62 452.51 284.69 452.87 286.3 453.55 286.36 454.21 287.14 454.19 287.99 454.76 289.11 454.28 290.06 454.23 290.86 454.99 292.17 455.2 293.4 457.15 292.24 457.63 293.11 457.69 294.02 457.4 296.84 455.95 296.77 453.95 297.26 452.66 298.23 451.34 298.38 450.18 299.54 449.97 298.95 447.97 298.29 447.44 298.64 446.94 299.78 446.06 299 445.56 299.77 445.42 300.72 443.85 301.74 443.62 302.38 442.47 303.64 441.89 303.67 439.46 301.49 436.98 300.82 435.9 299.57 434.96 298.97 434.87 298.39 434.12 298.2 433.76 297.41 434.81 295.64 433.36 294.91 432.4 294.75 431.46 294.06 429.8 293.95 429.07 293.35 428.88 292.53 427.19 292.04 426.7 293.16 425.83 292.95 425.15 293.84 423.82 293.3 422.36 291.95 421.08 291.9 420.25 290.66 418.29 290.93 418.11 291.45 416.7 291.89 414.49 291.22 412.29 292.01 412.16 292.88 411.48 292.59 411.03 292.92 410.73 293.94 411.01 295.5 410.59 296.08 409.45 296.65 410.99 298.46 412.27 299.76 413.29 301.11 413.3 302.17 412.47 302.8 409.75 305.47 409.26 305 409.65 304.27 412.42 301.77 411.44 300.59 409.51 302.22 408.86 301.46 410.58 299.98 409.55 298.73 407.72 299.42 406.82 299 406.15 297.52 403.81 296.68 402.91 295.64 402.99 294.33 403.69 292.14 404.06 291.03 404.76 291.07 406.63 290.59 407.94 290.04 409.92 290.56 411.9 290.65 413.77 290.28 415.41 290.63 416.22 290.53 417.35 289.86 418.3 287.86 420.59 286.98 421.64 286.61 424.09 286.35 425.24 286.62 427.72 286.74 428.69 287.54 431.9 287.98 432.32 287.9 432.04 286.21 431.96 284.14 432.13 283.58 431.74 282.64 432.47 282.37 432.52 281.58 433.44 279.81 434.13 279.06 433.49 277.53 434.95 277.17 437.08 276.89 Z" fill-rule="evenodd" id="39020510"/>
</g>
</svg>