<?xml version="1.0"?>
<svg xmlns="http://www.w3.org/2000/svg" version="1.2" baseProfile="tiny" width="800" height="898" viewBox="0 0 800 898" stroke-linecap="round" stroke-linejoin="round">
<g id="sigung">
<path d="M 796.59 732.78 799 815.03 786.6 813.54 771.28 817.59 753.73 826.4 739.08 836.86 731.63 840.99 721.23 843.53 712.11 844.33 688.77 844.89 678.57 844.09 656.12 843.87 612.48 846.1 581.86 845.76 566.97 846.72 526.63 856.4 509.43 858.89 478.48 861.83 442.92 865.88 429.72 866.33 405.27 864.58 380.91 859.1 362.86 854.11 355.94 853.6 340.13 854.38 319.84 852.63 308.06 850.75 295.96 851.04 288.94 848.74 277.33 851.51 271.66 849.61 261.23 849.92 254.65 853.41 252.79 856.49 254.18 861.29 247.5 863.42 243.08 858.11 238.06 857.12 221.57 865.55 217.19 864.33 191.45 897 177.62 880.14 162.53 859.14 124.56 813.64 101.85 785.52 80.79 764.2 72.87 751.9 71.04 752.51 65.17 742.28 62.56 739.59 50.63 722.89 59.5 718.22 67.24 715.52 73.36 710.3 89.7 708.49 89.94 701.33 98.6 696.16 99.99 690.31 94.43 678.53 94.66 663.35 98.27 650.53 96.44 637.86 92.64 624.65 91.59 610.78 92.8 598.94 91.13 588.62 92.86 570.38 96.48 551.78 96.17 536.78 92.96 530 93.07 523.67 103.99 515.08 109.33 506.85 109.43 503.33 105.18 492.41 105.86 485.4 102.63 475.27 101.25 466.58 98.82 461.63 90.95 456.58 84.94 455.98 84.26 453.59 70.63 446.57 64.95 446.08 56.52 449.49 53.8 454.64 49.15 456.09 45.44 453.49 45.28 449.24 48.87 443.09 48.67 434.51 43.77 427.21 39.11 414.93 39.99 411.37 38.11 403.44 47.77 387.47 49.27 380.03 56 368.48 45.64 362.7 41.57 357.22 39.98 347.21 30.93 337.27 27.82 328.83 18.75 324.22 16.33 314.35 16.6 293.75 10.89 279.83 17.85 263.5 21.28 250.31 19.09 232.97 20.51 227.58 17.79 220.02 14.43 199.07 11.21 184.16 11.83 168.57 11.6 155.37 4.52 135.75 1 123.57 2.1 109.13 17.69 81.1 30.03 79.39 34.52 74.98 42.34 72.52 50.4 68.19 55.85 68.41 68.33 57.64 72.47 56.02 80.84 57.04 84.77 51.47 92.62 44.23 107.28 38.45 117.82 36.55 135.41 33.48 160.35 35.72 166.4 28.09 176.01 22.6 184.78 21.97 192.86 23.68 208.22 23.13 220.58 19.28 233.37 12.97 241.35 11.17 259.59 1 266.47 5.63 274.84 6.32 284.65 10.12 281.6 17.04 277.27 35.6 280.32 46.09 293.46 45.27 317.31 42.54 329.2 47.89 333.53 52.49 336.29 60.81 332.93 67.28 329.99 81.85 343.91 95.03 354.04 109.54 373.35 152.13 368.3 165.17 368.11 177.93 374.02 197.8 381.28 209.94 382.83 221.74 389.44 228.17 393.87 238.04 396.4 238.46 404.7 248.79 399.9 258.62 400.33 261.6 394.62 283.47 396.15 290.05 397.05 309.4 407.3 317.41 405.87 325.17 401.05 332.73 399.53 337.34 402.39 344.33 401.73 349.2 406.59 354.94 405.69 368.33 406.92 376.26 405.66 382.72 397.39 388 395.7 390.37 384.82 391.36 380.53 394.79 376.65 393.55 364.91 408.24 362 406.69 335.92 417.36 326 422.93 318.33 423.52 311.99 432.74 309.33 433.64 306.43 444.72 306.44 448.76 303.51 457.6 299.01 465.14 300.99 467.62 312.23 468.06 318.85 473.87 318.85 480.15 324.63 485.42 331.91 487.72 336.96 491.36 343.92 492.91 350.83 499.94 360.75 501.56 365.46 507.22 371.32 508.45 375.36 511.81 383.87 512.36 389.34 510.91 396.1 514.24 399.74 520.67 401.34 527.41 405.95 534.51 411.03 534.93 417.27 541.17 425.44 545.39 432.73 554.46 439.11 551.98 451.65 551.16 458.99 552.02 461.38 546.53 467.82 544.89 479.61 548.11 480.58 551.42 487.64 552.1 492.31 549.12 498.73 540.92 506.54 543 513.88 541.58 521.12 541.78 531.95 538.26 542.64 541.46 559.12 540.35 564.01 546.92 568.16 554.65 567.42 559.94 564.21 564.11 564.26 569.53 571.31 576.96 572.28 582.68 578.78 588.06 584.9 590.8 586.22 596.5 590.54 598.02 594.1 609.54 603.38 612.05 611.4 612.3 619.55 623.7 618.74 631.5 622.5 635.07 622.37 642.84 626.35 664.19 620.91 674.71 623.79 679.07 632.14 685.89 637.79 691.93 641.13 699.97 656.1 702.44 662.04 702.73 667.8 692.1 674.9 684.96 686.39 687.49 699.89 681.65 701.01 677.94 707.54 674.76 715.9 682.17 724.18 680.06 727.91 683.36 729.54 694.55 733.73 698.69 736.62 709.75 741.21 712.65 744.62 718.94 743.24 724.96 737.96 731.54 742.47 738.9 745.98 737.6 749.79 739.61 753.57 736.39 752.8 733.48 777.98 721.38 782.16 721.2 792.53 728.59 790.06 731.82 793.93 735.47 796.59 732.78 Z" id="11010000"/>
</g>
</svg>