<?xml version="1.0"?>
<svg xmlns="http://www.w3.org/2000/svg" version="1.2" baseProfile="tiny" width="800" height="435" viewBox="0 0 800 435" stroke-linecap="round" stroke-linejoin="round">
<g id="sigung">
<path d="M 756.91 2.7 757.27 2.8 759.63 105.87 798.79 108.29 797.6 115.11 799 121.26 795.68 133.67 788.38 145.77 782.04 150.75 770.83 157.2 763.58 165.71 756.81 175.61 755.22 185.82 749.58 196.09 750.66 201.85 751.51 218.68 746.52 219.79 739.09 224.56 726.5 219.28 710.25 224.42 692.21 233.66 687.41 239.98 683.24 249.61 681.95 264.39 677.07 271.14 678.89 276.7 678.62 284.02 670.8 292.51 668.68 299.02 662.68 304.74 639.1 331.65 623.11 347.36 619.93 348.54 612.93 362.81 604.76 367.52 600.6 366.17 593.67 371.74 589.36 371.99 582.22 384.81 583.6 394.6 576.57 402.97 570.79 416.03 575.98 423.01 580.32 424.43 580.96 429.74 559.9 434 532.39 398.42 537.49 384.71 536.22 380.33 545.99 367.34 532.15 364.13 528.37 359.78 526.8 341.88 524.05 336.32 512.85 339.27 506.03 345.08 497.88 344.01 491.58 338.65 480.89 341.83 450.45 344.25 442.31 349.37 438.86 354.93 431.15 362.3 430.52 373.14 426.33 378.79 412.62 382.12 403.12 378.18 397.61 364.01 389.81 357.85 384.76 346.92 377.5 338.62 368.83 335.48 360.73 327.76 357.18 322.38 351.53 319.88 342.12 319.24 332.07 315.69 320.68 317.25 312.44 304.32 306.85 299.89 300.88 288.2 292.44 282.6 282.71 291.33 275.41 292.84 266.62 287.94 256.52 286.08 247.15 280.22 236.26 280.62 232.88 289.63 228.6 287.72 210.57 290.28 211.35 276.71 203.52 272.15 192.53 262.5 183.84 259.3 182.38 292.08 175.05 287.44 156.9 284.97 133.22 268.03 133.16 264.54 121.93 264.54 121.62 269.81 125.56 274.85 117.42 279.18 109.03 279.81 99.61 276.29 95.45 273.27 93.53 264.55 93.69 252.46 67.16 269.58 51.15 275.67 37.97 287.69 22.62 304.72 10.68 315 9.38 311.53 9.52 296.9 6.38 280.33 3.65 288.19 1.15 287.73 4.55 271.68 2.5 262.8 5.98 260.63 8.1 254.02 14.51 247.48 22.43 236.74 23.06 231.92 18.64 225.52 18.61 216.02 15.65 215.63 6.67 209.54 1 210.05 1.84 200.7 21.72 197.84 30.4 193.83 49.6 180.15 64.95 166.21 72.39 162.59 97.14 155.4 89.5 137.78 73.9 110.8 63.32 96.3 92.71 58.99 97.71 60.39 116.54 50.76 122.26 51.89 127.31 57.95 134.93 55.53 133.35 50.04 135.47 46.52 142.98 42.54 154.89 42.19 161.36 44.35 174.62 41.19 182.64 43.81 196.44 43.49 209.9 45.64 233.06 47.63 251.11 46.75 259 47.33 279.61 53.03 307.42 59.28 335.34 61.27 350.4 60.76 391 56.14 426.34 52.78 445.97 49.94 492.02 38.88 509.02 37.79 543.97 38.17 593.8 35.63 619.42 35.88 631.07 36.79 657.72 36.16 668.13 35.25 680 32.34 688.5 27.62 705.23 15.68 725.26 5.63 742.75 1 756.91 2.7 Z" id="11020000"/>
</g>
</svg>