<?xml version="1.0"?>
<svg xmlns="http://www.w3.org/2000/svg" version="1.2" baseProfile="tiny" width="800" height="685" viewBox="0 0 800 685" stroke-linecap="round" stroke-linejoin="round">
<g id="sigung">
<path d="M 782.56 200.39 799 208.72 778.96 253.15 774.89 263.21 757.42 301.27 712.5 400.93 664.63 507.62 626.26 593.57 626.01 593.55 586.17 684 572.71 678.97 535.63 648.84 462.24 593.75 393.38 570.69 393.38 569.58 255.66 569.47 186.81 570.05 159.56 569.72 117.95 593.75 114.06 597.48 115.16 541.7 94.66 533.8 91.6 530.44 84.42 531.75 81.83 523.97 65.64 523.9 55.29 515.86 41.55 520.72 32.33 516.51 22.84 515.11 15.5 506.34 13.66 496.71 14.73 490.11 8.99 481.65 7.66 475.36 10.86 464.03 11.92 445.05 11.12 442.63 10.47 437.36 6.17 435.94 1 429.01 6.75 416.02 13.74 407.69 12.37 397.95 19.47 385.22 23.75 384.97 30.63 379.43 34.76 380.76 42.89 376.08 49.84 361.9 53.01 360.73 68.9 345.1 92.33 318.34 98.31 312.65 100.41 306.19 108.19 297.74 108.45 290.46 106.64 284.93 111.49 278.22 112.77 263.52 116.92 253.95 121.69 247.67 139.62 238.48 155.77 233.37 168.29 238.62 175.67 233.87 180.63 232.76 179.79 216.03 178.71 210.31 184.32 200.09 185.9 189.94 192.63 180.1 199.84 171.64 210.98 165.22 217.27 160.28 224.53 148.24 227.83 135.9 226.44 129.78 227.63 123 188.71 120.6 186.36 18.11 196.07 25.44 201.05 31.37 208.43 34.29 214.94 33.42 220.09 28.21 233.62 33.26 238.49 40.91 270.45 50.15 285.83 49.26 297.63 43.79 304.1 39.19 317.72 25.94 331.23 18.65 341.91 14.28 351.92 12.59 365.67 12.54 366.21 1 411.66 1.76 437.35 15.31 485.16 41.24 616.76 164.52 766.41 191.31 765.62 192.63 782.56 200.39 Z" id="11040000"/>
</g>
</svg>