<?xml version="1.0"?>
<svg xmlns="http://www.w3.org/2000/svg" version="1.2" baseProfile="tiny" width="800" height="611" viewBox="0 0 800 611" stroke-linecap="round" stroke-linejoin="round">
<g id="sigung">
<path d="M 79.31 2.2 93.32 7.82 96.76 11.09 105.67 16.41 111.86 21.28 116.66 27.03 122.52 26.41 125.66 32.19 126.41 38.82 138.21 40.72 142.1 44.22 157.35 52.49 161.98 58.96 165.98 62.38 171.32 65.15 176.75 74.48 180.5 77.17 182.69 81.58 189.2 87.77 191.77 92.85 196.46 97.46 203.22 106.96 207.9 108.48 214.78 112.06 223.68 112.67 226.75 114.88 233.72 116.45 237.92 119.86 241.25 127.38 246.7 128.92 249.47 131.54 251.88 129.62 256.23 129.91 269.52 128.3 274.07 129.43 272.89 136.11 273.27 140.63 271.2 143.21 271.91 147.42 268.24 162.19 268.35 165.8 271.7 170.94 272.87 174.82 278.71 181.72 279.08 185.28 283.8 188.76 286.25 189.14 291.32 195.39 291.51 200.31 293.34 204.18 299.27 209.42 303.06 207.82 306.51 209.02 308.89 212.19 314.8 215.51 322.4 218.56 328.53 225.59 332.59 225.65 345.1 223.31 353.44 226.66 358.6 232.93 362.32 235.17 367.34 235.14 369.71 239.94 372.58 240.92 376.46 244.83 376.97 247.53 386.48 249.18 390.44 250.65 391.77 260.17 402.09 256.4 405.93 254.03 412.08 252.06 416.36 253.52 423.36 251.2 426.61 246.5 435.18 248.11 440.83 247.75 445.11 249.07 457.41 249.97 458.79 260.92 458 284.93 469.83 276.72 478.59 271.5 480.86 269.11 504.2 253.14 506.72 249.96 511.72 249.25 517.61 243.76 520.77 235.4 526.75 229.42 529.75 227.46 534.53 221.54 538.06 214.78 538.07 210.39 542.77 211.19 546.25 206.56 570.65 184.98 576.65 176.72 585.04 156.96 588.16 151.58 594.64 144.07 618.24 126.78 624.69 134.22 630.88 139.36 635.91 145.44 637.45 148.63 642.66 154.33 653.96 170.04 656.8 173.2 669.17 182.12 681.45 196.92 698.29 209.06 704.39 212.57 708.43 215.95 712.66 224.4 717.11 227.78 721.68 229.6 729.39 230.08 740.34 225.62 761.7 219.76 782.56 215.01 785.41 218.04 794.27 224.49 799 237.83 796.76 261.18 796.26 270.71 795.36 274.98 793.69 298.74 790.5 299.39 788.11 304.82 783.74 300.22 779.87 300.31 779.79 284.29 775.5 284.39 775.53 292.64 767.22 294.77 767.58 307 762.92 307.43 763.03 312.63 758.62 314.5 754.42 317.97 753.63 320.35 747.84 320.93 743.49 316.94 732.72 323.26 720.94 324.52 714.96 331.34 713.65 335.53 709.34 340.86 706.31 342.27 703.57 345.98 702.39 353.78 704.41 359.68 702.67 361.54 697.11 363.79 695.94 366.74 681.47 365.23 681.2 361.67 672.64 363.65 665.21 367.01 662.2 363.87 655.45 370.84 637.79 376.06 634.64 369.8 630.37 364.92 623.33 371.27 623.91 376.59 618.43 380.04 613.14 390.79 612.87 396.83 606.87 404.08 603.8 405.98 602.6 411.17 599.41 414.1 598.58 417.52 593.95 418.52 589.16 416.99 583.53 412.55 577.64 415.18 571.72 414.89 568.76 416.13 563.03 408.97 560.15 411.45 553.52 414.4 549.93 423.77 543.45 422.22 536.8 441.84 528.09 466.56 528.07 467.86 507.21 468.66 508.1 479.5 501.64 491.79 498.91 495.19 488 506.52 483.31 514.83 480.93 517.6 472.99 523.7 474.99 525.61 470 529.05 464.13 540.06 452.25 556.56 417.8 586.23 400.96 600.55 399.6 604.75 397.56 606.82 394.59 604.02 396.49 601.54 388.52 595.87 385.32 596.01 366 605.29 366.58 607.53 363.69 610 360.76 608.45 358.07 609.46 354.6 603.8 358.66 598.75 359.71 594.14 357.1 589.3 353.58 587.08 351.36 578.59 348.14 575.41 346.89 566.83 344.03 564.3 337.67 565.92 331.25 560.23 326.24 562.67 325.38 565.51 315.02 570 306.2 568.06 300.75 573.54 296.33 581.69 291.77 581.47 280.28 579.57 277.72 573.41 273.38 568.77 266.97 563.53 264.76 560.19 268.94 552.12 265.88 535.73 265.98 529.77 263.1 527.03 263.72 521.04 257.46 512.29 251.3 512.1 244.18 510.18 241.45 501.34 238.14 500.17 237.12 495.79 232.42 493.69 227.44 489.56 226.69 485.18 221.28 479.47 221.24 475.31 223.7 472.11 224.27 468.05 221.09 462.12 217.33 457.08 204.68 457.93 196.48 455.48 188.17 458.17 182.61 458.02 176.97 459.11 170.98 457.52 166.05 463.81 162.47 466.09 157.05 465.58 156.31 463.03 147.26 460.56 142.32 461.82 140.48 466.03 134.84 465.37 125.22 466 120.32 467.91 114.73 460.94 108.46 457.7 103.67 452.92 99.76 452.59 96.23 447.15 95 441.98 92.2 437.04 87.02 434.49 82.82 435.6 76.29 435.17 73.18 432.6 68.69 431.65 65.07 427.3 57.46 426.06 52.15 420.67 46.82 419.48 42.94 416.68 37.35 414.92 32.92 410.88 32.91 406.06 27.83 401.6 19.21 401.26 17.69 399.35 21.14 393.57 23.39 386.79 23.38 383.69 25.61 375.19 27.65 374.49 32.52 367.41 38.41 366.96 46.02 362.69 66.03 354.5 68.27 355.69 77.28 344.41 80.26 345.37 83.55 342.74 91.9 341.98 93.2 340.16 99.55 336.1 100.51 331.15 99.57 325.06 100.26 314.79 96.53 310.38 97.03 306.64 94.84 301.28 96 297.74 99.71 291.94 100.8 285.99 92.94 279.83 92.24 264.99 91.07 259.94 95.45 243.15 95.12 240.87 98.81 233.32 92.44 225.4 90.5 225.07 87.1 217.49 82.02 212.56 80.83 203.51 75.26 194.19 70.72 178.94 70.87 169.14 74.75 159.14 59.92 126.45 52.15 115.32 41.47 105.2 43.73 94.02 46.3 89.06 44.18 82.67 40.86 79.14 31.73 75.04 13.42 77.13 3.34 77.76 1 69.71 4.33 55.47 6.66 50.15 13.7 44.64 20.13 37.03 22.81 30.68 26.7 27.3 32.07 25.9 38.16 25.56 41.89 24.24 49.74 17.95 56.39 17.81 62.52 13.14 66.21 7.53 75.23 1 79.31 2.2 Z" id="11080000"/>
</g>
</svg>