<?xml version="1.0"?>
<svg xmlns="http://www.w3.org/2000/svg" version="1.2" baseProfile="tiny" width="800" height="1161" viewBox="0 0 800 1161" stroke-linecap="round" stroke-linejoin="round">
<g id="sigung">
<path d="M 784.34 761.66 786.22 765.74 785.35 774.08 788.39 777.62 789.49 783.97 794.8 789.48 792.65 795.14 789.39 796.73 783.01 796.07 776.62 804.29 777.23 813.17 780.43 819.88 787.8 823.12 795.03 835.7 798.24 844.96 795.21 847.86 795.65 858.05 799 862.48 796.74 869.48 797.43 876.64 788.37 882.34 795.16 899.41 788.75 915.54 779.68 925.77 772.12 931.82 757.85 946.75 736.94 964.51 724.35 970.94 725 974.68 718.7 997.38 714.35 1003.92 713.24 1022.09 706.65 1032.17 703.73 1055.07 713.22 1056.27 718.56 1065.69 720.52 1073.2 713.33 1078.06 703.16 1078.15 700.89 1074.39 677.02 1078.15 676.84 1085.98 667 1085.77 654.15 1079.76 644.64 1072.96 640.92 1075.66 620.27 1084.76 615.14 1092.43 608.07 1090.28 595.47 1092.65 586.39 1105.97 581.61 1106.87 568.59 1099.67 563.02 1094.58 551.77 1088.68 539.22 1083.64 530.82 1075.24 526.8 1079.79 522.24 1079.62 515.59 1076.53 501.15 1074.53 488.49 1077.33 475.42 1081.83 464.63 1088.08 459.72 1087.85 454.71 1090.22 448.93 1090.62 443.99 1094.45 440.15 1100.01 433.64 1103.14 433.64 1096.8 382.61 1118.9 376.87 1122.52 369.51 1124.92 367.03 1123.65 335.83 1129.73 332.55 1132.5 331.28 1137.92 320.9 1143.5 316.99 1139.35 288.44 1145.85 259.2 1153.88 244.2 1160 233.64 1159.34 227.39 1156.85 221.3 1152.21 215.5 1140.63 209.98 1136 201.62 1131.19 178.57 1114.57 161.76 1094.29 144.82 1082.07 140.94 1077.73 125.46 1056.22 118.33 1048.4 116.23 1044.04 109.34 1035.7 100.87 1028.66 92.04 1018.47 86.6 1010.33 80.24 995.92 73.6 987.39 67.97 978.15 62.53 972.31 39.93 958.24 31.95 952.48 25.62 946.11 19.44 937.23 11.28 929.36 12.11 924.65 1 916.7 13.88 899.26 21.88 893.69 27.36 886.83 32.37 874.9 34.58 861.55 38.25 857.32 39.04 842.75 44.83 828.79 50.12 825.63 52.62 812.17 57.64 804.83 58.65 800.1 55.48 791.65 56.5 780.07 58.25 779.01 70.08 778.78 69.77 775.89 84.3 765.51 92.1 746.14 102.73 742.02 99 730.9 100.23 727.57 105.85 729.36 110.07 727.7 113.12 737.43 122.04 761.03 128.28 772.16 136.46 782.06 148.1 793.93 159.88 786.98 152.56 777.12 151.04 762.5 152.81 746.86 158.34 730.76 160.93 702.47 160.36 696.06 156.01 679.19 147.07 660.5 139.2 646.47 136.79 625.17 139.1 609.49 140.37 590.84 139.82 579.27 134.99 567.5 135.17 558.46 133.13 548.11 123.17 527.72 114.79 513.49 114.79 498.9 113.86 492.04 113.07 456.44 107.77 456.44 104.61 444.86 98.19 430.5 90.94 420.05 82.34 405.42 74.26 364.2 73.89 354.41 75.7 338.07 80.51 317.52 80.35 303.4 81.58 298.3 91.27 276.13 93.92 266.27 95.89 252.38 99.03 241.25 104.91 228.33 108.29 201.39 118.53 187.94 121.02 168.34 119.28 159.28 114.73 147.35 114.79 129.63 119.54 124.62 126.08 120.93 147.24 106.24 152.73 99.34 163.97 99.34 175.36 93.27 188.86 92.51 203.13 83.36 213.88 70.02 220.54 57.33 233.57 45.23 233.86 37.84 237.65 21.85 245 18.36 258.49 23.56 266.82 20.59 277.87 25.13 294.96 20.43 303.07 31.36 309.86 35.76 317.41 31.63 329.29 35.59 349.3 34.17 357.63 29.9 363.6 22.2 374.58 14.05 411.58 3.16 444.29 1 475.11 27.42 475.84 62.62 490.17 82.32 505.4 89.06 527.03 89.18 550.64 93.86 571.25 88.7 578.58 88.23 592.69 100.03 601.77 96.44 611.89 100.87 607.27 110.44 612.86 117.34 615.28 127.78 616.75 140.59 616.74 149.47 612.5 155.71 609.86 163.59 592.75 180.9 591.19 185.68 577.38 207.34 577.92 212.35 576 228.66 573.04 236.14 566.47 240.78 566.42 247.82 569.22 257.2 574.01 265.05 577.99 266.88 582.18 273.41 587.96 276.58 589.2 291.33 596.57 320.78 602.57 329.9 609.36 332.98 612.39 344.63 609.04 351.74 609.37 362.05 612.35 369.69 617.24 375.21 614.89 387.39 600.76 404.8 596.29 425.02 597.43 442.72 605.66 457.32 591.4 465.69 581.45 484.45 569.28 501.19 558.42 521.84 557.6 537.29 566.15 548.72 571.36 576.22 577.18 590.91 579.43 600.41 589 612.02 589.95 621.45 582.84 636.58 581.72 645.21 572.72 658.07 575.54 663.21 575.31 674.06 577.82 677.15 579.54 684.56 588.16 691.85 585.9 701.71 590.6 708.98 595.39 712.68 596.1 717.55 594.35 725.34 596.48 730.79 630.13 739.33 645.32 738.33 655.04 732.23 675.52 727.85 689.11 721.71 690.03 718.82 701.11 717.68 731.61 719.22 744.17 725.02 747.71 732.19 762.18 754.84 769.05 760.09 778.64 756.64 784.34 761.66 Z" id="11110000"/>
</g>
</svg>