<?xml version="1.0"?>
<svg xmlns="http://www.w3.org/2000/svg" version="1.2" baseProfile="tiny" width="800" height="1028" viewBox="0 0 800 1028" stroke-linecap="round" stroke-linejoin="round">
<g id="sigung">
<path d="M 764.34 364.76 754.69 366.49 741.26 371.79 734.07 378.43 730.47 383.53 722.81 382.59 719.02 384.07 707.59 393.94 702.59 393.74 695.22 397.7 688.06 399.96 683.94 404 672.64 405.57 658.37 431.25 657.36 444.48 660.58 455.64 667.07 473.62 667.28 485.71 666.7 499.99 669.66 513.65 672.73 532.85 675.23 539.77 673.92 544.71 675.93 560.6 672.79 572.68 666.41 587.65 671.65 600.4 664.6 604.79 658.84 610.35 655.12 619.88 650.06 624.91 638.61 631.02 630.57 640.08 622.48 645.53 610.77 651.4 606.3 654.42 605.94 668.97 590.89 670.23 582.03 692.53 569.61 693.19 568.06 697.06 568.37 708.33 580.61 717.55 583.64 723.28 578.53 747.44 566.67 756.63 557.33 762.14 545.72 757.65 538.2 760.32 516.23 773.08 509.37 772.92 499.12 776.98 493.34 783.28 487.23 788.15 484.58 792.79 473.93 798.7 465.01 813.63 460.12 819.53 457.3 827.04 449.67 835.25 451.77 841.92 448.64 848.33 451.47 855.57 448.27 862.16 452.06 874.55 449.4 878.51 435.41 888.34 429.58 889.79 423.17 888.65 410.94 890.43 409.17 901.97 401.38 908.32 400.22 913.43 397.08 912.13 391.57 920 393.06 927.61 390.07 931.59 390.67 935.28 385.04 937.15 381.82 941.67 375.88 941.44 372.88 938.15 368.3 938.09 363.32 935.94 344.15 937.6 333.5 939.71 331.47 935.32 331.77 928.91 329.56 925.78 331.44 922.13 331.02 916.43 336.76 908.1 327.37 911.08 331.19 904.12 303.18 888.77 299.6 897.29 294.04 906.01 217.4 996.45 217.93 993.26 194.92 1020.34 202.83 1022.28 197.39 1027 149 985.72 67.96 920.25 41.19 893.71 28.04 878.1 18.52 865.9 1 844.4 3.63 840.28 13.71 832.14 15.93 831.34 24.78 818.54 31.45 807.02 37.76 805.45 43.35 805.45 51.36 808.87 46.77 815.09 45.28 820.84 35.21 837.14 34.71 842.25 36.91 844.26 37.97 860.02 45.17 864.56 51.06 872.33 62.69 869.11 71.63 868.72 74.82 864.97 81.16 867.54 88.14 871.96 93.12 873.21 100.9 872.52 111.63 865.81 116.66 865.77 120.85 868.87 130.31 868.33 141.92 869.9 146.28 872.03 157.12 865.58 158.3 860.05 173.63 856.63 174.68 855.14 172.98 846.07 174.3 842.17 172.9 833.53 166.98 821.33 175 812.6 180.67 802.44 195.16 790.98 193.19 780.38 189.1 776.66 189.01 771.17 187.16 763.89 189.54 756.84 190.24 738.86 187.24 732.61 187.21 728.88 180.16 715.83 177.12 705.87 179.31 699.36 178.8 692.59 184.88 689.47 190.14 689.12 198.01 684.9 197.24 678.39 192.11 664.98 194.51 660.55 191.22 654.69 184.99 626.94 183.29 616.08 184.32 603.76 180.4 592.99 186.87 578.7 186.4 574.09 194.47 557.51 194.43 548.79 196.28 544.89 195.36 536.73 201.81 522.61 208.16 517.62 207.45 507.88 210.28 505.27 210.5 498.69 219.45 498.8 228.85 495.8 228.45 486.68 232.61 475.71 239.15 467.72 247.39 460.46 247.66 443.55 246.26 435.85 242.61 428.95 250.59 421.58 262.1 407.14 264.98 392.43 263.7 369.37 259.9 361.14 257.31 360.32 249.23 350.36 245.67 338.8 243.99 327.3 238.55 321.33 247.32 319.15 257.3 313.83 267.21 307.63 273.93 300.13 284.22 295.52 287.71 288.25 278.96 263.49 276.77 256.13 283.68 237.42 287.2 225.67 296.21 191.14 298.3 184.53 287.57 178.98 277.33 175.12 263.96 166.06 253.45 160.13 249.4 152.05 233.08 133.08 232.25 128.04 247.63 138.25 260.41 148.22 262.59 146.25 273.3 152.9 284.43 163.6 288.84 165.93 298.78 173.9 309.29 176.14 312.44 179.11 321.14 177.23 326.85 174.68 347.96 172.95 388.48 166.52 402.13 165.35 414.49 162.54 444.05 137.94 452.28 128.44 469.23 113.96 474.97 111.78 486.22 110.48 490.35 111.76 493.97 109.8 510.34 105.64 528.15 99.76 533.8 95.06 542.46 86.04 545.03 81.41 548.12 72.09 555.19 55.76 558.63 49.54 567.04 37.64 571.57 32.77 590.92 19.39 603.06 15.24 613.44 13.96 633.35 6.66 644.52 1 648.81 8.93 647.93 14.58 649.16 17.32 646.4 24.86 647.62 26.78 656.94 28.65 660.57 31.17 666.34 41.76 675.96 47.01 681.87 53.64 686.62 54.68 699.87 53.85 707.08 49.37 711.06 58.02 716.41 59.68 720.57 62.61 721.57 66.63 725.28 69.19 731.26 75.61 738.08 79.72 741.53 91.63 743.73 105.96 744.75 117.08 742.51 126.53 745.38 133.9 745.23 138.8 750.5 143.71 756.87 154.4 755.82 162.38 758.03 167.15 755.68 179.36 757.79 184.46 756.78 190.23 760.17 198.61 759.21 211.77 766.1 220.05 767.67 231.44 771.38 240.17 774.83 253.43 782.09 262.89 782.1 273.64 791.28 289.66 799 321.41 782.22 338.15 764.34 364.76 Z" id="11120000"/>
</g>
</svg>