<?xml version="1.0"?>
<svg xmlns="http://www.w3.org/2000/svg" version="1.2" baseProfile="tiny" width="800" height="521" viewBox="0 0 800 521" stroke-linecap="round" stroke-linejoin="round">
<g id="sigung">
<path d="M 351.81 135.67 360.06 142.74 384.98 163.42 394.43 172.55 402.49 178.7 420.89 188.64 438.04 199.15 450.62 206.35 461.5 211.84 470.15 216.66 482.26 220.78 492.76 222.8 507.39 226.85 515.66 229.78 524.99 235 541.41 251.14 541.37 253.48 534.69 265.25 531.01 269.79 529.73 275.47 529.15 291.92 603.45 326.08 633.4 313.64 636.15 312.92 743.47 305.16 764.77 306.67 768.72 302.6 771.84 302.37 776.68 295.88 777.25 293.98 783.22 290.44 782.72 295.97 786.07 295.67 791.38 299.27 793.14 299.51 793.15 305.13 795.77 308.91 795.4 311.77 790.71 318.12 786.92 321.99 785.67 325.9 783.61 327.19 784.82 332.44 782.81 341.95 784.28 342.22 785.9 337.56 787.76 347.37 787.68 356.02 788.44 358.08 789.62 361.35 794.09 366.58 796.72 373.05 799 375.55 797.78 379.39 798.05 382.95 795.19 384.96 789.02 383.77 786.83 387.49 783.52 387.95 785.43 391.73 783.77 394.42 781.38 394.9 778.92 398.45 771.92 405.76 771.38 408.35 765.45 409.27 759.52 413.45 755.93 413.53 755.42 417.55 756.8 421.69 753.74 424.98 752.16 432.7 753.79 436.48 759.04 438.42 755.61 444.44 749.11 448.63 746.78 458.11 742.48 463.84 740.08 468.33 736.1 470.93 728.21 473.22 724.99 478.65 722.84 486.31 713.85 492.82 709.74 495 707.83 497.29 702.9 498.97 697.87 499.43 692.02 501.79 689.73 503.69 682.92 503.36 680.29 501.46 679.55 506.93 672.56 502.24 662.99 509.3 660.99 513.31 661.8 515.92 659.33 520 656.64 515.88 615.66 483.13 585.02 464.9 574.68 458.59 556.14 451.01 536.77 471.79 532.68 472.16 526.01 469.89 523.73 468.31 516.19 465.7 503.54 459.23 501.79 457.73 498.75 450.35 371.4 450.35 363.96 439.26 352.3 425.67 349.61 417.42 328.82 390.35 297.99 377.71 278.13 366.85 251.48 352 241.11 344.02 223.48 333.13 195.08 315.04 149.64 285.74 111.79 262.62 92.54 253.19 74.71 240.09 52.93 222.37 37.36 210.13 18.62 194.95 11.03 187.53 1 173.57 1 155.3 41.98 145.21 42.04 142.24 82.95 122 107.84 121.6 123.93 117.19 147.93 114.74 157.2 114.81 164.91 115.63 164.91 108.56 170.82 109.11 174.85 101.43 172.94 98.09 173.32 93.32 167.86 87.67 167.92 84.28 170.67 79.06 171.03 72.82 170.23 68.31 172.14 64.8 172.46 61.17 167.16 60.51 166.99 58.74 170.97 55.22 172.27 48.45 174.28 42.3 180.96 41.21 185.8 37.55 187.19 30.16 192.43 16.68 194.64 12.69 199.39 8.35 206.5 3.3 207.01 1 219.92 16.85 226.94 25.85 236.64 37.36 256.38 56.94 316.14 105.23 351.81 135.67 Z" id="11140000"/>
</g>
</svg>