<?xml version="1.0"?>
<svg xmlns="http://www.w3.org/2000/svg" version="1.2" baseProfile="tiny" width="800" height="517" viewBox="0 0 800 517" stroke-linecap="round" stroke-linejoin="round">
<g id="sigung">
<path d="M 454.5 2.15 489.46 16.02 501.25 19.92 534.77 37.4 571.17 55.88 601.26 84.1 619.79 95.43 650.57 105.91 700.71 130.34 729.15 135.93 750.67 136.16 750.57 159.89 745.25 164.98 749.08 169.35 749.48 174.73 752.49 183.33 766.39 190.92 788.29 207.15 799 217.57 777.72 247.86 775.14 252.5 773.9 305.19 772.73 317.45 772.3 336.7 769.19 355.59 767.67 385.92 763.09 489.65 763.11 501.96 731.33 500.49 691.16 505.96 671.5 510.99 654.61 516 652.51 509.92 652.36 502.32 638.84 501.47 627.84 485.57 622.92 483.31 613.87 472.3 599.01 465.57 595.45 461.83 590.71 447.49 584.44 443.21 578.59 434.69 572.37 429.97 570.17 423.79 562.86 416.23 568.33 408.34 568.31 402.5 571.78 396.49 568.75 386.73 570.11 382.62 570.47 372.61 569.23 371.54 571.6 354.43 569.64 349.82 566.07 348.03 560.95 335.44 560.08 327.66 566.11 319.62 565.9 302.66 561.72 302.07 562.74 297.97 555.34 292.05 546.36 291.33 542.18 294.01 539.72 303.95 529.23 308.97 528.04 313.58 524.59 316.3 515.86 319.36 508.07 319.95 502.81 325.57 495.98 326.14 491.62 329.84 483.08 321.19 477.17 317.09 471.92 310.77 457.86 306.94 451.23 303.79 449.86 301.06 444.02 298.88 443.74 290.63 439.31 292.28 431.67 291.79 428.1 288.39 417.5 294.54 402.46 299.28 402.17 307.15 396.65 307.21 391.29 310.29 383.81 311.47 380.65 310.23 375.18 311.13 368.87 308.13 366.6 302.32 362.13 301.36 355.79 303.54 351.13 310.79 341.89 308.42 337.24 310.15 331.75 314.27 324.71 313.55 320.84 309.62 313.43 304.29 300.81 298.73 295.18 300.61 284.63 301.29 274.28 297.76 261.98 288.78 259.93 288.72 245.93 278.21 241.05 275.6 236.83 276.36 233.8 281.95 228.3 287.42 227.21 295.83 218.27 303.46 220.25 306.8 218.14 318.6 216.29 318.23 214.75 327.12 208.58 326.05 204.65 333.26 204.48 337.75 187.95 336.11 186.86 331.87 174.04 329.69 166.86 329.92 143.37 334.3 143.38 338.38 131.66 342.8 114.28 353.36 101.63 361.56 100.57 366.03 85.72 379.85 73.01 385.42 65.97 387.31 61.15 387.35 29.14 398.75 23.61 399.33 1 398.21 35.03 346.09 36.15 346.99 43.02 337.31 51.8 320.86 62.29 304.89 64.52 302.45 71.72 290.77 82.74 268.95 88.09 262.05 95.29 259.13 114.29 256.82 158.5 244.79 162.46 242.37 166.34 235.82 167.71 215.12 199.7 115.46 216.72 62.84 230.31 59.53 232.07 54.43 232.2 44.81 229.5 41.66 231.08 26.1 251.74 27.64 284.64 25.76 301.65 21.65 351.58 19.69 384.33 13.78 451.34 1 454.5 2.15 Z" id="11200000"/>
</g>
</svg>