<?xml version="1.0"?>
<svg xmlns="http://www.w3.org/2000/svg" version="1.2" baseProfile="tiny" width="800" height="692" viewBox="0 0 800 692" stroke-linecap="round" stroke-linejoin="round">
<g id="sigung">
<path d="M 329.52 65.91 357.81 77.2 393.05 94.24 407.16 98.34 407.94 130.44 408.93 143.93 410.08 152.67 413.7 187.58 416.51 218.79 419.6 250 422.5 281.22 423.41 287.56 439.62 289.53 472.88 293.3 522.34 314.04 595.76 339.87 611.93 347.2 616.49 350.27 613.77 352.78 623.39 355.34 630.06 358.67 635.62 362.48 655.94 374.26 680.07 395.12 695.67 422.64 711.2 449.39 721.27 469.32 742.46 505.04 767.85 546.91 799 600.93 795.97 602.56 790.25 607.02 785.03 612.2 782.82 612.93 779.93 619.57 770.72 627.2 764.51 630.38 752.59 638.42 749.25 644.63 748.64 654.01 748.63 669.26 741.71 669.69 738.84 668.72 736.57 665.64 728.33 661.7 723.6 657.04 723 650.95 721.54 647.69 713.57 643.29 700.25 640.73 697.27 641.34 688.26 637.86 682.38 638.68 676.62 636.57 672.88 637.18 670.69 638.71 661.95 638.75 664.99 647.53 662.87 648.67 659.77 652.76 659.21 657.15 655.77 659.75 650.59 659.99 641.55 666.51 640.06 670.26 640.84 672.85 637.32 677.02 630.23 680.54 625.8 690.38 622.97 691 619.88 689.07 606.96 689.29 602.84 687.8 599.07 688.89 600.56 678.79 600.09 676.58 596.44 670.52 598.24 662.64 597.58 659.41 601.34 655.42 602.45 651.63 602.02 648.86 593.04 649.19 589.71 647.47 584.3 646.58 576.15 637.7 577.13 623.45 577.04 615.07 574.11 608.14 570.65 604.16 565.9 595.76 563.86 595.79 560.92 593.41 555.86 587.1 552.04 586.64 550.01 584.16 547.69 577.59 546.06 576.04 546.1 572.42 543.34 571.26 540.56 565 534.51 560.56 528.51 559.83 522.42 545.11 525.07 534.04 524.65 526.53 527.94 522.05 524.76 520.88 520.45 522.66 516.21 521.7 512.81 523.69 506.01 523.95 486.92 528.54 483.72 526.98 479.81 529.08 472.64 525.72 469.76 532.21 461.91 540.86 454.04 545.25 451.48 545.32 443.44 553.88 438 554.5 434.21 557.5 430.05 558.9 427.72 561.7 424.42 562.6 422.52 561.6 415.17 561.99 410.34 567.15 400.53 569.68 399.14 571.74 391.18 576.65 384.79 577.77 382.58 579.58 378.3 579.19 373.88 576.6 370.75 578.85 362.24 580.59 358.76 579.03 349.75 578.51 347.12 581.18 340.77 581.23 336.48 580.39 332.38 584.84 329.11 585.34 323.95 581.97 320.96 583.67 316.14 588.1 308.14 588.48 300.48 590.78 296.06 593.55 293.46 592.18 294.62 583.93 294.14 576.76 289.96 573.56 279.01 572.2 277.7 570.75 285.56 563.66 295.03 555.76 293.09 555.58 259.73 515.22 253.03 506.14 245.47 485.16 242.29 483.2 244.67 479.8 239.48 468.49 228.92 439.27 229.9 437.56 177.03 446.83 110.74 272.65 83.34 200.57 64.75 122.49 58.67 111.99 46.88 96.21 32.79 115.81 1 89.72 10.83 77.21 24.23 59.02 34.26 45.98 36.37 43.77 44.56 32.43 48.94 30.46 62.1 16.87 64.3 14.76 87.87 1.14 103.3 1.33 142.31 1 220.31 1.06 220.31 1.69 259.32 14.76 300.89 45.98 321.89 63.06 329.52 65.91 Z" id="11230000"/>
</g>
</svg>