<?xml version="1.0"?>
<svg xmlns="http://www.w3.org/2000/svg" version="1.2" baseProfile="tiny" width="800" height="819" viewBox="0 0 800 819" stroke-linecap="round" stroke-linejoin="round">
<g id="sigung">
<path d="M 660.27 281.38 663.18 285.71 663.23 289.59 656.14 294.49 645.7 294.81 635.18 294.02 622.27 295.16 628.69 301.34 634.93 304.6 641.85 310.58 645.9 313.01 645.64 317.48 647.05 325.94 641.58 325.13 635.87 327.33 629.32 328.7 627.95 331.35 626.49 342.28 627.45 345.52 625.16 350.06 620.04 351.91 619.22 358.72 616.86 368.8 619.78 372.38 619.83 377.48 623 379.97 630.06 389.38 624.09 397.17 625.79 402.44 635.23 406.78 636.18 408.81 646.3 413.82 652.07 413.99 658.62 417.89 660.77 421.5 667.8 426.44 675.55 426.07 678.35 424.75 682.6 426.57 685.64 422.67 690.3 421.11 703.9 410.23 709.17 417.47 720.11 429.09 726.35 428.17 729.64 432.17 735.78 432.33 751.62 438.53 757.89 440.5 767.84 426.79 777.52 435.18 782.04 446.12 791.46 448.97 799 458.48 798.71 465.55 796.29 468.68 792.4 477.4 792.24 485.89 791.38 487.93 785.38 494.51 786.12 506.66 787.06 509.44 787.52 520.61 783.21 532.34 780.38 534.59 775.87 541.4 774.42 545.44 772.57 555.02 773.15 560.15 765.91 567.06 766.9 568.25 773.63 568.39 774.75 570.83 748.76 587.99 747.83 589.31 734.25 598.68 732.94 600.16 706.14 618.03 701.83 621.69 697.96 626.8 694.82 632.61 691.32 630.9 682.74 648.16 680.96 657.08 679.5 687.46 678.37 703.64 654.78 702.51 654.2 711.34 648.91 723.72 647.67 738.78 603.54 736.66 587.07 736.31 579.18 735.57 556.97 731.49 555.54 735.12 554.84 753.86 556.93 764.41 554.69 771.88 549.63 782.97 550.75 785.12 556.36 785.02 556.76 789.38 553.18 790.88 556.59 797.93 548.73 800.58 540.62 804.57 537.43 804.94 527.18 802.6 518.08 798.03 506.61 795.37 504.46 795.53 492.01 784.95 489.25 785.19 491.72 794.21 492 803.99 490.72 810.06 485.97 816.69 483.59 818 445.22 751.53 413.95 700 387.85 656.05 375.45 631.52 356.33 598.61 337.11 564.74 307.39 539.08 282.37 524.57 275.52 519.88 267.3 515.78 255.46 512.64 258.81 509.55 253.2 505.77 233.28 496.76 142.85 464.96 81.94 439.44 40.98 434.81 21.01 432.38 19.89 424.58 16.32 386.17 12.51 347.77 9.05 309.36 4.59 266.39 3.18 255.65 1.96 239.04 1 199.54 11.06 207.12 39.83 211.95 59.1 217.79 81.49 221.52 107.13 216.87 116.7 211.95 155.17 197.49 193.4 173.53 203.21 163.47 231.79 135.11 308.88 58.27 347.32 19.85 355.43 1.09 388.24 1 387.73 3 417.3 13.88 424.43 18.47 437.23 23.27 449.03 31.22 462.58 42.3 467.51 45.32 476.08 49.13 456.89 116.08 452.62 132.72 448.12 144.93 439.29 163.09 565.02 232.59 601.32 252.8 628.88 267.82 649.52 279.36 660.27 281.38 Z" id="11240000"/>
</g>
</svg>