<?xml version="1.0"?>
<svg xmlns="http://www.w3.org/2000/svg" version="1.2" baseProfile="tiny" width="800" height="810" viewBox="0 0 800 810" stroke-linecap="round" stroke-linejoin="round">
<g id="sigung">
<path d="M 711.21 333.54 712.08 359.46 718.85 380.86 730.79 393.47 762.88 407.49 794.99 363.21 799 364.18 732.37 456.26 742.48 435.29 717.44 416.39 703.69 434.61 607.38 363.8 595.72 358.04 580.07 403.73 700.47 491.51 701.02 494.17 661.05 548.67 658.2 549.02 596.08 503.75 588.23 514.62 554.79 490.17 578.43 457.57 531 460.63 520.84 489.28 523.36 525.01 535.6 528.31 537.69 557.11 541.43 563.5 588.59 576.18 579.75 609.74 584.14 625.41 541.34 613.85 543.93 646.14 573.54 653.91 571.71 661.08 544.26 653.89 546.32 682.24 538.35 720.23 520.3 747.43 498.05 761.67 463.68 772.5 454.65 772.57 416.26 753.35 281.28 772.15 248.32 785.9 174.89 809 169.36 797.92 160.35 792.7 141.09 748.68 142.24 739.52 115.86 682.83 109.26 654.09 92.55 626.88 25.18 576.79 5.11 550.47 1 527.91 4.19 421.23 13.21 394.94 29.88 368.5 36.7 334.26 36.65 321.56 50.06 296.58 96.7 298.58 109.75 274.01 124.32 263.78 136.02 228.93 145.62 222.53 176.44 240.82 195.33 245.1 198.33 203.71 208.81 161.76 209.49 135.56 202.12 110.86 203.16 82.81 187.09 42.62 212.5 45.37 232.67 32.56 251.31 9.71 276.07 11.67 319.42 20.38 329.96 1 343.4 5.16 355.05 15.42 349.53 25.27 369.61 45.34 375.13 36.49 391.22 46.58 407.53 61.87 412.39 80.93 442.46 93.42 459.51 115.25 458.99 127.87 485.48 145.24 513.4 151.48 512.86 167.35 525.64 170.48 632.66 207.36 611.13 263.07 623.9 286.24 620.04 294.31 711.21 333.54 Z" id="21010000"/>
</g>
</svg>