<?xml version="1.0"?>
<svg xmlns="http://www.w3.org/2000/svg" version="1.2" baseProfile="tiny" width="800" height="568" viewBox="0 0 800 568" stroke-linecap="round" stroke-linejoin="round">
<g id="sigung">
<path d="M 728.6 211.49 729.82 232.36 734.6 239.08 734.97 247.07 729.18 250.29 731.3 258.79 736.1 257.42 737.03 269.87 739.77 284.04 735.81 290.87 737.03 294.43 749.85 303.6 769.89 318.84 769.98 326.45 790.25 326.36 799 334.19 787.81 355.95 781.75 378.24 778.11 417.61 778.31 432.74 780.81 452.32 783.55 462.13 784.34 470.43 781.46 482.81 782.06 492.82 785.5 511.57 792.06 525.26 794.02 535.04 791.14 535.7 789.86 543.35 789.8 567 779.12 556.36 776.84 557.81 768.64 541.19 762.78 525.46 758.1 517.04 760.73 507.86 754.44 499.28 751.49 497.53 747.6 500.27 744.76 496.7 734.83 497.09 719.1 482.52 711.54 478.27 701.07 479.44 694.16 481.39 676.08 479.47 667.79 475.85 656.3 473.6 652.77 473.81 637.96 470.74 631.95 468.11 622.21 466.14 613.13 467.36 592.5 461.39 585.42 451.01 580.87 446.51 571.15 443.76 562.1 446.53 557.28 446.36 547.59 441.4 538.97 440.63 532.96 443.6 526.59 444.09 521.44 446.4 512.65 445.18 509.4 441.64 502.59 439.63 492.43 441.75 480.62 438.67 475.3 429.23 454.36 421.87 446.77 417.2 438.76 415.62 434.15 411.81 430 405.31 427.09 397.4 425.91 390.17 418.74 378.66 409.55 371.2 403.61 363.77 401.53 366.51 378.44 363.72 373.03 363.78 333.98 382.02 319.06 401.73 304.1 406.2 308.95 421 251.05 436.81 226.15 443.26 227.69 448.99 226.08 453.57 228.95 464.33 202.43 471.4 196.3 468.03 187.7 472.01 176.02 465.32 177.88 462.27 166.5 456.19 147.81 449.55 138.56 458.41 131.56 462.45 116.12 460.62 107.75 463.85 98.28 465.62 70.76 450.61 62.98 442.5 47.87 436.19 47.78 435.64 6.46 384.6 1 370.89 1.4 340.1 27.44 337.92 29.93 315.08 29.59 311.6 36.47 303.78 39.6 305.65 42.98 294.64 64.02 273.08 68.48 265.01 74.89 238.92 76.68 236.61 77.38 213.7 74.5 193.16 75.66 186.89 83.96 177.56 93.74 164.71 99.51 148.29 110.29 140.37 116.35 131.34 125.26 122.28 124.76 115.24 131.76 107.88 127 94.76 136.49 86.14 146.6 56.62 148.28 55 157.15 26.4 177.62 18.16 188.65 11.43 191.46 24.87 200.68 21.76 228.9 16.53 245.53 21.79 261.41 24.34 290.49 21.13 294.93 22.71 300.98 19.81 311.32 17.84 319.9 18.27 343.25 13.32 354.08 3.32 354 1 362.85 1.17 367.3 4.58 371.07 10.74 379.78 17.61 385.34 23.89 387.32 28.42 392.81 28.58 406.91 40.64 412.77 27.11 416.84 32.37 426.12 40.86 430.33 42.31 437.01 50.09 443.04 53.46 446.49 59.07 452.37 56.09 464.79 59.68 471.42 59.17 468.95 70.91 458.1 98.25 442.17 110.96 435.74 122.48 439.07 123.32 444.3 120.24 448.43 113.68 456.01 118.3 456.3 122.04 466.77 124.45 468.31 120.8 473.3 121.52 484.33 115.2 492.62 118.69 494.66 121.2 526.52 129.31 533.17 135.8 539.93 138.57 546.14 144.1 558.68 142.31 582.36 158.22 584.23 160.11 596.67 166.59 603.33 174.28 603.36 177.67 608.2 183.14 613.95 183.58 615.07 178.47 629.1 178.58 642.75 185.78 640.74 197.44 655.12 202.05 663.17 208.03 668.13 208.65 685.94 220.3 696.96 203.84 705.76 212.66 715.54 216.59 719.46 211.55 728.6 211.49 Z" id="21060000"/>
</g>
</svg>