<?xml version="1.0"?>
<svg xmlns="http://www.w3.org/2000/svg" version="1.2" baseProfile="tiny" width="800" height="1188" viewBox="0 0 800 1188" stroke-linecap="round" stroke-linejoin="round">
<g id="sigung">
<path d="M 630.67 32.53 620.49 51.32 620.25 62.41 616.15 71.14 602.65 79.49 594.77 88.83 588.6 92.75 589.16 96.75 587.31 103.58 582.72 106.98 581.31 113.03 581.39 128.77 579.24 135.13 581.08 147.68 579.56 152.62 577.73 169.54 571.64 177.8 564.32 179.31 552.45 185.76 543.39 184.33 540.13 188.72 529.26 191.69 520.13 203.33 515.62 213.86 519.8 218.34 525.1 221.21 530.37 227.66 533.21 226.67 540.21 230.54 540.77 233.88 553.8 231.96 560.46 235.36 575.43 248.3 579.09 255.26 587.84 255.86 594.65 252.56 601.06 253.63 614.13 257.97 617.8 260.49 627.48 258.86 638.4 267.28 640.8 275.15 647.21 283.36 646.77 287.9 643.4 291.62 637.26 294.1 631.12 301.56 629.64 306.52 618.72 320.47 613.55 334.56 618.92 354.88 623.52 367.32 626.69 371.47 616.59 380.45 617.21 389.24 623.15 397.45 645.5 404.64 651.84 412.28 661.2 416.65 662.91 429.07 661.29 431.56 667.42 440.58 664.87 452 670.97 468.39 666.81 484.79 660.9 493.47 645 502.41 638.05 513.46 631.5 552.25 604.46 582.08 611.1 603.46 607.99 609.55 615.06 614.32 618.63 612.16 627.19 614.08 629.77 613.39 639.04 616.31 642 619.21 646.75 628.05 658.71 635.54 693.97 642.22 711.24 642.42 730.77 641.31 737.11 636.64 742.21 641.79 745.42 641.53 749.11 635.08 764.94 628.23 783.7 617.42 791.19 628.44 799 669.77 788.14 676.39 768.02 684.5 759.29 712.63 757.64 714.22 747.69 743.26 738.36 751.74 743.04 764.65 736.15 771.89 736.65 778.81 727.89 787.72 721.92 796.6 711.33 804.39 705.65 820.54 696.03 833.18 687.87 842.37 686.73 848.53 689.56 868.73 688.88 891.27 687.11 893.54 680.81 919.21 676.42 927.14 655.73 948.35 652.4 959.18 649.32 957.35 642.56 965.03 642.89 968.46 640.44 990.92 614.83 993.07 614.44 1023.36 612.87 1025.99 585.81 1024.45 573.25 1025.99 567.69 1015.86 554.13 1030.26 543.84 1035.52 535.82 1033.79 529.71 1029 492.01 1053.42 479.99 1064.78 466.74 1067.76 449.19 1094.01 441.46 1094.59 414.02 1098.58 417.61 1112.83 414.73 1129.51 409.85 1135.11 404.68 1137.88 396.2 1147.74 390.35 1159.65 383.13 1169.53 372.02 1182.29 367.04 1187 364.93 1184.93 330.04 1172.13 324.62 1169.75 291.66 1169.66 261.58 1170.04 246.7 1177.73 236.65 1177.74 223.77 1181.3 215.39 1174.45 205.9 1162.02 181.52 1152.77 174.84 1156.59 164.72 1154.02 159.88 1157.28 147.83 1158.02 142.04 1155.38 140.06 1140.16 139.92 1133.38 122.41 1122.14 105.73 1115.46 96.61 1110.76 86.44 1108.53 83.58 1110.57 78.77 1109.15 77.39 1104.89 80.36 1099.2 83.92 1097.99 68.69 1088.87 61.62 1103.27 54.74 1101.55 49.09 1105.13 45.66 1105.12 40.81 1109.21 33.58 1108.69 36.85 1085.88 4.12 1082.61 5.77 1069.73 2.68 1066.79 10.64 1057.85 16.4 1026.51 13.46 1019.82 1 1009.05 37.75 969.18 58.69 937.87 65.96 919.71 72.93 893.91 80.86 858.65 91.75 754.22 95.04 727.42 98.82 700 101.18 652.18 106.61 590.29 98.94 569.75 89.86 548.69 111.52 521.74 130.44 473.6 146.3 425.52 167.48 377.33 187.23 329.32 204.74 281.06 244.02 184.75 261.04 136.65 276.78 88.57 261.43 46.11 296.2 24.73 300.45 22.79 311.55 21.37 318.79 21.74 333.91 17.02 347.94 13.29 359.71 12.31 373.02 9.17 385.49 8.2 410.78 3.62 434.88 1.14 447.34 1 459.84 4.2 473.71 6.29 492.62 8.22 504.46 18.48 521.45 20.5 535.14 19.28 558.95 26.23 592.45 29.13 599.09 29.34 620.29 25.28 630.67 32.53 Z" id="21080000"/>
</g>
</svg>