<?xml version="1.0"?>
<svg xmlns="http://www.w3.org/2000/svg" version="1.2" baseProfile="tiny" width="800" height="979" viewBox="0 0 800 979" stroke-linecap="round" stroke-linejoin="round">
<g id="sigung">
<path d="M 239.56 909.64 243.83 909.36 250.04 914.84 248.38 916.32 242.86 911.01 239.56 909.64 Z M 799 667.48 793.21 669.93 786.34 670.99 784.61 674.27 781.4 675.75 778.68 681.31 779.11 682.98 784.54 687.98 788.89 685.82 791.89 681.2 793.28 682.12 790.19 687.54 782.99 690.73 784.85 698.85 778.28 699.97 777.92 696.01 771.98 695.52 772.8 692.63 771.9 687.87 767.81 684.92 762.61 684.72 755.54 685.49 745.37 689.2 738.9 693.73 730.27 702.78 724.14 711.5 719.53 720.03 715.65 729.18 713.26 736.72 715.63 741.46 717.53 741.45 717.18 754.77 718.99 760.23 715.72 765.57 717.96 766.45 718.95 772.4 714.5 779.99 711.87 790.94 713.11 799.16 711 807.64 709.02 810.02 709.22 813.77 707.61 820.65 710.42 821.57 708.46 834.83 708.79 836.97 705.78 843.43 705.61 848.04 700.89 850.51 698.88 858.67 695.06 859.38 691.09 864.17 692.74 866.29 691.58 870.51 690.57 883.91 684.87 884.71 681.24 883.1 676.81 884.54 668.45 894.75 666.07 893.78 673.34 885.34 670.22 882.54 665.22 884.48 664.17 886.27 658.84 889 660.95 895.57 663.86 898.34 661.92 900 659.24 897.12 654.74 889.82 647.17 891.19 642.09 890.2 635.53 891.27 628.72 894.87 624.43 900.94 615.28 912.48 613.22 916.74 613 921.37 602.09 930.65 599.64 931.19 587.19 939.77 581.49 940.4 574.96 939.77 570.06 938.31 556.64 939.04 553.96 938.13 548.83 933.04 526.8 923.41 522.75 921.07 517.95 916.7 511.39 914.2 506.44 913.59 501.03 915.16 499.53 912.83 508.31 911.19 506.83 906.98 503.19 909.05 494.26 900.44 493.02 900.55 486.37 907.65 484.76 906.72 491.9 899.43 481.16 899.02 469.36 900.2 453.31 900.77 446.9 901.39 432.89 903.72 420.28 906.73 399.44 913.59 387.63 918.73 380.39 923.18 372.2 929.66 372.42 937.94 371.19 944.2 367.55 946.82 362.68 952.65 363.58 956.21 360.91 960.72 362.03 963.05 358.5 971.92 359.51 973.68 341.69 975.32 340.65 978 332.5 977.44 331.37 971.36 333.4 965.46 334.3 958.13 336.34 954.42 334.98 950.01 332.55 946.62 337.05 946.14 338.36 943.87 340.88 932.43 342.55 928.23 360.68 914.89 358.33 912.76 354.02 916.26 343.39 920.56 323.94 926.86 318.34 930.59 314.51 935.55 312.8 947.92 313.81 950.24 311.51 955.89 307.04 959.28 304.01 959.35 275.76 950.25 268.36 946.31 263.12 939.13 260.89 932.32 256.41 924.78 252.59 921.08 246.18 921.17 246.61 919.14 253.61 919.32 257.45 923.26 268.37 913.03 268.36 909.34 257.82 898.65 253.03 897.63 252.77 893.58 242.27 882.87 238.55 882.85 228.18 893.57 237.29 902.79 235.84 903.43 215.28 882.56 216.91 882.45 223.21 876.18 217.45 869.68 205.75 874.14 200.92 872.06 178.18 884.64 170.93 873.38 159.11 858.06 155.67 854.1 154.16 854.68 143.98 847.91 137.71 845.49 142.8 841.65 132.48 829.42 125.33 819.11 118.85 806.26 122 802.09 117.02 793.67 113.18 788.85 108.94 778.14 99.65 770.97 96.71 767.51 87.28 747.43 76.51 726.45 71.76 711.95 68.17 703.79 69.3 693.28 65.72 682.8 60.36 671.35 49.78 643.76 48.76 644.08 47.32 636.94 42.53 626.94 40.02 613.26 39.58 605.94 41.69 596.91 41.11 590.85 39.11 583.69 37.29 569.39 37.14 558.35 39.8 529.6 44.22 513.32 52.39 497.44 46 491.72 31.21 491.79 31.14 486.23 16.51 475.1 7.16 468.41 6.27 465.81 9.16 460.82 7.16 450.48 6.48 441.39 2.97 442.39 1.43 436.19 5.65 433.84 5.38 428 1.89 423.1 1 407.85 4.42 405.39 3.9 401.4 9.6 390.47 16.35 384.27 36.31 378.43 42.29 377.55 46.48 375.9 50.16 370.62 48.09 367.72 52.09 362.53 56.52 366.64 56.99 366.32 58.28 365.41 70.23 373.39 67.87 367.6 72.17 364.12 71.89 350.57 65.36 329.09 58.52 309.77 56.69 306.83 52.62 294.93 51.49 287.1 55.34 276.45 56.79 270.64 82.06 250.81 87.62 253.11 93.96 248.03 96.09 244.42 105.33 242.16 122.19 241.28 132.71 238.01 137.91 229.01 138.75 225.36 141.94 221.07 148.26 214.78 154.4 207.21 160.06 196.43 157.07 186.73 156.08 177.59 159.6 173.69 161.21 163.21 163.31 156.68 171.52 155.86 177.26 148.6 184.57 142.8 193.27 141.66 200.53 145.87 202.54 136.46 210.16 132.6 212.51 124.24 218.06 120.32 225.67 110.8 231.96 104.52 237.7 94.05 243.66 90.39 246.91 84.41 244.33 79.11 241.84 70.96 245.04 66.07 249.19 61.75 250.52 56.47 252.82 52.76 257.22 48.07 263.1 40.36 262.67 32.52 260.84 25.81 269.45 1 289.52 15.47 298.67 28.96 303.96 35.54 302.97 48.28 316.84 53.15 326.13 54.89 335.92 54.73 340.8 58.2 351.78 59.2 355.93 61.96 363 62.23 365.79 64.55 370.65 80.73 367.49 104.79 359.93 113.12 357.72 116.97 357.3 121.39 360.25 124.34 356.78 137.55 359.68 147.14 374.81 147.43 380.81 151.15 381.5 152.84 396.27 147.04 402.88 146.17 405.48 159.8 407.36 163.36 411.13 166.07 417.5 174.56 423.4 176.43 427.65 180.04 430.5 188.93 453.02 204.75 457.84 206.14 464.59 219.78 469.42 220.66 471.53 224.29 470.99 246.95 468.2 256.15 458.31 273.52 452.26 287.41 442.4 304.16 444.6 312.01 444.19 323.32 440.45 339.42 440.84 349.12 417.52 373.48 405.07 381.92 399.97 400.5 403.9 435.97 409.33 436.34 428.88 441.35 438.37 449.43 443.19 466.49 482.24 487.64 493.09 479.39 501.97 474.97 521.82 487.37 527.22 489.39 533.62 490.64 542.76 499.59 559.61 515.17 565.29 515.83 593.59 517.93 600.89 521.98 605.98 532.77 610.8 539.19 604.99 556.55 599.98 567.82 594.51 583.11 593.71 592.77 606.82 597.79 621.73 599.66 633.84 599.08 646.93 588.25 652.04 580.32 654.85 567.78 665.47 557.82 673.43 552.3 678.67 543.38 681.05 535.19 680.34 529.06 681.43 513.43 686.02 507.18 693.83 503.79 718.78 495.54 721.86 491.09 736.53 502.21 748.03 508.67 753.19 509.65 760.99 510.04 767.63 513.72 780.18 519.12 783.79 521.57 783.59 528.02 784.53 533.4 788.41 543.28 785.78 559.94 782.82 566.9 780.77 574.35 780.83 578.91 784.39 586.36 785.31 601.7 784.94 605.41 782.24 609.63 783.5 611.55 788.38 612.52 793.09 615.32 790.13 619.36 787.41 628.05 786.42 636.99 791.29 642.29 792.33 646.99 792.44 658.24 799 667.48 Z" fill-rule="evenodd" id="21090000"/>
</g>
</svg>