<?xml version="1.0"?>
<svg xmlns="http://www.w3.org/2000/svg" version="1.2" baseProfile="tiny" width="800" height="2748" viewBox="0 0 800 2748" stroke-linecap="round" stroke-linejoin="round">
<g id="sigung">
<path d="M 288.16 2743.98 284.27 2747 282.99 2742.69 284.97 2741.07 288.16 2743.98 Z M 472.92 2210.95 476.53 2211.75 475.82 2216.39 469.61 2218.08 467.07 2216.05 464.65 2211.4 467.78 2209.51 472.92 2210.95 Z M 606.28 1681.14 605.05 1684.03 607.94 1689.2 607.79 1691.69 611.92 1693.4 613.99 1690.99 622.67 1690.91 622.8 1686.75 630.47 1681.21 635.94 1682.02 639.67 1681.31 640.87 1684.39 638.83 1687.43 639.85 1691.89 636.15 1695.22 629.37 1691.7 627.02 1695.54 623.42 1698 622.08 1701.44 624.86 1705.4 622.74 1707.95 609.71 1709.43 609.62 1715.07 606.74 1716.61 604.69 1711.64 599.35 1715.25 594.92 1716.59 592.53 1720.56 587.4 1716.91 588.89 1712.49 587.67 1710.77 591.93 1707.46 597.33 1701.53 595.99 1698.36 599.62 1695.17 602.42 1689.41 600.59 1687.48 602.46 1681.15 606.28 1681.14 Z M 426.48 1195.93 423.32 1199.86 420.15 1199.18 417.79 1196.17 419.05 1191.8 421.61 1189.36 425.36 1190.23 426.48 1195.93 Z M 482.89 1155.18 485.17 1159.32 482.82 1160.4 481.24 1167.44 478.73 1172.71 475.22 1172.35 474.96 1168.74 477.52 1156.43 479.13 1154.05 482.89 1155.18 Z M 452.42 1149.88 454.98 1154.92 459.61 1158.54 461.86 1161.92 462.14 1169.28 457.71 1177.32 458.56 1180.57 453.25 1188.52 450.09 1191.74 449.62 1195.1 451.02 1204.4 450.23 1211.55 446.37 1213.4 444.05 1208.01 441.42 1208.38 437.31 1201.46 437.52 1192.15 433.03 1192.4 430.88 1194.32 426.32 1188.2 430.45 1177.27 431.19 1168.68 435.06 1167.34 439.2 1161.62 441.76 1154.35 449.17 1148.92 452.42 1149.88 Z M 530.56 1076.19 528.29 1076.52 528.29 1085.25 529.32 1090.14 525.4 1093.3 519.7 1091.23 517.78 1085.79 519.7 1083.9 520.43 1079.11 527.85 1073.78 530.56 1076.19 Z M 518.37 988.39 521.45 993.34 518.95 1002.12 512.93 1003.54 514.5 996.36 513.07 992.64 516.16 988.48 518.37 988.39 Z M 769.25 987.5 768.83 990.21 734.83 984.92 735.22 982.22 769.25 987.5 Z M 590.1 978.45 589.47 980.98 580.44 983.98 579.79 980.73 584.16 980.52 590.1 978.45 Z M 260.96 816.41 263.25 824.43 263.78 839.54 264.9 855.13 263.91 860.36 265.75 866.44 268.01 877.95 268.24 885.22 261.76 887.35 257.65 885.24 254.19 877.36 253.28 868.79 256.98 861.68 257.28 850.41 252.39 848.6 247.87 843.98 243.5 845.71 243.08 849.66 236.44 843.2 230.51 840.33 219.41 830.83 214.57 827.92 191.94 819.37 190.34 822.74 196.88 828.19 196.12 830.03 185.61 829.1 185.34 832.87 194.86 835.22 209.12 839.84 213.4 841.94 225.27 851.86 237.77 870.81 240.22 878.99 238.94 883.09 235.32 887.31 233.08 898.56 230.58 900.4 222.85 901.23 219.66 897.03 214.29 886.75 209.45 881.38 204.18 878.45 195.54 877.99 191.99 879.11 187.74 882.58 181.45 892.82 172 888.29 179.9 887.17 171.72 876.11 162.23 875.61 154.16 876.93 145.61 879.66 137.84 883.91 131.48 888.81 122.98 898.93 122.64 902.62 127.58 907.7 132.78 910.47 136.5 909.49 150.08 908.77 163.44 903.68 170.81 903.76 175.48 899.16 192.51 888.43 196.83 882.07 203.22 883.32 210.56 889.34 216.23 901.93 218.68 905.54 223.6 908.72 217.53 918.31 210.09 922.06 204.36 922.69 202.63 920.22 197.47 921.52 190.66 925.17 186.9 930.52 188.98 931.34 191.61 927.3 196.5 923.3 200.2 922.8 210.25 924.16 218.56 920.07 223.49 911.83 227.23 909.4 234.47 910.82 238.25 913.27 239.63 918.04 244.86 925.73 248.29 925.36 251.78 915.54 254.31 912.93 260.12 911.33 265.16 912.37 272.85 918.19 275.88 921.87 282.2 934.53 280.37 936.68 274.32 939.22 260.91 941.89 248.62 948.81 249.21 952.45 262.58 944.42 275.04 941.18 283.76 941.45 288.88 945.27 292.35 950.61 292.06 977.42 289.83 980.6 280.52 979.66 271.46 979.82 267.84 981.36 262.64 980.4 261.94 978.11 251.93 970.35 239.11 967.14 217.63 964.33 200.65 964.52 192.37 965.49 176.87 965.5 153.7 967.96 143.17 967.35 129.33 968.35 124.15 967.31 109.47 966.41 104.03 965.4 89.13 964.23 77.65 962.2 64.94 961.31 59.58 959.31 92.97 957.17 104.24 957.69 106.44 955.43 83.24 953.04 67.66 950.06 46.07 944.41 33.15 938.56 26.52 932.47 19.56 921.93 13.92 914.8 3.84 906.17 1 899.5 4.66 893.39 17.86 884.05 29.85 877 37.29 875.6 41.33 877.15 51.31 885.13 58.86 890.03 60.97 892.75 51.21 910.2 52.27 915.03 51.69 924.32 59.01 932.69 64.78 933.88 68.89 936.92 73.61 937.3 77.05 935.36 61.1 909.33 57.11 905.29 59.96 897.51 63.87 893.92 67.06 889.3 71 889.29 74.98 891.28 76.66 894.33 78.15 902.01 77.28 908.1 80.29 913.37 88.85 925.06 92.07 933.53 98.12 942.43 100.39 943.85 107.59 944.67 107.25 940.62 103.18 933.06 93.72 922.68 88.71 914.75 85.36 905.58 83.72 884.5 82.14 879.48 78.43 874.52 73.21 875.87 69.99 880.9 63.6 881.99 60.1 880.76 55.18 875.34 53.02 867.93 53.41 862.18 55.72 854.93 64.05 838.91 73.32 825.86 81.17 810.92 101.37 787.87 108.81 780.69 120.12 765.65 133.86 744.38 136.78 738.9 142.1 732.01 153.62 706.61 161.58 694.49 164.25 691.32 176.19 681.53 178.71 681.61 192.36 701.88 194.99 706.51 199.21 716.56 202.84 720.63 209.36 732.27 214.07 742.24 220.79 752.7 231.78 766.8 239.55 781.02 244.42 787.1 249.04 796.59 256.03 806.18 260.96 816.41 Z M 661.33 141.87 660.94 147.11 658.08 155.09 656.97 175.41 653.5 179.72 654.8 190.14 655.85 193.39 663.48 193.1 673.16 196.02 681.9 195.56 689.19 206.72 685.21 219.2 687.97 231.79 683.43 239.43 700.68 251.47 697.88 271.8 705.07 282.7 708.15 285.91 723.39 290.99 733.82 302.64 735.37 306.38 740.33 312.1 744.71 312.83 748.33 319.2 758.49 328.01 761.08 331.03 756.75 340.62 752.87 340.72 751.14 344 750.26 350.93 748.07 356.08 742.44 361.53 736.07 373.3 733.87 380.85 733.97 394.51 733.45 398.72 737.21 400.01 759.26 399.81 762.2 407.85 769.85 417.07 768.99 419.88 771.2 424.44 777.75 433.6 783.74 438.96 786.84 445.32 796.99 460.31 798.11 468.73 799 489.8 791.55 506.73 787.78 520.58 785.66 531.69 783.25 549.87 779.19 565.77 777.35 569.74 770.37 580.28 775.51 589.06 776.76 593.3 777.24 603 774.91 610.76 774.91 615.24 777.99 620.32 773.66 629.3 773.1 637.24 773.59 645.26 763.77 642.98 753.22 637.19 747.14 629.97 742.78 623.28 737.12 620.72 729.47 619.75 729.3 626.18 713.2 628.46 708.85 597 718.86 563.15 710.16 555.68 705.86 546.8 699.2 544.14 690.69 545.21 695.55 560.76 694.38 562.02 681.88 559.73 679.98 563.19 682.28 570.07 663.89 576.11 669.81 594.23 687.94 598.72 687.2 604.3 684.19 614.02 657.57 607.5 648.36 579.46 610.15 570.66 607.14 612.06 628.89 659.31 629.58 672.19 626.28 672.46 618.06 680.46 616.33 681.2 616.07 686.49 618.43 686.96 617.78 697.32 623.24 697.97 624.91 707.07 633.45 706.94 633.92 736.18 635.12 793.8 657.31 858.39 662.08 856.81 664.94 864.73 664.6 869.11 668.61 879.96 668.34 884.13 671.24 884.1 672.53 890.79 683.84 923.81 687.24 932.89 692.13 948 688.47 949.53 690.94 956.47 735.58 946.15 741.72 946.38 742.2 948.77 691.94 960.39 684.6 964.77 680.61 964.78 683.49 969.98 683.49 973.61 680.11 975.91 673.26 972.53 668.29 976.74 664.04 978.82 665.73 981.49 665.18 986.18 669.49 993.43 667.71 999.78 662.72 999.53 661.21 996.44 657.65 999.34 654.54 997.86 650.03 1001.81 645.09 998.62 644.67 996.08 638.75 989.92 633.97 988.3 630.46 993.85 627.82 991.67 618.53 992.4 614.38 990.31 612.81 986.54 612.69 981.7 609.16 974.37 594.18 978.83 593.14 977.26 607.27 972.98 614.09 969.48 613.06 953.96 611.37 947.24 588.79 889.84 575.95 857.71 573.84 854.03 567.86 854.26 559.52 851.89 549.45 844.96 539.57 834.94 502.23 854.29 497.79 858.06 497.64 860.25 504.29 873.62 502.36 874.51 494.77 859.61 489.85 860.96 482.62 864.72 478.07 866.08 475.71 870.26 475.54 882.15 472.79 884.14 463.55 881.66 459.98 877.08 459.68 870.45 451.72 866.98 441.31 868.69 434.7 868.67 433.63 878.71 438.06 879.18 437.37 884.95 432.64 884.57 431.75 895.01 439.69 904.57 443.28 907.23 452.37 908.8 454.37 906.44 457.71 906.91 469.69 912.87 482.44 912.09 487.32 909.46 488.15 905.96 493.12 906.81 496.07 910.37 497.37 898.78 503.78 899.46 502.55 911.08 504.64 911.3 523.65 923.24 533.42 907.52 532.16 901.56 534.08 900.05 535.97 908.24 525.06 926.21 525.44 927.58 521.08 934.14 520.58 938.44 515.55 946.08 515.91 953.19 518.68 958.35 516.93 964.92 520.44 975.82 526.11 976.32 524.23 980.28 510.57 979.55 501.54 973.98 499.68 970.35 499.4 962.33 498.26 961.22 484.85 964.15 483.74 958.92 471.37 961.13 468.24 966.14 455.75 968.4 451.25 957.36 448.27 956.74 442.44 952.96 438.4 951.71 433.54 953.29 431.83 955.81 423.28 959.3 418.16 963 409.22 972.64 406.75 977.95 404.43 987.77 405.94 992.45 410.32 999.49 420.14 1003.16 431.34 1011.61 437.46 1013.97 443.87 1013.86 446.96 1015.14 451.64 1023.51 456.04 1026.48 468.28 1028.28 477.07 1034.03 478.65 1038.28 483.69 1042.31 484.87 1049 483.71 1053.66 480.82 1053.96 473.29 1050.22 468.04 1049.48 464.45 1044.92 459.93 1042.49 456.57 1037.66 453.4 1035.96 445.33 1039.19 436.35 1046.03 436.57 1051.16 432.96 1055.02 427.07 1058.88 423.91 1064.2 422.77 1072.39 428.68 1078.24 429.82 1081.64 426.31 1084.85 419.58 1077.99 415.41 1080.38 414.21 1085.12 399.36 1084.67 393.63 1088.36 387.98 1096.29 387.02 1100.23 388.07 1109.94 391.24 1115.39 392 1125.62 388.41 1127.27 383.12 1133.19 378.64 1135.23 375.43 1129.18 368.53 1125.87 365.16 1115.13 368.2 1111.79 364.14 1108.37 364.37 1101.47 366.5 1098.25 364.62 1091.62 377.47 1078.76 379.45 1071.2 386.82 1057.41 383.35 1049.34 385.5 1045.19 384.25 1040.11 387.44 1035.35 388.87 1030.59 387.87 1026.73 392.27 1020.68 392.4 1014.88 389.56 1008.92 381.83 1003.67 373.04 1001.65 364.61 1001.92 358.84 1004.45 349.17 990.74 340.77 982.32 335.4 978.33 322.7 971.54 316.97 963.76 315.18 959.47 312.34 948.46 316.19 944.25 323.85 954.84 326.37 954.57 328.77 952.28 332.36 953.29 333.92 957.67 343.06 964.88 349.1 964.18 355.24 964.92 356.17 962.06 346.09 958.1 343.2 958.27 339.98 954.84 328.7 951.08 326.81 953.6 323.22 953.84 318.84 946.06 314.7 943.2 308.94 934.01 308.57 931.4 302.2 921.14 299.39 914.89 294 887.36 288.23 864.38 278.71 823.78 297.94 819 300.38 814.94 277.69 819.99 273.27 800.49 261.01 749.05 258.62 738.1 255.63 733.31 253.72 725.36 254.9 723.4 252.05 710.6 251.91 707.3 269.56 703.1 296.81 697.04 300.75 695.72 299.69 691.7 295.32 695.14 276.34 699.91 251.82 705.52 250.93 705.28 245.85 684.39 237.14 645.51 232.82 629.81 233.64 628.45 231.67 620.59 228.65 601.81 228.44 598.02 229.37 582.82 233.26 566.79 243.89 543.77 246.64 539.61 253.88 520.93 261.14 497.35 265.88 475.87 268.19 460.3 269.19 450.01 275.57 365.59 275.79 356.4 277.82 355.2 276.95 348.66 277.49 339.23 274.23 335.8 274.43 332.62 224.9 324.72 223.85 328.77 220.44 330.96 209.78 374.99 208.55 378.15 205.17 377.01 207.4 368.55 214.8 337.29 217.81 327.55 209.79 326.37 208.13 335.33 197.3 379.2 196.52 389.36 196.75 399.23 199.91 413.56 196.73 428.89 189.9 454.96 184.96 476.37 177.28 507.76 171.26 530.4 167.14 540.11 162.94 553.07 159.6 559.87 156.2 560.06 152.96 562.87 148.79 572.45 144.73 578.08 143.32 583.46 137.59 595.56 134.63 600.07 130.68 600.6 130.04 587.95 127.6 590.71 127.23 606.84 123.31 614.88 117.31 624.3 104.8 636.24 92.85 652.03 84.63 666.34 73.44 688.35 71.31 690.36 56.54 694.2 52.03 694.24 44.27 692.12 41.84 688.71 39.3 679.27 35.87 658.4 34.49 642.24 36.9 633.92 46.35 616.96 53.95 596.24 58.35 580.04 66.06 568.19 62.36 563.42 60.29 548.96 60.14 541.22 59.16 536.37 55.48 539.64 52.95 533.84 52.61 527.53 53.2 513.18 54.22 507.48 58.14 500.57 61.31 489.18 62.1 483.71 61 478.16 62.14 472.84 65.83 463.32 69.34 443.55 72.28 435.51 69.62 428.21 75.12 406.83 74.99 399.92 78.14 397.81 81.96 401.07 86.96 397.58 83.48 395.91 82.98 393.27 89.27 372.39 90.3 361.55 92.46 362.51 94.3 347.62 96.3 345.36 97.35 337.72 100.35 332.95 110.2 330.14 114.9 327.4 121.03 320.56 122.4 312.3 116.33 309.55 116.9 307.2 88.25 299.03 88.06 298.05 84.11 276.89 113.1 252.22 113.89 245.13 117.11 237.31 131.54 218.95 142.01 202.99 146.65 197.5 152.46 193.18 170.2 173.99 179.5 166.5 197.21 157.25 202.76 141.81 212.84 117.72 222.02 100.7 226.95 87.94 232.71 78.09 242.68 63.05 262.86 35.77 274.62 20.74 286.16 12.71 298.1 3.72 300.15 3.49 323.24 1 323.51 14.25 321.14 18.1 318.12 37.15 315.68 45.96 309.68 64.18 302.99 76.68 292.72 100.38 287.64 116.21 283.33 138.1 283.3 143.31 284.88 162.1 287.36 177.69 291.02 197.04 292.97 199.85 302.43 209.45 306.88 194.27 312.18 183.2 319.72 184.97 323.29 187.08 326.53 184.34 330.65 177.75 332.3 172.87 335.34 173.85 336.98 167.34 339.5 162.82 347.32 166.5 353.32 168.28 372.17 175.23 387.03 176.19 386.52 180.21 392.97 184.2 403.77 189.19 413.58 192.25 419.26 196.16 449.46 213.67 459.55 215.1 472.05 212.21 486.82 212.36 490.35 209.12 498.93 195.36 499.93 184.2 505.22 177.23 513.6 170.58 522.55 161.01 526.63 155.54 533.01 151.37 546.78 133.78 554.38 132.67 558.37 130.82 569.37 129.09 584.49 130.88 607.36 135.74 611.49 135.75 622.66 138.97 635.03 138.46 661.33 141.87 Z" fill-rule="evenodd" id="21100000"/>
</g>
</svg>