<?xml version="1.0"?>
<svg xmlns="http://www.w3.org/2000/svg" version="1.2" baseProfile="tiny" width="800" height="873" viewBox="0 0 800 873" stroke-linecap="round" stroke-linejoin="round">
<g id="sigung">
<path d="M 523.16 17.5 542.23 21.31 549.03 25.16 555.37 25.58 558.81 26.6 565.6 27.28 568.57 31.38 579 38.63 581.92 41.5 584.78 41.45 592.56 35.49 595.51 35.19 598.26 38.56 603.8 40.35 612.3 39.26 617.06 37.74 627.31 41.89 629.43 51.3 632 54.13 636.59 55.93 641.18 55.15 656.68 59.21 660.45 61.99 663.24 67.36 666.59 69.98 673.4 71.02 678.83 70.9 679.37 74.98 681.83 79.06 690.54 113.84 699.25 127.9 688.27 133.63 670.61 151.46 668.73 164.73 664.26 178.19 658.79 191.62 652.93 211.17 643.02 224.61 647.37 236.62 656.78 249.28 650.22 266.51 650.64 284.86 648.31 292.45 636.61 307.89 628.3 320.38 626.96 327.01 623.93 330.17 621.64 346.36 619.97 351.05 625.81 359.94 622.65 361.67 622.92 371.37 624.67 383.95 632.27 391 634.54 398.95 626.79 399.82 626.83 401.77 656.06 398.91 661.16 399.55 685.8 411.19 689.28 411.34 699.28 409.32 707.27 408.28 714.04 408.55 722.65 420.53 747.08 408.59 757.72 408.63 760.15 412.29 760.49 416.71 755.68 435.17 750.83 441.75 753.52 449.41 752.34 452.37 753.45 457.37 751.7 464.69 757.89 468.65 764.15 473.52 765.74 477.19 782.01 489.62 795.73 492.07 799 493.99 791.13 516.67 792.8 522.81 793.2 529.98 787.82 537.04 783.79 541.33 781.69 544.72 780.47 549.55 776.69 553.5 773.76 557.98 776.04 565.43 778.39 570.28 775.42 575.74 769.97 579.09 764.72 588.67 758.98 594.41 752.02 603.12 746.94 606.71 744.8 614.35 737.83 617.88 735.99 626.49 729.35 622.64 721.4 623.69 714.71 628.99 709.47 635.63 701.97 636.38 700.04 642.35 698.58 651.93 695.35 655.5 696.26 663.86 699 672.73 693.81 682.6 688.2 689.52 682.43 695.27 679.51 699.19 678.74 702.54 673.98 710.76 664.37 713.76 648.95 714.56 640.51 716.63 638.56 719.93 632.77 724.57 627.68 722.47 604.58 740.61 603.25 745.93 599.73 755.67 600.76 762.83 604.48 773.71 606.16 776.4 612.41 794.08 618.38 813.72 618.64 826.11 614.71 829.29 616.87 834.59 605.94 827.29 604.76 828.13 604.33 828.42 600.28 824.65 596.63 829.4 598.51 832.06 595.15 836.88 591.32 838.4 585.85 839.2 567.61 844.55 561.44 850.21 556.22 860.21 556.7 863.86 553.57 866.11 547.48 866.15 544.86 869.52 538.34 866.9 532.46 861.01 525.11 872 513.22 864.22 509.91 863.81 504.54 859.81 494.95 856.73 496.29 848.95 487.18 844.14 477.82 844.07 477.07 847.48 473.24 847.18 470 843.53 469.98 841.27 465.54 836.13 457.24 831.81 455.99 830.54 440.19 819.92 431.82 821.12 427.68 817.42 423.17 815.57 418.73 811.24 397.47 805.82 396.11 804.14 390.58 801.81 383.21 806.04 379.88 805.56 378.86 807.99 371.87 806.38 371.68 803.88 366.62 800.8 363.86 805.18 360.37 807.24 358.15 806.67 362.44 798.98 373.07 790.5 380.31 772.24 381.96 764.4 377.54 764.74 369.25 762.35 365.33 764.33 363.02 760.59 359 758.33 354.54 753.14 351.73 752.17 345.54 746.5 342.82 742.99 338.91 752.02 329.51 743.97 325.84 743.87 324.52 740.84 320.81 736.64 315 732.06 312.48 727.94 309.51 725.67 303.6 725.55 303.66 727.1 296.43 733.78 280.85 737.09 275.12 736.8 268.23 738.12 264.19 740.05 261.22 739 241.82 741.14 231.22 739.44 220.13 735.92 201.3 739.42 195.14 741.49 193.27 732.52 187.97 704.46 182.89 696.98 170.16 704.32 159.42 708.97 156.91 713.35 154.74 713.52 151.28 710.03 146.97 713.2 133.73 713.95 122.01 713.82 98.08 709.28 89.97 704.2 86.75 698.2 84.74 696.23 78.45 694.24 76.7 694.71 70.89 693.41 68.47 694.88 63.67 691.64 65.78 687.51 61.28 672.99 79.62 652.74 84.07 626.41 88.78 618.9 99.57 612.83 103.58 606.94 106.4 595.81 102.27 584.69 103.99 576.93 99.84 570.81 100.93 569.12 99.77 560.68 93.42 557.72 89.13 552.53 73.96 547.65 69.93 542.07 69.51 536.11 76.36 530.02 74.21 527.2 71.09 518.75 67.44 504.96 70.95 495.39 78.36 485.92 79.37 482.55 83.53 477.49 87.7 475.8 89.99 473.28 90.28 470.2 85.93 464.62 84.31 459.28 76.9 453.57 70.33 454.67 67.84 452.96 58.97 450.01 54.62 449.29 50 451.53 44.06 451.12 41.58 446.4 31.43 437.61 26.91 435.3 18.07 436.61 17.68 434.34 12.93 431.71 11.01 432.38 7.44 428.01 3.84 426.06 1 423.02 4.06 415.87 10.26 407.97 17.63 405.95 19.84 402.97 25.99 403.94 34.04 399.56 39.01 398.54 43.14 392.93 44.39 381.44 45.42 378.09 44.17 369.57 45.62 365.25 45.57 354.57 46.53 350.46 49.64 348.15 50.9 343.52 50.52 340.8 54.71 338.13 60.05 331.79 69.21 326.13 71.99 320.2 72.15 312.67 79.06 299.91 80.87 297.09 81.4 291.08 77.12 283.87 78.73 278.98 82.09 277.04 85.03 273.98 85.34 265.31 94.66 257.74 97.84 250.71 102.01 244.54 116.14 238.26 124.37 228.45 124.38 221.15 113.56 206.62 111.94 202.84 111.29 194.51 115.27 187.05 115.48 181.13 120.52 166.11 123.38 163.46 126.45 158.62 131.7 154.05 135.53 147.33 141.6 142.91 147.48 129.17 150.01 121.75 153.75 114.54 155.25 112.88 159.52 111.5 181.06 111.23 197.35 115.28 202.91 113.79 215.81 114.82 222.48 120.36 238.43 119.72 242.31 115.5 245.12 113.83 256.85 129.31 260.47 135.97 268.3 146.43 273.17 147.06 276.08 142.46 306.6 109.67 312.09 104.61 318.96 95.64 319.6 91.33 324.09 88.72 335.35 80.8 338.07 74.99 343.46 73.34 349.88 66.4 350.2 61.85 356.16 52.33 360.05 48.2 374.69 38.33 390.72 30.72 400.89 32.86 406.05 31.3 409.56 32.52 421.96 28.87 433.96 29.6 444.19 26.8 447.37 27.63 453.54 24.02 457.69 24.99 465.13 24.19 466.85 17.26 480.64 10.34 485.3 8.46 493.47 3.84 505.49 1 508.29 3.38 511.3 4.04 523.23 8.75 523.16 17.5 Z" id="21110000"/>
</g>
</svg>