<?xml version="1.0"?>
<svg xmlns="http://www.w3.org/2000/svg" version="1.2" baseProfile="tiny" width="800" height="589" viewBox="0 0 800 589" stroke-linecap="round" stroke-linejoin="round">
<g id="sigung">
<path d="M 797.86 216.47 799 217.87 792.9 237.28 791.31 245.48 786.33 259.14 778.33 263.62 777.07 266.44 779.67 271.31 779.22 276.24 769.75 290.08 767.02 305.68 763.18 313.95 759.92 313.3 756.68 328.36 735.28 323.9 728.33 310.67 723.15 308.98 715.83 309.83 708.85 301.2 707.24 277.76 699.44 274.82 699.33 270.14 695.28 270.07 695.15 264.82 684.24 266.54 670.73 261.38 668.11 263.5 663.67 259.05 656.26 265.59 651.18 267.21 641.85 275.48 623.8 269.97 614.93 275.22 608.19 275.85 594.48 281.62 592.56 281.21 585.1 302.58 583.82 313.99 584.77 342.69 585.84 342.75 582.74 366.11 589.1 370.48 591.05 392.49 583.83 393.46 584.11 406.05 575.55 421.15 567.01 440.83 561.38 446.74 562.09 448.72 545.68 469.58 527.65 481.44 531.66 500.41 553.86 530.61 568.36 528.08 573.94 540.12 562.18 546.61 553 555.72 544.53 559.42 538.81 558.13 526.29 559.22 514.6 556 499.99 550.01 485.33 558.11 470.39 569.15 461.41 578.48 447.34 580.19 435.46 582.83 427.47 588 422.98 581.91 405.87 566.23 389.72 544.38 387.32 538.6 376.3 520.15 370.03 500.62 379.42 475.79 383.13 467.39 391.64 460.3 397.29 453.77 405.4 454.2 410.48 433.48 408.08 426.08 409.72 417.23 408.97 412.98 412.95 405.54 413.34 398.07 409.02 390.57 400.16 389.55 392.01 383.42 390.15 378.99 383.56 370.94 384.94 367.33 372.13 342.62 357.89 345.97 353.79 338.38 338.25 328.06 341.32 323.12 335.18 318.6 331.86 312.99 330.45 304.55 310.48 292.3 307.05 292.3 302.87 287.72 298.25 288.29 293.66 285.46 289.91 296.36 294.73 309.16 274.71 339.63 259.56 330.64 238.97 329.26 237.44 335.35 236.62 349.96 228.05 349.4 228.07 346.02 231.98 341.81 232.1 336.72 223.17 343.45 222.92 329.9 219.88 323.6 186.94 320.23 184.52 319.24 181.93 305.77 179.6 301.7 175.76 289.43 171.51 284.93 178.47 265.53 176.21 256.99 176.94 251.33 173.02 236.67 168.02 232.74 165.35 224.56 152 220 141.89 223.21 122.02 224.56 111.25 218.67 108.01 215.22 96.29 226.53 90.22 226.03 67.01 220.27 63.84 218.36 49.51 214.45 48.53 203.62 43.99 200.27 44.7 188.39 33.81 175.1 28.53 171.22 22.79 164.59 13.24 151.1 4.72 135.83 5.38 125.98 1 111.57 11.08 77.82 27.09 84.5 35.34 93.1 64.54 109 74.58 107.13 83.45 103.71 99.82 105.65 107.24 101.36 117.06 91.97 136.88 99.01 148.94 105.46 146.97 108.69 159.36 115.78 168.48 111.56 174.98 115.14 203.11 107.64 200.06 96.23 201.77 91.38 200.13 85.3 226.54 78.47 287.94 61.71 282.79 46.02 298.65 41.28 314.48 20.39 355.89 1.06 361.63 1 386.12 3.95 388.32 1.05 394.62 8.92 404.37 16.83 411.97 29.03 413.22 36.7 416.31 45.08 420.71 51.97 425.6 56 434.09 57.68 442.14 62.64 464.35 70.43 469.99 80.44 482.51 83.7 493.29 81.45 500.51 83.59 503.96 87.34 513.28 88.64 518.74 86.19 525.49 85.67 531.87 82.52 541 83.34 551.28 88.59 556.39 88.77 565.99 85.84 576.29 88.75 581.12 93.52 588.63 104.52 610.51 110.85 620.14 109.55 630.46 111.64 636.84 114.43 652.54 117.68 656.29 117.47 668.48 119.85 677.27 123.69 696.43 125.72 703.76 123.65 714.87 122.41 722.88 126.92 739.57 142.37 750.1 141.95 753.11 145.73 757.23 142.83 760.36 144.69 767.03 153.79 764.24 163.52 769.2 172.43 775.42 189.11 784.12 206.72 786.53 205.19 797.86 216.47 Z" id="21130000"/>
</g>
</svg>