<?xml version="1.0"?>
<svg xmlns="http://www.w3.org/2000/svg" version="1.2" baseProfile="tiny" width="800" height="1114" viewBox="0 0 800 1114" stroke-linecap="round" stroke-linejoin="round">
<g id="sigung">
<path d="M 425.91 1.72 428.2 1 451.98 62.99 464.03 88.72 472.08 112.26 469.55 135.86 477.6 154.2 488.29 186.78 512.49 233.89 533.68 279.02 540.3 286.78 561.17 302.9 570.69 326.95 579.34 337.78 590.53 356.7 583.45 366.07 598.01 394.93 614.09 418.08 637.26 445.56 625.83 454.19 639.93 459.62 662.81 474.83 666.19 473.52 673.92 482.43 700.48 516.85 716.78 542.13 733.29 562.56 789.48 636.01 795.8 643.09 799 656.8 798.75 665.5 794.12 675.12 786.76 682.83 776.05 688.58 726.64 703.44 726.99 711.66 703.05 724.24 700.8 719.02 723.3 707.22 716.03 695.82 653.15 716.04 655.3 723.33 690.76 731.4 706.82 735.91 717.28 732.32 724.26 735.69 707.26 742.03 652.13 729.03 647.81 720.59 604.91 733.97 600.57 726.53 593.66 702.54 589.98 696.19 564.65 693.9 548.16 697.25 532.64 705.21 519.73 714.46 488.6 744.83 476.38 760.29 452.32 797.7 445.07 811.73 437.55 837.42 435.83 854.82 437.66 871.78 440.81 879.34 446.61 882.67 488.92 881.56 489.71 892.7 487.85 906.63 487.55 968.99 487.83 1006.71 488.83 1019.9 448.67 1031.88 436.39 1057.05 433.13 1059.54 424.53 1075.21 422.15 1073.05 431.48 1053.54 425.92 1050.94 407.41 1070.84 384.43 1097.5 384.56 1100.45 380.55 1100.51 371.22 1113 303.59 1059.87 292.47 1047.64 278.8 1041.51 259.11 1012.65 239.76 998.08 230.56 987.07 220.49 986.14 204.5 964.48 217.14 944.1 224.63 936.28 225.44 916.97 214.08 881.78 210.25 857.86 208.03 853.74 204.8 831.12 191.6 818.37 195.93 811.96 190.15 799.43 189.29 787.4 184.29 776.15 182.33 761.82 139.62 697.9 138.59 683.19 130.43 675.52 121.62 660.14 112.84 633.66 105.73 625.54 99.01 611.54 93.59 594.1 81.32 583.4 79.53 568.73 72.61 554.94 63.98 536.33 41.54 540.24 7.2 493.5 1 464.15 28.89 445.79 54.28 413.53 53.18 410.46 61.88 401.32 75.09 370.87 88.34 347.51 87.9 328.02 99.08 326.52 96.06 292.45 86.21 285.69 91.02 249.56 89.36 249.45 87.89 205.05 89.87 187.4 101.41 154.33 104.38 154.96 125.59 146.03 136 145.06 149.73 136.93 177.65 145.46 192.09 132.66 199.94 130.16 211.41 120.03 218.28 126.92 222.32 123.64 243.23 131.63 260.1 128.96 260.31 137.09 266.57 137.19 266.74 144.43 278.8 148.99 281.3 185.26 292.08 198.61 303.41 197.29 311.42 199.92 322.18 220.38 355.29 227.28 360.3 203.98 365.34 204.99 371.28 192.19 375.5 168.06 390.15 146.64 390.85 139.01 386.82 131.48 388.77 127.11 401.16 120.18 408.86 99.05 411.31 86.35 420.75 56.32 418.98 54.15 419.08 15.35 421.18 2.81 425.91 1.72 Z" id="21140000"/>
</g>
</svg>