<?xml version="1.0"?>
<svg xmlns="http://www.w3.org/2000/svg" version="1.2" baseProfile="tiny" width="800" height="1029" viewBox="0 0 800 1029" stroke-linecap="round" stroke-linejoin="round">
<g id="sigung">
<path d="M 489.1 964.71 488.57 964 492.61 961.36 492.89 962.15 489.1 964.71 Z M 522.04 867.33 521.44 869.46 520.25 869.08 509.74 868.67 509.69 866.92 519.37 867.42 522.04 867.33 Z M 504.63 845.03 505.07 848.83 503.89 851.5 501.11 849.71 500.08 841.39 504.35 840.13 505.2 842.49 504.63 845.03 Z M 627.17 454.53 626.86 451.41 624.81 447.25 625.5 446.96 627.98 451.47 627.17 454.53 Z M 625.31 428.1 626.67 433.27 625.79 433.39 624.4 428.35 625.31 428.1 Z M 795.12 284.2 796.47 292.66 796.85 293.68 797.6 299.96 799 309.18 798.84 313.66 793.81 322.65 791.96 322.79 791.1 321.92 792.01 319.78 793.7 319.01 796.83 313.78 797.35 310.39 794.89 293.36 793.76 284.7 792.73 283.29 789.67 285.1 791.1 306.83 790.31 310.05 788.09 312.1 787.31 311.63 785.5 314.69 786.19 316.75 784.67 319.88 779.74 322.72 783.61 325.33 783.08 326.29 779.68 324.37 777.31 324.29 776.76 325.83 776.79 330.65 777.48 332.28 782.18 331.07 783.05 330.49 785.1 326.8 786.65 327.49 784.13 332.24 778.33 333.79 774.43 340.93 773.53 341.84 752.28 344.05 742.17 344.05 734.4 341.97 730.68 339.87 729.6 336.67 728.23 336.03 725.09 336.03 722.03 333.73 722.56 331.95 725.35 334.52 727.42 335.11 728.93 334.54 728.05 328.99 726.54 327.89 726.69 322.88 728.32 322.79 728.34 318.24 725.4 316.66 721.16 316.91 715.78 316.67 714.63 316.14 714.77 311.92 714.4 310.44 714.97 304.17 713.06 305.31 710.23 305.03 709.98 304.28 706.91 304.13 705.71 304.58 702.19 304.27 701.55 302.5 696.77 303.24 695.83 305.62 689.18 307.79 687.95 306.44 683.44 307.98 682.06 309.07 683.32 311.99 684.42 313.05 687.78 313.01 687.97 313.74 684.14 313.79 682.99 312.64 680.45 313.47 679.98 312.13 676.47 312.73 673.03 316.76 669.71 319.16 662.72 320.43 658.85 321.71 658.3 323.33 656.97 324.48 656.66 325.96 654.15 327.04 653.72 328.47 650.96 326.85 647.94 327.77 646.07 329.29 644.09 332.59 642.72 332.38 640.76 333.89 642.49 336.1 645.21 336.81 646.15 334.66 647.37 334.91 645.37 337.58 641.78 336.49 639.59 335.11 637.95 336.26 633.35 341.51 630.32 346.68 628.79 350.17 625.59 359.1 622.5 359.24 622.79 361.48 625.21 365.4 623.35 368.34 623.36 370.68 621.83 371.64 620.62 376.18 619.77 380.62 618.95 387.06 620.02 389.33 619.5 391.01 616.03 395.04 614.73 397.68 614 400.66 613.14 402.01 613.16 403.76 615.97 405.64 615.1 406.33 612.82 404.59 611.06 403.86 607.44 407.93 607.42 410.62 609.35 415.07 610.61 419.05 612.68 421.47 615.13 419.63 615.98 420.34 614.66 421.96 615.85 422.93 617.66 420.81 620.83 414.82 621.11 411 622.12 411.48 622.25 415.43 618.46 421.16 617.54 424.99 615.4 429.7 614.97 431.84 615.29 435.18 615.94 437.02 615.89 439.24 618.52 440.85 619.25 446.45 620.84 447.19 623.07 446.6 627.54 439.41 628.63 439.99 626.03 444.26 624.69 445.49 623.17 448.03 620.07 449.22 621.31 451.26 624.21 449.84 624.72 451.18 623.36 452.62 621.56 453.41 620.57 457.03 620.43 461.3 622.42 464.02 620.96 465.54 621.84 466.67 621.39 468.5 619.5 470.02 619.81 471.6 618.89 472.48 619.13 474.73 620.1 477.4 619.03 479.87 619.57 480.62 618.45 483.47 616.91 483.17 613.19 486.57 612.39 488.14 614.76 490.62 613.54 490.92 611.35 488.26 610.19 488.08 608.07 489.21 606.67 491.52 606.44 493.27 608.01 497.26 609.63 499.04 613.16 498.95 613.38 498.15 612.67 493.5 614.05 494.16 614.87 500.96 614.09 502.84 611.85 505.23 613.2 507.74 613.36 510.96 614.36 513.47 619.4 518.95 621.34 519.43 620.75 521.33 617.42 522.64 618.48 524.12 616.65 525.01 613.12 524.8 611.41 523.56 608.33 524.5 607 524.29 606.33 525.99 604.75 525.96 602.41 529.84 602.3 531.39 600.78 534.02 600.58 536.35 601.3 540.03 600.96 542.79 601.29 548.79 600.98 549.83 601.36 553.44 601.13 557.61 601.73 561.58 600.29 562.98 599.1 565.19 599.57 566.48 598.02 567.93 598.74 568.97 594.07 573.18 593.29 575.44 591.75 577.95 589.03 579.11 587.32 580.65 585.37 580.59 583.81 578.43 580.96 576.09 577.44 576.87 573.32 576.7 573.28 575.48 570.07 577.27 566.9 576.51 565.99 581.17 566.1 586.83 564.38 586.28 564.17 582 565.85 574.04 564.12 573.72 561.16 574.62 556.76 579.08 553.08 585.96 553.03 589.48 554.44 592.3 558 595.74 557.02 604.14 556.31 605.52 552.58 607.04 554.16 610.5 555.41 610.83 550.52 615.64 550.89 612.69 550.33 612.07 546.34 610.51 543.48 610.78 541.78 612.06 539.72 614.86 538.96 612.99 535.23 612.52 533.35 613.07 529.02 616.36 527.93 615.05 528.78 614.03 528.02 612.65 522.29 612.71 520.14 614.15 520.71 616.19 518.19 618.3 515.91 622.28 514.52 628.9 514.81 632.89 515.91 637.27 517.46 641.2 519.82 644.69 521.91 646.52 525.15 647.85 527.2 646.18 529.91 645.52 531.91 647.54 535.41 649.3 538.68 648.98 541.23 646.81 545.27 641.46 547.31 639.8 549.61 640.67 551.91 640.05 553.37 637.25 554.97 635.91 559.24 637.31 561.86 634.93 562.31 635.42 559.49 637.98 560.97 645.18 563.66 645.76 566.37 644.53 568.79 640.01 571.31 637.27 567.31 630.73 564.72 630.79 564.44 629.71 568.18 629.86 572.77 637.67 575.8 637.87 579.27 637.11 579.57 638.87 581.01 638.33 581.74 640.72 582.93 641.17 584.48 640.13 584.52 636.55 586.59 634.56 588.55 634 588.49 636.33 590.31 636.51 591.17 638.04 590.57 639.55 589.07 640.76 590.08 642.13 589.11 643.59 590.1 647.78 594.58 650.42 594.65 651.53 591.54 652.36 588.89 654.62 588.43 656.72 588.82 659.42 591.19 663.85 590.9 665.72 591.57 669.84 593.29 670.98 591.69 672.26 591.89 675.3 593.52 680 594.98 682.8 594.61 684.31 594.81 689.33 593.62 692.03 594.22 695.54 593.5 698.05 594.35 700.24 596.05 699.94 593.91 703.94 592.24 704.18 592.59 706.41 591.11 706.94 591.63 708.61 590.03 709.26 587.17 712.92 583.9 714.99 582.12 715.39 580.05 714.78 577.44 712.8 575.43 712.42 575.5 709.11 573.03 708.15 572.85 706.38 571.22 705.62 568.04 707.44 569.29 711.04 569.07 713.07 566.04 714.53 565.3 715.43 563.18 715.72 561.04 713.72 559.44 715.34 560.7 716.65 561.8 721.96 564.11 724.5 567.12 725.22 566.7 722.68 571.35 720.46 572.31 719.21 573.75 715.75 574.8 715.95 571.42 722.92 571.9 725.21 573.6 725.01 573.19 727.16 576.07 728.48 578.61 728.34 579.96 730.11 582.15 730.52 579.93 732.52 578.66 731.58 576.66 732.35 577.57 736.94 575.64 739 574.56 737.79 573 738.81 569.01 739.3 568.53 741.18 570.01 742.56 569.6 743.83 567.37 747.37 566.16 748.1 563.8 746.85 561.95 744.31 557.75 745.52 556.86 743.11 554.86 743.35 555.46 747.13 554.46 750.32 555.21 751.53 557.54 750.18 557.07 752.41 558.39 754.89 557.48 757.02 560.93 760.89 563.14 760.12 563.78 762.07 566.38 761.75 567.49 763.53 566.47 764.35 565.2 763.44 563.92 766.14 563.36 770.01 563.4 773.44 562.36 774.64 562.72 777.5 565.44 777.85 565.68 779.65 562.6 782.7 560.61 782.56 557.4 783.58 554.7 787.62 552.34 788.95 550.89 788.29 549.82 789.13 546.68 787.74 545.54 788.84 545.41 791.06 546.89 791.65 546.47 794.32 546.91 798.3 544.01 799.09 542.3 800.93 545.83 802.15 546.39 803.14 544.39 805.2 546.02 807.93 546.44 812.74 544.45 813.38 543.17 815.03 544.43 818.38 544.28 821.3 543.02 822.19 540.75 825.01 541.99 827.01 540.62 829.17 538.09 830.5 537.22 832.72 536.2 832.05 533.68 832.86 531.65 831.75 529.87 832.25 527.53 835.3 525.99 841.24 526.2 841.91 523.93 851.87 522.17 854.75 518.63 858.4 518.28 856.51 521.68 852.86 522.73 845.35 523.67 845.56 525.65 837.37 524.37 836.22 520.92 835.23 506.87 832.87 504.08 828.22 501.87 829.53 500.69 827.57 505.79 824.48 504.71 815.21 500.38 813.73 492.11 814.13 492.01 818.4 493.76 828.47 497.27 836.28 494.03 839.35 498.05 843.83 497.57 845.6 495.76 847.09 493.76 846.76 491.95 847.23 489.99 849.33 488.98 851.45 486.28 852.95 484.12 855.85 484.45 857.87 484.05 860.58 482.78 862.11 481.03 860.9 477.33 862.59 477.98 863.83 476.32 864.77 476.14 867.45 474.2 867.5 472.09 870.52 472.17 873.67 473.54 873.71 476.94 876.46 475.9 879.98 477.48 884.95 476.72 885.99 478.4 888.31 479.16 890.58 482.14 891.57 482.3 893.39 483.89 894.14 484.43 896.71 485.71 897.98 489.3 898.82 491.14 900.41 491.77 902.05 493.84 901.01 493.04 903.81 495.26 905.81 497.31 905.43 500.35 906.14 500.49 909.19 498.6 910.15 499.24 912.29 501.91 911.33 503.05 914.09 505.59 914.04 506.27 916.19 506.1 918.21 505 920.44 503.35 922.23 505.39 923.3 504.64 925.29 505.12 926.3 508.13 928.28 510.58 926.42 512.26 926.11 512.9 927.17 510.79 931.43 508.69 930.12 506.77 933.53 507.31 935.26 507.3 937.86 505.75 938.24 506.09 941.55 508.14 943.96 506.36 945.09 504.55 949 505.36 951.33 501.64 951.48 499.98 953.09 496.51 953.52 495.86 955.84 494.2 959.56 493.13 959.26 495.51 954.12 494.11 952.76 492.03 952.09 489.03 950.3 487.75 951.16 487.55 952.8 485.92 955.57 486.06 959.64 484.35 959.98 484.73 963.97 487.04 966.24 486.21 970.66 486.69 971.85 488.53 971.19 488.9 973.31 488.21 974.61 485.87 975.71 483.46 975.31 481.65 977.53 482.85 980.3 482.53 981.26 479.59 984.09 479.78 986.52 481.48 987.58 480.97 990.61 481.58 992.06 483.49 991.91 483.8 993.47 482.18 996.92 481.59 997.06 479.94 1000.77 481.62 1002.39 482.86 1000.53 484.02 1001.79 483.18 1003.15 483.47 1004.95 480.7 1006.74 479.83 1009.37 477.84 1009.79 477.15 1007.99 475.27 1009.77 473.51 1010.25 473 1011.78 473.36 1013.67 468.75 1013.52 468.53 1015.34 463.92 1015.52 462.34 1013.57 462.28 1012.25 459.45 1009.89 458.88 1006 456.97 1002.75 455.07 1002.66 454.33 998.57 451.48 998.25 449.64 998.97 448.39 1001.96 444.54 1001.95 443.12 1004.61 441.4 1004.63 441.24 1006.2 439.17 1007.32 439.26 1009.62 440.66 1011.06 440.8 1013.94 439.67 1014.91 441.88 1017.13 441.17 1017.9 437.05 1014.23 436.02 1015.23 434.24 1012.31 433.2 1012.7 431.85 1014.86 435.1 1016.25 434.3 1017.28 437.29 1019.18 439.22 1022.15 436.87 1024 434.72 1023.11 433.88 1024.54 434.2 1026.59 429.36 1028 430.54 1025.46 430.14 1023.25 427.06 1022.57 424.39 1023.04 420.03 1025.58 416.72 1020.93 416.66 1015.26 416.14 1012.89 413.69 1010.22 414.18 1005.72 415.55 1001.34 417.05 999.3 414.67 997.89 412.21 997.4 411.58 996.43 412.94 994.31 413.13 992.44 412.66 984.71 410.87 980.96 410.84 978.66 411.87 974.91 413.36 971.4 414.69 963 412.73 958.02 412.26 955.31 412.36 952.06 410.54 950.83 404.22 948.11 400.87 946.25 396.94 946.06 394.34 945.56 388.54 942.31 381.14 936.7 379.59 938.95 367.01 943.11 363.08 944.81 360.76 947.96 360.21 955.84 360.57 958.93 359.37 963.05 356.73 967.55 352.71 970.33 347.36 975.35 345.95 981.67 343.37 985.66 336.77 991.12 330.67 991.41 323.15 990.47 316.55 987.94 316.95 983.07 319.7 975.37 322.23 969.69 325.16 960.94 322.73 957.71 320.16 952.27 316.48 950.23 302.22 949.17 299.35 948.84 290.86 940.99 286.25 936.48 283.03 935.85 280.31 934.83 270.3 928.59 265.82 930.81 260.35 934.97 240.67 924.31 238.24 915.71 233.46 911.64 223.6 909.12 220.86 908.93 218.88 891.06 221.45 881.7 227.73 877.44 239.48 865.17 239.29 860.28 241.17 852.17 241.38 846.47 240.27 842.52 245.24 834.08 248.29 827.08 253.28 818.33 254.68 813.69 254.95 802.27 253.89 800.44 251.46 800 248.06 793.13 245.62 792.43 234.27 784.46 232.83 779.98 230.69 778.16 227.72 777.22 224.51 772.94 222.61 771.57 221.66 769.78 220.35 762.91 217.02 763.35 209.57 766.27 209.23 765.42 206.2 763.54 198.57 763.4 197.11 758.57 198.86 751.91 197.38 750.42 197.58 748.2 198.7 746.26 202.51 742.06 204.1 729.93 201.65 721.78 200.25 720.62 196.69 720.48 194.59 719.09 189.06 718.58 186.6 716.83 181.66 716.92 176.98 716.04 169.99 713.59 170.49 707.17 167.82 703.85 163.21 697.05 153.09 689.76 151.29 688.7 143.72 687.35 134.75 680.51 133.88 678.49 130.42 675.81 127.01 673.62 127.97 669.59 127.36 666.84 128.01 665.2 126.53 660.98 129.2 657.36 131.86 647.19 131.67 644.75 130.33 642.74 124.46 642.72 110.99 649.29 106.24 642.7 102.51 642.55 98.11 643.12 92.59 644.23 90.68 644.15 77.09 637.74 74.28 637.39 58.16 638.96 58.14 637.89 62.41 637.41 61.16 633.03 56.97 629.14 56.01 622.21 55.86 616.87 57.6 615.91 54.38 611.02 55.3 608.43 56.56 599.52 58.23 597.78 58.97 594.13 63.55 587.24 70 578.74 71.29 574.56 71.05 564.45 74.67 554.95 69.48 547.98 67.09 541.36 72.55 533.96 75.79 523.19 78.8 515.79 81.26 508.37 82.3 501.06 92.04 491.24 98.09 488.09 93.29 480.34 88.49 461.18 87.13 458.93 86.83 456.69 83.84 456.75 80.08 456.18 78.24 454.73 76.69 451.78 74.62 450.24 66.07 448.01 63.54 448.44 61.01 447.45 59.6 445.89 58.42 440.71 52.77 438.42 50.15 439.26 45.46 439.86 42.41 438.87 40.89 437.01 39.26 437.18 34.97 440.46 33.4 440.49 31.79 438.91 26.04 434.92 24.4 432.65 20.66 432.28 18.76 431.72 15.26 431.49 11.51 429.37 1 427.27 2.87 422.77 4.39 420.46 9 416.57 12.5 410.65 13.69 405.18 15.37 399.96 16.03 399.41 16.01 394.1 15.52 387.72 14.48 384.93 13.48 377.27 13.88 368.6 13.71 366.82 14.33 363.72 16.86 358.56 18.35 354.79 20.06 349.36 20.98 348.41 26.2 345.62 29.88 344.61 34.18 340.59 36.96 338.93 40 334.72 42.16 328.78 43.54 324.2 44.39 317.66 46.22 312.93 48.03 309.81 49.21 306.53 51.41 304.92 53.42 302.38 61.27 297.58 64.57 294.97 66.27 292.92 68.19 288.42 68.53 282.92 66.46 273.36 65.52 271.19 63.78 269.04 61.14 266.81 60.07 264.69 60.25 260.05 60.84 258.69 63.67 255.06 66.58 252.86 68.41 250.5 69.16 248.17 68.83 242.81 70.49 238.72 71.72 237.53 74.96 236.66 75.8 233.97 77.5 231.79 76.66 230.29 72.83 226.3 72.1 223.5 73.05 221.7 77.69 216.87 79.19 213.89 80.45 210.03 83.76 205.58 86.35 203.57 91.37 201.99 95.71 200.2 97.8 199.81 99.48 194.41 101.68 192.9 101.16 191.25 101.65 189.06 101.25 187.19 101.89 185.61 101.1 184.07 98.02 181.94 96.16 178.36 96.78 175.62 96.44 172.42 95.75 171.13 95.65 168.72 93.28 166.45 91.89 165.85 88.14 161.51 87.14 158.8 84.98 155.72 82.46 154.79 80.15 153.1 77.92 153.28 72.08 145.13 69.86 139.33 68.38 138.73 66.18 136.28 63.17 135.09 59.29 135.66 54.78 135.52 50.35 132.98 47.47 129.78 45.7 125.88 45.6 123.61 44.18 121.67 43.28 119.16 33 114.49 33.82 111.03 33.21 107.25 39.51 111.76 45.66 115.26 52.39 114.49 55.48 112.78 60.8 113.16 71.47 112.9 73.66 115.05 78.06 116.25 81.22 117.8 85.72 121.32 90.43 122.34 95.84 122.95 102.4 122.5 107.29 121.47 110.04 120.43 112.24 120.92 115.8 120.04 116.55 122.13 116.12 125.13 117.11 125.11 117.05 122.21 116.39 120.88 117.76 119.83 119.9 121.79 123.28 123.51 128.18 124.97 131.75 124.9 135.41 126.79 139.26 127.47 142.8 127.54 144.23 125.54 146.13 128.81 148.63 130.99 152.22 129.76 154.38 128.37 157.82 128.26 162.54 129.68 168.08 132.16 169.38 132.13 175.98 136.29 177.08 137.7 185.55 140.87 188.71 142.73 200.28 147.05 208.45 151.17 208.28 154.08 209.89 156.5 215.63 163.89 219.38 166.04 222.64 168.43 227.93 169.09 229.69 170.12 237.88 177.24 239.46 178.28 244.51 178.31 246.47 177.91 250.32 180.51 252.91 180.77 253.54 183.17 260.03 185.99 263.02 188.07 265.43 187.89 270.33 189.49 278.6 187.44 281.3 184.17 286.29 181.13 288.62 177.37 292.16 177.57 297.04 176.22 295.36 170.31 297.84 166.91 302.57 162.26 303.74 158.49 308.46 153.12 315.66 149.32 317.59 147.18 321.72 146.29 326.29 146.82 329.04 143.51 332.51 142.99 339.18 139.19 340.4 135.51 340.62 128.76 350.06 120.62 352.86 117.53 360.49 112.69 359.39 109.36 360.14 108.58 358.59 102.99 357.21 103.02 358.9 96.24 356.15 88.44 358.66 79.99 358.09 76.16 360.62 70.71 361.14 65.69 357.81 60.13 352.76 57.6 350.74 52.69 346.23 46.21 341.96 44.91 337.8 35.93 341.14 30.95 340.7 29.13 346.17 23.39 348.87 19.77 351.65 13.95 354.8 10.4 360.46 1 367.91 7.06 373.68 9.62 377.09 12.77 378.19 14.22 381.11 19.47 382.89 21 384.19 23.74 390.15 26.66 393.64 29.13 395.99 32.84 397.88 33.38 410.85 40.8 421.66 42.94 423.79 42.32 431.04 47.44 439.34 49.2 447.17 47.34 452.83 44.59 460.18 43.77 464.64 41.36 472.84 40.21 477.37 40.84 482.57 39.57 486.41 37.3 492.71 37.58 495.56 39.08 499.24 39.99 507.61 41.21 510.28 33.87 511.49 27.6 513.8 24.69 520.6 22.77 526.72 20.72 529.68 16.87 532.13 20.88 533.96 25.27 541.93 23.68 545.56 22.44 548.08 23.19 550.25 24.45 553.62 27.82 555.27 27.56 561.62 25.64 565.81 22.97 569.39 18.79 569.9 17.66 569.57 12.13 567.33 7.67 568.65 4.6 577.86 7.01 585.34 12.53 585.99 13.63 589.93 16.18 592.99 17.19 596.7 19.49 598.76 19.98 600.76 19.54 604.48 17.77 605.51 17.7 613.75 14.63 615.99 14.81 618.21 12.08 620.35 11.95 625.45 5.69 629.05 4.32 629.33 7.44 630.32 9.96 630.16 13.09 631 14.86 631.87 20.47 633.99 23.33 635.49 27.05 639.43 33.81 640.15 36.29 639.8 38.98 646.81 41.25 648.9 45.05 653.01 49.52 657.86 52.86 662.11 62.2 664.13 64.75 669.38 68.26 669.71 69.14 676.67 77.58 678.81 81.37 679.89 88.45 683.26 98.21 685.1 100.81 687.86 107.05 693.94 109.65 702.96 111.61 703.43 114.9 702.33 117.79 698.66 117.59 698.95 123.08 698.51 127.78 695.94 133.41 694.82 141.87 694.97 149.51 694.1 152.27 693.41 156.06 695.98 159.45 698.2 161.28 700.14 164.18 702.88 167.08 704.82 168.38 707.83 171.31 709.33 174.94 708.77 175.89 710.7 180.81 711.95 182.84 709.67 184.8 708.12 189.79 705.78 193.54 706.57 194.82 707.85 198.73 708.17 201.45 707.75 202.44 708.22 205.96 706.54 209.2 703.01 210.84 701.25 216.95 696.17 221.87 695.68 221.88 694.07 226.47 691.64 229.69 694.62 231.33 696.16 232.68 700.14 234.88 702.32 234.66 703.78 235.88 708.99 237.16 715.6 239.79 718.32 239.16 722.9 236.29 727.92 234.41 729.99 233.25 732.93 239.17 737.58 241.71 738.01 245.28 741.79 251.1 743.49 246.73 750.79 245.33 751.73 247.68 754.25 248.92 756.35 251.07 758.57 252.41 765.81 252.66 768.28 253.28 771.04 253.01 774.56 254.54 776.08 254.19 780.51 250.49 782.08 250.59 785.74 253.2 788.5 254.66 789.73 255.93 786.18 259.49 784.77 262.51 783.95 265.92 786.22 272.44 790.48 277.35 792.29 282.9 795.12 284.2 Z" fill-rule="evenodd" id="21510000"/>
</g>
</svg>