<?xml version="1.0"?>
<svg xmlns="http://www.w3.org/2000/svg" version="1.2" baseProfile="tiny" width="800" height="879" viewBox="0 0 800 879" stroke-linecap="round" stroke-linejoin="round">
<g id="sigung">
<path d="M 666.75 868.22 658.48 871.58 646.05 876.08 637.84 877.56 637.65 876.54 630.52 878 624.61 877.35 605.61 870.54 600.69 869.26 597.52 869.34 584.52 866.5 578.61 865.67 577.69 869.37 568.11 867.18 568.04 862.77 566.52 861.6 558.79 860.07 532.69 853.84 526.74 852.71 526.7 850.93 513.55 847.99 498.89 845.11 479.64 840.67 474.65 839.34 480.95 812 485.47 793.22 470.16 785.29 448.13 774.66 426.75 770.97 399.79 766.18 373.92 761.89 358.83 759.52 357.96 758.54 353.46 757.73 351.38 758.2 320.06 753.09 316.39 751.8 311.96 748.12 296.34 727.78 296.37 726.15 299.81 725.53 299.37 723.34 305.39 716.56 297.34 704.65 296.62 703.04 262.49 720.73 246.29 724.55 228.2 732.63 215.23 748.29 214.25 750.59 213.49 757.45 212.48 761.13 209.59 766.31 207.05 773.16 199.54 787.4 194.81 789.29 190.42 792.44 185.58 793.67 180.33 794.14 170.84 793.79 160.26 793.02 154.02 791.9 148.35 786.63 141.17 776.77 138 773.86 125.36 767.7 118.58 763.54 110.73 758.14 98.81 752.83 90.37 748.08 83.68 746.98 78.1 745.24 67.55 743.07 55.6 737.45 47.84 736.69 31.75 737.42 27.78 737.13 20.98 738.03 16.06 740.41 13.38 743.17 9.33 749.98 5.06 753.29 2.9 752.04 1.82 749.85 1.46 737.11 2.77 734.52 6.3 723.13 6.13 719.9 8.02 715.9 8.65 711.7 6.04 705.22 1 701.61 1.3 696.05 2.15 691.42 8.99 683.13 8.3 676.7 6.56 669.75 3.77 666.39 3.39 664.59 7.22 661.16 8.93 654.84 12.64 649.87 14.62 643.49 14.22 639.13 17.2 636.22 18.95 632.45 22.02 627.88 26.69 625.12 31.03 617.41 33.82 609.36 37.26 609.15 40.41 606.09 44.79 605.58 47.56 603.55 50.06 600.15 54.5 596.83 58.36 596.6 62.09 600.07 64.29 600.7 68.55 597.25 70.55 597.07 76.01 594.01 77.43 588.33 83.64 581.4 88.05 578.01 90.49 572.21 95 566 102.24 561.96 106.11 558.86 109.39 557.17 110.2 555.2 114.45 549.39 114.38 539.46 113.6 536.38 114.94 533.74 118.88 530.23 122.62 527.78 124.62 520.48 129.15 514.97 130.3 507.96 136.05 509.31 139.23 508.43 141.86 505.52 148.02 501.91 153.1 502.45 154.68 495.57 154.19 490.24 156.32 486.4 156.19 481.32 156.93 478.12 156.64 474.08 157.37 469.27 160.03 460.42 163.88 452.56 168.71 445.11 171.83 441.75 174.27 440.78 176.47 437.12 177.42 433.93 177.83 422.09 178.62 415.87 182.49 411.58 181.7 406.4 182.33 398.85 186.38 391.92 187.76 388.13 186.7 387.32 183.98 378.53 184.58 370.76 183.79 368.15 184.17 361.58 181 357.93 181.57 351.78 179.74 349.5 179.5 341.44 174.85 333.37 178.91 329 175.66 316.04 177.31 311.76 176.2 305.21 172.19 302.6 169.18 294.85 170.91 287.26 171.72 277.12 173 270.61 178.13 255.51 180.58 245.58 182.37 234.32 173.74 215.28 169.58 212.43 163.95 212.27 157.48 210.31 154.98 207.01 150.63 183.7 148.78 180.66 147.76 176.76 146.07 154.75 136.61 134.17 139.17 120.72 136 116.96 131.89 105.99 129.32 103.88 130.8 100.76 143.48 90.18 143.39 86.05 139.07 76.33 139.37 66.01 157.38 64.09 172.49 71.52 176.15 74.03 187.98 72.23 195.5 87.04 199.7 90.57 207.51 94.02 215.24 93.86 218.95 98.43 230.4 103.87 234.6 107.4 236.2 109.94 235.33 117.7 235.89 119.75 248.73 142.19 252.54 151.92 252.09 155.54 253.79 162.73 253.46 172.02 255.63 177.14 262.47 183.7 267.77 190.82 271.54 198.48 272.66 202.59 280.37 201.4 282.5 204.45 286.12 206.17 287.41 208.18 289.79 207.91 295.36 213.23 297.78 214.17 298.65 212.08 302.22 194.36 304.71 187.74 307.57 182.25 311.3 177.57 314.87 166.53 314.97 162.82 312.98 155.13 314.15 149.77 314.65 144.59 317.45 144.68 315.26 134.63 315.46 129.47 319.77 125.62 328.78 121.48 335.62 121.43 340 120.32 340.42 119.03 348.47 122.85 359.81 118.81 367.44 119.41 373.4 113.2 373.21 104.06 394.27 91.44 417.57 77.26 426.78 80.87 453.32 75.76 470.13 78.46 476.94 76.8 483.1 79.72 482.58 84.14 494.22 78.74 508.21 67.47 512.15 70.62 525.67 68.4 530.06 61.85 543.5 55.75 542.46 36.38 550.14 32.99 562.29 26.93 576.42 22.76 589.92 19.25 608.22 14.9 608.06 8.77 607.21 1 617.24 2.55 625.33 6.26 635.99 13.58 640.01 15.81 642.11 18.4 645.31 19.5 648.12 21.99 651.9 26.61 661.75 34.72 667.55 40.64 671.2 46.69 671.32 48.98 673.42 54.1 676.32 56.72 677.64 61.59 679.98 63.35 679.31 65.33 680.92 74.4 687.04 77.26 688.56 78.72 696.48 80.66 705.72 86.57 707.85 90.54 707.12 94.47 707.85 96.49 711.08 99.48 712.08 105.24 703.1 121.1 702.62 132.12 706.55 136.64 715.82 143.29 718.92 148.8 723.28 159.35 726.08 161.01 727.76 164.08 732.29 167.09 734.28 170.79 731.4 179.7 727.61 186.71 729.81 191.88 730.14 196.3 738.5 201.78 741.62 203.38 746.74 207.39 749.81 215.42 754.18 224.43 756.69 226.94 756.07 239.07 748.84 244.79 745.26 250.4 742.11 254.04 743.77 260.83 744.35 265.27 738.26 269.96 737.14 272.23 739.07 280.87 739.01 287.7 736.27 293.02 735.81 301.86 738.13 311.44 737.57 312.28 737.1 319.18 738.23 320.18 744.42 318.54 748.2 319.14 752.92 321.26 757.61 325.12 757.26 330.72 758.22 334.26 757.53 335.81 757.12 348.6 757.97 351 759.28 358.78 758.15 363.3 758.5 370.14 754.99 374.09 748.5 379.5 749.54 382.21 749.77 389.16 751.49 391.13 752.24 395.69 750.18 400.78 754.62 406.3 758.95 413.28 761.85 421.34 766.18 425.96 769.76 428.51 771.73 434.82 771.92 440.79 769.06 445.54 775.92 445.97 774.89 448.83 780.07 451.82 782.9 454.34 789.29 461.93 792.66 470.28 793.17 473.87 793.51 490.4 794.14 495.17 795.09 507.92 796.72 514.52 798.49 540.54 799 551.39 798.62 565.76 797.42 577.97 796.24 582.09 792.22 586.22 787.96 596.58 785.13 600.82 775.94 611.68 772.05 617.03 769.5 622.8 765.63 635.76 765.09 641.79 768.48 648.99 771.45 665.26 769.19 666.83 773.52 674.27 776.36 681.8 778.45 694.5 788.86 708.93 793.61 716.76 796.49 719.4 795.99 726.47 795.05 727.09 791.17 734.72 786.99 736.75 786.52 739.95 776.36 750.6 773.29 754.97 765.74 748.26 759.4 744.73 742.88 736.18 736.71 732.72 718.46 747.83 707.37 757.23 701.74 765.98 698.83 771.65 696.77 777.24 694.57 787.35 689.24 790.05 684.56 794.91 678.74 805.69 673.71 814.39 672.65 819.46 672.91 823.28 669.53 826.02 662.2 837.05 658.14 840.1 643.85 848.51 642.78 853.45 648.86 855.75 652.58 861.88 654.44 859.42 658.77 863.01 666.75 868.22 Z" id="22050000"/>
</g>
</svg>