<?xml version="1.0"?>
<svg xmlns="http://www.w3.org/2000/svg" version="1.2" baseProfile="tiny" width="800" height="642" viewBox="0 0 800 642" stroke-linecap="round" stroke-linejoin="round">
<g id="sigung">
<path d="M 789.46 144.66 784.68 143.2 780.83 142.95 778.72 144.38 775.05 143.82 773.09 145.72 772.2 149.08 767.51 150.72 772.26 157.22 772.86 161.57 781.33 166.02 783.76 169.24 788.93 173.16 788.44 175.17 786.32 177.01 785.9 179.03 788.72 180.91 790.39 187.96 790.66 191.37 790.23 199.43 792.66 206.43 798.35 221.04 799 226.21 797.17 233.99 798.06 238.3 797.87 241.31 794.81 244.93 795.85 254.95 791 261.83 787.7 268.45 784.36 270.58 783.9 276.02 782.88 277.9 783.76 283.3 783.71 283.5 782.96 284.4 782.95 284.47 783.95 287.41 786.04 290.6 789.82 299.09 788.95 302.84 787.55 302.83 783.88 305.64 775.81 308.52 772.66 311.53 769.31 312.8 765.66 305.99 761.56 303.18 757.72 302.95 749.23 307.48 747.79 310.36 746.35 317.1 741.26 317.02 741.19 318.71 736.13 322.74 732.73 324.35 728.7 327.71 724.81 334.61 716.39 342.63 712.43 348.04 710.29 348.91 708.29 351.27 703.03 359.45 702.68 363.6 699.76 363.98 692.98 373.17 693.67 375.75 693.74 390.23 692.99 396.43 693.63 400.01 695.85 405.68 696.15 409.29 699.35 412.89 702.38 414.3 712.54 423.7 714.63 425.09 725.23 438.55 726.53 443.31 727.02 454.58 731.1 459.46 731.02 463.22 730.14 467.15 731.56 473.73 733.86 478.23 735.16 483.4 736.85 485.72 736.68 492.42 737.85 497.73 742.3 502.17 747.24 504.32 748.33 506.73 748.12 515.84 744.17 517.3 739.66 527.28 733.1 528.72 729.48 531.29 721.84 529.42 713.55 531.47 704.84 535.45 696.18 544.64 691.01 548.26 691.61 555.09 691.82 563.75 690.94 565.22 687.47 567.49 680.91 567.23 668.2 572 660.92 577.3 658.84 579.63 655.37 585.04 649.28 589.53 648 591.9 647.56 600.57 644.66 603.44 633.89 606.82 630.89 608.76 625.3 607.22 619.36 602.07 615.82 597.1 613.36 591.38 605.91 591.45 603.13 590.26 602.11 593.05 597.92 597.24 593.9 599.68 593 601.98 591.93 610.58 589.37 616.26 585.44 621.15 575.18 624.57 570.74 624.76 562.84 630.11 558.55 634.58 549.41 637.72 542.71 641 539.97 640.16 535.79 636.15 533.08 632.06 533.21 627.49 530.11 626.89 526.18 623.54 525.11 620.47 519.56 620.25 516.92 621.27 513.28 621.13 511.76 619.23 501.66 609.88 497.05 605.14 494.2 606.35 493.69 608.59 489.44 607.26 487.01 607.7 484.26 604.61 478.76 605.12 471.6 606.57 468.33 604.24 463.22 605.3 461.54 603.76 462.7 599.18 458.66 593.53 451.3 591.37 447.47 589.81 436.68 588.83 434.98 586.33 427.21 584.73 423.3 582.91 411.7 582.11 408.58 582.92 403.11 586.28 400.84 583.39 394.03 585.13 390.23 584.1 385.51 579.91 376.31 577.29 369.64 577.52 363.78 573.53 360.05 567.82 356.2 551.77 345.82 551.14 343.62 548.64 342.1 549.56 338.27 549.83 331.57 553.81 328.58 554.78 317.25 556.8 310.22 555.63 305.38 557.76 294.76 556.75 290.95 552.75 283.54 551.17 275.62 548.03 269.65 550.4 264.81 553.04 261.31 549.96 256.7 547.14 249.5 547.67 239.68 549.21 231.25 553.55 225.25 555.47 222.99 554.01 216.88 547.12 214.9 544.37 210.43 539.71 204.8 536.86 188.66 532.46 189.64 535.18 187.35 535.74 182.04 535.2 173.38 531.82 169.88 532.97 171.09 534.71 161.84 546.29 152.5 555.75 150.3 550.71 149.24 549.73 139.4 547.07 132.87 544.15 128.24 544.41 126.26 543.52 118.59 543.06 115.04 544.32 110.66 542.64 107.03 542.8 97.73 540.1 84.66 537.87 82.67 537.8 79.72 535.5 66.05 531.32 55.54 533.1 53.74 533.03 45.96 535.72 42.56 536.12 37.37 534.06 34.72 528.7 26.96 525.27 21.19 524.06 15.93 520.29 13.98 517.76 6.2 512.59 1 510.75 3.56 507.99 4.94 508.09 3.63 502.77 5.69 496.15 12.56 489.27 17.22 482.68 30.21 476.82 40.02 473.51 42.62 468.91 49.81 469.78 54.71 463.09 61.29 441.97 71.16 421.93 74.84 413.11 74.28 412.34 74.92 405.23 78.06 399.92 76.78 393.22 78.72 381.89 81.45 382.18 81.86 379.28 85.01 379.56 85.95 376.19 89.84 379.18 94.69 379.42 94.12 377.14 94.46 368.86 89.71 356.5 85.68 343.32 85.1 340.37 85.05 333.03 82.23 319.52 83.75 312.04 85.65 298.97 86.05 292.13 89.32 291.98 90.89 288.98 91.62 285.45 92.4 274.9 92.12 267.15 95.11 251.04 92.97 238.76 93.78 228.53 95.55 219.8 95.69 214.14 96.6 204.81 98.5 195.16 98.46 186.43 97.57 181.7 95.24 177.03 94.07 171.78 93.03 158.71 92.94 152.4 94.14 141.37 96.65 134.16 100.79 134.97 100.48 129.45 102.42 124.66 104.29 121.7 107.58 118.96 112.58 116.3 120.12 111.5 121.32 109.9 124.9 102.36 128.91 92.79 127.94 85.65 128.48 83.42 131.28 80.14 161.26 83.15 220.83 89.46 226.36 81.86 244.19 56.33 246.22 52.73 248.79 51.11 274.71 41.62 307.84 16.69 310.38 16.82 337.47 3.88 336.58 2 339.7 1 344.62 1.24 351.39 4.06 368.1 16.87 373.62 18.43 377.5 18.67 392.98 14.25 397.59 16.65 403.74 27.98 412.47 34.36 422.2 39.07 428.43 40.96 442.78 43.67 450.87 42.29 470.03 39.88 475.41 37.3 476.61 32.87 483.55 32.7 487.37 33.87 492.5 36.4 503.17 52.23 506.98 59.8 507.79 62.7 513.06 74.57 517.67 84.12 517.54 88.78 520.89 102.31 520.87 105.61 518.65 112.96 519.03 117.22 523.66 123.81 530.8 129.93 534.75 126.67 545.84 135.12 551.01 138.43 554.94 139.73 560.89 139.01 570.51 135.56 577.29 138.19 582.45 139.44 589.72 140.36 624.76 140.32 627.62 143.78 629.96 145.5 635.34 147.09 642.84 146.18 650.83 146.87 656 148.52 659.27 148.19 670.41 144.22 675 143.31 682.24 142.77 688.4 134.75 696.49 129.76 698.8 127.64 705.19 123.64 723.99 123.52 726.83 122.95 729.16 119.89 736.07 122.91 747.51 125.37 759.24 125.6 772.2 128.06 780.38 128.7 783.51 136.74 791.27 143.07 789.46 144.66 Z" id="22060000"/>
</g>
</svg>