<?xml version="1.0"?>
<svg xmlns="http://www.w3.org/2000/svg" version="1.2" baseProfile="tiny" width="800" height="965" viewBox="0 0 800 965" stroke-linecap="round" stroke-linejoin="round">
<g id="sigung">
<path d="M 546.11 382.88 550.12 382.06 552.16 380.6 554.59 378.17 556.63 378.89 559.69 380.92 560.45 381.91 562.52 383.39 564.78 383.87 567.82 385.21 568.86 387.31 570.9 388.12 572.23 387.97 575.28 386.91 575.99 386.94 580.12 386.24 585.48 387.88 586.63 388.78 587.41 388.81 592.54 389.68 596.19 390.75 597.62 390.68 599.33 391.34 600.73 390.85 603.73 391.03 604.51 391.38 606.33 391.27 608.89 392.42 612.75 393.46 613.17 393.85 614.03 395.82 617.69 392.11 621.32 387.57 620.85 386.89 622.22 386.44 625.62 387.76 627.7 387.98 628.6 387.76 628.22 386.69 634.55 388.42 636.76 389.53 638.51 391.36 639.29 392.44 641.69 395.14 642.57 395.71 644.93 394.96 648.23 393.26 652.08 392.66 654.91 392.45 656.72 393.55 658.09 394.76 659.99 393.73 662.33 392.8 665.44 394.03 668.35 394.65 669.84 396.22 674.01 396.61 675.9 395.78 678.66 396.24 683.11 395.44 684.28 395.06 686.91 393.5 688.41 393.4 689.01 393.04 689.87 394.02 693.94 394.26 695.45 400.56 696.92 402.8 699.22 404.36 701.83 404.27 705.44 405.3 707.29 406.94 708.79 407.35 711.46 406.67 712.35 407.8 714.49 406.48 715.72 406.17 720.27 406.48 721.8 407.19 724.85 407.82 725.52 408.8 729.75 409.18 731.25 409.8 734.14 410.64 735.73 412.86 735.27 414.66 735.93 415.26 737.93 414.85 739.21 415.76 742.02 415.19 744.18 414.99 745.26 416.2 746.22 416.03 747.88 416.55 748.08 415.67 749.2 415.2 751.01 417.06 754.97 420.72 755.57 421.47 756.99 421.53 758.03 421.13 760.21 421.21 760.63 422.42 762.17 423.73 763.39 423.96 763.34 425.76 764.4 427.36 766.04 428.93 767.11 429.26 766.73 430.09 766.96 433.92 766.87 435.39 766.06 438.02 765.29 438.95 764.77 441.49 764.79 443.89 765.23 446.91 765.96 449.45 766.6 450.83 769.16 454.21 768.66 455.32 771 459.36 771.74 459.9 772.32 461.38 773.34 463.12 774.67 463.64 775.88 463.63 776.94 465.39 777.44 468.22 778.45 470.85 778.41 474.51 778.79 475.62 778.33 478.38 777.58 479.72 776.39 483.09 776.62 484.74 776.53 487.29 777.11 488.71 777.11 490.22 778.27 491.55 778.92 491.75 782.42 492.13 784.27 494.64 784.21 496.43 785.89 499.06 787.5 500.43 788.86 502.67 789.17 503.64 789.32 507.09 788.31 511.4 788.73 514.28 790.48 516.34 792.06 516.94 793.52 518.02 795.89 520.1 797.82 522.55 798.32 523.69 799 526.9 797.31 528.8 796.42 532.87 796.38 538.06 796.04 543.59 795.01 546.31 793.03 547.64 792.36 552.82 793.1 556.35 794.64 559.61 795.34 561.48 791.8 565.44 789.99 568.14 785.34 571.54 784.99 572.74 784.96 577.48 787.81 580.58 788.33 581.68 790.43 582.97 791.78 585.39 790.74 588.05 792 591.21 789.71 598.03 787.87 600.14 785.88 601.4 782.43 604.86 780.07 606.35 777.42 607.68 773.07 612.5 771.75 613.5 771.73 615.92 772.1 617.04 772.16 620.21 772.85 622.94 772.84 624.3 772.19 625.27 769.11 625.77 767.15 625.6 765.16 625.69 763.72 626.9 760.66 626.69 759.79 626.46 753.25 626.28 749.21 626.95 745.55 628.37 743.68 633.06 743.08 633.16 736.4 631.89 732.88 632.18 731.16 633.13 726.36 628.77 723.52 631.84 720.58 630.16 718.74 632 712.45 635.99 710.39 636.58 709.51 638.98 708.18 640.83 707.01 644.04 703.24 648.07 701.84 647.72 696.76 651.54 695.3 653.45 693.12 654.61 691.18 655.02 688.96 655.12 687.81 661.1 686.57 662.52 686.66 664.64 684.62 665.3 680.39 668.1 677.53 668.15 675.57 668.39 673.65 669.7 672.92 670.5 671.13 670.85 668.24 671.75 667.25 671.5 665.6 671.81 664.67 670.87 660.75 670.35 659.83 670.03 657.48 670.29 655.44 669.9 653.43 669.88 651.15 669.17 650.16 669.53 648.57 671.71 646.09 673.35 645.07 673.43 643.01 674.23 641.39 675.26 639.02 677.83 636.34 679.23 635.23 682.27 633.09 681.91 625.38 680.86 625.33 676.12 619.82 671.88 619.65 669.94 618.94 668 616.65 666.89 615.25 665.45 614.87 664.06 613.83 663.28 612.52 661.86 611.41 661.13 611.22 660.23 611.3 654.48 611.66 653.47 611.14 651.15 611.29 648.76 612.04 647.63 615.12 644.75 616.09 643.19 617.51 642.36 617.99 641.1 618.05 638.76 617.02 637.17 616.19 633.26 615.37 631.58 613.97 629.6 611.9 627.23 611.16 626.09 607.89 625.03 605.93 622.49 603.31 619.94 602.38 618.71 601.44 618.36 601.37 617.08 601.77 614.54 604.4 611.26 605.14 609.89 606.36 608.97 608.43 606.65 610.22 605.97 611.95 604.65 612.81 602.64 612.47 600.86 609.95 596.64 611.51 593.05 610.75 592.35 610.08 583.92 606.62 579.33 599.06 578.32 595.11 578.15 591.97 580.81 591.51 580.84 589.65 582.37 585.86 583.13 584.5 583.86 584.03 584.82 580.12 585.18 578.84 585.9 577.79 586.02 576.34 585.23 575.11 585.6 574.32 585.04 572.71 584.8 570.26 585.17 567.56 583.7 564.36 584.14 563.43 586.1 564.13 588.51 562.06 592.23 562 593.25 560.84 594.14 559.72 596.83 557.83 598.01 556.43 598.44 553.81 600.22 552.73 599.52 551.96 597.94 550.61 596.9 549.8 595.86 545.94 593.85 543.31 591.7 542.79 589.96 542.31 589.66 541.36 587.54 540.5 586.48 539.37 585.97 538.68 583.62 536.78 580.99 535.73 581.03 533.58 580.66 532.35 580.11 529.57 583.04 528.02 583.64 525.66 583.34 523 585.58 521.15 586.31 518.76 586.55 518.15 588.05 516.87 589.25 516.09 589.25 514.87 589.96 514.12 590.88 512.09 592.13 510.02 592.28 508.1 591.2 503.4 589.38 502.54 587.74 500.88 586.69 500.15 585.54 499.34 585.88 495.79 586.14 495.34 587.15 493.68 587.94 493 588.71 491.85 594.5 491.08 599.11 489.1 600.42 488.77 601 488.53 603.76 487.32 606.4 486.27 607.07 484.33 608.76 481.92 609.04 480.53 609.54 479.07 610.95 478.06 612.28 476.68 612.82 475.35 611.93 474.66 611.94 468.73 615.4 467.7 615.61 467.33 616.31 465.37 618.25 465.15 618.87 462.97 620.65 461.65 621.37 460.6 621.56 458.46 623.2 456.95 624.71 456.35 624.75 454.19 626.89 452.97 627.11 452.02 628.81 451.59 631.56 450.14 633.16 448.45 636.36 443.48 637.79 441.32 637.38 439.89 638.53 436.73 640.31 435.11 640.66 434.14 642.69 433.19 642.89 431.65 644.03 429.73 643.97 425.18 644.6 423.5 645.22 419.26 650.03 417.56 653.03 416.63 653.83 413.7 654.74 411.09 656.05 413.09 659.65 414.52 660.94 416.16 663.16 417.42 665.49 419.29 672.34 422.13 677.75 425.44 682.9 422.6 690.22 423 697.11 421.02 701.93 426.56 706.99 429.05 709.13 427.74 710.07 426.53 714.16 425.86 715.08 425.77 716.47 423.58 719.54 423.45 720.5 420.15 726.95 420.49 733.81 421.46 739.85 417.05 739.45 416.94 740.83 412.45 740.5 409.4 742.02 408.13 742.43 406.69 743.91 404.99 743.82 398.28 747.13 396.85 748.78 394.58 749.3 393.25 750.81 389.89 751.49 385.32 757.93 385.27 758.66 382.24 763.06 379 764.12 375.55 764.49 373.06 765.62 369.82 765.26 368.24 766.35 367.1 767.8 365.47 770.62 365.2 772.28 366.11 774.63 368.91 778.59 369.42 781.47 369.36 787.2 368.88 788.02 369.51 791.7 366.98 796.69 367.35 802.53 366.91 807.91 367.02 811.62 366.71 813.97 365.34 820.48 361.92 821.89 363.53 825.28 365.72 828.35 364.72 829.57 364.74 835.47 368.19 837.97 370.25 840.71 370.85 842.23 371.93 843.63 373.74 845.55 373.73 847.26 374.02 848.05 373.79 849.49 372.29 852.28 372.57 854.29 372.21 855.75 369.85 858.98 369 859.04 368.78 860.01 367.84 861.13 366.37 861.55 365.94 862.02 366.22 863.14 364.6 864.3 363.86 865.72 362.65 866.55 360.65 867.43 359.82 867.3 358.22 868.02 356.84 867.87 355.77 868.18 352.24 867.71 351.56 868.2 349.43 866.99 348.48 867.45 347.14 868.67 346.04 868.07 344.38 867.83 341.52 868.33 340.7 867.8 339.33 867.58 338.8 868.39 338.16 870.54 336.56 871.01 334.12 870.9 333.4 871.2 331.96 873.16 331.06 872.76 328.9 873.87 325.85 874.95 325.05 876.6 323.73 877.26 322.4 876.78 321.17 876.74 318.41 877.69 316.78 878.01 313.56 878.16 311.14 879.16 308.34 879.61 306.05 878.85 304.46 873.53 304.39 871.2 304.05 868.35 303.01 866.18 301.46 864.75 299.2 863.93 296.31 864 293.84 864.93 289.64 869.62 285.57 870.81 282.65 873.97 282.05 874.89 281.18 875.37 278.31 875.4 273.34 874.98 270.86 875.16 268.9 873.89 265.89 871.58 265.27 871.36 262.78 869.72 261.05 868.1 259.87 866.62 258.7 864.17 256.71 864.43 253.31 865.46 251.57 866.66 250.35 867.23 250.34 869.11 249.98 870.5 248.45 871.47 248.05 873.59 247.22 873.61 245.05 873.03 242.85 874.54 240.77 875.15 238.7 874.99 238.03 874.44 236.39 872.12 235.1 872.29 234.87 872.87 233.18 873 233.18 874.18 231.03 872.98 228.5 872.76 226.29 871.22 224.7 871.08 224.01 872.97 223.36 875.75 223.03 876.05 222.98 878.4 223.67 880.16 222.76 881.6 221.11 882.81 220.92 881.75 219.42 879.71 218.65 880.11 217.77 879.86 216.56 880.08 216.31 880.78 214.85 882.24 214.18 882.06 212.3 883.88 212.94 887.19 212.84 888.09 211.44 887.85 211.35 890.28 211 893.61 208.98 894.28 207.27 894.44 204.94 893.22 204.38 893.46 203.13 895.01 201.99 897.54 201.84 898.61 200.67 900.17 197.82 903.14 196.61 905.32 196.18 906.61 194.24 908.81 192.59 912.13 191.57 913.44 191.22 915.07 191.37 916.56 190.32 916.32 190.4 917.53 189.3 919.48 188.23 918.37 187.49 918.14 186.73 918.78 184.56 917.14 183.43 915.39 181.82 914.47 180.14 913.94 180.02 913.03 175.6 909.25 174.45 908.74 172.77 910.23 170.94 909.57 169.9 909.94 167.65 913.04 166.85 915.24 166 916.23 165.14 917.86 163.84 921 163.78 921.94 162.92 922.92 161.56 925.43 160.58 923.67 160.64 921.4 159.74 919.87 158.45 919.81 156.96 919.24 155.2 919.85 153.5 921.99 154.35 922.93 154.29 924.3 153.1 925.22 153.23 926.31 152.82 927.82 150.2 931.12 149.72 932.63 148.38 933.33 147.61 934.59 146.18 934.76 144.38 936.24 142.82 936.17 142.23 936.67 141.72 938.24 141.05 938.86 138.02 939.23 137.53 938.91 135.87 939.39 133.38 940.63 132.66 941.54 130.48 940.52 129.22 939.51 128.66 938.42 129.43 937.42 128.68 937.09 128.7 935.53 127.13 934.16 126.97 933.51 125.43 932.47 124.11 932.79 124.09 935.05 124.4 935.38 123.8 937.24 124.19 938.78 119.14 937.47 115.7 936.87 113.37 938.83 112.92 939.59 110.64 939.77 109.12 940.23 107.57 942.08 106.21 941.03 104.28 942.69 102.67 944.83 102.29 946 99.66 946.82 98.37 946.89 96.62 947.38 94.49 947.27 93.5 948.96 91.98 949.97 89.04 953.71 86.39 953.52 85.47 953.94 82.46 954.04 81.25 954.52 80.2 955.42 79.82 957.64 78.67 960.39 76.97 962.7 76.58 963.7 75.58 964 74.75 963.31 72.34 960.59 71.98 959.61 72.92 957.7 72.84 957.16 71.56 956.54 70.59 956.54 69.39 957.81 67.91 960.21 67.24 963.02 66.04 963.56 64.29 963.12 59.03 960.86 56.39 959.24 54.12 959.06 53.44 957.93 51.3 956.72 50.6 955.85 50.34 954.02 51.71 952.16 53.09 950.29 55.53 947.52 67.13 944.04 78.66 937.52 90.18 931.5 93.1 927.77 99.01 918.24 101.45 916.15 105.91 908.7 110.29 899.22 112.6 896.41 119.58 888.83 121.09 880.2 119.81 870.88 117.36 861.59 116.23 852.26 111.15 843.04 101.76 833.94 97.82 829.98 89.83 824.91 87.16 822.14 77.62 815.89 75.21 812.9 64.42 804.26 56.52 797.76 51.27 793.04 47.13 788.66 39.2 779.52 27.19 767.81 21.51 759.29 17.46 753.05 14.97 749.08 12.02 742.83 8.66 733.57 5.58 724.3 3.11 715.01 1.25 705.7 1 700.07 1.57 686.97 9.69 677.39 12.94 675.28 15.6 673.86 17.86 673.37 24.61 674.61 32.13 676.77 36.43 678.85 48.74 683.22 60.09 688.88 71.9 693.04 84.19 693.58 95.33 694.44 107.08 696.32 126.19 702.56 130.68 703.95 142.5 708.32 149.96 707.67 154.15 706.44 158.57 706.52 165.77 703.91 168.04 702.54 173.22 698.21 174.7 696.39 178.5 691.44 188.55 681.81 190.8 678.97 192.73 675.54 193.22 672.32 194.05 669.23 194.54 665.61 194.53 653.57 193.11 644.25 191.85 634.92 191.31 632.15 190.25 629.14 188.62 625.65 186.92 622.73 178.92 616.56 174.96 613.13 168.25 607.5 162.94 601.56 157.7 598.43 151.04 593.85 143.83 589.46 139.13 586.42 127.28 580.55 115.37 573.07 112 571.62 103.53 567.67 96.29 562.69 91.6 559.14 89.56 556.14 88.34 553.56 83.21 544.34 79.35 539.36 76.27 535.17 73.61 532.13 72.68 530.2 72.61 529.02 73.03 525.9 75.1 521.52 78.72 516.39 82.59 506.91 86.96 497.44 89.76 492.65 92.62 487.93 94.97 485.17 101.05 478.34 103.56 475.23 105.11 472.46 106.71 468.82 107.86 465.71 108.74 462.41 109.11 459.4 111.99 449.96 116 440.49 121.01 430.99 124.62 421.53 127.53 416.08 128.76 413.42 134.4 412.94 134.77 407.97 138.66 402.96 146.4 402.87 146.3 393.52 156.78 393.4 157.99 392.74 157.89 384.04 204.65 383.52 204.76 392.81 204.99 392.88 243.2 392.46 244.52 392.1 247.26 391.82 248.22 392.1 250.03 391.48 252.99 392.64 256.03 392.26 256.9 391.99 257.96 392.3 273.34 392.13 274.68 391.72 277.4 390.47 280.63 388.47 281.31 388.41 278.7 383.31 279.78 382.7 290.42 373.53 298.72 362.94 301.44 364.29 302.8 363.31 304.09 361.98 304.92 359.53 306.08 358.33 310.76 356.84 311.29 356.98 312.47 356.06 313.97 354.4 316.25 352.24 318.26 350.82 318.89 351.62 321.58 352.26 329.03 353.69 333.66 354.81 337.82 355.64 341.62 356.69 345.36 358.38 347.06 359.37 353.92 363.92 356.92 365.84 357.93 369 359.87 370 360.74 370.93 362.03 371.69 363.93 372 368.13 373.96 370.29 375.56 371.22 375.84 373 379.29 369.81 381.02 368.19 382.34 364.84 383.94 362.83 384.55 361.58 385.31 361.87 386.03 361.28 387.95 360.4 390.03 361.61 391.33 364.07 390.93 366.13 390.36 368.57 392.48 369.73 392.42 371.63 391.46 373.65 391.08 375.83 390.94 375.2 393.34 374.77 396.01 375.31 397.01 376.76 397.07 378.02 396.74 378.17 398.49 378.17 402.39 379.64 404.94 381.04 409.1 382.82 411.83 385.8 415.11 390.33 418.69 391.12 418.38 394.45 421.35 395.73 424.89 396.56 426.33 399.15 428.27 400.6 428.45 403.12 427.18 406.22 427.18 406.84 428.01 407.4 431.59 408.7 435.65 409.83 440.8 412.08 441.67 414.24 442.94 416.71 442.86 420.09 444.91 422.77 444.25 426.8 444.59 429.19 444.47 431.23 443.92 432.11 443.05 432.94 441.34 436.28 440.03 439 435.5 439.26 440.3 440.47 441.93 443.76 444.07 445 444.15 446.48 445.21 448.46 445.44 449.92 446.95 449.92 448.47 450.79 451.05 451.23 452.93 451.88 454.3 453.55 456.18 455.28 459.83 456.94 462.33 459.82 464.05 464.29 465.19 465.79 468.43 467.43 470.2 468.3 475.18 467.9 476.69 468.84 478.57 469.98 481.91 470.21 483.25 471.01 483.04 474.11 483.08 476.8 482.91 479.55 480.97 482 480 485.37 479.82 487.43 479.03 488.94 479.13 491.62 480.27 494.72 478.56 496.03 476.59 499.17 472.75 499.91 469.5 500.5 467.96 504.27 464.43 506.62 462.8 506.29 461.58 506.39 458.92 504.98 456.39 504.57 454.89 504.08 454.32 503.99 453.11 504.67 450.68 504.77 449.3 505.51 447.34 504.87 446.4 504.09 444.45 503.85 441.98 503.18 440.4 503.32 436.46 503.93 434.91 503.46 434.03 502.54 433.65 502.22 432.45 502.03 429.65 501.36 427.91 501.96 425.96 500.2 423.42 498.89 420.47 498.22 419.77 500.41 418.1 500.91 416.57 502.25 415.53 503.69 412.9 508.11 413.96 510.36 414.31 512.64 415.26 513.91 415.21 514.76 415.86 516.76 416.59 517.8 416.19 520.24 416.83 521.78 415.33 525.11 416.04 526.73 414.88 528.13 412.69 529.11 412.65 530.61 410.36 532.73 409.04 535.25 408.69 535.88 408.16 540.54 407.88 542.88 405.07 543.23 402.14 541.76 399.31 541.54 397.85 540.95 396.63 542.67 392 544.08 389.59 545.7 385.58 546.11 382.88 Z M 349.54 146.79 350.34 147.26 351.93 146.03 353.43 143.5 354.43 142.48 356.25 141.59 358.77 141.26 360.25 141.37 366.22 141.09 369.11 141.38 373.54 143.46 377.46 144.27 379.53 144.91 382.01 145.32 385.15 147.08 389.57 149.06 392.48 151.06 395 152.6 399.69 154.89 397.82 158.04 398.4 158.41 396.17 160.39 394.61 160.78 392.42 160.6 391.28 161.42 388.65 162.41 386.96 161.99 385.67 162.87 383.47 164.98 379.62 165.7 377.26 168.18 376.66 170.28 378.48 173.52 380.56 177.76 382.48 179.65 384.79 184.78 386.26 189.15 386.45 191.74 386.39 193.73 386.55 196.3 387.63 197.96 388.29 199.85 386.15 204.72 385.09 206.36 383.87 207.24 382.95 208.53 383.74 209.16 383.02 209.87 382.26 211.31 379.79 212.73 377.21 213.84 375.68 214.25 374.67 213.93 372.5 213.94 370.72 213.38 368.83 213.5 366.15 212.45 364.04 210.86 362.36 210.1 361.22 209.08 360.5 214.24 358.46 218.59 357.28 219.67 354.44 219.21 353.72 219.9 350.82 220.37 347.63 220.32 344.37 222.95 344.44 223.97 343.87 225.03 342.07 226.96 340.87 226.88 339.3 226.23 335.65 225.12 331.95 224.64 330.1 223.31 327.6 223.73 325.99 223.44 324.13 223.73 321.28 221.58 318.39 220.18 315.69 218.5 314.5 218.35 311.79 216.2 310.88 215.29 308.56 214.07 306.88 214.08 304.55 214.4 299.99 215.29 296.95 213.74 296.93 214.74 294.27 217.02 291.93 219.87 291.04 221.67 290.22 224.01 288.28 227.28 287.14 230.42 285.73 231.84 285.22 233.27 284.33 237.12 282.78 238.7 282.65 239.74 279.44 242.96 278.94 242.73 278.93 238.42 277.29 238.48 277.24 242.76 275.79 250.32 275.01 252.15 275.22 254.79 274.71 257.76 274.4 261.51 273.89 264.53 273.39 270.88 272.95 275.1 272.42 278.11 269.88 287.2 269.37 289.66 269.07 292.15 268.29 296.07 267.98 296.2 263 295.76 248.4 290.63 236.85 283.5 224.12 276.57 211.8 273.14 191.95 272.25 179.3 268.47 152.35 266.5 144.87 263.17 133.19 262.96 106.8 263.19 95.1 263.02 83.41 263.32 78.89 262.26 78.04 263.73 76.49 265.44 74.04 262.64 72 261.73 69.39 261.17 69.18 257.44 69.28 253.04 69.69 250.46 69.02 247.1 69.22 244.32 68.98 238.14 69.19 233.43 70.25 227.38 70.49 224.55 73.04 217.85 73.95 216.17 75.95 213.75 77.19 211.96 80.09 206.99 81.01 204.43 82.56 198.73 82.55 195.92 82.83 193.81 84.16 188.41 85.73 184.43 86.94 181.74 89.43 178.01 90.68 172.79 92.25 167.66 93.16 165.67 93.96 162.55 95.04 160.35 96.89 155.07 98.67 151.85 100.43 149.42 101.58 146.88 102.44 142.8 103.55 138.7 103.91 136.54 103.56 132.66 103.45 129.23 103.4 126.25 111.49 124.56 115.38 124.38 121.43 121.71 120.55 123.68 122.29 123.7 125.13 117.31 126.36 116.63 126.42 114.91 127.64 111.24 128.05 109.44 128.58 108.85 129.1 106.98 130.83 105.43 131.45 103.42 132.39 102.62 132.79 101.28 133.55 100.48 134.39 100.34 135.59 99.38 136.01 97.81 136.95 96.35 137.05 94.7 137.41 93.43 138.48 92.56 139.68 90.24 141.15 90.1 141.84 89.46 143.49 89.26 144.06 87.76 143.49 86.33 143.76 83.87 145.83 79.46 147.56 77.91 147.65 76.39 146.85 74.59 146.65 70.74 147.05 70.19 147.24 67.62 146.9 64.62 148.62 64.22 151.91 62.23 154.54 62.68 156.36 61.07 158.51 59.97 159.31 60.16 160.03 59.23 160.49 56.42 161.76 54.81 162.14 53.62 161.63 52.54 161.23 49.53 161.92 48.33 162.42 45.13 166.16 47.36 168.58 47.06 168.99 46.11 168.34 45.12 169.39 43.42 169.62 42.48 171.01 41.1 172.85 40.57 173.67 39.61 175.5 38.26 176.55 37.82 176.68 37.12 177.67 35.63 178.64 35 180.6 35.63 180.92 36.4 183.35 35.83 187.42 35.18 188.08 34.39 189.01 34.5 190.77 33.85 193.45 34.69 194.41 34.73 197.58 31.79 199.74 24.87 200.79 24.11 202.68 23.86 203.69 25.14 206.4 25.23 207.25 25.04 209.77 23.61 211.43 24.12 215.1 24.59 216.56 25.06 221.16 24.27 226.76 19.69 226.78 17.45 227.51 15.75 229.01 13.16 228.23 9.83 228.7 6.3 229.1 5.1 228.98 3.33 229.46 2.7 229.68 1 231.25 1.75 232.61 1.87 234.17 3.74 236.54 4.83 238.2 5.38 239.16 6.36 243 5.66 245.15 7.02 247.47 9.06 248.07 9.84 249.61 10.62 249.85 13.03 250.48 13.86 251.27 13.42 255.92 13.05 258.2 15.38 259.59 14.59 261.85 13.71 262.49 14.06 264.41 13.2 265.69 13.4 266.25 14.9 268.99 15.54 270.55 16.67 272.37 16.86 273.13 18.85 275.67 18.89 276.77 19.23 279.08 20.82 280.33 22.15 281.72 25.09 281.83 26.11 281.53 27.73 282.12 29.27 282.34 31.9 281.29 33.27 281.07 37.1 281.63 38.03 281.14 41.64 281.42 42.87 279.6 48.02 277.7 50.1 277.46 51.86 276.51 53.85 275.7 54.36 275.66 55.31 274.88 57.24 275.04 61.18 274.76 62.29 275.2 62.97 276.18 66.61 275.66 69.7 275.65 72.12 276.77 73.76 276.05 76.34 274.27 81.44 274.08 82.31 272.59 84.24 270.93 85.77 269.95 87.33 268.04 89.05 266.43 89.64 264.87 92.7 262.94 93.17 260.02 94.64 258.52 96.62 257.25 99.25 258.34 101.2 260.42 103.44 261.85 105.37 262.51 108.59 261.55 112.83 262.49 115.05 262.66 119.11 263.42 121.79 263.08 123.07 264.56 125.18 266.25 126.46 267.72 129.03 270.19 129.64 273.13 133.51 276.14 136.35 277.91 137.32 280.78 139.25 281.73 138.59 283.06 137.18 284.21 136.61 285.68 134.59 287.62 133.24 288.12 132.38 289.73 132.96 295.45 135.97 297.74 136.86 299.29 136.37 300.23 138 302.19 139.25 302.98 136.92 303.05 135.88 303.6 134.88 304.28 134.61 303.15 133 304.92 132.92 306.95 133.29 308.53 132.03 308.94 130.88 310.15 129.79 312.35 129.08 313.62 129.87 314.62 129.39 316.28 129.8 316.95 131.05 319.56 133.32 320.82 133.82 321.26 135.36 320.77 136.82 322.03 139.31 322.52 140.7 324.74 144.4 325.35 145.93 326.11 149.03 329.04 151.39 329.97 153.43 336 151.38 336.92 151.47 338.77 155.56 339.13 157.33 339.33 161.23 342.01 160.28 343.75 159.38 347.87 155.05 349.09 153.36 348.08 152.12 348.43 149.6 349.54 146.79 Z" fill-rule="evenodd" id="22510000"/>
</g>
</svg>