<?xml version="1.0"?>
<svg xmlns="http://www.w3.org/2000/svg" version="1.2" baseProfile="tiny" width="800" height="637" viewBox="0 0 800 637" stroke-linecap="round" stroke-linejoin="round">
<g id="sigung">
<path d="M 769.99 246.81 769.07 249.6 768.77 251.46 768.76 253.05 769.18 256.17 768.94 258.73 767.23 260.27 766.7 262.43 766.39 263.21 770.85 266.72 771.36 269 771.69 271.17 772.12 273.03 771.59 273.99 771.42 275.8 773.65 275.52 775.44 275.93 776.26 276.85 778.16 277.53 780.46 278.51 780.63 278.87 781.52 278.92 782.15 279.42 782.71 280.99 783.45 281.7 783.94 286.12 783.77 287.1 783.86 290.01 783.44 290.93 784.71 292.37 786.09 292.94 787.55 294.86 788.1 294.9 790.16 296.85 789.86 302.86 789.4 304.46 791.19 308.11 794.39 312.47 794.59 312.95 795.61 313.74 796.4 315.23 796.73 315.5 797.52 316.95 799 318.34 797.58 319.27 794.99 321.35 794.12 322.17 791.45 323.6 789.92 326.48 788.3 330.6 786.42 332.78 785.35 333.29 785.45 334.2 786.43 335.64 786.38 339.23 786.12 340.03 785.06 341.18 784.55 343.04 784.55 344.31 784.08 345.48 784.28 346.76 783.11 348.93 783.39 351.05 784.15 352.24 784.63 353.61 784.79 354.58 785.77 356.43 783.63 357.22 783 358.38 779.13 357.87 777.83 358.21 776.2 357.39 774.33 356.61 771.68 358.53 769.67 358.22 767.75 358.31 766.94 358.68 765.32 358.67 763.62 358.47 761.37 358.6 757.75 358.25 756.15 357.47 754.04 356.14 752.8 355.65 750.9 354.71 749.96 354.43 748.78 354.39 747.41 353.65 742.44 355.54 740.54 354.88 738.13 354.36 737.26 353.89 734.56 354.08 733.21 354.49 732.15 354.48 728.95 360.11 728.91 361.04 724.17 366.02 721.88 367.95 719.91 368.56 719.56 369.82 719.18 371.86 719.49 372.69 719.52 375.57 721.44 379.96 722.42 380.68 723.59 383.77 724.46 387.75 724.52 390.44 722.78 391.42 721.61 394.35 720.5 396.14 721.72 398.1 723.13 402.04 722.77 403.45 720.81 408.32 716.35 410.49 715.78 410.92 713.02 411.43 711.3 412.21 709.47 415.24 710.28 416.91 709.54 418.46 708.33 419.08 705.01 418.22 703.86 418.74 702.43 418.31 699.72 418.98 698.88 421.74 698.55 423.8 697.93 425.89 698.29 426.97 698.25 427.71 698.49 429.18 697.77 430.86 697.86 431.06 695.98 434.11 695.48 434.48 694.74 436.82 693.42 439.07 691.67 441.27 690.12 440.3 688.65 440.01 687.97 439.7 687.17 439.84 685.87 440.62 685.01 441.59 683.43 442.59 680.96 443.14 680.03 443.66 678.38 443.74 677.13 444.85 674.94 444.64 674.46 445.02 671.43 448.42 670.14 449.05 668.55 451.88 668.41 452.83 668.91 454.87 669.65 456.58 669.58 457.42 667.99 457.97 666.69 459.14 665.69 461.14 662.78 461.97 661.22 462.3 659.16 464.6 657.86 465.56 657.55 467.26 656.47 467.85 653.36 468.65 652.68 469.18 651.68 469.48 648.74 469.67 646.55 469.96 643.95 473.13 642.7 474.25 636.95 475.67 635.62 473.88 633 472.48 631.51 472.28 628.16 473.02 626.76 473.21 625.55 472.96 623.87 473.24 622.13 474.11 621.42 474.72 620.6 474.31 619.74 470.6 619.1 468.34 618.65 467.45 616.91 466.77 615.81 465.92 615.17 465.19 613.48 464.36 612.49 464.24 610.71 463.11 608.67 462.78 606.74 460.38 600.78 455.61 600.17 455.52 598.23 456.5 596.87 455.34 591.8 453.75 589.29 453.33 589.21 452.8 587.23 449.85 585.61 450.67 585.71 448.19 584.97 446.86 582.82 446.19 581.17 445.99 580.32 447.18 579.31 447.73 576.94 449.54 576.47 450.07 573.11 452.31 571.68 453.8 570.05 456.17 569.68 458.02 569.73 459.47 566.03 462.23 563.92 466.07 562.34 464.59 560.94 464.09 559.4 464.11 558.34 463.59 560.82 459.45 562.24 456 561.93 454.63 561.33 453.7 561.29 453.01 562.26 451.01 561.93 449.64 559.94 449.37 559.99 448.41 559.69 446.81 559.94 445.14 560.41 443.94 560.19 441.58 559.17 440.37 558.24 439.92 557.4 438.63 556.72 437.31 555.44 436.25 554.7 434.91 553.8 434.72 552.58 434.14 552.29 431.79 550.38 429.79 549.2 429.25 549.46 432.11 549.15 433.17 548.86 436.3 548.16 436.99 548.54 438.14 548.33 439.63 547.93 440.6 547.38 441.21 548.02 443.19 547.4 443.91 545.48 444.66 545 445.08 544.42 446.35 541.79 448.75 540.36 448.75 539.56 449.54 538.56 449.82 535.47 449.31 534.59 449.86 534.3 451.19 533.95 451.82 534.76 452.75 535.19 454.11 533.91 456.99 532.18 458.13 531.23 459.69 526.42 462.33 525.86 462.84 523.98 463.24 523.24 462.74 521.44 462.74 520.9 462.17 520.11 461.87 518.81 462.52 518.09 463.53 517.39 464.08 516.34 464.43 516.1 465.12 515.47 465.76 515.28 466.49 513.99 468.08 515.91 469.29 516.21 469.83 515.64 470.98 518.47 472.93 518.5 474.29 521.57 474.77 522.74 477.59 522.34 478.78 522.56 479.78 523.41 480.14 523.66 481.28 524.65 482.87 524.26 483.64 524.51 484.4 524.84 486.4 523.98 487.01 523.63 487.8 522.84 488.56 521.88 490.06 520.55 491.05 520.95 494.27 518.79 496.77 517.27 497.03 517.67 499.47 516.03 501.03 515.91 501.46 514.47 501.96 512.22 502.32 511.5 501.07 509.27 500.56 508.64 500.09 507.98 498.86 506.3 499.68 503.76 498.34 502.47 498.42 501.98 498.05 500.12 497.82 499.67 498.37 499.83 499.75 498.94 500.89 498.22 502.98 498.92 505.2 498.68 505.75 497.34 507.15 497.49 508.32 497.38 509.84 496.49 511.96 496.2 513.23 496.5 514.51 496.94 515.36 495.9 516.15 494.28 516.41 493.6 517.12 494.11 518.43 494.14 519.7 493.61 519.94 492 521.2 492.13 522.23 491.25 523.05 490.5 525.78 489.95 526.51 490 527.12 489.36 527.72 488.4 528.2 487.69 529.41 486.32 530.2 485.45 530.42 484 533.08 484.57 534.59 483.13 536.27 482.69 538.1 483.8 538.55 483.44 539.98 484.3 540.42 483.46 542.6 484.27 545.91 485.44 549.25 486.04 551.85 485.86 554.2 485.02 558.28 485.08 560.29 483.99 562.35 482.67 565.87 481.5 566.32 481.49 567.13 480.54 568.63 480.33 569.63 479.37 570.4 478.68 571.46 477.99 572.08 476.18 573.21 475.91 574.04 474.51 575.39 473.59 576.82 473.41 578.49 472.95 579.06 474.38 580.35 474.83 581.58 475.3 583.74 476.52 585.47 477.32 587.59 477.48 588.96 478.25 589.97 478.7 591.92 478.35 594.64 478.69 595.07 477.63 596.88 478.02 597.77 477.94 598.62 477.48 599.34 477.38 600.25 476.71 601.45 475.83 602.61 475.72 603.86 475.18 604.76 475.09 605.78 471.78 611.54 470.94 612.41 469.83 612.97 472.24 617.03 470.1 617.7 466.08 618.48 463.77 618.4 461.64 619.79 458.48 621.34 457.52 620.64 455.43 620.94 451.75 620.5 447.08 620.17 446.28 620.93 442.86 623.38 436.67 623.21 435.36 623.67 429.97 623.56 428.28 624.52 426.93 624.84 425.46 625.89 423.42 629.19 421.39 630.02 419.32 629.76 415.64 630.54 409.01 630.73 407.72 631.39 406.39 631.76 405.18 631.61 403.44 634.42 400.09 636 398.96 635.36 396.73 633.89 395.94 633.06 393.47 631.63 392.36 631.37 391.66 630.83 389.76 629.84 389.17 629.72 386.74 630.24 384.27 630.04 383.24 629.83 380.76 625.18 377.47 620.47 376.84 617.22 372.95 613.94 368 611.02 363.5 608.53 359.66 607.51 356.69 604.65 353.41 603.22 351.29 600.94 351.91 599.11 351.64 597.37 351.02 595.29 351.65 594.11 351.42 593.41 352.13 591.64 351.95 589.42 351.69 589.01 351.21 586.88 350.93 586.12 351.59 583.56 352.46 581.88 352.97 581.42 353.73 579.52 353.38 578.51 353.79 578.13 352.89 575.74 353.04 575.01 354.18 574.33 355.06 572.9 355.9 572.64 355.73 571.39 357.88 568.13 358.48 567.51 358.68 565.99 358.26 563.95 359.83 562.69 360.92 561.26 361.26 559.88 360.48 557.98 360.23 556.06 360.96 554.6 361.67 551.94 362.71 549.71 362.66 548.03 363.36 545.87 362.38 544.82 362.44 543.33 363.06 540.75 362.68 539.18 362.15 538.18 362.01 537.26 362.18 535.28 361.42 532.77 361.64 531.3 362.75 531.29 363.5 530.71 365.14 531.22 364.94 529.41 364.46 528.82 364.84 528.4 367.07 523.85 367.15 520.67 368.33 517.38 366.5 515.78 365.13 515.26 362.61 513.49 361.7 513.64 359.96 513.18 360.09 512.46 360.97 511.76 361.81 510.8 362.4 508.93 361.86 507.95 361.02 507.09 362.45 506.3 364.24 504.05 364.57 503.23 366.1 500.38 365.82 497.67 364.13 495.96 361.11 493.52 360.55 491.56 359.86 490.87 357.15 490.81 355.95 490.17 354.95 491 354.67 492.18 354.83 492.89 353.74 495.22 352.95 495.84 351.1 496.71 349.29 497.15 348.45 497.22 346.79 496.92 344.46 497.58 342.92 496.73 340.15 495.73 338.22 497.19 336.05 497.39 334.58 498.6 333.37 498.45 329.48 498.54 326.52 499.54 327.5 501.04 326.59 501.06 324.75 500.55 323.75 500.71 321 500.49 319.5 500.74 315.29 501.12 313.03 502.01 311.52 502.08 311.05 502.67 310.66 503.83 310.07 508.21 310.15 510.18 309.78 511.39 310.26 514.57 311.32 518.24 309.76 519.88 309.01 520 308.47 521.13 307.87 521.68 307.14 524.46 306.36 526.43 304.71 526.19 302.8 526.57 300.98 526.46 298.22 525.66 296.62 525.38 296.02 524.71 294.93 524.65 294.19 525 290.53 519.08 288.35 516.6 287.8 517.35 286.92 518.02 285.43 518.51 283.33 519.05 282.92 521.17 282.96 521.95 281.23 524.82 279.9 525.35 278.64 526.99 277.88 527.32 275.8 527.32 275.22 528.03 273.82 529 271.64 530.27 269.97 532.99 269.02 534.04 268.08 534.61 266.91 535.71 265.81 536.31 265.3 535.36 265.06 534.28 264.92 528.78 263.14 525.18 261.29 521.31 261.21 518.91 259.35 517.5 257.51 514.83 256.42 513.39 256.37 509.25 257.51 507.27 257.98 506.03 259.12 504.64 258.51 503.03 258.1 500.78 258.54 498.44 261.22 494.94 262.4 493.11 260.81 491.33 260.38 489.94 260.76 488.42 262.72 485.38 263.04 483.58 263.17 481.13 263.58 478.18 264.2 475.75 263.55 473.72 262.65 471.64 262.18 467.71 262.25 465.82 261.49 463.38 261.62 461.68 260.87 460.24 258.56 457.24 257.21 456.41 255.54 456.47 254.71 456.22 254.06 455.26 254.11 454.49 253.75 453.63 253.95 451.96 255.68 450.03 256.63 447.65 257.09 445.02 256.5 439.15 257.31 435.52 257.37 433.61 254.83 431.38 253.47 430.67 253.42 428.61 253.78 425.63 254.81 424.11 255.2 421.15 254.59 418.99 253.61 417.3 251.81 414.89 251.17 414.19 249.22 413.66 247.87 412.76 247.01 413.75 245.32 414.04 243.27 411.84 240.21 409.86 239.82 407.32 238.97 406.27 238.86 405.56 238.29 405.09 236.67 402.83 236.22 401.95 236.5 400.94 236.84 397.96 235.47 395.5 234.69 395.5 233.29 394.48 232.82 393.55 232.23 392.9 231.66 391.82 230.75 391.85 229.68 391.31 229.66 388.94 230.4 387.36 231.96 384.59 234.08 381.46 234.52 379.41 236.45 375.01 233.98 372.98 232.09 372.72 230.5 372.81 229.43 372.57 228.88 371.85 229.36 370.74 229.59 367.07 231 362.69 230.59 360.58 229.87 358.94 229.43 357.16 229.88 355.18 231.1 353.92 231.67 351.9 230.15 351.24 228.98 350.43 228.43 349.58 227.12 348.57 225.83 345.66 224 345.61 222.27 344.77 218.92 344.05 219.21 342.92 217.72 337.4 216.43 333.81 216.26 332.83 214.94 331.27 215.49 330.01 218.16 325.97 219.88 324.22 221.04 323.37 221.87 321.32 222.55 321.12 225.48 323.32 226.57 324.03 228.19 324.72 231.48 324.44 233.25 323.99 234.75 323.31 235.2 322.07 236.33 319.72 237.22 316.47 237.15 312.78 236.84 309 237.42 306.13 238.35 303.71 241.67 298.65 240.21 297.51 238.85 297.44 236.86 296.85 235.25 297.27 233.16 296.9 231.15 296.86 228.59 297.59 228.43 296.3 228.39 294.41 228.22 293.14 226.96 291.54 223.83 290.24 223.12 288.2 222.68 286.04 222.14 285.35 220.33 284.49 218.74 283.27 218.56 282.68 218.63 281.01 218.12 279.27 216.51 276.01 215.33 274.13 211.97 270.8 211.73 268.66 209.45 265.26 208.24 263.64 203.38 261.06 202.34 260.96 199.33 259.15 195.16 258.33 193.39 258.76 191.9 257.09 191.47 255.5 190.06 253.35 188.36 252.38 186.38 251.71 185.61 251.01 185.16 251.15 184.26 252.11 183.45 252.57 181.89 252.71 180.03 253.3 178.21 253.21 176.44 254.13 174.69 254.64 174.34 255.8 174.03 257.8 173.68 260.78 170.73 269.64 170.35 270.08 168.18 270.91 166.28 274.8 164.9 277.94 163.83 279.62 160.71 283.13 158.71 283.59 157.9 284.12 153.96 284.61 152.59 283.23 152.07 282.23 152.1 281.2 151.9 279.81 152.17 277.99 151.77 275.71 152.16 274.41 151.94 273.48 151.04 271.87 149.35 271.01 148.33 269.12 148.27 265.9 147.03 262.44 143.12 262.56 141.44 261.62 139.71 258.99 139.48 257.47 138.86 256.6 138.38 254.55 137.71 253.21 138.55 246.63 138.92 242.13 137.86 240.48 137.5 236.29 136.69 234.43 135.53 232.16 135.6 230.44 134.66 229.19 131.28 227.19 128.69 225.28 128.37 223.55 129.09 222.06 129.77 221.01 129.92 220.04 130.39 219.51 129.84 218.15 130.96 216.34 130.93 215.09 130.53 214.12 128.69 213.05 127.63 210.77 124.55 208.4 123.77 206.25 122.07 205.71 120.43 205.52 117.82 207.27 116.41 206.99 115.79 206.31 114.8 205.98 114.78 204.56 115.11 203.68 117.66 201.62 119.2 200.79 119.81 200.2 120.95 197.89 123.32 195.91 124.47 194.25 124.9 192.78 124.64 190.82 123.5 188.38 123.48 187.6 122.39 187.99 122 187.66 119.77 186.81 115.82 186.65 114.53 185.65 112.73 185.52 109.29 188.38 108.44 189.95 108.49 191.78 107.07 192.26 106.25 193.38 103.86 193.95 101.81 196.79 98.96 196.85 96.14 196.22 94.95 194.71 93.63 195.56 91.7 197.49 89 199.15 86.38 202.01 84.98 202.81 83 202.13 82.61 201.85 81.07 203.17 80.4 202.94 77.38 204.77 72.87 206.92 72.15 208.89 71.44 209.61 69.55 210.21 68.48 212.16 64.43 213.07 61.48 213.9 59.8 213.76 58.79 212.94 57.09 213.36 56.44 214.45 56.32 215.81 55.04 216.31 54.51 217.53 53.22 218.17 52.45 219.16 50.89 216.71 49.33 214.89 47.3 210.44 46.91 208.14 47.04 201.75 45.96 199.85 45.08 198.54 43 196.93 41.7 195.01 41.58 193.89 41.7 192.24 41.29 188.98 40.72 187.34 39.33 186.52 38.11 185.39 36.41 184.84 34.45 183.48 32.96 183.82 29.95 183.02 29.05 183.83 26.81 183.92 24.1 182.27 24.12 181.5 23.29 179.82 23.63 177.87 23.63 175.55 24.57 174.64 23.98 171.77 20.47 170.79 18.62 168.68 16.8 167.22 13.89 164.7 13.49 160.54 14.03 158.01 15.58 152.98 17.8 152.23 17.58 148.79 16.16 145.44 12.81 143.52 11.95 142.75 11.15 141.06 15.24 140.02 18.22 136.9 19.75 132.58 18.82 128.08 18.29 123.93 18.91 120.94 21.17 116.72 23.39 114.32 24.54 114.54 24.81 112.23 25.13 111.54 26.2 110.81 27.04 109.58 27.4 106.91 27.25 105.35 26.24 104.03 26.3 103.2 25.55 102.82 23.35 100.57 19.54 99.01 19.14 97.19 15.43 96.22 14.19 95.74 10.79 91.21 8.97 92.3 6.11 90.7 5.96 89.14 5.67 87.97 4.56 86.41 2.67 85.13 2.15 83.94 1 82.15 2.14 80.02 5.97 75.27 6.48 73.91 6.2 72.94 5.34 72.04 4.67 69.11 5.27 68.39 6.21 66.72 6.74 64.32 8.75 61.78 10.08 60.49 10.49 58.96 12.5 57.8 12.92 58.24 15.83 57.99 17.22 58.88 17.97 59.56 20.47 58.73 22.23 58.51 23.82 59.04 25.02 57.91 28.91 58.29 31.34 55.68 32 55.09 35.21 50.74 35.28 47.24 36.35 46.18 37.64 45.23 39.59 44.58 41.3 45.58 42.18 47.07 44.03 47.25 45.18 46.14 45.95 45.66 46.58 43.95 45.83 41.99 46.41 39.75 46.07 38.49 46.48 36.18 45.57 35.5 46.63 33.76 46.55 32.14 46.84 31.2 46.2 30.29 46.17 29.15 44.9 27.78 45.8 26.5 47.61 25.04 48.33 24.3 51.24 23.83 53.46 22.02 54.87 20.16 56.22 18.9 56.47 16.43 58.08 14.12 59.16 12.35 59.21 10.26 61.04 8.46 62.54 8.79 65.59 5.95 64.98 4.01 66.5 1.13 68.83 1.82 70.13 1 72.68 1.66 72.62 3.07 72.74 4.63 73.24 5.39 76.3 6.19 77.29 7.05 80.37 6.93 81.51 8.58 82.83 9.01 84.23 9.72 87.56 9.88 90.57 11.46 92.43 11.28 94.1 11.52 95.7 13.28 95.25 13.75 96.63 14.85 98.1 13.21 98.58 13.57 98.45 14.24 98.94 15.97 99.52 17.05 99.44 17.72 100.54 17.98 101.25 18.67 102.19 19.11 101.73 21.99 101.58 23.67 102.17 26.41 102.14 27.65 101.85 30.66 103.29 31.61 105.93 31.55 106.71 32.22 107.63 31.95 109.01 32.74 111.5 32.82 111.96 33.41 112.38 34.74 114.37 35.3 117.28 37.2 118.74 39.08 120.15 39.77 122.21 39.32 123.02 38.44 124.72 38.78 125.52 38.44 127.76 40.04 129.84 42.55 130.68 45.88 131.19 46.52 132.82 45.43 134.21 45.11 135.54 45.54 136.77 46.37 139.35 47.46 139.77 48.54 141.71 48.13 142.69 47.61 145.91 46.77 149.08 46.78 151.87 47.79 156.16 47.48 156.89 46.88 159.31 47.5 160.23 49.75 163.06 52.75 164.61 51.6 165.12 51.39 167 52.27 168.76 51.62 169.95 49.95 171.34 50.31 174.79 50.03 175.81 51.85 177.37 53.36 178.94 53.67 180.93 52.81 183.16 54.57 186.04 53.78 187.56 55.08 188.66 57.71 188.72 59.53 191.91 63.26 193.29 66.05 194.3 65.94 197.12 64.66 199.74 63.31 200.5 63.4 201.92 62.79 203.52 61.8 203.91 62.32 204.29 63.74 206.58 64.47 208.03 64.68 208.9 64.12 210.16 63.84 213.25 64.98 215.12 65.5 215.99 67.33 219.58 69.3 219.23 72.06 219.89 72.99 222.59 74.36 223.35 75.76 223.75 77.81 223.86 79.32 224.67 79.72 225.35 81 225.05 83.7 226.87 84.61 226.81 87.73 227.11 90.25 227.02 93.35 227.11 94.35 228.79 95.97 230.47 97.01 229.88 98.15 230.29 99.64 230.08 100.5 230.35 102.99 231.86 103.91 233.39 104.35 235.21 102.76 236.52 104.5 239.66 104.77 241.73 103.52 242.48 102.66 243.9 101.73 248.65 102.1 249.01 101.91 248.97 101.06 250.74 101.78 252.18 102.64 253.27 103.77 254.55 104.24 256.4 103.68 257.37 103.78 259.72 103.26 261.81 102.35 262.55 101.81 262.23 100.49 264.89 99.47 266.17 97.77 266.4 95.63 268.42 94.11 269.03 92.55 270.44 92.8 273.53 92.9 275.15 93.59 275.97 93.7 276.85 93.28 278.24 93.56 278.74 94.1 280.32 94.21 281.18 94.91 282.33 94.68 283.93 94.87 284.68 95.72 286.03 95.61 286.84 95.24 288.33 95.49 289.99 96.68 290.18 97.52 291.42 97.47 293.16 97.76 294.48 96.78 295.89 97.23 297 97.79 299.37 96.49 301.17 97.81 302.69 100.81 303.11 104 304.37 105.22 304.75 106.37 304.41 107.31 304.29 108.35 304.65 109.19 307.58 110.82 308.91 111.15 309.81 110.9 311.42 111.62 313.99 111.83 316.8 111.15 319.47 109.35 322.56 109.33 322.92 109.13 325.1 110.1 325.67 110.14 327.33 111.19 330.48 112 332.88 114.55 333.36 115.48 335.04 116.65 337.05 116.32 339.38 115.21 340.36 115.05 341.01 115.37 342.07 116.31 343.14 116.63 345.95 116.82 347.1 117.09 348.3 117.68 350.16 118.97 350.9 119.91 352.46 120.61 353.85 122.08 354.41 122.31 355.76 123.43 356.59 124.5 357.27 126.17 358.44 125.86 359.4 125.21 359.86 125.48 360.57 126.48 361.54 127.09 362.63 127.05 363.96 127.6 365.11 127.75 367.35 127.8 368.85 129.59 369.06 130.97 369.95 131.11 370.71 132.43 372.07 133.61 373.49 134.13 374.72 135.67 374.09 138.04 373.86 139.33 374.67 141.86 374.81 144.32 373.67 145.76 373.49 146.77 371.49 147.1 371.78 148.86 371.76 150.83 371.38 152.12 372.02 153.37 372.11 155.37 373.49 155.86 374 156.64 374.52 158.49 376.39 161.08 373.97 161.79 373.82 163.4 372.71 164.04 372.52 164.86 372.96 166.14 373.44 168.11 370.19 169.23 368.57 170.07 367.43 170.13 365.64 171.91 364.17 173.11 363.24 173.59 364.71 175.17 366 176.25 365.82 177.11 365.24 178.08 366.8 179.56 366.73 180.26 367.14 181.06 368.72 183.53 369.15 184.62 368.3 186.38 366.63 188.04 365.65 188.59 366.43 189.9 367.01 190.51 369.51 191.13 369.89 191.71 370.16 193.98 370.01 195.62 368.96 196.79 365.83 198.88 363.33 199.91 363.9 200.85 366.1 201.52 368.85 203.19 368.49 205.72 368.21 209.28 367.13 212.48 366.79 213.94 365.12 216.08 362.19 217.24 361.88 218.54 364.01 221.35 364.72 222.47 366.01 223.56 366.37 225.19 366.76 225.36 366.41 226.53 367.95 232.89 371.9 234.27 372.65 234.91 374.49 235.8 377.36 231.21 378.45 229.23 379 227.37 379.4 226.46 381.59 224.52 381.77 223.46 382.76 223.15 384.43 221.55 385.57 221.06 386.54 219.56 387.31 218.66 387.06 217.12 388.01 216.21 389.18 214.37 389.91 214.52 392.01 215.45 393.67 215.32 394.62 216.24 396.23 216.13 398.32 214.26 400.37 213.61 400.76 212.18 400.41 210.08 402.55 209.99 404.61 209.71 405.87 209.74 406.99 207.44 408.89 208.06 411.47 209.34 411.3 209.9 411.44 212.07 414.99 212.14 414.85 213.46 414.88 214.66 417.06 216.25 416.27 218.54 417.53 219.12 419.82 220.54 420.14 222.89 420.09 223.87 419.71 225.69 420.51 226.92 421.2 227.45 421.93 228.63 423 231.2 424.56 231.89 425.1 231.86 426.26 232.8 427.46 233.42 427.96 232.61 428.24 231.32 428.21 229.85 429 229.37 429.33 227.78 430.22 225.94 431.54 225.25 431.75 224.34 433.9 224.31 435.2 222.66 436.49 222.72 437.88 221.96 439.89 221.17 441.04 220.49 442.5 220.02 443.22 219.09 444.41 218.97 446.28 220.05 448.31 219.98 449.22 221.11 453 221.9 453.61 222.53 454.33 224.02 455.17 224.2 456.61 224.98 458.22 224.17 458.89 224.23 460 222.76 461.26 221.6 463.09 221.31 464.37 222.94 466.44 223.64 467.62 225.42 468.26 225.81 469.42 225.8 469.53 226.39 469.04 227.65 469.2 228.71 472.47 231.4 470.99 233.3 469.98 233.63 469.32 237.15 468.55 237.64 467.67 238.66 466.8 240.23 466.8 243.67 466.94 244.89 471.52 246.73 472.96 246.53 474.45 246.82 475.98 246.87 476.4 247.72 477.72 248.52 478.89 248.46 479.65 250.67 479.96 250.88 482.44 250.47 483.92 250.81 486.91 251.68 488.53 251.22 491.03 249.88 492.74 250.5 494.85 248.63 497.69 248.4 499.99 247.72 501.99 248.5 503.16 248.33 504.02 251.17 504.05 252.37 507.07 252.27 508.22 251.18 509.67 250.05 511.38 250.25 511.8 250.51 513.48 249.77 514.39 248.63 513.11 247.34 514.35 246.83 515.82 247.58 517.48 246.78 518.59 248.14 519.67 249.18 520.86 250.61 523.02 249.58 524.24 249.62 525.54 249.34 526.58 248.76 529.67 246.62 530.62 247.74 532.28 247.88 532.81 247.39 534.37 248.09 535.33 248.09 536.58 249.49 537.63 249.71 538.56 249.56 540.68 250.82 542.9 252.97 542.94 254.19 543.22 255.4 544.52 255.83 545.42 256.65 546.28 257.84 547.61 258.87 549.48 257.88 550.02 257.26 552.07 256.46 553.51 255.74 553.86 254.19 554.76 253.39 554.93 251.45 554.01 249.89 555.21 248.09 556.31 247.48 556.92 245.31 556.56 244.27 558.28 241.94 560.75 242.25 562.03 242.61 563.01 242.3 563.63 242.53 566.85 241.68 567.96 244.09 567.87 245.08 568.34 245.86 569.56 246.94 572.48 248.54 575.68 248.58 577.92 251.17 577.29 252.2 578.52 252.09 579.7 253.23 579.84 254.02 580.92 255.06 582.57 256.43 585.43 259.33 586.62 260.21 590.51 257.55 591.16 257.31 594.5 257.11 595.55 257.83 597.93 257.84 599.15 258.3 602.93 258.28 603.94 257.98 606 259.27 607.48 259.33 609.71 258.95 611.45 259.52 615.4 260.33 618.61 261.87 622.51 263.81 626.33 264.91 629.66 264.63 632.06 259.32 632.78 257.04 633.39 254.12 637.63 250.37 640.25 243.96 640.48 241.89 640.16 241.02 641.11 239.68 639.63 237.68 638.63 236.91 637.53 234.53 640.31 233.52 643.29 231.99 642.17 229.49 641.54 226.63 641.37 226.41 642.76 225.42 645.59 225.67 647.46 225.7 652.37 225.15 653.21 225.69 654.71 224.78 656.37 224.68 657.7 223.76 658.51 222.73 659.89 221.49 661.14 219.51 661.9 218.94 662.49 217.95 663.4 217.69 664.26 216.85 664.58 215.92 666.54 214.71 667.38 214.67 668.83 213.73 669.91 212.48 671.66 211.27 673.03 210.97 675.28 209.57 677.45 208.85 681.02 209.47 684.14 209.12 684.96 210.44 685.77 211.44 687.14 213.63 690.01 215.9 691.88 215.91 693.66 214.73 694.95 214.8 697.68 214.67 700.22 213.77 702.65 212.58 704.47 212.41 705.29 213.69 708.46 215.62 712.3 215.08 713.17 215.24 715.33 217.9 717.56 219.31 719.94 219.23 720.81 221.13 723.4 222.76 727.29 224.85 727.95 226.88 728.93 227.9 729.42 228.75 731.03 229.85 732.64 230.41 734.72 229.63 738.23 230.92 741.73 233.33 743.64 233.31 746.24 232.98 750.34 233.65 751.79 236.64 753.52 239.62 755.64 244.26 758.43 246.44 760.08 246.39 762.09 246.11 766.07 245.96 767.9 246.23 769.99 246.81 Z" id="22520000"/>
</g>
</svg>