<?xml version="1.0"?>
<svg xmlns="http://www.w3.org/2000/svg" version="1.2" baseProfile="tiny" width="800" height="431" viewBox="0 0 800 431" stroke-linecap="round" stroke-linejoin="round">
<g id="sigung">
<path d="M 374.92 6 383.72 3.18 602.74 152.35 639.68 177.34 673.72 201.21 701.87 227.38 758.83 281.33 760.53 283.87 799 297.02 797.95 317.8 794.99 317.13 754.38 301.26 744.77 295.94 611.34 210.47 558.89 186.14 534.57 221.29 534.01 255.9 549.88 261.45 551.89 271 546.54 275.96 538.12 296.4 528.96 308.38 529.28 314.62 522.22 311.63 513.2 341 526.56 347.87 529.09 353.9 529.24 365.7 525.94 377.71 528.51 385.6 525.68 399.04 530.81 399.38 533.42 404.71 524.61 409.31 505.9 405.63 504.56 408.36 493.95 415.15 483.36 414.68 469.66 407.63 458.66 407.63 452.04 405.32 440.03 404.44 428.84 410.01 414.84 408.52 411.03 407.05 405.36 401.21 400.91 399.08 396.21 408.46 399.3 414.9 409.81 421.73 405.63 430 393.58 423.5 390.65 419.24 377.59 409.8 355.01 395.56 344.95 390.47 336.02 382.48 316.33 360.17 318.09 357.74 312.13 351.25 301.72 336.65 279.46 311.23 261.72 293.91 255.06 290.08 243.71 278.01 229.38 265.07 228.54 260.91 206.74 243.42 198.26 235.4 184.6 227.77 168.45 225.01 152.9 227.03 131.77 235.85 113.47 205.06 111.38 199.05 104.2 202.7 93.32 199.98 87.03 192.11 102.4 178.66 106.51 170.41 114.56 173.71 122.28 155.94 119.77 154.6 64.86 176 60.51 178.11 23.5 192.48 15.53 172.58 1 132.13 2.71 130.42 27.57 121.08 42.04 160.96 55 156.48 41.28 116.52 47 110.71 50.59 110.27 56.97 104.61 66.45 101.51 80.44 142.47 94.5 139.63 79.41 95.25 98.45 88.29 106.74 111.39 113.68 108.35 105.22 85.8 109.2 83.88 141.06 72.09 141.96 69.49 155.53 64.56 157.81 66.39 165.75 63.32 176.25 89.63 171.11 98.41 177.25 100.89 183.6 89.66 184.81 74.81 178.46 58.55 190.53 55.06 202.97 52.64 205.74 53.34 223.82 76.12 245.3 104.1 247.67 104.68 255.95 115.52 273.55 133.72 298.51 149.7 322.47 165.64 333.85 175.93 353.09 192.12 355.53 195.71 343.34 210.29 345.55 212.06 357.43 198.31 357.31 190.4 321.38 159.05 272.15 117.48 254.58 91.74 239.96 72.54 227.46 54.23 223.42 49.71 219.49 39.57 328.96 1 332.51 5.33 336.51 16.6 365.76 7.38 374.92 6 Z" id="23020000"/>
</g>
</svg>