<?xml version="1.0"?>
<svg xmlns="http://www.w3.org/2000/svg" version="1.2" baseProfile="tiny" width="800" height="807" viewBox="0 0 800 807" stroke-linecap="round" stroke-linejoin="round">
<g id="sigung">
<path d="M 658.03 424.77 655.45 427.1 654.31 424.21 651.88 426.89 654.73 433.7 676.16 438.1 703.46 443.99 723.53 447.99 726.07 444.46 728.2 445.42 725.7 448.61 732.54 454.66 735.98 459.31 738.41 464.43 741.14 472.42 742.72 482.76 742.28 492.92 741.26 498.67 739.4 505.07 736.49 511.29 708.08 547.05 706.67 551.25 706.64 554.94 704.34 560.97 694.15 573.32 676.86 595.56 671.5 599.94 665.52 601.79 662.91 603.91 641.64 630.85 640.3 635.05 640.18 639.28 638.14 644.28 630.15 654.32 627.8 656.58 623.87 662.23 606.21 684.57 598.67 690.67 592.45 693.97 588.22 694.92 581.14 694.6 576.43 693.08 571.9 690.37 550.59 673.61 545.63 680.1 551.45 685.28 533.4 708.41 526.07 703.18 523.33 705.64 513.27 712.76 508.21 715.81 500.68 719.45 500.71 720.12 520.19 735.29 521.33 738.87 468 760.72 462.46 758.68 448.34 752.48 431.97 752.38 398.89 752.41 381.59 757.67 381.32 768.04 380.76 769.65 369.23 769.47 364.44 770.13 359.56 769.52 351.31 769.5 346.85 770.08 333.18 769.49 330.39 770.98 318.66 770.86 266.67 770.83 266.7 764.66 265.9 760.96 218.78 760.98 216.05 760.73 216.08 727.39 215.6 726.82 208.26 726.81 208.66 757.1 185.33 757.56 175.69 796.81 187.69 797.44 188.13 805.23 159.46 806 159.72 798.27 171.77 797.97 182.39 757.61 140.81 758.43 91.65 758.31 75.45 792.28 86 798.5 85.3 805.87 1 805.43 1.22 790.12 66.75 789.17 84.16 756.5 82.75 756.15 96.12 732.74 99.94 727.29 73.02 727.34 72.73 730.47 70.34 730.79 69.93 727.33 15.98 727.35 15.88 666.94 20.74 666.86 104.28 666.86 167.42 666.77 254.72 666.91 258.23 667.12 364.35 667.06 371.57 666.58 377.88 667.12 432.59 667.09 451.1 681.35 467.49 660.28 467.45 659.2 325.4 549.45 312.32 539.51 311.15 540.94 288.58 523.48 289.74 521.93 260 498.83 227.25 473.65 220.38 463.34 206.39 441.43 187.39 412.1 187.3 405.71 187.31 366.73 176.32 358.02 176.31 329.38 187.25 320.71 187.37 320.26 187.43 257.21 187.29 182.15 186.74 181.75 173.87 181.83 163.29 182.4 155.39 181.74 147.74 182.45 139.82 181.81 132.81 182.43 122.38 181.77 118.01 182.42 113.95 184.44 108.63 183.58 104.63 185.85 100.28 184.55 98.5 179.18 97.24 177.74 92.25 175.01 90.46 173.05 60.97 156.43 61.01 99.94 76.59 99.82 76.52 128.91 131.15 154 132.75 154.17 136.07 148.13 135.94 146.44 138 142.69 139.5 141.89 142.93 135.64 142.8 133.95 144.86 130.2 146.36 129.4 149.78 123.15 149.66 121.45 151.72 117.7 153.21 116.9 156.82 110.34 176.62 98.93 177.33 98.03 219.89 98.06 220.34 90.97 221.66 91.28 221.56 98.09 269.93 98.02 270.82 94 274.92 94.37 275.46 98 333 98.06 333.26 98.37 344.33 168.07 358.12 161.04 357.81 156.64 356.47 153.09 351.78 145.25 350.47 137.78 351.46 128.84 350.28 127 347.55 130.3 348.61 122.71 351.6 115.25 353.17 108.77 347.26 74.64 345 70.05 338.95 68.21 338.26 67.57 336.75 58.66 337.56 57.64 342.9 56.85 344.83 57.76 346.53 65.86 349.11 61.63 352.08 59.63 351.91 64.24 355.19 65.35 361.54 69.83 364.67 69.66 369.37 70.7 373.34 64.57 380.6 65.99 391.55 62.45 400.08 62.43 404.36 60.94 412.36 55.23 416.61 50.99 420.78 49.66 420.16 47.09 423.35 37.15 430.31 34.75 435.67 34.83 440.49 36.42 445.36 34.73 451.68 34.01 455.61 34.63 465.5 33.43 466.82 32.3 476.96 31.53 483.91 34.8 488.64 31.96 492.54 32.25 496.2 34.56 501.05 32.15 503.17 30.16 505.46 30.8 509.69 35.36 512.14 36.48 517.55 36.21 520.97 36.82 522.89 38.88 527.85 42.19 528.79 44.15 534.47 49.18 543.19 51.35 551.82 51.37 556.15 50.44 562.74 55.29 563.78 57.23 574.29 64.33 587.09 67.33 598.55 69.69 604.34 71.77 611.18 66.37 613.2 63.48 622.21 64.61 630.42 69.44 633.91 69.94 640.84 68.07 646.05 69.21 648.86 71.43 657.06 72.89 665.65 73.25 668.41 69.15 667.09 63.02 673.95 58.42 676.63 46.58 688.64 48.51 732.69 47.23 739.09 45.33 741.94 45.88 739.92 38.99 737.6 33.79 730.97 20.91 733.63 18 730.11 12.54 728.24 6.41 735.4 5.63 762.47 5.98 764.98 3.84 770.26 3.9 772.38 1 773.95 4 788.64 4.37 789.21 6.26 787.79 18.56 794.15 28.24 795.38 33.51 798.85 41.27 799 44.98 796.88 57.04 793.98 68.91 792.41 73.88 791.97 81.19 792.3 87.43 790.08 87.75 790.1 96.93 788.14 104.8 785.97 109.58 782.24 115.59 748.19 158.1 705.36 196.4 693.41 208.47 674.92 226.54 670.17 235.62 668.15 241.78 665.84 250.88 664.58 259.79 661.9 267.4 657.17 274.88 652.26 279.42 648.51 281.93 635.14 288.07 626.3 292.98 618.13 299.37 613.44 304.2 595.85 323.8 566.21 356.23 550.48 373.08 548.36 371.5 546.85 373.46 554.25 378.96 571.38 391.06 578.12 394.95 586.78 398.88 594.28 401.43 606.37 404.32 644.89 412.57 658.64 415.8 655.16 421.39 658.03 424.77 Z M 455.55 679.43 452.9 682.83 495.32 715.61 500.87 713.08 510.13 707.7 520.32 700.48 517.38 697.88 508.28 691.09 469.97 661.33 469.64 661.33 455.55 679.43 Z" fill-rule="evenodd" id="23040000"/>
</g>
</svg>