<?xml version="1.0"?>
<svg xmlns="http://www.w3.org/2000/svg" version="1.2" baseProfile="tiny" width="800" height="871" viewBox="0 0 800 871" stroke-linecap="round" stroke-linejoin="round">
<g id="sigung">
<path d="M 710.5 74.15 713.2 74.47 723.11 72.13 733.01 73.63 738.74 72.08 740.02 69.22 746.05 68.64 749.99 70.41 758.44 77.1 762.84 74.68 768.72 74.97 776.08 70.11 780.65 73.65 783.68 73.87 781.52 82.98 781.34 89.44 786.46 95.38 792.28 104.61 790.52 109.17 793.38 114.87 794.1 122 792.85 124.64 794.93 126.33 791.93 133.7 783.97 148.29 780.32 153.05 785.81 159.68 788.13 175.79 787.92 180.21 784.28 183.57 780.42 185.51 779.09 194.14 777.83 198.26 777.59 202.5 782.38 203.94 799 221.76 796.01 226.37 797.03 229.99 795.91 235.76 791.74 246.83 789.04 256.53 783.47 256.22 752.02 260.88 737.16 271.39 732.52 275.91 730.51 278.8 728.06 287.34 732.88 292.99 733.49 296.91 727.81 304.88 716.86 316.71 713.31 322.86 716.62 325.38 719.54 330.74 721.4 336.22 720.47 341.01 724.03 346.07 726.72 357.58 727.52 365.22 729.13 370.73 728.71 372.68 733.92 384.26 734.12 393.42 733.44 399.26 731.03 403.27 730.43 408.73 727.1 415.18 721.97 419.1 718.37 424.02 722.36 426.93 726.27 427.81 733.06 428.07 729.58 443.11 723.1 452.95 719.73 463.12 711.77 465.78 706.49 470.12 695.19 472.62 686.88 475.98 671.19 473.63 670.83 468.92 663.57 472.93 658.98 473.51 653.38 471.29 651.7 468.04 648.05 468.25 644.16 472.15 645.9 477.92 644.53 484.11 640.98 486 636.74 486.29 632.68 490.32 627.19 492.85 624.85 495.22 624.46 497.84 621.04 500.88 619.9 505.11 617.78 504.97 615.35 501.61 607.77 505.08 620.24 544.6 619.82 547.39 615.42 550.75 604.48 559.04 603.53 560.75 596.64 606.96 595.32 609.89 578.75 633.32 574.11 639.49 550.21 647.21 546.94 649.68 545.61 656.27 537.35 658.56 538.43 659.81 540.17 668.77 545.25 687.87 542.49 691.08 538.73 693.19 542.36 695.83 533.26 698.5 527.98 700.85 525.47 705.98 521.53 708.13 522.13 711.37 515.98 719.15 513.96 718.53 510.95 723.39 507.59 726.36 506.78 730.97 502.29 731.27 499.26 734.27 495.53 732.79 490.51 735.21 471.31 756.84 468.99 759.13 460.76 769.48 457.04 777.93 452.84 784.57 439.78 796.7 430.09 809.1 417.89 825.48 414.63 826.43 413.7 828.88 405.16 837.22 392.23 848.92 382.48 858.16 380.7 858.36 374.55 856.11 371.69 854.19 348.47 856.87 356.7 859.75 359.19 862.09 358.49 866.85 353.36 870 347.55 868.07 339.09 867.66 323.96 864.19 313.19 859.57 306.02 858.02 302.93 860.01 290.41 857.37 229.11 844.07 221.02 841.92 220.15 839.35 214.36 837.98 212.38 838.84 206.14 846.54 204.33 844.92 209.71 838.67 205.25 836.05 172.78 828.94 139.82 821.98 135.14 822.53 129.29 820.45 124.6 828.42 121.42 824.67 125.28 818.46 110 814.87 67.17 805.69 53.73 802.48 45.39 799.65 35.76 795.28 28.27 790.95 9.22 777.51 1 771.39 2.68 769.22 5.03 770.97 22.52 752.24 55.48 716.19 75.03 694.4 80.25 689.03 89.33 681.93 99.16 676.47 114.03 669.65 118.2 666.86 123.65 661.81 128.91 653.5 131.89 645.04 133.29 635.13 135.86 625.02 138.1 618.17 143.38 608.07 163.95 588 177.23 574.58 224.84 532 262.7 484.74 266.86 478.07 269.27 472.75 271.44 464.01 271.42 453.8 273.88 453.44 273.52 446.51 274 438.38 275.76 432.85 278.98 419.66 281.34 406.26 281.17 402.13 277.32 393.51 275.94 387.65 268.87 376.88 270.45 363.21 269.82 361.12 253.48 360.71 251.74 357.37 255.56 323.89 248.34 323.32 240.56 321.71 210.24 311.33 206.1 309.18 199.61 303.29 198.61 303.75 187.47 293.17 190.66 291.82 193.06 289.11 193.19 285.53 191.53 283.71 184.69 280.13 185.99 276.6 188.27 265.42 183.27 265.04 184.17 251.82 195.14 252.58 196.39 234.31 199.66 224.46 200.63 214.08 196.87 211.21 198.38 198.24 196.87 198.06 198.08 187.59 203.07 183.4 203.93 176.1 208.7 169.29 216.03 164.88 193.5 135.68 186.96 136.3 185.48 133.31 184.32 125.75 166.16 124.38 143.09 121.36 146.32 96.76 126 92.03 135.99 73.8 139.25 67.85 154.85 80.6 167.58 81.23 170.54 83.44 175.76 85.13 183.96 91.53 187.01 93.06 190.67 89.95 211.61 101.84 219.76 104.58 223.39 98.4 231.58 102.51 242.46 106.15 256.8 108.9 258.43 108.75 259.61 101.12 267.97 102.62 269.94 91.78 282.24 94.02 291.74 94.26 292.03 83.27 289.29 83.2 290.76 77.46 294.25 72.83 299.55 60.73 300.43 48.68 301.51 40.36 303.23 32.42 307.7 18.89 312.16 1 315.14 7.31 315.65 12.45 318.88 23.37 322.44 25.4 329.9 27.68 335.67 32.71 337.87 32.12 340.85 33.9 345.71 32.61 355.12 39.06 359.96 43.37 364.05 50.82 367.4 55.69 372.03 57.25 374.72 59.85 376.31 65.67 382.88 71.38 382.62 74.19 384.16 79.16 389.58 87.64 392.94 88.41 397.39 87.73 400.77 89.28 406.88 89.5 412.29 87.7 418.03 87.78 422.05 85.84 424.81 81.74 425.16 77.39 428.58 74.21 435.22 72.34 438.56 69.08 444.37 68.3 449.1 69.12 452.59 62.42 465.9 71.85 496.34 79.38 502.72 81.58 508.29 80.41 512.18 84.71 520.43 90.92 528.94 94.57 534.23 106.84 536.26 115.78 539.9 120.12 549.49 120.96 551.14 122.33 550.42 129.58 554.19 131.32 558.41 135.4 559.65 137.95 566.82 129.56 570.8 127.62 578.72 126.04 581.3 127.49 583.6 126.09 602.54 134.59 605.63 134.71 612.55 132.37 615.79 128.85 619.69 117.87 622.22 116.11 626.23 115.08 629.58 110.46 633.36 103.27 635.51 97.42 641.73 97.03 646.66 94.45 650.5 95.15 658.74 95.46 672.48 90.83 698.51 91.95 702.48 85.96 705.15 84.18 710.02 76.66 710.5 74.15 Z" id="23050000"/>
</g>
</svg>