<?xml version="1.0"?>
<svg xmlns="http://www.w3.org/2000/svg" version="1.2" baseProfile="tiny" width="800" height="710" viewBox="0 0 800 710" stroke-linecap="round" stroke-linejoin="round">
<g id="sigung">
<path d="M 730.12 1 731.56 7.89 729.37 12.04 732.62 17.41 732.81 52.9 726.96 57.16 729.09 60.15 727.99 80.04 724.63 82.02 731.81 86.71 731.03 94.81 729.57 97.96 721.33 102.12 713.28 98.24 710.31 99.62 698.6 98.32 696.81 93.71 691.82 89.67 686.4 90.62 680.36 88.18 675.19 92.08 669.23 89.55 667.85 86.72 662.45 87.09 660.47 89.85 660.57 94.13 651.78 91.48 649.72 98.06 654.25 101.08 655.01 103.64 647.17 106.01 645.16 107.77 633.67 111.27 632.38 120.21 629.86 120.31 624.9 116.4 622.85 112.41 608.38 110.26 606.22 111.64 604.58 116.8 599.4 114 596.6 106.3 590.55 108.92 591.02 111.58 586.06 118.72 579.83 137.02 572.15 164.81 563.9 172.06 551.47 179.78 552.94 181.71 554.93 192.13 558.24 197.26 558.62 206.16 560.96 221.68 564.32 232.38 564.48 239.44 567.37 247.45 572.68 265.3 572.66 269.56 569.97 280.68 567.67 294.45 563.1 307.02 560.42 316.93 559.51 323.83 554.53 338.93 553.73 344.98 554.59 362.75 556.04 378.93 558.16 385.11 559.76 398.66 559.37 412.93 560.64 423.99 559.11 441.57 565.67 446.74 572.86 448 582.32 451.44 589.41 452.67 593.6 457.9 606.22 460.95 617.3 461.99 623.84 463.39 631.36 460.02 639.46 464.03 645.37 468.31 653.92 469.77 673.03 480.91 677.87 487.17 683.84 490.33 681.85 501.03 678.22 513.5 680.77 514.78 686.6 513.77 689.09 525.86 694.85 529.12 700.81 535.44 704.79 537.95 709.34 538.48 709.62 543.49 713.1 553.82 717.82 561.11 724.54 564.37 729.4 567.91 738.26 564.98 746.46 571.7 746.43 575.72 762.08 578.08 768.88 581.51 774.56 581.9 780.98 589.83 780.73 592.63 785.69 592.92 792.7 600.15 797.64 610.04 797.07 615.53 799 622.81 798.36 626.21 791.78 636.37 788.17 638.76 782.81 646.86 747.65 645.35 729.09 651.6 717.97 651.18 712.78 650.25 706.12 653.72 697.72 654.25 694.81 662.16 689.71 671.87 685.18 678.1 679.76 679.49 676.35 681.88 671.08 696.7 666.7 701.46 657.36 704.62 653.18 704.46 627.6 692.99 624.49 694.87 621.01 692.91 610.32 695.05 604.94 697.67 595.26 709 593.58 705.55 587.88 700.05 582.79 697.69 583.76 687.9 581.52 686.05 568.58 684.91 563.66 679.06 560.91 666.98 553.77 650.4 542.28 645.48 531.14 637.09 525.88 631.28 518.36 632.85 509.74 629.88 468.62 619.71 450.66 606.98 445.93 616.02 439.54 614.92 431.7 615.97 427.18 620.38 418.23 622.89 413.6 627.19 413.13 633.06 409.4 638.6 403.97 641.23 396.22 641.12 388.92 643.55 380.66 643.26 376.09 641.17 370.08 642.08 365.54 641.04 358.22 629.58 356.15 622.87 356.5 619.07 347.62 611.35 345.47 603.5 341.84 599.98 335.58 597.88 331.06 591.3 325.54 581.23 319.01 575.41 306.29 566.7 299.73 568.45 295.7 566.03 292.73 566.83 284.93 560.04 274.86 556.95 270.05 554.21 265.69 539.47 265 532.53 260.98 524 254.95 548.16 248.91 566.44 246.59 577.16 245.12 588.4 243.95 604.69 236.78 621.04 232.07 627.29 230.09 635.04 233.78 635.14 233.39 649.98 220.56 649.65 203.95 646.63 201.29 661.27 190 659.25 188.41 669.56 186.2 669.76 166.83 666.05 152.13 661.13 141.07 655.58 136.17 663.92 125.16 660.22 96.88 644.16 91.94 648.35 87.81 646.3 76.75 637.65 69.69 635.37 65.69 632.38 48.5 631.52 27.44 614.3 8.58 598.97 70.11 533.21 68.52 529.15 66.39 517.08 71.79 516 67.6 505.87 63.96 491.86 64.43 485.11 73.78 476.52 89.63 473.91 85.71 462.15 101.04 456.99 109.98 458.64 115.22 461.23 120.06 460.44 127.17 462.94 139.56 457.01 153.68 463.77 154.47 458.67 153.29 451.03 150.59 444.69 141.37 436.59 139.24 436.2 134.87 430.62 133.54 424.41 139.07 411.73 134.87 399.44 125.25 396.42 117.24 391.42 108.44 383.12 104.7 375.43 108.17 370.09 95.22 373.47 89.34 371.71 84.13 374.8 77.56 373.59 75.36 361.34 82.17 354.2 84.89 348.37 89.94 344.17 90.66 340.78 74.84 327.46 69.58 325.04 69.5 319.41 67.31 311.81 54.1 302.01 55.55 294.4 62.91 287.05 68.34 284.89 75.62 278.55 74.02 270.67 84.78 265.22 78.85 247.74 75.12 242 65.3 231.68 56.61 229.83 51.08 222.92 52.13 214.33 54.58 205.59 54.02 193.04 52.27 185.73 46.8 184.39 34.49 176.75 35.11 140.76 27.54 131.96 18.73 125.32 12.45 115.02 1.39 112.32 1 97.46 1.25 82.64 11.71 61.46 15.19 58.73 21.76 49.15 29.03 40.76 28.68 26.76 39.34 17.42 47.03 14.76 53.85 14 57.49 5.1 77.56 5.31 439.35 2.59 473.6 2.4 491.22 2.65 621.82 1.97 676.72 1.35 730.12 1 Z" id="23060000"/>
</g>
</svg>