<?xml version="1.0"?>
<svg xmlns="http://www.w3.org/2000/svg" version="1.2" baseProfile="tiny" width="800" height="624" viewBox="0 0 800 624" stroke-linecap="round" stroke-linejoin="round">
<g id="sigung">
<path d="M 799 108.44 796.11 119.8 793.09 120.65 794.49 134.73 795.35 136.63 795.53 150.26 792.12 150.74 792.04 145.48 790.73 136.78 790.4 130.22 788.88 122.14 784.67 113.02 782.37 110 781.18 115.21 777.96 117.13 778.56 131.73 776.77 142.41 772.42 143.64 768.09 142.82 761.89 151.04 766.84 161.99 762.75 160.41 759.55 156.64 757.94 157.11 755.8 161.84 739.03 168.22 733.01 171.7 730.12 174.11 718.88 179.35 716.96 183.24 717.25 187.71 715.23 195.34 712.05 198.11 712.29 200.29 715.37 201.52 720.38 206.58 718.7 208.76 711.06 209.87 705.73 207.03 705.18 208.97 708.79 212.34 709.69 214.97 714.5 216.88 713.23 221.21 708.33 222.87 705.06 226.66 704.74 232.64 703.38 234.15 696.11 226.38 694.67 230.39 695.16 235.15 686.15 238.12 681.8 241.36 680.02 245.1 677.57 244.88 675.7 237.23 669.1 235.2 670.23 231.45 668.98 227.23 664.58 231.71 664.5 235.26 666.17 238.81 667.16 248 669.32 248.94 673.29 254.72 674.04 257.57 681.07 267.26 678.52 271.52 677.71 279.22 683.93 280.05 684.13 285.36 686.91 299 682.74 297.55 681.57 294.1 674 283.76 669.93 284.06 669.38 287.58 664.2 288.32 665.75 291.07 660.19 298.89 661.05 302.48 656.17 300.23 653.27 306.64 650.09 305.55 647.97 311.65 643.55 312.73 653.18 322.3 647.47 327.12 644.73 327.28 637.55 325.31 629.67 324.89 623.88 325.9 621.64 328.55 610.65 330.01 606.64 327.11 605.1 329.18 607.57 331.3 606.68 333.48 602.3 334.58 595.5 339.16 592.01 340.69 593.6 343.98 602.56 344.73 605.05 347.74 603.64 351.42 599.94 353.44 601 356 605.08 358.37 605.9 361.49 600.56 365.7 599.59 371.63 595.28 375.3 591.99 379.37 587.44 380.91 591 383.96 597 384.41 599.63 387.47 599.01 390.58 586.98 389.3 585.92 390.67 587.58 393.98 591.62 397.5 587.13 403.35 587.71 409.82 583.56 418.21 583.11 422.17 583.95 426.75 583.54 431.03 580.86 434.62 580.68 437.39 582.45 441.5 580.63 443.74 576.3 445.43 578.42 448.74 585.72 449.93 585.83 453.66 574.44 460.48 570.25 460.26 570.02 462.11 572.68 465.03 577.79 468.64 576.03 472.23 571.17 472.07 570.59 475.75 575.79 482.53 575.42 484.17 571.7 486.79 565.24 486.47 565.8 490.97 569.57 492.52 572.23 497.45 571.58 499.36 563.95 499.24 564.63 503.65 563.28 508.22 566.24 510.53 560.27 518.18 563.22 523.69 561.31 532.53 562.36 536.37 561.03 541.47 561.96 554.72 560.57 559.24 562.79 563.19 561.02 565.06 561.55 571.33 560.81 575.99 561.31 580.23 560.6 586.4 562.01 588.06 560.85 593.39 561.29 596.82 559.77 607.9 561.17 619.77 521.14 620.03 479.99 620.5 382.09 621.01 368.88 620.82 343.2 620.96 72 623 56.96 622.84 55.63 616.47 52.76 609.96 50.64 609.27 47.19 601.4 45.31 599.41 44.67 593.11 45.69 581.73 40.96 562.06 40.93 559.6 28.49 557.77 12.95 554.88 9.8 545.55 13.22 536.6 19.32 526.47 17.79 519.37 24.03 515.45 38.67 514.63 42.88 515.74 49.89 512.49 58.03 511.77 65.45 513.73 71.4 512.99 74.78 511.11 81.14 502.84 78.63 492.76 77.56 481.53 82.25 466.59 86.86 464.59 91.29 465.01 97.46 460.19 107.26 461.37 111.56 458.41 118.17 458.08 121.98 464.22 129.62 471.2 133.2 471.84 140.54 467.65 144.66 466.92 156.03 466.65 162.21 458.63 170.9 460.8 179.11 460.06 181.7 454.95 185.56 452.02 183.11 444.18 176.1 433.49 193.34 422.64 197.4 409.49 203.45 400.81 212.14 381.24 214.31 378.99 216.4 374.53 215.78 367.52 219.55 364.96 211.98 354.02 197.82 344.08 188.54 334.14 180.53 324.78 175.73 327.31 159.71 330.21 150.16 331.47 145.67 325.74 140.24 320.79 137.78 316.34 132.34 311.24 131.35 307.19 151.24 293.4 153.2 283.02 153.56 272.09 157.83 261.97 157.34 256.36 144.13 255.29 136.15 252.16 137.05 242.85 131.36 231.25 124.05 230.33 124.24 221.32 123.57 219.19 128.9 213.65 132.39 204.31 134.87 202.8 137.91 194.06 136.01 191.54 129.35 189.36 128.9 180.84 122.46 179.02 119.81 176.84 115.69 177.95 108.11 176.86 101.11 172.13 92.84 171.66 88.46 169.53 83.68 165.33 78.75 165.29 70.11 163.53 68.74 162 65.8 153.32 62.08 151.93 57.89 145.44 51.33 148.92 48.81 151.61 45 151.44 38.56 155.27 35.21 156.06 28.27 151.39 20.56 147.1 14.9 144.91 12.66 147.69 9.73 146.27 7.89 143.54 7.57 132.94 4.66 128.49 1 120.1 2.08 112.72 1.78 108.42 3.3 107.83 8.47 101.72 8.6 90.89 7.24 87.8 16.16 88.95 19.68 88.75 24.1 84.15 28.33 83.22 37.51 84.5 43.58 87.01 46.65 89.46 51.97 91.57 54.08 91.37 56.16 93.99 63.3 95.94 66.78 93.01 71.14 96.26 76.83 99.05 81.28 98.84 88.23 99.77 93.01 102.53 99.69 107.43 100.84 109.2 110.46 108.93 113.92 109.51 118.82 108.3 124.67 109.53 130.01 113.01 136.89 112.15 141.95 116.37 147 119.05 151.87 117.57 154.97 115.37 159.94 119.61 164.46 121.62 165.89 124.35 168.67 122.79 172.94 122.84 178.62 121.81 189.55 122.14 193.37 125.31 207.77 132.43 212.02 132.4 217.69 133.93 219.37 136.12 230.89 142.2 239.21 135.73 242.67 130.52 248.99 128.16 251.5 126.36 253.33 120.38 256.14 118.74 257.75 113.37 262.06 106.43 261.81 102.27 264.31 95.58 263.17 92.36 259.67 87.07 264.1 82.6 258.69 75.95 263.82 68.93 259.39 64.36 261.65 62.06 264.85 54.34 268.01 52.25 268.07 49.07 270.64 49.33 282.05 37.63 288.53 30.36 296.94 23.66 303.25 20.13 308.94 16.18 315.89 15.7 328.54 15.48 333.12 10.08 338.99 8.23 342.43 7.95 347.34 12.76 350.4 13.14 357.4 16.83 373.11 19.52 374.16 23.24 377.68 24.11 380.94 22.03 383.74 26.5 389.57 27.45 394.97 26.19 395.8 23.8 395.57 14.07 396.04 6.15 403.3 2.17 409.96 1 414.67 6.45 412.48 9.17 428.89 5.95 430.53 14.27 449.51 10.55 456.04 44.2 462.3 44.7 463.79 46.66 464.55 51.85 467.14 57.41 470.02 61.33 473.7 64.52 471.15 66.17 475.92 71.28 480.2 77.42 484 78.99 486.76 83.74 487.94 88.95 486.88 97.64 487.42 108.86 486.08 112.22 497.93 117.08 498.28 121.1 501.21 125.11 502.97 125.47 514.13 121.22 518.47 120.47 520.09 118.55 522.7 120.74 529.3 117.55 532.34 113.95 528.94 110.38 528.61 108.02 529.87 101.71 529.51 96.23 531.71 95.72 532.2 90.6 539.81 82.04 546.29 75.54 550.76 77.61 554.28 76.77 556.9 77.56 565.31 75.33 568.7 75.44 572.61 73.65 574.48 76.61 582.16 78.12 584.46 76.87 584.96 73.52 587.48 70.01 589.46 70.31 593.44 66.28 608.27 57.9 612.47 48.42 619.06 51.22 618.99 52.43 626.39 56.94 632.23 63.47 637.36 68.43 645.14 72.68 648.47 75.86 652.4 77.36 660.97 76.91 665.59 78.87 670.78 77.32 674.1 77.56 678.5 80.99 690.48 81.17 699.97 83.46 701.91 84.97 708.34 87.39 716.25 86.8 716.55 88.28 731.14 99.46 751.24 73.16 751.99 72.86 785.38 98.45 799 108.44 Z" id="23070000"/>
</g>
</svg>