<?xml version="1.0"?>
<svg xmlns="http://www.w3.org/2000/svg" version="1.2" baseProfile="tiny" width="800" height="982" viewBox="0 0 800 982" stroke-linecap="round" stroke-linejoin="round">
<g id="sigung">
<path d="M 115.87 542 117.75 543.17 117.85 545.98 119.07 546.96 118.86 549.28 116.58 548.47 113.94 546.22 110.23 540.27 111.18 537.68 113.59 538.6 115.63 540.32 115.87 542 Z M 154.11 528.85 156.77 528.45 160 528.91 162.9 530.99 165.05 534.25 164.06 536.14 165.61 539.3 165.21 541.49 160.35 542.81 157.88 540.93 156.67 537.1 151.56 536.59 144.47 531.82 151.24 528.03 154.11 528.85 Z M 72.11 485.69 75.35 485.79 76.98 486.94 77.37 489.2 76.1 492.19 68.08 492.47 66.77 489.06 66.92 487.38 68.64 485.88 72.11 485.69 Z M 56.99 479.71 55.97 480.79 54.04 479.33 55.49 476.64 56.99 479.71 Z M 5.19 365.12 1.65 362.48 1 361.3 3.18 360.04 5.19 365.12 Z M 12.55 352.41 15.85 353.12 18.84 356.64 23.55 363.22 26.26 365.71 28.09 365.65 33.38 370.24 35.82 371.38 39.97 374.87 41.73 373.39 47.23 374.61 51.84 373.63 53.3 375.8 53.98 378.27 55.31 380.19 57.96 381.93 60.06 382.26 61.45 384.82 63.95 386.49 68.4 387.33 70.29 386.84 73.33 384.74 76.1 385.51 80.27 389.34 82.81 388.84 84.5 392.59 78.95 395.19 78.9 396.64 80.27 398.67 78.75 402.71 74.63 405 72.94 405.1 71.57 403.23 70.62 400.44 71.02 398.06 70.03 394.58 64.96 393.41 61.97 395.34 59.33 394.46 56.44 396.35 53.45 397.42 52.6 398.82 50.02 399.23 49.09 398.09 37.49 394.55 30.97 390.28 29.77 389.13 25.51 388.33 22.72 385.71 23.09 383.96 25.56 382.06 25.17 378.25 25.76 376.91 22.4 372.46 15.6 375.23 11.97 374.75 9.1 372.46 8.92 368.71 8.17 367.03 9.92 365.29 10.17 360.13 11.48 359.29 10 352.5 12.55 352.41 Z M 799 279.89 794.44 280.2 790.72 282.8 786.58 285.11 781.07 289.5 776.83 294.26 769.35 301.93 767.67 301.76 767.63 303.84 765.56 305.22 763.46 310.28 761.98 311.79 764.89 314.78 761.53 319.38 765.07 323.74 762.17 326.67 764.46 330.14 765.21 332.25 763.57 336.64 763.73 339.36 760.91 343.91 759.85 347.43 758.01 348.5 756.81 352.42 755.17 353.6 751.03 355.15 748.76 358.56 743.31 362.81 735.76 358.82 734.67 357.39 730.95 356.38 728.17 356.4 718.73 351.73 716.23 349.66 709.07 349.44 705.34 350.11 702.55 350.08 700.72 351.1 699.79 349.32 696.83 348 693.57 345.22 691.54 346.66 688.35 347.63 685.04 345.88 681.72 343.11 677.22 343.67 673.72 341.39 669.89 340.58 666.68 341.38 664.41 341 658.11 341.17 657.35 340.02 652.98 336.8 649.85 334.99 645.29 334.39 642.38 334.52 638.65 332.69 635.79 330.56 633.52 332.49 628.83 331.21 627.47 329.49 626.09 329.62 622.6 328.24 620.59 326.63 616.62 324.98 610.6 324.15 607.83 324.76 604.93 327.77 602.63 327.9 596.78 327.15 597.68 329.18 597.59 336.27 594.21 340.28 593.21 340.66 593.4 343.48 592.7 348.32 595.1 353.82 597 356.74 597.21 363.68 598.42 365.47 600.34 366.41 601.8 364.58 605.51 366.02 610.56 368.83 615.11 371.89 617.3 371.37 621.53 368.86 624.02 368.97 625.67 367.21 629.97 364.93 632.71 369.18 635.15 370.09 637.08 375.78 637.98 376.78 643.63 377.94 646.87 377.97 650 380.72 652.86 382.11 658.29 382.42 662.87 385.53 667.84 386.24 670.54 385.51 672.27 386.94 676.49 388.13 676.79 393.72 681.15 395.15 682.39 396.8 680.4 402.52 678.78 403.52 676.49 409.63 673 413.27 673.44 414.66 673.31 420.57 678.1 421.17 681.83 428.78 681.24 434.88 686.47 436.93 695.12 437.63 695.44 441.31 692.65 447.94 692.41 455.11 691.13 461.91 678.1 470.95 678.74 473.6 682.31 476.95 683.92 479.86 687.48 483.11 690.42 486.87 696.67 486.04 707.17 484.14 710.32 482.48 715.57 488.62 721.65 495.13 730.92 501.65 735.88 508.82 733.41 510.49 733.82 515.09 732.45 518.01 731.03 519.48 725.34 532.32 721.37 538 718.71 546.62 707.41 553.73 712.01 560.74 713.61 565.88 711.08 567.8 709.39 571.15 704.01 571.63 698.31 570.21 694.27 575.47 686.82 575.65 684.12 576.12 679.31 578.87 676.97 578.45 671.96 573.88 669.46 569.85 665.13 570.07 662.31 572.01 655.89 571.23 651.85 574.4 648.95 574.12 645.93 575.43 642.85 585.22 643.56 592.58 645.2 599.19 641.03 604.61 638.82 605.85 634.92 606.33 630.06 605.04 624.73 605.51 620.13 607.64 617.37 606.92 607.79 607.45 603.69 610.03 604.7 614.68 600.7 621.32 598.46 627.19 600.53 633.3 610.7 635.19 618.85 636.4 618.88 638.01 621.98 650.9 621.31 658.36 621.73 662.49 622.96 663.79 625.22 668.95 626.61 669.41 628.49 673.67 629.36 677.85 627.57 682.22 624.22 682.59 620.45 683.9 615.21 688.48 615.38 695.36 611.81 699.48 608.58 704.19 606.88 705.53 601.74 715.93 601.62 723.21 601.81 730.51 607.24 731.84 610.32 736.89 614.65 740.15 618.37 744.48 618.06 762.15 624.11 765.9 626.79 766.56 627.65 770.15 627.93 776.32 626.73 780.61 626.21 784.83 628.93 788.22 633.19 789.13 638.02 794.2 639.85 797.02 642.76 805.6 637.48 808.28 638.27 812.15 634.69 815.27 632.02 816.33 628.41 819.93 627.7 823.67 634.18 828.48 635.26 832.22 635.3 834.98 637.88 836.17 645.65 842.71 645.3 844.38 642.82 846.44 641.48 849.3 638.13 852.81 639.22 858.83 642.45 859.42 645 857.91 647.89 858.77 654.25 857.11 652.54 859.73 654.38 863.51 658.7 867.58 662.64 870.04 667.36 871.53 669.43 877.56 666.71 883.79 667.36 886.84 669.51 889.58 670.55 889.77 675.08 893.75 676.41 896.86 676.99 900.61 676.6 903.12 669.67 899.8 663.58 902.71 660.09 901.48 657.71 901.87 655.14 900.6 650.75 899.79 643.22 902.32 645.14 908.1 637.36 909.38 632.77 913.6 632.54 916.91 634.33 923.79 636.38 928.77 633.73 929.3 634.78 935.23 635.56 937.22 605.34 969.52 614.6 977.05 612.43 981 609.06 975.27 601.66 970.42 591.41 968.3 576.98 962.66 560.87 957.68 559.47 957.38 559.87 949.58 545.41 944.64 544.77 943.69 523.36 923.42 512.78 913.59 499.99 904.63 486.1 895.24 403.79 839.21 400.48 840.27 403.42 837.64 402.86 834.09 403.05 829.02 397.79 824.48 398 789.88 357.63 789.6 357.52 811.8 352.3 816.1 338.04 830.24 320.63 830.7 320.13 831.54 320.21 836.01 235.56 837.91 235.32 829.34 234.79 826.85 234.93 813.86 234.96 778.79 234.81 778.04 234.73 762.5 234.16 757.83 234.82 755.04 237.61 753.21 237.82 751.05 235.24 749.71 236.88 744.84 233.67 743.95 229.95 738.02 228.09 733.49 228.15 730.82 227.39 718.83 224.31 718.41 224.28 714.5 227.76 715.62 227.73 656.84 266.42 656.82 265.8 652.18 263.8 651.83 257.69 651.75 227.91 651.76 227.52 651.38 227.53 619.63 212.02 619.64 212.02 613.17 213.07 612.16 213.07 607.6 212.02 606.54 212.02 601.39 209.65 601.39 209.65 587.2 238.56 587.17 238.89 582.06 209.3 582.07 200.17 530.31 208.07 527.43 204.96 520.65 220.1 514.66 220.41 514.22 229.17 511.02 234.38 508.52 243.8 503.45 245.9 501.53 247.05 498.38 249.76 496.33 246.54 495.41 235.3 484.59 226.03 475.46 225.18 473.36 223.02 471.26 221.29 472.19 220.37 468.83 223.31 466.24 224.78 465.73 221.12 455.01 190.59 454.99 189.55 452.1 187.39 454.18 187.57 456.9 185.5 457.83 184.1 456.64 180.51 457.33 180 458.41 173.68 452 171.88 449.28 170.83 449.77 163.29 440.41 167.59 439.45 154.12 424.5 156.38 420.11 164.05 406.44 164.01 406.15 152.8 387.31 134.05 355.4 125.63 341.38 117.63 327.7 99.93 297.85 171.33 275.77 178.38 273.04 177.66 270.99 208.27 252.04 223.36 243.84 233.79 236.34 242.36 228.96 249.81 220.62 261.03 204.07 283.74 194 289.14 197.55 289.91 198.87 291.21 204.98 293.57 209.03 295.53 210 303.6 210.13 304.66 207.25 305.75 206.37 307.92 206.65 309.03 210.24 309.8 210.66 314.11 209.29 317.06 211.53 319.95 212.17 322.21 213.59 323.78 213.28 325.75 210.94 327.45 212.06 327.2 213.43 325.03 216.36 326.43 218.18 329.66 217.21 331.13 214.59 333.84 215.64 336.83 215.24 335.59 207.38 335.7 204.54 336.76 203.38 345.41 197.32 346.07 193.59 345.79 191.25 346.64 187.63 348.74 184.83 350.82 179.83 352.6 176.94 353.82 171.62 353.08 165.47 354.02 162.39 358.01 158.15 359.07 154.83 362.32 153.12 363.41 151.85 364.31 147.63 366.31 143.4 367.45 137.5 366.02 133.01 364.34 131.76 364.58 129.42 367.77 126.93 368.66 124.72 370.85 122.26 371.59 118.84 372.99 118.1 376.36 119.08 379.11 116.21 381.94 115.03 383.81 113.17 386.62 112.36 386.45 109.74 387.3 107.17 385.76 104.7 387.88 100.96 389.64 94.4 388.01 92.16 390.97 85.31 389.79 83.31 390.57 80.34 390.46 76.45 389.2 73.02 386.77 69.63 388.61 67.12 396.07 70.92 399.09 71.81 400.5 74 402.75 74.98 407.74 72.49 409.69 72.8 411.02 71.54 413.48 67.24 419.59 66.4 424.76 64.87 429.64 65.49 431.99 68.93 436.18 70.97 437.74 67.99 438.31 62.49 443.05 58.67 444.02 53.26 448.03 45.42 450.05 43.62 451.62 40.97 452.33 28.83 456.73 26.31 456.4 20.38 458.01 18.69 457.08 16.16 456.54 12.31 455.62 9.73 457.54 6.39 457.39 5.53 461.69 1 464.67 3.17 468.41 8.46 476.34 10.13 484.23 10.03 491.04 6.05 494.04 8.43 496.53 11.27 498.78 14.75 503.73 17.82 509.98 16.93 513.29 20.43 517.55 21.73 521.61 20.2 528.49 21.95 531.91 24.65 536.98 27.01 538.82 27.41 549.46 33.06 553.71 34.27 555.95 38.77 561.68 44.75 562.19 49.69 564.22 57.43 565.67 57.26 570.1 59.19 571.75 58.35 574.85 58.67 576.44 59.48 579.78 59.82 582.26 60.95 585.71 58.71 589.66 59.83 591.33 60.84 592.81 71.27 596.67 76.84 600.32 78.38 600.79 80.04 599.64 84.73 601.84 87.3 606.01 84.69 629.77 103.52 630.9 105.8 637.87 111.11 642.11 107.13 644.6 108.05 650.7 113.44 653.9 114.05 655.71 113.39 659.82 119.06 664.23 121.69 667.82 127.22 669.17 127.95 672.95 128.05 675.04 130.45 677.64 135.64 680.55 138.89 682.25 144.19 685.46 148.88 688.74 150.79 690.96 149.62 694.48 152.4 697.42 156.36 700.05 161.67 703.22 164.07 706.5 161.33 706.43 163.58 708.35 171.54 709.98 175.68 708.67 178.84 709.3 182.79 709.55 187.43 707.97 190.57 704.92 194.01 702.38 195.62 701.88 198.44 699.65 205.03 700.17 207.45 699.75 210.49 700.53 214.74 702.77 217.63 706.23 214.11 713.21 211.28 716.4 208.35 720.1 203.6 728.4 202.26 735.52 203.13 738.78 207.85 738.74 208.88 741.27 210.66 742.43 215.19 743.25 214.83 745.16 210.37 746.33 209.85 753.56 210.15 754.2 217.77 754.64 227.3 756.97 235.82 761.05 239.62 767.31 243.35 768.38 243.62 774.16 248.09 779.11 253.24 782.55 254.65 783.2 256.86 794.28 272.59 799 279.89 Z" fill-rule="evenodd" id="23080000"/>
</g>
</svg>