<?xml version="1.0"?>
<svg xmlns="http://www.w3.org/2000/svg" version="1.2" baseProfile="tiny" width="800" height="537" viewBox="0 0 800 537" stroke-linecap="round" stroke-linejoin="round">
<g id="sigung">
<path d="M 760.95 355.71 760.26 359.36 757.3 361.57 753.96 365.36 752.18 367.07 749.12 369.48 749.68 370.62 751.76 373.87 747.24 376.59 744.17 377.56 741.94 378.53 740.05 379.79 737.55 380.59 734.55 381.34 731.62 381.63 730.57 382.42 729.34 382.39 728.06 384.43 729.06 384.61 729.32 385.32 728.71 387.02 728.49 388.38 728.31 391.32 725.75 391.71 723.76 393.71 723.02 394.73 723.47 397.03 724.53 399.55 724.92 400.01 725.43 401.89 728.11 406.61 726.07 408.75 725.62 411.23 726.16 413 726.14 414.8 728.04 417.67 728.53 421.07 728.52 422.93 727.44 423.6 725.77 425.59 723.31 426.03 720.53 426.33 719.6 427 716.92 426.96 715.2 427.53 713.19 428.81 711.98 429.04 710.42 429.71 708.76 430.94 706.89 431.26 704.41 430.14 702.36 431.71 698.88 430.89 696.94 430.96 693.48 433.3 692.68 434.87 690.8 435.27 689.6 435.06 685.94 436.3 684.25 436.32 683.23 437.07 681.02 437.33 680.25 438.36 678.95 438.96 676.86 441.42 675.73 442.43 674.77 442.72 673.68 442.62 671.87 444.32 671.02 445.96 670.02 447.45 668.61 448.32 667.7 449.84 667.25 451.3 665.67 453.83 664.27 454.82 664.17 456.02 666.35 460.32 666.56 461.9 666.11 463.71 663.62 464.83 661.55 466.85 661.09 467.92 659.84 469.24 656.61 474.75 654.31 476.66 652.8 476.82 651.41 478.38 650.04 479.08 644.89 480.18 643.08 479.94 640.03 480.34 639.16 480.26 636.16 479.07 632.91 478.16 630.8 479.65 629.79 480.84 627.95 478.4 627.02 477.7 622.92 476.71 621.94 476.95 620.41 476.53 617.48 476.1 616.41 475.65 614.21 475.86 611.56 475.79 610.54 475.58 608.58 475.88 608.79 473.2 608.64 470.78 609.34 469.32 609.07 467.09 606.39 465.47 605.08 464.88 602.24 462.91 600.76 460.67 598.83 460.3 597.7 458.53 597.05 456.16 595.46 455.28 595.61 452.3 595.95 450.09 595.16 449.41 594.53 448.32 593.2 446.93 592.01 443.8 592.46 440.86 591.19 439.27 589.27 437.45 588.11 435.95 587.4 434.32 585.98 433.19 584.8 431.91 583.8 431.36 581.35 431.69 581.33 429.83 582.2 428.26 581.98 426.88 582.61 425.45 583.88 423.6 584.11 420.5 584.4 418.7 585.47 417.07 585.04 416.82 583.67 414.62 583.07 413.38 582.1 412.96 580.5 413.18 578.9 412.68 577.97 410.67 577.57 408.76 578.43 405.92 578.11 404.65 576.63 402.2 574.97 400.18 573.47 399.21 571.85 397.75 571.08 396.68 570.93 395.24 569.82 393.8 569.67 391.51 570 390.84 570.03 388.97 570.46 387.11 569.1 386.02 567.79 384.63 566.73 382.76 566.69 380.43 566.46 378.38 567.52 376.91 567.72 376.28 569.04 374.56 568.21 372.39 567.05 371.74 566.06 370.67 566.28 369.76 567.04 369.17 568.94 368.44 569.51 367.59 571.54 367.15 572.97 366.05 573.82 365.84 574.28 366.63 577.32 366.31 578.41 365.66 580.08 365.23 581.27 364.38 581.54 362.73 582.07 361.06 583.62 360.36 584.52 359.62 586.5 358.85 586.21 357.86 588.37 356.05 588.29 354.54 588.5 352.68 589.81 350.79 591.59 349.32 592.14 349.25 592.08 347.63 591.73 346.4 597.78 344.53 598.85 344.48 601.49 343.4 601.68 342.76 603.01 341.87 600.61 339.53 598.21 338.3 598.43 334.42 596.26 333.06 595.48 331.38 594.63 328.29 593.91 326.49 592.67 325.11 592.19 323.79 591.09 322.63 589.47 321.66 587.97 320.15 586.38 318.98 585.03 316.17 584.73 314.51 583.86 311.97 583.32 312.26 582.44 311.17 581 308.98 576.66 302.65 574.04 299.34 571.26 296.72 568.5 293.79 560.97 283.36 559.33 281.08 557.69 279.4 555.54 277.54 558.24 274.91 558.61 274.7 564.07 269.34 566.81 266.4 574.95 241.42 581.88 243.31 588.47 245.2 600.08 249.18 602.22 250.44 603.82 252.04 604.68 253.32 605.42 255.03 615.54 250.98 622.61 250.99 622.63 254.7 621.8 255.27 621.57 257.19 622.6 258.07 623.83 258.19 624.86 259.22 625.44 259.36 627.4 259.18 628.05 259.34 629.27 258.69 631.51 259.1 632.55 258.79 634.27 258.88 635.71 260.42 636.17 262.14 636.85 263.26 636.83 265.91 637.06 266.91 638 267.63 639.95 268.46 641.29 269.87 642.82 270.58 644.64 270.08 649.09 270.71 651.4 272.73 653.38 273.63 654.78 274.53 657.2 275.69 658.05 277.76 658.08 278.99 657.49 279.97 657.34 281.17 656.51 283.56 656.56 284.28 655.03 285.51 653.85 287.53 654.52 290.24 654.09 292.38 653.33 293.82 652.67 294.25 650.69 294.73 649.78 295.53 649.09 295.41 649.62 298.72 650.93 299.8 651.85 300.17 654.03 302.17 655.44 301.63 656.08 303.21 656.37 304.89 657.25 305.69 659.88 304.92 661.24 306.35 663.02 306.82 663.51 305.98 664.57 305.41 666.31 305.7 667.18 306.36 669.33 305.91 671.23 306.21 673.82 307.41 675.07 308.57 676.53 309.38 677.77 309.68 678.92 310.37 681.19 312.91 682.88 313.78 683.71 314.98 685.12 315.47 686.12 315.53 687.1 315.12 690.08 315.87 690.58 315.87 691.79 313.38 692.54 312.47 694.21 311.15 695.31 311.18 696.38 312.29 697.72 312.25 699.04 312.6 700.24 312.6 703.56 311.61 705.65 311.1 710.95 312.78 712.84 312.78 714.68 313.29 716.99 314.85 718.09 317.04 718.32 319.45 720.57 321.68 721.16 322.97 721.45 324.63 722.01 325.42 722.74 328.32 724.17 329.59 724.37 331.48 725.22 332.92 725.99 335.18 726.1 337.32 728.25 339.5 729.95 340.88 732.25 344.18 732.81 344.81 733.17 346.05 734.67 347.79 735.37 349.86 736.27 351.73 737.39 351.88 740.01 350.56 741.74 350.08 743.54 350.68 745.88 350.97 755.33 354.13 757.71 355.06 760.95 355.71 Z" id="24010000"/>
<path d="M 555.54 277.54 557.69 279.4 559.33 281.08 560.97 283.36 559.17 284.14 556.32 284.35 551.74 285.69 549.36 284.42 548.02 283.46 546.15 281.09 544.11 276.7 542.49 275.08 541.42 274.84 537.12 275.29 534.93 275.06 532.45 275.81 528.36 277.48 528.92 279 526.39 279.98 526.25 281.06 523.99 282.76 519.67 283.72 509.52 290.05 515.65 299.79 514.06 300.77 514.6 301.62 509.48 304.48 509.57 305.13 509 305.83 509.2 307.53 508.44 307.58 507.05 309.11 505.29 309.54 504.78 311.09 505.73 313.08 507.26 313.24 508.78 314.69 510.09 315.64 511 319.5 511.38 320.41 512.26 321.53 513.55 321.39 513.97 322.55 513.77 324.54 514.06 325.55 514.09 327.73 512.6 329.34 512.53 330.99 511.53 332.5 512.02 334.75 512.59 336.51 512.69 340.56 513.4 342.36 513.5 343.43 515.22 344.9 515.65 345.94 515.38 348.41 515.55 349.16 515.39 352.32 515.87 354.26 515.9 355.27 515.55 356.56 515.7 357.25 515.32 359.05 514.21 360.92 514.56 362.18 515.6 363.96 514.17 366.33 510.05 365.7 508.54 366.71 507.55 366.62 505.28 368.23 505.11 368.72 502.7 368.48 501.78 367.52 496.16 364.6 495.59 364.74 494.07 364.24 493.04 363.36 491.5 362.41 491.26 361.95 489.94 361.32 488.83 361.18 487.42 360.59 486.02 358.53 483.88 358.49 484.46 359.89 484.07 360.9 482.59 362.55 482.47 363.46 480.64 364.4 480.61 365.48 479.02 367.59 476.98 368.72 476.29 368.66 475.71 369.24 476.42 371.02 476.19 371.44 477.14 372.2 478.52 373.8 477.16 374.13 476.15 373.79 474.6 374.59 472.61 376.37 474.91 379.06 474.38 379.49 477.2 382.32 477.99 383.53 476.19 383.42 473.85 383.95 472.65 383.67 472.03 382.99 468.36 382.55 467.24 385.68 466.08 385.62 464.61 386.3 463.44 386.26 462.36 385.15 458.69 386.81 457.53 386.3 456.83 386.32 455.25 387.45 454.55 388.4 457.45 389.1 458.24 390.29 458.4 391.12 456.97 393.47 453.02 393.94 450.53 393.82 449.7 394.78 448.63 393.89 446.99 391.66 445.66 391.29 444.62 391.69 443.95 392.77 442.22 393.44 440.95 393.31 437.66 394.42 435.94 394.55 434.01 395.5 432.32 395.5 431.45 394.84 429.68 394.91 427.59 396.18 426.75 398.15 425.06 398.33 421.79 399.3 421.21 400.72 419.9 402.2 418.47 403.04 418.42 404.53 417.86 405.27 415.58 407.05 414.15 406.51 412.23 406.24 409.86 404.61 409.29 403.87 408.33 405.09 407.8 406.38 407.39 408.77 406.74 409.3 406.45 410.43 406.59 411.75 406.09 413.19 404.53 414.21 403.01 414.95 401.1 415.25 399.74 415.27 397.92 414.97 395.11 414.85 393.81 416.1 393.18 417.79 390.74 420.8 388.35 422.88 388.62 424.03 387.05 424.03 385.87 424.48 384.81 425.99 383.12 427.33 382.13 427.59 380.4 427.11 378.9 427.98 376.72 430.05 373.65 431.14 372.55 431.79 371.09 433.02 367.1 430.23 364.05 427.23 363.07 425.87 360.24 426.46 358.82 427.16 356.62 429.71 354.78 430.81 353.14 432.33 352.07 432.95 351.03 431.45 348.94 429.74 348.53 428.31 346.35 426.18 346.21 425.3 345.41 424.61 345.39 423.69 344.25 421.45 343.49 418.58 342.25 416.02 341.11 417.83 340.03 418.95 339.55 420.45 339.9 421.47 339.19 422.78 338.03 423.49 338.03 424.06 337.2 424.62 335.82 426.12 333.97 426.39 333.79 424.98 333.15 423.4 330.94 419.73 330.28 418.11 329.96 416.57 330.05 412.97 330.61 407.29 332.08 405.21 333.94 404.02 335.82 402.36 337.9 403.57 339.9 403.84 341.25 403.37 342.05 402.23 341.79 400.82 341 399.6 340.41 398.02 340.42 396.83 339.42 395.6 338.73 393.06 338.66 391.37 338.99 390.29 336.87 386.96 335.03 381.27 334.75 380.01 335.02 379.46 334.64 378.04 336.12 376.91 336.9 376.92 338.03 377.7 338.38 377.32 339.61 377.79 340.99 378.92 341.6 378.94 343.19 378.03 343.34 377.42 344.97 377.13 346.7 377.67 348.63 377.76 348.58 376.59 349.1 374.1 348.55 372.98 348.81 372.56 348.72 371.05 348.98 370.06 348.74 369.26 349.77 366.64 350.61 366.88 351.97 366.7 354.2 366.76 354.74 366.12 356.47 365.83 359.03 366.55 360.48 366.07 361.79 366.4 362.42 366.19 363.54 366.88 364.11 366.82 365.6 365.21 366.61 363.84 364.76 362.44 364.43 360.9 364.95 358.75 364.61 356.29 365.21 354.4 366.16 352.84 368.12 350.64 371.98 348.21 373.24 347.2 374.29 345.21 375.84 341.06 374.41 338.03 373.02 336.69 370.64 335.2 369.73 334.26 369.05 333.07 368.5 331.08 368.32 329.47 368.43 328.1 369.02 325.22 370.64 322.94 372.45 321.5 375.97 319.7 379.03 319.02 380.12 317.99 381.58 316.04 383.87 313.49 384.98 312.07 386.9 310.26 388.47 308.39 389.68 306.42 391.13 304.65 391.67 302.97 391.43 300.16 390.6 297.6 390.48 295.34 390.77 293.08 390.49 292.35 390.79 288.33 390.5 284.6 389.09 280.15 386.18 276.09 384.15 273.99 382.38 271.65 382.3 269.4 382.72 267.78 382.39 265.89 382.82 263.09 383.57 261.64 382.3 260.86 383.23 258.84 384.1 254.15 383.82 253.35 382.27 251.83 381.11 249.58 380.76 248.28 380.74 243.43 382.13 240.28 386.01 236.49 388.05 234.7 390.47 233.63 393.85 231.24 396.43 230.55 398.33 229.88 400.86 229.9 405.47 229.38 406.96 228.48 408.04 227.58 408.58 225.75 408.08 223.19 408.07 221.72 408.41 221.14 408.82 216.98 408.68 215.5 408.74 212.45 409.5 210.54 410.92 207.93 412.35 208.2 413.82 207.45 416.44 208.8 417.06 209.45 418.74 210.53 418.93 211.57 419.47 211.97 420.6 211.96 419.69 213.71 430.27 216.57 451.7 222.67 455.59 223.73 457.43 223.98 477.49 225.32 488.97 226.2 488.9 228.29 492.62 227.29 496.05 227.26 500.58 227.97 502.32 228.45 505.56 229.64 506.97 230.44 506.65 233.57 508.42 235.98 508.44 236.52 509.45 237.65 510.31 238.18 509.5 239.24 510.31 240.44 511.01 240.41 512.06 243.35 512.36 245.07 512.72 245.34 513.29 248.75 514.59 251.89 516 251.81 517.5 253.1 520.58 253.55 523.27 253.38 525.19 253.64 526.95 254.51 529.16 256.07 531.49 257.47 536.63 259.61 537.82 260.41 540.98 263.11 544.48 267.3 545.01 268.15 546.56 269.21 547.77 270.62 555.54 277.54 Z" id="24020000"/>
<path d="M 560.97 283.36 568.5 293.79 571.26 296.72 574.04 299.34 576.66 302.65 581 308.98 582.44 311.17 583.32 312.26 583.86 311.97 584.73 314.51 585.03 316.17 586.38 318.98 587.97 320.15 589.47 321.66 591.09 322.63 592.19 323.79 592.67 325.11 593.91 326.49 594.63 328.29 595.48 331.38 596.26 333.06 598.43 334.42 598.21 338.3 600.61 339.53 603.01 341.87 601.68 342.76 601.49 343.4 598.85 344.48 597.78 344.53 591.73 346.4 592.08 347.63 592.14 349.25 591.59 349.32 589.81 350.79 588.5 352.68 588.29 354.54 588.37 356.05 586.21 357.86 586.5 358.85 584.52 359.62 583.62 360.36 582.07 361.06 581.54 362.73 581.27 364.38 580.08 365.23 578.41 365.66 577.32 366.31 574.28 366.63 573.82 365.84 572.97 366.05 571.54 367.15 569.51 367.59 568.94 368.44 567.04 369.17 566.28 369.76 566.06 370.67 567.05 371.74 568.21 372.39 569.04 374.56 567.72 376.28 567.52 376.91 566.46 378.38 566.69 380.43 566.73 382.76 567.79 384.63 569.1 386.02 570.46 387.11 570.03 388.97 570 390.84 569.67 391.51 569.82 393.8 570.93 395.24 571.08 396.68 571.85 397.75 573.47 399.21 574.97 400.18 576.63 402.2 578.11 404.65 578.43 405.92 577.57 408.76 577.97 410.67 578.9 412.68 580.5 413.18 582.1 412.96 583.07 413.38 583.67 414.62 585.04 416.82 585.47 417.07 584.4 418.7 584.11 420.5 583.88 423.6 582.61 425.45 581.98 426.88 582.2 428.26 581.33 429.83 581.35 431.69 579.56 431.59 578.38 431.77 576.93 432.45 575.6 432.48 573.18 434.45 571.08 435.9 568.67 437.04 566.68 437.57 565.66 438.35 562.77 439.13 562.91 442.29 561.09 444.06 560.74 445.28 559.15 446.67 558.17 448.08 554.74 450.99 552.99 453.68 552.52 456.13 549.82 457.82 546.67 457.98 544.56 458.79 542.86 459.15 541.13 459.22 540 459.55 538.28 458.33 535.19 458.21 531.54 459.2 529.86 459.54 527.46 461.94 526.16 464.24 523.26 466.64 520.41 464.94 518.97 464.48 517.88 463.22 515.22 461.46 512.26 460.37 511.13 458.45 509.33 457.26 507.68 458.52 504.46 460.45 503.65 461.79 501.28 463.37 500.55 464.25 499.28 464.56 497.64 465.33 495.93 465.75 495.18 467.34 491.97 468.5 490.34 468.82 490.11 471.53 487.14 473.07 484.23 474.23 484.13 473.46 482.69 473.71 480.89 475.65 480.25 475.89 479.01 475.55 478.2 474.95 476.14 475.09 474.56 474.62 473.46 473.36 468.68 471.54 468.17 472.31 466.89 473.28 466.1 472.69 465.06 472.54 463.74 471.11 460.55 469.65 460.14 469.08 459.45 466.53 458.7 466.11 457.94 464.01 456.65 464.32 455.25 464.01 453.58 464.7 452.69 465.64 451 465.51 449.78 464.85 446.25 465.5 445.98 466.94 445.16 467.84 444.8 471.21 443.98 472.67 443.11 474.9 441.52 477.21 440.4 477.75 438.89 478.13 438.43 478.74 436.19 479.5 434.76 479.56 433.8 480.44 432.88 480.87 431.04 481.27 430.51 481.97 430.56 484.28 429.27 486.04 427.77 487.36 427.21 489.41 427.22 490.63 425.36 491.33 425.59 492.29 425.58 494.51 424.07 496.19 423.1 496.67 421.57 498.86 418.46 498.6 417.26 497.7 414.87 497.47 414.04 498.17 410.48 497.4 408.51 497.5 406.72 496.63 406.09 499.28 405.41 499.13 404.95 500.86 405.14 501.33 404.6 502.75 402.71 503.04 401.24 504.06 399.91 504.5 396.86 504.79 395.04 505.34 393.22 506.89 391.63 507.6 390.51 507.12 389.43 507.54 388.97 506.99 386.85 507.1 386.8 506.62 385.1 507.01 384.66 506.3 381.92 508.86 379.56 510.48 378.91 510.54 377.47 511.45 375.9 511.89 374.72 512.76 373.96 514.82 372.47 516.3 371.9 518.19 371.84 520.34 370.43 522.77 370.29 523.86 369.71 524.22 368.94 525.5 368.53 527.5 368.07 528.25 368.24 529.66 367.56 531.33 366.05 531.41 365.18 530.94 363.79 530.76 363.41 531.14 360.9 529.55 360.43 530.34 358.93 529.65 357.38 530.19 355.35 531.68 354.78 531.58 353.34 530.39 352.5 530.62 351.59 531.65 350.71 530.78 349.35 532.35 348.35 532.61 347.44 532.18 346.42 532.62 345.3 534.04 344.8 535.36 344.14 536 343.27 535.28 341.32 535.3 340.28 534.44 338.72 534.22 338.32 532.15 336.19 532.19 335.87 531.5 335.61 528.98 335.64 527.65 334.9 525.82 334.91 525.03 331.79 520.94 330.95 519.14 331.38 518.7 331.58 517.41 329.09 515.72 327.93 514.71 326.77 514.04 326.3 514.61 325.28 514.32 324.21 514.53 323.15 515.2 321.95 514.97 320.72 513.39 319.85 510.56 318.92 509.78 317.64 509.63 316.4 510.44 315.28 511.92 314.5 512.32 312.62 512.43 311.28 511.9 310.59 511.25 309.5 512.21 308.83 514.4 305.95 515.1 304.5 516.53 303.88 518.12 302.6 519.12 301.06 519.14 298.31 521.56 298.05 522.85 296.79 523.9 295.62 524.11 294.11 524.9 293.1 524.52 291.27 526.9 289.42 528.3 287.2 527.5 285.59 527.21 283.7 527.27 281.91 527.91 277.8 530.95 275.24 531.29 270.8 530.67 269.33 530.2 266.19 528.67 263.21 527.91 261.37 526.4 259.55 523.46 259.27 521.76 259.69 518.64 260.4 515.28 261.27 513.15 262.02 511.89 262.02 510.7 261.61 508.76 259.57 505 258.28 503.35 257.08 502.39 254.59 501.15 249.73 502.11 246.95 503.28 242.98 506.04 241.96 507.7 241.13 510.96 240.57 512.37 238.92 514.9 236.83 516.85 234.95 514.67 234.88 513.94 234.97 509.36 233.97 505.75 231.76 502.66 229.66 500.87 229.25 498.84 230.21 496.23 231.38 494.69 233.13 493.65 237.4 490.78 240.09 490.11 245.16 489.97 247.79 490.3 251.97 491.17 254.86 491.34 258.61 491.33 261.97 490.22 263.59 489.4 265.96 487.46 267.83 486.2 269.89 485.13 271.95 484.35 274.36 483.76 276.27 483.45 280.66 483.22 284.31 482.73 289.4 481.12 291.46 480.14 295.77 477.17 297.25 475.91 299.04 474.13 301 470.5 302.51 468.68 303.33 466.16 305.36 463.95 306.77 460.65 307.92 461.17 308.87 459.74 310.24 455.83 315.3 450.25 315.79 449.97 320.08 440.48 323 437.76 324.85 437.71 326.02 436.82 329.16 435.13 329.86 434.17 331.28 433.24 333.3 431.18 333.98 429.72 334.28 428.31 333.97 426.39 335.82 426.12 337.2 424.62 338.03 424.06 338.03 423.49 339.19 422.78 339.9 421.47 339.55 420.45 340.03 418.95 341.11 417.83 342.25 416.02 343.49 418.58 344.25 421.45 345.39 423.69 345.41 424.61 346.21 425.3 346.35 426.18 348.53 428.31 348.94 429.74 351.03 431.45 352.07 432.95 353.14 432.33 354.78 430.81 356.62 429.71 358.82 427.16 360.24 426.46 363.07 425.87 364.05 427.23 367.1 430.23 371.09 433.02 372.55 431.79 373.65 431.14 376.72 430.05 378.9 427.98 380.4 427.11 382.13 427.59 383.12 427.33 384.81 425.99 385.87 424.48 387.05 424.03 388.62 424.03 388.35 422.88 390.74 420.8 393.18 417.79 393.81 416.1 395.11 414.85 397.92 414.97 399.74 415.27 401.1 415.25 403.01 414.95 404.53 414.21 406.09 413.19 406.59 411.75 406.45 410.43 406.74 409.3 407.39 408.77 407.8 406.38 408.33 405.09 409.29 403.87 409.86 404.61 412.23 406.24 414.15 406.51 415.58 407.05 417.86 405.27 418.42 404.53 418.47 403.04 419.9 402.2 421.21 400.72 421.79 399.3 425.06 398.33 426.75 398.15 427.59 396.18 429.68 394.91 431.45 394.84 432.32 395.5 434.01 395.5 435.94 394.55 437.66 394.42 440.95 393.31 442.22 393.44 443.95 392.77 444.62 391.69 445.66 391.29 446.99 391.66 448.63 393.89 449.7 394.78 450.53 393.82 453.02 393.94 456.97 393.47 458.4 391.12 458.24 390.29 457.45 389.1 454.55 388.4 455.25 387.45 456.83 386.32 457.53 386.3 458.69 386.81 462.36 385.15 463.44 386.26 464.61 386.3 466.08 385.62 467.24 385.68 468.36 382.55 472.03 382.99 472.65 383.67 473.85 383.95 476.19 383.42 477.99 383.53 477.2 382.32 474.38 379.49 474.91 379.06 472.61 376.37 474.6 374.59 476.15 373.79 477.16 374.13 478.52 373.8 477.14 372.2 476.19 371.44 476.42 371.02 475.71 369.24 476.29 368.66 476.98 368.72 479.02 367.59 480.61 365.48 480.64 364.4 482.47 363.46 482.59 362.55 484.07 360.9 484.46 359.89 483.88 358.49 486.02 358.53 487.42 360.59 488.83 361.18 489.94 361.32 491.26 361.95 491.5 362.41 493.04 363.36 494.07 364.24 495.59 364.74 496.16 364.6 501.78 367.52 502.7 368.48 505.11 368.72 505.28 368.23 507.55 366.62 508.54 366.71 510.05 365.7 514.17 366.33 515.6 363.96 514.56 362.18 514.21 360.92 515.32 359.05 515.7 357.25 515.55 356.56 515.9 355.27 515.87 354.26 515.39 352.32 515.55 349.16 515.38 348.41 515.65 345.94 515.22 344.9 513.5 343.43 513.4 342.36 512.69 340.56 512.59 336.51 512.02 334.75 511.53 332.5 512.53 330.99 512.6 329.34 514.09 327.73 514.06 325.55 513.77 324.54 513.97 322.55 513.55 321.39 512.26 321.53 511.38 320.41 511 319.5 510.09 315.64 508.78 314.69 507.26 313.24 505.73 313.08 504.78 311.09 505.29 309.54 507.05 309.11 508.44 307.58 509.2 307.53 509 305.83 509.57 305.13 509.48 304.48 514.6 301.62 514.06 300.77 515.65 299.79 509.52 290.05 519.67 283.72 523.99 282.76 526.25 281.06 526.39 279.98 528.92 279 528.36 277.48 532.45 275.81 534.93 275.06 537.12 275.29 541.42 274.84 542.49 275.08 544.11 276.7 546.15 281.09 548.02 283.46 549.36 284.42 551.74 285.69 556.32 284.35 559.17 284.14 560.97 283.36 Z" id="24030000"/>
<path d="M 770.33 323.18 770.26 323.83 770.7 326.09 771.28 328.23 772.28 330.78 773.38 332.64 775.24 335.06 776.93 338.44 776.36 342.44 775.81 344.26 774.64 346.14 774.34 347.46 772.04 348.03 768.55 348.3 766.25 350.7 765.33 352.05 762.86 353.01 761.61 354.03 760.95 355.71 757.71 355.06 755.33 354.13 745.88 350.97 743.54 350.68 741.74 350.08 740.01 350.56 737.39 351.88 736.27 351.73 735.37 349.86 734.67 347.79 733.17 346.05 732.81 344.81 732.25 344.18 729.95 340.88 728.25 339.5 726.1 337.32 725.99 335.18 725.22 332.92 724.37 331.48 724.17 329.59 722.74 328.32 722.01 325.42 721.45 324.63 721.16 322.97 720.57 321.68 718.32 319.45 718.09 317.04 716.99 314.85 714.68 313.29 712.84 312.78 710.95 312.78 705.65 311.1 703.56 311.61 700.24 312.6 699.04 312.6 697.72 312.25 696.38 312.29 695.31 311.18 694.21 311.15 692.54 312.47 691.79 313.38 690.58 315.87 690.08 315.87 687.1 315.12 686.12 315.53 685.12 315.47 683.71 314.98 682.88 313.78 681.19 312.91 678.92 310.37 677.77 309.68 676.53 309.38 675.07 308.57 673.82 307.41 671.23 306.21 669.33 305.91 667.18 306.36 666.31 305.7 664.57 305.41 663.51 305.98 663.02 306.82 661.24 306.35 659.88 304.92 657.25 305.69 656.37 304.89 656.08 303.21 655.44 301.63 654.03 302.17 651.85 300.17 650.93 299.8 649.62 298.72 649.09 295.41 649.78 295.53 650.69 294.73 652.67 294.25 653.33 293.82 654.09 292.38 654.52 290.24 653.85 287.53 655.03 285.51 656.56 284.28 656.51 283.56 657.34 281.17 657.49 279.97 658.08 278.99 658.05 277.76 657.2 275.69 654.78 274.53 653.38 273.63 651.4 272.73 649.09 270.71 644.64 270.08 642.82 270.58 641.29 269.87 639.95 268.46 638 267.63 637.06 266.91 636.83 265.91 636.85 263.26 636.17 262.14 635.71 260.42 634.27 258.88 632.55 258.79 631.51 259.1 629.27 258.69 628.05 259.34 627.4 259.18 625.44 259.36 624.86 259.22 623.83 258.19 622.6 258.07 621.57 257.19 621.8 255.27 622.63 254.7 622.61 250.99 615.54 250.98 605.42 255.03 604.68 253.32 603.82 252.04 602.22 250.44 600.08 249.18 588.47 245.2 581.88 243.31 574.95 241.42 566.81 266.4 564.07 269.34 558.61 274.7 558.24 274.91 555.54 277.54 547.77 270.62 546.56 269.21 545.01 268.15 544.48 267.3 540.98 263.11 537.82 260.41 536.63 259.61 531.49 257.47 529.16 256.07 526.95 254.51 525.19 253.64 523.27 253.38 520.58 253.55 517.5 253.1 516 251.81 514.59 251.89 513.29 248.75 512.72 245.34 512.36 245.07 512.06 243.35 511.01 240.41 510.31 240.44 509.5 239.24 510.31 238.18 509.45 237.65 508.44 236.52 508.42 235.98 506.65 233.57 506.97 230.44 505.56 229.64 502.32 228.45 500.58 227.97 496.05 227.26 492.62 227.29 488.9 228.29 488.97 226.2 477.49 225.32 457.43 223.98 455.59 223.73 451.7 222.67 430.27 216.57 419.69 213.71 420.6 211.96 419.47 211.97 418.93 211.57 418.74 210.53 417.06 209.45 416.44 208.8 413.82 207.45 412.35 208.2 410.92 207.93 411.82 205.32 414.6 201.8 416.56 199.13 423.72 198.25 426.44 203.17 427.33 204.25 428.66 205.02 430.89 204.83 433.36 205.07 435.28 204.87 436.59 204.43 437.6 202.85 437.82 200.89 438.87 199.32 440.27 198.21 441.66 197.74 443.4 197.8 446.22 198.7 447.52 198.79 449.79 198.04 453.19 195.82 454.81 192.72 456.78 189.32 456.66 187.73 455.71 185.44 455.63 184.67 454.86 183.06 454.18 179.28 454.18 177.6 455.17 173.84 455.24 172.68 454.58 169.16 453.67 166.84 452.67 165.6 450.25 164.31 449.04 163.91 446.34 162.5 444.44 162.56 443.3 162.38 440.71 161.13 439.32 159.54 439 156.79 442.48 154.95 443.75 153.86 444.94 152.27 445.65 150.84 446.11 148.96 445.89 144.52 445.54 140.94 445.71 138.22 445.56 137.04 444.35 131.77 443.52 129.58 440.5 124.91 440.34 124.1 440.46 122.05 441.47 117.3 442.85 114.99 444.48 112.95 449.14 107.93 449.73 107.46 448.13 106.72 445.26 106.23 441.5 106.2 441.31 106 441.38 95.99 426.89 95.89 426.65 93.31 426.26 91.83 423.81 85.78 417.1 88.43 409.95 90.82 409.68 90.67 406.03 82.02 405.27 81.92 404.65 80.9 403.79 78.84 403.35 78.35 402.96 77.67 403.98 75.38 406.15 75.69 407.2 75.28 410.63 75.65 413.14 73.67 414.01 73.32 413.76 71.88 414.35 71.72 413.11 70.3 414.02 67.5 414.43 66.71 414.52 64.98 415.56 63.9 416.72 64.06 418.09 65.41 418.32 64.36 419.73 62.66 421.35 62.73 422.63 63.46 423.07 64.07 424.24 63.03 423.52 60.04 422.89 58.34 422.95 57.23 423.98 57.39 424.71 56.85 426.92 56.66 427.95 56.19 429.23 56.63 430.92 60.46 433.1 59.16 433.61 58.39 435.39 56.82 436.91 56.11 436.45 55.42 438.32 53.87 439.63 54.64 440.01 53.4 441.67 53.45 441.93 52.93 443.56 53.44 443.71 54.6 445.49 53.19 447.48 52.89 448.15 52.2 448.99 51.93 450.35 50.79 451.59 50.97 451.88 50.18 452.75 49.52 454.15 49.84 455.78 48.55 456.62 48.14 457.95 45.88 458.47 45.61 458.65 42.83 458.4 42.12 458.86 39.8 459.48 38.64 461.08 37.79 461.54 37.21 461.74 36.04 463.58 34.8 465.15 34.59 465.77 35.54 466.47 35.24 466.73 34.43 467.37 34.27 468.77 33.23 470.47 33.68 474.56 33.79 476.22 33.21 477.74 31.68 480.09 30.01 480.48 28.76 482.62 27.3 484.11 25.3 485.82 24.29 486.18 23.69 488.36 23.53 491.22 22.62 492.3 21.87 493.37 21.49 494.91 20.49 497.53 19.94 496.86 22.59 495.57 25.21 495.51 26.19 496.05 28.16 496.74 28.89 499.05 30.05 500.1 29.9 500.99 30.4 502.2 30.46 505.03 31.2 508.24 31.59 509.5 32.59 511.16 32.35 511.75 33.6 513.75 33.3 515.82 32.65 516.88 31.98 518.73 32.48 519.12 30.81 520.97 26.88 521.55 25.34 522.5 24.19 525.32 22.33 528.13 21.03 530.97 19.36 533.11 17.94 537.95 16.28 541.02 14.07 542.73 12.02 544.71 9.36 546.53 6.51 547.93 4.82 549.32 3.83 550.82 3.1 552.23 2.7 556.32 2.78 560.58 2.2 564.08 2.13 566.64 2.57 571.65 2.83 572.3 5.1 574.67 6.2 575.67 5.93 578.89 8.04 580.08 9.55 581.32 10.26 580.85 10.91 580.8 11.82 583.96 13.58 585.13 15.21 585.87 15.64 588.47 16.37 590.14 16.51 591.38 17.29 593.93 16.11 595.66 16.54 596.86 17.3 597.69 18.54 598.52 18.95 599.65 18.98 600.74 18.34 602.79 17.97 605.39 21.12 606.68 21.87 609.82 26.84 611.6 30.71 612 32.25 611.33 34.26 611.5 38.18 610.8 40.15 610.65 41.56 610.21 41.94 609.57 45.68 608.84 48.02 611.4 49.87 613.09 49.82 614.42 52.23 617.36 52.7 618.68 54.36 620.55 54.6 621.83 55.29 624.36 56.98 625.91 58.38 628 59.87 629.95 59.58 631.05 61.3 630.94 62.59 631.46 65.44 632.33 67.36 632.59 70.97 635.26 73.08 638.44 73.08 641.13 73.46 642.26 75.57 644.4 78.5 645.21 80.47 645.46 82.08 646.66 83.84 647.96 85.11 650.14 89.37 651.16 89.07 653.94 86.71 654.38 87.66 653.15 88.59 651.94 89.98 650.3 90.83 649.16 91.06 647.19 93.42 645.8 95.33 644.04 98.86 643.82 101.1 643.92 103.55 645.29 105.73 645.74 107.05 645.94 108.5 647.28 111.78 647.46 113.17 647.91 114.01 649.95 114.63 650.84 115.74 650.67 117.61 651.1 118.88 652.48 120.89 653.82 121.01 654.77 121.78 654.96 122.89 654.95 125.42 656.93 126.99 657.17 128.55 658.05 128.78 659.19 129.98 660 131.69 659.99 133.62 659.78 134.16 662.28 134.88 664.55 135.85 666.82 138.19 667.7 139.58 669.59 141.27 672.51 142.81 673.91 143.84 676.63 143.89 677.52 143.23 678.25 143.19 679.06 144.03 680.25 147.55 680.62 149.96 679.51 151.28 678.85 151.15 677.96 152.01 676.88 152.01 675.54 154.55 676.15 155.91 674.7 157.45 673.02 157.57 671.02 161.43 670.56 161.75 670.94 163.38 669.6 165.35 668.31 165.62 666.48 166.31 665.74 166.91 665.93 167.77 665.36 169.27 664.49 170.18 664.61 171.03 665.98 172.35 665.96 174.23 665.67 175.07 666.36 176.42 666.38 177.1 667.23 178.32 669.35 180.48 669.76 181.38 671.48 181.73 672.52 182.94 672.72 183.77 674.95 185.24 676.09 186.89 676.48 189.17 677.51 191.19 680.14 192.94 680.76 193.04 682.18 195.19 682.37 197.69 684.56 201.2 686.17 202.51 688.08 203.1 689.78 204.19 692.06 204.56 692.39 202.78 692.31 201.17 692.64 198.46 693.56 195.03 693.62 193.69 692.96 191.4 693.45 190.64 694.78 189.52 696.88 188.36 699.43 189.21 701.05 189.97 705.86 188.17 706.35 190.05 708.04 191.04 708.76 192.57 709.64 193.13 712.45 192.85 713.82 194.05 715.46 193.82 716.54 192.77 718.06 190.35 719.65 188.51 718.82 187.04 717.84 186.01 721.01 182.7 721.96 181.92 723.44 182.08 724.84 181.33 726.16 182.42 727.22 184.11 727.86 184.61 728.51 185.85 732.03 187.49 733.11 187.71 737.4 187.49 739.67 186.22 741.51 183.53 744.13 181.25 745.74 180.91 748.01 181 749.3 181.33 751.83 181.46 753.28 182.22 753.84 182.82 756.58 184.61 759.62 187.92 763.35 188.96 765.22 190.08 766.7 190.7 768.33 192.36 769.33 193.89 769.88 195.18 772.95 197.35 773.72 198.97 774.89 200.21 776.82 201.63 780.2 203.16 781.53 204.98 782.16 207.13 781.79 208.98 782.59 209.25 783.04 210.05 783.52 212.49 784.94 213.15 785.3 215.39 788.37 218.54 789.11 218.81 791.07 220.37 797.18 222.06 797.5 224.73 799 226.38 796.04 236.94 794.89 236.56 789.4 240.4 787.45 241.9 783.16 241.18 781.15 240 778.36 239.56 775.92 239.74 775.36 240.6 773.04 246.15 773.72 249.54 775.27 251.13 776.7 252.23 775.42 258.37 773 262.13 770.35 264.85 768.28 266.1 769.22 267.22 768.97 269.24 769.08 271.85 769.76 275.37 770.85 278.84 772.34 282.33 771.32 284.85 768.7 286.4 767.79 291.75 768.09 295.75 767.1 297.13 769.24 300.39 771.14 301.33 771.53 302.5 770.8 306.21 770.33 314.5 770.33 316.11 770.58 321.01 770.33 323.18 Z" id="24040000"/>
<path d="M 403.35 78.35 403.79 78.84 404.65 80.9 405.27 81.92 406.03 82.02 409.68 90.67 409.95 90.82 417.1 88.43 423.81 85.78 426.26 91.83 426.65 93.31 426.89 95.89 441.38 95.99 441.31 106 441.5 106.2 445.26 106.23 448.13 106.72 449.73 107.46 449.14 107.93 444.48 112.95 442.85 114.99 441.47 117.3 440.46 122.05 440.34 124.1 440.5 124.91 443.52 129.58 444.35 131.77 445.56 137.04 445.71 138.22 445.54 140.94 445.89 144.52 446.11 148.96 445.65 150.84 444.94 152.27 443.75 153.86 442.48 154.95 439 156.79 439.32 159.54 440.71 161.13 443.3 162.38 444.44 162.56 446.34 162.5 449.04 163.91 450.25 164.31 452.67 165.6 453.67 166.84 454.58 169.16 455.24 172.68 455.17 173.84 454.18 177.6 454.18 179.28 454.86 183.06 455.63 184.67 455.71 185.44 456.66 187.73 456.78 189.32 454.81 192.72 453.19 195.82 449.79 198.04 447.52 198.79 446.22 198.7 443.4 197.8 441.66 197.74 440.27 198.21 438.87 199.32 437.82 200.89 437.6 202.85 436.59 204.43 435.28 204.87 433.36 205.07 430.89 204.83 428.66 205.02 427.33 204.25 426.44 203.17 423.72 198.25 416.56 199.13 414.6 201.8 411.82 205.32 410.92 207.93 409.5 210.54 408.74 212.45 408.68 215.5 408.82 216.98 408.41 221.14 408.07 221.72 408.08 223.19 408.58 225.75 408.04 227.58 406.96 228.48 405.47 229.38 400.86 229.9 398.33 229.88 396.43 230.55 393.85 231.24 390.47 233.63 388.05 234.7 386.01 236.49 382.13 240.28 380.74 243.43 380.76 248.28 381.11 249.58 382.27 251.83 383.82 253.35 384.1 254.15 383.23 258.84 382.3 260.86 383.57 261.64 382.82 263.09 382.39 265.89 382.72 267.78 382.3 269.4 382.38 271.65 384.15 273.99 386.18 276.09 389.09 280.15 390.5 284.6 390.79 288.33 390.49 292.35 390.77 293.08 390.48 295.34 390.6 297.6 391.43 300.16 391.67 302.97 391.13 304.65 389.68 306.42 388.47 308.39 386.9 310.26 384.98 312.07 383.87 313.49 381.58 316.04 380.12 317.99 379.03 319.02 375.97 319.7 372.45 321.5 370.64 322.94 369.02 325.22 368.43 328.1 368.32 329.47 368.5 331.08 369.05 333.07 369.73 334.26 370.64 335.2 373.02 336.69 374.41 338.03 375.84 341.06 374.29 345.21 373.24 347.2 371.98 348.21 368.12 350.64 366.16 352.84 365.21 354.4 364.61 356.29 364.95 358.75 364.43 360.9 364.76 362.44 366.61 363.84 365.6 365.21 364.11 366.82 363.54 366.88 362.42 366.19 361.79 366.4 360.48 366.07 359.03 366.55 356.47 365.83 354.74 366.12 354.2 366.76 351.97 366.7 350.61 366.88 349.77 366.64 348.74 369.26 348.98 370.06 348.72 371.05 348.81 372.56 348.55 372.98 349.1 374.1 348.58 376.59 348.63 377.76 346.7 377.67 344.97 377.13 343.34 377.42 343.19 378.03 341.6 378.94 340.99 378.92 339.61 377.79 338.38 377.32 338.03 377.7 336.9 376.92 336.12 376.91 334.64 378.04 335.02 379.46 334.75 380.01 335.03 381.27 336.87 386.96 338.99 390.29 338.66 391.37 338.73 393.06 339.42 395.6 340.42 396.83 340.41 398.02 341 399.6 341.79 400.82 342.05 402.23 341.25 403.37 339.9 403.84 337.9 403.57 335.82 402.36 333.94 404.02 332.08 405.21 330.61 407.29 330.05 412.97 329.96 416.57 330.28 418.11 330.94 419.73 333.15 423.4 333.79 424.98 333.97 426.39 334.28 428.31 333.98 429.72 333.3 431.18 331.28 433.24 329.86 434.17 329.16 435.13 326.02 436.82 324.85 437.71 323 437.76 320.08 440.48 315.79 449.97 315.3 450.25 310.24 455.83 308.87 459.74 307.92 461.17 306.77 460.65 305.36 463.95 303.33 466.16 302.51 468.68 301 470.5 299.04 474.13 297.25 475.91 295.77 477.17 291.46 480.14 289.4 481.12 284.31 482.73 280.66 483.22 276.27 483.45 274.36 483.76 271.95 484.35 269.89 485.13 267.83 486.2 267.28 484.89 266.89 482.47 266.21 482.48 266.15 479.77 263.59 478.24 262.36 477.05 261.47 475.68 259.22 473.4 258.5 472 258.77 470.59 257.88 470.03 256.65 468.45 255.51 466.08 254.03 464.11 254.83 463.2 254.78 462.37 255.9 459.18 256.05 456.19 255.84 453.9 255.2 451.42 253.38 451.22 251.95 450.67 250.91 449.91 251.29 448.24 251.1 447.23 250.15 446.27 249.91 444.58 251.1 444.66 251.21 443.37 249.86 443.19 249.56 441.6 247.59 438.96 247.62 436.83 248.32 436.05 247.9 432.5 246.34 432.62 244.31 431.89 243.3 431.34 241.21 430.88 239 431.22 238.41 431.98 235.45 430.75 233.45 431.32 231.84 430.8 231.1 429.77 231.23 428.32 230.4 427.17 230.4 425.01 229.56 423.33 227.61 421.56 227.61 420.37 226.6 419.6 226.77 419.1 224.92 417.36 224.52 416.36 224.61 414.61 224.11 413.47 222.48 411.2 220.98 408.61 220.8 407.41 221.12 405.72 220.06 404.37 218.77 403.79 217.83 402.81 215.91 403.54 214.12 401.77 212.66 400.54 211.48 398.95 209.94 397.73 208.38 396.94 208.02 395.66 206.11 394.36 204.13 393.78 203.49 393.89 202.17 392.94 200.52 392.03 198.39 389.81 196.3 388.87 194.18 388.12 192.19 388.83 192.23 387.36 191.86 385.4 190.9 384.33 190.08 382.75 189.82 380.72 189.24 380.63 187.97 378.68 187.06 377.7 186.21 376.19 185.76 375.99 184.45 376.93 183.88 378 182.38 378.41 181.81 379.96 181.5 382.67 182.09 384.22 183.14 385.31 183.09 386.69 182.52 387.16 183.27 388.39 182.15 389.34 177.14 390.17 174.63 389.82 172.3 388.95 168.86 388.39 167.01 387.72 166.34 388.05 164.59 387.82 163.03 388.01 159.76 387.84 157.52 387.14 154.65 384.39 152.85 383.09 152.32 382.36 150.91 381.64 149.87 381.53 148.24 382.03 145.46 383.21 144.04 383.64 141.17 383.63 139.94 383.81 138.17 384.71 136.39 384.83 135.34 384.6 134.91 383.98 131.37 379.7 129.33 376.59 128.45 375.8 126.84 376.27 122.79 376.39 120.56 377.37 120.85 378.26 119.59 379.74 118.66 381.8 118.06 382.43 117.36 383.94 117.16 385.67 115.21 386.61 114.17 386.73 113.3 387.3 113.68 388.52 111.85 389.53 110.76 389.6 109.64 389.28 108.56 389.78 107.96 389.31 107.23 387.68 106.55 386.79 104.21 385.7 102.79 386.24 102.61 387.15 100.78 387.87 99.9 385.63 99.95 384.26 99.07 382.51 95.7 380.13 94.4 380.59 92.72 380.48 89.85 379.11 87.97 378.66 86.66 378.09 85.16 378.05 83 378.86 81.59 379.6 82.52 380.24 85.56 387.26 84.26 387.23 84.12 388.38 84.54 389.03 83.73 389.43 81.21 389.93 78.77 389.84 74.78 389.51 73.25 391.07 73.15 391.76 72.33 393.09 69.95 393.94 68.49 395.42 66.96 396.34 64.34 395.78 60.77 395.53 58.91 396.69 54.92 396.43 52.34 397.02 50.66 396.53 49.65 395.92 48.22 395.67 48.36 394.39 47.57 393.19 47.18 391.95 49.13 391.6 50.31 389.42 51.4 388.53 51.72 385.65 51.74 379.89 52.16 377.93 49.44 378.22 46.46 376.91 45.13 374.31 43.72 372.99 41.94 372.5 39.66 370.74 38.01 371.02 35.7 372.53 34.31 373.27 33.67 373.25 32.33 374 28.69 374.03 27.28 374.68 26.26 374.59 24.64 373.2 22.33 370.54 22.4 369.01 22.78 366.67 22.75 365.05 21.86 362.92 19.18 361.24 17.12 360.68 15.46 358.17 14.9 356.21 16.69 352.99 16.94 352.23 16.34 350.31 16.15 348.61 15.61 347.42 15.07 345.28 16.03 343 17.14 341.84 18.06 340.43 17.87 339.68 18.43 337.26 18.53 335.01 19.1 333.24 19.24 330.26 20.46 328.48 19.04 326.11 21.11 322.54 21.34 319.51 21.47 315.88 22.01 313.51 20.37 312.63 19.83 310.95 19.47 308.4 18.46 307.14 17.94 304.26 17.55 303.46 17.75 301.17 17.74 298.13 18.61 295.62 15.2 295.53 12.72 294.56 8.69 295.47 6.45 295.39 5.91 294.89 3.32 291.69 2.48 290.51 1 288.88 4.81 288.04 7.23 287.86 9.74 287.32 11.96 286.1 13.51 284.39 13.62 283.13 13.98 282.74 13.07 279.78 14.38 278.32 16.69 276.37 17.07 275.59 18.69 273.6 19.2 272.33 17.91 271.07 15.41 269.3 14.7 267.67 15.36 265.82 16.46 264.39 18.13 263.54 19.51 260.89 22.07 258.01 23.02 257.25 22.75 255.08 20.93 254.04 20.49 253.52 19.5 251.08 20.56 248.46 20.54 246.59 20.19 243.55 20.72 242.64 22.14 241.07 23.43 240.1 24.08 239.27 26.77 237.35 29.53 236.82 32.1 237.93 34.41 237.34 38.55 237.94 38.5 236.66 39.07 235.16 42.03 232.7 44.69 231.81 47.31 231.3 48.79 231.32 51.25 230.37 52.17 231.11 54.51 228.23 55.65 229.15 57.17 226.6 57.19 225.32 57.54 224.06 58.3 223.35 58.63 220.79 57.47 219.19 56.94 217.42 55.33 215.82 54.46 215.71 51.65 216.31 50.93 216.14 49.82 213.9 48.53 212.39 48.07 211.49 46.98 210.46 46.46 209.11 45.7 208.28 46.46 207.87 48.59 209.55 49.01 207.4 48.35 205.81 47.43 206.5 46.49 206.61 43.81 205.92 43.78 204.83 41.73 203.91 38.53 201.79 38.35 200.57 38.97 198.99 39.99 198.41 40.87 197.24 39.33 195.68 38.11 193.9 37.07 192.91 36.42 191.47 36.8 190.77 35.73 189.46 33.52 188.46 32.09 188.04 31.46 187.58 30 187.33 28.73 186.73 27.86 185.54 27.57 184.27 24.52 181.41 23.43 179.83 23.4 178.37 22.3 177.36 21.6 175.07 20.68 174.86 20.02 173.74 20.12 172.88 18.92 170.84 19.46 170.03 21.58 168.5 24.6 167.26 25.26 166.62 26.78 168.36 29.56 169.72 31.21 171.36 32.73 170.23 33.49 169.39 36.83 167.62 38.33 167.56 39.69 168.16 39.56 169.68 40.19 170.69 41.99 171.12 43.16 170.55 44.38 170.72 46.27 169.25 47.53 168.63 47.89 169.26 49.45 170.29 50.33 170.45 52.2 168.12 53.49 165.7 54.81 166.48 56 166.78 56.93 167.55 58.69 166.32 59.68 167.19 60.55 169.62 62.24 169.53 62.69 171.65 63.8 174.1 65.24 174.48 66.93 175.45 69.47 174.55 69.71 171.67 69.4 170.43 70.38 169.56 70.91 167.63 70.2 166.06 69.3 163.25 68.29 161.99 68.08 160.43 69.88 158.13 71.07 155.89 71.54 153.04 70.72 150.12 69.97 148.04 70.43 145.04 70.75 144.22 72.98 142.1 74.81 141.87 75.5 141.2 76.9 138.13 77.56 135.13 76.73 133.95 76.54 132.7 77.26 132.01 77.03 131.03 78.15 129.78 78.94 130.08 81.01 129.48 82.85 128.36 85.2 126.3 85.39 125.09 85.14 123.78 85.86 122.97 86.16 120.9 86.67 120.4 86.91 119.39 87.54 118.45 87.66 116.57 88.58 115.01 90.7 112.49 92.38 113.08 92.33 113.46 94.08 114.53 95.02 114.17 95.36 113.27 97.68 113.06 98.51 115.13 99.54 115.73 99.45 116.9 99.97 117.94 100.62 118.1 101.96 119.37 103.05 119.89 104.7 122.05 105.92 122.19 107.39 123.04 108.14 124.56 109.33 125.15 110.81 126.54 111.54 127.87 113.67 127.33 114.72 127.34 116.4 128.04 117.55 128.77 117.57 129.96 120.43 130.57 123.25 132.28 124.11 131.97 124.98 130.48 125.86 129.65 127.58 129.32 128.96 128.04 129.56 126.21 130.23 126.23 130.99 125.42 132.84 125.74 134.31 124.91 138.88 121.19 140.5 120.21 142.9 120.78 144.18 120.48 145.7 120.68 148.22 119.85 149.64 120.83 151.02 120.68 154.32 119.81 155.28 119.95 157.07 117.9 157.15 116.96 156.73 115.44 156.7 113.71 157.81 111.47 160.03 111.15 160.64 110.62 160.52 108.25 160.87 106.95 161.46 106.09 161.35 104.24 161.73 103.4 160.23 101.11 158.49 96.97 157.01 95.74 157.59 93.7 159.15 90.17 160.4 86.78 159.99 84.5 160.01 82.97 161.66 81.8 163.22 81.15 163.88 80.38 164.93 80.59 166.22 78.79 167.22 77.96 169.01 74.2 167.81 72.91 169.04 70.13 169.13 68.59 170.75 67.5 170.68 65.23 171.27 63.74 172.31 61.91 173.86 61.59 173.67 59.74 174.55 58.92 175.09 57.93 177.03 58.27 179.54 55.91 180.08 54.49 180.08 53.64 180.63 52 181.35 51.28 181.75 49 182.4 47.14 181.89 45.44 181.82 43.59 181.3 40.25 181.91 39.01 183.71 37.77 184.86 35.82 185.46 35.35 185.41 34.03 187.44 31.21 187.68 30.47 188.75 29.54 189.86 28.07 191.62 25.16 192.81 24.38 194.15 22.12 194.87 21.31 195.34 18.93 196.56 18.45 196.88 16.53 197.26 16.04 198.69 16.58 199.28 17.13 199.31 17.93 199.84 18.59 201.58 18.95 202.12 19.58 203.62 20.3 205.03 20.59 206.43 21.22 207.29 19.28 208.16 17.8 208.84 18.77 209.88 19.23 211.13 18.91 211.92 18.01 213.52 17.09 214.95 17.41 218.07 15.72 218.38 15.92 220.43 14.76 221.69 12.34 222.35 10.1 222.69 8.19 224.58 7.71 224.98 6.84 227.94 5.98 229.55 5.7 232.66 6.45 234.52 6.75 236.79 4.64 236.8 4.07 238.42 3.79 240.55 1.85 241.62 2.06 242.83 1.82 243.7 1.2 245.59 1 247.48 1.41 250.1 4.61 252.26 6.8 252.19 8.09 252.57 9.66 253.19 10.82 253.08 13.05 252.77 14.75 251.56 16.46 250.5 17.42 249.41 18.01 249.51 19.14 248.39 20.23 247.88 21.24 247.89 25.23 246.63 29.99 246.23 30.73 244.23 33.2 243.56 34.57 242.78 35.3 241.68 35.66 240.39 36.92 238.04 39.74 235.58 40.51 235.21 42.55 234.87 43.32 233.96 44.21 234.71 45.94 234.77 46.79 234.08 47.21 234.23 47.9 233.65 50.05 233.44 51.82 232.94 54.22 231.85 56.6 231.9 57.31 233.19 61.08 234.81 63.62 235.76 64.31 238.6 65.25 243.07 65.64 245.48 64.64 247.55 65.43 249.4 65.51 250.78 66.3 252.88 67.79 253.43 67.98 255.26 67.62 258.47 68.24 259.03 69.06 259.99 69.76 262.4 70.01 262.66 68.66 266.57 67.62 269.26 71.92 270.23 72.6 272.7 72.97 273.36 73.58 276.11 73.73 277.27 73.46 279.28 75.96 279.96 77.6 280.93 79.21 281.58 79.77 282.88 81.5 285.9 84.29 287.45 86.09 290.49 88.4 291.44 87.96 292.42 88.21 294.87 89.45 296.29 89.92 299.72 90.4 301.02 90.8 303.16 92.24 304.38 91.43 305.07 90.2 307.17 90.72 308 91.15 308.93 92.16 309.95 92.69 311.35 94.53 314.08 96.01 315.26 98.16 317.43 100.09 319.27 101.29 321.32 101.58 322.96 100.29 323.68 100.06 324.78 100.5 326.11 100.53 327.45 100.97 330.54 101.48 331.99 101.3 332.56 100.08 333.79 98.45 335.09 98.66 335.41 97.98 338.56 97.42 339 99.19 339.01 100.88 339.79 103.68 340.65 105.21 342.06 103.49 342.42 102.6 343.85 102.33 344.42 101.42 346.22 100.99 346.89 100.53 347.71 98.13 351.14 97.87 352.22 97.37 353.75 94.39 355.17 93.77 357.11 93.92 357.15 93.03 357.91 92 359.87 91.14 360.98 90.34 362.35 88.87 363.32 88.98 364.46 89.66 365.16 90.61 366.95 90.95 369.35 87.92 370.4 87.44 370.79 86.82 371.15 85.04 372.78 85.02 373.73 85.99 375.34 85.14 378.66 85.9 379.89 86.01 380.8 84.45 382.03 82.92 382.16 81.83 381.94 80.6 381.89 78.41 381.35 76.45 381.03 74.05 380.65 73.27 381.37 71.41 382.26 70.43 382.87 70.23 384.7 70.91 388.36 72.71 392.39 73.96 394.5 75.54 396.02 76.45 399.6 79.35 403.35 78.35 Z" id="24050000"/>
</g>
</svg>