<?xml version="1.0"?>
<svg xmlns="http://www.w3.org/2000/svg" version="1.2" baseProfile="tiny" width="800" height="782" viewBox="0 0 800 782" stroke-linecap="round" stroke-linejoin="round">
<g id="sigung">
<path d="M 780.23 243.36 787.66 249.79 793.31 255.61 799 263.47 792.76 266.18 782.93 266.92 767.11 271.53 758.87 267.16 754.27 263.82 747.78 255.63 740.73 240.45 735.15 234.85 731.44 234.01 716.6 235.59 709.04 234.76 700.46 237.39 686.34 243.15 688.28 248.42 679.55 251.79 679.05 255.54 671.23 261.42 656.33 264.71 621.26 286.62 642.43 320.28 636.93 323.69 638.82 326.64 621.11 336.53 621.42 338.75 619.47 341.2 620.14 347.05 617.52 347.25 612.74 352.53 606.64 354.03 604.89 359.37 608.18 366.27 613.44 366.81 618.72 371.81 623.24 375.1 626.37 388.45 627.67 391.61 630.71 395.48 635.18 394.99 636.64 399.01 635.94 405.87 636.94 409.39 637.05 416.92 631.9 422.49 631.66 428.2 628.19 433.41 629.9 441.2 631.86 447.28 632.22 461.29 634.66 467.5 635.01 471.22 640.95 476.28 642.43 479.9 641.5 488.41 642.08 491.03 641.53 501.96 643.18 508.65 643.29 512.15 642.08 516.61 642.62 518.98 641.29 525.23 637.46 531.68 638.66 536.05 642.28 542.19 637.34 550.39 623.09 548.21 617.87 551.71 614.46 551.41 606.6 556.95 606.02 558.67 597.71 557.81 594.53 554.51 575.09 544.41 573.16 544.89 567.87 543.17 564.33 540.12 559.02 536.84 558.18 535.26 553.64 533.08 549.8 532.57 544.9 530.55 540.07 523.44 532.7 523.27 534.68 528.14 533.35 531.62 528.25 537.32 527.81 540.48 521.5 543.72 521.41 547.45 515.92 554.76 508.86 558.65 506.49 558.46 504.47 560.47 506.93 566.63 506.14 568.08 509.41 570.68 514.17 576.22 509.47 577.38 506.01 576.2 500.63 578.95 493.75 585.13 501.69 594.42 499.89 595.9 509.62 605.67 512.35 609.86 506.13 609.49 498.04 611.34 493.9 610.37 491.77 608.01 479.07 606.48 475.21 617.32 471.21 617.08 466.12 619.47 462.08 619.3 458.37 615.48 445.66 621.22 441.68 619.44 439.26 619.52 433.79 623.43 431.39 626.72 441.4 629.14 444.13 633.26 444.69 636.13 439.73 644.23 426.09 645.88 417.5 645.46 414.62 648.78 410.93 645.7 405.27 637.98 400.68 636.71 397.06 638.08 394.77 641.83 388.79 644.14 384.41 643.68 373.04 647.53 367.11 647.98 360.44 651.26 354.6 651.26 351.58 648.97 345.47 649.21 338.26 653.61 335.37 660.43 329.51 661.06 318.22 664.4 316.23 669.32 311.67 674.44 306.75 677.32 306.59 682.48 304.65 685.05 296.76 691.2 291.83 689.35 285.18 688.39 276.99 682.77 275.04 680.21 271.74 684.43 269.88 688.9 268.46 697.14 266.25 699 265.23 702.88 265.72 707.45 263.99 712.43 258.59 715.96 253.36 718.52 246.74 719.57 242.06 719.62 235.76 718.61 226.07 718.16 221.57 722.51 219.4 728.34 210.95 738.76 202.7 745.94 203.64 749.93 198.23 749.91 194.14 751.49 190.47 756.69 184.65 761.33 181.24 762.23 175.24 760.57 170.05 763.59 162.53 770.74 151.92 774.49 148.14 776.77 143.1 781 129.3 771.36 118.76 760.97 115.37 756.28 105.59 758.33 100.69 760.73 93.09 769.57 86.75 773.35 81.09 778.62 77.39 780.76 73.79 775.58 66.59 769.67 65.16 764.73 57.63 757.37 57.14 754.3 54.37 751.91 54.3 748.73 50.38 741.01 47.73 731.08 43.45 722.22 39.52 728.49 35.81 732.37 34.15 737.55 35.36 741.08 32.9 745.6 28.88 748.05 28.9 750.03 26.01 751.98 21.27 757.16 14.85 758.07 14.24 753.21 12.02 747.75 4.4 735.05 2.11 729.46 1 724.13 1.31 711.69 3.26 692.05 8.33 684.83 14.77 680.73 21.26 675 28.43 679.17 35.33 680.1 40.02 678.47 42.79 674.55 41.89 669.67 39.13 665.45 37.11 659.96 37.15 655.86 33.7 651.6 31.31 642.82 31.05 636.99 32.19 633.26 24.87 621.73 18.51 602.06 17.54 597.7 18.49 595.79 17.19 590.89 22.28 586.99 24.97 587 28.89 589.71 30.1 588.41 34.33 590.01 39.12 593.93 41.23 593.99 46.71 590.87 47.21 588.74 52.86 587.73 58.85 589.62 65.5 589.9 65.33 585.86 67.14 577.26 65.23 573.41 66.11 571.94 65.82 566.72 66.72 563.3 65.9 560.54 69.44 551.45 72.33 552.3 77.03 551.66 84.73 551.87 86.61 549.66 92.57 548.65 101.44 551.15 106.45 549.5 110.96 550.65 113.14 549.9 117 552.29 118.99 552.08 124.13 546.53 127.62 541.79 121.22 536.96 120.06 531.62 121.88 524.2 120.7 515.69 122.76 509.14 126.07 503.75 132.83 496.12 146.16 487.75 150.51 484.23 154.14 477.37 159.5 463.02 154.55 452.55 149.75 447.9 141.52 442.75 138.38 439.49 136.03 435.37 134.12 428.49 133.53 422.94 133.91 418.2 135.94 408.22 141.52 400.36 147.8 395.37 159.93 389.14 170.5 386.78 174.29 383.23 179.31 376.48 187.23 367.67 191.07 362.77 197.71 356.51 203.14 350.05 207.3 343.23 212.31 337.1 214.17 331.31 213.33 321.59 210.49 312.72 210.07 304.91 211.06 297.08 210.1 294.56 211.14 280.67 210.14 267.76 205.27 252.38 195.21 238.33 188.19 231.07 182.08 222.99 181.81 215.2 183.24 209.6 182.1 203.08 183.62 193.4 186.19 188.36 181.8 185.68 185.01 178.69 188.03 162.47 187.05 159.72 181.7 154.45 177.7 146.66 176.48 142.19 176.43 125.4 181.21 114.52 194.61 101.39 201.66 95.21 210.04 91.53 221.69 83.26 230.63 80.85 237.18 78.56 245.91 78.63 261.83 76.83 267.01 73.72 270.72 70.6 272.57 64.28 270.85 55.41 270.84 50.34 272 48.33 273.4 33.92 272.93 28.82 273.13 18.27 275.76 11.69 280.68 2.64 285.6 3.59 290.68 1 299.74 5.66 301.87 7.89 307.67 11.63 308.34 15.25 310.21 16.62 314.1 16.56 310.96 22.61 347.5 32.51 421.53 53.6 434.98 57.27 441.32 58.14 510.61 62.77 550.26 65.83 550.02 73.04 562.9 69.6 574.75 69.48 590.39 71.93 596.39 73.61 607.6 77.73 612.46 80.5 611.36 91.29 617.46 99.65 617.55 101.52 621 105.41 623.97 107.24 621.2 110.91 623.99 115.08 626.41 114.98 630.04 125.12 631.08 131.07 632.33 132 634.27 143.79 638.78 154.65 643.66 154.37 648.84 158.83 659.47 160.39 668.76 159.82 675.38 160.72 681.47 163.72 689.11 169.12 697.15 173.97 714.92 181.35 719.03 184.11 729.94 193.45 742.04 207.93 743.86 210.87 749.19 214.56 753.39 219.42 780.23 243.36 Z" id="24020000"/>
</g>
</svg>