<?xml version="1.0"?>
<svg xmlns="http://www.w3.org/2000/svg" version="1.2" baseProfile="tiny" width="800" height="560" viewBox="0 0 800 560" stroke-linecap="round" stroke-linejoin="round">
<g id="sigung">
<path d="M 709.25 19.2 725.32 41.5 731.21 47.76 737.13 53.35 742.74 60.43 752 73.96 755.07 78.64 756.96 80.95 758.11 80.34 759.96 85.76 760.61 89.31 763.5 95.31 766.89 97.82 770.09 101.04 773.55 103.11 775.89 105.58 776.92 108.41 779.57 111.36 781.1 115.21 782.91 121.82 784.57 125.41 789.21 128.31 788.75 136.6 793.86 139.22 799 144.22 796.15 146.13 795.75 147.48 790.11 149.8 787.83 149.9 774.91 153.91 775.65 156.54 775.78 159.99 774.61 160.14 770.81 163.27 768.01 167.32 767.57 171.3 767.73 174.52 763.13 178.39 763.74 180.51 759.52 182.15 757.6 183.72 754.29 185.23 753.16 188.8 752.58 192.31 750.05 194.14 746.47 195.05 744.15 196.44 737.65 197.12 736.68 195.43 734.86 195.88 731.81 198.23 727.47 199.17 726.25 201 722.19 202.55 720.57 203.82 720.1 205.75 722.22 208.05 724.69 209.43 726.47 214.07 723.65 217.74 723.23 219.09 720.95 222.23 721.45 226.6 721.53 231.6 723.8 235.59 726.59 238.55 729.49 240.88 728.58 244.85 728.53 248.86 727.82 250.29 728.13 255.18 730.51 258.26 730.82 261.32 732.46 263.61 735.92 266.74 739.12 268.82 742.68 273.12 745.83 278.35 746.5 281.08 744.67 287.15 745.53 291.23 747.53 295.52 750.94 296.58 754.36 296.11 756.41 297 757.69 299.66 760.62 304.36 761.55 304.89 759.25 308.38 758.64 312.23 758.16 318.84 755.44 322.8 754.08 325.86 754.56 328.8 752.7 332.17 752.75 336.14 748.92 335.93 746.41 336.31 743.31 337.76 740.46 337.82 735.3 342.03 730.82 345.12 725.68 347.57 721.42 348.69 719.25 350.37 713.09 352.02 713.38 358.77 709.49 362.57 708.75 365.16 705.35 368.15 703.27 371.14 695.93 377.37 692.19 383.12 691.19 388.35 685.43 391.96 678.71 392.29 674.2 394.02 670.57 394.8 666.88 394.95 664.46 395.66 660.79 393.04 654.2 392.79 646.39 394.91 642.82 395.64 637.7 400.77 634.91 405.67 628.72 410.8 622.64 407.18 619.57 406.18 617.24 403.5 611.55 399.73 605.24 397.4 602.83 393.31 598.98 390.77 595.47 393.46 588.59 397.58 586.85 400.45 581.79 403.81 580.24 405.7 577.53 406.37 574.03 408.01 570.38 408.91 568.78 412.31 561.92 414.78 558.45 415.47 557.95 421.26 551.61 424.53 545.4 427.03 545.19 425.37 542.1 425.92 538.26 430.06 536.89 430.57 534.26 429.85 532.52 428.56 528.13 428.85 524.75 427.86 522.41 425.16 512.19 421.28 511.1 422.91 508.38 424.99 506.7 423.72 504.47 423.41 501.65 420.35 494.83 417.24 493.97 416.02 492.49 410.58 490.89 409.67 489.26 405.2 486.5 405.85 483.53 405.18 479.96 406.67 478.06 408.68 474.44 408.4 471.84 406.97 464.3 408.36 463.72 411.45 461.99 413.38 461.21 420.57 459.46 423.68 457.59 428.46 454.21 433.38 451.81 434.55 448.59 435.36 447.62 436.66 442.83 438.27 439.78 438.41 437.73 440.29 435.76 441.2 431.83 442.06 430.69 443.57 430.8 448.49 428.06 452.26 424.85 455.07 423.65 459.45 423.68 462.06 419.72 463.56 420.2 465.62 420.18 470.35 416.95 473.93 414.88 474.97 411.62 479.64 404.97 479.1 402.41 477.17 397.32 476.68 395.54 478.18 387.95 476.53 383.72 476.73 379.9 474.89 378.57 480.55 377.11 480.23 376.12 483.93 376.53 484.92 375.39 487.96 371.34 488.58 368.21 490.76 365.37 491.71 358.86 492.32 354.98 493.5 351.08 496.8 347.69 498.31 345.3 497.3 342.99 498.18 342.01 497.01 337.49 497.25 337.39 496.22 333.74 497.05 332.8 495.53 326.96 501.01 321.93 504.47 320.53 504.6 317.45 506.56 314.12 507.49 311.59 509.35 309.98 513.74 306.79 516.91 305.56 520.94 305.43 525.55 302.42 530.74 302.14 533.05 300.9 533.83 299.25 536.56 298.37 540.85 297.39 542.44 297.76 545.45 296.31 549.02 293.08 549.18 291.21 548.18 288.25 547.8 287.44 548.61 282.09 545.23 281.07 546.9 277.88 545.43 274.58 546.57 270.23 549.77 269.03 549.55 265.95 547.02 264.15 547.49 262.21 549.71 260.32 547.85 257.43 551.21 255.29 551.75 253.34 550.84 251.16 551.78 248.78 554.8 247.72 557.62 246.3 559 244.44 557.46 240.28 557.51 238.07 555.67 234.73 555.2 233.87 550.76 229.32 550.85 228.64 549.39 228.08 544 228.16 541.15 226.57 537.25 226.59 535.56 219.93 526.82 218.13 522.97 219.05 522.03 219.48 519.28 214.17 515.66 211.69 513.52 209.2 512.07 208.21 513.3 206.03 512.67 203.76 513.13 201.49 514.55 198.92 514.07 196.29 510.69 194.45 504.64 192.45 502.97 189.71 502.65 187.08 504.39 184.68 507.55 183.02 508.4 178.99 508.63 176.14 507.5 174.66 506.11 172.33 508.17 170.9 512.84 164.77 514.35 161.66 517.4 160.34 520.79 157.61 522.93 154.32 522.97 148.46 528.15 147.89 530.9 145.2 533.15 142.7 533.59 139.48 535.28 137.33 534.48 133.42 539.55 129.47 542.54 124.73 540.83 121.29 540.21 117.25 540.35 113.44 541.72 104.66 548.22 99.21 548.94 89.71 547.62 86.57 546.62 79.88 543.34 73.52 541.72 69.59 538.49 65.7 532.2 65.11 528.58 66.01 521.9 67.51 514.72 69.38 510.18 70.98 507.48 70.97 504.95 70.09 500.8 65.75 492.76 62.98 489.23 60.42 487.19 55.11 484.55 44.73 486.6 38.81 489.1 30.33 494.99 28.14 498.53 26.38 505.5 25.18 508.52 21.66 513.92 17.18 518.09 13.18 513.42 13.03 511.87 13.21 502.07 11.08 494.37 6.36 487.77 1.88 483.94 1 479.6 3.07 474.02 5.55 470.74 9.29 468.51 18.41 462.39 24.16 460.95 34.98 460.66 40.6 461.35 49.51 463.22 55.68 463.59 63.69 463.57 70.87 461.18 74.32 459.44 79.39 455.29 83.38 452.6 87.79 450.32 92.16 448.64 97.32 447.38 101.4 446.72 110.77 446.24 118.56 445.18 129.44 441.74 133.83 439.65 143.02 433.3 146.19 430.62 150.02 426.81 154.2 419.05 157.42 415.16 159.17 409.78 163.5 405.06 166.52 398.01 168.97 399.12 170.99 396.07 173.93 387.71 184.72 375.78 185.78 375.19 194.93 354.92 201.17 349.1 205.11 348.99 207.62 347.1 214.32 343.48 215.8 341.42 218.84 339.45 223.15 335.05 224.61 331.92 225.24 328.91 224.58 324.8 228.55 324.24 231.48 321.04 233.26 319.83 233.25 318.61 235.74 317.09 237.26 314.3 236.51 312.12 237.53 308.92 239.83 306.53 242.26 302.65 244.9 308.12 246.54 314.26 248.96 319.03 249.01 321 250.72 322.47 251.02 324.37 255.68 328.92 256.56 331.97 261.01 335.62 263.24 338.82 265.52 337.5 269.02 334.24 272.94 331.9 277.64 326.44 280.67 324.96 286.71 323.69 288.81 326.59 295.32 333.01 303.85 338.97 306.96 336.35 309.3 334.95 315.86 332.63 320.51 328.21 323.71 326.35 327.42 327.37 329.53 326.81 333.13 323.95 335.39 320.73 337.92 319.76 341.27 319.77 340.69 317.31 345.78 312.87 351.01 306.43 352.35 302.83 355.13 300.14 361.12 300.42 365.01 301.04 367.91 301.01 372 300.36 375.23 298.78 378.57 296.6 379.63 293.52 379.34 290.7 379.96 288.3 381.33 287.15 382.21 282.06 383.36 279.3 385.4 276.69 386.6 278.28 391.67 281.75 395.78 282.34 398.82 283.48 403.7 279.68 404.9 278.1 405 274.91 408.04 273.13 410.86 269.96 412.09 266.93 419.06 264.86 422.68 264.47 424.47 260.26 428.93 257.54 432.71 257.39 434.57 258.81 438.18 258.8 442.3 256.78 445.97 256.5 453 254.12 455.7 254.41 459.4 252.98 460.82 250.66 463.05 249.82 465.89 250.6 469.39 255.37 471.67 257.27 473.45 255.22 478.76 255.48 487.19 254.46 490.25 249.45 489.91 247.68 488.22 245.14 482.04 243.64 483.52 241.61 486.9 239.19 488.39 239.15 490.86 240.25 498.71 236.7 501 239.06 503.5 239.16 506.65 237.69 509.12 237.83 511.5 231.14 519.35 232.08 520.67 233.54 523.23 234.14 528.23 233 532.08 233.23 530.39 230.64 524.38 224.6 525.49 223.69 520.58 217.94 524.83 214.13 528.15 212.43 530.29 213.16 533.2 212.44 530.26 209.02 528.24 207.41 528.73 206.52 527.21 202.71 528.45 201.47 529.92 201.58 534.28 199.18 537.67 194.67 537.73 192.36 541.63 190.36 541.9 188.41 545.05 184.88 545.88 182.74 544.65 179.72 549.21 179.83 552.2 184.22 555.22 185.47 557.6 185.79 560.4 187.13 560.92 188.11 564.2 190.13 566.39 192.02 569.66 193.08 570.86 192.78 582.87 199.03 584.83 201.07 589.97 201.6 590.33 200.54 595.19 197.11 597.3 197.3 600.52 195.13 609.33 196.48 612.38 191.42 610.15 187.62 609.4 184.92 611.77 180.94 612.59 177.08 612.26 175.61 613.01 172.85 612.94 170.69 611.92 166.56 612.26 159.8 611.9 158.19 612.47 152.93 611.56 150.69 607.89 147.56 607.67 145.27 606.16 141.43 605.94 132.77 604.73 129.02 603.67 124.21 605.82 120.98 605.97 117.46 609.15 114.01 609.08 109.37 608.47 107.19 608.9 102.95 608 100.47 605.23 100.77 603.35 98.37 602.55 96.43 600.62 88.18 597.82 86.14 594.55 83.05 591.31 82.72 589.27 78.46 590.35 75.16 594.12 74.23 597.08 70.97 598.7 70.85 598.28 67.23 599.49 65.72 599.29 64.34 610.24 58.24 609.08 56.41 612.47 54.31 599.39 33.51 621.07 19.97 630.28 17.94 635.11 14.3 635.42 11.99 640.81 9.9 639.62 6.65 648.34 3.09 653.64 1.47 658.32 1.98 667.49 1 669.78 1.52 673.23 4.98 677.59 14.36 681.6 19.42 684.45 21.49 689.53 24.18 699.31 21.33 705.39 20.88 709.25 19.2 Z" id="24030000"/>
</g>
</svg>