<?xml version="1.0"?>
<svg xmlns="http://www.w3.org/2000/svg" version="1.2" baseProfile="tiny" width="800" height="852" viewBox="0 0 800 852" stroke-linecap="round" stroke-linejoin="round">
<g id="sigung">
<path d="M 705.45 136.51 706.22 137.37 707.72 140.98 708.8 142.76 710.14 142.93 716.54 158.09 717 158.35 729.51 154.17 741.28 149.52 745.56 160.12 746.25 162.71 746.66 167.24 772.02 167.42 771.9 184.95 772.24 185.3 778.83 185.35 783.84 186.21 786.64 187.5 785.61 188.32 777.46 197.11 774.61 200.7 772.19 204.75 770.42 213.06 770.21 216.65 770.5 218.08 775.78 226.26 777.24 230.08 779.35 239.33 779.6 241.39 779.31 246.16 779.93 252.43 780.31 260.2 779.5 263.5 778.27 266 776.17 268.78 773.95 270.69 767.87 273.93 768.43 278.73 770.86 281.52 775.38 283.71 777.39 284.03 780.72 283.92 785.44 286.4 787.57 287.09 791.8 289.35 793.55 291.52 795.13 295.59 796.3 301.76 796.17 303.78 794.45 310.38 794.45 313.32 795.64 319.94 796.99 322.77 797.12 324.12 798.79 328.12 799 330.91 795.55 336.86 792.71 342.29 786.76 346.19 782.79 347.5 780.5 347.35 775.57 345.77 772.52 345.65 770.08 346.48 767.64 348.43 765.79 351.17 765.41 354.61 763.65 357.38 761.36 358.15 758 358.51 753.67 358.08 749.76 358.41 747.44 357.07 745.88 355.17 741.11 346.55 728.58 348.09 725.14 352.76 720.28 358.94 718.71 363.51 716.21 368.09 714.88 371.42 714.78 376.77 715.02 379.36 714.31 386.65 713.72 387.67 713.73 390.24 714.6 394.73 713.66 397.94 711.78 399.52 709.15 401.09 701.08 402 696.66 401.97 693.34 403.13 688.81 404.35 682.9 408.54 678.65 410.4 675.08 413.53 668.29 420.18 665.87 425.7 665.89 434.2 666.51 436.47 668.54 440.41 671.25 443.08 671.75 444.48 670.21 452.69 668.59 456.24 670.81 457.59 669.51 460.15 668.74 465.05 669.32 468.36 668.6 471.19 668.73 475.14 671.83 479.23 675.38 482.91 680.49 490.02 682.95 497.82 683.46 504.36 682.93 511.4 683.42 512.67 682.92 516.64 683.13 520.59 684.57 525.09 684.99 530.01 684.05 532.95 681.51 536.05 679.4 539.51 676.65 542.78 673.29 545.95 671.34 548.43 667.33 552.89 664.78 556.31 662.86 558.11 657.5 559.31 651.35 562.46 648.17 564.99 645.34 568.97 644.31 574.03 644.12 576.43 644.42 579.25 645.39 582.73 646.58 584.81 648.17 586.47 652.34 589.08 654.78 591.43 657.28 596.74 654.57 604.01 652.73 607.48 650.52 609.27 643.77 613.51 640.34 617.37 638.67 620.1 637.62 623.42 638.22 627.73 637.3 631.49 637.88 634.19 641.13 636.64 639.36 639.04 636.75 641.86 635.74 641.96 633.78 640.75 632.68 641.13 630.4 640.55 627.86 641.38 623.36 640.12 620.34 640.63 619.39 641.75 615.49 641.64 613.1 641.96 611.64 641.54 609.84 646.14 610.26 647.54 609.8 649.27 609.95 651.91 609.5 652.66 610.47 654.61 609.55 658.97 609.64 661.02 606.27 660.87 603.23 659.91 600.37 660.43 600.11 661.51 597.34 663.09 596.27 663.06 593.84 661.07 591.7 660.26 591.08 660.92 589.1 659.54 587.73 659.54 585.15 661.52 585.82 664 585.33 664.97 585.83 667.18 589.05 677.14 592.76 682.98 592.18 684.87 592.31 687.82 593.52 692.27 595.27 694.43 595.25 696.51 596.28 699.29 597.67 701.43 598.13 703.9 596.73 705.88 594.35 706.71 590.85 706.24 587.22 704.13 583.93 707.03 580.66 709.11 578.09 712.76 577.1 722.71 576.95 729.02 577.51 731.72 578.67 734.55 582.53 740.98 583.66 743.75 583.97 746.21 584.51 749.58 583.99 752.05 582.8 754.61 579.26 758.22 576.77 759.84 575.55 761.52 570.06 764.49 568 766.04 564.77 766.13 559.65 770.91 552.15 787.53 551.28 788.01 542.43 797.79 540.02 804.64 538.36 807.14 536.35 806.24 533.88 812.01 530.33 815.89 528.89 820.3 526.25 823.49 522.83 829.85 519.68 832.97 517.08 835.17 509.55 840.38 505.95 842.09 497.03 844.91 490.64 845.78 482.95 846.17 479.61 846.71 475.38 847.75 471.79 849.13 468.17 851 467.21 848.7 466.54 844.46 465.34 844.48 465.23 839.73 460.74 837.04 458.6 834.96 457.03 832.56 453.1 828.56 451.84 826.11 452.32 823.65 450.75 822.67 448.6 819.91 446.61 815.75 444.01 812.3 445.42 810.7 445.33 809.25 447.3 803.65 447.54 798.41 447.18 794.41 446.07 790.07 442.88 789.72 440.37 788.75 438.54 787.42 439.21 784.49 438.88 782.72 437.22 781.04 436.8 778.08 438.88 778.22 439.07 775.97 436.71 775.65 436.19 772.86 432.74 768.24 432.79 764.5 434.01 763.14 433.28 756.92 430.56 757.13 426.99 755.85 425.22 754.88 421.56 754.08 417.69 754.69 416.66 756.01 411.48 753.85 407.98 754.85 405.16 753.95 403.86 752.13 404.09 749.6 402.64 747.57 402.64 743.8 401.17 740.86 397.76 737.75 397.76 735.66 395.98 734.32 396.29 733.44 393.04 730.4 392.35 728.64 392.51 725.57 391.62 723.58 388.77 719.6 386.14 715.07 385.83 712.96 386.4 710 384.53 707.65 382.28 706.63 380.63 704.92 377.27 706.19 374.13 703.08 371.57 700.93 369.52 698.14 366.82 696.01 364.09 694.63 363.46 692.39 360.11 690.1 356.65 689.08 355.53 689.28 353.21 687.61 350.33 686.01 346.59 682.13 342.93 680.49 339.23 679.17 335.73 680.42 335.81 677.85 335.16 674.41 333.49 672.53 332.05 669.76 331.6 666.2 330.58 666.06 328.35 662.63 326.76 660.93 325.28 658.27 324.48 657.92 322.18 659.57 321.2 661.45 318.57 662.17 317.57 664.87 317.02 669.62 318.06 672.34 319.9 674.24 319.82 676.66 318.81 677.5 320.13 679.65 318.17 681.3 309.4 682.77 305 682.15 300.91 680.62 294.89 679.65 291.65 678.47 290.49 679.04 287.41 678.65 284.69 678.98 278.96 678.69 275.04 677.46 270.01 672.65 266.86 670.37 265.94 669.08 263.46 667.81 261.65 667.63 258.79 668.5 253.92 670.58 251.43 671.32 246.41 671.3 244.25 671.63 241.15 673.21 238.05 673.41 236.2 673 235.45 671.91 229.26 664.43 225.69 658.97 224.14 657.59 221.32 658.42 214.23 658.62 210.32 660.33 210.84 661.91 208.63 664.48 207.01 668.11 205.96 669.2 204.72 671.85 204.37 674.88 200.96 676.53 199.14 676.74 197.63 677.73 198.29 679.88 195.08 681.65 193.18 681.77 191.21 681.2 189.31 682.08 188.28 681.26 186.99 678.4 185.79 676.84 181.7 674.93 179.21 675.88 178.91 677.47 175.7 678.73 174.15 674.81 174.25 672.41 172.7 669.34 166.8 665.17 164.53 665.98 161.58 665.8 156.57 663.38 153.27 662.6 150.97 661.61 148.35 661.53 144.57 662.95 142.11 664.24 143.72 665.37 149.04 677.67 146.78 677.61 146.53 679.62 147.26 680.77 145.85 681.46 141.43 682.34 137.17 682.18 130.17 681.61 127.5 684.34 127.32 685.56 125.89 687.88 121.72 689.36 119.16 691.97 116.49 693.57 111.89 692.59 105.64 692.16 102.4 694.19 95.4 693.74 90.89 694.77 87.95 693.9 86.18 692.84 83.68 692.39 83.93 690.15 82.54 688.05 81.85 685.87 85.27 685.26 87.34 681.44 89.24 679.9 89.8 674.85 89.83 664.76 90.57 661.32 85.81 661.83 80.6 659.53 78.27 654.97 75.8 652.67 72.68 651.81 68.7 648.72 65.79 649.22 61.76 651.85 59.32 653.15 58.2 653.12 55.85 654.44 49.48 654.5 47 655.63 45.22 655.48 42.39 653.04 38.35 648.37 38.47 645.7 39.14 641.6 39.08 638.75 37.52 635.03 32.83 632.08 29.22 631.1 26.32 626.71 25.33 623.27 28.47 617.64 28.91 616.3 27.85 612.93 27.53 609.95 26.58 607.88 25.64 604.13 27.31 600.13 29.25 598.1 30.87 595.63 30.54 594.32 31.52 590.07 31.69 586.13 32.69 583.03 32.94 577.81 35.07 574.69 32.59 570.55 36.22 564.29 36.62 558.98 36.84 552.62 37.79 548.47 34.92 546.93 33.96 543.98 33.33 539.51 31.57 537.32 30.67 532.26 29.98 530.86 30.32 526.86 30.31 521.52 31.84 517.13 25.86 516.96 21.51 515.26 14.47 516.87 10.54 516.72 9.59 515.85 5.06 510.24 3.6 508.17 1 505.32 7.66 503.85 11.91 503.53 16.3 502.58 20.18 500.45 22.9 497.45 23.09 495.25 23.72 494.57 22.13 489.38 24.42 486.82 28.48 483.41 29.13 482.03 31.98 478.54 32.87 476.33 30.61 474.12 26.24 471.02 24.98 468.16 26.15 464.92 28.07 462.42 31 460.93 33.41 456.28 37.88 451.23 39.55 449.9 39.08 446.11 35.89 444.29 35.13 443.37 33.39 439.09 35.24 434.51 35.21 431.23 34.59 425.91 35.52 424.31 38 421.56 40.27 419.86 41.42 418.4 46.12 415.04 50.95 414.11 55.45 416.06 59.49 415.03 66.74 416.09 66.65 413.83 67.65 411.22 72.83 406.91 77.49 405.34 82.09 404.44 84.66 404.48 88.98 402.83 90.59 404.11 94.69 399.07 96.69 400.68 99.34 396.22 99.38 393.97 99.99 391.76 101.33 390.52 101.89 386.04 99.87 383.24 98.95 380.13 96.11 377.33 94.59 377.13 89.68 378.18 88.41 377.9 86.48 373.98 84.22 371.33 83.41 369.74 81.5 367.94 80.6 365.58 79.26 364.12 80.6 363.41 84.32 366.35 85.06 362.58 83.91 359.79 82.29 361.01 80.64 361.2 75.95 359.99 75.9 358.07 72.31 356.46 66.71 352.75 66.39 350.61 67.48 347.85 69.26 346.83 70.81 344.78 68.1 342.06 65.98 338.92 64.15 337.19 63.01 334.67 63.68 333.46 61.8 331.15 57.93 329.4 55.42 328.67 54.32 327.87 51.78 327.43 49.55 326.38 48.02 324.29 47.52 322.06 42.19 317.06 40.27 314.28 40.22 311.72 38.29 309.96 37.07 305.95 35.45 305.58 34.3 303.61 34.48 302.11 32.37 298.53 33.33 297.12 37.04 294.43 42.31 292.26 43.47 291.13 46.13 294.18 51 296.57 53.9 299.45 56.56 297.47 57.89 295.99 63.73 292.9 66.37 292.79 68.75 293.85 68.52 296.5 69.62 298.27 72.77 299.03 74.81 298.02 76.94 298.32 80.26 295.74 82.46 294.67 83.09 295.76 85.83 297.57 87.37 297.85 90.64 293.76 92.91 289.53 95.21 290.9 97.29 291.42 98.92 292.77 102 290.62 103.73 292.14 105.25 296.39 108.22 296.24 109 299.95 110.96 304.24 113.48 304.92 116.43 306.62 120.89 305.04 121.31 299.99 120.76 297.81 122.47 296.29 123.4 292.91 122.15 290.16 120.58 285.23 118.82 283.03 118.44 280.3 121.6 276.27 123.68 272.34 124.51 267.35 123.07 262.23 121.76 258.6 122.56 253.34 123.13 251.9 127.02 248.19 130.23 247.79 131.44 246.61 133.89 241.24 135.05 235.97 133.59 233.91 133.26 231.72 134.51 230.51 134.12 228.79 136.08 226.6 137.46 227.13 141.08 226.07 144.3 224.11 148.42 220.5 148.76 218.39 148.32 216.09 149.57 214.68 150.11 211.04 151 210.17 151.41 208.4 152.52 206.76 152.73 203.47 154.34 200.73 158.04 196.32 160.99 197.34 160.89 198.01 163.96 199.88 165.61 199.26 166.21 197.68 170.27 197.32 171.72 200.93 173.53 201.99 173.37 204.04 174.28 205.86 175.41 206.15 177.76 208.36 179.67 209.28 182.57 213.06 184.7 213.3 187.27 214.79 188.59 217.46 190.66 218.48 193.25 220.94 194.54 223.25 198.27 222.31 200.11 222.33 203.05 223.55 205.06 224.84 205.1 226.91 210.1 227.99 215.05 230.98 216.54 230.44 218.07 227.82 219.6 226.38 222.62 225.79 225.03 223.56 226.09 220.35 227.27 220.39 228.6 218.97 231.83 219.52 234.41 218.06 242.41 211.55 245.24 209.84 249.44 210.84 251.68 210.3 254.34 210.66 258.76 209.2 261.25 210.92 263.65 210.66 269.44 209.13 271.13 209.39 274.25 205.8 274.39 204.14 273.66 201.48 273.61 198.45 275.54 194.52 279.43 193.97 280.5 193.04 280.29 188.89 280.9 186.61 281.94 185.09 281.74 181.86 282.41 180.38 279.78 176.38 276.73 169.12 274.14 166.98 275.15 163.4 277.89 157.21 280.08 151.28 279.36 147.29 279.39 144.59 282.28 142.55 285.02 141.41 286.18 140.06 288.02 140.42 290.27 137.27 292.02 135.83 295.16 129.24 293.06 126.98 295.21 122.11 295.37 119.4 298.2 117.51 298.09 113.53 299.12 110.91 300.94 107.71 303.64 107.15 303.31 103.91 304.87 102.47 305.81 100.73 309.2 101.32 313.6 97.2 314.54 94.71 314.55 93.22 315.51 90.34 316.75 89.08 317.46 85.08 318.6 81.83 317.71 78.85 317.58 75.61 316.67 69.76 317.74 67.59 320.89 65.42 322.91 61.99 323.96 61.18 323.87 58.87 327.43 53.92 327.84 52.62 329.72 50.99 331.67 48.43 334.74 43.32 336.82 41.95 339.18 37.99 340.43 36.58 341.25 32.42 343.38 31.58 343.95 28.2 344.61 27.35 347.13 28.3 348.16 29.25 348.21 30.66 349.13 31.82 352.18 32.44 353.12 33.55 355.75 34.8 358.23 35.32 360.68 36.43 362.17 33.02 363.7 30.44 364.89 32.14 366.71 32.94 368.89 32.37 370.29 30.8 373.09 29.19 375.59 29.75 381.05 26.78 381.6 27.14 385.18 25.11 387.39 20.87 388.55 16.94 389.14 13.6 392.46 12.76 393.15 11.23 398.34 9.73 401.14 9.23 406.6 10.54 409.86 11.07 413.83 7.37 413.85 6.39 416.67 5.89 420.41 2.5 422.29 2.86 424.41 2.45 425.93 1.36 429.24 1 432.54 1.72 437.14 7.33 440.91 11.16 440.79 13.42 441.45 16.18 442.54 18.2 442.35 22.11 441.81 25.09 439.69 28.09 437.84 29.76 435.93 30.8 436.09 32.79 434.13 34.69 433.24 36.45 433.26 43.45 431.06 51.78 430.36 53.09 426.86 57.41 425.67 59.81 424.32 61.1 422.39 61.72 420.14 63.93 416.02 68.87 411.71 70.22 411.06 73.8 410.47 75.13 408.87 76.69 410.19 79.72 410.29 81.21 409.08 81.96 409.35 83.17 408.33 86.93 407.96 90.03 407.09 94.23 405.18 98.4 405.26 99.65 407.53 106.24 410.36 110.7 412.02 111.91 417 113.56 424.82 114.24 429.04 112.5 432.67 113.88 435.9 114.02 438.33 115.39 442 118.01 442.96 118.35 446.17 117.72 451.79 118.79 452.77 120.23 454.45 121.45 458.67 121.9 459.13 119.52 465.97 117.71 470.68 125.25 472.37 126.44 476.71 127.08 477.85 128.16 482.66 128.42 484.69 127.95 488.21 132.32 489.41 135.19 491.11 138.01 492.25 138.99 494.52 142.03 499.8 146.91 502.53 150.07 507.85 154.11 509.51 153.33 511.22 153.78 515.51 155.96 518.01 156.77 524.01 157.62 526.28 158.32 530.04 160.84 532.16 159.43 533.37 157.27 537.06 158.18 538.5 158.93 540.13 160.7 541.93 161.62 544.37 164.85 549.16 167.44 551.21 171.2 555.01 174.59 558.24 176.69 561.83 177.2 564.7 174.95 565.96 174.55 567.89 175.32 570.22 175.36 572.55 176.13 577.96 177.02 580.51 176.72 581.51 174.57 583.67 171.72 585.93 172.08 586.5 170.89 592.01 169.92 592.78 173.01 592.8 175.98 594.16 180.89 595.67 183.56 598.13 180.54 598.76 178.98 601.27 178.51 602.28 176.92 605.43 176.17 606.59 175.37 608.04 171.16 614.03 170.7 615.93 169.83 618.6 164.6 621.09 163.51 624.48 163.78 624.55 162.22 625.9 160.41 629.32 158.92 631.27 157.51 633.66 154.94 635.35 155.13 637.35 156.31 638.58 157.98 641.71 158.58 645.92 153.27 647.76 152.43 648.43 151.35 649.07 148.23 651.93 148.19 653.59 149.88 656.41 148.4 662.21 149.74 664.37 149.92 665.97 147.19 668.12 144.5 668.35 142.6 667.96 140.45 667.87 136.61 666.92 133.17 666.37 128.98 665.7 127.61 666.97 124.34 668.51 122.64 669.59 122.27 672.79 123.48 679.21 126.63 686.25 128.82 689.95 131.59 692.62 133.18 698.87 138.26 705.45 136.51 Z" id="24050000"/>
</g>
</svg>