<?xml version="1.0"?>
<svg xmlns="http://www.w3.org/2000/svg" version="1.2" baseProfile="tiny" width="800" height="1004" viewBox="0 0 800 1004" stroke-linecap="round" stroke-linejoin="round">
<g id="sigung">
<path d="M 626.71 191.95 621.87 203.59 619.89 208.55 620.43 213.91 623.95 223.05 628.09 231.92 629.27 234.8 630.85 237.3 634.11 241.81 634.96 243.3 635.25 244.65 637.42 251.99 638.55 254.68 638.68 255.86 638.97 263.89 639.28 266.07 639.83 267.72 643.18 272.7 645.01 275.14 646.17 277.45 650.49 288.84 657.96 290.21 667.09 289.97 670.76 288.84 673.77 284.82 674.61 283.49 675.53 280.86 676.13 277.45 681.02 255.03 683.32 245.02 687.48 244.95 688.55 246.12 691.21 248.32 691.42 249.14 694.92 252.08 694.99 252.65 697.15 253.24 697.73 251.28 699.76 247.75 703.23 246.74 705.54 242.91 707.3 241.86 708.33 241.86 709.57 242.8 710.1 244.12 710.99 244.73 711.71 245.98 712.66 246.57 712.45 249.19 713.58 249.83 715.22 248.93 716.84 248.9 718.29 249.31 719.62 251.62 719.76 253.28 721.31 255.09 723.21 255.37 725.37 254.92 728.57 254.76 729.64 254.52 730.2 255.07 731.86 255.1 733.79 254.61 735.12 254.66 736.28 255.85 739.24 254.26 739.59 252.56 741.55 251.31 742.73 252.12 746.44 251.14 747.41 250.54 754.22 254.72 753.16 266.07 755.91 277.45 762.81 287.71 764.08 288.24 765.55 287.84 766.66 288.83 770.61 290.42 770.26 291.04 774.4 293.01 778.51 298.14 782.41 311.6 787.12 315.09 788.37 315.78 790.4 316.46 792.42 316.82 795.11 316.4 796.68 315.82 799 320.98 797.68 322.25 793.28 323.89 792.77 325.35 787.32 330.62 784.63 331.63 783.77 331.35 781.08 330.49 777.81 331.2 777.1 330.61 774.39 325.38 770.68 324.88 769.54 325.77 766.35 326.83 764.39 326.54 760.71 327.7 758.87 327.27 758.03 327.9 756.75 325.04 755.07 325.19 751.92 324.49 749.32 324.72 748.35 322.76 746.8 322.28 746.65 324.52 744.05 328.92 742.27 331.63 740.32 332.49 739.48 332.19 736.81 332.95 733.34 335.88 732.09 336.1 731.44 337.03 732.73 338.02 732.75 338.86 732.11 341.79 730.4 343.02 727.9 344.44 726.78 344.38 725.34 343.24 723.63 344.04 721.8 345.82 721 347.07 721.88 349.4 719.64 350.59 719.11 350.45 717.6 352.36 715.99 353.58 715.27 354.8 712.39 355.88 710.99 354.92 710.51 355.3 709.63 358.63 712.16 362.51 711.43 364.84 710.25 367.01 710.76 369.49 710.99 372.25 710.73 374.5 711.8 377.54 711.62 379.94 713.11 382.27 712.38 383.27 712.8 386.76 711.83 387.79 710.56 390.19 710.36 391.97 710.84 393.21 710.46 394.02 710.86 394.98 713.07 398 713.13 400.54 713.43 402.46 713.04 405.02 713.27 406.66 714.04 407.66 714.17 408.83 715.01 410.36 714.87 412.27 713.86 413.82 713.53 416.85 710.95 418.76 710.59 421.66 709.61 421.81 708.73 423.51 709.59 424.48 709.72 426.21 710.52 428.79 710.71 430.72 709.79 431.49 709.48 432.55 709.82 434.62 709.26 435.56 709.75 437.49 707.52 440.92 707.78 442.05 706.1 443.73 705.58 446.87 703.76 448.14 703.53 448.9 704.93 451.39 705.77 452.29 706.35 453.74 705.91 456.35 705.47 456.69 704.6 460.13 702.6 461.97 702.4 463.3 701.67 464.44 699.66 469.3 697.96 471.11 696.94 472.72 695.21 473.06 692.73 474.7 691.44 475.93 691.2 476.82 692.52 479.71 691.65 480.13 687.79 478.05 686.09 479.47 685.55 480.89 684.01 481.7 681.51 481.47 679.83 482.7 678.78 485.48 678.1 486.2 674.57 485.7 673.85 484.61 670.91 484.13 668.67 484.71 666.59 485.72 666.9 487.22 666.5 488.56 667.85 490.25 668.16 492.75 667.72 493.7 668.21 495.33 666.14 496.36 664.82 496.71 664.26 497.74 663.04 498.29 661.85 498.12 660.6 498.82 659.2 499.07 658.97 499.91 660.1 502.47 657.43 502.92 656.58 503.52 653.2 504.41 651.07 505.44 649.8 506.61 649.08 507.9 649.06 512.71 650.47 515.05 650.59 515.79 651.71 517.57 651.32 518.52 651.25 520.19 650.48 521.96 651.04 524.41 650.69 525.08 650.11 528 651.32 529.31 652.17 531.58 651.72 532.7 651.41 534.95 652.14 536.65 651.8 538.88 652.02 540.47 653.46 544.12 653.01 545.12 655.17 548.64 655.44 551.06 653.49 555.44 653.51 556.57 652.58 557.66 651.83 559.86 650.34 560.69 649.04 563.71 647.92 565.35 647.89 566.41 637.69 569.26 639.98 570.63 640.21 571.46 639.93 573.23 640.35 575.35 641.38 577.21 641.44 577.9 642.48 580.19 642.01 581.1 642.13 582.52 640.21 585.18 640.19 586.58 639.05 588.35 638.26 588.97 637.35 591.12 633.79 592.36 633.02 593.85 634.22 594.2 635.56 595.16 637.05 597.39 638.35 598.47 638.93 601.67 640.73 605.18 643.55 607 643.69 609.34 645.06 610.67 645.59 614.1 644.37 616.42 642.68 617.29 642.43 620.52 641.45 624.38 641.87 625.32 641.7 627.05 641.12 627.07 639.45 628.53 638.53 630.33 638.13 633.91 634.98 629.59 633.34 628.79 631.89 629.04 631.62 630.24 630.54 630.51 629.1 631.54 628.7 632.96 626.87 634.33 626.38 638.13 626.4 640.23 625.8 641.51 625.86 642.89 627.51 644.25 627.97 645.44 628.67 645.97 629.02 647.25 629.68 647.89 629.93 649.44 632.01 653.21 631.81 654.49 632.35 655.86 633.29 655.91 634.06 657.18 634.15 658.55 635.13 659.92 636 662.32 637.13 663.28 636.74 665.1 637.68 670.61 639.02 671.45 642.42 674.54 642.65 675.64 642.48 677.33 642.91 680.36 645.98 685.43 645.16 686.98 644.84 691.01 643.17 692.32 641.72 694.08 640.41 697.63 638.71 699.5 636.77 700.56 635.15 702.42 630.76 706.9 630.61 708.52 629.84 709.55 626.45 711.95 625.63 713.68 623.27 715.65 622.04 716.14 620 718.33 620.12 719.5 621.6 724.97 621.8 727.43 622.59 728.26 623.03 730.43 623.9 732.01 622.93 733.97 619 735.68 618.41 738.76 617.42 741.72 616.87 747.85 616.05 748.29 615.4 751.63 613.86 752.67 613.26 754.56 614.31 756.47 613.76 757.5 613.44 759.36 613.97 760.97 616.38 762.4 617 764.02 617.55 764.24 620.69 763.66 622.76 764.81 623.39 766.87 622.17 771.27 622.57 774.09 623.72 775.52 624.45 777.31 623 778.03 620.97 780.64 619.77 781.9 617.4 785.52 618.65 789.17 619.57 789.99 619.25 791.14 620.43 794.03 619.78 796.67 619.86 797.81 621.67 799.36 622.11 802.63 624.32 805.82 626.34 805.79 628.12 805.27 629.56 807.75 630.58 811.91 629.48 813.99 630.11 814.65 630.94 816.81 631.91 818.21 632.02 819.93 631.73 821.49 630.48 823.2 630.33 828.04 630.24 830.03 627.5 829.55 625.29 829.89 623.68 830.79 623.35 833 622.2 835.1 623.86 838.66 623.73 842.2 620.97 843.44 619.91 845.21 616.89 844.21 614.91 845.24 613.07 847.07 611.81 847.1 609.49 849.98 607.35 852.15 605.06 852.1 603.72 851.45 602.69 852 597.13 852.94 592.81 854.39 593.12 857.1 593.68 858.72 593.35 859.8 593.18 863.24 592.77 863.83 590.24 865.99 588.8 865.71 585.03 867.91 584.1 869.35 579.26 870.38 578.08 869.81 575.35 870.53 573.73 873.95 571.14 874.23 568.71 874.89 567.5 875.46 565.93 877.65 565.97 879.95 567.19 881 566.89 882.83 566.35 884.03 566.69 885.52 566.32 888.13 566.44 889.46 567.24 891.15 567.36 894.36 568.21 895.43 571.41 897.64 571.98 900.05 570.18 902.23 566.11 903.17 564.39 903.33 563.14 903.86 560.98 902.98 556.93 904 556.55 904.89 554.69 905.3 553.71 905.05 552.49 906.1 549.78 907.48 548.12 907.51 547.29 910.42 547.25 912.71 546.33 914.64 545.31 916 545.5 917.54 543.06 918.99 541.43 920.28 539.98 920.61 535.22 923 532.54 926.28 532.37 927.58 535.94 933.98 537.53 935.72 538.28 937 537.99 939.5 537.32 940.98 537.02 944.93 536.29 945.83 534.28 945.91 531.68 947.39 530.6 948.45 528.88 948.95 527.79 949.86 526.73 952.26 525.84 952.52 523.85 952.17 522.8 953.28 521.73 955.64 519.47 956.84 518.76 958.79 517.01 958.85 515.19 959.44 511.43 961.14 510.34 962.43 508.4 962.6 507.3 964.26 505.94 965.07 505.12 964.8 503.53 965.11 499.31 965 498.79 964.58 498.82 963.01 498.38 960.67 498.4 959.28 494.96 957.08 491.86 957.57 491.31 956.86 489.48 955.7 489.09 954.27 488.09 953.27 486.51 953.78 484.34 952.97 482.72 953.7 480.83 953.58 479.88 953.12 479.31 950.99 478.28 948.28 477.38 946.89 476.63 944.82 473.82 941.93 473.83 940.03 473.12 935.62 471.82 935.31 469.15 932.23 465.41 932.51 464.68 931.86 461.7 929.97 459.42 930.37 458.05 929.64 455.26 929.73 454.52 929.31 452.13 925.72 451.11 923.28 454.18 917.92 456.1 916.89 460.8 912.04 458.99 907.77 454.82 904.81 455.21 903.51 457.02 902.19 458.17 899.09 458.25 897.59 460.26 895.12 459.74 894.16 459.82 892.59 461.28 891.39 461.96 890.38 460.81 889.45 460.4 888.17 460.66 886.47 459.79 883.11 458.71 880.57 459.33 879.36 460.52 878.3 458.96 871.59 459.32 868.86 455.28 866.3 454.95 865.06 455.42 862.24 455.21 861.22 457.06 859.19 459.04 858.27 460.21 857.01 462.22 856.6 466.27 857.59 467.96 858.49 469.5 860.29 473.36 862.77 477.17 862.1 480.22 860.8 481.09 856.11 483.72 854.13 487.96 848.63 489.92 846.41 490.4 845.02 489.99 843.23 489.93 840.78 489.29 837.87 489.68 837.18 490.29 834.35 490.02 832.89 492.6 831.27 495.89 829.88 498.99 829 500.63 829.68 501.86 827.73 504.16 826.66 501.7 825.03 500.96 823.73 500.4 821.68 501.04 820.55 501.74 816.97 501.81 813.86 500.53 811.19 501.1 809.96 501.36 808.17 496.68 807.27 493.52 804.11 491.94 801.19 490.41 798.94 490.3 797.05 489.42 795.53 488.75 793.21 484.92 791 483.63 791.14 483.1 788.3 482.14 787.32 483.15 785.93 484.69 782.09 479.08 778.14 476.61 777.93 473.24 778.54 469.78 778.48 462.49 776.63 465.13 774.35 465.08 773.6 464.17 772.88 464.23 769.9 466.02 770.1 467.73 769.66 469.59 768.64 469.57 766.05 469.14 765.6 469.04 761.09 468.05 760.37 467.86 756.04 468.18 754.34 471.14 753.9 472.68 752.29 474 749.8 477.26 745.65 477.69 743.83 479.15 742.35 485.83 738.32 488.42 735.53 490.94 734.37 490.54 733.01 490.78 731.5 491.76 729.63 494.23 726.67 493.66 724.59 492.4 723.51 491.51 721.91 490.91 721.81 489.72 719.63 490.14 718.24 489.6 717.06 488.49 716.94 487.63 715.89 487.61 713.42 486.92 712.98 486.81 711.7 483.53 711.1 479.06 709.71 477.97 703.56 477.31 703.17 477.11 701.39 476.5 701.17 475.42 699.29 475.62 698.17 477.12 697.38 477.94 696.15 479.72 695.12 481.5 693.39 483.44 690.68 481.9 688.24 480.51 687.97 479.58 687.22 478 687.03 477.6 686.21 476.02 685.28 475.98 684.37 473.71 681.8 472.1 680.93 471.75 675.9 470.56 674.67 469.16 672.25 467.15 672.06 466.15 671.15 464.97 670.82 463.98 669.25 462.7 668.61 462.23 666.25 462.72 664.76 462.87 661.21 463.94 658.21 465.6 657.82 469.66 660.05 472.81 660.33 476.35 661.78 478.97 660.72 480.42 660.42 481.12 659.32 481.67 657.32 483.26 655.9 484.45 655.98 484.87 655.34 487.98 656.5 489.43 655.85 492.33 652 492.06 651.42 494.19 649.97 495.4 648.81 497.08 647.97 497.15 646.16 498.17 643.13 499.22 642.74 499.34 643.79 500.99 645.68 503.21 646.68 506.16 645.9 510.11 644.31 511.24 642.9 512.2 643.41 513.65 645.07 513.87 649.23 513.33 651.14 515.63 654.95 515.92 657.73 517.94 657.75 519.37 655.92 520.37 653.3 523.19 652.07 525.62 652.92 526.81 652.3 528.02 653.54 530.46 653.11 534.07 653.34 536.53 655.51 537.44 653.78 539.01 651.65 539.76 651.14 540.52 652.79 542.01 655.07 543.79 655.32 543.32 653.12 541.47 652.32 539.08 647.58 538.49 645.22 538.48 641.74 537.96 640.35 536.69 638.18 536.35 636.63 535.82 630.63 534.59 628.38 529.32 625.54 527.64 623.65 524.47 620.61 523.39 617.78 522.11 615.67 519.74 612.23 516.92 608.71 516.68 607.59 516.35 602.89 514.25 600.45 510.63 598.52 507.3 598.14 506.94 597.88 504.45 597.79 501.2 596.64 496 593.74 494.43 590.64 493.24 587.11 492.25 584.82 491.4 581.8 490.84 578.53 489.83 575.76 488.75 574.53 488.56 573.44 487.09 569.96 485.21 566.84 483.6 564.5 481.51 562.05 479.56 557.98 477.88 554.97 475.69 551.78 475.94 551.66 471.26 544.93 466.68 537.94 461.75 533.59 457.42 529.33 455.58 527.9 453.74 522.31 453.32 521.49 451.29 519.17 448.5 516.88 447.63 516.52 445.31 514.54 442.66 510.04 441.26 509.78 436.58 508.48 433.13 506.62 431.98 505.59 430.52 503.76 429.86 502.49 427.09 494.35 434.77 492.33 435.58 491.98 439.51 491.73 443.26 492.15 446.19 492.88 439.25 486.58 440.34 485.06 441.7 482.32 442.14 480.41 445.34 480.29 447.42 479.56 448.24 479.82 449.97 479.62 451.48 479.77 454.22 479.54 455.84 478.55 456.55 477.43 457.47 474.94 458.52 472.72 459.78 470.72 461.92 468.84 461.66 467.07 463.36 466.79 462.2 457.73 466.37 457.29 466.22 453.58 470.59 453.39 470.31 446.33 474.85 446.15 475.88 445.9 481.37 441.08 482.16 440.7 484.69 441.08 485.6 442.59 487.54 442.63 488.36 443.24 489.72 443.33 490.59 444.41 492.18 448.62 491.52 451.16 491.4 452.73 493.45 454.18 493.85 455.07 493.4 457.13 494.27 457.28 493.31 458.79 497.99 463.58 497.76 467.43 501.31 469.35 507.45 472.26 509.5 467.44 508.54 467.25 509.46 463.23 510.99 463.93 512.07 462.1 516.46 464.11 517.39 461.92 530.77 460.64 531.55 460.61 529.85 464.45 532.48 465.13 541.4 465.25 542.51 467.77 550.26 469.71 552.45 470.91 553.81 471.92 555.68 472.08 557.12 471.38 558.19 469.66 558.1 467.09 557.43 466.53 557 463.63 557.21 458.39 559.32 453.24 559.26 451.72 560.82 448.89 560.13 447.77 559.98 446.28 560.62 440.46 559.05 439.74 557.92 439.64 556.48 438.6 555.07 438.3 553.7 436.72 552.47 432.47 551.82 431.73 552.12 430.69 551.57 429.25 551 429.28 549.83 427.61 548.27 423.85 547.14 421.55 546.77 419.28 545.11 417.91 545.08 416.41 543.53 414.59 540.83 414.48 539.46 412.12 538.19 406.03 537.89 403.49 534.04 398.87 534.17 396.45 532.21 394.05 530.39 392.78 530.31 389.51 527.36 388.39 526.21 386.15 524.66 384.38 523.29 382.19 523.56 381.2 522.97 378.97 523.28 377.42 522.42 376.38 523.59 374.84 524.65 374.36 525.84 372.58 527.73 368.94 526.98 367.35 527.75 364.19 528.46 362.87 530.07 361.22 531.61 358.55 531.18 354.61 531.7 353.22 532.71 351.96 529.83 348.17 530.37 347.2 530.42 345.95 529.79 344.53 530.15 341.02 529.84 334.9 530.9 329.45 531.69 327.17 531.99 325.17 532.9 322.42 532.95 321.06 532.39 320.69 532.69 318.41 532.64 316.65 533.78 317.24 534.11 313.84 535.15 313.38 536.58 312.04 538.5 308.96 538.35 307 540.03 305.08 542.38 304.17 543.17 303.43 545.05 302.53 546.79 302.26 547.67 301.29 548.19 300.04 549.28 299.23 551.45 295.93 552.86 294.88 554.9 294.72 555.2 294.08 556.89 292.45 558.9 291.57 561.08 289.78 562.07 287.7 563.87 285.26 565.32 285.48 565.9 284.48 566.49 282.01 567.41 281.35 569.43 278.14 571.09 276.51 573.14 273.6 573.99 271.93 574.73 271.27 576.71 268.31 577.25 265.77 579.09 263.82 579.57 262.54 581.45 260.31 578.64 256.4 578.43 255.54 580.09 254.51 581.83 255.08 585.17 256.55 586.98 250.24 589.9 246.64 589.82 245.71 590.3 243.65 591.26 242.51 591.19 241.64 592.73 239.4 593.63 236.75 594.3 236.16 594.11 234.84 594.53 233.72 595.81 232.77 598.18 228.17 597.48 226.67 597.94 225.31 597.55 224.39 597.8 223.11 598.67 221.79 599.19 219.63 600.21 218.67 601.77 215.26 605.42 210.61 605.7 209.21 606.64 208.4 607.09 206.9 608.6 205.02 609.56 203.16 610.42 202.45 610.52 201.44 611.72 199.4 613.1 197.71 614.56 194.77 616.19 193.26 617.58 193.82 618.83 192.85 619.98 192.69 622.23 190.61 623.35 190.52 626.71 191.95 Z" id="25010000"/>
<path d="M 430.52 503.76 431.98 505.59 433.13 506.62 436.58 508.48 441.26 509.78 442.66 510.04 445.31 514.54 447.63 516.52 448.5 516.88 451.29 519.17 453.32 521.49 453.74 522.31 455.58 527.9 457.42 529.33 461.75 533.59 466.68 537.94 471.26 544.93 475.94 551.66 475.69 551.78 477.88 554.97 479.56 557.98 481.51 562.05 483.6 564.5 485.21 566.84 487.09 569.96 488.56 573.44 488.75 574.53 489.83 575.76 490.84 578.53 491.4 581.8 492.25 584.82 493.24 587.11 494.43 590.64 496 593.74 501.2 596.64 504.45 597.79 506.94 597.88 507.3 598.14 510.63 598.52 514.25 600.45 516.35 602.89 516.68 607.59 516.92 608.71 519.74 612.23 522.11 615.67 523.39 617.78 524.47 620.61 527.64 623.65 529.32 625.54 534.59 628.38 535.82 630.63 536.35 636.63 536.69 638.18 537.96 640.35 538.48 641.74 538.49 645.22 539.08 647.58 541.47 652.32 543.32 653.12 543.79 655.32 542.01 655.07 540.52 652.79 539.76 651.14 539.01 651.65 537.44 653.78 536.53 655.51 534.07 653.34 530.46 653.11 528.02 653.54 526.81 652.3 525.62 652.92 523.19 652.07 520.37 653.3 519.37 655.92 517.94 657.75 515.92 657.73 515.63 654.95 513.33 651.14 513.87 649.23 513.65 645.07 512.2 643.41 511.24 642.9 510.11 644.31 506.16 645.9 503.21 646.68 500.99 645.68 499.34 643.79 499.22 642.74 498.17 643.13 497.15 646.16 497.08 647.97 495.4 648.81 494.19 649.97 492.06 651.42 492.33 652 489.43 655.85 487.98 656.5 484.87 655.34 484.45 655.98 483.26 655.9 481.67 657.32 481.12 659.32 480.42 660.42 478.97 660.72 476.35 661.78 472.81 660.33 469.66 660.05 465.6 657.82 463.94 658.21 462.87 661.21 462.72 664.76 462.23 666.25 462.7 668.61 463.98 669.25 464.97 670.82 466.15 671.15 467.15 672.06 469.16 672.25 470.56 674.67 471.75 675.9 472.1 680.93 473.71 681.8 475.98 684.37 476.02 685.28 477.6 686.21 478 687.03 479.58 687.22 480.51 687.97 481.9 688.24 483.44 690.68 481.5 693.39 479.72 695.12 477.94 696.15 477.12 697.38 475.62 698.17 475.42 699.29 476.5 701.17 477.11 701.39 477.31 703.17 477.97 703.56 479.06 709.71 483.53 711.1 486.81 711.7 486.92 712.98 487.61 713.42 487.63 715.89 488.49 716.94 489.6 717.06 490.14 718.24 489.72 719.63 490.91 721.81 491.51 721.91 492.4 723.51 493.66 724.59 494.23 726.67 491.76 729.63 490.78 731.5 490.54 733.01 490.94 734.37 488.42 735.53 485.83 738.32 479.15 742.35 477.69 743.83 477.26 745.65 474 749.8 472.68 752.29 471.14 753.9 468.18 754.34 467.86 756.04 468.05 760.37 469.04 761.09 469.14 765.6 469.57 766.05 469.59 768.64 467.73 769.66 466.02 770.1 464.23 769.9 464.17 772.88 465.08 773.6 465.13 774.35 462.49 776.63 469.78 778.48 473.24 778.54 476.61 777.93 479.08 778.14 484.69 782.09 483.15 785.93 482.14 787.32 483.1 788.3 483.63 791.14 484.92 791 488.75 793.21 489.42 795.53 490.3 797.05 490.41 798.94 491.94 801.19 493.52 804.11 496.68 807.27 501.36 808.17 501.1 809.96 500.53 811.19 501.81 813.86 501.74 816.97 501.04 820.55 500.4 821.68 500.96 823.73 501.7 825.03 504.16 826.66 501.86 827.73 500.63 829.68 498.99 829 495.89 829.88 492.6 831.27 490.02 832.89 490.29 834.35 489.68 837.18 489.29 837.87 489.93 840.78 489.99 843.23 490.4 845.02 489.92 846.41 487.96 848.63 483.72 854.13 481.09 856.11 480.22 860.8 477.17 862.1 473.36 862.77 469.5 860.29 467.96 858.49 466.27 857.59 462.22 856.6 460.21 857.01 459.04 858.27 457.06 859.19 455.21 861.22 455.42 862.24 454.95 865.06 455.28 866.3 459.32 868.86 458.96 871.59 460.52 878.3 459.33 879.36 458.71 880.57 459.79 883.11 460.66 886.47 460.4 888.17 460.81 889.45 461.96 890.38 461.28 891.39 459.82 892.59 459.74 894.16 460.26 895.12 458.25 897.59 458.17 899.09 457.02 902.19 455.21 903.51 454.82 904.81 458.99 907.77 460.8 912.04 456.1 916.89 454.18 917.92 451.11 923.28 448.09 923.21 445.88 923.67 444.02 926.27 440.08 923.38 437.91 922.17 436.76 922.23 435.91 921.37 433.93 920.83 432.02 919.22 431.91 918.48 430.93 917.33 429.45 916.87 427.86 915.7 424.86 912.86 422.55 912.2 419.5 911.98 418.96 911 417.25 909.66 414.37 908.19 415.53 906.69 416.22 904.97 416.56 902.22 418.87 899.03 419.46 898.62 421.07 895.79 421.03 893.45 419.43 891.71 418.55 888.86 416.07 886.3 415.22 883.84 414.17 883.41 413.03 881.32 411.7 880.96 410.46 881.08 408.42 880.77 407.31 879.45 405.47 878.1 405.4 876.52 404.19 874.52 403.82 873.19 401.71 869.78 401.81 868.76 400.08 867.22 399.24 863.73 397.82 859.09 397.32 858.22 396.74 855.72 396 853.86 396.41 851.16 395.55 848.11 395.94 846.94 395.97 845.16 395.47 844.26 394.28 845.15 391.81 846.23 389.91 846.11 388.24 845.53 387.08 847.14 385.01 847.58 383.47 846.19 381.09 846.52 380.78 846.16 378.62 846.31 375.64 843.85 374.65 843.46 373.2 843.84 371.94 843.52 371.92 842.76 368.99 843.54 367.53 843.69 365.95 842.35 361.26 841.27 361.12 839.96 360.5 838.09 361.44 834.99 361 831.37 365.51 828.69 366.96 825.84 368.93 824.27 369.63 820.83 368.61 819.66 368.64 818.25 367.84 817.17 368.17 816 370.14 814.04 369.1 812.99 368.4 810.98 366.95 810.28 365.76 808.43 364.1 807.18 362.51 804.19 363.29 802.69 363.12 801.36 362.54 800.88 361.45 797.96 361.3 796.73 360.39 795.4 361.17 794.23 361.46 792.55 360.44 792.5 359.67 791.29 359.68 790.11 358.67 789.11 359.16 788.2 359.17 786.58 359.65 784.83 359.02 783.31 359.66 782.25 359.85 781.02 361.62 778.63 363.25 777.86 363.25 777 364.32 775.48 365.09 772.06 365.06 770.77 365.67 769.91 364.95 768.36 365.19 767.21 364.65 766.07 365.58 763.98 365.26 763.15 365.87 762.13 367.62 761.67 368.16 758.25 368.86 756.58 368.54 755.41 368.36 752.44 367.13 750.83 366.85 749.84 365.66 750.58 363.55 748.45 355.58 740.89 353.32 738.63 351.6 736.32 350.63 734.47 350.58 732.55 349.38 732.23 344.05 732.26 344.27 729.66 342.4 729.24 341.72 729.46 341.4 727.87 339.38 726.47 335.95 723.46 334.24 723.98 332.66 722.97 329.52 721.98 327.2 722.19 324.82 721.29 322.74 721.33 322.77 718.91 323.16 718.17 324.14 713.68 322.27 712.43 321.57 710.44 319.64 708.46 320.23 706.59 319.4 704.55 320.32 703.06 320.49 700.6 320.18 698.27 318.52 697.93 318.02 695.71 316.92 695.32 316.43 694.4 316.63 692.98 314.46 690.59 314.38 687.06 312.85 686.67 311.59 684.63 311.27 682.47 310.14 681.9 309.84 681.12 310.63 679.41 310.52 677.84 313.78 678.08 316.21 675.93 316.75 673.96 316.3 670.95 317.66 669.86 317.45 668.38 316.31 667.62 315.69 664.92 316.98 664.08 318.08 664.16 318.97 661.91 319.83 660.81 323.38 660.57 323.06 658.8 324.45 654.56 328.3 655.2 331.38 655.48 332.74 654.3 337.44 655.64 337.86 653.07 339.94 652.22 342.95 648.59 346.5 641.74 346.89 640.41 347.39 635.32 347.36 633.75 346.71 629.38 344.23 623.93 343.36 621.2 342.91 618.33 342.21 617.7 348.4 611.53 349.56 610.49 354.17 604.16 357.9 600.01 359.35 597.41 359.71 596.21 359.8 594.22 358.08 588.67 357.91 583.97 356.55 579.17 355.62 575.1 355.54 573.14 355.93 570.37 356.52 568.4 359.84 561.59 361.87 561.23 362.38 559.98 363.08 556.95 362.35 553.5 362.26 550.21 363.37 548.44 364.97 544.16 367.03 541.58 368.39 540.42 371.38 539.28 373.44 536.07 373.44 534.54 376.16 531.81 377.67 531.57 378.56 529.91 379.99 527.95 382.37 525.56 384.55 525.39 385.98 523.46 387.48 524.79 390.05 521.35 391.05 519.69 392.19 516.66 393.18 515.52 396.84 512 399.61 512.01 400.31 509.46 401.58 503.31 402.01 499.94 400.5 495.11 399.8 492.06 399.19 487.98 398.86 487.22 400.32 485.05 400.93 483.66 401.7 480.63 402.1 476.41 407.42 478.68 413.6 480.62 416.57 482.27 417.52 482.23 419.98 484.63 421.93 487.45 422.28 489.19 424.35 493.75 425.3 497.16 427.36 500.29 429.27 502.9 430.52 503.76 Z" id="25020000"/>
<path d="M 374.17 407.96 374.83 409.59 375.88 411.09 378.14 413.12 380.21 414.74 382.37 418.57 383.17 419.68 384.72 422.9 385.36 425.45 386.1 430.81 387.35 433.15 388.47 434.44 390.64 435.9 392.21 437.39 394.87 439.37 396.99 446.29 400.27 454.71 400.42 456.26 401.88 460.22 403.85 464.91 403.57 466.04 402.39 473.78 402.1 476.41 401.7 480.63 400.93 483.66 400.32 485.05 398.86 487.22 399.19 487.98 399.8 492.06 400.5 495.11 402.01 499.94 401.58 503.31 400.31 509.46 399.61 512.01 396.84 512 393.18 515.52 392.19 516.66 391.05 519.69 390.05 521.35 387.48 524.79 385.98 523.46 384.55 525.39 382.37 525.56 379.99 527.95 378.56 529.91 377.67 531.57 376.16 531.81 373.44 534.54 373.44 536.07 371.38 539.28 368.39 540.42 367.03 541.58 364.97 544.16 363.37 548.44 362.26 550.21 362.35 553.5 363.08 556.95 362.38 559.98 361.87 561.23 359.84 561.59 356.52 568.4 355.93 570.37 355.54 573.14 355.62 575.1 356.55 579.17 357.91 583.97 358.08 588.67 359.8 594.22 359.71 596.21 359.35 597.41 357.9 600.01 354.17 604.16 349.56 610.49 348.4 611.53 342.21 617.7 342.91 618.33 343.36 621.2 344.23 623.93 346.71 629.38 347.36 633.75 347.39 635.32 346.89 640.41 346.5 641.74 342.95 648.59 339.94 652.22 337.86 653.07 337.44 655.64 332.74 654.3 331.38 655.48 328.3 655.2 324.45 654.56 323.06 658.8 323.38 660.57 319.83 660.81 318.97 661.91 318.08 664.16 316.98 664.08 315.69 664.92 316.31 667.62 317.45 668.38 317.66 669.86 316.3 670.95 316.75 673.96 316.21 675.93 313.78 678.08 310.52 677.84 310.63 679.41 309.84 681.12 310.14 681.9 311.27 682.47 311.59 684.63 312.85 686.67 314.38 687.06 314.46 690.59 316.63 692.98 316.43 694.4 316.92 695.32 318.02 695.71 318.52 697.93 320.18 698.27 320.49 700.6 320.32 703.06 319.4 704.55 320.23 706.59 319.64 708.46 321.57 710.44 322.27 712.43 324.14 713.68 323.16 718.17 322.77 718.91 322.74 721.33 321.71 722.33 320.98 727.45 319.91 727.68 319.63 728.56 317.19 729 316.13 729.77 315.14 729.79 313.88 728.81 313.05 730.72 310.52 730.53 308.76 732.02 306.82 731.84 304.63 730.61 302.97 730.75 301.3 730.18 300.29 728.96 298.3 730.92 299.18 732.55 298.51 734.82 296.76 736.35 295.61 737.71 295.39 739.96 295.94 740.56 295.69 742.4 294.69 743.11 294.62 744.45 293.94 744.91 292.72 746.97 291.93 747.13 289.73 751.75 291.51 752.92 292.21 756.96 291.96 759.31 291 760.19 291.7 763.83 292.95 764.85 293.25 766.07 293.21 767.94 292.48 770.16 293.17 771.68 292.12 772.86 292.01 775.15 290.41 775.98 290.67 778.71 291.16 779.46 293.25 779.44 295.08 780.79 294.84 781.61 296.39 783.45 297.88 784.05 298.9 783.86 299.53 785.22 301.76 786.53 300.43 788.63 300.69 789.71 301.92 791.82 301.86 795.33 302.42 796.86 302.71 799.8 302.03 801.72 302.66 803.12 302.47 804.48 302.82 807.12 302.58 807.89 304.36 811.55 301.63 814.99 301 818.08 301.99 820.44 300.96 821.42 299.84 821.37 298.79 821.95 300.51 827.17 299.37 827.46 299.04 828.73 298.01 830.81 298.61 832.33 297.83 833.89 296.89 834.5 296.55 836.83 294.24 838.56 293.55 840.83 294.67 840.42 296.29 841.36 297.2 842.32 297.58 843.71 300.05 847.34 298.48 849.05 297.74 850.61 297.87 851.41 296.53 853.87 296.74 856.02 296.44 857.62 297.28 859.88 295.56 862.04 294.29 862.35 293.23 863.81 291.7 865.13 292.33 867.55 292.34 868.9 294.96 871.26 296.84 872.59 297.39 873.85 299.1 874.73 300.54 877.03 301.83 880.74 303.15 886.11 302.56 887.69 302.25 889.66 300.41 890.44 297.28 890.63 295.83 891.41 294.19 890.89 293.15 891.1 292.53 891.89 291.98 894.53 291.05 896.8 290.67 899.59 290.52 902.45 290.73 903.26 290.11 905.44 288.18 905.74 284.57 907.78 284.4 909.9 282.15 910.51 280.22 908.73 278.33 909.23 276.67 910.56 273.6 912.07 273.86 914.34 273.27 915.86 270.89 917.69 270.54 919.5 269.11 920.23 266.75 922.07 264.89 924.11 264.49 925.73 262.4 929.74 260.51 932.12 259.27 934.75 258.08 936.48 257.54 939.24 258.1 942.53 259.7 943.38 260.23 946.34 259.52 949.11 260.16 950.67 260.24 954.28 260.77 954.91 260 957.19 258.83 957.83 254.31 959.63 250.89 960.07 250.97 962.54 250.49 963.74 250.5 966.48 248.05 968.1 246.13 970.35 246.26 971.32 245.1 973.22 244.62 977.6 243.67 982.75 242.56 984.59 241.67 984.65 239.32 984.17 238.55 983.55 235.94 984.06 235.97 986.18 235.4 988.86 235.7 989.77 235.46 992.75 234.53 995.03 233.25 996.37 232.73 996.23 231.37 997.5 229.26 1002.13 225.48 1003 224.66 1002.5 222.02 1001.68 219.49 1000 220.09 998.07 219.87 995.23 220.12 992.75 220.1 987.66 219.01 985.17 218.95 981.85 217.8 980.71 217.87 979.42 219.23 977.46 219.04 975.73 219.41 972.74 219.23 971.78 217.25 970.31 215.68 969.64 214.56 968.04 216.94 966.32 216.84 965.17 217.3 963.18 220.39 961.65 220.52 959.15 220.16 956.07 219.48 953.79 219.64 953.43 224.11 950.19 223.81 949.2 224.05 947.51 221.61 946.42 220.08 944.87 218.47 945.42 215.99 944.82 214.46 943.83 214.34 942.3 213.51 940.31 210.18 936.79 207.36 937.62 204.15 938.24 201.9 939.12 200.84 939.11 199.45 939.74 198.68 938.83 197.12 937.95 196.53 936.46 197.47 932.85 196.56 929.37 194.59 927.09 194.2 924.4 192.98 922.79 191.52 921.56 191.98 918.8 191.65 916.73 192.18 915.99 192.01 914.6 190.83 913.02 191.13 911.12 193.22 908.85 193.17 907.33 191.7 904.99 189.28 903.57 188.2 901.06 185.58 900.51 184.3 899.46 183.16 896.05 181.01 892.93 181.13 891.85 180.15 889.37 179.97 888.17 179.01 886.8 178.02 884.05 176.77 882.23 175.69 881.72 174.67 880.5 174.99 879.04 172.2 879.06 170.76 877.46 169.63 877.59 167.31 876.99 167.01 876.29 162.54 872.25 160.34 871.72 159.02 870.88 157.86 869.7 157.09 869.42 156.08 866.88 155.11 867.79 154.31 867.25 152.59 863.54 150.67 860.29 150.31 859.2 147.92 858.22 147.45 857.54 148.81 856.29 147.05 855.98 146.49 858.04 146.1 861.14 145.11 864.12 145.92 867.86 146.01 869.42 147.13 872.73 147.45 876.47 146.3 878.41 144.53 880.81 140.81 882.45 137.65 882.36 135.09 882.73 133.55 882.6 131.16 881.96 129.7 880.38 127.14 879.65 126.59 879.01 124.16 877.38 121.54 876.94 121.54 874.98 120.93 873.71 121.05 872.26 120.32 870.86 120.18 869.66 119.41 868.18 117.72 866.96 116.58 865.36 117.98 864.83 118.5 863.92 119.52 863.39 120.36 861.01 119.73 859.65 119.96 858.51 118.92 857.44 118.23 855.87 115.62 854.57 114.38 853.41 112.52 852.66 111.3 850.92 110.44 850.56 109.66 849.31 109.13 846.98 107.57 846.14 107.54 845.14 106.58 843.04 105.72 842.17 105.33 840.68 102.8 840.79 101.68 841.13 100.38 839.99 97.45 839.56 94.8 838.59 93.55 837.16 91.67 837.33 91.83 836.48 95.02 833.55 94.22 831.76 94.82 830.63 94.33 829.69 94.58 827.4 93.77 827.06 92.07 824.31 91.93 821.2 91.29 819.26 92.91 817.6 90.74 815.52 88.51 813.81 88.61 812.69 87.41 810.01 88.01 809.42 90.18 806.14 89.52 805.06 89.46 803.45 88.97 802.55 87.2 802.28 86.38 801.12 87.81 797.82 89.09 796.85 89.42 795.46 87.59 794.39 87.39 791.55 86.37 789.74 86.35 787.95 85.5 784.82 84.29 783.98 84.38 782.36 87.09 780.94 88.64 779.73 91.31 776.35 92.68 773.87 93.01 770.93 92.12 769.19 92.28 766.97 93.16 765.39 95.05 763.43 96.06 762.85 98.14 760.89 99.05 761.5 100.47 760.2 102.95 759.14 103.49 757.98 105.55 756.45 107.39 755.77 110.12 754.36 112.36 752.96 114.13 751.13 115.45 750.49 116.83 749.28 116.98 747.1 118.15 746.98 120.47 747.34 120.98 744.57 122.25 742.45 126.66 736.86 129.27 737.51 130.7 735.15 132.14 733.2 134.67 730.83 138.67 728.69 139.46 727.81 141.28 727.25 144 726.93 145.06 726.58 154.16 721.97 154.65 721.47 157.64 721.03 158.62 721.95 160.3 722.32 164.39 721.05 163.16 719.39 162.74 716.95 162.79 712.16 161.3 711.78 160.12 710.05 159.62 708.56 159.35 706.16 162.32 705.48 162.7 704.67 163.73 704.23 164.3 703.02 163.71 700.96 164.91 697.84 164.71 695.47 165.34 693.9 165.65 690.85 166.3 689.25 172.13 689.22 173.3 683.71 174.24 680.5 174.17 679.04 177.3 678.98 179.66 679.13 181.57 678.66 184 677.28 185.92 675.71 188.12 671.85 188.38 670.62 188.61 667.35 188.58 665.11 188.29 662.78 188.58 659.51 189.26 656.45 190.71 651.68 190.96 651.63 193.51 643.9 194.84 641.66 198.67 636.68 200.46 635.2 204.34 633.39 206.94 632.41 212.36 629.94 215.45 628.91 220.23 628.79 220.21 618.41 220.49 618.27 220.48 608.96 221.61 608.97 221.71 606.99 222.37 605.27 223.65 605.56 223.87 604.38 225.21 603.97 225.19 602.16 225.64 601.06 227.33 599.77 228.03 599.73 228.71 597.47 229.69 596.92 229.65 595.76 230.59 595.12 231.76 595.11 232.95 592.92 232.87 591.31 236.86 591.94 237.26 589.3 237.66 588.52 238.99 587.6 237.68 584.6 238.09 580.06 238.59 577.83 233.52 577.56 232.67 573.84 233.38 573.08 232.42 568.35 231.05 564.46 230.61 562.13 230.91 560.39 230.89 558.45 231.92 555.88 232.26 554.31 231.75 552.72 231.45 549.88 228.94 547.81 228.66 547.17 228.66 538.61 234.36 538.62 234.35 532.08 274.23 532.1 274.44 530.72 275.22 529.2 275.77 526.69 276.29 523.13 275.91 521.72 274.64 518.55 273.38 513.23 272.09 509.84 270.66 505.14 269.72 499.99 269.1 494.99 268.82 493.75 267.34 490.89 266.88 489.07 264.83 485.63 263.41 482.37 262.31 478.38 262.13 476.63 262.62 473.2 264.52 467.61 266.12 464.94 271.26 462.18 274.35 462.21 279.24 458.13 284.96 453.19 285.43 450.45 286.15 447.72 292.44 439.28 296.95 433.39 302.61 431.61 304.53 430.8 307.12 429.24 309.17 427 311.49 422.99 313.55 418.24 315.78 415.73 318.5 414.06 320.35 413.25 323 411.52 324.69 410.03 325.72 408.74 327.27 407.63 331.54 406.43 335.15 406 340.5 406.09 341.14 407.51 345.71 407.63 354.41 407.63 357.25 407.73 363.31 408.56 366.06 408.64 367.78 408.36 369.32 407.73 371.78 407.29 374.17 407.96 Z" id="25030000"/>
<path d="M 396.05 140.37 391.94 145.02 388.62 148.45 387.21 150.73 382.99 155.95 379.94 156.24 377.06 156.98 374.3 158.4 370.94 161.88 369.86 163.62 369.6 164.86 368.39 168.27 365.73 172 364.14 174.87 363.6 178.16 363.7 182.45 364.05 185.33 365.09 186.98 365.84 188.8 366.69 191.81 369.05 195.35 375.76 199.13 376.66 199.02 376.81 200.65 377.78 202.97 379.96 206.34 381.55 208.28 384.69 210.87 388.02 214.16 389.76 216.51 391.73 218.77 393.82 220.53 396.08 222.8 398.01 225.15 403.1 227.23 405.62 228.81 407.34 230.64 409.26 231.92 411.06 234.67 414.14 237.17 415.53 237.92 420.45 239.61 422.33 240.37 424.88 241.81 425.71 243.31 428.66 246.74 435.97 257.91 437.89 261.97 438.92 264.71 441.6 268.83 442.97 273.92 443 277.1 441.41 281.47 439.94 284.34 438.83 286.94 435.78 293.17 436.17 293.6 434.15 297.24 432.34 298.3 430.54 299.91 428.41 303.6 426.28 307.84 425.94 311.61 425.95 318.3 425.28 322.99 423.73 325.54 422.09 329.32 421.45 330.38 420.83 334.38 420.43 340.74 420.09 344.23 420.11 347.39 420.65 352.09 421.56 357.14 422.06 358.36 421.89 362.16 421.73 374.74 421.12 377.28 420.05 379.84 417.14 384.14 417.01 384.84 414.77 386.9 411.06 389.77 408.19 391.08 405.61 392.03 398.76 394.13 395.39 395.45 394.24 396.49 386.67 400.25 384.48 400.75 382.61 400.88 374.63 402.55 373.82 403.99 373.57 405.34 374.17 407.96 371.78 407.29 369.32 407.73 367.78 408.36 366.06 408.64 363.31 408.56 357.25 407.73 354.41 407.63 345.71 407.63 341.14 407.51 340.5 406.09 335.15 406 331.54 406.43 327.27 407.63 325.72 408.74 324.69 410.03 323 411.52 320.35 413.25 318.5 414.06 315.78 415.73 313.55 418.24 311.49 422.99 309.17 427 307.12 429.24 304.53 430.8 302.61 431.61 296.95 433.39 292.44 439.28 286.15 447.72 285.43 450.45 284.96 453.19 279.24 458.13 274.35 462.21 271.26 462.18 266.12 464.94 264.52 467.61 262.62 473.2 262.13 476.63 262.31 478.38 263.41 482.37 264.83 485.63 266.88 489.07 267.34 490.89 268.82 493.75 269.1 494.99 269.72 499.99 270.66 505.14 272.09 509.84 273.38 513.23 274.64 518.55 275.91 521.72 276.29 523.13 275.77 526.69 275.22 529.2 274.44 530.72 274.23 532.1 234.35 532.08 234.36 538.62 228.66 538.61 228.66 547.17 228.94 547.81 231.45 549.88 231.75 552.72 232.26 554.31 231.92 555.88 230.89 558.45 230.91 560.39 230.61 562.13 231.05 564.46 232.42 568.35 233.38 573.08 232.67 573.84 233.52 577.56 238.59 577.83 238.09 580.06 237.68 584.6 238.99 587.6 237.66 588.52 237.26 589.3 236.86 591.94 232.87 591.31 232.95 592.92 231.76 595.11 230.59 595.12 229.65 595.76 229.69 596.92 228.71 597.47 228.03 599.73 227.33 599.77 225.64 601.06 225.19 602.16 225.21 603.97 223.87 604.38 223.65 605.56 222.37 605.27 221.71 606.99 221.61 608.97 220.48 608.96 220.49 618.27 220.21 618.41 220.23 628.79 215.45 628.91 212.36 629.94 206.94 632.41 204.34 633.39 200.46 635.2 198.67 636.68 194.84 641.66 193.51 643.9 190.96 651.63 190.71 651.68 189.26 656.45 188.58 659.51 188.29 662.78 188.58 665.11 188.61 667.35 188.38 670.62 188.12 671.85 185.92 675.71 184 677.28 181.57 678.66 179.66 679.13 177.3 678.98 174.17 679.04 174.24 680.5 173.3 683.71 172.13 689.22 166.3 689.25 165.65 690.85 165.34 693.9 164.71 695.47 164.91 697.84 163.71 700.96 164.3 703.02 163.73 704.23 162.7 704.67 162.32 705.48 159.35 706.16 159.62 708.56 160.12 710.05 161.3 711.78 162.79 712.16 162.74 716.95 163.16 719.39 164.39 721.05 160.3 722.32 158.62 721.95 157.64 721.03 154.65 721.47 154.16 721.97 145.06 726.58 144 726.93 141.28 727.25 139.46 727.81 138.67 728.69 134.67 730.83 132.14 733.2 130.7 735.15 129.27 737.51 126.66 736.86 122.25 742.45 120.98 744.57 120.47 747.34 118.15 746.98 116.98 747.1 116.5 745.69 114.9 743.41 112.36 741.84 110 742.22 106.3 743.2 103.09 744.9 101.45 745.34 96.81 745.49 91.81 745.01 89.64 744.2 88.9 743.64 85.54 741.99 82.98 738.27 81.62 737.21 76.49 735.79 72.38 732.82 65.7 728.88 61.86 726.28 59.19 724.67 57.62 723.13 55.46 721.43 52.67 718.36 48.93 715.34 47.63 714.62 43.41 712.85 41.24 712.14 35.32 710.92 32.1 710.05 28.86 707.07 24.8 701.88 21.96 697.48 20.42 696.11 20.25 694.27 19.35 690.95 17.85 688.87 12.84 685.02 11.44 680.26 9.99 678 6.77 675.63 5.77 673.62 5.18 669.52 2.27 664.55 1 663.05 3.58 661.49 4.39 656.67 7.47 656.91 8.7 655.86 9.93 653.57 10.11 652.49 12.53 648.11 13.93 647.75 16.97 645.86 19.88 644.33 21.41 646.45 28.7 648.28 32.28 648.41 34.68 648.13 33.47 646.42 33.21 643.46 34.56 637.32 34.98 633.72 34.9 632.63 36.71 628.55 33.75 624.64 30.97 623.35 30.91 621.37 31.23 617.13 30.83 612.99 30.81 608.59 30.5 608.09 31.48 605.33 29.87 603.05 30.81 598.96 31.61 597.96 30.83 595.54 31.41 591.93 30.58 591.2 30.16 589.17 30.98 584.52 30.69 582.68 30.84 578.71 33.5 573.49 35.13 572.87 35.96 570.54 36.38 566.53 36.84 565.89 36.45 562.89 36.86 561.29 36.11 556.95 35.06 555.34 34.19 553.38 35 551.89 34.2 548.36 37.05 548.7 39.51 548.26 42.59 548.32 44.52 547.35 46.69 545.8 47.5 545.87 50.4 544.25 50.08 542.59 50.57 540.83 52.82 538.2 54.42 535.54 55.51 535.15 54.8 532.51 51.66 528.72 51.77 524.96 51.06 523.22 49.02 521.25 48.97 519.16 48.57 516.8 49.35 514.23 51.09 512.24 53.65 509.91 55.05 508.15 56.77 504.86 61.02 503.5 63.48 501.86 66.41 498.65 68.18 494.49 74.75 495.73 77.55 494.58 81.95 493.76 83.48 492.72 82.07 491.22 80.79 489.27 80.11 487.12 79.26 485.46 79.7 481.35 80.36 480.09 79.09 476.67 78.24 476.23 76.77 474.03 76.51 472.85 75.72 472.83 72.6 469.64 71.12 467.43 67.74 465.08 66.27 463.39 66.52 460.4 65.8 458.66 64.41 456.2 62.87 452.98 62.86 450.44 62.2 448.95 62.69 446.31 62.59 443.72 61.5 442.14 61.89 441.13 63.37 440.25 64.93 439.75 66.03 436.56 69.04 434.95 75.46 431.73 77.01 430.7 79.61 428.09 78.92 426.37 79.01 424.79 78.31 422.65 78.58 421.44 77.98 418.35 80.29 416.68 82.09 416.12 83.85 415.11 83.61 413.98 83.54 411.17 83.84 409.22 84.54 407.16 85.18 406.51 85.53 404.58 86.36 402.67 86.87 399.9 88.1 397.83 86.91 395.47 86.83 394.38 87.27 391.65 86.63 389.86 86.2 385.73 85.62 384.88 82.94 383.07 82.48 381.91 82.85 375.13 81.68 374.11 81.77 372.72 82.77 369.72 82.37 365.95 81.35 364.16 81.01 361.49 80.39 360.42 78.71 359.46 81.4 356.97 82.23 354.6 82.22 351.78 82.63 351.12 82.93 349.11 82.84 346.69 83.17 345.37 82.72 343.84 82.83 342.45 82.27 338.48 82.37 335.39 81.83 334.38 81.74 331.81 82.2 329.66 81.38 328.7 82.34 324.17 82.12 322.61 83.78 318.65 84.27 316.39 87.04 307.95 87.17 304.95 87.83 303.23 87.56 302.76 87.41 300.38 86.8 299.51 86.75 296.95 88.18 294.02 88.13 292.63 89.72 290 89.58 287.51 88.65 285.3 90.59 282.08 90.97 280.57 90.51 279.35 90.68 276.19 90.09 273.88 90.51 272.29 93.67 271.06 96.14 270.89 96.81 270.42 98.36 270.19 99.71 270.57 102.48 270.06 107.49 268.63 109.53 267.58 112.53 267.59 113.36 267.36 113.48 259.83 113.75 259.36 116.29 259.18 119.46 259.68 120.6 258.96 122.79 256.85 124.11 255.9 123.79 255.35 123.76 252.48 122.24 250.82 121.28 250.65 121.23 248.23 124.52 246.74 126.9 245.04 128.27 245.47 131.48 245.26 134.42 246.05 135.03 247.37 138.11 249.13 139.81 249.31 140.77 247.13 140.94 245.26 142.7 242 144.95 240.34 146.57 240.64 148.87 239.96 152.3 239.84 153.57 240.14 155.22 239.99 157.93 240.94 160.37 240.66 162.28 239.64 163.95 240.24 165.67 242.17 165.78 243.48 169.26 245.05 172.06 245.8 173.19 246.42 174.17 247.51 174.87 248.96 176.13 250.15 176.92 250.11 177.82 251.62 177.83 253.44 178.82 253.32 180.66 252.3 182.21 251.87 184.89 250.33 186.28 246.86 187.73 245.79 188.28 244.68 191.39 243.29 192.14 244.18 195.69 246.31 199.94 247.11 200.96 246.76 201.83 247.06 203.14 248.31 204.93 247.54 205.79 246.24 207.51 245.01 210.4 244.41 213.23 242.09 213.64 241.01 216.22 239.28 216.47 238.56 218.29 237.34 219.5 234.32 221.74 233.38 224.57 232.79 227.46 230.12 229.88 228.9 231.84 228.46 233.03 227.09 235.02 225.9 235.61 224.29 237.55 223.32 240.56 220.15 240.07 217.77 239.5 216.18 239.73 214.06 239.19 212.74 239.35 210.21 239.94 208.33 238.35 203.76 240.25 202.27 240.22 201.49 241.23 200.21 242.17 197.95 243.53 197.82 244.5 198.3 245.84 195.62 245.61 194.52 246.03 190.83 247.39 187.81 247.96 185.98 248.31 183.2 248.78 181.21 249.67 180.67 249.8 179.13 250.33 177.65 251.53 177.29 253.39 175.32 254.33 173.47 256.67 171.35 259.07 170.71 260.72 169.49 260.88 168.56 262.66 166.33 265.4 166.91 266.86 166.44 269.95 167.47 272.03 166.65 273.4 164.54 274.18 162.67 274.38 161.48 278.08 159.05 278.91 156.69 278.16 154.93 278.87 151.89 277.94 148.68 278.55 147.5 279.97 147.38 282.52 145.86 283.33 144.58 283.79 142.68 285.21 141.27 284.58 138.84 283.38 137.62 283.45 136.51 282.97 134.28 280.52 132.36 280.3 131.65 280.81 130.14 280.48 129.05 280.99 128.47 281.26 126.03 282.69 123.64 281.44 122.87 281.08 120.23 278.61 115.65 280.31 114.06 281.56 114.72 283.29 113.05 284.94 112.33 285.48 112.51 287.7 108.89 286.82 105.25 286.05 104.26 287.88 102.36 287.89 101.29 288.62 99.83 288.03 97.24 289.38 96.46 290.52 95.24 292.43 94.47 294.2 94.72 293.72 91.19 294.27 90.71 295.47 87.61 295.98 85.36 298.08 83.5 298.67 81.46 298.4 80.18 295.88 77.99 294.77 77.73 294.05 75.84 292.51 74.51 291.24 70.89 289.96 69.56 289.64 67.1 290.41 65.29 290.53 63.24 289.08 60.04 287.46 59.37 285.93 58.3 285.5 57.04 283.6 57.15 282.7 55.1 283.16 52.17 284.35 50.02 285.96 48.61 286.22 45.95 286.16 42.03 288.73 38.2 288.91 34.37 288.62 33.46 290.83 30.76 293.26 32.54 297.15 34.73 301.25 36.31 302.29 36.51 307.54 38.32 309.09 39.06 311.67 37.93 311.03 34.75 315.9 32.94 320.68 29.06 324.52 25.39 333.09 15.63 337.68 7.24 340.04 3.22 349 1 356.86 6 362.99 11.65 369.78 17.76 373.29 21.96 380.37 27.75 385.48 33.67 390.73 39.51 398.03 47.37 401.02 61.56 401.07 75.52 395.71 89.02 393.26 104.67 394.02 107.99 394.14 110.36 393.73 115.52 394.2 119.45 388.61 119.43 388.85 120.62 389.83 122.09 390.31 125.74 390.58 126.42 390.56 130.48 390.01 135.66 393.01 135.56 394.39 138.28 396.05 140.37 Z" id="25040000"/>
<path d="M 626.71 191.95 623.35 190.52 622.23 190.61 619.98 192.69 618.83 192.85 617.58 193.82 616.19 193.26 614.56 194.77 613.1 197.71 611.72 199.4 610.52 201.44 610.42 202.45 609.56 203.16 608.6 205.02 607.09 206.9 606.64 208.4 605.7 209.21 605.42 210.61 601.77 215.26 600.21 218.67 599.19 219.63 598.67 221.79 597.8 223.11 597.55 224.39 597.94 225.31 597.48 226.67 598.18 228.17 595.81 232.77 594.53 233.72 594.11 234.84 594.3 236.16 593.63 236.75 592.73 239.4 591.19 241.64 591.26 242.51 590.3 243.65 589.82 245.71 589.9 246.64 586.98 250.24 585.17 256.55 581.83 255.08 580.09 254.51 578.43 255.54 578.64 256.4 581.45 260.31 579.57 262.54 579.09 263.82 577.25 265.77 576.71 268.31 574.73 271.27 573.99 271.93 573.14 273.6 571.09 276.51 569.43 278.14 567.41 281.35 566.49 282.01 565.9 284.48 565.32 285.48 563.87 285.26 562.07 287.7 561.08 289.78 558.9 291.57 556.89 292.45 555.2 294.08 554.9 294.72 552.86 294.88 551.45 295.93 549.28 299.23 548.19 300.04 547.67 301.29 546.79 302.26 545.05 302.53 543.17 303.43 542.38 304.17 540.03 305.08 538.35 307 538.5 308.96 536.58 312.04 535.15 313.38 534.11 313.84 533.78 317.24 532.64 316.65 532.69 318.41 532.39 320.69 532.95 321.06 532.9 322.42 531.99 325.17 531.69 327.17 530.9 329.45 529.84 334.9 530.15 341.02 529.79 344.53 530.42 345.95 530.37 347.2 529.83 348.17 532.71 351.96 531.7 353.22 531.18 354.61 531.61 358.55 530.07 361.22 528.46 362.87 527.75 364.19 526.98 367.35 527.73 368.94 525.84 372.58 524.65 374.36 523.59 374.84 522.42 376.38 523.28 377.42 522.97 378.97 523.56 381.2 523.29 382.19 524.66 384.38 526.21 386.15 527.36 388.39 530.31 389.51 530.39 392.78 532.21 394.05 534.17 396.45 534.04 398.87 537.89 403.49 538.19 406.03 539.46 412.12 540.83 414.48 543.53 414.59 545.08 416.41 545.11 417.91 546.77 419.28 547.14 421.55 548.27 423.85 549.83 427.61 551 429.28 551.57 429.25 552.12 430.69 551.82 431.73 552.47 432.47 553.7 436.72 555.07 438.3 556.48 438.6 557.92 439.64 559.05 439.74 560.62 440.46 559.98 446.28 560.13 447.77 560.82 448.89 559.26 451.72 559.32 453.24 557.21 458.39 557 463.63 557.43 466.53 558.1 467.09 558.19 469.66 557.12 471.38 555.68 472.08 553.81 471.92 552.45 470.91 550.26 469.71 542.51 467.77 541.4 465.25 532.48 465.13 529.85 464.45 531.55 460.61 530.77 460.64 517.39 461.92 516.46 464.11 512.07 462.1 510.99 463.93 509.46 463.23 508.54 467.25 509.5 467.44 507.45 472.26 501.31 469.35 497.76 467.43 497.99 463.58 493.31 458.79 494.27 457.28 493.4 457.13 493.85 455.07 493.45 454.18 491.4 452.73 491.52 451.16 492.18 448.62 490.59 444.41 489.72 443.33 488.36 443.24 487.54 442.63 485.6 442.59 484.69 441.08 482.16 440.7 481.37 441.08 475.88 445.9 474.85 446.15 470.31 446.33 470.59 453.39 466.22 453.58 466.37 457.29 462.2 457.73 463.36 466.79 461.66 467.07 461.92 468.84 459.78 470.72 458.52 472.72 457.47 474.94 456.55 477.43 455.84 478.55 454.22 479.54 451.48 479.77 449.97 479.62 448.24 479.82 447.42 479.56 445.34 480.29 442.14 480.41 441.7 482.32 440.34 485.06 439.25 486.58 446.19 492.88 443.26 492.15 439.51 491.73 435.58 491.98 434.77 492.33 427.09 494.35 429.86 502.49 430.52 503.76 429.27 502.9 427.36 500.29 425.3 497.16 424.35 493.75 422.28 489.19 421.93 487.45 419.98 484.63 417.52 482.23 416.57 482.27 413.6 480.62 407.42 478.68 402.1 476.41 402.39 473.78 403.57 466.04 403.85 464.91 401.88 460.22 400.42 456.26 400.27 454.71 396.99 446.29 394.87 439.37 392.21 437.39 390.64 435.9 388.47 434.44 387.35 433.15 386.1 430.81 385.36 425.45 384.72 422.9 383.17 419.68 382.37 418.57 380.21 414.74 378.14 413.12 375.88 411.09 374.83 409.59 374.17 407.96 373.57 405.34 373.82 403.99 374.63 402.55 382.61 400.88 384.48 400.75 386.67 400.25 394.24 396.49 395.39 395.45 398.76 394.13 405.61 392.03 408.19 391.08 411.06 389.77 414.77 386.9 417.01 384.84 417.14 384.14 420.05 379.84 421.12 377.28 421.73 374.74 421.89 362.16 422.06 358.36 421.56 357.14 420.65 352.09 420.11 347.39 420.09 344.23 420.43 340.74 420.83 334.38 421.45 330.38 422.09 329.32 423.73 325.54 425.28 322.99 425.95 318.3 425.94 311.61 426.28 307.84 428.41 303.6 430.54 299.91 432.34 298.3 434.15 297.24 436.17 293.6 435.78 293.17 438.83 286.94 439.94 284.34 441.41 281.47 443 277.1 442.97 273.92 441.6 268.83 438.92 264.71 437.89 261.97 435.97 257.91 428.66 246.74 425.71 243.31 424.88 241.81 422.33 240.37 420.45 239.61 415.53 237.92 414.14 237.17 411.06 234.67 409.26 231.92 407.34 230.64 405.62 228.81 403.1 227.23 398.01 225.15 396.08 222.8 393.82 220.53 391.73 218.77 389.76 216.51 388.02 214.16 384.69 210.87 381.55 208.28 379.96 206.34 377.78 202.97 376.81 200.65 376.66 199.02 375.76 199.13 369.05 195.35 366.69 191.81 365.84 188.8 365.09 186.98 364.05 185.33 363.7 182.45 363.6 178.16 364.14 174.87 365.73 172 368.39 168.27 369.6 164.86 369.86 163.62 370.94 161.88 374.3 158.4 377.06 156.98 379.94 156.24 382.99 155.95 387.21 150.73 388.62 148.45 391.94 145.02 396.05 140.37 397.24 141.87 399.52 142.9 405.61 143.81 411.06 144.42 417.24 144.19 423.98 144.14 426.88 144.45 428.91 144.44 432.29 144.11 437.12 143.17 444.11 141.52 448.99 140.67 452.63 139.87 453.73 139.41 460.72 137.47 468.8 137.99 484.49 138.85 485.19 140.12 481.97 139.67 479.68 139.83 477.49 139.66 477.32 140.85 486.21 140.85 490.64 145.36 493.2 148.18 496.19 151.21 498.97 154.97 503.28 157.72 509.23 160.41 511.1 161.48 521.73 161.25 530.47 157.98 539.73 151.55 546.22 144.62 550.32 139.3 552.63 126.22 552.8 119.85 552.78 116.43 553.25 112.9 556.18 106 560.56 95.31 567.22 87.38 569.37 84.32 570.92 82.77 573.54 80.64 575.14 79.61 580.7 77.05 584.55 75.43 595.57 72.7 596.21 72.6 604.7 74.42 606.02 80.97 602.9 95.31 601.87 98.52 600.57 101.27 598.68 106.69 595.97 111.21 594.88 112.27 593.09 115.13 592.13 118.06 589.82 122.36 588.77 125.34 588.22 129.75 588.54 131.99 590.34 135.57 592.07 138.02 600.15 146.24 606.38 149.23 612.4 149.66 624.42 147.81 633.23 144.23 647.25 138.68 652.87 140.85 655.47 146.59 657.22 152.44 654.72 160.26 644.3 170.13 638.65 175 629.4 186.17 626.71 191.95 Z" id="25050000"/>
</g>
</svg>