<?xml version="1.0"?>
<svg xmlns="http://www.w3.org/2000/svg" version="1.2" baseProfile="tiny" width="800" height="1349" viewBox="0 0 800 1349" stroke-linecap="round" stroke-linejoin="round">
<g id="sigung">
<path d="M 714.23 252.54 706.82 260.93 700.82 267.12 698.28 271.23 690.65 280.65 685.14 281.17 679.96 282.52 674.97 285.08 668.9 291.35 666.95 294.49 666.48 296.74 664.29 302.89 659.5 309.62 656.63 314.8 655.65 320.73 655.83 328.48 656.46 333.68 658.33 336.66 659.7 339.94 661.23 345.38 665.49 351.76 677.6 358.58 679.22 358.39 679.49 361.33 681.24 365.53 685.18 371.61 688.07 375.1 693.72 379.78 699.73 385.71 702.89 389.95 706.44 394.04 710.21 397.22 714.28 401.31 717.77 405.55 726.96 409.3 731.52 412.16 734.61 415.46 738.09 417.77 741.33 422.74 746.89 427.24 749.4 428.6 758.29 431.65 761.68 433.02 766.29 435.62 767.78 438.32 773.11 444.51 786.3 464.67 789.77 472 791.63 476.94 796.48 484.38 798.95 493.57 799 499.31 796.14 507.2 793.48 512.38 791.46 517.07 785.97 528.32 786.68 529.09 783.02 535.66 779.75 537.57 776.5 540.48 772.66 547.14 768.82 554.79 768.19 561.59 768.22 573.67 767.02 582.13 764.21 586.74 761.24 593.55 760.09 595.47 758.97 602.68 758.26 614.17 757.63 620.47 757.68 626.17 758.64 634.66 760.29 643.77 761.2 645.96 760.89 652.83 760.6 675.53 759.5 680.12 757.57 684.74 752.31 692.5 752.08 693.76 748.04 697.48 741.34 702.67 736.16 705.02 731.5 706.73 719.12 710.52 713.04 712.9 710.96 714.78 697.3 721.58 693.35 722.48 689.98 722.71 675.57 725.72 674.11 728.33 673.66 730.75 674.74 735.48 670.42 734.27 665.97 735.06 663.2 736.21 660.08 736.71 655.13 736.57 644.18 735.07 639.05 734.89 623.35 734.89 615.1 734.67 613.95 732.12 604.29 731.95 597.77 732.73 590.05 734.89 587.25 736.89 585.41 739.22 582.34 741.92 577.57 745.04 574.23 746.5 569.31 749.5 565.28 754.05 561.57 762.61 557.38 769.86 553.68 773.9 549.01 776.7 545.53 778.17 535.32 781.38 527.18 792.01 515.82 807.25 514.53 812.17 513.68 817.11 503.34 826.03 494.52 833.4 488.94 833.34 479.65 838.32 476.77 843.14 473.34 853.23 472.45 859.43 472.78 862.58 474.75 869.78 477.32 875.67 481.03 881.87 481.86 885.16 484.53 890.33 485.04 892.56 486.16 901.58 487.86 910.87 490.44 919.37 492.76 925.48 495.04 935.08 497.32 940.81 498.02 943.35 497.08 949.77 496.09 954.31 494.68 957.04 494.29 959.54 422.29 959.5 422.32 971.3 412.03 971.29 412.03 986.74 412.54 987.88 417.05 991.62 417.61 996.76 418.52 999.62 417.92 1002.45 416.05 1007.1 416.09 1010.59 415.54 1013.74 416.33 1017.94 418.8 1024.97 420.55 1033.5 419.26 1034.88 420.8 1041.59 429.95 1042.08 429.04 1046.1 428.31 1054.3 430.67 1059.7 428.28 1061.37 427.55 1062.76 426.83 1067.54 419.63 1066.4 419.76 1069.3 417.62 1073.25 415.51 1073.27 413.81 1074.42 413.89 1076.53 412.11 1077.52 410.89 1081.6 409.62 1081.66 406.58 1084 405.76 1085.98 405.8 1089.24 403.38 1089.99 402.98 1092.12 400.67 1091.59 399.47 1094.7 399.29 1098.28 397.25 1098.26 397.28 1115.05 396.76 1115.32 396.8 1134.05 388.18 1134.26 382.59 1136.13 372.82 1140.57 368.12 1142.35 361.1 1145.62 357.88 1148.29 350.96 1157.28 348.56 1161.31 343.96 1175.26 343.51 1175.37 340.89 1183.97 339.65 1189.49 339.14 1195.39 339.67 1199.6 339.71 1203.64 339.31 1209.53 338.83 1211.75 334.85 1218.72 331.39 1221.56 327 1224.05 323.56 1224.9 319.3 1224.63 313.64 1224.73 313.78 1227.36 312.08 1233.16 309.96 1243.1 299.43 1243.17 298.27 1246.05 297.7 1251.56 296.56 1254.39 296.93 1258.67 294.75 1264.3 295.83 1268.01 294.8 1270.2 292.93 1270.99 292.25 1272.46 286.88 1273.68 287.39 1278.02 288.28 1280.7 290.41 1283.83 293.1 1284.5 293.02 1293.15 293.76 1297.56 295.98 1300.56 288.6 1302.84 285.57 1302.18 283.8 1300.52 278.41 1301.31 277.52 1302.22 261.09 1310.53 259.17 1311.17 254.26 1311.75 250.99 1312.76 249.56 1314.35 242.34 1318.21 237.76 1322.49 235.16 1326 232.59 1330.26 227.87 1329.09 219.9 1339.19 217.61 1343 216.69 1348 212.51 1347.35 210.39 1347.57 209.53 1345.03 206.63 1340.91 202.06 1338.08 197.79 1338.77 191.11 1340.53 185.32 1343.61 182.35 1344.39 173.98 1344.68 164.95 1343.8 161.03 1342.34 159.69 1341.32 153.63 1338.34 149 1331.64 146.55 1329.73 137.29 1327.15 129.87 1321.79 117.81 1314.68 110.88 1310 106.07 1307.09 103.22 1304.32 99.33 1301.25 94.29 1295.7 87.54 1290.25 85.19 1288.95 77.56 1285.76 73.65 1284.48 62.96 1282.27 57.14 1280.7 51.31 1275.33 43.98 1265.96 38.83 1258.01 36.07 1255.54 35.76 1252.22 34.13 1246.24 31.42 1242.47 22.37 1235.54 19.85 1226.93 17.24 1222.86 11.42 1218.58 9.61 1214.95 8.54 1207.56 3.3 1198.59 1 1195.87 5.67 1193.07 7.12 1184.36 12.69 1184.8 14.91 1182.9 17.12 1178.77 17.45 1176.81 21.82 1168.91 24.34 1168.26 29.83 1164.85 35.08 1162.1 37.85 1165.91 51.01 1169.21 57.47 1169.46 61.81 1168.95 59.62 1165.87 59.16 1160.51 61.6 1149.43 62.35 1142.94 62.2 1140.98 65.48 1133.62 60.13 1126.56 55.1 1124.22 55 1120.65 55.57 1113.01 54.86 1105.52 54.82 1097.59 54.26 1096.69 56.04 1091.71 53.12 1087.59 54.82 1080.2 56.26 1078.41 54.85 1074.03 55.91 1067.53 54.41 1066.2 53.64 1062.53 55.12 1054.14 54.6 1050.83 54.88 1043.66 59.67 1034.25 62.63 1033.13 64.12 1028.91 64.88 1021.68 65.71 1020.52 65 1015.1 65.74 1012.22 64.39 1004.39 62.49 1001.47 60.93 997.95 62.38 995.26 60.95 988.88 66.09 989.49 70.53 988.71 76.08 988.81 79.57 987.06 83.49 984.27 84.96 984.39 90.19 981.47 89.61 978.47 90.49 975.29 94.57 970.54 97.45 965.75 99.41 965.04 98.13 960.28 92.47 953.44 92.67 946.64 91.38 943.51 87.69 939.96 87.6 936.18 86.89 931.92 88.29 927.28 91.43 923.7 96.06 919.49 98.59 916.32 101.68 910.37 109.37 907.91 113.81 904.96 119.09 899.17 122.29 891.66 134.16 893.89 139.21 891.81 147.15 890.33 149.9 888.46 147.37 885.76 145.05 882.24 143.84 878.37 142.3 875.36 143.1 867.95 144.27 865.67 141.98 859.49 140.46 858.7 137.8 854.72 137.33 852.6 135.91 852.57 130.27 846.81 127.59 842.81 121.49 838.58 118.84 835.54 119.3 830.13 117.98 826.99 115.48 822.55 112.7 816.75 112.68 812.16 111.5 809.47 112.38 804.7 112.19 800.02 110.23 797.17 110.93 795.35 113.61 793.77 116.42 792.87 118.41 787.1 123.83 784.2 135.43 778.38 138.24 776.53 142.92 771.82 141.68 768.72 141.85 765.87 140.57 761.99 141.07 759.82 139.99 754.23 144.15 751.23 147.39 750.21 150.58 748.4 150.14 746.36 150.02 741.28 150.56 737.76 151.82 734.05 152.98 732.86 153.61 729.38 155.11 725.93 156.03 720.94 158.25 717.21 156.1 712.95 155.95 710.98 156.76 706.06 155.6 702.83 154.82 695.37 153.78 693.84 148.94 690.56 148.11 688.47 148.77 676.23 146.66 674.39 146.82 671.88 148.62 666.47 147.91 659.67 146.06 656.43 145.46 651.62 144.33 649.69 141.3 647.95 146.16 643.45 147.66 639.18 147.63 634.09 148.37 632.91 148.91 629.27 148.75 624.91 149.35 622.51 148.54 619.77 148.75 617.26 147.73 610.08 147.91 604.51 146.94 602.69 146.77 598.05 147.6 594.17 146.12 592.44 147.86 584.25 147.45 581.44 150.45 574.3 151.34 570.23 156.35 554.98 156.57 549.57 157.77 546.47 157.27 545.63 157.02 541.33 155.91 539.75 155.82 535.14 158.4 529.85 158.3 527.34 161.18 522.59 160.93 518.1 159.24 514.11 162.74 508.3 163.44 505.58 162.6 503.37 162.91 497.67 161.85 493.5 162.6 490.63 168.31 488.41 172.77 488.11 173.98 487.25 176.77 486.83 179.22 487.52 184.22 486.6 193.25 484.02 196.95 482.13 202.36 482.15 203.86 481.73 204.08 468.15 204.56 467.3 209.14 466.97 214.87 467.88 216.92 466.57 220.88 462.76 223.26 461.05 222.7 460.06 222.63 454.87 219.88 451.89 218.16 451.57 218.06 447.2 224.01 444.51 228.3 441.44 230.77 442.22 236.57 441.84 241.88 443.27 242.98 445.65 248.54 448.83 251.61 449.16 253.34 445.21 253.65 441.84 256.82 435.96 260.9 432.97 263.81 433.51 267.96 432.27 274.15 432.05 276.45 432.6 279.44 432.32 284.33 434.04 288.74 433.55 292.19 431.69 295.2 432.79 298.3 436.26 298.51 438.63 304.79 441.47 309.85 442.81 311.87 443.94 313.65 445.91 314.91 448.51 317.18 450.66 318.61 450.59 320.24 453.33 320.26 456.61 322.04 456.38 325.37 454.56 328.16 453.77 333 450.99 335.51 444.72 338.13 442.8 339.12 440.79 344.73 438.29 346.08 439.89 352.5 443.74 360.18 445.18 362.01 444.54 363.59 445.09 365.95 447.34 369.19 445.96 370.73 443.6 373.84 441.4 379.06 440.3 384.17 436.13 384.91 434.17 389.56 431.04 390.02 429.75 393.31 427.56 395.48 422.11 399.52 420.41 404.64 419.33 409.86 414.52 414.23 412.32 417.76 411.52 419.92 409.05 423.5 406.9 424.57 404 428.07 402.24 433.52 396.52 432.63 392.22 431.6 389.35 432.02 385.53 431.04 383.15 431.32 378.58 432.39 375.2 429.52 366.95 432.95 364.26 432.9 362.85 434.71 360.54 436.42 356.46 438.87 356.23 440.62 357.1 443.04 352.26 442.63 350.27 443.39 343.61 445.84 338.16 446.87 334.86 447.5 329.83 448.35 326.24 449.96 325.27 450.19 322.5 451.15 319.82 453.32 319.16 456.67 315.61 458.36 312.27 462.59 308.45 466.92 307.29 469.91 305.09 470.2 303.42 473.41 299.39 478.36 300.44 481 299.58 486.58 301.44 490.32 299.98 492.8 296.16 494.21 292.78 494.56 290.64 501.24 286.25 502.75 282 501.39 278.81 502.67 273.33 501 267.53 502.1 265.4 504.66 265.19 509.26 262.45 510.72 260.13 511.57 256.71 514.12 254.15 512.98 249.78 510.81 247.58 510.95 245.57 510.08 241.54 505.65 238.08 505.26 236.8 506.18 234.08 505.58 232.11 506.5 231.06 506.99 226.66 509.58 222.34 507.32 220.96 506.66 216.18 502.2 207.92 505.27 205.05 507.53 206.24 510.65 203.23 513.64 201.92 514.61 202.25 518.61 195.73 517.03 189.16 515.63 187.37 518.94 183.93 518.97 182.01 520.27 179.38 519.21 174.7 521.65 173.28 523.71 171.09 527.15 169.69 530.36 170.15 529.48 163.78 530.48 162.92 532.64 157.32 533.56 153.26 537.36 149.89 538.42 146.21 537.93 143.91 533.38 139.95 531.38 139.49 530.07 136.07 527.3 133.68 525.01 127.13 522.7 124.73 522.12 120.3 523.52 117.03 523.73 113.32 521.11 107.55 518.19 106.35 515.42 104.41 514.64 102.14 511.22 102.34 509.6 98.63 510.41 93.36 512.58 89.48 515.48 86.93 515.94 82.12 515.83 75.05 520.47 68.13 520.8 61.23 520.28 59.58 524.27 54.72 528.65 57.92 535.67 61.88 543.08 64.72 544.97 65.08 554.43 68.36 557.23 69.69 561.9 67.65 560.73 61.92 569.53 58.65 578.16 51.65 585.1 45.02 600.57 27.4 608.85 12.26 613.12 5 629.29 1 643.48 10.02 654.55 20.22 666.81 31.25 673.14 38.83 685.93 49.27 695.15 59.97 704.63 70.5 717.81 84.7 723.2 110.3 723.3 135.49 713.62 159.85 709.19 188.11 710.56 194.1 710.78 198.37 710.05 207.69 710.89 214.78 700.81 214.74 701.23 216.89 703.01 219.55 703.87 226.14 704.36 227.35 704.33 234.68 703.34 244.04 708.75 243.86 711.23 248.77 714.23 252.54 Z" id="25040000"/>
</g>
</svg>