<?xml version="1.0"?>
<svg xmlns="http://www.w3.org/2000/svg" version="1.2" baseProfile="tiny" width="800" height="783" viewBox="0 0 800 783" stroke-linecap="round" stroke-linejoin="round">
<g id="sigung">
<path d="M 612.05 341.87 610.62 341.39 608.74 341.07 605.05 341.81 602.97 342.45 599.56 342.54 598.3 342.1 593.63 341.67 591.17 341.28 587.73 340.89 585.05 340.22 583.85 340.65 582.81 340.75 578.46 341.72 575.28 342.09 571.12 341.72 569.66 341.46 566.61 341.27 565.36 340.98 561.92 340.83 558.24 340.35 556.05 339.66 553.69 338.61 549.25 337.66 545.53 336.22 543.45 336.4 542.32 336.77 541.28 337.49 539.21 339.39 538.96 340.36 539.02 342.96 539.17 344.87 539.42 346.54 539.51 348.15 538.81 349.14 537.05 350.53 536.17 350.92 533.59 351.61 529.28 352.42 527.59 352.48 525.76 351.99 524.6 351.1 523.59 350.54 522.7 350.67 522.03 350.51 520.5 349.7 518.3 347.53 517.44 346.48 517.01 345.43 516.34 344.35 514.97 343.13 513.6 342.35 509.89 341.28 508.16 340.5 506.15 339.28 503.9 337.71 502.12 336.69 500.83 336.26 497.8 335.77 495.59 335.6 493.14 334.99 492.29 335.12 489.73 336.39 486.67 336.53 485.9 336.26 483.3 334.94 481.71 333.84 479.41 331.47 478.08 329.81 477.57 328.83 475.2 326.39 474.07 324.21 473.26 323.11 472.38 322.22 471.37 321.47 469.67 321.05 466.93 320.9 466.72 318.75 466.19 317.71 466.14 316.49 465.38 315 465.66 313.6 465.6 312.68 465.05 311.5 463.65 310.65 463.35 309.95 464.11 306.38 464.04 305.72 464.74 304.79 465.69 304.04 465.74 303.39 464.77 302.22 465.01 300.94 464.87 299.98 464.26 298.95 464.6 296.33 465.77 295.45 467.74 295.59 467.69 294.73 467.17 293.34 466.23 291.32 466.69 290.31 466.79 288.93 466.21 288.47 466 287.55 464.69 286.89 462.83 287.19 461.85 285.53 461.52 284.56 460.48 284.11 460.12 282.84 459.95 281.6 459.44 280.54 459.92 278.28 460.43 277.34 459.74 275.9 459.32 273.76 457.57 272.3 457.76 271.48 458.33 270.75 458.01 268.23 456.5 267.73 455.49 266.08 455.48 264.52 455.66 264.16 456.8 264.37 458.34 265.25 459.52 265.61 460.79 264.81 461.35 265.49 462.16 265.28 462.7 265.61 463.6 266.67 464.68 267.3 465.3 268.25 466.66 269.35 467.49 269.43 468.79 269.88 470.46 270.29 471.33 271.09 472.54 271.47 473.96 271.27 475.25 271.83 475.6 272.78 476.11 273.21 476.7 272.88 477.89 273.62 478.32 271.74 479.08 270.94 479.69 269.84 480 269.68 482.38 269.71 484.04 269.24 484.77 269.18 486.7 269.82 489.19 271.26 491.02 271.85 493.19 272.01 495.3 272.41 496.21 272.69 497.55 272.8 500.07 273.56 501.58 273.82 502.29 274.24 504.17 274.99 505.06 275.16 505.12 275.74 503.29 275.11 502.99 275.56 502.17 279.29 501.5 281.29 502.02 281.44 504.09 282.65 504.23 283.56 505.79 284.59 506.27 286.11 507.09 286.17 507.75 286.74 509.51 287.35 511.3 287.46 512.16 286.84 513.55 287.27 514.78 287.32 516.47 286.42 517.85 285.93 518.87 286.84 519.66 287.33 520.8 288.67 521.43 289.13 523.4 289.95 522.5 286.33 522.51 284.95 522.86 284.59 522.26 283.66 521.81 282.08 520.64 281.04 519.85 278.87 520.48 277.03 520.66 275.73 521.88 274.18 522.49 272.19 522.08 271.66 521.84 270.46 520.97 269.31 520.37 268.06 519.16 267.09 518.55 266.16 518.02 264.45 518.01 262.43 517.74 261.82 517.58 259.26 517.23 258.73 516.3 258.72 516.58 257.63 516.59 256.81 518.28 257.88 520.25 257.91 521.05 258.34 522.62 258.63 524.2 258.04 524.94 256.81 525.96 255.66 526.49 255.57 528.4 254.48 530.14 254.63 530.7 254.4 533.43 254.41 535.67 254.82 536.65 254.54 538.15 254.78 538.35 256.24 539.38 257.12 540.46 257.42 541.03 258.19 540.21 259.08 540.28 259.72 541.05 260.68 541.76 262.19 542.75 262.63 544.1 264.45 546.52 263.99 547.76 264.47 549.19 263.83 550.02 263.17 550.71 262.26 551.38 261.02 552.79 259.55 554.32 258.31 555.99 256.76 559.18 254.69 560.12 253.75 560.92 253.84 562.64 254.44 563.74 254.46 566.16 253.22 567.68 251.28 568.16 249.68 568.11 246.92 568.82 245.76 570.63 244.85 571.62 244.81 572.45 245.15 573.67 246.11 574.97 246.59 575.62 246.43 577.38 245.64 579.42 244.47 580.58 244 582.05 243.65 582.7 243.73 583.19 244.33 583.55 246.05 582.65 248.21 582.27 248.61 581.95 249.68 582.47 250.72 584.75 252.64 585.7 253.29 587.65 254.07 588.61 253.96 589.74 253.56 591.4 252.23 593.96 250.65 595.6 249.9 598.58 249.19 600.26 248.94 604.01 249.04 605.96 249.17 607.63 250.02 610.39 250.57 610.66 254.69 609.85 255.2 610.37 255.69 610.39 256.22 610.95 257.24 611 258.28 610.79 259.26 611.02 259.79 610.94 263.49 610.31 263.51 610.44 269.86 610.92 272 611.14 275.51 611.82 278.8 612.42 280.68 613.59 282.43 614.28 283.96 615.68 286.52 616.32 287.44 617.38 290.96 617.68 293.53 617.69 297.22 617.47 298.42 617.36 303.54 617.45 304.39 618.06 306.68 619.24 309.15 620.42 315.09 620.33 316.53 619.79 319.83 618.21 321.08 614.95 322.64 614 323.57 613.57 324.58 613.83 324.94 614.17 326.79 615.13 329.01 615.55 330.39 615.83 332.42 615.35 333.97 614.24 336.11 614.78 336.46 616.61 339.31 616.57 339.94 617.92 342.03 618.06 342.98 616.61 342.3 615.06 341.26 613.98 341.06 613.72 341.4 612.83 340.85 612.17 340.73 612.05 341.87 Z" id="26010000"/>
<path d="M 675.46 516.52 675.01 516.88 673.57 519.51 669.33 526.56 667.08 536.27 666.83 535.64 668.76 527.28 668.83 526.54 674.87 516.52 674.95 516.57 685.09 502.64 685.7 502.51 682.95 506.19 681.92 507.73 680.1 510.08 678.56 512.33 677.25 513.98 675.46 516.52 Z M 612.05 341.87 614.95 343.37 617.42 344.95 622.06 346.56 625.15 347.37 627 348.15 628.56 348.62 636.75 351.71 638.95 353.76 642.08 354.74 642.28 355.53 643.24 356.78 644.13 358.2 645.29 359.48 646.52 360.55 648.89 361.71 651.08 362.07 652.12 361.95 655.34 360.12 657.6 362.15 658.81 363.08 660.86 382.01 662.99 384.35 668.36 387.94 668.15 388.01 662.92 384.46 661.46 382.84 657.57 381.23 657.46 381.51 659.23 382.38 662.81 385.69 662.53 385.99 658.97 382.71 656.52 381.7 652.68 391.76 658.48 393.97 657.35 399.68 657.87 399.86 657.17 403.65 674.68 405.49 674.73 405.57 675.48 418.64 676.78 423.07 678.19 422.76 678.51 424.17 677.09 424.52 678.29 429.66 679.98 429.54 679.99 430.21 677.92 431.61 677.97 434.27 681.18 434.2 681.19 434.39 678.05 434.45 677.3 434.85 676.96 435.77 675.02 436.46 674.28 436.39 673.13 435.98 666.63 433.19 666.29 432.36 662.68 433.4 660.65 434.81 658.37 435.33 656.65 435.36 653.97 436.75 652.02 436.9 649.98 436.38 646.75 434.13 645.88 433.78 644.99 432.98 645.17 431.1 644.6 430.91 644.05 431.43 641.74 429.04 639.76 428.52 639.61 428.31 638.3 430.42 639.74 431.47 640.2 432.19 642.4 436.32 641.5 436.15 641.64 436.77 645.93 442.83 646.05 442.89 648.58 441.69 648.99 441.96 650.43 441.86 651.3 442.11 651.99 442.73 651.63 443.99 653.46 443.79 653.81 443.11 654.74 443.38 655.38 443.33 655.29 442.29 656.57 440.55 657.64 441.32 658.02 441.25 658.41 440.15 659.01 439.34 658.75 438.49 659.4 438.3 660.56 438.43 663.38 438.44 664.96 438.56 667.46 442.98 668.97 444.79 669.76 445.07 667.85 442.77 668.04 442.58 670.19 445.16 669.65 445.51 671.75 448.45 672.11 449.22 676.21 448.74 676.64 448.77 677.33 449.4 678.27 449.75 679.21 450.34 679.82 451.12 676.2 448.93 672.21 449.37 673.91 452.04 675.39 453.05 683.08 457.88 683.51 460.38 683.02 460.38 683.01 458.63 682.84 458.03 674.62 452.81 674.16 452.46 677.81 458.07 677.62 458.45 679.84 460.92 680.71 461.46 681.04 461.36 681.58 462.13 681.42 462.55 684.34 465.71 684.6 466.85 684.24 467.65 684.31 471.25 684.85 471.59 684.89 472.82 684.37 473.79 684.4 478.21 685.01 479.28 684.56 480.01 683.95 480.02 683.73 470.72 683.63 465.41 681.14 462.7 680.49 463.46 676.03 468.1 675.83 467.95 674.72 469.15 675.05 470.03 676.54 471.45 677.89 470.02 678.18 470.3 676.7 471.84 676.17 472.02 676.21 473.65 676.49 474.33 674.18 475.88 674.04 476.7 673.54 477.39 673.6 481.38 673.8 481.6 675.86 481.55 676.24 481.96 673.79 482.05 673.8 482.67 676.08 482.63 676.11 484.05 677.8 484.01 679.97 481.76 680.13 481.92 677.9 484.24 673.86 484.32 673.95 485.74 674.64 486.44 674.19 486.78 673.57 486.34 672.09 488.89 672.12 489.1 674.76 490.08 674.63 490.37 671.97 489.34 671.53 489.75 668.92 494.31 668.39 494.78 667.66 494.76 665.01 493.05 663.73 493.66 663.43 494.43 661.48 495.95 660.73 496.17 659.85 496.82 660.32 497.52 659.38 498.25 658.88 497.79 658.18 498.97 659.56 499.47 664.43 495.16 665.69 496.03 668.59 497.72 672.83 501.12 663.96 515.82 659.71 514.12 657.46 513.31 653.5 523.23 652.56 522.85 651.87 524.62 650.3 528.12 650.14 528.98 650.41 529.58 656.69 535.24 656.2 535.11 650.03 529.55 649.9 529.48 641.19 526.02 630.66 521.76 626.67 520.19 626.38 520.7 626.33 517.53 626.43 515.98 625.57 515.61 625.6 516.95 624.14 516.99 623.17 514.29 624.18 513.08 623.14 510.84 623.7 509.93 622.02 506.57 621.14 505.44 620.05 504.48 619.49 503.13 619.8 502.33 617.45 500.4 615.88 500.2 614.39 499.48 613.32 498.57 611.52 497.32 605.43 491.68 604.8 491.05 604.65 490.25 604.8 488.52 603.59 488.19 602.06 488.67 601.98 487.62 602.14 486.29 601.93 484.6 602.13 483.01 602.03 482.15 601.1 480.5 601.07 479.83 600.69 478.88 599.35 477.01 598.41 475.5 597.26 474.76 596.96 474.13 595.77 473.46 593.67 471.93 592.85 471.76 592.22 470.9 590.45 471.14 589.64 470.76 589.36 469.85 589.8 469.35 589.6 468.78 587.56 468.83 586.59 468.85 585.93 467.56 584.76 468.21 583.98 467.15 584.41 466.59 581.19 462.58 580.64 462.61 580.53 461.73 579.25 461.78 577.59 463.16 574.5 465.88 572.09 465.96 572.06 465.64 570.9 465.43 569.51 465.5 569.47 464.59 568.87 463.6 568.01 460.39 567.51 459.4 567.18 458.28 559.53 458.41 559.46 457.13 558.83 456.94 558.08 456.26 556.63 455.83 553.8 455.68 553.09 453.96 552.46 453.67 551.3 452.16 549.54 448.27 549.22 447.16 548.41 446.73 547.96 447.36 547.07 446.04 546.5 445.87 545.82 447.01 545.03 449.54 543.46 450.61 542.03 451.19 541.36 451.7 540.61 451.74 539.94 450.75 538.06 451.05 537.54 449.28 537.41 448.35 536.39 447.41 534.98 447.67 534.43 447.19 534.05 445.68 534.06 445.04 531.98 443.85 531.76 442.72 531.48 440.29 530.67 438.77 529.89 438.67 528.01 436.54 527.08 436.71 526.12 436.04 525.59 434.79 525.24 432.25 524.63 431.27 522.92 430.39 523.08 429.96 523.05 427.51 522.4 427.47 520.81 427.89 520.78 426.94 521.31 425.36 521 424.37 519.42 424.91 518.15 423.74 518.43 422.72 517.93 421.9 517.33 419.6 517.62 418.39 517 417.31 516.92 416.13 517.1 415.61 516.68 414.24 516.65 412.12 515.38 411.73 514.24 410.22 513.41 409.86 511.41 409.69 510.47 410.09 509.64 409.39 508.86 408 508.35 407.98 506.73 408.58 505.34 407.84 504.92 406.78 503.72 404.68 503.97 404.1 506.22 403.43 504.67 402.06 504.07 401.08 501.79 399.37 500.83 399.28 499.31 398.61 497.9 398.89 497.2 398.03 496.41 397.45 495.57 395.96 494.3 395.38 493.26 395.23 493.03 394.8 493.5 393.84 492.32 392.16 491.82 390.25 492.44 388.82 494.3 386.01 493.35 384.41 491.82 385.5 490.79 383.88 490.2 383.21 488.47 384.64 487.24 385 486.32 384.82 484.75 383.63 483.42 382.44 481.83 381.74 479.7 382.67 479.15 383.45 478.32 382.47 477.22 381.55 476.52 381.65 475.93 382.27 474.33 382.4 473.61 385.04 471.31 384.46 471.67 383.95 471 382.25 469.99 381.8 468.4 382.72 467.25 381.18 466.18 380.33 466.8 378.29 466.17 377.11 465.46 374.84 464.24 374.75 462.77 374.01 461.23 373.73 462.04 375.98 460.9 377.54 460.08 378.19 458.58 376.96 457.46 376.38 454.25 377.59 453.57 377.34 452.65 377.54 451.87 377.1 451.06 377.38 450.23 377.19 449.26 375.98 448.42 374.57 446.55 371.83 444.18 372.74 442.95 373.35 441.71 373.09 440.04 372.3 437.12 372.74 434.63 372 433.11 372.16 431.88 372 433.67 367.88 435.39 364.59 437.88 364.74 440.55 364.11 441.73 361.68 442.49 361.32 443.62 359.71 443.93 358.6 445.43 358.1 446.65 357.28 452.48 354.61 452.23 353.13 451.34 352.12 451.42 351.55 452.68 350.27 455.07 348.83 456.8 347.01 456.73 345.19 458.27 343.43 458.39 342.99 458.17 340.82 459.13 339.4 459.27 338.67 460.06 337.48 461.55 336.21 462.45 335.25 463.72 335.96 465.86 337.39 469.64 340.25 471.18 339.99 470.27 339.07 472.03 335.48 471.79 334.8 473.47 331.37 473.88 330.74 475.98 332.02 477.22 329.97 478.08 329.81 479.41 331.47 481.71 333.84 483.3 334.94 485.9 336.26 486.67 336.53 489.73 336.39 492.29 335.12 493.14 334.99 495.59 335.6 497.8 335.77 500.83 336.26 502.12 336.69 503.9 337.71 506.15 339.28 508.16 340.5 509.89 341.28 513.6 342.35 514.97 343.13 516.34 344.35 517.01 345.43 517.44 346.48 518.3 347.53 520.5 349.7 522.03 350.51 522.7 350.67 523.59 350.54 524.6 351.1 525.76 351.99 527.59 352.48 529.28 352.42 533.59 351.61 536.17 350.92 537.05 350.53 538.81 349.14 539.51 348.15 539.42 346.54 539.17 344.87 539.02 342.96 538.96 340.36 539.21 339.39 541.28 337.49 542.32 336.77 543.45 336.4 545.53 336.22 549.25 337.66 553.69 338.61 556.05 339.66 558.24 340.35 561.92 340.83 565.36 340.98 566.61 341.27 569.66 341.46 571.12 341.72 575.28 342.09 578.46 341.72 582.81 340.75 583.85 340.65 585.05 340.22 587.73 340.89 591.17 341.28 593.63 341.67 598.3 342.1 599.56 342.54 602.97 342.45 605.05 341.81 608.74 341.07 610.62 341.39 612.05 341.87 Z" fill-rule="evenodd" id="26020000"/>
<path d="M 707.81 500.59 699.99 504.01 699.81 503.69 710.51 499.07 710.64 499.35 707.81 500.59 Z M 772.13 452.89 772.49 452.49 773.35 452.58 772.57 453.44 773.05 453.87 772.65 454.58 771.95 453.88 772.13 452.89 Z M 753.64 441.32 753.39 441.17 754.81 437.92 755.14 438.11 753.64 441.32 Z M 677.11 383.66 679.29 385.26 681.4 387.47 684.21 392.27 684.87 393.02 685.82 393.76 686.93 394.26 688.54 394.52 690.82 394.34 691.95 394.51 693.56 395.36 693.68 396.36 694.8 396.57 695.61 397.23 696.98 397 698.17 397.16 699.77 397.6 700.36 397.13 701.42 397.06 702.94 397.39 704.15 398.57 704.58 398.66 704.87 399.46 705.94 400.22 706.51 400.85 706.32 402.11 706.5 402.54 707.69 403.32 708.33 404.18 708.97 404.59 710.42 404.84 711.21 405.43 712.25 404.24 712.63 402.69 712.44 402.42 712.76 400.6 713.26 399.31 712.77 398.11 712.87 395.89 712.09 395.33 712.96 394.39 713.96 393.59 714.32 392.95 714.49 391.26 713.42 390.5 714.12 389.38 711.67 387.25 710.96 387.24 709.54 386.09 708.8 385.79 707.25 384.01 705.61 382.8 704.8 382.88 703.41 382.71 702.9 382.26 701.02 381.95 700.25 381.58 700.03 380.52 699.02 379.14 699.84 377.58 701 376.84 701.36 374.6 703.1 371.53 703.97 371.29 704.81 370.24 705.86 368.5 706.01 367.13 705.74 366.4 705.87 364.36 707.06 363.56 707.41 362.96 707.28 361.28 706.94 360.21 706.1 359.48 705.76 357.62 705.25 356.63 705.52 354.68 707.62 352.25 708.62 351.64 708.76 350.02 709.21 348.14 710.09 347.31 709.2 345.33 708.4 344.97 708.47 344.04 708.12 341.76 707.54 340.98 707.77 338.78 707.53 337.96 707.95 337.38 708.31 336.04 709.08 334.72 711.02 333.46 712.2 333.33 714.27 332.22 715.08 331.58 716.46 329.33 717.35 328.52 717.64 327.95 718.36 324.99 718.83 323.81 718.95 321.88 717.33 320.5 717.49 320.18 719.45 318.26 722.93 316.07 724.5 314.09 726.07 312.95 727.46 310.65 728.04 310.24 729.75 310.23 731.62 308.74 732.84 308.12 733.63 308.02 734.11 308.28 735.04 307.21 737.32 307.08 738.17 306.82 739.31 306.73 740.07 306.25 741.16 306.06 742.04 305.12 742.14 304.38 743.08 303.47 744.9 303.28 745.61 303.68 745.99 303.13 747.17 303.39 749.3 303.46 749.95 303.32 750.65 303.76 751.3 303.68 751.98 302.8 752.82 302.71 754.28 303.05 754.91 303.69 755.95 303.16 756.11 302.1 756.87 301.19 758.1 301.77 758.64 301.09 760.26 300.37 761.2 300.29 761.46 300.71 760.7 301.33 760.69 302.13 761.16 302.15 763.04 300.84 763.5 300.68 764.11 301.42 764.98 301.74 765.64 301.63 766.09 301.08 766.69 300.93 768.07 302.15 768.64 301.96 769.11 301.17 769.66 299.76 771.47 299.09 772.52 298.47 772.08 297.36 772.16 296.28 772.97 295.24 774.27 295.57 775.06 296.06 776.14 295.83 776.62 295.41 777.25 293.92 777.54 293.71 778.96 293.57 779.33 293.8 780.71 293.4 781.98 296.73 782.76 298.08 782.87 299.22 783.23 300.07 784.28 301.31 784.39 302.37 785.36 304.43 786.87 306.22 788.54 307.16 789.16 307.14 789.33 308.5 788.78 308.92 788.48 309.58 788.53 310.51 788.22 311.05 789.6 311.86 790.23 313.42 789.78 313.87 789.5 312.84 789.05 312.1 788.09 311.61 787.85 312.25 787.84 313.81 788.53 314.9 788.46 315.24 789.33 316.68 789.36 318.07 790.29 319.05 789.68 319.19 789.63 320.22 789.95 321.28 789.85 322.54 790.09 323.38 789.83 324 790.34 325.46 789.96 325.46 789.74 326.44 789.88 327.77 790.36 328.55 790.57 329.49 789.84 330.31 789.01 331.64 787.79 331.64 786.75 332.28 786.23 332.87 785.69 334.03 785.43 335.16 785.37 336.46 785.76 337.17 785.93 338.19 785.72 338.69 786.05 339.34 785.92 340.27 784.93 341.41 784.45 340.96 783.84 341.87 783.21 342.19 783.16 343.02 782.66 343.87 782.36 345.78 782.7 346.51 782.01 346.89 781.94 347.73 781.37 348.07 781.32 349.25 783.3 350.52 783.77 351.54 783.24 352.95 780.94 358.28 780.5 359.67 780.37 360.9 779.94 361.95 779.94 364 780.9 367.47 781.01 369.51 781.2 370.7 781.73 372.5 781.76 373.11 782.28 374.45 784 380.46 785.19 383.49 784.83 384.12 783.68 382.96 780.94 380.53 779.27 379.77 778.53 379.87 778.1 380.61 777.34 380.22 776.73 379 775.94 378.76 775.75 378.28 772.84 377.44 772.31 378.11 759.88 379.28 760.14 387.83 760.41 396.29 761.91 396.74 761.84 395.17 762.53 391.75 763.33 392.03 765 391.97 764.99 391.63 771.86 391.32 773.01 387.73 767.93 385.64 768.19 384.99 773.41 387.1 774.37 383.88 775.49 384.14 775.34 384.82 775.69 385.83 776.19 386.29 777.16 386.51 778.52 386.05 779.32 386.18 779.29 387.1 778.6 387.65 774.91 397.35 774.66 398.85 774.14 400.31 774.17 402.85 774.29 404.09 774.03 405.17 773.05 406.64 772.86 408.18 772.46 409.55 772.31 410.77 771.85 412.68 772.21 414.14 774.13 415.94 774.67 416.75 775.57 417.57 776.74 420.33 776.46 420.46 775.34 417.83 772.56 417.59 769.42 417.21 767.39 417.04 766.09 418.18 765.32 417.67 765.2 414.03 764.51 414.44 763.63 414.14 762.43 414.18 762.4 413.83 760.98 413.87 760.61 414.26 754.53 414.44 754.5 413.82 751.74 413.87 751.16 414.45 750.96 417.04 750.13 425.6 752.96 427.79 758.62 422.68 760.74 422.62 760.74 422.07 764.76 421.95 765.51 420.5 765.92 420.75 767.17 423 768.69 424.39 768.91 426.06 768.83 428.07 768.92 430.99 767.95 433.14 767.13 433.73 765.83 433.83 764.77 433.61 763.01 433.82 762.47 434.28 762.44 435.34 761.94 435.75 761.55 435.15 760.38 435.55 758.77 435.6 758.24 436.1 757.03 436.56 756.29 436.58 755.37 437.46 754.58 435.9 753.7 435.37 752.84 435.89 751.83 437.17 751.48 437.94 750.69 438.65 749.5 440.59 749.01 441.97 748.89 443.49 749.28 445.79 749.94 447.48 750.87 449.34 751.84 450.5 753.42 451.53 754.11 451.66 755.68 450.78 756.94 450.67 758.09 449.71 759.44 449.11 759.71 448.72 761.02 449.02 761.81 448.92 762.53 448.5 763.24 447.42 762.95 446.67 763.06 445.77 763.53 445.19 764.29 444.93 765.33 444.24 766.09 444.26 766.39 444.87 767.32 445.12 767.28 445.84 768.16 446.9 768.55 446.59 769.98 448.3 770.75 448.32 770.91 449.02 770.22 449.41 770.59 450 770.64 450.73 771.56 450.71 771.7 451.35 770.95 451.53 771.18 452.62 770.47 452.98 770.22 452.23 769.16 451.65 766.76 452.12 765.87 452.61 764.3 454.07 763.53 455.4 763.37 456.05 763.46 457.17 763.82 457.69 763.38 458.61 763.62 459.62 763.61 461.09 762.29 463.21 761.96 464.4 761.39 465.24 760.93 465.16 760.09 465.62 759.97 466.38 759.13 466.64 758.43 467.31 757.7 468.63 756.17 470.32 755.72 471.52 755.41 473.21 754.33 473.98 751.8 474.75 751.48 475.28 750.27 479.38 751.35 480.05 751.12 480.31 749.75 480.28 749.09 479.88 745.87 480.12 744.42 480.03 744.59 479.16 745.28 479.48 748.92 479.44 750.02 479.11 751.21 475.17 750.06 474.15 750.5 473.4 751.42 473.08 751.16 472.36 750.32 472.43 749.85 473 749.33 470.48 748.93 469.01 748.02 468.15 747.51 467.29 746.06 466.48 740.85 466.25 738.79 467.83 740.13 470.29 740.15 472.83 741.15 472.81 741.19 473.62 744.06 473.99 746.34 476.25 745.89 476.55 745.19 475.93 743.91 474.49 739.67 473.87 737.89 474.45 736.01 474.8 735.36 474.51 734.62 474.6 733.69 473.98 733.84 472.77 733.01 472.53 731.67 471.71 730.97 471.67 730.56 472.14 729.35 472.01 728.82 472.51 728.32 473.84 727.17 474.58 726.71 474.54 726 475.01 725.54 475.95 724.41 476.58 723.93 477.34 723.7 478.39 724.38 479.41 723.92 480.02 723.81 480.77 725.38 482.63 725.62 483.21 725.77 484.8 723.32 487.46 721.68 489.35 721.58 489.78 719.14 492.52 717.62 493.63 716.16 494 714.9 493.96 710.62 492.79 709.67 492.73 708.18 494.2 707.72 493.88 711.3 490.25 707.55 484.41 701.7 484.55 701.69 484.19 705.1 484.11 704.49 482.57 706.49 482.53 706.38 475.27 706.16 469.43 706.06 465.78 704.59 465.6 704.5 463.67 704.29 463.31 705.98 463.26 706.51 462.68 708.1 462.64 708 459.67 712.48 450.54 703.71 437.73 696.58 436.23 691.54 435.19 692.98 428.2 691.7 427.94 691.77 427.55 693.06 427.8 694.13 422.59 693.23 414.06 693.08 413.43 692.07 411.13 691.36 409.76 690.98 409.37 686.57 400.1 683.55 395.01 679.1 387.35 679.41 387.19 677.82 384.46 677.11 383.66 Z" fill-rule="evenodd" id="26030000"/>
<path d="M 790.58 270.72 790.35 270.47 791.81 268.76 792.15 268.88 790.58 270.72 Z M 771.73 135.94 772.02 136.89 771.58 136.94 770.4 138.22 770.71 138.67 769.88 139.92 770.38 140.49 769.84 141.35 769.79 141.88 769.06 142.78 768.03 143.45 767.49 144.42 766.05 145.8 765.79 146.75 765.07 147.78 764.7 147.58 765.48 146.59 765.59 146.02 764.01 145.63 762.77 146.37 761.98 146.65 761.51 147.13 761.07 146.8 760.08 147.11 759.37 147.9 758.79 149.05 758.5 152.04 758.52 153.96 758.74 156.43 759.55 162.34 760.25 164.74 760.9 166.22 762.03 167.19 762.18 167.7 761.74 168.97 761.34 168.88 760.21 170.77 759.3 170.83 758.71 171.45 758.32 172.95 758.56 174.44 758.91 175.23 758.98 176.1 759.43 177.93 761.77 183.66 762.8 186.83 763.38 187.71 763.68 188.61 764.32 189.63 765.64 191.34 768.11 193.99 769.4 195.23 770.64 196.21 771.72 196.63 772.5 196.54 772.49 197.39 773.18 198.49 773.95 198.81 774.94 199.71 775.91 200.21 777.55 200.37 778.72 201.68 779.08 202.32 780.69 204.58 780.31 205.01 777.59 201.25 774.75 201.36 773.14 204.24 774.02 207.8 774.88 207.94 775.1 208.55 775.7 208.41 777.25 205.83 777.96 205.24 778.53 205.41 778.2 207.24 777.13 208.02 776.9 209.12 777.76 209.48 778.3 209.37 780.79 209.31 782.78 209.47 784.14 208.78 784.52 209.11 786.01 209.01 786.64 209.39 787.83 210.6 786.53 211.64 786.68 212.11 787.97 212 787.79 213.08 787.11 213.42 786.86 214.6 786.15 215.23 786.58 215.83 786.26 216.57 786.9 216.71 786.15 217.98 785.73 218.32 785.82 219.36 786.94 219.87 786.64 220.4 787.02 221.46 787.47 221.85 788.3 221.63 788.52 220.84 789.46 221.31 787.89 222.61 789.02 223.95 790.17 223.75 790.71 220.94 791.12 220.48 792.11 221.16 793.28 222.7 793.22 224.02 794.11 223.5 794.94 223.52 793.95 226.15 794.77 226.41 795.12 227.48 796.05 227.45 796.38 228.32 795.68 229.71 795.55 231.16 796.08 231.51 796.23 232.3 797.22 232.51 797.16 233.38 796.6 234.12 797.09 234.55 796.98 235.22 797.4 235.77 797.39 236.51 797.95 237.81 797.69 238.99 797.03 240.04 796.87 240.67 796.24 241.33 795.89 242.15 796.03 242.71 796.96 242.8 796.72 244.58 796.17 246.59 796.73 247.05 796.8 248.2 796.54 248.87 795.67 249.17 795.45 250.54 796.25 251.01 796.67 250.63 797.39 251.33 797.51 252.2 797.03 253.21 797.27 253.76 796.77 254.65 796.47 256.67 796.63 257.61 797.49 257.87 797.39 258.45 797.78 258.89 797.8 260.15 797.64 261.31 797.7 262.31 798.74 262.82 799 263.6 798.27 264.44 798 265.68 796.43 266.83 795.44 266.89 794.16 267.67 793.08 268.02 791.57 268.1 791.52 267.85 790.21 267.24 789.62 266.4 788.75 266.27 787.43 267.07 786.77 268.58 786.76 270.29 787.38 271.24 787.18 271.97 786.42 272.3 785.89 272.92 785.51 273.96 785.58 275.12 785.35 275.65 783.56 275.2 781.83 275.53 781.19 276.34 780.3 278.44 780.47 279.01 780.17 280.62 781 281.78 780.64 282.86 780.62 283.89 780.9 284.69 780.44 286.73 780.37 288.56 780.83 289.42 780.42 290.61 780.48 292.46 780.71 293.4 779.33 293.8 778.96 293.57 777.54 293.71 777.25 293.92 776.62 295.41 776.14 295.83 775.06 296.06 774.27 295.57 772.97 295.24 772.16 296.28 772.08 297.36 772.52 298.47 771.47 299.09 769.66 299.76 769.11 301.17 768.64 301.96 768.07 302.15 766.69 300.93 766.09 301.08 765.64 301.63 764.98 301.74 764.11 301.42 763.5 300.68 763.04 300.84 761.16 302.15 760.69 302.13 760.7 301.33 761.46 300.71 761.2 300.29 760.26 300.37 758.64 301.09 758.1 301.77 756.87 301.19 756.11 302.1 755.95 303.16 754.91 303.69 754.28 303.05 752.82 302.71 751.98 302.8 751.3 303.68 750.65 303.76 749.95 303.32 749.3 303.46 747.17 303.39 745.99 303.13 745.61 303.68 744.9 303.28 743.08 303.47 742.14 304.38 742.04 305.12 741.16 306.06 740.07 306.25 739.31 306.73 738.17 306.82 737.32 307.08 735.04 307.21 734.11 308.28 733.63 308.02 732.84 308.12 731.62 308.74 729.75 310.23 728.04 310.24 727.46 310.65 726.07 312.95 724.5 314.09 722.93 316.07 719.45 318.26 717.49 320.18 717.33 320.5 718.95 321.88 718.83 323.81 718.36 324.99 717.64 327.95 717.35 328.52 716.46 329.33 715.08 331.58 714.27 332.22 712.2 333.33 711.02 333.46 709.08 334.72 708.31 336.04 707.95 337.38 707.53 337.96 707.77 338.78 707.54 340.98 708.12 341.76 708.47 344.04 708.4 344.97 709.2 345.33 710.09 347.31 709.21 348.14 708.76 350.02 708.62 351.64 707.62 352.25 705.52 354.68 705.25 356.63 705.76 357.62 706.1 359.48 706.94 360.21 707.28 361.28 707.41 362.96 707.06 363.56 705.87 364.36 705.74 366.4 706.01 367.13 705.86 368.5 704.81 370.24 703.97 371.29 703.1 371.53 701.36 374.6 701 376.84 699.84 377.58 699.02 379.14 700.03 380.52 700.25 381.58 701.02 381.95 702.9 382.26 703.41 382.71 704.8 382.88 705.61 382.8 707.25 384.01 708.8 385.79 709.54 386.09 710.96 387.24 711.67 387.25 714.12 389.38 713.42 390.5 714.49 391.26 714.32 392.95 713.96 393.59 712.96 394.39 712.09 395.33 712.87 395.89 712.77 398.11 713.26 399.31 712.76 400.6 712.44 402.42 712.63 402.69 712.25 404.24 711.21 405.43 710.42 404.84 708.97 404.59 708.33 404.18 707.69 403.32 706.5 402.54 706.32 402.11 706.51 400.85 705.94 400.22 704.87 399.46 704.58 398.66 704.15 398.57 702.94 397.39 701.42 397.06 700.36 397.13 699.77 397.6 698.17 397.16 696.98 397 695.61 397.23 694.8 396.57 693.68 396.36 693.56 395.36 691.95 394.51 690.82 394.34 688.54 394.52 686.93 394.26 685.82 393.76 684.87 393.02 684.21 392.27 681.4 387.47 679.29 385.26 677.11 383.66 675.83 382.58 672.23 378.38 671.49 377.77 669.26 374.99 668.27 373.62 664.07 368.54 660.37 364.28 660.11 364.28 658.81 363.08 657.6 362.15 655.34 360.12 652.12 361.95 651.08 362.07 648.89 361.71 646.52 360.55 645.29 359.48 644.13 358.2 643.24 356.78 642.28 355.53 642.08 354.74 638.95 353.76 636.75 351.71 628.56 348.62 627 348.15 625.15 347.37 622.06 346.56 617.42 344.95 614.95 343.37 612.05 341.87 612.17 340.73 612.83 340.85 613.72 341.4 613.98 341.06 615.06 341.26 616.61 342.3 618.06 342.98 617.92 342.03 616.57 339.94 616.61 339.31 614.78 336.46 614.24 336.11 615.35 333.97 615.83 332.42 615.55 330.39 615.13 329.01 614.17 326.79 613.83 324.94 613.57 324.58 614 323.57 614.95 322.64 618.21 321.08 619.79 319.83 620.33 316.53 620.42 315.09 619.24 309.15 618.06 306.68 617.45 304.39 617.36 303.54 617.47 298.42 617.69 297.22 617.68 293.53 617.38 290.96 616.32 287.44 615.68 286.52 614.28 283.96 613.59 282.43 612.42 280.68 611.82 278.8 611.14 275.51 610.92 272 610.44 269.86 610.31 263.51 610.94 263.49 611.02 259.79 610.79 259.26 611 258.28 610.95 257.24 610.39 256.22 610.37 255.69 609.85 255.2 610.66 254.69 610.39 250.57 607.63 250.02 605.96 249.17 604.01 249.04 600.26 248.94 598.58 249.19 595.6 249.9 593.96 250.65 591.4 252.23 589.74 253.56 588.61 253.96 587.65 254.07 585.7 253.29 584.75 252.64 582.47 250.72 581.95 249.68 582.27 248.61 582.65 248.21 583.55 246.05 583.19 244.33 582.7 243.73 582.05 243.65 580.58 244 579.42 244.47 577.38 245.64 575.62 246.43 574.97 246.59 573.67 246.11 572.45 245.15 571.62 244.81 570.63 244.85 568.82 245.76 568.11 246.92 568.16 249.68 567.68 251.28 566.16 253.22 563.74 254.46 562.64 254.44 560.92 253.84 560.12 253.75 559.18 254.69 555.99 256.76 554.32 258.31 552.79 259.55 551.38 261.02 550.71 262.26 550.02 263.17 549.19 263.83 547.76 264.47 546.52 263.99 544.1 264.45 542.75 262.63 541.76 262.19 541.05 260.68 540.28 259.72 540.21 259.08 541.03 258.19 540.46 257.42 539.38 257.12 538.35 256.24 538.15 254.78 536.65 254.54 535.67 254.82 533.43 254.41 530.7 254.4 530.14 254.63 528.4 254.48 526.49 255.57 525.96 255.66 524.94 256.81 524.2 258.04 522.62 258.63 521.05 258.34 520.25 257.91 518.28 257.88 516.59 256.81 516.33 255.67 516.34 254.69 514.78 252.3 514.94 250.8 515.49 250.1 515.7 248.88 516 248.43 516.84 247.95 517.13 247.41 518.08 246.56 518.81 245.13 518.34 244.01 520.11 242.46 520.1 241.73 519.22 240.66 520.45 239.79 520.43 238.55 521.5 236.83 522.61 235.34 523.9 234.83 524.98 232.4 524.75 231.52 525.13 230.36 524.74 229.11 524.99 227.8 526.4 226.82 527.81 226.55 528.93 225.8 528.99 225.39 530.12 223.94 529.92 223.38 530.46 222.01 530.07 219.37 529.59 218.32 529.59 217.54 530.34 216.3 530.33 214.79 531.37 214.77 530.7 213.26 529.62 211.88 529.15 211.59 528.79 210.74 527.65 209.62 525.46 208.36 523.54 207.74 522.39 206.96 522.03 206.3 522.13 204.08 521.27 203.35 521.08 202.43 521.77 200.7 523.04 199.59 522.75 198.97 521.65 197.47 521.96 196.58 521.89 196 522.33 193.51 522.35 192.34 521.79 191.67 522.08 190.89 523.5 189.44 524.57 188.6 525.54 187.12 526.35 185.41 526.52 183.97 527.28 180.84 527.29 179.67 526.91 177.78 525.5 175.79 524.51 172.37 524.61 170.88 524.36 169.18 523.81 168.04 524 165.19 524.52 161.5 524.55 160.22 525.23 159.33 525.11 158.2 523.94 156.92 523.6 155.54 523.61 154.49 524.54 153.72 524.72 151.05 526.11 149.67 526.9 148.65 527.45 148.6 528.21 149.15 528.98 149.09 530.8 147.91 532.26 147.66 533.61 147.76 534.28 148.22 534.46 147.17 534.29 145.01 534.91 144.36 534.78 143.64 533.85 143.08 532.7 141.95 532.74 141.49 533.55 140.42 535.71 140.51 535.92 140.32 535.89 138.8 535.3 136.32 535.41 134.43 535.69 133.73 535.83 132.4 535.68 131.11 536.01 129.87 536.36 129.53 537.36 129.24 538.29 128.7 541.07 129.37 541.64 129.27 541.6 128.45 542.38 127.62 543.54 127.15 543.83 126.69 543.83 125.75 545.89 123.31 546.96 122.63 548.7 123.2 549.37 123.11 551.1 124.66 553.11 127.04 555.09 124.89 555.66 124.75 557.2 125.24 558.35 125.87 559.99 127.49 560.2 128.69 559.78 129.48 560.06 130.47 560.45 130.58 561.82 130.02 562.63 129.9 562.87 128.76 565.02 126.96 565.7 127.02 567.28 125.99 570.56 127.65 572.2 126.72 572.69 126.19 574.02 125.34 575.52 126.44 576.08 126.6 577.17 125.42 577.36 124.65 577.3 123.3 577.76 123.02 577.56 122.41 576.51 121.8 575.35 122.19 575.17 117.67 576.54 116.17 577.68 115.38 577 114.23 577.82 112.87 578.9 111.89 581.4 112.85 581.88 112.12 581.42 111.18 581.31 109.91 582.1 109.15 582.36 108.44 582.14 107 583 105.65 583.24 104.16 583.65 103.44 584.76 103.71 586.4 104.62 588.14 104.43 588.91 104.57 590.19 104.24 591.27 103.67 593.31 103.45 594.03 102.9 594.83 101.84 596.15 101.25 596.9 100.26 597.91 99.7 598.01 99.13 599.52 97.21 600.67 95.47 602.51 94.74 603.36 94.6 603.41 94.03 604.15 93.1 604.68 91.87 605.65 91.47 605.87 89.99 606.4 88.81 607.02 88.16 608.75 86.96 609.98 86.39 610.8 85.74 612.27 84.98 613.05 85.21 614.03 84.81 614.69 83.61 616.98 83.7 618.36 83.4 619.35 83.72 619.66 83.43 621.03 83.43 622.58 83.76 623.9 83.42 625.22 83.85 626.03 84.33 630.25 84.72 631.72 84.09 632.2 85.43 631.99 88.43 633.46 90.46 636.18 91.23 637.12 92.32 638.12 95.34 638.68 95.7 640.76 95.56 642.48 95.79 644.21 97.36 646.21 101.16 646.06 103 649.03 102 651.69 101.68 654.31 100.97 659.09 99.17 660.84 98.76 663.03 99.11 664.3 99.88 667.32 100.4 668.27 100.26 669.13 100.94 669.94 100.96 671.66 101.69 672.14 102.2 673.81 102.53 677.32 103.72 678.86 103.48 679.77 103.94 680.1 104.5 682.8 104.51 684.11 104.33 684.65 104.66 685.49 104.59 686.14 104.95 687.14 104.82 688.58 104.85 689.11 105.19 690.37 105.2 691.52 105.85 691.76 106.56 692.3 107.21 693.02 109.1 693.74 110.62 695.1 112.48 695.69 114.01 696.65 114.3 698.52 114.22 700.51 114.47 701.68 114.36 703.31 112.82 705.31 112.81 707.01 112.16 708.3 112.2 710.27 113.03 712.56 113.72 713.84 114.31 714.38 114.86 716.19 115.77 718.15 117.22 718.91 118.41 721.1 118.45 722.22 118.99 723.19 120.32 723.7 120.53 725.37 120.69 728.99 122.93 731.43 124.11 732.53 124.81 734.58 124.84 736.33 125.68 736.9 127.86 737.78 127.79 739.61 127.27 742.29 125.76 743.97 125.57 744.05 126.95 744.56 128.16 744.54 130.12 745.47 131.67 746.81 133.35 747.87 133.8 750.08 132.03 750.12 131.37 750.68 130.18 751.49 129.52 754.51 128.09 756.68 129.19 757.81 129.31 758.55 129.11 759 128.55 759.52 129.1 761.9 130.43 762.66 130.49 764.41 131.44 765.52 132.62 767.01 133.63 768.44 135.03 769.91 135.88 771.24 136.06 771.73 135.94 Z" fill-rule="evenodd" id="26040000"/>
<path d="M 625.14 664.78 624.48 666.03 623.62 666.32 623.11 666.83 622.31 666.17 623.8 664.96 625.14 664.78 Z M 666.02 565.83 665.97 569.34 665.8 571.22 665.7 576 665.38 582.38 665.38 583.79 664.66 583.84 664.96 582.78 664.91 581.36 665.06 579.89 665.07 577.28 665.18 576.38 665.18 574.34 665.31 573.47 665.34 570.29 665.83 557.63 666.49 555.98 669.82 547.97 670.22 546.83 670.59 546.99 669.38 550.05 666.26 557.69 666.1 561.37 666.02 565.83 Z M 648.94 544.61 647.25 548.76 644.47 547.52 645.01 546.19 647.68 544.1 648.94 544.61 Z M 667.34 547.21 667.02 547.2 664.42 546.07 660.5 544.53 660.83 543.84 666.77 546.3 667.46 546.54 667.34 547.21 Z M 623.34 538.17 624.84 538.76 624.99 539.78 624.11 540.32 623.41 541.05 622.39 541.26 621.75 540.88 621.73 540.31 622.69 538.87 622.85 538.25 623.34 538.17 Z M 523.94 156.92 525.11 158.2 525.23 159.33 524.55 160.22 524.52 161.5 524 165.19 523.81 168.04 524.36 169.18 524.61 170.88 524.51 172.37 525.5 175.79 526.91 177.78 527.29 179.67 527.28 180.84 526.52 183.97 526.35 185.41 525.54 187.12 524.57 188.6 523.5 189.44 522.08 190.89 521.79 191.67 522.35 192.34 522.33 193.51 521.89 196 521.96 196.58 521.65 197.47 522.75 198.97 523.04 199.59 521.77 200.7 521.08 202.43 521.27 203.35 522.13 204.08 522.03 206.3 522.39 206.96 523.54 207.74 525.46 208.36 527.65 209.62 528.79 210.74 529.15 211.59 529.62 211.88 530.7 213.26 531.37 214.77 530.33 214.79 530.34 216.3 529.59 217.54 529.59 218.32 530.07 219.37 530.46 222.01 529.92 223.38 530.12 223.94 528.99 225.39 528.93 225.8 527.81 226.55 526.4 226.82 524.99 227.8 524.74 229.11 525.13 230.36 524.75 231.52 524.98 232.4 523.9 234.83 522.61 235.34 521.5 236.83 520.43 238.55 520.45 239.79 519.22 240.66 520.1 241.73 520.11 242.46 518.34 244.01 518.81 245.13 518.08 246.56 517.13 247.41 516.84 247.95 516 248.43 515.7 248.88 515.49 250.1 514.94 250.8 514.78 252.3 516.34 254.69 516.33 255.67 516.59 256.81 516.58 257.63 516.3 258.72 517.23 258.73 517.58 259.26 517.74 261.82 518.01 262.43 518.02 264.45 518.55 266.16 519.16 267.09 520.37 268.06 520.97 269.31 521.84 270.46 522.08 271.66 522.49 272.19 521.88 274.18 520.66 275.73 520.48 277.03 519.85 278.87 520.64 281.04 521.81 282.08 522.26 283.66 522.86 284.59 522.51 284.95 522.5 286.33 523.4 289.95 521.43 289.13 520.8 288.67 519.66 287.33 518.87 286.84 517.85 285.93 516.47 286.42 514.78 287.32 513.55 287.27 512.16 286.84 511.3 287.46 509.51 287.35 507.75 286.74 507.09 286.17 506.27 286.11 505.79 284.59 504.23 283.56 504.09 282.65 502.02 281.44 501.5 281.29 502.17 279.29 502.99 275.56 503.29 275.11 505.12 275.74 505.06 275.16 504.17 274.99 502.29 274.24 501.58 273.82 500.07 273.56 497.55 272.8 496.21 272.69 495.3 272.41 493.19 272.01 491.02 271.85 489.19 271.26 486.7 269.82 484.77 269.18 484.04 269.24 482.38 269.71 480 269.68 479.69 269.84 479.08 270.94 478.32 271.74 477.89 273.62 476.7 272.88 476.11 273.21 475.6 272.78 475.25 271.83 473.96 271.27 472.54 271.47 471.33 271.09 470.46 270.29 468.79 269.88 467.49 269.43 466.66 269.35 465.3 268.25 464.68 267.3 463.6 266.67 462.7 265.61 462.16 265.28 461.35 265.49 460.79 264.81 459.52 265.61 458.34 265.25 456.8 264.37 455.66 264.16 455.48 264.52 455.49 266.08 456.5 267.73 458.01 268.23 458.33 270.75 457.76 271.48 457.57 272.3 459.32 273.76 459.74 275.9 460.43 277.34 459.92 278.28 459.44 280.54 459.95 281.6 460.12 282.84 460.48 284.11 461.52 284.56 461.85 285.53 462.83 287.19 464.69 286.89 466 287.55 466.21 288.47 466.79 288.93 466.69 290.31 466.23 291.32 467.17 293.34 467.69 294.73 467.74 295.59 465.77 295.45 464.6 296.33 464.26 298.95 464.87 299.98 465.01 300.94 464.77 302.22 465.74 303.39 465.69 304.04 464.74 304.79 464.04 305.72 464.11 306.38 463.35 309.95 463.65 310.65 465.05 311.5 465.6 312.68 465.66 313.6 465.38 315 466.14 316.49 466.19 317.71 466.72 318.75 466.93 320.9 469.67 321.05 471.37 321.47 472.38 322.22 473.26 323.11 474.07 324.21 475.2 326.39 477.57 328.83 478.08 329.81 477.22 329.97 475.98 332.02 473.88 330.74 473.47 331.37 471.79 334.8 472.03 335.48 470.27 339.07 471.18 339.99 469.64 340.25 465.86 337.39 463.72 335.96 462.45 335.25 461.55 336.21 460.06 337.48 459.27 338.67 459.13 339.4 458.17 340.82 458.39 342.99 458.27 343.43 456.73 345.19 456.8 347.01 455.07 348.83 452.68 350.27 451.42 351.55 451.34 352.12 452.23 353.13 452.48 354.61 446.65 357.28 445.43 358.1 443.93 358.6 443.62 359.71 442.49 361.32 441.73 361.68 440.55 364.11 437.88 364.74 435.39 364.59 433.67 367.88 431.88 372 433.11 372.16 434.63 372 437.12 372.74 440.04 372.3 441.71 373.09 442.95 373.35 444.18 372.74 446.55 371.83 448.42 374.57 449.26 375.98 450.23 377.19 451.06 377.38 451.87 377.1 452.65 377.54 453.57 377.34 454.25 377.59 457.46 376.38 458.58 376.96 460.08 378.19 460.9 377.54 462.04 375.98 461.23 373.73 462.77 374.01 464.24 374.75 465.46 374.84 466.17 377.11 466.8 378.29 466.18 380.33 467.25 381.18 468.4 382.72 469.99 381.8 471 382.25 471.67 383.95 471.31 384.46 473.61 385.04 474.33 382.4 475.93 382.27 476.52 381.65 477.22 381.55 478.32 382.47 479.15 383.45 479.7 382.67 481.83 381.74 483.42 382.44 484.75 383.63 486.32 384.82 487.24 385 488.47 384.64 490.2 383.21 490.79 383.88 491.82 385.5 493.35 384.41 494.3 386.01 492.44 388.82 491.82 390.25 492.32 392.16 493.5 393.84 493.03 394.8 493.26 395.23 494.3 395.38 495.57 395.96 496.41 397.45 497.2 398.03 497.9 398.89 499.31 398.61 500.83 399.28 501.79 399.37 504.07 401.08 504.67 402.06 506.22 403.43 503.97 404.1 503.72 404.68 504.92 406.78 505.34 407.84 506.73 408.58 508.35 407.98 508.86 408 509.64 409.39 510.47 410.09 511.41 409.69 513.41 409.86 514.24 410.22 515.38 411.73 516.65 412.12 516.68 414.24 517.1 415.61 516.92 416.13 517 417.31 517.62 418.39 517.33 419.6 517.93 421.9 518.43 422.72 518.15 423.74 519.42 424.91 521 424.37 521.31 425.36 520.78 426.94 520.81 427.89 522.4 427.47 523.05 427.51 523.08 429.96 522.92 430.39 524.63 431.27 525.24 432.25 525.59 434.79 526.12 436.04 527.08 436.71 528.01 436.54 529.89 438.67 530.67 438.77 531.48 440.29 531.76 442.72 531.98 443.85 534.06 445.04 534.05 445.68 534.43 447.19 534.98 447.67 536.39 447.41 537.41 448.35 537.54 449.28 538.06 451.05 539.94 450.75 540.61 451.74 541.36 451.7 542.03 451.19 543.46 450.61 545.03 449.54 545.82 447.01 546.5 445.87 547.07 446.04 547.96 447.36 548.41 446.73 549.22 447.16 549.54 448.27 551.3 452.16 552.46 453.67 553.09 453.96 553.8 455.68 556.63 455.83 558.08 456.26 558.83 456.94 559.46 457.13 559.53 458.41 567.18 458.28 567.51 459.4 568.01 460.39 568.87 463.6 569.47 464.59 569.51 465.5 570.9 465.43 572.06 465.64 572.09 465.96 574.5 465.88 577.59 463.16 579.25 461.78 580.53 461.73 580.64 462.61 581.19 462.58 584.41 466.59 583.98 467.15 584.76 468.21 585.93 467.56 586.59 468.85 587.56 468.83 589.32 471.84 591.33 473.5 595.2 474.69 598.22 477.85 600.42 481.19 601.05 486.01 601.12 488.83 597.16 489.61 597.78 490.24 597.81 490.98 597.3 491.13 597.58 492.69 598.51 493.78 599.78 494.42 601.3 494.59 602.38 495.46 603.02 496.19 603.74 496.55 604.19 497.43 604.42 499.26 605.18 500.26 607.06 501.15 606.87 502.79 607.2 503.88 608.35 504.45 609.83 503.88 610.85 504.76 611.44 505.86 611.72 507.04 612.31 508.28 613.08 508.74 613.34 509.54 613.41 510.61 614.85 510.33 615.54 514.02 615.89 514.69 616.73 518.89 615.45 519.25 615.28 519.8 616.2 524.06 617.8 532.28 618.1 532.82 618.9 533.02 619 533.45 617.98 533.64 618.4 535.45 619.7 542.1 623.47 543.59 623.93 543.31 627.22 540.38 630.54 541.46 635.76 542.36 636.36 545.51 634.42 552.49 626.69 556.33 626.47 556.6 628.82 561.67 643.83 555.01 644.82 554.77 646.96 549.49 648.76 545.21 649.92 542.25 651.22 539.6 651.73 540.11 657.19 542.4 659.48 543.29 659.27 544.01 657.86 543.28 656.28 547.09 652.62 550.23 651 554.2 646.13 552.22 645.93 552.71 650.8 554.7 647.16 563.64 655.26 566.94 655.48 574.97 658.41 574.85 659.88 574.89 659.21 575.45 655.78 575.56 649.05 575.67 648.2 577.28 647.13 577.96 647.48 578.62 646.7 579.06 646.29 578.46 645.18 579.03 644.81 579.51 644.87 580.1 643.4 581.18 642.38 580.91 642.03 581.16 642.26 584.6 641.26 585.6 640.03 585.58 639.25 585.28 636.37 585.07 631.61 584.6 626.99 584.02 625.56 583.95 625.41 584.54 632.5 585.8 641.39 587.48 641.54 587.56 641.57 589.55 642.95 589.52 642.92 588.08 643.92 587.85 644.09 588.12 644.15 592.29 643.71 592.5 644.01 607.12 642.24 607.7 642.46 616.95 646.72 616.97 646.93 621.51 647.68 621.46 647.69 622.31 642.59 622.53 642.8 631.05 642.81 633.95 636.83 639.66 636.17 639.86 636.07 643.53 635.76 643.59 635.49 640.16 632.68 640.2 632.68 640.68 629.4 640.84 628.93 641.7 629.51 642.37 629.2 643.1 629.58 643.83 629.61 644.63 630.59 645.5 631.22 645.46 630.8 647.29 631.09 647.9 631.26 649.05 630.24 650.15 629.6 651.42 629 651.77 627.82 651.84 627.22 652.12 624.97 652.78 623.68 653.38 622.21 653.11 621.43 653.27 620.96 653.7 620.59 654.65 620.03 654.95 619.84 655.71 619.34 656.23 618.26 656.65 618.25 657.35 617.13 657.93 616.64 659.74 617.7 660.31 618.01 660.81 617.79 661.32 618.12 663.1 618.42 663.9 619.19 665 620.6 665.84 618.68 667.67 617.36 669.52 616.23 671.68 615.64 673.58 615.1 675.93 614.78 678.77 614.81 680.32 615.03 681.41 615.68 681.57 616.07 682.37 615.49 683.43 615.49 684.31 615.89 684.58 615.83 685.73 615.34 685.83 615.14 686.48 615.43 687.56 617.77 688.98 619.92 689.69 621.24 689.09 622.89 688.99 623.59 688.74 624.18 689.1 624.61 690.75 625 691.5 626 692.11 627.03 692.52 628.94 692.82 629.68 692.61 630.93 693.35 632.09 693.52 631.7 695.07 632.1 695.84 632.55 695.97 632.62 698.16 634.96 698.56 635.47 698.8 636.14 700.32 635.78 700.5 635.17 699.11 633.89 698.93 633.26 699.24 632.86 698.85 631.69 700.11 631.07 701.37 631.08 702.63 631.44 703.51 632.34 704.21 633.19 704.12 633.68 704.53 634.21 704 634.82 704.19 635.49 703.67 636.34 704.57 636.16 705.38 636.3 706.25 637.4 707.04 639.85 707.22 640.44 707.53 640.97 708.51 640.95 709.25 642.32 710.12 642.7 711.39 642.24 711.87 642 710.53 640.56 709.57 640.24 710.02 640.15 711.59 639.93 712.8 640.03 713.59 640.47 714.42 641.17 715.12 642.47 715.32 643.41 716.05 643.45 716.92 643.93 718.02 643.74 718.64 642.42 719.58 642.04 720.68 641.96 722.05 641.54 722.37 640.3 723.99 639.53 724.49 638.96 725.43 637.91 726.09 636.24 726.47 635.61 726.26 634.39 726.45 632.62 727.66 631.55 726.84 630.03 727.66 628.64 728.06 628.47 727.68 629.89 727.22 630.81 726.76 631.11 726.26 630.57 725.73 629.23 725.64 628.67 726.28 627.65 725.87 626.85 726.47 625.49 726.23 624.58 726.69 624.34 728.6 622.16 729.21 621.34 728.98 620.77 729.42 619.96 730.65 619.66 731.57 619.13 732.53 617.7 732.02 616.74 733.23 616.19 733.47 615.77 733.11 615.88 732.34 616.26 731.78 615.74 729.26 614.54 728.55 613.54 728.17 612.52 728.88 610.24 729.26 608.42 729.23 608.36 728.73 610.5 728.72 611.3 728.56 612.3 726.81 610.34 725.14 608.84 724.17 607.38 724.16 607.44 725.64 607.11 725.69 607.05 724.16 606.2 723.98 603.61 724.26 601.4 725.04 599.54 726.24 598.15 727.8 597.63 728.96 598.07 730.08 597.16 730.94 597.2 731.8 597.93 732.73 598.12 733.69 597.76 734.59 597.71 735.59 597.36 736.47 596.63 737.11 595.85 739.27 596.26 739.53 595.84 740.27 595.29 740.39 596.09 742.06 595.68 742.81 593.94 742.67 593.57 743.04 592.95 742.96 590.94 743.31 590.12 744.25 588.98 744.88 588.76 744.28 588.95 743.69 588.73 742.85 588.28 742.45 587.46 742.34 585.17 742.39 584.55 742.88 583.96 744.2 586.74 744.86 586.48 745.27 583.68 744.68 582.91 744.95 582.32 744.49 581.35 744.34 580.27 744.75 579.29 745.84 579.62 747.48 578.71 748.35 578.92 749.31 577.47 750.03 577.41 750.96 577.83 751.46 575.49 751.72 574.96 752.02 575.11 752.9 575.5 753.45 576.69 754.06 577.39 753.9 578.38 752.11 578.98 751.99 577.95 753.93 578.23 755.21 576.77 756.81 576.67 757.45 576.05 758.35 576.26 759.2 577.05 759.89 577.02 760.88 576.48 760.88 574.85 762.05 573.66 761.73 573.65 761.19 572.69 760.39 570.86 760.24 570.33 760.6 570.22 762.24 569.62 763.13 568.94 764.77 569.55 765.3 569.29 765.78 569.68 766.46 568.89 767.09 568.62 767.76 567.79 768.84 567.99 770.14 567.28 771 567.52 771.34 565.83 773.52 565.79 774.71 565.02 775.72 565.12 777.1 565 778.22 564.09 778.82 563.16 778.99 561.62 778.48 560.19 779.2 559.46 780.46 558.58 781.22 557.58 781.7 555.77 782 555.56 781.21 556.6 781.01 557.3 781.13 558.2 780.68 559.06 779.95 559.59 778.76 557.47 777.69 557.18 776.56 555.49 776.64 554.28 776.85 552.39 777.7 552.07 778.5 550.93 777.97 550.21 775.75 548.51 773.79 547.6 771.18 547.93 769.81 548.49 768.6 549.91 767.18 549.42 766.67 548.32 766.08 546.85 765.04 546.22 765 544.45 766.48 543.84 766.62 542.43 766.01 541.33 766.12 540.34 765.87 537.44 765.77 536.56 765.23 535.72 764.37 534.71 763.87 534.33 762.93 531.41 763.49 530.73 765.24 529.22 762.91 529.04 761.48 527.18 760.47 526.01 758.1 525.18 758.56 523.17 759.31 521.34 760.46 520.25 760.71 517.6 759.66 515.52 759.15 514.94 758.66 514.06 758.75 512.47 757.87 511.85 757.33 510.66 756.67 511.64 755.38 512.28 753.55 512.48 753.54 514.51 751.57 515.21 749.12 516.63 748.47 517.3 747.17 517.11 745.76 517.28 745.36 517.15 744.27 516.64 742.71 516.32 742.2 517.26 740.7 517.88 738.7 518.79 737.91 518.29 737.1 517.52 735.13 517.74 734.75 517.14 733.3 515.94 732.12 515.16 731.6 514.06 730.44 513.29 729.28 512.4 728.55 511.37 727.19 511.65 725.67 512 724.57 511.93 721.51 512.38 718.12 513.41 715.87 513.59 713.99 513.47 711.79 514.94 711.87 515.38 710.71 515.19 709.39 511.58 708.61 509.15 707.57 508.05 705.07 507.31 704.03 505.96 700.12 505.53 697.29 504.68 695.77 501.89 692.39 501.76 692.04 499.66 690.63 498.85 689.61 497.15 685.87 495.21 684.53 493.56 682.74 492.73 681.22 489.92 680.31 490.06 679.24 489.77 678.24 488.2 675.54 487.59 674.05 486.75 672.9 486.4 670.66 486.06 669.95 486.13 668.7 485.73 667.68 485.62 666.44 484.18 666.98 482.14 669.49 481.28 669.55 480.39 670.64 479.5 670.56 476.2 671.79 475.79 671.82 474.3 672.53 473.5 672.71 472.67 672.51 471.19 671.59 469.97 671.19 468.39 670.16 468.13 669.72 465.14 667.51 461.45 666.55 460.92 667.78 461.82 669.56 461.95 671.78 461.75 672.23 460.32 673.9 458.64 674.97 456.1 675.74 455.44 675.84 454.09 674.49 453.22 673.99 452.21 673.69 450.76 674.19 447.57 674.82 446.84 673.07 445.86 671.46 444.68 673 442.23 673.82 439.51 674.59 438.58 675.76 438.1 678.27 437.03 681.2 433.68 680.72 432.21 680.35 431.07 679.75 428.54 679.64 427.01 680.55 424.93 681.06 423.12 680.81 419.84 681.27 418.05 682.23 415.11 682.56 412.84 683.66 409.71 684.4 406.39 683.7 403.49 681.65 402.64 681.9 398.31 681.04 393.12 678.07 392.37 677.85 391.42 676.37 390.03 675.38 387.65 674.21 387.12 673.11 386.41 672.5 385.24 670.4 384.8 669.82 383.44 668.56 381.13 667.53 382.08 666.18 382.15 661.87 382.38 660.8 383.59 657.9 391.55 651.42 391.65 648.85 393.19 644.15 397.66 643.14 397.96 641.4 401.01 638.72 403.23 635.64 403.18 634.08 409.03 628.84 409.3 627.42 408.93 624.22 407.68 619.83 402.11 616.99 400.63 614.93 399.91 612.82 399.21 611.1 398.8 608.45 397.99 607.39 396.4 605.79 396.44 605.13 394.44 603.82 393.33 603.91 391.83 603.25 389.08 603.42 388.38 603.1 386.93 602.97 385.96 602.29 385.92 601.33 383.09 601.56 381.21 600.54 380.88 599.56 381.18 598.21 379.32 597.33 377.88 595.46 378.35 594.54 378.88 594.32 378.46 593.3 378.61 590.8 378.97 587.65 379.16 586.73 377.26 582.97 378.52 582.47 380.7 579.67 380.37 578.66 377.9 575.32 377.7 574.74 376.9 574.47 376.85 573.73 376.09 572.81 376.05 572.25 374.49 570.97 374.55 570.35 373.82 569.87 373.81 569.38 372.67 568.89 372.11 568.41 371.93 567.77 372.71 567.31 372.07 566.35 369.23 568.21 368.92 568.67 366.27 569.26 366.28 569.77 365.11 570.27 363.49 571.62 362.22 572.92 361.75 574.11 360.56 574.53 360.1 573.92 359.49 574.09 358.63 574.84 357.44 574.68 356.33 574.76 355.1 573.92 353.69 574.11 352.79 574.58 351.93 575.53 350.74 576.22 349.37 576.63 349.34 576.89 347.26 577.87 345.07 577.95 344.44 578.52 343.19 579.16 342.16 580.16 342.31 581 341.67 580.92 340.66 579.14 340.7 578.23 340.23 577.33 339.48 577.5 337.67 578.34 336.52 578.56 335.57 578.04 335.25 577.63 334.34 578.01 333.13 577.67 330.29 578.13 329.58 578.43 328.49 580.29 326.83 580.64 325.46 581.45 324.74 581.46 323.96 580.8 321.54 580.89 320.9 579.18 320.74 577.95 317.91 576.27 315.42 575.34 313.57 575.11 311.33 573.02 309.71 572.46 307.42 569.99 305.93 568.63 304.13 567.87 301.4 565.37 300.28 564.08 299.05 562.05 296.89 560.8 295.39 559.76 293.78 558.92 292.07 557.68 289.85 558.06 288.48 557.54 286.38 555.36 284.47 554.85 282.16 552.14 280.02 551.03 278.57 549.28 276.89 544.97 275.98 542.23 273.35 541.02 272 539.58 267.29 535.7 266.58 534.52 264.76 534.05 264.03 530.47 260.18 526.86 256.59 523.67 249.02 520.33 247.01 516.3 247.84 514.22 248.73 512.31 247.93 507.13 243.91 503.55 241.75 499.57 241.95 498.08 241 497.27 241.47 496.04 241.21 495.63 239.04 494.24 238.62 494.37 235.4 492.84 234.11 492.11 232.59 491.5 231.47 490.71 230.82 489.97 228.66 488.91 227.84 487.33 226.47 485.84 227.09 484.62 226.93 483.46 225.84 481.53 225.74 480.22 227.34 478.27 227.82 477.28 227.76 476.51 227.94 474.85 227.25 474.19 227 472.3 226.48 472.25 225.6 471.7 224.75 470.84 223.63 469.23 223.27 466.76 222.71 465.65 222.61 464.6 223.32 462.42 222.7 460.6 223.28 458.01 221.68 457.49 220.6 456.73 220.87 455.42 218.79 453.85 217.56 453.66 216.49 453.12 215.87 453.2 214.39 453.96 213.06 455.28 211.57 455.59 209.49 454.74 207.63 453.21 207.06 452.38 205.69 452.64 203.99 452.51 203.6 453.44 203.13 453.96 201.91 453.2 200.3 452.7 198.67 452.45 197.88 452.58 196.78 452.14 194.81 450.55 194.35 449.97 191.61 447.6 189.82 445.06 188.7 444.66 186.41 444.51 185 444.3 182.33 443.58 180.17 443.63 179.23 443.36 176.78 442.32 175.14 442 174.62 441.37 172.67 440.03 169.72 439.35 168.77 439.25 167.54 438.62 166.07 438.38 163.66 437.2 162.42 436.71 161 435.94 158.84 434.2 157.11 433.4 155.63 432.34 154.1 431.46 149.56 430.82 144.63 427.55 140.17 424.74 136.46 422.8 134.81 421.57 133.53 416.41 133.88 414.38 132.22 412.41 132.03 410.93 133.8 407.92 134.14 405.59 133.55 401.85 135.43 399.15 136.99 398.79 140.66 396.33 140.93 389.2 139.24 386.13 135.58 387.73 133.18 388.98 129.09 390.2 127.05 391.71 126.12 391.97 123.15 392.04 120.25 393.11 118.99 392.79 117.48 393.86 112.6 396.04 108.28 397.19 104.01 398.84 103.06 399.65 101.65 399.97 97.72 398.94 93.3 397.3 88.19 400.03 86.24 400.74 82.07 403.45 80.17 403.19 79.22 403.24 77.87 404.21 76.95 404.3 75.15 403.32 74.13 403.87 73.55 404.57 72.67 404.7 70.15 405.66 68.05 405.73 66.78 405.58 65.8 404.94 64.86 404.02 63.76 404.1 63.61 402.31 63.7 401.02 64.02 399.11 64.41 398.01 64.67 396.01 64.42 395.5 62.59 394.75 61.23 394 57.59 394.3 55.84 393.97 51.94 394.58 45.35 396.3 41.5 396.95 40.18 396.37 40.12 393.71 40.22 391.8 41.55 389.98 42.65 388.13 42.49 386.2 42.1 384.07 42.06 382.21 42.85 380.32 45.37 377.39 46.65 375.59 46.19 374.51 46.8 372.69 46.2 371.16 45.74 369.3 44.07 368.38 42.99 366.74 42.79 364.77 43.41 362.9 39.18 361.43 38.48 358.85 38.47 358.48 36.64 358.23 35.7 358.29 34.6 356.61 33.45 355.17 32.42 353.32 30.76 350 27.68 351.83 24.58 354.21 22.77 355.93 17.32 360.64 16.42 359.35 15.21 356.2 14.64 355.56 13.72 354.14 10.8 350.48 9.41 349.18 9.23 348.66 7.79 347.24 5.06 343.17 3.96 341.69 2.48 341.01 3.03 339.61 2.77 337.99 1.81 335.79 1 333.35 2.08 333.45 8.12 330.03 10.28 328.29 11.75 326.89 14.45 326.87 16.24 326.13 17.81 325.97 20.22 323.47 23.18 324.38 26.42 322.73 28.73 321.16 30.12 320.78 30.61 321.31 31.97 320.27 36.34 318.66 37.81 319.32 39.26 318.26 40.58 317.5 42.7 313.81 43.97 312.33 46.45 309.97 49.01 308.01 50.6 305.84 53.14 300.8 54.28 299.19 55.6 297.62 57.56 296.53 59.7 292.7 61.74 292.41 63.12 291.2 63.61 291.14 66.6 287.59 67.88 287.03 70.2 287.77 74.73 286.34 77.31 285.15 77.78 284.26 77.14 282.7 77.5 280.36 77.25 279.31 78.02 277.53 79.01 276.78 79.74 275.57 81.49 274.02 82.16 273.01 83.26 270.26 83.24 267.96 82.66 263.88 82.94 260.92 83.48 260.41 84.96 255.66 85.93 253.04 85.35 249.85 83.28 248.1 82.61 247.08 82.98 244.88 83.89 234.57 83.64 232.99 82.74 229.95 82.78 226.28 81.84 224.74 78.39 222.81 76.86 222.13 75.41 221.99 72.4 220.84 66.94 222.84 64.11 221.85 61.02 221.87 59.18 221.81 58.23 221.32 55.79 216.79 54.59 215.72 52.34 214.93 49.68 213.43 51.45 210.52 52.59 209.5 54.93 206.98 55.75 206.36 59.51 203.15 60.66 202.03 61.63 201.68 65.41 199.97 68.78 198.13 72.05 196.09 74.04 194.31 74.96 192.12 77.18 185.56 78.11 183.67 78.48 183.43 79.33 183.57 82.58 182.95 84.69 181.29 87.66 180.64 88.09 181.14 90.66 183.36 91.54 184.03 93.94 185.25 94.88 185.52 97.49 185.99 98.5 186.88 102.2 189.02 103.64 188.7 104.58 188.09 105.13 185.82 106.1 183.28 107.06 182.44 109.48 180.56 110.23 179.84 110.37 178.43 111.68 175.01 112.85 174.08 113.08 173.24 113.75 172.02 114.54 171.01 114.75 169.68 115.29 168.88 116.29 165.98 116.48 164.01 117.17 160.38 117.82 158.23 118.42 156.7 118.63 154.74 119.44 153.22 119.91 151.96 122.51 152.57 123.83 152.96 125.19 153.02 125.91 153.89 128.29 154.67 129.48 154.25 129.94 154.28 131.01 155 132.78 155.7 137.44 156.08 140.76 157.39 143.9 158.53 146.61 159.1 147.75 159.51 148.9 160.76 150.54 161.02 152.88 160.74 156.36 161.32 158.39 162.31 161.12 164.59 166.68 171.14 172.12 167.43 175.15 165.21 175.89 161.4 175.44 158.1 174.68 155.9 173.14 153.63 170.21 152.16 167.25 150.17 165.84 148.4 160.59 140.95 158.79 138.13 157.52 135.07 153.83 135.29 153.52 134.83 152.75 130.68 152.9 129.61 152.39 128.52 154.22 125 154.06 122.18 153.65 119.75 153.63 118.36 154.95 114.46 151.8 109.97 153.25 106.28 154.69 105.13 158.14 101.57 161.05 97.81 159.86 97.4 157.24 95.4 156.04 92.75 155.67 89.87 155.75 88.02 158.92 84.02 160.19 82.15 162.41 78.61 162.15 77.16 162.91 75.47 164.33 74.77 164.75 72.49 165.44 71.8 165.58 70.56 166.37 69.09 167.18 66.82 167 66.6 168.85 64.57 170.3 64.13 171.29 63.55 171.63 62.35 172.3 60.82 172 60.08 173.37 59.33 173.67 59.34 175.3 58.56 176.44 57.28 179.25 56.87 180.74 56.3 183.3 54.44 185.6 51.76 187.39 50.45 187.91 47.06 193.39 46.35 195.04 45.39 196.61 44.21 203.29 42.65 206.3 39.94 208.63 39.21 211.55 39.12 214.22 39.14 215.76 38.98 217.61 38.46 220.17 36.98 221.32 37.54 223.97 34.96 225.9 35.11 228.74 34.67 231.11 37.08 231.73 38.2 235.15 37.46 237.77 36.05 239.95 35.96 242.51 34.78 243.03 31.83 244.04 30.28 244.2 28.55 244.53 27.81 244.73 26.47 245.52 25.63 245.51 24.2 246.88 23.16 247.36 23.08 249.83 24.41 249.96 24.7 251.45 25.18 251.93 25.85 252.68 26.03 253.74 25.62 255.57 25.76 258.3 26.28 258.43 26.82 260.25 26.32 262.63 25.23 261.03 23.75 262.18 20.05 263.75 18.43 264.31 16.83 266.82 14.47 263.51 9.67 264.86 7.48 267.4 6.51 268.21 5.87 269.09 4.3 268.96 3.3 269.47 2.79 270.65 2.28 274.65 1.24 277.23 1 278.25 1.44 278.99 1.47 281.48 3.77 282.87 3.75 283.64 4.31 285.84 5.46 287.54 6.07 288.25 6.62 289.45 6.4 290.15 6.57 290.74 7.69 291.47 8.58 293.85 10.86 294.84 11.62 296.07 14.3 296.81 15.01 298.23 15.67 299.21 18.49 300.13 19.24 300.6 20.54 303.11 19.86 306.72 20.37 307.96 19.86 308.67 20.08 309.5 19.97 311.12 18.89 313.19 18.81 314.97 19.95 317.99 20.48 319.43 21.85 320.15 22 321.08 21.61 321.9 20.24 323.83 19.87 324.58 18.49 325.39 18.13 326.65 18.29 327.63 17.46 327.85 16.9 329.78 15.13 330.3 13.49 330.39 12.15 330.28 10.9 332.54 8.74 333.69 6.55 334.05 4.79 333.92 2.51 334.11 1.99 334.82 2.21 337.14 3.61 337.81 3.78 340.99 5.73 342.21 6.78 342.67 8.07 342.96 10.26 345.98 10.74 351.88 11.83 352.84 12.23 354.12 13.49 353.82 14.3 354.05 15.08 354.45 15.29 356.44 15.45 358.32 16.23 360.11 16.65 360.9 17.25 361.69 19.9 364.53 17.69 365.68 17.14 366.04 16.75 366.28 15.75 366.12 13.92 366.36 12.85 367.32 10.97 368.13 10.28 370.17 9.22 372.85 6.63 373.3 6.3 375.09 5.74 375.94 5.75 378.92 6.36 378.48 7.18 379.95 8.21 379.58 9.13 379.51 10.58 379.72 11.16 381.11 11.53 383.27 12.66 383.11 13.57 387.09 17.06 388.36 17.03 389.94 18.18 390.28 18.24 391.7 19.99 393.93 21.71 395.49 20.65 396.07 20.6 397.28 19.85 397.91 20.16 399.87 22.1 400.24 23.9 402.17 26.02 404.38 28.64 407.81 30.4 409.34 29.25 410.8 29.03 413.35 29.92 414.63 30.13 414.95 29.98 416.39 30.59 417.94 32.12 418.4 32.15 418.69 33.17 419.63 35.06 419.69 36.1 419.28 36.86 419.74 38.89 420.22 39.56 421.47 39.69 426.84 39.04 427.37 39.39 429.02 39.01 432.12 39.3 433.42 40.71 436.37 41.7 440.4 42.93 441.2 43.3 442.83 42.59 444.99 43.2 445.86 43.13 447.71 42.7 451.06 43.11 457.3 45 459.66 48.88 461.08 50.01 462.17 52.46 462.79 56.25 465.77 59.29 466.55 62.49 466.92 62.91 467.02 63.78 466.82 65.9 466.21 68.38 465.92 70.56 466.6 74.1 466.11 75.32 463.63 77.54 462.22 78.62 461 79.82 461.11 81.53 462.65 85.06 462.55 85.83 465.05 87.74 464.74 91.87 464.03 95.02 463.38 98.44 463.24 101.25 462.3 103.61 461.84 104.18 460.28 105.61 458.24 108.03 458.09 109.35 456.54 112.49 455.46 113.08 455.88 115.91 456.03 118.35 456.69 122.32 456.96 124.86 460.65 127.81 461.41 130.84 463.63 133.52 464.12 134.22 464.29 135.75 465.22 136.21 473.4 138.09 474.69 139.51 475.49 139.89 477.45 140.24 479.32 141.99 480.48 142.92 482.97 141.65 486 139.84 488.75 138.75 490.8 139.16 491.1 139.79 492.29 140.4 493.38 141.3 493.98 142.48 495.16 143.27 497.3 144.3 498.12 144.42 499.71 142.3 501.68 141.13 503.11 142.84 505.79 143.43 505.95 143.82 508.11 145.3 508.68 145.91 509.86 146.21 510.76 146.82 511.72 147.06 512.69 148.15 513.6 148.52 513.59 149.49 513.92 150.47 513.54 151.6 514.51 151.71 515.97 153.76 516.6 154.2 518.33 154.11 520.56 154.9 521.44 155.81 522.52 156.06 523.4 156.84 523.94 156.92 Z" fill-rule="evenodd" id="26510000"/>
</g>
</svg>