<?xml version="1.0"?>
<svg xmlns="http://www.w3.org/2000/svg" version="1.2" baseProfile="tiny" width="800" height="528" viewBox="0 0 800 528" stroke-linecap="round" stroke-linejoin="round">
<g id="sigung">
<path d="M 758.49 475.72 751.55 473.41 742.49 471.86 724.6 475.42 714.58 478.53 698.07 478.93 691.94 476.83 669.39 474.74 657.49 472.86 640.85 470.97 627.88 467.76 622.05 469.81 617.05 470.31 595.98 474.99 580.6 476.76 560.48 475.01 553.39 473.72 538.67 472.8 532.61 471.44 515.94 470.69 498.18 468.35 487.56 465.05 476.17 459.96 454.68 455.37 436.65 448.39 426.61 449.25 421.13 451.06 416.09 454.57 406.08 463.73 404.89 468.43 405.2 480.99 405.89 490.23 407.1 498.28 407.55 506.06 404.15 510.83 395.66 517.57 391.41 519.46 378.92 522.76 358.07 526.7 349.87 527 341.02 524.64 335.44 520.3 330.51 517.62 326.25 518.27 322.97 517.46 315.59 513.57 304.96 503.06 300.78 498.01 298.7 492.92 295.46 487.69 288.81 481.81 282.19 478.04 264.25 472.88 255.86 469.08 246.15 463.18 235.25 455.62 226.68 450.66 220.41 448.62 205.77 446.24 195.05 445.39 183.23 442.45 179.09 443.08 166.74 449.23 151.91 449.89 148.2 448.58 135.63 442.2 127.94 436.89 116.78 425.43 110.34 417.45 107.91 412.7 96.42 400.89 90.95 390.36 87.03 385.07 82.8 380.74 77.91 377.13 69.69 375.08 56.42 374.37 55.41 363.95 52.84 358.96 52.59 353.06 48.93 345.82 50.29 339.1 49.97 334.61 47.31 328.93 40.55 324.85 39.08 321.44 42.75 304.2 42.44 300.99 45.81 296.5 50.43 292.88 50.65 289.75 45.96 284.09 47.15 277.91 46.44 273.27 43.49 268.29 45.15 255.63 50.82 251.38 60.34 252.06 60.08 247.88 57.56 241.18 53.03 231.4 55.28 226.51 55.73 219.85 52.95 217.65 51.91 213.2 45.57 209.99 36.59 211.43 31.85 203.42 30.23 198.73 25.21 196.53 23.46 190.42 22.64 184.43 20.17 179.31 22.48 168.36 24.97 163.84 21.62 156.87 19.59 146.52 11.11 139.49 12.05 135.54 14.83 131.98 13.27 119.79 5.98 117.41 1.08 109.41 1 101.89 1.88 100.15 7.43 101.16 14.85 105.4 20.58 107.14 26.69 103.27 29.42 106.58 33.34 105.54 35.94 107.12 40.33 112.26 45.51 115.32 48.54 119.9 55.13 125.2 59.12 125.61 65.39 127.8 73.49 129.75 77.69 133.63 83.56 135.44 90.41 134.49 96.67 137.21 98.38 141.81 100.82 143.87 103.69 142.28 109.44 145.87 111.54 136.78 115.21 132.89 118.17 127.59 119.66 126.79 131.15 126.96 139.18 124.7 142.75 124.4 152.08 127.49 164.09 134.44 172.98 137.3 183.48 138.07 193.69 140 198.09 141.37 204.53 141.9 216.74 145.57 224.07 146.82 227.46 148.86 236.58 152.48 240.87 153.3 241.17 156.1 232.34 153.07 230.86 155.21 226.89 173.27 223.68 182.92 226.19 183.64 236.18 189.51 236.87 193.88 244.4 198.86 246.74 206.22 250.72 206.51 253.88 209.26 262.42 212.23 271.07 212.73 275.21 209.77 281.97 211.82 287.9 212.06 296.1 207.74 302.76 205.35 307.67 209.75 311.5 212.13 317.05 218.59 320.1 220.82 329.62 224.78 325.26 207.3 325.29 200.63 326.99 198.86 324.12 194.38 321.9 186.76 316.24 181.74 312.45 171.22 315.46 162.36 316.34 156.04 322.24 148.56 325.2 138.97 323.22 136.37 322.08 130.57 317.85 125.05 314.96 118.97 309.12 114.27 306.17 109.78 303.56 101.52 303.54 91.78 302.22 88.85 301.44 76.44 299.74 73.9 295.26 73.84 296.63 68.59 296.67 64.62 304.83 69.8 314.35 69.93 318.25 71.99 325.83 73.41 333.48 70.58 337.05 64.62 342.01 59.07 344.54 58.62 353.82 53.37 362.23 54.08 364.92 52.94 378.12 53 388.98 55 393.69 53.62 400.97 54.81 401.96 61.85 406.92 66.1 412.15 67.56 414.89 71.27 410.92 75.57 411.27 78.67 415.02 83.31 418.41 90.61 423.22 92.76 429.75 101.52 441.45 99.33 447.48 101.61 454.38 98.52 458.38 95.37 461.76 90.97 464.98 84.95 471.79 77.86 479.18 71.88 487.28 64.39 502.69 54.36 507.24 49.84 511.13 50.24 519.43 53.16 524.75 53.24 536.48 47.24 543.82 37.86 546.15 30.14 545.89 16.83 549.35 11.2 558.11 6.82 562.92 6.62 566.9 8.25 572.79 12.91 579.12 15.22 582.26 14.44 590.74 10.61 600.62 4.96 606.26 2.71 613.33 1 616.49 1.42 618.89 4.31 620.6 12.59 616.26 23.05 614.43 24.98 612.87 30.14 615.37 35.19 626.43 44.45 631 47.6 640.44 51.37 645.06 50.83 650.57 48.91 658.59 42.48 670.96 34.86 678.92 31.2 693.33 27.77 701.46 26.58 719.61 27.04 729.01 27.69 737.1 31.77 750.47 34.48 751.74 54.36 747.82 56.85 750.35 59.18 750.44 61.77 753.18 66.71 753.43 71.72 752.38 76.45 753.51 79.04 753.13 96.92 750.06 97.01 750.68 127.69 753.03 138.03 754.08 154.97 757.38 170.91 760.28 180 765.91 188.41 769.28 195.82 776.06 208.19 779.13 212.65 784.26 229.65 785.72 242.1 785.79 259.93 784.7 265.71 784.17 290.47 784.59 294.55 787.54 305.65 793.26 317.6 799 346.27 798.56 353.23 795.93 369.2 788.29 375.22 772.51 382.77 767.91 387.25 765.84 392.14 767.09 393.91 768.76 402.84 773.37 413.55 775.41 420.23 776.77 430.03 774.44 437.52 769.07 447.89 771.7 449.58 780.57 463.35 780.36 466.39 786.9 476.5 787.58 481.09 780.55 477.79 773.05 472.76 767.81 471.82 766.55 473.44 762.28 470.8 759.07 470.2 758.49 475.72 Z" id="26010000"/>
</g>
</svg>