<?xml version="1.0"?>
<svg xmlns="http://www.w3.org/2000/svg" version="1.2" baseProfile="tiny" width="800" height="651" viewBox="0 0 800 651" stroke-linecap="round" stroke-linejoin="round">
<g id="sigung">
<path d="M 766.81 587.9 765.39 589.04 760.87 597.32 747.52 619.46 740.44 650 739.68 648 745.73 621.74 745.95 619.4 764.95 587.9 765.19 588.05 797.08 544.29 799 543.87 790.36 555.45 787.11 560.28 781.39 567.67 776.53 574.73 772.44 579.93 766.81 587.9 Z M 567.45 38.9 576.56 43.61 584.34 48.59 598.91 53.65 608.62 56.18 614.44 58.65 619.36 60.13 645.09 69.84 652.03 76.27 661.85 79.34 662.48 81.83 665.52 85.77 668.29 90.22 671.95 94.26 675.83 97.62 683.25 101.26 690.15 102.38 693.42 102 703.53 96.27 710.64 102.65 714.45 105.56 720.89 165.06 727.58 172.44 744.48 183.73 743.81 183.94 727.37 172.78 722.79 167.7 710.57 162.63 710.22 163.5 715.78 166.23 727.02 176.64 726.16 177.59 714.96 167.28 707.24 164.12 695.18 195.72 713.42 202.68 709.87 220.61 711.48 221.2 709.3 233.1 764.35 238.89 764.5 239.13 766.86 280.21 770.95 294.14 775.37 293.16 776.4 297.6 771.93 298.7 775.68 314.85 781 314.49 781.03 316.59 774.52 320.99 774.69 329.36 784.79 329.14 784.82 329.73 774.95 329.93 772.59 331.18 771.5 334.06 765.42 336.22 763.1 336.01 759.47 334.73 739.05 325.95 737.96 323.35 726.62 326.62 720.25 331.07 713.06 332.69 707.68 332.78 699.23 337.15 693.1 337.63 686.7 335.98 676.55 328.9 673.8 327.83 671 325.32 671.58 319.4 669.77 318.79 668.04 320.42 660.78 312.91 654.56 311.27 654.08 310.61 649.97 317.26 654.5 320.56 655.94 322.81 662.88 335.8 660.05 335.27 660.48 337.22 673.97 356.27 674.33 356.44 682.29 352.68 683.58 353.54 688.12 353.21 690.83 354.01 693 355.95 691.88 359.91 697.63 359.28 698.73 357.13 701.67 358 703.66 357.82 703.39 354.56 707.4 349.11 710.79 351.52 711.96 351.3 713.21 347.85 715.09 345.29 714.26 342.62 716.31 342.03 719.95 342.44 728.84 342.45 733.77 342.83 741.63 356.72 746.4 362.42 748.89 363.31 742.86 356.09 743.48 355.47 750.23 363.59 748.54 364.68 755.13 373.94 756.27 376.34 769.17 374.86 770.5 374.94 772.68 376.91 775.65 378.02 778.6 379.88 780.49 382.32 769.13 375.43 756.58 376.83 761.92 385.23 766.58 388.4 790.77 403.57 792.11 411.42 790.58 411.42 790.53 405.92 790 404.05 764.15 387.65 762.72 386.54 774.19 404.19 773.58 405.37 780.57 413.14 783.31 414.81 784.36 414.5 786.04 416.93 785.54 418.27 794.73 428.19 795.53 431.76 794.4 434.29 794.62 445.59 796.34 446.66 796.45 450.55 794.82 453.58 794.9 467.48 796.84 470.85 795.41 473.12 793.48 473.18 792.8 443.92 792.5 427.26 784.66 418.73 782.6 421.1 768.58 435.7 767.98 435.23 764.47 439.01 765.51 441.76 770.19 446.24 774.43 441.74 775.35 442.6 770.71 447.44 769.04 448.01 769.17 453.14 770.05 455.27 762.79 460.16 762.35 462.74 760.76 464.91 760.95 477.45 761.57 478.13 768.07 477.99 769.27 479.27 761.54 479.54 761.6 481.51 768.76 481.36 768.84 485.83 774.17 485.73 780.98 478.64 781.49 479.13 774.48 486.42 761.76 486.68 762.06 491.16 764.21 493.35 762.82 494.41 760.85 493.04 756.2 501.06 756.3 501.72 764.6 504.8 764.19 505.71 755.84 502.46 754.45 503.74 746.24 518.1 744.56 519.57 742.28 519.5 733.95 514.12 729.92 516.06 728.97 518.47 722.84 523.23 720.5 523.94 717.73 525.97 719.22 528.19 716.25 530.46 714.67 529.03 712.47 532.73 716.83 534.32 732.13 520.78 736.09 523.49 745.2 528.8 758.52 539.5 730.66 585.72 717.29 580.37 710.22 577.83 697.76 608.99 694.81 607.8 692.63 613.36 687.71 624.37 687.2 627.06 688.04 628.96 707.79 646.74 706.25 646.35 686.85 628.88 686.43 628.63 659.07 617.76 625.96 604.39 613.41 599.46 612.48 601.05 612.35 591.08 612.64 586.22 609.96 585.03 610.04 589.25 605.46 589.4 602.42 580.88 605.58 577.11 602.31 570.05 604.06 567.18 598.79 556.64 596.02 553.09 592.59 550.08 590.82 545.8 591.8 543.29 584.42 537.22 579.48 536.59 574.8 534.35 571.43 531.49 565.78 527.56 546.62 509.81 544.64 507.85 544.17 505.33 544.66 499.89 540.83 498.85 536.04 500.35 535.77 497.07 536.28 492.87 535.64 487.57 536.27 482.58 535.94 479.87 533.02 474.67 532.94 472.57 531.72 469.59 527.52 463.7 524.58 458.96 520.96 456.65 520.02 454.64 516.25 452.54 509.66 447.73 507.1 447.21 505.1 444.5 499.55 445.24 496.99 444.08 496.11 441.2 497.49 439.64 496.87 437.85 490.44 437.99 487.39 438.05 485.34 434.01 481.63 436.05 479.18 432.71 480.55 430.96 470.43 418.36 468.69 418.44 468.36 415.68 464.34 415.83 459.12 420.18 449.4 428.72 441.82 428.96 441.74 427.98 438.09 427.3 433.71 427.52 433.59 424.65 431.7 421.54 429 411.45 427.42 408.36 426.37 404.83 402.33 405.23 402.12 401.22 400.14 400.63 397.76 398.5 393.19 397.12 384.33 396.67 382.08 391.26 380.1 390.35 376.46 385.61 370.91 373.36 369.92 369.86 367.36 368.53 365.95 370.5 363.15 366.35 361.37 365.83 359.22 369.4 356.73 377.37 351.8 380.72 347.32 382.56 345.2 384.14 342.84 384.26 340.73 381.16 334.84 382.09 333.19 376.53 332.79 373.61 329.57 370.65 325.14 371.47 323.43 369.98 322.23 365.21 322.25 363.21 315.71 359.49 315.01 355.93 314.14 348.26 311.59 343.49 309.15 343.19 303.23 336.49 300.3 337.02 297.28 334.9 295.63 331 294.52 323 292.61 319.92 287.24 317.16 287.72 315.82 287.65 308.12 285.59 307.98 280.6 309.3 280.51 306.33 282.18 301.34 281.18 298.25 276.24 299.94 272.22 296.25 273.11 293.04 271.53 290.47 269.67 283.25 270.57 279.43 268.62 276.03 268.37 272.33 268.93 270.7 267.61 266.4 267.52 259.73 263.54 258.5 259.95 253.76 257.34 252.62 251.05 252.1 248.07 253.36 245.49 251.15 243.03 246.79 241.41 246.73 236.32 248.59 231.94 246.27 230.63 242.93 226.86 236.33 227.66 234.51 234.71 232.42 229.85 228.1 227.96 225.02 220.79 219.65 217.78 219.38 213 217.26 208.57 218.13 206.37 215.43 203.87 213.63 201.25 208.93 197.26 207.1 193.99 206.63 193.25 205.3 194.74 202.27 191.02 197 189.44 190.97 191.39 186.49 197.25 177.64 194.28 172.63 189.46 176.06 186.22 170.96 184.37 168.86 178.91 173.34 175.05 174.47 172.15 173.92 167.23 170.18 163.06 166.42 158.04 164.24 151.35 167.15 149.63 169.61 147.01 166.52 143.55 163.62 141.35 163.94 139.49 165.91 134.47 166.3 132.22 174.61 124.97 172.77 126.1 171.17 124.01 165.84 120.83 164.42 115.83 167.29 112.22 162.46 108.83 159.78 110.79 153.39 108.82 149.66 106.57 142.54 102.73 142.25 98.12 139.93 93.28 139.03 95.82 146.12 92.24 151.01 89.68 153.08 84.94 149.21 81.44 147.38 71.35 151.18 69.2 150.38 66.3 151.04 63.84 149.63 61.31 150.51 58.71 149.93 55.65 146.12 53.02 141.7 47.13 133.09 39.68 135.94 35.8 137.87 31.92 137.02 26.67 134.55 17.48 135.95 9.67 133.61 4.89 134.11 1 133.62 6.63 120.65 12.05 110.32 19.86 110.79 28.25 108.8 31.98 101.16 34.38 100.04 37.93 94.99 38.89 91.5 43.6 89.93 47.45 87.34 65.77 78.95 65 74.28 62.2 71.13 62.45 69.34 66.4 65.31 73.92 60.77 79.35 55.04 79.14 49.32 83.97 43.8 84.36 42.42 83.65 35.61 86.67 31.14 87.13 28.84 89.59 25.09 94.3 21.11 97.12 18.1 101.12 20.32 107.83 24.83 119.72 33.8 124.55 32.98 121.71 30.09 127.25 18.82 126.48 16.68 131.76 5.9 133.04 3.91 139.67 7.93 143.56 1.5 146.25 1 150.43 6.19 157.68 13.64 162.68 17.1 170.85 21.25 173.26 22.1 182.9 21.67 190.92 17.67 193.61 17.26 201.29 19.17 208.26 19.73 217.77 21.27 221.84 22.6 227.42 25.83 234.5 30.74 240.81 34.58 246.26 37.06 257.92 40.41 262.22 42.86 266.54 46.69 268.65 50.09 270 53.4 272.72 56.68 279.62 63.52 284.42 66.05 286.55 66.57 289.32 66.15 292.52 67.9 296.15 70.72 301.9 72.25 307.23 72.06 320.78 69.5 328.9 67.35 331.66 66.12 337.18 61.74 339.39 58.63 339.1 53.57 338.31 48.34 337.86 42.33 337.66 34.16 338.43 31.1 344.94 25.14 348.21 22.86 351.77 21.69 358.3 21.13 370.01 25.67 383.98 28.65 391.38 31.96 398.28 34.11 409.83 35.63 420.66 36.11 424.6 37 434.16 37.6 438.77 38.44 451.84 39.58 461.84 38.43 475.53 35.38 478.78 35.05 482.57 33.72 491 35.81 501.81 37.04 509.55 38.27 524.2 39.62 528.18 40.99 538.91 40.73 545.43 38.71 557.05 36.39 562.94 37.4 567.45 38.9 Z" fill-rule="evenodd" id="26020000"/>
</g>
</svg>