<?xml version="1.0"?>
<svg xmlns="http://www.w3.org/2000/svg" version="1.2" baseProfile="tiny" width="800" height="1567" viewBox="0 0 800 1567" stroke-linecap="round" stroke-linejoin="round">
<g id="sigung">
<path d="M 799 396.63 790.8 415.45 789.53 431.43 796.43 452.08 796 459.12 792.69 467.11 794.98 478.33 793.41 481.5 780.34 485.27 778.99 503.03 782.01 519.73 776.26 524.34 776.94 542.22 781.3 551.86 783.94 561.85 790.29 567.38 788.47 578.22 794.77 595.28 772.95 614.01 768.17 617.08 752.92 616.12 747.11 625.36 737.32 623.65 726.52 616.56 717.56 620.34 701.13 623.24 690.67 629.54 685.44 639.06 684.03 649.46 664.57 648.44 659.79 653.97 642.97 651.03 616.87 662.39 608.54 667.4 601.57 669.41 594.44 676.76 597.52 689.51 584.27 694.49 578.4 699.2 570.08 702.02 559.3 700.48 545.65 703.57 541.09 707.18 536.76 717.3 531.05 726.55 522.6 735.24 511.19 738.5 514.23 754.12 518.62 764.28 517.06 771.87 506.69 779.5 500.81 788.03 500.57 797.73 497.1 811.7 483.48 818.15 481.19 822.71 480.38 833.09 468.73 840.67 465.11 845.42 457.31 870.23 452.16 882.79 444.87 892.25 443.43 900.36 459.55 904.25 495.96 911.63 511 915.31 508.89 921 511.79 925.88 521.11 931.18 527.67 944.67 533.81 948.6 550.78 953.1 557.89 958.8 577.33 958.4 586.03 955.59 592.59 958.04 598.75 963.13 627.91 965.17 625.71 944.51 644.02 943.15 678.46 932.71 691.35 926.66 698.58 921.71 733.18 891.33 742.06 910.78 743.94 941.28 752.12 979.26 727.91 1019.76 694.03 1028.17 676.18 1066.08 678.75 1090.68 705.66 1089.27 716.74 1085.42 719.73 1094.23 719.83 1100.43 727.99 1115.55 730.74 1125.6 721.46 1134.96 719.97 1141.43 716.12 1144.16 717.53 1151.57 707.08 1159.18 694.89 1164.52 696.46 1168.69 690.06 1192.75 702.6 1210.37 692.62 1223.4 700.41 1236.88 697.8 1244.65 689.02 1261.3 680.12 1269.1 666.36 1284.28 657.87 1285.03 643.24 1282.71 633.58 1284.43 609.44 1283.89 594.46 1288.23 580.3 1291.16 572.17 1290.73 563.29 1293.01 544.82 1299.77 535.93 1301.11 521.91 1305.93 516.2 1309.13 510.48 1318.98 496.71 1331.86 489.08 1335.47 476.5 1343.97 474.55 1352.53 476.58 1361.5 473.8 1368.47 471.38 1382.62 471.79 1396.34 478.39 1393.51 482.32 1395.86 485.32 1405.07 483.1 1410.38 477.35 1412.25 469.51 1410.07 458.4 1411.42 450.21 1425.39 444.25 1429.14 432.91 1431.93 421.14 1442.53 410.99 1455.07 389.44 1468.44 384.52 1487.65 378.78 1497.9 363.17 1515.2 330.32 1540.02 325.41 1541.39 310.94 1552.2 299.02 1557.06 284.8 1566 282.93 1560.55 299.84 1547.6 297.68 1531.24 295.84 1526.91 268.46 1512.8 260.72 1513.58 239.52 1518.16 219.69 1531.33 214.51 1531.17 204.11 1537.19 192.43 1538.65 192.38 1489.17 186.98 1493.58 185.79 1483.77 168.31 1482.92 160.52 1469.57 161.27 1456.43 157.64 1449.61 161.46 1447.23 162.59 1439.29 158.15 1435.88 143.18 1431.27 124.82 1429.61 113.85 1430.14 96.78 1432.59 81.52 1435.81 71.8 1439.35 71.45 1432.15 61.43 1432.49 64.1 1410.69 68.2 1402.33 77.91 1402.36 82.09 1395.48 88.22 1390.76 84.06 1386.76 82.56 1380.22 95.22 1367.25 93.26 1363.32 92.87 1351.84 98.21 1351.69 109.3 1334.08 114.28 1324.18 112.53 1318.22 104.66 1311.71 96.98 1301.56 94.95 1295.31 98.62 1285.13 102.92 1280.68 122.16 1272.31 125.64 1267.59 127.24 1258.85 123.23 1245.58 123.66 1239.77 137.78 1222.15 127.5 1213.85 113.02 1191.88 108.36 1172.22 100.91 1168.57 92.42 1160.53 86.34 1156.91 64.81 1154.8 52.54 1150.66 61.1 1125.49 81.54 1065.34 84.19 1066.1 115.22 974.72 113.34 971.84 12.22 942.68 20.27 940.44 22.93 933.07 84.52 899.46 63.98 862.71 88.63 849.36 79.64 839.33 62.84 823.02 69.09 803.54 74.5 802.1 85.21 807.25 98.54 806.31 105.25 800.44 114.69 799.6 119.26 793.02 124.19 795.27 172.3 812.12 185.95 817.34 188.72 814.7 166.92 806.38 161.88 797.52 161.61 784.32 159.8 776.44 157.13 722.11 145.83 712.38 146.61 696.21 145.51 687.38 135.86 671.19 132.59 668.24 135.95 660.22 131.67 644.57 140.44 632.76 152.86 622.74 154.8 613.91 147.98 611.32 134.29 612.36 123.57 618.46 113.91 629.76 109.68 640.23 108.65 648.91 88.75 654 89.84 635.06 91.91 626.45 99.56 611.35 142.11 568.85 125.58 551.09 111.65 541.51 102.82 538.89 82.43 537.83 83.88 533.26 99.81 527.13 94.32 511.14 102.38 511.09 107.4 514.49 114.68 532.58 123.26 524.78 118.33 521.5 117.84 517.1 110.59 512.41 104.65 505.8 99.33 504.1 92.22 495.18 80.47 488.65 67.43 490.19 57.56 484.59 48.72 481.37 27.99 484.74 24.69 482.48 24.17 480.67 40.7 468.05 28.55 442.33 25.3 438.36 21.88 428.22 23.04 413.92 16.51 411.62 9.56 400.49 14.36 400.81 18.63 396.86 17.52 387.94 8.47 371.08 3.71 358.04 8.24 345.47 10.83 323.95 9.59 317.19 12.37 311.57 11 306.17 13.82 274.32 10.36 266.81 12.85 252.31 8.94 239.17 12.94 228.83 7.69 222.89 4.53 201.56 1 198.36 4 189.72 11.35 175.76 9.01 162.58 19.57 150.08 27.55 128.48 32.33 127.1 42.93 117.39 49.75 113.51 59.7 101.79 66.66 99.93 77.7 92.14 84.82 81.08 90.37 64.33 88.11 55.57 88.8 36.9 91.77 33.18 92.07 25.68 90.09 14.85 90.98 9.06 102.78 1 111.71 2.63 118.35 12.21 130.69 27.22 139.54 34.64 170.2 48.31 183.86 51.43 191.46 66.41 203.21 70.31 211.55 76.65 214.69 72.48 228.11 77.98 232.48 84.9 246.2 90.3 270.28 89 278.74 89.42 285.21 85.78 296.98 86.82 300.22 83.74 312.08 90.99 322.48 95.72 343.28 93.3 352.76 94.34 351.88 105.72 354.68 116.47 362.26 122.3 364.58 128.89 369.23 150.47 382.36 166.17 393.75 175.02 388.64 187.62 384.28 194.83 391.33 198.85 398.7 206.83 396.3 221.25 389.69 231.63 388.75 236.42 379.04 244.88 378.19 249.79 370.67 256.38 369.62 261.44 360.32 282.84 376.04 292.35 389.54 296.03 392.92 295.09 397.54 304.22 399.95 327.32 397.08 334.56 397.09 342.74 389.95 358.61 385.41 372.67 394.18 388.58 393.24 403.39 389.48 425.32 511.74 452.09 651.56 483.75 653.42 484.39 659.53 452.39 673.27 446.17 680.07 434.57 685.25 433.06 689.86 425.84 700.33 417.08 703.08 407.51 712.19 404.94 729.47 412.75 738.6 404.96 746.18 390.21 755.42 395.98 765.77 399.03 770.13 402.71 787.63 404.33 792.05 398.88 799 396.63 Z" id="31014000"/>
</g>
</svg>