<?xml version="1.0"?>
<svg xmlns="http://www.w3.org/2000/svg" version="1.2" baseProfile="tiny" width="800" height="579" viewBox="0 0 800 579" stroke-linecap="round" stroke-linejoin="round">
<g id="sigung">
<path d="M 603.77 6.08 623.53 7.13 627.41 6.81 635.67 7.41 646.32 7.72 663.47 8.54 669.39 9.02 669.47 14.3 668.77 22.07 675.33 23.82 678.31 23.55 682.22 25.89 693.04 28.13 702.53 26.3 705.9 27.47 711.7 27.8 715.92 26.42 717.4 28.73 722.29 28.65 728.32 31.35 733.91 33.33 733.37 35.83 736.16 35.94 738.96 37.46 739.77 41.39 747.54 44.2 754.5 43.72 764.69 39 768.57 35.25 772.18 29.6 778.71 25.72 782.94 24.89 787.68 22.34 793.99 20.4 796.23 25.02 799 26.04 798.26 29.4 798.38 33.17 794.08 39.74 792.18 46.03 792.28 47.52 790.21 50.67 789.73 53.01 785.55 59.32 785 63.62 781.79 67.96 775.82 72.18 773.43 77.23 770.25 78.54 767.61 77.51 765.99 78.51 763.83 82.17 739.17 105.51 707.15 152.8 699.85 174.13 685.96 214.2 682.65 220.08 683.41 221.02 678.39 225.63 657.2 238.52 648.26 243.67 634.11 249.61 617.39 257.36 610.88 261.78 610.39 260.82 589.2 275.46 569.79 289.03 561.95 293.15 555.62 295.07 533.03 301.29 516.98 305.44 517.48 306.62 501.85 310.26 474.84 313.51 455.6 315.5 453.76 326.83 455.17 332.34 456.6 334.28 452.95 343.23 452.11 347.29 451.85 352.65 452.94 361.15 450.19 363.75 449.74 378.33 448.47 389.99 446.95 392.52 447.72 396.44 451.09 397.94 458.67 396.83 460.59 398.43 462.29 402.17 463.46 407.83 463.47 414.48 462.03 420.63 458.74 432.56 460.21 439.53 451.2 445.44 451.78 455.13 452.55 460.68 449.9 467.28 451.12 470.09 453.62 471.27 455.54 476.54 450.95 481.08 445.3 488.66 441.78 490.26 440.85 491.69 437.02 492.99 433.17 495.5 419.92 500.31 417.7 500.09 414.61 501.74 405.93 501.08 402.33 501.23 388.55 503.57 386.07 498.87 384.82 499.18 380.56 496.35 377.94 493.25 375.64 493.19 370.71 491.67 369.08 492.5 360.88 483.81 358.35 486.88 353.7 487.88 347.94 490.63 347.02 494.81 345.52 497.58 346.86 501.81 346.26 504.22 343.39 504.38 334.68 507.2 329.97 507.43 327.29 505.06 323.47 503.17 319.2 504.47 315.29 504.26 311.79 507.82 304.35 514.2 302.95 517.74 304.97 518.12 303.07 521.73 302.84 524.14 300.4 525.83 297.75 524.46 290.38 528.22 281.55 533.61 279.42 537.8 280.24 547.04 279.11 551.58 272.13 554.23 270.58 553.42 265.79 556.62 262.89 562.01 259.89 564.69 258.91 567.07 255.88 568.29 254 571.49 255.13 574.53 252.5 577.65 248.64 578 245.16 574.66 240.27 574.75 235.19 570.08 228.99 568.37 224.61 564.77 217.57 562.5 212.89 564.12 207.38 563.67 203.99 567.95 200.95 569.78 197.02 571 195.81 573.01 190.41 570.89 186.87 570.33 181.22 571.27 178.83 572.57 171.67 572.18 167.06 572.77 164.78 571.31 158.94 569.7 155.78 571.13 151.91 570.3 149.05 568.81 145.84 568.35 143.02 570.42 137.3 566.6 130.72 566.28 128.15 567.4 118.95 561.36 116.16 558.95 111.45 556.6 106.64 551.36 106.13 549.1 101.06 546.87 99.04 546.99 94.73 545.12 86.35 538.26 79.23 539.76 74.12 536.75 69.61 536.97 63.49 535 53.91 530.32 47.98 530.13 36.59 530.39 32.65 529.12 28.75 530.39 23.8 530.81 20.22 530.41 15.98 528.23 9.82 527.48 9.35 522.13 6.87 517.44 6.87 511.01 3.99 502.17 6.94 494.66 10.15 492.92 13.9 489.04 19.53 486.89 19.93 484.68 24.08 480.8 25.76 478.32 29.98 476.51 31.65 471.82 30.51 465.12 32.73 460.03 31.12 454.14 23.01 452.39 19.6 449.98 15.98 449.18 14.1 446.3 8.21 441.81 4.86 441.88 2.85 440.83 1.24 434.57 3.07 426.42 1.75 423.03 2.05 419.69 3.92 413.92 7.77 410.49 3.47 402.51 5.61 390.13 5.23 384.53 2.18 381.99 1 377.67 1.08 369.46 2.97 362.25 2.11 355.52 2.1 349.4 2.67 346.95 5.15 344.8 13.33 343.56 18.54 339.35 19.47 337.03 23.58 338.2 32.08 327.62 34.18 328.08 35.28 328.78 47.28 331.28 48.98 330.99 50.92 334.02 57.84 339.24 62.64 345.63 67.04 344.16 71.62 340.9 78.05 338.68 82.66 338.02 85.99 336.16 97.62 333.18 103.48 335.76 108.84 336.46 115.85 333.36 126.14 335.45 128.72 335.09 135.07 339.83 139.15 340.77 142.75 340.78 144.41 336.71 148.9 332.26 155.48 330.2 158.09 328.17 162.21 330 166.07 328.67 168.54 326.44 170.33 329.65 173.59 331.81 175.5 327.13 174.03 320.6 172.07 318.01 171.72 315.24 172.67 311.34 174.97 307.92 177.34 302.6 176.89 295.75 175.88 293.44 176.85 289.61 180.73 287.39 186.24 285.56 189.42 281.42 191.09 278.12 190.6 275.28 185.89 272.17 180.2 267.35 181.41 263.44 179.32 251.2 177.92 247.52 180.96 242.03 186.03 243.85 191.12 242.39 196.47 242.34 199.36 244.4 203.91 242.93 208.13 244.42 211.9 246.7 214.21 244.97 216.77 247.29 218.85 247.24 222.13 249.16 225.05 248.51 228.58 251 231.72 250.25 234.98 250.49 240 248.76 241.98 247.06 246.57 239.7 247.32 236.81 250.11 233.39 250.44 229.64 261.35 225.94 265.61 227.09 274.1 222.38 275.91 218.73 277.14 204.93 278.75 202.28 277.4 198.73 276.87 194.62 277.5 191.89 280.62 188.41 279.8 186.28 284.07 183.18 284.52 177.81 288.57 174.99 292.45 163.71 297.91 158.62 302.91 157.37 305.82 149.32 305.37 147.91 307.72 140.61 309.1 139.2 317.69 136.83 320.93 135.9 324.46 137.18 335.56 136.99 338.21 138.64 340.64 138.11 344.45 129.66 350.53 126.65 353.56 123.06 352.89 120.84 354.17 117.63 361.93 112.03 366.38 111.82 369.33 109.59 369.81 105.82 372.47 102.31 374.29 101.34 371.68 93.8 379.19 93.76 381.07 92.45 384.28 91.93 389.23 93.73 394.27 93.03 402.01 96.02 404.57 95.5 416.01 97.69 422.86 101.47 424.1 104.27 424.62 109.5 428.68 113.49 435.76 116.88 437.7 119.52 440.17 120.35 446.12 119.99 446.12 106.9 446.64 98.84 449.51 93.51 459.75 86.61 465.08 83.88 472.99 77.33 475.47 71.63 477.37 71.01 481.85 66.57 486.76 62.74 489.37 61.34 491.03 60.42 494.34 55.8 495.24 51.57 495.04 44.75 493.32 38.46 495.24 38.29 503.92 45.67 505.42 45.56 513.42 47.41 519.76 50.6 526.91 52.23 529.13 51.97 534.79 49.19 540.27 47.34 537.89 42.43 540.38 41.38 540.11 38.34 536.19 38.41 535.41 36.91 538.95 29.17 540.5 23.97 539.04 16.61 539.54 3.53 540.54 1 556.02 3.85 561.52 4.36 573 4.61 603.77 6.08 Z" id="31021000"/>
</g>
</svg>