<?xml version="1.0"?>
<svg xmlns="http://www.w3.org/2000/svg" version="1.2" baseProfile="tiny" width="800" height="886" viewBox="0 0 800 886" stroke-linecap="round" stroke-linejoin="round">
<g id="sigung">
<path d="M 581.07 878.28 577.34 881.13 564.62 885 549.68 880.51 546.56 878.8 531.86 876.33 519.19 878.4 513.33 878.1 511.51 874.52 502.04 867.88 494 870.22 488.41 869.47 479.45 863.96 477.66 860.98 469.48 859.52 467.5 853.22 455.73 848.5 451.1 843.19 446.98 843.64 441.54 840.95 436.54 844.39 430.4 838.7 426.64 837.99 417.89 828.01 406.21 817.23 392.81 810.68 381.67 818.16 364.33 813.89 354.92 819.48 350.78 820.4 345.53 816.16 339.37 815.81 336.65 813.93 328.15 814.61 305.75 794.58 283.31 776.25 279.95 771.22 272.86 768.41 267.83 768.1 268.43 760.18 261.03 758.62 254.13 754.98 245.86 753.61 235.81 755.77 226.41 755.04 222.99 753.73 218.26 748.84 212.01 748.55 207.6 744.8 202.21 746.42 196.8 745.48 192.46 741.39 180.65 737.44 176.49 737.52 163.74 735.31 156.43 732.91 146.12 733.85 146.18 735.52 124.18 735.92 117.06 736.8 73.27 738.2 67.14 739.54 52.74 737.48 37.28 743.13 23.65 753.26 21.14 741.35 26.77 720.96 29.22 710.47 29.2 699.11 27.22 689.43 24.3 683.04 21.03 680.31 8.07 682.2 2.33 679.65 1 672.94 3.61 668.62 5.77 648.71 6.53 623.8 11.24 619.35 9.38 604.82 9.82 595.67 11.25 588.74 17.49 573.44 15.05 570.13 12.64 560.72 15.78 541.36 48.64 537.97 94.79 532.41 121.48 526.2 120.63 524.19 148.05 517.09 186.64 506.47 197.45 503.19 210.86 496.14 244.01 472.96 280.21 447.95 281.04 449.59 292.16 442.04 320.74 428.79 344.9 418.64 360.18 409.86 396.38 387.82 404.94 379.96 403.64 378.34 409.3 368.3 433.03 299.84 445.5 263.41 500.2 182.62 542.32 142.75 546.02 136.48 548.78 134.79 553.3 136.54 558.73 134.31 562.81 125.68 573.01 118.47 578.5 111.06 579.44 103.71 586.58 92.92 587.4 88.93 590.93 83.56 590.77 81.01 594.01 70.25 601.36 59.03 601.15 52.6 602.41 46.85 597.68 45.12 593.85 37.22 597.35 35.69 606.91 26.2 610.57 26.14 615.09 19.9 619.89 22.65 627.27 15.84 624.47 6.45 625.45 1 632.94 7.42 642.72 11.43 644.1 15.49 648.54 20.99 647.99 38.78 651.82 46.79 652.79 51.71 657.43 51.65 659.29 59.56 656.11 72.83 657.03 82.21 660.35 90.22 658.46 98.69 657.94 114.72 652.62 122.96 654.17 133.66 661.4 142.24 674.19 152.83 677.74 151.74 685.35 156.95 681.63 167.36 682.55 170.63 680.08 177.45 679.69 188.42 685.52 197.75 686.61 203.99 697.87 207.9 713.5 212.51 720.2 210.81 733.41 209.88 737.82 216.92 745.49 221.61 756.58 226.53 756.93 232.71 754.92 237.52 749.95 242.73 752.52 248.62 759.16 250.74 766.71 259.61 773 271.97 779.58 279.01 782.16 290.74 788.91 300.93 787.19 310.66 786.75 319.12 788.34 325.55 794.79 330.57 794.3 349.22 792.44 355.27 794.3 363.65 793.07 374.96 795.97 381.64 795 386.78 798.07 392.18 799 397.24 794 405.88 792.83 410.93 781.8 435.47 781.28 446.16 777.79 450.93 777.51 455.11 779.8 460.33 774.39 469.21 777.51 472.52 782.23 491.26 778.4 509.11 779.18 521.8 783.45 532.97 786.7 545.41 786.13 553.36 795.44 557.81 790.13 568.45 784.91 572.63 785.35 579.5 780.09 592.9 781.47 596.76 775.01 618.87 782.47 623.16 785.8 628.8 784.2 638.12 780.77 642.86 770.09 649.85 766.32 654.12 766 658.94 759.05 668.43 744.52 672.26 735.36 678.96 728.01 685.41 725.46 691.33 721.69 691.64 717.64 700.28 712.33 708.19 707.97 710.82 696.18 715.49 693.25 735.98 692.97 744.95 689.05 749.47 687.31 754.04 681.2 754.66 671.51 760.33 660.93 757.58 658.24 753.69 650.52 754.49 644.56 750.88 643.2 746.05 631.41 751.63 627.64 752.47 619.24 759.25 610.34 759.86 612.08 770.13 616.85 774.05 616.13 781.17 618.11 786.1 618.08 792.54 613.03 800.23 615.13 815.49 611.16 821.17 612.47 826.34 609.19 831.77 607.9 836.87 601.15 845.49 600.12 850.37 592.3 859 591.13 867.86 583.26 874.02 581.07 878.28 Z" id="31022000"/>
</g>
</svg>