<?xml version="1.0"?>
<svg xmlns="http://www.w3.org/2000/svg" version="1.2" baseProfile="tiny" width="800" height="563" viewBox="0 0 800 563" stroke-linecap="round" stroke-linejoin="round">
<g id="sigung">
<path d="M 782.56 77.53 780.78 79.21 781.43 81.4 779.64 83.94 779.62 87.23 777.98 90.05 777.11 95.05 778.25 96.6 776.53 98.24 770.12 102.02 767.95 106.45 769.24 109.2 766.74 115.77 763.67 124.91 764.29 126.83 762.25 130.46 758.41 133.39 755.39 138.15 755.77 141.63 753.02 145.08 750.68 145.88 751.69 156.36 752.88 161.73 750.9 165.31 752.53 166.9 757.96 169.82 759.58 171.58 762.47 172.38 764.88 174.25 767.2 173.28 771.39 173.8 773.01 182.65 774.69 183.08 776.41 190.92 778.48 192.19 783.71 192.67 785.47 194.64 789.3 196.62 792.14 199.69 796.28 200.48 799 202.32 796.21 208.93 795.34 214.9 793.2 217.69 787.05 222.01 784.01 224.94 782.53 228.38 777.69 232.01 774.17 232.68 771.48 233.99 767.07 233.07 761 239.11 758.99 241.54 755.76 243.78 753.53 244.3 749.32 247.8 744.84 247.47 742.92 248.31 740.23 248.03 730.71 251.57 723.11 249.79 716.77 251.93 715.42 257.47 712.55 264.26 711.7 267.72 713.69 273.73 713.36 277.79 711.17 285.55 711.55 291.94 709.63 295.43 710.29 298.8 704.97 303.04 702.76 306.69 700.99 307.03 698.45 309.9 697.67 313.45 693.58 320.42 690.64 322.12 686.75 327.01 679.58 330.44 678.67 337.73 679.15 340.7 676.12 345.19 674.92 349.11 671.21 353.28 668.71 360.56 663.54 363.82 660.08 367.91 657.64 369.01 656.69 373.65 652.07 376.15 648 376.22 643.13 379.24 640.64 379.01 638.42 380.68 632.98 383.4 631.07 383.71 627.48 386.81 622.3 387.64 619.41 386.48 611.55 387.71 609.02 384.01 605.52 384.49 601.73 382.99 599.45 383.16 590.88 387.59 585.93 387.5 580.36 390.71 578.13 393.59 575 394.34 572.98 397.61 569.96 406.73 567.18 410.79 566.58 414.99 567.83 419.06 569.92 422.91 570.51 428.85 571.47 431.66 570.19 438.76 567.25 440.68 564.31 441.51 562.75 443.03 561.54 448.58 561.95 453.45 561.08 453.78 562.38 458.22 564.35 461.15 569.04 464.75 570 472.75 574.51 473.82 580.69 480.6 582.37 485.3 586.63 487.4 585.04 491.57 581.81 494.06 582.02 497.47 580.06 501.38 581.28 506.18 581.57 509.97 585.06 512.31 587.07 515.17 588.35 518.86 589.34 519.4 589.79 521.72 586.96 521.24 584.97 519.73 582.26 519.37 580.82 520.36 577.99 520.25 573.96 523.49 568.73 526.77 564.51 525.81 559.85 525.71 556.53 527.61 554.07 531.56 550.43 534.16 544.21 535.53 539.26 534 534.5 535.69 525.82 534.96 523.3 534.22 522.07 536.9 519.92 538.93 515.45 539.7 508.74 537.6 505.19 540.94 504 543.1 501.05 552.23 498.47 555.13 493.82 556.27 489.82 558.03 481.87 558.51 480.3 561.7 477.53 562 474.71 558.5 468.99 554.8 467.54 551.93 465.32 549.6 460.31 546.64 457.32 546.01 457.41 549.29 453.65 546.18 447.7 549.07 443.24 555.14 440.8 552.87 438.15 551.48 437.85 549.41 435.95 546.15 431.39 545.26 424.52 538.14 419.34 534.73 411.84 530.5 410.44 528.66 406.99 526.8 405.02 521.22 403.09 519.87 399.97 515.76 399.53 513.86 400.14 508.01 399.78 503.36 396.96 496.99 389.97 498.25 387.92 500.24 385.21 498.43 376.53 498.98 359.53 482.12 354.27 480.66 351.33 479.06 350.1 476.14 350.37 472.2 348.6 470.49 339.31 465.63 330.68 463.25 323.85 457.84 319.49 452.87 316.76 444.87 315.59 442.72 311.93 439.86 303.2 438.63 297.98 438.72 294.32 440.44 290.38 443.44 289.86 445.24 284 450.23 277.27 453.33 270.11 453.67 264.78 450.79 260.17 447.26 255.4 433.05 254.46 428.83 251.64 423.29 248.24 414.59 243.86 409.97 240.2 405.31 236.65 401.62 230.01 397.66 220.62 393.41 212.3 390.57 208.8 388.6 199.81 385.77 190.43 381.28 184.27 381.6 179.07 379.65 175.44 379.08 169.72 379.04 161.26 379.55 156.49 381.49 150.61 384.56 147.95 384.49 142.94 383.41 139.62 381.05 136.55 378.08 135.83 375.27 135.5 369.92 136.99 366.78 137.01 362.88 132.68 357.27 124.78 351.72 121.64 351.42 120.73 349.73 117.27 348.61 114.96 346.06 108.92 342.12 105.28 340.37 103.14 336.74 100.23 329.54 97.08 328.79 93.82 327.14 92.44 325.3 88.28 325.49 84.5 323.97 79.12 323.87 72.4 321.67 63.97 321.53 57.72 319.6 53.18 316.14 48.76 314.59 45.19 314.15 42.36 312.95 39.47 313.85 37.08 310.85 29.87 308.83 26.45 307.42 24.43 307.65 21.63 305.75 18.34 305.3 15.21 303.25 11.39 303.19 9.18 302.03 5.99 304.45 2.12 304.34 1 298.28 2.06 290.08 2.11 279.9 2.59 277.28 4.4 272.93 2.53 269.64 2.76 262.13 3.49 260.62 3.63 255.96 9.37 253.57 11.91 253.63 20.73 254.83 23.6 253.24 23.37 250.27 24.83 248.14 25.38 241.04 24.2 235.87 29.77 230.1 30.44 224 33.56 219.64 34.37 211.3 39.58 210.52 42.72 206.39 41.94 204.64 40.87 197.54 38.14 191.75 43.96 190.91 45.76 188.56 49.74 187.83 52.15 186.51 55.77 181.87 58.12 180.3 58.24 177.95 59.8 170.72 58.54 168.79 58.6 165.72 57.03 159.03 56.85 155.54 58.3 153.67 56.91 151.8 56.43 148.61 57.09 142.88 56.25 135.23 56.61 128.78 53.11 118.96 51.07 108.12 52.93 105.04 56.01 103 60.83 101.13 66.43 101.25 71.98 98.6 75.95 95.52 77.22 93.9 80.23 92.09 83.84 90.81 89.38 91.49 93.2 93.45 96.42 93.81 100.88 93.43 104.38 92.29 107.93 93.43 118.17 93.19 123.51 93.37 132.13 97.58 137.63 99.35 141.69 99.15 146.29 101.85 152.69 100.51 160.24 106.68 164.11 108.36 165.93 108.25 170.49 110.26 170.95 112.29 175.27 117.01 179.52 119.12 182.02 121.28 190.3 126.72 192.61 125.71 198.53 126 203.68 129.44 206.22 127.57 209.1 127.98 211.67 129.33 215.15 130.07 217.99 128.79 223.25 130.23 225.3 131.54 229.45 131.02 235.89 131.37 238.04 130.2 243.13 129.35 246.31 129.86 251.17 131.76 252.26 129.95 255.79 128.86 258.53 127.21 261.58 123.36 266.53 123.77 270.74 122.31 277.07 124.35 281.02 127.59 286.59 129.13 291.16 133.33 295.56 133.25 298.7 136.25 302.16 135.94 304.53 133.13 303.52 130.4 305.2 127.52 307.93 126.42 308.82 124.28 311.51 121.87 314.13 117.02 318.43 114.15 319.82 114.87 326.1 112.49 327.12 108.41 326.38 100.1 328.3 96.33 336.24 91.47 342.87 88.1 345.26 89.33 347.45 87.81 347.66 85.64 349.37 82.39 347.55 82.05 348.81 78.87 355.5 73.13 358.66 69.93 362.17 70.12 366.01 68.95 369.44 70.65 371.86 72.78 376.09 72.57 383.93 70.04 386.51 69.9 387.05 67.73 385.85 63.92 387.2 61.43 388.03 57.67 393.21 55.19 397.39 54.3 399.66 51.54 407.04 59.36 408.51 58.6 412.94 59.98 415.01 60.02 417.37 62.81 421.2 65.36 422.32 65.08 424.56 69.31 436.95 67.2 440.19 67.07 448 67.67 450.78 66.18 452.78 66.38 464.7 62.05 468.16 59.79 471.61 58.62 472.44 57.34 475.61 55.9 480.69 49.08 484.82 45 483.1 40.26 480.84 39.19 479.75 36.67 482.14 30.73 481.44 25.74 480.92 17.02 489.02 11.71 496.2 6.38 504.34 3.41 511.92 4.49 515.15 3.78 538.21 3.04 541.96 2.58 553.54 2.37 553.52 1.49 558.94 1 562.79 2.26 569.51 3.42 571.7 3.38 577.92 5.46 580.2 7.62 583.05 8.11 585.89 7.26 588.21 9.23 591.5 9.39 594 11.96 595.79 12.65 600.75 13.03 606.04 11.89 610.39 12.62 614.03 14.53 617.92 15.36 617.61 19.53 620.26 19.69 623.99 21.17 625.76 23.81 637.58 33.46 649.37 44.01 653.85 43.65 655.28 44.64 658.52 44.83 661.29 47.06 663.47 46.58 668.42 43.63 677.56 45.88 683.42 41.94 690.48 45.39 696.63 51.06 701.24 56.32 703.22 56.69 706.45 59.69 709.08 57.88 711.95 59.29 714.12 59.06 716.56 61.85 722.76 64.34 723.8 67.66 728.11 68.42 729.05 69.99 733.77 72.89 736.71 73.29 740.95 72.05 745.93 75.55 746.89 77.44 749.98 77.59 756.65 76.51 764.39 77.8 766.03 78.71 773.9 81.07 780.6 79.03 782.56 77.53 Z" id="31023000"/>
</g>
</svg>