<?xml version="1.0"?>
<svg xmlns="http://www.w3.org/2000/svg" version="1.2" baseProfile="tiny" width="800" height="1378" viewBox="0 0 800 1378" stroke-linecap="round" stroke-linejoin="round">
<g id="sigung">
<path d="M 792.3 698.23 799 701.73 799 711.6 793.99 715.83 790.54 724.6 780.36 727.57 783.18 735.25 779.11 746.21 765.8 751.38 759.69 763.29 757.81 775.82 767.36 782.71 786.16 792.11 793.71 799.3 792.89 804.8 783.5 807.93 782.71 814.66 775.67 825.63 763.45 833.3 751.39 837.06 741.68 844.58 738.39 852.1 728.53 864.01 718.5 872.62 694.85 882.18 690.63 889.54 690.57 900.05 683.73 898.94 678.88 904.42 676.84 921.18 678.41 926.19 675.75 934.18 669.95 939.82 660.09 940.6 658.83 950.63 659.93 956.74 657.89 987.28 653.67 999.97 653.67 1017.98 656.96 1035.84 648.91 1048.92 652.26 1052.91 629.24 1075.31 623.44 1090.03 612.32 1102.88 608.41 1115.1 598.7 1120.58 594.15 1125.59 584.91 1140 582.1 1149.56 575.83 1158.49 568.63 1176.5 562.99 1181.04 550.46 1208.77 548.27 1219.1 549.52 1232.11 563.62 1255.13 563.93 1261.55 555.32 1278.94 552.65 1292.57 543.73 1310.89 542.63 1318.57 544.67 1324.83 556.73 1335.02 567.22 1347.7 567.88 1361.97 566.53 1367.41 542.22 1374.58 530.86 1375.11 525.87 1371.2 518.05 1371.98 510.37 1377 482.12 1345.32 478.36 1342.73 462.64 1325.86 450.39 1309.43 440.45 1300.49 411.8 1295.4 403.47 1298.61 395.65 1298.03 391.27 1301.65 378.57 1300.65 368.04 1297.82 357.73 1288.74 355.42 1280.48 343.34 1267.23 339.38 1258.5 314.42 1243.47 306.01 1220.23 305.52 1213.83 287.48 1183.81 284.04 1174 285.04 1168.79 282.79 1156 287.48 1148.23 299.31 1143.86 301.74 1138.19 288.23 1124.97 275.72 1114.48 273.61 1115.68 268.16 1103.52 257.15 1092.15 249.69 1088.47 228.19 1080.96 221.88 1072.09 194.41 1053.2 191.19 1045.68 190.97 1035.36 196.8 1017.18 200.61 1008.56 210.77 980.77 218.36 966.31 222.33 955.93 219.2 924.32 229.28 886 227.52 872.07 223.18 852.08 218.62 853.09 212.28 838.42 200.74 822.91 172.37 802.92 86.69 754.61 83.98 752.28 70.77 733.18 55.38 715.13 55.86 711 41.6 697.89 35.29 690.8 32.29 679.04 29.69 676.81 37.92 658.77 41.71 624.25 30.42 573.37 29.69 565.78 36.4 553.47 28.16 550.9 19.54 540.88 6.87 540.76 2.37 538.99 1 526.33 3.79 525.41 5.98 504.23 17.24 491.89 30.7 500.69 39.16 529.86 43.8 530.91 49.93 486.27 63.09 456.17 62.96 448.3 145.15 455.9 180.62 458.78 178.89 445.99 197.85 428.64 211.1 403.83 225.14 391.14 230.29 377.44 296.41 342.91 306.2 338.17 313.49 342.04 314.5 333.16 324.02 326.93 325.32 320.05 322.84 309.82 324.91 301.26 311.66 273.73 310.98 254.68 320.81 246.09 318.41 230.06 314.49 221.76 325.37 206.44 327.2 202.13 322.8 182.72 324.73 178.64 321.13 172.78 327.98 164.52 330.27 158.88 328.19 142.55 329.44 137.86 322.27 103.84 315.84 90.2 320.81 76.73 318.71 62.64 321.62 59.52 321.34 50.77 318.18 38.39 326.64 38.13 333.82 45.01 341.57 42.76 344.2 38.56 356.57 36.61 359.48 41.66 364.08 39.35 377.17 28.69 397.86 31.84 414.55 37.37 432.01 36.3 448.63 33.24 468.02 30.83 476.02 15.03 483.14 7.7 506.79 9.82 523.15 9.8 535.08 1 557.18 10.65 555.93 11.9 558.28 28.2 538.23 56.39 526.64 104.16 537.13 166.66 519.75 171.67 516.15 179.19 512.39 198.3 510.51 227.75 507.22 244.51 495.16 256.57 494.85 264.72 505.34 281.79 511.77 301.06 509.57 305.76 510.04 316.41 514.74 328.63 516.15 346.48 530.09 367 528.52 370.45 536.51 380.63 546.38 383.92 565.17 396.45 577.7 409.29 597.28 411.8 611.37 408.67 621.86 409.13 630.79 412.74 628.91 421.35 636.59 428.87 640.19 431.06 648.65 432.79 654.76 431.69 665.41 433.88 672.92 445.79 675.9 465.05 679.82 468.34 682.95 477.11 690.78 480.87 693.76 489.17 692.66 494.97 696.42 505.62 700.49 511.26 695.79 516.12 695.01 523.95 701.43 535.85 700.33 545.88 696.42 549.79 700.33 570.63 705.5 579.4 700.65 585.66 698.46 594.12 702.21 607.59 705.5 603.52 713.02 603.36 726.33 608.22 740.58 617.93 739.8 626.39 735.57 632.03 725.08 639.08 722.41 646.59 723.2 657.25 729.31 653.17 734.32 655.52 741.05 653.8 745.28 657.56 761.1 655.99 771.13 665.7 770.34 672.91 784.59 678.55 786.94 697.19 792.3 698.23 Z" id="31042000"/>
</g>
</svg>