<?xml version="1.0"?>
<svg xmlns="http://www.w3.org/2000/svg" version="1.2" baseProfile="tiny" width="800" height="1048" viewBox="0 0 800 1048" stroke-linecap="round" stroke-linejoin="round">
<g id="sigung">
<path d="M 701.64 149.92 697.03 160.43 703.45 179.19 703.5 190.22 704.29 194.99 699.91 211.26 699.81 213.68 705.88 220.52 706.56 225.38 713.94 225.3 712.85 237.8 717.44 246.59 722.79 253.08 724.13 259.8 729.13 266.8 731.26 268.03 744.37 269.56 754.28 276.98 751.33 284.22 751.88 288.16 756.09 302.34 753.66 311.82 746.36 317.87 741.5 319.48 736.08 328.54 733.41 334.94 727.47 342.59 731.99 350.99 730.42 356.25 731.91 364.13 731.57 374.48 722.63 396.64 721.8 400.24 709.69 416.51 712.24 430.32 719.64 435.63 720.94 449.71 718.66 457.72 716.11 474.79 720.33 481.86 716.48 494.18 723.32 502.64 713.75 504.61 704.73 509.23 701.86 509.5 703.22 526.66 704.66 531.33 703.17 535 700.05 537.91 698.36 543.82 699.64 550.83 696.04 561.65 696.03 569.78 687.76 574 682.44 577.62 677.35 584.64 677.77 595.6 679.26 601.85 672.94 606.87 666.83 605.69 661.39 612.53 655.37 614.81 648.47 618.87 645.66 618.86 640.19 614.87 631.49 613.58 630.58 622.02 623.72 628.74 621.67 632.37 629.06 648.76 633.26 653.93 632.95 661.19 635.17 667.36 643.1 667.28 646.42 673.56 663.91 685.48 669.85 685.24 675.7 687.91 678.12 690.77 685.16 694.31 690.69 693.62 691.1 695.87 696.38 699.15 706.18 702.52 708.64 710.03 708.3 722.46 712.59 727 703.69 735.84 702.89 738 696.34 740.26 693.34 743.94 676.17 751.27 677.68 758.83 676.21 766.24 678.36 771.43 676.77 775.17 678.43 784.66 681.71 790.63 681.88 793.36 678.34 802.6 678.03 807.72 673.27 820.36 666.81 831.23 657.73 831.53 650.78 838.03 647.82 843.01 648.13 846.66 641.06 850.82 638.18 856.28 635.24 869.47 642.56 876.02 652.01 876.65 655.4 880.09 656.46 884.36 661.36 885.46 663.78 880 669.99 875.74 667.32 862.46 675.67 863.8 673.81 860.83 673.91 853.38 678.23 850.96 680.75 852.41 691.9 851.59 696.96 853.7 696.38 860.53 700.2 857.62 709.54 855.29 713.64 853.48 728.98 852.47 736.33 852.75 750.26 855.09 761.83 852.86 765.47 845.24 772.74 840.42 783.95 837.04 795.26 841.47 792.82 844.01 793.96 847.68 788.39 851.65 789.98 865.86 790.08 876.05 787.82 878.78 786.1 889.1 788.39 894.22 791 904.61 793.34 917.85 796.94 924.27 799 937.55 799 950.39 795.27 954.32 794.56 965.52 790.48 966.9 783.96 959.7 780.25 960.42 777.2 966.86 777.85 976.17 765.45 980.36 759.29 984.1 756.62 987.9 749.36 994.03 741.88 1007.37 739.53 1014.04 737.75 1022.04 738.15 1024.56 734.55 1035.01 729.38 1039.54 726.14 1037.67 714.95 1036.79 709.16 1047 706.02 1045.62 688.64 1044.45 683.24 1037.57 679.51 1034.82 671.76 1037.18 661.65 1038.16 655.17 1033.94 653.4 1029.72 650.75 1029.23 648.39 1024.12 642.9 1018.62 629.25 1026.08 623.46 1026.57 622.58 1029.81 624.64 1037.47 621.17 1039.46 617.28 1037.67 609.72 1036.19 607.56 1030.4 602.06 1024.9 599.41 1020.78 595.78 1019.5 594.21 1016.06 589.69 1014.59 585.47 1010.56 585.18 1005.85 577.03 1006.44 572.32 1007.72 564.85 1005.95 557.49 1007.22 554.84 1010.56 548.95 1010.37 543.16 1012.53 535.6 1010.47 530.89 1004.97 528.53 999.57 520.86 996.74 515.48 997.21 516.65 987.59 505.07 982.87 497.81 978.95 491.42 980.52 484.85 984.94 477.29 984.94 475.33 981.5 465.8 971.09 462.37 966.38 457.95 965.89 442.24 971.09 433.7 970.8 414.27 967.16 410.04 963.33 402.68 953.91 402.58 927.98 396.2 924.94 389.23 924.64 383.73 920.52 379.12 919.34 372.15 905.88 371.37 902.84 371.86 893.51 361.94 895.08 359.88 897.24 337.89 903.23 331.8 903.63 323.36 900.38 318.81 899.91 315.05 899.63 309.39 895.24 300.26 901.27 292.98 900.91 287.52 903.91 277.05 895.62 272.17 893.43 264.7 894.14 263.11 897.69 256.01 899.62 243.74 897.75 231.46 900.66 228.11 900.25 226.34 893.57 226.86 888.53 222.33 879.45 215.9 872.82 211.35 872.56 211.58 869.98 205.69 862.71 200.47 862.35 194.23 859.2 179.88 857.04 179.9 853.35 172.38 847.18 164.25 849.87 159.79 846.62 153.63 843.63 149.3 836.94 146.1 827.47 145.84 822.86 141.67 822.38 138.02 820.07 132.55 814.27 127.26 811.29 124.99 800.19 119.63 801.12 117.29 799.94 120.63 788.5 122.45 778.67 116.97 775.78 112.53 770.03 94.99 759.81 87.16 758.47 81.73 754.54 74.3 750.86 67.4 753.96 61.4 752.67 51.23 751.72 39.65 748.92 35.81 744.12 29.3 742.99 20.62 739.84 14.03 738.68 8 733.94 9.41 717.8 8.24 707.65 8.61 694.55 7.13 682.12 5.19 676.45 3.86 661.6 3.07 645.3 3.8 639.75 8.37 625.89 9.21 619.56 11.67 610.46 15.86 598.93 17.97 586.29 20.44 576.09 20.45 572.18 15.59 555.8 12.93 548.45 12.79 541.97 9.7 532.15 7.55 517.91 7.21 509.74 4.17 505.04 2.34 495.47 1 493.7 12.4 486.62 19.97 479.97 27.01 454.46 32.73 437.67 37.28 431.11 36.85 428.68 42.41 426.27 44.97 433.33 49.73 435.91 51.23 431.18 53.22 429.9 66.49 431.88 68.37 435.54 72.92 439.13 75.24 439.04 76.42 430.84 86.96 427.62 88.8 426.01 96 423.83 95.3 421.48 91.14 418.71 93.04 412.67 101.1 415.1 101 411.18 102.83 408.65 107.78 408.3 109.05 410.9 114.51 413.23 119.26 409.65 124.8 411.88 129.77 411.01 134.35 414.72 135.99 418.95 146.73 420.14 149.46 418.88 156.85 422.43 164.41 418.62 165.75 415.72 166.46 408.29 159.87 403.99 162.96 402.18 163.97 383.92 162.01 381.17 167.38 377.27 167.21 344.7 164.22 339.77 166.23 335.97 164.91 329.64 163.2 315.11 165.06 301.54 164.52 297.34 165.94 290.81 164.22 288.77 165.09 281.21 164.48 276.02 165.38 270.32 164.72 262.64 166.9 260.36 164.18 255.51 165.89 249.98 164.75 233.75 166.37 227.51 165.08 222.81 167.42 211.98 163.81 205.23 171.12 195.86 167.5 193.03 169.15 187.44 168.32 182.03 177.66 182.18 178.45 179.84 175.19 173.8 170.58 171.91 169.89 166.4 177.8 166.79 182.35 163.58 182.81 161.57 176.44 153.27 177.15 148.76 183.1 148.96 185.25 144.57 179 140.14 175.75 136.56 176.02 134.29 181.16 134.57 195.09 126.21 194.97 121.65 186.03 120.19 183.44 116.14 188.73 114.07 190.95 111.32 188.79 106.29 189.01 102.9 192.3 98.5 192.8 93.26 191.76 87.65 192.32 82.8 197.4 72.52 196.69 64.6 202.18 57.44 197.24 53.13 195.2 49.07 196.5 47.39 211.22 48.97 211.99 45.15 208.77 41.4 201.42 40.85 197.07 37.11 202.63 35.24 206.67 30.25 211.94 25.76 213.13 18.49 219.67 13.34 218.66 9.51 213.66 6.61 212.36 3.48 216.9 1 221.43 2.95 227.33 1.24 229.36 4.17 226.28 7.11 229.19 9.83 226.98 13.13 229.95 16.4 227.77 26.01 233.34 29.3 244.09 32.45 247.91 35.7 249.04 45.41 252.03 47.34 257.01 54.42 258.81 61.65 261.4 62.29 264.33 65.81 269.29 63.62 272.06 60.97 280.7 59.7 295.6 58.65 308.16 67.04 313.38 78.02 315.23 83.32 325.51 83.34 331.14 85.42 340.58 86.86 350.86 89.64 353.45 87.86 365.09 91.01 370.6 91.12 375.18 89.91 383.91 91.19 396.62 91.45 399.35 90.45 403.42 94.1 406.71 99.47 411.9 104.18 429.65 114.89 438.84 115.93 438.46 120.68 436.77 123.35 436.81 130 438.71 136.02 441.49 137.58 449.18 139.41 465.89 141.87 465.53 145.01 460.91 152.73 451.26 160.03 456.66 161.71 457.09 167.52 459.56 175.43 458.18 177.8 457.29 185.57 460.81 197.69 461.26 202.27 464.46 200.81 475.31 192.27 480.3 192.01 483.68 188.9 490.65 189.05 493.76 186.04 494.52 181.9 501.75 183.44 505.15 181.24 502.66 169.65 503.14 164.66 498.74 163.45 499.85 153.71 504.71 154.6 503.44 150.02 513.12 148.25 512.36 143.99 514.49 140.91 513.83 137.63 525.83 127.35 540.09 123.29 555.45 121.07 568.85 117.85 574.89 118.44 584.86 125.68 601.67 140.8 616.75 149.11 626.97 150.26 637.5 149.74 642.89 150.92 653.47 151.11 660.26 150.02 667.36 150.05 677.35 149.15 691.38 149.09 701.64 149.92 Z" id="31050000"/>
</g>
</svg>