<?xml version="1.0"?>
<svg xmlns="http://www.w3.org/2000/svg" version="1.2" baseProfile="tiny" width="800" height="1272" viewBox="0 0 800 1272" stroke-linecap="round" stroke-linejoin="round">
<g id="sigung">
<path d="M 525.58 133.3 521.93 135.72 517.54 133.9 510.25 122.62 502.76 123.18 495.37 134.58 495.74 138.27 500.17 145.93 506.39 146.79 511.92 150.59 507.18 156.48 506.17 160.2 505.93 173.2 508.38 175.3 512.79 173.09 522.34 200.47 540.88 245.46 562.73 289.95 589.22 332.63 601.39 349.87 599.8 355.57 601.79 362.86 611.5 370 616.72 381.81 619.55 384.64 627.31 387.2 630.92 390.14 634.04 396.11 633.51 400.96 629.36 404.62 618.13 408.09 614.08 412.15 613.77 418.09 621.04 427.82 624.96 434.52 630.74 440.74 639.65 444.22 647.16 441.05 661.08 438.32 680.01 464.91 674.17 467.16 664.85 463.29 649.69 466.06 645.12 471.88 641.86 479.58 642.14 484.92 648.25 486.68 651.97 489.75 652.35 498.76 647.94 507.34 647.56 511.54 650.84 524.92 653.19 529.67 660.69 537.56 663.68 539.31 670.64 537.76 674.14 544.4 678.71 548.8 683.03 549.07 684.12 552.65 682.17 559.58 686.84 562.32 688.45 565.7 686.68 576.83 688.17 582.07 695.52 579.62 706.8 583.5 714.79 582.58 717.9 586.39 721.89 585.85 725.08 578.34 731.14 575.22 735.13 576.67 741.82 597.82 745.06 604.94 755.89 635.07 748.61 635.62 746.1 637.68 743.36 644.74 742.26 658.37 746.24 658.57 751.5 670.86 754.49 672.83 765.11 671.88 770.57 675.52 786.85 721.37 789.22 733.33 794.53 741.23 799 755.4 792.26 754.16 786.56 759.14 788.96 766.94 792.02 773.33 796.63 779.37 796.69 788.99 793.12 798.02 795.6 805.92 793.66 816.09 798.26 821.83 791.43 823.89 791.36 838.88 786.04 839.88 782.06 848.01 783.71 854.55 779.48 868.28 772.27 872.07 762.09 868.77 754.44 877.28 742.3 887.52 741.89 892.76 738.09 899.14 740.65 908.04 737.43 912.64 738.24 917.38 741.18 920.07 748.18 920.64 753.37 914.47 762.78 915.42 766.21 923.16 764.34 927.79 758.18 934.31 761.62 941.78 761.23 950.37 750.39 957.04 745.54 961.38 745.17 971.34 742.36 977.16 738.07 981.46 735.8 986.42 733.44 1001.18 733.89 1013.44 730.4 1017.6 710.59 1013.44 706.87 1015.21 696.2 1015.47 692.79 1024.78 686.19 1030.48 680.7 1042.7 682.04 1046.01 689.54 1050.9 685.54 1069.86 687.83 1073.08 682.79 1085.16 681.9 1097.19 684.6 1106.75 683.42 1128.01 680.45 1137.03 667.72 1140.81 665.59 1145.02 655.81 1141.07 644.28 1133.45 629.53 1134.72 621.81 1138.76 614.94 1145.44 593.27 1144.71 589.85 1148.61 582.15 1154.33 573.88 1170.26 565.47 1171.22 557.46 1165.43 540.27 1150.83 540.46 1144.42 532.58 1140.46 528.89 1135 502.58 1138.94 495.47 1125.07 487.52 1119.32 482 1138.52 479.19 1142.61 478.89 1151.01 482.14 1154.25 485.65 1163.86 482.47 1172.87 477.49 1181.37 479.31 1196.33 493.99 1201.78 506.45 1203.09 524.17 1197.29 538.27 1203.95 539.79 1211.41 545.74 1220.58 548.96 1220.31 557.43 1223.31 552.85 1235.47 549.63 1265.73 543.94 1268.67 531.73 1268.18 526.9 1269.94 516.92 1266.81 509.16 1266.63 503.89 1264.67 495.55 1264.44 483.01 1262.13 464.1 1263.29 448.45 1265.63 440.95 1267.9 428.52 1268.49 420.08 1267.27 403.52 1267.33 391.09 1271 383.32 1270.34 376.96 1267.94 361.02 1267.71 347.69 1264.52 338.19 1260.6 331.18 1252.67 324.81 1247.37 318.6 1247.86 313.1 1244.37 312.92 1235.75 308.37 1232.15 303.06 1220.8 300.39 1210 299.91 1203.22 295.41 1200.54 290.85 1194.12 292.33 1186.79 289.89 1178.82 282.97 1175.03 280.31 1170.68 272.77 1167.88 268.52 1161.41 262.65 1158.86 255.21 1147.67 250.54 1147.92 242.55 1144.83 227.89 1136.94 224.92 1134.25 219.23 1123.89 219.01 1115.26 217.29 1102.48 213 1095.02 212.09 1087.53 213.41 1084.1 209.56 1075.74 210.22 1070.62 208.28 1067.19 215.32 1048.77 214.29 1042.95 205.77 1032.59 203.28 1025.04 203.56 1018.43 200.85 1009.96 202.83 1000.9 205.77 995.86 204.42 992.43 209.19 984.39 208.25 978.46 202.63 970.65 198.85 962.74 190.49 956.42 189.61 951.96 182.52 943.22 172.42 938.8 170.25 936.21 168.58 916.76 172.79 905.34 172.54 896.42 169.88 890.06 169.87 883.57 165.41 878.51 158.87 874.64 154.81 867.44 152.63 860.82 154.61 847.23 157.53 838.97 165.44 836.44 167.57 833.89 166.42 820.57 162.81 812.9 148.44 794.79 140.83 792.22 133.42 794.2 127.58 790.34 125.1 773.72 125.69 767.1 129.2 764.67 128.99 758.3 131.6 751.77 130.01 747.85 121.52 742.03 127.28 737.23 127.59 731.09 124.96 727.71 126.23 720.29 125 714.26 131.37 713.7 133.93 708.88 126.97 707.34 126.76 703.05 130.84 695.19 130.42 689.54 128.09 686.84 132.75 674.95 131.12 668.33 134.89 659.1 132.63 652.81 136.62 646.79 145.69 651 145.58 641.78 140.33 636.46 140.07 628.87 136.16 625.7 131.27 626.81 130.03 620.19 132.51 617.75 143.09 616.09 145.86 611.87 145.42 605.28 142.02 602.87 134.65 602.67 130.76 605.66 126.46 600.53 125.09 593.2 128.51 588.73 132.98 591.37 138.54 588.29 138.72 582.47 131.08 580.55 130.18 576.8 132.99 570.12 130 559.58 136.26 543.03 135.64 538.44 125.79 535.23 117.98 533.84 115.99 528.91 124.93 523.55 124.41 516.69 131.02 514.19 132.69 511.34 129.24 503.32 131.7 500.02 123.29 497.56 116.87 503.24 110.71 502.92 107.49 498.56 98.03 490.61 95.95 483.7 91.31 478.3 83.95 477.06 76.51 472.87 73.59 475.05 66.77 490.19 60.37 492.1 37.1 506.64 33.91 507.45 33.95 496.08 27.54 483.23 22.64 482.19 1 483.81 5.48 470.79 4.98 467.65 7.19 457.69 10.13 449.38 19.44 432.77 28.48 425.14 31.8 420.41 39.48 415.75 54.92 410.54 54.11 398.94 57.9 390.93 62.53 390.03 70.65 398.99 75.73 397.28 76.61 383.33 81.26 378.43 81.26 362.44 78.7 345.91 74.22 337.92 71.29 321.43 68.05 308.5 65.19 302.12 67.33 289.27 70.15 285.86 70.03 273.18 68.05 255.49 74.98 250.55 73.57 245.97 76.61 242.81 81.24 244.05 86.12 249.1 87.7 254.11 96.26 263.14 93.44 275.09 95.81 281.15 105.45 281.71 110.37 275.95 121.46 274.99 133.76 267.8 143.41 271.17 148.39 271.47 152.86 276.64 162.85 278.22 181.77 273.86 189.92 279.73 194.5 280.52 197.02 286.87 199.77 285.71 204.81 293.9 209.64 289.64 214.09 235.38 215.39 210.58 217.24 193.12 221.14 185.39 227.71 179.77 236.23 177.43 243.43 177.4 264.5 184.49 278.01 184.21 289.18 181.11 293.82 174.48 294.12 170.21 299.33 170.23 302.7 165.55 312.66 140.87 319.6 132.46 329.51 128.47 338.89 127.69 346.26 123.3 383.24 70.65 387.4 65.8 396.26 59.94 411.87 56.42 417.15 53.94 424.01 48.66 426.73 49.81 431.18 41.17 436.49 34.58 440.62 34.15 448.02 28.58 452.3 21.7 452.48 15 450.68 12.52 444.42 16.63 442.87 11.6 450.65 6.69 454.77 1.62 458.64 1 468.3 8.81 473.33 14.76 477.19 23.04 471.92 28.18 470.56 35.12 476 36.28 476.19 40.42 470.63 41.67 469.36 48.13 475.25 53.34 476.34 58.54 472.99 63.74 478.92 68.82 478.86 75.83 483.51 76.32 490.01 73.48 493.45 67.53 492.33 62.69 496.24 59.85 500.78 62.21 505.79 59.27 512.07 58.92 517.16 53.81 523.7 53.84 528.74 60.3 524.56 64.62 525.9 73.55 520.84 73.43 520.63 67.5 515.08 63.86 507.09 70.2 502.77 76.69 505.23 90.01 509.64 94.11 520.4 86.75 524.97 85.87 530.4 90.85 534.46 89.31 539.27 83.62 545.38 84.81 549.79 89.84 548.68 99.59 540.93 112.36 534.33 112.48 530.38 118.05 530.63 124.52 527.66 132.58 525.58 133.3 Z" id="31060000"/>
</g>
</svg>