<?xml version="1.0"?>
<svg xmlns="http://www.w3.org/2000/svg" version="1.2" baseProfile="tiny" width="800" height="647" viewBox="0 0 800 647" stroke-linecap="round" stroke-linejoin="round">
<g id="sigung">
<path d="M 107.63 523.86 118.41 517.8 119.52 519.22 123.48 517.03 123.73 517.07 125.51 520.44 125.92 521.53 131.8 533.99 130.58 534.51 114.46 539.65 113.36 540.03 111.01 530.7 109.63 528.25 108.93 527.35 106.4 528.63 105.48 526.64 107.94 525.26 107.63 523.86 Z M 732.22 1.45 733.15 3.63 731.14 5.33 730.3 6.83 728.3 8.87 727.27 13.79 727.27 14.87 729.28 15.99 729.28 18.6 729.06 19.03 729.73 20.29 730.14 21.85 730.04 23.62 729.16 25.27 726.98 27.99 727.24 28.25 727.48 32.39 727.75 34.69 727.15 36.79 726.15 38.06 726.31 38.68 727.22 39.44 727.56 40.83 726.41 42.72 723.21 42.81 722.23 43.89 721.73 43.24 719.43 41.98 718.36 40.35 717.45 40.83 715.94 40.76 715.18 40.35 713.94 41.81 710.5 45.11 710.59 47.4 710.04 49.77 708.01 50.39 705.05 49.99 702.71 50.61 702.73 51.56 702.23 52.35 702.11 56.25 703.04 57.97 703.38 59.67 703.23 61.32 704.19 63.76 703.43 65.45 704.07 67.18 704.36 69.88 703.52 70.74 703.5 71.77 704.07 73.56 706.41 76.81 708.08 79.51 709.59 82.29 710.47 84.27 712.07 88.41 716.57 101.08 720.46 111.43 722.35 116.97 723.59 120.13 725.84 126.3 727.15 130.43 728.47 133.42 732.62 144.9 734.08 145.21 734.53 145.9 735.25 148.24 734.58 149.8 735.39 152.36 737.14 153.79 738.33 153.77 738.76 154.13 737.88 155.61 736.16 156.21 735.16 157.93 735.39 159 736.64 160.13 738.21 162.73 738.09 163.07 738.81 165.29 739.36 166.03 739.6 168.42 737.57 171.1 737.23 173.2 736.14 174.42 735.49 176.1 736.49 177.65 734.68 179.35 732.62 179.61 731.17 180.88 729.85 181.48 728.13 182.77 726.77 181.98 722.59 181.52 720.92 181.86 719.6 181.07 717.38 182.89 716.23 182.62 715.23 183.46 712.58 182.89 711.53 182.17 709.47 183.17 705.53 182.07 704.43 183.17 700.78 181.52 700.13 181.48 698.43 182.84 696.74 183.34 695.57 182.86 691.41 183.53 691.03 185.06 692.05 185.73 692.96 187.07 690.02 189.27 688.73 190.73 689.57 191.97 689.38 192.76 688.66 193.38 688.92 195.03 689.5 195.94 690.38 196.44 692.68 196.85 692.75 197.9 691.39 198.9 690.62 200.08 688.97 201.56 688.02 202.8 689.24 204.98 689.9 205.02 690.55 207.34 691.34 209.26 693.44 210.31 694.32 209.93 696 211.74 698.58 212.77 699.56 212.44 701.06 212.51 703.26 211.14 703.88 211.69 705.7 212.08 706.39 211.67 708.28 211.93 710.28 213.01 712.79 212.17 714.37 212.89 715.68 213.13 716.38 215.23 719.05 215.5 719.91 218.01 721.99 218.25 724 220.23 725.74 218.39 726.65 217.74 728.4 218.39 730.62 217.67 731.45 216.09 733.29 215.28 736.83 213.1 737.98 214.71 740.89 216.28 741.78 215.9 742.8 216.6 743.85 219.39 742.9 222 743.54 223.89 746.7 225.89 747.8 227.74 748.06 228.91 747.82 230.29 746.51 230.6 746.51 232.11 745.6 234.29 742.59 234.91 742.85 236.44 743.33 237.39 742.54 239.98 742.04 243.08 742.35 244.11 741.35 244.4 739.17 245.57 736.73 246.5 734.58 246.57 733.03 248.94 730.62 250.64 729.83 252.77 728.11 255.44 727.2 257.91 728.44 258.46 728.35 260.46 727.42 261.33 724.86 262.4 724.05 264.03 722.78 264.39 721.66 265.17 719.77 267.37 719.08 267.92 718.24 269.69 717.48 269.74 716.35 270.82 715.3 271.39 714.49 272.47 712.87 273.69 711.55 273.85 709.31 273.42 707.97 274.62 706.58 275.53 704.7 276.36 703.93 278.56 702.57 280.14 700.73 281.77 699.87 283.08 698.96 285.11 698.82 287.1 696.98 287.91 695.97 289.08 695.64 291.52 695.86 292.29 696.98 293.19 697.98 294.84 699.3 296.11 698.51 297.43 699.87 299.43 701.97 300.53 703.14 301.42 704.17 303.45 706.13 305.89 707.63 306.92 711.29 309 711.86 310.69 711.67 311.72 710.53 313.28 711.5 313.47 713.49 313.01 716.16 312.77 717 312.15 718.03 311.94 718.24 313.11 719.56 313.01 721.47 307.59 723.55 301.47 724.81 299.43 731.05 291.59 739.89 295.63 740.34 293.93 741.23 294.2 743.38 295.85 745.91 295.58 748.61 296.23 752.31 296.47 757.35 295.58 758.31 294.87 759.82 294.68 762.47 294.94 763.06 294.63 764.04 295.13 765.69 296.78 769.44 297.86 770.73 299.34 772.62 298.17 772.88 297.76 774.77 298.07 776.97 298.07 777.4 300.6 779.26 300.96 780.77 300.56 781.58 300.6 782.75 301.94 784.02 302.54 785.79 303.95 787.53 304.19 788.15 304.93 789.7 305.55 791.74 307.66 795.13 309.45 795.87 310.93 795.06 312.34 795.18 314.23 796.47 315.45 795.44 316.74 795.15 317.72 795.61 319.23 794.51 320.38 794.65 322.67 794.12 323.72 795.03 324.68 795.37 327.24 795.13 327.98 793.81 329.6 792.48 329.91 790.9 331.61 789.16 331.87 788.41 333.02 788.44 333.84 786.58 335.96 784.83 336.68 783.49 338.26 781.96 338.28 781.15 339.43 779.98 340.29 780.17 341.13 779.79 342.01 779.77 344.98 779.34 346.98 778.11 347.64 778.55 348.62 778.38 349.76 779.07 353.85 779.77 354.71 780.27 355.93 779.1 358.08 779.58 360.23 781.99 359.85 782.3 360.23 782.59 362.12 784.95 362.74 785.38 364.68 786.96 366.78 787.82 368.91 788.58 369.15 789.06 370.01 790.54 370.65 791.33 370.34 791.81 371.37 792.74 371.85 793.31 373 793.53 374.64 794.91 376.8 796.13 381.22 797.4 383.63 798.4 387.12 799 390.47 798.76 390.85 796.04 390.57 789.28 390.16 778.72 392.24 778.17 392.62 772.58 397.67 764.4 400.87 759.79 402.62 759.89 404.53 759.55 405.75 759.98 406.54 759.58 407.92 759.41 410.08 758.34 411.58 756.83 413.02 755.83 415.41 755.09 416.65 752.98 417.89 750.02 419.97 749.14 420.21 750.71 423.03 756.76 423.44 761.42 425.23 761.47 430.06 771.5 438.52 770.31 439.98 768.97 439.53 766.63 439.55 765.07 438.21 763.5 437.52 761.51 437.54 761.56 438.62 762.95 440.39 763.04 441.87 761.13 442.76 758.86 443.35 758.84 444.29 756.21 444.26 756.21 446.2 748.61 446.25 735.57 446.27 736.62 448.02 737.84 448.71 735.54 451.2 733.42 452.94 732.2 455.86 732.32 456.74 731.27 458.03 730.65 460.32 729.67 461.24 727.54 462.65 727.01 463.51 723.44 462.07 721.2 461.7 717.27 462.03 716.01 461.71 714.64 460.54 714.02 458.26 713.06 456.6 711.87 456.29 710.05 457.8 710.32 458.77 710.42 461.03 708.56 461.05 708.37 463.74 707.91 465.46 707.1 466.51 706 467.21 703.62 467.63 701.25 467.42 699.92 468.58 699.55 469.95 699.32 472.59 698.74 474.4 697.36 475.59 695.91 476.04 693.69 475.71 691.71 476.85 690.97 478.03 689.35 478.37 687.92 480.18 688.13 481.16 687.18 481.8 686.83 483.88 686.3 485.25 685.7 487.97 685.13 488.99 681.9 488.77 680.42 488.93 678.04 490.69 677.67 491.86 676.62 492.25 676.83 494.61 676.6 500.09 676.26 501.27 676.38 502.37 677.99 503.05 679 503.76 680.72 505.71 682.24 505.54 685.64 505.79 686.76 506.8 687.79 507.37 688.53 507.36 690.27 508.84 690.27 510.25 688.85 511.41 687.55 513.29 685.8 514.94 685.75 515.28 683.93 516.85 682.55 518.56 680.79 519.59 681.23 521 680.67 521.76 677.69 522.87 677.54 525.04 677.96 525.67 677.65 527.56 676.82 529.56 676.59 531.5 675.69 533.69 676.06 534.94 675.61 536.71 675.07 537.78 673.53 538.29 672.37 537.88 670.97 537.78 668.96 536.61 666.87 534.94 665.06 532.08 663.63 530.82 662.44 528.97 660.96 527.74 658.63 526.12 657.03 525.3 654.73 523.57 653.56 524.12 650.36 528.29 648.28 530.12 645.54 532.28 642.61 533.86 641.51 534.87 640.2 535.56 637.58 537.83 636.47 539.84 635.41 541.13 633.05 542.65 632.48 543.59 631.28 543.95 630.68 544.5 629.79 546.84 628.93 547.77 627.96 547.01 627.88 545.77 628.32 544.64 626.49 542.84 625.71 542.5 623.53 542.34 621.66 543.19 619.83 544.25 618.05 544.39 617.32 544.21 616.74 543.44 616.7 542.52 617.08 539.68 615.41 538.19 613.04 538.88 610.63 539.03 609.68 539.5 607.2 541.52 604.01 544.83 601.95 544.95 600.12 545.47 599.48 545.93 597.49 546.58 597.87 548.29 596.96 550.1 595.77 551.06 594.05 551.49 593.03 552.17 591.28 551.95 590.58 550.84 588.86 550.36 587.7 550.57 587.11 551.79 585.74 552.46 585.38 553.69 583.59 556.7 582.57 556.88 581.5 557.66 580.46 557.9 579.36 558.69 577.68 559.25 577 560.21 576.1 560.53 575.39 560.1 574.84 560.7 572.53 562.15 569.01 562.18 568.29 561.71 567.28 561.76 566.5 561.36 565.53 561.46 564.72 560.81 563.82 560.91 561.15 563.26 559.26 563.92 558.07 563.74 556.57 564.39 552.47 564.21 550.47 564.73 548.98 566.73 548.59 568.53 545.52 569.19 545.03 569.72 545.21 571.41 543.39 572.24 543.41 572.71 542.45 574.09 540.82 574.34 537.83 575.62 536.47 575.6 535.69 575.03 534.68 573.65 533.19 573.9 532.65 574.36 531.29 574.58 530.21 574.45 529.2 573.63 527.35 574.16 526.17 574.03 523.7 571.28 522.59 569.76 520.7 569.13 518.16 569.04 516.43 567.39 515.88 566.1 515.63 564.48 516 563 516.62 561.95 516.38 559.41 515.58 558.5 514.83 558.78 513.47 560.32 511.93 561.18 510.56 560.68 509.65 559.73 508.07 559.13 507.25 558.05 504.39 556.41 503.22 556.34 500.1 558.47 496.68 559.61 495.33 559.28 494.9 557.47 493.59 555.26 492.11 555.03 489.57 555.71 487.1 555.52 486.11 556.3 486.09 556.88 487.09 558.89 487.01 559.64 484.91 559.7 484.07 559.29 481.44 557.49 480.23 557.04 479.16 557.02 478.36 557.55 477.75 560.1 476.78 560.46 476.85 561.08 472.95 561.16 470.6 560.69 467.44 558.2 461 556.5 459.96 557.23 458.99 557.45 456.6 558.62 453.22 561.4 440.5 564.12 428.22 575.47 415.36 581.69 397.25 587.07 373.75 595.7 342.72 604.29 293.97 633.76 280.29 645.76 278.87 645.99 278.77 646 276.45 632.71 275.42 627.03 273.55 627.37 273.16 626.76 273.36 625.67 272.09 623.94 271.68 622.45 271.67 620.92 272.01 618.92 273.69 617.73 272.48 615.17 272.14 613.98 271.16 613.39 269.87 611.05 269.91 610.17 269.02 608.45 268.09 608.91 265.98 609.31 264.88 595.07 264.98 593.14 265.93 590.67 266.41 588.88 266.53 587.47 266.32 585.36 265.42 582.93 264.87 582.02 256.9 571.03 254.35 569.12 230.92 553.95 189.06 561.84 187.54 556.02 185 545.81 184.22 545 180.81 542.3 179.22 544.13 178.69 544.32 171.53 538.66 170.86 538.43 165.33 534.05 167.26 531.62 164.4 529.4 160.21 521.98 152.31 526.37 151.19 526.77 142.07 510.34 141.61 510.29 140.24 507.95 140.32 507.13 144.88 504.57 143.01 501.3 142.58 501.54 141.82 500.13 142.71 499.64 142.42 499.04 141.48 499.53 139.7 496.29 136.12 498.28 112.58 456.28 113.27 455.91 112.87 455.16 111.97 455.24 109.35 450.55 109.71 449.55 108.73 449.56 106.43 445.34 107.12 444.97 106.72 444.22 105.84 444.32 103 439.27 103.67 438.82 103.29 438.11 102.43 438.22 99.59 433.16 100.28 432.75 99.88 432.01 99.01 432.1 95.83 426.34 96.77 425.89 100.12 421.27 105.62 418 105.22 417.55 102.86 418.32 100.88 419.42 99.08 420.94 96.41 424.78 95.38 424.5 90.08 425.08 73.39 418.26 73.76 418.2 84.51 422.52 85.05 421.15 89.51 422.98 94.07 411.78 95.63 407.81 77.39 400.29 71.6 397.96 67.14 408.98 66.83 409.1 64.64 414.46 66.77 415.56 48.82 408.25 49.2 408.19 54.65 410.41 58.17 401.72 60.36 400.78 63.24 401.96 65.41 396.64 65.55 395.42 63.87 394.52 58.96 392.5 54.69 390.82 46.4 391.73 46.76 395.04 45.24 395.2 44.88 391.89 41.42 392.25 41.73 395.83 40.89 395.93 42.43 404.74 42.24 405.12 39.81 391.28 34.53 391.25 33.65 393.57 33.24 393.89 32.35 396.3 31.77 396.62 31.13 398.93 27.29 398.95 25.47 399.15 23.63 398.29 22.18 397.3 22.08 396.62 15.84 385.08 10.05 386.37 8.69 385.27 7.81 386.39 7.44 385.47 8.22 384.48 10.12 386.02 15.38 384.77 15.77 384.42 13.8 382.14 13.47 382.12 12.16 380.48 11.75 379.64 10.18 377.61 8.08 377.77 6.07 378.89 5.58 377.91 6.72 377.41 6.31 375.86 6.67 374 8.16 373.84 4.27 369.06 4.09 369.03 1.16 365.47 1 364.7 18.68 350.09 21.56 349.61 23.2 349.51 23.96 349.83 40.96 347.05 41.12 348.93 68.9 348.96 75.63 349.1 81.49 349.12 108.2 349.15 118.33 349.19 135.53 346.73 154.74 335.95 162.53 327.2 166.38 321.27 171.73 312.59 181.83 295.21 196.65 268.12 210.79 244.93 213.52 239.39 220.01 226 223.88 214.6 224.22 207.11 227.44 207.9 235.07 207.26 235.3 207.66 240.61 206.95 241.71 206.56 244.8 205.05 246.8 204.51 250.45 203.21 253.89 202.81 255.71 200.11 258.26 199.72 261.66 198.94 262.97 194.9 263 194.01 268.35 190.23 270.04 189.95 269.88 191.24 270.19 194.13 269.18 195.11 269.14 196.19 270.04 199.25 270.62 200.63 272.55 201.3 273.29 200.63 274.89 200.85 275.3 201.52 276.28 201.83 277.83 201.78 278.74 201.4 279.77 201.52 280.7 202.12 283.14 202.07 284.33 203.02 286.15 204.82 286.1 206.66 287.08 207.83 288.01 208.43 289.76 210.31 290.88 210.75 291.71 210.15 293.84 209.6 295.15 210.55 295.8 210.43 296.92 209.12 297.93 210.22 298.17 211.13 298.93 211.73 301.3 212.25 301.73 211.84 303.71 211.39 305.72 211.58 307.01 209.67 308.68 208.93 309.63 208.23 315.92 205.7 316.59 204.91 317.85 204.41 319.31 204.27 319.64 204.89 321.87 206.2 322.77 206.47 323.35 207.49 323.13 208.47 323.78 209.29 324.76 211.58 324.02 212.14 319.8 212.65 320.01 214.5 325.35 213.83 325.5 214.81 326.24 216.34 325.71 218.8 327.15 219.64 330.54 219.45 331.9 221.29 333.36 221.34 334.65 221.67 335.37 221.31 336.63 221.67 341.2 222.22 343.8 223.89 344.49 223.92 345.9 222.1 346.43 222.63 347.5 222.89 348.48 222.43 349.82 223.37 352.14 223.25 354.48 222.72 357.47 221.31 360.57 221.14 361.89 221.45 362.05 220.24 361.72 217.8 360.84 217.51 358.95 214.88 359.14 213.02 359.88 210.43 360.79 210.05 361.58 209.02 361.65 205.48 363.06 203.5 362.99 202.5 365.14 202.07 367.33 202.35 368.41 203.12 370.49 203.79 371.61 203.69 375.31 204.03 377.85 204.03 379.83 203.21 380.74 203.05 383.08 201.73 384.34 201.44 385.56 202.4 386.07 202.23 387 202.85 387.52 203.67 388.55 204.41 390.15 204.05 392.33 205.1 394.59 205.39 396.15 204.98 396.55 204.03 397.46 202.9 399.71 201.54 400.93 198.36 401.57 197.09 401.76 196.02 403.39 193.89 403.84 192.91 405.68 190.85 407.81 191.19 410.33 191.96 412.27 193.13 414.35 193.79 415.86 194.77 416.41 196.16 417.79 196.95 419.42 197.4 421.21 197.19 422.91 196.59 423.46 196.83 424.79 196.42 426.54 196.4 429.24 196.9 431.01 196.4 432.89 195.54 435.24 195.25 436.05 195.35 438.82 194.94 442.25 196.16 443.86 197.45 443.24 199.39 443.91 199.56 444.72 200.53 445.44 200.73 446.03 199.82 446.8 199.86 449.57 199.15 450.05 197.79 450.65 197.48 452.53 197.45 455.9 199.48 457.14 199.77 459.53 199.65 461.8 199.15 462.46 200.48 464.62 198.91 465.46 196.97 465.39 195.35 464.58 193.53 463.19 192.48 459.37 191.26 458 190.69 456.17 189.44 454.83 187.7 452.7 183.9 451.27 182.13 450.88 180.42 451.48 179.5 453.35 179.23 455.95 179.73 457.46 179.85 461.47 179.83 462.57 179.16 463.17 178.3 463.33 176.32 463.05 174.36 462.23 172.42 460.82 170 458.41 166.97 456.8 165.23 455.97 163.88 454.97 163.05 453.78 161.23 451.86 157.07 451.1 154.49 451.05 152.86 451.67 152.07 453.61 151.72 457.24 152.1 459.84 152.62 462.04 152.91 464.05 153.72 464.89 154.78 465.86 156.57 466.13 158.34 466.84 159.92 468.71 160.82 469.97 160.32 471.1 158.91 471.74 156.5 471.48 155.11 470.17 153.34 468.16 151.26 466.15 148.97 461.83 147.41 461.52 146.86 461.49 145.14 462.42 142.44 463.5 141.34 464.34 140.89 467.37 138.62 467.73 137.95 467.94 135.2 467.35 132.49 465.48 130.06 464.88 129.03 464.96 127.47 465.98 126.71 467.97 126.42 468.62 125.37 467.72 124.25 466.03 124.37 464.67 123.75 464.72 122.62 465.82 121.81 467.23 119.94 467.08 119.23 465.31 118.68 464.6 117.72 464.19 116.19 465.91 115.74 466.49 114.8 466.53 113.92 465.98 110.33 465.03 110.05 464.34 110.64 463.88 112.1 462.78 112.13 461.4 110.93 462.04 109.11 461.52 108.09 461.68 106.99 462.4 106.7 463.33 107.27 465.91 107.39 466.92 106.84 467.35 102.4 466.63 101.34 464.98 101.22 463.24 100.32 462.81 99.58 463.14 97.76 462.66 96.99 461.95 96.75 461.28 95.7 461.97 93.41 463.31 92.52 465.1 93.57 467.01 93.33 468.25 93.45 471.1 93.41 471.86 92.95 472 91.85 471.41 89.37 470.16 88.82 467.92 90.37 466.37 90.49 464.12 88.67 462.38 89.08 461.52 88.79 461.2 87.52 461.16 85.85 459.58 83.72 458.96 81.09 459.75 80.76 463.04 81.88 467.03 82.19 467.85 81.79 468.44 80.71 468.87 77.87 467.68 77.77 467.61 79.68 467.13 80.52 465.79 80.64 463.28 79.83 462.47 79.37 461.52 78.3 460.8 76.58 461.4 75.48 462.3 75.19 463.52 75.81 464.19 76.82 465.1 77.37 465.94 77.27 466.87 75.72 466.89 74.14 467.49 71.98 466.8 70.53 467.06 68.92 468.4 67.39 469.81 66.75 470.45 66.1 470.83 65.03 470.67 64.02 469.88 63.64 469.11 62.66 468.85 61.78 469.23 60.68 469.57 58.55 468.59 58.26 469.81 57.33 469.78 56.33 466.17 55.18 465.82 54.51 466.03 52.48 466.99 51.71 468.23 52.24 469.66 53.63 471.55 52.88 471.22 51.4 469.64 50.21 469.35 49.42 469.57 48.22 470.31 47.72 471.12 47.79 473.51 49.56 474.49 49.32 474.7 48.17 473.37 47.55 473.08 46.57 474.27 45.35 476.14 45.62 478.91 45.5 479.74 45.66 482.13 45.09 482.78 44.54 483.38 45.33 485.29 44.68 486.91 44.87 488.73 45.69 489.37 44.63 490.42 43.85 494.56 43.18 496.56 42.41 499.43 42.67 499.84 42.46 505.62 40.91 508.56 40 510.16 38.87 512 37.3 513.84 36.46 516.3 34.62 518.57 34.31 520.17 33.73 522.49 31.85 524.04 31.92 524.64 32.49 526.55 32.06 529.68 30.48 532.12 30.67 534.24 30.31 534.91 29.84 535.53 28.71 535.37 27.83 536.23 26.89 538.33 26.92 541.12 25.91 541.96 25.77 543.66 24.98 546 24.81 547.04 22.85 548.63 23.52 550.9 23.79 552.86 23.6 552.21 24.55 551.56 26.2 550.35 27.54 550.3 28.62 550.68 30.58 551.64 33.37 552.52 34.78 554.07 36.74 555.51 38.06 557.08 40.19 557.59 41.45 561.15 45.3 562.84 46.31 564.04 47.38 564.59 48.82 565.57 49.82 566.59 50.44 567.6 50.37 568.19 48.77 567.84 47.26 567.79 45.45 567.17 43.27 567.26 42 568 41.67 569.99 41.69 571.63 41.17 573.19 40.35 575 40.21 577.32 41.91 577.68 40.86 578.47 40.4 579.23 41.02 581.62 41.14 581.77 40.35 582.91 39.25 582.65 36.65 583.01 35.67 584.8 34.28 587.12 33.23 588.5 31.2 589.41 30.5 590.46 30.65 591.42 31.27 592.78 32.97 594.62 34.11 595.44 34.22 596.36 33.73 599.52 33.9 599.85 34.52 600.71 34.02 609.1 34.88 608.93 36.86 612.42 36.79 611.92 39.47 611.3 40.28 612.08 43.56 611.7 46.12 613.16 47.55 613.52 48.86 614.86 46.98 616.91 45.45 617.99 46.04 620.92 48.79 622.45 51.85 625.66 50.73 626.28 52.43 629.07 51.66 630.24 49.75 631.46 49.25 631.99 48.67 633.01 48.41 634.88 47.24 637.31 46.74 639.25 44.99 639.61 51.28 640.25 51.28 642.19 50.11 644.03 49.92 644.6 50.2 646.13 49.94 647.47 48.46 648.16 47.26 649.93 47.19 650.67 47.6 652.01 47.72 654.8 48.79 657.53 46.86 660.06 45.56 660.32 43.91 661.66 41.79 662.55 41.12 662.81 40.16 664.05 40.09 665.15 40.76 667.16 41.14 668.4 41.79 668.57 41.07 664.48 37.27 665.75 36.62 665.08 35.79 663.07 34.5 661.73 33.23 661.35 32.3 659.7 30.46 657.58 27.56 658.6 27.16 660.08 26.08 660.39 24.29 661.95 23.57 662.52 23.02 664.24 22.52 665.51 20.77 666.58 21.25 667.37 22.04 668.47 22.23 670.76 23.26 671.67 23.02 672.77 23.28 674.21 22.09 678.55 21.97 679.15 20.46 678.29 18.81 678.34 16.85 679.36 15.08 681.68 14.01 682.85 12.6 682.69 10.61 683.14 9.66 683.83 6.48 685.39 7.12 686.46 6.88 687.39 5.64 687.18 4.4 688.44 4.23 689.97 3.18 691.48 4.76 691.26 6.76 691.5 8.41 692.74 8.84 694.73 8.01 696.93 7.98 697.09 7.38 699.86 5.73 702.25 5.97 703.28 6.81 705.34 7.07 707.18 3.34 708.68 2.44 712.07 1.98 713.12 1 714.34 1.79 717.45 2.1 720.03 1.1 720.67 1.22 722.08 3.03 723.64 3.68 725.6 1.19 726.29 1.69 727.79 1.31 729.08 1.38 730.61 2.03 732.22 1.45 Z" fill-rule="evenodd" id="31070000"/>
</g>
</svg>