<?xml version="1.0"?>
<svg xmlns="http://www.w3.org/2000/svg" version="1.2" baseProfile="tiny" width="800" height="878" viewBox="0 0 800 878" stroke-linecap="round" stroke-linejoin="round">
<g id="sigung">
<path d="M 524.49 144.25 520.97 148.32 519.9 154.86 516.59 157.23 514.94 161.11 511.85 163.55 510.27 166.28 509.63 169.72 510.42 173.46 507.97 177.41 509.2 185.66 508.69 189.83 502.23 190.55 496.12 195.43 492.03 197.3 492.68 201.53 495.98 205.05 494.62 210.44 487.65 215.32 483.05 220.2 479.82 221.93 474.79 226.09 473.36 230.4 468.4 235 466.97 239.09 464.02 244.19 463.66 247.13 464.95 250.8 464.45 259.05 462.01 273.77 461.94 281.03 461.36 286.77 458.78 300.13 454.76 309.03 451.38 313.92 446.57 315.93 441.11 315.5 438.67 324.76 433.79 334.88 426.17 336.75 430.12 343.14 431.77 344.36 426.96 347.95 418.99 353.05 413.75 354.78 409.51 355.42 401.25 357.58 398.67 368.71 391.27 374.09 384.59 377.11 378.2 385.3 378.99 387.52 376.04 401.31 373.96 408.2 377.84 419.48 376.69 434.13 384.37 438.07 386.6 443.89 384.37 446.48 383.51 450.14 390.48 453.44 399.89 456.31 402.55 459.83 407.21 462.2 412.24 458.9 416.84 460.19 420.28 456.39 424.81 455.09 428.04 450.14 431.13 449.49 434.07 451.43 437.16 450.35 440.32 451.65 445.21 456.89 446.86 460.33 449.73 460.62 453.68 462.27 464.53 473.33 467.11 474.77 466.9 477.5 470.56 476.71 479.25 467.87 481.48 466.29 484.57 466.51 488.59 463.78 490.17 461.41 493.33 459.62 498 459.54 508.05 461.34 513.65 466.08 516.6 470.53 521.05 466.58 528.16 463.71 531.68 458.83 533.83 457.68 538.14 457.25 547.62 457.25 557.61 453.65 562.92 450.06 565.79 449.27 570.32 449.99 579.23 448.56 581.88 445.4 590.79 445.25 593.45 446.33 595.53 444.18 599.98 448.2 602.42 454.44 604.51 455.38 612.69 461.77 622.61 472.25 623.11 475.05 621.17 476.49 617.29 476.63 612.69 479 611.62 481.44 612.34 485.54 617.36 489.27 624.26 492.21 627.06 494.3 633.59 491.93 636.47 491.5 640.35 492.72 642.36 494.44 647.03 494.87 644.94 502.34 645.09 510.53 644.08 515.98 639.99 519.65 637.9 528.19 639.34 533.65 641.35 537.31 642.65 547.08 642.86 551.89 651.12 560.22 652.41 562.73 652.2 565.32 648.54 568.69 647.24 571.13 643.22 574.36 647.75 575.8 651.12 578.17 655.86 577.38 657.44 575.94 661.97 576.09 665.34 574.72 669.29 575.15 679.49 574.94 683.87 573.21 687.17 570.63 689.19 567.9 697.8 566.82 705.49 563.81 723.3 563.88 729.41 564.67 732.35 562.51 739.61 560.97 741.84 566.35 742.7 570.88 741.8 576.95 744.82 581.79 746.83 586.92 749.34 589.54 755.26 590.55 756.76 594.29 754.68 600.12 753.23 611.64 756.32 612.91 759.79 616.13 762.06 619.55 764.15 626.35 770.34 629.84 772.67 634.2 780.4 637.94 788.78 643.52 797.64 645.54 798.96 651.66 799 656.11 793.71 661.34 788.22 664.98 783.45 671.38 777.26 674 775.07 675.6 764.54 679.12 762.15 681.67 760 682.33 756.55 687.93 755.42 695.13 751.94 704.92 750.85 712.54 746.79 720.31 746.26 722.45 740.46 727.74 732.52 730.3 730.43 744.37 728.07 749.97 725.9 756.7 725.45 759.91 725.16 772.59 722.12 782.51 722.75 784.26 720.66 787.42 715.96 785.3 710.84 780.82 706.68 773.03 705.35 768.65 701.54 766.28 695.88 767.17 690.01 762.63 683.8 754.68 680.61 754.07 675.79 745.92 668.97 739.28 664.8 737.95 661.39 735.54 659.71 731.74 658.66 725.81 651.55 714.97 647.53 704.74 645.34 700.07 640.74 694.07 637.73 691.7 631.8 694.27 628.07 696.66 620.74 696.01 616.47 697.2 608.42 697.77 605.91 698.42 597.91 697.89 589.18 698.5 582.71 698.02 570.94 689.11 566.37 691.74 562.71 692.17 560.66 688.58 557.9 686.68 551.37 687.38 547.3 690.77 546.82 692.9 540.45 697.27 538.25 700.43 529.42 703.23 524.25 703.66 519.62 709.69 518.15 714.58 513.05 716.37 510.78 715.91 511.18 721.11 502.81 725.17 503.64 732.13 503.13 736.48 496.53 740.21 489.67 746.96 491.21 748.75 489.99 751.65 484.47 757.01 483.56 761.27 482.18 761.85 471.59 755.26 463.68 754.29 460.52 751.04 459.21 751.04 454.98 756.98 452.75 754.03 448.98 755.33 446.42 754.13 445.68 750.55 438.42 748.04 432.79 748.61 430.09 747.43 430.56 742.44 426.97 741.58 423.88 738.96 421.08 739.17 413.43 732.85 409.37 740.47 407.36 739.32 402.71 742.58 401.4 745.94 400.61 752.84 401.54 756.15 397.52 758.7 396.77 761.39 391.95 768.41 387.7 770.59 386.67 772.85 383.66 773.17 379.85 775.8 379.04 778.95 369.99 781.85 365.99 773.03 361.82 772.75 357.88 771 355.85 771.24 350.37 769.08 343.78 767.85 337.62 763.97 335.26 765.62 324.41 766.36 318.3 765.35 312.93 765.4 311.35 767.42 308.41 768.45 306.84 771.16 304.58 772.16 305.63 776.66 307.33 779.42 304.6 780.21 304.96 784.52 307.4 785.96 310.06 785.02 312.43 789.74 312.15 792.05 309.71 795.63 308.68 799.6 309.18 802.17 307.82 811.59 306.17 814.25 311.99 824.48 310.78 826.98 311.96 832.75 299.56 831.71 290.97 830.03 282.5 827.53 279.9 824.14 278.02 826.36 274.63 827.3 270.66 829.56 249.31 838.38 246.46 838.05 222.48 867.69 210.89 869.32 189.46 877 184.37 875.14 179.49 872.89 170.7 865.63 166.26 859.35 162.09 851.1 158.87 847.27 156.19 841.81 155.27 838.39 152.94 833.66 150.02 825.76 149.39 821.81 151.41 816.55 152.56 808.05 150.45 805.49 145.97 801.81 137.96 796.91 135.19 795.97 124.46 794.24 120.59 795.02 112.09 792.25 103.45 791.18 97.64 788.78 92.91 785.1 90.18 781.66 86.93 775.21 83.64 760.8 82.24 751.7 79.89 740.53 76.35 732.47 74.24 726.45 72.38 722.94 54.91 698.25 48.46 690.12 43.39 686.57 40.66 682.78 36.87 679.39 26.58 672.14 8.97 661.39 1 657.43 2.82 653.48 7.15 650.34 15.05 643.66 13.72 642.51 17.55 636.23 17.22 633.15 18.75 624.65 22.11 617 25.17 613.25 46.81 591.5 51.4 587.88 55.14 586.02 61.63 584.44 65.77 584.38 130.12 588.83 136.18 588.51 142.56 586.45 171.34 572.63 175.82 568.15 176.76 564.63 181.52 495.91 182.69 491.48 184.41 490.09 185.2 478.18 183.3 472.34 173.35 460.45 171.44 454.62 175.48 392.55 172.24 392.34 173.26 376.84 175.61 374.18 173.14 372.22 172.04 369.24 171.56 363.66 176.91 350.42 165.21 346.26 158.71 341.65 158.88 339.52 156.61 331.89 156.13 323.93 151.64 322.84 144.79 313.24 151.33 304.3 153.03 300.93 160.91 296.11 166.39 293.7 170.67 289.73 175.14 281.74 177.94 278.11 181.9 274.79 182.37 268.17 179.59 264.42 175.2 264.5 170.94 266.49 164.45 266.11 158.88 262.74 156.08 255.52 146.85 251.71 144.45 247.82 139.99 244.1 137.45 243.09 132.11 236.54 132.84 229.89 135.11 228.76 133.92 222.07 130.07 219.38 131.81 215.4 135.45 212.24 138.05 211.72 139.88 207.26 146.46 199.65 149.73 197.8 152.3 193.51 151.63 188.75 149.07 186.24 148.59 181.91 144.5 175.53 144.28 173.58 149.32 168.33 150.41 164.42 151.72 164.17 156.3 158.09 158.73 151.03 163.46 150.57 169.56 147.93 168.91 138.66 169.06 133.95 171.2 125.24 172.77 121.18 175.17 117.39 177.45 114.65 179.68 115.51 185.42 115.73 187.72 114.51 191.31 114.94 192.89 112.78 197.35 110.27 202.37 108.69 206.75 108.33 211.49 106.68 217.46 101.8 221.05 104.38 225.57 106.53 227.3 110.41 227.65 115.65 232.18 122.69 231.89 126.28 235.63 131.45 237.06 130.59 243.96 135.11 251.36 137.41 256.67 141.29 266.51 144.16 274.2 135.26 277.79 135.54 285.26 132.39 288.85 132.89 292.29 132.31 298.61 129.58 305.65 128 316.64 128.15 325.04 125.06 328.92 121.18 330.72 112.49 332.15 111.13 340.2 110.91 342.35 109.05 344 104.95 346.09 105.46 351.19 99.21 357.08 96.05 361.24 90.23 368.21 85.71 371.44 82.84 374.38 75.37 378.91 71.06 380.63 68.26 389.11 61.01 392.27 54.26 392.2 50.38 395.79 44.7 395.86 43.41 400.46 39.25 417.41 30.63 420.85 26.11 425.02 22.59 426.38 19.5 424.66 15.26 424.66 12.89 430.91 13.18 430.84 6.07 428.75 1 433.92 3.34 438.16 3.34 442.4 8.3 444.84 9.01 448.86 5.35 455.18 6.64 459.71 6.57 463.8 10.59 473.86 13.32 478.81 12.25 480.75 13.83 488.01 16.98 489.08 20.14 488.58 29.05 489.08 31.92 492.67 38.17 491.02 43.63 491.6 45.42 495.91 51.02 496.84 55.26 495.04 58.42 494.47 64.67 497.27 69.62 498.13 75.37 495.4 80.39 498.99 80.03 501.65 81.11 505.24 87.64 509.41 90.88 511.49 93.39 510.42 101.22 512.35 103.08 514.65 110.7 513.36 114.86 515.23 119.67 514.22 122.4 514.51 129.8 516.88 133.53 518.17 137.19 520.76 138.77 524.49 144.25 Z" id="31091000"/>
</g>
</svg>