<?xml version="1.0"?>
<svg xmlns="http://www.w3.org/2000/svg" version="1.2" baseProfile="tiny" width="800" height="542" viewBox="0 0 800 542" stroke-linecap="round" stroke-linejoin="round">
<g id="sigung">
<path d="M 741.89 32 743.8 42.24 748.87 44.41 751.35 50.92 756.73 54.79 761.46 59.8 766.37 61.71 768.39 64.96 776.39 67.17 784.3 66.73 787.73 68.84 795.14 71.77 799 75.39 794.59 79.39 788.51 83.29 784.61 88.8 776.35 109.12 768.51 149.32 768.22 152.79 773.52 201.69 775.46 222 775.58 223.26 775.77 225.17 776.95 237.38 776.68 244.11 774.88 250.39 770.45 259.82 753.36 290.78 750.5 297.68 747.84 300.8 732.16 329.2 729.97 329.82 715.99 355.16 712.55 360.21 707.44 365.16 663.93 398.94 658.88 392.81 649.54 384.45 642.49 379.95 630.91 373.55 610.68 410.19 561.69 383.14 533.11 434.85 524.53 450.61 541.82 453.54 542.99 454.34 539.58 475.6 522.59 472.83 489.66 500.45 487.01 501.53 487.61 504.2 484.73 505.14 483.33 508.16 475.17 511.29 461.67 524.47 446.31 541 439.54 534.62 432.36 532.48 423.22 531.87 394.26 528.57 391.47 527.95 348.9 504.48 317.46 486.47 274.89 461.36 219.36 428.72 155.93 390.05 132.78 374.27 65.13 328.99 55.29 322.65 38.59 304.15 31.34 288.82 16.84 263.52 5.82 231.74 1.65 213.85 1 199.46 9.32 152.48 16.47 100.96 24.85 62.17 27.31 62.21 41.56 69.35 72.24 88.73 91.32 101.37 95.29 108.34 95.24 108.48 95.66 108.71 120.53 133.97 126.88 142.19 141.63 168.38 147.1 166.6 148.82 163.15 155.63 156.57 158.07 151.73 162.47 147.93 166.42 146.21 170.21 141.86 175 142.54 176.76 146.53 183.56 145.06 187.38 143.52 188.41 140.96 185.99 138.27 180.86 139.58 177.82 138.67 175.78 136.31 176.94 128.39 178.14 125.24 183.91 124.74 182.3 120.51 184.27 119.37 187.66 121.25 194.1 118.15 201.94 111.79 203.35 107.65 213.52 99.61 219.51 93.1 226.85 97.26 238.24 96.33 242.36 94.04 248.66 94.66 251.47 92.36 257.72 89.21 260.75 86.95 263.52 87.09 268.28 82.49 277.1 76.48 281.64 74.68 286.21 74.05 289.5 70.1 298.24 67.66 309.69 69.74 315.27 69.23 321.57 65.49 327.53 66.4 331.71 64.82 334.62 61.82 339.39 59.1 343.24 54.69 346.49 48.03 350.24 47.96 364.59 51.09 368.78 47.79 374.86 44.88 378.16 44.78 381.85 40.21 383.4 39.6 385.61 32.16 389.99 31.3 394.11 24.95 397.63 23.97 403.76 25.06 405.17 34.11 406.87 36.53 409.55 33.9 412.65 32.99 415.19 26.86 418.48 26.31 418.6 26.22 427.27 25.3 426.55 20.57 427.97 20.41 432.95 21.08 438.85 19.59 441.44 20.97 451.08 21.93 460.52 19.64 465.93 24.22 472.43 23.7 480.11 26.71 491.3 26.45 493.22 25.55 496.76 20.1 500.33 9.01 502.46 6.44 508.66 7.75 510.61 9.41 509.67 15.61 511.73 18.61 520.52 24.49 523.28 24.91 526.52 22.5 530.37 22.56 533.78 19.77 538.51 18.57 545.65 23.2 546.25 27.67 547.93 29.76 555.11 34.32 559.43 35.47 568.42 39.13 575.29 39.45 583.67 31.32 585.91 27.33 589.63 27.15 597.56 23.07 599.65 21.14 605.5 23.1 614.5 18.86 615.88 21.55 616.49 29.56 618.83 32.08 621.81 32.76 624.8 31.6 628.64 28.51 639.96 35.85 644.63 38.29 647.86 34.78 654.71 33.19 655.88 31.95 667.33 29.6 672.64 26.89 674.89 24.58 682.06 30.4 682.97 25.22 681.45 22.44 683.93 19.77 690.19 15.43 690.91 13.03 688.56 4.74 689.24 1 698.1 2.53 702.12 4.08 709.03 8.26 720.05 16.47 727.87 19.41 728.32 21.32 734.9 24.95 737.3 25.21 741.89 32 Z" id="31104000"/>
</g>
</svg>