<?xml version="1.0"?>
<svg xmlns="http://www.w3.org/2000/svg" version="1.2" baseProfile="tiny" width="800" height="757" viewBox="0 0 800 757" stroke-linecap="round" stroke-linejoin="round">
<g id="sigung">
<path d="M 577.61 1 582.93 5.27 591.1 12.12 581.9 19.55 582.2 37.12 584.51 47.32 582.13 50.98 582.78 54.22 575.78 53.68 570.93 58.03 569.08 57.72 568.89 62.57 565.46 66.85 557.95 67.77 553.83 72.16 552.91 77.9 552.22 78.9 552.56 83.29 558.15 85.57 558.03 89.15 558.38 91.65 558.07 94.65 558.3 96.35 557.18 99.7 557.38 103.28 559.03 104.48 559.34 106.29 560.84 107.36 559.53 109.29 559.69 111.87 560.38 113.22 560.19 115.88 560.8 117.45 562.46 119.23 563.15 121.58 563.11 123.58 560.19 126.74 559.07 129.47 559.53 133.24 557.72 139.21 557.3 141.26 554.84 143.41 554.07 143.45 552.49 148.26 549.72 148.26 548.33 149.23 549.87 151.04 554.95 152.92 559.42 156.04 562.11 157.62 562.92 165.6 561.8 167.33 562.11 168.68 564.77 171.26 561.65 176.76 559.34 178.61 557.99 180.77 558.03 185.74 558.69 187.78 555.18 189.51 554.18 192.79 554.64 194.71 553.91 195.48 553.95 197.21 555.11 199.33 554.99 200.64 553.57 202.03 553.49 204.11 554.45 206.73 552.33 210 552.26 211.93 551.49 213.51 550.1 214.78 550.29 216.51 548.68 218.78 547.91 221.75 546.64 223.25 543.67 225.33 542.21 232.65 542.67 236.54 541.98 239.19 539.32 240.39 538.52 243.12 537.4 244.39 538.79 246.36 536.01 248.86 536.48 251.63 530.43 258.64 529.24 263.69 526.81 272.39 527.51 278.9 527.47 285.26 528.28 287.1 525.66 296.35 523.27 299.93 523.16 305.01 522.73 309.21 520.85 312.83 517.46 316.07 512.88 318.57 508.41 320.07 506.84 319.76 504.76 318.26 504.35 317.65 502.07 319.76 501.51 316.05 499.95 318.69 500.68 323.81 501.79 324.31 507.18 328.58 504.95 333.24 504.87 335.44 507.22 337.17 511.3 338.48 511.92 339.83 516.65 342.06 518.5 341.75 519.42 339.98 522.73 340.33 523.66 340.02 525.39 341.25 526.24 338.63 528.28 337.36 532.94 335.59 536.71 337.02 538.67 339.13 542.25 339.33 546.95 338.33 547.68 332.05 546.83 330.2 547.68 329.55 552.57 329.43 553.07 330.12 557.07 329.66 561.19 330.55 563.81 331.47 567.62 333.24 569.51 332.9 571.66 333.63 574.82 331.01 576.09 329.28 577.86 328.16 578.82 328.97 580.82 328.62 581.94 327.46 585.87 329.04 587.67 330.2 590.25 330.24 591.41 330.74 593.53 330.08 595.99 330.97 596.99 331.86 601.88 332.01 602.8 331.35 604.19 331.93 605.11 333.24 608.27 333.9 610.35 335.63 612.43 333.63 617.43 332.12 620.43 328.81 624.17 328 625.67 321.69 628.48 313.6 628.4 310.71 629.63 309.83 629.98 307.36 629.17 305.43 627.63 303.24 624.9 298.39 624.74 294.3 626.4 289.99 632.67 282.48 633.21 278.13 632.17 274.24 632.14 268.89 635.79 267.15 638.6 264.8 641.34 263.84 643.3 262.72 650.57 260.53 653.11 259.45 656.12 253.63 656.42 251.67 656.19 249.78 658.43 246.16 659 243.81 660.12 242.66 661.08 239.85 665.62 237.81 669.97 239.77 675.21 244.08 679.48 243.93 688.8 241.39 689.84 239.88 692.88 238.5 696.07 238.27 699.77 239 699.77 241.16 701.27 241.96 702 244.16 704.12 246.66 707.93 248.74 710.24 249.59 711.55 252.02 719.02 254.6 720.83 255.71 724.6 258.76 727.76 260.95 730.84 264.22 733.11 265.42 737.65 265.88 740.23 265.8 747.27 266.92 758.44 271.7 764.21 276.36 766.56 279.05 774.1 284.98 784 289.26 786.35 291.76 786.88 294.49 791.67 295.43 792.47 297.48 794.14 298.88 795.23 303.84 794.8 305.7 795.3 306.66 794.64 308.45 795.07 312.13 797.14 314.13 797.72 315.61 797.09 318.52 796.24 319.05 798.04 324.78 797.12 335.74 798.98 337.39 799 338.44 797.21 342.47 796.29 345.97 798.22 349.28 797.84 350.34 794.81 353.44 793.54 355.68 791.75 356.97 788.41 357.98 784.19 360.1 782.34 359.97 778.32 360.56 776.73 363.97 776.56 367.65 775.25 372.41 774.77 375.71 774.95 376.76 772.46 381.53 770.68 383.84 765.91 386.9 764.95 389.01 762.94 390.74 760.45 392.13 759.93 394.5 754.28 394.34 749.07 396.26 750.04 401.49 751.69 405.88 753.78 410.48 755.92 412.17 756.59 414.85 758.03 416.71 758.7 419.76 763.6 423.74 763.88 424.99 763.41 428.05 763.74 429.84 765.86 432.28 766.11 435.05 766.96 438.89 767.56 440.33 765.99 442 764.46 445.14 764.45 445.89 761.25 449.07 762.75 451.83 763.38 453.87 763.23 455.63 764.68 457.79 768.11 459.05 769.43 461.66 771.05 462.99 769.5 464.63 768.58 468.72 768.54 470.85 767.99 473.09 767.06 474.19 767.48 476.3 766.33 479.15 764.49 480.46 762.8 479.96 759.07 482.67 757.55 484.99 755.02 486.92 752.27 486.98 749.03 489.58 747.48 490.13 744.97 490.27 742.75 490.84 741.14 492.24 740.03 494.87 737.38 498.02 734.47 500.3 731.36 499.09 728.7 498.87 726.52 497.4 720.74 500.63 718.21 501.21 714.15 503.21 710.23 504.43 705.36 504.61 702.79 504.06 700.01 504.26 696.96 506.01 695.04 508.43 687.13 507.72 681.55 508.69 687.75 499.47 693.56 493.67 690.89 482.67 687.71 477.12 687.7 473.39 685.19 470.11 683.99 465.52 682.71 462.49 682.17 458.55 679.78 455.68 680.11 451.12 678.94 448.21 679.29 446.21 678.55 444.44 679.37 440.21 678.6 438.56 678.97 435.8 676.76 432.09 674.93 430.39 674.99 428.69 674 426.14 674.77 422.86 674.42 419.01 673.65 414.04 672.46 409.92 670.1 408.49 668.03 406.27 666.74 405.38 666.39 403.98 664.96 402.97 663.1 402.4 661.72 399.4 659.22 400.95 654.64 401.24 652.99 400.88 650.95 398.58 647.61 396.76 645.62 393.09 644.36 392.22 641.13 391.57 640.71 390.91 641.66 388.29 641.24 387.34 641.54 385.38 640.06 382.64 636.19 384.6 629.29 387.13 625.7 387.57 621.49 389.01 614.79 393.65 613.22 395.33 610.31 399.46 609.12 401.61 606.67 407.27 605.6 410.5 604.71 412.11 601.71 415.23 599.75 416.86 593.58 418.9 587.91 420.34 586.66 421.02 585.23 420.58 581.33 421.03 579.34 421.78 573.48 426.8 570.62 430.09 560.39 438.62 556.1 439.59 551.38 440 537.35 442.22 530.03 442.82 528.05 443.71 525.04 444.36 523.95 443.33 520.31 442.55 516.87 439.79 515.34 438.98 511.48 435.28 507.78 432.97 507.02 433.65 502.6 430.2 497.27 426.66 497.56 428.41 503.21 434.98 504.61 437.78 508.25 439.84 512.88 442.98 516.43 444.31 520.15 446.24 519.42 448.53 516.3 460.49 515.08 464.57 512.69 471.05 513.45 473.6 516.48 482.18 515.27 484.7 511.7 486.3 509.38 488.9 505.94 491.04 502.49 492.89 499.45 493.64 501.33 495.71 501.92 499.7 503.15 503.71 505.95 507.16 506.84 507.44 508.16 510.29 508.6 518.28 507.61 523.38 503.62 528.38 500.86 530.94 502.12 533.33 502.6 536 502.51 541.86 499.66 544.38 497.39 547.14 495.95 550.95 496.09 554.11 492.84 555.14 489.73 555.11 489.66 557.39 488.68 558.29 488.93 561.67 486.72 563.4 484.49 568.29 484.81 571.12 484.17 572.47 484.18 575.49 481.39 581.24 481.55 582.84 479.31 587.79 480.67 591.52 480.31 595.79 480.9 599.55 483.06 609.17 484.2 611.2 483.37 612.73 485.14 617.38 485.41 619.64 482.68 621.1 480.86 621.22 478.76 622.3 478.93 624.65 478.17 626.9 479.23 630.36 481.67 634.88 481.68 636.17 482.72 638.34 482.48 644.57 481.65 647.01 482.29 649.54 482.32 651.44 483.74 652.73 484.42 656.4 479.41 660.37 477.44 663.89 474.66 666.92 476.71 671.14 477.2 674.14 476.74 675.49 477.33 678.63 476.97 679.15 471.66 680.33 471.25 682.25 467.49 684.49 465.98 683.75 461.96 683.21 458.68 683.39 457.23 682.32 455.49 682.33 451.77 684.66 449.08 684.9 447.36 684.46 444.94 682.93 442.74 682.04 441.64 683.34 438.54 683.47 434.52 684.59 432.47 681.9 429.98 680.32 429.61 674.86 428.85 674.17 429.03 672.39 432.51 666.75 433.03 664.75 434.62 662.6 431.84 661.42 429.91 661.41 427.72 661.96 425.41 665.95 422.35 670.39 421.58 670.66 418.09 673.48 417.18 674.91 416.94 675.99 413.6 678.37 411.37 680.4 410.33 682.28 407.87 688.62 407.22 692.08 404.94 693.8 401.81 694.32 400.86 697.21 400.25 700.39 398.38 702.04 398.46 702.88 400.95 703.18 400.8 704.89 399.9 706.54 400.28 708.66 400.11 711.59 398.82 714.04 398.79 715.64 401.35 718.29 401.18 720.53 402.07 722.1 400.18 725.71 397.4 725.45 397.4 728.78 393.78 728.39 389.43 728.36 378.15 729.51 370.6 731.58 358.91 731.77 339.69 741.28 339.66 742.67 320.42 747.42 320.41 756 316.05 752.01 302.58 741.58 298.9 737.96 285.13 725.64 282.05 723.91 267.66 713.16 264.44 709.86 255.74 703.25 246.14 695.81 232.73 688.76 206.39 667.69 203.84 665.78 197.82 655.16 194.53 653.65 185.7 645.35 176.92 639.6 166.31 629.97 158.24 624.09 147.11 613.59 145.09 611.98 139.91 609.25 128.73 601.83 123.43 597.45 100.37 578.01 79.42 562.57 48.33 539.52 38.02 531.79 31.68 527.3 14.69 516.39 1 507.83 4.34 500.94 12.45 483.78 16.35 483.77 21.71 485.53 26.15 488.8 28.46 489.9 31.7 490.71 33.55 492.6 41.19 495.08 45.69 496.96 52.08 499.01 56.59 500.97 68.73 501.42 70.18 501.89 76.46 503.07 80.71 504.83 83.75 506.33 89.19 509.41 92.32 511.54 98.93 516.34 100.19 518.13 106 523.52 107.73 525.49 110.7 522.99 112.4 519.39 113.71 519.53 118.29 514.39 117.68 513.14 119.52 511.41 120.04 509.64 118.46 500.51 118.87 499.45 120.03 485.72 119.28 483.24 120.04 480.9 119.72 478.79 120.38 476.27 120.04 474.86 121.27 472.6 121.61 468.95 120.5 467.49 121.88 465.72 122.43 462.23 127.5 459.28 129.61 455.25 128.52 454.38 129.09 452.8 130.4 453.03 131.08 451.09 130.52 449.78 131.48 447.57 133.63 446.78 136.3 446.93 141.46 445.7 145.79 443.13 148.4 448.93 151.06 450 152.91 449.95 154.08 449.02 158.3 447.9 159.65 446.58 161.31 443.82 163.85 441.31 165.75 437.91 167.09 437.16 170.24 436.28 174.78 434.15 178.19 430.24 179.06 429.85 181.63 431.5 183.19 436.53 184.07 438.59 183.7 441.17 182.1 443 183 444.54 185.04 445.18 186.4 443.6 188.59 442.74 191.73 443.42 193.06 442.95 194.03 441.62 194.76 438.32 193.29 434.71 194.07 432.35 191.45 429.61 191.33 428.12 191.97 426.14 194.69 425.78 196.79 424 199.17 424.76 199.3 422.57 198.6 421.53 196.65 420.41 196.25 418.92 194.37 417.71 193.9 414.01 192.94 409.82 191.65 408.5 192.27 405.81 192.19 402.81 192.89 399.36 196.46 396.63 194.38 391.94 193.22 391.06 190.56 391.45 189.85 390.16 188.39 389.71 187.46 390.68 185.73 391.3 183.33 392.95 180.43 393.12 178.92 389.26 177.05 388.89 176.22 386.44 175.13 386.34 175.52 384.03 176.45 381.44 178.12 380.06 181.11 379.97 183.78 379.15 187.48 376.52 187.87 372.64 188.81 370.81 189.16 367.64 189.94 366.28 191.59 364.82 194.36 364.74 197.46 362.8 198.01 360.43 200.54 360.53 204.78 362.56 208.65 362.81 214.86 364.58 216.32 363.63 213.79 361.77 213.11 358.58 213.33 356.21 212.69 354.95 210.38 353.04 208.5 349.66 208.07 347.21 210.04 345.9 210.45 344.52 209.54 340.38 209.33 338.15 210.13 336.54 209.2 333.63 209.11 331.88 210.11 329.3 212.47 327.13 216.92 324.45 218.16 324.79 220.47 324.45 222.53 322.52 224.84 320.86 226.36 321.02 227.31 319.98 231.21 318.63 231.05 317.39 232.14 315.45 230.53 311.86 230.93 310.51 234.18 306.94 236.02 306.96 238.65 306.22 239.8 307.15 244.6 306.82 246.43 306.94 248.43 305.14 252.17 302.76 252.94 302.74 252.81 299.79 251.91 297.25 251.88 293.01 256 287.07 255.27 281.1 257.04 279.83 261.32 280.82 268.63 280.85 272.46 282.14 273.84 283.49 275.91 281.37 274.94 278.59 276.35 276.15 279.32 272.11 280.68 269.65 282.84 271.55 285.86 269.94 288.19 265.68 289.32 264.94 293.62 267.74 295.17 269.17 298.76 269.51 300.13 268.43 302.31 267.62 302.86 265.7 305.64 249.84 307.57 251.19 309.96 252.05 311.17 251.52 313.81 252.18 315.38 253.57 315.68 256.09 317.05 256.14 318.23 257.38 320.42 258.29 321.89 259.41 321.28 254.38 322.03 251.98 320.52 251.46 324.74 244.22 326.11 245.19 327.89 241.45 329.5 239.04 329.17 233.24 328.18 230.8 324.89 227.89 319.92 225.43 317.37 223.64 312.78 217.89 306.61 208.23 305.61 205.58 302.65 201.69 301.33 197.43 302.53 192.83 300.14 188.29 297.3 181.67 295.96 177.74 293.77 172.25 288.26 164.07 288.19 161.98 287.12 156.91 286.76 151.68 285.66 144.39 284.64 142.08 281.91 139.07 277.09 137.99 278.05 134.17 278.32 130.69 278.25 127.67 277.14 123.93 277.47 120.93 279.16 120.68 276.73 115.44 271.91 105.81 270.69 105.29 268.68 101.53 265.8 99.73 265.72 96.54 264.61 93.3 264.19 90.5 265.14 90.44 266.64 88.34 269.81 87.34 271.72 85.71 273.18 85.2 274.07 82.42 276.28 81.96 275.9 80.3 276.18 78.56 277.7 77.71 278.25 75.17 280.95 72.67 281.91 73.09 285.2 71.38 288.98 70.51 292.05 70.46 296.82 68.6 299.25 66.11 301 64.76 305.98 61.89 308 62.34 321.68 58.6 329.65 55.85 335.34 59.08 337.9 61.59 339.41 61.91 339.06 65.4 343.37 66.03 344.1 67.18 346.92 68.32 348.12 67.97 349.72 68.73 350.87 68.23 352.69 68.84 355.14 68.05 357.18 68.66 359.87 68.51 361.01 71.5 362.61 72.73 364.32 72.71 364.94 76.31 367.12 79.82 369.95 82.2 370.14 86.42 373.2 85.09 375.24 83.47 377.35 83 382.24 82.45 382.94 81.05 384.61 79.36 385.41 82.19 387.19 83.05 387.26 84.95 388.05 88.11 387.41 90.8 387.18 93.5 388.55 95.22 389.4 97.08 393.78 97.57 394.95 99.64 398.92 99.49 401.84 98.15 402.9 96.13 406.96 97.43 410.19 96.44 413.49 98.63 418.2 97.55 420.05 98.86 421.72 99.44 423.26 101.21 426.5 99.96 427.96 102.15 431.42 101.05 432.92 102.02 435.83 107.68 439.19 107.78 439.87 109.96 445.21 104.26 447.42 100.36 450.41 98.45 453.19 98.78 455.49 96.97 456.24 96.99 458.82 92.24 462.58 92.78 468.15 92 469.76 93.22 476.34 93.26 479.29 91.79 481.78 88.83 485.33 87.98 487.77 85.64 488.03 84.11 485.55 78.48 486.18 72.42 488.17 70.29 489.5 67.35 489.1 65.42 486.89 60.54 483.17 55.89 482.94 51.9 481.97 49.09 484.27 46.89 485.56 43.82 484.96 41.56 489.2 35.07 490.85 34.06 490.8 30.37 498.84 25.84 501.97 21.75 505.63 19.97 506.43 16.06 508.5 13.25 510.66 7.71 516.02 9.26 518.7 5.81 520.64 5.32 523.1 7.12 528.07 6.41 530.55 3.86 532.09 4.43 536.77 2.9 539.75 3.62 540.99 4.87 545.68 7.28 556.55 7.24 559.14 5.74 561.91 4.85 565.99 2.19 570.74 1.9 577.61 1 Z" id="31101000"/>
</g>
</svg>