<?xml version="1.0"?>
<svg xmlns="http://www.w3.org/2000/svg" version="1.2" baseProfile="tiny" width="800" height="920" viewBox="0 0 800 920" stroke-linecap="round" stroke-linejoin="round">
<g id="sigung">
<path d="M 495.38 3.18 496.75 4.32 497.4 4.2 499.66 5.11 501.07 6.46 502.85 9.77 505.34 12.39 506.4 13.08 507.15 14.46 509.58 16.54 512.89 23.4 514.61 22.85 517.25 21.02 520.8 19.76 522.7 19.4 524.26 21.17 525.61 21.62 526.79 20.78 528.89 20.57 529.73 20.9 530.73 19.42 532.74 18.97 536.23 19.67 536.83 20.18 539.33 20.06 542 19.49 544.29 20.39 547.21 20.36 549.34 19.64 552.23 20.09 553.25 19.3 553.97 20.09 555.9 19.18 556.74 19.82 559.15 18.94 559.96 17.44 562.91 16.66 564.26 17.02 565.7 16.33 568.08 18.67 569.46 18.94 570.91 19.85 576.2 20.93 580.23 21.02 582.27 21.29 582.79 22.73 585.46 23.67 586.3 23.03 589.97 24.24 594.03 24.39 594.51 24.21 595.75 26.76 596.86 30.67 599.6 32.75 600.83 34.34 603.48 36.15 605.58 36.45 608.83 39.43 610.18 41.02 612.65 43.1 613.31 41.95 618.12 40.99 621.91 39.61 623.36 39.67 625.01 39.1 626.09 39.37 627.09 40.6 627.27 42.01 628.71 43.1 633.46 45.14 635.72 47.85 637.4 48.66 638.33 50.98 638.06 52.12 641.46 54.2 643.18 56.78 643.36 58.38 644.86 59.94 645.88 60.15 647.06 63.4 647.81 64.06 650.48 64.66 653.31 68.03 656.26 68.72 657.97 69.9 658.79 71.97 659.75 73.48 659.87 76.24 661.1 78.08 662.27 79.22 664.59 84 666.85 86.65 667.66 87.07 669.55 90.38 673.31 93.27 669.97 99.47 669.49 102.08 671.09 106.08 671.78 110.69 673.91 113.36 675.63 116.85 676.65 122.3 678.85 126.3 682.52 128.79 684.77 129.34 686 129.28 687.09 129.94 687.63 132.79 688.47 133.1 689.01 137.64 690.46 138.39 692.53 138.84 695.45 141.34 696.14 143.56 696.83 148.59 696.89 151.17 697.88 153.73 697.7 155.75 699.39 160.08 698.76 162.45 698.49 164.74 697.88 167.12 697.31 171.66 699.24 173.94 702.01 176.17 707.24 177.4 710.73 179.39 716.2 180.74 720.02 183.63 721.58 184.56 723.66 186.82 728.44 188.71 730.64 190.13 730.79 191.09 728.83 194.25 728.74 196.96 728.02 199.09 728.29 199.96 727.09 204.6 727.09 207.36 727.93 210.37 729.13 212.03 728.23 214.01 727.84 216.96 727.84 219.82 727.06 222.22 726.31 223.61 726.46 226.37 726.01 228.15 726.04 230.04 726.52 232.66 728.38 234.74 728.35 235.46 730.19 238.92 730.25 241.17 729.86 244.69 729.35 246.29 728.14 246.74 727.66 249.44 725.98 250.74 725.71 251.79 726.64 253.33 725.35 254.53 725.71 255.25 727.57 256.72 728.23 257.72 729.92 258.71 730.34 259.91 731.81 261.18 732.77 263.52 734.28 264.82 736.59 267.4 737.59 269.78 739.66 271.58 740.41 276.01 739.51 277.51 739.42 280.04 738.82 281.12 739.75 283.71 739.48 284.67 739.51 287.17 743 288.1 749.29 289.99 752.68 290.71 761.83 291.35 769.77 292.19 773.65 293.69 775.12 294.81 774.52 296.88 773.59 298.75 772.02 299.86 769.65 301 766.07 300.91 765.26 301.09 761.35 302.84 760.38 303.44 759.63 305.45 760.44 309.91 763.27 314.54 764.32 315.77 767.87 318.81 769.5 318.87 770.52 320.01 774.79 323.23 779.48 326.96 781.26 328.65 782.16 330.9 780.96 330.9 781.38 332.38 780.44 335.86 780.62 336.77 780.11 339.38 779.6 339.93 780.47 341.4 780.41 342.42 781.65 343.29 783.3 346.75 784.65 346.42 785.5 348.26 787.51 351.39 789.71 352.29 790.88 350.09 794.46 344.68 799 344.71 798.1 347.14 795.36 355.33 793.56 366.61 792.99 368.41 790.91 378.1 789.71 384.41 788.81 391.39 787.21 402.22 785.89 412.51 784.99 418.31 780.96 427.16 776.33 439.19 773.54 443.62 774.25 443.67 773.83 446.47 772.33 450.17 769.8 454.11 763.21 467.53 760.32 471.19 756.81 475.29 752.21 480.07 746.67 483.59 740.6 486.93 739.03 488.46 737.65 490.33 731.39 499.35 726.28 506.27 723.7 511.38 719.18 518.48 717.98 521.07 717.2 524.44 714.67 530.73 714.01 533.4 712.45 536.77 710.67 541.4 709.62 546.22 709.26 548.59 707.58 551.96 705.29 559.51 704.81 562.01 704 568.08 703.79 571.54 703.24 576.12 702.1 582.7 702.01 587.01 701.65 589.86 700.66 593.35 698.79 604.69 698.34 609.08 698.31 613.51 697.95 617.27 696.12 626.11 695.43 628.43 693.98 631.7 693.11 634.38 692.45 637.51 690.43 642.17 688.75 646.53 687.79 649.72 686.34 653.51 684.48 655.77 681.92 662.54 682.19 665.21 681.98 667.05 681.44 668.4 678.38 674.48 676.72 676.86 675.49 679.41 674.68 682.09 673.95 686.66 672.96 689.67 670.77 694.87 668.96 699.6 665.38 706.18 663.7 709.73 660.9 717.76 658.53 721.74 657.02 725.01 655.91 727 653.62 732.65 652 735.45 650.77 738.79 649.56 741.26 647.28 743.69 645.47 746.16 642.62 750.88 640.18 755.4 637.35 760.27 632.24 768.33 628.9 772.87 625.17 778.35 620.78 787.16 617.72 793.69 615.22 797.93 613.33 802.29 611.37 808.22 608.21 820.04 606.68 824.22 605.12 831.02 604.12 834.63 603.49 837.7 602.56 845.55 601.93 858.24 601.54 864.23 601.87 866.6 603.04 871.11 603.79 872.11 603.6 872.35 603.54 884.38 603.85 888.11 602.39 891.3 600.26 896.41 596.23 901.95 591.66 908.44 587.28 911.51 577.47 916.04 572.24 918.39 566.35 919 562.71 918.94 559.07 918.35 557.09 917.77 552.3 914.94 551.61 913.36 550.92 908.82 550.12 902.46 547.85 889.35 547.42 879.22 546.88 876.22 544.94 867.11 544.24 865.39 541.79 862.15 540.6 860.26 535.98 853.62 534.67 853.18 532.51 851.67 529.83 850.41 527.67 848.77 524.11 847 520.51 844.75 515.55 841.9 515.49 841.49 512.89 840.82 507.72 838.67 505.69 837.23 496.77 832.8 495.56 832.02 492.3 830.55 489.02 828.47 483.45 824.11 477.02 818.74 475.86 817.48 471.58 815 467.69 812.91 466.96 812.06 465.79 811.78 462.35 809.74 460.78 808.55 456.21 805.72 452.03 803.66 446.83 800.69 444.2 798.97 441.4 798.14 431.85 794.46 428.41 791.2 425.44 788.1 423.93 786.29 421.1 783.39 420.26 782.15 419.42 780.14 416.57 771.54 413.17 757.99 412.92 756.31 411.61 752.1 409.42 746.67 408.23 744.47 406.68 740.35 405.3 737.92 401.76 734.62 396.8 728.23 395.72 727.18 386.71 724.39 381.72 722.7 380.06 722.42 378.22 721.24 374 716.35 373.28 714.66 373.16 711.96 372.66 709.27 372.81 707.22 372.85 698.66 372.58 697.25 372.78 693 372.2 691.78 369.99 690.38 361.84 686.47 356.7 682.88 355.46 681.64 349.32 673.24 340.36 661.19 336.57 654.87 333.75 650.48 331.58 647.7 326.2 641.41 325.19 640.48 319.58 637.49 314.14 635.61 310.1 633.95 308.69 634.18 302.58 633.79 296.09 632.96 289.96 632.54 281.35 632.13 280.05 631.71 275.16 631.89 270.68 637.91 268.63 641.75 266.78 644.25 261.9 649.18 259.85 650.41 258.08 652.63 248.44 662.02 245.32 663.96 241.4 667.64 228.02 657.13 222.77 656.75 219.52 655.81 216.56 653.19 215.31 651.16 214.51 648.51 214.99 645.17 215.82 643.14 218.54 639.88 220.15 638.77 223.22 638.03 226.38 638.68 229.49 638.15 231.79 636.89 234.09 636.1 235.68 634.92 236.96 631.71 236.72 629.37 235.14 626.24 233.61 624.21 230.83 621.61 227.82 620.46 226.38 619.68 221.8 618.03 217.32 618.49 214.47 619.2 211.34 618.93 205.56 617.65 202.86 616.76 196.3 612.96 192.1 608.51 190.33 607.65 188.18 604.58 187.68 601.24 184.74 595.62 183.47 590.29 181.27 583.61 180.75 579.64 181.06 575.97 180.94 571.14 180.03 569.37 176.01 563.07 176.14 562.79 174.63 559.52 174.81 557.26 177.16 552.05 176.72 550.54 176.68 548.12 175.73 543.83 171.1 538.21 169.17 535.46 170.71 535.4 170.44 533.65 168.76 534.44 167.83 530.94 167.41 526.9 167.6 523.42 168.24 520.26 169.71 514.51 172.8 503.3 177.52 500.5 181.26 495.8 183.27 492.3 184.52 487.33 184.78 472.93 183.62 471.66 182.79 468.11 181.26 466.09 177.1 459.62 175.88 456.69 175.2 456.35 171.82 456.09 168.69 454.45 167.1 453.26 166.22 452.18 163.52 450.84 160.9 450.59 157.55 451.25 153.2 455.76 147.58 457.73 141.11 461.23 137.46 464.57 136.15 465.08 131.29 464.95 125.94 466.9 121.11 464.68 118.83 464.57 116.9 463.93 113.5 463.27 112.48 462.74 108.69 462.51 107.44 461.72 101.83 460.41 97.38 459.81 95.04 458.3 94.01 458.44 92.4 459.84 91.31 458.99 89.97 460.59 88.24 459.02 86.91 458.9 85.08 459.49 84.9 461.84 83.51 463.07 82.17 461.88 79.91 462.7 78.29 461.46 74.88 456.12 74.04 454.42 71.08 453.06 63.89 452.69 61.27 452.96 61.05 453.64 57.85 455.09 53.02 456.13 50.73 457.56 47.15 457.8 39.21 455.78 38.71 454.5 39.12 452.66 38.95 451.51 37.82 450.64 36.72 448.93 37.25 446.6 35.22 444.88 34.81 443.13 34.22 442.4 34.27 439.85 33.61 438.63 35.73 435.6 36 433.56 37.67 430 37.45 427.77 35.19 425.03 34.66 422.79 33.29 419.33 32.06 412.84 30.04 410.15 30.24 406.5 32.8 401.63 35.67 397.68 38.01 393.26 41.38 391.28 39.44 387.84 39.17 383.66 40.22 378.9 43.55 374.79 44.11 371.92 42.95 370.62 42.25 368.81 42.17 366.38 42.96 364.7 42.25 361.96 40.65 361.23 39.23 359.08 37.5 352.13 37.2 348.65 35.84 347.91 34.85 346.37 33.91 345.94 32.78 344.08 32.12 341.87 32.14 340.21 33.68 339.12 34.38 337.35 34.84 333.51 34.71 332.32 37.96 327.22 38.33 326.09 42.37 322 42.99 320.15 43.99 318.67 43.99 316.58 43.64 313.56 43.07 311.1 41.76 309.47 42.84 307.21 40.46 306.16 38.32 307.01 34.99 304.23 33.26 304.34 28.4 305.56 22.83 304.45 17.73 304.43 14.14 302.83 10.76 298.19 10.59 289.89 3.32 283.66 1.99 279.26 1 272.39 11.06 264.35 19.27 264.24 26.07 262.02 29.97 262.12 32.79 261.29 37.45 258.26 40.26 261.6 42.07 262.8 44.18 263.45 45.86 261.29 47.05 260.72 50.04 256.98 52.82 254.69 56.26 254.57 57.53 252.72 58.6 251.76 61.06 250.64 61.78 248.87 63.01 248.32 63.78 246.62 65.16 247.2 66.36 246.84 69.02 245.32 72.47 245.39 73.53 244.48 75.99 243.07 77.12 241.89 78.08 237.91 77.74 234.42 76.45 232.18 77.02 230.9 78.11 229.98 77.32 226.14 79.11 224.63 79.91 223.16 80.41 220.88 81.54 217.51 82.73 216.4 84.02 213.12 84.52 213.04 85.86 211.38 88.35 211.59 90.51 211.36 93.3 212.89 94.42 213.95 95.8 213.95 97.07 209.86 98.42 208.26 98.85 205.55 99.68 204.53 101.27 203.71 100.88 201.91 101.26 201.01 103.3 199.67 107.23 198.04 108.59 195.96 109.63 196.71 111.24 197.23 112.76 196.84 114.5 197.41 115.5 196.27 116.34 194.67 114.16 193.05 113.69 191.85 115.21 189.95 115.96 188.21 115.62 186.65 115.69 184.02 116.72 184.25 118.53 183.26 119.18 181.09 121.69 178.92 121.36 176.26 121.72 173.49 120.77 171.48 122.04 169 121.3 167.06 121.06 162.14 120.62 160.72 121.43 157.25 120.73 155.71 118.62 154.48 116.59 153.8 116.09 151.57 117.26 149.99 116.79 147.3 117.43 145.96 116.62 145.36 115.95 143.99 116.25 141.64 116.1 140.58 118.14 136.13 118.25 134.41 119.57 131.17 119.6 128.5 121.41 126.92 123.54 123.1 124.47 122.71 127.11 120.82 128.44 119.54 130.29 118.52 128.54 114.8 128.37 112.98 129.16 110.09 134.68 108.64 136.26 108.47 138.15 107.28 140.46 107.28 143.26 106.13 145.49 105.44 149.58 105.26 152.38 109.67 154.96 112.28 158.4 111.2 163.99 111.24 166.72 110.4 168.62 108.88 176.56 104.1 178.49 96.98 176.78 91.11 175.62 85.26 177.19 83.5 181.26 83.2 193.38 91.83 199.84 99.8 206.91 106.18 222.4 113.79 228.05 112.41 233.32 106.66 238.67 107.75 241.07 107.05 246.37 103.32 245.25 102.93 243.27 101.34 242.07 99.86 244.83 95.26 247.6 92.28 246.13 84.4 246.64 81.91 245.4 77.69 250.07 77.91 255.33 75.38 256.53 72.07 260.32 64.76 262.67 61 265.52 59.92 267.84 58.56 272.68 55.38 274.91 55.25 276.83 55.92 279.3 55.01 283 56.85 284.32 58.77 284.71 60.55 286.82 59.59 288.89 59.86 290.4 62.05 293.43 61.81 293.13 60.25 293.92 58.44 296.56 56.73 298.64 55.77 300.29 57.9 302.25 59.44 303.93 61.39 306.04 62.02 309.43 64.46 310.49 62.89 312.32 61.39 313.34 59.89 314.85 59.25 317.52 56.82 319.45 55.61 322.82 52.52 323.78 52.28 327.84 54.2 331.84 59.1 333.55 58.56 337.28 56.94 337.37 55.37 338.61 54.53 339.87 51.73 339.63 48.21 339.18 45.42 341.76 42.59 345.37 38.38 349.01 38.62 353.28 44.06 352.59 44.67 352.05 46.74 352.74 50.41 351.72 54.17 352.65 60.49 352.32 64.76 354.94 67.17 357.07 67.01 359.36 68.28 361.04 70.35 362.49 71.02 365.31 75.53 368.14 75.53 368.56 75.08 371.45 75.26 372.56 76.19 372.68 77.27 374.31 76.1 375.87 75.83 376.74 76.97 378.07 77.09 379.12 78.35 379.45 79.56 380.68 81.45 380.29 83.44 377.92 86.09 379.81 88.61 382.37 89.79 384.86 91.65 387.15 90.72 388.74 88.52 390.67 88.55 393.49 89.45 393.4 88.16 394.55 84.73 395.93 83.32 398.28 81.54 399.27 78.59 400.71 77.93 401.98 78.02 404.5 77 407.21 74.92 408.35 73.54 408.83 70.65 410.58 68.4 411.48 68.4 414.1 65.6 415.69 60.28 416.2 57.75 417.55 58.26 418.94 57.87 421.28 59.37 424.35 59.58 425.55 60.61 426.61 60.28 428.08 58.38 429.28 57.39 431.99 57.72 434.34 56.4 435.63 55.94 437.16 55.91 438.61 54.71 440.35 54.17 441.88 52.76 444.26 52.15 446.4 52.33 448.71 50.35 450.7 49.72 454.4 49.09 456.32 47.67 459.99 44.51 461.94 43.97 467.81 42.74 468.53 43.16 474.52 40.57 477.01 41.9 477.07 39.13 477.61 36.69 478.34 36.3 479.36 34.1 481.22 32.15 479.63 30.34 478.46 28.6 479.45 24.45 479.27 22.79 480.32 21.11 483.12 13.92 485.4 11.09 487.6 8.75 488.62 8.81 489.13 7.78 490.64 6.19 491.6 5.62 491.81 1.56 492.39 1 495.38 3.18 Z" id="31130000"/>
</g>
</svg>