<?xml version="1.0"?>
<svg xmlns="http://www.w3.org/2000/svg" version="1.2" baseProfile="tiny" width="800" height="697" viewBox="0 0 800 697" stroke-linecap="round" stroke-linejoin="round">
<g id="sigung">
<path d="M 798.61 525.05 793.29 528.7 788.89 529.28 789.64 533.59 786.4 537.91 782.66 538.74 777.27 536.5 774.86 547.53 773.28 550.85 773.86 557.74 769.79 562.64 761.74 566.37 758.17 572.51 758 579.32 760.99 585.04 758.92 590.27 743.83 590.69 738.82 594.84 735 593.92 731.85 594.75 723.88 591.19 720.06 590.52 717.32 587.78 713.58 586.12 709.18 592.18 703.2 593.93 701.21 595.83 695.81 598.32 694.73 604.55 689.59 608.28 686.02 609.69 693.41 619.73 699.14 626.12 700.46 629.36 705.11 633.76 712.09 638.24 714.41 641.14 710.01 643.39 724.21 656.58 723.63 659.07 719.31 656.83 712.34 655.5 708.52 653.18 704.2 653.43 703.29 656.75 700.22 659.07 695.57 666.46 694.65 672.18 685.85 676.66 676.39 683.39 666.67 679.65 662.02 679.24 659.45 677.83 653.3 678.07 650.9 682.22 646.25 687.37 640.93 688.28 638.94 687.29 632.55 687.95 625.82 692.02 623.58 692.02 622.33 670.19 615.61 676.25 607.14 677.99 600.66 682.06 597.09 682.97 595.26 684.96 591.03 686.71 586.96 693.34 577.25 696 575.1 690.11 563.96 694.01 558.65 683.39 548.43 673.84 544.7 671.77 537.56 677.08 532.91 683.64 531.66 679.07 526.6 674.09 527.93 665.21 525.19 653.84 527.34 651.02 529.09 641.73 516.96 641.98 517.55 635.09 488.4 632.1 485.41 633.85 484.25 631.69 473.29 631.11 470.08 632.79 467.23 632.43 460.84 628.45 456.1 622.56 452.78 620.4 449.13 619.9 445.97 622.31 441.16 629.36 433.1 633.02 426.88 637.83 425.63 641.23 426.54 650.28 422.56 654.09 422.06 656.83 413.76 656.42 411.1 654.26 408.36 655.84 407.11 659.49 399.06 653.6 392.75 654.1 387.35 656.92 381.62 658.74 374.73 658.66 372.16 659.82 371.83 664.22 373.99 671.77 374.15 678.08 375.4 683.31 373.32 688.87 369.83 689.12 366.26 686.96 362.86 683.47 360.95 678.49 356.8 674.76 350.9 671.27 338.53 657.91 336.79 653.52 331.31 646.13 326.32 641.57 320.93 634.76 317.86 629.86 314.53 620.16 313.21 613.35 313.37 609.62 317.61 604.97 319.85 599.24 322.09 595.92 315.28 596.59 307.39 595.67 301.89 593.33 295.19 587.38 289.29 584.97 287.59 582.36 286.18 576.92 287.38 571.74 287.13 568.79 280.16 561.55 279.33 558.79 275.71 554.31 275.13 550.24 271.86 540.88 272.77 533.52 268.49 524.43 266.33 521.29 268.03 510.7 267.25 508.21 269.28 498.91 265.71 492.19 260.93 490.9 257.66 487.3 260.31 482.2 260.81 478.21 258.03 469.95 253.92 461.07 248.6 455.51 243.54 442.57 244.08 438.21 242.96 434.93 243.58 430.33 251.18 423.11 252.13 418.59 257.28 417.92 261.6 414.47 264.21 411.03 263.67 406.59 259.94 401.66 259.98 390.41 257.99 384.77 252.84 381.57 244.91 373.86 239.55 370.29 240.42 361.45 239.84 355.6 233.95 344.31 231.46 341.78 224.94 332.45 220.66 328.21 213.89 328.42 212.9 327.26 207.42 327.63 202.81 323.24 196.62 319.63 196 317.59 191.68 316.56 186.37 310.33 179.6 312.24 175.45 309.83 168.27 307.01 166.61 305.27 160.77 303.55 156.39 305.27 153.12 307.68 149.63 305.89 146.64 306.6 142.82 304.86 136.18 307.43 128.41 306.06 124.39 303.03 117.12 303.69 109.27 301.83 105.87 299.17 94.29 298.42 91.01 300.29 89.35 299.21 84.57 300.54 80.25 293.2 77.22 290.46 71.79 287.18 69.05 283.9 63.01 280.14 58.58 272.33 52.85 269.05 51.07 265.4 50.57 260.33 41.31 255.36 34.5 250.09 26.82 249.84 18.35 245.27 14.74 241.7 11.38 239.71 3.66 240.38 1.5 236.27 1 232.7 1.42 224.44 2.58 218.88 11.38 208.55 14.24 202.49 20.1 196.39 24.66 194.94 31.14 189.42 32.84 186.68 37.24 187.31 41.39 192.99 41.56 195.81 39.24 199.79 32.97 204.36 29.48 209.09 30.77 213.24 38.61 216.72 43.84 216.27 57.04 207.96 59.87 202.2 62.4 198.8 65.68 196.51 71.99 190.17 75.81 182.49 74.81 178.75 58.71 176.02 55.72 173.36 57.25 167.6 62.44 163.78 66.1 159.01 67.5 155.49 74.77 151.5 77.6 146.44 79.26 137.84 82.45 133.78 84.74 132.41 87.81 133.99 92.25 138.18 100.01 138.88 103.33 136.19 105.82 129.63 110.64 125.4 111.22 122.07 107.07 117.88 105.33 114.11 105.66 95.48 100.89 89.96 99.02 84.36 95.86 78.01 96.69 73.24 99.85 70.92 108.69 66.85 111.64 69.17 111.8 74.36 119.32 78.72 123.26 78.18 124.05 76.44 123.55 70.13 124.59 67.26 129.57 64.44 131.52 60.5 137.96 54.32 144.39 54.44 150.45 58.88 152.49 61.29 156.43 61.41 161.75 50.37 160 46.77 171.54 43.61 175.74 46.81 182.63 45.94 193.05 39.75 195.79 36.1 202.76 31.79 208.7 29.75 216.92 28.34 223.23 26.6 225.56 22 233.57 13.2 238.47 12.91 239.71 8.55 236.64 6.05 235.44 2.38 237.8 1 239.21 4.4 246.65 4.11 246.94 6.27 255.11 7.92 258.73 11.08 263.17 11.66 265.7 9.79 271.72 8.09 277.08 8.42 281.02 6.89 287.33 6.6 297.67 7.11 301.82 8.51 311.66 9.46 315.23 14.81 314.86 16.85 317.35 19.25 323.01 21.7 330.18 22.24 334.41 27.2 337.15 24.94 340.35 28.46 345.69 31.96 351.24 29.86 361.15 34.07 364.8 34.65 369.91 39.17 373.64 41.33 381.9 44.77 385.62 43.69 392.32 43.49 399.22 45.31 407.52 45.19 412.14 40.41 416.57 38.71 419.81 36.01 424.21 34.85 427.61 35.35 439.92 31.43 445.54 32.15 452.26 34.5 456.6 33.64 456.79 31.39 459.77 29 466.74 27.5 475.39 21.9 482.22 14.33 488.81 13.21 498.6 16.39 506.16 15.77 509.18 17.09 513.49 17.02 514.14 20.72 518.47 31.79 520.53 35.16 521.7 39.73 526.43 46.53 527.61 53.51 522.27 61.86 523.43 64.7 520.77 71.25 522.45 77.09 522.53 80.74 531.38 89.59 534.58 91.53 542.57 92.94 544.27 94.81 539.32 97.66 538.62 103.41 540.05 108.32 537.03 110.24 531.9 115.12 527.28 117.57 524.76 122.69 522.98 130.33 519.03 133.61 522.61 137.23 521.69 143.75 525.71 151.8 528.28 153.85 539.24 151.94 543.01 156.07 545.62 156.6 553.67 154.19 558.7 155.43 563.31 155.26 565.86 157.88 565.28 159.68 567.44 162.93 566.36 168.99 570.34 174.53 569.43 177.41 570.76 185.98 568.44 193.71 569.52 195.41 571.01 202.17 570.18 212.12 571.09 216.35 569.35 223.04 569.61 227.94 572.01 230.76 573.76 238.24 577.49 242.52 572.01 247.06 560.26 247.93 560.96 253.41 558.97 255.89 560.38 265.83 560.96 274.59 559.8 279.25 561.55 284.61 564.87 288.62 565.22 293.77 563.92 297.32 564.33 300.79 572.59 309.2 578.74 312.85 580.98 317.58 579.73 325.47 586.37 330.12 590.11 334.1 591.36 338.33 593.68 338.5 598.25 342.48 598 346.55 596.5 348.21 597.83 351.28 594.85 352.69 601.4 357.17 604.97 355.84 609.54 356.5 612.78 354.26 617.93 356.34 620.5 353.35 627.56 363.89 632.37 361.07 638.27 362.15 649.23 362.06 653.15 361.19 657.43 365.92 692.46 370.99 693.15 368.7 697.64 367.66 696.04 371.98 710.71 379.11 714.61 381.45 722.3 382.94 726.63 381.12 729.64 381.4 730.85 384.22 738.15 389.81 739.9 389.67 744.49 399.94 749.84 404.41 754.94 410.82 762.08 415.79 763.94 419.32 763.91 422.6 762.02 423.52 763.21 427.99 766.54 431.91 764.55 436.11 767.28 439.64 763.5 442.4 758.14 449.77 758.74 452.1 763.14 454.95 770.56 457.77 771.81 468.45 773.34 472.97 772.9 476.25 778.33 486.69 781.87 486.41 781.72 491.65 778.95 502.17 781.68 504.16 796.71 508.39 799 518.72 798.61 525.05 Z" id="31140000"/>
</g>
</svg>