<?xml version="1.0"?>
<svg xmlns="http://www.w3.org/2000/svg" version="1.2" baseProfile="tiny" width="800" height="614" viewBox="0 0 800 614" stroke-linecap="round" stroke-linejoin="round">
<g id="sigung">
<path d="M 225.75 436.9 227.48 437.12 229.16 438.94 228.06 439.85 226.15 439.65 224.67 438.17 225.75 436.9 Z M 634.03 49.46 639.98 49.01 641.33 49.3 643.1 52.83 643.08 55.96 643.96 55.74 650.37 51.74 652.13 51.21 654.01 47.05 654.81 46.45 656.86 47.6 658.88 47.94 660.16 49.43 660.73 51.33 663.34 53.51 664.23 54.71 665.92 54.8 667.69 53.24 670 53.92 669.32 54.82 670.28 57.03 669.81 57.81 667.99 58.5 668.14 60.39 665.68 61.86 666.23 63.22 668.38 63.6 671.09 64.48 671.26 65.74 669.54 70.29 670.36 73.19 669.58 75.03 669.83 76.06 671.93 76.59 671.88 78.19 670.35 79.04 669.12 78.31 668.18 79.54 668.56 81.56 669.74 82.97 670.81 82.15 672.84 82.2 673.78 82.86 673.9 84.68 673.14 85.84 670.22 86.29 669.54 86.96 669.88 88.78 671.23 88.48 672.31 89.35 672.38 91.44 673.82 92.9 673.85 95.44 671.36 94.28 670.26 95.93 670.88 97.66 669.84 100.2 670.29 102.02 669.01 105.29 669.65 106.04 669.77 107.59 668.64 109.75 668.7 110.93 670.61 111.35 669.91 112.68 668.16 112.83 668.5 114.49 668.15 116.54 668.87 117.46 668.78 119.15 667.2 120.47 669.54 122.07 669.98 123.15 669.26 124.95 669.31 126.7 668.35 127.37 668.18 129.19 668.87 133.76 670.48 134.82 672.51 134.28 674.61 134.98 678.57 139.96 679.56 142.07 679.88 145.73 679.29 146.44 677.11 147.13 676.31 149.41 675.76 153.14 676.36 154.96 677.48 156.94 679.28 158.01 680.51 159.4 680.51 161.18 681.24 162.93 681.31 165.39 680.15 168.53 680.61 173.88 681.21 174.59 683.99 175.8 685.94 178.21 686.18 179.43 688.49 181.17 689.53 183.35 691.07 185.5 691.33 187.13 690.02 189.34 690.39 190.28 689.58 191.67 689.04 194.16 689.78 196.49 689.71 198.31 690.39 200.38 692.73 203.23 693.02 204.83 691.08 209.9 691.61 210.84 691.43 212.25 692.49 214.55 692.13 215.49 692.38 217.55 693.56 219.6 694.03 223.12 694.09 225.49 695.66 228.34 696.48 229.08 700.51 231.25 702.71 232.1 704 232.03 706.05 235.11 707.66 235.81 708.83 237.59 710.91 238.36 711.64 239.56 713.54 240.6 714.22 242.79 713.81 244.8 715.06 246.57 716.3 247.31 716.44 249.17 717.17 252.14 718.63 255.26 719.88 256.25 719.93 258.63 721.45 259.58 723.16 259.45 724.91 260.91 726.84 263.09 729.45 264.17 733.12 265.04 737.51 265.11 739.26 265.77 741.4 265.95 744.82 264.94 749.38 264.92 751.7 265.26 755.12 265.09 757.19 264.47 761.5 263.83 766.7 263.51 770.15 264.15 772.45 264.21 773.9 264.75 776.04 264.8 778.78 265.66 780.11 265.17 783.47 265.31 785.04 264.5 785.23 267.92 786.06 271.26 787.27 272.48 787.29 277.36 786.78 279.75 787.01 282.37 788.1 284.53 784.85 285.78 780.54 287.74 780.45 288.8 781.91 291.08 782.01 294.26 783.83 295.75 785.13 300.59 784.94 301.96 785.53 307.55 785.47 308.74 786.07 310.46 788.58 312.02 788.19 312.91 788.07 315.85 788.53 317.5 787.8 319.64 788.87 321.15 788.99 322.42 789.9 322.97 789.96 325.37 790.68 326.93 791.44 330.86 791.85 331.27 792.27 334.19 794.86 336.37 794.93 337.17 793.71 340.25 795.65 343 796.51 347.11 796.58 348.5 797.48 349.86 798.04 354.62 797.99 355.9 798.97 358.28 799 361.61 796.07 361.47 796.07 362.58 796.88 364.56 796.24 366.01 794.29 367.66 792.67 369.78 784.73 373.81 782.58 375.76 782.54 376.37 780.86 379.03 780.9 380.84 779.42 384 775.44 387.4 774.64 388.71 772.52 390.73 771.14 394.23 769.62 395.57 766.36 397.69 764.41 400.41 761.65 401.89 759.26 404.82 758.28 404.58 757.51 406.5 756.5 407.38 752.73 407.48 752.06 408.12 751.22 412.19 749.4 414 745.46 415.45 740.31 415.38 737.02 416.12 734.05 417.4 732.44 417.67 730.76 417.43 727.26 418.91 725.57 418.78 721.97 422.95 717.36 421.6 714.87 419.79 711.41 418.71 708.18 416.59 707.5 417 705.75 414.57 705.89 412.89 703.77 409.6 703.6 407.14 702.79 405.33 700.67 404.32 698.99 403.11 696.2 405.39 693.98 406.17 691.92 406.33 689.57 407.07 687.48 408.25 686.74 409.26 685.06 409.06 683.98 409.63 681.29 409.53 680.25 409.13 679.18 410.41 679.67 408.82 676.58 406.97 675.02 408.72 671.51 410.15 669.04 408.69 666.8 406.71 665.54 409.23 664.8 409.77 662.85 410.03 659.42 411.58 658.95 412.62 653.09 412.32 652.28 412.69 650.97 414.54 645.92 413.03 645.38 411.48 642.66 408.66 641.78 407.24 637.95 405.53 636.43 404.15 632.9 403.88 632.66 401.86 630.75 399.31 627.95 398.7 626.34 401.29 626.34 402.74 623.95 403.04 621.63 404.45 619.61 406.3 618.77 408.76 616.54 413.9 613.25 414.41 611.33 416.73 611.46 420.16 610.05 423.52 607.16 426.35 604.87 429.2 605.17 433.37 603.89 436.57 604.03 437.68 600.63 434.25 599.11 432 595.88 431.05 594.4 431.83 591.44 434.01 589.79 437.04 588.08 436.77 586.9 437.07 583.87 439.09 581.55 438.39 580.37 437.48 577.98 436.74 574.65 441.08 574.08 442.96 572.87 444.74 569.53 446.39 567.04 445.75 566.47 444.34 562.3 442.39 559.24 441.41 557.18 442.72 555.4 440.84 554.56 441.51 549.98 442.52 548.77 444.14 545.91 445.25 544.26 443.13 544.09 441.11 541.81 438.96 540.02 441.68 538.51 443.53 532.42 447.97 530.74 448.48 529.83 450.96 529.19 451.74 528.85 453.42 527 455.44 526.56 457.99 527.57 460.95 527.07 462.47 527.4 465.53 528.25 466.87 528.41 468.86 530.23 474.4 532.12 478.37 534.71 481.67 529.05 485.7 526.63 488.66 523.74 492.93 522.73 495.86 520.07 498.38 519.6 498.15 517.44 499.29 514.38 501.71 512.23 502.25 511.76 503.7 508.85 507.23 508.59 505.78 507.65 504.6 507.58 501.81 507.95 498.58 506.31 493.81 504.05 492.9 501.56 492.9 500.32 494.48 497.25 493.3 491.9 492.6 489.68 491.15 487.86 488.83 486.32 487.86 484.94 487.52 482.58 487.96 481.44 489.24 477.9 489.81 477.37 487.15 474.87 485.2 473.9 483.59 472.99 483.18 469.29 485.17 468.92 486.07 466.83 487.62 463.33 488.7 462.39 486.92 460.64 485.84 460.07 484.93 457.81 484.86 455.49 485.33 453.71 486.07 450.38 486.14 445.36 491.93 441.46 491.32 438.83 491.29 437.93 490.75 434.36 495.66 429.86 501.4 427.08 503.73 416.22 511.04 406.31 517.85 404.63 520.27 404.21 521.96 398.93 548.26 399.06 551.49 395.83 551.89 372 533.36 345.52 567.36 339.73 574.76 325.19 593.5 323.67 596.18 321.88 597.76 320.28 599.88 318.92 602.63 317.01 604.4 315.41 607.23 313.69 608.45 311.25 611.89 310.21 611.79 309.12 613 307.08 612.78 294 610.88 287.69 609.19 275.2 604.54 273.44 603.64 268.36 599.54 266.39 599.19 261.91 594.81 261.53 594.23 251.63 586.55 249.51 585.07 234.99 573.79 233.6 573.12 213.57 568.78 211.22 568.57 204.18 569.11 202.94 569.98 201.15 569.82 199.32 570.2 198.61 571.58 197.51 570.02 190.99 569.26 189.02 567.12 187.18 568.13 186.34 567.57 187.71 565.1 189.12 564.77 189.21 562.78 186.75 562.39 185.59 561.52 185.24 559.89 184.44 559.54 183.85 557.91 184.24 556.07 182.99 553.65 180.46 550.47 178.23 547.1 171.91 535.58 170.85 535.17 169.57 535.8 162.53 538.46 146.3 543.83 143.73 545.07 141.67 545.43 135.27 547.74 133.32 548.24 124.31 551.52 119.8 552.89 106.57 557.58 101.05 559.31 86.45 564.45 64.63 571.86 44.29 578.93 41.34 579.91 38.69 581.53 29.23 584.8 24.98 585.52 21.22 586.9 16.65 588.37 12.7 590.03 9.39 590.96 6.81 591.45 3.44 591.2 2.21 590.2 1.54 588.89 1 587.69 1.2 586.21 2.88 585.58 6.09 586.6 10.12 585.81 16.9 584.95 19.74 584.28 20.55 583.71 32.33 579.7 40.74 576.92 76.55 564.61 90.55 559.73 121.62 549.1 121.95 547.8 121.1 543.16 123 547.54 123.93 548.3 132.24 545.46 169.65 532.49 186.34 526.74 189.88 525.57 216.21 516.53 225.8 513.12 228.43 512.03 228.01 510.17 229.26 509.08 231.23 510.09 232.09 505.88 231.53 502.85 231.74 501.58 231.3 497.65 230.74 496.89 228.07 496 227 496.06 226.89 494.28 218.69 491.67 215.34 490.72 214.63 490.18 214.65 488.71 215.23 487.04 218.53 476.1 217.93 474.82 215.36 474.21 214.65 475.83 213.64 475.52 214.16 473.27 205.82 470.79 204.11 470.83 203.7 468.24 208.06 467.28 208.13 467.77 204.56 468.16 204.87 470.19 210.06 471.72 210.56 471.57 214.45 472.76 215.09 470.68 216.16 471.23 215.84 473.04 217.9 473.61 219.39 473.59 221.03 467.76 222.79 462.05 223.91 461.57 235.33 463.57 236.43 463.56 237.09 461.37 238.58 461.13 238.09 463.22 242.43 461.7 246.5 460.49 250.8 458.82 253.99 457.93 261.59 455.43 261.84 453.99 260.46 451.4 258.72 450.89 257.18 449.41 257.32 448 258.21 447.92 264.68 453.68 265.32 453.76 266.86 452.42 261.88 447.51 258.81 443.85 258.48 442.74 258.75 440.59 259.46 439.24 273.46 420.96 282.38 409.12 281.95 407.4 282.96 406 283.84 406.54 285.82 404.01 300.33 384.68 302.09 383.85 303.18 382.3 303.18 381.54 301.46 380.01 302.02 379.5 303.61 380.78 304.76 380.22 304.5 379.18 305.68 378.68 306.68 376.77 307.67 376.37 309.12 374.41 309.31 372.63 310.9 371.35 313.34 368.24 315.85 364.51 318.85 361.17 319.4 359.7 322.08 356.65 323.61 353.62 326.43 350.79 329.16 346.9 330.99 344.9 331.56 343.54 333.18 341.83 334.03 340.43 337.93 335.62 338.91 333.81 341.22 330.86 341.59 329.55 344.11 327.66 345.18 325.87 346.84 323.87 349.16 322.27 350.03 320.93 351.11 320.87 354.97 321.8 359.57 324.06 360.4 324.72 364.96 326.87 374.83 331.78 377.87 333.45 383.07 335.87 385.21 331.4 386.76 328.66 389.93 321.85 391.13 319.92 392.27 319.4 393.85 316.92 392.25 314 390.9 314.27 388.33 319.37 387.85 320.94 384.3 328.15 383.4 328.85 377.06 325.74 377.12 324.21 379.62 319.41 369.43 314.37 363.97 318.44 362.69 318.61 360.63 317.11 359.67 315.88 358.96 314.05 358.83 311.59 359.2 310.03 361.24 306.51 367.91 298.2 375.51 288.35 374.64 286.44 375.33 286.13 376.24 288.51 376.89 287.76 388.27 277.35 390.92 276.59 427.29 282.78 442.04 280.65 443.98 281.28 444.86 282.56 446.86 289.08 447.48 290.68 447.59 292.22 443.54 304.28 445.52 304.98 449.47 293.05 465.73 292.97 474.53 292.97 475.02 293.1 480.96 297.39 486.77 301.32 488.52 299.45 490.63 297.83 491.24 298.01 492.85 296.65 493.8 293.35 494.81 291.36 495.8 290.55 496.91 291.06 498.85 293.93 503.11 298.6 505.44 301.45 506.84 302.32 508.9 302.58 510.21 304.95 505.91 310.75 502.46 313.71 502.95 314.39 507.77 309.78 511.33 305.1 510.57 302.77 514.37 297.59 518.91 293.54 519.7 292.1 524.55 288.14 528.18 292.56 528.74 291.91 526.66 289.33 526.3 287.88 526.98 286.75 526.17 284.73 526.73 282.53 532.36 282.92 532.39 282.59 524.23 281.91 524.11 280.35 526.28 279.05 526.76 277.48 526.41 276.32 523.29 272.65 522.9 271.12 523.35 265.34 522.88 263.79 523.09 261.86 526.63 262.36 528.29 262.36 532.23 260.11 531.32 258.78 530.52 258.75 529.5 260.28 528.32 261.01 525.42 260.87 523.69 260.02 522.72 257.45 523.85 255.43 527.31 253.21 530.17 251.7 530.65 250.35 521.91 255.39 522.11 259.34 521.61 262.68 520.58 263.47 518.22 262.61 516.14 260.14 514.2 260.43 518.24 245.55 517.47 245.27 514.62 257.91 513.91 259.86 514.4 261.63 515.13 262.41 520.63 265.02 522.44 265.5 521.9 267.41 521.67 273.91 525.25 276.94 524.68 278.46 523.34 279.42 521.7 279.99 521.56 283.83 524.67 286.36 524.11 287.05 519.13 290.61 517.41 292.41 514.12 295.26 512.73 296.82 510.86 299.99 508.4 300.59 505.82 299.32 504.21 296.92 505.66 294.14 504.52 293.64 503.01 296.02 501.2 294.03 498.07 289.74 496.62 288.96 494.19 289.76 492.77 291.49 491.77 294.74 490.01 295.3 485.31 293 480.76 292.67 479.22 291.65 476.86 288.43 475.11 287.77 473.92 286.74 471.04 286.36 471.17 289.08 469.24 289.55 464.92 289.44 461.17 288.75 456.78 290.09 455.63 289.69 455.58 287.75 457.2 284.38 456.18 281.9 454.88 279.76 448.84 274.1 447.89 273.51 437.15 272.22 424.24 270.56 408.41 268.46 407.34 267.41 404.08 258.08 404.04 256.25 404.55 254.98 410.37 245.02 410.76 243.79 411.81 243.73 417.08 244.5 417.64 242.91 416.85 239.97 416.87 236.4 416.4 234.36 416.94 232.35 416.68 229.11 417.73 224.51 423.09 220.83 420.95 217.49 420.73 215.06 422.57 213.9 424.01 213.88 420.03 205.63 421.9 204.2 422.08 203.02 416.78 186.24 420 184.77 421.03 186.2 421.94 186.26 422.42 184.46 423.87 183.17 424.04 182.06 425.03 181.05 427.36 179.98 429.09 178.27 430.89 178.14 432.4 177.34 432.98 174.71 432.24 172.27 433.89 170.61 435.44 170.52 436.16 171.9 438.53 172.84 440.48 172.6 443.57 170.89 443.72 172.89 450.39 173.89 453.92 172.46 458.72 171.4 460.96 169.56 464.34 168.43 465.77 164.11 468.53 159.94 470.01 153.55 467.12 153.44 465.46 153.07 463.77 151.83 465.29 149.75 467.47 148.08 468.89 145.34 469.15 143.03 470.17 141.32 470.46 138.84 470.37 134.95 468.16 130.04 468.34 129.21 467.65 126.87 467.31 123.63 466.17 118.74 464.66 116.6 465.05 114.56 464.26 112.24 463.02 109.96 461.62 108.89 463.12 106.28 467.78 101.26 470.19 97.87 469.93 96.21 467.88 93.81 468.92 90.19 469.78 88.96 471.75 87.04 478.06 82.58 491.42 80.6 493.79 80.73 494.93 76.61 496.71 71.91 497.18 69.47 496.75 67.93 498.02 65.97 490.96 58.41 488.92 57.8 489.02 55.99 489.56 54.25 490.12 50.58 491.77 49.76 493.31 48.33 493.4 46.46 492.41 39.62 490.08 36.8 491.63 34.78 495.02 28.59 496.29 25.46 495.41 24.74 495.94 23.62 495.63 20.59 494.42 18.18 495.16 16.24 492.69 12.32 490.52 9.8 490.59 7.06 491.51 3.19 493.07 3.35 495.97 4.46 498.05 4.33 505.59 2.28 506.3 1.54 509.7 1 509.53 4.19 509.8 5.24 512.19 9.84 513.77 10.25 515.65 11.66 518.04 11.76 520.23 12.8 520.26 21.68 522.79 24.91 524.23 26.22 530.9 27.47 533.82 27.57 539.21 25.78 540.72 25.95 541.9 27.57 545.16 31.13 545.84 32.31 548.43 32.31 550.68 30.79 552.87 30.26 555.36 31.6 559.33 33.22 558.93 36.51 560.77 36.35 563.4 37.32 564.21 39.17 565.83 41.05 568.42 41.76 570.4 41.02 572.42 41.08 573.33 39.94 575.85 39.5 578.41 40.11 580.03 39.67 582.82 39.47 582.92 41.08 584.37 42.46 585.92 42.97 586.45 44.14 587.7 44.58 588.61 45.99 590.49 47.88 591.23 49.86 593.82 50.37 595.16 50.98 596.35 50.3 595.64 47.67 595.94 46.56 597.93 46.4 602.61 43.84 604.49 45.73 605.3 47.47 606.21 47.64 606.81 49.09 609.03 50.53 612.5 50.2 615.16 49.39 616.44 50.33 618.29 52.69 624.24 53.09 625.32 53.56 627.31 50.06 631.14 50.37 632.25 51 634.03 49.46 Z" fill-rule="evenodd" id="31150000"/>
</g>
</svg>