<?xml version="1.0"?>
<svg xmlns="http://www.w3.org/2000/svg" version="1.2" baseProfile="tiny" width="800" height="980" viewBox="0 0 800 980" stroke-linecap="round" stroke-linejoin="round">
<g id="sigung">
<path d="M 772.85 99.92 768.27 101.54 764.44 103.84 762.84 105.9 757.79 109.8 750.76 113.17 743.65 113.01 737.53 115.39 733.63 117.99 731.26 121.89 733.86 135.65 738.29 148.12 737.84 156.3 738.91 166.02 738.07 173.28 738.68 177.34 740.44 179.71 738.6 182.08 738.83 186.52 740.82 195.01 740.74 198.91 742.35 201.35 740.36 210.53 740.21 213.52 737.23 215.5 732.64 221.39 729.58 223.08 724.53 223.99 722.24 226.98 714.86 228.05 718.33 235.39 719.68 244.41 720.67 246.63 716.69 251.87 710.07 252.86 709.05 263.46 705.09 268.98 704.24 276.74 697.18 284.05 698.67 290.62 697.97 299.64 696.12 302.34 696.41 306.1 692.76 308.13 681.58 306.6 678.35 306.52 671.07 309.56 670.9 315.47 669.97 317.38 669.68 326.92 672.05 331.1 669.75 336.62 669.14 339.95 669.08 352.87 667.73 363.27 669.16 370.96 669.32 377.65 669.07 392.19 661.7 394.58 657.31 399.41 654.44 408.75 647.48 423.76 643.2 436.7 638.39 442.83 628.11 447.09 623.67 454.23 618.94 457.2 616.67 462.87 600.02 475.25 597.24 482.18 592.21 491.91 591.77 504.71 593.11 509 596.47 525.73 596.22 526.46 601.89 540.95 603.33 549.32 597.46 553.1 590.15 555.66 588.5 555.39 582.32 559.96 576.86 562.26 575.76 573.24 569.16 576.11 565.47 583.05 565.82 596.03 561.22 604.78 558.8 607.96 553.93 612.64 555.11 616.94 548.58 625.31 548.92 630.62 546.7 636.23 542.2 639.24 540.4 648.2 538.86 648.65 531.83 647.96 524.67 648.78 519 647.94 513.05 648.97 509.93 652.55 503.19 654.12 494.95 652.53 489.5 652.95 484.59 654.45 473.78 667.7 458.35 672.86 451.02 676.28 445.29 680.27 442.76 686.58 439.32 686.64 437.08 688.06 427.53 692.31 423.38 693.14 420.21 698.41 416.96 699.43 413.64 704.8 410.61 706.69 412.05 721.43 410.05 725.96 407.16 728.86 399.23 730.48 394.65 730.4 389.98 731.97 383.37 736.78 379.51 737.38 373.02 743.54 371.17 748.93 364.34 755.39 355.43 756.22 347.7 751.37 342.52 749.51 335.4 745.71 333.97 741.95 328.04 740.91 326.08 739.01 315.83 736.82 307.82 732.47 301.39 725.14 297.39 717.73 294.05 715.48 285.53 712.27 283.41 717.06 280.7 719.68 280.16 727.82 280.92 729.78 278.38 733.06 275.02 742.95 269.15 743.96 266.75 752.43 267.31 756.73 265.83 760.5 266.77 765.11 265.97 768.54 260.62 771.41 259.42 773.75 253.91 778.49 255.53 783.25 254.24 785.92 256.1 787.71 257.66 792.63 262.56 794.23 263.17 798.45 271.09 805.12 272.74 808.16 270.08 810.93 268.57 814.16 265.99 823.77 262.57 827.52 259.62 828.42 254.91 831.68 252.6 831.69 254.59 855.25 255.15 866.27 255.64 883.64 254.86 897.35 253.68 905.13 251.11 915.62 246.8 927.27 242.63 935.55 237.57 943 230.89 951.9 222.73 961.33 214.4 961.98 206.23 962.91 200.9 961.99 199.23 963.02 185.95 962.71 182.82 961.81 179.37 957.38 170.73 955.1 163.42 957.06 160.57 959.24 163 966 161.15 970.22 149.06 974.49 147.65 978.19 123.05 977.18 106.75 976.24 103.54 978.51 99.34 979 89.53 978.84 87.41 977.26 80.51 968.02 75.75 968.75 68.38 967.76 67.19 966.46 62.21 964.54 54.16 964.01 50.2 957.62 44.37 957.4 41.21 955.24 34.97 953.34 25.46 955.85 23.86 951.87 17.56 950.8 14.89 948.01 12.75 942.54 9.54 937.38 10.49 930.92 9.57 926.1 7.2 920.36 11.41 920.48 14.7 919.41 21.49 914.82 25.32 910.38 23.94 903.19 17.21 897 15.83 884.07 9.41 880.63 9.11 877.19 6.05 872.52 6.2 868.24 7.65 864.57 6.28 859.98 3.91 858.07 4.82 854.55 1 846.37 1 839.48 3.91 835.43 10.94 831.45 19.35 825.64 23.94 823.42 26.16 819.44 26.46 814.85 32.19 810.57 38.85 806.98 41.52 802.85 44.27 794.28 44.43 787.93 51.39 786.48 59.57 787.17 68.67 793.28 73.41 795.04 75.85 797.11 78.68 796.88 88.01 800.93 91.76 802 101.62 808.12 105.29 809.5 107.89 808.96 109.49 805.22 108.81 801.31 109.72 793.21 112.25 789.77 114.92 790.38 118.75 784.11 120.05 775.84 119.82 768.43 120.35 764.45 118.21 761.54 123.72 758.48 124.86 755.42 127.92 754.73 128.53 723.38 129.22 698.29 128.76 692.86 129.76 689.03 129.53 682.92 129.98 672.21 130.9 661.73 130.21 655.61 129.91 639.47 136.41 641 144.51 626.78 162.71 635.26 171.42 631.06 172.57 628.53 177.62 622.8 178.99 619.97 180.14 614.38 179.61 612.7 193.37 605.13 197.73 583.48 198.03 580.27 206.27 572.37 205.48 566.98 203.66 562.67 204.23 557.27 206.08 554.37 204.95 552.93 217.05 546.66 217.22 544.32 219.59 539.12 219.44 531.4 218.52 525.12 222.88 516.1 225.63 513.88 225.17 511.82 220.97 509.06 221.05 506.69 213.02 501.64 216.3 495.3 220.2 490.4 220.59 482.83 218.52 479.08 221.96 471.2 223.11 458.59 226.86 456.14 230.68 455.75 233.11 457.66 238.66 457.4 250.53 453.9 251.19 451.25 250.86 444.28 245.74 438.08 239.85 433.11 238.86 430.05 239.39 426.31 243.75 417.36 245.05 410.7 249.26 402.21 249.1 399.08 242.22 387.83 241.61 381.49 242.68 376.44 248.8 362.9 251.55 360.68 255.07 351.89 258.13 347.53 259.5 342.86 264.01 335.82 266.23 333.38 270.97 330.7 272.88 324.73 278.31 318.46 281.14 311.27 292.38 300.33 290.74 298.38 294.67 292 293.07 283.28 293.07 274.48 295.13 268.29 296.13 253.37 295.59 250.39 296.2 245.49 301.02 245.11 303.85 242.36 305.15 238.46 304.38 236.01 305.38 227.83 307.75 225.15 311.08 225.69 311.11 220.56 313.18 216.96 324.72 212.3 329.61 208.09 334.43 202.28 336.04 198.61 340.78 194.94 346.66 193.1 352.63 189.35 356.07 184 356.45 180.71 361.04 179.18 361.44 176.5 357.75 172.98 348.58 168.4 343.91 165.03 344.83 158.91 347.81 153.1 354.31 150.57 356.3 145.22 354.92 141.47 359.89 140.02 361.57 135.74 364.02 133.67 364.02 128.85 360.75 127.14 362.71 123.49 365.16 121.59 366.13 118.03 371.95 114.19 375.02 113 378.17 106.21 377.85 91.31 379.63 83.25 383.64 76.78 391.52 71.68 395.56 67.87 400.13 65.43 403.71 67.89 412.23 63.27 418.11 66.13 426.48 68.1 428.44 76 430.92 76.11 435.28 81.26 437.56 86.5 440.38 88.11 441.32 90.46 448.54 89.42 450.92 88.43 458.49 91.53 460.89 91.11 467.58 92.59 469.65 91.59 473.23 91.92 477.95 93.78 481.41 91.16 485.04 83.97 489.93 80.83 493.24 76.23 493.85 73.78 499.66 73.86 505.01 70.19 513.65 66.21 517.17 66.13 523.21 63.76 527.87 59.17 528.41 49.31 527.19 47.24 528.56 44.56 534.83 42.35 535.37 38.06 540.95 28.5 562.59 31.94 573.44 22.92 570.23 15.19 577.42 16.88 583.38 17.26 585.83 18.25 589.5 17.33 594.39 18.25 597.83 16.95 600.97 21 605.94 21.62 608 23.61 611.83 24.22 627.73 28.42 630.48 27.43 639.51 28.5 643.63 26.97 646.69 28.58 650.29 27.81 656.4 31.18 668.79 31.18 676.28 28.5 681.1 24.9 688.36 22.61 694.02 23.53 700.52 22.3 704.04 19.09 712.14 15.5 717.11 14.12 732.18 14.73 738.83 16.41 741.73 15.42 743.95 12.44 751.98 8.92 755.88 7.85 759.4 5.55 760.92 1.12 764.9 1 767.19 2.19 771.02 2.11 777.75 7.24 779.89 10.53 784.02 11.44 787.91 14.2 797.17 16.19 799 22.91 796.48 28.73 797.78 36.38 795.87 41.73 791.05 43.79 789.14 46.62 784.4 51.06 783.94 53.58 777.52 56.03 773.23 60.47 769.56 62.46 766.2 71.02 769.49 81.12 769.49 88.46 772.32 93.82 772.85 99.92 Z" id="31170000"/>
</g>
</svg>