<?xml version="1.0"?>
<svg xmlns="http://www.w3.org/2000/svg" version="1.2" baseProfile="tiny" width="800" height="848" viewBox="0 0 800 848" stroke-linecap="round" stroke-linejoin="round">
<g id="sigung">
<path d="M 799 531.68 787.39 531.71 782.75 538.65 778.5 539.89 773.12 539.45 769.34 540.41 767.7 544.47 764.25 545.98 760.11 551.6 756.67 553.18 756.67 557.48 754.44 559.65 756.14 563.87 748.06 571.95 746.76 572.79 738.4 573.04 736.26 574.43 731.31 575.45 727.53 578.86 724.31 577.68 719.38 577.41 715.15 579.79 709.78 583.91 705.63 586.58 701.67 587.47 698.94 585.89 687.7 584.72 684.51 583.42 674.23 582.8 670.08 580.32 662.03 581.31 660.29 582.08 643.95 584.92 638.18 586.51 628.95 587.78 630.16 592.27 627.09 596.58 627 597.88 623.81 602.93 621.46 608.97 623.87 614.33 624.86 618.08 627.37 622.85 629.51 629.6 629.17 632.11 630.88 637.63 631.14 642.83 632.05 647.94 631.65 651.91 633.88 656.19 636.72 659.87 641.9 663 647.59 668.08 647.16 673.54 649.52 676.6 650.35 681.13 653.6 684.57 654.25 692.65 651.99 697.82 651.1 701.14 643.48 709.91 642.3 710.77 636.51 709.78 627.72 720.08 625.33 722.27 623.28 726.33 624.31 730.04 623.78 734.1 621.09 733.42 618.24 734.07 613.65 732.89 612.11 731.78 606.44 730.97 601.58 728.15 599.78 725.58 596 725.39 587.58 726.36 583.92 727.28 577.7 731.62 573.52 733.82 572.99 735.96 575.84 739.77 576.74 755.88 577.33 757.33 587.39 761.83 587.76 765.23 586.34 772.8 584.17 775.15 582.65 775 578.63 778.74 578.94 784.04 575.41 788.19 574.6 791.91 573.27 792.4 567.17 791.69 563.89 792.37 560.05 790.76 556.17 790.24 552.92 791.54 544.78 793.52 542.14 796.31 539.11 792.22 536.07 792.03 532.64 790.61 529.45 790.79 522.66 789.96 518.39 787.11 514.21 786.49 508.26 787.94 505.17 786.49 501.39 787.6 496.4 786.05 485.78 786.43 483.55 783.3 478.13 780.73 475.6 776.71 472.55 770.41 469.15 771.34 463.73 771.15 461.93 772.64 457.29 773.01 455.4 771.15 447.1 769.61 445.46 765.89 442.11 762.85 441.89 759.51 437.56 755.94 435.89 755.51 432.6 758.02 427.93 759.32 417.83 756.78 415.35 753.43 406.4 756.44 401.88 756.38 394.36 758.55 387.29 761.49 383.48 760 382.21 761.06 376.73 762.23 372.18 762.45 366.76 766.85 363.35 765.7 357.69 767.31 355.05 765.58 352.36 765.39 350.5 760.47 347.53 757.25 346.97 754.37 348.12 749.81 344.7 748.05 342.26 748.85 341.3 744.05 335.46 743.88 331.61 745.63 333.87 749.35 335.45 753.59 332.01 760.13 331.52 764.5 330.31 764.87 328.57 768.58 327.31 769.67 323.56 769.58 321.45 772.21 318.08 772.24 311.23 770.29 308.01 768.06 307.76 765.77 304.94 763.85 302.84 763.72 296.64 760.1 292.87 759.63 287.63 761.96 285.25 764.68 277.41 764.84 270.97 767.28 266.7 766.97 261.21 762.08 257.81 764.16 251.58 761.65 250.9 759.54 248.01 757.47 246.41 750.87 244.65 746.81 242.21 745.38 241.83 742.44 239.41 743.37 236 741.82 231.02 740.67 228.26 739.5 225.17 740.12 219.93 736.49 214.02 735.35 211.76 732.71 212.68 727.84 212.87 722.52 213.71 720.38 208.04 720.14 207.79 724.25 206.83 728.32 204.63 730.21 204.6 732.5 202.93 733.55 196.89 732.99 197.82 737.79 197.11 741.36 199.15 743.74 198.68 745.93 196.92 747.77 196.08 753.07 197.79 757.99 197.42 760.19 199.15 763.45 196.8 769.55 193.39 770.79 195.06 773.92 196.02 778.25 195.43 783.3 193.61 784.36 194.75 786.8 195.4 792.13 202.03 795.26 204.39 797.4 205.44 801.05 207.33 802.57 213.87 805.38 213.34 808.34 214.85 813.42 210.86 817.1 208.26 815.62 205.81 818.99 203.83 819.02 198.66 824.17 196.76 824.99 190.93 826.79 186.55 829.14 182.63 829.91 176.6 833.5 173.26 838.73 169.67 842.2 160.24 846.56 153.81 847 146.62 844.4 145.88 840.77 143.29 839.36 140.71 839.27 141.21 836.95 136.04 835.12 130.46 832.62 125.94 832.7 124.57 830.56 120.67 831.84 115.3 831.53 112.19 830.45 103.42 832.14 93.41 830.07 89.79 827.9 87.04 828.15 80.97 826.54 81.62 819.35 81.54 814.47 76.07 814.02 60.21 813.26 50.36 812.98 42.73 812.42 39.14 812.72 20.86 811.75 21.67 802.04 25.07 794.05 25.45 788.36 40.66 789.08 41.39 778.65 42.33 759.05 43.47 753.29 49.01 742.16 51.26 743.26 53.29 739.52 55.78 736.22 58.57 733.86 75.84 722.33 76.68 721.37 85.44 715.33 86.04 714.48 102.8 703.41 102.07 701.84 97.74 701.75 97.1 700.98 101.77 696.52 101.39 693.21 102.58 687.03 103.52 684.42 106.43 680.03 108.25 678.58 111.03 671.01 110.73 663.81 110.13 662.01 109.65 654.18 113.52 649.93 114.07 648.61 114.18 643.14 116.68 637.51 118.24 635.5 118.43 630.93 113.57 624.8 107.5 622.97 104.58 615.9 98.34 610.49 91.93 619.34 87.88 618.07 77.67 614.07 73.71 613.97 71.59 611.39 67.57 611.98 60.52 604.48 57.12 599.81 48.35 606.83 45.35 607.84 43.39 610.35 40.64 609.17 38.84 610.03 33.84 610.26 29.31 607.08 27.93 604.75 23.7 602.24 19.98 602.12 13.46 598.9 12.85 597.58 6.76 594.78 5.67 591.38 9.51 586.36 4.96 580.29 2.92 578.69 2.88 575.39 1 573.08 2.52 566.58 3.05 562.19 6.35 560.99 7.83 558.07 7.21 555.98 8.15 548.93 9.03 547.22 13.26 546.34 16.94 544.92 20.47 545.44 19.55 539.98 19.72 537.1 17.12 535.53 12.65 531.67 8.63 529.56 4.49 525.58 12.81 524.85 19.59 525.35 26.33 525.15 30.9 521.99 30.86 519.48 28.99 516.69 27.68 510.42 27.93 506 27.39 503.36 27.28 497.51 29.92 488.88 31.95 484.05 32.07 481.64 43.74 480.12 45.83 474.8 48.12 472.95 48.1 470.41 50.36 466.57 51.59 461.68 53.56 458.49 52.78 455.34 55.04 452.2 57.96 451.06 60.04 447.73 64.71 441.89 70.45 436.21 70.95 434.33 73.05 432.22 73.74 429.74 72.85 426.45 75.09 423.08 74.19 416.93 76.1 415.34 77.23 412.88 75.21 400.88 76.57 398.78 77.68 395.04 80.44 392.59 82.29 389.23 84.45 383.33 88.16 377.52 88.66 375.57 91.44 374.85 93.63 371.27 97.5 362.3 100.76 359 105.42 352.28 108 350.48 108.41 348.44 112.03 346.08 115.34 340 119.67 333.45 122.24 330.92 127.6 322.91 129.38 322.74 138.59 325.36 139.29 326.94 146.63 327.95 148.2 327.47 147.22 324.06 148.49 321.42 153.81 322.39 158.58 321.77 163.74 324.12 170.86 321.93 176.56 319.08 186.4 318.74 188.64 320.69 196.32 321.29 197.53 318.47 201.08 320.39 202.21 317.52 210.23 313.74 216.09 311.91 226.63 311.8 229.02 312.72 231.82 317.67 239.14 321.47 240.53 318.69 235.22 313.4 234.86 312.34 234.38 302.87 235.4 297.25 236.45 297.14 235.28 292.19 235.72 286.64 236.76 280.82 235.73 276.21 229 271.03 227 267.89 227.83 258.49 227.26 254.43 228.84 247.05 228.78 241.33 228.11 236.34 230.44 221.87 230.48 212.68 226.02 198.77 224.16 195.66 220.57 187.97 218.32 184.76 217.22 181.73 216.58 176.41 216.38 165.79 215.16 158.2 212.08 152.36 210.25 145.91 207.6 140.71 207.8 137.92 205.11 133.43 202.67 128.14 198.22 122.68 195.75 117.11 196.19 111.87 194.72 102.53 193.78 101.05 194.39 93.29 197.23 91.94 202.27 87.07 203.68 82.99 203.73 73.76 200.25 74.91 192.53 80.21 174.66 87.15 165.98 88.85 157.21 89 156 83.69 163.15 77.84 167.85 75.01 175.93 67.43 182.35 63.43 202.21 44.1 205.86 39.51 210.08 36.98 220.13 26.83 223.93 21.69 228.16 13.77 237.38 1.37 247.45 1 250.14 1.86 267.87 2.7 280.5 3.57 293.86 5.29 306.44 6.08 309.35 5.62 317.66 9.04 328.87 12.9 340.42 19.06 342.5 20.97 353.59 33.94 358.05 39.67 363.86 48.7 371.68 61.72 390.12 86.55 402.77 103.84 405.33 106.4 415.9 113.79 432.69 121.85 437.24 124.73 438.45 127.25 438.03 136 438.59 138.9 438.49 156.53 438.2 160.76 439.22 166.3 439.47 171.85 440.94 175.34 449.65 185.42 453.42 187.84 456.86 188.43 467.13 191.9 485.69 197.65 487.92 199.81 498.12 212.98 505.42 219.77 508.25 224.78 511.45 233.26 513.9 237.79 518.41 248.98 521.11 257.64 521.63 261.11 528.64 289.02 534.5 306.75 536.23 310.87 537.96 313.42 543.79 319.4 546.89 323.13 553.01 329.53 560.1 336.23 579.77 343.82 585.54 345.52 590.96 349.07 601.65 355.19 610.27 359.43 619.68 365.26 622.91 367.71 630 371.92 632.42 372.48 633.9 374.24 641.92 378.54 650.74 383.66 653.12 386.24 666.37 397.3 677.84 406.29 684.6 410.58 691.31 413.59 693.8 415.2 712.16 424.33 716.34 427.29 727 431.72 732.36 433.1 732.49 433.96 742.69 439.82 750.11 444.45 757.44 448.09 761.9 451.48 767.41 454.07 771.86 457.18 774.56 458.08 784.06 471.76 786.52 475.65 791.56 482.34 793 485.88 797 504.64 798.1 510.83 799 531.68 Z" id="31180000"/>
</g>
</svg>