<?xml version="1.0"?>
<svg xmlns="http://www.w3.org/2000/svg" version="1.2" baseProfile="tiny" width="800" height="867" viewBox="0 0 800 867" stroke-linecap="round" stroke-linejoin="round">
<g id="sigung">
<path d="M 574.81 281.06 575.59 281.46 575.19 283.28 575.67 284.24 576.57 284.52 576.83 287.11 577.74 287.37 578.16 289.51 578.9 290.95 578.52 291.98 578.63 293.42 579.92 294.4 580.06 295.5 580.77 295.76 580.4 298.77 578.94 300.85 578.32 303.38 579.36 307.69 577.33 308.7 576.54 308.56 575.45 307.55 573.84 308.45 572.49 308.31 570.52 310.34 569.7 310.42 569.87 311.74 569.42 312.33 569.42 313.83 570.15 314.22 570.01 315.77 570.49 317.63 568.13 321.54 565.87 322.66 566.86 324.16 568.13 325.39 569.48 326.04 571.42 331.02 571.45 332.6 571.03 333.22 575.02 336.06 575.59 337.98 573.79 338.15 571.39 339.78 570.52 339.67 568.94 341.13 567.82 340.93 567.25 341.41 566.47 343.38 565.34 344.73 564.18 345.27 561.57 347.46 560.78 349.97 559.37 350.92 560.3 354.05 561.59 357.74 561.09 358.75 559.74 359.09 558.02 360.86 557.23 362.07 557.65 362.66 555.91 366.6 556.47 368.57 557.57 369.9 557.82 370.97 558.64 371.33 559.2 372.91 560.97 374.82 560.64 376.29 561.34 377.58 563.45 379.52 565.56 380.65 564.16 383.24 563.37 387.09 564.04 387.38 564.8 389.12 564.86 390.61 563.26 395.68 562.16 396.27 562.02 397.96 563.34 400.1 564.21 402.04 563.51 402.91 563.85 404.91 561.26 409.64 561.34 411.75 561.82 413.69 562.66 415.72 561.37 416.03 558.16 418.37 558.64 420.9 558.61 422.22 557.54 423.18 557.51 423.91 556.53 425.18 555.91 426.75 556.75 428.58 555.23 429.57 554.33 430.81 554.44 431.48 553.71 432.64 553.91 434.78 554.53 435.17 554.41 437.76 554.98 438.46 558.02 438.27 558.95 438.74 568.16 444.88 571 447.41 572.18 447.67 572.91 451.07 574.75 452.65 575.96 455.13 575.98 455.94 575.28 457.66 576.46 461.09 577.25 465.63 578.91 468.27 580.8 469.03 581.42 472.69 583.16 475.2 582.8 475.76 585.76 476.63 587.02 476.18 588.77 476.01 592.46 480.29 594.79 481.98 595.92 483.58 596.62 486.54 597.33 487.22 600.57 488.06 603.05 490.17 605.27 489.89 607.27 491.27 608.23 490.76 611.35 490.79 612.9 492.11 615.1 491.86 616.48 492 618.87 493.77 618.51 496.16 621.1 496.84 622.22 496.42 622.98 496.67 623.91 497.91 625.43 498.87 629.57 499.09 629.85 500.1 631.94 500.53 633.66 499.46 634.98 497.71 636.53 498.13 639.09 496.58 639.88 496.58 643 497.43 643.85 494.78 645.12 493.77 647.06 492.9 649.68 490.73 649.56 487.97 651.7 486.04 653.44 487.58 655.43 490.84 655.77 492 657.31 493.15 657.65 494.11 660.53 495.15 661.84 495.16 662.78 497.05 662.8 498.09 663.74 500.33 666.81 504.38 666.91 505.7 668.61 507.65 672.08 510.39 672.77 511.45 673.91 514.11 675.24 515.98 672.88 519.16 671.05 520.28 670.53 521.79 669.32 523.17 669.42 525.24 668.42 528.42 668.63 529.12 666.94 530.35 667.11 531.18 664 531.71 663.83 532.92 662.1 533.74 661.43 533.19 660.36 533.64 658.98 533.4 659.25 535.89 660.81 537.43 660.51 539.9 659.43 545.46 663.59 545.84 665.61 546.81 666.97 547.88 667.87 546.66 668.71 547.49 671.95 547.36 673.71 547.84 674.19 549.03 679.48 550.43 682.1 551.37 684.26 551.61 685.55 554.19 685.34 554.79 686.86 555.71 687.61 555.78 689.52 557.2 693.34 558.07 698.84 558.63 699.6 559.51 705.73 559.55 707.68 560.21 708.73 559.28 710.22 559.79 711.43 559.52 713.55 560.77 715.84 561.45 718.74 560.9 721.72 558.45 722.51 558.45 724.27 560.32 725.18 560.09 728.1 561.32 729.48 561.45 730.11 562 733.1 563.45 734.12 562.25 735.42 562.2 736.94 563.21 738.14 561.97 739.83 559.49 743.5 557.42 744.26 557.34 746.5 556.27 748.13 553.68 751.44 551.6 754.05 551.12 754.54 552.19 756.16 553.02 758.34 556.12 758.79 558.31 758.3 559.48 758.66 560.65 758.17 562.24 759.25 563.35 760.07 566.62 760.84 567.28 761.25 569.8 761.72 569.92 761.41 574.64 761.97 575 760.8 576.43 760.44 577.54 761.68 580.17 762.91 581 762.84 582.24 763.87 583.99 763.32 585.18 762.21 585.39 761.38 586.43 761.82 588.71 760.76 589.72 761.07 591.47 760.21 592.72 761.14 594.35 759.28 597.48 758.59 598.01 755.1 602.45 755.65 603.35 755.4 604.97 756.38 606.53 756.38 607.76 755.34 609.08 755.47 610.67 753.48 611.95 753.73 612.85 753.93 618.08 754.47 620.81 754.44 622.9 755.44 625.61 759.01 627.93 757.59 628.78 758.23 631.73 759.61 633.02 759.58 634.18 758.96 635.53 759.14 636.22 759.4 640.44 759.32 641.43 761.38 642.56 763.07 644.33 764.35 648.08 765.64 650.16 766.87 649.63 768.86 651.14 769.94 651.45 771.11 652.32 773.81 652.24 776.22 651.13 777.75 651.23 780.34 650.2 783.03 649.89 784.86 650.72 786.93 650.52 789.99 651.68 791.69 650.68 792.11 653.47 791.92 655.05 792.58 655.05 794.48 656.23 796.06 659.22 796.25 660.82 795.62 662.49 797.03 666.2 798.23 666.74 799 667.86 798.16 671.6 796.14 676.62 793.35 681.91 794.08 684.61 794.28 690.06 796.69 696.46 795.96 698.23 791.75 702.29 792.3 708.41 789.5 713.59 789.71 715.66 782.57 719.05 784.08 723.2 783.99 725.11 782.89 728.2 783.16 729.43 782.01 731.5 780.23 733.3 778.87 733.94 778.14 734.92 777.04 734.68 775.04 734.85 773.87 736.63 773.26 739.5 772.12 741.35 771.21 741.85 769.2 742.13 768.2 741.72 766.26 742.02 765.58 743.76 764.62 744.44 763.86 746.28 764.09 748.05 763.35 749.74 762.68 749.87 762.14 751.64 760.9 752.18 760.68 753.08 762.06 754.5 761.99 755.61 761.04 756.01 761.71 760.38 762.65 762.25 764.75 762.13 765.93 761.41 767.8 762.52 767.65 765.52 769.14 766.67 771.34 767.31 776.71 764.01 780.42 764 781.56 765.39 784.7 767.43 786.47 769.35 789.22 770.61 792.67 771.51 793.93 773.13 794.26 774.05 793.88 775.6 792.81 775.95 790.43 775.86 789.65 776.98 789.3 780.03 789.93 783.32 791.34 783.26 788.95 786.25 786.96 787.83 784.46 790.51 782.77 792.68 782.71 793.15 783.71 796.52 785.13 798.66 785.58 800.72 786.85 803.29 787.99 806.87 789.48 809.22 789.71 812.12 790.51 812.91 789.26 816.13 787.53 816.18 785.87 819.24 785.88 820.03 783.46 821.35 781.29 820.55 779.08 820.89 778.4 822.49 776.46 822.76 773.6 823.94 772.79 823.88 771.87 825.05 770.38 825.46 770.7 827.85 771.7 830.02 771.07 832.09 770.49 832.96 771.46 834.51 771.69 835.83 771.73 839.39 770.06 842.32 770.52 844.36 770.31 845.88 768.63 847.65 767 846.68 762.95 844.75 760.4 841.39 758.91 841.14 756.57 839.07 754.98 839.41 753.87 838.56 753.65 837.14 752.43 835.24 750.12 833.26 748.91 832.58 747.91 832.6 746.19 831.76 744.94 831.75 743.07 830.85 741.83 831.15 740.62 832.07 739.53 832.29 737.77 831.92 736.21 832.69 734.56 833.03 733.24 830.7 731.69 828.98 727.4 827.66 725.64 825.11 725.11 824.95 724.61 823.05 724.9 820.77 724.62 819.18 723.13 817.07 721.32 813.86 721.33 812.52 722.43 809.54 722.25 807.75 721.25 806.39 719.7 806.88 718.71 804.49 717.91 804.3 715.74 801.63 714.24 799.13 715.45 796.41 713.88 794.17 713.38 792.72 710.58 792.65 709.62 791.75 707.99 791.48 707.17 789.63 706.28 788.65 703.66 788.78 702.44 790.92 700.81 791.16 697.89 790.32 697.44 794.83 696.06 795.86 693.79 795.73 691.58 794.59 689.98 794.81 688.02 795.93 686.44 795.54 685.47 794.86 684.12 794.79 681.98 795.23 680.05 796.86 678.21 797.51 677.69 798.11 677.6 802.36 676.67 804.77 675.66 805.47 673.52 807.89 672.34 809.82 670.11 809.3 669.27 808.2 666.79 806.64 665.35 804.59 665.55 802.48 664.81 799.73 664.44 797.56 662.83 795.19 660.82 795.24 658.33 793.91 654.39 793.12 653.39 792.4 653.25 791.61 651.84 792.34 648.5 791.91 646.29 792.51 644.97 792.33 643.14 792.71 641.34 793.45 640.52 792.54 639.49 792.15 637.75 792.26 636.89 791.64 636.37 790.53 634.2 790.46 633.38 789.98 631.14 790.05 630.73 790.44 627.61 789.92 625 791.44 624.71 793.1 623.31 794.92 621.84 794.88 621.72 795.92 619.68 799.42 617.26 801.66 617.37 803.77 616.71 805.5 617.15 806.16 616.19 807.78 616.23 810.12 615.68 811.33 614.42 811.91 613.21 813 612.01 813.05 609.5 812.32 609.31 810.46 606.8 809.82 605.7 808.12 603.91 805.95 602.14 805.33 599.58 802.76 598.45 801.84 597 802.24 595.09 802.21 593.44 803.35 591.9 803.41 590.99 802.01 588.48 800.58 586.64 798.02 584.86 793.81 582.86 790.47 581.68 789.83 580.19 786.7 579.18 783.9 579.4 782.73 578.74 782.44 575.23 781.7 573.92 780.27 572.81 780.45 570.77 778.17 568.07 777.48 567.74 776.92 563.89 776.44 562.13 774.39 560.97 770.53 560.04 768.45 560.35 767.45 558.9 766.1 558.54 765.11 557.3 763.94 558.07 761.71 556.87 760.95 555.79 761.21 555.42 759.98 555.17 756.34 554.96 755.92 551.99 753.64 550.62 753.9 548.55 753.4 547.42 752.52 545.92 753.46 544.17 755.83 542.9 756.07 542.61 757.26 541.12 758.49 540.61 759.63 539.3 760.33 537.79 763.45 535.58 763.82 534.61 764.27 534.32 765.16 532.89 766.34 531.15 768.53 529.75 769.42 529.74 772.66 526.91 775.56 526.33 777.01 524.45 780.03 520.88 782.24 519.52 783.54 519.26 786.82 518.27 786.86 515.24 785.97 513.86 786.48 512.45 786.38 511.72 786.96 509.79 792.19 506.33 797.48 505.26 796.26 503.84 796.25 500.82 796.84 499.44 796.13 498.72 794.88 497.5 794.3 494.54 791.91 493.44 792.02 491.56 789.67 489.97 788.22 490.7 786.25 489.43 784.51 489.59 783.27 488.95 782.43 488.09 779.41 484.81 778.78 483.84 778.85 482.28 778.27 479.73 778.5 478.28 777.4 478.59 775.63 478.25 774.49 479.17 770.32 479.05 767.79 477.58 763.72 477.49 761.47 476.49 761.44 474.59 760.43 473.42 759.08 473.11 758.18 473.61 756.84 473.15 751.79 472.38 750.11 470.94 748.97 469.65 749.27 468.2 748.55 465.81 746.71 464.97 744.86 462.2 741.42 462.01 740.76 461.92 735.22 460.41 732.39 460.69 729.75 459.43 728.38 457.84 727.6 456.36 728.14 453.99 727.98 452.51 727.09 452.29 725.23 451.12 721.63 450.08 719.29 449.45 715.18 448.5 714.87 447.01 713.2 446.05 713.55 443.79 713.66 441.63 715.55 439.73 715.89 439.28 714.59 437.61 712.09 435.77 708.33 432.38 708.82 429.24 707.5 427.69 707.19 423.79 707.16 422.13 707.92 419.22 707.12 417.71 709.2 416.2 708.92 415.11 709.2 413.23 706.74 411.66 703.87 411.6 702.71 410.42 701.39 410.84 699.42 409.8 697.11 410.08 694.72 409.63 693.51 409.8 688.87 409.01 686.33 409.18 685.38 410.11 684.42 411.12 681.27 413.32 679.41 411.01 677.18 410.25 674.9 407.63 672.99 407.12 672.91 405.72 670.88 403.07 668.35 401.49 667.08 401.75 666.15 401.75 663.84 401.46 662.6 399.91 661.87 399.1 660.21 400.93 658.78 400.79 656.64 402.05 655.37 402.73 653.15 402.45 649.85 401.74 648.9 401.44 647.57 401.41 644.73 397.8 643.13 395.83 641.61 394.51 641.72 389.75 640.34 388.57 639.83 387.78 641.49 387.27 643.41 384.57 645.1 383.27 645.52 382.6 647.94 380.88 651.09 378.6 652.64 377.33 652.44 374.43 653.03 372.71 652.75 369.95 653.77 369 653.68 367.7 654.24 367.39 655.4 367.28 658.02 366.57 658.64 364.6 663.84 364.04 664.69 363.65 667.84 362.18 668.23 361.2 669.56 359.96 669.81 357.9 670.68 356.07 672.68 356.47 674 356.24 675.78 357.28 680.93 358.21 681.83 358.92 684.02 360.3 684.95 361.96 687.09 362.83 690.47 362.61 691.96 362.72 694.24 363.96 695.76 363.53 696.89 360.35 702.35 360.78 703.87 358.55 706.01 355.65 707.84 357.93 711.61 359.87 715.3 359.87 717.07 361.34 717.75 361.99 720.98 361.68 722.9 362.16 723.94 361.56 724.75 361.59 726.7 359.25 729.93 359.31 730.81 358.18 733.4 357.31 734.63 358.47 737.7 357.37 739.17 356.58 742.29 354.86 743.53 353.62 743.11 351.12 743.89 349.48 742.91 348.7 743.89 344.84 744.63 344.28 745.5 343.12 745.41 340.56 744.26 338.98 744.4 337.63 743.9 334.62 745.84 332.87 745.41 331.01 745.42 329.07 745.78 326.85 747.02 324.31 749.13 322.54 748.2 320.71 748.57 318.93 747.72 317.64 748.4 316.31 750.9 316.65 751.97 316.65 754.42 315.27 756.59 315.19 757.94 313.55 760.05 312.54 759.77 310.63 760.78 307.39 760.45 303.33 760.87 302.46 762.19 301.42 762.42 300.6 764.7 300.01 765.34 298.24 765.79 296.29 767.65 296.24 769.2 295.28 769.9 294.13 771.4 292.58 772.52 290.75 772.44 289.62 772.8 287.76 774.41 287.06 774.18 283.6 774.38 281.62 773.82 279.79 772.35 277.23 773.59 276.87 774.55 274.75 775.62 271.91 776.55 268.64 778.15 266.62 780.12 264.64 780.68 263.07 778.26 260.73 777.39 258.65 778.52 253.86 779.02 251.41 779.53 250.31 780.21 251.13 781.53 251.1 783.64 251.41 785.33 253.72 786.71 253.24 787.83 253.35 789.72 254.14 790.42 253.75 793.1 253.27 793.52 253.24 796.5 251.52 799.01 250.4 801.12 247.67 804.01 245.41 805.22 242.15 807.48 240.43 807.68 238.53 807.26 236.95 809.75 236.02 810.72 235.29 812.1 235.11 813.62 234.04 815.5 231.93 817.35 229.84 817.73 229.32 821.05 228 822.27 227.31 823.98 225.46 825.75 223.27 826.47 224.01 830.23 223.83 831.83 222.7 833.6 222.58 835.31 223.18 836.38 222.62 838.35 221.94 838.39 220.71 840.85 220.56 841.74 219.48 842.07 219.07 844.33 217.2 845.75 217.14 848.28 215.18 849.75 213.56 850.67 213.02 851.34 209.32 854.15 207.71 853.76 206.19 854.25 203.42 854.36 200.47 855.81 199.96 857.25 199.34 860.78 195.78 863.04 194.59 863.17 194.28 864.23 194.48 866 192.48 864.8 191.16 862.58 189.17 861.11 187.76 859.06 185.54 858.09 183.45 857.72 182.55 857.97 180.73 857.39 179.76 857.97 178.29 857.61 177.41 855.79 175.3 854.46 173.33 855.07 172.43 854.18 170.37 853.31 169.87 853.93 168.06 854.4 167.5 855.78 166.4 855.73 163.98 857.35 163.92 858.56 162.12 859.11 159.03 858.54 158.1 858.85 156.51 858.73 155.11 858.04 154.18 857.14 150.97 858.05 149.54 857.42 147.8 857.37 146.75 856.72 145.33 857.84 144.76 857.81 140.67 854.38 138.3 854.4 137.06 853.57 136.18 851.54 134.73 850.24 133.63 848.1 131.99 847.69 130.44 848.75 128.3 848.71 126.64 847.37 123.94 846 120.56 845.54 118.96 845.72 118 845.45 116.53 844.41 115.54 842.33 114.76 841.89 113.83 842.3 112.09 842.33 110.79 843.04 109.04 843.29 107.33 843.93 105.36 844.02 103.47 843.51 101.55 842.65 99.78 843.04 98.79 843.61 96.48 844.14 94.5 843.83 93.08 843.08 91.59 843.14 91.2 844.17 89.73 845.75 89.69 846.9 87.13 848.96 87.11 850.69 85.66 853.37 81.72 852.9 79.49 851.07 78.63 851.17 76.7 850.23 72.39 849.19 71.64 847.73 71.7 846.9 69.53 844.26 69.13 843.31 68.85 841.04 67.46 840.58 66.53 839.71 62.9 839.64 61.73 840.83 59.7 842.1 57.77 842.89 55.93 842.44 54.84 842.7 52.85 840.71 51.63 840.92 49.44 841.82 48.86 842.96 48.04 843.58 45.24 844.29 41.72 843.88 40.34 843.22 39.12 843.49 38.06 842.51 38.2 844.47 38.68 845.4 36.96 845.03 32.06 831.52 30.51 828 28.96 823.13 26.32 815.87 24.85 812.16 22.63 805.63 18.04 793.44 12.74 778.52 10.86 773.65 9.81 771.32 8.04 768.05 6.07 764.87 3.31 761.04 2.63 758.93 2.66 757.72 3.65 756.71 3.31 753.53 2.55 751.5 3.45 749.5 2.32 746.63 2.49 744.69 2.1 742.69 1 740.66 1.14 736.08 1.73 735.15 1.7 734.02 4.46 733.29 7.95 733.77 10.35 733.04 11 730.25 10.88 727.55 14.94 723.66 16.4 721.95 17.3 722.42 19.08 722.51 20.15 721.95 21.41 723.86 24.12 725.35 24.71 726.11 25.86 724.84 29.64 724.73 30.99 722.51 30.59 720.88 29.52 719.97 29.33 719.24 30.51 717.75 31.21 715.27 30.9 712.57 30.62 707.7 30.31 707.39 32.87 704.18 33.92 702.24 34.03 700.16 33.55 698.33 32.76 696.84 33.02 696.33 33.02 693.26 30.65 691.94 30.65 690.67 31.86 684.87 34.23 682.48 35.21 680.71 37.58 678.71 36.48 676.15 37.32 675.28 38.41 675.02 40.73 673.42 42.95 673.56 46.61 672.08 48.37 673.08 49.95 670 49.25 669.31 48.53 667.76 49.02 666.63 51.63 664.5 52.83 662.61 52.83 657.16 53.9 655.49 55.05 654.88 55.26 653.24 54.65 650.83 53.06 650.1 52.25 648.55 51.93 645.97 50.64 645.31 52.03 642.5 51.43 641.22 52.66 638.36 54.22 636.24 54.29 634.94 53.06 633.15 51.52 632.97 51.65 632.07 51.37 629.26 49.01 628.07 49.84 626.78 49.86 624.58 51.53 622.39 51.58 621.46 53.88 620.9 57.07 619.47 57.86 618.26 57.65 616.9 58.12 615.09 60.18 615.72 60.83 613.97 63.44 612.65 64.27 611.77 63.72 609.39 64.05 608.55 63.05 607.84 61.68 604.66 61.2 604.33 60.35 602.35 60.44 601.86 60.93 601.24 61.6 599.66 62.76 598.77 64.16 598.53 66.17 598.7 68.11 599.74 73 598.48 74.11 598.71 78.97 598.08 79.7 599.02 81.45 598.87 82.81 598 87.01 596.66 88.79 595.43 90.43 595.86 92.78 597.23 95.13 596.75 96.4 596.05 97.8 597.08 100.01 597.05 100.83 596.72 101.89 594.63 104.05 593.83 106.66 591.36 108.97 590.98 108.86 589.62 109.38 587.98 111.82 584.93 113.64 579.14 113.75 578.02 115.87 576.73 117.51 575.45 118.16 575.31 119.83 575.98 123.37 574.63 124.45 573.09 126.43 571.83 127.19 570.45 127.57 568.83 128.52 566.64 130.66 565.58 130.45 563.99 128.29 557.63 127.58 556.35 125.68 554.44 125.25 553.53 126.84 551.11 128.18 548.31 129.46 546.21 129.51 544.59 129.97 542.88 129.5 541.94 130 540.03 130.11 536.8 131.28 532.93 132.17 532.38 132.36 530.05 131.81 528.01 131.14 527.49 131.04 526.37 129.85 525.76 129.57 524.93 128.54 524.43 126.57 522.52 125.33 521.87 122.44 518.45 120.78 517.32 120.31 515.65 118.46 513.58 117.73 512.14 117.45 509.85 115.74 510.78 113.38 510.46 111.22 511.15 110.43 508.39 109.49 507.59 108.91 505.2 109.05 504.1 110.25 502.1 110.76 499.57 111.59 498.66 112.33 496.73 114.63 495.99 115.62 494.27 116.31 492.25 117.15 491.8 117.4 490.26 117.26 487.55 117.94 486.03 118.05 483.93 119.96 482.38 121.33 482.1 122.18 480.92 121.89 479.6 120.67 476.97 119.61 475.14 118.29 474.03 117.42 472.82 116.1 472.78 114.95 472.22 114.11 470.95 113.52 467.62 112.84 466.64 111.47 463.38 110.04 461.54 109.77 460.79 108.15 459.31 107.55 457.88 107.59 456.22 107.01 451.97 107.8 448.66 107.57 447.57 108.47 446.89 108.83 445.89 108.31 444.71 106.55 442.49 106.4 441.57 105.53 440.15 105.83 439.03 103.24 434.87 104.25 432.81 105.69 431.04 107.83 430.7 109.85 429.66 111.35 429.83 112.08 429.29 112.44 427.97 111.99 424.57 112.33 423.44 114.44 422.37 114.72 421.64 118.08 419.27 119.29 416.35 118.67 415.14 119.09 413.7 117.74 409.42 118.05 407.9 116.33 404.72 115.57 403.68 115.32 401.74 113.94 401.12 113.82 400.22 112.84 400.05 111.37 399.06 109.94 396.25 107.77 393.38 107.8 391.58 106.45 390.31 105.21 389.97 104.25 388.31 104.11 385.36 104.31 383.98 102.87 378.71 101.63 375.22 102.62 371.62 103.57 370.55 104.02 369.4 104.98 368.5 106.02 368.36 107.26 367.17 109.37 366.36 112.81 365.34 114.27 362.67 115.88 360.53 117.68 360.16 119.68 357.8 119.54 356.79 121.06 356.17 122.52 354.14 123.9 353.35 123.45 351.44 123.71 349.67 125.76 347.89 125.48 346.17 125.59 344.37 125.2 343.87 125.99 341.08 126.24 335.82 127.17 333.51 131.28 333.03 132.1 332.66 135.9 331.74 138.97 332.5 139.62 332.97 142.97 333.42 144.57 331.51 146.04 331.14 150.2 331.34 153.98 330.69 155.21 329.06 156.4 326.53 158.23 324.42 159.58 324.39 161.52 323.52 165.8 320.95 167.04 319.46 165.94 316.9 164.76 315.07 162.39 313.72 162.65 312.93 161.86 310.91 162.62 310.6 162.73 307.42 160.62 305.44 161.07 302.74 160.9 300.66 159.13 299.22 160.23 298.52 159.92 296.52 159.1 294.83 158.85 292.58 158.11 292.07 158.42 290.33 157.47 286 158.9 285.54 159.44 284.17 159.61 278.62 159.92 277.3 159.92 275.27 160.85 271.98 161.04 270.2 161.75 268.88 164.06 267.64 164.31 265.67 165.04 264.07 165.55 261.79 167.18 260.16 167.74 257.65 167.74 255.23 167.15 252.47 169.38 248.95 170.48 248.36 171.24 245.58 170.42 242.56 169.26 241.63 169.26 240.73 168.17 238 165.77 236.31 164.9 235.02 164.82 233.42 166.11 230.46 166.48 228.43 165.74 225.34 164.53 222.78 162.03 221.17 159.75 219.96 157.72 219.48 157.49 217.65 155.47 216.98 154.06 215.6 154.19 212 156.59 209.8 157.55 206.99 156.99 206.25 157.63 204.96 156.93 203.3 156.76 200.57 155.47 199.3 154.48 196.88 153.52 195.16 153.35 192.43 153.02 191.11 151.44 191.67 149.83 191.11 148.43 192.04 148.31 189.56 148.51 187.96 148.23 185.87 147.33 183.09 145.84 182.75 143.33 181.2 142.68 180.39 141.56 180.56 139.05 179.77 138.37 178.19 137.47 177.91 136.6 176.95 133.76 176.78 132.69 177.35 131.56 176.92 129.64 177.21 128.94 176.42 126.38 176.33 125.25 175.74 123.9 176.59 122.15 175.4 120.52 175.21 119.96 175.63 117.87 175.69 116.27 176.36 114.86 174.59 114.1 174.11 112.75 171.77 111.26 171.07 110.84 171.44 108.47 170.9 106.19 171.55 104.87 170.87 100.92 171.52 99.49 171.58 98.81 169.02 97.77 167.69 97.26 166.26 97.77 165.3 97.97 163.78 96.81 161.78 95.32 161.33 93.57 159.3 92.9 158.04 92.67 156.46 91.43 154.32 90.14 152.83 87.27 151.99 86.06 150.07 85.89 148.58 85.18 146.36 84.84 143.94 85.04 142.73 86.06 140.25 85.04 137.12 84.08 136.36 83.32 136.53 81.89 135.83 80.71 134.62 80.82 133.49 79.3 132.73 75.86 130.2 74.17 130.12 71.95 129.55 71.1 128.17 71.02 126.54 72.37 124.74 71.86 123.5 72.12 122.74 70.12 119.19 72.16 114.71 72.96 114.47 74.9 112.38 75.92 112.83 79.04 114.86 80.48 114.52 81.49 112.24 83.07 110.78 84.42 109.99 84.34 108.25 82.84 105.32 82.76 103.26 82.84 98.25 83.13 96.25 83.6 95.52 83.55 93.95 84.34 93.13 83.83 91.58 82.84 90.43 82.59 89.13 84.22 82.57 83.13 82.12 82.42 80.44 82.62 79.37 83.77 77.37 83.91 75.9 86.56 75.57 88.34 75.73 89.1 75.48 90.08 74.27 91.86 74.97 93.77 74.27 95.63 74.13 96.59 73.29 98.22 72.75 100.5 71.15 101.04 69.54 102.25 68.92 104.47 66.98 106.36 65.88 107.57 64.81 108.21 65.26 110.5 65.49 112.81 64.76 113.93 64.14 115.62 64.73 118.97 62.87 120.44 62.81 123.84 62.2 125.22 61.58 126.91 58.99 128.09 58.56 131.84 56.57 133.39 54.62 136.12 54.71 139.7 54.12 141.64 54.62 143.13 54.03 145.44 54.62 146.59 55.38 147.75 55.3 148.42 54.68 149.75 54.65 151.75 53.08 153.58 52.32 155.13 52.09 157.21 52.15 158.59 51.13 160.22 50.82 161.04 51.08 162.87 50.79 163.74 51.53 167.26 51.3 170.05 51.92 171.2 51.22 173.03 53.69 174.7 55.27 177.88 53.92 181.12 53.64 183.14 52.71 184.33 51.81 187.42 50.15 188.83 50.15 190.52 49.61 191.87 48.04 192.72 47.92 194.27 48.54 196.43 47.67 197.25 47.08 198.8 46.74 202.91 44.35 203.95 44.12 204.91 43.22 207.5 42.52 210.03 45.56 214.91 49.05 218 51.55 218.34 53.21 221.1 56.62 222.9 60.7 223.47 61.49 223.16 62.98 223.49 65.37 223.49 67.15 222.42 69.65 222.34 72.1 221.89 73.51 221.02 74.78 219.89 77.28 220.62 78.29 220.9 81.76 221.45 82.79 221.26 85.03 222.83 87.93 225.72 89.98 227.1 92.82 227.09 96.44 229.33 100.34 232.86 101.54 234.25 100.15 236.94 98.79 238.54 98.94 240.66 97.32 241.85 96.76 243.56 95.06 247.19 94.35 248.32 94.35 250.02 91.86 250.16 90.28 249.57 89.21 249.37 87.85 251.67 84.99 253.14 84.29 254.74 82.87 255.89 82.53 256.21 78.55 257 77.44 256.71 76.25 257.31 75.04 257.62 73.24 259.92 73.17 261.45 72.39 262.91 71.25 264.04 69.92 264.89 68.05 265.9 68.68 267.53 68.12 267.15 67.2 267.52 65.7 268.48 64.15 270.94 61.86 271.08 58.56 272.56 56.84 274.31 52.07 275.05 51.1 274.74 49.25 275.6 45.92 277.66 42.9 279.15 41.93 282.04 43.88 283.32 45.78 284.65 42.41 284.36 40.18 281.7 35.62 279.49 34.14 279.01 32.75 277.89 32.16 274.21 28.3 272.64 27.03 271.18 24.63 270.55 21.21 270.98 20.55 270.11 19.16 270.03 17.95 271.36 16.51 272.47 16.59 273.95 15.82 275.7 17.07 276.43 19.69 279.33 19.96 282.09 19.63 284.33 19.76 286.74 18.18 288.93 17.33 289.71 17.41 290.41 16.62 290.85 14.78 292.73 12.54 293.61 12.47 296.41 10.51 296.9 9.29 298.1 7.92 298.28 6.71 299.98 5.07 302.7 4.91 303.6 5.98 304.15 7.47 305.39 7.53 306.78 8.11 308.32 7.9 309.47 8.4 310.23 8.21 312.01 8.91 313.7 9.12 315.7 8.44 316.99 6.22 318.32 5.19 321.06 4.28 322 2.67 322.46 1 324.44 2 324.23 9.53 324.79 13.27 325.38 15.89 327.42 16.55 328.23 17.09 329.79 20.22 331.21 20.48 333.18 22.35 334.15 21.77 335.46 19.97 338.35 18.76 340.24 16.65 341.53 16.48 342.74 16.79 345.64 15.93 345.83 17.3 347.22 18.32 347.81 19.29 349.3 19.17 350.01 20.67 351.68 21.82 352.51 23.29 352.68 24.61 354.6 25.63 356.03 25.54 358.06 27.82 358.34 29.77 359.47 30.38 361.69 32.27 362.93 31.23 364.96 31.68 368.31 33.65 369.55 35.03 370.48 35.06 372.2 34.18 375.69 35.82 377.38 37 378.28 37 381.12 38.91 382.42 40.8 385.18 46.43 385.91 50 386.78 51.47 386.7 52.14 388.28 53.94 388.98 54.17 389.71 56.67 391.94 56.98 393.71 55.86 395.68 55.6 397.65 55.75 399.06 57.86 403.65 57.49 406.24 56.48 409.56 57.24 411.73 56.11 415.11 56.45 415.45 55.63 417.03 54.93 417.45 53.86 420.71 51.38 423.59 50.28 424.99 49.5 427.02 47.61 428.91 46.2 430.32 46.48 433.19 48.48 435.3 48.6 434.26 51.47 435.53 55.1 435.24 57.97 434.82 59.01 435.72 60.9 435.55 62.3 434.85 63.68 435.55 66.07 436.17 70.18 434.79 73.62 435.02 76.12 433.98 77.08 433.22 78.71 431.61 80.49 429.81 81.5 429.25 84.93 428.54 86.99 427.28 89.21 427.25 90.96 426.43 91.86 426.4 94.95 426.09 96 427.42 99.09 426.68 101.17 426.71 102.08 429.78 103.12 430.85 102.89 432.48 104.36 432.12 106.55 430.46 111.05 430.79 112.35 430.79 114.09 432.17 118.6 431.61 119.84 433.78 121.83 434.31 124.45 435.53 126.76 434.77 128.76 436.09 131.88 435.69 135.29 435.16 137.32 435.33 139.93 432.6 141.14 431.36 143.34 430.12 144.94 428.12 146.86 427.02 149.59 425.5 152.74 424.07 155.05 423.95 157.05 422.15 160.37 421.05 161.92 421 164.14 424.18 169.4 425.39 171.8 424.11 174.19 425.29 176.31 427.35 180.87 428.04 184.94 428.94 186.84 429.07 188.34 428.67 192.23 430.42 193.95 431.61 196.17 431.67 196.96 430.86 200.33 429.73 202 429.27 203.69 426.33 206.72 425.66 210.11 425.47 213.13 424 217.71 422.43 219.55 422.14 220.88 422.7 222.51 423.83 224.46 424.69 224.77 425.16 226.94 424.25 231.81 425.12 233.27 426.45 233.83 427.33 234.71 427.46 237.89 427.21 238.93 427.86 240.54 428.32 244.68 427.87 246.67 429.12 248.44 429.57 248.43 430.33 250.5 431.11 251.56 430.33 255.44 431.39 256.03 432.12 257.39 432.37 258.7 431.29 259.36 429.94 261.01 427.71 261.95 426.09 263.22 425.57 263.14 424.05 264.09 422.66 264.29 421.21 265.22 420.29 266.46 418.21 268.36 417.82 269.89 418.2 272.37 419.3 272.94 420.08 274.53 421.79 274.73 422.35 275.37 425.08 276.91 425.87 276.67 427.45 279.28 426.69 281.1 426.33 284.06 428.46 284.54 430.35 285.48 432.4 287.38 434.89 286.17 436.91 286.57 438.67 286 440.29 286.16 441.13 284.48 442.37 282.95 446.31 281.02 446.78 280.52 448.06 280.45 453.99 278.65 455.07 278.81 456.01 278.28 457.79 278.56 458.36 278.04 459.7 279.52 461.05 279.8 461.25 281.26 462.6 282.06 464.43 284.19 465.93 285.1 466.24 287.16 466.83 288.17 466.21 292.3 468.47 294.42 469.57 297.81 470.68 297.88 472.04 298.54 474.13 298.67 477.08 297.99 478.77 298.04 480.62 296.4 483.68 295 484.68 292.56 484 289.2 484.21 286.27 484.62 284.91 485.71 283.33 486.48 282.74 487.49 281.01 488.62 280.32 490.38 279.77 491.37 280.18 496.12 278.43 497.14 277.07 499.72 276.43 499.74 275.69 501.28 275.36 502.64 273.84 504.19 274.09 505.59 271.85 506.88 271.92 508.19 271.24 509.71 271.14 511.53 271.74 513.25 271.61 514.13 270.94 515.97 271.75 517.5 270.63 518.55 270.54 520.61 271.83 521.64 271.96 523.86 270.41 525.49 268.65 528.15 269.11 529.97 268.82 530.55 269.37 532.38 270.03 534.42 270.06 534.5 270.66 535.97 271.9 536.25 273.27 537.8 274.77 539.01 274.95 541.78 274.58 542.87 275.64 545.83 276.96 546.57 277.83 548.34 277.62 549.51 279.3 550.79 280.46 552.19 281.06 552.92 281.81 554.09 282.09 558.38 281.26 560.27 281.7 561.7 280.89 564.47 280 565.89 280.27 567.52 279.56 569.84 279.19 571.41 280.6 572.98 280.3 574.07 281.08 574.81 281.06 Z" id="31191000"/>
</g>
</svg>