<?xml version="1.0"?>
<svg xmlns="http://www.w3.org/2000/svg" version="1.2" baseProfile="tiny" width="800" height="967" viewBox="0 0 800 967" stroke-linecap="round" stroke-linejoin="round">
<g id="sigung">
<path d="M 518.86 5.5 513.08 18.18 518.74 28.22 518.02 30.37 519.45 33.87 515.63 38.97 515.87 43.59 518.26 47.49 524.55 49.08 529.33 49.32 539.04 56.49 543.34 58.64 543.02 61.83 546.37 65.25 550.43 67.24 552.58 66.77 555.28 68.92 558.15 77.76 555.28 84.77 554.73 88.19 555.68 95.04 557.67 101.33 558.15 105.55 561.57 110.97 569.69 113.36 573.36 117.58 576.86 123.63 577.5 128.09 579.41 131.68 584.34 137.41 588.56 138.69 591.83 144.34 591.27 148.64 589.84 151.35 591.27 155.41 594.22 159.16 596.13 166.41 600.19 166.25 611.34 164.41 615.08 166.33 621.53 164.49 628.21 166.01 629.41 164.97 633.63 166.96 637.45 173.57 639.6 174.93 643.58 179.95 648.12 178.03 654.01 177.87 655.6 176.68 660.22 177.24 665.16 180.58 668.98 178.19 672.16 179.87 679.41 180.1 681.4 182.33 686.81 181.54 690 182.73 693.02 181.14 701.07 181.62 703.53 184.33 706.08 185.12 707.99 189.58 715.08 191.81 718.26 191.33 720.1 193.64 727.18 198.02 731.4 198.98 733.95 206.87 734.75 212.76 734.19 217.3 734.51 224.31 738.49 221.68 743.03 223.27 747.48 221.68 748.44 225.42 748.92 233.15 751.62 238.01 754.41 244.86 758.07 248.44 758.55 256.17 760.54 260.87 758.71 264.53 760.3 266.6 757.6 274.57 750.82 280.8 750.43 290.98 754.41 294.88 760.14 296.79 760.78 301.97 766.51 303.32 772.96 306.75 780.05 311.29 783.47 318.53 785.54 327.3 784.51 333.03 780.85 341.39 781.09 345.93 783.55 349.6 790.32 354.38 793.43 362.1 793.43 364.65 796.69 367.28 799 375.8 796.85 383.69 793.75 385.36 787.46 395.32 789.13 403.12 789.13 409.97 787.54 417.06 782.92 421.68 781.48 428.13 779.41 432.67 778.7 438.25 772.17 441.75 770.18 445.5 769.62 450.51 766.99 459.83 766.99 465.57 766.12 469.31 765.64 485 764.13 488.9 760.07 490.18 762.78 502.45 761.9 507.38 763.97 508.82 764.69 515.19 767 519.97 767.87 525.62 764.77 527.61 769.78 531.68 770.26 537.57 768.99 545.22 774.96 550.79 774.64 559.79 772.49 560.67 774.72 566.4 774 568.63 780.69 572.46 784.04 577.63 787.14 584.88 783.64 589.1 771.54 596.35 766.04 598.82 762.22 598.9 757.04 604.87 753.7 612.04 750.2 616.66 739.53 618.49 727.75 617.94 723.61 618.97 719.07 624.39 709.59 623.12 707.76 621.76 699.08 619.61 688.33 622.24 686.03 623.27 674.4 624.63 671.77 631.16 671.06 646.05 668.83 653.94 669.94 655.37 669.62 660.47 670.42 665.33 664.61 670.35 663.89 675.37 665.17 680.78 661.26 683.01 657.12 688.75 652.83 690.5 653.22 693.37 647.57 700.06 642.48 701.09 637.94 707.15 633.8 714.71 624.08 717.58 618.11 719.89 614.61 723.24 611.66 723.63 608.96 726.18 607.68 729.45 604.98 732.48 602.19 742.67 605.69 752.55 609.75 767.44 609.2 771.34 609.59 779.71 612.3 784.41 615.8 785.36 619.63 788.95 619.55 794.04 625.68 802.17 629.74 810.13 633.88 812.92 636.66 813.4 636.98 815.95 640.88 817.7 641.6 823.2 643.75 826.14 648.61 835.14 647.73 839.44 651.55 851.55 650.36 855.61 652.11 859.04 648.69 867.32 639.21 874.01 638.42 876.08 632.45 879.11 631.49 882.3 632.76 891.93 631.73 895.68 629.66 897.19 625.44 896.71 619.71 899.66 613.66 900.62 609.6 905.63 606.73 911.45 614.05 923.24 613.21 926.38 610.13 928.83 606.84 927.18 602.91 930.35 596.5 931.11 592.36 933.11 585.55 935.3 580.81 933.7 575.28 935.95 570.83 936.03 567.39 937.45 560.48 938.86 554.01 943.21 552.87 944.82 544.79 950.59 538.58 950.75 532.93 954.25 530.96 957.02 526.78 958.83 525.46 960.68 518.75 965.5 510.51 966 506.96 964.43 500.43 964.47 493.68 962.94 492.64 960.83 487.46 957.73 482.84 956.69 478.62 954.22 474.97 953.95 469.52 951.56 460.8 951.08 453.27 947.73 441.8 944.98 438.36 944.97 432.76 942.76 427.22 941.5 421.85 937.92 415.18 937.37 400.64 931.72 398.42 932.64 390.8 932.64 387.7 931.13 385.82 928.09 382.84 927.02 377.19 926.78 368.39 929.19 365.83 933.1 362.43 934.46 356.01 934.04 350.68 931.8 346.5 932.96 344.55 931.48 338.22 932.9 333.25 931.27 329.81 932.51 324.24 933.03 314.93 930.97 300.36 928.76 287.78 928.38 282.61 929.25 279.71 930.87 275 931.93 270.56 934 265.18 934.43 252.83 936.82 240.63 940.63 228.3 940.84 222.92 941.63 213.38 945.01 203.95 947.11 198.49 950.92 194.23 955.02 188.3 955.03 182 957.42 176.55 957.06 175.96 960.8 167.77 953.41 164.99 952.59 159.82 949.4 151.99 941.62 149.84 938.78 139.66 931.85 130.07 928.4 123.69 921.38 122.83 918.27 119.66 914.21 116.68 915 114.13 911.86 110.75 911.34 107.72 905.04 103.46 903.53 101.48 903.91 97.81 901.22 100.93 898.4 94.58 891.15 93.17 886.89 88.29 880.71 82.2 874.82 80.37 871.08 80.81 867.97 77.86 858.8 77.03 854.71 73.22 855.39 69.78 854.27 66 849.53 62.03 846.81 57.84 846.5 47.33 848.44 40.84 850.68 39.8 844.15 34.97 839.74 35.01 836.08 37.55 831.7 39.09 827.27 39.11 823.23 37.97 818.54 34.79 816.01 33.01 812.77 33.52 807.72 31.33 805.04 28.43 799.09 28.31 794.95 26.84 793.09 28.59 789.94 28.28 778.77 25.09 769.75 23.88 762.45 25.2 749.71 21.09 748.72 22.21 746.03 20.69 741.37 18.7 740.17 15.36 741.6 15.15 734.66 16.38 727.49 17.79 723.96 16.76 719.42 17.75 715.08 24.12 710.78 27.98 708.95 34.95 702.42 37.85 697.44 40.74 695.82 47.84 693.38 52.34 692.7 61.7 689.27 66.2 688.12 70.31 688.34 77.48 686.85 85.07 684.65 97.29 684.93 102.18 684.06 109.59 685.23 113.89 684.85 120.86 677.16 125.36 673.21 129.81 664.78 131.13 660.85 127.19 654.02 132.24 647.42 125.89 638.5 129.13 626.31 128.34 624.2 134.51 621.49 139.8 617.64 139.09 613.88 141.04 612.5 141.79 609.23 146.49 604.49 145.1 599.4 140.97 591.74 140.92 588.6 139.4 584.14 133.79 586.09 120.16 586.8 118.86 574.34 127.9 555.14 145.06 550.88 157.32 530.37 153.18 511.14 152.22 495.69 147.73 485.84 130.21 501.22 126.54 503.73 120.01 506.8 102.58 512.08 93.3 512.77 94.42 523.23 79.65 522.2 76.53 519.62 73.21 518.38 68.81 519.8 58.96 520.01 55.36 517.12 46.77 514.84 43.66 512.85 40.34 506.02 35.62 503.33 34.15 500.86 35.22 497.98 27.6 496.12 9.16 492.38 1 490.41 1.73 486.3 5.42 481.51 8.03 475.15 11.98 462.58 13.81 460.18 19.71 456.34 20.12 451.08 21.28 448.77 28.18 445.5 29.94 438.43 30.06 433.52 33.04 429.2 38.29 425.34 39.08 421.49 36.85 416.34 35.31 408.44 41.09 406.78 45.37 402.38 48.26 397.7 50.46 392.57 52.76 390.74 59.68 389.18 65.13 389.96 69.35 388.53 72.32 386.15 79.03 383.62 77.47 377.16 81.08 373.44 84.61 372.43 88.83 369.89 102.05 364.13 110.56 365.62 112.99 362.82 122.84 363.34 123.55 358.07 126.2 353.25 131.5 350.06 139.82 348.59 144.35 346.67 149.82 350.27 154.78 351.13 157.72 346.45 165.44 346.94 167.87 345.39 178.92 335.89 175.73 327.26 176.65 321.76 173.43 318.97 172.09 313.9 169.89 309.03 169.54 299.97 172.45 297.63 170.92 289.18 171.61 280.18 178.22 278.27 179.02 276.67 177.86 270.98 179.54 266.94 179.75 263.37 176.26 252.91 176.9 244.82 181.06 235.29 184.14 232.57 189.15 225.13 188.58 216.49 187.76 215.5 194.6 211.22 199.61 209.7 201.21 205.89 205.93 205.93 205.48 200.59 201.86 189.78 207.82 181.3 205.34 173.06 207.32 165.87 206.48 161.94 206.47 156.57 208.77 151.1 205.69 147.54 203.46 147.67 199.51 142.46 194.97 139.89 194.47 135.62 200.95 130.11 201.16 120.93 205.28 116.81 210.73 116.63 212.23 115.44 216.45 107.62 215.28 106.28 216.73 102.19 219.11 99.23 221.81 92.5 223.97 91.57 230.63 97.36 235.12 96.58 238.44 98.88 240.23 101.58 244.31 102.66 247.88 97.97 248.35 92.1 244.37 82.29 248.6 80.1 244.6 76.38 243 73.41 249.41 70.88 251.57 68.92 253.2 59.83 255.98 55.78 255.8 53.88 260.43 50.66 261.27 47.55 265.07 46.35 265.66 39.39 262.4 39.23 257.29 40.43 247.82 43.87 243.84 43.29 243.2 40.43 236.16 38.27 241.65 29.83 244.78 26.39 252.14 25.94 259.1 23.72 266.71 19.6 272.71 14.49 278.28 11.41 283.01 10.09 291.23 11.71 300.66 12.72 316.15 9.29 325.96 10.23 331.76 6.01 334.01 6.27 338.13 10.5 338.97 14.72 341.98 14.78 345.26 23.7 346.84 24.9 347.12 34.44 374.17 34.44 381 35.38 383.49 34.34 393.99 32.59 397.6 30.57 400.87 33.73 403.14 33.42 408.17 30.77 409.34 32.85 416.68 30.9 423.77 32.73 425.95 32.34 427.24 37.97 427.17 42.26 430.45 46.89 437.08 46.84 440.66 47.64 444.62 56.11 446.5 56.48 450.84 53.6 452.87 55.5 456.92 51.11 454.5 48.53 457.69 44.12 460.66 42.93 462.66 39.79 469.65 38.11 473.12 32.67 474.66 27.51 484.22 22.84 490.6 19.27 494.32 12.35 498.41 10.91 500.12 8.52 504.52 5.8 506.13 3.01 509.51 3 511.89 1 518.86 5.5 Z" id="31192000"/>
</g>
</svg>