<?xml version="1.0"?>
<svg xmlns="http://www.w3.org/2000/svg" version="1.2" baseProfile="tiny" width="800" height="747" viewBox="0 0 800 747" stroke-linecap="round" stroke-linejoin="round">
<g id="sigung">
<path d="M 84.18 694.78 84.64 696.72 88.34 695.76 88.67 694.92 90.25 696.96 90.68 699.98 90.24 700.65 88.01 698.92 85.27 698.01 84.61 699.27 83.47 698.62 82.65 697.16 84.18 694.78 Z M 88.57 655.33 89.52 658.22 88.86 659.78 88.79 661.38 89.5 664.08 91.93 666.67 91.89 668.5 90.88 671.07 92.25 672.51 92.47 675.71 92.12 678.68 92.42 681.02 91.02 684.9 90.04 685.65 89.04 685.12 88.75 681.98 86.82 678.73 86.74 678.14 88.36 677.39 88.28 675.66 87.52 673.88 86.71 672.93 84.4 671.99 83.61 667.94 84.23 667.54 82.82 665.16 82.8 662.26 83.42 662.24 84.25 660.73 83.83 659.14 85.02 657.14 83.56 654.79 86.69 649.49 87.43 649.64 88.6 653.37 88.57 655.33 Z M 408.6 35.86 409.75 35.92 411.4 47.81 415.4 76 444.11 133.86 448.24 156.39 448.69 160.07 448.59 161.4 449.28 166.4 451.16 175.39 452.28 180.16 453.71 189.14 457.45 208.92 457.09 226.08 451.42 259.06 446.74 269.96 441.96 280.15 442.84 283.77 439.33 318.73 439.32 319.58 438.36 319.56 435.09 334.69 432.3 354.78 429.05 373.1 429.31 378.71 430.93 385.68 435.23 398.08 440.89 407.94 443.72 413.92 450.23 421.14 454.07 423.61 480.45 441.26 489.48 447.42 514.23 462.5 535.88 475.22 552.49 485.02 564.75 492.04 581.35 501.19 582.44 501.43 593.73 502.72 597.3 502.95 600.1 503.79 602.74 506.28 608.94 510.37 613.5 521.85 624.91 531.75 629.25 538.37 634.64 543.56 640.66 549.69 647.92 553.91 656.5 559.01 666.04 561.32 670.06 563.75 672.04 565.26 676.22 567.73 678.42 569.36 689.72 576.42 703.74 585.42 708.97 589.13 717.48 595.51 743.14 614.53 760.43 627.27 779.46 643.31 783.83 646.93 793.06 653.05 797.34 655.3 799 656.63 791.57 665.39 791.13 667.62 791.53 669.27 789.54 670.41 788.05 672.76 787.61 674.05 786.6 673.17 785.73 674.72 784.85 678.55 784.64 682.57 783.52 682.32 784.54 691.1 785.11 692.67 786.29 694.67 787.91 696.69 792.8 701.13 791.8 702.48 790.57 701.02 788.84 701.07 788.29 704.96 790.11 705.63 791.77 708.26 793.11 708.55 793.51 709.64 795.08 711.94 794.72 713.29 793.83 713.02 794.27 716.11 793.7 717.28 789.92 716.4 788.17 716.43 784.88 722.3 784.67 723.81 783.83 725.9 782.31 727.58 781.21 727.59 783.46 729.82 781.29 731.63 779.94 733.54 779.47 733.02 779.09 726.7 777.39 726.53 777.24 729.34 777.36 732.79 776.74 735.57 775.9 735.4 776.28 732.36 775.03 729.87 773.2 728.93 774.51 734.43 774.44 736.93 773.89 739.25 768.5 735.29 755.27 725.15 754.97 725.27 747.01 735.69 741.23 731.26 741.11 730.68 737.98 730.91 735.43 729.95 734.66 729.35 730.9 728.44 726.16 728.37 724.41 727.01 723.1 726.92 721.04 727.53 719.21 726.76 715.82 726.93 714.26 726.34 712.94 725.08 709.86 723.39 707.83 721.43 705.51 718.84 702.58 717.05 702.61 716.57 700 715.46 698.34 719.22 692.46 722.54 690.89 724.14 690.1 724.02 689.1 725.41 688.9 726.74 688 727.24 684.95 726.64 684.21 725.46 682.66 726.17 681.32 726.13 677.99 727.01 676.95 726.7 675.56 727.03 673.79 726.21 671.22 728.79 668.2 732.18 668.01 734.21 667.14 734.41 667.28 736.58 666.78 739.08 666.91 740.02 668.26 741.43 667.06 742.86 664.44 744.13 663.41 743.26 662.77 744.02 661.04 744.31 656.63 746 655.93 745.86 654.77 744.27 654.63 742.67 649.94 740.75 650.47 739.42 650.25 734.97 650.67 731.53 650.2 729.46 649.11 727.58 647.61 726.96 645.91 724.52 644.02 722.5 645.03 721.84 643.57 720.58 642.43 719.03 641.41 716.82 641.11 714.77 640.52 713.99 638.03 713.79 635.45 700.46 627.93 701.93 627.28 698.63 620.78 699.91 621.65 698.83 619.78 696.67 617.14 697.13 614.27 698.71 614.08 701.85 614.17 705.71 613.84 706.65 611.7 707.15 609.39 706.78 608.29 705 606.99 705.83 605.6 705.48 605.18 704.01 598.96 702.94 596.19 701.48 594.98 701.33 593.03 699.43 591.67 699.54 589.35 700.27 587.53 702.41 582.52 702.5 579.66 698.08 572.97 688.57 572.57 687.23 570.5 686.39 567.5 683.27 564 680.57 563.36 680.4 559.57 678.15 557.11 675.85 555.7 670.7 555.43 664.93 555.04 660.33 550.68 660.14 549.97 660.46 548.81 663.16 548.32 663.38 547.61 660.64 546.08 659.56 546.11 658.94 544.14 656.08 539.83 655.56 534.81 656.37 532.57 659.24 530.65 661.01 526.42 662.72 524.34 664.85 522.98 663.1 522.51 660.54 522.76 658.69 522.45 657.23 523.8 653.25 524.1 651.54 525.63 650.57 527.48 648.49 528.44 646.59 528.28 643.79 527.9 641.4 528.69 639.49 527.71 636.99 526.55 632.17 526.59 630.81 524.61 632.46 522.69 631.02 521.1 627.81 519.32 625.41 517.19 623.73 515.85 624.44 513.87 623.28 511.93 620.44 510.9 617.24 509.14 615.27 507.57 612.14 506.3 610.69 504.02 610.63 503.21 610.19 501.03 606.84 498.37 605.25 495.88 601.82 494.79 602.22 492.85 601.85 489.16 598.6 487.66 598.04 485.09 600.44 480.88 597.23 480.2 595.86 465.83 584.47 463.31 586.05 461.98 584.49 462.68 581.66 462.39 580.65 460.18 579.72 457.85 576.36 456.96 570.05 455.95 569.44 453.56 568.76 451.47 570.11 449.97 569.43 447.95 569.23 446.99 568.74 445.12 568.54 444.12 569.05 441.44 567.88 440.57 567.99 439.34 563.31 439.03 560.32 435.56 556.71 434.21 553.99 431.64 553.25 425.21 549.84 424.1 549.6 421.03 548.17 418.96 546.53 414.8 545.48 412.35 546.4 409.77 545.62 407.77 543.5 403.99 544.04 401 542.18 399.64 540.08 398.13 538.36 396.32 536.92 392.2 539.33 387.43 539.39 382.64 538.38 380.37 535.18 378.57 533.87 375.97 536.61 376.06 537.13 374.9 539.15 375.46 540.71 375.79 543.04 376.35 544.56 375.37 545.58 375.57 549.17 372.91 550.69 372.48 558.04 371.54 559.64 370.31 560.73 367.89 565.47 367.3 568.74 364.44 571.05 364.09 574.37 363.15 576.18 360.62 574.94 359.2 572.86 356.25 572.49 353.12 573.41 349.42 573.92 347.94 576.52 347.13 577.28 345.95 577.09 342.94 578.6 341.58 578.01 340.72 576.69 338.9 576.14 334.39 573.85 333.27 575.37 334.74 577.42 335.51 579.49 335.57 581.84 335.1 583.64 335.81 584.85 334.03 588.99 335.01 590.34 333.94 594.31 332.66 596.57 333.59 598.06 333.08 599.61 333.18 601.2 331.49 601.69 330.36 602.82 328.64 603.53 326.98 605.26 324.95 604.67 324.09 605.12 323.65 607.18 322.33 608.68 321.79 610.01 319.86 611.51 319.71 612.93 320.73 613.68 321.59 616.4 320.91 619.97 319.69 622.53 319.15 625.08 318.49 625.85 316.53 626.88 315.89 628.89 313.47 631.45 312.9 633.31 313.35 637.03 312.62 640.25 311.54 642 310.28 645.02 309.01 646.71 308.5 648.9 308.67 650.31 308.26 652.57 303.04 656.23 302.4 656.94 302.33 658.66 303.08 663.41 301.27 663.65 299.63 663.02 298.74 664.6 296.79 665.18 295.95 664.08 297.26 662.31 297.41 661.48 296.38 660.81 295.19 662.22 294.24 662.41 292.88 661.55 291.13 661.16 289.35 659.81 286.73 660.64 286.27 660.38 285.6 658.22 284.29 658.04 283.63 658.58 282.99 660.32 278.11 660.24 276.93 659.65 275.5 657.2 274.71 653.51 274.24 652.71 270.98 650.56 257.25 656.65 250.46 666.66 245.96 671.7 240.78 676.17 234.47 680.7 225.35 685.65 206.84 697.12 207.28 698.35 203.02 700 159.84 713.36 158.92 715.05 157.98 717.81 156.58 717.02 156.76 716.03 158.42 715.17 158.99 713.11 158.14 711.66 158.56 710.59 156.25 708.42 154.78 706 148.84 699.77 130.63 680.42 120.95 670.08 120.15 671.67 118.37 672.91 117.23 673.17 117.95 668.04 113.69 658.34 110.92 652.21 109.17 651.49 108.46 651.78 104.19 643.01 104.35 641.62 103.15 639.05 103.32 636.7 104.84 633.08 105.5 619.24 103.7 619.07 102.73 612.07 101.85 607.64 100.19 601.11 96.14 588.18 94.51 583.84 94.59 583.52 92.73 579.68 93.05 578.86 94.34 578.37 92.2 572.6 92.14 571.98 90.11 570.94 88.58 566.13 87.35 561.44 83.44 551.39 83.26 550.2 82.44 549.72 79.93 546.05 77.17 547.83 76.78 546.25 79.16 544.61 78.21 543.07 75.09 538.78 74.58 537.79 74.75 535.71 74.61 532.01 70.43 536.26 69.2 536.95 66.14 536.84 67.28 535.89 64.3 531.89 61.5 532.39 60.82 531.92 61.01 530.3 60.41 529.81 60.94 526.38 59.9 525.59 55.27 514.04 58.19 514.04 56.95 510 57.14 507.52 54.63 506.31 53.14 502.66 50.89 496.08 50.15 492.27 48.88 490.61 46.63 488.52 46.63 486.48 44.82 485.97 43.64 485.12 42.72 483.34 42.56 480.16 39.61 479.43 39.73 477.11 42.85 477.52 46.25 475.26 47.96 474.79 49.96 474.82 52.06 475.9 53.93 476.38 55.62 475.26 56.86 475.33 57.11 474.09 56.77 472.84 58 469.8 57.91 468.56 60.42 465.67 62.8 466.94 67.21 464.55 68.68 463.12 68.93 461.66 70.04 460.49 73.19 459.95 72.74 457.47 74.24 452.25 74.87 450.63 74.3 449.65 70.96 446.06 68.55 445.14 66.1 442.88 64.7 442.4 63.31 440.85 62.29 439.19 62 437.44 62.23 435.73 64.35 431.47 64.45 430.64 63.56 429.59 62.7 427.5 59.49 425.5 59.46 424.54 57.62 424.35 55.55 423.43 54.41 420.89 52.28 420.79 49.39 419.68 48.41 418.66 48.44 417.55 46.31 417.9 45.64 417.55 43.29 417.55 40.43 416.31 40.27 414.85 37.86 414.09 37.1 414.85 33.86 414.44 29.53 412.94 28.04 411.58 26.64 409.7 27.15 408.18 29.66 407.57 30.71 406.4 31.35 403.63 32.49 402.33 32.71 400.99 36.11 398.2 36.33 396.96 38.4 391.43 39 390.38 39.7 387.84 40.78 385.2 40.53 384.12 41.83 381.8 43.48 374.46 43.35 372.87 44.81 371.21 44.88 370.07 47.13 362.28 46.66 357.96 46.09 350.27 45.77 344.58 45.82 340.35 44.88 338.64 44.5 336.73 43.93 329.64 43.58 328.06 43.04 323 43.13 321.51 42.43 318.71 42.21 316.42 41.29 310.48 40.84 309.34 39.99 305.46 38.65 301.52 36.9 297.42 35.06 295.61 33.54 293.61 32.04 292.3 31.98 291.44 27.59 287.76 22.7 285.57 19.94 283.85 18.45 281.05 17.33 279.65 13.97 272.66 13.2 270.37 12.79 267.96 13.23 262.87 12.98 260.39 13.27 255.18 13.81 249.46 15.43 240.91 16.47 236.4 17.9 235.76 16.67 233.54 17.55 230.23 19.62 223.37 21.14 217.78 24.86 209.55 25.69 206.72 27.05 206.84 27.28 203.25 26.86 201.7 28.07 198.84 28.86 197.82 32.3 187.91 32.45 186.76 34.26 179.54 35.38 177.64 36.55 173.92 36.62 171.6 36.27 171 37.19 167.53 37.6 163.24 37.6 159.55 37.92 158.17 36.96 156.38 37.7 153.96 39.92 151.67 39.47 146.59 38.81 142.58 37.31 139.12 36.81 138.93 34.52 134.26 35.22 133.27 33.15 132.06 29.88 127.61 30.1 127.17 28.42 124.91 25.15 119.76 23.72 119.1 21.65 117.25 21.37 116.46 19.24 114.68 14.82 110.17 12.18 107.02 11.39 107.05 7.89 102.7 5.19 98.82 4.46 97.26 5.58 93.2 6.12 92.75 7 88.37 8.24 86.59 12.66 82.42 13.93 81.82 15.68 80.42 17.71 79.94 20.25 77.66 21.81 77.37 1 68.19 3.76 46.89 17.39 1 57.68 21.18 99.61 42.03 106.44 45.46 142.53 78.58 164.04 98.34 215.61 104.03 227.33 98.53 234.79 94.05 236.29 93.73 246.42 89.57 255.86 85.12 271.3 69.07 287.02 52.48 304.69 40.98 323.11 34.68 344.91 35 380.87 35.79 395.29 35.13 408.6 35.86 Z" fill-rule="evenodd" id="31230000"/>
</g>
</svg>