<?xml version="1.0"?>
<svg xmlns="http://www.w3.org/2000/svg" version="1.2" baseProfile="tiny" width="800" height="865" viewBox="0 0 800 865" stroke-linecap="round" stroke-linejoin="round">
<g id="sigung">
<path d="M 680.61 364.95 682.08 366.62 683.08 368.69 683.2 371.38 682.13 374.17 679.06 377.07 676.83 380.45 675.47 383.14 677.18 387.83 678.59 388.83 680.57 390.98 684.36 394.25 686.48 395.72 687.8 397.64 690.47 400.62 693.6 402.81 694.95 403.06 695.41 404.13 698.88 405.99 702.15 407.17 704.22 409.12 705.79 409.09 708.52 411.87 709.32 413.22 709.41 414.94 710.67 416 711.08 417.21 711.25 419.19 712.8 422.37 713.08 424.01 712.37 425.85 712.74 426.94 711.85 429 711.19 431.67 712.14 436.29 713.11 439.13 714.72 440.05 714.58 441.83 715.29 446.08 717.39 448.37 717.79 453.05 718.74 453.91 722.61 459.5 723.44 461.37 724.91 463.26 726.43 466.59 727.43 467.65 728.61 469.92 730.19 469.69 730.62 471.67 731.82 474.8 733.6 475.52 735.24 477.3 738.45 478.27 739.92 478.27 741.03 477.52 742.33 478.27 744.08 477.73 745.77 476.29 748.01 475.77 749.64 473.79 751.97 473.36 753.32 474.02 755.58 473.05 755.47 471.64 757.96 471.81 760.55 472.82 763.04 473.54 764.51 473.05 766.37 474.65 768.04 474.88 769.21 475.49 770.36 475.14 770.73 474.11 771.65 474.25 773.26 475.29 774.18 474.28 775.3 474.65 776.7 473.74 777.94 474.08 782.36 473.16 783.5 474.14 785.54 473.97 787.95 472.9 790.36 473.39 790.42 474.65 791.74 475.17 791.91 476.18 793.83 478.44 793.75 479.76 794.35 482.29 793.26 484.41 794.06 486.42 794.72 487.05 794.93 490.55 795.44 492.67 799 494.88 798.63 496.06 797.05 496.89 795.27 498.84 794.38 500.28 792.57 502.09 792.08 506.02 790.94 509 791.6 509.63 791.71 511.35 792.43 511.58 793.18 513.48 792.95 515.97 793.06 518.44 793.35 519.65 791.54 522.49 791.34 523.89 791.86 524.98 791.63 528.54 791.86 532.33 792.49 534.48 793.64 537.29 793.43 539.5 792.52 542.2 792.69 545.33 792.29 548.17 792.52 549.52 793.15 550.09 795.27 548.6 797.28 548.8 797.02 554.4 797.28 556.83 795.73 558.24 794.27 558.64 793 560.25 791.43 561.54 788.81 565.3 783.41 568.41 782.15 568.74 780.27 570.97 778.42 571.15 777.66 572.16 777.39 573.71 776.68 574.14 774.46 574.67 772.35 576.06 771.46 577.25 770.08 578.43 770.27 580.67 768.38 583.46 768.28 584.63 766.78 588.64 766.65 590.77 765.02 593.65 763.07 594.77 760.51 597.54 759.67 597.81 758.92 600.88 756.43 603.52 753.64 604.12 753.04 605.54 751.42 606.42 748.72 607.14 748.38 609.02 747.6 609.59 747.03 611.03 744.89 610.85 741.85 611.64 738.05 612.85 735.48 614.66 734.52 615.85 734.74 616.62 734.26 619.25 735 620.51 734.92 622.24 735.27 623.44 734.43 624.28 733.34 627.22 733.15 629.75 731.79 630.28 724.66 636.68 724.34 638.77 723.07 641.14 721.75 641.44 720.38 643.22 718.93 642.6 715.56 642.73 715.05 643.19 712.94 643.12 709.75 646.23 708.53 648.64 704.62 650.45 704.5 651.21 702.62 652.13 702.28 652.82 699.69 652.22 698.36 654.31 698.5 655.66 697.74 657.98 695.59 661.41 694.93 661.69 694.14 664.61 692.99 665.06 690.44 666.69 686.87 665.34 685.1 665.1 683.97 664.38 681.33 664.35 679.36 667.07 677.63 667.7 675.37 669.12 675.45 669.43 672.8 671.62 671.01 672.68 668.11 675.72 665.47 676.68 662.66 680.87 661.74 681.72 661.95 683.91 661.79 686.12 660.02 687.07 658.23 688.77 654.01 689.69 651.47 689.71 648.39 692 647.11 691.41 646.19 690.12 644.05 689.41 643.01 688.69 642.09 687.5 640.78 687.64 637.37 690.6 635.63 691.33 633.19 691.18 632.06 689.89 629.91 690.42 626.99 690.81 626.29 690.05 625.06 689.68 623.64 687.61 622.8 685.88 620.09 686.13 617.08 689.22 616.3 689.82 615.19 689.62 614.04 691.27 613.19 691.34 611.38 692.99 610.29 698.16 608.54 699.94 607.47 699.88 605.01 701.4 604.68 703.62 603.41 703.8 601.99 704.49 599.39 704.12 598.36 703.54 598 702.28 596.53 701.8 592.62 699.44 591.18 700.93 588.05 701.29 588.46 705.6 588.92 707.96 588.42 709.54 588.42 712.45 589.71 713.9 589.38 715.69 590.92 718.1 591.12 719.41 591.88 720.93 591.28 722.09 591.92 724.61 590.08 727.64 587.5 727.54 586.71 728.42 584.26 729.19 583.51 730.87 582.65 731.42 578.53 730.48 577 731.2 575.72 732.75 574.14 733.47 573.28 738.42 572.01 740.67 571.25 741.14 570.69 742.59 565.48 747.46 565.32 750.24 566.97 752.3 570.9 754.24 571.63 754.99 572.22 757.71 573.1 759.54 572.42 762.02 573.27 763.83 572.71 765.27 573.15 767.54 572.57 767.9 572.02 770.14 569.51 769.44 567.1 770.44 565.23 770.5 564.14 773.57 564.55 775.32 562.25 777.56 560.87 777.56 558.29 779.05 557.46 778.53 556.57 779.74 555.51 782.2 554.47 781.83 551.09 782.78 550.69 783.64 549.57 783.64 548.62 782.58 547.33 783.01 545.41 782.41 543.48 780.45 541.76 780.2 540.76 780.86 537.72 780.97 536.6 780.34 533.4 784.56 532.75 786.68 530.31 788.29 529.11 790.28 529.91 791.88 533.76 794.17 534.99 795.82 535.95 800.31 535.94 803.02 536.41 805.23 539.31 809.03 542.08 810.93 542.35 813.09 542.8 813.67 546.07 815.3 548.33 816.82 548.74 817.48 550.49 818.33 550.67 820.04 550.04 820.6 550.16 823.18 551.56 824.01 552.37 825.59 552.19 826.11 549.28 828.24 546.53 827.76 545.12 829.19 543.71 829.84 543.68 830.73 542.89 833.19 541.79 835.16 539.88 835.28 537.92 837.26 537.54 837.99 536.44 837.83 535.16 838.96 533.36 838.57 530.54 839.49 529.63 840.43 528.99 842.33 528.05 842.53 526.3 844.83 525.9 846.04 525.15 846.06 524.04 845.28 522.44 845.58 520.84 844.14 518.48 844.52 516.81 845.25 515.37 844.97 512.55 845.88 511.09 846.7 509.16 846.25 504.79 847.1 503.6 846.81 502.85 846.05 501.43 845.43 500.12 844.26 498.93 842.54 497.13 842.75 496.37 841.86 493.35 840.53 492.25 839.44 489.42 839.82 488.19 839.64 486.61 838.1 486.32 836.71 484.83 835.45 484.74 834.83 482.66 834.8 480.8 834.13 480.21 833.57 478.36 833.87 475.65 833.4 473.98 835.19 471.72 836.77 470.67 836.64 468.57 835.32 467.5 835.42 465.94 836.56 464.07 835.74 463.16 836.41 461.42 836.55 459.56 835.94 458.01 836.04 456.68 836.73 455.37 836.66 453.93 838.94 452.36 838.69 450.97 840.24 449.41 840.57 449.38 841.33 446.75 841.98 445.72 843.37 440.87 845.15 439.86 844.73 438.07 845.29 436.92 845.99 435.89 847.76 435.1 848.36 434 849.97 433.58 851.36 433.36 854.34 434.05 857.77 433.03 860.26 429.92 861.69 428.03 863.35 426.31 863.31 423.31 864 421.17 863.87 419.79 863.2 418.66 863.12 417.54 859.67 415.23 857.5 415.86 853.3 415.26 852.26 414.94 850.17 413.42 849.24 411.56 847.07 410.18 846.25 409.97 844.76 408.6 844.47 407.24 842.97 406.65 843.5 404.84 843.21 403.88 843.76 402.77 843.59 396.73 845.42 395.43 845.49 394.95 846.01 390.94 847.97 389.67 849.54 388.81 851.25 387.16 851.09 385.37 851.66 383.32 851.26 380.78 852.49 378.68 850.56 376.76 849.6 374.59 849.11 374.96 846.09 375.73 844.23 374.12 841.58 373.32 841.82 370.53 840.24 369.96 839.6 368.22 839.4 367.42 837.77 366.3 837.19 365.91 834.66 366.32 833.1 368.44 831.16 369.37 829.9 370.85 828.95 372.27 828.75 373.82 827.77 374.35 827.86 376 826.57 378.27 825.61 379.64 823.93 380.75 823.26 380.49 821.92 379.74 820.53 378.67 819.93 379.46 815.97 378.67 814.89 377.89 812.78 377.44 812.8 376.16 810.99 376.62 808.97 376.15 804.74 375.48 803.1 375.74 802.04 375.61 798.79 374.71 797.9 373.36 797.33 372.47 795.84 373.4 790.87 372.91 788.66 372.04 788.35 370.89 786.36 370.32 784.7 370.62 783.34 372.21 781.46 373.72 776.8 373.91 773.71 374.59 770.26 377.58 767.18 378.06 765.45 379.21 763.75 380.03 760.32 379.97 759.51 378.75 757.24 376.97 755.49 377.38 751.53 377.25 750 376.33 748.06 375.63 743.91 373.53 739.27 372.33 737.1 373.63 734.66 372.4 732.22 369.15 726.86 369.21 724.59 370.33 723.01 372.17 719.63 372.28 717.59 373.75 715.23 375.3 712.02 376.41 709.24 378.45 707.29 379.71 705.65 380.98 703.41 383.76 702.18 383.59 699.51 384.13 697.44 384.54 693.97 383.19 690.79 383.96 688.75 382.73 686.4 382.18 683.73 379.97 681.69 380.55 680.43 379.14 675.84 379.14 674.06 378.8 672.74 380.49 668.15 380.86 665.91 379.2 664.42 378.11 664.65 374.98 663.58 374.95 662.67 375.7 660.54 374.35 657.39 374.66 656.33 374.69 653.17 375.52 652.25 375.55 650.47 376.84 648.2 377.56 646.11 378.14 642.61 379.97 641.58 381.61 639.77 382.38 638.1 383.44 637.13 383.21 634.57 384.62 631.07 383.99 626.88 383.27 624.45 383.99 623.04 384.16 621.6 383.24 619.68 383.67 618.62 383.96 615.69 382.67 611.99 383.73 609.07 381.58 608.95 378.65 606.91 377.22 606.63 375.29 608.06 373.23 609.98 371.79 610.79 368.87 611.91 365.54 614.43 365.11 615.52 363.5 616.24 363.16 617.07 359.71 616.73 357.5 617.87 354.12 617.1 351.48 618.13 346.8 618.51 345.36 616.35 343.36 616.21 341.35 616.47 339.54 617.62 337.27 617.3 336.53 614.75 335.81 614.52 334.2 612.68 334.29 611.99 333.4 610.5 332.65 606.86 329.84 601.12 328.52 599.2 325.62 597.24 324.7 597.24 322.98 596.04 319.42 594.38 317.67 595.26 316.73 595.24 315.46 593.83 312.05 591.82 309.98 591.36 308.72 592.42 306.45 590.5 305.3 589.87 305.02 587.89 302.95 585.57 301.49 585.65 299.54 584.62 299.36 583.27 298.52 581.77 296.81 580.6 296.09 579.07 294.57 579.2 293.97 578.21 292.55 577.16 292.36 575.77 289.41 576.64 288.17 576.33 286.85 576.5 284.93 578.65 281.99 579.88 280.65 581.72 279.66 582.31 277.66 580.4 276.21 580.14 274.61 576.94 273.8 576.4 271.72 575.72 271.11 573.06 270.54 569.24 270.75 561.56 268.73 560.55 268.27 562.25 267.31 563.89 264.51 564.82 263.16 565.87 261.84 568.13 259.81 568.82 258.09 568.61 256.28 567.89 255.5 568.09 254.33 567.58 252.76 567.79 251.34 567.2 250.08 567.15 249.52 565.62 248.6 564.53 245.83 564.69 244.1 566.37 243.91 567.6 242.69 569 242.19 570.24 239.34 572.24 238.44 572.31 236.52 574.59 236.08 576.47 235.36 577.27 234.57 577.19 232.33 578.06 229.88 579.67 227.6 579.54 224.78 579.88 221.83 579.6 221.08 576.93 219.3 575.65 217.8 576.44 216.66 576.36 215.31 577.83 215.39 579.05 216.28 580.47 215.83 581.15 216.48 584.63 217.97 587.08 219.56 588.38 223.31 592.31 224.45 592.91 224.94 594.33 227.19 595.84 229.91 600.49 230.21 602.76 228.84 606.2 227.54 604.26 224.6 602.27 223.08 603.26 220.98 606.34 220.11 609.73 220.42 611.62 219.66 612.61 217.88 617.48 216.38 619.23 216.23 622.58 213.72 624.92 212.75 626.5 212.37 628.04 212.76 628.97 211.1 629.54 210.06 628.9 209.2 630.8 208.04 632.16 206.57 633.32 205 634.12 202.66 634.19 202.34 636.03 201.73 637.26 202.03 638.47 201.23 639.6 200.9 643.66 199.72 644 198.1 645.45 196.59 646.17 194.25 649.08 194.45 650.47 195.06 651.56 194.91 653.17 193.18 655.71 192.03 655.71 188.33 656.43 186.59 658.16 185.37 658.74 183.22 660.39 181.58 660.23 178.84 661.62 177.42 663.04 173.82 661.81 171.54 657.83 171.55 654.15 170.15 651.25 167.21 649.17 165.61 646.21 165.79 643.93 165.24 642.87 164.95 639.34 164.21 638.31 165.36 635.75 166.25 634.46 166.7 633.03 166.79 630.53 167.88 627.98 167.88 626.17 167.54 623.73 167.85 622.21 167.28 621.41 165.44 617.25 162.63 613.77 162.28 612.08 159.13 609.53 154.16 605.97 151.58 602.87 148.94 603.59 147.97 604.51 146.9 604.74 142.71 607.18 141.14 607.52 140.3 608.12 138.09 609.01 136.52 608.38 135.65 608.5 134.28 610.1 132.56 610.65 131.12 610.65 127.97 612.34 126.76 613.26 124.69 614.21 121.39 614.49 118.15 615.87 116.46 614.26 114.59 611.74 113.42 612.46 110.58 611.82 106.99 612.05 106.1 611.31 104.23 611.59 103.4 611.34 101.74 611.65 100.33 612.69 98.21 612.63 96.63 612.86 94.76 613.63 92.73 615.24 91.38 615.27 90.69 615.9 89.51 615.99 88.34 615.21 85.98 614.61 84.46 615.21 82.48 614.69 78.84 615.3 76.05 615.21 74.48 617.19 70.66 619.23 69.45 619.66 67.73 622.3 66.33 622.93 62.85 623.56 61.36 623.62 57.95 625.51 56.23 624.91 55.08 625.54 52.72 626.29 50.4 626.06 49.74 625.6 48.51 626.69 46.58 627.81 44.32 629.79 43.08 630.42 42.54 632.06 40.21 633.69 38.55 634.24 37.57 635.1 35.68 635.24 33.73 635.96 31.92 635.24 30.92 636.47 30.14 636.73 28.33 636.56 25.64 636.9 23.54 636.16 23.17 634.72 22.13 633.66 20.44 630.02 19.38 628.84 18.2 628.33 16.57 627.03 14.46 627.04 13.99 626.78 13.38 625.02 12.42 623.66 10.76 622.54 10.62 620.74 10.04 618.45 10.97 616.59 10.87 614.97 12.41 613.78 13.17 611.8 11.14 610.79 10.34 608.56 7.39 605.33 5.25 604.82 4.79 601.01 2.56 599.29 1.62 597.9 1 595.79 1.42 595.63 1.22 593.31 1.8 590.66 2.54 589.94 3.94 589.55 5.34 588.63 5.95 585.25 5.49 583.91 5.21 581.08 4.21 579.25 3.62 577.31 3.9 575.31 5.23 573.38 6.67 569.03 7.63 567.48 9.12 567.12 10.18 565.75 12.84 564.22 15.19 564.27 19.27 562.15 20.36 562.07 22.16 562.79 23.83 562.56 25.03 564.32 28.78 563.73 30.15 564.29 32.62 563.89 34.33 562.41 35.24 562.27 37.83 560.97 38.89 560.18 40.07 560.29 42.39 558.85 44.33 558.81 46.53 557.62 46.98 555.42 48.14 554.89 49.79 552.94 52.25 551.39 53.45 547.92 55.21 545.94 55.78 544.07 57.22 541.93 57 540.52 57.43 537.05 60.84 535.41 62.7 533.09 64.1 532.27 66.04 528.96 66.42 527.26 67.63 525.9 68.47 525.74 69.52 524 72.05 521.98 71.74 520.37 72.65 518.71 72.47 515.67 73.52 511.97 73.67 510.04 72.72 507.18 73.13 505.53 74.5 502.3 75.14 499.66 78.16 498.64 81.78 499.49 86.31 497.8 87.59 497.94 88.51 497.54 90.64 497.69 92.64 496.03 93.71 495.78 95.25 494.71 96.2 493.55 99.1 490.68 101.19 491.11 102.47 490.49 104.15 490.17 106.45 488.44 107.16 486.8 108.61 485.41 111.54 483.35 112.56 482.02 112.97 479.18 114.3 476.03 113 475.16 111.03 474.78 109.68 473.32 107.86 472.38 107.01 471.44 104.53 471.21 103.54 470.6 102.72 466.87 101.92 466.66 101.15 462.45 99.15 462.2 98.05 462.66 96.9 461.77 95.53 461.39 94.76 460.55 92.17 459.17 91.39 458.41 92.33 456.7 91.77 454.14 91.29 449.16 92.4 448.77 93.71 447.13 93.53 445.47 94.97 443.2 96.8 441.81 97.77 440.08 97.47 439.17 98.93 434.82 100.12 431.69 99.51 430.38 100.55 428.27 103.6 426.47 104.42 425.68 103.88 424.95 104.29 422.57 105.07 421.22 105.08 419.66 105.93 418.45 105.62 417.41 106.47 416.6 107.02 415.54 108.99 413.99 109.29 411.77 111.25 409.61 111.51 408.38 113.2 406.22 113.52 404.94 114.35 403.58 114.02 402.29 115.01 400.86 114.49 397.04 115.75 395.11 115.76 393.49 115.26 392.26 115.45 390.47 114.25 389.49 113.81 386.91 116.04 386.76 118.15 385.06 119.09 384.85 122.05 383.45 122.39 384.66 123.89 385.57 125.82 385.37 126.5 386.34 129.15 387.03 131.58 385.61 133.11 385.45 133.55 384.31 134.53 383.18 134.6 380.93 135.34 375.79 138.3 374.62 139.39 373.96 140.72 371.98 141.73 369.81 142.68 369.73 143.32 368.25 145.16 366.63 147.46 364.95 151.1 363.99 152.85 361.61 152.93 360.4 153.87 359.33 156.55 357.58 157.41 356.39 157.81 354.06 156.98 352.64 155.11 351.57 156.73 346.02 156.38 345.06 157.7 341.7 157.59 339.97 158.9 338.92 160.23 336.26 157.9 335.14 158.04 333.15 157.22 330.03 156.15 327.23 155.96 324.05 156.92 319.57 155.73 314.87 154.95 314.04 156.31 311.82 155.73 310.51 155.8 309.46 156.68 308.26 156.81 305.58 159.57 299.43 159.87 298.17 161.12 296 160.89 294.73 160.12 293.38 160.36 292.09 159.63 290.41 159.94 287.58 159.48 285.48 159.94 283.96 160.07 279.28 158.45 278.03 158.05 276.41 158.16 274.29 158.59 271.85 156.9 269.3 156.25 266.36 154.6 264.59 153.03 261.49 151.13 259.27 149.47 258.74 148.82 257.26 150.07 255.96 150.57 254.75 150.49 253.2 147.7 251.97 145.78 250.79 144.67 249.03 141.36 249.26 139.68 249.69 135.76 248.53 132.94 247.55 132.67 245.99 131.2 243.65 131.3 240.9 131.92 239.18 131.69 238.37 132.62 235.76 130.71 234.45 129.82 234.72 126.62 232.07 124.8 229.92 124.41 227.23 125.75 225.17 125.88 221.15 126.35 219.03 125.52 217.02 125.29 214.67 126.09 211.34 125.62 209.36 124.46 209.37 124.21 208.14 123.25 206.13 123.39 201.67 122.28 200.29 121.93 199.27 119.48 198.27 117.6 196.66 114.57 195.35 113.7 194.65 113.21 192.96 112.12 191.97 109.05 190.52 108.75 188.05 108.22 186.92 109.06 186.43 109.33 184.09 108.89 182.08 108.11 180.64 109.69 180.06 110.78 177.24 109.98 175.73 110.15 174.71 109.36 172.43 109.75 169.97 110.56 169.12 110.78 168.11 109.84 167.01 110.17 165.35 109.74 163.13 112.53 163.39 113.31 162.9 113.32 161.84 114.34 160.97 114.79 159.08 114.9 157.18 117.53 157.29 117.14 158.28 117.05 160.74 116.62 163 117.67 164.22 120.41 164.75 122.84 166.43 124.27 166.14 125.55 166.69 127.86 167.22 129.44 167.94 130.55 167.51 130.73 168.87 131.86 169.53 132.68 171.41 133.42 174.47 134.76 175.43 135.07 176.4 137.96 177.56 139.54 176.6 142.08 178.87 144.06 179.01 147.04 177.88 150.67 177.81 151.78 176.54 154.2 175.47 155.95 175.68 158.82 177.36 159.8 177.42 161.1 178.31 161.22 179.37 162.71 180.4 165.88 181.31 167.44 181.29 168.42 180.07 170.16 180.12 170.74 179.61 171.55 177.89 172.11 177.72 172.34 175.7 173.93 172.67 173.2 170.71 172.15 168.98 173.93 168.17 176.64 168.25 177.09 170.48 178.22 170.1 179.8 170.92 179.27 173.03 179.52 174.36 180.9 175.86 181.76 178.14 183.01 178.22 184.23 179.03 186.86 178.28 188.43 178.81 190.95 176.77 193.05 176.67 195.59 176.13 196.18 175.64 197.95 176.33 201.22 174.97 204.7 173.96 206.8 173.99 210.95 172.6 212.09 174.15 216.77 175.32 218.94 174.72 220.46 173.56 221.23 173.76 223.24 175.41 223.34 176.96 224.89 178.37 225.65 180.09 229.5 180.8 230.37 181.67 232.53 181.49 233.36 180.8 235.87 180.89 237.45 180.46 238.86 183.38 240.03 185.24 242.54 186.43 243.57 187.88 248.49 187.7 250.8 188.42 252.56 187.91 253.99 188.58 256.75 187.91 258.68 188.19 260.66 189.51 263.8 189.9 265.28 189.81 266.87 190.47 268.28 190.56 269.69 192.45 270.91 191.16 274.68 190.24 276.19 189.64 277.98 189.89 279.76 190.63 281.28 190.32 284.11 190.65 284.72 190.42 285.1 188.69 286.73 186.77 286.59 184.32 288.45 182.58 289.16 182.66 290.16 181.56 290.82 178.06 290.65 176.48 285.99 174.4 285.71 173.73 285.3 166.27 283.98 164.51 284.22 163.51 286.16 162.5 289.04 160.49 290.73 160.06 294.64 159.61 296.39 159.7 297.22 160.89 299.47 162.19 302.1 162.57 302.82 163.08 304.94 163.63 306.26 163.33 307.51 163.64 307.75 161.77 307.28 160.05 308.23 158.17 309.33 157.15 313.4 152.38 316.09 152.84 316.63 152.44 320.16 148.38 320.58 146.84 321.63 144.45 321.32 140.7 319.82 139.11 319.43 137.02 318.34 135.6 318.54 133.07 315.9 130.72 313.5 129.27 312.18 127.56 311.15 125.58 311.34 123.74 310.92 121.38 310.8 118.97 310 116.41 310.16 115.25 309.17 112.12 308.01 109.91 307.55 108.18 306.43 105.7 307.52 102.9 309 100.56 309.04 99.96 310.46 97.96 309.9 95.88 314.18 95.29 316.85 94.56 324.42 93.24 325.23 92.88 328.96 92.43 330.88 93.57 335.64 93.86 337.12 94.46 342.33 95.01 343.59 95.74 345.43 95.32 347.35 94.09 349.84 92.18 351.8 91.08 354.08 91.21 355.57 91.75 357.32 90.17 359.62 89.7 360.61 89.05 364.48 88.94 365.08 88.55 368.83 84.81 368.04 82.85 369.07 81.85 369.07 79.86 370.67 79.12 372.58 76.52 374.18 75.82 374.94 73.94 376.69 73.5 379.19 73.7 381.15 73.13 383.31 69.91 388.68 69.9 390.85 82.41 391.62 88.48 392.28 92.81 392.93 94.31 397.5 97.01 399.39 97.57 402.86 98.13 406.33 98.19 411.96 97.6 416.95 95.37 426.31 91.05 430.48 88.12 434.84 81.92 438.69 76.64 440.72 71.76 442.12 68.72 441.82 65.16 441.87 53.68 442.06 53.45 444.3 53.34 446.45 52.8 447.8 51.7 448.55 49.64 448.49 47.23 448.03 44.7 447.83 41.75 447.89 33.97 447.48 29.18 450.61 27.46 453.34 26.6 457.67 24.79 462.78 24.7 467.11 22.01 468.8 19.57 470.93 17.5 473.22 15.86 475.35 13.83 477.7 11.91 480.97 8.17 483.7 5.56 486.22 3.81 489.32 2.41 491.73 1.83 494.34 1.98 497.41 2.49 504.5 2.61 506.94 3.1 509.58 3.96 511.85 4.47 514 4.64 516.67 4.47 519.02 4.73 524.04 4.62 527.26 4.67 529.15 4.16 533.66 2.23 535.87 1.55 542.04 1.03 550.56 1 554.15 1.77 559.54 2.58 564.82 4.3 571.11 7.5 577.56 11.16 582.53 14.28 585.31 15.86 587.03 17.41 588.72 19.71 593.52 26.91 597.22 33.19 600.81 36.18 603.04 40.77 604.28 43.55 607.35 48.37 609.1 51.39 611.88 58.56 612.92 61.92 614.24 68.37 615.96 72.94 618.28 76.81 620 80.4 621.9 83.7 623.82 87.57 624.94 91.82 625.94 93.94 627.92 96.75 630.13 99.33 631.94 102.15 633.46 105.62 635.44 109.49 636.91 111.67 639.57 114.48 639.03 115.89 642.13 120.41 645 123.58 641.64 126.57 638.31 127.94 637.65 129 635.64 129.26 634.84 130.32 633.52 131.13 633.75 132.39 633.41 133.57 632.29 134.54 631.83 135.75 631.8 138.9 630.56 140.2 630.82 141.57 630.08 142.55 629.19 146.62 629.68 147.4 629.59 148.95 630.48 150.44 632.29 152.73 632.43 154.43 632.95 155.14 636.91 155.49 637.22 158.22 638.11 158.79 636.59 160.63 637.6 160.83 636.94 163.38 637.83 163.9 637.68 165.39 637.88 167.31 639.15 169.49 640.69 171.33 641.73 171.59 643.11 173.71 645.17 179.19 644.43 179.94 644.2 181.46 644.48 183.29 645.52 184.13 647.24 184.24 648.53 186.65 649.22 190.64 650.65 191.73 650.88 193.31 650.39 194.31 650.51 196.75 649.02 200.57 647.55 203.06 647.5 205.39 646.23 207.54 646.18 208.57 645.43 209.86 645.26 212.42 645.8 214.6 645.63 216.52 646.18 217.47 646.26 219.08 646.95 220.74 647.38 223.29 645.8 228.2 643.39 231.07 642.48 233.19 642.82 236.35 641.67 237.12 641.59 241.2 642.42 242.26 639.09 244.38 638.97 245.3 636.56 247.05 633.24 247.71 630.57 247.2 627.58 247.4 625.98 246.62 623.51 246.31 622.59 247.11 621.15 246.54 616.59 248.34 615.64 248.43 615.19 247.48 613.09 248.14 612.17 248.75 611.23 248.69 609.73 249.26 608.7 251.27 608.04 251.67 608.01 252.88 606.84 254 605.14 252.88 601.01 252.48 598.14 251.27 598.34 252.16 597.74 253.28 599.69 255.69 601.15 257.81 602.47 258.62 605.43 261.54 605.43 262.98 608.13 266.71 609.59 268.34 609.45 270.27 609.93 272.65 609.39 275.06 610.82 277.56 610.45 278.65 610.42 282.98 610.77 283.67 609.99 284.76 609.93 285.91 609.27 286.77 609.48 290.24 611.2 290.32 612.37 291.41 613.01 291.3 615.67 291.76 617.08 290.78 618.17 291.82 619.38 292.28 620.38 292.1 621.96 293.17 623.16 294.57 624.91 295.03 626.18 294.28 627.98 293.71 631.17 294.48 633.26 294.31 635.24 295.66 636.19 296.84 636.22 298.33 635.7 299.59 635.82 301.29 636.62 302.29 636.28 303.35 637.66 307.14 638.14 307.77 638.14 309.15 638.66 311.41 639.12 311.76 639.21 313.71 639.95 315.35 638.83 317.53 639.29 319.16 639.26 322.15 639.98 322.61 640.55 324.13 641.41 324.61 642.02 325.73 644 327.77 644.77 329.06 647.3 330.67 648.85 331.3 649.74 332.76 652.49 335.49 652.72 337.35 652.64 340.11 654.73 341.03 655.82 342.23 656.37 343.87 657.31 344.38 659.72 344.3 660.41 345.76 662.48 347.2 665.35 348.69 668.88 349.98 670.48 351.47 671.89 353.14 673.01 353.77 674.33 355.63 675.19 356.35 675.94 357.81 675.71 360.62 677.4 363.87 680.61 364.95 Z" id="31250000"/>
</g>
</svg>