<?xml version="1.0"?>
<svg xmlns="http://www.w3.org/2000/svg" version="1.2" baseProfile="tiny" width="800" height="1251" viewBox="0 0 800 1251" stroke-linecap="round" stroke-linejoin="round">
<g id="sigung">
<path d="M 391.44 64.47 392.72 65.87 392.39 69.98 389.22 76.11 389.55 78.95 393.05 83.73 395.93 89.74 396.83 92.37 399.55 93.81 405.35 98.01 405.15 101.14 404.28 105.67 403.05 108.18 400.46 108.42 387.62 114.23 387.41 115.59 382.31 120.36 380.87 121.06 378.77 123.9 380.7 126.62 382.39 133.12 385.11 138.8 387.45 142.09 390.78 144.81 391.94 146.66 394.24 147.03 393.91 149.95 394 154.64 394.57 159.17 394.32 160.94 394.86 162.46 394.65 164.52 393.46 166.29 394.28 170.61 396.26 172.18 400.25 172.34 401.12 173 399.88 174.81 401.03 178.76 404.41 179.55 406.63 179.63 410 179.17 412.6 181.77 415.68 183.37 416.59 184.48 421.2 185.23 423.26 184.94 424.66 187.41 431.69 192.35 430.95 196.71 433.55 199.1 435.56 200.08 442.02 200.62 443.38 201.07 444.9 203.09 449.35 201.28 453.22 200.86 454.39 200.22 460.42 198.56 464.45 200.16 468.69 201.48 472.4 203.7 477.75 204.49 479.8 205.31 484.25 209.26 488.32 212.14 490.92 214.36 493.1 214.78 494.91 214.49 496.55 213.32 502.21 213.45 504.09 215.39 511.66 215.68 513.47 218.23 516.51 218.97 518.57 217.33 520.05 214.24 522.24 217.94 524.83 234.41 529.85 245.85 530.51 250.87 529.48 254.78 528.53 261.9 528.99 264.45 530.8 270.22 534.01 275.07 536.68 278.2 540.63 283.8 545.28 291.41 548.49 296.35 550.47 300.26 551.5 305.04 554.96 308.16 558.49 310.55 564.87 314.17 566.85 314.75 570.35 323.97 570.96 327.96 572.36 325.98 573.85 329.03 574.96 333.19 577.96 335.29 580.02 335.62 587.22 333.39 589.65 330.84 590.72 327.18 593.64 324.63 595.86 323.43 598.46 325.12 600.06 325.12 603.15 326.52 603.77 327.55 605.78 326.89 606.73 325.28 610.39 325.78 612.37 324.91 614.63 322.77 617.96 322.98 621.46 320.76 623.27 317.79 627.06 319.36 627.8 320.63 630.31 322.2 632.2 322.57 634.01 324.67 636.4 325.16 638.01 326.93 639.32 329.48 643.44 330.51 645.54 329.28 648.05 329.89 649.65 328.33 651.67 327.63 651.79 325 654.3 323.76 657.76 323.55 659.32 322.9 661.55 322.81 665.54 320.59 667.1 320.06 673.4 320.01 676.16 320.51 677.35 321.7 684.47 325.24 686.82 325.24 687.6 324.67 690.6 324.25 693.07 325.41 695.09 330.47 698.67 335.86 700.6 337.55 701.22 340.35 703.61 341.54 705.09 341.21 707.68 342.86 710.44 346.31 712.74 346.97 714.1 345.41 716.7 344.26 719.91 343.89 722.09 344.3 725.79 346.85 727.52 348.58 729.82 349.94 731.31 350.06 734.68 355.7 737.03 357.8 740.11 360.06 744.72 364.46 746.49 366.77 746.33 370.84 747.48 373.15 748.84 374.38 750.5 374.19 752.6 378.25 751.58 382.32 752.18 385.77 753.23 388.03 754.62 389.62 754.09 393.92 754.19 395.74 756.7 396.84 757.77 399.43 757.16 405.01 759.97 407.03 762.92 407.68 763.51 410.12 766.77 413.04 767.6 414.59 772.07 419.22 771.86 421.38 770.77 422.98 771.76 426.67 771.31 429.34 773.13 432.74 773.42 436.15 774.93 440.27 774.43 441.47 775.22 442.98 776.44 448.07 776.82 451.18 777.96 454.69 777.36 462.18 776.55 464.93 777.01 468.18 776.59 472.3 775.79 473.32 778.06 477.14 779.86 479.08 781.92 480.52 783.8 482.76 783.79 485.53 783.1 487.26 780.91 488.77 780.79 492.12 781.66 494.54 783.28 495.54 784.11 497.79 784.84 502.88 786.56 504.87 789.48 506.56 790.83 508.44 792.68 509.82 793.58 512.89 794.89 515.17 797.54 520.68 796.98 524.03 798.19 527.76 798.17 530.13 799 533.64 797.22 535.82 796.73 538 794.43 540.51 793.81 542.96 794.09 547.62 792.9 548.86 792.6 552.34 793.49 555.37 793.13 557.33 793.16 560.61 792.13 562.04 792.56 567.99 791.69 569.78 792.08 573.35 793.8 576.08 793.95 579.12 796.27 581.28 796.21 584.07 797.71 586.09 797.96 589.99 797.3 592.02 798.23 594.95 795.11 597.94 793.89 599.84 792.26 603.41 789.82 606.7 786.19 608.57 784.19 615.07 784.66 617.25 783.73 619.88 782.57 620.48 782.44 622.9 781.5 624.64 782.21 627.3 780.41 629.97 780.81 633.31 781.49 634.89 782.09 641.81 781.13 643.21 781.42 645.92 782.17 648.57 783.71 649.94 784.15 651.27 783.31 654.6 782.26 656.86 781.76 660.46 782.25 662.22 782.16 664.5 782.93 668.32 781.07 670.21 780.11 672.06 779.85 674.51 778.74 675.81 777.9 678.61 773.2 686.85 770.98 688.35 767.43 689.72 768 692.84 766.78 695.31 767.07 697.34 766.63 701.26 764.94 704.04 762.73 705.34 757.55 705.28 756.02 706.5 755.15 708.79 754.93 711.55 753.3 712.88 752 716.9 748.3 719.82 746.28 722.14 740.36 726.56 739.61 730.6 740.65 733.93 740.44 736.03 739.66 737.96 739.63 739.87 733.78 743.62 731.64 744.4 731.52 747.07 729.5 748.68 725.43 747.32 723.04 749.46 719.83 751.23 717.28 750.7 714.48 752.51 711.48 756.29 709.01 753.91 706.74 754.52 705.06 754.24 700.65 755.18 699.79 754.52 697.07 756.54 694.36 757.2 692.59 756.99 690.32 758.64 688.68 758.48 685.34 759.87 682.79 762.84 681.1 763.29 678.63 765.31 676.99 767.37 674.4 768.68 672.09 769.14 669.74 771.48 668.18 770.99 665.88 769.42 662.38 771.03 662.17 771.93 658.26 775.1 657.32 774.86 655.18 777.66 652.75 782.22 650.11 784.45 648.01 785.76 645.83 786.38 644.72 787.53 641.92 788.44 638.43 787.25 636.2 788.73 635.26 790.29 632.54 792.47 626.37 792.8 622.04 794.49 620.93 796.22 619.25 797.12 617.77 798.77 615.75 799.02 611.68 802.93 609.86 807.54 608.67 809.6 606.98 809.6 605.75 808.36 602.79 809.23 600.73 808.85 599.37 809.35 597.89 811.61 598.05 814.25 594.72 815.03 593.03 816.1 591.47 815.85 588.67 816.51 586.94 818.16 584.02 819.14 581.39 818.9 578.01 821.82 574.92 823.26 572.54 823.18 571.67 823.84 567.19 823.75 566.82 824.41 564.14 824.37 560.64 825.28 558.63 823.71 555.42 822.81 553.07 822.77 551.84 824.37 549.82 824.04 549.16 825.2 547.35 826.1 544.76 826.72 541.88 827.87 534.26 822.64 532.04 822.4 530.19 820.71 528.3 819.85 526.11 819.68 523.77 818.03 521.3 816.84 524.51 811.2 521.26 812.52 516.36 811.87 514.1 809.72 514.59 808.4 513.73 806.84 511.88 805.45 508.79 803.79 507.76 802.52 506.03 802.11 501.17 801.9 498.83 802.48 497.22 800.95 495.58 800.58 492.69 800.96 490.08 800.6 488.62 798.9 485.95 798.03 483.44 796.59 480.23 795.56 478.91 794.45 477.02 795.19 475.62 797.04 472.36 796.67 469.15 800.21 465.49 799.56 458.62 801 457.14 802.89 455.04 803.51 450.88 802.07 449.65 800.58 447.88 800.21 444.91 800.95 442.94 800.83 440.84 798.9 438.99 799.68 436.23 798.44 435.24 798.53 431 796.96 429.85 796.06 427.75 796.02 425.08 795.03 422.98 793.79 420.84 793.38 419.48 792.52 417.34 793.67 414.09 793.83 414.17 796.06 413.02 797.95 408.9 801.41 406.76 804.29 404.95 807.66 403.14 809.72 399.23 813.14 392.4 816.8 390.51 819.68 387.09 822.07 384.91 821.91 380.55 820.79 377.42 820.34 374.46 817.75 369.72 818.61 367.18 820.13 363.67 821.04 362.4 826.47 364.09 836.15 363.39 841.54 364.79 847.63 365.03 855.12 366.27 856.85 367.26 860.43 370.8 863.64 373.76 866.85 375.78 869.61 377.09 874.63 378.78 876.36 377.87 880.02 378.37 880.84 379.64 888.09 380.34 889.2 377.42 892.2 374.38 894.18 372.36 896.61 370.51 897.06 368.2 900.31 365.57 902.66 364.33 905.17 367.22 907.93 372.15 909.41 371.99 911.88 368.08 912.41 364.83 919.04 364.87 920.73 368.62 930.48 370.52 934.58 373.57 938.41 377.58 939.11 377.03 940.42 373.65 941.48 373.84 945.71 376.68 945.87 375.65 949.58 376.81 952.95 380.96 954.52 384.34 956.08 385.94 960.4 388.12 965.18 389.36 975.1 394.17 979.17 397.84 982.71 400.63 987.94 400.55 990.65 399.44 996.62 400.26 999.34 397.71 1003.29 394.26 1006.95 398.33 1014.86 400.35 1017.2 402.2 1021.15 404.63 1023.38 404.55 1027.53 404.79 1029.3 404.26 1031.15 402.57 1031.2 400.22 1033.38 398.62 1035.93 400.22 1044.57 402.61 1050.17 407.01 1056.38 409.65 1059.02 412.12 1062.35 413.97 1066.63 415.12 1068.4 419.36 1070.58 418.83 1074.12 419.03 1078.03 421.91 1081.24 422.32 1083.59 418.99 1090.75 412.2 1100.45 410.56 1105.14 406.63 1112.57 400.26 1119.08 391.34 1122.17 391.51 1137.42 383.92 1145.39 386.36 1152.26 386.48 1159.6 387.43 1164.47 386.89 1173.65 387.71 1178.14 384.07 1178.05 381.91 1176.7 378.22 1175.38 376.33 1176.24 372.69 1175.22 369.97 1176.43 369.27 1179.1 368.01 1180.43 366.21 1180.4 364.39 1182.05 363.16 1181.46 362.38 1178.62 360.03 1178.95 358.11 1180.31 354.19 1180.62 346.49 1182.63 345.46 1184.24 345.26 1186.38 344.41 1187.55 341.2 1189.92 339.93 1191.58 337.13 1192.78 335.04 1195.87 334.75 1196.98 332.71 1198.2 328.78 1199.56 327.93 1200.17 322.81 1199.16 322.24 1196.24 319.73 1193.57 309.15 1189 301.08 1182.66 298.57 1179.78 292.4 1174.8 280.46 1169.7 272.93 1168.5 270.18 1168.58 265.32 1168.09 262.89 1166.82 259.6 1163.32 256.22 1160.97 252.19 1157.72 250.26 1156.53 242.27 1153.77 240.87 1151.18 238.4 1150.27 234.33 1148.05 232.07 1145.37 231.28 1143.03 229.68 1142.16 229.68 1139.86 225.73 1139.07 222.31 1139.32 219.06 1140.8 217.95 1142.41 207.99 1145.13 203.42 1145.29 197.82 1140.68 193.17 1138.58 188.32 1140.76 187.29 1143.77 186.1 1145 185.48 1147.51 183.09 1151.38 183.34 1153.4 183.01 1155.5 179.8 1161.71 177.08 1162.87 169.3 1165.21 167.21 1166.41 164.28 1167.43 161.28 1169.94 157.37 1171.8 157.41 1177.52 158.52 1181.67 157.95 1186.33 151.24 1194.35 149.47 1198.96 149.63 1203.32 152.56 1208.51 154.2 1210.86 155.07 1212.91 154.7 1215.55 153.38 1216.49 153.46 1219.58 150.46 1228.23 148.85 1234.98 144.86 1235.84 141.65 1239.38 136.3 1240.98 134.08 1243.12 131.85 1241.27 128.48 1240.57 127.49 1239.17 126.01 1238.56 125.02 1239.26 119.8 1239.09 118.73 1238.14 116.09 1237.2 113.83 1237.9 112.59 1237.36 109.84 1237.32 107.9 1236.09 103.7 1234.4 102.51 1235.63 100.37 1236.01 99.34 1235.14 97.45 1236.33 96.09 1238.19 92.72 1240.99 90.41 1240.2 88.39 1240.57 84.32 1238.68 81.52 1237.69 77.12 1236.75 72.84 1237.24 72.3 1236.5 67.08 1236.62 66.17 1237.32 67.08 1239.3 66.29 1246.01 61.27 1247.08 57.45 1246.87 55.35 1244.61 51.31 1243.09 46.33 1244.98 44.15 1246.34 43.25 1249.14 41.4 1247.82 40.41 1248.15 36.87 1247.78 35.88 1249.67 33.91 1250 28.84 1247.61 28.18 1246.17 23.82 1244.77 21.31 1242.92 21.39 1240.57 23.78 1235.59 18.02 1231.03 16.83 1230.49 16.04 1225.02 17.72 1222.2 18.31 1226.16 20.76 1223.91 21.19 1224.56 23.41 1226.17 25.1 1226.5 29.87 1224.89 34.77 1222.22 38.39 1218.76 40.41 1214.89 40.86 1210.41 40.98 1204.97 43.53 1201.14 46.33 1191.27 45.47 1189.29 45.51 1182.5 44.77 1175.54 47.36 1166.24 48.64 1160.85 55.1 1153.36 54.6 1150.4 57.57 1147.72 56.09 1145.62 57.28 1144.26 58.14 1141.34 60.98 1140.07 61.72 1137.23 61.23 1133.07 62.79 1125.25 65.96 1123.03 67.32 1121.42 68.14 1118.25 69.87 1115.82 69.67 1113.97 71.15 1112.61 71.97 1110.93 72.05 1108.87 74.32 1105.37 73.29 1102.57 73.37 1100.35 74.89 1098.87 75.02 1097.47 73.78 1095.2 73.74 1093.35 74.52 1092.53 74.03 1090.47 75.1 1086.97 78.84 1085.12 78.14 1082.94 78.1 1077.63 79.54 1075.32 82.01 1073.35 85.35 1067.46 82.51 1064.7 82.18 1063.26 83.37 1061.41 82.51 1052.89 79.63 1051.2 74.85 1047.87 69.42 1045.85 67.77 1043.92 69.25 1042.89 72.22 1042.89 73.9 1037.75 74.73 1037.7 77.36 1035.4 77.81 1033.22 79.75 1026.84 79.25 1022.8 80.45 1019.88 83.58 1016.51 83.62 1014.37 82.88 1011.86 81.11 1009.96 80.45 1008.28 80.65 1005.44 79.91 1004 79.75 1001.24 81.15 999.18 79.54 998.03 79.21 996.09 77.44 994.82 77.24 990.99 78.43 987.41 78.18 985.6 78.51 982.39 78.14 979.71 78.27 975.88 72.3 973.46 71.93 968.76 72.67 967.69 73.66 961.56 78.06 956.87 86.09 955.88 89.75 951.31 89.95 946.13 91.93 946.46 97.11 941.8 104.61 942.38 103.91 938.92 106.46 935.01 103.99 924.11 103.66 905.34 113.49 897.39 104.77 890.07 99.08 885.51 100.53 882.99 105.26 877.38 105.98 875.89 106.85 872.19 107.77 870.44 108.32 865.23 108.88 862.8 108.58 859.88 106.48 855 101.9 852.96 98.71 851.25 96.78 847.19 95.02 846.48 101.04 831.16 101.95 826.12 104.52 820.44 106.47 817.91 106.49 810.47 114.63 797.71 112.63 791.53 114.31 790.64 111.13 785.21 119.32 783.66 117.56 781.55 117.85 775.6 119.23 774.44 121.51 770.99 121.48 765.4 120.91 763.32 121.12 760.88 122.78 758.02 118.3 754.71 118.44 751.62 117.27 749.9 116.88 747.92 118.47 746.35 118.09 744.83 118.59 743.25 117.95 740.36 116.75 738.99 118.7 736.95 118.98 732.62 127.14 722.73 130.29 716.22 131.31 709.72 129.67 708.37 120.63 704.94 117.52 702.91 114.66 702.35 112.79 702.64 109.54 700.41 108.01 701.29 107.42 702.72 105.76 703.82 101.57 708.44 99.47 710.24 95.85 713.98 94.49 714.24 93.28 715.75 90.5 716.56 89.52 717.85 86.35 715.43 85.2 714.1 79.4 711.5 73.84 706.78 69.29 704.32 68.24 702.24 66.98 697.98 61.41 694.9 57.83 696.92 50.01 693.47 48.01 691.93 44.72 691.8 41.9 690.73 40.81 691.16 37.22 689.1 34.63 689.96 32.24 689.13 30.92 690.12 25.04 689.95 23.33 690.79 21.01 691 16.6 693.17 12.01 691.42 6.74 692.54 7.24 690.36 10.71 684.81 10.69 680.02 11.86 675.69 12.39 674.8 12.24 669.96 13.27 664.07 13.01 658 16.63 655.06 17.01 653.02 16.53 650.73 16.15 643.36 13.85 639.84 15.63 639.18 18 635.03 20.27 634.99 25.32 631.75 26.92 630.39 30.87 631.17 34 630.79 37.58 628.72 37.85 627.58 34.99 627.73 32.74 628.62 30.86 628.34 32.69 625.59 34.2 625.28 36.37 622.53 34.7 618.27 35.85 616.31 36.29 612.84 34.67 612.01 31.94 607.16 28.76 605.03 25.34 601.13 24.79 596.74 25.63 592.53 27.39 588.85 28.75 587.9 28.39 583.33 29.47 576.09 30.06 574 27.02 570.97 22.82 569.71 21.81 567.51 19.77 566.28 16.9 562.47 11.68 560.27 9.89 554.64 11.65 549.78 9.34 548.92 6.2 544.71 4.66 541.85 2.17 538.64 1 536.62 1.54 534.01 3.09 529.28 4.12 528.07 7.54 527.35 8.6 526.31 11.65 525.8 14.69 518.63 17.83 521.48 20.11 521.7 26.32 518.59 29.12 518.53 31.08 519.95 33.84 519.7 35.96 514.24 37.48 508.63 38.61 497.37 40.03 491.8 40.87 486.2 38.87 483.1 38.6 480.26 39.04 479.38 34.81 476.27 35.13 473.94 36.98 472.79 37.08 468.14 38.81 465.22 41.27 464.27 44.76 462.45 48.06 461.37 49.35 462.32 53.14 462.25 56.57 461.26 59.35 459.38 62.03 459.77 65.34 459.8 67.47 459.41 73.34 460.7 77.05 459.65 81.03 461.11 84.79 460.08 85.52 460.59 86.58 464.61 88.08 468.31 92.81 478.18 94.52 478.11 96.9 475.47 99.77 475.27 103.45 474.29 107.74 475.69 109.82 475.64 114.57 473.42 117.65 472.6 121.4 469.64 124.81 464.84 126.85 461.38 124.77 458.01 122.99 454.43 120.09 454.34 117.88 452.77 119.17 449.53 117.5 445.18 115.95 439.69 122.57 433.72 122.31 431.89 122.58 424.86 122.95 422.01 124.24 420.38 127.08 419.36 130.36 418.93 130.52 415.66 131.45 413.69 133.92 413.17 136.77 409.76 134.43 404.11 133.04 401.5 133.42 398.35 135.24 397.38 138.43 394.32 137.79 391.34 138.93 386.69 143.3 383.96 143.15 381.1 144.86 377.75 145.85 373.66 147.59 372.21 146.15 369.8 147.94 366.97 149 364.37 149.63 361.54 152.98 359.73 154.44 356.96 155.4 356.39 157.92 353.23 158.35 350.82 160.12 349.12 160.73 347.05 159.85 343.58 161.58 340.68 160.94 338.42 159.31 335.68 155.32 331.74 155.57 329.02 154.83 327.38 156.05 323.62 159.17 321.7 156.23 316.72 155.68 313.69 152.7 311.78 155.98 310.11 158.54 307.52 158.99 305.43 158.52 303.5 158.7 300.76 159.75 296.75 160.4 295.62 159.8 292.95 163.1 289.23 162.59 286.23 161.5 283.14 159.41 280.8 163.37 274.77 165.23 273.87 165.12 270.14 165.91 264.52 165.19 260.22 164.08 256.33 160.09 250.1 159.74 246.13 158.63 244.69 161.37 237.32 160.22 234.16 163.64 230.08 162.9 228 164.28 226.9 164.44 223.69 167.87 217.78 169.06 216.15 166.97 213.94 167.42 210.59 168.9 207.84 167.56 207 165.36 203.42 163.39 202.07 162.4 198.6 161.15 195.71 162.65 195.14 163.48 193.03 162.26 192.02 160.33 189.28 163.2 187.06 166.36 182.57 169.12 178.21 171.47 176.61 173 173.19 171.81 170.85 172.02 168.33 172.97 167.66 173.86 164.89 175.92 163.92 176.55 161.15 177.63 159.85 180.49 158.33 182.54 157.68 186.64 153.21 188.62 151.7 189.75 146.99 192.03 141.86 192.63 141.78 190.31 134.39 188.54 133.39 188.18 130.94 186.6 128.86 183.73 127.38 182.03 125.66 182.15 124.6 179.76 122.77 178.07 119.96 177.32 119.43 177.04 116.35 172.74 114.2 173.65 109.32 174.32 108.07 175.93 108.1 181.7 105.32 185.38 103.05 189.03 102.03 191.19 100.75 192.58 97.89 195.6 95.71 198.02 95.18 199.2 93.89 201.58 94.93 204.13 96.63 204.2 97.73 210.95 101.9 213.38 101.16 214.78 97.83 217.39 97.25 218.95 93.21 217.55 89.06 216.9 86.19 217.11 82.85 219.32 79.48 219.53 78.42 222.56 75.22 225.15 73.2 225.87 70.23 225.53 68.13 227.5 67.48 228.4 65.18 229.05 62.17 227.82 58.71 228.18 52.45 226.99 48.09 225.43 46.87 227.31 41.15 228.19 39.66 228.53 36.85 227.31 34.69 227.7 31.89 227.42 27.44 228.48 23.46 228.47 17.83 230.71 16.57 232.86 16.06 235.63 14.42 239.17 15.15 244.13 16.78 244.31 12.08 246.4 9.47 246.84 6.08 248.51 4.94 252.11 3.42 253.52 1 256.78 1.16 265.23 13.01 267.66 15.78 277.86 20.64 279.84 20.55 283.71 22.74 286.32 20.27 289.66 19.78 295.53 16.87 298.66 16.4 301.62 16.54 304.26 17.4 306.04 17.34 307.44 21.46 309.45 24.14 310.61 26.89 314.84 28.87 315.86 28.78 317.6 27.34 318.45 27.71 323.15 28.03 325.09 26.28 330.38 26.71 329.78 30.49 330.52 32.95 333.85 35.74 335.16 38.29 338.62 38.93 340.88 38.24 343.52 40.02 346.46 38.58 350.03 35.14 350.74 32.63 353.42 29.68 356.36 27.51 359.52 27.52 361.18 28.69 361.13 32.43 359.82 35.2 360.22 40.38 361.64 41.13 364.87 41.16 371.26 44.72 372.37 45.88 372.39 49.63 375.24 48.76 375.9 50.91 379.1 57.7 387.42 60.67 390.5 63.21 391.44 64.47 Z" id="31260000"/>
</g>
</svg>