<?xml version="1.0"?>
<svg xmlns="http://www.w3.org/2000/svg" version="1.2" baseProfile="tiny" width="800" height="1250" viewBox="0 0 800 1250" stroke-linecap="round" stroke-linejoin="round">
<g id="sigung">
<path d="M 761.58 205.41 762.47 205.41 765.52 210.92 766.45 213.55 767 216.29 768.27 217.66 770.07 218.76 772.51 219.25 777.17 219.14 781.69 221.27 782.28 222.3 783.82 223.77 785.43 227.48 785.88 229.54 786.05 234.27 786.41 238.81 787.96 243.42 790.9 248.79 793.28 253.29 794.51 255.85 794.63 263.69 795.61 265.65 796.16 269.36 795.36 273.12 794.52 279.48 793.82 282.68 795.01 285.81 797.52 289.5 798.01 292.11 797.82 296.98 799 303.16 798.65 307.86 797.49 311.92 793.28 320.02 793.5 322.06 796.56 324.86 797.66 326.73 798.39 330.06 797.81 337.65 798.43 341.32 796.85 348.34 797.04 350.53 794.17 358.03 795.08 360.13 793.86 362.5 793.51 366.82 793.75 369.54 795.01 372.31 796.77 374.23 798.57 378.11 796.98 384.98 797.53 386.62 795.65 389.98 794.39 393.83 791.37 396.59 790.49 397.69 789.09 400.94 786.79 402.74 787.5 404.49 786.32 405.85 785.57 407.8 784.02 407.83 782.29 410.35 781.03 414.87 777.42 418.13 775.27 419.86 774.97 421.5 774.12 423.08 770.11 426.62 766.82 429.71 764.79 431.47 762.32 432.72 759.24 433.52 757.57 435.17 754.72 436.22 750.58 436.23 749.54 437.07 749.77 440.18 748.41 444.3 749.85 445.41 750.96 446.75 752.78 448.02 752.95 449.13 754.1 450.75 754.51 453.21 755.17 454.04 754.23 458.84 753.02 461.01 751.96 462.18 751.05 463.73 751.78 466.82 748.98 470.32 747.8 472.36 747.09 474.39 745.73 475.84 744.19 476.95 742.9 477.24 741.38 481.11 738.95 482.37 737.82 485.31 737.05 487.95 735.96 490.15 735.48 492.82 736.04 493.81 735.96 496.72 736.61 497.95 733.85 500.01 732.91 501.08 732.66 502.14 732.61 504.15 731.12 507.45 730.97 508.4 729.55 509.75 727.81 512.02 727.71 513.99 727.16 515.85 727.53 517.25 727.49 519.98 728.23 524.86 727.98 526.24 726.98 528.42 725.98 529.39 725.3 532.1 724.14 533.73 723.54 537.93 721.83 538.83 720.53 540.11 719.23 540.62 717.4 540.75 714.78 542.88 713.65 545.27 711.48 548.57 711.48 549.87 710.84 551.75 709.68 554.33 707.12 557.72 706.63 559.16 704.78 559.02 702.4 558.4 700.66 558.39 697.42 560.38 695.04 561.59 692.91 562.32 691.31 562.51 689.56 563.84 687.68 564.72 685.38 566.31 684.27 567.4 682.58 570.38 681.53 571.46 679.84 571.65 676.61 573.33 675.6 574.06 675.01 575.82 673.96 577.63 672.76 578.78 672.09 580.45 670.42 580.05 667.26 577.4 664.61 578.43 663.08 579.73 661.14 581.99 661.73 583.23 660.52 585.23 659.61 587.38 659.78 589 659.75 592.7 660.15 596.94 661.18 601.44 660.55 602.72 657.74 605.27 657.16 607.87 655.47 610.22 655.14 611.38 655.03 614.03 655.63 617.22 655.41 618.12 654.06 619.61 654.06 620.19 650.98 624.13 650.54 625.86 649.88 626.6 648.27 627.05 647.62 628.05 646.32 628.96 646.45 630.61 645.25 631.96 644.14 633.59 643.57 635.05 643.35 636.46 643.96 638 643.1 640.63 643.55 643.06 644.89 644.83 645.01 646.27 646.92 647.43 648.9 648.18 649.31 650.26 649.08 653.11 648.15 655.06 646.27 657.52 645.21 660.49 643.94 662.02 643.1 664.45 644.69 666.56 645.42 667.13 646.23 669.22 647.81 670.72 647.85 671.8 648.36 672.82 649.52 672.74 650.86 672.19 652.47 671.99 654.91 672.61 656.88 673.98 656.77 675.46 657.63 675.53 660.15 678.87 662.29 682.06 662.3 682.72 661.23 685.61 661.67 687.98 661.1 689.78 660.37 690.64 660.97 692.44 660.56 692.88 659.01 693.09 657.06 693.97 656.8 694.9 653.61 700.8 649.28 705.24 648.3 705.71 646 705.59 642.44 709.1 639.73 710.85 638.83 712.22 637.53 713.5 636.74 713.89 636.6 714.65 635.56 715.76 635.03 717.39 633.84 718.66 632.96 720.07 632.79 721.49 631.43 723.07 630.48 724.99 629.78 725.67 629.13 727.05 627.39 729.63 624.09 731.32 621.8 732.86 620.27 732.83 619.33 733.26 619.13 734.76 619.61 736.01 619.07 737.35 619.6 738.76 618.97 740.78 610.98 743.31 609.95 744.41 605.43 748.01 598.29 753.87 598.44 755.33 597.21 755.08 595.2 755.31 593.74 754.83 592.16 753.29 591.3 753.96 588.81 755 586.66 755.47 585.47 754.91 584.14 754.82 582.97 754.05 581.08 750.8 581.03 750.27 579.82 749.72 580.04 747.69 579.77 745.6 578.23 744.7 577.51 743.67 576.66 744.11 575.43 743.77 574.47 742.77 574.24 741.33 573.33 740.48 572.36 740.44 571.04 741.22 570.23 741.27 568.2 743.43 566.15 744.85 564.27 745.88 562.91 746.21 560.34 748.6 559.62 748.34 558.59 749.41 557.63 749.89 555.14 749.88 554.25 749.37 552.8 747.58 551.57 747.32 551.4 746.58 550.06 745.28 548.98 745.1 547.54 743.73 546.67 743.55 546.41 742.86 545.01 742.02 541.95 741.51 539.5 742.96 538.86 745.02 539.12 746.57 539.04 748.74 538.68 749.08 538 751 536 753.24 535.69 755.55 536.19 757.44 536.79 758.47 535.97 760.12 536.21 761.15 537.51 762.7 537.71 765.13 538.23 765.86 538.85 769.11 537.47 771.93 536.55 772.43 535.51 774.68 535.4 775.71 534.72 777.45 533.95 778.53 533.1 780.37 531.55 782.56 532.3 783.35 534.79 784.25 534.89 785.39 535.83 787.15 538.18 788.9 538.06 791.38 538.56 794.06 538.08 795.91 536.44 796.27 535.51 797.1 534.73 797.1 534.5 798.23 535.25 799.02 534.61 800.26 533.11 802.44 532.73 803.81 531.78 805.93 531.85 807.27 531.2 808.56 532.03 812.42 533.06 813.42 532.51 814.7 532.8 816.96 532.25 817.91 531.82 819.72 532.13 821.18 531.28 823.01 531.39 823.95 533.31 825.35 533.76 827.4 533.65 828.02 534.51 828.73 534.75 830.19 535.89 832.18 534.7 835.22 533.63 836.07 533.25 837.62 531.79 838.96 531.83 839.48 530.78 840.89 528.72 842.49 527.64 842.67 526.35 844.09 524.14 845.63 524.12 849.38 523.35 849.87 522.39 851.22 523.47 855.86 522.13 858.35 522.65 860.84 522.65 862.28 522.99 864.04 523.24 867.42 522.68 869.52 523.3 872.35 523.6 875.55 525.71 876.69 528.26 877.56 528.46 880.14 527.63 881.31 526.33 882.27 525.71 883.17 525.48 884.32 525.66 885.89 525.44 888.26 526.02 889.45 525.56 892.5 524.34 894 523.58 896.25 522.69 896.48 520.93 895.95 516.59 895.38 514.01 897.03 513.25 898.96 512.53 899.94 512.22 901.25 511.07 903.3 509.87 904.11 509.41 904.98 507.69 906.49 506.25 906.94 503.92 906.12 502.39 906.21 501.84 907.39 500.47 908.73 500.39 909.88 501.07 911.14 500.89 912.19 496.89 911.25 495.42 910.15 494.37 908.88 493.95 907.28 492.89 906.17 490.4 905.47 489.97 905.61 486 904.15 484.99 904.19 483.14 903.79 480.3 904.03 475.74 905.4 474.65 904.68 473.25 904.74 472.44 905.22 469.7 905.44 468.8 905.21 468.36 903.88 466.84 904.02 464.99 903.57 462.95 903.53 462.69 901.29 459.22 899.56 458.86 896.78 459.32 894.44 458.56 893.25 458.4 892.15 457.74 891.66 455.38 887.91 454.62 885.47 454.14 885.1 453.48 886.68 453.5 888.43 452.73 890.07 452.87 891.01 451.86 892.77 450.12 894.98 448.91 895.93 448.81 897.48 447.59 899.39 445.66 900.49 445.04 901.25 445.14 902.73 444.52 903.59 443.53 906.3 442.44 907.47 442.22 908.71 442.39 909.93 441.15 912.91 440.51 913.12 440.06 914.52 440.46 915.73 440.73 917.73 440.41 918.58 438.76 919.91 438.29 921.12 439.5 921.64 439.5 923.75 438.35 925.57 437.33 927.84 437.21 929.12 435.63 930.3 434.95 930.24 434.88 931.62 434.49 932.86 432.53 932.89 432.28 934.6 431.66 935.65 431.29 937.24 431.35 938.33 429.92 939.72 429.58 940.46 428.53 940.88 428.77 944.21 428.48 945.23 429.79 947.5 431.86 949.41 432.95 950.82 433.23 952.13 434.55 954.27 436.46 955.29 436.2 956.23 436.44 957.51 437.66 959.09 439.54 959.37 440.66 960.29 440.99 961.25 442.37 962.52 441.15 963.06 440.35 963.84 439.32 965.53 438.19 966.57 437.43 968.03 436.29 969.18 434.27 968.22 434.46 969.23 434.09 970.03 431.33 971.83 429.83 973.79 429.57 976.12 429.09 977.96 427.96 978.19 426.74 978.03 425.39 978.86 424.98 979.72 425.01 981.81 425.47 982.67 425.14 984.62 425.35 985.67 424.86 986.58 423.28 986.8 423.14 988.71 422.44 990.5 421.66 991.31 421.61 992.2 420.45 993.2 420.76 994.36 419.53 995.51 419.79 996.05 418.36 997.43 418.43 999.73 418.15 1000.88 418.68 1001.83 418.37 1002.67 418.73 1003.93 418.38 1005.9 418.41 1007.43 417.71 1008.88 416.78 1009.37 414.6 1012.3 415.35 1013.89 415.06 1014.73 415.7 1016.05 415.8 1017.88 414.97 1020.24 415.13 1021.11 414.7 1022.06 415.01 1024.04 415.68 1024.38 416.71 1026.93 418.12 1027.92 419.42 1028.22 421.03 1029.17 421.66 1031.16 421.29 1035.56 421.55 1036.04 420.65 1037.9 421.67 1039.89 422.34 1040.22 423.48 1041.96 423.4 1044.25 424.08 1045.98 425.71 1048.84 426.44 1052.16 424.43 1054.58 424.78 1055.97 424.71 1058.09 425.33 1058.71 424.89 1061.04 424.1 1061.81 423.42 1063.97 423.33 1064.91 424.27 1065.87 424.24 1066.59 422.39 1068.68 423.42 1070.7 421.99 1073.45 422.17 1075.24 421.14 1076.66 420.85 1077.67 420.95 1080.05 423.21 1080.87 424 1081.42 424.75 1083.08 424.7 1085.09 422.52 1088.19 422.57 1088.69 420.37 1090.29 419.91 1091.45 420.12 1092.34 418.63 1095.55 417.29 1096.33 417.59 1097.96 417.1 1099.73 416.17 1101.61 415.54 1103.86 413.92 1104.82 412.87 1106.14 411.99 1107.97 409.91 1109.34 409.69 1111.76 407.96 1113.62 407.32 1116.2 408.23 1117.66 407.91 1118.24 408.39 1119.48 408.38 1120.42 409.1 1122.68 411.1 1124.86 411.21 1125.91 412.58 1126.76 411.47 1128.76 409.96 1130.78 408.4 1134.43 406.68 1136.99 404.7 1138.9 402.89 1139.4 401.39 1142.62 401.17 1146.57 400.84 1148.46 402.02 1150.61 398.9 1155.33 396.37 1153.49 395.88 1153.96 395.7 1157.4 394.89 1157.88 393.61 1159.23 393.18 1160.1 392.32 1160.05 390.46 1162.03 388.52 1164.43 386.15 1170.52 385.26 1171.94 385.41 1173.34 384.57 1176.86 385.57 1178.34 386.92 1179.86 385.34 1181.52 384.47 1183.38 383.86 1183.71 383.4 1185.77 383.35 1188.12 381.24 1187 376.17 1189.19 375.56 1188.83 370.59 1189.88 368.94 1190.33 365.83 1193.01 364.2 1194.21 361.07 1194.74 359.39 1195.28 357.43 1196.96 355.62 1196.8 353.61 1197.31 352.31 1198.51 350.83 1198.97 349.61 1199.99 348.31 1200.01 347.22 1200.4 345.23 1201.52 342.94 1201.24 341.92 1202.08 340.67 1203.68 339.78 1203.96 338.76 1203.1 336.16 1202.92 334.18 1201.64 333.01 1201.98 331.86 1201.54 331.43 1203.68 330.08 1208.19 327.86 1210.56 327.1 1210.56 325.62 1212.47 325.21 1214.92 324.25 1216.09 321.95 1217.84 319.82 1218.71 318.75 1218.63 317.52 1219.19 316.68 1221.69 314.7 1223.19 313.53 1224.39 312.56 1227.3 312.63 1228.39 310.24 1227.63 308.61 1227.6 307.26 1229.46 305.33 1230.25 303.21 1228.67 301.05 1227.68 299.44 1225.54 301.46 1223.3 301.79 1221.62 300.74 1220.01 300.46 1218.99 299.57 1217.92 298.45 1217.82 297.71 1216.85 296.39 1217.08 295.01 1218.07 294.91 1217.16 293.97 1216.37 291.52 1216.21 291.17 1216.6 288.77 1216.6 286.38 1212.78 285.16 1212.22 283.73 1210.46 281.8 1209.39 279.99 1209.52 277.77 1207.48 278.05 1203.86 277.26 1198.51 278.13 1195.33 277.54 1192.22 278 1190.46 278.59 1189.95 274.97 1185.34 271.89 1185.14 268.83 1188.71 266.64 1191.1 267.02 1193.47 267.23 1196.45 266.16 1198.82 265.11 1199.53 265.04 1200.86 261.88 1202.23 260.43 1202.69 257.04 1198.54 253.6 1196.91 252.79 1197.11 249.94 1199.74 248.31 1200.75 246.04 1202.82 244.77 1203.35 243.9 1204.63 242.35 1205.9 241.46 1207.22 238.58 1205.16 236.8 1204.63 235.37 1202.97 233.72 1201.67 232.31 1199.86 230.56 1200.68 228.32 1202.13 227.66 1203.66 227.91 1204.98 225.34 1205.19 224.06 1203.33 222.31 1203.1 220.52 1203.91 220.19 1202.41 219.07 1200.78 215.94 1199.23 213.85 1199.99 212.22 1199.43 210.34 1199.53 206.24 1202.23 204.28 1203.38 201.86 1204.3 199.87 1207.48 196.66 1213.67 195.64 1216.47 191.19 1218.61 187.24 1218.43 188.28 1222 187.85 1224.11 189.1 1230.79 186.76 1233.31 184.41 1237.21 185.43 1238.45 187.11 1239.8 188.06 1240.14 183.57 1243.29 181.54 1243.88 177 1242.96 172.55 1247.83 167.76 1249 154.65 1242.56 148.66 1237.16 143.19 1230.41 132.92 1223.1 129.48 1223.35 128.15 1224.84 123.96 1223.45 121.31 1220.37 121.59 1219.83 121.11 1217.98 121.72 1217.36 120.39 1212.8 120.47 1211.28 118.69 1210 117.52 1208.83 115.81 1205.49 115.89 1203.74 114.59 1202.39 113.47 1200.78 111.28 1201.85 109.93 1202.77 107.08 1203.25 105.52 1203.69 104.07 1204.73 102.39 1204.53 100.15 1206.23 98.65 1204.98 97.73 1202.69 95.03 1202.92 93.81 1203.66 92.76 1203.89 90.62 1202.67 88.36 1202.49 87.44 1202.92 86.07 1201.85 85.05 1201.72 82.4 1201.88 82.4 1199.99 83.54 1197.83 83.52 1196.12 85.76 1196.38 86.73 1195.94 89.1 1193.65 89.73 1192.02 89.53 1188.78 89.12 1185.86 87.75 1184.05 87.64 1183.18 86.37 1181.5 86.01 1179.74 84.23 1180.05 84.26 1178.85 83.6 1177.6 82.35 1176.25 81.07 1175.64 80.16 1174.7 79.55 1174.62 78.09 1175.9 75.17 1174.83 73.97 1173.37 71.55 1173.58 70.81 1172.84 69.46 1172.58 67.55 1173.25 66.38 1174.9 65.59 1175.62 64.19 1176.28 60.65 1176.35 59.84 1175.54 58.97 1174.11 60.24 1171.41 60.06 1169.55 58.72 1165.38 59 1164.66 58.38 1164.08 57.19 1163.9 55.49 1162.58 53.39 1162.5 49.19 1160.97 48.12 1160.31 47.66 1157.12 45.83 1156.08 44.35 1157.48 43 1158.17 41.7 1157.63 41.45 1156.69 40.15 1155.21 39.69 1155.39 37.33 1154.73 37.35 1153.54 37.83 1152.35 37.96 1151.05 37.31 1148.99 37.78 1146.49 41.44 1143.75 42.69 1142.32 44.98 1140.51 45.78 1138.02 46.8 1137.2 46.93 1135.49 47.47 1134.07 48.42 1133.32 51.62 1133.36 52.99 1132.55 54.03 1130.83 54.31 1128.41 54.13 1127.15 54.88 1125.63 54.53 1123.69 56.73 1122.84 58.1 1121.92 61.01 1116.82 61.53 1115.09 62.22 1114.28 62.37 1112.76 62.97 1111.62 64.12 1110.45 63.64 1108.08 63.7 1106.68 63.4 1105.58 63.7 1103.35 64.35 1101.96 64.87 1099.9 64.6 1099.07 63.65 1098.22 63.19 1096.59 63.01 1094.91 63.6 1094.04 63.23 1089.76 62.81 1088.78 62.56 1086.72 63.67 1085.06 63.23 1083.42 63.81 1082.34 63.9 1080.84 64.62 1080.47 65.19 1078.84 64.9 1077.49 66.14 1073.47 68.38 1072.32 69.89 1070.28 70.9 1068.07 71.66 1066.89 73.58 1065.04 73.01 1063.23 73.42 1061.97 73.26 1059.56 72.34 1058.31 72.38 1056.58 70.94 1055.24 70.85 1053.36 69.78 1051.67 69.54 1049.46 70.08 1048.36 69.81 1044.67 70.45 1043.79 70.43 1041.76 70.65 1040.54 70.1 1038.67 70.29 1036.52 71.03 1035.75 70.85 1032.86 71.23 1031.35 72.66 1029.79 72.96 1028.45 74.06 1027.1 73.55 1024.92 73.56 1023.46 72.81 1021.15 73.16 1019.08 71.52 1015.66 70.71 1014.25 70.15 1012.36 69.01 1011.5 68.17 1010.34 66.37 1009.29 65.3 1008.06 64.85 1004.91 64.33 1003.52 63.33 1002.9 62.8 1001.4 62.87 999.33 64.22 998.39 64.65 997.32 64.66 995.61 63.49 994.22 62.22 993.33 61.11 992.13 59.7 989.76 60.2 989.13 60.46 986.58 60.17 984.57 60.67 982.87 61.05 978.23 60.34 976.06 60.1 974.14 59.35 970.99 58.86 970.05 59.17 969.31 58.23 966.76 58.06 964.65 56.93 962.55 57.21 960.89 56.59 958.61 57.27 957.62 57.4 956.29 54.63 953.42 54.12 952.46 52.1 950.66 51.73 949.14 49.91 948.74 48.17 947.49 48.55 944.04 47.89 942.43 46.34 941.76 46.27 940.63 46.6 937.96 45.74 936.98 45.09 935.58 44.72 933.45 45.35 930.93 44.05 928.42 45.65 927.29 47.61 924.15 48.58 923.54 49.09 922.09 48.7 920.23 49.98 918.83 50.41 917.43 50.23 915.88 52.04 915.49 52.88 915.7 55.45 914.02 58.53 914.17 61.72 912.28 65.92 912.18 66.48 912.82 68.29 912.84 71.42 911.67 72.16 911.83 73.2 910.91 76.23 909.74 76.66 908.59 76.38 907.78 76.46 903.73 77 901.25 78.8 899.19 82.88 895.52 82.85 894.33 84.3 892.21 85.7 891.55 87.54 890 88.71 889.59 90.57 889.56 94.36 891.65 98.67 890.76 99.23 890.2 101.14 889.82 102.69 890.38 104.85 888.54 106.46 886.43 107.48 885.64 109.69 886.63 112.06 885.92 113.16 886.07 115.04 885.49 115.65 884.52 117.54 884.42 118.27 884.62 121.92 884.34 124.03 885.49 126.3 885.72 127.09 885.31 127.32 884.49 128.41 883.55 129.1 883.53 130.63 879.78 130.65 878.23 131.36 876.95 130.65 874.84 130.85 873.54 131.98 869.41 133.3 867.17 133.81 865.57 134.55 864.42 134.62 862.36 133.88 860.83 134.8 859.15 134.9 856.73 135.59 856.12 136.13 854.61 137.4 852.27 138.37 851.35 138.57 850.26 139.77 847.41 141.47 845.24 143.05 844.53 143.84 843.43 143.38 841.78 144.25 839.81 144.89 839.15 144.61 837.9 145.8 836.35 146.03 833.8 146.92 831.97 146.9 831.21 148.12 828.63 146.62 828.79 144.96 828.15 139.84 825.04 137.5 823.87 136.86 823 134.44 821.58 135.72 818.34 136.2 815.26 136.74 814.39 135.9 813.6 135.46 811.8 134.55 810.9 131.11 809.04 129.89 808.89 128.49 808.31 128.36 806.04 129.25 802.45 130.24 801.38 130.55 799.29 131.49 797.15 130.57 795.26 128.74 793.02 127.49 789.99 127.87 789.15 127.92 786.93 128.51 785.74 125.86 782.32 122.4 780.67 118.66 779.85 117.69 779.85 116.72 778.91 115.24 778.76 113.94 777.79 110 776.77 107.25 778.45 105.95 778.91 104.22 778.73 102.56 779.12 101.9 778.22 101.8 776.36 101.39 775.17 99.81 774.25 98.72 772.57 98.33 771.17 97.24 770.66 95.05 770.84 94.46 770.43 93.19 770.48 92.27 770.15 91.46 769.26 90.06 769.44 88.1 768.98 87.13 770.33 86.21 770.89 84.81 771.19 84.17 771.96 83.21 771.37 81.7 771.24 79.54 770.68 77.37 770.61 75.87 769.61 74.6 769.11 73.91 769.59 72.18 769.67 71.36 768.85 69.74 766.46 69.79 764.67 70.22 762 69.63 758.51 69.91 757.18 69.68 755.86 67.95 754.15 67.34 752.98 66.12 752.19 65.35 750.1 65.53 748.96 65.07 747.1 64.39 745.93 62.53 744.04 61.71 742.84 61.25 739.89 60.82 738.16 59.96 736.93 60.54 734.97 60.29 733.85 58.76 733.22 58.56 732.32 57.66 731.38 56.72 731.33 53.13 728.38 52.93 727.54 51.27 726.57 51.65 724.89 51.63 723.38 50.43 722.8 50.66 720.86 49.95 719.56 49.97 718.59 48.78 716.84 47.53 715.92 46.79 714.95 46.38 713.19 44.75 711.92 44.96 710.09 43.43 708.3 43.78 706.29 43.17 704.43 39.86 702.83 37.24 701.94 34.26 701.76 33.14 701.22 30.75 699.21 28.61 699.24 25.17 698.34 23.08 698.22 19.18 695.82 18.9 694.8 18.06 693.73 16.33 693.3 13.73 691.31 15.47 690.02 15.95 687.72 15.95 686.73 16.64 684.54 15.9 681.63 15.95 680.69 14.91 679.57 14.6 678.04 15.8 675.32 17.96 673.97 19.16 673.71 21.27 670.78 21.37 669.33 22.29 666.78 21.22 665.51 20.2 661.56 17.96 659.86 14.55 658.35 13.3 657.18 12.64 656.98 11.54 655.63 10.83 655.17 10.14 653.06 8.64 651.5 6.83 650.18 7.24 648.7 6.86 647.27 8.26 643.81 9.05 642.46 9.3 640.75 9.79 639.35 8.54 637.62 9 634.43 9.02 632.91 9.81 631.02 10.09 629.72 10.7 628.6 10.86 627.56 11.8 626.82 11.09 625.77 9.74 624.63 9.12 622.49 9.28 621.8 8.56 620.12 8.74 619.53 7.8 618.23 6.86 617.73 6.3 616.07 5.28 615.51 5.13 614.69 4.25 613.94 4.75 612.76 4.25 611.76 5.2 610.02 6.82 607.55 7.62 605.55 6.56 602.23 6.4 601.02 6.88 598.41 5.38 596.52 4.75 595.33 3.16 589.28 2.96 587.81 1.88 585.57 1.65 583.86 1 580.98 2.52 579.66 3.18 577.17 5.58 577.28 6.84 576.25 7.99 576.18 9.87 576.67 11.46 575.98 15.01 575.87 16.99 575.25 18.32 573.2 18.32 571.95 19.92 571.59 20.53 570.9 23.45 569.64 25.07 567.57 25.65 566.06 25.43 562.87 27.23 563.49 29.1 563.66 30.3 564.13 33.62 563.56 34.32 564.88 35.09 565.6 39.92 564.57 41.21 564.82 43.9 566.11 45.26 565.52 49.4 565.11 50.98 565.45 51.84 566.81 52.98 567.95 53.34 570.11 54.35 572.49 56.95 572.55 58.32 573.65 59.95 573.6 62.76 575.44 62.55 576.43 64.25 579.41 63.81 581.14 64.13 582.35 64.99 583.16 65.83 584.72 65.63 585.52 66.77 586.91 67.27 589.4 68.26 590.85 69.2 593.19 70.4 592.51 73.82 590.21 74.34 589.43 75.8 589.3 77.12 588.75 78.49 587.54 79.4 584.89 81.05 583.3 84.72 582.15 85.48 581.58 87.35 580.9 89.4 579.13 90.5 579.02 92.59 577.31 92.72 575.61 94.84 572.85 95.14 570.6 94.5 569.1 96.54 567.31 96.97 566.54 98.16 566.38 100.34 565.19 101.92 563.22 102.97 562.89 104.42 561.52 105.13 561.39 106.26 560.52 108.98 559.15 110.18 558.83 112.39 557.37 114.55 555.62 116.31 556.31 117.33 557.07 118.68 557.58 119.96 557.69 121.8 556.46 122.1 555.89 123.8 555.73 124.52 554.95 124.61 553.28 125.09 551.24 126.61 549.41 127.34 546.1 128.94 544.51 128.92 543.91 129.66 542.5 126.65 538.2 125.87 536.44 125.51 534.98 125.74 533.95 125.54 532.8 125.6 530.66 125.93 529.62 126.85 528.72 126.9 527.68 127.68 525.5 128.81 523.91 128.75 521.19 129.21 519.28 129.03 517.43 129.05 515.3 129.56 513.66 128.78 510.22 128.17 508.27 128.46 506.95 128.14 505.4 128.4 504.66 127.58 502.62 126.75 499.74 127.18 497.75 127 496.46 128.07 493.76 128.06 492.63 129.64 491.9 129.4 490.68 127.05 490.54 125.1 489.18 122.89 487.12 120.99 484.78 119.78 482.85 113.7 476.47 112 474.1 110.59 471.26 109.73 468.51 109.58 465.57 110.14 462.41 108.22 456.99 105.52 454.37 103.99 452.34 102.53 449.87 102.19 447.51 102.45 444.95 103.29 443.19 106.67 437.8 107.4 434.82 107.78 431.88 107.44 428.66 107.44 425.9 106.3 424.66 105.69 426.07 104.16 424.85 100.97 423.64 99.33 423.3 97.51 423.6 95.09 425.17 91.74 427.09 91.55 425.69 89.16 426.59 87.76 426.84 87.02 427.46 84.61 427.99 81.18 427.74 77.47 424.95 76.39 423.63 75.46 425.08 70.99 423.72 65.89 424.19 61.95 423.73 57.36 422.62 56.38 421.15 57.48 419.52 63.09 413.29 64.05 410.48 63.36 408.93 59.98 405.67 52.89 395.99 50.2 389.12 52.45 383.76 53.74 379.07 54.86 373.99 58.73 363.19 62.71 360.83 63.41 359.95 64.26 360.13 68.58 359.66 68.93 359.34 72.93 360.26 74.15 360.11 76.79 360.81 79.9 363.75 81.73 364.83 83.02 365.26 86.79 363.2 89.32 361.35 91.43 359.16 95.92 352.77 99.09 350.32 100.1 349.26 101.65 348.56 103.13 348.83 105.33 348.48 107.48 347.17 108.93 345.71 108.97 342.64 109.14 341.35 108.71 338.2 109.53 335.28 116.81 327.68 118.47 327.13 120.48 327.03 122.89 328.71 125.1 331.59 127.04 334.38 129.69 337.06 129.98 339.96 128.72 347.18 126.71 356.06 127.17 361.89 129.99 368.33 130.83 369.21 132.91 370.13 133.78 370.1 135.92 369.13 139.39 367.24 143.63 362.31 146.88 357.96 150.46 354.47 154.4 354.34 158.89 355.23 162.84 356.78 166.68 358.94 169.35 359.47 171.9 359.26 174.99 357.45 176.13 354.58 179.01 350.42 181.8 348.14 183.74 347.1 186.4 345.98 189.94 345.9 194.02 346.56 199.17 348.51 200.32 349.33 202.65 350.04 210.28 353.08 213.57 352.9 218.75 351.19 222.04 350.91 222.04 349.15 222.67 349.15 223.14 347.86 223.1 345.9 223.91 343.64 224.63 342.68 225.27 337.63 225.05 335.95 224.21 333.73 224.36 331.71 224.04 329.45 223.63 328.16 223.81 326.66 223.75 323.1 223.33 320.6 223.6 317.38 224.72 316.05 225.47 314.13 226.32 313.14 225.8 311.59 226.89 307.54 227.39 306.4 228.35 305.11 228.93 302.94 228.92 301.62 229.42 300.29 229.28 297.63 228.51 295.77 228.34 294.4 227.04 292.83 226.88 291.08 225.24 290.12 223.2 288.43 222.85 287.21 222.04 286.17 220.48 285.9 218.96 282.99 218.4 281.58 217.08 280.17 217.12 278.88 214.54 277.47 211.37 274.49 211.81 272.56 211.58 271.86 212.32 269.98 212.3 268.87 210.87 263.83 211.11 260.53 210.09 258.19 209.61 256.38 209.3 252.95 209.18 249.49 208.73 247.47 209.04 245.58 208.27 242.35 208.24 241.29 209.14 236.22 208.28 231.39 208.7 225.95 208.23 215.63 208.12 210.84 207.67 208.1 206.82 205.98 204.8 202.04 203.47 198.74 198.08 197.39 195.28 196.37 192.69 195.24 190.72 193.83 186.69 193.59 184.24 190.13 182.63 189.01 184.81 187.44 185.99 185.18 187.26 184.69 188.5 182.78 188.14 181.32 189.23 178.54 189.1 176.91 190.1 174.5 190.78 171.47 192.06 168.97 192.01 167.23 191.06 164.62 190.54 161.29 190.43 157.13 189.81 154.89 189.71 152.09 190.15 151 190.23 149.38 189.73 144.87 189.9 142.09 189.27 138.83 188.54 136.17 186.07 134.28 186.18 132.84 186.69 131.14 188.12 129.22 188.45 127.3 188.1 125.55 189.07 123.78 190.69 122.33 192.27 119.04 192 116.82 193.55 114.08 194.6 111.75 193.65 109.9 193.45 107.56 194.99 104.12 195.23 102.35 194.86 100.65 193.33 98.96 191.79 96.09 191.5 92.07 190.66 88 190.25 85.35 190.8 83.57 189.74 82.26 189.15 80.22 187.25 78.41 186.92 77.26 188.28 75.33 189.32 72.99 189.89 71.13 189.97 67.75 189.69 66.71 188.54 65.45 188.19 63.94 187.42 62.04 186.85 59.53 185.98 57.25 185.76 54.88 185.02 53.07 185.27 51.78 186.43 49.16 187.73 47.4 188.86 46.61 188.22 44.73 188.25 42.87 188.59 39.29 189.3 37.69 189.54 36.47 191.04 34.88 191.27 30.25 190.66 27.42 191.05 26.27 190.54 24.73 189.64 23.44 190.98 21.7 192.49 20.1 194.01 17.48 196.25 15.51 196.43 14.08 199.33 12 202.15 7.51 202.92 7.16 205.93 8.09 209.15 7.81 211.1 6.35 212.77 5.69 213.61 3.1 217.37 2.41 220.25 2.51 222.23 1 222.54 3.73 221.78 4.89 222.44 6.01 221.67 8.2 220.87 9.81 220.54 12.68 221.76 13.98 221.44 16.78 221.83 21.39 220.63 23.65 220.08 26.64 218.6 28.96 217.55 31.43 216.94 32.28 216.3 34.24 215.9 36.71 216.07 38.75 215.79 40.11 214.83 41.78 215.41 44.12 215.92 45.23 217.24 46.71 216.99 48.06 216.12 49.89 216.49 51.1 217.6 52.78 217.03 53 218.63 55.19 218.42 58.09 218.92 60.53 218.8 61.3 219.76 63.74 220.31 67.55 221.2 69.49 221.56 73.28 222.03 74.84 221.76 75.86 222.45 77.49 223.67 77.74 224.45 79.39 226.01 81.79 228.25 82.8 228.87 83.53 231.26 85.04 234.78 87.94 234.71 88.45 235.82 90.49 240.74 92 242.07 91.87 244.15 93.1 247.46 96.51 247.75 97.73 249.71 99.06 252.87 99.19 253.72 100.24 253.57 101.49 254.04 103.11 257.74 108.17 259.17 110.56 259.77 109.86 262.64 114.5 265 117.15 266.43 118.05 268.06 118.49 269.19 118.42 270.29 117.88 271.85 117.81 272.97 118.49 274.64 120.44 274.75 122.63 274.41 125.6 274.6 127.77 277.6 129.48 277.54 128.67 279.49 130.01 280.93 131.41 284.47 133.82 285.56 134.92 287.55 138.11 289.45 140.05 293.35 142 295.82 144.65 297.08 143.22 297.51 142.13 296.28 140.1 296.13 138.86 297.58 137.75 298.7 136.51 300.48 135.32 300.59 133.65 301 132.66 300.8 131.05 299.8 129.7 299.21 128.26 300.95 127.13 300.58 124.62 300.21 124.62 299.71 122.78 300.43 120.2 299.73 117.49 301.75 115.16 304.31 114.41 305.35 113.69 308.05 114.84 310.1 115.98 310.79 115.27 313.03 115.69 316.34 115.21 316.83 116.79 318.1 117.05 319.75 117.94 321.66 117.4 322.23 116.99 323.91 117.23 324.93 114.41 326.49 112.36 326.21 111.4 327.66 108.62 328.92 106.96 330.02 106.64 330.82 105.61 330.2 103.33 329.55 101.89 329.59 100.62 330.46 99.91 330.96 100.4 332.08 99.14 330.5 98.29 329.57 96.91 331.43 95.24 331.95 94.05 333.11 93.59 333.13 92.04 334.03 91.38 334.2 90.64 335.34 89.91 336.35 89.68 336.8 88.8 338.31 88.72 340.04 87.71 341.41 88.18 343.13 87.31 344.68 87.79 347.5 85.91 348.28 85.62 348.96 83.83 350.24 83.15 351.18 82.07 352.84 81.47 353.22 79.57 354.95 78.47 355.62 78.7 357 78.4 358.79 77.11 361.39 76.01 363.22 74.9 364.02 73.75 367.24 72.83 369.33 72.97 371.55 72.19 372.63 70.56 371.85 68.4 372.6 65.87 373.35 65.18 374.03 63.32 375.62 60.24 376.41 59.32 377.28 57.13 377.37 54.22 378.15 53.14 380.56 51.29 381.88 51.11 384.26 51.63 387.55 50.24 390.01 47.86 390.9 45 391.69 43.96 392.36 41.13 393.09 39.77 394.12 37.02 394.68 36 394.6 34.91 394.06 34.07 391.72 31.65 390.6 29.68 390.68 28.22 391.65 26.27 392.72 25.24 393.66 23.36 395.14 22.33 397.31 23.67 398.97 23.3 401.35 20.48 402.73 18.57 403.75 18.22 405.1 18.49 408.49 20.32 410.38 20.94 413.35 20.8 414.04 20.37 416.49 17.18 418.48 16.9 420.51 17.96 421.44 18.08 423.73 16.58 425.52 16.36 427.94 17.02 429.59 17.15 431 16.6 431.82 15.72 432.8 15.86 433.58 16.6 433.6 20.7 434.75 22.58 437.02 23.05 438.49 23.11 438.49 25.24 439.05 26.79 439.87 26.79 441.11 28.52 441.95 29.2 442.33 31.36 443.7 32.38 445.27 30.86 447.28 31.35 448.82 32.51 451.2 32.65 454.14 31.6 456.1 31.55 459.09 32.6 462.19 33.06 464.47 34.35 465.04 37.38 461.05 45.09 456.72 47.23 453.26 47.12 448.92 51.76 445.02 53.69 443.34 57.86 444.41 63.54 444.11 67.54 441.44 67.54 441.31 68.57 440.6 70.06 440.74 74.51 440.64 76.5 440.06 77.86 439.12 79.12 437.03 79.71 435.32 79.19 434.06 81.92 433.62 85.93 434.01 87.95 435.71 91.95 436.01 93.43 436.79 94.37 437.5 97.75 438.79 98.8 439.39 101.26 438.54 103.66 438.1 106.25 437.22 107.84 435.52 110.26 435.18 114.21 434.66 117.65 433.47 119.06 433.14 119.93 431.47 122.64 430.42 123.41 429.51 126.46 426.84 128.68 424.61 129.85 423.58 131.62 421.73 133.33 420.73 134.98 419.39 135.86 418.92 136.76 417.25 138.42 416.07 140.18 415 142.37 414.08 144.76 413.75 147.01 413.21 148.87 413.04 151.83 413.58 153.14 413.47 154.32 414.71 155.6 416.49 157.01 417.05 157.84 417.3 160.59 416.93 162.24 417.05 164.57 418.1 168.73 418.1 170.87 415.83 179.87 415.98 181.81 417.52 180.27 419.07 179.66 420.35 179.77 420.83 180.42 421.88 180.73 422.36 179.62 424.54 179.09 426.59 179.04 426.83 178.31 428.5 179.62 429.79 181.55 428.97 183.65 429.04 184.65 429.99 185.11 430.67 187.05 432.3 187.69 431.52 190.3 429.89 192.61 430.63 194.21 430.73 196.09 430.25 196.81 430.45 198.39 431.82 198.83 431.85 202.22 431.54 203.5 435.58 204.58 437.87 206.9 439.01 209.7 440.04 208.25 442.17 207.21 443.58 205.36 444 204.13 444.54 203.71 445.6 203.89 445.41 204.69 446.02 205.72 446.79 206.2 448.6 206.62 451.47 206.65 450.49 209.21 452.87 209.59 453.44 210.05 454.42 209.01 456.11 208.22 457.31 208.09 457.71 207.34 459.26 207.16 459.71 207.67 461.26 207.27 463.56 205.04 467.73 205.18 468.43 206.17 470.31 206.83 471.39 206.92 472.05 206.17 474.46 206.9 476.08 205.93 479.31 205.46 480.13 206.26 481.93 205.28 484.19 203.78 484.39 202.47 485.6 200.25 487.08 199.07 486.65 197.28 486.91 196.17 490.01 198.51 491.32 198.26 491.98 198.96 492.76 200.82 492.84 201.7 494.15 203.46 495.46 204.87 496.25 207.9 494.63 209.51 495.71 211.02 496.07 212.74 495.94 213.76 497.03 214.72 496.85 217.05 497.59 217.92 498.31 220.53 497.17 223.2 498.09 224.66 498.46 226.27 497.93 227.5 498.74 228.47 499.38 230.57 500.3 231.79 500.26 232.9 501.13 233.51 502.43 235.32 502.38 236.75 503.02 237.88 503.85 238.19 504.93 240.9 505.95 242.46 506.66 244.16 506.45 245.79 506.97 247.3 506.45 247.8 506.66 251.05 506.58 253.73 508.1 254.75 509.42 254.74 510.15 256.87 512.64 260.02 513.12 259.92 514.75 261.17 515.73 262.36 515.39 263.14 516.44 264.88 517.26 265.02 518.47 264.56 520.86 264.72 522.59 264.19 525.64 265.08 529.51 264.95 531.49 265.44 534.42 265.67 535.98 266.32 538.04 268 539.05 269.63 541.77 272.42 543.8 274.07 550.68 277.04 552.87 278.64 554.34 277.78 556.04 274.18 556.86 271.95 557.11 270.4 556.91 266.54 555.77 261.41 556.05 258.58 557.38 255.45 557.67 253.91 557.91 247.53 559.02 246.03 561.74 244.58 566.17 243.34 571.1 242.33 572.04 241.51 573.43 238.67 574.14 237.73 576.55 236.34 577.68 235.98 579.4 236.28 582.54 237.8 583.37 237.99 585.08 237.03 586.5 235.48 589.49 237.81 590.29 237.89 591.63 237.04 595.17 233.14 595.99 232.7 601.17 231.94 606.43 230.69 609.07 229.46 610.92 230.14 613.85 229.2 617.43 229.88 618.99 228.99 618.9 227.92 619.28 226.31 620.63 225.63 621.61 225.99 623.34 224.33 624.36 224.25 626.38 223.3 628.77 221.03 630.56 219.73 630.62 217.96 631.35 217.59 631.64 215.67 631.45 214.61 631.73 213.43 631.11 212.45 631.36 210.56 632.62 209.6 633.08 208.42 633.97 208.14 635.43 207.12 637.02 204.98 638.02 204.38 640.68 200.98 641.97 199.73 642.13 199.13 643.7 199.01 645.6 197.25 646.84 198.26 648.68 198.82 649.81 199.54 650.7 200.54 652.62 201.61 656.02 201.02 656.24 202.67 657.54 204.56 657.18 206.86 657.44 208.02 658.32 208.82 659.45 209.09 661.27 207.57 662.04 207.38 664.26 207.88 665.84 207.28 666.8 207.66 670.31 208.03 672.48 207.48 674.88 208.13 677.6 209.95 678.51 210.95 680.54 211.31 681.78 209.72 682.67 210.31 685.03 210 686.31 211.54 687.87 211.19 689.05 211.44 689.75 211.01 691.61 210.94 692.75 210.52 694.92 210.24 698.3 211.73 699.7 211.68 701.14 212.48 701.49 213.57 701.01 214.45 701.3 217.34 701.64 218.19 700.84 219.97 701.02 221.51 701.69 222.23 701.63 223.11 702.16 224.71 701.83 225.9 702.44 226.84 703.33 229.5 704.52 229.91 705.03 231.05 705.89 231.31 705.89 240.75 716.77 240.75 718.73 241.96 723.51 243.33 725.77 242.88 730.62 238.84 732.63 238.03 733.56 236.21 734.8 235.51 739.11 231.72 742.07 231.48 744.03 229.8 746.82 226.27 749.47 223.44 750.19 217.39 752.29 215.78 754.56 212.02 757.92 208.45 760.2 206.96 761.58 205.41 Z" id="31270000"/>
</g>
</svg>