<?xml version="1.0"?>
<svg xmlns="http://www.w3.org/2000/svg" version="1.2" baseProfile="tiny" width="800" height="822" viewBox="0 0 800 822" stroke-linecap="round" stroke-linejoin="round">
<g id="sigung">
<path d="M 778.76 194.95 779.45 197.04 780.58 197.63 781.51 199.93 782.12 200.59 782.08 202.27 782.31 204.25 781.34 206.41 780.56 209.45 780.87 211.33 779.37 213.05 778.39 214.7 780.33 217.67 780.96 219.46 780.99 220.96 779.35 224 779.63 224.88 779.29 226.52 780.18 227.67 779.83 228.45 780.76 230.47 781.56 233.78 777.88 236.57 776.43 238.8 777.09 245.28 775.68 248.79 775.52 250.61 775.75 252.32 776.34 253.08 777.73 255.81 777.47 256.43 776.87 259.46 777.45 261.18 777.91 261.65 778.18 264.14 779.87 264.17 780.65 265.03 781.68 265.62 781.45 266.27 781.83 267.66 781.4 268.92 782.23 270.9 782.32 275.25 782.07 275.75 783.21 276.84 784.01 278.06 784.21 279.39 785.75 281.04 786.05 282.23 786.71 282.78 783.91 284.11 783.94 284.87 783.33 286.14 781.44 288.16 781.33 289.15 780.07 289.83 778.48 291.35 777.17 291.81 776.95 292.51 777.69 293.87 779.96 294.5 780.44 295.56 781.39 296.63 781.32 298.44 782.16 299.7 782.14 300.59 783.43 303.04 784.47 307.03 785.26 308.89 785.77 310.86 786.53 312.46 786.91 314.92 785.16 318.06 785.13 318.59 786.16 321.13 787.2 323.24 788.17 326.18 788.66 326.86 789.9 327.2 791.36 327.96 792.02 329.02 791.75 331.01 791.82 332.85 791.34 334.2 792.29 335.41 792.36 337.23 792.86 337.89 793.01 339.1 792.73 340.41 794.52 342.39 794.95 345.13 795.46 346.47 796.82 348.24 798.41 349.76 798.91 351.18 799 353.02 798.61 355.15 798.84 357.39 798.47 359.68 797.54 362.73 797.32 364.85 797.55 367.64 798.4 368.73 798.68 371.32 797.36 371.39 796.44 370.59 795.11 371.34 793.24 371.67 790.66 370.62 787.78 370.44 785.64 369.49 779.61 372.42 778.64 374.46 775.81 375.25 774.6 376.8 773.98 378.58 771.64 379.86 769.53 381.73 766.49 381.59 764.66 381.98 763.41 381.88 761 381.17 760.18 382.03 759.36 383.38 759.37 384.94 758.85 386.57 758.74 388.39 759.67 391.02 759.49 393.24 760.23 394.16 760.23 395.56 759.8 397.38 761.51 399.85 764.96 403.39 765.32 404.94 766.14 405.9 767.39 405.36 769.18 408.78 769.44 411.67 770.6 413.6 770.78 414.59 771.85 416.1 770.42 416.13 768.45 418.15 769.1 419.09 770.96 422.76 771.45 422.92 771.31 424.34 771.99 424.84 774.12 428.96 773.61 430.93 774.68 431.88 776.53 432.69 774.64 434.99 774.33 435.84 774.58 436.84 776.84 437.37 777.66 436.78 779.6 437.4 779.23 438.59 780.37 440.86 780.83 443.32 780.15 443.96 780.7 446.8 782.53 447.49 782.71 448.54 781.87 450.51 780.26 451.65 780.17 452.26 781.09 454.85 780.27 456.13 782 458.22 783.17 459.01 782.76 459.75 780.37 465.16 781.53 467.15 781.52 469.11 780.98 469.51 780.64 471.74 779.29 473.14 779.22 474.25 778.5 475.54 778.84 476.91 777.57 479.25 777.73 479.78 776.53 482.63 775.98 486.24 776.81 486 776.83 488.04 775.43 489.2 769.86 497.42 766.31 503.32 760.58 515.22 759.42 518.04 756.27 527.75 754.12 537.45 754.32 539.84 754.38 545.98 754.49 547.93 755.02 553.69 756.64 557.76 754.4 564.94 754.85 566.57 755.03 571.96 757.1 576.28 759.51 585.99 759 595.69 757.9 598.29 753.53 606.13 752.88 606.16 752.21 607.16 750.08 608.4 749.83 606.38 748.72 605.13 747.38 605.91 747.49 606.57 746.09 608.03 743.75 612.38 742.84 612.91 740.85 612.92 739.53 613.86 737.12 615.95 735.68 615.74 733.56 617.64 732.89 617.83 732.42 618.89 731.07 622.9 729.74 623.58 729.5 626.31 730.25 627.33 729.87 629.57 730.48 630.41 728.83 632.76 728.29 634.52 728.07 636.83 726.78 637.7 726.8 639.21 725.32 640.87 723.71 641.06 723.35 642.45 724.17 643.86 723.35 645.72 724.71 648.62 723.94 650.41 724.49 653.04 724.48 654.82 724.05 656.66 723.19 657.18 721.81 658.78 719.67 659.37 720.35 661.15 719.3 662.62 718.8 664.37 717.58 666.04 715.19 667.54 714.16 673.56 713.81 674.18 713.97 675.53 715.09 676.82 715.17 678.47 714.32 678.68 714.46 681.87 713.68 683.19 713.13 686.56 711.65 688.14 711.64 690.63 711.19 692.48 709.69 693.4 706.35 693.67 703.43 695.15 702.08 694.45 700.64 691.15 697.42 689.92 695.35 689.9 694.12 689.14 692.26 689.14 690.69 690.24 690.07 693.15 688.74 694.64 685.59 696.49 685.55 697.3 686.23 698.15 686.2 698.86 684.88 700.93 684.33 703.71 682.41 704.13 681.99 706.69 680.98 708.17 679.93 708.69 678.33 708.7 678.09 709.59 676.78 711.08 677.71 712.8 676.54 714.13 676.49 715.81 675.24 717.66 675.28 720.62 674.19 721.88 673.2 724.01 672.54 724.48 670.73 724.05 669.05 724.7 669.12 725.68 668.76 727.04 665.03 733.28 664.48 736 665.14 737.23 664.93 739.88 665.07 741.85 664.94 747.13 664 750.39 664.47 751.28 665.24 751.76 665.12 753.85 664.11 754.57 663.85 756.2 663.41 756.97 663.97 759.88 661.35 763.22 660.24 765.52 658.22 767.96 656.92 769.07 656.07 770.71 654.38 771.46 651.54 773.58 648.67 774.19 646.75 774.89 644.55 777.28 643.54 780.69 643.06 783.79 644.18 788.81 642.89 790.7 642.23 792.5 643.03 795.31 643.33 798.2 643.1 801.63 643.29 804.17 645.36 806.41 643.91 807.48 641.59 810.01 639.67 811.56 638.2 813.2 634.56 814.73 632.7 817.18 630.59 819.67 628.5 820.11 626.72 821 625.67 820.68 624.14 819.59 623.24 819.58 621.24 818.79 618.85 818.13 618.02 817.29 617.34 817.42 616.42 818.59 613.43 819.48 611.39 818.4 608.76 817.81 607.65 817.02 606.41 816.56 605.1 816.77 604.46 817.41 602.58 817.65 601.88 817.35 600.7 817.91 598.4 817.47 597.72 817.01 593.99 818.22 593.2 817.45 590.92 818.42 589.26 817.31 586.15 813.42 584.63 811.95 583.18 811.27 581.78 809.47 578.2 810.05 576.85 809.36 574.13 810.24 571.64 809.73 570.08 808.75 568.7 808.32 568.54 806.25 565.51 805.06 564.85 803.8 563.39 802.83 563.02 801.85 562.07 801.94 559.77 801.64 559.12 801.01 559.59 797.28 560.91 796.67 561.32 795.64 560.91 795 558.72 793.55 557.48 792.13 557.19 791.23 555.69 790.41 553.44 788.25 552.21 786.54 549.67 788.32 547.34 787.78 547.4 787.19 545.53 783.5 544.85 782.68 543.55 781.79 542.93 779.71 540.98 779.6 540.13 778.3 539.29 778.12 536.47 778.96 534.91 778.23 533.36 776.84 531.77 776.38 530.49 776.66 528.78 778.23 527.34 778.08 526.09 777.08 525.01 775.44 523.78 773.98 522.58 773.11 520.42 773.43 519.37 773.88 516.94 773.22 516.12 773.62 515.01 772.97 513.68 773.61 511.81 772.85 510.98 773.53 510.11 771.95 508.67 771.1 506.62 770.57 505.4 770.94 504.71 770.51 503.57 770.46 503.19 769.26 502.05 768.73 500.2 767.39 500.8 765.82 502.02 763.59 502.81 760.67 503.72 758.94 504.38 756.62 508.66 751 510.18 749.3 508.95 746.59 506.88 745.01 506.01 743.98 504.78 740.53 502.21 739.69 501.79 739.3 499.87 738.73 499.3 739.38 498.36 739.64 496.69 738.46 495.79 739.11 494.47 741.15 492.2 742.41 490.82 743.53 488.87 743.03 487.87 744.55 487.17 745.12 484.95 744.3 484.45 745.88 483.23 746.47 481.09 747.88 481 748.94 481.31 750.09 480.34 751.46 479.73 750.65 478.48 749.88 478.84 748.85 477.79 747 477.89 746.37 475.12 746.49 473.56 745.89 471.65 744.17 471.83 743.41 470.87 740.86 470.7 739.79 469.1 738.73 468.79 736.4 469.39 733.22 469.88 729.47 468.86 726.3 468.21 725.81 466.13 723.37 465.32 721.7 466.27 720.9 465.75 719.64 466.44 718.87 464.83 717.88 463.44 715.79 461.11 715.2 460.6 714.48 459.83 714.27 457.26 714.07 456.7 713.39 456.14 710.34 455.06 709.73 454.64 708.74 451.42 706.87 450.06 706.59 449.54 704.26 448.34 703.52 447.35 702.5 448.1 701.74 446.4 700.39 445.96 699.1 444.29 696.16 444.22 694.05 442.7 693.45 441.73 691.99 440.02 692.47 438.07 693.35 437.05 692.81 436.69 691.33 435.4 687.99 435.23 686.65 435.48 685 434.72 683.5 434.31 681.24 434.43 679.56 434.24 678.72 432.61 678.5 430.26 677.11 429.23 674.67 428.41 675.22 427.39 675.34 425.21 676.46 423.9 675.17 423.22 675.41 422.72 676.3 421.65 677.03 421.27 677.92 420.23 678.7 417.19 678.13 416.49 679.49 415.68 679.82 415.13 680.95 413.39 681.17 411.85 682.4 410.13 681.63 407.34 682.11 406.46 681.8 405.66 682.26 404.52 682.06 403.5 682.45 401.61 682.09 399.11 681.99 396.42 681.38 395.89 680.7 395.01 680.39 394.62 679.49 393.7 679.19 392.43 678.22 391.79 676.35 391 676.24 389.27 676.97 387.58 676.97 386.73 678.88 385.54 680.17 384.51 680.38 383.96 681.23 382.17 682.27 382.4 683.54 382.05 684.22 380.33 685.49 380.32 686.56 379.32 689.38 380.01 691.68 382.44 693.67 383.53 694.93 383.9 697.25 384.46 697.92 384.04 700.88 384.51 701.62 384.18 703.62 386.68 704.35 386.82 705.65 388.58 706.35 389.56 708.26 390.46 708.95 390.56 710.85 390.9 711.55 389.69 712.67 389.4 714.56 387.38 715.53 386.14 715.77 384.98 717.01 384.69 717.86 383.62 718.47 382.27 721.11 381.66 721 379.84 722.53 379.77 724.34 378.05 725.52 376.24 727.3 375.97 728.07 374.37 726.83 373.8 724.08 373.08 722.12 372.79 722.12 372.52 719.77 371.9 718.62 368.02 713.73 366.95 712.18 364.3 710.52 362.08 708.51 361.7 706.82 360.69 705.75 358.15 706.2 356.67 705.74 354.42 704.15 354.24 702.47 352.58 700.72 351.72 700.11 350.44 699.7 349.4 700.39 348.79 701.98 348.56 705.21 347.88 708.27 346.85 709.17 346.08 709.1 345 710.54 344.29 711.07 343.44 711.02 343 711.6 341.47 711.91 340.57 711.48 340.38 712.45 337.04 714.41 335.07 714.45 334.26 714.1 333.09 714.61 332.13 714.41 331.05 715.07 329.73 715.21 328.56 715.85 327.46 717.28 327.29 717.95 326.12 718.56 325.56 719.7 324.84 719.93 324 718.45 323.65 716.8 323.05 715.21 321.11 715.85 318.56 716.47 315.81 716.74 314.33 717.45 312.85 716.72 312.19 715.99 310.7 715.32 310.17 714.41 307.86 714.2 305.25 716.23 302.99 719.04 302.1 719.6 300.96 719.15 299.63 719.09 297.55 719.44 297.09 720.25 295 720.02 293.89 719.29 291.08 720.47 290.18 720.32 288.16 721.39 285.43 721.09 283.19 721.31 281.02 719.46 281.4 716.1 280.97 714.39 280.02 712.59 277.23 710.26 276.96 709.16 276.13 709.84 274.75 709.54 273.37 707.86 273.03 705 274.31 702.61 273.16 701.01 272.35 700.46 270.66 700.32 270 698.25 268.49 697.4 267.01 697.25 266.08 696.34 265.09 696.7 263.17 696.82 261.55 696.07 260.45 696.19 260.04 695.73 260.86 694.56 260.28 692.42 260.48 690.72 261.06 689.58 262.24 688.61 262.67 686.53 263.36 685.19 265.26 684.22 265.62 682.81 265.37 681.67 266.4 679.57 267.28 678.4 269.32 676.95 269.97 675.18 271.28 673.52 273.13 670.71 274.88 669.33 276.02 667.24 278.47 664.81 278.95 663.53 278.83 662.43 279.42 660.98 280.43 660.42 281.67 658.79 283.28 656.15 284.82 654.66 285.61 654.23 289.08 653.63 289.73 651.49 289 649.6 290.26 648.41 289.99 647.03 288.5 644.39 288.7 643.01 287.57 641.25 287.22 638.71 288.69 638.21 289.15 637.46 289.08 636.08 288.69 634.38 290.8 633.56 290.56 631.03 290.02 629.26 289.32 628.27 290.55 626.36 289.84 624.88 289.17 622.88 288.47 621.5 287.74 618.32 287.15 617.35 287.15 613.74 286.78 611.32 285.91 609.33 286.47 608.57 286.77 606.38 286.17 605.34 286.4 601 285.01 601.01 284.14 599.86 283.1 599.52 282.35 598.66 282.25 597.03 281.72 595.91 283.42 594.83 283.81 593.03 283.81 590.99 284.33 589.4 284.15 587.99 282.86 586.14 282.9 583.83 282.21 582.38 282.08 580.92 282.55 579.71 282.23 577.31 280.21 575.81 280.12 575.17 280.64 573.73 280.45 573.21 279.08 574.08 278.52 573.95 278.87 569.22 279.28 567.9 280.38 566.82 282.42 565.62 284.02 563.6 283.2 563.09 280.85 563.74 279.97 563.01 278.98 562.67 277.57 562.7 278.34 559.67 278.18 556.97 278.57 552.44 278.01 551.41 277.62 549.94 277.88 549.04 277.45 547.77 277.52 543.75 277.16 542.31 277.35 540.81 281.02 539.6 283.2 537.19 284.41 535.61 286.14 532.72 288.08 532.32 289.39 532.41 290.43 531.49 293.19 530.78 293.83 529.18 294.3 528.74 296.37 528.58 297.65 527.85 298.3 527 299.71 526.47 301.22 522.22 301.97 521.78 302.31 520.38 300.44 518.24 299.04 515.72 298.48 515.32 298.66 514.45 299.62 513.41 300.05 512.2 302.03 510.95 302.07 509.71 302.55 507.32 303.99 505.69 301.44 505.06 299.08 504.12 298.59 503.24 297.62 500.37 297.14 499.8 296.16 499.58 296.03 498.95 295.09 498.07 294.25 496.5 293.62 496.42 292.62 494.12 292.06 493.63 291.31 490.67 291.09 488.43 291.36 486.73 291.36 483.35 291.53 482.52 291.09 480.34 290.74 477.53 290.13 475.57 290.05 473.88 289.24 471.5 288.25 469.96 287.72 468.59 287.06 467.79 286.69 466 286.87 464.7 286.46 463.16 285.68 461.14 285.77 459.42 285.12 456.43 284.64 453.36 284.87 450.8 283.93 448.62 285.38 446.57 286.21 445.02 286.53 442.33 286.4 439.81 287.57 436.7 287.65 434.82 288.48 432.88 288.64 431.14 289.63 429.1 290.72 427.9 290.97 426.59 290.72 424.1 291.09 423.25 291.04 421.01 292.12 419.1 293.14 416.74 295.54 414.56 295.69 413.84 294.9 410.91 295.19 409.18 295 408.48 295.45 407.13 297.71 407.36 300.54 407.1 301.95 405.23 303.71 403.23 304.14 401.57 304.64 400.96 305.72 400.75 306.6 399.37 306.99 398.26 308.33 397.34 309.49 397.27 310.47 396.5 311.26 394.87 312.64 394.22 313.21 393.24 313.14 392.08 313.82 389.63 313.82 388.64 314.89 387.49 315.51 385.13 316.41 383.96 317.3 381.2 318.35 378.39 318.79 376.77 319.49 375.96 320.9 375.09 321.1 373.39 320.1 369.39 320.2 364.9 320.83 361.79 320.85 360.92 320.38 357.55 319.27 354.01 320.61 352.28 320.44 350.01 320.08 348.74 317.34 345.47 313.16 343.47 311.41 343.11 310.44 343.19 309.04 342.85 306.62 342.88 304.85 342.19 302.05 341.83 299.33 342.35 297.76 342.11 296.35 341.34 293.33 340.87 292.03 340.14 290.84 339.07 289.79 338.85 287.91 336.8 285.8 335.83 285.14 336 284.02 335.15 282.6 335.54 281.89 334.3 281.72 332.81 280.01 330.5 279.68 329.22 279.14 328.74 280.6 328.04 281.18 327.26 281.42 323.91 281.16 322.72 277.98 318.99 277.01 317.51 275.14 315.73 274.99 312.97 275.77 310.44 277.35 310.1 279.92 307.9 281.04 306.27 281.16 304.5 280.4 304.5 278.9 300.37 278.16 299.34 276.9 298.58 275.77 298.41 271.47 298.99 268.34 299.11 266.84 299.36 265.84 298.77 263.63 295.25 263.54 294.62 262.35 292.96 261.54 290.65 260.4 288.84 259.36 286.72 255.99 283.94 255.34 283.1 255.14 280.89 254.32 278.02 252.92 275.96 250.78 273.78 248.21 273.68 243.38 274.68 241.53 274.58 238.79 275.43 232.95 276.69 226.83 276.58 224.77 276.3 220.66 271.59 219.95 270.23 218.91 269.38 216.78 268.19 214.39 267.61 212.62 267.73 211.48 267.23 209.47 267.21 207.23 268.47 205.32 268.02 201.41 265.67 200.46 264.62 198.49 264.41 197.57 262.25 196.1 259.49 195.89 258.61 196.16 257.33 195.87 255.97 194.63 255.02 194 251.98 192.48 250.53 192.05 249.47 190.18 247.49 189.09 245.75 189.19 244.78 186.94 243.05 186.18 243.34 183.55 242.88 181.22 241.31 180.21 238.66 179.97 236.75 178.75 235.68 177 233.18 174.73 231.88 174.26 231.02 173.78 228.91 172.72 228.43 171.63 226.81 170.55 226.19 169.14 226.59 167.01 225.11 164.83 222.41 162.52 221.35 161.37 219.84 161.3 218.26 162.16 216.54 159.95 215.86 157.82 214.4 157.07 213.44 155.82 214.45 153.11 214.98 151.21 217.14 149.98 219.52 148.93 219.29 145.06 221.97 143.12 222.72 141.94 221.99 140.78 220.9 138.89 221.48 136.53 222.77 134.88 222.96 129.78 228.5 129.05 228.13 127.09 229.91 126.19 229.59 124.56 230.61 121.71 233.89 119.4 234.17 118.64 235.17 116.94 235.71 115.18 237.42 112.25 238.29 110.2 238.21 107.78 235.95 107.92 235.17 104.34 232.24 102.69 230.28 102.34 228.47 100.57 226.08 99.46 224.15 96.89 222.72 99.1 219.54 100.44 218.45 101.51 217.09 102.75 216.75 104.06 215.56 103.84 213.5 104.06 208.77 102.36 208.6 100.56 209.86 100.03 209.38 99.83 208.24 100.17 205.83 100.03 203.19 100.8 200.91 100.97 199.04 100 196.66 99.47 194.84 99.27 191.64 99.47 188.63 99.03 187.71 99.2 186.52 100.73 184.11 100.49 183.1 100.39 181.01 100.59 178.9 99.95 177.3 99.35 177.1 99.25 175.65 98.69 175.11 99.66 172.59 100.08 169.26 101.6 167.73 102.36 166.52 103.86 164.87 105.2 164.17 105.51 163.17 102.5 161.3 102.07 159.51 101.9 156.55 101.34 156.01 100.66 154.31 101.58 152.52 101.07 150.38 101.14 149.27 99.52 147.35 99.37 146.5 98.25 146.06 98.21 145 96.17 144.58 94.13 145.48 92.4 145.63 91.43 144.8 87.69 145.58 86.65 145.29 85.46 146.06 84.51 145.75 83.74 146.6 82.38 145.72 81.6 145.6 81.28 146.48 80.31 146.77 79.32 146.26 77.91 146.06 76.33 144.71 75.09 145.12 72.98 144.51 70.8 143.66 68.68 143.52 68.78 144.71 66.86 145.53 65.72 144.97 63.76 145.34 62.37 147.01 60.48 147.45 59.04 148.66 57.56 149.12 56.47 148.49 55.52 149.12 54.29 149.12 51.57 148.3 50.18 146.79 48.68 146.19 47.66 143.54 47.29 141.87 45.96 142.06 44.96 140.14 44.11 139.25 42.83 136.43 41.59 134.83 40.88 133.25 37.61 128.52 36.81 127.79 36.47 123.84 34.69 121.9 34.09 118.3 34.21 116.8 32.85 116.02 32.02 113.62 31.22 109.71 31.78 107.46 32.53 105.71 32.22 104.79 32.82 103.23 32.58 101.85 31.27 99.16 31.12 97.48 30.78 96.46 29.72 95.57 29.64 94.11 28.96 92.97 26.66 90.62 25.32 90.64 23.57 88.99 20.81 87.99 17.87 86.42 17.48 85.52 16.34 85.3 13.69 83.46 11.43 80.93 10.32 79.31 8.52 78.07 5.32 75.3 3.64 73.48 2.45 72.63 1 68.67 2.15 66.4 4.04 63.53 6.64 61.08 7.54 58.73 7.44 56.45 6.59 54.7 5.35 53.28 7.47 52.22 8.03 50.62 8.5 50.3 8.3 48.78 8.46 47.62 8.98 47.11 9.62 44.68 10.43 43.92 10.37 43.08 11.34 42.61 13.34 38.99 15.51 36.53 16.89 34.3 18.87 33.55 19.95 32.49 19.75 30.88 20.2 29.72 21.42 29.42 22.91 27.61 24.25 27.24 25.62 26.33 26.3 26.32 28.85 25.32 31.86 25.77 33.9 25.21 34.92 24.5 36.86 24.43 37.14 22.94 38.4 21 40.32 19.89 41.42 18.48 41.72 17.28 42.88 16.37 44.57 13.98 45.51 13.35 45.72 12.34 46.67 11.19 47.49 9.69 49.04 8.97 50.3 7.32 51.45 6.59 53.56 4.53 55.71 6.03 57.21 6.71 58.13 7.42 59.42 9.09 61.01 9.4 62.51 9.39 63.79 10.91 66.39 12.46 69.45 13.31 70.97 13.52 75.47 13.37 76.69 13.74 79.28 16.17 80.98 17.98 86.68 17.11 88.28 17.95 91.94 18.57 93.66 17.91 95.9 18.24 98.18 20.1 100.23 20.32 102.15 21.29 103.79 21.8 105.01 22.74 106.92 22.44 108.41 23.09 109.71 25.85 110.88 26.25 111.79 26.03 114.85 28.28 117.19 30.71 118.65 30.83 119.45 31.19 121.46 32.66 123.92 33.86 124.87 34 126.8 33.81 128.21 34.39 128.92 35.08 130.73 35.09 133.29 36.25 135.51 36.33 137.37 36.93 139.26 37.94 141.51 38.25 143.03 37.59 144.61 37.53 145.44 36.97 148.63 38.83 150.71 39.15 152.48 40.35 152.32 42.18 152.69 43.18 153.88 44.78 154.04 45.91 157.24 47.49 159.67 49.45 162.12 50.21 163.67 49.94 166.51 48.86 167.79 47.97 171.6 46.95 175.53 46.18 176.25 45.49 177.98 42.42 178.65 39.95 180.73 36.41 181.28 31.62 182.39 29.4 183.8 27.75 186.33 25.29 188.92 22.94 189.82 21.93 191.67 20.63 193.83 19.73 197.04 19.48 200.47 19.88 205.41 21 207.65 22.29 209.73 22.57 212.05 23.19 212.91 23 215.07 20.53 216.25 18.5 216.92 15.79 218.79 13.3 221.5 12.2 224.01 11.94 225.34 11.46 227.93 9.9 230.02 5.56 231.44 3.7 234.11 1 235.67 2.24 239.34 4.63 244.17 7.15 247.79 8.4 250.77 9.09 253.62 9.48 257.7 10.54 260.55 11.51 263.62 13.3 273.81 21.23 279.41 26.98 282.82 31.53 285.42 36.26 287.02 39.85 289.08 45.61 290.33 48.78 291.21 52.12 292.83 55.46 293.92 58.78 294.5 61.08 296.82 68.86 297.49 71.54 298.52 78 304.87 78.11 309.12 78.73 309.73 79.36 310.67 79.51 312.23 82.23 312.9 82.85 314.31 82 318.74 81.75 321.31 80.84 322.18 78.46 323.38 78.16 327.5 78.6 328.57 78.61 329.22 77.69 329.81 75.68 329.32 74.35 329.74 73.52 329.86 71.85 330.61 70.85 332.72 70.5 334.58 70.81 336.29 70.43 337.01 68.83 337.03 66.16 340.76 64.22 342.03 64.77 345.16 65.2 345.83 66.04 346.95 66.57 349.29 68.15 351.12 67.84 352.99 68.05 354.8 66.97 356.04 68.37 355.75 69.23 356 70.15 357.02 71.07 358 71.53 358.63 72.91 358.61 73.81 359.14 74.2 360.13 78.84 360.92 79.03 362.7 77.15 363.93 76.97 364.59 75.89 366.98 74.66 366.81 73.45 368.87 72.83 370.32 73.07 371.68 72.5 372.59 73.7 372.75 74.83 374.24 77.48 377.37 74.81 380.68 73.63 381.92 73.55 382.19 71.8 383.06 71.5 384.94 70.27 386.19 70.87 387.7 70.11 389.06 68.25 389.69 67.93 390.6 66.15 394.86 64.67 395.51 63.85 397.16 64.54 398.16 63.32 399.83 65.54 399.83 68.51 400.68 69.52 400.66 70.61 401.35 71.53 402.04 71.08 403.49 70.75 404.57 69.46 405.44 69.52 405.35 68.16 404.86 67.1 405.32 65.89 406.02 65.39 406.86 65.48 407.72 64.53 408.92 64.23 409.64 62.1 409.09 60.46 409.14 59.12 408.37 57.73 408.15 55.99 406.92 54.93 406.77 53.65 407.24 51.99 408.99 52.19 409.76 49.89 410.98 49.06 413.2 49.26 413.91 48.9 415.41 48.94 417.46 52.12 418.4 52.84 421.35 54.3 421.48 53.28 422.29 52.92 425.79 53.06 428.41 52.62 430.63 51.92 431.94 52.19 434.92 51.59 436.06 51.76 436.65 52.28 437.43 51.98 438.34 53.44 438.48 55.03 439.97 54.76 440.51 55.26 443.34 55.51 443.63 56.29 445.32 56.94 446.27 58.61 447.59 59.01 451.27 57.88 452.28 58.3 452.87 59.13 453.9 58.98 454.36 60.26 454.22 61.63 453.56 62.75 454.76 63.38 455.89 64.71 457.38 64.99 458.23 66.55 460.61 66.69 461.28 66.93 462.46 66.42 463.49 67.06 464.01 66.75 464.97 69.47 466.96 68.07 468.1 69.65 468.95 69.78 471.5 70.67 472.47 71.23 473.35 72.63 474.05 74.34 475.12 75.07 475.45 75.7 475.33 77.93 476.17 79.99 476.97 80.7 477.66 82.68 478.79 83.51 480.56 82.09 482.96 81.31 483.65 81.5 484.54 80.92 486.1 78.72 486.21 77.69 487.92 76.29 488.99 75.65 491.09 73.27 491.52 71.74 492.94 72.36 495.05 72.67 495.67 72.04 497.73 72.42 499.06 73.41 500.83 73.03 502.41 73.08 503.24 71.9 505.55 72.23 507.45 71.85 510.69 71.95 511.68 73.95 512.52 74.84 513.21 74.94 514.64 77.32 514.53 78.26 517.31 79.98 518.84 81.13 520.54 81.71 521.23 83.96 524.24 85.56 525.57 86.87 525.59 89.78 527.85 92.32 529.74 93.57 531.53 94.01 533.44 95.21 535.25 95.25 536.7 94.98 537.76 93.73 539.47 92.58 540.91 92.15 541.09 91.22 544.89 88.1 545.97 87.69 547.34 86.56 548.48 84.41 549.26 83.62 549.25 82.91 548.59 79.57 549.98 77.13 550.54 76.79 550.52 75.27 551.11 74.4 551.41 72.9 552.24 72.99 553.7 71.9 554.37 70.46 555.82 68.84 557.02 66.91 558.14 64.69 558.5 63.54 559.94 62.51 561.96 63.6 564.57 65.29 565.93 65.23 569.81 66.21 570.45 66.99 572.34 67.41 574.12 68.76 575.85 69.08 576.34 69.54 576.95 71.47 578.28 72.45 579.58 73.71 580.01 75.13 580.77 76.38 582.58 74.91 584.42 74.45 586.85 74.41 593.24 75.38 596.98 73.74 598.53 72.82 601.75 73.93 603.15 72.74 604.58 72.54 606.66 74.07 607.02 73.25 608.41 71.22 610.64 70.14 611.79 69.83 612.32 69.1 613.28 68.84 614.59 69.52 617.13 70.25 618.67 71.2 619.5 73.42 620.2 74.01 621.58 74.24 623.7 75.63 623.29 77.64 622.74 81.3 621.63 82.46 621.4 83.85 620.86 91.29 617.26 91.03 617.16 94.2 616.77 96.59 615.98 98.85 616.51 98.88 615.52 112.26 616.48 112.31 621.08 110.37 621.63 110.42 622.47 109.21 623.51 106.19 625.03 104.29 628.29 103.38 630.27 103.63 631.58 104.38 632.1 103.19 633.27 102.65 635 102.3 635.56 101.1 636.83 100.31 637.12 99.69 639.11 99.12 639.87 98.38 640.24 97.46 641.75 96.48 643 95.15 643.63 93.99 645.26 92.28 645.13 90.46 646.72 88.32 647.39 86.96 649.76 86.64 651.73 87.96 653.75 86 655.49 86.03 656.77 85.54 657.84 84.18 659.98 83.5 660.26 82.61 662.65 80.84 664.45 80.69 666.16 79.38 667.1 79.34 667.69 80.1 668.87 80.65 670.81 85.06 671 86.47 672.27 86.86 672.61 88.22 672.65 89.94 673.37 90.71 674.43 90.18 677.45 91.96 677.73 93.04 679.18 93.19 680.16 93.8 679.95 97.35 680.68 98.82 682.44 101.34 680.9 103.01 680.95 105.13 682.01 106.92 681.77 108.48 680.78 109.59 680.77 111.27 678.98 111.59 677.69 113.13 674 115.73 670.83 118.16 670.17 120.8 668.88 121.2 668.34 120.84 666.8 121.45 663.74 124.27 663.21 124.03 661.98 125.21 661.31 125.29 659.22 128.44 658.82 130.08 658.11 131.66 658.1 134.81 657.68 135.44 657.81 136.97 656.82 138.5 656.82 140.08 657.58 141.2 658.42 144.31 658.85 144.84 658.84 146.14 657.55 148.45 658.28 149.65 658.04 151.95 657.13 156.96 657 159.05 655.41 160.04 652.22 161.66 651.26 162 650.67 163.11 651.35 164.22 651.89 167.16 653.05 167.56 652.89 169.25 654.08 172.06 653.96 173.78 653.67 174.21 653.81 176.03 653.14 177.1 653.88 178.65 655.19 180.02 655.98 180.11 657.94 181.47 660.69 182.3 661.85 183.66 663.16 184.22 665.7 186.78 666.35 188.28 670.09 185.12 670.68 183.52 671.62 182.27 672.43 181.91 675.86 183.58 677.57 184.27 678.55 184.3 679.99 185.91 681.65 186.11 685.71 187.59 686.6 186.2 687.97 185.36 689.43 183.93 690.48 184.07 691.66 183.72 693.15 184.27 694.52 183.08 697.06 183.06 700.18 182.26 701.56 183.5 702.43 183.44 705.2 181.78 706.05 181.43 706.87 179.67 708.45 178.99 708.74 178.19 711.81 176.94 711.55 173.6 714.62 170.73 717.01 172.01 718.33 171.91 719.48 171.19 720.53 172.95 721.99 174.16 723.35 174.6 723.78 175.86 725.36 176.25 726.58 177.46 728.1 178.06 729.1 179.29 732.47 181.26 733.95 183.33 734.51 183.36 735.89 181.79 737.79 182.9 738.8 183 740.8 186.47 741.73 186.43 743.11 187.8 744.52 187.76 748.9 190.26 750.09 189.78 751.04 189.92 754.12 189.22 756.73 190.01 757.79 189.85 759.05 188.8 762.93 188.61 764.27 191.22 766.18 191.19 767.7 192.16 768.54 192.17 772.65 195.13 775.3 194.88 777.43 194.01 778.76 194.95 Z" id="31280000"/>
</g>
</svg>