<?xml version="1.0"?>
<svg xmlns="http://www.w3.org/2000/svg" version="1.2" baseProfile="tiny" width="800" height="1384" viewBox="0 0 800 1384" stroke-linecap="round" stroke-linejoin="round">
<g id="sigung">
<path d="M 621.15 145.73 621.94 147.75 622.44 147.6 624.32 155.45 627.17 163.77 629.89 172.71 630.4 179.8 632.19 187.35 633.96 189.89 635.63 193.63 635.15 200.35 636.92 203.54 637.36 205.2 638.13 209.82 635.89 215.53 632.47 217.28 631.55 221.87 631.77 235.47 633.89 240.23 638.81 243.87 646.31 244.83 652.49 246.69 659.23 249.08 660.53 250.89 663.97 253.27 667.29 254 671.97 254.3 678.74 252.95 683.18 252.4 686.13 251.63 693.47 250.63 700.54 251.45 702.13 252.45 705.35 253.48 705.45 254.64 708.41 258.02 711.78 258.74 717.14 257.23 720.18 257.66 724.04 256.91 726.36 257.56 732.54 261.21 736.72 262.65 738.92 265.18 741.28 267.37 744 268.92 747.06 269.8 752.95 270.35 759.91 271.7 760.76 273.33 764.56 276.1 765.35 282.39 765.12 285.58 763.13 295.98 764.9 301.06 767.71 306.35 779.66 310.36 780.69 311.51 782.28 314.14 786.77 317.43 788.16 317.78 789.28 321.39 788.06 325.58 788.93 328.25 790.8 331.14 792.09 334.64 793.54 341.33 795.86 345.28 796.3 350.11 797.31 352.88 792.62 359.42 790.44 360.44 787.04 365.08 787.3 371.34 787.31 374.09 788.12 375.74 791.34 377.86 791.52 381.31 793.83 389.45 795.35 392.01 797.62 400 797.93 401.51 798.41 406.07 798.57 410.21 797.49 413.76 799 415.96 798.8 417.01 796.01 420.68 795.07 425.73 793.67 428.79 793.14 430.47 792.9 434.31 790.75 437.73 787.43 439.46 785.58 442.4 784.46 447.76 783.17 450.52 783.42 451.93 781.42 453.6 780.69 453.63 779.25 457.2 779.42 459.18 777.09 464.21 777.93 467.03 777.23 470.31 777.68 473.36 778.49 474.13 779.83 477.17 780.28 480.72 781.07 481.87 780.48 485.75 778.81 486.78 778.2 487.83 777.39 490 775.71 493.48 776.19 494.61 775.26 495.56 774.9 498.45 774.1 500.34 773.8 502.15 770.63 504.01 768.93 506.34 768.83 507.84 767.82 508.79 764.21 508.77 761.84 508.35 759.73 507.31 758.21 507.33 756.29 507 755.1 505.5 753.42 505.1 750.68 505.05 749.36 504.3 747.3 503.69 744.02 504.07 742.26 504.02 739 504.64 735.92 504.07 732.25 502.88 729.97 504.16 725.35 503.03 724.2 503.99 722.79 504.43 721.57 506.32 720.3 506.47 718.69 507.7 718.01 507.5 716.24 508.82 714.93 508.04 714.37 508.87 710.02 509.7 707.97 511.93 706.89 512.54 705.68 512.75 705.46 513.84 704.57 514.52 702.49 514.53 701.3 516.98 701.57 517.96 700.37 519.92 699.37 520.74 697.21 521.53 696.37 523.8 696.37 524.49 693.75 525.91 691.67 526.46 691.4 527.6 691.82 529.38 690.44 529.16 688.93 530.11 688.54 533.23 687.18 534.7 686.17 537.73 685.23 541.98 684.1 543.91 684.11 544.81 682.85 546.66 683.93 548.73 684.08 550.6 685.06 552.45 681.94 554.12 680.11 555.82 678.32 555.93 678.3 557.42 677.6 558.61 677.5 560.07 677.01 560.49 676.9 562.13 671.61 560.89 669.6 560.63 666.13 560.54 663.68 561.06 661.64 562.75 660.62 562.99 658.86 565.54 657.58 566.61 655.89 567.62 654.79 567.94 653.11 569.3 651.6 569.72 650.99 571.35 649.45 572.78 646.94 573.68 647.74 577.15 646.64 582.28 646.89 585.34 646.04 589.22 637.3 588.54 631.12 589.05 625.05 589.3 617.25 593.76 606.81 602.08 600 609.11 595.2 618.54 591.38 628.74 589.57 638.12 589.25 650.71 589.17 651.57 591.59 657.69 596.55 661.23 606.23 665.07 612.92 672.44 616.84 682.75 618.55 693.05 608.87 703.54 600.57 715.33 594.52 724.22 586.11 734.63 581.06 745.1 584.41 755.44 592.29 765.77 599.08 771.57 603.63 776.12 610.55 786.5 619.68 796.79 627.37 807.24 632.41 817.79 636.78 828.05 636.59 838.29 633.36 848.77 630.3 853.91 620.14 864.1 612.08 871.48 599.11 880.23 586.09 888.37 572.88 895.7 566.35 900.53 560.01 906.81 557.74 911.04 550.7 921.48 549.32 931.7 548.61 942.25 550.77 952.48 556.4 963.01 561.81 966.57 565.36 961.05 573.52 953.03 583.74 942.38 591.01 935.34 596.73 934.18 602.26 935.41 607.03 942.24 612.09 948.3 620.02 952.41 626.51 955.33 631.85 954.13 638.26 948.99 647.25 942.33 651.66 931.84 657.4 928.26 663.92 926.98 669.21 928.04 671.5 928.8 671.08 930.38 671.58 934.29 670.46 936.86 670.27 939.32 671.69 940.69 671.5 941.41 672.11 942.91 671.24 944.42 674.73 947.1 674.98 949.73 676.11 953.27 675.64 955.86 674.58 958.06 674.37 962.26 671.9 962.86 671.25 963.4 671.05 964.43 669.85 965.78 670.21 967 667.48 971.06 667.99 973.92 668.67 975.61 669.48 975.92 668.85 978.33 669.3 979.72 668.73 980.61 668.13 983.43 668.23 985.46 669.24 987.22 668.39 988.67 668.06 990.05 668.45 991.11 668.49 992.42 668.95 993.72 668.59 994.28 667 995.39 666.65 996.23 665.61 997.13 663.07 997.95 662.5 998.6 662.55 1002.04 663.26 1003.9 664.33 1005.24 664.32 1006.29 662.22 1008.82 662 1009.91 661.35 1010.86 661.45 1013.41 660.72 1015.22 660.77 1017.04 659.22 1020.48 658.92 1024.72 657.76 1025.33 656.79 1026.98 656.4 1030.34 655.4 1031.46 656.16 1033.49 655.8 1034.35 654.64 1035.13 654.16 1036.66 653.42 1037.76 652.91 1039.48 653.19 1041.19 652.18 1043.68 651.46 1044.81 651.51 1046.61 651 1048.55 651.05 1051.28 651.38 1052.48 651.48 1055.63 650.77 1057.52 652.2 1062.25 651.12 1067.22 651.48 1071.99 651.51 1073.86 651.27 1075.02 651.53 1076.75 650.43 1078.09 650.32 1080.66 649.32 1082.02 648.69 1083.6 648.96 1084.5 649 1088.46 648.83 1089.65 649.22 1090.5 648.9 1091.39 649.42 1092.24 649.39 1093.79 648.08 1095.29 648.23 1097.4 647.67 1101.64 648.98 1106.74 650.47 1108.78 652.45 1110.32 653.8 1111.64 653.78 1113.7 654.05 1115.62 655.14 1117.13 656.41 1122 655.98 1122.45 652.87 1123.98 653.06 1125.01 652.52 1126.06 650.18 1127.23 649.7 1128.21 648.46 1129.15 645.38 1129.69 644.72 1130.12 643.68 1131.75 642.93 1132.44 641.37 1132.65 640.38 1135.13 640.46 1136.21 639.4 1137.66 639.23 1138.85 638.24 1140.94 638.19 1142.62 637.48 1143.89 637.57 1145.26 637.18 1146.41 636.5 1146.87 636.06 1150.33 633.35 1150.87 631.37 1152.53 629.74 1152.21 627.7 1152.78 626.49 1153.35 624.45 1153.14 623.36 1153.68 620.88 1152.97 618.73 1153.74 617.31 1153.42 617.1 1156.37 617.63 1157.66 617.71 1159.02 617.3 1160.38 617.05 1163.01 616.42 1163.62 616.91 1166.24 616.93 1167.62 617.46 1169.77 619.59 1173.06 620.61 1175.1 620.87 1176.24 622.68 1179.94 624.43 1179.86 626.01 1181.24 626.55 1182.79 628.72 1183.21 631.04 1184.76 633.5 1185.49 635.34 1188.81 635.98 1190.28 637.8 1191.06 642.95 1191.34 643.89 1191.68 644.02 1195.11 644.73 1195.19 644.63 1196.59 645.17 1197 645.31 1199.11 646.26 1199.86 646.45 1203.62 647.4 1204.21 651.44 1205.74 652.23 1205.63 653.58 1206.34 654.22 1207.42 656.16 1208.02 656.71 1207.61 658.06 1209.28 659.25 1208.64 660.24 1208.68 661.56 1210.8 662.61 1212.09 665.34 1212.8 665.8 1213.53 666.74 1213.82 669.1 1215.71 670.22 1215.59 670.5 1216.68 672.05 1217.04 673.06 1219.14 673.83 1219.99 672.33 1221.76 673.23 1223.71 673.48 1224.86 672.73 1226.36 672.58 1228.35 673.25 1232.06 672.83 1233.24 674.23 1234.26 675.61 1234.35 676.31 1235.16 677.53 1235.61 677.61 1236.56 678.21 1237.25 678.7 1238.8 680.02 1239.43 681.27 1240.71 683.05 1241.74 685.55 1242.21 688.11 1245.74 689.04 1248.45 689.44 1248.5 690.58 1252.05 690.69 1254.02 694.96 1258.55 697.5 1259.78 697.57 1263.61 696.49 1268.55 697.03 1271.64 695.64 1274.69 694.67 1275.75 690.73 1275.95 689.37 1275.71 688.03 1277.76 687.95 1278.66 686.17 1281.97 683.73 1283.18 681.41 1284.68 680.71 1285.57 679.98 1285.77 679.76 1287.21 680.11 1288.88 679.79 1291.7 680.26 1292.35 680.44 1294.11 679.95 1295.29 679.86 1297.1 680.62 1299.67 680.36 1301 678.77 1301.6 678.11 1304.73 677.67 1305.53 677.45 1307.67 676.31 1309.16 675.21 1310.08 675.14 1311.07 673.95 1313.12 672.53 1314.67 672.45 1315.87 672.9 1317.56 673.32 1321.36 673.54 1322.13 675.18 1323.52 675.87 1328.7 677.19 1331.86 677.29 1333.59 677.67 1334.57 676.92 1338.45 675.57 1341.55 674.8 1344.56 674.01 1346.65 671.73 1345.63 668.28 1344.98 665.34 1344.08 662.55 1343.54 660.89 1342.45 658.95 1337.55 652.48 1339.22 649.14 1339.73 646.55 1341.08 644.19 1340.4 641.72 1341.08 640.05 1341.86 634.99 1343.07 629.12 1342.74 627.07 1342.39 625.92 1343.34 624.69 1343.02 624.1 1344.45 621.76 1342.32 620.92 1341.26 619.12 1340.29 616.57 1340.64 613.35 1339.85 612.35 1340.45 612.04 1341.27 610.15 1340.18 608.6 1339.04 607.55 1340.01 606.02 1340.59 604.23 1340.89 602.47 1340.55 600.47 1339.27 600.03 1338.26 596.76 1338.9 595.22 1338.1 593.39 1338.27 592.8 1337.83 588.81 1338.88 586.82 1338.81 583.77 1340.44 582.96 1340.7 580.32 1342.76 580.59 1343.25 580.99 1346.24 580.55 1346.95 578.36 1348.2 576.88 1349.32 575.9 1350.54 574.65 1352.6 576.36 1352.91 575.49 1354.41 572.72 1357.13 570.21 1360.23 569.19 1360.47 568.33 1361.85 567.27 1361.99 566.51 1363.27 565.03 1364.58 564.08 1365.09 562.43 1367.29 560.38 1367.32 554.83 1366.7 552.72 1367.85 551.79 1371 549.59 1371.96 547.23 1372.75 544.99 1373.09 543.14 1375.5 541.19 1376.76 538.7 1376.88 536.53 1378.58 533.48 1379.62 531.38 1382.69 530.22 1383 526.67 1381.45 525.53 1380.52 521.73 1379.27 520.44 1378.51 515.92 1376.86 515.24 1376.87 512.05 1375.69 510.78 1373.32 510.03 1372.6 507.37 1371.99 505.62 1372.27 503.82 1371.42 503.05 1371.77 501.66 1371.64 500.08 1371.84 498.85 1372.61 496.99 1371.58 494.82 1370.97 493.77 1371.09 491.35 1369.91 489.5 1368.43 487.29 1367.7 486.76 1367.16 484.75 1367.07 483.38 1366.6 480.72 1366.55 479.59 1367.15 478.27 1366 474.56 1364.79 474.32 1363.29 472.32 1361.19 471.88 1360.17 470.5 1359.66 468.95 1357.78 468.52 1355.04 468.51 1353.67 468.07 1351.8 468.92 1348.53 468.73 1346.84 468.03 1346.25 467.78 1344.18 467.17 1343.35 467.25 1342.6 466.45 1337.43 466.84 1335.89 468.17 1334.27 469.12 1332.66 468.69 1331.18 468.75 1329.49 467.95 1325.32 466.99 1321.84 467.92 1320.19 469.1 1317.57 470.46 1313.76 471.49 1313.27 471.68 1312.11 472.39 1310.49 471.45 1308.41 471.37 1307.61 471.98 1305.18 472.98 1304.11 472.44 1301.88 472.62 1300.35 473.12 1299.76 473.1 1298.37 472.74 1297.59 472.84 1295.57 472.34 1294.52 472.54 1292.45 473.28 1290.89 473.09 1289.22 474.09 1286.69 473.88 1284.13 474.24 1281.39 474.79 1279.88 474.75 1277.15 472.36 1274.58 471.75 1273.46 472.08 1272.8 472.5 1270.41 472.31 1269.26 470.36 1267.54 470.65 1265.73 471.11 1264.97 471.68 1262.29 471.1 1260.24 471.87 1257.39 474.11 1255.49 473.51 1254.58 472.07 1253.82 472.72 1251.55 472.11 1250.44 471.62 1248.16 471.61 1246.72 470.41 1245.35 470.96 1243.53 470.57 1242.24 470.82 1241.06 470.03 1238.58 469.7 1236.91 468.37 1234.35 466.87 1234.14 466.74 1232.23 465.26 1231.13 464.01 1228.73 462.28 1228.97 459.64 1228.47 458.02 1228.5 455.91 1227.97 452.71 1227.69 450.01 1228.06 449.75 1226.96 448.41 1225.65 448.03 1224.71 447.4 1221.7 446.65 1221.39 444.4 1219.23 441.71 1217.41 440.07 1214.49 439.44 1211.14 438.75 1209.84 438.03 1207.01 437.32 1205.6 436.1 1204.95 435.16 1203.55 436.15 1200.97 436.31 1199.02 435.78 1197.05 433.04 1193.05 431.22 1190.69 433.38 1188.34 434.92 1186.19 433.57 1183.94 433.05 1182.56 430.95 1181.14 427.95 1181.72 425.44 1181.48 421.77 1182.34 418.61 1181.86 416.34 1179.61 412.35 1178.08 407.82 1174.46 399.59 1173.63 398.87 1170.85 401.24 1169.47 400.89 1166.13 398.72 1165.14 397.12 1163.85 393.95 1162.06 391.69 1157.22 391.79 1154.47 392.76 1151.66 391.2 1151.17 390 1149.91 390.12 1148.84 388.36 1147.28 386.48 1145.9 388.32 1143.62 390.11 1142.08 390.46 1140.5 392.37 1138.84 394.83 1134.42 396.14 1134.41 397.25 1132.48 397.94 1132.14 398.06 1131.04 399.92 1129.98 401.55 1128.76 397.99 1123.49 397.73 1122.05 396.43 1121.33 393.64 1118.87 391.05 1117.04 389.27 1116.45 388.8 1115.29 383.68 1110.18 383.36 1109.97 380.94 1105.32 379.7 1104.38 377.76 1104.57 376.77 1102.9 375.6 1101.84 375.04 1100.33 372.17 1100.13 370.91 1096.81 369.89 1099.06 368.21 1100.82 367.62 1103.73 366.45 1104.88 366.18 1106.86 364.97 1109.93 364.01 1111.86 363.02 1112.04 362.35 1113.12 359.12 1114.19 357.76 1116.59 356.31 1117.43 354.74 1117.46 353.4 1118.53 349.57 1118.36 348.38 1118.7 345.6 1118.25 343.01 1118.62 341.71 1119.56 338.65 1122.95 338.01 1124.69 335.82 1125.44 333.04 1127.33 330.76 1127.53 328.46 1127.2 326.85 1127.44 323.41 1129.25 323.26 1131.01 322.61 1132.9 320.02 1134.69 316.49 1135.79 315.71 1135.82 313.89 1138.52 313.35 1139.02 310.84 1140.25 309.33 1140.76 309.43 1142.34 308.07 1144.31 307.11 1146.26 306.28 1148.55 306.21 1152.13 305.75 1153.01 304.47 1154.16 302.4 1153.25 301.22 1153.52 299.77 1154.3 298.49 1153.71 296.46 1154.17 293.77 1153.99 291.06 1155.31 286.65 1155.84 285.54 1155.77 283.47 1155.22 282.78 1154.25 279.53 1152.57 277.56 1152.34 276.39 1152.72 275.08 1154.63 273.08 1155.51 268.01 1154.21 265.67 1154.74 262.42 1153.06 260.78 1152.44 259.83 1153.69 256.88 1153.8 256.53 1154.66 255.05 1156.44 251.2 1158.66 248.22 1160.62 248.21 1161.29 246.42 1162.4 246 1163.74 244.63 1164.61 241.59 1163.98 240.94 1163.96 243.34 1160.14 247.34 1149.76 250.81 1142.13 251.59 1137.12 252.73 1128.25 254.11 1118.91 254.89 1112.89 255.92 1107.44 257.71 1099.09 258.21 1097.53 259.76 1087.8 262.12 1080.74 262.9 1078.64 258.98 1078.61 255.9 1083.28 254.89 1085.18 252.99 1084.4 251.25 1081.7 250.53 1080.12 249.36 1080.4 247.93 1077.42 246.87 1076.67 246.92 1075.79 246.17 1074.51 246.61 1074.05 247.05 1071.79 246.9 1071.01 247.7 1068 247.34 1066.73 248.37 1066.73 247.59 1064.78 246.06 1063.33 242.02 1060.11 238.33 1057.34 237.45 1056.35 236.05 1056.3 232.99 1053.68 232.08 1052.61 229.64 1048.62 228.94 1044.78 229.59 1043.04 230.42 1042.52 233.79 1041.02 234.49 1040.86 237.58 1040.94 239.63 1039.95 240.98 1038.99 241.78 1037.38 242.3 1035.59 241.03 1034.63 237.68 1033.34 230.84 1032.61 222.95 1032.07 220.02 1031.44 214.6 1029.81 211.59 1029 211.56 1026.85 211.79 1026.02 210.99 1023.79 211.51 1022.85 211.59 1020.67 212.37 1019.38 211.72 1015.56 209.93 1014.01 209.07 1011.96 207.07 1009.72 205.78 1008.61 204.95 1006.59 203.67 1005.5 203.31 1004.46 201.86 1003.6 201.29 1002.75 199.68 1001.47 199.37 1000.85 200.48 999.81 199.68 998.49 199.91 997.58 201.37 996.47 201.78 994.13 202.82 993.74 203.26 992.37 203.6 989.33 203.54 987.38 201.96 984.4 201.99 983.78 200.38 981.99 199.96 979.73 199.94 978.1 200.33 976.56 200.2 974.18 200.85 972.98 201.52 970.91 201.52 968.44 201.86 965.9 202.64 964.19 201.6 962.76 200.87 960.17 200.87 957.78 201.91 953.78 201.68 953.03 202.3 951.19 202.38 948.85 204.06 946.13 203.93 945.3 202.04 944.08 197.91 942.44 196.12 940.5 194.77 939.69 191.48 937.2 186.76 936.04 183.75 934.32 179.24 933.26 176.85 931.34 175.19 929.37 175.68 925.45 176.2 923.4 176.43 921.43 176.98 919.38 175.53 915.64 175.68 913.9 174.82 911.7 174.77 909.47 174.18 905.13 173.58 903.21 171.06 901.06 169.27 900.67 168.03 900.02 167.56 896.1 166.83 895.84 166.37 893.38 165.43 892.81 164.37 892.86 162.42 892.39 159.26 890.24 157.37 886.79 156.48 882.09 155 879.08 153.16 876.77 152.57 872.8 151.19 869.35 151.61 867.09 154.49 861.75 151.24 859.26 149.61 856.4 148.91 856.04 146.96 853.76 144.96 849.63 143.95 848.65 142.89 847.06 142.79 844.68 141.95 843.38 141.25 841.59 139.78 840.58 137.23 839.98 134.79 837.07 132.49 836.56 131.84 835.98 130.83 833.18 129.94 833 128.65 831.65 128.49 830.28 127.01 828.05 124.08 826.25 124.31 825.27 123.51 823.27 122.06 822.57 120.11 820.24 116.01 818.47 114.77 817.54 114.61 816.32 113.76 815.25 112.82 815.02 111.39 815.51 110.15 815.46 106.88 816.65 102.73 817.49 102.16 818.47 100.03 816.68 98.86 815.31 96.06 812.74 94.25 812.48 91.96 810.92 90.9 809.55 88.54 807.76 87.58 804.38 86.52 802.18 86.1 802.33 82.6 802.2 79.43 801.16 78.71 801.71 76.4 800.91 75.96 799.66 74.19 799.43 70.72 799.35 66.15 798.41 64.91 797.64 63.71 797.4 61.66 795.38 60.42 795.98 59.25 795.66 56.71 796.34 56.01 797.64 53.93 798.39 53.21 797.84 51.55 798.62 50.92 797.95 50.04 798.62 47.55 798.23 45.71 798.86 43.19 798.88 41.22 798.1 38.91 798.6 36.76 798.7 36.24 798.26 33.23 797.66 31.49 798.05 30.64 799.32 29.91 799.04 28.09 799.22 27.08 799.95 25.91 799.56 24.57 798.03 22.93 798.34 19.87 799.43 17.59 801.01 16.11 801.48 13.26 795.56 11.15 793.77 10.51 792.58 9.6 791.98 7.44 789.72 5.91 786.87 4.69 785.7 2.75 784.92 2.19 785.02 1 784.04 4.18 779.23 2.97 777.03 3.31 775.11 3.53 771.09 5.06 767.81 6.91 767.3 8.93 765.35 10.67 762.74 12.27 759.03 13.81 756.97 14.94 754.93 13.54 754.07 13.43 753 11.39 750.78 10.66 748.48 10.67 747.51 10.17 746.26 10.51 745.66 9.58 744.17 10.23 741.55 11.99 739.66 12.21 737.19 14.34 735.8 15.23 733.93 16.3 732.59 17.95 731.61 18.59 729.32 19.54 727.4 20.03 725.59 19.74 723.94 21.1 723.14 22.61 719.87 22.4 718.97 22.87 717.79 25.11 716.16 25.06 715.65 27.28 712.49 27.33 710.44 26.57 708.74 25.76 708.18 23.46 707.36 23.36 704.92 23.65 703.9 24.7 702.45 24.52 700.63 25.98 697.83 24.93 695.78 26.81 693.64 26.84 692.91 25.89 691.93 25.98 690.97 26.67 688.77 27.48 687.99 27.92 685.61 27.29 684.99 27.37 682.82 27.01 681.41 29.06 678.94 28.31 675.56 26.65 672.65 25.96 670.88 26.04 668.55 24.88 666.78 24.2 666.45 23.15 664.41 24.08 662.52 23.81 662.03 24.18 657.55 23.54 655.52 21.9 654.55 20.58 654.26 19.14 653.24 18.09 650.65 17.41 650.29 17.09 648.28 17.54 647.31 17.37 646.42 18.21 644.02 18.11 642.16 17.46 640.82 17.76 639.96 16.99 638.34 19.21 635.35 20.16 634.86 20.88 633.38 20.85 631.82 21.2 629.82 20.83 628.53 21.15 627.68 20.61 626.7 20.89 625.54 20.83 623.19 22.28 621.79 22.02 621.24 23.26 620.06 22.95 618.88 24.13 617.87 24.18 616.96 24.98 616.14 25.69 614.31 25.83 612.37 27.45 612.14 27.95 611.21 27.73 610.14 28.06 608.16 27.6 607.28 27.56 605.16 27.98 604.27 29.36 603.43 30.6 603.59 31.75 603.36 32.25 601.49 32.51 599.11 34.04 597.11 36.85 595.28 37.22 594.47 37.03 593.44 39.09 594.42 40.25 593.24 41.03 591.76 42.18 590.7 43.23 588.98 44.04 588.18 45.28 587.63 43.88 586.34 43.54 585.36 42.4 584.42 40.48 584.14 39.24 582.53 39 581.22 39.27 580.27 37.31 579.23 35.98 577.05 35.69 575.72 34.58 574.28 32.47 572.34 31.14 570.02 31.43 568.98 31.18 565.59 32.25 565.16 32.6 564.41 34.06 562.99 33.99 561.88 34.37 560.26 35.01 559.2 35.26 557.45 37.25 557.42 37.65 556.16 37.73 554.75 38.42 554.82 40.02 553.61 40.15 552.31 41.19 549.99 42.36 548.13 42.36 545.99 41.13 545.46 41.61 544.23 43.29 542.87 43.61 542.01 43.33 539.97 42.93 538.73 43.38 537.31 44.04 537.1 45.3 534.07 45.13 532.82 45.35 531.55 46.47 530.37 47.47 527.6 48.11 526.72 48 525.22 48.64 524.45 50.6 523.33 51.85 521.37 51.94 519.8 53.18 518.83 54.95 516.58 55.98 514.79 55.83 513.83 56.62 512.16 56.6 510.38 57.28 508.77 57.76 509.15 58.53 511.63 60.94 515.45 61.61 515.95 61.78 517.07 62.55 518.29 62.08 520.67 62.44 523.5 65.99 525.26 66.25 527.54 68.32 527.58 70.21 528.05 71.76 527.9 72.21 529.26 73.13 529.49 75.92 529.26 76.74 528.78 78.17 528.71 79.28 529.45 83.92 528.05 86.81 527.81 88.7 528.22 89.73 528.17 93.78 529.66 94.21 529.51 96.75 530.23 97.82 531.36 98.25 532.99 99.32 534.28 100.83 535.41 104.89 536.36 105.08 535.3 104.39 534.01 104.47 532.84 105.87 531.47 106.43 530.27 107.99 530.18 110.36 531.02 111.82 530.56 113.57 529.02 114.04 528.14 115.27 527.31 116.44 525.22 116.75 523.89 117.48 522.88 118.26 520.92 120.89 519.24 125.32 519.82 127.11 520.36 128.01 520.13 128.79 517.83 130.03 516.3 130.5 513.2 129.91 511.98 130.13 509.57 129.95 507.97 130.18 506.81 130.82 505.88 132.14 504.91 132.99 503.71 132.78 501.08 130.18 500.21 128.03 499.04 127.73 495.78 127.09 492.9 127.67 490.76 127.41 487.32 127.07 485.52 127.06 484.06 126.54 481.52 127.9 478.98 126.8 474.26 127.78 472.88 128.56 472.39 128.58 468.57 130.84 467 132.14 465.55 133.25 465.37 135.34 463.74 136.41 462.3 136.38 461.77 137.86 460.4 138.25 458.82 139.34 457.95 140.55 454.86 139.4 452.83 139.15 451.34 138.27 450.62 138.38 450 137.92 447.91 135.97 446.48 135.86 445.52 136.72 443.65 136.4 442.17 136.84 440.32 137.4 439.35 137.11 437.05 137.67 435.75 136.62 434.73 135.78 430.8 136.44 429.49 136.36 428.13 137.33 425.96 137.72 424.57 139.25 422.35 139.9 421.08 139.13 420.27 139.37 419.13 140.17 419.13 141.11 418.28 142.78 417.91 143.27 416.04 142.76 413.3 142.89 410.77 140.49 408.99 139.53 407.2 139.43 406.04 136.9 405.12 136.13 404.32 137.71 402.09 138.58 400.21 139.36 399.11 140.05 397.34 140.16 396.29 141.22 394 142.16 393.49 143.57 390.61 142.94 387.3 142.4 386.57 142.2 384.08 140.88 382.51 140.64 381.46 141.47 379.78 140.85 378.73 140.34 376.8 140.67 374.45 142.7 372.17 143.39 370.21 143.77 369.87 143.85 367.65 143.58 366.08 144.23 363.97 146.73 362.5 149.85 363.02 151.27 363.87 151.53 364.58 152.42 364.76 153.89 366.16 154.99 366.35 156.35 367.66 156.53 368.42 157.78 368.69 159.26 370.51 160.17 371.03 162.7 371.04 163.67 370.55 164.72 369.46 165.46 369.73 168.08 367.29 169.47 366.95 171.38 365.9 173.47 364.46 175.53 362.26 176.36 362.21 177.7 361.41 178.69 361.45 179.62 362.32 179.85 363.78 180.83 364.81 182.09 365.15 182.95 364.71 183.68 365.75 185.25 366.67 185.53 368.8 185.3 370.86 186.54 371.42 186.59 371.97 188.52 375.28 189.7 376.06 191.06 376.16 192.27 376.72 194.46 376.24 197 375.18 197.88 374.5 199.48 376.07 200.97 376.56 203.02 376.33 204.28 376.58 204.12 375.09 211.39 369.12 216 365.46 217.04 364.33 225.19 361.75 225.83 359.7 225.28 358.27 225.84 356.9 225.35 355.62 225.55 354.1 226.51 353.66 228.07 353.69 230.4 352.12 233.76 350.4 235.53 347.77 236.2 346.37 236.91 345.67 237.88 343.72 239.26 342.11 239.44 340.67 240.33 339.23 241.54 337.93 242.09 336.27 243.14 335.14 243.29 334.37 244.1 333.97 245.42 332.67 246.33 331.27 249.09 329.49 252.72 325.91 255.06 326.04 256.06 325.55 260.48 321.03 263.73 315.02 263.99 314.08 265.98 313.18 267.56 312.97 267.97 312.52 267.36 310.68 268.1 309.81 268.69 307.97 268.23 305.56 269.32 302.62 269.32 301.94 267.14 298.7 264.57 295.3 263.69 295.22 263.81 293.71 261.8 292.32 259.31 291.69 257.67 291.89 256.31 292.45 255.12 292.53 254.61 291.49 254.56 290.39 252.96 288.87 252.13 286.74 251.39 286.15 249.77 284.01 250.63 281.53 251.92 279.97 252.99 276.94 254.91 274.44 255.86 272.45 256.09 269.55 255.67 267.43 253.65 266.67 251.71 265.49 251.59 264.02 250.22 262.22 249.77 259.74 250.64 257.06 250.02 255.49 250.25 254.06 250.83 252.57 251.96 250.91 253.18 249.54 253.04 247.85 254.37 246.93 255.04 245.9 256.67 245.45 257.34 244.69 257.79 242.94 260.94 238.92 260.93 238.33 262.31 236.81 262.53 235.9 261.92 232.65 262.03 229.95 262.37 228.76 264.09 226.37 264.68 223.72 267.54 221.13 268.18 219.82 267.14 215.24 266.73 210.92 266.76 207.15 266.59 205.5 267.51 203.31 268.75 201.27 268.14 200.01 270.12 197.71 271.68 196.39 274.38 195.34 277.6 198.03 279.3 198.44 279.98 196.74 281.2 195.56 282.27 193.72 282.88 191.93 283.91 191.19 287.19 189.48 288.92 189.29 289.99 188.19 291.71 185.15 292.84 184.03 295.18 182.42 297.09 181.52 298.88 180.17 300.51 179.97 302.68 179.23 305.11 177.99 308.4 175.97 310.18 175.98 312.6 176.61 314.49 176.76 314.98 175.29 317.59 171.83 318.77 169.2 319.43 167.29 319.43 165.96 321.64 162.6 322.79 160.17 325.46 158 327.32 157.87 328.65 157.34 329.97 156.05 331.71 155.13 332.32 150.84 333.51 149.19 334.2 146.43 335.22 145.44 336.23 143.22 336.49 141.82 335.74 136.84 335.77 134.06 335.4 132.64 335.96 130.74 336.06 128.73 337.84 126.42 339.28 125.05 339.43 124.08 340.96 120.72 341 118.67 341.26 117.59 342.22 116.5 345.02 114.4 344.37 113.15 344.44 110.19 343.87 109.18 344.37 106.45 345.48 104.21 346.26 101.52 347.41 98.53 349.89 97.25 351.44 93.3 352.75 93.01 354.32 91.88 355.7 90.4 356.42 88.34 357.63 86.26 360.48 82.69 359.74 79.54 360.67 77.97 361.74 76.77 362.98 74.56 363.94 69.67 363.26 68.82 362.84 66.33 361.68 64.67 361.5 63.54 359.64 62.24 358.52 60.89 357.05 59.76 358.44 55.56 358.2 52.39 359.26 51.53 363.47 51.52 366.38 50.46 368.08 48.77 371.22 47.95 373.74 46.68 375.8 44.89 379.15 41.74 383.24 38.13 384.1 36.53 384.41 34.86 386.6 33.1 390.27 29.78 391.56 25.17 393.33 22.6 394.9 22.57 395.67 20.58 396.87 19.2 396.15 17.42 398.49 15.58 399.92 12.27 400.81 11.16 403.88 8.34 405.17 4.42 407.09 1 411.92 3 414.62 6.57 416.68 8.42 421.09 9.91 422.32 12.53 421.89 21.78 419.8 28.71 418.16 38.76 420.51 46.5 420.15 48.77 422.07 51.22 423.28 54.35 423.68 59.72 428.22 64.26 430.47 71.44 427.96 75.8 429.29 78.1 429.63 83.88 431.22 88.15 431.58 90.77 431.73 95.23 433.28 99.44 436.95 103.24 438.58 106.34 440.27 107.18 442.48 111.31 445.73 114.57 448.97 115.03 451.15 117.24 456.98 120.82 461.03 122.77 463.21 125.4 465.39 129.63 467.13 130.12 470.9 130.01 473.7 129.74 477.83 130.01 484.06 129.74 488.1 130.14 491.38 132.45 496.72 133.96 501.87 133.45 506.65 133.52 510.33 134.21 514.51 135.66 521.83 137.05 524.31 137.21 525.85 144.2 528.17 145.27 531.5 146.45 539.26 153.72 550.56 143.99 558.48 147.12 564.89 145.66 568.79 145.84 572.95 145.06 577.18 144.71 583.54 143.11 589.81 143.66 597.12 142.75 601.11 140.61 614.41 145.51 621.15 145.73 Z" id="31570000"/>
</g>
</svg>