<?xml version="1.0"?>
<svg xmlns="http://www.w3.org/2000/svg" version="1.2" baseProfile="tiny" width="800" height="561" viewBox="0 0 800 561" stroke-linecap="round" stroke-linejoin="round">
<g id="sigung">
<path d="M 373.12 78.24 374.22 75.75 375.53 75.34 376.87 74.4 377.61 73.5 377.78 72.96 378.82 72.27 379.38 71.36 380.08 70.66 380.83 69.57 382.1 69.53 382.99 69.88 384.59 70.02 385.67 70.63 386.97 71.56 388.24 71.08 389.97 71.17 390.75 71.65 391.6 71.16 393.3 70.66 394.17 69.5 395.36 69.67 395.61 69.12 396.54 68.64 397.37 69.18 398.04 69.13 399.12 69.69 400.3 70.07 401.46 70.05 402.4 69.77 403.07 69.09 404.32 68.98 405.23 68.07 406.33 67.49 407.56 66.52 408.45 64.9 408.43 63.58 408.16 61.49 408.07 59.78 408.34 58.62 408.06 56.5 409.45 54.97 409.86 53.66 410.4 52.47 411.07 52.24 412.03 51.44 413.09 51.5 414.69 51.06 415.44 51.19 416.42 50.79 419.17 50.06 420.17 49.96 420.55 48.74 422.62 47.28 424.33 47.3 425.53 46.45 426.27 46.67 426.9 46.04 427.63 45.87 428.42 44.37 430.2 44.16 430.87 43.86 431.28 43.01 431.85 42.29 433.05 42.04 434.03 39.55 434.52 39.17 435.14 37.76 435.08 36.97 435.73 36.08 435.77 35.22 437.46 35.93 438.96 36.1 439.85 35.78 440.81 36.34 442.27 36.52 443.45 37.69 445.85 38.22 446.19 39.24 446.07 39.59 447.32 42.38 448.49 42.75 449.29 43.45 449.71 44.33 451.34 45.15 451.42 46.09 452.21 45.99 453.88 44.86 455.4 43.43 456.12 43.45 457.35 44.05 459.02 45.28 459.24 45.59 460.32 48.87 460.48 50.09 460.91 50.64 461.72 50.99 463.3 51.11 464.15 50.96 464.71 51.15 464.98 52.42 464.33 53.92 464 55.02 463.82 56.26 464.06 56.88 464.89 57.17 466.92 53.62 467.85 52.43 468.83 51.54 470.01 50.81 471.52 50.63 473.3 51.62 474.2 52.71 475.11 54.58 476.21 55.89 478.11 57.48 479.44 57.7 481.41 56.41 481.81 56.25 482.9 56.37 483.26 56.73 483.2 57.65 482.37 60.13 482.11 62.03 482.3 63.73 482.9 64.45 483.95 64.79 484.71 64.78 485.98 63.89 487.65 63.89 488.18 64.09 489.88 65.4 490.03 66.55 489.58 67.44 489.37 68.42 489.69 69.15 490.76 69.82 492.87 70.16 494.52 70.07 498.04 69.17 499.02 69.34 500.58 69.17 501.87 69.57 502.08 70.27 502.08 71.98 501.79 73.53 502.39 75.86 502.46 76.47 504.32 79.94 504.73 81.16 505.19 83.23 505.65 84.5 506.19 85.43 508.21 87.36 509.53 88.11 511.42 88.8 514.01 88.86 515.94 88.67 517.32 88.29 519.88 86.96 521.52 85.99 523.62 84.98 525.53 85.12 526.77 85.94 527.61 87.53 527.77 88.36 527.96 90.76 527.9 91.53 528.12 92.5 529.25 94.42 530.13 94.83 530.99 95.68 532.26 98.01 534.52 99.4 535.79 99.93 537.97 101.69 538.7 102.84 539.48 103.47 540.97 103.96 542.14 104.66 542.69 105.92 543.77 107.22 544.89 108.01 545.97 108.36 547.29 109.4 549.89 112.39 551.57 113.11 552.8 113.43 555.71 114.53 555.61 115.59 556.99 116.49 557.85 117.27 558.27 117.25 559.5 117.95 560.01 119.84 560.63 121.38 561.65 121.95 562.8 121.6 563.32 121.87 564.29 121.94 564.74 122.35 565.04 123.43 566.39 124.32 566.85 125.24 567.93 125.89 568.01 127.2 570.91 127.82 571.92 127.32 573.43 127.9 574.66 128.15 575.17 130.01 576.02 131.34 576.05 131.92 577.58 133.29 578.47 133.67 579.36 135.16 580.29 135.2 580.75 136.08 581.56 136.75 580.91 137.7 581.1 138.26 579.05 139.35 579.26 140.03 577.75 141.29 577.98 142.98 576.61 144.69 577.75 145.49 577.75 146.46 579.09 147.04 579.59 147.96 581.47 148.78 582.98 148.99 583.61 149.74 584.38 149.57 585.54 149.9 586.84 150.6 587.94 150.94 589.77 150.96 589.99 151.79 590.66 152.87 591.14 153.97 592.08 154.74 593.28 154.47 594.4 153.41 597.51 152.6 599.75 150.77 600.53 149.78 601.64 150.75 602.89 150.91 603.81 151.48 605.52 150.86 605.83 150.48 608.07 149.13 609.61 148.86 611.7 147.22 612.39 147.49 612.96 147.15 614.43 146.66 615.37 147.6 616.19 147.46 617.31 147.67 618.03 148.47 619.89 149.52 620.37 149.06 621.17 149.12 621.59 148.53 622.66 148.73 623.83 148.51 624.42 148.99 625.65 149.32 626.72 149.98 627.16 150.53 627.59 150.37 628.02 150.93 628.79 150.49 630.93 150.92 631.61 150.83 633.2 151.09 634.12 150.85 635.82 151.17 637.67 152.16 638.42 153.01 639.95 152.61 640.18 152.03 641.56 151.39 643.75 151.77 645.13 151.26 646.22 151.5 648 150.12 648.1 149.59 649.43 148.52 650.35 147.64 652.02 146.69 653.32 146.24 656.05 146.49 658.58 144.18 659.68 144.04 659.99 143.64 661.35 144.59 661.6 145.76 662.52 146.93 662.38 147.28 662.96 148.37 664.38 148.69 664.71 149.81 664.77 150.94 665.13 152.19 665.77 153.32 667.06 153.21 668.59 152.93 669.82 152.03 670.62 151.83 671.98 153.38 673.83 154.11 674.06 154.5 675.55 155.01 675.77 155.96 677.44 158.63 678.33 159.21 678.47 160.88 679.57 160.92 679.97 161.54 682 162.34 682.13 162.57 683.69 162.06 685.71 162.15 686.53 162.76 687.26 162.98 688.3 163.91 689.38 163.69 690.53 164.17 691.62 165.13 692.5 165.62 693.87 165.44 695.23 165.46 695.93 165.99 697.1 165.75 698.37 166.57 699.44 166.68 703.13 168.5 704.6 168.83 704.83 169.08 705.85 168.84 706.51 168.36 707.35 168.25 708.55 167.84 709.86 167.58 709.87 167.17 710.59 166.31 711.58 165.45 713.09 164.39 713.16 163.29 713.84 162.72 714.43 161.82 714.86 159.66 714.87 158.78 716.7 156.64 717.18 155.71 717.62 155.87 718.91 155.76 720.13 156.35 720.69 157.23 721.66 157.71 722.06 157.51 722.94 158 723.74 158.1 725.13 159.46 727.63 160.27 727.51 161.12 729.19 162.7 728.79 163.6 732.14 166.31 733.71 166.63 733.97 166.95 733.89 168.09 734.13 169.16 734.95 174.49 736.09 176.27 737.05 176.25 738.64 176.55 739.15 176.94 739.8 176.61 741.18 176.81 741.95 177.41 742.05 178.38 742.56 178.84 742.7 179.58 743.16 180.68 742.98 181.65 743.19 182.9 744.4 184.01 744.08 185.43 744.7 186.03 745.17 185.96 746.45 186.58 746.62 187.61 747.13 188.22 747.02 188.62 747.77 189.25 747.35 189.72 747.81 190.7 748.48 190.64 748.75 191.12 748.54 192.03 748.2 192.49 748.23 193.71 748.75 194.55 750.16 195.24 751.11 195.47 751.6 195 752.4 195.01 753.42 195.54 753.74 196.98 754.43 196.89 754.86 196.27 755.87 196.19 756.41 196.76 757.2 196.74 758.31 196.97 758.97 196.73 759.42 195.87 760.28 196.11 761.54 196.14 762.39 196.38 762.81 197.58 762.97 198.72 764.9 199.73 766.12 199.66 766.62 200.76 767.81 200.94 768.68 200.59 769.21 199.73 770.47 200.16 770.87 199.98 773.19 199.74 774 200.76 774.74 200.48 775.57 199.1 777.2 200.31 778.46 200.89 779.53 201.07 781.54 201.19 782.26 202.12 783.13 202.21 784.31 202.56 785.6 203.39 786.19 203.35 787.44 205.36 787.27 205.95 787.52 207.83 789.41 209.09 790.05 209.66 790.69 210.59 791.58 211.52 792.41 211.99 794 213.71 794.96 214.21 796.24 214.37 797.76 215.4 798.8 215.77 798.91 216.03 798.71 217.24 798.91 217.85 799 219.67 798.29 221.18 797.36 221.88 796.23 223.24 795.28 223.52 794.66 224.54 794.95 226.69 794.45 228.3 796.03 230.55 795.91 231.25 795.2 231.83 794.88 232.68 794 233.34 793.23 233.54 792.97 234.07 791.68 235.31 791.39 236.19 791.06 238.81 790.88 239.59 790.22 240.91 788.68 241.02 786.65 240.65 785.62 241.77 785 242.06 783.28 242.28 781.11 241.85 779.4 241.19 778.76 240.5 777.86 240.45 776.9 240.96 776.9 241.28 776.1 242.09 775.66 242.21 775.36 243.39 775.09 243.53 773.34 242.71 772.68 243.71 771.14 243.93 770.94 244.36 770.01 245.27 767.77 244.23 766.19 243.02 764.43 242.48 764.08 242.72 763.41 242.44 761.53 241.98 760.81 242 759.53 242.66 758.92 243.14 757.5 243.39 756.57 243.7 754.91 243.79 754.21 244.29 753.53 243.99 752.63 244.68 750.84 244.53 750.25 243.99 749.54 243.8 748.66 243.19 746.35 243.38 746 243.78 743.78 243.38 743.17 242.87 742.47 243.25 742.3 243.76 742.51 244.82 741.07 245.94 739.55 247.29 738.52 247.83 737.59 248.74 738.35 251.27 737.76 252.5 737.95 253.64 737.83 254.32 738 255.67 736.4 256.83 735.87 257.55 734.86 257.85 734.2 258.28 733.53 258.29 733.04 258.8 730.92 259.48 728.45 259.19 727.72 259.45 727.05 260.2 725.25 260.68 723.13 260.59 723 261.26 723.2 262.24 723.11 263.18 722.5 263.57 721.91 264.39 721.66 265.74 721.73 266.57 721.26 267.43 722.35 268.76 723.03 268.97 723.39 269.99 723.3 270.72 721.7 271.52 720.49 271.85 719.14 272.87 719.22 273.35 718.74 273.99 716.97 275.18 716.79 276.48 715.83 276.73 713.18 278.63 712.16 279.24 711.52 280.2 710.69 281.85 710.63 282.96 710.11 284.21 709.73 284.57 709.75 285.88 709.06 287.17 707.39 288.98 705.86 289.87 705.45 290.59 704.77 291.17 703.84 290.45 701.68 289.6 700.95 289.49 700.25 290.03 699.85 290.95 698.91 291.74 698.25 292.85 697.44 293.85 697.49 295.03 696.88 295.98 695.7 296.82 694.59 298.74 693.44 298.73 692.91 299.37 692.6 300.3 691.81 301.41 690.84 301.85 689.98 302.76 688.86 303.01 687.33 304.18 686.03 304.23 684.25 303.8 681.81 306.29 680.83 307.03 679.48 306.99 678.7 308.4 678.01 308.73 676.86 308.94 675.37 308.56 673.65 308.48 672.05 307.86 671.23 307.98 670.37 307.58 669.8 308.12 670.02 309.36 670.05 310.84 669.85 311.58 669.87 313.26 670.3 314.16 670.22 314.95 670.5 316.2 669.48 317.4 669.6 319.09 669.31 319.73 669.25 322.4 669.59 323.13 669.99 325.23 669.76 325.87 670.19 327.06 669.84 327.82 670.44 328.31 671.69 328.06 672.14 327.56 673.26 327.36 674.54 327.78 676.11 328.82 676.49 328.2 677.58 327.47 677.95 326.66 679.43 326.91 681.11 327.5 682.21 328.3 683.02 327.55 683.83 327.94 684.5 327.8 685.02 327.31 685.87 328.16 686.49 328.48 686.89 329.01 688.25 328.79 688.89 328.55 689.36 328.93 690.08 328.91 690.75 329.16 691.8 329.01 691.98 330.28 692.42 331.64 693.12 331.98 693.34 332.53 693.95 333.11 693.61 333.9 693.88 334.91 695.76 335.37 696.77 335.87 697.87 335.68 699.95 334.67 700.56 335.72 700.8 337.05 701.61 338.83 701.64 340.16 702 340.65 701.79 343.03 702.54 343.74 702.66 345.19 702.57 346.7 702.97 347.54 705.23 347.99 705.26 349.53 706.42 350.68 706.74 350.79 706.48 351.92 706.97 353.04 708.06 353.17 708.9 354.23 711 354.95 710.98 356.04 711.29 357.2 712.19 358.35 712.6 358.16 714 360.18 715.39 359.77 716.21 360.04 716.59 361.12 718.17 361.47 720.16 363.22 721.59 362.92 722.25 364.21 723.24 364.01 724.56 364.64 725.81 364.27 726.1 364.62 726.92 364.84 729.08 364.52 730.13 366.61 730.87 368.85 730.63 370.82 730.52 372.88 729.59 373.89 729.53 375.12 728.83 376.16 728.66 377.14 727.16 378.2 726.41 378.36 725.98 379.08 726.01 380.03 724.88 380.72 724.33 380.59 724.04 381.85 724.72 382.45 724.76 383.26 724.44 383.93 724.62 384.55 724.42 385.35 724.54 387.9 725.58 388.75 726.53 389.82 726.48 390.95 726.08 392.3 725.56 393.19 725.75 394.04 726.96 394.66 726.94 395.68 727.44 396.24 726.92 396.91 727.88 399.36 728.14 400.9 728.81 402.67 728.16 403.98 728.84 404.86 728.46 405.46 728.87 406.64 728.97 407.76 728.13 408.5 728.23 409.33 728.75 410.01 728.82 410.79 728.66 412.12 728.89 413.68 728.08 415.11 728.12 418.5 727.49 419.66 728.59 422.33 729.15 424.26 728.97 425.75 729.82 426.84 730.61 426.94 731.25 427.35 732.89 429.65 732.45 431.07 733.05 432.87 733.56 433.89 734.94 434.88 734.56 436.82 735.47 438.33 735.74 439.27 735.08 440.01 734.96 441.25 735.98 444.56 735.99 445.01 735.07 445.67 733.72 445.52 733.51 447.91 732.16 448.13 728.56 447.93 726.83 448.78 726.45 448.74 726.06 449.82 724.95 450.72 724.33 451.89 722.8 452.28 722.13 453.36 722.39 454.71 721.41 455.54 720.81 456.88 721.14 458.47 720.68 459.76 720.64 460.63 721.04 461.17 719.82 463.41 718.72 464.41 718.72 465.54 718.33 466.37 718.5 467.12 718.34 468.18 718.42 469.21 718.32 470.41 717.88 471.82 718.2 472.34 717.69 474.71 716.58 476.28 716.91 477.44 716.53 479.22 716.09 479.64 716.13 480.93 716.01 482.67 715.06 483.48 715.07 485.65 714.18 486.33 713.73 486.94 713.69 487.77 712.49 488.74 712.8 489.72 712.24 490.88 712.16 491.77 712.49 492.23 712.02 493.17 712.62 494.2 712.76 494.87 712.47 495.63 712.56 496.5 711.63 497.65 710.84 497.7 710.29 498.22 710.28 499.15 709.42 499.74 708.07 501.03 706.69 501.17 706.71 502.63 707.16 505.35 707.53 505.53 707.78 506.94 706.95 508.13 706.6 509.06 705.74 510.51 704.7 510.84 703.62 511.54 704.43 512.68 705.43 515.29 705.82 516.65 707.24 519.31 706.49 519.72 706.03 520.51 705.79 521.92 705.27 522.47 704.24 522.56 702.63 523.12 701.78 523.04 700.99 523.77 700.79 524.6 699.31 525.4 698.98 526.57 697.77 527.66 696.36 529.58 696.56 533.14 696.45 534.09 695.73 535.03 695.29 536 695.14 537.68 696.45 540.67 697.6 542.26 697.63 543.72 696.96 545.27 696.52 545.57 696.9 546.47 698.2 548.24 698.04 548.84 699.23 550.59 699.91 552.78 697.58 551.94 695.5 552.58 694.58 553.55 691.95 554.46 691.12 554.16 690.63 554.42 689.2 554.73 687.41 554.92 686.41 555.42 685.52 555 684.46 554.95 682.43 555.23 680.79 554.61 679.42 554.71 678.01 554.6 677.83 554.31 676.21 554.44 675.07 554.94 674.39 555.44 673.58 556.61 672.01 557.75 671.25 559.45 671.43 559.88 670.52 559.23 669.05 559.83 667.24 560 664.42 557.97 663.84 557.96 662.79 557.3 661.48 557.32 660.56 555.52 657.9 555.65 657.04 556.37 656.31 556.48 654.52 555.94 652.41 556.42 651.75 556.33 650.94 556.66 647.93 554.93 646.96 554.96 646.02 554.02 645.38 554.05 644.01 551.66 643.31 551.6 642.01 550.84 641.06 551.92 640.68 551.89 639.67 550.48 637.35 549.12 636.67 548.27 635.63 547.86 634.79 547.03 633.7 546.76 633.4 545.9 632.48 545.59 631.47 544.76 630.75 543.55 629.97 544.05 629.06 544.12 627.42 543.24 625.31 545.21 625.49 547.51 623.38 548.37 623.18 548.91 622.1 549.38 621.54 550.59 620.96 550.83 619.05 551.97 618.46 552.01 617.51 551.16 615.37 551.71 613.63 551.72 612.69 552.54 611.66 552.16 610.85 552.4 610.13 552.31 609.13 553.29 608.19 553.87 607.58 554.82 604.8 553.8 603.66 553.66 602.67 552.56 602 552.54 600.82 552.07 598.47 550.92 597.91 551.16 597.26 552.02 596.86 553.12 594.3 555.29 593.85 554.26 592.11 552.51 591.21 552.12 590.41 551.19 588.53 550.62 587.18 549.68 586.64 549.62 585.74 548.68 585.23 547.61 585.69 546.88 585.6 545.63 585.79 545.33 585.88 544.15 585.06 542.22 585.17 541.06 584.37 540.79 584 538.77 583.54 538.01 583.94 537.24 584.6 537.01 586.79 535.89 587.88 535.22 587.97 533.78 588.59 530.34 588.76 528.76 588.26 527.93 589.14 526.35 589.15 525.45 588.85 525.09 588.27 522.95 587.75 522.18 587.75 521.1 588.43 520.05 588.35 518.99 588.63 518.56 588.64 516.4 589.13 515.31 589.4 514.19 590.84 512.02 591.3 511.97 592.14 511.16 592.51 511.32 594.6 509.39 595.66 508.97 596.03 509.22 596.92 508.94 597.37 507.13 599.54 505.46 602.08 503.67 602.96 502.61 604.19 502.39 604.2 501.24 604.88 500.48 605.04 499.41 604.31 498.17 604.28 496.72 605.33 495.57 604.13 493.84 603.62 492.83 603.77 490.39 603.1 489.97 602.1 489.87 601.91 489.13 599.84 487.91 599.11 488.27 598.62 487.74 598.59 486.56 598.36 485.62 597.49 485.36 597.35 484.39 596.03 481.36 595.21 480.98 594.81 480.46 594.17 480.49 592.99 481.39 591.76 481.49 590.12 482.71 589.93 483.32 588.46 483.79 587.73 484.72 586.85 485.06 585.65 485.04 584.27 486.38 582.91 485.47 581.29 485.7 580.82 486.63 579.73 488.1 579.83 489.35 578.7 490.53 578.28 491.32 577.42 492.23 576.38 492.91 576.13 493.54 575.6 494.04 574.24 494.44 574.04 494.86 573.17 495.41 572.78 496.23 571.6 496.47 570.8 496.84 570.44 497.66 569.54 497.15 568.18 496.97 565.94 497.6 564.9 498.9 564.19 500.98 563.61 501.81 563.23 501.78 560.08 503.11 559.42 503.08 560.1 493.89 559.74 493.86 560.28 492.31 560.54 490.67 560.61 488.49 563.08 488.67 563.45 483.56 563.61 482.6 564.37 481.8 564.75 479.29 565.03 477.91 563.58 476.95 562.63 476.8 562.15 476.39 561.58 474.87 560.52 474.22 558.78 473.72 557.88 473.25 557.22 473.43 556.86 473.93 556.07 474.14 554.54 474.88 553.59 476.27 553.34 476.84 551.91 475.79 550.93 475.93 549.97 476.74 547.76 475.98 546.7 476.62 544.13 477.74 539.75 477.07 538.08 477.1 536.81 477.42 535.58 478.43 535.05 477.57 534.75 476.59 533.86 475.73 532.95 475.06 532.53 473.73 532.2 473.41 531.01 473.19 529.79 472.26 528.49 471.98 528.05 471.44 525.39 470.77 524.46 470.81 522.67 469.65 521.28 468.9 520.29 469.61 520.04 470.39 519.28 471.92 518.45 473.25 517.46 474.36 517 475.35 515.99 476.1 515.43 476.04 515.22 477.07 514.82 477.66 514.83 478.7 514.45 478.94 513.49 480.62 513.94 482.91 513.95 483.4 513.42 483.94 512.64 485.42 511.69 486.2 510.96 486.48 508.35 488.62 508.22 489.26 507.23 489.55 506.06 490.35 505.34 491.2 504.34 491.39 503.09 491.36 501.78 490.53 500.56 490.24 499.26 489.37 497.71 487.63 497.7 485.63 496.78 484.73 494.72 483.63 494.25 482.09 493.08 481.69 492.03 480.9 490.12 479.72 490.2 479.07 489.21 477.44 488.74 477.37 488.16 476.76 487.49 475.38 485.26 475.32 483.96 475.57 482.37 475.35 481.81 476.16 480.72 476.12 479.5 476.39 478.59 475.7 477.18 475.45 476.75 475.87 475.31 475.66 474.33 475.24 474.04 476.29 472.6 477.93 471.86 478.36 470.69 479.32 470.62 480.03 469.54 481.54 468.93 481.95 468.46 481.81 466.81 482.35 465.6 483.32 464.82 482.75 464.35 481.39 463.8 480.91 463.22 479.49 463.3 477.96 463.08 477.53 462.34 477.02 461.87 475.85 461.26 474.89 460.59 474.5 458.84 473.89 458.26 473.8 457.48 472.72 456.12 473.68 455.46 471.81 455.1 472.02 454.39 471.58 453.59 471.93 453.13 471.77 451.49 471.67 450.9 470.6 449.89 470.41 449.11 469.5 448.28 469.06 448.74 468.3 448.84 467.35 448.52 466.48 447.81 466.58 447.41 466.01 446.72 465.72 444.19 466.5 443.28 466.22 442.63 465.07 441.47 464.63 441.27 464.09 439.33 463.92 438.96 463.58 437.94 463.76 437.84 462.67 437.22 461.66 436.68 461.87 436.27 461.51 435.5 461.4 433.45 461.81 432.55 461.63 431.03 462.1 429.23 462.41 426.83 462.31 426.27 462.56 426.18 463.26 424.16 462.25 423.52 461.76 422.11 459.58 421.08 459.55 420.59 459.8 419.07 459.66 418.23 460.23 417.71 461.81 416.5 461.67 416.18 462.81 416.28 463.69 417.12 464.42 417.28 465.62 417.81 466.57 417.77 467.49 418.15 468.62 417.65 470.08 416.83 470.29 416.24 470.94 415.67 470.88 415.18 471.22 414.87 472.05 415.21 472.78 415.27 473.71 414.67 473.67 413.93 474.56 412.93 474.79 412.46 475.1 411.99 474.46 412 473.71 411.42 473.02 411.42 470.98 410.27 469.46 409.59 470.29 408.45 469.82 408.01 470.38 405.08 471.4 404.46 472.62 404.03 472.84 403.09 474.12 402.06 474.64 401.2 474.23 399.91 475.07 399.31 475.28 399.13 476.48 398.28 476.54 396.01 477.34 393.86 479.18 392.84 477.36 392.73 476.59 392.1 475.76 391.17 476.15 390.17 475.99 388.76 476.41 388.87 477.24 387.24 478.09 386.78 478.83 385.94 478.96 384.72 480.25 384.18 480.12 383.5 476.93 383.13 476.66 383.15 476.05 382.71 475.09 382.04 474.78 381.34 474.14 381.17 473.51 381.37 472.93 380.52 471.96 379.28 472.7 378 472.56 376.74 472.78 375.14 471.69 374.36 471.33 373.9 470.75 371.76 470.45 370.89 470.08 368.33 471.41 368.31 473.24 367.82 474.34 366.65 474.6 365.37 474.39 363.92 474.63 363.41 475.32 363.32 476.46 363.03 477.03 363.37 477.95 362.97 479.33 362.52 479.96 361.79 479.95 358.96 479.65 358.13 479.86 357.54 481.49 355.77 482.11 352.74 482.29 351.77 482.87 351.31 482.44 350.24 480.58 349.6 480.47 349.18 480.04 346.26 479.62 341.9 479.54 341.19 475.1 340.74 473.26 339.14 467.92 338.74 466.34 338 464.06 336.88 461.76 336.28 459.46 335.42 457.29 334.01 453.33 332.91 450.87 331.13 447.62 328.79 444.49 324.95 440.54 317.95 435.09 315.85 433.87 313.89 433.2 311.1 432.47 309.14 432.2 307.09 431.73 304.61 430.87 301.3 429.14 298.78 427.5 297.7 426.64 295.87 428.5 294.9 429.78 293.47 432.76 291.69 433.83 290.77 434.16 289.05 434.34 287.19 435.09 285.91 436.8 285.45 438.67 284.64 440.06 283.16 441.76 282.57 441.89 280.98 441.46 279.55 441.27 278.01 440.38 274.63 439.62 272.27 439.34 270.07 439.51 268.58 440.13 267.32 441.03 266.7 441.72 264.92 443.33 263.19 445.02 262.22 446.15 261.45 447.68 261.08 450.97 259.65 453.4 259.19 455.1 258 457.2 257.51 457.68 254.81 458.21 252.2 458.91 251.32 459.52 249.37 460.26 248.31 460.45 246.62 459.93 244.96 458.58 242.76 457.5 242.65 456.72 241.84 455.62 241.58 454.93 241.69 453.68 240.48 452.85 239.05 452.63 236.86 451.35 236.29 451.74 235.21 451.78 234.17 452.23 232.62 452.02 231.32 451.32 230.05 450.91 228.53 450.86 226.77 450.06 225.53 450.05 225.04 449.58 224.07 449.18 222.75 449.31 222.1 449.22 220.41 448.39 219.03 447.39 218.48 447.14 217.48 447.05 215.87 445.38 213.78 443.84 213.15 443.99 212.35 443.71 211.45 441.82 210.43 441.37 209.12 441.58 208.29 440.93 207.16 440.58 205.84 439.91 204.43 439.77 202.87 438.49 201.33 438.26 200.15 438.71 197.64 438.29 196.54 437.71 192.63 438.31 191.46 437.07 189.69 435.39 188.85 435.14 185.76 435.24 184.72 435.1 182.62 434.52 180.84 433.45 179.96 432.41 178.93 432.42 177.84 432.2 176.95 431.06 176.32 430.57 175.29 430.1 173.82 429.07 172.37 430.49 171.58 430.99 170.72 432.12 169.65 432.61 169.09 433.64 168.44 434.43 168.29 435.13 167.65 435.56 166.49 437.2 165.69 437.83 165.49 438.65 164.73 439.62 163.42 440.38 162.55 441.71 162.36 442.74 161.03 442.79 160.33 443.28 158.93 443.66 156.86 443.35 155.11 444.03 154.65 444.04 153.71 444.67 152.79 444.92 151.77 446.17 150.93 446.37 150.62 447.17 150.75 448.27 150.01 449 148.65 449.52 147.71 451.05 146.22 452.74 144.85 455.23 144.18 455.55 144.22 456.12 143.67 456.65 143.23 458.32 142.87 458.67 142.76 459.46 142.9 460.51 142.58 460.73 142.19 461.83 140.74 462.56 138.87 461.93 137.89 460.05 138.02 458.42 137.59 457.57 137.09 457.15 136.32 456.07 135.67 455.7 134.86 454.73 133.93 453.87 131.88 453.12 130.21 452.25 129.01 451.42 128.61 450.56 127.21 450.62 126.66 450.31 126.35 449.36 125.71 448.66 124.5 448.13 124.55 446.53 124.41 445.45 122.81 443.86 122.3 443.01 121.4 442.65 119.93 441.71 119.48 440.96 118.33 439.78 117.98 439.13 117.48 438.85 117.15 437.96 116.73 437.7 116.75 435.96 116.48 435.01 117.13 433.75 116.7 432.8 116.65 431.66 116.38 431.46 116.08 430.14 116.08 429.34 115.8 428.98 115 426.78 115.2 426.16 114.73 425.58 114.67 424.59 114.97 423.86 114.95 422.99 114.4 422.31 113.25 421.53 112.03 421.63 110.19 421.18 109.14 421.51 108.4 421.94 107.39 421.68 106.69 420.86 105.77 420.24 105.19 420.34 104.49 420.08 103.86 419.48 103.04 420.04 101.49 419.78 101.12 419.84 100.44 419.21 99.44 419.16 99.32 417.14 99.71 416.64 99.74 415.98 100.19 415.34 99.99 414.94 100.01 412.42 100.22 411.79 99.39 410.34 99.71 408.94 99.42 407.56 99.51 406.44 98.66 405.49 97.09 403.32 97.09 402.49 95.38 400.79 94.61 400.32 93.76 399.09 92.63 397.69 92.98 397.04 92.86 396.52 94.53 397.22 96.92 397.46 97.91 398.11 98.59 397.46 98.61 396.76 98.99 396.52 99.59 395.35 100.46 395.02 101.01 395.05 101.54 394.7 102.76 394.32 103.02 394.87 103.57 394.82 106.22 393.77 107.05 394.1 107.59 393.64 109.02 393.82 109.95 394.27 111.68 394.15 113.23 394.45 115.17 394.07 116.57 393.05 116.63 392.52 118.56 391.29 118.08 390.67 118.13 388.3 118.8 387.85 118.6 386.02 119.13 384.79 120.53 383.12 121.45 380.27 121.2 378.78 120.8 377.82 120.75 376.88 120.43 376.33 120.53 375.22 120.21 373.95 120.31 372.47 120.75 371.72 120.78 371.12 121.51 369.87 121.55 368.52 122.4 367.07 123.26 364.85 123.2 363.43 123.48 362.85 123.35 361.93 122.51 361.3 122.11 358.98 121.36 357.58 120.36 357.51 119.76 357.03 119.6 355.96 119.73 355.08 120.16 354.65 118.96 351.46 118.16 350.23 117.56 350.08 116.66 349.01 115.93 347.75 115.82 346.63 115.9 345.76 115.38 345.46 115.77 343.98 115.18 343.86 116.06 342.79 115.55 342.46 115.37 340.88 113.07 340.68 112.77 340.26 112.68 339.28 111.63 337.94 111.12 337.08 111.17 336.18 110.88 335.73 111.4 333.36 111.83 332.79 111.68 331.99 112.4 331.24 112.42 329.41 112.68 328.71 113.33 328.14 113.53 327.46 113.4 326.72 114.17 326.26 114.63 325.64 115.8 325.49 116.18 324.87 118.11 324.07 120.06 322.34 118.4 320.5 116.6 317.87 116.91 317.06 115.36 315.42 114.52 314.16 113.37 311.91 112.48 309.89 111.43 308.25 110.15 306.75 109 305.12 108.42 303.89 107.77 301.42 106.65 299.17 105.55 297.25 104.55 295.17 103.2 292.92 102.2 290.27 101.44 286.52 100.84 284.57 99.22 280.4 98.21 278.65 96.42 275.85 95.71 274.23 94.41 271.56 92.32 269.83 90.18 266.18 87.39 262 86.41 260.66 85.41 259.76 83.8 258.85 80.91 257.03 77.17 254.91 73.52 253.04 70.45 252.04 67.32 251.58 65.24 251.13 60.29 251.14 56.71 251.44 55.42 251.84 52.81 252.96 51.71 253.26 49.84 253.23 46.93 253.3 45.56 253.15 44.01 253.25 42.76 253.15 41.45 252.85 39.92 252.35 38.5 252.06 34.38 252 32.6 251.7 31.09 251.61 29.69 251.95 27.89 252.76 26.42 253.78 24.84 255.3 22.94 257.46 21.57 258.58 20.34 259.76 19.01 260.71 17.78 261.91 16.79 263.33 14.28 264.9 11.31 264.95 8.8 266 7.21 266.5 5.4 267.5 5.63 270.28 5.6 274.8 5.71 276.52 5.98 277.98 6.01 279.38 5.58 280.58 4.8 281.22 3.55 281.53 2.25 281.6 1.83 281.05 1.18 278.55 1 277.23 1.22 273.92 1.57 266.88 2.08 262.53 2.43 260.83 2.98 258.83 3.85 255.06 4.7 252.75 6.45 246.19 7.53 242.91 8.58 240.49 9.96 238.14 11.66 234.53 14.09 229.64 16.16 226.61 18.01 224.09 20.84 219.62 22.41 216.92 23.76 214.42 25.34 211.8 26.34 210.44 27.6 209.09 28.27 207.72 28.95 205.87 29.85 204.32 31.12 201.19 31.73 200.09 32.57 198.27 33.88 196.07 35.43 191.62 36.37 189.65 38.35 186 39.35 183.38 40.56 180.5 41.11 178.83 41.51 176.3 41.96 174.81 42.65 173.4 43.56 172.08 45.26 168.71 45.56 167.96 45.68 166.95 45.53 165.46 46.94 161.71 47.98 160.46 48.78 158.36 49.31 156.59 50.24 154.18 51.36 151.59 51.72 149.86 52.21 148.38 53.01 146.56 53.39 145.27 54.41 140.37 54.61 138.29 54.62 135.84 54.87 133.41 55.91 127.12 56.45 125.19 56.65 123.6 56.7 121.22 57.34 117.57 57.64 115.04 57.75 113.12 58.2 109.75 58.47 108.37 59.74 104.18 60.67 102.32 60.87 101 61.45 98.33 62.44 95.77 63.3 93.9 63.67 92.41 65.07 88.93 65.5 87.06 66.17 85.63 68.67 81.7 70.1 78.86 72.93 75.03 76.4 70.03 77.16 68.99 78.03 68.14 81.39 66.29 84.46 64.34 87.01 61.69 88.95 59.42 90.56 57.39 94.2 49.96 95.6 47.77 96.44 45.72 96.67 44.17 96.28 44.14 96.7 44.15 98.65 44.56 99.53 44 99.8 43.14 100.94 42.43 100.95 42 102.86 40.74 105.34 39.31 106.29 38.17 106.51 37.62 108.41 37.54 109.01 36.74 110.07 37.14 112.15 38.22 113.66 37.88 116.91 38.72 118.2 38.15 119.04 36.92 119.79 36.68 121.06 36.82 123.15 37.91 123.59 38.53 124.92 38.88 125.63 38.92 128.46 38.58 130.2 37.74 131.93 37.85 133.23 37.56 134.05 37.94 134.98 37.44 135.74 37.26 137.07 37.84 137.9 37.11 138.19 36.54 138.23 34.24 138.77 32.77 139.39 31.52 140.26 30.25 140.19 29.24 141.16 28.91 142.77 28.12 143.12 27.8 144.29 26.07 144.79 26.04 147.06 25.34 148.72 24.19 149.14 22.97 149.24 21.84 151.45 20.68 152.48 20.53 153.95 20.74 155.42 20.61 157.2 19.39 158.61 18.91 159.02 17.8 160.99 15.62 161.82 15.01 163.48 14.77 165.27 15.07 166.03 14.85 168.49 14.95 169.35 14.27 170.36 14.25 171.29 13.71 172.17 12.17 174.24 11.48 174.67 10.78 175.3 10.67 175.92 9.43 176.7 7.46 176.87 6.18 177.62 5.45 178 3.58 179.08 2.44 179.74 1 180.55 3.13 182.39 3.27 182.75 4.24 183.5 4.91 184.14 5.99 185.38 5.87 186.18 6.47 187.73 9.45 187.94 9.59 191.23 12.87 191.53 13.62 192.67 14 194.33 15.17 196.13 16.75 196.96 17.21 197.12 18.14 199.41 21.53 198.37 22.31 197.17 22.99 197.09 23.7 196.65 23.92 195.94 25.16 195.1 25.16 193.52 28 192.29 29.07 192.07 30.09 190.92 31.07 189.73 32.54 190.95 33.43 192.07 34.43 191.99 35.11 192.77 35.92 193.77 36.24 193.15 38.05 193.08 39.81 194.54 42.92 196.57 44.07 197.6 44.9 198.99 45.53 199.21 47.68 197.69 48.57 198.15 50.35 203.44 50.89 206.35 53.21 208.91 54.2 210.37 55.64 212.4 55.95 214.76 55.4 216.37 55.55 218.29 55.18 219.64 56.09 219.98 56.98 220.84 58.43 219.86 59.8 218.47 61.31 219.64 62.83 221.39 65.4 221.73 66.66 221.63 67.92 220.99 69.58 221.6 70.48 222.38 70.9 222.84 71.8 223.3 73.62 223.74 74.45 224.15 76.61 225.2 78.48 226.93 79.65 228.37 81.04 228.85 81.23 229.26 83.17 229.51 83.77 230.37 84.62 230.53 85.33 232.26 85.08 234.32 85.27 235.68 85.6 236.72 85.59 238.41 85.91 239.52 85.76 240.32 87.3 241.27 88.01 241.36 89.23 242.32 89.37 243.18 91.01 243.38 92.08 243.9 93.68 243.73 94.44 243.99 95.26 243.63 96.43 244.4 97.31 244.41 98.24 244.73 99.7 245.11 100.41 244.7 101.87 245.62 102.36 246.01 102.94 244.57 104.17 244.07 106 244.45 107.31 244.08 109.04 243.79 109.52 243.6 110.69 244.85 111.79 244.98 112.53 244.71 114.07 244.49 114.49 244.89 115.21 246.42 116.86 246.45 118.61 246.09 119.58 245.86 121.35 246 122.99 245.35 124.62 245.47 125.69 245 126.69 244.87 128.02 245.19 128.7 245.13 129.99 245.36 130.49 245.37 131.39 245.05 131.77 244.94 132.75 245.28 134.18 244.64 134.87 244.25 136.43 244.3 136.94 244.9 138.28 244.44 139.32 244.32 140.07 243.66 140.38 242.79 142.83 242.04 144.51 241.44 145.57 242.05 147.81 242.57 150.49 242.53 151.57 242.8 152.52 242.19 153.56 241.34 154.6 241.09 155.59 241.6 158.91 241.55 159.39 241.94 159.93 242.11 161.26 242.55 161.64 242.67 162.72 242.13 164.82 242.41 166.02 242.42 166.9 242.69 168.66 243.69 169.87 244.58 170.2 244.86 170.85 246.14 172.2 246.3 173.17 248.68 173.95 249.53 174.68 250.26 174.3 251.96 174.33 252.84 174.63 254.13 174.69 254.47 175.04 255.89 175.51 257.08 176.46 258.64 177.21 259.3 177.13 260.7 177.53 261.89 178.19 262.68 177.7 263.7 177.57 264.59 177.65 265.08 177.42 266.24 177.97 267.37 177.79 269.08 178.18 269.56 178.65 270.37 180.17 272.42 180.93 272.86 180.92 275.76 181.98 276.59 182.47 279.03 183.27 279.76 183.87 282.04 184.87 282.78 184.67 284.13 182.69 286.09 182.02 287.49 180.93 289.08 180.86 290.34 180.05 291.52 178.5 292.96 178.28 294.48 177.77 295.89 177.16 296.49 175.13 297.84 174.4 301.41 174.79 302.72 174.77 303.78 173.36 304.39 173.03 305.35 172.19 305.83 171.37 306.51 171.28 307.06 170.39 307.72 170.24 309.33 168.25 311.11 166.5 311.67 165.54 310.57 165.33 311.37 164.01 312 163.23 312.95 162.51 314.36 161.71 314.64 161.25 314.38 159.33 314.21 159.01 315.91 157.69 316.43 157.52 318.38 156.48 319.66 156.52 322.23 155.85 322.6 156.13 323.78 156.02 324.77 156.53 326.87 156.12 327.15 156.77 328.43 157.6 329.57 157.81 330.72 157.62 331.7 157.25 332.37 156.63 333.37 157.35 334.58 158.06 334.78 157.53 335.42 157.15 337.49 157.65 339.13 157.42 340.28 158.05 340.82 158.73 342.33 160.1 342.71 159.18 343.49 159.39 344.23 158.78 345.55 159 349.32 159.21 352.57 158.44 353.64 157.94 355.22 157.5 356.74 157.93 358.4 157.07 360.55 156.74 364.7 155.67 365.95 158.82 367.01 159.52 368.81 159.86 370.7 160.44 372.91 160.86 374.37 161.51 374.89 160.17 375.38 158.24 376.24 156.24 376.73 153.75 376.49 153.12 376.42 152.01 375.57 149.98 375.13 146.65 374.07 145.76 373.94 145.26 373.66 142.83 373.38 141.74 373.43 140.97 374.34 139.97 375.1 138.66 375.15 138.02 375.85 137.43 376.59 136.47 376.72 135.1 377.01 134.58 377.43 132.57 378.46 132.18 378.62 131.33 378.13 129.68 378.19 128.51 378.5 127.76 378.39 126.63 378.09 126.21 378.29 124.4 378.07 123.33 378.21 122.4 378.68 122.27 379.13 121.7 380.61 120.74 382.19 119.96 383.32 117.83 383.38 117.25 384.24 115.94 385.12 116.09 387.65 115.96 388.27 115.28 389.16 113.32 388.81 111.34 389.51 108.17 389.46 105.7 387.83 104.91 385.09 102 385.01 100.73 384.29 98.46 384.03 98.42 383.43 96.68 381.79 94.42 380.18 94.11 379.04 93.45 378.23 92.63 377.39 92.22 377.07 91.23 376.69 90.78 376.64 90.17 375.86 89.88 375.4 89.37 374.52 89.31 373.62 88.65 373.89 87.89 373.46 85.51 373.56 84.23 374.04 83.27 373.87 82.53 373.3 81.28 374.26 80.14 373.77 79.59 373.12 78.24 Z" id="31580000"/>
</g>
</svg>