<?xml version="1.0"?>
<svg xmlns="http://www.w3.org/2000/svg" version="1.2" baseProfile="tiny" width="800" height="793" viewBox="0 0 800 793" stroke-linecap="round" stroke-linejoin="round">
<g id="sigung">
<path d="M 604.07 63.56 604.25 66.74 606.24 72.11 605.68 75.58 605.83 80.45 604.2 82.87 603.07 87.49 604.44 88.62 604.65 90.43 604.4 93.08 604.18 94.2 606.49 96.89 606.15 97.55 606 99.52 606.47 100.99 606.59 102.72 607.37 103.81 610.09 106.37 611.88 108.88 615.51 111.73 616.18 113.66 619.54 115.44 620.98 117.02 623.7 118.33 625.41 118.25 627.74 120.02 628.47 120.41 629.96 120.39 631.05 120.56 632.58 121.49 632.95 121.5 634.58 122.21 636.1 122.27 636.98 121.82 637.92 122.42 638.5 122.32 639.3 122.64 639.6 123.11 640.77 124.15 641.41 124.44 642.78 124.23 644.43 124.3 645.26 124.58 645.6 125.28 647.5 126.12 648.6 126.35 649.52 127.39 649.99 127.62 650.85 128.71 653.06 130.73 653.49 131.65 653.23 132.33 653.51 133.41 653.42 134.18 656.56 133.42 659.12 133.35 662.52 131.71 666.93 128.43 669.34 125.21 671.03 120.94 672.65 117.05 672.15 110.75 671.42 104.37 672.27 100.13 674.67 94.71 676.63 90.69 678.02 88.61 679.39 86.78 680.69 86.11 685 85.79 688.38 87.39 696.67 93.05 701.48 98.43 705.95 100.62 711.27 101.24 719.39 103.05 727.38 106.23 731.14 108.17 733.36 110.75 734.45 113.59 734.5 116.29 733.88 121.21 731.94 125.79 729.17 132.05 728.73 136.46 729.02 140.21 730.53 144.13 731.94 146.17 735.79 150.34 737.66 152.69 740.32 154.87 743.74 156.82 747.52 156.56 750.84 154.6 754.87 149.64 758.83 142.13 761.31 136.81 762.75 133.2 765.5 129.3 768.19 126.95 773.43 122.89 775.51 122.27 779.04 121.85 783.49 121.8 786.38 121.32 789.29 121.2 791.76 121.69 794.44 125 796.9 128.27 797.72 129.68 799 131.03 798.27 131.89 794.54 134.44 793.77 135.8 793.09 136.45 792.14 136.81 791.13 138.02 791.42 139.37 791.97 140.93 790.89 142.86 790.16 143.34 788.75 143.58 788.46 144.05 786.72 144.5 784.75 144.77 783.82 145.29 784.43 147.64 783.19 155.77 782.73 158.44 781.34 160.31 779.91 161.36 779.03 161.82 779.3 164.03 779.11 164.54 777.48 166.09 774.62 166.63 770.78 166.53 767.65 167.2 764.23 166.61 761.56 168.66 759.34 168.24 756.03 173.09 754.53 174.78 753.56 176.52 752.12 177.23 750.82 177.51 750.09 178.25 748.83 178.67 746.21 177.67 743.5 177.74 741.27 177.31 739.52 178.45 736.29 181.2 735.94 181.71 731.94 180.57 729.15 181.25 729.77 181.85 729.99 183.96 730.03 185.8 729.37 186.14 727.65 188.52 727.21 188.82 726.55 190.18 726.46 192.05 727.74 193.9 728.25 195.36 729.42 197.28 730.82 198.33 731.07 198.69 730.41 204.52 731.33 207.84 730.79 208.86 729.58 209.79 728.2 212.66 727.58 214.3 727.8 215.08 729.19 216 730.15 217.32 730.02 221.25 730.96 225.84 729.53 227.6 730.2 230.15 728.1 232.16 726.78 233.3 726.68 236.24 725.45 237.8 724.62 238.37 724.23 240.23 722.27 241.41 720.45 243.22 725.22 245.18 729.99 250.1 735.52 253.21 735.91 259.28 736.91 260.36 739.27 265.95 741.41 266.79 745.57 269.07 744.94 272.2 747.73 273.6 748.03 277.15 746.99 279.88 747.36 283.4 746.51 286.06 744.89 288.93 744.67 290.1 744.59 293.55 743.81 295.02 742.57 296.06 741.34 297.51 738.98 301.18 735.29 305.6 732.97 306.63 730.51 308.16 731.21 311.99 731.21 315.06 732.07 320.46 732.83 322.12 731.96 323.64 731.99 326.49 732.38 327.1 733.39 327.9 734.87 329.6 734.32 330.54 732.89 331.28 730.13 332.42 728.65 333.73 724.7 337.74 723.77 339.69 723.08 341.92 722.02 343.88 719.1 345.66 717.2 347.94 715.2 350.94 713.01 353.65 711.73 356.17 711.56 357.2 712.25 359.25 712.32 361.19 711.68 364.43 710.46 366.86 710.26 367.84 710.93 369.01 711.65 371.97 712.18 372.96 713.02 375.13 713.42 376.63 713.37 377.61 713.98 378.33 715.1 378.75 714.32 382.8 713.97 383.16 714.36 384.52 714.7 387.47 714.13 387.52 712.07 389.18 710.37 390.36 707.8 391.7 706.65 391.81 706.25 393.08 704.98 394.28 704.06 396.64 702.78 397.19 702.22 397.21 701.88 397.86 700.82 398.59 699.97 399.38 694.72 402.02 693.96 403.18 692.66 403.76 691.51 404.54 691.76 405.83 690.38 407.03 689.88 409.25 688.86 411.58 687.16 413.42 685.68 415.93 684.82 418.81 684.55 421.87 681.1 423.55 680.24 425.09 680.41 426.71 680.25 428.16 679.52 429.13 678.47 430.19 677.49 430.93 676.63 433.44 676.67 434.9 676.1 436.35 675.51 437.34 674.66 439.24 674.42 440.88 674.03 442.49 673.45 443.69 672.22 444.89 671.85 448.09 671.36 448.67 671.22 449.81 670.64 452.32 669.69 455.15 670.12 455.93 670.86 456.72 672.42 457.98 673.75 458.85 674.34 460.5 674.16 461.22 673.41 461.75 673.38 462.2 674.2 463.6 674.52 464.71 674.61 467.94 673.01 469.36 671.98 471.16 672.55 472.38 671.64 473.24 667.84 473.65 665.21 475.57 664.2 476.05 661.98 477.89 661.54 477.97 660.84 478.7 659.73 481.23 658.54 485.51 658.22 488.71 658.33 489.41 658.18 492.4 656.35 495.16 654.48 496.6 652.97 496.4 652.53 495.77 650.76 495.52 649.06 494.05 648.06 491.2 644.6 483.57 642.87 476.11 641.49 473.61 638.12 472.21 636.11 469.97 632.2 462.29 629.32 460.55 627.93 459.35 624.67 458.59 619.55 455.16 617 454.03 615.54 453.09 612.45 452.44 613.5 450.05 613.08 448.99 613.65 447.84 613.9 446.31 615.88 444.8 617.18 442.45 616.39 440.75 613.1 438.03 610.67 436.86 606.84 435.76 604.61 434.43 601.49 433.64 599.5 433.86 597.48 433.3 596.47 431.8 595.8 430.19 593.27 428.4 591.71 428.09 590.75 426.78 590.1 426.31 589.18 426.16 585.19 428.28 582.73 428.27 579.97 429.17 577.62 430.29 574.01 431 572.71 432.12 572.38 433.61 568.45 438.04 567.58 439.31 569.52 442.57 570.24 444.16 571.2 447.75 570.31 452.69 569.09 454.69 568.71 455.96 569.05 456.53 567.14 458.01 565.97 459.84 564.66 459.89 563.28 460.25 562 462.18 561.79 464.92 560.58 469.14 560.74 472.53 560.19 473.13 559.76 474.11 560.41 475.97 559.73 476.3 558.29 476.63 556.9 477.82 555.64 477.73 555.19 477.35 554.29 477.52 553.3 477.32 552.3 478.23 547.14 478.55 545.19 477.75 544.27 478.64 543.16 478.63 541.21 479.22 539.52 479.27 538.32 480.19 534.42 481.42 533.45 480.91 530.07 480 529.03 479.9 526.99 480.08 524.63 479.91 523.07 478.9 520.71 477.61 520.29 477.17 518.93 476.46 516.4 475.84 515.67 475.83 514.35 474.35 513.26 473.46 511.72 472.76 510.78 471.96 509.36 472.04 508.13 471.78 506.26 471.61 505.51 470.78 503.57 469.25 502.23 468.37 501.22 467.39 499.97 464.65 496.71 464.2 495.72 464.18 495.21 463.84 493.22 464.99 489.11 464.63 487.88 463.4 486.69 462.47 485.92 461.43 484.44 460.84 483.21 461.34 482.51 462.72 480.14 464.72 480.31 467.73 479.48 468.26 477.94 468.47 476.88 468.76 475.62 469.94 474.26 470 473.82 470.92 473.73 471.84 473.27 472.18 472.36 474.41 472.52 475.04 474.08 476.46 473.62 477.14 472.57 477.8 472.88 479.53 471.45 484.17 471.55 484.93 478.96 492.41 477.15 494.66 479.62 497.23 482.67 500.25 484.59 501.55 487.01 501.55 490.04 502.05 491.06 507.28 491.8 507.72 493.21 509.51 493.45 511.88 492.94 512.25 492.49 514.89 491.98 515.3 491.65 516.04 490.94 516.68 490.88 517.38 489.31 518.77 489.65 521.93 489.52 526.34 490.02 527.92 492.72 532.37 492.66 534.84 491.99 535.99 492.12 537.54 491.75 538.42 492.06 538.81 491.87 540.37 492.32 541.63 491.29 543.06 490.35 543.45 490.17 544.44 489.84 545.08 489.67 546.93 490.64 548.31 489.78 549.77 489.84 551.73 489.42 552.49 492.86 556.33 494.82 558.03 497.35 559.22 498.37 560.54 499.67 561.13 500.95 562.49 502.34 563.63 503.53 563.91 505.83 564.75 506.76 565.52 508.14 566.13 508.65 567.46 510.37 567.59 512.21 568.08 513.87 568.82 515.42 568.51 516.3 568.09 517.73 568.79 519.04 572.25 518.91 575.31 520.03 580.08 522.83 585.35 523.16 586.14 525.21 586.92 527.87 588.99 527.97 589.2 527.95 591.56 528.07 591.91 530.26 592.18 531.11 592.84 531.06 594.58 531.17 594.92 532.9 597.26 533.31 598.24 535.23 599.88 535.67 601.2 537.77 604.71 538.37 607.9 539.84 609.51 539.46 610.41 538.67 611.17 537.92 612.58 537.71 614.17 538.11 615.01 538.05 615.77 537.32 616.18 536.27 618.23 536.03 619.45 530.85 623.39 530.08 624.65 528.26 625.33 527.76 626.2 527.09 626.61 525.8 629.14 523.76 630.2 522.83 631.01 520.03 631.23 517.74 632.04 516.94 632.19 515.95 632.07 514.01 633.28 513.8 633.62 513.92 634.66 514.28 635.85 516.07 638.1 517.79 639.88 518.97 640.32 519.99 641.12 521.34 641.19 521.46 642.25 520.53 643.36 520.61 645.42 520.84 646.54 519.95 646.87 518.46 647.7 515.56 650.35 515.06 650.2 514.13 650.8 513.04 650.58 512.6 650.99 509.83 652.07 507.36 653.99 505.61 656.66 504.78 658.48 503.22 661.34 501.78 662.41 500.61 661.64 500.44 662.19 499.83 662.69 498.9 662.69 497.19 663.12 495.71 663.35 495.75 662.42 493.79 662.6 492.87 661.73 492.32 661.89 491.12 661.31 490.98 660.11 490.44 659.55 490.48 658.85 489.62 657.49 487.12 655.61 485.61 655.56 484.8 653.77 483.88 653.05 483.49 652.13 482.46 651.31 481.32 651.52 480.52 650.6 479.7 650.2 478.42 650.1 477.04 648.68 476.16 648.89 473.39 649.06 471.67 650.64 471.05 650.94 470.66 651.56 470.13 651.67 468.94 651.43 467.99 652.54 466.57 651.63 465.55 652.45 464.37 652.6 463.78 653 462.38 653.11 461.91 653.94 462.18 655.54 461.92 656.13 462.42 657.36 461.83 660.35 460.44 661.05 459.23 661.27 458.64 661.04 457.85 660.22 456.28 661.72 454.85 661.85 453.98 663.3 454.06 665.07 454.79 666.96 454.51 667.81 453.98 668.12 453.38 670.06 453.8 670.96 453.21 671.59 452.37 670.89 450.5 671.75 449.79 671.8 448.33 672.51 447.35 672.66 446.41 673.02 445.56 673.7 444.44 675.12 442.74 674.44 441.61 674.79 440.25 674.33 439.62 673.76 437.33 673.61 433.02 672.01 432.72 671.55 432.53 670.22 433.35 667.79 431.42 665.75 430.54 665.59 429.31 664.94 428.5 664.05 427.01 663.1 425.7 662.62 424.21 661.18 423.42 662.17 422.63 662.38 421.65 663.61 420.53 664.4 419.51 664.6 418.51 664.55 417.7 664.28 415.29 665.38 414.67 667.37 413.45 667.73 412.37 668.38 410.25 668.83 408.5 670.16 407.81 670.06 406.36 670.39 405.57 670.07 403.66 669.86 403.07 670.21 401.97 670.11 401.17 670.31 397.56 670.04 396.97 670.08 396.53 670.79 395.35 671.28 394.12 671.19 393.2 671.99 392.13 672.05 391.28 672.58 389.91 673.04 389.56 673.8 388.99 674.16 388.38 675.15 387.68 675.02 387.15 675.84 386.81 676.8 386.06 677.32 383.38 680.06 382.76 680.58 382.22 680.36 380.94 679.38 379.77 679.27 379.26 678.41 378.54 677.79 377.43 677.26 377.05 675.98 377.45 675.21 377.48 674.59 376.63 673.88 376.35 672.8 376.4 672.04 375.96 671.03 376.26 670.25 376.06 669.1 375.66 668.29 373.91 665.58 372.98 664.73 372.06 664.18 371.34 663.25 369.91 662.39 369.14 662.76 368.51 662.5 367.05 663.37 365.41 662.95 364.6 662.98 362.79 665.6 359.93 667.57 359.2 667.81 356.5 669.78 354.46 671.18 353.92 671.34 352.11 671.37 350.5 672.33 350.42 673.07 349.71 673.82 348.35 674.07 347.7 675 346.47 675.22 346.27 675.86 345.22 677.12 344.99 677.72 343.57 678.67 343.23 679.69 342.48 680.39 341.83 680.56 340.64 681.59 339.77 681.59 338.43 682.01 337.11 681.52 336.45 680.66 335.14 680.37 334.73 679.88 333.9 679.73 333.32 679.26 332.09 679.21 331.1 679.93 330.58 681.47 330.71 683.04 328.17 683.37 327.28 684.18 326.07 684.26 325.56 684.89 325.33 686.47 324.11 686.91 322.29 687.41 322.24 689.51 321.95 689.99 320.37 690.02 319.7 689.7 316.84 690.52 316.03 691.63 315.29 692.09 315.25 693.17 314.81 693.97 314.37 696.37 313.78 696.87 313.48 699.05 312.94 699.1 311.55 699.95 311.01 700 310.71 700.76 311.13 701.72 310.36 702.86 307.33 703.31 306.47 703.56 304.85 704.82 304.36 705.68 303.53 706.44 300.71 707.01 300.42 707.2 300.44 711.97 298.05 712.52 296.97 712.22 296.1 711.32 295.32 711.86 293.78 712.38 291.63 711.76 291.12 710.89 289.82 711.15 288.66 710.95 286.92 711.93 285.55 711.38 284.26 711.42 283.37 712.51 280.6 712.43 279.49 712.76 279.46 713.98 277.91 714.85 277.08 715.99 275.94 716.77 275.42 717.39 274.8 717.73 273.94 718.74 272.91 719.41 272.79 720.17 271.99 720.22 270.7 721.54 268.66 721.8 267.54 722.23 268.03 723.31 267.98 725.34 267.67 726.33 268.53 727.43 269.06 728.77 269.9 729.1 270.8 729.17 271.65 728.96 272.36 729.09 272.97 729.64 274.7 729.96 273.45 732.22 272.62 733.25 272.56 733.98 272.9 735.05 273.47 735.95 273.65 737.06 274.76 740.46 274.58 741.71 274.35 742.09 271.96 747.17 271.31 747.38 270.07 748.8 268.05 749.08 265.58 751.63 265.16 753.61 263.84 753.42 262.06 752.57 261.42 752.43 259.65 751.71 258.84 751.78 257.26 750.19 255.55 750.53 255.06 750.85 253.62 752.64 248.43 749.24 244.11 747.94 241.57 746.94 235.21 744.36 226.51 745.43 223.98 747.78 223.92 747.92 223.9 754.82 225.84 771.72 224.9 775.84 221.82 782.72 217.9 784.99 215.4 785.41 213.19 784.64 211.23 782.62 210.18 780.27 209.2 775.71 209.69 768.86 209.45 766.87 210.04 761.92 209.31 755 207.94 752.56 206.8 750.26 204.19 747.57 200.24 748 196.34 748.69 191.74 750.6 185.65 754.89 181.47 761.79 182.04 769.01 182.1 775.83 181.11 781.09 178.18 785.21 174.31 787.92 170.01 790.42 165.24 792 160.22 791.81 157.9 789.81 157.91 777.44 157.94 775.87 157.84 768.82 159.32 765.78 161.45 759.97 161.81 754.92 161.62 748 160.17 743.68 157.03 740.41 157.16 739.91 156.81 738.29 156.08 737.44 154.2 736.4 153.02 736.06 148.14 735.98 144.35 736.97 139.55 738.91 137.43 737.23 136.49 735.95 135.75 734.5 134.75 730.51 133.03 726.9 132.5 723.14 132.32 720.01 133.21 715.78 134.52 713.07 136.57 710.24 136.91 706.95 135.21 704.08 132.51 701.4 128.59 696.04 104.62 682.16 102.32 681.6 95.23 682.17 93.51 685.28 91.64 689.92 91.44 690.55 90.21 691.58 87.21 691.37 83.55 690.19 82.01 689.68 78.45 688.96 74.08 689.82 70.22 692.22 67.26 699.26 61.22 703.74 56.91 707.19 53.32 707.99 48.96 706.03 43.64 703.27 40.24 699.2 37.04 694.62 33.32 693.8 29.48 694.58 24.6 699.3 17.73 706.45 12.25 711.83 9.87 715.53 6.23 713.15 2.45 706.08 1 699.21 1.48 692.13 2.41 685.27 7.13 678.26 8.65 675.43 12.92 671.21 17.3 667.97 26.18 663.05 34.92 657.58 43.63 651.71 49.05 646.76 55.87 639.92 57.93 636.47 60.1 629.44 60.22 622.56 57.29 615.67 53.9 608.59 48.74 601.58 42.6 594.67 37.96 587.7 34.9 584.65 30.34 580.75 25.05 573.82 22.8 566.88 26.19 559.85 31.84 552.87 35.9 546.9 41.47 538.99 47.98 531.95 46.83 525.03 44.2 518.11 39.7 513.16 33.2 510.59 29.87 508.21 28.24 504.1 28.3 503.53 28.51 495.07 29.73 488.78 32.3 481.93 35.52 475.6 40.1 470.88 47.1 465.3 52.34 462.31 56.42 462.14 60.57 461.79 66.44 462.25 67.02 459.65 66.85 457.59 67.58 454.15 67.05 451.82 68.74 451.21 69.77 450.26 70.18 449.16 71.19 448.89 72.32 447.97 73.06 447.76 74.19 447.08 75.06 446.36 76.24 444.64 76.92 444.49 78.29 443.35 79.94 443 82.27 443.06 83.62 443.24 87.17 444.07 87.25 442.97 87.58 442.69 87.64 441.71 88.11 440.91 88.13 439.91 89.33 439.84 90.56 438.7 92.65 437.57 92 436.33 91.9 435.07 91.17 433.69 92.01 432.45 92.01 431.84 92.77 430.54 93.4 427.69 94.08 425.66 95 424.67 95.26 422.57 96.27 421.94 97.2 422.09 96.91 420.89 97.09 420.13 98.49 419.76 100.25 418.8 100.25 418.34 100.82 416.82 102.27 416.29 102.94 415.74 103.74 414.42 103.56 413.76 104.37 412.12 105.76 412.12 106.36 411.66 106.51 410.92 107.32 410.78 108.04 410.37 109.42 408.87 112.34 408.32 112.72 407.77 113.6 408.28 114.79 407.4 115.25 407.54 116.32 406.71 117.18 406.61 118 405.34 118.95 405.04 119.72 404.4 122.82 405.16 124.35 404.3 126.82 405.1 128.89 405.48 131.07 405.06 132.26 405.1 134.46 404.84 135.85 405.25 136.74 405.76 138.57 405.79 139.7 406.06 140.5 407.07 141.79 407.29 142.81 407.27 144.23 407.97 145.82 408.25 148.25 408.27 148.93 407.63 148.99 406.62 150.14 405.06 152.26 403.81 152.46 402.6 153 401.33 153.24 399.39 153.87 398.75 153.55 397.99 154.68 395.66 155.22 394.2 155.63 393.5 156.75 392.8 157.15 390.2 156.62 389.43 156.32 387.05 155.41 385 154.87 384.49 154.57 382.44 155.04 380.24 154.48 378.34 156.04 374.97 155.92 373.64 156.89 371.24 157.38 371.23 158.73 370.1 158.56 369.15 159.42 367.3 160.17 363.71 161.42 361.73 163.65 360.57 165.09 358.28 165.25 355.7 165.61 354.57 166.55 352.52 167.18 349.13 169.06 346.67 169.19 345.96 168.18 344.48 168.9 342.1 168.79 339.32 168.47 336.26 168.27 335.25 166.74 329.88 165.72 328.16 164.17 322.7 164.05 320.38 161.88 318.96 161.34 317.86 161.33 316.01 161.16 311.8 163.44 308.69 164.91 308.01 168.06 303.62 167.38 301.76 167.08 298.52 165.52 295.86 164.55 291.38 163.68 289.03 162.43 287.08 161.84 285.29 162.66 282.48 161.91 280.06 160.98 279.82 157.96 277.62 156.89 275.85 156.2 275.08 148.17 272.38 146.28 268.83 145.09 265.42 146.43 258.44 146.58 256.3 146.06 252.08 143.5 250.23 142.94 249.13 138.26 248.22 134.3 247.85 132.24 247.27 130.42 246.22 128.83 244.75 127.35 243.05 124.55 242.09 120.4 239.63 118.84 239.2 116.25 239.71 114.2 239.42 110.6 240.43 108.34 239.95 106.35 237.67 106.28 236.9 104.12 236.21 103.05 235.53 98.3 234.98 93.37 235.66 91.39 236.17 88.41 236.54 83.86 237.45 80.72 237.25 78.49 236.76 76.18 235.16 75.31 233.95 70.78 232.34 66.63 231.09 61.59 230.45 58.28 228.01 56.86 224.81 56.71 215.68 57.33 212.6 59.62 211.43 61.13 207.6 60.61 204.5 60.32 203.38 59.13 201.24 59.45 196.73 58.33 194.22 57.14 192.51 55.94 187.45 55.59 182.69 53.77 176.68 51.86 171.1 50.59 165.83 50.26 165.93 49.73 164.58 50.39 163.43 50.47 161.8 50.92 161.13 50.97 159.97 51.52 157.93 51.67 155.78 52.5 151.43 53.55 147.86 54.26 146 54.54 144.66 55.23 143.08 55.09 139.47 55.57 137.12 55.72 134.9 56.18 134.21 56.4 131.64 57.15 129.71 56.99 127.88 59.47 127.59 61.07 126.76 62.6 126.57 63.83 126.71 66.08 127.35 69.49 127.28 70.8 126.92 72.91 125.75 74.72 125.29 78.49 125.38 80.28 125.34 81.83 124.83 82.98 124.12 84.29 123.77 86.17 122.95 86.96 121.16 87.87 118.71 86.92 116.78 86.77 115.37 86.95 114.59 88.13 112.69 88.42 108 90.38 105.95 90.79 103.72 92.08 102.97 95.36 101.84 96.41 99.78 101.63 96.71 102.7 94.78 103.97 93.69 104.61 91.92 106.4 89.76 108.59 88.44 108.54 86.79 108.07 84.63 107.26 82.43 105.11 79.72 104.32 78.94 103.77 77.52 101.36 74.28 101.74 71.4 101.88 69.55 101.51 66.94 102.97 65.22 103.5 64.02 104.61 63.43 106.06 62.86 108.4 61.46 109.22 60.63 109.84 59.55 109.81 57.5 108.85 56.39 108.34 55.55 106.92 55.29 105.71 53.87 105.8 52.73 106.31 51.09 106.06 50.28 106.25 48.98 105.94 47.91 105.71 46.31 104.61 44.97 101.33 41.61 100.1 40.63 98.88 39.85 94.64 36.46 92.1 36.36 90.72 36.92 89.84 36.99 88.39 34.54 88.08 33.29 87.92 31.23 87.14 29.37 86.4 28.01 86.08 26.88 86.16 25.21 86.6 22.32 86.18 20.15 88.04 16.44 89.35 14.44 89.3 13.13 89.85 12.15 89.57 10.77 87.95 7.46 87.75 6.4 88.1 4.96 88.89 3.32 92.75 2.57 95.98 2.2 97.24 1.38 100.17 1 103.37 1.4 104.53 2.3 107.95 3.99 111.39 5.97 114.05 6.84 115.02 8.52 117.42 8.91 118.82 10.21 122.07 9.89 123.78 8.86 126.41 9.52 130.81 9.91 133.56 10.28 135.92 10.69 136.24 12.14 137.07 15.09 137.99 16.55 140.14 18.17 141.34 18.91 143.05 20.86 144.36 21.64 146.81 23.42 148.08 24.62 152.73 26.48 152.5 28.71 153.22 29.82 153.56 31.76 153.44 32.9 153 34.49 152.12 36.78 150.65 41.26 149.25 47.04 153.5 48.53 155.7 50.65 158.91 55.74 158.75 56.94 159.36 57.51 159.63 56 160.2 55.34 162.52 53.91 165.02 53.33 167.42 53.74 168.62 54.4 169.97 56.32 172.22 59.18 174.39 61.85 175.17 62.65 177.3 65.22 179.52 66.29 181.31 66.68 188.7 67.95 191.44 68.03 192.84 67.76 195.65 66.82 199.1 65.41 204.12 64.2 204.53 62.7 204.05 62.38 205 61.51 207.5 58.22 208.82 56.67 210.45 55.53 211.62 55.21 214.53 55.79 218.27 57.25 220.6 59.21 221.72 61.21 222.57 63.8 222.67 66.1 222.28 68.47 220.48 73.06 217.5 76.23 215.99 78.44 215.72 80.52 215.89 85.06 216.12 86.12 215.94 88.32 215.4 92.23 215.39 94.88 214.93 98.16 214.93 100.05 215.61 103.67 216.49 105.01 217.55 106.18 218.32 110.63 219.08 112.37 222.92 117.68 224.27 118.49 226.36 117.87 225.19 114.74 225.42 111.8 227.13 111.73 230.1 110.42 231.76 109.55 233.69 108.67 234.29 107.14 236.19 107.7 237.26 106.94 239.05 106.49 239.76 105.78 240.81 105.88 241.39 105.68 242.2 104.51 242.39 103.42 244.72 101.45 245.84 100.04 246.62 99.55 247.74 98.32 248.42 98.03 249.84 97.02 250.84 96.88 251.22 96.5 252.37 96.62 253.64 96.17 254.57 95.5 255.83 95.54 256.82 95.16 261.31 94.9 264.22 96.89 264.8 97.37 265.75 97.47 266.14 98.23 267.75 98 268.64 96.8 269.8 96.81 270.92 97.41 272.74 97.92 274.78 97.82 279.02 95.93 280.17 96 281.07 95.63 282.14 96.02 283.04 95.76 284.69 95.75 285.69 95.35 286.92 94.27 287.77 93.3 288.62 92.82 289.94 92.49 290.71 92.01 291.48 91.82 292.11 90.97 293.41 90.68 294.59 90.19 295.16 90.26 296.14 90.82 297 91.05 298.04 91.71 299.09 92.03 300.07 92.84 301.27 93.34 302.36 94.95 303.47 95.55 304.71 96.73 306.19 98.65 306.63 99.43 308.77 101.44 309.85 104.79 310.59 105.4 311.13 107.01 312.02 109.22 313.05 112.54 314.37 115.36 315.16 117.62 316.49 117.23 318.18 117.43 318.83 116.14 319.75 115.85 320.54 116.39 322.2 116.04 323.41 116.32 324.54 115.95 326.17 116.22 327.74 115.84 328.9 115.85 330.04 116.07 330.94 115.46 331.96 115.63 333.3 115.23 333.15 114.3 333.48 113.42 334.46 112.85 334.63 111.51 335.8 110.56 335.98 109.11 338 107.09 338.34 105.13 338.01 103.54 338.91 102 338.59 100.94 339.08 100.28 342.03 99.65 343.42 99.84 344.09 96.56 344.68 95.33 344.41 94.75 345.92 94.41 346.53 93.36 347.81 92.54 348.3 91.76 349.65 91.71 350.7 90.53 351.8 90.38 352.43 89.56 353.44 89.69 354.91 90.25 355.76 89.95 356.82 90.22 358.04 90.32 359.02 89.87 360.45 90.22 361.44 90.7 362.7 90.64 363.53 90.01 364.03 89.06 364.04 87.91 365.74 87.03 366.52 87.2 366.51 88.14 367.11 88.95 367.02 89.83 367.75 90.25 368.06 91.24 369.14 92.05 369.07 92.7 370.56 93.67 371.13 94.93 372.12 94.64 372.97 95.35 374.01 95.69 375.17 95.54 376.42 96.23 377.38 95.91 378.32 96.37 379.03 96.13 381.21 96.58 382.12 96.2 382.61 96.5 383.49 96.16 383.74 96.97 384.59 97.14 384.84 98.42 384.77 99.65 385.53 100.44 385.58 101.74 387.57 104.19 387.61 105.61 389.17 105.69 389.94 106.23 390.74 106.04 391.66 106.31 392.73 106.87 393.11 107.62 393.86 107.48 394.36 107.78 395.46 107.45 396.13 107.81 397.56 107.84 398.44 108.65 399.68 108.98 400.86 108.62 402.01 110.1 402.18 111.61 403.03 112.3 402.96 113.78 403.38 115.25 404.29 115.61 404.4 116.89 405.25 118.16 406.07 119.11 406.26 120.52 407.25 121.06 407.68 123.24 408.31 123.85 408.49 125.9 408.39 126.56 409.57 127.21 409.57 128.9 408.93 129.63 408.88 131.05 408.14 132.28 407.23 132.93 406.83 134.21 406.88 135.49 407.58 136.91 409.54 136.18 410.9 136.26 411.74 136.83 414.31 136.22 415.75 136.68 416.12 137.75 416.74 138.59 417.36 140.16 418.11 144.48 419.18 146.58 422.06 150.48 423.73 155.11 425.71 157.66 425.72 160.05 427.51 161.99 427.21 164.38 429.31 166.29 428.87 168.23 429.18 169.16 429.35 171.93 429.91 174 433.37 173.98 435.2 172.93 439.74 171.18 442.37 169.03 444.42 168.01 447.21 166.31 451.02 163.44 452.71 161.8 455.24 161.59 457.51 161.68 460.27 161.28 461.69 159.76 465.62 156.38 468.07 155.55 471.76 155.51 473.7 155.72 478.9 155.03 480.49 155.71 482.2 156.81 486.05 160.25 487.98 160.54 489.34 160.93 489.42 159.29 490.65 157.38 492.14 156.24 491.43 151.09 494.22 146.21 496.7 145.72 499.1 145.34 501.47 143.74 504.4 141.04 505.44 138.78 508.56 135.55 511.79 134.77 515.32 134.35 518.65 134.84 520.17 134.49 521.42 132.69 523.88 129.83 527.51 129.3 533.05 127.28 535.65 126.41 536.47 125.63 531.66 117.34 530.31 113.24 530.29 111.03 532.46 106.72 525.1 102.48 525.11 100.84 524.58 99.09 523.32 97.42 523.37 95.68 522.84 93.93 522.52 92.04 523.89 89.09 523.69 87.09 523.64 84.88 524.41 83.54 526.34 80.58 525.52 79.87 525.51 78.2 526.2 77.49 525.73 74.66 525.43 74.07 525.83 72.89 526.49 72.4 526.6 71.84 527.64 69.38 528.21 68.71 528.73 64.42 531.37 60.94 537.49 65.39 540.01 65.36 542.73 65 545.37 64.73 549.89 64.76 551.09 65.9 551.98 66.04 553.59 66.76 555.02 66.61 557.7 68.16 558.36 67.43 561.53 66.62 563.71 68.04 566.4 69.64 567.92 70.2 569.77 69.61 573.51 68.81 576.59 66.89 579.17 66.02 582.06 64.6 585.3 64.65 592.38 62.71 596.6 63.12 599.18 64.91 601.8 63.97 604.07 63.56 Z" id="32010000"/>
</g>
</svg>