<?xml version="1.0"?>
<svg xmlns="http://www.w3.org/2000/svg" version="1.2" baseProfile="tiny" width="800" height="834" viewBox="0 0 800 834" stroke-linecap="round" stroke-linejoin="round">
<g id="sigung">
<path d="M 724.79 442.84 724.24 442.7 723.55 442 723.01 440.85 723.67 440.99 724.88 442.47 724.79 442.84 Z M 531.45 212.97 532.1 213.99 531.16 214.26 530.71 213.94 530.85 213.01 531.45 212.97 Z M 407.37 64.28 408.29 66.46 407.59 66.1 406.2 62.78 406.48 62.11 407.37 64.28 Z M 799 620.34 797.37 621.99 796.27 622.44 794.07 625.56 793.65 626.51 792.24 628.38 791.86 629.51 791.29 630.54 789.45 632.52 788.83 632.74 787.61 632.62 785.77 632.9 784.92 633.21 783.77 633.11 782.07 633.77 780.82 634.87 779.68 634.87 777.61 634.42 777.17 634.84 776.06 635.02 775.11 635.71 773.67 636.02 771.17 636.86 769.97 636.54 768.65 636.58 768.38 638.9 767.93 639.47 767.97 640.53 767.7 641.44 768.62 642.14 768.87 643.29 769.58 643.24 771 643.68 771.81 644.94 772.66 645.91 773.68 647.51 774.07 648.71 775.14 650.21 775.31 650.94 775.17 652.65 775.25 653.78 773.59 654.63 772.66 655.7 771.74 657.45 771.28 658.6 770.4 663.89 770.92 666.2 769.85 668.43 768.46 668.98 767.57 671.36 767.15 671.61 766.57 673.25 765.44 673.64 765.02 674.3 763.95 675.48 763.92 676.13 762.13 678.34 762.4 680.45 763.12 682.02 763.53 682.35 763.4 684 762.81 685.99 762.44 687.94 762.95 689.53 761.44 691.95 761.55 693.75 761.88 694.59 761.84 697.05 760.82 699.81 759.06 701.85 759.14 703.89 759.78 705.09 759.64 706.25 759.25 707.36 759.5 708.39 759.13 708.86 758.98 710.22 759.45 711.48 758.55 713.96 758.44 715.54 758.73 717.08 759.66 719.53 760.54 720.91 760.86 722.3 761.21 722.92 761.96 723.52 761.27 725.98 760.85 726.62 759.82 727.55 759.3 728.31 758.18 730.91 757.56 731.95 757.88 732.81 757.67 734.53 758.27 735.41 758.21 736.18 757.09 737.54 757.16 738.23 755.27 739.08 753.03 739.34 752.18 738.36 750.22 737 749.41 736.88 747.82 737.5 747.24 737.55 746.28 737.17 744.44 734.08 744.26 732.7 743.52 732.3 742.51 732.41 741.88 733.52 739.73 735.75 738.91 736.33 736.14 737.45 735.25 737.25 734.6 736.8 732.69 737.37 731.64 737.54 730.62 738.02 727.3 739.07 726.28 740.16 724.85 740.28 723.08 741.43 722.51 742.47 722.35 743.5 721.95 744.48 720.96 746.33 720.12 747.42 719.45 748 719.06 749.09 717.58 750.96 717.66 751.73 716.73 752.54 715.97 753.58 714.95 754.09 713.76 755.31 711.85 756.05 709.97 755.59 707.65 753.16 706.03 753.55 705.47 753.92 703.54 754.18 702.89 753.82 701.99 753.85 700.73 753.34 698.98 753.16 698.22 752.33 697.33 752.03 695.38 750.6 693.25 750.47 689.98 749.44 689.14 749.69 687.47 749.77 686.21 747.47 684.72 747.68 682.95 747.52 681.87 747.69 679.67 747.63 678.26 748.22 677.22 749.31 674.94 750.09 673.39 751.22 670.3 754.12 669.26 755.23 668.2 755.78 667.85 756.71 666.79 758.22 666.05 759.02 665.58 759.92 664.72 760.58 664.81 761.56 664.14 762.47 663.62 762.73 663.13 765.12 662.58 765.96 661.12 765.49 659.44 765.55 657.42 766.49 656.3 766.47 654.56 766.62 652.55 767.59 651.5 767.78 649.83 767.5 648.42 766.57 646.6 766.23 644.6 765.58 643.65 765.59 642.19 766.16 640.61 766.34 639.77 766.71 637.77 763.7 637.71 761.5 636.14 760.55 634.24 760.74 633.86 760.4 631.42 757.18 631.4 755.06 628.37 753.73 626.08 750.52 622.42 748.14 621.16 742.5 620.6 738.96 619.71 736.96 617.01 737.72 617.5 740.15 617.41 742.48 616.49 743.53 615.33 745.45 614.4 745.45 614.1 746.14 612.92 747.01 613.55 748.2 613.29 748.6 610.24 751.85 608.79 751.97 607.48 751.7 606.99 752.03 604.83 753.02 604.08 753.02 603.07 753.64 602.37 755.04 600.91 755.59 595.55 753.35 595.06 752.6 593.47 753.15 593.17 753.53 592.37 753.72 590.67 756.03 590.64 756.72 588.8 758.11 587.76 758.1 586.91 758.96 584.93 759.06 584.42 759.29 582.93 759.18 581.81 759.81 578.64 758.84 577.18 759.16 576.1 757.67 574.57 757.78 573.29 756.74 572.97 756.18 573.21 753.39 572.32 751.74 572.26 750.89 571.34 749.95 569.52 750.56 569.2 750.16 566.87 749.43 565.29 747.03 564.07 746.36 564.05 745.54 563.05 743.75 562.63 743.45 562.62 742.38 561.43 741.2 560.14 741.59 558.58 741.17 557.06 741.24 556.17 740.92 553.46 740.5 552.26 738.86 549.77 738.24 549.13 739.33 547.72 739.92 545.82 737.45 544.96 735.44 545.39 733.56 544.75 732.11 543.56 731.69 542.25 730.31 540 730.09 538.08 730.26 535.46 730.63 534.89 730.44 533.83 730.99 530.78 731.01 530.03 729.29 529.56 726.85 528.63 725.33 529.71 720.59 529.14 716.52 529.96 713.4 528.97 710.21 528.87 709.52 527.82 709.08 528.2 704.61 530.17 701.92 529.28 699.25 528.51 695.39 527.33 693.26 526.27 693.39 523.05 693.22 522.44 692.45 522.69 688.23 521.38 686.53 520.16 680.33 519.46 677.73 519.73 674.81 517.55 672.62 518.22 668.2 516.31 666.19 516.64 662.83 513.73 663.32 512.71 662.77 511.3 660.81 508.36 659.54 506.01 659.8 504.54 659.34 503.86 656.29 503.01 653.4 502.07 651.99 496.86 650.78 495.15 650.75 494.28 651.17 491.99 651.78 491.04 654.38 489.03 655.64 487.05 656.52 484.5 659.85 483.08 658.89 481.83 658.27 477.79 657.61 477.13 660.82 475.86 662.56 475.46 664.37 474.57 665.4 475.27 667.32 475.05 667.86 473.82 668.05 473.12 670.8 472.33 672.48 472.76 673.18 472.41 674.95 471.51 676.96 470.54 678.23 470.25 679.08 468.62 679 468.12 679.86 467.19 680.6 466.28 682.75 466.08 684.46 464.21 685.53 462.78 686.97 461.81 690.07 460.96 694.1 460.02 696.57 461.09 700.6 461.42 705.56 461.43 707.38 461.21 708.22 460.55 709.12 459.2 710.02 459.24 711.58 455.34 715.24 455.53 716.36 455.93 717.19 455.96 718.88 456.42 718.87 456.3 721.45 456.51 723.58 456.18 725.91 457.33 727.09 460.38 728.7 460.13 729.16 460.82 730.38 460.76 731.51 460.42 732.05 460.6 733.17 460.41 734.11 459.98 734.66 460.2 736.02 459.27 738.04 459 739.11 459.18 739.68 457.87 741.49 456.46 742.23 456.69 743.7 456.39 744.46 456.55 746.38 457.13 746.77 457.7 747.59 457.39 748.64 458.13 749.84 457.65 750.64 457.59 751.81 457.91 752.97 456.99 754.29 457.05 755.3 457.4 755.98 456.72 756.79 456.49 758.41 455.85 759.67 454.87 759.86 454.2 761.76 453.23 762.21 452.97 763.46 451.71 763.04 451.05 763.4 450.65 765.52 450.71 767.82 450.95 768.6 450.97 770.15 451.4 770.49 451.42 771.29 451.82 771.99 451.64 772.6 450.91 773.54 450.8 774.22 449.69 776.38 448.39 778.34 448.29 779.52 448.58 782.03 448.29 782.83 448.99 784.74 450.26 785.64 450.23 786.92 449.91 787.26 449.96 788.31 449.55 789.74 448.76 789.75 448.08 790.2 447.75 791.21 447.03 791.37 446.89 791.86 445.52 792.23 444.87 791.81 444.28 792.29 442.08 793.55 441.92 793.85 440.25 794.75 439.9 795.49 442.02 797 442.99 798.37 442.9 799.82 442.27 801.27 441.18 803.39 440.62 804.17 440.63 805.51 441.43 806.89 441.15 807.52 440.18 808.55 438.39 809.15 436.46 810.83 432.18 813.47 431.11 812.91 430.42 812.18 428.82 813.63 427.89 814.63 426.29 814.66 425.19 814.87 424.3 814.54 421.61 813.82 420.48 813.12 417.52 812.6 416.14 813.37 415.86 814.06 415.12 814.17 413.74 815.56 413.5 816.97 412.08 818.84 409.81 819.77 408.54 820.65 405.11 822.09 402.87 822.54 399.98 823.55 396.64 825.08 394.27 827.02 393.96 827.61 392.27 828.61 391.64 829.27 390.64 830.86 390.11 830.86 388.84 831.34 387.78 832 386.94 832.03 386.56 832.6 385.56 833 386.37 829 386.1 828.46 386.63 826.91 386.38 826.39 385.26 825.28 383.97 824.62 382.82 823.62 382.56 822.91 382.93 821.95 382.42 820.27 381.99 819.73 380.67 819.61 380.07 818.97 379.63 817.99 376.95 816.5 376.04 815.41 375.99 813.56 374.91 812.85 373.58 812.33 372.02 812.08 367.24 809.53 362.3 806.43 361.73 805.24 359.15 803.06 359.41 802.55 359.45 800.6 359.91 799.59 359.76 798.86 360.03 797.49 358.94 796.19 358.36 794.24 358.68 792.89 358.7 789.39 358.83 788.16 358.07 786.55 359.03 785.94 359.61 784.91 358.59 784.45 358.12 783.25 358.14 782.55 357.76 781.96 356.23 780.64 355.06 780.73 353.27 780.33 352.44 780.41 351.79 777.46 350.7 775.85 350.26 775.61 349.65 774.48 349.64 771.73 349.5 769.38 350.66 767.07 350.98 765.59 349.74 764.12 349.56 763.46 348.84 763.11 347.48 761.55 345.87 760.62 344.66 760.13 343.3 760.28 342.63 759.86 341.33 758.11 339.95 758.35 338.89 758.3 338.19 757.25 337.06 756.7 335.14 755.4 331.49 753.26 329.98 752.73 325.76 752 320.66 754.91 319.13 754.46 317.25 754.64 313.43 754.09 311.21 754.19 309.25 753.4 307.35 754.24 306.71 754.78 305.45 755.21 303.52 756.62 301.93 757.19 301.29 757.83 299.33 757.12 297.99 757.17 296.32 756.4 295.29 755.55 293.75 754.73 292.65 753.4 292.44 752.54 291.42 752.66 288.86 751.67 287.52 750.94 286.98 751.05 285.08 750.6 284.8 750 284.01 749.77 281.56 747.97 279.78 747.38 278.42 748.09 276.59 747.73 275.45 747.22 274.22 747.58 273.13 748.98 270.96 749.64 269.71 749.59 267.34 748.27 265.44 746.62 264.62 746.12 262.1 746.48 261.2 746.92 260.62 748.13 259.83 749.02 259.63 750.07 259.02 750.64 258.92 751.2 257.99 751.78 257.87 752.17 256.51 752.88 255.64 753.03 254.98 753.52 253.86 753.91 252.73 755.63 252.43 756.55 250.55 757.92 248.51 761.64 246.55 763.96 245.84 766.22 241.29 770.11 240.42 771.14 238.96 772.27 238.35 773.78 238.74 776.07 238.26 779.43 235.92 783.8 234.21 784.77 232.56 782.33 229.93 780.24 228.37 779.92 226.83 779.87 225.07 779.11 222.93 779.15 221.4 779.34 219.59 779.26 218.57 779.41 216.71 778.87 213.79 778.15 213.36 777.63 211.82 776.68 210.12 774.29 209.13 772.46 208.09 772.11 206.21 772.17 204.96 771.93 203.63 770.57 202.3 770.13 201.93 769.63 200.69 769.44 199.58 768.12 198.53 767.2 196.96 765 195.75 762.2 193.8 760.81 192.59 760.34 191.77 757.55 191.4 757.01 190.35 756.61 190.21 754.84 189.02 751.32 188.71 750.71 188.06 748.11 185.45 744.28 184.97 741.78 184.88 740.65 184.17 737.78 183.37 737.2 182.84 736.26 182.05 734.26 180.35 733.19 179.84 733.01 179.11 731.85 179.06 731.42 177.63 730.98 177.08 730.58 175.13 728.7 174.9 725.65 175.3 724.32 175.7 723.56 176.04 719.35 175.32 717.39 175.04 716.11 173.53 714.62 172.23 713.05 168.53 710.68 167.39 708.92 167.8 704.96 167.43 703.29 167.76 702.12 168.52 701.3 169.58 699.2 169.51 698.38 170.07 696.18 171.24 695.26 171.08 693.33 171.5 692.2 171.72 690.33 171.12 689.68 171.39 688.38 171.68 687.86 171.26 686.4 171.17 683.35 171.46 681.76 171.86 680.54 172.93 678.79 172.49 677.39 172.84 675.92 172.93 673.72 173.18 672.96 173.02 671.72 173.39 670.47 173.52 668.99 173.94 666.87 173.77 665.88 174.16 665.41 174.87 662.61 175.15 660.39 174.78 658.71 174.23 658.25 174.55 654.97 176.08 655.23 178.35 656.35 179.62 656.56 180.97 657.17 183.01 656.92 183.49 656.99 184.83 657.72 187.43 658.38 188.54 658.05 189.34 657.41 191.13 657.54 192.79 658.14 195.35 657.12 195.97 657.03 197.88 655.42 198.48 655.21 200.09 656.26 201.14 657.32 203.25 658.5 204.75 659.91 205.37 660.8 205.84 662.14 207.42 662.57 208.94 663.29 211.57 664.2 213.7 664.75 217.3 665.07 218.45 664.7 219.69 664.63 219.44 662.38 219.6 660.15 221.25 658.15 223.11 656.95 224.85 656.05 226.34 654.97 226.29 651.59 226.15 650.75 226.34 647.23 226.73 643.98 226.56 642.52 226.71 639.77 226.52 637.05 226.43 633.09 227.52 630.49 229.1 627.95 230.17 626.63 230.9 625.96 231.94 623.76 233.82 622.19 235.29 620.74 236.36 618.75 236.97 618.87 238.26 619.97 238.74 620.61 240.22 620.47 241.84 620.59 243.31 621.34 244.89 621.07 246.06 621.34 248.38 622.14 251.17 622.58 252.76 622.71 253.94 622.96 256.4 622.86 257.11 621.88 258.05 621.5 258.19 620.52 257.66 618.73 257.75 617.99 256.93 616.55 257.48 615.78 257.43 615.34 257.89 613.88 258.76 612.89 258.56 611.1 258.19 610.16 258.2 607.39 257.37 605.84 257.16 604.86 257.63 603.65 257.47 602.36 256.7 601.41 256.85 600 256.69 595.6 257 594.59 256.79 593.29 256.73 591.32 257.04 589.39 256.85 588.27 255.96 587.81 256.32 585.78 256.51 585.49 256.19 583.44 255.45 581.85 255.18 580.9 254.14 579.63 254.05 579 253.05 578.11 252.22 576.86 251.39 575.27 250.52 574.55 249.41 572.8 246.76 572 245.35 568.33 244.48 567.38 244.33 565.12 244.86 563.56 245.8 561.84 246.88 561.07 247.46 560.23 247.38 556.98 248.01 554.25 248.38 553.75 249.86 550.2 252.21 547.08 249.79 542.93 248.9 541.22 250.66 536.72 250.96 535.16 250.64 533.76 251.45 531.61 251.43 530.9 252.66 530.35 253.46 529.77 255.22 528.12 256.49 527.3 257.59 527.04 260.64 525.55 264.01 525.28 266.08 523.49 267.58 522.7 267.73 521.4 267.49 519.76 268.21 517.61 269.05 516.85 269.22 514.47 271.09 513.01 271.3 511.13 270.68 510.18 273.04 507.21 273.99 507.28 276.59 506.96 277.14 506.43 278.35 506.34 280.37 504.88 280.3 503.62 280.62 502.91 281.22 500.44 282.11 500.41 285.67 499.17 287.05 499.22 288.53 498.16 290.63 497.02 291.99 496.98 294.19 497.19 296.02 496.03 296.95 494.87 300.2 494.45 301.16 493.76 301.27 492.55 300.68 491.69 300.68 490.51 299.84 487.53 299.66 486.18 298.37 483.74 298.17 481.68 298.47 479.51 299.15 478.15 295.99 476.18 293.89 473.96 293.92 471.65 294.46 469.76 294.55 467.79 294.22 466.83 291.72 467.11 291.25 463.88 291.41 463.24 291.39 460.23 290.26 456.85 290.39 455.8 291 454.28 290.42 452.91 290.07 451.25 289.57 450.64 288.75 450.88 287.89 450.12 285.17 444.11 284.12 442.01 283.44 440.38 283.12 437.95 283.53 435.38 284.39 432.27 284.12 431.44 282.22 428.84 282.26 425.96 283.74 424.49 281.22 422.44 280.82 418.2 279.14 416.8 276.51 415.2 273.88 413.8 272.15 411.55 272.38 410.79 271.52 408.9 270.52 403.04 272.97 399.77 272.1 399.14 267.71 395.1 266.58 392.88 266.89 389.97 268.23 386.16 266.56 384.14 265.53 382.15 265.45 379.65 266.77 377.36 266.97 376.15 266.54 371.56 265.5 368.4 265.5 361.35 264.7 356.76 261.43 355.62 258.09 356.49 255.51 354.77 252.08 351.24 251.9 349.72 249.07 348.45 248.47 347.29 245.45 344.53 242.91 344.08 239.02 342.8 234.98 341.11 234.24 340.03 233.01 339.38 231.36 337.51 231.61 335.22 230.73 333.92 231.63 332.35 229.99 329.87 228.4 328.87 227.43 328.98 226.55 328.27 224.11 327.95 223.08 328.11 222.27 325.22 219.63 322.42 218.34 320.42 218.31 319.45 215.75 316.95 215.71 315.28 213.31 314.09 210.11 312.97 210.77 310.95 212.35 310.28 210.83 307.36 209.88 306.79 208.04 304.32 203.56 302.93 200.33 303.8 199.03 302.73 198.93 300.7 194.16 299.57 191.13 298.03 189.47 300.68 188.61 301.08 187.32 299.12 186.24 300.09 185.12 300.33 182.67 300.49 179.39 301.48 177.1 299.29 174.95 298.98 173.3 296.33 169.51 294.97 168.14 295.72 166.05 295.4 164.96 296.11 161.52 295.15 160.6 295.42 159.79 296.31 159.45 297.32 157.41 298.78 157.01 299.42 155.74 299.26 154.09 300.51 151.73 301.71 151.72 302.46 149.88 304.36 148.15 305.81 147.39 307.77 145.78 306.52 144.82 304.93 141.75 302.01 139.64 301.12 139.19 301.05 134.69 301.03 130.96 300.75 129.64 299.48 127.42 297.86 125.92 299.26 123.06 299.07 119.97 296.54 118.86 296.61 118.49 295.82 116.16 294.47 114.51 294.46 113.58 292.9 110.13 289.68 105.9 287.95 103.15 287.84 102.76 287.58 101.56 284.94 99.23 284.09 96.88 281.88 96.04 278.26 96.03 277.42 93.4 277.41 92.38 277.84 91.96 278.86 89.65 279.86 87.94 281.91 86.97 283.68 86.85 285.79 84.74 289.46 84.27 293.84 83.11 294.98 82.78 296.72 81.39 297.52 78.04 296.89 77.35 297.23 75.13 301.68 71.98 303.66 70.34 301.96 65.57 304.38 63.18 303.52 60.03 304.3 58.54 303.37 57.72 301.92 56.64 302.01 55.04 304.04 53.11 307.82 51.54 308.79 51.24 309.5 51.01 310.81 49.22 310.6 47.15 309.28 46.46 307.54 45.02 306.56 43.32 306.14 40.6 305.04 38.21 304.72 36.95 303.57 35.91 302.11 34.56 299.7 32.21 294.47 32.63 288.91 33.97 284.71 35.53 283.15 35.26 281.29 36.15 280.67 35.94 278.5 35.6 276.65 35.35 268.96 34.68 267.18 33.63 265.87 34.07 264.07 33.56 262.34 33.21 260.07 34.27 259.01 35.3 257.67 36.01 255.69 34.83 252.33 34.9 250.37 35.32 247.39 34.37 244.06 34.75 242.1 34.7 239.69 34.15 238.48 32.75 237.42 31.25 237.14 30.54 236.21 30.16 234.47 30.88 231.71 31.88 230.57 32.9 225.51 31.19 224.62 29.65 223.11 28.07 220.05 25.82 218.18 23.85 215.56 19.83 211.22 16.12 209.92 13 208.15 9.51 206.36 8.43 205.11 7.28 203.14 5.01 200.72 3.42 197.9 3.09 196.83 2.75 194.11 2.3 192.76 1.26 191.21 1.43 189.45 1 187.54 1.45 185.96 2.32 181.49 3.2 179.55 3.94 178.58 3.35 177.37 3.1 175.31 3.19 174.42 2.67 172.67 3.34 171.03 2.65 167.93 3.04 166.61 4.14 165.92 5.17 162.68 5.61 161.65 4.77 159.16 5.33 158.04 7.16 156.83 8.14 154.55 9.49 152.91 9.06 151.69 9.54 150.73 8.83 149.15 7.59 146.89 7.79 144.72 8.5 143.5 8.85 141.86 9.81 140.31 11.16 139.11 11.35 138.7 11.35 136.94 10.92 135.02 11.55 133.26 11.26 131.66 12.61 129.58 12.59 127.94 13.1 125.91 13.32 123.16 13.3 120.97 12.04 118.93 12.3 118.95 14.82 116.55 16.44 114.31 17.63 112.04 18.22 111.66 21.65 111.25 22.81 110.53 24.06 110.46 27.32 110.78 28.52 108.89 29.28 107.04 30.33 105.84 30.56 104.35 31.41 102.89 32.7 101.15 34.1 101.22 36.28 100.79 37.35 100.89 39.07 100.62 39.98 101.67 41.96 101.7 43.15 101.17 46.16 100.2 47.19 99.42 49.61 100.07 51.99 99.05 53.43 99.38 55.51 98.14 58.06 97.99 58.86 98.31 60.01 98.24 61.18 98.53 63.84 97.31 64.62 95.54 64.96 93.53 65.71 93.51 66.75 92.68 68.12 92 68.4 90.39 68.01 86.73 67.52 85.76 68.06 84.99 69.8 84.27 70.37 83.58 68.01 80.82 68.63 80.21 69.23 78.54 71.18 77 73.04 76.71 74.44 73.42 75.06 72.79 75.69 71.71 77.7 70.38 79.07 70.28 79.99 68.94 81.39 68.58 83.28 67.08 85.65 66.25 86.02 65.53 86.08 64.77 87.04 63.16 88.83 61.91 89.31 61.01 90.59 59.74 91.92 57.76 89.51 57.87 89.68 57.38 92.24 57.34 92.85 56.56 94.28 55.46 95.49 54.28 96.87 52.46 98.36 51.42 99.13 52.53 102.28 53.82 101.92 55.21 103.38 56.48 104.6 57.15 105.72 58.22 106.19 59.23 108.76 59.43 111.13 59.72 113.19 59.19 114.11 59.33 115.93 59.36 119.75 57.96 120.07 57.61 122.04 57.31 125.26 57.2 132.33 59.06 133.37 59.61 134.08 62.26 135.44 64.4 135.64 65.81 136.51 67.18 136.51 68.84 137.12 69.13 138.4 68.95 140.47 68.9 141.11 68.72 141.47 68.04 143.87 67.53 145.01 65.26 148.09 63.68 150.06 62.42 151.72 60.65 152.85 60.84 155.42 59.7 157.11 59.98 157.74 60.22 158.76 59.86 159.68 59.79 160.17 59.48 162.05 60.29 162.25 60 164.15 58.95 166.4 56.49 166.68 55.93 168.02 55.04 169.76 55.13 170.64 54.79 171.99 54.88 173.05 54.25 175.34 54.01 178.87 51.38 180.29 49.04 182.03 48.37 183 47.57 183.72 47.6 186.13 46.06 188.2 45.16 189.57 44.22 192.52 42.66 195.49 43.08 196.23 43.67 201.04 43.38 203.15 44.71 205.97 43.13 207.34 42.94 210.35 41.63 210.14 39.77 211.38 38.87 213.04 36.81 213.91 35.97 216.84 34.71 216.93 33.77 218.45 32.18 219.48 33.35 226.06 35.04 226.7 34.42 227.97 34.17 228.99 33.61 231.98 33.36 233.18 35.04 235.31 36.63 239.27 38.1 240.62 38.82 244.12 36.39 244.76 36.21 245.39 34.88 245.33 33.38 245.65 32.84 246.81 31.59 250.78 30.78 252.13 31.27 254.07 31.38 255.55 30.63 256.07 30.14 257.88 30.44 258.6 30.4 259.96 29.75 260.58 27.79 261.42 26.94 262.09 25.81 262.01 24.41 262.71 23.32 262.39 21.5 262.87 19.67 264.08 18.5 266.05 18.92 267.21 18.42 267.82 17.94 268.86 17.68 270.28 16.95 271.7 16.38 272.38 14.49 274.05 13.32 276.99 12.67 278.01 12.75 279.22 13.1 279.88 14.14 279.8 14.76 281.33 16.21 283.16 16.76 283.5 17.18 284.43 17.44 286.31 17.45 288.03 17.94 289.61 17.1 290.39 16.88 291.44 17.07 291.89 17.61 293.4 17 294.23 17.07 295.43 16.24 296.42 16.43 298.47 16.12 300.21 17.32 300.65 17.85 302.34 15.68 305.04 15.13 306.2 16.72 308.89 16.96 310.56 15.92 310.91 15.54 310.84 14.64 312.15 12.44 312.57 11.52 312.6 10.8 313.19 10.25 314.02 10.17 315.51 10.48 317.57 9.89 318.83 8.71 319.78 8.7 320.29 8.41 320.61 7.54 321.71 7.51 322.21 7.8 323.76 7.9 324.44 8.45 325.91 10.04 326.49 10.25 329.09 10.73 331.31 10.08 332.52 10.79 333.83 11.35 335.24 11.26 337.38 12.2 338.59 11.81 339.53 11.7 341.43 12.27 342.07 11.75 342.16 10.87 343.31 10.46 345.18 11.09 346.95 10.46 348.97 10.11 351.9 10.45 353.18 10.29 354.61 8.95 354.63 8.62 355.95 6.98 356.77 5.17 357.17 4.82 357.94 4.9 358.62 4.48 359.62 3.21 360.59 2.85 361.37 2.16 363.46 1 364.75 2.42 367.62 4.79 369.95 6.47 372.79 8.79 373.61 9.35 375.21 10.15 376.99 11.23 378.56 12.77 380.02 13.96 381.61 15.96 382.76 16.99 384.18 18.48 386.14 20 386.51 20.41 387.83 21.21 389.86 21.18 392.51 21.84 393.22 21.11 393.75 21.34 394.17 22.6 395.05 23.26 395.78 23.32 396.96 25.17 397.6 25.92 397.69 26.53 399.05 27.73 398.69 27.95 397.01 26.42 396.58 25.68 395.12 26.45 395.29 27.75 396.55 27.65 396.59 28.05 394.98 28.22 394.88 28.88 395.64 30.83 396.24 31.43 398.08 31.89 398.62 32.25 398.06 32.97 398.49 33.82 399.33 34.2 399.82 33.9 400.15 34.59 401.93 34.29 402 35.08 402.89 35.79 403.08 36.38 402.7 36.82 402.62 37.75 403.66 39.95 403.69 41.09 402.71 41.65 402.46 42.11 402.55 43.26 403.05 43.71 403.24 44.4 402.49 47.83 402.06 49.12 401.13 50.37 400.55 52.61 400.7 54.51 401.5 58.98 401.86 60.4 403.3 63.09 404.43 63.51 404.33 64.16 402.84 63.64 401.36 60.42 400.18 54.25 400.09 52.66 400.68 50.17 400.49 49.89 401.38 48.53 400.93 46.29 398.84 46.79 396.91 48.06 396 49.06 396.26 49.31 395.49 50.26 397.54 51.61 397.56 52.61 395.64 52.59 395.65 53.68 395.18 53.68 395.12 57.55 394.77 57.75 394.69 59.36 394.85 59.85 397.04 59.89 396.99 63.95 398.67 63.59 399.33 61.7 399.63 61.81 398.95 63.74 398.58 64.05 397.57 64.24 396.78 66.18 396.85 66.97 397.81 68.64 398.81 69.49 402.11 67 401.93 67.46 399.27 69.45 399.68 70.36 400 71.74 400.46 72.45 401.44 73.18 401.45 73.59 402.71 75.68 403.34 76.13 403.91 77.15 406.38 80.29 407.83 82.26 411.17 86.12 413.59 88.64 416.98 92.57 418.29 93.8 419.35 94.34 420.07 94.27 420.52 95.46 421.32 96.39 422.21 97.07 423.76 97.96 424.81 98.09 426.29 97.57 426.68 98.8 427.32 99.73 428.12 99.84 428.69 100.41 429.85 103.27 429.38 103.28 428.26 100.78 427.94 100.46 426.9 100.3 426.48 100.58 427.15 102.34 427.71 102.81 427.11 104.18 427.3 106.45 427.68 107.19 429.77 109.9 431.48 111.86 435.47 116.16 437.75 118.42 439.71 120.62 442.22 123.09 444.63 125.65 445.5 126.83 446.3 126.82 446.54 127.28 449.32 129.97 451.86 132.54 454.85 135.34 460.18 140.52 462.48 142.49 464.52 144.67 465.59 145.96 466.97 147.1 468.6 149 469.42 149.63 471.56 152.07 472.4 152.7 473.23 153.01 473.42 155.31 473.92 155.65 473.39 156.7 473.61 158.07 474.32 158.95 474.41 159.64 476.82 162.12 476.78 164.44 477.12 165.51 477.99 166.8 477.52 167.05 476.17 165.17 476.22 162.96 476.11 162.42 473.72 160.02 471.64 159.8 471.31 164.96 471.76 165.33 473.32 165.18 474.66 166.52 474.16 166.67 473.15 165.89 471.27 165.82 471.02 165.97 472.25 167.25 473.01 166.08 473.62 166.28 473.11 167.91 473.13 168.58 473.57 169.96 474.16 170.7 476.24 169.91 476.43 170.27 474.96 170.79 475.07 171.88 475.46 172.78 477.04 175.65 478.82 177.7 480.77 180.26 482.65 181.89 484.26 183.63 485.54 184.71 486.34 185.76 488.17 187.37 489.38 188.14 490.46 189.55 492.37 191 494.4 193.53 496.54 195.88 497.55 196.45 498.55 197.63 502.55 202.03 504.92 204.19 505.51 205.03 506.57 205.78 507.88 205.92 508.16 207.05 508.68 207.73 510.7 208.9 510.29 209.44 512.87 212.27 515.63 215.01 519.44 217.89 521.36 219.48 523.76 221.11 525.39 222.6 527.59 225.95 529.22 227.84 530.84 229.26 531.35 230.15 532.77 231.82 533.23 232.58 534.37 233.95 536.86 236.19 537.42 236.5 537.91 237.46 538.88 237.62 539.61 239.04 540.25 238.9 540.93 239.69 540.23 240.1 540.59 241.11 541.06 241.49 543.27 244.14 543.94 243.99 544.86 245.6 545.86 246.53 547.07 248.02 548.39 249.19 551.42 252.25 553.05 253.79 555.98 256.34 557.53 257.89 560.21 260.79 560.99 261.38 563.03 263.38 564.04 264.21 565.65 265.79 567.02 267.33 569.68 269.66 572.04 271.64 574.15 273.84 574.83 274.67 576.03 275.64 578.52 277.86 579.59 278.62 581.75 280.82 583.89 282.67 586.63 285.42 589.59 287.75 590.96 288.72 592.1 289.12 592.66 289.1 592.87 288.45 594.26 286.62 595.22 286.49 599.75 286.3 599.89 286.35 603.82 290.13 603.71 290.95 602.99 290.89 602.96 290.3 599.54 287.04 595.48 287.16 594.25 288.57 595.63 289.8 595.02 290.45 597.84 293.06 599.62 293.03 600.29 291.03 600.31 290.26 600.91 290.21 601.07 291.01 599.95 294.21 596.8 294.16 596 294.63 594.73 294.94 594.81 297.05 595.22 298.14 598.35 298.35 598.24 299.16 598.5 299.97 601.02 303.53 602.68 305.22 603.21 306.03 606.01 308.83 606.98 309.64 609.05 312.09 610.42 313.11 610.95 313.26 612.51 314.65 612.92 315.32 613.53 314.99 613.94 316.09 615.4 317.4 616.35 317.47 616.84 318.84 618.05 320.35 619.04 321.05 619.76 321.9 622.51 324.73 623.62 326.19 625.76 327.77 627.17 328.64 630.49 331.01 631.84 332.46 632.89 333.3 634.45 335.65 636.64 337.56 637.4 338.11 639.59 340.14 642.17 342.36 643.01 341.46 644.51 341.41 646.28 342.85 646.5 343.65 645.61 344.79 645.89 345.43 648.68 347.72 650.33 348.41 651.65 346.96 652.82 346 654.51 345.9 654.48 346.33 652.88 346.36 651.86 347.27 653.42 348.67 653.41 349.03 652.28 350.52 652.58 351.46 653.06 352.11 654.4 352.56 656.4 351.43 656.33 353.25 656.11 354.61 656.02 357.19 655.82 357.78 657.2 357.72 659.53 359.26 659.92 359.97 657.47 358.27 656.05 358.32 656.14 359.69 657.6 361.15 658.62 360.23 659.18 360.36 657.64 361.66 657.97 362.45 658.66 362.57 658.86 364.26 658.55 364.67 658.76 365.35 660.09 368.13 660.98 369.8 662.12 371.23 662.08 371.65 663.54 373.55 664.28 373.02 664.59 374.34 664.58 375.01 665.45 377.03 666.1 378.04 666.79 377.91 667.68 378.77 667.45 379.87 667.76 380.69 669.55 382.41 670.43 382.91 671.05 382.77 673.06 383.18 672.78 385.14 676.15 387.73 676.66 387.82 676.79 388.53 678.34 390.48 679.43 390.63 680.07 391.54 680.77 392.08 683.2 395.63 685.06 397.66 686.57 399.07 687.89 401.23 688.57 402.59 689.31 403.3 690.63 403.63 691 403.99 692.17 404.33 692.76 405.44 692.9 406.54 693.44 407.18 693.54 407.86 695.35 409.24 695.08 409.67 695.41 410.74 696.18 411.9 695.75 413.12 695.88 414.24 696.23 414.82 697.08 415.29 696.93 415.66 697.8 416.88 699.05 417.72 699.28 418.24 701.37 421.06 703.49 423.45 704.49 424.28 707.41 427.13 707.97 427.27 708.87 428.45 711.54 431.04 713.67 432.92 715.87 435.43 718.85 438.45 721.1 440.09 722.07 441.08 723.21 441.91 727.56 445.75 728.79 447.09 729.98 448.08 730.9 448.47 731.81 448.3 731.71 449.25 732.23 450.37 733.01 451.55 733.89 452.46 736.73 454.5 738.15 455.76 739.17 456.45 740.03 457.38 741.23 458 742.04 457.78 742.77 458.57 743.42 458.66 745.41 456.83 745.96 457.05 743.87 458.79 744.1 459.8 745.52 461.19 746.74 461.19 747.59 459.97 748.47 460.12 748.34 460.59 747.46 460.6 747.13 461.11 747.91 461.42 748.43 462.23 749.07 462.61 750.23 462.92 749.7 463.68 750.13 463.96 750 464.58 751.44 465.05 751.95 465.76 752.2 467.39 752.62 467.73 754.2 467.95 754.37 468.88 754.93 469.08 755.27 470.25 756.89 471.49 757.36 472.19 758.77 472.99 759.41 473.15 759.88 474.33 760.56 474.34 760.62 475.22 761.97 475.86 761.97 476.79 762.75 477.3 764.21 477.27 765 478.34 765.09 479.4 764.26 480.61 763.88 481.98 764.45 483.22 765.89 483.74 767.16 483.69 767.41 483.29 768.57 483.06 767.39 484.8 767.67 485.9 767.39 486.28 767.56 487.36 767.01 488.44 767.35 489.31 766.59 490.21 767.11 491 766.97 491.94 766.59 492.05 766.44 493.13 765.88 493.8 764.68 494.54 765.13 495.44 764.56 496.06 764.71 496.8 764.19 497.59 765.02 498.97 765.87 499.91 765.31 500.12 763.93 498.04 761.63 499.38 762.03 500.61 764.14 500.87 764.61 502.68 765.2 502.99 765.54 504.82 764.9 507.04 765.07 507.7 765.69 508.14 766.8 508.34 766.93 510.16 766.63 511.5 767.79 511.8 768.01 512.71 766.98 514.56 766.58 514.71 765.57 516.33 766.13 516.98 766.11 517.9 765.44 518.52 765.66 519.25 766.11 519.44 766.24 520.16 765.15 520.74 764.42 521.46 763.92 523.53 763.55 524.04 761.58 524.64 761.39 524.83 761.45 529.73 761.26 530.41 758.42 535.26 757.94 534.54 758.48 534.28 760.92 530.06 760.73 529.88 760.67 526.28 758.81 526.31 758.89 525.84 756.92 526.25 756.24 528.1 755.32 528.84 754.56 529.08 753.84 530.43 754.66 530.89 754.63 531.62 757.02 532.96 756.95 533.23 754.12 531.73 753.03 532.87 751.93 534.58 751.38 535.96 751.01 537.42 750.54 538.36 750.45 539.84 750.59 540.6 750.42 542.17 749.17 543.88 748.55 544.1 748.18 545.06 748.04 547.15 748.09 548.59 748.47 550.35 749.04 553.68 750.15 556.52 750.39 557.48 751.41 560.04 752.29 561.94 753.2 563.49 754.03 565.44 755.71 568.21 756.5 569.85 758.68 573.32 760.13 575.43 760.7 576.77 763.45 578.21 766.52 578.21 770.65 578.05 771.95 578.76 780.43 583.69 781.46 584.2 781.31 585.13 780.29 584.68 779.98 584.27 777.01 582.6 772.67 580.05 770.41 578.79 768.02 578.69 767.92 579.04 764.6 579.11 765.03 579.66 765.21 587.91 772.61 589.32 773.79 589.79 774.1 589.51 774.05 584.7 774.42 584.69 774.53 585.72 774.54 591.84 774.63 593.62 774.85 593.96 778.22 595.75 777.76 596.42 779.74 599.04 779.9 599.78 779.71 600.63 780 601.36 783.46 605.48 788.8 610.98 792.67 614.74 796.46 618.19 799 620.34 Z M 644.5 344.39 645.52 343.79 645.67 343.17 644.37 342.06 643.37 342.11 642.98 342.99 644.04 344.11 644.5 344.39 Z" fill-rule="evenodd" id="32030000"/>
</g>
</svg>