<?xml version="1.0"?>
<svg xmlns="http://www.w3.org/2000/svg" version="1.2" baseProfile="tiny" width="800" height="1247" viewBox="0 0 800 1247" stroke-linecap="round" stroke-linejoin="round">
<g id="sigung">
<path d="M 799 1062.6 794.71 1066.73 787.78 1070.14 784.01 1076.29 781.6 1076.72 774.53 1076.62 770.8 1077.18 762.28 1082.87 758.98 1085.81 758.2 1087.5 754.31 1090.68 747.86 1093.98 744.97 1093.32 741.25 1095.63 734.43 1095.93 730.42 1102.39 727.77 1104.14 724.84 1104.72 720.5 1109.03 719.25 1111.26 715.18 1115.55 712.08 1117.19 711.14 1120.51 713.93 1129.96 713.83 1135.49 711.58 1136.09 706.95 1144.41 701.36 1148.99 696.17 1158.8 696.94 1161.32 700.91 1165.46 700.92 1167.66 702.74 1169.8 702.13 1175.99 702.72 1177.39 698.85 1181.43 696.88 1187.98 695.45 1189.32 695.17 1193.6 693.54 1195.2 691.36 1203.84 691.49 1205.16 688.57 1204.46 685.04 1204.72 680.18 1214.9 676.56 1216.27 675.92 1218.07 672.82 1218.23 668.84 1219.09 665.71 1218.56 665.01 1216.01 666.29 1208.96 667.4 1206.71 661.99 1202.2 659.1 1200.7 657.47 1198.57 654.49 1197 651.12 1201.09 649.54 1202.08 648.83 1204.01 651.17 1205.64 651.02 1207.09 647.34 1207.45 642.76 1205.07 641.96 1202.93 640.43 1202.51 636.68 1197.85 632.58 1196.49 629.55 1196.06 626.84 1196.16 625.96 1195.45 620.75 1193.76 614.04 1194.08 611.92 1190.19 608.63 1188.36 608.21 1186.84 604.69 1181.19 600.81 1179.95 598.71 1178.68 596.45 1177.86 595.42 1172.22 590.69 1174.39 587.7 1174.68 580.67 1177.98 576.65 1173.46 573.59 1168.94 570.33 1169.26 567.83 1168.8 563.02 1167.27 558.1 1166.12 552.22 1163.67 547.79 1164.66 543.73 1170.17 540.19 1171.79 538.54 1171.75 535.51 1170.09 532.35 1165.71 527.73 1163.69 526.3 1162.57 520.08 1159.2 518.13 1160.67 515.71 1163.56 511.58 1163.56 510 1164.46 507.19 1163.65 504.88 1164.31 500.66 1163.88 496.71 1161.67 492.69 1161.69 490.84 1160.54 487.09 1159.98 483.52 1160.05 480.75 1159.62 478.31 1157.54 469.23 1156.63 468.08 1155.72 464.96 1154.29 462.76 1151.96 457.38 1150.91 454.53 1153.02 453.46 1152.32 449.73 1151.27 447.13 1149.68 440.35 1149.04 436.29 1147.76 426.94 1140.05 416.8 1140.58 411.42 1138.98 408.71 1139.36 406.18 1141.5 403.45 1146.85 399.36 1146.78 395.35 1149.83 388.2 1153.58 385.22 1152.5 381.09 1155.65 377.09 1154.77 375.13 1154.01 368.52 1153.73 365.85 1155.65 365.67 1157.81 362.35 1161.23 358.61 1161.47 356.54 1161.94 351.53 1163.6 349.27 1163.61 347.06 1164.14 344.31 1165.56 341.32 1166.09 340.73 1166.72 337.58 1167.85 332.38 1168.46 331.17 1169.89 328.13 1170.48 325.16 1171.78 322.51 1168.04 320.22 1166.73 314.65 1164.1 312.47 1164.53 309.42 1163.34 307.03 1159.24 305.39 1157.21 303.98 1156.19 303.23 1153.98 302.76 1145.4 304.09 1140.21 300.44 1136.08 296.41 1133.65 294.62 1130.74 294.61 1129.86 292.87 1127.12 292.67 1123.93 290.21 1121.15 286.99 1116.58 284.26 1113.9 282.76 1111.19 279.26 1108.12 276.65 1106.5 276.21 1102.2 274.79 1102.75 271.17 1103.14 269.53 1104.3 266.63 1104.03 264.69 1104.36 261.62 1104.11 258.07 1104.19 256.13 1106.2 254.07 1106.07 248.93 1107.01 247.49 1108.94 245.24 1110.1 244.1 1110.04 237.02 1110.69 232.64 1111.73 232.44 1112.45 228.99 1115.82 219.53 1114.66 216.93 1114.84 213.06 1114.21 210.12 1112.93 209.19 1112.04 202.61 1112.43 199.44 1111.07 198.38 1111.02 193.06 1114.11 191.56 1117.63 190.84 1117.82 187.6 1121.17 186.68 1123.2 185.25 1124.79 180.18 1138.76 178.64 1139.86 174.07 1145.05 170.32 1148.21 175.49 1155.23 177.15 1159.81 178.17 1163.79 177.28 1167.74 177.27 1169.92 174.82 1172.82 171.7 1175.45 170.11 1177.65 167.94 1181.72 168.38 1186.12 164.84 1194.58 161.46 1199.19 156.68 1203.23 154.5 1207.3 155.17 1209.9 155.11 1215.57 144.1 1222.06 140.51 1224.86 136.67 1226.16 130.86 1224.48 128.26 1224.25 123.83 1222.87 117.19 1223.31 114.9 1223.63 114.85 1224.35 112.56 1225.61 110.69 1228.03 106.03 1232.15 105.92 1234.24 105.02 1234.69 103.06 1237.05 99.13 1237.84 93.22 1241.64 90.39 1244.24 83.67 1245.49 80.61 1245.49 79.13 1246 74.61 1244.14 72.88 1242.62 71.77 1239.85 71.14 1237.01 69.78 1236.18 68.4 1233.67 69.38 1227.63 68.02 1228.02 62.36 1222.3 59.99 1220.6 57.24 1219.58 50.86 1214.77 46.74 1209.74 42.47 1207.15 40.88 1205.33 36.41 1201.8 34.8 1198.24 33.38 1196.39 33.1 1191.36 30.59 1186.9 31.03 1184.59 30.61 1179.88 31.33 1178.1 29.41 1174.91 29.32 1173.31 33.04 1173.8 37.57 1171.54 41.84 1168.45 45.93 1167.26 50.26 1164.67 51.43 1164.3 53.68 1162.55 55.62 1160.39 56.91 1157.74 58.61 1155.37 60.37 1153.72 62.49 1150.5 65.37 1148.92 65.52 1147.56 64.97 1144.27 66.3 1140.59 65.89 1136.99 66.97 1129.85 67.17 1125.68 68.55 1124.51 70.23 1123.95 72.44 1121.2 75.85 1117.8 77.13 1115.23 76.7 1111.22 75.99 1108.06 74.72 1106.83 74.89 1102.72 74.25 1098.97 72.54 1098.28 70.21 1093.31 69.64 1091.21 69.19 1085.41 69.61 1083.53 70.8 1080.88 70.98 1077.95 71.5 1076.75 72.24 1071.74 69.87 1068.64 67.35 1067.37 62.06 1066.97 58.54 1066.46 52.82 1061.61 49.19 1060.6 41.99 1060.32 39.63 1058.44 36.03 1050.79 33.4 1047.51 30.34 1044.86 28.11 1043.95 25.66 1043.81 20.98 1045.94 16.62 1046.18 12.66 1045.69 10.84 1046.49 6.82 1049.54 4.65 1048.97 2.69 1046.47 1.63 1044.47 1 1042 4.58 1041.49 8.85 1037.8 8.9 1034.41 8.24 1027.69 8.76 1026.15 11.51 1024.84 11.31 1022.84 12.1 1021 15.47 1019.46 18.73 1018.53 21.79 1018.94 23.59 1020.1 25.96 1019.78 31.87 1016.43 32.88 1014.33 34.22 1013.8 36.75 1010.5 36.73 1007.84 39.76 1007.73 42.24 1004.7 43.2 1003.07 43.64 998.32 47.64 997.28 51.52 995.11 55.65 994.76 56.14 993.35 55.97 991.47 60.3 986.66 64.61 986.02 66.73 984.59 68.47 980.48 70.71 977.07 73.5 974.31 75.18 973.76 76.66 971.46 74.72 965.88 74.32 961.3 75.51 953.74 74.82 951.58 71.96 947.54 72.52 946.88 72.57 944.22 71.98 942.7 72.01 940.29 70.9 938.72 69.56 935.39 67.9 929.01 68.37 924.15 67.56 921.05 68 918.77 68.99 916.74 68.99 914.77 70.46 912.06 70.94 906.85 70.57 905.68 71.44 902.31 71.53 900.3 75.04 893.86 79.98 886.83 82.98 885.89 86.31 884.18 87.61 881.49 91.39 877.42 94.37 875.65 98.56 875.53 103.07 873.06 107.37 873.58 114.07 873.26 118.51 870.16 124.88 869.4 128.13 868.15 129.56 867.26 133.26 868.11 136.85 869.37 140.53 868.99 144.14 868.98 150.05 864.78 153.67 862.96 155.73 859.58 156.71 856.43 161.18 844.81 163.66 842.44 166.27 836.05 167.08 831.47 168.25 828.28 169.68 826.85 170.37 824.91 169.71 818.49 171.29 812.82 172.36 810.74 172.78 805.64 172.11 801.96 169.83 795.56 169.4 788.02 168.05 784.24 167.72 780.9 166.31 777.67 165.76 775.02 164.31 773.03 162.58 769.75 162.31 768.05 159.78 767.52 157.4 764.65 155.65 760.92 154.15 756.56 154.16 754.77 153.3 752.75 152.79 748.9 153.15 745.87 152.34 743.09 150.9 741 151.4 739.6 154.32 736.14 155.87 735 157.09 733.35 158.18 729.3 161.06 725.47 159.83 721.48 158.47 715.62 157.77 710.98 156.91 707.07 153.48 704.02 153.27 702.41 153.73 697.95 152.93 692.45 153.26 688.32 153.97 686.03 154.03 681.37 154.84 680.63 153.96 678.33 152.2 675.88 150.28 670.35 152.7 666.24 153.3 664.41 149.86 659.58 147.97 655.54 148.7 650.46 152.52 641.73 157.27 633.59 158.66 627.43 161.38 621.63 161.45 616.33 163.05 612.55 162.13 604.79 160.74 597.27 162.56 590.09 147.04 584.43 144.53 576.07 138.25 573.34 133.92 570.2 138.1 567.5 141.05 564.87 143.66 555.92 148.87 548.59 151.31 546.52 153.96 542.2 155.68 541.31 158.8 539.05 164.83 530.43 164.25 524.1 164.03 518.39 165.33 515.35 164.98 504.19 166.6 500.62 166.9 495.74 165.93 490.13 168.31 486.68 168.66 481.76 168.23 478.5 166.98 474.32 166.3 469.76 167.18 467.12 171.45 464.95 177.07 461.72 179.22 461.37 183.03 459.85 187.07 454.97 194.48 456.92 199.22 458.94 205.44 462.29 207.15 463.39 209.77 459.13 214.5 455.15 215.11 453.95 215.57 450.37 217.52 447.88 226.85 442.77 226.13 440.66 224.75 438.33 224.1 431.55 224.21 428.26 223.72 423.17 222.94 420.2 220.52 414.25 218.61 409.01 218.55 405.23 218.98 403.04 221.03 398.5 223.73 393.98 224.44 391.31 221.18 390.9 219.16 392.49 214.73 391.32 210.69 384.25 211.18 382.1 210.29 380.93 210.11 375.77 209.62 373.46 209.6 369.67 210.11 368.4 205.51 364.93 202.75 357.78 202.52 354.36 202.09 353.42 203.33 349.82 202.79 346.34 200.72 344.12 198.64 342.43 198.61 339.58 197.39 335.53 194.03 333.82 188.93 328.67 186.98 325.83 185.95 325.19 186.03 323.37 188.22 321.35 189.63 320.69 192.25 318.07 197.46 319.68 200.21 319.55 205.38 317.83 207.25 316.25 219.45 321.96 228.45 317.41 230.85 306.31 242.4 295.55 243.53 294.23 244.58 286.87 240.86 281.1 238.08 274.66 241.55 266.03 244.92 263.93 245.62 259.77 244.67 258.32 244.42 252.76 247.39 252.4 249.55 250.56 255.92 247.65 259.01 248.78 261.36 246.57 260.64 243.98 259.08 242.14 258.8 240.49 257.37 237.42 257.18 234.96 255.78 230.61 253.81 227.93 251.59 223.06 247.43 218.9 246.31 214.53 249.79 206.45 250.57 202.7 250.23 198.7 250.34 192.6 249.83 186.23 248.83 181.85 248.99 180.12 253.41 176.46 254.24 174.91 257.52 173.96 260.89 171.92 263.59 170.96 266.96 168.65 269.67 168.85 275.54 169.75 279.94 159.03 282.07 154.59 283.49 145.99 285.63 144.9 284.71 141.38 286.4 138.54 289.31 134.51 292.45 131.59 295.49 124.34 295.66 118.73 296.2 115.48 298.26 111.22 298.07 109.01 298.67 106.01 305.33 99.53 308.44 96.21 308.94 94.05 312.51 88.69 312.97 87.25 316 85.28 316.74 81.97 317.9 80.73 317.81 76.99 319.53 73.93 323.04 72.98 325.39 70.94 326.37 70.84 326.28 68.32 330.61 65 331.81 63.38 333.19 59.74 335.06 56.84 334.94 54.49 335.84 49.33 334.86 46.19 335.82 42.56 336.74 41.61 339.41 42.97 340.66 45.34 342.53 49.84 342.9 52.34 352.97 49.32 355.76 48.03 360 45.5 362.67 45.39 364.89 44.62 367.35 43.14 372.43 43.86 380.89 43.85 386.7 46.27 391.37 47.06 398.13 45.1 401.57 45.46 403.15 46.9 406.24 47.24 410.06 52.21 414.35 46.18 417.66 45.1 419.16 43.96 427.15 43.54 431.2 39.9 433.49 38.85 435.84 36.49 440.95 32.49 440.69 25.97 443.41 25.46 447.68 21.26 450.76 13.8 451.04 9.45 460.13 5.39 468.55 1 471.55 1.16 474.61 7.64 477.72 13.63 475.86 20.19 477.35 24.81 479.23 26.62 486.88 30.05 493 31.85 493.26 32.79 492.19 34.96 487.51 37.93 486.78 42.86 483.15 49.09 474.36 52 473.61 60 466.32 59.9 463.48 64.23 462.33 68.52 459.42 72.69 459.14 79.78 453.65 80.22 446.56 85.73 443.51 87.65 439.58 91.36 438.41 91.89 437.62 93.29 440.22 95.71 442.13 100.98 442.87 106.44 439.2 116.37 439.67 117.52 447.6 119.25 450.94 119.51 454.95 121.85 455.84 123.39 456.79 127.88 458.96 130.22 463.16 135.8 465.85 136.89 466.93 138.63 467.82 143.05 469.56 142.77 474.69 146.56 477.41 146.44 478.77 149.41 484.12 148.48 488.04 155.17 489.76 160.66 491.69 164.57 496.22 165.88 500.27 172.8 501.74 176.22 508.09 176.29 509.1 178.31 509.38 181.42 510.69 183.43 509.44 184.78 502.64 195.3 494.71 199.6 490.9 204.21 488.34 208.55 488.48 210.05 485.43 214.65 482.43 217.62 477.73 220.56 475.93 220.88 472.77 227.27 469.15 230.53 468.74 232.9 467.1 233.91 466.34 239.71 466.37 242.84 463.8 246.27 461.34 250.47 465.63 256.51 468.13 258.4 468.81 263.5 470.7 267.81 471.59 271.72 469.44 274.55 475.04 276.26 478.58 276.84 480.75 276.53 480.96 278.27 482.07 280.48 483.74 281.51 485.28 284.26 490.59 289.08 494.73 291.03 498.1 291.88 495.08 295.76 495.07 297.81 495.83 301.37 498.11 307.07 499.23 308.57 501.23 309.3 501.91 311.47 496.19 314.67 493.53 317.96 491.75 318.76 488.46 322.6 488.03 327.2 487.46 328.23 485.33 330.2 480.52 329.28 477.24 328.41 477.49 332.86 475.67 336.12 474.51 342.35 472.5 344.06 470.85 351.03 469.63 355.39 467.98 357.69 471.42 359.42 473.26 362.44 478.61 368.74 479.42 370.39 485.15 375.52 486.52 380.42 487.32 387.54 487.34 393.25 486.09 394.98 482.15 391.29 481.28 388.4 479.36 388.11 478.5 391.21 476.28 391.37 475.48 393.96 476.96 395.31 478.02 398.01 478.92 402 477.79 403.62 477.27 407.48 476.42 408.58 475.97 413.33 474.05 414.86 472.38 414.3 467.13 414.38 462.21 413.45 457.07 415.31 456.92 419.95 460.21 421.8 457.31 424.76 453.56 430.36 455.61 434.23 454.54 436.28 456.49 439.24 458.12 441.01 452.04 443.2 451.06 445.95 446.89 447.79 440.83 447 436.11 441.64 430.9 441.74 427.18 443.83 419.58 450.65 417.25 456.59 417.39 458.71 420.22 460.01 421.21 463.82 424.73 466.48 425.3 467.75 425.37 475.15 427.52 480.51 429.09 482.6 431.74 482.21 437.76 482.49 439.42 481.89 440.47 482.38 442.38 485.61 444.9 485.34 449.74 481.94 455.12 479.92 457.54 480.38 458.52 482.42 460.15 482.63 467.63 481.71 470.2 482.34 472.23 484.27 473.32 486.07 476.43 488.21 478.87 489.14 480.64 492.91 478.76 493.52 472.43 498.86 472.21 501.31 476.49 501.96 479.87 504.32 481.59 508.2 478.99 513.25 476.32 515.46 474.54 514.91 469.41 517.33 469.13 518.74 470.12 520.84 474.19 524.47 474.53 525.7 476.93 527.96 480.03 529.21 480.32 529.89 482.41 530.18 482.48 531.86 483.4 534.44 485.82 537.28 488.83 539.87 490.7 544.17 484.44 544.18 481.02 546.14 476.53 546.79 474.83 548.25 471.06 549.53 467.26 549.7 462.32 552.34 458.84 555.31 454.35 557.59 457.99 564.52 458.79 570.11 455.98 575.18 456.19 576.82 454.86 579.89 454.61 583.8 456.02 588.86 454.93 594.72 455.84 596.76 454.39 598.83 451.02 601.71 453.83 602.96 455.72 604.58 460.2 609.82 459.72 615.22 460.36 621.13 458.41 623.31 463.29 624.64 466.3 627.88 470.92 630.19 473.84 629.53 476.58 632.87 478.66 631.08 480.82 630.91 481.04 632.95 482.24 638.34 487.58 641.49 484.41 649.82 484.85 654.27 481.07 658.69 483.59 659.93 485.44 662.25 486.48 665.27 488.08 671.9 489.07 674.54 491.73 677.05 492.77 679.46 492.35 682.3 494.78 685.33 496.83 693.46 500.17 697.97 503.85 700.38 511.32 702.14 514.46 710.75 515.45 715.34 522.32 719.22 525.02 720.06 527.43 720.37 532.01 722.83 533.27 724.2 534.56 726.57 538.67 726.27 542.9 729.85 545.84 730.32 547.72 731.69 548.63 733.09 548.84 736.02 551.2 737.54 553.26 742.6 557.58 743.37 559.34 744.13 564.36 744.37 566.55 742.87 569.71 741.62 572.51 738.81 577.34 741.61 578.59 739.81 582.29 739.95 583.5 738.59 585.69 737.94 586.79 738.63 592.44 743.21 599.17 742.65 603.62 746.58 603.69 747.91 606.69 750.5 610.71 752.01 615.75 755.52 621.46 753.45 625.07 751.26 626.57 751.07 627.95 751.92 630.75 755.3 631.47 757.41 633.85 759.42 635.37 761.2 637.6 762.74 640.03 762.17 641.06 761.06 644.72 761.02 646.82 759.33 649.99 759.38 659.35 757.41 660.52 757.62 662.31 756.26 664.77 758 665.98 757.94 668.63 758.75 673.55 756.87 675.84 758.21 681.02 758.81 683.57 758.84 685.17 760.24 686.73 759.96 688.86 760.8 690.9 760.75 694.01 763.14 696.51 763.44 698.14 762.81 709.24 761.27 710.85 762.39 712.77 764.89 712.77 767.8 715.97 770.55 716.17 772.93 718.04 775.62 719 778.32 719.58 783.65 718.28 789.07 717.82 796.26 713.99 799.72 710.47 803.65 717.96 805.53 722.9 804.67 725.18 803.29 737.13 804.58 745.43 804.28 747.68 802.33 755.18 801.96 755.96 803.38 758.73 805.36 760.28 805.57 761.76 804.7 762.98 805.33 764.09 808.16 768.71 810.98 769.72 818.32 768.55 821.58 771.04 825.99 769.68 827.15 766.94 836.16 770.55 839.54 770.61 843.11 771.49 845.12 771.73 850.39 771.1 852.89 769.17 856.8 770.82 861.32 771.19 863.69 773.3 867.85 771.45 870.39 770.53 873.14 779.1 876.18 783.53 880.08 787.26 880.53 788.68 888.32 790.3 892.72 794.32 896.62 793.27 899.55 792.66 903.24 790.26 906.11 788.37 910.53 788.4 915.1 786.03 927.43 783.07 931.04 781.75 931.84 778.96 935.28 780.04 944.15 778.92 949.27 777.15 954.58 774.54 958.34 773.74 961.8 777.54 964.93 778.47 969.49 778.68 973.24 781 976.11 783.64 977.49 784.23 979.46 781.06 985.49 777.27 988.04 775.76 988.55 771.4 999.55 770.64 1002.69 770.97 1005.12 773.27 1006.7 778.35 1017.19 778.42 1018.7 779.46 1020.18 780.84 1025.28 791.71 1040.01 791.3 1041.36 794.96 1048 794.68 1053.21 799 1062.6 Z" id="32050000"/>
</g>
</svg>