<?xml version="1.0"?>
<svg xmlns="http://www.w3.org/2000/svg" version="1.2" baseProfile="tiny" width="800" height="594" viewBox="0 0 800 594" stroke-linecap="round" stroke-linejoin="round">
<g id="sigung">
<path d="M 794.31 166.34 796.81 167.22 797.58 169.61 797.1 172.32 792.97 173.31 790.22 171.43 788.53 169.67 789.25 167.57 791.04 167.78 794.31 166.34 Z M 734.08 128.09 733.47 132 718.36 130.55 716.94 135.46 715.93 141.59 715.75 145.32 716.46 147.66 717.64 148.75 717.23 150.57 708.92 153.16 707.73 149.08 707.26 145.13 707.5 141.98 714.84 130.62 720.23 124.91 734.23 126.18 734.08 128.09 Z M 776.22 362.24 773.53 365.52 765.25 371.65 759.95 374.25 754.5 374.8 745.57 371.92 740.95 369.82 732.27 369.84 728.01 370.34 721.95 368.8 714.07 364.84 705.95 366.75 699.86 367.18 694.15 366.39 687.63 365.76 684.86 363.91 674.45 362.22 665.36 362.88 651.23 365.18 641.33 364.47 630.45 365.45 627.7 366.39 621.26 365.13 615.77 361.8 616.12 365.58 617.56 368.22 618.28 372.45 617.26 377.4 617.06 391.33 616.57 392.93 618.99 396.32 618.31 397.12 618.28 400.87 615.7 402.26 615.93 404.03 613.99 404.75 611.7 404.11 609.89 406.16 606.22 406.08 603.55 408.35 602.99 410.38 601.4 411.9 599.39 412.34 597.48 414.49 595.85 415.25 595.23 416.68 592.31 418.21 590.29 418.22 590.29 419.85 589.17 422.77 587.24 423.54 584.87 425.5 584.49 427.51 582.38 428.41 581.9 430.01 579.08 430.76 577.85 432.15 575.7 433.26 572.17 432.25 569.46 433.02 562.89 430.52 552.72 430.66 552.42 431.81 545.72 432.81 541.93 428.75 538.55 429.84 536.78 428.31 530.34 430.3 525.5 429.73 517.92 429.43 513.41 431.31 511.4 431.6 506.91 433.19 505.73 434.77 503.25 434.64 499.98 431.88 492.49 429.06 488.54 429.31 484.26 428.79 479.52 430.67 473.39 433.87 475.32 452.18 472.9 454.28 471.59 456.08 469.48 457.59 464.72 462.95 461.95 464.01 460.1 466.04 459.1 468.63 459.01 475.37 458.47 477.42 457.28 485.35 455.74 489.39 454.94 493.21 452.57 497.61 453.04 499.33 445.06 498.18 443.33 497.49 441.3 495.66 437.09 493.29 434.59 492.53 433.07 488.8 424.33 489.6 420.02 493.43 413.74 496.43 403.84 499.92 395.37 503.17 392.27 503.06 388.02 500.27 384.89 500.28 383.29 499.65 373.36 499.73 366.06 498.42 358.53 500.1 348.02 500.6 340.55 503.32 338.84 504.92 331.84 507.22 328.86 505.55 326.86 507.11 324.14 506.02 318.88 501.22 315 500.8 311.4 500.99 304.76 502.47 293.78 499.81 289.24 504.8 282.63 508.13 280.25 513.6 272.13 520.13 261.13 525.32 252.96 530.83 247.74 537.94 240.83 542.99 236.98 553.01 229.96 559.27 227.26 562.91 220.95 566.01 215.45 571.42 211.96 576.6 207.2 581.76 204.13 585.98 200.07 589.49 195.93 592.66 194.67 593 186.09 591.78 187.3 590.07 189.89 580.76 188.04 554.18 182.77 542.43 187.24 534.04 189.82 527.03 189.62 516.99 183.49 507.94 189.19 499.25 185.51 497.15 180.58 492.65 175.9 488.81 169.06 484.48 160.67 482.36 159.3 478.62 152.34 473.81 147.02 472.07 141.28 466.58 137.19 460 131.06 459.65 119.09 445.26 107.54 441.73 102.5 436.92 93.64 434.5 91.81 426.53 88.81 421.85 74.7 410.86 72 407.3 73.09 401.11 74.16 397.92 72.19 391.8 72.64 386.31 69.81 382.67 71.89 380.4 74.05 375.56 75.95 366.94 73.66 366.36 70.53 364.79 65.5 360.37 61.93 357.81 61.07 356.46 61.23 353.43 58.77 350.02 56.93 349.89 53.95 347.78 53.32 342.49 51.06 340.87 51.35 335.86 47.52 333.21 45.88 330.77 42.85 329.39 36.55 324.24 29.68 321.33 27.84 315 20.58 312.08 19.78 310.1 13.48 305.12 10.82 299.31 4.86 297.72 1 294.41 3.71 288.71 5.5 269.12 10.99 263.42 14.25 260.67 14.02 256.57 14.35 255.24 13.91 252.01 16.03 246.82 20.6 243.94 19.7 242.55 20.32 239.19 21.21 238.39 22.13 229 28.52 227.89 30.1 228.14 32.25 225.51 34.86 223.85 43.74 223.43 49.42 219.89 56.24 218.72 62.41 212.13 71.11 210.4 71.57 191.9 75.8 185.43 80.02 173.1 82.47 155.03 86.14 151.88 94.2 152.48 101.13 154.36 107.49 161.43 113.79 167.95 120.48 172.34 126.44 175.88 135.41 178.2 136.7 180.36 139.48 180.86 142.21 179.78 146.53 180.98 150.04 183.17 159.18 181.74 165.34 184.85 168.1 184.46 170.38 185.99 174.23 185.06 178.16 182.19 180.85 183.24 186.86 176.97 192.47 181.91 201.18 188.55 215.84 196.87 220.69 202.05 227.24 204.39 230.57 206.65 227.29 216.49 231.27 227.09 234.77 230.29 240.12 232.03 242.18 234.49 246.15 234.35 247.55 234.96 249.54 232.43 252.07 232.62 253.98 231.14 256 232.08 258.69 230.91 261.64 231.39 264.89 229.34 267.33 228.43 269.78 225.78 269.97 223.27 275.11 219.92 277.69 216.59 279.45 211.35 281.04 210.56 280.96 208.39 282.59 204.64 285.22 202.19 284.87 199.59 287.05 198.27 287.17 196.37 288.89 195.77 290.83 193.53 292.11 190.5 294.09 189.71 296.93 187.5 301.04 188.08 303.25 189.85 305.26 188.87 306.19 186.59 310.94 180.59 315.29 178.49 315.8 174.63 317.73 172.24 317.35 166.5 319.04 163.53 318.89 161.07 320.56 159.18 321.02 156.04 327 153.72 329.94 150.4 340.83 148.86 347.16 147.44 352.25 146.7 359.91 142.51 365.24 137.5 367.86 136.35 370.81 132.94 373.76 128.7 375.07 127.75 379.26 127.47 381.39 126.17 385.73 130.68 391.37 130.38 396.08 128.27 402.42 126.37 407.49 127.68 415.29 126.23 421.61 120.99 425.37 119.42 431.45 114.29 432.29 113.06 437.64 110.77 441.44 107.64 443.83 106.76 449.15 99.97 449.75 97.48 449.3 94.35 455.65 90.21 456.69 87.69 459.78 85.19 461.94 82.68 467.64 81.95 472.25 79.61 477.9 74.31 479.85 74.26 481.61 75.48 488.23 73.27 492.3 73.22 494.43 74.24 498.25 75.27 502.04 75.14 504.56 78.03 507.97 77.8 509.56 78.49 510.94 77.03 514.08 76.42 515.71 74.67 520.08 72.49 521.58 73.71 525.53 72.06 528.86 70.11 530.83 71.06 532.52 70.37 533.08 71.92 539.33 72.73 541.71 70.89 544.8 69.27 547.47 71.21 551.78 69.67 552.03 68.83 555.39 65.63 555.51 63.6 556.78 61.16 558.44 60.54 562.24 61.69 563.71 61.49 565.21 60.02 568.14 59.88 569.12 57.61 572.16 55.26 575.02 53.94 580.81 54.83 583.75 55.94 587.72 55.08 590.9 56.56 596.24 56.27 600.23 58.14 603.78 57.7 605.89 56.01 606.47 53.82 612.1 51.36 616.64 50.68 618.78 49.61 621.15 51.28 625.8 50.04 626.84 48.89 628.9 48.66 631.94 45.37 634.28 44.37 635.74 41.13 641.7 37.24 643.46 35.53 645.36 35.23 648.11 32.77 649.6 29.6 648.88 27.75 648.8 25.23 651.89 22.83 653.14 18.24 655.6 16.49 660.95 15.51 662.27 9.98 665.47 9.4 668.4 11.46 670.03 11.78 671.77 8.64 671.86 1 673.35 1.12 674.44 2.5 677.05 3.95 679.71 8.97 680.06 12.26 681.63 16.86 683.41 19.41 686.44 20.29 687.59 19.58 692.65 18.53 694.08 19.65 696.04 23.64 699.27 28.94 699.33 31.18 694.26 22.48 692.6 20.1 687.64 21.25 690.57 29.52 690.96 31.8 692.62 33.54 692.45 38.35 695.25 43.66 696.46 45.24 698.46 45.91 697.49 47.42 694.35 50.19 696.55 50.84 704.77 45.44 703.49 40.45 702.54 38.35 703.94 38.04 706.18 45.21 709.89 47.12 709.76 48.5 705.34 46.2 704.24 47.12 702.88 51.18 703.17 54.73 710.68 64.47 714.54 64.75 716.48 63.38 717.12 61.11 718.63 59.71 721.96 63.79 721.88 66.78 720.3 66.55 720.44 63.81 717.85 64.41 716.61 66.12 716.2 68.35 716.78 71.29 717.98 73.54 720.76 76.51 723.66 80.42 727 82.85 727.34 83.68 730.13 84.67 732.93 82.14 737.07 83.26 739.96 86.61 741.25 86.07 743.28 83.93 744.74 86.48 744.48 88.7 745.06 90.11 743.53 91.23 742.23 93.74 741.9 95.78 744.29 96.77 745 98.91 743.68 101.6 745.55 111.47 746.23 112.94 748.62 120.74 748.71 123.24 747.46 131.76 751.1 142.55 748.64 143.44 747.88 141.89 748.63 140.65 746.03 132.84 746.01 131.31 747.63 121.86 744.25 111.62 743.31 106.82 740.13 106.82 741.88 103.63 741.44 101.34 736.75 101.27 736.81 104.77 713.14 105.29 713.35 124.83 712.63 125.1 712.01 129.75 704.29 140.31 704.18 143.95 705.59 147.56 705.86 150.82 704.98 153.89 696.69 154.88 684.99 159.16 684.81 158.72 677.93 160.95 678.19 161.57 668.72 164.96 672.31 169.33 669.64 172.01 669.91 172.56 666.6 176.13 667.38 190.27 662.97 192.68 664.08 199.11 667.6 199.01 668.82 203.18 685.77 202.81 687.09 201.26 698.51 201.01 699.84 201.53 703.33 201.45 703.42 205.37 710.69 205.22 709.56 158.01 716.49 155.58 716.91 155.9 723.37 154.82 724.38 156.18 727.4 153.91 728.44 153.75 737.1 150.52 739 149.2 739.81 150.9 726.17 156.28 724.78 157.11 724.55 160.78 725.6 167.13 727.06 170.76 732.34 178.74 737.08 184.84 741.17 189.63 742.11 191.3 749.54 200.34 752.62 201.62 753.57 200.27 757.52 198.32 756.09 197.28 757.39 195.88 759.95 200.14 758.51 201.12 757.66 198.77 754.67 200.61 752.99 202.24 752.99 204.95 753.96 207.82 758.09 216.12 763.18 225.28 766.05 229.69 767.76 233.13 771.44 238.18 776.98 246.36 778.34 247.5 781.48 248.2 782.9 249.07 783.76 252.24 787.46 254.7 790.81 254.8 794.38 255.69 795.72 255.51 798.29 256.46 799 261.72 797.09 264.47 791.7 267.43 787.79 267.9 786.24 269.36 783.87 270.17 783.83 274.16 782.68 273.63 782.64 269.1 778.71 267.96 777.27 270.27 776.69 274.56 777.01 277.35 778.4 280.08 783.54 280.3 782.97 282.86 783.21 299.1 783.64 299.78 786.56 313.94 788.22 315.1 789.32 316.84 787.84 318.09 786.38 316.68 785.49 314.57 782.38 299.98 782.32 297.54 772.12 297.65 771.66 295.49 769.17 293.53 764.35 296.68 764.82 299.14 765.88 300.34 767.92 301.12 770.68 301.1 771.32 301.78 771.68 315.56 773.59 318.75 772.6 319.44 774.51 322.55 775.91 322.18 780.03 319.74 780.54 315.87 782.12 316.29 781.1 320.49 772.27 325.42 774.18 328.79 775.85 335.97 776.2 341.6 777.84 348.74 780.64 348.66 782.63 349.19 783.49 351.57 784.02 354.82 782.68 355.48 782.42 352.49 781.29 350.31 778.25 350.1 777.8 354.1 778.54 354.82 777.89 357.53 778.05 361.87 776.22 362.24 Z" fill-rule="evenodd" id="32060000"/>
</g>
</svg>