<?xml version="1.0"?>
<svg xmlns="http://www.w3.org/2000/svg" version="1.2" baseProfile="tiny" width="800" height="380" viewBox="0 0 800 380" stroke-linecap="round" stroke-linejoin="round">
<g id="sigung">
<path d="M 717.06 46.66 718.22 46.97 718.66 47.2 719.02 47.54 719.79 47.88 720.13 48.16 720.84 49.06 721.74 49.28 722.16 49.46 722.65 49.86 722.86 50.3 723.98 50.43 724.38 50.66 725.04 50.67 725.75 51.4 726.62 51.53 727.23 52.37 727.82 53.47 728.42 53.76 728.68 54.28 728.86 55.2 729.16 55.32 729.28 53.96 730.07 53.14 730.24 53.04 731.09 52.97 731.96 52.96 732.48 52.67 733.17 52.17 733.56 52.1 733.88 51.81 735.74 52.23 735.79 52.6 736.07 53.23 736.36 53.55 736.91 54.55 737.5 54.75 738.29 55.72 738.5 56.05 738.7 56.85 739.51 58.25 740.26 58.69 740.96 58.66 742.64 58.07 743.5 57.96 743.94 57.8 744.49 57.83 744.79 57.96 745.62 57.88 745.87 57.35 746.95 56.48 747.57 56.35 748.25 56.38 748.89 56.19 749.29 55.91 750.43 56.1 751.11 55.74 751.39 54.74 751.61 54.22 752.14 53.45 752.05 52.48 752.59 51.95 753.44 51.31 753.94 50.05 754.53 49.94 756.17 49.28 757.02 48.82 758.59 48.97 758.96 49.16 760.96 47.91 761.31 47.73 762.27 47.76 762.68 48.3 763.22 48.74 763.81 50.27 764.65 51.45 765.59 51.7 766.67 52.43 767.48 53.26 769.18 53.95 769.87 54.3 770.58 55.09 771.06 55.28 773.22 56.56 774.04 57.45 774.31 57.54 774.66 58.03 774.92 58.15 775.37 58.73 775.53 59.58 775.54 60.02 775.7 60.31 776.3 60.98 776.34 61.85 776.53 62.36 776.98 62.56 779.74 62.29 780.16 62.42 781.11 62.45 781.49 62.57 782.09 62.25 782.62 62.31 782.79 62.45 783.17 63.44 783.55 64.28 784.12 64.63 784.25 64.96 785.32 66.14 786.01 66.78 786.2 67.07 786.39 68.02 786.61 68.43 786.81 68.57 787.15 69.17 787.1 69.64 787.24 69.82 787.13 70.75 787.28 71.03 787.44 72 787.36 72.3 787.53 72.68 788.58 73.01 790.11 73.24 790.37 73.44 790.72 73.98 791.4 74.39 791.83 74.21 792.68 74.39 793.49 74.23 794.18 73.89 794.87 73.71 795.51 74.15 797.1 74.54 798.35 74.94 798.39 75 798.99 75.97 799 77.01 798.89 78.32 798.65 79.29 798.66 80.07 798.02 81.07 798.16 81.83 797.86 82.67 798.06 83.58 798.06 84.42 797.97 84.62 797.32 85.19 796.87 85.93 796.7 86.71 796.36 87.29 796.27 88.33 796.86 89.41 797.2 90.16 796.97 90.62 797.18 91.2 796.53 91.98 796.06 93.07 795.19 93.65 794.93 94.18 795.33 95.37 795.12 95.86 794.63 97.4 794.1 97.73 793.92 98.36 794.24 99.84 793.93 100.62 794.17 101.45 794.13 101.88 794.25 102.87 794.53 103.44 794.18 103.9 793.76 104.83 793.35 106.96 793.13 107.71 793.34 108.63 793.25 109.47 793.75 110.2 793.96 110.85 794.13 112.14 794.28 112.65 795.04 114 794.49 114.61 793.4 115.53 792.71 116.24 791.64 117.15 790.73 118.22 789.96 119.5 789.85 121.02 788.77 122.04 788.06 123.32 787.56 124.08 786.74 125.15 786.01 126.6 786.23 126.98 785.77 127.15 785.34 127.55 784.96 127.5 784.12 126.96 783.23 127.04 782.38 126.77 781.66 126.75 780.54 126.46 779.31 126.48 778.17 126.23 776.18 126.03 775.23 125.76 774.55 126.1 773.07 127.86 772.47 128.62 772.2 128.79 771.97 129.3 771.65 130.55 771.19 130.9 770.77 131.33 769.46 131.54 768.48 132.3 767.44 133.33 766.25 134.11 765.79 134.76 765.46 137.72 766.03 139.44 765.01 141.27 764.84 142.4 765.26 143.05 765.33 144.98 765.04 146.16 764.22 147.95 762.9 151.11 761.87 152.06 759.81 153.21 758.97 154.18 758.1 154.48 758.25 155.36 757.89 156.77 758.03 157.53 758.5 158.18 758.1 160.03 758.06 160.91 758.25 161.75 758.26 162.93 757.08 164.13 755.87 164.98 755.11 166.13 754.43 166.66 753.26 168.77 752.51 169.09 752.28 169.48 751.32 169.7 751.53 178 753.05 178.99 753.89 180.39 753.78 180.91 753.8 181.44 753.62 181.89 753.72 182.53 753.3 183.54 753.1 184.27 753.47 185.26 752.39 187.62 752.53 188.66 751.74 190.18 752.08 191.74 752.73 192.64 752.64 193.82 753.04 194.59 754.04 195.08 754.6 195.99 754.48 198.34 754.96 198.87 754.88 199.39 753.71 200.76 753.25 200.87 752.16 201.47 751.51 202.07 750.78 202.28 750.54 202.58 750.14 202.14 749.26 201.28 748.22 200.94 747.26 200.51 745.82 200.26 744.98 200.53 744.62 201.04 744.24 201.15 743.57 202.07 743 201.88 741.94 201.95 740.95 201.93 739.7 201.48 738.74 201.35 737.65 201.37 737.23 201.53 736.76 200.96 736.15 200.72 735.31 200.87 735.01 200.8 734.6 200.99 733.49 200.74 732.99 200.72 732.63 200.59 732.31 200.28 731.91 200.35 731.39 200.03 730.59 199.86 730.07 200.05 729.54 200.07 728.54 199.81 728.05 199.97 727.62 199.63 726.63 199.72 723.13 198.83 721.44 198.8 719.72 199.48 718.66 199.36 717.39 198.37 715.31 199.28 713.23 200.16 712.79 200.16 712.29 199.95 711.67 200.25 710.12 201.99 709.75 202.67 709.51 203.49 708.93 203.8 707.98 204.43 707.49 204.49 706.04 204.5 705.47 204.61 705.02 204.42 703.76 203.44 703.63 203.02 703.29 202.8 702.85 202.78 702.46 202.52 701.57 202.3 700.72 203.15 700.01 203.71 699.35 203.94 699 204.21 698.26 205.09 698 205.63 697.59 205.96 697.69 206.92 696.74 207.83 696.47 208.35 695.66 209.01 695.58 209.3 695.33 209.56 694.66 210.66 694.54 211.34 694.31 211.63 693.71 213.62 692.99 213.7 692.35 214.79 691.97 215.06 691.89 215.37 692.02 216.08 691.75 216.77 691.96 217.16 692.18 217.98 692.51 218.29 692.75 219.06 692.69 219.53 692.98 220 692.72 220.8 693 221.43 692.75 222 692.5 222.82 691.9 223.49 691.9 223.88 692.06 224.11 691.89 224.49 691.68 225.48 691.63 226.18 691.79 226.62 691.69 227.41 691.48 228 691.46 228.49 691.59 228.74 691.48 229.43 691.51 229.86 691.28 230.38 691.27 230.93 691.49 231.28 690.93 231.7 690.23 232.48 689.71 232.82 689.24 233.32 688.43 233.93 688.32 234.45 686.71 235.27 685.47 236.61 685.31 237.12 685.37 237.85 685 239.37 684.66 239.4 683.35 239.79 682.55 239.55 682.3 239.62 681.93 239.41 680.5 240.39 678.74 240.44 678.33 240.25 677.43 240.49 677.11 240.43 676.01 241.07 675.71 241.35 675.11 242.27 673.94 242.69 673.17 242.63 672.65 242.88 671.25 243.21 670.03 243.82 668.9 243.48 668.05 243.36 667.41 243.01 666.81 242.31 665.93 241.82 664.7 241.22 663.43 242.04 662.34 243.04 661.62 243.62 660.6 243.42 658.56 242.35 657.66 242.4 657.12 242.12 656.73 241.69 656 241.22 655.51 241.06 654.8 240.39 654.19 240.85 653.5 240.81 652.73 240.91 652.32 240.85 651.19 240.33 650.63 240.41 649.91 240.34 649.17 240.59 648.84 240.81 648.58 240.74 647.5 240.98 646.85 240.43 646.56 240.05 645.57 240.21 644.95 240.48 644.67 240.44 644.03 240.56 643.25 240.58 642.51 240.93 642.26 240.74 641.85 240.65 641.33 240.7 640.51 240.9 640.02 240.79 639.63 240.47 638.67 240.12 638.3 239.57 637.17 239.22 636.39 239.11 634.72 238.68 634.08 237.79 633.89 237.76 633.1 236.9 632.47 236.56 632.03 236.11 631.49 235 630.9 234.95 630.24 234.65 628.04 234.32 627.61 233.56 626.77 233.91 626.54 233.88 626.19 233.56 625.77 233.74 624.92 235.01 624.18 235.28 622.33 235.29 621.35 235.17 620.78 235.45 620.62 235.75 619.85 236.3 619.37 236.37 618.45 236.71 617.93 236.79 617.22 237.31 615.92 236.9 615.47 237.11 615.09 237.15 614.29 236.79 613.76 236.95 613.02 237.36 612.24 237.32 611.12 237.38 610.65 237.51 610.18 237.45 609.05 238.2 608.75 238.73 608.36 238.99 607.23 239.2 606.52 239.76 606.17 240.19 605.7 240.32 605.36 240.15 604.72 240.53 603.96 240.57 603.2 241.25 602.53 241.33 602.31 241.44 601.8 242.06 601.4 242.04 601.01 242.17 599.97 242.88 599.46 242.46 598.45 242.15 598.36 241.81 597.63 240.95 597.64 240.63 597.36 240.19 597.27 239.79 597.43 239.22 596.82 238.6 596.43 237.77 595.47 236.52 595.46 235.45 595.26 234.98 595.03 234.68 594.8 234.01 594.77 233.68 594.5 233.31 594.12 233.36 593.89 233 593.1 232.48 592.88 231.81 592.16 230.42 591.49 230.39 591.57 230.85 590.89 231.34 590.56 231.96 589.78 231.71 589.47 232.16 589.36 232.96 589.11 233.76 588.8 234.18 588.88 234.47 588.46 235.12 588.07 236.41 587.43 237.01 587.61 237.68 587 238.92 586.12 239.91 586.01 240.8 585.49 241.33 585.56 241.97 584.26 242.67 584.11 243.23 583.76 243.52 583.23 243.69 582.74 244.15 581.68 244.39 581.38 244.98 580.56 245.46 580.09 245.99 579.82 247.22 579.55 247.4 579.05 248.51 578.54 249.45 577.24 249.93 576.35 249.96 575.3 251.27 574.34 252.26 573.78 252.74 573.42 253.59 572.83 254.07 572.61 254.78 571.75 255.99 571.62 256.46 571.24 256.89 571.05 257.45 570.57 258.15 570.23 258.06 569.74 258.13 569.18 258.6 568.68 258.85 568.41 259.24 567.5 259.62 567.13 260.5 567.07 261.57 566.9 262.14 566.55 262.7 565.55 263.28 564.66 263.64 565.13 264.33 565.25 265.61 565.82 266.36 565.89 267.1 566.44 268.33 565.81 270.21 566.05 270.75 565.72 272.36 565.23 272.94 564.68 273.79 564.56 274.28 563.49 275.25 563.09 275.48 562.76 276 562.63 276.77 563.24 277.75 562.79 278.38 562.7 278.63 562.24 279.33 562.3 279.9 562.6 281.64 562.43 283.27 562.55 283.59 562.42 284.59 562.54 285.33 562.95 286.32 562.8 287.24 563.2 288.22 563.25 289.26 563.5 290.17 563.86 291.08 564.41 291.63 564.24 292.12 562.65 292.68 561.9 293.34 561.83 293.71 561.23 294.32 561 296.05 560.76 296.57 560.39 298.4 559.52 297.94 558.6 297.76 557.84 297.55 557.31 297.61 556.02 298.71 555.61 298.74 554.98 298.62 554.43 299.09 549 302.67 548.27 302.7 547.95 303.63 547.51 303.98 543.85 304.99 542.84 305.92 542.07 304.96 540.09 304.94 538.94 304.41 534.23 305.88 531.62 304.07 530.32 303.23 528.64 302.57 528 301.66 527.95 301.36 526.95 299.44 525.39 298.4 524.52 296.73 523.8 296.24 523.2 294.52 522.87 293.97 522.1 293.17 521.62 292.43 520.27 291.93 519.37 291.54 518.71 291.08 518.68 290.01 518.77 289.32 518.34 288.26 517.3 287.06 516.88 286.73 516.52 286.33 515.62 286.37 514.85 286.46 514.53 286.07 514.06 285.03 514.01 284.66 513.3 283.31 512.39 283.19 511.6 282.65 510.87 282.44 508.24 282.2 507.33 281.52 506.3 280.9 505.07 281.37 504.28 281.91 503.17 282.4 502.77 283.26 501.8 284.3 500.46 285.15 499.83 286.36 498.56 287.44 497.76 287.94 496.46 287.98 496.24 287.27 496.25 286.33 495.97 284.86 496 283.62 495.84 282.98 494.83 282.59 493.67 282.04 492.62 281.19 492.22 280.17 492.38 279.35 491.85 279.42 491.23 278.95 490.6 279.09 490.37 278.92 489.32 278.38 489.04 277.69 488.17 278.36 487.82 278.73 487.25 277.91 486.95 277.2 484.64 275.57 483.59 274.56 482.43 274.64 480.62 273.93 480.13 273.2 479.97 272.56 479.4 272.21 479.66 271.55 479.33 271.22 479.37 269.98 479.17 268.76 478.66 268.89 478.31 269.1 477.82 269.19 477.33 269.46 477.07 269.9 476.28 270.33 475.13 270.25 474.66 270.73 474.26 270.67 473.21 271.41 472.42 271.51 471.71 271.74 471.27 272.23 470.74 273.08 470.46 274.19 469.7 273.08 469.62 272.2 469.41 271.95 469.25 271.51 468.97 271.38 469.18 270.41 468.83 270.17 468.45 269.44 468.08 268.47 468.19 268.22 468.01 267.48 468.03 266.93 467.42 264.97 466.95 264.03 466.32 263.76 465.73 262.08 465.45 261.46 465.04 261.16 464 260.77 463.3 260.56 463.22 260.26 462.93 260.04 462.45 259.34 461.93 258.76 461.37 258.94 460.7 259.62 460.62 258.99 460.34 257.99 459.91 257.27 459.81 256.85 459.6 256.62 459.49 256.23 459.02 255.11 458.73 254.73 458.15 254.42 457.54 254.22 457.15 254.34 456.29 254.27 455.8 254.55 455.03 254.87 454.55 254.85 453.77 255.09 453.26 255.54 452.6 255.74 451.66 256.36 450.99 256.47 450.65 256.75 450.1 256.88 449.59 256.87 448.84 256.23 447.91 255.93 447.15 255.99 446.32 256.22 445.27 255.97 444.5 255.85 444.13 256.31 443.41 257.66 442.63 258.39 442.44 258.46 442.05 258.92 441.65 259.58 441.1 259.63 440.42 260.86 439.73 261.86 439.23 262.74 439.08 263.46 439.31 264.01 439.5 264.85 439.48 266.19 439.39 267.26 439.18 267.68 439.91 269.07 438.42 270.13 437.29 270.89 435.53 272.63 435.36 272.92 435.09 273.71 434.74 274.37 435.19 275.46 436.09 276.76 436.68 277.38 437.41 277.69 438.35 277.95 440.29 278.26 441.28 278.95 440.67 279.28 439.65 279.67 438.88 280.37 438.3 281.03 438.05 281.58 437.7 281.98 436.69 282.56 435.82 282.65 435.27 283.15 433.69 283.6 432.21 283.26 432 283.27 431.66 282.99 430.95 282.94 430.52 283.02 429.89 282.89 429.29 282.61 429.39 281.91 429.01 281.44 428.43 281.15 427.86 281.02 427.41 280.79 426.73 280.66 426.09 280.85 425.44 280.54 424.72 281.05 424.42 281 423.68 281.43 423.36 281.46 422.77 281.33 422.5 281.37 421.92 281.67 421.63 281.93 420.86 282.27 420.77 282.77 419.89 283.13 419.61 283.37 418.79 283.21 418.61 283.05 418.06 283.28 417.83 283.17 417.44 283.56 416.85 283.75 416.38 284.12 415.84 284.19 415.4 284.4 415.03 284.4 414.35 284.97 414.54 285.7 414.05 286.14 413.61 286.14 413.29 286.34 412.89 287.54 412.16 288.17 412.06 289.16 411.8 289.37 411.32 289.28 410.7 289.67 410.2 289.8 409.66 290.07 409.33 290.47 407.71 291.09 407.12 291.69 405.93 292.01 405.64 292.33 405.3 293.17 405.36 293.8 405.08 296.72 403.83 297.7 402.98 297.93 401.19 298.81 399.57 298.98 398.77 299.57 397.82 300.14 397.08 300.34 395.67 300.3 395 300.66 394.55 301.48 392.74 302.03 392.76 305.31 392.27 305.53 391.58 305.16 390.56 305.47 390.41 305.77 389.98 305.82 389.44 306.07 388.98 306.52 388.58 307.06 387.72 307.1 386.48 307.56 385.89 307.83 385.12 307.98 384.28 308.44 383.25 308.74 382.42 308.65 381.55 308.69 380.38 309.42 380 309.98 379.41 310.26 378.73 310.16 378.49 310.62 378.04 311.2 377.63 311.55 377.12 312.62 376.97 313.08 376.36 313.74 376.17 314.05 375.38 314.22 374.88 314.81 374.05 315.14 373.91 315.77 373.69 316.02 373.73 316.46 373.41 316.91 372.37 317.09 372.11 317.82 371.59 318.22 370.82 319.01 370.2 319.39 369.83 319.32 368.51 319.23 367.57 318.98 366.92 318.61 366.66 318.37 365.87 317.96 365.78 317.29 365.48 317.19 365.28 316.68 365.4 316.52 365.38 315.99 365.56 315.65 365.64 314.88 365.37 314.26 365.53 314.01 365.38 313.06 365.49 312.58 364.68 311.23 364.64 310.99 364.89 310.37 365.31 310.06 365.6 309.37 364.84 308.75 364.88 307.95 364.58 307.51 364.01 306.94 363.62 306.7 363.03 306.56 362.19 306.49 361.12 306.32 359.89 306.37 357.81 306.72 357.41 306.58 357.25 306.33 356.43 306.41 355.79 306.64 354.94 306.67 353.11 306.48 352.28 306.08 351.52 305.81 350.05 305.44 349.8 305.45 349.13 305.68 348.84 305.64 348.43 305.32 348.23 305.31 347.3 304.93 346.23 304.1 345.28 303.62 344.16 303.65 342.97 303.36 342.57 303.08 341.48 302.8 340.11 302.32 339.95 301.82 338.94 301.84 338.88 301.38 339.18 300.6 338.22 299.19 337.87 298.96 337.87 298.69 337.62 298.08 337.22 297.64 336.71 297.58 336.15 297.69 335.49 297.04 334.96 296.4 334.3 296.2 332.73 295.93 332.28 296.26 331.83 296.86 331.77 297.31 331.58 297.61 331.94 299.49 331.44 300.7 331.35 301.13 330.38 302.4 330.62 303.07 330.51 303.91 330.8 304.55 330.57 304.95 330.01 306.63 327.89 307.74 327.64 307.53 326.75 307.18 326.13 307.04 325.68 307.05 324.42 307.47 324.12 307.47 323.72 307.95 323.97 308.66 323.46 309.62 322.2 311.15 322.28 312.05 321.74 313.84 321.28 314.4 320.97 314.5 320.75 314.92 320.33 315.08 319.84 315.43 318.59 315.5 318.7 316.15 318.57 316.96 318.67 318.05 318.41 318.58 318.52 319.21 318.25 319.8 318.09 321 317.77 321.51 317.79 321.89 316.4 322.78 314.5 323.53 313.26 324.2 311.91 323.82 310.06 323.53 308.47 323.75 307.03 323.5 304.08 323.29 301.23 326.17 299.81 326.79 299.42 328.77 297.62 328.2 296.06 327.32 293.49 328.45 292.86 328.95 291.62 330.32 291.49 330.56 290.08 331.12 288.87 331.66 288.44 332.17 287 332.32 286.6 332.54 285.88 333.9 284.65 334.4 277.76 334.98 276.18 335.49 275.63 335.19 275.15 334.6 273.89 335.11 273.32 335.67 273.02 336.18 273.32 336.31 273.54 337.13 273.47 337.45 274.24 338.13 274.21 339.27 274.51 339.52 274.6 339.8 274.45 340.15 274.7 341.34 274.51 341.57 274.64 342.29 274.26 343.02 273.99 343.26 273.73 343.83 273.81 344.66 273.74 344.78 274.13 345.78 274.02 346.05 274.32 347.28 273.7 347.63 273.2 348.09 273.4 348.45 272.76 349.91 271.6 350.42 271.6 350.85 271.28 351.36 270.76 351.29 270.73 351.77 270.57 352.15 270.6 353.87 270.76 355.15 269.93 355.88 268.23 356 267.15 356.68 267.5 359.37 267.1 360.58 266.21 361.67 265.14 361.75 265.16 363.02 264.3 364.13 263.03 365.41 261.56 365.94 260.29 367.46 258.24 369.37 258.23 370.71 258.49 371.58 259.29 373.89 258.56 374.29 258.02 374.44 257.94 374.79 257.45 375.06 257.18 374.84 256.59 374.73 256.46 374.56 255.68 374.53 255.31 374.68 255.1 374.95 253.62 375.04 253.31 374.52 252.92 374.19 252.56 374.32 252.2 374.05 251.7 373.98 250.95 374.21 250.22 373.97 249.65 373.95 249.48 373.81 248.76 373.9 248.49 373.73 248.16 374.07 247.91 374 247.51 374.32 247.38 374.66 247 374.97 246.77 375.87 246.03 376.14 245.21 377.33 244.74 377.5 244.35 377.27 243.83 377.39 243.28 377.11 242.97 377.35 242.29 377.23 242.12 377.5 241.32 377.55 241.09 377.99 240.1 378.84 239.79 379 239.74 378.86 239.2 378.67 238.41 378.14 237.75 378.06 237.25 377.79 236.43 376.91 236 376.67 235.54 376.18 235.21 375.7 234.88 375.4 233.9 374.75 233.77 373.78 233.86 373.48 233.21 372.43 232.9 372.46 232.24 372.03 231.63 371.84 231.18 371.8 230.8 371.31 229.77 371.26 229.21 371.16 228.56 370.86 227.71 370.23 227.29 370.95 226.91 371.09 226.48 370.56 225.29 370.69 225.08 370.78 224.43 370.56 224.15 371 223.7 371.19 223.08 371.09 222.83 370.52 222.2 370.56 221.2 370.04 221.11 369.44 220.9 368.82 220.46 368.7 219.8 368.69 219.36 368.56 219.13 369 218.79 369.13 218.21 369.01 217.8 369.02 217.52 368.73 217 368.77 216.78 369.09 216.42 369.14 216.26 368.39 215.73 368.12 215.32 368.11 215.06 368.36 214.57 368.24 213.84 367.88 213.57 367.44 213.55 366.81 213.73 366.57 213.84 366.1 213.7 365.85 213.35 365.88 213.11 365.38 213.33 365.14 212.94 364.81 213 364.6 212.74 364.29 212.65 363.75 211.99 363.43 211.74 363.47 211.42 363.16 211.59 362.42 210.96 361.85 210.86 361.2 210.95 360.7 210.71 360.13 210.64 359.75 210.37 359.51 210.32 359 209.92 358.7 209.21 358.59 208.87 358.76 208.61 358.56 207.78 358.4 207.29 358.41 206.7 357.49 206.28 354.74 206.15 354.18 206.19 353.59 206.06 353.43 205.24 353.26 203.51 351.86 203.72 351.39 202.85 350.57 202.91 350.13 201.62 349.71 200.9 349.01 200.49 348.96 200.03 348.7 199.82 348.81 199.32 348.56 199.03 348.1 198.4 347.8 197.73 347.86 197.5 347.77 197.26 348.25 196.31 349.36 196.31 349.82 196.08 350.93 195.78 351.4 195.43 351.7 195.39 352.27 194.61 352.81 194.09 353.26 193.72 353.7 193.72 353.91 193.04 354.05 192.42 354.26 191.98 354.32 191.64 354.57 191.12 354.69 191 354.56 190.24 354.39 188.33 353.45 187.77 353.39 187.11 352.97 186.51 353.09 186.15 352.82 185.44 352.81 184.73 352.9 184.28 352.65 183.71 352.15 183.12 351.9 182.56 352.02 182.02 351.54 181.65 351.42 181.22 351.11 180.18 351.06 179.37 351.32 179.3 351.21 178.25 350.79 178.05 350.47 177.48 350.45 177.41 349.58 176.94 349.28 176.08 347.9 175.96 347.41 175.2 347.15 175.07 346.94 174.11 346.57 173.41 345.77 173 345.86 172.37 346.33 171.57 346.48 170.91 346.53 170.57 345.95 170.39 345.3 170.36 344.72 170.18 344.14 169.45 343.97 169.15 343.41 169.22 343.22 168.75 342.62 168.61 342.02 167.91 341.52 167.75 341.73 167.19 341.8 165.88 343 164.46 342.87 163.79 343.1 162.93 343.59 162.45 344.05 161.76 344.6 161.71 344.88 160.79 345.59 160.23 345.47 159.51 345.73 158.38 345.53 157.66 345.87 157.54 346.17 156.75 346.37 156.37 345.93 155.41 345.42 154.53 345.26 154.05 345.38 153.23 345.24 152.88 345.29 151.77 345.07 151.37 345.29 151.15 345 150.93 345.09 150.7 344.81 150.15 344.46 149.51 344.3 149.2 344.04 148.6 344.16 148.05 344.05 147.83 344.36 147.41 344.33 147.16 344.57 146.21 344.02 145.83 343.61 145.25 343.5 144.82 343.57 144.34 343.09 143.58 343.34 143.28 343.52 142.93 343.38 141.85 344.22 141.05 344.37 139.89 345.06 139.73 345.26 138.85 345.58 138.37 345.28 137.72 345.2 137.15 344.7 136.75 345.21 135.58 346.16 133.98 346.58 133.4 347.13 132.78 347.27 132.29 346.87 132.04 346.3 131.69 345.74 131.58 345.31 130.63 345.3 130.07 345.13 129.39 344.76 128.79 344.59 128.39 344.68 128.07 344.29 127.28 344.18 126.31 343.76 126.05 343.28 125.36 342.98 125.36 342.48 124.77 342.07 125.48 341.18 125.36 340.31 126.14 339.65 126.03 339.3 127.1 338.74 126.99 338.45 127.33 337.96 126.91 337.61 126.68 337.16 126.19 337.13 125.74 336.36 125.27 336.16 124.48 335.46 124.46 335.15 124.03 334.46 123.76 333.5 123.13 333.38 122.35 333.07 121.82 333.33 120.32 333.01 120.28 332.34 119.72 332 119.48 331.52 118.79 331.06 118.63 330.5 118.4 330.29 117.9 330.25 117.63 330.11 117.03 330.3 116.5 330 116.18 329.2 115.92 328.23 115.28 327.86 115.07 327.87 114.62 327.47 113.91 327 113.96 326.45 112.45 325.88 111.82 325.72 110.94 325.35 109.6 323.8 108.92 323.26 108.36 323.08 107.78 322.67 107.22 322 106.94 321.34 106.33 320.98 105.56 320.73 105.16 320.4 104.78 319.81 103.65 318.89 102.99 318.62 101.83 317.9 101.17 316.7 100.72 316.25 100.27 316.04 99.68 315.05 99.57 314.55 99.6 314.15 99.5 312.9 99.42 312.47 98.99 311.65 98.34 311.23 97.36 311.16 96.27 311.68 95.42 312.18 94.1 312.87 93.38 313.06 92.38 313.16 91.04 313.13 90.06 312.78 89.38 312.39 88.33 311.39 88.06 310.91 87.82 310.25 87.58 309.18 87.37 308.55 86.41 306.75 86.37 306.44 86.06 305.23 86.21 304.43 86.21 303.54 86.1 303.18 85.44 302.97 84.62 303.06 84.12 302.97 82.3 303.44 81.44 303.48 80.35 303.31 79.8 302.96 79.64 302.59 79.74 302.08 79.97 301.62 79.9 301.02 79.02 300.34 78.74 300.24 77.88 300.24 77.22 300.7 76.83 300.7 76.28 300.53 75.97 300.16 75.88 299.28 76.01 298.29 76.44 297.01 76.47 296.53 76.29 296.35 75.72 296.28 75.51 296.37 74.5 297.04 73.81 296.92 72.83 296.1 72.25 295.42 71.79 294.45 71.32 293.89 70.4 293.37 69.62 293.47 69 293.85 68.5 294.3 68.01 294.92 66.96 296.76 66.54 296.61 66.41 296.29 66.51 295.65 66.68 295.08 67.01 294.3 66.87 293.64 66.58 293.55 66.14 293.62 65.33 293.56 64.91 293.38 64.68 293.1 64.6 292.46 64.04 290.77 63.93 290.61 63.06 289.97 62.43 289.66 62.05 289.65 61.27 290.39 60.4 290.97 60 291.02 59.96 290.54 59.11 290.11 58.89 289.66 58.48 289.3 57.87 289.1 57.23 287.66 57.29 287.48 57.11 286.95 55.87 286.68 55.26 286.07 54.51 285.98 54.01 285.69 53.55 285.85 52.77 285.77 51.9 285.4 51.88 285.84 51.54 286.3 51.57 286.71 51.26 287.44 51 287.64 50.49 288.93 49.87 289.06 49.58 289.43 49.37 289.87 49.02 290.03 48.1 290.13 47.69 290.91 47.31 291 46.98 291.32 46.6 291.21 45.98 291.65 45.1 291.64 44.02 292.4 43.83 293.03 43.31 293.08 41.89 293.46 41.38 293.66 40.99 293.6 40.17 293.83 39.61 293.79 39.12 294.21 38.77 294.33 38.49 294.94 38.28 295.62 37.56 296.41 37.71 297.51 37.57 298.11 37.62 299 37.75 300.08 37.77 300.76 37.31 301.6 36.67 302.1 36.1 302.4 35.63 302.87 34.98 302.93 34.63 303.28 34.15 303.43 33.55 303.44 32.94 303.24 32.38 302.95 32.03 302.98 31.6 302.7 31.12 302.95 30.99 303.23 30.37 303.14 29.92 303.74 29.05 304 28.6 304.26 28.2 304.01 27.31 303.96 26.65 304.21 25.98 303.73 25.42 303.41 24.59 303.34 24.13 303.16 23.47 303.18 23.09 303.74 22.72 304.11 22.43 304.57 21.89 304.93 21.81 305.21 21.42 305.68 20.73 306.17 20.05 306.38 19.48 307.67 18.97 307.55 18.87 307.19 18.5 307.23 17.72 306.6 17.41 306.5 17.25 306.26 16.35 306.02 16 305.59 15.56 304.89 15.23 304.87 14.83 305.09 14.39 304.53 14.2 304.67 13.56 304.47 13.34 304.11 12.9 303.87 12.63 303.91 11.29 303.4 10.98 303.21 10.91 301.95 10.6 301.71 10.55 301.01 10.37 300.87 10.41 300.4 10.17 300.37 10.13 299.24 9.81 299.12 8.1 299.03 7.5 298.77 7.29 298.28 6.67 297.18 5.85 296.93 5.08 296.42 4.36 296.28 4.18 295.76 3.66 295.3 3.08 295.33 2.48 294.1 2.39 293.72 2.05 293.04 1.34 291.95 1.17 291.23 1.16 290.77 1 289.9 1.21 289.7 1.29 288.82 1.43 288.37 1.4 287.92 1.22 287.49 1.29 286.51 1.77 286.62 2.48 286.36 3.3 286.6 3.67 286.42 4.35 286.49 4.75 286.3 5.42 286.11 5.97 286.21 6.62 285.66 7.52 285.48 7.67 284.33 7.9 284.18 8.03 283.8 8 283.34 8.23 282.92 8.25 282.36 8.58 281.66 8.64 281.27 8.99 280.79 8.96 280.43 9.29 279.6 9.81 279.53 10.06 279.3 10.4 278.76 10.62 278.62 11.64 278.44 12.06 278.13 12.22 277.8 12.99 277.41 13.17 277.06 13.11 276.72 14.14 276.21 14.29 276.06 13.86 274.44 13.5 273.94 13.41 273.3 13.42 272.62 12.97 272.17 12.31 271.66 11.82 270.98 11.38 269.29 11.57 267.88 11.52 267.18 11.95 266.68 11.96 266.16 11.79 265.88 11.9 265.58 11.77 265.3 11.82 264.91 11.81 263.59 11.72 263.29 11.93 262.76 12.26 262.31 12.3 261.46 12.66 261.01 12.58 260.44 12.66 260.05 12.65 259.43 12.53 257.84 12.89 256.19 12.41 254.62 12.65 253.99 12.62 252.94 12.51 252.54 12.49 251.63 12.66 250.99 12.64 250.39 12.88 250.01 13.22 249.18 13.12 248.62 13.29 248.04 13.54 247.68 13.7 247.17 14.08 246.91 14.2 246.62 13.95 245.95 14.28 245.58 14.41 244.46 14.74 243.91 15.12 243.71 15.22 242.3 15.74 241.15 15.72 240.55 15.96 239.95 15.93 239.1 16.14 238.78 16.22 238.42 16.92 237.58 16.92 237.23 16.56 236.78 16.32 236.16 16.31 235.02 16.5 234.8 17.34 234.53 17.69 234.23 17.81 233.95 18.33 233.58 18.45 233.4 18.3 232.97 18.29 232.53 18.16 232.18 18.27 231.72 18.55 231.23 18.21 230.65 18.18 229.97 18.38 229.04 18.57 228.74 18.42 228.28 18.63 227.48 18.36 227.37 18.13 226.81 17.96 225.86 18.87 224.51 18.75 224.11 19.15 223.66 19.22 223.31 19.43 223.13 20.25 222.93 20.32 221.54 20.67 220.81 20.83 219.94 20.46 218.77 20.37 217.89 19.21 217 19.5 216.5 19.3 216 19.36 215.76 18.89 215.3 18.95 214.49 19.33 213.63 19.16 212.33 19.3 211.81 21.11 212.39 22.59 212.5 23.21 211.99 23.3 211.67 24.23 209.38 25.08 207.84 28.59 207.55 29.73 207.83 41.58 214.71 43.52 217.36 44.85 218.69 45.69 220.11 45.53 221.75 44.51 223.15 43.87 224.49 43.42 226.58 43.51 228.13 43.78 230 44.63 231.79 45.12 233.77 45.49 234.48 45.95 235.12 47 235.95 49.38 234.99 51.25 234.5 53.66 234.54 54.25 234.71 55.18 235.22 55.54 235.64 55.71 236.45 55.65 236.69 57.2 238.31 57.92 240.45 58.01 243.88 57.83 246.38 56.78 249.26 56.05 250.77 56.1 254.26 56.08 255.04 56.08 261.17 57.23 262.16 59.71 262.26 62.07 261.47 64.19 260.23 66.11 258.89 67.56 256.85 68.05 254.24 68.02 250.87 67.74 247.29 69.8 243.87 72.82 241.74 75.09 240.8 77.02 240.46 78.97 240.24 80.26 241.57 80.83 242.71 81.51 243.92 81.87 247.35 81.58 249.81 81.69 250.79 81.45 254.18 81.94 256.44 82.46 257.61 83.43 258.61 84.52 258.99 85.76 258.78 87.7 257.66 89.22 254.25 89.68 252.21 88.72 243.83 88.74 240.41 88.76 240.35 90.02 239.18 94.32 238.65 97.47 239.93 98.72 240.42 100.86 241.07 103.43 242.75 104.14 241.86 104.38 241.71 105.23 241.54 106.01 242.32 106.41 242.29 107.28 242.65 107.6 242.72 108.48 243.14 109.13 243.24 109.34 242.25 110.56 240.99 111.56 240.85 112.18 240.15 112.5 240.04 113.68 237.52 113.79 237.34 113.88 236.72 113.33 235.03 113.24 234.48 112.96 234.04 112.8 233.51 112.82 233.14 113.24 232.64 113.85 231.51 113 231.35 112.69 231.09 112.34 231.02 111.93 231.13 111.48 231.09 111.06 230.92 110.8 230.26 110.37 229.72 110.53 229.23 110.55 228.22 110.31 227.69 110.87 227.47 111.87 227.34 112.51 226.69 112.91 226.67 112.97 226.29 113.47 225.96 113.9 225.45 114.21 225.29 114.46 224.98 115.03 224.59 115.44 224.03 116.21 223.59 116.22 222.99 116.77 222.83 118.14 222.87 118.58 222.33 119.22 222.31 119.9 222.58 120.76 222.1 121.33 222.2 121.97 222.06 122.23 222.5 123.29 222.81 124.05 222.55 124.44 222.28 124.87 222.72 125.4 222.87 126.59 222.6 126.57 220.24 126.72 220.14 128.11 219.86 128.53 219.49 128.76 219.06 129.57 218.44 129.99 218.31 131.49 218.08 131.87 217.52 131.67 217.05 131.81 216.67 132.08 216.64 132.77 216.22 133.03 216.2 133.18 215.12 133.47 214.87 133.69 213.68 133.91 213.29 133.93 212.75 134.3 212.52 134.7 211.97 136.11 211.57 136.44 211.72 137.22 211.71 137.37 211.47 137.39 210.43 138.29 210.18 138.9 209.96 139.01 209.18 139.26 208.87 139.86 208.83 140.3 208.43 141.56 208.27 141.49 207.49 141.75 206.72 142.24 206.37 142.85 206.39 143.14 206.63 143.55 206.7 143.75 206.94 144.39 207.08 144.72 207.51 145.38 207.76 146.04 207.55 146.47 207.55 147.06 207.04 147.38 206.96 147.75 206.61 147.92 206.1 148.62 205.63 148.73 205.33 149.26 204.71 149.35 204.39 149.96 204.28 150.28 203.82 150.96 203.7 151.31 203.32 151.35 202.96 152.14 202.48 153.04 202.47 153.3 202.39 154.31 201.7 155.65 200.72 156.01 200.6 157.42 199.62 158.32 198.33 158.72 198.31 159.53 198.52 160.25 198.09 160.57 198.22 160.95 198.04 161.65 198.46 162.01 198.92 162.47 199.19 162.93 199.61 163.79 200.96 163.99 201.36 164.09 201.93 163.94 202.32 164.16 202.81 164.13 203.19 164.27 203.73 164.69 204.08 164.68 204.39 164.48 204.77 164.67 205.4 165.22 205.67 165.57 205.97 165.82 206.4 166.41 206.45 167.04 206.94 167.3 207.05 167.61 206.79 168.94 205.43 169.31 205.17 169.47 204.7 169.74 204.29 170.08 204.36 170.39 203.87 170.66 203.69 170.84 203.31 171.52 203.08 171.94 202.82 172.47 202.79 172.92 202.39 173.53 202.44 174.11 202.2 174.33 201.85 174.62 201.82 176.41 201.96 176.81 201.86 177.35 201.91 177.64 201.74 178.59 201.84 178.98 202 179.69 201.83 180.04 201.88 180.9 201.22 181.95 201 182.48 200.68 183.09 200.5 183.4 199.51 184.58 198.97 184.99 199.1 185.48 199.13 185.99 199.03 186.54 198.64 187.02 198.03 187.41 197.93 187.81 197.43 188.54 198.15 189.19 198.39 189.93 198.85 190.33 199.3 190.94 199.62 191.37 199.7 192.33 200.71 191.92 201.91 192.02 202.57 192.17 202.8 194.3 203.59 195.43 203.67 195.74 203.95 196.41 204.18 196.97 204 197.81 204.34 198.37 203.64 198.79 203.3 199.25 203.12 199.74 203.05 200.46 202.69 200.81 202.67 201.74 202.25 202.15 202.59 202.44 202.28 202.24 201.84 202.53 200.87 202.79 200.72 202.93 200.3 202.57 199.36 202.53 198.48 202.96 197.77 203.67 197.7 204.45 196.96 204.84 197.36 205.13 197.48 205.73 197.37 206.41 197.02 206.7 195.54 206.46 194.93 206.59 194.64 206.45 193.85 206.69 193.44 207.38 193.38 207.67 193.18 208.25 193.11 208.76 192.7 209.46 193.15 209.93 192.6 210.52 192.72 210.78 192.67 210.98 192.36 211.28 192.21 212.13 191.43 213.5 191.35 213.94 191.24 214.62 191.94 215.25 191.99 215.66 192.19 216.06 192.65 216.62 192.54 217.13 192.95 217.32 193.41 217.78 193.76 218.18 194.65 218.92 194.67 220.16 195.61 220.59 196.28 220.57 196.63 220.84 196.9 220.9 197.5 221.49 197.79 221.77 197.7 222.23 198.14 223.19 198.05 223.18 198.51 223.91 198.4 224.75 198.18 225.21 198.18 225.51 197.93 225.6 197.66 226.18 198.05 226.89 197.51 227.66 196.1 228.07 195.2 228.94 193.87 230.16 192.92 231.53 192.39 231.75 192.18 232.28 192.29 232.74 191.99 232.99 192.07 234.43 190.75 235.16 190.34 235.61 190.18 235.49 189.63 235.45 188.6 235.91 188.06 235.85 187.53 235.18 187.49 234.68 187.1 234.1 186.88 233.24 186 232.36 184.88 232.18 184.29 232.12 183.78 232.23 183.61 233.19 183.01 233.68 183.07 234.07 183 235.21 182.59 236.59 182.48 237.05 182.09 238.06 181.56 238.69 180.31 239.03 180.1 239.27 179.67 240.17 179.34 240.56 178.71 243.12 176.76 243.24 176.15 243.76 175.14 244.12 174.93 244.15 174.56 243.95 174.14 244.05 173.35 244.43 172.65 244.81 172.28 245 171.83 244.27 171.04 243.98 169.45 242.94 167.71 242.72 167.06 241.77 166.25 241.57 165.76 240.71 164.6 240.66 164.44 240.69 163.57 240.26 163.24 239.18 163.11 239.12 162.94 239.13 161.77 239.08 161.66 237.77 160.64 236.75 160.25 236.59 159.86 235.2 157.25 234.65 154.89 234.71 153.37 234.06 151.66 233.36 151.31 232.92 151.52 232.15 151.67 231.34 151.3 230.43 151.06 229.57 151 229.32 150.34 228.64 150.04 228.18 149.65 227.04 149.24 226.45 149.1 225.77 148.54 225.13 147.86 224.49 147.57 223.98 146.92 222.73 146.33 221.76 145.48 220.06 143.58 220.27 143.2 220.24 142.23 220.67 141.51 220.18 140.83 220.27 139.91 220.43 139.59 220.52 139.1 220.99 138.91 221.5 138.2 221.27 137.57 221.37 136.8 221.22 136.61 221.4 136.17 221.34 135.4 221.67 134.83 221.7 133.61 220.36 131.41 220.11 130.62 220.17 128.44 220.01 126.87 220.78 126.18 220.81 125.84 221.16 125.52 221.33 125.15 221.58 124.95 221.81 123.64 222.05 123.46 221.94 122.28 221.24 121.4 220.87 121.18 220.37 118.59 218.87 118.34 217.67 118.34 216.72 117.69 215.22 116.2 213.99 114.92 214.89 113.81 211.22 110.1 211.17 109.73 211.88 107.43 211.73 106.57 212.24 106.24 212.48 105.91 211.7 105.2 211.62 104.89 212.08 103.79 212.3 103.62 212.34 103.16 212.56 102.71 213.23 102.68 213.86 102.09 214.39 101.95 215.15 101.84 215.55 101.58 215.47 100.09 216.64 99.1 216.99 98.42 217.6 98.17 218.33 98.46 218.71 98.98 219.3 99.44 219.91 100.05 221.94 100.22 222.93 99.65 223.18 99.82 223.67 99.83 225.28 100.06 225.9 101.41 226.4 101.9 227.06 102.33 228.02 103.09 228.39 103.5 229.32 103.59 229.93 103.72 230.63 103.68 231.09 104.08 231.85 104.42 232.39 104.86 233.05 105.6 233.41 105.6 234.66 105.91 235.33 106.26 235.54 106.48 236.71 107.11 237.48 107.62 238.64 107.7 239.65 107.61 240.17 107.66 241.84 108.11 242.32 108.36 244.25 107.76 244.84 107.3 245.68 107.27 246.64 106.98 247.19 106.99 247.65 106.55 248.61 106.94 251.17 106.78 251.66 106.33 252.15 106.43 252.6 106.35 252.82 106.54 253.44 106.58 254.13 105.99 254.84 105.83 255.18 105.66 254.85 104.74 255.07 104.26 255.34 103.96 255.26 102.28 255.86 100.19 255.96 98.83 256.6 97.88 257.28 97.7 257.93 97.67 258.5 96.77 259.45 96.03 259.28 95.75 259.47 95.12 260.07 94.13 260.51 91.68 260.04 89.9 259.68 89.12 258.72 87.5 259.15 86.87 261.1 84.68 261.26 83.94 261.91 83.38 263.69 83.03 264.85 82.48 266.22 82.03 267.44 82.03 269.41 80.98 269.86 81.06 270.18 81.29 270.66 81.94 271.43 82.09 272.68 82.98 273.01 83.78 273.51 84.52 274.51 84.8 275.5 84.69 277.04 85.08 278.14 85.74 280.04 86.29 281.24 86.87 282.87 88.22 283.26 89.06 282.61 90.22 281.63 90.97 281.51 91.73 281.23 92.3 281.44 92.82 280.92 94.01 282.45 94.33 283.17 94.79 284.43 95.35 286.96 97.05 288.58 97.43 289.27 98.03 290.69 98.89 292.62 102.69 293.61 103.8 295.28 104.5 295.97 105.73 296.82 109.43 298.53 113.21 299.03 114.62 299.87 115.35 300.75 115.48 300.96 115.79 301.71 115.89 302.63 115.18 303.54 113.8 303.61 112.33 303.56 111.98 303.72 110.39 304.31 108.27 304.86 107.02 305.2 106.66 305.42 106.62 306.51 105.7 307.02 105.47 308.32 104.51 310.19 104.31 310.65 103.89 310.36 103.28 310.87 102.39 311.67 101.68 311.62 100.08 311.46 99.53 311.06 98.84 311.07 98.62 311.44 98.35 311.53 98 311.24 97.18 310.58 96.75 309.81 96.12 309.44 95.73 309.23 95.35 309.7 93.95 309.99 92.7 310.06 92.14 310.3 91.85 310.48 90.26 311.09 89.67 311.38 89.07 311.57 88.28 311.69 87.47 312.11 86.52 312.4 86.03 312.69 85.32 312.67 84.59 313.09 83.35 313.57 82.98 314.09 82.45 314.46 81.97 314.53 81.26 314.45 80.45 314.88 79.69 316.58 78.86 316.72 77.34 317.14 75.92 317.87 74.67 318.71 73.76 319.22 72.6 319.47 71.51 320.15 70.91 320.02 70.27 320.59 69.89 321.24 69.6 321.61 69.03 324.21 67.71 324.63 67.32 325.16 66.96 325.32 66.64 325.6 66.63 326.23 66.36 326.69 65.19 327.32 64.59 327.51 63.97 328.08 63.91 329.35 63.24 330.2 62.66 331.22 61.84 331.49 61.82 331.33 60.35 331.13 59.68 331.31 59.5 331.7 57.49 331.14 57.28 330.84 56.93 330.86 56.44 330.66 55.7 330.25 54.63 329.99 54.13 329.63 52.67 329.3 52.09 329.4 51.6 330 50.4 330.32 48.79 330.29 47.83 329.94 46.82 330.02 46.3 330.66 45.06 331.74 43.71 332.73 42.23 333.67 41.1 335.12 40.21 335.64 39.24 335.98 38.14 336.44 37.17 338.4 35.19 339.13 34.54 340.49 33.97 341.2 33.61 341.47 33.14 340.74 32.3 340.24 31.9 340.05 31.6 340.03 30.19 340.46 29.43 340.09 28.61 339.66 25.94 339.66 24.41 339.32 22.52 340.53 21.76 341.68 21.25 343.5 19.06 344.67 17.24 345.28 16.52 345.9 16.01 346.28 15.28 346.32 13.57 346.43 12.99 347.23 11.56 347.65 10.25 347.47 8.5 347.98 7.15 347.83 5.39 348.3 5.37 348.95 5.66 349.29 5.66 349.64 6.15 350.7 6.78 351.42 7.49 352.15 8.71 352.5 9.11 352.96 9.07 353.89 8.06 354.7 7.81 355.25 7.87 356.18 7.66 358.12 8.45 358.98 8.03 361.2 8.01 361.8 7.2 362 6.06 362.51 5.44 362.84 4.88 363.75 3.79 363.93 3.93 365.27 3.68 365.63 3.25 366.26 2.98 367.83 2.37 368.55 2.26 369.59 1.87 370.7 1.64 371.27 1 372.13 1.71 373.03 2.26 374.31 1.98 374.6 2.4 375.34 3.82 375.91 4.19 376.34 4.37 376.9 5.24 377.39 5.44 377.24 6.23 377.55 7.14 377.8 7.61 377.61 8.18 377.74 9.32 378.03 9.35 378.61 9.84 378.98 9.74 379.43 10.19 379.57 11.35 379.47 11.74 379.58 12.08 379.89 12.36 380.01 13.04 380.44 13.79 380.68 13.99 380.7 14.75 380.8 15.1 381.51 15.87 381.3 16.35 381.29 16.91 381.18 17.14 381.48 17.61 381.54 17.91 381.84 18.32 382.63 18.68 383.74 18.8 384.21 19.2 384.36 19.75 384.76 20.09 385.29 21.14 385.77 21.64 385.74 22.14 386.21 22.87 386.68 23.2 387.27 23.33 387.69 23.23 387.91 23.31 389.43 23.36 389.73 23.63 390.27 24.56 390.98 25.65 391.48 26.32 391.75 27.48 391.99 27.78 392.42 27.63 392.82 27.71 393.74 27.45 394.09 27.45 394.82 28.25 395.22 28.84 396.08 28.92 396.44 29.21 396.94 29.91 397.58 30.38 397.81 31.37 398.67 32.08 399.14 32.28 399.65 32.89 400.07 33.53 400.68 33.98 401.23 34.22 401.96 34.24 402.68 34.63 403.35 35.12 404 35.3 404.88 35.86 405.88 35.85 406.75 35.94 407.6 36.24 408.16 36.61 408.76 36.84 409.34 37.36 410.43 37.75 411.45 38.66 411.73 39.77 412.1 40.42 412.68 40.9 413.76 41.54 414.23 42 414.57 42.48 415.01 42.67 415.74 42.82 416.6 43.21 417.25 43.66 418.05 44 418.92 44.3 419.41 44.17 419.98 44.3 420.51 44.83 420.89 45.06 421.2 45.67 421.65 45.87 421.85 45.82 422.49 46.11 423.23 46.11 423.47 46.2 423.83 46.09 424.8 46.55 425.24 46.61 425.65 47.03 426 46.87 426.35 46.9 426.76 46.65 427.4 46.66 427.52 46.49 428.56 46.23 428.98 46.31 429.5 46.18 429.71 45.95 430.09 45.83 431.17 45.12 431.73 44.61 432.31 43.85 433.27 43.78 433.96 43.97 435.07 44.42 436.14 44.41 437.01 44.59 437.73 44.97 438.17 45.48 439.14 46.11 440.15 46.67 440.98 46.69 441.54 46.77 442.53 46.62 443.62 47.11 444.69 47.51 445.3 47.95 446.53 48.13 447.56 48.4 449 48.19 449.68 47.96 450.05 47.75 450.46 47.34 450.76 46.87 451.16 45.88 451.35 45.25 451.92 46.2 452.23 46.46 452.68 47.11 452.8 48.05 452.69 48.5 452.99 49.19 454.11 49.24 455.38 49.12 456.09 48.93 456.85 49.08 457.53 49.14 458.53 48.98 459.04 49.61 459.12 49.91 459.55 50.24 461.2 50.17 461.94 50.39 462.97 49.81 463.47 49.78 464.84 49.25 465.04 48.62 465.45 48.01 465.88 47.97 467.19 47.73 467.83 48.15 469.18 48.19 469.71 48.29 470.77 48.28 471.57 48.1 471.92 47.93 472.9 47.92 473.41 47.85 473.88 47.97 474.12 48.43 474.23 49.19 474.16 50.36 475.45 51.83 475.54 52.27 475.76 52.48 476.16 53.44 475.98 53.81 476.22 54.2 476.19 54.96 476.62 55.76 478.01 55.75 479.27 56.84 480.28 56.54 481.94 57.25 482.48 57.9 483.28 57.89 484.25 57.72 483.84 59.38 483.84 60.98 484.35 62.28 484.46 63.17 484.28 63.7 483.84 64.41 483.87 64.79 484.1 65.88 483.68 66.18 483.01 66.53 482.5 67.16 481.83 67.8 481.52 68.24 481.16 69.01 480.74 69.63 480.42 70.38 480.43 70.88 480.31 71.34 480.36 72.19 480.19 73.17 480.65 73.58 480.56 74.85 480.65 75.34 479.88 76.25 479.78 76.58 479.92 77.35 480.19 78.17 480.11 78.97 480.56 79.48 480.79 80.05 480.69 80.46 480.97 80.73 481.35 81.85 481.5 82.53 481.51 83.08 482.64 84.53 482.06 85.68 482.09 86.21 481.89 86.44 481.88 86.79 481.56 87.15 480.88 88.16 480.66 88.88 480.5 89.14 480.44 90.02 480.84 90.26 481.59 90.55 481.84 90.9 482.89 91.06 482.97 91.68 484.17 93.41 485.04 93.95 485.89 94.34 487.04 94.36 487.7 94.61 488.2 95.31 488.18 95.85 489.24 97.39 489.98 98 490.07 98.63 489.86 99.25 490.1 101.2 490.31 101.54 490.01 102.56 490.25 103.06 490.07 103.26 489.88 103.86 489.79 104.45 489.4 104.9 489.29 105.47 489.87 106.17 490.41 106.52 491.63 107.51 491.78 107.49 492.14 108.23 492.42 109.42 492.88 109.73 492.73 110.24 494.29 110.23 494.97 111.37 495.52 112.52 496.23 113.65 497.11 114.54 497.93 115.74 498.42 116.21 499.04 116.96 500.33 117.5 501.71 117.74 502.46 119.64 503.55 120.87 504.01 121.61 504.41 121.71 505.14 122.19 505.76 123.25 506.55 123.57 508.11 123.87 508.81 123.91 509.36 124.69 509.87 125.16 510.3 125.41 511.24 126.58 511.87 126.73 512.8 126.86 514.1 127.2 514.6 127.17 514.94 126.89 515.57 126.84 516.2 126.18 516.41 126.08 516.6 125.56 516.91 125.16 517.18 124.38 517.8 123.94 517.76 123.69 518.48 122.84 518.92 122.41 518.99 122.13 519.26 121.9 519.42 121.53 520.49 121.29 520.94 120.72 521.6 120.37 521.85 120.1 522.43 119.82 522.58 119.44 522.89 119.25 523.03 118.93 524.09 118.58 524.59 118.51 524.97 118.78 525.36 118.84 526.01 118.02 526.19 117.57 527.22 117.59 527.81 117.55 528.54 117.26 528.61 117.35 529.42 117.32 529.81 117.39 530.08 117.22 530.89 117.24 531.37 116.11 531.89 115.69 532.3 115.55 532.83 115.09 533.18 115.1 533.46 114.87 533.87 114.26 534.13 113.34 534.33 112.92 534.26 112.07 534.48 111.32 534.85 110.65 535.26 110.67 535.4 110.25 535.95 109.23 536.75 107.65 537.59 107.36 538.7 107.05 540.09 107.04 540.27 106.76 540.21 106.24 540.32 105.75 540.28 105.3 539.98 104.94 540.02 104.51 540.45 103.79 541.23 103.46 541.71 103.36 542.19 103 542.44 102.61 543.1 102.27 543.41 101.85 543.61 101.75 543.99 101.97 544.53 101.56 544.67 101.12 545.11 100.84 545.31 100.37 545.83 100.43 546.11 100.68 546.9 100.3 547.01 99.45 546.77 98.35 546.99 98.15 546.87 97.74 546.85 96.59 547.1 96.39 547.37 95.71 548.15 95.64 548.38 95.09 548.3 94.55 548.52 93.69 548.94 93.21 549.5 92 549.54 91.01 550.35 90.71 550.23 90.35 550.38 89.59 550.26 88.67 550.56 88.4 550.66 87.89 550.92 87.2 550.85 86.78 551.04 86.19 551.12 85.64 550.94 85.49 550.48 85.41 550.45 84.83 550.62 84.63 550.68 84.2 551.58 83.77 551.85 82.65 552.24 82.29 553.01 82.28 553.75 81.83 554.5 80.83 555.26 80.15 555.29 79.7 556.57 79.32 556.78 79.52 557.14 79.58 557.52 79.41 558.04 79.74 559.51 79.93 559.72 79.29 560.31 78.85 561.04 77.5 561.38 76.33 561.65 76.09 562.78 75.61 563.18 75.81 563.97 75.59 564.55 75.29 565.42 74.67 566.71 74.87 567.53 74.61 568.65 74.52 568.79 74.83 569.43 75.5 569.79 75.68 570.4 75.8 570.6 75.48 571.46 75.16 572.59 73.59 572.76 73.51 572.59 72.97 571.66 72.85 571.62 72.42 571.9 72.3 573.04 71.51 573.35 71.49 573.84 71.26 574.78 71.03 574.98 71.11 575.34 71.65 575.65 71.64 575.97 71.85 576.72 72.13 577.13 72.62 577.6 72.88 578.01 73.35 578.22 74.86 578.33 75.32 578.25 75.9 578.94 76.36 579.3 76.83 579.86 76.83 580.3 77.39 580.34 77.9 580.61 78.07 580.69 78.64 581.3 79.27 581.81 79.37 582.4 80.17 582.62 80.63 582.89 81.61 583.41 82.04 583.85 82.56 583.8 83.32 584.31 83.91 584.47 84.4 584.35 85.08 584.47 85.49 584.77 85.82 584.76 86.24 584.91 86.67 585.26 87.16 585.22 87.83 585.38 88.56 585.25 88.88 584.91 89.03 584.82 89.63 584.51 90.06 584.18 90.24 584.86 92.34 584.83 93.48 585.51 94.9 585.79 95.88 586.8 97.05 587.32 97.92 587.44 98.29 588.15 98.18 588.64 97.93 589.11 98.39 589.52 99.18 590.23 99.81 590.6 100.41 590.88 101.28 591.29 101.77 591.6 102.49 592.88 104.32 593.58 104.52 593.68 105.16 593.64 105.63 593.95 105.82 594.56 106.48 594.77 107.01 595.6 108.18 595.97 107.83 597.13 107.45 598.34 106.97 599.78 106.16 600.12 105.68 601.8 105.04 602.5 105.25 603.26 105.6 604.25 106.15 604.95 106.81 605.56 107.53 606.56 109.94 607.16 110.26 607.73 110.66 608.9 111.04 609.5 111.01 610.32 111.12 611.37 110.98 612.72 111.46 614.14 111.85 615.91 112.16 616.41 112.11 617.01 111.75 617.51 110.99 617.79 110.44 618.52 110.06 619.86 109.11 620.56 108.39 620.97 107.8 621.99 107.8 622.25 107.91 623.12 107.55 623.71 107.41 624.86 107.49 625.45 107.31 625.89 106.98 626.73 106.55 628.08 106.05 629.26 105.08 629.74 104.95 630.29 103.41 630.61 102.21 629.77 101.38 628.76 100.77 628.41 100.63 627.88 100.11 628.85 98.75 629.02 97.81 629.2 97.6 629.08 96.82 629.19 96.38 629.44 96.05 629.76 95.35 629.63 94.52 629.86 93.56 629.89 92.95 630.29 92.02 631.22 91.75 631.5 91.4 631.95 91.49 632.38 91.1 633.23 90.94 633.57 90.66 633.94 90.51 634.7 90.04 635.16 89.84 635.49 89.83 636.22 89.15 636.33 88.72 637.46 87.57 637.86 86.78 638.58 86.66 639.35 86.82 639.62 86.24 639.65 85.66 639.9 85.35 639.91 84.99 640.46 84.68 640.94 83.81 641.41 82.36 641.93 81.91 641.96 81.55 642.47 80.75 643.42 80.57 644.68 80.7 645.62 80.21 646.2 80.21 646.92 80.41 648.53 80.44 648.93 79.83 649.44 79.52 650.04 79.38 650.26 79.11 650.54 79.2 651.08 78.69 652.13 78.17 653.04 77.28 653.6 77.06 655.06 77.61 655.53 77.67 656.23 78.04 656.31 77.63 657.34 75.97 657.51 74.95 657.24 74.23 657.25 73.73 657.45 73.29 657.48 72.87 657.76 72.34 659.43 69.96 660.28 69.65 660.82 69.7 661.27 69.19 662.38 68.35 662.95 67.48 662.73 66.91 663.07 66.05 663.72 65.39 664.15 64.22 664.08 63.94 664.3 62.91 664.22 61.92 664.32 61.58 665.27 59.99 665.48 57.96 665.28 57.74 664.85 56.61 664.82 55.72 664.75 55.45 666.38 54.81 666.94 55.47 667.5 55.64 668.33 56.14 668.67 56.56 669.13 56.39 669.68 56.47 670.06 56.77 671.02 56.81 671.79 57.06 671.89 57.34 672.51 57.94 672.82 58.44 673.03 59.15 673.4 59.67 673.22 60.47 673.31 60.82 673.99 61.92 674.57 61.98 675.24 62.6 675.71 62.63 676.09 63.57 677.11 64.44 677.14 65.72 677.75 66.46 677.97 68.38 678.33 68.79 678.93 69.16 679.09 70.22 679.08 70.89 679.34 71.33 679.49 72.08 679.75 72.45 680.28 72.82 681.8 73.76 682.28 73.85 682.87 74.5 683.87 74.33 684.68 74.38 685.2 74.55 685.69 74.85 686.41 74.95 687.1 74.38 687.87 74.54 689.28 74.03 689.15 73.38 689.33 71.46 689.91 70.91 689.92 70.07 690.53 68.86 690.58 68.36 691.05 67.71 691.31 67.5 691.6 67.05 691.58 66.03 691.75 65.76 692.56 65.81 692.9 65.6 693.32 65.53 694.72 64.6 695.2 64.41 695.49 64.18 696.54 63.95 696.68 63.69 697.3 63.11 698.04 62.73 698.37 62.33 698.92 62.01 699.55 61.55 699.85 59.92 700.07 60 701.06 59.91 702.48 59.17 702.67 59.19 703.21 59.57 703.49 59.51 704.22 58.98 705.37 58.58 705.79 58.38 706.24 57.96 706.54 57.28 706.69 56.5 707.35 55.5 707.78 55.16 709.06 53.76 710.12 53.23 711.36 53.65 711.66 53.92 712.58 54.12 713.21 53.15 713.74 52.61 714.18 51.85 714.08 51.56 714.28 50.96 714.25 50.21 715.29 49.14 715.55 48.38 715.9 47.92 716.49 47.61 716.94 47.11 717.06 46.66 Z" id="32510000"/>
</g>
</svg>