<?xml version="1.0"?>
<svg xmlns="http://www.w3.org/2000/svg" version="1.2" baseProfile="tiny" width="800" height="707" viewBox="0 0 800 707" stroke-linecap="round" stroke-linejoin="round">
<g id="sigung">
<path d="M 725.63 96.31 726.78 97.16 729.25 97.74 731.84 99.74 733.57 99.65 736.34 99.72 738.08 100.36 739.55 100.44 742.79 101.24 744.63 102.28 745.69 102.5 748.05 104.14 753.27 107.12 755.44 107.78 756.06 108.08 761.23 109.26 762.29 109.27 765.6 108.62 766.63 108.78 768.63 108.31 769.59 111.24 768.77 113.23 765.53 118.06 764.37 119.26 763.65 123.29 763.54 124.35 763.91 126.01 763.5 126.89 764.13 128.23 764.88 129.24 765.74 136.34 768.01 137.89 769.74 138.62 771.46 139.65 772.07 140.26 772.64 141.48 773.44 142.79 772.36 143.98 772.17 144.71 771.35 145.4 768.46 146.71 766.86 148.53 764.88 149.04 764.32 151.01 764.43 151.86 763.93 152.59 763.83 153.49 763.31 154.46 763.85 155.97 764.16 157.93 763.85 161.39 764.71 162.48 765.46 164.78 767.48 171.3 770.11 172.72 772.05 173.22 772.27 174.01 772.01 175.43 773.08 177.12 772.99 177.98 771.17 183.51 771.59 186.34 772.83 188.19 775.73 189.02 778.94 192.87 781.37 195.87 781.97 198.67 783.57 201.36 785.53 202.44 787.41 203.69 786.08 204.98 787.4 209.55 787.86 210.19 787.4 213.92 788.04 215.14 788.06 218.26 788.32 221.38 788.75 223.68 789.74 225.31 790.61 226.35 792.08 229.13 791.13 231.17 789.43 232.95 789.91 234.57 789.14 236.89 787.53 237.72 788.34 238.75 788.55 240.18 788.11 240.59 787.69 242.84 787.08 244.42 786.49 247.68 787.14 249.58 789.54 252.18 791.06 254.05 793.62 255.8 793.92 256.34 795.92 258.37 797.6 259.71 799 260.51 798.09 262.16 796.13 264.63 795.14 267.15 795.89 268.16 795.91 269.39 798.4 271.74 798.79 274.54 797.77 276.43 797.61 280.17 797.23 284.33 797.23 286.16 795.98 288.29 794.28 289.54 793.51 293.96 791.93 295.28 790.76 297.8 790.83 299.38 791.63 301.13 791.63 301.93 792.07 304.95 792.4 305.95 792.79 306.34 793.04 307.59 792.75 308.88 790.97 309.19 788.3 308.96 786.19 309.61 785.76 309.32 784.61 309.9 783.09 310.11 782.79 310.51 782.63 311.68 781.27 312.95 781.41 315.01 781.82 317.24 781.47 317.96 779.86 318.31 778.78 317.9 776.84 317.91 775.4 317.44 775.43 317.99 773.85 321.03 772.33 322.28 771.32 323.8 769.67 323.46 767.25 325.36 765.19 326.37 762.45 326.51 763.3 328.1 762.73 328.87 762.03 329.32 761.35 330.52 760.89 331.84 759.76 334.08 759.6 335.67 759.16 335.87 757.3 335.52 756.52 336.72 756.12 337.9 755.26 338.44 755.75 339.63 754.61 339.89 753.65 340.89 753.39 341.88 752.76 342.33 752.7 343.34 752.14 344.12 751.25 344.79 750.35 344.99 750.04 345.59 749.74 346.87 749.83 348.43 750.22 349.53 749.58 350.09 748.52 352.14 748.29 353.37 748.36 354.77 747.89 355.78 746.76 356.02 745.28 356.99 745.28 358.33 743.82 359.81 742.1 359.61 740.48 360.05 738.29 360.81 736.88 361.62 736.34 362.08 735.4 361.98 734.72 362.34 734.12 363 731.39 365.09 727.7 366.36 727.27 366.14 724.63 366.74 723.61 366.56 722.15 367.31 720.27 367.56 719.01 367.47 717.88 368.12 716.3 368.56 715.41 368.2 715.14 368.53 714.14 368.78 714.01 369.27 714.53 370.39 714.51 371 714.88 372.54 715.46 372.72 716.17 373.43 715.97 373.81 716.06 375.25 715.67 375.55 716.01 376.71 716.01 378 715.74 378.97 716.26 380.07 715.84 380.78 716.11 381.08 716.33 384.1 715.96 386.52 716.03 386.99 715.81 388.71 715.94 389.32 714.32 390.28 715.84 391.39 716.04 391.99 716.61 392.58 717.97 393.18 718.96 394.15 718.79 394.42 718.87 396.02 718.41 396.32 718.73 397.41 718.68 398.69 718.41 399.6 718.93 400.69 718.72 401.8 718.93 404.7 718.74 405.12 717.9 409.29 717.29 409.6 716.78 410.86 716.86 411.84 716.59 413.28 716.86 414.45 716.41 415.78 716.74 416.84 718.4 418.13 717.87 419.96 717.48 420.95 717.78 421.82 718.17 422.28 718.33 423.76 719.15 426.39 719.5 429.73 718.87 431.53 719.33 432.9 720.07 433.44 720.42 436.1 720.84 436.9 721.19 438.26 721.02 438.85 721.75 439.47 722.5 440.64 722.98 441 723.98 441.07 725.38 440.83 726.43 440.84 727.36 440.42 728.06 440.48 729.59 441.03 730.77 441.17 732.96 442.54 734.7 443.72 735.12 444.57 735.93 445.14 736.01 445.82 735.76 446.88 735.52 448.74 734.93 449.8 735.17 450.56 734.6 451.92 734.34 453.7 733.55 454.38 733.39 456.42 734.04 457.58 733.94 459.5 733.57 460.32 733.9 461.64 732.34 461.83 731.19 463.14 730.83 464.69 731.65 465.58 732.21 466.88 733.35 467.84 733.82 468.55 735.06 470.99 736.51 471.87 737.16 473.41 736.68 474.14 736.94 474.83 736.51 476.26 737.31 477.55 737.77 478.95 738.63 485.05 740.85 486.05 741.42 487.69 741.59 488.69 742.37 490.27 743.7 492.16 744.54 494.63 745.05 494.94 746.2 496 746.29 496.87 747.15 498.34 747.42 500.07 748.1 500.51 746.54 501.44 745.44 502.91 744.12 503.03 743.14 503.47 740.87 504.23 739.63 505.62 738.84 506.88 737.88 508.93 737.74 510 736.66 512.97 736.93 513.5 736.68 515.2 736.92 517.34 736.22 519.79 734.64 522.28 734.33 524.08 733.61 524.93 733.52 525.42 731.93 527.38 731.24 528.82 729.3 528.31 728.05 528.43 726.6 527.7 726.05 527.99 723.62 528.13 722.64 526.79 721.42 525.97 720.28 525.61 719.3 525.12 717.78 524.61 716.92 525.27 716.48 526.07 715.62 527.07 714.48 529.16 713.34 530.62 712.32 532.66 711.18 533.97 710.69 534.19 708.73 536.35 705.41 538.96 705 538.55 703.54 538.02 702.39 536.51 700.78 535.98 700.16 535.55 698.57 535.58 697.86 535.72 695.81 535.74 695.16 535.86 693.9 535.2 691.12 532.72 689.18 530.73 686.23 529.23 684.72 528.92 683.42 527.87 682.51 527.64 681.87 527.7 678.59 529.03 676.14 529.85 675.19 530.26 672.52 530.3 671.98 529.63 671.46 528.35 668.7 527.36 667.39 526.97 663.87 526.48 658.69 528.96 657.42 530.44 656.1 530.91 654.34 533.28 652.91 534.04 649.46 534.21 647.67 534.16 645.85 534.48 642.37 535.39 642.23 536.36 641.71 535.86 640.55 533.84 639 533.63 637.6 533.65 635.8 533.22 634.71 532.09 633.68 531.3 633.44 530.87 631.45 531.2 630.72 530.84 629.72 531.67 629.84 532.66 629.66 534.46 628.72 535.92 627.58 536.3 626.58 536.86 625.89 538.54 624.57 539.53 623.62 539.8 622.61 540.59 622.33 541.33 622.47 542.04 621.57 543.88 622.13 545.29 622.46 547.11 623.1 548.45 622.87 549.24 623.59 549.92 624.48 551.23 623.79 552.86 623.17 553.07 622.91 555.12 623.01 557.9 621.53 559.34 619.98 561.14 620 563.85 620.43 566.62 621.22 567.53 621.29 568.64 620.94 569.8 621.76 571.11 621.72 571.94 623.42 573.42 624.42 574.78 625.37 577.99 625.43 580.34 625.21 581.88 625.89 582.53 625.92 583.55 626.26 584 626.19 585.22 626.74 586.36 627.63 587.1 627.72 587.78 628.69 588.35 629.78 589.95 630.03 591.15 631.27 592.69 631.02 593.09 630.14 593.19 629.09 594.54 628.94 595.43 629.19 596.66 628.81 598.26 627.86 600.36 628.69 601.95 629.18 602.46 629.45 603.46 629.49 605.02 630 606.31 630.08 606.98 630.47 607.24 630.63 608.02 630.23 608.52 630.1 609.37 630.22 611.98 630.82 612.43 631.52 613.48 631.47 614.96 631.06 615.79 631.67 617.51 631.33 618.9 631.27 619.84 631.6 620.67 631.4 621.19 631.61 622.23 631.91 622.65 631.83 623.36 632.58 624.53 632.84 625.42 633.32 625.82 632.75 626.82 631.32 627.91 630.67 627.86 630.63 628.43 629.42 629.76 627.95 629.96 626.88 630.62 624.95 629.54 624.19 629.49 623.35 630.19 622.37 631.29 621.41 631.17 619.76 632.08 618.8 632.12 617.75 633.13 616.75 633.29 616.02 633.09 615.21 632.45 614.15 632.76 613.69 631.94 612.93 631.27 611.78 631.3 610.72 631.08 609.93 631.12 609.15 630.74 608.4 630.91 607.76 630.35 605.54 633.25 606.28 634.64 606.89 635.37 606.37 635.88 607.91 637.85 609.05 640.13 609.32 641.47 611.02 644.5 611.16 645.27 611.86 646.98 612.48 648.06 612.6 648.83 613.05 649.84 613.48 652.61 613.44 656 613.01 656.7 611.36 656.9 609.89 659.2 607.93 660.45 607.33 661.23 606.17 661.87 604.49 662.38 604 661.8 603.05 662.07 601.35 661.49 601.25 661.01 599.89 659.64 599.19 659.51 598.34 660.19 597.64 660.33 595.48 660.23 594.68 660.02 593.38 659.33 592.22 659.22 591.41 658.57 590.59 657.67 589.87 657.75 588.15 656.16 586.71 655.16 584.89 653.69 583.68 652.6 582.93 652.96 580.72 653.14 579.32 654.54 578.25 655.83 577.49 657.24 577.45 658.56 574.92 660.68 574.09 660.33 573 658.71 571.61 657.73 570.72 657.27 569.85 657.47 567.73 657.25 566.66 656.66 565.51 657.01 563.8 656.91 562.43 656.48 561.97 655.92 560.48 655.31 559.48 655.48 558.47 654.83 557.93 653.08 555.22 650.86 552.46 650.05 551.5 650.07 550.17 650.95 549.4 650.79 547.91 652.43 546.98 652.73 545.06 654.22 544.21 654.49 543.7 655.31 542.56 656.08 541.61 656.46 540.73 657.42 539.69 657.64 537.65 658.33 536.49 659.13 536.08 659.78 535.48 659.9 534.8 660.95 534.78 662.13 535.49 664 535.07 665.21 533.2 665.92 532.06 666.8 531.39 668.33 529.59 669.95 528.24 674.72 528.7 677.08 528.54 677.62 528.93 678.46 529.03 679.3 527.87 681.27 527.71 682.75 528.07 685.07 528.57 686.03 528.47 686.45 529.2 687.98 529.51 689.54 530.06 689.91 530.44 690.95 530.84 691.1 531.39 692.2 531.5 693.63 533.11 695.49 533.06 696.11 531.88 696.62 529.9 697.66 528.6 699.47 526.84 700.88 525.04 701.29 523.44 702.31 523.02 703 521.28 703.7 519.23 706 517.25 704.51 515.82 704.19 515.05 703.83 513.2 702.13 512.73 702.14 510.85 703.26 509.04 704.72 508.47 704.47 507.77 703.76 506.7 702.4 505.87 702.69 503.77 701.6 502.86 702.19 501.39 702.05 499.69 702.91 497.21 703.02 495.78 702.39 495 702.44 493.83 701.78 492.93 701.55 491.83 701.01 490.13 700.75 489.11 702.49 487.13 702.36 486.66 701.61 485.38 700.9 484.27 700.48 483.9 700.76 482.99 700.56 482.05 700.94 481.72 700.38 478.76 697.96 478.07 698.1 475.96 697.87 473.71 696.65 471.84 697.12 470.69 696.69 469 696.36 467.57 696.24 467.1 695.61 464.88 693.23 462.94 691.61 461.75 690.39 459.31 688.74 456.99 688.12 454.36 688.27 453.01 688.25 450.55 687.42 447.87 687.68 444.43 687.65 443.13 687.86 441.92 687.77 440.31 687.94 439.88 687.83 437.59 688.61 435.5 689.08 435.31 688.64 433.58 686.99 433.07 686.8 431.97 685.91 431.68 685.42 430.03 684.38 429.18 682.76 428.91 681.87 426.99 680.35 425.71 678.9 425.79 678.22 425.26 676.89 424.07 676.01 423.28 674.64 423.1 674.01 422.34 673.89 421.71 672.04 420.63 671.03 418.88 670.99 418.39 670.2 417.69 669.61 417.18 668.77 417.18 667.62 416.64 666.19 415.17 664.89 415.07 663.11 414.65 662.76 414.58 661.49 414.09 660.36 413.94 659.32 414.03 658.16 413.8 657.99 413.4 655.62 413.63 655.02 413.21 653.9 410.95 653.84 410.9 652.79 410.2 650.11 409.74 647.86 409.05 647.72 409.1 646.96 408.01 645 408.01 644.2 408.55 643.32 409.03 641.88 410.45 640.01 410.84 639.02 411.85 638.18 412.09 637.27 413.21 635.92 413.91 635.49 414.11 634.62 413.67 631.97 413.84 629.34 414.78 627.38 416.1 625.14 416.23 624.52 416.19 622.35 414.63 621.73 414.03 620.14 412.94 619.44 412.41 618.84 412.54 616.43 412.39 611.64 413.03 610.72 413.57 609.53 414.38 606.69 414.5 605.05 414.29 604.12 415.66 601.53 417.29 600.9 418 600.9 419.62 600.45 423.78 597.04 425.34 595.34 425.06 591.27 425.79 587.66 426.83 587.49 427.42 585.6 429.52 584.77 430.89 582.81 431.45 582.93 433.27 584.09 435.11 584.41 436.65 584.94 438.55 586.02 439.64 586.42 440.91 586.47 441.83 586.16 445.52 583.63 446.21 582.62 446.85 582.63 447.24 582.98 449.33 583.37 449.76 583.9 452.62 585.38 454.26 585.49 454.55 584.93 455.56 584.53 456.66 584.43 458.84 582.68 461.11 580.74 461.81 580.5 462.54 580.67 463.32 580.33 464.41 580.12 464.81 579.83 464.72 579.07 465.68 577.26 464.84 576.05 464.92 575.31 465.8 574.04 467.19 573.59 468.58 572.19 469.56 570.62 470.74 568.07 470.08 567 467.88 564.76 468.44 563.68 468.46 561.97 467.43 558.93 467.19 557.19 469.65 555.04 470.18 553.63 469.46 552.56 470.1 551.38 469.84 550.6 469.81 547.99 468.7 547.73 467.76 545.64 467.2 544.84 467 543.95 466.35 543.27 465.8 542.06 465.85 540.59 465.23 539.06 465.22 538.1 463.15 534.83 463.14 534.66 464.33 532.33 465.26 531.59 465.94 530.52 466.6 530.13 466.83 529.27 467.79 527.92 468.4 525.45 469.28 525.24 469.9 525.32 470.41 524.71 470.74 523.04 471.76 522.41 472.71 521.46 473.07 519.71 474.27 519.25 475.58 518.37 477.47 517.45 478.22 517.84 479.07 517.88 480.06 517.58 480.57 517.76 481.51 518.48 482.25 518.38 484.13 517.22 484.49 517.46 485.89 517.6 487.28 517.01 488.22 515.37 489.59 515.25 490.19 514.98 490.96 515.14 492.08 514.39 492.73 513.01 494.02 512.46 494.66 511.91 496.33 511.53 496.64 511.05 496.74 509.93 497.49 509.23 498.76 509.25 499.85 507.91 500.5 507.54 500.27 506.86 499.91 504.19 499.26 503.7 498.75 502.52 498.35 500.32 495.21 500.18 493.49 499.22 492.45 498.24 491.26 497.85 489.44 495.53 488.52 494.54 487.26 492.96 487.02 491.58 486.54 490.06 486.45 489.09 485.68 487.74 484.97 486.96 484.66 485.62 483.78 482.64 483.18 481.15 483.64 480.42 483.39 479.86 483.36 478.71 482.7 477.93 482.36 477.19 481.48 476.55 480.21 475.34 479.72 474.33 480.23 473.82 480.44 471.78 480.65 471.07 480.6 470.07 478.32 469.72 476.89 469.06 475.43 467.86 474.81 467.21 473.45 466.12 472.66 466.32 471.78 465.54 471.27 464.81 469.17 463.86 467.36 464.04 467 463.18 464.86 462.42 463.87 462.96 461.27 462.67 460.58 461.97 460.39 461.06 457.82 459.12 456.58 457.71 456.29 456.84 454.01 455.61 453.52 455.04 452.27 454.5 451.19 453.77 449.79 453.43 447.84 453.68 448.19 452.32 448.18 451.65 446.77 450.3 446.72 449.89 447.4 449.32 447.61 447.98 448.14 447.4 448.4 446.43 448.24 446.14 448.52 445.15 448.35 444.3 447.91 443.96 447.66 442.63 446.84 442.09 446.24 442 446.24 440.64 443.35 440.21 443.63 439.66 444.24 437.63 442.93 436.49 442.03 436.63 441.15 437.25 440.69 438.05 439.69 437.7 437.72 438.88 437.2 438.94 436.81 439.41 435.85 439.84 435.38 439.2 434.33 439.46 433.36 439.47 432.09 439.73 431.01 439.66 429.89 439.94 429.25 440.47 428.5 440.67 428.18 440.28 426.29 440.5 425.91 439.37 425.53 438.83 424.33 439.13 422.14 439.46 421.1 440.18 419.62 440 419.09 440.11 418.43 439.65 417.77 439.61 417.34 439.15 417.38 438.34 417.76 436.5 417.65 435.95 416.71 435.91 415.78 435.22 415.04 435.09 412.82 433.18 411.95 433.94 410.85 434.59 408.68 434.46 407.43 434.68 406.08 434.28 405.17 434.46 404.14 433.21 403.8 432.04 402.73 432.06 401.84 432.31 401.63 431.84 401.06 431.67 400.22 431.9 399.47 431.1 398.57 431 398 431.18 397.58 430.8 396.43 430.62 395.26 430.95 394.24 430.89 393.82 431.2 392.95 431.14 392.66 431.62 391.31 431.79 390.45 432.36 390.71 433.2 389.21 434 387.43 434.33 386.95 435.03 386.32 434.85 385.71 434.18 385.35 434.3 385.13 435.21 384.7 435.75 382.88 435.3 382.45 435.94 381.72 436.2 380.95 435.79 380.27 435.84 379.31 436.81 378.31 436.76 377.1 437 376.28 435.31 376.54 433.99 376.32 432.74 375.22 431.97 374.45 430.49 374.1 429.24 373.74 428.68 372.89 429.04 371.69 428.67 370.37 428.77 368 429.67 367.51 429.63 366.29 428.72 366 428.15 366.28 427.47 367.02 426.62 366.47 425.9 366.48 425.15 365.81 423.84 366.46 423.02 364.87 421.23 364.46 420.31 364.16 420.21 363.62 418.76 363.04 417.87 361.8 417.5 360.97 416.63 360.08 416.17 359.76 415.77 358.66 415.89 357.68 416.54 356.91 416.52 355.51 416.76 352.99 416.34 352.22 415.81 350.54 416.36 348.39 416.42 347.42 417.16 346.92 416.88 344.85 416.74 344.64 415.8 344.24 415.43 342.89 415.08 342.59 414.52 340.25 412.89 339.08 412.85 338.02 412.19 336.97 412.52 335.97 412.57 335.28 413.12 334.92 413.03 333.11 411.69 332.69 411.88 331.08 411.34 330.36 409.89 329.54 410.72 329.15 410.73 328.76 411.44 328.02 411.9 327.67 411.77 326.45 412.83 325.1 412.8 324.55 413.59 324.05 413.89 323.15 413.06 322.04 413.13 320.95 413.5 321.29 414.09 320.76 414.54 317.98 414.74 317.48 416.06 316.81 417.37 315.81 418.53 313.8 420.42 312.44 422.14 310.09 424.66 309.11 425.48 304.42 427.35 303.78 425.79 304.09 424.25 303.51 423.85 302.32 422.46 300.41 422.13 299.41 422.14 298.7 422.37 297.9 422.99 296.49 423.44 295.68 422.89 294.83 423.6 293.04 422.97 292.43 421.82 291.68 421.56 290.52 420.39 289.92 419.99 289.7 419.08 289.14 418.89 286.51 420.03 285.84 420.6 284.81 420.57 284.05 421.01 281.27 421.01 280.88 420.23 280.65 418.45 280.8 417.52 280.28 415.88 280.13 413.75 278.94 411.65 276.34 408.79 275.63 408.19 275.17 407.51 273.81 406.48 273.31 405.53 272.86 402.61 272.39 401.69 271.86 401.22 271.11 399.83 271.12 399.21 269.96 398.52 269.73 398.14 270.21 395.88 269.86 395.23 269.08 394.38 268.67 392.46 268 391.1 267.51 389.13 267.53 388.36 266.67 386.33 266.22 386 266.38 385.35 266.22 383.56 265.72 382.17 264.92 381.22 263.54 381.53 262.7 380.84 262.91 379.7 262.78 379.33 263.46 376.25 263.7 375.57 264.46 374.75 265.1 373.45 263.76 371.26 263.75 370.51 264.48 370.07 264.79 369.33 264.02 368.77 262.9 366.63 261.73 365.56 260.73 363.83 259.46 362.75 258.22 362.6 257.16 361.96 256.49 361.02 256.25 359.09 256.45 358.55 255.94 356.52 256.14 355.57 255.81 354.72 256.43 354.14 257.98 352.3 258.67 351.89 259.33 351.93 260.59 351.07 260.39 349.57 260.51 346.71 261.01 346.57 262.57 345.3 263.94 343.93 264.36 340.82 264.87 339.61 264.8 338.22 266.22 334.87 264.92 334.58 264.63 334.29 263.26 334.28 262.31 333.45 261.52 333.02 261.06 333.07 258.69 330.81 258.17 330.13 256.59 330.01 256.08 329.19 255.59 328.97 254.26 327.44 253.31 326.88 252.86 326.03 251.61 325.5 251.19 324.81 250.64 324.39 250.15 324.72 248.44 325.19 247.55 325.85 247.57 326.29 246.98 327.27 246.63 327.46 246.05 328.37 245.67 329.39 244.73 329.7 243.81 331.8 242.6 332.27 242.05 333.46 241.11 334.08 240.83 335.21 240.94 336.29 240.53 337.24 240.41 338.19 239.87 338.69 239.41 339.75 238.76 340.44 237.16 340.43 235.49 341.06 235.07 341.93 235.93 343 235.05 344.44 234.73 344.74 234.99 346.28 234.87 346.71 235.49 348.23 235.83 349.8 236.13 350.46 235.18 351.09 235.11 351.63 233.76 352.65 232.48 353.13 232.22 353.81 230.87 354 230.25 354.24 230.02 354.88 228.78 354.91 228.28 355.58 227.5 356.24 226.57 358.35 225.18 359.09 224.84 359.92 224.67 361.35 223.33 361.29 222.36 362.48 222.48 363.91 221.98 364.76 222.24 365.43 221.69 366.31 222.02 367.02 221.8 367.91 221.1 368.9 221.43 369.85 221.34 370.85 220.7 371.19 220.47 371.87 220.2 373.67 219.68 374.36 219.11 375.98 219.87 377 219.11 378.98 218.61 379.81 218.53 380.44 218.06 381.07 217.77 382.27 217.11 383.45 216.93 384.92 217.32 386.86 216.21 387.96 215.24 388.32 214.23 388.22 213.39 388.52 212.92 389 211.3 388.8 210.03 389.1 208.94 388.94 206.7 388.34 204.43 388.42 202.26 388.71 203.04 390.18 203.59 391.79 203.76 393.57 204.38 395.11 204.11 395.52 202.89 394.14 201.07 393.65 200.08 393.8 199.29 394.55 199.29 395.47 197.3 397.06 197.04 397.13 192.18 400.17 191.38 399.66 190.5 398.45 189.95 398.14 189.52 396.36 189.12 395.87 186.39 397.38 185.2 397.34 185 395.94 185.58 392.84 183.79 394.31 182 394.21 180.52 395.65 179.76 395.92 175.79 397.98 174.55 398.99 174.94 399.64 174.07 400.7 174.04 401.86 173.55 403.16 173.46 405.33 172.22 407.98 172.2 408.41 172.9 410.3 172.99 411.16 172.57 412.01 172.57 412.78 172.09 413.24 172.21 414.65 171.42 415.41 171.81 416.68 172.02 418.12 171.59 418.9 171.31 421.04 169.03 422.07 167.18 423.13 165.85 424.03 165.44 425.24 163.88 426.86 162.85 428.22 162.43 429.1 161.95 431.1 162.12 432.19 160.41 434.18 158.86 434.94 158.69 435.6 158.2 436.04 158.15 437.53 157.96 438.62 158.22 439.7 158.61 440.04 158.69 441.22 158.55 443.84 158.91 446.07 158.61 447.45 158.75 448.61 158.4 449.55 156.25 451.69 156 454.43 155.04 455.84 155.51 457.47 155.56 458.78 156.46 459.38 156.82 460.75 156.73 461.56 157.32 463.3 157.62 463.74 157.42 466.08 157.44 467.34 157.19 469.18 156.46 470.11 156.54 471.17 155.93 473.03 156.17 474.56 156.05 476.01 156.69 476.73 157.16 476.86 157.38 477.89 157.79 478.74 158.36 479.1 158.54 480.26 159.52 480.61 161.09 483.19 161.37 483.97 161.19 484.69 161.38 485.55 163.53 486.67 164.48 487.33 165.17 488.26 165.74 488.68 166.25 490.19 166.13 492.34 166.99 493.78 166.35 494.91 166.13 495.85 166.07 497.93 165.78 498.86 165.99 500.06 165.69 502.19 165.03 504.7 164.17 506.39 164.08 507.32 164.31 508.23 165.23 510.74 164.53 511.05 163.51 512.21 162.91 513.62 162.5 515.05 162.53 518.61 162.43 521.84 162.47 523.42 161.23 524.5 159.49 525.2 156.91 525.67 154.37 525.93 152.4 525.89 149.54 524.97 147.6 524.89 145.53 525.38 144.4 526.08 142.25 526.94 139.53 528.61 138.33 530.11 137.55 531.26 136.73 530.28 135.65 528.65 135.43 527.5 135.44 526.3 134.68 525.47 133.85 523.6 132.43 521.56 133.73 519.44 135.08 518.47 135.35 516.45 135.88 515.59 136.61 513.65 135.97 512.45 136.03 511.05 136.3 510.37 137.59 508.62 137.65 507.11 137.37 506 136.96 505.72 136.02 504.06 135.09 503.47 134.28 501.54 134.39 501 133.94 499.85 133.08 498.35 132.97 496.47 132.54 495.32 131.9 490.92 132.02 490.16 131.82 489.65 130.53 488.88 129.59 488.04 129.21 487.43 129.32 486.78 129.04 485.73 129.39 484.84 129.36 483.88 129.05 483.24 128.84 481.27 128.07 479.46 128.02 479.06 126.63 478.12 125.98 476.98 125.98 476.47 125.26 475.23 124.38 474.43 124.3 473.67 123.31 472.37 123.31 471.06 122.36 470.16 121.91 469.06 121.84 468.03 121.42 466.82 121.15 465.44 120.8 464.98 120.74 463.63 120.24 462.9 120.57 461.59 120.66 460.63 120.15 460.04 118.9 459.87 118.61 460 115.95 460.01 114.08 460.29 112.52 460.38 112.44 459.85 111.62 458.8 110.73 457.31 110.55 456.5 109.95 456.03 108.41 455.61 107.75 454.75 107.2 453.61 106.83 452.34 105.21 451.74 104.6 451.36 104.19 451.47 103.03 450.43 101.87 449.6 101.61 449.19 100.76 448.88 100.18 447.24 99 447.04 98.69 446.73 98.75 445.71 98.53 444.72 98.06 444.41 96.37 444 96.23 443.31 95.65 442.67 95.09 441.47 93.74 439.37 92.32 439.52 91.82 437.87 91.1 437.78 90.71 437.34 88.92 437.94 88.06 438.41 86.98 438.45 85.85 439.55 84.58 439.9 83.35 440.57 81.92 440.33 81.31 439.83 80.92 440.15 79.67 441.93 79.22 442.02 78.81 442.74 78.58 443.98 76.78 446.12 77.05 447.04 75.13 447.31 74.63 447.87 73.23 448.22 71.55 448.99 70.25 449.39 68.8 449.64 67.4 450.34 66.66 450.22 65.41 450.55 64.62 451.17 62.31 452.24 61.52 452.13 60.67 451.05 60.84 449.56 60.28 447.63 59.19 444.97 59.82 443.8 59.78 440.43 60.59 438.99 60.36 437.44 60.52 436.11 60.45 435.33 59.92 434.66 59.83 433.82 60.67 433.08 60.57 431.97 60.16 430.78 60.54 430.19 59.86 429.31 60.51 428 59.84 426.23 59.58 424.7 58.62 422.26 59.14 421.58 58.63 421.02 58.66 420 57.45 419.39 57.26 418.54 57.78 417.65 58.18 416.31 58.23 415.17 57.28 414.11 56.24 413.26 56.13 410.71 56.33 409.91 56.14 409.3 56.46 408.62 56.42 407.82 55.74 407.21 56.03 405.96 56.58 406.08 57.71 405.4 57.68 404.45 58.11 403.73 58.86 403.57 60.36 402.52 60.53 401.54 61.23 400.5 61.29 399.27 62.22 398.26 62.32 396.21 62.56 394.23 61.82 392 60.78 389.92 58.62 390.23 57.8 390.01 57.51 389.66 56.26 390.03 54.95 389.41 53.95 389.61 53.29 388.32 51.87 388.62 49.87 386.87 48.3 386.52 47.91 385.44 47.1 385.17 45.71 385.58 44.31 383.57 43.9 383.76 43.01 382.6 42.69 381.45 42.71 380.36 40.61 379.64 39.78 378.58 38.68 378.45 38.19 377.34 38.46 376.2 38.13 376.1 36.98 374.95 36.95 373.41 34.69 372.96 34.29 372.13 34.38 370.62 34.25 369.17 33.51 368.46 33.72 366.08 33.37 365.59 33.33 364.27 32.52 362.49 32.28 361.16 31.67 360.11 29.59 361.12 28.49 361.31 27.49 360.81 25.61 360.35 25.34 359.34 25.67 358.55 25.07 357.97 24.84 357.43 24.15 357.08 23.71 355.73 23.53 354.46 22.48 354.62 21.81 354.36 21.09 354.38 20.62 354 19.98 354.24 18.62 354.46 18.23 353.93 17.6 353.61 16.76 352.77 16.23 353.26 15.57 353.4 14.75 353 13.94 353.75 12.85 352.95 11.17 352.36 9.69 352.12 9.32 352.93 8.23 353.65 7.86 354.27 6.28 353.23 5.01 352.82 3.89 353.01 3.44 353.52 2.18 353.76 1.59 353.28 1.94 352.52 1.51 351.33 1.74 350.68 1.34 348.59 1 347.86 1.06 345.19 1.34 344.56 1.22 342.87 2.25 341.67 1.96 340.42 2.04 339.64 1.62 338.74 1.6 337.06 1.8 336.32 1.76 334.85 1.55 333.6 2.12 333.07 2.98 333.46 3.8 333.35 5.39 333.96 7.12 334.04 8.6 334.43 9.75 334.22 10.44 333.89 11.22 332.47 12.57 332.52 13.55 331.77 15.99 329.29 17.76 329.72 19.06 329.67 20.59 328.5 21.71 328.25 22.56 327.35 23.54 326.91 24.33 325.8 24.64 324.86 25.16 324.23 26.31 324.24 27.42 322.32 28.6 321.48 29.21 320.53 29.17 319.36 29.97 318.36 30.63 317.25 31.57 316.46 31.97 315.55 32.67 315 33.4 315.12 35.56 315.97 36.49 316.68 37.17 316.1 37.58 315.39 39.11 314.49 40.77 312.69 41.47 311.39 41.44 310.09 41.82 309.73 42.34 308.48 42.41 307.38 43.24 305.72 43.87 304.77 44.89 304.16 47.53 302.26 48.49 302.01 48.67 300.71 50.45 299.53 50.93 298.89 50.85 298.42 52.19 297.39 53.4 297.06 55 296.26 55.09 295.54 54.74 294.52 54.06 294.3 52.96 292.98 53.43 292.12 53.37 291.29 53.61 289.94 54.21 289.13 54.82 288.74 54.9 287.8 54.7 286.81 54.83 286.15 56.95 286.24 58.75 285.76 59.42 285.02 60.14 284.75 62.61 285.04 64.73 284.37 65.23 283.85 65.89 283.84 66.55 283.42 67.56 283.11 68.09 282.4 69.69 281.24 69.52 279.89 69.64 279.21 69.45 278.07 70.04 276.85 69.28 274.31 70.21 273.41 71.23 272.87 72.76 271.53 74.2 270.4 73.98 269.34 74.16 268.84 74.86 268.46 75.47 268.97 77.68 269.36 78.04 268.96 80.34 268.78 81.22 269.39 81.93 269.58 82.52 270.12 84.31 270.27 85.21 269.58 85.89 269.88 86.59 269.38 88.25 269.29 89.18 268.98 90.6 268.73 91.2 268.24 92.49 267.59 93.2 267.57 95.08 268.03 95.75 268.31 96.1 268.06 97.86 268.61 99.44 269.82 101.68 270.86 102.6 269.95 102.8 269.52 104.34 269.29 105 268.3 106.75 269.12 107.02 268.98 107.32 267.8 107.76 267.68 108.56 266.87 108.56 266.55 109.51 266.04 110.42 266.09 111.06 266.78 112.77 267.44 114.94 267.87 116.65 267.65 117.27 267.36 118.3 266.24 120.33 266.61 121.87 266.5 122.53 265.18 122.71 264.4 123.04 261.79 123.32 260.91 124.62 259.67 124.88 259.14 125.64 258.95 126.52 258.29 126.84 257.44 127.56 256.86 127.67 256.16 126.1 253.91 126.59 252.31 126.31 250.16 126.92 249.14 127.87 248.85 129 247.5 129.93 246.8 130.64 245.3 130.55 243.47 130.35 242.87 130.55 241.66 131.15 241.36 133.06 239.72 133.5 238.88 135.05 238.77 135.37 238.26 136.69 238.49 137.28 238.01 138.35 238.56 139.35 238.33 140.1 238.76 141.01 238.44 142.6 236.14 144.02 235.64 144.47 233.9 145.21 233.3 145.45 232.65 146.22 232.03 146.72 232.16 147.34 231.5 147.86 231.83 149.26 231.66 149.59 231.93 150.69 231.97 152.1 232.43 153.55 231.99 154.52 232.12 155.2 232.64 155.91 232.39 156.65 233.03 157.25 234.04 160.11 233.85 160.52 233.34 161.22 233.05 162.74 233.1 162.99 233.43 164.14 233.64 164.65 234.06 165.59 233.54 165.76 232.88 166.78 232.58 168.21 231.82 166.66 227.36 166.16 225.68 166.18 223.1 170.14 219.41 172.58 216.47 175.42 215.46 177.88 212.99 179.54 210.84 179.49 208.39 181.57 208.23 183.28 206.14 184.07 203.8 183.38 198.62 185.46 197.31 188.74 197.08 190.35 195.66 190.05 193.2 189.99 189.88 190.29 189.16 190.35 188.22 191.36 188.35 191.97 187.37 191.98 186.54 194.22 185.57 195.45 182.74 195.06 182.06 196.02 181.17 197.22 180.48 196.66 178.11 196.85 177.6 196.1 175.66 196.24 175.43 196.08 173.84 196.58 172.73 197.12 172.27 197.85 170.87 197.59 169.48 197.96 169.03 197.47 166.73 197.78 166.05 197.59 165.52 197.01 165.04 197.07 162.84 195.58 161.52 195.72 160.91 195.29 159.33 194.72 159.07 195.29 158.1 196.39 157.02 198.82 156.03 199.75 157.18 200.83 157.75 203.87 156.76 217.17 155.65 219.55 154.68 220.94 152.06 221.7 151.64 224.49 151.35 225.33 150.35 227.65 149.32 230.39 148.25 230.64 147.77 233.03 145.13 234.24 144.17 239.22 141.99 242.22 143.69 245.69 144.79 246.45 140.97 249.2 139.78 254.69 134.23 260.39 134.62 263.17 135.1 266.24 134.68 269.83 135.24 272.42 135.97 274.82 134.69 278.5 133.24 281.17 131.52 281.14 130.79 281.76 129.8 282.06 127.5 282.57 126.36 282.38 125.14 282.87 124.11 282.68 122.01 282.93 120.46 282.72 119.19 285.14 119.06 286.07 118.39 286.89 118.07 287.31 117.26 287.9 117.08 288.8 116 289.84 112.55 289.69 110.8 292.13 107.86 293.11 106 292.62 104.63 293.4 103.71 293.97 103.71 296.41 102.9 297.27 102.88 298.48 103.15 300.19 103.82 300.68 104.22 304.78 102.1 305.86 98.84 306.3 98.07 305.74 96.84 305.94 95.22 305.48 93.92 307.37 91.49 307.53 90.65 308.51 88.32 307.81 84.69 308.18 84.11 308.29 83.25 309.15 82.09 310.03 81.46 313.05 81.98 314.34 82.35 315.35 83.6 316.62 84.84 317.71 84.64 318.69 84.76 319.47 85.6 319.95 86.77 319.95 87.29 320.63 87.74 322.48 90.46 321.9 91.96 322.01 92.85 323.97 92.82 324.27 93.78 326.92 94.7 329.02 95.23 329.8 95.79 332.09 96.35 334.26 96.29 336.09 97.21 338.16 98.81 339.96 99.53 340.34 99.57 341.14 100.17 341.69 100.26 342.98 99.81 343.47 99.79 346.3 100.52 347.77 101.03 349.38 101.8 352.92 102.16 354.56 102.12 355.8 101.67 357.38 101.5 357.69 101.98 358.46 102.25 362.47 101.59 364.85 101.49 366.91 101.82 368.55 101.95 369.67 102.22 370.42 102.68 371.53 103.78 372.11 104.64 372.04 106.17 373.5 107.37 372.94 108.71 372.14 109.3 371.64 110.5 371.72 110.96 373.29 113.57 373.07 114.5 373.36 116.33 373.06 116.8 373.57 117.99 373.43 119.48 373.07 120.13 373.11 121.15 372.88 121.47 373.26 122.45 373.85 122.65 374.02 123.94 375.56 124.72 376.05 125.2 377.31 125.9 379.13 126.39 381.67 126.56 382.39 126.7 383.58 125.98 385.07 124.43 386.07 123.68 386.57 122.27 388.58 121.92 389.2 121.06 389.12 120.2 389.55 119.72 389.82 118.51 391.43 117.86 392.39 116.74 393.9 116.4 394.27 115.8 395.46 114.54 395.74 113.65 396.73 111.57 397.52 110.9 398.4 109.78 398.85 108.91 400.16 109.09 401.31 108.54 402.04 107.47 404.29 106.06 405.98 105.99 407.58 106.15 409.58 105.58 411.2 104.69 412.67 104.4 413.83 103.88 416.22 102.99 417.88 102.92 418.65 101.89 419.53 101.02 420.59 100.53 421.4 100.44 421.7 99.85 423.68 99.25 425.01 99.96 425.96 99.55 425.92 93.21 429.4 92.16 430.28 90.57 431.57 89.88 434.3 89.96 435.72 89.58 437.55 88.48 439.1 87.34 442.23 87 445.69 85.31 447.33 84.87 449.75 82.98 450.28 77.35 450.17 76.14 450.82 74.5 451.38 73.89 453.68 73.27 454.82 72.11 457.95 70.92 458.59 70.14 459.63 69.62 460.59 69.38 461.79 68.63 462.71 68.8 463.22 68.4 463.42 66.49 464.82 65.28 465.6 62.95 466.21 62.56 467.07 62.58 468 61.72 467.65 60.32 468.96 59.21 469.66 59.21 470.52 58.8 471.56 58.67 472.48 57.95 473.62 57.59 474.36 56.84 474.8 57.06 475.87 56.61 476.21 56.92 477.8 57.23 478.34 56.76 480.03 56.07 480.22 55.12 481.7 54.44 482.25 53.94 483.38 53.37 483.9 53.29 485.04 53.54 485.66 53.48 487.08 52.66 487.67 52.75 489.06 51.77 490.31 52.36 491.55 52.01 492.85 52.25 493.73 52.71 494.82 52.95 495.95 53.52 496.69 54.42 496.49 55.77 497.65 56.3 498.86 56.55 499.7 56.39 501.07 56.49 501.73 57.03 502.12 57.02 505 57.68 508.03 56.81 509.1 55.85 510.78 55.66 512.74 54.55 513.41 53.78 513.9 52.71 515.01 51.44 516.5 50.09 518.47 49.34 519.64 48.71 517.73 47.38 513.98 46.78 512.16 46.28 510.76 45.67 509.62 44.48 507.89 41.98 507.01 39.87 507.69 38.59 508.21 37.08 508.55 36.51 511.93 33.15 514.13 31.68 516.99 29.64 515.59 26.96 515.99 26.15 516.17 24.09 516.2 21.51 515.83 19.88 515.4 18.82 515.69 17.44 516.66 15.75 517.98 13.82 519.31 11.43 520.37 11.34 521.14 10.07 521.88 9.18 522.25 9.05 523.76 7.65 525.15 5.03 525.87 4.15 527.34 4.37 529.37 4.86 530.98 4.41 532.45 4.3 534.24 4.89 535.69 6.12 536.68 6.14 537.75 5.88 538.4 5.36 539.69 5.13 541.5 3.94 542.79 3.55 543.77 2.68 545.28 2.22 546.2 2.25 547.69 1.65 548.63 1.11 550.29 1.23 551.05 1 552.22 1.4 553.34 1.99 553.91 2.73 554.82 4.88 555.03 5.64 555.44 6.08 555.61 6.9 556.45 8.27 557 10.21 557.16 11.43 558.44 10.1 559.52 9.77 560.54 10.88 561.46 12.23 562.02 12.65 562.17 13.24 563.51 13.64 565.53 14.4 566.31 14.98 566.86 16.16 568 19.4 569.21 19.94 570.13 21.74 571.3 25.52 571.27 26.58 571.61 28 571.4 28.5 572.12 30.36 572.84 31.77 573.53 32.23 573.13 34.11 573.66 34.35 573.97 35.21 574.38 35.68 574.53 37.38 575.99 39.52 576.53 37.38 577.56 35.74 578.41 34.79 579.78 34.35 581.31 34.16 583.33 32.73 584.11 32.85 585.02 31.92 587.23 32.08 588.76 31.24 589.26 30.39 590.21 29.88 591.16 29.71 591.83 29.3 592.82 29.05 593.21 31.41 593.12 33.79 593.77 34.43 593.27 35.71 594.36 36.39 594.67 37.62 595.61 39.01 599.11 40.4 601.35 40.23 603.39 42.18 607.84 45.34 608.41 46.69 609.53 48.28 610.2 47.56 611.88 46.27 612.41 47.6 614.45 48.65 614.9 48.98 616.11 48.7 617.3 49.61 618.32 49.47 618.01 51.05 618.79 53.03 620.82 54.67 623.06 55.72 625 56.47 625.31 57.71 625.25 60.1 625.8 62.93 625.78 64.75 626.21 66.12 628.71 66.05 630.26 65.07 632.7 63 633.93 60.66 636.51 59.01 638.39 57.02 639.16 55.36 641.31 54.42 642.83 53.36 645.21 52.46 647.2 53.66 648.96 54.97 654.03 55.43 655.45 55.83 656.96 56.89 658.73 57.1 660.1 59.72 660.2 60.43 661.1 62.43 661.71 63.19 663.2 63.02 664.95 62.94 665.63 63.72 666.45 64.35 668.46 66.67 669.28 68.7 669.12 70.03 669.18 72.11 670.44 72.99 672.19 73.73 674.79 74.71 675.72 76.13 677.2 77.68 677.84 78.72 679 82.05 680.4 82.99 682.08 86.23 685.08 88.23 687.02 91.93 687.11 92.5 688.34 94.26 691.59 95.52 694.11 97.15 699.14 100.63 708.23 97.8 710.45 98.82 714.28 98.87 715.77 100.71 717.71 98.92 724.79 96.98 725.63 96.31 Z" id="32520000"/>
</g>
</svg>