<?xml version="1.0"?>
<svg xmlns="http://www.w3.org/2000/svg" version="1.2" baseProfile="tiny" width="800" height="465" viewBox="0 0 800 465" stroke-linecap="round" stroke-linejoin="round">
<g id="sigung">
<path d="M 463.99 170.18 463.75 169.46 462.97 169.76 460.67 168.34 458.63 166.87 457.38 166.83 456.28 167.1 456.17 167.73 455.62 168.67 455.14 169.87 454.1 172.29 453.93 176.07 453.54 177.8 453.2 179.84 453.13 181.15 453.21 182.96 453.31 184.28 453.53 185.59 454.29 188.9 455.05 189.03 456.06 189.99 456.06 190.65 456.51 190.93 457.51 193.04 458.01 193.77 459.07 194.56 459.48 194.99 460.18 195.32 460.87 195.52 461.4 195.83 462.39 196.6 463.13 196.93 463.72 197.34 464.81 198.25 465.18 198.78 465.31 199.38 465.05 201.02 465.18 202.3 464.89 203.31 464.74 204.88 464.82 206.48 465.29 207.79 464.94 208.58 464.45 209.42 464.26 210.35 464.31 211.1 464.67 212.07 464.68 212.86 464.94 213.47 464.69 214.09 464.92 214.88 464.93 215.65 465.16 216.04 465.13 216.68 465.58 218.02 465.4 218.74 465.61 219.21 465.62 219.93 465.84 220.51 466.83 221.47 466.99 223.42 466.46 224.52 466.45 225.36 466.25 226.97 466.8 227.36 467.77 229.52 468.13 229.72 469.42 228.79 471.13 227.95 472.8 228.1 473.47 227.81 475.02 228.21 475.6 228.67 476.31 229.04 476.88 229.55 477.11 229.52 477.7 230.46 478.41 231.17 479.51 231.5 479.78 231.93 480.43 232.43 480.95 232.49 481.74 233 482.4 233.17 482.96 233.59 484.11 234.08 485.52 234.85 485.94 234.89 486.55 235.34 487.12 236.12 488.61 237.99 489.04 238.32 489.19 237.84 489.93 236.59 490.6 236.57 491.41 236.07 491.57 234.95 492.08 234.46 492.12 233.59 492.46 233.1 492.47 232.28 493.01 231.45 494.82 232.26 495.68 231.9 497.03 231.48 498.08 230.92 498.93 230.96 499.12 231.2 499.78 231.42 500.87 231.48 502.09 231.28 503.47 231.49 503.87 232.18 504.64 232.89 506.55 231.78 507.71 230.77 508.15 231.18 509.05 232.27 509.21 233.39 509.02 234.02 509.07 234.48 510.22 235.41 510.87 235.81 511.04 237.19 510.64 238.15 510.63 239.24 510.01 240.14 509.77 240.66 508.5 241.38 508.31 242.13 507.8 242.74 507.43 243.64 507.4 244.52 506.98 245.69 506.33 246.05 506.27 246.41 507.69 246.65 508.91 247.1 509.36 248.29 510.98 248.52 511.01 249.72 511.23 251.38 511.57 252.54 512.42 252.95 512.8 252.98 513.17 253.36 513.2 253.67 514.07 253.86 515.16 254.58 515.45 255.29 515.92 255.65 516.4 255.39 517.27 257.02 517.95 258.5 517.89 258.84 518.89 258.18 519.63 256.98 520.39 256.69 521.63 257.14 522.22 257.71 522.73 259.62 522.61 260.63 523.41 261.56 523.85 262.22 524.15 263.27 524.55 263.87 524.42 265 524.48 265.73 524.3 267.51 524.43 268.59 524.84 268.89 525.19 269.4 525.91 269.95 526.58 270.02 527.45 270.71 528.07 272.34 529 272.92 529.4 273.57 530.14 274.12 531.01 275.12 532.05 275.19 533.04 275.43 533.78 275.32 534.66 275.46 535.39 275.75 536.14 275.23 537.33 274.86 538.65 274.12 539.36 273.95 540.29 273.56 541.15 273 543.99 270.63 545.8 270.05 547.69 269.69 548.16 269.71 548.93 269.41 549.76 269.49 550.82 269.91 551.56 270.13 553.63 269.88 554.93 269.19 556.23 270.71 556.73 270.81 558.22 270.05 559.39 269.89 559.47 269.52 560.15 268.65 561.17 268.83 562.23 269.76 562.83 269.77 562.92 269.4 564.23 268.92 565.18 268.75 567.36 269.62 568.71 269.61 569.69 270.16 570.12 271.02 570.9 271.31 572.2 270.64 573.42 270.41 574.47 270.91 576.08 271.29 576.33 271.91 577.03 271.85 577.98 271.17 579.04 270.88 581.01 271.33 581.33 271.62 582.65 271.53 584.44 269.86 585.17 269.51 585.7 267.61 587.02 266.7 587.24 265.26 587.26 264.73 589.44 263.81 590.27 263.82 591.63 263.98 592.7 263.68 594.6 263.89 596.69 263.53 597.61 263.57 597.84 263.32 598.44 262.04 599.42 261.52 600.34 261.5 600.88 260.66 601.9 259.44 602.83 258.26 603.78 257.52 604.96 257.2 605.83 257.32 606.41 257.51 608.65 256.39 610.37 255.65 611.44 254.88 612.16 254.09 612.85 253.84 613.31 253.87 615.08 254.93 616.58 255.2 617.65 254.7 618.65 254.86 619.4 254.69 620.71 253.44 620.8 251.42 621.79 250.06 622.8 249.72 623.85 247.73 625.25 246.07 625.83 245.6 627.01 244.19 628.45 243 629.28 242.61 629.61 242.21 630.97 241.96 632.63 240.37 633.42 238.74 633.77 238.15 634.89 237.74 635.73 236.75 637.56 236.86 638.55 237.34 641.23 237.11 645.48 240.43 646.16 241.55 650.47 243.39 651.68 243.82 652.08 244.58 652.68 244.83 653.25 245.67 654.34 246.46 654.68 247 655.22 247.24 655.75 247.13 657.14 247.59 657.46 247.9 658.64 248.38 659.64 248.03 661.1 247.87 661.46 248.68 662.57 249.07 663.36 249.12 665.71 250.12 666.01 250.07 666.64 250.72 667.31 250.51 669.48 250.06 669.85 250.13 670.27 250.81 670.32 251.17 671.41 253.12 672.15 253.46 674.25 253.65 675.68 253.38 677.48 253.62 677.96 254.16 678.87 254.5 679.47 254.35 680.66 254.88 681.16 254.71 682.08 254.91 682.65 255.21 683.78 255.54 683.7 256.33 684.47 256.68 685.26 257.21 686.72 257.72 687.39 257.83 688.03 258.92 688.51 259.59 689.16 260.14 691.25 261.11 691.33 261.43 692.47 261.78 692.61 262.32 693.25 262.77 694.26 261.71 695.09 262 696.08 262 696.47 263.68 698.24 266.82 698.85 267.37 701.93 268.48 701.93 268.89 702.8 270.45 703.42 271.13 703.37 271.33 703.74 272.26 704.62 274.01 705.04 275.4 705.63 276.38 706.49 278.21 707.27 279.61 708.4 280.23 709.7 280.19 711.49 280.39 712.32 281.07 713.31 281.28 714.18 281.06 714.96 281.04 716.49 280.15 716.92 279.62 717.93 279.7 719.31 279.64 720.27 279.89 720.85 280.43 721.62 281.51 722.38 283.19 722.45 283.54 723.96 284.85 724.24 286.08 725.07 286.12 726.22 287.43 726.88 288.6 727.01 289.94 728.41 289.6 728.44 290.39 729.71 290.3 730.83 290.82 731.55 290.74 732.36 291.08 732.82 290.39 734.39 290.18 735.77 290.6 737.18 290.48 737.64 289.96 739.41 289.41 740.86 289.48 742.11 289.24 743.42 289.17 743.96 289 744.36 289.05 745.67 288.69 746.18 288.31 747.1 288.64 747.96 288.2 748.97 288.45 749.88 288.3 750.04 288.01 751.43 287.32 751.76 286.94 752.97 287.26 753.59 287.1 754.97 288.31 756.63 288.58 758.54 289.55 762.81 289 765.11 288.76 766.7 287.71 767.86 287.78 768.68 288.05 770.07 287.32 771.18 287.4 771.97 287.84 772.83 288.61 772.91 289.94 772.68 290.37 773.08 291.73 774.56 292.79 775.01 293.93 775.42 294.67 775.99 294.77 777.22 295.39 777.67 296.01 778.33 297.45 778.91 299.58 778.67 299.75 778.56 302.03 779.09 303.03 779.02 303.89 779.07 304.58 779.65 305.82 779.82 307.92 781.68 308.79 782.27 308.81 783.63 309.08 784.19 309.37 784.95 310.16 784.91 311.48 785.76 312.2 786.23 313.17 787.22 313.96 785.32 314.05 784.1 313.91 782.82 314.61 781.63 314.64 780.79 315.14 779.72 316.3 779.35 317.06 778.4 317.54 777.55 317.81 776.15 319.8 775.16 321.63 775.13 322.2 774.89 323.16 774.99 323.49 774.86 324.96 774.44 325.73 774.44 326.29 774.16 326.87 774.03 327.51 774.26 328.39 774.13 329.77 774.6 331.58 774.98 332.52 775.29 332.97 775.29 333.65 775.45 334.08 775.44 334.84 775.28 335.02 776.09 336.17 776.29 336.78 775.95 338.92 776.06 340.22 776.61 341.8 776.19 342.46 775.72 342.61 774.93 343.4 774.29 344.36 773.8 345.53 773.2 345.93 771.98 346.11 770.75 347.48 770.8 348.01 770.66 348.41 769.49 348.51 768.39 349.13 767.25 349.42 767.13 350.77 766.86 351.23 766.16 352.09 765.29 352.12 765.3 352.87 764.58 353.81 764.2 353.96 763.92 354.55 762.24 355.51 761.57 355.6 761.06 355.27 760.19 355.15 759.27 355.42 758.31 355.85 758.09 356.37 758.15 356.94 757.37 357.31 757.22 357.75 757.41 359.65 757.39 360.61 756.18 361.66 755.17 361.81 755.35 362.51 755.65 363.07 756.2 363.78 756.82 363.94 757.96 363.08 758.47 362.85 759.6 362.99 760.83 362.92 762.16 362.32 762.85 362.36 763.48 362.62 764.35 363.37 765.1 364.3 766.12 366.47 766.78 367 768.83 367.08 769.86 367.37 771.48 368.74 772.48 368.89 773.98 369 774.69 369.36 775.36 370.24 775.15 371.66 775 372 774.95 372.83 774.62 373.58 774.5 374.11 774.62 375.76 774.78 376.35 775.44 377.76 775.93 377.96 776.11 379.02 776.06 380.19 776.42 380.54 776.62 381.43 776.75 382.57 776.38 383.3 775.42 384.26 774.79 385.04 774.31 385.2 773.92 385.53 773.87 386.71 773.56 388.74 773.68 389.76 773.3 390.8 773.46 391.74 773.41 392.12 772.6 392.57 772 393.48 771.5 393.95 771.01 394.62 770.65 395.37 770.1 395.99 769.46 396.48 769.13 396.59 767.9 397.32 766.74 397.66 765.53 398.53 764.25 399.18 763.2 399.04 763.22 399.49 763.76 400.4 763.56 400.9 763.68 402.24 763.55 402.89 764.27 404.16 764.35 405.58 764.75 406.11 765.2 407.11 766.47 408.12 766.92 408.63 768.13 409.37 769.3 410.79 771.11 412.16 771.89 412.45 772.56 412.93 774.16 414.55 774.55 414.44 774.27 416.15 774.66 416.86 775.05 417.1 775.23 417.9 775.54 418.69 776.03 419.12 777.31 419.65 777.73 419.5 778.6 419.5 780.51 419.15 781.31 418.41 782.98 417.33 784.1 417.11 784.65 416.44 784.91 416.31 784.94 415.72 786.26 414.55 786.79 413.87 787.44 413.51 787.45 413.3 788.1 413.21 789.98 413.09 791.24 413.48 791.98 413.55 793.62 414.02 794.71 413.65 795.73 412.86 798.85 411.02 799 413.72 797.49 414.66 796.67 414.7 795.51 415.37 795 416.03 794.23 416.48 793.78 417.79 793.6 418.88 793.12 419.31 792.22 419.81 790.8 421.2 790.25 421.83 789.17 422.65 788.18 423.07 787.45 423.8 787 424.5 786.72 425.79 786.52 426.02 786.18 426.99 785.8 427.66 786.13 428.6 786.14 429.09 785.95 429.82 786.05 430.3 786.16 431.77 786.09 433.21 786.81 434.2 786.54 435.25 786.58 436.41 786.75 437.45 786.82 438.32 787.1 438.87 786.88 439.5 785.68 440.69 784.66 440.07 784.06 439.81 783.69 439.26 783.24 439 782.5 438.05 782.07 437.1 780.91 436.86 779.64 435.64 778.48 434.81 778.41 434.36 776.56 433.66 776.1 433.82 774.41 433.84 774.04 433.24 773.53 432.7 772.68 432.58 771.84 432.15 771.24 432.04 770.91 431.82 770.21 431.97 769.33 431.21 767.78 430.25 767.18 431.99 767.65 433.21 767.1 433.94 766.97 434.71 766.47 435.48 766.63 436.98 766.35 437.7 766.27 439.14 765.81 439.72 765.14 440.81 763.84 441.09 762.94 441.36 762 441.86 760.92 441.3 759.85 440.66 759.22 439.93 758.45 439.67 757.94 439.34 756.89 439.17 756.65 438.3 755.44 437.05 754.53 436.84 754.13 436.97 753.55 436.63 753.15 436.17 752.06 435.92 751.72 435.95 750.03 435.55 749.12 435.19 748.5 435.07 747.68 435.65 747.07 435.65 746.55 436.02 745.77 435.51 744.94 435.34 744.89 435.18 743.05 434.68 742.35 434.69 742.09 434.36 741.62 434.32 740.67 434.56 739.99 433.92 738.46 433.66 737.89 433.46 737.1 432.93 736.48 432.9 735.7 432.08 735.64 431.29 734.12 429.78 733.49 429.23 733.24 427.85 733.55 426.94 733.52 426.09 733.34 426.01 730.45 423.81 730.13 423.45 730.13 422.16 729.73 421.15 729.41 420.6 728.48 419.73 727.86 418.84 727.48 418.47 725.96 416.47 725.33 415.41 724.5 415.1 722.34 413.77 721.05 413.68 720.79 412.82 720.68 411.97 720.26 410.29 720.49 405.42 721.28 404.2 719.06 400.98 718.53 400.08 717.56 399.55 716.86 399.78 715.86 399.85 715.52 399.68 714.98 399.85 713.57 400.92 712.85 400.91 712.25 401.3 710.42 401.75 710.07 401.5 708.71 402.03 706.91 401.15 705.26 400.86 704.62 400.91 703.68 400.35 701.89 400.08 701.65 400.13 700.76 400.82 699.88 401.26 699.25 401.99 698.38 402.62 697.44 403.82 697.31 403.51 696.38 402.86 695.54 402.46 695.09 402.07 694.65 402.17 693.25 401.2 691.64 401.51 690.56 400.82 690.23 400.79 689.42 400 689.9 398.69 689.51 397.15 690.04 396.17 690.83 393.32 690.38 391.79 688.69 390.17 686.65 389.94 684.37 389.97 681.91 389.84 681.22 389.57 680.73 389.85 680.12 389.5 676.52 389.38 675.2 389.3 674.57 388.5 674.15 388.16 673.82 387.25 673.41 386.91 672.56 385.52 672.04 384.93 670.97 384.54 670.62 383.93 669.63 383.86 669.22 384.48 668.11 384.99 667.65 385.78 667.09 386.34 665.89 387.1 666.16 388.31 665.28 388.97 664.18 389.56 663.92 389.55 663.13 389.95 663.68 390.84 664.49 391.84 665.01 392.1 665.33 392.68 666.15 393.76 667.43 395.09 667.29 395.77 667.42 398.06 667.39 399 667.65 400.01 667.46 400.59 666.69 400.58 665.13 400.85 664.76 401.54 664 402.48 661.86 403.54 661.16 403.77 660.83 404.66 660.31 405.07 659.94 405.17 659.87 406.28 659.35 407.44 658.51 408.32 658.43 409.16 658.79 410.37 658.73 411.18 658.41 412.15 658.59 413.62 658.43 414.37 657.87 415.09 657.31 415.64 657.28 416.39 656.98 416.96 656.64 417.26 655.75 418.78 654.93 419.7 654.24 419.17 652.46 417.35 650.31 415.82 649.64 415.04 648.99 413.7 648.2 412.99 648.26 412.19 647.62 411.85 647.29 411.86 647.17 412.9 646.7 413.57 646.53 414.57 646.8 415.31 646.55 415.68 646.06 416 645.48 416.58 645.54 417 645.95 417.28 646.06 418.1 645.51 418.75 645.43 419.53 644.99 420.26 645.05 420.81 644.81 421.5 644.39 421.88 644.5 422.3 645.04 422.86 644.93 424.58 644.37 425.18 643.6 426.63 643.02 426.94 642.81 428.06 642.81 429.33 643.27 430.91 643.53 431.22 643.55 432.05 644.68 432.93 645.17 433.16 645.02 433.67 645.28 435.07 645.58 435.49 645.78 436.4 646.87 437.26 647.24 437.69 647.48 438.81 647.88 439.56 649.72 440.23 650.17 440.93 650.66 442.08 651.32 442.22 651.26 442.61 652.07 443.35 652.33 444.07 652.45 444.85 652.38 445.51 652.9 446.61 652.61 448.57 653.34 451.46 652.97 452.71 653.01 453.57 651.77 453.75 650.66 454.28 648.68 455.77 648.04 456.39 647.71 457 647.25 457.46 646.68 457.82 645.56 458.89 645.22 459.85 645.21 461.9 645.11 462.81 644.88 463.53 644.88 464 643.91 463.56 642.11 463.72 641.53 463.47 640.86 462.76 640.21 462.81 639.69 461.96 639.38 461.9 638.26 460.75 637.61 459.83 636.97 459.29 636.62 458.72 636.3 458.54 636.06 457.75 635.59 457.24 634.89 456.89 634.19 456.68 634.29 455.97 633.56 455.44 632.6 454.47 631.62 453.29 631.22 452.96 630.58 452.77 629.97 451.82 629.23 451.76 627.8 450.54 626.85 449.61 625.64 449.04 624.81 448.97 624.15 448.71 623.05 448.9 622.22 448.34 621.87 448.37 621.17 448.01 620.14 448.21 619.58 448.04 618.54 448.18 617.7 447.1 616.95 446.58 616.19 446.61 614.04 446.41 613.35 446.46 612.14 445.75 611.23 445.35 609.78 444.98 608.4 445.59 607.78 445.49 606.48 446.01 606.18 446.23 605.4 446.39 604.42 446.37 603.95 446.44 603.58 447 602.74 447.39 602.26 448.29 601.08 449.63 600.4 450.58 599.45 450.45 597.64 449.72 596.39 449.7 595.91 449.33 595.45 448.74 593.73 448.92 591.77 448.91 590.13 447.03 588.43 444.95 588.16 444.76 588.01 443.47 586.57 442.38 585.88 441.48 585.78 440.89 584.49 439.64 583.42 438.39 582.77 437.26 581.51 435.74 580.97 434.74 580.28 434.02 579.03 434.57 578.34 434.66 577.92 435.14 576.66 435.19 575.33 436.07 575.03 436.11 574.42 434.79 574.15 434.01 573.04 433.4 571.9 433.21 571.76 432.8 571.11 431.67 571.01 430.8 570.48 430.54 570.09 430.13 569.55 430 568.77 429.33 568.11 428.05 567.55 427.94 566.88 427.1 565.88 427.27 565.48 426.88 564.38 426.98 563.19 427.48 561.58 426.46 560.55 426.53 558.59 425.49 558.18 425.57 557.37 425.2 555.57 424.76 554.62 424.72 553.69 424.81 553.23 424.63 550.77 425.53 549.51 424.93 549.23 424.96 548.76 424.55 548.01 422.21 547.32 420.51 546.15 419.68 544.62 419.25 544.39 419.01 543.57 419.19 543.43 419.37 542.51 418.92 541.94 418.91 539.54 416.67 538.29 416.19 537.25 414.96 536 415.03 535.44 414.18 533.99 412.96 532.66 412.9 531.79 412.65 530.46 413.14 530.2 412.52 529.08 411.79 528.74 411.2 527.66 411.58 525.77 413.17 524.91 411.19 523.65 410.24 522.53 409.81 521.23 409.03 519.59 407.78 519.57 406.09 518.64 404.94 518.97 403.8 518.91 402.28 519.02 401.19 519.52 400.15 519.1 399.6 518.12 398.66 517.03 397.86 515.78 396.39 515.15 394.71 513.82 392.75 511.89 394.72 509.65 395.2 508.94 395.62 508.84 396.75 508.04 397.59 506.59 399.33 506.41 399.7 505.42 400.5 504.04 400.92 503.45 401.23 502.76 402.3 502.1 402.02 501.39 402.21 500.73 403.08 500.01 404.5 499.66 404.83 499.51 405.21 498.59 406.14 497.68 406.24 497.41 405.97 497.12 405.2 496.49 404.69 496.42 404.39 496.67 403.19 496.03 402.97 494.67 403.88 494.62 404.19 493.83 404.3 493.24 404.16 492.61 403.65 492.27 402.82 492.44 401.66 492.9 400.37 493.52 399.52 493.22 398.59 493.04 398.5 491.83 398.7 491.21 398.38 490.61 398.64 491.12 399.09 491.09 399.51 490.76 399.7 489.82 399.25 489.34 399.41 488.46 399.34 487.72 400.02 486.64 400.46 485.61 401.31 485.68 402.73 485.24 403.81 484.79 404.37 484.49 404.27 483.95 404.64 483.55 404.68 482.54 404.44 481.86 403.49 480.75 402.82 480.39 402.49 478.81 402.52 478.28 402.39 476.18 401.67 474.95 401.62 473.9 400.7 473.48 400.51 472.18 400.84 471.48 400.63 470.65 400.87 467.47 401.15 466.23 401.07 466 400.08 465.46 399.63 465.15 399.05 464.46 398.62 464.03 398 462.18 397.23 462.51 395.38 462.67 395.07 462.25 394.73 461.52 394.76 460.95 394.49 460.65 394.07 460.18 393.7 459.17 392.64 458.32 392.65 457.88 392.35 456.9 392.08 456.62 392.16 455.09 390.96 453.49 390.26 452.36 391.2 450.49 392.24 448.58 394.06 445.79 394.89 443.87 394.74 442.44 395 441.74 395.45 441.33 395 439.96 394.63 439.1 394.15 437.33 393.66 436.49 393.81 435.75 393.29 434.27 392.58 433.58 392.08 433.07 392.2 432.48 391.93 431.58 391.68 430.18 391.39 429.8 390.94 428.89 390.79 427.61 388.67 427.19 387.25 427.4 386.25 426.9 385.02 426.68 383.69 426.11 382.26 426.06 380.98 423.09 378.68 422.23 378.37 421.46 377.73 419.64 376.87 418.99 377.05 417.5 376.91 416.91 376.99 415.55 376.04 414.82 375.83 413.8 375.03 412.72 376.1 411.34 376.07 410.46 376.57 409.41 375.77 407.55 374.93 406.55 377.29 406.21 374.37 405.92 372.66 405.24 370.18 404.15 367.36 403.65 366.33 403.12 365.59 402.89 364.73 402.65 362.83 402.63 361.79 401.91 361.74 400.15 360.81 399.65 360.64 398.56 360.02 397.95 358.98 397.06 357.97 396.62 357.7 395.74 356.89 395.06 355.96 394.84 354.86 393.59 353.42 392.21 352.17 390.15 349.9 389.31 348.6 388.36 347.4 387.43 347.62 387.07 347.97 385.43 348.81 384.49 348.91 384.02 349.45 382.9 349.92 382.34 350.62 382.2 351.11 381.5 352.54 381.42 353.41 379.87 354.25 378.87 354.62 378.31 356.12 377.64 357.48 376.63 357.94 376.16 359.09 375.61 359.45 375.47 359.91 374.56 360.99 374.36 361.49 373.96 361.96 373.89 362.51 374.1 363.79 373.76 364.1 373.12 365.05 372.34 365.41 371.56 365.52 370.12 366.99 368.76 367.07 365.58 367.05 364.69 367.46 360.59 367.08 358.26 367.53 357.55 367.55 356.72 367.25 355.73 367.13 355.48 366.91 354.84 366.85 354.24 367.23 353.7 366.86 350.58 367.15 349.39 366.75 348.73 366.27 348.11 365.44 347.85 365.25 347.24 365.44 346.43 365.33 344.95 365.42 343.75 364.99 343.57 364.74 342.88 364.86 342.79 365.14 341.68 366.28 341.14 366.95 341 367.47 340.7 367.63 340.19 368.37 339.35 368.88 339.15 369.78 338.42 370.34 338.05 370.81 337.52 372.27 336.88 370.88 336.09 370.13 335.65 368.93 335.14 368.54 334.17 368.44 333.44 367.94 332.56 367.82 331.55 367.23 331.18 366.82 330.62 366.5 329.2 365.51 328.8 365.46 327.91 366.01 328.08 366.6 328.35 368.43 326.99 369.46 325.51 370.26 323.49 371.91 323.02 373.7 323.09 375.72 321.43 376.22 320.99 376.13 319.15 376.85 318.44 377.17 317.75 377.29 316.8 376.58 316.12 376.35 316.04 375.28 315.63 374.53 315.69 373.61 315.51 372.89 315.61 371.86 315.47 371.32 315.14 370.76 315.11 370.34 315.33 369.68 315.33 369.07 315.52 368.78 315.1 367.83 316.02 366.21 316.45 365.23 313.93 363.47 313.62 361.95 313.12 360.8 312.75 360.28 312.58 359.15 312.84 358.18 312.24 357.55 311.28 355.96 308.96 354.76 308.19 355.48 307.86 355.31 305.95 354.56 305.25 353.65 304.79 353.38 303.89 353.21 303.12 352.36 302.73 351.76 302.36 351.47 301.46 349.67 300.1 348.02 298.57 347.29 297.61 347.27 296.9 346.93 295.78 346.65 295.52 346.75 294.15 346.25 292.33 346 291.67 345.98 291.48 345.75 290.61 345.62 289.48 345.73 288.9 345.45 289.7 344.48 289.89 343.61 290.74 342.93 290.91 341.64 292.11 340.76 293.55 339.53 293.62 338.59 294.51 337.69 294.03 336.94 294.55 335.26 294.14 334.25 294.47 333.12 296 332.33 296.27 331.73 295.62 330.21 295 329.36 294.88 328.45 294.6 327.22 293.91 325.58 293.86 325.02 293.57 324.47 293.38 322.81 292.85 322.29 292.19 322.27 291.85 321.76 291 321.78 289.41 320.93 288.91 320.78 288.6 319.83 288.16 319.71 287.85 319.04 287.87 318.36 286.69 317.23 286.04 317.34 285.69 316.92 285.71 315.94 285.02 314.89 285.26 313.14 284.34 312.74 283.54 312.77 282.73 312.91 281.27 313.43 280.75 312.56 279.97 312.27 279.08 311.31 278.63 311.16 278.58 310.67 277.89 310.21 276.85 309.16 276.25 309.29 276.12 309.91 275.85 310.42 275.86 311.05 274.78 311.89 274.43 312.78 274.29 312 274.04 311.95 273.84 312.48 273.11 313.08 272.73 313.18 272.32 313.05 271.28 313.69 271.45 314.41 271.27 314.82 270.79 315.36 270.73 315.65 270.97 316.14 270.7 317.17 269.42 317.2 269.15 316.33 268.52 315.22 267.61 315.25 266.84 315.03 264.66 314.25 262.04 313.08 261.52 313.7 261.15 313.94 260.65 313.95 259.57 312.7 258.71 310.79 258.09 310.03 257.61 309.93 257.17 310.05 257.23 311.77 257.02 311.84 256.2 313.78 255.41 314.63 255.11 315.24 255.03 316.18 253.12 318.74 252.65 319.27 252.4 318.69 251.77 318.01 251.19 316.75 248.94 315.53 248.23 314.81 246.89 312.62 246.02 312.08 245.24 311.43 244.41 310.51 243.71 310.32 243.43 310.99 243.08 311.12 242.53 311.03 241.69 311.07 241.39 311.23 241.18 311.67 240.59 311.69 240.01 310.87 239.49 311.2 239 311.93 238.26 312.24 238.02 311.94 237.51 312.06 236.45 311.98 236.11 312.36 235.62 312.45 235.11 312.2 234.53 311.44 234.46 310.77 233.51 309.82 232.51 309.96 232 310.26 231.52 309.78 230.67 310.1 230.16 310.16 229.25 310.55 228.59 310.93 227.86 311.84 227.59 312.51 228.01 313.57 227.43 314.92 227.15 315.29 227 316.14 226.67 316.85 226.26 316.76 225.42 317.99 223.94 319.53 223.44 318.65 222.48 317.49 221.64 316.81 221.1 316.27 220.73 316.37 220.52 316.82 220.34 318.66 219.93 319.71 219.46 320.08 219.33 321.12 218.11 322.41 217.83 322.56 216.89 322 216.45 321.9 215.41 321.03 215.12 321.46 214.41 322.13 213.24 323.48 213.08 323.26 211.98 322.78 210.2 323.15 209.36 323.59 208.99 324.23 207.12 325.29 205.69 326.38 204.69 325.42 203.12 326.51 202.85 327.7 203.12 328.7 202.97 329.13 202.39 329.58 202.08 330.04 201.25 331.64 200.06 332.99 199.63 333.21 199.85 334.79 200.13 335.68 199.23 336.15 197.35 336.97 194.85 337.71 194.6 338.55 192.26 339.91 191.84 340.03 190.34 340.11 190.06 339.9 189.63 337.68 187.82 335.67 186.57 333.68 184.53 333.03 183.82 332.57 182.81 331.34 182.19 331.08 181.58 331.01 180.46 330.58 179.51 329.89 178.91 329.99 178.61 329.03 175.81 329.17 173.93 329.95 171.58 327.89 171.34 326.63 170.7 325.45 169.24 325.05 168.22 324.46 167.27 323.65 166.23 322.04 166.36 320.39 166.21 319.31 165.83 318.63 165.83 318.09 165.16 316.96 164.5 315.54 163.2 314.73 161.66 313.87 161.16 313.36 160.79 313.26 160.13 313.38 160.03 312.19 159.82 311.11 159.38 310.32 159.01 309.85 158.32 307.98 160.17 306.9 162.44 306.45 164.17 306.23 164.25 306.02 163.88 304.12 163.79 302.4 164.43 300.56 164.69 300.33 166.85 298.07 167.37 296.91 167.28 296.47 168.58 295.75 169.49 294.69 169.99 293.17 169.84 292.68 171.93 293.33 173.91 292.04 174.58 291.73 175.3 292.65 175.65 292.92 175.91 293.7 177.79 293.79 178.56 293.75 179.9 294.17 181.24 294.24 183.09 295.63 184.69 295.44 184.95 295.11 185.53 295.22 187.27 294.43 188.17 294.31 189.19 293.82 190 293.94 191.36 293.65 190.79 292.11 190.37 289.47 190.52 288.12 189.9 286.85 189.26 285.28 189.06 283.1 188.94 282.31 188.89 280.7 188.75 279.33 190.74 278.85 192.53 278.93 192.99 278.91 193.63 278.15 193.74 277.81 195.07 275.83 195.63 275.11 197.4 274.76 197.88 274.9 198.92 274.52 199.33 275.51 200.59 275.81 201.32 275.13 201.55 273.98 203.36 274.13 203.63 272.95 203.93 271.03 205.82 271.06 206.98 270.79 205.77 269.39 206.44 266.68 205.87 265.5 205.57 264.57 205.9 263.69 205.77 262.8 206.07 262.43 206.51 262.55 207.16 262.37 207.71 261.98 207.74 262.43 208.58 262.66 210.02 262.64 210.49 262.8 211.42 262.77 212.13 263.3 213.34 263.67 214.35 263.83 214.42 262.46 214.16 262 214.07 261.33 214.25 260.94 214.97 260.37 216.2 260.81 216.81 261.39 217.22 261.41 217.66 261.9 218.27 262.07 218.54 261.72 218.9 261.62 219.37 260.66 219.93 260.11 219.87 259.16 219.95 258.75 220.54 257.91 221.13 256.49 221.88 255.79 222.02 255.44 222.05 254.28 221.62 253.42 221.51 252.82 221.06 252.54 221 251.83 221.12 250.61 221.81 249.43 222.17 248.6 222.2 247.91 222.1 246.31 222.25 245.44 222.68 244.43 222.73 243.81 223.3 242.52 224.33 241.02 225 240.32 225.23 239.81 225.5 238.68 224.2 238.56 221.88 238.07 221.62 237.68 221.1 237.47 220.94 237.72 220.5 237.55 219.23 237.51 218.23 236.99 217.94 236.5 217.61 236.43 216.62 235.5 216.55 235.16 215.99 234.56 215.28 234.48 213.89 234.69 213.2 234.44 212.26 233.84 211.43 232.68 210.87 231.65 208.52 230.7 208.77 229.53 207.31 230.01 206.27 230.42 205.94 231.28 204.86 231.96 203.62 233.47 203.18 234.15 202.48 234.71 202.18 235.64 201.87 236.04 201.52 236.95 200.34 237.4 197.75 237.44 197.29 237.28 196.65 237.4 196.12 237.8 195.1 237.72 193.86 237.75 193.74 238.14 192.49 238.58 191.39 238.78 190.58 238.55 189.59 238.5 188.64 238.94 187.56 238.95 187.28 239.4 186.24 239.03 185.22 240.04 183.93 240.72 182.51 240.19 180.86 240.18 180.4 241.01 179.64 241.5 179.11 242.22 178.97 242.85 178.12 243.87 177.43 244.43 176.85 245.63 176.76 246.28 175.36 246.18 174.21 246.61 173.31 247.26 172.72 246.83 171.43 246.46 170.95 246.68 168.98 246.74 168.45 246.99 167.73 247.06 167.01 246.81 165.82 246.83 165.41 247.33 164.02 248.18 163.34 248.32 162.96 248.63 161.44 249.27 160.08 247.85 159.77 247.14 159.54 246 158.43 245.21 157.13 243.89 155.8 242.77 154.72 241.71 153.83 240.34 152.81 238.91 151.99 237.15 151.64 236.05 151.62 235.03 151.19 234.15 150.94 232.97 150.18 232.11 149.43 232.66 148.63 232.59 148.17 231.88 148.54 231.83 149.23 232.22 150.07 231.56 149.82 231.01 149.12 230.25 148.37 229.82 148.26 229.48 146.9 228.29 146.87 227.21 146.05 226.17 145.56 225.75 145.71 225.45 145.57 224.72 144.86 224.42 144.49 223.55 143.85 222.76 143.14 222.57 142.35 222.89 141.08 223.58 140.29 224.13 139.47 225.02 138.39 225.72 137.55 226.5 137.17 226.52 136.77 226.03 135.62 225.89 135.4 225.66 134.86 225.87 134.54 225.42 134.04 225.37 133.6 224.79 133.46 224.31 132.36 223.81 132.19 223.55 130.67 223.79 130.51 223.26 130.12 223.32 129.76 223.73 129.35 223.8 128.78 224.13 128.46 224.5 128.07 225.28 127.62 225.74 126.85 225.5 126.21 226.16 124.95 226.18 124.4 226.04 123.93 225.74 123.34 225.83 123.02 225.56 122.47 225.53 121.72 224.97 121.5 223.71 121.81 222.31 120.37 221.04 119.99 220.22 119.99 219.65 119.41 219.06 118.62 218.93 118.02 219.06 117.55 218.96 117.21 217.78 116.82 217.77 116.02 216.03 115.94 215.46 115.99 214.8 115.13 213.62 115 212.61 114.24 211.35 113.45 209.92 112.85 209.94 111.82 209.44 110.84 209.31 110.65 208.97 108.98 208.16 107.97 208.09 107.78 207.44 108.17 205.9 108.02 205.01 107.76 202.86 106.26 203.2 105.18 203.78 104.6 203.43 103.42 203.27 101.31 200.61 100.96 199.55 101.74 199.45 102.02 198.54 102.44 197.93 102.29 197.04 102.59 196.55 102.4 195.91 102.45 194.87 102.79 194.19 102.62 192.69 103.08 192.12 103.32 191.49 103.49 190.6 104.1 189.19 104.39 188.27 104.56 187.39 104.52 186.46 105.04 185.98 104.86 184.74 105.56 183.91 105.95 183.15 105.93 182.58 105.7 182.36 105.59 181.65 105.79 180.95 105.59 180.23 105.76 179.5 105.65 178.7 105.83 178.11 105.12 177.61 104.32 176.82 104.19 176.09 104.38 174.73 104.56 174.03 104.22 172.66 104.59 170.79 104.49 169.47 104.1 168.13 103.45 167.1 103.77 166.76 104.38 166.55 105.43 166.38 105.83 165.75 106.7 164.84 108.28 164.2 109.14 164.35 109.48 163.64 110.42 163.93 111 162.7 110.43 161.52 109.46 160.57 109.28 159.26 108.7 158.25 108.93 156.97 108.41 156 108.14 155.12 107.57 154.32 107.38 152.76 106.97 152.46 106.67 151.72 106.58 150.91 105.34 150.1 104.02 150.27 102.57 149.99 101.05 150.26 100.29 151.02 99.13 151.41 98.36 150.22 98.11 149.51 96.97 148.53 96.7 148.74 96.02 148.91 95.18 148.42 94.4 147.73 94.01 147.26 92.98 145.11 92.32 144.4 92.15 144.02 91.91 142.91 90.92 141.31 90.4 140.75 89.91 140.4 88.3 139.69 87.04 139.89 86.26 140.22 85.51 140.66 84.21 141.73 84.16 142.2 84.29 143.48 84.11 143.74 83.11 144.44 82.94 144.65 80.82 145.45 80.1 145.2 78.97 145.48 78.28 146.08 77.33 146.21 76.13 145.6 75.47 145.46 74.83 145.85 74.04 146.06 72.46 146.66 71.7 146.78 71.26 147.34 71.3 147.92 71.09 148.17 70.73 149.24 70.8 149.73 70.58 150.17 70.69 150.71 70.99 150.99 71.07 151.42 71.46 152.02 71.6 153.56 71.87 154.51 72.07 154.75 72.06 155.42 71.85 155.58 72 156.18 71.65 156.56 71.75 157.15 71.24 157.51 71.06 158.1 70.73 158.41 70.74 159.31 71.16 160.25 70.91 161.02 70.91 162.03 69.52 162.42 68.36 162.41 67.3 162.65 66.42 162.47 65.29 163.34 64.82 164.03 63.99 164.34 63.37 164.1 62.91 164.96 61.96 165.51 61.24 166.23 60.45 166.29 59.6 166.85 59.14 166.91 57.99 167.28 57.27 167.95 57.26 168.43 56.77 169.12 56.24 169.29 55.01 169.22 53.67 169.45 52.77 169.23 51.97 170.1 51.05 170.2 50.55 170.04 50 170.32 48.3 170.84 46.72 170.94 45.99 171.32 43.76 170.95 42.36 171.15 42.01 171.11 40.8 171.44 39.61 171.55 38.5 172.24 36.24 172.92 34.64 172.65 34.21 172.76 32.57 172.41 32.06 172.01 30.55 172.05 29.52 171.66 28.71 171.02 27.94 170.57 26.46 169.52 25.15 168.81 23.66 168.8 22.43 168.55 21.25 169.02 19.81 168.29 19.4 167.96 18.54 168.05 17.72 168.71 15.35 171.71 13.61 171.48 12.8 171.61 12.04 171.24 11.39 171.25 10.63 171.72 9.57 171.47 9.17 170.75 8.61 170.23 8.99 169.18 9.14 168.09 9.42 167.16 9.41 166.48 8.98 166.1 8.49 165.24 8.15 164.29 7.06 164.33 6.01 163.71 5.67 163.69 5.03 163.25 4.41 163.17 3.99 161.7 3.81 160.8 4.09 159.88 4.38 159.24 4.01 158.28 2.91 157.51 2.81 156.6 2.64 155.93 2.7 155.36 2.45 154.64 2.56 153.55 2.8 152.38 3 151.78 1.73 150.31 1.48 149.57 1.51 148.88 1.12 148.27 1 146.52 1.23 145.47 1.48 145.36 1.72 144.31 2.08 143.85 2.46 142.94 2.7 141.63 2.5 140.98 2.53 139.64 2.3 139.07 3.68 137.53 4.84 137.07 5.12 136.6 6.19 135.92 7.39 135.65 8.57 134.7 9.43 133.5 10.76 132.8 11.55 132.46 11.58 132.04 10.5 130.8 10.43 129.85 10.06 129.11 9.8 129.01 9.54 128.31 9.17 128.07 8.97 127.03 8.48 126 8.55 125.72 8.21 125.08 7.97 123.53 8.08 122.54 8.85 121.22 8.79 120.66 8.53 120.1 8.63 119.74 8.33 118.16 9.23 114.97 10.43 113.89 10.88 112.87 11.64 112.28 12.89 111.8 13.17 111 12.7 109.74 12.71 108.96 13.17 108.25 13.56 108.17 13.84 107.74 14.62 107.21 15.98 106.75 16.67 106.6 17.26 105.96 17.89 105.7 18.66 105.19 19 104.64 19.57 104.46 20.85 103.46 21.47 103.26 22.46 102.17 22.98 102.28 23.87 101.68 24.51 101.67 26.36 102.21 28.17 103.7 28.53 104.87 29.2 105.3 29.87 105.19 30.86 105.6 31.18 105.97 32.09 106.26 33.23 106.33 34 106.09 34.72 106.48 36.13 106.63 36.71 106.5 37.31 106.8 38.24 107.46 38.97 108.54 39.52 108.78 41.21 107.36 41.24 106.48 41.75 105.53 42.46 104.68 43.4 103.73 44.88 103.62 45.37 103.37 46.19 104.11 47.4 105.09 48.36 105.76 49.51 106.82 49.99 106.76 50.54 107.36 51.08 107.8 51.86 107.88 52.72 108.34 53.26 108.48 54.7 108.54 55.17 108.45 55.74 107.99 56.21 108.09 57.12 109 57.19 109.32 58.32 109.71 58.96 109.53 59.28 109.91 60.41 109.57 61.18 109.14 61.58 108.62 62.89 107.79 63.87 106.25 64.97 106.11 65.26 105.65 65.29 103.38 65.01 101.53 64.7 100.86 64.62 100.34 64.21 99.62 63.74 98.47 63.65 97.96 62.51 95.94 62.33 95.04 61.56 93.52 60.54 92.2 60.88 91.86 60.48 91.37 59.99 90.44 61.47 88.5 61.9 88.88 62.4 88.77 62.92 89.02 63.45 88.99 64.15 89.14 64.92 89.12 65.43 89.57 65.74 90.12 66.45 89.91 66.99 90.34 67.48 90.47 68.14 90.36 68.84 89.69 69.49 89.66 70.59 89.06 71.23 89.13 71.89 88.4 72.45 87.93 72.96 87.96 74.24 88.68 74.96 88.24 75.95 88.11 76.75 87.22 76.78 86.84 77.21 86.87 78.17 86.14 78.55 85.48 78.23 85.21 78.05 84.61 77.55 83.83 77.6 83.36 77.41 83.07 77.27 82.38 77.4 82.03 77.18 81.48 77.22 80.85 77.45 79.92 77.04 78.77 77.31 78.22 77.35 77.23 76.88 76.53 76.48 76.23 76.4 74.48 76.48 73.91 76.75 73.58 76.64 73.06 76.38 72.88 76.33 72.44 75.99 71.57 75.96 70.53 75.78 69.86 75.46 69.52 74.9 68.46 75.53 67.05 75.79 65.99 75.62 65.16 75.72 64.57 76.43 63.66 77.01 63.6 77.18 63.33 76.35 62.3 76.19 61.5 75.46 60.43 74.81 60.05 74.74 59.59 74.15 59.1 73.78 58.34 73.83 57.52 73.6 57.22 73.58 56.54 73.13 56.1 73.28 55.08 73.24 53.5 72.6 51.36 71.93 50.45 70.8 49.46 70.83 48.91 70.27 48.03 70.51 47.25 70.46 46.51 69.93 45.9 69.65 44.05 69.63 42.24 70.67 41.04 71.66 40.08 71.59 38.22 71.76 36.85 72.18 36.71 72.64 35.62 72.04 34.74 71.56 34.29 71.72 33.76 71.29 32.86 71.07 31.65 70.7 30.7 71.3 29.48 71.21 29 71.39 28.5 72.07 27.98 72.7 27.79 73.58 27.14 74.05 26.01 74.71 25.64 75.48 25.38 76.1 24.41 76.22 23.21 76.14 22.54 76.81 21.99 77.3 22.23 78.63 22.01 78.79 22.3 79.47 22.82 80.21 23.58 81.41 23.87 82.35 23.85 83.38 24 84.15 25.35 84.5 25.68 84.6 25.03 86.92 24.42 88.14 24.21 89.33 24.25 91.64 24.13 92.6 23.62 93.77 22.04 94.65 21.72 95.51 20.73 98.96 19.07 101.32 19.4 102.2 19.66 104.03 20.33 104.38 21.18 104.74 21.63 106.53 21.6 107.16 21.33 108.8 20.78 111 19.89 111.42 19.85 112.03 20 112.9 20.7 113.91 20.91 115.88 21.91 117.18 23.25 119.04 24.9 119.88 25.35 120.31 25.27 121.68 25.25 122.15 25.16 123.22 25.14 123.63 25.42 124.71 25.78 125.48 26.79 126.45 27.14 126.72 27.42 128.95 25.67 130.26 24.23 130.58 24.08 131.34 23.21 132.03 21.84 132.78 20.87 133.55 19.47 134.12 18.8 134.42 18.27 134.99 17.82 136.01 18.17 136.66 18.49 137.43 18.73 138.24 19.28 138.89 20.18 140.52 20.08 140.89 19.89 141.85 20.38 142.69 20.3 143.99 20.64 144.45 19.68 145.51 18.37 145.57 18.04 146.05 17.47 146.26 16.27 147.32 14.6 147.78 12.97 147.62 11.53 147.79 10.4 147.61 10.04 148.33 8.06 148.42 7.35 149.07 5.97 149.6 5.13 150.42 4.2 151.94 3.69 152.59 3.4 153.48 3.32 154.21 2.34 155.25 1.72 156.39 1.54 156.79 1.3 157.6 1.13 158.03 1.4 158.78 1.31 159.56 1.38 160.64 1.19 161.14 1 161.92 1.3 162.19 1.6 163.08 1.67 164.47 2.87 165.18 2.8 166.1 3.06 166.41 2.95 168.05 3.92 168.52 3.89 169.68 3.54 170.09 3.72 170.97 3.42 172.36 3.7 173.31 4.25 173.71 5.54 174.57 6.03 176 6.74 176.6 6.88 178.72 7.94 179.47 8.11 180.54 8.58 181.79 9.25 182.73 9.14 183.79 10.52 183.49 11.1 183.29 11.88 183.54 13.77 183.2 15.15 182.96 15.75 183.35 16.67 183.61 17.79 184.2 18.85 184.12 19.24 185 20.47 185.49 21.53 186.24 22.54 186.49 23.85 187.13 25.66 187.83 25.82 189.61 25.57 191.08 25.9 192.39 25.88 192.97 26.23 194.28 27.29 196.53 27.85 197.49 29.79 197.84 30.08 198.33 31.45 199.47 31.5 200.08 31.83 200.56 31.8 201.37 32.15 202.12 33.04 202.31 33.59 202.91 33.83 203.16 34.61 203.85 35.06 203.9 35.65 204.78 36.34 204.83 37.03 205.41 37.31 205.9 38.02 206.28 38.3 207.38 37.75 207.89 36.96 208.88 36.54 209.42 36.86 209.67 37.16 210.21 37.4 210.66 37.9 211.09 37.74 211.66 37.88 212.13 37.78 213.13 38.13 215.32 38.41 216.61 40.81 216.52 41.38 215.8 42.4 215.09 42.76 214.46 43.5 213.6 45.13 213.7 45.48 213.43 46.24 212.95 46.78 213.33 47.75 212.82 48.6 212.42 49.51 211.54 50.24 211.05 51.23 210.35 51.49 209.92 52.57 210.28 52.96 210.38 53.95 210.16 54.42 209.23 55.45 209.2 56.11 209.49 56.68 209.47 57.54 209.35 57.99 209.62 58.41 209.45 58.8 209.54 59.29 209.2 59.82 209.08 60.66 208.17 61.41 207.56 61.71 207.57 62.73 207.34 63.02 207.18 64.81 207.12 66.13 206.69 66.71 206.64 67.54 206.43 68.88 206.52 69.53 206.84 70.38 207.34 70.61 207.69 71.56 208.06 71.8 208.26 72.41 208.52 72.47 209.08 73.72 209.77 74.44 210.21 74.49 210.95 75.3 211.62 76.39 211.48 76.59 211.65 77.25 212.04 77.65 211.96 79.18 212.17 79.77 212.79 80.84 212.1 81.99 211.8 82.72 212.07 84.96 211.27 86.45 211.82 88.63 211.76 89.29 212.09 89.76 212.25 90.39 212.13 90.99 212.75 91.66 213.71 93.2 213.46 93.94 213.64 95.12 214.07 95.59 214.23 96.56 214.25 97.37 214.53 98.47 214.35 99.62 214.36 100.89 214.55 101.44 214.19 103.05 214 105.34 214.46 106.83 214.87 108.44 215.21 109.04 215.85 108.28 218.24 107.56 219.44 106.88 220.32 107.06 220.67 106.82 221.64 107.8 222.02 108.33 222.59 108.5 223.98 109.57 224.78 109.84 225.81 111.85 227.15 113.93 229.32 116.44 232.07 119.05 233.43 120.1 235.19 120.83 236.62 121.37 239.29 122.22 242.22 123.02 244.19 123.04 246.47 123.32 247.74 123.78 248.32 125.59 247.83 127.03 249.19 127.31 249.38 127.47 250.61 127.92 251.55 129.25 251.96 130.17 252.92 131.86 253.21 132.16 253.15 132.96 253.7 133.77 254.05 135.38 254.34 135.73 255.69 136.82 256.17 137.04 256.69 137.48 257.48 137.79 258.03 138.22 259.19 138.77 259.26 139.32 259.69 140.15 261.29 141.11 261.77 142.5 261.35 143.65 261.48 144.52 262.14 144.97 263.83 145.6 263.97 145.9 265.26 146.11 265.79 146.56 266.31 146.42 266.92 146.52 267.39 147.18 268.91 147.57 269.69 147.86 271.1 147.99 272.87 147.64 273.59 146.81 276.4 144.77 277.84 144.92 278.82 144.61 278.78 143.97 280.19 142.44 281.09 142.07 281.39 141.42 282.89 140.7 283.39 139.82 284.34 138.84 286.22 137.77 286.97 137.16 287.97 137.08 289.92 137.36 290.73 138.64 291.74 139.07 292.46 139.69 293.69 139.61 294.87 140.53 295.85 141.05 296.68 140.41 298.17 140.68 298.55 140.21 298.82 139.61 299.02 138.48 298.42 136.92 298.26 135.81 297.72 134.37 296.96 134.01 296 132.48 295.28 131.69 295.65 130.36 295.61 129.26 296.56 127.55 296.16 126.96 296.54 126.8 298.45 125.61 299.88 124.25 300.17 122.81 299.12 122.25 298.72 121.54 297.63 120.2 296.76 119.69 296.67 118.8 296.38 118.15 296.45 117.02 296.1 115.81 295.75 115.32 295.34 113.8 294.66 113.15 294.46 112.06 294.49 111.01 293.94 109.41 293.97 107.94 294.63 107.34 294.99 106.37 295.92 105.53 295.17 104.29 295.82 102.89 297.46 101.09 297.84 100.13 298.97 98.92 298.99 98.37 300.46 97.16 300.47 96.78 300.96 96.06 300.67 94.76 300.15 91.49 301.74 87.84 300.58 85.95 301.87 85.13 302.77 84.9 304.03 83.47 305.98 81.88 306.76 80.61 307.65 79.92 309.23 79.54 310.32 80.1 313.62 80.34 314.33 80.55 314.75 80.99 315.74 81.23 318.28 84.15 319.25 84.27 321.03 84.21 321.63 84.87 324.11 84.38 324.71 84.75 325.28 84.67 325.75 84.99 326.81 85.15 328.11 85.93 328.43 86.19 329.57 86.11 330.47 86.85 331.2 86.96 332.44 87.49 333.97 87.22 334.05 87.02 335.56 86.54 337.05 86.57 337.66 86.88 338.64 88.08 340.31 88.95 341.15 88.89 342.32 91.29 342.11 92.36 342.38 93.3 344.43 94.99 346.17 97.49 346.94 98.21 347.43 98.98 347.77 99.26 348.07 100.63 348.71 101.04 351.43 102.95 351.82 104.7 352.2 105.32 352.35 106.21 352.11 106.9 353.18 108.89 352.66 109.48 351.81 110.16 352.49 111.35 352.91 111.77 352.96 112.37 351.3 113.88 350.78 115 349.94 117.22 349.82 118.93 350.13 119.36 350.43 120.57 350.78 121.02 351.18 122.33 351.79 122.64 352.25 123.42 352.71 123.61 353.42 124.54 353.84 124.48 354.74 124.67 356.91 124.25 357.67 123.95 359.23 124.16 359.84 124.36 360.94 124.98 361.68 124.97 364.74 127.33 365.76 127.37 367.51 128.2 368.51 129.01 369.91 129.33 371.68 129.45 372.55 129.38 373.26 129 373.86 128.86 375.83 129.26 376.93 129.02 377.71 129.12 378.18 129.38 381.38 129.48 381.86 129.27 383.2 128.99 383.58 128.53 385.02 128.09 385.46 128.39 385.59 129 385.88 129.61 386.1 130.79 385.97 131.91 386.47 132.88 386.66 133.56 386.57 134.53 387.59 135.79 388 136.78 388.52 137.43 388.68 138.17 388.58 138.69 388.71 139.18 388.72 140.58 389.35 140.88 389.07 141.79 389.24 142.21 389.04 142.64 389.01 143.56 389.43 145.45 390.67 145.16 391.08 145.44 392.08 145.83 393.53 146.05 394.03 145.89 395.27 146.04 397.24 145.96 397.38 145.34 398.13 145.02 398.59 145.2 399.18 145.72 399.43 146.43 400.41 146.61 401.36 147.59 401.96 147.59 403.88 147.26 405.95 147.3 406.78 146.74 407.19 147.01 407.68 146.77 408.15 147.21 409.47 146.76 409.65 145.89 410.76 144.41 411.09 144.59 413.74 144.29 414.19 144.41 414.73 144.07 415.38 143.83 415.82 143.33 416.58 141.52 417.13 141.06 417.79 141.79 418.48 142.2 419.71 143.44 420.82 144.62 422.65 149.24 424.12 151.57 425.11 150.45 425.85 150.22 426.2 150.5 428.05 149.77 429.4 148.28 431.28 149.31 432.27 147.71 432.97 147.08 435.79 145.48 437.29 144.83 440.39 144.75 444.25 145.51 447.25 148.45 449.65 152.11 450.25 153.75 451.21 155.27 452.43 156.8 453.24 157.08 454.38 157.33 455.1 157.09 455.96 156.54 458.61 155.02 459.89 154.88 461.41 155.32 462.5 156.08 463.17 157.18 463.65 158.67 463.86 160.1 464.29 161.75 464.93 162.63 465.1 162.26 466.11 164.06 466.87 166.58 465.67 169.45 463.99 170.18 Z" id="32530000"/>
</g>
</svg>