<?xml version="1.0"?>
<svg xmlns="http://www.w3.org/2000/svg" version="1.2" baseProfile="tiny" width="800" height="616" viewBox="0 0 800 616" stroke-linecap="round" stroke-linejoin="round">
<g id="sigung">
<path d="M 710.44 10.34 711.62 11.75 711.39 13.42 710.02 15.25 710.12 16.67 711.36 17.65 711.73 19.44 712.46 21.34 712.49 24.07 711 26.53 708.57 28.64 706.94 30.94 706.48 32.19 706.37 34.22 705.01 41.56 704.33 43.49 704.91 44.81 705.7 46.03 705.63 48.12 704.09 51.82 699.75 56.18 696.5 61.09 695.73 63.08 695.6 65.17 695.93 66.3 696.65 67.01 696.89 68.28 698.1 69.63 698.91 70.83 699.07 71.53 698.7 72.5 698.93 74.32 697.45 75.62 697.05 77.58 697.01 80.96 696.63 82.54 696.97 86.46 696.55 87.67 696.69 88.92 699.67 90.36 700.45 90.32 700.4 91.22 701.06 94.07 702.13 96.68 703.19 99.64 703.62 101.56 703.71 103.21 704 104.66 704.02 105.78 703.73 107 703.71 108.92 704 110.75 703.88 113.02 702.1 114.98 700.89 116.67 698.5 118.89 697.13 119.55 695.93 120.33 695.05 121.58 694.75 124.79 694.15 128.23 694.23 132.18 694.02 134.23 693.75 139.18 694.01 141.68 694.34 142.84 693.8 146.01 694.42 147.62 694.51 148.82 696.53 152.15 697.52 153.5 698.13 155.56 696.18 157.94 695.31 159.29 694.7 161.39 694.13 164.06 693.95 165.79 695.25 166.78 695.76 168.16 696.46 169.44 696.47 170.23 700.48 170.79 701.65 171.17 702.24 171.76 702.36 173.24 702.65 174.24 704.13 175.71 705.29 177.34 707 177.54 708.56 177.17 711.18 176.2 713.2 175.19 716.44 174.69 717.6 174.3 718.32 173.7 719.56 173.2 720.2 173.29 721.25 174.19 723.14 176.15 724.39 177.19 726.31 179.15 727.19 179.72 727.73 181.08 729.52 182.41 733.29 184.36 737.01 187.95 737.68 188.84 737.72 190.92 736.46 192.75 735.31 194.87 735.02 198.68 733.1 202.33 733.57 204.77 733.89 208.5 736.68 212.82 737.11 215.74 737.01 218.5 736.59 222.52 738.72 226.52 740.17 230.16 739.43 232.51 739.63 237.89 740.34 240.78 742.97 245.5 743.33 247.66 742.78 252.26 742.26 254.62 741.81 255.82 739.07 258.85 738.5 260.55 736.5 262.95 734.8 266.74 735.13 267.69 734.14 269.76 734.17 271.9 733.92 274.34 736.76 278.78 737.77 281.83 736.76 284.53 737.04 286.98 736.06 291.47 735.07 293.36 734.99 294.21 734.36 297.02 735.17 299.17 733.92 301.44 733.27 304.03 731.78 306.49 731.67 311.05 733.01 312.89 733.67 314.96 734.33 316.31 734.99 317.24 734.68 318.61 734.96 319.88 735.76 320.29 736.54 322.05 736.85 322.36 736.59 324.36 736.06 325.26 735.09 326.33 735.31 327.39 734.96 330.36 735.33 331.62 734.7 332.24 734.56 333.67 734.28 334.37 733.95 336.28 734.41 337.59 735.25 338.49 734.6 339.88 734.42 341.15 735.1 342.61 735.08 343.26 736.63 346.15 736.88 348.2 736.01 351.26 736.01 352.98 736.32 353.19 738.68 353.24 741.45 352.84 744.29 353.14 746.35 354.07 747.91 355.17 749.8 356.01 752.82 357.85 754.37 359.1 755.27 360.75 754.44 362.23 753.08 365.27 753.85 367.07 753.97 368.23 753 369.02 752.66 369.81 750.33 372.24 749.59 372.41 749.08 373.03 749.23 373.84 750.43 375.14 750.48 376.1 751.53 377.95 751.32 379.2 751.75 379.81 751.69 381.5 752.25 382.62 752.18 383.45 752.87 384.55 753.06 385.39 751.8 386.06 751.68 387.06 750.85 387.78 751.07 388.82 752.76 389.72 754.03 390.08 755.23 392.04 754.84 395.1 754.83 397.02 755.06 398.96 755.78 402.15 755.96 404.17 756.4 406.26 758.45 408.61 759.89 408.43 761.96 409.15 763.34 409.23 767.74 410.13 770.39 411.07 777.66 411.55 778.17 412.27 779.03 414.06 780.37 416.36 780.84 418.14 781.71 419.43 781.46 420.7 781.91 421.87 782.23 424.41 783.54 425.52 784.54 425.94 785.23 427.45 786.31 430.78 786.97 431.78 787.87 432.65 788.85 433.27 787.73 436.21 787.67 438.18 786.81 438.77 785.77 439.83 786.15 440.4 784.61 442.26 783.29 444.89 782.39 448.65 782.73 451.3 783.44 454.85 786 457.81 788.28 463.28 791.52 467.15 793.36 468.49 797.41 476.61 799 478.91 798.34 480.77 795.93 482.9 792.72 484.22 790.55 486.61 784.68 489.7 782.8 491.62 781.06 495.67 778.61 496.11 775.78 497.13 772.99 495.19 768.44 494.76 760.8 496.86 757.3 496.79 754.18 498.34 751.39 499.27 748.07 501.35 744.04 502.21 742.04 502.84 740.39 502.24 737.49 500.51 735.14 498.98 731.72 499.86 731.01 500.65 728.11 498.97 726.57 499.13 724.83 498.35 723.88 498.2 722.58 496.97 717.7 496.94 714.85 497.23 711.92 497.62 709.19 497.65 702.59 492.84 699.74 496.61 699.18 501.24 698.57 501.96 697.44 504.62 697.32 505.22 696.61 505.75 696.18 507.03 696.5 507.67 697 510.72 696.27 511.5 696.28 513.3 697.16 514.07 695.07 517.26 694.24 518.7 694.3 521.1 694.51 523.26 693.03 526.45 693.39 528.49 693.95 530.38 693.9 532.26 695.26 534.06 695.83 535.96 695.83 537.73 703.76 542.31 701.43 546.96 701.44 549.35 702.9 553.79 708.09 562.74 707.21 563.58 704.41 564.53 698.43 566.7 694.5 567.28 691.85 570.36 690.5 572.32 688.86 572.7 685.27 572.16 681.46 572.62 677.97 573.46 674.6 576.95 673.48 579.39 670.32 582.31 667.76 584.04 665.16 584.45 662.49 584.98 659.48 590.25 660.25 595.82 658.64 597.05 657.31 599.11 657.22 600.89 655.76 600.46 653.68 600.14 649.52 596.43 647.67 595.24 645.95 594.51 640.35 595.25 638.26 595.03 634.27 595.07 631.63 595.96 627.39 599.62 625.85 601.26 622.87 601.69 620.42 601.6 617.69 601.82 615.87 603.59 611.76 606.7 608.74 608.54 606.53 609.63 603.69 611.96 598.8 613.84 596.82 614.98 593.09 615 592.48 612.77 592.3 609.77 591.95 608.77 592.43 606.67 590.16 604.61 590.5 602.03 588.56 599.93 588.55 597.35 586.41 594.59 584.61 589.59 581.5 585.38 580.34 583.11 579.53 578.44 578.87 576.75 578.2 575.83 577.8 574.68 576.24 574.18 573.48 574.84 572.57 574.22 571.1 574.14 568.99 574.93 568.23 573.39 568.18 572.01 568.6 570.63 569.58 569.93 570.39 568.6 570.44 567.06 571.12 566.27 571.12 564.45 569.86 563.75 569.97 563.03 569.77 560.82 569.09 560.16 568.62 557.8 567.56 557.22 567.35 555.7 566.46 554.66 565.55 553.29 565.42 551.91 564.45 551.52 564 549.94 564.07 548.34 563.15 547.59 562.97 545.96 561.73 544.36 560.45 544.75 559.11 544.4 558.16 543.52 556.63 543.49 555.9 543.09 554.71 543.45 554.17 543.13 553.36 543.28 552.96 542.47 551.79 541.86 550.81 541.58 549.94 541.78 549.11 541.19 547.42 541.1 547.38 539.58 545.24 536.92 545.18 535.52 544.36 534.67 544.43 533.34 544.17 531.96 543.25 531.78 542.98 530.9 542.03 531.27 541.5 530.94 540.52 531.36 538.16 530.86 537.4 531.12 536.39 530.63 535.35 530.97 534 530.23 532.75 530.39 531.63 530.02 530.71 529.26 529.64 529.57 529.03 528.21 527.42 527.16 527.49 526.46 526.33 525.58 525.99 524.51 525.2 524.06 525.3 523.11 524.66 522.23 524.66 521.22 523.82 521.04 521.99 521.98 521.97 523.22 521.44 524.26 520.54 524.93 519.18 525 518.11 524.48 516.56 524.11 515.51 524.59 514.19 524.48 513.05 524.19 512.14 524.52 510.55 523.9 509.45 523.77 508.78 524.65 507.59 524.81 506.46 526.09 505 526.15 504.47 526.99 503.09 527.88 502.43 529.01 500.8 529.38 501.09 530 500.46 531.33 499.73 534.87 498.23 534.67 495.05 535.35 494.52 536.06 494.87 537.21 493.9 538.87 494.25 540.59 493.88 542.71 491.71 544.89 491.51 546.46 490.24 547.48 490.06 548.94 489.01 549.55 488.65 550.49 488.81 551.5 487.37 551.94 486.27 551.75 485.29 552.41 484.06 552.17 482.81 552.16 481.12 552.57 479.36 552.28 478.14 552.68 476.83 552.38 475.04 552.76 474.18 552.17 473.19 552.49 472.49 553.88 470.66 553.67 469.23 554.09 468.37 551.65 466.95 548.59 465.84 545.01 464.88 542.62 464.3 540.88 463.5 540.22 462.33 536.6 460.03 534.43 459.55 533.58 457.95 531.51 456.61 530.24 455.42 529.59 454.24 527.85 452.94 527.31 451.88 526.43 450.75 526.09 449.63 525.38 448.7 525.13 447.64 524.53 447.03 524.45 445.75 524.98 444.36 525.29 443.67 526.2 442.84 526.41 442.01 526.93 440.58 527.28 439.67 527.8 438.75 528.85 437.43 530.03 436.34 530.46 434.56 530.47 433.59 530.75 432.44 530.33 431.47 530.73 430.22 530.64 425.64 532.69 423.45 532.8 421.48 532.25 420.27 531.6 419.02 531.59 418.06 532.88 416.33 533.13 415.9 532.31 414.87 532.21 414.25 531.68 411.11 529.54 406.27 529.81 405.2 530.22 403.84 530.18 402.84 530.91 401.46 531.39 400.22 531.26 399.81 531.68 398.73 531.83 397.2 532.92 396.46 533.23 395.25 534.56 394.42 535.09 393.2 536.62 390.69 538.74 390.49 539.92 389.61 541.19 388.98 541.4 387.85 541.29 387.09 542.06 385.16 542.54 384 543.37 381.95 542.76 381.3 544.41 379.21 545.37 377.42 546.3 374.22 547.72 372.37 547.8 372.12 550.97 373.39 554.36 371.13 555.03 369.67 554.15 365.53 548.41 364.71 546.53 363.88 541.72 362.73 540.46 361.78 539.02 361.06 535.1 361.05 533.06 361.55 529.52 361.56 526.65 362.14 522.42 362.34 520.05 362.09 518.9 361.9 514 362.2 511.76 363.83 509.37 367.04 505.94 368.98 500.97 369.41 498.42 369.3 495.93 368.38 493.13 367.17 490.97 364.66 488.86 360.62 487.28 357.48 486.65 356.21 486.99 354.45 488.23 353.03 489.91 350.33 493.46 349.31 494.4 349.83 494.74 349.38 496.37 343.96 497.68 340.25 499.2 337.21 500.21 335.7 500.51 332.74 500.42 324.77 499.05 322.83 498.62 320.43 497.46 318.13 494.69 317.29 493.82 314.95 490.95 312.53 487.85 311.07 485.77 309.78 485.07 307.19 484.62 304.48 485.25 301.98 486.79 301.36 487.5 301.08 489.14 300.41 488.52 300.59 487.22 297.12 481.73 294.75 479.43 290.17 477.82 291.67 471.57 293.26 466.74 294.21 464.26 294.68 462.55 294.81 461.31 294.44 459.22 293.67 458.02 293.92 455.61 288.89 453.6 287.53 452.3 284.88 450.38 283.47 449.54 281.63 447.43 280.32 446.63 278.01 444.88 277.02 443.3 276.11 440.11 275.78 438.55 273.23 438.11 270.26 437.71 265.51 437.28 262.67 436.57 260.82 437.69 257.32 438.03 255.81 436.63 253.22 436.21 252.17 434.39 249.3 433.45 245.59 431.31 241.9 429.49 240.64 428.51 237.19 428.08 234.02 428.49 232.67 429.37 229.18 429.77 225.02 430.59 224.17 432.36 223.79 433.91 224.01 435.06 225.75 438.63 226.05 440.13 225.46 441.19 225.51 442.6 224.1 444.77 222.09 448.77 222.54 451.11 222.07 454.23 221.98 456.05 222.33 457.26 223.12 458.73 223.97 460.74 224.14 462.97 224.47 464.32 226.04 466.96 226.99 466.89 228.48 466.28 231.22 466.4 235.8 470.06 237.11 470.9 238.44 471.95 241.98 475.59 243.17 477.04 243.42 478.77 243.75 479.93 243.54 481.32 243.81 482.2 243.27 483.97 243.17 485.21 244.47 486.74 246.01 487.02 246.56 487.92 247.6 489.13 247.62 491.34 246.96 492.5 246.07 493.41 243.55 494.92 241.99 495.54 240.79 496.17 240.21 497.47 238.64 499.33 239.03 502.15 238.88 504.15 238.47 507.26 241.07 510.76 241.67 512.29 242.52 513.13 244.85 516.06 245.71 518.44 246.23 520.78 246.28 522.56 243.91 523.98 241.99 526.32 241.29 528.23 239.92 529.4 238.77 531.49 233.13 534.81 231.99 537.04 228.46 538.26 227.07 539.07 226.62 541.47 224.51 543.69 224.19 548.75 222.92 550.81 222.73 551.65 222.89 553.17 223.92 555.26 222.94 557.92 222.08 559.84 220.05 560.73 218.63 561.11 217.4 561.87 215.72 562.43 213.79 562.47 209.72 562.37 207.77 562.88 205.49 564.13 204.07 564.53 200.39 564.6 197.97 563.91 196.63 563.75 194.99 563.96 193.26 564.86 190.58 565.17 190.76 567.14 189.95 569.24 189.71 572.01 189.21 572.76 189.05 575.15 188.53 577.69 188.69 581.6 187.94 583.3 187.64 584.75 186.87 586.76 185.74 590.62 184.84 595.32 184.68 597.64 184.08 599.84 184.03 601.1 183.55 601.83 183.46 603.58 182.74 604.82 177.86 604.66 168.21 601.1 165.32 602.66 160.02 603.32 155.48 602.92 150.87 604.08 147.8 604.33 144.79 604.9 141.95 604.77 137.31 605.83 131.57 603.56 123.38 610.62 117.75 605.34 115.33 604.48 113.65 603.71 112.54 598.64 110.74 598.53 105.43 597.52 102.4 596.46 99.73 595.97 96.27 595.91 92.53 596.28 88.66 595.19 86.28 593.52 83.35 593.22 78.84 593.42 75.85 593.22 73.82 593.42 71.08 593.5 69.82 593.15 68.24 590.08 66.66 588.17 63.72 586.76 59.5 584.16 57.92 582.55 55.56 582.22 53.21 579.86 51.61 576.86 50.38 576.25 49.2 574 46.54 571.25 45.41 568.19 45.31 564.96 45.05 563.06 43.9 559.96 43.65 555.77 42.68 554.11 44.5 550.94 42.87 545.74 39.58 542.44 39.29 538.55 38.41 536.28 37.02 534.5 37.28 532.86 35.58 527.24 36.76 519.95 38.29 514.92 38.6 508.22 37.7 506.32 34.5 505.24 33.01 503.89 31.06 501.31 27.55 499.86 27.14 498.64 28.32 493.57 26.99 490.7 25.69 489.28 24.76 487.24 24.58 485.22 24.84 482.03 25.74 480.29 25.07 478.73 27.19 473.19 27.05 471.58 28.22 466.39 27.76 463.67 28.18 458.07 27.65 455.61 26.84 454.23 24.57 452.16 24.41 450.65 27.52 444.67 28.38 441.67 28.64 438.2 27.77 433.63 27.91 430.03 27.54 428.11 25.69 425.38 24.81 423.06 25.33 420.71 25.95 416 26.54 413.22 26.13 410.48 25.41 409.04 25.32 403.25 24.41 401.36 22.65 398.03 20.48 394.06 19.34 390.66 19.07 387.3 18.95 383.81 18.61 382.29 17.43 379.55 16.29 378.46 15.85 377.7 12.51 376.13 9.07 376.2 7.27 375.84 5.94 375.03 5 374.02 4.6 372 3.91 370.05 1.66 365.98 1 365.98 4.82 359.85 8.22 357.97 9.88 356.12 11.36 355.25 13.43 352.41 16.35 350.02 16.75 349.28 18.7 347.16 19.66 346.95 21.98 347.97 24.02 348.29 25.21 351.36 25.28 352.66 26.18 353.27 26.99 354.18 27.58 355.25 27.55 355.8 28.21 356.83 26.35 362.2 29.26 361.66 32.22 360.74 35.05 360.98 37.86 361.67 39.42 361.47 39.89 359.76 39.58 357.46 39.94 354.92 41.05 353.39 44.41 352.44 44.95 350.38 47.86 349.31 50.13 349.41 52.28 350.04 53.17 349.86 55.38 347.13 59.31 346.28 61.89 345.24 64.11 345.09 66.77 346.42 68.98 346.88 73.2 346.18 74.24 346.69 78.19 345.69 78.63 345.39 80.31 346.02 81.44 346.65 82.51 346.55 84.33 345.79 86.86 346.24 89.55 344.96 93.03 341.91 94.59 341.06 96.65 339.22 98.23 338.6 99.79 337.08 100.06 336.12 101.62 335.34 102.06 333.7 105.47 330.7 107.61 328.63 107.09 325.66 108.1 322.08 108.74 320.92 108.68 318.03 111.27 313.31 112.27 310.39 114.89 310.88 115.94 310.42 116.17 309.19 118.26 306.18 118.47 304.82 118.98 303.29 118.82 299.73 119.05 298.05 119.83 296.2 118.86 294.48 115.88 291.14 115.34 290.26 114.1 290.02 113.25 289 112.07 288.58 110.01 288.46 108.55 287.9 106.9 286.57 104.98 283.02 104.59 282.1 102.4 280.95 101.69 278.9 100.86 276.98 99.75 273.94 100.1 272.78 101.78 270.93 104.21 269.05 105.94 267.89 106.83 266.48 107.32 264.9 107.18 263.55 107.73 261.47 109.36 259.33 110.26 256.99 111.49 256.85 112.97 255.61 114.21 253.62 115.43 251.12 116.54 249.26 118.95 247.7 120.15 246.02 121.89 243.92 122.85 241.13 121.84 238.65 121.31 235.74 122.21 232.9 122.66 229.26 121.9 226.26 121.03 220.21 122.7 217.26 124.26 209.87 124.49 207.83 125.71 203.73 126.32 199.48 127.82 192.89 128.76 190.31 132.59 190.18 136.91 189.26 139.53 189.27 142.74 190.49 145.8 189.7 147.93 188.46 150.03 188.12 154.99 187.1 155.8 185.76 155.77 183.94 157.49 182.84 158.97 180.9 160.09 178.38 161.84 175.13 163.8 170.69 166.6 166.19 168.55 165.96 172.3 165.84 174.97 166.1 176.28 163.38 177.64 161.96 180.15 157.92 180.94 156.54 182.44 155.18 184.3 153.12 184 151.24 180.94 147.26 180.37 145.65 180.99 145.46 178.74 142.24 179.25 136.75 180.46 133.23 183.3 127.18 185.42 123.95 185.34 123.6 188.57 123.07 190.85 123.13 192.39 122.75 195.52 122.57 197.05 121.54 198.99 121.75 201 121.15 203.72 120.99 205 121.15 207.63 121.06 210.99 120.09 214.49 116.51 216.88 114.68 219.2 112.36 219.98 111.97 223.71 108.01 224.85 104.72 226.73 101.48 227.99 98.14 228.26 95.73 228.17 93.7 228.69 92.14 228.34 90.75 228.38 88.5 229.44 85.66 234.85 82.2 234.97 81.83 236.28 80.84 236.93 80.72 238.65 79.28 238.9 78.84 240.21 78.45 240.57 77.75 241.43 76.78 243.35 75.43 243.65 72.72 243.53 71.42 244.04 70.55 245.85 69.67 247.1 69.57 247.43 68.89 249.1 69.92 250.21 69.39 251 68.46 251.93 68.27 252.6 67.3 253.51 66.99 255.06 67.83 256.11 68.13 256.85 67.77 257.72 68.4 258.56 68.37 260.92 67.79 263.93 61.62 268.44 59.98 274.14 56.79 273.6 55.89 274.98 52.08 274.39 47.81 276.09 41.66 272.33 38.87 268.44 29.34 268.4 24.93 271.42 20.18 273.88 17.25 275.87 15.36 277.32 14.59 279.29 14.33 281.91 14.54 284.22 13.97 287.76 12.32 290.41 10.57 290.76 14.22 291.24 16.97 292.28 19.48 293.85 21.67 296.07 23.79 299.67 28.46 302.28 30.76 306.44 31.78 308.52 32.56 310.18 34 311.22 36.33 311.3 38.31 310.61 40.38 310.85 42.33 311.82 43.7 312.86 44.7 314.77 45.65 315.9 46.56 317.58 49.93 319.1 51.49 323.08 53.97 324.7 53.95 326.95 54.13 329.2 54.65 331.14 55.68 332.9 57.62 335.42 58.96 337.76 59.45 339.34 59.38 340.85 58.7 342.64 56.92 344.04 56.54 346.6 57.58 348.53 58.01 351.74 57.99 353.03 58.19 354.11 59.63 355.04 61.53 355.86 62.16 357.81 62.12 362.11 59.66 365.92 58.05 368.42 56.73 372.95 55.79 375.35 54.79 377.06 53.64 379.28 53.48 381.96 53.77 384.03 54.74 386.63 54.9 390.17 54.7 393.07 53.94 396.98 53.45 397.61 54.4 398.95 55.98 401.46 60.6 401.64 63.07 402.26 64.01 403.91 64.65 406.27 65 407.28 65.54 408.11 66.63 409.9 71.25 410.95 73.64 411.99 75.38 414.96 77.39 417.97 78.23 420.65 79.17 422.41 80.57 424.15 82.15 426.3 83.46 428.88 83.7 434.26 84.38 437.53 84.98 440.58 85.12 448.31 85.86 450.99 85.93 453.39 85.05 455.53 83.58 457.72 81.66 459.69 80.49 462.35 80.5 464.84 80.99 466 78.45 465.74 76.3 464.91 74.75 464.43 73.3 463.96 69.38 463.4 67.44 463.29 62.41 466.08 60.62 468.39 59.29 471.52 56.47 474.99 53.44 477.42 50.46 478.99 47.61 479.99 44.58 480.64 41.31 480.86 39.54 481.36 38.59 485.06 33.97 487.72 30.75 489.3 27.95 490.43 26.58 492.87 24.71 494.86 23.05 497 21.75 499.45 21.76 501.47 22.77 504.5 23.1 508.52 20.31 512.13 18.37 514.69 17.49 517.8 16.23 520.44 14.52 523.77 12.75 526.1 11.74 528.81 11.32 531.91 11.23 535.75 11.38 539.52 11.73 542.22 11.53 544.59 10.28 547.63 8.95 551.21 7.88 554.23 7.29 558.67 6.85 562.53 6.63 570.23 4.43 574.07 2.75 578.06 1.46 581.51 4.88 583.7 6.81 586.45 8.54 588.48 10.28 590.94 12.74 592.09 15.15 593.52 17.62 595.68 18.93 597.92 20.75 600.61 22.28 603.04 22.25 605.3 22.56 608.27 23.78 610.04 23.97 611.6 20.72 613.79 14.63 615.16 11.48 618.09 7.06 620.39 4.36 622.07 3.12 626.18 1.25 631.19 1.28 634.37 1 636.33 1.12 639.57 1.52 641.82 1.95 644.12 2.97 647.32 3.82 650.37 4.27 653.44 4.31 658.04 4.76 661.45 3.84 662.74 3.21 665.62 2.66 669.12 2.27 671.18 2.65 673.15 4.09 675.2 5.35 678 7.41 679.67 8.29 680.79 9.48 682.63 9.87 687.54 8.59 691.28 8.12 693.38 7.56 695.85 8.22 696.95 8.16 700.72 10.05 703.58 10.63 705.62 11.8 707.46 11.8 709.64 11.15 710.44 10.34 Z" id="32570000"/>
</g>
</svg>