<?xml version="1.0"?>
<svg xmlns="http://www.w3.org/2000/svg" version="1.2" baseProfile="tiny" width="800" height="1091" viewBox="0 0 800 1091" stroke-linecap="round" stroke-linejoin="round">
<g id="sigung">
<path d="M 687.18 346.8 685.86 347.94 684.98 354.46 683.46 358.91 681.93 361.24 681.76 367.92 678.63 368.54 676.4 370.92 673.94 371.34 671.89 372.62 668.69 372.77 667.75 373.37 666.97 374.32 666.41 374.23 664.1 374.63 663.77 378.02 663.45 378.31 663.23 379.52 663.55 380.02 661.9 381.06 661.14 382.93 661.3 384.1 661.18 384.58 661.26 386.06 660.09 387.05 658.11 389.11 657.46 396.18 656.48 398.24 657.88 399.43 660.03 400 660.98 402.1 663.26 403.9 663.54 404.61 666.16 405.67 666.82 407.95 669.3 409 671.57 410.86 672.67 411.36 673.26 412.24 674.64 413.2 674.53 415 675.35 415.59 675.58 417.5 676.65 418.26 677.31 418.31 678.2 419.54 678.14 420.63 678.45 421.12 679.74 422.04 681.55 423.64 682.68 424.2 683.51 424.41 682.82 427.52 682.04 429.27 681.29 430.09 682.31 431.4 682.15 433.39 682.86 435.59 682.48 436.74 682.08 438.98 683.06 440.26 688.15 444.23 689.23 445.92 689.89 448.79 693.08 449.67 694.9 451.4 699.06 452.68 703.38 457.87 705.59 458 707.06 460.37 709.13 462.35 711.05 462.98 713.56 464.72 714.05 466.07 717.08 466.83 719.55 468.4 721.23 469.78 723.01 471.41 724.34 472.16 722.28 475.3 724.49 478.57 724.56 482.19 723.63 484.72 722.02 487.75 723.92 491.99 724.59 501.58 723.66 504.94 723.22 505.56 721.26 504.6 718.42 502.61 716.25 501.79 716.07 502.24 713.38 501.82 713.06 501.89 710.42 503.8 709.42 504.42 707.96 505.76 706.38 507.86 705.46 510.37 704.64 510.71 701.33 513.55 699.51 513.27 697.77 512.86 697.06 513.07 695.22 512.94 692.82 513.6 690.54 514.74 689.79 514.83 686.99 515.83 685.67 517.46 683.82 519.37 682.98 520 682.2 521.64 681.23 521.74 677.19 524.62 676.43 525.01 674.48 525.05 671.96 525.89 671.14 526.51 668.26 527.57 665.96 526.32 665.19 526.55 661.09 526.38 659.03 525.91 657.48 524.97 655.84 524.23 653.77 523.82 651.2 522.64 649.79 522.48 647.17 523.02 644.52 521.77 643.26 521.82 642.76 522.45 643.29 525.83 642.91 529.86 644.09 533.8 642.68 535.51 642.82 537.11 643.51 538.46 642.95 539.28 642.64 540.5 642.56 544.97 639.04 546.67 635.86 547.81 634.82 549.46 633.66 550.57 634.84 551.69 634.83 552.81 635.37 553.76 636.28 554.14 636.57 555.62 638.18 557.58 637.22 559.32 638.08 561.53 639.79 565.25 641.41 570.95 641.27 574.39 640.53 574.89 641.78 577.65 643.19 578.75 642.89 579.36 643.53 580.37 643.65 581.63 644.07 581.98 643.18 582.7 641.48 585.32 641.08 587.08 642.12 589.84 642.66 592.68 643.06 593.25 642.96 594.64 643.23 596.04 643.78 597.15 645.04 598.84 647.56 600.61 646.29 602.69 645.9 604.06 647.63 606.84 648.76 607.67 649.1 609.36 649.92 610.98 650.41 613.38 651.03 614.71 652.61 616.22 652.97 617.87 653.62 619.16 655.07 621.29 656.48 622.59 657.96 623.73 659.71 626.6 662.73 628.8 664.32 629.59 663.47 631.98 664.25 634.24 665.87 636.75 666.29 638.8 666.84 639.31 668.21 638.36 670.79 636.81 671.51 635.1 672.94 633.89 674.98 632.57 677.75 632.21 679.23 632.18 680 632.39 680.74 632.23 681.42 631.05 685.69 626.35 685.98 625.25 686.79 623.86 688.58 621.69 690.06 621.36 692 622.32 694.07 622.36 695.34 621.94 696.47 622.07 696.68 622.77 698.84 624.47 700.05 624.99 701.89 626.61 702.77 626.47 704.52 625.46 705.19 624.56 705.92 624.47 707.49 625.13 707.98 624.8 710.13 625.62 710.62 626.12 711.34 628.54 711.99 628.26 712.68 628.88 714.38 628.87 716.64 629.96 718.11 629.76 718.59 631.28 719.8 631.44 720.5 632.43 719.78 634.33 720.03 634.68 721.38 635.02 722.46 635.64 722.38 637.24 722.89 637.65 724.29 636.62 726.54 636.38 726.85 635.25 727.84 634.5 729.03 635.2 730.53 635.43 731.22 634.55 733.09 635.39 734.53 635.62 734.65 636.05 735.84 637.7 737.66 638.39 740.36 638.34 742.78 639.19 743.44 639.03 744.21 638.28 744.26 637.54 744.79 636.45 745.65 635.78 746 634.71 747.37 633.76 750.04 632.58 751.01 631.65 751.71 631.77 753.17 629.89 754.66 628.66 756.51 628.39 756.91 628.07 758.88 629.6 758.89 631.32 760.54 631.18 761.45 633.32 762.76 634.17 763.89 634.74 765.81 636.16 767.87 637.95 767.48 639.54 767.78 640.6 768.63 641.42 770.31 642.29 770.41 643.46 771.35 645.14 772.14 648.04 772.05 649.32 772.68 651.39 772.32 652.77 774.51 653.78 777.55 656.61 779.21 657.63 778.52 659.57 778.28 660.65 776.1 664.95 776.23 671.99 776.15 673.04 776.41 674.52 777.83 676.84 778.39 681.58 778.12 682.59 780.39 684.61 783.15 687.94 784.89 691.27 782.94 693.79 782.45 696.68 786.08 698.71 788.22 701.35 788.35 702.25 789.59 704.88 789.57 705.38 790.9 706.11 792.65 706.01 795.43 705.7 796.14 705.35 799 704.67 798.66 705.88 798.36 708.28 798.61 708.9 798.57 711.29 797.65 714.17 797.05 715.42 796.83 717.02 798.18 720 798.18 720.19 797.02 721.89 795.87 725.23 794.12 727.75 792.77 728.98 791.07 731.91 788.47 734 787.81 734.21 787.19 735.14 785.81 735.87 785.86 736.3 782.56 738.94 782.44 740.4 781.11 742.88 781.15 743.56 781.82 746.61 780.45 748.57 779.92 749.51 778.59 750.11 778.71 752.48 779.7 753.17 781.51 753.46 781.44 755.53 779.67 758.01 778.12 758.51 777.22 759.4 773.2 760.17 774.34 763.31 774.61 765.11 774.03 767.41 773.56 768.07 773.68 769.14 774.94 771.63 776.27 773.27 776.73 774.16 776.41 775.09 775.72 775.98 775.19 777.05 774.31 778.04 774 778.99 775.54 780.77 776.01 780.94 775.07 783.56 774.13 785.35 774.08 786.57 774.38 786.98 774.82 788.27 774.58 789.41 775.46 790.88 775 791.06 774.42 792.27 774.68 793.82 773.3 794.88 772.92 797.28 771.37 797.66 770.44 797.64 769.62 796.96 768.36 796.54 767.45 797.13 765.45 799.3 764.01 800.52 762.8 802.7 761.65 802.91 761.23 802.66 760.21 803.15 757.2 802.88 755.35 802.5 754.65 802.22 751.25 801.82 749.44 800.95 749.02 800.2 747.99 799.88 746.42 799.77 745.88 800.23 744.31 800.81 743.34 801.69 742.51 801.86 741.15 802.69 741.02 803.61 738.98 804.96 738.58 806.78 740.29 809.06 741.32 811.6 740.09 815.03 740.05 817.75 736.64 820.02 736.55 821.7 736.35 821.96 734.06 823.88 730.5 825.9 730.34 828.71 730.7 829.15 731.13 830.45 731.71 834.72 731.65 838.43 731.84 839.34 731.55 840.58 731.81 841.79 732.53 842.72 732.01 843.49 731.8 844.58 731.29 845.22 730.6 846.6 729.77 847.81 728.68 848.42 728.55 848.89 727.33 849.77 726.73 851.54 727.81 853.24 728.66 853.77 729.51 855.08 729.77 856.37 730.24 857.16 730.9 857.33 731.22 857.84 732.3 858.87 732.37 859.31 734.19 860.26 734.93 861.55 736.41 862.91 736.61 863.97 737.74 864.85 738.26 866.18 739.38 867.51 740.08 868 740.58 868.72 742 868.17 742.68 869.24 743.35 869.53 743.75 870.23 744.31 870.48 744.42 872.58 744.7 874.02 745.54 875.2 746.24 875.89 746.6 876.71 746.48 877.61 745.09 878.79 745.21 879.23 744.67 879.59 744.93 880.51 744.53 881.29 744.81 882.16 745.42 882.74 745.77 883.5 745.26 884.33 744.98 885.26 745.02 888.68 744.79 890.32 744.89 891.57 744.28 892.9 744.42 894.96 744.99 895.6 745.49 897.14 744.72 898.14 744.37 900.55 745.48 903.48 745.4 904.45 745.88 905.09 746.11 906.29 745.34 908 745.13 909.17 744.16 912.34 744.36 913.94 743.49 915.5 742.65 916.43 742.56 917.82 742.89 918.55 744.17 919.45 745.74 921.3 746.34 922.49 746.82 923.95 747.72 925.01 752.44 927 752.86 926.78 754.76 927.6 755.14 928.46 754.67 931.53 754.43 932.4 753.54 933.39 752.39 934 751.69 934.91 751.19 936.41 749.13 938.51 749.19 939.98 748.81 941.16 748.99 941.74 748.12 943.23 747.09 944.29 745.84 946.21 744.04 945.8 743.45 945.27 741.01 944.46 738.91 945.49 736.4 948.24 735.55 948.91 734.26 950.88 733.96 952.42 733.35 953.76 732.47 954.58 731.64 954.98 729.38 955.77 727.95 956.8 727.39 956.93 726.32 956.18 725.96 956.14 723.16 957.6 721.22 957.77 720.78 957.61 720.18 960.82 718.94 961.72 717.86 962.35 717.22 963.14 715.75 963.88 714.53 965.04 714.27 965.54 712.19 966 711.63 966.45 710.68 966.83 707.92 968.65 707.1 968.79 706.43 969.21 704.84 969.11 704.49 969.64 704.53 971.63 703.96 972.52 703.45 972.95 702.53 974.23 702.43 975.21 701.22 977.58 701.21 979.25 700.06 980.33 699.7 984.1 699.96 985.38 697.18 986.37 695.66 986.07 694.3 987.18 692.89 986.98 691.94 986.4 690.91 986.07 689.31 985.97 687.34 986.3 686.17 985.01 685.24 984.85 682.25 983 681.2 982.26 680.68 981.53 680.38 980.07 679.87 979.21 679.9 977.89 679.58 975.78 678.4 975.06 677.69 974.25 677.27 970.47 676.07 969.03 675.99 966.5 673.98 964.8 673.24 962.95 672.31 962.88 670.99 961.67 669.85 961.54 668.52 959.39 668.34 958.7 668.68 957.12 667.96 956.09 667.55 954.7 666.94 953.71 665.72 952.55 665.53 951.99 664.01 951.49 662.11 951.41 661.37 950.83 660.28 950.68 659.37 951.01 658.71 950.18 657.07 949.2 655.98 948.86 654.86 947.57 651.65 948.83 651.8 949.36 651.85 951.1 652.7 953.32 653.1 953.75 652.68 957.75 650.81 960.89 650.61 961.55 650.78 963.5 650.34 965.53 650.48 966.08 649.63 968.38 648.36 969.67 647.68 971.37 648.11 972.49 647 974.19 644.8 975.85 643.92 976.85 642.86 976.75 641.18 977.38 637.88 982.05 637.35 983.09 637.29 983.92 636.9 984.79 636.87 985.77 637.4 987.19 637.07 989.19 635.04 992.45 634.87 993.26 633.5 992.54 632.58 992.42 629.7 991.33 628.59 991.78 626.81 993.52 624.74 994.54 623.67 995.54 623.13 995.37 622.69 995.91 621.52 996.18 620.51 996.79 619.71 998 616.54 997.92 615.13 997.55 613.99 997.54 612.14 998.5 609.66 998.25 607.78 998.59 606.78 1000.18 606.72 1000.87 605.7 1001.76 604.77 1004.61 603.82 1006.33 602.74 1006.95 602.72 1007.66 602.22 1008.27 602.18 1009.39 601.64 1010.53 600.13 1010.23 598.71 1010.47 597.92 1012.02 595.7 1014.27 595.48 1015.12 594.03 1016.47 593.39 1016.48 592.49 1016.87 590.99 1017.8 590.25 1018.1 589.59 1018.65 587.92 1018.96 587.07 1019.73 586.18 1019.55 585.62 1020.23 583.8 1020.77 583 1022.6 582.96 1023.79 582.5 1025.7 582.76 1027.32 582.13 1028.69 581.63 1029.35 581.41 1030.22 581.66 1031.75 581.29 1032.17 580.96 1034.01 579.05 1036.69 580.09 1037.71 580.79 1038 582.77 1039.2 584.42 1040.81 583.8 1043.18 582.71 1046.21 581.78 1046.48 579.44 1048.38 576.8 1049.37 575.13 1050.22 574.28 1050.86 573.11 1051.21 570.84 1051.04 569.68 1051.32 567.96 1052.04 567.46 1051.81 565.44 1051.82 564.63 1052.97 563.25 1054.41 560.62 1056.26 559.19 1057.01 558.63 1058.09 557.65 1059.58 556.46 1060.29 555.49 1060.39 552 1059.79 549.21 1059.01 546.54 1058.08 544.47 1058.35 542.85 1058.14 541.67 1058.2 539.38 1057.45 538.25 1056.66 537.07 1056.04 535.09 1051.3 533.9 1049.88 532.51 1048.57 530.56 1047.48 529.07 1046.8 527.69 1046.4 524.38 1047.65 523.72 1048.59 520.88 1050.19 518.49 1051.14 516.22 1051.88 515.48 1052.57 513.85 1050.26 513.43 1049.22 512.23 1047.93 511.62 1047.55 511.71 1046.63 511.5 1045.37 510.14 1044.97 507.6 1041.38 507.01 1039.96 506.19 1039 505.65 1037.28 504.92 1036.09 503.52 1034.87 502.71 1033.31 501.77 1032.4 500.82 1032.89 499.42 1033.1 499.17 1032.39 498.16 1030.66 496.17 1028.36 495.61 1026.43 494.28 1023.65 494.33 1021.41 492.99 1017.27 493.65 1016.91 494.25 1016.07 494.43 1014.88 495.11 1014.59 495.35 1013.97 495.05 1012.53 495.13 1011.22 494.44 1010.24 494.14 1009.41 494.15 1008.56 493.58 1007.92 493.33 1007.11 493.57 1005.78 493.26 1004.82 492.25 1003.66 492.35 1002.16 491.49 1001.13 490.46 1000.3 489.92 998.37 489.49 997.47 488.34 995.88 487.33 995.68 486.13 994.44 485.97 993.32 485.43 992.99 485.36 991.99 484.5 990.88 483.39 990.89 482.67 989.96 481.31 989.05 481.48 987.92 481.25 987.02 480.85 984.04 480.04 983.11 479.1 982.61 478.3 981.63 476.83 981.08 476.2 980.67 475.58 980.68 474.88 979.64 474.48 979.48 472.63 979.92 471.68 980.38 471.06 980.42 468.81 981.97 468.27 982.21 468.35 983.05 470.18 983.29 470.5 984.36 470.18 984.51 467.95 987.61 466.25 988.24 465.87 988.86 464.65 988.63 463.94 988.27 462.69 986.95 462.41 986.34 460.21 986.52 458.59 987.02 456.06 986.63 454.34 987.86 453.2 988.45 451.63 988.88 450.85 988.48 448.62 989.44 448.09 989.9 447.42 992.21 445.99 994.86 444.84 995.73 444.41 996.99 441.52 996.6 440.5 995.96 439.76 996.29 439.05 996.18 438.63 995.78 436.11 996.52 436.04 997.42 434.56 998.76 433.07 1000.72 431.62 1001.61 430.11 1001.62 429.32 1002.33 428.8 1004.55 427.02 1005.38 426.91 1006.23 426.58 1006.63 426.64 1007.77 427.54 1007.92 427.89 1008.23 427.74 1009.3 427.36 1010.46 427.51 1011.29 427 1012.65 426.8 1013.64 426.21 1014.17 426.44 1016 426.14 1017.49 426.37 1018.19 424.78 1018.78 424.71 1020.73 423.61 1023.11 422.77 1024.06 422.34 1025.75 422.49 1026.82 422.05 1027.9 420.51 1028.02 419.97 1029.38 419.49 1029.76 419.53 1032.03 419.75 1032.83 419.33 1033.22 419.81 1035.4 419.59 1037.07 418.03 1037.82 417.49 1037.31 416.45 1037.21 416.06 1038.13 415.19 1038.68 414.92 1039.54 413.84 1040.35 413.1 1039.93 412.7 1040.12 412.11 1040.94 410.8 1041.6 410.3 1042.38 409.35 1043.08 408.41 1043.29 406.88 1043.93 406.04 1045.35 405.95 1046.19 406.54 1046.9 406.63 1047.78 406.41 1048.74 406.52 1049.77 406.18 1050.32 403.43 1050.34 401.25 1050.96 399.6 1051.53 398.03 1054.63 396.93 1056.64 396.66 1057.47 395.86 1057.43 395.13 1058.75 394.68 1060.21 394.83 1061.89 394.44 1062.73 393.93 1064.53 393.11 1065.73 392.56 1066.19 391.87 1066.16 390.84 1067.07 390.03 1067.34 389 1068.17 388.05 1070.39 386.46 1070.36 385.94 1070.7 385.17 1070.55 383.57 1070.61 383.43 1070.43 381.99 1071 380.84 1071.09 378.8 1071.05 378.45 1071.93 377.17 1073.53 376.39 1073.42 375.65 1072.89 374.66 1073.03 372.58 1073.73 372.31 1074.35 371.7 1074.72 371.4 1075.47 370.25 1076.02 369.77 1076.55 368.46 1077.24 367.57 1078.37 365.46 1078.83 365.15 1079.56 364.62 1080.01 364.48 1080.57 363.62 1081.41 362.2 1083.08 362.28 1083.58 361.07 1084.44 360.52 1085.99 359.92 1086.76 359.55 1087.79 359.13 1087.99 357.89 1089.28 356.65 1089.38 355.98 1089.93 354.98 1090 352.43 1089.33 350.6 1089.07 349.36 1088.78 347.51 1086.47 346.66 1085.97 345.65 1085.06 344.58 1083.51 343.2 1083.43 340.13 1082.84 338.57 1082.23 337.35 1080.12 335.91 1079.19 335.13 1078.99 334.21 1077.53 332.08 1075.11 330.59 1071.38 327.87 1070.9 325.34 1069.84 324.11 1068.37 323.15 1067.44 321.53 1065.08 319.81 1063.33 318.41 1061.11 317.33 1058.84 315.98 1056.6 312.91 1056.62 313.21 1055.61 312.31 1055.01 311.74 1052.66 311.04 1051.21 310.75 1051.26 308.34 1049.29 307.27 1048.62 306.14 1047.24 306.35 1046.11 307.12 1045.23 307.29 1044.07 307.68 1042.88 308.02 1042.5 307.56 1041.5 308.15 1039.51 307.74 1038.83 307.25 1035 307.67 1033.77 307.5 1032.55 306.04 1031.34 303.95 1028.31 303.99 1027.24 303.01 1025.87 301.7 1025.37 299.44 1025.34 297.77 1024.56 296.06 1023.51 293.69 1020.1 293.53 1018.88 291.47 1018.56 290.97 1017.89 289.5 1017.31 288.72 1016.85 288.83 1015.1 289.14 1014.6 289.58 1013.19 290.91 1011.2 291.54 1010.48 291.56 1009.8 291.95 1009.35 291.89 1008.3 293.05 1006.03 290.82 1003.18 290.8 1002.09 290.5 1000.77 289.76 998.56 289.21 998.02 289.4 997.21 288.95 996.09 288.05 995.1 288.22 993.53 287.68 991.9 287.42 990.38 287.61 989.75 289.11 987.95 288.95 986.98 289.13 984.5 288.23 983.67 288.55 981.75 288.44 980.08 288.68 979.19 288.68 978.18 289.31 976.73 290.13 975.5 290.83 973.98 291.46 973.12 292.76 971.87 293.77 970.62 295.09 969.93 295.91 969.34 295.45 967.19 295.41 966.45 296.28 965.05 296.63 964.02 296.42 962.26 295.4 959.7 295.41 956.56 296.22 953.29 294.31 953.61 292.73 953.63 291.66 952.36 288.4 950.96 286.4 951.56 283.93 949.41 281.19 949.43 280.34 947.86 280.39 946.36 279.93 945.6 280.29 944.86 279.5 942.98 279.06 942.56 278.88 941.7 276.34 938.81 276.47 936.5 276.25 935.01 275.79 934.1 274.87 933.87 273.86 934 271.92 934.02 271.25 934.37 269.68 934.71 267.57 934.73 266.53 934.54 263.88 934.46 262.61 933.62 260.04 934.1 259.18 934.17 258.39 935.37 257.99 936.61 255.29 937.66 254.3 937.72 252.27 938.87 250.81 938.43 247.57 938.56 246.72 937.92 246.57 937.32 245.56 936.09 243.6 936.41 242.26 936.29 240.76 935.99 239.36 936.37 236.85 936.6 234.65 936.51 234.06 935.15 234.29 934.27 234.04 932.41 233.16 931.13 232.54 930.61 231.42 928.75 231.04 930 230.26 931.93 229.67 932.86 228.87 933.67 228.14 934.09 226.79 934.54 223.96 934.96 221.94 934.41 219.5 934.06 218.31 933.2 216.2 932.41 214.06 931.45 212.11 931.74 211.01 931.58 209.38 931.55 207.39 930.45 205.48 929.2 204.6 928.2 203.18 927.45 201.47 927.09 199.37 927.12 197.18 926.23 195.82 925.87 193.92 926 192.78 927.49 191.68 928.49 189.55 929.88 188.81 930.12 188.39 930.57 187.37 930.83 186.54 930.67 184.5 931.19 184.26 931.52 183.01 931.5 182.19 931.99 181.5 931.94 180.8 932.25 180.01 931.42 179.15 931.31 177.24 930.41 176.53 930.62 176.04 930.45 174.59 930.45 173.34 929.87 172.94 929.97 172.05 929.58 171.44 928.38 170.69 927.93 169.65 926.87 168.53 926.63 167.55 926.87 165.85 926.29 164.28 925.61 162.99 924.73 161.31 923.97 159.87 923.68 159 923.3 158.32 922.35 157.41 921.45 155.27 920.19 154.13 919.24 153.4 917.96 152.85 915.79 150.85 913.99 148.7 913.22 147.56 912.2 146.37 911.76 145.27 911.03 143.6 910.42 141.88 910.26 139.92 910.27 138.18 909.18 136.9 908.83 135.58 907.86 134.16 907.09 132.72 907.05 131.64 906.57 130.44 905.69 129.61 904.43 128.61 903.23 127.68 902.85 126 901.44 125.54 899.5 124.27 898.56 123.29 897.19 122.58 896.61 120.89 896.45 120.11 895.3 118.66 893.72 117.97 893.73 116.17 894.24 115.37 894.07 114.53 894.37 114.06 893.79 113.53 891.49 112.55 890.19 111.14 888.04 110.08 886.22 109.49 885.68 106.5 885.59 106.07 885.42 105.23 885.63 104.08 885.36 103.14 884.72 102.21 883.28 102.28 882.3 101.33 881.31 100.29 879.25 99.5 878.58 99.21 877.49 98.29 876.7 96.11 876.47 94.55 875.76 93.96 874.96 93.84 874.37 93.25 873.43 93.47 872.98 93.48 871.89 93.89 870.95 92.49 869.42 92.3 868.74 92.25 867.25 91.78 866.84 90.94 865.38 90.7 864.04 90.08 863.48 89.88 862.82 90.07 862.05 89.79 859.76 88.92 858.88 88.18 859.07 87.04 858.12 86.47 858.06 86.21 855.82 86.58 854.69 86.09 853.76 85.48 851.98 85.77 850.42 84.82 850.03 83.7 848.31 82.86 847.96 81.75 847.22 80.29 844.43 79.72 843.62 77.19 844.15 75.42 843.08 73.73 841.69 72.61 842.95 70.43 843.4 68.36 844.16 66.96 844.38 63.85 845.58 62.61 846.12 61.92 846.96 59.27 847.45 58.91 847.18 57.13 849.31 56.47 850.42 55.48 851.64 55.09 853.89 53.91 855.47 49.52 855.52 47.83 856.34 44.02 854.79 42.18 855.21 41.09 855.08 39.51 855.58 37.66 857.56 36.77 857.64 36.08 856.85 34.64 854.45 33.23 853.06 31.14 851.81 30.45 850.85 29.77 850.86 28.49 850.28 27.57 850.33 24.86 848.96 25.47 845.91 21.42 843.69 19.33 842.87 17.04 837.42 16.06 836.37 15.68 830.45 10.3 827.42 5.65 822.62 1 820.71 2.78 818.94 4.69 817.79 5.06 815.98 5.88 815.43 7.07 813.91 7.17 811.03 8.45 809.93 10.5 807.97 9.85 805.48 11.25 803.77 10.32 799.29 10.45 795.46 9.51 794.17 8.17 793.27 7.95 792.51 8.56 790.91 9.9 788.12 11.07 787.21 11.6 786.22 10.7 782.98 11.35 777.29 11.11 776.94 9.74 775.92 8.6 774.05 8.1 772.63 6.86 770.82 6.95 769 7.59 767.68 8.01 767.38 9.7 765.06 10.33 764.73 10.3 762.93 10.08 760.88 9.48 760.3 12.2 759.63 16.09 760.74 16.44 760.24 19.58 757.56 21.28 756.45 23.46 756.87 26.09 756.8 28.64 757.78 29.88 757.37 30.59 756.65 31.86 756.38 33.26 755.69 34.2 753.99 35.66 752.34 38.88 747.61 41.05 748.02 43.64 746.02 46.97 746.59 50.03 745.94 53.77 746.04 56.56 745.52 58.14 744 58.33 743.51 58.07 741.35 58.93 740.9 60.31 739.87 61.67 738.05 62.12 735.45 63.32 727.53 62.73 725.23 63.64 724.73 65.55 724.47 67.25 724.02 67.53 723.57 68.9 723.33 69.62 722.86 70.67 720.98 70.13 719.47 69.85 718.14 70.83 716.97 71.76 716.62 72.42 715.99 73.17 714.66 76.81 712.17 77.52 711.34 78.51 712.26 79.35 712.58 81.72 712.17 82.79 711.85 85.17 710.64 86.99 709.43 89.41 707.42 92.66 704.53 93.88 703.58 95.65 702.41 97.73 700.91 98.94 700.56 100.52 700.39 103.54 701.01 105.41 703.25 107.27 702.07 108.36 702.47 110.52 703.87 112.11 704.16 114.09 706.05 114.69 706.87 114.71 707.56 115.1 708 116.04 709.62 117.1 709.62 119.69 710.27 122.39 709.95 123.41 710 125.01 706.69 124.79 705.59 125.09 704.14 125.56 702.72 125.09 702.11 124.96 700.64 124.44 700.07 123.15 697.8 122.79 696.7 123.16 695.27 123.01 693.51 123.3 692.8 121.97 690.64 121.5 689.05 121.84 687.81 121.42 686.96 121.22 685.83 118.65 682.96 118.02 682.64 117.25 681.42 117.35 680.89 117.07 679.91 117.62 678.88 117.38 677.54 118.1 676.36 118.71 675.82 118.83 674.95 119.16 674.67 120.24 673.09 120.85 671.87 120.75 669.64 119.83 668.57 119.57 667.48 119.6 666.2 119.13 664.18 119.18 663.6 120.76 662.96 121.11 661.71 121.6 661.51 122.28 660.65 122.17 658.32 122.49 658.12 123.73 654.86 123.59 654.17 123.11 653.5 122.63 651.95 123.52 649.34 124.43 649.48 125.33 649.26 125.86 649.71 127.88 650.26 129.86 649.8 131.79 649.82 133.69 650.19 134.73 649.82 135.68 650.15 135.73 651.18 135.29 652.13 136.95 654.8 137.2 656 138.5 657.04 138.91 657.73 140.37 658.5 140.79 659.23 142.57 660.81 143.45 662.15 144.33 662.52 145.53 663.43 147.12 663.41 148.55 664 149.37 665.15 150.69 666.32 151.44 667.79 152.3 668.98 152.58 671.1 152.77 671.4 152.81 673.63 154.14 674.2 154.52 674.05 155.68 675.3 156.51 675.37 157.35 676 159.12 676.36 159.46 676.76 160.78 677.01 162.12 676.85 163.81 675.39 164.51 675.28 165.1 675.49 166.41 676.36 167.51 677.36 167.62 678.16 169.22 679.81 169.93 681.13 169.93 681.83 171.88 682.42 173.39 683.41 173.96 684.38 176.72 684.35 177.46 683.33 179.39 682.98 180.27 682.39 186.89 682.41 188.69 681.25 189.16 680.63 189.77 680.46 191.69 678.41 193 675.71 196.2 674.05 197.66 672.24 198.67 671.36 199.64 671.23 200.39 670.77 201.07 669.11 202.41 667.73 201.77 663.69 200.88 662.16 201.28 659.72 200.86 659.41 200.8 658.24 201.15 657.39 202.1 656.89 203.93 655.25 205.17 653.68 205.43 652.48 206.46 650.07 208.1 648.27 208.69 647.78 208.46 646.28 206.35 643.09 205.74 640.8 205.22 639.96 203.94 638.74 203.37 637.73 203.09 636.58 203.72 635.48 202.21 632.23 202.58 629.53 202.26 627.81 202.58 627.21 202.29 625.8 202.91 624.59 203.42 620.12 204.35 619.11 203.5 618.13 203.22 617.07 203.56 616 202.46 612.16 202.69 610.81 201.39 608.3 200.42 607.17 200.77 605.03 200.51 603.4 199.56 602.05 199.57 601.66 198.35 600.41 197.48 599.96 196.92 600.05 194.68 598.89 192.92 598.42 191.7 597.14 190.1 597.15 189.68 596.41 187.78 595.81 187.02 595.32 184.84 594.41 183.94 593.45 183.26 592.32 183.05 591.21 181.42 589.93 180.81 589.84 179.24 587.69 178.96 586.61 176.7 583.51 175.76 580.84 175.72 580.01 173.53 577.44 174.38 576.79 172.77 573.23 171.67 571.61 170.57 570.98 169.06 568.41 168.98 567.04 168.6 565.93 167.47 565.42 166.59 565.45 165.98 564.99 165.21 563.5 164.33 563.31 164.09 562.83 164.22 561.15 162.82 557.38 163.9 555.38 164.98 551.79 165.28 548.85 165.83 547.25 166.41 547.07 167.55 547.6 169.45 547.02 171.11 546.84 173.53 546.8 176.58 547.36 177.91 546.13 180.47 544.66 182.42 543.81 181.97 538.3 184.69 535.23 187.72 532.92 187.42 527.35 186.31 525.71 186.45 522.59 186.33 520.89 184.99 519.03 182.36 512.65 180.34 511.49 180.33 508.62 178.79 505.39 177.23 503.73 177.5 502.14 177.32 501.38 177.39 499.13 178.1 496.83 178.53 494.84 179.93 493.1 177.74 492.82 175.24 492.1 172.92 492.16 170.19 491.17 169.67 488.63 168.61 486.05 168.39 482.93 167.52 481.47 166.53 480.98 163.57 478.85 162.29 477.28 161.5 477 161.72 476.31 162.81 473.85 163.57 472.41 164.97 470.68 164.98 468.41 164.02 465.58 164.43 461.63 164.24 459.88 163.3 456.71 161.94 454.75 159.53 453.66 159.17 452.49 159.07 451.09 159.92 449.61 161.11 448.93 162.2 447.72 163.09 446.3 164.22 444.81 164.79 442.91 165.59 440.96 166.95 439.73 169.02 436.68 169.64 436.02 170.91 435.19 172.64 434.88 174.64 431.3 174.82 429.11 174.79 427.4 174.21 423.65 175.04 421.82 175.12 420.99 174.61 418.79 173.99 418.01 174.18 412.73 174.96 408.72 175.33 407.88 178.2 405.85 180.32 405.36 181.95 404.32 184.04 403.72 184.56 402.98 184.89 401.7 184.78 398.53 184.23 396.14 184.25 392.97 186.34 390.1 186.79 389.2 186.34 388.24 184.75 386.78 182.57 385.33 179.27 382.12 178.46 381.47 177.31 376.25 176.99 375.34 178.25 374.9 178.99 373.65 180.9 372.58 181.22 370.92 182.34 368.55 184.21 368.23 185.45 366.8 186.39 365.44 187.34 363.11 187.21 361.61 187.45 360.53 188.46 359.49 188.91 358.31 191.7 357.68 193.22 357.88 194.67 356.69 195.45 355.54 196.6 354.19 197.95 354.08 200.3 350.89 200.33 348.2 201.33 347.87 202.04 346.82 202.71 346.24 203.46 344.73 203.39 343.97 204.74 343.25 205.04 342.75 205.4 341.15 205.76 340.44 205.68 339.27 207.21 338 207.58 337.25 208.54 336.73 209.88 335.11 209.89 333.84 209.52 332.37 209.1 331.4 207.48 330.08 206.31 328.42 205.08 327.95 203.53 326.2 203.35 325.58 203.44 324.04 202.9 322.42 203.23 321.09 203.18 319.68 202.63 318.35 202.61 317.13 203.03 316.38 202.55 313.29 204.01 312.33 205.3 311.93 205.42 311.07 206.13 309.6 206.3 308.35 206.09 307.97 205.87 306.1 205.92 305.06 206.54 303.86 207.36 301.79 207.17 299.85 207.17 298.42 208.27 297.64 208.71 296.92 209.58 296.21 210.92 295.45 211.99 293.8 212.29 292.22 214.18 289.95 214.46 288.97 214.56 287.86 214.26 286.94 213.7 286.02 213.43 283.29 214.31 282.41 215.92 281.93 217.42 280.43 219.71 279.43 220.16 278.55 221.31 277.55 222.22 277.8 223.91 277.5 225.41 277.7 227.48 277.09 230.56 276.55 230.92 275.36 231.84 274.27 232.22 272.25 232.87 271.82 233.89 270.76 234.61 270.81 235.75 270.04 236.61 269.05 238.68 268.55 240.65 267.8 241.19 267.28 243.54 266.68 244.77 265.47 245.23 264.2 245 263.77 245.27 262.62 245.88 261.32 246.47 258.59 246.8 258.1 247.73 257.86 248.87 257.81 249.42 257.03 251.67 255.57 252.77 254.68 253.85 254.09 254.74 253.97 257.18 254.17 257.96 253.56 259.22 253.32 259.97 252.35 260.69 250.83 260.77 249.7 261.05 249.34 262.46 249.65 263.33 249.16 264.32 247.09 265.32 244.59 267.11 243.66 267.59 242.85 266.68 241.15 265.58 240.2 265.68 238.84 265.5 238.44 265.66 236.54 264.8 233.69 265.36 232.09 265.6 231.94 265.98 229.84 266.87 229.78 267.62 229.23 268.17 228.55 269.2 227.74 269.72 226.87 270.74 225.73 270.63 224.82 271.22 224.4 271.66 222.85 272.27 222.16 272.13 221.21 272.44 220.17 272.39 219.45 272.6 218.19 273.49 217.91 274.07 217.15 274.33 216.33 275.04 215.95 276 214.55 277.03 214.26 278.61 211.78 278.62 209.99 279.02 208.59 279.6 208.21 280.59 208 281.13 208.19 282.41 207.88 282.8 206.99 284 205.98 283.04 204.24 282.03 201.84 281.62 201.38 281.5 199.93 280.05 197.37 279.67 196.18 279.88 195.17 279.74 194.36 279.24 193.15 277.68 191.96 277.91 190.43 277.82 189.67 278.26 187.84 278.04 186.86 277.63 186.36 277.62 185.5 278.76 183.71 279.46 182.98 279.76 181.82 279.94 180.12 279.54 178.78 280.27 177.68 280.37 177 281.45 174.29 281.48 173.41 281.99 171.57 281.85 171.15 280.62 170.05 280.49 169.1 279.97 168.48 278.96 167.78 278.54 167.71 276.67 166.63 276.62 164.03 276.74 161.71 277.08 161.04 277.4 159.66 278.38 158.93 278.04 158.19 278.26 157.38 277.8 156.56 277.84 155.4 277.56 154.69 277.8 152.8 277.02 152.23 277.16 150.92 277.08 149.99 277.34 148.97 277.95 147.73 279.06 147.44 279.35 147.15 279.34 145.53 280.29 143.77 280.62 141.39 279.05 140.15 278.87 139.33 278.2 138.96 276.21 138.18 274.71 135.74 274.43 135.76 273.53 133.86 272.75 133.41 271.96 132.29 270.75 131.77 269.46 131.67 268.8 132.3 267.46 132.01 264.85 129.08 263.49 127.9 263.01 126.77 263.08 125.21 262.36 122.52 261.61 121.16 260.63 120.09 259.74 117.99 258.24 117.5 256.9 116.04 256.62 116.3 254.31 117.37 254.3 118.22 253.76 118.96 252.05 120.44 251.63 122.55 251.23 122.96 249.83 123.16 249 123.04 248.07 122.6 246.53 120.51 245.84 121.44 244.83 122.22 244.14 123 243.66 123.91 242.59 124.67 241.81 125.41 240.81 124.97 240.09 124.03 238.65 125.15 237.17 125.76 236.48 125.74 235.73 125.24 234.68 125.05 233.09 124.17 231.72 124.11 230.58 124.58 229.21 123.98 226.8 123.6 225.42 122.31 224.45 122.22 223.8 121.43 222.26 120.57 220.09 119.89 217.74 118.46 216.77 118.14 215.98 118.68 213.03 119.77 212.49 120.53 211.61 121.13 210.32 122.29 209.36 122.74 207.75 122.79 205.81 122.05 204.21 121.05 202.87 121.83 202 121.88 200.44 120.91 199.02 121.22 198.42 121.02 197.44 120.23 195.69 120.13 194.73 119.88 193.75 120.61 193.31 121.44 192.23 121.66 191.51 122.83 190.88 123.3 189.44 123.82 188.29 124.45 186.59 126.8 185.33 127.17 184.21 127.93 183.58 128.79 182.2 130.2 180.71 130.93 180.22 131.78 178.2 133.67 175.55 133.97 174.18 135.3 172.84 135.92 171.32 137.66 170.2 138.52 169.41 138.8 167.97 140.01 164.83 144.25 164.13 144.46 163.64 144.99 161.83 145.36 161.36 145.69 160.72 143.98 159.4 142.76 158.05 140.46 156.9 139.26 157.32 138.9 160.46 134.68 163.2 132.04 165.28 128.62 167.42 125.63 169.96 123.42 173.03 122.19 177.64 118.78 180.29 116.75 182.28 115.36 186.46 111.53 193.13 105.97 198.01 103.02 198.96 103.05 201.16 105.47 203.44 108.58 205.51 109.43 211.2 110.89 213.58 111.21 216.99 111.03 223.05 108.79 224.2 108.24 224.99 108.28 227.06 109.39 228.54 109.46 230.05 108.75 233.43 106.78 236.04 104.61 237.95 100.42 240.38 93.89 241.04 92.45 242.58 90.89 243.63 90.66 246.56 91.78 247.48 92.22 249.25 92.64 250.98 92.45 251.6 91.91 252.04 90.48 252.27 88.58 253.34 87.4 254.55 87.21 255.83 87.97 256.76 88.92 257.65 90.07 258.74 91.02 259.98 91.36 260.82 91.08 261.36 89.38 261.43 85.43 262.01 82.84 262.77 81.61 264.8 80.46 266.13 78.91 268.18 73.86 270.21 70.5 273.42 66.7 285.9 49.84 286.84 49.88 289.57 52.03 292.93 53.74 297.97 55.64 299.75 56.54 300.52 55.9 302.68 50.9 304.56 47.91 307.08 45.17 309.18 42.65 310.08 40.27 310.87 33.25 316.25 32.5 319.53 30.9 324.86 29.05 330.16 28.41 333.25 28.87 333.96 29.6 334.89 32.03 336.7 36.37 338.19 38.26 339.76 38.52 341.31 38.02 342.85 35.02 343.8 30.74 344.46 29.98 344.45 29.5 346.45 26 348.73 14.58 351.49 9.65 353.81 7.63 357.35 5.55 359.87 3.13 361.14 1 361.23 2.06 362.18 2.97 362.24 3.91 362.93 4.35 363.69 4.17 365.2 4.49 367.1 4.45 367.61 4.04 369.28 3.99 369.91 3.78 371.08 4.65 372.26 5.21 372.14 7 372.45 7.29 372.15 8.77 372.74 9.88 372.05 10.93 371.41 12.44 368.73 12.79 367.83 13.58 367.09 14.95 366.51 15.28 366.81 16.71 367.17 17.17 366.49 19.71 366.09 20.1 365.89 21.06 366.33 22.26 366.22 22.92 366.58 23.17 366.65 23.9 367.36 25.63 367.85 25.89 368.26 26.67 369.19 27.66 369.3 28.2 370.9 30.03 371.41 31.42 372.74 33.38 374.85 32.31 376.64 30.03 376.98 29.08 377.81 27.5 379.43 26.06 380.04 25.92 380.86 26.98 381.93 27.86 382.46 27.72 385.34 28.55 386.23 29.47 387.3 30.08 388.8 30.41 392.07 32.96 392.71 33.16 393.34 34.96 394.8 36.11 395.37 36.03 397.12 35.08 398.17 35.08 400.13 33.63 402.39 32.88 403.19 32.87 403.87 32.57 404.47 32.8 407.16 31.65 408.31 32.2 411.8 28.28 412.32 26.98 413.11 26.58 414.66 25.12 416.46 25.48 419.39 26.7 422.68 24.36 423.66 24.91 424.38 24.7 425.88 25.55 426.93 27.47 427.7 28.54 428.01 29.53 428.02 30.84 429.32 31.91 429.95 33.67 429.53 34.47 429.82 36.02 429.13 37.07 428.87 38.52 430.02 39.52 430.49 40.55 429.83 42.47 430.56 45.21 429.92 46.76 428.83 47.66 428.57 48.42 429.2 51.89 428.63 53.61 427.51 53.94 427.02 55.28 427.02 56.95 426.13 59.08 425.58 61.6 425.48 62.85 424.89 62.98 424.45 63.98 424.6 64.67 423.99 65.37 422.63 65.88 422.29 66.81 422.35 67.4 422.08 68.42 421.32 69.48 421.02 70.52 420.05 71.41 419.02 71.92 419.1 73.11 419.85 75.84 421.49 77.63 423.7 79.07 423.73 80.34 424 81.16 424.59 81.8 424.26 83.01 423.51 84.24 423.67 85.3 424.54 88.15 424.89 88.73 424.71 89.39 424.39 93.44 427.76 97.87 428.25 99.37 428.83 99.41 431.16 100.21 433.13 102.16 433.98 102.07 435.85 100.34 437.47 97.83 439.05 97.7 439.78 97.82 440.47 97.41 441.96 97.23 444.89 94.33 445.43 93.45 446.38 93.74 449.62 93.89 451.72 93.7 453.37 93.15 453.93 93.87 454.74 94.33 455.24 94.9 456.61 95.51 457.34 96.93 458.95 97.9 459.22 98.4 460.07 98.06 462.39 98.87 463.74 98.79 464.7 99.84 465.5 100.23 466.21 99.76 467.64 101.25 468.4 101.44 468.97 102.59 470.05 103.75 471.47 104.69 473.44 105.11 475.67 104.89 476.5 105.18 478.55 104.93 479.6 105.02 480.19 105.4 483.62 105.62 485.58 105.55 488.3 107.71 490.21 110.57 489.68 110.9 488.6 112.35 488.48 113.48 488.79 114.6 488.48 117.55 487.88 118.42 487.1 121.01 486.81 123.78 485.62 126.49 485.25 127.66 485.25 128.59 486.85 129.96 487.4 130.85 487.47 132.15 487.95 134.57 488.86 135.59 489.19 136.44 489.58 138.12 490.02 139.03 490.14 140.35 489.91 141.35 489.99 142.26 491.44 144.65 491.74 145.83 493.56 148.49 494.23 149.28 494.19 152.6 493.44 154.19 493.88 154.6 493.98 156.9 494.44 158.85 495.16 159.91 495.05 162.88 495.43 163.89 496.43 164.68 497.57 165.06 498.82 165.11 500.14 165.73 501.9 166.19 503.4 167.55 503.45 169.36 503.26 170.92 503.67 171.89 504.42 172.99 504.54 174.78 505.04 177.09 505.13 179.55 504.97 181.54 505 183.14 504.78 184.03 505.14 185.12 504.39 187.08 503.89 187.83 502.91 188.37 501.94 189.6 501.29 191.2 501.31 194.7 502.11 197.97 501.9 198.72 502.49 200.18 502.44 203.15 503.16 205.52 502.38 209.73 500.86 215.09 500.57 216.63 500.4 218.69 500.55 220.43 500.88 221.31 500.22 224.13 501.46 229.32 502.5 232 503.54 232.07 505.49 231.22 506.94 231.11 508.58 231.22 510.08 231.5 510.93 231.22 512.87 231.15 514.79 231.59 517.41 232.94 520.64 232.98 522.05 233.5 522.82 235.39 523.73 236.16 524.82 235.88 527.32 236.82 529.1 237.18 530.02 236.67 530.98 235.84 531.96 235.46 533.79 234.04 534.64 232.6 536.83 233.51 538.19 233.24 540.7 233.38 542.17 233.06 542.93 232.59 544.85 231.73 546.38 231.38 549.03 231.67 553.34 231.23 554.68 230.51 556.81 230.26 559.16 232.13 562.02 231.87 561.7 232.46 561.85 233.79 561.23 235.83 562.16 237.87 562.69 240.62 562.86 240.98 563.37 244.65 564.97 246.52 566.04 247.95 567.19 250.58 568.22 251.31 568.45 251.9 568.32 252.66 568.5 253.86 568.05 254.21 567.99 255.18 568.36 256.7 569 257.78 569.36 259.76 569.99 261.14 571.39 264.65 572.03 266.9 572.23 271.86 571.93 273.78 570.89 275.7 571.16 276.34 572.39 276.75 573.87 278.52 573.98 280.14 574.5 281.91 574.58 283.13 575.59 284.84 575.86 286.01 575.93 287.17 576.48 287.92 577.19 287.99 577.98 287.71 578.35 287.03 579.87 285.53 580.35 284.76 580.72 283.51 579.72 282.97 579.26 281.6 579.14 279.34 579.63 277.58 581.06 275.64 581.64 275.02 583.91 273.87 585.37 273.86 586.5 274.81 586.91 274.93 588.18 274.26 588.17 273.26 589.44 272.5 590.2 270.91 590.87 270.02 591.53 269.7 592.12 269.88 593.04 272.41 593.68 272.69 594.91 271.67 595.08 270.93 596.08 268.92 600.44 268.7 600.59 268.22 600.36 266.33 600.77 266.19 601.79 266.83 603.07 266.39 604.85 264.69 605.71 264.49 605.8 266.35 606.31 267.12 607.4 267.79 609.1 267.75 609.55 267.91 610.31 270.17 611.66 271.03 612.44 272.21 612.87 274.08 613.56 275.71 613.63 277.44 614.58 280.28 615.37 280.89 618.37 280.68 619.25 280.28 620.37 279.33 621.54 278.68 622.42 277.53 623.3 276.88 625.53 275.83 626.14 275.41 627.7 275.03 628.26 274.57 628.94 274.46 629.56 273.59 630.58 271.65 631.74 270.55 632.64 270.39 633.23 270.6 633.77 270.23 633.29 269.45 632.31 269.05 632.16 268.67 632.85 267.48 634.28 267.94 635.15 267.47 635.16 266.08 635.81 264.79 636.13 264.51 637.2 264.36 638.54 263.63 638.58 262.95 640.28 262.29 641.37 259.45 642.89 257.51 643.46 256.57 644.57 255.5 645.09 255.32 645.5 254.24 647.34 253.18 648.68 251.47 648.97 252.07 650.5 252.29 651.58 252.05 652.53 252.19 654.26 253.23 655.67 253.02 657.19 253.14 659.73 254.01 660.63 256 661.19 256.64 661.4 257.5 661.89 258.35 663.89 259.56 664.67 261.51 664.51 262.05 666.96 264.42 668.69 267.21 668.96 268.25 670.96 271.53 671.41 273.07 672.12 274.08 673.58 274.2 675.51 275.56 677.08 276.09 679.25 276.44 682.22 276.09 681.03 278.77 680.58 280.1 680.01 282.94 680.07 287.5 680.47 289.02 679.39 292.7 678.87 296.85 679.58 297.58 680.65 298.1 681.5 299.07 683.39 302.03 683.82 304.09 683.64 305.68 684 306.5 683.76 309.37 684.28 310.63 683.79 311.62 683.95 312.42 683.3 314.47 683.04 314.69 681.93 317.07 681.6 319.01 681.42 320.96 680.96 322.44 680.96 323.37 680.69 324.86 680.17 326.31 680.08 327.38 680.72 329.13 681.05 330.84 681.67 332.6 681.74 333.75 682.51 335.44 682.31 336.6 683.36 338.01 683.53 338.54 683.6 340.38 684.31 340.8 684.82 341.73 684.64 342.69 685.34 344.85 687.18 346.8 Z" id="32590000"/>
</g>
</svg>