<?xml version="1.0"?>
<svg xmlns="http://www.w3.org/2000/svg" version="1.2" baseProfile="tiny" width="800" height="1191" viewBox="0 0 800 1191" stroke-linecap="round" stroke-linejoin="round">
<g id="sigung">
<path d="M 781.74 996.95 782.32 997.6 782.5 998.94 781.52 999.21 780.56 998.31 780.28 997.36 781.74 996.95 Z M 787.4 996.11 787.39 996.94 788.66 997.69 787.82 999.51 786.46 1000.97 784.66 1000.96 784.03 999.03 784.26 997.96 785.9 997.17 786.15 996.07 787.4 996.11 Z M 727.79 930.48 728.58 930.61 728.8 932.38 728.55 932.97 727 932.52 727.5 931.71 726.95 931.03 727.79 930.48 Z M 735.98 907.92 736.91 907.87 737.36 909.41 738.41 910.03 737.8 910.83 735.15 909.92 734.63 909.08 735.98 907.92 Z M 723.5 888.75 724.86 889.05 725.69 889.78 724.28 890.28 723.18 889.62 723.5 888.75 Z M 719.7 886.29 720.75 887.19 721.81 886.69 721.93 887.64 720.28 887.58 718.65 886.75 719.7 886.29 Z M 708.33 835.47 707.58 835.8 706.74 835.12 707.4 833.86 708.38 834.76 708.33 835.47 Z M 717.03 833.65 717.52 834.49 717.01 835.62 716.04 835.1 716.21 833.57 717.03 833.65 Z M 706.23 821.73 705.06 821.8 704.8 820.24 705.45 819.65 706.37 821.26 706.23 821.73 Z M 682.71 816.19 683.89 816.54 684.42 817.18 683.92 817.87 681.99 816.95 682.71 816.19 Z M 676.21 813.73 676.76 813.78 676.89 814.99 675.98 814.85 676.21 813.73 Z M 680.54 769.69 681.33 770.34 681.29 771.08 682.06 772 683.8 772.59 684.52 773.48 686.22 774.2 687.04 775.05 686.71 776.02 686.9 777.08 686.05 777.33 685.01 777.06 684.62 776.4 682.98 777.03 678.84 774.58 677.04 772.98 677.19 771.04 678.28 769.78 679.84 768.83 680.54 769.69 Z M 531.37 456.77 531.22 453.77 532.33 452.88 532.48 454.42 531.86 456.39 531.37 456.77 Z M 478.26 351.69 478.31 352.52 477.44 354.74 477.65 355.42 478.77 356.1 478.65 357.04 476.05 357.48 474.86 357.44 474.51 356.34 474.75 353.84 475.27 353.58 476.61 351.99 478.26 351.69 Z M 428.89 283.8 429.91 284.9 428.82 286.22 427.52 286.97 426.15 286.44 427.77 284.32 428.89 283.8 Z M 398.5 148.44 395.57 148.74 395.37 147.84 396.4 145.49 396.52 144.24 397.44 142.83 397.9 143.05 398.01 144.61 399.03 147.14 398.5 148.44 Z M 307.15 52.82 305 49.21 305.57 49.2 307.02 51.2 307.15 52.82 Z M 285.97 9.3 286.55 10.06 286.27 11.12 285.57 10.91 284.84 9.56 285.97 9.3 Z M 799 1064.64 798.95 1068.74 798.02 1070.42 797.14 1070.24 795.57 1069.14 793.86 1069.45 793.15 1072.42 790.29 1072.94 788.97 1073.88 788.3 1076.34 786.65 1077.62 786.69 1078.97 787.08 1079.97 786.28 1081.66 784.81 1082.98 783.79 1083.14 782.85 1084.06 779.65 1086.14 778.87 1087.88 777.62 1088.42 775.99 1090.18 774.89 1090.3 774.33 1090.92 771.84 1091.58 770.57 1090.69 769.42 1091.26 766.99 1091.63 763.98 1092.94 763.67 1094.11 762.54 1095.02 760.64 1095.26 758.5 1094.26 755.64 1094.41 753.94 1093.62 751.81 1094.08 750.23 1093.48 747.13 1093.01 745.6 1093.72 743.98 1094.97 743.45 1096.19 741.88 1096.27 741.08 1097.05 740.29 1097.16 738.25 1096.55 737.37 1096.87 736.68 1098.18 736.62 1099.27 734.82 1100.99 734.69 1101.43 732.38 1102.26 730.95 1101.22 729.3 1102.09 728.02 1103.08 724.67 1102.64 724.37 1101.81 723.47 1102.18 722.41 1101.67 720.63 1102.72 718.51 1103.6 717.71 1102.95 715.37 1104.11 714.5 1105.05 712.81 1105.38 712.08 1106.16 711.22 1105.79 709.4 1105.91 708.05 1104.37 706.02 1104.44 703.97 1103.89 702.83 1103.34 700.65 1103.37 697.11 1104.55 696.16 1103.9 695.12 1103.92 692.09 1106.76 689.63 1108.02 686.57 1108.41 685.41 1109.75 683.76 1111.09 683.2 1112.44 679.8 1114.66 680.04 1116.34 679.72 1117.67 676.87 1121.31 675.59 1121.78 673.56 1123.46 670.69 1124.68 670.24 1125.34 666.98 1128.09 664.97 1128.93 661.59 1131.74 657.41 1132.52 654.69 1131.82 651.3 1132.83 648.78 1133.97 645.76 1134.13 643.43 1131.71 642.29 1132.41 640.05 1132.56 639.34 1133.07 637.77 1135.34 636.19 1137.16 634.78 1137.78 631.93 1140.46 627.82 1142.71 625.1 1143.11 621.71 1143.87 615.88 1144.69 614.3 1146.47 611.1 1147.72 610.85 1149.4 609.96 1150.41 610.04 1151.73 609.13 1153.32 609.34 1156.4 608.3 1157.68 608.03 1159.75 605.7 1160.87 603.16 1164.08 602.66 1165.31 601.58 1165.83 600.4 1164.88 598.2 1164.57 596.68 1165.76 595.62 1166.18 594.93 1167.8 593.89 1169 592.97 1169.33 592.91 1170.34 591.74 1171.05 591.93 1172.44 590.52 1173.76 589.64 1175.76 589.69 1176.93 588.84 1177.35 587.89 1180.16 586.51 1181.94 583.76 1183.74 583.66 1185.08 582.35 1186.5 581.04 1186.99 579.3 1188.09 577.72 1187.83 576.28 1188.46 575.19 1187.96 574.17 1188.75 572.82 1188.64 571.75 1190 571 1189.68 568.87 1189.75 567.77 1188.43 564.91 1187.5 563.03 1185.79 560.9 1180.11 562.66 1174.83 560.88 1173.62 557.36 1172.37 554.77 1169.59 546.92 1165.14 542.25 1161.58 539.25 1158.93 536.03 1162.29 534.59 1161.73 532.48 1163.26 530.42 1163.76 529.2 1162.94 527.72 1163.15 524.42 1161.49 519.53 1162.25 517.65 1161.08 515.34 1160.44 513.87 1161.01 512.38 1160.75 511.69 1159.59 506.89 1158.34 503.7 1156.45 500.11 1154.1 496.74 1150.61 493.33 1146.82 489.62 1145.81 485.31 1145.48 482.57 1142.59 481.53 1139.38 481.79 1137.97 481.04 1136.58 479.98 1135.95 479.87 1133.22 479.62 1132.44 478.07 1130.35 478.37 1128.62 477.22 1126.11 477.12 1124.4 476.2 1121.79 475.7 1119.26 474.76 1116.66 474.89 1115.06 475.66 1112.92 476.06 1110.71 476.06 1109.33 476.75 1107.12 477.01 1104.23 477.5 1101.34 479.15 1097.81 479.53 1097.48 480.51 1094.45 480.27 1093.25 480.99 1091.79 480.23 1089.92 480.59 1085.66 480.04 1084.44 480.32 1082.08 479.67 1079.02 476.87 1074.63 475.6 1073.19 474.01 1072.41 472.95 1071.32 473.73 1065.16 475.34 1059.71 474.74 1057.45 474.66 1050.68 475.51 1046.46 476.16 1044.49 477.94 1040.51 473.52 1041.03 470.31 1040.51 467.97 1039.72 465.1 1037.69 462.93 1037.52 461.88 1036.03 461.21 1033.73 458.25 1028.87 457.84 1027.33 455.26 1023.19 451.62 1019.66 451.87 1018.87 450.7 1015.96 447.74 1014.17 447.01 1012.91 446.69 1011.63 445.86 1010.67 444.53 1007.72 440.76 1006.43 438.49 1006.25 436.41 1006.57 433.83 1005.02 432.42 1004.81 430.82 1005.17 428.54 1004.84 428.12 1003.96 426.12 1006.49 423.39 1008.06 422.78 1009.68 422 1009.94 420.36 1011.53 419.52 1012.92 417.26 1015.8 415.64 1020.02 413.11 1020.99 413.05 1022 411.05 1023.09 409.48 1023.32 408.99 1023.72 408.03 1025.64 408.02 1027.71 406.73 1028.4 404.6 1027.73 403.58 1029.49 403.8 1030.06 405.26 1030.65 405.96 1031.8 405.17 1032.35 404.29 1032.05 402.95 1032.28 401.23 1033.91 399.72 1036.79 398.79 1038.08 397.79 1038.26 396.95 1038.93 394.64 1039.5 393.72 1040.12 390.42 1041.68 389.11 1042.64 387.79 1044.35 386.06 1045.32 384.4 1046.72 383.09 1047.33 378.64 1047.63 377.47 1046.73 376.06 1042.52 375.94 1039.94 374.93 1037.53 374.28 1034.75 373.13 1033 371.12 1031.72 369.98 1028.37 369.33 1028.12 366.79 1028.18 365.17 1027.18 364.42 1026.05 364.28 1023.29 363.02 1023.59 360.37 1026.1 358.46 1026.76 356.94 1025.81 356.34 1026.01 356.69 1028.82 356.46 1029.54 349.98 1029.87 348.5 1032.84 348.25 1033.95 346.41 1035.46 345.47 1035.04 344.09 1031.29 343.23 1031.02 342.24 1031.49 341.25 1032.82 340.12 1035.17 338.23 1036.3 338.25 1037.79 336.37 1038.78 335.75 1038.61 334.07 1037.19 331.9 1037.21 328.53 1038.91 327.67 1039.84 325.55 1042.72 324.82 1045.34 325 1048.69 325.69 1050.72 327.16 1051.52 326.62 1053.38 325.91 1054.52 323.65 1056.75 323.09 1057.76 321.93 1058.17 320.87 1058.07 320.06 1056.96 319.95 1055.23 319.54 1053.5 318.05 1050.95 317.93 1049.15 317.15 1046.52 316.99 1044.11 314.8 1041.48 312.96 1040.88 312.57 1039.92 314.12 1037.08 314.55 1034.22 314.26 1026.86 313.3 1023.52 311.23 1018.3 310.29 1016.26 309.76 1013.33 308.8 1011.73 308.26 1009.46 308.35 1008.02 309.02 1007.5 308.75 1005.72 308.94 1004.58 308.6 1003.71 307.07 1002.64 305.36 998.72 303.78 996.6 301.4 993.82 300.63 988.38 300.38 987.84 299.6 983.76 298.21 980.73 299.14 977.7 298.92 975.72 299.4 974.86 295.15 975.24 291.65 972.46 288.49 972.83 286.5 973.91 280.09 974.55 276.16 974.13 273.88 974.64 271.04 975.93 269.9 976.62 267.72 977.09 263.99 976.89 261.98 977.28 258.72 975.94 257.45 978.08 254.74 980.18 253.28 980.75 251.86 981.98 250.48 982.74 247.84 982.2 244.14 980.81 242.52 981.22 241.17 980.09 240.02 977.27 237.93 976.5 233.12 976.44 229.24 974.44 226.37 973.79 223.49 973.89 222.23 974.3 220 973.88 217.57 973.73 215.43 973.89 212.52 975.15 210.98 975.05 209.43 971.07 207.59 963.37 208.58 959.18 208.08 957.87 207.86 955.29 208.12 952.23 208.55 949.94 210.8 941.98 211.95 935.74 210.89 932.22 210.96 927.81 210.09 925.64 210.41 924.53 209.22 919.66 209.19 914.47 210.15 912.1 211.59 910.26 213.05 909.47 213.78 908.35 214.9 905.45 214.36 903.83 214.69 902.51 214.64 900.13 214.88 897.18 214.75 893.52 214.01 890.09 213.84 887.43 212.71 885.81 212.11 884.37 212.39 882.05 212.32 879.37 210.09 877.34 207.47 876.66 205.51 875.74 203.65 875.66 201.97 875.1 200.48 873.92 199.91 872.42 200.07 868.02 199.01 866.44 198.33 863.55 198.17 860.13 197.52 859.52 198.64 857.16 198.7 852.23 197.7 851.06 194.99 847.11 194.55 845.35 192.39 841.82 192.28 840.46 192.62 838.98 192.44 837.02 191.79 835.66 191.21 833.16 190.72 831.9 189.37 830.39 188.66 826.8 188.55 824.87 187.73 823.54 185.36 821.52 185.35 820.14 185.91 818.39 187.68 814.37 188.1 810.26 189.26 806.41 190.16 805.13 190.61 800.75 190.16 799.09 190.33 797.41 191.93 795.25 192.72 794.76 189.88 790.51 185.84 787.31 182.94 787.42 177.84 787.08 176.96 786.52 175.4 786.39 172.36 786.77 171.13 786.33 167.81 786.66 164.89 786.03 162.77 784.63 161.18 782.92 160.33 781.21 159.2 780.92 157.07 778.71 156.02 779.41 154.84 778.83 153.4 777.27 151.4 777.39 147.95 776.19 146.69 776.7 146.3 775.95 143.9 774.51 142.81 772.4 140.78 771.49 140.04 770.65 138.83 769.96 138 768.9 135.55 769.71 132.43 770 127.61 769.78 126.21 769.34 125.4 770.66 121.05 774.96 118.83 775.22 117.81 775.83 116.73 775.66 114.38 775.85 111.98 779.58 109.2 782.14 107.94 782.28 105.01 779.39 101.55 778.19 100.69 778.13 99.96 775.91 94.96 769.33 95.43 763.31 95.69 762.34 95.18 761.48 93.89 757.25 93.65 755.67 94.76 753.85 95.25 752.05 94.37 751.1 93.98 749.89 93.93 747.99 90.65 745.85 88.21 743.19 87.09 739.15 86.98 737.37 88.51 736.62 89.95 735.3 90.39 733.75 91.53 732.17 91.92 730.67 91.83 729.8 92.34 728.42 94.35 727.65 95.27 726.61 95.04 725.59 95.7 724.11 96.58 723.91 96.73 722.06 97.54 718.32 98.86 715.15 98.85 712.67 99.59 710.68 101.26 710.2 102.1 707.64 101.16 702.48 101.55 701.36 103.17 700.02 104.12 697.73 103.03 693.66 104.02 690.8 103.32 689.27 101.6 687.79 101.99 685.63 103.03 684.07 102.58 681.77 103.22 680.59 102.27 677.97 100.35 676.38 100.33 674.43 99.87 672.97 98.72 671.38 97.17 668.54 94.94 667.27 93.86 667.59 92.41 666.77 87.53 670.23 83.17 668.43 80.5 667.89 78.19 670.07 77.02 670.65 76.25 672.59 71.06 678.41 69.36 677.59 65.37 679.3 64.47 678.95 63.46 679.4 62.28 679.41 58.91 680.54 56.01 682.69 54.44 682.68 51.85 684.09 51 684.21 48.84 682.5 47.9 679.83 46.94 679.53 42.09 675.75 39.86 675.26 38.27 674.35 36.95 672.99 32.67 671.76 31.88 671.96 30.3 670.66 29.08 669.08 28.17 669.3 25.76 671.42 24.54 673.77 24.02 675.18 21.36 678.57 18.23 680.17 16.26 677.25 15.5 675.18 13.12 672.47 12.97 671.66 11.58 670.2 10.96 669.04 10.24 668.65 9.18 666.09 9.08 665 8.55 664.63 8.71 663.65 8.05 661.87 8.35 660.44 8.95 659.86 9.96 656.08 9.43 655.41 8.97 653.29 9.84 652.8 10.93 650.76 12.28 649.59 16.25 649.07 17.21 646.83 18.24 645.27 17.36 643.61 17.8 641.42 17.34 640.99 17.51 638.34 15.77 637.5 14.03 636.21 13.09 636.53 10.61 636.6 9.86 637.2 7.04 637.27 4.79 636.79 3.66 637.06 2.64 636.4 2.55 635.01 1.14 633.66 1 632.08 2.51 629.54 4.14 625.21 5.21 620.34 7.48 611.85 10.5 606.78 15.15 601.45 19.46 598.07 22.18 597.54 32.8 597.08 36.15 596.54 38.47 595.08 39.58 592.32 39.85 590.44 40.42 589.57 43.56 586.84 44.31 585.34 43.89 583.63 39.97 576.23 39.29 574.48 39.21 573.63 37.87 572.16 38.56 571.63 39.41 570.22 39.34 569.02 40.69 567.53 40.39 566.85 42.02 564.62 43.32 561.86 43.32 560.58 44.98 559.87 47.15 559.94 49.19 558.67 52.51 556.16 53.38 555.17 56.28 552.96 57.15 551.93 58.27 551.51 62.88 548.67 62.82 548.4 65.01 547 65.32 546.17 64.93 545.41 66.47 543.9 67.15 543.61 67.26 542.32 68.51 541.66 68.99 541.94 71.27 541.97 71.7 541.11 72.97 540.75 74.89 540.8 75.82 541.48 79.68 539.21 81.98 537.15 82.13 536.13 84.51 534.33 84.96 533.15 86.05 532.88 86.89 531.9 87.16 530.91 88.14 529.6 96.3 517.57 99.39 514.58 105.71 509.93 105.82 510.78 106.55 511.14 108.19 511 109.88 510.46 110.9 509.47 114.41 508.22 115.27 506.78 115.39 504.7 118.13 503.17 119.4 502.16 121.12 501.83 121.83 501.13 125.39 500.2 126.08 498.72 125.34 498.04 125.6 497.16 124.49 496.59 124.44 495.96 125.45 493.77 127.13 492.97 127.42 491.8 128.55 490.91 130.94 482.81 130.12 480.95 130.06 478.59 130.54 476.49 129.87 475.39 130.26 473.86 131.18 471.99 132.15 469 132.21 467.82 133.05 466.06 133.26 463.61 133.62 462.48 137.25 461.71 137.06 459.77 137.41 457.91 137.64 455.21 138.56 454.44 139.14 455.62 139.96 454.05 140.55 453.73 143.6 450.95 143.51 449.8 141.4 447.81 143.39 444.2 143.7 443.2 145.75 441.55 146.53 441.2 146.71 440.13 147.92 439.54 148.36 438.35 149.31 437.86 150.58 433.81 151.12 432.69 151.46 430.15 157.97 402.03 158.44 400.57 159.86 398.46 161.28 396.91 162.58 393.81 163.47 390.66 164.43 388.52 167.34 385.7 168.48 385.05 172.06 382.63 173.68 380.99 174.97 380.75 174.22 377.71 162.94 359.61 163.76 359.49 165.02 358.34 163.44 357.8 163.11 356.69 163.42 355.77 162.33 355.37 162.03 354.72 163.54 352.95 162.33 350.95 162.93 349.38 164.49 346.83 163.24 346.55 162.43 347.07 163.13 343.73 164.54 340.66 165.02 340.65 165.81 338.72 167.64 335.45 169.32 330.63 170.01 330.18 170.47 328.62 170.39 327.59 171.06 325.81 172.02 324.97 168.88 313.58 169.64 313.45 170.99 312.5 171.19 311.58 170.52 310.2 171.32 308.73 175.37 304.81 177.91 302.72 180.95 298.9 183.66 293.92 187.86 286.01 188.39 281.39 187.28 271.96 187.21 268.36 187.55 266.01 188.68 260.75 188.85 257.7 188.61 255.89 187.19 252.37 186.72 248.51 185.47 248.48 185.51 247.85 186.48 247.4 184.47 238.02 183.82 232.88 183.62 227.64 182.79 221.57 181.35 216.75 181.59 211.43 183.49 198.34 183.94 191.28 184.17 172.33 183.89 171.44 183.86 169.58 184.52 169.27 184.94 167.62 184.55 166.82 184.69 165.19 184.08 165.27 183.71 164.15 183.58 161.81 184 161.57 183.93 158.65 184.34 157.67 183.87 156.34 184.29 154.17 183.71 153.31 183.79 150.56 182.92 148.96 183.73 148.56 183.95 146.44 184.39 144.92 183.62 144.51 183.44 135.87 183.09 134.6 183.98 134.58 183.6 132.62 183.01 131.38 183.79 130.22 183.3 129.78 183.19 124.51 184.98 123.89 185.74 123.29 186.51 121.98 187.55 118.72 188.33 118.7 188.38 115.65 188.78 115.19 189.15 111.3 188.34 106.48 185.82 97.44 186.01 95.95 184.92 94.76 183.12 94.25 183.46 92.48 184.19 91.01 183.75 89.91 184.92 86.42 185.5 86.23 186.79 84.78 187.68 83.38 186.44 81.61 186.33 80.47 185.69 78.35 183.26 76.01 181.94 75.61 180.83 74.8 180.25 76.23 179.46 76.31 179.35 73.55 177.66 71.51 178.41 69.72 178.68 68.46 177.32 66.79 177.18 65.75 177.54 64.84 176.94 63.95 177.08 63.27 176.61 61.12 176.21 60.94 176.5 58.9 177.63 57.07 178.5 56.94 181.76 58.77 181.72 57.04 182.8 57.37 184.64 58.41 186.21 58.25 189.35 58.67 191.51 58.04 195.1 54.75 195.3 54.08 197.93 51.56 202.16 48.26 205.11 47.49 210.75 44.63 216.35 43.26 217.73 41.9 219.56 39.6 225.93 36.1 230.43 34.75 233.32 34.69 236.76 35.27 236.25 33.55 235.55 32.98 236.01 32.21 236.5 29.76 237.4 29.9 237.19 30.9 237.92 31.99 239.16 32.31 239.44 28.53 241.9 22.62 246.1 14.63 248.14 11.39 253.15 8.23 256.96 7.21 263.79 6.67 269.23 6.7 271.87 5.74 271.45 4.63 273.03 3.86 273.95 3.89 274.69 2.95 278.49 1.08 279.51 1 280.61 1.6 281.69 3.98 282.49 4.73 282.71 5.98 284.33 8.12 284.65 10.42 285.23 10.78 285.7 13.39 286.46 14.3 287.2 15.88 285.7 16.74 287.86 20.65 288.54 21.48 288.84 22.74 287.33 24.83 287.17 25.57 288.99 27.79 291.77 28.81 292.21 29.71 292.94 29.46 293.41 30.24 294.99 28.96 295.34 29.76 295 30.63 295.69 31.69 296.49 31.37 298.45 31.31 299.62 32.26 299.96 34.77 299.17 36.68 300.08 39.11 301.83 41.99 302.12 43.04 302.01 44.22 303.24 45.88 305.1 47.57 304.04 48.02 306.88 53.49 305.72 54.55 305.73 55.12 307.77 57.22 309.31 57.44 312.18 62.4 314.01 65.1 315.39 65.43 315.58 66.31 319.02 70.1 318.63 70.41 321.21 71.57 324.12 73.58 325.45 74.85 326.19 75.02 327.17 76.57 329.05 81.41 331.08 85.69 334.06 89.76 335.92 90.46 338.25 93.41 338.44 94.31 340.19 96.51 343.54 100.42 344.09 101.7 345.45 102.73 346.11 103.61 346.29 104.58 347.24 105.67 348.17 106.19 349.48 106.4 350.75 107.8 353.38 111.65 356.87 114.52 359.5 115.45 361.16 115.23 361.98 113.91 363 112.86 364.03 114.07 364.12 114.8 362.92 116.38 362.91 117.39 363.69 118.9 363.68 119.88 364.24 121.04 364.34 123.94 363.43 124.35 362.61 125.31 364.29 126.33 365.99 127.83 367.01 127.98 368.16 129.41 368.61 130.69 369.97 132.34 373.16 134.55 376.79 135.39 377.37 134.76 378.85 136.05 379.93 135.34 381.15 135.84 380.64 133.38 381.14 132.34 381.98 132.31 383.25 134.25 383.63 135.82 383.37 137.32 383.81 139.57 384.32 144.52 384.17 146.45 384.45 148.37 385.04 150.13 385.71 151.11 386.78 151.82 388.46 152.35 389.89 152.11 390.7 150.45 391.29 150.62 390.92 152.53 389.03 154.2 388.51 153.74 387.47 154.15 386.34 155.94 386.11 157.48 386.52 157.94 386.99 159.7 386.94 160.59 387.43 162.71 388.47 163.38 390.25 163.61 392.06 164.09 394.3 163.88 395.55 162.72 396.32 160.69 398.72 160.05 399.95 160.3 400.73 161.05 401.22 162.77 401.06 163.96 399.14 167.06 398.63 168.92 398.84 170.29 399.86 170.87 401.38 172.25 399.82 174.16 399.11 174.71 398.24 176.42 396.94 176.16 396.43 175.11 395.43 174.72 394.17 174.86 393.53 175.93 394.02 177.65 394.11 179.06 394.5 179.69 397.43 181.91 398.18 182.32 398.87 183.97 399.45 183.94 400.56 184.92 399.57 185.96 397.51 184.88 396.14 185.18 396.03 186.61 395.52 188.22 394.23 189.6 391.41 189.94 389.89 191.11 388.61 191.34 387.4 193.06 388.24 193 389.47 193.47 390.02 194.95 390.7 200.31 392.88 202.96 393.38 205.25 394.73 206.33 395.32 207.31 398.19 209.11 400.29 211.31 401.27 213.53 403.02 216.75 403.23 217.92 404.93 219.49 405.18 221.58 404.16 222.55 403.59 223.67 403.64 224.86 404.43 229.26 404.05 230.2 406.11 232.14 407.14 231.95 407.97 232.29 409.1 233.6 409.31 234.63 410.96 235.61 412.57 235.66 414.54 234.69 415.35 235.02 415.36 236.84 415.01 241.44 415.35 243.95 416.4 245.2 416.98 248.59 417.6 249.53 419.56 251.44 420.2 251.23 423.27 251.59 424.7 252.35 426.85 251.84 428.72 250.99 430.39 251.94 431.08 253.08 430.04 253.51 428.79 254.68 429.08 257.07 429.45 258.29 428.8 260.03 426.24 260.06 424.72 260.5 423.09 259.72 422.21 258.72 421.02 258.86 418.86 259.86 416.63 263.02 417.35 264.45 419.8 265.51 421.04 266.58 420.29 269.49 421.15 274.3 422.83 275.97 423.66 276.32 424.43 277.73 421.99 279.12 420.23 279.33 419.34 280.84 419.21 282.36 419.56 284.16 420.35 285.5 421.83 286.99 425.16 288.02 425.26 289.31 424.2 290.65 423.42 292.27 423.56 294.15 424.19 295.35 425.18 299.05 426.05 299.36 426.37 300.5 427.31 300.64 428.71 302.74 432.12 304.78 432.58 305.47 434.5 305.91 437.7 306.43 440.69 305.79 442.19 305.17 444.47 305.51 445.08 306.35 443.86 306.97 442.91 308.36 443.58 315.38 443.35 315.27 442.89 310.11 438.55 310.52 437.84 312.87 434 313.17 433.23 316.5 434.72 318.58 437.3 319.02 437.28 320.14 437.69 321.52 438.45 322.75 440 324.13 444.77 327.03 444.91 328.25 444.46 329.6 444.55 331.35 443.49 332.88 442.93 335.16 444.02 338.98 445.96 342.87 447.7 344.75 451.25 349.02 454.85 352.16 456.56 353.18 458.52 353.5 459.69 352.56 460.63 352.36 462.03 351.57 463.55 351.53 464.52 352.04 465.28 353.97 464.13 354.89 465.94 358.5 466.02 359.74 465.06 361.86 463.83 363.23 464.21 365.79 462.51 368.06 462.4 369.83 463.79 373.41 466.53 381.35 469.05 384.52 470.62 385.82 472.77 387.97 475.38 388.21 477.16 388.01 479.15 390.4 480.71 391.09 484.04 393.1 484.64 393.95 487.44 394.6 489.96 397.17 489.43 398.61 490.68 401.4 491.63 402.03 490.98 403.92 489.41 404.21 488.94 405.88 490.72 409.25 490.84 409.84 492.16 411.03 494.08 412.12 496.17 415.2 496.67 417.36 499.63 419.56 502.84 421.1 503.14 422.69 502.63 423.57 503.48 425.43 503.37 425.95 505.14 427.04 508.08 429.76 509.97 432.11 511.86 433.74 512.91 434.87 514 435.04 514.12 436.35 513.84 439.04 515.04 440.57 515.42 441.87 516.44 442.67 517.91 442.86 520.34 444.01 521.45 445.13 523.16 445.99 525.1 447.77 525.14 450.84 525.45 451.75 528.82 455.49 527.97 458.2 525.73 460.85 523.98 461.18 523.55 463.53 517.29 468.7 514.58 471.03 512.17 475.26 511.94 474.49 514.09 470.82 516.06 469.11 515.57 468.55 520.87 464.01 516.84 459.02 513.36 459.59 511.28 461.32 510.98 460.96 506.73 464.65 505.23 466.38 503.63 468.97 502.77 469.26 502.18 471.87 502.79 472.65 503.53 472.74 510.05 472.62 510.05 473 503.98 473.02 502.59 475.48 501.63 478.34 501.51 482.06 501.69 484.66 502.4 489.49 500.98 489.56 502.12 491.85 503.12 495.01 504.14 497.69 504.08 499.01 504.95 502.64 505.63 503.71 507.01 507.37 511.13 515.72 512.42 517.73 514.39 520.26 514.85 522.35 517.33 526.71 518.86 526.27 520.76 529.11 521.37 530.3 520.87 532.21 522.23 535.55 523.91 538.95 523.86 539.33 525.02 541.4 527.31 544.9 528.94 547.89 532.82 553.68 534.22 556.1 539.05 563.75 540.19 566.34 541.98 568.35 543.96 571.01 544.58 571.53 546.44 573.93 549.23 577.81 549.83 578.97 551.13 580.61 551.49 581.82 550.65 582.15 551.57 583.26 552.57 586.33 552.6 589.25 553.81 592.89 557.03 590.69 559.94 592.64 561.1 593.57 562.39 595.28 563.51 594.83 564.04 595.55 565.39 598.21 566.85 599.98 568.06 601.12 570.79 604.55 572.14 606.76 573.49 608.46 575.11 610.12 577.89 614.04 581.36 618 583.4 620.74 585.18 622.92 586.87 625.58 588.62 627.5 590.76 629.45 592.38 632.1 594.14 634.3 595.05 635.15 598.04 638.61 600.41 642.1 603.34 645.31 605.65 648 607.94 651.21 611.32 655.02 613 657.62 615.63 660.5 617.48 661.91 618.97 662.66 619.58 662.22 621.51 662.65 622.75 662.54 623.1 663.07 624.33 662.58 624.81 663.57 623.83 665.2 623.93 666.27 625.02 668.61 626.03 669.62 626.75 669.83 628.6 669.19 629.6 669.19 631.43 670.85 632 672.34 632.13 673.57 630.4 675.21 629.18 678.09 630.02 678.66 631.02 678.44 632.15 679.7 632.01 680.21 633.53 681.53 634.92 681.38 635.58 681.88 635.84 683.27 635.21 684.35 633.92 683.98 632.65 688.7 632.56 690.61 631.71 690.8 631.96 688.64 632.88 685.64 633.29 683.55 631 683.12 630.29 684.18 628.83 685.72 628.26 687.78 626.67 687.1 625.34 687.89 623.08 690.24 622.26 692.27 621.55 693.15 621.25 695.35 620.91 695.98 621.35 699.9 621.94 701.74 622.14 703.55 624.2 708.16 625.92 711.09 626.93 713.71 628.02 715.36 629.26 716.31 631.94 717.15 633.63 716.32 634.86 715.22 635.68 715.96 635.4 716.79 634.25 716.42 633.73 716.69 635.3 719.09 639.5 723.51 639.76 728.08 639.04 727.32 638.86 723.76 634.72 719.31 630.94 722.64 630.96 724.63 634 724.56 636.67 725.68 635.03 727.32 633.96 728.88 633.2 730.72 632.85 734.93 633.66 739.11 634.31 741.34 635.59 743.12 636.03 744.46 637.88 747.05 639.01 749.2 641.08 751.75 642.35 753.83 644.71 756.61 645.92 758.45 647.3 760.01 648.52 761.81 649.27 762.41 650.88 764.53 651.86 766.12 654.58 768.54 655.17 769.56 656.59 770.49 659.14 773.08 660.76 774.2 662.51 775.96 665 777.11 666.17 777.84 668.67 778.64 670.58 780.17 670.63 781.1 669.48 784.78 669.36 787.7 669.12 788.03 668.99 790.58 669.39 792.5 670.35 794.09 672.2 793.49 673.84 794.23 675.18 795.76 674.93 797.24 674.14 797.45 673.8 799.78 674.98 801.66 675.55 803.22 674.89 803.7 674.45 802.13 673.01 800.03 673.15 798.26 672.38 797.48 669.97 798.07 671.41 800.8 671.22 801.86 670.06 802.8 669.15 804.39 668.66 806.49 668.89 809.22 669.47 811.63 670.39 813.43 671.4 814.59 673.58 815.98 674.86 816.38 675.16 817.52 676.17 818.45 677.47 819.04 679.65 820.44 679.83 821.91 680.26 822.84 682.21 825.52 687.55 831.65 689.73 833.73 693.05 836.54 697.11 839.08 698.03 839.76 700.76 840.9 702.06 840.08 703.13 840.86 704.75 841.05 705.61 841.78 705.45 842.88 704.81 843.65 705.18 844.28 704.16 845.05 703.09 847.1 703.05 849.93 703.69 852.53 704.12 853.46 705.71 853.23 706.37 853.73 711.26 855.3 712.52 855.81 713.68 855.83 714.16 856.99 713.93 858.54 714.98 859.23 715.01 860.03 716.35 861.05 717.38 860.67 719.23 861.52 720.94 861.95 720.76 862.94 719.5 863.94 719.78 865.52 719.75 868.35 719.98 869.47 719.11 869.56 719.18 866.95 719.03 864.54 717.23 864.41 715.84 863.66 714.94 864.86 715.98 865.65 716.73 865.62 717.57 866.42 715.41 867.37 714.14 868.56 712.81 870.33 712.11 872.1 711.87 875.33 712.03 876.48 713.06 879.3 714.26 880.6 715.73 881.48 717.22 880.76 718.19 880.66 718.58 881.65 719.62 881.53 721.96 882.74 723.75 884.54 721.18 884.58 719.45 883.08 717.26 885.53 717.42 885.98 715.52 887.12 714.64 888.2 713.94 889.73 712.95 892.97 712.48 895.38 712.9 898.11 713.66 899.47 714.53 899.96 715.84 899.29 717.77 899.82 719.17 902.09 718.3 901.92 717.08 900.19 716.22 899.82 714.23 900.42 714.53 901.69 715.4 901.65 716.45 902.75 715.27 902.98 715.7 903.77 715.6 905.09 715.09 906.67 716.01 906.7 715.96 909.21 716.6 911.23 717.43 912.34 720.65 915.91 721.85 915.85 723.09 918.21 723.73 918.44 724.08 919.64 725.02 920.49 725.42 922.23 726.27 922.94 725.87 923.48 726.21 924.63 726.96 925.37 728.21 925.97 727.94 927.16 728.58 928.33 728.57 929.42 727.45 929.31 726.57 932.24 727.29 933.02 727.05 934.86 727.45 938.74 727.88 939.52 728.32 942 729.7 941.78 731.91 942.17 733.66 942.18 734.15 942.49 734.98 944.16 736.79 944.81 738.7 945.02 739.69 945.41 740.61 948.34 742.58 952.67 742.39 953.51 741.35 953.48 741.29 952.61 739.86 949.57 739.52 949.25 738.93 946.39 736.3 945.74 734.08 944.8 732.73 945.34 732.74 946.7 734.64 947.23 735.11 946.52 735.99 947.67 736.27 949.24 735.84 950.09 734.28 950.41 731.99 952.35 732.69 953.12 733.79 953.67 737 953.27 738.02 951.37 739.47 952.43 736.87 954.44 737.91 954.68 738.59 956.21 736.9 956.05 735.83 956.95 736.08 958.58 735.49 959.42 735.27 960.92 736.11 963.93 736.81 965.14 738.03 966.14 738.57 966.17 739.17 965.04 740.05 966.36 742.4 967.21 742.11 967.74 742.28 970.08 741.17 970.28 740.15 971.15 739.79 974.62 740.02 976.34 740.64 978.17 741.64 979.78 742.69 980.38 744.21 980.2 744.78 980.55 745.72 982.58 745.44 983.09 746.02 985.39 745.21 984.97 745.08 983.94 743.78 984.56 742.87 985.87 742.63 986.9 743.13 989.49 743.85 990.96 745.41 993.18 746.46 994.36 748.12 996.67 749.98 998.4 750.47 999.2 752.44 1001.33 754.75 1003.12 756.13 1003.27 756.76 1002.1 757.86 1002.67 757.02 1004.24 757.56 1004.88 759.82 1004.07 760.94 1004.1 761.66 1003.06 762.67 1003.64 761.84 1004.39 763.84 1006.94 765.24 1009.71 766.44 1010.06 766.52 1010.73 764.78 1010.18 763.42 1007.34 761.88 1005.98 759.6 1006.38 759.92 1009.34 761.02 1009.3 760.7 1010.65 760.76 1012 761.46 1013.05 763.1 1012.91 764.04 1014.4 764.93 1015.06 766.24 1013.97 768.65 1012.3 769.07 1012.82 767.37 1014.09 767.7 1016.29 768.58 1018.41 769.05 1020.85 770.18 1024.27 771.64 1027.27 775.54 1033.28 776.91 1033.28 777.08 1035.36 778.2 1037.21 781.41 1041.29 783.54 1045.18 787.14 1049.92 791.93 1055.91 795 1059.27 796.4 1061.36 798.94 1064.15 799 1064.64 Z" fill-rule="evenodd" id="32600000"/>
</g>
</svg>