<?xml version="1.0"?>
<svg xmlns="http://www.w3.org/2000/svg" version="1.2" baseProfile="tiny" width="800" height="853" viewBox="0 0 800 853" stroke-linecap="round" stroke-linejoin="round">
<g id="sigung">
<path d="M 450.18 99.4 450.92 99.99 452.56 102.07 455.59 101.6 458.99 103.11 461.35 102.18 462.86 103.77 463.92 103.89 465.39 103.5 468.28 102.38 471.48 102.5 473.06 103.85 475.51 105.2 477.02 106.61 478.96 106.44 481.56 105.17 483.24 105.68 484.82 105.02 487.57 106.05 489.34 107.17 491.26 106.41 492.71 105.71 496.26 105.91 497.35 107.28 500.42 108.27 504.8 108.82 504.91 110.88 506.15 112.28 507.03 112.36 509.56 113.55 511.43 114.85 513.19 114.88 514.37 114.24 514.64 115.16 516.2 115.94 516.78 116 519.23 117.81 518.89 119.05 519.08 120.51 520.42 122.55 520.36 123.93 521.77 127.33 522.65 128.22 523.99 129.07 523.95 130.24 524.44 131.16 523.91 132.07 524.31 133.34 525.06 134.37 524.52 135.52 524.6 137.26 524.87 138.6 524.29 139.75 523.64 141.54 522.89 144.48 523.26 146.55 523.87 147.3 525.47 147.22 526.7 147.61 527.89 147.47 528.35 147.71 529.47 146.65 530.31 146.4 531.08 147.55 532.84 148.22 533.65 147.97 534.54 148.71 534.59 149.43 535.21 150.07 535.98 152.66 536.36 153.18 536.69 154.3 537.39 155.09 537.98 156.68 538.97 157.66 539.9 158.88 540.67 161.46 541.22 163.77 541.59 166.07 543.18 168.78 546.32 168.13 548.68 167.99 549.79 168.68 549.94 170.48 550.63 173.39 550.12 174.86 549.1 176.49 547.78 177.92 547.41 181.3 547.66 183 548.74 183.93 549.25 184.65 549.27 185.52 548.96 186.77 548.92 188.12 549.05 190.92 548 193.57 546.91 195.41 547.25 197.1 547.92 199.01 547.31 201.93 547.56 203.52 548.57 205.32 548.18 207.14 548.99 208.7 551.07 210.11 552.41 209.95 555.16 210.23 556.51 210 559.15 210.87 560.88 211.78 562.68 214 564.15 213.17 565 212.08 570.87 215.56 571.57 220.38 572.46 222.35 573.25 226.92 574.38 229.15 574.89 231.44 577.35 233.36 578.8 235.47 580.71 234.56 583.89 234.55 588.34 235.19 589.97 236.34 593.99 235.91 591.3 233.09 591.4 230.72 590.3 228.63 592.5 225.51 592.89 222.21 591.86 219.36 592.03 216.51 593 212.97 594.2 210.58 596.11 209.52 597.7 209.1 598.84 206.86 601.48 202.92 602.98 199.03 604.69 195.36 605.77 196.53 607.62 198.04 611.15 199.75 612.15 200.13 614.73 200.63 618.09 201.5 622.45 202.18 626.2 202.94 627.34 203.32 628.77 204.17 630.36 205.74 631.85 207.04 633.11 207.32 634.17 207.33 637.2 206.11 638.41 205.18 640.21 203.43 641.09 202.74 642.87 200.2 643.8 199.62 645.31 199.36 647 199.65 647.77 200.65 648.24 204.38 648.35 207.19 649.43 209.54 649.74 209.76 651.39 212.6 651.69 213.6 651.8 215.32 651.03 217.04 649.99 217.79 647.71 218.1 647.23 218.47 646.97 219.32 647.02 221.71 648.19 223.19 650.07 226 654.48 230.69 656.07 232.07 657.25 233.37 658.41 235.61 658.95 237.67 661.24 237.27 664.83 237.05 670.02 236.14 673.69 236.41 674.71 236.81 676.03 238.05 676.27 239.49 674 242.62 670.41 248.73 669.39 252.91 669.38 253.4 669.96 254.12 672.1 254.6 672.31 254.99 672.29 258.45 674.01 258.64 676.03 257.62 676.68 257.92 678.66 258.25 679.87 259.3 682.45 260.32 684.39 259.15 685.05 259.36 686.12 258.97 688.02 260.35 690.7 260.26 692.16 261 693.11 261.87 693.27 262.54 695.17 262.66 697.02 263.08 698.28 264.85 698.74 265.12 699.25 266.03 700.47 266.73 702.67 267.16 705.41 270.76 705.8 271.72 706.74 272.01 707.51 272.84 708.21 274.45 708.37 275.78 709.19 276.45 710.73 278.05 711.59 278.53 712.9 279.87 712.83 281.25 713.03 282.03 710.63 284.07 708.89 284.48 709.31 285.86 709.35 287.54 708 289.61 707.77 290.72 709.56 293.21 710.36 294.87 711.01 295.77 711.75 298.39 714.01 301.05 713.66 303.2 713.81 304.25 713.56 305.46 712.62 306.42 712.35 308.28 711.26 309.09 711.41 310.99 710.74 311.83 709.72 312.64 709.66 313.18 708.92 314.77 709.5 318.1 710.98 320.64 710.93 321.93 710.55 323.75 709.89 324.64 709.8 325.36 709.12 327.2 708.72 328.84 708.13 330.28 707.93 331.35 707.33 332.13 706.9 333.39 706.8 335.42 706.06 336.55 707.5 336.56 708.44 336.91 709.48 338.11 709.52 340.97 711.56 342.96 712.38 344.65 711.97 346.34 712.4 348.38 711.56 349.21 710.8 349.55 711.12 352.51 710.84 352.76 711 354.67 710.82 355.89 711.34 357.29 712.03 358.27 714.5 359.94 715.85 362.15 716.19 363.86 718.08 367.54 719.14 370.2 719.76 371.32 719.48 372.43 718.61 373.25 717.39 373.99 716.54 376.32 715.47 377.86 717.25 378.62 717.92 379.47 718.34 380.83 718.61 383.13 719.74 383.65 720.04 384.51 720.89 384.58 721.99 385.53 722.24 386.81 722.63 387.77 721.23 388.28 719.91 388.09 718.1 389 717.66 390.16 715.91 391.38 715.91 392.29 715.53 393.53 714.72 394.66 717.82 396.11 718.6 396.89 720.17 398.8 720.01 400.47 719.11 402.02 719.04 402.65 718.15 404.62 716.78 406.13 716.39 408.78 716.64 412.37 716.22 413.41 714.38 414.32 712.65 414.7 711.14 415.94 709.7 416.57 709.08 417.07 707.46 417.68 706.29 418.98 706.02 420.06 705.46 420.5 705.42 422.13 704.43 422.77 701.72 422.79 701.31 423.52 700.37 424.21 700.17 424.71 700.23 426.47 699.69 428.65 700.11 429.88 700.13 431.47 701.9 432.68 702.45 433.44 703.22 434.06 703.51 435.03 703.78 437.14 703.81 441.14 704.33 441.59 704.18 442.39 704.36 443.29 705.96 443.47 706.23 444.31 707.5 444.12 709.58 444.49 711.57 444.16 712.74 444.84 713.42 446.03 713.34 447.73 713.6 448.29 713.67 449.92 713.9 450.48 714.25 452.47 714.14 453.28 714.37 455.24 715.71 456.52 718.99 456.87 722.83 457.03 723.19 462.87 723.61 464.59 724.34 465.11 724.62 468.35 724.84 469.87 724.82 472.04 724 476.03 724.1 477.52 723.57 477.66 722.36 483.79 721.82 485.48 721.4 488.19 720.8 490.5 719.78 493.66 719.21 496.03 718.16 500.92 717.46 504.53 718.13 508.19 718.67 509.99 719.21 514.84 719.19 521.39 718.46 526.08 719 529.12 718.03 536.01 715.71 541.13 715.25 542.66 713.12 542.12 710.07 541.69 706.24 540.23 699.17 538.15 696.11 536.16 689.67 531.18 688.61 530.11 685.32 528.08 683.32 525.3 682.31 523.18 681.39 522.06 679.21 520.37 675.29 519.21 674.56 518.53 674.08 517.66 670.77 517.76 664.96 520.51 661.76 522.4 655.52 525.84 654.94 527.04 645.44 529.67 641.9 529.86 645.63 532.14 645.94 534.52 646.33 536.47 646.58 536.84 646.58 539.49 646.07 541.39 645.52 541.15 644.35 541.43 645.05 543.56 645.14 545.53 644.87 547.88 645.13 551.37 645.74 554.72 645.86 556 645.65 556.22 646.09 558.72 646.63 559.94 648.33 562.27 652.29 565.83 655.84 568.08 656.47 568.25 657.08 567.99 657.51 568.84 658.69 569.61 660.1 570.2 663.37 570.69 667.83 572.66 671.72 575.01 672.48 575.78 673.26 576.9 674.43 579.7 674.69 580.79 675.25 584.64 675.84 589.49 676.13 593.66 676.71 594.01 677.47 596.9 678.29 598.61 679.1 599.95 680 600.95 681.06 601.77 682.9 602.84 686.54 605.47 687.71 605.97 688.04 605.87 690.75 608.03 693.42 609.83 695.17 611.82 696.06 613.48 695.8 613.56 695.76 615.04 695.32 617.49 695.35 618.11 692.65 617.35 691.07 617.18 689.98 617.6 687.22 619.67 685.53 621.47 686.39 623.53 687.84 628.53 688.69 630.43 687.31 631.82 686.54 633.22 686.49 635.46 686.02 636.84 686.42 639.29 686.04 640.51 687.26 642.9 686.22 645.68 684.5 647.65 685.23 651.35 685.96 653.32 684.03 656.06 683.15 656.98 680.01 659.38 679.46 660.28 678.75 660.66 677.54 662.25 675.97 663.69 675.68 664.55 674.2 666.54 674.57 667.09 676.47 668.22 676.83 668.86 676.87 670.12 676.59 671.52 675.22 672.72 673.45 673.76 672.3 674.71 670.33 675.23 668.32 676.68 668.18 678.44 667.63 680.17 667.79 680.88 667.51 681.67 666.26 682.4 664.46 684.7 663.66 688.46 663.89 689.33 663.35 691.02 662.52 692.27 662.18 694.55 661.16 698 660.12 698.88 657.02 699.71 655.9 699.9 652.28 701.56 651.24 704.36 651.46 705.67 651.37 707.91 651.23 708.81 650.48 710.89 649.14 712.66 650.65 715.84 649.98 717.92 647.58 720.83 643.08 722.87 641.09 723.59 640.25 725.39 638.62 727.49 636.85 731.53 636.26 733.42 638.4 740.13 639.85 739.99 640.67 740.17 641.51 740.71 642.04 742.04 643.08 743.03 646.59 744.39 647.59 745.59 648.48 746.25 649.58 746.76 650.26 746.55 654.16 747.92 654.65 748.66 655.67 748.82 657.56 749.88 659.28 750.37 661.47 751.78 662.4 752.09 664.61 752.18 666.86 753.67 667.7 754.37 668.85 754.87 671.2 755.18 672.04 755.73 673.64 756.04 673.62 758.59 674.02 760.74 674.72 762.61 674.86 764.79 675.42 765.13 675.92 765.94 676.91 766.44 677.7 767.3 680.07 767.97 681.29 767.57 681.74 766.53 683.7 763.26 685.42 760.82 685.94 759.54 688.17 756.24 691.19 752.75 692.75 752.34 693.5 751.82 695.35 751.51 696.77 750.65 700.48 748.6 701.07 748.82 702.17 748.6 704.83 747.23 705.35 747.2 706.66 746.05 709.19 745.01 712.15 744.38 713.3 744.38 716.12 743.83 718.81 742.05 721.22 739.64 724.56 742.8 728.36 744.38 728.54 744.95 728.54 746.91 728.92 749.25 729.57 751.44 730.91 752.98 730.78 754.87 730.97 755.61 732.33 757.59 732.23 759.49 732.82 762 733.18 763.05 733.38 765.58 733.75 766.72 733.68 767.99 732.8 769.24 732.8 769.7 733.7 770.39 733.88 771.99 734.13 772.67 737.76 774.39 738.3 775.75 738.75 776.28 739.71 776.59 740.83 776.45 742.06 776.77 743.79 776.79 744.67 777.28 746.17 778.68 747.9 779.27 749.44 779.43 750.89 779.87 752.89 780.94 753.7 781.61 754.68 782.08 757 782.78 758.38 782.93 760.55 782.97 762.85 782.69 764.25 782.27 767.96 779.76 770.07 779.08 772.07 778.86 776.75 776.29 777.52 775.64 779.33 775.16 782.78 774.85 786.52 774.88 789.44 776.1 792.15 777.64 793.39 777.81 797.06 777.15 798.14 777.12 798.87 781.26 799 783.57 798.92 786.03 797.42 788.23 795.47 789.96 793.77 790.78 792.25 792.85 790.7 793.58 787.71 793.25 786.42 793.23 783.6 795.32 780.41 796.84 778.19 797.28 776.31 796.99 774.41 797.38 774.33 798.78 773.49 800.57 769.08 801.24 764.4 801.65 760.49 800.51 759.39 800.77 759.3 801.08 759.28 805.8 758.9 807.93 758.48 811.58 759.2 811.89 759.42 812.44 759.28 813.23 758.8 813.79 756.94 817.1 756.7 820.21 756.86 823.39 756.36 826.46 755.3 828.28 755.12 829.82 753.12 832.64 750.79 832.48 746.69 832.01 745.37 832.58 744.82 833.24 742.56 834.51 739.69 835.06 738.4 836.2 737.36 837.36 735.91 836.86 735.51 837.32 733.88 837.62 731.96 839.2 731.94 841.72 732.8 844.03 732.98 851.65 727.34 852 723.9 850.82 720.52 849.07 717 846.67 717.43 845.13 717.31 843.57 717.5 842.82 717.2 842.32 716.98 840.66 717.68 839.37 718.93 838.82 719.43 836.59 717.7 835.14 717.49 834.35 716.77 833.72 714.91 831.28 712.84 829.99 709 827.86 707.99 826.91 707.23 825.89 707.11 824.72 705.74 822.87 703.17 821.58 702.51 820.61 701.19 819.16 696.82 815.65 694.96 815.68 689.46 811.2 688.7 811.32 687.75 811.14 686.7 810.38 684.23 809.88 683.02 810.88 680.82 810.34 679.1 810.51 676.74 811.33 676.09 812.11 672.8 810.31 672.1 810.57 669.99 807.66 668.49 806.76 666.97 807.25 665.38 807.29 664.97 807.54 663.24 806.92 661.62 805.55 660.47 803.55 659.05 801.88 658.29 802.07 656.21 800.39 654.76 800.72 652.99 801.35 652.9 801.82 647.98 803.82 642.66 802.22 638.25 795.71 636.74 795.02 632.77 794.54 630.92 794.44 629.94 794.89 628.1 794.33 625.42 795.29 623.6 794.62 619.69 793.63 617.9 793.1 617.18 794.01 616.93 794.8 616.23 795.61 617.61 798.24 617.61 799.31 616.6 800.68 616.45 803.71 615.96 807.15 615.63 807.79 615.59 809.56 615.01 810.74 615.54 811.45 617.15 813.07 617.54 814.95 617.14 817.29 616.51 819.47 615.52 820.05 614.36 821.93 613.83 823.29 613.44 825.33 609.86 828.21 609.23 828.54 608.6 829.48 607.51 829.93 606.07 830.28 604.65 829.82 603.5 829.04 601.19 828.55 600.32 829.61 599.09 830.13 598.71 831.53 597.79 832.63 596.1 832.04 594.8 831.43 593.38 830.05 590.1 828.38 587.39 826.41 584.67 825 581.98 825.38 578.86 823.86 578.1 822.93 576.44 821.73 574.94 820.27 571.05 820.41 568.66 820.75 566.37 820.92 564.95 820.5 564.21 819.66 562.17 818.28 559.36 816.11 556.51 814.77 554.27 814.01 552.01 814.2 549.51 814.24 549.62 812.56 550.63 810.43 550.09 808.82 549.55 808.41 549.21 806.69 548.36 805.54 549.22 802.92 549.36 802.02 548.45 799.07 544.24 798.65 542.24 798.93 540.33 799 538.81 798.6 537.34 797.55 535.01 796.47 532.83 795.04 531.67 793.25 531.46 789.76 532.26 789.16 532.63 787.75 533.91 786.19 535.5 780.58 536.64 777.92 537.46 776.43 538.7 774.99 539.59 774.18 540.46 773.11 539.35 771.54 539.04 770.68 537.97 769.08 537.53 767.59 537.42 765.74 535.7 761 534.72 761.16 534.18 760.26 532.22 758.76 532.13 757.85 531.25 756.48 530.6 755.16 528.94 754.53 528.65 753.69 529.06 749.89 527.26 748.35 525.29 745.74 524.7 744.45 523.26 742.96 524.83 738.51 524.86 736.57 525.1 733.97 526.46 731.1 525.73 730.63 524.77 729.16 525.63 727.27 527.16 725.72 524.11 724.21 520.94 722.95 520.35 722.9 517.32 721.97 516.1 721.14 514.89 719.16 513.72 716.15 513.01 715.13 512.65 714.02 511.08 712.33 508.29 709.99 507.05 709.52 506.74 708.38 506.07 707.34 502.91 706.28 501.64 705.6 500.19 704.52 498.87 703.04 495.65 700.41 494.87 699.58 492.39 698.55 491.18 699.01 489.24 699.44 488.27 697.91 487.5 697.14 486.94 694.25 487.45 692.8 487.91 692.26 489.84 691.26 490.95 689.25 491.4 688.92 491.33 687.86 491.02 686.85 491.45 686.01 491.75 684.61 492.24 683.8 492.68 681.96 492.56 681.32 493.11 680.06 493.7 679.19 493.81 677.88 494.69 677.56 495.4 676.64 496.53 674.82 497.86 674.04 497.62 672.55 496.79 670.97 495.84 670.18 494.45 669.42 493.38 669.04 489.1 667.84 488 667.23 486.16 667.16 484.4 667.3 482.66 667.65 482.31 667.91 478.31 668.04 477.49 667.66 476.35 667.53 474.07 666.68 473.59 666.73 471.33 667.9 470.45 667.97 471.49 666.55 469.71 667.38 469.78 668.25 467.97 668.85 467.21 668.86 465.12 668.37 463.88 667.57 463.23 668.24 462.38 667.75 460.51 671.54 459.23 672.03 457.64 672.86 457.27 674.15 456.87 674.71 456.05 674.68 455.48 675.49 454.34 676.4 452.47 678.21 450.19 679.52 447.98 680.49 445.8 681.15 444.38 681.8 443.29 681.65 441.7 682.11 441.28 682.02 440.43 680.24 439.29 679.93 438.33 678.4 437.48 677.91 437.14 676.66 435.75 674.93 435.3 673.97 434.97 672.73 433 672.59 431.72 671.99 428.92 671.06 427.65 672.49 426.34 672.44 425.82 671.78 424.19 671.23 423.15 671.28 421.92 670.1 419.79 669.68 418.29 668.23 418.42 667.08 418.24 665.43 418.22 662.99 418.01 660.78 418.31 659.89 417.46 658.74 417.5 656.74 416.49 655.18 416.04 654.03 415.26 652.83 414.24 651.73 413.88 650.2 413.32 648.9 412.33 650.9 411.31 652.05 409.16 653.95 406.32 657.21 405.63 658.1 403.44 659.55 401.36 660.63 400.23 661.05 387.03 663.38 384.44 664 383.45 660.01 382.87 658.16 381.8 652.38 378.27 652.64 372.38 652.62 369.59 653.04 366.49 653.03 363.25 651.1 361.66 650.48 359.32 650.07 358.12 650.42 356.49 650.64 355.56 651.23 354.21 651.38 352.96 651.86 350.34 648.83 347.75 645.33 347.08 644.79 346.1 644.62 345.46 642.52 345.17 640.27 344.72 638.36 343.95 637.48 343.5 634.14 341.06 631.96 339.51 631.29 338.05 629.44 335.57 628.56 334.4 627.91 333.71 625.3 332.31 625.05 331.25 625.87 329.44 625.89 326.27 625.28 323.22 625.47 319.82 622.79 319.39 621.62 318.67 622 315.63 621.51 314.93 620.93 314.09 619.33 311.8 618.71 309.76 616.54 310.06 615.4 310.72 614.61 311.78 613.79 312.72 612.08 313.55 611.61 315.02 609.8 316.55 608.82 316.54 608.07 315.7 607.16 314.02 604.9 313 603.88 314.48 601.36 316.99 600.05 316.19 598.73 316.31 598.12 315.99 596.74 316.94 595.57 316.78 594.13 316.98 592.44 318.14 589.97 317.85 587.7 316.76 586.39 315.71 586.19 314.81 585.08 313.11 583.65 312.63 583 309.06 582.87 307.35 582.1 305.94 582.43 305.28 583.22 304.2 581.43 304.01 580.74 304.18 579.32 302.35 577.14 300.34 576.06 300.53 574.99 300.09 573.55 300.03 572.8 299.31 572.16 299.73 569.66 300.09 568.94 301.21 568.61 301.97 567.98 301.41 567.07 301.55 566.26 301.2 565.87 301.09 562.98 300.25 563.03 298.87 562.32 296.96 563.07 295.81 562.61 295.28 561.77 294.2 561.99 292.33 561.9 291.71 561.61 289.98 561.92 290 561.17 289.41 559.15 289.32 558.34 288.12 558.37 287.43 558.78 286.51 557.76 286.43 557.06 285.74 556.92 282.32 555.79 281.49 557.54 280.55 557.44 279.98 558.73 280.14 559.89 279.34 560.05 278.76 560.68 278.19 560.5 276.32 560.91 275.08 560.47 273.64 560.68 273.21 560.32 271.53 561.81 270.51 561.43 268.16 561.59 266.53 561.46 265.08 562.68 262.45 563.86 260.53 560.85 259.58 560.79 258.65 559.78 258.98 557.85 258.67 556.28 258.98 555.83 258.86 554.35 258.36 553.7 257.66 550.86 255.86 550.66 255.56 550.29 254.37 550.35 252.12 549.44 251.36 549.45 248.38 547.83 247.88 547.66 246.82 548.12 246.5 547.73 245.15 548.27 244.42 549.49 240.81 549.44 238.48 551.11 238.67 551.82 238.28 552.44 238.42 554.87 237.89 555.64 236.73 556.26 236.63 556.99 235.2 557.24 235.33 559.28 236.03 561.77 234.89 564.3 233.16 566.01 230.88 566.9 229.58 567.66 228.84 568.36 227.27 569.05 224.98 569.48 222.68 568.83 221.23 568.03 219.43 569.01 218.58 569.88 217.16 572.01 216.91 573.03 215.67 573.91 212.37 575.19 211.6 575.01 210.91 575.25 210.01 575.07 208.6 576.25 206.86 577.11 204.42 576.26 202.73 574.27 201 573.63 200.46 571.92 200.53 571.37 198.95 570.37 197.73 570.14 197.36 569.62 196.08 566.31 194.93 566.08 193.93 564.45 192.32 562.87 191.96 563.4 189.09 564.06 187.5 561.91 187.32 561.85 186.83 559.55 185.83 557.38 185.25 556.91 185.32 556.03 184.85 555.18 183.58 554.28 182.32 553.89 182.47 553.24 184.8 552.22 186.4 551.04 187.34 550.66 185.85 548.52 185.21 546.34 184.32 545.02 182.03 543.15 179.54 541.6 178.62 540.65 178.17 539.91 177.83 537.5 175.81 536.31 174.92 537.03 173.93 535.33 173.79 534.62 174.01 533.21 173.15 533.58 171.71 533.32 171.64 532.39 170.62 530.93 170.07 529.67 169.86 527.55 169.25 527.01 166.87 528.9 166.09 529.66 165.63 530.66 164.59 531.39 162.74 530.92 160.31 531.49 158.32 531.55 156.47 532.01 156.14 532.78 155.54 535.07 152.12 536.3 151.05 537.45 149.56 538.39 148.06 538.36 146.85 538.59 144.69 536.38 144.28 536.27 143.21 535.17 142.61 534.89 138.86 535.9 138.45 536.21 137.22 536.3 136.33 536.05 136.17 533.86 135.36 532.37 134.83 532.08 132.42 529.54 132.34 528.4 131.42 527.29 129.47 526.67 126.31 525.08 125.07 525.99 123.87 527.16 122.9 526.08 121.64 526.01 121.15 525.25 119.47 524.97 119.09 524.52 118.48 524.89 118.44 525.81 116.48 525.97 115.38 525.66 112.74 525.39 111.83 526.43 110.11 526.66 108.91 526.52 108.16 525.27 107.07 522.55 106.62 522.19 106 521.02 103.61 519.72 101.79 519.46 100.31 518.93 99.52 518.11 99.31 516.49 98.71 514.27 97.15 513.45 95.36 513.41 94 513.56 93.56 512.85 91.67 511.55 91.32 510.91 90.61 508.78 90.72 508.23 89.55 506.05 88.61 504.79 88.47 503.66 88.09 502.68 87.83 501.02 87.49 500.2 88.17 498.83 85.99 497.81 83.3 495.8 82.78 495.19 80.81 494.58 78.82 494.7 77.88 494.93 76.32 493.58 75.92 493.73 72.86 492.89 72.72 491.72 73.54 489.74 72.93 489.06 73.18 487.04 73.03 486.46 72.21 485.52 70.19 484.16 68.35 484.18 66.72 483.48 66.39 483.01 65.03 482.09 63.93 482.16 62.55 481.26 61.81 481.07 60.83 480.24 59.82 479.66 60.33 478.89 61.03 476.76 61.03 475.91 60.76 475.04 60.97 473.47 60.04 472.17 59.26 470.63 58.48 470.68 57.91 470.36 56.32 470.27 55.53 470.92 52.76 470.88 52.28 471.71 49.9 471.28 48.95 470.7 47.48 470.82 46.32 470.41 45.27 469.68 42.72 469.6 41.38 470.8 40.66 471.07 39.43 470.99 38.4 470.34 37.34 470.71 35.96 470.85 34.7 469.41 33.96 468.91 33.63 468.03 32.92 466.89 30.82 466.99 30.41 466.65 28.89 468.42 27.89 469.04 27.1 469.2 26.54 470.23 26.43 471.11 25.63 472.22 25.14 473.5 24.25 473.58 23.49 474.16 22.7 474.41 23.43 475.39 24.31 475.07 24.57 475.39 24.11 476.15 25.61 476.58 26.76 474.72 27.13 474.59 28.09 475.11 28.92 474.95 30.09 475.88 29.59 476.8 29.7 477.37 31.07 477.32 31.22 477.97 30.85 478.38 30.88 479.1 30.18 479.4 29.66 480.35 28.47 481.26 27.91 482.26 28.47 482.5 27.73 485.65 25.35 486.79 21.8 487.14 20.32 488.07 19.05 488.33 18.05 487.4 15.26 487.2 14.32 486.06 13.55 485.96 11.28 484.38 9.31 483.39 8.93 482.93 8.83 482.04 6.29 480.11 4.89 478.89 4.87 478.32 4.03 477.66 3.15 477.9 1.91 477.79 1.42 477.35 1 476.07 1.14 475.23 1.82 474.58 2.77 472.55 4.54 471.09 5.63 469.63 5.64 468.56 3.93 466.2 3.96 464.96 3.71 464.17 4.28 462.8 3.74 460.99 3.69 459.13 4.66 457.93 4.75 456.4 5.44 455.34 6.26 454.43 6.77 453.26 5.85 451.84 5.91 450.95 4.95 449.17 5.04 447.96 4.71 447.25 5.77 446.06 5.82 445.5 7.39 443.57 8.18 442.77 8.17 442.17 8.6 441.04 7.65 439.24 9.14 438.47 10.04 438.27 10.85 437.63 11.41 436.49 11.45 435.96 13.68 435.34 14.54 434.92 16.53 434.77 20.54 435.62 23.29 435.81 24.83 435.68 24.34 433.98 24.29 433.19 22.84 432.86 20.8 433.14 19.92 431.6 19.07 430.56 18.47 429.27 16.9 427.83 15.9 425.58 15.45 425.43 15.25 423.75 14.6 422.31 14.85 421.13 12.6 419.98 11.19 419.7 10.84 419.08 11.17 418.05 10.94 417.19 10.43 416.63 10.21 415.65 9.21 415.05 9.26 414.61 11.07 413.09 9.79 411.06 9.48 409.49 10.63 408.23 11.16 406.57 11.21 404.82 12.01 403.73 12.97 403.74 14.5 402.31 15.11 401.18 16.06 399.77 16.78 399.07 17.06 398 18.58 396.7 20.09 395.72 23.06 394.49 23.22 392.84 22.77 392.39 22.49 390.62 22.71 389.87 23.38 388.88 23.36 387.41 23 385.86 22.94 383.2 22.76 381.77 22.77 379.81 22.41 379.38 23.6 378.01 24.84 376.99 26 376.32 26.16 375.12 27.57 373.95 29.53 373.78 31.66 372.13 32.14 371.54 34.78 371.27 35.08 370.9 34.78 369.27 34.57 367.19 34.28 365.6 35.12 364.03 35.07 361.98 34.62 360.67 34.91 359.56 35.82 359.32 37.88 358 39.8 355.59 41.21 353 42.27 352.42 42.99 351.46 44.92 351.19 47.38 350.54 50.54 347.33 53.96 346.75 54.97 345.75 56.46 345.35 57.28 344.46 58.67 343.32 58.45 342.36 58.51 340.78 59.46 340 59.4 339.4 60.17 338.89 60.93 338.76 61.58 337.41 63.46 336.3 64.12 336.18 64.1 335.32 64.74 334.62 64.69 334.05 66.22 332.98 66.36 332.22 65.69 331.16 65.44 330.17 66.03 329.6 65.94 328.54 65.21 327.84 64.7 326.46 65.06 325.91 65.16 324.44 64.58 323.13 64 322.52 63.9 321.72 64.66 320.12 64.49 318.26 62.93 315.31 63.38 313.89 63.4 312.73 63.08 311.15 63.08 310.3 62.7 309.6 62.42 307.79 62.19 307.24 62.66 306.37 62.6 305.64 61.79 303.99 61.27 303.92 60.26 302.51 59.66 300.04 59.74 298.2 59.35 295.72 58.85 293.85 58.57 293.38 58.24 291.71 56.49 290.68 56.3 289.84 55.53 288.91 54.91 288.78 54.08 287.94 52.91 287.54 52.18 285.52 52.95 283.39 53.31 281.73 53.71 281.02 54.85 280.5 56 279.69 56.72 277.64 57.48 277.05 58.32 275.95 59.74 275.84 62.79 275.84 65.79 275.29 67.47 275.11 67.71 271.43 68.68 269.23 68.98 267.55 69.49 266.44 70.32 265.47 71.4 264.74 72.36 263.31 73.51 262.83 74.16 261.16 74.26 259.79 74.69 259.42 74.87 258.38 76.34 257.43 77.13 255.34 79.07 253.93 79.42 252.57 79.56 250.68 80.22 248.54 80.31 245.91 79.7 245.52 77.64 241.9 77.29 240.84 76.79 240.45 77.02 238.02 77.89 237.22 79.12 237.54 79.92 237.43 80.01 236.63 80.81 235.56 80.77 234.18 81.35 232.83 81.15 231.84 81.49 230.65 83.16 230.53 84.07 229.62 85.07 229.55 87.51 228.3 87.93 227.43 89.23 226.53 89.62 226.06 90.83 226.15 91.74 225.61 92.93 225.2 93.1 225.78 96.58 225.2 98.64 224.63 98.87 223.73 100.71 223.59 100.88 222.84 100.55 222.23 100.56 221.3 101.02 219.69 101.82 218.48 101.74 218.09 104.29 216.15 105.94 216.79 106.85 216.07 108.22 216.9 108.82 216.66 109 215.23 113.52 214.6 114.42 213.59 114.02 213.37 114.59 211.74 114.46 211.29 114.92 210.46 116.4 208.56 116.51 207.74 117.26 206.25 117.11 205.78 117.32 203.9 116.01 202.61 115.87 201.07 116.11 199.59 115.7 198.22 115.62 197.21 116.11 194.98 116.05 193.88 115.24 192.57 113.83 190.88 113.39 189.29 112.04 188.48 111.53 187.55 110.95 187.22 109.55 185.79 109.56 185.45 108.58 184.7 104.61 183.99 103.65 184.24 102.49 182.51 100.55 181.14 99.32 179.75 99.09 178.9 99.11 177.61 98.2 177.03 97.08 175.33 97.01 174.45 96.11 172.91 96.16 171.82 97.54 170.13 97.12 168.55 96.98 167.45 95.62 165.33 95.25 163.56 93.8 163.3 91.3 161.61 90.54 161.56 89.91 160.74 89.13 161.17 88.12 161.15 87.1 160.87 86.8 160.32 84.61 159.59 82.23 159.7 79.9 159.37 78.44 158.18 74.33 156.39 72.82 155.22 72.01 154.05 70.44 152.35 70.3 150.42 70.47 147.81 70.24 145.61 69.64 143.47 70.14 142.1 71.12 140.67 70.26 136.85 70.63 134.49 71.4 131.9 73.07 130.08 74.53 129.55 76.71 129.08 78.88 127.47 80.16 126.91 80.8 125.65 81.79 124.81 83.33 122.96 84.17 121.21 86.17 118.67 85.74 116.45 86.07 115.87 86.27 114.63 87.04 114.08 87.13 112.49 86.54 112.13 86.19 111.45 86.9 108.97 87 104.96 86.89 103.46 87.06 101.45 86.55 100.51 86.97 98.44 89.81 93.7 90.08 92.66 90.03 91.92 91.31 91.42 92.68 91.75 93.18 91.4 93.94 89.77 94.77 88.81 94.74 86.57 95.68 85.16 95.72 83.88 96.62 82.87 95.91 81.56 96.9 80.43 97.09 79.75 98.3 79.74 99.1 79.35 99.87 78.22 100.19 76.27 101.65 75.96 102.07 73.84 103.07 72.27 103.09 71.73 102.58 71.08 102.6 70.47 105.01 69.06 106.01 67.93 106.48 65.71 107.68 64.88 109.1 64.88 110.03 65.46 111.61 65.47 114.05 66.41 115.15 68.91 116.17 69.45 118.4 68.32 120.93 68.11 122.07 67.41 122.42 66.01 122.42 64.11 123.55 62.92 123.97 60.35 124.56 59.35 124.46 56.92 125.1 56.76 125.04 55.51 124.19 54.53 124.07 53.5 124.34 53.03 125.11 48.45 126.93 47.31 127.86 46.04 128.24 44.71 129.04 43.6 128.53 42.24 130.15 41.79 131.2 40.58 131.86 40.18 132.18 38.78 132.19 37.43 131.77 35.42 132.35 34.07 131.32 31.86 131.95 30.45 131.32 29.37 131.6 28.32 132.82 28.17 133.94 26.91 133.93 25.76 134.91 25.1 135.08 23.34 135.49 22 136.74 20.22 136.28 19.58 136.57 17.88 136 17.1 136.18 15.03 137.19 14.51 138.22 11.46 138.57 10.65 139.09 10.51 140.7 9.07 141.79 9.23 143.63 7.64 144.63 6.92 146.14 6.91 146.83 6.51 148.61 3.2 149.68 2.1 149.6 1.59 150.61 1 151.46 1.95 151.65 3.48 151.78 4.72 151.42 5.07 150.97 6.72 151.31 7.06 150.68 8.43 150.65 11.88 150.94 15.98 153.19 23.35 154.01 26.78 154.74 30.73 156.95 30.71 158.74 38 159.63 43.82 160.84 51.05 159.65 52.75 160.21 56.67 160.87 60.25 162.01 64.6 162.46 67.26 163.86 67.67 164.3 69.39 164.45 70.79 165.51 74.61 168.53 83.01 169.34 85.57 169.58 86.69 170 89.77 171.75 92.56 172.57 94.34 173.94 96.38 175.56 98.33 177.2 99.91 177.73 100.58 178.89 102.52 180.87 106.27 182.26 108.28 185.16 113.05 186.28 114.52 187.91 116.02 189.94 117.25 190.59 118.32 191.82 119.89 193.29 121.26 195.52 123.13 199.68 125.82 202.03 127.66 203.36 128.98 207.11 131.85 209.15 134.06 215.5 138.26 217.85 140.29 222.57 143.03 222.9 143.43 223.42 145.05 226.22 146.73 227.83 145.85 230.45 144.08 231.6 142.95 231.9 142.24 232.47 141.89 234.06 142.15 235.97 142.86 238.21 142.32 239.54 142.34 242.46 143.39 243.38 143.92 245.14 144.67 246.09 144.81 251.33 141.66 252.72 140.36 254.72 139 256.55 138.68 259.17 138.95 262.37 140.07 265.87 139.75 268.4 139.69 270.12 139.08 270.98 138.99 271.86 138.54 273.3 137.3 274.91 136.11 279.29 132.17 281.95 130.48 284.02 128.56 284.86 128.09 286.25 128.6 287.93 128.41 289.83 128 290.74 127.4 292.06 127.2 292.97 127.31 293.52 127.93 293.93 127.35 295.78 127.79 296.85 128.25 298.59 128.42 299.45 128.93 301.09 128.92 302.11 129.13 304.56 129.21 306.55 128.15 309.38 127.94 310.18 128.14 313.7 127.48 316.44 126.64 319.48 126.57 320.13 126.67 320.97 126.4 324.58 124.59 325.33 123.82 326.07 121.96 326.27 118.88 327.14 115.24 327.89 114.37 328.32 112.79 328.77 112.03 329.47 111.56 331.33 111.08 333 111.22 333.78 111.91 333.94 114.18 333.81 115.94 334.65 118.8 335.6 119.21 338.28 119.14 340.31 119.25 341.97 120.65 343.73 121.25 344.54 120.26 344.62 118.83 344.29 116.69 343.8 114.58 343.81 113.02 344.72 109.57 346.13 108.35 347.28 107.95 347.42 107.33 348.34 106.81 349.41 106.66 350.93 106.91 350.97 106.55 353.27 106.94 353.94 106.64 355.58 104.88 356.73 104.03 358.73 103.15 361.19 102.67 361.88 102.8 363.29 103.5 366.14 103.82 366.01 104.15 367.45 105.16 368.54 105.73 369.31 105.9 372.72 107.78 374.53 106.83 375.36 107.16 377.38 107.26 379.05 107.84 379.91 107.6 381.47 108.18 382.14 108.86 385.07 109.14 386.47 111.03 388.06 112.04 388.37 111.94 389.96 112.46 390.69 113.16 391.66 112.9 392.48 113.85 392.54 114.36 393.42 115.28 394.39 115.44 396.43 117.03 397.4 117.25 398.19 118.34 399.69 119.21 399.84 120.06 400.64 120.97 401.37 122.85 402.46 124.59 403.61 127.18 403.9 128.42 404.28 129.22 404.66 130.71 405.5 132.03 407.2 130.68 408.31 129.02 409.96 127.9 410.37 127.08 410.37 125.03 411.1 123.32 412.23 121.03 412.38 119.53 413.2 117.69 413.52 117.3 413.75 113.65 412.79 110.98 413.81 110.62 415.11 109.57 416.12 108.33 417.21 107.5 418.69 102.25 418.74 100.32 420.03 98.37 420.68 98.04 421.13 96.41 425.02 95.57 425.67 95.54 426.61 94.95 428.28 94.15 429.18 93.39 429.52 93.62 431.61 92.71 435.5 95.39 437.96 96.61 439.36 97.68 441.11 98.79 442.32 100.48 443.09 100.61 443.9 101.32 445.03 102.66 446.14 103.32 446.77 102.21 448.37 100.68 450.18 99.4 Z" id="33020000"/>
</g>
</svg>