<?xml version="1.0"?>
<svg xmlns="http://www.w3.org/2000/svg" version="1.2" baseProfile="tiny" width="800" height="1536" viewBox="0 0 800 1536" stroke-linecap="round" stroke-linejoin="round">
<g id="sigung">
<path d="M 691.37 14.55 693.38 17.84 696.13 20.09 699.69 34.95 701.26 47.63 703.14 70.59 702.88 87.4 699.39 94.28 690.62 101.03 689.2 104.34 688.15 109.88 688.72 115.68 690.21 122.59 693.28 126.58 693.72 130.84 696.81 136.3 704.34 140.39 727.25 156.22 733.81 163.27 739.65 167.91 748.36 172.92 754.27 177.42 760.22 180.33 761.9 188.6 761.65 191.93 761.72 208.14 761.34 216.51 762.02 224.26 765.44 233.97 763.41 236.62 769.03 241.1 769.48 237.04 774.17 241.49 776.42 242.55 782.9 242.9 784.36 246.87 780.72 247.74 780.51 251.85 784.37 260.41 779.91 264.47 779.01 266.39 778.07 273.34 780.62 280.73 781.96 287.64 782.67 297.65 783.27 314.35 782.27 314.32 783.33 336.53 783.25 361.95 782.54 369.72 780.57 377.38 779.9 382.32 780.12 388.44 782.13 399.84 782.19 402.67 781.05 408.38 778.17 416.21 782.38 414.39 786.25 411.67 787.01 407.74 791.29 396.66 793.35 394.48 792.01 407.81 791.59 415.74 792.39 423.12 794.51 432.43 799 440 795.1 443.51 792.06 448.16 794.64 452.55 747.13 481.63 751.22 488.74 754.99 492.82 751.56 496.73 747.7 497.11 746.04 493.52 742.12 494.26 740.2 493.52 738.49 497.89 736.56 499.59 728.83 501.77 727.78 502.88 721.51 500.93 714.21 499.6 711.35 497.46 713.53 493.63 708.92 492.83 705.23 493.62 702.56 495.8 698.11 497.83 696.37 495.91 692.86 494.22 690.05 495.91 685.06 495.92 683.19 497.69 679.15 497.47 676.74 501.43 676.92 504.59 672.55 503.41 669.19 508.41 656.07 511.08 653.62 509.93 649.19 510.41 646.8 511.85 639.61 509.35 637.67 514.52 637.87 522.23 639.76 525.43 639.37 528.12 637.47 530.83 634.73 530.65 632.26 533.05 626.37 533.26 620.84 538.94 618.26 540.41 619.21 542.76 619.52 549.95 616.97 553.98 618.63 557.99 614.5 562.49 613.4 565.35 607.61 570.07 604.92 568.98 605.69 573.02 602.83 579.62 604.15 583.26 602.61 589.69 602.76 592.45 600.49 597.35 600.53 600.15 602.41 606.76 601.08 607.71 599.93 612.01 603.13 616.62 604.35 619.71 604.2 623.63 602.78 630.25 600.86 633.17 599.26 637.7 599.32 640.45 595.95 644.62 598.58 650.47 597.32 657.73 603.68 660.84 607.44 664.17 608.96 662.67 614.46 661.73 618.88 664.33 627.29 666.97 630.61 666.27 633.46 661.25 637.59 658.57 639.54 658.65 640.3 656.03 647.46 651.36 650.83 651.52 654.01 654.7 658.27 654.46 664.64 655.99 666.94 660.17 668.82 659.88 676.07 656.89 680.45 658.95 683.17 659.29 685.89 662.34 688.38 662.8 687.86 669.61 683.4 672.55 681.92 675.06 678.41 683.6 678.32 688.4 674.6 691.63 674.51 695.02 676.38 704.43 678.11 709.25 679.3 714.53 686.68 714 688.51 719.35 691.13 722.34 691.51 726.33 696.57 727.29 698.7 729.72 699.18 733.02 703.5 735.83 703.39 738.44 705.47 741.68 702.35 749.08 705.45 757.39 710.01 761.82 710.36 764.66 712.79 766.36 714.7 769.49 717.54 770.86 714.88 778.5 711.49 778.96 712.52 781.21 711.52 787.86 707.98 791.23 705.48 789.81 702.42 785.92 701.93 781.83 700.06 778.89 696.06 776.27 695.63 771.53 693.34 770.71 681.76 772.1 677.3 769.42 675.61 769.29 671.16 774.74 667.13 775.81 660.63 780.75 659.17 783.71 655.83 783.18 651.48 788.03 643.18 790.92 638.29 790.86 636.62 791.56 634.91 794.5 635.15 796.27 630.55 797.43 628.07 799.25 625.73 802.86 622.8 804.12 622.21 805.72 619.1 807.59 615.92 807.67 612.43 808.89 598.16 810.22 593.14 810.16 590.72 801.75 591.76 798.11 591.5 794.52 589.01 795.69 583.6 793.25 580.6 790.83 579.02 787.86 574 783.17 567.71 782.15 563.55 777.73 562.95 775.16 554.77 771.92 553.53 770.01 546.09 764.54 533.48 759.81 531.6 761.01 525.44 761.33 518.46 764.32 517.43 765.7 513.27 767.31 507.29 772.31 504.71 772.98 493.92 771.84 489.36 768 485.87 763.83 485.36 760.56 479.41 756.74 474.98 753.27 471.82 753.62 473.54 765.99 477.15 773.79 475.88 784.51 474.82 786.32 474.34 792.09 471.88 798.18 471.85 808.33 473.97 816.16 476.81 814.58 483.63 815.93 487.67 815.27 502.38 817.84 501.21 821.93 502.29 828.99 504.84 829.76 506.57 833.11 506.46 836.32 508.23 843.41 510.98 845.18 512.7 848.25 508.06 852.99 508.98 856.68 507.47 862.46 508.58 866.7 512.76 868.72 513.45 872.86 515.97 873.7 519.49 878.35 519.6 887.16 522.54 891.79 523.07 897.08 521.77 904.45 521.82 914.25 523.88 916.43 522.63 922.54 524.88 932.15 525.33 938.57 526.06 941.4 523.48 947.49 521.45 949.43 521.39 953.78 515.42 961.58 512.52 963.08 513.3 967.56 517.15 981.07 519.75 986.88 516.35 991.74 516.36 995.06 508.24 1001.79 498.49 1011.07 490.49 1014.38 484.72 1016.03 480.59 1015.34 472.38 1021.33 466.39 1023.97 462.03 1024.76 463.03 1032.88 461.47 1036.09 461.59 1039.75 464.39 1042.89 464.38 1050.2 465.15 1054.11 467.64 1059.74 473.31 1061.9 473.9 1064.4 471.72 1069.58 472.56 1072.86 477.77 1080.82 478.49 1082.89 484.47 1088.54 483.83 1093.84 485.89 1098.12 486.52 1108.38 486.25 1114.1 484.23 1117.26 490.33 1125.85 488.73 1129.17 490.13 1136.49 506.96 1136.42 515 1132.5 523.75 1137.53 528.26 1142.1 528.75 1146.24 533.29 1148.53 535.9 1163.14 538.29 1166.09 540.33 1171.94 544.46 1172.99 545.59 1176.67 558.39 1177.1 572.38 1187.26 579.66 1190.38 582.91 1189.9 588.11 1190.65 598.35 1197.8 599.72 1204.46 601.2 1207.74 605.65 1207.23 606.75 1208.66 612.12 1208.61 614.43 1211.08 620.49 1212.72 623.48 1212.87 626.37 1210.59 629.1 1211.36 634.38 1208.94 641.43 1210.44 652.84 1215.45 653.6 1233.12 653.47 1237.37 654.31 1249.43 653.74 1255.45 656.53 1259.28 657.55 1262.22 660.08 1265 658.37 1267.62 658.75 1270.53 657.74 1272.8 659.63 1276 659.64 1280.7 662.58 1290.97 664.92 1291.83 674.83 1308.13 677.27 1313.89 678.7 1313.04 683.33 1316.67 656.25 1323.38 646.76 1327.37 633.09 1333.67 629.17 1336.21 622.73 1341.43 618.91 1345.25 613.62 1352.79 597.24 1372.28 586.46 1398.57 579.27 1415.54 578.11 1424.2 578.15 1432.63 577.75 1448.28 572.05 1480.44 561.97 1493.54 546.01 1510.56 523.23 1526.39 501.75 1534.42 475.6 1535 471 1532.36 456.37 1525.74 445.76 1518.98 438.93 1509.74 431.58 1502.28 425.29 1495.35 414.38 1484.25 392.52 1484.25 392.93 1481.34 398.31 1481.75 403.97 1481.36 411.87 1482.45 410.16 1479.33 371.55 1477.22 351.69 1475.96 334.5 1480.71 331.8 1481.84 322.84 1483.82 310.84 1485.91 293.66 1489.96 281.78 1492.27 273.47 1493.1 268.47 1493.1 261.32 1492.36 244.77 1492.48 229.55 1493.04 216.17 1491.54 201.19 1489.29 195.57 1486.77 192.64 1483.08 188.55 1477.94 185.18 1471.26 177.8 1471.51 179.15 1458.75 179.19 1448.76 178.52 1447.11 177.35 1438.13 174.93 1434.51 174.35 1431.58 188.08 1431.64 186.94 1421.98 187.94 1409.28 187.64 1403.46 185.77 1395.3 191.8 1356.8 204.99 1323.61 204.86 1289.28 197.51 1254.4 179.55 1235.06 166.65 1220.71 154.09 1206.14 159.58 1201.26 177.2 1193.4 180.21 1192.65 195.8 1192.82 205.48 1190.47 206.65 1189.12 215.84 1184.64 220.43 1182.02 226.86 1180.18 230.5 1178.34 237.31 1178.72 239.89 1177.83 240.93 1172.76 244.48 1170.37 245.15 1162.31 245.94 1158.92 242.98 1154.33 237.28 1153.62 237.28 1150.6 232.7 1145.65 229.68 1145.01 227.56 1140.4 230.5 1134.22 230.52 1132.36 234.51 1126.89 229.4 1125.08 229.06 1122.12 225.83 1118.41 226.98 1115.89 228.78 1106.98 229.94 1105.18 230.41 1101.38 233 1092.46 234.74 1089.95 233.48 1085.83 234.73 1083.84 233.78 1077.23 231.15 1071.9 234.51 1065.8 233.03 1064.26 224.38 1059.98 218.44 1053.75 216.78 1050.08 208.77 1048.84 207.08 1043.18 211.27 1040.43 203.8 1021.08 203.69 1011.38 201.11 1006.69 196.77 1004.8 191.6 1000.66 186.24 998.19 184.87 994.25 179.81 993.99 177.63 989.18 171.46 986.83 169.49 985.12 166.06 984.07 162.66 982 162.89 978.34 164.23 976.03 173.55 973.31 176.05 970.75 183.03 965.69 186.74 958.01 189.41 957.15 196.99 960.51 204.5 955.83 212.42 957.17 216.1 956.77 220.01 961.65 225.37 962.32 231.28 957.53 231.98 955.48 231.79 945.13 230.49 944.45 228.62 936.67 229.98 930.44 227.22 925.56 229.3 923.31 230.76 920.03 230.61 917.62 226.98 916.1 221.41 910.38 216.32 904.17 213.87 899.26 212.36 897.78 212.07 891.71 213.75 885.44 210.75 875.84 209.73 863.12 209.82 857.32 208.35 851.86 202.8 847.1 197.29 847.94 196.98 846.05 193.62 841.61 193.58 837.7 192.3 831.5 190.18 827.88 188.25 821.42 186.3 819.47 183.03 820.02 178.01 817.25 171.72 822.08 167.64 826.87 163.2 829.51 160.93 829.25 148.47 830.91 140.75 829.06 134.08 831.02 128.83 831.2 125.75 828.15 122.18 827.15 112.98 828.95 107.81 828.39 103.32 825.58 100.48 822.53 96.94 821.8 93.76 823.57 87.12 821.71 83.39 823.32 78.97 822.03 75.84 819.61 73.83 814.45 73.69 807.18 76.05 801.94 75.21 800.71 76.47 796.55 75.65 788.99 68.09 782.02 71.27 770.46 67.05 766.55 61.88 762.64 57.5 762.21 53.04 760.19 46.13 758.73 42.01 755.49 41.37 745.44 44.72 741.93 43.11 736.98 44.44 734.34 46.35 733.89 44.87 727.92 42.5 721.26 41.08 719.21 39.16 713.87 31.8 704.05 28.66 701.03 23.18 693.03 15.91 694.52 11.87 694.8 10.34 693.46 8.47 689.04 7.72 683.19 5.62 679.4 5.25 676.79 8.14 675.28 19.64 674.75 23.3 673.07 28.93 669.05 28.99 667.13 26.7 664.93 29.58 661.39 37.94 654.27 38.22 653.54 30.6 644.94 25.94 642.21 22.99 644.06 13.13 644.88 5.69 647.54 3.15 649.78 1 648.38 4.11 644.99 7.02 640.56 12.95 635.78 19.64 632.07 24.73 630.62 30.6 626.53 31.89 624.92 35.35 615.55 32.69 615.22 34.4 608.88 34.14 605.64 36.34 603.66 40.3 602.79 44.56 599.3 47.62 594.65 48.99 588.48 53.21 583.63 57.49 576.74 58.16 574.57 61.62 572.4 63.5 569.45 66.79 566.12 69.64 561.73 71.84 560.63 74.41 557.58 76.46 557.5 78.93 551.7 81.56 548.1 85.38 545.24 89.64 544.08 93.33 540.44 97.01 527 97.43 520.6 98.6 518.53 97.67 513.38 100.83 500.61 102.2 496.7 105.09 491.15 105.15 489.1 110.29 482.17 119.27 476.33 125.41 475.31 129.35 468.77 136.99 464.06 138.33 461.62 144.18 453.99 157.43 442.5 159.57 441.36 164.22 437.28 167.36 431.78 169.36 429.54 172.71 422.68 173.91 417.8 178.4 411.43 180.31 401.94 180.61 397.36 185.35 392.11 202.86 382.52 209.53 380.96 214.22 377.91 216.84 374.07 220.57 364.13 219.19 358.8 222.52 356.41 225.36 351.77 232.6 344.29 237.52 343.25 239.73 339.01 242.48 337.6 245.89 333.96 246.8 327.47 255.6 319.25 262.3 315.64 266.33 312.75 269.12 312.14 274.94 312.77 273.48 316.23 271.21 317.9 271.28 326.99 275.79 327.82 279.63 329.38 277.03 336.69 281.34 341.52 283.92 342.97 288.41 343.04 291.89 346.21 290.09 355.47 293.05 358.54 293.45 364.81 296.24 367.61 297.62 373.49 294.55 386.17 296.96 390.99 301.12 389.59 305.04 389.7 310.59 391.6 311.1 388.78 314.67 384.19 318.87 383.23 323.8 383.59 327.15 382.26 329.33 377.08 333.18 374.85 339.54 374.07 342.31 372.47 340.41 369.41 340.86 362.6 343.12 361.82 346.04 367.13 348.04 367.91 357.5 368.4 360.34 370.17 364.87 368.98 369.06 370.57 374.42 370.46 381.63 374.19 386.83 374.74 387.47 371.6 389.22 368.54 390.34 362 388.55 357.46 389.61 355.35 389.15 352.36 386.19 349.86 383.41 342.32 384.43 338.9 388.66 333.39 387.99 331.17 390.29 326.01 388.46 323.02 388.96 318.24 392.21 315.96 394.44 316.49 400.91 312.79 401.21 309.01 403.92 307.38 405.89 300.11 405.17 295.02 405.65 293.44 403.83 287.79 404.39 281.42 409.16 279.83 410 275.28 413.35 274.81 423.85 268.62 428.46 264.72 433.95 258.63 434.44 256.36 440.99 248.82 443.02 245.85 450.38 239.1 454.72 236.37 455.48 222.91 455.45 214.93 454.9 208.71 452.8 200.41 443.79 182.66 445.42 180.3 453.81 174.69 460.37 172.27 468.23 171.9 486.41 172.24 486.59 160.56 487.32 138.75 487.7 134.95 489.23 130.21 492.85 124.88 506.16 110.41 514.88 110.4 525.59 105.63 528.18 68.54 541.37 64.36 540.89 71.23 550.73 69.77 559.77 57.66 571.94 66.75 578.14 64.76 580.61 68.31 583.22 70.01 592.28 69.99 592.53 53.69 605.04 53.67 605.1 33.23 606.73 31.92 626.45 32.67 632.23 31.92 636.4 30.13 678.58 4.97 682.74 12.31 684.59 12.16 682.39 7.11 682.31 4.01 685.54 1.93 689.43 1 689.27 3.94 690.13 12.11 691.37 14.55 Z" id="33042000"/>
</g>
</svg>