<?xml version="1.0"?>
<svg xmlns="http://www.w3.org/2000/svg" version="1.2" baseProfile="tiny" width="800" height="987" viewBox="0 0 800 987" stroke-linecap="round" stroke-linejoin="round">
<g id="sigung">
<path d="M 798.21 383.83 797.22 384.53 796.41 385.71 798.15 389.08 798.89 391.33 799 392.44 798.18 397.97 798.26 402.77 796.91 403.41 797.66 405.23 797.87 406.81 797 409.09 796.51 409.3 796.84 413.73 797.72 414.9 792.38 415.34 790.98 415.96 789.83 418.42 789.78 419.38 788.67 420.86 786.76 420.71 785.19 421.91 783.9 423.64 782.63 422.81 780.67 423.22 778.42 425.21 775.84 424.96 775.23 425.69 770.73 425.48 768.23 426.09 763.35 426.59 762.71 427.63 761.34 428.81 759.03 430.16 757.7 431.19 755.61 431.65 752.28 435.02 751.44 436.3 749.99 437.35 747.26 438.14 743.73 440.3 740.45 441.52 739.71 440.58 735.06 435.55 733.09 434.89 731.67 432.83 731 432.65 729.76 429.81 730.65 428.62 730.63 426.37 729.07 425.14 728.4 423.26 726.23 422.08 725.11 422.07 722.91 420.49 719.95 419.68 719.29 419.17 718.52 414.93 717.8 412.5 715.83 409.76 718.38 405.28 718.02 403.46 718.68 398.72 717.02 396.6 714.57 396 713.21 396.42 710.09 396.19 709.16 394.87 707.87 394.01 706.11 393.37 703.74 391.73 702.4 391.99 700.13 391.61 697.89 389.75 697.09 390.72 695.5 391.39 695.03 392.88 694.26 393.64 693.61 396.21 692.28 396.96 689.26 393.77 688.38 392.29 687.01 392.32 685.79 391.53 684.01 390.88 683.5 390.19 680.59 391.33 679.44 389.77 678.11 389.53 676.85 388.81 674.33 390.91 671.09 390.79 666.5 389.84 663.94 391.55 661.13 390.93 660.4 392.51 659.58 393.41 659.3 397.15 659.55 398.02 658.64 398.94 656.35 399.95 655.23 401.92 655.28 405.12 654.17 405.46 652.69 407.46 651.04 409.2 649.01 410.13 646.43 410.96 641 412.04 640.46 412.99 638 414.98 637.72 417.22 636.42 417.84 635.72 419.26 635.23 422.86 633.32 424.37 631.24 425.4 626.73 427.34 623.84 428.76 621.98 430.69 619.22 431.55 617.34 431.25 614.14 432.59 611.84 432.17 611.13 431.44 610.78 430.23 607.46 430 603.7 427.64 603.02 426.5 600.63 426.06 600.11 423.87 596.72 422.68 595.42 421.81 594.34 422.07 593.12 421.84 587.96 422 585.76 420.83 584.88 421.22 583.02 422.69 579.37 420.91 578.33 417.18 578.49 416.36 576.75 414.42 575.82 413.92 575.13 410.29 571.01 408.68 569.93 407.87 568.37 408.17 566.71 409.95 565.53 410.37 563.62 411.97 561.76 410.88 558.88 410.91 553.38 413.47 551.53 413.28 549.98 414.56 549.91 412.67 551.21 407.7 550.15 406.53 549.62 405.02 549.63 402.61 548.68 400.25 547.95 399.21 545.13 397.59 544.04 397.23 543.12 396.1 542.96 394.91 542.32 393.45 542 390.59 541.09 390.12 539.67 390.02 537.71 390.64 534.04 389.63 532.32 390.14 530.16 390.05 529.06 390.67 528.01 392.21 527.58 394.17 526.07 393.93 523.85 394.89 523.27 395.48 521.09 396.16 519.03 397.29 516.69 397.63 513.87 397.04 511.53 394.14 511.75 393.2 511.12 389.66 510.08 389.01 510.24 385.97 509.77 383.3 507.01 383.63 505.89 383.07 503.85 382.69 500.64 381.34 498.13 381.6 496.67 379.99 494.64 378.13 492.69 379.88 489.59 381.2 488.46 382.34 485.36 385.95 484.41 387.84 484.3 388.89 482.45 390.4 480.63 393.44 478.65 394.22 477.25 395.94 475.81 396.36 473.78 397.53 470.79 397.98 468.71 397.72 467.02 399.88 465.79 400.81 465.17 402.17 462.99 404.3 462.2 406.55 462.49 407.5 462.24 408.74 461.13 409.92 461.08 412.4 460.27 413.5 457.96 415.25 455.28 418 455.57 419.08 456.45 419.99 456.14 422.06 455.52 423.59 456.45 425.91 459.6 430.64 459.48 432.31 457.09 433.19 456.36 434.27 455.88 437.11 456.22 438.83 456.06 439.78 452.95 440.56 452.26 441.64 451.43 441.3 450.88 442.52 449.01 444.08 447.46 444.95 446.59 444.41 445.02 446.51 444.34 448.75 441.9 450.92 440.46 453.16 438.62 455.19 437.03 455.49 435.87 456.47 435.53 459.01 435.61 460.64 437.14 463.49 436.38 465.28 434.7 464.86 433.08 464.08 432.49 464.25 431.49 465.6 427.52 466.46 426.61 467.24 425.04 467.32 422.63 470.86 420.03 474.05 420.07 475.34 418.49 478.18 415.94 480.91 415.53 482.36 414.34 483.19 412.32 486.37 411.88 489.44 410.82 489.86 410.2 489.54 409.04 490.23 409.72 492.63 409.45 493.8 410.15 494.9 409.91 498.01 409.22 499.2 409.19 500.22 410.72 502.2 413.85 504.87 413.81 506.81 414.26 508.87 414.88 509.87 416.07 510.79 416.31 512.11 418.47 513.87 419.53 514.25 420.65 517.62 422.91 519.71 422.88 520.24 423.99 522.41 422.41 524.53 421.51 525.05 420.46 526.75 418.95 528.47 418.75 529.3 416.97 530.69 415.6 534.46 415.37 536.17 415.82 536.93 415.6 537.91 416.08 538.79 415.82 540.16 414.36 540.76 413.68 544.52 412.24 547.13 410.51 546.99 409.95 547.72 406.79 548.65 405.3 550.3 403.6 550.51 403.01 550.97 402.97 552.37 399.33 552.97 396.85 554.64 394.9 555.3 393.67 556.17 392.45 555.86 390.7 558.01 389.02 557.56 387.75 557.61 385.38 556.43 384.3 556.91 383.07 556.2 381.28 557.19 379.3 556.8 377.63 558.71 375.51 559.74 372.25 562.59 369.09 562.44 367.68 563.13 366.48 564.28 366.22 566.34 361.94 570.7 361.84 571.57 359.5 572.33 356.22 572.26 354.29 570.83 352.06 570.72 349.38 571.74 346.88 572.4 345.37 574.52 339.7 577.34 337.25 576.1 334.77 576.52 333.42 578.41 332.95 581.44 333.62 586.55 331.89 588.04 331.85 590.24 330.66 591.13 328.07 590.2 327.44 589.75 325.19 589.89 323.71 591.36 320.83 591.62 319.81 591.52 317.12 592.98 316.33 593.07 314.28 594.61 312.67 594.76 311.83 595.54 310.02 596.47 308.88 597.75 307.15 599.23 306.51 600.64 306.48 601.77 305 604.42 304.52 604.87 302.1 605.46 299.91 609.45 298.95 609.79 295.95 611.52 296.72 614.7 299.52 618.39 300.99 619.46 302.73 621.61 303.26 622.66 303.35 624.8 303.8 626.61 304.75 629.09 304.89 631.03 306.35 632.5 306.52 634.73 306.43 637.65 306.98 639.56 308.37 641.65 310.72 648.23 313.82 650.29 316.64 654.53 315.04 656.23 315.79 662.24 315.31 663.41 315.65 665.55 316.38 666.56 316.5 669.36 315.33 670.82 315.75 672.82 315.73 674.87 316.01 676.34 317.35 679.07 315.6 679.94 315.32 681.76 314.38 684.22 312.65 687.84 310.26 687.93 310.06 689.49 310.91 691.63 310.06 693.63 308.8 694.97 309.72 696.84 310.23 699.36 310.09 700.45 310.5 702.18 309.43 703.76 309.28 706.89 310.4 707.24 311.53 709.78 311.08 710.72 311.78 713.46 313.82 715.67 314.04 717.16 314.82 719.78 314.26 724.72 316.79 725.92 320.18 727.81 322.28 730.39 324.44 730.94 325.7 733.78 326.87 734.22 329.8 734.43 327.06 735.16 324.75 735.23 323.34 735.5 320.85 737.94 319.96 739.69 318.52 740.15 317.58 741.37 316.17 745.74 314.46 746.59 312.05 746 311.25 746.75 309.82 746.97 307.79 748.61 307.12 750.03 303.81 752.11 302.4 752.84 301.11 754.58 300.65 755.96 301.89 760.91 299.95 762.28 296.04 763.89 295.41 765.95 291.21 765.26 290.46 766.98 290.34 770.27 289.11 771.9 288.18 774.79 286.4 779.22 284.93 779.51 282.19 781.36 283.83 784.86 281.21 790.26 280.12 789.75 279 790.38 275.17 791.04 275.99 794.25 277.4 796.67 276.9 799.24 276.25 801.22 276.23 803.02 275.3 803.42 274.01 804.61 273.07 807.47 274.17 809.08 274.02 809.64 272.26 810.51 271.5 811.3 267.29 812.7 269.48 814.35 270.73 816.08 269.41 818.64 269.06 821.3 269.53 822.65 269.33 824.31 268.61 825.09 267.42 828.09 268.03 829.8 267.32 831.37 266.7 833.52 265.02 837.27 265 837.83 263.89 840.14 263.13 840.67 262.62 842.03 260.9 842.23 259.72 843.39 258.24 843.93 258.24 845.83 257.76 846.73 255.81 848.51 255.41 849.6 255.47 852.09 255.04 852.79 253.84 852.79 253.04 853.42 252.8 854.51 251.79 856.54 250.63 856.53 249.2 861.27 248.76 863.6 249.05 865.45 249.47 866.25 249.9 869.23 245.29 869.34 242.62 870.51 240.07 871.85 234.55 873.93 233.93 873.21 228.67 875.38 225.21 877.11 212.55 883 207.89 885.61 200.43 891.72 198.78 893.61 194.17 896.62 193.52 897.62 185.02 904.6 183.69 907.82 179.95 914.52 178.83 916.95 177.28 923.06 176.86 925.81 175.76 930.59 174.38 935.37 173.61 940.64 173.2 942.3 170.97 951.98 166.24 973.66 165.66 976.96 164.77 979.5 163.96 980.79 161.04 984.67 157.49 985.77 148.66 986 141.43 984.67 137.25 973.66 136.13 971.43 134.36 969.07 131.11 964.25 130.59 962.66 130.29 960.55 130 952.79 129.88 951.65 128.78 949.05 126.69 941.95 126.41 940.64 125.58 939.21 122.43 934.85 120.9 932.42 119.76 929.64 115.75 921.06 112.34 912.22 111.82 907.04 113.74 902.25 118.42 890.99 121.03 885.41 129.97 874.61 135.44 869.9 145.53 860.36 147.94 852.8 146.25 847.14 143.73 841.58 138.3 839.49 124.73 844.86 116.2 848.32 104.57 850.11 98.75 849.69 92.72 846.8 84.91 838.85 83.22 836.48 81.49 833.02 81.18 830.86 81.71 826.6 82.73 823.71 84.97 819.55 85.89 816.72 87.63 813.96 88.68 812.93 91.3 808.56 93.12 803.32 94.39 800.66 95.39 797.56 98.4 783.69 97.13 777.36 88.91 775.6 88.29 775.69 86.47 774.27 85.9 774.6 84.94 772.33 81.04 765.93 80.12 765.59 78.96 761.55 78.96 759.7 78.22 758.44 78.61 757.55 78.47 756.41 79.14 755.38 78.14 754.29 77.74 753.13 76.64 751.62 76.87 749.26 76.54 744.51 76.59 742.84 76.29 735.9 71.8 733.93 69.03 733.34 66.95 734.29 65.88 733.99 64.74 734.88 63.56 734.82 61.18 734.18 60.27 733.21 58.16 733.23 57.72 732.66 55.97 732.86 55.39 731.57 54.85 728.96 50.83 726.14 48.78 725.85 47.5 726.04 44.63 724.81 39.13 720.81 34.1 720.65 33.65 719.2 32.02 718.79 31.22 716.49 30.28 715.33 29.26 709.58 27.47 708.68 27.28 707.05 25.5 705.26 22.06 703.28 18.9 704.82 12.28 704.85 11.72 701.97 12.35 700.67 9.96 697.29 10.75 696.04 10.85 693.8 10.61 689.76 9.8 688.08 10.05 685.99 7.7 683.77 7.41 682.96 5.36 679.83 5.03 678.54 5.89 676.5 5.66 675.52 3.43 674.67 2.45 672.46 2.15 670.92 2.15 668.05 1.05 666.81 1 665.37 1.61 664.11 1.22 660.92 2.93 660.61 5.29 659.57 8.52 657.22 10.15 657.49 12.42 656.84 15.56 655.53 19.4 651.89 22.59 649.24 22.59 647.93 23.93 646.02 22.91 643.74 21.39 638.43 21.08 636.67 22.22 636.08 24.57 633.01 24.6 631.3 25.39 630.54 26.41 628.14 26.12 627.03 25.95 624.5 25.06 620.73 25.55 618.32 24.74 617.47 24.72 613.61 25.24 610.71 25.03 608.64 23.87 606.81 23.83 603.35 22.44 601.52 21.45 601.19 21.18 599.56 19.53 598.77 19.1 597.1 19.69 594.83 19.33 593.38 21.16 591.51 20.48 590.31 19.4 589.61 18.7 586.83 18.74 585.56 18.06 584.25 17.06 583.94 16.63 581.17 17.1 579.56 11.31 578.55 9.72 578.81 7.04 578.27 5.92 578.9 5.08 575.82 5.1 571.83 6.06 569.43 6.25 567.16 6.67 566.45 7.17 562.24 5.75 559.17 5.07 554.31 6.31 554.17 8.06 555.53 10.4 557.04 10.6 558.32 11.97 559.96 13.77 561.47 18.01 561.92 19.03 561.65 21.38 559.69 23.02 559.06 23.42 558.51 26.17 557.34 28.59 557.21 29.33 556.74 34.29 558.6 37.22 560.75 37.71 561.5 40.92 562.78 41.16 563.79 42.8 565.53 45.27 565.92 47.25 567.77 47.87 568.94 49.05 569.89 51.18 570.85 52.16 570.39 52.26 571.8 51.85 573.23 52.8 576.54 54.78 576.56 60.39 576.04 61.76 575.56 63.01 575.53 64.24 574.79 64.47 574.16 65.62 573.67 66.54 572.25 67.52 571.53 69.33 571.08 69.24 570.38 69.91 569.23 70.57 568.95 72.49 568.97 75.76 567.84 77.47 565.93 78.78 566.14 79.35 564.98 81.91 563.03 83.5 562.61 85.25 560.47 85.91 560.52 87.67 561.57 92.22 561.03 93.13 561.35 93.3 563.21 94.87 564.24 95.6 565.4 95.8 567.01 97 568.54 97.98 569.1 99.37 567.77 99.77 565.15 99.36 564.27 100.7 564.09 101.74 561.08 100.63 560.55 99.88 559.31 98.92 558.65 98.78 557.53 96.99 555.79 95.77 552.52 97 549.61 96.18 548.34 96.22 547.31 94.52 546.21 94.33 544.91 93.49 543.96 91.5 543.58 91.35 542.01 90.32 540.83 89.6 538.73 86.7 538.94 86.23 536.86 85.55 534.97 84.82 531.27 84.85 529.93 86.31 528.66 86.35 526.78 87.73 523.42 88.31 522.43 90.07 521.27 90.27 518.6 89.29 518.42 88.22 517.22 87.15 517.09 85.43 516.28 82.58 517.45 81.84 517.56 80.93 515.92 78.43 515.32 76.75 515.41 75.5 514.16 74.17 514.1 71.36 515.94 71.06 516.97 70.29 516.94 68.67 517.99 67.54 519.96 66.24 520.24 62.93 519.2 61.19 518.18 59.03 518.55 58.43 519.13 56.95 517.83 54.45 516.6 54.94 513.75 53.91 511.45 55.23 509.81 55.21 508.73 55.84 506.95 56.59 505.8 57.15 503.2 57.21 501.66 56.73 500.44 55.47 498.63 55.93 496.94 56.45 496.56 55.71 493.97 55.69 492.86 56.59 490.94 56.53 489.85 57.14 487.32 56.62 485.89 57.74 483.3 57.44 481.71 58.5 482.14 60.77 480.28 61.21 479.16 62.83 477.39 62.18 475.81 63.18 474.23 63.06 471.4 62.68 470.47 63.7 469.9 65.88 467.66 68.19 467.58 69.16 466.64 70.24 466.71 70.99 465.64 71.14 464.59 70.4 463.33 70.32 460.29 71.08 458.26 73.91 459.25 74.85 458.68 76.6 458.49 77.56 458.94 82.72 457.89 84.04 455.93 85.76 456.39 85.69 455.15 86.64 453.59 88.23 453.68 88.97 452.98 90.93 452.98 92.03 452.32 93.42 452.98 94.1 453.73 95.85 452.93 96.9 452.08 98.35 451.77 100.17 452.08 99.31 453.59 100.43 454.43 103.31 454.95 105.77 455.72 106.19 455.28 109.23 454.43 109.99 453.76 110.66 452.04 111.42 452.33 112.96 452.04 113.61 453.45 115.13 453.3 116.48 451.76 114.99 450.16 113.39 447.36 132.08 435.93 131.06 434.2 132.26 432.38 133.79 431 132.02 428.02 131.19 424.36 130.88 421.46 131.04 418.34 131.57 413.1 130.76 413.95 129.08 418.31 128.78 419.86 127.26 420.93 125.6 421.64 126.73 418.56 127.18 416.32 127.16 415.21 126.36 410.72 126.28 408.32 126.54 406.37 127.32 403.36 127.6 400.31 127.63 390.31 127.21 381.58 127.6 381.59 127.37 375.02 127.09 371.09 126.56 368.37 125.56 365.47 125.93 362.73 126.28 361.98 128.04 360.38 126.52 357.02 126.6 355.4 128.04 355.06 127.46 353.5 124.91 353.36 124.02 352.94 122.18 351.19 122 352.79 119.79 351.03 120.59 349.99 119.24 346.17 118.98 343.12 119.13 339.83 119.1 333.45 119.2 332.14 118.54 328.89 116.2 327.75 113.87 325.98 110.44 324.01 108.15 322.19 105.57 319.41 96.55 313.19 93.59 311.58 92.37 309.44 92.2 307.76 90.99 306.19 90.4 303.48 90.18 301.19 90.6 299.02 91.15 297.71 94.6 295.06 95.98 292.35 96.08 285.75 95.34 276.72 94.72 271.73 93.32 265.89 92.24 265 91.45 263.71 93.69 262.91 94.69 263.17 100.9 263.17 104.81 263.33 104.48 259.06 106.62 258.68 108.62 258.69 113.27 258.42 116.2 257.95 117.01 257.2 117.91 255.2 119.02 254.4 122.45 255.09 124.2 255.06 127.97 257.15 130.37 257.45 131.53 256.16 134.62 255.91 136.14 256.13 137.38 254.97 138.26 252.85 141.98 250.86 143.27 250.35 144.79 248.61 146.31 247.3 148.73 247.56 152.8 241.81 154.45 239.85 155.91 239.54 157.25 237.71 159.51 238.28 165.55 238.56 166.17 238.41 166.68 237.15 168.97 237.63 171.16 235.36 172.36 233.73 174.76 233.16 175.38 233.42 176.66 232.77 179.08 232.6 179.91 231.67 181.09 231.44 182.62 229.48 184.38 228.49 185.66 228.39 187.02 227.78 188.32 225.93 190.38 225.38 193.67 222.96 194.49 221.05 195.09 216.27 196.59 215.06 198.77 215.16 199.83 212.95 201.68 210.34 203.21 208.81 204.38 208.91 206.14 207.98 208.28 207.59 211.27 206.72 214.07 204.31 216.71 202.59 215.29 201.76 214 198.64 215.23 196.72 216.61 196.42 216.75 194.78 217.93 194.49 219.75 193.1 221.5 190.36 222 188.77 223.03 188.74 224.36 187.58 225.74 189.04 226.37 189.18 228.02 188.69 229 187.99 229.99 188.62 231.19 188.84 232.33 187.71 233.03 188.4 236.32 189.44 238.21 190.43 239.66 190.06 240.61 188.57 242.45 187.69 243.2 186.46 243.26 185.16 246.06 182.44 247.22 182.6 249.48 181.4 250.33 178.71 251.54 177.42 251.76 176.52 253.03 175.33 255.11 176.95 256.84 176.39 259.75 176.42 260.43 177.29 263.12 177 266.91 175.36 269.01 173.8 271.13 173.35 272.53 173.43 273.73 174.42 275.03 173.7 278.3 173.65 281.1 169.87 282.3 170.99 284.32 171.81 285.82 172.79 288.67 173.35 290.51 172.89 291.49 173.12 292.75 172.39 294.64 171.78 295.29 172.75 297.01 172.15 298.21 172.41 299.34 171.57 300.29 169.09 301.58 168.21 302.24 165.18 303.86 164.47 304.35 163.27 307.49 162.21 308.74 162.86 310.26 162.32 311.85 162.46 312.33 160.55 312.96 160.41 314.25 158.57 314.7 155.68 315.94 154.92 316.33 153.94 319.64 151.26 320.7 151.58 322.09 150.67 323.55 148.98 324.25 145.74 324.89 145.71 326.73 144.48 328.06 142.2 329.28 141.7 331.86 142.06 333.97 140.84 335.4 141.94 336.68 140.83 338.13 142.12 339.97 142.03 341.79 142.52 344.53 144.42 346.56 139.95 346.9 138.6 348.83 137.88 349.36 137.12 350.46 136.87 350.99 135.59 353.32 132.68 357.29 132.1 358.67 130.13 358.22 129.01 357.64 125.84 356.13 123.23 356.22 119.36 357.91 118.07 359.94 117.7 365.74 114.56 366.8 112.17 368.41 110.82 369.19 109.37 369.09 107.59 369.94 106.31 371.98 105.8 373.09 104.62 373.11 101.88 375.05 101.66 376.09 101.07 377.39 99.44 378.12 99.57 380.36 98.33 383.9 99.87 388.02 99.61 390.63 98.08 392.39 96.77 397.45 96.03 398.76 95.68 400.75 95.92 402.52 95.05 405.19 94.7 407.18 94.17 408.51 94.53 410.84 91.44 411.96 91.43 412.98 89.28 413.93 87.88 415.29 83.87 415.38 79.27 415.2 78.68 417.39 76.34 419.67 74.53 420.12 72.9 421.41 71.24 422.91 70.62 425.66 71.38 428.73 74.5 432.18 76.98 434.24 78.06 435.43 79.16 438.22 76.74 438.28 75.83 440.23 74 442.38 72.94 444.3 73.63 446.11 70.4 452.14 70.97 454.94 69.39 456.24 69.6 459.7 68.98 460.74 66.14 461.78 65.85 463.16 66.43 465.39 66.35 472.85 68.7 474.63 72.06 476.99 73.36 480.22 75.7 480.48 80.64 483.19 84.96 486.11 84.82 487.69 84.17 489.92 86.4 490.93 86.86 492.39 86.78 494.42 88.27 496.38 88.96 500.41 87.88 502.16 86.44 504.82 86.66 507.2 83.5 513.73 79.32 513.71 77.83 514.8 77.08 515.53 75.6 515.07 75.01 516.19 72.74 520.42 68.37 520.62 67.06 523.95 62.51 523.54 61.34 524.05 58.3 525.03 57.97 525.54 54.62 529.31 49.64 529.4 47.84 532.76 46.84 533.65 43.31 531.41 40.12 531.29 36.91 529.97 33.52 531.32 29.72 529.53 24.56 530.41 21.82 531.47 16.2 530.55 14 532.69 13.14 533.06 11.46 535.03 8.94 535.35 7.74 536.92 5.03 536.56 3.77 537.22 2.37 536.98 1 540.2 1.77 542.3 5.48 542.1 6.45 542.95 8.52 543.77 8.86 544.15 9.9 545.89 11.41 546.53 11.35 547.21 12.71 548.44 13.63 548.85 14.65 550.31 15.98 551.74 19.54 554.11 23.25 555.55 24.72 556.88 25.64 559.1 25.96 560.33 26.96 561.77 27.48 562.96 29.97 564.19 31.32 568.9 31.93 569.82 32.77 570.68 34.2 571.75 34.76 572.75 37.52 574.22 38.56 574.26 40.17 577.03 39.39 580.48 39.64 582.93 39.29 584.59 39.32 585.15 36.1 586.34 34.13 586.44 32.17 587.76 30.87 589.11 30.18 590.17 29.14 592.22 29.64 593.21 31.04 594.4 31.69 595.19 34.16 595.15 37.59 594.5 38.58 595.04 40.08 596.68 42.1 597.14 44.64 597.87 44.94 598.36 46.15 599.47 47.34 599.59 48.2 600.8 49.73 602.69 51.09 605.02 53.77 606.68 55.25 608.49 55.75 610.76 55.48 611.58 56.57 614.05 58.87 618.05 60.69 621.42 60.37 624.28 59.31 626.85 60.84 628.27 60.68 629.44 61.79 630.85 64.23 631.59 64.93 631.42 67.54 630.97 68.2 631.12 69.57 630.56 70.84 631.02 72.87 630.88 73.58 631.92 74.95 631.97 75.94 631.12 76.92 630.25 80.38 632.91 84.08 633.25 86.2 636 87.54 638.32 90.42 641.13 88.59 641.95 88.47 642.94 89.62 645.79 90.82 645.62 91.62 648.66 94.45 651.69 98.02 652.66 99.5 652.57 100.89 652.94 101.94 652.98 103.98 657.26 106.01 658.8 106.32 658.61 109.37 657.55 114.31 657.74 117.58 657.46 119.36 656.86 120.19 656.87 121.4 657.7 122.03 659.27 122.25 661.03 123.62 663.13 124.28 665.16 125.79 668.15 126.88 670.98 127.45 671.18 128.99 672.07 130.18 672.07 131.93 673.42 132.87 674.38 132.76 675.81 133.79 677.55 136.44 677.85 137.74 680.48 138.97 683.22 143.33 681.42 147.44 682.37 148.19 685.32 147.53 689.41 145.18 690.86 144.58 692.11 144.87 691.46 147.28 690.08 148.65 690.21 152.66 689.93 154.44 688.59 155.98 688.32 157.59 688.9 158.44 689.45 160.18 688.88 161.55 687.95 165.37 686.94 167.09 685.91 167.24 683.63 170.28 680.41 172.59 679.81 173.9 675.35 177.02 673.98 179.37 672.92 180.69 670.87 182.07 668.99 182.99 666.94 183.23 666.16 184.36 663.98 185.86 663.08 185.86 659.73 187.83 658.18 188.4 656.55 190.35 656.21 192.71 656.81 194.64 655.67 196.55 654.96 198.71 654.53 200.99 652.19 203.32 651.05 205.48 654.03 210.3 655.93 212.61 655.14 214.68 655.35 217.54 656 219.01 655.91 220.72 656.13 222.44 652.75 224.37 651.77 225.76 651.01 227.5 650.47 230.21 649 232.15 651.41 235.07 652.72 235.59 653.58 236.55 655.13 239.64 655.95 240.69 657.24 243.41 659.87 241.24 662.12 240.16 664.23 239.41 666.35 239.43 669.85 240.24 670.72 240.07 671.43 238.94 673.02 238.26 675.52 238.59 678.1 240.47 679.46 240.7 681.81 240.04 683.54 240.27 684.09 241.76 685.1 243.32 687.07 245.47 685.62 247.82 686.6 250.35 686.51 251.43 687.1 252.34 686.86 253.16 687.7 254.73 688.56 257.6 689.45 258.82 689.79 260.42 691.08 260.96 692.94 262.66 694.06 263.34 699.55 265 703.67 267.52 704.38 268.7 705.71 269.93 707.91 272.75 711.88 275.62 715.79 272.97 716.4 272.94 720.03 270.58 722.14 274.31 722.13 275.67 721.24 276.63 720.72 279.97 720.24 281.96 719.42 282.6 719.15 285.39 721.14 286.61 723.12 287.55 725.4 289.91 726.49 291.91 724.97 295.35 726.52 296.01 727.34 296.85 735.22 297.82 737.67 298.04 735.44 300.56 733.8 301.54 735.45 303.76 735.14 305.49 735.27 307.08 735.9 308.53 736.79 309.46 739.23 311.36 740.49 312.12 743.57 313.13 746.08 315.04 747.7 316.66 748.09 317.68 747.94 320.77 746.88 322.73 747.48 323.35 749.53 319.34 749.79 320.2 749.24 323.94 748.47 326.22 751.4 326.92 750.39 329.58 753.09 330.83 755.55 330.59 756.65 332.22 758.95 334.02 761.79 335.93 765.97 339.68 766.29 340.39 767.68 341.34 769.1 341.32 772.24 343.38 773.42 345.24 775.23 345.46 777.02 348.12 778.08 349.39 782.59 352.94 784.84 355.44 786.02 356.28 786.74 362.31 786.77 363.65 788.74 363.85 791.36 367.65 791.64 370.16 792.56 371.34 795.78 376.47 796.07 377.6 796.22 380.17 798.21 383.83 Z" id="33041000"/>
</g>
</svg>