<?xml version="1.0"?>
<svg xmlns="http://www.w3.org/2000/svg" version="1.2" baseProfile="tiny" width="800" height="785" viewBox="0 0 800 785" stroke-linecap="round" stroke-linejoin="round">
<g id="sigung">
<path d="M 799 374.91 797 376.19 797.05 378.11 798.41 381.23 797.27 381.32 794.69 376.79 768.6 392.34 766.02 393.45 762.44 393.91 750.25 393.45 749.23 394.25 749.2 406.89 741.46 406.9 741.31 416.98 735.7 416.99 734.09 415.94 732.56 413.74 728.72 414.98 721.2 409.36 715.6 416.84 709.52 417.75 709.81 413.5 701.65 416.08 700.05 439.01 693.42 441.95 688.03 441.96 679.79 450.91 677.56 454.2 676.61 457.13 676.37 459.48 675.92 472.96 675.81 480.18 664.57 479.97 659.71 480.2 655.64 481.69 650.45 485.16 649.45 486.62 655.02 497.59 656.32 502.72 656.66 506.56 656.68 511.5 656.21 519.82 653.52 521.5 648.97 525.68 647.72 527.51 643.66 532.17 643.36 533.57 639.97 537.34 637.11 539.75 630.61 543.58 628.55 543.87 628.02 546.68 625.08 547.66 624.73 551.6 625.85 555.1 625.56 556.07 626 559.22 624.78 563.71 623.11 564.72 622.92 567.05 618.92 569.34 617.54 569.02 615.53 570.42 615.22 573.38 616.35 575.23 614.93 578.41 615.34 579.79 612.72 583.19 612.09 585.31 613.81 589.97 615.65 591.51 615.93 593.36 615.27 594.66 616.38 597.47 615.69 601.51 614.61 603.4 614.21 605.35 611 605 606.53 602.7 603.22 602.77 600.63 601.78 597.83 602.52 596.07 601.43 590.21 601.13 588.98 600.64 587.17 597.36 585.77 597.84 585.49 602.05 586.67 603.94 584.96 604.93 581.02 605.41 578.64 606.79 577.29 610 575.22 610.82 572.17 610.59 569.57 611.19 567.36 614.02 567.05 615.77 563.61 614.59 561.19 614.52 558.61 615.39 557.12 612.41 559.02 604.57 558.17 600.94 556.44 599.21 556.2 595.33 554.36 593.43 555.48 587.71 553.33 585.75 550.55 585.71 548.95 584.81 546.28 581.83 547.9 577.31 545.52 576.35 542.73 575.83 542.68 570.21 544.09 569.18 544.99 567.04 541.39 566.65 539.67 567.03 537.18 568.82 533.03 571.05 527.58 576.13 527.02 580.14 524.91 582.39 523.21 583.26 521.85 585.88 518.8 586.52 514.33 591.15 512.56 594.01 510.5 595.49 511.36 598.78 509.05 604.93 507.43 607.3 504.53 609.19 500.4 610.15 489.57 616.08 486.64 619.32 486.45 622.16 485.27 628.03 482.49 631.96 481.75 634.98 479.68 639.22 478.44 640.6 476.5 644 473.62 646.53 472.3 647.23 464.1 654.33 460.48 659.04 459.66 660.55 454.93 663.47 452.49 667.5 448.69 668.13 443.14 671.75 439.96 676.03 439.92 677.3 438.13 680.73 437.29 683.14 435.33 691.04 435.91 694.22 435.18 695.5 434.92 699.46 432.65 707.77 430.37 710.01 427.73 710.73 425.37 712.5 423.74 714.73 422.21 718.31 420.94 718.36 419.35 720.24 417.99 720.92 416.23 723.64 414.19 725.7 413.03 727.52 410.89 728.86 410.48 730.2 407.83 734.46 405.22 737.46 404.37 741.27 402.47 744.15 399.84 746.3 397.39 746.84 396.03 748.06 396.19 750.07 395.14 753.98 389.16 755.91 385.12 756.56 380 758.27 373.72 759.1 370.5 760.74 364.98 761.4 362.36 761.33 360.82 762.17 359.87 767.84 358.47 769.25 356.36 769.93 354.32 772.45 352.47 773.04 349.58 771.73 340.78 771.4 338.84 770.68 336.18 772.06 334.58 773.57 330.76 781.1 325.9 782.01 322.75 782.28 319.49 783.4 317.8 783.29 314.41 784 310.3 779.48 309.03 778.55 302.23 781.44 297.69 781.86 294.02 781.55 291.16 778.3 289.68 777.45 288.09 775.28 286.22 773.88 281.78 773.7 279.98 772.59 278.98 770.84 274.97 772 268.91 772.98 267.57 770.39 263.92 770.07 262.38 770.88 260.79 774.42 257.36 775.11 254.27 774.8 251.7 776.04 250.18 778.2 248.49 778.63 244.57 781.06 242.91 780.67 239.83 778.73 239.35 775.66 239.39 772.7 238.22 769.63 238.11 766.69 236.86 764.49 236.62 762.75 233.75 757.51 232.52 753.52 237.9 744.43 234.86 741.46 234.84 739.26 231.83 737.51 228.3 736.11 227.02 733.73 222.2 732 221.83 729.96 220.28 727.75 221.23 725.47 219.5 722.71 216.19 720.17 212.75 721.41 211.59 721.03 210.2 718.95 207.85 717.74 202.39 715.53 199.19 713.17 198.69 711.51 194.79 707.49 194.04 703.96 192.06 701.2 193.1 698.49 192.16 694.93 190.08 694.43 185.06 693.87 181.69 692.56 179.91 691.42 179.38 690.27 184.27 688.21 184.15 686.3 180.33 680.78 179.14 678.41 171.04 678.53 161.98 680.44 155.19 680.95 150.32 681.87 147.26 682.88 133.79 682.79 130.1 683.13 127.37 682.26 123.33 682.12 118.44 682.38 111.78 680.76 109.32 679.22 105.73 676.12 103.15 671.24 101.64 670.13 96.07 668.67 95.36 668.25 93.95 665.27 94.48 661.78 95.51 659.88 101.56 656.76 105.73 653.31 108.91 648.62 109.68 649.58 112.88 645.63 114.73 642.09 115.29 636.53 113.76 629.76 113.87 623.03 115.06 616.88 116.94 613.29 119.59 606.92 121.22 601.52 121.52 597.77 120.64 590.96 117.95 584.53 114.95 579.81 108.36 573.63 104.31 569.23 100.28 564.03 96.23 563.71 98.11 560.44 100.72 559.46 100.39 556.65 101.86 556.18 100.97 551.76 101.12 549.54 100.32 547.13 100.66 544.95 102.97 547.82 103.42 545.87 102.65 539.29 100.19 539.21 98.12 538.45 96.19 534.11 95.83 531.89 96.63 521.83 95.83 518.29 94.06 514.69 91.24 511.25 81.66 509.78 79.73 506.3 79.18 503.99 79.34 500.2 80.81 495.22 81.4 488.6 81.17 484.51 79.87 483.75 74.8 483.51 72.01 483.84 66.49 482.47 64.54 480.73 62.2 473.38 60.84 465.49 60.52 460.62 59.54 456.17 59.38 451.8 60.04 447.28 61 444.44 62.53 442.38 63.71 439.28 63.11 438.43 64.54 435.14 65.36 432 64.48 428.91 61.15 425.15 58.76 423.84 54.56 423.65 50.58 424.79 46.47 427.86 45.87 427.55 41.17 434.36 40.76 436.9 39.47 438.27 37.34 438.88 36.99 436.87 35.06 436.67 31.13 435.43 26.74 434.93 22.31 435.69 17.8 437.98 15.9 440.24 14.14 438.59 13.6 437.05 13.74 433.36 11.59 429.47 7.66 425.44 5.7 421.76 4.11 416.01 1 410.03 2.33 408.68 3.68 405.5 4.23 402.68 6.23 400.12 11.46 402.56 12.34 402.61 15.95 405.7 18.05 404.79 20.08 402.42 24.9 399.74 28.55 398 26.33 393.64 24.03 384.34 26.1 381.94 27.4 379.68 28.76 375.58 31.78 373.68 31.13 371.57 31.92 367.24 33.59 367.06 33.42 363.81 34.73 361.03 36.73 361.19 40.52 360.27 42.79 355.91 41.47 352.94 41.93 350.21 43.28 347.22 43.38 344.23 43.98 340.82 46.19 337.15 46.93 334.24 48.77 333.18 49.06 330.91 52.03 328.55 52.59 325.39 51.63 323.1 52.74 321.87 51.19 318.23 53.01 316.19 64.36 315.53 67.63 313.68 74.14 314.73 77.2 313.82 79.19 314.92 81.35 311.48 82.37 309.09 84.3 307.52 88.39 305.99 93.93 302.29 98.84 302.96 99.56 297.23 99.68 293.31 103.83 285.19 105.91 283.6 106.3 282.1 108.6 280.74 109.91 278.85 114.53 276.4 113.6 273.92 115.21 270.34 117.41 261.97 118.33 253.93 117.92 252.78 116 251.12 115.72 249.53 116.27 247.75 114.87 244.4 118.83 238.46 120.98 233.2 122.39 227.11 123.8 224.79 122.99 222.05 122.66 219.04 122.95 215.09 123.62 211.98 124.11 207 120.76 203.73 117.78 202.95 116.16 199.95 112.22 196.89 111.46 193.83 111.66 192.55 109.11 192.65 107.3 191.82 106.39 190.54 101.64 189.24 99.99 189.71 97.75 191.66 95.61 190.71 92.88 188.33 89.34 188.75 87.74 188.37 85.36 189.12 83.22 188.19 81.64 189.14 79.12 187.17 77.34 185.07 68.08 183.8 64.12 182.86 59.21 179.71 54.05 177.6 53.92 175.85 51.41 171.32 50.41 170.65 48.17 171.08 47.26 169.15 44.02 166.92 39.72 166.34 37.59 165.75 38.86 161.46 39.02 159.4 44.11 156.2 47.75 150.68 50.87 148.39 53.75 142.95 56.25 141.05 61.84 135.13 63.5 133.93 65.12 134.76 68.5 135.16 70.02 134.3 73.53 134.4 75.17 132.47 77.92 131.72 82.01 131.26 84.13 127.83 84.61 124.95 86.36 124.24 89.92 123.81 92.07 122.5 94.64 122.36 97.64 120.73 99.45 120.88 102.69 118.09 105.65 116.36 105.96 115.25 107.81 114.54 110.09 110.41 112.43 108.45 113.78 108.97 115.86 106.02 118.27 104.58 119.97 104.21 124.25 100.68 124.28 99.81 126.75 97.62 125.37 97.17 125.63 95.2 123.61 93.65 122.95 92.44 123.15 89.94 123.83 88.91 122.96 86.73 121.37 84.25 121.71 82.77 119.65 82.58 117.81 81.02 118.62 77.52 120.92 72.35 122.15 66.29 121.05 65.1 122.17 62.61 123.34 61.52 124.67 57.94 123.93 56.48 125.6 54.04 128.19 53.95 128.42 51.26 125.09 47.45 124.65 45.56 125.03 41.78 126.68 39.92 126.41 36.54 124.96 33.65 125.37 31.09 126.63 28.27 128.12 23.75 127.7 21.58 128.95 18.72 129.99 18.05 129.98 16.18 131.15 15.57 133 13.04 133 11.7 135.1 10.63 136.18 9.34 136.86 6.17 135.32 6.34 129.74 4.97 130.39 2.85 134.36 3.67 137.98 5.26 142.01 6.49 145.83 6.23 149 5.22 154.15 4.5 160.13 3.16 163.62 1 165.07 2.17 165.75 3.75 167.07 4.62 170.85 6 172.08 6.9 173.41 6.19 176.92 6.02 178.94 6.4 181.88 6.03 187.87 6.75 190.43 4.27 195.22 4.08 197.12 7.04 208.35 14.85 210.33 16.05 216.55 18.34 221.49 19.17 223.63 18.5 227.56 21.55 232.38 23.28 235.57 25.32 238.67 26.1 242.17 28.48 246.71 29.59 253.56 30.32 261.22 30.09 266.77 29.69 281.69 29.49 286.47 29.02 291.26 29.61 294.57 31.91 296.49 34.87 297.64 34.39 299.3 35.64 300.78 34.96 307.41 36.62 310.68 36.7 321.45 36.55 321.44 34.41 332.28 34.29 336.32 34.69 339.24 38.87 340.4 39.94 343.77 40.57 346.79 41.97 347.21 43.54 349.62 45.31 351.55 45.9 357.07 48.47 358.71 50.17 365.06 53.14 366.5 54.18 368.95 54.59 372.96 56.99 378.55 57.54 380.06 57.4 382.01 58.21 383.54 59.8 387.07 58.55 389.66 58.07 391.83 58.21 397.95 55.74 404.33 51.83 408.29 48.73 409.72 46.15 411.49 45.86 412.79 44.71 417.86 42.25 421.57 39.87 426.39 38 430.81 34.85 436.83 33.86 439.89 34.06 442.83 33.69 445.1 34.11 450.42 34.44 456.07 35.23 460.1 36.54 461.18 38.01 463.82 39.02 472.8 45.88 475.42 48.35 479.2 52.92 479.79 55.48 481.7 60.1 489.66 62.44 493.14 64.51 493.68 65.7 496.9 66.54 498.16 67.57 503.91 69.11 504.9 70.68 501.74 75.63 503.92 77.14 507.55 77.98 510.4 76.92 512.51 72.43 515.76 70.59 519.21 70.34 521.27 71.24 522.35 70.93 523.13 73.94 522.98 76.43 521.27 79.59 515.6 85.77 514.62 87.54 514.64 91.49 516.19 93.85 563.19 137.21 560.68 139.93 562.54 141.41 567.79 144.13 570.29 145.12 572.38 148.06 573.1 148.35 574.14 152.78 575.2 153.02 576.15 156.37 575.83 157.03 578.09 160.49 581.36 163.07 580.96 170.88 603.01 170.05 603.86 192.65 609.55 191.6 610.08 192.84 611.59 193.65 616.61 195.18 617.13 196.81 621 197.67 624.65 198.11 631.74 196.04 641.46 192.84 646.74 191.4 656.8 190.3 661.83 189.27 665.12 192.13 668.84 194.25 671.38 199.44 667.06 202.1 664.44 204.74 663.7 206.47 664.06 210.18 668.4 215.97 666.86 218.37 665.75 222.03 664.9 226.4 664.68 232.91 665.17 235.75 667.68 238.43 672.68 239.16 681.21 238.93 686.57 238.26 691.93 238.17 699.29 239.59 704.4 243.35 708.12 248.05 712.6 251.92 714.7 255.02 720.45 259.15 723.14 261.91 725.6 265.51 726.11 265.44 727.92 270.28 730.68 273.27 733.34 279.07 747.89 298.27 753.46 298.19 757.36 303.26 759.48 307.05 761.52 309.8 763.93 318.14 766.02 322.19 769.35 329.93 770.27 330.94 776.59 340.53 776.84 341.25 787.88 356.78 797.57 373.16 799 374.91 Z" id="33043000"/>
</g>
</svg>