<?xml version="1.0"?>
<svg xmlns="http://www.w3.org/2000/svg" version="1.2" baseProfile="tiny" width="800" height="620" viewBox="0 0 800 620" stroke-linecap="round" stroke-linejoin="round">
<g id="sigung">
<path d="M 577.06 30.33 576.26 31.82 575.9 32.97 574.91 34.86 574.07 39.28 573.98 41.06 574.6 43.08 573.21 45.17 572.43 47.61 573.03 50.09 573.37 54.19 575.42 56.1 575.53 57.67 577.41 58.85 578.29 61.15 579.22 62.04 579.54 64.52 578.12 66.27 577.34 67.77 577.35 69.87 579.04 70.4 581.43 70.59 581.72 72.67 583.76 74.77 585.44 74.79 587.13 75.57 587.56 76.97 588.96 77.29 590.07 79.67 590.53 82.55 591.41 82.63 592.56 82.3 593.42 83.29 597.06 85.61 598.11 84.97 598.95 84.99 599.41 86.22 600.88 86.34 601.64 86.05 603.7 87.34 605.08 87.5 605.75 87.07 607.03 87.15 608.02 88.63 609.83 89.45 610.7 91.13 611.92 91.73 613.64 90.71 614.77 92.67 614.68 94.27 614.92 96.2 616.14 96.18 617.75 99.28 619.95 100.25 622.49 102.05 624.65 103.21 625.38 104.62 628.89 106.53 630.68 108.69 636.53 107.1 637.23 108.95 638.73 105.83 640.06 102.67 642.17 100.09 645.44 101.67 650.44 102.92 652.91 105.25 654.24 107.9 654.37 109.48 656.35 110.52 659.61 109.67 662.62 110.37 667.64 109.32 668.35 111.11 668.97 113.24 672.17 112.89 679.75 109.09 680.4 108.26 687.48 107.58 694.01 110.21 697.86 111.54 703.98 115.53 703.88 119 703.62 120.67 706.7 122.09 709.68 123.87 712.51 125.41 715.53 130.96 716.47 134.46 721.8 135.95 724.35 137.59 726.37 143.46 727.86 149.8 729.56 153.16 729.97 157.32 728.78 163.9 727.99 165.67 726.82 169.96 726 172 725.95 175.91 725.57 177.85 725.04 178.87 726.72 180.16 730.03 181.32 732.02 182.62 733.12 183.76 734.58 185.89 734.83 188.44 735.3 191.22 736.62 193.45 736.37 194.19 737.97 194.8 740.7 197.16 742.63 199.23 743.87 199.33 746.02 198.57 747.06 199.12 748.51 198.8 750 199.13 751.45 198.67 752.67 199.53 754.36 199.33 755.32 200.43 756.33 201.03 759.12 201.39 760.33 202.13 762.45 201.62 763.39 203.16 766.11 204.59 767.59 206.39 768.37 206.71 769.48 208.41 771.19 209.56 772.38 209.93 774.35 210.12 778.07 207.78 779.16 208.53 780.21 208.77 783.4 210.05 784.71 212.37 788.49 213.91 790.6 215.57 790.9 217.12 789.77 218.29 789.69 218.75 788.57 219.82 788.06 221.25 787.91 222.51 787.5 223.32 788.26 225.41 787.8 227.3 787.99 228.43 788.86 231.49 789.53 232.26 790.17 234.18 789.3 236.06 787.97 237.37 788.59 239.25 790.07 239.76 790.56 240.64 791.73 241.68 791.84 242.33 792.75 242.84 792.31 244.15 792.54 245.54 792.19 246.63 792.11 248.89 791.54 250.15 791.12 253.06 790.81 253.49 791.48 254.52 792.14 256.32 792.47 258.68 794.61 262.2 796.94 263.78 796.92 265.11 798.58 266.18 799 268.9 798.56 270.93 796.55 273.37 796.21 274.78 795.58 276.33 792.1 278.65 788.89 281.76 788 283.6 787.76 284.88 787.91 286.52 784.88 287.64 783.55 288.41 781.4 290.46 778.77 290.4 775.8 290.83 775.59 291.95 773.82 293.43 772.35 295.45 771.75 296.81 767.34 299.17 766.45 299.76 765.34 301.48 763.38 304.14 761.96 304.63 760.58 303.83 758.25 304.52 756.74 303.74 756.29 302.94 753.95 303.64 751.74 303.73 749.7 304.21 747.64 303.81 746.55 303.96 745.14 308.97 746.16 311.01 746.42 312.31 745.4 313.17 743.09 313.54 737.75 316.43 737.29 320.98 736.64 323.26 736.98 325.01 736.61 325.77 736.2 329.6 738.38 330.24 740.51 331.41 742.51 333.82 744.84 335.15 745.33 335.1 747.15 335.91 748.27 339.56 748.61 341.56 749.52 342.2 749.91 343.14 749.79 343.82 750.86 347.9 749.7 349.8 748.94 350.39 746.69 352.69 747.19 355.6 748.04 356.95 746.56 359.68 746.57 361.13 747.75 364.96 747.84 366.52 746.79 367.41 745.15 368.29 744.07 369.37 742.87 370.21 744.33 373.55 746.72 375.75 747.44 377.58 748.53 379.06 749.81 381.85 750.33 383.39 747.8 386.75 747.19 388.98 746.94 391.14 746.09 392.62 744.33 393.8 744.01 400.4 744.9 401.02 745.86 403.07 744.99 405.94 743.64 407.4 743.14 409.49 743.16 412.15 742.08 414.09 741.27 414.93 738.44 416.03 737.25 416.03 735.95 416.44 734.25 420.3 734.25 421.73 733.27 425.14 733.98 426.79 733.55 430.49 733.25 430.89 732.76 433.07 731.7 434.56 729.89 434.51 729.22 434.82 729.3 436.16 730.64 436.54 733.31 439.68 733.84 441.11 735.11 443.02 734.11 443.94 733.57 445.42 733.7 446.5 733.35 447.96 734.43 449.71 734.85 450.87 735.72 452.08 735.68 454.42 735.96 455.58 737.04 456.91 736.68 457.66 736.38 461.59 736.87 462.49 737.49 464.44 737.82 464.83 737.34 466.61 737.57 467.9 738.13 469.05 737.63 471.14 736.64 471.42 734.5 473.75 732.89 478.5 734.3 479.58 736.06 479.06 736.74 479.47 740.41 479.23 742.66 479.27 744.16 478.18 745.76 478.42 747.41 478.06 748.58 478.32 749.45 477.85 752.75 478.14 752.89 479.17 752.77 483.65 752.55 485.23 751.92 486.97 751.39 487.8 749.27 489.07 747.91 492.93 746.19 495.33 745.48 497.77 742.28 499.71 741.41 500.07 740.67 501.48 739.77 502.22 739.27 503.37 738.62 503.55 738.28 506.19 738.82 506.65 738.5 507.66 738.61 508.98 738.07 511.25 736.65 511.45 734.88 513.77 733.69 515.72 733.9 519.63 734.47 521.79 734.12 522.4 734.67 523.25 733.34 524.99 732.72 525.25 731.63 527.1 729.69 528.34 729.13 528.97 727.45 529.19 727.18 530.08 726.25 530.73 723.37 530.79 721.81 532.06 720.34 532.12 716.28 531.8 714.73 532.36 715.65 536.05 714.93 537.94 714.9 540.61 716.33 543.71 717.23 544.14 717.7 544.85 717.35 545.99 717.83 546.97 717.76 548.17 718.87 549.04 718.46 551.15 719.03 551.69 719.58 553.16 719.38 554.04 717.82 555.04 715.09 555.4 713.19 556.34 713 557.84 714.51 558.53 715.16 559.24 715.59 560.35 716.58 561.61 720.81 561.16 723.09 562.31 724.57 562.46 725.74 561.33 727.57 561.23 728.87 561.53 729.87 562.13 730.66 563.32 731.93 563.52 732.54 562.88 734.87 563.23 735.58 562.48 737.37 562.5 739.23 563.61 739.15 563.9 740.4 565.8 740.75 567.09 742.61 568.69 743.11 570.95 744.24 571.93 744.28 572.98 745.13 574.09 744.51 576.12 744.64 576.77 745.61 577.79 745.45 578.38 746.5 581.84 749.01 583.26 749.87 584.82 750.72 584.71 752.65 585.08 753.53 586.74 754.33 587.02 755.16 588.19 755.06 588.82 756.72 590.2 755.82 593.95 755.08 594.44 754.67 596.93 755.77 601.06 755.36 603.05 754.8 603.8 754.67 604.99 753.05 606.89 752.5 607.87 751.45 608.61 749.36 609.58 748.7 610.48 748.2 611.91 746.94 611.88 746.18 612.33 743.34 612.15 741.25 611.52 740.26 611.76 738.19 613.64 735.97 612.71 735.06 611.66 734.34 611.8 731.87 610.35 729.95 607.5 728.92 606.55 727.75 607.03 725.6 607.2 723.8 607.88 720.77 608.04 719.61 607.4 715.95 607.2 713.97 605.07 711.74 605.84 708.53 606.02 706.43 605.13 704.21 605.97 703.45 606.57 702.5 608.15 700.95 608.72 700.07 609.93 696.8 609.87 694.94 611.35 694.83 612.02 693.68 613.31 692.72 613.19 690.25 612.1 688.39 611.78 687.84 611.25 684.56 611.99 684.01 612.26 682.44 612.14 681.42 611.17 679.49 611.2 674.66 612.23 673.2 611.6 671.69 612.21 670.52 612.14 668.09 610.33 667.4 610.68 666.05 609.9 665.42 609.88 663.62 608.9 662.49 608.09 660.96 608.16 659.95 612.32 659.47 613.2 658.75 615.59 659.05 616.24 658.37 618.18 656.4 619 655.82 618.6 651.69 618.6 651.45 617.41 649.52 615.51 649.93 613.89 650.06 611.96 649.94 608.91 650.28 608.25 649.54 606.4 648.02 605.66 647.11 605.63 645.73 606.34 643.33 606.31 641.97 603.48 639.26 601.07 637.48 600.71 634.67 598.9 634.66 597.76 633.82 594.65 631.87 593.72 632.14 592.44 631.37 591.55 629.49 591.29 627 590.5 623.88 589.13 622.65 587.25 619.88 587.19 618.88 586.76 615.1 587.14 611.86 587.08 610.27 586.81 608.81 586.26 607.63 586.29 606.25 585.62 605.29 585.61 603.84 586.29 603.3 585.81 601.7 585.84 600.6 586.38 599.46 586.46 598.98 586.1 597.5 586.29 596 585.96 594.34 586.16 593.83 585.76 590.64 585.25 585.99 585.52 584.48 582.35 581.12 582.71 579.42 582.78 577.72 581.38 575.1 580.53 573.97 580 572.46 576.02 571.65 575.04 568 572.14 567.4 571.2 566.39 570.54 565.5 569.15 564.19 569.6 563.83 570.26 562.4 571.21 558.99 572.92 557.17 573.67 555.2 574.17 553.17 573.62 552.43 573.98 550.7 574.11 548.5 573.01 546.57 569.61 544.78 570.02 543.14 570.14 541.29 569.82 539.6 570.48 538.47 571.22 538.34 572.26 537.88 573.09 535.26 573.65 531.14 573.42 529.36 572.94 524.96 573.31 524.13 572.36 521.63 570.99 520.27 569.77 519.26 569.57 517.65 568.53 514.36 567.09 513.96 565.29 513.1 563.95 510.93 562.65 509.36 560.01 507.7 558.31 506.44 560.4 504.72 562.55 503.53 564.47 500.93 564.96 498.91 565.02 496.55 565.67 495.46 565.06 493.16 564.44 492.34 564.91 490.65 567.16 488.5 568.52 487 569.22 486.2 569.07 484.88 569.7 485.09 570.97 484.34 572.86 482.47 573.45 480.85 573.16 478.5 575.05 478.53 576.43 477.98 577.48 475.79 577.87 474.52 576.67 473.43 576.63 472.11 575.98 471.27 576.05 470.11 575.48 469.11 575.6 467.62 574.73 467.41 573.29 466.62 573.03 466.1 572.16 464.62 570.78 463.65 570.2 462.62 568.96 460.49 568.91 459.88 568.37 458.66 565.93 457.08 564.6 456.62 563.89 455.28 562.77 453.45 562.82 452.15 561.91 450.94 560.59 449.62 557.26 449.1 556.54 447.64 558.59 447.13 560.7 446.73 563.4 444.98 566.03 444.54 566.98 442.12 567.89 437.31 565.7 436.84 563.93 436.06 562.74 435.41 562.85 435.26 561.58 435.64 560.05 434.11 559.68 432.79 557.95 430.66 558.89 428.78 558.04 426.36 557.49 425.22 557.71 423.98 556.68 422.58 555.18 420.81 553.9 419.09 552.93 417.82 551.85 417.17 550.71 415.93 549.26 414.61 546.62 414.78 544.92 414.32 544.09 413.06 543.04 412.12 542.88 410.5 541.28 409.53 540.9 409.65 538.25 408.59 536.63 405.85 535.78 402.52 533.61 401.92 532.81 401.5 530.81 400.58 530.46 399.53 528.44 396.77 526.14 396.33 525.37 396.49 523.17 397.2 521.01 396.93 519.44 398.15 516.05 398.74 515.5 399.79 513.08 400.57 512.17 400.79 511.28 400.45 509.96 401.18 508.57 400.44 507.78 398.42 508.39 397.03 508.08 394.97 508.04 390.97 508.48 390.25 508.13 389.91 507.12 388.91 506.39 388.34 505.18 387.47 505.76 385.62 505.92 383.33 507.05 380.12 507.78 376.96 506.71 375.37 505.51 373.4 505.54 370.75 503.86 369.68 502.43 368.86 502.72 367.29 501.86 366.42 500.95 366.47 499.71 364.89 500 363.59 500.46 361.83 499.54 360.02 499.16 358.49 499.12 357.8 498.26 355.31 497.77 354.45 497.24 351.55 496.44 351.11 496.81 348.48 497.69 346.84 498.93 346.32 498.89 343.54 497.52 341.65 496.15 339.11 492.69 340.13 491.19 339.7 490.38 339.65 488.6 338.99 487.26 338.36 484.61 338.31 483.26 337.07 482.14 336.2 480.89 336.08 478.68 335.83 477.65 336.35 475.99 335.66 474.8 335.96 473.64 336.43 473.37 336.24 471.79 337.77 468 339.53 466.62 339.64 465.38 339.42 464.05 339.43 462.44 338.42 461.72 338.81 458.85 338.23 457.12 339.54 454.9 339.68 451.99 339.31 451.29 338.24 450.72 335.88 450.54 333.37 449.37 330.81 448.98 330.09 446.35 327.66 444.13 324.39 441.61 324.07 440.82 320.71 438.8 319.12 438.16 317.54 436.71 316 433.79 315.31 432.82 312.2 431.32 311.64 430.73 310.05 430.19 309.54 429.49 308.35 429.38 307.01 429.7 305.78 430.74 305.03 432.01 305.4 433.5 305.05 434.51 304.04 434.8 302.82 434.56 301.55 436.36 301.26 437.89 301.65 439.33 300.42 440.77 299.09 440.52 297.37 441.71 296.16 441.85 295.65 443.03 294.72 443.17 294.01 444 294.12 445.35 293.86 446.26 293.01 447.33 290.5 447.33 290.06 448.13 288.36 447.68 287.13 445.4 285.51 445.68 284.25 444.07 283.3 442.21 282.22 441.49 281.8 439.9 280.22 438.59 279.28 436.67 279.26 434.31 277.46 434.42 274.09 436.39 272.46 434.59 272.34 433.37 271.8 431.29 271.02 430.21 269.85 430.12 268.41 429.3 266.51 429.06 264.45 429.63 263.74 432.01 262.89 433.31 260.84 434.1 259.66 436.01 259.27 438.02 257.14 441.76 256.65 444.05 257.03 446 256.86 447.15 255.79 448.82 256.25 450.43 255.4 452.54 253.4 452.98 252.12 453.54 250.44 451.75 249.43 450.38 248.52 449.77 246.61 447.86 243.83 447.18 241.48 444.82 240.71 443.42 239.71 442.12 239.15 443.17 239.25 445.43 238.97 446.45 238.85 448.23 237.09 449.79 236.07 451.21 236.32 452.19 235.13 453.71 233.78 456.66 233.82 457.48 233.02 458.67 233.5 459.84 233.57 461.24 232.93 462.13 232.91 463.05 232.26 465.64 231.77 466.66 232.66 469.32 232.77 471.38 232.17 472.25 231.65 473.62 230.3 476.09 228.7 477.12 228.06 479.28 227.16 481.1 226.84 483.22 226.93 484.62 225.92 486.96 225.1 487.59 224.02 487.68 223.59 486.96 222.88 486.75 221.36 487.2 220.35 489.13 217.7 490.98 216.49 492.2 216.27 493.53 217.38 493.86 218.23 497.13 218.07 497.95 217.01 498.25 216.58 499.09 215.03 499.01 212.38 499.39 211.02 500.04 211.1 501.61 211.82 502.98 212.36 505.18 211.68 505.76 211.17 508.38 210.74 509.37 210.81 510.41 211.31 511.58 210.87 512.17 211.44 513.62 210.32 515.5 210.83 517.28 209.58 519.34 210.01 520.7 209.32 522.18 207.84 523 208.19 524.57 207.75 525.64 205.41 527.18 205.12 527.83 205.05 529.25 204.59 531.08 203.38 532.52 203.16 533.32 201.58 534.12 201.28 535.12 199.99 535.91 195.96 536.41 195.21 536.18 193.13 536.15 192.05 535.86 191.35 536.49 190.49 535.41 189.34 534.94 188.66 535.23 186.7 534.49 184.74 534.26 184.01 533.83 183.84 533.04 184.29 531.09 184.15 529.72 182.92 525.31 183.57 524.56 185.19 523.97 185.39 523.4 184.86 522.43 183.87 522.03 181.52 519.99 180.84 520 180.22 520.63 179.26 524.42 179.14 525.48 178.17 526.08 175.82 524.98 173.46 524.47 172.62 523.4 173.79 520.55 173.87 518.09 173.72 516.17 173.33 514.4 172.24 513.82 171.32 514.25 169.44 516.82 168.28 516.98 166.55 515.89 163.43 516.26 162.22 515.11 162.28 514.29 163.49 513.01 164.04 511.68 163.45 510.88 162.41 511.22 160.1 513.22 158 514.44 156.71 514.58 155.9 514.29 154.71 512.44 154.98 511.2 154.63 510.23 153.85 510.06 152.41 511.4 151.61 511.82 151.08 511.44 150.93 508.61 152.17 506.59 152 506.04 149.47 505.16 147.95 505.2 146.71 505.99 145.84 505.91 145.36 504.45 147.64 502.77 147.84 501.98 147.13 500.71 146.63 500.53 144.73 501.22 143.37 500.15 142.94 498.12 142.13 497 141.3 497.64 141.68 500.47 140.79 503.5 140.09 504.89 137.91 506.14 137.87 506.59 138.56 508.71 138.7 509.71 138.41 515.08 138.13 516.55 137.2 520.16 135.99 522.97 134.63 524.55 131.44 527.89 128.25 530.78 126.01 532.52 124.61 534.28 122.71 535.61 121.01 537.74 117.92 540.02 113.23 543.97 111.18 546.13 108.75 547.41 106.4 549.61 105.67 550.05 101.84 550.5 92.32 555.21 90.46 556.63 90.46 553.33 88.6 554.76 86.02 557.04 84.29 559.91 83.69 562.87 82.21 562.87 81.38 557.44 82.07 557.66 84.22 556.85 88.59 552.63 88.99 551.47 92.52 550.16 93.57 549.13 91.71 545.01 90.46 545.47 88.31 545.81 86.69 545.52 85.07 544.98 84.06 544.42 80.29 541.63 77.17 530.86 73.88 526.75 70.57 525.17 70.85 524.68 67.69 523.41 66.81 522.61 65.63 522.93 64.61 522.5 59.09 514.29 56.89 505.18 57.74 496.1 52.28 492.75 51.51 493.23 48.54 494.02 47.6 493.37 46.03 494.37 45.75 495.73 43.38 497.01 42.45 496.06 41.39 496.01 39.85 496.4 38.51 496.38 38.06 495.94 37.21 496.13 34.65 496.26 32.92 496.62 31.4 496.39 30.16 494.95 30.04 493.62 28.98 491.77 27.82 491.44 26.52 491.47 25.21 492.19 24.31 491.67 24.48 489.58 23.71 489.1 23.14 488.1 22.42 487.62 22 486.56 21.01 485.8 20.19 485.81 18.78 486.65 16.93 489.71 14.16 490.52 12.53 493.35 12.06 494.91 10.33 494.44 10.28 493.99 7.48 491.63 7.31 490.98 5.18 489.22 4.33 488.28 1 488.33 1.34 486.96 1.97 482.59 3.12 478.64 4.03 474.68 4.37 472.4 5.65 467.34 6.58 465.33 9.68 459.78 10.78 457.12 17.81 451.34 18.34 450.51 22.16 448.02 23.52 446.46 29.69 441.4 33.54 439.23 44.02 434.36 46.88 432.93 51.23 431.13 51.74 431.73 56.31 430.01 58.41 428.9 60.63 427.93 64.44 427.84 64.08 425.37 63.74 424.71 63.5 423.17 63.86 421.25 65.04 417.33 66 417.33 66.83 415.65 67.03 414.75 67.69 414.23 68.69 414.23 69.05 413.65 69 411.59 69.33 410.68 70.94 409.21 71.34 408.46 71.33 406.89 72.56 406.45 73.54 405.49 74.96 405.31 75.38 404.19 76 403.75 76.92 401.84 76.94 401.38 78.34 398.27 78.84 396.49 79.43 395.19 78.93 393.78 79.92 391.29 80.51 390.65 80.68 389.27 80.28 388.16 80.57 385.95 81.66 383.83 80.63 382.41 78.82 381.03 82.31 379.88 82.93 379.23 84.39 378.5 84.51 378.04 83.6 376.7 84.38 374.34 85.44 373.35 86.22 373.03 86.23 371.53 86.77 369.89 87.18 367.77 86.02 365.76 85.34 363.11 88.5 362.56 89.43 362.04 90.34 362.46 92.5 357.99 91.14 355.09 93.41 353.56 94.62 353.32 96.1 349.65 96.86 347.26 97.88 345.91 97.98 343.18 98.61 341.76 102.08 342.33 102.6 340.63 105.84 339.3 107.43 338.16 106.41 334.06 106.79 332.92 107.86 331.48 109.03 330.88 111.76 329.15 112.32 327.98 114 326.62 115.18 326.44 115.84 325.82 117.83 326.31 119.25 325.61 120.41 321.99 121.19 320.97 122.38 320.6 123.12 319.14 125.18 317.13 126.35 316.9 128.26 316.84 130.52 316.24 128.1 316.07 127.13 315.7 126.09 313.35 124.3 312.89 122.57 310.76 119.76 309.2 117.67 308.2 118.13 304.11 117.48 301.94 117.31 300.71 115.62 298.88 115.04 296.61 115.41 295.83 114.48 293.73 113.55 293.44 113.67 290.85 114.55 289.54 114.22 288.11 114.34 287.21 113.91 285.12 113.15 283.58 114.19 282.46 114.9 280.81 114.19 279.03 114.36 277.74 116.33 277.67 117.77 274.67 118.55 272.64 118.78 271.13 120.22 270.41 119.12 268.14 118.88 266.93 118.9 265.23 118.55 263.58 119.52 262.37 119.42 260.05 118.82 259.22 118.54 257.44 118.94 256.48 118.32 251.5 119.64 250.09 117.3 246.58 114.74 244.88 112.79 239.43 111.64 237.7 111.19 236.12 111.27 233.7 111.13 231.85 109.92 230.63 109.8 229.03 109.01 226.98 108.64 225.48 108.57 223.71 108.14 222.84 106.69 221.05 105.48 220.17 103.16 217.12 102.53 214.48 105.01 213.05 105.8 212.77 107.61 209.47 109.61 208.98 110.01 208.61 111.23 206.41 111.26 205.48 111.79 204.31 113.22 203.09 114.16 202.03 115.66 201.26 116.35 200.61 117.69 200.48 119.38 199.21 120.03 199.14 122.26 197.92 123.1 198.01 125.48 197.8 126.71 196.58 128.57 196.46 129.09 196.83 131.23 197.61 132.22 196.87 132.25 195.05 133.68 193.81 133.12 189.59 133.51 187.07 134.63 185.51 136.69 185.16 138.71 186.19 143.4 183.85 144.65 182.1 146.71 181.56 148.93 180.71 150.78 180.8 152.37 181.99 155.08 182.04 157.02 181.41 157.1 180.69 160.64 177.08 160.86 175.38 161.85 174.42 163.01 173.86 165.63 173.98 168.33 171.62 170.08 170.77 171.46 169.19 173.1 169.51 174.58 168.69 175.59 169.27 176.49 168.88 178.45 169.86 179.5 169.81 180.89 170.18 182.34 168.41 183.35 168.66 184.36 167.94 185.98 167.4 188.03 166.01 191.04 165.52 191.07 164.36 191.55 163.98 192.97 163.8 194.19 162.44 196.81 161.67 197.27 161.06 198.71 161.17 199.89 159.01 200.45 155.91 201.66 155.41 201.88 154.27 201.48 153.54 201.67 152.73 201.3 152.11 201.49 150.69 202.61 147.57 204.09 146.42 204.25 145.73 205.5 144.3 206.37 142.9 207.12 142.47 208.42 140.72 207.51 138.92 207.53 138.48 205.66 136.75 204.74 133.96 203.86 133.64 202.07 132.18 201.88 131.09 200.89 130.33 200.37 129.5 200 127.8 200.04 126.19 197.45 123.98 196.19 122.34 196.2 121.5 196.78 120.52 196.97 117.94 196.4 117.03 196.62 116.06 196.06 114.07 197.02 113.5 197.53 113.77 198.41 113.42 198.77 110.87 200.44 108.24 201.42 107.56 201.77 106.36 203.87 104.09 205.18 101.74 205.15 100.68 207.29 98.04 209.3 95.11 210.59 95.04 211.34 94.4 214.63 93.68 215.45 92.56 215.94 92.42 217.28 93.07 218.67 93.42 219.3 91.93 218.03 89.57 217.97 88.22 218.24 86.13 219.21 85.31 220.53 85.06 222.04 83.38 223.23 81.53 225.25 79.73 225.82 77.88 227.11 76.14 227.83 76.58 229.12 75.87 230.66 74.58 231.12 73.57 231.81 73.84 232.38 72.95 234.95 72.31 235.08 71.52 234.8 70.09 235.19 67.74 235.8 66.85 237.77 66.12 237.87 64.74 235.27 60.83 234.5 58.9 235.02 57.63 235.27 55.92 234.54 55.17 234.3 54.27 236.52 52 238.43 50.55 239.1 49.64 239.14 47.58 240.06 46.61 240.26 45.58 240.02 44.8 240.68 42.93 242.48 41.17 242.99 40.05 244.01 39.27 245.41 37.48 247.13 37.7 249.6 37.33 251.28 36.36 252.47 36.01 253.63 34.59 255.27 33.94 256.77 31.42 258.31 30.18 258.4 29.31 259.18 27.74 261.75 24.75 262.68 23.81 265.24 22.71 266.86 21.27 268.54 22.81 269.74 24.14 271.82 23.93 274.47 25.04 276.16 25.36 277.09 25.82 279.37 25.55 279.76 27.75 279.62 30.27 280.49 30.81 281.01 33.74 280.82 34.52 282.76 36.92 285.09 37.41 287.03 37.13 288.73 36.2 290.54 35.63 291.01 35.15 292.85 34.35 294.1 34.55 294.45 32.92 295.33 31.65 296.24 31.13 298.02 31.21 299.44 30.79 302.48 31.62 304.1 31.11 305.27 31.2 306.03 31.58 306.29 33.95 306.82 35.16 306.95 36.14 307.71 37.08 308.62 37.38 310.95 38.72 311.55 39.58 312.34 41.54 312.33 43.53 312.76 44.78 313.64 45.75 312.57 49.86 312.62 51.43 313.91 50.36 315.44 50.53 319.99 48.41 322.37 48.38 323.91 49.28 325.49 47.96 326.47 47.61 327.84 46.13 329.13 45.89 330.02 46.56 333.43 47.89 334 50.9 334.77 51.31 336.21 52.92 336.07 53.6 336.93 56.68 339.95 58.16 341.49 56.94 342.22 56.62 344.04 57.59 348.31 57.45 349.31 57.64 350.21 57.43 351.28 58.15 354.08 59.14 354.52 60.95 356.49 61.32 357.05 62.26 360.17 64.21 362.91 64.4 363.21 65.4 363.79 66.01 365.7 66.35 368.34 65.25 369.89 65.49 372.18 64.78 373.71 63.18 376.1 62.01 379.84 60.4 381.55 59.55 383.13 58.3 383.54 55.32 384.12 54.14 385.19 53.63 385.42 51.77 387.46 50.13 387.9 49.34 392.4 48.45 394.53 47.76 396.21 46.99 397.57 45.55 398.8 43.9 399.71 43.61 399.68 40.96 400.6 39.33 402.5 38.49 403.25 37.74 403.05 37.01 403.28 33.92 403.95 33.17 404.56 31.86 406.88 32.38 409 30.96 412.79 31.75 415.47 31.85 417.56 30.11 418.6 30.7 419.7 30.9 420.65 32.19 423.05 31.25 423.48 31.83 424.95 32.36 425.96 33.02 427.09 32.99 427.83 34.21 430.32 36.85 431.42 36.23 431.96 34.11 432.6 33.48 432.98 32.25 434.3 31.69 434.96 30.88 436.81 32.43 438.69 32.74 439.79 32.53 441.76 33.89 443.22 34.42 444.28 35.13 445.05 36.22 447.63 36.41 448.75 36.06 450.78 36.56 452.15 38.31 451.61 42.24 451.91 43.75 449.8 47.46 451.43 49.72 452.02 51.73 452.66 55.24 453.21 55.67 455.66 56.33 457.47 57.64 458.4 57.65 460.2 58.63 460.75 60.19 462.04 61.21 462.05 63.07 461.32 64.05 462.34 66.4 462.9 66.55 464.07 68.25 465.7 68.8 469.54 72.97 470.16 73.75 472.87 72.74 475.79 70.95 478.05 70.29 479.25 69.42 479.95 68.37 482.7 65.57 484.43 65.19 485.53 64.35 487.44 63.22 488.57 62.25 489.1 61.38 493.14 60.97 495.21 60.47 498.93 60.64 499.43 60.04 501.56 60.24 503.43 58.59 505.04 58.26 506.09 58.95 507.17 57.51 508.47 56.52 510.04 56.64 510.96 55.41 511 54.62 511.95 52.59 513.11 52.07 517.53 51.71 516.8 50.74 516.53 47.07 516.93 46.9 517.65 45.01 517.48 43.71 516.85 42.19 517.98 41.67 517.91 37.69 518.59 33.11 518.5 32.2 517.88 30.34 516.44 27.54 517.11 26.57 517.93 25.99 520.45 23.65 521.51 22.09 522.52 22.08 523.37 21.37 523.74 20.26 525.53 20.01 526.93 20.82 528.39 20.23 532.06 17.95 532.51 15.61 533.44 15.52 534.12 14.95 537.83 14.98 540.93 14.48 542.16 13.77 543.36 11.18 543.95 10.92 544.29 9.91 544.96 9.68 547.14 8.21 547.73 6.84 547.82 5.54 548.46 3.77 551.91 1 552.86 2.27 556.2 4.05 557.29 4.48 559.83 6.94 561.06 8.61 563.27 9.59 566.03 14.05 566.49 15.3 567.77 16.82 568.38 17.94 568.38 18.84 572.73 22.65 574.48 24.56 577.06 30.33 Z" id="33520000"/>
</g>
</svg>