<?xml version="1.0"?>
<svg xmlns="http://www.w3.org/2000/svg" version="1.2" baseProfile="tiny" width="800" height="643" viewBox="0 0 800 643" stroke-linecap="round" stroke-linejoin="round">
<g id="sigung">
<path d="M 433.93 1.33 434.14 1.45 432.63 3.38 432.34 4.27 433.11 6.83 433.06 7.82 431.64 9 429.97 10.55 427.73 14.91 427.92 18.68 429.79 20.41 430.87 23 431.81 23.82 432.9 24.5 434.1 26.67 433.99 29.16 435.65 31.76 436.48 33.68 437.06 34.26 437.2 36.46 436.53 38.09 436.45 40.49 436.08 40.88 435.64 42.39 435.34 42.61 435.36 45.17 435 46.75 435.13 49.15 435.45 49.25 436.12 51.68 437.11 54 438.59 56.1 439.56 57.08 441.23 59.38 441.2 61.03 441.79 64.29 442.26 64.48 442.08 65.5 441.7 65.99 442.81 69.65 443.18 70.5 443.16 73.43 441.94 75.37 442.58 77.4 443.04 78.18 444.13 81.12 444.32 82.11 443.85 84.3 444.77 85.8 445.25 87.37 444.67 88.6 444.58 89.49 446.84 90.79 447.86 90.68 449.31 89.28 452.05 87.68 453.74 87.38 455.19 86.82 456.41 86.08 458.06 85.83 460.02 85.15 460.42 84.41 461.34 83.88 465.42 85.43 466.18 85.54 468.13 86.82 468.77 86.25 470.26 85.41 472.46 84.74 473.91 85.28 477.67 84.75 480.93 85.19 483.35 85.72 485.06 85.88 487.86 86.3 493.47 88.24 498.47 90.5 499.43 88.01 500.06 84.88 502.15 80.72 502.56 79.62 503.82 76.89 503.79 76 504.57 73.8 505.42 69.49 506.46 68.09 507.58 64.24 508.56 61.79 510.57 57.83 511.4 57.17 512.59 54.95 513.65 53.85 514.24 52.14 516.72 50.6 518.75 48.35 518.94 47.75 520.38 45.69 521.23 45.3 522.69 42.78 524.96 40.16 527.09 38.36 528.73 36.41 530.2 34.92 533.23 32.25 534.78 31.92 535.23 32.55 536.4 35.15 536.48 35.9 537.15 37.9 537.02 40.99 536.84 41.26 538.02 44.81 538.52 50.31 537.18 53.41 538.62 58.73 539.91 63.33 541.62 65.38 544.33 67.76 547.49 70.19 549.43 70.7 554.28 72.91 559.3 76.33 564.09 77.66 564.43 77.94 568.02 79.43 570.72 78.16 571.4 77.69 573.03 79.44 578.14 80.48 580.58 80.77 582.37 83.46 583.59 83.41 585.51 85.13 585.92 88.52 586.71 91.68 586.62 92.18 587.13 92.81 588.19 92.91 588.87 93.45 590.32 94.99 590.99 95.18 591.36 97.42 592.24 98.47 592.73 99.47 594.07 99.9 595.56 101.47 598.75 102.78 600.11 103.12 601.07 104.29 603.01 103.85 604.63 103.21 606.14 103.62 608.83 103.17 609.71 105.18 609.46 107.36 609.51 107.98 610.82 111.76 610.29 113.53 610.71 116.34 611.14 117.01 611.14 119.73 610.51 121.06 610.69 123.64 612.26 125.38 614.41 125.27 616.06 124.88 617.91 124.97 618.79 124.29 620.47 124.44 621.38 124.11 622.34 125.03 622.75 125.08 624.3 127.79 625.02 127.76 626.08 128.46 627.11 130.56 629.71 132.31 630.44 133.86 630.94 134.19 634.88 134.79 635.15 134.56 638.84 132.4 640.55 135.15 641.59 135.88 644.52 138.35 645.83 138.2 648.69 138.15 650.41 135.93 651.08 134.5 652.86 133.53 655.53 132.73 661.42 129.31 661.82 129.22 662.43 126.8 662.32 126.09 661.09 124.92 661.15 123.51 659.94 121.47 658.99 119.37 660.55 116.55 660.91 116.15 662.29 115.9 662.69 114.95 663.44 114.56 663.84 113.56 664.52 112.62 664.71 111.87 665.44 111.46 666.51 110.12 671.2 111.77 672.21 111.47 675.16 111.29 676.14 110.55 676.53 109.86 677.71 109.59 679 110.47 680.15 110.72 681.15 110.26 682.42 110.53 683.17 110.07 683.59 109.38 684.43 108.89 684.64 106.59 685.93 105.94 686.22 104.67 686.84 103.82 687.88 103.09 688.36 102.3 689.88 101.56 690.85 101.4 692.11 100.44 693.73 100.38 694.22 100.71 695.72 99.82 696.24 100.15 696.78 101.18 699.3 103.92 700.57 103.12 701.23 101.77 702.69 101.41 703.19 100.8 703.98 100.42 705.61 98.5 706.39 96.47 707.82 96.52 709.43 95.64 709.81 94.97 711.29 94.48 712.48 92.71 713.81 92.06 715.93 91.74 717.68 92.13 718.75 92.97 719.78 94.28 720.73 94.57 722.52 95.99 722.87 96.49 724.24 97.36 725.01 99.73 727.64 100.75 729.36 100.85 730.88 101.79 734.34 101.72 737.42 101.21 739.22 100.63 741.43 100.81 743.11 100.4 743.99 103.98 744.34 105.73 746.44 106.96 747.85 106.47 749.27 107.14 750 107.88 751.58 110.34 751.93 112.71 752.77 113.34 753.59 112.84 754.53 113.09 755.1 113.66 756.05 113.65 757.84 114.59 760.1 116.12 762.32 116.51 766.13 118.4 768.11 119.69 770.67 119.85 771.26 119.79 772.91 120.05 775.13 121.55 776.23 122.51 777.71 123.43 779.35 123.86 778.7 125.99 778.53 127.6 777.25 129.89 776.31 132.8 776.68 133.21 776.18 133.68 771.48 132.88 767.37 133.51 766.6 135.02 766 135.72 765.27 137.09 764.92 138.44 764.27 139.14 764.29 139.79 763.85 141.24 763.07 142.72 760.57 145.09 759.38 145.99 759.79 146.99 759.96 149.02 759.72 149.52 759.9 151.1 759.72 151.58 758.67 151.98 758.05 152.84 756.89 154 756.18 154.45 756.39 155.22 755.52 155.6 754.75 155.48 753.98 155.72 752.43 157 751.93 157 749.99 158.95 750.37 159.61 751.39 159.55 751.66 160.91 752.11 161.84 752.25 163.71 753.24 164.88 752.98 166.4 754.07 167.18 755.21 168.86 755.19 170.2 755.57 171.09 755.63 172.13 756.52 172.81 757.15 173.58 757.82 173.91 758.86 173.95 759.36 174.37 760.3 176.42 761.73 177.35 761.56 179.02 762.01 180.46 762.75 180.8 764.13 180.85 764.7 181.51 765.55 181.72 766.33 182.61 766.26 183.3 766.74 184.63 766.35 185.38 766.26 187.01 766.64 189.14 767.85 190.3 768.33 190.99 767.27 192.17 767.48 193.44 766.09 194.76 765.89 196.27 766.78 198.03 767.65 198.87 768.05 198.94 768.46 200.79 769.06 201.38 769.86 202.61 770.03 204.02 770.58 204.26 771.5 205.95 772.64 206.16 774.89 206.99 776.45 207.2 777.83 207.92 778.22 207.75 780.65 208.81 783.82 207.81 784.92 208.09 785.29 209.27 785.14 211.17 785.35 211.82 784.59 213.27 784.48 214.42 785.14 215.52 784.65 216.16 784.8 216.87 784.62 218.54 784 219.28 783.8 220.15 784.33 221.55 784.66 223.28 785.33 225.36 786.01 226.37 785.67 227.39 785.91 228.78 786.36 230.08 788.14 231.95 788.76 232.34 789.85 232.57 790.51 232.95 793.49 236.27 794.96 237.31 795.78 238.2 796.84 238.17 797.17 238.41 798.47 238.15 799 239.93 797.7 240.86 794.51 240.32 793.34 241.65 791.02 241.64 790.07 240.92 788.86 241.38 787.99 242.34 786.33 242.99 785.75 244.06 785.01 244.69 783.76 245.05 782.93 244.93 781.71 245.65 780.99 246.31 780.16 247.85 778.94 249.64 778.06 249.71 777.43 250.63 775.81 251.32 774.73 251.44 773.29 251.21 772.77 250.33 772.22 250.13 770.9 252.59 769.55 254.16 768.27 254.57 767.27 254.07 765.9 255.19 765.5 254.85 764.87 253.39 764.21 252.67 763.77 251.5 762.38 250.87 762.51 250.2 761.76 247.69 761.01 247.67 759.59 246.55 759.29 246.53 758.48 244.54 757.67 243.9 756.63 242.63 755.69 242.43 754.76 242.63 754.04 242.36 753.98 240.89 752.76 239.66 752.36 238.66 751.71 238.74 750.33 237.97 747.63 237.73 747.22 237.25 747.28 236.23 746.5 234.64 746.18 233.4 745.36 232.73 745.28 232.21 744.19 231.85 743.68 231.38 741.12 230.03 740.76 229.19 740 229.13 738.3 228.65 735.83 227.08 734.72 226.9 733.71 226.4 732.2 226.3 730.69 225.93 729.64 226.31 729.21 225.38 728.41 225.02 727.04 225.04 726.11 225.76 723.73 225 722.75 224.17 721.97 224.24 720.15 225.15 719.25 224.6 718.31 224.59 716.33 223.75 714.2 225.24 713.07 226.39 710.62 228.1 707.59 228.28 706.66 228.1 704.9 227.3 704.48 227.5 704.1 228.53 702.73 228.37 701.78 228.83 699.85 229.03 697.67 227.93 697.13 228.28 696.85 229.49 696.31 230.58 695.52 230.62 694.24 231.34 694.07 231.93 692.82 232.48 692.4 232.91 692.23 233.74 691.69 233.89 690.89 234.85 690.85 235.73 690.33 237.53 690.39 238.22 689.65 238.61 688.42 239.82 688.15 240.46 688.29 241.65 688.57 241.78 688.06 243.65 686.35 244.21 684.46 244.47 681.54 244.7 680.86 244.27 680.83 243.01 679.91 243.04 678.66 242.07 676.64 241.58 675.05 241.49 674.1 241.02 673.43 241.39 672.81 242.82 671.21 244.25 670.25 244.41 669.98 245.05 668.77 245.84 668.11 245.96 666.6 246.88 664.61 247.19 662.49 247.95 663.43 250.12 664.76 251.18 665.76 252.5 667.96 251.72 670.54 251.67 667.96 252.6 667.5 253.41 666.66 254.09 663.86 258.2 661.54 260.12 659.63 260.72 660.04 263.12 659.55 268.37 658.14 269.86 658.71 270.15 659.09 271.1 659.68 271.6 659.6 272.6 660.48 273.01 661.45 274.88 662.83 276.43 664.08 277.49 664.26 278.37 664.78 279.52 665.68 280.18 666.51 280.43 666.84 282.58 666.78 283.28 667.65 284.69 667.71 285.99 668.36 286.73 668.56 287.81 669.94 288.39 671.04 289.72 673.35 289.77 673.01 291.14 673.26 292.21 672.5 294.72 671.85 296.27 670.85 297.21 671.53 298.44 671.27 300.11 670.45 302.41 670.74 303.93 670.89 305.79 671.51 306.16 671.51 307.22 673.58 308.04 674.38 309.32 675.5 309.64 675.83 310.39 677.66 311.5 677.72 313 679 314.32 679.55 314.17 680.48 314.77 681.33 314.9 682.35 315.53 683.92 315.95 683.07 317.76 683.3 318.96 682.92 320.03 682.99 320.85 683.93 321.71 683.67 322.47 684 323.01 683.89 323.83 684.19 325.38 684.51 326.17 684.63 329.08 684.58 330.22 685.48 331.17 687.27 331.72 688.34 331.59 689.38 332.48 689.52 333.14 692.02 333.09 692.73 333.72 694.1 334.54 695.3 335.71 696.11 337.27 694.42 339.79 693.8 340.25 692.46 342.24 691.54 342.32 689.65 343.54 689.67 344.91 688.77 345.26 687.63 344.93 687.21 345.52 686.47 345.35 685.24 345.88 684.73 346.87 685.33 347.97 685.38 348.59 683.63 350.93 682.95 351.48 681.15 352.57 680.12 353.64 679.71 354.43 680.28 355.92 680.15 356.36 680.5 357.93 680.62 359.46 682.67 361.58 681.84 362.72 680.56 365.15 680.52 366.79 679.52 368.12 679.48 369.31 679.79 370.07 679.68 370.77 680.52 372.3 680.74 373.49 679.76 374.68 679.72 376.8 680.36 377.33 680.42 378.14 680.85 378.77 681.33 380.28 681.23 381.25 682.06 382.67 682.37 385.37 681.48 386.01 681.07 387.49 680.49 388.17 680.68 388.72 681.63 389.57 681.75 390.2 680.8 392.41 680.62 393.45 679.07 395.09 674.31 395.88 668.96 400.87 665.04 401.2 663.86 402.85 663.38 404.12 662.56 404.77 662.53 405.66 660.76 406.73 657.71 407.41 655.51 408.32 653.37 408.17 653.05 408.36 650.7 408.34 649.9 410.65 649.43 411.27 646.6 413.99 645.04 416.43 645.13 417.62 644.61 419.02 644.94 422.05 642.43 427.45 643.39 429.41 643.46 430.07 642.98 432 643.46 433.84 647.25 439.07 647.38 439.7 649.06 445.22 648.58 447.79 647.28 450.49 645.17 453.85 642.19 457.32 642.48 460.31 641.82 463.78 637.75 464.78 635.26 465.95 633.45 466.05 633.31 470.49 631.59 473.67 631.42 475.26 631.74 476.77 631.91 480.74 633 483.94 635.55 484.73 635.48 486.14 636.16 488.4 635.97 489.93 637.07 490.26 636.62 495.76 635.85 497.29 636.21 499.99 636.99 501.86 637.43 502.47 637.44 505.31 636.01 509.18 636.38 511.32 636.42 512.29 636.18 512.98 635.95 514.73 636.19 515.78 635.93 516.85 632.27 518.68 630.63 519.24 625.28 523.41 623.39 525.42 622.42 526.69 621.86 527.93 620.85 528.83 621.3 530.86 620.79 532.54 619.92 533.57 619.15 535.53 618.93 536.66 617.4 539.35 616.19 539.92 613.64 541.7 613.27 543.67 612.84 544.74 612.12 545.06 610.73 545.17 609.42 545.59 607.15 546.76 603.25 550 602.09 551.28 599.54 553.7 598.52 554.34 597.67 555.3 596.33 556.12 594.36 557.75 592.44 557.72 590.74 557.99 589.53 558.35 588.25 559.05 587.89 558.64 587.01 559.5 585.57 560.43 583.95 561.29 583.14 561.01 581.17 559.9 580.26 558.98 580.38 558.46 579.71 557.57 577.37 556.39 575.38 554.22 573.21 554.07 571.25 553.45 569.75 552.57 567.47 551.66 565.78 552.52 563.89 552.27 562.33 551.84 561.49 551.93 560.22 550.95 558.84 552.72 558.3 553.63 556.13 555.67 554.74 557.67 553.54 558.33 552.54 559.42 550.75 558.92 550.2 559.06 549.29 559.96 548.48 560.43 547.94 561.08 546.87 562.96 546.04 564.01 546.02 564.67 542.91 567.48 542.29 568.6 541.54 569.01 541.73 569.9 541.31 571.04 539.26 573.24 538.53 574.37 538.5 575.68 538.74 576.63 538.28 577.4 538.2 580.4 537.72 581.2 537.78 582.91 537.22 583.46 533.2 584.7 531.79 585.27 528.42 585.81 527.82 587.25 526.8 587.4 524.95 587.28 522.12 586.67 520.63 587.82 518.26 590.09 515.54 590.76 513.13 592.63 511.38 592.97 510.17 592.11 509.11 590.84 506.78 590.5 506.95 595.66 506.58 596.11 504.47 597.98 504.39 604.15 504.57 606.97 501.49 610.89 499.73 612.93 494.16 616.85 493.28 618.34 493.26 618.75 489.95 618.11 486.22 617.28 484.13 616.05 477.8 616.24 475.08 615.17 471.94 612.22 470.7 607.72 469.66 606.12 467.63 603.77 466.04 601.45 465.46 600.18 463.32 599 461.25 598.18 457.01 597.17 455.35 593.02 453.39 588.83 452.33 585.04 452.02 584.22 445.47 583.85 444.77 582.98 443.26 583.58 440.2 584.3 435.63 586.68 435.41 587.25 433.53 589.06 431.29 589.68 428.64 591.22 427.63 590.35 423.7 590.73 421.41 591.43 419.96 591.18 419.03 591.52 418.34 592.09 416.78 592.25 415.84 592.16 413.81 592.71 413.21 594.02 412.81 594.21 412.42 595.28 410.81 595.68 410.47 596.2 406.4 597.88 405.92 597.59 405.04 599.28 404.47 599.57 402.87 599.91 401.75 601.07 400.79 601.27 400.25 601.65 399.27 603.17 398.44 603.28 397.5 603.71 396.49 604.47 395.8 604.28 394.65 605.39 393.62 607.8 392.07 608.32 391.03 607.88 389.82 607.91 389.29 607.16 386.96 606 385.2 607.83 384 608.35 383.35 608.2 381.74 608.57 380.97 609.5 377.81 610.44 377.33 610.31 376.42 609.44 375.1 609.68 373.94 611.04 372.54 612.06 371.45 612.55 369.98 612.48 368.79 611.93 368.02 611.85 367.37 611.1 364.74 612.36 363.88 611.28 363.3 611.35 361.1 612.41 359.76 613.71 358.73 613.75 357.4 614.66 357.6 615.78 357.02 617.33 356.67 619.13 355.64 620.01 354.44 620.33 353.55 621.15 353.57 621.66 352.22 622.32 351.27 623.59 351.27 625.31 350.01 625.23 349.01 625.39 347.58 627.1 346.49 627.81 345.73 628.77 345.27 629.8 345.14 631.06 344.28 632.89 343.01 634.45 342.8 635.2 341.7 636.14 341.1 636.88 337.98 634.89 335.94 633.7 334.24 632.91 332.94 632.7 330.67 632.75 328.06 633.12 320 635.21 319.89 635.89 318.37 636.17 313.99 638.82 310.72 640.56 309.04 641.25 307.46 641.67 304.52 642 302.58 641.82 301.24 641.56 299.91 641.09 296.59 639.71 295.04 638.64 293.79 637.51 292.81 636.28 292.68 634.28 294.45 630.92 294.48 630.44 295.4 629.14 298.32 622.36 297.61 617.04 296.48 614.79 295.04 614.2 293.32 613.93 290.74 614.62 288.86 615.72 287.3 616.41 285.57 616.94 280.67 614.78 279.42 613.87 277.9 611.92 276.09 608.91 273.62 606.18 272.79 605.56 271.98 605.48 268.87 607.2 266.61 607.26 265.65 608.11 265.62 610.44 265.28 611.65 263.9 614.78 263.4 615.36 262.12 615.85 260.65 615.46 259.52 614.78 258.63 613.92 258.02 611.52 256.86 609.4 254.92 605.36 254.03 603.99 252.35 602 250.64 600.13 249.45 600 244.97 600.02 243.79 600.2 242.55 600.91 241.31 601.84 239.98 603.15 238.21 605.73 238.95 603.19 236.61 601.48 235.33 600.96 233.91 600.06 232.5 601.06 231.39 602.41 229.4 601 227.3 601.46 223.91 601.29 222.68 598.36 221.9 596.98 220.73 595.88 219.56 595.3 217.92 595.04 215.64 593.79 213.96 593.24 212.39 592.92 210.97 592.9 209.76 593.1 207.63 593.95 206.07 594.31 203.43 594.59 202.6 594.88 201.43 596.4 201.45 595.48 200.9 595.02 199.17 595.37 197.29 596.12 194.39 594.34 194.09 593.28 193.11 592.55 191.45 591.59 190.72 588.15 190.32 586.77 189.38 586.36 188.39 585.49 187.55 584.3 187.03 584.01 186.64 583.13 184.97 582.15 184.53 579.78 184.61 578.22 184.28 577.65 184.4 576.45 183.86 576.21 183.15 574.54 183.05 573.26 182.43 572.07 182.51 570.87 183.03 570.52 183.17 569.19 182.93 568.93 182.82 566.06 182.49 565.52 182.54 564.09 184.11 562.65 184.02 560.46 182.88 558.62 182.63 557.74 183.63 555.65 183.79 554.38 183.47 554.07 183.15 551.4 182.11 547.86 182.37 545.12 181.53 544.58 179.05 546.83 178.37 546.86 176.3 545.9 174.94 546.63 174.42 545.34 173.77 542.85 172.44 538.84 171.77 538.19 171.93 536.9 170.35 536.76 169.65 537.24 167.89 537.45 166.01 537.95 164.88 538.94 164.51 539.66 163.24 540.49 163 541.34 162.17 541.85 160.24 544.14 159.62 544.17 158.77 545.5 158.04 546.32 155.24 547.72 154.92 548.32 153.22 549.49 152.56 550.61 152.2 550.77 151.81 552.11 150.72 551.5 149.74 551.27 148.99 551.47 147.23 553.06 147 553.79 144.84 556.11 143.22 557.01 142.27 557.29 141.42 558.98 140.92 559.57 139.24 560.88 138.21 561.35 138.26 562.5 138.71 563.23 140.15 564.9 141.87 565.34 142.77 566.93 142.44 569.11 142.47 570.51 141.21 572.09 141.22 573.15 140.63 574.22 141.31 576.71 142.76 577.94 143.6 579.56 144.37 580.65 144.44 581.33 142.33 583.24 140.69 585.01 139.35 585.19 138.77 585.59 138.62 586.84 138.2 587.62 136.44 587.62 135.65 588.33 133.88 588.78 133.19 588.68 130.29 590.08 128.46 588.74 127.74 588.59 126.58 587.79 125.99 587.82 125.02 588.5 124.27 588.69 123.13 587.97 122.37 586.28 121.73 585.68 121.41 583.85 121.83 583.22 122.28 581.02 122.59 580.28 121.58 579.1 121.11 577.83 120.03 575.65 119.82 574.71 119.85 572.67 119.39 572.2 119.06 570.41 119.19 568.93 118.21 566.81 117.26 566.01 117.14 565.28 116.29 563.8 116.34 561.97 115.7 561.25 115.47 560.45 114.67 559.75 113.61 558.38 113.77 557.2 114.42 555.53 113.75 553.36 112.61 552.06 112.97 551.54 112.98 550.03 111.47 550.28 110.24 549.03 109.53 549 108.11 548.27 107.56 548.2 106.38 548.69 105.51 548.1 103.76 547.21 103.1 545.16 103.05 544.34 103.35 543.13 102.71 541.18 102.83 538.96 102.63 537.58 102.05 536.42 100.85 534.96 99.57 533.84 98.64 532.33 98.33 531.28 96.96 530.31 95.95 528.71 94.58 528.09 94.15 527.51 92.02 527.52 90.77 526.73 89.44 526.33 87.66 525.55 86.63 525.82 84.85 524.89 85.1 525.81 83.87 522.19 83.68 521.36 82.68 519.92 81.46 519.17 79.08 516.04 78.7 515.1 78.19 514.53 78.06 511.91 78.94 507.97 78.18 506.64 77.18 505.72 76.84 504.72 75.16 502.38 74.68 501.88 75.09 500.66 76.13 499.26 75.91 498.25 74.57 496.16 72.8 495.16 70.53 493.11 69.74 491.35 67.91 489.74 67.67 488.6 67.04 487.38 65.23 486.04 64.92 485.2 64.42 484.84 62.42 484.05 61.26 483.8 60.34 482.61 60.19 480.82 59.75 480.17 59.41 478.76 57.75 478.58 56.89 478.19 55.74 478.19 53.73 477.95 52.43 478.78 51.35 477.52 51.13 476.36 50.23 474.54 49.03 472.75 49.44 471.61 49.1 470.66 49.12 468.8 49.72 467.31 49.08 465.48 49.12 464.42 49.59 463.15 50.12 462.86 50.65 461.95 49.74 460.78 48.96 459.05 48.54 456.39 48.71 455.58 48.51 454.42 48.53 451.28 48.7 449.41 48.28 449.01 49.29 447.57 49.63 446.55 50.48 445.98 51.77 444.29 51.89 443.01 51.77 442.15 51.93 440.55 51.28 440.14 50.31 438.73 49.2 437.84 47.16 434.97 45.68 434.83 44.54 435.21 42.58 434.87 41.62 434.48 41.33 432.67 40.58 431.86 40.08 429.7 38.99 427.32 37.63 426.47 37.34 424.45 36.35 422.84 36.24 421.3 36.43 420.21 35.65 420.46 34.45 420.33 33.88 420.57 33.87 421.97 32.27 423.45 30.65 423.55 29.46 424.08 29.35 422.83 28.66 421.11 25.86 417.83 24.67 416.07 22.9 415.1 20.7 413.38 20.03 413.19 19.13 411.83 17.8 411.22 17.41 410.18 17.36 407.38 16.81 406.12 15.14 405.73 12.89 405.97 12.35 405.73 11.92 404.96 11.66 401.96 11.36 400.91 10.78 400.03 8.42 399 8.34 397.81 6.38 396.24 5.72 394.48 5.14 393.39 4.73 392.17 4.22 391.26 2.43 390.38 1.66 388.36 1 387.12 1.05 385.68 2.4 384.33 2.56 383.36 2.43 382.33 3.39 381.55 3.16 380.35 3.53 379.5 3.15 378.19 3.8 376.52 3.49 374.63 2.95 374.14 2.77 373.11 2.9 372.4 2.65 371.63 2.83 370.82 2.57 368.88 2.74 367.98 3.22 367.54 3.46 366.27 3.45 365.28 4.99 363.65 4.71 362.91 5.07 362.19 5.3 360.91 5.98 360.53 6.64 359.39 6.9 358.48 6.92 357.14 7.75 354 7.58 353.31 8.46 352.59 9.14 351.7 9.97 350.14 9.96 349.58 11.79 347.04 12.73 346.13 14.79 345.59 16.19 344.05 16.53 342.93 17.04 342.43 18.21 339.74 19.65 337.6 20.46 335.87 21.52 333.24 20.72 330.82 20.76 327.42 20.36 326.37 20.82 324.89 20.79 321.98 21.11 318.55 20.44 317.51 20.46 315.95 21.09 314.27 19.93 312.82 19.58 311.3 17.9 307.48 17.02 306.65 16.17 304.31 15.63 304.02 13.63 303.87 13.45 303.5 12.3 303.21 11.59 302.19 9.71 300.7 9.1 300.72 8.03 298.64 7.08 297.7 6.63 296.85 8.2 295.18 8.25 294.36 8.62 293.57 9.52 292.74 9.76 292.11 9.36 290.3 9.31 289.17 8.5 287.84 8.59 286.73 9.77 286.61 10.62 285.12 12.02 284.21 13.99 282.2 14.45 281.04 16.06 280.99 17.72 281.44 19.12 281.48 21.37 282.16 22.47 281.75 22.96 280.89 24.45 280.45 24.98 279.81 27.01 281.18 28.21 281.3 29.87 279.96 32.42 279.23 33.52 279.75 33.8 281.29 35.26 283.03 37.47 284.38 38.27 284.29 39.16 283.59 40.89 283.55 41.6 282.89 42.82 282.62 43.5 283.97 48.4 285.92 48.72 286.52 50.08 286.9 50.23 287.41 53.89 287.2 55.37 288.95 59.19 288.87 60.34 290.21 61.07 292.42 61.6 293.54 62.82 293.9 63.07 294.4 64.69 295.24 65.13 294.62 65.8 294.47 66.76 292.69 67.92 293.72 69.03 293.71 69.94 293.38 70.47 292.4 73.81 290.77 75.77 289.02 76.66 289.19 76.86 290.31 76.34 291.45 76.73 293.26 77.44 293.38 78.27 295.04 79.63 294.46 81.24 295.5 81.69 296.02 82.65 296.1 83.85 297.55 84.45 298.58 84.73 299.49 85.74 299.65 87.13 301.37 87.69 301.81 88.69 301.76 89.44 302.39 90.82 302.79 92.13 304.69 92.1 305.22 93.3 307.24 96.24 308.82 97.14 309.02 98.3 308.77 99.45 309.05 101.29 308.66 101.88 308.93 103.31 310.25 105.05 308.68 107.21 307.55 107.87 304.7 108.06 302.35 109.29 300.67 110.98 299.42 111.48 298.56 112.35 296.38 112.27 294.38 111.57 293.77 110.54 291.97 110.38 291.16 109.17 290.39 109.18 289.85 108.36 289.05 107.06 286.59 105.58 285.43 104.66 285.2 104.74 284.56 103.96 282.01 104.22 281.15 103.59 279.62 106 278.59 106.22 277.69 106.09 276.98 107.29 276.33 108.1 274.76 109 273.78 109.98 272.13 110.61 269.8 110.12 268.86 110.23 267.52 111.32 265.87 110.23 264.45 109.98 263.22 110.28 261.99 109.12 261.62 107.68 260.72 106.72 260.63 106.92 259.72 106.77 258.64 106.96 258.03 106.89 256.58 107.47 254.88 108.58 253.98 110.85 252.52 109.7 251.91 108.01 250.58 107.44 248.53 106.82 247.54 106.26 247.33 104.87 245.68 104.6 244.52 102.75 241.16 102.73 238.9 102.42 238.21 102.46 237.19 102.07 236.8 101.53 234.91 100.64 233.76 101.13 232.69 101.12 231.1 101.42 230.88 102.36 228.07 101.92 227.74 102.24 226.44 102.09 225.73 102.59 224.18 102.55 223.51 103.37 222.28 104.77 220.57 105.05 219.63 105.6 219.14 105.85 217.72 106.55 216.84 107.05 215.67 107.06 211.04 104.72 208.69 104.29 207.71 103.61 207.05 103.84 204.29 103.3 203.6 103.55 202.42 103.8 200.18 104.37 199.68 104.4 198.63 104 197.14 104.18 195.8 109.13 193.45 109.68 192.97 110.92 191.35 111.41 190.42 111.84 190.17 112.25 188.61 113.45 186.93 115.36 189.25 115.95 190.21 117.53 192.03 119.22 192.51 120.14 192.95 121.49 195.33 123.55 197.44 125.67 199.26 126.65 199.56 130.47 198.59 133.89 199.05 134.65 199.54 136.72 199.17 137.31 199.4 139.94 201.24 141.47 201.7 143.1 199.83 143.38 199.35 144.07 199.65 148.81 197.36 152.25 196.3 153.19 196.63 155.94 196.06 155.3 195.29 154.98 194.28 155.68 192.47 155.61 191.5 156.5 191.05 157.01 190.45 157.16 189.19 158.1 188.72 159.21 187.22 159.27 186.24 158.97 185.57 158.59 183.12 160.26 181.48 160.99 181.24 162.36 179.55 162.09 178.75 163.22 176 163.01 175.17 163.19 174.15 163.82 173.67 164.71 173.77 164.96 174.48 166.65 174.32 167.6 172.86 168.37 171.99 169.03 172.04 169.21 171.07 169.6 170.44 170.68 169.44 171.43 169.79 171.85 168.92 172.89 168.3 173.36 167.61 173.14 166.62 173.8 165.42 174.07 162.66 174.84 160.79 174.97 158.61 175.39 157.8 175.5 156.7 175.86 156.67 176.52 155.74 176.65 154.08 175.82 152.66 176.07 151.6 176.54 151 176.06 148.96 177 146.73 176.59 145.42 177.36 143.21 178.01 142.19 179.19 141.45 179.79 140.62 180.49 141.76 180.97 141.85 181.63 141.12 182.59 139.61 183.64 135.65 185.04 134.85 185.55 132.84 186.75 129.33 186.75 127.29 188.21 124.25 190.7 120.28 191.54 120.35 194 121.43 195.51 119.28 197.83 117.04 198.86 116.25 202.11 115.43 204.35 114.99 205.78 115.05 206.32 115.3 208.79 115.19 210.02 114.86 211.25 115.34 212.63 115.18 211.57 114.08 210.55 111.78 208.58 109.74 209.39 109.14 209.57 108.52 209.27 107.8 209.3 107 209.76 105.85 210.34 105.76 211.18 104.84 211.09 103.95 212.66 103.16 213.65 103.37 214.44 102.77 215.18 103.15 216.45 102.64 218.35 102.11 218.84 101.37 219.59 101 219.87 100.46 220.65 101.13 221.11 101.08 221.92 101.81 223.46 102.03 224.47 101.77 225.4 100.33 226.23 100.26 226.99 98.92 226.75 97.65 228.23 96.69 228.48 95.92 229 95.34 230.1 95.09 232.17 92.87 233.26 90.59 234.01 90.5 234.43 89.8 234.96 89.67 235.83 88.69 236.44 88.47 237.09 87.43 238.77 87.57 240.19 87.06 240.99 87.81 244.13 89.97 245.59 91.91 246.98 93.25 247.85 94.47 248.7 94.6 251.49 94.63 252.86 95.67 254.26 95.93 255.68 95.97 257.13 97.01 257.94 97.84 259.42 98.45 260.92 98.64 265.36 98.25 265.95 99.49 267.21 99.87 269.54 100.03 270.63 100.26 272.18 101.35 274.25 100.36 275.83 100.15 276.29 101.06 278.11 102.5 279.4 103.19 280.41 103.21 280.78 103.66 281.75 103.87 282.63 104.57 282.93 103.85 283.5 103.55 285.51 101.08 286.33 100.31 288.53 98.96 289.64 99.11 290.36 98.86 292.46 96.44 292.79 94.9 293.18 92.35 294.05 87.92 292.21 87.33 292.8 85.51 292.62 82.58 292.01 82.03 293.34 79.97 292.73 78.88 293.78 77.72 293.98 77.14 295.69 76.09 296 75.01 297.17 74 296.89 71.55 296.57 70.71 297.54 69.86 298.54 69.96 299.32 69.61 299.36 68.04 300.44 67.1 301.64 67.18 302.19 66.98 303.11 68.11 303.94 68.23 305.23 67.07 305.55 66.47 305.95 64.62 305.12 63.19 305.53 62.13 306.09 61.84 305.37 60.44 305.32 58.58 306.68 57.42 308.47 58.14 309.49 57.88 310.29 56.43 312.08 55.17 313.75 54.26 314.64 54.97 316.29 53.93 316.64 54.45 317.33 56.81 317.98 57.46 319.31 58.13 319.87 57.9 321.29 58.62 322.77 59.07 324.33 58.82 325.06 58.47 326.31 59.03 327.09 58.41 327.44 57.63 328.68 57.63 329.85 56.97 330.73 57.85 331.43 59.06 332.68 59.45 332.66 60.06 335.01 61.63 336.14 61.15 336.64 60.67 336.66 59.79 337.17 58.79 337.24 58.09 338.21 56.48 338.85 55.67 340.25 55.86 341.71 55.49 342.75 55.06 345.34 55.98 345.97 55.79 346.43 56.18 348.02 56.58 348.54 55.66 348.63 54.36 348.32 53.11 348.47 51.2 348.84 50.7 348.98 49.62 348.59 48.64 348.54 47.67 349.06 47.14 349.11 45.28 349.38 44.47 348.35 42.41 349.28 41.39 350.64 41.39 351.71 41.86 356.63 40.14 357.88 40.33 358.17 41.03 359.28 41.22 359.86 39.54 359.88 37.68 359.71 36.1 359.03 35.21 358.84 34.42 357.89 33.51 357.68 32.4 358.19 31.06 358.15 30.18 359.51 28.72 360.55 28.73 363.2 27.92 363.95 26.52 364.62 26.09 365.99 25.96 366.29 25.21 367.45 24.13 368.2 22.42 368.89 21.95 369.49 19.93 370.35 19.33 371.3 17.9 371.65 16.61 372.58 16.52 373.36 17.73 375.28 17.6 376.76 18.34 378.1 17.94 379.65 18.02 380.55 19.44 381.63 19.16 382.98 18.08 383.65 17.87 384.47 17.2 385.53 15.57 386.37 15.11 386.82 14.53 387.39 13.11 387.14 12.64 387.97 11.43 389.47 11.78 389.74 13.51 389.52 14.32 389.56 16.41 390.29 17.57 389.96 18.18 390.8 20.36 390.76 21.52 391.08 21.99 391.86 24.28 392.93 25.38 393.74 24.8 394.02 24.07 396.62 22.68 395.59 20.06 397.1 18.91 397.7 17.49 399.01 16.99 399.74 14.97 400.48 14.94 401.09 14.5 402.26 14.97 404.46 14.71 405.99 14.92 407.87 13.66 408.6 13.64 409.84 12.83 412.04 12.22 415.65 12.66 416.78 12.55 417.52 11.31 417.25 10.44 417.17 9.24 419.72 7.28 422.07 6.41 423.24 5.31 424.95 4.05 425.99 3.04 427.23 3.3 428.54 2.69 429.95 2.44 430.8 1.56 431.4 1.7 432.29 1 433.19 1.39 433.93 1.33 Z" id="33540000"/>
</g>
</svg>