<?xml version="1.0"?>
<svg xmlns="http://www.w3.org/2000/svg" version="1.2" baseProfile="tiny" width="800" height="759" viewBox="0 0 800 759" stroke-linecap="round" stroke-linejoin="round">
<g id="sigung">
<path d="M 772.7 283.79 772.81 286.58 772.81 289.93 771.73 290.91 771.03 293.28 770.08 293.99 769.78 294.83 769.55 296.81 770.37 297.3 769.94 298.4 768.76 298.81 768.64 299.75 770.26 301.52 770.66 304.36 765.5 306.43 763.88 307.51 763.85 308.74 765.42 311.06 765.77 313.66 765.97 317.46 766.64 319.13 766.6 320.99 767.45 322.26 767.66 323.22 766.9 324.63 767 325.55 766.17 326.7 766.35 327.88 767.02 328.63 766.76 330.02 766.76 331.96 765.78 335.84 764.4 336.59 762.75 338.02 759.21 344.28 758.04 347.8 757.29 351.41 755.06 355.76 754.27 356.65 751.45 357.23 749.45 358.41 749.6 360.9 750.64 363.6 751.46 365.19 751.91 366.78 749.91 368.13 750.13 370.44 748.08 375.61 748.4 376.96 748.3 381.52 748.38 383.37 746.63 386.11 744.5 388.02 743.77 389.17 742.11 389.38 741.93 391.74 741.24 392.97 740.95 394.44 740.15 395.21 738.21 398.9 737.75 400.62 736.78 402.73 735.76 404.48 735.51 405.44 733.59 407.92 732.8 409.88 730.57 411.9 730.08 413.54 728.79 414.86 727.78 417.34 726.86 418.38 726.75 420.07 727.55 423.89 726.95 428.49 727.43 431.06 726.96 435.01 729.28 436.94 730.63 439.38 731.69 439.75 734.04 441.87 735.03 442.11 737.75 443.49 740.48 446.46 744.79 449.92 748.61 452.15 751.73 453.21 753.52 454.73 756.58 456.84 759.63 458.46 762.05 461.81 763.34 465.66 765.36 468.93 768.31 472.14 769.27 472.39 771.27 470.66 773.42 472.64 777.35 479.78 779.76 481.62 780.81 481.4 783.23 484.25 785.28 485.9 786.29 486.44 790.4 489.82 790.08 491.94 790.85 494.06 791.92 495.05 792.85 497.26 793.95 498.57 794.77 500.5 795.1 502.44 796.73 504.25 797.9 508.85 798.56 510.23 799 512.39 798.36 514.41 796.12 519.07 796.19 519.78 794.98 521.59 791.49 520.62 788.82 520.36 783.4 521.01 779.89 519.93 774.35 519.09 770.69 519.38 768.34 519.96 765.89 520.74 764.52 521.46 762.87 521.82 758.51 521.88 757.33 521.34 752.77 518.34 752.39 517.33 751.4 516.56 751.23 515.47 748.78 513.22 746.94 511.79 742.83 509.95 740.16 508.49 737.66 506.25 735.56 506.43 731.94 503.83 729.02 501.46 726.91 498.08 725.05 496.98 721.42 496.65 717.34 497.22 716.1 497.58 715.83 497 713.15 494.81 712.45 494.39 709.94 492.15 707.49 491.4 704.73 487.54 704.98 484.65 702.78 481.7 700.9 479.02 698.3 476.61 696.57 473.41 695.29 473.46 692.32 474.31 690.29 474.75 686.96 477.49 685.8 481.46 681.99 483.95 682.79 485.3 681.09 487.05 681.32 489.28 677.97 493.3 677.18 496.05 675.49 498.54 674.13 501.98 672.57 501.56 671.59 501.78 669.54 501.72 666.81 500.2 666.18 499.73 663.56 500.12 662.39 500.04 659.19 501.54 655.65 500.54 654.83 501.83 653.39 502.28 652.01 501.75 647.53 501.61 645.81 500.69 645.43 500.26 643.91 499.26 642.97 499.26 641.88 499.56 641.53 498.88 639.73 497.31 636.49 495.93 635.56 495.72 633.66 493.8 633.54 493.35 631.25 491.62 628.61 488.48 629.17 487.12 626.59 485.99 623.19 482.92 622.34 481.41 621.88 479.87 620.99 477.64 620.82 476 618.82 472.66 617.74 471.94 616.25 471.56 614.43 471.86 611.54 470.65 610.22 469.77 607.55 468.49 605.43 467.36 604.89 466.04 604.24 465.54 602.75 462.3 600.77 459.08 599.55 459.53 597.07 459.87 595.87 461.47 594.49 462.64 593.97 467.24 591.79 470.12 591.37 470.54 591.09 471.81 591.8 472.48 591.88 473.08 591.75 476.02 589.87 478.82 589.86 479.07 590.93 481.14 590.28 482.86 589.49 488.97 588.84 490.98 585.09 495.53 584.22 495.44 581.11 497.19 581.39 499.32 581.26 500.11 580.37 502.3 581.11 502.8 582.01 505.69 581.55 506.88 581.04 509.33 580.67 510.03 582.05 513.03 581.54 515.16 581.9 515.62 581.65 518.29 581.32 520.46 581.38 522.16 581.97 523.08 578.87 525.77 577.76 525.98 576.64 527.16 575.26 526.73 573.73 527.21 573.34 527.57 570.32 525.74 563.41 526.52 562.37 525.99 561.37 525.87 558.22 527.59 557.22 527.72 555.69 528.46 553.88 526.78 551.69 532.13 549.84 536.23 549.42 536.84 549.22 538.06 549.65 541.62 550.21 543.5 550.33 545 550.7 546.36 550.74 548.68 551.02 550.71 550.64 553.23 548.92 557.3 547.49 558.07 546.02 560.89 544.51 561.65 542.32 561.98 541.89 562.33 540.83 561.83 539.38 560.34 538.2 560.22 537.18 559.46 534.86 558.41 532.96 557.98 530.12 557.97 528 558.23 526.86 557.75 525.51 555.86 523.61 554.71 522.91 554.44 522.04 554.5 521.42 554.94 520.59 556.41 519.26 557 517.42 557.44 515.47 557.36 514.56 556.77 512.93 556.22 511.74 556.13 510.66 556.29 509 557.42 508.02 557.65 507.02 557.52 502.68 555.72 501.71 555.5 500.44 555.53 499.6 556.05 497.05 556.59 495.23 556.42 492.44 556.69 491.19 556.36 488.03 553.9 486.17 552.89 484.72 552.78 484.06 553.6 485.14 555.94 485.27 557.74 484.75 558.82 483.1 558.81 481.64 558.41 478.43 558.58 476.27 559.31 474.88 559.57 473.44 560.35 472.63 561.11 471.19 563.42 471.03 565.34 470.47 567.07 470.11 567.52 467.1 569.03 465.1 568.5 462.66 568.7 462.07 568.98 461.07 570.23 461.01 571.05 462.09 571.45 462.82 571.98 463.19 573.05 463.21 575.69 463.54 576.84 463.58 577.82 463.11 578.19 461.19 577.59 460.54 578.49 457.98 579.28 457.48 580.31 455.7 580.57 452.43 579.01 450.54 580.07 449.9 581.47 452.6 582.9 453.81 583.73 454.82 584.02 455.14 585.15 455.18 586.3 456.87 586.6 457.99 587.72 460.04 588.5 460.96 588.43 461.85 587.93 462.25 586.79 463.42 585.6 465.17 586.88 467.61 587.44 468.85 586.81 471.63 587.58 473.46 588.55 474.72 587.5 474.84 587.09 476.99 584.26 476.85 582.96 478.17 582.31 480.14 580.16 480.52 580.14 485.96 582.94 486.73 583.04 490.22 582.57 493.36 580.45 495.86 580.51 496.65 582.89 498.26 584.15 501.88 584.08 502.87 584.62 506.82 585.39 510.38 586.34 511.8 587.74 512.99 589.7 514.49 589.89 517.48 589.73 518.17 590.23 518.94 592.15 520.94 596.54 521.99 601.75 523.39 602.96 525.11 607 526.44 610.35 526.74 611.65 528.35 611.5 531.25 610.03 534.07 609.94 536.4 610.96 544.45 609.07 547.63 609.45 548.14 614.18 552.38 618.69 552.56 625.52 551.88 627.19 551.4 629.41 551.76 631.08 551.51 636.24 551.56 638.68 555.9 643.19 560.31 643.91 564.75 644.36 564.17 653.08 565.09 656.81 564.75 659.16 562.37 660.37 559.01 663.18 558.58 666.05 557.87 667.52 557.02 668.7 556.58 669.98 556.47 671.92 556.52 674.01 556.3 675.94 555.64 679.24 555.8 680.95 556.52 681.97 557.99 682.97 558.31 683.43 559.66 687.66 558.69 688.85 557.29 691.11 556.48 693.4 555.22 695.33 554.26 697.03 554.07 699.94 553.67 702.15 552.75 704.75 551.77 706.16 551.81 707.21 553.04 710.03 553.84 713.4 554.5 715.29 553.58 717.95 553.64 718.94 550.87 720.42 546.97 722.69 543.22 723.33 540.85 724.12 539.32 725.45 539.09 726.29 539.73 730.67 538.93 732.16 539.7 736.05 539.47 738.59 540.67 742.94 540.57 744.06 541.08 749.81 540.7 751.22 542.7 753.35 542.59 753.66 538.96 754.56 539.12 755.71 536.3 756.34 534.31 756.58 532.11 757.75 530.29 753.87 529.87 752.7 529.39 745.23 529.9 741.2 528.75 739.63 527 738.38 523.19 735.06 521.21 733.53 519.25 731.27 517.43 728.5 516.67 726.79 515.93 722.09 514.93 718.49 513.62 715.6 511.68 711.83 511.19 708.83 511.52 708.02 512.49 706.75 512.64 706.26 512.03 704.46 511.53 703.61 510.42 703.43 508.4 703.95 506.52 703.68 505.69 703.32 503.64 701.34 501.7 700.22 500.29 700.07 498.97 700.18 497.74 701.29 496.22 701.4 494.72 701.69 493.15 702.27 491.15 701.99 489.8 701.48 487.21 699.81 486.58 699.18 485.37 698.5 484.32 698.27 482.7 698.3 480.24 697.9 478.96 697.47 477.48 695.61 476.46 693.42 476.08 691.51 476.37 689.57 476.36 687.55 474.84 684.87 475.19 683.06 476.57 681.32 477.12 680.21 477.42 677.28 477.25 674.11 476.59 672.23 476.17 671.72 474.94 671.17 474.3 670.05 472.98 669.65 470.61 668.31 469.44 667.09 468.91 663.68 468.19 662.45 467.72 662.82 466.34 661.6 464.82 658.99 464.49 657.15 464.79 657.07 464.54 655.55 464.52 653.91 464.18 652.29 463.91 652.29 463.19 648.9 462.73 645.42 461.48 641.73 460.71 640.21 460.49 636.58 453.98 637.43 452.99 637.86 451.6 639.5 449.81 640.42 449.68 641.4 449.25 642.23 449.25 643.98 448.8 645.49 448.98 646.67 448.27 648.41 447.32 649.88 447.07 650.95 444.32 653.36 442.76 654.12 443.07 654.6 442.84 657.51 442.49 658.3 443.33 660.12 443.29 661.33 438.58 664.36 437.99 664.43 438.06 665.94 437.17 666.65 435.04 670.68 431.73 672 431.31 674.07 431.35 676.16 431.03 676.9 430.99 678.62 430.57 679.24 429.53 679.88 429.48 681.09 429.08 682.09 427.88 683.28 426.72 683.72 424.63 683.65 422.8 684.54 420.84 685.05 419.59 685.76 416.93 684.79 415.5 685.34 414.62 685.36 413.33 685.07 412.91 683.67 411.69 682.93 411.3 684.08 410.41 685.17 409.44 685.66 407.5 685.83 406.06 685.52 404.62 686.53 403.16 686.61 402.27 686.95 404.74 689.3 407.39 691.08 409.04 692.88 408.88 694.76 409.15 697.49 408.26 699.01 407.3 700.34 406.28 703.63 405.03 704.95 404.37 706.76 404.62 709.03 405.44 710.8 406.19 712.78 407.92 714.98 407.94 718.46 408.96 720.02 410.4 721.13 413.61 721.81 415.01 721.4 418.43 722.75 420.33 726.12 421.56 728.77 423.05 731.57 419.33 734.21 417.59 735.24 414.34 733.51 411.25 732.3 409.82 732.72 408.75 732.47 408.05 732.6 406.85 733.26 406.11 734.39 404.09 736.18 403.61 737.03 402.1 737.04 400.36 737.51 397.03 739.61 396.55 740.17 393.01 742.23 392.08 743.31 390.2 741.93 389.2 742.13 388.71 741.62 387.99 741.58 386.7 741 386.31 739.43 385.14 739.16 383.53 737.8 382.4 737.08 380.86 737.14 380.2 736.4 379.1 736 378.31 734.75 377.16 733.67 376.94 734.01 375.03 734.29 373.01 734 371.39 735.87 371.48 736.34 368.79 738.1 367.23 736.69 364.12 735.93 363.4 735.03 362.52 734.66 360.31 734.74 359.08 734.03 359.22 733.46 357.22 732.64 357.64 735.07 357.8 736.74 357.03 738.69 355.97 740.21 353.98 742.11 353.03 743.63 352 743.36 350.99 743.95 349.85 744.01 348.4 743.81 348.08 744.29 345.54 745.59 343.21 745.08 342.21 745.55 341.3 745.7 339.59 746.75 338.86 747.02 336.73 748.65 335.04 749.28 334.37 750.95 333.46 751.88 333.04 751.9 331.79 753.99 330.51 754.47 328.55 754.85 326.01 757.36 323.88 758 318.93 756.89 317.73 757.55 315.49 752.55 313.98 750.9 310.21 747.6 310.2 746.82 309.67 745.84 308.57 744.53 308.17 743.45 305.78 739.59 303.86 738.74 302.8 737.29 300.6 735.16 299.65 734.78 296.76 733.25 295.94 732.14 292.95 734.54 292.39 736.07 292.31 737.2 291.81 738.39 289.91 739.66 289.33 739.86 289.04 740.73 288.53 740.96 287.49 743.2 286.42 743.82 283.74 744.25 280.52 744.22 279.93 744.72 279.13 744.8 278.74 746.82 275.56 748.8 274.29 749.31 273.08 748.61 271.53 748.82 271.21 749.79 270.47 750.4 269.6 750.41 268.68 751.76 266.5 753.79 265.07 751.16 264.97 749.32 264.75 748.51 262.45 744.83 261.79 743.98 261.59 742.18 259.71 739.46 258.3 739.32 258.28 738.36 257.76 734.03 256.92 733.43 255.3 731.63 252.08 729.09 251.32 728.18 250.03 726.27 248.74 726.11 247.89 724.78 245.64 723.3 244.62 723.32 243.63 722.64 243.39 722.12 240.41 719.43 238.36 718.07 236.72 716.78 235.93 715.61 234.16 715.78 232.23 714.89 232.96 712.98 230.86 712.48 231.41 710.84 231.81 708.15 231.62 707.54 230.15 710.42 229.72 709.97 230.48 708.57 230.59 706.35 230.31 705.62 229.15 704.46 227.34 703.08 225.14 702.36 224.24 701.82 222.49 700.45 221.85 699.79 221.4 698.75 221.31 697.61 221.53 696.37 220.35 694.78 221.52 694.07 223.12 692.26 221.36 692.11 215.72 691.42 215.13 690.81 214.02 690.34 215.11 687.87 214.33 686.43 212.69 684.74 211.27 684.07 209.85 683.2 210.04 681.19 210.63 680.73 210.98 679.31 211.35 676.91 211.99 676.22 211.99 675.25 210.48 672.57 207.88 674.27 207.44 674.29 204.64 676.19 201.79 674.13 200.22 672.11 199.27 671.23 198.76 670.38 195.81 668.57 191.87 667.39 191.07 666.9 189.73 665.68 188.81 665.29 188.57 664.14 187.93 663.27 187.32 661.21 186.71 660.08 186.88 659.49 186.46 658.84 186.53 658.07 185.82 656.25 186.87 654.57 185.45 653.02 184.73 651.91 184.34 650.84 183.09 650.68 181.41 651.15 180.44 650.98 178.59 649.63 176.79 649.4 175.66 649.88 175.15 650.7 174.53 650.82 172.01 650.24 170.49 650.22 168.99 650.76 167.38 651.53 165.49 653.09 164.56 651.14 163.98 650.39 162.86 648.17 162.25 647.48 161.31 647.11 159.58 645.02 160.64 643.62 161.02 641.68 161.56 640.44 162.27 639.44 164.69 638.05 164.54 636.82 164.6 635.59 164.14 634.54 163.99 632.49 164.55 631 163.18 629.35 161.05 625.89 161.87 624.34 163.54 622.67 163.85 621.03 164.36 619.48 165.18 618.12 164.75 616.73 164.99 615.04 166.16 613.64 167.27 613.23 169.67 611.82 170.32 611.82 171.88 610.75 172.44 609.94 173.91 609.77 175.26 609.11 176.73 608.12 177.48 607.17 178.47 605.48 181.66 603.24 182.09 602.31 184.4 600.65 186.03 598.47 186.77 598.36 187.49 597.13 188.16 594.39 188.57 593.41 188.18 592.16 187.76 591.55 187.95 590.39 188.91 589.29 189.12 588.01 189.02 585.14 190.01 584.16 190.47 582.43 189.58 582.22 188.54 582.65 185.61 584.34 183.5 584.81 182.81 584.27 184.1 581.32 182.14 578.19 180.26 577.31 180.04 576.38 178.79 574.48 177.77 573.75 177.08 573.83 176.11 573.15 176.11 571.89 175.48 571.04 175.33 569.94 173.31 569.53 171.17 568.75 169.71 567.66 168.2 567.19 166.94 566.21 165.81 566.05 165.22 565.6 165.21 564.73 165.64 564.14 165.85 562.86 165.71 560.52 166.47 556.97 166.61 554.79 165.5 554.56 162.43 553.11 162.4 551.64 162.14 550.89 162.2 549.89 161.51 548.83 159.34 546.27 157.16 544.24 157.28 543.67 155.24 542.81 154.53 541.99 153.94 542.07 151.93 543.38 150.26 541.32 148.3 540.36 148.05 538.83 146.15 536.19 146.77 533.7 147.38 533 147.35 532.29 146.6 531.31 146.7 530.8 146.37 529.34 146.77 528.43 146.66 527.45 146.99 526.98 147.11 525.1 146.58 524.6 145.57 522.85 144.73 522.06 143.71 522.17 141.87 521.07 139.82 521.83 137.41 522.06 134.54 520.76 132.77 519.11 132.18 518.33 130.55 518.52 129.26 518.16 128.07 517.1 126.4 515.18 125.05 514.2 124.18 513.11 124.09 512.49 123.3 511.63 122.94 510.77 122.43 510.55 122.09 508.73 120.92 507.28 120.53 506.21 121 505.5 121.03 503.04 120.46 501.27 119.61 500.8 118.9 499.8 117.43 499.44 116.67 500.18 115.7 500.68 114.75 501.61 114.68 503.02 113.84 504.43 113.43 506.74 112.24 506.72 110.49 506.97 108.01 506.79 106.03 507.35 106 506.19 104.95 505.45 104.23 503.47 103.47 503.07 102.85 502.04 102.19 501.44 98.81 501 97.93 500.03 97.08 498.25 96.05 497.87 95.17 497.16 93.58 496.93 92.62 496.27 91.59 495.22 89.89 492.56 88.87 490 87.82 489.05 87.53 488.32 86.65 487.66 86.16 486.68 85.7 486.72 84.45 485.64 84.18 484.89 83.59 484.65 82.99 483.17 83.13 482.47 81.62 479.81 79.32 479.26 78.61 477.72 77.43 475.89 74.98 473.9 74.09 474.5 72.03 474.4 70.8 474.75 69.82 474.39 68.97 474.52 65.72 473.69 64.76 473.01 63.7 471.91 63.21 470.59 61.3 469.81 61.21 468.05 59.09 467.95 58.22 467.31 57.53 467.33 57.06 468.12 55.56 468.49 55.55 470.66 54.12 471.37 54.5 471.95 53.73 473.59 52.7 473.19 51.65 473.12 50.46 472.61 48.68 472.67 48.18 472.34 47.47 472.8 47.1 473.55 46.01 474.23 43.74 474.1 42.67 474.81 41.16 474.39 40.21 474.41 38.5 475.67 37.03 475.03 35.54 475.24 34.25 473.97 33.76 473.07 33.64 471.68 33.59 465.65 33.37 464.77 33.54 463.84 34.08 462.84 34.14 461.73 33.17 460.64 32.88 459.33 31.53 459.45 31.21 458.93 31.18 457.32 28.96 454.82 29.16 452.87 29.75 451.99 29.63 451.13 29.94 450.2 28.69 449.03 28.54 447.78 28.78 447.04 29.63 446.3 29.75 445.47 29.12 444.73 29.1 444.21 27.96 443.17 27.74 442.49 27.99 441.26 28.31 440.84 28.44 439.54 26.98 438.64 27.53 437.23 27.56 436.18 27.98 435.48 28.29 432.23 27.95 431.22 26.38 430.96 24.45 431.73 23.6 430.81 23.17 430.77 22.41 428.8 21.5 428.17 20.87 426.95 19.41 426.68 18.83 425.38 17.87 425.09 18.09 423.53 17.18 423.01 17.1 422.22 16.38 421.94 14.77 421.83 14.45 420.75 13.28 419.77 13.46 418.25 12.86 416.53 11.5 416.3 11.54 415.25 11.28 414.55 9.96 414.51 9.34 413.77 7.82 412.96 7.1 412.91 6.94 412.39 7.7 411.71 7.51 410.78 7.64 408.72 8.85 407.12 9.02 405.89 9.89 403.97 9.81 402.95 10.22 402.35 10.16 401.18 11.51 399.88 11.47 399.32 12.76 398.15 12.75 396.18 14.84 391.67 14.69 390.74 15.01 388.5 15.59 387.48 15.62 386.64 16.48 385.21 16.69 384.5 14.46 384.25 13.96 382.81 14.11 381.13 13.24 379.56 13.49 378.1 10.86 376.52 9.73 377.09 8.46 376.78 7.78 375.3 6.59 374.31 6.18 372.79 5.39 372.35 4.59 372.71 3.93 373.5 1.67 373.35 1.05 371.69 1.27 371.12 1 369.87 1.33 368.16 1.39 366.08 2.55 362.5 2.13 361.17 1.67 358.5 1.78 356.45 1.74 353.04 3.2 353.05 3.87 352.16 4.78 351.97 5.16 350.94 6.07 350.72 6.7 349.47 7.3 349.42 8.43 350.05 9.72 349.81 10.6 348.71 11.07 347.26 10.13 346.49 9.43 345.23 11.07 344.38 12.61 344.17 13.01 343.22 12.96 341.27 12.19 339.33 12.48 338.96 14.5 338.94 15.75 339.42 17.51 339.58 19.04 339.52 21.61 340.08 22.69 339.76 23.86 340.16 25.91 340.56 26.93 339.42 28.29 338.84 29.89 336.63 30.36 336.27 31.87 335.96 32.46 334.4 33.53 333.16 35.52 330.06 36.13 329.55 36.35 327.64 37.48 326.55 37.97 326.33 37.91 325.16 38.52 324.6 38.05 323.39 35.7 322.88 35.78 320.96 35.22 319.9 35.3 318.71 33.27 317.71 31.59 317.25 30.86 316.8 29.43 316.4 28.43 316.34 27.29 315.45 27.14 314.5 27.56 313.58 27.84 311.99 27.12 311.34 26.88 310.64 25.48 311.28 24.47 310.35 24.41 309.78 24.82 308.22 25.47 307.4 26.16 307.02 26.39 303.9 26.66 302.48 26.32 299.14 26.07 298.15 24.71 297.44 23.93 296.34 23.27 296.11 21.52 294.39 20.85 293.93 19.62 293.49 19.72 293.1 18.21 291.8 17.45 290.81 17.83 289.22 18.29 288.54 18 287.67 17.45 287.13 16.96 285.45 17.63 284.25 17.31 283.33 17.11 281.39 16.71 279.97 15.95 279.13 16.27 278.29 17.07 277.17 17.17 276.46 16.35 273.82 16.31 272.74 16.85 271.61 17.92 270.2 18.09 267.66 17.86 266.91 18.02 264.82 17.35 264.6 17.34 263.85 18.17 262.75 18.49 261.3 18.48 260.32 18.86 259.55 20.02 259.57 21.1 258.59 21.58 257.8 22.7 254.37 23.16 251.69 24.03 250.21 23.98 249.12 24.13 246.57 25.71 245.91 26.85 245.95 27.81 245 27.62 243.91 28.76 242.19 28.54 240.59 29.81 239.25 30.84 238.41 31.03 237.3 32.03 236.24 31.75 234.66 32.76 233.63 32.97 233.06 32.54 232.34 33.04 230.82 32.19 229.26 31.32 228.55 30.6 226.32 29.75 225.78 30.1 223.48 30.61 221.4 30.54 219.55 31.16 218.28 31.08 217.35 31.4 216.73 32.79 215.8 32.95 214.33 33.68 213.78 34.07 212.63 34.18 211.34 34.82 210.34 34.77 209.81 35.44 208.66 36.28 208.37 37.02 205.82 37.85 204.15 38.58 203.74 40.29 201.76 42.07 201.38 41.93 200.15 42.08 199.28 43.27 198.32 45.34 197.62 46.1 196.81 47.99 196.27 48.54 195.31 49.25 194.82 50.2 195.36 53.15 195.05 56.03 192.82 57.95 192.66 59.58 193.77 61.32 192.92 64.51 193.31 65.12 194.11 65.83 194.18 67.21 193.92 68.16 194.49 69.93 194.68 70.37 194.96 71.87 195.08 72.84 195.84 73.23 197.15 74.12 198.4 75.06 198.97 76.62 199.41 77.92 198.75 79.37 198.77 80.95 199.5 81.94 199.55 82.41 200.7 84.4 201.78 84.78 203.18 85.59 204.19 85.7 205.56 87.27 205.66 87.63 205.94 89.4 206.01 89.79 206.9 90.84 208.35 91.39 208.79 93.92 209.01 95.48 209.49 96.02 210.5 97.74 212.06 97.61 213.49 97.81 214.36 100.94 214.22 100.81 212.88 102.47 210.58 103.84 210.16 104.33 209.47 105.31 209.63 105.63 208.97 106.5 208.42 106.71 207.35 107.69 206.51 108.3 205.33 109.84 204.3 110.96 202.71 110.46 201.51 111.14 199.2 111.44 197.44 111.8 196.47 113.73 196.41 115.34 195.7 116.06 194.57 116.53 191.71 117.08 191.36 116.76 190.67 117.14 188.84 116.69 187.71 115.51 186.87 115.57 186.18 115 183.96 115.34 183.02 114.58 182.38 114.65 178.23 115.02 176.69 114.81 175.72 115.37 174.74 116.42 174.55 117.57 172.5 117.98 171.1 118.84 170.8 120.6 169.52 121.6 168.97 122.42 167.23 122.34 165.03 123.07 164.52 123.48 163.64 123.32 162.96 123.67 161.71 124.25 161.14 124.17 160.24 125.16 157.72 124.82 156.32 125.68 155.09 124.98 153.34 125.49 153.13 127.51 153.18 128.01 151.14 128.85 150.29 130.12 150.31 131.61 149.93 133.41 150.26 134.61 149.84 135.06 149.32 135.97 149.02 136.32 149.73 137.98 150.75 138.89 152.8 139.81 154.22 141.36 154.03 143.46 154.48 144.03 154.44 144.9 154.89 146.63 155.48 147.71 156.41 148.78 157.04 149.25 157.65 151.63 157.88 151.66 158.67 153.1 159.15 153.77 155.35 153.8 154.59 154.53 153.76 156.96 154.05 158 154.29 158.65 154.06 159.45 152.9 161.09 153.07 162.55 152.54 163.12 153.55 163.85 153.46 164.95 152.79 165.97 154.03 166.5 155.66 168.05 156.33 169.1 156.14 169.75 155.35 171.05 154.94 172.32 154.33 173.17 154.58 174.04 155.61 175.22 155.41 176.73 154.69 178.81 153.89 179.38 154.13 180.14 153.72 180.58 153.05 181.23 153 181.25 151.68 181.7 150.73 183.8 149.85 184.9 150.63 186.29 150.84 188.07 150.48 188.63 150.05 189.18 151.31 192.9 153.16 194.59 153.12 195.55 152.86 196.43 152.01 197.99 151.14 198.28 151.28 200.72 150.01 201.41 150 203.17 151.29 203.47 151.73 204.59 152.03 205.44 152.78 205.68 153.74 206.27 154.53 208.94 152.79 212.53 154.37 215.96 155.35 217.43 154.55 219.36 154.04 222.01 157.16 223.26 157.95 223.84 160.12 223.83 161.91 225.39 163.19 227.36 164.07 228.43 164.27 230.81 162.24 231.81 161.08 233.44 163.36 235.03 163.85 238.83 163.52 240.78 162.63 242.6 163.03 244.73 161.01 245.59 159.47 246.52 158.45 246.63 156.63 249.34 154.99 252.02 156.01 253.62 156.87 253.91 158.08 256.78 160.88 259.42 159.77 261.23 158.79 262.5 157.86 263.97 154.72 265.09 154.67 267.51 153.82 268.4 154.28 269.02 153.9 271.03 153.95 273 152.51 274.07 152.75 276 152.44 277.55 151.93 278.21 150.91 279.46 150.85 282.05 149.87 284.22 149.83 286.06 148.36 287.98 148.97 289.16 149.95 290.12 148.97 292.56 147.99 293.73 147.73 294.62 144.55 295.6 143.37 295.94 139.3 296.47 136.96 295.73 136.43 295.2 135.26 294.36 132.03 294.55 130.85 294.11 129.3 294.4 128.74 294.26 127.75 293.88 127.3 294.01 126.54 293.59 126.19 293.85 124.95 293.31 124.01 293.39 122.94 293.05 121.72 293.31 120.18 292.83 119.06 292.78 118.15 292.38 117.39 292.71 116.8 293.35 116.58 293.88 115.66 294.57 115.37 295.16 114.68 296.16 114.29 296.21 112.61 296.4 112.17 299 111.52 299.47 110.88 300.69 110.49 301.04 109.84 301.17 108.24 301.5 107.54 301.51 106.58 301.1 105.21 301.03 102.75 299.8 101.42 297.38 100.33 296.68 99.47 294.94 99.36 294.04 98.48 292.45 97.87 291.09 97.68 290.82 96.6 290.07 96.16 288.22 92.5 290.61 91.73 291.86 91.73 295.92 90.9 297.99 90.35 300.31 90.31 300.86 91.45 300.84 92.11 300.21 93.24 299.32 95.31 299.68 95.98 300.49 96.6 302.34 97.46 303.86 97.59 308.97 98.68 310.34 99.14 312.19 99.15 311.95 98.01 310.73 96.43 310.88 95.42 310.48 93.85 310.48 92.3 310.76 91.12 310.82 89.22 311.77 87.29 311.73 85.9 311.12 84.54 309.73 83.67 309.41 82.35 308.16 81.55 307.8 80.33 308.1 78.84 308.06 77.79 307.02 75.89 305.34 74.91 303.72 73.68 305.21 71.21 304.72 69.69 302.6 68.3 300.03 68.96 297.91 68.38 296.24 70.95 295.4 71.04 294.7 70.71 293.38 70.61 293.17 70.91 291.33 70.69 290.02 68.84 289.3 67.16 288.01 67.49 286.75 66.78 285.69 64.5 285.95 62.7 285.83 61.45 285.1 59.85 284.34 56.76 284.68 55.57 284.47 55.17 282.71 55.02 282.52 53.65 281.88 52.52 283.25 51.72 284.61 51.79 286.22 51.06 287.1 51.08 288.47 51.55 290.45 50.43 292.28 48.92 292.44 48.55 294.32 47.92 294.11 46.56 294.73 45.1 295.17 42.6 293.2 41.98 293.54 41.55 294.02 38.22 292.8 36.27 291.29 35.75 291.16 35.35 291.83 34.53 292.07 33.44 292.95 32.68 293.94 31.32 293.93 30.44 293.23 27.31 293.34 26.28 293.21 23.87 294.89 23.13 295.68 22.39 297.07 21.57 299.51 20.62 301.35 18.79 302.58 16.09 301.82 13.43 301.68 11.25 303.21 10.97 303.32 10.2 304.56 9.53 305.12 8.71 304.98 6.11 305.4 5.45 305.19 4.68 307.68 2.9 311.54 2.95 312.32 1.65 313.76 1.08 314.09 1.49 315.23 1 315.76 1.18 318.95 2.91 319.77 2.9 322.17 3.87 323.44 3.81 323.76 4.2 325.68 4.42 326.43 7.45 326.96 8.15 327.08 9.73 326.76 10.21 327.09 11.89 326.74 13.96 327.73 15.04 328.74 15.11 330.79 18.33 333.61 17.06 335.15 15.75 336.9 15.89 339.4 15.73 340.5 16.13 342.29 14.54 342.76 14.92 344.29 14.7 345.61 15.17 347.61 14.73 348.22 14.92 348.84 14.25 349.7 14.07 349.53 12.83 350.13 11.46 351.14 11.57 352.02 9.69 355.68 10.9 356.42 11.06 356.5 11.8 357.48 12.89 358.22 12.45 359.51 12.42 359.6 13.28 360.23 15.45 360.2 16.25 362.06 15.91 362.72 16.23 364.72 16.32 365.87 16.09 366.44 16.99 367.67 17.47 369.71 16.68 371.18 17.44 372.07 17.38 372.2 20.47 372.56 20.88 372.42 21.75 373.01 22.73 372.2 23.41 371.01 23.75 370.62 24.53 370.17 27.19 370.94 27.88 371.01 28.68 371.48 30.23 371.27 31.37 373.43 32.52 375.38 34.85 375.19 36.37 375.4 37.11 376.55 39.03 377.26 38.18 378.77 37.83 380.59 38.65 384.41 38.79 384.92 39.49 386.73 41.02 387.7 42.21 388.82 42.42 389.99 43.81 390.29 46.24 389.05 48.88 388.83 50.69 389.01 52.23 388 53.48 388.34 54.96 388.21 55.62 389.06 57.02 386.38 58.42 384.8 61.11 385.89 62.21 387.68 64.63 388.58 65.6 388.6 66.4 386.96 67.45 385.39 69.39 384.5 69.89 383.49 71.72 382.37 72.59 381.66 73.44 381.34 74.65 383.52 76.97 385.97 77.64 386.87 79.35 387.61 79.97 390.86 80.5 391.63 80.09 392.09 81.34 395.72 84.2 398.98 84 402.36 84.66 404.3 84.63 405.43 83.76 406.93 84.03 407.67 86.81 408.92 87.51 411.56 88.45 413.13 90.43 414.78 91.15 417.38 93.48 417.87 97.05 418.69 97.99 419.17 100.03 419.47 102.44 420.17 104.68 421.21 104.86 421.93 105.44 424.69 109.18 427.49 112.43 428.83 111.91 430.27 111.75 431.26 111.12 433 110.88 434.29 110.51 436.78 110.95 438.48 111.61 441.94 113.68 445.26 113.68 448.24 113.24 454.54 113.26 458.3 112.98 459.45 119.16 460.07 121.15 461.12 125.41 463.89 124.75 477.99 122.26 479.2 121.8 481.42 120.65 483.76 119.1 484.5 118.14 487.53 114.66 489.83 112.63 490.92 111.4 491.97 109.26 492.58 110.65 492.96 112.28 494.05 113.46 494.89 114.75 495.36 115.98 496.44 117.64 496.4 119.78 497.31 121.02 496.98 121.96 497.22 124.33 497.24 126.94 497.42 128.7 497.28 129.93 498.89 131.48 501.16 131.93 502.48 133.19 503.59 133.13 505.33 133.73 505.89 134.44 507.28 134.49 508.65 132.95 511.63 133.95 513 134.6 515.11 134.74 515.45 136.07 515.94 137.09 517.43 138.95 517.79 140.28 518.7 140.8 519.72 142.44 520.94 142.77 521.85 144.68 522.29 144.77 524 144.28 525.15 144.44 526.68 143.75 529.01 143.04 531.37 142.01 533.81 140.6 535.8 138.66 537.02 137.69 537.63 136.83 538.5 136.86 538.93 136.26 539.32 134.88 541.03 134 542.39 133.47 544.39 129.42 545.3 129.94 546 129.22 547.31 130.08 549.55 130.6 550.36 130.59 552.3 129.95 552.22 129.02 554.13 128.13 553.01 129.65 553.95 129.57 556.37 128.32 556.88 128.27 559.31 129.18 560.54 129.32 561.4 129.73 565.68 129.59 566.06 129.31 567.92 128.93 569.8 128.79 571.76 128.86 572.93 129.51 577.51 130.8 578.65 131.21 580.14 132.02 581.15 132.86 582.04 134.56 582.29 136.14 580.88 136.98 579.67 138.93 578.9 139.91 577.97 140.25 577.85 141.65 577.21 142.58 576.64 143.93 576.76 144.61 576.29 146.58 575.77 147.45 575.45 148.95 574.99 149.84 575.32 150.92 575.4 152.06 574.91 152.41 573.73 154.55 571.66 155.62 571.17 156.2 570.62 157.76 571.22 160.85 572.05 161.67 573.09 163.3 575.16 162.84 576.45 162.36 579.1 163.46 579.94 164.34 583.37 167.15 584.78 168.74 586.34 169.9 587.69 170.61 591.07 171.75 591.78 172.86 592.11 174.08 593.44 174.58 596.41 177.09 598.1 178.9 598.47 180.09 599.24 181.17 600.49 184.39 601.78 186.51 603.08 187.4 606.32 188.4 606.96 188.45 610.33 189.79 613.59 191.41 611.96 193.07 611.05 195.09 612.07 196.66 612.85 197.16 611.4 200.23 611.14 203.02 611.1 205.09 609.43 209.85 610.96 211.44 611.6 212.82 613.7 215.61 615.63 217.26 615.18 221.32 615.5 222.22 617.27 222.89 617.97 224.3 618.91 225.76 619 226.74 621.09 228.35 621.67 229.31 622.72 229.14 624.56 234.21 624.67 236.18 625.15 237.77 626.29 239.48 626.62 240.4 627.81 242.08 626.87 243.23 625.93 244.1 624.6 245.64 623.73 247.23 622.51 250.08 620.8 256.08 619.44 257.74 619.04 259.25 618.19 259.89 618.41 263.63 619.65 265.54 621.98 267.06 624.47 268.22 626.05 269.34 627.67 269.77 629.71 269.69 631.85 269.39 636.34 269.84 637.32 273 637.16 273.96 636.25 276.76 637.15 277.99 637.52 279.83 638.09 280.28 638.67 282 637.59 284.28 637.48 286.07 640.14 286.02 642.56 285.82 644.95 286.63 647.99 288.07 651 290.38 653.18 291.87 653.97 292.76 655.48 293.21 657.93 293.03 660.49 292.66 664.64 292.51 666.25 294.08 668.02 295.36 668.83 296.35 672.16 297.98 675.04 297.57 677.94 299.08 680.84 301.19 684.34 302.97 685.86 304.45 687.25 305.1 689.06 305.73 690.03 304.56 690.44 303.06 691.75 302.5 692.69 301.37 695.16 301.9 696.38 302.73 697.89 303.22 699.44 302.85 700.6 302.36 701.27 301.36 701.94 301.01 705.77 297.92 706.19 295.74 706.75 294.29 707.99 292.28 709.05 291.66 709.72 289.33 710.15 286.82 709.74 284.82 708.01 283.09 707.45 282.33 708.07 281.06 708.11 279.17 708.46 278.48 708.99 274.81 709.15 271.57 710.23 270.1 710.23 268.96 708.76 266.15 709.5 265.28 709.76 264.43 710.53 263.46 712.45 264.03 716.62 265.08 718.57 265.81 721.43 264.77 723.4 265.38 724.44 264.9 726.42 265 730.66 265.52 732.28 266.25 736.99 273.21 742.67 274.92 747.93 272.79 748.03 272.28 749.91 271.62 751.46 271.25 753.69 273.05 754.5 272.85 756.02 274.64 757.24 276.77 758.98 278.23 760.83 278.9 761.26 278.63 762.96 278.6 764.59 278.07 766.19 279.03 768.44 282.15 769.19 281.86 772.7 283.79 Z" id="33560000"/>
</g>
</svg>