<?xml version="1.0"?>
<svg xmlns="http://www.w3.org/2000/svg" version="1.2" baseProfile="tiny" width="800" height="906" viewBox="0 0 800 906" stroke-linecap="round" stroke-linejoin="round">
<g id="sigung">
<path d="M 561.6 41.74 562.7 43.35 564.78 44.95 570.41 47.41 572.43 49.05 575.61 49.5 578.88 49.35 581.88 50.35 582.3 51.1 583.7 51.48 585.08 51.52 586.16 50.93 587.02 52.05 588.06 52.12 591.49 54.45 593.48 54.8 593.98 57.23 595.85 60.13 596.04 61.65 596.63 63.82 594.73 66.14 594.66 67.64 595.89 69.75 595.99 70.96 597.52 73.3 598.77 74.09 598.75 75.86 599.07 77.02 600.76 78.94 603.42 80.82 605.01 83.19 606.32 82.84 611.77 83.82 613.11 84.85 613.11 85.31 615.02 87.29 615.82 87.73 616.52 89.01 618.37 90.13 618.98 92.31 620.9 94.62 622.02 96.42 622.1 97.93 621.43 101 621.54 102.38 622.1 104.26 621.78 106.3 621.96 108.41 623.76 110.19 623.48 112.76 623.68 113.41 622.65 115.45 622.51 116.59 620.48 119.19 619.84 120.33 620.01 120.95 619.24 123.18 619.78 123.49 618.55 124.87 612.34 125.74 612.1 127.7 611.28 128.04 609.4 126.9 608.15 127.89 605.88 127 602.38 129.66 602.49 130.21 601.4 131.87 600.77 134.08 600.76 135.35 601.21 136.19 600.97 137.22 598.44 137.41 598.14 138.65 595.31 139.43 590.53 140.22 590.3 139.44 588.66 139.99 587.41 140.74 585.76 140.61 585.23 141.26 583.44 142.49 582.86 143.69 579.51 145.4 578.14 145.49 576.89 146.75 574.6 146.91 574.14 148.55 574.41 149.91 573.62 151.76 573.66 153.66 572.57 155.12 572.44 156.23 571.35 156.38 569.67 155.93 568.47 157.04 568.15 160.37 568.84 160.9 569.32 162.35 572.14 167.33 572.98 167.87 572.86 171.47 571.95 174.41 571.76 177 571.28 178.87 568.62 180.8 567.53 183.68 565.52 184.98 565.27 186.42 564.68 186.93 564.55 188.8 563.65 191.1 562.08 191.75 560.76 193.71 559.28 194.71 558.13 196.05 557.43 197.57 557.03 199.88 555.7 202.91 555.37 207.95 553.06 208.2 548.94 208.96 544.75 208.95 542.81 209.11 541.65 210.62 540.62 211.43 539.63 214.25 538.05 215.35 536.49 216.06 535.93 217.05 535.44 219.33 534.39 222.25 535.38 225.02 537 225.56 538.13 226.73 538.98 226.9 540.04 228.17 540.3 229.34 542.7 230.74 543.15 233.04 543.53 233.68 544.23 236.25 544.76 239.66 544.65 242.19 545.48 245.58 546.85 247.51 547.57 247.61 548.68 249.87 548.76 250.87 548.12 252.06 548.43 252.82 548.82 255.31 549.34 256.27 549.34 257.43 549.78 259.6 549.75 261.2 549.13 263.14 551.27 267.2 551.51 269.76 550.47 271.94 550.61 273.04 551.4 273.88 552.2 275.68 552.06 277.7 551.57 278.45 552.26 280.35 553.26 281.32 553.39 282.77 552.57 283.55 552.92 284.9 553.84 286.37 553.65 287.4 551.54 288.88 551.62 289.66 550.75 290.62 550.77 291.8 549.86 291.96 547.29 293.5 546.39 295.35 545.35 295.52 544.29 296.23 544.37 297.05 543.06 298.11 542.99 300.29 543.28 301.61 541.38 303.17 540.26 304.39 538.22 304.94 536.82 306.31 532.13 307.11 527.8 311.52 524.42 312.41 521.78 312.78 520.78 314.1 519.33 314.9 517.4 318.45 514.76 321.76 511.93 323.57 510.69 323.9 510.29 325.43 510.91 327.22 510.98 330.04 509.82 332.2 510.22 334.38 510.51 337.24 510.92 339.47 510.51 339.98 506.88 340.36 506.23 341.15 503.31 343.42 500.62 343.66 498.68 345.26 498.46 346.92 496.88 347.83 495.17 349.24 493.54 351.11 494.03 351.71 494.02 354.4 494.27 356.36 494.34 360.01 494.84 362.14 494.86 364.16 493.95 365.52 493.65 366.55 494.04 368.98 494.64 369.59 494.43 371.86 490.36 373.56 488.29 374.9 486.2 376.68 485.81 378.15 484.83 379.12 483.51 381.04 482.68 382.6 480.59 384.56 479.27 384.55 478.17 386.05 478.1 388.45 477.38 390.73 475.79 392.46 476.22 394.61 477.98 397.4 475.49 399.49 475.43 400.09 476.8 400.91 477.1 402.26 477.79 403.02 478.11 404.21 477.66 405.63 478.14 406.48 480.08 406.85 483.16 408.43 482.82 410.05 483.71 412.04 483.99 414.35 484.6 414.55 485.98 417.63 488.14 419.62 488.96 421.39 490.11 422.81 491.32 424.93 494.13 424.55 496.12 424.99 496.19 426.08 496.86 428.42 494.74 428.6 490.97 428.33 485.47 427.16 482.74 427.37 481.56 427.95 478.5 428.79 478.45 429.52 477.67 431.1 476.57 431.97 475.33 432.24 473.29 433.3 474.59 435.78 474 437.33 474.01 438.15 472.93 439.24 470.78 441.9 470.71 442.66 469.25 444.3 469.7 445.28 469.57 446.94 470.9 449.38 470.82 450.6 472.08 452.55 471.38 454.16 470.25 455.41 469.31 456.87 469.19 458.97 467.85 460.62 467.92 463.16 468.65 465.65 467.88 467.53 468.22 468.61 468.18 470.32 470.52 473.56 470.51 475.03 469.02 477.03 466.59 479.03 465.29 481.82 464.36 482.72 464.16 483.87 464.73 485.63 465.4 486.23 467.1 486.38 468.32 486.05 469.47 486.96 469.5 487.74 471.42 489.42 474.91 492.07 475.05 493.29 475.56 493.92 478.26 495.28 481.38 497.45 482.44 497.58 483.72 499.14 487.55 499.42 488.93 500.7 490.67 500.35 492.69 499.06 497.58 498.59 500.84 497.03 501.86 492.7 501.09 492.37 501.85 490.99 503.48 489.75 504.2 488.44 505.15 488.03 505.11 487.04 505.62 486.47 505.42 485.59 503.54 485.65 503.38 484.88 504.07 483.61 502.48 482.34 501.34 482.55 500.01 481.84 499.5 482.01 497.93 484.57 495.87 483.97 496.5 482.94 496.14 482.49 494.94 482.94 493.93 481.59 495.02 481.25 496.05 480.46 497.28 480.34 497.96 478.58 499.06 477.06 499.21 475.85 499.97 474.44 501.05 474.22 502.42 473.36 504.51 470.93 505.08 471.4 507.96 471.27 508.94 472.83 509.39 474.04 510.4 474.73 512.13 476.7 514.02 476.51 515.48 476 516.89 476.9 518.58 477 519.57 476.64 521.41 474.98 524.91 475.09 526.35 476.1 527.94 476.66 529.95 476.5 531.25 477.29 534.52 477.88 535.18 476.75 538.98 476.79 540.06 475.91 542.25 476.03 543.02 476.46 544.1 476.4 545.16 478.52 546.45 480.3 546.15 482.45 546.53 483.65 546.53 484.82 545.57 487.74 544.87 488.8 546.25 489.59 547.6 490.74 548.61 490.99 550.51 492.22 552.01 492.14 553.88 493.4 554.33 494.04 556.57 495 559.1 494.97 561.87 496.85 562.99 498.14 563.2 498.92 562.86 501.71 563.69 502.63 562.56 505.35 562.76 506.96 566.96 508.12 567.5 507.91 569.65 509.77 570.94 509.44 573.67 509.28 576.37 510.12 577.09 510.96 580.77 513.71 583.77 515.12 582.84 517 583.31 518.13 583.66 520.4 584.18 521.75 584.36 523.3 585.66 525.04 587.26 528.02 587.12 528.78 588.09 531.71 588.57 532.58 591.16 534.37 591.77 535.35 593.63 535.14 596.08 535.19 598.23 536.31 599.05 539.36 599.34 541.59 600.43 542.72 602.46 543.44 604.95 543.8 608.23 545.58 609.09 547.19 609.7 547.69 611.2 551.42 612.22 553.14 613.87 553.32 616.23 553.01 617.47 551.59 621.11 551.95 622.61 552.39 625.29 552.17 625.35 550.9 626.2 550.39 626.71 551 629.01 551.39 629.69 552.43 631.42 552.53 632.76 554.01 634.39 552.41 636.1 551.16 640.43 553.34 643.11 554.2 644.37 555.71 644.48 557.28 647.79 560.77 648.51 561.17 649.63 563.21 649.85 566.22 651.07 566.57 652.76 566.44 653.31 566.02 658.47 564.62 659.29 565.02 660.75 566.52 661.32 566.67 664.28 569.71 665.94 569.39 668 569.43 670.05 568.14 671.51 566.56 676.2 564.88 677.03 561.73 677.48 560.68 680.02 560.05 682.75 559.96 686.08 559.17 688.62 559.83 690.05 558.82 690.69 557.45 691.75 556.41 695.02 553.8 695.85 554.54 696.14 557.46 696.9 559.19 698.3 561.2 698.39 562.47 700.36 562.83 701.55 562.32 701.25 564.25 701.44 565.23 702.79 567.56 704.01 566.58 706.8 568.21 707.26 571.52 707.87 572.54 709.13 573.84 712.56 575.97 715.7 578.54 716.92 580.35 717.79 583.34 719.83 586.28 718.54 586.81 716.35 588.42 713.16 589.82 712.94 590.71 714.67 591.24 716.42 592.49 717.07 593.66 716.97 594.86 717.77 595.5 719.14 598.49 719.81 601.64 720.06 601.72 722.24 604.67 726.18 603.77 726.67 603.05 728.88 605.21 730.25 607.46 731.83 607.76 733.59 612.32 734.1 613.03 735.77 613.34 737.93 614.72 737.84 615.47 738.58 617.82 740.96 618.69 743.27 621.42 746.62 622.6 749.01 621.42 750.94 619.8 752.18 620.05 753.12 619.71 754.18 619.97 758.71 618.2 760.42 616.99 760.75 615.6 762.7 612.67 763.87 611.48 766.34 610.14 768.32 611.23 771.48 612.12 774.63 611.53 774.78 614.62 774.64 615.94 775.55 619.97 775.56 621.1 774.28 622.84 773.16 623.81 772.86 625.22 772 626.27 772.16 626.78 774.09 627.45 775.66 629.95 775.04 634.23 774.61 634.78 777.14 635.58 776.57 638.79 775.78 640.66 776.05 642.41 773.64 643.21 773.42 643.68 771.07 645.63 768.53 647.07 766.77 646.46 765.65 646.44 763.58 647.38 761.83 647.28 760.07 648.31 760.9 649.76 761.14 651.52 763.39 651.71 763.67 652.23 763.24 653.75 764.21 657.73 765.14 659.77 765.29 661.38 764.97 663.69 766.32 666.62 767.94 667.54 769.6 667.1 770.53 669.26 772.21 671.64 774.57 671.92 774.84 671.54 776.54 671.66 777.44 672.09 778.52 671.98 780.66 668.68 783.38 669.42 786.68 668.57 789.4 670.35 790.03 672.3 788.12 675.48 790.2 677.06 792.36 678.31 793.7 680.76 793.75 682.11 793.37 684.01 793.83 685.59 795.43 686.61 795.84 688.31 797.63 689.42 798.41 691.17 798.46 692.95 797.24 695.43 797.17 697.87 796.81 699.39 796.81 701.37 797.31 703.39 797.13 704.69 798.7 706.71 799 708.18 796.62 708.17 794.86 707.58 788.31 706.17 786.35 706.02 783.97 704.91 782.93 704.11 782.47 703.25 783.61 700.59 784.43 699.14 784.45 698.29 783.75 696.83 780.76 696.88 778.11 697.58 772.89 698.66 771.29 698.65 768.22 699.64 770.59 704.34 771.56 704.9 771.9 706.3 773.64 706.54 775.69 707.32 776.84 708.45 779.08 708.59 779.97 709.69 783.08 711.1 784.67 712.8 784.76 715.96 785.28 717.72 785.27 718.96 784.84 719.85 784.68 721.9 784.23 722.75 782.66 723.24 782.06 724.06 778.72 724.89 778.48 725.46 778.42 727.62 777.13 728.12 776.37 729.01 775.48 729.38 774.8 730.56 773.98 730.84 773.56 731.61 774.07 732.57 774.14 733.74 774.76 735.18 774.42 737.16 774.85 738.73 774.75 740.1 775.45 741.3 775.11 742.9 775.65 743.34 775.48 744.32 775.97 744.9 776.15 746.17 775.78 746.9 776.34 748.88 776.1 750.4 777.18 754.54 777.86 756.05 778.81 756.73 778.13 759.73 777.69 764.95 776.44 766.47 775.29 770.56 773.79 770.89 770.66 772.15 769.42 773.41 767.91 772.15 765.44 771.36 763.07 773.25 760.29 773.31 756.96 774.56 755.36 774.63 754.51 775.94 752.52 776.61 750.04 777 748.67 776.69 746.14 778.54 743.56 778.48 742.76 778.97 741.62 778.37 738.51 779.47 737.07 779.52 735.18 783.57 733.55 784.75 731.22 786.01 727.83 787.44 724.15 783.85 723.77 782.28 721.72 781.19 718.28 779.87 714.79 781.99 714.66 784.32 713.46 785.63 712.36 787.6 709.63 790.2 707.29 789.68 704.78 790.83 699.9 791.25 697.86 790.63 695.76 787.69 694.49 789.18 691.42 791.79 690.05 791.54 687.52 790.41 685.51 788.76 685.53 786.46 684.78 783.67 683.18 782.66 679.78 778.65 677.29 779.3 675.4 780.34 671 779.08 666.39 777.05 662.96 779.28 662.21 778.27 661.89 777.04 660.8 776.08 659.37 775.69 658.98 775.13 656.73 773.47 655.84 773.48 652.71 775.12 652.33 774.94 650.32 776.05 649.2 777.14 647.96 777.47 645.79 777.52 641.02 775.15 640.31 773.53 639.59 774.09 637.31 774.55 635.51 774.28 634.1 773.28 631.41 774.41 630.83 775.62 630.8 777.32 629.97 777.39 629.41 778.25 628.43 778.77 627.69 778.47 625.02 779.49 623.08 780.41 621.57 780.68 620.45 779.35 619.36 779.03 617.73 779.82 616.06 780.34 615.22 781.35 613.87 781.6 611.88 780.74 611.2 778.65 609.89 777.06 608.49 777.91 607.55 778.03 606.82 776.73 604.93 777.41 602.84 777.19 601.8 778.68 600.97 778.97 599.64 778.67 596.51 778.3 595.58 779.37 595.53 780.33 594.67 785.22 592.83 784.59 592.79 783.59 589.73 783.29 589.13 782.5 587.75 781.7 586.36 780.5 584.14 779.75 583.02 779.17 582.29 779.23 579.59 778.64 577.6 778.89 576.43 777.07 575.25 774.43 573.13 773.12 572.67 772.21 571.5 772.59 570.92 773.26 569.38 773.81 567.07 773.38 565.16 773.87 563.53 773.84 562.46 774.93 561.81 777.55 559.22 777.49 558.56 777.76 559.46 780.01 558.35 781.58 558.79 783.38 557.52 786.62 557.62 787.78 556.88 788.51 556.43 790.11 556.64 790.98 556.1 792.11 555.17 792.76 555.28 795.6 554.21 797.83 552.94 798.53 550.68 800.17 549.57 800.56 549.04 802.36 547.56 804.99 546.22 805.24 545.49 806.49 545.77 807.74 545.29 809.71 545.2 815.04 546.18 815.86 545.74 817.08 546.48 819.92 546.4 820.81 547.91 821.89 548.49 823.34 548.01 825.68 548.41 826.57 547.71 827.02 547.1 830.7 546.18 832.14 544.11 833.06 541.63 833.13 541.17 834.38 540.78 836.63 539.91 839.6 540.55 841.15 539.11 843.19 537.14 844.51 536.35 846.02 535.09 847.11 534.83 848.47 533.7 849.18 533.29 850.03 532.04 849.83 531.41 850.71 529.65 851.24 527.52 854.2 527.68 855.92 523.67 856.11 523.41 854.99 523.57 853.15 521.37 851.15 520.67 849.85 518.66 849.23 515.42 848.95 514.71 848.39 513.36 846.52 512.87 845.38 510.59 845.29 510.13 844.94 508.1 844.81 507.97 843.04 506.93 841.74 506.44 839.96 503.88 838.57 503.29 837.09 502.01 837.03 499.98 836.09 498.11 836.05 496.45 836.91 494.44 836.35 493.24 835.62 492.09 834.01 491.59 832.32 490.35 831.35 488.43 831.2 487.85 830.83 485.59 830.59 484.36 829.86 482.6 830.19 481.68 830.1 480.89 829.08 476.79 828.57 474.57 829.67 472.47 828.24 470 828.45 466.3 831.32 462.52 831.71 461.29 831.02 460.38 831.64 459.68 832.88 457.25 833.57 456.28 834.61 453.62 835.51 452.09 836.74 451.9 837.86 452.08 839.44 449.79 839.92 447.59 842.46 446.66 842.99 445.59 845.14 444.64 848.41 443.56 848.78 442.7 850.26 442.77 850.94 441.94 852.22 441.8 853.88 441.3 855.36 440.37 856.07 440.15 857.95 438.37 859.15 437.95 859.94 438.06 861.13 437.26 862.77 437.35 865.15 436.7 867.81 434.53 867.39 432.87 866.67 431.47 867.17 430.73 868.1 429.47 868.71 427.54 870.98 426.01 871.42 425.13 872.12 421.96 872.89 421.3 873.81 421.05 875.2 419.8 877.18 418.97 877.1 418.11 877.87 416.46 877.42 415.27 877.41 414.39 879.38 411.59 880.39 410.82 884.48 410.71 886.68 409.84 889.67 409.02 891.47 408.89 892.8 408.43 893.99 406.74 895.36 406.77 896.42 405.79 899.91 404.44 898.77 402.54 898.55 401.69 897.6 400.63 897.65 398.37 896.09 396.79 896.49 396.15 897.04 394.55 897.3 393.34 898.37 392.87 899.81 390.33 903.27 389.99 904.56 389.23 905 387.27 904.81 387.21 903.93 386.44 903.55 386.7 900.95 384.68 900.22 383.76 900.33 382.35 897.66 383.1 895.01 382.69 891.6 383.3 890.91 383.1 890.11 381.77 889.65 381.81 888.62 382.48 886.64 382.3 882.56 381.54 881.29 382.04 879.11 381.83 876.62 380.77 876.14 380.23 873.74 378.95 873.26 379.06 870.87 379.54 869.83 378.06 868.88 377.9 867.67 378.4 866.86 377.85 865.84 378.68 863.66 379.8 862.04 380.62 859.41 381 856.77 381.44 855.67 382.97 854.82 383.47 853.65 384.43 850.44 386.68 851.31 387.68 849.61 388.92 845.7 388.9 845.04 390.43 841.46 390.29 840.35 391.19 837.83 389.17 835.18 387.07 835.36 384.48 836.59 382.7 836 379.4 838.76 379.02 839.76 377.35 840.98 376.56 843.26 375.25 842.8 370.89 846.56 368.62 848 367.99 849.37 366.96 850.63 365.02 849.53 362.3 849.53 361.68 849.72 361.74 851.85 359.78 853.4 359.05 854.43 355.96 853.76 354.65 852.9 352.68 852.19 351.1 853.03 348.91 853.14 346.57 854.47 343.97 855.36 342.77 854.1 340.67 849.2 339.76 847.9 338.09 844.58 336.57 844.18 335.06 840.45 331.85 837.92 330.31 839.41 328.17 839.4 326.29 838.24 323.92 839.57 322.42 839.57 321.71 838.77 320.91 838.57 320.95 835.29 319.97 833.45 319.46 833 316.91 832.14 314.29 832.17 314.51 831.68 309.83 833.11 305.57 836 303.09 838.35 301.71 842.02 301.47 844.73 302.69 849.49 301.87 848.92 300.86 846.81 297.66 839.63 296.62 838.31 296.42 836.54 297.4 835.53 298.31 831.91 301.52 824.87 301.68 822.84 298.78 818.88 301.05 816.35 301.64 813.57 303.56 813.52 305.24 813.85 307.06 813.72 309.27 813.31 310.75 811.81 312.09 810.81 312.47 810.13 312.48 808.79 313.51 808.17 314.18 806.71 317.85 803.25 317.94 800.71 317.14 799.44 316.81 793.78 317.62 790.84 315.69 789.21 314.87 787.3 314 786.21 312.86 786.19 309.62 783.52 309.21 783.79 306.74 781.85 305.69 781.27 304.02 779.57 302.31 777.3 301.07 776.36 299.55 777.48 296.89 775.79 295.08 778.15 294.73 779.14 292.99 780.12 291.36 782.35 288.76 783.11 287.97 779.85 288.25 775.53 287.76 773.23 286.9 771.59 285.77 768.61 282.58 764.21 281.6 761.34 280.2 759.79 277.42 758.98 276.94 759.4 277.05 761.23 276.15 762.47 275.34 766.81 275.99 768.3 271.74 768.69 270.8 769.31 268.07 768.89 266.95 769.68 264.14 768.05 262.98 764.85 262.19 762.16 262.64 760.03 261.63 758.41 260.31 757.44 256.95 758.19 255.25 759.93 253.71 759.15 253.02 758.2 251.04 758.71 249.91 754.61 249.97 752.36 249.17 751.64 249.75 748.9 250.93 746.61 249.97 744.2 244.85 741.6 244.17 740.97 244 739.43 243.21 737.88 242.34 736.95 244.58 733.84 246.45 731.01 248.95 729.58 249.25 728.07 249.02 726.88 250.3 725.54 249.84 723.94 251.08 722.31 249.35 721.68 247.09 722.34 246.45 723.42 244.34 723.05 242.17 722.27 241.04 722.41 238.68 722.16 237.54 721.53 236.26 720.29 236.22 719.21 234.27 718.53 232.51 719.57 231.87 718.36 230.71 717.44 229.68 717.18 229.03 715.8 228.99 714.57 230.07 713.56 230.4 712.68 229.33 712.05 228.9 710.28 223.94 707.19 224.33 705.36 219.95 704.1 218.65 703.5 217.06 702.28 216.16 701.21 214 697.91 212.55 696.46 205.45 692.07 204.34 690.94 205.55 688.99 201.33 686.38 200.65 686.24 199.76 687.15 198.63 685.78 196 685.31 191.36 688.77 189.16 688.54 188.39 689.23 187.48 689.03 186.5 689.6 184.47 688 184.97 686.7 184.7 685.79 183.97 685.1 182.59 684.68 180.89 682.98 179.54 681.04 178.69 680.25 178.66 679.49 177.82 678.62 177.91 677.54 177.34 676.59 176.83 674.95 176.63 672.88 175.72 669.73 176.46 668.54 175.38 666.57 173.8 665.25 172.68 665.34 171.4 664.55 170.9 662.64 169.49 660.86 169.67 659.29 169.16 658.48 169.13 656.76 168.62 655.93 166.2 656.47 164.61 656.57 164.12 655.95 163.8 654.08 162.59 653.01 162.27 652.14 160.04 650.09 159.29 650.59 157 648.97 155.41 648.54 154.53 647.19 155.63 646.29 155.83 645.64 155.9 642.72 154.64 642.2 153.4 641.27 151.48 639.4 150.58 636.66 150.27 633.37 148.27 634.38 146.66 636.04 145.49 636.89 144.68 638.19 144.48 636.43 143.58 636.1 142.9 635.26 142.2 635.31 142.03 632.78 139.88 630.54 138.81 630.26 137.98 629.3 135.93 627.64 135.32 627.49 133.56 628.2 132.52 628.18 131.53 629.14 130.53 629.61 126.28 630.1 124.68 630.43 123.86 630.15 124.46 628.06 124.49 627.15 122.98 626.1 122.19 624.96 121.29 622.34 119.6 621.45 119.05 620.8 117.78 620.39 116.68 619.63 115.24 617.41 113.45 616.94 111.91 615.72 111.18 614.02 109.54 613.09 108.36 611.59 107.04 612.18 105 611.29 103.36 611 101.23 611.13 100.95 612.2 97.33 612.22 96.01 611.77 93.32 611.89 91.15 613.8 90.53 614.96 88.58 615.98 87.21 615.98 85.53 618.12 85.74 619.15 85.88 621.98 85.3 623.3 83.57 624.4 82.38 625.68 80.99 625.28 79.28 623.43 77.59 621.97 75.5 619.72 74.04 619.49 71.7 618.54 70.24 618.51 67.8 618.9 64.56 619.97 63.24 620.09 61.96 619.61 58.32 619.18 57.18 618.27 54.53 615.48 51.95 612.47 51.16 612.83 50.44 611.52 49.18 610.89 48.86 607.98 47.17 605.05 45.31 600.79 45.24 599.45 44.11 596.58 44.1 594.86 43.09 594.12 42.7 593.28 43.25 588.68 42.07 584.77 40.78 585.43 40.15 586.39 38.89 587.04 36.22 586.25 35.85 585.93 33.07 585.72 31.72 586.79 30.2 587.4 30.08 588.14 28.85 588.58 25.55 587.72 25.21 587.38 21.38 586.82 19.26 586.71 16.14 585.56 14.36 585.87 12.63 585.42 11.01 586.3 9.61 585.95 7.44 583.82 7.13 581.28 5.48 580.76 5.37 579.46 4.88 578.79 4.3 576.5 4.42 575.72 3.74 570.33 2.98 566.53 3.07 564.16 2.81 563.14 1.8 560.91 1.78 559.56 2.18 557.79 1.61 557.32 1 555.91 2.08 552.25 4.2 551.12 3.34 548.57 4.47 547.5 7.18 547.1 7.59 545.75 7.78 543.3 9.91 544.15 13.47 543.54 14.48 545.54 14.47 547.07 15.09 547.89 16.23 547.24 18.14 547.89 18.4 549.57 18.88 550.78 20.99 550.13 22.6 550.43 23.64 548.85 23.22 547.23 23.81 544.09 25.96 543.02 27.76 541.63 27.43 538.22 27.45 536.63 26.94 535.88 25.02 535.45 24.3 534.03 25.3 532.96 25.47 532.23 24.2 530.66 22.77 529.35 22.78 528.14 22.41 526.54 20.87 525.49 20.37 524.7 20.27 523.07 21.2 521 20.06 518.49 19.69 515.53 20.3 513.11 19.02 510.87 17.76 509.58 16.81 509.21 15.84 509.74 15.02 510.94 14.05 510.02 13.47 510.3 12.63 509.75 11.33 507.52 9.91 505.55 9.56 503.83 9.76 500.2 9.42 498.35 8.31 495.75 10.91 493.82 11.79 492.73 11.91 490.76 10.87 489.47 10.43 488.49 10.49 487.06 10.22 486 9.42 484.52 9.26 483.24 7.79 479.15 7.89 478.54 7.13 475.28 6.9 472.14 7.21 469.85 6.86 468.38 8.06 468.36 7.84 466.87 7.93 465.08 8.41 464.17 8.12 460.37 8.14 457.02 10.48 457.44 11.27 457.2 10.86 455.56 12.01 453.97 11.96 453.09 10.43 450.96 7.94 448.09 6.76 446.53 6.74 445.03 6.22 443.29 6.35 440.18 5.42 438.03 6.27 436 8.28 434.9 8.16 433.43 6.93 432.26 9.68 430.73 11.08 429.15 8.89 427.67 8.51 425.33 7.64 424.83 7.98 423.41 7.5 422.32 7.27 419.56 7 418.69 7.7 415.4 8.65 412.23 6.76 410.73 4.24 409.32 4.36 406.28 5.45 404.97 6.89 404.46 7.63 402.99 7.55 401.8 8.21 397.77 8.77 396.99 7.58 396.33 7.73 395.85 6.97 393.41 7.7 393.11 8.56 391.54 9.5 390.85 10.11 388.22 10.87 388.3 12.06 387.74 12.79 385.61 14.59 385.15 15.15 383.58 16.49 382.6 18.22 383.56 19.03 380.11 20.52 380.16 21.58 379.71 22.5 380.57 24.32 380.75 24.98 381.68 26.07 381.81 27.39 382.62 29.54 382.24 29.56 380.32 30.4 378.62 30.96 378.21 31.03 377.02 31.54 375.98 31.01 374.89 32.07 372.69 31.46 371.14 32.58 369.32 32.05 367.22 31.57 366.28 31.13 362.63 30.53 362.28 29.41 360.35 28.7 358.25 28.53 355.51 26.02 355.39 24.65 354.55 24.85 352.27 26.14 350.22 27.49 348.93 27.77 347.84 28.83 346.92 29.31 345.73 29.59 342.79 32.2 339.58 31.72 337.27 31.89 336.54 31.49 335.32 32.3 332.58 31.82 330.76 30.4 328.86 29.99 328.78 27.79 326.61 26.63 326.73 26.4 325.64 26.6 323.77 25.84 321.13 27.08 320.32 27.44 319.36 27.46 317.13 29.23 316.19 30.63 315.79 31.08 315.23 31.34 313.79 32.55 312.95 33.08 311.05 33.62 310.01 35.57 308.06 37.21 308.03 38.48 305.86 40.56 304.31 46.16 301.68 48.74 299.32 49.78 299.09 51.7 298.13 51.65 296.38 51.17 295.39 50.44 292.88 49.6 292.12 50.92 290.2 51.27 289.31 52.99 289.34 54.54 288.27 55.83 288.98 57.61 288.45 59.58 288.4 60.59 290.1 63.18 290.91 64.12 290.68 66.83 290.86 69.66 289.26 71.49 288.78 72.22 289.16 74.53 289.59 76.17 289.44 77.47 288.96 80.89 288.81 82 287.66 83.57 287.79 85.55 288.78 87.67 288.12 89.35 285.79 90.89 285.11 92.41 285.46 93.58 286.42 95.5 288.15 96.31 289.34 98.57 291.24 99.17 291.46 100.9 290.98 101.23 291.59 101.23 293.36 107.91 297.32 111.08 300.48 113.06 301.29 113.51 302.99 114.93 303.5 115.44 304.08 116.96 303.95 118.53 304.94 119.39 304.94 120.91 305.58 122.63 305.4 124.84 304.54 125.47 304.01 126.31 304.18 128.84 303.17 130.84 302.87 133.22 304.31 133.55 303.95 137.12 302.59 139.71 301.85 140.77 300.61 143 300.28 143.4 298.36 144.75 295.85 145.86 294.5 145.28 293.14 145.48 290.53 146.19 289.84 146.95 287.84 147.94 287.69 148.85 286.4 149.23 285.36 148.62 284.35 148.95 282.98 150.24 282.24 151.05 280.75 152.7 280.19 155.84 278.75 157.62 277.63 157.89 275.91 158.98 275.17 160 276.01 161.29 275.91 163.85 274.92 164.71 277.28 165.59 277.78 167.27 279.38 170.41 281.18 173.55 282.77 176.13 283.43 177.17 283.46 179.76 282.9 181.93 283.03 185.56 283.99 186.37 283.91 189.96 282.72 191.38 282.09 194.95 282.49 196.78 283.74 197.41 285.38 197.18 286.9 197.49 288.25 199.31 290.78 201.06 292.7 203.82 294.02 206.78 294.5 208.81 295.31 211.04 295.82 215.25 296.18 217.6 297.62 218.36 298.38 219.02 299.95 220.06 300.84 224.42 303.32 227.68 304.74 230.95 307.8 232.65 308.18 236.32 310.82 238.12 312.34 238.91 312.57 240.55 311.58 242.93 312.11 244.99 314.21 246.56 314.85 246.66 315.33 248.41 316.92 247.49 317.91 246.38 318.32 246.35 321.08 248.66 321.38 251.34 322.6 252.15 321.31 253.24 321.05 254.05 319.94 260.16 316.95 262.57 315.23 263.4 314.06 263.76 312.59 264.95 312.16 267.28 310.08 269.56 309.04 269.91 308.41 270.93 308.06 271.69 307.02 274.17 304.86 275.66 305.02 277.33 304.71 278.75 304.08 279.69 303.01 278.4 300.76 276.17 300.3 276.14 295.92 274.24 292.98 274.17 291.06 275.59 289.79 275.26 286.22 275.92 282.97 276.68 281.28 273 278.36 271.96 276.46 270.52 274.97 270.27 274.11 268.64 271.95 269.35 269.83 269.15 268.15 270.27 266.25 270.85 264.18 271.3 263.54 270.95 261.85 271.89 260.4 274.17 259.84 274.75 258.7 276.95 256.35 277.59 254.75 278.88 254.19 281.01 251.86 281.84 248.95 281.28 247.58 284.93 244.06 287.82 242.9 288.76 241.65 288.78 239.5 289.67 238.39 288.66 237.85 289.09 237.19 290.15 237.8 292.15 235.17 292.66 232.81 293.77 231.44 296.26 230.51 296.61 228.78 298.23 226.5 300.92 226.05 304.67 226.3 305.32 227.01 306.87 227.42 308.14 228.07 307.93 226.66 309.66 226.07 313.84 228.12 314.67 228.71 318.04 229.01 319.08 228.73 319.51 229.92 321.76 231.92 322.3 232.94 323.72 233.44 326.48 231.77 329.04 232.58 329.72 233.19 333.32 231.52 337.12 230.43 338.05 230.78 339.47 230.83 342.69 232.58 343.73 233.93 344.54 235.65 345.15 238.33 346.82 239.6 347.81 239.96 349.68 238.71 350.69 238.41 351.99 239.5 352.64 239.65 353.76 242.62 354.32 243.6 354.6 245.25 356.34 245.3 359.64 244.31 357.96 242.01 357.18 239.63 357.36 234.74 357.33 232.38 357.61 230.28 358.77 229.06 358.88 227.11 359.26 225.01 358.95 223.84 358.14 222.83 357 222.42 356.17 221.06 355.41 219.28 353.96 217.69 353.3 216.27 352.34 215.1 350.21 213.43 349.65 213.25 348.16 211.43 347 208.69 346.72 206.61 347.98 203.3 348.21 200.64 347.45 199.12 346.64 196.71 342.56 196.71 339.67 195.06 339.02 192.1 337.29 190.63 338.1 189.77 339.27 189.92 340.79 191.39 342.11 191.72 344.21 193.57 347.2 195.32 348.01 192.98 348.57 192.17 350.31 191.34 352.26 191.36 355.48 191.74 356.42 192 357.13 194.07 358.52 194.61 361.13 194.91 364.02 194.83 366.73 194.07 368.81 193.82 374.53 192.53 378.68 190.32 380.94 188.25 381.52 187.06 383.83 185.03 387.6 183.08 389.32 182.06 391.3 180.49 391.3 184.14 393 182.34 395.58 180.04 397.05 178.92 401.96 176.44 403.97 175.33 408.3 172.69 415.52 168.56 419.11 166.31 424.05 159.97 424.64 159.06 425.17 156.83 425.02 154.98 426.54 146.04 426.38 143.12 425.32 139.73 424.51 136.64 424.13 135.9 425.35 131.6 425.93 128.13 428.21 121.08 428.51 117.64 428.82 115.66 426.05 112.29 424.48 105.53 421.57 99.7 423.34 98.84 423.52 95.98 423.27 93.47 423.55 90.63 423.47 89.62 424.1 87.89 424.53 85.31 425.57 80.65 425.57 79.03 426.03 72.72 426.79 71.43 427.52 69.38 428.64 65.6 428.92 63.9 428.66 60.58 428.74 58.3 429.3 55.47 429.5 53.16 430.54 47.99 431.07 46.27 430.92 44.09 431.5 42.52 431.68 40.49 430.92 38.16 429.9 37.02 425.24 33.53 423.8 30.92 421.62 28.41 420.73 27.95 418.61 24.43 416.63 24.43 416.63 21.85 414.35 19.16 412.42 16.53 411.11 13.46 410.55 12.75 408.88 11.71 408.27 11.03 407.94 9.53 407.94 7.33 408.24 4.97 409.66 2.26 410.14 1 412.08 2.4 413.26 2.95 413.66 4.21 414.84 4.26 415.57 4.7 416.84 4.32 418.98 4.87 420.48 5.77 421.39 7.41 422.26 6.7 424.2 7.49 425.59 6.83 426.75 7.51 427.6 7.09 430.14 7.78 431.23 7.3 433.49 6.97 434.74 7.88 436.03 9.41 437.16 11.12 438.46 12.16 439.96 12.32 441.75 10.68 443.08 10.39 444.74 10.87 446.35 12.32 447.99 13.08 450.93 12.2 451.8 12.39 452.69 13.75 454.73 13.86 455.37 16.04 456.73 16.97 457.44 17.82 459.39 21.67 459.33 22.29 461.75 22.86 464.41 20.99 465.7 22.78 468.04 25.04 469.6 25.89 469.91 26.83 471.2 28.31 473.48 29.83 473.91 30.49 473.48 31.57 472.11 32.21 471.62 36.11 472.3 36.76 474.7 37.07 475.69 36.97 476.07 38 477.6 39.01 478.29 40.33 481.44 41.57 481.61 43.74 483.05 44.18 484.68 45.21 487.28 45.74 490.11 44.82 491.52 45.54 495.26 44.93 496.73 46.81 498.23 47.52 499.82 49.06 503.06 53.12 504.8 54.28 507.17 53.27 508 54.07 511.89 52.81 512.6 53.28 515 53.75 516.23 53.16 516.96 53.47 518.93 53.22 519.6 52.56 520.96 52.34 522.26 52.81 523.41 53.64 526.15 54.25 528.29 55.39 531.41 54.46 532.37 53.24 533.08 53.1 533.94 53.98 536.43 54.66 538.52 55.49 539.45 55.5 541.06 56.64 542.15 56.97 544.01 56.04 546.18 55.58 548.39 52.98 550.33 50.43 554.13 48.83 555.66 47.11 557.67 45.49 560.09 42.85 561.6 41.74 Z" id="33570000"/>
</g>
</svg>