<?xml version="1.0"?>
<svg xmlns="http://www.w3.org/2000/svg" version="1.2" baseProfile="tiny" width="800" height="818" viewBox="0 0 800 818" stroke-linecap="round" stroke-linejoin="round">
<g id="sigung">
<path d="M 799 205.45 798.03 207.96 798.53 208.99 798.67 209.92 798.14 210.56 796.97 211.07 796.06 212.15 794.42 211.65 791.58 213.35 788.22 215.61 787.99 216.07 785.63 218.95 785.07 221.09 784.27 221.96 783.95 222.86 782.03 225.44 781.21 226.85 780.38 229.06 777.55 231.4 776.04 232.07 775.72 233.66 775.92 234.17 775.53 235.51 775.06 235.53 773.16 234.42 772.63 234.36 771.26 235.89 772.13 237.18 773.24 237.46 773.43 237.97 772.94 239.87 772.04 240.8 771.21 241.29 770.72 242.25 771.16 242.89 770.87 243.81 769.9 245.47 769.83 246.58 767.48 249.28 766.7 251.32 765.41 259.56 764.51 260.41 764.77 263.19 761.39 262.19 756.15 259.58 752.06 255.82 749.41 252.07 746.04 252.43 743.98 249.39 744.57 246.56 743.84 243.9 736.49 240.39 729.12 238.82 727.72 238.25 726.41 238.18 725.52 238.45 723.65 237.9 722.77 237.25 721.77 237.5 720.04 236.01 719.31 235.75 718.98 237.9 718.06 239.65 716.96 242.82 717.3 244.03 717.94 245.16 718.5 247.34 718.43 248.58 717.7 249.71 716.3 251.03 716.42 253.82 717.14 254.66 717.25 256.33 716.64 257.38 713.66 257.58 711.95 256.52 709.85 256.1 707.16 255.93 705.05 256.8 700.61 258.31 700.48 260.29 698.41 261.42 693.43 260.86 690.42 261.28 689.19 260.02 687.18 258.54 685.1 258.63 681.14 258.59 679.67 257.61 678.53 259.03 673.9 257.32 671.38 259.86 669.17 265.35 668.63 267.79 665.52 269.75 664.68 272.15 663.52 273.96 663.57 276.2 662.5 276.58 659.9 275.94 657.31 276.63 654.8 275.5 652.26 276.2 651.32 277.09 650.26 277.55 649.3 278.23 648.08 278.02 647.69 278.75 646.82 279.58 646.42 279.58 645.49 280.38 645.16 281.28 643.37 283.29 642.47 285.12 641.51 285.82 641.11 287.69 642.54 288.52 643.49 289.9 643.84 290.72 643.61 292.74 643.81 293.48 643.44 294.02 643.54 296.61 644.07 298.46 646.61 301.1 647.61 301.67 647.98 302.29 648.2 303.58 651.71 305.53 652.44 305.48 653.27 306.46 654.66 307.52 655.26 310.18 653.76 313.23 653.56 315.36 652.6 316.34 653.07 317.53 652.66 317.92 652.9 319.4 652.44 321.38 651.73 322.56 650.81 325.84 649.15 327.78 648.65 328.68 646.86 329.51 645.51 331.63 643.88 332.13 643.22 332.72 639.75 334.19 638.31 334.91 638.1 337.18 637.4 340.05 636.34 340.39 634.79 340.49 633.41 341.76 631.35 343.08 627.61 345.06 624.64 345.27 624.09 347.19 624.07 348.86 623.15 350.18 624.41 351.86 624.57 353.87 623.97 356.69 624.24 358.15 622.63 360.9 622.7 362.3 621.32 363.22 620.26 364.23 619 364.8 613.13 368.94 609.8 371.41 609.21 372.77 606.25 371.6 604.01 375.22 603.57 375.71 601.42 376.84 599.44 376.64 599.01 377.1 596.73 377.76 596.52 378.16 594.66 378.93 593.51 379.69 592.35 379.3 592.04 378.61 587.71 381.34 586.75 381.4 585.29 381.01 584.1 381.53 582.04 380.87 578.5 381.06 576.94 380.17 572.67 381.68 572.39 381.94 570.24 381.97 568.65 383.09 567.4 383.55 566.97 384 565.14 384.19 564.26 385.35 563.36 385.35 561.66 386.51 559.44 386.74 556.22 388.13 555.06 388.34 553.62 389.48 550.96 389.72 551.03 393.27 551.35 397.16 550.61 397.85 549.54 399.61 549.6 400.64 548.66 402.67 548.24 404.49 548.57 406.89 549.31 408.65 549.72 410.92 546.99 413.58 543.7 415.66 540.87 417.84 536.97 420.15 534.81 421.21 535.26 426.64 535.49 428.32 535.06 428.4 532.59 430.38 530.49 431.64 528.3 432.37 527.35 433.49 523.34 434.39 521.78 436.18 520.01 437.03 518.95 437.79 516.44 438.62 515.14 439.91 512.01 441.66 506.55 443.42 504.15 443.38 501.66 445.38 500.29 445.62 497.69 447.6 497.37 448.17 497.66 449.82 496.95 451.85 495.79 457.84 489.43 456.96 486.71 457.53 481.36 458.14 478.48 459.5 477.69 460.67 476.08 462.39 474.25 463.05 472.88 464.59 472.72 465.04 467.94 468.93 463.4 472.14 463.25 473.8 461.57 474.99 459.24 477.73 458.46 478.32 455.48 481.58 456.79 489.87 455.74 492.9 454.87 494.65 454.33 495.21 453.28 499.55 452.24 500.28 451.72 502.55 451.05 503.79 451.43 504.68 451.47 506.32 450.91 507.62 451.56 512.29 449.8 512.31 445.11 513.02 444.99 512.16 443.44 512.31 442.81 513.37 440.19 516.15 439.81 517.13 437.46 520.04 436.2 520.48 433.35 519.94 431.91 521.01 429.8 521.9 428.42 523.3 428.02 523.39 425.38 524.7 424.28 526.18 420.17 527.64 417.2 528.07 418.4 530.79 418.6 532.55 418.51 533.59 419.58 536.06 420.19 538.33 419.73 545.22 421.4 547.7 423.39 550.09 424.13 550.72 423.41 552.14 423.25 554.98 422.76 556.03 423.17 558.34 423.48 559.26 422.36 560.14 422.08 561.01 420.49 562.26 420.75 563.75 420.33 566.33 420.5 567.32 420.01 567.94 419.3 571.86 418.72 573.86 418.18 574.86 418.08 576.18 417.13 578.25 416.7 580.58 416.95 581.08 416.15 582.08 415.41 584.17 415.65 585.7 415.37 586.15 415.69 587.89 414.65 588.29 413.7 589.48 412.56 589.35 411.63 591.68 410.71 592.79 409.82 593.03 408.85 594.68 408.9 595.68 408.22 596.53 408.25 597.55 406.26 599.27 405.22 600.39 403.6 601.39 401.57 605.06 400.93 605.84 400.52 607.32 398.16 608.04 395.93 608.85 395.32 609.25 395.21 610.65 393.68 611.47 393.16 612.19 392.3 614.05 391.26 615.76 391.36 617.1 392.13 618.09 392.16 619.91 392.87 621.58 393.5 623.69 393.35 625.27 393.94 625.98 392.73 628.42 393.33 629.3 392.67 630.82 392.92 631.82 392.02 634.03 389.87 635.79 389.02 637.11 387.91 638.38 387.14 641.33 386.51 644.96 388.23 645.07 390.38 646.48 390.99 647.19 394.39 648.22 396.26 647.08 400.8 647.02 403.51 648.42 404.2 648.54 405.48 649.51 407.81 650.27 409.58 651.2 413.24 652.03 413.84 654.2 414.5 655.57 415.38 656.9 416.6 658.2 418.03 659.96 418.65 660.41 419.19 661.46 420.88 663.49 422.45 662.94 423.46 663.88 426.24 667.17 428.86 670.03 431.17 672.11 433.3 675.54 432.44 677.12 430.91 678.79 431.08 681.33 430.86 682.99 431.15 685.28 430.5 687.14 430.64 687.8 430.14 689.48 431.32 690.57 431.05 691.57 431.37 692.42 430.92 693.72 430.07 695.01 429.09 697.38 429.71 699.01 430.58 699.8 432.08 701.81 431.69 702.89 433.03 705.72 432.91 706.56 433.56 708.23 433.65 709.98 433.17 710.96 432.17 712.1 430.26 713.87 430.45 717.63 430.11 719.64 429.54 720.49 426.3 722.97 424.96 724.82 421.79 727.46 421.97 727.93 421.84 730.17 421.35 730.79 420.14 733.64 416.22 736.64 413.39 737.83 409.51 740.41 406.65 741.77 407.08 744.62 406.21 748.19 406.22 750.31 405.83 751.26 405.13 753.78 405.95 756.73 405.78 757.39 404.14 760.89 404.17 761.38 403.19 764.91 401.59 767.5 401.1 767.57 399.4 768.64 398.93 769.48 397.36 770.91 397.19 771.43 395.86 772.35 394.94 776.05 392.31 778.12 392 781.8 392.2 783.78 391.78 785.2 390.99 786.37 389.92 787.21 388.36 788.73 387.18 790.12 386.18 790.71 383.52 793.29 382.3 793.98 379.11 793.18 376.52 793 375.31 792.5 373.15 792.34 372.36 792.58 369.89 794.32 368.48 794.74 365.76 794.5 363.41 793.68 359.63 792.6 355.73 793.44 352.87 792.78 350.82 793 348.2 791.82 343.85 791.44 339.18 789.33 338.77 788.97 336.93 788.1 334.05 786.99 329.92 788.13 328.23 788.06 323.6 788.49 321.68 788.36 316.48 789.7 314.21 789.79 313.81 789.46 309.97 789.62 306.53 794.6 305.17 796.09 303.51 796.38 301.11 799.78 299.31 800.49 297.78 802.64 295.52 804.06 294.56 809.25 291.46 812.32 289.39 814.11 286.65 817 285.85 816.2 284.99 815.73 282.54 814.94 281.37 814.88 279.93 815.55 279.52 816.31 278.69 816.79 277.6 815.45 276.25 816.49 275.01 814.78 274.88 814.25 273.5 815.39 272.75 814.09 273.56 813.44 273.13 812.87 271.45 812.29 270.69 811.74 269.82 810.33 268.7 809.08 267.51 809.11 266.96 808.35 265.66 807.57 265.25 806.54 265.97 802.27 265.11 800.79 264.93 797.74 263.4 797.53 261.95 796.66 260.16 796.46 258.27 793.64 254.65 792.58 249.15 792.47 244.85 791.18 240.43 790.26 235.76 789.09 234.3 788.47 228.84 786.78 226.35 785.16 225.4 784.99 225.06 784.27 223.63 783.79 222.28 783.97 221.61 783.69 220.55 783.8 216.96 785.15 214.8 785.73 213.49 785.69 212.54 785.28 212.15 784.75 210.35 784.35 208.01 785.42 204.72 786.34 198.59 787.16 197.18 785.98 196.34 785.77 195.3 784.93 193.78 784.27 193.14 784.7 191.75 784.64 190.88 784.97 189.84 784.48 189.22 783.21 189.4 779.31 188.53 778.29 188.36 777.49 189.67 775.45 190.06 774.4 188.98 772.13 188.97 770.99 187.66 769.69 185.8 769.69 184.92 768.58 184.24 766.25 183.58 765.77 181.72 766.17 181.09 765.51 181.08 764.01 179.97 763.68 179.03 762.05 178.88 760.91 179.39 760.11 179.72 758.47 179.15 757.68 177.74 757.8 176.45 756.96 175.61 757.03 174.51 757.74 173.81 757.76 172.13 757.28 170.81 757.25 170.12 756.53 168.97 756.22 168.27 755.63 167.66 753.51 164.5 750.71 163.11 749.36 162.68 748.66 159.66 747.47 157.47 746.77 155.65 744 153.74 743.77 151.51 742.67 150.75 741.69 149.63 739.75 147.65 735.61 147.16 734.37 146.44 733.29 143.46 731.05 142.21 729.3 141.21 725.83 139.88 724.01 139.01 723.21 136.87 721.97 135.79 721.8 134.5 720.7 133.32 718.12 133.11 716.94 132.51 715.51 132.5 713.66 132.7 709.85 131.37 707.27 130.59 705.14 129.97 702.6 128.56 699.73 128.05 699.08 127.06 696.39 126.65 695.76 126.56 694.76 124.83 694.54 122.73 693.53 121.13 693.67 120.27 694.08 118.78 693.9 117.69 693.42 115.31 693.31 114.83 693.1 112.72 691.13 110.52 690.51 107.26 688.76 106.02 688.67 105.12 688.23 104.77 687.14 103.92 686.58 101.83 686.54 100.43 685.63 99.62 683.89 99.33 682.13 98.45 680.89 96.63 680.27 95.18 679.04 94.73 677.81 93.9 677.31 92.34 677.15 90.79 677.55 89.73 676.7 87.22 675.6 85.8 675.19 84.65 675.58 83.93 675.43 82.49 674.48 80.08 673.93 79.66 673.68 78.74 672.16 77.9 671.94 76.29 672.79 75.18 672.45 74.01 672.44 72.29 671.6 70.13 671.19 69.48 670.08 66.63 668.58 65.14 667.31 60.65 666.02 56.32 663.26 54.21 661.56 53.08 660.43 51.31 659.27 51.81 658.24 53.12 656.68 52.7 653.52 52.82 651.11 52.4 646.22 53.48 644 55.22 640.94 56.54 639.52 58.21 639.4 59.65 638.12 60.75 636.94 61.54 634.44 62.73 634.2 64.5 633.03 66.16 631.3 67.68 630.66 67.09 629.74 65.37 628.51 65.04 627.67 63.58 626.48 62.82 624.4 60.86 622.16 59.49 622 55.35 618.03 54.39 616.52 54.21 614.46 53.82 612.8 54.47 610.15 54.34 609.03 54.5 607.7 55.09 606.53 54.19 604.36 55.27 601.37 55.48 600.48 56.64 599.12 56.58 596.81 56.75 595.51 56.44 594.96 57.79 590.33 57.5 589.34 57.8 587.66 58.52 585.88 58.26 583.76 57.73 582.9 57.9 581.29 57.65 580.18 55.21 578.86 53.94 578.43 53.05 576.57 52.77 576.41 51.84 573.69 51.01 570.8 51.01 569.25 50.23 568.29 47.5 566.49 46.76 565.21 45.57 565.37 43.56 564.37 43 564.44 40.59 557.95 41.22 553.01 40.8 551.93 40.84 550.31 40.65 549.01 41.53 546.52 41.42 544.73 40 542.75 40.16 540.8 40.09 538.96 39.1 537.99 39.57 535.52 40.08 533.9 39.94 532.15 39.32 530.03 39.28 528.05 39.03 525.94 39.27 524.42 39.06 523.04 39.78 521.57 39.74 520.18 39.4 518.99 40 518.12 40.81 518.01 41.62 517.21 43.83 516.28 43.69 514.4 44.77 513.93 45.49 513.91 46.54 514.4 47.33 513.46 48.71 509.85 49.93 509.71 51.22 511.24 51.98 511.13 54.25 511.58 55.5 510.81 56.15 509.93 58.91 508.99 59.42 505.86 57.8 503.87 55.88 502.7 55.94 501.89 54.76 499.92 56.36 498.93 57.37 498.56 57.81 497.9 58.81 495.7 59.42 495.22 59.36 493.48 61.33 494.03 66.31 498.44 67.82 498.17 68.03 497.51 69.54 497.82 70.18 497.16 71.75 496.59 72.3 495.83 73.59 494.87 74.91 494.78 76.29 492.35 76.72 492.18 77.48 491.01 77.99 489.39 78.64 488.95 78.93 487.27 80.05 486.31 80.82 485.18 82.09 483.8 84.51 482.48 85.4 482.88 86.55 482.6 87.31 483.22 87.87 482.6 88.92 481.99 90.82 478.76 91.09 476.9 90.49 476.14 90.62 475.53 88.37 474.48 87.48 473.71 85.22 473.3 84.01 471.3 81.64 469.81 83 467.99 85.7 466.47 87.16 464.01 90.02 460.7 92.28 457.95 94.21 456.05 92.55 455.36 91.49 454.58 90.42 453.44 90.25 452.04 89.24 450.53 89.16 449.8 88.03 449.02 87.6 448.38 85.61 447.28 85.54 446.84 86.73 444.18 86.14 442.31 84.81 440.39 83.24 439.71 81.88 438.63 82 437.37 82.48 436.23 82.33 435.43 82.65 433.13 82.3 431.96 82.29 430.9 81.72 428.79 80.58 428.24 81.27 425.23 81.14 423.1 81.44 421.92 80.67 417.31 80.13 415.79 80.35 415.33 79.76 412.79 78.81 409.66 77.74 408.84 76.89 405.1 75.88 401.43 74.91 401.2 74.76 399.91 74.12 398.95 74.11 398.15 73.66 397.41 74.47 396.82 74.9 395.93 75.96 394.98 76.8 392.9 76.51 390.64 76.61 389.9 77.39 388.71 77.61 387.65 77.06 385.74 77.65 385.17 78.37 381.71 77.46 379.78 75.09 376.19 71.55 374.65 71.11 374.61 69.78 372.3 70.4 371.45 71.64 371.58 73.62 370.99 75.66 368.9 76.49 366.09 76.28 364.82 75.34 363.71 75.45 362.33 75.09 361.8 75.91 361.06 75.31 360.51 74.81 359.11 74.5 357.04 73.09 355.6 73.5 353.78 71.66 350.59 71.94 350.14 71.43 349.37 69.67 348.61 70.55 347.51 69.29 345.37 69.54 345.06 67.53 344.3 66.51 343.5 65.99 342.62 64.14 342.28 63.22 340.66 63.16 339.8 61.63 338.94 60.09 337.71 59.14 336.33 59.02 333.68 56.72 332.16 55.21 329.23 54.47 328.38 54 326.65 54.08 324.84 52.92 323.52 52.36 322.44 51.6 321.67 51.86 320.97 50.69 318.48 49.86 318.47 49.66 317.49 48.14 316.63 46.63 315.18 45.26 313.56 44.16 311.6 43.26 311.62 41.38 310.29 40.62 309.43 38.75 309.1 36.64 309.73 33.42 310.04 30.09 309.37 28.08 309.95 26.07 310.76 25.63 310.66 23.72 310.96 22.7 310.71 21.45 311.06 20.71 310.25 18.76 309.14 18.67 307.32 15.86 304.89 16.2 302.88 15.34 301.59 14.64 299.89 14.52 298.29 13.98 297.17 13.91 295.4 14.55 292.71 15.18 291.2 14.51 288.65 12.85 287.27 9.88 285.44 9.46 284.91 8.25 284.66 6.8 283.9 5.31 283.79 2.86 282.41 2.75 282.01 1 281.76 1.03 281.1 2.16 280.25 2.12 279.18 2.85 277.88 2.99 276.9 4.16 275.54 4.89 273.97 6.13 272.04 7.68 271.11 6.77 269.82 4.84 265.33 4.16 262.35 4.95 261.27 6.02 261.21 6.67 259.46 6.23 258.15 6.21 255.74 7.18 254.08 7.88 253.76 7.8 252.69 7.05 252.02 5.84 250.54 3.77 248.77 4.03 245.68 3.42 245.35 2.46 243.57 1.86 242.91 3.35 241.87 5.09 241.74 8.18 240 9.23 238.81 9.03 237.17 9.84 234.94 11.8 233.79 13.51 233.58 14.78 232.72 14.37 230.09 14.33 229.04 15.14 227.46 15.16 225.1 15.41 224.41 20.21 223.01 21.41 223.06 23.85 222.06 24.99 222.26 25.69 221.05 26.78 220.92 27.89 219.76 29.45 218.8 29.82 218.34 30.86 218.16 32.61 218.15 33.83 218.44 36.33 217.09 36.7 215.8 37.85 213.42 39.02 213.16 39.42 211.57 39.42 210.24 39.66 206.86 38.95 205.4 38.84 203.79 39.65 201.3 40.83 200.03 40.85 198.28 43.31 196.95 44.23 196.11 45.83 195.4 46.87 194.1 49.45 192.1 52.53 191.35 54.32 190.52 56.03 191.56 58.88 194.58 61.8 192.26 61.95 187.94 63.11 186.57 63.97 185.03 65.23 183.81 67.63 182.73 68.75 181.03 69.43 179.69 69.63 178.6 71.62 177.29 73.14 176.81 75.16 176.79 75.48 177.17 77.8 177.32 78.66 177.2 79.19 178.67 80.97 178.43 81.63 176.99 82.61 176.69 84.78 174.52 86.29 174.07 87.7 173.14 88.42 171.91 89.52 171.83 90.14 171.32 90.78 169.74 92.26 168.5 93.19 166.48 94.4 165.67 95.88 165.65 95.83 164.39 96.45 164.02 95.29 163.15 94.64 163.5 93.15 163.66 92.08 164.46 91.66 165.45 90.96 165.94 90.19 164.72 89.12 163.81 88.1 163.93 87.34 164.57 86.23 164.33 86.89 162.88 86.46 162.08 85.47 160.97 83.57 159.47 82.44 159.49 81.8 156.01 81.14 155.48 80.29 151.8 80.44 148.47 80.8 147.23 78.98 143.85 77.18 139.32 75.05 138.56 71.19 136.86 71.15 134.06 73.89 131.88 74.25 130.94 76.1 127.97 77.83 127.53 80.38 124.04 80.91 123.02 81.84 121.98 83.48 121.09 82.91 120.15 82.47 118.88 83.59 117.63 84.75 119.17 85.82 118.19 87.9 119.29 88.54 118.15 89.8 117.77 90.34 117.36 89.28 115.08 89.28 114.48 91 111.25 90.68 110.48 90.57 107.79 90.97 106.14 93.18 106.18 94.63 107.4 96.26 107.95 96.76 106.36 96.15 104.28 96.11 103.06 96.47 101.71 97.29 100.64 99.21 100 101.27 97.99 103.15 97.99 103.99 99.43 105.06 99.64 106.95 100.3 109.07 100.83 109.68 100.67 111.75 105.08 111.32 106.99 110.22 110.91 110.17 112.2 111.25 113.41 112.95 114.25 115.26 118.2 118.16 116.33 122.91 120.91 125.33 124.11 125.59 127.15 127.07 130.05 127.55 131.66 129.88 132.79 130.96 133.02 134.08 134.49 137.68 137.24 138.58 138.2 139.18 140.04 140.23 140.92 142.81 139.7 145.86 138.99 147.41 139.17 148.44 138.44 149.05 137.69 149.74 138.62 151.3 139.77 152.58 139.67 153.64 138.76 154.84 138.17 156.75 136.55 158.3 135.48 158.66 133.92 159.67 131.69 159.51 130.63 159.8 129.38 162.17 124.39 161.56 123.03 161.53 120.63 162.32 118.32 162.94 115.62 163.78 114.91 166.43 113.54 166.38 111.68 167.2 110.38 167.34 108.83 166.2 102.88 164.19 102.19 161.49 100.66 159.87 99.1 158.43 96.57 157.69 93.61 157.01 88.91 156.7 85.87 157.09 83.22 157.07 79.73 156.6 79.01 156.62 75.75 156.15 74.5 157.26 71.43 156.73 69.95 154.42 68.63 152.3 64.59 150.3 62.92 149.57 59.06 147.17 58.05 151.52 55.51 151.98 53.95 156.62 52.59 160.11 51.07 161.78 50.21 161.25 48.55 160.84 45.62 161.65 45.21 163.85 42.7 165.4 39.73 165.98 38.88 167.04 38.04 167.33 37.25 166.83 35.39 167.34 33.18 170.24 31.17 172.1 32.94 174.76 30.92 178.22 28.95 178.91 27.77 180.47 26.96 183.78 26.26 185.82 27.16 186.1 27.56 188.29 25.05 189.6 23.82 190.14 23.02 192.06 24.62 192.89 24.81 194.63 25.85 195.15 25.58 197.42 23.18 197.65 21.25 198.53 20.57 199.29 18.61 199.63 15.21 200.01 14.37 200.7 14.18 201.7 15.2 203.26 16.45 205.05 18.6 205.98 20.23 208.71 17.37 210.27 15.09 211.04 15.27 211.65 13.94 211.93 12.36 212.45 11.69 213.53 9.19 212.74 7.22 213.25 5.97 214.61 4.29 215.83 3.57 217.51 2.86 218.46 2.73 220.04 2.16 220.93 3.04 221.89 2.47 223.73 2.22 225.49 3.98 225.62 5.23 226.71 6.63 227.65 7.09 228.57 6.94 229.19 6.24 231.17 6.37 232.1 6.16 232.55 6.72 233.92 6.14 234.83 4.77 235.8 4.16 236.89 5.68 237.97 5.65 238.36 4.84 238.92 4.54 240.49 4.47 241.49 4.63 242.15 4.38 242.67 3.15 243.98 3.49 245.51 5.2 246.96 6.42 248.57 7.41 251.07 11.47 252.38 12.82 256.56 15.08 257.63 17.41 258.81 18.68 259.26 19.75 260.13 18.77 263.68 14.02 263.83 12.28 264.39 11.15 265.85 9.57 267.37 5.97 267.76 5.83 267.65 2.65 268.46 2.43 269.35 2.61 270.51 4.03 272.11 7.56 274.11 9.89 275.04 9.87 275.74 9.42 276.7 8.27 281.55 10.44 285.59 11.89 287.04 12.3 288.71 12.24 289.9 14.3 290.4 15.9 292.78 15.85 293.27 13.94 292.83 13.03 292.94 12.49 293.82 11.5 294.16 10.74 293.84 9.41 295.77 8.2 296.53 8.46 297.24 8.27 298.59 7.15 298.96 6.17 299.43 6.26 299.7 7.7 300.34 6.06 302.34 4.51 302.33 3.33 302.82 2.38 303.06 1.24 304.19 1 306.12 2.94 307.39 3.79 307.49 4.71 308.32 4.99 309.97 6.76 311.42 7.31 312.39 8.91 315.09 7.96 316.61 7.69 318.09 7.64 319.79 8.37 319.34 11.63 320.62 13.58 320.59 15.39 321.25 16.17 322.46 15.98 324.65 18.07 324.6 19.33 325.17 20.58 325.99 20.79 326.56 22.56 327.49 22.84 330.45 24.42 332.02 24.37 332.66 25.31 333.89 25.35 334.87 26.31 335.22 29.41 335.75 30.42 335.85 31.45 337.13 34.49 337.66 36.79 337.88 38.47 339.02 40.04 340.24 42.86 339.73 43.98 336.9 45.44 336.27 47.55 337.04 49.41 336.08 52.53 336.97 53.93 335.32 55.59 335.17 57.34 332.51 59.62 330.28 61.26 329.97 63.64 328.38 64.91 328.04 66.52 326.55 68.33 327.63 68.84 329.72 68.64 331.35 68.87 331.69 69.3 332.93 69.35 336.29 69.81 338.84 70.73 339.33 70.56 341.4 71.07 342.72 71.71 344.5 71.74 347.33 73.1 349.86 76.15 351.54 79.49 352.22 80.03 352.94 81.14 354.37 82.72 356.05 83.04 356.91 83.54 358.21 85.22 361.75 86.61 362.36 86.93 363.79 85.6 368.09 87.83 369.87 90.76 370.99 91.93 370.5 93.74 370.82 95.84 371.51 96.81 372.43 98.93 373.02 101.75 377.68 105.03 376.89 106.84 375.19 109.85 375.96 111.6 375.61 112.15 375.62 113.27 375.21 114.5 375.26 115.28 375.88 116.32 376.14 117.31 375.94 119.23 376.29 120.56 376.17 122.27 376.93 123.66 377.08 125.65 378.35 126.08 380.11 127.4 381.38 127.16 382.69 126.57 386.12 125.24 386.93 125.41 390.02 124.49 389.88 120.74 390.76 117.41 394.5 114.35 397.25 112.86 399.78 110.96 399.27 107.56 398.96 106.47 400.62 105.44 401.36 105.55 404 107.38 405.03 107.98 405.72 108.73 407.6 109.82 409.23 110.05 410.58 110.97 412.37 111.15 413.32 111.89 414.14 114.11 415.62 115.5 416.81 118.08 417.79 115.37 418.48 114.49 419.83 113.46 420.19 111.78 421.76 110.84 422.7 109.47 423.27 109.17 423.52 108.22 424.51 106.97 426.57 104.86 426.74 104.33 428.04 104.11 428.36 104.57 430.6 105.37 433.33 105.2 434.83 105.4 435.97 105.06 436.46 105.41 437.6 106.95 438.83 107.84 441.04 108.58 446.82 108.04 447.83 108.73 448.95 108.02 450.13 108.13 450.6 108.54 452.43 108.78 453.97 109.32 455.3 109.29 459.62 108.45 467.22 109.16 468.89 108.4 474.79 108.43 477.32 108.29 479.98 105.56 481.42 105.35 482.89 104.69 484.06 102.92 484.69 102.35 484.3 99.98 484.43 98.95 485.17 98.07 485.56 97.16 487.24 95.15 487.49 94.29 488.53 93.62 489.39 91.49 491.27 90.63 492.51 88.12 493.56 85.33 495.4 84.64 498.29 83.09 498.43 81.47 499.73 78.83 500 77.92 501.04 76.62 503.11 75.74 503.98 74.75 505.73 74.55 508.78 72.99 509.45 72.36 511.16 71.94 512.92 74.17 514.49 76.59 518.31 80.79 520.88 83.1 523.19 85.78 523.61 87.83 524.86 89.54 526.5 91.05 527.32 91.55 528.98 93.43 530.11 95.35 532.13 96.51 533.06 96.82 536.33 98.55 537.66 98.64 537.69 100.57 538.14 104.1 538.57 105.69 539.55 107.05 540.47 108.96 542.49 114.19 543.77 118.8 544.3 121.97 544.93 127.4 546.79 123.02 550.25 124.57 552.19 126.06 553.82 125.14 556.38 125.18 558.39 123.2 560.27 124.69 561.64 125.07 564.15 126.83 565.26 126.69 568.03 126.95 569.23 126.61 572.6 128.21 574.03 129.39 575.63 129.97 581.15 134.24 581.24 136.61 582.31 139.27 582.71 141.73 583.64 144.02 583.24 145.88 584.02 148.51 586.4 152.43 588.08 152.72 588.8 153.56 591.39 154.08 593.06 154.55 594.16 155.05 595.11 154.83 596.39 155.75 599.13 157.07 600.51 158.05 602.07 157.76 605.35 158.67 606.95 159.55 609.49 160.26 610.26 161.09 611.55 160.25 614.2 159.77 617.77 160.05 622.94 158.5 626.49 155.13 629.96 153.19 632.05 151.46 635.03 152.75 637.87 154.98 638.39 154.84 640.21 155.34 641.03 155.9 642.61 155.86 644.48 157.84 645.36 158.52 645.92 159.31 646.97 159.8 648.32 159.74 649.1 160.39 648.8 160.96 648.18 164.39 651.63 165.82 652.42 166.97 653.7 167.77 654.28 168.83 655.29 169.67 655.72 171.5 658.01 171.67 663.92 171.14 665.45 170.7 666.76 171.08 669.16 170.46 669.94 170.83 671.89 172.54 674.17 172.62 678.08 173.95 679.06 174.21 681.99 174.14 682.66 174.76 684.72 175.99 685.99 177.76 687.86 178.21 688.6 178.13 689.6 177.44 690.16 177.64 690.99 176.59 691.81 174.6 691.68 171.96 693.59 170.37 695.59 169.56 696.97 168.3 698.6 168.44 699.49 168.13 701.24 168.96 701.86 168.62 701.92 167.84 700.97 167.01 702.08 166.52 703.23 167.11 705.48 166.75 705.8 166.92 706.37 168.63 705.21 170.21 704.36 172.6 704.05 174.75 704.67 176.29 705.84 177.24 706.95 177.51 708.41 177.31 708.49 176.73 711.02 175.03 712.21 175.45 711.76 177.67 711.88 178.22 713.05 179.18 713.59 180.59 714.09 181.09 715.77 180.91 717.49 179.2 717.75 178.49 718.42 177.88 719.74 175.23 720.98 173.63 722.28 173.28 723.51 173.79 724.8 171.81 725.89 171.23 728.45 170.46 730.29 168.96 730.62 168.29 733.31 165.06 734.8 163.49 734.98 161.41 736.3 160.62 740.45 159.74 744.05 156.08 746.51 159.71 747.68 162.83 750.01 165.55 752.02 167.05 753.85 168.79 754.63 169.8 753.69 171.74 753.49 173.75 753.6 176.57 752.99 178.69 754.72 180.82 754.76 183.95 757.79 186.28 760.2 187.72 762.29 188.53 764.62 190.28 766.22 193.97 769.74 191.02 771.73 190.3 772.38 191.39 774.44 192.75 774.92 193.9 777.41 193 779.01 193.46 781.48 193.56 784.17 195.83 785.22 197.42 787.54 197.27 789.46 199.56 791.79 200.45 796.23 204.61 797.3 204.64 799 205.45 Z" id="33580000"/>
</g>
</svg>