<?xml version="1.0"?>
<svg xmlns="http://www.w3.org/2000/svg" version="1.2" baseProfile="tiny" width="800" height="865" viewBox="0 0 800 865" stroke-linecap="round" stroke-linejoin="round">
<g id="sigung">
<path d="M 170.71 13.48 172.07 15.17 172.57 16.95 172.65 19.72 174.27 22.65 175.92 23.19 178.07 23.02 180.96 22.16 185.84 22.57 190.18 25.71 191.38 25.79 196.88 27.45 203.25 31 205.52 31.45 210.89 29.55 215.36 28.81 219.58 29.8 226.85 34.6 229.25 35.34 231.73 34.89 232.76 33.77 232.06 31.95 228.71 29.31 227.84 28.02 227.55 25.92 228.46 24.68 230.94 22.82 233.51 21.53 238.01 20.21 243.35 17.48 246.08 15.71 252.61 12.61 257.03 10.13 259.22 9.71 264.39 10.21 267.28 10.13 270.09 10.91 271.71 12.23 273.86 15.46 276.29 16.99 279.35 16.99 281.09 17.61 286.3 17.48 289.07 17.81 291.55 16.9 294.53 14.55 297.34 12.81 299.32 12.9 303.21 14.84 309.78 15.62 313.05 15.21 314.25 16.04 310.03 20.25 309.78 24.76 309.86 28.35 308.09 30.79 305.4 31.91 303.91 31.78 300.72 29.05 299.53 32.53 297.74 32.86 297.05 34.55 298.74 36.54 300.27 36.91 299.82 38.52 300.15 40.3 302.84 41.08 305.32 40.75 307.59 41.17 311.48 43.23 313.09 42.98 313.58 40.88 316.93 40.17 320.41 40.92 323.67 42.28 325.82 43.81 326.03 44.64 328.76 45.63 329.92 48.15 331.69 49.43 333.1 49.64 335.41 52.04 337.6 53.07 338.02 50.92 341.94 50.96 347.57 49.76 349.96 48.69 352.78 49.06 358.19 46.29 362.57 45.75 367.62 48.36 373.24 50.05 374.64 49.85 378.61 50.46 382.66 49.1 384.23 49.06 384.52 50.96 385.68 54.31 386.14 56.91 387.46 59.02 387.05 61.38 387.38 66.54 387.87 69.52 387.5 70.63 389.65 73.03 391.51 73.57 392.42 75.51 395.85 76.67 398.46 78.2 403.21 79.81 405.78 79.77 409.79 83.53 411.6 82.12 415.2 80.97 418.01 81.3 420.33 82.37 421.53 85.64 422.56 87.25 428.39 93.45 430.54 94.98 435.67 96.38 440.96 95.8 443.4 97.04 447.86 97.42 455.59 95.8 457.16 96.09 460.26 95.8 464.73 96.76 466.3 96.59 469.36 97.13 472.38 98.7 476.59 102.33 480.35 107.01 481.26 112.83 482.55 116.8 485.61 119.98 488.46 121.88 489.95 123.99 489.37 125.44 489 128.54 488.25 129.57 487.55 134.16 486.1 136.06 487.76 138.79 485.98 141.1 485.81 142.88 490.36 146.56 493.34 148.21 495.07 150.53 498.26 151.4 500.28 155.28 502.43 155.94 506.15 158.71 507.31 162.14 507.31 164.13 508.18 166.07 507.1 168.01 506.73 172.23 503.88 175 502.19 178.88 502.14 180.99 503.26 182.39 501.69 185 500.61 185.45 501.07 188.43 501.11 192.31 503.3 195.5 504.17 195.25 507.56 197.19 512.31 197.27 515.79 196.32 519.34 197.4 520.99 196.03 525.38 195.29 526.49 194.79 527.82 198.14 527.98 199.55 530.01 200.62 533.48 198.8 536.58 196.24 539.68 195.83 541.71 197.11 542.74 198.43 544.23 201.9 545.84 204.3 550.93 206.03 554.36 208.89 559.28 210.87 562.38 215.62 567.88 220.5 568.79 222.44 570.4 223.44 571.8 223.19 573.58 223.89 578.5 223.19 579.95 222.11 582.3 222.2 584.45 224.51 586.11 225.01 589.17 227.07 591.85 226.91 593.55 225.71 596.69 225.25 598.76 226.53 601.69 234.55 602.36 239.43 604.79 241.91 606.32 242.24 610.09 246.04 612.19 247.12 615.21 247.61 623.85 250.13 625.26 251.54 627.2 254.56 631.87 253.52 635.26 251.62 635.39 250.13 636.75 249.18 639.15 250.01 642.29 250.26 643.49 248.77 645.18 247.9 645.47 244.35 645.06 237.94 647.46 236.66 650.76 237.4 651.1 236.74 653.74 235.5 657.57 234.97 660.6 232.28 664.99 237.73 667.8 242.2 669.99 246.91 670.77 249.14 675.03 254.14 676.77 257.7 677.97 259.39 680.86 262.33 682.43 262.91 691.98 267.62 698.02 268.28 703.06 265.34 704.55 265.22 707.11 266 708.15 268.86 709.8 271.01 711.37 272.08 712.94 272 716.5 272.66 717.41 271.63 722.33 272.2 723.94 274.15 725.92 274.06 732.08 272.78 734.07 270.72 738.66 273.32 738.53 275.59 734.98 278.82 735.6 282.45 737.54 286.01 737.66 290.97 739.77 295.14 742.58 297.91 747.63 301.71 750.27 303.45 753.17 304.36 755.52 306.26 756.56 312.83 758.91 314.53 758.46 321.47 759.2 323.95 759.16 325.81 756.76 333.04 761.11 336.81 762.89 337.34 763.71 338.91 766.6 341.93 769.44 344.19 771.28 345.24 772.43 346.68 769.75 346.81 771.52 350.49 776.69 356.31 782.6 360.82 787.61 363.34 788.81 363.37 791.23 364.08 795.29 363.23 796.35 362.23 798.34 369.68 799 370.59 795.42 373.82 794.22 376.18 792.1 377.42 791.41 378.98 787.22 383.01 784.23 383.5 782.87 385.09 781 386.34 778.14 386.67 776.63 387.82 772.27 385.61 769.02 389.37 766.63 389.71 765.18 390.64 763.48 389.58 762.05 386.1 759.67 385.12 758.55 383.67 755.15 382.13 752.25 379.68 745.81 383.49 742.26 385.14 740.58 387.65 740.52 389.6 737.09 392.39 733.15 393.04 733.19 395.26 732.59 402.53 731.14 405.63 731.11 407.89 728.41 415.4 717.81 413.94 713.77 412.49 712.53 413.2 709.22 412.55 707.73 414.6 705.67 415.18 702.81 417.88 695.52 419.83 694.64 422.72 693.2 423.72 691.5 427.37 691.81 429.68 689.12 433.24 687.64 432.88 686 435.34 684.69 436.06 679.78 433.86 677.97 433.62 673.19 430.16 666.08 428.78 658.33 431.8 657.06 432.46 656.09 434.05 653.49 435.63 653.43 437.65 652.02 440.4 650.83 440.93 650.91 442.47 649.4 444.41 647.95 448.13 646.95 455.93 647.31 460.87 646.88 461.88 649.37 465.92 643.27 467.33 641.24 468.06 639.11 467.62 638.96 469.46 638.02 470.82 635.06 470.85 631.43 472.08 629.51 473.63 626.69 474.75 621.84 478.41 619.74 478.5 618.09 480.43 615.37 480.35 615.62 482.53 611.61 484.47 610.2 484.33 608 486.01 605.79 486.57 603.95 488.1 603.37 490.09 601.94 491.85 600.48 492.1 598.85 489.65 597.36 489.5 592.87 487.18 588.35 487.24 587.92 490.93 586.23 491.68 585.5 493.71 585.83 497.02 584.42 500.71 584.22 502.8 581.41 506.54 581.77 508.43 580.08 509.8 580.26 511.23 578.69 512.42 578.88 514.96 576.6 522.24 576.08 522.76 576.94 526.46 578.8 529.27 578.23 530.93 576.52 532.78 576.17 534.19 573.66 537.11 571.61 538.41 571.21 540.38 569.86 541.96 570.23 544.13 571.51 545.11 571.72 547.32 570.89 548.79 568.55 550.29 568.5 553.84 567.53 555.08 565.33 556.38 564.28 560.48 562.28 561.19 559.77 563.69 555.02 564.41 553.39 568.28 549.95 570.27 548 568.53 544.74 567.68 542.73 567.62 536.22 568.96 533.86 571.2 526.31 569.97 523.78 571.51 521.49 570.99 519.66 573.01 515.29 573.82 512.05 576.36 511.28 577.65 510.15 577.35 507.24 573.72 504.94 573.41 503.66 572.01 502.99 567.66 502.03 566.75 500.32 562.33 496.8 559.55 494.02 557.97 491.53 557.34 490.15 556.05 487.91 553.01 485.14 552.09 481.24 552.5 479.59 551.73 477.14 553.68 474.1 553.95 473.14 552.87 469.74 553.14 468.9 552.57 466.85 552.88 465.23 552.43 463.24 550.36 460.64 551.06 459.38 550 455.32 551.42 451.48 550.87 449.11 554.47 448.1 554.56 448.49 558.38 443.33 563.05 442.47 564.8 439.9 565.37 435.96 568.5 434.95 570.34 432.32 570.47 431.14 571.43 427.77 572.93 425.57 574.41 422.96 577.07 420.71 576.99 417.61 582.26 416.43 582.79 411.79 583.39 409.35 581.86 406.76 583.46 407.33 584.61 406.32 586.26 405.42 589.79 403.23 591.07 402.3 593.61 400.63 594.97 400.23 596.15 397.86 596.96 394.97 600.88 393.33 601.4 391.61 600.4 390.05 600.35 388.44 598.59 381.82 604.54 380.88 605.2 378.47 603.54 376.92 601.02 376.44 598.81 371.85 596.9 371.44 592.49 366.93 590.49 365.36 586.99 362.56 584.19 359.18 583.79 359.36 584.64 358.11 587.67 357.12 588.33 354.79 588.56 352.77 592.64 353.03 595.34 350.44 597.81 350.13 599.74 347.93 604.75 344.73 610.32 341.73 612.68 340.12 612.95 338.96 615.47 337.82 616.92 335.77 618.13 334.67 619.62 333.68 622.81 331.07 625.39 331.39 629.58 327.35 632.43 326.4 633.89 323.89 634.18 322.07 635.6 320.2 638.07 317.3 639.55 314.96 638.9 313.64 639.3 310.46 642.52 308.21 645.91 307.72 654.28 307.98 656.18 306.22 658.86 304.81 661.84 304.29 664.39 301.52 667.2 297.98 669.12 295.82 671.68 292.68 672.44 293.58 677.94 291.25 682.46 288.53 682.98 282.37 681.98 277.95 708.72 283.85 708.72 283.68 713.14 281.01 714.79 279.05 718.57 276.95 721.37 275.28 722.18 273.77 731.38 272.72 736.85 272.1 737.56 271.53 740.98 272.01 741.22 270.33 751.98 271.75 752.24 271.44 754.59 269.21 755.84 268.42 760.76 267.54 769.15 266.38 776.6 266.3 778.24 256.45 781.23 254.74 778.44 256.63 775.84 256.95 774.36 256.03 772.96 255.3 769.1 254.32 766.09 252.25 763.43 252.19 760.67 249.03 757.42 246.09 752.66 242.84 749.25 239.37 743.3 234.22 738.56 229.11 733.57 223.63 733.34 225.74 723.13 219.14 721.84 218.72 721.04 219.49 716.37 210.59 714.61 211.88 708.01 211.03 706.73 208.05 704.59 203.73 702.88 201.45 702.92 201.67 705.77 200.74 708.69 199.78 709.66 195.06 713.15 192.23 713.19 190.09 712.8 188.81 714.23 186.51 715.63 186.6 717.43 187.51 720.76 190.42 723.45 191.75 725.65 191.71 728.19 192.58 730.83 193.54 732.37 193.69 735.69 193.11 738.36 194.96 739.41 197.64 739.18 200.41 739.92 203.55 739.98 205.41 742.61 208.5 745.06 210.5 744.92 211.83 747.12 211.24 748.01 219.67 749.88 218.89 753.18 217.81 761.01 212.94 795.19 218.48 793.55 222.34 791.64 222.9 793.98 224.89 793.26 226.34 795.92 227.17 800.57 224.45 801.19 225.26 803.97 226.95 804.21 226.66 808.93 227.92 814.08 223.51 812.48 221.63 812.3 219.59 815.98 218.33 817.12 216.52 817.7 216.43 820.25 212.75 820.23 212.61 817.63 209.43 815.72 208.15 815.33 205.68 815.86 202.17 820.94 199.7 821.97 198.65 823.4 199.76 824.51 197.7 826.32 196.4 829.6 193.46 833.47 188.73 845.13 187.91 845.34 182.65 843.49 172.07 838.27 171.04 837.34 169.87 839.32 166.24 846.46 165.18 851.08 161.98 856.23 160.98 857.32 156.61 860.16 153.57 862.4 149.4 863.76 146.37 864 146.01 857.47 147.65 853.91 145.37 852.41 144.19 849.51 144.18 847.9 142.71 843.54 139.36 840.56 137.25 835.59 138.57 828.31 137.24 827.19 135.19 826.95 136.06 823.51 136.94 822.04 137.42 817.48 137.83 816.58 136.96 810.37 137.87 807.36 134.58 805.42 131.59 804.47 127.59 807.38 125.74 808.09 121.92 808.76 119.85 799.43 117.43 797.51 116.77 795.75 110.96 797.08 111.3 798.71 108.7 799.94 107.24 801.1 105.52 804.54 102.6 806.71 101.26 808.8 101.09 810.97 101.71 813.98 99.57 816.38 98.87 818.24 98.95 820.12 93.21 821.32 95.75 826.28 96.17 828.28 89.77 829.6 89.17 826.59 87.27 824.13 87.09 822.57 88.7 820.3 85.59 818.38 81.69 819.76 76.41 814.03 75.63 807.49 82.73 798.33 81.67 795.41 83.35 794.85 85.06 788.94 83.74 783.61 83.76 778.55 82.84 776.77 83.02 772.02 89.03 767.33 89.69 763.32 88.99 755.15 90.96 750.86 91.64 746.58 90.74 741.83 90.97 740.1 89.72 735.78 87.71 731.84 84.67 728.57 84.47 726.29 85.7 722.95 90.58 718.16 92.09 717.15 95.06 709.7 98.17 705.49 102.54 694.25 103.11 689.21 103.15 685.97 104.51 683.07 104.93 679.31 101.72 675.33 100.25 671.6 99.21 669.82 100.73 668.69 103.36 663.64 102.42 660.09 100.21 654.38 100.18 649.75 101.57 648.21 106.2 646.32 106.24 643.49 108.32 639.17 111.02 636.14 112.92 633.14 117.65 627.54 116.71 626.73 116.4 624.28 116.56 621.23 114.83 619.14 113.04 619.19 111.55 622.63 107.09 623.13 105.14 622.3 102.72 622.22 101.13 620.94 96.96 623.41 93.22 622.45 90.19 620.82 90.34 618 91.09 616.76 90.35 614.44 90.17 610.75 92.81 608.04 94.13 605.54 96.1 603.49 99.73 601.37 103.07 600.88 104.54 598.78 103.87 596.68 103.88 591.7 106.64 590.09 110.79 590.59 113.34 587.99 116.5 583.51 116.73 581.74 118.28 580.55 118.43 579.09 122.4 572.03 124.35 569.87 125.43 565.2 124.74 563.42 125.25 560.24 128.21 557.58 132.36 552.15 134.38 549.18 135.57 546.69 135.54 542.71 133.97 539.69 132.37 534.5 133.16 532.6 128.82 528.62 128.24 526.13 126.18 523.96 123.29 521.82 123.31 518.94 120.61 518.56 117.5 520.04 115.11 517 115.14 515.98 113.67 514.78 109.28 515.65 107.03 513.56 106.97 512.71 101.52 514.34 94.73 514.98 93.88 510.28 90.17 510.65 84.42 509.88 83.06 511.71 79.98 511.06 77.86 511.63 75.86 510.8 73.11 511.05 72.54 511.81 68.84 513.19 66.55 515.09 63.52 515.69 60.06 515.11 56.76 513.99 55.96 512.33 54.53 511.05 50.44 511.21 49.69 506.06 50.87 504.44 52.01 498.76 55.11 492.03 55.16 485.24 54.67 481.61 53.91 480.82 53.49 477.95 52.87 476.71 51.47 470.71 52.4 465.13 51.34 461.94 50.24 460.6 50.88 457.19 49.55 455.35 51.07 452.56 48.42 450.56 46.94 448.94 46.31 447.11 47.91 443.79 49.04 439.24 50.73 437.05 52.53 436.64 53.2 434.54 52.19 431.3 55.33 429.39 55.35 424.99 57.69 423.76 59.27 422.07 59.52 419.41 60.48 417.91 63.69 417.66 63.03 413.37 61.98 410.16 61.8 406.07 61.27 403 59.71 400.19 56.48 395.76 54.59 393.89 54.06 391.82 53.73 385.31 53.02 383.44 54.88 379.96 56.65 378.86 61.49 377.37 66.87 371.26 66.28 369.47 67.1 367.47 68.06 366.63 70.69 365.57 67.62 363.1 66.62 362.88 64.17 356.02 61.47 350.27 57.67 337.02 56.17 335.05 54.13 333.72 53.05 332.02 49.38 330.41 47 326.49 45.31 325.74 41.45 327.89 40.41 327.57 40.55 321.33 40.01 320.7 40.61 317.74 45.27 315 46.87 310.46 46.88 309.47 48.5 308.8 49.46 305.42 49.37 304.4 50.51 302.57 53.89 301.12 55.96 299.03 63.25 296.11 66.5 296.75 67.94 295.79 70.25 296.27 72.25 294.1 72.07 288.64 74.77 285.31 74.96 282.4 74.22 278.67 73.73 274.12 71.62 273.4 69.42 271.66 66.91 267.62 66.88 265 63.66 257.51 62.46 255.46 57.71 252.13 56.06 251.73 56.07 249.97 57.47 248.33 58.44 246.24 57.62 241.73 53.57 236.84 53.75 236.07 51.31 232.65 50.73 230.67 51.78 228.32 50.46 224.98 48.5 223.64 45.85 223.56 44.76 221.68 42.51 221.47 39.92 219.52 37.56 216.69 37.06 215.41 33.66 210.75 31.54 208.65 30.6 206.18 25.67 199.25 24.17 197.54 22.78 192.56 24.19 189.49 22.76 188.76 21.53 186.5 22.23 184.99 20.61 181.53 19.54 180.87 15.88 180.81 13.07 178.16 11.77 176.25 8.33 175.26 4.33 172.56 3.39 171.51 3.92 168.41 2.34 163.84 2.74 161.87 1 159.16 2.49 157.54 4.02 153.51 5.06 152.54 7.13 151.92 8.13 150.3 12.21 147.67 14.03 145.44 15.96 141.97 20.49 138.04 22.76 136.85 24.68 135.11 29.73 132.37 34.48 128.63 38.07 125.47 43.61 118.26 45.63 117.32 49.62 120.3 52.39 121.72 56.42 124.52 58.97 126.65 61.03 129.84 63.52 132.03 66.65 136.98 70.26 139.85 73.74 141.88 76.17 142.05 78.17 142.77 80.83 141.89 81.78 140.02 82.54 136.98 81.9 134.8 83.47 131.02 83.85 127.67 85.3 124.21 85.83 120.94 85.1 119.85 85.37 116.1 90.53 114.19 91.5 112.87 90.73 110.43 93.78 108.66 96.16 105.7 99.32 102.98 99.4 102.39 102.43 99.55 104.68 96.28 107.13 94.29 107.13 91.84 104.13 89.29 102.85 89.31 101.05 88.32 99.13 86.57 93.23 86.14 90.62 86.43 87.62 83.06 85.88 81.84 83.09 80.67 82.9 78.77 83.48 76.72 83.87 67.24 83.52 63.16 85.34 62.49 85.98 60.47 90.09 57.42 92.64 57.14 98.23 57.53 99.22 55.77 100.27 51.06 101.18 48.7 101.78 45.09 103.43 44 103.06 42.3 105.55 39.18 108.35 38.59 109.63 36.53 113.06 34.57 116.9 35.13 119.4 34.37 121.78 32.3 122.8 29.18 123.18 24.62 123.83 22.25 126.13 20.24 130.24 20.6 134.35 19.87 136.26 18.67 137.66 16.85 138.45 13.88 138.79 9.23 142 9.19 141.82 5.28 141.36 3.61 144.5 1 146.56 1.53 148.23 4.4 149.3 8.34 151.68 10.37 153.85 10.92 160.65 10.34 164.53 10.99 170.71 13.48 Z" id="34012000"/>
</g>
</svg>