<?xml version="1.0"?>
<svg xmlns="http://www.w3.org/2000/svg" version="1.2" baseProfile="tiny" width="800" height="658" viewBox="0 0 800 658" stroke-linecap="round" stroke-linejoin="round">
<g id="sigung">
<path d="M 797.68 323.7 795.56 324.69 794.33 324.96 791.63 325.84 788.88 326.28 788.52 325.69 787.27 324.94 784.32 324.34 783.59 324.45 782.88 325.08 781.74 327.57 780.7 327.64 781.81 330 781.6 330.93 782.07 332.04 781.59 333.64 780.36 335.09 778.41 335.9 778.13 336.78 776.95 336.64 775.92 336.92 774.77 337.75 774.04 338.78 772.93 339.76 772.99 340.19 770.44 341.62 770.33 342.66 769.85 344 770.25 344.27 770.43 345.34 769.55 346.56 769.36 348.12 768.85 348.77 768.65 350.84 768.24 351.83 768.91 353.9 767.42 354.58 766.15 353.47 763.32 351.48 762.13 350.8 761.47 348.82 760.06 348.5 759.01 349.49 757.83 349.69 755.74 348.57 755.03 347.98 753.82 347.91 753.55 347.57 751.92 347.3 751.49 345.3 751.04 344.76 750.21 345.17 749.45 343.21 749.07 342.78 749.05 341.18 749.34 340.56 749.18 339.53 748.35 338.49 747.11 338.37 746.76 337.65 747.27 336.27 745.99 335.77 745.07 336.32 743.06 335.96 742.34 336.03 741.58 335.58 740.06 335.44 738.8 334.89 737.59 333.99 737.66 332.54 737.2 331.86 736.91 330.51 736.3 329.65 735.28 329 734.69 328.08 735.8 327.29 736.06 326.01 734.85 325.2 733.87 322.12 733.11 320.07 730.49 319.22 728.74 320.85 727.61 320.84 726.63 321.56 725.81 321.59 724.43 322.78 723.09 322.53 722.67 322.82 721.22 322.51 719.21 321.81 719.3 320.61 716.89 320.85 716.21 321.66 715.2 321.88 714.02 321.69 713.31 322.12 712.39 321.96 710.83 323.3 707.72 323.21 706.46 323.04 705.88 323.45 704.24 321.92 704.17 321.03 703.31 319.72 701.7 319.02 701.14 318.22 701.17 316.39 700.58 314.69 695.45 316.24 692.66 316.2 691.69 315.72 690.84 314.81 689.36 315.84 686.77 315.92 684.57 317.57 683.8 318.5 683.17 318.43 682.18 319.23 679.08 316.7 677.79 316.22 676.65 317.96 676.09 321.13 675.49 322.13 675.2 323.19 675.51 323.81 674.64 324.81 674.57 326.57 673.49 328.16 671.48 328.54 670.77 329.07 670.3 331.08 670.04 331.42 667.08 332.84 664.96 332.75 663.42 333.11 663.07 333.81 659.7 334.69 658.54 335.65 657 335.34 656 334.34 654.98 334.49 654.13 334.01 652.39 334.65 651.5 334.51 650.94 333.8 648.94 334.47 647.79 335.08 646.69 334.69 645.26 334.66 644.18 335.47 642.67 335.54 641.22 336.53 640.09 335.95 638.86 336.03 637.8 336.66 637.07 336.06 636.54 336.32 634.66 336.42 634.35 336.99 634.61 338.07 634.31 339.67 633.26 341.1 633.1 342.54 632.43 343.2 632.54 344.6 632.32 345.5 631.09 345.98 630.56 346.8 629.8 347.24 629.14 348.75 629.22 350.46 629.99 350.77 631.94 350.15 632.96 351.57 635.8 354.26 636.53 354.81 636.41 355.76 636.84 356.37 637.83 356.37 637.72 357.33 638.5 358.98 638.6 360.82 638.28 361.33 638.66 362.48 638.43 364.2 638.44 366.54 639.94 366.94 642.14 366.96 643.26 367.28 643.51 368.25 644.19 369.41 645.05 370.18 646.41 370.47 646.88 372.02 648.19 373.91 648.36 374.93 649.11 375.86 649.64 377.13 649.65 378.22 648.87 379.09 649.06 379.48 648.42 381.73 647.96 382.16 648.31 384.05 646.16 384.26 644.3 386.56 643.53 387.2 642.58 390.21 641.98 390.49 642.01 391.52 640.43 392.15 638.81 392.55 637.54 392.45 637.16 391.2 635.59 389.28 634.96 389.09 633.71 387.73 630.65 388.25 629.58 387.37 628.9 386.16 626.22 384.4 625.4 384.4 624.88 382.19 624.27 381.17 623.07 380.24 620.85 379.98 618.59 380.79 615.84 382.12 615.36 382.12 614.86 386 613.44 387.42 610.02 388.71 609.15 389.81 606.53 394.28 604.38 398.7 603.64 399.47 602.94 399.49 601.85 402.43 600.99 403.25 599.24 404.34 596.24 405 593.67 405.36 592.08 405.87 590.16 406 588.14 405.39 586.33 404.59 584.34 404.18 584.01 405.24 586.81 405.93 587.58 405.84 587.24 407.43 586.7 408.08 585.65 408.61 585.65 409.29 584.72 410.55 584.13 410.86 584.14 411.8 583.62 412.13 582.99 413.56 583.2 414.65 582.45 416.92 581.82 418.33 581.62 419.61 582.34 421.06 582.48 422.76 581.65 423.69 581.46 425.58 581.68 426.53 583.35 428.43 583.24 429.79 581.94 429.83 581.1 431.05 581.47 431.78 580.81 433.58 580.22 434.13 579.66 435.37 580.21 435.97 579.59 439.01 578.44 441.6 578.03 443.35 578.96 444.13 579.99 444.23 579.82 444.97 580.61 446.21 581.05 447.3 580.71 447.82 580.61 449.07 580.94 449.68 581.95 450.45 581.82 451.44 582.51 451.67 581.27 452.76 581.26 453.2 579.11 454.97 578.27 455.16 577.06 455.88 576.01 457.36 575.34 457.1 574.17 458.08 573.02 460.15 572.09 460.5 571.94 461.06 570.46 461.93 568.83 463.33 567.93 463.25 566.42 464.07 565.13 464.13 564.05 464.79 562.27 465.01 561.39 465.36 561.15 466.81 560.09 468.53 558.04 468.76 556.66 469.13 555.84 470.1 554.08 470.05 553.32 470.48 551.62 470.28 550.82 469.86 549.98 470.46 547.18 473.43 545.93 474.39 544.49 477.11 542.92 478.26 541.1 481.02 538.55 482.63 538.47 483.66 537.83 485.81 535.81 486.29 532.63 485.97 530.2 486.46 528.73 483.27 527.51 482.32 525.69 482.86 524.3 483.74 523.13 484.22 521.07 482.91 519.4 479.55 519.36 479.01 514.9 474.82 514 475.32 512.83 476.34 511.07 476.81 509.78 476.48 508.78 477.05 507.67 478.55 505.75 478.95 504.64 480.03 502.37 480.96 501.98 481.72 500.64 481.22 498.93 482.23 496.82 482.13 492.16 481.23 491.63 480.93 489.94 481.97 489.03 481.26 488.28 481.31 484.75 482.23 483.39 479.58 483.16 478.62 481.57 477.73 480.03 477.21 478.87 476.56 478.3 475.9 477.33 475.67 475.04 472.9 473.8 472.57 473.59 471.35 471.74 470.74 470.99 471.84 470.38 472.07 469.22 473.49 469.08 474.02 467.11 474.23 466.35 474.6 465.61 475.48 464.37 474.2 463.81 472.69 461.07 473.46 460.38 472.38 460.27 471.29 458.46 469.81 457.49 468.53 457.78 467.31 457.17 466.29 457.04 464.81 459.2 463.55 459.19 461.74 458.44 460.97 457.61 460.9 456.29 461.35 454.75 460.79 453.36 460.63 451.43 458.98 449.31 458.02 449.1 455.56 447.63 455.81 444.22 453.02 444.11 449.47 443.87 447.96 442.96 445.7 440.83 445.86 439.09 444.21 438.79 442.47 437.19 442.05 434.88 441.87 433.79 442.43 432.66 443.39 432.06 444.36 431.21 444.84 430.06 444.83 428.71 443.42 427.88 443.95 425.57 442.01 423.77 439.57 421.07 438.73 419.4 437.28 418.78 435.78 418.19 435.64 417.61 432.48 417.78 430.42 418.47 429.06 419.29 428.27 418.91 426.79 418.16 425.87 416.51 426.31 414.9 426.43 413.46 426.17 411.73 426.16 411.2 426.4 409.65 426.48 407.52 426.21 403.51 424.99 403.35 424.16 401.97 423.76 401.84 423.08 401.13 422.65 401.63 419.91 400.61 418.42 399.52 418.55 398.48 418.01 396.2 420.18 394.54 419.73 393.04 419.92 391.68 419.28 389.88 418.95 387.54 417.95 387.79 416.82 384.53 413.98 381.65 413.55 380.77 411.73 381 409.85 379.73 408.4 379.43 406.67 380.49 403.46 379.49 402.91 378.36 400.87 376.77 400.59 374.95 400.94 372.7 399.17 370.47 397.89 369.51 398.15 367.64 397.29 367.04 395.98 365.07 395.95 363.91 395.59 363.4 395.01 360.38 397.16 357.93 394.92 355.77 395.48 353.7 394.99 352 395.81 351.81 397.01 350.85 397.15 350.08 396.79 347.69 396.51 344.77 393.78 342.4 392.43 341.99 391.58 339.78 390.92 338.79 391.96 337.01 391.48 336.09 393.1 333.48 393.94 330.77 394.59 327.72 395.18 324.38 394.29 323.25 394.26 322.78 393.37 322.39 395.16 321.11 394.87 320.1 393.65 319.71 392.8 317.88 390.06 318.05 388.97 317.77 387.79 316.52 386.37 315.62 386.27 315 385.77 313.52 385.88 312.23 384.63 311.41 384.2 310.01 384.28 308.53 385.99 308.63 383.88 307.57 384.1 307.58 383.37 305.61 383.16 303.87 382.56 299.92 384.05 297.4 384.23 295.96 385.14 294.09 384.93 293.72 388.15 292.14 389.48 291.58 390.36 291.49 391.4 290.23 392.46 290.6 394.39 290.94 395.03 290 397.89 288.71 397.9 287.75 398.47 285.98 397.84 284.62 396.86 283.92 396.02 282.88 395.33 281.67 395.26 279.16 394.31 279.32 395.54 279.4 399.47 278.1 400.43 276.66 400.91 275.07 400.79 274.75 401.45 274.05 401.58 274.43 403.05 274.36 404.32 271.92 409.33 271.18 409.5 270.83 410.32 270.83 411.42 273.03 412.88 273.18 414.51 272.05 416.13 270.89 416.32 270.11 417.55 268.78 418.17 267.55 418.2 267.21 418.9 267.05 420.35 266.21 421.11 265.99 421.83 264.39 422.47 263.32 422.02 262.03 422.82 261.32 422.61 257.89 423.46 256.94 424.29 257.13 425.49 256.59 425.95 255.14 426.01 254.44 427.33 253.8 428.07 252.47 428.82 251.5 429.71 249.84 430.56 249.51 431.49 247.71 432.69 245.32 432.07 244.95 433.33 243.06 434.28 242.8 435.27 241.62 436.84 241.67 437.34 239.91 439.31 237.61 439.67 235.87 439.42 235.16 439.96 234.56 440.92 232.4 442.78 232.34 443.53 232.84 444.85 236 446.09 236.89 447.59 237.96 448.2 239.42 448.42 240.68 449.2 241.58 448.57 243.15 448.71 244.06 447.66 245.22 447.67 246.06 449.1 247.14 449.73 248.08 451.49 248.65 451.88 248.93 453.56 248.25 455.85 248.44 456.93 250.54 458.79 252.82 460 252.21 460.74 252.92 464.21 252.65 464.61 253.88 468.19 254.79 468.24 256.87 470.17 257.48 470.43 257.9 471.48 257.1 477.02 257.32 477.41 259.59 477.87 260.8 480.38 261.08 481.77 260.95 482.66 261.73 484.05 260.42 484.85 259.92 485.7 259.19 486.24 259.57 488.08 261.76 488.63 263.6 490.45 264.94 489.57 265.54 489.87 266.8 489.72 268.22 487.97 268.94 487.78 270.73 486.29 272.34 486.6 273.67 485.75 273.94 487.38 274.77 488.37 276.73 488.39 277.29 489.33 279.1 487.97 280.42 487.33 282.04 485.64 284.19 486.35 287.63 486.16 288.41 485.25 288.28 484.07 288.77 480.98 288.48 479.32 289.18 477.68 289.35 476.45 289.16 475.21 289.33 474.39 291.16 475.18 292.24 476.74 292.39 477.51 293.2 478.8 294.45 480.32 295.62 481.43 296.21 482.47 296.49 483.77 297.18 485.14 297.75 487.45 297.09 488.99 294.84 491.81 294.71 492.41 296.62 492.57 296.45 493.51 297.29 495.25 297.72 497.11 298.78 497.67 298.62 498.3 299.37 500.31 299.68 503.26 300.7 504.67 301.1 506.67 302.08 509.14 301.64 511.22 301.76 511.81 302.62 513.21 302.42 514.71 302.99 515.64 302.37 518.34 301.95 519.14 301.69 521.1 299.99 521.67 299.29 522.64 298.49 523.02 296.79 524.75 296.01 526.31 294.76 526.75 292.22 528.82 292.5 529.9 292.33 530.69 292.55 532.91 291.15 533.69 290.32 535.35 290.29 536.62 289.58 536.66 288.97 537.54 287.5 538.42 288.06 539.01 287.7 539.6 288.02 540.45 286.94 542.07 286.57 542.18 285.88 547.49 284.12 549.54 285.08 549.88 286.04 550.87 286.64 551.06 287.82 552.15 287.62 553.53 288.18 554.08 289.73 554.52 291.1 556.08 291.94 555.92 293.21 556.9 293 557.88 293.79 559.41 293.93 560.83 293.48 561.82 293.74 562.43 295.07 563.29 294.46 563.75 294.95 566.17 296.02 566.57 295.95 567.47 296.19 569.48 294.71 569.93 291.86 572.43 291.79 573.82 289.99 573.78 288.04 575.56 286.69 576.55 284.56 577.43 284.02 578.33 284.34 581.55 284.67 582.53 284.32 582.93 283.46 585.04 283.7 585.84 283.41 586.4 283.58 588.32 282.98 589.13 283.77 592.18 282.5 594.22 281.83 595.74 282.55 596.58 282.65 597.33 282.26 599.33 283.78 601.83 284.93 602.86 286.42 603.54 288.05 604.97 287.16 606.56 288.08 608.46 288.43 608.79 290.3 609.36 290.42 610.25 289.23 612.51 288.23 613.44 289.36 616.42 289.9 616.87 290.42 618.01 291.31 618.36 291.45 619.42 290.41 620.98 290.36 623.35 289.22 624.9 289.56 625.98 290.4 626.87 289.07 627.95 287.98 628.24 287.65 630.65 287.76 632.34 288.73 634.55 288.39 635.65 289.73 637.59 289.2 637.99 289.48 638.98 290.63 640.05 294.21 641.86 295.3 641.05 295.92 641.26 295.55 643.32 296.18 645.66 295.43 646.57 293.66 646.9 291.22 646.73 290.78 647.8 290.2 648.16 288.58 646.94 287.13 646.66 286.44 646.28 285.49 646.26 284.2 647.03 282.49 649.73 282.54 650.31 281.78 651.88 280.13 652.1 278.96 653.79 278.35 654.36 277.58 656.03 276.66 657 276.01 655.44 275.62 653.22 273.77 652.16 273.89 651.46 274.83 650.35 274.65 649.25 274.84 647.89 274.33 647.23 273.26 643.19 272.25 641.9 272.29 641.09 271.55 639.43 271.75 638.39 272.2 638.01 272.61 636.09 273.61 635.26 272.83 634.14 271.45 634.52 269.03 633.22 268.54 631.05 267.4 628.62 266.71 628.23 266.48 627.58 266.66 626.38 265.2 623.74 266.12 622.19 265.74 621.21 265.91 620.16 263.47 619.1 262.44 619.06 261.35 618.69 259.24 617.02 257.51 616.16 257.87 614.18 258.6 613.05 258.33 611.69 258.45 610.02 258.03 608.04 258.46 607.17 258.88 605.59 258.43 604.11 257.61 603.03 257.31 601.45 256.14 600.94 254.47 600.7 253.94 599.42 252.16 598.2 250.93 597.65 250.02 598.53 248.39 599.49 247.78 597.78 246.95 597.9 244.19 597.12 241.3 595.76 239.85 594.45 239.04 594.75 238.2 593.31 237.03 592.78 236.46 591.77 236.79 590.58 235.19 590.05 234.26 588.84 233.74 587.74 234.11 585.72 233.99 584.17 233.39 583.54 234.05 581.03 233.23 580.28 233.45 578.55 232.42 577.38 232.32 576.23 231.49 575.58 230.53 575.58 230.21 576.53 229.28 577.05 228.01 577.25 225.2 577.11 223.87 575.54 221.4 574.42 219.56 573.96 218.61 572.31 217.84 569.96 215.42 569.71 214.44 569.26 212.56 569.7 211.61 569.67 210.25 568.59 209.27 568.58 207.33 567.21 206.68 566.22 205.04 566.3 203.74 566.93 202.29 566.48 202.34 565.96 201.05 564.67 200.85 563.15 199.57 563.21 198.07 563.82 195.86 563.62 195.52 563.07 194.48 564.25 194.05 565.25 193.06 565.53 191.82 564.88 190.91 565.04 189.67 565.68 188.9 566.7 188 567.13 186.89 567.01 186.91 567.57 185.2 568.13 184.72 569.1 184.21 569.28 181.54 571.75 179.75 574.14 179.44 573.54 178.36 573.03 177.06 573.03 176.24 573.38 175.17 573.29 174.14 571.33 173.38 572.09 172.34 572.2 171.34 574.14 170.78 574.77 169.23 575.14 167.71 575.16 166.97 574.53 165.64 576.07 165.65 576.73 164.48 580.17 164.9 582.97 164.75 583.72 165.36 585 165.11 586.14 165.45 587.47 164.37 588.18 162.87 590.41 161.86 592.53 162.09 593.39 160.95 593.73 160.11 594.88 159.31 595.13 158.97 596.16 159.33 596.89 158.26 598.6 158.54 600.58 157.87 601.36 156.92 601.38 156.66 603.08 155.32 603.84 154.14 603.94 153.17 604.75 152.88 604.37 151.65 604.69 151.07 604.55 149.74 604.9 148.76 604.21 147.72 604.63 145.57 603.87 143.88 604.36 141.97 605.28 140.59 604.92 140.04 604.25 138.85 603.84 137.45 603.87 135.67 603.11 134.28 603.28 133.41 603.64 131.72 603.52 128.8 605.63 127.38 605.46 126.41 605.05 126.07 603.92 125.92 602.4 124.91 601.82 122.18 599.44 120.78 598.4 120.83 596.88 120.07 596.18 118.65 596.08 117.69 596.3 115.05 596.01 113.75 595.37 111.98 593.9 110.58 594.16 110 593.57 108.38 594.56 108.03 595.11 106.77 595.24 106.18 595.86 104.56 596.8 103.46 596.02 102.3 596.4 101.35 596.03 100.32 595.18 98.57 595.48 96.75 593.73 96.58 592.99 95.7 592.41 95.61 591.41 94.49 589.83 94.44 589.3 93.6 588.06 93.55 586.61 92.14 586.44 91.81 584.62 89.92 583.59 89.61 582.54 89.67 581.5 84.8 579.9 84.15 580.21 81.48 579.54 80.74 579.57 77.72 580.67 75.05 580.12 73.33 580.57 71.61 581.31 68.47 580.58 67.79 580.09 66.62 578.66 65.8 576.5 63.86 574.83 62.2 573.13 57.79 572.31 56.48 571.68 54.93 571.89 52.48 571.45 51.47 572.41 49.63 572.77 46.79 572.65 43.99 571.97 41 570.82 37.36 570.06 33.82 569.8 31.69 572.36 28.31 579.1 26.38 580.11 25.38 582.13 25.11 583.4 24.36 584.12 18.65 581.66 16.39 581.85 15.73 579.28 14.41 577.38 11.56 575.92 9.7 573.84 7.46 574.8 6.48 574.97 4.85 570.9 2.99 569.36 2.58 567.27 1 566.97 1.18 564.65 2.23 563.46 3.02 562.89 4.48 561.05 5.53 559.38 7.32 558.44 6.43 557.11 6.43 555.43 7.71 553.58 7.89 552.13 10.28 550.71 11.41 548.84 13.55 546.4 14.69 544.87 14.44 543.56 13.91 542.49 14.16 541.05 15.26 539.54 14.68 535.55 14.36 534.7 14.34 532.84 15.13 530.5 17.18 528.55 20.27 524.75 23.46 523.65 22.47 520.49 22.66 519.09 24.77 517.7 27.25 515.46 27.23 512.53 27.76 510.57 28.77 508.96 30.52 507.34 31.86 504.13 32.46 503.76 33.1 502.2 34.11 501.45 34.68 499.47 36.36 496.33 37.83 494.97 40.45 491.09 41.91 489.44 44.7 488.05 47.07 487.28 51.66 485.06 53.57 484.54 55.69 483.12 57.46 482.42 59.09 481.15 60.21 480.69 61.23 479.64 63.94 477.44 64.68 476.6 65.22 475.12 66.63 474.34 68.47 473.62 69 472.82 72.7 468.87 73.25 467.27 74.02 465.83 75.45 464.48 77.83 461.87 78.84 460.48 78.98 459.33 79.89 457.58 79.97 456.05 82.57 454.59 83.5 453.52 85.24 452.56 87.15 452.24 88.58 452.21 91.03 451.59 93.27 450.64 94.31 449.56 95.09 447.93 96.24 446.16 97.27 445.62 98.14 444.06 99.06 444.12 101.43 443.57 101.76 443.65 105.82 443.05 106.66 443.66 109.92 441.89 113.59 442.27 114.65 442.19 116.69 442.48 117.41 442.41 121.22 443.7 122.29 444.21 123.6 444.18 124.88 444.56 127.09 443.37 127.43 442.14 129.45 440.44 132.53 441.01 133.21 441.29 135.01 440.05 136.78 439.53 138.42 439.81 137.86 437.79 137.7 436.58 138.15 433.69 139.33 432.12 138.67 430.65 138.72 428.78 139.02 425.85 138.68 425.03 139.09 424.2 138.96 422.22 139.73 420 141.16 417.32 142.79 415.29 143.22 413.7 145.29 411.96 148.88 410.32 149.11 408.51 148.33 405.24 145.84 401.54 145.2 398.47 145.21 397.88 146.35 396.33 140.94 393.66 141.18 392.28 140.66 391.08 141.56 387.8 142.37 386.27 142.43 385.37 142.05 384.48 143.34 382.57 143.47 381.38 145.9 376.85 148.6 373.75 149.48 371.45 151.93 369.35 152.57 368.35 154.1 367.55 150.78 365.06 150.49 363.86 150.7 362.47 150.31 361.8 151.89 356.82 155.84 355.73 156.28 353.41 155.9 350.99 155.06 348.74 154.45 347.8 152.71 346.66 152.4 345.61 153.07 345.38 153.15 344.06 153.8 343.5 155.53 343.54 156.98 342.27 158.27 342.99 161.57 346.09 162.39 346.15 163.55 345.73 165.35 344.42 166.53 343.84 168.25 342.47 169.08 341.09 170.95 340.35 172.15 337.94 171.66 336.41 172.83 335.58 173.09 334.26 174.08 332.73 174.36 331.91 175.34 330.27 171.92 329.21 171.34 328.64 170.82 326.49 170.72 324.49 170.2 321.75 165.69 321.67 164.82 322 163.67 321.84 162.8 321.06 162.57 319.42 163.11 317.29 163.47 317.03 164.68 317.25 166.65 318.11 168.31 319.49 169.12 319.46 169.43 318.24 169.99 318.09 172.96 318.97 175.27 319.26 177.32 320.4 179.14 320.88 180 321.72 181.51 322.12 182.75 322.86 184.2 322.18 186.81 322.56 188.19 323.44 188.97 323.47 190.18 320.41 191.75 320.44 192.95 321.39 194.61 322.09 196.54 321.65 197.53 320.38 198.04 318.51 199.43 318.11 201.27 317.31 202.85 314.89 204.49 314.91 205.66 313.65 206.16 312.54 208.33 313.06 209.07 312.72 210.46 312.79 213.3 311.15 213.96 309.07 214.77 307.73 215.37 306.29 215.91 303.61 215.28 301.87 214.52 301.49 214.03 300.3 214.51 299.55 216.01 298.52 215.88 297.76 216 294.25 216.27 293.18 216.23 291.89 216.59 291.29 215.81 290.26 215.25 290.03 215.1 289.08 214.56 287.99 214.83 286.75 214.8 285.66 215.95 283.79 215.36 280.37 214.4 279.45 213.36 276.95 212.21 276.72 211.94 276.25 212.67 275.21 212.49 273.58 213.18 272.02 212.46 270.49 211.89 269.95 210.81 269.58 208.08 269.27 206.26 268.83 204.3 267.24 203.83 265.94 203.02 265.48 203.43 262.74 202.59 262.63 203.34 260.27 204.2 259.77 205.79 259.64 207.98 258.93 209.57 257.75 211.87 256.26 212.39 255.69 214.07 252.99 214.63 250.57 216.53 246.83 217.15 245.78 217.69 246.27 223.24 249.01 226 249.98 226.43 249.87 228.91 243.76 230.45 241.73 231.13 240 232.21 239.06 231.63 238.47 232.18 237.73 233.48 237.18 235.32 234.52 236.61 234.24 237.29 234.45 238.95 235.45 239.03 236.81 240.96 236.82 241.01 235.48 241.96 235.18 242.62 234.58 243.69 232.65 244.68 232.75 246.99 233.59 246.33 230.88 246.48 228.41 245.6 228.29 245.17 226.83 246.6 226.5 246.16 224.06 245.4 222.67 244.36 223.05 244.06 221.82 242.04 222.82 239.13 223.68 241.68 205.75 242.25 201.65 242.66 199.92 238.24 198.94 238.55 198.47 237.85 197.32 236.8 197.39 235.18 196.1 234.2 194.73 232.55 194.69 231.1 194.3 229.69 194.43 228.73 193.88 229.03 192.47 228.95 190.74 228.45 189.93 227.99 188.54 228.01 187.21 227.32 186.06 225.79 184.64 225.31 182.9 225.26 181.95 226.47 181.22 227.14 180.47 228.26 180.68 229.75 180.65 232.23 178.82 232.73 178.31 233.22 176.78 233.1 175.29 234.3 175.27 236.57 176.16 238.13 177.29 238.57 177.96 237.9 181.42 242.57 182.34 242.16 184.79 242.38 185.21 245.85 185.89 244.74 191.24 247.61 191.36 250.3 193.98 253 196.47 254.82 199.59 256.52 201.38 258.06 203.87 259.73 205.58 259.75 207.02 260.84 208.42 261.36 209.99 261.74 212.02 262.22 212.76 262.06 213.53 261.06 214.9 261.96 216.36 267.13 214.79 267.17 213.93 267.78 210.02 268.24 205.62 268.66 203.04 269.82 202.39 269.99 201.15 269.24 201.02 270.12 195.38 269.87 195.25 270.17 193.46 270.5 193.08 271.04 190.22 271.84 185.39 272.71 184.97 273.81 183.5 274.85 181.51 276.24 180.65 276.34 178.33 273.24 178.33 275.56 164.31 278.79 164.83 280.22 164.56 281.44 162.19 280.97 159.3 282.62 158.91 283.75 157.56 285.61 156.56 287.06 155.08 287.33 153.74 288.07 152.18 289 150.78 288.86 149.78 289.12 145.39 290.3 143.61 291.97 141.92 292.66 141.71 293.89 142.06 295.4 141.28 296.39 139.98 297.34 139.24 298.66 139.09 299.16 138.32 301.28 136.83 301.11 134.63 302.48 133.27 303 131.6 303.58 130.82 304.65 130.19 305.25 129.42 305.86 128.11 306.71 127.96 308.28 126.72 309.96 123.81 311.11 121.18 311.27 120.16 312.63 118.87 312.5 117.45 313.56 115.31 314.78 115.19 315.3 114.84 315.96 113.26 315.86 112.81 317.63 113.02 319.1 114.49 319.93 116.32 322.29 117.37 322.51 119.69 324.91 120.69 325.17 121.85 325.98 123.17 327.25 124.04 327.74 123.69 331.21 120.57 332.06 121.5 332.87 121.52 333.78 122.05 334.64 121.77 336.15 119.72 337.4 119.29 337.61 118.68 338.48 117.96 338.97 116.63 340.12 115.96 340.59 114.1 341.12 113.24 340.82 112.64 342.18 111.8 343.46 112.6 345.9 112.29 346.52 112.01 348.14 109.24 349.32 109.28 350.69 107.89 351.85 107.12 353.61 106.33 354.23 105.83 355.61 105.76 356.14 104.79 358.21 103.15 359.56 102.85 360.01 101.93 362.72 99.49 362.51 97.48 363.04 97.44 364.29 95.55 366.3 95.83 368.43 95.09 369.1 95.65 370.46 95.28 371.5 96.37 372.35 96.6 373.43 96.44 373.87 96.74 375.65 96.6 376.15 97.16 377.75 97.02 379.03 96 379.9 96.4 381.95 96.19 383.4 96.67 384.58 98.26 385.3 98.94 386.61 99.27 388.07 100.1 389.91 101.56 390.81 103.88 391.31 104.35 391.67 106.63 392.34 107.37 393.55 107.53 395.07 109.43 395.66 109.59 396.07 108.92 397.77 107.58 400.06 107.16 401.02 106.1 402.22 106.37 403.55 105.57 407.51 106.21 408.75 105.03 412.16 104.33 413.22 104.36 414.93 104.81 415.95 105.72 417.76 104.68 418.61 102.65 421.11 102.27 422.42 100.96 423.47 100.59 424.02 98.44 425.18 97.75 425.68 97.11 425.71 95.24 426.94 94.46 427.38 93.68 427.27 92.52 426.6 92.01 426.4 90.87 427.11 90.05 427.32 89.01 428.39 88.33 429.71 86.8 429.89 86.06 430.79 85.09 431.09 84.22 430.12 82.74 429.66 80.8 429.94 80.53 431.13 76.71 431.03 75.38 431.86 74.76 431.76 74.01 432.65 73.29 432.46 72.3 433.93 70.34 434.04 69.24 434.78 67.31 434.6 65.57 434.99 64.5 435.88 64.11 436.1 62.17 438.47 62.15 440.83 63.36 441.61 63.44 442.47 64.72 443.23 64.6 443.98 63.67 444.28 62.63 445.25 61.82 446.41 61.53 447.57 60.65 448.3 60.73 450.41 59.71 450.28 58.56 451.71 58.6 452.57 57.59 453.67 57.54 456.22 55.63 457.7 55.04 458.7 54.23 460.61 53.58 462.16 53.57 462.65 52.85 462.73 51.89 463.85 52.12 464.92 51.73 468.12 50.99 466.81 48.88 467.04 48.35 466.85 45.76 467.37 41.67 468.13 39.72 468.93 38.7 468.88 37.89 469.51 37.61 470.25 36.17 470.28 35.11 471.64 34.28 472.15 33.45 472.82 33.1 476.88 31.51 480.61 32.24 483.12 34.06 484.07 34.18 486.65 35.33 487.34 34.96 488.2 33.67 488.98 33.86 490.38 31.99 490.22 30.78 491.11 28.87 491.87 28.34 492.33 26.82 496.16 25.8 497.66 24.39 498.74 24.08 499.52 23 501.26 23.35 501.91 22.97 504.02 23.73 509.59 24.5 511 20.56 511.02 19.37 511.78 17.75 512.1 13.94 512.08 12.77 514.14 12.43 515.94 10.97 515.97 9.95 516.85 8.63 518.72 7.77 522.09 5.76 523.62 7.05 525.4 7.86 525.99 8.62 527.24 9.13 527.99 10.96 528.88 11.51 529.64 11.03 530.89 10.85 532.6 8.87 534.89 10.04 535.68 9.43 537.18 9.26 538.16 8.6 538.88 7.77 540.45 7.51 542.64 5.4 543 4.58 544.12 3.93 544.75 2.69 546.62 1 548.4 1.02 550.28 1.55 552.1 3.38 554.31 3.9 554.37 5.5 555.59 5.73 557.08 6.85 559.46 7.1 561.7 6.94 562.39 6.6 563.43 6.72 564.06 7.55 564.95 8.19 565.97 10.31 567.06 11.76 568.07 12.72 569.37 12.99 571.07 14.26 572.37 15.57 572.64 17.22 575.66 17 578.79 17.35 580.12 17.28 580.44 19.18 581.2 21.92 581.05 25 582.33 26.23 582.89 26.13 586.59 29.39 585.6 31.47 584.4 32.52 583.49 33.6 583.32 34.53 584.4 40.88 585.61 42.69 584.91 43.88 584.03 46.01 584.62 47 584.98 48.2 584.97 49.76 585.87 51.67 586.83 53.1 586.81 53.94 585.72 55.62 585.37 57.78 585.53 59.36 584.28 60.11 583.18 60.47 582.46 61.34 581.6 61.59 581.14 62.71 579.84 63.93 580.05 64.9 579.65 66.24 576.24 70.24 576.83 71.62 578.92 75.2 578.85 77.12 579.18 79.06 582 78.87 582.81 80.05 584.3 80.36 585.07 81.62 586.04 81.57 586.82 81.97 588.3 83.65 589.71 84.41 591.2 83.12 593.77 82.51 594.78 80.74 597.19 80.25 598.54 81.45 601.31 80.52 602.41 80.52 603.61 81.95 604.13 81.96 605.56 83.26 608.76 83.98 609.72 84.87 612.51 85.7 616.02 83.57 616.33 82.94 619.49 82.64 622.3 84.2 624.66 84.77 625.44 84.62 627.19 85.65 628.24 85.47 631.06 87.11 632.4 87.36 633.89 89.26 635.7 90.94 636.54 93.31 635.4 95.36 635.31 97.01 635.55 98.1 635.36 98.89 635.56 100.13 635.3 100.64 635.46 103.2 635.24 104.33 636 105.51 636.06 106.97 634.86 108.72 636.11 110.69 635.95 111.58 636.37 112.7 636.1 114.08 635.08 115.37 634.21 115.88 633.3 118.75 632.18 121.13 632.36 123.19 632.24 125.18 631.66 126.05 631.18 127.93 631.09 130.06 631.36 130.88 632.26 131.55 634.13 132.47 633.36 133.88 633.63 136.82 632.99 139.66 631.81 142.09 631.26 144.66 630.21 145.62 631.05 147.43 632.12 148.74 632.74 148.74 633.87 149.32 636.12 150.98 638.37 149.13 639.19 147.86 641.31 147.3 643.95 148.32 647.16 149.32 649.28 149.55 650.27 149.1 651.46 149.61 652.06 150.74 652.66 151.29 655.02 151.93 655.73 151.77 657.46 150.73 658.52 149.37 659.48 149.1 662.1 148.74 663.08 148.33 664.02 148.28 665.4 148.63 666.92 150.21 670.65 151.46 673.77 153.43 674.72 155.01 676.05 156.19 675.96 157.12 676.84 158.16 677.02 159.39 677.73 161.14 676.43 163.52 675.94 165.67 677.81 168.31 679.88 169.4 680.56 170.79 681.84 171.55 682.94 172.88 685.03 173.21 686.63 173.83 688.35 174.98 689.18 174.81 691.26 176.8 692.39 178.06 694.31 181.46 695.88 181.87 698.1 182.84 699.94 183.15 702.72 182.06 708.83 183.78 711.21 186.06 713.4 185.77 715.96 186.15 717.41 187.03 718.03 188.83 720.72 188.59 721.4 188.84 723.13 188.29 724.43 189.08 726.04 190.95 726.79 192.56 728.19 193.39 729.38 194.79 729.32 195.43 731.12 197.13 732.43 198.95 734.63 199.48 735.53 201.73 737.68 203.06 738.43 202.99 740.48 204.07 741.19 205.03 742.79 206.24 744.63 210.4 745.45 211.94 746.49 212.89 747.84 212.62 749.26 214.62 749.6 216 750.72 218.45 751.87 219.79 753.68 220.96 754.24 222.83 756.72 224.36 758.17 223.9 760.67 224.2 761.4 225.01 760.67 227.26 760.99 228.49 761.54 229.31 762.47 233.68 761.63 234.42 760.25 235.25 760.12 235.88 758.71 238.44 758.63 239.78 758.08 240.61 756.57 242.01 755.72 242.5 754.87 242.55 753.98 243.34 752.88 245.43 752.52 247.36 752.81 248.13 752.43 249.96 751.48 251.31 751.79 253.22 752.94 255.9 750.8 257.3 750.13 258.36 749.55 260.32 750.55 262.91 750.56 264.21 752.37 265.56 754.37 264.99 756.16 266.35 758.94 268.07 758.85 269.1 760.25 271.3 761.25 271.86 762.33 273.03 762.79 274.81 761.74 276.89 762.76 278.66 763.18 279.94 763.02 280.43 764.14 280.94 765.67 281.95 765.48 282.85 765.78 283.39 767.95 282.93 768.65 283.11 769.24 283.91 770.87 284.02 771.72 284.93 772.85 284.47 773.84 285 775.25 284.56 776.11 284.77 777.59 286.41 778.76 286.29 779.89 286.73 780.38 287.28 782.22 287.11 783.16 287.23 783.89 286.12 784.45 286.34 785.51 288.33 786.64 289.99 787.18 291.63 786.58 292.41 786.34 294.43 787.31 296.01 788.55 299.26 790 300.45 792.08 302.89 792.53 304.94 792.08 307.85 792.73 309.6 793.64 310.72 796.05 312.51 797.31 313.79 798.84 315.64 799 317.11 798.55 318.61 798.66 320.83 798.55 322.04 797.68 323.7 Z" id="34011000"/>
</g>
</svg>