<?xml version="1.0"?>
<svg xmlns="http://www.w3.org/2000/svg" version="1.2" baseProfile="tiny" width="800" height="1004" viewBox="0 0 800 1004" stroke-linecap="round" stroke-linejoin="round">
<g id="sigung">
<path d="M 673.28 13.33 674.57 15.34 674.28 16.81 675.45 20.21 675.06 22.52 675.75 23.3 678.73 25.31 681.29 26.05 682.26 27.46 684.35 29.44 687.07 29.48 687.87 29.97 689.07 32.55 688.55 33.67 689.47 35.35 690.53 35.89 689.48 38.17 690.52 41.88 691.63 43.15 695.3 48.31 696 50.15 697.58 51.71 700.11 55.18 700.48 56.13 702.23 58.23 704.16 59.69 705.83 59.84 706.64 61.24 708.62 61.3 710.08 62.29 711.05 64.78 710.27 66.53 710.71 68 712.52 70.54 712.39 71.12 715.4 74.76 716.01 78.11 715.29 79.66 714.25 80.89 714.24 82.2 715.47 82.5 719 84.97 719.9 86.49 722.29 92.06 722.31 94.02 724.18 97.02 725.82 98.32 727.39 98.85 727.75 102.24 728.3 105.01 728.16 107.18 726.15 109.65 726.28 113.71 724.8 115.33 723.08 114.97 722.01 115.69 719.59 115.21 714.16 117.39 712.62 118.94 710.11 120.02 709.26 121.38 709.33 122.14 708.61 124.66 707.41 125.15 707.41 125.89 706.21 129.27 702.74 131.3 702.3 133.51 702.7 133.97 702.6 138.62 703.37 138.85 706.25 137.26 707.5 137.81 709.27 140.73 712 141.92 712.81 143.19 714.33 144.18 715.44 145.64 718.26 155.5 720.28 159.78 722.1 164.88 722.84 165.05 725.13 166.88 723.17 167.67 722.46 168.3 721.85 169.79 722.28 171.12 718.28 175.66 714.68 176.77 713.37 177.59 711.98 180.18 712.5 181.57 712.75 186.41 713.15 187.95 714.55 189.35 716.95 192.64 718.12 194.73 718.51 197.01 718.64 200.06 719.43 202.44 719.92 205.64 717.53 205.82 716.81 206.94 716.63 208.92 715.45 210.18 713.71 211.09 713.7 214.36 711.36 215.78 712.11 218.19 711.61 219.76 710.28 220.06 709.02 221.69 708.18 225.07 706.98 227.55 707.45 228.9 708.56 230.11 710.52 231.6 709.4 233.67 710.39 235.04 709.91 237.58 710.73 238.58 711.52 240.95 710.82 245.1 711.86 249.56 712.33 250.49 712.64 252.62 713.21 253.21 713.57 255.91 713.53 260.97 711.23 265.97 710.38 270.2 709.5 271.4 710.06 275.23 713.11 275.11 714.17 276.06 714.76 277.3 717.22 278.13 719.79 278.56 722.04 278.12 723.75 276.71 726.5 275.68 726.93 275.11 728.97 274.92 730.46 275.55 732.04 275.12 734.33 275.61 735.34 274.24 739.62 274.81 742.38 274.54 743.01 278.04 748.06 277.56 752.11 276.35 752.16 276.98 753.83 278.53 757.1 277.89 758.2 278.78 758.17 279.53 759.95 281.8 762.27 280.7 764.27 280.98 764.26 283.12 766.41 284.71 767.94 286.33 768.38 288.18 771.6 291.14 771.01 292.56 772.2 296.42 773.37 298.66 773.39 301.63 772.51 303.48 771.01 305.69 767.92 309.73 765.72 311.71 765.34 314.07 765.85 315.39 765.04 318.87 763.6 320.47 760.65 325.73 760.53 326.81 759.38 327.7 759.21 329.02 756.86 332.35 754.96 334.29 751.87 333.91 749.82 335.11 749.81 338.81 750.31 340.37 749.21 341.94 746.73 342.3 744.03 343.88 742.57 345.41 741.58 347.26 739.62 349.28 739.75 352.02 740.3 353.75 739.74 354.67 739.63 356.77 741.89 357.99 744.67 358.7 747.77 356.86 748.96 357.81 750.76 357.88 752.21 358.49 755.53 358.12 756.63 355.56 757.97 355.52 759.25 357.08 759.13 359.35 759.37 361.17 760.07 361.77 756.54 365.94 755.13 368.17 753.12 370.43 751.57 373.64 751.54 375.74 748.1 377.15 747.06 378.3 747.09 381.74 748.74 385.99 749.43 388.63 747.48 392.39 746.34 393.22 747.12 394.55 748.21 397.33 750.6 400.29 750.28 403.08 749.28 405.24 749.24 407.65 748.82 411.4 745.57 419.76 743.26 422.9 741.05 428.43 739.92 429.18 736.29 432.75 735.38 435.24 735.52 436.93 737.79 439.37 739.28 442.3 740.22 445.51 740.05 446.79 740.71 450.33 740.21 453.51 738.74 456.71 739.26 462.78 738.77 465.77 734.3 469.26 734.17 472.79 734.85 474.11 734.84 477.88 735.81 481.84 734.54 486.24 733.29 486.66 734.08 488.83 728.8 495.64 729.38 500.51 733.31 504.77 736.21 503.74 738.53 505.17 737.33 506.86 737.46 508.02 738.88 509.86 739.32 512.09 744.08 511.11 743.77 509.62 741.88 505.93 746.15 505.04 746.09 503.64 746.61 502.26 748.21 500.47 747.74 498.23 747.87 496.61 748.87 495.06 751.04 493.45 752.32 490.89 753.4 490.03 755.34 489.11 755.09 487.9 759.41 486.91 759.9 488.22 761.7 489.64 763.24 496.59 766.08 496.09 767.46 495.56 770.43 493.4 772.66 494.1 775.11 495.54 774.43 497.79 775.08 502.41 774.77 503.07 774.41 506.47 773.76 507.56 773.11 510.12 774.63 510.3 775.63 511.13 774.65 516.55 776.22 520.24 778.71 522.46 779.8 525.7 779.81 526.9 780.69 529.06 782.39 530.18 781.16 532.82 781.43 537.68 780.21 538.4 779.14 541.74 780.34 541.9 779.76 545.79 780.9 546.44 781.57 548.28 784.35 550.53 786.94 551.17 790.8 551.6 792.33 552.13 793.14 552.9 794.16 555.07 793.19 557.28 793.43 559.58 792.4 561.07 792.78 561.73 794.42 562.06 795.9 565.61 797.25 566.91 798.08 571.76 796.46 574.42 796.5 575.96 796.12 577.72 796.88 579.26 797.1 580.61 797.89 580.94 799 582.39 798.49 583.25 798.54 585.07 798.16 586.6 797.99 591.58 798.17 592.65 796.04 594.11 795.37 595.17 796.07 596.87 797.14 597.4 798.03 599.87 797.27 603.67 796.42 605.72 795.26 607.62 794.33 610.57 790.3 612.9 788.33 612.8 787.28 613.28 784.21 612.54 783.5 614.12 781.84 615.9 779.51 615.88 777.27 619.3 774.67 620.44 772.69 621 771.97 623.67 770.57 625.46 767.83 626.09 765.47 625.1 763.77 623.75 761.55 623.7 759.83 628.04 758.73 628 756.76 626.75 753.07 626.21 751.01 627.18 749.26 626.14 747.12 625.56 745.89 624.37 743.32 623.69 740.41 622.08 737.14 621.66 732.92 620.41 732.12 620.63 731.69 622.36 730.53 622.39 728.19 620.45 725.39 619.22 723.67 618.91 723.16 619.28 722.4 622.3 722.73 624.62 723.95 625.73 725.59 625.96 726.82 625.49 733.21 625.61 733.95 629.49 734.1 632.33 734.83 635.37 735.66 636.19 740.51 637.69 739.12 640.02 738.72 641.19 737.31 643.35 736.94 645.22 735.29 646.4 735.98 648.57 734.28 651.99 731.63 653.04 730.45 655 728.02 656.95 726.34 657.76 723.79 659.61 722.15 660.22 720.98 660.13 716.29 655.74 714.47 654.71 712.42 656.52 709.96 656.45 709.04 657.26 708.92 659.13 707.97 659.45 708.41 660.94 710.88 662.56 711.75 663.9 712.93 667.08 713.48 670.51 712.85 673.81 707.25 675.36 705.01 682.42 705.57 683.36 705.27 685.34 705.68 687.04 710.38 690.57 708.22 691.71 707.32 693.12 703.84 696.1 702.59 699.36 698.76 703.76 695.31 710.19 695.13 711.87 693.3 714.58 693.83 715.86 693.75 717.13 692.6 719.3 691.33 723.95 692.07 725.65 691.72 727.61 699.4 731.4 697.78 733.59 697.77 734.43 698.68 738.79 702.21 744.04 703.31 748.68 702.98 751.24 697.9 753.57 694.96 756.03 694.35 758.3 692.03 761.18 690.01 764.97 688.92 768.12 689.1 770.94 688.52 772.11 689 773.27 688.57 777.42 688.51 780.08 689.45 782.17 687.77 784.39 687.14 788.49 687.36 790.21 688.16 793.08 685.83 792.68 683.31 793.42 680.77 795.18 679.8 794.77 675.43 793.97 672.56 796.38 672.09 798.12 668.96 799.81 667.14 799.28 665.28 799.32 663.77 798.59 658.37 796.76 657.34 796.86 654.45 796.45 652.95 796.57 647.74 796.02 643.12 798.54 641.93 797.66 636.17 798.51 635.71 798.4 632.35 799.19 631.03 799.11 629.81 801.31 628.35 802.08 626.7 804.59 625.6 806.91 624.13 808.43 620.95 809.78 617.48 810.67 615.46 810.71 612.74 811.15 610.28 812.52 608.95 814.03 605.28 816.11 605.16 818.28 603.87 820.77 603.67 822.39 602.24 824.36 598.86 828.07 596.83 829.99 595.74 832.03 594.96 834.29 589.72 839.89 588.97 841.03 586.35 842.05 584.36 843.16 583.59 845.25 582.54 846.45 578.7 849.57 577.25 851.06 575.67 851.72 573.36 853.51 570.84 854.51 567.83 856.53 565.13 857.26 558.62 860.42 555.26 861.5 551.31 863.48 549.23 865.82 545.52 871.31 543.43 873.25 541.05 877.71 540.25 880.51 538.81 881.58 537.91 883.78 537.05 884.31 535.16 888.86 532.67 891.17 531.24 893.44 530.49 896.23 530.52 900.39 527 903.56 524 905.54 523.74 907.52 525.14 912 520.62 913.55 516.23 918.96 513.33 921.71 512.22 925.04 512.24 927.67 512.69 928.87 513.51 934.55 511.96 936.68 511.6 938.72 512.35 940.24 512.7 942.1 511.1 944.27 508.05 947.73 506.45 950.39 503.06 952.4 502.81 954.46 501 957.08 500.99 959.46 502.25 961.35 499.72 962.68 498.23 965.05 496.16 967.66 495.03 968.48 493.55 970.16 493.29 973.44 495.53 973.88 496.11 976.85 494.09 979.11 490.94 980.59 490.19 983.94 487.37 988.46 486.62 988.27 484.36 989.86 480.52 989.33 480 991.61 477.76 993.99 475.89 993.68 475.05 992.86 472.78 993.25 469.59 991.08 465.86 991.96 465.15 993.17 461.25 994.09 459.26 995.1 458 995.37 456.89 997.15 451.66 1002.79 448.07 1003 443.51 1001.61 441.28 1002.62 438.98 1001.3 436.19 997.96 435.31 995.45 433.63 995.52 429.7 994.98 428.31 992.21 422.13 991.65 420.23 989.62 415.46 988.13 410.06 985.88 410.26 984.22 408.49 980.68 408.02 978.2 409.37 975.35 410.09 972.85 410.13 970.14 409.4 968.37 409.35 966.27 410.61 962.57 411.48 961.03 409.11 957.3 406.96 955.59 406.92 953.45 405.15 952.79 403.32 951.38 401.42 948.17 402.03 946.3 400.2 941.61 397.9 939.79 397.09 938.13 396.42 937.7 393.91 935.06 393.06 933.02 392.15 932.3 391.63 929.6 389.11 927.53 387.78 920.7 384.55 916.5 384.76 913.21 383.97 910.68 383.75 907.53 384.4 905.81 381.4 898.45 381.79 894.41 382.73 892.31 381.43 889.53 382.14 886.46 381.2 884.66 381.54 877.52 381.84 873.4 385.22 869.3 394.27 858.83 389.87 852.2 386.58 848.22 381.71 845.75 378.8 843.32 373.66 841.13 365.43 839.06 363.98 838.78 361.54 835.84 357.64 836.83 352.18 834.4 349.92 831.95 345.83 831.39 341.39 823.49 339.51 818.99 336.44 816.63 333.63 816.12 332.83 814.77 328.31 816.17 323.08 818.3 318.71 816.97 315.77 817.56 312.12 822.01 310.92 822.43 308.75 822.65 307.13 821.47 305.19 818.16 303.43 817.28 301.86 815.9 297.06 816.98 294.81 818.66 291.83 819.2 289.54 820.07 287.68 820.45 286.83 818.16 280.49 815.6 279.34 814.55 277.33 814.38 274.98 812.23 273.49 812.08 272.78 813.67 270.9 814.67 268.22 818.27 267.2 818.33 264.35 820.59 263.61 822.17 261.33 823.05 259.46 824.22 258.71 823.88 255.88 825 251.85 822.66 250.91 820.7 249.52 819.29 247.77 818.8 243.12 816.73 238.6 815.99 235.69 816.84 233.52 815.23 232.37 815.11 231.98 814.36 229.83 814.25 227.42 814.98 225.88 814.32 224.83 815.24 223.47 818.07 222.16 819.11 220.55 819.67 219.01 819.47 217.05 819.98 216.06 821.46 214.09 822.02 210.77 821.51 207.14 821.4 205.19 819.93 201.48 819.78 201.01 818.55 201.32 817.54 200.7 816.1 200.92 815.31 200.89 812.11 202.33 811.17 202.54 809.01 203.41 806.45 203.33 805.19 204.21 804.37 204.25 800.64 207.73 795.6 210.39 794.79 208.99 792.59 207.72 791.91 204.67 788.29 202.79 787.79 202.89 784.83 203.85 781.91 203.26 779.03 203.53 777.25 201.94 776.13 198.43 770.04 194.31 770.39 192.87 769.4 192.44 763.85 194.07 761.32 193.63 758.38 191.93 756.26 190.96 753.84 191.12 752.95 190.61 750.65 192.02 749 189.86 747.09 187.7 746.91 185.09 745.79 183.22 744 180.07 743.88 176.6 745.65 173.75 743.95 172.61 741.74 170.25 739.65 168.1 736.99 164.42 732.77 164.07 726.87 161.97 723.9 160.02 722.23 158.82 720.2 156.27 720.85 153.8 720.44 149.54 721.98 147.15 723.46 142.09 725.44 139.94 726.45 137.83 726.83 135.44 726.77 134.22 727.62 130.89 728.33 129.19 730.27 128.13 731.03 126.77 731.26 124.11 729.36 123.02 730.17 120.08 731.18 118.29 731.36 117.26 731.94 114.77 730.53 113.45 729.39 109.48 728.54 104.37 726.92 102.54 722.7 101.35 720.71 98.67 717.99 95.87 717.95 93.65 711.27 93.53 710.24 94.2 709.09 93.93 706.66 94.36 705.93 93.92 704.58 93.08 703.95 93.12 702.85 91.16 702.08 90.08 700.98 88.52 700.26 85.78 697.98 85.78 695.89 83.9 693.39 83.49 691.09 84.03 687.85 82.89 684.62 81.92 683.22 78.41 680.38 78.38 679.73 76.88 676.89 78.48 675.53 79.58 675.57 81.08 674.92 82.23 675.18 82.36 673.84 80.96 670.52 81.48 669.31 83.07 668.38 83.05 667.08 81.65 666.36 77.79 663.69 75.46 663.18 74.98 662.07 73.77 661.38 71.88 662.85 70.43 663.4 67.26 662.96 65.88 660.96 64.64 660.99 63.72 661.62 61.7 660.94 60.8 659.56 58.4 659.94 57.65 658.53 55.8 657.19 54.07 656.49 52.79 655.27 52.85 649.79 52.22 646.82 50.71 645.61 49.04 645 47.1 644.86 45 645.69 41.88 646.58 35.94 651.01 33.71 649.61 33.22 648.71 28.06 646.33 25.2 643.19 23.66 637.67 23.24 633.06 24.63 627.76 25.34 620.39 20.59 622.46 15.25 621.78 11.12 620.2 5.83 615.41 9.4 615.2 7.7 610.57 6.93 606.91 6.25 605.63 6.08 600.99 6.63 601.19 7.21 595.87 6.76 595.47 7.41 592.85 9.25 587.83 8.26 586.62 6.01 584.7 4.91 585.02 2.83 584.07 1.8 582.93 1 580.22 1.04 578.09 1.42 575.76 2.64 572.66 3.56 571.54 4.84 570.92 5.8 568.58 7.32 567.72 9.62 567.82 10.2 562.45 11.12 552.3 12.66 541.54 15.58 536.62 17.97 533.22 18.5 532.47 22.19 529.39 30.5 525.7 38.49 524.17 52.33 523.7 67.71 524.93 76.32 522.17 82.47 513.25 83.4 506.49 82.63 500.95 80.73 486.18 80.08 485.28 80.25 484.23 64.94 454.83 59.41 445.14 53.87 428.39 47.79 419.27 43.22 415.06 41.66 412.94 41.1 411.35 41.28 409.26 23.73 382.57 22.8 379.5 21.88 341.68 27.42 305.09 28.36 303.73 28.72 300.82 28.13 300.81 29.02 297.08 30.57 294.67 29.72 294.45 29.44 292.08 40.18 221.3 45.08 198.29 53.05 200.8 53.74 200.45 55.39 201.01 56.21 200.88 58.04 201.78 60.85 202.49 67.16 204.66 67.51 205.37 91.57 212.95 94.36 212.96 92.34 210.06 92.92 209.43 95.8 212.64 97.95 210.95 98.11 210.38 99.85 209.89 101.22 208.56 106.95 206.18 111.05 203.9 113.15 203.04 122.9 199.7 133.83 195.77 147.72 190.93 148.57 190.04 152.79 189.34 166.78 188.31 169.46 187.63 169.58 188.1 181.23 187.25 199.21 186.1 205.9 185.63 212.26 183.67 215.91 181 215.9 179.77 217.11 180.23 221.54 176.99 223.68 175.26 225.3 173.35 226.43 171.28 227.01 169.41 227.37 166.93 225.19 154.59 223.46 145.19 222.64 139.64 224.46 139.35 242.07 123.92 304.82 86.01 344.77 74.97 375.03 63.87 398.34 56.94 414.89 48.95 430.7 34.35 447.08 30.85 451.43 27.28 454.5 25.77 455.76 25.49 457.09 24.55 465.39 26.74 469.45 29.94 472.47 30.54 477.5 30.45 477.41 29.64 478.66 29.18 479.45 25.9 480.48 25.22 481.84 25.24 483.41 25.82 486.8 28.14 487.87 28.66 490.58 28.59 490.68 27.62 489.39 25.04 489.42 24.29 490.69 23.29 493.87 23.53 497.14 22.66 499.04 22.96 500.73 25.79 501.29 28.13 503.03 28.55 507.43 27.09 511.44 24.35 512.95 24.44 516.63 26.55 517.69 27.94 519.72 28.7 520.9 29.93 522.65 30.57 524.64 29.46 526.4 27.48 527.36 27.13 528.39 28.29 528.69 31.56 527.89 32.91 527.42 34.81 527.74 36.9 528.45 38.56 530.67 40.68 533.95 40.8 536.38 41.6 537.81 43.56 540.98 47.1 542.5 47.27 544.88 46.58 546.19 47.64 547.58 47.8 549.33 47.52 550.02 46.93 551.94 46.61 553.24 48.38 554.25 49.11 556 49.14 559.85 47.5 561.95 47.17 563.18 45.4 563.16 44.79 565.5 43.72 565.27 41.55 565.9 40.87 569.85 40.03 570.35 37.7 572.27 35.14 574.84 34.47 580.12 34.69 582.06 33.86 583.58 34.1 586.03 33.25 589.46 30.22 590.62 30.09 591.65 30.92 592.9 30.8 593.91 31.32 595.21 31.25 596.14 31.85 600.67 31.82 603.64 29.95 604.35 29.18 605.27 29.73 606.42 29.33 607.3 28.09 609.46 27.37 610.88 26.35 612.21 26.04 613.59 25.03 614.91 24.81 617.21 20.94 617.68 19.35 619.44 18.49 620.2 16.92 621.69 16.66 623.91 17.27 624.81 18.7 627.06 18.98 628.37 18.1 630.59 17.55 632.12 16.31 633.29 14 632.81 11.79 635.37 10.96 636.19 10.36 638.55 9.69 641.19 9.55 645.3 5.28 648.49 2.68 649.72 2.08 652.82 1.89 655.87 1 658.02 2.92 657.53 6.57 657.59 7.76 658.33 8.75 659.26 8.98 661.56 8.79 663.92 7.44 666.32 6.33 669.13 6.54 670.13 6.98 672.49 9.29 671.92 10.74 672.03 12.35 673.28 13.33 Z" id="34040000"/>
</g>
</svg>