<?xml version="1.0"?>
<svg xmlns="http://www.w3.org/2000/svg" version="1.2" baseProfile="tiny" width="800" height="1256" viewBox="0 0 800 1256" stroke-linecap="round" stroke-linejoin="round">
<g id="sigung">
<path d="M 138.88 1202.96 139.4 1203.88 136.85 1205.29 136.4 1204.41 135.27 1203.67 134.8 1202.83 134.71 1201.33 135.72 1200.38 136.84 1200.97 138.19 1202.67 138.88 1202.96 Z M 10.01 505.27 10.03 506.69 9.01 506.67 8.78 505.47 10.01 505.27 Z M 84.7 496.03 84.63 496.97 83.28 497.11 82.45 497.64 80.43 498.01 79.8 498.54 79.68 499.54 78.01 500.26 76.69 500.18 75.99 499.49 78.16 497.81 79.82 498.3 80.39 497.6 80.51 496.51 81.44 495.98 84.7 496.03 Z M 111.08 452.9 112.06 454.01 113.29 454.45 114.32 455.38 114.64 457.39 115.54 458.14 114.84 459.73 114.2 460.19 112.13 460.75 111.24 461.55 109.81 460.72 110.19 459.43 111.37 458.04 111.68 456.4 110.7 454.8 110.38 453.71 111.08 452.9 Z M 184.97 391.73 185.17 393.08 184.2 393.64 183.14 393.02 181.74 392.79 181.63 392.04 184.72 391.28 184.97 391.73 Z M 208.65 375.44 208.72 376.72 208.09 378.29 206.08 377.4 205.57 378.09 204.66 377.21 206.52 375.45 208.65 375.44 Z M 236.54 358.26 235.66 360.38 234.69 359.79 234.66 358.58 236.54 358.26 Z M 150.77 338.04 149.55 337.78 149.39 337.14 150.79 336.16 152.24 336.81 151.88 337.61 150.77 338.04 Z M 29.11 328.7 30.25 328.39 31.73 329.78 32.58 331.28 38.21 330.71 41.04 330.77 46.99 329.95 48.23 328.69 49.76 328.73 51.16 329.72 51.73 331.12 52.92 332.3 55.81 333.41 57.15 334.27 57.04 334.78 55.22 336.78 55.56 337.55 53.45 338.01 53.15 338.73 53.38 341.45 54.65 344.34 55.96 345.79 57.7 346.93 60.6 348.28 62.1 349.3 62.78 349.2 63.32 350.86 65.18 352.37 66.81 353.08 67.36 353.8 66.21 355 66.16 357.25 66.87 358.06 68.18 358.59 71.14 357.29 72.49 358.36 73.77 358.39 74.34 359.63 73.91 361.23 73.06 362.11 71.6 362.57 71.17 363.99 72.21 367.31 71.61 367.52 71.11 369.39 69.1 369.91 68.98 369.28 67.62 369.45 66.98 370.5 66.03 369.48 64.5 369.01 63.24 367.54 62.37 365.79 60.32 365.1 58.22 365.41 55 365.56 53.73 364.88 50.75 365.02 48.41 364.15 46.38 362.31 46.25 361.24 44.96 361.01 44.23 360.41 43.97 358.9 44.31 357.68 43.85 356.95 43.79 355.75 43.27 354.22 43.29 353.21 41.59 352.03 41.12 351.07 41.17 349.85 41.99 348.41 41.32 345.16 40.48 342.79 40.59 340.99 39.61 339.5 37.67 338.85 36.2 337.54 36.23 336.62 35.69 334.84 35.93 333.65 34.77 334.03 33.62 335.3 31.92 334.81 30.74 334.06 29.52 334.13 26.93 330.65 26.17 330.28 26.58 328.9 28.33 328.04 29.11 328.7 Z M 88.81 316.3 90.24 316.8 92.9 316.28 95.64 318.75 95.81 319.89 96.58 321.08 97.43 321.73 99.51 324.19 99.29 324.48 97.51 322.26 96.72 321.59 95.5 319.71 92.02 319.42 89.46 319.36 86.69 319.81 85.77 319.24 86.24 317.15 87.52 315.91 88.81 316.3 Z M 192.03 287.52 190.87 287.8 190.14 287.02 190.34 286.02 192.3 284.82 193 285.11 192.03 287.52 Z M 113.8 286.22 115.37 287.66 117.25 288.1 119.81 288 121.85 288.24 124.81 289.48 126.64 290.93 129.08 291.56 130.23 291.66 132.34 292.36 134.56 292.3 135.89 292.68 136.62 290.5 138.1 290.06 139.3 290.5 140.07 289.54 141.19 289.37 142.97 288.12 145.3 287.73 148.93 287.7 149.5 288.71 151.1 290.56 151.64 290.27 152.76 290.83 154.4 292.92 154.55 293.97 156.2 294.75 157.83 296.04 161.11 299.03 164.02 296.86 165.7 298.93 166.84 299.05 168.83 300.12 169.46 301.34 171.19 300.68 172.08 301.31 172.71 302.57 174.67 302.8 175.44 302.57 178.03 300.54 178.45 300.93 178.37 302.26 178.57 305.22 175.37 305.3 173.12 305.91 173.13 307.1 172.66 308.56 171.76 309.71 171.21 310.97 171 313.19 170.24 314.58 170.22 315.49 169.22 316.07 166.51 316.61 165.28 317.77 163.67 318.18 161.98 319.26 160.37 319.98 159.03 319.94 157.46 320.32 155.85 320.35 153.47 321.12 151.59 320.39 149.06 319.96 147.85 319.06 146.21 318.6 144.15 319.54 142.04 319.89 140.9 320.7 141.01 322.25 140.54 323.06 139.02 323.36 138.99 322.56 138.17 321.78 137.88 320.84 136.58 319.57 134.05 318.03 135.4 316.38 136.98 316.03 137.95 315.34 138.29 314.5 138.47 312.65 137.71 310.36 136.69 310.25 132.39 308.56 130.54 307.69 129.58 306.14 129.7 304.67 130.32 302.52 131.82 300.39 132.75 297.69 133.1 293.46 133.93 292.51 132.06 292.5 129.94 291.79 128.93 291.72 126.3 290.95 125.07 289.9 122.24 288.53 120.43 288.23 117.05 288.33 115.32 287.93 113.8 286.22 Z M 97.94 276.51 101.81 276.67 101.84 277.85 100.17 278.98 100.6 280.07 99.94 282.14 97.87 284.13 96.95 285.4 95.75 286.5 93.32 286.33 91.89 285.19 91.04 285.2 89.92 284.56 89.26 282.77 89.38 281.7 90.32 280.45 91.08 280.15 92.83 277.94 93.58 277.64 95.42 277.63 97.01 276.62 97.94 276.51 Z M 55.46 271.89 57.36 272.2 57.74 274.19 58.7 275.48 60.1 276.3 60.75 277.83 61.24 281.15 62.13 283.84 62.14 285.54 64.37 290.68 65.93 292.36 67.42 296.1 67.73 297.96 66.53 297.35 66.01 296.39 65.45 294.39 63.48 292.73 61.92 291.76 58.46 288.15 57.97 286.78 57.63 284.78 56.39 281.67 56 279.69 54.49 277.62 54.03 275.35 54.51 274.61 55.46 271.89 Z M 100.33 265.14 100.94 265.18 101.95 266.87 101.58 267.67 100.19 267.42 100.33 265.14 Z M 50.53 253.96 52.28 255.7 52.78 257.52 54.17 261.49 54.55 263.33 56.14 265.49 56.95 267.64 52.92 263.88 51.79 261.55 50.92 258.76 51.03 257.06 50.53 253.96 Z M 78.6 217.52 79.27 217.44 80.21 218.29 79 218.88 79.19 219.95 78.31 221.28 77.75 220.7 76.69 222.6 76.9 223.52 75.4 223.82 74.75 222.55 75.75 221.39 75.09 220.98 74.31 221.55 73.76 220.74 75.27 219.26 75.54 218.36 75.22 217.28 77.05 217.36 77.94 216.59 78.6 217.52 Z M 352.66 70.24 353.81 72.68 393.52 143.78 403.61 197.8 414.97 248.14 413.49 269.31 401.68 305.1 383.86 362.59 376.68 389.78 376 430.49 389.5 438.03 398.29 445.95 398.99 446.67 400.96 443.98 401.45 444.01 410.4 450.91 414.62 452.91 425.52 457.31 433.32 460.27 438.23 460.6 441.12 461.1 443.21 461.75 443.37 462.88 444.39 464.28 446.76 464.13 448.13 461.31 449.38 460.47 451.34 460.4 452.22 459.5 454.23 459.79 459.09 461.19 459.66 462.31 459.88 465.64 460.21 466.96 460.4 470.16 460.76 472.04 460.71 474.03 460.95 474.94 460.23 478.54 460.41 481.13 459.99 482.96 459.27 483.86 460.2 488.9 459.93 492.2 460.44 495.75 460.51 504.02 461.67 505.94 462.96 508.5 463.46 510.24 464.91 509.61 467.44 510 469.17 513.94 472.97 518.51 468.95 521.89 467.27 522.89 464.42 523.5 462.72 525.17 462.45 526.84 461.08 531.04 463.02 530.95 465.96 534.7 469.53 537.25 470.6 538.55 471.05 539.56 473.04 540.39 473.55 543.06 473.49 544.98 472.35 548.69 474.34 552.07 475.11 552.52 478.18 552.04 477.4 555.54 478.01 556.85 478.74 557.01 480.06 558.31 479.89 561.66 479.48 562.16 479.12 564.49 479.64 565.42 483.42 565.57 484.07 566.08 486.61 565.16 488.1 563.63 490.41 565.87 490.72 566.86 492.03 567.4 492.35 570.22 492.7 571.16 492.28 572.31 492.08 574.1 491.28 575.03 491 576.43 491.38 577.76 492.93 578.79 495.53 583.24 497.37 585.86 497.99 590.69 500.08 590.82 501.27 591.82 504.89 592.85 508.76 592.39 509.37 593.03 510.16 591.61 513.13 591.35 514.28 591.7 515.33 590.31 518.3 589.34 521.33 587.93 522.83 587.79 526.1 588.15 528.33 589.59 529.49 591.24 530.48 591.46 531.44 591.13 532.48 591.37 533.88 593.54 537.01 591.97 537.64 593.51 538.83 595.08 541.82 594.33 542.58 594.46 544.02 595.68 547.75 595.32 550.79 594.53 552.86 594.78 554.77 594.59 556.79 595.29 557.84 595.97 558.82 597.18 561.35 597.86 563.26 597.78 566.62 596.69 568.11 594.06 571.35 590.11 574.69 590.29 576.52 589.73 579.21 590.39 581.5 590.17 583.8 589.74 586.29 588.54 588.04 587.42 591.82 586.38 593.94 584.63 600.37 585.98 602.77 588.94 603.38 590.07 604.84 590.65 607.78 591.46 608.18 592.21 609.58 593.62 612.13 595.35 614.14 595.22 615.04 594.77 616.62 594.52 617.8 593.78 619.28 592.15 620.9 591.13 624.5 591.12 624.35 590.36 624.58 587.37 626.15 582.96 627.5 581.29 633.77 570.45 639.79 566.58 645.21 562.89 646.52 561.82 651.53 558.28 652.24 557.89 653.68 557.98 653.77 559.75 654.46 561.31 654.31 562.92 655.26 566.46 655.27 567.91 654.87 569.03 655.36 570.6 655.31 573.33 655.84 573.61 656.99 572.82 657.42 571.24 659.48 572.55 661.35 574.67 661.17 577.87 663.44 578.53 665.61 580.26 669.73 580.25 670.24 581.17 670.97 584.74 671.86 585.48 672.54 586.61 671.47 587.19 670.79 590.15 670.8 591.82 669.4 592.92 668.71 595.55 670.79 597.78 671.45 598.85 670.75 601.06 671.54 602.82 671.56 603.95 670.88 606.06 669.86 607.05 667.81 609.96 669.84 612.72 670.12 613.79 671.85 614.94 671.79 616.65 672.14 617.17 673.52 617.19 673.96 618.61 675.13 619.46 677.27 620.6 679.23 620.84 679.79 621.54 682.09 621.08 682.84 620.47 685.5 620.7 686.19 620.25 688.17 619.9 689.41 620.14 690.71 621.88 692.55 621.62 693.07 621.88 694.86 621.72 696.14 622.42 696.94 623.24 697.91 623.59 699.56 625.59 701.87 626.44 702.89 627.44 704.62 627.29 707.38 628.56 708.62 630.64 710.35 630.93 711.58 632.15 712.27 633.34 713.7 634.19 715.97 633.29 719.42 633.11 719.93 632.43 723.82 631.27 724.95 631.06 726.05 631.9 728.06 632.83 729.72 632.9 731.51 630.7 733.17 631.15 735.31 627.75 738.61 628.67 740.12 630.71 742.09 630.55 743.73 631.56 745.05 631.53 746.65 632.48 748.13 634.01 747.71 634.82 745.96 635.86 745.26 639.55 746.86 642.03 746.29 643.22 747.19 645.34 746.33 648.76 746.7 649.73 748.94 650.13 750.86 651.04 752.7 651.06 754.94 652.57 757.49 655.94 757.75 657.32 756.97 658.54 757.6 660.51 757.49 663.04 758.88 664.76 758.81 665.97 759.44 667.31 761.78 668.01 764.06 668.47 766.02 670.48 765.73 671.94 766.01 672.85 767.71 674.92 768.8 677.96 771.98 680.95 772.81 684.53 773.55 685.85 776.06 688.18 777.23 688.36 778.03 689.3 778.85 689.45 778.79 690.41 778.02 690.56 778.8 692.24 778.14 693.05 778.37 694.34 779.09 695.5 779.43 697.05 779.23 698.37 779.49 701.07 779.2 702 779.44 703.49 781.2 705.23 782.66 705.04 785.4 707.21 785.66 708.39 786.62 710.16 787.22 713.53 786.93 713.94 786.59 718.32 790.16 718.58 791.03 720 791.55 721.87 791.06 722.71 790.57 726.46 789.72 728.3 790.16 730.39 791.42 731.74 791.93 733.23 792.58 733.91 794.65 735.05 798.29 738.99 798.66 743.84 799 744.14 798.49 746.9 798.46 748.64 798.72 751.1 798.28 753.34 793.66 752.69 791.22 753.22 788.41 758.35 789.42 763.94 790.27 764.58 791.53 766.62 793.43 768.92 792.07 769.93 791.7 771.69 790.82 773.28 788.46 775.47 786.18 779.16 784.56 782.45 784.99 783.82 784.44 784.77 784.95 789.91 787.18 790.87 788.11 791.62 789.79 793.62 791 795.87 793.17 796.25 796.78 797.92 797.07 801.17 795.95 804.01 797.77 807.43 797.27 808.61 797.64 810.45 797.7 815.81 795.75 814.25 793.28 811.78 790.89 811.59 789.43 808.05 787.66 809.23 784.69 808.44 780.27 808.2 779.52 810.46 778.22 812.05 776.08 809.17 773.25 808.38 772.85 805.6 771.54 803.48 770.8 801.03 768.89 800.68 766.95 798.85 765.63 797.02 763.58 794.74 761.48 795.06 760.18 792.58 758.05 792.78 755.02 792.07 752.94 793.14 750.39 794.12 748.55 795.97 747.54 799.05 746.82 800.18 747.46 801.93 747.31 803.46 749.01 804.26 750.64 805.81 750.17 811.65 751.22 814.45 751.17 818.05 752.09 820.24 751.96 822.6 752.09 825.97 751.53 827.15 752.85 830.85 752.72 833.92 751.21 836 748.8 839.71 750.22 844.73 748.36 846.17 745.58 847.24 744.65 848.38 743.55 848 740.04 850.99 739.42 854.01 737.95 857.51 735.37 859.56 735.56 860.8 732.86 860.88 731.29 862.59 730.5 865.42 727.5 866.05 723.17 865.43 718.84 863.57 717.13 863.4 712.49 863.72 708.99 865.55 706 865.21 702.4 865.68 699.44 865.72 696.45 863.7 692.48 867.07 692.77 870.33 693.89 875.26 693.15 878.36 691.48 881.11 689.4 883.86 686.44 888.77 682.46 890.95 681.48 894.16 679.95 897.19 678.54 901.85 676.87 905.02 677.49 908.6 677.66 911.64 679.63 913.42 681.8 916.6 683.57 921.29 683.11 923.46 683.82 925.96 684.35 926.89 684.42 928.25 685.28 931.3 684.34 934.15 686.97 937.72 689.21 939.9 689.28 941.11 690.21 941.95 691.93 945.71 693.61 948.14 694.02 951.34 693.23 952.73 690.46 956.71 687.66 957.26 687.05 957.82 685.73 957.81 683.62 963.81 683.67 964.52 682.7 968.4 680.93 968.23 679.59 969.23 677.06 972.66 674.32 972.77 671.64 973.12 671.68 974.71 670.75 978.68 670.38 981.47 671.03 985.9 670.99 989.14 671.93 991.98 670.87 994.34 670.28 996.56 669.12 997.92 668.68 999.17 667.81 1000.49 665.51 1003.2 664.45 1004.99 662.2 1006.84 662.79 1008.95 662.52 1009.2 662.8 1011.99 666.35 1016.85 666.36 1019.37 667.73 1021.23 667.5 1022.28 668.84 1026.55 667.98 1027.84 667.92 1029.62 666.34 1033.52 666.15 1035.79 666.62 1038.44 665.77 1040.24 664.9 1041.05 665.18 1042.08 663.47 1044.63 663.06 1046.27 662.52 1047.17 662.4 1049.79 660.41 1052.01 659.67 1053.76 659.11 1057.33 657.11 1059.33 653.06 1062.58 649.13 1064.49 646.49 1068.7 644.68 1071.07 643.72 1070.9 642.36 1069.32 640.25 1068.22 639.28 1066.5 636.68 1065.07 634.12 1065.93 630.87 1067.82 627.81 1068.75 626.85 1068.56 626.78 1073.68 627.65 1073.72 627.56 1075.91 626.35 1080.19 625.56 1081.54 624.24 1084.75 622.82 1086.49 623.68 1088.04 622.91 1089.04 623.49 1090.9 621.87 1093.63 621.74 1094.89 622.37 1096.36 621.77 1096.74 619.62 1096.96 617.36 1097.76 613.21 1099.49 610.21 1101.31 610 1102.43 609.04 1103.72 607.48 1103.89 605.3 1108.16 603.02 1111.39 601.51 1114.58 599.06 1113.76 598.35 1113.84 596.92 1115.34 595.2 1115.93 593.44 1115.72 590.91 1112.31 589.11 1111.47 588.5 1111.89 587.99 1113.57 588.07 1116.59 584.96 1118.98 582.93 1119.33 582.26 1120.14 581.99 1121.94 580.35 1123.5 579.17 1127.17 577.91 1127.77 576.09 1129.16 573.9 1129.47 571.59 1128.65 570.67 1130.58 570.01 1130.91 567.22 1131.2 565.31 1130.14 562.29 1130.29 559.94 1130.85 558.88 1131.83 557.06 1131.91 554.47 1132.77 552.38 1133.99 550.03 1133.91 547.49 1135.89 543.08 1138.46 541.62 1139.09 540.87 1137.69 538.33 1134.79 538.28 1132.34 536.76 1131.27 535.56 1129.6 532.39 1128.55 531.51 1127.45 531.22 1125.68 527.45 1125.93 526.09 1125.41 525.2 1126.03 522.64 1124.37 520.47 1121.85 519.51 1121.35 515.53 1122.25 514.89 1122.15 512.3 1124.35 512 1125.8 508.91 1128.66 506.71 1131.19 504.35 1133.51 504.82 1135.18 503.95 1135.66 500.59 1135.39 499.27 1135.7 496.01 1135.66 496.23 1137.11 493.86 1138.41 491.65 1141.67 490.67 1142.72 487.48 1142.57 485.91 1143.62 477.02 1144.66 477.72 1147.37 477.92 1150.81 479.84 1152.94 479.22 1153.85 476.87 1155.27 474.16 1157.75 472.94 1159.26 471.15 1162.32 470.79 1163.69 469.94 1163.72 468.35 1163.1 467.5 1163.13 464.22 1164.18 463.83 1164.65 461.63 1165.47 460.38 1166.69 460.04 1166.13 455.68 1162.3 446.86 1154.36 426.97 1164.8 412.7 1166.83 385.95 1170.79 321.97 1180.37 321.14 1211 292.26 1255 281.44 1250.4 279 1249.61 272.76 1246.98 270.78 1246.5 269.75 1245.85 269.07 1246.5 268.74 1248.01 267.71 1248.29 267.61 1247.19 268.19 1246.74 268.11 1245.68 266.54 1244.37 263.96 1243.28 263.52 1242.78 259.46 1241.08 254.61 1239.21 251.23 1237.71 244.99 1239.1 240.66 1239.06 228.93 1239.34 227.52 1239.29 226.02 1239.74 226.11 1240.96 222.9 1242.59 223.23 1244.92 222.49 1245.41 221.39 1244.39 222.48 1243.81 222.25 1242.93 222.79 1241.47 219.02 1241.53 218.78 1240.88 220.46 1240.91 221.77 1240.4 221.96 1237.15 223.49 1236.33 224.55 1236.39 225.75 1238.29 226.44 1238.55 227.86 1238.19 229.61 1237 231.27 1235.24 233.29 1232.31 233.89 1231.03 234.6 1228.1 234.68 1226.97 234.03 1223.69 231.54 1219.25 231.22 1217.51 231.6 1214.54 231.66 1212.69 231.38 1212.14 222.44 1209.22 199.24 1201.52 195.08 1200.18 191.8 1199.48 177.7 1199.01 168.84 1198.78 167.14 1198.92 166.67 1200.29 165.5 1201.03 164.16 1201.24 163.32 1200.92 162.82 1199.68 162.9 1198.3 151.95 1194.49 150.31 1194.81 150.55 1192.08 149.45 1189.59 147.09 1188.32 144.6 1188.43 144.02 1189.57 142.78 1190.34 142.38 1189.39 141.1 1189.46 141.08 1187.63 140.37 1185.78 139.04 1184.92 137.22 1184.84 136.84 1187.34 135.91 1188.84 133.62 1191.1 133.94 1192.2 133.82 1195.18 132.68 1195.52 130.31 1193.88 128.76 1191.82 127.48 1189.31 127.35 1188.33 128.5 1185.37 129.22 1184.63 130.79 1184.41 131.42 1183.55 133.05 1183.38 134.22 1184.35 135.32 1182.64 136.23 1182.37 136.51 1181.53 134.79 1179.43 133.45 1179.43 132.4 1178.58 131.36 1178.48 130.82 1179.49 129.3 1178.99 128.34 1179.09 127.63 1180.04 126.39 1180.92 126.14 1181.93 125.38 1182.8 122.58 1183.76 120.93 1183.63 119.44 1182.87 118.46 1182.96 117.76 1182.31 116.81 1182.81 116.34 1181.73 117.91 1181.05 117.7 1179.42 116.54 1176.45 115.92 1175.35 115.11 1175.94 101.95 1181.62 101.56 1179.57 82.08 1079.3 72.51 1018.68 68.23 923.53 71.99 917.86 71.88 881.05 70.84 870.3 70.56 868.85 65.94 854.85 65.24 851.86 65.15 850.3 65.51 846.96 65.58 841.01 65.38 840.04 63.3 836.77 53.97 843.26 51.63 840.22 50.49 838.41 49.61 836.51 49.4 834.45 49.68 831.33 50.57 831.33 55.53 827.34 56.14 827.27 64.24 823.83 64.52 823.58 71.11 799.12 77.2 800.7 76.98 798.75 76.09 798.6 74.6 796.26 74.41 795.37 74.84 791.42 71.43 791.42 71.94 790.69 74.32 788.81 75.94 786.62 76.17 782.8 76.7 780.83 76.41 776.73 76.59 776.03 78.41 773.33 78.71 772.14 78.7 770.47 79.97 768.5 79.89 767.17 81.99 762.6 81.86 759.63 80.77 756.17 79.62 755.13 78.43 752.54 78.66 751.22 79.55 749.49 79.63 747.44 79.41 745.84 79.54 743.8 78.98 741.13 78.11 739.45 77.18 736.17 77.08 732.69 76.87 730.54 79.68 723.73 81.46 722.84 83.45 722.23 84.15 719.99 86.75 718.81 87.03 717.99 87.51 714.04 88.91 711.99 89.45 710.57 89.72 708.96 89.38 706.72 88.42 706.26 89.01 704.69 90.32 704.55 90.79 705.11 92.06 705.31 91.93 704.33 93.01 702.94 93.48 701.73 92.65 701.52 93.14 700 94.13 700.08 95.73 698.92 96.65 699.78 97.93 699.54 99.14 700.2 99.85 699.8 98.67 698.17 93.22 695.26 87.5 688.1 86.23 686.08 84.96 677.87 84.57 676.3 78.18 668.05 78.93 667.49 76.49 664.26 62.4 648.36 53.28 632.47 46.07 622.27 51.83 618.74 51.44 617.8 52.09 616.61 51.67 615.8 51.56 614.29 51.88 613.72 48.96 611.97 48.29 611.05 46.69 610.97 45.88 610.1 45.88 608.95 39.53 603.61 38.08 602.92 37.71 601.37 34.7 600.11 34.18 599.43 34.8 598.69 33.39 595.08 33.53 594.68 30.54 585.96 29.26 585.96 28.21 587.45 24.62 588.12 24.05 586.61 26.46 585.99 25.65 580.23 26.26 580.03 26.09 578.81 25.53 577.97 24.11 577.4 23 575.11 23.79 574.02 25.88 573.44 26.17 572.52 25.92 571.49 26.99 570.21 28.41 567.38 29.88 563.95 31.54 564.02 31.42 563.2 29.96 562.19 28.92 560.32 29.37 558.75 25.23 559.3 24.05 558.53 21.54 558.94 19.49 557.9 19.79 555.75 19.51 555.17 17.67 554.64 16.68 555.26 14.14 555.53 13.24 553.96 11.99 552.55 10.29 551.42 10.37 547.91 10.04 547.16 7.97 545.85 7.63 544.69 6.45 544.61 5.8 544.09 4.37 544.14 3.92 543.42 1.11 543.06 1 542.47 2.43 540.49 6.07 539.53 8.28 538.51 12.8 535.37 13.23 534.69 15.73 532.72 17.44 531.15 18.96 530.08 21.51 527.23 22.45 525.8 22.63 524.76 20.26 516.56 18.82 516.45 17.77 517.45 16.81 517.77 14.73 516.47 11.6 516.86 11.38 515.49 11.82 513.78 13.67 513.55 16.14 512.72 17.28 513.49 17.2 514.55 18.37 515.21 20.27 514.83 21.52 514.12 23.32 512.37 23.98 511.39 24.15 509.9 23.74 508.95 22.85 508.3 23.12 506.06 22.32 504.94 22.13 503.84 22.78 502.35 22.06 501.18 22.53 499.67 24.22 499.98 28.13 497.74 28.61 496.36 28.59 493.69 29.57 492.57 29.48 488.57 30.16 487.54 31.65 486.11 33.79 485.15 35.64 483.95 36.75 482.94 38.25 480.95 39.16 480.91 41.2 479.81 42.17 479.86 41.62 481.34 42.9 483.42 47.09 485.57 48.19 485.38 48.83 484.62 49.81 484.85 50.09 486.53 50.71 487.43 52.73 488.5 53.89 488.66 57.24 488.54 60.54 488.9 61.87 488.39 63.2 487.28 64.16 485.5 67.35 484.46 69.72 485.18 70.81 485.86 72.63 486.52 76.35 486.49 76.96 486.98 77.23 488.32 76.61 489.44 73.94 491.34 73.4 491.95 73 494.41 72.03 495.05 70.75 501.6 71.65 502.28 71.53 508.03 71.05 509.28 70.19 509.57 68.62 511.31 67.95 513.18 67.94 514.51 67.11 516.32 65.61 516.65 66.21 519.88 65.99 520.82 64.9 522.23 63.84 523.11 64.6 524.72 65.2 527.52 66.08 529.4 65.84 530.12 66.49 531.09 71.13 537.27 71.97 537.39 73.95 536.87 75.62 537.08 77.88 536.81 78.26 537.89 79.29 539.43 79.57 541.39 79.06 545.04 79.32 545.61 80.89 545.75 82.15 545.04 83.57 545.71 84.04 547.2 83.15 549.53 82.38 550.94 82.38 552.05 83.94 552.95 84.89 551.62 85.65 551.24 86.48 553.52 86.06 555.29 86.87 556.74 86.65 560.3 86.06 561.76 86.39 562.92 88.98 564.79 89.59 566.04 91.64 567.24 91.99 567.87 92.2 569.93 93.54 571.03 95.61 571.31 96.79 572.09 96.99 572.95 100.32 572.29 106.12 574.07 107.46 574.64 110.92 576.75 112.26 575.06 113.51 574.69 115.01 575.07 115.91 575.87 116.63 577.57 117.07 579.63 118.11 579.43 118.51 576.07 119.27 574.22 118.84 571.72 119.04 569.78 119.61 566.74 118.28 564.75 117.17 564.19 116.48 562.21 115.7 560.68 114.03 559.37 112.36 556.53 111.87 555.05 109.79 553.67 108.14 552.11 107.79 551.22 105.52 549.78 103.94 547.09 104.46 543.94 104.52 542.6 103.74 540.93 103.5 539.46 102.65 536.82 102.52 535.26 101.8 533.9 101.71 532.53 100.71 531.38 100.49 530.2 98.42 528.11 97.94 526.58 97.36 525.81 97.02 524.24 96.52 523.59 97.01 522.82 98.58 522.8 101.34 522.21 101.97 522.36 113.45 517.74 113.4 516.97 114.18 516.23 115.62 513.39 116.02 510.72 117.18 509.71 117.37 508.83 119.15 506.81 120.23 504.36 120.27 501.22 121.08 500.43 122.41 499.82 124.91 498.09 126.34 498.32 127.2 498.02 129.48 498.56 130.66 497.71 131.5 490.73 132.77 481.1 134.4 467.14 132.96 466.96 131.81 466.4 131.72 465.69 132.64 463.61 132.7 462.68 132.23 461.35 130.83 460.35 130.35 459.28 129.38 458.29 129.44 456.45 129.15 455.4 127.03 453.62 126.22 453.26 125.34 452.05 123.87 451.7 120.84 451.93 120.35 450.25 120.59 448.28 119.95 446.85 117.6 444.77 116.72 444.49 117.46 442.67 117.02 441.94 118.05 440.85 118.89 440.56 121.4 438.56 122.29 437.36 123.82 436.36 125.79 434.48 126.43 434.84 126.64 436.26 127.28 437.01 128.38 437.11 130.67 436.58 134.22 434.43 135.54 435.15 141.62 433.89 140.83 432.47 141.58 431.14 141.85 428.87 141.47 427.89 141.97 426.85 143 426.42 144.45 426.66 146.27 425.78 148.55 425.78 149.22 425.34 150.8 425.51 151.78 425.07 154.28 425.55 154.91 425.98 158.72 425.83 159.35 426.07 160.92 425.48 161.45 426.42 163.82 428.94 166.89 429.56 167.58 430.24 169.89 429.52 172.66 429.3 174.94 429.93 175.62 430.64 177.27 431.09 178.49 429.95 180.78 429.25 182.01 429.48 182.63 430.22 184.57 429.73 188.29 430.31 190.01 429.88 192.38 430.26 193.14 430.77 195.69 430.46 197.37 429.15 198.1 427.41 200.37 421.11 200.43 420.67 199.17 419.38 198.65 418.34 196.46 418.19 195.71 417.58 194.51 413.33 192.97 411.88 191.7 411.91 190.67 411.2 189.39 410.81 186.91 408.62 184.18 406.61 180.93 404.55 179.94 404.23 176.91 404.65 175.55 404.56 167.96 403.71 166.67 405.27 166.62 406.43 166.06 406.79 164.71 405.27 163.36 404.73 162.51 404.96 161.8 406.48 160.95 407.11 159.09 406.26 160.42 405.25 161.2 403.32 160.46 400.24 158.65 399.29 157.09 397.15 156.53 395.23 156.8 394.59 158.46 395.22 159.17 396.11 159.99 395.58 160.66 394.11 162 394.29 162.63 393.28 163.37 393.21 163.56 394.41 164.38 394.33 167.57 396.35 169.16 396.35 170.31 399.13 170.29 400.67 169.75 402.64 169.86 403.38 170.72 403.75 173.24 404.13 177.2 404.45 179.48 404.08 180.63 404.19 184.13 406.31 188.67 409.77 189.72 410.26 191.03 408.05 192.8 403.05 192.16 400.64 191.08 399.74 192.64 397.83 193.09 396.43 191.9 394.67 192.25 393.77 194.26 394.05 196.96 395.46 197.87 395.26 199.33 394.08 201.98 395.89 203.21 397.42 206.43 399.16 209.87 400.51 211.95 400.56 213.18 400.14 214.4 398.86 215.01 395.79 215.49 394.54 215.68 392.5 214.72 390.77 214.93 388.76 214.31 387.73 212.96 386.65 213.41 384.53 213.47 382.22 212.91 381.72 213.13 380.54 214.17 380.89 214.51 382 216.16 382.55 217.59 383.9 218.67 384.36 221.51 384.04 223.26 383.36 225.01 382.17 225.86 382.71 227.01 384.35 226.3 386.69 227.79 389.91 229.97 390.53 232.26 392.24 233.1 392.43 235.23 392.03 236.85 390.79 243.6 383.33 243.23 382.56 243.45 381.09 242.79 379.54 244.09 379.73 243.9 380.54 244.75 381.49 245.21 383.08 246.25 383.37 247.71 382.95 249.94 381.47 251.24 379.68 252.98 376.57 253.51 375.14 254.55 373.58 256.42 373.71 255.74 375.91 257.12 376.62 257.69 378.61 259.31 378.25 260.86 378.32 262.77 378.79 264.22 378.37 270.52 378.77 271.35 378.96 272.31 378.38 274.74 377.72 275.22 375.28 278.16 371.18 277.56 370.33 277.23 368.37 276.87 368.04 277.54 364.97 273.84 364.29 270.1 359.9 266.29 354.27 264.3 353.78 251.97 354.9 251.17 354.35 243.76 355.17 240.52 354.33 239.53 352.31 237.32 350 236.26 350.75 233.92 351.47 232.67 351.35 231.68 349.9 229.3 348.73 226.52 349.66 223.67 349.42 223.15 348.83 222.39 347.01 222.38 344.54 223.5 344.24 224.38 343.11 225.03 342.98 226.47 341.2 226.68 339.5 227.83 337.91 229.17 338.42 230.49 336.58 230.72 335.57 230.1 333.25 230.13 332.57 228.52 332.09 225.93 332.54 224.84 331.63 222.77 330.64 223.05 326.95 225.06 326.41 225.57 325.6 225.51 324.4 224.27 322.17 223.48 321.64 221.82 319.42 220.45 318.54 217.57 318.14 215.92 316.86 214.66 316.92 214.11 317.95 212.92 317.59 213.38 316.83 212.23 314.08 212.23 312.82 213.23 312.81 212.53 310.42 214.39 310.01 215.3 310.44 216.42 310.34 217.67 310.95 217.69 311.72 218.96 314.44 219.82 314.84 220.86 316.09 222.9 317.24 225.13 317.24 227.95 316.35 232.58 315.93 234.95 316.61 235.73 315.05 235.72 312.42 235.96 311.65 238.61 308.76 238.86 307.62 239.57 306.58 240.58 306.18 242.81 306.04 243.5 305.61 245.61 300.69 247.6 296.49 249.25 294.8 251.9 293.66 249.65 290.03 247.87 288.58 247.62 286.85 248.86 284.34 250.67 281.77 249.85 278.36 249.35 274.55 249.56 273.97 248.08 270.6 248.03 266.86 246.59 265.65 246.24 264.46 246.92 262.69 244.81 263.97 245.58 275.07 245.59 276.7 244.84 278.35 241.32 280.95 240.18 281.53 239.51 281.33 235.24 277.93 233.9 276.73 228.53 272.55 225.29 269.81 222.3 267.58 220.14 269.23 218.89 269.68 218.72 271.05 218.9 273.21 220.44 274.08 222.92 273.14 223.54 274.09 222.99 275.17 222.05 275.33 218.5 273.96 217.44 274.11 216.49 274.79 215.26 277.46 214.67 278.05 212.83 278.25 208.99 277.81 206.09 277.75 203.1 277.47 201.78 276.58 201.62 275.5 202.91 273.75 202.92 272.75 202.26 272.44 201.87 271.13 203.15 269.92 201.47 269.95 200.29 269.63 197.35 268 195.88 269.73 194.18 269.87 192.64 269.09 190.85 271.13 189.36 272.21 189.83 273.07 189.58 274.88 187.64 275.4 186.91 276.47 185.89 277.01 185.1 278.02 185.73 279.34 185.57 281.2 186.06 281.81 184.94 283.19 184.85 283.81 183 284.83 182.18 286.74 179.65 286.13 178.97 290.06 177.6 293.68 176.16 294.58 175.21 293.72 175.16 292.41 176.13 290.87 176.23 290.17 177.45 289.56 178.68 289.38 179.32 285.73 176.86 282.51 176.17 280.43 174.76 278.49 173.38 278.72 171.93 277.78 171.77 276.94 170.27 276.47 168.19 276.14 166.77 276.21 164.05 275.57 166 275.06 166.48 274.32 166.5 268.18 166.85 266.17 161.15 263.03 160.57 263.7 161.26 265.09 159.53 265.72 157.53 260.89 160.1 257.94 160.29 255.37 160.15 254.2 159.37 252.49 160.32 250.51 159.58 248.84 158.04 244.34 157.72 242.92 158.17 241.36 157.7 239.08 157.05 238.55 155.75 239.9 153.44 241.28 150.28 241.42 146.94 241.05 145.43 243.32 144.2 243.8 144.71 242.31 144.89 240.61 143.22 238.38 142.28 237.83 140.52 236.09 140.44 235.55 139.07 234.45 136.47 234.58 127.23 234.74 125.75 235.39 124.57 236.94 123.1 236.75 120.42 240.25 119.32 241.2 119.76 242.16 119.71 244.84 120.35 245.48 120.5 247.05 119.52 247.5 118.64 248.69 115.41 249.05 113.46 249.42 111.52 250.79 111.4 252.85 109.3 254.42 109.01 255.52 107.62 258.57 106.91 258.7 105.67 257.82 104.46 256.11 102.53 252.36 101.42 251.55 100.08 251.65 99.5 250.78 99.64 249.79 101.06 249.28 101.75 247.2 102.49 244.01 102.57 241.56 103.53 239.09 106.51 233.4 107.13 232.68 109.16 232.36 111.74 229.76 111.57 228.23 112.5 226.54 105.42 217.84 104.64 217.01 103.9 217.59 102.67 217.8 102.32 218.96 101.03 219.93 99.53 220.66 98.65 219.62 96.41 218.14 95.52 218.59 95.23 219.8 93.39 222.89 91.71 222.2 90.3 220.73 86.86 218.43 86.47 217.62 87.41 215.5 88.65 211.05 88.82 208.73 88.17 205.21 88.01 199.85 87.72 197.29 86.51 194.48 84.93 191.99 83.86 191.09 82.52 190.84 81.12 191.16 75.39 192.03 70.29 192.93 68.28 193.55 66.63 195.51 65.63 196.03 61.78 195.63 56.79 194.13 55.24 194.2 53.99 194.68 52.17 196.14 50.48 195.92 47.03 191.93 44.74 192.58 44.82 193.87 44.03 194.06 44.21 192.32 45.67 191.85 44.91 190.04 44.91 186.63 45.39 184.23 46.34 181.33 47.39 180.44 47.62 179.69 48.86 179.32 50.62 177.28 52.41 174.43 53.4 171.34 53.35 169.51 52.8 168.48 51.34 168.35 49.83 167.69 49.04 167.79 48.59 166.64 48.55 165.06 46.51 163.85 46.64 161.86 47.83 161.78 48.37 160.45 47.86 160.16 47.65 158.37 48.39 157.68 48.55 156.48 50.02 156.14 50.79 156.66 50.78 157.59 49.84 158.25 50.43 159.83 51.06 162.45 52.25 165.17 53.5 166.06 54.58 167.68 54.17 168.15 54.8 171.46 55.59 171.31 55.62 170.23 58.72 172.04 60 172.23 63.72 172.25 64.9 172.08 66.72 172.64 67.7 174.01 68.38 175.58 69.49 176.37 70.89 176.16 71.84 176.42 74.1 175.39 76.24 176.34 77.66 175.65 79.7 176.06 81.23 175.4 82.43 174.48 83.8 173.86 85.54 172.14 87.48 170.65 90.02 170.13 93.43 170.31 94.85 170.61 96.18 170.53 98.01 169.91 99 170.18 100.81 169.95 102.06 170.51 103.67 171.9 104.47 172.14 106.69 171.73 108.89 172.47 110.4 172.67 111.47 172.31 113.11 171.17 114.34 170.64 114.98 171.97 116.53 172.04 117.68 172.86 120.03 176.95 121.61 177.23 122.6 178.16 123.29 179.77 123.27 180.59 124 181.22 124.82 183.26 126.18 183.02 127.25 185.6 127.29 186.53 126.73 187.12 126.45 189.35 125.64 190.55 126.61 191.82 132.54 195.77 134.26 194.65 135.17 193.59 137.35 192.03 139.48 191.02 140.9 189.91 146.18 181.76 144.17 179.27 143.71 177.49 145.05 174.43 146.25 172.99 148.11 171.62 150.17 172.18 152.84 172.55 153.94 172.5 158.88 170.05 166.07 171.7 167.36 170.76 168.04 171.48 167.72 172.69 168.98 173.58 169.38 174.37 171.56 174.23 175.77 168.33 174.8 167.28 173.51 163.75 173.72 162.03 173.08 160.41 170.95 156.91 165.26 155.14 164.63 155.06 163.54 155.78 163.22 157.53 162.38 158.54 161.06 159.39 157.34 158.26 152.56 157.98 152.1 158.48 151.12 158.08 149.2 157.93 148.19 157.2 147.45 155.72 145.97 155.18 145.75 151.88 147.46 150.33 149.11 150.11 149.75 149.04 150.57 148.49 151.78 145.56 152.14 142.53 152.67 141.23 153.71 140.34 155.29 137.31 157.63 137.08 156.37 134.02 155.98 133.78 150.04 135.81 147.64 135.85 146.52 135.41 144.88 133.87 142.98 130.19 133.39 130.14 132.6 132.29 131.37 133.64 129.89 134.7 128.62 134.5 128.28 135 125.73 137.11 125.07 138.35 124.05 138.33 121.96 139.27 121.19 140.87 119.82 140.02 118.51 139.93 117.4 137.79 116.14 138.26 115.53 135.91 115.76 133.78 116.66 133.11 115.88 131.11 115.2 130.16 113.83 129.18 111.75 129.09 109.41 129.69 107.73 129.92 104.84 129.88 103.02 129.69 104.15 130.87 107.08 130.98 110.1 130.67 110.67 131.12 110.32 132.43 108.95 132.34 106.98 133.19 106.32 133.02 104.05 133.83 100.26 136.22 99.68 137.05 98.72 136.49 98.66 135.61 97.04 134.73 94.85 134.06 93.12 133.28 92.27 133.46 90.61 133.06 88.44 132.17 87.92 132.56 87.11 135.91 85.94 134.39 86.02 133.35 84.14 132.39 82.04 132.13 79.23 131.29 77.38 130.46 77.38 129.35 75.54 128.23 74.71 128.24 74.31 127.41 73.02 127.05 71.01 125.58 68.83 124.52 66.53 124.23 62.84 122.59 60.93 121.59 60.41 122.2 59.01 122.03 57.93 122.27 55.61 123.83 54.32 123.12 53.79 121.62 54.4 120.92 53.62 120.32 52.25 120.45 48.66 121.8 45.77 122.35 44.8 122.87 42.38 121.98 40.56 122.7 40.11 121.63 39.23 121.57 38.67 119.42 37.33 118.34 36.43 115.96 35.73 114.89 35.32 112.37 33.13 109.92 33.46 108.69 32.32 105.69 33.08 103.82 31.74 101.27 32.12 100.48 31.72 98.77 30.68 97 31.06 95.32 32.27 95.07 32.76 94.36 32.89 92.57 32.52 91.07 31.44 90.33 29.89 89.77 30.44 88.83 30.03 86.9 31.46 86.69 31.93 84.43 32.67 84.36 32.92 82.95 31.96 82.5 32.41 79.45 33.13 78.91 35.78 78.25 38.13 80.82 40.69 85 43.9 87.95 51.37 84.31 53.38 83.22 54.79 82.81 58.34 80.96 65.4 77.46 70.02 75.3 70.06 73.16 71.23 72.61 71.77 73.58 72.76 73.91 90.42 65.14 91.01 63.96 90.04 62 90.63 61.69 89.17 58.73 91.87 56.21 93.05 57.28 93.58 56.49 94.49 56.4 95.2 56.96 96.57 56.54 97.19 55.07 99.04 53.91 99.47 52.03 100.06 51.05 98.31 49.66 98.6 48.6 99.86 48.23 100.33 47.25 100.11 46.39 101.57 44.91 102.8 44.39 104.17 44.37 106.33 43.06 107.18 43.14 108.67 45.93 109.68 46.23 109.81 51.46 110.1 58.54 111.52 57.84 111.78 59.25 112.75 59.48 128.78 56.46 134.49 55.43 144.39 53.87 155.36 51.89 158.36 50.11 160.88 48.42 164.11 44.14 163.83 43.1 165.33 40.43 167.3 40.81 168 41.88 167.93 43.49 168.23 44.66 169.36 46.69 169.99 47.04 172.44 46.5 172.13 44.46 172.75 40.73 172.42 38.74 171.32 38.76 169.89 37 170 35.92 170.65 35.09 172.09 35.01 173.91 35.58 174.54 36.93 174.54 38.54 173.36 39.34 173.35 41.16 172.89 43.45 172.97 45.15 174.42 45.63 176.15 44.87 177.45 45.25 189.91 44.78 190.3 44.35 191.58 44.73 199.13 44.53 199.13 29.44 216.71 25.73 227.91 30.25 226.96 32.79 223.91 39.91 226.49 39.91 227.27 38.83 232.26 38.8 232.2 37.35 233.22 36.26 244.93 35.82 245.01 35.36 244.78 28.96 246.17 27.41 246.65 27.4 252.61 21.43 252.45 21.96 246.81 27.63 245.59 28.99 245.75 34.41 246.67 34.36 246.76 35.71 248.8 35.6 264.43 35.08 276.7 39.58 276.91 39.83 275.7 43.24 291.96 49.15 291.59 50.57 289.31 56.93 294.22 57.75 296.24 58.66 299.39 58.64 300.7 58.38 302.55 58.95 304.93 58.91 307.32 59.48 309.92 59.62 311.08 60.09 314.01 60.61 315.04 61.28 316.58 61.41 319.63 62.56 321.51 59.64 322.72 59.04 326.3 59.44 325.93 60.12 322.76 59.75 322.06 60.15 320.73 61.9 321.82 62.38 327.2 66.28 326.74 66.92 328.39 68.11 329.11 68.03 327.54 70.51 327.93 71.77 328.01 74.11 328.89 74.54 328.86 77.51 329.09 79.65 330.02 81.76 330.57 81.59 331.51 83.25 333.24 82.25 332.49 80.4 333.65 80.45 333.89 81.15 340.77 77.04 352.66 70.24 Z M 173.68 1 175.62 1.03 176.72 1.75 176.75 2.87 177.31 3.31 177.32 4.69 176.49 6.77 176.44 9.66 175.68 10.25 174.28 10.64 173.48 11.24 173.22 12.2 172.07 13.28 170.14 13.63 169.46 15.22 168.13 15.55 166.87 14.66 165.71 14.63 165.56 13.52 164.25 13.35 164.31 11.89 167.14 9.21 167.08 8.62 169.03 8.2 169.4 8.66 170.49 7.21 170.05 6.68 170.08 5.47 170.94 3.67 171.02 2.47 172.36 2.45 173.68 1 Z" fill-rule="evenodd" id="34050000"/>
</g>
</svg>