<?xml version="1.0"?>
<svg xmlns="http://www.w3.org/2000/svg" version="1.2" baseProfile="tiny" width="800" height="782" viewBox="0 0 800 782" stroke-linecap="round" stroke-linejoin="round">
<g id="sigung">
<path d="M 485.35 16.49 485.29 16.78 488.22 20.85 489.9 24.11 490.56 27.91 491.22 30.09 491.33 31.31 491.2 35.02 490.01 35.83 489.79 36.55 490.46 38.14 491.91 38.57 492.77 40.02 494.68 42.12 495.26 44.78 496.15 45.2 499.56 48.06 499.9 49.92 499.32 52.45 499.5 55.3 500.09 56.31 499.1 57.73 498.35 59.72 498.49 63.98 499.78 66.84 499.67 67.56 500.37 68.97 500.91 70.87 501.27 74.32 500.94 77.08 502.21 82.59 502.11 83.78 502.33 85.8 502.11 86.7 502.33 88.43 502.83 89.93 502.84 91.31 503.25 91.98 503.5 94.99 504.63 96.08 504.48 98.01 505.64 99.84 506.43 104.53 506.22 105.54 506.53 106.53 506.61 109.4 504.96 111.8 504.3 113.68 503.31 118.28 503.11 121.17 499.1 129.06 497.2 130.27 498.72 135.98 498.74 138.01 500.16 140.47 500.54 144.02 500.3 146.37 498.81 149.67 498.35 154.46 497.76 155.61 497.06 157.74 495.6 158.44 493.52 162.43 493.31 165.25 491.32 166.53 489.56 171.21 488.23 172.49 488.17 177.25 487.93 178.84 486.93 180.24 487.53 182.19 487.38 183.55 487.56 185.09 488.14 186.22 488.54 187.84 490.55 190.6 490.94 191.92 491.11 194.88 492.22 196.51 493.34 197.51 493.24 199.24 491.97 201.91 491.81 203.5 489.39 205.11 488.77 206.34 488.83 207.72 489.74 209.76 489.6 211.02 491.12 211.98 491.73 212.77 491.42 215.5 490.73 216.47 490.91 217.2 489.97 219.03 487.72 220.75 485.76 222.93 485.71 225.15 487.14 226.04 490.01 228.41 491.97 230.9 494.1 232.24 494.79 233.45 496.27 238.34 497.69 245.98 497.24 248.41 497.82 251.56 500.1 251.19 505.98 248.61 507.21 248.42 508.2 248.95 510.01 247.87 511.93 248.37 512.51 247.88 515.6 246.38 515.38 245.05 513.45 242.11 516.24 239.74 516.45 238.78 517.51 237.13 518.04 235.75 519.39 234.38 520.47 232.27 521.22 232.87 523.5 231.78 526.2 231.12 526.75 230.71 528.29 227.75 530.31 227.73 533.13 224.84 535.35 223.97 537.46 223.85 538.23 221.67 539.31 221.15 539.76 220.15 542.46 220.24 544.43 222.69 544.87 223.75 546.38 224.99 546.97 226.11 548.4 227.29 550.4 227.18 551.07 227.89 550.45 229.82 552.53 230.12 554.12 231.03 555.08 231.23 556.04 232.67 557.21 233.7 557.58 234.46 557.71 238.91 558.18 239.82 557.97 241.62 561.13 240.06 561.43 239.09 562.87 238.01 563.67 238.57 563.79 241.02 565.86 241.68 568.72 240.56 574.53 239.37 575.82 239.44 576.9 238.93 579 241.02 579.06 242.79 578.64 243.81 578.8 245.01 579.48 245.81 579.34 247.07 579.7 248.01 579.67 249.17 580.5 252.07 580.31 253.78 580.51 255.48 580.05 256.53 580.53 258.32 581.21 259.23 581.41 260.4 581.98 261.33 581.19 262.37 581.01 263.62 580.18 264.76 579.89 266.04 579.77 268.89 583.59 271.15 584.1 272.16 585.25 272.57 585.77 274.03 585.6 274.8 585.69 277.89 584.81 279.31 584.44 281.49 584.82 283.78 585.85 285.66 585.25 286.44 585.21 287.51 584.75 288.65 582.68 290.45 583.19 294.23 587.7 293.59 589.14 294.63 590.32 296.8 590.84 297.08 591.93 300.39 593.25 301.33 595.37 302.37 597.76 304.5 599.05 305.04 599.84 305.76 600.55 305.36 602.19 305.18 603.59 304.53 604.89 303.25 605.35 301.9 606.57 301.25 606.91 300.63 609.06 300.63 610.63 299.45 612.44 299.95 613.93 299.54 614.33 298.75 616.25 298.11 617.32 298.22 619.38 297.82 622.18 297.96 624.22 298.85 626.1 298.63 627.02 297.77 627.23 296.75 628.66 296.05 630.31 294.89 631.19 295.78 632.49 294.14 635.31 292.89 637.47 291.06 639.71 288.78 639.58 286.31 639.31 284.79 639.58 283.52 640.49 281.95 641.21 281.33 643.04 278.74 644.36 276.61 645.26 276.4 645.73 275.38 646.66 274.86 647.99 275.26 649.38 274.37 650.57 274.4 651.71 274 654.1 272.45 655.59 272.79 656.84 272.38 658.08 273 658.69 274.53 659.91 275.02 660.37 274.71 662.41 271.19 661.88 270.33 661.61 267.71 664.09 266.71 666.96 266.52 668.81 267.09 671.38 267.1 672.36 266.72 673.11 267.47 674.26 266.08 674.71 266.79 677 267.55 679.63 266.68 677.69 269.6 677.16 270.13 678.23 272.51 678.14 273.51 680.12 275.04 682.05 276.89 680.62 278.37 681.18 280.1 681.31 282.87 682.83 285.32 683.54 285.62 683.32 287.66 683.76 288.5 683.23 289.51 683.94 291.1 681.09 293.71 680.95 294.47 682.63 294.32 683.74 295.59 686.1 296.45 688.71 296.84 689.88 297.85 690.87 297.55 693.13 297.46 693.47 298.78 694.24 299.55 695.1 301.42 695.12 302.32 696.51 303.06 696.99 305.14 697.68 306.25 698.45 306.58 699.54 308.13 701.19 308.79 702.3 309.83 704.63 310.99 705.24 312.38 706.17 313.34 705.96 314.35 706.52 315.56 705.78 317.69 704.87 318.16 704.4 318.97 703.15 319.44 704.17 320.87 705.68 321.95 706.37 323.27 706.49 324.34 707.14 325.58 707.03 326.88 707.58 328.01 707.58 329.76 709.91 330.14 712.07 331.6 712.57 332.17 714.85 332.83 716.15 334.23 718.28 334.8 719.66 334.91 721.94 334.58 724.75 334.67 728.07 333.2 729.64 331.06 730.67 329.33 730.39 326 729.39 323.06 729.31 321.67 728.58 318.33 729.46 315.68 729.81 312.92 730.32 311.08 731.89 311.36 730.67 312.47 731.09 313.08 733.22 313.96 733.54 314.92 735.26 317.82 736.78 321.12 737.5 321.61 738.37 320.79 739.26 323.06 739.95 323.3 740.98 324.36 742.16 325.1 744.12 325.57 748.11 329.18 748.37 329.8 750.45 330.33 751.45 330.22 752.73 331.64 755.22 331.63 754.94 332.93 755.84 334.01 756.81 334.47 757.92 336.09 758.8 338.54 759.65 339.77 759.82 340.83 760.69 343.04 760.59 344 762.5 346.79 763.52 349.82 764.65 350.75 766.99 351.25 767.95 353.48 770.12 354.75 771.42 356.83 771.47 358.18 769.6 360.21 769.33 361.9 770.39 363.31 770.54 364.54 770.07 365.21 770.37 367.05 769.95 369.5 771.25 370.6 772.34 372.04 772.69 374.44 774.44 376.47 775.26 379.57 774.42 382.79 774.94 384.11 776.34 384.9 777.02 385.71 778.26 385.14 779.21 385.16 781.21 384.37 784.07 383.82 786.58 383.08 789.55 386.21 790.29 387.98 790.4 389.35 791.77 390.23 793.97 390.77 795.41 390.27 796.77 391.66 798.95 392.63 798.74 394.13 799 395.01 795.02 397.9 794.87 398.23 795.48 400.25 795.8 403 795.69 405.22 792.94 406.59 792.52 408.36 792.61 409.39 790.49 410.92 791.48 412.35 792.88 412.94 794.65 414.25 794.81 415.11 794.49 417.77 794.65 419.31 793.44 421.06 793.38 422.21 794.4 423.22 794.45 426.18 795.43 428.39 795.44 432.93 795.22 435.14 795.42 437.67 794.89 439.39 792.41 440.62 791.47 441.92 791.08 443.06 789.74 444.36 789.5 446.2 789.59 447.64 788.77 450.21 788.76 452.2 788.43 453.73 787.43 456.16 786.43 456.4 785.62 457.38 783.48 458.57 782.7 460.53 784.68 462.81 784.16 464.29 782.59 466.35 781.47 467.14 780.11 468.6 778.71 470.61 777.25 470.98 776.37 472.16 774.62 472.51 772.1 474.18 771 474.4 770.48 475.21 769.45 475.54 768.86 476.63 768.9 477.45 770.38 480.6 771.59 481.12 772.34 482.03 772.37 482.79 771.9 487.89 770.1 490.37 770.7 491.4 770.97 494.06 766.28 495.2 766.79 497.67 766.55 499.55 764.88 501.26 765.06 502.23 766.23 503.61 765.48 505.18 766.87 506.57 768.14 510.73 768.09 517.69 765.56 521.65 764.79 523.87 765.5 525.53 769.66 529.29 770.9 532.63 773.35 537.65 775.79 546.93 775.75 549 775.09 550.77 775.54 553.5 774.29 556.05 773.83 558.99 774.15 561.95 773.11 564.19 773.8 565.81 772.86 566.91 773.92 569.47 775.23 571.02 775.7 574.72 775.52 575.48 775.79 577.36 775.9 580.42 775.02 581.47 774.16 584.87 774.03 587.05 775.1 589.77 775.36 593.84 775.16 596.19 774.39 598.29 775.09 600.09 773.43 603.24 771.07 604.08 770.4 605.66 767.36 607.81 767.9 609.86 766.84 611.9 766.14 617.29 765.48 620.46 761.75 620.86 758.13 622.27 754.78 621.23 752.03 619.4 748.06 618.53 745.31 615.74 743.86 614.99 744.15 612.24 743.27 609.54 740.59 607.39 738.86 605.72 735.43 603.49 732.95 605.8 731.5 605.95 726.95 605.19 723.82 607 722.13 609.01 719.67 612.38 718.52 611 717.8 611.64 716.42 612.18 715.29 619.88 716.35 623.04 714 625.42 711.4 626.07 711.11 634.02 710.28 636.17 710.42 637.57 709.35 639.38 705.91 641.71 701.92 642.43 698.86 640.15 694.17 641.37 689.6 641.99 684.6 644.85 679.68 649.25 674.93 649.39 673.27 650.13 672.33 651.62 668.99 653.72 665.08 655.4 662.51 655.81 659.88 654.62 658.73 655.18 657.31 655.22 655.08 654.38 652.78 654.03 650.34 652.33 649.31 651.24 648.46 652.96 643.95 651.28 642.97 651.92 641.76 651.23 637.69 647.73 635.19 646.34 634.3 645.17 632.21 641.56 631.19 640.19 630.26 637.73 629.86 635.1 629.43 634.11 628.1 634.04 627.52 633.46 626.15 635.95 625.49 638.47 623.78 640.19 622.06 639.13 621.47 640.16 617.93 641.21 616.58 640.83 613.91 639.48 612.5 640.18 612.61 643.92 611.56 646.71 610.59 647.33 610.19 649.28 609.58 650.35 610.12 653.6 609.88 655.72 608.32 655.91 607.08 658.33 606.23 658.49 605.69 660.05 603.93 660.54 602.6 662.02 600.41 662.98 600.39 666.58 599.58 667.73 599.29 669.8 599.05 673.73 599.29 675.78 601.04 677.62 601.31 683.06 600.11 684.49 600.15 686.56 601.96 687.74 601.37 690.94 603.73 694.25 605.48 694.56 607.02 695.8 608.76 696.82 609.55 697.76 611.64 699.65 614.37 702.66 615.12 704.75 617.64 706.77 618.73 709.47 620.01 711.74 617.75 713.94 616.61 715.71 615.62 717.71 615.29 719.02 612.28 720.19 609.92 720.77 607.82 722.38 606.3 724.09 604.91 724.39 603.13 723.49 600.18 722.99 598.87 721.71 596.82 721.05 594.71 720.05 592.56 718.72 591.74 717.92 591.07 716.69 590.31 716.02 590.16 714.4 588.38 712.84 587.14 712.09 584.81 709.83 584.56 708.5 583.56 706.84 581.93 705.05 581.85 703.93 580.07 701.84 577.44 700.84 576.24 698.19 576.72 696.44 576.3 695 575.35 693.4 572.81 690.77 568.71 688.95 567.61 686.12 562.79 683.49 559.94 681.54 558.06 681.12 556.56 680.09 555.24 679.98 554.16 678.99 549.42 680.41 548.43 680.34 546.72 681.92 546.27 683.55 545.28 685.25 542.46 685.12 539.59 685.85 538.17 684.84 537.66 683.9 536.26 683.56 533.93 684.03 532.27 683.98 528.81 683.47 526.66 682.44 525.19 680.55 524.55 677.87 524 677.4 523.2 675.74 522.4 674.82 521.76 674.76 518.47 675.38 516.98 674.6 515.13 676.02 511.99 675.98 508.47 675.01 506.37 675.87 506.06 680.39 504.51 682.33 503.62 682.87 504.3 685.04 505.3 686.64 504.63 688.68 504.34 692.77 503.7 694.55 501.36 695.51 500.36 696.84 499.06 697.21 497.61 698.45 497.49 699.41 496.84 700.27 496.96 703.15 496.55 704.5 496.7 705.19 498.86 707.21 500.13 709.15 496.51 711.44 492.87 715.1 490.58 716.69 489.72 716.26 486.08 715.38 484.32 715.48 481.59 716.58 480.45 715.79 479.48 713.48 478.35 712.76 476.99 712.8 475.72 711.89 473.68 711.14 473.08 710.44 472.9 707.26 471.38 705.62 470.15 703.63 468.61 702.43 467.19 701.97 466.24 699.78 465.11 698.37 461.78 696.92 460.78 695.48 459.17 694.35 457.55 692.77 454.9 691.72 454.17 692.52 451.88 692.08 449.55 691.94 447.97 693.03 446.31 693.03 444.21 697.19 443.88 699.72 442.56 702.28 440.18 703.74 439.07 706.21 435.93 707.65 432.43 712.19 430.19 712.08 428.8 713.18 427.84 714.94 428.25 720.11 423.67 721.95 421.09 720.86 418.8 720.38 415.88 718.97 413.92 717.82 408.97 720.27 406.21 722.06 404.63 722.31 403.36 721.88 401.79 721.98 399.88 723.27 399.12 722.42 397.78 722.7 392.23 719.29 389.34 719.8 387.19 717.46 386.2 713.63 385.76 710.64 386.05 709.16 384.3 706.65 383.59 704.93 379.46 704.6 378.32 704.08 376.4 703.99 375.04 704.4 373.42 704.02 371.21 704.24 370.85 705.2 368.44 705.9 367.52 706.51 367.45 707.28 366.26 708.23 365.14 708.63 363.43 711.5 361.53 712.12 360.67 711.1 358.29 710.57 357.21 711.08 354.45 712.99 354.24 713.78 352.77 713.98 350.29 716.37 349.75 717.85 348.68 719.88 347.05 721.44 346.05 725.24 345.34 726.97 343.82 729.03 343.74 730 344.32 731.87 344.26 733.33 344.5 735.01 344.12 735.74 344.42 738.09 345.05 740.09 345.76 741.5 345.97 744.19 343.39 747.93 345.13 750.33 345.02 751.59 344.19 753.02 343.91 755.79 343.09 758.15 344.26 760.56 343.71 763.15 340.99 765.81 340.09 770.2 337.61 773.26 336.64 772.97 331.39 774.37 325.61 775.66 323.23 777.11 319.7 777.58 319.04 778.95 317.1 781 316.01 780.23 315.3 779.15 314.45 776.31 312.65 774.04 308.11 769.51 306.53 768.61 302.32 768 298.62 765.39 295.61 763.54 292.92 760.44 290.82 759.16 288.22 755.39 288.06 754.13 286.01 754.02 283.83 755.79 281.01 755.94 279.77 754.09 279.24 752.23 276.76 750.44 274.9 750.12 273.57 748.35 273.12 747.21 271.34 745.2 269.66 745.99 268.23 745.57 268.05 747.35 265.56 747.42 264.71 748.59 262.36 748.68 258.35 749.76 256.85 749.82 256.93 750.41 255.65 752.08 253.95 752.29 253.4 751.57 253.31 750.32 252.62 749.58 252.56 747.91 250.86 746.15 249.94 744.81 249 745.71 248.75 748.7 247.37 752.9 246.06 754.18 244.73 756.41 241.27 752.47 241.24 751.8 239.75 749.63 238.89 745.85 234.85 743.68 234.47 743.21 233 742.64 231.25 741.35 229.11 740.34 228.55 740.39 226.17 739.66 224.59 736.99 224.15 734.99 222.93 734.15 221.33 731.91 221.63 730.88 220.21 730.44 217.82 729.19 215.59 728.27 214.87 727.75 214.87 726.48 213.99 725.98 214.04 724.92 213.17 724.35 214.01 723.5 212.46 720.9 209.91 719.24 209.23 719.79 202.06 720.35 201.03 718.27 200.15 715.85 198.4 712 195.29 711.05 193.64 710.12 192.11 709.64 190.15 708.26 187.27 705.73 186.28 705.83 184.53 706.69 183.4 707.85 181.54 707 178 707.95 177.35 707.96 178.12 706.29 179.58 705.06 181.24 704.43 181.2 702.47 182.46 700.85 182.37 700.05 179.58 697.69 177.42 694.58 176.33 694.25 176.19 693.37 176.56 692.27 175.72 691.56 176.8 690.43 176.32 688.18 176.48 686.11 176.94 683.93 177.82 681.74 177.85 679.39 178.11 678.04 176.97 676.32 176.05 675.65 175.96 670.33 176.33 669.15 177.06 668.04 176.1 666.1 176.57 664.39 177.04 664.5 177.67 661.72 175.99 661.33 176.39 659.59 175.09 659.28 175.3 658.45 170.27 657.3 171.33 652.02 171.76 652.12 172.9 646.8 171.59 646.5 172.22 643.85 170.44 643.44 171.04 640.84 168.32 640.22 168.93 637.55 169.46 637.67 170.06 635.09 168.33 634.69 168.99 632.01 171.81 632.67 172.41 630.03 175.09 631.2 178.18 631.98 180.53 632.26 179.47 630.44 179.21 629.08 177.68 628.76 182.11 606.16 179.47 606.63 177.63 608.96 175.73 610.37 176.99 603.86 166.35 601.78 166.84 599.31 164.07 598.77 165.29 592.4 154.02 590.19 153.21 586.65 152.45 585.67 151.32 584.86 151.39 584.33 152.55 582.32 152.69 581.03 151.45 580.78 148.32 580.71 148.42 581.6 147.4 581.92 145.18 580.64 143.84 580.11 144.3 578.25 143.15 578.06 143.1 579.52 142.7 580.44 141.19 580.09 140.24 579.45 141.75 577.95 141.35 575.96 141.85 574.94 142.2 572.44 142.83 570.97 142.11 570.38 140.69 571.39 139.91 571.38 140.08 569.79 140.68 568.53 142.19 568.41 141.05 566.63 140.5 565.29 140.72 564.77 139.66 559.95 138.13 558.18 137.13 557.36 137.13 556.33 138.61 556.12 139.09 555.53 139.18 554.42 140.61 547.49 135.31 546.37 134.5 550.38 133.36 551.24 132.67 552.76 132.58 554.95 132.14 556 131.51 558.48 131.59 560.31 130.03 559.26 129.05 560.21 129.41 561.18 129.65 563.29 129.64 566.48 128.86 569.48 126.9 567.48 122.84 567.69 119.07 567.46 118 566.73 116.89 567.21 117 568.01 116.16 568.35 112.98 568.88 111.36 569.81 109.86 569.77 108.51 570.58 108.81 571.51 108.1 571.96 106.77 573.89 106.13 574.17 104.04 574.06 101.72 573.72 100.3 573.84 99 574.59 97.67 574.44 93.2 574.47 91.77 574.05 89.76 571.81 88.21 571.34 87.59 570.76 86.78 571.21 84.86 569.59 85.03 568.66 84.44 568.25 84.04 566.63 83.31 565.71 83.06 564.12 82.67 563.63 82.96 561.56 82.84 560.17 81.98 559.65 81.71 558.54 81.51 555.77 80.34 554.31 79.66 553.06 78.97 549.54 77.88 547.48 77.31 544.77 75.55 543.57 75.5 541.93 74.63 540.72 73.51 539.98 71.34 542.05 69.96 545.2 68.36 546.15 66.73 547.58 65.77 548.13 64.1 548.25 63.32 547.5 61.44 547.54 60.25 547.07 59.52 546.4 59.22 545.19 58.69 544.61 56.53 544.87 55.79 545.53 54.55 544.13 52.84 543.48 52.4 544.54 51.65 544.34 52.28 541.85 52.75 541.1 53.33 538.96 53.6 536.77 52.84 536.14 52.84 533.84 52.35 533.87 50.89 532.27 38.94 532.55 38.02 529.68 39.42 527.6 37.06 523.73 35.13 519.71 34.23 517.53 32.78 512.56 32.76 511.83 33.36 510.35 37.48 503.45 40.11 499.41 40.67 494.02 43.83 491.71 44.18 485.34 44.41 483.46 42.58 478.31 41.06 477.07 40.11 475.2 34.4 465.06 33.52 463.04 31.55 459.91 29.96 458.42 28.52 457.37 24.59 455.83 22.68 454.92 20.22 452.18 18.09 449.57 15.54 447.11 13.39 444.77 12.03 440.49 10.51 434.63 8.9 424.49 8.7 421.87 8.12 420.16 7.5 419.34 8.65 418.41 12.56 416.38 13.53 415.6 13.77 414.7 13.23 413.65 11.66 412.38 10.27 411.92 8.43 411.78 4.96 412.22 4.02 412.11 5.02 408.63 5.14 406.61 4.98 404.21 4.55 402.55 3.62 400.4 1.92 397.22 1.93 396.6 3.87 394.86 4.15 393.68 2.28 390.4 1 386.3 1.38 384.12 2.67 383.98 3.27 384.6 2.83 387.53 3.29 388.14 8.26 389.81 9.25 389.47 9.55 387.92 9.03 386.79 6.94 383.57 6.09 381.5 5.31 380.19 2.86 379.38 2.29 378.22 1.83 376.02 1.88 373.91 2.24 373.42 3.91 373.36 4.69 373.02 5.81 371.58 6.46 368.63 7.11 367.49 8.56 366.94 10.67 367.24 13.44 366.5 14.91 367.25 15.55 368.1 17.98 368.04 18.99 366.51 18.79 364.94 15.19 363.74 14.49 363.34 15.23 361.69 16.2 361.13 17.49 361.56 18.34 363.65 20.05 364.34 21.1 363.79 22.11 362.23 22.1 360.44 22.72 358.99 24.66 357.68 25.19 357.02 25.74 355.11 26.52 354.38 27.82 354.48 30.69 353.54 31.17 352.93 32.95 352.35 34.79 352.17 36.58 351.41 40.55 350.44 41.21 352.1 42.47 352.77 43.71 351.87 45.05 351.59 46.14 351.88 47.98 351.29 47.18 354.25 48.16 355.9 47.42 358.2 50.04 359.2 52.26 360.54 51.29 362.65 51.16 363.43 51.62 364.96 50.67 366.1 50.58 367.43 54.92 368.44 57.88 367.07 59.59 366.68 60.36 368.11 61.09 368.42 61.98 367.44 61.71 366.57 60.76 365.86 60.57 365.17 60.9 362.42 61.79 360.37 62.74 359.54 66.37 362.5 66.7 363.08 64.46 363.42 64.65 364.34 68.76 363.5 70.91 363.52 71.8 362.9 71.87 362.11 72.55 361.16 72.95 359.67 74.61 359.44 75.25 358.79 75.98 357.29 76.87 356.26 77.56 356.07 77.86 354.62 78.78 353.41 80.09 352.94 81.59 351.48 82.17 350.35 84.28 347.95 85.25 346.11 86.48 344.7 87.59 344.22 89.37 344.26 91.91 343.05 93.38 341.7 93.27 340.93 93.92 340.13 94.47 338.34 95.4 336.12 95.63 334.71 96.3 333.99 97.41 331.6 97.9 329.87 97.85 328.24 99.75 325.73 99.85 324.25 99.11 322.85 99.1 320.79 99.53 319.81 100.62 319.24 100.95 316.39 100.59 313.78 102.22 312.09 103.97 309.52 105.96 307.71 106.66 306.59 106.83 305.1 107.93 303.55 107.56 300.04 107.96 299.01 111.76 296.82 112.26 296.02 112.5 294.54 114.33 292.22 115.37 291.8 115.63 290.31 114.9 289.61 114.91 288.91 115.84 288.21 119.33 286.22 119.24 285.16 121.81 284.08 122.43 285.18 125.87 282.74 126.65 282.5 127.13 280.87 128.06 280.31 128.79 279.3 130.07 276.44 129.51 275.23 130.77 274.33 130.92 272.36 129.51 271.27 129.38 270.7 130.49 267.9 130.57 266.12 129.58 265.72 129.34 264.62 130.99 263.64 132.3 262.46 135.02 261.84 135.9 261.18 137.89 258.87 139.17 258.09 140.99 258.54 143.1 257.59 146 257.65 151.58 253.96 153.16 253.87 154.21 254.3 158.31 251.49 157.91 250.86 158.11 249.14 159.56 246.74 159.84 245.42 161.08 243.89 164.56 241.89 166.89 240.91 168.19 241.05 170.43 240.75 172.18 239.95 173.81 239.72 177.35 238.78 178.1 238.91 180.33 238.46 183.02 238.62 184.75 238.11 186.18 233.75 186.07 232.82 188.11 229.44 188.4 228.62 189.4 227.73 191.16 225.59 192.95 222.43 193.97 218.94 195.75 216.37 195.59 214.99 194.81 213.88 194.63 212.76 193.88 211.51 193.67 210.43 195.96 208.3 196.38 207.21 196.02 205.65 197.34 204.39 197.66 201.36 198.48 197.54 198.15 196.24 198.41 194.42 197.88 193.31 197.98 192.16 196.09 191.62 193.66 191.4 192.74 190.85 193.08 189.16 191.69 185.33 189.54 182.36 188.93 179.68 188.44 178.72 188.17 176.17 189 172.4 189.58 167.86 189.96 166.47 190.52 163.14 190.26 160.65 189.54 158.88 188.67 157.58 187.19 155.92 186.61 153.1 188.23 150.65 190.31 149.79 191.09 148.56 191.08 146.33 191.37 145.04 193.46 141.93 193.56 139.39 191.97 135.35 190.45 130 190.82 127.85 191.52 125.91 192.17 126 193.63 123.95 194.78 121.95 196.13 122.52 196.4 124.27 197.83 126.33 199.89 127.98 202.42 128.67 205.51 128.51 208.77 126.89 211.75 125.94 213.5 125.71 215.56 124.73 216.5 121.97 216.33 119.95 216.9 117.88 218.43 115.15 219.6 112.01 220.21 110.97 220.37 109.84 221.1 109.14 221.28 107.65 220.54 105.41 222.11 103.68 222.84 101.98 222.87 99.61 222.35 97.88 223.64 96.94 224.98 93.88 225.53 91.42 225.48 90.23 225.9 88.24 226.92 87.31 227.96 84.95 227.93 83.35 229.21 81.57 229.53 79.99 228.9 77.3 227.84 76.3 227.72 74.69 228.77 73.74 231.03 72.55 231.43 71.66 230.07 68.61 230.13 67.89 233.59 66.31 237.57 66.39 238.56 66.09 240.29 64.78 240.85 62.7 241.63 60.71 243.58 58.63 243.39 56.37 244.64 54.28 247.17 52.6 248.96 53.22 251.66 48.67 253.28 47.86 254.74 46.1 256.54 43.02 257.81 41.23 258.97 40.08 259.94 36.77 260.96 34.84 263.27 33.6 266.02 29.95 268.15 27.66 268.55 24.45 270.33 21.44 270.41 19.64 271.58 18.56 274.94 17.54 276.3 15.32 276.23 13.84 275.78 12.94 277.8 11.3 278.68 9.6 278.99 8.32 279.94 7.24 280.38 5.9 280.41 3.98 281.33 1 283.16 1.98 284.16 4.53 285.24 5.93 286.44 8.42 286.61 9.3 289.18 12.08 289.76 13.61 291.24 15.58 292.33 18.85 295.17 21.22 294.49 22.56 294.83 23.12 297.56 25.69 298.39 26.85 298.28 27.77 300.54 29.73 300.29 30.93 301.55 32.84 302.13 35.35 301.77 39.05 302 39.63 303.79 40.02 305.46 42.73 305.9 44.79 305.17 49.44 306.14 50.44 307.53 54.76 309.19 56.55 310.09 59.2 311.49 61.35 313.46 62.56 314.43 61.17 316.72 60.11 318.52 60.33 319.8 59.91 321.46 57.84 324.13 56.27 326.13 56.13 330 55.09 330.12 54.15 331.32 54.62 332.76 55.91 333.65 55.64 334.85 56.75 335.09 58 334.9 60.43 335.42 62.8 335.94 63.62 337.47 64.88 339.02 65.75 341.06 68.32 342.45 69.47 345.39 72.3 347.14 75.59 347.97 77.85 349.92 80.19 351.27 80.63 351.96 81.31 353.46 84.67 353.69 85.55 355.2 87.92 356.63 89.86 358.48 92.79 359.07 94.93 359.9 96.46 360.59 99.89 361.51 99.92 364.17 97.22 364.02 95.78 364.35 94.88 366.76 93.24 367.62 92.04 372.98 88.24 374.17 89.25 374.88 88.77 375.07 87.22 374.91 85.9 374.04 83.41 374.13 81.85 376.52 81.42 378.17 79.23 379.68 79.34 381.03 80.12 382.41 79.82 383.75 79.92 384.64 77.18 387.04 74.5 390.2 69.55 393.93 70.47 394.32 69 398.16 68.12 398.9 67.66 398.87 66.92 399.31 63.61 399.52 57.75 399.56 53.58 399.15 51.69 399.45 49.87 400.8 49.4 402.53 49.46 403.09 50.4 405.61 50.59 408.49 50.07 414.02 50.94 416.95 49.6 418.33 48.25 419.76 45.96 421.5 45.92 423.05 45.28 424.08 44.51 425.56 42.27 426.56 39.9 427.68 39.3 431.12 40.13 432.71 38.97 433.33 37.94 434.71 37.52 435.6 36.69 437.44 36.54 439.04 36.02 441.38 36.14 442.41 36.43 443.17 33.73 443.08 31.89 443.51 31.15 445.23 29.73 446.48 27.88 448.95 27.58 450.21 27.86 453.6 27.86 454.93 27.35 455.93 26.53 456.06 25.69 457.14 24.82 457.85 25.55 456.84 26.24 457.96 28.72 460.5 29.82 463.16 27.55 463.36 26.2 464.07 24.95 465.57 24.19 467.12 24.16 471.12 20.8 479.07 16.52 480.71 15.36 485.35 16.49 Z" id="34060000"/>
</g>
</svg>