<?xml version="1.0"?>
<svg xmlns="http://www.w3.org/2000/svg" version="1.2" baseProfile="tiny" width="800" height="1221" viewBox="0 0 800 1221" stroke-linecap="round" stroke-linejoin="round">
<g id="sigung">
<path d="M 529.2 236.87 531.78 248.4 529.16 253.25 531.98 259.62 535.41 264.9 537.84 279.03 536.51 284.23 537.79 294.01 536.29 296.12 534.92 309.17 532.23 316.78 526.88 318.8 518.24 335.81 517.73 348.75 518.67 354.74 516 369.89 517.4 376.5 520.09 378.9 518.19 390.65 520.73 398.56 518.14 401.79 515.06 415.13 520.33 422.58 517.12 431.57 518.13 433.2 518.21 447.52 519.49 461.04 518.46 474.84 518.64 481.29 527.72 485.5 537.38 498.25 531.46 511.55 531.72 515.1 530.37 526.81 525.96 546.82 526.79 556.49 530.75 562.06 522.91 562.99 511.25 562.54 487.49 556.58 482.49 549.69 473.01 554.66 463.1 560.81 458.54 561.99 450.67 576.26 450.06 579.8 446.07 587.26 442.07 590.68 432 589.89 429.39 605.61 420.96 610.67 425.11 615.59 434.57 631.78 436.5 645.12 439.77 651.69 450.28 659.41 454.99 666.77 459.54 682.31 475.88 694.83 480.78 701.63 483.71 712.44 484.28 718.43 489.27 722.89 498.56 737.25 511.79 754.16 522.32 763.86 532.82 766.7 552.13 770.69 559.19 773 572.96 778.77 577.2 781.11 589.39 790.95 598.5 800.97 605.52 806.51 610.65 811.52 619.34 816.77 631.86 825.23 653.63 838.07 667.03 847.75 683.75 852.4 688.17 855.85 696.54 867.95 707.47 873.34 709.89 875.18 716.96 877.8 733.28 879.39 748.38 878.88 753.74 877.47 764.2 871.91 776.26 868.72 783.96 867.48 792.22 872.59 797.45 880.03 799 884.62 798.51 891.74 794.02 895.68 789.74 897.75 783.96 903.73 776.65 908.27 767.76 912.87 761.75 915.1 755.05 920.07 753.27 923.88 745.21 927.32 740.56 931.56 737.59 929.57 730.84 935.97 727.52 937.84 721.36 944.23 718.51 949.38 717.99 956.61 720.88 962.29 719.8 971.87 715.33 979.94 706.65 990.96 701.58 994.92 692.75 999.53 692.45 1004.81 696.39 1007.57 699.18 1017.75 699.25 1023.59 702.56 1029.51 703.22 1038.76 709.17 1042.24 708.12 1046.77 703.94 1049.94 699.29 1060.69 701.96 1064.45 707.7 1065.36 709.31 1068.29 709.5 1073.53 711.67 1077.06 702.06 1080.22 693.69 1077.43 692.03 1074.87 687.84 1079.93 685.09 1077.19 681.52 1078.58 672.12 1078.56 665.36 1076.48 654.85 1077.14 645.76 1080.83 646.77 1090.41 648.7 1093.53 641.25 1106.43 639.55 1107.54 635.1 1105.76 632.89 1100.15 628.33 1097.9 623.79 1099.41 618.32 1098.16 609.59 1103.84 605.43 1105.3 601.06 1105.17 595.98 1108.43 591.12 1106.98 587.71 1108.89 586 1112.61 582.71 1113.37 577.86 1121.17 571.19 1130.63 568.56 1132.91 565.23 1138.66 564.25 1143.28 565.21 1148.87 565.69 1157.9 557.51 1166.24 549.6 1172.92 539.3 1177.52 534.55 1183.52 531.31 1180.26 525.3 1184.48 520.07 1187.04 519.3 1190.77 515.92 1193.92 509.06 1194.73 501.59 1191.48 491.35 1190.96 483.81 1192.45 479.91 1192.03 472.9 1194.35 471.41 1197.28 465.97 1198.75 459.36 1196.94 453.6 1201.26 445.74 1201.23 444.52 1203.51 440.05 1205.9 438.35 1210.84 433.62 1215.51 428.47 1217.9 422.49 1218.56 419.89 1220 417.01 1217.38 412.3 1215.41 403.53 1207.61 395.8 1203.8 390.96 1200.37 387 1188.27 385.09 1187.25 380.75 1179.29 375.5 1175.49 359.02 1177.82 357.14 1164.01 364.69 1157.44 366.41 1153.24 366.55 1149.34 368.74 1146.48 364.97 1139.59 363.59 1131.22 364.94 1123.27 368.13 1118.06 367.83 1106.75 368.45 1103.92 366.53 1098.59 362.33 1097.11 360.46 1093.41 346.48 1085.12 346.94 1074.71 348 1070.02 351.03 1065.87 351.7 1061.28 354.57 1057.48 352.51 1054.08 351.77 1049.8 349.27 1046.45 347.5 1039.9 349.2 1036.08 348.47 1029.86 349.16 1023.61 346.14 1013 346.26 1008.73 344.93 1005.3 345.44 1000.71 342.97 997.76 342.35 993.39 343.9 989.63 343.68 983.16 336.01 975.55 332.06 977.39 327.34 977.15 306.11 981.49 295.62 985.57 288.07 983.19 287.61 974.23 284.69 972.17 279.43 976.1 278.31 979.66 266.79 985.38 267.55 978.79 265.84 975.47 265.33 959.17 264 956.4 259.73 952.64 256.22 947.35 252.69 946.63 246.86 943.28 239.27 942.2 241.53 935.14 239.11 932.53 231.76 932.95 226.56 928.64 224.38 924.54 218.88 920.01 217.27 916.1 210.05 907.17 200.19 906.84 198.55 910.47 194.59 912.38 191.77 920.38 184.06 920.8 175.93 923.97 165.64 934.56 158.22 934.62 152.59 945.47 150.58 946.95 140.73 949.35 132.38 953.37 129.65 951.17 125.68 958.88 120.77 963.9 118.81 968.94 114.93 974.96 114.17 978.5 103.98 987.15 111.01 997.92 111.81 1002.78 100.53 1008.26 98.41 1010.05 91.39 1008.22 84.76 1012.19 81.13 1010.24 76.65 1010.95 55.15 1020.38 46.8 1021.74 44.68 1010.2 46.33 1001.32 41.15 973.36 35.73 955.49 33.2 951.06 25.41 946.15 18.24 937.05 7.74 928.36 2.53 925.12 2.71 916.98 9.89 909.03 18.09 902.71 21.52 896.03 20.87 893.37 23.42 889.82 24.55 879.82 22.3 876.95 16.73 873.44 17.25 868.81 13.93 861.37 13.72 856.3 15.98 851.79 24.83 845.9 25.4 840.11 30.07 830.34 30.43 823.99 26.32 820.35 22.27 814.39 21.65 803.56 20.21 798.71 12.86 788.64 11.42 782.7 9.27 778.58 8.62 772.93 9.17 767.96 6.97 760.81 10.65 755.71 11.5 749.88 11.74 732.46 16.61 727.8 23.02 710.68 30.32 705.97 31.08 695.66 38.71 681.07 44.02 678.51 46.57 670.71 48.74 666.51 50.41 648.99 55.86 636.92 56.76 628.32 55.37 615.32 50.17 606.32 50.11 598.9 44.54 578.03 51.48 573.57 66.16 544.73 66.87 534.13 70.51 517.33 72.92 510.45 78.95 501.66 78.67 491.17 77.54 487.55 78.29 483.87 75.39 466.7 71.16 459.98 71.7 452.93 67.57 448.95 66.66 437.94 65.18 435.5 65.13 430.45 63.3 424.94 62.49 418.63 63.3 415.33 62.5 407.93 62.86 403.59 58.23 383.44 59.44 373.35 58.12 360.71 56.12 353.76 53.56 348.6 53.98 345.96 49.27 335.51 48.76 319.91 51.5 312.63 55.12 307.45 52.94 303.73 52.31 293.33 54.41 284.08 53.16 277.25 40.69 266.81 37.45 265.26 35.33 255.52 28.33 247.85 25.2 242.53 19.88 240.96 17.43 235.16 18.26 232.53 22.61 229.55 23.06 216 22.67 211.51 20.26 203.56 17.83 189.65 11.69 177.73 1 162.84 1.22 161.78 5.09 155.23 9.27 152.03 10.36 148 15.81 145.21 17.22 137.07 27.28 130.97 28.89 126.63 29.79 119.79 39.47 110.99 53.79 95.74 56.74 94.16 64.25 93.06 68.01 90.05 79.93 73.59 71.37 58.21 64.41 44.52 79.29 34.07 89.5 25.36 97.09 20.78 101.22 20.11 132.66 8.86 140.64 7.72 149.39 5.16 163.18 2.73 176.72 1 186.48 2.35 198.71 2.58 208.78 1.8 217.47 2.55 228.27 7.59 236.19 7.79 247.92 9.11 257.04 11.21 265.32 11.83 270.71 11.16 293.04 20.79 302.16 18.55 317.55 18.54 322.79 20.29 332.28 21.44 340.79 19.85 350.53 28.38 367.93 36.09 370.52 53.12 373.97 60.07 372.67 61.53 367.41 73.84 371.42 87.41 378.37 115.66 381.75 119.74 397.67 131.21 402.23 129.41 408.65 129.93 415.88 132.84 434.34 133.11 435.12 134.39 442.65 132.24 453.26 132.34 470.53 138.22 479.22 138.31 478.09 148.74 477.83 159.74 479.81 167.71 479.58 175.11 482.76 182.71 484.96 197.56 488.74 203.81 490.37 211.19 493.1 214.98 502.54 223 506.02 223.22 513.66 229.46 518.13 231.58 521.79 234.83 526.12 235.03 529.2 236.87 Z" id="34070000"/>
</g>
</svg>