<?xml version="1.0"?>
<svg xmlns="http://www.w3.org/2000/svg" version="1.2" baseProfile="tiny" width="800" height="898" viewBox="0 0 800 898" stroke-linecap="round" stroke-linejoin="round">
<g id="sigung">
<path d="M 257.62 196.26 258.61 198.61 260.92 202.08 261.63 202.49 264.33 202.41 265.66 203.11 267.86 202.72 270.74 204.55 271.44 205.17 275.06 204.91 277.64 207.89 278.91 208.19 279.59 212.44 279.58 214.29 282.29 217.08 283.02 219.08 283.9 220.42 284.89 223.04 285.44 225.1 286.36 225.54 288.19 225.66 289.75 224.96 291.85 225.74 293.38 225.24 294.34 226.21 294.72 227.59 296.5 228.72 297.03 229.4 300.02 228.93 303.35 231.05 303.33 232.4 303.76 234.66 303.73 236.18 304.23 236.58 308.31 236.69 309.85 236.39 310.64 236.65 311.95 235.87 313.02 234.26 314.89 234.1 315.95 232.85 319.58 231.21 321.34 230.64 323.04 230.59 323.73 228.69 325.9 227.53 326.95 225.26 327.96 224.18 329.88 224.52 330.74 224.27 331.77 221.95 332.82 221.07 334.49 220.59 335.53 219.56 338.04 218.13 339.99 218.06 340.69 217.18 340.98 213.36 341.63 211.93 341.92 209.52 341.19 208.28 339.65 206.59 336.2 200.41 336.37 199.15 338.95 195.98 343.56 193.68 344.96 193.35 346.54 192.11 348.89 190.71 348.71 189.22 349.7 187.9 350.58 186.04 350.62 183.82 351.43 181.01 353.03 180.99 355.66 179.65 356.83 178.63 357.78 178.88 359.58 178.48 359.95 177.62 363.87 176.64 365.95 177.48 367.16 176.97 368.83 176.82 372.76 175.91 374.5 173.8 373.95 171.47 370.85 169.33 370.04 168.3 369.91 165.2 369.14 163.56 369.03 162.28 369.39 159.75 369.05 158.31 369.58 157.15 369.87 155.38 368.69 154.37 368.65 152.15 370.17 150.03 371.34 149.48 373.69 148.84 376.19 148.57 377.76 145.27 380.4 144.57 381.54 145.12 386.22 144.12 387.12 142.73 390.77 140.6 392.16 140.87 394.6 138.79 395 138.22 395.16 134.89 395.48 133.85 394.95 132.29 394.65 129.67 398.82 128.26 404.2 127.35 405.19 126.82 406.49 127.45 408.7 127.5 410.77 125.39 413.02 122.62 414.23 122.59 416.01 120.82 417.93 119.82 420.85 120.79 421.87 119.08 424.54 117.88 424.67 114.46 423.07 111.02 424.18 108.98 424.49 106.84 426.05 105.98 428.19 105.65 430.84 106.12 430.92 104.19 435.72 103.34 438.44 103.23 440.01 102.95 443.2 102.97 445.14 103.53 446.19 103.07 449.1 103.35 450.87 103.92 451.77 104.71 452.73 104.38 454.64 105.01 455.76 104.27 456.85 104.28 459.01 103.7 461.58 103.67 463 102.62 465.37 102.85 467.22 101.81 470.75 101.47 472.74 101.02 474.8 100 478.02 97.08 478.8 95.58 480.24 95.51 481.46 96.02 481.95 95.65 483.06 96.66 485.68 93.93 487.23 95.7 488.14 96 489.49 95.7 490.2 96.04 492.48 95.96 494.07 95.66 495.32 93.45 498.98 89.81 500.03 87.51 501.56 85.84 503.33 85.82 505.66 82.44 507.31 81.24 508.11 77.73 509.8 76.92 512.92 75.95 513.98 75.88 515.75 72.05 517.7 71.55 519.46 71.8 520.83 72.51 522.32 71.16 524.39 70.87 525.24 69.41 526.29 68.8 526.68 67.86 528.16 66.42 529.61 64.18 535.18 63.93 538.68 63.09 540.09 64.22 539.02 66.95 537.38 69.77 537.33 71.01 536.35 73.36 535.89 75.03 537.67 77.16 537.65 78.31 539.79 81.12 539.9 82.9 541.65 85.1 542.55 87.23 542.96 88.87 544.34 89.24 546.81 90.5 548.25 90.79 549.15 91.77 551.35 92.16 553.77 92.98 554.38 92.24 556.6 92.54 560.77 94.54 561.42 95.47 563.36 97.01 566.01 98.44 570.62 98.02 571.51 99.23 572.57 101.99 571.06 103.67 569.9 104.16 569.72 108.66 568.96 112.68 567.17 119.4 565.92 123.22 564.42 126.23 563.4 129.91 560.96 132.58 560.71 136.47 561.59 141.47 564.35 142.2 567.58 142.03 570.66 141.65 573.39 141.01 575.49 140.3 580.13 140.3 583.94 139.29 587.18 137.55 588.03 136.32 590.14 136.06 593.52 135.11 598.36 131.32 601.72 130.7 603.54 131.79 604.44 133.77 605.93 133.71 606.74 134.64 608.49 133.46 610.54 131.34 611.89 129.19 612.83 126.59 614.74 122.5 615.04 121.46 616.86 120.45 620.1 119.51 623.06 116.66 625.89 117.2 629.53 118.16 634.52 121.25 639.43 119.64 640.52 119.83 646.09 118.75 647.76 121.63 651.39 123.06 653.23 122.26 654.5 122.91 656.09 123.27 658.26 126.07 659.14 126.45 659.39 127.45 660.35 128.91 662.06 133.3 662.9 134.58 663.07 140.46 663.59 142.26 664.95 142.85 666.45 141.65 668.95 140.9 673.34 141.49 673.57 143.19 672.89 144.22 673.7 147.84 673.76 149.79 674.89 152.58 677.14 153.06 678.21 153.57 678.8 155.13 679.01 158.16 683.67 159.17 684.28 159.92 685.83 160.63 686.47 161.57 687.98 162.44 689.9 164.73 691.46 165.17 692.07 166.42 691.26 169.08 692.01 171.42 692.28 173.32 691.98 174.85 691.01 176.71 690.41 178.97 687.93 182.34 689.62 183.27 690.82 185.44 692.57 185.93 694.11 187.36 694.5 189.31 693.85 191.52 693.25 192.62 694.34 195.49 695.3 196.37 695.95 199.02 695.79 202.92 696.34 203.02 696.04 204.64 695.07 206.5 694.76 208.36 695.46 210.5 692.93 211.32 692.68 213.34 691.73 215.86 690.69 217.78 688.42 220.24 685.76 221.8 683.15 227.27 682.98 228.29 680.97 230.6 680.04 230.97 678.74 233.51 681.21 235.2 681.59 235.79 679.91 240.23 680.05 242.38 681.19 243.96 684 246.06 683.98 247.94 685.55 249.6 686.06 251.92 687.82 253.79 689.07 256.33 689.04 256.83 690.16 258.69 690.52 260.93 691.34 264.27 691.9 264.76 691.22 266.45 688.36 269.37 686.34 270.68 685.1 272.85 683.38 273.03 683.25 274.64 684.43 276.57 684.5 278.22 685.09 280.84 684.73 281.75 683.43 282.96 682.89 284.1 682.82 285.3 680.54 287.72 681.19 288.96 682.57 290.32 684.13 293.34 685.01 293.31 687.75 295.47 688.77 296.96 690.45 297.38 690.7 297.92 693.61 298.14 694.39 298.56 695.62 301.95 696.9 303.16 699.34 308.71 699.84 310.91 701.53 313.03 700.61 315.46 700.59 317.73 701.56 319.23 701.09 324.22 701.15 328.44 700.47 330.59 701.06 332.11 701 337.06 702.16 340.57 700.61 344.39 699.45 346.9 697.34 350.01 695.65 353.92 694.91 354.64 694.42 356.26 692.38 358.5 689.4 359.29 688.03 360.6 685.38 364.29 685.4 365.11 684.18 367.37 683.2 368.67 681.91 369.71 682.17 370.71 680.97 375.27 680.93 377.22 680.55 378.54 679.59 380.2 678.62 380.76 678.27 382.61 677.76 383.66 678.16 384.73 675.92 387.1 675.93 388.54 675.58 390.38 674.89 391.01 674.65 392.32 675.02 395.14 674.77 396.32 675.12 397.44 674.94 398.46 675.2 399.96 675.98 400.67 676.43 403.42 675.49 405.84 676.05 407.74 675.5 408.98 675.84 410.72 674.45 411.86 674.63 413.35 674.4 414.76 672.44 416.73 672.37 418.81 673.33 420.62 674.45 423.54 677.04 424.82 677.78 426.15 678.37 427.92 679.22 429.5 680.19 432.06 683.03 434.34 683.15 436.07 686.56 437.55 687.41 438.84 687.84 440.36 688.23 444.72 688.84 445.83 689.63 446.18 692.89 445.84 695.31 446.41 696.12 448.23 696.19 452.3 696.76 453.81 698.68 454.7 700 456.68 700.97 456.95 704.16 459.44 706.72 460.85 708.45 463.41 712.53 468.18 713.52 470.66 713.68 472.48 715.41 471.72 717.76 471.56 720.08 469.42 720.1 467.39 720.92 467.04 722.67 467.23 723.8 466.87 723.53 468.44 723.68 470.68 725.12 473.02 725.53 475.96 727.51 477.19 729.1 480.65 729.82 483.78 730.91 484.96 731.34 487.58 732.73 488.15 735.58 488.64 737.23 488.09 739.38 488.3 742.34 492.47 743.96 493.75 745.36 495.81 746.31 496.41 746.07 498.72 746.25 499.97 746.07 501.83 744.19 504.28 742.96 505.12 742.47 506.59 741 508.68 741.62 509.27 741.37 511.98 741.33 516.54 741.62 518.23 741.37 519.4 741.99 523.27 743.12 525.79 744.45 527.48 743.67 528.8 742.91 529.21 742.23 531.06 742.17 532.61 743.09 535.26 742.22 537.43 742.19 540.13 742.69 541.51 742.09 543.17 743.83 545.76 745.14 548.4 745.46 550.09 747.02 551.92 748.92 550.71 751.83 551.06 753.49 551.06 754.75 551.62 757.16 551.88 757.65 553.94 758.29 554.88 758.51 557.48 759.84 559.21 761.53 559.57 764.44 560.72 765.15 561.24 765.61 562.46 768.23 564.41 769.15 566.18 769.49 567.83 772.16 570.17 773.3 572.72 776.6 575.71 779.16 577.16 781.11 580.19 781.43 581.65 779.92 583.7 779.32 585.47 780.03 586.19 782.46 589.59 782.95 591.05 784.41 592.37 785.51 594.31 784.23 600.03 784.42 603.83 785.15 604.67 785.71 606.03 789.17 610.57 790.94 611.66 792.39 613.75 792.67 614.95 794.45 620.21 794.68 621.09 794.11 622.38 793.97 624.97 791.93 625.15 788.78 622.45 785.47 623.74 783.08 623.79 781.35 624.53 780.39 624.34 778.38 624.87 775.12 624.88 772.52 625.54 768.11 625.4 759.08 623.37 758.16 623.7 753.57 628.69 750.78 632.78 750.86 635.31 750.16 637.35 750.45 638.23 750.49 642.22 750.27 645.15 750.98 646.77 748.56 649.66 748.8 651.14 748.78 653.22 748.2 655.3 748.65 656.77 748.12 659.23 748.39 660.58 747.41 664.29 746.98 664.83 746.27 668.06 746.25 670.15 746.65 671.42 746.01 675.62 746.3 677.4 748.05 679.4 748.23 681.28 748.93 684.29 748.65 686.23 748.88 687.8 748.68 691.31 748.25 691.94 748.98 693.58 748.41 695.34 746.72 697.94 746.59 699.52 746.11 700.79 747.15 701.89 747.89 703.9 748.89 704.86 748.07 706.83 747.67 709.22 751.42 706.1 752.88 703.74 755.31 705.39 759.38 702.86 758.92 701.84 759.63 700.89 762.57 699.53 764.46 699.23 765.84 699.35 768.07 698.54 771.64 698.76 773.88 699.15 775.96 699.94 777.19 701.29 778.17 703.24 779.04 708.18 779.06 714.49 779.52 717.64 781.42 720.37 783.93 722.5 785.4 723.02 786.73 722.1 788.65 721.73 790.77 722.14 792.21 721.32 791.96 723.66 792.98 723.75 795.29 724.69 796.61 725.64 798.17 727.41 799 730.01 797.5 729.88 794.67 731.41 789.34 738.8 791.37 740.38 788.12 740.98 787.21 738.45 782.76 733.78 781.37 732.47 779.01 730.86 776.6 729.85 775.05 729.62 771.45 730.85 768.76 732.62 767.88 735.2 767.87 738.18 768.44 740.63 768.26 743.38 767.27 746.52 764.78 749.95 763.26 751.44 757.48 753.52 755.48 753.89 755.04 753.06 752.77 752.44 749.8 750.91 746.56 749.54 743.55 749.58 741.59 749.42 741.59 748.48 736.02 748.76 733.08 748.57 728.68 749.92 727.2 751.55 726.07 754.45 726.03 758.06 727.84 760.85 729.83 761.51 732.03 761.84 734.46 763.45 737.13 766.45 739.04 768.17 741.47 770.67 742.15 777.33 743 782.77 743.79 789.13 744.57 792.71 746.18 798.13 747.19 804.44 745.71 808.06 742.17 813.65 741.81 814.97 740.52 816.98 740.84 818.25 740.69 820.17 739.79 821.1 737.23 825.21 736.14 826.42 732.65 827.54 730.58 826.57 727.25 825.74 726.47 824.17 726.55 822.8 725.56 817.39 725.17 813.87 725.28 812.31 721.43 809.16 718.22 806.16 717.31 804.16 718.58 801.07 718.95 799.64 719.89 798.59 718.22 794.35 717.18 792.64 714.68 791.97 713.62 792.67 710.81 792.12 708.77 792.09 707.23 792.72 700.99 792.64 701.34 790.1 700.62 787.33 700.77 786.73 699.43 786.3 698.06 784.08 697.57 782.09 695.36 778.99 695.58 777.76 692.45 773.99 691.52 771.13 689.2 770.51 685.88 768.97 685 768.16 682.08 766.84 680.98 766.61 679.59 764.97 679.1 763.4 680.2 760.68 680.15 758.88 679.38 757.8 678.85 752.45 675.2 749.74 673.39 749.48 671.8 750 669.99 749.57 668.22 749.46 667.13 749.98 661.82 748.48 658.32 746.58 657.3 746.24 655.99 747.14 655.51 747.99 653.6 749.39 652.68 750.47 652.51 752.31 649.86 753.31 646.6 755.53 645.43 756.55 642.86 756.63 637.47 758.34 634.95 755.03 634.83 753.52 634.08 752.73 633.78 750.94 633.22 750.38 630.19 750.21 627.36 747.41 627.19 744.28 625.03 743.69 623.09 741.1 622.95 740.19 621.94 739.68 621.76 738.7 620.84 737.64 620.55 736.57 616.99 734.29 615.53 733.8 612.79 733.84 610.71 734.9 607.44 735.88 605.68 734.31 605.45 732.99 604.03 731.81 603.26 730.41 600.71 729.43 599.89 728.19 598.42 727.77 594.92 727.93 592.65 729.46 591.7 729.51 589.78 730.79 584.65 729.56 581.93 729.76 579.49 723.53 576.72 721.69 574.56 718.13 574.19 717.04 571.75 717.34 570.87 713.22 566.23 714.23 564.93 714.83 563.91 713.31 563.56 711.97 562.69 711.44 560 712.1 555.95 712.76 554.03 713.58 552.44 711.91 549.64 712.1 547.62 708.92 547.42 708.22 546.31 707.74 543.19 708.74 542.25 708.27 539.95 707.9 538.66 706.81 537.07 706.21 535.9 705.09 534.57 704.49 534.37 705.4 530.27 705.4 529.66 707.23 528.81 711.23 529.87 711.84 530.06 714.76 530.52 715.95 531.61 717.1 531.69 720.51 532.22 721.97 531.82 724.55 534.19 725.63 540.08 726.35 540.87 726.25 541.17 727.74 542.29 728.86 543.45 729.49 543.94 730.52 545.73 730.82 544.42 732.73 543.89 734.55 544.04 736.43 545.58 741.14 545.55 742.71 545.11 744.43 545.32 747.47 546.05 748.38 548.45 749.08 548.92 750.98 548.44 753.74 548.04 754.1 547.17 757.8 545.62 758.46 544.36 760.52 543.55 760.79 543.72 762.27 543.18 763.92 542.36 764.66 542.21 765.7 542.72 767.24 542.29 769.15 543.72 770.58 543.6 771.25 545.04 772.94 546.76 773.4 546.33 776.23 546.63 777.07 546.38 779.07 545.76 779.58 546.3 783.8 547.21 785.88 549.34 787.66 549.52 789.15 551.29 792.07 551.71 794.2 551.03 795.98 548.82 797.77 546.53 797.24 543.52 797.72 542.11 799.16 539.72 800.74 537.07 801.14 534.87 800.65 534.15 802.92 532.51 805.75 532.65 807.11 534.36 809.85 536 811.92 536.42 813.83 537.82 814.9 537.74 818.17 540.14 822.96 541.22 824.4 541.82 827.03 542.58 828.47 541.95 830.16 543.06 833.13 543.13 834.32 542.51 835.59 542.87 837.09 543.84 839.04 543.5 839.89 543.99 840.85 542.41 841.96 542.07 845.58 539.67 846.12 537.53 849.37 536.59 854.45 533.54 855.39 533.08 856.97 531.65 857.57 529 859.07 527.61 859.53 525.86 859.44 524.51 860.23 523.86 861.74 523.73 863.17 521.63 864.88 519.32 867.86 517.49 868.53 516.91 870.29 514.94 873.47 515.1 874.27 513.84 875.73 511.8 874.35 507.93 876.61 506.34 876.45 504.62 877.49 504.01 878.77 502.72 879.81 502.29 881.46 497.46 881.38 495.09 882.06 493.2 882.01 490.22 881.33 486.49 881.53 485.08 883.41 482.84 883.21 481.41 884.66 477.98 884.89 477.26 885.78 477.48 887.78 477.01 889.96 475.39 892.1 474.33 891.99 469.99 892.64 469.11 891.91 468.82 890.53 467.59 890.27 467.03 888.98 465.48 887.41 465.61 885.38 465.38 884.19 464.36 883.82 463.02 882.51 461.05 881.69 459.6 880.71 458.76 877.66 459.15 875.76 459 873.82 458.3 872.62 456.17 872.3 453.74 870.62 452.72 870.48 451.57 869.03 447.57 870.9 446.36 870.97 443.21 871.88 440.73 872.1 439.36 872.74 438.19 875 437.27 876.26 436.61 878.43 435.15 880.56 433.46 880.37 432.28 880.59 429.3 884.62 428.05 889.48 426.74 893.59 424 896.61 422.91 897 421.49 896.07 419.8 894.49 419.27 894.35 416.55 891.97 411.8 892.88 410.95 892.4 409.4 890.48 406.01 889.67 404.8 890.52 402.31 889.43 400.49 890.31 398.86 890.41 396.63 889.14 395.23 888.83 394.07 890.11 393.07 889.28 392.91 887.69 391.18 887.2 390.21 887.27 388.62 885.22 386.08 882.51 384.22 881.36 383.03 879.27 383.08 876.82 380.8 874.82 379.38 872.95 377.12 871.72 374.73 867.25 372.73 868.08 369.48 867.29 367.85 869.15 367.85 869.7 366.71 872.96 365.79 874.39 366.1 876.76 363.77 879.96 360.98 880.61 359.65 880.39 358.22 880.83 355.31 879.06 354.02 879.28 352.83 878.87 348.9 881.48 345.97 882.07 345.45 880.62 343.58 880.42 343.31 878.57 342.25 877.31 341.14 876.65 340.93 875.38 341.44 872.5 341.08 869.95 339.28 869.02 338.78 867.69 337.23 866.55 335.39 866.11 333.86 864.56 333.24 861.87 332.58 859.9 330.78 858.11 330.59 856.62 328.42 855.23 327.48 853.38 325.63 852.02 325.59 850.78 326.76 847.88 326.66 845.12 325.42 843.39 323.32 839.16 324.35 834.41 322.33 830.84 321.07 829.43 320.35 827.96 319.22 826.63 319.17 823.94 317.92 823.42 315.38 821.64 314.44 820.28 314.73 815.95 315.33 815.05 315.55 811.72 316.48 810.95 315.11 808.91 314.22 808.15 313.88 807 312.99 806.56 310.64 806.65 309.58 806.16 309 806.72 305.81 806.73 304.91 806.95 304.36 806.21 302.93 805.5 302.61 804.58 301.56 804.27 300.11 803.14 298.71 803.91 297.23 802.75 296.31 798.9 296.82 796.82 297.84 794.78 296.18 793.52 295.05 790.59 292.5 789.85 292.59 787.91 292.06 786.62 292.47 785.1 293.12 781.28 294.91 776.62 295.7 774.25 296.7 772.35 297.06 770.71 297.2 768.22 295.84 761.02 294.13 760.47 292.68 758.92 289.71 756.96 290.09 753.43 291.26 751.91 291 749.39 291.08 747.77 290.71 746.27 291.29 743.79 290.29 741.24 289.41 741.65 284.78 744.87 280.81 745.72 277.46 746.71 273.02 748.91 268.94 751.64 261.82 759.87 259.04 760.39 253.27 762.13 249.16 767.83 248.15 769.49 246.45 771.35 244.32 776.98 241.92 781.14 238.03 785.23 235.18 786.07 231.88 787.87 227.69 789.64 226.39 789.45 225.27 788.18 222.96 788.16 219.27 791.27 217.73 793.41 216.49 795.78 213.48 799.96 212.59 801.51 211.22 801.75 207.9 804.96 204.28 800.8 198.68 800.37 196.93 799.07 196.24 797.39 194.71 796.57 192.62 794.32 190.08 790.85 188.14 785.69 188.17 783.08 184.55 779.75 182.44 781 179.09 782.26 174.78 775.31 172.39 774.69 171.38 772.84 169.94 772.65 168.41 772.88 165.55 770.42 164.71 766.87 163.6 766.48 159.1 766.6 153.93 765.11 149.23 762.35 146.38 761.89 145.91 759.38 146.59 754.49 147.17 743.82 148.61 741.95 150.61 738.38 148.38 737.01 146.68 735.15 143.8 730.22 141.54 727.96 138.94 726.52 138.9 720.6 138.49 720.14 136.94 715.42 139.69 711.42 139.11 706.47 136.45 706.51 136.56 703.21 135.17 698.44 131.4 692.61 129.62 692.89 126.79 689.92 125.71 689.66 124.8 688.24 122.01 686.17 120.78 684.28 121.45 681.78 120.01 679.17 119.31 676.96 117.85 674.99 116.38 674.86 115.11 673.75 113.09 672.52 111.75 670.96 107.21 668.31 106.07 665.6 105.3 659.79 105.93 658.67 106.6 655.76 108.82 651.46 109.1 650.51 108.05 647.72 106.46 644.26 107.99 640.58 109.6 637.36 111.84 635.26 115.52 632.24 115.78 631.22 115.03 627.72 114.99 623.66 109.95 622.84 107.98 623.1 105.1 622.48 103.64 620.65 102.85 616.13 103.37 615.57 103.1 614.13 104.88 611.15 106.92 610.07 107.75 607.4 107.4 605.11 107.42 603.53 109.19 599.5 108.55 598.21 107.47 594.8 106.19 591.42 104.88 589.62 105.16 588.31 103.11 585.79 100.49 583.51 98.21 583.7 97.28 583.12 97.54 579.13 98.13 577.64 98.42 575.68 97.94 573.28 97.74 568.1 97.99 566.8 102.14 564.21 104.78 562.05 104.9 559.18 103.03 557.97 100.97 554.68 98.17 552.98 95.47 550.35 93.68 550.04 92.2 549.23 90.24 549.77 89.42 548.97 87.79 545.82 86.08 544.96 83.2 545.54 82.52 544.25 81.46 543.46 80.38 543.33 78.62 541.75 78.69 541.25 76.95 536.94 74.14 532.15 76.44 529.72 77.13 527.3 78.47 526.07 79.18 523.01 79.12 521.2 80.44 519.61 80.85 517.5 80.61 516.35 80.95 514.8 80.62 512.18 81.9 511.16 84.81 510.45 86.28 510.48 87.34 509.75 89.33 507.72 91.96 501.36 90.55 498.28 90.54 496.9 89.59 495.77 89.13 494.37 88.39 493.83 88.28 485.91 85.46 484.23 80.94 476.8 75.34 476.42 70.72 472.32 69.54 472.87 65.81 472.37 63.89 469.29 63.91 467.18 63.44 464.81 62.44 464.19 61.38 462.78 60.01 459.16 60.35 458 59.81 456.69 58.88 455.67 57.8 453.85 56.66 452.8 56.99 450.42 55.98 448.62 54.53 443.03 55.26 441.78 54.82 440.64 55.01 438.48 50.99 433.86 47.82 433.95 45.39 435.16 44.52 436.03 43.05 436.89 41.14 436.9 39.06 436.48 37.71 435.86 33.22 436.86 30.95 436.67 30.32 435.87 27.3 433.59 26.37 434.13 25.3 433.04 22.22 432.91 16.91 433.85 13.08 435.76 12.18 433.58 11.02 430.63 11.16 428.27 12.09 424.57 13.05 423.44 12.93 420.11 12.64 418.07 12.83 417.25 12.32 413.23 10.9 411.56 9.75 408.78 10.77 407.58 10.03 405.83 11.15 403.39 10.81 400.19 11.3 397 12.66 394.23 12.17 391.27 12.88 389.35 12.93 387.1 10.28 377.03 7.62 371.58 6.28 367.95 1.77 363.88 1 362.08 1.84 359.67 4.58 355.37 4.63 347.82 3.25 343.31 1.74 341.8 2.55 340.1 1.29 338.59 1.09 337.55 2.91 335.69 3.17 333.65 2.61 330.97 7.7 329.74 7.41 326.85 6.76 325.73 8.71 323.04 9.22 317.51 9.19 316.68 8.37 315.69 7.06 315.13 5.46 311.71 5.41 310.82 6.05 309.64 7.17 309.28 7.73 308.4 8.93 308.17 11.66 306.35 13.56 305.97 14.52 304.69 16.1 304.29 17.62 302.11 19.09 300.52 20.31 299.67 22.01 297.43 22.57 295.83 20.42 293.35 21.27 291.23 23.59 289.94 24.47 288.87 25.56 288.61 26.64 285.98 27 284.32 27.01 282.15 27.9 279.37 27.81 277.81 28.06 275.81 29.52 274.4 29.94 273.16 30.96 271.76 33.64 270.42 36.09 272.04 38.64 272.84 39.43 273.32 43.09 272.47 45.13 268 46.45 266.77 46.95 266.91 48.19 265.61 49.08 263.41 49.32 260.53 49.03 259.65 49.58 257.06 49.55 255.01 52.07 254.52 52.81 255.12 55.09 255.58 55.95 255.52 57.02 253.74 57.94 248.76 58.41 244.53 59.53 242.7 59.4 241.75 61.26 239.58 63.63 238.02 63.62 235.37 64.08 234.21 64.01 231.82 67.32 231.4 71.68 229.65 72.82 229.04 73.56 226.83 73.04 226.22 72.97 222.73 72.35 221.22 73.03 218.54 72.53 215.69 70.97 214.86 70.44 211.68 70.96 209.02 72.11 207.34 73.31 204.8 75.14 202.5 77.16 198.62 77.55 197.06 79.34 195.09 81.63 193.31 83.01 192.6 83.35 190.85 85.65 189.08 86.22 187.61 85.97 185.42 88.93 183.96 90.54 182.67 92.37 182.19 94.23 183.92 96.41 183.32 96.58 181.27 100.06 179.3 101.94 179.01 102.53 176.9 102.33 176.12 102.47 173.36 102.84 170.66 103.74 168.46 104.27 165.92 104.87 165.15 105.87 164.95 107.46 165.45 108.86 164.69 111.89 164.51 113.67 163.76 113.97 161.85 114.55 160.32 113.26 155.13 112.01 151.55 110.63 149.33 108.98 148.47 108.44 147.26 106.62 145.97 104.09 143.69 104.08 142.38 103.47 140.05 104.95 138.77 105.98 137.36 107.21 137.05 108.86 134.96 108.06 132.78 108.35 131.24 108.15 129.16 109.43 126.78 109.31 126.01 110.03 124.5 111.55 122.85 109.15 119.34 108.79 118 107.91 117.07 106.34 116.16 105.26 116.55 105.93 114.36 108.16 112.69 108.49 110.43 109.4 109.84 110.15 108.33 109.57 106.87 110.57 104.86 110.89 103.63 111.99 103.35 110.32 98.31 111.34 97.74 112.42 97.79 113.42 96.84 112.46 94.56 113.07 91.57 115.71 88.25 113.99 84.72 114.22 83.97 113.88 81.42 114.07 80.1 113.46 78.75 114.12 76.89 113.84 74.05 113.3 72.58 113.35 69.18 112.16 67.14 111.92 66.09 113.19 64.06 111.04 62.8 110.43 61.49 109.45 61.67 108.01 61.09 106.51 59.31 106.74 58.52 104.96 57.21 102.95 57.23 102.48 56.51 102.22 53.86 103.77 53.06 103.87 50.85 104.89 49.71 104.22 48.25 104.93 46.09 104.96 44.29 104.68 43.11 103.47 42.13 102.8 38.61 103.72 37.75 103.97 35.48 103.29 31.58 101.56 30.44 103.7 25.98 104.45 25.82 105.63 23.83 106.3 23.39 106.36 22.09 107.33 21.41 107.57 19.62 107.03 19.05 107.25 16.87 108.37 15.56 110.06 14.08 110.7 11.88 109.85 10.31 111.78 8.41 112.75 9.6 114.37 10.14 115.98 10.01 118.09 11.2 119.96 11.37 121.67 9.93 124.12 10.12 124.92 8.27 126.13 9.21 127.1 9.2 128.11 8.45 130.48 8.02 130.75 7.18 131.79 6.95 132.49 2 133.48 1.04 135.5 1 137.8 1.87 140.04 1.67 143.08 2.62 144.6 3.6 146.26 3.1 149.58 6.01 151.53 7.37 151.84 8.9 152.5 8.69 154.31 9.09 154.09 11.6 159.25 11.58 160.4 11.88 160.45 13.74 161.4 15.53 163.05 17.76 165.24 19.95 172.95 27.25 174.99 29.31 176.14 28.6 176.41 29.55 177.6 31.11 177.78 33.98 178.08 35.11 177.41 36.73 176.88 40.03 175.2 40.48 174.61 41.46 174.91 42.27 174.01 44.29 174.53 45.39 174.3 46.5 175 48 174.41 48.83 174.43 50.07 173.69 53.38 172.66 54.85 172.66 55.69 171.08 56.43 169.37 58.74 169.19 59.93 168.57 60.95 169.17 62.42 168.71 64.12 168.7 65.68 168.23 66.56 169.2 67.52 169.19 68.66 169.94 69.83 170.93 69.88 170.65 71.51 169.89 72.63 170.77 73.93 170.92 75.11 171.97 77.94 172.53 78.4 172.7 79.68 171.94 81.14 173.48 84.03 175.08 85.24 176.23 87.02 177.63 87.7 178.32 89.65 179.32 90.66 177.42 92.55 177.1 93.68 177.87 94.73 177.84 96.09 178.83 97.22 178.15 100.55 176.24 102.07 174.85 104.82 170.48 107.41 170.91 110.91 170 113.9 170.6 115.71 170.73 116.98 175.27 118.02 176.8 119.31 178.21 119.17 181.04 118.42 181.07 119.15 182.28 119.47 183.68 119.1 184.64 119.47 187.52 121.85 189.61 121.7 189.91 122.06 192.21 121.74 193.7 123.08 195.7 122.65 196.82 121.1 198.44 121.66 200.27 121.77 202.67 120.74 203.81 119.87 204.3 120.74 204.27 122.46 203.9 123.59 204.72 126.54 204.33 129.15 205.04 130.95 205.61 133.36 206.09 134.2 207.46 138.69 208.28 142.06 209.95 143.56 209.85 144.54 211.89 147.84 212.24 149.13 213.41 151.06 213.49 152.58 215.27 153.89 216.34 155.16 218.31 155.46 219.51 155.35 220.79 155.7 221.9 157.71 222.91 158.13 223.74 160.5 226.13 162.98 226.98 165.74 228.53 167.42 228.57 169.68 227.01 172.42 226.44 172.82 224.21 175.9 223.89 178.55 223.22 180.22 222.09 181.67 224.88 183.09 226.53 184.39 227.05 185.33 230 185.55 232.24 186.19 235.14 188.93 236.68 190.06 238.11 190.5 239.05 191.62 239.16 192.33 241 193.89 242.92 194.41 243.74 195.24 244.86 195.18 246.95 196.35 250.76 199.15 252.56 196.63 254.7 196.19 257.62 196.26 Z" id="34510000"/>
</g>
</svg>