<?xml version="1.0"?>
<svg xmlns="http://www.w3.org/2000/svg" version="1.2" baseProfile="tiny" width="800" height="524" viewBox="0 0 800 524" stroke-linecap="round" stroke-linejoin="round">
<g id="sigung">
<path d="M 249.42 489.34 251.01 489.3 252.89 489.94 253.09 490.64 252.67 491.81 258.93 504.48 258.89 504.65 246.48 511.56 246.09 513.14 245.7 513.51 241.63 513.5 241.18 513.01 240.03 513.77 239.72 513.23 238.48 513.37 233.28 513.62 222.53 513.98 209.89 514.57 206.87 514.63 204.66 514.9 187.67 515.5 180.85 515.82 177.15 516.06 167.77 516.41 166.37 516.41 162.29 516.73 159.12 516.88 154.48 516.9 149.13 517.12 146.02 517.13 141.92 517.41 136.53 517.5 120.05 518.13 112.63 518.45 112.6 518.53 93.76 519.3 87.29 519.54 86.24 519.5 85.85 520.06 84.37 519.98 85.53 521.21 86.82 521.83 87.32 523 84.52 522.82 83.84 522.21 82.37 522 82.5 521.38 81.22 519.88 78.68 519.77 77.99 519.93 76.87 519.48 75.93 518.55 76.8 518.12 79.94 519.07 88.69 518.81 99.62 518.35 114.98 517.74 120.01 517.5 129.89 517.17 140.55 516.71 142.25 516.56 147.52 516.36 149.09 516.22 150.73 516.36 168.76 515.63 177.5 515.14 182.11 514.73 185 514.23 186.68 513.78 189.62 512.7 188.67 514.47 193.06 514.63 199.06 514.36 201.92 514.41 216.5 513.87 225.94 513.46 226.08 513.59 236.11 513.14 239.39 513.07 239.56 512.31 240.85 508.8 240.37 506.38 239.86 504.96 239.17 504.51 239.08 503.53 240.28 501.79 241.69 499.13 242.94 496.43 243.7 495.32 244.74 494.73 246.41 490.61 247.63 488.88 248.31 488.73 249.42 489.34 Z M 310.43 484.27 311.16 484.88 309.93 485.76 309.28 485.15 309.75 484.34 310.43 484.27 Z M 290.07 472.66 290.81 472.97 291.56 473.84 291.59 474.81 294.37 476.84 295.06 476.19 296.29 475.89 296.76 474.87 298.3 474.36 299.27 474.81 300.22 476.05 301.52 476.67 301.61 477.29 305.55 483.84 306.1 484.12 306.47 485.13 308.19 484.97 308.33 486.75 307.24 487.19 305.57 489.66 303.96 489.78 303.35 490.35 302.17 490.32 301.8 489.64 293.88 489.07 293.83 488.99 294.53 480.01 293.58 478.71 294.88 478.39 294.96 477.29 291.46 474.82 289.74 474.56 289.37 474.9 287.95 474.67 287.06 474.8 286.5 474.43 286.11 473.17 287.18 472.83 288.27 472.93 288.83 472.49 290.07 472.66 Z M 266.35 465.43 266.48 466.36 265.13 467.34 264.42 468.33 263.07 468.11 263.85 466.29 264.64 466.15 265.46 465.32 266.35 465.43 Z M 257.25 457.69 256.85 458.58 257.51 459.94 256.61 460.19 255.71 459.26 256.61 457.88 257.25 457.69 Z M 192 407.24 192.6 408.78 191.78 409.36 190.36 408.76 189.83 407.53 190.53 406.82 191.36 406.77 192 407.24 Z M 302.44 397.42 303.42 397.26 304.07 398.19 304.26 399.47 303.75 400.01 301.26 399.36 300.95 398.51 301.84 398.31 302.44 397.42 Z M 283.42 391.7 284.59 392.25 285.52 392.27 287.58 392.97 286.93 393.48 285.77 393.57 285.14 393.04 284.02 393.38 283.2 392.79 283.42 391.7 Z M 280.79 356.65 280.26 357 278.99 357.05 279.51 355.95 280.93 355.8 280.79 356.65 Z M 270.6 317.37 272.53 319.05 272.38 320.17 272.92 322.11 271.62 323.58 271.08 323.71 270.57 325.19 269.09 326.86 267.63 326.81 266.31 325.94 266.68 324.73 266.34 323.97 266.06 321.99 268.33 319.38 270.6 317.37 Z M 228.74 306.29 227.61 306.38 227.14 306.93 226.34 306.23 226.35 305.55 227.74 304.67 228.95 305.48 228.74 306.29 Z M 189.7 264.76 189.67 265.59 188.67 265.68 188.49 266.32 187.04 266.45 186.78 265.69 188.22 264.16 188.97 264.76 189.7 264.76 Z M 246.01 214.1 246.35 214.85 245.53 215.58 245.77 217.5 245.3 217.82 244.42 217.19 243.54 217.52 242.82 216.86 243.99 216.43 244.12 215.6 243.42 214.17 243.7 213.54 244.98 214.01 244.97 213 245.48 212.4 246.08 212.94 246.01 214.1 Z M 239.39 205.41 239.82 206.63 238.68 207.03 238.11 206.09 238.76 204.98 239.39 205.41 Z M 224.35 183.94 225.69 184.11 224.93 185.72 224.05 186.23 222.69 185.56 223.97 183.94 224.35 183.94 Z M 189.69 171.37 190.29 173.11 188.53 173.36 187.42 172.09 187.54 170.77 188.51 170.03 189.59 170.14 189.69 171.37 Z M 194.83 167.96 194.92 169.02 193.05 168.53 191.61 169 191.8 168.13 194.83 167.96 Z M 141.65 160.63 142.96 161.7 142.91 162.6 141.66 165.09 141.52 166.1 142.41 166.85 142.75 169.21 143.24 170.04 142.05 171.02 140.05 170.73 137.58 171.83 137.11 170.69 137.11 168.98 136.26 167 136.36 164.18 136.01 163.15 137.8 162.84 138.99 162.41 139.43 160.89 140.81 160.2 141.65 160.63 Z M 49.65 157.98 47.91 155.02 46.54 153.42 44.93 151.85 45.28 151.54 47.45 153.73 48.63 155.35 49.9 157.72 49.65 157.98 Z M 43.12 142.77 42.75 143.37 41.51 144.05 40.97 143.61 40.54 142.23 41.3 141.94 43.12 142.77 Z M 1.95 134.89 2.95 136.1 4.2 137.12 4.25 138.17 4.78 138.88 5.22 140.52 5.03 142.56 4.31 142.89 4.01 143.82 3.09 143.26 3.03 141.41 2.12 140.06 1.5 139.61 1 138.09 1.8 137.4 1.52 135.09 1.95 134.89 Z M 13.67 71.78 14.52 72.08 14.7 73.02 13.47 73.02 13.19 72.29 13.67 71.78 Z M 430.26 7.24 432.39 8.25 435.25 9.96 436.64 11.53 437.08 12.81 437.03 13.52 437.69 14.6 440.12 16.57 441.64 19.35 441.66 20.92 442.81 21.09 444.53 23.95 445.3 24.73 446.52 24.98 447.16 26.25 446.7 27.32 445.9 28.21 446.59 29.9 446.66 32.65 447.59 34.33 448.46 34.56 450.28 34.61 451.68 36.34 454.32 36.89 456.48 37.9 458.42 37.82 460.96 36.9 462.22 38.05 463.45 38.05 464.86 38.72 465.96 39.83 467.27 40.74 468.1 41.69 468.91 43.26 471.47 44.16 474.72 44.64 477.26 44.22 478.15 44.98 479.61 44.86 480.43 44.03 482.36 43.77 483.38 44.07 484.42 45.4 485.67 45.43 488.38 44.86 489.67 45.96 490.42 45.69 491.47 44.57 492.42 42.73 493.17 42.74 495.02 43.28 496.49 42.02 498.78 42.66 499.82 42.34 502.32 42.76 503.48 43.14 504.27 41.73 505.17 38.64 507.84 35.61 509.87 34.33 511.2 33.28 513.59 31.7 515.25 30.43 516.65 29.74 517.56 28.44 519.27 27.92 519.83 28.37 521.16 28.35 523.09 27.98 525.21 27.32 526.4 27.89 528.5 27.18 531.38 25.37 533.07 24.65 536.09 26.5 538.83 27.28 538.95 27.87 540.11 28.72 541.01 29.72 543.46 29.13 544.82 30.43 547.58 30.49 549.02 29.79 550.33 28.63 552.16 28.27 556.53 29.16 559.19 28.67 560.83 29.15 563.27 30.29 563.94 30.28 564.71 29.32 564.12 27.59 565.1 27.55 566.15 27.91 567.8 27.61 571.04 26.51 572.11 25.36 574.76 25.29 577.35 24.2 578.86 24.47 580.57 24.01 581.73 24.78 584.79 29.34 586.49 28.16 588.07 28.01 589.55 27.17 591.94 27.59 593.12 27.98 595.61 27.78 597.13 29.1 600.62 27.69 602.75 27.76 604.06 27.25 606.41 26 607.46 25.89 607.97 24.97 610.31 24.48 611.86 24.59 614.25 23.88 617.43 24.41 619.63 27.57 621.85 27.91 623.23 28.93 624.69 28.77 626.42 29.42 629.6 30.1 631.06 30.56 633.35 30.07 633.33 30.67 634.07 31.92 638.71 31.48 639.74 34.11 640.02 35.45 640.51 36.15 641.61 36.54 642.18 36.04 643.79 35.55 644.13 37.39 645.02 39.38 644.51 41.11 643.51 42.55 644.42 44.86 644.41 45.92 644.76 46.96 644.69 48.4 645.72 49.45 646.24 50.51 645.68 51.42 645.46 53.73 646.1 55.06 647.39 56.08 647.99 57.26 648.29 58.63 646.34 59.11 643.98 59.93 643.46 59.55 642.76 58.29 642.58 57.43 639.79 56.78 638.42 58.95 636.67 64.81 636.89 65.94 639.42 70.7 640.13 72.44 641.47 75.2 642.55 76.06 643.15 77.46 643.19 79.25 643.61 80.65 641.78 81.29 640.82 82.55 640.81 84.23 643.09 85.73 643.4 86.99 643.87 87.23 644.43 88.45 644.2 90.49 642.44 90.33 641.4 90.85 641.58 92.56 640.57 93.15 640.77 94.7 641.45 95.81 641.32 97.66 643.42 99.99 642.64 100.79 642.17 103.31 641.17 104.1 641.59 105.51 642.52 106.8 642.41 107.47 643.46 108.73 642.48 110.43 642.48 111.43 640.13 112.26 639.96 114.36 639.64 115.81 640.4 117.11 639.94 118.4 640.06 119.65 639.52 121.64 635.99 124.88 636.4 126.65 636.04 127.08 634.91 129.77 636.32 131.01 637.56 131.35 638.55 132.4 639.66 133.14 640.05 133.91 639.63 135.39 639.64 136.34 639.24 137.88 640.07 139.43 639.36 141.68 639.63 143.27 641.8 142.79 643.81 140.44 644.97 140.05 647.01 140.74 647.83 140.61 649.18 139.84 649.41 138.53 650.55 137.42 652.45 134.87 654.24 133.55 656.97 132.06 657.38 134.56 658.17 135.45 661.42 136.18 663.11 136.78 663.35 138.45 664.68 139.31 667.34 140.08 669.18 141.27 672.33 142.42 673.06 142.91 674.93 143.45 676.24 144.31 676.89 145.24 677.85 145.37 679.94 144.56 681.68 144.96 682.32 145.95 683.91 146.58 684.8 146.7 685.85 147.45 687.33 147.04 688.9 145.79 691.56 146.58 692.89 147.46 691.28 154.4 692.42 156.18 693.97 157.39 694.49 158.54 696.91 160.19 696.51 161.36 698.79 161.87 700.69 162.98 701.24 165.85 701.82 167.1 703.11 168.88 703.63 170.13 705.05 171.55 707.41 171.68 708.97 172.24 709.54 173.01 711.1 174.06 712.92 175 713.74 176.54 714.15 178.64 715.23 180 714.94 181.41 715.54 182.4 716.74 182.87 717.74 183.8 720.09 184.48 722.05 184.09 723.85 185.03 724.62 185.83 724.95 187.35 726.17 189.09 727.33 189.04 727.23 191.04 727.86 191.74 729.22 192.46 731.31 192.54 731.98 192.97 734.35 193.01 735.18 194.2 735.39 197.18 735.86 198.57 735.65 198.99 735.93 201.62 736.35 202.49 736.84 205.43 736.81 210.39 736.6 210.82 737.07 212.06 736.8 215.73 735.73 219.99 736.11 220.94 736.1 222.86 730.6 223.28 730.53 223.77 729.5 224.77 729.08 228.64 730.07 231.82 729.55 233.14 729.68 235 728.86 236.37 728.74 237.17 727.91 238.27 728.8 241.39 729.09 244.23 729.56 244.68 731.24 245.45 730.62 247.45 730.73 248.48 730.22 249.48 730.23 251.62 730.86 253.73 730.65 254.81 731.56 259.9 731.75 261.99 732.41 263.84 733.68 268.88 733.56 270.66 732.99 271.37 733.03 272.93 731.6 274.37 732.56 275.76 732.95 276.71 733.71 277.34 736.01 278.66 736.7 279.24 736.93 280.07 736.33 281.05 736.61 282 738.56 282.22 738.75 283.81 738.08 284.21 737.69 285.17 738.15 286.9 738.98 288.41 742.05 290.91 743.28 291.17 744.1 291.93 745.04 292.27 746.87 291.55 748.75 291.22 749.5 291.53 750.56 292.6 750.46 293.41 749.59 294.58 747.6 295.74 748.04 297.11 750.05 297.57 751.2 298.38 751.62 300.86 752.08 302.14 754.04 301.94 756.33 302.17 757.38 302.56 758.27 302.47 759.98 301.28 760.14 300.87 759.61 299.08 760.44 297.32 761.47 296.7 763.28 297.43 764.55 298.77 764.25 300.34 764.41 300.98 766.95 302.57 767.71 303.41 768.86 305.9 769.3 306.54 770.07 308.49 770.05 310.58 771.06 310.94 771.47 310.52 772.11 308.81 772.54 306.77 773.32 305.7 774.25 305.53 774.98 305.81 776.7 306.99 777.75 307.21 778.16 306.36 777.86 304.47 778.75 302.22 780.32 301.65 782.05 301.74 783.87 302.98 784.98 304.06 799 309.74 798.43 320.35 792.67 333.05 787.49 336.82 786.5 337.37 784.03 338.69 764 345.73 751.92 350.98 735.85 357.01 732.41 357.69 713.47 359.79 695.67 364.69 691.07 368.95 685.27 380.23 681.29 386.59 677.83 390.82 669.21 400.72 664.04 404.23 657.73 406.35 639.36 409.83 624.43 411.21 594.58 415.39 589.41 416.08 583.67 418.89 579.09 422.33 572.74 425.24 562.4 424.53 546.92 425.18 544.63 425.87 540.59 432.23 538.27 437.17 535.9 443.5 532.41 456.95 531.34 460.31 528.94 467.74 526.72 474.35 523.24 484.47 520.56 490.25 516.71 488.72 511.38 486.09 507.62 483.13 504.49 486.08 502.39 488.21 500.85 490.64 498.98 490.14 497.85 490.36 496.31 490.14 495.75 491.05 494.73 491.12 494.42 492.03 493.07 491.71 492.97 490.73 493.26 489.65 491.71 489.15 490.27 489.8 487.69 489.58 486.84 488.74 485.46 489.86 485.03 489.27 486.26 488.18 484.57 487.17 478.52 484.5 471.3 481.52 465.14 479.11 461.16 477.42 460.01 477.97 458.61 477.8 457.65 476.87 456.09 476.94 454.45 476.23 453.08 478.3 452.75 478.31 450.57 476.86 450.22 475.95 450.82 474.73 449.29 474.03 448.42 475.43 447.8 474.82 441.96 474.52 437.99 474.2 438.01 473.71 441.55 473.99 441.67 472.43 437.38 472.1 437.22 474.13 434.43 473.92 432.91 473.35 419.95 472.5 419.66 473.6 412.07 473.65 411.84 473 411.91 470.72 411.06 469.19 408.75 469.33 407.32 468.96 404.96 468.71 402.83 468.87 400.84 468.33 397.86 468.02 395.4 469.23 392.95 469.76 390.22 472.16 389.02 474.14 388.32 474.82 387.94 475.89 386.78 475.78 383.5 477.1 381.3 478.46 380.34 478.65 379.99 479.6 379.1 480.11 377.66 479.35 375.27 478.77 374.37 477.5 374.62 476.38 373.86 475.72 372.69 475.3 372.12 475.57 371.34 475 369.96 476.05 365.8 476.51 364.67 475.83 364.15 469.77 364.7 469.72 365.16 475.01 365.65 475.42 369.12 475.12 368.57 468.61 366.01 468.83 365.95 468.14 368.91 467.8 368.79 467 364.82 467.26 364.2 463.56 363.55 463.45 363.87 461.94 365.05 461.93 365.59 460.91 366.77 457.1 367.18 456.15 367.91 455.87 368.32 454.7 367.52 453.66 369.1 453.08 370.54 453.56 371.07 453.06 371.94 450.54 371.03 450.06 371.13 445.66 371.53 439.67 371.48 438.04 371.06 436.21 370.26 434.86 370.21 432.98 369.56 429.63 369.47 427.83 369.06 425.05 368.45 422.59 367.63 421.2 366.99 420.63 364.7 420.53 363.74 420.08 363.38 419.22 362.3 418.35 361.93 416.73 364.41 416.53 367.01 417.76 368.89 417.24 370.85 416.89 371.74 416.45 371.53 415.71 372.73 415.55 373.14 416.17 374.4 416.94 376.08 417.42 380.78 411.49 378.02 406.81 377.44 405.69 374.28 403.34 373.43 401.72 370.89 397.69 369.39 393.75 368.08 390.59 366.87 389.9 366.12 388.27 366.2 387.52 362.87 383.64 361.09 380.72 361.35 380.08 359.88 377.8 358.52 376.41 354.99 373.91 352.09 372.6 350.78 372.46 348.92 371.82 348.52 372.33 346.08 372.1 345.19 372.63 343.84 372.41 342.63 371.8 341.6 370.38 341.49 369.52 340.18 365.9 338.65 362.7 336.31 360.68 335.34 360.28 334.46 360.41 334.17 359.48 334.22 358.15 335.15 357.04 335.09 356.39 332.7 357.78 330.6 360.17 328.74 361.78 321.92 364.4 320.25 364.98 313.87 366.85 313.62 366.7 320.66 364.68 328.4 361.77 330.21 360.37 332.89 357.39 334.12 356.87 334.81 355.98 333.47 353.67 332.37 352.82 331.77 353.27 330.47 353.06 329.55 353.25 329.31 352.25 329.9 351.73 330.8 352.52 331.81 351.66 331.44 350.75 329.36 347.64 328.46 348.74 327.2 349.34 325.73 349.39 325.28 348.74 323.68 347.64 322.59 347.8 322.15 347.42 320.34 347.46 318.59 348.39 317.73 349.58 320.6 350.05 320.8 350.34 325.01 350.68 325.38 351.43 322.37 350.86 320.58 350.91 319.77 350.65 317.79 350.84 316.03 350.61 313.93 349.43 312.62 349.27 309.5 350.22 308.34 350.7 308.12 349.82 306.63 350.32 306.02 352.93 304.27 353.89 303.05 352.44 303.41 351.46 304.75 349.63 306.67 349.71 307.15 349.12 307.2 344.74 306.73 343.02 306.38 340.72 305.41 327.42 305.14 326.89 305.09 319.94 305.65 314.74 305.9 310.84 305.9 307.02 305.54 304.42 305.18 303.41 305.15 301.75 304.1 297.88 302.65 293.87 301.1 290.87 299.22 288.49 297 286.13 295.32 286.46 292.95 285.61 292.29 285.89 291.04 285.49 289.01 285.37 287.95 285.95 287.33 287.42 287.32 288.93 286.17 291.32 285.14 292.17 283.74 292.74 283.33 293.82 280.63 294.8 279.96 293.7 279.26 294.1 278.31 293.19 279.27 291.36 279.19 290.21 278.33 289.53 278.1 288.57 280.14 287.86 280.49 286.62 280.67 284.76 281.28 283.34 281.99 283.8 283.04 283.83 283.83 283.47 285.52 284.86 286.33 284.81 287.61 283.35 288.18 281.62 288.44 280.06 288.53 278.16 288.38 276.8 289.25 275.59 290.8 276.26 291.55 275.73 292.29 276.45 292.79 277.6 294.75 278.26 295.95 278.24 296.46 278.99 297.8 279.09 298.12 280.09 299.8 280.44 302.3 282.84 304.04 282.77 305.32 283.12 306.82 282.87 308.8 281.61 312.12 278.54 312.72 277.18 313.87 276.94 315.12 275.36 318.13 273.4 319 272.67 321.76 272.46 323.1 270.98 324.13 270.46 326.15 269.99 329.35 267.12 330.81 264.17 331.71 263.9 333.03 263.94 334.03 264.73 334.39 266.59 335.96 265.7 334.89 263.97 334.77 262.32 334.93 259.91 334.56 258.29 332.88 255.3 331.52 252.3 331.48 251.63 328.98 251.75 327.94 252.22 327.52 252.91 327.45 254.22 324.51 254.82 324.14 256.35 323.06 259 322.57 259.69 321.31 259.67 319.91 258.5 319.13 256.92 318.58 256.51 317.71 256.72 315.93 254.57 314.69 253.55 311.79 253.3 311.5 253.66 308.8 253.34 308.08 254.48 307.66 254.45 306.77 255.72 306.39 257.51 304.52 258.08 303.77 257.48 302.72 257.72 302.47 256.95 302.75 255.14 302.29 252.46 302.8 250.87 304.03 250.65 305.34 249.95 306.49 245.3 306.06 242.18 306.47 241.83 305.46 239.38 305.01 237.85 303.66 236.58 303.74 235.98 302.85 235.64 301.66 237.32 300.16 235.75 295.98 234.66 287.7 232.29 286.86 232.5 285.78 232.03 283.48 230.61 282.47 230.32 281.93 230.81 280.8 230.2 276.67 230.27 274.1 230.81 273.52 231.85 273.24 233.56 272.71 235.47 271.99 236.27 269.7 240.8 268.79 242.78 268.04 243.75 268.48 244.44 269.79 245.21 269.36 246.21 267.07 245.14 265.42 248.67 264.04 248.3 265.27 245.69 264.44 244.99 263.88 245.01 261.59 241.25 260.66 240.69 260.5 239.78 258.01 239.02 256.18 238.67 255.56 238.04 253.75 238.82 252.28 238.48 251.86 237.41 253.72 235.8 254.35 234.86 255.18 234.58 255.13 232.13 256.56 230.12 256.51 228.6 256.05 227.44 254.99 223.95 254.71 222.47 253.62 219.3 252.5 216.93 251.39 215.46 251.18 214.49 251.68 213.79 250.09 209.86 248.88 208.32 249.49 207.38 250.91 207.24 252.44 206.75 253.45 208.53 254.91 209.12 253.51 204.99 252.82 205.14 250.05 206.71 248.86 207.13 248.71 207.73 247.42 208.52 247.39 209.4 246.75 210.26 245.71 210.31 245.36 209.9 245.31 208.52 244.41 208.58 243.23 207.95 243.19 207.32 243.78 205.94 244.85 205.07 243.63 200.76 242.16 197.03 240.95 193.49 239.63 190.22 238.65 188.12 238.4 186.93 236.55 184.04 235.03 182.25 233.97 181.63 232.68 181.53 231.78 179.64 231.46 178.39 230.03 176.44 229.06 175.58 229.03 174.09 228.66 173.11 227.14 171.16 225.7 170.36 225.68 169.14 225.27 168.61 225.85 167.86 225.48 167.28 223.45 165.48 222.66 165.12 221.76 163.09 221.81 162.25 220.99 161.73 220.24 162.24 219 162.29 218.31 161.03 210.54 157.29 209.31 156.97 207.37 157.18 205.86 156.92 204.74 156.23 203.91 154.51 203.34 152.71 201.64 150.46 198.82 146.27 198.03 145.45 196.08 144.08 194.37 141.27 191.66 139.23 190.81 138.25 190.53 137.35 189.23 137.53 186.06 136.06 181.39 134.41 178.23 133.65 177.84 132.36 175.45 134.09 173.53 135.17 173.07 136.24 172.89 138.99 173.24 140.39 173.22 141.73 172.92 143.43 172.98 144.65 173.53 146.55 172.95 147.95 173.1 149.89 172.31 150.33 171.56 149.64 171.5 148.49 170.35 147.58 170.15 146.83 168.77 146.33 166.77 146.09 164.81 146.89 163.4 147.79 163.13 149.37 163.59 151.92 162.65 153.27 160.02 153.95 159.01 153.78 157.98 154.3 157.63 155.68 158.02 156.13 157.59 158.58 156.64 160.71 155.4 161.02 154.18 161.69 153.95 161.03 152.92 161.37 151.34 161.18 150.08 162.82 149.07 163.09 147.87 161.26 147.82 160.1 147.38 159.5 147.88 157.53 148.47 156.28 147.82 155.28 147.86 153.2 146.71 152.85 146.38 152.27 146.49 151.05 147.06 150.49 146.43 148.79 147.03 147.8 146.68 146.2 145.07 143.49 142.07 139.29 137.61 133.92 134.08 130.32 130.97 126.96 128.31 124.23 125.64 121.85 124.39 120.87 118.01 116.36 117 115.17 115.59 114.83 114.32 113.52 111.7 112.09 107.32 110.2 103.8 108.92 99.13 107.55 93.48 106.43 87.68 104.76 87.52 104.45 84.61 103.74 83.21 103.16 78.2 102.3 75.69 102.21 74.11 101.98 70.79 102.22 69.76 102.91 68.74 103.21 66.25 102.74 61.77 103.24 60.31 103.6 55.99 104.37 53.61 104.94 48.45 106.73 47.98 107.52 46.89 107.95 46.61 109.06 45.91 110.35 45.8 111.48 46.18 113.6 47.18 113.8 47.64 114.35 47.16 115.19 46.51 115.32 42.09 119.06 41.76 119.56 42.12 121.28 41.85 122.17 39.73 125.04 38.44 125.95 37.72 126.76 36.41 128.74 35.74 130.41 35.95 132.02 37.46 135.45 38.32 136.27 39.04 137.57 39.88 141.04 39.21 143.85 39.38 145.48 40.06 146.01 43.28 145.69 43.49 147.52 45.42 147.44 46.72 148.95 46.32 149.69 44.85 148.42 43.19 148.19 41.44 148.4 41.4 149.39 39.88 149.66 40.51 155.13 40.8 155.22 41.77 158.74 41.79 160.36 44.57 160.86 44.76 159.93 45.46 160.04 45.33 161.01 46.56 161.24 47.03 161.74 48.56 161.39 51.44 159.45 51.84 160.09 48.87 162.08 46.99 162.51 41.45 161.63 40.91 162.16 39.91 161.84 39.35 162.1 37.75 161.09 36.02 160.27 35.62 159.61 34.51 158.77 33.18 158.37 32.02 156.11 31.16 155.74 30.57 154.29 29.71 153.95 28.79 151.92 27.98 154.61 27.16 154.18 27.59 152.71 27.51 150.46 26.28 150.54 24.9 150.94 24.55 150.03 21.66 150.01 21.41 149.5 21.46 146.93 20.94 146.32 19.98 144.41 19.71 143.04 18.81 141.43 19.23 140.89 18.89 139.98 18.69 138.36 19.21 135.89 19.43 126.94 19.58 118.79 18.51 118.23 17.83 117.29 17.92 115.46 18.44 114.84 19.57 114.56 19.6 111.47 19.21 90.48 19.07 85.4 18.23 83.99 17.79 82.23 18.63 81.84 20.37 81.99 21.06 82.7 22.22 83.1 23.13 82.91 23.44 84.6 26.06 85.52 26.94 84.94 29.59 84.86 30.24 83.55 31.26 83.12 32.14 83.66 38.88 80.17 40.55 78.22 41.57 78.5 39.25 80.86 33.32 83.92 34.27 87.32 35.62 86.95 35.74 87.4 34.41 87.78 35.34 91.09 37.38 91.06 41 88.24 39.96 86.9 40.52 86.47 41.73 87.42 43.4 86.01 46.45 83.73 45.94 83.14 43.25 80.82 44.19 79.47 44.95 79.67 43.97 80.8 46.47 82.89 48.16 83.43 49.63 82.42 50.45 81.48 51.23 82.02 54.7 86.99 55.54 86.81 58.93 85.05 60.56 84.09 61.5 82.71 60.49 81.36 60.05 79.8 60.87 78.89 62.66 78.98 63.91 80.51 64.49 81.57 65.8 81.97 66.51 83.35 67.96 85.16 68.92 85 71.47 83.47 73.14 81.91 76.6 77.24 78.69 74.93 80.19 72.79 81.71 70.33 84.56 66.11 84.83 64.91 86.08 63.1 86.62 61.83 86.74 60.61 87.23 60.11 88.01 58.32 87.24 56.98 86.71 55.29 86.65 53.92 86.96 53.26 85.13 51.1 85.18 49.74 86.05 48.62 86.95 48.49 88.15 47.26 88.97 48.29 89.14 49.58 89.87 49.3 90.99 48.24 89.98 46.79 89.21 46.85 89.13 45.93 90.42 45.91 93.03 44.89 91.93 42.54 90.89 42.57 89.44 43.09 88.68 42.29 88.73 40.67 88.55 38.72 88.01 37.37 87.22 36.16 83.72 28.57 82.82 26.39 82.46 23.4 82.39 21.22 82.55 19.86 83.24 17.3 84.64 14.35 85.53 13.04 86.89 12.85 153.24 3.55 166.2 1.72 168.61 1 172.89 2.21 180.56 9.71 194.41 34.55 199.27 38.05 207.24 40.64 217.63 43.54 225.61 45.3 228.26 46.12 230.38 45.43 235.55 44.86 236.28 44.89 239.71 43.97 241.52 44.65 242.53 45.54 243.65 44.86 245.87 47.85 246.7 48.18 247.63 49.13 248.68 49.05 249.82 48.57 250.96 49.01 252.06 48.82 253.18 49.09 254.45 49.84 256.82 50.41 257.53 51.78 258.81 52.86 260.17 52.97 260.77 52.55 262.38 50.75 265.02 49.31 266.78 49.48 267.67 49.93 270.42 52.58 270.99 51.67 274.21 50.88 275.53 48.74 276.28 47.23 278.63 45.86 280.48 45.1 282.35 46.59 283.33 46.85 284.56 46.57 286.48 48.21 287.39 49.37 288.24 50.05 291.16 49.67 292.2 48.32 294.18 49.18 295.57 50.04 297.39 49.2 298.42 49.07 299.78 49.27 300.55 48.75 300.94 47.01 304.13 44.58 304.91 43.09 306.17 42.42 307.92 43.02 309.52 43.28 311.42 42.8 312.11 42.9 314.11 41.85 315.68 41.51 317.18 41.79 318.87 41.76 321.21 42.33 323.24 41.46 324.25 41.64 326.04 39.75 327.93 39.47 329.5 37.13 331.35 37.61 333.45 38.37 335.45 37.58 336.88 35.51 337.04 35.01 338.04 34.69 338.99 34.95 340.3 34.6 342.81 33.6 344.12 33.84 345.62 33.63 346.48 32.52 346.66 31.8 347.92 31.55 348.75 30.43 352.74 30.01 354.6 29.57 356.94 29.53 359.99 30.51 359.61 31.25 358.93 33.84 359.94 35.45 359.88 36.54 360.32 37.33 361.76 38.25 363.74 37.4 365.72 37.26 366.94 37.66 368.6 38.59 370.62 38.96 371.76 39.44 373.75 40.89 374.63 40.2 377.22 41.84 378.33 42.88 379.31 42.53 379.93 41.72 381.31 41.26 382.6 40.21 383.54 38.79 385.43 38.64 387.31 38.03 388.24 38.09 389.57 36.59 391.99 36.41 393.02 35.65 394.42 33.84 395.65 32.93 396.5 31.17 397.27 30.02 399.63 28.17 401.19 27.97 403.74 28.37 405.65 26.94 407.05 26.74 406.93 25.7 407.8 24.67 408.33 21.74 408.66 21 410.08 19.15 411.21 16.82 411.73 15.38 413.05 12.98 413.54 13.11 415.06 11.51 415.85 11.45 416.68 10.05 419.94 10.86 423.69 9.72 424.48 8.34 426.06 9.32 426.8 9.39 428.06 8.59 428.86 7.73 430.26 7.24 Z" fill-rule="evenodd" id="34540000"/>
</g>
</svg>