<?xml version="1.0"?>
<svg xmlns="http://www.w3.org/2000/svg" version="1.2" baseProfile="tiny" width="800" height="608" viewBox="0 0 800 608" stroke-linecap="round" stroke-linejoin="round">
<g id="sigung">
<path d="M 35.18 429.32 33.44 430.05 32.38 431.69 32.8 432.49 34.18 433.25 36.87 433.54 37.35 432.4 39.02 431.7 40.6 432.68 40.45 433.46 38.4 435.54 37.4 435.68 36.96 437.7 37.49 439.21 39.64 441.46 41.57 441.76 42.56 443.49 38.6 443.85 38.03 444.32 35.71 444.76 35.49 446.55 34.48 446.62 32.56 444.63 31.61 444.7 31.32 443.52 33.37 442.27 33.24 440.4 34.67 440.37 36.13 439.83 36.59 438.12 35.63 435.78 34.2 434.66 30.22 435.97 28.99 436.03 27.82 433.64 26.45 432.58 26.09 431.16 26.72 430.16 27.54 430.18 29.18 431.83 31.24 430.99 31.07 429.2 31.53 429.05 32.86 429.8 35.18 429.32 Z M 16.09 427.77 17.05 428.11 17.42 428.82 16.61 429.51 15.17 428.99 14.73 428.02 16.09 427.77 Z M 6.98 419.53 6.62 420.32 5.06 419.85 4.55 418.93 4.77 417.95 6.09 418.03 6.19 418.92 6.98 419.53 Z M 14.81 409.01 15.41 409.77 15.67 411.26 16.62 412.46 17.51 414.05 17.93 415.83 17.56 416.74 16.36 416.66 15.39 416.03 14.02 416.39 13.77 416.99 12.11 417.9 11.74 416.68 11.15 416 12.06 415.38 12.13 414.57 14.24 412.42 14.42 409.07 14.81 409.01 Z M 4.13 410.26 3.42 411.82 2.51 412.9 1.37 412.44 1 411.46 1.69 410.11 1.8 408.56 3.58 407.38 5.3 408.72 5.53 409.55 4.13 410.26 Z M 85.67 347.31 85.54 347.23 87.9 339.86 88.07 339.88 85.67 347.31 Z M 799 395.55 797.59 397.11 795.97 400.39 794.68 404.68 793.72 406.43 792.49 407.81 791.26 409.97 790.36 412.4 789.97 416.48 789.87 419.27 790.4 422.22 787.13 426.55 785.76 428.67 785.49 430.33 786.32 433.65 787.75 436.44 788.49 437.54 790.6 438.21 792.6 439.79 792.76 440.48 792.08 441.91 791.05 443.17 789.64 443.84 786.74 444.47 783.91 445.79 783.14 446.79 782.47 449.15 781.68 453.39 782.06 456.34 781.85 458.54 781.36 459.48 780.21 460.72 777.05 462.85 773.14 464.81 772.06 465.57 770.76 467.28 770.64 467.97 767.01 471.83 765.33 473.9 764.37 475.89 762.25 478.32 760.47 481.11 757.8 483.27 757.05 484.23 755.7 485.12 753.17 485.55 752.32 485.29 752.23 483.66 751.2 483.59 750.52 482.39 751.27 481.65 750.2 480.7 748.47 480.94 746.27 482.68 745.55 485.34 745.33 486.82 743.79 487.99 743.19 489.16 742.87 493.6 743.15 494.22 742.37 498.05 740.63 500.36 738.81 502.51 737.37 504.46 736.78 506.35 735.83 508.05 735.96 509.75 736.44 511.69 735.99 513.5 735.06 515.23 733.33 516.74 732.08 518.22 731.39 519.56 729.82 521.26 729.68 522.94 730.18 524.26 730.92 525.16 732.42 525.66 734.67 527.31 736.63 528.47 736.97 529.53 738.03 531.47 738.35 533.38 738.14 536.89 736.29 537.09 734.2 536.51 732.82 536.68 731.3 537.89 729.43 539.02 727.92 541.14 727.66 543.93 726.75 545.71 724.15 550.01 723.63 552.13 724.07 553.7 723.67 555.33 722.74 556.47 721.66 558.62 720.65 561.44 719.5 563.45 716.09 564.56 715.21 566.15 715.19 568.23 714.36 571.72 712.4 572.03 710.43 571.52 709.81 570.06 710.27 569.07 708.62 566.48 706.79 564.94 706.22 563.87 704.65 563.34 704.21 561.89 703.02 560.46 702.03 559.75 701.05 557.67 700.55 556.07 701.13 555 698.13 551.09 696.1 551.03 694.76 551.89 693.52 552 692.34 550.87 690.42 550.38 688.95 549.3 686.48 548.08 682.54 550.89 679.1 548.39 678.98 547.25 677.44 546.74 675.73 546.65 674.5 544.7 673.37 543.93 672.3 544.05 670.48 545.32 668.92 545.06 666.58 545.74 662.3 546.43 662.54 548.41 660.25 549.14 655.6 552.17 651.96 553.04 649.52 554.08 648.8 555.1 644.61 554.13 642.07 553.21 640.72 553.43 639.97 554.03 637.76 554.16 635.38 553.23 634.07 553 632.25 553.78 631.38 555.22 630.61 555.77 630.42 556.84 629.17 558.78 628.33 560.6 627.33 562.03 624.89 564.15 623.52 565.72 621.8 566.03 620.82 567.06 618.14 568.41 615.41 569.18 614.2 569.92 614 571.3 612.16 573.54 611.86 574.68 610.19 575.32 608.51 577.11 605.99 578.51 603.41 578.6 602.44 579.13 601.72 579.02 599.1 580.6 597.54 581.95 596.64 582.13 595.47 583.51 593.68 583.56 592.7 584 590.01 586.56 587.69 588.96 586.31 589.83 584.4 591.66 583.68 593.17 582.18 595.52 581.33 595.61 580.02 596.68 577.85 596.96 576.98 598.76 575.36 599.65 573.83 600.1 570.95 599.36 569.52 600.68 567.79 600.7 565.75 601.81 562.59 601.05 560.6 601.69 558.62 601.17 555.57 599.77 551.93 599.64 549.65 598.76 548.04 601.09 547.4 602.32 546.54 602.86 544.91 603.06 543.34 604.19 539.5 605.14 536.99 605.6 536.32 606.18 534.53 607 530.41 604.82 529.22 602.9 527.58 602.03 525.58 600.01 525.53 598.82 524.85 597.02 524.82 594.88 524.24 593.2 524.39 591.2 525.6 586.98 524.15 586.53 521.82 584.94 519.76 585.15 518.07 586.51 516.08 587.05 513.39 588.32 510.15 589.04 508.61 588.48 507.66 587.22 507.17 587.53 504.36 587.14 501.44 587.23 497.67 588.6 496.67 589.45 492.69 589.34 491.57 590.26 488.73 590.98 487.04 590.68 483.78 587.19 479.1 587.22 478.91 586.83 478.85 584.12 477.77 581.9 477.82 580.63 477.22 579.87 477.03 577.75 477.78 576.64 477.32 575.44 477.64 572.82 476.57 570.09 475.22 568.5 473.3 566.99 473.78 561.57 473.54 560.03 472.22 558.82 466.53 558.39 461.54 557.58 459.56 558.52 458.11 558.5 457.15 557.46 455.13 557.75 453.62 557.47 453.08 555.25 452.01 555.26 450.87 553.31 449.33 552.82 448.03 552.01 444.76 550.48 444.83 548.45 443.99 547.88 443 546.45 441.3 544.88 439.39 542.73 439.7 541.47 438.56 539.01 435.43 536.04 434.42 535.41 437.36 530.18 439.84 523.15 439.99 521.75 439.64 521.06 438.01 520.02 436.91 518.13 437.6 517.31 437.92 515.88 439.59 514.16 440.37 513.02 440.18 512.49 440.76 510.94 442.97 509.07 443.01 508.46 444.01 507.36 443.65 506.27 442.96 506.36 440.17 507.89 440 508.48 438.24 510.88 435.8 514.89 435.79 516.29 435.29 518.09 435.53 518.65 435 519.69 435.35 523.78 435.86 526.38 434.54 531.62 432.46 532.83 431.89 532.85 425.98 540.83 424.18 541.78 425.11 543.55 424.52 545.46 422.71 546.41 421.11 543.41 407.23 550.76 404.11 551.38 398.28 552.07 397.4 545.55 397.15 544.76 398.52 542.61 398.98 541.51 399.36 538.53 400.74 535.42 401.54 535.42 401.71 534.15 400.87 533.25 401.57 532.12 405.05 524.51 404.15 523.5 402.42 523.93 401.27 519.95 400.59 519.25 400.18 518.02 398.12 516.46 397.7 515.85 396.93 513.65 395.05 512.04 395.18 510.77 396.77 510.27 396.08 509.05 395.23 505.58 393.82 505.44 393.7 502.29 394.53 500.48 393.82 498.55 393.02 497.84 392.97 494.82 391.63 492.78 390.95 490.73 390.77 489.5 386.99 487.46 385.38 484.38 384.63 483.33 384.14 481.99 383.89 480.42 383.93 478.53 385.58 473.74 384.94 472.83 384.08 472.42 383.12 470.94 380.43 468.55 379.65 467.34 378 466.59 374.92 468.34 372.6 471.17 370.38 472.53 366.29 472.66 364.68 472.31 363.54 474.12 360.64 474.72 358.6 475.6 356.39 477.22 354.93 476.76 353.51 477.82 348.79 478.46 348.5 479.32 347.22 479.7 343.88 482.65 342.52 482.32 341.11 481.57 338.83 483.66 337.71 485.49 335.79 486.22 334.33 484.78 333.75 482.77 332.66 480.44 332.52 482.25 332.08 483.19 328.38 482.78 324.45 483.91 322.77 482.81 322.41 481.03 322.92 479.5 322.8 478.87 321.57 477.49 321.06 475.73 320.43 474.91 320.74 474.07 321.79 472.96 322.13 470.39 322.56 469.41 322.19 468.33 320.57 467.59 319.16 467.75 318.32 469.01 316.15 471.64 312.95 468.39 312.93 464.42 312.78 461.37 313.11 459.81 312.51 458.88 311.53 454.43 310.61 453.12 309.25 450.57 308.87 449.06 308.84 442.81 308.43 442.07 308.44 438.51 309.1 437.6 310.52 436.8 312.98 436.71 313.1 436.17 310.56 436.23 307.98 436.87 308.58 432.42 308.35 430.03 307.67 426.59 307.27 426.57 307.05 424.14 307.3 422.57 305.36 422.65 305.37 426.69 306.45 428.97 306.72 430.11 306.43 435.29 305.9 437.16 301.08 435.94 300.87 436.56 305.4 437.48 306.39 438.77 305.28 445.66 304.89 446.32 307.86 451.86 310.05 458.63 310.31 460.56 307.42 463.35 307.57 464.71 307.32 465.76 305.97 468.8 304.77 470.22 303.99 470.58 300.11 473.39 298.96 473.5 293.52 473.15 279.49 470.59 278.51 468.4 276.8 467.46 275.37 467.4 271.53 466.26 270.29 465.72 268.67 464.64 262.5 460.04 261.78 459.18 260.28 456.72 257.69 455.54 256.67 454.68 255.86 453.48 255.62 451.93 253.69 450.47 252.23 448.08 252.19 445.83 251.28 446.02 251.15 444.18 248.73 442.52 248.49 443.3 247.51 443.04 245.19 439.94 244.63 438.59 243.21 437.8 242.23 436.78 242.31 435.45 238.23 433.4 238.04 432.23 236.33 431.35 235.82 431.38 234.26 432.47 232.31 432.14 228.68 429.18 227.39 429.49 225.22 428.26 224.68 426.89 223.01 426.5 219.63 425.32 216.02 423.87 213.45 423.47 212.03 423.07 211.02 421.76 210.26 421.57 209.31 419.78 208.11 420.42 207.01 422.66 207.1 423.53 206.27 423.86 204.74 423.6 202.55 424.49 201.05 425.35 200.53 424.06 200.97 422.72 202.52 420.69 202.91 419.22 204.5 418.01 199.73 414.85 199.84 414.12 201.22 413.49 199.91 412.76 199.54 413.94 198.69 414.23 197.81 413.28 196.5 411.03 194.6 409.53 192.65 409.08 190.48 409.07 189.32 408.81 189.4 410.31 188.83 410.35 188.74 408.75 186.7 407.5 185.64 406 186.36 405.74 187.47 407.4 188.19 407.24 187.25 405.45 185.94 403.95 184.88 404.53 183.83 402.89 181.99 401.04 176.52 400.29 174.36 401.46 172.91 403.17 171.56 406.28 171.48 406.81 169.59 408.82 168.3 409.54 164.69 410.73 162.11 413.13 159.12 416.27 158.51 417.07 155.84 422.37 152.2 427.06 150.34 428.76 148.65 429.34 145.74 430.97 145.12 431.77 139.06 435.95 138.75 440.24 136.43 441.12 135.32 442.06 133.54 442.73 133.37 447.16 133.67 449.85 132.27 450.55 131.2 449.92 128.81 449.86 127.31 447.86 127.98 447.48 129.05 448.93 131.65 448.97 131.49 445.01 129.59 444.9 128.46 446.28 127.7 445.96 130.12 443.16 132.17 442.45 132.19 441.3 130.85 441.04 130.09 440.43 130.13 438.37 132.03 437.24 132.65 434.35 133.34 432.79 132.92 431.27 133.67 430.3 134.68 430.45 136.06 428.11 144.13 415.43 143.16 412.6 141.01 408.98 140.33 407.39 138.02 404.13 137.07 403.16 134.97 401.82 130.4 402.81 130.28 403.93 128.99 404.45 128.69 402.93 130.01 401.35 126.95 393.65 126.21 392.37 123.17 388.15 121.44 386.73 120.55 386.31 119.32 388.52 118.14 389.39 116.44 388.19 113.12 386.31 112.15 386.39 111.77 385.81 108.27 383.71 106.61 382.9 104.41 381.52 104.31 381.21 101.77 379.67 100.85 380.21 100.21 379.85 98.69 380.89 95.96 383.87 95.24 385.68 95.44 386.76 98.14 393.57 98.85 394.35 100.24 394.87 102.02 395.13 103.1 394.67 103.52 395.36 102.99 396.1 100.19 395.76 97.78 394.68 96.99 394.11 95.8 393.87 94.79 392.81 94.13 391.49 94.22 390.09 93.98 387.03 94.74 384.16 96.37 381.94 99 379.73 100.59 378.82 99.86 376.36 99.58 373.71 98.54 371.2 97.03 369.56 96.79 368.76 95.75 367.36 92.43 364.35 91.47 362.55 91.19 360.84 89.87 359.16 89.37 357.67 89.91 354.29 89.7 353.04 86.03 349.93 86.48 349.46 90.04 352.78 91.5 351.44 93.19 348.37 92.6 347.57 94.32 344.02 95.61 342.9 97.63 337.83 97.28 337.22 98.92 330.66 99.87 329.96 100.85 330.06 101.68 330.86 102.44 330.12 106.31 324.87 107.86 323.33 108.05 322.51 106.83 320.7 105.86 320.87 104.61 319.23 103.09 316.63 100.26 313.09 98.97 308.78 89.04 308.78 89.1 308.61 98.43 308.61 97.32 306.93 96.92 304.16 96.98 300.69 97.94 298.36 97.1 291.91 96.44 291.6 95.48 289.26 95.06 289.15 91.51 290.46 80 294.5 79.94 294.34 90.06 290.73 94.9 288.91 94.92 288.09 93.5 285.43 92.64 282.63 91.68 278.66 91.77 275.7 90.14 273.81 89.35 272.6 87.96 272.06 87.15 272.53 86.21 273.91 85.79 273.55 86.13 272.09 87.03 272.2 88.08 271.74 88.67 270.6 90.45 268.33 91 266.78 91.39 264.26 91.23 259.05 91.01 257.23 90.4 254.21 88.02 249.6 87.52 247.97 86.77 246.51 85.06 244.4 81.91 241.92 79.94 240.8 77.67 240.12 76.23 240.26 76.06 239.22 72.53 240.58 72.56 239.81 75.18 238.87 74.62 237.35 75.77 236.89 74.27 233.1 72.86 230.78 71.75 229.63 70.38 228.61 69.86 227.54 70.03 225.75 71.45 223.43 73.16 222.1 73.54 221.02 72.42 220.15 72.57 219.53 70.24 218.51 69.89 219.06 62.13 215.87 53.5 212.09 39.87 206.19 36.45 204.79 64.4 162.22 65.21 132.59 127.12 123.32 153.01 119.49 166.83 117.53 186.07 107.43 194.61 115.11 198.83 118.81 199.15 119.36 200.37 118.17 202.5 117.38 202.88 116.93 206.05 115.91 206.87 115.89 208.41 116.48 209.23 116.45 209.58 115.13 211.31 112.17 212.49 110.71 215.12 108.31 217.39 106.94 217.99 106.06 216.13 104 215.94 100.66 215.26 98.05 223.86 97.04 225.39 96.02 228.47 96.17 229.42 95.16 231.56 92 233.85 90.75 233.64 89.34 236.79 89.37 238.07 89.08 241.32 89.34 242.17 88.87 241.71 87.26 244 85.01 246.13 82.57 249.12 79.8 249.41 78.4 251.91 76.27 252.53 76.36 256.38 75.49 257.32 75.98 259.42 78.42 261.89 80.02 262.75 79.42 264.07 79.93 267.72 79.69 268 81.4 268.85 82.46 271.92 83.47 273.08 85.1 274.55 86.13 274.59 88.5 277.05 91.3 277.78 92.66 279.19 92.04 283.47 89.56 285.92 87.65 288.19 87.72 290.22 86.55 292.73 85.71 294.49 85.63 295.51 84.68 297.79 84.15 300.71 84 302.56 85.02 305.26 84.75 305.9 84.42 306.78 82.56 309.03 83.35 311.15 83.05 312.91 81.7 314.12 81.13 315.26 77.58 316.86 76.07 317.11 74.32 317.77 73.54 319.73 73.2 322.74 70.89 322.66 67.97 323.15 66.34 323.75 65.94 325.49 66.75 327.93 70.05 329.64 70.25 331.31 69.69 332.69 68.23 333.37 68.16 335.75 68.95 337.21 65.86 339.41 62.73 341.52 58.6 343.04 58.44 343.96 57.19 344.17 56.11 347.07 54.35 351.09 52.67 353.27 51.9 355.35 51.69 355.93 51.32 355.32 49.9 355.45 48.68 357.02 46.04 356.45 44.24 357.2 43.27 356.37 41.77 357.75 40.09 359.02 36.98 359.78 35.68 360.95 31.54 361.05 29.42 360.2 29.38 360.27 24.43 361.2 24.61 364.16 23.71 367.31 21.88 369.78 21.05 372.3 22.44 373.24 24.1 375.28 25.16 376.6 26.69 377.53 26.86 381.79 31.9 382.16 32.75 383.09 36.44 384.57 39.87 384.05 42.99 384.52 44.41 385.68 46.36 386.8 46.95 389.14 50.81 390.34 52.25 393.06 57.54 393.1 60.59 392.71 63.94 391.66 67.27 390.28 67.85 387.5 69.63 387.22 69.98 384.23 71.5 383.2 73.01 382.88 74.66 382.07 75.55 381.55 76.7 380.51 77.55 381.03 82.11 379.98 83.81 380.35 85.69 378.86 89.07 379.1 91.72 375.75 94.42 372.84 100.77 373.01 101.73 375.35 106.25 373.85 108.8 373.25 113.76 373.6 115.27 372 120.24 371.18 123.51 370.53 123.94 370.45 125.23 371.81 127.39 369.43 132.24 369.05 132.79 369.46 135.62 368.93 137.58 369.29 138.88 370.17 140.37 369.78 142.95 370.07 144.12 371.79 145.87 371.99 147.12 370.14 148.94 368.88 149.17 368.61 150.98 369.19 154.74 370.1 156.12 371.08 156.95 373.05 156.01 375.09 155.35 376.2 154.15 377.84 153.16 380.68 152.25 382.23 152.38 384.52 150.28 386.9 149.27 387.32 149.49 389.27 149.1 391.11 149.02 392.01 148.73 393.87 147.37 394.82 146.36 396.53 147.98 396.99 147.11 401.56 147.49 403.25 148.02 406.11 150.04 406.4 151.38 407.3 153.78 410 150.48 411.81 149.01 412.91 147.48 413.83 144.98 416.26 142.11 416.67 135.69 418.16 136.84 421.34 136.97 423.65 137.25 426.56 138.06 432.27 140.19 433.91 140.46 435.31 140.3 437.77 140.87 438.66 142.59 438.63 144.66 438.95 147.03 441.38 152.25 440.59 154.28 439 155.89 438.65 158.23 441.06 159.91 443.5 160.51 444.75 163.75 444.27 166.24 446.16 169.03 447.13 169.6 449.44 172.27 452.81 175.05 452.8 175.96 454.61 180.09 455.95 182.01 459.13 180.38 459.19 179.46 460.7 176.66 461.06 173.25 461.85 170.3 463.3 168.31 463.43 166.47 462.91 161.3 463.05 158.73 462.94 157.54 463.22 155.87 462.76 153.43 463.02 151.58 463.62 149.92 462.39 147.58 462.62 145.47 462.33 143.92 462.85 140.42 462.57 136.34 460.8 134.55 457.19 131.73 457.57 130.23 459.61 126.9 460.17 125.67 460.19 124.51 458.83 121.66 459.06 118.55 457.1 117.19 455.36 116.33 453.39 113.3 452.07 108.68 451.23 106.52 449.79 104.81 447.86 101.93 445.81 99.66 446.27 96.79 448.65 95.82 449.41 94.94 450.29 94.81 452.04 93.07 453.33 89.5 454.54 87.16 455.54 85.86 455.87 83 458.04 81.94 458.87 80.84 460.86 79.41 462.42 79.47 463.46 78.28 464.1 76.01 465.14 74.4 465.27 72.87 466.11 72.03 466.09 69.58 467.25 66.9 473.01 64.54 480.61 65.39 481.93 65.71 482.68 65.04 486.44 66.68 489.94 67.99 491.77 71.28 493 71.17 497.89 71.52 501.08 70.21 504.32 69.04 508.26 66.64 509.66 68.9 510.56 68.3 516.14 70.01 519.15 67.87 521.84 66.41 522.4 63.99 527.39 56.79 528.35 54.01 529.62 52.41 538.96 46.79 539.54 46.85 543.68 46.11 554.84 43.5 557.54 43.02 560.99 42.11 565.62 42.7 566.56 42.56 567.95 40.6 567.58 40.16 568.75 37.5 571.17 38.34 572.59 38.28 574.74 36.72 578.41 36.3 579.89 35.74 581.13 35.59 588.64 32.85 589.47 35.46 590.47 35.22 590.68 36.01 593.3 35.37 593.74 37.37 597.01 36.56 597.32 37.54 600.21 36.83 600.54 38.05 601.93 37.7 602.81 38.25 602.94 39.01 606.73 38.48 607.49 37.95 608.28 37.9 608.99 38.93 614.22 38.01 616.06 34.17 616.92 33.28 618.82 32.23 623.1 30.8 625.21 29.65 628.02 28.56 631.92 28.75 635.29 29.37 638.85 29.7 641.42 30.65 642.12 29.99 645.47 29.35 649.5 29.46 649.78 29.25 649.54 27.43 650.36 25.73 650.38 24.42 647.35 22.49 644.07 21.93 643.19 20.76 643.05 18.51 645.07 16.09 645.3 13.01 646.17 11.15 647.46 9.02 649.09 6.84 650.71 3.78 651.89 2.35 654.73 2.05 656.58 2.35 657.28 3.62 660.32 6.73 660.82 6.85 661.71 5.67 663.34 7.5 665.38 7.04 668.17 7.79 669.14 7.7 671.38 8.07 672 7.45 673.27 7.11 674.74 6.14 675.6 6.03 676.36 9.51 678.8 11.5 682.46 12.85 685.49 13.4 686.51 14.51 688.16 14.01 689.84 16.57 690.65 16.68 692.61 16.01 695.4 13.67 696.84 10.72 697.76 8.12 699.75 6.53 701.71 7.72 703.04 8.86 706.26 7.76 708.7 6 710.71 5.23 711.31 3.08 712.75 2.43 715.1 2.01 718.03 5.12 719.73 4.46 721.2 4.17 723.49 1 727.33 3.28 727.6 3.25 729.37 6.02 732.07 9.14 736.29 7.7 735.66 9.78 735.27 11.95 735.29 14.44 734.69 15.63 734.7 16.85 732.7 18.47 732.45 19.42 732.47 22.34 732.2 23.49 730.29 25.12 729.28 26.3 728.6 27.65 729.17 28.42 728.87 31.07 728.06 31.31 725.14 31.58 721.39 33.07 719.53 36.69 718.76 37.64 717.36 37.44 715.59 36.86 714.11 39.23 716.12 40.6 717.03 41.45 717.44 43.19 716.95 46.21 716.97 47.09 715.44 50.14 715.85 51.99 716.97 53.28 717.86 54.74 718.19 56.82 718.63 57.51 718.38 58.78 715.57 61.36 714.74 61.68 714.64 63.95 715.74 66.48 715.65 67.62 714.85 70.8 716.52 71.94 718.27 71.35 721.07 70.89 723.02 70.31 724.01 69.78 725.98 69.83 728.65 70.42 729.86 71.17 731.12 72.7 732.54 73.87 733.48 75.07 734.61 74.93 735.78 75.78 736.28 76.64 737.71 75.7 739.24 73.31 741.84 71.83 744.78 74.27 745.29 74.87 749.44 78.11 750.8 78.88 752.13 82.12 748.42 86.96 747.12 90.37 746.95 93.16 747.07 93.96 749.48 97.01 749.09 99.16 747.73 101.38 746.85 104.08 746.79 105.06 746.02 108.34 747.55 109.02 749.85 109.65 750.3 111.43 751.91 112.77 753.27 114.32 754.24 114.34 756.7 116.04 759.08 118.13 763 116.9 763.83 118.28 764.09 121.43 765 122.87 764.72 125.6 764.78 127.84 765.68 129.6 765.9 132.23 766.33 133.04 765.63 134.69 764.54 136.12 761.32 137.78 760.21 139.13 760.45 140.23 760.22 141.76 761.2 143.03 762.75 143.77 763.49 145.32 763.42 146.71 764.39 148.37 765.92 150.26 767.1 150.75 770.03 155.72 772.37 157.95 774.48 158.34 777.68 156.06 777.95 156.11 779.62 154.03 780.45 154.04 783.7 155.49 784.58 155.67 785.15 155.11 786.8 156.79 788.37 156.98 789.66 158 791.31 158.93 793.11 160.24 794.04 161.89 793.64 163.09 793.64 167.19 793.5 167.83 794.3 170.93 792.99 171.73 792.46 173.35 792.65 174.85 792.74 178.47 793.67 180.41 793.51 181.62 794.5 183.07 795.42 186.05 796.49 187.6 797.91 188.89 796.63 190.6 796.87 193.54 795.1 195.73 794.73 197.76 793.21 202.78 792.13 203.51 791.1 203.36 791.04 204.57 792.27 207.26 792.38 208.8 794.01 210.5 795.05 216.37 793.54 218.55 795.99 223.52 795.99 224.05 797.63 225.81 795.7 228.84 795.42 230.13 793.94 230 793.22 230.31 791.15 232.1 790.67 233.11 788.45 235.52 784.33 238.17 781.51 241.2 781.25 242.95 779.49 244.44 778.8 245.45 776.9 246.96 774.52 245.99 772.91 247.15 771.29 247.23 769.31 248.64 768.59 248.73 767.59 249.73 765.8 249.98 764.87 250.51 762.66 251.19 759.28 251.96 758.89 253.49 759.19 255.08 759.12 256.49 758.03 258.21 757.25 258.68 754.48 259.59 753.84 260.21 753.46 261.4 752.24 262.48 751.21 263.8 750.87 265.65 748.88 264.81 746.27 264.77 744.6 264.15 742.62 264.2 742.46 266.72 741.01 271.15 739.29 274.68 739.08 276.71 739.12 278.64 739.93 279.89 740.34 282.34 741.05 284.34 742.5 285.47 743.25 286.4 741.89 288.1 741.74 289.6 743.12 291.76 742.09 294.03 743.21 296.86 742.95 301.69 744.25 306.08 745.39 307.43 744.2 309.76 743.19 312.57 742.72 315.11 742.78 315.9 742.16 316.58 742.08 319.09 742.52 323.72 742.5 327.48 742.1 329.62 740.98 331.22 737.27 333.99 736.77 336.92 735.47 337.81 734.04 337.33 733.74 335.59 731.7 335.35 729.56 335.34 727.86 334.61 727.13 335.23 724.57 338.73 720.53 341.44 720.18 343.23 718.36 345.32 716.3 346.64 715.96 348.13 716.29 349.33 715.81 351.45 716.57 352.96 717.7 353.41 718.1 354.93 718.3 356.93 717.83 360.99 717.35 361.91 718.83 365.84 720.6 367.67 721.52 367.62 722.44 369.96 725.05 371.77 724.38 376.1 724.76 378.46 726.73 381.09 725.87 383.17 725.91 385.59 725.35 386.18 725.31 387.71 726.73 389.44 728.41 389.95 728.49 391 729.24 392.19 731.4 392.6 732.38 394.63 733.87 395.95 734.84 397.21 737.32 397.79 738.95 399.71 737.84 402.74 739.72 403.75 741.56 403.9 742.03 404.99 743.21 405.37 745.33 404 746.67 403.66 748.55 405.4 749.73 407.19 751.92 408.7 752.56 409.43 753.11 411.78 753.91 412.36 755.31 412.54 756.48 411.61 759.22 411.38 760.52 413.12 761.86 413.07 764.76 413.89 766.6 415.34 769.76 411.86 771.83 408.4 774.59 404.74 775.52 404.08 777.43 400.6 777.44 398.95 778.61 396.95 782.13 392.53 783.16 392.46 785.16 393.19 786.31 391.24 789.27 390.18 789.57 389.84 795.99 393.83 799 395.55 Z" fill-rule="evenodd" id="34560000"/>
</g>
</svg>