<?xml version="1.0"?>
<svg xmlns="http://www.w3.org/2000/svg" version="1.2" baseProfile="tiny" width="800" height="422" viewBox="0 0 800 422" stroke-linecap="round" stroke-linejoin="round">
<g id="sigung">
<path d="M 740.87 421 738.36 417.9 735.82 417.51 734.68 415.16 730.48 413.2 729.31 407.62 725 407.52 721.51 406.97 719.82 405.96 715.96 406.63 712.25 405.22 708.1 404.02 701.72 396.63 700.66 394.51 699.5 394.2 699.41 392.18 696.85 391.34 695.89 390.42 689.75 388.2 688.36 388.18 685.96 386.83 684.19 384.66 683.02 384.04 678.3 383.74 676.82 382.88 676.09 384.14 672.98 385.49 670.96 385.67 668.51 386.92 665.58 386.04 662 386.82 659.92 388.45 655.88 387.31 653.98 387.6 652.33 390.23 649.14 393.64 644.88 397.58 643.94 400.08 643.99 402.32 641.81 403.8 640.88 405.31 639.5 404.17 637.32 403.48 635 405.16 632.97 406.05 630.7 405.16 627.43 404.76 625.31 405.31 622.08 407.68 616.53 406.92 614.97 403.14 613.17 400.46 611.01 400.02 609.44 398.18 605.96 398.22 604.96 396.17 602.96 395.69 601.47 394.61 600.11 391.89 599.99 389.61 595.17 387.38 595.29 383.94 594.37 381.7 589.8 379.58 588.98 378.86 590.1 375.95 588.37 374.65 586.39 371.57 585.08 371.15 582.26 366.45 580.54 364.31 581.01 362.17 580.12 359.69 579.98 354.84 571.97 347.2 568.37 343.06 566.52 340.39 565.6 338.23 564.62 336.97 564.27 334.79 562.43 333.22 560.63 332.92 559.46 331.43 557.84 330.19 555.37 331.44 554.03 331.45 554.14 327.53 554.85 326.81 553.6 325.65 552.43 323.43 551.21 322 550.44 319.65 548.59 319.75 545.59 315.49 543.04 313.48 541.83 310.72 540.49 308.81 538.46 307.6 537.18 306.31 534.72 306.11 535.16 307.33 534.79 309.26 533.5 310.8 528.71 309.37 528.18 306.16 526.92 305.66 520.72 305.06 519.42 305.92 516.85 305.4 514.71 304.38 512.23 304.98 511.26 303.42 506.99 303.04 505.22 301.55 502.73 301.17 501.68 307.1 501.1 308.41 493.65 310.22 490.25 311.45 480.66 314.14 474.49 315.63 473.53 315.47 469.66 317.31 470.41 322.05 457.63 324.15 458 326.32 454.94 326.82 456.72 329.59 453.01 328.97 453.84 330.61 456.56 334.24 459.15 336.96 465.83 343.16 464.69 344.25 465.52 348.8 464.59 351.4 460.74 354.66 457.17 355.7 455.93 353.34 454.07 353.51 453.63 352.34 451.62 350.48 451.83 349.33 450.36 348.41 447.34 347.6 445.52 348.45 443.56 346.71 441.5 346.01 438.59 343.82 437.46 341.64 438.17 340.06 438.8 336.14 439.8 333.67 438.97 329.96 435.92 325.66 435.4 322.67 437.15 319.64 437.05 317.42 438.2 315.36 440.5 314.39 441.13 313.65 441.79 310.83 442.82 310.49 441.83 308.06 438.7 303.72 437.47 300.7 436.69 297.8 436.25 294.64 434.02 292.14 430.06 290.34 415.43 279.04 412.29 276.75 410.24 272.95 408.05 269.85 405.84 268.67 402.79 268.51 397.09 269.11 394.14 271.57 391.57 271.52 387.76 269.68 380.95 266.99 377.23 264.89 373.81 263.28 371.31 259.08 368.45 255.63 365.78 254.19 363.84 253.74 360.56 249.01 359.95 248.9 358.26 252.8 357.31 252.86 356.47 254.96 356.75 256.43 358.61 260.95 357.89 262.78 355.03 262.01 353.47 265.28 352.22 266.67 351.41 268.79 348.26 266.52 346.48 265.71 345.66 266 342.43 264.76 340.37 266.87 331.29 269.88 329.73 268.47 328.09 268.85 322.7 269.07 318.99 269.64 318.1 270.52 314.97 270.98 312.32 270.12 308.38 272.86 306.8 273.19 304.05 275.22 301.22 279.16 301.01 282.56 299.78 286.06 299.89 289.8 299.58 290.56 297.32 292.45 294.83 293.82 292.57 294.66 290.62 294.93 289.39 299.78 287.57 300.92 282.77 302.78 276.43 302.7 273.87 304.97 272.16 307.18 270.9 307.61 269.88 313.64 269.06 315.1 266.3 316.73 260.87 317.18 254.45 320.17 253.96 319.68 252.03 320.8 252.04 323.57 248.37 323.94 248.45 325.1 237.96 325.81 236.58 326.01 236.21 325.07 231.09 325.53 228.03 325.38 208.55 323.66 203.26 323.5 203.3 324.16 197.05 325.78 197.02 322.86 192.95 320.47 191.18 318.78 188.98 317.7 182.13 316.81 181.1 316.47 178.83 313.78 178.74 308.68 182.63 293.05 183.11 290.53 188.57 291.22 194.73 292.18 199.19 292.4 202.61 292.26 206.01 291.6 206.01 264.51 196.46 264.48 196.13 261.41 192.2 253.53 190.73 252.58 191.37 251.28 189.32 246.91 189 244.87 189.03 240.94 188.13 238.09 186.11 235.12 182.76 229.32 182.46 227.81 181.4 226.43 178.71 218.58 177.93 217.59 175.34 211.55 169.84 208.12 160.48 208.28 157.62 209.59 153.88 212.05 151.41 212.65 146.89 212.06 145.61 213.38 143.11 214.22 139.92 214.36 135.99 216.99 132.05 218.76 129.95 218.31 124.05 220.07 122.78 219.42 117.95 215.28 116.48 213.74 114.98 213.01 114.61 211.57 107.93 204.13 107.64 201.9 108.8 198.68 107.74 196.23 104.15 195.81 102.21 195.96 99.03 192.78 99.06 190.13 100.5 187.85 100.54 186.48 102.45 181.59 102.87 178.01 103.52 178.01 103.65 173.56 100.5 170.02 101.34 167.48 97.89 165.21 97.28 162.31 99.2 154.91 99.14 148.7 96.23 150.66 94.44 151.45 89.24 151.32 85.09 161.48 84.95 164.41 80.73 165.25 76.2 166.71 72.86 168.92 71.06 172.2 70.32 171.63 68.94 172.97 66.7 176.4 65.9 178.22 64.88 177.77 63.37 180.28 62.08 185.89 53.97 180.54 50.92 179.62 51.64 177.99 55.48 179.43 55.32 176.98 58.98 176.6 59.35 176.25 57.87 173.71 56 172.98 52.47 168.22 52.62 165.83 45.04 165.23 45.35 161.42 35.02 160.6 35.36 156.61 33.63 156.48 33.73 155.38 29.9 155.05 30.13 152.44 32.04 152.15 31.79 149.44 33.63 146.82 32.56 143.68 33.29 133.66 33.58 122.91 33.34 116.07 30.77 116.16 29.66 113.95 26.51 113.71 25.48 112.82 25.93 106.35 22.46 100.96 21.46 100.9 18.95 99.4 19.7 97.9 19.59 96.32 18.67 95.37 17.12 95.45 14.7 94.82 10.95 90.57 8.95 88.74 5.78 88.84 5 88.33 5.1 86.66 6.43 84.22 6.28 81.97 3.81 80.67 1 79.72 2.35 75.86 5.97 68.38 7.94 65.54 13.48 58.47 13.6 55.52 11.92 52.4 10.54 47.44 10.1 44.22 10.62 42.29 19.66 39.79 33.68 36.36 45.95 33.88 53.41 32.63 59.5 32.39 64.02 33.86 67.96 35.98 73.58 37.66 73.9 35.48 73.75 32.25 76.7 28.88 83.51 28.28 89.89 25.59 94.39 24.1 101.01 22.6 104.35 22.46 107.96 23.18 137.45 23.18 141.7 23.18 144.54 20.77 151.81 21.34 154.72 23.79 155.27 27 157.6 30.68 160.37 33.37 164.57 38.97 166.75 41.27 169.34 43.45 173.36 45.58 176.93 46.44 182.74 46.29 189.29 45.45 192.49 44.43 194.37 43.19 197.72 41.72 198.6 40.59 202.22 38.13 204.7 35.81 206.97 32.94 208.56 23.18 208.78 19.98 209.28 17.66 210.25 15.67 211.38 14.4 212.96 13.49 216.39 13.18 220.59 14.32 223.32 15.3 228.53 18.02 235.29 19.99 234.89 22.2 236.67 21.88 239.01 19.9 246.77 17.14 250.37 20.51 254.42 22.85 255.9 22.93 258.89 23.87 267.71 24.17 273.03 23.26 278.31 23.66 281.45 27.09 282.23 29.05 283.4 34.85 286.77 43.23 288.77 46.05 291.09 47.6 295.73 48.13 301.02 48.2 300.2 45.85 299.96 43.33 300.75 41.48 305.26 41.46 309.76 42.42 312.63 41.9 316.04 40.47 318.07 37.81 320.4 37.66 329 36.5 333.43 36.1 342.29 35.02 344.95 34.51 346.88 33.77 350.67 31.09 356.63 25.7 359.64 23.88 362.51 23.24 373.23 23.02 380.81 22.3 384.45 21.08 388.41 19.26 396.54 14.73 399.15 11.87 400.94 8.24 402.49 6.23 405.04 4.28 408.78 2.55 412.93 1.57 417.1 1 418.7 3.98 421.31 7.16 423.89 7.62 430.33 7.9 437.21 7.77 439.84 7.56 446.35 5.69 450.74 3.96 454.84 3.46 459.11 4.44 461.31 4.31 466.32 4.96 470.11 5.68 473.52 8.37 474.5 9.98 477.82 17.56 479.67 20.69 483.2 23.18 485.69 25.54 492.91 27.29 497.83 30.6 499.71 34.22 499.91 38.13 501.04 43.29 502.24 47.05 502.7 50.83 499.37 53.08 500.09 55.62 502.4 57.44 506.16 58.78 509.28 61.5 512.36 64.62 513.79 68.01 516 78.79 517.35 90.69 517.98 97.9 518.54 100.27 521.09 102.3 524.91 103.64 527.92 106.34 530.98 109.4 535.61 114.85 537.17 117.85 539.71 121.85 541.14 124.84 543.13 127.78 547.11 132.04 549.82 135.4 552.54 142.82 557.33 157.67 559.59 161.47 563.46 169 568.21 176.42 571.2 181.87 572.73 185.7 574.48 191.5 575.43 199.97 575.41 202.74 576.4 205.83 581.96 205.33 585.77 204.38 589.87 203.95 596.15 204.69 595.99 205.99 599.78 206.31 605.12 206.37 608.54 207.01 611.06 206.63 613.98 205.38 616.44 202.58 620.54 201.11 624.58 201.73 626.71 202.75 628.17 202.34 631.3 203.37 634.04 202.5 635.46 201.57 638.03 199.15 640.95 198.23 642.24 195.69 641.15 192.29 645.04 187.56 647.05 184.04 649.46 182.36 652.58 181.56 654.98 181.34 657.01 180.68 656.29 179.78 658.55 178.72 662.99 175.55 664.56 176.17 667.91 176.08 671.26 177.97 673 182.34 676.47 187.55 678.98 188.73 683.25 189.66 684.5 192.35 683.22 193.72 681.09 194.09 679.27 195.1 677.47 195.25 676.52 197.18 676.82 199.76 676.25 201.59 677.78 206.16 681.4 205.9 684.36 207.61 685.08 208.78 686.45 209.6 688.09 213.67 687.8 215.34 687.94 218.41 687.27 221.42 688.88 221.93 690.37 223.74 691.68 223.95 693.53 228.14 696.34 229.66 697.01 232.27 696.22 234.19 696.68 235.1 699.08 237.01 699.59 238.04 699.45 240.96 701.91 243.27 709.38 245.31 710.19 246.69 710.19 250.14 711.81 251.52 712.85 253.19 714.13 254.23 715.04 255.92 716.38 256.75 717.26 258.5 716.42 262.09 716.91 264.64 718.02 267.53 717.22 269.17 716.23 272.57 717.24 276.03 717.1 278.01 715.29 280.68 716.24 282.31 715.75 284.93 716.71 291.57 714.52 294.54 714.15 296.24 712.29 296.89 713.02 301.51 710.16 305.49 709.46 306.97 710.05 308.81 712.97 312.17 714.1 312.73 715.75 318.82 717.94 322.03 719.66 323.86 721.86 324.25 724.29 325.91 726.25 328.61 727.95 333.02 729.92 335.73 731.66 336.17 736.06 340.37 738.95 341.22 740.03 341.06 745.22 342.73 746.65 344.78 748.04 345.91 754.34 344.27 757.06 344.79 759.79 342.82 766.52 339.47 768.27 339.74 773.1 336.21 774.35 335.79 777.8 336.98 781.47 336.27 785.23 337.18 788.19 337.13 789.77 336.34 791.1 336.84 798.57 336.22 798.43 338.14 799 339.81 797.53 341.44 794.9 341.7 793.44 343.51 791.78 343.21 787.76 345.83 786.94 348.58 787 354.39 785.12 356.28 785.03 358.44 784.5 360.26 785.14 363.53 784.32 365.56 784.51 370.11 781.37 371.84 780.17 373.24 779.44 375 778.66 375.3 778.4 377.63 778.52 388.67 778.09 392.57 771.31 393.78 770.4 396.74 767.06 398.03 764.9 399.76 764.13 401.41 759.9 406.77 758.34 409.05 754.94 410.56 754.43 411.7 752.54 413.39 752.43 414.41 750.59 414.52 749.15 415.43 746.43 418.08 743.51 418.34 740.87 421 Z" id="35012000"/>
</g>
</svg>