<?xml version="1.0"?>
<svg xmlns="http://www.w3.org/2000/svg" version="1.2" baseProfile="tiny" width="800" height="932" viewBox="0 0 800 932" stroke-linecap="round" stroke-linejoin="round">
<g id="sigung">
<path d="M 430.25 22.97 431.17 23.73 430.84 26.38 430.14 28.97 429.58 29.87 428.8 32.9 429.72 33.13 430.24 31.85 432.31 32.64 433.81 34.34 434.72 33.54 437.33 33.22 437.97 33.92 438.33 35.38 439.22 36.19 440.66 36.76 442.93 36.72 443.88 37.62 445.9 37.48 447.07 36.82 449.03 35.08 450.98 33.94 452.64 30.12 455.27 27.61 456.63 28.51 457.67 29.98 457.74 31.96 459.86 33.41 460.55 36.7 461.87 39.19 462.71 43.45 463.53 44.97 464.95 46.72 465.2 50.08 465.52 51.42 466.55 52.06 466.71 53.73 466.35 56.24 466.83 56.83 467.13 58.76 468.02 59.87 468.49 61.84 469.22 62.33 469 63.46 471.33 65.41 472.31 64.87 473.06 65.58 474.94 66.14 477.37 68.86 479.1 69.36 484.51 69.33 486.11 69.5 487.69 68.6 489.41 68.45 492.22 68.86 494.74 69 495.52 68.67 497.14 66.33 497.99 65.78 497.62 64.66 499.27 63.67 501.07 63.72 503.03 62.59 506.88 61.96 507.91 61.54 507.77 60.58 509.12 60 510.41 60.87 514.98 61.16 519.88 60.91 522.26 63.32 523.21 59.69 523.22 55.83 522.92 53.28 522.49 52.1 523.67 50.95 525.57 52.23 525.47 50 526.23 47.01 526.77 45.74 526.88 43.09 527.7 41.24 529.09 40.21 530.06 35.35 536.48 36.7 534.75 45.09 534.65 46.44 534.06 47.16 532.27 47.41 532.26 48.65 533.48 49.65 535.34 51.79 536.62 57.62 536.35 58.25 537.02 59.87 538.4 62.02 536.56 62.17 535.85 63.7 535.63 65.63 536.58 65.64 538.29 64.41 539.17 65.13 538.4 66.91 537.99 69.94 537.38 71.17 537.86 73.58 536.03 75.39 537.18 76.17 539.01 76.59 539.5 75.48 539.56 73.72 540.94 73.94 540.39 76.19 542.02 76.83 544.7 78.38 545.94 77.99 545.81 76.91 549.61 77 551.1 77.3 550.94 78.86 549.53 81.3 549.44 81.95 550.81 82.92 551.73 84.1 552.72 88.4 566.35 91.07 564.87 98.77 568.23 99.44 567.64 102.42 580.52 104.94 578.99 112.82 581.29 111.11 583.52 108.29 586.72 107.73 581.35 135.08 583.2 135.47 583.52 137.11 584.8 139.31 581.96 138.98 578.21 138.04 574.98 136.62 574.24 139.81 570.83 139.02 570.04 142.26 572.13 142.74 571.4 145.87 570.76 145.72 570.02 148.96 573.31 149.7 572.59 152.85 574.74 153.34 573.98 156.55 575.57 156.92 574.18 163.36 573.66 163.24 572.38 169.63 578.47 171.03 578.21 172.03 579.79 172.4 579.3 174.51 581.34 174.98 580.57 178.34 580.01 178.21 579.43 180.28 580.6 182.63 579.72 183.97 579.27 185.4 579.37 191.84 580.5 192.65 581.87 194.73 581.56 196.36 581.51 199.21 580.45 201.86 579.9 204.5 579.71 207.01 580.29 209.73 578.98 211.1 580 211.96 579.55 213.29 579.72 214.36 581.04 214.75 583.65 218.52 587.03 221.37 587.13 222.34 585.61 224.3 585.65 226.68 583.65 227.44 581.88 228.93 580.96 230.95 581.74 230.94 586.02 229.78 588.27 230.81 589.64 229.41 591.76 228.38 592.96 228.26 596.45 231.32 598.82 232.98 600.66 233.57 602.67 234.7 606.43 235.85 608.55 240.5 609.62 243.43 610.86 245.95 619.54 245.27 620.36 244.61 623.45 246.62 625.32 249.76 624.31 250.8 625.36 251.48 625.3 252.76 626.36 253.37 626.37 254.9 627.23 255.54 629.93 256.65 632.83 258.16 634.55 258.69 634.18 259.94 636.12 262.66 637.6 263.67 638.13 266.09 640.04 269.33 642.92 270.21 643.59 270.15 646.19 271.36 648.31 272.93 650.09 273.62 650.55 274.19 655.44 276.82 656.48 281.4 658.28 284.02 658.32 284.83 662.51 289.6 664.11 286.9 665.7 285.35 667.37 280.27 667.68 276.65 668.82 275.56 669.93 277.18 671.98 279.31 672.06 281.33 672.89 282.22 673 283.74 673.67 284.61 675.72 284.36 677.27 282.33 677.17 281.62 678.99 281.55 683.85 280.25 686.69 280.13 687.72 278.71 690.73 278.64 690.95 276.48 692.68 276.99 694.71 276.03 696.86 278.46 697.42 279.85 699.02 281.99 701.27 282.37 704.28 284.54 704.91 286.79 706.41 289.03 709.83 288.84 712.46 286.71 714.95 286.84 715.14 288.37 718.29 292.92 720.83 294.48 724.09 298.23 727.73 300.46 732.21 303.63 737.3 304.36 739.21 305.46 744.72 310.93 746.89 313.68 747.92 317.13 748.78 318.44 750.1 319.36 752.45 316.88 753.25 315.22 757.52 314.66 760.4 312.9 767.39 311.34 773.75 309.65 774.92 309.99 775.44 313.23 775.07 315.52 775.58 316.08 775.38 317.49 778.27 318.36 778.92 319.78 780.31 320.43 781.98 324 784.49 326.55 786.4 327.58 789.32 329.91 790.51 332.21 792.87 335.89 794.63 336.65 798.49 339.39 799 339.93 797.47 341.93 796.19 342.53 795.47 344.27 794.64 347.74 792.26 349.07 790.4 351.03 788.74 351.75 787.02 353.85 786.61 355.53 784.21 360.56 783.71 364.06 782.98 364.59 783 366.56 781.54 368.61 780.72 371.83 778.62 373.32 778.76 375.72 777.65 377.35 776.71 379.67 775.18 381.53 771.9 384.27 769.73 385.27 769.98 387.27 769.18 389.8 769.19 390.68 767.33 392.09 757.41 402.84 756.5 405.34 752.67 409.54 750.16 413.67 744.92 419.55 743.91 420.44 743.2 422.42 740.6 424.81 734.35 430.23 737.19 437.72 739.72 444.96 737.11 446.95 734.81 449 734.67 450.19 732.99 451.98 738.18 453.86 739.31 457 742.53 460.72 747.81 464.6 747.92 470.98 748.91 472.95 750.12 474.06 751.02 477.11 750.93 478.81 751.25 481.9 750.81 483.19 751.13 485.84 757.59 490.19 758.85 492.54 758.86 493.6 759.9 494.25 760.07 495.6 759.33 497.16 759.87 497.84 759.76 499.56 758.77 500.4 757.29 502.56 758.19 505.18 758.51 508 759.98 511.76 759.4 512.71 759.44 514.18 760.03 515.78 756.21 515.56 752.55 516.34 750.69 519.07 746.37 524.87 745.65 526.06 744.35 526.62 741.22 526.34 740.95 527.52 739.58 529.4 728.61 536.26 724.91 538.64 722.78 538.85 721.9 539.3 721.39 543.19 715.98 544.96 710.03 549.78 710.79 557.77 713.26 559.07 712.94 560.97 712.32 560.89 712.13 564.67 712.71 568.96 716.29 574.51 715.39 577.27 715.92 581.41 714.54 585.53 713.37 586.9 712.27 592.28 711.45 595.36 711.6 598.8 710 601.58 710.2 602.42 709.36 603.83 708.49 606.11 708.39 608.55 708.87 611.85 707.66 612.71 708.51 615.73 708.07 620.26 707.35 622.64 702.69 634.2 700.8 641.22 701.64 646.27 701.16 649.42 701.92 656.45 703.52 660.35 705.76 664.36 705.96 665.79 707.22 667.6 707.36 669.61 706.56 674.25 705.87 675.49 705.94 676.4 704.99 677.77 704.83 679.27 703.26 680.21 700.56 682.81 699.92 684.59 700.36 688.08 700.04 689.63 697.78 692.63 697.64 695.87 697.17 697.22 695.66 699.37 694.27 700.28 692.08 701.14 690.65 702.02 689.94 702.93 689.23 705.14 688.74 709.1 685.75 713.09 685.34 713.92 683.28 716.52 682.39 718.56 681.97 720.39 681.6 725.41 678.6 729.89 677.15 732.87 675.84 734.9 674.35 738.2 673.8 740.68 673.77 746.94 673.49 748.19 673.9 752.51 673.29 754.47 672.98 756.65 671.84 759.76 669.31 763.24 669.06 767.1 666.77 771.26 665.14 772.86 662.21 774.55 660.42 776.63 658.9 779.13 658.41 780 657.23 781.78 654.69 783.94 650.71 784.76 649.32 788.22 648.09 790.39 643.07 794.72 639.46 797.57 636.93 799.2 636.46 800.8 634.52 802.47 630.17 803.3 629.48 803.66 626.23 804.41 625.49 799.24 623.85 800.79 622.58 801.58 617.71 805.74 613.45 809.01 611.62 811.21 609.8 812.48 608.32 813.05 605.16 815.34 602.59 817.43 599.74 819.34 597.61 821.31 596.48 821.11 592.56 818.78 589.79 815.82 585.32 813.86 581.86 812.49 580.92 810.16 580.25 809.23 576.12 806.79 573.02 805.38 572.03 803.98 570.95 803.66 569.37 802.09 568.37 802.1 567.06 800.85 564.62 799.67 562.71 799.22 560.81 799.39 559.05 798.3 551.42 796.13 549.95 795.52 545.81 794.49 545.91 793.83 543.65 793.11 539.67 793.52 535.99 792.56 534.74 792.78 534.24 791.88 534.55 790.73 532.66 790.35 529.6 787.69 525.54 787.58 525.42 788.79 523.88 791.41 523.09 794.76 522.2 796.26 522.49 798.66 520.32 803.24 518.94 804.14 515.38 808.92 512.18 811.53 510.09 811.48 509.9 810.06 506.93 810.41 505.21 810.31 501.55 809.63 499.12 809.98 497.5 810.9 496.71 812.16 496.22 813.78 496.82 814.6 494.87 815.15 494.7 816.4 493.57 816.71 492.72 818.46 494.15 819.79 493.33 821.85 495.13 824.09 497.87 825.11 497.8 826.83 498.73 827.88 499.01 830.11 500.72 831.67 499.98 833.07 500.37 834.48 500.17 835.58 500.7 837.06 500.03 837.86 501.26 839.99 502.24 840.2 506.01 838.56 507.73 838.43 508.93 838.8 511.01 840.64 512.2 842.66 513.37 844.02 511.66 844.94 511.34 845.52 509.52 845.29 507.37 844.56 505.86 845.32 505.32 848.36 504.32 851.46 502.99 853.02 502.91 854.28 506.97 856.45 506.97 857.56 507.95 859.13 511.01 860.4 511.71 857.89 515.08 857.32 516.11 859.05 516.25 860.15 515.45 861.37 514.64 863.74 514.48 865.38 515.03 866.72 516.67 867.02 519.24 872.47 517.92 873.58 518.59 875.03 518.14 875.75 518.79 882.22 494.55 882.22 491.58 881.62 488.83 881.74 483.4 882.98 479.7 884.2 474.46 886.41 468.86 886.9 466.43 889.67 466.56 892.32 466.3 894.11 461.68 892.74 458.44 890.99 454.73 889.79 449.72 889.99 443.59 891.01 433.51 893.05 421.99 895.87 414.55 897.92 414.13 899.5 414.5 902.15 415.62 906.23 417.01 908.78 416.91 911.21 412.35 917.02 410.74 919.36 407.76 925.5 406.65 928.67 404.77 929.9 402.68 930.73 399.51 931 397.47 930.1 396.31 928.41 395.01 925.76 394.21 922.53 393.66 919.22 393.56 916.86 393.85 914.9 394.76 913.86 396.76 913.01 402.31 911.5 403.48 910.79 404.88 908.35 404.54 906.2 402.98 904.73 401.09 903.55 399.49 902.97 394.87 902.82 389.74 902.3 387.05 901.81 384.99 899.3 383.86 894.68 383.58 888.83 380.4 886.26 368.82 882.23 355.32 878.33 353.47 877.85 345.24 882.23 342.37 885.74 339.87 885.87 338.13 885.5 336.83 884.16 336.49 882.22 334.28 879.97 333.83 877.5 334.11 875.29 333.27 874.06 323.35 872.7 320.98 873.18 316.45 873.23 314.21 872.44 311.93 871.08 307.44 867.99 305.76 864.8 301.1 857.26 296.26 851.02 292.62 845.4 292.39 832.77 292.51 821.06 292.08 819.73 290.79 818.47 288.53 818.92 286.54 820.88 280.64 827.3 279.44 830.31 279.65 833.12 280.54 836.04 281.18 838.92 281.44 842.13 281.33 843.91 280.33 845.03 278.26 845.63 276.74 845.66 274.6 844.42 271.38 843.04 268.73 841.62 268.47 841.14 263.04 837.37 260.18 835.68 251.91 832.32 249.11 831.64 245.5 831.19 242.45 831.59 232.43 825.7 231.31 825.35 224.6 824.78 224.06 828.02 223.74 834.94 223.85 838 212.16 841.41 207.82 843.39 196.87 848.6 195.15 847.83 189.44 849.44 184.67 852.42 176.79 856.69 174.44 860.05 169.32 862.96 166.66 862.92 166.62 863.8 163.14 863.96 160.24 863.19 123.28 833.1 118.81 827.73 115.81 826.45 112.23 826.71 109.6 828.93 108.67 830.41 107.97 833.12 99.79 832.38 94.99 833.39 90.07 829.68 75.22 832.66 60.84 835.31 57.46 837.62 43.11 844.64 40.4 846.33 33.22 852.85 26.98 855.26 19.05 852.58 15.86 850.48 5.71 841.8 3.21 837.18 1.81 830.56 1 816.89 4.93 814.07 7.79 815.17 9.22 813.26 11.46 812.37 12.04 810.5 15.18 811.17 15.37 810.27 18.74 810.99 18.55 811.89 21.82 812.59 20.74 813.62 22.36 815.65 23.81 814.94 25.27 812.95 25.94 811.29 27.37 810.5 29.14 802.16 29.92 802.33 31.73 800.88 33.12 802.58 34.9 801.46 34.8 800.08 36.91 799.41 38.45 797.75 39.46 795.18 40.71 793.63 41.54 793.21 42.34 791.98 45.11 789.52 50.49 783.78 51.92 781.53 52.63 781.47 55.98 778.43 56.76 777.46 60.73 773.74 63.05 771.74 68.58 765.39 69.45 764.88 70.28 762.94 73.53 761.23 76.58 757.14 77.28 755.22 78.7 753.04 80.24 749.47 83.75 743.55 85.37 740.21 85.13 738.42 85.45 737.43 83.03 736.33 82.75 735.17 83.75 733.37 83.78 732.31 85.72 727.56 86.01 724.97 87.78 725.46 88.45 722.62 88.17 721.71 88.87 718.14 88.74 714.68 89.42 711.39 88.65 711.15 103.15 699.69 109.67 694.64 113.83 691.11 114.66 689.9 118.22 686.9 116.37 684.31 115.1 682.1 115.55 680.23 115.13 678.91 113.34 677.89 112.78 678.1 111.18 675.85 110.82 672.25 110.23 671.31 108.24 671.16 105.85 673.92 103.51 673.53 96.19 671.65 94.49 667.49 124.46 642.12 135.23 632.9 138.44 629.43 138.53 628.98 144.05 629.03 142.15 607.76 148.71 604.66 148.68 602.42 149.84 602.32 151.95 601.01 153.6 600.87 153.53 599.76 155.36 599.59 161.83 596.76 164.01 595.44 163.04 592.16 161.71 589.86 157.6 589.96 158.13 582.78 158.62 578.17 159.59 577.12 168.25 571.25 169.32 570.21 171.22 567.56 172.33 565.19 172.43 563.04 175.25 554.75 177.79 545.35 178.52 532.36 178.39 529.38 177.67 526.2 176.91 521.65 177.28 519.53 176.08 519.04 174.79 517.85 174.36 515.14 169.7 515.38 168.41 515.23 165.36 514.26 163.55 514.51 161.25 514.08 159.98 513.1 158.09 510.79 156.53 510.41 153.4 510.62 149.49 508.93 148.55 508.71 144.48 508.52 141.01 507.39 138.94 507.22 131.95 494.96 127.36 489.37 125.66 487.1 122.43 485.76 120.3 484.34 117.84 482.08 116.46 480.22 113.51 477.18 110.04 474.66 108.89 473.52 106.75 469.6 103.11 465.14 102.34 463.59 100.84 461.74 97.72 455.62 94.42 452.78 94.04 450.06 92.48 445.87 88.42 442.53 87 441.76 84.87 441.87 83.2 440.89 79.61 437.54 78.26 434.67 78.08 432.01 75.11 432.85 72.58 431.67 71.53 430.26 70.39 429.6 67.31 429.99 63.87 428.82 63.45 426.36 60.38 424.84 58.96 423.14 57.53 422.49 54.54 422.19 54.21 421.23 54.86 418.4 55.28 415.14 54.63 413.64 54.92 411.41 56.31 409.49 56.75 406.23 57.14 405.07 57.3 402.76 59.53 401.76 60.48 400.19 62.16 396.4 61.9 394.46 62.76 393.02 63.28 391.01 64.53 389.53 64.97 387.35 63.56 387.03 61.38 385.92 59.2 384.34 58.49 382.43 55.83 382.16 52.95 380.84 51.82 379.79 49.04 377.83 49.57 377.04 48.3 375.01 47.62 369.19 48.03 368.12 46 365.54 44.79 363.38 44.45 359.87 44.83 355.31 44.3 354.05 44.99 351.33 43.4 350.23 42.08 349.95 41.04 349.16 39.67 347.13 39.96 345.32 38.52 342.92 41.53 341.12 40.05 329.78 39.47 327.23 40.8 326.5 47.74 321.45 55.45 304.45 56.21 290.26 58.98 269.04 61.73 247.2 62.45 242.33 63.19 238.29 63.21 228.94 64.01 205.13 64.77 195.83 64.73 182.46 64.22 170.19 63.92 157.91 67.02 150.36 69.8 144.53 74.09 135.09 78.71 112.46 83.86 99.94 85.63 95.43 87.2 86.92 92.09 79.37 96.98 71.97 102.55 64.27 107.93 58.57 123.27 48.96 130.2 48.17 138.62 49.13 147.86 52.93 155.67 57.75 160.12 63.38 167.01 69.03 173.04 70.93 176.97 71.85 184.66 70.75 190.78 69.97 198.45 62.48 206.14 57.69 213.84 53.94 221.5 49.74 221.92 49.07 227.69 47.42 223.01 47.42 231.43 34.08 237.57 28.4 243.76 20.84 246.04 25.16 246.04 19.32 250.64 16.15 259.22 11.41 275.28 6.68 282.94 3.83 292.84 1 301.32 1.08 310.52 2 317.44 6.7 333.8 19.88 349.63 28.43 359.61 30.35 367.29 31.29 377.24 31.27 395.69 34.14 407.19 34.14 416.36 30.36 427.38 21.3 430.25 22.97 Z" id="35030000"/>
</g>
</svg>