<?xml version="1.0"?>
<svg xmlns="http://www.w3.org/2000/svg" version="1.2" baseProfile="tiny" width="800" height="727" viewBox="0 0 800 727" stroke-linecap="round" stroke-linejoin="round">
<g id="sigung">
<path d="M 693.09 199.66 693.9 199.83 694.65 200.77 697.83 201.22 699.06 201.67 701.41 201.77 704.6 204.93 707.51 207.11 708.72 207.27 709.4 208.22 710.54 209.06 710.79 210.17 711.75 210.66 713.73 212.96 714.89 212.35 715.56 212.52 718.11 210.91 718.98 211.93 720.64 213.1 721.18 214.99 723.22 216.81 724.28 217.2 726.17 220.26 728.28 221.47 729.18 222.36 728.98 224.93 729.69 225.83 726.64 229.06 725.15 230.11 724.8 232.8 724.17 234.82 723.35 236.55 724.11 240.36 723.91 241.76 725.24 244.43 728.56 245.29 730.9 246.03 732.33 247.31 733.26 247.65 733.82 248.37 735.13 249.16 735.73 249.98 736.94 250.5 737.72 251.54 739.33 253.13 739.28 253.9 742.31 256.87 742.53 257.48 744.35 258.31 744.69 260.72 744.48 262.13 743.58 264.6 742.52 265.47 742.4 266.83 742.59 268.82 742.21 269.7 741.22 270.69 740.07 274.25 741.62 275.96 741.88 277.43 742.66 278.5 742.2 279.59 741.58 281.81 741.75 283.12 742.77 284.01 743.23 285.78 742.99 287.61 743.34 289.36 743.25 291.21 742.98 291.98 744.18 292.8 744.35 293.89 744.26 295.65 744.69 296.79 745.22 297.23 746.18 298.69 747.67 300.61 750.07 302.53 749.28 304.17 752.32 306.72 750.95 309.34 750.81 310.97 748.42 314.15 747.61 314.44 747.17 318.63 745.4 320.95 744.95 321.94 745.44 324.95 746.41 327.19 747.41 327.39 749.78 331.11 749.9 332.38 751.1 335.18 748.51 337.59 748.66 338.78 747.91 339.99 747.57 341.19 746.81 342.13 746.79 343.72 745.95 348.88 745.99 350.09 746.52 351.57 746.16 352.64 747.73 356.56 750.21 357.45 751.44 362.16 752.89 362.29 755.61 364.6 756.79 366.02 757.29 369.28 765.13 377.3 765.68 378.54 766.3 379.06 765.96 380.85 766.66 381.85 767.45 383.93 766.35 384.32 767.76 387.88 768.31 388.31 768.54 389.81 769.05 390.62 770.02 391.17 771.38 393.15 771.4 394.06 772.7 395.04 774.72 398.02 774.4 399.69 772.39 401.56 772.16 403.87 770.94 406.08 771.15 406.47 770.77 408.43 770.3 412 767.51 412.18 765.53 414.03 764.76 414.38 763.38 414.3 761.81 416.72 760.31 416.76 759.3 417.29 758.2 418.75 757.62 418.88 755.69 418.4 754.68 418.52 752.21 419.67 751.47 419.3 747.98 421.16 745.74 419.74 744.24 419.36 742.89 419.81 741.75 419.46 740.01 420.12 738.03 420.29 736.9 421.84 735.38 422.69 733.38 424.73 731.67 425.86 731.9 427.3 732.42 428.3 731.6 429.72 732.07 432.22 732.71 433.03 732.52 435.33 734.29 437.42 734.2 439.56 737.12 442.14 739.23 444.94 739.17 446.8 740.04 446.88 741.55 446.24 743.04 447.5 743.24 449.93 742.69 451.02 743.11 452.89 743 453.99 743.8 456.22 743.76 457.48 745.66 460.07 747.68 461.01 748.53 462.01 749.26 462.25 748.94 463.97 749.63 466.82 749.22 467.3 749.95 468.37 748.76 469.33 746.52 472.45 745.98 474.23 744.65 479.45 743.47 483.3 742.17 486.27 740.83 488.23 738.93 489.78 737.12 492.61 735.78 495.28 735.36 496.96 735.05 499.68 734.04 504.21 733.34 508.57 734.12 510.33 735.66 511.51 737.45 512.65 739.52 513.59 743.47 514.56 745.81 514.74 750.71 514.76 752.33 515.39 754.29 516.44 757.81 519.19 761.46 521.61 763.03 522.45 765.4 524.18 767.12 524.95 769.14 525.57 770.88 526.42 772.62 526.98 774.44 527.03 776.37 527.38 778.83 527.66 781.21 528.51 783.85 530.28 787.33 533.65 791.33 536.12 795.41 538.51 796.23 539.08 797.77 541.28 798.45 543.02 799 546.73 798.63 549.67 798.65 550.68 797.67 553.16 791.53 551.12 787.36 549.87 786.69 549 785.55 548.85 784.3 547.98 780.79 549.7 779.27 550.18 776.37 549.82 775.44 550.61 774.39 552.65 773.54 555.43 771.76 556.39 770.53 556.22 769.48 556.95 768.9 558.18 765.72 558.19 766.31 559.49 765.1 561.31 765.75 562.9 764.85 564.24 764.91 565.34 761.17 565.37 759.76 566.14 760.52 566.97 762.24 569.5 763.26 570.67 763.21 572.73 763.62 574.67 761.78 578.89 762.24 580.2 761.01 579.86 760.53 581.8 759.47 582.18 759.21 583.44 757.3 584.13 756.67 584.8 755.27 584.72 753.23 586.03 754.29 587.5 754.84 589.23 754.75 590.51 753.84 591.78 754.99 593.56 755.5 594.81 756.02 597.04 756.49 597.34 757.68 595.43 758.48 594.57 757.61 593.59 757.92 592.28 757.71 591.43 758.64 590.44 760.01 586.54 760.96 585.95 762.14 586.6 762.62 584.74 763.73 584.04 764.08 583.5 766.43 582.86 767.3 581.87 768.28 581.16 770.16 582.77 775.38 585.12 776.45 585.1 777.29 585.55 781.08 584.22 782.48 583.98 784.48 584.35 784.15 586.26 783.49 587.48 782.48 588.41 781.54 588.83 781.37 589.52 782.2 589.74 782.86 590.5 782.46 592.32 781.11 593.51 781.3 595.7 781.1 596.91 781.76 597.65 781.17 599.62 782.98 604.32 783.97 608.33 784.28 608.98 783.69 609.11 782.48 608.62 780.89 608.25 778.38 608.5 777.49 609.02 775.23 609.07 774.08 611.95 770.27 611.64 766.5 612.3 762.51 613.58 761.2 612.97 759.85 613.06 758.18 614.47 756.05 615.42 753.99 615.1 751.22 615.86 748.95 616.67 747.81 618.15 746.72 620.17 744.03 615.52 741.04 612.09 734.83 614.19 731.38 615.14 729.33 613.68 728.74 613.52 727.49 612.16 724.84 609.54 724.49 609.02 720.92 607.07 720.36 607.34 718.3 606.73 717.58 606.77 716.86 604.67 716.29 603.84 714.57 602.7 714.13 600.3 714.54 598.08 711.36 597.47 709.2 597.21 708.27 595.97 705.48 594.64 701.06 593.04 699.33 591.97 697.46 592.62 696.5 593.97 694.13 596.86 693.17 598.19 690.76 600.26 688.41 604.24 687.35 604.42 686.6 605.74 684.94 606.42 682.73 606.38 680.08 607.14 674.47 608.88 674.06 607.88 673.08 606.48 670.98 605.88 669.92 604.51 667.63 603.12 667.16 602.37 667.22 600.37 667.92 598.32 667.93 597.61 668.45 596.77 668.25 593.31 668.91 591.08 669.03 589.56 669.54 587.77 669.47 586.66 668.96 585.3 668.12 584.3 667.3 582.5 665.98 580.16 665.12 579.24 662.11 578.7 660.08 578.74 658.89 579.46 656.86 579.47 653.18 576.74 651.26 576.21 650.33 574.94 649.41 571.92 647.41 571.13 646.02 569.33 645.91 567.7 646.1 567.29 646.04 564.03 644.25 561.76 642.02 560.17 640.81 559.78 640.53 559.34 637.41 557.82 634.8 556 634.4 555.52 632.66 554.52 629.86 554.55 627.48 553.91 626.66 554.01 626.18 553.61 623.14 553.08 622.08 552.36 619.77 551.49 617.54 549.12 616.87 548.91 615.82 547.83 614.68 544.14 611.53 543.88 610.36 543.44 609 541.83 609.36 540.73 609.15 538.95 608.58 537.41 607.77 534.6 606.64 533.35 604.8 530.16 604.26 528.28 605 523.63 605.98 523.62 605.43 522.49 604.5 522.2 604.5 519.42 599.77 520.61 598.47 520.65 596.6 520.98 592.31 524.08 590.45 525.75 587.44 527.61 585.7 527.56 584.13 528.45 582.77 529.55 580.17 529.06 579.1 528.47 576.67 528.01 576.46 529.12 574.03 530.74 572.23 530.8 569.49 531.69 567.57 531.29 564.34 532.53 562.85 533.35 560.48 534.07 558.42 534.19 558.05 535.81 557.23 537.6 556.14 539.08 552.98 540.92 552.24 541.75 550.66 540.48 546.3 537.28 545.1 534.28 542.46 532.27 541.97 530.06 540.85 527.77 539.38 524.11 538.23 521.8 538.48 520.23 534.65 519.13 534.02 517.8 532.86 517.06 530.95 514.55 531.3 513.72 533.03 511.15 531.83 509.94 530.63 509.38 530.25 508.14 529.5 507.17 528.52 506.56 529.29 502.57 529.05 501.17 527.96 500.21 526.78 498.12 524.82 495.88 523.98 496.37 522.29 496.39 520.6 496.12 517.71 495.16 516.86 495.07 515.57 496.53 514.59 496.98 513.64 498.58 512.73 498.86 510.35 500.35 508.18 503.28 506.92 504.54 496.3 510.37 492.35 511.73 490.66 514.02 489.3 515.6 488.05 518.84 488.77 520.72 488.82 523.08 485.32 524.29 480.67 526.77 480.01 528.89 477.13 531.57 475.79 534.29 474.91 534.54 474.76 535.06 473.14 538.31 471.81 538.35 471.09 537.79 469.33 538.04 469.38 538.66 467.74 542.89 468.13 544.04 467.78 545.63 467.88 547.29 467.15 550.76 469.93 552.14 468.18 554.24 467.67 555.11 465.89 555.69 464.69 556.32 463.85 557.48 462.96 559.55 460.86 561.34 457.43 560.81 456.58 561.2 455.62 561.03 454.81 561.48 448.68 564.23 447.51 564.24 445.86 563.89 445.41 564.66 444.57 565.13 442.98 567.54 442.32 567.78 441.98 568.6 440.98 569.72 439.36 572.55 438.21 573.74 434.43 570.88 433.32 569.62 431.09 569.95 430.31 570.91 429.39 571.37 429.48 572.73 428.78 574.11 428.22 576.69 427.68 577.35 427.76 578.65 427.23 579.29 427.64 581.08 425.91 582.59 425.48 584.23 424.59 585.22 423.8 585.71 424.36 587.46 425.44 589.44 425.78 590.98 425.5 593.05 425.05 594.57 425.5 597.31 425.59 599.15 426.7 599.94 426.94 601.22 427.07 604.12 426.62 605.88 426.97 606.72 426.79 608.44 424.92 611.08 428.19 610.02 432.44 613.73 434.43 614.24 434.56 615.59 434.38 616.53 434.92 617.34 434.35 619.93 434.31 620.93 433.44 622.1 433.62 623.86 434.45 624.79 435.1 626.3 434.9 626.88 437 628.21 435.43 629.91 434.93 630.8 435.2 632.31 434.87 633.66 435.86 635.33 436.36 636.54 437.89 638.05 437.86 640.51 438.11 641.93 438.85 643.16 440.57 643.67 441.33 645.25 442.54 646.4 443.68 648.38 444.96 647.92 446.23 648.72 447.39 648.97 447.57 649.87 448.37 650.03 450.07 651.42 450.4 653.87 446.56 655 445.95 655.5 444.58 655.39 442.43 656.63 442.23 657.46 440.55 658.81 439.19 660.24 438.86 660.87 438.7 662.49 440.22 663.89 438.25 666.75 438.21 668.52 437.55 670.08 437.61 671.75 438.1 674.04 438.78 675.62 437.57 676.22 435.95 676.69 435.38 677.55 434.42 677.91 431.32 678.05 429.52 677.52 425.64 680.64 423.63 681.27 422.54 682.53 421.73 682.54 420.28 681.78 419.72 680.43 418.62 676.61 416.75 674.68 415.8 674.55 415.14 673.94 413.73 673.9 412.5 673.34 411.62 673.6 410.59 674.49 410.05 675.68 408.6 676.95 407.16 677.02 406.07 677.39 404.92 676.98 403.65 678.79 402.9 679.23 401.92 680.65 401.46 681.91 398.62 683.96 397.88 685.51 397.58 686.75 396.65 686.84 394.34 688.13 392.53 688.1 390.19 687.77 385.76 686.29 383.88 686.41 381.4 683.83 380.72 684.37 379.17 684.6 375.29 683.55 370.79 682.46 366.68 679.07 363.27 678.46 356.25 678.05 355.1 678.23 353.23 679.16 352.63 679.67 348.94 681.35 347.72 682.93 346.5 684.22 345.46 684.13 343 680.97 339.71 679.45 338.1 678.45 336.14 676.34 335.64 675.39 334.39 675 333.41 673.75 331.29 672.62 329.58 671.34 329.36 669.81 328.86 668.38 323.58 670.5 322.53 670.01 321.76 670.07 321.18 671.69 319.75 672.16 318.62 673.53 318.06 674.79 318.16 675.41 316.83 676.91 316.1 678.57 314.78 678.77 314.58 679.98 313.89 681.07 312.43 679.98 310.46 679.04 309.15 679.12 306.18 679.8 304.42 679.24 301.94 679.02 300.21 678.57 298.21 678.86 297.48 678.78 295.69 679.52 293.88 679.32 292.88 678.97 289.74 679.76 287.93 681.18 287.41 681.03 287.31 683.75 287.63 684.24 288.73 684.49 289.44 685.51 291.73 687.11 290.72 688.68 290.57 690.63 289.63 693.17 289.4 694.29 290.1 696.32 291.45 697.69 291.63 699.09 291.55 700.85 292.59 702.4 293.32 702.93 293.78 704.11 293.97 705.5 295.99 706.59 296.02 707.97 296.35 709.29 296.3 710.51 296.53 712.05 296.28 713.19 297.05 715.41 296.9 716.94 298.03 719.41 299.09 719.68 301.45 720.71 303.2 721.96 303.8 723.21 304.53 723.58 305.83 724.88 305.46 725.46 303.52 725.39 299.21 724.9 298.08 725.23 296.5 725.3 295.12 725.89 294.19 726 292.5 725.24 291.62 724.37 290.17 723.67 289.62 723.88 288.07 723.78 285.5 723.1 284.4 721.88 284.14 721.02 283.21 720.07 282.72 719.14 281.82 718.7 280.78 718.79 278.91 718.37 276.93 717.72 275.61 716.47 273.63 716.22 271.22 715.51 270.11 714.94 268.47 714.96 265.59 715.86 264.09 716.6 263.78 717.33 262.67 717.95 261.1 717.72 260.54 718.2 257.94 718.28 256.37 718.52 254.78 719.48 253.06 719.38 252.08 720.18 251.05 722.23 247.98 723.39 246.92 723.15 245.29 721.7 244.2 719.35 243.78 717.84 246.39 715.77 248.47 713.55 249.77 712.57 251.25 711.92 250.17 708.83 248.45 707.76 248.4 707.08 249.09 705.26 250.13 703.54 250.53 702.06 250.28 701 250.95 699.16 250.84 698.24 251.72 694.64 251.73 693.28 252.48 691.41 254.1 689.53 254.15 686.64 253.94 686.11 254.24 683.97 253.66 682.74 252.82 682.33 252.14 682.47 250.23 682.28 249.6 681.98 247.34 681.66 244.94 681.83 241.98 681.38 238.52 681.35 231.6 679.54 229.05 678.2 228.68 676.19 227.87 674.27 227.82 673.59 227.02 672.48 225.53 670.9 225.43 668.75 224.88 666.26 223.85 664.84 221.96 663.99 219.62 664.79 217.98 664.51 216.41 663.41 214.87 663.28 213.6 665.17 211.39 666.12 210.2 666.25 208.63 665.89 206.67 664.37 206.86 663.72 204.08 665.26 203.46 666.46 202.03 667.77 200.89 668.22 199.79 668.14 197.52 668.41 196.03 669.88 196.22 670.94 196.84 672.51 197.34 674.55 196.22 677.74 195.52 678.88 195.29 680.51 195.34 681.63 195.82 683.74 194.88 685.46 194.28 687.56 193.92 689.48 195.71 691.85 198.86 695.3 197.74 696.36 197.48 698.01 196.51 699.06 196.62 700.82 197.17 704.59 196.49 706 196.14 707.35 192.28 707.59 189.71 707.48 184.56 708.92 180 708.96 175.61 709.36 173.48 708.28 172.18 707.79 170.8 708.45 168.97 708.83 165.1 709.02 162.65 708.73 161.21 707.87 159.71 707.65 157.07 708.3 156.51 708.97 153.09 710.1 151.05 709.61 150.39 709.84 146.34 708.38 142.88 708.09 140.62 707.5 138.42 705.41 135.83 703.99 132.31 702.77 130.27 703.81 130.07 704.42 127.8 705.55 123.4 706.17 120.93 706.83 119.59 707.35 116.71 708.02 115.14 708.88 113.83 709.38 114.09 705.97 114.79 704.94 114.54 703.38 114.5 701.64 113.83 698.41 112.68 696.54 111.87 694.74 111.62 691.93 111.33 691.55 111.5 688.94 110.68 684.25 109.43 681.23 108.88 676.16 109.29 674.5 108.39 673.07 108.36 672.2 107.05 669.92 105.28 668.19 103.78 667.5 102.29 666.05 102.13 664.06 101.77 662.64 101.65 660.48 101 659.62 100.06 654.17 100.25 653.22 99.43 651.95 98.98 650.02 97.5 649.06 97.49 648.07 98.37 647.13 99.38 646.98 99.98 646.48 100.78 645.01 102.42 643.63 103.44 643.2 104.39 642.04 104.76 640.73 105.63 640.59 105.04 637.76 105.33 635.44 105.05 631.4 105.12 628.95 103.37 627.07 103.84 626 104.84 625.52 106.02 623.02 107.05 621.68 108.21 619.73 109.16 617.51 110.11 616.39 110.48 615.04 109.99 614.48 110.06 612.69 109.08 611.9 108.64 609.68 107.33 610.06 106.67 609.78 105.99 608.81 102.78 608.67 100.88 609.3 99.78 608.96 98.71 608.16 97.97 608.23 96.54 607.9 95.4 607.98 94.01 607.41 92.92 606.17 91.65 606.07 90.44 605.55 88.75 604.13 88.64 603.79 90.92 601.66 88.77 600.95 89.51 598.69 87.56 598.05 88.12 596.77 88.43 594.4 88.43 592.72 90.83 589.95 91.98 589.42 93.07 588.24 94.88 587.57 95.47 586.74 96.26 586.22 97.2 586.11 98.16 585.34 99.6 585.33 100.6 585.02 101.92 583.85 101.92 582.83 102.35 582.09 104.29 581.67 105.18 581.85 106.46 580.74 108.32 580.41 108.98 579.78 109.9 579.47 110.65 577.72 114.03 576.34 116.85 575.61 117.11 574.6 117.24 572.76 115.56 573.7 115.16 573.34 114.5 571.75 113.25 570.97 111.28 569.24 109.46 568.26 108.32 568.3 107.51 567.21 106.36 568.05 104.39 565.44 106.2 564.11 105.1 562.17 103.97 560.73 103.5 559.82 103.49 558.51 103.09 558.02 102.25 558.71 99.23 559.06 97.58 557.86 97.49 556.73 96.42 555.53 96.89 554.83 97.51 552.89 99.27 551.2 99.4 549.86 98.33 550.14 96.21 551.35 94.42 551.33 93.35 550.98 91.35 550.84 92.81 549.04 92.41 545.77 93.01 544.7 93.62 544.36 93.35 542.5 94.33 541.83 94.37 540.67 94.98 539.48 95.09 538.3 93.34 535.2 93.15 534.39 93.19 532.6 94.49 530.46 94.61 529.69 93.72 526.78 93.05 525.96 93.83 524.91 93.5 522.32 94.25 520.81 95.51 520 96.9 518.69 97.31 518.74 98.84 516.98 100.4 514.39 101.57 511.54 100.53 510.07 100.31 508.87 99.75 507.84 99.41 505.79 98.82 504.22 97.47 503.35 96.22 502.12 95.86 501.17 96.64 500.84 95.7 498.98 94.67 498.01 94.51 497.15 96.49 495.99 97.09 493.73 97.68 493.49 98.89 494.14 99.75 493.75 101.29 492.6 101.75 491.54 102.53 491.1 102.14 490.35 102.23 488.67 104.5 488.81 104.54 488.08 106.94 488.22 106.99 487.42 104.66 487.29 104.8 485.13 107.71 485.31 107.29 484.19 107.89 483.24 107.09 482.28 106.26 480.02 105.17 478.3 103.89 477.81 102.56 475.57 101.85 473.41 100.39 471.88 98.29 468.48 98.39 466.93 96.8 465.23 97.56 464.66 91.4 457.71 92.08 457.08 89.67 455.87 88.09 457.29 83.55 452.16 82.03 453.5 81.19 452.81 78.28 449.44 78.19 450.16 78.66 451.25 80.59 453.13 80.6 453.38 76.7 453.11 74.68 456.65 73.49 456.57 69.92 458.42 68.23 459.41 67.29 459.29 64.26 459.76 62.84 461.19 60.42 462.09 59.75 462.61 58.66 462.82 58.37 461.66 58.54 460.71 56.84 459.76 55.45 460.26 55.26 459.3 53.35 457.26 52.67 456.85 51.8 456.9 52.18 458.36 51.32 461.09 51.26 461.9 49.8 463.87 48.97 464.65 47.04 462.48 46.23 462.4 44.04 463.6 43.23 464.52 41.46 463.66 40 463.16 36.44 461.02 35.7 461.06 32.67 459.95 31.1 458.89 27.72 458.66 26.54 459.12 25.75 458.98 24.88 457.97 25.49 454.55 25.13 454.62 17.68 454.48 17.76 449.7 16.3 449.66 16.21 454.45 8.05 454.3 7.16 452.64 6.09 452.53 4.43 450.89 3.08 450.42 1.66 448.34 1.42 447.29 1.52 443.07 2.35 441.02 1 437.96 1.07 437.04 3.16 432.18 4.51 430.38 5.5 426.93 6.32 427.13 18.34 427.33 18.72 407.42 19.39 404.89 19.3 404.44 19.96 403.45 21.1 402.74 22.32 402.61 22.65 401.05 21.23 401.01 14.3 400.55 13.65 400.46 13.21 399.52 12.65 395.85 12.8 394.4 13.19 392.94 14.69 384.99 12.85 384.65 13.4 382 11.9 381.72 12.34 379.4 11.36 379.12 12.03 377.19 13.57 373.77 13.04 372.75 12.43 369.69 12.41 367.68 11.62 365.68 9.99 362.16 10.78 359.86 11.34 354.71 11.74 353.19 12.09 350.23 12.77 349.1 13.44 349.11 14.13 346.62 16 345.08 16.46 344.23 15.87 341.89 15.52 339.4 14.56 339.75 13.25 337.47 13.29 336.61 14.7 333.75 14.51 332.06 15.03 328.42 14.64 324.48 13.18 323.91 13.22 319.74 12.34 319.73 12.29 318.26 11.73 317.38 11.53 316.15 11.75 315.06 10.72 313.85 11.52 311.75 12.08 311.6 12.81 310.64 13.81 310.43 14.72 309.27 15.87 309.51 16.65 306.16 17.45 302.2 17.56 301.19 18.23 297.95 18.78 294.58 18.06 294.39 20.81 282.83 20.22 282.68 20.72 280.66 21.21 279.96 22.14 279.63 24.66 277.1 23.9 270.15 27.39 269.77 27.13 267.4 34.68 266.62 35.06 265.83 36.86 264.41 37.53 264.32 37.9 263.33 39.2 263.18 39.66 263.55 40.2 264.87 40.72 267.52 41.33 267.77 43.65 263.8 45.79 265.06 49.54 258.66 47.39 257.4 54.51 245.22 52.66 244.12 52.56 243.8 57.3 235.65 55.06 234.33 58.9 227.75 57.53 226.95 58.11 225.85 62.28 228.7 65.82 230.36 70.2 232.94 73.12 222.69 80.74 224.85 80.3 226.44 82.57 227.08 81.94 229.34 86.9 230.79 87.27 231.62 91.97 232.89 91.23 235.96 94.32 236.89 96.05 236.65 96.41 235.72 95.79 234.91 96.83 232 98.91 231.99 99.57 231.7 100.35 230.73 100.13 228.98 98.47 228.6 97.69 228.21 97.85 226.68 99.23 225.54 99.5 224.9 99.77 222.81 99.81 221.03 99.11 218.84 98.86 216.97 100.34 214.72 100.46 213.16 99.61 210.31 99.83 209.53 102.59 205.61 103.09 204.7 103.93 201.43 105.38 198.57 105.84 197.33 106.15 194.71 108.13 192.18 109.2 189.33 110.54 187.86 112.83 186.92 113.26 185.9 114.04 186.52 115.75 184.23 118.56 186.34 119.96 184.48 124.29 187.7 122.89 189.59 125.77 191.75 124.12 193.94 136.51 203.22 136.98 202.91 145.97 205.01 146.57 202.34 147.64 203.19 149.16 202.19 150.69 200.25 151.76 199.38 152.27 198.64 153.79 197.4 154.01 195.56 155.45 193.18 156.06 192.48 157.62 191.97 158.75 190.55 158.76 189.61 160.75 187.41 161.54 186.1 162.19 184.55 164.51 183.94 165.97 181.65 166.42 181.57 167.63 183.15 169.76 185.29 171 187.26 171.35 189.27 171.25 190.04 171.8 190.37 171.64 191.62 173.46 193.88 176.73 199.1 179.03 201.75 180.94 203.09 182.79 198.97 184.56 195.34 186.51 192.27 186.84 191.25 188.57 191.38 190.31 190.23 191.68 188.55 193.44 187.84 194.71 187.67 195.71 186.5 196.63 186.65 197.4 186.39 197.52 185.22 198.64 184.17 200.81 183.91 200.61 185.2 200.84 186.55 203 187.14 204.74 187.26 204.53 188.68 206.94 188.92 206.67 191.45 223.17 193.18 223.61 192.69 223.89 191.05 223.83 189.56 224.82 186.9 225.37 186.05 226.58 182.52 225.69 182.02 226.67 181.25 228 181.32 227.97 180.57 228.9 180.12 230.17 180 230.72 178.5 232.74 178.91 233.53 178.34 234.95 178.49 235.01 177.62 238.07 176.07 238.7 174.48 239.08 172.9 240.77 167.07 244.81 151.63 250.59 158.87 251.01 156.75 250.94 155.75 250.04 154.68 250.04 150.27 248.02 148.54 247.21 147.48 247.34 146.76 248.1 145.9 248.37 144.78 247.52 144.13 246.73 144.76 245.48 146.28 242.83 146.98 240.4 145.25 239.08 144.45 236.88 143.4 235.92 142.4 236.1 141.49 236.92 140.47 238.5 137.12 238.6 135.29 237.84 134.1 237.05 133.44 234.22 132.48 232.99 131.86 232.24 130.94 230.67 127.78 228.11 125.78 226.92 124.25 226.66 122.63 226.15 121.1 225.27 119.57 222.64 116.47 221.81 115.23 221.5 113.7 221.54 112.1 221.91 110.79 222.78 109.08 223.27 109.43 224.05 108.55 225.93 110.19 228.85 106.91 227.07 105.35 228.7 103.49 228.35 102.92 227.1 102.38 224.93 98.3 228.11 96.6 229.99 95.85 231.69 94.74 241 89.01 243.41 87.76 244.23 86.91 246.7 85.14 248.4 83.63 254.19 79.67 255.57 79.4 256.72 79.74 257.5 80.51 261.43 77.82 262.25 77.13 262.46 76.45 264.22 76.02 264.94 76.45 266.25 76.67 268.27 78.49 268.61 78.03 269.69 79.07 270.74 79.73 273.17 80.61 274.5 80.67 275.06 80.42 277.46 80.25 280.19 80.76 282.62 80.45 284.43 79.82 286.12 78.73 286.87 77.65 288.64 76.77 290.86 77.24 291.95 76.98 294.07 77.45 297.27 77.45 298.25 77.02 300.84 76.33 302.45 76.4 303.1 77.53 304.8 74.6 306.36 72.36 307.08 71.85 307.34 70.84 308.03 69.97 312.43 67.68 313.36 66.77 314.66 66.94 315.53 64.79 316.02 64.25 316.96 64.07 317.15 63.6 316.78 62.53 318.13 61.08 319.17 60.33 321.77 57.81 323.42 55.55 325.33 53.97 326.58 52.39 327.06 51.47 329.56 47.83 329.66 43.99 331.95 44.02 332.05 38.93 332.53 38.81 332.79 26.86 329.84 26.81 329.9 22.54 327.71 22.5 327.65 19.86 325.38 19.83 325.33 18.07 323.15 18.05 323.16 17.61 320.86 17.56 320.87 17 318.53 16.97 318.6 11.7 316.31 11.67 316.36 8.02 315.43 7.29 313.96 7.25 313.97 4.47 314.81 3.22 314.82 2.16 315.54 1.99 319.26 1.62 321.1 2.1 322.13 3.76 323.09 5.85 324.65 5.89 325.32 4.88 327.63 3.86 328.19 2.05 328.67 1.51 330.57 1.07 333.04 1 334.06 1.31 333.99 2.31 332.61 3.11 331.3 5.05 331.24 5.77 331.79 6.64 333.59 5.98 334.26 4.1 336.45 4.41 336.29 7.81 336.9 11.9 335.35 11.18 335.3 16.02 344.43 16.12 344.45 14.43 341.91 13.9 340.94 12.92 340.91 12.05 341.59 11.84 343.06 12.7 344.64 12.85 345.68 12.62 347.26 11.65 347.74 11.95 347.61 14.23 347.92 14.97 349.13 14.72 349.05 13.17 349.57 12.8 350.81 13.54 352.28 13.54 353.13 12.72 353.99 12.59 354.34 13.23 353.14 15.24 353.64 15.91 353.62 16.94 354.23 17.56 356.54 17.59 356.74 15.52 357.46 14.83 358.03 15.59 357.69 16.56 358.85 16.83 358.98 15.99 359.74 15.18 360.9 14.71 361.73 14.85 361.96 15.38 360.95 16.61 361.09 17.51 361.84 17.68 362.71 16.69 363.7 16.37 365.82 18.31 366.41 19.16 368.04 18.78 370.27 18.86 370.33 20.32 369.36 20.52 368.53 21.31 368.59 22.08 369.21 22.4 371.4 22.42 372.62 22.09 373.39 22.17 373.91 24.63 374.8 25.06 375.76 24.74 377.09 22.98 378.45 22.69 378.85 24.55 377.89 24.16 377.33 24.95 377.47 25.63 378.16 25.74 379.34 24.75 380.86 25.28 379.95 26.92 380.1 27.62 381.38 28.26 381.89 28.78 383.61 28.64 383.34 29.46 383.8 30.5 388.05 32.33 392.16 34.63 391.93 35.35 394.02 36 394.34 35.01 393.71 34.76 396.35 33.74 399.25 35.36 399.88 35.18 401.1 33.69 402.56 35.24 404.56 36.99 403.48 38.22 403.59 39.73 404.14 41.64 405.94 42.71 408.66 43.59 409.25 44.85 410.76 46.42 412.34 49.34 413.21 50.43 413.9 50.87 416.18 53.74 416.5 54.68 418.27 55.6 418.66 57.34 416.83 58.01 418.34 60.3 420.18 62.22 421.97 63.36 422.91 64.26 424.78 66.72 425.53 68.81 425.61 70.63 425 71.68 426.15 74.89 427.05 75.69 427.9 78.04 427.68 78.68 432.4 90.22 433.76 90.05 435 92.95 435.81 92.62 436.68 94.76 437.76 94.4 438.56 96.44 439.65 95.86 439.24 95.28 439.12 93.33 439.34 91.94 439.17 90.52 440.35 90.79 442 90.79 441.97 91.34 443.86 91.49 446.16 90.04 447.69 90.33 448.09 90.73 449.29 90.9 452.78 90.53 453.86 91.53 454.54 93.72 459.14 92.38 464.17 89.93 467.89 86.05 469.06 85.59 470.36 85.49 472.67 84.69 474.42 86.12 476.04 86.5 479.98 86.54 484.45 86.94 486.29 87.25 487.67 87.8 489.49 88.15 493.5 89.99 496.02 90.9 497.88 92.12 498.9 92.17 500.54 92.79 502.25 93.13 503.87 93.93 505.74 95.1 507.33 96.36 508.86 98.16 510.56 99.49 512.06 99.94 515.25 101.69 517.28 102.96 519.05 103.31 521.68 104.16 522.28 104.52 525.15 106.84 525.72 106.99 526.49 108.01 527.72 108.82 529.2 109.41 529.85 110.73 529.72 111.53 530.15 112.47 528.55 113.21 528.81 114.58 531.5 117.24 532.38 117.76 533.76 118.96 534.09 119.54 535.13 120.07 536.2 121.23 537.83 125 539 126.65 539.54 128.3 540.51 129.01 543.98 129.83 544.38 130.68 546.02 132.16 545.9 133.57 546.29 135.74 545.41 137.08 545.67 139.07 546.98 140.24 549.57 140.09 550.93 140.87 551.12 142.88 551.98 144.34 552.6 146.31 552.02 148.14 552.14 149.34 552.59 150.8 552 152.47 551.2 153.21 550.31 154.73 550.68 156.86 551.14 158.17 551.93 159.57 551.16 161.14 550.73 161.37 550.16 162.62 550.25 163.43 551.17 165.57 550.32 166.92 549.69 167.4 548.98 169.29 550.62 171.35 552.68 170.36 554.54 170.69 555.66 172.38 555.98 174.29 556.44 174.24 556.69 175.58 557.25 176.91 558.31 177.39 560.11 176.93 561.02 177.42 563.12 177.71 564.25 178.89 564.74 179.95 566.85 180.13 567.7 179.22 570.59 178.52 571.69 179.49 571.31 180.27 571.06 182.17 572.12 183.58 572.52 184.6 574.58 186.53 574.87 187.84 576.12 189.25 575.7 193.42 577.38 193.64 578.44 193.14 580.81 194.42 582.46 194.76 583.26 194.62 584.12 193.77 584.92 193.79 585.73 194.28 586.65 194.34 586.21 195.62 586.09 196.86 586.99 198.47 587.03 199.18 589.15 200.1 590.53 199 591.71 199.51 592.32 200.29 593.35 200.91 594.59 200.97 595.51 200.61 596.77 201.24 598.09 202.28 598.8 202.5 599.99 204.32 600.98 206.23 601.71 206.98 603.78 210.47 604.04 211.67 605.89 213.1 606.55 213.92 608.88 218.05 609.67 219.17 610.59 219 612.62 220.94 613.83 221.89 616.8 221.7 618.5 221 619.15 221.26 620.1 223.16 620.83 223.6 621.33 224.43 623.29 226.47 624.29 226.16 626.24 226.32 627.32 227.2 629.04 226.28 631.03 225.99 632.23 225.38 633.01 225.78 635.43 222.29 636.67 222.91 638.73 223.33 639.78 224.38 641.31 224.49 642.27 225.47 642.93 225.2 644.07 225.77 647.07 225.91 648.94 227.09 650.23 226.14 650.16 225.04 651.02 224.17 651.33 223.32 653.07 222.84 655.32 222.61 657.87 223.56 659.18 223.63 660.5 223.29 661.15 221.75 660.83 219.98 661.72 218.94 663.13 218.58 663.32 217.14 663.75 216.78 664.56 217.2 667.43 216.8 668.39 217 669.07 217.61 669.27 218.83 670.47 219.18 671.38 218.89 673.75 219.18 675.06 220.49 677.68 220.89 679.12 218.61 681.47 217.09 682.8 217.07 684.12 216.54 686.83 217.04 687.75 215.76 687.97 214.34 688.59 213.63 688.85 211.54 690.19 208 691.14 206.58 691.55 203.45 691.55 202.02 692.42 201.17 693.09 199.66 Z" id="35040000"/>
</g>
</svg>