<?xml version="1.0"?>
<svg xmlns="http://www.w3.org/2000/svg" version="1.2" baseProfile="tiny" width="800" height="1318" viewBox="0 0 800 1318" stroke-linecap="round" stroke-linejoin="round">
<g id="sigung">
<path d="M 152.41 787.35 150.72 789.42 149.68 791.49 149.13 793.02 148.22 793.52 147.75 794.25 148.51 796.62 150.75 800.23 151.19 801.26 153.24 804.09 153.38 806.53 154.2 809.47 154.75 809.94 155.72 811.9 155.71 813 151.95 812.98 152.29 813.58 152.18 816.03 152.56 816.63 151.91 819.71 152.97 821.41 152.29 825.02 152.74 830.14 153.88 831.29 153.61 832.34 152.02 834.96 150.22 837.42 149.78 838.57 153.26 840.2 152.66 840.78 150.68 841.46 150.13 842.16 149.02 842.33 148.23 843.24 147.18 845.66 147.38 847.5 147.93 848.99 147.48 849.84 146.18 851.33 147.02 853.19 147.32 854.65 145.6 856.84 146.47 857.8 145.25 858.84 145.16 859.98 143.98 861.88 145.69 863.1 146.42 865.99 146.07 866.53 147 868.5 145.63 869.8 145.59 870.71 146.09 871.33 147.18 871.71 147.12 873.98 145.53 873.46 145 872.66 142.78 871.25 139.92 870.29 139.13 870.26 137.76 871.28 135.92 871.3 134.62 870.66 133.28 870.5 132.1 871.19 131.43 872.53 130.59 873.06 129.21 873.06 127.08 872.74 125.84 872.27 123.98 870.67 124.25 869.9 121.45 869.59 119.65 868.13 118.46 866.86 116.8 866.41 115.46 865.2 113.86 864.28 111.55 863.78 109.46 863.97 107.1 863.9 105.25 864.13 102.95 863.62 100.36 862.82 98.6 862.47 100.16 860.9 99.85 860.51 99.65 858.7 101.09 856.34 100.46 855.12 97.45 855.19 95.84 854.89 94.95 853.99 93.05 853.86 91.76 855.14 90.1 855.99 89.2 857.91 83.88 856.32 81.73 855.91 81.34 855.38 79.65 854.76 79.19 853.11 79.11 851.55 77.19 851.17 77.03 850.22 75.41 849.07 72.23 848.07 71.6 845.91 70.37 844.03 68.82 845.36 68.33 847.1 66.81 847.99 64.89 849.68 62.42 850.89 59.71 850.92 59.02 852.01 57 851.79 55.06 852.24 53.59 851.5 52.82 851.85 51.75 851.63 51.13 851.04 51.03 849.55 48.65 847.25 45.83 845.63 45.82 843.45 43.8 842.57 43.09 842.64 40.33 841.69 38.13 840.4 37.23 839.33 36.58 837.9 35.04 835.87 31.48 832.63 30.1 832.23 27.21 832.05 25.26 831.29 22.96 829.63 20.94 827.35 20 825.83 18.44 824.03 17.14 822.9 15.66 822.01 14.56 821.63 10.45 817.02 8.87 814.16 7.26 811.91 6.5 808.54 6.42 807.29 6.67 804.23 7.63 800.46 7.03 798.7 6.76 795.73 6.02 793.08 5.3 791.82 4.37 788.54 3.59 785.01 2.28 782.19 1 778.89 1.97 776.8 3.63 775.46 5.46 773.06 8.38 770.72 9.34 769.74 10.34 767.78 11.87 765.67 13.88 761.19 13.68 757.56 13.45 755.59 14.41 751.42 15.74 749.36 17.95 746.78 19.1 746.16 19.49 744.09 20 742.65 20.64 741.86 23.99 739.31 24.93 738.28 26.78 735.57 28.16 734.43 28.78 733.51 28.44 731.35 31.04 731.02 28.7 712.51 28.32 709.03 28.72 708.02 28.83 706.3 28.79 702.92 24.44 694.06 24.84 693.89 23.67 691.71 24.51 681.55 26.87 681.76 26.82 682.43 27.89 682.52 27.67 684.98 34.06 685.49 33.88 687.85 38.57 688.22 38.47 689.7 40.66 692.65 41.81 693.1 42.73 694.67 42.5 694.89 40.24 695.12 40.33 696.64 37.96 695.75 37.51 696.75 39.4 697.33 44.42 700.64 45.22 697.16 46.15 695.61 46.78 695.89 47.28 694.76 48.67 692.64 49.52 691.81 49.98 692.16 51.09 690.14 53.16 688.76 55.96 687.86 58.57 687.34 58.66 685.53 61.23 679.24 64.44 679.32 65.56 678.83 67.35 677.62 67.39 681.46 66.2 686.04 66.58 687.83 68.71 689.24 68.19 690.81 70.15 693.01 70.07 695.76 69.66 695.76 69.4 697.97 68.22 701 68.2 701.85 67.3 703.26 67.28 704.9 69.26 706.87 70.45 706.77 72.67 707.03 73.33 708.55 72.61 710.54 72.8 711.92 76.93 716.53 77.15 717.42 78.08 717.87 78.99 718.82 81.99 721.38 82.77 721.79 86.42 720.7 87.72 720.98 90.16 719.88 92.59 718.25 94.56 718.16 96.11 717.65 96.9 716.83 99.7 717.2 101.23 716.82 103.54 715.3 105.31 714.49 111.11 714.39 114.51 716.51 116.11 720.25 116.59 720.87 118.26 725.72 118.91 726.58 119.1 727.51 121.17 731.1 122.43 732.94 122.98 734.7 122.96 737.14 123.16 738.4 124.43 741.1 124.03 741.91 124.94 742.5 127.37 747.37 127.58 749.27 133.49 749.29 133.49 766.05 131.39 766.46 129.27 766.55 126.51 766.41 122.69 765.82 119.32 765.39 119.02 766.95 116.61 776.63 116.67 779.78 118.08 781.45 118.71 781.66 122.95 782.2 124.31 782.87 125.41 783.92 127.92 785.4 127.94 787.21 131.81 786.2 131.79 785.8 135.06 785.89 147.12 786.96 149.01 787.05 152.17 786.77 152.41 787.35 Z M 795.45 277.48 794.67 278.63 791.99 281.64 786.47 284.5 783.18 280.68 782.15 279.97 776.8 282.06 774.51 286.23 772.95 287.59 771.29 289.51 770.51 292 769.77 297.42 766.37 299.03 765.29 305.65 763.18 306.13 762.29 307.23 762.51 312.64 763.51 315.81 763.79 318.19 762.38 319.65 762.03 322.4 763.32 324.17 764.28 328.06 765.16 330.18 766.57 333.09 768.45 336.24 767.97 340.12 766.67 343.86 766.11 346.78 764.77 350.57 764.87 351.26 768.55 357.91 769.82 360.09 771.24 360.76 772.54 363.2 768.62 362.77 765.41 361.92 764.24 361.37 761.63 362.09 758.45 363.33 754.9 363.55 753.16 365.36 750.02 365.28 746.18 364.49 745.86 367.02 744.77 370.35 743.48 373.18 742.79 375.13 741.39 377.61 740.42 378.91 738.91 380.05 737.52 380.78 734.43 381.82 730.44 384.59 729.67 385.02 727.63 385.64 726.08 388.1 725.13 391.5 724.55 394.33 725.01 396.26 725.76 398.24 725.73 399.28 723.49 402.28 724.32 403.63 724.57 405.9 724.06 409.43 724.16 410.54 726.29 412.09 726.88 412.92 727.22 414.26 728.01 415.2 728.77 415.26 729.6 415.89 730.91 416.43 731.49 417.3 731.43 421.75 730.94 422.5 731.13 424.88 730.61 425.54 730.66 427 731.21 427.89 731.38 429.67 732.05 430.1 732.56 432.89 731.73 434.44 731.5 435.96 731.13 436.45 731.25 437.74 730.58 439.32 729.01 441.41 730.4 445.09 731.15 446.45 732.61 448.03 732.9 449.47 734.16 449.86 735.08 450.59 738.98 454.82 742.36 459.36 745.37 463.85 746.02 465.1 746.8 465.98 746.78 468.41 746.97 470.27 744.11 474.34 743.68 474.19 740.78 480.52 741.31 482.11 738 483.59 735.9 485.81 735.6 490.61 736.72 491.76 737 494.02 738.49 495 740.56 500.29 740.52 501.19 743.19 501.8 743.21 502.54 743.84 503.8 744.55 508 744.34 509.38 742.63 511.58 743.24 513.23 743.24 514.32 742.81 517.75 742.05 518.67 740.63 519.65 740.2 522.43 736.8 525.89 739.56 528.26 741.27 532.98 743.15 536.49 742.42 539.59 741.88 547.88 743.37 548.97 747.43 553.92 749.16 559.27 743.94 560.89 743.11 560.5 739.3 560.88 738.89 560.09 738.14 559.74 736.29 560.83 735.89 561.49 733.5 564.32 729.77 566.12 727.92 567.68 724 569.98 722.85 571.4 721.11 571.42 717.42 572.53 715.4 572.62 710.08 571.76 705.87 571.39 703.89 571.86 704 574.06 705.46 575.67 706.08 575.85 707.03 577.85 706.86 578.95 707.06 580.01 706.77 581.4 707.01 583 707.41 587.24 707.73 588.19 706.09 590.91 705.78 594.96 704.41 596.48 706.21 603.1 707.58 604.82 708.1 607.87 707.98 609.95 708.17 617.78 709.28 624.9 706.3 629.35 702.8 631.98 702.65 632.8 703.8 636.47 704.58 636.71 707.63 639.25 706.95 643.13 706.66 645.61 705.59 646.31 705.41 648.64 704.4 650.96 705 652.38 705.06 653.7 707.66 656.23 706.77 661.31 697.75 664.6 692.45 664.64 688.42 666.32 688.5 669.11 688.08 671.83 686.43 673.59 683.1 673.71 680.31 675.33 680.06 676.5 679.9 679.21 678.97 684.53 676.99 688.12 681.11 690.86 684.1 693.02 686.98 698.23 688.53 701.93 689.2 702.65 689.62 703.71 688.88 708.98 687.14 712.92 684.68 714.5 684.01 715.09 682.75 717.08 682.18 717.56 681.3 719.7 681.54 723.2 682.23 728.1 680.22 728.04 676.4 732.67 674.27 734.69 668.57 738.05 666.64 739.35 663.87 740.51 662.9 741.49 661.42 741.32 659.98 744.36 660.41 748.48 659.29 750.63 658.55 751.69 659.94 756.05 658.33 761.43 659.46 762.67 656.53 765.2 655.8 765.37 656.3 767.32 655.68 769.88 655.56 771.96 656.47 774.46 656.3 775.56 657.23 777.58 656.51 780.82 656.9 782.32 659.97 785.2 659.21 787.38 656.76 788.54 655.42 790.13 654.84 793.07 652.55 792.63 651.76 793.17 651.01 793.17 650.77 794.55 649.94 795.74 650.11 796.15 649.72 797.6 646.51 798.48 644.77 798.36 643.96 797.8 642.46 797.87 640.3 798.42 640.22 799.29 640.62 800.5 640.16 802.74 637.37 804.18 635.72 804.21 634.78 804.45 634.45 805.06 631.83 805.44 631.17 807.6 632.19 809.18 633.18 810.01 632.94 810.98 634.41 812.64 634.04 814.51 633.48 815.39 634.5 817.09 631.44 819.53 630.87 822.65 629.83 824.03 628.79 824.29 628.37 825.57 627.2 826.14 627.56 827.66 627.34 828.39 627.62 829.57 629.08 829.98 631.48 832.54 631.51 833.3 632.38 833.95 634.06 834.04 634.47 836.21 636.14 837.21 635.97 839.05 636.25 839.96 638.34 841.54 641.09 841.9 642.33 842.92 642.74 844.5 643.78 845.8 644.3 847.93 643.46 849.02 641.2 849.97 639.19 849.81 637.2 851.64 635.06 854.8 628.39 856.78 625.8 856.4 623.64 857.14 620 857.42 618.3 859.33 617.37 859.74 616.77 860.43 615.72 860.73 614.91 861.64 612.05 862.16 611.26 861.92 609.94 864.42 611.41 865.63 610.33 868.57 609.11 868.18 603.19 869.83 601.61 869.59 600.71 870.04 598.84 870.04 592.86 874.36 590.41 874.99 588.83 875.17 587.61 876.46 583.5 874.66 584.7 878.42 584.7 882.83 585.76 885.83 585.27 888.62 586.37 890.86 587 893.18 586.01 896.92 584.35 898.18 582.78 900.31 581.47 901.28 580.26 904.24 578.43 907.43 578.37 907.59 572.56 907.83 570.15 907.5 567.29 908.37 564.92 909.6 564.09 911.08 562.33 915.45 562.51 917.6 562.35 919.33 561.73 922.71 558.71 926.31 557.63 928.29 554.74 929.97 553.89 931.99 550.09 932.83 546.76 934.95 545.08 936.72 542.59 936.31 540.94 938.46 538.05 943.67 537.38 944.71 537.35 947.21 536.56 949.08 533.89 949.28 528.76 951.74 527.18 953.79 526.67 957.11 522.98 962.99 523.92 965.6 523.95 971.39 526.99 974.33 526.07 976.02 526.91 977.08 526.76 978.88 525.07 980.56 526.03 983.15 527.36 984.56 528.87 984.83 530.29 987.82 531.13 987.98 531.39 990.74 534.05 991.71 536.22 993.46 536.91 994.55 538.48 995.44 538.9 997.6 541.27 999.99 541.13 1001.61 539.08 1003.85 538.52 1006.22 537.83 1006.79 537.27 1008.3 537.15 1010.39 537.66 1011.13 538.29 1014.1 538.28 1014.67 536.86 1016.06 539.13 1018.34 540.4 1018.51 541.13 1019.37 545.81 1021.31 546.75 1022.67 546.63 1024.28 545.77 1026.06 547.76 1029.84 546.5 1033.85 546.86 1035.02 545.58 1036.9 544.77 1040.46 544.6 1042.42 542.85 1043.58 542.32 1044.53 536.72 1048.14 538.7 1052.31 539.11 1055.6 535.43 1060.52 536.67 1062.79 537.92 1064.55 539.09 1066.98 539.59 1067.63 539.3 1071.05 539.84 1072.76 540.52 1074.17 540.29 1075.91 541.29 1077.77 543.04 1079.19 543.9 1080.45 544.82 1081.14 544.75 1081.76 546.48 1085.24 545.95 1086.95 546.93 1087.35 547.22 1088.14 547.97 1093.5 548.04 1098.86 546.61 1099.97 546.71 1102.09 547.83 1104.04 547.86 1105.1 547.5 1107.26 547.5 1108.29 548.51 1109.31 550.15 1110.35 550.54 1112.44 553.7 1116.74 552.96 1118.32 553.89 1121.14 553.98 1123.56 553.44 1124.44 551.07 1124.83 549.86 1125.53 549.92 1127.24 548.12 1126.99 545.72 1126.22 544.58 1126.79 542.15 1128.78 541.29 1129.79 540.32 1129.3 537.91 1128.69 536.13 1129.19 535.17 1129.09 534.03 1130.6 532.4 1131.72 531.24 1133.05 529.18 1133.75 526.95 1135.16 523.19 1134.11 520.6 1133.54 518.68 1134.34 517.14 1135.23 516.28 1133.57 513.11 1132.01 514.85 1128.03 515.51 1126.14 517.21 1124.57 517.49 1121.37 516.91 1117.81 517.28 1115.6 515.32 1110.88 512.26 1108.41 511.45 1106.49 507.82 1103.69 505.73 1099.92 505.33 1096.95 504.16 1096.53 501 1094.99 499.51 1095.45 496.95 1094.02 493.14 1088.8 489.48 1085.01 486.63 1083.51 484.19 1079.58 482.67 1079.18 479.47 1075.55 476.93 1075.77 475.16 1076.47 470.14 1077.35 466.94 1079.86 460.22 1080.04 458.26 1079.51 456.59 1079.71 454.83 1080.16 451.83 1081.14 449.73 1082.64 447.62 1081.64 445.92 1080.08 444.75 1072.4 442.49 1070.53 441.22 1068.7 441.31 1066.78 442.03 1064.85 443.02 1058.94 443.89 1056.9 443.68 1052.76 442.15 1050.1 442.23 1047.38 441.01 1046.14 438.39 1045.3 433.87 1043.47 431.33 1042.06 427.39 1042.21 424.35 1040.47 425.1 1036.35 424.66 1035.86 424.54 1034.77 423.43 1034.11 423.22 1032.18 422.88 1031.71 421.29 1031.59 417.1 1031.58 415.01 1030.29 412.89 1030.96 410.47 1030.62 407.49 1028.27 404.59 1027.29 403.69 1023.64 405.15 1021.6 403.66 1020.16 402.94 1018.49 400.43 1015.96 398.58 1015.43 391.15 1015.11 389.93 1014.83 388.87 1014.05 387.68 1014.01 385.92 1011.19 383.81 1010.37 382.15 1010.54 381.08 1011.51 379.99 1013.6 379.24 1013.86 377.96 1014.82 377.38 1014.72 376.76 1015.48 376 1017.85 375.17 1018.81 370.99 1019.94 368.71 1020 366.93 1022.4 366.02 1023.35 364.85 1023.46 363.85 1024.47 361.83 1025.45 360.93 1027.82 358.85 1028.43 357.58 1030.12 351.85 1035.97 352.02 1039.42 351.2 1041.17 350.56 1041.88 348.17 1042.74 346.35 1044.32 342.98 1045.58 342.78 1045.15 340.98 1043.92 339.46 1043.54 338.07 1043.66 337.19 1042.89 335.41 1041.86 333.59 1042.59 331.26 1042.29 330.14 1042.54 326.99 1043.61 322.9 1048.11 319.33 1049.25 319.17 1048.84 317.81 1048.94 317.32 1050.06 316.21 1051.32 314.96 1052.29 314.02 1051.37 312.04 1052.17 309.57 1053.87 308.23 1055.08 308.9 1057.85 307.38 1057.71 306.04 1058.54 303.91 1058.57 302.82 1057.7 302.46 1057.95 301.47 1060.12 300.4 1061.31 300.64 1062.18 301.69 1064 301.88 1065.48 301.4 1067.76 300.88 1068.29 300.73 1070.59 301.17 1072.05 302.46 1074.34 299.92 1080.73 299.8 1084.09 300.77 1085.2 298.85 1086.63 297.91 1088.02 297.17 1091.95 297.55 1094.55 298.29 1101.68 299.36 1102.05 299.68 1103.24 294.26 1105.87 292.19 1109.15 290.45 1112.13 286.15 1115.39 283.83 1117.68 284.36 1119.98 284.11 1125.3 282.46 1128.5 278.57 1128.31 276.9 1129.19 273.11 1129.89 272.5 1132.33 270.74 1134.06 272.08 1135.69 272.41 1136.64 272.23 1138.06 272.41 1140.3 273.42 1142.38 273 1146.86 274.21 1151.47 273.17 1153.63 271.17 1157.41 271.14 1159.36 273.67 1161.24 276.2 1162.26 275.23 1164.17 275.03 1166.86 275.44 1169.3 275.04 1171.3 275.51 1173.73 275.95 1174.85 277.01 1179.07 280.24 1180.59 283.05 1181.37 284.36 1183.06 285.77 1186.34 285.8 1189.69 285.6 1192.97 285.75 1195.16 283.85 1196.95 283.12 1197.41 282.58 1198.7 280.97 1199.89 281.62 1202.35 282.04 1203.27 279.82 1205.41 280.77 1211.56 278.69 1211.91 276.22 1214.92 277.41 1216.05 279.49 1218.88 280.69 1218.76 281.35 1219.82 282.62 1220.74 284.09 1222.42 284.86 1224.4 286.01 1225.28 286.51 1226.09 287.71 1227.22 287.47 1228.8 286.73 1229.8 287.19 1231.35 287.06 1232.01 288.55 1233.39 290.86 1234.52 290.94 1235.19 291.82 1235.78 292.62 1237.36 293.88 1240.36 294.09 1241.52 294.76 1242.26 294.75 1242.94 291.69 1244.26 290.15 1246.41 289.78 1246.45 288.19 1248.67 288.43 1250.24 287.81 1252.23 289.79 1253.45 287.85 1256.39 286.48 1257.9 287.56 1260.18 285.78 1262.35 283.94 1264.34 281.96 1268.3 280.18 1268.47 278.56 1270.84 277.73 1271.4 276.21 1272.98 274.89 1273.13 271.36 1269.32 271.13 1271.31 269.08 1272.2 267.26 1276.62 266.12 1277.54 264.17 1278.13 261.38 1278.5 259.2 1276.72 258.81 1279.95 258.99 1283.43 260.37 1284.01 258.21 1285.77 256.44 1286.8 256.11 1289.99 254.02 1292.52 252.74 1292.81 250.99 1294.35 251.78 1295.83 250.66 1298.44 250.09 1301.88 249.16 1302.07 246.46 1300.35 244.54 1301.85 242.04 1302.39 237.91 1305.49 237.88 1307.85 235.16 1311.3 232.85 1313.6 229.19 1315.23 226.49 1315.33 224.92 1314.83 220.79 1312.5 217.65 1311.82 214.66 1309.29 211.24 1309.2 210.28 1308.71 206.01 1307.82 203.06 1310.67 203.19 1311.89 202.95 1312.8 202.39 1313.19 202.09 1314.46 201.26 1315.4 201.2 1317 201.22 1315.32 202.03 1314.34 202.38 1313.08 203.17 1311.8 203.02 1310.54 205.75 1308.01 204.48 1305.06 204.36 1303.72 201.85 1299.8 200.8 1299.59 199.78 1297.23 199.26 1294.06 199.74 1293.01 201.6 1290.57 202.06 1286.15 202.92 1285.85 205.44 1282.49 205.58 1280.78 207.03 1278.02 203.83 1275.33 204.66 1273.61 202.13 1271.58 200.56 1269.56 199.55 1268.02 198.99 1267.56 198.53 1266.36 198.63 1264.5 198.46 1263.35 197.18 1262.49 197.47 1261.68 197.57 1259.73 197.19 1257.89 197.45 1255.96 196.97 1254.1 195.89 1253.16 195.71 1251.77 196.36 1249.43 196.85 1248.29 196.03 1247.16 195.76 1245.61 194.12 1243.82 195.33 1240.06 196.38 1239.02 196.77 1238.09 196.58 1236 196.7 1234.56 197.81 1233.65 198.76 1231.04 198.99 1229.55 198.63 1227.02 196.71 1226.15 196.48 1225.5 193.29 1222.37 193.33 1221.56 191.65 1219.89 190.82 1218.79 189.55 1218.25 188.91 1217.38 187.54 1216.54 186.95 1215.79 185.96 1215.42 184.45 1214.08 181.99 1213.3 178.49 1212.4 177.08 1209.58 177.3 1208.1 176.5 1204.09 177.36 1202.27 178.03 1200.15 178.4 1197.31 179.97 1196.2 183.18 1192.79 182.43 1191.85 182.64 1189.15 181.7 1188.2 179.47 1186.93 177.48 1183.71 176.36 1183.3 174.21 1181.38 173.64 1179.38 171.89 1178.15 170.97 1177.08 168.29 1178.78 167.58 1178.6 166.36 1179.23 164.28 1176.81 163.26 1176.3 163 1175.13 161.79 1174.24 161.08 1173.25 159.8 1173.08 156.74 1170.77 153.38 1167.45 150.9 1167.35 149.6 1166.87 146.25 1166.4 145.46 1165.41 144.61 1165.22 144.63 1162.84 144.89 1161.05 144.44 1159.85 145.52 1157.72 144.96 1157.14 146.6 1154.47 146.49 1152.4 148.55 1150.33 149 1147.58 150.22 1145.57 151.01 1143.07 150.77 1141.77 151.39 1140.6 151.33 1139.1 152.81 1138.29 153.2 1136.62 154.48 1135.99 154.49 1134.85 155.53 1133.28 155.24 1131.57 155.37 1129.15 155.29 1126.17 154.56 1124.3 154.95 1123.24 154.42 1121.3 153.68 1121.05 151.35 1119.31 150.08 1119.06 148.02 1116.25 147.52 1115.13 144.96 1114.41 144.58 1113.39 143.64 1112.01 142.57 1109.89 142.18 1108.67 141.07 1106.41 140.56 1104.43 137.97 1103.65 136.47 1102.84 137.28 1102.04 138.3 1100.2 139.12 1096.52 139.8 1094.71 141.31 1094.04 142.84 1091.47 146.21 1089.73 148.95 1087.26 149.55 1086 149.21 1085.2 149.62 1084.29 150.98 1083.84 152.07 1082.39 151.88 1081.1 153.16 1079.92 154.74 1079.05 157.78 1079.06 159.06 1078.69 158.38 1076.98 157.31 1075.57 157.17 1074.31 158.98 1072.25 158.66 1071.33 158.78 1069.21 159.49 1067.02 159.85 1064.82 160.97 1062.77 162.2 1061.97 163.65 1061.75 164.72 1059.7 167.13 1056.37 170.09 1054.28 173.29 1053.09 175.26 1052.12 179.16 1051.66 180.02 1052.25 181.68 1052.59 183.34 1050.07 184.56 1049.42 186.07 1049.4 188.36 1047.09 188.59 1046.59 192.01 1042.87 192.37 1040.43 191.36 1037.44 189.15 1034.02 190.74 1030.65 190.91 1029.86 191.85 1028.07 193.36 1026.42 194.15 1024.2 196.04 1022.39 198.39 1019.61 199.14 1018.19 200.99 1017.51 201.64 1016.2 202.44 1013.83 203.85 1013.17 204.36 1013.41 205.25 1012.91 207.23 1012.98 208.91 1013.35 211.27 1011.14 211.52 1009.01 211.47 1007.83 211.78 1007.36 211.46 1005.02 211.36 1002.33 210.85 1000.74 211.54 998.96 211.1 997.44 210.96 995.56 211.18 992.47 211.95 990.61 214.02 990.43 215.26 989.95 215.95 988.53 216.99 987.32 218.35 986.69 218.86 985.83 218.7 984.84 218.03 983.76 218.5 982.33 220.64 979.11 222.14 977.88 222.7 975.38 224.72 974.17 225.57 972.62 227.51 972.94 229.65 972.51 230.25 974.29 232.2 973.24 233.08 973.92 234.88 974.01 237.08 974.71 238.53 975.69 239.73 977.24 241.25 977.45 242.07 976.88 245.33 977.12 246.79 977.58 247.37 978.25 248.5 978.42 249.36 978.91 250.14 978.36 252.69 980.18 253.3 980.94 254.14 980.26 255.34 980.32 256.3 977.73 257.09 976.25 258.09 976.3 258.46 971.69 264.54 972.17 263.32 974.73 262.86 976.02 264.02 975.58 265.21 975.85 265.97 974.84 266.41 972.73 266.56 970.45 267.03 969.85 268.04 972.52 269.08 974.11 270.21 972.33 270.89 969.89 272.21 968.16 272.76 966.5 273.51 966.73 273.63 967.95 277.83 966.46 279.43 966.18 280.59 965.29 282.28 965.46 284.61 964.17 286.3 960.33 286.9 959.37 289.22 958.76 289.77 958.18 291.34 957.78 291.58 956.4 292.02 956.11 293.18 954.36 294.97 953.36 296.63 950.74 298.43 950.24 300.07 951.24 302.07 950.71 303.79 950.55 305.33 951.42 306.82 951.19 307.53 951.52 310 953.8 311.7 953.25 317.15 954.5 316.95 953.47 317.19 952.35 316.45 951.46 315.57 949.27 316.56 946.73 316.39 945.08 316.93 943.06 318.05 942.53 318.82 940.31 319.98 939.3 320.73 939.21 321.97 937.72 322.85 937 323.12 935.66 323.7 935.1 324.75 935.24 325.1 933.95 325.1 931.39 324.24 930.83 323.54 930.86 321.75 928.89 322.49 927.94 322.46 926.39 322.92 926.03 322.98 923.89 323.68 922.74 323.83 921.87 322.63 920.44 322.02 919.38 322.63 918.4 323.38 916.24 325.42 915.81 327.39 913.92 327.92 912.9 329.41 912.21 329.98 910.98 331.1 909.46 331.18 908.31 330.88 906.22 331.68 904.91 333.86 902.86 335.7 901.77 336.82 901.36 337.42 901.52 338.35 900.64 339.86 900.68 342.44 897.87 343.57 897.6 344.53 896.78 345.61 897.3 347.05 895.74 348.09 894.09 348.27 893.04 349.32 893.14 350.87 894.51 351.14 895.51 353.27 897.26 356.49 896.22 357.89 897.23 360.37 898.39 363.46 899.62 364.36 899.67 366.45 900.25 367.82 899.77 370.51 903.04 372.81 903.6 374.68 905.66 375.21 908.07 375.9 909.59 376.98 911.22 377.83 911.33 378.4 910.73 380.26 909.68 382.27 913.35 384.68 914.2 386.5 913.32 389.14 913.23 389.55 912.21 391.22 910.04 393.3 908.49 395.09 906.82 396.12 905.36 398.53 904.03 400.89 904.04 401.66 903.75 404.22 904.38 406.23 907.73 407.23 908.99 408.62 909.43 410.58 910.48 412.02 911.74 413.23 911.3 414.68 911.32 415.54 913.47 416.11 914.37 417.15 914.97 417.57 915.99 419.12 916.79 421.26 916.87 422.97 915.05 423.55 914.67 426.6 915.17 427.78 912.97 428.42 910.68 428.8 905.08 428.09 902.95 427.73 900.05 427.94 897.88 428.82 895.86 430.29 894.65 431.88 892.94 432.55 890.78 432.5 887.93 431.3 886.23 430 885.02 429.18 884.95 427.31 883.8 428.29 881.99 431.52 881.03 434.28 881.79 436.16 881.28 438.18 881.2 440.18 880.55 440.65 879.96 441.91 879.43 441.74 877.44 443.16 876.06 443.44 874.97 444.96 873.51 445.14 872.92 446.88 870.85 450.41 868.32 452.45 866.24 453.27 865.87 453.36 864.37 453.78 862.19 454.6 860.55 455 857.11 456.15 856.67 457.18 855.58 458.78 855.86 460.18 854.89 460.58 853.78 460.58 852.03 462.22 851.6 463.39 849.91 464.5 847.43 464.48 846.14 466.11 844.49 467.92 844.33 469.6 842.69 470.49 842.13 471.63 842.06 471.7 841.43 472.87 840.38 473.18 839.68 475.29 838.74 476.25 837.33 478.87 834.01 479.35 832.99 480.69 831.92 482.75 831.12 483.32 829.29 487.51 828.54 487.78 826.13 487.7 819.3 487.87 817.85 488.35 817.67 488.8 816.58 489.54 815.71 491.49 814.64 491.37 811.83 491.87 810.57 491.48 808.54 491.81 807.42 491.86 806.09 493.02 804.91 492.99 801.32 493.5 799.62 495.98 797.99 497.01 798.18 497.92 797.06 499.54 796.9 500.45 795.89 500.1 794.86 500.18 793.67 495.57 794.05 494.74 793.74 493.76 794.23 491.93 794.26 489.6 793.7 487.33 794.14 485.2 793.4 484.42 793.66 481.43 795.85 480.35 795.68 476.19 797.75 474.5 798.97 472.81 798.65 468.91 799.67 468.05 798.97 467.17 797.7 463.96 796.66 463.29 796.76 461.5 796.24 458.78 793.64 457.7 793.37 456.48 791.69 455.43 788.96 454.22 787.29 452.71 786.26 451.35 786.02 450.29 784.89 448.93 782.9 447.91 779.13 447.21 778.78 445.4 776.7 445.04 775.56 445.47 774.65 447.24 772.19 446.79 769.33 447.94 768.92 448.17 767.87 449.52 766.04 448.93 761.93 449.24 760.3 448.65 759.3 449.77 757.64 449.85 756.42 449.23 754.28 449.84 752.18 450.34 751.16 449.65 749.37 449.35 747.79 449.87 745.57 449.32 744.48 448.5 743.97 447.93 742.93 447.14 742.29 446.49 741.25 445.49 740.4 445.49 738.26 444.99 737.41 440.37 736.14 438.85 734.71 438.93 732.91 438.62 732.27 437.13 731.09 436.85 730.52 437.33 729.34 436.92 727.72 435.18 726.78 434.04 724.19 433.23 724.06 432.31 722.94 431.31 722.63 431.72 720.76 431.64 718.86 431.82 717.83 430.8 715.31 429.95 714.8 429.51 714.08 427.67 713.02 425.44 713.18 424.49 710.35 424.84 709.22 424.66 707.62 425.25 706.42 426.36 706.34 427.49 705.71 428.8 705.48 429.59 704.63 428.82 702.96 426.18 702.39 424.63 701.66 422.47 698.44 421.4 695.74 419.33 694.57 417.26 694.62 416.28 694.24 413.54 696.2 412.14 696.85 412.58 697.41 411.33 697.82 409.84 697.95 407.91 698.45 406.42 699.49 405.18 701.67 402.77 704.59 403.44 706.7 402.64 708.27 400.84 708.84 399.25 710.34 398.37 710.91 396.67 711.45 394.74 710.81 393.83 711.07 392.51 710.43 390.01 710.05 387.48 710.96 385.95 712.7 384.15 713.47 382.59 713.7 380.47 713.31 377.17 713.27 374.82 713.07 374.92 712.27 371.03 711.81 368.5 712.07 366.14 712.67 362.7 712.97 362.08 711.06 362.1 709.35 361.51 704.11 360.43 700.52 359.48 698.15 357.63 694.78 354.69 690.18 352.3 685.52 350.9 683.17 347.93 673.98 346.25 669.39 344.57 667.31 342.11 664.67 340.88 662.86 339.99 661 338.42 658.53 337.46 656.67 334.59 653.3 332.7 651.4 330.84 649.73 328.47 648.91 326.89 647.64 326.55 646.18 326.16 641.72 325.32 634.35 323.95 627.68 323.07 625.58 321.16 623.65 319.23 621.97 316.9 621.14 315.48 620.01 315.03 618.44 317.09 617.05 316.8 614.71 316.07 612.38 315.36 609.19 315.24 606.77 314.08 604.53 311.03 602.48 306.57 601.4 305.02 599.94 302.84 598.4 301.7 596.46 299.64 591.77 299.03 590.77 296.92 589.11 294.58 588.67 291.48 588.26 290.12 588.34 287.47 587.74 284.94 588.05 282.22 589.11 278.19 590.27 276.56 590.4 272.31 590.48 268.32 590.31 266.72 590.02 265.11 588.06 264.12 586.21 261.54 586.56 258.97 587.17 256.66 588.24 255.07 589.45 254.12 590.69 253.01 592.94 251.4 594.71 246.36 597.51 243.92 598.64 241.66 599.4 236.97 599.84 230.34 599.98 228.56 600.37 226.7 601.5 223.01 604.84 220.66 606.49 219.47 606.95 217.83 607.27 212.34 607.93 209.6 608.18 204.28 608.9 202.83 608.99 201.58 610.64 199.47 611.53 197.69 611.85 194.91 611.25 192.12 611.26 191.63 612.41 191.78 613.97 192.28 615.43 189.01 615.38 186.14 615.05 184.7 614.09 183.47 612.35 181.38 607.16 180.65 603.57 180.17 602.36 178.23 600.23 174.96 599.99 171.67 600.55 166.21 600.36 164.36 599.78 163.44 599.74 160.94 598.29 158.71 596.2 153.91 597.91 152.46 599.13 151.36 599.33 151.61 597.96 147.42 596.75 144.2 595.06 142.51 594.46 139.91 593.75 137.79 593.94 136.81 594.51 136.11 595.29 135.51 596.52 135.2 597.96 135.07 599.94 134.08 605.98 132.68 607.75 131.14 609.19 128.91 610.71 128.36 611.41 126.28 612.32 125.12 613.09 123.14 613.72 119.09 614.24 115.49 614.34 113.29 613.8 110.8 612.49 109.19 611.13 107.84 609.71 105.24 606.25 103.53 604.58 102.09 602.3 101.75 600.32 99.95 598.8 95.45 598.45 93.69 599.94 91.06 599.94 90.58 595.06 90.92 594.52 90.41 593.43 91.41 592.59 89.47 588.49 88.23 588.26 87.82 587.26 87.94 586.02 88.55 584.24 89.15 583.32 89.05 582.48 88.27 581.18 85.74 581.61 85.2 583.5 82.9 582.54 82.16 581.36 82.16 580.53 79.11 578.89 79.17 577.94 80.17 576.77 80.92 574.43 81.33 572.15 82.47 571.57 84.08 572.12 85.46 572.29 85.7 571.86 86.98 571.16 86.1 570.14 85.21 568.61 83.64 567.23 82.73 566.95 81.44 567.05 78.6 568.29 77.86 568.13 76.94 566.52 77.44 565.92 77.05 564.81 77.19 563.97 76.9 562.91 77.46 561.86 76.17 560.68 75.96 559 75.26 558.21 75.31 556.92 73.25 556.15 71.89 554.46 72.51 552.91 71.43 551.91 72.07 550.59 72.92 550.36 73.05 549.42 74.52 549 74.07 548.38 74.43 547.16 75.03 546.21 76.26 545.52 78.08 545.26 80.84 545.77 82.13 545.84 84.37 545.58 84.52 546.65 86.09 546.69 88.5 544.72 91.18 541.12 92.22 540.45 93.85 537 93.63 535.19 94.3 534.06 94.9 531.53 96.05 529.56 96.15 528.65 99.2 528.73 101.51 530.74 102.93 531.02 102.7 531.89 103.07 532.56 104.02 532.4 106.79 533.12 109.79 532.81 111.49 533.35 111.42 533.85 114.53 534.63 115.63 535.08 121.38 536.72 122.71 537.54 124.14 537.42 125.58 537.75 127.41 538.64 128.4 539.58 129.16 539.57 130.34 540.76 131.16 541 131.9 542.05 134.24 543.12 137.35 544.95 137.85 545.66 138.56 547.42 141.17 548.44 144.53 549.92 146.62 552.15 149.57 553.91 150.42 554.06 152.02 552.57 154.17 551.13 156.1 549.56 158.49 547.83 159.6 547.41 160.97 546.45 162.35 544.79 165.55 542.33 169.22 539.19 170.18 538.6 171.41 537.43 171.97 541.32 174.42 540.76 174.94 540.49 178.21 539.87 179.67 538.61 180.03 537.4 181.93 536.17 184.65 534.03 188.43 530.77 189.36 529.13 190.41 526.53 193.4 525.91 195.32 524.28 196.2 522.94 196.57 522.28 197.72 520.4 199.07 518.83 201.27 517.56 202.5 516.36 204.23 513.22 204.41 510.31 206.32 507.69 207.18 505.35 207.41 503.7 207.87 502.23 207.56 498.98 207.77 498.03 207.79 493.32 208.21 491.45 209.33 488.96 210.31 487.43 211.41 485.19 213.67 481.81 213.94 478.04 214.26 476.66 214.93 475.11 216.49 473.16 216.79 472.53 219.04 469.53 219.41 466.55 219.95 464.88 220.48 464.2 221.56 463.54 223.21 462.89 224.26 462.2 225.39 460.58 225.75 459.56 225.85 457.12 227.55 454.86 227.79 453.7 227.46 451.06 227.94 449.72 229.98 447.77 231.16 447.05 231.28 445.93 231.99 444.89 231.95 444.21 232.47 443.27 233.07 439.78 232.96 438.27 232.01 436.91 231.86 435.83 230.18 432.81 228.97 429.87 228.39 424.57 228.76 422.2 228.13 418.4 229.55 413.11 233.06 404.4 233.6 402.6 233.93 399.19 233.29 396.91 234.2 396.27 233.84 393.78 233.92 391.94 234.57 390.23 235.21 389.16 235.06 388.54 236.26 386.44 236.14 383.85 236.76 381.53 237.59 377.48 238.48 376.44 239.51 373.34 239.11 370.22 239.79 368.14 237.09 363.96 236.66 360.73 236.8 357.88 237.27 357.94 237.51 356.51 235.65 355.53 235.08 349.51 239.56 345.88 243.63 344.55 244.02 341.62 244.68 341.28 246.28 341.12 249.07 339.32 257.33 334.16 258.36 332.74 258.56 331.86 260.92 332.06 261.9 331.64 262.44 330.75 265.7 326.38 267.09 324.32 269.85 323.73 272.73 323.9 272.29 322.7 272.26 321.59 272.69 320.87 271.58 318.04 271.34 315.91 270.67 313.94 271.78 312.32 272.52 311.68 272.61 310.39 272.2 309.88 272.76 308.7 272.63 307.68 271.85 307.19 271.84 306.39 270.89 304.62 266.03 301.35 265.79 299.35 266.12 298.38 265.87 296.05 265.95 294.77 265.26 292.48 264.35 291.64 263.61 290.15 263.53 285.35 259.55 282.42 257.12 279.62 256.28 277.25 252.36 275.84 253.63 274.49 253.74 273.6 255.47 272.05 257.43 270.55 255.53 265.09 253.39 259.45 258.1 255.37 260.06 253.57 260.59 252.08 261.35 251.41 265.29 246.98 267.19 243.87 270.07 240.7 270.75 238.82 278.23 230.73 279.63 229.66 279.62 229 280.22 227.09 280.04 225.58 281.67 224.84 284.14 222.77 285.29 221.37 286 219.62 286.83 218.39 286.73 216.59 288.31 215.47 288.93 213.03 290.02 211.49 290.01 210.01 290.56 209.61 290.94 206.97 292.75 203.18 293.05 201.92 294.35 200.34 295.6 199.79 297 198.32 298.79 197.31 299.41 194.7 299.96 193.39 300.92 192.94 302.07 191.43 301.69 191.02 298.79 188.96 297.46 188.39 295.68 185.61 294.78 183.89 292.59 182.13 291.15 181.35 289.26 179.43 288 176.74 286.95 176.25 286.46 175.19 284.29 174.53 284.44 173.46 284.06 173.04 284.33 171.32 283.94 168.88 286.2 166.09 287.03 162.09 289.5 159.66 290 157.3 288.94 155.1 289.69 152.95 289.94 150.43 290.7 149.12 290.8 147.97 289.21 145.78 291.56 142.38 291.37 139.93 290.72 138.64 290.15 136.81 289.88 134.67 290.22 134 290.01 132.48 290.06 131.14 289.53 129.44 289.6 128.55 290.99 126.68 291.63 125.09 292.55 121.63 294.03 120.2 295.01 118.35 295.5 117.01 297.76 114.83 299.1 114.65 299.29 113.92 301.81 112.18 302.79 111.72 304.96 112.2 305.75 113.13 307.48 112.57 309.04 109.95 310.06 109.58 311.14 108.72 311.21 108.02 312.04 107.46 314.24 106.82 314.57 105.95 316.59 105.74 318.06 106.09 319.3 105.72 321.05 105.8 322.09 106.28 325.85 106.57 326.5 108.14 328.1 110.44 327.83 111.79 328.23 114.51 329.13 118 331.09 120.14 333.73 119.67 338.78 122.78 340.01 122.52 340.7 123.3 342.44 122.13 343.87 122.03 345.03 122.43 346.47 122.19 348.99 120.56 353.5 118.33 355.28 119.38 357.95 120.66 360.03 121.1 362.38 122.09 366.56 120.41 366.19 115.7 367.06 114.1 368.33 113.09 370.37 113.19 373.55 109.06 376.42 107.74 377.43 105.49 379.61 104.16 380.8 101.83 381.1 99.52 383.02 95.72 384.53 95.72 385.98 94.73 388.09 94.86 390.19 95.26 390.85 94.53 393.26 95.49 394.74 96.93 396.21 97.96 397.12 99.27 400.16 100.6 401.18 101.88 402.05 103.87 403.35 104.29 404.75 105.39 405.87 107.2 407.25 108.7 407.42 111.6 407.96 112.24 409.83 112.92 410.98 113.76 412.22 113.72 413.25 114.37 414.14 116.48 415.17 117.19 417.66 116.19 419.27 116.1 422.59 116.91 423.37 117.3 425.46 115.85 428.78 112.51 432.07 110.43 430.92 108.66 428.94 106.81 428.81 106.18 429.19 104.95 429.07 102.32 429.67 101.54 429.77 100.67 431.1 99.53 432.28 99.2 433.19 97.99 435.33 97.11 435.92 95.49 436.18 91.76 436.78 89.9 435.87 88.44 435.25 86.46 436.07 85.97 437.48 84.2 437.76 80.07 439.67 79.3 442.89 80.18 445.74 80.22 447.43 78.91 448.79 79.63 451.78 79.07 452.37 79.12 453.1 79.96 453.83 81.47 454.34 81.9 454.92 84.35 456.26 86.06 458.21 87.01 461.37 87.47 462.88 87.52 465.01 87.09 466.28 87.4 466.74 88.26 468.04 89.18 470.66 88.51 473.23 88.63 474.13 87.08 474.54 85.59 476.1 84.15 477 84.21 481.32 82.92 482.31 83.82 483.51 83.92 484.88 84.87 486.58 85.25 489.18 87.02 493.57 89.42 494.58 92.01 498.32 93.66 500.64 96.06 501.5 97.52 501.88 98.83 501.44 100.43 502.54 102.85 504.94 103.76 506.55 105.67 506.63 106.68 508.12 108.31 509.03 109.83 509.26 111.04 511.37 113.1 512.51 113.79 514.13 115.21 514.27 116.69 514.96 117.3 515.57 118.42 516.32 119.15 518.27 120.36 520.2 121.28 522.07 121.88 523.27 123.04 525.95 123.5 527.58 124.32 528.84 124.04 530.23 122.49 532.15 121.02 534.3 120.49 537.04 119.43 537.34 118.23 538.24 116.41 539.28 114.79 541.33 112.78 540.17 110.72 539.18 108.25 536.88 106.42 536.19 104.51 533.71 101.76 531.8 100.03 531.08 99.18 529.5 98.25 528.09 97.12 526.5 96.84 524.35 93.82 524.89 90.9 523.24 89.83 523.2 87.94 524.29 86.63 524.05 81.67 522.45 79.99 522.24 78.12 522.45 74.54 522.71 72.66 523.46 71.61 523.48 68.32 525.47 67.44 526.68 66.1 528.28 65.65 528.78 64.23 529.55 64.08 530.68 61.88 532.1 61.7 532.32 59.77 531.83 56.81 532.39 55.83 532.76 54.06 533.64 53.48 534.6 50.95 534.49 47.53 535.78 46.9 538.21 48.13 539.44 48.47 542.67 47.52 543.2 46.58 544.77 47.55 546.33 45.98 546.93 43.67 548.18 41.41 548.71 41.93 549.92 42 550.32 42.9 550.68 45.3 551.53 47.55 552.46 48.79 554.37 52.09 555.17 53.15 557.46 54.41 561.16 57.61 562.26 58.24 563.16 57.65 567.27 59.19 568.05 57.62 568.98 58.62 571.21 60.16 573.3 60.48 575.34 61.24 576.63 61.21 577.68 60.7 580.08 61.79 582.41 61.41 585.98 59.88 589.03 57.97 589.88 56.61 591.4 55.93 595.73 55.8 600.21 51.79 604.77 49.19 608.94 48.62 613.21 47.51 616 49.58 619.63 48.93 622.77 46.8 623.74 45.16 623.62 43.87 624.37 41.92 624.64 34.67 627.01 34.07 629.15 31.9 628.18 29.02 629.21 22.01 630.47 21.51 631.13 20.93 632.17 22.18 634.41 19.11 635.96 17.28 638.81 15.63 642.95 16.32 644.28 16.19 646.53 14.08 649.66 16.11 651.25 17.64 653.68 19.6 654.48 22.06 654.22 24.56 655.54 25.25 658.05 27.8 661.67 28.59 664.17 30.25 667.22 31.2 670.53 29.91 673.93 29.55 674.53 26.66 675.17 21.75 676.13 19.89 675.64 18.02 678.41 16.06 679.02 14.61 681.18 13.85 682.68 10.97 682.05 9.34 682.75 7.42 682.93 5.28 682.7 1.57 683.45 3.39 686.67 1.79 691.13 1 693.72 1.11 694.62 2.02 695.4 1.58 697.94 3.49 698.46 4.16 700.38 4.32 704.14 3.48 705.28 4 707.03 4.35 708.63 4.34 709.86 3.62 710.6 2.89 712.64 1.87 715.3 1.8 718.68 5.68 718.52 7.5 718.89 8.45 718.28 9.51 719.49 14.21 720.34 15.72 720.07 17.72 721.02 18.6 721.93 20.13 722.71 20.99 723.16 22.09 722.88 23.06 724.03 26.11 724.93 27.29 725.76 27.81 726.16 29.8 726.14 31.57 727.75 34.16 730.89 34.59 731.88 34.12 735.76 37.57 740.46 37.89 744.26 44.13 746.63 45.54 746.73 52.2 747.35 52.66 747.73 53.83 748.53 54.78 748.54 55.94 749.72 58.53 747.51 63.87 745.84 65.58 744.95 66.19 743.72 66.16 741.27 66.76 740.2 67.62 740.47 69.82 740.19 71.13 740.39 72.09 740.05 73.87 738.94 75.21 738.99 76.72 738.39 79.3 737.26 80.33 736.68 82.36 734.76 84.4 737.11 88.43 738.58 92.05 738.52 92.47 740 93.8 740.9 93.91 741.79 94.57 742.36 95.66 744.78 95.17 746.22 95.89 747.59 98.54 748.27 99.22 749.92 98.76 751.17 99.44 752.67 99.7 754.94 101.91 757.29 103.34 759.02 106.1 760.59 107.12 760.49 109.53 758.27 111.34 754.79 113.53 754.58 114.61 754.74 118.97 755.15 120.99 754.91 122.63 754.41 123.88 754.2 127.24 754.97 127.73 756.89 127.57 759.09 129.49 760.81 131.6 760.57 132.7 761.68 134.21 762.75 137.06 763.66 139.92 764.2 141 762.71 144.39 762.7 145.72 762.99 147.64 762.29 149.89 760.58 150.8 759.08 153.3 759.31 154.51 758.87 154.98 759.53 158.78 760.77 160.32 763.18 160.84 764.83 160.62 769.07 161.31 769.11 164.72 769.73 167.66 769.52 168.52 766.42 171.06 764.54 172.82 763.19 175.52 761.9 178.62 763.24 181.53 764.12 183.87 763.89 184.67 762.02 188.29 761.46 190.73 760.93 191.68 761.57 196.56 762.54 198.83 766.35 201.06 767.47 202.37 769.17 203.41 770.24 204.33 771.48 204.45 772.7 206.1 773.29 207.96 774.5 210.16 773.93 212.25 774.97 213.84 777.31 215.58 778.08 216.77 778.98 217 781.36 219.49 782.86 219.25 786.02 224.15 787.19 228.16 787.1 230.94 789.34 230.9 789.83 235.06 787.51 238.42 788.81 242.39 789.16 242.78 789.19 247.75 791.38 248.96 793.27 250.86 795.69 255 797.12 256.57 799 257.72 797.32 260.72 796.11 262.29 795.62 271.26 795.05 275.37 795.45 277.48 Z" fill-rule="evenodd" id="35510000"/>
</g>
</svg>