<?xml version="1.0"?>
<svg xmlns="http://www.w3.org/2000/svg" version="1.2" baseProfile="tiny" width="800" height="1123" viewBox="0 0 800 1123" stroke-linecap="round" stroke-linejoin="round">
<g id="sigung">
<path d="M 573.94 121.25 574.72 122.11 576.18 122.59 577.98 124.1 579.7 127.07 579.73 130.68 579.1 134.46 579.59 138.39 580.12 139.17 580.44 140.74 581.7 141.87 582.72 141.49 585.77 142.47 588.69 142.14 590.16 142.37 592.49 140.55 592.96 139.77 594.92 140.1 596.34 140.86 597.63 140.8 600.1 140.28 601 139.81 601.81 139.98 602.28 142.75 602.43 144.72 602.84 145.33 601.63 148.67 599.93 151.96 597.04 153.85 596.11 154.77 595.32 157.46 595.14 158.98 595.87 159.54 600.56 159.64 601.09 159.99 600.99 161.03 602.39 163 602.74 165.54 604.14 167.71 605.26 168.39 606.86 168.76 606.96 169.62 606.62 170.91 606.8 174.41 607.68 175.59 610.59 178.08 612.62 178.2 615.58 180.1 618.35 183.71 621.11 187.64 623.45 188.93 623.71 189.6 622.91 192.14 621.81 194.59 622.91 196.31 623.82 196.28 624.68 198.51 625.75 200.53 626.27 202.9 626.47 205.13 627.31 206.37 628.61 207.07 630.31 206.39 631.58 206.99 632.13 208.1 631.96 208.75 632.24 210.35 633.17 211.74 634.16 212.28 634.7 213.77 634.57 215.83 634.83 219.39 635.54 221.95 636.4 223.57 637.98 223.72 642.07 224.96 641.77 228.48 641 229.27 639.16 233.2 638.56 234.2 638.3 238.49 637.87 238.88 637.34 240.41 637.03 242.91 637.76 243.91 637.93 246.75 637.8 249.6 638.05 250.8 636.79 251.84 634.8 252.72 633.93 253.99 632.28 254.81 630.71 257.52 629.76 258.54 629.75 259.94 628.27 262.93 630.13 266.19 630.6 268.61 631.19 269.19 631.99 271.62 632.02 272.81 632.45 274.36 635.05 275.41 635.57 276.27 635.37 277.34 635.55 278.86 639.64 284.09 640.4 289.28 642.62 291.92 644.48 292.37 646.77 291.44 651.78 290.76 654.49 291.1 656.16 290.47 657.71 290.71 658.1 290.46 660.76 290.6 661.1 292.33 661.9 294.85 663.7 295.84 664.13 297.95 664.73 298.76 665.93 299.24 666.66 300.58 670.01 303.07 669.93 305.61 671.24 307.82 672.15 308.5 672.38 310.92 672.03 312.98 672.99 315.88 672.46 317.34 672.62 318.33 673.58 319.55 676.93 318.72 678.97 320.69 680.69 321.12 682.24 323.4 684.2 323.56 685.21 324.56 687.1 325.48 688.39 327.71 691.16 329.58 692.45 332.48 693.35 333.28 693.4 334.41 694.58 336.06 696.24 337.8 698.9 338.01 698.98 337.46 700.9 337.27 701.73 336.94 701.93 337.92 701.61 339.22 701.05 340.11 701.01 341.95 701.67 343.57 702.35 346.11 703.87 346.11 705.08 350.02 705.17 351.53 704.59 352.37 705.3 353.02 706.09 354.45 707.13 355.28 708.11 357.11 709.35 358.46 709.07 359.66 709.61 360.09 709.35 360.94 708.19 361.45 707.05 362.64 706.66 364.48 705.86 365.22 705.68 366.1 704.43 367.81 703.01 370.75 702.47 370.89 702.12 373.35 701.37 373.74 700.5 375.51 700.67 378.54 700.08 382.99 699.06 383.05 697.74 382.59 695.6 382.66 694.47 383 694.27 386.04 694.96 388.42 694.02 390.96 692.32 393.26 690.97 396.06 690.69 397.34 689 399.6 689.26 401.48 690 402.89 690.26 404.85 688.68 407.42 687.63 409.82 687.01 410.39 688.76 411.22 694.2 412.01 696.6 414.65 698.55 415.75 699.83 415.49 701.82 416.78 703.79 419.87 704.31 420.27 708.35 416.09 711.25 414.57 713.17 414.15 719.3 413.88 721.08 412.55 722.36 411.83 722.84 410.13 725.51 405.23 726.17 403.39 726.89 403.61 727.94 402.49 731.54 403.78 731.72 404.34 736.93 405.65 739.69 405.73 741.96 405.3 744.03 405.65 746.75 404.17 750.24 406.28 749.61 406.52 747.27 405.51 745.57 407.87 742.76 409.33 741.62 409.67 740.4 410.72 739.92 412.48 738.75 414.15 739.36 415.09 738.73 415.8 739.81 417.31 739.35 419.58 739.82 420.13 739.52 421.56 739.97 422.85 740.91 423.75 741 424.39 742.18 426.36 741.69 428.13 743.14 428.75 745.04 429.98 745.05 431 745.67 431.4 747.54 433.42 748.35 433.8 749.18 434.89 750.45 435.6 751.99 437.42 752.32 438.47 752.52 440.96 751.85 441.98 752.91 442.8 752.91 445.35 755.27 447.82 755.47 447.23 756.77 447.78 758.49 447.44 759.52 445.69 761 445.72 762.16 446.52 762.24 449.32 762.86 451.35 763.14 453.64 763.45 454.22 763.24 455.51 762.69 456.15 763.79 456.59 765.73 458.78 767 460.89 770.42 463.57 772.1 465.7 774.25 465.28 777.35 463.01 778.6 461.71 782.91 463.44 783.36 466.13 783.9 466.22 785.76 469.21 785.83 470.27 786.69 471.45 788.31 474.44 787.82 476.34 788.17 477.9 787.57 479.04 788.79 481.55 789.63 482.78 790.5 485.95 791.29 488 793.41 491.82 795.93 494.11 796.54 495.06 799 495.74 798.38 497.84 796.33 500.75 794.23 503.35 791.93 507.49 789.79 510.23 786.83 512.67 786.26 513.67 787.06 514.41 788.05 516.21 788.31 518.86 785.82 519.21 784.81 518.9 783.62 519.31 783.02 519.95 781.76 520.52 780.7 521.79 777.51 524.83 775.77 525.58 774.77 526.83 774.04 529.23 772.82 529.62 773.24 530.93 773.07 531.89 771.59 532.61 771.35 531.87 770.56 531.68 767.09 532.82 765.71 534.05 765.21 535.22 763.47 536.88 762.36 538.73 760.78 540.41 760.41 541.92 759.44 543.29 758.49 545.46 757.63 548.68 755.8 550.13 755.95 553.06 755.3 555.23 754.34 557.66 753.83 560.79 754.19 565.2 754.14 566.62 753.62 567.35 753.69 568.69 753.11 571.59 752.31 574.26 751.57 575.97 750.65 576.91 750.65 577.5 749.76 578.68 749.42 581.8 749.49 583.84 749.82 584.82 749.47 586.22 749.85 587.66 749.15 588.38 749.52 589.74 749.46 591.07 749.89 592.11 749.99 593.4 749.18 595.23 748.96 596.55 747.37 599.66 747.74 602.56 747.18 603 746.25 605.75 746.16 607.08 744.92 608.34 744.85 609.76 743.95 609.65 742.92 610.26 742.07 611.31 740.93 610.97 739.74 609.02 738.68 608.41 737.72 606.73 736.75 605.9 736.28 604.94 734.9 603.15 733.75 603.33 733.2 602.33 732.46 602.27 732.06 603.61 731.12 604.53 729.95 606.53 729.11 607.45 727.08 608.95 726.64 609.82 724.7 609.31 724.99 610.21 726.55 613.25 726.99 615.04 726.59 617.75 725.62 618 722.67 619.39 721.34 623.41 719.74 623.95 717.02 623.76 712.51 623.16 712.45 624.57 711.73 625.47 712.4 628.77 712.96 629.88 712.14 631.71 711.21 632.52 709.83 633.2 707.66 633.63 706.66 634.79 705.53 636.56 703.6 638.76 703.24 638.57 699.66 640.6 698.8 641.67 697.3 642.45 696.71 642.35 694.9 641.29 693.99 639.82 692.96 638.69 692.36 638.48 691.7 639.41 688.68 639.33 687.19 640.05 685.63 641.31 684.14 641.28 683.76 642.54 681.55 644.72 680.31 645.24 678.12 642.64 678.22 641.2 677.9 639.66 676.6 637.77 674.65 636.65 674.58 636.07 672.01 632.47 670.5 632.26 668.73 632.59 666.74 631.05 666.14 629.74 664.86 628.66 663.33 628.26 662.49 628.61 661.89 627.68 660.34 628.18 659.88 628.99 657.87 629.24 657 629.71 655.36 629.59 654.35 627.78 653.26 624.25 651.1 621.06 651.27 619.38 648.84 615.91 648.58 614.75 647.51 613.51 647.32 611.75 645.65 610.92 645.02 609.02 644.54 608.9 643.55 606.79 642.63 605.94 641.6 605.49 641.01 604.35 639.74 603.69 638.91 604.32 637.68 604.55 636.2 606.26 635.22 608.43 633.94 610.2 633.34 610.43 631.03 609.08 628.73 608.35 624.54 605.66 621.26 605.01 619.8 607.3 617.69 607.71 614.97 603.16 614.93 600.67 613.66 598.19 612.65 598.04 611.23 596.45 610.7 596.36 607.57 594.35 605.35 592.29 602.76 589.1 599.63 586.52 595.8 584.52 594.45 585.32 591.54 588.21 585.74 589.18 582.9 590.15 580.55 590.51 579.42 590.43 576.61 591.73 575.05 591.52 572.67 590.76 569.68 593.25 567.52 596.39 565.36 600.23 564.71 603.26 564.47 606.4 565.72 606.84 566.39 608.5 565.59 611.53 564.43 614.4 563.15 618.34 561.86 619.85 559.64 620.67 558.04 623.51 557.13 624.25 554.83 625.24 553.17 625.6 552.24 627.5 551.67 628.18 551.02 630.53 551.41 632.38 550.39 634.53 549.37 634.77 549.34 635.65 548.29 636.6 548.1 638.82 547.82 639.84 547.4 642.87 547.63 644.08 546.7 645.72 546.56 646.83 547.01 648.32 546.51 649.47 546.64 650.74 547.05 651.39 549.75 652.15 550.63 653.22 550.21 653.6 550.49 655.74 551.42 658.09 552.25 663.7 552 665.71 552.06 667.36 551.33 668.82 549.58 675.67 549.42 677.99 547.58 682.64 547.33 687.4 547.53 689.31 548.07 692.23 548.62 693.35 549.99 694.44 552.59 697.03 553 698.2 552.56 702.07 551.96 703.05 551.96 704.43 551.34 705.17 552.2 707.84 553.81 708.03 556.01 711.85 558.06 712.58 560.34 713.96 561.52 715.3 560.86 716.7 560.23 718.85 560.85 719.53 560.9 720.5 561.48 721.46 560.94 722.44 561.33 723.06 562.51 726.36 566.1 730.22 565.71 731.91 565.97 733.21 565.7 734.32 566.23 735.39 566.03 737.17 565.6 737.9 565.45 740 566.63 740.87 568.85 741.61 570.2 742.71 570.59 743.81 573.58 745.4 573.65 747.64 572.35 748.14 572.94 751.1 570.94 752.13 569.91 754.46 568.21 755.29 567.52 757.98 567.09 758.92 567.5 761.41 566.52 762.28 564.6 761.35 562.75 762.36 562.07 761.86 560.29 763.38 557.99 765.11 556.66 766.57 554.99 767.9 553.52 767.64 551.93 769.52 550.73 770.02 550.15 770.67 548.47 770.74 547 770.49 545.09 770.67 543.07 771.37 541.09 773.16 540.2 775.06 538.78 775.58 537.79 776.41 537.52 777.35 537.66 778.98 536.68 780.5 535.47 781.36 533.98 783.53 530.56 786.67 527.86 788.96 525.26 789.12 523.21 791.06 521.63 793.23 522.09 793.92 517.56 795.28 515.17 796.9 514.88 797.53 513.48 798.75 512.48 798.89 508.56 804.07 505.48 805.62 504.48 808.23 502.19 810.79 502.01 812.16 501.28 813.54 498.88 814.9 498.03 819.04 497.63 819.4 496.69 822.52 495.99 823.84 496.02 825.46 493.93 827.53 488.47 830.4 487.85 832.29 487.38 836.22 486.86 838.56 486.31 839.11 484.28 839.84 482.05 842.21 481.01 841.87 477.29 841.88 475.84 841.63 474.88 843.08 474.67 844.62 474.09 845.41 472.02 846.79 470.74 849.45 470.23 849.52 470.43 852.78 470.94 854.33 470.52 855.53 470.33 857.68 471.94 859.68 472.64 861.95 472.65 862.96 472.2 864.09 473.39 867.27 473.9 870.74 472.55 877.22 474.78 879.59 475.01 881 475.72 882.91 475.44 884.66 475.44 886.36 474.62 887.4 474.84 890.35 474.23 893.15 473.46 895.67 472.32 897.91 469.09 900.43 467.94 902.44 465.91 904.19 464.36 905.25 463.71 906.21 461.53 908.31 459.6 908.89 457.68 910.82 455.78 911.68 454.54 912.53 452.31 912.84 449.31 913.84 448.34 915.79 446.72 917.37 445.7 918.98 447.32 921.39 447.2 922.8 446.82 923.75 448.46 926.29 449.82 929.44 449.42 932.29 449.63 933.87 449.11 935.54 449.59 937.46 449.21 938.22 450.2 939.92 450.23 941.34 449.06 942.81 448.2 944.53 447.72 947.17 446.44 950.21 445.34 952.21 444.66 957.59 441.6 960.98 438.83 962.42 436.71 964.15 435.82 966.71 434.58 969.48 434.47 972.29 434.05 972.87 434.49 973.93 436.35 976.23 442.53 981.05 443.89 982.99 443.79 983.61 444.5 988.44 447.51 990 451.45 990.62 454.73 992.92 457.8 996.66 460.62 1000.34 464.39 1003.12 469.15 1004.98 472.17 1005.88 472.97 1006.61 473.02 1008.55 474.22 1010.05 474.66 1012.88 471.65 1013.88 470.01 1017.38 468.46 1021.63 466.66 1023.6 467.75 1029.8 467.71 1033.55 466.19 1037.09 465.85 1039.07 465.05 1040.08 466.35 1044.25 465.66 1045.73 463.88 1047.84 462.57 1050.2 461.65 1051.14 459.94 1050.48 458.09 1051.4 457.66 1052.83 458.24 1054.34 457.91 1055.32 456.28 1056.94 455.96 1058 455.25 1058.26 454.53 1060.8 452.9 1062.51 451.9 1065.39 452.35 1066.91 449.84 1070.47 452.36 1074.56 452.96 1076.79 454.55 1078.54 454.29 1079.39 455.08 1081.97 455.45 1083.98 455.09 1084.36 455.13 1088.92 455.81 1091.04 458.18 1094.13 458.17 1096.52 458.37 1097.2 458.03 1098.53 458.58 1099.61 457.66 1101.92 456.6 1103.64 456.09 1105.67 456.59 1108.21 455.94 1110.4 455.18 1114.55 452.52 1115.82 450.29 1116.42 448.59 1116.47 443.28 1113.65 440.36 1112.33 437.97 1113.49 436.3 1114.72 433.77 1117.61 429.98 1118.29 424.32 1117.91 422.07 1122 418.63 1121.54 413.95 1119.93 412.9 1119.39 409.78 1118.82 408.47 1119.16 407.7 1118.54 404.87 1120.29 401.27 1120.43 398.56 1121.44 395.58 1121.23 392.68 1120.06 391.88 1120.25 391.41 1119.33 387.06 1117.6 382.92 1112.78 380.58 1110.32 380.47 1106.8 379.31 1101.74 377.52 1099.85 375.75 1097.75 373.44 1096.92 371.74 1094.75 369.93 1091.37 370.38 1088.67 369.78 1086.45 372.54 1081.06 374.73 1078.99 373.66 1073.61 371.79 1070.39 368.52 1067.43 366.53 1064.18 364.89 1058.56 358.1 1061.47 348.76 1062.96 343.14 1061.04 337.7 1058 329.69 1052.55 325.05 1051.58 324.52 1049.85 320.66 1045.42 315.34 1044.49 312.44 1042.81 310.79 1041.11 305.89 1038.84 303.66 1037.1 301.97 1036.71 301.42 1035.04 300.54 1034.04 299.34 1031.66 296.93 1030.96 293.51 1032.83 286.2 1033.99 285.42 1032.57 283.54 1030.28 282.91 1030.3 282 1027.98 277.13 1025.56 276.66 1023.25 274.93 1022.22 274.01 1022.02 273.43 1022.8 270.64 1024.59 267.8 1023.16 266.81 1024.74 262.56 1024.89 259.52 1025.73 256.13 1026.25 253.19 1025.95 253.37 1023.09 254.06 1021.34 253.91 1020.15 253.38 1019.32 253.83 1015.82 253.22 1013.46 253.89 1012.63 253.72 1011.86 254.7 1009.79 254.73 1008.44 255.37 1007.76 254.5 1005.44 254.41 1003.51 253.51 1002.57 253.21 1000.16 251.98 997.88 250.54 999.23 249.81 1000.3 247.93 999.67 245.82 999.47 244.38 1000.44 242.56 1001.32 239.03 1000.86 237.26 1001.33 234.4 1002.42 233.23 1002.63 229.62 1002.83 229.53 1003.78 228.74 1005.23 227.71 1008.63 223.19 1009.15 222.07 1008.29 221.65 1006.56 220.93 1004.81 219.93 1003.82 219.49 1002.42 218.78 1002.18 218.45 1000.61 217.52 998.07 218.4 996.11 218.23 995.03 216.9 993.68 217.07 991.21 215.83 989.77 214.39 989.52 212.26 987.47 210.87 986.48 209.02 986.73 206.85 985.57 205.53 985.23 204.29 985.31 201.49 986.47 201.03 988.86 200.18 989.66 197.72 990.28 195.83 990.06 194.46 990.56 190.59 991.26 188.63 992.79 185.93 993.83 182.78 995.4 181.28 995.36 179.57 995.59 175.29 995.36 168.45 996.78 167.56 996.74 165.98 995.51 164.89 995.48 160.66 996.34 158.43 996.47 156.39 997.23 153.5 999.14 151.8 999.73 149.14 1000.97 147.89 1001.98 147.09 1003.03 145.21 1004.4 141.2 1007.8 140.55 1008.15 137.52 1006.66 135.49 1005.3 133.39 1003.69 131.41 1001.33 130.8 1000.21 130.05 996.56 129.91 994.03 128.96 988.56 128.67 986.19 127.73 982.4 127.22 981.42 125.59 979.59 123.81 976.29 123.5 974.67 123.31 971.49 122.49 969.68 121.33 968.04 120.79 966.54 119.51 965.25 119.85 964.95 118.26 963.24 117.5 963.75 116.1 961.93 115.43 962.54 114.36 961.05 112.42 960.11 109.9 956.16 108.31 954.22 107.68 952.88 105.96 952.27 104.39 952.17 101.67 950.73 98.56 948.29 95.51 945.33 94.3 944 92.65 942.75 90.47 942 89.06 941.72 86.96 941.8 84.89 942.11 83.46 942.67 79.78 945.09 76.77 947.39 75.41 948.19 74.4 948.42 73.09 947.92 69.06 946.07 67.34 945.17 64.47 944.63 63.51 944.03 61.72 941.74 60.15 940.33 58.23 939.2 54.45 937.79 52.26 936.69 52.23 936.19 53.36 935.08 54.8 932.51 56.13 932.3 57.33 931.15 58.49 928.13 61.34 926.35 61.05 923.96 60.87 920.46 60.58 917.85 61.97 913.7 61.74 912.01 62.61 910.46 62.18 906.89 64.78 905.52 66.11 904.48 65.93 900.79 64.33 898.85 62.14 895.91 60.66 894.68 60.01 892.23 58.57 889.89 58.09 886.97 58.36 885.71 60.05 885.28 60.34 881.88 60.37 879.96 61 878.53 61.13 874.58 60.72 871.14 59.78 866.77 58.21 863.12 58.71 861.05 59.73 858.91 60.97 857.69 62.92 856.35 63.69 854.49 64.02 852.84 63.45 850.76 62.83 849.62 62.21 847.07 60.44 843.38 59.76 841.57 58.32 839.98 57.8 838.65 56.76 836.83 55.66 833.72 55.23 832.05 54.93 827.67 54.42 825.91 52.18 824.85 50.92 823.38 49.25 820.07 49.46 818.52 50.09 817.37 51.35 815.91 51.61 813.38 50.72 810.75 49.01 809.62 48.38 808.66 47.65 806.87 47.11 806.43 45.57 806.49 43.12 806.29 41.65 806.75 40.11 805.29 39.52 804.12 38.35 802.76 37.64 801.44 36.58 800.1 36.35 798.36 37.42 794.59 36.92 792.41 35.79 789.6 35.65 788.05 36.41 784.42 35.69 782.94 34.92 782.3 32.35 780.81 30.87 777.72 30.16 777.1 29.15 775.55 27.83 772.93 27.77 771.17 26.46 768.16 25.85 767.39 24.99 764.36 25.08 762.68 24.8 762.2 24.48 759.66 24.91 758.34 24.62 757.23 23.63 756.1 22.84 754.62 22.38 752.8 21.01 750.95 17.33 748.67 15.67 746.9 14.4 746.42 13.4 744.93 12.66 744.24 11.66 744.17 11.12 742.76 10.21 741.87 8.44 741.15 7.87 739.85 5.56 736.42 5.1 734.68 3.76 732.55 2.53 731.51 1.7 731.21 1.35 730.24 1.69 729.33 1.98 726.58 1 725.4 1.24 723.3 1.92 721.79 1.17 719.75 2.11 716.04 1.84 714.8 2.42 714.11 2.73 712.48 4.35 710.66 5.53 708.29 6.92 707.61 7.11 706.26 8.78 704.18 9.9 703.85 11.35 702.67 16.84 699.35 16.88 694.67 14.64 689.69 16.58 686.29 17.88 683.14 19.26 682.11 20.93 679.85 22.71 678.5 23.76 674.52 23.08 672.05 21.92 669.67 22.44 666.7 21.31 663.52 21.31 658.82 20.03 654.82 24.41 656.73 25.7 655.36 27.38 655.17 29.99 654.5 36.35 649.9 38.34 649.91 39.3 649.43 40.98 649.69 47.28 647.93 48.57 648.34 49.73 645.21 48.16 643.93 49.56 641.27 50.4 641.52 53.45 640.97 54.31 640 55.43 639.69 56.06 638.95 57.05 638.51 58.86 636.48 62.73 636.18 65.03 635.39 67.79 635.79 74.89 633.69 77.17 630.33 79.28 628.38 81.41 628.55 83.82 627.54 84.71 626.38 84.16 624.11 83.06 622.73 82.62 621.05 81.3 619.96 78.37 619.58 76.15 617.9 75.85 616.94 76.03 614.97 74.25 613.92 73.82 611.61 72.04 611.51 71.11 610.82 71.08 610.01 68.53 607.28 66.97 606.85 66.68 605.59 66.91 604.82 66.52 603.19 67.76 602.59 68.22 601.24 69.32 600.95 70.42 599.49 71.04 596.17 74.28 593.57 73.2 591.76 73.8 590.82 74.19 588.83 72.63 587.07 72.88 586.03 71.83 585.16 70.74 583.48 71.44 581.18 74.23 580.77 74.58 580.13 75.58 579.86 77.34 579.83 80.31 578.31 80.8 575.92 80.38 574.63 80.46 573.71 82.76 573.12 84.36 573.05 85.22 573.64 87.07 573.77 90.48 572.83 90.9 571.29 90.71 570.86 91.6 569.59 91.85 568.13 92.66 568.12 93.49 567.55 95.93 568.02 96.54 564.89 97.97 563.2 100.57 561.97 101.38 559.64 98.12 556.58 97.7 554.98 98.47 551.53 97.48 549.38 97.66 548.22 96.69 545.56 96.82 543.35 97.49 540.62 96.95 538.54 97.72 538.36 100.84 535.67 99.64 534.35 101.35 528.62 99.88 523.99 100.66 522.86 101.85 520.57 101.4 516.2 102.93 512.96 104.5 513.13 105.53 512.1 108.48 510.86 110.53 509.48 116.6 505.9 118.86 503.75 122.93 498.83 125.06 498.89 124.33 493.68 124.08 489.96 125.01 487.68 125.62 487.17 126.96 485.05 127.68 484.42 130.29 482.75 132.14 478.56 132.93 472.94 132.49 471.82 131.77 471.05 130.11 467.12 127.06 461.57 123.87 459.27 119.49 456.36 121.6 452.54 122.59 446.88 122.76 443.99 123.03 442.75 125.99 441.03 129.53 440.9 131.29 439.02 131.74 436.14 131.65 433.17 135.94 431.38 141.58 431.33 151.17 427.84 152.12 422.43 149.36 419.74 149.29 418.33 148.65 416.82 149.73 414.35 149.91 411.88 151.05 411.13 151.37 408.49 152.09 404.36 148.84 401.66 148.01 401.41 146.78 397.51 146.95 396.63 150.67 393.83 153.84 389.09 152.67 381.52 152.46 373.19 152.58 370.98 152.04 367.73 150.58 365.9 148.66 358.86 150.12 357.24 150.45 352.93 152.19 350.04 151.85 349.03 151.43 344.52 151.17 342.81 151.48 341.34 151.27 340.21 151.45 339.04 150.43 336.91 149.78 336.72 148.22 335.01 148.11 332.66 150.22 332.17 154.69 332.56 160.36 333.47 162.5 333.38 166.42 332.2 168.28 332.18 169.5 330.66 173.67 328.22 175.64 326.56 179.61 324.65 182.15 321.64 182.58 320.93 184.54 319.77 185.34 320.14 185.77 320.98 189.83 320.58 190.72 321 196.27 319.27 194.43 313.58 190.11 308.31 188.52 307.15 189.1 298.34 189.88 295.03 187.87 291.31 186.05 286.28 183.12 283.76 186.74 280.08 187.19 277.12 188.7 276.08 189.51 275.1 189.97 271.45 189.97 270.29 189.32 268.53 191.15 266.19 191.36 264.72 190.61 260.26 189.93 258.91 189.92 258.13 187.07 257.48 187.12 256.53 184.92 250.9 183.33 249.85 183.04 247.45 181.84 246.23 182.16 241.12 184.4 238.76 187.91 237.18 187.35 235.49 190.44 228.75 190.9 228.91 193.94 224.59 193.74 222.6 193.76 220.02 192.93 219.08 192.24 217.75 189.03 212.97 185.44 208.14 181.29 203.64 180.31 202.87 178.97 202.46 178.66 200.92 177.11 199.25 176.31 197.79 174.83 193.88 176.5 191.66 177.22 189.97 177.09 188.6 177.48 188.08 177.73 186.47 178.61 184.81 178.06 181.85 177.36 181.39 177.17 179.5 176.58 178.55 176.54 176.99 177.09 176.29 176.88 173.76 177.41 172.96 177.47 168.23 176.86 167.3 175.46 166.73 174.57 166.06 173.77 165.99 172.93 164.99 172.57 163.56 171.93 162.69 169.67 161.04 169.57 159.86 170.11 156.1 169.84 153.68 168.95 152.25 171.34 149.06 171.37 147.95 170.57 145.85 170.09 143.79 170.7 140.78 171.71 137.17 173.36 134.55 175.53 133.89 176.35 133.43 180.6 130.48 183.89 129.37 185.37 128.59 186.97 127.38 188 126.01 189.49 123.36 190.23 121.29 191.6 118.28 192.76 114.74 193.09 112.05 197.19 112.88 200.52 112.96 202.38 111.04 206.15 110.81 209.53 109.49 212.31 108.73 213.56 109.31 216.97 110.21 221.14 110.67 219.76 108.08 218.25 107.36 216.9 105.04 212.98 97.97 212.87 97.24 214.3 93.2 214.9 90.09 216.28 86.12 216.79 81.99 214.79 78.63 213.29 75.53 212.35 73.29 211.33 69.15 209.96 67.27 210.33 64.34 211.83 62.78 211.53 60.25 210.47 56.88 210.24 51.13 211.19 49.95 213.43 49.44 214.58 42.39 218.19 40.68 218.98 34.92 219.81 32.27 221.58 30.23 223.24 28.78 225.67 24.35 231.36 22.12 232.46 22.88 235.96 26.94 241.83 23.9 244.68 20.69 245.51 19.47 248.06 19.88 252.26 22.35 256.88 23.68 260.9 23.57 261.89 23.92 262.64 27.1 265.2 29.3 266.57 29.09 267.85 29.25 268.76 30.91 270.9 31.47 274.74 37.68 277.74 36.56 279.62 35.44 282.85 38.42 282.83 40.75 284.56 45.36 286.84 48.47 288.7 50.47 290.07 51.21 290.69 52.71 292.25 53.88 297.26 54.25 300.49 57.98 303.46 55.11 304.69 54.89 305.48 53.51 308.17 49.77 309.28 47.65 310.65 45.74 313.95 42.95 316.02 42.97 317.02 44.11 318.18 44.28 321.93 42.69 324.88 41.09 327.42 40.34 330.9 36.68 333.04 32.96 334.95 27.93 336.46 26.26 337.37 24.78 341.04 19.68 346.21 18.13 348.68 17.66 355.05 10.31 358.7 7.86 362.67 5.89 365.66 5.01 369.2 4.25 373.35 1.37 374.13 1 375.03 3.28 374.5 5.51 374.84 6.85 374.77 8.29 375 10.54 373.95 11.91 373.61 15.06 376.27 16.81 377.56 18.19 379.09 18.69 380.31 25.12 380.18 27.36 379.86 28.82 378.96 30.52 378.26 32.64 376.66 36.8 376.08 40.22 375.72 41.58 376.19 42.73 376.11 44.47 378.39 45.13 379.39 47.75 380.88 48.87 379.97 50.7 379.52 52.56 380.33 56.01 381.66 57.04 382.91 56.35 384.2 57.36 385.14 57.63 385.43 58.46 386.71 59.1 387.2 59.75 388 59.56 390.85 59.56 391.37 59.05 392.32 59.49 394.42 59.41 395.21 59.8 395.52 60.83 396.32 61.51 397.54 63.33 396.71 64.03 396.52 66.99 395.97 67.8 395.72 71.68 396.56 72.89 398.83 74.48 399.94 74.95 399.99 77.35 401 78.54 401.64 79.85 402.77 81.12 404.57 84.3 403.66 88.56 405.53 92.34 406.64 93.88 406.73 96.35 405.68 98.94 405.72 100.06 407.38 101.27 408.22 102.92 410.15 104.17 410.33 105.5 411.93 107.1 412.52 108.86 413.07 111.26 414.44 112.65 416.09 113.04 417.47 114.06 417.92 115.26 419.53 116.08 419.85 118.36 419.4 120.94 419.58 122.08 420.57 122.67 421.52 123.79 421.76 125.45 423.43 125.62 423.9 126.92 426.52 126.39 430.03 124.07 431.1 124.43 432.24 124.23 434.85 125.81 436.12 125.42 437.31 125.62 439.81 125.04 441.89 122.17 441.61 120.05 442.44 118.78 443.45 115.86 443.45 115.37 444.91 113.71 447.82 114.42 449.61 113.67 451.74 117.67 453.76 118.76 455.03 120.44 457.07 122.23 457.02 124.42 458.08 126.29 459.75 127.31 462.02 129.74 463.44 131.57 464.31 131.51 465.85 131.95 465.99 133.37 466.89 134.11 467.93 132.96 469.18 133.25 471.17 134.38 472.63 134.29 474.25 133.5 476.48 134.48 477.57 133.72 480.59 134.44 481.98 136.16 482.73 136.59 486.98 135.78 489.42 137.9 489.88 138.02 491.39 139.44 492.66 140.27 493.64 139.92 496.09 137.22 497.26 133.55 498.38 129.2 501.04 125.6 502.09 125.4 503.61 125.57 504.91 123.67 505.5 121.72 506.32 120.6 507.37 118.58 508.59 118.01 510.81 117.82 513.62 116.99 514.71 116.94 518.28 115.26 519.31 116.56 520.23 116.68 522.4 118.19 524.29 118.47 524.92 119.55 525.06 121.28 524.71 122.98 525.46 125.71 526.75 126.58 528.52 127.31 529.71 128.49 530.63 128.82 530.83 129.88 530.72 131.69 532.1 133.1 532.6 134.25 533.7 134.49 533.96 135.72 534.74 136.37 538.62 135.79 539.57 135.89 541.02 133.98 541.44 132.03 541.24 130.24 541.89 129.45 544.95 129.24 546.23 127.95 548.23 128.12 549.49 126.44 552.82 126.26 555.49 126.86 557.18 126.92 559.3 126.31 563.62 126.38 564 124.9 565.16 123.97 565.7 122.83 567.23 121.9 568.65 122.04 572.11 120.02 573.94 121.25 Z" id="35520000"/>
</g>
</svg>