<?xml version="1.0"?>
<svg xmlns="http://www.w3.org/2000/svg" version="1.2" baseProfile="tiny" width="800" height="712" viewBox="0 0 800 712" stroke-linecap="round" stroke-linejoin="round">
<g id="sigung">
<path d="M 726.03 114.18 725.95 115.75 725.2 117.79 725.05 121.24 724.27 122.71 724.36 124.22 724.2 125.68 723.43 127.64 723.08 130.87 723.42 133.64 724.19 135.64 724.54 139.63 724.2 141.79 724.52 144.65 724.08 147.55 724.12 148.59 725.57 152.66 726.48 153.95 727.73 154.36 728.81 155.23 729.35 158.03 729.27 159.99 730.33 164.88 730 167.59 729.6 168.63 727.63 169.37 725.61 170.82 724.93 172.14 724.68 173.3 724.16 178.16 723.96 178.93 725.08 179.93 727.08 181.4 728.01 182.28 730.95 184.02 732.67 186.13 735.53 185.89 736.5 186.64 738.89 187.66 740.56 189.47 741.63 190.03 743.48 190.19 746.64 190.75 747.2 191.26 747.74 193.18 749.29 194.85 751.21 196.11 754.86 200.03 756.77 201.86 758.34 202.49 758.94 203.37 760.72 204.44 761.1 205.38 762.11 206.69 762.68 207.84 762.7 209.87 761.5 210.09 760.32 210.74 758.6 212.68 757.68 213.28 757.34 214.28 756.28 215.92 755.83 217.18 754.11 219.25 753.44 222.56 756.66 223.9 757.26 224.71 759.15 225.29 761.41 225.24 762.43 225.56 764.82 225.6 766.94 226.88 767.38 227.51 768.34 231.74 768.47 232.76 768.37 235.76 768.64 236.62 767.74 238.95 767.4 240.27 767.34 242.08 767.73 242.91 769.95 244.97 770.49 245.8 770.66 247.28 771.97 250.5 774.28 252.08 775.47 255.57 775.95 256.19 775.62 256.93 775.77 258.26 775.68 261.25 775.21 262.5 774.87 264.68 775.28 265.13 775.5 266.5 777.82 267.78 778.27 268.27 778.64 270.62 779.47 271.95 779.49 272.97 779.15 274.6 779.34 275.38 779.06 276.92 779.68 278.37 780.08 280.01 782.54 281.5 782.5 283.3 782.81 285.81 783.61 287.12 786.99 287.52 787.95 287.29 788.83 288.14 790.31 290.94 791.5 291.89 796.29 294.25 796.96 295.98 797.03 296.76 798.5 298.49 799 299.41 798.58 301.14 797.78 303.21 797.54 304.57 796.84 306.32 796.5 307.7 795.17 309.71 792.68 311.38 792.14 313.08 792.67 315.9 793 316.56 793.46 318.69 792.99 319.35 791.81 320.18 788.82 320.84 787.56 321.69 786.98 321.76 784.45 322.7 781.7 324.35 779.88 325.71 777.14 326.86 775.72 328.31 773.69 329.02 770.23 332.02 768.8 333.85 767.57 336.93 767.01 337.71 765.14 338.19 762.18 340.51 760.76 341.28 759.13 342.44 757.19 343.21 755.28 343.75 752.63 344.14 750.87 344.01 747.27 344.51 745.7 345.24 741.4 348.55 739.42 351.42 739.72 354.86 739.54 355.42 740.98 358.38 741.51 360.23 742.41 361.75 741.38 368.24 740.69 371.02 739.55 372.81 739.98 375.27 740.25 375.85 744.1 380.47 746.84 382.87 751.77 386.63 751.89 388.05 751.27 391.16 751.4 393.95 747.07 397.17 746.77 397.54 745.69 400.23 743.67 400.15 739.85 399.46 737.56 399.45 734.24 399.72 731.03 401.45 730.4 402.53 729.79 405.32 729.25 405.75 727.97 405.96 727.22 406.85 726.08 407.6 725.43 407.68 723.5 408.69 722.04 409.78 721.55 410.43 720.33 410.94 719.76 411.62 718.93 411.53 718.41 412.39 717.29 412.77 716.21 413.83 714.46 414.14 713.26 414.71 711.39 414.2 709.61 414.82 708.53 414.22 708.28 413.4 706.53 411.07 704.55 409.85 703.77 408.92 702.52 408.2 698.41 408.16 696.59 408.39 695.98 408.87 695.11 408.92 693.82 408.2 693.13 408.6 692.68 410.62 692.68 411.81 692.32 412.73 690.87 414.08 691.22 415.23 691.29 416.66 690.7 417.48 690.36 420.3 690.63 422.46 691.87 425.46 691.62 429.21 690.73 432.64 689.25 435.38 688.32 437.8 686.36 439.68 683.66 442.5 681.42 445.01 679.32 447.69 676.6 449.33 674.92 449.85 676.38 451.79 676.21 452.99 676.8 457.19 678.48 463.03 679.91 465.57 679.9 466.87 680.44 468.22 681.59 472.45 679.29 476.77 678.37 478.7 676.29 481.88 673.68 483.61 667.44 481.3 664.96 485.26 663.57 487.14 662.46 488.37 662.93 492.52 662.33 495.34 663.66 500.72 662.97 503.07 659.18 507.83 657.33 510.93 653.5 510.08 648.24 508.66 645.53 509.51 643.28 509.4 641.07 508.03 639.85 505.94 638.66 504.32 635.58 504.26 632.09 503.93 630.15 504.68 625.94 505.88 623.28 507.59 621.25 509.7 619.04 510.73 614.34 516.35 614.39 518.41 611.31 520.75 611.82 523.25 611.46 525.2 611.44 528.08 607.02 529.36 605.12 531.94 601.38 535.37 601.67 537.91 602.19 539.47 601.06 542.74 600.18 543.43 599.11 543.57 596.05 542.86 592.95 540.98 590.63 539.75 588.69 537.84 586.01 534.71 583.94 533.07 581.95 532.57 580.33 530.74 577.48 533.47 574.2 536.02 572.03 538.36 571.1 538.73 569 540.17 566.56 540.38 565.41 541.61 560.78 542.88 558.71 543.88 557.88 545.12 557.04 545.78 555.06 546.87 552.42 546.44 550.72 546.61 548.42 546.13 545.82 546.37 544.46 548.22 543.82 548.62 541.81 549.17 537.98 550.99 535.3 554.49 533.04 555.54 531.36 557.11 528.59 560.19 528.7 564 527.27 565.61 524.66 570.34 521.36 571.43 520.63 573.36 516.23 578.44 515.53 579.71 510.89 581.38 507.47 582.98 502.76 583.11 500.14 581.76 498.11 581.73 491.19 585.46 488.16 586.69 484.62 587.08 482.34 585.77 480.94 582.51 476.96 581.56 475.17 579.36 473.98 578.18 473.73 575.42 471.19 573.98 467.97 572.63 459.77 570.37 458.92 569.95 457 567.88 454.03 573.8 451.35 578.03 450.25 582.09 448.26 583.93 447.11 586.41 445.79 588.71 443.95 591.4 443.43 593.42 444.18 596.07 444.63 600.52 446.52 603.18 447 605.25 445.96 607.53 445.23 611.94 443.99 613.72 439.04 616.4 438.33 617.36 436.58 621.88 434.44 624.21 432.7 627.66 432.28 634.06 431.02 640.46 430.16 643.03 427.05 647.75 425.03 647.78 421.73 647.01 417.98 647.37 416.57 649.11 414.32 653.69 414.56 656.05 415.69 660.28 415.95 664.06 415.94 665.87 415.14 668.89 414.22 670.51 410.86 673.05 409.03 674.96 407.74 678.08 406.46 683.94 406.15 687.68 405.17 688.85 402.01 691.05 396.17 694.3 390.64 698.46 387.86 701.79 385.67 702.86 383.42 702.68 381.63 701.74 379.7 701.29 376.38 702.91 372.95 705.13 366.83 708.72 365.73 711 358.96 706.78 352.59 702.5 345.07 695.84 341.8 692.68 341.15 690.21 341.31 685.61 341.88 680.12 340.26 674.96 338.67 671.43 334.72 669.39 329.49 667.57 325.67 662.96 321.81 658.76 320.34 656.74 319.01 655.48 316.02 655.65 312.48 655.58 311.19 656.21 308.15 656.86 305.54 656.78 304.63 653.73 304.31 651.35 302.71 648.44 302.26 646.82 300.31 645.9 298.29 644.25 296.72 644.23 295.55 643.35 295.09 642.17 292.93 639.6 292.68 638.81 291.97 638.41 290.42 635.86 287.82 637.42 283.01 641.41 281.5 643.37 280.09 645.59 276.59 648.39 274.7 650.69 272.88 651.98 272.92 650.68 270.56 651.33 267.93 649.65 267.01 650.64 264.97 651.56 261.55 651.67 259.88 651.31 259.5 651.52 257.07 651.3 255.72 650.98 252.81 649.73 252.18 649.15 250.9 648.75 250.57 648.18 249.47 647.76 248.87 646.78 247.38 646.5 245.86 644.8 245.09 644.33 243.45 643.95 241.86 644.53 242.52 643.35 242.81 641.33 241.59 640.25 238.8 640.65 237.37 640.35 235.04 640.13 234.2 639.63 233.81 638.77 233.06 638.66 232.04 636.96 231.62 635.78 230.73 635.12 230.02 635.11 225.98 639.98 224.27 642.51 223.9 646.64 223.64 647.86 223.49 650.55 221.9 649.71 221.09 648.54 220.83 646.26 220.25 644.61 218.74 642.75 217.76 641.79 216.72 639.4 215.86 638.28 211.33 634.44 209.93 632.53 208.76 630.26 207.83 629.2 206.42 626.95 204.89 625.17 203.49 623.22 202.6 621.12 202.35 619.61 202.62 615.81 202.46 611.99 202.78 608.08 203.38 606.4 205.75 603.99 205.98 602.85 202.37 592.26 200.63 588.59 200.21 586.72 200.16 583.56 199.92 581.1 199.01 579.43 198.26 578.74 198.8 577.81 201.54 575.54 203.53 573 205.67 569.15 207.61 566.74 209.52 564.04 210.1 562.08 207.81 561.45 207.25 560.58 204.9 558.44 202.93 554.9 202.21 553 201.4 550.05 200.61 548.91 199.48 546.58 200.04 545.52 199.71 544.07 200.17 542.31 198.66 539.52 197.86 538.44 197.8 537.45 196.07 534.67 195.56 534.59 195.14 532.09 191.15 530.48 189.99 531.69 187.11 533.8 185.11 534.19 183.54 532.21 180.37 529.72 179.19 527.77 177.38 525.73 176.37 525.31 176.87 524.72 177.07 523.53 176.78 522.99 176.53 520.86 175.94 518.98 175.87 516.38 174.79 515.64 173.42 515.61 172.46 517.23 170.86 517.55 169.66 517.03 169.47 517.58 167.28 515.29 167.28 512.93 166.3 512.16 166.92 511.21 166.72 508.9 166.42 507.92 164.99 506.23 163.82 505.57 163.04 504.56 162.28 504.21 160.55 502.33 159.97 501.96 159.97 501.02 158.2 499.87 156.85 499.29 157.31 497.65 156.21 495.82 156.13 495.22 155.26 494.39 154.84 493.19 155.11 491.86 154.68 491.36 155.1 489.25 154.1 487.85 154.69 487.19 154.12 486.31 155.21 484.76 155.66 483.13 156.79 482.15 157.84 481.84 160.46 480.48 162.04 478.29 164.21 479.22 164.79 479.01 161.56 477.05 159.03 478.42 157.11 478.09 154.99 478.49 152.43 478.42 147.59 477.2 147.43 476.69 144.08 475.49 143.1 476.53 142.43 476.32 141.82 478.03 139.34 482.58 138.89 484.16 137.71 484.82 136.05 486.06 130.35 486.31 128.57 486.7 125.88 488.11 122.13 492 121.64 491.63 119.81 488.76 117.96 487.56 116.77 487.8 114.96 486.78 112.73 484.33 107.68 483.59 106.05 482.82 106.62 482.29 107.6 480.06 109.07 477.67 108.83 475.86 108.14 474.54 107.9 472.8 109.47 470.7 109.73 469.52 110.98 466.91 112.56 464.77 113.44 462.42 112.79 460.21 112.98 457.38 114.03 457.06 116.02 457 117.25 457.43 118.19 457.38 118.75 453.24 118.58 450.42 119.39 448.78 120.09 448.42 120.41 446.14 120.91 446 122.23 443.28 123.39 441.69 123.57 440.86 124.3 440.18 124.67 438.47 125.73 437.36 126.8 436.89 127.05 436.11 126.54 435.71 126.81 434.59 125.66 433.34 124.75 431.63 123.77 430.86 123.05 429.54 122.38 428.93 122.93 428.15 122.84 426.75 121.72 423.13 120.3 423.12 119.67 420.76 119.06 419.26 119.1 417.55 119.61 416.72 119.91 415.51 119.72 414.61 118.95 414.91 117.17 415.09 117.09 415.6 114.62 415.4 113.09 413.79 111.99 412.26 111.94 411.21 111.11 410.46 109.9 407.77 107.33 406.03 106.14 403.96 104.38 403.11 103.44 402.18 101.62 402.03 100.18 399.91 98.58 399.51 96.69 397.68 93.57 398.45 92.68 397.32 92.54 396.4 93.02 395.05 92.13 392.35 92.45 390.44 92.25 388.19 91.4 387.56 90.18 385.5 90.26 383.15 87.14 380.83 86.46 379.59 85.35 379.14 84.79 378.39 84.39 376.44 82.72 375.52 81.98 373.17 81.66 371.57 79.19 371.44 78.83 371.67 77.39 371.45 75.84 372.03 73.32 371.71 68.66 372.35 66.54 373.21 64.81 372.79 62.74 370.34 62.04 365.52 58.24 360.66 58.07 359.25 58.26 358.25 57.77 357.46 55.36 356.48 54.96 355.04 54.93 353.94 54.19 351.68 53.64 351.14 53.2 348.89 51.48 345.87 52.86 343.09 52.86 341.79 53.75 340.85 55.2 338.33 56.74 337.57 57.55 336.39 59.39 335.57 60.57 334.61 60.33 333.49 60.45 330.84 60.3 328.21 59.62 327.27 59.91 324.96 60.4 323.54 60.79 323.17 61.04 319.19 61.59 318.26 63.3 314.61 64.02 313.87 64.3 310.61 60.5 309.45 59.03 309.32 58.23 307.81 57.57 305.43 57.33 302.13 57.45 300.21 56.95 298.83 56.03 298.33 55.17 297.04 54.91 295.55 55.06 294.94 54.56 293.92 53.37 293.36 51.79 293.99 50.59 293.34 49.8 292.19 49.62 290.12 49.13 287.92 48.14 286.04 47.34 283.97 46.49 283.99 45.47 282.4 46.5 280.12 47.24 277.76 46.99 277.14 44.83 275.94 42.26 272.3 39.69 268.94 36.94 267.17 35.05 267.07 32.35 264.75 31.53 263.65 31.36 260.41 31.68 259.21 31.58 258.41 30.1 258.06 29.06 257.44 27.76 255.42 27.44 253.06 26.13 251.23 26.23 250.27 25.74 249.94 21.38 249.85 20.69 249.33 20.86 247.92 21.6 245.41 22.46 244.56 25.15 242.81 26.73 239.75 27.85 236.65 27.47 236.08 27.33 234.25 26.9 231.68 26.14 231.52 25.3 231.96 23.01 232.45 21.82 232.5 20.49 231.79 18.67 231.49 18.23 232.21 16.07 233.9 14.71 233.69 11.99 234 9.16 233.09 8.21 233.44 7.04 232.39 6.74 230.93 6.25 230.21 5.8 226.55 6.38 223.05 6.35 219.69 4.75 216.94 3.08 215.53 1.72 215.09 1 214.29 2.05 213.08 1.91 212.41 3.55 209.77 4.03 208.31 5.55 207.75 7.47 205.28 9.21 203.86 9.32 202.67 9.86 201.42 10.98 200.76 12.43 200.83 13.58 200.46 15.79 199.21 16.98 198.71 17.36 197.4 19.89 196.62 20.67 192.4 22.45 189.7 24.44 189.25 24.72 186.24 26.04 185.32 25.62 184.53 25.91 183.82 25.11 182.21 24.81 180.95 25.32 179.9 25.26 178.91 24.34 176.44 24.87 175.04 24.24 173.85 23.74 171.66 22.84 170.47 20.85 166.49 20.91 163.77 19.75 162.88 19.4 161.3 18.04 159.58 16.62 157.31 16.5 156.18 17.86 153.82 18.46 151.94 20.29 152.35 22.49 152.02 24.47 150.71 25.64 149.51 28.15 149.11 30.05 149.55 31.88 148.07 32.45 146.59 32.1 144.81 30.63 142.39 30.48 141.16 28.71 139.68 27.95 137.95 27.5 134.44 28.02 134.02 28.23 132.36 27.98 131.67 28.33 129.31 26.9 128.93 25.71 127.53 25.81 126.97 24.62 125.78 24.98 124.2 24.56 122.92 24.68 122.06 25.36 121.44 25.81 120.07 25.67 118.84 26.34 118.62 27.39 116.91 28.68 116.36 29.4 113.29 29.73 112.99 30.13 110.7 29.74 109.12 27.75 108.54 27.14 107.78 26.96 105.26 27.33 103.83 27.36 102.53 26.08 98.61 25.95 97.05 26.4 95.54 27.48 93.96 25.99 93.71 25.58 92.85 24.62 92.32 23.69 91.4 23.44 90.16 22.78 90.24 17.9 89.64 15.93 88.75 16.26 86.6 15.82 85.39 15.76 82.57 14.85 81.6 14.47 80.62 14.31 78.2 13.43 77.68 14.14 74.36 14.64 72.85 18.05 72.85 18.21 72.09 19.32 72.59 20.29 73.52 21.61 74.02 22.68 74.92 24.59 75.23 25.37 75.62 27.96 74.79 28.88 75.19 29.05 75.77 30.73 78.41 33.05 78.25 34.37 79.64 35.97 78.96 39.33 78.41 41.57 77.87 42.29 78.31 42.58 79.41 43.42 80.68 44.5 80.18 48.36 79.34 49.09 82.76 51.12 82.52 51.42 83.42 53.21 86.38 55.51 87.9 57.54 93.08 59.8 92.91 64.06 93.94 65.65 92.87 66.44 92.83 68.32 91.56 71.24 91.42 72.46 91.78 73.14 92.8 75.25 93.61 75.89 94.78 77.07 95.76 77.27 96.86 78.72 98.16 81.44 97.34 83.17 96.46 85.44 96.43 86.65 96.84 89.61 98.73 89.85 99.62 90.62 100.5 90.77 101.31 91.61 101.74 91.72 102.49 93.33 104.64 95.13 105.13 95.26 107.73 97.61 110.06 100.13 110.2 100.59 110.67 100.85 112.15 101.47 112.8 101.57 114.06 103.66 116.81 108.14 115.39 110.27 115.32 111.24 114.48 113.95 112.64 116.15 111.8 116.29 110.27 117.06 109.38 118.64 108.21 119.04 107.51 120.13 106.76 120.97 107.05 123.88 108.62 128.29 109.87 129.2 109.44 130.67 109.53 132.16 109.88 133.49 109.45 134.99 109.67 138.02 111.92 138.46 116.36 139.1 117.26 139.14 118.75 138.23 121.01 138.64 122.32 139.79 123.68 140.7 123.86 143.13 124.97 143.86 125.63 146.61 126.91 148.54 127.43 149.32 129.8 151.91 132.94 151.73 133.96 153.56 136.53 153.97 138.18 155.11 140.03 156.22 140.39 156.1 140.88 156.7 143.18 156.41 145.29 161.59 145.36 162.87 144.84 164.56 144.86 166.9 145.32 167.78 144.73 169.85 145.29 170.71 146.71 172.1 150.23 171.32 151.11 171.01 152.29 169.96 154.86 170.71 156.52 173.38 159.01 176.58 161.63 176.49 162.92 176.81 165.85 177.64 170.33 177.57 171.47 178.21 172.78 180.98 173.47 182.7 174.27 185.6 173.34 186.5 172.34 188.62 168.93 189.37 168.15 189.5 166.56 189.23 165.51 190.3 163.83 190.6 162.74 193.54 158.09 194.77 155.09 193.93 149.85 192.59 145.35 191.95 142.37 191.29 137.1 190.58 132.58 190.02 127.05 188 124.97 186.42 123.54 184.2 121.05 182.18 119.71 180.35 119.44 178.7 118.89 177.2 116.58 177.23 113.58 178.17 111.17 179.4 109.82 183.06 108.69 185.49 108.85 190.12 108.62 190.12 109.4 191.75 109.53 194.25 109.5 196.94 110.64 199.41 111.91 201.29 112.42 201.65 113.12 203.32 112.81 208.11 111.08 209.37 109.85 211.45 106.99 212.27 104.39 212.42 102.1 211.95 100.07 211.95 97.6 212.68 95.45 214.92 93.98 217.91 92.96 219.2 93.15 221.19 93.99 223.16 95.33 224.3 96.42 228 100.29 228.76 102.39 231.46 101.89 229.77 100.59 234.2 94.45 236.55 93.18 237.79 93.29 237.1 91.12 235.81 89.66 234.71 88.87 232.8 88.08 231.95 88.01 232.15 86.07 230.96 86.75 229.2 86.41 227.6 86.72 226.5 87.48 225.28 87.05 223.19 85.28 221.62 83.01 221.23 80.4 221.22 75.16 220.5 71.05 219.68 69.43 218.66 68.31 216.93 67.66 215.07 67.33 212.11 67.15 210.26 67.82 209.11 67.72 207.54 67.98 205.1 69.1 204.51 69.89 204.9 70.74 201.52 72.84 199.5 71.47 198.28 73.43 195.17 76.02 195.51 74.04 196.18 72.4 195.35 71.6 194.74 69.93 193.87 69.02 194.27 67.96 194.38 66.65 195.79 64.49 196.26 63.03 195.65 61.67 196 61.15 196.18 58.23 195.98 56.93 196.22 55.32 195.63 52.82 195.49 51.25 194.04 49.59 193.79 48.12 194.33 44.63 193.99 43.58 194.01 41.84 194.59 39.16 194.96 38.71 195.77 35.63 195.55 34.51 195.99 32.46 195.61 31.24 196.09 29.52 196.11 27.79 195.91 26.56 197.92 24.17 197.33 22.82 197.51 20.38 197.48 17.07 197.24 16.34 197.82 14.64 197.75 12.54 200.06 9.15 203.88 5 204.65 4.73 212.15 6.42 215.81 6.54 217.96 5.99 220.68 5.97 222.34 5.54 223.14 5.69 224.58 5.08 226.56 5.04 229.31 3.96 231.92 6.21 233.62 6.06 233.73 3.91 234.21 2.84 234.01 2.11 233.72 1 235.86 2.13 237.1 1.8 239.25 2.74 240.86 3.22 242.35 4.17 244.93 4.16 245.44 4.86 247.1 5.61 248.31 7.54 249.97 8.71 250.34 9.97 251.46 11.79 253 13.14 254.45 14.91 255.14 16.3 255.39 17.97 255.25 20.64 256.02 23 255.65 24.45 255.71 25.44 256.51 27.91 258.61 28.99 259.67 29.7 261.09 29.11 261.76 29.19 263.46 30.07 264.32 30.11 265.81 31.62 267.63 31.32 267.61 33.13 267.18 33.77 268.55 35.33 269.35 37.94 268.58 39.96 268.38 41.39 269.66 43.04 270.63 43.88 270.9 44.85 271.67 45.71 271.62 47.93 272.63 49.7 272.78 50.58 273.92 51.55 275.11 54.11 274.95 55.89 275.35 58.05 275.9 58.62 275.87 61.07 276.12 62.21 277.42 64.84 277.98 66.37 279.21 67.79 278.83 68.69 278.29 71.34 277.79 72.1 278.17 74.3 278.94 75.03 279.85 77.06 281.24 77.93 282.14 77.71 283.31 76.88 284.01 76.85 285.42 77.82 286.28 77.99 288.49 79.62 291.98 77.92 292.82 78.04 294.95 77.5 295.91 76.65 298.03 76.65 298.54 75.7 298.71 74.2 299.41 73.71 301.03 73.5 303 71.36 305.55 69.06 305.47 68.24 304.53 66.93 303.52 64.97 301.77 63.49 300.95 60.48 301.66 59.2 301.65 57.92 303.17 56.01 303.13 54.33 303.53 51.7 302.45 49.77 300.38 49.24 298.64 47.23 298.1 46.35 298.04 44.96 299.28 44.4 301.31 42.82 301.91 42.1 302.94 40.07 304.08 39.73 306.03 38.65 308.64 35.86 308.91 34.97 311.03 33.05 311.94 32.81 313.12 33.09 314.43 33.82 314.9 32.21 315.34 32.02 316.13 30.67 318.18 29.25 318.57 28.53 321.94 26.84 322.82 25.85 323.85 24.25 324.6 24.21 326.91 21.46 327.92 20.84 328.21 19.82 329.74 18.81 330.19 17.94 331.55 16.75 333.82 16.14 335.94 15.89 336.78 15.31 338.68 15.48 338.49 17.04 339.3 17.82 340.91 22.66 341.69 25.66 342.31 27.21 343.95 26.33 346.45 27.49 347.26 27.46 350.26 24.75 351.27 25.39 350.95 28.7 352.2 32.97 352.59 36.19 352.98 36.56 352.78 38.09 351.58 40.61 351.89 41.68 353.26 43.89 353.36 46.54 351.47 48.27 351.42 50 351.81 50.64 351.94 54.11 352.24 54.43 352.07 56.02 351.44 56.44 351.34 57.89 352.09 59.32 352.21 60.87 353.06 62.88 353.72 63.17 353.58 64.62 353.97 65.31 353.88 67.19 354.4 70.05 356.42 71.23 356.89 72.29 357.51 72.65 358.53 74.08 359.72 75.12 360.86 75.62 361.34 77.28 362.21 81.43 364.22 82.58 365.39 83.47 365.75 84.75 369.25 86.9 371.52 85.99 373.61 85.57 374.27 86.13 374.25 87.23 375.65 85.41 376.65 85.05 379.84 84.72 381.72 84.28 384.29 83.25 385.74 83.01 387.46 83.03 389.35 83.43 391.38 84.08 394.13 85.6 396.1 85.91 397.51 86.6 398.92 87.93 399.86 89.6 401.35 93.13 405.43 93.33 407.96 92.78 410.36 94.48 411.69 92.85 413.4 91.64 415.11 92.73 416.65 93.36 419.47 95.42 418.58 98.48 420.71 95.37 422.31 93.79 423.82 92.67 425.31 91.82 426.73 91.6 432.12 91.58 433.57 91.73 435.63 93.98 437.65 96.38 438.72 98.04 441.06 102.91 442.46 105.46 443.19 108.35 444.27 109.4 445.63 110.21 447.4 110.69 448.94 110.1 449.54 109.4 451.22 105.62 451.62 104.16 451.66 101.36 452.82 100.33 455.54 100.26 459.29 98.18 460.26 98.27 461.27 99.03 464.24 102.32 466.43 105.95 468.26 108.3 469.77 109.4 475.66 112.01 477.76 111.36 479.64 110.53 481.9 109.2 485.02 108.37 487.09 108.7 488.82 109.41 490.18 112.12 491.04 118.53 487.52 126.71 486.41 128.28 486.37 128.85 484.24 132.91 484.4 135.32 485.58 136.81 487.09 138.17 488.96 139.46 492.95 141.12 494.56 141.69 496.18 142.01 498.51 142.22 502.06 141.82 503.96 141.31 505.98 140.49 509.93 138.39 515.2 135.19 517.04 134.85 517.17 134.03 526.89 131.51 530.04 131.06 532.77 131.01 534.33 131.25 536.39 132.22 538.85 133.65 542.61 136.05 543.33 135.15 544.65 134.02 544.92 133.12 546.44 131.23 547.48 129.03 547.63 127.51 548.19 126.27 549.1 125.11 550.42 124.26 552.14 122.19 553.35 122 554.87 122.09 554.87 120.02 556.01 118.49 557.64 117.69 557.61 117.08 558.68 116.09 560.14 115.71 561.38 114.65 561.8 112.47 562.49 110.6 562.26 109.26 563.86 108.15 565.1 108.1 566.71 106.54 569.37 105.27 570.07 105.18 571.11 106.48 574.27 104.96 575.06 105.86 575.99 105.96 577.42 106.62 579.19 106.71 580.5 106.11 582.2 104.89 583.59 103.25 585.18 102.95 586.29 104 586.86 104.16 590.67 103.02 591.59 101.91 593.54 101.46 594.32 101.65 595.77 101.01 597.89 98.81 600.7 100.21 601.33 101.11 602.79 101.08 604.04 101.6 605.92 100.98 607.16 98.08 608.54 96.73 609.38 96.96 610.6 96.04 611.73 95.52 612.72 95.4 613.91 93.56 614.56 93.1 615.72 92.87 617.07 91.46 619 91.06 619.69 90.7 620.75 88.66 621.32 89.01 626.23 86.99 626.63 86.37 628.58 85.88 629.05 84.59 629.53 84.36 630.25 82.78 632.7 82.12 633.84 82.22 635.71 82.04 636.55 81.34 637.67 80.94 639.41 81.24 642.17 80.4 646.92 79.93 648.13 80.98 651.32 79.13 654.02 78.38 656.29 76.2 656.56 75.51 662.07 72.65 665.76 71.78 667.58 71.05 668.42 72.1 676.31 72.55 676.69 73.53 677.97 78.1 680.33 83.15 682.33 88.16 687.45 89.38 689.94 90.37 692.51 91.8 693.21 93.32 695.13 96.13 697.57 98.96 698.83 100.89 700.32 106.31 704.11 109.86 707.4 111.16 715.02 110.92 717.55 112.42 722.03 113.42 726.03 114.18 Z" id="35530000"/>
</g>
</svg>