<?xml version="1.0"?>
<svg xmlns="http://www.w3.org/2000/svg" version="1.2" baseProfile="tiny" width="800" height="882" viewBox="0 0 800 882" stroke-linecap="round" stroke-linejoin="round">
<g id="sigung">
<path d="M 799 429.95 796.41 431.99 792.6 434.4 790.85 434.98 790.67 435.9 789.54 436.83 789.11 438.55 787.42 439.68 785.88 439.77 783.05 441.06 782.85 442.32 781.7 443.55 781.51 444.55 780.16 445.25 779.21 445.12 777.74 445.67 777.57 447.92 776.87 449.72 775.35 450.84 774.22 450.44 773.15 449.57 770.45 449.32 768.87 450.33 766.82 449.9 764.82 450.56 763.37 449.58 761.51 449.23 759.55 450.11 756.48 450.63 753.3 451.57 752.65 452.19 749.63 453.17 745.74 451.57 744.87 451.39 743.96 450.36 742.52 449.82 741.49 450.11 739.98 450.01 736.9 451.22 735.31 451.61 734.79 452.49 733.15 453.98 731.25 454.11 730.41 454.69 729.1 454.27 727.08 452.45 725.38 453.8 722.92 453.4 720.26 455.68 717.57 455.98 715.3 455.63 714.82 455.81 712.64 454.94 711.88 455.18 710.19 454.72 709.09 455.08 707.29 454.2 705.36 453.6 702.72 452.14 701.05 452.01 700.18 451.61 698.26 451.58 695.53 451 694.4 451.32 692.99 451.33 690.06 448.35 687.58 451.01 686.95 451.16 685.67 452.17 682.43 453.81 681.73 453.77 679.01 454.42 678.1 454.95 675.66 455.19 674.79 455.04 672.09 454 671.78 455.98 670.61 457.89 670.34 460.38 670.72 462.06 670.53 464.05 665.91 465.42 664.61 467.05 662.34 467.67 660.52 469.34 659.8 471.27 658.21 472.91 655.43 474.67 655.68 477.35 659.04 483.85 659.61 491.36 660.6 497.07 658.46 500.38 657.56 502.11 657.28 504.37 656.05 507.49 654.28 512.33 654.3 516.76 653.35 519.85 653.87 522.17 653.75 525.12 653.87 526.57 653.58 528.84 655.8 528.91 656.35 528.45 658.61 528.92 658.16 529.84 659.59 531.39 661.4 532.78 661.86 533.61 663.01 534.02 664.63 536.35 665.54 537.13 665.9 538.46 666 540.12 666.99 541.86 666.35 543.09 665.65 545.57 666.13 547.5 664.1 549.02 664.03 549.89 664.83 550.75 666.34 551.39 669.1 551.03 669.71 551.65 670.21 553.53 670.6 553.9 669.86 555.2 669.88 556.94 668.98 558.19 667.39 559.32 665.29 561.45 661.77 563.87 659.61 564.38 657.22 566.05 656.2 569.29 654.99 570.45 652.83 570.92 648.79 573.39 646.38 573.89 644.77 573.48 644.06 571.81 642.27 572.56 642.03 571.59 639.33 572.75 640.69 575.36 639.73 575.79 640.76 577.06 640.35 578.14 638.15 580.39 636.88 582.52 635.09 583.69 634.57 585.23 634.81 586.38 634.22 587.54 635.9 588.6 634.17 590.77 635.12 591.59 633.37 593.57 633.83 593.97 632.15 596.09 631.49 594.01 631.32 597.29 633.37 598.99 634.74 599.81 635.47 603.53 637.12 605.95 635.53 607.43 634.05 608.55 633.94 609.28 632.45 610.37 630.48 610.69 628.64 609.32 627.9 606.99 626.33 605.69 624.59 605.79 623.89 606.97 621.71 609.23 620.28 610.24 618.61 612.46 617.37 614.38 610.25 623.08 609.54 623.35 607.34 624.97 605.09 626.06 601.92 626.43 599.52 626.52 597.52 626.9 594.71 627.69 591.8 627.85 589.68 627.32 588.75 625.65 584.98 621.31 582.26 619.28 579.36 617.86 577.08 617.7 573.43 618.89 571.52 620.48 569.94 622.87 568.95 625.28 568.57 626.94 568.67 628.65 569.24 630.32 569.21 634.3 569.54 637.33 572.08 636.83 573.75 636.88 575.54 638.71 575.8 639.56 578.53 640.07 578.52 640.36 580.29 643.08 579.86 643.99 581.39 645.75 582.67 645.74 583.96 647.94 586.4 648.07 587.68 649.39 590.81 650.93 592.31 650.41 593.07 650.54 593.81 651.51 595.25 651.28 596.02 650.41 597.6 649.85 598.92 651.5 599.52 651.41 600.68 652.1 600.61 652.76 601.38 655.05 602.1 655.42 602.42 656.63 603.99 657.59 604.11 659.74 603.97 661.79 604.16 664.85 604.93 665.37 604.79 668.52 605.15 670.46 604.21 670.83 601.33 670.76 601.26 671.85 598.76 674.32 599.47 676.98 599.27 678.08 597.6 680.41 598.13 681.85 597.79 683.11 598.02 685.59 594.56 690.2 594.82 691.16 594.6 693.35 591.35 694.62 590.83 695.5 588.05 697.02 583.87 696.96 583.05 693.05 582.85 692.66 579.78 691.85 578.87 692.08 577.21 691.87 577.02 696.26 577.08 697.67 577.82 699.12 579.6 700.73 580.92 701.63 582.01 702.93 582.62 704.24 584.85 706.74 587.85 710.48 589.2 712.61 591.48 713.34 592.77 714.01 595.08 718.15 596.69 719.79 599.73 720.42 603.95 723.95 607.27 727.08 608.83 727.71 609.51 728.43 610.46 730.19 611.32 731.12 613.58 732.57 613.93 733.33 614.16 735.26 614.02 736.04 615.48 737.87 616.01 738.91 616.22 740.51 616.1 742.84 616.44 744.46 615.82 747.16 616.89 749.74 616.78 753.07 617.76 753.8 618.91 755.61 619.35 758.69 619.1 759.38 619.52 761.92 620.58 763.53 621.05 765.96 619.81 766.29 619.39 768.78 618.2 767.69 617.68 767.79 616.53 766.36 614.84 768.79 613.84 769.45 613.58 772.05 612.22 773.38 612.53 775.1 611.71 775.83 609.71 776.52 608.46 777.27 606.29 777.88 605.01 777.73 603.26 776.49 601.6 776.92 599.93 776.94 598.22 778.56 593.47 778.21 592.61 777.97 590.97 778.71 589.62 778.78 586.44 778.14 585.69 778.57 584.16 780.61 583.79 782.73 580.2 785.58 577.65 785.33 576.21 785.6 574.27 786.39 572.26 787.74 571.74 788.95 570.02 789.83 568.28 791.23 566.59 791.13 565.35 790.64 562.8 790.49 562.73 789.16 561.06 788.32 555.16 783.48 554.92 783.77 552.19 781.53 551.79 781.75 550.17 780.73 548.78 780.73 547.6 781.43 546.22 781.75 543.62 783.05 540.88 784.23 539.28 785.11 537.87 786.54 536.56 787.03 534.63 786.53 532.57 782.34 529.42 781.61 525.84 779.83 524.54 779.36 523.69 778.04 522.71 778.29 522.01 779.06 520.65 779.34 519.55 779.9 519.24 780.83 518.17 781.02 517.05 783.73 516.02 785.3 515.44 787.89 514.9 789.49 513.4 794.69 513.73 796.52 509.82 799.53 510.22 803.14 509.09 806.31 509.01 807.74 508.15 809.74 508.91 811.24 508.31 812.94 510.76 813.97 510.57 817.88 510.21 819.04 508.72 820.37 508.45 822.58 510.54 824.87 511.82 830.11 502.87 829.38 495.19 828.47 493.98 828.94 490.79 829.76 488.68 829.36 484.02 834.38 483.24 834.57 478.11 835.31 477.04 836.03 475.03 835.96 469.5 833.81 466.79 834.59 465.82 834.18 465.36 833.07 463.48 831.87 462.14 830.66 460.75 830.82 459.07 830 458.21 828.42 456.69 827.43 452.83 831.21 451.01 832.85 443.72 836.01 442.21 837.21 438.54 838.8 434.09 843.97 432.3 842.33 431.8 842.94 428.21 842.94 427.63 843.32 425.74 842.11 425.23 841.25 423.55 841.35 422.65 840.88 421.32 837.63 419.7 836.31 416.78 835.56 412.85 838.08 411.92 839.52 409.95 839.34 408.07 837.54 404.18 835.03 404.42 833.01 404.3 832.06 402.61 831.49 401.36 830.22 401.59 829.17 400.12 827.45 399.69 824.8 399.42 824.53 396.81 825.34 395.2 821.36 393.28 822.52 392.45 824.15 391.37 825.77 391.15 826.69 389.43 827.2 387.9 826.71 388.21 824.45 387.3 822.86 383.45 818.07 382.83 818.27 380.2 818.19 380.66 817.39 380.08 816.53 377.83 816.56 377.13 815.51 376.2 812.86 375.9 813.15 371.42 812.98 370.95 813.91 369.29 813.9 366.87 812.36 362.36 816.1 361.35 816.81 360.8 817.94 359.25 819.17 358.19 820.37 357.54 822.82 354.3 824.87 353.69 825.68 352.86 828.08 350.76 831.35 349.33 832.03 348.65 833.02 346.86 832.38 345.07 832.48 342.3 832.17 341.48 832.93 339.65 835.71 338.24 836.92 338.89 838.38 338.54 840.24 334.2 839.78 333.86 838.74 332.43 836.99 332.63 835.03 331.56 834.42 331.02 833.57 329.35 827.27 326.54 825.88 323.62 821.87 322.4 819.65 318.63 817.36 315.57 812.48 315.04 811.89 313.75 811.73 311.7 810.84 309.76 809.02 308.03 806.53 307.87 805.83 308.68 804.72 308.93 802.43 306.7 800.94 305.7 799.39 303.61 798.27 301.82 800.28 300.33 800.57 298.96 800.36 297.41 799.14 295.85 799.2 294.24 798.01 292.16 797.73 290.39 796.58 288.75 796.49 287.57 797.41 286.23 797.46 286.05 798.36 284.38 797.74 280.22 797.35 278.22 797.48 276 798.1 274.46 797.78 272.61 797.84 269.78 799.11 268.42 802.14 267.43 803 264.98 802.97 263.94 802.75 263.19 802.16 259.86 800.88 258.54 799.88 256.53 799.82 255.7 802.6 254.95 803.79 254.29 805.6 253.21 807.23 250.18 810.07 243.39 815.94 243.16 816.76 240.36 818.9 236.84 820.59 234.7 822.02 231.96 824.16 230.83 825.22 228.44 828.39 226.51 830.27 219.55 835.34 216.29 838.31 213.33 841.71 213.18 842.11 210.54 844.44 209.63 846.33 209.3 848.27 210.57 849.14 210.92 850.33 211.91 851.66 212.63 855.09 212.96 857.87 212.78 861.99 215.87 865.39 213.53 867.95 213.2 869.45 212.94 872.06 211.56 876.23 205.95 876.43 205.29 878.25 204.55 881 201.07 879.55 198.6 878.14 194.87 877.01 189.92 874.02 188.42 873.76 186.63 872.03 185.77 872.23 183.44 873.31 181.74 873.25 180.28 873.49 178.78 872.89 176.65 872.97 175.13 873.37 174.43 874.27 173.32 874.76 172.15 874.82 171.37 875.42 170.48 875.07 168.31 876.17 166.59 878.3 164.42 877.9 162.4 877.75 159.5 877.01 158.14 875.1 156.06 875.51 153.07 874.13 151.69 874.91 149.88 874.79 146.98 874.18 140.62 875.4 139.61 875.23 137.24 870.65 136.38 866.9 136.29 865.25 136.99 862.28 136.62 857.69 134.54 856.78 132.1 854.42 130.22 853.14 131.47 850.02 129.73 848.1 129.46 847.28 129.74 845.99 131.4 844.07 131.62 840.76 132.58 839.06 132.64 837.41 132.11 833.81 133.07 832.37 130.08 829.79 126.91 824.13 125.44 823.02 125.28 822.23 123.63 820.8 125.12 816.48 124.78 814.63 123.54 813.84 120.02 810.43 117.93 808.56 116.71 808.06 116.85 807.47 116.67 804.58 116.36 802.75 116.26 800.71 117.74 799.3 117.69 797.53 116.44 794.71 116.92 793.32 116.84 792.32 117.25 791.41 116.48 789.88 115.48 787.08 112.33 782.73 110.65 780.8 109.21 778.33 108.42 776.14 107.87 771.88 107.24 769.7 105.33 759.81 103.02 760.54 101.82 760.07 99.43 760.01 98.23 760.18 97.2 759.91 96.39 758.83 93.86 758.46 92.02 759.15 90.39 759.02 88.04 759.74 86.01 759.26 85.12 759.28 82.67 760.21 79.71 758.71 78.08 759.01 75.48 758.4 73.89 756.79 73.06 755.21 70.13 751.38 68.61 750.93 65.86 747.9 63.43 744.7 61.45 744.67 60.92 744.22 60.57 743.48 59.43 738.92 57.38 733.59 58.05 731.34 57.3 730.5 57.52 729.13 57.31 726.64 58.85 725.29 59.3 723.22 58.55 722.35 57.6 722.1 57.8 721.32 58.87 720.84 60.01 719.78 60.77 718.4 61.15 716.23 58.87 715.81 57.27 716.08 52.97 717.6 52.01 717.08 50.8 717.1 44.86 714.43 42.72 712.6 41.6 713.41 40.61 714.53 37.94 715.26 37.54 715.88 36.28 716.67 35.73 718.79 34.39 718.05 33.31 718.72 31.75 723.15 30.7 724.28 30.93 725.24 30.58 726.72 31.58 727.84 30.66 728.82 29.3 730.99 28.77 730.65 28.19 728.11 27.61 726.7 26.29 724.67 27.33 723.23 27.43 721.77 26.8 719.81 25.6 718.14 27.92 716.65 29.51 716.74 30.22 715.98 32.4 715.19 32.69 713.76 33.9 713.34 34.45 711.12 35.85 711.51 35.32 710.02 37.42 705.23 36.95 703.02 37 700.68 35.84 699.36 33.89 696.47 33.03 695.54 34.63 694.66 38.89 694.63 38.82 693.37 39.85 691.86 39.1 690.05 40.48 687.97 39.81 686.5 43.43 686.49 44.08 685.09 45.28 684.26 46.68 684.46 48.7 683.37 49.66 680.2 50.86 677.89 51.92 676.98 55.21 677.39 56.94 676.85 60.94 674.89 62.36 675.88 63.66 676.06 64.42 677.05 69.16 678.46 76.14 680.79 77.26 677.96 77.24 676.82 77.66 673.48 77.03 669.26 76.26 667.28 74.5 664.78 73.58 664.13 68.93 661.42 64.39 658.62 60.43 654.79 57.42 652.77 54.72 651.81 51.92 651.49 49.72 651.09 47.66 651.03 45.67 650.4 43.69 649.43 41.4 648.73 39.45 647.85 36.75 645.89 34.97 644.93 30.81 642.18 26.8 639.05 24.57 637.86 22.73 637.15 17.16 637.13 14.5 636.92 10.01 635.82 7.65 634.74 5.62 633.46 3.86 632.11 2.98 630.12 3.77 625.16 4.92 620.01 5.28 616.92 5.75 615.01 7.28 611.97 9.33 608.76 11.5 606.99 13.02 604.77 14.5 601.4 15.84 597.02 17.36 591.08 17.97 589.06 20.51 585.51 21.87 584.43 21.04 583.21 21.5 582.66 20.73 579.42 21.09 577.48 20.25 577.2 19.29 576.07 16.99 575 14.83 572.06 14.87 570.62 13.97 568.09 14.09 566.83 13.61 564.72 14.24 563.47 14.01 560.71 12.32 559.28 10.6 560.01 9.61 559.92 9.68 557.8 7.27 554.63 3.96 551.69 4.05 549.25 2.04 546.88 2.26 544.27 1.53 543.35 1 540.51 1.93 538.89 1.34 537.76 1.08 536.13 3.02 534.84 5.3 532.52 7.02 531.56 8.31 529.79 10.56 529.6 12.54 528.85 13.83 529.25 15.37 528.73 17.08 529.17 19.62 530.78 23.6 528.66 24.44 529.09 27.25 527.78 28.4 527.64 30.59 528.19 31.25 528.04 32.5 526.38 33.65 525.77 35.36 525.73 37.15 522.99 38.71 523.07 39.59 522.67 41.84 520.57 45.02 520.37 45.55 516.31 45.99 514.08 45.75 513.64 47.13 511.13 47.39 508.51 49.68 506.38 50.04 504.48 47.75 501.09 46.27 499.98 46.25 498.95 44.7 496.7 43.59 496.07 43.02 495.15 42.75 493.45 42.12 492.96 40.53 488.91 41.77 488.47 40.87 486.11 40.08 484.97 40.47 482.94 39.77 482.35 39.13 480.93 30.21 471.82 29.65 468.12 28.3 466.5 25.21 463.88 23.57 463.74 22.17 458.38 19.34 457.36 17.56 452.91 17.97 451.7 17.36 450.02 17.32 448.64 18.28 442.77 18.34 441.04 19.23 440.04 19.56 438.67 20.16 438.24 20.42 437.26 20.28 435.94 23.46 432.87 28.07 433.84 29.1 434.36 32.8 434.45 36.02 437.19 39.42 437.92 43.87 440.44 45.56 440.97 48.48 440.86 52.44 439.11 54.93 436.63 57.86 432.91 57.89 430.36 62.34 427.02 65.04 426.43 67.12 424.81 70.03 426.67 71.04 426.46 71.66 422.76 72.86 419.94 72.01 418.34 73.9 416.68 75.28 416.37 77.54 413.64 77.89 410.2 79.8 409.09 82.13 407.19 80.64 406.57 80.45 402.81 80.87 399.33 83.23 401.25 86.23 400.85 88.34 400.21 89.57 399.22 91.54 394.45 93.74 393.49 93.99 391.35 97.8 395.45 99.23 395.29 100.86 393.59 101.76 392.98 103.51 390.42 105.43 390.24 107.57 385.97 109.55 383.83 111.48 381.49 110.31 379.02 111.79 377.39 113.89 374.23 111.74 372.91 112.41 370.77 112.16 369.07 113.87 366.67 114.27 366.63 115.93 364.31 119.23 362.89 119.24 362.16 118.52 361.35 118.3 360.1 116.94 356.87 116.07 355.16 115.13 354.53 115.04 353.81 112.54 352.59 110.93 351.11 111.07 350.39 110.58 348.72 111.38 347.64 111.64 345.93 110.34 344.71 109.8 343.85 108.56 342.89 107.73 340.75 106.15 338.94 104.78 337.96 104.06 336.8 102.77 336.94 100.52 333.88 99.24 332.67 101.9 329.42 104.15 329.05 103.12 322.41 105.52 320.1 105.07 319.11 104.37 316.45 106.1 315.18 106.69 313.78 107.47 313.28 109.53 311.35 109.36 308.99 109.58 305.45 109.54 301.84 108.02 298.3 106.6 296.48 103.58 295.64 100.09 294 98.94 289.45 98.47 288.24 97.96 285.62 98.39 283.46 97.96 280.82 98.17 277.93 99.22 275.87 96.49 274.77 93.76 272.74 93.79 270.63 95.94 266.56 97.07 264.22 95.76 259.26 96.22 254.42 95.12 252.18 94.93 249.77 95.13 248.23 94.77 247.21 93.32 245.45 95.22 243.59 95.88 240.95 99.97 240.2 101.77 239.25 105.98 239.45 107.75 236 108.02 230.27 107.45 227.78 109.95 225.31 114.59 221.79 116.48 218.58 118.71 215.05 124.55 212.21 124.22 210.92 123.05 210.52 122.26 202.83 121.85 200.03 122.64 195.79 123.66 194.29 125.73 192.74 124.69 191.55 124.82 187.93 127.55 181.03 126.17 178.56 125.69 176.99 125.85 174.51 126.41 173.93 126.93 171.48 126.72 169.88 125.6 167.92 125.33 166.98 126.49 165.7 127.56 163.35 127.94 163.09 129.12 164.03 131.42 163.99 132.86 163.09 134.51 163.24 133.78 160.26 135.22 158.96 137.9 157.12 140.03 156.26 141.04 157.25 142.39 156.21 143.6 154.84 144.13 153.63 145.59 153.53 145.76 153.97 149.61 152.74 154.03 147.89 157.43 146.74 158.64 146.47 161.15 146.79 163.12 146 165.04 147.11 165.98 147.94 167.48 147.81 169.12 148.22 171.07 149.55 171.29 150.02 174.92 148.65 176.89 146.95 179.47 146.02 180.16 145.26 181.04 143.36 180.85 139.65 187.05 133.33 188.41 131.51 190.66 130.86 191.63 128.3 193.82 127.24 194.89 126.16 196.15 126.04 197.14 125.01 199.06 122.42 201.51 122.36 206.03 121.14 206.92 120.1 207.74 117.55 208.41 116.72 209.03 116.84 210.41 115.8 211.23 115.51 212.41 113.27 213.56 112.22 215.35 112.04 217.62 112.92 219.53 115.96 220.81 116 221.96 116.84 223.27 117.14 231.29 117.49 233.28 118.07 235.99 120.79 236.78 122.59 238.38 124.15 236.81 126.34 237.78 130.29 240.91 131.34 244.12 133.87 246.73 134.25 249.03 133.52 251.28 134.92 255.81 134.92 257.52 135.05 257.88 135.56 258.12 137.64 259.31 138.35 259.44 139.53 259.92 140.05 259.1 144.5 262.38 146.38 266.64 146.21 269.38 147.74 274.26 149.71 277.08 150.61 278.4 151.95 278.31 154.89 279.96 157.76 280.2 162.22 279.26 164.42 278.19 170.8 277.4 172.88 277.31 174.95 278.68 176.92 281.12 178.94 282.38 187.22 284.22 188.91 286.49 189.99 288.76 188.37 292 187.31 293.9 186.83 295.7 186.61 297.82 187.18 305.06 186.99 308.53 184.28 313.94 183.33 315.85 182.58 318.59 182.33 322.04 186.26 323.68 186.69 326.32 190.92 329.4 192.55 333.34 196.63 337.45 202.26 340.22 203.8 341.83 203.31 345.24 204.96 346.5 205.42 346.94 208.63 349.19 212.69 353.1 215.71 353.98 217.78 357.28 220.44 359.4 225.54 359 227.92 359.62 231.76 359.32 235.21 357.49 236.9 356.78 238.94 354.89 243.24 358.32 244.92 359.24 246.71 360.91 245.75 362.98 244.88 365.77 245.51 369.84 246.64 372.24 245.11 374.46 244.36 375.72 242.93 377.47 241.72 378.71 240.08 379.74 240.19 381.66 239.65 384.26 240.31 385.31 240.84 386.24 239.75 388.86 237.61 390.1 236.99 392.68 237.82 394.62 238.1 394.56 236.25 395.86 235.49 398.43 235.07 399 234.13 398.91 231.51 397.9 228.47 398.7 226.76 395.29 222.13 394.87 219.87 393.1 218.76 392.02 217.66 392.01 216.54 392.4 214.21 392.37 213.07 391.16 210.97 391.06 208.68 392.6 207.48 392.51 201.7 391.71 195.92 391.39 195.07 390.34 194.63 390.92 192.79 389.04 189.04 389.11 188.37 388.13 187.62 387.2 186.27 385.31 184.74 384.23 182.73 384.48 180.85 383.75 179.33 383.16 177.48 383.47 173.79 382.94 173.09 381.67 170.48 380.32 168.57 378.99 166.13 382.96 160.82 382.52 157.27 380.38 152.77 386.42 148.88 386.99 147.86 388.88 146.6 389.07 144.49 389.94 140.65 391.32 138.62 390.93 137.36 392.29 133.03 390.14 128.95 391.07 127.04 391.2 125.3 390.19 123.84 385.14 121.74 384.35 120.82 382.98 120.63 380.53 118.17 382.06 116.67 382.08 116.06 381.39 112.85 380.84 112.05 380.97 109.8 381.58 108.17 382.32 107.56 382.93 105 385.13 102.58 385.28 100.83 382.73 98.26 382.28 95.93 380.59 94.97 379.83 93.79 377.49 91.91 374.63 90.86 374.35 87.88 373.44 87.71 371.9 84.49 370.28 84.19 368.84 82.67 367.81 79.88 369.63 78.06 369.79 76.12 368.88 74.98 369.88 73.16 366.6 69.98 366.57 63.74 365.55 60.92 369.53 54.59 370.08 51.01 371.79 48.79 377.33 46.15 380.21 45.92 381.06 43.91 381.09 41.21 381.82 40.09 384.93 34.47 386.72 32.15 389.4 32.59 391.21 30.68 394.81 28.4 398.91 27.49 399.83 25.32 402.94 23.5 404.11 21.36 407.37 17.49 408.04 13.84 408.22 11.97 408.02 9.65 409.92 4.93 410.82 3.34 413.37 2.01 416.46 1.07 419.06 1.43 425.33 1.17 425.39 1 427.66 6.06 427.62 10.8 422.06 14.16 420.59 15.36 419.45 15.69 417.76 17.8 417.56 19.17 416.15 19.86 414.95 22.26 413.31 24.11 413 25.76 412.41 26.46 412.68 27.72 411.73 31.48 412.49 33.55 411.8 35.08 411.56 37.21 412.55 38.41 412.26 41.19 411.91 42.11 412.27 43.1 413.11 43.4 414.35 44.46 415.71 46.62 416.19 48.38 418.53 51.85 419.11 53.18 420.9 53.91 421.83 54.81 422.37 56.24 423.38 56.31 424.14 57.01 425.15 58.52 426.44 59.01 428.12 60.8 431.85 63.11 433.24 64.99 433.72 66.83 434.51 68.33 435.52 69.48 435.81 70.6 435.37 71.94 435.7 74.52 435.99 75 435.9 76.7 436.77 79.78 437.38 80.56 438.71 83.61 438.77 85.4 440.11 88.05 441.14 89.63 441.86 90.25 443.36 93.38 445.97 94.9 446.75 95.54 447.48 97.04 446.7 100.72 446.85 102.3 447.99 105.14 448.5 107.36 447.42 111.18 447.65 112.94 448.73 114.29 449.44 115.63 450.64 117.02 451.23 118.21 452.79 119.69 454.29 119.22 456.77 119.42 458.33 119.36 458.89 119.8 459.62 121.62 460.26 122.6 462 123.74 462.9 126.4 462.63 128.97 461.36 130.45 460.72 131.62 460.5 133.19 462.2 136.54 463.47 138.03 465.75 139.1 466.27 140.89 466.58 145.33 467.01 147.03 468.12 150.18 469.17 152.02 469.71 153.37 471.17 154.98 471.86 156.82 473.65 160.56 474.28 163.15 474.91 164.3 475.48 166.41 475.15 168.08 474.37 169.97 472.39 171.32 471.14 172.56 470.1 174.73 469.59 176.83 471.18 180.53 472.15 184.96 472.56 188.45 472.42 192.45 471.78 193.9 471.75 195.85 471.46 199.3 469.75 199.73 469.48 201.01 469.96 203.98 471.42 206.34 472.08 208.83 473.58 210.08 475.8 213.06 477.43 215.02 477.61 218.77 476.26 219.82 473.62 221.21 474.06 224.82 473.18 226.4 473.41 228.11 472 232.32 472.3 234.96 472.48 238.52 472.77 240.94 469.88 242.74 468.7 245.81 467.49 246.97 466.14 247.18 464.67 249.79 463.53 250.91 463.56 251.42 465.78 252.54 469.61 253.97 471.57 255.11 473.16 256.54 474.97 258.86 475.95 259.47 478.86 260.02 480.6 260.93 484.69 262.81 486.02 263.32 487.04 263.08 488.42 262.27 491.48 259.94 495.21 257.48 496.66 256.92 498.76 256.6 500.89 256.52 502.32 256.81 504.53 257.56 506.2 258.83 507.44 260.18 510.53 263.18 513.69 265.65 516.44 267.11 518.03 267.22 519.78 267.83 520.42 269.19 522.03 271.16 524.59 275.17 526.56 276.11 527.65 277.62 528.32 277.01 529.75 278.85 530.52 278.34 532.13 280.07 531.78 280.37 533.08 281.69 533.62 283.2 534.8 284.87 535.64 286.71 535.83 289.92 536.14 291.57 537.95 294.92 539.6 296.77 540.12 297.76 541.07 301.6 541.37 304 542.33 309.55 542.47 312.12 543.24 315.82 543.86 316.96 545.86 319.35 548 320.98 550.06 322.36 553.13 323.87 553.79 323.52 557.86 320.06 559.76 318.67 560.57 317.61 561.84 316.59 564.54 315.33 566.26 314.73 569.19 312.8 571.26 312.03 573.53 311.9 577.82 311.02 578.92 311.06 580.53 312.3 581.44 312.34 588.37 310.9 592.71 311.14 594.45 310.9 595.96 310.94 599.17 309.35 601.91 308.29 603.89 306.74 607.82 306.04 609.21 305.53 611.12 305.76 613.62 305.13 614.48 304.31 614.94 301.89 617.79 300.72 619.05 300.63 620.38 300.98 622.59 302.16 624.47 301.9 625.87 302.91 628.04 304.98 629.49 305.23 630.76 306.69 630.59 309.2 631.93 310.57 632.1 311.66 631.22 313.65 632.16 316.23 632.49 317.82 633.21 318.05 633.65 319.48 634.67 320.48 635.4 322.26 635.83 324.01 636.96 324.88 641.55 324.35 642.59 320.91 643.39 319.44 643.49 318.48 647.14 318.27 648.33 318.06 651.23 316.95 653.04 316.48 656.61 316.95 658.45 316.06 659.92 315.07 662.06 315.27 663.97 315.91 664.7 314.82 666.17 313.45 667.42 315.77 667.72 318.22 668.63 319.16 668.73 321.12 669.61 323.48 668.96 324.16 668.93 325.53 667.93 327.63 668.11 328.41 667.43 329.25 668.05 331.64 667.59 335.19 668.13 336.03 668.27 337.24 667.57 339.01 667.4 341.91 670.38 342.22 673.82 341.69 676.9 340.84 681.22 340.69 682.21 339.08 685.1 340.54 687.93 338.72 688.52 337.93 689.45 338.14 691.21 339.18 691.68 341.52 696.62 343.97 697.54 346.33 698.18 346.31 700.09 348.62 700.88 350.06 708.3 348.89 711.77 347 714.21 347.7 715.43 350.12 716.32 351.13 716.88 352.82 718.6 353.22 720.86 354.99 725.83 357.28 727.51 359.01 730.45 360.71 735.84 361.66 739.76 366.14 740.3 367.9 745.01 368.88 753.13 374.41 758.65 377.49 764.35 379.44 773.83 377.92 780.71 374.97 782.38 380.67 784.39 383.97 787.71 386.97 789.61 390.23 790.7 395.69 788.47 397.79 785.67 403.25 786.29 405.5 785.83 408.24 787.66 411.67 789.39 413.87 791.73 414.7 793.52 416.83 795.34 418.75 796.52 423.88 796.63 427.45 799 429.95 Z" id="35550000"/>
</g>
</svg>