<?xml version="1.0"?>
<svg xmlns="http://www.w3.org/2000/svg" version="1.2" baseProfile="tiny" width="800" height="762" viewBox="0 0 800 762" stroke-linecap="round" stroke-linejoin="round">
<g id="sigung">
<path d="M 7.47 368.97 6.8 370.6 6.26 369.19 7.47 368.97 Z M 165.88 159.57 165.45 159.44 165.42 157.33 166.12 157.4 166.37 158.89 165.88 159.57 Z M 168.27 154.8 167.61 154.72 167.17 153.56 167.27 152.06 168.22 151.06 168.27 154.8 Z M 191.06 127.45 190.95 128.61 190.38 128.74 187.93 127.55 186.78 127.55 185.86 128 185.59 128.87 183.92 128.49 181.14 129.72 180.26 129.83 178.33 131.11 177.22 132.84 174.55 136.15 172.67 137.48 171.84 137.21 171.42 139.75 170.56 138.32 170.41 137.15 170.89 135.54 172.61 133.45 175.92 130.59 176.79 130.18 178.77 128.57 182.6 126.62 185.64 125.68 188.06 125.51 190.71 126.48 191.06 127.45 Z M 156.55 123.14 155.81 125.57 153.95 127.03 153.55 125.86 153.74 124.09 154.47 123.34 155.04 123.87 156.55 123.14 Z M 134.73 88.36 134.46 89.78 135.35 91.16 137.04 91.13 137.44 91.51 140.24 92.54 141.09 93.71 143.33 93.64 143.95 94.21 144.14 95.34 142.36 96.93 141.76 99.01 141.85 100.32 141.38 101.88 139.34 102.18 138.2 102.56 137.91 104.12 136.92 103.48 136 104.24 135.98 104.34 136.1 104.83 136.38 105.11 136.44 105.36 136.55 105.47 136.68 105.44 136.87 105.58 136.76 106.36 137.45 106.44 138.16 107.61 138.07 109.73 138.43 110.78 143 110.85 144.35 111.4 139.55 111.24 137.92 111.45 138.51 112.93 139.46 113 139.37 113.88 140.62 115.5 139.51 115.6 138.76 116.14 138.03 115.82 138.07 115.02 135.7 114.2 134.23 114.18 133.04 113.27 131.79 113.31 131.21 112.93 130.09 110.6 129.98 109.5 130.77 109.41 131.7 108.47 133.1 108.77 134.05 108.29 135.73 108.06 136.55 105.48 136.43 105.38 136.38 105.27 136.37 105.11 136.14 104.9 136.05 104.75 135.59 103.72 133.96 102.86 133.17 103.01 132.43 102.21 131.79 100.91 129.73 99.5 128.49 99.53 127.56 99.91 126.89 99.16 127.36 98.18 126.76 97.7 127.03 96.73 126.55 96.04 125.6 96.2 125.11 95.68 125.66 94.92 126.67 94.58 128.48 95.51 129.31 95.42 130.2 96.22 130.59 95.43 131.78 94.67 131.78 93.96 132.69 92.97 131.75 91.48 132.12 90.26 133.62 88.28 134.73 88.36 Z M 31.89 81.56 32.73 82.11 33.7 84.21 31.66 83.93 31.07 81.68 31.89 81.56 Z M 39.36 78.83 41.67 79.31 44.36 79.14 45.91 80.66 46.52 79.38 47.36 79.17 48.1 80.67 47.73 83.29 48.19 85.66 47.63 86.93 46.34 87.24 45.03 85.99 43.59 85.84 42.94 84.87 41.87 84.1 41.3 83.12 40.52 82.8 38.6 82.81 39.36 78.83 Z M 378.17 7 380.65 8.08 381.11 9.44 380.4 11.08 381.29 13.62 380.06 14.61 373.44 17 372.84 16.47 372.34 13.95 374.9 11.84 374.51 6.87 374.85 5.11 374.73 2.28 375.61 2.42 375.91 3.96 376.56 4.93 376.61 5.79 378.17 7 Z M 570.1 14.38 570.59 15.02 572.04 14.27 572.06 13.74 578.13 10.3 579.73 8.99 580.53 8.86 582.68 9.74 585.75 12.76 586.18 10.48 587.83 10.66 588.46 11.16 592.29 12.17 593.47 11.99 595.85 14.03 596.96 14.21 598.36 15 599.63 14.94 600.62 15.73 602.75 15.38 605 15.37 607.55 15.8 610.74 15.68 613.14 15.84 614.37 15.3 614.57 13.99 615.87 12.15 615.69 11.11 617.78 11.02 619.84 11.78 622.22 11.66 624.47 13.1 625.32 15.01 626.56 16.51 627.92 16.12 627.67 15.31 628.12 13.46 628.22 11.73 629.2 9.99 630.99 7.48 632.68 5.39 636.55 2.04 640.44 1.18 642.68 1.07 644.69 1.58 648.03 3.05 650.83 3.15 650.98 4.55 652.2 5.19 654.43 5.79 654.91 4.17 656.22 4.25 656.88 4.73 658.66 4.77 659.79 5.11 660.72 5.93 661.65 5.13 664.44 5.82 666.16 5.82 668.45 6.63 671.22 6.28 670.75 5.17 672.14 5.46 673.37 5.59 674.38 7.48 683.7 7.65 683.8 2.19 685.47 2.23 685.37 7.68 693.87 7.84 694.28 7.76 693.58 11.66 694.58 12.82 695.48 12.98 696.83 12.45 700.69 12.71 702.48 13.92 705.94 15.19 706.78 15.14 710.84 17.59 712.51 18.15 714.53 19.14 715.46 18.08 717.95 16.72 718.88 16.81 721.09 19.28 722.03 18.4 723.69 16.15 723.77 15.22 724.75 12.1 724.31 10.45 725.31 10.39 726.08 10.85 728.27 13.18 728.48 14.27 730.07 13.71 732.01 14.79 731.81 15.87 732.14 17.19 733.38 16.95 734.15 16.37 736.91 15.34 738.53 13.7 741.99 13.17 743.06 13.31 745 12.18 749.07 10.07 750.43 10.16 752.73 6.12 757.18 6.42 757.17 6.15 754.98 4 754.44 2.76 754.53 1.94 757.86 5.78 758.82 6.56 760.55 5.04 765.73 10.89 767.54 9.27 770.29 10.65 769.51 11.37 776.54 19.29 775.68 19.95 777.49 21.88 777.38 23.65 779.77 27.52 781.44 29.27 782.25 31.73 783.77 34.29 785.23 34.84 786.47 36.81 787.42 39.39 788.33 40.48 787.65 41.56 788.13 42.85 784.81 42.64 784.64 45.1 787.31 45.25 787.25 46.16 784.51 46 784.46 46.83 781.87 46.67 781.77 48.59 782.21 49.44 781.32 49.95 780.8 51.15 779.04 52.47 778.06 52.91 776.69 52.18 776.01 52.45 775.32 55.03 773.07 56.35 773.25 57.33 774.42 58.43 775.5 60.56 774.6 60.93 775.01 62.02 776.44 63.42 777.98 64.41 778.66 66.2 779.04 68.54 779.68 69.71 779.93 71.08 781.12 72.76 779.78 76.01 778.01 78.96 776.26 80.97 775.79 80.91 774.21 82.41 772.77 83.32 771.9 85.05 772.29 88 771.39 89.2 772.16 90.14 773.18 93.46 773.03 94.33 771.56 96.77 771.5 98.82 771.73 99.74 773.72 103.27 773.6 104.62 772.9 105.98 772.86 107.3 771.74 108.06 772.05 110.18 771.35 110.57 770.66 111.8 771.12 115.52 769.45 117.57 771.73 117.73 772.96 118.13 775 118.16 777.42 116.78 778.64 116.46 778.49 117.99 776.48 119.92 775.77 122.13 775.24 122.92 776.47 124.29 776.57 125.58 778.45 126.95 781.9 126.55 782.86 125.77 783.31 126.33 783.32 127.81 783.86 128.85 785.15 130.49 786.4 132.71 784.34 134.23 786.59 137.21 787.9 136.24 788.82 137.49 790.12 137.44 792.2 138.56 794.45 140.53 795.88 141.42 796.63 143.24 797.09 143.65 799 142.58 798.86 144.67 798.56 145.83 795.34 146.66 791.49 148.23 790.63 150.22 789.58 150.58 788.82 151.3 786.7 151.67 785.24 152.95 784.23 152.74 782.01 153.22 781.52 154.06 781.51 155.23 780.01 156.56 778.87 156.91 777.22 156.92 776.14 157.8 775.06 157.92 774.16 158.52 773.49 159.46 771.42 160.23 770.17 161.57 768.87 162.18 766.13 165.34 766.12 167.25 765.77 169.96 765.13 171.42 767.35 172.15 766.51 174.72 768.96 175.53 766.36 177.97 766.49 178.36 768.42 179.97 769.79 180.56 771.25 180.68 772.49 182.09 774.08 182.74 775.37 182.65 777.01 183.03 777.86 182.94 779.08 183.86 780.33 184.25 782.5 183.53 786.17 183.69 786.94 184.8 787.69 185.11 789.18 184.68 789.69 187.21 790.81 188.12 790.73 190.16 791.29 190.79 790.86 192.34 789.78 193.61 788.7 196.14 787.38 198.37 786.2 199.89 784.85 202.74 783.71 203.29 783.18 204.51 785.17 206.66 785.1 209.45 785.41 214.06 785.08 216.7 785.75 219.93 784.76 220.09 784.34 221.58 783.26 222.91 782.09 223.39 780.22 224.97 779.31 226.64 778.62 227.22 777.47 227.38 776.46 228.46 776.47 229.59 778.16 230.69 778.67 232.89 779.61 234.34 779.4 235.42 780.47 241.63 781.21 242.61 781.35 245.07 781.76 246.7 781.94 248.97 783.65 250.62 785.35 251.41 787.37 253.38 788.87 255.98 788.9 256.97 789.93 258.6 789.46 260.49 790.09 266.28 791.51 269.72 792.45 275.07 792.26 278.05 792.59 278.48 792.88 281.68 793.8 283.74 795.11 285.88 795.88 289.55 795.92 291.54 796.21 293.32 795.41 294.49 795.11 298.38 793.83 299.47 792.48 299.64 791.26 300.29 787.29 300.22 784.76 300.41 783.01 301.05 781.64 300.43 777.57 300.67 776.78 301.72 773.14 302.8 771.52 304.71 769.42 307.71 765.25 311.22 762.86 312.7 761.35 313.88 760.18 315.97 759.63 317.98 758.38 321.1 757.56 324.81 756.23 328.24 755.77 330.6 756.35 331.96 752.8 333.42 749.23 336.21 746.4 339.91 743.21 342.88 742.47 344.21 739.22 346.32 735.54 345.16 732.54 344.49 730.94 344.68 726.59 341.05 723.18 339.63 721.05 342.37 718.1 346.5 715.67 349.28 716.17 352.09 718.61 353.69 719.54 354.88 721.84 358.63 722.61 358.94 723.98 361.85 725.02 364.71 725.62 367.75 727.51 370.01 729 372.26 729.48 373.78 737.07 374.64 737.87 375.45 739.4 375.91 740.2 376.89 742.02 378.15 746.76 386.22 747.42 387.1 747.77 389.4 745.91 391.37 746.58 392.65 746.13 396.47 747.48 400.34 748.48 402.33 749.51 404.92 749.47 405.64 748.54 406.89 748.99 409.4 747.87 410.93 747.91 411.93 747.3 413.74 747.8 416.44 746.98 419.14 746.75 422.06 746.82 423.6 747.99 425.57 749.42 427.53 750.05 428.9 753.23 431.61 753.68 433.41 751.96 434.18 752.7 436.87 752.67 438.63 752.91 440.98 748.65 440.48 746.39 440.85 745.21 441.52 744.48 441.34 743.03 441.63 740.36 443.49 738.91 445.5 737.92 447.51 736.6 451.83 734.82 454.49 734.88 454.98 732.78 457.33 732.25 458.27 732.19 459.32 730.72 461.29 730.83 462.44 727.57 463.03 726.85 462.76 724.46 463.26 723.93 464.99 723.13 465.41 719.67 468.35 717.38 468.79 715.29 470.09 713.69 471.92 713.83 474.31 715.33 475.87 713.26 477.28 711.9 477.24 709.87 477.74 708.76 478.34 706.9 478.32 702.43 479.45 702.29 480.46 700.76 482.3 697.91 483 695.53 482.87 694.4 483.26 692.78 484.91 687.24 484.19 684.22 484.9 680.64 486.8 679.94 489.17 679.87 491.45 682.02 493.6 684.43 495.02 687.05 494.45 689.21 494.17 689.94 494.54 690.64 496.05 691.37 496.9 692.98 498.13 695.9 501.1 696.89 501.63 696.81 505.76 697.7 506.75 697.56 509.16 698 511.42 698.2 514.31 697.16 516.85 697.94 517.72 699.49 518.04 700.48 519.95 700.7 521.87 700.62 523.62 701.6 525.76 701.95 527.35 702.61 533.36 701.29 535.42 701.13 538.21 699.65 540.66 700.37 541.47 700.72 542.87 700.76 544.66 701.12 546.17 700.18 547.7 700.88 548.77 700.46 550.86 698.53 553.56 696.22 555.84 694.97 556.25 692.84 558.95 692.48 559.15 691.48 561.77 690.52 562.53 689.75 566.7 688.93 567.36 686.01 570.33 685.52 571.89 684.45 572.65 683.46 574.13 682.78 574.35 682.18 575.88 680.98 577.33 680.45 578.63 679.12 579.09 676.99 581.17 675.47 581.17 674.45 581.92 674.12 583.15 673.28 583.81 670.21 584.01 667.52 584.8 662.97 584.55 661.77 583.85 660.6 584.44 658.77 584.24 657.62 585.62 655.38 585.49 653.87 585.95 650.86 585.32 650.7 582.89 649.05 583.32 647.26 584.38 646.72 583.82 645.65 583.88 643.59 584.82 639.76 583.32 638.65 587.28 638.11 588.07 637.15 593.3 637.02 596.11 635.54 601.63 635.41 605.04 633.64 607.5 633.28 611.21 631.58 612.61 631.01 618.34 629.2 620.92 628.25 622.76 627.64 625.05 627.69 626.44 624.06 625.73 621.92 626.23 618.46 624.17 613.59 621.68 611.5 621.06 610.53 621.27 608.95 622.88 608.37 626.04 607.19 626.44 604.26 628.56 600.75 631.63 599.65 633.28 596.98 639.29 596.55 641.14 593.82 638.61 591.68 637.69 590.12 636.55 589.84 634.85 588.85 633.14 585.14 632.47 581.74 630.28 580.37 629.68 578.57 630.6 575.34 629.44 574.33 628.74 571.95 628.98 570.85 628.36 569.79 627.1 568.7 626.29 565.62 624.69 562.24 622.76 561.65 622.01 559.46 620.92 552.8 620.93 552.12 623.3 547.84 630.21 548.64 633.84 548.06 634.91 548.1 636.96 542.13 637.59 538.24 641 538.12 642.59 538.62 643.89 538.31 644.41 538.66 645.83 538.45 646.55 540.13 649.13 540.14 650.91 539.63 651.63 539.75 653.04 538.1 653.64 536.77 654.71 536.03 655.91 537.03 658.11 536.16 662.35 535.43 663.68 537.06 667.91 532.72 667.63 530.45 671.03 529.17 672.5 528.34 675.09 527.36 676.84 524.02 683.87 523.38 684.33 521.34 687.07 519.08 689.29 516.68 688.75 513.43 686.1 512.86 685.77 511.1 686 508.44 684.7 505.78 685.79 504.26 687.26 502.22 688.32 504.76 690.23 507.23 693.21 508.26 695.05 508.3 696.19 507.46 700.03 506.6 700.88 504.24 704.64 503.23 708.81 502.26 708.2 501.81 707.33 499.77 706.67 498.92 706.67 497.75 706.06 496.39 705.85 494.4 706.38 493.14 706.28 490.48 705.63 488.26 706.23 485.94 706.06 483.98 706.12 480.27 707 478.67 706.54 475.61 707.04 470.36 706.96 469.12 706.69 468.35 705.96 466.02 704.57 464.94 704.85 463.86 704.45 462.96 704.56 461.17 704.05 460.68 702.65 458.77 701.37 457.97 699.58 456.43 699.88 454.54 699.92 453.53 699.05 451.43 697.67 449.04 696.54 446.52 696.81 444.79 695.55 444.25 693.39 443.76 692.65 441.74 691.44 441.06 689.49 438.97 688.71 439.04 686.77 436.71 684.31 435.1 684.26 433.9 683.74 432.12 683.94 428.1 680.89 425.84 678.7 423.15 677.29 422.1 676.94 421.17 676 418.76 674.33 417.77 672.25 415.65 670.26 414.01 669.29 412.87 667 412.17 666.16 411.68 664.63 410.63 664.66 410.45 665.3 407.17 667.37 406.46 667.08 405.7 667.53 404.74 671.75 403.72 673.06 402.3 676.13 400.56 676.94 399.88 678.36 398.14 678.73 396.96 679.68 395.02 679.61 391.25 681.57 390.91 682.61 389.1 682.7 387.32 680.51 384.23 678.2 381.2 678.4 378.33 680.03 376.34 679.93 373.88 679.54 371.95 677.66 367.16 679.38 364.8 681.36 363.9 682.39 363.03 684.79 362.78 688.45 362.04 689.5 361.02 692.41 360.9 693.8 359.82 694.77 356.97 696.81 357.63 698.43 358.53 699.37 360.21 704.78 360.75 705.54 361.53 709.52 361.91 710.56 363.32 712.83 361.53 713.93 360.63 714.79 359.24 714.69 358.53 715.42 358.57 716.74 360.27 717.75 362.38 719.55 363.55 718.88 364.53 717.93 367.09 714.98 370.06 714.06 371.65 713.88 373.06 714.64 374.9 713.97 375.94 714.04 377.22 714.62 376.97 716.9 375.91 719.53 375.75 722.16 375.26 723.49 375.28 724.66 377.21 730 379.79 732.82 379.52 733.56 378.48 733.32 377.35 733.62 375.55 733.33 375.86 734.92 374.86 736.38 375.32 739.9 374.92 740.81 375.11 743.55 374.05 745.6 373.73 747.84 372.34 748.99 370.42 752.62 368.28 755.25 368.99 756.89 368.32 758.96 367.64 759.55 366.71 761 364.56 759.1 364 759.24 362.9 758.5 361.38 756.78 360.85 755.78 361.36 755.11 358.65 753.17 357.47 754.21 356.21 754.83 353.77 754.64 352.51 754.24 349.47 752.35 346.81 749.53 346.51 748.52 346.83 747.62 346.19 744.76 344.74 743.19 342.31 741.69 341.41 740.31 341.14 738.82 340.17 736.61 339.04 734.89 337.35 734.87 336.35 734.48 335.15 733.57 333.89 733.44 332.3 732.78 329.11 731.79 327.54 731.92 326.14 732.58 323.79 734.9 322.46 735.18 320.22 735.13 318.98 736.96 318.99 737.81 317.38 737.34 317.04 735.94 316.19 734.58 313.45 732.52 313.05 730.5 312.08 730.22 308.98 730.9 308.01 730.75 305.01 730.74 305.06 730.31 303.78 729.15 301.71 728.18 300.58 727.89 297.17 728.99 295.54 729.25 294.47 729.1 291.87 727.79 291.29 725.28 289.85 724.88 286.18 725.71 283.13 725.41 281.51 726.91 281.23 727.99 279.28 730.27 278.12 731.24 275.46 732.79 273.75 734.87 272.29 735.5 270.68 735.43 265.69 734.13 264.11 733.19 263.17 733.22 262.26 734.02 260.57 736.92 258.83 737.74 257.28 737.52 255.73 737.95 254.27 738.66 252.81 739.7 252.06 740.81 251.32 742.51 250.53 743.18 249.28 743.47 248.44 743.12 247.06 743.93 245.85 742.62 242.66 740 241.27 738.4 241.05 736.92 242.16 734.76 241.83 733.01 240.25 732.25 239.61 730.82 241.47 729.27 241.68 728.46 240.7 727.73 234.34 727.12 231.45 725.83 230.63 724.37 229.07 725.1 228.87 724.07 229.16 722.61 227.48 721.57 227.86 720.81 226.59 719.69 228.08 717.3 227.33 715.79 227.18 713.17 226.11 710.92 226.56 710.21 226.05 707.55 226.31 705.65 225.89 703.96 225.22 702.98 223.86 701.91 224.03 700.44 222.88 698.12 222.65 697.01 221.91 695.74 221.55 692.78 220.96 692.23 218.71 692.27 216.93 690.75 215.35 689.78 214.15 691.72 213.5 691.44 210.3 689.32 205.62 687.19 205.11 685.15 205.02 682.87 204.35 680.56 209.37 680.67 210.68 675.64 211.63 673.16 212.58 671.6 213.7 667.7 213.38 664.35 212.6 662.7 212.89 659.97 212.85 657.26 213.06 655.53 214.06 653.82 215.01 651.31 215.69 651.18 216.74 648.5 217.7 647.93 217.4 647.1 217.67 645.59 217.38 644.28 216.72 643.36 217.46 642.64 219.31 643.57 218.11 638.07 218.33 635.3 218.64 634.25 219.81 632.86 220.49 630.91 220.77 628.28 220.47 626.81 219.48 624.96 218.03 623.53 216.86 622.88 214.88 621.2 213.42 620.82 212.21 618.28 210.53 615.55 209.53 612.39 208.57 610.78 208.31 609.68 206.5 606.35 205.74 605.75 205.63 603.61 205.23 602.4 204.12 601.06 203.73 598.03 203.97 596.37 203.26 590.2 200.36 591.11 199.57 590.58 197.21 590.18 194.96 590.46 192.98 591.22 190.25 593.3 189.3 594.2 188.12 594.72 187.6 596.09 186.6 597.08 184.48 597.88 182.75 599.45 181.19 601.46 180.56 603.11 178.47 606.77 177.7 607.48 174.53 609.15 172.55 609.95 171.61 610.7 172.31 611.63 172.09 612.65 171.33 613.61 170.91 615.77 170.24 616.19 168.81 619.05 167.67 620.45 168.2 621.69 167.14 623.3 166.08 623.73 163.36 623.66 159.41 622.32 158.44 620.14 157.78 619.44 157.58 617.54 156.88 617.06 156.61 616.08 157.21 613.59 156.25 611.95 158.41 609.94 159.35 609.57 159.26 608.65 160.34 607.22 163.43 604.5 165.43 602.31 165.01 601 165.23 600.23 164.6 599.72 164.83 597.15 164.52 596.19 164.54 594.5 164.95 593.99 164.78 590.84 163.5 589.63 163.51 588.24 164.5 587.28 165.44 585.47 166.35 584.79 166.71 583.53 167.9 582.79 168.24 580.85 167.37 579.32 165.87 578.58 166.43 575.64 166.38 574.12 165.79 572.15 165.88 571.25 166.56 569.41 166.39 568.07 165.31 566.03 165.65 565.33 167.24 564.44 169.14 561.43 168.42 560.49 168.53 559.01 167.75 557.63 166.77 556.73 165.36 556.6 164.02 557.07 160.59 557.64 157.16 556.75 156.58 555.53 154.25 553.06 152.65 552.06 151.44 550.75 149.62 549.58 146.33 548.31 143.88 547.22 142.51 546.07 141.75 544.29 140.66 542.99 139.26 541.78 137.11 539.37 136.48 538.4 136.13 534.98 136.38 532.97 136.31 529.16 135.65 527.09 133.73 525.39 131.95 524.2 129.97 523.64 127.51 523.21 123.15 522.74 123.5 522.01 125 520.72 127.82 518.61 131.43 516.36 131.92 515.03 133.5 513.46 133.99 511.86 135.3 510.84 138.03 511.93 140.18 511.82 140.06 511.19 140.8 510.11 143.79 508.16 144.88 507.1 147.25 505.42 148.87 503.6 149.92 503.45 151.32 502.65 150.92 500.77 152 499.75 153.29 497.99 152.55 497.02 152.7 493.7 151.94 492.23 150.68 490.64 150.78 489.19 151.96 489.01 152.33 487.7 153.46 486.18 153.36 485.58 155.27 484.91 155.51 484.42 155.03 482.62 155.24 481.84 155.1 479.28 154.78 478.39 154.75 475.94 154.16 474.11 154.5 471.73 155.07 470.96 155.62 468.65 156.78 466.11 158.45 463.8 158.53 460.63 158.72 458.89 158.17 458.79 157.17 457.14 156.45 455.3 156.15 453.58 153.77 450.04 153.96 448.77 152.99 448.7 151.77 449.46 150.32 449.01 147.84 449.05 147.61 448.11 146.63 448.19 146.12 447.47 145.91 445.32 146.3 444.82 145.1 442.68 144.82 441.74 144.02 441.05 142.83 439.17 142.29 438.89 140.44 438.82 139.3 437.24 138.71 435.74 137.75 434.25 136.21 432.63 134.4 430.18 132.66 429.69 131.98 428.43 130.95 428 128.8 426.24 129.85 425.94 131.62 425.99 130.44 424.42 130.6 423.3 130.17 421.34 129.47 420.88 128.95 419.04 127.63 416.93 127.32 415.67 128.93 410.8 124.59 406.72 120.71 402.91 119.32 403.06 117.52 406.77 114.7 409.29 111.46 410.8 106.69 413.48 103.65 414.42 100.28 414.23 93.71 413.69 87.04 412.11 78.49 410.27 74.53 409.55 69.14 409.42 65.04 408.13 62.01 406.6 56.52 401.77 56.11 401.3 60.05 396.8 61.39 396.04 60.5 395.24 57.66 395.09 55.87 396.19 55.39 396.21 52.47 393.83 52.21 392.76 55.06 390.11 56.95 387.87 56.85 387.48 55.04 386.54 52.02 385.74 46.83 385.37 43.16 384.83 41.76 384.97 41.1 385.6 36.99 387.48 35.64 388.4 30.82 391.15 29.18 390.37 27.72 390.28 26.46 390.67 27.22 391.59 29.02 391.44 29.92 391.72 30.25 393.25 27.57 393.94 26.45 393.67 24.44 393.7 22.64 393.49 21.37 394.53 19.78 394.55 17.54 392.44 16.14 392.92 15.83 391.19 15.38 390.9 14.89 389.4 13.47 389 13.25 387.55 6.71 382.27 7.54 381.5 9.73 383.55 13.22 386.51 14.25 385.36 14.04 383.73 16.77 382.22 18.33 380.79 18.41 378.93 19.05 377.39 20.53 376.95 22.45 372.81 24.88 368.43 25.72 366.52 27.55 360.76 29.21 356.34 30.74 352.57 31.39 350.58 31.49 348.35 31.12 347.15 29.35 347.18 29.28 345.95 28.5 345.77 23.67 345.92 15.45 346.28 12.57 346.59 12.21 347.75 12.62 350.84 11.06 351.26 10.12 350.32 6.2 350.16 4.86 349.48 3.82 348.52 4.63 347.69 5.52 348.84 6.8 349.35 8.26 349.39 8.26 343.82 6.16 343.78 4.98 344.01 3.45 345.02 2.55 346.72 2.55 348.25 2.24 349.45 1.55 349.57 1 348.79 1.46 346.34 2.39 344.55 3.69 343.42 5.41 342.79 9.58 342.64 11.09 341.62 13.14 341.61 13.14 342.75 11.25 342.64 10.52 343.24 12.46 345.73 14.06 345.62 14.54 345.95 22.63 345.65 24.18 345.36 32.09 345.1 37.17 344.22 37.96 342.02 39.07 340.26 42.3 334.09 44.38 331.13 45.61 329.9 47.58 327.1 49.68 323.13 52.49 318.22 53.64 316.89 54.97 314.75 56.97 311.01 59.16 307.36 59.57 306.24 61.27 303.03 64.25 297.69 65.92 295.06 68.23 290.49 68.9 288.82 69.97 287.31 71.95 283.33 72.71 281.3 74.3 278.46 75.38 277.47 77.4 273.62 78.74 271.61 80.63 268.11 83.23 264.66 84.9 262.12 84.72 260.76 85.34 260.28 86.16 260.91 87.12 260.46 88.45 261.21 89.36 261.36 88.97 256.77 89.71 254.16 90.74 251.53 91.31 249.55 96.58 238.96 99.33 232.66 100.98 229.24 102.62 225.19 105.72 218.71 106.39 216.91 107.5 214.8 108.74 211.35 110.05 208.28 110.57 206.19 111.87 204.27 113.52 200.51 114.42 199.14 115.84 197.79 114.07 194.73 115.25 193.47 116.28 190.61 116.74 188.8 117.32 188.47 117.51 186.64 119.94 187.1 122.53 184.12 123.86 182.08 125.44 180.2 126.4 178 126.9 177.51 128.13 175.37 131.94 167.06 132.86 164.82 133.2 163.31 134.59 161.31 136.09 157.83 136.8 156.76 137.37 155.27 138.59 153.31 138.96 151.75 138.66 151.19 139.28 148.21 140.51 146.57 142.47 144.7 144.47 143.81 145.56 144.13 146.74 146.75 146.79 148.71 146.52 149.09 146.6 150.72 145.85 152.44 148.56 157.86 148.06 158.55 152.79 167.44 156.18 174.14 161.87 174.51 163.12 174.7 163.64 175.17 166.8 178.9 168.71 180.13 169.11 179.37 168.91 178.23 165.63 174.79 166.42 174.02 167.73 172.06 168.28 170.87 165.93 170 163.46 168.63 162.62 167.75 162.28 166.71 161.93 162.68 162.04 161.38 163.46 160.44 164.97 160.34 166.12 159.75 168.21 160.38 169.54 160.34 170.86 159.66 171.82 158.54 172.66 154.94 173.43 149.88 174.96 145.9 175.83 144.1 177.24 142.74 177.34 141.63 178.81 140.36 179.45 139.21 181.61 137.52 182.26 136.81 184.52 135.66 187.75 134.34 197.47 127.94 201.61 125.27 205.45 122.38 211.12 117.83 211.98 118.74 214.91 116.8 215.6 115.62 216.66 115.02 217.29 115.62 221.65 114.59 226.56 116.72 229.53 117.1 234.27 117.88 234.52 116.84 235.3 111.73 236.24 110.63 237.29 110.61 242.59 111.87 246.25 112.3 246.74 112.8 246.9 113.96 246.79 116.11 246.82 120.35 249.19 120.75 249.61 120.2 248.75 118.28 248.69 115.95 249.2 115.35 249.87 111.8 250.8 111.19 258.51 111.82 264.91 112.25 268.77 112.64 270.06 113.01 271 114.7 274.89 116.85 272.48 122.8 270.88 125.84 272.22 126.86 272.32 127.49 271.14 130.66 271.76 131.57 274.22 131.68 276.68 131.5 277.19 131.68 278.2 130.75 277.64 129.69 276.15 129.29 275.26 127.67 275.35 125.8 275.87 124.21 279.27 119.32 284.56 111.53 285.01 111.55 289.13 115.68 291.61 118.05 291.72 117.34 290.49 115.1 289.57 113.87 290.48 109.66 288.24 105.54 287.43 103.18 293.21 100.61 293.62 100.99 295.51 105.38 299.09 104.29 300.69 104.37 302.52 106.04 303.15 105.78 307.43 101.74 309.62 100.39 312.93 96.41 307.85 91.05 307.99 90.52 312.58 87.49 313.18 87.8 315.95 90.78 317.54 92.03 318.6 91.29 320.15 90.76 322.82 89.55 324.29 88.55 326.66 88.09 328.15 87.4 330.22 87.51 330.24 88.34 333.04 88.99 334.56 88.37 337.22 88.3 340.38 89.27 340.66 89.2 341.79 86.23 346.37 86.78 347.34 87.08 348.72 88.82 349.96 88.53 353.88 86.84 360.74 84.42 361.47 84.38 363.23 90.34 363.08 90.76 361.67 91.11 363.56 92.48 365.03 92.16 364.69 87.91 364.34 86.27 370.67 86.86 372.07 87.16 376.8 89.67 380.63 90.97 384.01 91.95 384.08 92.58 383.4 95.1 383.68 95.47 384.99 92.56 386.86 92.26 388.31 92.91 390.46 94.84 391.22 94.2 392.16 94.72 393.39 96.69 391.58 99.95 390.79 100.99 389.15 104.37 388.78 105.92 387.51 108.83 386.55 111.6 386.28 114.25 386.84 118.27 387.34 120.31 389.09 122.54 393.15 125.34 394.56 122.99 393.81 122.48 390.32 118.97 389.82 116.32 389.75 113.94 389.91 111.87 390.47 110.69 394.01 107.37 395.48 105.77 397.49 103.13 397.21 102.05 395.45 100.6 401.7 92.33 401.94 91.69 400.67 89.57 400.62 89.13 401.62 87.14 408.83 89.7 410.42 89.78 410.75 89.1 408.83 88.98 407.05 88.48 403.93 87.14 398.82 85.3 398.75 84.74 405.12 76.23 405.74 76.31 407.39 78.62 408.25 80.38 408.79 82.35 409.92 83.91 410.29 83.7 409 81.92 408.9 80.9 408.13 78.73 406.43 76.06 406.33 74.83 410.52 68.85 411.42 68.75 413.79 69.16 417.72 71.42 417.71 70.97 416.58 69.41 416 69.04 411.46 68.16 411.38 67.6 415.65 63.28 422.31 65.94 423.28 65.77 416.64 62.85 416.32 62.48 417.67 59.81 418.98 56.83 419.99 55.09 422.11 56.18 426.82 58.2 426.74 57.36 425.8 57.4 420.59 55.16 420.35 54.68 423.22 48.5 423.7 48.2 428.48 48.31 429.27 45.87 431.68 36.56 433.03 31.79 434.38 26.63 435.41 23.09 435.55 20.77 435.82 12.84 436 12.5 443.52 12.57 443.83 14.51 445.54 15.26 445.92 15.81 458.64 18.67 460.76 16.75 462.85 11.49 465.03 10.35 465.07 10.05 462.98 4.62 463.19 4.22 470.22 2.9 471.16 3.99 472.39 7.85 473.81 7.93 472.87 4.84 472.4 2.77 473.26 2.39 478.26 1.65 480.17 1.68 481.03 1 483.2 2.83 484.34 5.02 484.46 6.29 485.4 7.21 484.92 7.86 485.36 9.19 486.15 8.99 486.41 7.08 486.87 5.53 489.29 5.85 500.38 7.95 500.44 9.74 501.61 10.7 503.49 11.57 505.48 7.22 506.09 7.04 511.95 9.62 515.64 11.57 517.77 13.54 517.28 14.64 513.48 16.79 515.47 19.6 519.36 16.62 520.12 17.28 523.69 21.94 526.94 26.41 526.71 27.07 524.8 28.56 523.88 29.76 525.38 30.17 527.01 31.17 528.43 31.63 530.14 31.42 530.38 31.74 529.97 36.33 529.53 37.47 527.43 37.54 527.35 37.93 529.52 38.07 529.89 38.54 529.88 40.04 529.37 41.55 529.81 42.24 530.94 41.58 530.47 40.37 530.86 36.08 531.14 31.27 532.38 31.23 533.96 32.99 536.78 36.53 537.09 38.45 534.44 39.6 534.32 40.29 537.72 38.91 538.59 39.22 540.47 42.19 540.99 43.34 539.9 45.48 542.39 47.48 543.4 46.32 544.94 45.23 546 44.83 546.6 45.53 548.07 48.55 549.66 51.25 550.91 52.9 551.5 53 553.93 57.71 554.1 58.29 555.27 58.78 556.94 60.26 558.3 62.38 559.7 63.07 561.62 63.65 564.41 64.23 565.74 65.39 568.15 66.11 569.84 67.49 570.86 69.04 571.58 70.67 571.68 71.6 572.48 74.26 573.08 74.74 572.66 75.69 572.14 78.95 572.68 79.99 573.75 80.26 575.65 79.99 577.03 76.64 576.88 74.87 576.24 74.58 576.79 73.34 576.68 72.43 575.91 70.37 573.8 67.05 573.09 66.45 572.36 64.96 572.78 64.64 576.77 62.95 576.64 62.74 572.51 64.51 571.82 64.66 570.49 63.7 570 63.01 567.3 60.66 565.25 59.8 561.01 58.99 559.17 58.4 556.53 56.03 555.51 54.86 555.18 54.03 555.5 53.15 556.63 52.85 554.99 51.59 553.96 49.92 553.19 48.1 553.16 46.73 551.74 43.42 550.86 40.85 550.58 38.05 550.65 35.15 549.77 25.47 549.99 24.98 554.2 24.85 556.3 24.91 558.98 24.74 560.04 27.98 560.58 27.74 560.85 25.87 559.9 26.01 559.65 25.31 560.95 24.58 562.53 22.47 560.76 19.89 559.64 20.56 557.75 20.18 556.89 19.67 556.12 18.59 556.27 17.73 557.27 16.81 558.57 16.98 561.24 14.63 562.09 14.18 563.06 14.47 567.74 16.66 567.99 15.32 570.1 14.38 Z" fill-rule="evenodd" id="35570000"/>
</g>
</svg>