<?xml version="1.0"?>
<svg xmlns="http://www.w3.org/2000/svg" version="1.2" baseProfile="tiny" width="800" height="342" viewBox="0 0 800 342" stroke-linecap="round" stroke-linejoin="round">
<g id="sigung">
<path d="M 275.94 338.65 275.93 339.2 276.71 339.72 276.57 340.57 275.78 341 275.73 340.69 274.62 339.46 275.08 338.85 275.4 339.01 275.94 338.65 Z M 267.11 332.75 267.47 333.24 267.34 333.81 266.12 334.77 265.42 334.85 264.78 334.14 265.06 333.36 265.76 332.97 266.03 332.53 267.11 332.75 Z M 152.02 320.47 152.33 320.92 151.87 321.01 151.53 320.84 151.49 320.43 152.02 320.47 Z M 523.38 315.17 523.33 315.33 522.02 315.8 521.72 315.5 522.31 315.29 523.38 315.17 Z M 156.17 313.98 156.52 313.96 157.23 314.85 157.41 315.45 157.41 316.02 157.77 316.09 158.33 315.9 158.25 315.51 158.31 314.05 158.86 314.12 159.97 315.09 160.26 314.21 160.85 314.52 161.72 315.2 161.37 315.76 161.59 317.13 161 317.58 161.02 318.14 160.8 318.58 161.05 318.77 160.92 319.38 160.23 319.43 159.4 319.02 159.04 319.65 158.62 319.74 157.94 319.48 157.07 319.31 156.61 319.87 155.86 319.62 155.1 319.7 154.78 320.36 154.14 320.61 153.6 321.06 152.98 320.69 152.52 320.13 152.77 319.13 153.53 318.88 153.78 318.47 153.34 318.24 153.35 317.82 154.44 317 155.25 316.7 155.08 316.08 155.71 315.49 155.34 315.23 155.08 314.59 155.85 313.95 156.17 313.98 Z M 151.74 306 151.62 306.58 151.72 307.09 152.27 307.75 152.48 308.52 152.15 308.86 151.38 308.69 151.23 308.41 151.28 307.7 151.69 307.56 151.47 307.17 150.85 306.61 150.67 306.23 150.8 305.87 151.24 305.79 151.74 306 Z M 210.53 303.82 210.87 303.98 210.87 304.46 210.51 305.22 210.63 305.59 210.14 306 209.99 306.45 210.24 307.27 209.78 307.61 209.51 307.32 209.56 305.9 209.28 305.21 209.39 304.39 210.13 303.83 210.53 303.82 Z M 156.2 304.07 156.38 304.15 156.79 305.87 156.8 306.83 156.95 307.35 156.82 307.71 156.17 307.38 156 307.1 155.52 307.19 155.32 305.87 155.62 305.22 155.45 304.73 155.73 304.27 156.2 304.07 Z M 144.98 302.99 145.19 303.21 145.13 303.81 145.43 303.91 145.41 304.76 145.58 305.1 145.29 305.6 144.69 305.5 144.28 304.99 143.65 304.92 143.49 304.33 143.86 304.07 144.22 304.15 144.98 302.99 Z M 416.2 297.58 417.41 297.53 417.32 297.92 416.72 298.41 416.32 298.49 415.72 298.08 415.81 297.53 416.2 297.58 Z M 214.8 297.99 215.09 299.03 215.15 300.06 214.85 300.63 215.05 301.22 214.76 301.76 215.12 302.61 214.86 302.98 214.93 303.57 214.46 304.32 214.42 304.74 214.09 305.01 213.03 304.42 212.33 302.98 212.78 302.57 212.27 301.44 212.08 300.23 212.83 300.16 212.89 299.27 212.75 299.03 213.48 298.78 213.48 298.55 214.8 297.99 Z M 165.72 291.21 165.93 291.19 166.14 291.92 165.84 292.42 165.44 292.15 165.72 291.21 Z M 405.59 288.49 405.33 289.17 405 289.31 404.49 289.11 404.81 288.6 405.26 288.36 405.59 288.49 Z M 166.37 288.84 165.97 289.63 165.43 289.67 164.71 289.52 164.32 288.99 164.98 289 165.27 289.18 166.37 288.84 Z M 402.91 286.53 402.93 286.69 401.61 287.57 401.26 288.12 400.88 287.88 401.02 287.54 402.07 286.85 402 286.5 403.07 285.94 402.91 286.53 Z M 391.02 276.64 391.57 276.65 392.22 277.52 392.02 277.94 391.68 278.02 390.99 277 391.02 276.64 Z M 178.9 271.29 179.47 271.36 179.87 272.07 180.43 272.58 180.7 273.45 181.1 273.84 180.66 274 180.19 274.45 180.36 275.09 180.34 275.6 179.5 275.65 179.29 275.26 178.76 274.82 178.16 274.59 177.8 275.08 177.19 274.96 176.99 274.51 177.22 274.19 176.95 273.48 177.55 273.19 178.11 273.3 178.63 272.83 178.81 272.34 178.9 271.29 Z M 204.16 263.65 204.37 263.61 204.49 264.68 203.91 264.43 203.35 264.44 203.15 263.71 203.82 263.11 204.16 263.65 Z M 283.87 260.39 284.21 260.41 284.59 260.91 284.3 261.68 283.79 262.06 283.75 261.52 283.5 261.15 283.54 260.53 283.87 260.39 Z M 207.03 258.62 207.39 259.23 208.16 259.31 208.05 260.14 207.86 260.47 207.99 260.89 208.52 261.12 209.12 261.08 209.92 261.53 209.9 262.13 209.59 262.56 209.48 263.06 208.68 263.48 208.36 263.81 208.33 264.76 208.9 265.37 208.67 265.97 208.93 266.28 209.31 266.26 209.69 266.81 209.42 267.04 208.96 266.72 208.47 266.15 208.03 266.02 207.29 266.33 207.03 266.85 206.92 268.06 207.18 268.9 206.86 270.15 206.55 270.73 206.53 271.59 205.81 271.15 204.87 270.86 204.36 270.59 204.62 269.92 203.99 269.4 203.74 268.99 203.86 268.07 203.38 268.01 203.37 267.53 203.56 266.68 202.65 266.61 202.88 265.67 203.53 265.58 204.38 264.86 205.18 265.1 205.7 265.12 206.4 264.78 206.66 264.47 206.56 263.88 207.03 263.2 207.18 261.51 207.7 261.09 207.56 260.55 206.66 259.88 206.36 259.98 205.89 260.52 205.34 260.4 205.11 260.12 205.67 259.8 205.77 259.19 206.11 258.79 207.03 258.62 Z M 219.98 256.93 221.75 257.81 222.56 258.01 223.3 258.34 224.13 259.13 224.85 260.19 225.74 261.09 225.93 261.61 227.04 262.9 227.07 264.25 227.51 265.25 227.81 265.37 227.85 265.89 228.48 266.54 228.41 266.8 229.09 267.26 229.36 267.11 230.31 267.06 230.84 267.93 231.19 268.8 230.98 269.17 231.08 270.11 231.6 270.58 231.74 271.06 232.34 271.25 232.57 271.69 232.48 272.62 231.65 273.23 230.66 273.32 230.03 273.74 229.56 274.31 229.7 274.98 229.63 275.55 229.76 276.32 229.64 277.45 229.04 277.88 228.45 279.23 228.04 279.8 227.69 280.78 227.33 281.02 226.03 281.48 224.43 282.28 223.96 283.03 223.88 283.4 222.58 284.16 222.55 284.65 221.82 284.82 221.08 285.27 220.78 285.79 220.94 286.42 220.86 287.63 220.96 288.41 220.52 290.06 219.88 290.86 219.74 291.23 218.45 292.49 217.49 292.88 216.81 293.03 216.09 292.9 216.23 292.63 215.39 291.94 214.95 291.79 213.66 292.24 212.44 292.79 212.2 292.73 211.32 293.05 210.22 293.89 209.17 294.57 208.99 294.15 207.91 294.3 206.31 294.62 205.55 294.95 204.51 295.54 203.88 296.1 203.04 297.18 202.79 297.81 202.72 298.47 202.84 298.91 203.65 299.76 204.12 300.03 207.24 300.46 207.23 300.79 204.4 300.3 204.26 300.68 203.54 301.18 202.75 300.88 201.92 300.88 201.61 301.17 201.61 301.66 201.26 301.86 200.94 301.5 200.51 301.69 200.06 302.75 200.14 303.26 198.89 304.67 198.55 305.43 198.22 305.64 197.39 306.52 197.56 306.79 197.17 307.4 196.28 307.79 195.98 308.09 195.58 308.87 194.41 309.73 194.15 310.12 193.89 311.22 194.79 312.21 194.98 312.71 194.65 312.98 193.97 312.88 193.79 312.63 193.04 312.94 192.29 312.54 191.87 312.69 191.8 313.25 191.29 313.24 190.85 313.76 190.71 314.32 190.33 314.41 189.65 314.03 189.22 314.12 188.88 314.45 188.85 315.16 188.44 315.43 187.77 314.56 187.02 313.97 185.77 314.85 185.44 315.57 184.68 315.68 184.11 316.26 183.24 316.28 182.76 316.42 182.25 316.28 181.29 316.21 180.32 316.47 180.31 316.7 179.56 318.84 179.28 318.96 180.2 316.48 179.87 316.3 179.07 316.47 178.35 317.07 177.6 317.86 177.71 318.28 177.52 319.04 177.19 319.31 176.71 320.21 176.13 320.57 175.59 320.73 175.13 322.14 174.99 323.56 176.13 324.03 176.77 324.6 177.61 324.64 177.99 325 177.82 325.71 178.29 326.33 179.19 326.37 179.48 326.59 181.57 326 181.65 326.22 180.11 326.66 179.47 327.08 180.22 328.58 179.68 328.83 179.67 329.67 178.42 328.81 177.98 328.78 178.2 328.29 178.01 327.81 177.72 327.7 177.29 327.96 176.83 327.91 176.5 327.43 176.05 327.5 174.79 326.18 174.29 325.37 173.57 324.95 172.85 324.84 172.21 324.16 171.66 323.96 171.81 323.4 171.54 322.71 171.68 322.44 171.26 322.02 170.58 321.99 170.44 321.75 169.59 321.82 168.85 321.6 167.75 321.64 167.22 321.24 166.05 321.25 166.65 320.34 167.12 320.27 167.49 319.76 168.21 319.42 168.53 318.79 168.32 318.3 167.83 317.92 168.06 317.29 167.9 316.91 167.02 316.71 165 316.79 164.4 316.59 164.14 316.01 164.74 316.03 164.6 315.12 164.73 314.84 165.29 314.56 165.89 314.94 166.37 314.83 166.68 314.35 166.83 313.76 166.39 313.53 166.1 313.14 166.23 312.45 166.78 312 166.49 311.32 166.06 310.93 165.31 310.63 165.1 310.96 164.14 311.04 163.97 311.26 163.17 311.56 162.75 311.46 162.41 310.88 161.9 310.36 162.9 310.24 163.18 309.48 163.27 308.77 163.97 308.47 164.26 308.64 164.42 309.19 164.95 309.25 165.37 308.89 165.65 308.32 165.77 307.44 165.64 306.86 165.21 306.09 164.62 305.78 163.58 306.12 163.17 306.1 162.91 306.4 162.38 306.46 161.83 306.71 160.98 306.41 160.59 305.73 160.35 305.66 160.64 304.49 160.3 302.98 159.88 302.72 160.3 301.93 160.64 301.62 160.77 300.83 161.09 300.36 161.51 300.37 161.81 300.08 162.65 299.93 163.65 300.36 164.38 300.43 165.05 300.11 165.08 299.41 166.02 298.73 167.62 298.83 168.15 299.3 168.35 299.68 168.83 302.51 168.75 302.98 169.04 303.33 169.7 303.53 170.33 303.54 171.41 303.28 172.37 302.61 171.98 301.39 171.93 300.87 172.24 300.66 171.96 300.24 172.02 299.64 173.14 300.01 173.53 299.94 173.92 300.26 174.71 300.22 174.73 299.8 175.16 299.7 175.4 300.05 176.39 300.12 177.23 300.64 177.76 300.37 178.31 300.28 179.53 299.71 179.63 299.52 180.31 299.5 180.65 299.73 181.28 299.55 181.9 299.55 182.17 298.94 182.94 298.68 183.4 298.85 184.08 298.44 184.24 297.61 184.12 296.28 183.87 295.35 183.27 295.12 182.64 294.48 181.97 294.22 181.61 294.67 181.03 294.94 179.36 295.09 178.65 294.95 178.18 294.51 177.62 294.34 177 294.83 176.12 294.91 175.86 294.72 175.6 293.94 175.74 293.48 175.44 293.3 174.56 293.22 173.99 293.41 173.84 294.88 173.49 295.14 173.04 294.94 172.46 295.15 171.85 295.1 171.2 294.74 171.15 294.34 170.46 293.88 170.28 294.28 169.67 294.54 169.24 294.47 168.91 293.67 169.39 292.71 169.9 292.58 170.33 292.25 170.82 291.51 170.67 291.16 170.29 291.17 169.87 290.51 170.12 290.3 170.28 288.94 169.64 288.19 169.37 287.63 171.05 286.23 172.03 286.38 172.16 286.72 171.78 287.8 171.99 288.44 171.92 289 172.89 290.41 173.43 290.82 173.7 291.25 174.09 290.96 174.51 290.93 175.17 291.16 175.88 291.61 176.76 291.6 177.22 291.74 177.66 290.84 178 290.44 179 290.16 178.65 289.18 178.34 288.99 178.32 288.4 179.23 288.35 179.67 288.79 180.01 289.81 180.58 290.41 181.1 289.96 181.61 290.32 181.78 289.63 182.46 288.95 183.1 287.97 182.85 287.31 183.55 286.55 184.04 286.76 184.8 286.68 185.59 286.94 185.86 286.71 186.3 286.82 186.63 286.44 186.43 286.16 186.57 285.54 186.07 285.26 185.8 284.74 185.77 283.88 184.92 283.24 184.3 283.43 183.48 282.87 183.28 282.33 182.87 282.3 182.44 281.92 182.81 281.57 182.39 280.43 182.04 280.09 181.18 279.63 180.85 279.17 181.22 278.65 181.14 278.01 181.88 277.11 182.26 277.09 182.44 277.43 182.9 277.7 183.3 277.64 184.27 278.42 184.83 278.09 184.84 277.33 184.45 276.29 184.15 276.17 183.86 275.67 184.11 274.96 183.95 274.67 184.3 274.1 184.99 274.2 185.43 274.93 185.44 275.47 186.23 276.07 186.98 276.37 187.44 276.33 187.67 276.7 187.55 277.2 187.09 277.7 187.72 278.47 188.11 278.61 188.63 278.18 188.92 278.47 189.17 279.22 188.92 279.52 189.42 279.95 190.02 279.61 190.31 279.91 190.57 279.08 191.51 278.5 191.57 278.1 191.14 277.73 191.52 277.23 192.04 277.14 192.29 277.48 192.88 277.24 193.7 277.75 194.85 277.87 195.02 278.47 194.93 278.85 195.91 278.49 196.2 278.27 196.57 277.64 197.01 276.21 197.1 275.3 196.35 275.05 196.03 274.32 195.61 273.76 195.12 273.6 194.88 273.31 195.35 272.61 195.11 272.23 193.94 272.28 193.56 271.83 193.22 271.9 192.92 272.45 192.62 272.54 192.15 272.28 192.42 271.13 192.28 270.56 191.17 270.64 190.89 270.22 191.19 269.73 190.31 269.43 189.72 268.82 190.53 267.69 190.21 267.2 189.74 266.88 189.79 266.62 189.16 266.36 189.02 265.41 188.83 264.97 189.4 264.6 189.15 264.38 189.11 263.05 189.5 263.02 190.07 263.67 190.36 264.31 191.14 264.31 191.5 264.04 192.57 264.53 192.34 265.62 192.35 266.04 192.67 266.2 193.13 266.05 193.49 266.44 193.59 267.59 193.98 267.72 194.22 267.29 194.77 266.72 195.14 266.97 195.88 266.31 196.22 267.04 196.94 266.35 197.78 266.74 198.34 266.46 198.15 265.84 198.34 265.64 198.09 265.15 197.54 264.87 197.33 264.32 197.76 263.86 198.25 264.55 199.13 265.59 199.18 265.9 198.7 266.59 198.94 267.41 198.76 268.04 199.65 268.87 200.13 269.03 200.47 270.36 201.47 271.96 201.7 272.96 201.83 274.27 202.53 274.37 204.41 274.02 204.44 273.92 207 273.02 207.33 273.43 207.47 274.51 207.11 275.09 207.39 275.73 207.06 276.01 207.08 276.4 205.64 277.68 205.81 278.24 206.69 279.19 209.08 280.07 210 279.83 210.59 279.03 210.93 277.79 210.88 277.36 211.14 276.3 211.58 275.68 211.77 275.18 211.71 273.62 211.53 273.39 211.68 272.6 212.07 272.36 212.24 271.64 211.85 270.93 211.91 270.2 212.4 269.35 213.22 269.57 213.22 270.09 213.74 270.35 214.32 270.4 216.76 270.06 217.52 270.32 218.05 270.03 218.95 269.97 219.47 268.99 219.43 268.72 218.65 268.23 217.95 267.12 218.09 266.53 217.67 266.19 217.34 265.6 217.66 265.05 216.3 262.77 215.96 260.63 215.63 258.97 215.89 258.97 216.36 261.47 216.66 261.62 217.77 261.74 217.75 261.98 219.24 262.19 219.22 262.43 220.41 262.58 220.64 262.51 221.22 263.05 221.89 262.46 221.64 261.18 222.03 260.45 220.55 258.61 220.19 258.65 219.83 258.2 219.8 257.73 217.17 258.85 216.79 258.54 219.35 257.48 219.98 256.93 Z M 201.74 254.9 202.26 255.09 202.29 255.86 201.92 255.94 201.53 255.05 201.74 254.9 Z M 300.86 253.96 301.35 254.23 301.7 254.68 301.5 255.1 301.2 255.07 300.79 255.56 300.46 255.05 300.69 254.09 300.86 253.96 Z M 290.62 252.24 291.2 252.89 291.2 254.01 290.57 255.03 290.13 256.23 289.6 256.35 289.63 255.61 289.3 254.29 288.83 253.93 289.24 253.19 289.53 252.42 290.08 252.65 290.62 252.24 Z M 186.64 252.03 186.54 253.22 185.82 253.24 186.13 252.67 186.01 252.29 186.64 252.03 Z M 208.17 251.27 208.21 251.58 207.71 252.3 207.35 252.08 207.56 251.5 208.17 251.27 Z M 206.83 240.43 207.28 240.93 207.51 241.47 208.14 241.44 208.15 241.91 207.45 241.92 206.94 241.54 206.63 240.92 206.83 240.43 Z M 193.84 239.3 194.36 239.35 194.45 240.04 195.13 240.25 195.28 240.6 196.05 241.53 197.13 241.99 197.64 242.45 198.81 244.31 199.4 244.04 198.93 243.3 198.63 242.34 198.99 241.89 199.65 241.83 199.79 241.43 200.35 241.17 201.09 241.17 201.86 240.68 202.63 240.55 202.93 240.63 203.32 241.4 204.11 241.14 204.62 241.2 205.05 241.54 207.41 242.51 208.06 244.22 208.81 244.96 208.89 245.36 208.47 245.74 208.41 246.19 209.08 247 210 247.26 210.45 247.58 210.41 248.12 209.96 248.23 209.57 248.8 209.68 249.2 209.22 249.67 208.71 249.82 208.25 249.5 207.63 249.72 206.95 250.83 205.24 250.94 204.55 251.19 204.18 251.65 204.19 252.42 203.85 253.02 204.22 254.5 204.73 254.8 204.71 255.57 204.35 255.69 204.11 255.24 203.68 253.42 202.85 253.01 202.45 252.66 202 252.83 201.23 253.38 199.94 254.5 200.08 255.21 199.84 256.65 199.59 257.33 199.56 258.46 199.15 257.33 199.24 256.87 198.94 256.66 198.29 254.54 197.79 254.23 196.85 253.4 197.06 252.69 196.84 252.08 197.03 251.44 197.74 251.05 198.16 250.99 197.57 250.19 197.73 250.05 198.44 250.97 198.98 251.29 199.45 251.86 200.01 251.56 200.87 250.56 201.18 249.5 200.99 249.21 201.54 248.55 201.55 248.18 201.19 247.92 201.55 247.24 201.17 246.5 200.44 245.94 199.82 245.77 199.2 246.14 199.21 246.68 199 247.34 198.35 247.56 197.58 247.27 197.22 246.89 196.46 246.96 196.45 247.57 196.02 248.07 195.64 248.2 194.54 247.58 194.31 247 193.63 246.91 192.85 247 192.09 247.26 192.13 247.57 191.45 247.95 191.23 248.43 191.71 249.41 191.28 249.93 190.76 250.04 190.22 250.57 189.92 251.32 190.42 251.67 190.1 252.08 189.65 252.21 189.24 252.01 188.55 251.18 187.91 251.4 187.43 251.33 187.27 250.7 187.87 250.65 187.65 250.26 188.4 250.24 188.73 250.46 189.61 250.49 189.9 250.22 189.96 249.48 190.17 249.11 189.9 248.83 189.81 247.92 189.16 247.11 188.83 246.93 188.79 246.13 189.03 245.79 189.52 245.72 189.29 244.85 188.69 244.54 188.01 244.42 187.75 244.7 187.17 244.73 186.57 244.26 185.86 243.31 186.41 243.39 186.55 243.17 187.2 243.13 188.68 243.52 189.05 243.07 189.79 243 189.11 242.39 189.19 241.95 189.55 241.9 190.39 242.13 190.76 241.56 191.45 241.45 191.63 241.81 192.73 242.2 192.75 241.34 193.4 240.9 193.21 240.5 193.11 239.66 193.84 239.3 Z M 203.28 235.77 203.82 235.85 203.87 236.26 204.37 236.96 203.75 237.24 203.08 236.41 203.28 235.77 Z M 389.21 233.7 389.4 234.02 389.22 234.49 388.74 234.09 389.21 233.7 Z M 21.24 223.22 22.18 223.28 23 223.91 24.13 224.02 24.47 224.42 25.02 224.57 25.45 225.17 26.01 225.51 26.32 225.49 26.8 225.85 27.45 227.2 27.26 227.68 27.43 228.69 28.15 229.26 28.81 229.5 29.01 229.93 29.44 230.07 29.5 230.83 29.89 231.22 30.24 231.25 31.19 231.98 31.8 232.63 32.21 232.81 32.88 234.15 33.05 235.05 32.89 235.35 33.14 235.82 32.56 236.45 31.89 236.91 31.91 237.27 31.14 237.52 30.64 237.95 29.47 238.09 29.04 238.53 28.54 238.37 28.35 238.58 27.03 238.93 26.97 239.44 26.52 239.49 26.07 238.52 26.7 238.11 26.76 237.73 26.37 237.24 26.43 237 25.89 236.55 25.87 235.89 26.14 235.35 25.82 234.08 25.27 233.3 24.61 232.93 24.2 232.08 23.67 231.77 23.04 230.99 21.87 230.75 20.99 230.67 20.28 230.87 20 231.21 19.46 231.48 19.42 232.76 19.07 233.8 18.15 234.37 17.3 233.93 15.94 232.74 15.61 233 15.61 233.55 15.16 233.9 14.55 234.14 13.94 233.4 13.93 232.52 13.42 232.39 12.98 231.91 13.25 231.51 13.31 230.03 13.41 229.8 12.97 228.66 13.41 228.2 13.18 227.21 14.16 226.14 14.58 225.52 15.47 225.09 15.87 225.11 16.08 224.5 17.44 224.45 17.74 223.94 18.51 223.84 19.44 223.53 20.05 223.49 20.59 223.65 21.24 223.22 Z M 414.93 215.98 415.26 216 415.31 216.91 414.92 217.5 414.91 218.01 415.17 218.3 415.06 219.48 414.81 219.53 413.86 220.66 413.35 220.96 412.96 220.61 413.28 220.08 414.26 218.88 414.37 218.35 414.18 218 414.79 216.77 414.53 216.38 414.93 215.98 Z M 415.27 213.68 415.17 214.12 415.59 214.16 415.88 215.35 414.83 215.61 414.52 214.61 414.76 213.86 415.27 213.68 Z M 416.53 200.83 417.05 201.38 417.52 201.47 417.74 201.89 417.5 202.79 417.59 203.81 417.42 204.26 417.87 204.67 418.08 205.55 417.8 206.11 417.53 206.1 416.75 206.69 416.44 206.48 415.81 207.28 415.5 206.94 415.11 207.36 414.78 207.2 414.16 207.48 414.02 206.98 413.61 206.35 414.15 205.94 414.05 204.8 414.2 204.44 414.76 203.84 414.82 203.04 416.01 201.18 416.53 200.83 Z M 397.92 200.75 397.78 201.41 397.21 201.86 397.66 200.62 397.92 200.75 Z M 43.26 199.85 43.7 200.26 43.89 200.7 43.79 201.14 43.38 201.25 43.12 200.92 42.64 200.8 42.45 200.27 43.26 199.85 Z M 24.01 197.23 24.27 197.24 25.18 197.66 25.45 197.33 25.78 197.52 25.95 198.74 25.28 199.96 24.65 199.89 23.97 199.64 23.44 199.65 22.66 199.43 22.37 199.08 22.31 198.48 22.62 198.34 22.65 197.64 23.21 197.27 24.01 197.23 Z M 11.56 195.17 12.48 195.68 13.21 196.55 13.88 198.1 13.81 198.75 13.96 199.14 13.76 199.65 13.06 200.53 13.09 201.03 12.82 201.37 12.25 201.42 11.78 202.01 11.63 202.52 11.14 202.96 10.78 204.63 10.58 204.89 10.55 205.51 10.99 206.54 11.51 206.83 11.92 206.64 12.34 207.5 12.51 207.52 14 207.11 14.13 207.5 13.25 207.8 12.6 207.9 12.41 208.44 12.83 209.47 12.33 209.9 12.2 210.37 11.73 210.29 11.02 210.63 10.47 210.49 9.89 210.64 9.02 210.31 8.97 210.9 8.34 210.57 7.96 209.95 7.52 209.54 8 208.81 7.88 207.64 7.33 206.84 6.88 206.45 6.5 206.68 5.92 206.46 5.32 206.53 4.8 206.09 4.18 205.82 3.67 205.95 3.49 205.74 2.77 205.86 1.7 205.65 1 205.21 1.18 204.41 1.09 203.51 2.86 202.96 2.77 202.63 3.36 202.26 4.52 202.05 5.02 201.59 4.5 200.25 5.11 199.6 5.56 199.64 5.86 199.22 5.92 198.79 6.66 198.74 7.34 198.54 7.96 197.95 8.36 197.89 8.9 198.1 9.49 197.59 9.66 197.11 9.4 196.54 9.42 195.91 9.99 195.92 10.67 196.33 10.85 195.61 11.14 195.22 11.56 195.17 Z M 21.96 193.33 22.59 193.66 23.43 193.68 23.7 194 23.12 194.35 21.72 194.39 21.57 193.48 21.96 193.33 Z M 465.68 167.19 466.18 167.59 466.08 167.99 465.37 167.96 465.68 167.19 Z M 473.66 133.03 474.24 133.72 473.83 133.93 473.36 133.6 473.09 133.07 473.66 133.03 Z M 645.66 7.25 676.29 17.23 679.53 18.28 683.15 19.34 691.43 21.81 697.37 23.73 699.51 24.09 703.32 25.29 715.22 28.85 722.96 49.96 724.01 52.33 725.71 57.37 726.98 62.13 727.11 63.19 728.59 66.88 730.22 71.63 731.56 76.39 733.06 81.13 736.66 83.93 736.67 88.11 744.95 88.12 750.38 85.93 750.66 86.19 750.46 90.65 750.67 92.59 750.9 92.97 752.29 93.95 752.49 95.41 751.3 97.72 753.75 100.14 756.85 98.4 758.69 97.94 758.9 98 762.11 96.5 763.17 98.79 762.3 99.19 762.86 100.39 762.43 100.59 762.96 101.74 762.53 101.94 763.06 103.08 762.63 103.28 763.16 104.41 762.72 104.6 763.22 105.68 761.79 106.35 761.94 106.78 761.69 108.75 761.75 110.1 761.71 111.17 761.91 113.18 762.79 114.06 763.91 114.13 764.52 114.42 764.71 114.87 764.79 115.7 763.72 116.55 762.79 116.99 762.28 117.57 761.62 118.52 761.21 117.96 761.12 119.1 760.45 119.04 760.36 120.25 760.09 120.23 759.97 121.58 763.03 121.82 762.86 121.41 764.33 120.64 765.26 119.98 766.82 118.64 767.24 119.18 768.95 118.39 769.54 118.2 770.07 119.35 769.64 119.55 770.14 120.64 768.39 121.45 767.55 122.86 767.01 123.93 766.68 125.25 766.96 125.91 767.93 126.05 768.74 125.65 769.57 124.87 769.66 125.07 770.88 124.5 770.38 123.42 771.3 123 770.78 121.83 772.91 120.84 773.28 120.59 774.38 122.96 773.62 123.32 774.11 124.38 772.31 125.22 772.5 125.7 772.26 126.14 772.63 126.43 771.21 127.14 771.73 127.44 771.71 127.77 771.99 128.68 772.38 129.46 772.39 130.35 771.49 130.82 770.24 131.1 768.43 131.63 768.06 132.38 768.23 133.44 768.32 134.82 768.88 135.8 770.1 136.14 771.42 136.02 772.58 136.15 773.53 136.57 774.67 137.19 775.26 136.67 775.38 135.5 776.08 134.93 778.36 134.1 779.02 134.26 778.97 135.2 778.67 136.35 778.62 137.28 779.33 139.36 779.78 139.76 780.63 139.56 781.27 138.96 781.9 138.19 782.73 136.79 782.66 136.28 781.85 136.03 782.53 135.34 783.49 136.19 783.82 135.85 784.7 136.62 784.38 136.98 783.96 137.46 783.69 137.27 783.22 138.19 783.02 138.91 783 139.77 783.17 140.6 783.61 141.27 785.04 142.95 785.52 143.78 785.79 144.61 785.93 145.49 786.58 146.31 787.97 147.4 788.82 149.11 789.23 149.61 789.9 149.94 791.43 150.46 791.86 150.82 792.27 151.46 792.22 152.46 791.36 154.27 790.91 154.82 790.81 155.31 791.33 155.86 792.53 156.42 793.25 156.86 794.56 157.8 796 157.41 796.68 156.59 797.11 156.25 797.57 156.6 797.42 157.21 797.01 157.67 796.94 158.06 797.38 158.64 798.47 159.57 798.47 161.96 798.96 162.54 799 163.08 798.77 164.23 795.64 160.31 793.44 168.68 792.53 171.83 792.32 172.69 791.98 173.55 790.32 174.39 790.29 174.86 789.52 174.78 789.09 175.09 787.99 174.87 787.7 175.68 787.01 175.75 786.51 175.99 786.52 176.39 785.8 176.35 785.27 176.78 785.75 177.04 785.09 178.96 784.8 179.42 784.26 180.86 784.29 181.66 784.14 182.55 783.9 182.82 774.95 181.88 775.1 180.51 773.79 180.38 773.91 179.61 772.96 179.55 771.79 179.22 771.67 178.5 771.77 177.8 770.6 177.93 769.99 178.51 769.92 179.14 769.51 179.28 769.01 179.2 768.47 179.84 767.78 179.92 766.82 180.31 766.08 181.22 765.13 181.84 764.2 181.77 764.02 182.33 762.96 183.99 762 185.96 761 188.18 759.96 187.46 758.71 186.02 756.94 183.2 755.95 181.97 756.04 181.3 755.74 181.12 755.8 180.7 755.61 179.61 754.94 178.54 753.78 177.39 753.12 176.53 752.88 176.57 752.09 177.81 750.83 178.14 750.47 178.98 750.05 179.69 748.97 180.88 748.97 181.4 748.35 182.16 747.5 182.44 747.17 182.82 746.39 184.11 746.27 185.1 745.45 185.78 745.17 186.17 744.59 186.65 743.76 187.7 742.94 188.24 742.36 187.78 742.03 189.23 737.15 188.09 736.9 188.26 730.18 183.23 731.07 182.04 729.51 180.87 730.27 179.85 727.93 178.1 727.17 179.11 725.64 177.97 724.72 179.21 724.29 178.87 724.06 179.43 722.82 179.93 722.09 180.73 721.51 182.28 720.43 183.65 720.27 185.07 720.02 185.74 719.23 187.29 718.77 189.06 718.5 189.55 717.01 191.67 716.89 192.09 717.35 193.64 717.28 194.48 716.48 195.7 716.62 196.72 717 197.9 716.98 198.86 716.83 200 716.68 200.34 715.94 200.96 715.85 201.79 716.27 202 717.17 202.21 717.29 203.16 716.87 203.68 716.51 203.84 715.38 203.85 714.82 205.42 715.15 205.86 714.96 206.36 714.02 206.49 712.34 205.99 712.74 204.32 710.2 203.64 709.99 203.19 707.3 202.4 707.65 201.18 706.41 200.83 706.65 199.97 702.52 198.8 700.94 204.35 698.56 202.96 696.64 202.05 694.38 200.51 694.07 201.11 694.81 201.54 692.73 205.11 693.94 205.82 691.37 210.23 691.42 210.41 692.43 211 688.57 217.6 689.74 218.28 687.7 221.75 686.54 221.07 685.28 223.22 684.95 223.08 684.66 221.64 684.37 220.93 684.12 220.73 683.42 220.81 683.22 221.35 682.85 221.4 681.88 222.17 681.67 222.59 677.58 223.01 677.72 224.3 675.83 224.51 676.24 228.27 674.87 229.64 674.37 229.82 674.1 230.2 673.83 231.29 674.15 231.37 672.66 237.63 673.05 237.74 672.75 239.57 672.39 241.32 672.33 241.87 671.89 244.01 671.47 245.83 670.85 245.69 670.35 246.32 669.81 246.44 669.41 246.96 669.11 247.04 668.68 248.18 669.23 248.83 669.12 249.42 669.23 250.09 669.53 250.56 669.56 251.36 670.04 251.36 670.01 253.63 670.8 253.93 671.02 256.07 670.73 258.04 670.83 258.95 670.07 260.5 670.05 260.97 670.76 262.2 671.28 262.02 671.47 263.36 671.79 264.63 671.54 265.09 670.53 265.92 670.15 267.27 669.79 267.27 669.42 267.88 669.23 269.48 669.02 270.31 668.71 273.09 668.28 274.34 669.16 276.25 669.6 277.33 669.6 278.42 669.93 280.08 670.23 280.63 669.39 282.48 669.03 283.53 669.56 283.68 669.32 284.93 670.13 285.09 669.83 286.52 670.83 286.71 670.02 291.01 669.8 291.8 669.72 292.59 670.03 294.58 670.27 295.08 670.62 295.13 674.38 295.38 675.15 295.41 674.97 296.25 674.31 296.32 673.69 296.7 673.33 297.24 673.38 297.49 673.02 298.86 672.81 309.64 666.29 309.53 665.85 309.42 665.31 311.29 664.58 312.27 663.45 314.9 663.41 315.39 664.14 317.05 663.69 318.16 663.63 320.45 663.77 321.02 664.53 322.14 665.27 322.4 666.17 323.29 665.5 323.15 665.73 323.67 664.41 323.84 663.32 323.46 662.51 323.46 661.18 323.13 660.74 323.51 660.3 323.12 659.76 322.96 658.92 322.94 658.6 322.71 657.98 322.67 657.75 323.45 656.69 323.16 656.11 322.85 656.04 322.19 654.71 322.14 653.12 321.44 652.17 321.2 651.1 321.26 649.25 321.67 647.41 323.26 646.61 324.25 645.76 325.44 645.3 326.27 645.25 327.09 645.03 327.96 645.15 328.35 644.51 328.53 643.92 327.82 643.52 326.92 642.44 326.23 641.32 326.29 640.34 325.93 639.34 325.97 639.43 326.47 638.81 327.34 638.71 327.96 638.13 328.22 636.99 328.14 635.48 328.2 634.26 327.99 633.19 328 632.18 328.17 631.71 327.79 631.11 327.82 630.44 327.44 629.91 327.36 628.79 326.39 628.22 326.47 626.4 325.99 626.11 325.76 625.32 325.67 625.12 326.76 623.66 325.32 622.64 324.9 622.26 324.96 621.49 325.59 618.61 327.22 618.6 327.47 617.91 327.83 617.68 327.52 617.03 326.15 616.32 326.15 615.92 326.32 612.69 326.94 612.54 326.85 615.71 326.15 616.92 325.91 616.71 325.48 615.97 325.75 615.42 324.83 614.27 324.79 612.37 324.07 611.89 323.38 611.53 322.23 610.93 321.49 609.83 320.51 608.75 319.67 608.48 318.69 608.52 317.89 608.81 317.5 608.37 316.59 607.28 314.1 604.36 307.26 603.95 306.94 602.72 306.23 602.66 305.85 600.93 305.28 600.88 305.18 597.54 309.07 594.04 313.38 591.64 312.69 589.87 312.23 581.99 309.95 572.24 307.21 568.39 306.1 563.55 303.99 562.49 303.61 561.13 303.01 559.65 303.02 559.24 303.1 558.35 304.87 558.11 304.95 555.17 304.99 555.22 305.3 554.7 305.48 553.98 305.49 553.9 305.06 552.86 305.04 549.51 305.08 549.32 304.84 548.38 305.01 548.45 305.58 546.26 306.06 545.81 305.73 543.98 306.25 544.08 306.67 543.54 306.69 543.24 305.47 540.71 304.4 539.86 304 537.85 303.17 531.96 300.62 531.73 300.69 531.26 302.54 531.1 302.87 528.39 303.03 526.54 303.18 522.63 303.57 520.11 302.81 518.31 302.41 516.78 301.92 513.7 300.76 512.2 300.13 511.68 300.68 511.37 300.7 510.19 301.1 510.05 301.43 508.69 301.49 508.2 301.94 507.49 302.16 506.94 302.19 506.25 302.4 504.55 302.68 499.03 303.94 498.87 304.19 498.82 304.98 498.53 305.14 497.87 304.83 497.27 304.79 496.71 304.97 496.57 305.84 495.63 306.08 494.99 305.68 494.27 305.49 493.74 305.52 493.56 305.83 493.35 307.1 493.34 308.31 493.04 308.22 493.11 307.29 487.96 307.77 482 308.25 481.93 307.91 481.76 305.65 481.46 305.95 481.42 306.51 481.45 309.33 481.25 309.31 481.24 306.23 480.75 305.73 465.72 312.67 465.43 313.54 465.01 313.77 464.45 313.32 464.12 313.9 462.53 314.54 460.92 314.61 460.43 314.45 459.87 314.47 459.15 314.24 458.59 313.41 458.84 312.11 458.54 311.85 458 312.21 457.97 312.88 457.55 313.5 457.18 313.44 456.84 313.83 456.34 313.88 456.39 314.31 455.32 313.88 455.16 313.1 454.68 312.91 454.05 313.21 454.24 313.48 453.74 313.77 452.95 313.74 452.53 314.1 451.58 314.1 451 313.77 450.88 313.32 451.1 312.76 450.32 312.17 449.11 312.72 448.81 312.27 448.82 311.83 449.12 311.34 448.95 310.77 449.25 310.56 449.42 309.63 449.88 309.55 449.98 308.59 449.67 308.53 449.65 307.95 449.39 307.6 450 306.75 449.75 306.3 449.89 305.43 449.43 304.84 449.22 304.21 448.21 304.2 447.59 303.91 447.49 303.48 446.92 303.65 446.22 304.22 445.19 305.33 444.38 307.31 443.34 308.32 442.45 309.65 442.64 310.26 443.29 310.44 444.1 310.98 444.62 311.21 444.6 311.76 444.04 311.87 443.43 312.22 443.03 312.65 443.02 313.32 443.74 313.46 443.55 314.13 444.16 314.48 443.8 314.8 442.67 314.88 440.52 314.55 440.29 314.61 439.13 313.44 438.68 313.51 438.52 312.88 437.93 312.45 438.02 312.19 437.37 310.99 436.69 310.12 436.3 309.92 435.04 310.31 433.58 309.93 433.52 309.52 432.85 309.08 432.4 309.14 431.92 309.57 431.36 309.79 431.04 309.51 431.07 309.1 430.83 308.65 430.26 308.38 430.07 308.56 429.47 308.48 429.63 308.12 430.05 308.05 430.13 307.71 430.74 307.39 430.77 306.4 430.08 306.06 429.5 305.61 429.13 305.94 428.17 305.91 427.39 305.73 426.62 305.24 426.15 305.16 425.65 305.68 425.28 305.51 424.62 305.78 424.56 306.32 424.2 306.42 423.97 306.03 422.66 305.68 422.33 305.68 421.82 305.01 421.82 304.01 422.17 303.25 421.73 302.71 420.87 302.75 420.33 302.89 419.79 302.85 419.21 302.41 419.28 302.05 418.83 301.92 418.78 301.24 418.12 300.84 417.89 300.51 417.82 299.79 418.19 299.19 418.51 299.28 418.95 298.75 418.9 298.41 418.27 297.42 417.55 296.1 417.04 295.72 417.5 295.41 417.83 295.93 418.24 295.47 418.17 294.65 417.56 293.1 416.9 292.15 415.96 292.28 415.34 292.01 415.24 290.57 414.52 289.59 414 289.1 413.34 288.78 412.35 288.64 411.84 288.84 411.9 289.64 411.21 290.11 410.8 290.15 410.29 290.49 409.77 290.06 410.72 289.64 410.59 289.08 411.05 288.96 411.21 288.4 410.97 287.97 411.05 287.05 409.62 285.48 408.74 284.67 407.45 283.87 406.65 283.6 405.99 283.14 405.02 282.7 404.63 282.64 404.72 283.26 404.21 283.31 403.57 283.82 402.24 284.39 401.58 283.72 400.1 283.17 399.27 283.05 398.68 283.35 397.94 283.49 397.33 284.67 396.49 285.74 396.41 286.61 397.09 287.15 398.66 287.37 398.6 287.56 397.11 287.38 396.65 288.01 396.64 289.2 396.38 289.2 396.35 287.56 396.2 286.48 396.33 285.65 395.61 286.29 395.8 287.13 395.6 288.05 395.62 288.81 395.11 288.7 394.92 288.05 394.11 285.77 394.32 285.32 394.15 285.05 394.68 284.62 394.37 283.37 394.57 283.04 394.34 282.64 394.83 282.24 395.16 282.31 396.25 283.84 396.66 284.66 397.3 284.35 397.52 283.91 396.94 283.16 396.9 282.77 396.04 282.25 396.31 281.98 396.32 281.47 396.85 281.33 396.75 280.84 396.34 280.23 395.67 279.65 395.9 279.42 395.95 278.9 395.68 278.66 394.94 278.38 394.62 278.41 393.79 279.59 393.91 280.09 393.3 280.42 392.82 279.97 392.78 279.55 391.97 278.48 392.34 277.87 393.06 277.95 393.63 277.29 393.76 276.77 393.59 276.45 393.16 276.22 392.96 275.67 392.63 275.54 393.3 274.86 393.24 274.34 392.23 273.66 391.26 273.92 391.12 274.34 390.03 274.06 389.11 273.98 388.68 274.36 388.3 273.57 388.63 273.22 389.2 273.27 389.67 272.75 389.39 271.15 389.14 270.78 389.12 269.96 389.24 269.48 389.2 268.77 389.55 268.22 389.84 268.24 389.64 266.52 390.05 265.46 390.36 265.59 390.85 264.53 391.35 264.54 391.74 264.1 391.58 263.63 391.36 262.26 390.99 259.36 391.33 258.99 391.56 259.37 391.55 259.94 391.89 262.9 392.34 263.15 393.2 262.83 394.39 262.9 394.71 262.71 396.63 262.74 397.42 262.47 398.61 262.39 398.3 256.19 398.26 256.02 397.23 256.09 397.17 257 396.14 257.14 395.83 256.72 392.36 256.52 389.55 258.29 389.19 257.95 390.96 256.88 392.17 256.08 392.45 256.01 393.97 256.09 395.3 256.25 396.6 256.15 397.1 255.9 398.35 255.82 398.69 255.09 399.16 254.42 398.72 254.4 398.35 254.62 398.05 255.24 397.16 255.78 396.42 256.1 395.9 256.18 394.49 256.08 394.23 255.19 394.38 254.88 394.19 253.94 394.6 253.57 394.58 253.15 394.81 252.69 395.32 252.12 396.57 251.75 396.37 251.41 396.64 250.97 397.55 250.17 398.26 249.73 397.95 248.07 397.93 247.5 397.62 245.75 397.37 244.69 396.88 243.73 396.56 243.36 395.85 243.17 395.45 242.9 395.58 242.29 396.2 241.96 395.81 241.04 395.03 240.73 394.67 241.32 394.26 241.58 393.39 241.89 392.91 241.76 392.78 241.09 392.35 241.05 391.84 241.78 391.5 241.67 391.01 241.82 391.03 242.38 390.77 242.45 390.9 243.07 389.97 242.51 389.63 242.08 389.1 241.75 388.61 241.7 388.11 240.89 387.66 240.8 387.2 240.38 386.74 240.42 386.25 239.79 385.82 239.75 385.48 239.02 385.62 238.55 386.22 238.04 385.99 237.66 386.44 236.91 387.71 237.77 387.95 238.72 388.7 239.14 389.21 238.91 389.22 238.57 389.74 238.4 389.94 237.74 390.7 237.09 390.5 236.85 389.88 236.65 390.14 235.77 391.12 236.12 391.69 235.86 391.44 235.46 392.41 235.56 392.86 235.41 393.07 235 393.58 234.84 394.2 234.4 394.41 233.83 394.14 232.8 394.15 231.83 395.08 231.42 394.51 230.75 394.71 230.3 394.5 230.11 395.35 229.53 395.77 230 396.19 230.02 396.73 230.58 397.33 230.37 397.69 230.03 398.09 230.61 398.02 231.79 398.33 232.05 398.79 231.95 399 231.27 399.32 230.86 399.73 230.69 400.5 230.79 400.65 230.55 401.67 230.57 402.13 230.23 402.54 230.62 403.03 230.59 403.02 230.23 403.69 229.96 404.07 229.53 404.4 229.47 405.14 229.86 406.37 230.19 406.78 229.91 407.52 228.75 407.79 228.57 408.61 228.49 409.25 228.97 409.47 228.27 409.83 227.6 410.42 227.49 410.57 227.16 411.02 227.15 411.26 226.77 410.97 226.45 411.12 225.92 410.94 225.55 411.06 224.92 410.5 223.74 410.94 223.71 410.79 223 410.9 222.4 411.35 222.3 411.54 222.75 412 223.22 412.47 223.97 413.06 224.19 413.64 224.2 414.15 224.04 415.28 223.24 416.25 222.04 416.54 221.4 416.78 220.08 417.41 220.06 417.77 219.77 418.31 219.76 417.75 219.09 417.52 218.58 418.15 217.28 418.54 217.35 418.48 218.17 419.44 218.1 419.19 218.61 419.44 218.82 419.94 218.73 420.37 218.37 420.92 217.45 420.8 216.29 421.5 216.27 422.24 215.25 422.4 214.09 423.85 214.12 424.47 213.73 425.24 212.85 425.48 212.94 426 212.62 426.35 212.1 427.1 211.81 427.11 211.45 427.64 211.2 428.89 211.49 429.37 211.4 429.97 211.57 430.06 211.79 429.77 213.44 429.45 214.19 429.4 214.64 429.09 215.12 429.04 216.31 429.8 215.92 429.81 215.72 430.42 215.18 430.87 214.95 430.61 214.16 429.95 213.72 429.88 212.98 430.24 211.66 430.68 211.92 431.45 211.35 432 211.32 432.49 210.81 433.31 210.44 434.87 209.3 435.08 208.79 435.49 208.5 435.07 207.72 436.06 207.08 438 205.5 440.54 203.37 441.08 203 441.5 202.99 441.97 202.45 442.61 201.09 443.17 200.78 443.55 200.81 444.2 200.23 444.68 199.61 445.09 199.66 445.41 200.07 446.03 199.65 447.15 198.39 447.43 197.88 447.9 197.53 448.86 196.42 449.34 195.41 449.93 194.98 450.86 194.73 451.53 193.77 452.04 192.79 452.12 191.43 452.46 190.43 452.02 189.8 452.16 189.21 452.67 189.14 452.86 188.55 453.16 188.24 454.09 187.83 453.81 187.5 453.92 186.81 454.43 186.64 456.91 184.62 457.54 184.41 457.8 184.08 458.56 183.9 460.17 184.74 460.41 185.41 459.54 187.14 458.88 187.7 459.39 187.97 459.95 188.48 460.5 187.88 460.27 187.66 461.04 186.82 460.92 185.49 461.28 184.94 460.7 184.98 461.01 184.26 462.21 182.17 462.61 181.28 462.88 179.63 463.17 178.9 463.73 177.8 464 176.91 464.37 175.28 464.8 173.8 464.94 172.7 465.17 172.08 466.05 170.86 467 169.96 467.59 168.54 467.16 168.28 467.73 167.86 468.18 167.81 469.76 167.86 470.67 167.77 471.76 168.06 472.97 168 474.25 167.81 475.17 167.38 475.5 167.36 477.11 166.3 477.42 165.93 478.36 165.63 479.93 165.01 480.44 164.88 480.86 164.46 481.77 164.48 482.22 165.35 482.05 166.13 482.56 166.28 482.67 165.62 482.39 165.11 482.6 164.42 482.98 164.31 482.84 163.75 482.92 163.12 485.02 161.56 485.62 161.29 486.11 160.79 486.62 160.81 487.98 160.32 488.28 160.33 488.88 159.85 489.53 159.98 489.98 159.5 490.49 159.34 489.51 158.01 489.48 157.72 490.12 156.64 490.33 156.77 489.77 157.94 490.81 159.49 491.54 159.1 491.02 158.18 491.18 158.07 491.86 158.9 492.5 158.39 491.36 156.77 489.37 153.82 486.49 149.7 484.22 146.33 483.21 145.03 481.79 142.98 475.85 134.31 474.19 131.77 472.83 129.91 472.71 129.63 468 122.76 466.85 121.39 466.32 121.93 466.11 121.69 466.51 121.29 464.41 119.34 463.8 118.84 463.14 118.95 462.27 119.94 465.25 122.66 465.77 122.61 465.75 123.04 464.99 123.29 464.73 123.22 462.64 121.27 461.85 120.69 461.13 119.97 460.91 119.49 462.09 117.4 460.49 116.17 460.38 115.24 457.95 113.38 457.29 114.17 457.08 114.01 458.39 112.3 461.43 114.63 462.89 114.49 463.24 114.78 465 113.95 466.14 114.75 466.55 115.47 466.61 115.99 466.6 118.1 467.12 118.41 468.16 119.51 468.85 120.43 470.22 122.49 487.69 148.01 494.04 157.33 494.45 157.87 496.07 157.77 496.86 157.97 497.28 158.26 499.8 160.21 500.79 160.17 501.32 160.64 501.49 161.5 503.41 162.99 504.45 163.24 505.06 163.69 505.31 164.39 504.6 165.07 504.12 165.27 503.36 165.97 504.16 167.23 504.31 168.57 505.23 169.57 505.72 169.58 505.96 170.72 506.25 171.51 506.05 172.39 506.4 173.19 506.56 175.73 507.3 173.37 507.67 170.94 508.85 168.52 509.91 167.77 508.92 167.62 508.25 166.97 507.11 166.61 506.67 166.14 506.62 165.77 506.08 165.37 506.11 165.07 506.74 164.52 507.19 163.74 507.93 163.22 508.22 162.55 509.43 161.9 510.06 161.05 510.15 160.47 513.7 156.45 513.84 155.98 514.31 155.43 514.71 155.81 515.18 155.9 516.79 155.33 517.73 154.38 518.11 154.62 518.52 154.47 518.77 153.78 518.52 153.15 517.95 152.45 518.34 151.97 518.73 151.13 519.92 149.53 520.47 148.65 521.31 147.57 522.56 146.17 523.64 145.24 524.18 144.87 524.95 144.93 525.18 145.63 526.27 145.79 527.31 145.37 527.96 144.89 529.31 143.07 529.66 142.42 530.58 142.22 530.96 141.3 532.72 140.55 533.69 139.68 535.97 137.32 536.76 136.42 538.97 133.15 539.25 132.86 540.71 130.87 541.29 130.2 541.76 130.1 542.19 129.22 542.16 128.47 542.69 126.79 544.49 123.98 544.75 123.26 545.74 121.52 545.59 121.28 545.82 120.61 546.54 119.06 547.28 117.99 548.35 116.87 549.19 115.68 550.85 113.61 551.81 112.06 552.39 110.31 552.28 109.53 551.76 109.64 551.68 108.27 552.24 107.8 552.4 107.36 553.67 106.45 554.57 106.17 555.39 105.44 556.37 105.13 556.95 104.59 560.44 101.14 560.16 100.9 536.89 78.97 518.52 61.62 511.97 55.43 511.63 55 511.7 54.52 521.38 44.23 522.6 42.88 530.93 31.89 534.22 27.52 537.53 23.01 539.78 20.06 542.1 17.45 543.67 15.92 545.48 14.38 547.67 12.79 549.5 11.65 551.6 10.46 554.45 9.2 557.62 8.15 562.75 6.6 565.41 6.26 566.75 6.03 567.69 5.74 568.81 5.19 571.57 4.13 574.18 3.3 577.85 2.18 580.39 1.54 582.62 1.18 584.39 1.02 586.27 1 589.21 1.24 590.53 1.47 592.9 2.1 594.54 2.63 595.7 3.07 597.47 3.89 638.02 26.72 639.82 27.65 640.07 27.68 641.06 27.39 644.36 26.75 645.58 26.78 653.99 28.83 655.01 29.3 654.79 28.85 648.73 14.58 646.66 9.83 645.66 7.25 Z" fill-rule="evenodd" id="35580000"/>
</g>
</svg>