<?xml version="1.0"?>
<svg xmlns="http://www.w3.org/2000/svg" version="1.2" baseProfile="tiny" width="800" height="1110" viewBox="0 0 800 1110" stroke-linecap="round" stroke-linejoin="round">
<g id="sigung">
<path d="M 273.39 1076.63 269.51 1074.99 256.84 1066.92 250.55 1059.46 243.05 1065.41 241.21 1066.37 239.48 1064.4 231.66 1054.61 230.91 1054.66 228.33 1055.89 229.95 1057.89 222.62 1063.96 223.47 1065.17 219.7 1071.84 218.17 1077.36 217.51 1078.22 209.36 1067.84 208.91 1068.23 195.88 1051.92 204.25 1045.84 206.01 1048.13 202.89 1029.79 199.62 1014.89 196.21 1003.27 194.21 997.7 192.41 993.38 200.18 987.21 196.67 982.35 188.38 982.7 187.42 980.54 187.42 980.33 200.92 980.25 202.79 980.33 210.24 989.42 213.99 986.77 217.59 991.24 214.24 994.53 219.1 1000.61 220.78 999.77 221.77 1001.1 220.51 1002.35 223.77 1006.39 224.77 1006.14 228.04 1004.25 228.26 1004.63 224.68 1006.59 245.48 1032.66 245.02 1033.05 248.49 1037.43 247.63 1038.45 263.06 1057.7 260.18 1060.09 264.94 1065.95 268.7 1063.08 273.21 1068.73 269.67 1071.96 273.39 1076.63 Z M 477.03 942.47 480.11 947.67 482.57 950.77 488.53 954.75 493.73 958.09 498.8 961.58 512.6 980.03 515.48 983.77 516.41 985.83 491.67 1004.38 466.07 1023.62 460.75 1027.7 455.11 1031.87 446.08 1019.79 444.75 1020.78 444.06 1020.46 440.78 1016.16 437.48 1014.37 436.46 1012.99 435.59 1013.05 432.92 1010.68 431.67 1011.4 428.95 1009.22 427.63 1007.88 427.6 1007.19 425.66 1005.38 425.3 1000.61 426.04 996.59 426.88 994.18 427.94 992.83 427.93 991.46 428.49 988.64 429.33 988.33 431.22 980.91 433.14 976.85 438.2 969.72 441.82 964.88 447.15 957.26 448.15 955.64 449.05 952.78 452.08 936.56 453.07 935.9 456.35 935.77 466.94 938.7 473.26 940.52 475.9 941.49 477.03 942.47 Z M 633.53 856.79 636.22 861.32 639.28 864.81 640.24 866.7 643.99 869.18 646.01 871.95 648.05 872.32 650.52 873.97 651.9 873.77 654.28 875.28 656.74 876.01 657.5 876.98 657.46 878.2 655.28 882.66 655.24 884.99 654.17 891.52 652.53 895.75 651.39 900.32 650.9 900.63 650.89 903.15 650.52 904.17 648.61 906.82 649.55 907.26 649.12 909.46 647.28 909.64 644.91 915.57 644.79 917.39 646.46 918.29 648.63 922.71 649.17 925.12 650.37 926.86 652.3 928.14 655.13 928.16 656.04 927.6 672.57 927.65 703.44 927.61 704.39 927.94 719.71 927.96 729.74 928.03 731.04 928.73 735.32 928.77 766.93 960.53 778.78 972.29 794.65 988.2 794.63 1040.2 794.68 1071.16 794.63 1088.62 794.73 1095.63 770.08 1095.79 762.48 1090.68 739.99 1075.91 735.79 1075.88 734.87 1076.46 732.85 1076.68 731.32 1076.36 730 1076.81 729.2 1075.51 730.94 1073.76 729.76 1072.49 726.35 1072.49 726.35 1038.89 689.66 1031.08 605.58 1013.27 577.74 1007.35 577.99 1006.08 575.19 1005.49 574.91 1006.81 565.08 1004.71 565.68 1002.99 562.66 1002.34 562.98 1000.03 561.42 999.35 561.2 1000.4 554.43 998.98 554.02 1000.83 550.89 1000.82 549.95 1000.06 549.88 998.5 550.89 998.27 550.89 989.11 550.37 989.03 550.3 985.41 549.46 984.33 549.28 982.89 549.72 981.76 550.85 980.85 551.33 978.05 552.28 977.72 552.31 976.38 550.59 976.38 550.95 973.95 550.92 956.69 551.1 954.99 548.87 951.25 548.52 947.07 548.15 946.57 548.2 939.38 548.31 938.39 549.89 936.47 551.83 935.66 553.05 934.68 558.92 934.69 560.2 935.73 564.44 935.7 565.45 934.68 567.73 933.2 569.79 931.44 570 933.03 569.03 934.26 579.69 927.77 581.55 926.54 581.49 924.66 581.96 921.32 581.89 916.52 582.09 907.42 582.33 906.69 587.82 900.68 590.75 897.63 601.11 886.35 605.13 881.49 607.18 877.82 608.21 875.26 610.37 869.12 612.16 867.3 617.36 865.58 624.23 863.04 626.66 861.39 627.08 860.48 627.61 856.48 628.05 855.42 630.88 854.37 631.94 854.48 633.53 856.79 Z M 718.84 812.91 716.88 812.35 716.14 809.69 716.68 808.44 719.15 809.46 719.94 811.11 718.84 812.91 Z M 716.58 798.73 711.47 798.63 708.78 803.2 707.52 807.55 704.69 811.25 701.67 814.8 699.87 816.14 697.27 816.61 695.22 816.63 697.02 823.16 700.26 832.08 701.33 831.81 703.26 830.1 704.72 829.47 706.93 829.4 710.9 826.73 711.53 824.98 712.36 824.15 717.44 822.56 719.4 822.48 721.48 823 724.21 824.25 724.74 825.89 727.28 829.01 728.71 829.76 730.15 832.43 731.48 834.09 732.91 834.91 734.18 837.18 738.09 840.96 737.94 841.75 741.32 845.23 742.38 846.56 743.5 846.6 744.63 847.82 746.46 853.62 746.26 855.22 744 856.3 743.59 864.73 743.26 868.47 744.46 870.7 745.13 873.45 745.06 875.83 743.09 881.92 740.02 885.03 739.76 888.36 739.76 893.98 745.44 894.01 745.43 920.81 738.17 920.95 736.45 922.06 735.51 921.52 715.84 921.57 713.37 921.74 703.31 921.79 680.04 921.8 680.11 923.04 679.16 923.31 677.25 922.16 674.75 921.08 674.1 919.85 672.73 918.63 672.8 917.01 671.94 913.33 670.72 911.39 671.15 909.25 669.98 907.88 666.49 901.82 666.49 901.58 663.06 895.88 662.65 894.55 662.01 889.52 659.19 883.34 659.31 876.08 659.03 874.21 657.28 866.83 657.21 865.57 660.01 856.96 661.1 855.09 664 852.69 670.15 848.38 673.41 845.7 677.39 842.67 682.82 840.59 699.04 832.37 695.86 823.65 692.82 816.84 690.86 817.14 689.13 818.42 687.26 818.63 685.56 820.03 679.8 822.54 677.15 824.01 675.53 823.91 673.26 825.41 671.31 824.03 671.33 825.25 670.41 826.59 666.7 828.67 662.75 831.29 660.82 831.55 660.59 833.47 657.64 836.03 651.89 838.26 650.02 837.76 649.85 841.64 648.78 841.69 646.22 840.04 630.56 843.59 629.49 844.79 626.18 846.78 624.58 847.5 622.11 849.5 620.13 852.32 615.55 856.65 615.33 857.75 613.01 861.94 610.9 864.71 608.9 865.31 603.92 870.33 602.07 871.93 601.32 871.09 593.85 878.75 590.69 882.22 585.59 889.09 579.6 897.78 577.19 901.44 571.41 909.65 571.76 911.85 572.45 913.51 572.17 915.05 571.46 915.44 568.83 915.56 566.84 915.32 566.06 916.26 560.47 918.84 549.52 923.3 547.45 924 544.03 925.57 541.62 927.38 538.64 930.69 537.26 933.46 534.69 939.44 536.32 940.33 535.5 943.33 535.87 946.88 536.35 947.2 536.3 950.08 534.9 949.18 532.57 954.3 528.89 952.73 524.75 962.18 528.76 963.97 529.71 964.62 523.99 977.46 515.93 973.86 512.97 972.69 510.19 969.08 502.38 958.69 498.47 957.03 485.21 948.46 484.12 947.27 484.54 945.6 483.74 944.53 480.98 943.26 480.69 942.53 481.23 939.83 480.94 938.17 479.37 937.28 476.13 936.67 471.14 936.24 469.66 935.6 466.63 935.64 463.72 934.17 459.68 932.47 456.53 931.39 451.81 931.46 450.94 933.74 448.97 934 449 936.73 447.53 940.08 447.57 941.32 446.21 943.38 445.05 946.81 443.42 949.34 444.22 951.55 442.9 953.68 444.32 955.53 442.2 956.98 442.51 959.77 440.53 960.03 439.64 961.09 429.77 976.65 429.87 978.15 428.54 979.13 426.08 987.77 425.63 990.02 426.93 991.76 427.11 993.38 425.53 993.84 425.53 994.95 424.55 996.23 423.72 1001.35 423.77 1002.7 423.21 1003.97 423.81 1008.04 425.61 1008.35 426.25 1009.7 427.26 1010.26 428.67 1012.02 432.13 1014.8 438.53 1017.47 441.97 1022.05 442.12 1022.75 439.45 1024.77 448.47 1036.79 411.69 1064.42 387.07 1082.82 352.38 1108.96 352.21 1109 342.93 1097.76 338.52 1092.52 340.46 1090.76 344.55 1087.62 330.95 1071.1 306.1 1041.15 311.66 1036.5 319.45 1035.11 324.13 1034.12 332.34 1032.65 337.82 1031.55 349.06 1029.45 358.58 1027.57 364.11 1026.57 368.74 1026.09 372.38 1025.37 375.58 1023.43 383.31 1021.93 386.28 1021.08 387.3 1021.18 398.42 1019.07 402.43 1016.45 404.05 1015.71 403.69 1014.22 399.57 1014.7 396.67 1015.5 391.44 1017.3 384.23 1016.67 382.81 1016.89 384.68 1019.37 383.08 1019.89 380.65 1016.66 378.39 1016.91 375.22 1018.97 372.32 1020.44 369.91 1021.19 368.94 1021.14 368.17 1022.97 363.46 1023.81 360.29 1023.49 358.7 1023.75 355.38 1025.16 353.51 1024.88 352.92 1025.31 347.08 1025.67 346.61 1024.64 341.19 1025.86 338.83 1024.79 337.43 1022.34 336.18 1023.99 334.8 1025.12 333.11 1025.5 331.26 1027.15 328.64 1028.78 329.09 1027.01 330.04 1026.73 332.78 1024.74 333.46 1022.97 332.41 1022.7 330.84 1024.28 329.43 1024.22 327.24 1025.9 327.07 1026.99 325.93 1029.36 324.62 1030.4 324.68 1031.53 322.8 1031.64 319 1026.79 316.66 1026.41 316.03 1025.78 313.06 1025.75 315.78 1029.89 315.06 1030.81 313.75 1029.72 308.83 1030.68 297.76 1039.68 295.82 1038.52 294.31 1037.18 293.07 1037.08 290.96 1034.51 289.63 1032.24 286.76 1030.6 285.7 1029.2 285.67 1027.54 286.99 1027.29 279.78 1016.9 263.17 981.93 264.04 984.38 268.12 993.23 267.02 991.88 265.77 989.13 263.17 988.74 262.91 986.5 263.61 984.02 261.88 980.76 261.73 979.14 256.71 969.27 255.8 968.65 254.76 966.25 251.52 964.59 228.45 952.38 226.81 952.56 224.56 953.99 212.48 957.15 208.21 958.18 195.94 961.42 171.55 967.94 170.65 968.55 168.93 970.93 165.99 980.19 165.57 979.27 164.17 979.63 160.59 976.15 161.12 975.24 161.91 951.23 162.24 950.93 164.06 898.35 163.1 897.08 160.82 895.37 157.29 893.72 156.5 892.06 154.82 890.81 153.44 891.31 153.85 895.24 153.55 897.57 152.79 898.42 150.13 900.33 147.38 901.37 145.43 900.52 139.37 901.16 136.32 901.24 135.48 900.09 133.03 898.58 130.35 898.75 127.78 897.21 127.71 894.7 128.96 894.25 128 890 125.46 889.99 122.67 887.83 121.6 885.91 120.71 881.91 119.48 880.98 119.99 879.43 119.6 878.7 117.62 877.13 115.44 877.15 114.71 879.37 112.54 880.78 109.54 879.55 106.92 879.88 101.24 878.54 98.98 876.76 100.35 873.03 102.73 869.58 104.33 868.99 105.63 866.21 108.15 863.11 107.81 860.17 105.5 858.52 104.94 854.07 103.73 853.54 103.43 852.29 101.48 853.22 100.41 853.21 98.93 851.72 96.22 851.19 94.72 850.39 93.42 848.88 93.47 847.65 90.6 844.62 87.46 844.21 85.68 843.06 84.09 842.59 82.92 840.69 80.67 838.9 79.97 837.51 78.74 837.87 77.64 836.27 77.87 835.45 76.71 834.41 74.69 833.7 73.91 832.82 71.77 833.1 71.3 831.47 71.83 830.26 71.38 828.54 70.45 827.6 70.74 823.64 70.48 822.1 72.17 818.6 73.68 817.6 73.51 814.78 76.43 813.77 77.68 811.07 77.18 808.45 75.79 808.77 75.4 807.73 75.83 806.11 75.4 804.23 73.82 801.89 72.74 801.19 69.98 795.08 66.62 789.54 66.08 786.25 69.73 782.4 75.88 778.31 81.97 779.17 84.25 779.24 86.73 778.29 88.95 777.91 89.52 774.97 93.7 773.22 94.41 769.98 94.02 768.9 100.28 761.01 99.86 757.2 99.1 754.28 96.38 749.71 92.48 747.78 91.28 745.58 87.68 742.02 86.92 742.05 84.97 739.87 84.09 737.73 80.65 734.61 79.59 733.31 77.21 732.1 75.67 728.93 76.41 726.73 80.21 725.17 81.36 725.52 83.07 725.34 83.4 723.97 85.71 719.63 84.97 718.24 84.85 716.41 84.02 713.4 86.73 713.01 90.15 707.66 89.74 702.11 90.17 700.61 93.2 698.61 94.78 697.07 98.11 692.19 101.25 690.64 102.21 687.48 105.01 685.85 105.88 684.55 107.41 683.79 110.21 683.62 113.21 682.72 113.98 681.26 117.23 679.09 121.43 678.52 122.9 678.11 123.56 674.78 124.48 674.77 128.03 673.11 131.31 673.68 130.83 671.16 129.97 669.45 130.07 664.96 128.38 660.89 126.29 657.86 122.61 652.93 119.83 649.9 117.61 649.3 114.26 647.9 111 646.25 109.45 645.71 108.45 644.32 108.41 642.57 107.71 640.73 106.82 639.7 106.62 637.69 107.16 634.67 106.34 633.29 106.18 630.74 104.75 627.4 103.12 624.83 101.35 621.55 101.92 617.48 100.39 614.83 100.84 609.94 100.18 608.6 101.15 606.38 104.1 600.87 105.24 599.04 106.04 596.84 106.2 594.52 107.33 590.85 109 587.09 105.87 582.8 104.6 581.46 100.91 576.54 98.34 574.81 96.72 572.01 95.93 569.28 96.21 558.62 97.19 555.18 98.69 552.5 99.2 547.64 97.32 546.44 92.63 542.53 89.9 542.09 85.5 539.51 84.09 538.42 82.2 536.15 80.08 535.65 79.09 534.29 77.61 533.25 75.05 529.03 71.89 527.57 71.47 525.41 67.63 524.01 66.35 522.74 64.99 522.04 64.6 520.46 61.79 516.92 59.29 512.31 53.49 506.48 51.62 505.52 47.32 502.52 46.1 500.52 41.89 496.27 35.72 494.19 35.38 490.76 34.15 488.54 33.06 485.82 31.47 483.35 31.21 479.46 26.92 473.51 25.16 472.17 23.17 470.14 17.14 465.27 15.89 462.73 15 461.66 9.43 458.39 8.81 457.75 9.34 455.42 9.66 452.27 9.11 449.12 8.97 446.7 8.32 443.17 5.36 440.36 4.88 438.74 2.88 435.18 2.59 431.6 2.73 427.66 2.62 423.67 1.05 416.88 1 414.9 2.51 411.28 1.36 409.21 1.97 407.86 2.47 404.51 3.5 399.74 4.27 397.27 4.9 391.64 6.31 388.57 7.69 386.3 10.59 383.41 11.94 380.66 13.73 378.52 15.61 377.69 17.29 375.98 20.08 369.38 20.22 368.2 19.07 364.88 18.85 363.22 17.61 359.59 14.34 352.88 15.67 349.71 15.79 346.64 15.31 342 13.82 337.75 12.63 335.3 12.67 331.67 11.29 328.52 12.16 327.17 13.13 326.79 14.8 325.33 17.37 324.97 18.03 324.14 18.38 321.73 19.41 317.79 20.62 316.16 21.41 314.41 21.76 311.91 23.2 307.4 22.75 304.2 21.55 300.5 22.23 296.78 22.26 295.42 22.91 293.32 24.86 291.13 24.09 289.38 25.76 287.76 26.89 288.15 28.48 290.02 29.86 291.98 34.33 294.34 36.35 297.67 38.54 298.69 41.06 300.57 42.39 301.04 43.75 304.34 46.8 305.32 48.77 306.69 50.22 308.18 51.87 310.46 54.88 311.55 57.02 312.68 61.84 314.11 66.16 316.18 70.56 319.73 72.53 319.65 73.91 320.81 76.39 321.38 77.9 323.85 80.85 326.54 81.42 328.03 82.2 328.59 84.99 327.82 86.3 327.05 88.61 326.33 91.18 325.93 94.29 325.99 96.29 324.7 99.03 324.35 100.66 325.37 103.43 325.6 104.5 325.09 106.03 321.3 107.18 319.51 110.21 316.14 112.42 312.57 113.01 309.35 114.47 307.76 115.56 305.84 116.27 302.78 117.16 300.97 116.5 298.61 117.11 297.07 116.57 294.38 117.24 291.16 115.68 286.79 117.1 284.54 116.63 281.09 116.76 278.01 119.73 276.55 122.01 274.74 123.53 274.84 125.65 275.61 128.7 274.66 130.59 274.56 131.8 274.05 132.66 271.78 133.67 270.22 137.1 266.56 141.59 265.2 142.72 264.63 144.42 263.06 146.33 262.73 149.42 261.3 151.77 258.7 153.97 258.05 155.78 258.08 159.19 257.34 161.27 255.79 167.06 252.25 170.92 249.24 172.59 246.57 173.59 243.62 176.37 241.19 177.62 237.82 182.9 237.86 187.17 236.66 188.17 235.07 190.96 233.44 192.94 233.3 198.5 235.14 199.44 234.25 202.31 233.12 203.8 231.1 205.79 229.54 207.33 229.11 208.45 226.92 211.09 226.11 217.21 229.24 220.34 230.13 221.6 231.52 222.98 233.71 224.42 235.09 226.8 236.69 230.43 236.86 239.31 239.25 239.3 233.94 239.46 227.48 240.29 221.36 241.03 217.36 241.32 208.72 242.18 204.66 241.96 202.17 242.75 198.24 243.53 196.54 243.29 195.26 241.87 191.79 241.81 190.2 239.71 186.96 239.52 184.74 241.4 178.09 241.75 175.92 244.2 173.6 244.02 170.58 245.06 169.03 246.58 163.61 246.41 160.3 247.27 155.08 247.32 151.81 247.11 149.18 246.15 147.25 243.19 147.99 241.58 147.17 240.25 145.25 241.39 143.4 239.95 135.68 238.23 134.16 238.91 130.09 238.72 126.3 239.08 123.71 241.52 120.84 241.43 118.53 242.44 116.79 243.04 114.59 243.74 113.54 244.45 111.3 244.29 108.1 244.95 103.91 244.65 98.35 246.79 95.71 247.59 93.47 247.09 88.48 248.29 85.89 248.28 83.86 248.76 81.94 252.35 79.46 253.69 79.14 254.9 76.63 254.78 74.14 256.69 73.09 258.38 70.61 258.51 67.8 260.02 67.29 260.98 65.97 262.73 64.57 265.56 63.46 267.36 59.92 267.59 58.36 268.32 57.11 270.54 54.89 272.98 55.11 273.58 54.16 273.64 51.89 274.7 49.5 273.39 46.15 274.41 40.34 274.66 36.88 275.33 36.01 281.55 31.13 282.18 30.17 282.35 27.69 283.18 25.93 285.63 22.65 286.83 20.54 287.03 17.65 286.46 16.47 286.26 10.95 287.91 8.67 288.91 8.07 292.56 7.17 295.18 4.95 298.44 1 300.41 1.43 302.33 1.87 306.39 3.36 309.05 5.01 313.86 10.05 317.63 15.5 319.44 19.28 321.3 22.41 323.09 24.93 325 26.74 333.87 32.54 339.8 36.22 344.9 42.23 347.46 45.03 350.01 49.75 351.79 55.6 356.5 61.41 362.02 68.97 364.16 72.33 366.07 74.91 370.25 80.07 373.2 83.22 382.45 85.14 389.91 86.05 395.83 85.59 399.51 85.72 406.61 88.29 407.66 90.64 409.39 95.71 423.31 103.61 430.12 109.07 433.99 113.75 440.02 118.12 446.67 122.44 451.69 126.51 456.72 131.04 461.03 135.81 465.01 142.48 470.57 149.18 473.47 151.33 482.7 162.55 490.12 168.82 496.55 175.91 506.83 190.99 512.46 202.65 514.91 213.51 515.4 216.02 516.86 229.39 515.62 242.76 516.06 256.12 516.13 269.49 516.08 282.86 523.53 299.55 532.45 305.97 536.42 309.59 540.24 311 552.21 322.96 556.94 331.06 560.59 336.33 570.17 349.69 573.64 357.98 579.25 363.07 581.46 367.02 586.26 370.16 590.34 371.9 599.34 376.44 607.05 380.13 611.55 382.15 616.7 385.08 623.76 389.8 631.69 393.36 636.81 396.79 643.37 403.17 650.53 416.54 651.02 420.08 652.49 434.13 653.4 437.77 654.59 441.05 664.77 449.9 672.36 454.89 682.25 460.48 690.12 465.4 701.97 470.01 707.3 471.61 711.23 471.07 715.18 470.93 720.67 471.22 726.45 472.14 729.01 473.4 732.2 476.56 736.55 483.38 739.5 486.64 740.67 488.47 742.5 492.9 743.36 496.75 745.62 503.06 745.95 510.12 749.09 523.49 749.25 534.04 749.38 536.85 751.98 550.22 757.38 557.9 761.28 561.91 762.89 563.78 764.92 568.51 766.2 570.96 769.77 576.96 773.27 581.91 774.08 583.41 777.54 585.64 780.57 587.03 782.94 588.47 784.72 590.33 789.14 593.63 792.64 597.32 794.74 601.37 796.11 607.3 797.08 609.61 797.78 614.42 797.5 617.06 798.28 622.23 798.46 627.38 798.23 630.43 798.81 634.39 799 637.02 798.48 639.06 796.39 643.8 795.79 647.71 794.56 652.92 794.08 657.17 793.5 659.19 790.78 664.84 789.03 669.18 787.6 674.44 785.7 679.69 783.35 683.9 782.5 686.68 782.54 688.29 781.39 691.73 780.12 697.27 780.62 701.9 780.67 708.02 780.51 710.64 779.83 713.13 777.58 717.29 775.96 719.15 772.22 721.99 769.23 724.01 764.5 730.88 760.82 737.85 759.82 739.31 757.37 741.36 753.56 745.48 747.14 750.75 745.27 751.78 740.66 753.04 737.02 755.42 734.39 757.64 730.45 761.77 728.84 764.11 728.16 768.26 727.22 771.73 723.22 778.48 721.7 782.93 720.2 790.85 717.34 796.35 716.58 798.73 Z" fill-rule="evenodd" id="36060000"/>
</g>
</svg>