<?xml version="1.0"?>
<svg xmlns="http://www.w3.org/2000/svg" version="1.2" baseProfile="tiny" width="800" height="1295" viewBox="0 0 800 1295" stroke-linecap="round" stroke-linejoin="round">
<g id="sigung">
<path d="M 734.34 608.51 733.07 608.94 731.75 611.55 731.24 614.26 729.75 615.59 728.45 617.91 729.65 621.11 729.39 622.27 729.37 625.72 731.22 630.27 731.12 632.37 732.68 632.42 731.27 636.88 729.76 639.92 728.4 643.47 724.61 645.27 721.24 649.52 718.74 652.1 718.08 655.69 720.68 656.04 722.15 655.11 722.29 658.36 720.6 660.84 720.13 662.75 720.75 665.31 720.32 667.45 718.53 671.26 717.15 673.18 717.64 682.02 718.66 686 718.88 688.04 720.24 688.94 719.53 692.71 719.51 695.17 718.84 697.08 719.94 699.04 722.41 700.51 723.78 702.27 724.79 706.01 724.58 711.16 727.57 712.88 728.58 715.27 728.91 717.37 730.43 718.95 732.8 722.31 734.67 722.67 737.92 724.04 741.48 726.12 742.42 728.55 743.14 729.5 742.45 732.63 742.17 736.43 738.03 738.65 739.69 741.68 738.37 744.11 738.44 746.25 739.82 751.46 739.87 752.53 737.29 753.59 736.79 754.78 735.7 755.21 730.96 760.61 728.14 765.72 724.4 768.09 721.45 768.64 719.47 770.08 718.56 771.95 719.51 776.67 718.88 779.76 715.49 780.17 713.25 784.38 711.91 785.55 709.67 786.2 707.95 788.16 707.65 789.34 705.8 790.54 705.48 791.73 703.12 794.69 698.66 797.01 696.05 799.16 690.82 805.25 688.72 806.08 687.55 808.23 693.57 811.68 699.02 817.13 702.38 821.63 703.05 823.98 706.54 827.32 706.75 828.84 705.27 832 705.47 833.26 706.76 834.64 707.84 838.65 706.2 844.39 709.06 849.22 712.36 854.12 711.3 857.19 714.92 858.26 718.94 860.36 719.36 861.41 721.55 864.22 723.43 865.17 724.56 866.44 724.93 869.16 723.63 871.95 723.57 874.36 724.61 878.36 724.46 880.52 724.69 886.09 723.81 893.05 726.64 895.76 728.37 898.31 729.39 901.18 729.41 903.23 731.72 904.61 733.71 905.09 735.14 905.98 737.09 908.65 737.21 911.2 736.05 917.93 738.99 922.12 739.58 925.05 741.62 930.2 743.86 932.87 745.96 937.36 746.85 939.9 750.33 942.29 753.07 944.9 753.57 946.37 756.25 948.21 756.22 950.54 755.62 952.21 755.82 953.16 754.83 955.48 755.16 956.64 754.37 959.4 754.9 962.44 757.17 964.59 759.5 965.36 763.97 968.82 764.1 971.7 762.95 974.33 761.15 976.16 760.98 978.95 761.33 980.42 761.63 985.53 761.32 986.81 764.43 990.57 768.38 991.48 772.27 994.78 776.68 991.47 778.37 991.32 782.71 995.38 785.41 998.86 788.02 1000.44 790.76 1000.65 791.65 1000.13 793.27 1001.46 799 1002.57 797.81 1002.92 795.33 1004.31 793.65 1006.29 794.71 1010.51 793.76 1012.35 792.95 1013.07 789.83 1013.51 788.18 1014.28 784.21 1015.68 781.65 1014.89 778.26 1015.49 775.71 1016.17 773.36 1015.83 772.92 1016.69 769.48 1015.85 766.07 1016.07 760.81 1018.07 757.53 1018.42 754.22 1020.01 752.91 1020.87 748.93 1022.45 745.93 1024.06 743.4 1024.78 740.36 1027.3 737.55 1027.6 736.24 1028.26 733.25 1031.32 730 1036.54 726.79 1040.58 725.55 1043.17 724.56 1046.13 723.44 1048.3 716.94 1046.02 717.61 1047.16 714.98 1052.05 709.95 1051.08 707.07 1053.01 703.41 1054.48 701.35 1055.9 697.67 1053.57 695.84 1055.04 693.33 1055.23 690.44 1056.99 687.08 1057.62 685.06 1055.78 682.16 1054.21 679.62 1053.26 677.08 1051.2 673.91 1050.31 672.28 1050.43 668.09 1051.52 665.67 1050.31 664.85 1050.37 661.74 1049.5 658.6 1047.28 655.45 1045.53 655.37 1044.11 653.96 1040.4 652.73 1039.55 649.93 1040.46 643.08 1041.42 640.84 1042.59 640.78 1043.93 639.91 1045.46 640.2 1047.34 639.77 1048.66 638.23 1050.9 635.43 1053.88 635 1056.33 635.49 1059.98 637.04 1061.61 638.99 1062.94 640.72 1064.71 641.42 1066.21 643.13 1068.64 643.22 1069.58 645.1 1072.75 645.56 1074.04 647.33 1076.62 648.23 1081.3 647.7 1083.01 648.25 1084.51 646.41 1086.99 644.55 1090.76 647.13 1093.59 647.94 1098.46 647.74 1101.29 648.54 1107.16 648.41 1109.2 647.71 1113.26 646.73 1114.87 648.04 1120.54 648.58 1121.22 651.36 1122.68 653.16 1126.69 654.01 1128.09 655.75 1131.85 658.29 1136.34 660.17 1137.35 662 1141.54 663.91 1145.03 661.7 1151.94 663.08 1156.55 667.96 1158.67 672.31 1164.93 675.23 1166.91 676.87 1167.74 678.54 1169.46 681.84 1172.38 683.1 1175.08 686.19 1176.87 688.45 1176.96 691.37 1177.86 692.08 1181.65 693.18 1184.88 695.46 1187.55 695.74 1188.93 696.7 1190.57 695.8 1192.4 695.15 1195.28 695.9 1197.84 695.9 1199.3 696.44 1201.9 695.91 1204.43 695.25 1205.69 695.34 1207.98 696 1209.97 702.11 1213.37 702.07 1216.02 703.4 1220.78 704.73 1223.64 704.91 1226.94 705.64 1228.3 708.41 1231.22 709.27 1233.81 709.53 1235.89 707.4 1237.29 709.65 1238.72 711.99 1239.21 712.66 1242.23 710.44 1242.32 710.93 1246.07 710.76 1249.86 709.96 1254.02 707.46 1252.14 703.96 1252.28 696.16 1256.11 693.46 1258.97 693.3 1260.71 691.45 1261.47 689.06 1261.23 687.86 1261.56 686.38 1262.66 683.97 1263.88 682.04 1265.88 680.51 1266.98 681.89 1270.14 682.66 1272.92 683.3 1276.46 685.29 1279.57 681.26 1281 678.01 1283.14 676.93 1283.43 670.37 1284.4 665.28 1288.17 663.11 1289.26 660.24 1292.23 657.46 1294 656.29 1293.35 653.42 1290.71 651.92 1289.87 650.67 1286.99 649.27 1285.16 644.52 1282.26 642.71 1279.09 640.9 1278.33 638.18 1276.44 636.04 1273.31 634.06 1272.85 632.5 1274.61 630.69 1275.59 626.5 1274.33 624.81 1276.13 616.51 1273.32 613.8 1272.17 613.51 1270.71 611.7 1269.4 610.54 1267.28 610.84 1264.92 610.18 1263.02 607.05 1257.39 606.99 1255.46 604.16 1251.35 600.56 1252.37 599.52 1251.46 596.86 1250.97 595.04 1249.85 594.26 1246.05 593.28 1244.93 591.81 1244.1 590.98 1244.87 589.28 1244.96 587.76 1243.82 586 1243.42 583.98 1243.61 582.32 1244.53 579.83 1248.99 579.76 1250.05 576.61 1248.76 575.44 1246.14 574.39 1245.71 573.69 1244.42 572.77 1244.09 570.02 1244.15 569 1242.36 566.76 1242.75 566.59 1240.97 565.24 1239.53 562.06 1238.68 559.42 1239.38 559.12 1237.55 557.41 1236.25 556.65 1237.33 554.36 1237.75 553.85 1238.7 552.58 1238.51 551.72 1239.08 550.24 1238.98 547.15 1236.84 544.93 1236.1 543.18 1234.03 539.61 1233 538.54 1233.34 535.6 1230.94 534.11 1229.31 531.51 1227.03 527.62 1224.03 524.37 1220.07 522.4 1219.67 517.94 1217.74 515.11 1217.1 513.17 1215.63 510.06 1214.41 502.21 1211.88 500.85 1210.87 495.46 1213.34 492.97 1213.57 489.18 1216.26 487.36 1219.3 485.99 1220.84 484.09 1223.68 482.56 1225.22 480.46 1226.59 474.4 1228.31 468.21 1228.45 468.56 1225.35 468.21 1218.32 468.21 1216.02 468.87 1204.13 469.92 1198.83 469.36 1197.14 466.64 1195.81 463.57 1191.12 464.99 1189.14 464.57 1183.42 465.87 1175.74 469.62 1173.53 471.08 1169.91 468.95 1164.92 467.39 1159.94 466.41 1154.89 466.25 1151.16 466.61 1148.27 465.26 1146.66 468.23 1144.87 472.03 1140.97 475.49 1135.59 477.33 1126.78 475.28 1125.21 473.06 1122.92 472.08 1118.07 475.4 1110.12 476.21 1108.89 479.7 1108.62 483.7 1109.26 486.57 1110.94 492.72 1111.98 495.52 1109.84 503.38 1104.33 505.01 1104.87 509.26 1089.74 507.11 1087.37 506.66 1083.55 497.91 1081.13 495.09 1078.89 494.04 1078.5 489.63 1073.98 489.13 1070.78 487.09 1069.83 486.41 1066.34 485.77 1065.19 484.61 1064.8 485.14 1062.15 484.23 1059.08 482.34 1056.47 477.5 1054.27 474.74 1052.24 473.06 1050.45 471.96 1048.13 467.55 1045.02 466.78 1043.17 465.34 1040.98 463 1038.61 460.88 1037.71 458.21 1036.11 452.86 1034.62 448.51 1029.88 444.59 1027.32 443.78 1026.46 441.72 1025.37 438.08 1025.18 436.23 1024.7 432.99 1024.58 430.68 1025.06 426.93 1028.33 424.29 1032.19 421.05 1034.01 414.9 1034.32 413.35 1034.01 408.32 1031.66 407.39 1029.88 406.46 1029.17 404.95 1026.74 403.06 1025.17 401.05 1026.25 398.94 1026.03 397.57 1027.15 393.03 1031.89 394.44 1033.36 395.63 1035.47 393.34 1038.11 391.18 1041.58 389.63 1043.07 387.28 1043.41 385.32 1041.68 381.29 1042.09 380.03 1041.29 379.01 1039.1 376.58 1037.67 375.88 1034.99 368.99 1037.56 366.67 1036.47 363.02 1035.26 360.02 1036.92 358.1 1038.53 357.41 1039.61 358.34 1042.89 358.27 1044.81 356.95 1049.73 356.48 1053.61 356.59 1055.92 356.11 1058.47 352.85 1057.95 350.41 1056.38 347.69 1055.54 345.37 1053.66 342.24 1048.62 341.96 1045.05 339.93 1041.96 339.05 1041.82 335.27 1039.3 333.81 1036.42 333.25 1033.14 331.62 1030.79 328.41 1028.68 328.13 1027.48 326.64 1025.75 324.18 1025.25 323.6 1023.96 320.55 1020.86 319.35 1019.11 319.31 1018.14 318.32 1016.21 318.74 1015 318.76 1012.31 316.81 1010.42 316.63 1009.21 317.88 1007.9 318.69 1005.75 318.42 1004.51 319.49 1003.66 322.11 1002.67 323.95 1002.29 325.87 999.46 325.32 997.12 325.98 996.67 328.85 991.13 331.25 990.97 333.34 988.75 332.45 986.8 334.37 983.16 335.92 983.16 337.19 981.93 338.15 982.12 339.73 980.22 339.2 976.77 337.49 971.72 336.34 970.52 335.3 970.58 334.02 971.52 330.13 971.45 328.11 969.98 323.94 967.77 321.24 965.34 319.97 963.36 316.72 960 313.47 958.61 309.89 957.59 310.19 956.81 310.21 954.05 309.05 951.59 307.41 949.88 306.16 949.54 305.81 947.31 302.98 945.05 302.98 941.44 302.72 939.84 301.36 938.74 299.44 938.57 297.46 935.69 296.84 933.87 297.09 931.18 295.82 929.59 292.89 928.7 292.25 927.5 291.98 925.51 290.08 920.81 289.78 918.73 289.14 916.83 287.17 913.72 287.04 910.21 287.35 906.99 289.87 901.93 291.86 899.19 294.68 895.82 296.31 895.49 298.66 894.27 300.39 892.28 302.16 890.94 301.53 889.59 297.55 892.97 296.08 893.4 292.96 887.29 291.1 885.47 289.38 882.95 289.02 880.65 287.86 877.82 284.8 873.61 283.18 870.6 279.32 870.05 274.77 870.06 270.95 867.03 270.58 861.85 269.33 859.1 268.59 855.03 268.75 853.17 267.17 850.7 264.37 851.12 261.38 848.98 259.16 846.98 255.55 844.56 253.71 843.57 251.04 843.23 249.15 840.84 244.93 840.17 243.02 836.72 240.6 836.79 236.95 834.14 237.99 830.79 238.91 825.42 239.54 824.89 239.75 822.87 240.75 820.04 240.51 814.43 241.47 811.55 240.9 809.33 238.35 803.79 233.84 796.67 231.99 795.59 228.28 791.08 225.35 791.61 223.78 792.52 222.16 792.48 220.97 791.89 219.79 790.12 218.06 789.02 215.59 788.42 211.93 790.1 210.16 788.98 207.77 788.78 204.05 787.74 202.99 787.12 201.31 784.78 196.79 782.27 196.85 780.96 197.53 780.03 195.75 779.01 194.05 776.85 189.44 773.82 188.01 774.21 184.62 772.63 183.68 769.38 176.51 769.02 172.84 768.38 167.83 768.47 161.73 769.31 155.87 769.2 153.86 769.77 151.71 770.81 149.72 772.23 147.71 774.66 145.11 778.73 142.27 782.55 139.82 785.49 135.43 788.66 128.49 791.03 125.42 793.07 121.36 795.47 117.34 797.33 113.3 800 111.94 801.63 111.1 803.84 108.45 809.48 107.9 811.87 105.25 811.16 103.74 812.12 100.77 813.04 97.91 813.47 97.05 811.69 94.69 812.03 92.87 810.59 88.28 810.04 84.23 808.97 82.5 808.89 81.22 808.17 79.72 808.39 76.41 806.73 75.42 805.67 74.65 802.85 74.74 801.46 76.58 797.7 77.55 793.9 77.28 791.95 75.91 788.7 76.74 786.86 75.39 780.38 74.92 779.32 72.74 776.13 72.8 773.23 70.46 768.37 68.53 765.6 67.92 762.38 67.99 761.13 64.76 758.03 61.96 753.03 61.32 750.66 59.04 745.85 57.84 744.97 56.2 742.64 55.28 738.54 54.32 736.73 52.67 735.16 51.93 734.97 50.38 733.28 49.38 732.74 48.42 730.12 48.28 728.52 46.66 725.69 46.33 723.68 45.68 722.53 44.15 721.9 42.89 719.24 42.55 717.77 41.87 717.33 40.07 717.39 38.2 718.21 37.48 717.54 35.19 714.11 33.88 711.11 34.51 710.17 35.09 707.82 35.67 706.91 32.95 704.12 31.13 699.59 30.03 695.04 30.71 690.44 30.99 689.65 29.29 684.31 28.52 681.32 27.1 678.69 26.03 677.25 25.41 674.84 23.67 672.78 23.22 667.06 22.41 665.45 20.89 658.88 20.2 656.5 20.29 655.38 19.65 653.47 18.59 651.49 16.45 650.29 14.66 648.35 10.91 645.39 6.65 641.27 1 635.37 4.4 632.83 7.74 629.34 10.19 623.97 10.68 621.57 12.71 620.35 14.89 617.84 16.4 617.63 19.29 615.98 20.98 613.27 20.72 612.8 22.52 610.76 22.02 608.4 22.42 606.75 22.76 602.82 22.6 600.62 23.62 598.17 22.51 592.79 23.39 591.28 23.66 588.16 22.86 580.78 22.28 579.69 19.34 577.07 21.55 570.93 23.15 568.05 24.29 564.84 26.19 563.81 24.86 559.74 24.48 553.29 25.43 549.94 26.72 548.94 25.26 545.92 23.32 538.12 22.22 537.75 27.08 532.29 32.34 532.16 35.8 532.78 38.11 532.12 40.4 532.28 46.59 530.88 52.73 530.22 58.82 531.86 59.87 530.7 62.23 529.93 64.18 530.46 65.22 531.23 68.83 531.58 70.85 531.29 72.73 530.6 74.26 532.14 76.93 534.27 80.18 536.08 83.81 533.53 86.89 531.62 88.28 530.4 89.46 529.96 90.67 528.46 94.12 526.42 96.44 523.9 99.32 521.12 102.59 519.14 99.44 512.35 96.41 508.04 95.67 503.77 93.5 501.57 91.5 497.76 89.02 492.39 86.05 489.02 83.18 484.86 82.32 482.25 82.33 478.54 78.31 475.32 77.08 473.35 77.19 471.01 77 468.1 73.46 465.21 67.7 462.08 66.51 458.77 67.04 456.74 68.75 455.01 69.07 452.34 68.73 451.39 68.77 449.01 71.43 446.74 71.38 443.38 72.28 443.19 73.55 441.73 74.56 439.24 75.84 431.94 76.19 422.06 80.94 424.8 82.5 427.17 85.85 427.53 88.28 427.37 89.4 424.04 89.49 422.57 90.23 420.49 88.92 416.22 89.06 413.73 88.84 411.91 89.42 411.21 91.33 407.02 90.86 403.94 89.88 401.94 88.65 400.32 89.04 399.47 91.19 397.35 93.05 392.95 93.86 389.89 91.93 386.01 93.75 385.12 94.87 383.82 96.21 380.84 98.77 379.24 98.61 377.35 100.45 375.14 104.88 375.2 108.88 376.83 110.34 376.03 113.13 375.75 114.19 376.09 117.62 374.72 120.64 372.85 123.36 372.52 126.52 371.38 126.41 368.8 125.95 367.07 127.75 362.77 130.72 359.74 132.54 356.11 133.45 352.68 134.94 350.02 137.61 350.2 138.91 349.16 141.61 347.82 145.7 346.71 148.94 344.78 148.06 341.78 148.23 340.8 147.42 339.17 147.79 333.62 148.24 331.58 148.44 328.28 153.39 328.19 154.3 327.49 154.92 325.88 156.01 324.71 157.62 323.89 159.52 321.98 160.31 321.66 161.67 319.52 163.33 319.42 165.35 317.2 168.1 316.1 169.07 314.77 172.71 314.24 175.91 314.46 178.28 311.85 180.54 311.24 181.59 308.25 183.19 306.44 182.42 304.15 182.67 300.66 184.02 296.77 185.35 294.9 188.49 298.04 189.25 299.94 191.59 300.8 192.08 301.77 193.4 302.08 195.86 303.77 196.91 304.16 198.37 306.42 200.13 308.13 201.95 309.03 204.03 311.95 204.58 313.89 204.57 317.6 206.13 319.06 209.31 321.23 211.9 322.32 213.23 320.47 213.92 317.78 213.4 313.95 213.51 311.06 213.25 308.68 213.68 307.34 215.63 305.16 219.29 302.73 219.92 301.49 219.21 299.12 217.17 298.39 215.67 295.77 215.3 289.16 214.45 287.32 214.26 285.93 213.08 283.21 213.48 277.76 213.44 275.19 212.46 273.9 212.69 272.21 214.57 269.32 214.67 267.73 216.61 265.64 216.19 262.29 216.36 260.76 217.32 258.07 215.77 254.92 215.64 251.13 214.16 248.81 211.73 248 209.08 245.52 207.77 244.71 205.3 244.23 202.41 242.23 198.6 239.28 200.71 235.13 205.14 235.15 207.88 234.3 209.68 234.71 210.45 232.03 211.91 231.62 213.3 230.59 215.23 230.34 220.16 228.03 221.91 226.58 225.02 226.91 226.83 226.38 230.57 224.31 231.98 224.24 233.37 225.51 236.15 224.67 240.25 224.01 240.54 225.1 240.31 228.7 238.85 233.46 237.96 234.26 236.93 236.45 237.18 238.79 236.91 240.62 232.91 240.89 231.44 242.62 230.53 244.39 230.44 245.78 232.16 247.2 231.87 248.71 232.37 251.05 235.24 253.04 238.33 252.17 239.27 255.78 239.76 261.81 239.27 264.01 241.07 264.43 243.28 263.91 244.71 262.76 245.85 263.25 246.64 266.55 247.38 267.31 249.46 266.23 252.67 265.98 254.81 264.88 256.52 264.5 259.34 263.37 261.18 262.13 261.59 260.67 262.66 264.84 264.52 268.14 271.53 265.34 275.13 266.96 279.66 263.16 281.06 261.79 284.74 262.61 285.52 261.27 287.19 260.42 288.72 262.43 291.03 263.86 295.87 265.19 297.51 265.07 299.97 262.13 300.76 262.01 301.91 260.43 303.72 258.92 307.81 259.87 309.24 259.51 313.37 260.03 318.33 261.59 321.34 263.25 325.53 264.69 329.24 264.5 330.39 265.13 334.9 263.31 339.85 260.44 342.3 260.53 344.16 260.29 346.41 259.13 348.27 256.39 351.72 257.68 353.13 254.83 354.68 252.85 357.45 250.65 359.11 249.78 362.76 246.79 367.63 247.25 369.65 246.36 370.77 243.79 370.41 241.81 370.64 239.71 369.99 238.23 369.98 236.93 370.97 234.86 371.09 233.25 370.45 231.65 370.37 229.08 369.9 225.02 368.87 223.8 369.29 219.72 366.41 213.79 365.14 212.98 365.45 211.03 364.97 209.48 362.83 204.89 361.78 204.24 361.41 203.09 358.94 200.05 357.87 198.44 356.68 194.58 355.66 192.55 355.58 186.6 354.7 182.12 353.17 179.07 353.46 176.16 352.13 173.53 352.38 169.84 351.83 161.55 352.95 156.09 354.35 152.16 354.98 146.44 355.43 144.47 360.81 144.01 364.43 144.17 372.14 142.76 373.47 143.74 376.06 143.34 377.98 145.55 380.47 147.07 386.35 148.26 386.8 147.18 386.9 142.33 390.36 136.04 393.36 134.99 396.76 135.69 395.6 131.18 394.75 130.67 392.49 126.82 391.65 123.54 391.61 122.06 393.96 117.15 395.11 116.24 397.46 111.07 399.45 110.85 400.84 110.25 402.53 110.36 404.49 107.55 408.91 105.16 410.3 102.36 412.64 101.75 416.12 102.4 416.81 101.53 419.05 100.55 423.79 99.54 425.35 99.74 425.48 98.62 426.87 94.31 425.93 91.05 425.81 89.71 426.7 85.53 427.43 84.71 431.29 82.3 434.83 78.08 435.73 76.5 436.59 72.11 436.31 68.91 436.7 68.29 437.79 64.07 437.57 62.48 439.13 59.28 440.38 58.41 440.88 56.25 441.96 54.8 442.41 53.19 443.49 47.52 442.04 45.95 439.64 40.98 435.85 35.2 438.58 27.95 440.22 20.57 440.24 17.38 441.86 14.65 444.24 12.45 449.08 9.32 450.94 8.79 456.03 11.2 462.06 16.62 471.59 19.04 478.67 24.81 481.29 30.24 484.93 33.3 487.45 30.29 488.23 28.86 494.12 28.61 497.01 26.08 499.83 21.82 503.65 19.12 509.42 15.75 512.66 10.6 514.03 9.64 521.15 7.42 523.67 10 524.72 11.56 528 9.76 531.71 8.78 535.71 5.02 539.56 3.5 540.88 1.54 542.21 2.52 543.96 1.69 546.57 1 547.68 4.27 547.45 6.06 547.64 8.36 549.71 16.74 550.87 17.72 552 25.94 550.14 28.79 548.69 32.98 547.19 36.32 547.28 41.55 548.52 44.14 548.49 45.95 549.73 52.63 548.8 54.19 548.15 58.33 547.41 70.8 550.7 74.15 552.9 79.52 552.94 82.02 552.36 83.37 551.69 86.32 553.81 91.41 555.14 98.49 554.68 98.96 554.58 103.06 555.46 105.58 557.29 107.41 556.23 112.23 556.53 115.7 556.42 117.89 554.55 121.66 555.37 123.46 557.75 125.73 563.09 129.28 566.97 126.38 568.33 126.29 571.62 123.41 573.9 122.59 576.45 122.79 579.14 128.88 580.49 130.89 582.37 130.82 589.79 131.86 593.82 139.92 596.5 145.54 599.72 148.7 598.19 151.97 595.3 156.8 593.82 158.89 591.92 162.57 592.08 168.46 591.05 174.43 587.35 178.11 587 183.83 586.49 189.07 584.19 198.47 583.47 202.18 582.55 205.5 580.91 212.67 579.63 217.32 578.1 219.88 580.64 224.97 584.54 229.24 583.6 235.24 584.08 237.05 583.51 238.41 579.88 241.17 578.09 242.05 574.42 245.39 572.57 248.95 567.76 251.23 566.12 251.01 564.25 247.84 562.43 247.55 558.51 248.66 554.46 249.39 550.27 247.68 546.3 248.17 543.96 247.76 542.24 246.45 541.13 244.68 532.84 248.17 527.94 247.48 523.38 247.06 523.29 249.17 525.3 251.48 526.65 254.23 525.03 259.57 525.26 262.49 524.74 266.15 526.62 267.81 530.77 272.29 532.67 274.04 532.47 276.7 533.8 283.07 534.71 284.06 537.46 284.11 539.82 285.46 542.16 284.47 544.24 285.49 547.04 284.94 547.19 283.63 548.79 282.57 549.71 283.33 548.24 285.66 547.21 286.65 546.58 288.18 547.04 290.76 546.57 291.39 548.92 296.32 550.69 298.11 557.06 301 558.78 302.42 560.01 304.33 561.23 305.47 562.2 309.82 563.06 311.83 563.09 313.11 562.44 315.07 560.7 317.12 559 318.09 559.89 319.75 562.03 320.48 564.79 321.81 566.33 321.77 569.17 322.88 573.89 326.69 578.4 328 581.58 329.7 584.74 330.6 589.37 329.94 592.46 328.89 594.48 327.53 596.8 324.42 597.63 322.92 599.14 321.93 599.89 319.35 602.31 317.21 603.23 315.75 604.16 313.25 608.07 309.71 608.53 308.27 610.02 306.05 610.51 303.52 614.04 306.27 615.98 309.92 616.17 312.92 616.9 314.83 619.95 316.23 621.4 318.86 624.61 322.89 626.71 324.5 627.95 326.24 628.69 328.39 628.96 331.21 630.95 332.97 632.87 332.97 636.13 334.98 638.08 335.16 637.38 338.33 635.54 344.33 634.76 348.55 635.19 349.77 634.48 353.11 633.6 353.89 633.9 357.5 636.48 358.86 636.94 359.78 638.99 361.75 641.89 362.43 643.95 363.79 647.95 369.29 649.97 371.66 655.1 373.65 655.17 374.76 653.25 377.85 652.79 380.15 650.7 384.7 649.34 385.47 647.7 388 648 392.85 646.49 393.83 645.79 395.76 646.05 396.3 644.81 398.99 641.79 400.24 638.95 402.24 639.47 403.64 638.7 406.73 639.17 407.89 638.84 409.08 642.63 412.44 646.75 413.47 648.76 416.08 651.28 421.57 653 425.68 648.47 430.3 649.98 432.39 651.71 435.89 650.68 438.62 649.67 440.56 647.66 441.35 646.61 445.09 644.77 446.95 645.6 447.6 646.35 449.19 647.18 449.86 647.38 454.43 649.42 455.91 651.47 458.37 651.39 459.28 653.96 461.75 654.72 465.13 653.4 467.42 654.2 468.49 652.91 470.16 650.54 471.67 650.06 472.42 648.65 472.18 646.59 472.49 646.06 473.89 640.15 477.17 638.48 480.55 633.82 480.59 632.28 481.66 630.32 481.58 629.26 480.52 627.09 479.48 625.76 478.11 622.76 477.48 618.21 477.07 617.36 473.69 615.59 472.16 612.48 467.69 610.44 465.35 608.76 463.85 606.57 464.92 603.96 465.24 602.15 466.46 599.95 466.8 599.46 467.91 599.2 472.16 598.81 472.95 600.27 476.22 600.57 478.92 600.24 480.54 600.39 482.83 597.98 484.86 595.4 485.65 594.44 486.96 594.14 492.12 596.21 495.52 597.31 497.92 595.06 498.79 595.17 502.59 596.01 505.22 595.77 506.97 593.57 509.42 591.27 510.16 591.29 512.99 590.41 514.68 589 515.78 588 515.91 586.3 517.96 584.46 520.81 580.88 521.3 579.82 524.48 578.74 525.35 577.38 525.42 576.18 526.62 575.83 528.39 573.67 531.32 572.05 534.6 572.96 536.17 574.85 537.3 575.41 538.79 578.8 541.52 580.11 544.64 581.47 546.72 584.43 548.27 587.74 548.59 590.94 548.18 591.79 551.12 592.6 551.62 595.45 552.27 595.68 553.65 598.63 554.24 599.74 553.15 602.7 551.9 604.17 549.59 607.76 549.28 610.89 551.53 611.78 551.28 613.12 549.68 614.71 549.55 615.65 551.8 618.84 554.02 620.72 553.38 621.11 552.41 622.37 551.8 625.74 551.46 628.55 552.11 630.56 553.74 631.73 557.06 633.89 559.94 636.14 564.12 637.26 565.68 641.51 566.61 642.58 566.63 643.94 570.71 646.18 571.96 647.53 573.16 650.27 573.08 655.13 570.31 659 569.41 661.84 571.16 664.33 571.75 665.77 572.51 669.12 575.32 670.09 575.65 674.4 575.95 676.26 575.04 681.35 575.85 683.21 576.41 683.97 577.42 687.25 578.21 687.95 579.41 690.05 581.12 690.95 582.35 691.63 584.72 695.41 585.55 696.42 585.48 697.75 586.59 700.65 586.65 701.72 586.36 704.18 586.81 705.91 587.79 707.82 589.76 708.81 589.6 711.71 590.53 713.61 594.07 715.58 595.56 717.41 598.02 720.87 599.62 721.29 600.53 722.57 601.01 725.45 600.55 726.09 601.09 726.49 603.27 727.47 603.87 730.31 603.95 730.06 605.34 734.34 608.51 Z" id="36510000"/>
</g>
</svg>