<?xml version="1.0"?>
<svg xmlns="http://www.w3.org/2000/svg" version="1.2" baseProfile="tiny" width="800" height="786" viewBox="0 0 800 786" stroke-linecap="round" stroke-linejoin="round">
<g id="sigung">
<path d="M 730.56 100.78 732.63 103.55 733.95 104.75 735.64 106.99 734.65 108.62 735.03 113.72 733.42 118.87 731.29 122.77 729.79 122.98 728.06 125.03 727.97 129.33 727.38 130.82 725.78 133.93 724.47 136 724.71 137.55 723.15 141.45 723.46 142.87 722.87 143.96 722.99 145.87 724.15 150.74 722.68 152.5 722.51 153.47 720.76 154.87 720.03 156.09 721 157.49 720.85 159.39 721.54 159.69 721.88 161.67 722.31 162.34 723.56 166.57 727.43 165.79 733.66 169.44 736.86 170.75 737.95 171.52 741.97 170.93 742.53 172.69 742.43 175.11 743.03 176.78 742.68 178.53 741.89 180.05 741.83 181.02 743.21 184.47 742.95 185.5 743.47 186.08 745.93 187.22 747.07 188.98 747.11 190.42 747.93 192.12 747.97 193.39 748.93 196.04 748.95 198.79 749.42 200.49 749.04 202.33 749.51 202.97 750.46 205.45 751.71 205.63 751.93 207.88 751.31 209.02 751.1 210.42 752.36 212.2 754.03 213.71 755.95 214.35 754.92 216.88 755.64 218.01 755.5 218.92 754.58 220.97 755.37 222.23 755.27 223.13 755.75 226.29 757.69 225.96 758.74 227.03 758.42 231.55 759 232.06 759.47 233.64 759.44 235.36 760.8 236.71 761.41 237.83 761.92 241.33 764.63 243.28 765.31 245.51 765.34 248.98 765.69 249.85 768.55 254 771.71 257.69 770.99 260.45 771.23 262.37 770.3 263.46 768.92 265.72 770.26 267.6 771.29 269.94 772.51 270.52 771.97 274.5 773.21 274.8 774.12 276.31 774.27 277.69 775.05 278.6 775.13 279.44 772.43 280.02 771.09 280.86 770.06 282.77 770.66 284.45 769.46 285.91 768.54 287.72 767.26 288.43 766.13 288.55 763.47 290.32 763.09 291.99 761.09 292.41 759.9 291.88 758.87 292.01 756.82 291.38 754.7 291.12 752.93 290.65 748.47 291.2 747.51 291.81 746.34 291.68 745.11 292.01 744.26 293.03 743.17 293.56 742 295.18 741.48 296.5 741.12 298.59 740.54 299.76 740.54 301.08 739.91 302.66 738.37 304.97 735.93 305.91 734.34 307.54 734.16 308.29 732.36 309.83 732.27 310.77 731.32 313.25 728.71 314.99 727.52 317.62 725.98 317.36 721.9 319.12 719.49 319.68 718.6 319.42 716.92 321.16 715.93 323.11 715.37 325.69 714.75 326.42 713.8 326.71 710.27 326.07 708.84 326.22 707.56 325.71 705.94 326.51 704.11 326.35 702.55 325.93 698.9 325.48 697.93 324.82 697.13 321.83 696.67 321.46 693.41 320.49 692.38 318.86 691.53 318.04 690.29 320.79 689.3 324.71 688.88 328.12 689.25 329.28 690.36 330.95 691.63 334.67 692.91 336.61 693.41 338.26 694.83 339.91 696.9 342.69 698.48 344.51 700.87 347.9 702.91 349.81 705.22 351.33 707.58 353.75 707.94 354.86 706.67 357.05 703.89 360.99 702.88 362.94 702.05 365.43 701.55 368.82 701.42 374.52 701.54 378.38 701.47 381.53 701.59 384.01 702.66 386.96 703.36 389.88 704.88 395.04 705.84 399.28 706.67 401.61 708.47 405.13 709.52 407.73 711.23 410.5 711.96 412.93 712.42 418.31 712.73 420.62 715.6 422.52 720.05 426.7 726.74 430.34 730.26 431.62 740.15 435.05 746.38 434.68 748.81 434.07 751.94 433.86 757.31 432.58 759.57 431.88 762.02 431.48 767.15 431.02 770.09 430.92 775.87 431.09 778.67 431.35 781.41 432.04 786.24 433.94 786.01 435.7 787.84 435.53 791.36 435.53 792.07 435.83 791.5 439.28 791.19 444.04 790.04 445.52 790.46 447.18 789.41 450.87 787.33 452.01 787.3 453.65 787.74 454.53 786.37 457.26 786.24 458.67 785.48 460.14 786.19 462.22 787.65 463.84 787.81 468.57 787.56 469.95 786.81 470.82 786.17 473.86 787.36 474.68 787.28 475.91 789.02 478.41 790.94 479.46 791.59 481.08 791.58 482.52 793.88 484.84 794.05 485.8 795.36 487.7 795.44 488.77 796.09 490.41 796.26 491.7 797.11 493.02 795.69 494.44 796.58 497.32 796.65 498.97 796.38 500.08 797.12 502.09 796.27 503.2 796.76 504.5 795.98 505.43 795.6 506.66 795.79 508.16 794.59 509.83 794.74 511.13 794.36 512.63 793.4 513.69 793.15 515.97 792.78 517.09 793.56 519.16 794.8 520.26 794.89 520.94 795.97 522 796.07 523.07 796.64 523.97 797.91 524.63 799 526.53 798.21 527.27 798.26 528.87 797.02 531.15 796.92 532.5 795.5 535.63 797.51 537.57 796.34 540.54 795.73 542.67 795.49 544.3 795.71 545.4 794.07 548.49 794.4 549.82 795.72 551.34 795.46 555.04 794.7 558.13 793.59 560.94 792.29 561.84 788.77 563.33 787.42 564.52 785.6 564.48 783.54 566.04 780.93 565.98 780.06 566.75 779.4 568.23 779.52 569.4 780.31 570.86 778.83 572.16 777.26 572.18 775.93 573.97 774.01 578.48 773.16 579.75 770.89 580.14 769.91 581 771.03 583.76 772.32 586.37 772.74 587.86 773.96 589.91 772.17 592.37 771.68 593.33 768.94 596.53 767.81 597.13 767.42 598.14 764.48 600.42 762.73 602.84 761.89 604.75 760.33 605.81 759.45 607.69 760.37 608.42 759.17 610.35 757.56 611.85 755.16 613.49 753.53 612.95 752.57 613.77 751.51 614.1 749.96 613.99 749.4 614.65 746.95 615.25 743.33 614.79 740.7 617.04 739.12 618.61 736.38 617.65 735.89 618.86 736.46 620.93 737.13 621.91 737.28 624.41 737.32 630.14 735.26 631.66 733.92 633.25 732.75 634.17 731.13 634.85 731.04 636.26 730.26 637.89 730.88 640.25 730.55 641.26 729.57 641.62 728.37 642.69 727.37 645.23 726.65 645.6 726.89 648.95 727.5 650.95 729.08 652.62 729.12 654.76 728.88 656.4 727.79 659.98 725.39 661.32 724.27 661.53 724.31 664.19 723.89 664.89 722.38 670.84 718.94 671.7 717.63 675.64 717.39 679.37 717.09 680.32 715.38 681.66 713.7 682.57 714.14 685.22 714.08 686.08 713.05 687.11 712.13 689.13 712.34 690.86 711.63 691.83 710.49 692.67 708.31 692.67 705.4 692.92 703.15 694.89 702.56 695.14 700.88 697.13 695.58 699.37 694 699.38 689.92 698.73 688.91 698.69 687.27 700.69 683.49 700.95 681.2 699.3 679.96 699.87 677.38 700.53 675.77 701.57 674.61 701.65 673.02 702.78 672.65 703.82 671.23 705.24 669.18 705.09 666.12 704.33 665.45 703.33 661.61 702.14 660.05 701.49 657.16 701.6 655.15 701.04 653.81 701.15 650.93 700.58 649.78 698.61 649.05 698.43 647.49 699.17 644.82 699.3 641.99 700.28 640.37 699.45 637.88 699.44 636.59 699.75 635.46 700.64 635.04 701.88 633.19 704.23 631.46 705.27 629.35 705.33 627.75 708.93 625.52 711.94 624.43 712.52 623.41 713.52 620.89 713.71 619.66 714.51 618.42 717.03 617.82 718.92 618.02 720.53 616.76 723.08 616.07 727.09 615.47 727.8 615.28 728.94 614.69 729.41 614.47 730.88 614.54 732.8 614.95 733.35 616 736.1 616.24 738.16 617.3 740.19 618.51 740.99 619.14 744.96 619.68 745.6 620.43 747.88 620.47 749.91 618.53 753.36 618 753.71 617.62 755.19 616.95 756.27 616.05 758.51 615.02 760.04 613.59 761.4 610.58 762.79 608.82 764.76 607.83 766.64 606.12 768.48 605.5 770.51 604.25 772.41 603.78 774.89 602.81 775.86 597.97 776.48 595.57 778.27 593.44 777.92 590.82 780.44 589.45 781.21 588.19 780.71 587.71 781.55 586.43 782.63 585.13 782.85 583.61 784.71 582.26 784.51 580.76 785 578.39 783.45 577.94 781.85 577.01 780.93 576.5 778.21 573.72 776.14 572.99 774.66 570.24 771.8 569.2 770.97 567.07 770.26 564.41 769.68 563.7 768.7 560.76 766.66 559.38 767.15 558.2 767.21 556.21 766.31 555.16 766.11 553.53 764.68 551.33 765.07 550.2 766.05 546.3 765.87 545.26 764.32 544.49 764.07 542.31 764.14 540.86 763.97 539.71 762.37 538.18 762.9 535.01 763.32 534.1 763.05 530.75 764.92 530.24 765.06 528.07 760.54 527.24 757.45 527.21 756.31 526.26 754.23 526.47 752.63 525.88 750.92 525.68 748.87 524.12 748.52 520.78 746.24 518.44 745.38 516.36 743.84 515.84 742.72 513.58 740.23 512.05 739.28 511.51 737.79 510.95 737.26 510.99 735.69 510.2 735.05 509.35 735.5 507.65 735.22 506.76 735.86 503.64 736.46 501.45 737.23 500.69 737.16 497.91 739.82 495.31 739.38 494.77 738.95 493.25 740.14 491.49 740.79 490.05 740.64 487.6 739.04 486.22 739.88 485.89 738.85 484.87 738.25 484.46 735.81 484.88 735.26 484.54 733.84 483.63 733.05 483.15 730.8 482.72 726.65 482.7 725.02 480.1 721.66 479.07 721.24 474.83 722.66 471.2 726.02 470.53 726.23 470.24 728.64 470.51 729.52 469.87 730.89 467.65 732.25 462.49 736.05 461.41 735.93 460.16 737.48 457.72 737.23 456.4 737.98 454.55 739.6 452.62 740.77 451.75 740.72 449.87 742.75 447.52 743.08 446.42 742.56 446.72 744.22 446.08 745.2 444.62 746.22 442.35 746.7 441.04 747.8 439.44 748.15 438.11 749.17 436.07 748.33 435.48 746.66 434.81 745.97 433.44 745.54 431.55 743.74 433.32 739.02 432.91 735.76 431.6 732.72 430.09 733.85 428.04 738.56 428.78 735.56 428.81 732.44 431.42 731.69 433.32 730.45 434.86 728.8 435.83 727.14 436.3 722.91 435.95 720.12 435.54 718.58 433.2 714.41 432.31 711.54 433.75 709.78 433.91 708.15 433.43 706.21 432.03 703.83 430.24 702.32 428.96 701.55 427.77 698.53 426.5 696.9 423.24 694.4 420.84 693.26 415.74 689.65 414.89 686.37 411.53 682.68 409.29 679.29 407.6 677.13 406 674.6 404.02 672.11 400.54 665.61 397.84 665.82 397.19 666.4 397.76 667.62 398.67 668.15 398.02 670.54 397.17 671.75 397.43 673.18 398.63 674.66 398.13 676.13 398.6 679.88 398.61 681.42 398.29 684.41 397.81 686.54 397.15 688.19 398.19 689.29 397.45 691.44 393.47 691.23 392.76 692.09 391.58 691.73 390.46 690.86 387.94 690.59 386.99 689.5 387.25 686.51 387.68 684.48 386.86 681.21 387.13 678.88 387.62 678.02 387.62 675.24 388.25 671.88 385.58 670.93 383.18 669.49 382.31 669.37 380.82 668.29 379.25 668.39 375.94 666.27 372.31 665.49 372.7 662.65 371.32 660.92 371.61 659.56 371.13 658.63 368.88 657.43 368.25 654.51 367.15 653.74 366.14 652.54 365.36 650.58 363.26 649.98 361.57 650.31 359.65 650.3 358.33 649.89 355.6 648.68 354.82 647.81 351.63 646.95 350.02 646.92 346.21 645.5 344.25 645.64 340.93 645.23 339.21 643.64 335.64 641.97 334.67 641.69 334.5 640.46 333.3 638.31 332.95 636.34 333.25 635.24 333.03 633.9 332.46 632.75 331.29 631.67 331.81 628.25 331.3 627.62 331.17 624.44 332.75 620.85 333.69 619.76 334.13 617.93 334.32 615.05 335.05 611.44 334.65 610.48 333.22 608.93 332.51 609.36 331.19 608.98 329.42 607.74 327.79 606.24 326.72 603.89 325.99 602.94 323.83 601.35 322.82 600.21 320.93 599.51 320.08 599.93 318.38 599.67 317.54 599.84 303.64 608.66 301.25 609.99 297.64 610.79 289.13 607.27 284.64 604.28 282.36 603.06 281.64 600.28 281.49 597.8 281.76 596.32 280.35 594.48 279.63 593.17 280.23 591.63 279.82 588.56 279.22 587.99 278.51 586.24 278.02 582.77 277.67 582.1 278.18 576.49 279.32 574.97 279.23 572.64 280.18 569.96 279.08 567.49 279.68 564.6 280.69 562.93 280.52 562.03 281.37 557.71 280.47 557.53 280.18 556.44 279.2 555.75 279 554.65 279.46 551.24 277.83 550.74 277.22 548.93 277.41 544.45 278.36 541.73 279.88 539.71 280.11 537.63 279.5 536.04 280.57 534.14 280.34 532.87 279.64 531.28 280.54 530.56 280.6 529.22 279.23 527.47 279.01 526.23 279.25 523.18 277.88 522.61 276.32 521.07 276.31 519.42 274.39 519.28 273.16 518.44 269.97 517.64 268.3 515.89 267.24 514.08 265.97 513.29 265.44 511.03 264.45 510.43 263.5 509.02 262.17 508.46 261.35 507.17 260.13 506.45 261.75 502.07 262.85 499.56 262.97 497.2 264.35 493.41 265.99 491.52 266.92 489.95 268.96 487.88 269.46 486.05 269.76 482.72 270.58 481.8 270.6 480.56 269.7 478.8 269.59 476.47 269.9 474.92 272.64 471.01 274.02 466.8 275.29 464.25 274.45 461.28 276.34 460.67 277.75 459.27 279 458.8 279.7 458.04 281.14 455.52 282.07 454.94 283.33 453.08 284.21 452.26 285.81 448.5 287.62 446.48 289.14 444.44 290.58 443.82 291.19 442.47 290.56 441.46 289.15 440.82 288.07 437.46 289.21 435.89 289.24 434.87 286.95 434.15 286.61 432.7 284.96 430.36 284.62 429.27 285.02 426.47 283.92 425.02 283.76 424.18 280.3 422.9 279.2 421.18 280.85 416.31 280.03 414.08 281.25 411.08 281.04 406.75 281.2 404.2 278.82 402.69 278.24 401.12 278.48 397.66 279.58 395.29 278.41 392.87 277.72 390.78 271.92 389.7 268.79 387.55 267.68 387.6 266.23 385.74 265.62 383.72 263.66 379.66 260.75 376.48 262.11 371.91 260.99 369.76 260.63 368.48 258.72 366.54 256.85 365.89 255.68 363.64 253.26 361.17 251.19 361.24 249.28 360.75 245.77 362.7 244.73 362.17 242.96 362.93 238.28 364.35 235.27 365.59 231.73 369.31 231.41 370.69 230.12 372.8 228.88 373.01 225.99 374.6 224.44 375.75 222.49 376.61 220.46 378.91 217.88 384.1 216.28 385.9 215.4 387.8 214.07 387.86 212.5 388.61 210.68 388.98 208.9 391.12 207.96 391.71 207.22 392.96 200.67 397.14 198.48 396.7 196.09 396.85 195.61 398.24 195.5 399.75 195.01 401.71 193.45 403.24 192.7 403.4 187.99 406.02 186.36 406.16 184.31 407.65 181.47 408 180.3 410.16 178.47 410.9 177.65 411.86 174.75 412.76 171.4 414.21 169.02 415.44 167.98 415.12 164.96 414.96 162.9 415.48 162.3 416.91 159.63 418.24 159.18 418.04 157.86 419.11 155.61 419.95 154.36 420.83 151.63 418.03 150.48 418.9 149.39 417.33 147.91 416.85 145.81 417.79 141.46 417.96 141.02 417.3 138.82 415.9 137.9 416.31 136.49 417.85 136.23 419.32 134.72 419.77 133.12 419.44 131.73 419.87 131.03 420.54 128.84 419.93 125.6 420.44 120.98 420.63 119.94 420.06 119.16 418.56 117.68 418 116.33 418.93 115.08 419.4 113.47 418.72 111.26 418.15 110.29 418.32 109.38 415.49 107.3 413.41 106.98 412.17 104 410.97 102.47 410.64 99.12 408.38 97.44 409.66 95.86 410.26 95.02 411.24 94.14 412.9 91.91 415.38 91.33 415.45 90.87 416.99 89.69 417.75 85.13 416.87 83.84 415.81 83.13 416.23 80.95 416.06 78.87 414.8 76.72 412.03 73.27 408.8 71.92 408.93 68.41 411.56 65.32 408.93 62.18 408.21 59.7 405.22 59.95 404.2 59.71 400.14 59.43 398.97 59.56 396.75 61 395.29 61.92 393.2 61.81 390.91 58.25 388.16 56.4 387.54 54.6 385.84 54.17 383.42 54.8 381.22 54.54 380.3 55.33 378.45 55.17 377.7 55.64 376.37 55.67 374.52 53.53 373.05 53.13 371.89 50.96 369.81 48.18 367.91 47.48 365.89 45.81 362.32 44.02 360.2 42.4 356.1 41.93 353.77 39.6 350.44 40.52 345.09 40.42 343.06 38.87 340.93 37.73 340.23 36.15 339.84 34.31 338.75 34.3 337.11 33.48 334.83 32.11 332.8 29.85 330.65 30.56 325.11 30.38 320.69 30.49 318.97 29.66 315.79 29.71 313.87 30.75 311.65 30.45 309.48 29.56 308.47 28.05 307.72 26.31 305.48 25.98 304.65 22.78 302.98 19.9 302.13 20.75 299.69 18.12 295.79 15.84 291.95 17.14 287.38 16.28 284.19 15.26 283.09 15.1 282.1 16.28 279.59 16.11 278.37 13.34 275.72 12.81 273.85 10.13 270.27 5.79 265.93 1 263.19 1.93 261.48 3.61 260.82 7.77 255.97 9.84 254.27 13.39 252.42 15.27 250.07 15.52 249.12 16.99 248.16 17.23 247.22 18.61 245.67 20.39 245.15 21.45 244.22 23.23 240.87 25.93 240.55 26.43 238.09 25.68 234.33 26.4 232.85 27.98 231.7 30.32 231.27 33.3 229.39 35.54 225.31 39.32 221.02 40.18 220.68 40.58 219.74 42.64 218.89 42.6 218.04 41.5 213.9 41.44 212.2 42.49 210.26 41.17 207.85 44.46 206.08 44.69 203.06 45.23 200.58 44.66 199.82 43.91 197.89 41.08 196.23 38.5 195.14 37.01 194.86 35.12 192.18 33.91 190.92 33.65 189.26 32.85 187.36 30.47 185.99 30.64 181.89 29.83 178.92 28.74 177.52 26.78 176.35 25.9 174.79 26.43 173.27 26.45 171.31 27.02 168.32 25.93 167.6 25.76 165.98 24.94 162.81 24.56 155.78 25.65 154.26 27.08 151.23 27.42 149.53 26.93 147.49 27.3 145.97 28.64 144 28.53 141.41 27.37 142.15 25.29 141.87 25.82 139.02 27.81 136.96 30.49 133.59 33.51 132.15 34.59 129.33 35.79 126.91 36.91 123.37 35.67 123.32 35.75 121.66 34.27 118.04 34.29 115.29 34.5 114.37 33.55 111.82 34.58 109.98 35.77 108.92 36.17 106.77 37.22 104.69 38.23 104.35 40.98 103.89 43.09 105.07 47.55 104.47 50.35 104.64 50.5 105.38 51.53 105.65 53.05 109.32 55 110.54 58.21 111.56 58.62 111.89 62.57 111.47 63.64 110.57 65.85 110.62 68.19 110.44 69.82 109.75 73.05 109.55 76.22 109.08 77.69 109.37 78.64 110.44 79.99 110.79 80.89 110.26 82.1 110.19 83.34 110.79 86.56 109.72 88.13 108.5 89.23 107.03 91 105.83 92.44 105.45 93.41 104.64 94.89 104.08 96.44 104.72 98.37 102.87 100.79 102.04 102.4 100.81 103.24 100.64 105.11 99.49 106.08 99.58 106.86 100.22 108.53 100.12 110.11 96.6 111.15 94.74 110.99 92.9 111.1 91.01 110.07 89.45 112.16 87.01 113.05 86.43 115.02 87.25 116.51 87.61 117.93 86.49 118.39 84.75 118.12 82.79 121.99 82.91 123.99 83.21 125.28 84.06 128.15 84.71 129.83 84.74 131.96 84.34 134.65 83.06 138.56 82.64 140.02 82.12 142.37 83.57 144.14 82.59 145.39 82.62 147.39 84.45 148.35 84.07 151.4 84.9 152.69 83.49 153.58 83.05 155.37 83.18 156.56 80.44 158.39 77.62 157.23 73.21 158.5 71.32 158.16 69.79 158.8 67.96 157.24 65.36 157.44 64.68 158.51 64.29 159.23 63.47 160.18 63.17 162.18 61.37 163.08 61.02 166.47 57.13 167.34 56.88 169.54 57.46 170.3 57.12 171 55.69 172.59 53.29 173.47 52.57 174.5 50.1 176.32 48.26 176.29 47.44 175.1 44.9 176.21 42.84 178.59 43.45 180.31 43.05 182.22 40.73 182.76 39.79 184.49 37.91 187.1 34.11 190.84 29.55 192.33 28.11 193.58 27.38 195.38 27.35 196.4 26.88 198.41 25.29 201.8 23.28 204.85 19.91 205.68 19.88 207.03 18.14 208.18 17.26 209.56 15.53 211.42 15.68 214.53 13.41 216.26 13.41 217.02 12.94 219.1 15.33 220.99 16.29 220.44 19 221.38 20.05 225.73 18.65 227.3 17.92 228.53 17.83 231.35 16 232.11 15.26 234.14 14.66 235 13.31 237.17 11.35 239.33 12.85 242.43 10.51 246.89 7.86 250.2 4.72 252.29 1.51 253.15 1 254.56 3.14 253.27 5.9 249.76 11.05 248.46 14.89 248.2 16.47 247.71 21.74 248.78 27.05 249.78 32.77 253.41 37.62 254.6 39.42 257.83 41.48 256.95 43.12 259.62 44.34 263.02 45.67 266.36 47.32 268.41 48.19 271.68 49.2 273.48 49.93 277.15 51.74 278.71 52.7 281.22 55.56 282.13 57.12 282.72 58.78 284.2 60.45 288.26 61.68 296.71 63.64 303.58 63.94 309.93 63.57 313.12 62.18 314.79 61.07 316.08 59.85 317.05 58.33 317.79 54.92 319.69 50.17 317.92 49.12 318.17 48.57 320.07 49.24 321.07 45.99 322.51 42.66 324.15 37.62 324.04 36.11 324.39 29.36 323.94 27.12 324.32 25.01 325.5 21.68 327.32 17.95 329.34 14.97 331.23 12.67 332.6 10.72 335.15 7.93 336.38 7.08 339.41 6.86 342.95 7.44 344.87 7.9 349.6 9.67 351.66 9.45 355.45 9.44 362.83 10.16 364.05 10.54 366.31 12.23 367.44 13.55 367.89 16.47 370.06 21.34 371.85 23.38 376.05 25.37 377.32 26.12 379.45 27.86 384.98 35.6 389.28 40.4 390.93 42.08 399.83 47.45 408.7 55.72 409.81 59.37 413.29 65.31 414.26 66.45 416.59 68.14 420.01 70.26 424.01 72.42 428.95 72.84 431.38 73.15 434.74 73.08 437.21 71.13 438.58 70.36 440.36 69.73 444.47 68.7 446.51 68.79 448.73 69.14 450.93 70.06 455.4 70.63 459.93 70.65 476.32 68.22 481.85 68.17 495.07 67.65 497.4 68.27 500.15 68.63 505.28 69.54 506.58 70.39 508.3 72.02 515.44 76.77 521.52 79.92 523.13 80.1 524.18 80.55 534.75 89.81 538.17 93.18 541.79 95.12 544.2 95.39 547.97 95.46 550.9 95.37 554.05 94.85 559.1 93.03 562.07 90.91 566.1 90.41 574.53 89.81 576.74 89.22 580.41 87.21 583.54 86.78 587.11 79.92 588.58 77.77 589.36 80.22 590.56 81.42 592.31 80.26 594.94 77.97 596.27 76.42 597.91 76.05 600.14 72.76 600.18 71.63 599.53 70.39 599.34 67.65 600.02 65.63 600.83 64.76 603.24 64.08 604.81 63.98 607.34 64.39 609.04 63.05 610.28 62.88 611.53 63.28 612.81 64.7 614.71 64.69 615.28 63.49 616.2 62.46 618.49 61.29 619.97 59.53 619.78 58.09 620.76 56.58 622.51 55.78 624.35 55.95 626.44 57.52 629.34 55.4 630.57 55.73 631.39 56.38 633.21 55.53 633.83 54.74 635.47 55.02 637.03 54.86 638.39 54.41 638.6 52.72 639.37 52.11 641.06 51.59 642.63 53.69 643.43 53.63 644.24 52.67 645.19 50.93 645.92 50.69 647.54 48.84 648.61 48.36 650.77 48.2 652.19 47.18 652.71 47.58 653.65 45.43 654.16 45.56 657.44 42.69 658.86 43.26 661.19 45.43 662.64 45.45 663.71 46.14 665.24 46.06 666.69 46.32 667.79 47.74 669.13 47.9 669.74 48.88 670.82 49.74 671.11 51.18 674.49 54.9 675.48 56.4 676.14 56.68 677.03 57.97 677.71 58.21 679.3 60.11 681.46 61.34 684.87 59.85 685.42 61.83 686.19 63.44 687.52 65.15 689.83 66.61 691.27 66.64 694.1 65.66 695.13 65.94 697 65.27 698.9 66.96 703.16 69.24 705.6 70.27 708.68 72.29 711.39 74.88 713.48 80.11 714.09 82.51 715.57 84.4 715.43 85.59 716.6 87.25 717.16 88.89 717.02 89.88 718.77 93.98 719.77 97.24 722.47 96.45 724.19 96.42 724.47 97.39 728.41 99.53 728.95 100.2 730.56 100.78 Z" id="36520000"/>
</g>
</svg>