<?xml version="1.0"?>
<svg xmlns="http://www.w3.org/2000/svg" version="1.2" baseProfile="tiny" width="800" height="1021" viewBox="0 0 800 1021" stroke-linecap="round" stroke-linejoin="round">
<g id="sigung">
<path d="M 650.37 212.01 648.51 213.91 647.05 218.06 646.08 222.67 646.18 231.09 647.16 237.01 648.62 241.04 648.8 245.93 648.79 253.11 649.14 257.04 650.32 263.83 654.32 266.25 664.78 274.08 667.07 277.88 670.28 278.14 671.13 278.99 674.02 286.58 676.37 290.12 678.07 293.81 680.19 299.54 681.92 305.13 683.68 309.32 684.99 311.02 686.42 316.13 688.62 318.51 688.7 320.61 690.19 325.05 692.1 328.18 693.07 331.25 692.65 335.75 693.31 338.01 695.1 341.19 697.1 343.45 700.45 346.55 707.08 350.75 706.96 352.99 708.23 355.24 708.7 357.8 707.86 362.44 707.57 365.37 708.72 365.47 713.37 368.22 717.06 369.69 719.54 370.45 720.67 370.17 725.9 371.19 728.76 374.43 729.13 376.42 731.29 377.31 734.01 377.02 735.6 380.12 738.69 382.67 742.3 384.16 744.4 384.75 747.55 386.95 749.7 387.42 751.31 387.05 752.4 388.05 752.85 389.59 753.05 392.38 755.3 396.26 756.46 400.5 756.65 403.19 755.87 405.6 758.35 411.28 758.81 415.48 760.33 420.34 767.64 430.12 768.41 431.9 766.49 435.07 764.74 435.22 764 437.61 762.75 438.51 762.51 439.47 759.76 441.08 760.83 446.31 760.71 447.06 761.94 450.28 762.15 452.64 763.52 454.83 763.59 455.73 762.25 456.6 762.27 459.28 761.89 462.14 761.11 465.02 763.92 469.38 766.55 470.5 767.47 470.54 768.46 472.53 771.24 473.78 773.13 475.06 773.67 478.16 775.52 479.91 776.91 482.08 778.51 485.47 781.24 487.56 780.92 488.16 780.49 492.51 779.75 494.75 780.2 496.95 779.25 502.06 779.25 505.12 780.73 506.6 780.81 509.78 781.36 512.01 782.33 513.48 783.87 517.08 783.08 518.87 783.71 523.01 785.17 524.51 785.3 525.4 786.93 527.78 787.23 528.83 787.13 531.44 786.12 534.34 786.59 536.62 786.22 537.92 786.31 540.04 784.65 541.96 784.58 544.53 784.85 546.04 784.61 548.08 785.39 549.03 786.92 552.12 785.94 552.72 786.24 560.73 786.66 565.83 786.16 568.75 786.24 574.04 784.57 575.06 783.66 576.6 782.97 576.71 781.49 578.58 778.92 581.26 776.14 583.83 774.98 585.71 775.31 588.92 774.74 591.82 774.48 595.79 774.71 597.46 776.24 601.01 776.82 605.43 776.13 609.91 777.79 611.65 778.3 615.32 778.28 617.5 777.89 619.54 778.95 621.16 778.18 622.78 780.18 624.8 780.96 626.61 782.65 627.86 784.39 629.79 784.61 635.77 784.12 638.57 784.39 641.32 785.64 642.56 786.48 645.12 788.61 649.64 789.08 652.7 787.79 652.79 783.38 653.86 781.05 654.71 778.75 656.12 783.42 660.98 787.76 667.24 791.22 675.32 792.76 678.48 799 687.38 797 686.93 793.68 690.95 791.02 693.21 787.31 694.12 786.29 694.73 784.61 697.05 784.82 702.66 785.4 703.86 785.2 706.8 783.98 708.94 781.48 712.28 780.64 714.07 780.47 716.59 779.83 717.56 773.5 722.53 772.82 723.41 772.57 726.93 771.53 732.84 772.86 736.24 771.78 738.68 771.73 740.99 771.12 741.94 768.63 741.72 766.37 743.99 765.63 745.25 765.4 746.84 763.57 750.44 760.69 751.57 758.91 752.99 757.93 754.33 756.4 754.85 756.27 757.7 754.55 760.23 752.61 761.3 752.72 763.83 751.5 766.38 750.13 766.71 746.48 769.22 746 771.18 746.01 773.24 744.78 775.88 745.29 780.95 744.49 783.23 742.31 785.92 742.61 791.57 741.94 795.83 742.11 799.07 741.38 801.35 740.67 802.42 740.06 804.66 739.03 806.43 739.13 808.77 736.64 811.69 736.27 814.33 736.47 818.18 735.78 822.32 737.53 823.87 738.99 831.72 737.83 833.6 739.18 835.55 740.82 836.38 743.83 835.63 744.81 837.59 745.02 840.27 744.97 843.59 744.1 848.9 744.27 852.26 742.72 857.77 741.66 859.35 741.85 862.42 739.36 864.78 739 866.98 737.09 873.75 737.28 876 739.42 879.29 739.47 880.91 740.92 884.44 741.17 885.74 740.37 887.47 739.57 891.46 739.8 894 738.92 898.13 738.63 906.91 737.88 910.97 737.03 917.2 736.87 923.77 736.88 929.16 727.85 926.74 724.15 926.56 721.74 924.93 720.27 923.53 718.87 921.31 717.58 919.9 714.4 918.99 708.18 915.81 705.5 916.63 704.36 918.85 702.79 919.3 700.77 920.89 699.25 922.93 696.34 924.09 695.38 924.99 689.73 923.12 687.71 923.26 684.88 924.92 683.86 926.54 679.52 927.76 674.16 927.71 672.87 931.14 670.05 933.61 669.03 936.61 667.34 939.32 663.41 942.38 657.53 945.99 655.41 947.56 651.95 948.31 650.11 948.28 647.87 948.95 645.48 951.59 642.33 953.04 640.4 953.38 638.67 954.97 637.51 955.55 632.95 956.94 629.46 960.65 628.44 962.24 627.56 964.55 626.33 965.07 624.41 965.17 621.31 966.13 619.15 965.36 617.6 965.25 615.29 967.09 612.27 968.58 612.14 971.71 612.61 975.21 611.17 977.5 612.75 981.95 612.08 985.22 612.62 987.95 612.01 989.52 612.67 991.92 611.77 993.76 611.05 996.87 609.94 998.82 608.45 1000.44 607.86 1003.72 605.6 1007.35 602.53 1010.77 601.35 1012.59 599.8 1016.44 598.71 1016.96 595.9 1016.73 594.24 1015.69 591.45 1016.04 589.42 1017.36 586.25 1017.3 583.65 1017.7 581.3 1018.43 579.96 1019.21 577.13 1020 576.34 1019.43 575.76 1017.92 572.76 1015.19 571.22 1012.68 568.7 1012.09 567.3 1010.91 565.29 1010.99 560.82 1007.39 556.42 1005.28 551.53 1003.82 549.35 1002.68 546.29 1001.57 544.62 999.25 543.14 997.73 541.14 996.34 538.04 995.35 536.65 991.99 535.3 991.51 532.74 989.6 530.51 988.56 528.45 985.18 523.91 982.78 522.51 980.78 523.29 979.42 521.23 977.36 520.99 976.17 519.29 974.27 516.76 972.65 515.91 971.16 514.59 970.07 513.59 967.69 514.06 966.75 513.9 964.48 514.31 961.76 514.19 959.8 513.71 958.66 514.42 957.26 513.59 955.38 513.54 953.2 511.2 951.86 509.64 952.19 506.81 952.03 504.52 951.62 503.62 950.64 500.66 949.42 498.01 947.34 495.21 942.87 496.49 940.26 496.08 938.43 492.61 936.2 491.27 934.7 486.05 931.39 485.03 930.15 484.26 930.27 479.77 929.1 479.01 927.65 478.95 924.58 479.39 923.11 480.78 921.54 479.97 920.4 477.88 915.34 476.17 913.99 475.89 911.74 476.52 908.17 474.71 906.4 474.34 905.21 472.39 903.18 471.75 904.82 470.19 906.36 467.32 907.54 465.33 907.88 463.15 907.16 460.08 906.79 457.77 907.3 453.26 909.12 450.35 909.74 447.42 909.59 446.07 909.04 441.53 909.1 440.13 909.39 436.7 908.65 434.27 906.39 432.44 906.26 428.22 908.89 424.51 908.85 422.67 907.1 418.63 906.94 414.49 904.06 413.53 903.01 411.91 902.29 410.28 900.74 407.53 899.11 404.35 898.15 402.45 896.8 404.19 893.89 405.74 893.04 407.1 891.74 407.43 887.14 408.68 885.76 408.58 882.94 409.01 882.32 409 879.01 407.9 877.49 408.53 875.69 408.3 874.4 404.88 870.74 403.89 869.1 402.83 868.96 401.52 866.61 398.66 863.84 396.83 862.97 394.74 859.63 392.45 858.96 392.34 857.2 390.73 854.9 389.16 852.15 386.96 849.34 385.07 844.5 384.5 841.64 384.7 838.89 383.28 838.35 382.05 836.78 381.18 836.46 378.21 836.48 376.37 836.02 373.31 833.07 370.97 827.71 370.3 827.34 369.81 825.14 368.77 824.01 368.95 818.42 367.43 818.74 366.04 817.15 362.39 814.38 361.72 811.57 360.07 808.83 357.52 806.1 356.23 804.27 353.07 804.01 350.96 803.52 349.73 802.36 348.48 801.9 344.73 798.44 341.56 796.7 339.57 797.56 338.45 796.63 333.75 794.11 332.02 792.76 329.32 793.84 326.08 791.44 323.67 788.35 321.37 781.96 318.99 778.76 314.41 775.04 313.3 774.98 311.55 772.76 310.94 770.77 308.68 771.01 304.05 770.5 300.23 770.83 298.88 770.74 294.19 769.64 285.82 766.79 282.77 765.98 280.89 765.89 278.6 763.92 264.41 754.16 261.22 752.76 255.93 747.69 253.66 746.52 250.43 745.79 248.36 744.86 244.24 742.46 240.93 737.43 238.66 734.92 233.29 730.08 227.65 725.28 225.5 723.26 224.12 720.48 220.13 715.28 215.66 708.06 213.84 705.82 209.6 702.47 204.72 699.81 199.43 696.26 193.68 693.22 191.32 691.07 187.47 688.09 182 683.38 176.7 679.85 174.44 677.81 169.95 674.5 164.16 671.28 159.72 669.69 156.4 668.01 153.34 666.81 150.57 666.09 148.28 673.49 144.98 672.31 142.37 671.75 138.92 671.33 135.85 670.27 134.66 670.51 133.52 669.84 132.61 669.46 128.09 669.45 125.73 669.67 126.04 667.41 119.84 664.97 116.31 664.08 112.71 663.75 105.3 663.53 101.52 663.66 94.93 664.25 91.78 664.77 88.88 665.66 81.98 667.31 77.97 667.58 74.84 668.37 66.85 668.83 54.14 664.43 49.62 662.79 41.03 658.1 35.32 652.73 31.64 650.29 31.24 647.32 30.64 640.41 29.71 637.28 27.51 633.73 26.16 630.38 23.85 625.86 22.78 622.87 21.56 617.41 19.6 610.79 18.7 607.03 17.33 603.24 17.17 600.04 17.26 596 17.11 591.04 17.27 583.71 17.91 579.36 18.98 576.16 20.27 573.65 23.85 568.59 25.48 565.77 25.02 564.34 21.98 561.23 19.02 559.28 16.41 556.82 13.33 552.46 11.3 550.13 8.65 546.56 6.83 544.43 6.18 542.31 4.54 539.82 2.9 535.05 1.48 532.89 1 531.4 1.54 527.02 2.82 521.98 4.4 518.44 5.5 519.5 6.82 521.6 11.01 522.85 11.6 523.32 12.62 527.16 13.87 528.01 18.55 528.59 20.56 529.12 22.92 529.33 24.99 528.3 26.64 528.97 28.47 528.76 33.01 529.59 34.23 529.22 35.02 528.28 35.74 524.97 37.01 522.46 39.17 520.21 40.31 520.56 43.41 519.83 48.65 517.58 50.62 517.9 52.15 514.53 55.51 512.29 56.73 509.11 56.84 507.89 59.16 505.91 59.39 504.96 61.43 502.86 64.56 501.65 66.54 498.67 67.34 496.65 67.35 494.95 68.1 493.45 68.56 490.76 69.22 489.06 70.72 486.98 72.12 486.3 73.22 484.99 74.8 484.57 76.29 484.74 77.53 483.95 83.25 483.24 85.53 483.85 88.26 484.18 90.89 484.98 92.21 484.82 93.73 485.5 96.3 484.96 96.79 482.82 100.22 480.54 101.66 480.39 103.3 479.48 104.48 477.15 106.03 475.28 105.26 473.11 106.58 470.65 108.3 469.58 111.77 468.84 111.66 467.75 110.67 466.58 110.47 464.81 109.3 462.87 107.71 462.48 108.4 457.37 106.84 456.62 105.52 453.61 103.79 451.2 105.56 448.29 106.76 446.89 106.46 444.43 107.38 440.88 103.32 436.14 99.64 430.8 99.2 429.69 99.15 425.23 98.28 422.36 94.8 419.85 94.15 415.35 93.37 413.92 91.62 412.17 91.66 409.96 91.05 407.93 90.31 407.28 90.72 401.47 89.38 400.1 86.88 400.52 86.26 396.46 86.39 395.3 85.38 393.69 86.55 391.05 86.74 389.88 85.81 388.43 87.14 385.18 84.67 384.35 82.53 382.41 80.9 380.13 81.17 378.32 81.97 376.86 81.69 373.97 80.09 373.73 78.87 370.55 78.27 369.73 78.76 367.35 78.15 365.18 78.12 361.64 76.89 358.24 76.83 356.6 75.78 354.41 75.73 352.57 74.27 350.3 71.11 348.83 70.45 348.09 70.78 346.77 69.01 342.33 69.08 341.09 70.09 339.14 70.55 336.88 69.78 334.74 69.9 331.63 69.19 329.37 64.02 330.12 62.62 329.13 58.51 327.46 50.51 322.75 45.54 323.76 43.93 318.33 43.39 317.46 42.95 314.92 42.06 314.54 42.26 312.09 41.01 310.29 41.95 308.73 44.19 306.93 44.41 305.68 46.3 303.42 44.81 297.15 44.66 294.71 45.41 293.31 45.01 291.48 47.02 286.46 46.71 284.47 48.39 281.81 50.44 277.81 51.21 275.9 51.32 270.37 53.54 267.73 55.47 267.47 58.2 262.45 60.26 255.84 59.79 249.28 61.06 247.18 58.88 244.3 57.19 242.76 54.54 239.2 58.18 237.1 61.93 235.48 67.91 231.92 69.79 225.79 74.81 222.65 79.58 220.67 80.73 217.42 81 213.82 78.86 208.99 79.15 204.99 79.71 200.38 83.05 198.09 87.48 196.49 91.82 194.54 95.08 189.82 99.41 184.37 99.81 177.67 99.45 173.41 100.44 170.29 105.48 162.59 109.52 160.79 113.07 160.01 117.72 158.35 120.67 156.14 125.37 149.09 129.01 144.23 131.35 139.96 131.35 135.76 134.92 131.92 135.42 129.95 137.33 126.73 137.56 122.61 144.85 115.96 148.27 112.37 150.3 107.5 151.11 102.2 152.57 96.4 152.7 93.73 156.31 91.78 159.03 87.43 160.23 82.67 163.83 77.5 165.21 70.82 164.69 65.29 167.58 56.22 171.26 54.83 174.74 54.13 177.77 51.68 176.72 49.28 179.93 47.3 181.08 45.04 182.02 44.94 183.3 43.79 186.18 42.91 187.34 41.09 189.94 39.03 189.81 35.08 191 34.41 193.67 30.8 199.47 27.23 201.58 26.75 204.68 22.55 206.81 21.26 210.2 18.34 212.4 17.11 213.3 14.25 215.28 11.37 216.96 11.66 218.79 11.21 221.43 9.47 223.29 9.22 223.92 8.47 227.06 8.06 228.96 7.07 230.85 8.42 230.52 10.85 229.12 13.59 232.37 16.69 234.9 16.96 236.32 17.94 239.62 17.32 244.76 19.49 246.05 16.98 246.22 15.87 247.97 15.97 253.31 18.15 257.04 16.07 261.14 17.29 263.91 16.63 267.4 18.58 268.37 18.51 270.96 16.01 272.74 13.87 275.59 12.89 279.23 13.25 280.96 10.28 281.09 7.94 284.75 7.86 286.41 7.04 287.64 7.51 292.5 6.52 294.63 8.51 296.62 7.87 297.84 8.62 301.78 7.9 304.84 7.86 306.24 5.55 309.2 5.4 312.83 2.24 316.53 2.15 319.71 1 322.69 3.24 326.22 3.2 328.51 3.65 330.22 5.54 335.64 5.61 337.95 5.39 340.19 6.36 343.17 6.05 344.43 5.2 349.09 7.24 350.53 14.68 361.94 22.71 365.95 27.11 372.83 25.51 377.44 25.16 386.03 25.18 389.63 23.27 393.93 22.94 401.36 21.23 403.62 21.13 410.17 23.48 416.31 26.81 419.96 29.51 423.34 32.67 428.27 38.36 431.44 43.28 435.07 46.25 439.01 48.11 447.39 49.61 453.41 53.87 459.23 63.92 461.71 68.34 465.56 70.96 472.04 72.13 478.38 73.08 482.3 74.97 485.91 77.34 489.04 80.46 492.17 83.96 494.04 87.63 498.59 99.83 501.17 103.79 506.12 110.5 510.86 113.28 516.56 114.2 520.2 114.52 533.44 115.18 536.02 116.73 538.78 119.34 540.57 127.98 540.4 136.29 541.24 138.74 545.25 141.53 549.94 143.68 554.47 144.71 568.7 150.49 572.23 152.49 573.71 157.13 577.92 160.55 580.19 163.11 581.25 163.49 585.02 163.01 597.55 166.57 601.94 168.91 606.48 171.52 608.99 172.66 613.59 172.9 617.69 174.14 620.36 175.94 627.59 187.75 632.93 194.68 635.22 200.13 637.34 202.38 641.03 204.93 650.37 212.01 Z" id="36530000"/>
</g>
</svg>