<?xml version="1.0"?>
<svg xmlns="http://www.w3.org/2000/svg" version="1.2" baseProfile="tiny" width="800" height="1006" viewBox="0 0 800 1006" stroke-linecap="round" stroke-linejoin="round">
<g id="sigung">
<path d="M 791.27 213.29 789.04 214.28 787.48 215.22 785.34 215.88 782.46 216 779.39 217.41 778.71 219.45 779.46 221.35 778.32 223.93 776.45 225.54 775.55 228.55 773.56 230.95 771.05 231.56 769.96 232.83 769.43 234.88 770.75 236.29 770.9 237.97 772 239.07 771.4 240.61 773.85 243.12 774.08 245.25 772.01 246.69 769.66 251.27 770 252.04 771.85 253.1 773.29 256.48 773.05 259.37 773.83 259.84 775.65 262.66 776.6 263.07 775.88 268.37 775.15 271.02 773.35 273.01 772.12 273.38 771.51 273.97 769.77 277.81 769.82 280.31 768.52 283.66 769.87 285.45 770.01 287.32 769.1 289.76 768.5 290.46 768.03 291.91 766.78 293.16 765.12 295.28 762.93 296.33 761.1 296.71 760.26 297.55 760.72 298.29 761.14 300.49 760.07 301.51 759.13 303.19 759.1 305.53 758.36 306.78 757.37 307.63 758.38 309.99 759.36 313.94 763.58 313.75 766.17 314.6 765.55 316.2 766.04 317.99 765.97 320.21 765.08 322.29 764.12 323.83 764.63 329.37 765.17 331.43 764.65 333.95 764.16 335.16 764.32 338.71 765.12 340.6 765.68 341.3 765.03 342.95 765.08 345.16 765.51 346.38 765.17 349.83 766.43 351.28 766.04 354.39 765.17 355.44 764.92 357.23 765.27 358.27 764.42 360.29 764.69 363.01 764.03 365.21 764.83 366.01 764.57 367.38 765.25 368.48 765.7 369.85 765.64 371.54 765.85 373.85 767.17 374.34 768.11 375.18 769.15 375.56 772.69 379.76 774.31 380.2 775.88 381.76 778.02 382.99 778.83 384.87 779.66 385.94 780.15 387.1 779.3 387.45 777.9 389.19 777.63 390.8 776.03 392.87 775.34 395.15 774.41 396.99 774.43 398.21 773.49 399.72 772.68 400.35 770.82 403.13 770.41 403.11 766.87 406.38 766.29 407.26 765.49 407.38 765.26 409.22 765.39 410.38 766.16 412.76 766.82 414.27 767.78 415.18 767.71 416.19 766.92 417.02 765.53 417.99 764.6 419.16 764.02 420.38 763.37 422.93 763.13 425.03 762.21 426.49 762.68 429.52 762.21 430.83 764.68 432.98 764.02 434.85 763.49 435.11 763.12 436.87 762.37 438.03 762.75 438.94 762.82 440.53 763.2 441.95 763.6 442.41 764.11 444.93 763.46 446.28 762.67 449.89 763.4 452.59 761.99 457.77 760.01 459.58 761.32 462.64 762.77 464.14 763.74 465.41 764.54 467.57 765.53 471.85 766.46 474.41 767.59 476.14 768.27 477.6 769.57 479.8 767.84 482.22 769.15 485.06 768.44 488.49 768.41 489.86 767.91 490.72 767.64 492.28 767.1 493.33 767.53 494.87 767.76 497.88 766.19 500.19 767.8 501.87 768.27 503 769.02 503.53 769.02 504.25 767.96 507.84 767.49 511.29 769.11 515.11 770.09 518.34 770.41 519.86 767.41 520.09 765.14 520.69 763.52 522.11 761.53 522.97 759.57 523.07 759.37 524.33 758.27 524.98 757.57 526.12 756.79 528.3 754.97 530.27 752.97 531.22 750.41 534.34 749.73 534.95 748.97 537.07 750.31 537.57 750.76 538.83 750.25 539.8 750.19 541.68 749.81 543.74 749.91 545.16 749.42 546.05 747.7 547.34 747.12 550.86 747.17 551.98 746.72 553.33 745.89 553.72 745.29 555.46 745.33 557.01 746.62 558.6 747.01 560.89 748.6 563.02 748.61 563.46 749.73 565.29 748.98 567.58 748.15 567.96 747.65 570.83 745.16 571.95 744.81 573.11 745 576.19 744.24 577.2 744.08 578.62 743.48 579.77 743.51 580.9 745.45 583.69 745.33 585.23 746.23 586.19 749.13 588.24 750.28 588.44 751.85 589.18 752.68 589.98 750.56 592.52 750.46 593.96 749.56 595.88 748.9 597.96 747.21 600.15 746.34 601.78 745.2 603.02 744.86 604.31 744.14 605.62 743.45 607.91 744.33 609.18 743.5 610.19 741.86 610.92 741.37 610.81 739.7 613.9 740.02 615.14 739.94 616.02 738.86 617.65 738.9 620.07 738.03 620.99 735.72 621.34 734.81 622.29 733.34 623.01 730.35 621.74 730.01 622.34 729.56 624.46 728.4 625.05 727.67 626.13 724.95 627.75 722.94 628.16 720.68 629.37 719.74 630.34 715.86 631.83 714.08 631.22 711.78 630.74 709.73 631.03 706.55 633.12 704.34 633.8 702.78 635.11 702.18 637.73 699.84 639.84 698.81 641.12 697.41 641.72 695.16 642.27 691.07 642.69 687.05 642.57 685.8 643.67 684.55 643.78 682.81 643.44 681.43 644.5 680.88 645.49 679.41 646.24 674.37 644.78 672.7 643.44 671.13 644.15 669.24 642.63 668.67 641.94 668.4 640.81 666.35 640.44 664.93 640.96 662.71 640.33 661.7 640.41 658.62 641.6 657.55 640.26 655.86 639.03 654.27 638.62 652.14 636.84 651.7 635.96 649.86 635.23 646.43 634.56 644.16 632.9 642.27 634.79 640.23 634.88 639.72 635.7 639.51 637.76 639.87 640.03 639.27 640.79 640.02 642.54 639.83 644.53 638.52 644.86 637.64 645.79 636.35 646.08 634.44 647.27 633.02 649.67 632.45 653.18 631.16 653.55 628.97 654.96 628.07 656.09 625.67 656.93 622.79 658.74 620.28 660.11 619.17 660.02 617.5 661.02 616.08 661.08 615.81 662.91 616.07 666 615.69 668.96 618.37 669.99 618.72 670.68 619.94 671.67 619.62 673.22 620.58 674.29 621.09 675.94 619.97 676.72 619.24 678.3 617.27 679.85 615.9 680.65 613.8 682.87 612.46 683.91 609.78 687.95 607.05 688.78 606.41 689.54 606.46 690.7 605.23 694.87 602.97 695.42 600.22 694.62 599.32 696.5 599.2 697.53 598.42 698.38 598.64 699.15 597.79 700.69 596.78 701.97 594.61 703.03 593.95 704.01 591.96 706.31 590.53 707.38 588.58 708.11 588.11 709.95 587 712 583.83 713.32 579.82 712.8 578.32 715.59 573.89 715.3 571.21 714.58 569.49 714.88 567.43 714.04 565.22 715.5 563.87 717.43 562.84 720.06 562.5 721.65 561.93 722.88 561.87 724.57 561.55 726.82 561.18 727.76 559.87 729.92 559.31 732.08 558.55 734.35 557.82 737.18 555.08 739.42 553.83 740.65 551.37 741.59 549.17 741.67 548.11 742.29 547.43 744.9 547.25 747.55 547.4 748.73 546.8 750.31 546.44 752.87 546.54 754.4 545.94 756.16 546.08 756.96 546.29 761.1 544.92 763.71 544.89 764.47 544.01 765.82 544.26 768.56 543.39 771.06 542.81 771.78 541.43 772.52 543.46 774.53 544.65 776.24 545.61 778.19 545.55 779.37 546.25 781.31 545.93 782.48 547.81 785.01 546.73 787.02 546.5 788.72 545.64 790.27 545.9 791.54 545.21 793.12 543.87 793.98 543.08 795.16 543.57 797.52 544.14 799.22 545.39 800.64 546.19 801.01 546.37 801.86 547.06 802.9 547.76 805.63 549.55 807.92 550.32 809.45 550.33 811.64 551.31 812.2 552.64 812.22 552.75 813.7 553.86 815.5 554.2 817.56 554.8 819.09 554.61 820.84 554.12 821.53 554.13 823.03 553.37 824.55 551.14 825.72 550.46 826.71 548.24 828.02 547.42 828.06 547.3 829.95 548.62 832.31 549.09 834.87 549.42 835.59 551.08 836.21 552.11 837.21 552.42 838.2 553.61 838.89 554.77 841.25 555.86 841.35 556.24 843.36 557.74 843.92 559.24 844.99 559.97 846.31 560.95 847.18 561.86 847.41 561.6 849.24 560.5 849.3 558.5 850.73 557.1 852.53 558.85 855.38 560.18 856.74 561.16 858.37 561.47 859.36 561.25 860.31 561.46 861.47 561.44 864.91 560.75 866.06 560.45 867.66 561.16 869.4 562.2 870.2 562.82 872.38 562.98 874.03 564.12 876.38 563.76 877.83 563.07 878.61 562.58 880.3 558.51 881.88 557.8 882.68 556.35 883.29 554.93 885.09 553.7 887.04 553.42 888.27 550.64 888.41 549.61 889.25 548.6 889.49 546.16 889.09 544.17 888.23 543.4 889.35 541.6 889.76 539.3 891.17 536.93 891.19 536.42 891.73 536.22 892.74 535.23 894.04 533.7 894.64 531.03 894.19 529.46 893.28 528.79 893.48 526.72 892.89 524.33 895.72 523.92 896.5 523.26 896.64 522.07 897.8 521.26 897.77 519.31 901.99 517.44 902.86 516.1 902.64 514.86 903.51 513.18 902.26 512.87 903.71 511.95 904.48 510.1 906.89 508.7 907.63 507.31 909 507.67 910.21 507.18 910.99 506.94 912.16 505.97 913.74 505.74 914.5 505.99 916.27 505.39 917.98 505.33 918.83 505.53 922.14 505.83 924.07 506.55 926.89 506.23 929.36 505.9 930.49 506.14 931.56 505.02 933.98 505.34 935.12 505.46 937.41 504.42 939.81 503.54 942.69 502.76 943.67 502.38 945.25 499.12 945.32 497.87 944.9 496.13 945.68 492.87 946.24 490.84 947.36 489.99 948.06 489.32 950.44 488.98 952.96 489.15 955.19 487.43 956.72 485.21 957.79 482.44 958.33 479.85 959.22 477.4 961.14 474.49 961.27 472.98 961.84 471.11 961.92 470.21 962.98 469.44 964.68 468.79 965.27 466.97 965.8 466.51 966.43 464.94 966.34 463.98 966.78 461.95 966.96 460.5 967.32 459.46 967.07 455.92 968.07 453.69 969.03 453.12 967.88 453.11 967.01 451.73 965.91 451.21 965.11 450.06 965.34 447.98 964.52 447.07 964.89 444.98 964.31 443.71 962.7 440.48 964.24 438.95 964.33 436.54 964.1 433.36 965.9 432.43 965.73 430.59 964.71 429.6 964.54 428.18 963.16 427.15 963.75 423.74 964.29 422.63 963.81 421.59 963.87 420.74 962.86 419.66 963.32 418.16 963.38 417.66 963.96 415.06 963.52 414.81 963.21 415.28 961.82 414.46 960.96 410.29 962.25 406.07 963.26 405.1 963.82 403.39 965.76 402.34 965.13 400.04 965.05 396.67 962 396.14 961.22 393.77 960.18 391.7 960.01 390.69 960.63 388.79 960.87 388.2 962.15 385.58 963.79 383.28 963.43 381.04 964.82 379.9 966.09 375.39 964.7 374.41 966.15 374.02 967.15 371.29 967.62 370.31 968.59 370.24 971.02 369.2 972.02 368.64 973.97 367.07 974.34 364.81 973.66 359.79 973.09 358.16 974.5 356.81 974.07 355.98 971.92 353.5 968.61 353.48 967.89 351.87 965.7 350.64 963.71 348.64 962.63 347.3 961.56 346.34 959.12 346.55 958.62 344.02 956.13 343.29 956.68 341.87 956.25 340.69 956.43 339.01 953.57 337.85 953 336.79 953.67 334.39 953.11 333.56 951.27 333.25 951.09 332.4 949.06 331.61 946 332.32 942.82 329.66 939.24 330.2 937.39 329.17 935.4 327.69 936.87 325.39 936.03 324.47 937.17 323.42 937.96 322.14 938.15 320.44 937.22 318.65 937.51 317.08 936.66 315.37 938.63 312.36 936.3 310.51 936.11 308.71 935.28 307.52 935.78 306.02 938.75 309.24 940.88 307.94 943.92 306.46 946.21 301.8 947.48 299.86 949.28 298.8 949.63 296.53 951.12 297.02 951.78 296.97 953.73 294.56 955.69 295.42 957.19 294.21 961.09 293.53 962.24 292.44 961.96 288.46 960.42 286.85 961.47 285.32 961.11 283.31 963.05 281.29 960.83 279.43 960.88 278.37 960.58 277.17 961.25 274.56 961.57 272.06 962.29 270.46 961.96 268.75 959.95 266.45 959.27 265.55 958.74 266.51 961.97 267.26 963.21 266.63 966.34 264.5 969.4 264.26 971.07 263.29 971.9 265.23 974.58 262.57 977.48 262.02 977.58 263.21 979.71 263.8 979.95 265.02 981.13 264.57 982.04 264.77 983.37 264.42 985.39 266.82 989.26 267.99 992.48 267.44 994.53 266.63 995.45 264.16 997.42 263.03 997.59 262.01 998.87 260.95 999.43 260.63 1000.2 258.62 1001.77 257.71 1002.05 256.81 1003.87 255.83 1004.7 253.44 1003.97 252.25 1003.22 251.17 1003.9 249.86 1004.31 248.66 1005 246.75 1004.35 245.44 1001.45 245.28 1000.78 245.38 998.09 245.71 996.76 244.15 993.04 242.91 991.05 240.35 991.6 238.66 991.4 237.68 990.94 237.73 989.53 237.36 987.89 235.81 987.75 234.03 988.31 232.6 986.94 231.36 985.13 227.49 989 226.24 988.03 225.15 987.8 223.04 988.24 222.85 986.36 222.1 984.29 221.17 983.26 220.01 983.2 217.29 982.64 216.15 980.32 214.93 978.44 213.41 975.78 211.92 974.38 211.68 973.09 210.11 972.44 209.06 971.2 206.47 973.81 206.12 972.69 205.36 971.52 205.43 970.29 206.37 969.28 207.45 967.01 208.87 965.6 210.15 965.55 210.86 965.02 211.1 960.78 210.76 959.53 210.91 957.11 209.68 955.66 208.73 955.67 208.26 954.61 207.55 951.46 206.58 950.95 203.37 952.31 201.29 949.84 199.93 949.57 195.62 948.09 191.97 947.54 189.89 947.89 188.46 948.56 186.93 947.91 186.51 947.34 184.55 947.86 183.21 947.94 181.92 947.59 180.66 946.44 178.83 945.85 176.12 946.64 175.11 947.34 173.74 945.24 173.31 943.85 173.81 941.97 173.83 940.66 173.53 939.31 174.07 936.87 173.73 935.28 174.63 933.91 175.04 927.9 175.5 924.66 174.8 921.18 175.46 919.16 177.09 918.01 180.86 916.8 182.59 917.79 182.83 916.35 181.26 915.82 179.15 914.56 176.99 911.73 176.91 908 176.34 906.15 175.11 904.68 174.59 903.41 174.18 900.61 174.35 900.23 173.19 898.56 172.74 896.12 171.14 894.64 171.64 892.74 171.47 891.79 170.24 890.04 168.36 889 167.65 887.35 166.79 886.34 165.65 885.95 163.74 883.19 160.45 878.88 157.42 878.27 156.65 877.58 152.61 876.45 152.18 875.73 149.94 875.48 147.66 874.35 146.6 874.59 145.16 875.44 142.33 875.51 140.96 874.99 139.5 874.79 137.38 875.54 135.51 875.02 134.06 873.14 133.89 869.47 129.4 867.16 128.56 867.01 126.39 867.92 125.58 869.36 123.9 870.29 121.84 870.08 119.43 870.13 116.79 866.79 114.64 866.53 113.74 865.79 111.47 872.94 111.19 875.91 108.48 875.09 106.7 875.02 102.83 874.45 101.9 874.45 99.53 873.15 97.17 874.94 94.44 875.46 94 876.02 93.42 878.72 92.23 880.21 89.38 880.59 85.8 879.53 83.86 878.71 82.23 880.25 78.53 881.39 78.21 882.94 77.38 883.51 76.93 885.59 75.54 886.44 73.11 888.92 71.27 888.27 69.68 886.78 64.23 886.42 63.99 887.22 62.05 888.99 61.38 890.01 60.43 889.98 59.71 890.49 55.94 891.04 55.14 890.79 51.77 888.82 50.15 888.24 49.24 887.3 46.57 887.1 43.93 886.41 42.41 885.29 41.39 885.99 40.98 887.37 40.23 888.46 38.04 889.86 37.21 890.04 34.27 888.93 32.95 889.49 31.76 889.44 29.11 891.22 26.59 891.09 25.76 891.5 25.11 892.44 21.97 890.91 15.48 891.17 13.12 891.81 11.45 891.82 10.98 890.24 10.02 889.03 9.72 887.4 5.55 885.8 5.02 886.07 3.39 885.3 2.55 884.29 1 882.95 1.48 881.87 3.34 880.34 4.93 880.31 5.88 879.55 6.67 878.17 7.69 877.66 8.6 876.32 9.72 875.22 10.43 874.02 11.66 872.85 12.12 871.6 13.28 871.7 14.17 870.28 14.91 870.19 15.75 869.48 16.06 868.43 18.55 868.14 19.92 867.2 21.45 866.6 22.74 864.34 22.6 862.59 25.06 859.52 26.22 858.96 27.5 858.04 30 858.02 32.33 859.08 33.45 859.18 35.8 858.19 38.05 856.09 38.84 854.37 41.06 851.52 42.18 850.33 44.43 848.64 46.46 848.65 48.78 847.74 51.41 847.33 53.49 845.19 56.39 843.46 58.5 843.31 62.21 842.56 64.2 842.43 65.95 842.73 67.35 843.28 69.16 843.38 70.82 842.21 71.88 841.88 75.61 842.6 76.86 842.53 78.7 841.84 80.19 840.55 82.42 838.16 84.35 836.53 86.14 835.47 89.29 835.1 92.5 834.19 94.48 833.98 98.46 833.07 100 832.21 101.32 830.22 101.23 829.24 100.06 827.44 99.77 826.44 99.8 825.25 100.49 823.35 101.51 821.76 102.49 819.39 103.14 818.47 104.9 816.88 107.24 816.29 110.35 814.6 111.73 813.14 112.33 811.72 112.34 810.01 111.53 808.89 110.91 807.31 110.59 805.8 110.69 804.58 111.33 802.78 112.14 799.65 111.92 799.05 110.11 796.15 108.21 795.09 107.26 794.2 105.7 793.36 103.13 792.62 101.93 791.37 101.69 790.21 102.18 783.68 102.46 782.11 103.15 782.04 102.76 777.41 102.86 775.74 103.7 772.73 104.04 770.97 102.86 768.68 101.84 767.52 99.73 765.75 98.21 764.82 97.71 764.14 97.19 762.67 96.59 753.78 98.6 752.09 101.23 752.19 101.92 749.85 101.66 747.31 102.71 744.83 103.98 743.39 104.08 742.74 105.77 740.77 105.85 739.32 104.63 736.82 103.12 735.13 102.45 733.22 104.14 730.56 103.99 728.87 102.42 724.59 99.82 723.07 98.67 721.35 97.82 720.82 96.79 720.71 94.81 719.39 93.94 717.23 91.81 713.26 92.04 712.75 92.21 710.07 91.53 708.65 91.49 706.92 93.95 702.15 95.23 699.24 96.03 698.61 96.72 697.46 97.89 697.15 98.46 696.38 99.82 693.53 100.64 692.73 101.63 691.3 102.35 690.66 104.42 689.98 105.55 689.04 105.87 686.48 107.44 685.41 110.39 685.05 112.81 684.3 113.86 683.73 115.22 682.37 116.05 681.89 116.56 680.86 116.48 679.27 116.94 677.3 116.49 675.32 118.13 673.76 117.86 668.93 118.38 665.62 120.86 663.44 123.43 660.95 123.38 656.57 124.63 653.96 124.07 652.88 122.61 651.76 120.25 651.08 119.3 650.1 118.28 649.86 116.92 648.25 114.54 643.85 113.82 641.27 113.08 640.18 113.08 637.99 114.72 633.38 115.33 632.83 117.02 632.07 117.58 630.99 119.39 628.69 121.38 627.28 121.61 626.28 122.75 625.38 123.34 624.35 126.37 623.63 127.15 622.95 127.35 621.3 127.32 617.17 126.96 616.02 127.69 615.98 128.78 615.22 129.48 613.58 129.79 608.92 130.14 607.2 131.2 605.18 131.27 603.94 132.53 602.33 134.75 601.14 136.5 600.37 138.54 600 138.98 599.38 141.78 598.13 144.16 597.31 145.07 596.61 146.05 595.09 147.21 592.83 147.59 591.36 149.29 588.71 149.46 587.19 149.25 586.49 149.51 585.33 150.15 584.76 151.15 580.51 150.94 578.74 150.5 578.29 150.15 576.79 150.17 575.33 150.73 573.13 150.69 571.11 151.24 570.45 150.58 569.53 149.86 569.54 149.55 568.28 146.87 566.03 146.67 565.48 143.82 563.56 143.62 561.64 143.76 560.42 143.14 558.95 143.11 557.59 142.1 556.21 141.83 554.55 140.3 553.38 138.47 552.92 137.08 552.04 135.88 551.96 134.73 551.57 133.01 549.06 131.5 548.23 131.45 547.44 130.43 545.28 129.34 543.58 127.13 542.47 120.86 539.08 119.23 538.76 117.26 537.84 115.62 536.66 113.23 534.13 111.31 533.01 109.28 532.48 107.14 530.93 105.42 530.31 102.66 528.68 102.22 529.53 100.76 528.71 97.91 528.31 95.11 527.07 97.71 521.69 99.2 519.5 99.78 518.08 100.13 516.36 101.36 515.3 102.14 514.16 102.66 512.35 105.26 511.13 105.69 508.87 106.41 507.77 106.88 505.15 108.18 503.35 109.14 502.7 111.19 500.67 113.68 500.11 117.92 498.65 119.15 499.37 120.35 499.12 121.55 498.53 122.63 497.27 124.91 497.03 125.48 496.67 126.05 494.38 125.09 491.78 125.32 488.88 126.03 486.51 125.31 485.05 123.96 483.09 124.25 479.32 124.57 478.01 123.6 475.69 122.96 474.94 122.06 474.65 122.54 470.35 128.13 469.27 128.51 467.83 130.03 466.22 130.76 464.72 131.59 460.7 134.62 460.32 135.73 459.76 136.73 460.04 140.12 457.54 142.41 454.2 142.29 453.31 142.77 452.14 142.58 451.23 145.01 447.26 145.31 446.13 146.03 445.35 146.61 443.89 146.64 440.82 145.97 436.88 144.81 436.42 143.75 435.06 141.33 433.36 141.59 430.45 143.6 427.25 143.9 426.48 144.19 424.46 145.82 423.19 146.47 421.91 148.73 420.98 151.52 420.32 152.36 419.57 155.18 418.77 155.74 418.39 156.78 415.91 158.83 413.63 159.59 413.49 160.55 412.59 160.92 410.76 159.51 409.13 158.98 407.09 158.05 402.74 156.88 401.2 156.23 399.85 154.4 398.13 153.61 397.11 153.06 395.74 151.72 394.66 152.39 392.89 151.26 392.67 148.53 391.09 149.77 390.06 151.46 389.24 153.9 388.36 153.42 386.4 151.97 385.63 151.08 384.84 151.33 382.72 153.35 381.08 152.97 379.24 152.91 376.63 153.56 373.81 153.4 372.52 153.53 370.43 153.41 368.42 153.7 366.94 153.54 365.25 152.84 363.21 151.16 360.69 149.94 359.75 146.57 358.12 145.45 357.28 143.52 356.31 144.19 355.63 145.93 353.06 145.75 351.59 148.65 349.19 149.95 346.89 152.34 344.5 154.01 344.16 157.66 343.17 160.74 343.28 162.45 344.51 163.58 344.17 165.3 344.11 167 343.74 169.11 342.93 172.25 342.78 174.94 341.09 175.41 338.65 177.15 335.96 180.58 333.05 181.55 331.65 183.14 330.25 183.49 329.04 185.31 327.27 185.17 324.11 188.05 323.34 189.06 322.56 191.05 322.03 193.45 320.89 195.55 319.44 197.96 317.48 199.29 317.45 200.74 316.77 201.91 316.59 203.7 316.69 206.14 316.35 207.14 316.91 208.31 318.19 209.74 319.31 210.44 320.94 211.6 322.44 213.52 324.26 214.78 325.84 214.33 328.78 215.52 331.91 216.84 333.29 217.47 334.38 218.26 335.06 217.93 337.27 217.77 340.24 219.36 341.13 220 343.49 221.13 345.26 223.06 345.62 224.53 347.86 227.37 349.83 228.67 350.42 231.35 352.04 231.61 354.26 230.92 355.72 231.07 358.13 230.85 360.81 232.81 360.51 233.83 360.72 236.47 360.79 238.67 360.59 239.74 361.04 242.66 361.47 244.18 361.88 245.16 361.64 249.25 362.63 250.18 363.32 252.02 365.77 253.02 364.58 255.13 363.09 258.37 364 261.36 365.18 262.23 365.27 265.27 364.87 267.08 365.1 272.21 364.01 273.58 363.31 274.97 361.75 276.47 361.59 278.77 359.68 281.99 354.18 283.24 352.86 283.69 351.8 285.76 349.78 288.25 348.66 288.69 346.86 288.48 345.27 286.31 340.98 286.41 339.78 287.81 338.79 289.38 336.27 289.83 334.81 290.73 333.3 292.15 332.43 293.14 330.93 293.99 329.3 295.8 327.6 296.88 327.7 297.84 327.41 298.97 326.41 301.05 323.94 302.35 323.35 303.12 322.32 305.32 322.06 306.34 321.32 308.02 321.29 311.67 320.05 312.87 320.26 314.74 319.86 315.55 318.29 319 315.96 320.93 315.89 324.41 316.71 326.45 315.14 328.92 316.26 330.78 315.93 332.44 314.72 334 314.04 335.2 313.81 337.21 312.53 338.92 311.97 341.59 312 342.52 311.34 345.3 311.03 347.75 310.6 349.42 308.61 350.49 307.94 350.51 306.08 350.02 302.69 348.12 299.82 348.14 298.02 347.6 296.25 348.05 293.78 350.08 291.64 347.41 286.93 346.9 285.05 346.51 284.59 345.46 282.08 345.01 279.78 345.74 278.77 347.73 276.77 350.29 276.37 350.47 273.44 350.69 272.08 351.29 270.39 351.03 269.67 350.04 269.5 351.31 267.46 352.54 267.49 353.59 266.7 356.51 266.41 359.5 265.66 362 264.86 363.88 263.61 366.11 262.64 369.17 261.67 373.67 258.95 371.61 255.71 371.04 254.57 374.09 252.16 375.87 250.46 379.2 246.68 382.15 244.46 382.84 240.82 383.5 239.14 384.75 238.12 387.21 237.16 388.13 235.82 390.42 233.42 393.91 233.15 396.2 232.58 396.49 231.26 397.66 229.38 398.22 227.57 398.78 223.58 397.1 220.2 395.24 217.78 394.14 215.93 393.14 213.38 392.56 211.24 392.13 208.98 392.2 208.33 396.52 208.23 400.74 207.04 402.2 206.08 403.26 205.01 404.59 203.03 405.54 201.96 406.81 199.84 409.45 197.96 411.18 197.8 414.94 196.09 415.89 196.78 421.35 198.55 423.52 199.4 424.88 200.42 426.84 200.87 429.95 202.22 431.32 202.5 433.58 205.25 436.29 207.34 438.11 208.93 439.14 210.07 441.19 211.74 441.94 211.51 444.42 212.22 445.64 213.67 447.19 214.18 449.34 215.67 450.38 215.74 450.97 215.34 451.86 215.48 452.21 214.81 453.81 214.52 454.34 213.76 455.53 214.67 455.73 215.95 457.58 215.46 459.79 216.06 460.73 217.06 460.85 218.3 462.41 218.02 463.12 219.27 465.03 219.23 465.67 219.46 466.16 220.36 466.89 220.66 467.71 222.49 469.91 223.38 469.95 222.64 471.69 219.53 472.84 218.89 474.25 218.76 475.47 219.04 476.53 219.83 477.72 219.77 478.3 219.23 479.32 219.82 480.01 220.6 480.55 223.24 481.81 224.03 483.67 224.37 484.39 225 486.9 224.29 488.87 227.15 488.91 228.5 491.1 232.42 491.55 233.74 491.34 235.39 492.15 236.87 493.42 237.78 493.62 238.79 495.5 239.6 501.28 241.56 502.46 240.3 505.38 241.18 506.64 240.5 507.72 239.27 509.11 239.59 510.6 241.77 512.49 243.09 513.75 243.62 515.01 245.82 518.32 247.85 519.3 249.12 520.16 251.13 521.21 251.71 523.21 253.56 524.02 254.01 525.96 252.78 527.96 250.7 529.47 249.95 533.02 247.32 537.59 246.64 538.34 246.44 540.6 244.95 543.41 243.95 542.02 241.78 541.58 239.32 541.04 237.38 540.08 235.18 541.14 234.42 542.49 233.02 544.17 232.17 545.2 231.4 546.04 231.17 547.7 231.34 548.99 230.81 549.1 229.6 550.98 227.61 556.41 224.94 558.85 224.84 560.59 226.15 561.15 223.25 561.27 220.61 560.93 218 562.48 217.94 562.01 215.83 560.38 215.49 558.81 214.49 560.3 213.52 560.11 212.07 559.51 210.26 557.58 208.23 557.08 207.28 556.95 204.98 556.02 202.99 555.1 199.67 555.12 197.82 550.87 195.45 550.41 194.07 550.35 192.47 550.81 191.59 551.18 189.84 550.8 188.02 550.8 187 550.28 185.22 550.73 183.21 551.36 181.94 550.69 180.8 550.49 179.84 548.91 177.97 548.14 175.72 547.64 173.08 545.61 172.46 544.04 172.39 541.88 171.15 541.01 169.26 538.71 167.23 537.54 166.03 536.4 165.45 534.37 164.07 531.34 159.71 527.94 158.24 526.98 155.02 528.52 150.2 527.19 147.78 525.91 144.86 524.6 144.15 522.83 141.02 521.62 138.4 521.03 137.43 519.78 134.63 517.84 133.62 517.46 133.14 516.55 129.19 517.23 128.07 517.72 125.24 517.81 123.82 517.25 119.73 517.39 117.75 516.83 114.36 515.03 112.39 516.33 109.76 517.61 108.03 517.22 106.99 517.59 105.8 516.97 102.54 515.73 100.74 515.42 99.84 514.11 97.64 514.04 96.98 512.85 95.28 512.36 94.24 511.16 93.01 509.8 92.08 508.72 90.95 508.38 88.4 508.68 86.7 510.63 84.62 511.7 83.06 512 82.14 511.8 80.83 512.41 79.76 512.45 78.83 514.01 78.02 518.78 77.34 520.73 76.71 521.58 77.3 522.57 79.88 522.63 80.87 524.82 82.09 527.01 83.64 529.17 84.25 529.74 84.2 531.43 85.05 534.35 84.29 535.48 84.21 537.69 84.83 539.46 86.26 541.23 86.93 543.25 88.02 544.66 89.3 547 88.86 549.01 87.64 550.76 87.5 552.03 86.48 554.6 88.1 556.03 87.11 558.58 86.09 560.59 84.74 564.09 85.42 565.92 82.01 565.45 81.22 569.98 82.8 570.76 81.3 571.45 79.23 572.31 77.42 574.55 74.61 576.82 70.98 578.9 68.84 579.81 68.38 581.77 68.17 583.89 66.41 585.65 65.92 587.74 64.79 590.51 63.7 591.42 63.1 593.73 61.99 596.01 61.74 599.68 60.35 602.05 60.2 604.44 60.78 604.75 60.18 606.39 60.42 608.16 59.94 610.53 59.53 612.31 60.08 615.07 59.1 616.22 58.56 618.4 58.26 618.96 57.76 619.63 56.48 618.89 53.54 620.05 52.16 621.78 51.18 622.61 50.94 623.65 50.27 624.05 48.92 624.56 48.87 626.51 46.69 627.28 45.23 628.02 44.38 629.4 43.85 630.87 42.73 633.8 44.71 635.14 45 637.75 46.05 638.03 47.14 639.85 48.96 640.64 51.44 641.5 51.29 643.43 51.79 644.84 52.39 645.93 51.97 647.12 51.15 648.41 51.65 649.09 52.97 650 53.46 654.05 53.29 656.88 52.85 658.8 53.38 659.42 52.79 660.63 52.42 662.04 52.71 663.36 52.31 663.58 51.03 664.82 49.68 665.62 49.32 667.55 50.55 667.93 51.12 671.74 50.98 673.58 50.15 674.87 50.57 675.83 51.95 676.83 51.18 679.23 53.64 680.32 52.87 682.29 52.13 683.45 51.19 683.84 51.37 686.17 50.2 686.7 48.95 688.5 48.5 691.15 48.64 692.06 48.92 694.14 47.84 697.08 46.57 699.61 45.78 700.33 44.93 701.93 44.29 702.96 42.4 705.44 42.09 707.24 40.79 708.66 40.66 712.78 38.37 713.44 38.22 714.81 36.89 715.24 35.17 715.33 33.84 715.76 32.63 717.84 32.49 719.76 32.89 725.49 29.22 726.14 28.12 726.96 27.6 728.52 25.74 730.12 25.41 731.49 24.75 732.65 24.7 733.43 23.04 734.82 21.46 737.08 16.91 738.87 14.9 740.57 14.14 741.93 13.13 744.46 11.74 745.54 11.56 746.67 9.71 746.95 8.5 750.05 5.25 752.69 4.15 756.78 2.91 758.33 2.25 759.24 2.71 762.31 1 763.98 1.43 765.8 1.36 767.91 3.53 768.94 5.5 770.57 6.08 772.25 7.77 772.56 8.89 773.55 10.78 772.35 14.79 774.9 17.57 776.62 21.13 777.14 22.89 778.42 24.53 779.39 24.48 782.13 26.36 787.21 27.31 787.81 29.14 788.84 31.26 787.87 33.33 787.66 36.37 788.17 37.74 790.25 39.07 790.12 41.3 790.3 45.1 789.23 47.72 789.94 49.68 788.5 53.94 789.46 55.45 792.49 56.57 792.63 57.31 793.6 58.58 793.25 61.03 793.55 61.99 794.99 64.04 795.29 65.31 797.29 65.94 797.27 66.83 796.27 68.21 797.22 71.15 798.44 71.71 799 72.6 798.46 73.78 797.2 74.32 795.87 76.11 794.29 77.88 792.89 81.18 792.12 81.89 791.02 83.52 790.2 84.03 788.94 86.24 788.33 86.9 787.23 87.31 785.99 88.54 784.34 89.07 785.08 91.68 783.97 93.91 782.76 97.6 780.36 101.03 780.09 102.39 780.19 104.42 780.97 105.97 780.96 107.05 780.24 107.86 779.97 110.78 779.54 112.38 777.76 114.2 776.94 115.57 775.5 117.22 774.29 120.55 774.19 122.62 773.23 124.81 771.81 128.65 772.87 129.28 773.59 130.41 774.75 130.9 775.59 132.13 776.46 132.66 776.92 134.64 778.04 135.33 778.96 136.92 780.43 138.45 783.21 139.16 784.29 139.89 785.97 140.01 785.98 141.45 787.35 142.81 788.54 143.31 788.34 145.98 788.53 147.06 789.73 148.6 789.67 149.77 788.88 150.4 789.5 151.79 789.7 152.91 788.76 154.57 789.3 155.96 789.1 157.79 787.76 159.56 786.93 161.94 786.77 165.87 787.31 167.46 788.73 167.89 788.33 170.88 788.5 171.84 789.36 172.44 789.61 173.4 790.4 173.56 789.66 177.34 789.81 178.14 788.92 179.6 788.4 182.13 789.36 184.29 788.53 186.64 788.61 188.68 787.61 190.01 787.16 194.93 787.47 195.51 787.89 198.56 788.52 200.09 789.05 200.59 789.4 203.28 788.88 204.63 789.5 205.78 790.74 207.38 790.51 208.68 790.64 210.85 791.27 213.29 Z" id="36570000"/>
</g>
</svg>