<?xml version="1.0"?>
<svg xmlns="http://www.w3.org/2000/svg" version="1.2" baseProfile="tiny" width="800" height="922" viewBox="0 0 800 922" stroke-linecap="round" stroke-linejoin="round">
<g id="sigung">
<path d="M 596.67 866.49 595.67 866.98 595.45 866.37 596.03 865.75 596.55 865.78 596.67 866.49 Z M 381.27 840.89 380.4 841.32 378.92 840.72 379.61 839.98 380.99 840.14 381.27 840.89 Z M 611.06 834.68 611.9 835.27 611.05 835.63 610.42 834.95 611.06 834.68 Z M 381.75 833.17 381.52 833.56 381.37 834.79 380.31 834.2 379.99 833.3 381.33 833.16 382.01 831.98 382.3 832.15 381.75 833.17 Z M 607.04 827.33 608.79 827.83 610.16 829.54 611.21 831.46 610.7 833.96 610.45 834.12 609.09 834.04 607.65 833.69 606.38 832.13 606.44 831.3 606.01 829.55 606.28 829.15 606.38 827.35 607.04 827.33 Z M 443 817.95 441.97 818.89 442.03 819.39 441.36 819.96 441.12 821.28 440.48 821.48 439.81 821.31 440.1 820.49 440.88 820.3 440.94 819.55 440.11 819 440 818.34 440.8 817.7 441.59 817.96 443 817.95 Z M 361.03 816.19 362.21 816.73 363.7 818.03 364.34 818.9 365.75 819.34 366.4 819.73 367.63 819.89 369.27 820.46 369.73 820.27 370.43 820.75 371.54 820.59 374.68 821.9 375.92 821.81 376.49 821.54 377.63 820.31 378.16 818.95 379.06 818.48 380.17 817.24 381.61 817.98 381.96 818.54 382.1 820.19 382.37 820.95 382.3 822.85 380.93 823.29 380.08 823.28 379.29 824.14 378.92 824.88 378.9 825.56 378.24 826.57 377.88 827.54 378.98 829.21 379.79 830.96 378.64 831.73 377.88 831.96 378.05 831.06 376.98 830.15 376.01 830.45 375.39 831.12 374.75 832.44 374.56 833.59 374.6 834.56 375.1 835.64 376.48 835.86 377.31 835.49 378.25 835.89 378.27 836.86 377.46 837.15 377.04 837.87 377.33 839.84 378.45 841.32 377.66 841.45 376.96 842.88 376.38 843.46 376.06 844.51 375.34 844.5 373.27 843.23 372.95 842.4 373.32 841.85 373.33 841.15 372.94 840.43 370.88 838.91 370.47 838.08 371.15 836.47 372.47 835.25 372.3 833.76 371.6 832.88 368.08 831.21 367.62 830.7 367.06 830.59 366.74 829.94 365.94 829.1 365.35 828.81 363.4 827.34 363.74 826.3 363.62 825.23 362.92 824.1 362.38 823.56 362.49 823.09 361.92 821.95 361.73 821.18 362.19 820.49 361.27 817.98 359.96 817.27 359.53 816.71 360.61 815.95 361.03 816.19 Z M 422.27 797.06 422.21 798.07 421.57 798.02 421.34 797.34 422.27 797.06 Z M 357.91 781.47 358.14 781.47 358.54 783.25 357.86 784.27 357.21 784.12 355.97 782.59 356.31 781.77 357.91 781.47 Z M 376.89 764.36 377.66 765.82 378.55 766.46 378.35 767.23 377.78 767.58 376.91 767.71 375.98 767.43 373.78 767.29 372.99 766.8 372.34 766.03 372.3 764.95 375.16 763.58 375.74 763.66 376.89 764.36 Z M 371.09 744.3 372.12 744.66 371.91 745.95 371.34 746.79 371.27 747.5 370.87 748.1 369.2 748.76 368.16 748.68 367.28 749.65 366.28 749.64 365.72 749.34 366 748.5 367.62 748.27 367.38 747.07 367.89 746.33 369.96 744.44 370.59 744.12 371.09 744.3 Z M 656.11 702.19 656.76 702.86 657.15 703.82 656.66 704.2 655.39 704.24 653.96 703.66 653.21 703.61 653.09 702.76 653.6 702.27 654.98 701.88 656.11 702.19 Z M 401.23 690.65 400.51 690.99 399.96 691.6 399.41 690.81 399.81 688.92 400.44 688.77 401.23 690.65 Z M 712.26 663.3 713.4 663.91 713.42 664.61 713.07 665.77 712.28 665.88 711.6 665.2 711.52 663.54 712.26 663.3 Z M 322.38 653.49 323.26 654.05 323.31 655.34 322.87 655.73 321.5 655.19 320.9 654.07 321.23 653.47 321.75 653.25 322.38 653.49 Z M 359.85 651.94 361.34 652.82 362.76 653.28 362.98 653.62 362.88 655.08 363.07 655.96 363.18 658.21 362.78 658.42 361.38 658.03 360.83 658.06 359.47 659.75 358.55 660.57 356.97 661.26 355.96 661.06 354.33 659.9 354.62 658.05 357.09 656.44 357.81 656.14 358.32 655.5 358.9 654 358.34 652.75 358.91 652.07 359.85 651.94 Z M 796.82 644.49 795.77 644.64 795.49 644.12 796.77 643.76 796.82 644.49 Z M 314.96 640.88 315.18 640.92 317.04 642.48 317.82 642.67 318.77 642.5 320.42 640.46 320.6 640.6 318.96 642.7 320.04 643.14 322.24 643.21 323.69 643.69 324.41 645.22 324.57 646.57 324.34 647.5 323.42 647.73 322.7 646.98 321.28 646.87 319.36 647.44 318.83 647.93 318.69 648.89 317.56 648.83 316.16 649.12 315.29 648.88 313.92 649.83 313.79 650.82 314.49 651.78 314.26 652.49 313.56 653.02 312.87 652.75 312.91 651.71 312.39 651.23 312.17 650.26 311.09 648.8 310.43 647.2 310.83 646.68 310.18 645.67 310.47 645.46 311.2 646.53 312.9 646.3 313.15 645.74 314.1 645.86 316.4 643.82 316.46 643.15 314.21 642.64 313.82 642.42 313.46 641.48 313.81 640.34 314.96 640.88 Z M 307.71 632.01 308.35 632.19 309.33 633.08 310.08 632.94 311.96 634.01 312.48 633.97 313.23 634.67 313.27 635.62 314.37 636.51 314.1 637.44 313.46 638.29 312.44 638.93 312.35 639.96 310.99 641.19 310.94 642.17 309.76 642.38 309.45 643.13 308.37 643.89 304.46 644.45 303.74 644.04 302.61 643.77 302.7 643.09 304.46 642.63 305.36 641.57 306.44 641.49 307.31 641.18 307.51 640.67 308.18 640.65 308.57 639.78 309.37 639.39 309.61 638.86 308.39 638.13 307.6 636.83 308.39 636.79 309.14 637.26 309.53 636.34 308.48 635.17 308.36 634.36 305.91 633.23 305.66 632.13 306.43 631.96 307.1 631.5 307.71 632.01 Z M 295.9 617.96 297.78 618.19 299.25 620.34 300.46 620.81 301.63 621.85 302.32 622.67 302.96 622.77 304.18 623.51 304.55 624.36 304.36 625.27 303.47 625.66 302.27 625.74 301.48 624.78 300.57 623.95 300.48 623.46 298.34 622.76 297.56 622.93 296.45 622.33 296.14 621.92 296.11 621.11 295.15 619.36 294.96 618.23 295.9 617.96 Z M 277.37 579.06 278.98 579.92 279.77 580.71 280.4 580.92 281.3 582.35 281.42 582.96 282.31 584.73 282.91 585.4 283.34 586.38 283.93 588.42 284.86 589.2 285.75 590.29 286 591.17 286.5 592.06 286.63 592.78 287.64 594.64 287.78 595.4 287.65 596.38 288.61 597.75 290.02 599.49 290.32 600.43 290.9 601.33 291.21 602.71 291.23 604.92 290.89 605.84 289.73 606.56 289.73 608.33 290.09 609.21 288.44 609.29 287.88 609.53 286.97 609.32 286.3 608.83 285.86 607.74 284.42 607.86 283.9 607.4 283.53 605.54 282.67 605.16 282.18 604.58 281.58 604.66 280.85 604.23 280.68 603.49 279.78 601.77 278.91 600.69 279.11 600.32 280.12 600.47 280.94 599.55 282.64 600.29 283.78 601.49 284.74 602 285.57 601.48 286.52 599.94 285.86 598.49 285.74 597.69 286.91 596.83 286.74 596.07 286.11 595.77 285.13 594.35 283.89 593.79 282.9 594.28 281.8 593.78 281.01 594.18 280.96 595.41 279.17 594.8 278.12 593.77 277.2 592.07 276.67 591.53 276.43 590.65 276.72 590.29 277.55 590.39 278.08 589.84 277.64 587.4 279.37 587.22 279.98 586.17 279.76 585.36 278.93 584.59 278.6 583.97 278.43 582.58 278.58 581.88 278.07 581.56 277.61 580.62 277.37 579.06 Z M 359.3 523.32 359.76 523.55 359.66 524.29 358.91 524.35 358.83 523.7 359.3 523.32 Z M 324.14 465.58 324.63 466.01 324.87 467.92 324.59 468.55 323.46 468.23 323.13 466.72 323.19 466.24 324.14 465.58 Z M 301.33 452.77 300.6 452.87 300.09 453.61 299.2 452.56 299.24 451.86 300.6 451.38 301.07 451.6 301.33 452.77 Z M 342.43 451.1 341.21 451.84 340.63 451.56 340.68 450.1 341.51 449.63 342.31 450.14 342.43 451.1 Z M 296.01 447.67 295.48 447.16 296 446.25 296.46 446.31 296.41 447.18 296.01 447.67 Z M 299.08 440.07 299.47 441.32 299.4 441.98 298.84 443.16 296.94 444.24 296.63 444.99 296.74 445.52 295.98 445.81 295.91 444.98 296.57 444.59 296.41 444.16 295.5 443.55 295.66 442.75 296.45 441.58 298.49 440.14 299.08 440.07 Z M 289.23 423.66 289.59 423.44 292.48 423.91 294.79 424.44 290.57 424.07 289.13 424.01 288.34 424.36 287.63 424.17 288.1 422.62 289.23 423.66 Z M 233.36 419.71 232.95 420.14 232.27 420.14 231.91 419.74 231.15 419.57 230.84 418.78 231.27 418.12 231.93 418.28 233.31 419.13 233.36 419.71 Z M 237.36 418 236.5 417.98 236.39 417.44 236.83 416.84 238.22 416.54 237.36 418 Z M 127.23 389.91 127.81 390.04 128.42 390.89 128.24 392 127.11 392.45 126.35 392.52 125.74 392.15 125.04 391.31 125.22 390.66 126.33 389.93 127.23 389.91 Z M 147.01 380.88 147.5 382.29 147.22 384.5 146.84 385.42 147.21 386.13 147.4 388.82 147.87 389.58 147.6 390.39 146.96 390.43 144.6 389.22 142.74 389.19 141.83 390.71 141.23 392.33 140.61 392.51 139 392.16 138.16 392.17 135.66 393.47 134.26 394.62 132.72 396.79 130.4 398.25 129.17 397.64 129.34 394.87 129.69 393.23 130.41 392.6 131.04 391.73 131.62 390.43 131.63 388.71 130.14 387.87 130.92 387.42 132.56 385.54 132.75 385.66 134.79 383.2 135.87 383.45 136.61 384.56 137.57 384.43 138.36 383.47 140.46 383.21 141.34 383.76 142.03 383.71 142.53 381.96 143.07 381.54 144.84 381.88 145.19 381.12 146.56 380.47 147.01 380.88 Z M 105.58 340.91 106.4 342.14 107.41 342.48 108.21 343.38 108.36 345.19 107.73 346.67 106.26 347.89 106.21 348.43 105.6 349.03 104.14 348.59 102.9 349.2 102.05 349.13 101.55 348.68 101.7 346.65 101.16 346.73 100.79 347.92 100.51 349.7 99.71 350.81 99.18 352.03 97.41 352.15 97.69 353.56 96.86 354.72 96.29 355.05 95.39 355.06 95.21 354.35 93.66 354.24 92.8 353.36 93.07 352.39 94.11 352.24 94.55 351.75 95.29 349.24 96 345.91 95.89 344.36 96.45 343.57 96.9 343.57 98.63 342.15 99.06 341.2 99.7 340.83 101.09 340.72 103.47 340.07 105.58 340.91 Z M 58.72 323.82 59.16 323.87 60.07 324.62 58.83 324.73 58.35 324.45 58.72 323.82 Z M 34.07 296.63 34.29 297.25 33.96 297.75 32.09 298.09 32.19 296.99 32.73 296.98 33.08 296.45 34.07 296.63 Z M 21.29 212.05 21.75 212.4 21.4 214.36 21.11 215.39 20.14 215.77 19.72 215.23 19.92 214.1 19.87 213.34 20.22 212.65 21.29 212.05 Z M 23.81 182.66 23.93 183.27 22.75 184 22.13 183.93 22.36 183.03 23.81 182.66 Z M 19.35 169.13 19.73 169.4 19.56 170.52 19.11 171.45 17.49 171.1 17.2 170.01 18.09 169.43 18.97 169.41 19.35 169.13 Z M 2.27 119.64 2.76 120.35 3.85 121.04 4.73 121.03 5.85 121.4 6.26 121.06 7.09 120.95 8.61 121.6 8.94 123.11 9.04 126.36 7.99 126.82 6.35 126.45 5.16 127.03 4.88 127.58 4.29 127.65 3.41 127.2 3.16 126.55 3.14 125.63 4 124.53 2.88 122.84 2.83 122.55 1.1 120.92 1 119.78 2.13 120.32 2.27 119.64 Z M 204.81 118.67 204.28 117.75 204.82 116.6 205.35 117.86 204.81 118.67 Z M 209.72 108.67 209.46 109.56 208.77 109.56 208.6 108.83 209.1 108.17 209.85 107.66 210.25 108 209.72 108.67 Z M 163.52 76.68 162.87 76.9 163.08 75.88 163.74 75.23 163.88 74.65 164.67 73.96 165.34 74.58 164.88 76.11 163.52 76.68 Z M 240.87 73.35 241.62 73.51 267.68 78.98 298.01 86.48 361.69 106.07 366.66 107.59 408.9 142.79 409.78 143.58 420.65 149.48 491.93 207.48 501.44 195.48 508.47 201.04 514.04 194.05 514.69 193.04 517.65 192.87 519.05 192.12 522.51 189.9 522.52 188.7 521.86 187.31 522.03 186.2 522.71 185.52 523.18 183.18 523.8 182.29 523.78 181.3 525 179.37 525.96 178.94 527.06 177.6 527.6 176.29 529.37 174.73 529.71 173.52 529.6 172.11 531.16 171.71 531.88 171.76 532.29 171.45 533.62 168.16 534.24 167.3 535.86 167.99 536.85 168.13 539.62 166.89 542.4 166.89 543.76 164.34 545.2 163.45 547.14 162.69 548.68 164.51 550.98 164.96 554.98 165.08 559.06 165.89 562.52 165.55 565.7 163.65 568.31 163.67 569.08 163.56 571.81 163.61 572.83 162.72 576.55 158.75 579.47 158.62 582.52 158.19 585.27 157.57 586.6 158.02 589.64 158.06 591.06 157.62 592.62 158.41 593.92 159.45 595.48 162.52 596 163.1 597.3 163.43 599.05 162.98 602.88 161.39 603.76 161.11 605.42 160.96 606.04 161.24 608.74 161.8 610.93 162.87 612.83 163.94 616.57 165.29 617.51 165.73 618.34 166.42 619.51 167.05 620.12 166.29 622.1 164.85 622.71 164.69 624.43 165.55 625.38 165.73 626.25 166.43 627.62 167.86 628.57 168.62 629.78 169.84 632.24 169.78 634.02 170.96 635.96 172.66 636.26 173.61 637.79 174.65 638.74 175.99 639.69 175.85 641.58 176.79 644.07 176.67 645.51 175.7 646.09 173.86 646.62 173.29 646.43 170.13 646.78 169.63 646.85 168.81 647.48 167.12 648.44 165.89 649.04 164.87 650.92 163.36 652 161.24 652.21 159.65 654.39 157.66 657.09 156.07 658.63 154.9 659.11 152.55 659.26 150.77 659.3 148.38 661.83 147.06 663.69 145.63 664.79 145.29 666.32 145.32 668.05 145.64 669.13 145.3 670.89 145.89 673.12 146.08 675.3 146.46 676.4 144.98 680.09 143.31 682.37 143.39 684.4 142.99 685.12 143.07 685.49 142.64 686.58 142.29 687.44 142.45 688.68 141.72 689.11 141.91 690.15 141.84 690.54 142.13 691.55 142.27 693.27 141.75 694.35 142.49 695.07 143.5 695.92 143.64 697.03 144.75 698.87 146.06 700.49 147.72 701.75 150.73 703.14 152.53 705.74 153.16 707.62 154.31 708.45 154.41 709.62 154.2 711.66 153.4 712.88 152.3 714.21 151.29 714.83 150.06 716.19 150.03 718.81 151.3 719.54 152.4 721.54 153.28 722.31 153.81 723.36 154.12 724.44 153.46 726.26 153.05 727.41 153.27 728.22 153.24 729 153.61 729.89 153.7 730.92 153.54 731.53 154.08 733.92 154.38 734.63 155.03 734.87 155.86 735.86 156.71 737.48 158.37 739.21 158.41 739.65 157.81 742.27 157.28 742.57 156.89 743.83 156.5 744.33 156.78 745.38 156.9 747.14 157.83 747.58 158.46 748.33 158.55 749.62 159.32 752.02 161.17 753.11 161.62 752.86 163.64 752.19 165.42 751.41 165.96 751.06 168.93 750.29 169.91 750.17 170.52 748.62 172.6 748.3 173.7 747.75 174.48 747.82 175.42 746.15 176.72 745.22 178.16 744.13 178.54 743.57 179.15 742.08 179.73 741.62 181.11 742.81 183.6 742.96 185.7 743.99 188.09 743.54 189.14 743.61 189.96 744.83 189.99 745.39 191.17 746.25 192.38 746.86 193.7 747.12 195.2 746.88 195.88 746.89 197.11 747.22 197.51 746.61 200.3 744.9 200.53 743.45 200.9 742.59 200.85 741.58 201.68 740.27 202.13 738.74 201.69 737.75 201.71 736.77 201.39 736.11 200.92 734.2 202.12 733.82 203.16 733.93 203.82 732.74 206.2 731.37 206.54 730.83 208.07 732.09 208.55 733.38 210.2 733.79 211.37 735.66 213.07 736.13 214.34 737.79 215.91 737.91 217.93 737.74 218.08 738.26 220.44 739.74 222.01 739.42 223.55 738.74 224.02 735.69 224.72 733.98 224.78 732.72 225.42 732.9 226.69 732.03 228.52 731.3 228.68 731.01 230.3 730 231.36 729.25 231.75 728.18 233.27 727.9 233.99 727.95 235.49 727.01 236.52 726.96 237.51 727.17 238.15 726.38 240.52 725.26 241.22 725.18 243.03 724.69 244.05 725.37 245.64 724.15 246.03 723.21 247.01 722.07 248.44 721.19 248.55 718.95 249.31 718.71 250.57 717.68 251.4 717.42 253.19 716.98 253.79 716.26 255.32 715.83 257.87 717.59 258.07 719.38 258.68 720.42 258.58 721.11 258.96 721.7 258.82 723.51 259.16 724.05 259.15 725.53 260.16 726.04 260.08 727.13 261.29 728.12 261.77 729.75 264.2 730.19 264.63 731.62 265.05 732.96 265.9 734.44 265.5 735.84 264.72 736.31 264.66 737.41 263.9 740.5 262.97 741.3 262.35 742.44 263.03 743.7 262.84 744.93 262.28 743.23 265.03 742.13 266.98 740.18 268.52 738.09 271.49 736.96 273.76 734.68 275.77 733.65 275.93 731.88 275.81 731.66 277.27 730.64 279.55 730.64 280.15 730.14 280.92 729.66 281.09 729.84 282.46 729.61 283.19 728.34 284.72 727.83 285.66 727.91 287.09 727.5 287.48 726.99 288.63 727.32 291.45 727.16 292.28 727.33 292.98 727.06 293.65 727.06 295.01 725.53 298.63 725.68 300.32 725.46 301.17 722.72 303.42 724.31 306.1 723.68 306.78 722.68 308.9 721 310.06 718.17 313.19 717.8 314 717.13 314.68 716.15 316.06 715.21 317.04 714.62 317.4 713.04 318.84 711.6 319.34 710.8 319.91 710.49 320.44 709.35 321.31 708.93 320.9 708.05 321.93 707.5 321.69 706.3 323.11 705.13 323.55 704.11 324.23 703.61 325.01 703.29 326.21 702.03 327.06 699.17 325.92 698.77 327.31 698.88 327.63 697.93 329.07 698.71 329.84 699.7 331.75 699.56 332.69 697.65 335.99 698.38 338.13 699.52 339.49 700.03 340.5 701.54 341.48 702.28 342.61 703.68 343.52 703.9 345.2 704.2 345.56 705.55 346.01 706.35 346.53 706.38 347.38 705.98 348.98 707.81 350.25 709.32 350.9 711.49 350.86 711.65 352.23 712.42 353.98 712.43 354.41 711.45 355.66 710.18 355.86 710.11 357.17 711.42 357.98 712.13 358.84 712.85 361.55 713.5 362.19 714.68 362.91 716.31 364.17 716.28 364.82 715.87 366.71 715.47 367.94 716.21 369.06 717.21 369.98 718.73 370.83 719.93 372.74 720.69 373.37 723.63 374.86 723.58 376.21 724.15 377.7 725.07 378.56 725.33 379.38 726.34 379.8 726.82 381.43 727.7 382.22 728.78 383.42 729.78 385.1 729.64 386.01 730.38 387.14 732.01 388.79 732.85 389.16 734.47 390.93 735.31 391.69 734.84 392.27 734.68 393.03 734.26 393.66 734.24 394.26 732.97 394.94 733.13 396.88 733.03 398.22 732.79 399.06 732.3 399.3 731.71 400.21 731.66 400.92 732.06 403.6 731.99 404.82 731.54 405.65 731.24 406.91 729.84 407.11 729.67 409.44 728.81 410.46 728.22 410.77 728.37 412.27 727.5 413.36 726.11 414.13 726.89 415.61 727.49 416.31 727.09 416.73 725.97 417.34 724.74 417.51 723.39 418.39 723.92 419.47 724.17 420.57 722.51 420.64 721.46 420.97 721.06 421.41 720.37 422.92 718.99 423.82 718.39 425.53 716.81 427.89 715.47 428.81 714.85 429.88 713.12 431.5 712.79 431.53 711.28 432.93 710.04 433.1 709.75 434.7 708.18 434.62 707.68 434.42 706.13 435.43 704.4 436.9 703.9 437.08 703.59 438.21 702.61 438.94 701.08 438.74 699.62 439.14 698.46 439.67 697.19 440.74 695.96 440.03 693.72 440.59 692.84 440.05 689.98 441 690.24 442.09 689.87 444.71 690.91 446.84 692.42 448.34 693.78 449.12 694.97 449.56 695.86 449.66 699.97 450.98 701.27 453.28 701.24 454.83 702.26 455.34 703.83 455.73 705.62 456.57 706.27 456.29 708.2 456.74 709.65 458.14 711.29 458.31 713.87 458 714.85 457.96 716.03 457.04 717.96 460.19 719.17 460.68 718.68 462.21 718.81 463.49 719.47 465.41 720.95 467.51 720.58 469.06 720.88 470.18 719.93 474.03 719 475.15 718.39 476.34 717.24 477.78 716.42 478.59 715.43 478.88 714.25 479.49 713.75 481.54 712.35 483.83 711.29 485.39 712.22 489.89 713.59 493.71 713.74 495.16 715.24 496.21 718.73 496.11 720.23 494.94 723.46 494.55 725.67 495.83 726.32 496.58 724.82 497.8 721.45 501.48 721.4 502.74 719.9 505.01 720.11 507.68 719.25 508.52 718.68 509.53 719.4 510.68 719.28 511.41 720 513.06 720.53 513.63 720.38 515.27 720.72 516.45 720.04 518.02 719.74 521.01 719.57 521.83 719.08 522.84 719.27 524.63 718.71 525.81 718.8 527.01 718.5 527.98 718.69 529.59 719.67 530.27 719.38 531.12 718.52 531.71 716.42 534.06 716.34 534.59 715.24 537.11 715.53 537.52 716.02 538.94 716.13 540.1 715.73 540.63 715.64 542.07 715.85 544.42 715.79 545.6 716.06 547.95 716.38 547.97 716.47 549.18 716.73 549.92 716.65 551.33 716.16 553.8 715.23 554.02 715.06 555.97 715.88 556.13 715.52 560.43 715.59 561.61 716.2 564.4 716.23 565.12 714.27 567.62 714.88 568.03 714.82 568.83 715.69 570.2 716.17 572.61 715.79 574.45 714.74 574.22 713.81 572.23 713.28 572.4 713.01 573.56 713.79 574.45 716.8 575.69 718.23 576.17 720.03 577.04 721.25 577.41 723.51 578.31 726.29 578.82 728.2 578.12 729.16 577.57 729.71 574.47 738.41 573.05 739 572.98 767.62 573.92 769.55 574.17 770.92 575.23 771.65 576.53 774.03 582.4 799 603.37 798.62 604.32 798.92 604.6 797.99 606.04 797.45 606.12 789.48 618.48 789.86 619.94 790.17 620.3 791.36 620.72 794.5 622.03 795.36 622.13 796.79 621.67 797.86 620.76 798.73 621.28 798.7 621.95 798.09 622.75 797.29 624.22 795.91 624.03 794.74 623.24 794.32 622.64 793.28 621.78 791.4 621 790.63 621.35 790.27 622.34 789.38 622.2 787.11 622.9 785.55 624.02 785.22 624.58 783.22 626.62 782.45 627.23 783.77 629.46 783.52 629.49 782.28 627.41 781.12 628.08 780.89 627.96 778.37 625.44 778.24 625.11 777.33 624.57 775.9 624.2 774.86 623.52 773.59 623.02 772.59 623.04 770.44 623.57 766.66 625.19 765.57 625.87 764.45 626.32 763.04 627.63 762.2 628.56 761.26 628.59 760.84 629.19 761.2 629.52 760.92 631.33 761.31 632.71 760.78 633.18 759.65 633.58 758.93 634.63 757.92 634.52 756.27 634.95 753.41 634.98 752.66 634.61 751.05 634.38 749.18 633.19 745.08 633.34 745.27 633.8 745.91 638.47 746.11 642.32 746.26 643.19 746.88 643.31 750.22 645.07 752.86 645.85 753.28 645.82 755.77 644.95 758.36 644.27 759.34 643.83 760.29 644.32 761.73 643.44 763.07 643.25 764.43 642.69 765.1 642.02 766.16 642.18 767.33 642.68 767.74 643.39 767.38 644.16 766.54 644.69 765.96 644.48 764.07 645.29 763.2 646.12 762.2 646.28 761.23 646.9 760.12 647 759.41 646.85 758.08 647.15 757.88 647.57 757.18 647.26 755.69 647.85 754.53 648 754.12 647.45 753.05 647.16 752.06 647.25 750.57 646.7 747 645.8 746.14 645.39 745.43 644.52 746.07 644.24 746.17 643.33 746.04 642.23 745.84 638.37 745.2 633.81 744.76 632.83 743.89 632.68 741.84 632.98 741.1 632.9 740.68 632.5 738.59 633.33 737.98 633.74 738.02 634.71 737.82 635.3 737.15 635.45 736.67 635.9 736.04 635.68 732.88 638.14 724.15 644.55 723.54 645.07 723.96 645.81 725.28 647.35 726.04 647.88 726.37 648.46 724.75 649.47 724.22 650.02 723.09 650.54 722.14 651.74 720.45 653.06 717.13 652.89 715.41 653.28 714.29 656.69 713.17 657.95 712.4 658.5 711.5 659.8 709.88 660.26 708.13 660.01 706.87 659.38 705.73 658.1 704.56 657.99 703.07 657.6 701.64 656.76 699.6 658.22 699.36 658.94 699.67 659.35 700.68 659.85 701.16 660.56 701.04 662.04 701.77 662.9 702.28 664.9 704.11 665.91 704.21 667.15 704.64 668.1 706.25 668.39 706.61 669.76 707.34 670.98 707.38 672.1 706.7 673.15 706.16 673.54 705.25 673.51 704.2 672.72 703.59 672.85 703.02 673.53 702.9 674.83 704.08 674.89 704.42 675.36 705.25 675.64 705.97 676.82 706.04 677.87 705.8 679.07 705.49 679.69 704.49 680.28 702.81 679.9 701.97 680.27 700.01 679.95 699.62 679.16 699.48 676.84 699.88 676.01 699.98 674.76 698.23 672.95 698 672.85 696.12 670.95 695.29 669.95 693.21 668.37 691.32 667.5 688.97 665.43 688.5 664.43 688.01 663.98 687.35 662.09 686.72 661.25 686.74 660.39 684.81 658.86 684.41 658.89 683.58 659.54 682.03 659.93 681.03 660.02 679.99 660.84 678.82 661.11 678.08 661.07 677.96 661.88 676.57 665.39 676.49 666.35 677.04 667.96 676.46 668.89 676.46 669.28 675.57 670.1 674.53 670.65 672.86 671.03 671.58 670.65 670.91 670.07 669.96 670.33 668.93 670.17 667.56 669.14 665.15 668.87 664.53 667.86 664.49 667.1 664.94 666.82 665.41 665.98 665.11 665.43 664.55 665.79 663.84 665.72 662.54 666.12 662.64 666.84 661.81 667.12 661.39 668.32 661.41 669.3 661.69 670.17 661.62 671.5 661.87 672.23 662.7 673.15 663.07 673.99 663.11 675.42 663.35 675.9 663.22 677.18 660.54 676.27 658.03 676.66 657.46 676.41 656.62 675.62 656.54 675.19 655.21 675.71 655.53 677.85 655.56 679.32 656.12 680.16 656.58 681.46 657.01 681.56 657.36 683.28 657.72 685.72 658.63 685.74 658.35 684.84 659.82 685.57 660.18 686.75 663.6 686.67 664.79 686.27 665.65 686.95 666.24 687.04 666.26 687.88 664.96 689.2 664.11 688.51 664.02 687.69 664.32 687.25 663.11 686.69 661.76 686.86 660.43 687.21 659.85 687.57 658.54 685.99 657.73 685.85 657.18 686.33 654.9 686.18 654.29 686.47 653.15 686.61 652.55 687 651.93 688 651.92 688.77 654.03 691.4 654.71 691.74 655.19 692.64 655.21 693.81 654.46 694.61 653.81 694.01 653.55 693.26 652.76 692.48 652.13 692.5 651.28 692.1 650.28 692.45 648.95 692.66 648.1 692.96 647.2 692.63 645.33 691.25 644.33 690.34 643.35 689.13 641.17 688.71 639.81 689.22 639.07 689 638.62 688.19 637.88 687.9 636.98 687.96 636.34 688.5 635.54 689.72 635.36 691.01 634.06 691.31 633.28 692.18 633 693.77 632.72 694.34 633.32 694.76 634.21 694.99 634.8 694.65 635.73 696.24 635.85 697.72 635.7 698.39 635.27 698.68 633.34 697.78 632.93 697.36 631.44 697.41 631.05 697.98 630.06 698.79 629.36 699.86 628.82 701.35 628.36 703.08 628.68 703.51 628.55 704.12 627.99 704.57 627.62 705.37 627.05 705.5 626.17 707.21 625.6 707.48 624.95 707.36 623.82 705.93 623.85 705.65 622.57 704.24 621.88 704.77 621.41 704.18 621.5 703.12 619.42 700.97 616.87 698.96 613.69 700.5 612.81 702 612.15 702.35 612.59 703.04 611.96 703.52 611.38 702.65 610.63 703.15 609.04 705.54 609.79 705.93 609.63 706.31 608.64 705.75 607.36 705.78 606.78 706.15 606.37 707.35 607.52 708.26 606.94 710.53 607.73 711.29 608.67 710.41 609.66 710.28 610.31 710.55 611.05 711.2 613.99 712.65 613.77 713.52 613.86 714.31 613.23 714.4 613.13 715.07 613.95 716.75 615.1 717.44 615.5 718.4 614.21 720.87 613.3 721.87 612.98 722.49 613.98 723.17 613.93 723.93 613 725.55 611.72 726.63 610.96 726.97 608.95 727.22 608.26 727.52 607.69 728.5 606.78 729.14 606.53 730.54 605.1 732.7 604.37 733.41 602.25 734.6 601.91 734.69 600.61 736.55 600.38 737.44 599.86 737.23 598.49 738.31 598.91 738.93 600.18 740.11 600.77 741.41 600.89 743.34 601.31 745.27 601.85 745.65 602.17 748.07 602.66 749.91 602.58 751.03 602.95 751.75 603.46 752.02 604.21 751.87 606.24 752.33 607.83 751.99 608.92 752.16 610.48 752.08 612.28 752.48 613.34 752.41 614.19 753.5 613.81 754.57 612.88 756.01 611.71 758.1 610.87 759.14 610.5 760.07 610.76 761.08 609.99 762.91 610.07 764.8 611.11 766.18 612.02 766.82 612.74 767.87 612.71 768.7 612.35 769.58 612.57 770.29 613.27 770.42 613.15 771.3 612.32 771.31 612.15 772.41 611.16 773.15 610.19 774.21 610.51 775.45 610.23 776.6 609.81 777.08 610.27 777.68 610.03 778.09 609.3 777.74 607.63 778.99 607.94 779.85 607.1 780.08 606.69 779.26 605.97 778.69 605.5 778.73 604.74 779.36 605.24 780.43 604.79 780.64 606.06 781.7 606.99 780.76 608.03 780.51 608.97 780.63 609.47 780.18 610.97 781.06 611.69 782.36 611.22 783.54 611.85 785.38 611.48 787.31 611.88 788.49 612.59 789.52 613.06 791.06 612.68 792.15 611.97 792.25 610.69 793.05 610.26 792.99 608.66 794.21 607.12 794.76 606.04 795.5 604.99 795.02 604.49 795.31 603.83 796.39 603.83 797.09 604.45 797.28 604.79 798.01 604.53 798.4 604.56 799.35 604.22 800.26 603.83 800.45 603.3 801.3 602.56 801.16 601.56 801.75 600.48 801.2 599.26 801.24 597.32 802.62 595.74 804.1 595.41 804.66 592.82 807.12 592.03 808.17 591.32 809.77 590.46 809.76 588.61 808.91 587.05 807.93 586.06 808.12 585.17 808.63 582.58 811.41 583.24 811.89 584.35 814.24 584.41 816.09 586.98 818.09 589.39 818.54 590.69 819.12 592.08 818.7 593.13 818.54 593.96 818.16 594.49 818.29 594.04 819.51 594.14 820.3 594.48 820.68 594.46 821.82 594.87 822.64 595.88 823.41 596.75 823.7 598.2 825.12 597.07 825.05 596.78 824.18 596.01 824.11 595.5 824.4 594.92 823.99 594.19 822.72 593.52 823 593.6 824.24 594.06 824.39 593.44 826.15 592.54 826.71 591.83 826.57 590.12 826.88 588.34 827.89 586.49 829.38 585.46 831.24 585.44 832.84 585.93 833.32 587.24 833 587.62 833.49 588.05 834.83 587.84 835.61 587.34 835.85 587.24 836.67 586.35 836.31 586.05 835.16 586.17 833.63 585.35 833.17 583.98 833.05 582.49 833.46 581.54 834.13 580.95 835.03 580.64 836.05 585.25 838.35 585.16 838.5 580.66 836.23 579.9 836.67 579.37 836.67 578.34 837.42 579.71 837.59 580.71 838.26 581.5 839.15 581.73 841.28 584.02 841 585.77 841.25 586.36 841.68 586.07 842.18 586.14 844.56 586.52 845.58 586.45 846.56 586.09 847.36 585.71 847.47 584.39 849.01 584.23 849.85 585.27 851.55 585.75 851.78 585.54 853.1 583.94 854.18 582.95 855.86 582.73 856.73 582.91 857.91 583.93 858.37 584.29 858.79 584.66 860.51 584.18 861.01 583.69 860.99 583.2 861.61 582.67 863.46 582.88 864.12 582.52 864.49 582.71 865.25 581.83 866.25 581.49 868.03 581.59 869.69 582.21 870.54 582.86 870.41 584.37 870.62 584.74 871 587.79 872.37 588.11 873.09 589.49 875.01 589.48 875.69 588.91 876.98 588.38 877.34 587.3 877.45 586.57 876.74 584.16 876.04 582.27 876.94 581.5 877.57 579.48 879.74 578.95 881.24 578.98 881.72 578.06 882.53 577.33 882.03 575.67 881.82 574.42 882.02 573.12 881.2 572.08 880.92 569.88 879.81 569.6 879.18 568.6 878.53 566.39 876.56 564.98 875.66 564.27 875.06 563.36 873.52 562.93 873.17 562.93 872.42 562.33 871.29 561.37 870.1 560.27 869.04 559.65 868.66 556.86 867.64 555.66 867.54 554.92 867.3 551.98 867.06 550.14 867.2 548.67 866.58 546.19 865.97 544.17 865.82 540.94 865.89 540.24 866.13 539.7 867.35 539.24 867.45 538.93 866.77 536.28 865.81 535.23 866.45 534.06 866.09 531.88 865.76 531.54 865.37 530.19 865.09 527.75 864.91 526.85 865.15 526.47 866.12 525.95 865.76 525.01 866.11 523.95 865.21 522.95 864.99 523.06 863.72 520.52 863.16 518.19 862.99 513.25 863.32 512.28 863.8 510.79 865.06 510.76 865.97 509.15 866.58 508.62 867.25 508.61 867.8 507.93 867.94 506.58 869.14 506.61 869.52 506.06 871.88 505.54 872.39 504.87 872.52 503.71 873.08 505.54 874.79 505.36 874.9 503.59 873.16 502.37 873.96 501.85 875.1 501.91 875.84 500.94 878.92 500.94 880.8 500.22 881.47 499.72 883.06 498.98 884 498.4 885.46 498.43 886.35 498.1 886.93 497.99 888.27 496.15 889.02 495.58 889.74 495.26 891.08 494.28 891.44 493.52 892.36 492.93 893.87 492.42 894.78 491.22 895.87 490.4 898.95 489.89 900.04 488.83 900 487.98 900.16 487.82 899.63 487.18 899.37 486.33 899.58 485.7 900.38 483.86 900.61 483.11 899.63 482.24 899.71 480.99 898.94 479.06 898.68 477.76 898.72 475.74 899.17 474.74 899.98 474.4 901.08 473.26 901.89 471.44 901.93 468.07 902.69 466.42 904.39 464.75 904.72 464.41 905.64 465.37 908.76 466.65 908.79 466.88 907.75 467.82 907.53 469.44 906.78 469.67 906.98 467.83 907.9 467.36 909.47 465.96 909.44 465.34 910.75 463.61 911.67 463.03 912.64 463.19 913.7 463.65 914.99 463.76 917.14 463.49 918.57 462.3 919.3 462.25 919.66 460.39 919.75 459.41 920.01 458.38 920.92 456.39 921 455.37 920.6 454.73 920.07 452.95 920.01 452.21 919.63 452.37 918.55 453.07 917.43 453.36 916.24 453.21 914.97 452.51 914.15 451.84 913.76 449.61 913.96 448.85 913.88 448.63 914.52 447.81 914.69 446.79 914.54 446.68 915.37 445.53 915.64 444.78 915.53 444.23 915.15 444.28 913.97 445.11 912.88 445.07 912.17 444.65 911.35 444.95 910.58 445.73 909.7 445.94 907.59 445.64 906.83 445.41 905.53 445.72 905.06 445.81 903.88 445.44 902.58 445.24 901.13 445.35 899.92 444.75 897.83 443.38 895.13 442.19 894.7 441.84 893.9 441.92 893.44 442.92 893.13 444.1 893.98 445.14 893.9 446.02 892.61 445.17 892.27 444.21 891.54 443.77 890.65 443.87 888.43 445.79 888.14 445.74 887.08 446.92 886.64 447.68 886.15 449.14 885.93 449.5 885.35 449.7 883.22 449.29 881.12 448.54 878.63 448.03 877.53 446.8 875.53 446.15 874.71 444.86 873.74 443.75 874.38 443.66 874.88 441.2 875.04 441.77 872.95 442.15 872.14 440.5 870.44 439.53 870.45 438.61 869.34 437.9 868.77 437.78 868.34 438.15 867.23 439.69 865.7 440.28 865.46 442.19 865.62 443.61 864.79 444.09 863.77 444.03 862.86 445.05 862.3 445.02 860.89 444.61 860.89 444.59 858.97 445.59 858.31 445.94 858.83 446.91 859.4 447.53 860.82 448.54 860.64 449.71 860.03 450.26 859.38 451.37 859.06 452.23 858.1 452.64 857.09 452.68 856.07 451.99 854.83 452.58 853.83 453.48 853.21 454.04 852.24 453.48 851.85 453.27 851.2 454.9 851.69 455.19 850.22 455.96 849.76 456.37 849.04 457.48 849.61 458.19 849.07 458.82 847.89 459.07 846.38 460.31 844.37 459.99 843.17 460.77 842.44 460.84 841.78 461.55 838.68 461.03 835.89 460.45 833.7 458.82 830.17 457.78 828.61 457.11 828.27 456.66 827.14 455.43 826.14 454.26 824.9 452.22 826.47 450.4 827.53 448.78 828.2 448.65 828.92 447.96 829.02 447.84 829.75 447.09 830.06 446.25 830.04 445.04 830.69 444.33 830.61 443.52 829.51 444.02 828.56 445.2 828.32 446.6 828.48 448.46 828 449.99 827.46 452.25 826.22 454.03 824.77 453.49 823.45 452.72 822.87 452.91 822.35 452.25 820.98 451.69 820.61 450.94 818.13 451.42 817.24 452.31 817.16 453.52 816.12 453.72 815.57 453.65 814.02 454 813.64 453.88 811.95 453.22 810.69 452.71 810.45 452.7 809.81 452.26 809.31 451.52 807.44 450.71 806.75 450.29 805.9 450.26 805.15 450.91 804.85 451.05 803.98 451.69 803.56 452.52 803.48 452.92 802.2 452.87 800.69 452.5 800.01 453.19 799.82 453.33 798.6 453.07 796.98 453.28 795.84 453.2 794.34 452.58 793.62 451.43 793.15 450.95 793.18 450.88 792.3 448.6 792.71 448.76 792.35 450 791.32 450.74 790.02 450.78 788.89 449.99 788.5 450.77 788.03 450.41 787.09 449.1 785.83 446.53 783.85 444.72 782.78 442.86 781.79 441.75 781.46 438.03 779.59 436.57 779.22 435.4 778.62 433.52 778.2 432.72 778.28 429.61 778.26 428.98 778.88 428.86 777.32 426.59 777.94 425.7 778.42 425.15 778.37 423.68 778.69 421.68 779.33 420.79 780.12 420.42 780.73 420.56 782.29 421.08 783.16 420.63 783.65 420.64 784.46 420.97 784.88 420.75 785.93 421.09 787.47 420.83 788.37 420.15 789.39 419.16 789.29 418.73 790.04 418.18 789.81 417.45 790.23 417.31 791.61 417.61 792.04 417.41 792.67 416.75 792.9 416.17 794.16 415.33 794.65 414.66 794.28 413.5 792.95 413.35 791.94 411.11 791.34 410.42 791.72 410.22 792.26 409.25 792.26 407.14 795.95 405.98 796.42 405.85 796.03 407.13 795.48 409.19 792 409.21 790.74 409.9 789.9 407.98 789.14 405.68 788.94 403.94 789.14 402.28 789.84 401.82 790.43 401.64 791.68 402.59 792.01 402.6 792.53 401.51 793.34 401.59 793.9 400.74 794.54 400.49 795.16 398.33 796.39 397.79 797 396.76 796.99 395.79 797.66 395.67 798.27 394.79 798.44 394.26 798.85 394.36 799.66 392.88 799.98 391.18 800.18 390.26 799.95 388.14 800.12 386.76 801.77 384.48 799.85 383.77 800.77 383.18 802.13 383.24 802.97 384.04 803.38 384.56 804.24 383.9 804.8 383.35 805.83 383.23 806.45 383.7 807.32 382.86 808.71 382.74 809.27 381.84 809.53 379.93 811.51 377.76 811.6 377.37 811.14 379.46 811.14 379.7 809.48 380.16 807.28 376.85 806.41 374.63 807.85 375.06 808.47 374.35 809.63 374.31 810.01 375.48 811.12 375.32 811.51 372.81 810.11 370.94 810.67 371.35 809.98 371 808.19 370.51 806.52 370.65 805.55 371.17 804.93 370.93 804.29 371.17 803.49 371.78 803.14 372.03 802.42 371.75 801.48 370.51 799.25 370.06 799.11 369.24 798.01 368.38 797.62 367.56 796.86 367.03 795.55 365.17 795.06 364.52 794.27 363.81 793.95 362.8 792.67 362.67 792.08 363.14 790.9 362.38 789.62 362.77 789.37 362.56 787.77 362.8 787.3 361.97 786.76 361.69 785.07 361.05 784.11 361.99 783.23 363.66 782.88 364.28 783.03 365.04 782.72 365.96 781.47 366.72 781.46 367.41 781.78 368.18 783.24 370.1 785.26 371.16 785.98 371.44 786.7 371.3 787.31 372.04 788.02 372.71 788.97 373.83 791.12 375.26 792.4 375.6 792.99 376.33 793.45 376.94 794.13 377.59 794.42 377.83 795.16 378.1 796.9 378.67 797.3 379.61 797.28 380.64 796.93 382.3 796.09 384.27 794.95 386.48 793.14 387.54 791.97 387.85 791.09 386.88 789.46 386.38 788.95 385.42 787.15 384.77 786.97 384.14 786.34 383.23 784.99 382.72 784.59 382.38 783.88 381.16 782.59 379.97 780.03 379.46 779.17 379.91 778.74 380.59 778.78 382.05 779.28 382.61 780.34 383.13 780.72 383.96 780.82 383.93 781.8 384.66 782.7 385.26 783.72 386.29 785.93 387.49 785.98 388.79 785.51 389.13 784.66 388.91 784.03 388.99 782.89 388.75 782.53 388.67 781.09 389.09 780.53 389.29 779.31 389.76 779 390.95 779.17 391.84 779.86 394.11 780.65 394.96 781.05 395.54 781.68 396.84 780.18 397.12 779.6 396.89 779.16 394.32 777.08 392.43 776 392.44 775.7 391.39 774.38 389.93 774.18 387.59 773.08 386.5 772.4 386.2 771.89 386.26 770.43 386.11 769.31 384.93 768.72 383.47 768.92 382.86 768.79 381.5 766.56 381.39 765.84 380.87 764.92 379.12 764.05 378.77 763.47 379.28 762.85 380.39 762.89 381.49 763.41 381.98 763.95 382.78 763.47 384.4 761.35 385.12 760.97 385.96 761.36 387 761.41 387.62 760.79 387.85 760.09 388.1 758.36 387.72 757.06 385.87 756.7 384.93 756.23 384.13 756.27 382.77 755.74 381.44 755.86 380.61 755.51 378.93 755.37 378.34 754.91 376.22 754.02 375.39 752.52 375.67 751.54 376.35 751.19 377.17 750.21 379.23 750.03 380.2 750.29 380.61 750.08 380.86 748.98 381.73 747.89 383.64 746.86 385.01 746.57 387.37 746.8 387.91 745.77 387.96 744.97 387.6 744.04 385.99 743.56 384.87 743.8 383.04 743 382.42 743.32 382.04 742.97 380.77 743.46 379.61 744.43 378.84 745.33 377.96 745.99 376.86 745.59 375.51 744.54 373.41 744.01 372.1 744.22 371.01 742.76 371.72 741.23 372.86 740.66 374.08 741.46 375.01 742.87 375.88 742.91 376.87 742.54 378.05 741.77 379.18 740.8 379.91 740.42 380.03 739.76 381.32 739.04 381.81 738.2 381.78 736.51 382.66 735.78 383.45 735.88 383.61 737.43 383.85 737.66 386.74 738.81 387.43 739.38 388.89 739.14 389.94 738.59 391.37 737.55 392.5 736.28 391.68 734.19 391.43 732.78 390.89 731.76 391.41 731.31 392.69 732.14 394.26 734.09 395.2 735.43 395.41 737.05 395.83 737.52 396.69 737.94 398.29 738.22 399.65 737.83 400.51 737.28 401.81 737.18 403.21 737.57 404.33 738.07 406.03 739.34 407.63 739.92 409.01 740.23 411.14 741.29 412.13 740.54 414.16 738.66 414.3 738.19 415.38 731.97 413.8 731.07 412.71 731.24 411.75 730.81 410.42 729.4 409.82 729.01 409.86 728.3 408.43 726.54 407.84 725.44 407.34 725.08 408.67 724.44 409.15 723.97 409.23 723.02 408.95 721.62 408.05 721.36 406.7 720.25 405.55 720.43 405.07 720.29 403.94 721.11 403.17 720.98 402.67 720.12 402.19 718.81 401.02 717.76 400.93 716.45 402.44 714.91 402.75 713.41 403.03 712.74 402.54 711.11 401.11 709.59 400.21 709.38 399.62 709.68 398.44 709.69 397.13 708.49 397 707.06 397.78 706.17 399.28 705.76 401.09 705.67 401.82 705.38 402.89 704.15 403.41 704 404.32 702.79 404.37 701.92 405.52 700.82 405.5 700.35 404.16 699.09 403.33 698.65 402.99 699.6 401.94 699.8 400.75 699.82 400.51 698.73 399.85 697.69 399.42 697.43 399.25 696.76 398.37 695.66 397.91 694.43 398.46 693.58 399.24 693.01 399.71 692.2 400.45 691.92 401.39 692.42 401.28 693.51 402.51 693.8 404.45 693.22 405.28 693.45 406.75 693.57 408.23 694.19 409.34 695.34 409.43 696.25 409.84 697.15 410.48 697.93 411.55 698.05 413.19 698.88 415.66 699.74 417.95 699.99 421.82 700.01 424.47 700.13 426.73 700.12 427.04 699.92 427.54 698.03 427.83 697.86 432.22 698.44 430.71 696.39 430.98 695.48 432.52 694.41 432.89 694.01 435.45 689.72 437.25 689.75 439.54 687.43 440.85 685.37 441.7 684.8 442.53 685.44 443.45 685.39 444.36 684.69 444.83 683.67 445.47 683.41 445.89 682.78 436.35 662.38 435.63 661.98 434.59 662.32 433.8 662.14 432.16 658.47 432.31 655.61 432.52 654.84 433.41 653.65 434.4 652.59 434.74 651.09 436.01 649.39 437.28 648.54 439.18 647.79 439.71 647.8 440.67 646.86 441.61 645.38 441.21 643.44 440.45 641.73 438.63 638.82 436.66 636.45 434.41 634.36 432.11 632.79 430.6 632.06 430.28 631.08 429.82 631.03 428.39 631.95 427.64 632.94 425.72 633.52 424.74 634.81 424.09 634.98 422.88 635.66 422.28 636.43 421.34 636.67 419.88 637.41 419.02 638.14 418.6 638.96 417.7 639.97 417.15 640.9 416.47 641.56 416.11 642.28 415.67 644.86 416.07 646.21 415.51 647.31 415.75 647.62 415.1 648.44 414.44 648.18 412.79 648.88 411.95 648.59 410.85 647.72 409.57 647.56 409.3 646.8 408.48 646.61 407.57 646.15 407.19 645.56 407.09 644.02 406.42 643.31 404.97 642.72 402.59 642.2 401.37 642.65 400.83 642.02 399.55 642.48 399.23 642.06 396.98 642.58 396.5 643.26 395.22 643.63 394.16 643.35 392.38 644.64 391.53 645.52 390.21 647.33 388.39 650.7 388.55 651.66 388.93 651.69 389.33 652.48 389.99 653.12 390.07 655.66 390.66 656.57 390.76 658.5 393.07 659.71 392.9 659.9 391.56 659.24 390.22 660.36 390.84 661.88 390.49 662.01 390.12 660.89 389.62 660.08 387.44 659.33 386.36 659.22 384.07 657.68 382.73 657.31 381.12 657.62 380.3 657.03 379.98 656.17 379.44 655.93 379.84 654.55 379.73 653.12 378.6 651.59 377.49 650.37 375.01 648 374.29 646.95 372.02 641.76 371.39 640.44 370.21 638.36 369.57 637.57 367.48 634.3 363.92 629.44 363.02 629.25 362.94 628.6 361.33 626.53 359.17 624.17 357.81 623.04 356.64 622.49 355.09 622.34 353.76 621.65 353.06 622.2 352.41 621.15 352.62 620.59 351.74 619.4 350.21 618.2 348.4 616.92 347.58 616.52 346.22 616.36 345.09 614.93 345.02 614.09 345.36 613.49 345.41 612.52 346.11 612.33 346.94 613.06 348.19 613.69 349.85 613.54 350.67 613.8 351.96 613.82 352.11 613.51 353.79 613.15 354.24 612.86 354.37 612.02 354.92 612.06 356.15 611.46 358.11 609.58 358.82 608.79 360.54 606.02 362.2 605.02 361.89 605.89 363.93 607.39 365 610.09 365.02 612.01 365.14 612.63 365.96 613.83 366.79 614.62 367.63 616.2 369.26 616.96 370.75 617.07 371.38 616.89 372.91 617.73 373.58 618.62 375.33 618.81 378.15 617.51 378.8 617 379.11 615.91 382.82 612.47 382.73 611.9 381.87 610.96 380.4 608.67 379.41 607.32 379.04 607.22 378 606.13 376.78 605.59 374.35 603.87 372.98 601.95 372.19 601.51 371.65 601.61 370.32 600.77 369.59 600.72 366.98 599.41 367.74 595.69 368.39 594.56 368.27 593.08 367.25 592.08 367.3 591.39 367.02 590.54 367.05 589.67 368.39 588.82 368.95 588.86 369.87 588.51 369.87 587.5 370.24 586.72 372.21 581.52 373.41 577.95 373.81 577.9 374.05 576.68 373.33 576.2 372.74 575.01 371.42 573.69 370.51 573.07 368.17 571.99 365.63 571.36 363.27 573.22 362.31 574.77 360.79 575.9 360.05 576.17 359.37 575.24 359.24 574.51 358.43 573.87 357.17 573.41 356.93 572.73 356.13 572.46 355.68 571.14 355.27 570.58 352.84 569.43 352.84 568.87 353.32 567.95 352.99 567.13 352.6 566.93 351.8 565.22 351.77 564.56 351.06 563.38 349.74 561.69 349.36 561.52 348.38 560.17 347.51 559.29 347.5 558.56 347.9 557.02 348.12 555.47 348.01 554.47 347.35 553.1 347.56 551.84 348.12 550.14 348.7 550.29 350.08 550.18 350.35 550.42 352.46 550.51 354.51 550.2 356.68 550.65 357.77 550.65 359.67 550.87 361.17 550.65 362.12 550 362.73 549.27 364.16 546.22 364.53 544.51 364.85 543.67 364.5 543.16 362.32 542.94 361.3 542.19 360.42 540.53 360.1 539.03 359.7 538.25 359.24 538.08 358.37 537.04 357.54 536.72 356.3 535.04 354.92 533.84 354.26 534.38 353.31 534.66 352.65 535.66 351.7 536.41 350.47 536.93 349.85 536.74 348.47 535.53 348.95 534.31 349.65 533.75 351.08 533.47 352.06 533.6 352.82 534.28 354.34 533.44 355.13 532.84 354.91 532.13 356.89 531.58 357.51 531.26 357.92 530.58 358.87 528.45 358.7 528.14 359.06 527.2 359.6 527.25 359.9 526.75 359.81 525.71 360.12 525.34 361.53 525.03 362.43 524.59 362.8 523.46 362.36 521.75 360.59 520.15 359.65 519.44 358.47 518.86 358.22 519.34 357.24 520.22 357.05 520.66 356.38 520.73 355.26 521.4 354.54 521.49 353.7 520.98 353.05 520.92 352.52 518.84 350.54 516.58 350.22 514.82 350.33 513.92 349.92 513.42 349.02 513.44 348.87 512.16 349.61 511.04 350.35 511.44 351.73 510.3 352.85 510.34 353.44 509.9 353.99 509.07 356.27 507.58 359.08 507.31 360.31 507.29 363.15 507.51 364.38 507.04 365.96 506.74 368.15 505.07 369.15 504.82 369.92 503.57 371.12 503.16 371.64 502.7 373.01 501.93 373.09 501.6 370.09 496.15 369.01 494.45 367.13 490.87 365.83 488.54 365.33 487.84 364.04 485.33 361.67 481.7 361.88 480.94 361.61 480.32 359.16 475.94 358.89 475.71 357.98 476.04 357.62 475.59 358.55 474.81 357.07 474.23 356.56 475.4 355.42 475.49 354.89 475.12 353.88 475.84 353.91 476.74 353.12 476.2 351.99 476.8 349.52 476.74 348.22 475.97 350.01 476.04 350.71 475.17 350.88 473.96 351.83 472.92 351.8 472.36 352.39 471.53 351.8 470.31 350.5 469.18 348.74 468.51 347.93 469.3 346.6 469.78 346.43 470.63 345.29 471.65 346.58 474.87 346.37 474.97 345.35 472.35 345.03 472.35 344.58 471.3 343.71 470.55 342.99 470.24 342.36 470.51 341.59 470.48 340.4 471.4 339.55 471.34 337 472.21 336.18 471.86 335.08 471.76 334 472.2 332.81 472.21 332.58 472.67 330.94 472.77 330.09 472.4 328.18 472.01 326.48 472.5 325.76 472.04 325.71 471.49 326.33 470.52 326.33 470.01 326.81 469.39 327.09 468.22 326.92 467.41 327.9 466.94 328.05 465.9 327.17 464.51 327.13 463.65 327.39 462.18 328.14 461.76 329.74 462.19 330.2 462.53 331.07 462.62 331.44 462.1 332.67 462.15 333.98 460.89 334.82 460.57 336.08 460.78 337.04 459.7 338.41 459.98 339.52 459.28 340.1 459.55 339.88 460.52 340.93 460.55 342.58 459.57 344.06 459.04 345.05 459.27 345.65 458.24 346.47 457.4 347.92 456.43 349.45 456.05 351.11 456.36 351.86 456.8 355.96 452.46 352.95 449.28 350.98 447.12 350.36 446.58 349.73 445.42 347.26 444.68 346.45 445.73 345.1 446.85 344.32 446.97 343.63 446.78 343.23 446.32 343.03 445.5 338.9 443.72 337.74 444.35 337.12 445.35 336.38 445.65 336.05 445.28 334.92 445.71 334.17 445.52 333.66 444.76 333.88 444.22 334.9 443.84 335.21 443.32 334.42 441.74 332.96 440.52 330.67 439.11 328.33 437.98 327.55 438.07 326.85 438.7 325.89 438.73 325.37 439.11 323.85 439.67 322.87 440.57 322.84 441.57 323.34 442.61 323.15 443.36 322.19 444.62 320.43 444.44 318.86 444.59 317.8 444.05 316.53 445.53 315.72 446.02 314.76 445.81 313.84 445.86 314.25 444.23 314.3 443.24 315.8 442.38 318.81 441.71 320.07 441 320.41 439.59 320.3 438.54 320.56 437.23 319.96 435.47 318.58 435.04 318.01 435.37 317.54 436.79 317.51 437.55 316.49 437.94 316.06 438.33 314.96 438.01 314.37 438.18 313.41 437.95 313.27 437.22 314.6 436.11 315.63 435.53 316.6 435.51 317 434.35 316.94 432.92 316.34 431.71 315.6 430.71 313.52 428.95 312.78 428.53 311.96 428.79 311.01 428.36 310.63 427.35 310.64 426.4 312.13 425.32 312.66 424.69 313.9 424.17 315.27 422.31 316.26 420.48 316.02 419.04 316.24 416.85 315.12 416.49 311.12 413.85 308.41 410.66 308.09 410 307.6 407.51 307.49 406.42 306.88 406.74 305.57 406.56 302.42 407.51 300.31 406.68 299.96 406.9 297.93 406.04 297.19 406.73 293.07 407.54 292.23 408.02 290.57 408.27 286.86 406.18 286.25 405.72 284.98 404.01 284.22 403.58 284.28 402.76 283.68 401.78 282.34 401.48 283.06 402.53 282.89 402.85 284 404.79 285.65 408.1 286.46 408.55 287.8 410.78 287.35 412.27 287.57 413.09 287.31 414.4 287.4 415.05 287.02 415.4 287.6 416.08 288.03 417.36 287.91 418.66 286.94 419.08 286.5 419.52 286.48 420.14 287.38 420.57 287.78 421.3 287.1 421.99 286.93 422.54 285.56 423.39 284.85 423.21 283.84 423.92 283.12 423.66 281 423.2 280.32 422.72 281.03 421.69 280.54 421.21 279.09 420.67 275.76 420.14 274.78 420.18 273.44 420.02 270.62 422.81 269.75 423.3 268.94 423.05 267.88 421.94 267.44 422.16 266.78 421.81 265.56 422.16 265.68 422.88 265.45 423.53 264.3 424.26 264.32 423.71 262.1 423.15 262.26 424.99 263.08 425.6 262.33 425.88 261.19 426.78 260.08 425.02 258.55 424.13 258.35 423.6 257.51 423.76 258.34 424.51 258.57 425.09 260.27 426.97 261.13 427.03 262.05 428.34 261.43 428.74 260.06 427.71 259.36 427.72 260.72 429.01 261.02 429.74 261.15 430.96 261.67 431.92 263.12 433.02 263.82 433.27 263.74 435.26 262.9 436.21 263.43 437.76 263.4 438.27 262.53 438.73 262.43 439.1 261.11 440.21 260.33 440.67 259.32 440.72 258.56 441.43 258.31 442.27 257.03 442.17 256.11 443.37 255.65 445.19 255.45 445.14 255.88 443.27 256.67 442.1 255.57 441.36 253.5 441.3 253.37 442.21 253.81 442.97 253.48 444.16 252.24 445.32 250.61 445.7 250.27 446.35 249.13 447.04 247.95 447.24 247.47 447.64 245.24 447.78 244.44 448.01 243.75 448.63 243.75 449.45 242.65 450.69 241.9 451.06 240.5 451.19 239.68 451.6 238.91 451.22 238.16 451.36 236.5 450.88 235.92 449.13 234.91 448.5 233.66 448.02 234.14 447.22 233.84 446.31 232.35 445.48 230.96 445.46 230.07 444.8 229.77 443.44 229.91 442.79 228.98 442.31 228.01 442.53 227.58 442.38 227.24 441.45 225.91 441.27 225.48 440.81 225.55 440.19 224.31 439.55 223.91 438.67 223.76 437.37 224.41 436.99 225.38 437.28 226.84 438.18 227.23 437.93 227.12 437.07 226.63 436.34 225.16 436.23 224.84 435.6 226.03 434.81 227.15 434.57 227.54 434.21 227.96 433.19 227.86 432.05 228.09 430.89 229.11 430.59 232.17 431.5 233.05 431.1 233.85 431 234.18 430.6 234.35 429.51 235.01 426.76 234.59 426.22 235.16 425.21 235.62 423.91 237.71 423.25 238.79 422.34 239.06 421.02 239.32 418.82 239.56 417.77 239.08 417.12 239.8 415.89 241.38 415.07 240.84 411.84 240.13 411.82 238.52 411.29 238.03 411.3 237.75 410.64 234.28 411.12 233.6 410.58 233.18 409.14 233.03 407.82 234.09 405.97 235.3 405.13 235.49 404.71 235.19 401.15 235.07 398.5 232.49 397.23 232.16 396.69 232.37 395.11 231.61 393.48 228.4 392.53 226.26 391.55 225.53 391.89 225.04 391.72 223.25 392.17 223.07 392.36 221.36 392.84 218.98 394.55 218.56 395.11 218.36 396.19 218.96 397.35 219.09 398.42 218.65 399.29 218.19 399.52 217.69 398.9 215.29 398.01 214.31 396.51 214.4 395.4 213.92 394.99 209.09 394.91 208.81 395.26 208.71 397.09 208.46 397.34 207.43 397.4 207.14 397 205.99 396.66 204.89 395.58 203.3 395.43 201.93 395.67 200.26 395.72 200.07 396.04 200.28 397.47 200.7 397.6 199.99 398.7 199.91 399.28 198.15 399.54 197.61 398.61 197.94 396.93 198.46 396.49 198.65 395.52 198.42 394.85 196.9 392.96 195.67 391.17 195.16 389.26 193.95 388.06 190.01 386.1 187.44 385.29 185.32 386.38 186.2 383.53 186.2 383.09 185.64 382.37 184.91 380.95 184.33 379.26 184.94 379.2 185.44 377.58 185.29 377.34 183.25 376.34 182.71 376.77 181.9 378.82 182.42 380.72 181.55 382.12 180.99 382.46 179.47 382.51 178.54 382.17 176.85 381.1 174.88 380.72 174.21 381.05 173.4 381.09 171.49 380.62 170.93 379.87 170.76 378.88 169.89 378.47 165.55 376.92 164.84 377.22 164.45 377.72 163.72 377.79 163.26 377.49 162.34 375.26 159.43 373.93 152.48 370.6 152.02 370.53 150.05 373.25 148.96 374.06 147.78 373.93 147.32 374.27 147.19 375.17 146.51 376.27 144.38 376.85 143.26 376.71 143.16 377.42 142.11 378.52 141.76 378.68 140.11 378.72 138.83 378.56 137.61 378.99 135.59 378.28 134.49 378.15 133.18 378.43 131.78 376.57 127.34 378.53 127.96 379.8 127.2 380.31 126.47 380.18 125.66 379.57 124.12 380.51 124.23 380.82 123.42 382.22 122.39 382.88 120.8 382.6 119.99 383.31 119.71 383.21 118.23 379.05 117.4 378.87 117.24 378.25 114.58 377.74 114.44 376.86 115.22 375.14 114.8 374.39 113.44 374.22 112.85 373.86 111.82 372.68 110.99 372.48 110.36 371.49 109.45 371.98 109.07 371.76 108 371.78 107.47 371.54 106.36 370.35 106.32 369.96 107.73 369.41 109.58 368.1 110.81 367.02 111.34 366.2 112.28 364.26 112.16 364.01 110.22 362.62 109.31 362.57 108.5 362.8 106.98 362.38 106.57 362.83 106.61 364.38 107.28 364.92 107.04 365.38 105.82 365.41 104.92 366.58 104.64 366.3 104.68 365.28 105.13 364.91 104.92 363.59 103.96 363.48 103.57 363.07 103.39 362.07 103.93 361.48 103.73 361.03 104.56 358.96 104.94 358.69 106.09 358.63 106.46 358.21 107.94 357.5 108.66 356.49 109.18 356.67 109.74 356.12 110.44 354.97 112.34 355.1 113.14 353.84 113.6 352.53 113.62 351.14 115.53 350.89 116.76 349.48 117.09 348.37 118.79 345.67 118.91 345.19 118.53 343.32 117.99 342.22 117.25 341.95 116.41 341.98 114.01 341.28 113.56 340.99 112.14 343.56 111.96 343.45 113.49 340.83 112.53 340.15 111.96 340.31 110.56 339.81 110.67 339.37 109.75 339.07 107.19 336.39 105.94 336.82 105.12 336.66 102.74 337.42 100.72 337.14 99.32 336.77 98.6 336.89 98.26 337.61 96.53 337.36 96.1 336.42 95.28 335.81 94.84 334.02 94.16 333.19 92.66 332.35 93.93 330.77 94.93 329.81 95.72 329.36 95.72 328.02 93.74 327.86 93.43 326.58 93.81 325.97 94.62 325.56 95.02 325.08 95.29 322.74 95.75 321.47 95.6 320.82 91.31 317.67 90.49 317.26 90.04 316.7 87.72 318.85 88.44 319.59 89.06 320.6 89.49 321.7 88.73 323.43 88.91 324.47 88.76 325 86.61 327.93 86.63 329.02 85.61 331.01 84.17 332.29 84.64 333.39 84.26 333.97 83.71 333.35 82.78 333 82.45 333.29 81.19 332.68 78.61 331.05 78.62 330.32 77.15 329.52 76.14 329.45 74.91 330.24 74.64 330.83 74 330.72 73.96 329.81 73.68 328.87 72.7 327.58 71.3 326.92 70.79 327.77 69.67 327.78 68.25 327.35 66.96 327.54 65.47 326.85 64.99 325.49 64.3 325.29 64.55 324.51 65.25 323.44 65.6 321.99 65.25 320.52 66.14 318.65 68.39 319.78 69.25 319.36 70.02 318.47 70.48 317.53 70.96 315.81 71.08 313.81 70.91 312.61 70.64 312 69.75 311.27 70.09 310.33 71.49 309.76 72.21 310.19 74.29 309.9 74.99 309.49 76.24 309.51 76.98 309.77 78.06 308.55 77.85 307.12 70.71 301.51 69.33 302.12 68.94 302.02 68.47 300.68 67.49 298.98 66.6 298.88 66.23 297.9 66.51 295.54 66.31 294.87 65.6 295.39 64.85 295.06 62.14 295.37 62.1 295.74 60.59 295.72 56.01 296.13 54.19 296.64 53.66 296.56 53.01 295.69 51.72 295.04 49.99 294.99 49.88 295.84 49.12 297.43 47.9 297.49 47.78 297.15 46.73 297.13 45.72 297.75 45.04 298.96 44.31 298.95 43.17 298.63 42.3 298.64 41.41 299.03 40.42 298.71 39.34 300.45 38.67 300.48 37.05 299.84 36.46 299.88 35.73 299.26 35.82 298.52 36.81 297.64 36.57 296.9 35.87 296.28 34.85 295.93 34.83 295.4 33.8 294.84 33.68 294.49 32.44 294.37 31.57 293.94 32.25 293.52 33.2 293.57 34 293.92 35.49 294.27 35.95 294 37.13 294.66 37.89 295.27 37.64 296.17 37.21 296.73 38.1 297.17 38.95 296.91 39.14 296 41.22 295.75 41.46 295.08 43.89 293.47 44.43 293.28 45.11 291.97 45.46 291.65 45.18 290.68 46.13 290.37 46.69 289.49 47.51 289.17 47.95 288.67 48.72 288.36 49.66 288.45 50.38 289 49.76 290.85 48.76 292.96 48.7 294.46 49.66 294.9 50.43 294.79 50.4 294.14 51.37 293.21 52.78 292.11 53.23 292.51 53.12 293.21 54.18 293.51 55.27 293.17 57.21 291.96 57.73 292.18 58.88 292.09 59.65 292.39 60.29 293.14 61.66 292.78 61.52 293.62 61.98 295.06 63.75 294.89 65.29 294.6 65.94 293.59 66.72 293.12 67.65 292.93 68.46 291.76 68.32 290.51 69.18 290.07 70.49 288.05 70.15 286.34 70.97 286.28 71.44 285.7 72.39 283.37 72.39 282.24 71.84 281 71.31 280.59 71.17 279.42 69.74 279.15 69.06 278.42 68.74 276.82 66.56 275.9 66.49 275.33 67.37 274.67 69 274.86 69.86 275.13 70.44 275.62 70.93 275.41 72.85 273.56 73.84 273.39 74.37 273.7 74.4 274.56 75.25 275.13 76.31 275.13 77.49 276.62 78.54 276.89 79.72 277.92 80.43 277.81 81.34 277.19 81.78 276.26 81.14 274.13 80.1 273.67 79.79 272.62 80.13 271.59 79.63 270.44 78.05 270.46 77.99 269.9 79.65 268.83 79.96 267.42 80.36 267.04 80.51 266.18 81.02 265.74 81.41 264.51 82.05 263.86 82.77 264.44 83.29 264.41 84.98 263.18 88.37 260.85 88.04 260.06 88.61 259.36 88.27 258.78 87.45 258.93 87.23 258.53 87.99 257.94 87.65 256.97 86.09 255.94 85.55 254.62 85.8 254.33 85.61 253.38 84.73 252.3 83.82 251.77 83.14 250.44 82.52 249.82 81.89 248.67 80.17 248.09 79.06 248.1 77.43 249.18 75.18 250.94 75.07 251.75 74.55 252.72 74.42 254.13 76.13 255.11 76.41 254.96 76.95 256.04 75.6 256.45 74.7 257.17 74.83 257.6 73.28 257.97 73.19 258.82 71.99 258.92 71.06 258.26 70.26 258.08 69.87 258.3 69.53 259.17 66.51 258.96 66.08 258.75 66.29 257.73 65.45 257.42 64.65 257.48 64.59 258.58 64.03 258.74 62.03 258.56 62.22 257.78 63.34 257.61 63.16 255.89 62.8 255.33 61.08 255.4 58.09 255.12 57.38 254.34 56.88 254.64 55.62 254.32 55.05 252.94 54.03 252.85 53.41 253.67 52.55 253.49 52.43 253.09 50.25 250.99 50.21 250.32 50.56 249.18 49.98 248.44 49.19 248.54 48.85 248.03 47.39 247.6 46.64 246.02 46.23 244.49 45.81 244.04 45.33 244.29 44.07 243.4 43.09 243.38 42.44 242.8 41.06 242.86 39.69 242.43 38.51 241.64 37.83 240.82 37.29 239.72 37.43 239.14 36.3 239.11 35.26 238.48 34.48 238.29 34.01 237.64 33.52 235.43 33.73 234.74 33.38 234.12 33.21 231.56 33.57 229.36 34.18 228.91 35.45 229.16 36.96 229.74 38.05 230.69 39.54 232.56 41.62 232.76 42.69 233.4 44.92 234.08 45.01 233.94 46.58 227.55 47.35 224.56 46.74 223.32 46.15 222.7 45.38 223.43 44.86 222.93 42.22 222.84 41.5 221.18 40.34 219.96 39.48 218.17 38.96 216.27 39.08 215.02 39.34 214.27 38.71 213.33 38.26 213.15 36.84 213.58 35.3 213.9 34.45 213.68 33.43 213.79 32.85 212.58 33.04 211.42 33.88 211.07 33.76 210.71 35.41 209.59 36.76 209.62 37.7 209.84 38.16 209.39 38.7 208.09 38.16 207.48 38.66 205.61 39.01 204.84 38.98 203.54 37.17 202.25 35.9 200.66 35.39 200.94 34.66 199.82 35.33 198.34 35.33 197.73 31.93 194.53 30.5 194.63 28.88 195.6 28.41 195.39 28.07 194.34 27.35 193.39 26.51 192.93 26.43 191.11 27.08 189.95 27.08 188.8 26.87 188.31 26.83 186.88 26.98 186.13 27.63 185.17 28.49 184.42 28.8 184.8 30.94 185.14 32.91 182.74 33.94 180.82 33.77 180.02 33.34 179.66 34.01 178.29 34.53 176.61 34.59 174.27 34.19 173.23 33.73 172.57 32.7 171.93 30.85 171.9 30.86 170.88 32.23 170.26 34.03 170.11 34.75 169.82 34.33 168.56 32.77 166.79 31.94 166.43 31.72 166.71 29.37 166.77 27.98 167.05 27.4 166.69 27.48 165.45 26.53 163.77 26.21 162.37 26.44 161.71 27.38 160.54 28.41 160.39 28.9 160.77 29.6 160.38 30.43 159.34 30 157.9 30.42 156.78 30.16 155.55 30.92 154.75 31.69 154.73 32.34 155.19 34.64 155.72 35.55 153.75 35.54 145.88 34.73 146.15 34.14 144.76 33.12 143.53 33.23 142.9 34.6 141.93 35.27 140.64 35.5 139.01 35.05 137.01 34.07 135.84 33.13 135.78 32.51 136.06 31.55 135.4 31.7 134.47 31.55 133.41 32.52 131.37 34.19 129.4 34.4 128.4 34.18 127.91 34.51 127.18 34.41 126.07 33.87 125.15 32.89 125.04 32.69 124.26 32.83 121.09 33.38 120.31 33.93 120.42 34.91 119.81 35.61 118.56 35.19 117.22 34.34 116.36 34.32 115.29 34.82 115.21 35.01 114.52 34.6 113.56 35.84 113.73 37.22 112.06 37.78 111.56 37.71 110.78 36.95 110.41 37.13 109.78 36.68 108.49 37.04 107.69 37.84 107.24 38.43 108.26 38.84 110.43 38.63 111.45 40.47 112.06 40.79 113.52 40.28 114.33 42.06 116.97 43.48 117.5 44.66 117.25 44.95 117.77 48.15 119.25 48.83 119.32 50.33 118.39 50.96 117.75 52 117.05 52.48 116.46 53 116.4 53.31 115.22 52.44 114.1 52.04 112.85 51.44 112.53 50.85 111.72 50.98 110.77 51.58 109.9 52.27 108.23 52.27 107.65 53.27 105.61 53.31 105.06 54.73 103.07 56.64 101.36 56.97 100.6 57.95 100 58.15 97.93 59.39 95.15 58.76 93.83 58.12 91.58 57.7 91.13 57.61 90.31 58.11 88.56 59.86 86.44 62.15 85.65 62.81 84.86 64.67 84.54 64.96 84.69 65.25 85.76 65.75 86.55 66.18 88.13 66.02 88.84 66.8 89.14 67.76 88.5 68.39 87.5 67.65 85.71 67.47 84.49 66.39 81.56 65.84 80.81 64.3 79.69 63.22 79.78 62.29 80.09 61.26 79.86 60.93 79.34 60.33 79.26 59.67 78.57 60.2 77.63 60.28 76.93 59.73 75.7 59.79 74.9 59.33 73.61 58.33 73.42 58.09 72.45 58.68 71.38 58.47 69.71 58.17 68.79 58.26 68.19 59.18 67.23 59.34 66.67 59.18 65.7 59.51 64.79 60.01 64.59 60.09 63.89 60.72 63.24 61.83 61.2 63.3 59.13 63.88 57.84 64.24 55.19 65.11 52.83 66.15 50.38 66.56 47.31 67.02 46.15 67.07 45.32 67.64 43.56 67.69 42.74 68.21 40.38 70.11 37.3 71.5 35.55 72.17 34.23 73.33 30.74 73.95 29.31 74.41 24.26 74.87 23.92 74.91 22.57 75.92 20.75 76.04 19.47 77.83 14.84 77.91 13.3 77.72 12.45 76.4 12.53 76.12 11.15 76.86 9.91 78 9.28 78.58 10.16 79.47 9.44 79.75 8.56 81.36 6.32 82.22 5.6 82.68 6.15 84.03 5.43 85.31 5.18 86.37 4.6 87.33 3.85 88.17 3.45 89.16 3.41 90.46 2.84 90.93 2.45 92.23 1.86 93.19 1.16 93.94 1 95.48 1.07 96.21 1.35 97.9 1.66 98.38 2.02 99.81 3.57 100.12 4.08 101.35 4.5 101.48 5.57 102.5 6.58 103.2 6.8 104.07 6.6 104.8 7.54 109.53 11.31 110.57 12.38 111.81 12.85 112.27 13.59 112.26 14.78 112.58 15.57 113.28 16.62 113.45 17.5 114.35 17.68 116.27 18.32 117 19.2 117.08 20.69 116.49 21.96 113.41 24.35 112.58 24.69 111.5 27.3 110.65 28.31 111.85 28.83 111.83 29.62 114.94 31.4 118.46 33.49 118.89 33.29 121.91 33.05 124.59 30.67 124.95 30.14 124.8 29.41 126.36 28.03 127.71 27.21 127.44 26.43 127.42 25.34 127.01 24.51 127.66 23.93 129.34 24.87 130.18 25.78 130.75 26.04 131.72 27.46 132.36 28.84 132.99 29.6 132.17 30.24 132.93 31.2 133.98 30.67 138.22 35.84 137.52 36.49 138.23 36.97 139.69 38.49 139.76 38.92 140.63 39.1 141.28 38.58 143.68 39.64 143.23 40.17 141.44 39.39 140.84 39.55 141.53 40.5 141.86 40.51 144.08 41.66 144.61 41.44 146.11 41.49 146.12 41.98 144.93 41.97 144.82 42.23 149.02 43.8 149.39 44.16 151.03 44.11 151.81 44.36 152.2 45.12 152.03 45.86 153.44 47.28 153.64 47.67 154.78 47.84 155.47 49.37 153.94 50.65 153.49 51.6 154.15 52.75 153.37 53.27 152.84 53.06 151.86 53.21 150.47 52.58 149.27 53.68 148.49 55.37 148.19 56.95 148.62 57.86 148.15 58.27 147.94 59.8 148.41 60.73 148.12 62.77 147.66 63.63 147.69 65.06 148.12 66.01 148.04 66.39 148.56 67.94 148.71 68.84 148.23 69.55 147.88 70.67 147.89 71.43 148.25 72.28 149.13 73.48 149.96 75.28 150.07 76.75 149.76 78.12 149.42 78.06 148.75 80.85 148.36 81.79 148.77 83.29 149.9 83.97 151.99 85.69 153.83 86.34 155.31 86.33 157.93 86.63 158.6 86.93 159.56 86.94 161.48 87.42 162.66 88.13 164.3 90.75 164.81 91.18 167.04 94.1 168.56 94.76 169.03 95.33 168.44 95.93 168.65 97.09 170.08 98.82 171.21 100.35 174.16 101.55 175.5 102.41 176.18 103.25 176.83 104.8 177.25 105.26 177.93 106.55 177.86 107.25 178.59 110.64 179.58 112.73 179.33 113.56 179.16 115.04 179.26 116.19 178.97 117.07 178.58 119.28 177.15 121.22 177 122.12 176.03 122.91 174.84 123.54 180.05 129.67 181.01 128.82 181.33 129.21 180.98 129.95 182.01 130.38 182.58 130.1 183.63 130.91 183.35 131.31 187.17 135.81 187.35 136.12 188.83 136.28 188.98 136.53 190.22 136.38 192.49 136.35 193.44 135.98 197.03 135.25 199.9 134.37 201.31 133.58 201.89 132.98 201.92 131.84 201.25 131.49 200.71 130.6 200.74 129.97 201.14 129.34 203.06 128.52 203.73 127.7 204.38 127.66 205.18 128.12 205.72 128 206.83 127.07 208.19 126.55 208.74 126.71 210.08 125.91 210.91 123.65 214.45 114.5 212.92 113.47 212.35 112.6 211.85 112.45 211.91 111.47 213.62 109.56 214.07 109.3 214.86 109.9 215.69 109.65 216.43 109.96 219.93 104.22 219.56 103.77 219.63 102.74 218.42 103 218.23 102.16 219.05 101.07 220.47 99.74 220.87 98.87 220.75 98.07 222.26 95.68 222.31 95.07 223.72 94.06 224.33 94.26 224.63 94.79 225.99 95.36 230.21 91.36 230.76 91.07 231.2 90.1 230.29 89.22 230.55 88.69 232.08 90.01 235.39 86.78 236.74 85.16 236.19 84.69 236.86 83.63 238.13 82.43 238.91 80.71 239.89 77.39 240.87 73.35 Z" fill-rule="evenodd" id="36600000"/>
</g>
</svg>