<?xml version="1.0"?>
<svg xmlns="http://www.w3.org/2000/svg" version="1.2" baseProfile="tiny" width="800" height="845" viewBox="0 0 800 845" stroke-linecap="round" stroke-linejoin="round">
<g id="sigung">
<path d="M 749.35 140.31 750.86 142.87 750.73 143.94 751.55 145.35 752.71 145.61 753.58 148.47 754.96 149.73 754.99 151.55 756.36 153.54 760.17 157.11 760.53 158.7 761.62 160.19 763.21 160.94 765.03 161.25 765.82 161.83 767.61 162.34 770.37 163.59 771.71 165.24 771.23 166.11 772.05 167.91 773.35 169.14 774.87 171.38 776.81 173.33 775.7 174.79 774.43 175.52 773.64 177.48 773.87 179.01 777.88 181.66 780.44 182.81 780.48 184.18 783.83 185.04 785 184.91 786.16 184.04 786.98 186.03 786.45 188.72 783.79 186.62 782.84 187.13 783.79 188.17 784.44 189.86 785.8 191.14 786.38 192.27 787.99 194.16 789.37 196.96 790.28 197.17 793.78 196.42 794.87 196.56 796.9 198.55 797.55 200.77 799 202.78 798.59 205.97 797.64 206.86 797.21 208.44 797.18 210.04 795.28 213.22 793.85 212.07 790.93 215.67 789.78 214.76 786.7 215.94 784.86 215.91 781.57 216.55 778.24 217.67 774.54 220.75 773.83 222.61 773.9 224.22 768.72 223.47 765.84 224.2 762.62 222.81 759.17 223.48 755.81 225.87 755 226.91 753.38 228.13 751.6 230.09 750.94 231.23 751.38 235.03 751.41 237.37 750.08 240.64 751.33 243.69 751.87 244.35 754.15 245.65 754.48 248.36 753.29 249.31 750.1 252.91 748.38 256.23 746.29 257.29 744.91 259.08 744.08 261.39 744.97 263.43 748.1 265.64 749.71 267.22 749.07 268.8 747.04 271.29 746.57 272.27 743.68 274.71 742.04 276.54 743.18 280.24 742.73 280.72 742.59 282.3 740.65 284.43 737.88 285.96 734.74 286.63 731.71 286.86 726.95 287.91 728.81 289.94 729.86 291.43 733.09 295.43 733.76 296.05 736.57 296.15 741.6 295.01 744.71 296.22 748.97 296.34 747.88 299.48 747.89 303.28 747.65 306.14 748.14 307.14 748.78 310.75 750.04 312.32 750.49 315.51 751.18 317.61 753.22 318.71 752.55 321.67 752.39 326.21 752.1 330 749.51 334.47 751.28 337.42 749.76 339.65 749.58 343.38 748.87 345.59 748.74 348.4 748.05 351.44 748.28 352.37 747.13 354.13 745.74 355.59 744.54 358.44 745.22 361.11 745.89 362.59 746.13 364.72 746.88 367.13 746.57 368.08 744.33 372.1 745.03 374.55 747.1 377.69 749.68 378.39 753.03 380.49 754.14 383.15 754.19 385.19 753.71 388.11 753.63 390.01 751.91 391.88 753.9 398.14 754.66 403.17 752.49 406.49 750.9 408.35 751.93 411.3 750.18 414.03 747.74 415.36 745.36 416.2 744.71 416.16 742.5 417.68 740.7 419.53 740.32 420.52 739.03 421.11 736.3 420.85 735.23 422.51 733.86 424.11 732 425.45 731.42 427.01 732.11 429.33 731.35 434.42 733.22 436.63 733.62 439.27 732.18 440.88 731.04 442.66 728.98 445.06 727.77 445.79 726.63 445.57 725.71 446.67 724.22 447.59 721.3 447.73 720.04 447.5 719.38 447.9 716.78 448.22 716.14 449.49 713.96 449.08 713.01 448.31 710.9 450.41 709.23 451.23 707.02 452.72 703.08 456.63 701.95 456.32 698.44 454.58 696.48 455.85 695.59 456.76 694.2 457.24 692.61 459.81 689.12 462.04 687.49 462.82 686.31 464.27 685.61 464.62 683 464.69 680.92 463.48 677.91 468.94 677.19 472.06 676.13 473.52 673.25 475.07 671.85 476.98 668.63 479.61 666.05 477.99 663.54 476.84 659.28 475.94 657.33 473.38 657.04 471.61 656.3 469.34 654.84 467.89 653.94 467.42 648.78 466.91 646.69 467.57 645.58 466.76 644.35 466.55 641.25 465.23 635.32 459.22 632.27 458.82 629.74 457.62 627.7 456.12 625.47 455.45 623.48 454.2 621.37 451.11 621.89 450.35 622.12 448.8 621.27 445.56 621.5 443.97 620.93 442.4 620.04 441.65 619.95 439.84 618.5 439.82 617.04 440.81 615.29 440.84 612.15 440.25 610.43 439.31 608.29 437.71 605.72 437.86 603.05 438.9 601.37 440.32 598.11 439.97 595.29 441.4 594.35 442.44 594.29 443.59 593.42 445.99 594.2 447.73 596.63 448.66 597.87 449.75 599.03 451.52 599.4 452.58 598.77 454.8 599.23 459.19 600.1 461.95 599.29 465.87 597.67 469.19 596.67 473.05 595.94 474.62 595.32 476.91 595.27 478.69 595.64 481.13 596.2 482.39 596.22 484.42 595.17 490.25 593.72 493.99 590.74 498.73 589.02 500.92 588.12 502.58 587.95 505.59 588.39 511.06 586.37 519.28 585.42 525.77 584.04 528.8 583.57 528.8 581.85 531.82 581.12 534.62 583.71 539.04 586.7 540.84 586.4 541.29 586.71 544.33 585.6 546.05 584.39 547.11 583.38 548.53 582.57 550.31 579.7 553.97 578.51 555.7 578.09 557.06 577.82 563.16 578.75 563.6 582.01 565.95 583.09 568.22 581.46 570.13 580.43 572.3 580.57 573.61 580.01 575.33 578.16 576.78 576.72 576.76 575.14 577.33 574.38 579.14 574.04 582.1 575.5 584.94 578.09 591.33 579.7 592.53 581.64 593.09 582.96 594.28 583.18 596.19 582.22 598.41 580.77 600.35 577.64 600.97 576.71 602.26 576.44 604.27 575.67 606 574.81 607.12 575.05 610.01 576.91 612.35 578.06 612.98 579.7 612.72 580.76 612 581.68 610.61 583.47 610.23 584.5 612.69 583.46 615.03 583.62 616.29 581.39 617.33 580.01 620.7 580.01 622.83 581.32 623.19 582.54 621.61 582.59 619.42 583.09 618.28 584.74 618.72 584.29 622.09 583.16 623 581.12 625.64 579.7 625.64 578.49 624.45 577.65 624.48 576.79 625.9 577.03 626.88 579.17 630.59 579.7 631.16 581.61 632 582.78 633.21 583.46 634.69 582.67 636.02 581.6 636.56 580.91 638.38 581.35 641.03 582.37 642.52 583.44 643.26 585.59 645.95 588.73 648.33 589.25 651.13 588.03 652.25 588.04 654.74 588.75 656.41 588.76 660.34 589.55 662.5 590.8 663.99 592.25 669.01 591.94 669.95 589.71 671.15 587.98 670.64 586.74 671.78 589.21 673.39 590.34 674.53 590.54 675.82 588.59 677.82 586.56 678.19 586.19 679.62 586.82 680.37 586.89 681.51 586.02 683.88 585.47 686.94 582.23 688.65 581.16 689.73 580.7 691.22 580.76 693.65 579.91 695.6 575.39 699.03 571.83 701.44 570.78 702.82 570.13 704.45 569.04 708.24 568.69 710 569.78 713.13 571.47 715.71 572.32 716.14 574.45 716.37 576.35 717.6 578.9 718 581.56 717.74 584.05 717.18 587.35 716.93 590.45 715.69 592.57 715.84 595.77 717.26 597.09 717.29 599.42 716.05 600.47 716.2 602.53 717.67 603.87 719.93 604.54 721.61 604.98 723.87 605.36 727.16 604.36 730.37 603.67 733.94 602.66 735.65 598.14 740.3 596.14 744.3 594.85 745.41 592.72 744.96 591.48 743.9 591.5 742.74 592.12 740.29 592.09 738.91 591.04 738.16 589.32 739.42 588.61 742.73 588.98 744.49 590.14 746.87 591.5 750.24 592.98 752.7 595.36 755.04 596.81 757.56 596.76 759.8 595.61 762.51 592.4 765.78 588.1 768.19 585.47 769.99 584.89 770.81 585.95 772.43 588.1 773.24 590.6 773.68 594.25 773.75 596.77 772.94 597.41 772.43 599.26 769.58 601.34 765.93 602.2 765.32 603.09 765.64 603.59 766.81 603.66 768.61 602.98 770.57 601.89 772.43 600.2 774.18 598.63 775.31 594.21 776.84 587.66 780.03 584.11 782.13 582.67 783.44 582.92 784.13 582.46 786.17 578 788.88 574.46 791.93 571.5 795.91 570.32 797.78 566.64 803.09 563.88 807.23 562.04 812.46 560.17 820.49 558.8 826.69 556.56 830.19 552.13 835.94 548.49 840.06 542.45 842.02 536.93 843.52 536.22 844 534.47 843.29 533.46 843.61 531.46 843.06 530.62 842.45 528.36 841.87 527.8 838.96 527.57 835.61 525.5 827.81 523.33 821.45 522.69 818.84 521.24 814.47 514.63 804.44 510.81 800.74 501.23 795.23 496.72 794.74 492.65 794.58 489.36 795.28 478.14 800.6 471.07 805.84 469.52 807.23 462.98 812.48 462.99 813.07 459.51 817.73 458.13 819.35 455.85 823.52 452.34 830.44 449.93 838.72 443.91 837.6 443.96 834.96 439.97 831.11 437.55 830.74 436.97 831.19 434.26 830.7 432.29 829.13 431.07 829.44 428.09 829.67 426.24 828.07 425.33 827.75 423.57 825.2 422.69 825.15 421.08 823.64 420.06 821.28 417.93 820.04 416.85 818.6 412.89 817.94 411.89 818.26 410.74 814.84 408.44 813.69 407.13 811.84 405.24 812.24 403.91 811.94 401.41 812.42 400.09 812.41 397.25 813.12 393.23 812.54 391.48 811.68 389.05 811.28 387.96 811.94 385.59 808.79 384.75 806.64 382.93 803.34 380.95 802.78 379.38 801.06 377.17 799.27 376.86 798.21 375.65 796.85 374.64 794.62 374.05 790.33 372.87 789.75 371.49 789.79 370.59 789.17 368.03 789.49 365.63 790.95 362.08 794.26 361.65 795.91 361.76 798.54 361.23 800.45 357.97 802.95 355.25 803.83 351.78 803.41 349.03 803.3 346.53 803.89 344.44 803.53 340.72 804.3 340.21 801.36 339.01 798.31 339.97 795.18 340.57 793.98 337.92 790.2 336.6 788.86 337.08 785.41 334.69 781.77 331.55 781.25 328.92 778.41 326.9 775.43 326.69 773.55 324.73 771.94 323.82 770.5 323.58 767.65 321.25 765.26 319.77 763.26 318.73 761.44 321.15 759.45 321.77 759.28 321.4 757.8 320.42 756.54 319.31 756.54 316.57 755.37 316.56 753.32 318.86 751.82 322.41 750.14 325.82 748.93 329.59 748.09 330.71 748.34 332.6 747.23 333.58 745.95 334.05 744.43 335.3 743.4 337.53 743.51 339.46 744.19 341.57 741.34 342.78 740.34 343.07 738.38 341.13 737.79 340.31 737.16 338.56 736.56 337.8 735.3 336.84 735.91 335.73 733.65 335.91 731.5 337.7 728.54 337.85 724.65 338.61 722.23 339.87 719.94 341.24 718.33 341.62 716.87 341.72 713.68 341.01 712.71 343.1 712.7 342.67 709.96 340.59 707.84 338.79 707.41 337.76 706.71 336.69 705.12 336.74 704.35 334.61 700.78 332.75 699.67 329.4 699.56 328.7 700.22 324.47 700.51 322.47 702.31 321.46 703.79 319.82 705.57 319.49 703.75 318.8 703.66 316.6 705.17 312.29 702.29 308.95 699.3 303.3 697.2 301.02 699.13 297.86 702.35 295.04 697.62 294.2 695.9 295.53 692.41 294.72 689.41 294.72 687.04 293.99 685.79 291.4 684.09 291.47 682.21 292.5 679.78 290.68 674.9 289.75 671.27 286.86 672.18 286.16 671.99 283.82 672.95 283.09 674.53 280.64 677.55 277.51 679.66 275.74 680.6 274 683.42 273.62 685.14 269.97 684.88 266.54 688.7 263.11 688.55 262.34 688.09 258.85 683.96 257.35 683.34 255.39 680.54 252.54 677.54 253.91 675.87 253.34 670.59 253.94 668.32 255.64 667.76 257.89 668.83 257.87 667.3 255.88 666.21 254.94 664.45 252.96 663.68 251.75 661.34 250.23 659.39 249.27 658.95 246.46 656.9 246.95 654.3 247.76 653.19 247.77 652.25 246.7 649.77 246.93 646.52 248.32 642.78 247.8 640.55 248.3 637.13 249.05 635.29 248.73 633.5 247.77 632.89 246.42 630.82 247.03 628.58 245.14 622.34 247.2 621.5 248.27 619.75 247.9 618.51 248.44 617.47 248.07 616.53 248.97 615.52 249.15 614 250.12 612.53 250.7 609.47 253.81 605.56 256.72 601.2 258.48 598 259.74 596.28 261.57 593.1 263.33 591.82 265.28 587.06 269.91 587.48 270.24 585.31 271.34 584.49 271.81 582.76 272.67 581.9 272.92 580.37 274.53 578.88 275.44 575.42 275.6 572.2 277.53 567.61 279.76 564.34 281.59 563.88 284.22 561.99 288.58 559.32 288.25 557.92 288.57 556.85 287.97 554.29 286.17 552.45 286.5 550.27 288.07 549.56 286.39 548.95 284.36 549.08 279.45 547.96 277.96 547.46 276.4 547.97 275.09 546.85 274.21 543.81 271.57 542.63 269.86 543.52 268.48 543.87 265.86 543.83 264.54 543.57 263.84 542.91 262.28 542.72 260.5 541.85 260.6 540.08 260.19 538.37 258.61 537.86 258.04 537.29 256.98 534.8 254.61 532.61 253.59 532.52 252.31 533.07 250.87 532.16 250.51 530.28 249.87 528.8 248.5 527.72 246.81 527.58 245.74 528.6 243.55 527.12 241.92 525.32 239.41 524.43 238.36 523.13 236.51 522.46 236.31 521.74 234.69 521.75 232.97 520.77 233.24 520.01 231.6 519.64 231 520.17 230.09 519.2 227.53 512.98 226.77 512.22 223.38 510.71 222.99 511.26 224.53 511.98 224.51 512.49 221.09 510.94 219.52 509.98 218.26 508.28 217.59 508.55 215.32 507.62 213.88 506.62 212.59 505.04 210.13 503.95 208.58 502.77 206.49 501.74 205.25 503.35 201.72 502.72 202.02 502.13 204.92 502.69 205.26 501.31 203.15 500.92 199.75 501.44 199.24 498.59 195.47 494.22 195.3 493.77 191.57 490.61 188.24 487.07 185.48 485.49 184.04 485.01 181.19 485.04 178.95 485.35 177.06 486.02 173.84 486.33 173.17 484.48 173.34 483.58 172.56 483.02 172.82 482.11 172.72 480.09 173.21 479.01 174.81 478.28 175.56 478.52 179.65 475.82 181.04 476.65 183.88 477.36 184.94 476.57 186.86 475.8 187.15 474.75 188.85 476.76 191 476.62 194.02 476.7 194.85 476.04 195.77 476.11 198.92 474.73 201.92 473.89 205.48 473.55 208.31 473.76 209.75 473.11 211.16 473.68 211.97 473.11 213.11 473.21 214.19 472.38 216.27 471.84 217.64 470.45 220.34 469.1 225.2 467.66 227.62 468.54 229.93 468.1 231.35 467.19 233.92 462.67 235.97 461.12 237.43 459.13 240 454.95 240.99 452.21 240.69 451.57 241.11 449.24 242.6 449.37 243.97 448.83 250.37 435.73 248.02 433.52 247.2 432.33 247.28 431.44 246.44 430.16 243.36 428.64 241.89 428.39 240.31 429.92 239.59 430.12 238.67 429.14 237.82 429.29 235.39 428.87 234.6 429.02 229.22 428.8 227.12 428.34 225.67 429.11 223.54 427.99 221.14 428.12 218.81 425.98 216.98 423.21 216.97 422.26 216.25 419.73 215.61 419.21 209.63 419.28 207.09 420.2 202.14 420.12 200.63 419.05 200.67 416.47 200.17 415.59 198.28 415.47 193.48 417.34 189.04 417.78 188.85 418.39 186.16 419.55 184.38 419.53 181.53 418.71 178.32 418.88 176.81 418.69 168.98 416.22 166.99 415.05 164.16 414.2 162.76 413.32 160.61 411.11 159.34 411.19 157.32 410.69 155.62 411.03 150.92 410.98 148.27 411.42 145.31 412.15 142.91 414.6 141.36 414.02 140.02 412.94 139.11 412.68 138.09 413.15 135.73 413.33 135.69 411.63 135.17 410.04 134.45 409.28 133.12 408.79 132.05 407.44 131.66 405.27 130.58 404.42 127.84 403.28 127.53 402.38 127.94 401.32 127.49 400.56 120.74 386.66 108.51 361.63 88.18 319.92 87.83 319.57 85.93 315.97 83.04 316.54 70.93 323.71 69.57 323.75 67.44 321.63 61.67 315.08 60.9 314.4 57.28 313.26 56.01 312.53 55.88 310.73 54.73 308.95 54.22 306.52 53.54 307.1 53.06 304.7 51.83 303.7 50.1 300.95 49.05 299.86 44.93 297.14 44.5 295.6 44.37 293.73 44.93 291.06 44.64 290.34 46.71 289.04 43.47 281.36 39.02 278.9 38.18 278.19 35.84 275.09 34.6 270.97 34.8 269.17 35.7 267.06 35.34 264.1 32.92 262.46 32.35 260.88 36.03 251.15 36.4 248.95 35.45 245.79 33.63 244.77 32.27 245.01 30.66 245.75 28.22 246.5 25.22 246.5 23.62 245.32 23.69 244.88 21.99 243.55 21.2 243.47 19.9 244.9 17.37 246.28 17.93 248.88 14.39 247.04 12.88 248.74 16.55 252.84 15.69 253.1 7.73 244.35 6.04 245.15 3.46 248.64 2.87 248.2 5.26 245.06 4.58 243.41 7.5 239.95 6.5 236.35 1 229.18 4.88 216.42 7.68 217.29 7.91 216.57 13.9 218.38 14.1 217.26 17.22 206.84 22.19 208.67 23.35 208.07 21.03 207.1 31.25 198.54 33.77 196.52 35.98 196.47 36.81 195.94 38.67 196.29 40.36 195.39 42.11 193.51 41.94 192.69 43.19 191.66 44.26 190.09 43.98 188.87 45.01 188.54 45.68 189.1 48.48 187.57 49.47 186.66 52.45 184.76 53.52 183.47 54.12 182.11 58.49 178.46 59.29 178.03 66.19 179.24 69.6 179.03 70.44 183.47 70.9 184.3 70.66 186.79 74.55 188.98 76.4 188.84 79.16 189.82 79.89 189.28 80.8 186.64 83.34 185.3 82.33 183.79 86.76 183.96 88.59 185.12 89.31 184.98 91.77 183.06 92.69 182.69 92.94 181.6 92.36 179.17 96.52 174.52 99.52 172.66 101.12 170.82 102.13 168.87 102.49 167.22 101.53 163.19 101.46 159.08 100.9 156.72 103.06 157.03 106.34 158.22 107.23 158.78 108.66 158.65 111.1 156.77 111.82 156.89 113.46 156.26 114.77 155.24 116.6 155.84 118.64 159.01 121.16 159.67 123.62 159.02 125.29 160.42 127.47 159.69 130.26 160.14 131.68 159.32 133.3 160.26 135.68 162.19 138.25 163.18 140.54 166.2 141.19 167.39 143.87 168.32 144.94 170.74 148.06 175.1 150.06 177.61 150.54 178.97 151.55 180.35 153.43 181.76 154.9 182.31 158.01 184.31 159.65 184.49 161.01 186.02 161.67 187.62 162.59 190.98 164.37 193.41 165.69 194.66 168.89 193.99 169.75 196.61 170.67 197.42 172.86 200.74 174.59 199.06 176.17 198.82 180.35 194.37 181.85 193.64 184.06 188.66 185.59 187.14 188.58 185.16 189.27 185.06 192.25 183.59 195.29 183.22 196.2 182.09 197.16 182.32 198.57 181.89 200.52 180.04 202.14 178.92 204.13 175.97 206.53 174.19 206.37 172.05 205.74 170.65 205.77 167.93 209.06 164.13 210.03 162.31 211.05 161.82 212.47 159.18 212.18 157.43 212.86 155.57 217.74 156.31 218.78 155.95 220.98 155.89 221.41 156.4 223.8 154.07 224.3 154.34 226.11 153.67 227.02 154.33 229.18 155.14 233.87 156.24 236.64 153.94 237.25 153.95 238.11 152.75 239.85 152.1 243.76 151.53 245.59 152.24 246.89 155.23 249.31 156.51 250.69 155.73 251.73 155.62 252.95 154.63 254.6 154.19 257.89 155.66 259.9 155.27 261.92 153.63 263.73 153 265.68 151.36 266.55 149.51 269.66 146.64 270.25 145.02 269.53 143.69 271.76 141.08 272.47 138.17 274.35 137.1 276.68 135.45 278.19 135.1 280.52 135.52 283.45 133.72 286.31 137.92 289.64 140.11 292.73 141.34 295.62 143.53 297.54 141.5 299.47 140.74 301.51 139.25 303.67 138.97 304.66 140.91 307.72 141.89 309.59 140.04 311.73 140.15 312.31 141.4 313.58 143.07 314.74 143.81 315.15 146.83 315.92 148.8 315.71 151.18 316.24 154.29 317.46 155.04 319.33 154.43 322.23 152.7 324.91 154.11 326.34 157.21 325.51 159.26 327.1 161.65 330.27 161.25 332.2 162.66 334.19 164.86 336.78 165.35 338.13 166.3 340.51 165.83 346.17 168.11 348.41 165.94 351.44 165.94 353.56 164.4 354.45 163.04 358.66 163.05 359.92 162.82 364.05 163.7 366.49 165.77 368.69 164.89 370.21 164.68 371.1 161.92 374.77 160.31 376.97 158.88 377.66 158.07 378.48 156.28 380.08 155.2 382.02 154.28 384.58 155.36 386.53 156.78 388.67 157.22 389.47 157.75 391.06 159.72 394.06 160.33 395.07 160.75 396.64 158.9 397.4 158.39 400.03 161.34 401.17 162.39 404.5 160.77 411.74 158.18 412.83 157.99 417.02 158.95 419.47 160.71 420 162.23 420.08 165.29 420.84 166.4 422.49 167.34 422.63 169.56 425.78 170.52 427.14 170.31 429.02 170.66 431.76 171.86 437.09 169.37 437.88 169.31 439.52 168.29 440.23 166.33 442.19 163.81 443.75 162.98 446.62 162.41 449.07 161.48 451.83 161.23 453.74 160.44 456.38 157.72 460.18 154.18 460.78 154.05 464.92 154.52 468.63 153.47 468.79 157.93 474.27 161.9 477.85 159.83 481.07 159.07 485.88 158.53 487.72 158.48 491.97 154.3 493.84 153.3 496.98 153.25 499.08 153.47 501.07 153.19 504.16 153.22 505.94 152.65 507.73 150.78 510.15 149.22 511.7 146.19 513.94 145.34 515.91 145.27 516.06 144.77 515.58 140.12 515.15 138.07 515.63 136.97 514.29 132.36 511.59 129.02 509.11 125.42 514.14 120.73 517.47 119.43 521.45 118.81 522.12 118.43 528.11 119.1 532.81 119.77 534.56 119.78 537.01 120.73 538.11 120.46 541.87 122.54 545.27 122.58 549.34 123.29 551.3 126.42 554.81 127.75 557.23 127.74 557.26 126.53 559.65 121.9 560.75 120.66 561.98 116.04 564.48 114.1 565.36 111.07 567.33 109.64 567.95 108.81 568.16 103.42 568.42 100.75 571.09 97.71 572.13 95.21 573.35 93.09 573.37 90.87 573.75 87.8 574.89 86.04 574.89 84.2 575.88 83.58 577.22 81.49 579.56 79.48 580 78.37 581.31 76.45 582.94 73.16 583.46 71.39 583.43 69.77 584 69.03 583.51 66.65 584.22 63.63 585.06 62 585.09 60.73 584.42 59.27 582.17 58.99 581.63 57.76 581.83 54.41 582.42 53.16 581.22 50.82 581.25 50.26 582.66 45.79 582.53 44.53 584 43.05 586.65 42.19 587.41 40.35 589.75 38.29 590.42 36.64 588.48 35.27 586.94 34.73 585.62 33.43 584.92 31.52 584.68 29.85 585.32 26.95 584.06 24.97 581.03 20.93 582.87 18.64 582.92 17.29 583.98 15.95 585.92 14.93 586.97 13.26 588.14 12.32 588.92 11.33 592.13 9.33 594.03 9.42 596.64 8.29 597.81 6.09 599.22 5.37 600.11 3.99 601.45 3.55 602.64 4.45 603.82 3.47 605.8 3.59 608.81 1.43 611.96 1 614.36 1.76 617.38 4.29 619.45 6.57 624.04 8.8 624.98 8.94 630.55 12.7 632.73 14.04 635.4 16.43 636.12 17.32 638.42 18.95 640.72 20.19 642.44 18.57 642.82 18.77 645.09 22.42 645.07 23.51 643.53 25.43 644.74 29.82 646.82 32.36 647.81 33.06 650.1 33.72 651.04 34.35 653.15 36.44 654.19 37.9 655.9 39.39 656.97 41.62 658.95 43.7 662.4 45.52 665.53 48.74 667.2 50.12 670.89 50.97 675.66 52.64 677.8 54.09 680.84 58.45 683.03 60.84 683.88 62.37 683.86 63.41 685.05 65.88 685.38 67.34 686.66 69.06 688.28 70.73 688.76 71.61 689.63 71.76 690.93 73.47 692.53 74.62 694.32 76.97 696.05 78.24 697.2 80 698.84 81.55 700.81 83.05 702.54 83.91 706.52 84.2 708.05 85.42 708.5 86.99 709.15 87.8 711.34 89.39 712.45 91.25 713.59 90.29 714.5 91.19 717.12 91.89 718.83 91.87 720.96 92.99 721.5 93.66 721.98 95.54 724 96.3 724.31 99.38 725.06 100.35 725.54 102.46 727.34 103.4 728.37 104.49 729.9 104.79 729.55 106.71 729.51 108.63 731.45 109.88 732.68 111.41 733.55 114.07 732.92 115.26 733.8 117.11 737.91 119.3 741.24 122.08 742.99 125.07 745.13 126.76 745.88 128.26 745.78 129.96 745.07 130.71 744.84 132.06 745.38 133.26 743.6 136.31 743.67 137.41 747.77 139.63 749.35 140.31 Z" id="36630000"/>
</g>
</svg>