<?xml version="1.0"?>
<svg xmlns="http://www.w3.org/2000/svg" version="1.2" baseProfile="tiny" width="800" height="840" viewBox="0 0 800 840" stroke-linecap="round" stroke-linejoin="round">
<g id="sigung">
<path d="M 665.59 73.32 667.06 72.75 668.36 73.16 669.87 74.69 671.67 75.79 672.52 75.98 673.48 76.79 676.99 77.66 679.35 79.1 680.3 81.1 680.88 81.51 681.66 84.96 683.15 86.39 684.34 86.92 687.72 88.85 689.08 89.07 691.1 88.37 693.85 89 694.59 90.96 697.27 92.97 697.46 93.65 697.05 96.52 697.79 97.82 697.96 99.07 699.73 101.03 700.89 102.04 702.37 102.74 704.69 102.94 707.15 104.4 720.39 106.93 720.47 107.44 723.02 108.93 725.97 109.86 730.16 111.49 729.92 113.99 730.71 116.94 732.69 117.74 733.38 118.77 734.83 119.89 735.13 122.23 736.23 123.61 736.79 126.47 737.94 127.67 738.79 128.1 743.02 129.07 745.26 130.58 747.62 130.93 749.47 131.81 746.72 134.14 745.92 135.08 745.15 135.33 743.33 137.16 740.76 139 739.3 142.29 738.05 143.66 733.87 144.8 733.15 145.31 731.76 148.5 732.02 151.18 731.74 152.11 732.06 154.07 732.65 154.75 738.6 159.85 740.83 161.16 747.59 163.31 746.72 165.72 746.97 168.11 744.17 169.89 743.48 171.24 743.42 173.43 743.58 177.5 742.22 180.01 741.91 182.23 743.21 184.82 744.54 188.15 744.67 188.99 748.98 189.61 753.03 189.6 754.66 190.13 757.8 193.27 758.29 195.71 757.74 197.23 756.67 201.33 756.72 202.47 758 203.77 760.59 204.14 763.09 205.1 765.62 203.88 767.02 204.23 768.69 203.22 770.27 202.58 772.67 201.94 774.99 202.56 776.43 205.27 776.55 208.02 778.23 210.75 782.14 212.99 782.9 213.87 783.83 215.59 785.72 216.68 783.38 219.28 782.88 220.5 781.35 221.74 781.53 222.45 780.83 223.75 780.22 225.87 779.84 226.25 779.51 228.34 778.96 229.56 776.55 231.95 776.03 233.49 777.39 235.59 777.26 238.2 777.43 239.93 777.93 241.38 780.95 242.27 782.62 241.94 785.55 244.21 787.77 245.75 789.66 246.12 790.67 246.74 792.7 248.64 794.57 249.27 795.71 251.05 795.81 253.96 797 256.37 796.27 258.44 796.13 259.61 796.45 262.19 794.96 263.79 794.88 265.02 793.44 267.24 793.26 268.53 794.02 269.53 794.05 271.5 793.74 275.68 794.65 277.77 794.79 278.84 795.45 280.25 795.73 285.33 796.89 287.34 798.45 287.9 799 289.72 798.51 290.67 795.7 292.54 794.21 294.21 793.87 295.24 794.08 297.07 793.99 299.29 794.39 302.23 793.86 304.3 792.84 305.72 790.85 304.88 788.4 303.21 787.21 302.09 787.21 299.25 786.79 297.75 785.19 295.51 783.8 294.82 782.44 293.51 781.32 291.77 780.51 291.47 778.63 290.17 777.61 289.93 777.23 289.19 775.44 288.53 774.85 287.07 772.44 284.66 771.42 286.1 770.38 289.08 770.19 291.76 770.78 293.52 769.55 294.91 768.75 297.21 767.01 297.68 765.19 299.68 762.73 299.51 759.93 299.92 759.19 300.94 757.08 301.78 755.52 303.49 754.25 303.56 753.2 305.21 752.6 305.45 751.14 306.92 749.9 307.55 749.06 308.45 748.59 309.69 747.89 310.22 744.09 310.29 743.93 312.83 743.59 314.39 743.3 318.66 743.93 319.9 743.79 320.66 744.47 322.96 741.98 324.45 738.84 325.3 736.76 326.33 735.77 327.13 733.71 326.98 732.57 329.03 731.87 331.67 730.48 334.45 728.19 336.78 726.81 340.08 727.16 341.41 727.24 343.39 724.82 344.27 722.73 344.52 720.41 345.96 717.77 347.01 716.96 346.75 714.82 346.96 713.69 347.58 710.62 346.33 707.21 346.28 705.81 347.98 705.92 349.43 703.96 350.65 702.93 352.94 702.07 353.94 700.67 354.63 702.16 357.61 701.53 359.96 700.1 363.33 698.45 364.96 698.16 365.61 699.09 366.86 699.85 368.4 700.21 370.76 698.74 373.98 698.3 374.51 698.47 375.92 698.36 377.83 699.37 381.1 698.8 382.71 698.73 383.83 697.87 386.39 696 386.51 693.43 386.24 692.23 384.42 688.58 382.31 688.31 389.9 687.33 395.5 686.56 397.42 685.58 398.54 684.88 398.69 684.93 401.26 682.88 403.01 682.85 404.84 683.11 405.56 682.86 407.61 681.55 408.94 681.15 410.5 682.06 413.04 686.48 415.45 689.2 417.67 689.35 419.9 689.26 421.7 690.21 423.21 693.3 425.68 693.29 428.53 693.95 430.54 696.16 433.73 698.44 436.32 700.34 440.44 701.88 443.37 703.55 445.06 704.11 448.34 706.44 451.65 708.86 456.86 706.35 458.38 704.14 460.52 702.36 462.45 699.7 464.02 698.77 465.17 697.87 465.51 696.8 466.44 694.43 467.91 691.64 469.87 689.15 468.48 687.1 466.84 685.92 465.66 684.48 466.19 682.92 466.41 680.16 466.14 679.35 465.55 677.86 465.15 676.05 465.74 675.23 466.63 670.56 465.37 665.84 465.88 661.08 466.95 659.33 466.83 657.55 467.34 654.89 466.86 650.86 466.96 647.12 471.15 647.97 471.44 649.46 477.43 650.58 479.74 649.59 480.51 648.86 483.08 649.15 488.04 650.17 491.17 648.71 491.95 647.83 494.42 646.61 496.63 644.91 501.35 647.17 503.36 647.61 504.2 648.23 509.86 648.02 512.26 647.35 513.42 648.2 517.55 647.41 519.43 647.54 521.13 647.28 524.14 646.97 525.4 647.35 527.22 645.97 528.78 646.17 529.15 644.87 531.22 642.65 532.49 641.49 532.65 639.82 534.59 638.26 535.52 637.87 537.37 636 541.49 633.43 544.17 630.82 546.12 635.16 550.65 638.43 553.81 641.31 556.09 642.69 557.58 644.33 558.5 645.14 560.02 645.63 561.48 645.57 562.35 646.1 564.17 647.27 569.22 647.89 570.45 648.23 574.84 649.57 576.43 650.04 578.28 650.87 579.38 651.96 581.41 652.55 583.7 653.86 587.8 653.64 588.41 653.12 591.94 653.97 595.43 655.36 598.92 657.45 601.05 657 601.76 656.56 603.56 656.08 604.28 657.08 606.58 658.85 609.22 659.4 609.73 660.83 609.1 662.22 609.06 662.74 609.39 663 610.53 663.96 612.57 665.14 613.05 665.64 613.93 665.9 615.47 667.14 617.65 667.25 618.88 667.98 620.89 668.76 621.3 669.94 622.6 670.52 622.75 671.78 623.95 672.51 625.35 673.22 628.49 674.49 630.28 675.4 630.96 677.16 634.65 677.65 636.47 679.8 640.31 682.28 642.69 682.23 643.65 682.69 646.12 684.18 648.25 685.98 651.99 685.93 654.21 687.6 656.66 687.97 657.48 689 662.45 688.37 663.86 689.42 666.36 689.62 667.86 686.74 668.46 685.05 669.57 683.87 669.98 682.68 670.81 679.53 671.81 677.13 671.99 676.73 672.64 674.86 673.75 673.21 675.95 670.86 677.56 670.43 678.94 667.85 680.78 666.18 682.46 664.35 683.1 659.85 682.98 657.98 682.48 656.44 683.63 655.73 683.81 655.45 684.69 654.68 685.02 653.99 683.99 652.27 684.21 650.25 685.58 650.02 686.86 649.52 687.51 647.75 688.43 647.08 689.71 646.57 692.26 646.85 693.05 646.65 696.11 646.08 696.41 644.61 698.89 643.69 699.35 641.89 700.76 640.36 700.42 639.4 701.13 639.08 702 637.72 701.8 636.22 703.07 635.3 703.36 634.56 704.12 632.36 704.45 630.41 706 630.24 704.73 628.45 704.17 628.16 704.73 626.34 704.68 625.92 706.05 624.48 705.2 622.42 706.9 622.93 707.67 621.26 708.44 619.3 710.17 618.74 711.02 616.34 712.45 614.48 708.23 613.08 707.75 611.93 708.27 609.5 708.48 608.7 709.07 607.57 708.89 607.51 710.12 608.2 711.99 608.99 715.28 607.71 716.43 607.22 715.75 605.81 714.95 604.03 714.87 602.48 716.74 602.23 717.9 600.72 716.41 599.44 716.24 598.29 717.43 598.2 719.33 597.75 720.2 596.74 723.28 598.11 724.84 597.47 725.02 597.74 726.6 596.78 726.98 594.02 729.17 590.24 728.76 589.09 729.21 586.71 728.87 585.58 731.39 586.01 732.14 581.88 733.24 577.95 730.05 576.27 729.05 573.95 727.31 569.52 725.94 565.49 723.95 563.48 723.2 562.8 723.43 561.83 724.5 561.04 726.55 561.46 727.41 561.8 730.04 562.4 732.2 562.45 734.62 562.7 735.97 562.56 737.16 561.2 738.85 560.2 740.56 558.84 740.45 555.2 739.61 553.42 740.54 552.38 739.48 550.58 739.5 550.18 741.46 549.77 742.14 548.61 742.67 545.96 746 543.99 745.63 543.22 744.58 541.97 743.84 540.9 743.72 539.4 745.33 538.18 746.22 536.02 747.16 535.18 748.29 535.14 749.27 533 749.1 531.44 749.79 529.76 753.07 528.57 753.62 524.8 753.91 523.89 756.55 523.16 757.05 521.18 757.52 520.55 758.53 518.97 758.82 518.58 759.8 517.03 761.7 516.08 760.02 515.23 756.93 515.22 755.07 514.73 753.13 511.27 753.74 510.91 754.49 509.49 754.26 508.13 756.05 507.5 757.4 505.9 757.59 502.51 757.03 501.04 756.55 499.57 756.52 498.37 756.03 497.57 756.29 495.77 757.7 493.51 757.38 491.48 756.06 489.1 753.94 487.81 751.57 484.8 749.94 483.26 747.92 482.13 747.33 481.11 746.22 480.2 745.75 477.89 745.18 477.12 746.54 475.79 747.42 473.43 745.84 472 745.4 468.23 744.87 466.66 744.36 463.97 742.99 462.89 742.71 461.85 743.2 458.51 740.66 456.8 738.68 453.48 735.61 452.05 733.7 451.33 733.08 450.26 731.31 449.51 729.51 447.3 726.76 446.02 727.06 443 726.89 442.28 726.22 439.56 725.81 438.5 725.06 435.54 720.33 431.23 721.47 430.95 722.96 428.3 722.68 427.24 721.92 426.63 721.01 423.1 720.33 421.08 720.73 420.47 720.52 418.17 718.87 416.64 718.01 414.61 717.92 412.33 717.06 409.68 718.15 404.77 717.72 401.64 716.69 400.6 715.93 398.81 713.13 397.39 708.98 397.34 708.2 398.54 705.58 399.09 702.94 399.32 700.99 399.96 698.63 399.79 697.87 400.55 697.4 400.49 696.47 399.65 694.56 400.66 693.58 401.03 692.75 401.44 690.5 404.15 689.65 406.74 686.55 408.15 685.16 409.36 684.77 410.22 683.96 410.96 682.45 413.16 679.74 413.6 678.92 414.98 673.68 414.97 669.29 415.53 668.18 416.76 666.98 416.66 665.73 417.86 665.08 419.02 664.03 420.36 662.15 420.69 660.28 420.82 657.82 420.13 656.55 419.72 654.82 419.79 653.4 417.42 650.99 414.53 647.46 412.45 647.02 410.38 647.24 409.42 647.92 408.09 648.19 406.91 647.96 404.56 650.08 402.78 650.4 402.77 651.02 400.28 653.34 398.23 653.01 394.8 652.18 393.04 652.5 389.78 653.44 389.34 654.4 387.26 654.93 386.89 657.03 386.16 659.5 384.77 662.16 382.52 663.44 382.18 663.21 378.75 665.07 377.18 664.73 375.42 665.73 374.54 666.72 373.16 667.08 372.02 666.57 371.28 665.51 370.32 667.13 369.37 669.27 367.84 668.57 366.28 668.25 364.63 667.46 364.04 666.77 362.12 666.38 361.54 665.65 361.51 664.76 360.86 664.16 359.28 663.56 358.87 664.1 358.51 666.22 357.17 666.75 356.65 669.36 355.87 670.25 354.39 672.74 353.08 673.6 351.15 676.81 349.92 678.42 348.74 679.44 348.49 680.26 346.25 683.37 346.3 684.82 345.65 685.33 344.37 687.48 342.39 688.85 341.72 690.21 342.29 693.88 342.38 695.92 342.94 697.79 342.22 699.83 341.78 702.34 340.99 703.14 340.39 704.95 340.39 705.88 339.79 707.44 337.03 710.04 334.9 709.66 334.31 710.76 333.33 711.66 333.54 713.7 331.84 714.05 330.69 716.06 330.05 717.7 330.12 720.2 328.34 721.39 328.24 723.1 326.89 726.15 328.21 727.57 326.23 731.71 325.13 732.62 323.72 734.6 322.56 734.37 321.83 735.22 320.12 735.94 318.3 737.22 318.28 738.91 318.73 741.42 317.35 745.14 315.64 749.03 315 751.28 316.63 752.63 318.54 757.19 320.19 759.7 319.77 760.63 319.9 762.66 319.25 763.61 318.86 765.04 319 767.65 318.32 768.23 315.88 768.58 314.66 771.05 314.7 772.95 315.15 774.62 315.07 775.66 313.11 777.92 312.05 777.76 308.41 778.72 306.9 778.88 305.34 777.81 302.56 778.72 300.88 778.5 299.48 778.84 296.84 778.21 295.06 779.28 290.03 783.37 288.41 784.29 286.38 783.94 285.55 784.83 284.81 784.81 284.14 786.82 282.62 788.23 280.73 788.59 279.77 789.5 278.81 791.14 277.87 791.48 274.76 789.61 271.62 788.93 271.59 787.63 270.33 786.82 268.49 786.05 267.33 786.04 264.99 786.63 264.18 785.18 262.55 783.64 261.25 782.99 260.41 781.31 258.8 780.38 257.46 780.23 255.64 777.86 254.44 777.27 252.97 775.89 252.26 775.7 251.68 774.56 251.78 773.27 250.65 772.61 249.74 770.34 247.18 770.57 246.8 771.56 245.77 771.95 243.84 770.77 243.9 770.35 242.05 769.71 239.72 772.49 238.71 774.2 238.58 776.27 237.88 777.3 237.63 778.41 237.06 778.96 236.72 781.25 235.94 782.13 236.22 783.58 236.01 784.9 233.42 787.17 231.39 788.4 229.12 789.07 228.25 788.74 227.02 790.11 227.27 791.19 226.48 791.95 226.68 793.33 227.6 794.62 226.88 797.93 225.34 801.3 224.58 802.04 222.56 802.3 220.11 804.63 219.76 805.53 219.25 808.83 220.08 811.12 220.98 814.33 220.46 817.47 219.15 819.93 217.17 822.47 217.4 824.18 218.51 825.57 219.5 828.66 220.28 830.39 219.7 832.51 218.62 833.47 218.97 834.84 218.7 838.01 215.9 839 214.05 837.93 212.47 837.51 211.24 834.81 210.74 832.48 208.88 832.58 207.93 829.9 206.84 828.95 204.9 830.3 203.88 829.45 202.57 829.12 201.12 828.26 199.7 830.92 197.64 833.49 196.68 833.32 194.95 832.18 194.56 831.49 193.18 832.17 191.09 833.79 189.75 833.6 188.47 834.23 186.49 833.76 185.8 832.65 185.94 830.98 184.45 830.31 182.79 830.38 179.12 832.32 178.28 833.25 176.61 834.49 174.79 832.69 171.73 831.19 170.06 829.27 169.33 829.98 166.02 831.35 163.69 833.03 163.08 833.92 161.69 833.32 158.08 831.37 158.02 830.4 159.58 827.71 159.11 826.65 159.32 825.47 159.94 824.81 160.03 823.31 159.37 821.99 157.48 820.51 155.94 817.87 153.01 815.42 149.4 813.5 148.63 811.87 149.18 810.82 148.41 808.48 147.33 807.13 145.63 806.04 145.66 804.34 145.97 802.66 144.62 802.39 143.71 801.44 142.13 800.6 141.71 798.75 141.05 797.89 140.77 795.19 139 794.52 138.58 792.86 138.1 792.27 136.22 791.29 134.72 791.3 132.42 790.68 131.62 789.89 130.61 790.74 129.63 789.1 127.71 787.7 127.14 786.99 126.74 785.61 125.4 784.54 121.89 784.28 120.37 783.52 118.64 782.2 117.19 780.83 116.18 779.29 114.66 778.17 113.09 776.1 111.68 775.09 110.53 773.58 109.77 773.45 109.34 772.68 107.92 771.2 106.79 769.69 106.5 768.41 105.45 766.24 105.47 765.32 104.73 763.97 102.8 761.87 100.12 758.03 98.24 756.76 94.05 755.28 90.79 754.54 89.33 753.33 86.57 750.49 83.53 748.89 81.79 747.06 80.85 745.1 79.35 743.79 78.43 742.5 76.58 740.66 75.75 740.11 73.74 739.53 72.86 738.91 71.03 736.68 69.97 732.81 71.32 731.12 71.34 730.16 69.34 726.95 69.01 726.77 67.49 728.2 65.47 727.11 63.44 725.67 62.81 724.89 60.46 722.78 58.55 721.61 53.65 718.29 52.81 718.17 48.78 716.21 46.95 714.2 44.3 711.98 42.19 711.31 39.41 711.69 36.77 713.59 35.03 713.48 33.99 714.35 32.94 713.55 31.76 713.94 30.98 715.15 29.73 715.79 28.7 717.73 26.41 718.72 24.73 718.64 21.91 720.4 21.22 721.27 19.19 717.92 18.48 717 17.29 713.84 15.44 712.82 14.64 713.39 13.77 712.61 12.45 710.39 10.46 707.79 8.39 707.12 5.82 704.97 3.78 703.95 1 700.3 3.45 697.17 3.49 695.36 2.49 692.82 2.23 691.48 3.39 689.2 5.15 688.43 5.79 686.94 7.19 686.81 9.23 685.77 9.82 684.44 9.63 683.92 10.8 681.13 9.36 676.73 8.83 673.78 8.82 672.34 9.55 671.74 8.1 667.72 7.13 666.21 6.26 665.47 4.71 663.54 3.04 659.91 3.59 657.91 4.49 656.05 4.9 654.46 4.68 652.51 3.44 647.89 4.76 647.98 8.85 646.29 12.59 644.6 14.41 643.13 21.23 640.54 22.93 637.95 28.46 632.31 30.11 630.25 31.04 628.3 31.11 625.21 32.43 622.69 34.13 620.03 35.68 619.75 39.74 618.17 41.38 618.8 42.27 617.85 43.35 617.4 45.91 617.07 48.39 617.45 50.02 616.99 51.13 615.36 52.43 614.6 53.79 614.26 60.27 614.11 60.45 611.96 61.95 610.74 63.19 610.52 63.53 609.19 63.8 606.76 66.73 601.5 67.13 601.18 67.4 598.46 68.43 597.19 70.83 596.27 72.49 593.89 74.46 589.94 75.05 589.16 76.92 588.8 75.19 586.11 74.36 582.85 73.42 580.48 73.52 577.83 72.96 576.07 73.8 573.85 73.37 572.71 73.35 571.54 73.97 569.94 73.69 568.73 74.14 566.89 74.47 564.12 74.51 562.04 76.07 559.43 77.89 557.27 80.14 556.65 79.62 552.58 81.32 549.71 81.95 548.33 83.41 546.47 80.77 545.62 77.41 542.47 76.67 540.47 76.6 538.81 72.5 537.55 70.17 536.55 69.03 536.91 66.08 536.42 66.52 535.48 66.58 532.88 66.33 529.64 67.1 527.88 69.58 526.02 70.97 525.8 71.62 525.06 75.19 523.27 77.53 522.88 78.72 519.38 80.83 517.59 81.68 517.19 82.94 515.59 86.36 515.33 88.66 515.47 90.38 516.45 91.99 520.68 93.72 522.9 97.13 521.91 99.24 522.11 104.83 521.04 107.44 522.91 113.75 522.12 123.33 513.15 125.26 510.7 126.65 509.47 127.43 509.21 128.98 507.9 130.2 507.25 131.2 505.86 132.83 504.5 133.17 503.41 132.72 501.46 131.75 498.26 130.79 497.3 130.74 495.22 134.18 491.93 134.44 489.89 135.53 488.31 136.87 485.28 137.14 484.28 135.01 482.13 133.05 481.01 133.75 479.98 135.4 479.19 139.45 478.12 141.62 476.06 144.37 473.95 144.71 473.25 145.74 469 148.15 465.16 149.02 464.29 149.88 460.38 149.84 459.21 148.79 457.34 146.27 454.3 143.68 452.35 145.76 451.28 147.31 449.77 150.02 448.66 152.73 449.99 154.53 449.76 155.12 450.09 158.43 452.8 160.87 453.35 163.18 451.08 165.27 448.28 165.92 447.82 169.33 440.64 170.32 438.86 171.17 436.22 172.48 434.72 174.79 431.25 179.22 431.53 177.56 427.23 178.3 425.87 179.19 421.54 178.17 419.29 178.92 418.07 180.28 416.98 181.96 416.37 181.84 414.93 182.37 414.2 182.35 412.38 180.64 409.75 180.85 409.01 180.5 407.56 180.82 407.04 180.3 405.71 180.42 404.09 184.39 400.61 190.48 399.97 190.44 397.87 191.04 396.78 190.21 393.08 194.58 386.03 195.28 383.61 202.07 383.61 204.3 384.72 204.91 385.48 208.36 387.45 211.5 389.08 212.61 389.91 213.69 391.2 214.81 391.83 217.24 391.59 218.27 392.3 221.57 393.48 223.41 392.54 224.81 393.15 228.27 395.39 232.06 396.07 233.06 397.82 233.35 399.55 234.94 400.71 237.13 401.65 239.91 404.23 240.35 402.35 243.07 396.22 244.19 394.53 247.78 391.4 250.76 389.23 251.96 388.83 252.56 385.6 254.17 383.96 255.16 383.75 257.29 384.38 262.25 386.92 265.79 389.02 267.97 388.51 271.67 389.23 271.62 387.82 272.24 385.48 273.21 383.6 275.06 380.97 275.65 375.13 277.38 373.7 277.74 369.92 279.56 367.41 279.68 363.93 281.19 358.3 281.33 355.43 282.31 350.1 282.86 349.29 283.98 345.25 287.9 346.79 290 345.83 291.09 345.77 291.64 346.34 293.46 345.25 295.15 344.82 295.32 347.29 298.39 347.94 299.93 347.47 302.2 347.6 303.38 346.19 305.25 346.39 306.44 345.8 307.67 346.51 312.31 346.77 315.05 345.96 318.18 345.75 319.04 345.08 319.38 343.82 320.42 343.06 321.96 343.06 324.14 340.94 325.5 340.48 326.04 339.14 327.27 337.67 327.88 336.1 328.57 335.88 329.58 334.37 330.67 333.59 331.17 332.01 334.15 328.98 334.98 328.3 335.77 324.05 336.75 323.28 337.77 320.61 338.14 320.4 340.31 317.64 341.58 317.22 343.95 314.9 345.91 312.14 346.34 310.02 345.63 308.93 346.59 307.36 346.22 305.82 346.17 304 345.82 302.57 345.08 301.74 346.6 299.24 346.76 296.4 348.1 294.3 347.43 288.16 347.08 286.55 346.07 284.36 346.15 282.58 345.93 280.61 344.92 278.67 343.34 278.34 342.54 277.46 343.61 274.87 343.4 271.92 342.96 269.62 343.09 267.15 342.19 266.14 342.27 261.93 341.26 261.4 338.28 258.37 336.64 257.11 335.89 256.24 335.18 254.7 334.43 254.33 332.23 254.61 329.56 255.19 327.1 253.74 324.91 251.55 324.98 249.23 325.69 246.81 329.35 244.87 332.42 244.15 338.08 244.88 339.73 243.2 340.88 242.8 343.31 242.93 346.22 242.21 347.77 240.34 347.92 239.31 352.48 238.15 354.38 238.18 355.51 237.56 357.58 237.05 358.97 237.1 361.08 235.66 359.55 234.07 359.41 231.63 361.05 229.76 363.17 228.44 365.51 227.99 369.04 224.98 369.86 224.56 370.39 222.8 372.83 222.28 373.56 222.56 376.89 221.96 376.78 220.78 378.28 218.78 378.35 217.71 378.89 216.75 381.03 214.35 380.96 213.85 382.78 211.13 384.12 206.73 385.14 204.68 386.61 202.63 389.34 200.73 390.82 200.44 391.56 200.62 392.76 199.94 395.08 199.56 399.41 200.07 399.17 197.68 399.2 195.88 398.45 193.14 400.2 192.35 399.74 190.51 396.5 187.75 395.86 186.35 394.4 184.35 393.21 182.34 393.13 180.77 393.37 177.79 394.21 175.04 393.69 172.28 394.32 170.44 394.27 169.42 395.42 167.86 394.96 165.3 395.91 164.02 395.95 163.29 394.9 160.64 393.88 158.62 392.5 154.67 392.96 150.77 392.28 149.46 394.17 147.46 393.82 145.11 393.15 144.21 388.31 135.98 386.45 134.7 385.63 133.7 384.08 133.23 383.26 132.4 375.51 131.53 375.03 129.98 373.51 127.69 371.58 125.38 370.96 122.28 369.9 119.36 368.51 116.39 367.72 116.08 365.38 112.25 364.43 111.03 361.94 109.4 361.43 106.54 363.91 103.7 366.91 99.49 369.09 96.7 372.57 98.14 377 101.85 378.64 101.65 381.7 102.33 385.46 103.52 388.76 101.36 389.52 100.01 392.78 96.98 395.67 93.21 399.3 90.36 402.93 88.88 402.34 87.49 402.8 85.08 404.16 81.58 405 77.79 406.28 74.61 406.83 72.56 408.02 70.43 409.57 69.23 412.01 67.71 416.26 64.14 418.41 61.08 420.06 59.13 423.76 58.02 424.58 56.95 428.73 56.71 430.12 57.34 431.91 56.69 434.49 56.5 438.54 56.57 439.78 55.91 441.16 55.73 442.47 54.62 443.99 54.03 445.83 53.04 449.18 52.26 450.73 51.66 453.62 50.88 458.74 50.16 461.38 48.85 461.62 48.14 463.98 46.93 468.09 48.35 471.1 50 473.67 52.44 476.29 53.12 480.33 53.46 485.04 55.15 485.81 54.89 488.19 55.46 492.16 54.14 492.82 53.37 495.89 52.61 497.64 52.86 499.31 53.86 502.17 54.2 506.68 53.98 508.8 53.53 510.41 52.77 511.92 53.34 514.4 54.59 519.52 54.14 524.83 54.09 530.83 52.41 533.82 52.54 538.32 52.26 538.71 50.69 539.51 49.05 538.87 44.66 538.74 42.62 539.87 41.39 540.17 39.48 541.48 38.24 537.81 34.23 535.72 31.47 536.15 29.24 536.84 26.8 537.94 24.8 537.38 22.34 537.32 21.04 537.59 19.14 538.4 17.81 539.71 14.11 539.13 11.73 538.4 9.91 538.18 8.67 539.91 6.97 542.56 6.65 543.84 6.74 545.16 6.22 546.83 4.7 547.55 3.3 550.79 1.51 550.56 2.26 552.86 4.03 554.69 4.45 556.06 4.31 558.64 3.2 560.12 1 561.91 1.15 563.74 2.43 565.64 2.75 568.37 1.83 570.58 2.81 571.77 4.46 572.41 7.36 572.53 9.86 574.27 11.7 575.19 12.98 575.25 13.78 576.2 16.01 576.63 18.35 579.59 19.91 587.65 22.01 591.68 22.06 595.13 22.57 597.93 22.38 600.56 22.75 601.29 23.1 603.51 23.32 604.3 23.15 605.29 23.63 605.96 25.06 605.61 27.55 605.85 28.17 605.79 31.53 603.91 33.72 603.04 35.89 603.03 37.48 602 41.66 602.13 42.74 601.35 44.87 601.64 46.11 601.17 47.83 599.96 49.83 599.16 51.94 599.21 52.74 601.22 53.98 602.48 57.57 600.75 58.33 599.24 59.47 596.82 62.05 593.78 64.46 594.27 66.22 595.54 68.95 597.43 70.64 598.68 70.92 602.24 69.57 603.45 67.18 604.58 66.25 606.59 66.37 608.44 65.25 610.26 64.98 613.3 64.88 613.95 64.33 615.78 64.59 617.06 63.87 617.42 63.03 619.18 62.16 622.53 61.11 624.43 61.09 625.73 61.75 628.53 62.58 630.84 62.86 632.37 64.32 634.69 65.08 636.86 65.56 638.07 65.47 639.12 65.98 639.69 67.06 640.77 68.16 641.07 69.17 642.35 70.58 645.35 71.37 647.15 71.49 647.8 71.24 649.48 72.05 650.5 73.06 652.47 73.95 653.56 73.83 655.16 73.14 657 73.06 658.32 72.68 663.34 73.24 665.59 73.32 Z" id="36650000"/>
</g>
</svg>