<?xml version="1.0"?>
<svg xmlns="http://www.w3.org/2000/svg" version="1.2" baseProfile="tiny" width="800" height="795" viewBox="0 0 800 795" stroke-linecap="round" stroke-linejoin="round">
<g id="sigung">
<path d="M 779.26 261.34 779.82 261.69 778.34 263.1 777.04 263.07 776.52 262.25 778.37 261.18 779.26 261.34 Z M 338.65 224.25 341.76 225.74 341.81 226.19 332.79 221.83 332.95 221.52 338.65 224.25 Z M 368.49 223.63 368.28 223.92 358.37 216.99 358.58 216.72 368.49 223.63 Z M 741.4 19.13 738.92 16 739.31 15.38 741.71 18.6 741.4 19.13 Z M 638.95 782.09 637.46 782.78 633.9 785.95 630.51 788.37 628.46 789.35 626.3 789.55 623.93 791.89 619.82 792.53 618.83 793.08 614.66 794 613.88 792.84 614.14 791.96 610.58 791.34 608.8 788.57 606.41 787.94 604.62 788.6 602.78 787.52 602.21 787.78 599.63 786.82 598.46 787.67 597.08 789.2 595.2 789.57 593.4 788.83 591.18 788.48 590.82 787.46 588.92 786.72 587.65 783.99 586.62 783.67 584.99 784.62 583.15 784.57 581.73 783.58 578.01 779.76 573.89 780.64 572.37 779.71 570.85 779.7 568.33 779 566.84 777.36 565.67 776.58 564.91 774.96 561.41 772.66 560.03 770.01 557.71 766.34 557.17 764.29 554.27 760.9 552.75 757.97 549.77 755.62 547.69 754.97 545.89 753.72 542.13 748.61 538.24 750.17 536.29 752.81 532.17 754.58 531.61 755.94 530.43 756.78 529.06 758.63 527.23 758.94 526.27 758.15 524.86 758.16 523.59 759.13 521.46 759.79 520.04 759.2 516.49 759.42 514.97 758.86 511.16 755.42 510.13 755.54 507.68 758.89 505.73 762.06 504.08 761.84 502.55 763.75 498.73 763.09 495.06 763.06 492.01 762.4 488.67 765.9 486 769.45 483.77 769.82 479.08 769.44 477.42 770.36 475.4 769.64 474.4 768.46 472.65 767.52 470.98 767.09 469.93 767.31 468.49 765.69 465.55 763.31 463.47 763.25 463.28 762.71 464.04 760.64 463.45 759.3 461.5 757.5 460.85 755.15 461.83 754.45 461.9 753.45 460.49 753.17 459.39 751.69 459.49 747.88 458.72 746.5 458.74 744.89 458.14 744.5 458.89 741.61 460.36 738.48 460.74 736.45 459.74 734.96 455.64 736.56 455.3 734.27 453.36 733.58 452.55 732.27 452.63 730.8 453.29 728.65 453.69 726.19 452.01 722.09 450.89 721.26 450.39 719.93 450.41 716.93 452.35 714.37 453.38 712.42 452.68 710.43 451.66 708.94 450.21 707.43 448.85 707.56 446.27 706.75 444.5 706.6 442.86 705.24 441.8 703.41 439.36 701.64 438.07 701.35 436.93 697.11 436.27 695.19 436.18 691.2 435.31 689.13 434.17 687.73 431.61 685.72 431.34 685.05 429.8 683.55 429.8 682.54 428.19 681.44 429.71 677.35 429.65 675.82 429.16 673.93 428.35 672.18 428.23 670.97 426.83 668.65 425.18 668.91 422.61 666.31 420.94 665.91 420.05 667.23 418.01 666.62 416.48 666.87 414.49 666.51 412.05 665.38 409.57 665.85 409.57 664.51 407.93 661.59 407.07 661.25 405.4 661.45 404.38 661.11 404.38 657.59 402.39 655.33 400.65 655.3 398.73 654.91 398.14 653.74 396.89 653.12 393.57 654.24 392.2 653.89 388.43 655.08 386.41 653.93 384.81 658.72 383.14 659.57 383.13 661.42 384.65 661.85 383.88 664.97 385.88 665.23 386.51 667.33 387.2 673.52 383.72 676.28 378.7 674.66 374.87 675.78 374.71 677.06 373.54 677.23 370.22 678.95 369.47 680.09 368.34 683.49 366.07 685.43 366.04 687.44 365.29 690.81 363.65 691.33 363.16 693.22 361.83 695.48 359.26 697.76 358.92 698.62 359.04 700.67 358.1 702.81 358.03 705.66 358.35 707.96 358.81 709.18 361.61 710.89 361.1 711.77 359.51 712.09 358.41 713.85 359.26 715.27 359.45 718.9 357.71 721.6 360.15 723.41 359.93 725.62 360.33 726.71 357.3 730.19 354.64 732.21 353.46 734.25 353.35 735.36 351.58 738.4 347.53 737.51 346.08 737.92 343.23 737.73 341.06 737.16 337.92 740.52 337.27 739.97 335.26 740.17 333.35 738.8 330.58 738.91 328.46 737.17 326.96 739.07 325.12 740.35 325.18 741.63 322.58 742.19 319.58 743.2 317.3 742.98 316.85 742.08 317.8 738.34 316.58 734.53 314.72 733.51 314.31 732.34 314.69 731.2 315.14 728.38 313.51 725.24 310.8 724.43 310.97 722.47 310.03 721.84 308.48 722.91 307.16 722.77 306.45 724.3 305.17 725.18 303.51 725.46 302.75 725.13 301.22 723.04 299 723.17 294.29 722.29 293.82 723.55 291.06 724.88 289.94 724.53 288.91 723.58 285.06 722.66 283.2 721.06 282.37 720.98 281.02 719.78 279.33 718.92 276.13 719.58 268.76 723.37 265.21 726.65 265.27 729.48 264.77 729.73 262.6 729.63 260.29 731.33 257.21 728.64 255.61 728.3 253.18 725.6 251.75 724.78 251.26 722.35 251.5 720.27 249.72 717.91 247.97 720.87 247.06 721.37 244.95 720.23 243.48 721.6 242.24 721.54 239.97 719.66 238.13 719.94 233.4 718.4 232.09 718.56 229.3 719.92 227.83 719.2 227.45 714.65 228.19 713.15 228.22 711.9 229.34 710.11 225.62 707.64 224.51 705.43 220.81 702.29 219.97 697.91 216.15 694.43 217.99 691.09 219.8 689.55 224.15 689.78 227.09 689.56 229.84 689.08 231.86 687.48 231.01 685.99 235.58 684.97 236.59 683.54 236.47 681.03 237.62 681.33 238.38 678.25 238.15 675.84 237.4 672.5 238.03 669.01 241.4 665.65 242.88 664.79 238.43 663.78 237.17 662.44 235.3 660.95 235.92 658.18 234.76 656.01 234.54 652.92 234.68 650.76 234.01 647.54 231.93 646.54 231.95 644.15 227.93 645.89 227.68 647.44 226.5 647.86 226 649.68 223.18 651.11 215.6 648.67 213.26 649.82 211.25 649.22 209.6 645.36 210.41 641.91 209.21 640.26 207.35 639.05 206.71 637.88 205.09 637.35 203.23 634.87 201.85 637.78 202.42 639.15 200.39 643.26 199.91 643.49 199.1 645.22 197.08 646.17 192.86 644.21 184.93 645.98 183.49 644.82 175.95 639.27 173.09 639.15 171.83 636.52 170.69 634.65 170.56 633.18 168.52 632.02 169.1 628.33 170.12 627.91 171.66 625.19 170.73 624.72 169.78 622.99 167.39 621.2 165.85 619.33 164.76 618.43 163.88 616.4 163.83 614.09 164.23 611.23 157.99 608.39 157.18 605.28 159.72 599.57 158.72 598.01 157.6 592.63 157.04 590.56 158.53 588.07 157.78 585.84 158.12 578.4 157.84 572.64 162.57 570.16 160.7 565.41 162.6 561.85 164.04 558.61 164.42 556.93 162.64 552.02 160.35 548.59 160.72 546.93 158.18 546.16 157.84 543.16 154.33 539.62 154.19 536.24 149.91 531.2 146.53 527.95 145.44 524.15 147.43 520.57 151.11 518.15 153.16 514.5 153.13 511.27 152.04 508.73 150.02 506.45 149.57 501.86 147.22 499.06 144.74 498.34 143.63 492.77 141.74 490.72 141.11 489.07 141.32 487.61 139.6 485.1 138.17 484.26 134.94 484.43 129.09 485.37 126.92 482.83 126.42 481.87 127.58 479.92 126.83 478.68 125.13 478.5 125.31 476.8 123.11 476.52 122.14 474.65 119.68 474.59 117.15 473.47 117.21 470.41 112.91 465.76 110.88 461.96 111.57 458.22 113.23 456.31 112.09 451.3 113.43 450.51 114.6 448.53 117.41 448.38 118.69 442.43 119.12 439.3 119.46 438.38 117.41 437.62 115.62 436.15 115.31 434.42 116.59 433.47 116.92 431.83 116.25 430.44 117.78 428.5 117.37 426.56 117.97 424.07 114.4 424.28 111.47 421.81 108.03 420.21 106.27 419.89 105.56 419.22 103.78 415.85 103.51 413.76 102.48 412.47 101.93 408.56 99.41 404.28 98.03 401.08 96.88 397.85 97.51 394.73 97.25 392.21 94.84 389.11 89.05 389.81 86.32 388.1 87.16 385.63 86.48 383.85 84.95 382.07 84.49 379.77 83.44 379.15 82.95 374.91 80.02 370.24 78.96 367.6 76.72 365.17 77.86 360.44 76.8 357.67 74.16 355.73 73.61 354.7 71.7 352.43 70.42 351.41 70.09 348.85 68.57 345 68.12 342.97 67.39 341.98 67.15 339.98 67.71 337.93 68.61 337.15 72.09 335.59 71.27 333.54 73.26 329.95 73.96 326.87 75.06 324.38 75.96 324.23 76.81 322.91 76.77 321.15 75.85 321.27 74.74 319 73.92 318.72 73.22 319.63 72.19 318.32 72.27 317.18 74.65 315.04 73.91 314.42 74.5 313.14 74.36 311.71 74.64 309.8 75.15 308.9 72.2 307.28 66.16 308.61 63.66 309.29 55.67 310.31 52.06 310.28 49.4 310.75 49.37 309.23 45.41 308.23 45.66 307.09 46.73 307.66 48 307.75 52.67 307.44 56.12 306.62 58.77 301.99 59.05 296.37 58.71 290.09 59.26 286.29 55.52 285.38 54.87 284.33 52.82 282.81 51.35 280.67 53.98 276.74 52.88 272.24 54.07 271.33 54.2 268.08 53.62 265.9 51.53 262.95 51.21 260.75 50.49 258.03 48.58 259.76 47.43 258.37 46.34 255.06 46.21 251.11 45.07 250.2 44 249.94 42.8 248.74 43.3 246.12 40.57 245.55 39.91 244.47 40.26 242.71 36.82 240.09 33.71 238.96 33.94 237.13 33.02 235.91 32.9 233.94 31.65 231.1 29.21 230.1 29.26 228.52 24.64 226.92 23.57 225 22.23 224.49 19.09 218.1 17.16 217.87 14.29 219.3 13.04 218.79 10.22 218.45 9.5 217.56 7.01 215.5 5.76 214.08 4.52 211.17 5.47 209.53 3.79 208.08 2.02 207.39 2.18 206.04 1 201.87 3.27 200.25 5.41 197.75 4.55 196.01 5.45 194.16 5.29 191.85 6.75 190.97 7.51 189.18 5.59 186.28 5.08 184.66 5.75 182.79 7.62 180.8 8.64 178.36 9.31 175.81 9.79 168.03 11.42 166.68 12.43 163.83 12.13 163.17 12.48 161.05 14.69 159.51 15.62 155.88 14.26 154.12 16.11 151.95 15.91 150.07 14.9 147.9 15.58 147 18.73 144.86 19.15 142.33 18.45 141.89 17.03 138.05 17.74 135.75 17.38 132.15 15.33 129.98 15.22 127 15.33 122.53 14.79 119.51 11.21 114.81 9.88 114.17 9.51 112.94 7.65 109.78 8.31 109.42 9.18 107 12.8 103.14 13.91 102.24 15.23 99.55 14.3 97.8 14.48 95.33 17.3 95.53 20.39 96.29 21.77 95.44 22.81 95.52 23.11 92.86 25.52 95.08 28.08 94.83 29.13 95.23 30.48 96.58 33.21 94.72 35.82 96.94 37.28 97.92 38.63 97.78 40.98 98.88 44.24 101.68 46.23 104.62 48.16 105.67 50.47 107.51 50.63 109.11 49.96 110.23 51.4 112.41 55.57 114.22 55.49 115.05 56.17 117.44 58.71 120.53 59.35 121.71 62.9 124.51 63.73 125.44 65 127.67 66.29 129.07 66.79 130.54 68.91 131.13 69.33 131.93 71.89 134.24 72.75 137.04 72.74 138.85 74.02 139.2 75.62 142.05 76.62 144.48 77.44 145.46 76.42 148.83 76.27 150.19 77.36 152.42 79.67 153.21 81.09 154.03 84.27 154.93 85.84 154.34 87.13 153.19 90.19 152.55 90.96 153.21 92.57 152.13 93.37 152.19 97.84 150.39 98.61 150.93 98.89 152.69 99.88 153.59 99.89 155.45 101.14 156.47 101.43 158.35 102.79 159.67 104.41 160.6 105.68 160.36 107.15 158.95 108.64 156.92 110.42 156.29 112.95 156.77 114.26 156.53 115.5 157.22 117.35 157.78 118.42 157.38 122.28 157 125.49 156.01 126.65 156.32 128.53 155.56 129.32 154.71 130.84 155.23 133.52 154.58 136.71 154.19 139.17 154.25 140.26 154.65 141.33 154.51 141.93 155.65 144.83 156.56 147.44 157.75 149.41 159.3 149.39 161.01 149.88 162 153.03 163.54 153.87 164.18 154.14 165.85 153.82 169.13 154.21 171.2 155.1 171.84 155.34 175.1 155.74 176.53 156.62 177.13 156.91 179.01 161.15 180.37 162.36 181.64 163.1 184.92 162.2 186.14 159.78 186.23 162.28 192.25 167.54 192.04 166.94 193.12 168.84 195.24 170 195.66 171.22 197.16 171.39 198.06 174.22 198.93 175.43 200.17 175.11 201.92 175.89 204.77 178.76 207.45 178.26 209.93 178.5 211.45 180.13 213.44 182.98 214.91 182.85 216.55 183.17 218.77 182.81 220.15 181.21 221.75 181.53 224.7 180.79 227.38 181.26 227.95 183.08 228.66 183.52 230.03 184.66 229.87 192.22 234.46 188.81 240.03 194.67 243.62 198.09 238.05 201.78 240.32 204.87 235.27 206.53 233.7 207.05 234.02 209.29 230.38 210.77 230.84 211.99 228.79 214.68 224.76 215.77 223.44 217.56 222.82 219.66 221.39 219.58 219.57 219.12 217.86 218.31 213.32 221.36 208.21 219.52 207.02 219.25 206.04 219.92 204.23 221.27 201.79 224.79 200.03 231.49 198.38 232.14 198.12 233.89 198.53 235.01 197.77 236.77 197.37 238.13 195.75 239.88 191.44 241.06 187.48 244.68 182.57 245.74 183.22 246.14 181.96 245.19 181.84 244.76 179.6 243.49 178.44 242.76 176.02 241.14 172.5 241.14 170.25 240.19 169.4 241.19 168.57 241.78 164.26 243.26 151.87 246.59 132.11 247.31 128.42 251.33 129.17 256.65 127.88 259.29 138.81 264.03 137.67 264.62 140.06 260.41 141.09 259.64 142.44 259.9 143.43 258.87 146.09 258.65 149.24 259.41 152.9 260.19 155.15 265.2 167.58 266.83 171.48 269.21 175.84 270.3 176.61 271.47 179.51 276.77 185.14 277.27 185.47 284.22 181.56 284.32 181.71 276.61 186.08 276.4 187.38 283.13 195.72 286.26 193.92 293.99 189.28 295.34 188.13 299.57 184.06 303.99 179.97 303.84 179.73 312.71 171.52 322.68 162.11 326.74 163.33 349.93 171.01 349.94 170.08 323.61 161.29 323.8 161.15 331.54 163.73 350.34 169.9 353.64 170.93 367.1 175.46 367.11 175.82 399.91 186.63 401.63 187.14 402.6 195.82 402.42 196.65 396.1 197.37 385.41 198.33 385.12 198.15 377.8 198.95 377.44 199.16 371.06 199.87 368.1 198.88 367.64 200.24 341.12 191.52 341.35 190.82 339.54 190.21 338.58 191.29 339.35 191.84 335.12 198.05 334.41 197.56 327.67 207.57 328.69 208.23 323.62 215.86 322.73 217.05 322.06 217.1 313.38 219.49 312.44 221.3 308.94 229.41 307.16 228.52 304.36 234.72 305.94 235.75 305.83 236.41 301.44 246.64 301.83 247.46 308.26 251.14 313.65 240.69 323.77 241.57 328 245.38 328.02 246.35 333.8 239.95 338.59 241.01 336.64 243.3 337.2 243.85 335.07 246.25 334.48 245.73 331.3 249.26 339.64 256.83 346.43 249.31 347.05 233.84 353.9 232.88 353.35 247.18 361.85 245.89 362.43 231.54 368.19 230.74 367.66 243.57 376.12 242.32 376.34 241.76 379.3 241.33 379.41 238.2 377.97 237.95 378.46 224.05 380.18 224.07 380.29 220.95 381.65 220.95 381.95 213.56 382.24 212.97 381 248.48 378.77 250.61 362.14 265.17 361.35 266.02 358.43 270.15 360.58 271.68 363.05 268.11 364.04 266.91 367.26 264.08 383.11 250.91 383.18 251.33 371.78 260.69 367.54 264.25 368.71 264.95 369.74 268.94 370.75 271.03 373.4 272.46 377.41 279.41 377.48 280.47 382.7 284.5 383.89 284.69 388.63 287.38 392.02 289.73 395.24 291.66 400.05 293.99 407.01 296.76 409.88 298.24 414.91 300.17 417.52 301.41 425.24 303.91 428.25 304.61 434.84 307.32 435.54 307.95 437.11 308.04 439.07 308.81 440.5 308.89 441.87 309.43 444.72 309.61 446.38 309.37 452.24 309.63 456.19 309.18 458.28 308.25 466.68 304.09 468.28 303.63 468.56 302.64 468.19 301.59 468.68 299.07 469.24 297.38 471.64 294.38 472.09 292.55 472.24 288.58 470.95 287.34 467.29 290.89 467.33 290.25 470.21 287.35 470.6 286.28 469.37 284.57 468.2 281.75 470.1 277.67 472.14 275.13 473.46 271.72 474.81 270.67 478.06 269.85 479.36 269.72 482.61 268.09 483.01 266.18 483.74 266.16 486.3 263.12 488.56 261.94 491.07 258.8 490.57 258.35 492.61 256.14 494.26 256.19 495.38 254.94 498.94 252.5 499.47 251.33 501.67 249.36 506.41 246.3 510.28 244.41 511.62 243 513.07 240.7 514.36 239.32 515.72 238.53 515.92 237.93 517.21 237.66 517.98 237.98 522.22 234.51 527.39 232.88 528.27 232.35 530.22 232.58 532.28 231.33 533.07 230.17 532.84 228.97 534.55 227.59 536.8 228.1 538.46 228.17 540.96 228.68 542.95 228.66 546.35 228.08 548.79 228.26 550.33 227.54 550.82 226.27 550.1 225.35 547.19 223.75 547.67 223.37 550.18 224.83 550.94 225.79 552.17 225.43 554.09 223.63 556.52 222.28 557.44 221.11 558.04 221.57 560.07 220.93 561.61 219.06 563.32 217.83 564.8 216.22 565.25 214.63 566.46 212.76 567.76 211.9 568.51 209.16 567.85 207.54 567.87 205.41 569.84 205.03 571.79 205.41 576.16 204.33 578.09 203.39 580.44 202.56 582.1 201.69 584.95 199.45 585.8 198.45 586.31 196.97 587.37 197.05 588.03 194.78 586.98 192.38 584.27 194.26 584.2 193.73 586.83 191.98 587.4 191.23 587.49 189.77 588.18 187.06 587.96 185.32 586.74 180.48 587.5 178.06 588.88 175.05 588.68 173.33 589.4 172.27 587.71 171.48 584.47 176.54 583.39 176.95 586.99 171.6 586.8 169.65 588.49 165.52 589.47 164.19 590.6 160.62 591.44 159.84 593.16 159.18 594.6 157.9 596.37 155.13 597.53 154.33 599.72 152.07 600.83 151.31 603.13 150.5 604.93 150.25 606.37 148.42 607.93 147.82 610.12 145.9 610.29 145.12 612.86 143.17 614.61 142.39 616.66 140.75 617.55 139.73 618 137.57 619.06 135.58 619 133.44 617.7 132.87 617.47 131.45 619.01 131.53 620.86 130.55 624.28 124.62 625.33 124.38 626.1 123.15 626.85 123 628.72 117.89 629.04 115.81 630.38 114.99 633.06 113.92 634.73 112.51 636.12 110.65 635.76 108.05 637.07 105.68 637.21 104.17 636.17 102.25 636.3 101.5 637.89 100.63 638.44 99.04 640.21 99.57 640.65 98.95 639.78 97.84 638.96 95.95 641.05 93.96 641.86 92.5 643.32 93.39 643.66 92.12 644.45 91.49 645.82 93.72 647.52 93.5 648.41 92.98 649.12 93.76 651.53 94.67 652.64 94.63 654.16 95.81 654.42 96.67 655.99 97.03 658.56 96.08 660.49 94.35 661.91 93.69 663.32 91.17 663.11 89.22 662.07 87.84 662.42 85.85 660.64 84.73 658.84 87.67 658.2 87.46 659.81 84.94 660.18 83.16 659.72 81.53 660.04 80.56 661.55 80.37 662.55 79.73 664.42 79.92 665.35 79.71 668.4 77.32 668.93 76.54 669.19 73.98 669.07 71.57 669.28 70.48 671.57 66.67 672.95 65.63 675.47 66.22 677.09 65.54 678.57 63.79 679.26 61.67 679.86 61.25 680.07 58.86 681.05 56.99 680.72 56.16 680.55 51.62 680.16 50.31 679.67 47.07 680.21 44.75 681.32 42.64 683.72 41.33 684.19 40.5 686.44 38.82 687.94 38.27 689.63 38.38 690.18 37.85 689.79 36.26 690.99 36.01 692.51 33.69 692.9 28.7 693.8 26.74 693.25 23.94 693.24 21.93 692.57 20.03 691.45 18.56 692.37 17.89 693.23 15.55 693.29 13.92 694.3 11.43 694.93 8.3 696.25 5.32 698.9 5.35 702.61 4.69 703.56 5.04 706.45 2.61 706.6 3.2 703.73 5.59 704.66 6.44 705.67 5.55 706.47 6.43 706.44 7.22 708.87 6.66 710.25 4.81 711.91 5.42 714.57 3.35 716.46 2.35 717.75 1 719.35 2.27 721.81 2.34 722.38 2.79 722.78 4.34 724.19 5.5 724.82 6.86 727.41 7.96 727.99 9.36 726.77 12.11 727.36 14.39 728.33 15.46 729.08 15.43 731.13 14.5 732.34 14.27 733.88 14.98 737.57 17.57 736.75 17.81 731.85 14.95 729.31 19.08 729.3 20.2 732.06 22.44 731.8 22.77 735 25.25 735.44 24.76 738.93 24.14 742.38 22.51 744.3 22.31 745.83 22.63 750.51 24.28 753.11 24.96 754.11 24.55 754.9 26.41 755.66 26.9 755.78 28.18 755.21 28.54 755.22 30.57 754.72 31.95 755.14 36.18 756.4 39.44 756.12 41.28 755.75 47.41 754.35 52.18 754.22 53.3 756.01 54.53 754.74 55.12 753.18 55.03 752.5 55.6 752.49 58.14 753.14 59.13 754.73 59.58 755.52 60.36 755.6 57.92 756.82 59.91 755.86 61.13 758.62 63.02 760.9 62.36 762.63 62.99 762.54 63.53 764.75 69.42 765.98 70.97 768.13 71.44 770.04 75.23 770.85 75.28 770.46 78.76 771.73 83 773.34 85.74 774.64 86.64 774.11 88.17 774.7 89.44 776.29 90.37 776.09 92.04 776.5 93.62 776.66 96.26 777.13 96.46 776.72 98.61 777.14 100.26 776.65 102.31 777.78 102.25 777.84 105.92 776.98 107.9 777.5 108.85 778.6 109.56 779.97 109.15 781.13 107.85 782.44 108.16 782.22 109.66 781.19 109.38 779.7 111.43 779.12 112.65 779.06 114.25 777.83 113.9 776.78 114.9 776.98 117.17 778.04 118.42 779.05 117.76 780.87 118.17 782.78 117.35 784.86 118.58 785.29 119.67 786.05 119.41 786.67 120.65 787.65 121.37 788.56 119.67 789.71 119.79 790.4 121.42 793.75 126.55 792.96 127.41 792.41 129.67 790.36 130.09 789.4 131.03 787.87 133.27 786.61 136.57 786.67 137.51 785.73 139.12 785.79 141.22 785.41 142.47 783.97 143.79 782.6 145.54 782.94 146.24 784.65 146.82 784.63 147.45 781.97 146.39 782.02 148.86 782.83 149.92 785.15 151 786.9 150.37 787.59 150.55 787.24 152.53 787.96 153.29 787.94 157.48 786.86 156.94 786.14 157.24 785.85 158.41 784.58 158.88 781.84 158.98 780.7 159.68 779.11 161.35 778.16 164.77 778.11 166.97 778.44 168.16 780.41 170.67 782.41 171.46 784.02 171.61 785.23 170.78 786.63 170.33 789.17 170.03 790.26 171.21 790.78 172.56 791.55 172.56 792.27 174.77 791.44 175.82 791.75 177.77 791.69 179.67 791.03 183.55 788.84 185.02 785.88 185.68 785.34 186.23 782.99 186.38 782.02 187.1 781.61 188.41 779.95 188.8 779.15 191.08 779.63 192.7 779.04 195.61 779.45 196.99 780.49 198.04 781.46 197.88 782.8 198.43 782.62 199.83 783.19 200.73 784.78 201.33 785.44 200.7 786.62 200.7 787.3 201.92 786.42 202.53 786.87 204.31 789.13 205.7 790.38 208.5 791.85 209.35 793.52 210.8 792.96 212.75 793.97 216.79 793.69 217.77 794.13 219.22 797.82 219.35 799 219.73 796.83 221.74 794.17 222.42 795.03 223.49 793.62 223.71 792.74 224.36 791.17 224.81 790.16 225.75 789.83 228.99 791.65 228.97 791.22 230.12 789.78 231.75 787.94 231.88 785.56 233.3 783.06 233.14 783.41 234.59 782.43 235.82 781.53 235.77 780.39 236.63 780.05 238.65 780.62 241.19 780.5 242.58 781.65 243.28 782.71 244.85 782.89 246.28 783.54 247.29 783.45 248.14 780.41 248.36 778.25 249.44 777.77 250.21 779.03 250.95 777.01 251.59 777.67 252.77 777.34 254.73 775.78 257.98 776.33 258.85 775.04 260.9 774.64 265.06 771.51 268.06 771.13 267.54 773.9 264.75 773.35 261.49 771.83 261.52 771.95 262.36 770.67 262.68 769.02 262.53 766.34 263.52 764.57 265.38 763.83 267.28 763.98 269.49 763.57 270.5 764.87 271.88 767.89 270.57 768.18 270.94 765.56 272.28 763.64 272.42 760.33 275.49 759.62 277.63 760.61 279.07 760.04 280.98 758.23 280.8 757.34 280.01 756.04 280.69 754.69 282.07 753.85 283.43 753.15 285.52 752.72 287.99 754.21 289.74 754.06 290.49 755.04 291.27 755.34 292.73 755.08 295.09 754 295.95 755.08 298.25 757.59 300.81 758.49 301.39 757.82 303.24 756.21 306.63 755.36 307.41 752.93 307.18 751.06 305.78 748.05 306.17 744.6 307.89 744.06 308.39 741.78 308.29 740.8 308.52 737.16 312.4 732.12 317.5 732.73 320.73 731.92 320.17 731.52 318.04 730.32 316.77 738.16 308.49 737.08 307.5 736.37 308.38 735.46 307.68 736.14 306.77 732.96 304.31 728.07 305.07 725.91 307.34 727.99 309.35 726.55 310.8 724.9 309.22 718.29 316.12 716.85 321.59 722.69 326.43 722.12 327.11 720.34 325.65 719.81 326.29 721.58 327.76 721.14 329.38 722.1 330.44 724.65 329.43 733.28 325.6 736.88 321.6 739 320.34 739.25 321.32 737.37 322.22 734.05 325.73 733.2 329.59 732.39 330.47 729.3 331.85 728.32 334.51 729.05 336.35 727.45 336.61 725.45 338.53 724.95 338.02 722.38 339.04 724.66 339.66 724.47 340.15 721.44 339.31 718.28 340.14 716.99 342.66 716.45 344.47 716.39 346.84 716.93 349.1 717.53 349.49 717.48 351.09 718.58 352.77 719.22 354.35 720.96 355.48 720.43 356.15 720.11 358.39 720.82 361.1 720.1 360.81 719.48 358.24 718.83 357.5 717.06 358.88 716.46 360.55 717.28 362.1 717.52 363.28 720.08 364.82 721.62 366.35 722.92 369.74 723.75 373.48 724.24 374.57 724.58 376.5 724.22 377.6 721.8 379.34 719.85 380.44 715.58 381.72 711.4 381.88 710.56 382.34 709.22 385.06 709.28 386.46 708.18 386.56 708.54 387.84 707.79 388.51 706.66 390.31 706.72 392.82 708.01 394.46 709.54 394.11 709.82 394.74 711.49 394.43 713.14 395.15 712.04 396.95 713.18 398.03 713.46 400.37 715.02 401.11 715.08 402.33 713.59 403.49 713.17 404.57 711.92 404.6 710.17 406.05 710.02 407.93 708.65 409.22 709 410.21 707.95 410.48 706.61 411.4 705.79 415.31 706.35 415.99 705.27 418.1 705.44 418.99 704.53 420.89 704.9 423.82 705.56 424.87 707.09 426.44 709.19 427.4 709.77 427.31 712.34 429.22 715.36 429.24 716.48 429.48 717.39 429.06 717.86 430.61 716.9 430.77 716.5 429.9 711.46 429.48 710.02 430.41 709.91 431.46 707.97 430.8 706.25 429.18 705.76 429.1 703.68 432.04 703.32 431.59 705.42 428.57 704.45 427.28 702.33 425.54 701.26 426.59 701.27 428.18 700.5 430.93 699.1 429.8 696.65 430.61 697.06 433.93 697.68 434.6 696.83 436.67 695.63 434.88 692.69 434.75 689.56 436.26 688.29 437.71 687.03 440.21 686.57 442.47 686.51 445.6 687.92 446.64 689.36 447.28 688.08 450.27 687.5 450.98 686.16 450.24 684.61 451.32 682 451.81 680.22 453.53 678.59 453.56 677.14 454.87 676.97 456.54 677.83 459.37 674.69 461.7 674.3 462.82 674.34 465.11 675 466.74 675.82 467.8 675.35 469.44 674.58 470.83 673.62 471.36 673.98 472.73 672.05 475.95 671.99 477.02 673.29 477.28 673.71 480.46 672.63 481.49 671.84 481.39 670.82 480.33 669.49 480.17 663.55 483.36 662.69 485.56 662.87 488.13 664.31 491.06 666.16 492.4 667.11 494.2 665.03 495.35 659.69 495.02 657.37 496.4 653.65 496.45 654.3 495.68 657.27 495.73 659.88 493.6 659.53 490.45 656.56 489.54 655.91 488.84 654.16 488.9 653.7 490.36 651.35 489.46 648.62 489.38 645.49 490.38 644.03 491.34 640.29 495.97 638.7 498.64 637.27 501.43 636.48 503.61 635.41 508.26 635.11 510.51 634.91 517.35 635.24 518.04 635.13 521.46 635.54 528.94 635.56 530.96 635.91 532.52 637.47 534.55 639.08 538.46 641.1 539.37 641.09 540.89 643.01 541.73 643.95 540.56 643.28 538.25 643.94 537.82 644.63 540.59 643.41 542.07 645.54 543.6 646.63 543.9 649.35 543.41 650.57 547.01 647.76 548.99 648.18 550.92 647.44 553.51 649 556.01 651.67 556.35 652.96 556.96 654.5 559.42 654.91 562.35 656.29 563.23 656.49 564.45 657.19 565.39 657.85 564.7 659.08 566.27 658.7 567.72 655.95 568.83 655.47 569.99 655.76 572.2 656.69 573.9 659.08 575.35 660.39 573.8 661.25 574.03 661.7 574.96 660.32 577.2 659.86 578.87 660.23 580.4 662.19 579.96 662.15 580.61 660.9 581.27 661.63 582.56 663.32 584.09 665.14 582.89 667.23 582.31 667.12 581.44 669.02 581.43 668.23 582.79 668.16 583.87 669.16 584.54 670.23 584.53 670.48 585.67 670.01 586.62 673.11 586.73 673.93 587.84 673 591.14 675.22 591.88 676.08 590.93 677.34 592.38 676.52 592.92 677.43 593.95 677.82 595.11 677.26 596.29 676.99 598.83 674.47 599.97 672 600.66 671.73 601.54 668.97 601.94 668.78 601.19 666.36 602.74 663.57 603.07 663.42 604.63 662.82 607.02 662.34 606.64 662.78 603.87 661.17 602.74 659.94 603.2 658.4 605.12 657.62 606.49 657.54 607.58 656.07 608.52 655.26 609.46 655.22 610.88 654.6 612.18 654.4 615.18 654.48 617.64 654.99 622.15 654.9 623.27 655.37 625.76 655.53 628.84 656.22 631.41 657.55 633.62 658.66 636.34 660.74 638.41 662.91 639.48 665.99 639.01 667.07 639.38 668.99 641.21 668.5 641.5 666.18 639.58 664.16 639.79 664.94 641.41 664.21 642.21 664.34 643.55 667.47 642.3 666.97 643.22 665.77 643.61 665.39 644.4 665.21 647.24 666.54 648.53 665.16 650.11 664.67 652.18 663.74 652.62 662.64 653.89 662.22 655.18 662.32 656.6 664.45 673.41 663.55 672.99 661.45 656.39 661.43 655.91 659.16 656.19 654.72 654.34 643.74 654.73 642.59 657.5 641.86 657.34 640.93 659.36 640.81 660.71 640.22 661.23 639.82 664.73 640.16 667.62 646.57 667.47 647.01 666.66 648 666.74 648.77 667.66 642.72 667.81 640.22 672.19 639.77 674.39 639.85 678.38 640.41 680.86 641.72 682.68 644.98 685.23 646.72 684.99 648.53 684.08 649.41 684.3 650.96 685.6 651.87 685.6 653.05 684.66 654.12 684.82 654.07 685.9 656.83 688.03 658.54 687.95 661.5 688.51 662.86 688.38 664.83 687.5 666.88 688.51 667.74 689.54 669.6 688.56 669.5 687.65 671.69 687.75 673.2 687.14 673.63 686.01 675.1 687.2 676.7 686.63 679.44 688.52 681.31 688.74 680.24 690.78 679.56 691.24 679.74 692.82 679.37 695.34 679.86 696.23 680.88 696.52 678.96 698.05 678.32 699.4 676.65 700.17 676.12 701.59 673.93 702.5 673.05 703.21 670.34 706.58 669.53 707.38 665.48 709.5 663.03 711.74 661.22 715.71 660.99 718.34 661.68 720.47 663.99 722.38 665.03 721.9 664.14 719.76 664.93 719.81 665.46 721.52 666.95 722.95 666.21 724.23 663.77 724.77 662.93 723.92 661.54 724.44 660.04 725.81 659.51 728.22 659.77 728.91 658.08 731.53 658.05 733.61 656.97 737.59 657.13 739.45 657.79 741.28 658.57 742.36 658.25 743.49 660.02 744.59 658.96 745.95 656.87 745.85 654.34 748.06 652.34 749.15 648.94 749.44 645.49 751.59 644.41 753.06 644.18 755.87 643.22 757.63 643.27 758.86 642.6 759.65 642.11 761.27 642.22 763.08 643.09 765.41 642.59 766.93 642.63 768.07 641.7 769.23 642.17 769.72 642.12 771.06 641.29 771.92 641.02 773.58 639.95 774.22 639.49 775.41 640.25 775.93 639.49 777.33 639.45 778.32 640.22 781.11 638.95 782.09 Z" fill-rule="evenodd" id="37011000"/>
</g>
</svg>