<?xml version="1.0"?>
<svg xmlns="http://www.w3.org/2000/svg" version="1.2" baseProfile="tiny" width="800" height="996" viewBox="0 0 800 996" stroke-linecap="round" stroke-linejoin="round">
<g id="sigung">
<path d="M 780.82 390.77 778.07 393.28 777.42 394 776.53 393.99 775.69 394.44 774.19 395.94 773.74 397.09 772.62 398.28 771.44 398.94 769.77 402.02 767.75 406.88 768.17 407.77 770.48 409.39 771.83 414.36 772.68 418.34 773.2 420.01 774.04 421.86 777.49 427.21 779.6 430.23 783.46 430.28 784.26 430.61 785.65 432.75 787.25 433.54 787.89 435.7 788.52 436.4 789.41 437.98 789.24 439.32 789.6 439.83 791.29 441.19 791.49 441.92 792.38 442.72 793.65 443.13 794.16 444.05 795.47 445.53 796.37 447.31 797.5 447.82 798.17 449.54 797.43 451.6 795.98 452.52 794.94 454.33 795.66 456.37 796.42 459.12 799 461.33 797.84 466.77 796.86 468.1 795.54 473.07 795.79 475.47 792.89 476.69 788.46 477.17 787.44 477.97 785.59 477.57 784.85 478.29 783.6 480.16 783.15 481.51 782.35 482.11 782.1 484.21 780.65 486.36 779.99 488.11 778.61 489.33 777.87 492.74 777.44 492.6 776.08 494.37 774.36 493.21 773.01 492.89 771.89 492.02 769.72 489.02 768.57 487.93 767.27 487.65 765.68 486.01 760.93 485.95 757.64 484.76 754.79 485.28 750.51 483.42 747.56 485.24 745.5 483.54 744.02 483.31 740.74 482.3 739.28 482.1 735.24 482.1 728.87 481.97 728.35 481.47 726.66 481.45 723.88 482.69 720.46 480.8 716.89 477.39 715.43 475.07 713.85 475.5 711.77 475.35 709.02 477.5 707.36 479.12 706.5 479.03 705.19 479.81 703.94 480.77 703.16 482.02 702.88 482.94 701.59 483.67 697.14 481.28 695.54 481.16 693.69 481.74 693.19 482.1 690.6 482.72 687.5 483.02 686.37 482.86 683.99 481.55 683.04 481.64 682.76 480.79 682.24 480.74 681.62 479.99 680.54 479.35 680.02 478.38 679.23 478.57 677.45 478.22 675.8 478.09 673.62 476.54 673 475.33 671.83 474.38 669.34 473.2 667.19 471.49 665.37 470.65 663.21 471.06 661.05 470.89 659.76 471.53 658.48 471.71 658 470.45 656.66 469.51 656.19 469.55 654.34 468.39 653.84 467.75 652.58 467.66 651.72 470.35 650.14 471.19 650.12 471.85 648.89 472.89 645.32 474.14 643.48 477.17 642.39 478.53 641.42 479.43 641.3 480.13 639.77 481.02 637.97 482.96 637 483.16 635.99 482.85 633.48 484.23 632.74 486.6 630.62 487.76 629.17 489.02 626.42 490.77 624.64 490.16 623.14 491.45 620.69 491.76 617.68 490.66 616.62 490.61 615.4 490.86 613.63 490.59 611.65 489.78 610.08 489.76 606.51 488.97 605.99 489.26 604.13 489.25 602.94 489.03 601.34 490.23 600.46 491.36 598.6 492.73 597.48 492.45 598.68 495.69 598.43 496.35 598.77 499.51 598.45 502.59 598.73 504.4 600.33 505.44 601.93 506.21 602.18 507.33 602.07 508.29 602.78 509.9 600.83 512.41 599.69 513.42 601.48 516.67 601.78 517.86 599.98 520.76 599.76 522.41 598.29 523.42 596.75 523.47 595.45 524.01 594.32 523.6 592.7 523.51 591.37 523.1 589.59 524.24 588.4 524.28 585.66 523.02 583.39 520.55 582.21 518.91 580.66 519.69 579.46 519.23 577.96 519.16 576.46 521.05 574.87 522.68 572.24 523.27 571.82 523.67 571.04 523.41 570.05 523.47 569.48 524.2 568.03 524.39 565.48 523.18 564.45 522.95 563.95 521.77 563.08 521.97 561.91 521.23 558.3 520.08 554.12 516.43 553.27 516.33 553.08 515.37 552.29 514.77 550.53 516.08 549.99 516.26 548.57 517.56 546.09 519.04 545.66 520.1 544.1 520.94 542.94 521.96 544.49 524.13 544.55 525.95 545.95 526.86 547.37 527.04 548.19 527.76 548.56 530.65 548.87 531.44 549.78 535.87 549.95 539.08 549.38 540.97 549.64 541.99 550.25 542.63 550.2 543.53 550.6 544.6 549.37 545.93 549.53 549.41 550.26 550.73 550.15 551.72 552.53 554.38 555.64 554.96 556.12 555.76 556.14 557.16 557.46 559.8 557.67 561.34 560.37 563.96 558.88 565.86 558.52 566.56 557.09 566.88 554.93 569.01 554.14 570.57 552.2 570.99 551.04 573.59 551.49 574.85 550.99 577.43 550.08 580.37 549.64 580.68 549.94 581.87 549.78 584.56 549.18 586.04 549.11 587.24 548.47 588.51 548.44 590.34 547.79 592.07 546.14 593.4 547.48 594.74 547.78 596.85 547.39 598.09 549.98 598.92 550.77 599.61 551.32 601.05 552.08 602 553.27 602.93 554.29 604.08 555.97 604.52 555.51 605.08 554.8 606.7 554.27 609.04 555.52 609.96 555.72 612.66 554.42 613.39 554.15 615.11 553.07 616.77 552.76 618.78 551.23 620.42 550.9 622.03 550 623.13 547.3 624.97 545.69 623.67 540.3 624.5 538.49 625 535.95 625.37 534.27 625.75 531.67 626.14 530.43 629.56 531.55 631.73 531.42 636.02 529.61 638.38 529.34 640.53 528.75 642.37 528.85 644.26 528.37 645.66 529.87 648.55 524.55 648.29 521.55 651.33 520.35 651.14 519.26 653.01 519.7 655.94 519.29 657.13 518.19 658.8 517.87 659.92 518.86 660.47 519.02 661.07 519.89 662.39 521.08 665.57 521.8 667.08 523.12 668.1 523.26 669.05 522.59 669.63 522.4 670.62 521.83 670.93 519.68 675 518.39 675.35 515.98 676.74 514.21 677.95 512.7 678.17 509.55 678.06 508.81 679.51 505.62 681.11 504.29 681.37 503.76 683.45 503 684.39 502.06 683.09 499.04 682.18 498.41 682.89 497.88 682.66 497.83 684.15 498.8 684.73 497.89 686.34 497.36 686.09 496.66 686.61 495.64 686.4 494.24 686.71 492.96 687.22 491.31 688.38 489.77 690.32 489.66 691.35 487.69 691.84 485.63 692.91 484.65 693.12 484.29 692.12 483.36 691.34 483.58 690.24 480.87 689.53 478.87 689.7 477.18 688.37 475.82 687.85 473.46 688.17 470.16 686.65 468.18 684.99 466.95 685.72 466.13 685.46 465.78 686.06 464.13 687.13 463.46 687.84 462.55 687.99 461.73 688.74 461.2 688.69 460.06 690.37 458.36 691.86 457.18 690.85 455.98 690.25 455.18 688.94 452.08 686.07 451.84 685.15 450.07 683.98 447.83 680.88 446.34 679.6 444.27 679.74 443.1 681.01 441.4 681.87 440.61 682.55 440.27 683.64 439.37 684.72 439.45 685.99 438.64 688.07 438.41 689.36 437.62 690.05 436.94 691.4 436.11 691.96 435.84 692.54 435.06 692.93 432.87 694.93 429.08 697.39 428.34 697.71 427.57 697 426.48 697.22 425.43 697.93 425.45 698.52 424.89 699.32 424.5 700.79 422.12 700.81 420.72 700.58 419.78 702.61 418.72 702.62 417.39 702.94 416.82 701.96 416.23 702.14 415.83 702.99 415.89 704.05 415.17 705.11 415.13 705.78 412.43 708.39 411.88 709.72 410.17 710.44 409.52 711.26 408.44 712.09 407.31 712.6 405.99 714.45 405.31 716.62 405.7 718.55 405.18 719.29 404.49 720.92 403.07 721.73 402.75 723.91 403.25 725.7 403.28 726.91 403.63 727.99 404.7 728.83 404.57 729.32 404.96 730.58 404.96 731.65 403.98 733.92 404.82 735.14 404.85 736.27 405.18 736.98 406.7 738.61 406.48 739.57 407.05 741.51 407.23 743.18 406.03 744.76 406.05 745.64 405.44 747.48 404.69 748.43 405.63 750.39 405.62 750.92 406.81 752.41 406.89 753.15 407.73 753.84 407.53 754.97 407.86 756.48 408.46 757.61 407.56 758.73 406.48 759.53 407.38 762.23 407.06 765.21 407.36 765.69 404.75 767.34 403.73 769.27 403.47 770.49 403.64 771.12 403.07 772.98 403.18 773.47 402.52 775.11 402.46 776.68 403.13 779.75 402.82 780.81 402 781.06 400.51 780.88 399.76 780.19 399.56 779.14 396.6 781.34 394.96 779.6 393.44 778.54 392.77 777.21 391.78 776.48 390.69 776.27 389.89 775.38 389.81 773.6 388.49 772.3 387.77 770.56 386.66 769.22 385.69 767.16 385.36 765.89 382.32 766.45 378.48 767.73 376.04 765.21 375.25 764.02 374.76 763.75 374.12 761.77 373.84 760.17 373.32 759.44 373.44 758.13 373.77 757.49 373.33 755.82 372.75 755 372.69 754.05 371.85 752.96 370.61 752.58 370.54 750.7 371.29 749.23 372.02 747.19 371.66 746.65 370.18 745.55 368.88 746.36 367.73 745.28 365.75 744.1 365.02 743.48 364.07 744.04 363.65 744.64 361.61 744.3 360.87 744.48 357.92 742.65 357.62 742.15 356.24 741.78 355.4 741.23 354.77 741.2 352.65 738.85 351.47 738.47 350.23 737.11 349.27 737.02 347.7 735.93 346.17 735.71 345.66 734.94 344.32 734.3 343.63 734.4 342.24 733.6 341.25 733.9 340.39 734.99 340.12 735.79 338.02 737 337.98 737.86 337.43 739.21 336.58 739.37 335.54 740.63 333.33 741.13 332.3 742.27 331.64 743.53 330.24 744.24 329.67 745.42 328.29 746.13 328.69 748.77 328.27 750.12 327.6 750.64 327.54 751.57 327.11 752.6 325.91 753.14 325.1 754.01 324.64 755.29 325.46 757.11 325 758.2 325.41 760.15 325.95 761.04 326.02 762.83 326.69 763.51 324.94 765.23 325.83 767.8 325.67 768.75 326.53 770.28 327.03 771.69 328.51 771.85 329.36 773.37 332.37 773.89 332.53 774.64 331.61 777.32 330.67 779.08 329.97 779 329.27 780.96 329.39 782.19 328.79 782.42 328.52 783.7 328.76 784.17 329.77 784.75 331.44 786.48 332.08 786.68 333.61 787.7 334.29 788.91 336.09 790.15 340.13 793.87 340.81 794.9 341.14 796.05 341.7 796.65 342.24 797.82 341.66 799.64 342.06 800.94 341.75 801.33 341.4 802.81 344.1 807.42 345.23 807.6 346.28 807.42 351.65 812.97 350.55 813.5 349.83 814.21 348.58 816.86 346.51 817.95 344.11 818.22 343.38 820.1 345.41 825.44 348.5 828 352.17 829.55 356.45 833.05 357.68 835.05 362.92 839.29 362.7 842.04 361.92 844.74 362.68 845.79 363.09 848.07 361.21 855.41 365.55 860.29 367.37 862.72 367.97 866.79 368.85 869.98 369.39 872.97 370.48 874.14 370.24 874.98 371.64 877.25 374.21 878.09 376.46 879.18 378.91 880.94 380.21 882.9 383.3 886.36 386.2 888.62 388.85 891.54 393.32 892.97 396.98 892.61 401.69 893.09 400.04 896.99 398.51 899.68 395.13 902.07 391.15 909.3 388.75 911.42 386.51 914.5 384.59 917.73 381.25 919.02 382.83 921.87 382.87 926.49 382.43 929.3 382.72 932.59 381.4 935.86 380.11 936.76 379.84 939.67 378.64 942.48 377.86 943.18 377.23 943.31 376.8 943.97 376.7 945.63 377.28 946.83 377.46 948.8 382.37 957.56 383.55 958.66 383.87 959.28 384.68 959.58 384.96 960.12 385.38 962.3 384.97 962.61 384.52 964.97 384.94 966.85 384.69 968.93 382.04 969.43 378.77 970.61 377.61 970.08 376.78 968.74 374.91 968.75 373.78 967.99 372.61 966.49 370.4 965.52 368.85 967.69 367.88 967.96 363.16 971.32 361.04 973.78 360.04 974 359.28 974.98 356.72 976.57 356.1 977.79 356.08 978.43 355.16 980.74 353.86 981.53 352.42 981.61 351.1 982.56 349.89 983.09 346.65 983.39 344.41 982.34 342.52 981.62 341.53 983.13 340.26 983.4 339.59 983.97 339.21 986.28 338.69 986.97 338.26 989.22 337.81 990.1 337.16 990.62 336.59 992.02 334.22 991.88 332.82 991.36 329.58 991.4 328.82 991.11 324.61 988.84 321.09 988.96 319.82 987.82 318.34 987.35 315.62 985.17 313.59 984.25 311.65 982.66 307.49 981.41 305.68 981.03 303.25 979.9 302.1 979.72 299.66 979.7 298.46 979.27 295.31 979.15 294.27 979.89 293.19 979.64 291.25 980.98 290.63 981.69 289.9 981.77 287.6 984.29 286.93 984.83 285.02 985.56 283.68 985.18 281.38 985.3 279.99 984.23 277.65 984.92 277.04 985.48 275.28 986.07 272.3 986.61 270.61 988.23 268.89 989.28 267.57 989.89 266.23 991.75 263.88 992.17 262.44 992.8 261.62 995 260.55 994.68 258.84 993.82 256.29 992.17 254.37 990.79 253.06 988.52 252.2 985.6 251.58 984.65 250.41 983.56 248.88 983.28 248.29 982.38 247.32 981.97 246.91 980.86 245.66 980.85 244.69 980.25 243.43 980.19 242.58 979.46 237.64 978.53 236.33 977.46 235.51 977.52 233.62 976.55 232.63 975.2 232.37 974.33 232.29 972.7 231.68 970.73 231.52 969.68 230.37 968.41 229.19 967.87 228.45 966.52 226.93 965.02 226.68 964.14 225.78 962.5 225.04 962.54 223.6 959.58 221.7 956.37 221.96 954.42 221.09 953.11 220.83 952.02 219.02 950.74 218.65 949.71 217.81 948.77 215.16 944.55 214.54 944.2 213.53 942.27 213.5 937.88 212.45 936.21 211.2 935.27 210.34 932.72 209.35 930.96 209.12 929.25 207.91 929 206.14 928.88 205.29 928.13 204.44 926.78 201.55 928.92 200.26 930.33 197.19 933.99 195.09 937.01 194.42 938.66 193.24 939.72 192.63 940.61 189.99 942.32 188.5 942.38 186.38 942.14 184.58 941.75 183.22 940.83 181.53 940.01 179.79 938.09 176.32 935.77 172.28 935.88 169.9 935.44 168.42 934.9 167.64 933.76 165.99 932.91 165.73 929.66 164.93 928.95 164.01 925.82 164.07 924.76 162.83 923.57 160.4 923.51 158.82 923.83 157.17 922.88 156.23 923.12 154.76 922.51 152.66 922.94 151.06 922.58 150.08 922.88 149.18 921.81 147.6 921.79 146.91 920.63 144.9 920.6 142.18 924.7 139.18 925.16 138.28 927.19 136.86 928.84 136.19 931.04 135.5 931.62 134.95 934.01 133.75 934.8 132.97 935.63 130.26 937.19 127.47 936.66 123.63 935.8 121.55 935.67 119.53 936.92 118.08 937.33 116.94 936.39 116.18 936.09 115.05 936.23 113.53 935.52 112.95 934.7 110.88 934.28 109.36 934.38 107.85 933.17 105.12 933.27 103.77 934.31 99.29 934.99 98.81 933.09 99.28 931.85 101.9 928.48 102.89 928.47 103.53 929.34 104.51 929.56 105.76 929.43 107.12 928.57 107.84 927.56 109.66 927.13 109.95 926.39 110.71 925.54 110.59 923.35 110.81 922.3 110.74 921.04 110.3 920.59 111.25 919.06 111.75 918.98 112.65 917.2 112.67 915.87 113.06 914.96 112.25 913.12 112.35 912.14 111.23 910.44 111.38 909.42 110.4 908.37 110.2 906.3 109.76 906.15 108.43 904.89 107.11 904.69 105.83 902.13 105.36 902.02 104.63 900.95 104.55 900.23 104.93 898.84 105.89 897.25 105.96 896.42 105.43 895.65 105.55 894.71 106.27 894.24 106.63 893.17 106 892.11 105.21 891.61 105.17 890.67 105.75 889.83 105.15 889.52 104.56 888.23 104.24 886.89 103.78 886.13 104.35 884.03 106.66 883.26 107.05 882.81 107.13 881.8 105.3 879.97 105.27 879.21 104.63 878.54 104.39 877.19 103.42 876.56 103.04 875.75 101.41 875.22 99.24 875.89 98.59 875.53 98.19 874.38 97.03 874.52 95.99 874.07 95.42 874.22 94.41 873.42 93.73 873.58 93.23 872.81 93.03 871.02 92.79 870.82 91.86 868.05 91.56 865.93 90.53 863.98 89.59 862.89 87.4 858.48 85.94 856.94 84.87 854.88 85.2 852.41 87.2 850.13 87.73 848.55 86.67 848.41 85.13 849.15 81.94 850.97 80.8 851.19 79.83 850.9 79.12 852.21 77.8 853.24 76.61 853.75 76.09 854.33 74.63 854.14 72.82 854.77 72.64 856.25 70.42 856.49 67.5 856.23 64.16 857.37 62.63 857.64 60.89 856.38 59.9 854.95 57.94 854.63 55.28 854.47 54.51 855.17 54.19 857.82 53.09 858.99 52.28 861.7 49.57 862.69 48.65 861.37 47.38 861.38 46.48 861.15 44.79 861.57 43.36 861.61 40.86 862.17 39.35 863.31 37.97 863.59 37.25 862.94 34.6 859.38 33.47 857.7 33.36 856.69 32.8 855.44 30.31 853.72 27.94 850.86 26.46 850.33 25.44 850.2 24.61 849.2 23.32 849.4 21.42 849.17 20.93 845.99 21.86 843.97 20.65 843.88 20.43 842.92 20.88 841.51 21.05 839.81 20.68 838.17 18.13 837.52 17.44 835.51 17.88 834.7 19.37 833.38 19.45 832.15 19.81 830.25 18.14 828.37 16.34 825.95 17.8 821.36 18.05 819.76 20.95 815.7 21.47 811.33 21.59 811.08 22.58 808.63 22.86 808.29 26.8 805.36 26.68 802.82 27.24 799.98 27.14 798.7 22.65 795.27 20.15 793.08 16.64 788.87 16.39 788.34 16.01 786.11 17.04 784.48 17.67 781.95 18.61 776.03 17.79 774.65 17.31 772.97 16 770.27 16.16 769.76 15.89 766.63 17.69 764.01 21.61 761 23.04 760.34 26.31 759.88 27.92 760 30.33 759.64 32.08 759.15 33.84 758.45 35.33 757.39 36.62 756.69 39.32 754.58 41.03 754.15 41.54 753.43 42.66 750.62 43.95 748.96 47.11 746.23 48.96 745.58 50.25 744.26 52.75 743.22 54.41 741.97 56.92 740.47 59.21 739.62 59.75 739.55 60.89 738.78 63.62 738.18 64.7 737.43 65.12 736.82 64.7 734.88 64.4 734.28 63.92 731.71 64.41 730.17 66.68 728.65 67.89 726.81 68.2 725.56 68.84 723.96 69.06 722.73 69.79 720.84 70.17 719.27 69.72 718.42 68.37 716.85 68.31 716.14 67.7 714.56 63.33 712.41 62.25 711.55 60.9 709 60.11 708.23 59.23 708.43 56.14 708.07 55.42 706.88 55.14 704.6 55.18 702.95 52.93 701.59 52.57 700.1 52 698.78 52.26 697.38 52.09 696.67 52.4 695.19 52.38 694.26 51.62 693.05 51.28 690.91 50.87 690.46 48.76 689.29 48.56 688.05 48.19 687.64 48.49 685.65 48.92 684.51 49.01 681.79 48.87 680.58 49.16 679.9 48.73 679.34 47.65 676.17 45.54 674.73 44.34 671.79 44.2 670.44 43.7 669.69 41.68 667.81 41.33 667.05 41.38 665.4 41.69 664.2 42.51 662.09 42.26 661.29 42.35 658.56 42.24 657.64 41.36 653.78 40.96 653.22 39.03 652.04 36.85 652.01 35.92 651.72 33.86 651.77 32.14 651.23 31.6 650.5 28.66 649.28 29.27 646.26 30.84 644.38 31.25 643.23 32.22 641.73 32.52 640.83 33.36 640.28 34.93 638.51 36.01 637.92 37.09 637.72 37.08 635.88 36.56 634.82 35.63 633.63 35.29 632.77 33.67 631.8 33.12 631 31.7 630.43 29.95 628.76 26.63 625.19 24.88 624.05 23.47 622.52 22.98 620.78 22.46 620.31 19.58 619.8 17.9 619.65 16.92 619.14 15.4 617.49 13.23 616.56 12.34 615.88 9.74 616.1 8.17 614.18 5.49 612.6 4.64 611.79 2.82 610.46 1.8 609.54 1.98 608.85 2.45 604.42 2.68 603.37 3.3 602.16 5.14 600.84 6.94 600.16 7.3 599.22 7.6 596.75 6.63 592.3 6.71 590.51 6.22 587.96 5.23 587.17 4.1 586.8 3.27 585.62 1.94 581.92 1.91 580.96 2.31 578.32 2.02 575.72 2.33 573.75 2.01 570.12 1.31 568.3 1 565.78 1.32 562.84 2.02 561.05 2.16 559.73 2.08 558.35 2.79 557.01 2.93 553.86 3.61 552.01 3.68 550.58 3.71 550.13 4.67 548.49 10.78 544.19 12.72 541.95 16.11 537.65 15.91 534.55 15.99 527.78 18.31 525.72 18.71 525.22 18.53 519.56 21.09 519.94 22.25 521.33 23.59 522.28 25.51 521.9 28.15 519.85 31.14 519.11 33.74 516.61 35.38 515.35 38.48 516.02 40.52 516.16 41.64 515.99 42.29 514.41 46 513.81 47.55 513.19 51.96 511.83 52.58 511.22 52.51 509.35 53.04 508.47 53.13 505.18 53.63 504.33 53.37 503.28 53.4 501.84 54.2 500.6 56.46 498.18 56.92 496.94 56.7 495.96 57.53 495.51 58.22 494.28 61.63 491.19 61.65 490.47 62.56 489.32 63.73 487.25 64.33 486.54 65.22 486.02 66.22 485.03 66.82 484.88 68.79 485.43 69.89 484.23 71.21 483.5 72.73 481.31 75.11 479.07 75.71 478.07 77.22 476.13 78.62 477.21 79.54 477.11 81.26 477.57 83.33 477.85 85.19 476.9 87.69 477.9 89.34 478.87 91.49 479.55 93.88 479.71 96.06 482.11 98.63 483.39 99.37 484.38 99.23 484.94 100.24 485.95 102.4 487.17 103.29 487.48 105.07 486.54 106.65 485.51 107.61 484.57 108.01 485.02 109.41 484.26 110.74 483.86 112.62 483.56 114.72 483.59 116.89 481.8 118.36 480.9 119.29 479.85 120.42 479.14 123.21 476.49 124.49 475.08 128.76 471.52 131.27 470.24 132.7 469.78 134.23 469.66 135.02 469.31 135.49 468.14 135.9 465.96 138.7 464.01 140.03 463.39 141.7 460.43 141.95 459.19 142.8 457.04 143.76 455.91 144.31 454.06 143.82 451.84 144.92 450.85 145.54 449.49 146.6 448.09 148.69 445.89 154.55 441.3 156.36 440.69 160.38 438.68 160.66 437.5 160.4 436.36 160.65 434.42 160.91 433.67 160.87 432.61 160.47 430.26 162.04 426.01 162.03 422.89 161.54 422.22 160.69 420.17 160.29 417.2 161.13 415.52 161.63 409.48 160.43 409.12 160.63 407.43 159.89 404.95 159.96 403.41 157.16 402.54 155.96 399.02 155.77 394.66 155.43 393 155.61 391.26 157.51 387.77 157.65 382.89 159.64 382.78 162.38 381.5 166.85 380.4 167.57 376.59 167.26 373.31 170.53 369.49 172.84 365.8 174.28 362.83 174.8 360.02 172.96 353.96 172.81 353.26 168.65 347.52 168.12 345.5 168.65 343.38 168.58 342.66 167.52 340.51 170.28 334.58 169.91 331.24 170.48 329.71 170.39 328.4 172.1 325.73 175.21 322.74 175.72 322.05 176.61 319.51 179.18 319.54 179.53 319.33 181.88 319.5 184.3 318.49 187.65 317.74 189.59 316.57 189.63 315.6 190.53 314.88 191.06 313.49 192.35 311.67 196.66 311.31 202.54 305.83 207.76 304.96 209.47 303.17 209.66 302.02 210.7 299.6 210.57 298.9 209.53 297.97 209.32 297.36 209.96 296.62 210.4 295 211.38 294.29 211.05 291.32 210.13 289.77 210.24 288.7 209.72 287.04 209.25 286.35 209.18 285.46 208.48 284.88 208.52 282.55 209.6 281.24 209.36 279.93 208.43 278.25 208.55 277.49 208.21 276.66 208.25 275.35 209.35 273.89 209.4 272.09 210.8 269.42 211.71 268.17 209.46 265.84 209.34 264.16 208.95 262.43 209.09 261.95 208.47 260.31 208.91 259.44 210.04 258.27 212.02 257.08 212.77 256.47 214.7 253.9 214.64 253.22 213.98 252.01 214.53 250.92 215.88 250.34 216.7 250.52 217.16 249.88 218.42 250.24 219.41 249.86 219.38 248.35 221.46 247.02 222.47 246.93 223.94 244.74 224.62 244.24 226.48 241.47 225.59 239.76 224.27 238.47 222.77 237.57 221.98 236.88 219.24 236.94 219.09 236.21 217.95 235.23 216.77 235.38 214.8 234.77 213.81 233.73 213.87 232.48 213.73 229.29 213.38 228.41 213.05 226.71 213.18 225.81 212.82 225.22 213.1 224.39 212.07 223.44 211.99 222.54 212.41 221.37 212.16 220.04 213.09 218.05 211.37 217.59 210.24 216.9 209.31 216.76 208.29 216.1 207.69 216.27 206.27 214.82 206.21 213.17 204.2 211.95 203.84 211.13 202.61 210.77 201.73 209.37 199.46 208.47 199.46 207.31 198.78 206.9 198.61 204.86 198.3 203.18 199.2 200.67 199.48 198.83 198.74 197.48 199.84 196.44 200.54 194.74 201.38 191.98 201.1 190.81 201.47 189.31 198.94 189.25 197.73 187.8 196.22 187.15 195.99 185.97 195.28 185.15 195.22 183.73 194.27 182.18 194.33 181.41 193.97 179.05 193.06 178.77 192.07 178.05 191.5 176.79 191.3 175.82 189.93 174.65 188.41 172.96 187.34 170.9 186.37 170.45 186.47 169.36 185.82 168.8 185.4 167.76 184.77 167.45 186.32 165.8 186.86 160.04 186.41 157.4 188.5 156.74 191.05 154.64 194.13 150.12 195.05 149.37 195.56 148.48 198.4 147.47 195.56 147.53 193.14 148.38 192.04 146.92 190.59 145.76 189.55 143.39 191.88 142.55 194.07 142.2 195.73 141.2 196.45 141.06 197.78 140.2 198.08 139.5 199.13 139.32 200.89 137.75 201.57 136.18 202.31 135.77 203.35 136.28 205.09 136.38 207.31 136.93 208.68 137.99 209.7 137.96 209.73 139.34 210.48 139.81 213.68 139.56 215.76 139.28 217.63 138.66 218.2 136.6 217.89 136.46 217.73 135.16 218.03 134.45 219.39 133.12 220.2 132.7 220.13 131.94 220.7 129.96 220.74 128.99 221.62 127.95 222.21 127.77 222.4 126.86 222.86 126.39 224.23 125.79 224.43 125.14 225.83 124.35 226.7 124.31 227.29 123.11 227.6 121.78 228.19 121.39 230.59 122.61 232.7 122.38 233.75 121.88 235.25 122.05 235.67 120.93 236.13 120.7 238.07 121.59 239.08 121.78 242.41 121.58 245.11 119.7 246.34 118.45 248.69 116.8 250.86 117.73 251.89 117.74 252.88 118.35 254.87 117.34 255.73 117.27 256.81 118.18 259.43 119.01 260.45 118.22 261.95 118.21 262.83 118.6 263.3 119.62 264.46 119.2 266.12 119.61 267.78 119.72 268.88 120.27 270.11 120.46 272.82 122.18 274.68 122.72 275.52 122.78 275.92 123.71 278.72 125.19 279.28 125.7 280.49 126.1 280.57 126.66 281.47 127.4 281.83 128.77 282.68 130.51 282.61 131.63 283.07 132.16 286.03 132.42 287.54 133.27 288.25 133.18 288.7 134.28 290.04 135.63 290.11 137.24 290.89 137.54 291.92 137.32 292.95 137.53 294.09 138.93 294.98 139.64 295.87 141.82 296.2 141.85 297.76 143.07 298.58 143.09 299.4 145.85 299.27 146.59 300.79 147.29 301.27 148.56 302 149.36 302.69 150.96 303.13 151.33 304.63 150.1 305.73 150.66 307.14 150.2 308.62 148.48 310.07 145.78 310.67 145.99 311.24 146.96 312.83 147.22 314.02 147.09 315.79 146.32 316.48 145.31 317.45 145.24 318.79 143.27 319.7 141.58 320.49 140.86 321.83 140.06 322.74 140.2 324.12 139.8 324.94 139.11 325.57 137.94 327.39 137.22 328.34 136.17 329.68 135.66 330.72 136.45 333.26 136.46 334.55 135 338.06 135.6 339.48 134.58 338.9 132.62 337.48 132.9 337.12 132.64 335.94 132.68 335.05 131.7 333.43 130.55 330.16 126.91 329.44 126.49 328.24 126.24 327.56 125.81 325.6 123.76 325.1 122.33 324.84 120.8 325.22 119.68 324.46 118.57 323.74 116.29 323.37 114.39 322.79 112.85 323.01 111.9 323.69 111.08 323.89 109.25 323.73 108.48 324.26 107.77 323.54 106.56 323.66 105.29 324.49 103.7 324.26 102.99 324.42 100.9 324.02 99.61 322.81 99.3 319.33 100.4 316.66 99.23 316.24 99.42 314.72 98.63 313.01 98.4 310.53 97.49 309.27 97.26 308.27 95.4 307.67 95.14 307.48 93.59 306.6 92.24 305.94 91.6 305.49 89.56 305.05 89.48 304.09 88.56 303.12 86.63 303.34 84.97 304.86 83.52 304.63 82.13 305.8 80.83 305.28 80.07 303.94 78.8 303.52 76.45 303.62 74.67 304.06 73.84 303.53 72.38 303.6 71.63 302.74 70.65 301.81 70.42 301.19 69.69 299.67 69.64 298.86 69.27 298.36 67.68 298.54 65.85 296.98 64.83 295.94 62.58 295.4 62.12 294.26 62.07 293.52 61.71 292.83 60.86 291.85 60.12 291.78 58.98 291.37 58 291.38 56.52 290.13 54.69 288.94 53.83 289.22 52.16 288.14 50.87 287.98 48.82 287.49 47.8 287.19 46.31 286.07 46.37 285.66 45.64 287.78 43.5 288.33 43.51 290.04 42.1 290.88 41.83 291.73 41.96 292.69 41.55 292.45 40.71 293.23 40.21 294.51 38.93 295.18 37.99 296.34 37.56 296.54 37.02 296.34 35.29 296.6 34.74 296.42 32.51 295.97 31.42 297.27 30.42 300.02 27.82 300.88 26.19 301.36 24.6 301.33 23.89 302.05 23.12 302.44 21.64 303.24 20.13 303.9 19.36 304.75 17.71 309.26 17.01 314.42 17.9 314.97 17.38 316.34 18.27 316.51 20.5 316.78 21.07 316.09 21.98 315.88 23 316.85 24.79 317.47 25.29 318.02 28.22 320.89 31.73 322.19 32.57 322.39 34.02 323.95 35.45 325.45 35.54 327.72 35.1 329.25 35.96 330.13 35.86 331.22 36.26 332.09 36.02 336.84 36.81 337.15 35.1 339.92 33.1 341.39 32.57 342.65 32.49 343.42 31.03 343.56 29.65 344.53 30.02 349.58 33.04 350.59 33.73 350.9 34.48 352.45 35.79 352.57 36.6 354.38 38.26 355.38 38.36 357.62 38.02 360.15 38.09 360.83 38.26 362.09 37.39 365.51 38.36 366.58 39.67 367.84 40.49 368.77 40.44 369.37 39.66 370.36 39.64 372.56 40.35 374.05 41.59 375.96 40.32 377.26 40.22 377.73 38.96 378.7 38.84 377.98 37.33 378.77 35.62 378.93 34.81 381.24 33.27 381.61 32.51 383.01 31.85 383.9 30.78 384.72 28.76 385.19 28.06 385.8 26.06 386.27 25.86 388.49 27.06 389.38 26.78 390.22 25.73 391.96 24.69 392.63 23.83 393.66 23.36 393.87 22.1 394.85 21.16 395.74 19.25 395.4 17.13 397.15 15.81 399.27 14.59 400.4 12.71 402 15.34 402.77 16.37 405.48 16.35 406.83 16.99 407.57 16.67 410.23 15.97 410.78 17.17 411.7 18.28 413.08 19.49 414.06 21.09 414.63 22.93 415.68 23.3 416.1 24.43 415.91 25.51 416.9 27.39 417.05 28.57 417.91 29.65 418.87 30.05 420 31.45 419.71 32.4 420.76 34.67 420.8 36.21 421.91 37.44 423.6 38.23 424.75 40.28 426.62 42.08 428.92 42.99 431.06 44.18 431.89 44.01 432.26 44.58 431.79 47.85 432.53 48.72 433.23 50.6 435.52 50.22 437.36 48.22 439.21 47.55 440.1 46.84 440.47 44.94 441.55 43.7 442.28 43.46 442.39 42.55 443.47 40.95 445.33 39.97 446.31 38.73 448.42 38.63 449.38 38.3 449.82 37.78 451.02 37.54 452.55 36.76 452.82 35.82 453.52 34.62 453.78 33.51 454.7 32.9 455.56 30.79 455.52 30.51 456.67 29.42 455.82 27.89 455.6 26.85 453.52 23.7 453.63 21.57 453.17 20.35 453.87 18.08 454.58 17.44 454.73 16.4 455.91 15.83 454.53 13.85 454.98 13.4 455.96 13.62 456.93 13.47 458.26 14.54 458.77 14.41 460.71 15.03 462.44 14.55 466.44 15.52 467.98 15.49 469.88 16.55 470.97 16.42 471.82 16.95 474.77 17.62 474.91 15.02 475.5 13.52 476.76 13.35 477.86 12.84 479.56 12.88 480.6 12.2 481.32 12.13 483.29 10.28 484.01 8.63 484.57 6.44 485.44 5.53 485.33 4.32 487.5 3.01 488.65 2.74 490.04 1.71 492.21 1.61 493.29 1 493.82 1.69 496.84 2.94 497.5 3.78 498.46 4.12 499.17 3.32 499.89 2.96 501.31 2.91 503.15 3.42 503.49 4.16 504.32 4.25 505.98 3.78 506.71 3.82 508.13 4.32 512.44 5.02 514 4.69 515.72 4.82 517.79 4.15 520.02 4.46 521.88 4.97 525.29 3.66 527.7 1.92 528.41 2.96 529.91 3.89 530.59 4.52 532 4.45 533.04 5.57 533.53 6.5 535.69 7.18 536.8 7.28 538.26 7.99 540.12 9.13 540.37 9.99 541.47 10.85 542.93 11.44 543.38 13.36 542.86 14.93 542.9 16.72 543.74 19.59 545.35 21.6 546.34 24.3 546.99 25.14 548.12 25.25 549.36 26.99 549.43 27.65 550.43 28.62 551.97 29.68 552.94 29.61 553.51 30.2 554.4 30.17 557.59 31.13 559.56 30.92 561.72 30.4 562.4 30.58 563.13 31.78 564.17 31.92 565.85 31.14 567.43 31.73 569.01 31.96 570.27 31.48 572.25 31.89 573.9 32.78 575.35 34.37 577.03 35.26 578.99 35.44 580.66 34.3 580.91 33.8 582.03 33.1 583 33.4 584.61 32.58 588.88 31.95 589.37 31.76 591.82 31.87 594.59 32.35 595.99 32.89 597.83 31.13 598.58 31.99 600.55 33.48 601.31 34.54 602.08 36.7 602.67 37.52 604.55 39.14 605.73 39.6 606.29 41.35 607.17 41.88 609.28 42.43 611.3 41.99 612.62 44.25 614.72 44.13 616.34 45.3 618.16 46.81 620.14 46.45 621.62 46.41 622.24 47.03 625.8 48.12 626.85 48.77 627.68 48.92 627.87 50.36 630.37 49.89 631.49 50.8 632.36 53.68 633.95 56.34 634.99 57.09 636.23 60.12 636.25 61.07 637.07 61.79 638.5 64.69 641.18 64.85 643.37 64.86 643.88 64.65 644.63 63.5 645.71 63.23 649.47 63.73 650.27 62.52 651.16 61.68 651.97 61.29 652.86 61.25 653.7 62.6 654.2 62.88 654.66 63.98 657.37 65.63 659.4 69.73 660.59 71.92 662.19 71.96 663.41 73.01 664.88 72 666.08 71.51 666.88 72.45 668.18 72.31 669.97 73.99 671.2 74.68 672.62 76.49 672.28 78.07 671.29 79.35 670.91 80.45 671.39 82.22 670.55 83.74 670.27 85.03 669.79 85.19 669.06 86.49 669.08 87.81 668.15 88.81 667.46 90.06 667.14 91.3 667.33 93.14 668 93.86 668.57 93.97 668.58 95.7 668.31 96.29 667.96 98.22 667.27 99.03 667.15 100.31 668.85 101.16 670.07 102.57 670.91 103.01 671.32 104.15 671.68 106.52 671.86 109.78 671.62 109.97 673.55 112.21 670.32 115.15 672.74 117.75 671.05 118.55 670.71 120.16 671.02 121.32 670.28 122.7 670.17 124.55 669.06 125.87 669.56 126.78 670.13 128.89 669.61 129.58 669.93 130.86 670.63 131.29 673.3 131.34 674.87 132.78 675.52 133.68 678.5 132.56 680.02 131.52 680.11 133.32 679.96 134.66 680.75 135.35 683.62 137.46 685.3 140.01 688.55 138.47 689.96 137.33 692.49 135.75 695.92 134.99 698.87 133.91 705.37 133.46 709.26 132.84 711.33 131.64 716.01 129.23 716.94 130.89 718.34 134.24 720.35 135.85 721.1 137.69 721.88 138.79 722.4 138.92 724.67 138.27 727.45 138.07 730.08 141.69 733.25 141.4 734.65 141.5 736.82 141.99 738.77 142.91 738.97 144.87 738.33 148.16 737.33 149.39 737.58 150.15 737.77 152.14 736.63 153.18 735.92 154.38 736.96 157.79 738.15 158.95 738.57 159.75 739.76 160.8 739.82 161.49 742.07 165.49 740.63 165.96 739.15 166.87 740.77 168.43 741.38 169.92 741.48 170.85 742.05 172 742.71 175.09 742.27 175.9 742.6 176.72 742.56 177.87 742.07 179.1 742.58 180.16 742.36 181.65 742.44 185.49 742.02 188.27 740.66 189.78 739.74 190.41 738.22 192.55 739.35 193.51 740.33 193.76 742.99 196.25 742.98 196.5 746 196.83 746.57 197.11 748.86 197.36 749.64 198.39 751.18 198.24 752.82 199.59 755.08 198.55 755.32 197.78 756.91 195.56 757.52 195.49 759.86 196.81 760.31 196.85 761.53 196.02 763.08 197.07 764.1 196.78 768.46 197.33 769.59 197.94 771.45 197.59 772.92 198.71 774.5 200.81 776.59 199.66 778.03 199.57 778.94 199.3 779.28 200.66 780.18 202.25 782.51 203.87 784.21 205.57 784.09 206.33 784.91 208.12 785.22 209.62 784.39 211.3 782.45 212.01 781.69 212.61 780.59 215.4 779.18 218.28 778.8 219.8 779.57 221.23 779.79 222.17 779.55 224.21 779.04 225.21 779.06 226.83 778.67 227.81 777.61 229.57 776.59 233.62 776.31 233.89 774.87 234.03 773.58 235.85 771.55 235.17 770.33 236.16 770.4 238.65 770.31 239.7 769.39 244.69 767.82 247.28 766.21 249.39 766.37 250.85 766.91 251.33 768.99 252.6 769.6 253.31 768.4 255.29 769.3 256.36 769.83 257.8 769.97 259.86 769.35 260.69 768.99 262.62 769.59 263.32 769.49 264.92 768.2 265.26 766.11 266.81 765.81 267.34 765.89 268.7 765.16 269.8 764.5 270.22 767.35 271.7 767.68 272.5 768.42 272.88 769.39 274.49 771.6 275.17 771.36 276.22 771.94 277.09 774.73 278.67 783.93 285.23 787.11 288.04 783.72 293.56 779.81 297 778.19 299.04 775.19 301.22 774.26 302.08 770.39 308.76 769.12 310.51 767.6 313.27 765.07 315.3 763.47 316.91 762.05 318.98 760.42 321.61 758.99 326.01 757.96 327.39 754.94 328.9 754.29 329.52 753.24 331 752.23 332.76 751.22 335.08 751.02 336.83 751.67 338.13 751.04 339.84 750.64 341.71 750.57 342.94 750.71 346.53 749.71 348.63 749.57 350.06 748.69 351 748.06 352.56 748.12 353.94 749.17 355.28 753.06 356.65 756.61 356.59 756.93 356.67 762.81 359.93 767.18 364.59 772.92 367.63 777.22 372.2 779.69 374.97 779.13 375.04 779.42 377.51 779.01 378.65 778.04 379.5 777.35 379.49 777.94 381.55 777.16 382.75 776.21 383.35 776.77 384.84 779.68 389.75 780.82 390.77 Z" id="37030000"/>
</g>
</svg>