<?xml version="1.0"?>
<svg xmlns="http://www.w3.org/2000/svg" version="1.2" baseProfile="tiny" width="800" height="685" viewBox="0 0 800 685" stroke-linecap="round" stroke-linejoin="round">
<g id="sigung">
<path d="M 283.28 37 290.57 34.45 294.1 31.62 296.12 34.68 297.15 35.51 298.11 37.24 300.6 39.52 301.41 41.8 303.65 41.86 303.89 39.97 305.25 40.12 305.66 39.75 307.09 39.39 307.96 40.6 308.41 41.74 309.36 43.09 309.47 44.4 311.09 46.15 312.06 48.45 311.85 49.3 312.41 49.93 312.51 50.67 313.64 52.16 313.53 53.29 314.83 55.1 315.45 56.49 315.59 58.19 314.75 61.78 314.74 63.03 315.99 65.53 315.04 67.25 316.37 70.03 317.85 70.4 320.96 72.04 321.6 72.92 324.76 71.95 327.47 73.49 328.19 71.6 330.7 71.46 331.58 70.78 333.48 71.65 334.19 71.06 334.5 70.28 335.84 69.38 337.89 68.7 337.41 68 335.05 66.72 335.12 65.1 336.01 63.04 335.51 60.88 337.8 60.12 339.94 59.19 340.6 57.61 341.6 56.26 346.5 53.11 347.47 52.23 347.79 50.88 349.88 49.05 349.44 47.59 352.01 46.17 353.28 44.46 355.48 44.91 359.14 44.68 360.38 44.98 362.3 43.92 364.21 44.55 364.65 43.02 366.19 41.25 367.44 41.13 365.72 38.22 366.93 35.18 369.43 31 369.4 29.32 371.31 29.05 373.97 29.02 375.6 29.76 376.33 29.77 377.62 31.71 379.78 32.04 380.67 33.52 384.71 33.38 388.55 33.72 390.37 34.28 391 36.51 393.3 38.59 394.72 40.11 394.62 42.59 396.39 43.44 400.16 45.46 404.33 47.96 404.74 44.97 410.6 46.82 413.14 46.99 415 48.41 417.82 48.46 419.36 48.77 423.23 52.14 426.82 53.61 429.29 63.03 430.32 68.96 434.82 73.43 439.29 82.22 439.54 83.3 441.55 83.64 442.94 84.3 444.62 84.19 448.88 87.83 451.22 88.53 452.61 94.83 452.17 95.43 454.77 98.1 455.71 99.58 455.91 102.15 455.9 104.69 454.55 112.08 460.63 113.96 464.45 115.21 470.96 117.68 468.56 130.07 473.81 139.5 474.32 141.46 474.27 142.55 476.5 142.84 477.7 143.48 479.82 143.62 482.22 146.11 482.89 149.82 482.88 152 483.48 153.64 483.8 155.14 487.05 157.26 489.71 161.14 490.56 161.74 493.4 164.19 495.16 164.03 495.73 164.2 498.13 166.16 499.79 167.07 501.34 167.72 502.48 167.97 503.4 167.86 504 168.18 507.31 168.27 510.6 168.07 511.9 170.11 512.49 171.46 514.63 172.91 515.9 174.68 516.23 176.01 516.39 177.78 519.64 179.59 521.71 178.36 525.56 183.5 526.97 184.05 531.18 185.15 531.63 187.22 535.96 188.98 538.45 191.53 539.3 191.97 539.24 192.91 540.38 194.41 540.55 196.18 540.14 199.21 539.18 200.61 537.97 201.44 537.61 202.22 537.31 204.84 536 204.59 533.48 207.31 530.92 212.1 530.21 215.5 530.82 220.21 531.87 225.32 530.14 230.22 526.76 233.76 522.11 234.94 523.02 236.86 524 237.74 527.8 239.91 529.41 243.71 529.65 247.62 527.14 248.47 525.38 254.18 524.76 257.05 525.22 261.77 528.52 264.63 530.59 266.29 532.69 268.69 536.67 269.79 537.34 273.06 536.28 274.09 536.27 276.72 535.88 278.93 536.83 280.84 536.81 281.71 539.88 283.59 542.42 283.49 543.44 282.57 546.86 283.48 548.55 283.09 550.78 284.63 552.7 285.26 554.09 286.54 555.66 287.47 556.31 289.33 556.77 293.04 556.64 294.9 556.77 296.17 558.24 298.35 560.6 300.18 561.6 301.67 562.83 303.83 562.68 311.08 563.12 313.69 565.43 318.74 567.2 320.81 568.97 323.58 569.84 322.46 571.31 321.73 571.91 320.36 573.36 319.78 573.5 318.25 574.24 317 576.16 316.52 577.31 317.46 579.22 317.62 582.56 316.67 587.15 315.64 588.37 313.43 590.52 312.74 591.32 311.93 592.13 309.7 597.25 307.26 600.68 305.17 601.44 305.44 603.19 303.94 603.63 304.26 605.87 305.03 607.46 304.12 610.44 300.88 613.5 299 615.69 296.8 617.19 295.83 618.54 297.55 621.74 298.27 624.97 298.2 627.3 294.97 630.01 294.32 630.94 293.05 632.55 292.51 632.5 290.43 633.46 288.65 637.37 285.4 639.4 285.55 640.86 286.68 645.35 286.87 647.88 287.84 648.32 288.2 649.56 287.77 649.58 288.65 650.87 291.43 651.16 293.65 650.68 295.31 649.37 297.2 646.69 299.44 645.4 302.07 644.7 302.73 642.96 303.68 640.06 306.01 639.69 307.02 639.71 308.62 640.84 309 641.54 309.77 643.13 310.09 646.1 308.1 647.96 308.33 649.89 308.93 650.78 311.38 654.27 314.06 655.47 316.65 657.56 317.87 658.01 318.97 658.05 320.39 656.78 322.44 657.39 323.98 656.87 324.59 656.7 325.69 655.93 326.88 655.1 328.56 655.47 330.53 658.4 332.7 662.24 334.97 663.31 336.39 663.23 338.34 664.54 340.92 665.46 343.03 665.87 347.78 667.08 349.66 666.65 354.77 665.7 362.23 666.47 363.75 667.01 366.09 667.71 367.08 667.97 368.8 669.94 371.78 671.83 372.85 676.27 372.71 677.68 376.64 677.75 380.29 678.91 382.44 680.83 383.42 681.85 385.24 682.09 386.3 681.66 387.77 682.11 390.36 681.8 392.42 682.03 394 681.99 395.17 682.59 396.31 684.13 397.87 688.61 397.32 689.53 396.71 691.79 396.2 695.33 392.21 696.55 390.31 698.12 386.74 700.27 382.32 702.74 381.38 703.17 380.88 706.51 370.83 706.9 367.45 707.26 365.17 707.66 363.85 709.64 363.28 711.65 362.23 713.71 362.34 715.83 361.66 717.59 361.51 718.51 360.98 719.54 359.9 720.05 359.74 720.92 360.53 723.17 361.29 725.1 362.39 726.7 364.83 727.18 366.63 728.87 368.53 730.88 368.05 735.62 368.98 739.03 371.03 740.21 371.14 745.72 374.08 747.09 375.92 749.68 379.77 749.96 382.2 753.77 385.98 755.1 388.12 756.94 391.81 757.51 393.79 757.44 395.68 757.63 396.35 759.44 397.74 761.49 398.71 762.11 399.5 762.61 401.95 763.42 404.26 766.96 405.74 768.4 407.56 768.59 409 768.63 411.15 768.82 412.6 771.71 411.78 774 411.83 776.37 412.25 778.19 411.77 780.45 412.43 782 412.51 783.65 413.81 779.89 419.55 778.83 422.3 778.17 425.55 778.52 429.85 778.6 434.03 777.59 437.73 776.31 440.4 775.8 441.8 774.1 442.58 772.09 443.09 768.35 443.4 766.51 442.62 765.28 441.82 761.96 439.31 761.19 439.54 760.24 441.86 758.93 442.83 756.98 444.82 753.94 449.4 753.32 450.83 754.82 452.6 755.02 453.71 756.48 457.8 758.17 464.05 757.84 465.34 761.65 466.16 763.6 467.11 765.68 467.17 767.14 470.47 768.62 471.61 769.25 472.58 770.58 473.5 772.3 474.25 771.66 476.54 770.27 477.98 769.77 480.22 770.26 482.24 771.08 484.1 771.54 486.49 769.94 491.47 769.69 495.63 769.14 496.9 769.76 497.71 770.97 497.99 772.78 497.88 774.92 498.18 777.73 500.48 775.54 505.47 775.04 507.8 772.63 511.35 770.86 514.5 770.03 516.29 770.05 518.98 771.26 519.6 772.3 519.56 772.94 520.78 773.61 521.52 774.15 522.58 775.73 523.73 776.61 523.74 778.17 526.53 777.79 529.92 777.47 531.06 777.97 532.06 779.81 534.62 780.46 535.15 780.58 535.96 781.55 537.15 781.99 540.04 785.47 542.29 787.79 544.78 789.71 544.45 790.69 543.33 792.22 544.35 794.43 544.95 795.15 545.75 797.2 548.49 798.31 550.4 799 552.85 798.56 556.22 797.39 557.93 796.98 561.31 797.04 563.65 796.51 563.9 793.51 564.13 791.8 565.1 792.35 566.15 791.91 567.35 789.63 567.22 787.51 567.62 786.28 567 783.64 567.78 781.73 567.87 778.97 565.76 778.1 566.22 777 565.89 775.66 566.97 774.16 567.31 768.32 569.2 766.46 567.99 763.16 562.65 761 561.24 760.02 561.88 759.18 563.08 757.68 564.66 755.62 565.41 750.48 563.66 749.93 563.38 748.62 563.57 747.46 562.86 744.75 560.88 739.68 561.01 738.63 561.4 737.54 562.41 735.55 562.89 734.18 562.33 733.21 563.37 729.9 563.7 728.69 562.95 728.18 562.3 728 561.42 724.97 561.27 722.02 559.74 718.69 556.97 713.7 558.36 712.5 559.45 711.14 561.58 709.72 563.24 707.25 564.36 705.38 564.06 704.36 565.45 702.43 564.76 701.49 565.02 700.3 564.99 697.07 565.26 696.19 567.48 695.77 568.09 694.66 567.49 692.11 565.08 689.92 563.27 686.75 561.99 684.94 561.66 682.78 562.05 679.96 562.09 679.06 561.75 677.68 560.85 676.75 559.87 677.12 558.94 676.81 558.6 676.44 557.12 676 554.57 676.18 552.95 674.27 549.01 674.23 548.01 674.59 546.99 675.18 546.22 675.21 544.78 674.62 543.63 673.51 542.69 672.71 539.41 672.07 538.22 670.88 537.64 669.55 536.7 666.69 533.43 665.91 532.14 664.5 533.4 662.64 533.84 664.05 535.66 664.52 536.59 664.79 539.04 664.49 540.47 664.7 540.93 663.86 543.74 663.92 545.34 663.28 545.94 661.56 548.17 660.67 548.79 662.3 551.52 662.91 551.79 662.05 553.48 660.21 556.71 658.05 559.45 659.43 561.2 659.28 561.75 657.53 562.64 656.42 562.52 654.47 562.62 654.07 563.13 652.46 563.37 652 563.91 654.27 569.32 654.47 570.24 653.97 571.36 652.91 572.21 651.37 572.08 648.02 573.18 646.71 575.14 646.76 575.82 646.2 576.76 643.99 577.81 642.73 579.63 643.38 580.13 644.69 582.74 643.93 587.6 642.42 588.81 641.27 589.94 640.02 590.51 638.84 590.33 638.45 590.62 638.83 593.88 638.71 594.99 637.58 596.14 637.04 596.32 637.38 597.21 637.33 598.46 636.86 598.93 635.36 599.74 636.71 600.47 637.85 601.36 638.24 602.7 638.67 602.8 639.21 604.16 639.18 604.76 639.8 606.58 639.81 607.94 638.78 608.81 638.14 609.9 636.6 612.05 635.8 613.97 635.12 614.99 633 616.56 631.65 618.03 630.08 618.64 628.35 620.56 626.67 623.4 624.16 625.26 621.67 627.65 617.85 629.68 617.63 631.27 616.75 631.93 615.5 633.97 615.92 636.63 615.3 639.17 615.87 639.99 616.77 641.98 617.28 644.16 617.73 645.23 618.42 645.49 618.61 646.17 620.76 646.75 621.66 647.43 622.93 648.93 625.57 653.17 626.8 654.57 622.55 654.51 617.2 658.16 614.98 659.03 614.37 660.48 612.63 659.74 612.05 659.85 609.2 659.19 605.85 657.75 604.69 657.61 603.75 656.75 599.19 655.16 595.65 654.15 594.85 653.36 593.33 652.75 592.19 652.04 587.06 650.72 583.65 647.85 584.11 646.92 583.11 642.28 580.38 641.74 578.53 640.99 578.05 640.53 576.98 640.39 575.54 639.8 574.29 639.91 573.31 640.77 570.59 640.52 566.7 639.93 565.47 639.09 563.09 639.58 560.69 638.89 559.13 639.07 556.48 637.47 552.15 638.23 550.26 636.77 549.47 634.94 547.48 634.13 546.76 632.23 544.55 630.31 543.33 629.42 542.25 629.49 541.85 628.69 541.4 626.12 540.6 624.64 540.62 623.11 540.06 620.45 539.46 620.21 538.95 619.09 536 619.95 535.27 621.36 534.94 623.53 535.34 624.3 534.45 625.53 534.17 626.7 531.47 626.89 529.78 629.65 528.8 629.5 527.73 630.68 526.81 632.16 525.64 632.36 524.38 631.2 523.61 631.01 521.98 629.37 520.45 629.33 519.56 629.73 519.57 630.71 518.42 630.77 517.75 630.23 517.23 630.89 516.59 630.99 514.03 630.93 513.7 629.39 513.62 627.98 512.45 627.98 512.4 626.12 512.9 626.1 513.42 625.36 513.24 623.95 512.2 623.96 511.68 623.26 511.65 621.62 510.82 621.65 510.6 621.11 509.71 621.1 509.77 619.98 509.23 619.59 509.39 618.22 509.23 615.02 508.29 615.04 508.27 613.73 507.96 612.66 506.99 612.5 506.97 611.26 504.75 611.34 502.53 612.24 502.04 612.72 501.92 613.74 500.97 613.88 498.5 615.05 498.44 615.56 497.24 615.09 491.38 617.43 489.52 614.11 486.04 622.37 482.49 629.17 481.67 630.82 479.8 638.88 469.74 647.27 465.44 652.07 469.91 655.46 473.64 661.49 470.09 663.64 468.77 663.29 468.05 663.56 466.4 663.49 464.77 666.44 463.12 667.97 462.66 669.58 461.62 670.5 460.44 670.98 458.75 672.77 457.59 672.93 456.2 673.69 454.3 673.67 452.43 672.89 450.78 673.12 449.17 674.43 447.84 672.96 446.73 672.31 445.91 671.18 444.34 672.27 443.64 673.37 442.86 673.97 441.52 675.39 440.82 675.8 440.01 675.61 437.43 676.71 436.89 678.28 435.19 680.78 434.54 681.05 433.04 681.21 431.84 680.67 430.22 681.15 429 682.85 427.34 684 425.37 683.29 424.22 682.19 423.43 678.98 422 678.07 422.37 675.51 422.07 671.88 420.18 670.43 416.84 670.51 414.47 670.05 410.97 669.91 409.86 669.52 409.42 668.6 410.4 666.99 410.23 666.04 409.66 665.53 409.28 663.93 407.93 663.58 406.52 662.71 405.78 663.54 404.37 662.25 403.41 660.91 400.85 659.15 400.17 656.98 399.63 656.05 398.67 655.44 395.58 648.38 397.11 647.03 395.35 644.03 394.56 642.38 392.99 640.04 391.87 639.36 388.19 636.62 385.8 636.26 382.35 634.92 380.34 635.03 379.92 634.86 378.48 631.72 378.09 630.01 377.15 629.19 376.96 628.69 375.43 627.9 374.18 627.68 374.19 622.58 373.48 621.64 371.89 620.17 371.23 617.17 370.03 614.83 368.7 615.07 366.56 615.85 365.15 616.2 362.14 615.2 358.07 616.53 355.31 614.44 353.52 614.03 351.69 615.66 350.53 616.08 348.18 616.1 345.82 617.09 344.87 618.59 342.71 618.5 340.43 617.76 338.12 618.76 335.7 619.33 333.95 619.09 331.02 621.24 329.67 622.6 325.66 623.91 323.49 625.74 321.58 625.88 320.64 625.31 318.91 625.08 317.97 625.41 317.72 623.85 317.26 623.58 316.92 622.38 316.32 622.02 315.56 623.24 314.54 623.86 313.53 623.97 312.57 623.24 311.04 622.79 310.04 623.02 309.04 622.85 307.34 621.37 305.97 621.41 304.07 622.75 302.15 622.9 301.04 622.47 299.09 623.53 297.98 622.52 295.11 617.69 294.56 616.23 295.5 615.63 296.27 614.46 295.69 612.43 296.37 612.44 297.32 611.6 297.72 610.48 297.44 608.05 297.99 607.99 295.56 605.26 291.33 600.76 285.69 597.77 281.4 593.19 275.63 589.98 275.32 589.9 271.82 589.96 268.01 588.61 266.97 587.3 266.91 585.94 267.54 584.41 268.4 583.48 268.54 582.08 269.52 580.01 269.38 576.48 269.45 575.26 269.84 573.43 270.46 571.75 269.82 570.47 270.02 568.75 271.01 566.46 272 564.73 273.03 563.28 273.67 562.67 276.64 561.18 277.65 559.82 279.05 555.5 280.65 552.91 282.05 550.87 283.63 549.29 286.11 547.3 287.6 544.58 288.85 542.86 292.65 536.28 293.57 535.44 296.51 533.3 298.11 531.29 301.94 527.9 305.28 522.47 302.15 519.71 293.11 513.26 290.37 511.71 289.8 510.85 290.04 509.82 287.87 509.15 286.91 507.57 286.19 507.19 285.86 506.41 283.07 504.95 283.71 504.53 284.43 503.46 284.36 502.12 284.65 501.59 286.7 500.06 287.97 499.73 288.06 498.16 287.48 497.47 287.83 495.58 288.44 494.76 288.3 492.73 287.78 491.32 286.89 490.26 288.07 488.31 287.48 487.62 285.43 486.37 284.9 485.9 284.74 484.46 286.33 482.38 287.87 479.84 288.77 474.92 288.86 473.9 288.79 471.45 289.99 470.47 291.99 471.14 293.25 469.35 294.67 469.21 294.94 468.94 295.94 464.96 296.99 463.23 297.37 462.26 297.35 460.68 297.85 459.69 298.09 457.68 297.87 456.76 297.11 455.35 297.48 453.86 298.87 451.03 299.95 448.28 300.7 447.69 302.6 446.99 303.42 445.34 303.12 443.86 302.31 442.1 302.42 441.36 300.75 439.69 298.47 438.09 297.59 436.53 297.25 435.18 296.36 435.45 294.94 435.54 292.89 436.68 291.33 434.6 289.89 433.51 288.07 433.85 286.96 433.25 282.67 432.71 281.67 433 280.15 431.96 278.95 432.78 278.5 432.74 276.21 431.44 275.6 431.51 274.04 433.69 273.81 434.45 271.58 435.47 269.97 434.14 268.46 434.29 267.7 433.28 265.45 433.03 264.89 432.76 261.92 432.43 261.94 432.19 259.32 429.74 258.35 429.49 257.24 428.55 258.74 426.45 259.64 425.82 260.98 424.34 261.39 421.6 261.32 417.83 261.53 416.36 261.02 415.32 261.51 414.11 261.55 412.98 261.22 412.17 261.65 411.37 261 408.33 260.45 407.2 260.35 406.29 259.75 404.83 258.16 403.28 259.61 402.4 261.03 401.93 258.82 397.99 258.76 397.32 257.59 396.29 257.18 395.5 256.01 394.36 254.99 391.01 255.69 389.82 256.8 388.8 256.62 386.85 256.37 386.1 257.35 384.89 257.98 381.65 257.79 379.73 255.87 378.82 253.74 378.33 252.36 378.24 249.25 378.52 246.66 374.96 243.93 375.15 241.71 375.8 241.19 375.67 240.42 374.58 239.69 372.78 237.71 371.19 236.34 367.89 235.42 366.26 230.82 368.64 228.79 369.81 224.97 370.43 218.58 370.86 215.69 371.93 212.32 372.68 209.84 374.23 208.45 375.35 205.25 376.86 203.6 374.36 200.78 372.28 200.01 371.6 200.15 370.29 200.06 368.51 198.57 369.54 195.65 370.64 195 369.76 193.46 368.34 190.84 368.29 190.16 367.86 189.84 366.61 190.35 365.93 189.79 363.86 189.29 362.96 190.39 361.66 190.49 359.85 191.23 358.48 190.92 357.35 191.25 355.76 192.91 354.97 190.54 352.42 193.7 349.52 191.81 347.32 192.04 347.14 191.87 343.92 191.52 341.6 191.11 340.48 190.29 340.04 189.09 338.66 187.42 337.82 187.54 336.56 188.22 335.76 188.57 333.86 188.83 333.28 188.82 331.58 188.26 331.47 187.6 330.77 187.41 328.95 187.73 327.73 188.4 326.5 189.31 325.53 189.3 324.23 190.02 322.95 190.48 322.78 190.76 321.52 191.58 320.03 191.11 318.28 191.49 317.2 192.46 315.94 192.8 314.39 191.4 312.61 190.2 311.93 188.43 310.27 187.16 310.41 186.37 309.49 185.19 309.97 183.75 310.97 182.55 309.93 180.97 309.89 179.8 307.74 177.81 303.71 175.15 302.08 174.7 301 174.21 300.73 173.38 299.4 172.51 299.44 171.71 299.82 170.84 300.65 170.06 301.83 166.36 301.35 165.3 301.61 164.56 302.74 164.06 302.94 161.91 302.94 159.27 302.78 157.87 299.93 157.06 299.22 157.05 298.28 155.82 295.3 154.81 294.57 153.24 291.95 152.39 289.12 151.29 288.22 148.83 288.69 148.64 287.27 147.83 287.13 146.8 286.49 143.3 285.41 142.69 284.8 141.24 284.84 139.29 285.19 137.51 283.71 135.91 282.56 133.85 282.68 132.55 280.45 130.57 280.88 128.49 280.35 127.63 279.82 127.08 278.1 125.91 277.65 124.07 276.06 123.49 275.25 122.73 273.13 121.99 272.08 120.06 270.62 119.32 269.77 117.51 271.5 116.13 270.97 113.41 270.5 111.01 270.39 110.52 270.58 106.33 271.19 104.75 272 103.79 271.71 102.7 272.4 102.45 272.89 100.8 274.01 98.88 273.84 97.23 272.96 95.81 271.4 94.19 270.52 92.24 270.12 91.01 270.59 89.45 270.36 87.9 269.78 86.25 270.55 85.22 270.41 84.51 269.23 83.84 269.05 81.72 269.57 79.78 269.77 76.65 268.83 75.77 268.86 75.22 268.27 74.26 268.34 72.75 267.3 71.76 266.35 71.69 265.7 70.48 263.99 69.37 263.87 68.73 263.05 67.76 260.4 66.18 258.42 65.35 255.6 65.31 253.84 65.82 252.29 65.38 250.41 63.95 249.83 62.87 248.97 62.62 248.13 60.79 247.01 59.36 246.31 58.27 246.21 56.15 245.54 55.67 244.63 54.64 243.53 53.25 243.6 52.59 242.98 51.12 242.06 50.42 241.03 48.05 242.75 44.7 244.04 42.87 243.54 40.68 243.24 38.65 243.89 36.95 243.76 35.42 244.09 31.19 243.4 29.8 242.9 29.08 242.87 27.45 243.33 26.63 243.25 26.29 242.52 24.49 242.01 23.1 242.06 22.39 242.42 21.69 243.2 20.75 242.87 20.09 242.05 17.13 240.81 16.61 240.13 15.55 240.73 13.42 240.83 12.05 241.84 10.92 242.11 8.79 243.4 8.22 242.64 8.59 240.61 8.19 239.76 8.12 238.09 8.53 237.4 8.91 234.81 9.76 234.02 9.94 232.76 9.37 229.96 8.33 228.75 6.71 227.74 3.88 222.92 3.23 220.9 1 218.86 1.87 214.31 1.37 213.22 1.74 210.21 3.92 207.3 2.79 205.57 3.73 204.72 4.46 199.37 6.09 197.85 7.35 194.4 7.88 193.58 8.15 191.78 9.49 191.59 9.66 191.21 8.35 189.68 8.25 186.97 8.8 185.37 10.33 183.52 10.55 181.84 12.1 180.54 12.9 179.24 13.64 176.45 19.88 175.23 20.82 172.16 22.81 170.49 23.96 169.9 25.34 170.27 27.03 171.03 30.34 170.44 31.8 168.72 33.51 167.51 35.39 164.95 39.19 161.19 39.24 158.07 40.81 155.97 43.64 156.42 45.67 155.6 47.65 153.64 48.05 152.31 52.19 152.02 53.56 151.02 56.3 152.15 57.76 151.48 59.2 151.71 62.17 149.98 64 148.18 64.32 146.7 65.21 146.14 66.62 145.95 67.75 145.16 70.99 145.76 72.42 146.86 72.75 148.32 74.89 149.1 76.74 149.19 81.92 150.03 83.94 149.75 84.87 148.6 86.58 148.15 88.02 148.51 89.77 149.23 92.38 149.23 95.99 150.58 98.12 148.72 99.19 148.3 101.62 146.1 102.08 143.97 102.66 142.96 104.95 142.72 105.83 143.2 107.07 144.34 108.45 144.72 108.82 145.34 110.03 144.65 111.7 144.2 113.04 143.57 114.68 144.28 116.89 146.21 118.09 148.05 121.28 149.05 121.64 148.73 125.33 148.45 129.18 147.64 131.6 146.78 133.93 147.15 134.37 146.77 136.81 145.99 137.47 144.85 137.97 144.59 138.7 142.44 139.7 142.36 140 141.55 141.42 140.75 141.9 139.47 143.37 138.55 145.02 137.01 145.89 135.46 146.5 134.91 146.53 134.21 147.02 133.02 148.53 131.78 150.18 131.18 153.91 131.64 157.15 127.9 159.09 127.42 161.73 128.41 163.72 128.7 164.49 127.99 166.64 129.13 166.56 129.81 167.4 129.96 169 130.84 169.7 132.09 169.47 134.35 170.27 135.21 171.61 135.8 174.82 135.75 175.79 136.29 176.62 136.41 176.27 134.17 177.32 133.59 177.68 132.73 177.2 131.4 177.7 128.35 176.61 127.44 176.15 126 176.48 124.24 177.46 122.06 178.06 120.11 179.77 109.67 179.83 103.86 181.38 99.44 180.72 93.78 180.11 86.19 179.62 83.11 181.81 82.1 182.18 82.08 181.24 77.64 181.08 73.37 181.34 71.65 182.56 68.5 187.79 66.45 190.33 63.43 193.41 57.55 194.06 55.46 196.91 51.46 196.77 50.2 199.04 46.61 199.78 41.79 201.09 39.26 202.97 39.34 202.68 38.74 202.98 37.55 204.08 37.92 204.26 36.51 204.14 35.46 204.46 33.99 206.2 31.93 206.54 31.03 207.78 29.22 208.94 28.3 211.05 27.21 211.84 27 213.6 26.03 216.37 26.49 216.97 23.23 217.47 22.28 217.61 20.45 217.29 19.09 216.42 17.4 216.09 15.19 215.55 13.48 217.75 11.08 218.96 10.11 219.45 7.87 225.27 5.53 229.05 1 230.65 1.3 234 3.06 237.73 3.6 239.16 4.15 246.11 4.18 250.42 1.9 251.88 2.64 259.34 6.77 264.07 11.21 264.64 12.07 265.91 16.09 266.95 20.23 265.54 20.34 264.01 25.26 264.18 28.59 272.93 30.99 273.06 37.21 283.28 37 Z" id="37050000"/>
</g>
</svg>