<?xml version="1.0"?>
<svg xmlns="http://www.w3.org/2000/svg" version="1.2" baseProfile="tiny" width="800" height="764" viewBox="0 0 800 764" stroke-linecap="round" stroke-linejoin="round">
<g id="sigung">
<path d="M 511.02 34.02 513.44 34.01 516.11 33.67 518.72 33.63 523.52 35.13 525.43 34.63 526.6 35.11 526.85 35.78 527.73 36.38 528.4 36.17 529.61 37.57 530.58 37.19 531.44 37.14 533.25 38.8 534.33 39.21 534.99 39.12 535.89 39.7 537.58 41.21 539.66 43.36 541.35 43.74 542.3 43.04 547.91 43.07 549.33 43.14 551.84 42.76 552.67 44.84 555.98 46.66 558.43 47.57 561.55 48.28 563.8 49.61 565 49.68 566.3 50.18 567.14 50.01 568.62 50.47 570.19 50.57 571.61 50.89 572.75 52.32 574.3 51.9 575.94 50.89 577.83 51.99 581.02 52.56 583.4 52.38 586.63 54.12 589.18 55.87 590.6 57.17 593.5 59.39 594.97 58.88 596.47 58.56 600.35 58.42 601.94 57.91 603.31 58.16 604.05 57.95 607.34 58.15 607.52 58.54 607 61.29 607.08 61.82 608.83 64.81 610.41 67.3 612.81 70.33 614.07 71.34 616.19 72.16 619.34 72.38 622.81 72.48 624.12 72.27 624.28 72.55 624.59 75.03 626.54 78.06 627.06 78.59 629.48 79.49 633.58 82.62 638.29 83.71 640.4 84.56 641.24 86.08 641.71 89.84 641.07 93.41 640.89 94.87 643.59 98.44 643.69 98.84 643.58 102.52 642.56 105.43 640.61 108.42 635.03 113.1 634.79 114.34 636.31 115.99 637.51 116.22 639.09 117.57 640.74 119.76 642.64 121.82 644.03 122.49 645.04 123.76 647.95 126.7 647.34 128.09 647.84 129.33 648.88 130.46 650.93 134.05 651.62 134.84 650.54 139.1 651.66 139.91 653.39 142.82 654.08 143.17 654.94 144.63 654.93 146.18 655.78 147.28 659.09 147.1 661.52 147.36 663.82 147.87 665.35 148.05 667.36 150.98 668.96 152.75 669.6 152.56 669.42 150.65 670.11 148.17 671.02 145.68 671.33 144.31 672.91 139.85 673.16 139.38 675.45 139.42 676.19 139.82 677.82 139.38 678.94 138.41 680.32 138.52 681.65 139.31 682.6 138.33 683.43 138.38 684.89 137.91 687.38 137.66 689.71 134.79 692.32 133.08 694.17 132.39 696.03 132.65 697.23 132.52 698.41 130.79 700.32 130.24 702.61 129.41 703.5 129.5 704.96 131.34 706.64 134.1 708.19 135.53 708.67 136.59 710.07 137.55 710.43 138.29 713.28 139.89 713.79 140.46 713.63 142.47 715.55 146.1 713.15 150.69 710.96 152.76 710.49 154.18 709.27 156.07 705.9 161.53 705.95 162.94 702.14 163.94 700.98 163.6 700.37 164.27 697.42 165.52 697.04 166.98 695.68 167.69 695.34 169.39 695.31 170.6 694.81 173.13 694.86 175.22 695.32 176.76 696.12 177.35 697.01 178.63 697.31 179.94 697.44 182.31 697.32 183.62 696.79 184.9 698.51 187.34 700.35 187.94 703.33 189.75 703.76 192.6 706.51 195.17 708.53 197.17 709.96 199.31 710.49 200.6 711.91 201.8 712.33 202.95 714.23 204.18 715.48 205.65 715.96 205.88 716.81 207.61 718.93 208.49 720.45 208.5 720.95 208.25 722.12 208.79 723.48 210.07 724.07 211.07 724.98 211.59 727.01 212.12 729.14 214.76 729.23 215.15 728.81 216.73 727.91 217.75 728.49 218.79 728.97 220.57 730.33 221.33 734 219.6 735.19 219.98 738.52 219.22 739.03 219.4 741.37 221.34 743.72 220.93 744.39 220.15 746.61 220.44 750.43 218.35 756.39 216.73 757 217.13 758.62 220.11 760.84 222.49 761.61 224.16 762.79 225.55 764.35 226.5 768.84 230.21 769.32 230.91 769.52 234.2 768.98 237.27 768.18 238.87 767.35 243.52 768.66 245.44 769.31 246.08 771.04 246.9 771.8 247.58 772.78 249.57 774.19 251.57 773.71 253.22 772.07 256.51 773.89 258.93 776.39 259.16 777 259.48 778.73 261.1 779.8 263.5 780.74 264.15 783.08 264.78 785 265.86 786.18 267.07 789.13 267.49 790.7 265.47 791.63 264.7 792.33 264.48 794.07 264.84 794.91 267.95 795.68 268.86 797.56 270.44 798.22 271.51 799 271.77 798.62 271.73 797.71 276.73 798.49 280.26 792.48 283.38 792.16 289.21 790.67 292.81 789.21 295.42 785.77 300.28 783.22 302.79 780.29 301.42 777.74 303.65 775.78 308.43 775.22 312.22 771.01 311.87 771.35 315.77 769.9 316.05 770.76 317.38 772.03 318.7 772.66 320.47 776.22 324.25 776.11 325.4 776.96 328.9 777.94 329.33 778.2 329.84 779.35 330.58 779.93 332.01 782.4 335.7 782.72 337.47 783.89 340.35 784.28 341.57 784.94 342.27 784.69 345.39 784.94 347.36 786.06 348.25 786.78 352.8 787.46 354.98 787.52 355.92 787.92 357.32 788.01 358.7 788.47 360.73 789.17 362.11 789.92 364.04 788.56 366.03 788.35 367.68 784.63 368.74 779.54 371.8 775.93 372.43 775.31 372.99 774.3 374.53 772.58 376.87 772 376.22 769.58 377.63 764.22 378.31 760.95 378.12 758.96 379.05 758.14 379.23 756.93 378.7 756.35 378.18 754.46 377.43 752.29 377.23 749.94 375.57 748.92 374.4 747.69 373.37 747.14 373.24 746.21 372.05 745.57 370.4 743.83 369.64 742.69 367.65 742.08 367.2 740.42 364.29 740.46 363.01 740.27 362.08 737.01 362.11 736.06 363.3 735.94 364.22 734.38 367.44 733.42 369 732.52 370.89 732.23 372 732.3 372.77 731.65 376.43 730.74 377.89 730.65 378.41 731.03 379.32 730.68 380.23 732.41 382.87 732.32 386.29 733.65 387.08 734.87 388.49 735.15 389.73 733.2 392.56 732.17 394.44 731.47 396.23 731.21 397.41 731.77 399.65 733.07 401.38 733.47 402.58 735.2 403.6 735.92 404.74 736.53 406.35 736.04 407.38 736.32 411.74 736.84 414.65 737.34 415.67 738.88 417.24 739.7 418.29 742.59 422.35 742.59 423.77 742.4 425.66 743.1 429.69 743.38 434.43 742.46 437.12 744.3 440.43 743.32 442.36 743.37 443.82 744.45 445.61 744.31 448.13 743.92 449.77 742.62 450.53 742.07 452.75 743.3 455.32 743.98 455.88 746.02 457.18 744.81 463.02 743.85 464.6 743.63 466.59 743.82 468.25 742.98 469.89 741.82 473.46 745.17 477.51 749.28 481.53 750.69 484.65 751.11 486.79 751.93 487.38 754.37 488.04 754.08 488.71 754.22 490.57 754.75 492.13 756.56 494.06 756.65 494.98 757.16 496.63 758.6 497.57 760.89 498.42 763.04 499.92 764.65 502.57 764.51 503.61 764.66 504.8 764.24 506.04 764.4 506.88 763.94 508.56 765.94 510.24 767.05 510.98 768.01 511.33 767.66 512.95 766.96 513.73 766.59 514.77 766.59 516.83 766.43 519.16 771.32 521.11 772.99 523.26 775.21 528.1 776.74 531.06 778.15 534.58 776.79 537.74 776.11 538.54 775.4 539.9 775.47 542.02 774.95 543.06 774.55 544.74 773.96 546.23 772.84 547.56 771.53 549.36 770.43 550.5 770.8 551.03 768.6 553.81 766.6 554.76 763.84 556.65 763.37 559.01 761.32 559.26 760.46 557.7 758.99 558.42 758.28 558.2 757.61 556.82 756.61 557.49 754.4 557.9 753.18 558.62 751.74 561.03 749.58 562.41 748.56 564.33 748.33 565.5 749.01 568.97 748.26 569.66 744.85 569.91 743.09 569.69 740.31 567.66 740.19 566.68 741.07 564.17 740.63 562.41 740.59 560.16 739.83 558.39 739.61 556.24 738.86 554.99 737.36 553.15 736.72 551.92 736.08 549.64 734.6 547.06 733.85 545.15 731.75 541.5 728.84 538.68 726.2 536.67 725.67 534.63 724.71 533.96 724.36 533.19 722.85 532.6 721.73 531.84 720.84 530.4 718.01 530.1 717.13 529.04 716.65 527.75 715.4 526.24 714.81 525.79 713.14 526.21 712.17 524.76 710.75 523.35 709.52 522.84 706.67 521.26 705.81 519.91 704.46 521.01 703.14 520.62 701.01 522.39 699.58 522.3 699.29 523.38 698 523.78 697.25 524.43 695.71 524.56 693.86 523.63 692.97 524.97 691.98 525.02 691.59 523.61 688.53 523.07 687.63 522.38 685.33 521.62 684.4 522.46 684.56 524.04 684.28 525.2 683.63 525.21 682.54 526.76 681.89 526.28 681.32 525.29 681.07 523.99 679.33 522.83 679.23 521.51 677.41 520.87 677.34 519.24 676.74 518.21 674.87 517.88 673.89 518.57 672.27 517.35 669.96 517.49 668.04 517.22 667.06 517.34 666.07 516.49 662.44 518.48 660.93 518.25 659.62 519.28 656.36 517.99 655.79 518.41 653.2 519.4 653.16 520.45 649.62 524.6 647.81 527.72 646.62 528.43 647.23 530.12 646.44 531.56 645.32 531.99 645.01 532.93 644.07 534.3 643.9 535.01 643.03 535.97 642.38 537.79 643.2 538.72 644.88 539.95 647.88 541.88 647.82 543.73 648.03 544.48 647.13 546.28 646.6 547.72 646.52 550.05 644.64 552.04 644.14 552.06 641.58 553.21 640.06 554.03 638.43 556.84 638.22 557.38 638.67 560.17 639.08 560.99 638.42 562.19 637.44 562.87 637.13 563.41 636.34 565.7 633.67 565.51 632.26 565.74 630.65 566.21 630.22 566.55 630.05 567.36 629.21 568.62 627.17 567.32 625.7 567.65 623.54 569.31 622.57 569.41 622.1 571.68 621.39 572.6 621.37 574.69 620.82 575.39 620.63 576.75 621.26 579.79 620.85 579.99 620.98 581.23 620.23 581.74 618.81 581.12 615.62 582.42 614.73 583.03 611.51 583.44 609.33 582.74 608.46 582.31 606.37 582.28 605.65 583.38 604.34 586.79 603.06 589.64 602.22 590.84 600.43 589.83 597.87 592.41 595.98 593.84 593.75 594.12 590.83 595.64 589.9 595.96 587.96 595.39 587.23 595.53 587.24 596.74 586.71 597.28 586.85 598.09 588.38 598.79 588.78 599.98 588.71 602.26 588.56 603.15 589.13 603.94 588.19 607.82 587.12 609.73 586.72 610.75 588.4 611.77 590.13 613.75 589.26 615.7 588 616.36 586.99 617.3 587.51 619.74 587.59 621.45 588.29 622.37 587.65 626.27 587.11 628.06 586.04 629.13 585.38 630.05 586.51 631.5 589.09 632.72 589.73 633.9 591.18 637.23 591.81 640.6 592.36 642.06 592.57 643.36 594.12 644.49 592.16 646.91 593.31 648.71 593.26 649.56 594.52 650.92 594.33 652.47 594.86 653.22 595.45 653.13 596.2 653.93 596.28 655.09 595.75 655.88 595.26 658.13 595.95 659.28 597.12 660.51 596.81 661.39 595.49 663.67 597.6 665.5 598.09 666.9 598.63 667.74 598.69 668.43 599.39 669.5 599.69 672.55 598.65 675 597.77 675.98 597.64 676.8 596.31 677.35 595.91 679.35 594.08 682.29 589.84 687.83 589.15 688.12 587.86 688.01 586.75 688.74 585.05 688.42 584.54 689.42 584.39 690.93 583.88 692.78 583.86 693.68 582.31 695.48 581.93 697.24 580.98 698.28 578.63 699.93 577.06 702.33 576.12 703.23 575.71 704.31 575.43 706.1 575.49 707.31 574.93 708.35 574.63 711.32 573.52 712.34 572.81 715.02 572.37 715.7 571.64 718.26 571.02 718.43 569.85 718.31 568.93 720.16 568.28 720.69 568.34 721.39 567.27 722.67 566.52 724.37 566.93 725.43 568.99 725.86 570.3 725.83 568.51 727.02 567.2 727.22 567.33 728.85 566.73 729.53 565.17 729.98 563.27 728.77 562.18 729.05 561 728.71 558.33 730.32 555.68 732.03 554.49 733.06 551.74 734.08 551.35 734.56 549.99 734.88 548.41 734.48 546.63 735.14 543.63 735.2 541.91 735.7 541.13 736.49 539.53 737.06 538.07 737.19 537.2 737.83 536.2 738.05 535.66 738.65 534.76 739.08 532.86 739.18 531.53 741.39 530.07 742.78 529.16 743.12 528.37 744.19 526.39 744.93 525.83 744.68 524.59 744.85 523.31 744.69 522.76 745.69 522.12 746.18 522.7 750.45 522.02 751.62 520.74 752.22 519.36 752.43 518.18 752.97 517 754.12 514.77 754.38 514.08 754.3 511.83 755.28 507.42 755.16 505.37 755.87 504.77 756.35 503.69 755.78 502.78 754.26 501.01 753.48 500.21 752.13 499.27 752.35 497.78 752.43 496.18 751.69 493.7 750.73 492.43 750.36 492.2 750.14 493.01 746.8 492.8 745.08 492.38 743.63 491.53 739.73 490.35 739.12 489.71 737.73 488.69 737.59 487.43 736.87 484.13 737.75 482.23 736.97 481.58 737.03 480.26 736.02 479.16 735.75 478.25 736.84 477.49 737.36 476.2 737.6 475.21 736.82 472.33 737.08 471.03 739.45 469.47 740.86 467.87 742.81 463.92 747.27 462.4 749.36 459.73 753.2 457.88 753.86 456.94 754.63 456.69 757.16 455.67 756.85 453.43 756.69 451.71 759.95 449.46 760.79 447.14 763 446.53 761.65 443.53 760.36 442.66 759.77 442.24 758.71 442.24 756.97 441.49 755.54 441.1 753.6 440.66 752.6 439.66 751.55 436.9 750.44 435.9 750.94 434.11 751.5 431.11 750.92 430.21 751.19 428.82 749.91 427.77 748.13 426.94 747.92 425.43 748.73 423.12 749.35 421.85 749.36 420.1 750.14 416.91 749.89 415.14 751.05 413.4 753.77 412 754.46 408.83 750.63 407.4 750.73 406 750.06 403.33 750.54 402.67 751.03 400.38 751.71 399.19 751.01 397.35 749.63 395.23 748.55 395 748.57 393.97 750.45 393.62 752.55 394.21 755.21 393.92 756.39 392.29 757.52 389.55 757.64 388.89 757.94 388.46 758.88 387.4 760.44 385.71 761.02 383.49 759.23 382 755.22 381.02 753.66 372.9 749.49 369.92 748.42 367.28 748.66 364.23 749.59 362.2 749.85 361.67 748.65 360.03 746.24 359.87 745.01 360.04 743.84 359.6 742.98 357.88 742.21 357.31 741.5 356.9 740.18 356.9 738.03 356.01 735.94 355.63 734.14 355.11 733.36 350.38 734.16 348 734.82 345.9 734.75 344.84 734.95 343.67 737.06 342.91 737.37 340.68 736.58 338.99 736.85 338.35 736.35 337.95 732.6 337.95 731.43 337.65 730.4 335.18 727.13 333.72 725.84 333.1 725.01 331.29 725.12 330.85 724.26 330.1 721.74 329.67 721.14 327.73 721.5 326.64 720.36 325.39 719.31 325.05 718.41 325.55 717.4 324.91 715.29 324.16 713.45 324.58 712.93 324.16 711.77 324.26 710.99 323.55 708.74 323.73 706.64 324.62 703 324.22 701.69 325.04 700.47 324.72 699.6 323.66 697.87 323.2 696.61 322.17 694.96 322.16 694.06 321.57 691.16 319.85 688.34 319.13 687.63 317.41 686.68 315.05 684.54 314.25 684.05 310.56 682.23 309.53 681.09 308.37 680.51 306.81 679.35 305.16 678.8 304.39 678.37 303.61 677.3 302.1 676.28 300.22 675.96 299.53 675.47 299.46 673.78 298.1 672.14 296.9 669.41 297.77 669.07 297.08 667.65 296.08 665.99 295.2 663.68 295.69 662.79 295.8 661.08 296.01 660.2 299.37 658.17 300.87 657.47 301.78 656.48 301.78 655.85 304.12 653.48 306.07 652.33 307.45 650.75 307.57 650.26 308.75 650.3 310.46 650.64 313.28 650.6 313.91 650.29 314.98 649.18 315.74 648.76 316.41 647.02 317.61 646.06 318.25 644.99 318.94 644.41 320.12 642.4 320.88 641.39 322.38 638.66 321.78 637.98 320.14 637.93 318.97 637.26 317.46 635.5 316.97 634.07 314.87 632.96 314.3 632.14 313.91 630.41 314.05 628.1 313.74 627.37 311.99 626.49 310.2 626.36 308.02 625.87 307.1 625.28 306.42 624.38 304.5 622.6 303.55 622.12 300.32 621.92 298.83 620.74 297.82 620.17 296.87 620.17 296.03 619.82 295.05 618.97 294.35 618.72 293.38 617.98 293.58 617.52 293.13 616.85 291.92 616.34 291.46 616.9 289.48 617.97 289.31 616.8 288.9 616.2 287.79 616.11 287.54 615.36 287.05 612.77 286.99 610.95 286.65 609.5 286.84 607.14 287.13 606.44 286.49 603.8 286.27 601.76 285.37 600.34 284.8 598.81 284.05 597.55 284.4 596.56 285.35 595.52 285.85 594.65 286.38 593.05 287.46 591.19 287.79 589.47 288.12 588.77 288.34 587.34 288.25 584.29 287.77 582.05 287.69 580.67 286.93 578.82 286.75 577.6 285.87 576.51 282.23 572.95 282.32 571.06 282.78 569.67 286.89 566.33 288.25 564.39 290.08 563.09 289.48 561.13 288.85 560.13 289.64 558.44 290.84 557.44 293.12 556.37 293.77 555.71 293.64 555.26 296.06 554.24 297.8 554.17 298.71 552.49 298.38 550.15 296.82 549 297.02 547.98 296.59 547.81 296.81 546.87 296.52 545.81 296.54 544.95 295.73 544.15 295.41 543.36 293.88 542.72 293.87 541.41 294.35 539.56 295.27 538.98 295.52 538.36 295.51 537.23 295.76 536.18 296.6 535.75 297.25 536.16 297.61 535.63 297.46 534.92 296.79 533.95 295.05 532.77 294.68 532.21 294.34 529.49 293.92 527.85 294.07 527.11 294.72 526.31 294.82 525.42 293.82 523.98 295.01 523.1 294.22 521.62 294.3 520.5 295.19 519.81 294.98 518.46 294.17 516.51 294.84 515.81 294.82 515.2 292.37 511.07 291.9 510.84 291.46 509.77 290.9 507.59 291.81 506.51 292.26 504.04 292.26 503.39 293.14 501.14 292.63 499.52 292.01 499.52 289.95 496.9 288.92 496.5 287.26 496.47 285.56 497.43 285.09 498.45 283.67 497.66 283.64 495.94 283.42 494.82 282.7 492.8 281.15 490.94 280.9 489.61 280.32 488.16 279.44 487.16 278 486.35 277.38 486.28 276.27 485.22 274.58 483.23 272.1 482.41 271.52 481.67 270.35 481.07 268.76 480.49 268.32 479.8 266.64 479.58 264.71 480.9 263.11 481.67 261.61 481.83 260.03 481.33 259.28 480.71 257.29 479.59 257.21 475.83 256.35 474.35 254.99 472.89 253.73 471.22 252.81 470.47 251.45 470.35 249.94 471.09 248.47 470.97 247.01 472.32 244.82 473.21 243.53 475.16 237.03 478.41 236.63 478.75 233.66 478.67 232.04 478.29 230.17 476.97 228.33 476.21 227.66 477.15 226.54 477.62 222.89 476.81 220.17 476.87 219.92 476.67 217.57 476.49 215.43 475.78 214.5 475.7 213.65 476.57 212.64 476.5 211.42 476.13 210.31 475.4 209.74 474.22 209.75 473.21 209.28 472.33 208.54 472.12 208.03 471.21 208.63 469 209.43 467.52 209.66 466.33 208.89 465.21 208.35 464 208.73 461.86 208.56 461.34 208.71 458.99 206.59 458.24 205.55 458.06 203.71 458.25 202.87 457.64 203.15 456.7 202.53 456.04 201.47 455.44 200.62 455.49 199.41 455.13 197.49 453.35 196.31 451.81 195.09 451.56 193.95 450.97 193.66 449.87 192.64 449.16 191.97 449.13 190.16 448.34 188.63 447.29 187.33 446.11 187.19 444.4 185.57 442.63 182.76 441.49 181.53 441.36 180.89 441.92 180.12 441.76 178.1 440.48 177.89 438.83 176.97 437.53 175.64 437 173.67 438.33 172.37 438.83 171 438.38 171.04 437.65 171.63 436.42 168.72 434.74 167.84 434.06 165.21 430.48 165.13 428.67 164.17 428.09 160.59 428.72 159.22 429.47 157.77 432.71 157.37 434.62 154.44 435.12 153.66 434.94 151.62 433.93 147.38 434.09 145.01 435.37 141.9 436.43 140.08 438.73 138.62 439.44 137.21 439.74 135.33 439.32 134.85 439.82 132.79 439.4 130.79 438.52 129.47 438.08 128.17 437.92 126.76 437.47 124.92 436.18 125.03 434.17 123.05 433.28 120.54 431.68 118.55 429.64 117.52 428.99 114.98 428.07 112.56 426.13 112.15 425.32 111.03 424.69 104.75 423.58 97.41 424.22 94.77 423.5 93.62 423.08 90.91 421.76 87.57 419.07 84.82 418.56 82.13 417.32 80.39 417.24 79.34 417.51 75.58 417.75 72.88 419.2 70.93 417.41 71.95 415.9 71.24 414.17 70.04 413.16 69.09 411.03 67.76 409.71 66.21 409.42 65.17 408.77 62.87 408.93 61.33 408.04 62.04 407.24 61.56 405.36 61.92 402.94 60.48 399.72 59.68 399.22 58.81 397.59 57.88 396.7 56.81 396.09 55 395.92 52.88 393.17 51.99 392.5 51.31 391.48 49.97 391.36 48.73 390.94 48.96 390.27 48.17 389.59 44.05 388.26 42.85 387.33 40.79 387.19 39.39 386.59 38.38 386.79 37.61 387.31 35.5 387.02 32.29 385.29 25.56 384.29 22.79 384.19 19.26 383.55 16.2 382.53 13.91 381.97 11.32 379.74 5.81 377.12 5.72 374.07 3.59 370.72 1 366.35 2.19 365.74 3.09 364.81 6.66 358.62 6.76 357.51 7.34 356.55 7.46 355.2 8.4 353.96 9.13 352.66 9.23 351.69 9.73 350.92 9.82 350 9.4 349.04 10.54 347.1 10.17 346.63 10.54 343.71 10.06 341.62 9.23 340.52 9.06 339.05 8.2 336.78 6.88 334.91 6.38 332.58 5.89 331.27 4.36 329.88 4.85 329.27 5.05 327.47 6.03 325.93 7.54 324.48 7.83 323.59 9.78 322.37 10.52 321.7 11.27 320.57 12.3 319.74 12.53 318.66 13.55 317.04 13.56 316.17 14.82 315.69 16.24 311.9 17.41 309.69 17.35 307.52 18.25 303.15 18.45 300.61 17.8 297.81 16.54 294.23 15.67 290.66 16.58 288.32 15.65 287.85 16.03 286.31 14.84 285.83 15.31 283.86 16.87 282.06 16.25 280.42 17.81 277.57 18.75 277.33 20.22 276.47 20.99 275.18 22.02 274.67 22.71 274.01 22.65 273.37 23.25 272.57 24.05 269.64 25 268.76 24.86 267.65 26.6 266.29 27.16 266.04 27.14 264.67 26.59 263.26 27.32 262.5 29.06 262.22 30.18 261.37 29.71 260.46 29.39 259.08 29.7 257.71 30.65 255.43 30.78 253.8 30.61 252.54 32.05 251.03 32.31 250.44 31.56 248.05 32.34 245.81 33.3 244.58 33.13 243.1 33.6 242.51 35.6 242.75 36.14 243.15 37.53 243.06 40.26 244.51 42.07 243.62 42.78 244.95 43.45 245.45 45.86 246 46.63 247.34 49.06 246.96 50.6 246.42 50.73 245.96 52.5 244.27 52.06 241.65 53.71 241.37 56.03 238.69 55.6 235.23 57.03 234.16 58.07 232.54 58.91 231.73 59.29 230.87 60.22 230.23 59.86 228.07 59.59 227.25 60.01 226.42 58.94 224.71 58.68 223.49 57.76 223.11 57.52 222.02 57.96 220.74 56.69 217.72 53.39 217.2 53.36 215.74 50.32 213.64 50.93 212.4 50.6 211.82 48.53 210.52 49.92 208.81 50.13 208.03 50.81 207.33 51.07 206.59 52.2 206.21 52.95 205.62 53.73 204.54 55.12 203.85 55.98 204.16 56.56 204.78 58.5 204.78 59.29 205.31 61.31 204.88 61.91 204.34 67.09 201.49 68.12 199.82 69.98 198.59 71.36 195.5 70.89 194.03 70.02 193.03 70.4 192.36 70.71 190.93 71.66 190.33 74.98 190.88 76.06 190.58 76.93 189.73 78.47 189.73 81.3 187.15 81.91 185.78 82.44 185.33 84.51 184.52 85.17 183.75 84.48 181.62 85.08 180.96 85.51 179.92 85.73 178.32 85.32 177.08 86.07 176.34 86.38 172.98 86.72 171.83 86.44 168.75 87.71 169.34 89.76 171.49 90.08 174.02 91.39 174.64 92.36 174.84 93.16 176.28 94.54 177.42 95.27 178.84 96.18 180.24 97.17 180.71 98.27 182.02 98.51 184.55 98.01 185.85 97.73 187.64 98.05 189.36 98 190.4 100.14 190.69 100.5 192.16 99.45 194.31 99.5 195.06 100.14 196.05 100.48 197.53 98.95 201.23 96.28 205.69 97.43 206.25 99.08 206.23 100.59 206.77 102.29 208.36 104.56 204.23 108.54 201.26 108.48 199.69 108.88 197.71 110.64 195.16 112.18 193.56 115.8 191.15 116.3 190.58 118.85 188.64 119.95 188.04 120.86 186.76 122.63 186.97 124.95 187.7 125.75 189.12 125.63 191.8 127.38 190.91 129.51 194.09 129.59 194.66 132.3 195.11 137.76 196.81 139.22 198.07 141.32 197.01 141.96 197.11 148.38 202.24 150.46 204.82 152.66 205.18 154.58 206.39 155.64 206.52 157.46 207.41 158.15 208.19 159.33 209.11 161.2 209.84 161.69 210.8 162.38 213.23 163.3 217.22 164.19 217.66 164.95 217.01 166.82 216.07 168.64 215.77 169.94 216.04 171.45 215.83 175.05 215.04 176.65 215.25 179.47 216.75 180.91 218.68 187.1 217.16 188.44 215.95 191.24 212.54 193.6 212.23 196.76 212.03 197.84 211.7 198.57 211.13 201.92 210.28 203.08 209.64 203.41 207.81 204.82 206.77 207.03 204.31 208.72 203.95 211.84 203.06 212.92 200.9 214.32 199.65 216.03 199.06 216.11 198.15 215.31 196.31 214.77 194.11 214.92 193.09 216.63 190.05 218.03 189.37 221.29 185.72 221.8 185.3 224.16 185.54 225.5 184.34 227.28 184.26 228.28 183.7 230.94 183.1 232.64 182.03 233.57 180.99 234.96 180.15 235.83 180 236.56 180.33 238.14 180.65 239.81 181.69 241.7 179.31 243.12 176.9 243.91 174.39 244.45 173.98 246.47 170.71 246.38 170.48 247.16 168.68 246.9 167.1 246.94 166.31 246.55 165.14 247.22 162.89 247.58 160.68 248.48 157.71 251.39 156.99 252.93 157.45 254.17 156.89 257.75 157.82 259.04 157.15 259.84 155.48 258.98 153.69 260.94 150.43 262.8 149.59 265.77 149.05 266.39 148.58 271.18 146.25 273.29 141.01 273.68 139.49 272.16 135.26 270.84 133.15 272.04 131.22 273.3 128.07 275.18 127.02 275.11 124.13 274.17 119.84 272.91 116.52 271.86 115.75 269.79 111.02 269.76 107.93 269.43 107.03 269.83 104.84 270.22 103.49 272.33 102.83 274.8 100.75 279.91 95.4 279.94 94.4 283.39 88.34 284.53 88.36 285.98 87.92 288.89 87.71 289.82 88.21 292.43 88.78 294.46 89.48 299.82 87.45 301.29 88.25 302.56 88.28 303.58 88.59 305.62 89.61 306.96 90.13 309.23 91.56 310.95 92.4 314.85 92.78 317.27 92.63 319.09 92.85 320.84 92.86 321.71 92.46 323.78 92.37 325.95 92.7 328.8 90.63 330.81 91.48 332.57 92.35 333.96 91.99 338.14 92.54 338.81 91.29 341.11 90.44 340.06 88.45 339.88 87.41 339.37 85.93 338.55 84.65 338.25 82.37 339.51 80.04 339.29 78.66 339.8 77.4 339.8 76.03 340.34 74.03 341.49 72.8 341.77 71.94 341.83 68.08 340.77 66.53 340.66 65.55 341.81 65 343.83 62.66 345.58 58.23 347.23 55.13 350.1 53.59 351.03 52.71 353.82 50.47 355.35 49.47 353.76 47.98 352.91 46.42 352.56 46.13 351.71 44.53 350.61 43.68 350.39 43.16 346.94 38.47 345.02 34.54 345.52 32.82 345.84 26.37 347.44 26.07 348.84 22.09 349.65 18.71 353.71 16.64 357.18 15.79 359.5 16.75 362.33 17.49 363.49 16.82 364.89 16.7 365.4 16.33 365.72 14.81 366.83 12.62 369.49 11.38 370.32 11.23 371 9.66 373.86 10.09 377.23 9.07 378.51 10.73 379.77 11.53 380.41 10.2 384.2 7.49 385.71 5.84 387.08 5.28 387.49 3.24 388.22 1 389.69 1.73 390.93 2.58 391.74 3.93 392.95 4.97 395.36 5.3 399.19 9.29 403.46 11.76 405.32 11.71 405.75 11.26 406.51 8.21 408.46 10.35 409.3 11.78 410.38 12.82 412.8 13.95 414.02 13.6 416.27 13.79 419.37 11.64 420.83 12.52 424.65 16.09 427.64 17.47 428.27 20.65 429.84 22.34 430.32 23.74 433.19 24.72 434.64 25.41 436.12 27.09 437.58 27.27 438.05 27.7 440.15 30.66 441.35 32.04 441.82 33.57 445.22 34.41 446.5 34.45 448.61 34.07 450.49 34.89 453.29 35.94 454.75 35.88 456.19 36.85 459.06 36.84 460.83 37.06 464.38 38.32 465.55 39.89 466.53 42.75 468.42 43.72 470.04 45.5 471.27 46.18 475.51 49.47 478.61 48.4 483.86 48.26 483.87 50.31 486.62 45.61 488.14 42.78 488.35 41.68 489.51 41.41 491.7 38.61 494.69 37.71 497.09 36.71 499.01 35.71 501.77 34.71 504.4 34.17 507.73 34.52 511.02 34.02 Z" id="37070000"/>
</g>
</svg>