<?xml version="1.0"?>
<svg xmlns="http://www.w3.org/2000/svg" version="1.2" baseProfile="tiny" width="800" height="759" viewBox="0 0 800 759" stroke-linecap="round" stroke-linejoin="round">
<g id="sigung">
<path d="M 187.6 99.6 188.17 103.76 189.06 106.43 193.03 111.84 195.52 114.53 197.98 116.26 198.51 117.34 199.65 117.54 200.74 119.45 200.26 122.9 200.13 123.29 201.42 130.03 201.51 131.53 201.47 133.52 201.3 134.54 200.45 135.5 200.09 136.51 198.66 138.49 198.7 139.58 198.36 140.82 198.32 141.77 197.69 143.17 197.95 144.25 198.91 144.95 199.83 146.62 200.18 147.54 201.41 148.29 202.7 148.53 202.97 148.96 202.98 151.26 203.89 153 203.92 153.46 204.49 154.19 205.8 155.23 206.46 156.03 206.51 156.65 207.14 158.1 205.9 163.08 206.61 167.53 204.4 170.57 202.32 173.91 202.55 175.54 202.45 177.27 201.35 179.3 203.19 180.81 203.49 181.61 204.37 183.27 204.47 185.26 205.6 186.28 208.13 186.98 211.06 190.23 212 191.58 211.77 193.06 211.87 195.82 208.29 198.57 206.43 201.72 205.79 203.83 206.85 207.06 208.03 210.04 208.31 213.91 208.93 216.12 206.75 216.55 201.65 217.67 198 219.12 198.55 220.73 199.2 222.2 198.89 222.75 200.09 224.69 200.5 226.13 201.6 226.34 202.31 227.22 202.7 227.39 203.14 228.17 203.44 229.34 203.97 229.71 204.32 230.85 205.19 230.91 205.54 231.45 206.78 231.44 207.14 232.05 206.94 232.53 207.46 233.38 208.39 233.49 208.92 234.26 209.55 234.77 210.9 235.23 211.89 236.53 213.35 236.82 214.27 236.84 214.92 237.27 215.82 237.15 216.12 237.67 218.29 238.06 218.87 237.94 221.03 238.65 226.04 240.36 229.43 241.4 231.18 242.2 232.94 241.52 235.21 241.1 236.92 240.3 238.93 239.78 239.62 240.69 239.3 242.14 240.67 243.92 241.72 244.91 241.87 246.36 243 246.3 244.41 247.06 245.17 248.08 247.3 248.71 249.26 249.61 250.95 251.28 251.63 251.54 252.15 252.45 252.98 253.12 253.48 253.04 254.88 254.31 256.39 254.77 257.58 254.81 258.4 255.74 259.32 256 260.75 255.75 262.54 257.13 263.33 257.1 264.75 257.84 266.66 260.13 268.03 259.57 268.81 259.49 269.55 258.89 270.51 258.57 270.82 255.89 269.69 253.41 268.87 252.27 268.76 251.19 268.2 250.11 268.75 248.92 268.38 247.84 268.62 246.39 269.17 246.01 269.85 243.79 269.42 242.26 270.58 241.44 271.09 239.72 270.66 238.18 271.46 236.4 271.94 235.95 272.42 234.7 272.53 232.98 272.15 231.05 269.79 228.18 268.66 226.72 268.11 225.2 267.31 223.81 268.2 222.49 271.62 220.35 271.94 219.02 272.02 218 271.49 217.03 271.37 214.2 270.38 211.77 270.14 211.52 269.91 210.27 269.96 209.58 269.56 208.04 268.78 206.93 268.85 206.11 268.39 205.23 271.19 203.57 272.41 202.46 272.57 201.96 273.48 201.33 274.9 200.78 275.41 201.24 278.06 202.59 279.42 202.24 280.04 202.44 282.12 202.64 283.31 201.91 284.17 201.85 285.57 202.55 286.98 202.71 289.36 201.98 289.49 201.2 291.08 199.68 292.98 198.98 294.72 197.09 295.72 195.3 296.08 193.18 298.17 193.48 300.49 192.69 302.18 192.45 303.18 193.04 305.01 192.33 306.59 191.5 307.79 191.65 308.18 192.09 309.08 192.03 310.35 193.77 310.76 194.14 312.21 194.41 313.62 194.3 314.98 195.92 315.63 196.06 316.66 195.9 317.64 198.02 319.01 198.64 320.19 198.6 320.77 200.17 321.97 201.24 322.7 201.61 322.89 202.51 323.94 203.48 324.73 202.18 325.51 201.33 326.41 201.43 327.44 201.03 328.14 201.09 329.1 201.63 329.75 202.19 331.89 202.03 332.59 202.24 333.89 202.13 335.03 201.49 336.79 199.82 338.15 200.17 339.12 199.25 339.39 197.89 339.94 196.99 342 197.12 344.28 196.97 345.37 196.71 346.68 196.67 347.66 196.38 349.96 196.37 352.51 196.23 352.93 196.36 354.9 195.34 356.16 195.97 358.39 195.75 359.42 195.31 360.48 195.53 361.63 195.52 361.59 196 362.3 196.5 362.63 196.39 363.86 196.9 364.66 197.68 366.58 198.05 367.48 198.05 368.77 198.48 369.34 198.27 370.37 198.25 371.33 198.74 372.02 198.36 373.58 198.81 374.13 199.17 374.78 198.98 375.73 199.32 376.46 199 377.85 198.73 378.57 198.88 379.61 197.87 379.98 197.29 380.63 197.21 381.51 196.52 380.66 194.04 380.48 192.72 380.69 192.11 381.66 191.85 381.96 191.39 382.52 188.61 382.63 187.45 382.59 185.89 383.7 184.53 384.95 184.47 385.15 184.19 384.9 183.09 385.73 182.27 385.72 181.43 385.4 180.51 385.02 180.33 384.51 179.51 385.04 179.06 386.17 178.53 386.01 177.59 386.59 176.55 388.07 175.16 388.39 174.34 388.72 174.24 389.69 172.47 391.53 171.02 392.1 171.32 393.44 171.02 394.18 171.2 395.36 171.2 396.27 171.03 396.19 170.45 395.51 169.9 395.38 169.19 394.74 168.17 393.94 167.53 393.8 166.47 393.21 165.35 393.29 164.16 392.43 161.03 390.18 158.67 389.69 158.49 388.97 157.22 388.77 156.57 389.31 156.14 388.63 154.13 388.87 152.77 388.38 151.68 388.28 150.91 387.78 149.42 387.81 147.91 386.87 147.16 385.9 147.71 385.09 147.31 384.18 145.57 384.83 144.3 384.69 143 383.74 141.59 382.64 140.72 381.95 139.76 382.39 138.8 383.21 137.99 383.6 134.75 383.82 134.07 382.81 133.51 381.43 133.07 381.53 132.47 382.6 130.57 383.34 129.77 383.07 128.93 383.18 128.44 382.85 127.42 384.64 126.76 385.15 126.03 386.17 124.97 387.86 124.35 388.78 124.47 390.1 124.29 390.13 123.44 389.24 123.04 388.74 121.87 389.46 121.82 390.16 121.34 391.43 120.99 393.48 121.1 393.74 120.53 394.41 119.91 394.59 118.83 395.33 117.64 396.13 117.42 396.67 116.24 397.87 115.19 398.57 114.42 398.89 113.4 398.73 113.12 399.36 111.87 399.44 111.12 399.32 109.26 398.96 108.23 399.52 107.44 400.01 107.33 400.57 106.12 401.76 105.14 401.83 104.62 403.13 104.11 404.12 103.1 403.17 101.07 403.66 98.3 403.8 96.94 403.39 95.62 403.19 93.48 403.11 91.37 405.21 91.08 405.97 90.41 408.45 89.86 409.15 89.99 410.5 89.2 411.23 88.25 413.28 87.84 413.75 87.4 415.42 88.02 416.26 87.94 417.66 88.32 418.58 87.16 419.45 86.84 420.82 83.79 421.55 84.23 423.42 84.12 424.43 83.91 425.28 83 427.4 83.62 428.05 84.24 429.45 84.9 430.46 85.03 431.04 84.65 433.11 85.48 437.86 84.48 441.74 85.37 441.98 84.76 442.96 84.76 444.56 85.56 447.05 84.83 448.01 85.32 449.45 86.86 450.65 87.4 451.12 88.01 452.4 88.44 454.48 86.68 456.59 86.14 456.78 85.57 458.35 83.04 459.23 82.78 461.08 81.14 462.6 80.54 462.74 77.77 462.06 76.41 462.26 75.84 462.07 75.13 462.35 73.69 462.17 73.4 461.98 70.81 462.62 70.3 463.13 68.12 462.85 67.1 462.46 66.54 462.55 66.07 463.8 65.74 467.34 62.26 473.16 60.48 475.2 63.79 476.72 63.88 478.19 64.46 481.5 65.34 484.08 70.61 484.02 71.64 489.03 73.92 489.86 74.58 491.94 75.19 492.3 75.7 493.81 76.03 496.3 76.15 497.36 76.42 497.86 77.88 498.56 78.74 498.95 79.64 500.23 80.13 501.59 80.44 504.31 83 506.03 83.75 506.86 84.66 509.46 84.85 510.87 85.81 510.91 88.14 511.81 88.91 512.14 89.91 513.31 90.69 513.76 92.42 513.54 93.9 515.53 95.45 517.2 97.49 517.29 98.36 518.38 98.93 519.14 100.26 519.65 100.24 520.42 100.87 522.9 99.25 524.22 98.78 525.49 99.28 526.87 98.89 529.55 99.03 531.78 100.07 533.55 101.7 534.82 102.21 534.47 103.11 534.68 103.84 535.45 104.47 535.66 105.73 536.61 105.82 536.98 105.21 538.74 104.2 539.27 105.02 540.58 105.1 541.17 105.39 542.53 105.08 543.21 104.76 543.93 104.92 545.76 104.84 546.23 104.69 548.72 104.83 549.36 105.22 550.42 106.57 551.23 106.95 554.44 104.96 555.23 104.8 555.87 105.01 557.06 105.7 558.11 107.6 557.7 108.3 558.03 109.14 557.66 110.81 558.34 111.85 558.21 113.18 559.05 113.54 561.06 115.13 562.09 117.53 561.65 119.3 561.06 122.5 561.38 124.26 561.62 124.77 563.6 126.29 562.51 126.67 561.88 127.41 561.11 127.61 560.43 128.22 559.28 128.4 560.36 129.25 560.94 129.46 562.58 130.65 563.11 131.67 563.58 132.13 564.53 132.56 565.18 133.06 566.74 133.23 567.57 132.42 568.41 131.85 569.92 131.45 571.78 130.8 572.92 130.02 573.82 129.93 574.87 129.35 575.38 128.77 576.51 128.38 577.66 128.52 578.11 129.01 578.85 129.37 580.71 129.27 581.08 129.8 582.42 130.11 582.87 131.34 583.61 132.01 586.35 132.76 587.33 132.53 588.5 132.98 588.9 133.29 589.99 134.71 592.11 135.89 592.46 135.75 593.09 136.27 593.76 137.3 594.54 137.22 595.48 137.6 601.22 137.61 602.09 138.01 602.93 140.03 602.72 140.89 602.7 141.99 601.55 143.03 601.4 143.36 600.32 144.3 599.72 146.52 600.39 147.86 600.48 149.03 601.09 149.07 601.51 148.61 603.84 148.52 605.41 147.81 606.26 147.73 607.43 147.31 609.22 147.16 610.8 147.23 614.6 148 617.32 148.07 618.67 146.22 619.7 143.6 619.87 146.96 620.23 149.97 620.29 151.12 620.52 151.97 621.33 152.93 621.4 153.53 620.39 155.32 618.93 157.7 618.06 160.55 616.14 165.77 615.92 167.14 616.01 169.06 616.45 171.95 617 173.65 619.06 175.84 616.53 176.29 616.96 177.84 617.46 180.17 617.79 184.67 617.75 186.7 616.71 189.88 616.06 193.27 616.11 197.16 616.83 198.76 617.13 199.74 616.87 200.29 616.85 204.1 616.99 206.19 617.23 206.32 617.25 208.2 618 209.38 620.03 211.44 621.54 212.76 622.32 214.06 623.28 215.26 625.04 216.72 626.96 217.46 628.33 217.72 630.49 218.54 633.1 219.06 635.31 221.2 636.59 222.09 638.71 223.03 641.96 224.14 644.81 224.92 648.24 223.39 649.31 222.69 650.16 221.96 651.36 221.27 652.89 220.72 653.97 219.86 654.96 219.4 656.02 219.25 658.76 219.28 661.02 218.82 662.41 217.2 663.16 216.56 665.73 216.02 669.11 215.13 675.23 215.8 677.8 215.98 679.89 216.58 682.63 218.03 685.58 221.03 687.78 221.04 689.27 220.41 690.06 219.52 690.39 218.73 690.64 217.03 691.31 214.71 691.78 213.9 691.82 216.41 692.04 217.83 692.25 221.38 692.68 224.35 692.88 228.18 693.9 229.23 694.61 230.85 694.59 233.94 694.71 237.38 696.4 243.88 695.21 246.84 694.29 247.9 690.25 249.23 689.73 250.55 689.35 252.92 688.8 255.78 688.77 257.11 688.18 257.93 687.63 259.39 687.39 262.26 687.41 263.67 687.22 264.87 687.21 265.93 687.79 268.84 688.38 270.18 688.61 272.27 689.52 275.16 689.83 279.77 689.88 281.64 690.04 283.22 690.72 284.14 691.55 285.63 691.87 287.1 692 289.71 693.42 292.95 693.9 294.62 695.49 296.51 695.58 297.98 695.83 298 696.33 301.2 696.37 302.69 696.02 304.13 695.47 305.04 692.9 306.17 690.63 308.29 690.63 309.35 687.53 315.94 684.52 320.6 688.5 322.55 688.97 322.6 690.82 320.58 692.41 319.45 693.22 319.59 695.16 320.67 697.61 320.22 698.38 322.16 699.44 322.78 699.98 322.44 700.2 323.35 701.5 323.76 703.36 324.79 703.85 325.58 706.55 327.91 706.69 328.32 709.72 329.59 709.52 330.85 708.72 333.51 708.55 334.42 708.62 335.9 708.97 337.3 708.9 338.89 709.31 340.14 709.8 342.61 710.7 343.64 711.84 344.31 711.97 344.59 716.38 345.87 717.16 345.91 717.71 346.22 718.39 345.98 718.76 345.23 719.59 345.33 720.13 345.73 722.96 346.56 724.08 347.33 727.52 347.49 727.96 346.64 729.04 345.52 729.27 344.63 730.15 343 730.4 342.32 733.46 341.51 735.74 342.23 739.86 344.36 740.54 346.3 741.85 347.5 743.64 348.81 745.26 350.17 745.51 351.65 746.37 352.62 747.59 355 748.79 355.61 750.6 357.08 751.87 357.35 753.06 359.72 753.26 360.48 754.33 360.3 754.7 360.49 756.57 360.14 758.09 360.07 760.39 360.18 761.18 361.09 760.99 364.02 762.36 365.49 764.55 366.72 765.97 369.3 766.68 370.14 767.52 372.63 767.85 374.18 768.52 374.77 769.49 375.21 769.83 375.72 771.45 376.16 772.85 376.2 773.14 376.6 774.06 377.05 774.2 377.49 775.03 377.84 775.54 378.56 775.47 380.62 776.26 381.69 776.6 382.56 777.3 382.9 778.39 385.36 778.87 385.8 778.64 388.09 778.27 388.95 779.48 389.98 779.85 391.92 778.55 392.44 778.03 393.2 777.51 393.55 776.46 395.04 775.63 396.66 775.57 397.38 774.73 398.2 774.46 399.11 772.85 400.5 772.97 401.19 773.51 401.06 773.92 402.75 774.69 403.88 774.92 406.82 774.98 408.81 773.92 410.48 773.26 412.27 773.21 416.18 773.43 416.46 775.06 415.51 775.89 415.59 778.62 415.31 780.67 415.24 781.79 415.43 783.04 416.08 783.66 415.92 784.92 416.36 785.72 418.36 786.59 419.46 787.43 420.25 788.89 420.46 790.55 420.42 791.17 421.22 791.41 422.19 790.89 422.24 789.04 424.71 789.56 426.71 789.71 428.24 789.01 429.11 789.94 431.1 789.92 431.3 790.5 436.26 791.47 438.56 790.25 439.38 791.3 440.05 792.76 440.21 794.84 441.52 796.15 442.64 797.46 444.36 798.23 445.18 798.74 446.8 798.64 448.4 799 449.64 798.32 450.64 797.19 451.84 796.31 453.68 795.29 454.52 794.27 454.89 793.64 456.3 792.47 457.65 790.76 458.13 790.74 459.15 789.88 459.86 790.35 460.84 791.24 461.95 791.16 462.61 790.12 463.96 789.5 464.98 789.57 467.03 788.64 468.08 787.59 468.96 787.14 470.5 786.62 471.53 786.3 473.69 785.99 474.69 785.18 475.7 784.93 477.09 785.18 478.66 784.33 479.72 783.65 479.95 783.1 481.05 781.49 482.84 781.3 483.94 780.75 483.89 777.71 485.17 776.2 485.21 773.92 484.08 773.65 483.68 769.71 482.37 767.88 481.46 767.87 481.97 767.48 483.14 764.54 487.55 763.99 488.69 763.54 491.67 764.17 490.92 760.15 503.83 759.14 504.25 759.38 511.1 759.62 511.81 759.92 513.6 760.09 515.44 759.92 517.02 759.08 520.53 758.84 521.87 757.96 524.16 754.29 529.27 753.58 526.85 752.95 527.05 750.66 528.75 749.87 529.76 749.08 530.32 747.52 532.14 745.96 533.66 743.19 536.95 742.61 537.73 741.42 540.17 738.26 545.21 734.93 547.79 731.48 549.21 725.2 556.95 717.03 557.12 716.93 552.15 709.94 550.23 709.81 547.58 711.03 543.65 712.16 543.56 711.32 540.26 710.31 537.06 709.86 536.37 706.08 532.82 700.12 529.53 698.96 528.94 695.52 530.76 689.97 530.74 688.82 530.29 685.85 529.86 683.17 528.46 681.89 528.22 678.88 531.83 674.23 533.7 673.84 535.49 672.88 536.26 671.11 538.18 671.55 539.54 671.81 541.31 672.51 542.65 672.76 543.74 672.65 545.2 672.25 545.96 671.77 548.57 669.56 548.2 668.15 548.97 667.52 549.13 665.84 550.01 664.92 550.74 663.92 552.19 663.65 552.9 662.26 554.55 662.01 555.72 662.1 556.56 661.95 557.68 661.08 557.39 660.84 558.34 661.07 558.82 659.57 558.76 658.53 560.77 657.94 564.62 656.12 567.49 656.23 568.49 653.95 571.68 653.44 573.35 650.98 578.04 648.95 580.46 644.77 582.09 643.8 584.6 643.59 585.98 643.72 589.38 644.47 592.93 644.18 592.94 642.43 593.75 642.81 596.21 643.3 602.26 643.83 606.78 642.59 610.31 642.55 614.95 641.18 623.28 640.7 624.83 639.92 626.57 639.66 627.98 640.02 629.13 640.89 629.86 640.5 632.29 640.88 633.35 640.59 634.04 639.75 634.5 640.03 636.28 639.37 636.19 638.59 635.76 636.03 635.8 634.96 635.33 634.32 634.64 634.5 632.84 633.94 631.84 632.67 631.14 632 631.02 632.06 630.48 630.34 629.57 629.73 630.14 628.15 629.9 626.04 629.11 624.49 629.49 621.9 632.48 618.92 632.11 617.6 632.59 616.39 633.58 616.01 634.53 615.99 635.09 615.49 635.53 614.8 636.76 613.48 638 612.31 638.73 611.93 639.75 610.79 640.39 610.55 641.03 609.76 641.1 609.17 642.82 608.78 643.02 608.25 643.93 606.3 644.56 605.94 644.86 604.08 644.56 602.15 645.25 599.08 645.9 596.13 646.12 595.84 646.37 593.3 645.58 592.34 644.11 590.58 642.57 589.27 642 588.2 642.51 586.86 642.86 585.89 643.42 585.6 642.92 584.5 642.62 583.51 641.7 582.81 641.32 580.98 641.52 580.51 642.32 580.15 644.02 578.21 645.77 577.35 646.11 575.65 647.59 572.77 646.52 570.69 646.52 569.29 645.95 568.14 645.66 566.77 646.01 566.03 646.93 564.41 647.16 560.28 646.49 558.8 646.42 557.1 645.79 556.83 644.63 555.69 643.75 553.1 643.27 552.21 643.9 551.07 644.05 550.37 644.5 550.11 645.68 548.65 647.12 546.28 648.49 545.13 648.31 543.96 648.85 541.77 647.95 540.68 648.74 537.38 648.98 537.05 650.04 535.48 651.6 533.86 652.26 531.59 651.9 530.34 653.57 530.3 656.06 527.26 659.07 525.77 661.1 524.4 662.07 523.23 663.44 520.59 663.91 519.24 663.31 518.14 663.01 517.22 663.48 515.63 664.82 514.88 667.27 509.9 668.24 509.31 670.47 508.67 671.51 507.43 672.55 507.26 673.88 506.03 675.36 505.59 676.64 505.68 678.8 506.72 680.03 506.59 680.33 505.52 680.47 505.3 681.92 504.88 682.57 503.87 685.32 502.57 686.54 501.99 690.8 501.24 691.48 502.14 692.86 500.4 695.18 500.1 697.59 500.5 698.46 499.81 702.09 501.59 703.72 502.11 705.33 504.37 709.17 505.66 709.98 506.49 710.95 506.94 713.18 506.8 714.19 506.13 714.82 505.82 716.89 505.49 717.44 505.55 718.77 505.87 719.45 505.57 721.06 506.03 721.67 506.11 722.62 505.43 723.33 504.99 725.06 504.43 726.35 502.88 727.8 502.32 727.86 501.5 728.39 500.17 728.36 499.31 728.76 498.31 728.9 497.85 730.08 497.75 732.12 495.43 731.59 494.76 731.17 493.9 731.27 492.42 730.44 491.21 730.47 488.07 729.7 486.71 730.08 485.19 729.59 484.79 729.69 483.75 728.85 482.99 728.98 482.22 728.8 481.87 729.16 482.95 730.71 482.02 731.15 481.91 731.97 481.35 732.47 480.8 734.25 481.16 735.22 481.08 736.89 482.71 739.36 482.88 740.17 483.54 741.38 482.64 742.23 482.67 742.45 482 744.1 481.28 744.59 481.07 745.46 480.53 746.4 480.31 747.14 479.11 747.75 478.17 747.94 477.83 748.35 477.07 748.61 475.42 748.68 474.65 749.66 473.19 750.43 472.34 751.68 472.26 752.39 471.69 752.59 470.84 753.56 470.54 755.05 469.85 755.61 468.39 756.13 466.96 757.7 465.15 758 464.61 756.53 464.02 755.84 464.39 753.27 464.11 752.83 463.46 752.97 461.77 752.03 459.97 751.32 458.51 749.9 457.61 748.3 456.28 747.67 455.41 746.71 455.38 745.5 454.55 743.71 454.78 742.97 453.9 741.87 453.14 741.56 452.46 740.71 452.34 739.78 451.57 738.31 451.72 737.46 451.39 736.57 450.57 736.28 450.12 734.84 449.35 733.58 448.26 732.64 447.55 731.76 447.12 730.82 445.03 731.37 444.45 731.62 443.38 731.12 441.27 731.13 440.66 730.32 439.4 728.26 438.52 729.73 436.86 730.7 435.48 731.73 435.75 733.4 435.05 734.89 434.28 735.63 434.11 736.62 433.31 736.99 432.78 737.67 431.41 738.48 430.76 739.3 430.06 739.53 428.32 738.58 427.95 738.74 427.47 740.31 427.1 740.86 426.46 742.44 425.76 743.28 424.66 743.8 424.37 744.4 422.56 745.61 422.43 746.24 421.81 747.58 422.38 748.77 421.62 748.86 421.25 749.85 420.23 749.93 418.73 750.93 417.56 749.95 415.84 749.4 415.06 749.42 414.59 750.03 413.86 750.07 412.88 749.42 412.03 748.39 409.35 747.63 408.37 748.31 407.83 748.18 405.84 748.13 404.09 748.4 403.31 748.31 401.89 747.01 401.79 746.38 400.57 745.35 400.33 744.76 399.54 744.22 395.58 741.85 394.82 741.56 394.7 742.64 394.1 743.79 393.11 743.85 391.96 744.27 389.79 745.83 389.54 747.18 385.82 746.56 385.13 746.75 384.28 746.43 383.59 746.51 382.39 745.83 380.61 746.18 379.43 746.11 378.21 744.99 378.05 743.85 377.03 743.19 374.78 740.44 374.35 738.13 373.87 737.75 373.1 736.33 373.26 735.54 373.81 734.82 373.6 734.38 373.46 732.62 372.39 731.92 372.07 731.57 372.88 729.06 373.98 727.09 374.12 725.7 374.68 723.87 373.28 723.49 372 722.7 371.05 721.87 369.14 720.58 367.71 720.35 367.21 720.41 365.01 720.27 363.3 719.15 360.02 717.53 358.1 717.19 356.16 715.88 354.61 715.06 353.79 715.07 353.3 714.58 352.49 714.36 351.78 714.79 351.06 714.25 350.76 712.21 349.4 710.09 348.77 709.45 347.55 708.87 346.33 709.29 344.53 708.23 344.22 706.73 343.46 703.64 342.02 703.99 340.12 703.84 338.56 704.34 335.91 704.78 332.92 704.84 331.61 704.03 330.13 703.94 327.87 703.06 327.21 701.02 326.02 700.27 325.72 699.83 324.18 698.61 323.36 698.37 322.47 697.23 321.55 696.51 320.04 696.17 318.22 696.45 317.07 697.01 316.05 698.54 314.77 698.96 314.45 699.54 313.06 700.3 311.83 700.25 311.16 702 309.75 703.65 309.07 703.98 308.64 704.51 307.38 704.82 306.81 705.98 305.71 706.67 303.55 704.31 303.08 703.42 302.63 703.14 301.34 703.9 300.92 703.62 299.52 703.67 298.44 704.5 297.6 704.64 296.29 705.27 295.88 705.96 294.98 706.58 294.45 707.32 294.2 708.41 293.09 708.98 292.9 710.96 292.19 711.38 291.82 711.97 291.17 712.37 290.08 712.14 289.21 712.54 288.22 712.32 287.12 711.56 286.1 711.79 285.77 712.39 284.92 713.03 282.38 713.18 281.51 713.44 277.47 712.02 276.54 713.18 275.91 713.53 275.75 714.17 275.17 714.99 274.82 715.84 274.18 716.18 273.83 717 272.64 717.22 272.33 717.56 270.98 719.99 271.8 721.8 272.85 723.56 272.79 724.78 273.86 725.78 273.95 726.4 273.42 728.48 273.08 728.56 268.01 731.51 265.7 732.2 264.17 733.04 263.59 734.26 262.11 736.19 259.65 736.22 258.52 736.35 255.99 734.22 255.1 733.6 253.63 731.23 250.44 733.08 250.22 733.29 246.82 732.77 246.39 732.48 245.76 731.14 243.52 729.64 242.63 727.83 241.72 727.22 241.1 727.25 239.76 724.92 239.41 724.87 238.59 724.08 237.8 724.37 236.35 724.23 235.59 724.82 234 724.75 232.58 725.08 230.72 725.18 229.38 723.67 229.22 721.44 229.76 720.31 229.76 717.96 229.39 717.38 229.03 714.96 229.48 713.43 228.35 710.17 228.31 709.64 228.53 707.76 227.77 706.03 225.45 706.41 224.15 706.06 222.76 706.62 221.08 707 220.26 705.98 219.08 705.69 216.34 704.56 215.05 703.21 213.89 702.84 213.48 701.98 212.72 701.07 212.4 699.14 211.83 698.98 210.57 697.64 209.99 697.18 209.07 697.1 208.64 696.55 208.71 696.12 208.03 693.4 207.68 690.47 206.03 688.99 204.97 689.03 203.43 686.71 201.33 686.47 196.93 685.57 195.52 684.06 194.94 684.47 192.61 685.56 189.51 684.28 189.22 684.04 185.09 682.89 180.77 679.94 176.59 678.03 174.92 677.6 172.2 675.5 169.86 673.45 168.39 671.68 167.27 667.72 166.04 663.13 167.19 660.46 166.76 655.71 165.75 652.65 165.9 652.42 166.01 649.76 165.44 648.04 165.36 647.39 164.36 645.15 163.97 644.61 162.64 644.88 160.02 647.19 158.76 648.48 157.35 650.15 155.51 651.71 153.55 653.97 152.29 656.14 151.56 656.48 150.32 658.25 150.15 658.77 148.41 660.71 146.27 662.03 145.76 663.51 144.85 664.46 143.82 666.37 143.11 666.94 141.38 670.36 140.54 672.47 139.57 675.78 138.67 676.99 137.94 680.71 137.27 682.6 137.29 683.37 136.21 685.72 135.86 686.67 134.06 690.26 133.51 692.95 132.69 695.11 128.38 693.16 123.54 691.48 121.13 691.12 119.66 690.98 117.57 690.52 114.77 690.15 111.53 690.61 110.27 690.14 108.38 690.72 107.09 691.44 106.55 691.93 104.86 690.83 104.21 690.74 100.69 689.39 99.91 689.85 99.55 690.5 97.87 691.08 96.45 691.29 95.4 691.93 94.15 692.42 92.69 692.67 90.33 694.05 89.08 695.26 88.2 695.35 86.25 694.23 86.33 693.47 86.83 692.41 86.42 691.05 85.62 689.76 86.03 687.87 85.87 687.02 84.93 684.48 84.53 683.81 83.98 682.06 85.03 680.39 85.04 677.86 84.73 677.13 83.77 673.97 84.1 673.55 84.25 672.67 83.85 672.51 83.34 669.7 83.37 668.27 81.93 666.3 81.1 665.45 79.82 663.64 78.96 661.63 78.39 659.54 78.11 659.45 78 657.39 78.31 656.03 78.3 653.82 78.55 653.63 78.93 652.32 79.25 651.99 79.32 649.92 79.9 648.52 79.78 646.62 79.28 646.12 78.56 644.47 77.13 642.23 77.23 640.08 76.19 638.21 75.25 637.62 74.44 636.92 73.51 634.68 71.9 633.19 71.73 629.94 73.67 626.18 75.1 624.84 76.33 623.83 76.37 622.98 75.7 620.77 75.96 620 77.26 618.34 77.08 618.23 77.26 617.43 77.72 616.67 77.9 615.18 78.11 614.97 79.14 615.3 80.94 614.2 82.41 613.61 82.89 612.16 84.64 611.25 85.29 609.45 85.31 608.08 86.22 604.43 86.02 603.9 85.81 602.18 85.76 599.51 86.91 598.39 87.11 596.9 86.66 595.55 87.68 594.22 87.7 593.48 86.89 592.83 87.89 590.89 88.02 590.01 88.73 590.11 89.34 590.55 89.52 591.13 90.65 592.38 91.67 591.85 92.5 591.71 93.05 591.31 93.72 591.19 93.95 590 95.17 589.35 96.05 589.05 97.51 587.69 99.03 586.78 100.1 587.58 101.29 587.85 101.31 586.57 101.15 585.3 100.72 584.24 100.73 583.44 102.03 582.07 103.97 583.11 104.8 583.68 106.97 583.11 107.2 580.65 108.65 580.63 109.9 580.14 110.53 578.85 110.54 577.95 110.82 577.34 111.6 576.53 112.75 576.03 113.06 575.44 113.02 574.79 113.35 573.29 113.97 572.58 114.03 571.09 113.17 569.18 113.23 568.89 115.85 567.75 118.31 565.9 119.75 566.01 120.97 565 121.76 565.48 122.63 564.99 123.33 564.81 124.89 565.5 125.49 565.3 126.03 565.48 126.66 566.11 127.54 565.93 128.26 565.35 129.6 565.88 130.77 564.73 131.45 564.32 131.36 563.68 131.81 562.66 131.63 561.95 131.68 561 132.18 560.54 133.03 558.62 135.08 558.5 135.63 556.58 135.28 555.55 134.93 552.43 135.07 550.13 135.75 548.35 139.48 546.6 141.43 545.39 142.86 544.9 143.34 544.9 143.68 542.02 143.36 540.63 143.92 539.26 142.37 536.46 139.56 533.71 138.1 532.75 136.91 532.2 135.91 529.91 136.03 528.62 135.22 527.83 135.2 527.16 135.47 526.68 135.38 525.1 134.81 523.42 134.91 522.64 132.9 520.89 132.87 520.04 132.6 519.5 129.67 518.84 127.32 518.52 127.06 518.07 127.42 517.04 127.89 516.4 129.39 515.7 130.14 515.17 130.54 514.47 131.7 513.11 131.8 512.25 132.2 511.72 132.49 510.29 131.7 507.33 131.99 505.54 132.53 505.19 133.17 502.5 131.98 501.52 132.05 501.06 131.46 500.22 130.89 500.03 130.25 498.83 128.87 498.57 128.26 498.65 127.64 497.53 125.84 496.51 125.09 494.03 125.21 493.61 124.51 492.87 124.41 492.41 124.86 490.95 124.25 490.16 124.22 489.4 123.41 488.7 123.05 487.08 121.72 485.94 121.47 485.01 120.57 483.65 120.63 483.44 119.3 482.64 118.01 482.63 117.5 483.17 115.83 482.92 115.39 483.38 114.48 483.23 113.91 482.38 113.2 481.95 112.27 481.73 110.95 481.81 110.12 482.62 109.06 482.5 107.42 481.69 104.38 482 103.67 481.1 103.36 480.31 102.9 479.8 101.81 479.31 101.95 478.23 103.32 477.56 105.27 477.3 106.4 476.58 106.54 475.95 106.14 474.9 105.73 474.51 106.03 472.99 105.23 472.37 105.28 471.51 104.94 470.81 105.19 469.99 104.85 469.48 104.21 469.17 103.18 466.95 103.2 465.04 103.72 463.68 103.06 461.03 104.17 460.64 107.08 460.86 108.14 460.82 109.25 459.91 111.32 459.87 111.99 459.4 112.18 458.76 113.38 458.61 113.78 458.15 115.17 457.26 115.96 455.94 116.4 455.75 117.36 454.51 116.97 453.89 117.22 453.46 116.81 451.91 116.66 449.11 117.51 447.71 118.78 446.05 119.8 445.9 120.18 444.28 120.11 443.33 120.34 442.61 119.94 442.27 120.19 440.38 120.66 440.25 121.02 439.43 121.66 438.9 122.19 437.88 122.81 437.63 125.11 436.24 125.62 434.49 126.85 432.77 127.83 430 129.35 429.09 129.73 428.49 130.18 427.25 130.34 426.11 130.42 422.9 130.33 422.16 127.96 421.96 127.33 422.29 126.49 422.11 125.31 422.37 124.16 422.19 123.09 422.97 121.48 422.95 118.84 423.12 118.35 422.82 117.09 423.2 116.08 422.42 117.23 419.02 118.77 417.35 119.48 417.15 119.84 415.65 119.44 414.82 119.27 413.9 119.62 412.62 119.38 412.34 118.93 410.95 118.59 410.3 118.8 407.49 119.06 406.94 118.28 405.99 118.08 405.16 118.11 403.48 117.49 402.62 117.19 401.78 116.41 400.53 116.66 399.48 116.57 398.71 116.96 397.64 117.67 396.99 116.76 395.61 116.38 394.59 114.47 392.34 113.51 392.07 113.45 391.11 113.93 390.89 115.23 390.92 115.98 389.85 116.34 388.29 116.55 388.01 116.86 385.35 116.35 384.17 117.06 381.72 117.06 380.7 118.28 377.93 119.21 377.64 120.06 377.64 122.09 376.85 122.67 376.25 123.45 374.85 123.44 372.95 123.79 371.45 124.76 370.4 125.38 368.35 124.7 366.87 124.06 366.43 124.29 361.7 125.55 360.85 126.16 359.79 126.34 358.25 126.77 356.65 128.59 354.23 128.21 353.13 127.3 351.14 126.51 350.08 126 348.76 124.28 347.18 123.24 344.79 124.1 344.18 124.87 343.41 126.05 342.78 126.8 342.15 126.74 341.02 125.89 338.28 125.88 337.24 126.95 335.28 126.34 334.32 125.98 332.23 127.59 330.58 128.14 330.16 128.97 328.8 128.2 325.87 128.29 325.38 128.01 324.71 127.36 324.25 127.11 322.82 126.31 320.2 125 319.62 124.65 319.65 122.98 318.7 121.55 316.97 120.02 316.13 118.45 315.67 118.75 312.93 119.01 312.39 118.77 311.13 119.23 309.5 119.56 306.23 123.4 304.16 125.05 303.9 125.78 303.28 125.6 302.35 124.86 300.88 125.88 297.29 126.66 297.18 128.14 297.47 129.6 297.13 131.19 297.06 132.86 296.56 133.18 297.14 134.27 297.7 135.94 297.2 136.93 297.77 137.95 297.42 139.36 295.51 140.15 294.28 140.78 293.86 143.95 292.16 144.38 291.19 145.44 289.75 146.7 288.68 146.85 287.88 148.99 287.57 150.87 287.62 152.41 286.15 153.37 285.6 155.54 284.79 155.43 283.62 155.6 282.7 156.25 281.37 158.55 279.14 161.04 277.49 161.49 276.37 161.73 275.36 163.18 273.62 163.49 272.16 163.19 270.21 162 269.44 162.02 268.49 160.35 267.36 158.81 264.83 158.58 263.14 158.1 261.85 157.62 261.11 157.84 260.8 158.14 258.72 158.55 257.81 158.61 256.19 158.86 255.41 158.7 254.42 159.01 253.48 158.36 253.11 158.28 252.64 157.44 251.9 157.09 251.26 156.03 250.9 155.58 249.55 156.54 248.62 157.16 247.27 156.7 245.89 156.22 245.34 155.6 243.15 155.46 242.33 155.79 240.98 155.25 239.48 155.54 238.9 155.65 238 156.01 236.97 156.82 236.2 156.87 235.87 157.69 235.04 157.47 233.92 155.96 232.73 153.25 231.63 152.31 229.97 150.02 229.05 149.26 228.88 148.48 228.34 145.82 230.02 144.4 229.88 143.55 229.62 142.32 228.79 141.52 227.57 140.97 227.34 139.91 226.05 137.95 225.03 137.28 223.93 135.76 224.29 134.89 223.76 132.89 223.5 132.17 223.07 131.48 222.28 130.27 222.42 129.39 221.81 128.35 222.14 127.28 221.91 126.24 222.13 125.5 221.73 123.96 222.28 123.06 222.21 121.68 220.72 119.73 219.04 118.58 218.6 118.76 218.07 117.81 216.47 117.47 214.48 117.29 212.65 116.24 211.12 115.46 210.3 114.03 209.37 111.65 208.54 110.45 207.61 110.83 206.88 111.11 205.49 111.14 202.69 111.72 201.22 112.57 198.15 113.13 196.88 113.99 192.17 113.69 189.18 112.48 186.77 111.4 182.23 109.96 178.02 108.13 176.85 104.3 175.77 103.63 173.27 101.46 169.29 99.43 168.18 97.3 166.91 95.09 165.89 95.27 164.69 95.35 162.21 90.96 159.34 88.2 158.39 83.51 156.51 78.44 156.99 77.97 157.59 72.53 160.31 70.24 160.56 69.79 159.04 69.28 157.75 65.68 158.5 63.53 158 61.18 158.61 59.77 157.87 59.67 156.74 58.72 154.84 56.95 153.17 53.36 152.27 51.02 151.13 49.51 152.98 48.55 155.25 47.48 157.49 46.97 156.16 42.78 157.3 41.5 155.75 38.97 154.38 38.45 153.38 36.91 152.54 35.08 151.25 33.51 150.55 32.35 148.33 31.48 148.35 31.3 146.96 31.37 145.82 30.56 144.41 29.32 145.14 28.45 144.71 27.83 143.51 26.52 142.92 25.82 141.86 24.9 141.8 24.42 142.11 23.43 141.99 21.95 141.07 21.41 141.28 20.35 141.19 20.02 140.31 19.42 140.29 18.67 140.76 16.05 139.09 15.44 138.38 14.62 138.62 13.99 138.56 13.66 136.5 12.86 134.79 11.86 134.56 11.55 133.55 10.34 133 9.13 132.98 7.66 131.48 7.46 129.99 5.74 129.85 4.53 129.47 4.52 127.97 5.09 126.89 6.1 125.64 5.87 123.86 5.2 123.22 4.57 121.57 3.23 120.72 3.15 119.6 1.68 118.23 1.43 115.29 1 113.51 1.56 111.76 2.56 110.26 2.11 108.82 2.18 107.54 2.78 104.37 3.49 103.02 3.75 102.19 4.33 101.13 5.32 100.58 9.42 101.5 11.18 100.97 13.28 98.89 14.91 98.57 15.97 98.18 17 96.45 17.35 96.43 18.1 95.66 18.66 94.28 20.06 93.76 21.82 92.41 22.43 92.18 23.84 91.31 24.59 91.19 25.42 90.8 27.35 91.22 29.45 90.15 29.71 89.75 30.92 89.92 31.86 89.87 32.7 89.38 33.55 89.61 34.34 88.35 35.99 86.78 36.86 85.52 37.5 83.9 37.37 82.52 37.02 80.51 38.67 81.19 38.56 81.66 39.58 82.24 41.41 82.18 42.13 82.49 42.73 83.23 45.31 83.86 46.6 85.03 48.82 83.57 48.75 83.18 50.09 81.63 51.76 81.87 53.34 81.64 53.52 81.36 54.47 82.25 55.13 83.29 56.04 83.62 56.59 84.23 57.86 84.18 58.8 84.78 60.13 85.91 61.1 86.13 61.42 87.43 62.49 87.9 63.08 87.94 63.49 88.36 64.32 88.2 65.88 89.34 66.64 88.44 69.57 86.74 69.97 86.28 72.73 84.54 74.17 84.15 75.42 84.14 75.82 83.43 77.49 81.96 78.1 81.02 79.1 80.48 79.68 80.37 80.56 80.57 81.74 80.22 84.3 81.23 86.99 82.66 88.44 81.81 91.51 79.62 90.28 77.31 89.26 75.11 87.68 72.32 84.86 71.2 83.7 71.55 81.04 70.98 79.85 70.06 79.01 68.77 78.99 65.89 77.55 64.07 76.93 62.43 76.26 60.97 76.05 59.09 76.6 57.59 77.63 56.5 78.47 53.78 79.27 52.68 80 51.41 79.78 49.15 79.92 47.6 78.55 46.11 76.36 44.64 74.31 42.7 75.05 42.41 76.25 42.34 77.45 41.51 78.64 41.77 80.24 41.62 81.05 41.22 81.78 40.31 82.11 39.37 83.12 39.98 83.46 41.13 84.54 41.37 85.27 41.36 86.45 40.91 88.65 41.71 89.68 41.12 91.31 40.7 92.82 39.96 94.55 40.02 95.52 39.65 96.51 38.67 96.83 37.85 96.88 36.84 97.74 36.31 98.09 35.8 98.12 34.38 98.39 33.76 98.35 32.03 98.7 30.32 101.44 29.23 103.2 25.89 103.93 25.3 103.88 24.05 104.37 23.99 108.26 21.48 108.3 20.49 107.61 18.98 107.9 18.33 108.09 15.92 107.83 15.52 109.12 14.89 111.4 12.9 111.61 12.01 112.39 10.79 112.98 9.35 112.83 8.38 113.2 7.13 113.2 5.68 113.56 4.99 113.66 4.18 115.15 3.42 116.3 2.06 117.12 1.71 122.51 1 122.69 4.01 123.33 5.27 124.36 8.32 124.74 11.2 125.34 14.01 125.56 14 125.84 15.35 125.86 16.7 126.06 17.96 125.82 18.03 126.09 19.55 127.35 21.71 128.49 22.72 128.88 22.41 129.48 23.43 129.91 26.25 130.89 27.27 132.84 28.38 133.94 28.71 134.47 29.63 135.49 30.09 135.83 30.51 136.38 32.06 136.52 34.69 136.27 37.12 135.82 38.03 134.67 39.47 134.39 40.97 135.64 43.19 135.65 44.86 135.41 46.46 135.72 48.05 136.57 49.86 137.8 51.4 138.86 51.76 140.89 52.09 142.23 52.07 143.11 52.25 144.1 52.82 144.62 53.34 146.77 54.72 147.88 55.14 149.54 55.38 150.84 54.89 152.09 54.65 153.34 54.56 154.36 53.64 155.45 53.55 156.62 53.68 158.22 54.6 159.92 56.24 160.61 56.54 162.16 56.76 163.84 56.34 164.76 56.48 165.17 57.19 165.68 58.68 165.55 59.08 164.75 60.13 164.47 60.8 164.88 63.28 166.49 66.41 167.58 68.8 168.4 71.78 169.01 75.67 169.64 77.08 171.15 79.38 172.77 81.24 174.41 82.51 177.56 85.26 179.01 86.3 179.97 87.6 179.54 90.93 179.94 97.11 180.29 98.08 181.79 101.29 183.62 100.32 185.27 100.12 187.6 99.6 Z" id="37080000"/>
</g>
</svg>