<?xml version="1.0"?>
<svg xmlns="http://www.w3.org/2000/svg" version="1.2" baseProfile="tiny" width="800" height="543" viewBox="0 0 800 543" stroke-linecap="round" stroke-linejoin="round">
<g id="sigung">
<path d="M 180.35 19.35 181.45 20.1 183.18 20.49 185.44 21.55 185.98 21.71 187.9 21.55 189.69 22.81 190.05 23.72 191.57 25.71 190.42 27.2 189.52 28.64 188.6 29.43 187.43 31.2 186.56 31.64 185.85 33.35 185.11 34.24 185.34 37.05 185.52 38.1 185.98 39.23 186.45 39.9 186.76 41.08 186.74 41.81 187.42 44.52 186.76 47.49 187.33 48.16 188.54 48.33 189.91 47.45 191.76 48.06 192.57 49.31 195.05 52.11 197.05 53.52 199.17 54.65 200.39 55.13 201.52 57.33 201.69 58.36 202.57 59.29 203.77 59.66 204.55 60.38 205.71 60.63 206.6 61.29 207.4 61.35 208.88 63.3 210.1 63.85 210.99 63.62 211.88 65.12 213.3 66.08 214.33 65.94 215.02 66.27 215.37 65.58 216.3 63.38 218.71 61.43 219.38 63.63 219.73 64.32 221.21 65.56 221.82 66.62 222.52 67.12 223.11 67.22 224.01 66.89 224.76 66.12 225.03 64.59 224.92 62.17 225.13 59.51 224.98 58.12 225.24 57.06 227.09 55.53 226.79 53.64 227.24 53.19 228.28 53.3 229.65 52.96 233.91 52.69 235.02 52.47 236.09 52.88 239.51 53.16 240.31 53.48 241.01 53.27 241.13 52.56 240.88 50.93 241.3 50.33 241.52 47.86 241.4 42.09 242.94 40.79 242.79 37.27 242.63 37.03 243.39 34.71 241.68 32.06 241.84 29.7 242.29 29.42 242.26 28.76 242.92 28.12 243.92 27.85 244.41 27.47 246.22 28.08 246.97 27.7 248.53 27.22 249.52 27.27 250.8 28.27 251.29 28.34 253.22 27.25 255.7 27.35 256.75 25.86 257.54 25 257.81 24.48 258.99 23.44 260.87 23.04 261.17 22.64 262.57 22.65 264.14 23.62 265.49 23.62 266.44 24.28 267.42 24.14 268.37 24.78 268.98 25.97 269.76 26.6 270.84 27.8 271.88 29.53 272.07 30.71 272.59 31.42 272.22 32.91 272.82 34.79 272.86 35.54 273.49 36.59 274.55 38.87 274.56 42.83 274.8 43.53 276.21 45.3 276.5 45.89 277.89 46.96 278.77 48.05 279.6 50.65 280.89 52.12 282.27 51.04 284.11 50.9 285.16 50.44 287.08 50.05 288.64 51 290.71 53.77 291.42 53.91 292.3 54.34 293.22 53.9 294.45 53.97 295.63 54.94 296.34 54.93 296.97 54.63 297.86 53.31 298.26 52.98 299.73 53.68 300.89 53.16 301.43 53.4 303.96 53.06 305.98 54.43 307.36 53.37 308.25 52.05 309.16 52.2 310.86 52.73 311.33 53.14 312.7 53.36 314.79 52.84 316.21 53.33 316.43 54.21 317.29 55.13 317.43 55.76 318.07 57.21 319.31 57.66 322.33 57.9 323.25 57.18 324.13 57.4 324.86 57.21 325.81 58.83 325.83 59.34 326.81 60.86 327.27 61.19 327.34 61.6 328.5 62.12 328.57 62.58 329.23 63.52 329.97 63.7 330.78 65.47 331.81 65.66 334.3 64.81 335.62 65.09 337.2 65.29 338.52 65.23 339.1 66.04 339.54 66.2 340.8 67.28 341.39 68.7 341.78 72.17 342.92 74.16 342.46 75.1 342.48 76.31 343.31 77.37 342.35 79.3 341.98 80.38 342.55 82.44 341.93 84.62 342.75 85.81 342.62 88.46 344.41 90.49 345.25 90.99 346.09 91.21 346.89 91.91 347.26 92.44 348.19 92.5 350.37 93.49 351.29 94.32 350.48 96.53 350.63 97.59 350.2 98.61 350.95 100.7 352.21 102.13 352.91 103.93 352.55 105.06 352.63 106.17 353.25 107.09 353.72 108.73 354.71 109.71 356.7 111.38 357.11 112.12 359.03 112.47 358.69 113.88 360.27 114.9 359.91 116.44 360.61 117.07 360.72 119.02 359.76 121.3 360.67 122.18 360.93 122.62 361.5 125.9 366.21 128.3 367.12 129.82 367.32 130.73 367.94 131.7 368.11 132.56 368.53 133.56 369.1 134.53 369.92 135.47 370.95 136.16 371.91 138.56 373.11 139.9 374.07 142.97 374.89 143.52 375.56 144.49 375.67 145.63 378.2 146.29 379.65 145.77 380.47 145.74 382.07 145.47 383.96 144.4 385.21 145.1 387.1 145.04 387.65 145.15 388.66 146.12 389.71 145.84 391.57 146.79 392.39 147.6 393.11 147.84 393.35 148.45 394.64 149.79 396.69 150.79 398.44 152.62 399.53 154.31 399.84 155.48 401.85 156.63 402.34 157.51 403.41 158.7 401.96 160.21 401.52 161.79 401.6 163.18 401.03 163.43 399.78 165.62 399.99 166.7 401.36 168.54 402.2 169.32 401 171.1 399.69 174.15 400.15 175.75 400.77 179.47 400.96 181.45 402.03 184 401.99 185.21 402.47 186.03 402.02 187.44 402.28 188.24 402 189.4 402.63 193.28 403.69 195.35 405.09 195.77 406.04 196.43 406.96 196.77 407.47 197.34 408.51 197.12 410.26 200.73 411.09 201.23 411.98 200.43 412.51 198.78 413.2 197.88 413.93 197.26 414.38 195.94 414.41 193.69 415.36 192.99 415.49 192.15 415.26 191.27 415.77 190.9 416.53 189.67 416.62 188.73 417.47 187.87 418.38 185.61 417.64 183.79 418.31 183.17 419.46 180.66 419.59 180.21 420.45 180.18 421.15 179.92 421.55 179.28 423.02 178.92 423.57 179.18 424.27 179.01 424.93 178.03 426.36 177.74 427.38 178.34 428.56 178.1 429.89 178.77 431.09 178.19 431.55 178.16 432.27 179 433.12 179.06 433.49 179.46 435.57 178.34 436.3 178.65 437.15 178.65 439.34 177.51 440.47 177.59 440.98 177.46 441.76 176.6 442.57 176.89 443.38 176.72 443.83 176.22 443.96 175.64 443.44 174.12 443.11 172.61 443.27 171.73 442.88 170.82 442.2 170.25 442.77 169.42 442.97 168.7 443 167.22 444.56 166.15 444.79 166.29 446.23 168.11 448.1 167.96 449.27 168.33 449.86 166.93 451.65 164.66 452.68 164.87 453.52 163.46 453.46 162.55 453.85 162.39 454.56 160.99 456.35 161.2 457.43 161.15 458.4 162.14 459.28 162.81 460.17 163.16 461.71 163.25 462.82 163.03 465.54 162.79 467.44 161.57 468.78 160.48 470.01 159.86 471.16 159.84 473.05 160.69 474.33 160.82 475.58 160.58 476.3 160.04 476.83 159.4 477.09 158.75 477.23 157.61 479.05 155.97 479.61 155.18 481.27 153.86 482.69 153.1 482.86 152.83 484.37 151.72 484.34 150.54 484.93 149.73 485.53 149.6 487.38 148.27 489.66 146.92 491.52 146.63 493.98 145.83 495.09 145.82 496.45 146.74 497.38 147.16 498.8 147.53 500.71 148.94 501.68 149.22 502.92 148.9 503.49 148.46 506.02 145.44 507.71 143.61 508.83 142.22 509.51 140.63 512.07 138.6 513.13 138.04 513.36 137.46 513.43 135.84 513.79 136.48 516.3 136.36 517.34 136.76 518.77 136.83 519.57 137.17 520.68 137.27 521.14 137 522.47 137.06 523.39 136.66 524.4 136.73 525.1 136.17 526.43 135.69 527.41 134.69 528.36 134.33 528.76 133.9 528.85 132.65 529.86 132.78 530.87 133.23 532.15 132.63 533.4 132.64 534.92 131.06 536.22 131.51 536.93 131.98 538.14 131.8 540.51 132.19 540.91 131.96 541.84 131.81 542.35 131.22 543.33 130.76 543.93 130.05 544.43 129.92 544.53 128.78 543.96 127.71 543.66 126.39 542.94 125.07 542.45 122.94 542.17 122.38 542.28 121.51 542.95 119.94 543.57 119.13 543.76 116.01 543.34 114.36 543.9 113.78 543.68 113.3 542.76 112.63 541.73 111.14 542.34 110.77 541.4 109.47 541.56 108.86 542.03 108.31 542.4 106.79 542.4 105.71 542.23 105.04 541.26 104.27 540.8 103.53 539.85 102.34 539.61 101.02 539.94 100.25 539.77 98.65 540.02 98.19 540.23 96.25 541 95.25 542.01 94.86 542.4 94.55 542.38 93.9 542.94 92.66 543.68 92.44 544.22 91.75 545.82 91.36 547.92 89.57 548.09 88.96 547.7 86.98 547.84 86.41 547.6 85.81 547.35 83.94 547.88 83.25 548 82.8 549.11 82.13 549.86 81.24 551.37 81.62 551.58 81.24 552.4 80.46 552.62 78.41 553.03 77.11 553.51 76.75 554.07 75.55 554.59 75.68 556.35 75.52 557.18 75.59 558.97 74.3 559.81 75.51 560.55 77.44 561.76 77.9 562.83 77.57 563.98 78.27 565.01 78.28 565.63 79.08 566.47 79.76 566.47 80.77 568.67 81.2 569.41 82.31 571.06 83.78 572.92 82.12 574.51 82.56 575.73 82.47 576.08 82.09 576.94 82.04 577.88 81.4 579.22 80.81 580.09 79.55 581.53 78.21 583.39 77.09 583.73 77.01 583.6 76.27 583.87 75.31 584.66 73.83 585.45 73.47 586.97 72.19 588.47 71.7 589.57 69.96 591.53 68.57 591.97 68.61 592.63 67.99 593.33 66.98 594.36 65.8 595.54 64.05 595.85 63.23 598.26 64.67 599.48 65.84 599.8 67.3 600.07 67.78 601.9 68.14 603.33 68.95 604.19 69.72 605.44 69.69 606.51 69.28 607.6 68.49 608.96 69.6 609.62 69.88 611.7 69.98 612.88 70.67 614.72 72.7 616.68 72.89 616.93 73.21 617.74 73.6 618.48 74.39 619.64 74.84 621.06 75.53 622.15 75.7 622.65 76.1 623.72 77.75 624.33 78.36 625.47 78.98 626.08 80.02 626.2 82.9 627.99 83.7 629.52 83.79 629.66 84.77 630.47 87.69 630.99 88.83 630.91 90.3 631.21 90.97 632.16 91.32 633.03 92.75 633.74 95.17 635.08 95.69 635.83 97.02 637.2 97.15 638.57 97.02 640.07 97.59 641.67 99.38 641.9 101.25 643.77 100.87 644.75 99.47 646.43 97.82 647.37 98.63 648.59 99.24 649.12 99.81 650.59 100.38 651.84 99.9 653.45 99.55 654.67 99.61 655.2 99.04 655.84 99.59 656.92 100.19 657.6 101.46 658.82 102.57 658.69 103.06 659.17 103.53 660.59 103.97 661.31 104.77 662.7 105.57 663.59 106.71 663.83 106.8 664.82 110.34 665.17 110.41 667.1 110.25 668.17 109.45 669.58 109.51 670.85 109.35 671.88 109.73 672.69 109.88 674.12 109.5 676.29 109.63 677.15 109.38 677.91 109.38 679.83 111.76 680.21 113.07 681.03 113.95 681.68 115.88 682.54 117.05 682.67 118.04 684.04 118.04 686.91 118.4 687.45 118.74 691.13 117.84 692.09 117.89 692.87 118.12 695.02 118.94 695.42 120.44 697.02 119.57 697.81 119.55 698.4 119.86 698.89 119.76 699.72 120.04 700.48 119.6 703.33 119.57 705.12 120.01 706.27 122.63 706.29 125.51 706.2 127.11 706.33 128.26 705.32 129.17 704.47 130.64 704.39 133.6 704.77 133.98 705.31 134.05 706.55 134.89 707.25 135.82 707.23 136.48 707.53 138.64 707.79 139.76 707.51 140.51 708.44 141.6 708.34 143.15 709.78 143.76 712.12 145.12 712.08 145.77 711.64 146.2 711.17 147.25 711.46 148.87 709.87 149.77 709.96 150.13 709.8 152.09 709.51 152.85 709.87 154.05 710.46 155.37 710.66 156.32 710.57 158.57 710.58 159.75 710.81 160.61 711.26 160.88 712 161.91 712.95 163.81 712.95 164.64 713.92 165.26 714.44 166.21 715.12 166.71 717.63 167.26 719.66 167.92 720.83 168.8 721.92 170.2 721.73 171.31 721.29 172.98 720.59 174.4 721.45 175.27 722.29 178.01 722.41 179.03 723.8 180.04 724.71 181.08 725.18 182.59 724.99 183.12 726.19 185.14 725.33 186.24 725.28 187.82 725.47 188.54 724.56 189.83 724.5 191.1 724.7 191.92 726.08 194.22 725.98 195.72 725.8 196.47 726.34 197.8 727.24 197.79 728.24 198.21 728.31 199.67 729.64 200.76 730.46 201.78 731.63 201.61 733.45 203.89 734.02 204.98 733.6 209.08 734.2 210.32 734.9 212.65 732.77 215.82 732.91 217.37 732.96 218.89 733.4 220.56 733.04 221.63 732.91 222.63 734.17 223.1 735.4 223.99 736.29 223.52 736.78 223.49 740.05 224.25 741.06 224 741.7 223.45 745.22 223.17 745.65 223.75 746.44 225.17 747.85 227.35 748.84 227.42 750.01 227.34 751.51 228.52 753 229.58 753.61 229.78 753.95 230.31 753.47 231.12 753.61 233.45 756.04 233.22 757.89 234.69 758.83 236.16 759.46 237.9 760.75 238.45 762.34 239.83 764.01 240.17 766.43 241.35 767.15 240.69 769.42 241.83 769.69 242.51 769.33 243.77 767.21 245.6 764.75 246.47 764.42 247.29 764.6 248.06 763.45 251.05 761.85 250.93 761.67 251.82 761.5 256.77 761.88 257.93 762.52 258.12 765.12 259.33 767.03 259.59 767.25 259.78 767.84 261.18 768.53 262.16 768.97 262.49 769.23 263.23 770.34 264.48 770.45 265.21 771.13 265.97 771.31 266.88 773.52 268.36 773.93 269.13 773.66 271.93 773.79 272.7 772.65 274.61 772.1 276.17 772.47 277.87 771.78 279.09 771.75 281.53 769.17 285.69 770.07 286.53 770.38 287.28 769.28 289.76 768.89 291.9 775.02 291.95 777.01 293.11 778.87 293.71 780.11 293.68 780.93 294.65 781.22 295.18 781.33 296.49 781.79 299.67 782.47 300.36 782.66 302.55 783.97 305.13 785.88 310.08 785.69 310.94 784.59 314.36 785.13 315.66 786.53 316.1 788.16 318.12 788.69 320.09 789.47 321.57 790.04 322.4 790.31 324.56 789.64 326.47 790 328.97 789.96 330.45 789.43 331.36 788.41 331.99 786.43 332.63 784.85 335.2 783.2 336.61 782.89 337.32 782.95 339.07 783.98 341.14 782.9 342.74 782.15 345.21 783.58 347.49 784.68 347.99 785.15 348.85 785.91 349.72 786.15 350.2 788.16 352.53 789.18 354.63 789.82 354.91 790.25 355.91 789.4 356.77 788.89 357.95 788.81 359.46 788.27 361.49 788.41 363.44 787.47 364.22 787.24 365.93 786.85 367.14 786.84 367.92 785.07 369.09 782.22 370.71 781.02 370.32 779.94 368.45 779.2 367.64 778.3 368.08 777.83 368.08 776.03 368.37 775.23 370.36 773.97 369.94 773.23 371.51 773.24 372.68 773.67 373.65 773.08 374.37 772.37 376.56 772.65 377.87 772.68 379.56 771.99 380.02 771.88 381.18 772.05 382.67 772.3 382.92 771.88 384.92 773.45 386.34 773.6 387.04 773.3 387.64 773.32 388.54 773.11 389.13 772.33 392.53 772.34 393.49 772.57 394.2 772.54 395.33 771.74 396.61 771.21 397.79 771.26 399.84 771.75 400.94 771.82 402.18 771.67 405.68 769.79 406.62 768.52 407.09 767.52 406.95 766.68 407.31 765.76 407.2 763.92 405.86 763.24 405.8 762.4 406.45 761.31 406.06 760.14 406.03 758.66 405.61 758.21 405.18 757.17 404.7 755.55 405.58 753.58 405.63 753.21 406.33 753.47 407.82 754.3 409.06 754.54 410.17 753.05 411.57 753.29 414.71 752.92 415.28 752.77 415.99 752.17 416.21 751.23 416.92 750.51 416.94 749.2 417.38 748.53 417.81 747.88 418 746.45 418.93 744.11 419.06 742.69 419.38 741.39 418.64 740.07 418.7 739.04 418.58 737.51 419.43 736.65 419.72 735.83 420.27 734.28 422.46 733.35 423.49 732.74 424.86 732.39 427.19 733.31 427.64 736.01 427.79 737.1 427.06 740.2 432.12 741.97 433.67 744.1 434.97 745.08 436.47 745.26 437.7 750.36 436.73 751.65 436.14 752.72 436.36 755.34 436.37 756.92 435.91 758.22 436.71 761.49 437.26 761.96 436.62 762.88 436.51 764.33 435.57 764.73 435.19 765.07 434.42 765.66 434.63 767.2 434.91 769.6 435.78 769.72 436.57 770.56 437.27 772.87 437.76 774.7 437.76 776.7 438.34 778.7 440.04 779.12 444.31 779.45 446.26 779.99 447.77 781.43 449.13 781.65 452.94 781.66 455.81 779.16 457.74 777.63 458.14 778.32 462.56 776.23 465.49 775.22 467.06 774.33 467.47 771.43 468.08 769.46 469.61 766.26 471.44 762.92 472.37 762.11 472.89 762.05 473.62 762.55 474.38 763.83 474.91 768.02 477.77 768.43 479.07 770.27 479.06 771.3 480.01 772.46 480.58 773.37 480.7 774.6 481.17 774.96 481.69 776.06 482.66 776.96 482.84 777.49 483.21 778.13 484.81 778.11 485.22 778.5 485.92 778.87 487.15 779.37 489.64 779.08 490.46 780.42 492.51 781.02 494.86 781.84 494.78 783.34 496.52 783.95 496.58 784.3 497.13 785.67 497.68 786.8 497.63 787.31 497.3 788.62 497.21 790.03 497.78 791.32 499.39 791.77 500.26 794.08 500.65 794.26 501.89 795.31 502.08 797.25 502.94 797.9 503.32 796.93 506.92 797.85 508.86 798.06 510.59 797.76 512.06 799 513.66 798.28 514.49 798.34 515.26 797.98 516.34 797.47 517.04 797.45 517.66 796.68 517.54 796.54 517.94 795.4 519.12 794.96 519.26 793.65 518.92 791.87 520.29 790.51 521.78 788.68 522.09 786.27 522.27 785.2 524.3 783.45 526.14 781.7 527.44 780.02 526.98 778.55 526.76 775.34 526.88 773.72 527.11 772.39 527.14 770.15 525.39 768.44 521.66 767.05 519.26 765.88 516.86 762.57 516.32 760.48 516.58 758.94 516.6 756.12 514.66 753.3 513.62 751.63 514.25 750.33 513.8 749.03 512.92 748.64 512.23 747.84 511.41 747.31 509.77 744.19 508.09 742.09 506.79 741.39 505.26 739.48 505.32 737.68 504.19 735.94 502.05 735.24 501.92 732.15 502.36 729.59 500.8 728.94 499.77 727.47 499.9 725.51 500.86 723.46 501.59 721.27 501.69 720.23 501.64 718.79 502.59 717.29 502.58 714.97 500.75 713.88 498.99 713.22 498.19 712.56 497.12 710.05 497.41 707.17 496.91 705.43 497.48 703.62 498.61 702.51 498.86 701.1 499.83 700.23 500.83 699.06 501.59 698.38 501.62 696.81 502.59 696.55 503.34 695.85 504.01 695.12 504.22 694.65 505.02 694.04 505.48 693.03 507.07 691.92 508.08 691.26 508.9 690.2 509.64 688.86 509.72 687.65 510.45 686.98 510.02 683.02 510.46 681.51 510.43 679.23 510.24 678.11 511.03 678.25 511.21 678.76 513.51 679.66 515.52 677.26 516.75 675.02 517.56 675.91 519.48 676.72 520.1 677.91 521.71 677.14 522.79 677.4 523.48 677.21 525.15 675.1 530.31 671.69 533.32 671.19 535.67 670.62 537.5 668.69 541.78 666 542 662.92 541.12 659.79 539.56 657.2 538.32 654.02 537.66 652.62 537.21 650.82 537.51 649.62 537.46 647.97 536.43 647.16 536.67 644.11 536.69 643.13 536.32 641.21 536.31 640.37 535.73 637.67 535.89 637.15 536.08 634.02 538.22 633.06 537.51 630.76 535.18 629.43 534.08 628.56 533.24 628.45 532.61 627.49 531.69 626.51 531.78 627.01 530.95 625.21 528.87 622.63 528.83 620.28 527.55 619.3 526.68 618.92 526.05 618.99 525.26 618.1 523.32 615.5 524 615 523.81 614.21 524.06 613.18 523.78 611.2 523.52 609.81 525.4 610.1 526.23 609.6 527.98 608.72 528.47 607.76 529.92 608.5 531.17 608.36 532.73 607.64 533.38 607.35 534.62 606.2 535.21 604.54 535.85 604.11 536.35 602.6 537.15 601.53 536.31 600.84 535.35 600.11 534.7 599.06 534.35 598.84 533.38 598.8 532.4 597.02 530.67 595.32 529.65 594.56 529.77 593.72 529.59 592.71 528.47 591.93 528.47 590.68 527.91 590.25 528.3 588.92 528.19 588.15 527.29 585.67 529.01 584.83 529.48 583.78 529.7 582.79 529.67 581.05 530.5 580.1 529.34 579.23 528.51 578.33 527.42 577 528.06 575.82 527.45 574.81 527.87 575.85 528.9 575.12 529.83 573.76 530.42 573.42 530.21 572.04 530.05 570.88 530.95 569.95 531.83 567.52 531.92 567.49 530.95 566.8 528.66 565.86 528.8 564.25 528.18 562.39 528.72 560.11 528.91 558.41 530.41 557.03 529.91 555.01 530.99 553.72 531.36 551.3 530.66 550.11 530.38 548.12 530.72 547.87 530.55 547.25 528.77 546.31 528.82 545.25 528.18 544.91 527.49 543.68 527.45 542.48 527.21 541.32 527.38 537.63 525.89 537.52 524.91 537.52 522.15 538.22 520.88 538.92 520.06 539.55 519.67 540.08 516.84 540.89 516.57 542.08 515.05 539.45 512.88 539.32 512.03 539.71 511.02 539.63 510.54 538.7 510.55 538.18 510.23 537.23 508.81 535.56 508.24 534.53 506.93 533.06 507.16 532.04 508.09 531.15 509.28 530.61 509.23 529.31 509.88 528.15 509.25 527.48 509.11 526.9 507.91 526.4 507.4 523.36 506.77 522.63 505.86 520.99 505.92 519.48 505.05 518.52 505.14 517.95 505.89 516.77 506.27 515.84 506.81 514.23 507.46 513.11 508.06 512.06 508.01 511.02 509.34 509.29 509.37 509.12 510.1 508.06 510.65 507.34 512.14 507.07 513.41 506.44 513.8 506.46 514.98 506.23 516.02 505.83 516.67 504.87 516.17 503.93 515.42 503.5 515.44 502.24 514.88 501.38 512.81 500.79 511.87 500.24 511.44 499.59 510.45 499.9 508.99 499.94 508.2 499.68 506.31 497.83 505.17 496.82 504.7 497.46 502.86 495.7 501.58 495.67 500.61 495.79 499.55 492.93 499.49 492.82 497.75 492.95 497.3 490.88 496.27 489.34 495.77 488.45 497.62 487.43 497.6 485.77 497.83 484.04 497.9 484.33 499.59 484.01 500.73 482.37 501.26 480.68 502.76 479.38 502.85 478.62 502.11 477.28 502.21 475.59 501.47 475.01 501.35 474.06 502.82 473.3 503.56 473.5 504.8 472.88 505.52 472.1 506.73 471.18 507.12 469.84 508.41 469.04 508.66 468.89 509.51 467.13 511.07 466.81 511.8 466.36 513.3 465.48 514.89 463.17 518.59 461.69 517.87 461.08 517.35 457.9 516.24 456.66 511.13 456.95 510.19 456.63 510.05 456.34 508.74 455.3 507.86 454.73 506.96 453.01 504.7 453.27 503.65 455.62 502.73 456.97 501 457.24 499.83 458.12 497.25 458.34 494.39 458.63 492.35 456.42 491.01 454.65 490.47 454.18 489.71 456.19 488.89 458.71 487.21 459.56 486.26 459.68 484.95 459.46 483.12 459.16 482.65 457.15 482.15 456.68 481.66 456.05 480.61 456.84 480.17 458.18 478.83 458.87 477.42 458.53 476.54 457.25 474.55 456.92 473.91 456.97 473.35 455.72 472.16 456.19 471.37 456.34 470.68 455.29 469.81 454.11 468.55 454.86 468.16 456.05 467.19 457.48 465.76 458.4 465.71 459.71 465.04 462.33 464.13 461.94 462.55 461.59 461.52 461.74 460.86 462.63 460.35 462.75 459.05 464.71 458.48 463.19 456.4 462.78 454.91 462.37 454.28 461.25 453.89 461.18 452.27 460.66 451.27 460.98 450.23 460.99 448.65 460.75 447.23 462.36 446.97 462.51 446.15 463.43 445 463.32 443.02 462.67 440.98 462.85 439.95 463.35 438.04 462.37 436.8 461.22 436.38 460.13 435.44 459.51 434.37 458.8 434.26 458.63 433.14 457.42 431.71 455.61 431.67 454.69 431.55 453.62 431.1 452.74 431.14 451.96 430.65 451.39 429.84 451.02 429.63 450.25 430.14 449.3 430.4 448.76 429.06 448.08 428.19 447 427.29 446.55 427.11 445.42 425.92 444.17 425.36 443.57 424.6 442.08 423.57 441.11 423.09 440.19 422.87 437.92 422.72 437.06 422.47 436.21 421.71 435.68 421.45 434.89 421.58 433.02 422.47 431.39 422.74 430.04 421.8 429.66 421.05 427.73 419 425.19 418.35 423.85 417.5 423.39 417.47 421.64 416.69 421.35 416.85 418.86 416.87 416.7 418.31 414.44 418.87 412.38 418.7 411.08 418.12 410.35 418.31 409.28 418.05 406.92 416.74 406.63 416.06 406.73 415.23 407 414.47 406.7 413.54 405.69 412.56 405.35 410 404.12 407.58 402.67 406.52 400.76 407.57 399.86 407.12 398.73 406.76 397.67 407.55 396.27 407.31 395.27 407.35 395.12 406.68 393.78 405.72 392.58 405.52 391.93 405.82 390.84 405.9 390.24 405.22 388.95 405.07 388.02 405.25 387.33 404.69 386.05 404.6 385.66 404.17 384.53 403.94 383.82 404.28 383.17 404.19 381.86 403.63 379.37 403.55 378.24 403.36 377.74 404.61 376.12 405.83 375.93 407.55 374.9 408.92 372.76 409.74 373.02 410.8 372.42 411.24 370.74 411.97 368.84 412.39 368.06 412.31 366.57 412.75 365.54 412.38 364.67 411.47 363.51 410.78 362.08 410.2 362.11 410.88 361.82 411.04 357.99 410.74 356.85 411.49 356.25 412.18 354.58 413.18 352.05 412.97 351 411.57 349.53 412.84 348.3 412.49 347.08 411.76 346.87 409.75 347.04 409.06 346.7 407.86 347.18 406.94 345.83 406.1 344.47 404.8 344.4 404 344.47 401.51 344.23 399.48 344.28 396.97 342.82 396.24 343.05 394.06 342.51 393.03 341.86 392.71 341.77 391.49 341.44 389.84 340.83 388.72 338.66 387.62 338.12 386.87 338.41 384.65 335.52 383.06 334.82 381.59 333.31 381.18 330.82 380.26 329.8 380.48 329.1 380.94 327.94 380.76 326.09 380.18 325.79 379.04 325.47 378.62 324.19 379.42 323.04 379.9 322.43 379.83 320.31 380.92 318.04 381.95 317.24 382.04 316.12 379.79 313.55 376.79 313.51 375.33 312.62 373.22 311.39 372.16 309.08 372.8 307.28 371.39 305.68 372.07 304.41 371.83 303.16 370.61 302.34 369.15 299.55 369.37 298.43 369.09 297.48 370.43 296.06 370.95 294.55 370.25 294.13 370.41 292.89 371.34 290.6 368.93 289.87 367.12 287.92 366.62 287.33 367.1 283.87 367.35 281.63 366.53 279.07 366.53 276.48 367.2 275.69 367.62 274.13 367.95 273.79 367.08 271.71 366.21 270.72 365.54 269.65 365.19 268.53 365.45 267.22 366.33 266.81 365.81 266.13 363.13 264.46 361.12 262.65 359.82 262.01 360.1 260.64 359.83 259.98 360.53 258.33 360.89 257.19 360.34 256.01 358.83 253.67 357.3 252.07 356.85 251.73 355.78 251.36 355.3 249.36 355.24 248.24 354.6 247.51 354.82 246.87 354.29 244.75 354.33 243.59 353.57 243.83 351.14 243.85 350.15 243.37 347.94 243.49 346.59 243.86 344.28 243.1 343.93 242.53 343.37 241.65 343.16 241.72 342.62 241.24 341.76 240.85 340.36 240.95 339.82 240.57 339.53 239.39 340.85 238.27 339.96 238.63 339.59 237.34 338.17 236.01 337.98 234.5 338.12 232.08 336.86 229.4 336.72 228.27 336.16 227.21 335.81 226.29 334.48 223.81 334.58 223.01 333.88 220.55 333.24 220.14 332.63 220.05 331.37 220.1 330.24 218.04 329.71 217 330.37 215.12 329.81 213.9 332.13 214.38 333.69 211.93 335.98 210.72 335.71 209.25 337.16 209.21 338.84 208.34 340.26 207.04 342.12 206.84 344.11 205.75 345.12 204.62 346.61 202.83 348.08 200.48 348.45 199.91 349.04 198.45 350.22 197.72 351.25 198.74 352.35 198.77 353.27 199.29 354 199.05 354.76 199.11 356.06 198.26 357.46 199 358.01 198.66 359.87 198.94 360.88 198.47 362.69 199.07 364.26 198.56 365.63 197.95 366.02 197.02 366.92 195.53 366.77 194.82 365.57 193.44 364.77 191.88 365.29 190.83 366.06 189.97 366.91 189.92 369.72 187.33 373.22 186.8 373.69 184.85 375.8 181.71 375.49 180.74 376.4 179.47 375.97 178.05 376.15 176.03 376.81 175.43 376.27 174.31 375.55 171.97 375.75 171.63 375.4 170.01 376.33 169.68 377.56 168.61 378.6 166.99 380.64 166.56 382.57 165.8 383.92 165.32 384.5 165.86 386.85 166.55 387.58 166.78 388.36 166.37 389.45 163.28 393.28 162.37 394.98 160.04 395.13 157.68 395.06 157.26 394.83 156.61 394.91 155.79 394.74 154.69 394.28 153.52 393.63 151.81 392.24 151.41 392.12 150.16 392.23 148.14 390.5 147.54 390.07 145.65 387.32 143.34 385.82 143.11 384.75 142.69 383.59 142.7 382.05 142.22 379.42 140.52 377.65 139.01 377.56 138.16 377.1 136.58 376.9 136.61 376.13 136.25 374.73 132.52 368.05 134.23 359.27 129.61 357.52 126.89 356.63 122.58 355.3 123.53 350.06 123.54 348.26 123.4 346.45 122.73 345.4 120.89 343.5 121.2 343.08 120.21 338.61 118.55 338.12 115.53 335.53 114.34 335.61 113.35 335.14 111.92 334.9 111.74 334.14 108.57 327.91 105.38 324.74 104.65 320.54 102.89 313.87 100.34 312.82 97.6 310.44 96.51 310.22 94.5 310.18 93.18 309.17 91.38 309.05 87.22 307.74 86.93 309.86 83.97 308.09 81.29 306.65 80.04 306.05 80.11 304.3 79.1 303.22 77.46 301.74 77.02 300.17 75.73 299.77 73 299.52 70.14 299.63 69.5 298.58 67.97 298.34 67.05 296.97 66.53 296.96 65.37 296.43 63.49 296.46 62.13 296.65 62.15 297.84 60.38 300.8 59.52 302.96 60.74 305.02 59.85 305.11 58.76 306.36 58.45 307.44 57.09 307 55.73 307.75 54.85 307.54 52.25 307.7 50.69 307.38 49.79 308.59 47.96 309.6 48.28 310.63 46.8 311.93 46.57 312.89 45.88 313.51 42.4 315.74 41.69 316.7 41.22 317.82 39.7 318.48 38.07 319.02 38.43 320.55 37.8 322.01 37.75 323.15 39.42 324.06 39.77 324.56 38.31 325.04 37.36 325.68 37.14 326.23 36.64 326.65 35.29 326.03 34.66 326.51 32.88 326.62 32.37 327.95 30.45 326.86 28.2 327.55 27.74 326.92 25.54 325.77 24.49 325.5 23.54 323.53 24.22 322.31 23.33 320.54 23.34 319.65 23.94 317.11 23.84 315.91 23.39 314.92 22.48 313.64 22.55 312.84 21.75 311.78 21.68 311.26 21.28 310.81 21.43 310.21 20.74 308.58 19.59 307.34 19.51 306.41 18.84 305.45 18.52 304.64 17.9 303.79 16.88 304.04 16.59 304.3 15.63 304.2 15.46 305.54 13.87 305.49 13.29 303.88 11.53 302.26 10.85 301.03 10.12 300.45 8.68 298.28 6.17 300.28 1 302.09 6.59 295.22 9.66 293.96 12.61 291.67 15.42 287.19 16.48 285.02 17 284.33 19.46 281.41 20.85 280.06 22.23 278.44 22.94 277.94 23.64 277.05 25.67 275.54 26.24 275.36 26.87 277.51 30.13 272.98 30.91 270.94 31.12 269.75 31.87 266.63 32.02 265.23 31.87 263.6 31.61 262.01 31.39 261.37 31.17 255.29 32.07 254.92 35.65 243.45 35.09 244.12 35.49 241.47 35.98 240.46 38.59 236.54 38.94 235.51 38.94 235.05 40.58 235.86 44.08 237.03 44.32 237.38 46.34 238.38 47.69 238.35 50.39 237.22 50.88 237.25 51.05 236.28 52.48 234.69 52.96 233.71 53.57 233.51 54.33 232.57 54.11 231.17 54.33 229.94 55.05 229.05 55.32 228.16 55.61 226.24 56.07 225.32 56.47 223.96 57.41 223.17 58.23 222.24 58.17 220.42 58.72 219.52 59.64 218.31 59.71 217.73 58.93 216.74 58.51 215.88 59.27 215.25 59.29 214.34 60.81 213.91 61.85 212.71 62.41 211.46 63.32 211.13 64.22 210.39 65.01 208.75 66.01 207.69 66.62 206.8 66.3 205.7 66.38 204.28 65.93 202.84 65.25 202.11 64.08 200.58 62.92 199.59 61.07 198.42 59.77 198.28 58.84 197.69 59.92 196.96 59.06 194.92 58.55 190.51 58.56 190.34 57.74 188.57 58.36 187.79 58.22 186.44 57.76 184.66 59.4 182.46 59.87 182.42 59.65 181.56 59.1 180.85 57.62 180.88 56.33 180.7 55.58 180 54.81 179.02 54.09 177.25 52.98 176.85 52.42 176.99 51.32 176.42 50.32 176.25 48.5 176.32 46.07 176.56 45.33 176.49 43.88 177.34 43.69 177.08 43.73 173.62 44.32 172.03 45.26 170.54 45.21 168.77 45 166.16 44.32 165.16 43.96 163.66 43.47 163.77 43.36 163.16 44.8 161.93 45.04 161.12 45.78 160.39 45.84 159.75 46.58 158.31 47.51 156.99 47.97 156.68 48.43 156 49.59 155.54 49.26 153.82 48.18 152.9 48.51 152.14 48.72 150.11 48.29 149.72 47.32 147.53 46.7 147.23 46.4 146.46 45.7 145.51 45.76 143.68 45.31 143.04 44.57 142.72 44.44 142.33 43.63 141.94 43.37 141.58 42.12 141.54 40.68 141.15 40.38 140.71 39.52 140.31 38.92 139.78 38.63 138.41 37.88 136.2 37.25 135.45 35.99 133.16 34.04 132.07 32.82 130.77 32.99 128.16 32.29 127.35 31.87 125.19 31.4 124.1 31.18 122.69 30.74 121.11 30.4 120.65 30.38 118.49 29.84 117.07 28.51 116.2 28.57 115.34 28.05 114.71 27.82 114 27.01 113.71 26.3 112.93 25.73 112.6 26.15 111.12 26.62 110.58 26.81 109.63 27.56 108.37 28.07 107.11 29.41 104.81 30.84 104.06 31.47 103.24 32.74 102.11 33.32 101.31 34.98 101.63 36.16 101.41 37.65 101.52 38.21 100.69 38.74 100.68 40.97 100.22 40.5 99.28 40.75 97.37 40.97 96.35 41.53 95.18 42.37 94.1 42.98 93.62 44.79 94.07 45.26 93.04 45.85 92.36 46.42 90.76 47.24 90.1 48.05 88.88 48.93 88.34 49 87.7 50.02 86.26 50.1 85.11 49.97 84.47 50.84 83.87 52.27 82.38 52.8 81.99 53.14 80.87 53.8 80.17 54.04 79.24 54.65 78.17 54.76 77.3 55.45 76.92 56.18 76.75 56.88 76.17 58.16 75.35 58.52 74.72 59.76 73.94 60.49 73.12 60.79 72.16 63.13 72 63.27 71.91 64.34 70.1 64.11 69.1 63.38 67.81 62.19 67.25 61.95 66.51 61.99 65.67 61.25 64.22 60.75 62.9 60.6 61.64 62.04 60.54 63.52 58.77 63.21 57.99 62.09 57.09 60.86 55.91 60.52 54.87 61.19 54.46 61.19 53.81 62.19 52.07 63.77 50.49 64.58 49.98 65.31 49.32 65.68 48.37 66.19 47.65 66.35 46.52 67.16 45.76 66.55 44.38 67.51 43.13 68.14 42.66 67.7 37.98 68.57 37.43 69.63 35.52 70.54 34.61 71.18 33.72 71.82 31.83 72.36 31.46 72.65 30.93 72.59 30.46 71.92 28.44 71.73 27.14 70.53 23.83 70.49 22.59 69.9 21.34 70.05 19.77 68.76 19.32 67.47 17.87 66.48 16.93 66.14 15.58 66.53 14.61 66.89 14.43 67.83 13.15 68.82 13.2 68.88 12.57 70.81 12.29 70.98 12.38 71.94 11.51 73.13 11.11 74.92 9.26 77.28 10.07 78.45 10.24 79.47 9.71 82.06 9.6 83.1 9.93 83.56 9.38 84.64 8.82 85.27 8.25 85.2 7.97 86.02 7.02 87 6.6 87.54 6.05 88.86 4.31 88.76 3.26 88.75 1.15 89.13 1 91.45 1.25 92.67 1.6 94.79 2.65 96.45 3.8 98.35 4.78 99.6 5.87 101.47 9.85 101.54 11.16 101.53 13.32 101.44 14.56 101.54 18.5 101.71 19.47 102.01 22.67 102.52 23.11 105.3 26.32 105.5 27.18 105.21 29.68 104.56 32.57 104.17 34.02 103.91 35.95 104 37.87 104.16 38.88 104.7 40.3 105.47 41.87 106.09 42.88 107.7 45.24 108.97 46.66 109.8 47.3 111.89 48.31 114.98 47.61 119.11 46.1 122.28 45.32 123.77 44.74 124.76 44.18 126.31 43.15 131.3 41.48 134.8 40.74 136.43 39.95 138.28 38.92 140.23 38.06 140.74 37.68 141.93 37.25 143.59 36.46 144.42 35.81 147 33.58 146.95 32.15 148.51 30.56 150.18 28.98 154.99 25.58 155.93 24.2 157.4 22.53 158.95 21.09 159.87 20.13 161.81 18.9 162.1 18.51 168.43 15.37 169.33 16.84 170.81 17.68 172.65 18.48 173.77 18.88 174.88 19.05 175.96 19.02 177.66 18.77 178.81 18.35 180.17 19.37 180.35 19.35 Z" id="37520000"/>
</g>
</svg>