<?xml version="1.0"?>
<svg xmlns="http://www.w3.org/2000/svg" version="1.2" baseProfile="tiny" width="800" height="1059" viewBox="0 0 800 1059" stroke-linecap="round" stroke-linejoin="round">
<g id="sigung">
<path d="M 589.33 225.19 587.83 228.23 588.15 230.23 588.34 234.65 588.33 238.43 589.33 239.13 589.83 240.06 591.59 241.48 593.21 243.39 593.05 244.33 592.43 245.46 592.07 247.31 590.92 249.16 589.44 252.87 589.56 257.6 588.47 259.04 587.13 259.72 587.3 262.03 585.85 264.2 587.3 266.89 587.2 269.37 586.46 272.49 587.33 274.23 588.2 277.72 586.14 278.15 585.08 278.73 583.71 278.94 581.83 280.24 582.63 281.62 582.64 283.56 585.3 287.11 585.07 288.45 586.3 289.45 586.58 290.71 588.58 292.15 588.68 294.24 590.49 297.66 590.03 300.67 590.73 303.01 592.55 304.81 592.73 306.19 594.15 306.7 596.16 309.19 599.07 310.41 600.31 311.85 601.69 314.78 602.34 315.41 603.73 315.35 604.65 317.44 605.34 319.92 605.54 321.42 607.11 321.98 608.82 323.79 609.74 325.66 610.63 326.25 611.25 327.56 610.07 331.2 610.21 332.59 609.21 334.12 609.28 337.64 614.23 342 617.49 345.39 619.88 346.55 622.95 351.03 623.09 352.03 624.11 352.98 625.57 354.95 625.43 358.5 624.8 360.19 625.25 362.88 624.18 365.59 625.45 367.84 626.53 371.79 626.47 373.46 627.58 374.83 628.67 376.67 628.98 378.67 629.08 380.71 630.51 382.15 631.7 384.17 633.93 385.01 636.93 387.25 637.78 388.27 640.1 390.15 644.06 391.78 645.76 392.79 648.38 393.9 650.12 394.07 653 394.97 655.13 394.69 656.77 395.69 659.63 396.16 661.73 397.52 662.32 398.57 662.41 399.68 661.17 401.85 664.06 402.72 664.62 401.72 665.39 401.6 666.25 400.69 669.44 399.74 670.18 398.82 671.37 398.39 673.4 396.13 677.56 395.16 678.55 394.14 682.5 393.74 684.05 393.22 686.54 395.8 689.43 395.72 691.58 396.81 692.86 401.3 693.37 402.21 694.34 402.87 695.97 405.09 696.68 406.43 699.61 408.33 700.88 409.78 701.09 410.59 701.96 412.17 702.52 413.96 705.59 415.32 705.65 416.2 706.97 417.74 707.84 419.74 708.96 421.16 708.12 422.95 708.62 425.43 709.58 427.47 709.71 428.61 710.96 432.33 711.21 434.79 711.06 436 711.08 440.41 711.88 442.23 710.76 444.32 709.39 445.63 708.73 447.55 709.94 447.67 711.93 447.41 714.5 448.65 717.93 449.05 718.92 451.37 719.7 452.25 720.51 453.94 721.07 455.98 721.59 457.07 722.61 457.31 725.72 458.64 726.61 458.76 727.12 459.6 729.22 461.81 729.94 462.95 731.6 463.43 732.34 464.72 733.54 466.1 735.41 465.84 736.82 467.26 738.75 467.96 740.49 468.04 741.78 469.59 742.89 471.21 743.26 473.03 743.87 474.66 741.54 476.55 740.87 476.94 739.38 480.43 736.3 481.5 734.86 483.06 734.09 483.39 733.07 484.45 733.33 486.29 731.47 493.72 730.63 494.1 729.14 497.15 729.24 497.5 730.76 498.59 731.9 499.99 732.18 502.02 732.8 502.71 735.49 502.28 737.47 503.56 739.02 505.03 742.36 505.27 743.79 508.5 744.25 512.15 744.62 513.58 741.61 516.6 740.24 518.44 739.12 519.34 737.25 519.94 736.55 520.6 735.67 520.8 734.86 522.12 733.71 523.48 733.04 525.06 732.18 525.52 731.77 526.31 730.75 527.19 728.96 529.49 727.74 530.04 726.97 530.81 726.65 532.04 725.71 533.53 725.41 535.26 726.03 536.19 726.38 537.87 726.45 540.28 726.78 540.82 725.61 542.43 725.78 546.36 725.24 547.01 724.34 549.65 723.6 550.53 723.03 552.64 723.3 553.54 723.05 554.52 723.45 555.73 723.27 558.14 723.48 558.57 723.44 561.68 724.75 562.54 726.69 563 729.05 563.92 731.11 566.35 731.27 570.85 732.52 572.18 731.34 575.58 731.64 576.83 732.16 577.36 732.33 580.44 733.05 581.69 735.35 583.2 736.8 584.35 739.5 587.06 739.7 588.24 740.21 589.02 740.08 590.04 740.49 591.21 739.14 595.46 743.9 598.05 745.49 599.48 748.12 600.85 750.41 600.42 752.33 599.36 754.51 599.23 755.3 599.89 755.99 599.64 758.03 599.68 760.57 600.88 764.86 599.87 765.76 598.54 768.41 598.48 768.71 598.69 770.96 598.36 772.44 597.82 774.01 596.76 774.7 595.85 776.73 596.17 777.5 595.9 779.03 597.45 781.05 597.96 785.15 601 786.25 602.82 788.58 606.03 790.16 607.42 791.33 607.85 792.02 608.95 797.49 612.54 799 616.13 798.39 619.69 796.52 624.52 796.37 628.05 796.85 631.04 798.33 632.27 798.64 635.9 796.92 637.63 796.7 638.36 796.63 640.72 794.33 644.51 791.9 648.35 793.64 651.21 795.18 655.17 789.37 662.02 785.49 664.23 779.83 664.59 778.19 665.46 776.16 664.38 773.71 662.31 772.83 663.92 771.97 664.39 769.86 664.33 768.2 665.58 768.1 666.31 765.25 668 765.42 673.21 761.49 673.84 756.88 676.37 756.73 681.1 754.9 682.41 754.04 684.37 755.52 687.56 750.02 691.77 743.69 695.87 740.54 704.34 740.91 708.18 743.76 712.83 748.07 713.52 749.13 715.78 750.87 718.51 749.56 720.73 745.1 722.53 745.27 725.6 744.38 728.06 744.94 730.62 743.72 732.79 741.13 734.79 738.19 735.86 736.57 738.6 741.7 744.63 747.19 749.42 748.07 752.39 748.61 756.3 748.67 757.96 749.06 760.3 747.7 762.09 748.38 764.59 745.94 767.63 744.51 770.17 740.45 773.69 737.09 773.8 734.91 776.45 732.43 776.64 729.74 777.93 727.46 777.97 726.39 777.19 723.94 777.3 722.29 778.77 722.59 784.26 723.17 786.41 723.01 788.39 721.18 788.44 716.71 786.83 712.52 789.7 710.31 790.51 710.03 792.77 710.18 793.62 709.33 795.03 710.35 797.89 708.99 799.15 708.68 800.74 707.37 802.51 707.78 804.08 707.61 806.74 708.34 809.94 708.66 813.34 705.97 815.74 703.96 819.92 701.9 823.64 699.67 829.09 699.57 829.57 694.28 832.53 693.69 836 695.85 838.74 694.22 841.37 693.3 844.41 692.3 845.91 690.47 846.51 688.94 846.66 686.49 847.36 684.67 850.07 684.5 851.13 683.39 853.16 681.8 854.57 682.14 856.99 680.73 859.6 679.06 861.62 678.94 864.28 676.78 866.55 674.14 867.67 672.63 869.2 671.64 872.73 669.04 874.62 667.78 874.83 667.02 876.27 665.18 877.52 663.26 879.93 660.63 880.95 659.35 883.34 656.06 884.8 655.81 885.85 655.05 887.08 652.54 887.79 650.16 888.29 647.24 890.37 644.85 892.65 641.37 894.06 639.13 892.11 638.48 889.65 635.94 887.55 631.46 883.35 630.26 879.98 630.92 876.57 623.07 874.88 618.52 873.41 610.51 870.52 604.85 869.44 603.66 867.28 602.19 866.25 601.09 864.12 598.72 862.18 595.85 862 593.78 860.19 592.46 856.89 593.14 855.44 592.94 854.5 590.22 849.85 586 846.12 583.62 844.48 582.89 842.4 582.01 841.28 579.82 840.95 579.42 840.26 578.13 839.25 578.35 836.21 573.03 833.46 572.72 829.22 573.97 827.04 573.78 821.86 571.55 818.4 566.07 814.49 566.22 812.61 565.48 811.2 565.11 808.55 565.4 806.61 564.15 805.14 560.88 804.5 557.51 803.09 557.14 802.5 554.71 801.02 552 800.81 550.97 800.51 550.29 802.84 549.92 803.48 548.78 803.35 547.18 803.96 545.99 805.37 544.29 806.56 542.23 806.43 541.48 803.63 540.49 801.55 538.52 800.44 538.09 800.48 536.59 799.31 534.66 797.45 532.83 796.21 531.09 796.82 528.43 798.62 527.7 799.98 525.48 799.85 522.8 800.65 516.9 795.26 511.88 793.41 510.17 794.62 507.97 796.5 505.23 798.53 504.17 799.87 503.42 799.56 501 795.87 500.34 795.06 497.9 793.06 496.91 792.49 497.6 791.39 497.99 789.34 497.41 786.44 497.01 785.59 494.06 783.99 492.32 783.5 489.91 780.85 487.68 779.42 485.47 776.84 484.81 777.86 483.46 778.95 482.48 780.56 480.19 781.38 478.79 782.21 477.9 783.48 477.07 782 473.38 779.56 469.84 776.65 465.93 771.69 459.69 770.39 456.28 771.11 453.75 774.41 449.63 778.97 447.97 779.92 447.18 779.87 446.8 780.44 444.35 782.57 442.64 783.54 440.81 785.63 440.1 784.82 437.05 783.55 435.52 782.19 434.43 783.15 433.29 783.49 430.11 783.9 427.42 784.72 426.57 784.68 425.5 785.24 424.21 787.62 423.57 787.69 421.75 786.64 420.64 786.58 418.65 787.87 416.03 792.44 413.87 793.01 405.41 799.87 405.35 800.93 406.75 804.26 405.76 808.03 407.76 811.34 408.19 814.51 411.22 818.08 412.28 819.53 413.13 821.86 413.21 823.75 414.31 824.11 416.91 826.97 419.22 828.39 420.33 829.68 422.61 829.61 423.04 830.27 425.25 832.21 427.12 832.34 428.69 831.28 428.62 829.81 430.63 828.93 432.13 827.79 433.78 828.68 435.19 828.95 438.38 833.04 441.5 834.61 443.23 834.25 445.23 833.59 445.97 832.55 446.22 831.46 448.07 831.43 448.83 833.52 449.49 834.46 450.4 835.01 450.81 835.85 452.3 836.68 452.25 838.39 452.6 839.08 451.05 842.56 451.68 843.52 451.86 845.1 452.74 846.45 452.64 847.9 454.73 849.89 457.39 849.68 458.4 851.97 458.82 854.56 458.75 855.07 457.71 857.48 457.82 859.9 457.66 860.92 459.55 863.34 460.08 865.43 461.92 867.11 463.21 871.13 465.69 870.89 465.2 873.14 463.31 875.63 459.88 877.51 458.43 879.15 456.87 879.05 455.86 880.27 454.86 880.78 453.39 880.81 451.91 881.53 450.82 882.53 449.83 883.81 449.92 886.03 448.69 887.07 447.54 887.38 443.99 889.01 441.34 887.07 438.08 888.57 434.07 893.08 431.47 896.43 431.07 897.71 433.2 900.25 433.03 900.79 433.24 903.73 433.88 908.07 432.61 911.45 429.71 910.05 427.3 910.06 425.36 907.56 422.84 904.87 419 901.98 415.97 900.99 413.92 901.48 412.43 902.27 408.36 902.97 407.34 904.33 405.86 905.2 404.52 904.95 402.45 902.77 400.94 905.01 398.38 905.3 396.85 904.71 393.16 907.23 391.04 905.21 387.41 906.39 385.27 909.16 382.47 913.1 381.04 916.01 380.41 916.94 378.28 922.16 378.24 923.64 376.66 926 375.72 928.02 375.37 931.18 376.03 933.61 374.87 935.59 374.65 940.72 374.71 943.56 375.03 944.44 374.84 947.47 375.44 951.77 374.01 951.85 369.79 951.52 369.61 954.3 369.16 955.87 369.49 959.56 368.9 963.19 368.46 964.77 364.93 965.65 362.46 967.72 361.34 969.15 360.92 971.14 360.89 974.31 360.4 978.16 360.67 980.53 361.9 984.1 361.2 986.98 361.33 987.88 360.49 991.4 360.64 994.88 360.64 997.43 359.71 998.94 359.06 1000.95 357.57 1002.2 356.46 1002.8 353.87 1002.14 351.6 1001.83 349.45 1001.8 348.82 1002.05 345.25 1004.98 342.77 1006.35 341.03 1008.33 339.65 1008.72 336.74 1008.99 334.08 1010.11 332.03 1010.37 330.06 1011.08 327.99 1011.1 325.55 1012.6 324.53 1012.66 321.3 1011.21 319.67 1012.09 317.94 1012.38 315.67 1013.09 313.04 1012.23 310.73 1012.39 309.01 1011.19 306.71 1011.62 302.87 1013.42 301.13 1013.03 299.86 1014.28 299.26 1015.37 296.61 1017.24 288.44 1022.25 289.92 1027.72 289.98 1030.09 289.5 1032.98 287.57 1035.29 286.75 1038.26 286.54 1039.59 282.82 1040.16 279.06 1039.76 276.08 1040.37 272.97 1041.5 270.8 1042.63 268.09 1043.76 264.71 1044.77 262.23 1047.94 260.93 1048.25 260.69 1049.49 258.98 1052.69 255.86 1058 255.86 1055.68 249.93 1055.84 246.42 1057.05 241.64 1053.33 240.25 1052.57 238.42 1050.55 236.29 1049.46 235.17 1046.23 233.86 1044.45 229.85 1043.02 227.84 1042.78 224.6 1042.79 222.98 1041.69 221.33 1041.77 218.17 1040.58 216.04 1039.65 213.66 1040.08 212.22 1040.03 208.38 1039.09 207.85 1037.35 206.48 1035.8 204.12 1032.45 203.59 1031.97 201.93 1031.77 200.26 1029.87 198.62 1029.08 195.39 1027.97 194.85 1026.4 193.07 1024.48 192.35 1020.9 188.98 1019.33 184.67 1015.3 183.02 1014.31 179.52 1016.73 176.97 1016.52 175.6 1016.91 172.87 1015.64 171.65 1014.46 170.7 1012.84 168.49 1010.42 167.63 1013.87 167.15 1014.39 165.05 1014.44 160.23 1011.65 155.9 1007.14 153.17 1006.77 151.81 1005.59 150.89 1004.07 149.5 1003.1 147.83 1002.28 147.01 1004.81 146.55 1007.12 145 1007.75 143.3 1009.62 139.02 1012.68 138.29 1014.18 136.87 1013.27 135.42 1011.4 131.61 1012.55 128.38 1012.07 127.62 1013.84 126.68 1014.02 123.67 1015.41 122.42 1017.89 122.06 1019.6 121.48 1020.03 119.91 1020.16 118.6 1020.91 115.39 1020.08 112.78 1018.99 108.86 1019.95 104.27 1022.3 103.35 1026.11 101.78 1030.61 99.97 1030.94 97.46 1028.56 96.79 1028.52 95.01 1026.19 93.34 1025.49 91.8 1023.75 92.3 1022.63 92.2 1019.09 92.4 1017.9 91.81 1012.53 90.91 1011.66 90.22 1009.75 89.46 1009.15 88.38 1009.09 88.17 1008.65 85.38 1007.47 83.06 1006.64 82.06 1005.52 79.89 1005.02 77.18 1005.36 77.39 1003.16 78.03 1001.99 77.51 999.73 77.11 997.09 76.49 994.32 71.06 990.06 71.44 989.11 72.08 986.48 74.16 984.61 74.46 981.5 73.95 977.71 73.96 975.78 74.33 973.52 75.44 970.13 78.08 968.16 80.71 965.39 82.34 962.32 85.97 962.04 88.73 961.58 90.79 959.32 93.48 957.26 95.46 957.76 96.12 957.56 97.84 955.77 98.05 955.17 99.22 955.35 99.24 954.41 100.01 953.35 100.56 951.72 100.47 950.56 101.55 949.3 99.68 946.89 100.14 944.67 99.82 942.06 98.43 939.12 99.89 933.68 98.92 933.11 95.98 931.82 94.39 931.52 94.13 929.66 90.64 929.06 89.96 927.76 88.01 925.32 85.88 924.45 83.91 924.59 83.13 925.1 81.43 925.17 79.36 924.33 78.83 923.5 77.91 923.41 75.65 920.79 74.41 920.9 73.51 917.35 71.48 914.25 71.92 913.02 71.16 909.27 70.6 907.39 70.01 906.34 70.04 905.72 69.08 903.31 68.28 902.75 66.92 902.48 65.25 901.01 64.71 900.23 62.86 899.52 61.49 899.33 59.74 898.47 58.17 897.04 55.41 897.05 54.79 895.09 48.46 890.77 46.52 889.96 45.77 888.82 45.87 887.72 47.09 886.94 52.13 885.52 56.96 882.76 59.93 880.44 64.31 879.52 65.65 878.9 67.17 876.54 70.33 872.11 69.29 865.43 71.61 864.83 75.37 861.91 75.36 857.58 75.03 851.81 72.85 849.77 72.04 847.49 71.54 844.54 70.91 838.09 67.88 835.52 64.87 834.65 62.1 834.64 58.62 833.9 57.35 832.85 57.17 831.66 53.55 830.34 51.21 829.92 50.33 829.6 49.82 830.77 49.22 831.34 47.02 832.75 45.63 832.93 44.93 833.89 39.99 833.06 38.03 831.85 35.63 832.55 31.69 832.52 30.07 832.19 28.12 833.09 20.42 834.55 20.15 832.7 18.66 830.42 15.46 828.46 12.79 826.12 8.1 818.48 6.46 819.58 2.38 819.35 1 818.67 1.52 815.16 2.44 813.09 3.85 811.53 6.18 808.22 7.43 807.38 8.72 806.95 11.04 805.66 12.59 805.85 14.58 805.75 16.55 806.88 18.68 806.39 22.22 806.2 24.38 804.79 25.36 804.51 26.36 803.86 28.35 803.2 29.44 803.16 30.86 802.08 31.76 801.75 31.99 800.69 32.55 799.83 32.18 795.08 34.44 792.96 34.07 791.29 32.81 789.42 32.43 787.17 32.99 786.11 35.96 786.02 38.41 784.7 39.98 785.43 40.66 786.07 42.89 786.72 44.65 786.76 46.29 787.35 47.57 786.36 48.59 786.46 51.37 788.47 52.76 788.65 54.03 788.1 55.53 788.31 57.45 787.61 60.3 786.18 60.52 780.89 60.41 779.02 59.68 777.35 59.6 774.26 60.39 772.47 61.61 770.54 61.65 768.84 61.3 767.76 61.3 766.31 62.47 761.18 62.79 760.29 62.76 758.92 63.21 758.01 62.98 756.96 60.6 754.82 61.25 751.8 60.87 751.42 60.61 749.17 60.78 747.42 61.82 746.72 61.77 744.17 61.35 742.19 62.43 738.88 63.31 737.8 62.66 736.33 62.64 734.55 63.77 732.19 65.66 732.83 66.87 729.82 69.59 729.37 70.3 729.38 71.66 728.71 72.78 729.94 74.41 732.75 76.22 733.35 80.52 730.91 83.2 729.14 84.08 729.46 87.63 731.42 91.29 732.37 92.97 731.82 95.44 731.59 97.34 732.36 99.28 732.14 100.84 732.88 102.72 731.89 106.4 730.97 107.12 731.3 108.78 731.08 111.39 731.21 113.46 731.01 115.58 730.18 119.33 729.41 120.24 728.43 120.9 726.44 123.1 724.27 125.44 725.01 125.83 725.44 128.85 726 129.07 725.19 131.93 721.63 133.49 720.86 133.37 719.75 134.69 717.49 134.07 716.89 135.17 715.31 136.12 715.13 137.6 714.41 138.32 712.18 139.48 710.3 141.01 709.88 141.65 709.96 143.8 709.35 145.45 709.12 146.88 708.34 148.04 708.21 150.39 707.12 152.85 706.43 153.42 705.97 154.46 704.31 155.41 704.67 157.6 705.09 159.06 704.95 160.02 707.18 162.86 707.38 164.52 706.46 165.78 704.78 166.9 702.96 167.23 701.76 168.27 700.43 168.41 698.91 168.3 696.47 169.13 694.99 168.29 693.03 168.49 689.79 167.33 688.57 167.04 687.44 167.21 686.63 169.2 684.29 169.83 681.94 170.02 679.92 169.41 678.81 169.12 677.24 170.72 673.69 171.42 673.46 173.48 671.49 174.5 670.95 176.87 670.06 177.83 669.52 179.57 668.1 181.12 665.75 182.01 662.74 182.52 661.49 183.41 660.11 183.86 658.95 184.41 658.65 185.61 659.02 190.97 657.71 191.62 656.34 193.03 655.09 195.59 651.33 196.66 649.9 196.4 645.14 196.82 643.83 197.96 643.08 199.56 639.84 200.27 637.78 202.14 633.05 202.75 633.21 204.04 632.11 206.19 630.91 207.19 631.07 207.75 630.49 209.52 631.21 213.19 631.84 215.44 631.06 217.18 630.89 218.77 629.58 220.54 628.34 221.73 627.06 222.65 626.89 224.4 625.57 224.02 622.51 225.83 618.54 225.7 617.42 226.78 615.26 228.59 613.77 230.11 610.75 230.77 608.43 231.66 607.45 231.41 606.82 231.05 603.81 228.54 600.59 225.91 595.83 225 594.98 225.06 593.03 224.79 592.04 225.52 590.75 225.42 589.17 224.94 587.92 227.61 586.08 229.95 584.68 230.28 583.49 231.3 582.35 230.01 580.28 230.27 579.54 231.1 578.9 231.57 575.61 230.22 574.59 231.08 571.22 228.28 569.4 227.37 567.66 224.84 565.43 224.11 564.19 222.87 562.98 223.15 561.46 221.6 557.67 222.71 557.56 225.44 554.72 228.13 551.04 229.54 545.04 229.6 543.57 230.14 541.06 231.13 539.74 231.38 536.06 231.83 535.02 231.74 533.46 232.33 531.88 233.48 529.88 234.65 529.27 236.27 528.01 236.75 527.26 238.27 525.84 236.43 521.78 236.95 520.51 236.77 518.89 238.09 517.41 241.14 514.43 243.43 512.02 243.88 511.07 245.36 509.06 247.21 504.06 249.05 500.71 249.32 499.77 248.79 497.23 247.43 493.49 248.27 492.19 249.38 491.45 249.61 489.26 249.88 488.28 253.76 483.87 254.22 481.68 254.66 480.52 257.12 476.94 257.84 472.16 257.88 471.05 255.62 470.38 254.85 469.58 257.04 467.1 259.66 465.42 261.47 464.73 263.48 464.87 262.06 462.12 263 459.54 263.64 458.52 263.19 456.24 263.33 452.98 262.56 451.54 263.02 449.15 262.51 448.23 263 445.41 262.78 444.56 263.11 443.82 261.45 441.51 261.81 438.54 260.31 436.08 259.17 434.69 258.7 433.1 257.85 432.26 257.73 430.13 255.89 430.12 254.19 426.36 251.88 423.95 251.15 420.4 250.85 417.04 250.42 415.38 249.22 412.95 248.38 409.25 247.75 408.79 247.04 407.19 246.56 407.29 246.22 406.21 245.41 406.35 245.3 405.6 243.72 403.92 242.9 402.54 242.17 402.43 240.88 399.21 240.79 396.45 241.18 394.9 242.33 393.96 242.05 392.68 242.88 391.84 242.43 390.29 242.36 388.76 241.78 387.97 242.82 385.98 242.8 385.32 242.13 384.26 241.46 383.71 241.48 382.18 240.9 381.31 241.38 380 241.86 379.73 242.44 378.66 242.98 378.43 243.51 377.25 243.51 376.57 244.24 375.96 244.95 373.78 245.63 373.29 245.33 372.67 246.1 371.36 245.99 370.33 246.24 369.33 246.77 368.92 246.76 368.18 247.51 367.73 249.16 365.48 248.33 363.95 246.92 362.35 245.74 362.35 241.64 359 241.56 354.76 241.68 350.13 240.31 349.44 236.59 348.47 232.66 349.45 232.09 346.43 232.18 344.98 232.71 343.19 232.8 342.18 233.32 341.52 233.61 339.99 233.45 338.67 231.75 336.83 232.33 335.86 232.31 331.44 231.43 330.83 230.24 328.32 229.38 327.22 229.33 325.65 230.12 325.39 231.49 323.65 231.78 322.55 232.96 321.98 233.88 322.11 236.25 320.74 237.29 319.8 237.82 318.38 238.67 318.28 239.62 317.26 240.54 313.61 242.01 312.12 242.98 312.65 243.56 313.34 244.28 313.31 244.8 314.05 247.02 315.6 248.66 317.47 250.37 318.33 250.76 318.86 251.71 318.94 252.57 319.53 254.12 319.92 254.54 319.39 255.56 319.86 257.37 320.18 259.72 319.74 260.09 320.04 262.48 320.24 262.97 316.97 261.52 316.04 259.35 315.44 257.69 312.92 255.39 312.04 252.86 309.49 251.76 309.16 251.31 308.06 251.39 307.19 250.55 304.52 250.06 304.12 250.13 302.42 251.66 301.3 251.82 300.36 252.36 299.54 253.29 298.89 254.09 297.57 254.2 295.56 255.13 294.99 254.75 293.96 254.82 291.77 252.84 290.96 250.84 288.99 249.64 288.69 248.54 288.12 246.51 286.05 244.42 284.74 243.84 284.08 243.09 283.95 240.55 284.29 240.73 283.13 242.13 282.46 244.33 277.85 244.37 277.24 243.67 276.61 242.39 274.47 242.76 272.22 243.3 271.02 245.39 269.37 247.06 269.95 248.68 269.39 250.16 267.68 251.57 267.38 252.3 266.6 254.71 266.92 255.2 266.38 257.63 266.09 258.17 265.25 260.21 262.99 260.7 261.29 261.37 259.81 262.16 259.15 262.33 257.46 263.44 256.35 264.02 256.3 265.92 255.51 267.5 254.29 268.7 254.86 273.42 255.04 272.66 253.8 271.46 252.92 270.29 252.33 268.61 250.84 268.39 249.76 268.34 246.69 268.82 244.42 269.9 242.36 271.2 240.71 273.65 238.8 274.79 238.1 275.77 236.75 277.03 237.65 278.47 235.33 279.3 232.76 279.04 229.52 278.28 228.31 278.18 226.1 278.49 224 280.58 220.93 282.21 219.26 283.43 216.54 284.24 214.25 284.15 210.76 283.61 207.16 283.25 206.37 280.32 206.44 280.19 202.01 278.82 199.96 277.99 197.86 276.61 197.73 276.05 194.84 275.83 192.87 275.77 188.71 273.58 191.03 271.34 192.06 270.55 191.78 269.9 192.13 269.8 192.93 266.98 194.86 265.69 195.03 264.17 194.49 262.47 194.95 261.43 194.62 259.71 195.02 258.81 193.96 258.36 191.81 257.77 190.66 257.04 190.05 256.67 187.48 256.03 186.52 255.83 182.99 255.09 182.35 254.72 181.24 254.73 179.81 255.16 178.12 254.53 175.65 253.53 174.01 253.9 172.32 253.31 171.2 252.61 170.93 251.2 168.2 249.86 168.01 248.38 168.93 246.33 169.18 243.58 169.26 242.4 168.46 241.61 167.38 240.11 167.15 239.96 163.97 239.81 163.48 238.24 162.78 237.75 162.04 237.85 161.04 236.22 159.66 235.34 159.2 234.56 159.54 231.83 160.23 230.43 159.9 229.22 159.2 229.93 158.23 232.19 157.9 235.98 155.08 235.53 153.5 235.47 152.42 234.44 151.48 234.52 150.04 236.19 148.52 237.48 148.44 238.31 147.08 238.27 145.62 237.65 142.36 238.27 139.88 237.56 138.74 237.35 137.17 239.41 136.73 239.59 135.38 240.39 134.37 240.11 132.38 239.73 130.89 240.19 129.31 240.1 128.45 239.28 127.65 238.83 125.85 239.34 124.22 241.04 122.51 241.11 121.34 242.24 119.92 243.86 119.34 244.73 119.28 246.45 119.9 247.15 121.02 247.37 121.97 248.11 122.27 249.97 121.86 254.24 120.21 255.3 119.41 255.8 118.5 258.84 116.25 259.97 115.63 261.82 115.86 264.67 115.77 268.11 116.48 272.25 113.96 271.18 111.87 271.16 110.03 270.32 108.19 269.01 106.37 268.78 104.68 269.1 104.17 268.63 101.98 267.69 100.76 266.7 97.48 264.4 92.98 262.72 91.56 261.74 90.19 260.93 90.08 260.54 88.8 259.5 87.97 258.29 87.75 257.57 86.71 257.41 85.72 256.02 84.27 254.86 84.04 253.74 84.13 251.44 86.17 250.67 85.8 249.03 85.78 248.26 86.17 247.69 84.88 246.67 84.65 247.84 82.38 247.89 79.53 248.46 78.84 248.27 77.26 247.62 75.68 247.51 74.38 248.88 73.81 250.75 73.34 250.94 72.24 252.38 70.85 253.31 69.33 254.23 68.48 255.62 67.91 255.65 65.31 255.19 64.18 255.76 62.53 255.83 58.43 256.68 56.09 256.24 54.13 258.46 53.58 260.47 51.8 261.6 51.78 261.96 50.39 262.45 49.98 263.62 48.04 264.5 47.16 265.01 46.08 265.6 45.82 267.32 46.09 268.48 45.7 269.32 43.9 269.41 41.65 270.83 40.31 270.9 38.33 271.77 37.28 272.11 34.99 271.87 34.29 274.33 31.56 276.92 30.38 278.52 30.55 278.95 29.8 279.78 29.79 280.67 28.62 281.1 27.63 281.17 25.51 282.81 23.47 283.23 22.49 284 22.1 284.06 20.86 286.34 19.52 287.5 16.62 287.52 15.12 287.07 13.48 286.16 11.46 285.79 9.9 285.28 5.65 285.42 3.58 288.52 2.47 289.26 2.95 292.15 2.28 292.72 1.54 294.36 1 295.26 3.36 295.95 4.05 296.17 6.23 296.46 7.18 297.1 7.92 298.39 8.59 299.63 8.57 300.73 9.86 301.86 10.68 302.63 12.22 304.05 12.83 305.4 12.03 306.35 13.07 307.36 13.61 308.15 12.95 310.2 14.46 310.81 16.01 312.22 16.34 313.96 15.2 317.41 16.88 320.38 15.47 323.58 15.09 325.28 16.95 327.7 16.49 329.95 17.65 330.34 17.61 331.11 16.12 331.12 15.13 334.67 13.22 335.94 14.55 338.29 15.03 341.46 13.56 344.41 16.47 348.84 16.68 348.49 20.93 352.82 22.02 354.6 22.82 355.47 24.05 356.31 24.7 355.96 26.57 356.44 27.23 355.92 29.2 356.83 30.5 358.18 30.51 359.7 30.94 360.74 30.28 362.31 30.8 365.24 33.43 369.65 35.05 370.36 33.86 372.02 34.54 373.1 35.53 377.21 35.3 377.69 37.44 376.51 40.52 377.96 42.49 379.71 44.04 378.7 46.86 374.71 47.59 378.33 54.23 378.22 55.31 378.41 56.48 381.33 62.14 381.23 65.7 383.21 65.94 383.16 67.49 384.12 68.37 384.73 69.63 385.52 70.35 385.46 71.88 385.9 73.51 384.89 75.86 385.09 77.81 386.96 80.75 387.4 83.74 386.71 86.81 388.39 90.51 392.21 92.81 394.75 95.09 395.83 96.56 398.14 95.11 400.09 94.71 401.81 94.98 403.87 96.06 407.17 99.87 408.03 101.11 410.63 105.34 411.12 106.82 411.23 107.87 412.06 112.57 412.36 114.78 415.72 118.36 418.25 121.43 419.98 122.78 420.19 124.02 421.52 126.06 425.25 127.11 427.48 127.24 430.49 127.06 434.06 126.33 435.9 126.38 437.74 126.02 439.47 125.98 440.85 125.61 442.88 124.67 444.2 123.71 446.18 121.92 447.92 121.5 448.82 120.95 450.29 121.66 451.52 122.02 452.6 122.8 453.73 123.16 456.91 122.41 457.5 122.82 460.44 121.77 462.01 122.45 463 122.22 463.67 121.69 468.45 122.92 469.53 122.29 472.12 122.65 474.19 121.88 474.66 121.51 476.68 120.85 477.61 121.14 482.82 121.18 483.14 122.18 484.31 123.04 484.53 123.82 487.64 122.59 489.57 122.28 490.36 121.19 492.71 120.16 494.06 119.13 495 117.69 499.9 116.03 499.54 119.65 500.99 121.8 501.51 122.3 503.6 123.6 504.47 125.68 505 126.19 505.36 127.99 506.3 128.9 507.38 129.13 507.83 129.72 512.09 130.73 513.45 131.97 514.87 132.7 520.43 132.13 521.88 134.58 522.66 134.58 523.45 135.15 525.06 134.74 526.32 135.91 526.8 138.18 528.09 138.69 528.48 139.85 529.88 141.4 531.63 140.37 533.12 141.18 534.16 141.13 534.95 141.57 536.62 141.51 538.52 142.55 540.8 144.38 541.39 146.58 541.32 147.89 542.19 148.33 544 151.06 545.19 153.93 545.02 156.1 545.68 157.84 545.8 160.37 546.33 161.03 546.63 162.26 546.46 163.2 544.63 164.83 544.43 165.66 542.23 166.24 540.08 171.09 538.35 173.18 538.3 173.63 539.21 174.88 541 175.32 541.72 176.83 542.81 177.68 543.84 180.37 545.04 181.98 547.96 181.96 548.47 184.02 547.51 186.38 546.3 187.78 545.49 189.14 543.63 190.81 542.95 191.67 542.18 194.33 541.58 195.08 540.23 195.56 540.33 198.04 542.18 200.15 543.86 199.88 544 202.82 544.66 202.89 545.59 203.71 546.02 205.27 547.4 207.01 547.42 209.47 546.68 211.62 546.65 213.49 545.06 215.96 544.48 217.41 546.22 219.99 548.13 221.16 549.61 221.47 549.98 223.11 550.99 224.4 552.57 223.93 553.21 222.85 557.4 223.91 558.82 223.75 559.99 223.06 562.41 225.03 563.49 225.75 563.9 226.36 566.36 226.69 567.59 226.98 567.99 226.61 569.14 226.76 571.52 228.43 573.26 228.47 574.53 228.19 578.41 222.77 579.5 223.28 585.3 224.58 589.33 225.19 Z" id="37530000"/>
</g>
</svg>