<?xml version="1.0"?>
<svg xmlns="http://www.w3.org/2000/svg" version="1.2" baseProfile="tiny" width="800" height="1319" viewBox="0 0 800 1319" stroke-linecap="round" stroke-linejoin="round">
<g id="sigung">
<path d="M 622.16 1205.63 623.02 1206.28 622.85 1208.5 621.35 1206.36 622.16 1205.63 Z M 622.75 1179.23 622.69 1180.64 621.51 1180.61 620.74 1179.88 621.2 1179.13 622.75 1179.23 Z M 709.16 89.56 709.29 91.43 707.23 94.02 707.11 95.22 706.12 95.21 706.56 96.54 706.67 98.48 705.75 99.5 705.92 96.77 705.36 96.21 703.63 97.65 702.96 96.72 696.86 100.8 695.39 102.71 694.78 104.01 694.47 106.93 693.91 108.81 693.32 114.08 693.38 116.28 693.86 119.77 694.16 125.4 694.44 127.75 694.22 132.78 691.1 138.08 689.56 142.38 687.63 146.65 687.25 149.28 688.93 155.23 689.45 156.29 688.49 156.84 688.29 155.55 686.97 151.82 686.77 150.55 684.29 150.77 683.57 152.1 683.49 154.18 683.97 154.74 686.22 154.65 685.87 155.43 684.17 155.48 682.99 156.18 682.27 157.37 681.66 160.35 681.87 172.27 682.34 173.94 682.66 176.93 683.25 178.68 684.24 184.9 685.17 187.26 686.14 191.29 686.28 192.92 686.89 195.25 687.99 197.57 688.6 200.76 689.25 201.65 689.03 202.87 690.27 205.88 690.9 208.65 692.78 211.04 692.84 213.47 693.84 216.05 693.51 217.55 694.3 220.09 693.9 221.3 693.22 221.7 694.19 223.5 693.71 225.59 692.71 226.93 692.94 229.18 691.92 231.76 691.88 233.23 692.57 235.98 692.61 238.82 691.3 240.38 690.17 239.43 691.82 238.33 691.33 234.02 690.99 232.7 688.57 232.76 688.77 236.85 686.69 236.14 685.58 236.17 684.48 236.74 681.69 239.32 680.21 242.37 679.65 244.1 678.91 247.96 679.1 251.26 679.89 254.62 679.82 256.59 680.46 259.1 680.72 261.19 681.44 262.85 681.71 265.09 683.13 270.09 683.95 272.2 685.16 277.15 686.23 278.57 686.83 281.55 686.86 282.73 688.71 286.49 689.22 288.34 691.56 292.7 693.3 296.78 694.96 298.84 695.9 302.15 697.33 304.59 698.55 307.16 700.61 309.2 700.8 310.92 702.41 313.5 703.73 314.92 706.2 318.93 708.46 321.72 711.16 325.99 713.89 329.26 714.45 330.2 716.41 332.25 719.28 335.69 722.5 340.11 723.93 341.72 727.82 345.45 729.32 346.65 730.72 346.5 732.01 347.62 733.16 347.6 734.92 349.8 735.41 350.92 737.99 352.92 740.17 353.74 739.58 354.23 737.72 353.45 736.24 352.17 734.77 352.8 735.14 353.86 737.18 356.61 736.85 357.39 737.86 358.86 739.31 357.91 740.58 358.05 740.93 360.34 744.04 360.89 745.96 361.8 749.65 363.98 751.35 363.83 751.88 364.28 751.43 365.68 749.16 365.27 745.57 362.61 742.32 361.44 741.03 365.08 737.95 366.86 738.62 368.71 742.27 368.31 744.38 367.39 744.4 366.63 746.54 366.24 745.99 367.75 745.19 368.75 747.83 370.88 749.21 371.2 750.04 372.51 751.34 372.7 751.67 373.82 753.06 374.69 754.09 374.74 753.63 376.39 755.21 376.39 756.54 377.24 755.61 378.12 755.73 379.12 756.61 379.43 757.79 380.95 759.04 380.76 759.31 382.68 759.86 383.99 762.02 384.58 761.93 385.92 760.99 387.24 762.01 389.32 760.84 390.24 760.85 391.22 762.35 391.11 762.37 392.28 763.76 394.6 764.08 396.64 763.13 396.48 762.98 395.01 761.69 394.37 760.4 394.6 759.9 395.49 760.64 396.51 760.12 397.29 761.38 399.17 761.13 400.1 761.72 402.55 761.07 403.47 761.82 404.12 761.34 405.05 760.39 405.24 759.32 406.92 759.86 407.91 759.14 408.68 759.95 409.89 760.33 411.51 761.7 412.14 762.21 413.23 763.1 413.23 763.33 415.3 762.27 416.28 761.7 417.98 762.31 421.49 761.38 421.4 760.94 422.85 759.59 423.58 759.58 424.85 761.73 424.96 762.18 426.18 759.91 426.56 759.72 427.17 760.34 429.13 761.3 429.17 761.34 430.82 760.63 431.9 759.82 435.59 762.25 436.93 761.21 439.66 761.49 441.23 762.31 442.11 762.11 445.42 763.01 446.78 764.69 446.98 764.77 447.85 763 447.58 761.36 448.64 762.33 450.64 764.71 449.98 764.77 451.14 763.84 451.14 763.67 452.42 762.72 455.82 763.05 456.54 764.82 457.91 764.71 459.03 766.12 463.05 767.21 464.89 766.87 465.94 767.58 466.61 767.92 469.37 767.19 472.52 767.76 476.32 767.35 479.57 767.77 482.21 768.71 483.31 770.15 484.04 771.2 482.84 771.78 482.85 773.27 484.74 771.56 484.61 770.55 486.11 772.15 485.84 772.62 486.57 772.03 488.05 773.37 488.52 775.04 489.75 774.31 490.7 774.52 491.74 773.95 492.73 774.6 494.26 774.47 495.85 775.58 495.7 775.82 499.54 776.32 501.25 775.09 502.91 774.84 504.48 774.3 505.13 774.98 506.62 775.17 508.09 774.57 509.61 774.44 511.27 773.79 511.83 774.36 512.92 774.33 513.99 776.15 514.34 778.7 513.06 781.37 512.67 782.3 513.55 783.65 513.57 784.56 514.42 786.27 513.68 787.48 512.66 788.47 513.53 788.02 514.36 790.71 517.26 794.92 517.19 797.9 518.08 797.18 519.39 795.43 518.36 790.27 518.36 789.11 517.63 787.06 516.91 786.64 518.47 785.62 519.64 784.73 524.52 783.93 525.24 782.88 524.13 781.81 525.05 782.38 526.99 783.6 528.34 785.07 528.95 787.62 528.89 789.1 528.27 787.78 524.43 788.77 522.33 789.82 522.72 793.97 522.63 793.66 520.98 794.84 521.12 794.93 522.95 796.74 522.99 797.81 522.4 798.43 523.25 797.77 524.01 798.8 525.12 799 526.65 798.43 527.94 797.69 528.11 797.97 529.51 797.25 529.89 797.11 532.13 795.28 533.67 793.76 534.24 791.58 536.28 790.28 535.58 788.5 535.13 788.06 534.22 786.38 534.65 784.1 536.49 782.33 538.81 781.36 541.69 781.1 544.11 781.51 546.39 780.78 548.7 780.82 551.73 781.06 553.14 781.91 554.27 780.41 555.07 781.85 555.97 781.6 557.45 781.94 558.94 781.18 559.8 780.77 561.15 781.92 562.07 782.17 563.85 781.33 564.77 781.09 566.46 780.24 567.19 780.63 568.71 779.74 569.83 779.24 572.57 776.92 573.93 777.42 574.92 776.7 576.72 775.91 577.57 775.78 579.42 776.71 582.37 779.2 582.84 778.78 583.4 777 583.15 776.76 584.81 778.5 585.64 777.39 586.43 775.97 586.79 775.91 587.46 777.43 588.08 777.55 589.26 776.79 590.46 774.87 591.66 774.01 593.37 771.7 595.28 770.53 593.98 768.41 594.68 768.44 595.31 766.29 595.4 765.32 596.42 766.06 597.94 765.17 600.08 763.9 601.34 763.12 601.34 762.47 600.09 761.06 600.75 759.63 603.32 758.88 605.11 758.16 605.63 754.4 605.49 755.2 607.85 755.56 612.41 754.88 615.16 753.87 615.6 754.58 612.79 754.18 608.14 753.32 607.39 751.37 608.07 749.59 611.3 750.6 612.53 748.74 613.47 748.02 614.63 747.88 615.76 749.49 617.81 750.33 619.62 749.15 621.7 750.89 623.54 749.95 623.82 750.37 626.89 748.61 627.51 747.6 629.68 748.26 631.32 750.01 632.77 753.4 630.94 753.61 632.05 750.68 633.31 749.59 634.56 750.91 636.16 751.02 637.69 752.15 638.26 753.6 637.19 753.66 638.56 752.03 639.64 751.46 640.6 752.89 642.86 752.98 644.25 753.9 644.93 755.41 645.32 756.37 647.26 756.33 650.71 757.56 650.36 757.17 652.01 757.82 653.3 758.04 654.75 759 657.81 759.74 658.16 760.2 660.01 759.68 661.28 760.21 661.89 759.83 663.25 760.39 664.64 761.34 665.53 761.84 663.8 762.64 663.93 761.45 666.41 761.24 668.05 761.77 669.78 761.28 671.24 761.25 674.65 760.18 675.82 760.08 676.58 760.7 679.66 760.14 680.43 760.37 681.79 759.92 684.65 759.02 685.46 759.4 687.21 757.98 689.69 756.87 690.68 757.31 695.29 757.8 697.22 757.49 697.71 756.85 703.41 756.05 704.78 756.02 705.84 756.71 708.03 757.72 710.3 758.05 713.07 758.77 713.65 758.21 715 758.99 717.2 760.16 719.68 759.79 722.95 759.84 724.35 760.62 726.59 759.81 727.45 759.59 728.99 757.53 730.64 757.8 732.27 759.42 734.28 759.22 735.92 757.94 735.62 758.17 734.6 756.8 732.6 756.55 730.67 754.64 731.22 754.43 731.99 756 736.44 756.63 737.55 756.17 738.24 757 739.86 756.99 741.59 756.18 743.32 754.78 744.24 754.45 747 753.6 746.64 753.98 744.34 752.84 744.51 751.16 745.78 750.43 747.58 751.72 749.89 751.9 752.8 751.48 755.07 751.91 756.65 751.69 758.36 753.15 762.77 754.42 765.55 754.9 765.5 755.82 767.09 754.93 768.98 755.29 769.82 754.95 770.87 755.54 771.78 757.2 772.29 759.2 773.28 758.5 774.16 756.85 772.82 755.44 773.09 755.66 774.03 756.74 774.98 756.72 775.8 758.21 776.44 758.61 777.97 758.26 779.22 758.98 780.51 758.79 781.79 760.05 783.55 759.93 786.6 760.58 788.26 760.48 791.71 760.92 793.68 760.02 795.62 760.49 796.51 758.7 798.3 759.36 799.4 757.77 800.97 758.26 802.54 757.73 803.84 754.85 806.8 755.82 807.46 753.58 808.35 753.86 810.25 753.05 811.78 753.14 813.48 751.88 815.36 751.19 815.84 750.25 819.28 749.71 819.85 748.69 822.12 749.02 825.13 748.87 826.09 747.89 827.31 746.54 830.1 746.79 831.12 746.27 833.69 746.64 835.1 746.48 836.99 745.34 841.15 746.22 843.41 745.25 845.44 744.75 849.55 744.09 850.56 741.38 853.04 740.76 854.44 739.96 857.61 739.05 858.66 738.95 861.52 737.58 864.39 736.24 865.68 735.3 864.99 736.88 864.01 738.2 861 738.26 858.48 734.96 858.36 734.85 859.17 732.38 861.76 735.43 862.89 734.48 863.26 731.74 862.06 730.19 863.68 730.88 865.05 730.24 865.73 730.56 867.74 729.11 869.47 725.92 874.93 726.24 876.28 727.5 879.48 727.61 880.74 727.15 882.19 726.29 882.16 726.8 880.25 725.46 876.55 724.72 878.41 723.6 880.16 723 879.51 721.3 880.49 721.42 881.44 720.49 883.13 719.58 882.54 717.85 882.95 715.34 884.19 714.17 885.2 713.37 886.41 713.32 888.01 712.38 888.73 712.62 891.1 710.81 895.52 710.17 897.69 708.7 899.46 708.89 901.33 706.63 904.23 706.44 906.2 705.2 907.07 704.47 908.36 702.61 909.57 701.99 911.21 699.43 912.77 698.47 912.74 697.4 916.17 695.06 916.52 694.66 915.9 697.13 915.28 697.71 913.01 695.4 912.85 695.09 912.4 692.54 912.27 693.24 913.52 691.12 914.42 689.45 916.12 688.28 918.11 687.54 920.31 687.44 921.92 686.67 925.42 686.06 931.36 685.77 935.19 685.67 939.88 686.39 940.32 683.59 943.36 684.27 944.07 682.86 944.73 682.09 946.03 681.03 948.62 679.92 949.27 679.43 951.25 677.11 953.76 675.35 956.79 676.59 959.39 676.06 959.75 674.96 957.53 673.9 958.63 672.23 961.24 671.6 963.78 672.28 964.44 669.79 968.89 667.92 969.36 666.86 971.15 666.47 972.68 667.27 973.55 667.1 974.77 666.31 975.15 666.68 976.7 666.1 978.21 664.41 979.34 663.5 979.01 661.21 980.14 659.93 982.25 660.02 983.21 659.21 985.26 658.6 984.51 657.67 985.77 656.9 987.7 657.06 989.11 658.09 989.72 657.01 992.5 655.7 993.96 655.73 995.15 656.32 997.46 656.43 999.08 655.41 1000.87 655.48 1002.04 656.33 1002.39 657.74 1003.96 658.28 1005.5 658.26 1007.12 657.19 1008.89 655.52 1010.32 655.56 1013.9 653.71 1014.63 652.16 1014.91 650.62 1015.62 652.01 1017.24 651.9 1017.83 653.2 1019.75 653.45 1025 652.55 1024.06 652.21 1019.63 649.09 1015.91 646.19 1019.96 645.64 1019.94 641.96 1023.47 640.91 1024.88 640.36 1026.38 641.32 1026.61 641.29 1029.04 644.27 1029.65 643.75 1030.51 639.7 1029.54 639.12 1030.27 639.11 1033.86 640.05 1036.17 640.68 1036.21 640.49 1038.04 640.07 1038.65 641.38 1042.38 641.44 1044.22 642.05 1045.69 641.19 1046.06 642.48 1048.51 641.98 1049.57 640.51 1049.75 640.6 1050.88 639.02 1052.1 638.2 1054.57 638.97 1055.82 638.14 1058.33 638.07 1059.51 636.97 1060.28 637.34 1062.5 634.12 1064.23 633.73 1067.88 632.92 1068.63 633.34 1064.85 630.97 1064.61 630.17 1065.05 628.88 1066.98 631.23 1067.94 630.86 1068.39 629.29 1067.82 628.43 1068.14 626.77 1070.07 626.32 1071.1 625.95 1073.57 626.32 1078.02 626.87 1079.99 626.06 1083.49 624.35 1086.86 624.23 1089.8 625.18 1090.97 622.86 1092.23 622.29 1093.98 624.12 1096.22 623.57 1096.49 622.44 1094.84 622.16 1096.18 621.09 1096.5 620.33 1097.65 620.25 1098.71 619.35 1099.65 619.69 1100.95 619.22 1102.08 619.19 1104.42 619.76 1108.12 620.9 1112.64 621.51 1114.15 622.02 1118.77 623.75 1121.54 623.47 1122.43 624.08 1124.78 625.19 1124.93 625.56 1127.23 625.39 1128.52 626.83 1128.53 626.81 1129.74 626.19 1130.82 626.58 1131.81 626.04 1133.52 627.24 1134.61 628.06 1135.93 626.71 1136.81 626.72 1137.88 624.19 1141.48 625.93 1144.13 626.24 1145.4 627 1150.57 626.3 1151.44 625.26 1150.98 625.54 1149.66 625 1147.55 624.74 1144.92 623.1 1142.73 620.51 1144.62 619.65 1147.64 620.48 1148.82 619.75 1149.64 620.94 1150.99 620.44 1153.06 619.58 1153.31 620.14 1154.55 619.37 1155.47 621.12 1156.45 621.29 1157.78 620.58 1159.37 621.69 1160.44 621.37 1161.6 620.29 1162.15 621.27 1164.1 621.56 1166.03 621.23 1167.14 621.88 1167.84 621.2 1168.81 622.41 1169.28 622.16 1170.55 622.66 1172.27 621.33 1174.08 621.4 1175.44 622.34 1176.62 621.46 1177.17 621.86 1178.03 619.97 1180.41 617.22 1182.64 616.28 1184.84 616.33 1187.3 617.13 1189.32 617.03 1190.05 617.73 1192.36 617.52 1193.69 618.32 1194.76 620.05 1196.26 620.11 1198.22 620.64 1198.92 620.6 1200.97 620.04 1201.59 620.31 1202.61 622.06 1204.25 623.62 1204.42 624.36 1205.41 621.78 1204.9 620.31 1203.38 619.48 1203.81 619.49 1205.23 620.94 1206.18 622.15 1207.97 623.22 1210.26 622.7 1210.69 622.54 1212.27 621.13 1212.57 621.05 1213.3 619.71 1214.13 619.63 1215.19 620.13 1216.31 621.16 1215.98 622.86 1216.56 621.78 1218.5 619.69 1219.37 619.26 1220.88 619.54 1222.64 620.29 1223.4 621.98 1222.66 622.9 1224.28 622.56 1225.41 623.14 1226.12 620.5 1227.48 619.01 1229.13 619.1 1229.86 621.13 1230.8 621.23 1231.91 619.9 1232.84 619.3 1232.7 618.97 1234.94 620 1234.55 620.89 1236.13 620.56 1237.32 619.3 1238.79 617.46 1239.32 616.21 1239.04 614.18 1240.05 612.43 1239.89 611.45 1241.04 610.84 1242.41 610.44 1245.21 610.73 1248.52 611.67 1254.52 614.09 1262.35 615.07 1264.74 615.71 1265.65 617.64 1270.26 619.34 1272.15 620.22 1271.38 621.38 1271.81 623.14 1270.43 623.69 1271.34 621.84 1272.67 620.33 1274.46 620.28 1276.42 621.41 1279.52 622.61 1280.7 623.73 1279.72 625.51 1279.63 625.74 1280.68 626.98 1280.8 627.08 1281.77 628.14 1285.52 627.58 1286.61 628.41 1287.21 629.25 1288.56 627.74 1288.7 626.59 1289.6 626.17 1291.9 623.84 1295.36 622.35 1296.11 622.3 1297.46 623.22 1299.21 622.42 1299.62 621.41 1297.48 619.81 1298.09 620.17 1298.95 618.26 1300.9 617 1301.77 616.45 1304.01 615.83 1304.33 615.11 1305.79 615.09 1306.78 615.83 1310.3 613 1310.64 609.04 1311.81 606.5 1312.29 603.36 1311.93 601.62 1311.23 599.86 1310.17 598.92 1309.96 594.39 1310.09 590.56 1309.71 586.22 1307.54 584.05 1305.93 577.09 1302.51 574.75 1301.14 570.91 1298.44 570.32 1300.11 566.77 1298.9 561.96 1298.24 562.24 1295.91 558.59 1295.49 556.27 1295.98 555.35 1297.44 553.24 1299.24 552.06 1301.36 549.84 1303.24 548.33 1303.3 545.74 1304.18 543.67 1304.25 541.12 1303.75 540.2 1302.54 537.81 1304.7 537.58 1305.85 535.46 1305.81 532.72 1304.85 531.5 1305.14 528.57 1306.49 527.79 1308.86 527.67 1310.49 528.2 1311.94 525.57 1312.29 523.15 1315.4 520.93 1317.46 519.26 1318 517.94 1317.66 516.3 1316.63 514.99 1314.91 513.07 1313.7 511.15 1313.41 509.68 1310.96 508.66 1310.37 507.03 1311.18 503.4 1314.73 502.89 1315.87 501.12 1316.08 500.08 1315.23 498.02 1314.75 495.8 1313.84 492.32 1315.6 490.04 1315.41 488.95 1310.68 485.57 1309.91 482.87 1309.76 480.45 1310.49 478.51 1310.12 476.08 1310.05 471.61 1307.48 464.68 1306.52 457.04 1302.36 454.43 1303.73 450.88 1303.84 445.94 1308.67 443.73 1311.1 441.77 1310.93 440.12 1312.02 438.53 1313.59 437.53 1315.01 435.94 1315.43 430.57 1315.35 426.96 1315.96 424.66 1313.11 423.67 1310.42 420.98 1308.24 419.89 1306.23 416.54 1304.77 416.57 1301.03 416.23 1297.31 411.95 1295.3 408.57 1294.62 406.49 1293.12 404.47 1293.18 403.28 1292.21 401.84 1289.9 398.06 1288.54 397.53 1286.2 394.48 1281.61 391.43 1279.42 391.24 1276.18 389.15 1271.19 386.66 1267.13 381.37 1262.2 379.21 1257.04 383.32 1253.03 383.42 1250.92 382.3 1248.38 378.66 1232.51 376.18 1228.93 375.38 1226.03 374.56 1224.17 374.93 1220.37 380.66 1218.37 386.45 1215.45 387.2 1213.34 387.27 1211.17 388.21 1209.51 389.1 1208.58 390.85 1208.54 392.22 1206.08 392.09 1192.35 395.05 1191.72 400.06 1189.57 402.7 1188.07 404.96 1185.88 407.22 1182.7 408.39 1179.69 407.39 1174.96 407.71 1171.96 406.83 1168.16 406.92 1165.44 406.39 1164.3 406.44 1162.76 407.4 1160.51 406.78 1158.07 406.51 1151.64 409.11 1150.19 409.16 1149.66 408.53 1142.17 405.88 1134.68 398.96 1127.55 392.41 1125.69 386.58 1121.62 384.52 1117.55 378.35 1110.04 375.52 1104.56 371.49 1104.84 370.41 1107.6 368.46 1109.12 367.37 1110.27 366.67 1110.32 365.13 1112.58 364.6 1115.42 364.16 1116.46 361.87 1117.37 360.86 1117.09 359.89 1117.95 358.28 1117.67 356.7 1116.83 353.75 1118.51 347.51 1123.01 345.24 1123.86 342.46 1122.07 341.39 1122.12 338.92 1120.7 337.62 1119.32 336.39 1117.01 334.94 1116.52 332.63 1110.83 335.12 1107.8 335.64 1106.79 334.86 1106.35 332.13 1110.36 330.61 1111.87 327.13 1114.32 326.37 1114.33 326.24 1116.06 327.29 1116.25 327.33 1117.09 328.56 1120.57 329.05 1122.57 330.17 1125.25 330.09 1130 329.53 1130.84 327.45 1130.52 325.61 1132.29 324.78 1134.03 324.82 1137.37 325.14 1142.66 324.53 1146.66 315.78 1146.33 312.61 1143.71 308.08 1143.04 303.99 1140.2 296.46 1137.46 292.41 1139.36 289.89 1140.06 287.64 1143.31 285.51 1145.06 283.46 1139.78 281.14 1135.96 284.38 1130.83 287.45 1125.77 287.54 1122.62 287.83 1121.66 290.12 1119.34 289.72 1114.5 287.73 1112.86 287.1 1108.87 287.3 1104.16 289.79 1097.71 290.61 1092.97 288.59 1088.17 281.3 1083.39 280.37 1081.93 278.82 1081.35 276.71 1079.5 273.6 1075.21 272.14 1072.78 266.67 1068.72 263.97 1068.05 261.93 1065.98 260.9 1066.34 258.2 1065.91 257.28 1067.13 255.19 1068.54 253.21 1069.26 250.22 1069.7 249.81 1069.42 246.28 1069.51 245.08 1071.27 239.36 1072.62 235.97 1071.02 233.25 1070.97 232.33 1071.3 231.28 1070.42 228.38 1070.59 225.82 1072.01 222.76 1072.58 219.25 1070.75 217.13 1068.84 210.78 1065.39 212.58 1059.72 212.04 1058.16 212.21 1056.79 211.53 1055.76 211.27 1054.19 207.66 1050.58 205.72 1049.03 202.66 1047.02 201.7 1045.35 201.47 1041.25 200.78 1040.54 200.37 1038.86 201.95 1034.34 200.29 1032.56 200.07 1026.56 197.33 1023.31 194.18 1022.09 191.59 1021.48 189.84 1020.33 189.89 1016.17 189.61 1015.6 189.85 1012.38 189.32 1010.78 189.66 1009.46 189.3 1008.27 190.06 1005.45 191.05 1004.28 192.25 1000.76 192.96 999.89 192.73 994.65 194.3 992.5 193.86 991.77 193.77 988.57 193.3 986.32 192.47 985.07 192.87 982.77 194.12 980.78 194.56 979.14 195.57 978.11 197.2 977.38 199.59 974.32 200.95 973.14 201.5 972.08 202.65 971.47 203.54 969.35 205.07 967.55 206.15 965.78 207.33 965.52 208.25 964.64 210.75 963.84 212.25 962.63 214.07 960.18 218.09 956.15 217.6 954.25 216.98 949.37 215.07 945.06 210.62 944.74 208.55 942.79 205.92 941.08 202.33 941.65 201.5 940.73 201.13 938.03 199.61 936.15 197.58 934.7 197.45 934.23 199.43 930.16 200.56 929.66 203.03 919.75 202.68 917.29 204.04 915.87 205.07 915.43 206.99 913.35 211.1 911.93 213.08 907.27 213.98 906.75 217.08 904.22 216.27 902.06 215.78 899.62 214.3 897.47 212.58 895.39 210.26 895.28 207.69 894.35 205.8 892.47 203.31 892.8 201.71 890.97 200.73 889.25 198.51 888.61 197.55 887.09 194.75 884.14 194.07 883.01 192.88 882.85 188.73 881.09 187.37 880.76 186.68 879.31 185.94 876.58 184.85 874.33 183.82 873.16 182.49 870.06 177.92 869.53 174.49 867.87 171.83 868.23 170.23 868.06 171.11 865.5 172.93 863.75 174.42 860.96 173.37 858.53 173.33 852.65 173.54 851.03 173.2 847.75 171.54 842.8 171.36 841.27 170.08 838.56 169.41 835.24 170.53 832.86 169.03 830.96 167.88 828.29 166.12 826.24 166.04 825.06 161.94 823.25 161.2 820.85 160.03 818.75 159.76 817.67 158.06 815.73 154.16 813.21 153.21 811.42 151.04 808.45 149.75 807.57 149.06 806.36 147.36 800.37 144.49 798.91 140.64 799.02 137.32 795.58 135.25 796.27 129.97 796.81 128.66 798.17 123.11 799.46 120.4 802.47 118.81 803.05 117.83 804.27 113.57 805.54 112.42 806.75 111.4 806.92 110.65 808.25 106.8 807.1 108.45 804.19 108.34 802.71 107.55 801.32 104.75 799.5 100.93 798.87 98.75 797.54 95.91 797.92 92.07 796.71 89.74 796.49 86.25 795 83.98 793.65 78.7 791.49 75.62 788.97 74.47 787.61 70.47 784.62 67.5 783.5 65.92 780.81 64 778.89 63.87 776.16 63.46 773.5 62 771.04 60.53 769.21 60.61 766.99 59.17 761.71 57.48 758.72 58.9 755.11 58.31 751.51 59.14 749.25 59.32 744.52 57.38 741.89 56.02 740.63 55.83 739.3 51.74 733.31 48.55 731.77 44.21 727.25 37.61 721.43 37.51 716.73 38.84 714.69 38.65 712.84 40.23 707.98 39.4 706.23 38.22 705.44 37 702.95 34.7 700.53 32.62 699.78 32.35 697.78 31.43 694.48 30.2 691.69 28.35 691.77 27.47 690.93 25.64 687.02 23.98 685.1 20.1 683.47 17.43 680.15 15.54 679.47 15.3 677.62 12.87 675.22 11.93 672.11 12.55 668.09 10.13 663.52 10 660.73 7.34 658.81 6.96 657.14 5.31 655.8 5.63 654.01 2.08 649.28 2.06 646.69 1 644.85 3.5 643.11 5.32 642.83 6.75 642.06 9.49 641.48 8.33 636.82 7.17 634.51 8.15 630.34 8.29 627.03 6.36 623.45 8.3 620.56 8.06 617.48 9.85 616.56 11.31 614.65 11.14 608.34 13.12 603.39 14.65 600.92 15.14 598.44 15.96 596.94 16.18 595.69 14.01 593.13 11.66 591.23 11 590 9.66 589.07 9.68 584.02 9.43 578.12 9 575.46 10.99 571.4 12.55 571.05 13.16 570.27 14.82 569.4 15.58 568.57 18.25 568.22 19.77 567.6 20.86 567.7 21.76 566.92 24.32 566.97 28 564.87 29.46 563.18 30.73 562.72 31.33 560.02 32.76 559.82 34.63 558.45 35.11 557.47 38.57 557.96 39.56 556.02 44.15 557.36 47.28 556.52 48.41 556.62 49.35 555.84 51.4 555.58 53.33 554.36 55.34 554.23 55.91 553.52 57.75 553.38 59.26 551.27 60.79 549.75 62.53 548.97 64.35 547.54 65.32 546.23 68.04 545.31 69.5 546.05 70.77 545.23 72.83 544.38 74.43 545.31 76.78 545.13 77.81 546.49 79.51 545.99 80.84 546.78 83.91 545.36 85.63 545.1 88.34 546.03 88.14 547.28 87.11 550.27 88.13 552.39 93.12 551.97 94.12 552.42 95.89 553.87 96.51 553.99 97.41 556.32 98.35 560.27 99.77 561 100.38 562.66 101.83 563.43 102.52 566.59 103.3 568.34 105.03 570.16 106.35 570.93 107.59 569.13 108.75 566.62 108.41 564.97 109.12 564.09 112.15 562.1 111.72 560.73 110.97 559.81 112.81 559.28 117.13 559.08 118.86 561.19 119.89 561.68 122.75 561.96 125.09 563.77 126.82 563.36 128.52 564.07 128.96 565.36 131.88 565.96 133.94 566.07 136.73 565.33 138.91 565.38 140.58 565.83 141.19 568.79 142.38 568.13 144.25 565.33 144.97 562.41 146.02 561.66 149.39 560.57 150.94 562.29 154.01 563.42 154.57 564.27 156.31 564.39 156.56 565.2 159.12 566.94 160.43 567.6 161 566.99 163.33 567.45 164.41 568.61 166.48 568.83 168.59 568.41 168.99 567.92 172.09 567.21 172.61 568.76 173.63 570.12 174.62 570.73 176.53 570.77 177.97 571.77 179.17 575.65 179.14 576.76 179.83 578.15 180.81 578.8 181.75 580.72 182.81 581.25 183.96 583.03 184.77 586.23 183.38 588.42 183.79 589.02 184.06 591.81 182.14 593.35 183.93 596.86 184.26 598.9 185.86 599.93 186.68 598.05 187.98 597.72 189.6 596.75 191.41 596.82 193.55 597.67 193.37 598.92 195.87 600.75 197.86 601.52 199.13 602.81 200.91 603.68 203.15 602.38 202.49 600.45 203.88 597.97 200.83 593.98 200.45 592.41 202 590.9 205.41 586.56 206.82 585.08 204.85 582.87 205.16 581.88 204.6 580.91 202.48 580.04 202.86 577.44 203.64 576.2 201.58 574.98 201.81 573.99 202.76 573.37 201.08 572.02 200.95 570.63 197.65 569.33 197.23 568.39 196.43 563.43 197.69 562.17 197.76 559.62 198.05 558.92 197.76 557.03 197.15 555.53 195.96 554.22 197.34 552.18 199.52 550.57 199.6 547.27 199.82 546.12 201.51 543.66 201.46 541.82 201.97 540.4 204.74 534.69 203.75 531.36 203.61 528.84 203.87 528.18 203.94 524.4 204.85 521.96 209.21 523.92 211.6 523.88 213.07 524.12 213.49 525.29 215.3 526.26 216.07 527.14 217.64 527.53 219.94 528.96 221.39 527.29 223.85 527.27 227.17 524.5 230.47 528.39 231.07 530.15 232.42 531.47 233.79 533.96 235.75 533.73 239.59 533.79 240.65 536.84 241.3 537.54 245.15 536.4 246.3 537.43 248.06 537.68 250.44 539 252.36 537.16 253.86 536.49 257.68 536.34 259.39 534.88 260 533.7 261.16 532.85 259.71 529.4 258 526.66 256.58 521.07 253.63 512.73 250.12 510.47 248.59 506.12 247.75 502.28 241.73 501.02 238.01 498.54 238.13 495.6 240.54 493.1 240.96 490.71 238.5 489.71 238.34 486.91 237.93 484.6 237.47 483.52 237.26 481.46 237.41 479.09 236.71 476.67 235.26 474.91 233.02 473.62 231.66 471.6 229.75 467.82 227.61 460.78 227.45 457.81 228.11 455.93 228.41 453.6 229.75 451.79 230.27 449.4 229.99 446.84 231.1 444.47 230.08 441.1 228.35 440.01 228 439 228.69 437.05 228.66 435.11 232.95 430.83 235.33 428.21 236.34 425.47 239.99 423.9 243.13 421.64 242.73 418.49 243.03 414.54 242.11 412.55 242.42 408.92 239.49 406.17 238.61 404.25 239.79 399.83 240.16 398.97 239.71 397.99 239.61 395.85 237.57 392.06 237.65 390.8 240.48 388.08 240.33 384.2 241.17 381.37 239.48 378.05 240.74 375.9 241.37 372.75 243.57 371.76 248.82 373.55 252.42 371.73 255.12 371.74 254.97 367.96 253.07 361.76 250.86 360.87 246.26 358.35 246.31 356.84 244.2 350.05 242.02 348.84 239.84 347.97 236.93 347.7 233.23 348.6 227.45 348.06 226.6 343.95 226.94 340.32 226.76 338.57 223.67 336.41 218.51 330.64 218.34 328.5 217.07 326.7 216.22 324.7 216.49 320.44 212.63 315.62 213.11 309.64 211.22 302.26 211.37 297.97 208.46 295.17 205.58 294.05 205.49 292.75 204.08 291.59 197.55 289.75 195.87 289.88 191.25 291.6 188.77 289.61 184.89 291.02 182.36 288.87 180.9 286.32 178.4 285.34 175.23 283.48 174.71 282.53 175.04 281.28 173.7 278.47 174.56 276.32 175.51 271.82 177.83 266.14 179.7 263.34 179.85 260.83 183.13 257.58 185.83 257.82 189.21 254.42 191.55 251.04 191.16 248.44 190.26 246.18 187.76 243.99 188.66 239.06 188.53 234.46 187.59 230.77 189.8 229.95 193.32 232.68 197.77 231.86 199.73 229.34 203.97 227.49 209.7 229.12 210.59 225.33 208.96 222.75 209.27 218.88 208.82 217.54 207.78 215.78 208.38 208.55 208.96 205.52 206.38 201.41 205.21 198.57 204.33 194.92 205.3 192.19 206.06 188.87 206.53 181.31 207.63 177.07 207.98 176.9 214.33 176.24 222.75 175.57 223.52 174.62 224.39 174.39 226.1 172.88 226.62 171.09 229.51 167.99 230.17 162.86 227.65 158.88 225.86 157.8 224.62 154.67 226.74 151.24 229.36 149.24 231.78 148.23 231.49 145.51 231.15 144.6 230.96 141.99 230.38 139.59 228.69 137.34 228.62 135.07 228.07 133.11 229.22 131.87 228.95 130.16 228.11 129.63 227.07 126.92 224.22 126.15 223.44 125.63 223.96 123.65 223.08 122.19 223.9 118.67 222.99 116.51 221.58 116.45 218.68 115.67 217.94 114.99 218.14 111.93 217.91 110.9 218.1 108.37 217.93 107.21 216.78 104.84 213.78 101.98 210.93 102.15 209.55 102.03 208.19 102.36 205.91 100.53 205.68 99.31 206.68 98.27 207.34 96.16 205.99 94.62 204.95 92.93 205.24 90.55 204.29 89.94 203.57 88.73 203.9 85.6 203.59 82.86 205.49 81.11 205.98 79 205.74 77.47 206.21 75.81 205.78 74.24 204.99 73.22 204.83 69.4 205.99 65.38 207.29 64.08 208.28 62.55 208.8 59.98 209.58 57.38 210.17 54.03 211.36 51.74 209.96 50.55 208.54 47.47 209.35 46.58 209.27 45.31 209.83 43.02 211.78 42.45 212.4 41.32 213.97 39.41 215.38 38.37 218.54 39.25 219.5 38.77 220.94 38.98 222.22 37.97 222.92 36.55 224.45 36.54 225.84 35.5 227.11 35.36 229.27 32.93 229.71 31.11 231.84 32.38 233.51 31.49 234.33 30.47 237.5 29.08 237.87 27.75 239.21 26.9 239.74 26.04 241.85 25.02 242.8 24.9 244.49 25.9 245.59 24.86 247.76 24.36 248.79 23.06 249.33 21.65 253.96 20.65 254.54 20 254.74 17.73 257.13 17.71 259.32 15.72 260.14 15.44 261.16 14.16 261.74 11.82 264.21 10.48 266.16 11.73 268.04 12.29 269.65 12.2 271.76 13.78 272.32 16.05 273.2 15.34 274.68 15.68 275.96 15.23 278.76 17.41 281.48 18.59 281.49 16.23 283.58 13.62 284.39 13.39 287.59 13.94 290.2 10.41 292.4 8.35 294.2 7.49 294.31 5.49 295.43 2.44 296.4 1.67 297.44 1.89 298.93 1 303.86 1.47 307.31 1.8 310.55 3 313.68 5.5 314.45 6.57 316.51 8.61 320.69 11.28 323.56 11.86 325.15 10.89 327.06 10.99 328.63 9.04 332.5 9.24 333.87 12.48 338.56 16.24 340.74 17.69 343.97 18.07 347.06 18.81 349.09 18.54 351.4 16.28 353.86 15.01 356.13 14.43 358.62 13.38 360.31 12.03 363.5 12.42 365.99 12.15 367.32 11.2 367.85 9.34 369.76 7.31 370.71 7.41 374.55 11.45 378.52 12.72 380.46 14.91 381.94 14.33 388.76 16.13 393.15 16.26 395.07 17.15 397.09 18.43 399.45 17.35 402.57 16.29 407.2 15.72 410.69 16.76 412.47 16.22 422.32 20.73 427.06 23.05 431.29 24.59 435.73 23.03 437.76 22.97 439.9 21.1 445.07 20.39 448.79 18.9 450.79 18.96 456.64 20.57 458.23 22.5 459.05 24.55 461.02 27.63 462.18 31.96 463.46 33.11 462.95 35.09 463.14 36.14 464.3 37.08 467.73 38 471.21 38.5 473.44 39.69 477.03 40.08 479.91 40.88 488.05 42.85 490.71 44.32 492.13 46.49 493.99 47.36 495.48 47.63 500.17 46.8 503.49 49.77 507.09 49.69 508.06 51.07 511.5 50.56 514.13 51.3 516.29 54.05 518.25 54.12 519.92 57.36 521.57 58.09 522.93 60.35 524.05 64.78 528.47 69.82 531.19 68.35 532.03 66.8 533.56 64.99 535.57 64.22 536.86 61.95 537.64 59.26 539.08 57.63 540.04 53.41 541.04 51.38 541.67 48.89 543.1 47.99 543.08 46.96 544.67 45.01 545.87 42.83 545.71 41.26 546.47 38.62 548.42 38.9 552.05 38.11 555.07 37.02 555.8 35.97 556.66 33.84 558.7 32.21 559.47 29.95 562.13 29.99 564.19 30.3 566.26 31.21 567.2 30.72 570.28 29.97 572.7 31.1 573.6 31.92 576.01 31.57 578.54 28.17 578.76 24.43 584.44 21.12 586.5 19.55 590.73 19.65 592.58 16.45 594.38 14.43 596.32 13.56 598.81 12.09 603.35 9.92 605.08 12.07 605.47 13.93 610.14 17.22 610.81 19.12 612.86 19.67 613.74 20.91 615.99 22.1 617.63 23.59 620.33 20.75 621.75 20.18 623.91 19.98 624.97 19.4 625.47 18.41 626.67 17.58 627.77 17.95 629.44 17.08 631.71 17.71 633.75 17.64 635.88 17.95 638.66 19.77 638.36 20.67 636.74 21.99 636.55 23.15 637.06 25.47 636.44 26.87 636.26 28.56 637.08 30.34 637.59 32.89 638.3 33.69 640.28 34.03 641.5 34.82 643.09 35.32 644.31 34.99 646.67 32.73 648.23 32.91 649.33 33.67 650.96 33.93 653.03 36 654.16 37.54 657.48 37.76 658.34 39.07 659.69 39.59 661.67 39.07 662.61 39.49 664.92 39.65 666.1 42.46 667.67 44.03 669.03 45.8 671.44 47.15 672.76 48.68 673.6 49.03 674.53 52.59 675.56 53.82 675.34 56.63 675.61 58.59 676.2 59.69 677.88 60.47 679.78 60.31 681 58.79 682.66 58.97 683.8 60.37 685.91 60.18 687.95 61.54 690.09 61.52 690.3 62.74 692.05 63.79 693.54 66.52 694.75 67.31 698.23 66.83 697.34 70.54 695.35 74.67 695.8 77.1 696.96 80.52 697.77 81.91 699.35 83.56 699.57 85.44 700.73 86.58 703.27 86.34 704.22 86.79 704.53 88.32 705.89 88.86 709.16 89.56 Z" fill-rule="evenodd" id="37550000"/>
</g>
</svg>