<?xml version="1.0"?>
<svg xmlns="http://www.w3.org/2000/svg" version="1.2" baseProfile="tiny" width="800" height="533" viewBox="0 0 800 533" stroke-linecap="round" stroke-linejoin="round">
<g id="sigung">
<path d="M 799 367.25 798.56 368.44 797.79 369.88 797.59 371.74 797.02 373.18 796.4 375.22 795.75 378.66 795.57 380.52 794.62 383.27 794.11 384.02 793.92 385.29 793.17 386.24 792.54 387.4 792.32 388.19 791.21 389.06 789.96 392.3 789.83 393.64 789.12 394.32 786.83 396.1 785.91 396.9 785 399.3 784.47 401.45 783.58 402.03 782.22 402.33 778.72 400.3 777.76 399.46 775.29 399.01 774.4 398.76 772.12 397.61 771.28 396.97 768.85 394.87 768.44 394.4 765.63 395.01 763.63 396.58 760.55 397.17 759.75 397.04 759.39 397.27 758.51 399.05 756.41 405.26 755.53 407.33 753.66 409.02 750.56 410.95 747.36 412.69 743.78 414.31 742.86 414.64 741.77 415.7 738.21 418.74 737.43 419.32 735.21 421.71 734.13 422.68 732.46 425.43 732.08 426.96 728.59 431.21 727.25 431.74 725.44 433.13 724 435.47 722.03 436.49 721.49 436.97 719.5 438.05 718.65 439.1 715.34 440.22 714.11 441.12 713.58 442.57 711.18 443.47 708.36 446.83 706.41 446.76 705.52 447.2 704.4 446.93 702.07 447.74 700.01 446.78 697.5 446.22 694.85 442.72 691.28 442.02 689.73 440.92 688.31 440.56 686.81 439.14 684.03 438.48 682.48 438.52 681.37 437.69 678.27 437.39 675.35 436.32 672.35 436.26 668.43 435.5 668.01 434.9 668.05 433.4 668.45 433.29 669.19 432.16 669.27 428.83 668.84 426.14 663.07 421.31 660.86 420.85 657.77 417.84 656.9 417.6 657.14 414.33 654.82 412.47 653.05 408.45 646.09 405.47 637.45 399.52 631.56 398.45 629.67 398.2 620.62 396.74 619.12 396.65 615.06 393.9 610.81 392.85 604.61 391.58 600.74 391.22 597.24 389.9 593.89 391.12 590.57 393.79 588.28 395.41 585.23 396.67 583.07 398.74 576.99 404.2 574.5 405.31 570.63 407.8 565.83 409.55 562.17 411.81 557.37 412.75 555.02 412.32 552.31 408.12 551.03 406.99 551.02 406.6 551.58 404.4 551.09 403.24 548.39 402.51 545.92 400.54 544.69 401.26 542.02 402.51 539.27 404 536.71 406.63 536.82 408.52 537.66 410.04 536.37 412.68 536.08 413.88 536.5 416.13 535.66 418.49 535.45 420.79 534.77 424.68 534.79 426.74 531.98 433.15 529.17 433.81 527.03 436.41 526.2 437.26 525.84 439.94 524.69 441.49 523.43 445.87 522.2 448.37 521.3 450.63 520 452.07 516.9 453.18 515.89 455.04 514.32 455.42 513.07 456.09 512.53 457.2 511.72 459.79 510.07 461.66 508.73 464.77 505.46 467.65 505.44 470.01 505.29 473.21 503.25 475.87 501.7 478.07 500.11 479.24 497.8 481.09 496.66 482.39 495.73 482.54 495.95 484.2 495.24 484.16 493.63 485 493.56 486.03 492.7 487.64 491.22 487.66 490.18 488.49 488.84 488.4 488.03 488.9 486.97 487.57 485.69 486.37 484.92 485.12 483.96 484.13 483.11 482.9 482.36 481.23 480.94 480.47 478.85 478.25 477.47 477.16 475.88 474.61 473.95 473.47 472.22 473.72 470.68 474.12 469.2 474.28 466.88 474.92 464.97 474.8 462.69 474.77 460.85 476.1 458.83 476.07 457.53 476.74 456.1 478.89 455.28 480.94 453.27 481.74 451.88 482.08 450.78 482.11 448.28 483.92 447.43 484 446.92 484.45 446.01 484.6 445.27 485.13 444.71 485.82 441.92 487.12 438.7 489.12 438.36 489.45 437.29 489.86 436.25 490 434.19 489.43 433.48 489.71 430.96 489.85 429.18 489.23 428.14 489.32 426.67 489.75 425.17 490.8 423.76 492.66 423.54 496.28 422.93 496.18 423.31 498.3 422.89 502.11 422.7 504.53 422.43 506.22 421.11 510.2 419.05 513.06 417.13 516.48 415.34 519.9 411.51 525.1 404.53 530.8 401.17 532 396.82 531.78 392.64 530.92 390.72 530.39 386.43 530.27 378.87 529.13 378.16 528.82 377.3 527.44 375.64 525.62 374.85 525.05 373.02 527.53 371.69 529.99 370.48 530.01 369.56 529.23 367.8 528.61 364.81 529.22 363.7 529.89 362.86 530.75 362.15 531 359.84 531.04 359.11 531.62 357.64 531.25 356.26 530.71 355.21 530.03 354.28 528.49 353.36 527.6 352.44 526.4 351.75 526.23 350.14 526.35 347.94 526.03 347.13 526.54 344.62 525.8 343.22 525.06 342.27 524.29 341.4 523.14 340.49 522.2 340.04 522.18 338.66 521.52 336.24 519.91 335.18 519.67 333.04 519.62 332.6 519.3 332.04 517.92 331.35 516.76 331.59 516.12 328.11 515.41 327 514.06 323.44 515.57 322.81 515.43 320.59 516.04 318.69 516.46 318.19 515.24 316.58 514.57 314.25 514.19 312.05 513.65 311.66 512.59 310.66 511.15 309.15 510.01 308.32 507.69 307.22 506.29 306.28 506.15 304.1 506.48 301.02 507.8 300.26 508.79 299.52 509.47 297.67 510.42 295.28 511.99 294.15 512.87 292.53 513.83 291.03 512.01 288.57 511.06 286.34 511.49 285.37 511.91 283.84 512.08 282.12 512.62 280.91 513.31 280.26 513.04 277.93 513.45 276.37 512.96 274.64 513.36 273.24 512.01 273.06 511.53 268.46 508.29 268.11 507.66 267.01 506.92 266.14 506.79 265.14 505.79 262.84 504.78 261.63 503.44 260.12 496.81 260.08 494.41 258.7 489.49 256.25 486.09 256.19 484.94 252.52 482.87 250 481.85 247.47 482.31 244.36 482.17 239.4 481.82 238.68 482.1 235.71 482.61 233 481.4 229.47 480.18 226.88 480.65 224.72 482.62 223.09 483.71 221.6 483.64 219.63 483.67 219.06 484.06 217.53 484.24 214.47 484.84 213.94 484.36 212.93 483.08 210.73 480.96 208.78 479.78 206.22 478.07 204.95 477.61 202.49 478.08 201.92 477.31 200.33 477.31 200.54 478.9 198.08 480.67 195.69 481.36 195.14 482.16 193.26 483.58 191.42 484.04 189.19 485.13 188.12 485.48 185.05 485.49 183.31 486.68 181.9 490.05 179.93 492.42 178.55 494.71 174.21 495.19 172.68 497.81 173.13 499.37 172.37 501.01 171.98 502.55 169.9 502.05 168.04 500.84 165.96 500.3 164.89 499.87 163.66 497.9 163.02 497.59 160.57 498.19 158.52 499.33 157.15 500.6 157.03 501.41 154.61 502.09 153.05 502.33 151 502.83 148.68 502.39 146.37 503.71 144.3 504.65 143.47 504.4 141.78 504.51 139.77 506.76 139.07 508.23 138.58 508.81 136.98 508.66 135.42 509.07 133 508.82 132.01 509.47 130.52 509.76 128.57 510.81 124.96 511.68 123.33 511.79 122.15 511.66 120.45 512.09 119.93 511.95 118.73 511.05 117.5 510.92 116.01 511.49 115.63 510.01 113.66 508.43 111.97 508.83 110.26 508.12 109.83 507.12 107.68 505.74 105.49 504.11 104.71 503.33 103.34 503.18 101 502.77 99.37 502.69 97.73 502.92 92.53 500.57 90.81 499.32 88.91 498.31 84.01 494.94 82.97 494.1 79.98 490.61 78.58 489.29 77.24 489.52 75.63 489.14 74.19 488.15 73.78 487.17 73.37 485.48 73.4 483.85 73.26 483.42 73.93 481.85 73.83 480.14 73.62 479.71 71.82 479.02 69.11 476.62 68.7 474.53 68.24 472.92 67.89 470.91 68.42 468.07 66.64 469.33 64.96 471 63.64 471.7 61.85 471.53 60.5 470.6 59.4 470.51 57.06 470.65 55.25 469.65 54.13 467.86 53.69 466.11 53.5 464.5 52.37 463.14 51.95 461.94 52.28 460.34 53.16 459.28 52.8 458.35 52.66 456.8 53.06 454.99 52.05 454.15 50.92 452.47 50.8 451.62 51.39 450.14 51.72 447.99 50.03 446.9 48.72 445.82 47.63 444.22 46.76 445.07 45.38 445.26 43.81 443.87 42.93 443.71 41.46 444.1 40.19 444.88 39.14 444.24 38.72 442.28 36.88 441.85 33.85 439.24 32.07 438.15 29.85 437.05 27.32 436.33 25.46 435.99 24.65 435.71 23.01 433.69 21.26 432.51 19.95 432.71 18.42 431.97 17.97 431.58 17.43 430.33 17.22 427.29 16.79 424.54 17.79 422.29 17.59 420.71 17.91 419.77 18.56 419.21 19.25 417.85 19.69 416.39 19.66 415.1 18.36 413.53 18.59 411.62 18.27 407.27 17.51 406.11 17.13 402.36 16.06 400.17 15.06 397.35 15 396.01 14.13 394.34 15.38 391.87 16.16 389.75 16.12 388.04 16.3 385.87 18.62 380.97 18.36 379.09 18.31 377.62 18.82 374.35 18.17 371.77 17.67 368.73 17.65 366.18 17.74 364.13 17.11 363.05 16.59 361.37 15.29 360.72 14.99 359.92 13.61 359.73 12.47 359.98 10.92 359.77 10.1 360.09 9.32 359.71 8.51 359.76 7.25 358.34 7.34 357.32 6.94 356.23 7.05 354.74 7.48 354.02 6.74 352.02 5.79 350.81 5.74 350.05 4.46 347.19 4.13 346.94 3.33 344.62 2.82 342.22 2.26 340.65 1.89 340.57 1.05 338.6 1.25 335.58 1 334.73 4.16 330.63 5.32 324.39 5.64 320.69 5.44 320.68 5.51 319.77 8.41 320.03 7.77 316.06 7.55 311.55 9.72 307.31 9.81 306.68 11.25 304.66 11.31 303.75 11.75 303.14 12.54 300.46 13.41 299.84 11.77 298.43 8.12 295.1 9.42 291.93 9.16 287.4 11.03 282.59 8.85 279.2 6.98 275.65 5.75 271.15 4.92 269.61 3.84 268.15 2.9 267.3 1.59 264.94 3.3 264.08 5.23 263.48 5.84 262.95 6.96 260.98 9.76 257.82 10.86 257.41 13.85 256.99 15.12 257.04 16.13 256.29 16.75 256.16 17.4 254.82 18.46 254.59 20.54 253.42 21.48 252.66 22.9 252.93 26.17 251.99 27.28 249.89 28.24 248.84 28.53 247.02 29.15 245.91 29.95 245.77 31.37 244.36 31.77 244.33 32.76 243.34 34.17 242.26 34.86 242.13 35.73 241.66 37.17 240.49 37.31 240.08 38.6 238.81 38.84 238.35 39.52 238.21 43.43 235.93 43.88 235.93 44.75 236.52 45.66 236.16 46.32 235.29 47.29 234.36 48.2 234.03 49.78 233.85 51.06 232.73 51.75 232.29 52.55 230.56 52.71 228.74 52.92 228.36 54.23 227.5 54.73 224.47 55.49 220.66 55.94 220.16 57.03 219.64 57.33 218.97 59.66 218.8 60.2 218.58 60.68 219.34 61.77 220.03 62.33 221.11 65.43 222.3 66.7 223.01 68.06 222.91 69.39 222.09 69.89 221.48 70.69 221.02 71.2 221.02 72.04 220.23 72.45 219.25 74.02 219.09 75.23 218.6 76.99 217.13 78.54 217.33 79.56 216.93 81.39 215.01 82.2 215.37 83.61 215.61 84.31 215.59 85.56 217.32 86.01 218.86 86.75 219.2 87.32 219.89 87.94 221.29 88.26 221.48 88.6 222.63 90.33 224.04 92.88 225.36 93.41 226.05 94.29 226.73 94.8 227.77 95.52 228.23 97.24 227.06 98.16 226.78 99.4 226 100.14 224.23 100.9 223.65 100.94 222.98 102.3 220.53 101.84 218.95 102.46 217.66 104.56 217.37 106.34 218.34 107.95 218.09 109.01 218.25 109.53 218.62 110.34 218.37 111.3 218.9 111.99 218.81 112.83 218.34 115.4 218.1 115.71 217.47 116.61 216.99 119.1 216.49 120.32 215.49 120.63 215.47 122.69 213.72 125.29 213.83 130.27 214.49 132.55 217.51 132.98 223.05 133.48 223.52 132.46 225.88 134.12 228.65 134.34 229.82 133.78 231.15 132.64 232.01 131.46 232.46 130.1 233.98 129.29 234.59 128.8 235.49 127.08 237.65 126.81 239.32 126.86 240.16 127.48 240.39 128.09 241.19 129.82 242.87 131.1 244.54 133.26 245.24 133.74 245.99 135.11 247.55 136.02 248.85 136.57 249.95 137.11 252.52 137.79 253.57 137.75 255.11 137.43 255.94 136.5 256.48 135.86 257.51 133.84 259.4 133.34 260.14 133.24 261.72 133.58 263.24 133.34 263.91 133.3 267.68 133.42 268.27 134.15 268.75 135.01 269.69 135.69 270.2 135.95 271.12 136.87 272.07 138.38 272.79 138.85 274.07 138.96 275.35 142.58 278.13 142.61 281.25 147.69 281.94 149.1 282.18 149.83 280.18 151.59 279.25 153.15 277.57 154.22 276.89 155.57 276.36 156.25 276.31 157.88 275.23 158.92 273.8 159.57 273.57 161.07 274.03 162.4 274.04 163.74 274.3 165.28 274.13 165.89 274.34 168.47 274.68 169.09 275.3 170.17 275.1 170.82 275.26 172.72 274.67 173.9 274.43 174.38 273.91 175.65 273.05 176.94 272.89 178.82 272.86 181.6 271.02 182.94 270.58 182.89 269.19 183.7 268.26 184.46 264.33 185.92 264.26 187.2 263.99 188.63 263.23 189.59 261.97 192.93 259.46 193.85 259.69 196.34 257.04 197.1 254.93 197.98 253.72 198.56 252.14 199.92 251.75 204.06 249.12 205.27 247.91 207.2 249.02 209.07 247 212.23 249.87 213.36 249.24 215.68 249.05 220.07 249.89 220.47 249.82 221.7 246.74 224.11 245.8 226.76 245.36 231.07 245.48 231.65 245.64 233.66 245.77 234.61 244.97 235.91 244.91 237.2 245.03 239.23 244.7 239.66 244.06 239.67 243.17 239.21 241.38 239.17 239.29 238.93 238.55 238.94 236.96 239.81 236.31 242.68 233.14 244.42 232.26 245.97 231.28 248.24 229.01 249.55 228.18 250.76 226.79 252.27 222.31 251.44 220.23 252.12 218.48 251.24 216.89 249.86 216.04 249.51 215.32 247.64 213.28 247.66 210.16 247.88 209.37 250.95 207.14 252.14 205.36 254.47 202.76 255.39 201.57 261.32 203.51 266.63 202.29 268.1 202.44 267.35 204.4 267.39 209 267.46 210.95 268.61 213.22 269.03 214.48 269.94 215.12 270.55 215.88 272.54 217.51 273.5 218.5 274.75 219.28 275.23 219.98 276.47 221.24 279.09 223.14 280.08 225.31 281.27 227.03 282.5 229.39 283.63 231.98 284.35 234.7 283.89 235.27 283.73 237.08 285.22 238.35 285.59 238.86 285.48 240.01 286.96 241.06 287.4 242.24 287.71 244.46 289.88 244.67 292.02 245 295.16 245.04 296.31 245.86 298.54 247.18 300.34 247.46 302.13 246.87 303.62 246.83 305.11 246.14 307.28 244.92 310.45 245.8 311.94 245.27 312.71 245.38 314.53 246.2 316.31 247.29 317.36 249.31 318.08 251.12 318.4 253.1 318.41 253.99 318.87 254.72 319.19 256.72 320.01 257.94 320.16 259.07 319.79 260.54 320.74 261.93 320.76 262.78 321.15 263.51 321.38 264.56 323.07 266.89 324.84 267.49 326.54 268.57 328.46 269.46 329.05 270.88 330.03 271.79 332.37 273.33 336.47 275.46 338.36 276.29 342.23 277.62 343.52 278.35 346.34 280.48 347.89 281.05 349.18 281.27 351.51 280.88 351.82 280.92 353.73 281.82 355.11 282 358.66 281.06 362.04 280.61 364.92 280.59 366.05 280.2 366.47 279.88 366.91 278.78 367.01 276.9 366.95 275.46 367.43 273.56 367.42 270.94 366.86 270.19 362.52 266.64 363.14 264.88 363.31 263.38 362.17 261.06 362.99 259.75 363.6 258.08 363.93 254.88 363.92 252.76 363.49 250.87 363.99 249.3 364.68 249.01 365.61 248.29 366.27 247.44 367.32 246.99 368.43 246.71 369.07 245.99 369.72 244.87 370.96 243.88 372.6 243.61 373.32 243 373.83 242.07 374.84 241.37 376.03 241 377.75 239.7 377.45 238.37 377.79 236.89 377.69 235.47 377.14 234.21 376.97 231.85 377.55 230.91 377.89 229.72 378.66 228.19 379.99 226.52 384.3 223.88 385.29 223.53 387.11 223.76 387.72 223.54 392.89 222.48 395.55 221.04 396.38 219.64 397.18 218.67 394.59 215.72 394.4 215.07 395.4 213.85 396.21 212.31 397.11 210.02 395.95 208.35 397.42 208.27 397.87 205.88 398.77 204.12 399.76 202.95 400.34 201.61 400.52 200.62 401.03 200 401.51 199.95 403.41 199.29 405.02 199.27 406.47 199.06 409.24 199.63 410.22 199.17 411.88 199.62 413.26 199.6 415.34 198.93 416.09 197.45 418.54 195.78 418.82 196.39 419.72 196.97 422.73 197.34 424.82 197.44 426.07 197.88 427.49 199.14 428.4 200.24 428.93 201.3 429.91 202.48 430.71 203 432.68 205.86 434.9 205.14 435.21 205.14 436.52 203.79 437.94 202.79 440.06 201.74 441.21 200.52 442.28 201.02 443.48 201.01 445.42 201.8 447.07 202.85 448.09 203.62 450.66 205.04 452.07 205.06 453.81 205.65 455.33 205.85 457.02 207.86 458.97 208.3 461.1 207.38 462.68 206.04 464.52 205.61 465.88 204.7 466.19 202.92 465.85 202.06 469 198.68 468.96 197.24 469.21 195.77 469.74 195.31 471.92 195.4 473.84 196.07 475.11 197.29 476.87 198.38 478.87 199.08 480.2 199.7 483.74 200.75 486.24 202.75 488.04 202.76 489.28 201.86 490.39 201.61 491.5 202.64 494.01 202.87 497.13 201.04 499.93 199.13 502.09 197.79 502.57 196.83 504.12 195.59 505.22 194.13 505.31 193.67 506.19 193.02 505.88 192.33 506.68 191 506.73 188.85 504.32 185.13 504.34 183.47 503.77 180.81 503.02 179.97 500.8 178.78 500.95 178.14 500.35 176.53 500.61 174.89 500.89 174.51 500.83 173.57 503.92 172.28 505.08 172.93 506.22 172.71 507.38 173.63 507.66 174.78 508.75 175.36 509.53 176.03 510.16 174.62 511.49 174.12 512.9 173.93 514.26 173.04 515.56 172.4 515.5 171.28 516.45 170.17 517.6 170.78 518.18 170.66 519.76 171.97 520.44 172.95 520.51 173.84 521.33 175.04 522.26 175.93 523.23 176.25 523.35 177.28 523.95 178.49 524.06 179.74 524.34 181.23 524.83 181.85 526.06 182.23 527.68 182.98 529.66 184.89 529.69 185.14 531.51 187.69 532.69 188.84 533.72 189.54 534.98 188.29 537.78 188.26 538.38 188.02 539.28 187.21 540.5 186.5 541.35 184.9 542.13 184.71 543.02 183.97 544.77 183.41 545.84 183.67 548.88 183.57 550.67 181.87 553.55 180.34 553.96 179.29 554.33 176.99 555.99 176.19 557.57 176.15 558.57 175.09 558.75 174.35 558.13 171.48 558.01 168.86 558.14 168.17 558.99 166.48 559.77 163.73 560.17 161.58 560.44 161.25 561.34 158.9 563.23 159.04 563.82 159.87 564.29 161.09 565.85 161.29 566.67 162.21 566.45 162.82 566.12 164.79 566.13 165.95 568.91 168.72 569.78 171.59 570.88 176.1 571.4 176.57 572.37 178.18 571.34 180.63 571.56 181.51 571.71 183.13 572.72 185.03 573.02 186.28 573.58 187.09 574.02 188.13 574.46 188.45 575.33 190.57 575.77 191.2 576.87 192.02 577.56 191.53 578.94 191.29 580.24 190.66 581.15 189.86 581.22 188.9 578.43 189.14 577.05 187.98 576.53 186.83 576.7 185.7 577.57 183.73 578.42 182.61 579.92 181.17 580.63 181.36 580.91 182.75 582.55 181.92 584.44 180.05 586.84 177.54 587.54 176.49 588.89 175.29 589.49 171.81 589.76 170.99 591.22 169.08 591.69 169.2 593.82 170.37 594.81 170.4 595.91 169.47 601.05 167.95 604.83 166.72 606.02 165.43 608.08 164.06 611.24 164.01 611.93 164.39 612.27 164.91 613.73 165.7 615.29 165.76 617.9 166.14 617.72 164.47 621.12 162.48 622.44 161.18 624.14 155.78 623.75 154.58 623.75 154.06 625.08 151.97 625.41 151.79 627.18 148.81 628.71 146.72 628.68 146.21 630.61 143.06 631.03 141.33 630.78 140.28 630.17 139.27 629.99 137.65 632.59 135.33 632.53 132.7 633.16 131.4 636.62 125.39 639.21 122.89 637.7 118.92 636.13 117.23 635.92 115.64 636.34 113.97 637.5 110.72 639.34 110.4 640.09 109.38 642.9 106.68 643.59 105.05 644.94 102.19 645.91 92.07 647.16 88.13 648.53 86.93 649.68 86.13 650.92 86.75 652.39 87.05 653.42 86.92 654.18 83.85 654.33 81.04 654.83 79.57 653.73 77.59 652.87 74.42 652.07 72.39 650.52 67.18 651.27 63.78 653.85 59.95 655.42 56.77 656.53 53.02 656.4 51.31 656.15 49.83 656.23 48.62 658.42 41.18 660.11 39.33 661.94 37.64 662.11 36.88 662.59 36.53 662.11 33.38 661.76 32.71 664.14 29.66 664.9 29.01 666.47 27.94 667.04 26.51 666.93 25.22 667.07 24.19 667.61 24.32 670.08 23.81 671.01 23.78 671.72 23.52 673.77 23.07 674.96 22.4 676.07 22.71 678.23 23.55 679.64 24.2 680.93 24.13 681.75 23.94 682.45 25.11 683.99 25.8 684.79 27.12 685.73 27.61 686.25 27.2 688.04 26.58 691.88 26.69 693.85 25.83 694.45 25.9 696.4 25.67 697.43 24.67 698.45 24.2 699.66 24.02 700.77 23.49 701.37 22.47 700.86 18.75 701.42 18.32 701.9 17.45 703.02 17.59 704.1 17.44 704.59 17.66 706.32 17.01 707 16.08 707.8 15.78 709.07 14.57 710.23 12.64 711.89 12.56 712.67 12.18 713.15 11.66 714.02 11.46 714.77 10.91 716.05 10.79 717.44 10.29 718.12 9.6 719.62 9.18 722.24 9.12 723.8 8.54 725.17 8.9 726.36 8.62 726.7 8.2 729.1 7.3 730.13 6.41 732.45 4.91 734.77 3.51 735.81 3.81 736.76 3.57 738.42 4.62 739.77 4.23 740.3 3.63 740.19 2.21 741.32 2.03 742.89 1 744.36 1.26 744.93 1.7 745.58 2.72 745.51 3.7 744.43 5.6 744.25 7.54 744.31 8.81 744.17 9.44 745.06 13.31 744.83 13.72 743.47 14.13 742.11 15.67 741.81 15.83 741.65 17.54 740.67 19.76 741.89 22.1 741.24 22.9 739.2 24.11 737.96 24.05 736.6 24.99 735.8 24.84 733.68 26.88 733.38 28.27 733.73 29.05 733.48 29.75 733.35 30.99 732.74 32.85 732.67 34.47 732.95 35.98 732.81 38.85 732.43 39.66 731.49 39.91 730.67 41.01 729.45 41.46 728.76 41.5 728.03 42.5 727.9 43.55 727.27 44.24 726.89 45.04 727.18 46.46 726.65 48.21 726.67 48.98 726.21 50.8 726.31 51.66 725.92 53.2 725.38 54.56 725.83 55.83 725.72 56.64 725.31 57.6 723.93 59.47 723.35 60.49 722.88 63.35 721.75 64.26 721.71 65.62 720.74 67.14 720.02 67.95 719.9 69.24 718.95 71.19 717.02 73.98 716.75 76.29 716.23 76.83 713.29 79.09 712.68 80.58 711.46 82.69 711.33 83.65 710.29 84.18 708.77 86.08 707.38 86.97 706.54 88.77 708.35 90.39 708.6 91.52 709.34 93.53 709.5 94.84 711.38 95.69 712.9 98.55 713.64 100.17 713.57 101.22 712.79 105.43 712.05 107.47 712.71 109.62 712.39 110.24 712.23 111.7 713.57 114.04 713.08 117.84 715.78 120.73 716.77 121.89 718.98 124.27 718.18 126.65 716.21 128.11 717.73 129.33 714.56 133.97 713.53 134.48 712.04 134.27 711.2 134.55 710.12 136.29 707.39 139.77 704.75 139.07 702.41 138.76 699.69 139.05 699.33 139.26 694.41 138.32 691.44 140.69 683.67 142.08 684.25 143.01 685.12 143.66 684.56 144.2 686.72 148.2 687 148.88 687.95 149.72 688.46 152.31 688.48 154 687.58 154.25 685.88 153.37 683.07 153.85 682.45 155.04 682.52 156.72 682.72 158.3 682.25 160.59 681.21 162.01 680.17 164.56 681.22 166.13 679.5 169.35 679.3 171.63 678.3 174.16 679.81 176.23 679.85 177.3 682.52 179.78 682.5 180.93 684.3 181.55 685.1 182.65 685.95 183.27 686.17 185.8 684.27 188.85 684.97 189.93 684.86 192.92 684.14 195.44 683.78 196.32 683.64 197.96 683 201.26 682.24 204.04 682.24 206.48 684.29 206.85 686.16 207.4 686.64 207.82 690.28 209.27 693.18 214.39 693.02 218.16 695.42 220.32 697.85 221.93 699.91 223.7 700.53 224.56 702.14 225.7 703.6 225.65 703.89 227.26 704.64 229.51 706.65 231.25 706.99 232.19 707.66 232.29 707.73 233.03 708.4 234.43 710.18 237.52 711.52 240.09 712.97 240.56 714.17 241.09 717.25 241.99 720.81 243.56 720.9 247.48 719.92 250.69 720.53 253.32 720.69 255.19 722.18 256.36 728.29 261.76 729.7 266.59 729.73 269.43 731.18 275.36 731.39 277.08 730.88 285.94 730.16 287.16 731.17 287.87 731.94 288.15 733.08 287.75 734.17 287.18 736.26 285.84 737.74 286.85 739.69 287.04 745.06 289.95 746.69 291.14 748.74 292.18 749.42 292.42 751.57 292.82 752.57 293.59 753.59 294.68 754.26 294.97 756.32 295.18 759.08 295.95 760.93 294.9 761.87 294.57 763.67 291.69 766.54 291.51 768.19 290.81 770.5 288.93 773.62 288.84 776.05 287.15 778.16 284.57 781.01 284.18 782.64 284.08 783.01 285.89 782.64 287.6 783.4 289.04 784.92 293.55 783.59 296.03 783.81 296.94 783.63 299.35 783 302.49 782.94 303.86 782.39 306.82 781.37 308.54 780.7 310.77 780.95 311.29 781.37 314.41 780.11 318.3 779.97 319.38 780.11 321.14 781.82 326.3 783.48 332.4 785.21 335.28 786 337.57 787.8 339.71 788.7 341.09 788.95 342.01 789.92 342.86 790.99 344.7 791.39 347.87 792.09 351.39 791.9 353.06 792.22 355.73 793.05 357.68 795.88 361.09 796.84 363.46 798.22 365.09 798.29 366.31 799 367.25 Z" id="37560000"/>
</g>
</svg>