<?xml version="1.0"?>
<svg xmlns="http://www.w3.org/2000/svg" version="1.2" baseProfile="tiny" width="800" height="777" viewBox="0 0 800 777" stroke-linecap="round" stroke-linejoin="round">
<g id="sigung">
<path d="M 546.26 31.21 546.5 31.94 546.78 38.6 545.97 40.25 549.97 44.18 550.36 47.58 550.13 48.6 550.58 50.43 551.61 52.79 552.99 52.84 556.52 55.84 557.69 57.06 560.34 65.49 560.9 66.69 564.06 67.24 565.8 66.55 570.27 69.36 572.59 69.43 574.33 70.57 576.43 70.02 577.1 67.5 579.64 67.75 580.64 67.52 582.04 68.5 584.07 68.57 588.27 70.21 589.57 71.62 590.71 71.27 591.64 71.9 593.41 72.09 594.21 74.28 593.89 74.78 593.32 77.81 594.56 79.73 595.2 83.27 595.87 84.9 596.65 85.54 596.62 88.29 599.87 91.16 602.26 90.54 603.58 92.05 604.67 94.39 605.54 98.37 608.2 99.49 609.75 100.47 610.1 101.21 606.43 105.02 605.22 107.7 604.05 109.82 602.64 110.57 600.63 110.84 598.2 111.43 597.86 113.37 598.57 121.94 599.58 124.45 598.47 125.43 597.74 130.35 595.62 131.22 594.96 132.84 596.57 134.78 598.05 140.75 597.81 142.12 601.8 142.96 602.66 144.4 602.37 145.62 602.88 146.68 602.43 148.89 603.04 150.86 603.04 153.66 601.85 156.09 600.7 159.52 600.99 162.38 600.85 165.25 601.02 167.42 600.87 168.92 601.2 169.94 601.05 171.08 602.19 173.97 603.5 176.56 606.36 181.46 605.96 183.27 607.59 184.09 608.65 185.45 611.13 186.91 613.4 195.59 614.3 200.2 617.58 202.91 620.19 203.64 625.74 207.51 627.47 208.49 632.48 207.29 633.24 206.45 635.6 206.34 638.62 207.76 639.1 210.88 638.17 212.64 638.34 214.5 641.95 214.1 643.06 213.63 646.29 213.46 646.99 215.41 651.92 217.43 656.07 217.76 656.98 217.16 658.5 218.94 660.56 219.47 660.63 221.28 659.74 223.75 659.85 226.53 660.56 229.4 660.7 234.72 668.4 241.55 667.07 244.46 663.58 251.67 663.38 252.22 666.84 257.77 671.18 258.19 671.92 260.29 671.45 262.82 672.2 263.7 673.11 264.13 673.51 265.02 675.39 266.71 675.62 267.85 676.85 269 678.2 272.31 679.18 273.92 679.67 275.68 681.05 277.25 683.99 277.97 685.4 277.41 686.99 277.13 689.02 275.6 690.19 274.09 692.48 273.12 694.5 274.06 696.39 273.72 698.25 273.85 703.72 273.43 706.77 272.68 708.33 274.24 710.1 275.47 712.36 275.6 712.78 278.89 715.36 281.3 716.83 281.67 718.81 285.14 718.64 287.26 719.73 288.17 720.38 290.29 719.49 291.96 719.46 293.44 718.25 295.46 717.2 296.71 717.92 298.91 720.16 303.73 722.17 305.09 724.16 305.55 725.48 306.23 727.1 307.41 727.47 309.64 728.22 311.87 729.5 312.2 731.94 312.48 734.03 313 739.29 312.26 740.61 312.46 742.46 312.14 744.37 312.57 748.28 314.42 750.05 315.79 752.03 319.77 753.41 320.83 755.16 319.81 756.32 318.31 758.46 318.72 760 317.65 761.82 318.28 762.75 317.87 766.1 318.96 767.12 318.22 770.52 319.82 772.2 318.27 773.82 315.82 775.33 314 776.16 312 777.1 312.47 779.02 312.75 780.46 313.4 783.95 313.92 786.48 313.71 787.38 312.51 789.56 311.96 790.66 314.35 791.43 316.43 791.64 317.73 792.24 327.74 795.06 337.71 795.91 342.79 796.88 347.7 797.68 353.63 797.78 356.15 797.52 357.71 797.31 361.51 797.39 365.99 796.6 367.75 795.96 371.16 794.83 373.49 794.7 377.81 796.23 381.93 796.7 384.97 796.73 387.1 795.59 393.83 794.68 397.84 793.5 407.94 794.93 411.51 796.89 415.71 797.78 417.85 798.17 420.19 798.45 426.42 798.55 430.75 798.66 434.09 799 437.87 798.65 439.98 797.57 443.97 796.73 447.94 795.62 450.42 793.9 452.79 792.16 455.92 790.37 461.06 789.31 463.21 788.53 466.24 787.64 468.17 786.11 473.17 784.9 478.26 782.47 481.89 781.3 484.51 779.77 488.38 778.47 493.65 778.2 495.7 778.21 498.44 776.7 503.99 775.81 506.48 772.98 511.33 771.78 513.07 769.82 515.43 768.95 517.06 766.46 523.59 766.22 526.35 765.19 532.23 764.99 536.82 765.22 542.84 765.03 545.55 765.68 548.82 765.28 551.33 765.19 555.62 765.38 559.25 767.92 559.79 769.92 560.68 772.3 563.41 772.62 564.37 772.79 566.84 773.14 568.51 774.16 569.4 775.09 569.05 775.26 571.53 778.42 581.77 780.2 586.3 780.59 588.79 782.82 590.32 783.21 591.27 786.12 592.61 786.38 596.83 787.03 599.58 786.19 599.62 785.47 598.92 782.76 598.72 782.05 599.19 779.24 598.3 776.53 598.19 774.72 599.19 770.07 599.13 768.89 599.5 767.5 599.02 764.25 599.11 761.48 597.76 761.19 598.28 759.41 598.78 759.24 599.44 755.54 601.79 754.99 601.55 750.59 605.45 749.15 605.47 746.52 605.83 744.75 607.29 742.64 609.61 745.98 611.68 746.89 612.52 749.22 616.45 749.75 617.13 749.32 620.47 751.24 623.69 751.71 626.44 752.3 628.9 753 629.57 753.8 631.71 754.51 632.55 754.84 633.56 755.06 635.67 755.82 639.58 756.02 642.09 754.43 646.46 753.45 648.38 753.47 648.9 752.43 651.69 751.47 651.84 748.87 655.27 748.68 656.07 747.84 656.56 746.27 658.54 745.27 658.78 744.61 658.26 742.69 658.26 741.57 659.13 738.03 658.9 736.26 659.35 734.86 658.82 733.48 659.83 735.31 667.33 734.6 668.78 734.03 676.31 734.59 679.35 735.86 683.16 736.98 685.92 736.13 686.47 736.49 687.55 736.57 690.07 736.09 691.26 733.9 695.34 734.4 696.53 734.04 697.74 734 702.18 734.22 704.66 734.1 710.63 733.11 716.28 733.02 719.36 732.35 721.4 731.18 723.13 730.25 723.82 727.13 725.07 726.06 725.17 724.29 724.64 722.06 723.55 721.89 723.22 719.42 722.17 718.64 722.32 711.74 718.06 710.61 717.22 708.59 716.4 704.67 716.31 702.09 715.52 697.45 713.75 695.81 712.61 692.72 710 692.22 709.81 689.83 710.26 686.19 711.73 684.58 712.85 683.33 713.22 679.94 715.35 674.72 716.81 670.97 716.75 664.68 715.55 662.59 711.87 660.96 709.98 658.81 708.16 657.06 706.02 655.55 703.51 653.37 702.51 651.03 701.23 648.14 698.2 645.27 694.86 642.6 691.52 640.39 689.06 634.5 685.39 630.26 684.68 628.35 683.6 626.53 681.13 625.92 678.7 625.76 676.77 626.14 673.92 622.17 673.49 621.3 672.94 620.69 671.34 620.21 670.83 617.94 670.12 616.59 669.97 614.9 670.49 612.64 669.83 612.01 669.92 608.86 669.18 608.13 669.35 608.18 667.66 606.43 668.64 606.19 669.23 604.69 670.32 602.59 673.5 599.55 673.91 594.65 673.76 591.95 673.58 590.11 674.23 589.07 672.08 588.43 669.65 587.7 668.75 585.97 667.71 583.16 666.95 579.23 666.58 576.17 666.83 575.62 664.48 574.44 660.96 573.79 660.67 572.23 658.73 571.1 656.13 569.13 653.01 565.23 649.29 564.22 649.36 562.81 647.93 562.69 647.36 560.99 646.11 560.04 644.87 559.25 644.47 557.76 642.5 556.91 639.82 554.39 635.68 550.7 636.58 546.87 636.68 544.72 636.1 542.39 634.88 541.76 634.98 539.45 634.4 537.34 633.54 535.32 633.24 534.63 633.52 531.26 633.7 530.43 633.3 526.9 634.2 527.91 635.59 522.68 635.05 521.29 635.72 520.21 637.1 518.49 639.93 517.79 643.64 517.35 646.88 517.22 650.88 517.8 653.05 517.74 655.54 518.11 656.91 518.01 658.92 517.26 662.37 516.6 662.92 515.63 667.03 516.07 671.31 516.82 675.38 518.09 676.69 520.37 681.7 519.71 686.33 518.32 691.12 517.25 693.06 515.7 694.88 515.2 696.6 515.76 698.04 517.09 700.02 515.92 703.87 518.32 708.36 518.03 709.04 517.74 712.26 518.91 716.76 519.43 717.22 518.66 720.89 516.05 721.56 516 722.99 515.05 725.55 513.57 727.67 513.62 729.34 513.97 730.29 513.74 732.16 511.98 733.69 509.53 731.82 507.29 729.85 503.91 727.1 499.92 724.28 497.38 723.39 495.99 722.64 492.87 721.61 492.29 722.7 489.5 723.71 487.82 723.72 486.43 730.13 486.09 730.16 483.68 733.06 482.59 733.22 480.71 732.68 479.19 733.79 475.73 735.42 473.09 737.16 470.66 737.71 467.63 737.83 465.53 738.82 465.17 739.44 466 743.58 467.02 746.42 466.7 748.24 467.63 752.16 466.82 755.67 468.16 759.25 470.14 762.21 469.21 765.34 467.62 765.54 465.97 765.44 464.13 764.36 462.23 761.44 459.66 761.38 452.61 762.06 449.96 761.37 448.77 760.58 447.2 760.06 443.16 759.96 441.55 760.18 439.34 759.69 438.59 758.85 436.88 755.84 432.49 753.52 431.88 751.65 431.01 751.02 427.93 747.08 425.99 746.27 422.86 746.17 420.08 745.11 417.88 744.62 417.56 744.88 415.88 744.66 413.78 744.75 412.72 745.36 409.23 745.42 404.3 741.9 401.04 740.08 397.61 736.73 395.03 735.09 393.26 734.45 390.99 733.04 390.58 732 390.17 725.72 391.25 725.13 390.63 724.21 389.83 724.68 389.49 723.52 390.43 723.12 389.04 717.64 387.58 717.8 383.77 715.35 383.25 715.14 382.84 713.52 381.64 713.2 382.12 710.33 382.56 709.31 382.79 706.31 382.63 704.45 382.85 703.84 382.23 701.18 382.1 697.91 382.68 697.43 381.33 695.01 382.34 694.08 381.89 693.17 380.74 693.99 379.63 692.71 379.21 691.61 379.26 688.66 380.81 687.31 381.51 685.62 382.51 685.07 381.91 684.25 381.62 682.98 379.45 679.83 379.27 678.56 378.14 676.28 378.26 675.68 377.06 673.96 376.11 671.69 375.78 669.72 374.68 669.1 373.17 667.09 372.29 667.17 368.57 669.61 367.46 668.67 361.06 669.66 357.99 670.04 355.48 670.02 351.74 669.45 350.51 668.99 348.13 668.77 347.65 668.34 343.31 665.99 340.84 663.61 338.87 661.23 337.9 661.32 331.99 659.67 328.25 659.98 323.98 658.19 323.47 658.82 320.99 658.54 319.36 659.78 317.55 659.89 316 661.04 315.72 660.66 313.34 660.78 311.72 661.22 309.49 660.73 308.56 660.32 307.28 660.36 305.75 659.71 304.82 659.95 302.14 660.01 300.45 660.73 298.43 661.19 298.9 662.23 297.48 662.29 294.14 663.67 293.38 665.33 290.04 666.27 288.92 666.22 285.7 667.55 282.48 668.23 280.92 669.88 278.32 671.5 276.16 674.03 274.94 674.82 273.47 676.69 272.36 677.55 273.26 678.41 271.63 681.41 271.37 682.45 269.56 685.15 269.2 686.6 266.82 690.98 266.99 691.23 266.54 693.74 266.63 697.46 268.33 700.15 268.29 700.42 270.6 701.91 271.39 702.21 271.47 703.4 272.78 706.02 273.41 710.27 276.21 712.11 277.09 712.39 281.06 714.63 282.98 716.41 286.52 718.18 286.73 719.29 288.06 719.24 289.14 718.24 290.95 717.65 291.17 717.89 291.01 719.96 292.5 721.14 294.95 723.64 295.93 725.21 296.93 726.19 299.44 730.41 300.06 731.93 300.87 736.27 301.96 739.46 303.09 741.21 303.69 743.32 304.58 747.39 303.93 748.74 302.87 748.26 298.14 750.08 295.03 752.02 293.69 754.02 291.85 757.1 290.95 758.15 290.32 758.17 288.63 759.92 288.63 760.51 285.18 762.35 284.71 763.87 283.15 766.15 281.38 769.16 277.31 771.19 275.51 771.98 273.04 773.32 270.67 776 268.77 774.39 266.94 774.1 265.73 773.22 263.23 772.93 261.15 769.89 259.78 768.12 259.52 766.84 257.75 764.27 259.8 758.75 259.87 758.11 256.62 756.48 256.12 756.02 254.19 756.09 252.75 755.56 250.61 754.32 250.19 753.8 249.54 750.98 249.22 750.52 244.67 752.1 243.53 752.61 240.76 754.21 239.98 754.51 237.04 757.04 234.79 757.47 231.88 756.24 230.61 756.47 229.5 755.59 227.75 755.14 225.32 755.43 223.1 756.33 220.82 756.68 217.68 756.26 215.76 757.38 211.15 757.05 207.18 755.48 206.94 754.99 204.58 752.48 203.5 751.69 201.35 749.3 199 747.26 198.48 747.27 195.15 744.05 193.72 743.31 191.36 742.99 190.85 743.16 191.18 739.61 190.96 736.6 190.61 735.3 190.66 734.06 190.33 732.95 190.89 729.4 188.99 727.61 186.94 724.29 186.61 722.12 185.13 721.11 183.18 717.58 183.14 716.53 182.03 715.67 180.82 712.41 181.3 711.25 179.58 709.89 177.58 709.33 177.57 708.21 176.36 705.23 175.17 703.99 177.24 702.1 177.12 700.67 177.74 698.64 178.5 698.06 176.56 694.91 175.33 693.58 175.52 692.23 174.85 691.12 174.38 689.31 174.39 688.27 175.32 685.21 174.98 680.9 177.16 679.36 178.85 677.91 179.53 677.78 177.64 674 176.27 673.6 178.01 668.96 179.12 663.75 179.28 661.7 180.65 659.6 179.37 657.94 179.34 656.64 178.91 656.34 177.25 651.39 176.71 650.83 175.28 650.61 172.15 649.41 171.22 647.8 168.76 644.56 163.51 648.59 160.44 648.59 154.1 648.02 152.38 647.72 149.67 647.6 145.97 645.54 144.12 643.02 143.05 642.54 141.59 640.37 139.6 638.41 138.41 636.94 137.04 635.9 133.89 634.68 132.73 633.15 130.01 633.19 128.97 632.24 126.23 631.34 124.41 631.06 122.47 630 120.66 627.88 117.93 625.34 116.82 624.81 115.55 624.66 112.89 624.71 111.55 625.03 108.91 626.18 108.1 627.62 107.14 628.34 104.66 629.54 103.79 629.34 102.17 628.43 100.52 626.8 97.14 625.3 93.6 622.88 92.64 620.93 92.24 618.38 91.95 617.76 89.45 614.46 89.25 611.8 86.78 612.03 86.25 611.44 84.45 610.48 79.21 608.74 77.57 607.58 77.19 606.84 75.52 606.69 74.21 605.87 73.24 604.6 73.54 602.1 73.04 599.83 73.58 596.99 74.07 596.61 73.57 593.99 73.23 593.35 72.26 592.98 71.87 592.24 70.45 590.91 64.55 580.36 64.33 577.99 63.63 576.54 63.75 574.54 64.26 573.75 65.03 573.59 65.96 572.75 67.4 569.37 67.73 565.86 69.28 564.78 70.87 560.84 70.53 556.88 71.06 553.49 71 547.94 69.11 544.5 73.12 542.95 75.43 539.06 78.13 535.35 81.02 532.8 85.81 524.08 89.87 521.21 91.72 517.97 93.7 513.27 88.03 512.7 83.62 513.14 78.25 511.41 75.06 507.89 71.58 505.17 67.85 501.01 66.29 498.65 63.34 496.53 60.64 495.22 57.54 494.2 55.86 491.47 56.15 490.46 54.84 489.05 54.18 485.45 53.13 481.61 52.41 476.71 50.22 473.78 44.99 467.91 47.26 459.07 46.77 456.32 45.85 455.06 46.79 451.81 47.06 448.5 40.74 443.39 39.26 440.99 34.12 436.77 29.7 434.9 25.98 431.81 23.55 425.39 24.42 423.12 27.3 422.8 29.79 421.48 31.3 418.29 32.16 417.44 33.49 416.8 27.03 410.12 25.77 410.33 24.41 410.12 21.16 404.57 21.59 402.79 21.96 402.31 21.47 400.75 22.17 398.56 21.53 397.15 20.85 396.43 20.45 395.04 19.64 393.81 14.77 389.33 12.61 387.83 11.79 386.37 9.95 385.15 9.17 384.91 7.17 382.82 5.96 382.12 5.67 381.56 5.99 380.01 6.71 379.74 6.57 378.26 7.41 375.89 8.25 375.99 9.38 373.87 10.49 370.65 10.3 369.74 6.68 369.12 5.65 367.28 3.88 367.1 3.28 365.4 2.24 363.55 2.43 362.41 1.36 359.31 3.47 357.25 2.65 356.43 2.58 354.27 1.92 353.2 1.43 350.85 1.99 349.54 1 347.35 1.55 345.8 2.53 344.76 3.97 344.11 4.49 342.87 4.56 341.75 5.37 341.12 5.86 339.5 5.39 336.32 7.05 335.46 7.73 334.04 9.42 333.19 10.21 331.67 11.45 330.29 14.11 329.69 15.36 328.18 16.39 327.98 17.05 326.35 17.09 325.32 19.63 323.86 19.94 322.9 20.98 321.59 22.18 321.23 23.85 322.2 24.67 322.07 26.29 322.84 26.9 323.77 28.75 324.04 30.63 325.35 31.78 325.45 33.28 327.09 34.7 327.56 37.24 330.38 38 330.42 39.01 331.08 40.67 331.53 41.03 332.13 44.59 334.33 45.48 334.11 47.93 334.52 48.44 333.8 49.58 333.13 50.45 333.88 52.84 335.29 54.23 336.59 55.79 335.61 57.57 336.94 58.01 337.59 57.12 340.05 56.22 341.82 56.3 344.09 57.79 344.54 58.81 345.85 58.87 347 59.58 347.99 60.1 350 59.7 350.77 59.56 352.34 60.19 353.23 60.53 355.15 61.29 357.54 61.88 357.86 62.83 359.3 65.77 362.33 70.4 360.79 74.05 360.11 74.45 361.64 75.61 364.11 76.94 365.74 77.81 367.83 79.41 369.39 79.49 371.54 80.45 372.61 81.78 372.86 82.97 373.75 83.77 375.35 85.6 376.62 87.57 378.71 91.13 376.06 91.37 377.33 92.28 378.16 94.06 378.37 95.06 378.07 95.43 376.8 94.62 373.11 94.7 371.21 95.49 369.24 95.36 368.64 96.04 366.41 95.83 365.65 96.15 364.18 97.38 361.86 100.51 359.87 100.16 359.29 100.54 355.7 99.45 352.46 100.75 351.49 101.84 350.14 101.12 348.78 100.72 346.96 100.97 345.6 99.95 344.77 99.86 343.88 98.43 342.09 98.44 341.45 97.31 339.09 98.2 337.95 98.94 335.73 98.91 334.66 100.36 332.76 100.14 330.75 99.46 328.42 99.72 327.26 97.89 325.3 97.49 324.44 97.45 323.09 96.45 321.61 97.63 318.88 97.62 317.6 97.16 316.07 97.32 315.48 96.03 314.47 95.61 313.18 95.58 311.71 94.98 309.56 95.35 306.93 97.06 305.96 97.9 304 98.52 303.11 98.05 300.78 98.87 298.17 100.46 295.94 101.81 295.32 103.11 294.32 103.89 293.34 105.95 292.47 106.61 290.87 109.86 287.72 109.92 286.93 110.77 285.65 110.71 284.37 111.19 283.35 111.89 283.13 112.58 284.31 114.18 283.93 115.45 283.92 116.59 281.47 118.27 281.75 121.13 281.72 121.61 279.95 122.28 278.99 122.26 278.27 123.52 277.43 124.83 277.16 125.76 278.02 126.65 277.63 131.2 274.66 133.84 272.25 134.78 271.79 135.1 271.08 136.1 270.41 136.92 268.79 137.87 267.96 138.15 266.4 139.12 263.9 139.03 262.37 140.11 261.07 140.52 259.76 141.47 258.94 143.51 257.9 144.92 256.38 147.41 256.21 149.21 257.75 151.9 261.48 154.03 262.89 154.32 263.99 158.05 267.46 159.01 269.03 160.45 269.75 161.88 270.97 163.92 269.17 165.28 267.15 165.93 267.21 166.91 266.3 168.01 266.13 168.82 265.27 170.79 263.99 171.22 263.26 172.21 263.57 173.69 262.7 176.07 264.7 180.04 266.52 182.88 266.14 184.51 266.76 186.55 268.36 188.96 268.16 192.22 269.01 191.95 270.34 193.07 271.28 193.5 272.49 194.68 272.23 197.15 270.94 199.52 270.35 199.67 269.11 201.52 266.78 203.5 265.39 205.04 264.77 206.73 264.39 207.95 264.65 208.8 264.02 209.43 264.32 210.53 262.39 209.36 261.68 209.41 259.89 210.06 260.16 210.81 259.31 214.44 260.4 215.58 261.98 216.49 260.84 217.13 258.34 218.73 258.02 222.57 256.1 223.45 254.35 227.25 254.48 229.07 254.22 231.19 252.76 234.09 251.09 235.65 250.66 238.23 245.77 238.91 245.39 239.14 244.2 239.95 243.5 239.79 242.35 238.2 241.12 237.33 239.31 235.9 235.48 234.85 233.89 234.65 233.17 233.46 232.51 233.85 231.16 235.17 229.15 235.67 227.72 235.14 224.18 236.45 221.94 237.89 222.17 241.5 218.5 247.9 218.82 246.1 215.34 246.67 213.65 246.55 211.37 247.27 209.16 247.59 206.57 249.76 203.72 249.93 198.56 248.57 195.95 250.07 191.83 253.2 191.36 255.22 190.91 258.28 190.46 260.45 189.86 266.94 188.86 268.87 190.43 272.12 188.21 273.21 186.89 273.6 184.95 275.44 182.97 275.82 180.55 277.12 178.55 277.44 176.48 279 175.6 278.76 172.35 277.26 171.24 277.9 168.42 278.75 166.48 279.31 165.8 277.28 165.27 276.06 163.88 274.62 162.76 273.71 161.62 273.05 159.88 272.09 159.06 268.98 158.06 269.45 156.56 269.09 154.03 267.48 152.41 269.46 150.8 270.24 148.73 270.29 146.52 271.05 144.99 271.13 143.54 271.86 141.76 272.04 138.52 271.69 137.09 272.22 136.71 273.32 133.18 273.91 130.08 273.37 128.55 274.77 125.43 277.1 124.91 278.05 123.04 280.66 120.47 282.37 120.09 282.8 119.25 284.6 116.96 281.35 113.8 281.1 111.94 279.5 108.77 279.48 107.09 278.9 106.12 275.17 105.42 272.31 102.22 272.43 101.03 271.55 99.44 271.36 95.24 272.84 93.65 272.36 92.36 272.42 91.27 271.69 90.51 271.38 89.27 272.07 87 271.85 83.14 270.76 77.8 270.39 76.85 269.94 73.36 268.95 72.5 267.25 72.29 265.57 71.19 265.49 68.99 263.62 66.39 265.02 65.16 266.91 64.15 267.42 62.87 270.4 61.08 272.11 59.52 272.76 59.3 274.87 57.73 275.82 58.45 276.06 59.6 277.08 59.73 282.1 64.12 286.45 65.5 287.85 66.4 288.9 66.15 289.5 67.58 290.74 67.85 293.81 69.31 295.55 69.08 296.24 68.21 297.44 68.13 298.37 68.44 298.88 67.96 302.04 67.26 303.96 65.29 305.76 63.02 307.57 63.1 309 63.65 310.87 62.71 312.3 64.68 315.02 67.66 318.32 69.18 319.75 69.13 321.9 67.76 323.49 68.26 325.44 68.36 326.81 68.86 328.37 68.2 330.22 68.14 331.99 66.93 332.25 64.94 334.42 61.44 334.06 60.02 331.9 56.1 333.28 54.89 335.62 51.87 334.77 49.92 334.9 48.77 334.6 47.42 332.67 46.49 330.74 45.24 330.41 43.06 330.8 39.35 330.39 35.55 330.68 34.75 329.24 30.85 330.59 31.19 332.83 29.54 333.88 28.18 335.82 26.73 337.24 27 339.48 27.01 340.1 26.66 344.4 27.62 346.29 27.63 348.67 28.61 350.81 28.94 352.27 28.64 353.54 28.69 357.17 30.02 360.11 29.65 361.92 28.09 364.06 28.82 367.37 26.72 369.11 25.2 371.67 23.8 372.56 20.95 375.57 19.29 376.79 19.67 377.96 19.43 380.13 17.09 381.96 16.01 382.1 15.17 383.27 14.08 384.59 12.45 386.8 8.8 391.1 7.3 392.58 6.05 392.6 5.25 394.5 4.24 395.53 1 397.05 1.11 397.65 1.88 399.88 3.27 400.44 3.23 402.05 4.36 402.63 5.88 404.17 5.66 405.72 4.88 408.32 5.09 410.92 4.6 413.12 5.61 415.7 7.67 418.7 9.09 420.1 10.24 420.84 11.7 423.47 13.56 425.45 13.72 427.59 14.14 428.55 13.91 429.17 15.07 430.46 15.85 431.21 16.74 431.84 16.81 432.18 17.84 433.32 17.73 436.18 19.3 437.54 19.5 441.28 19.14 444.39 18.39 444.99 17.96 447.22 17.25 449.15 17.4 454.49 20.27 456.05 19.4 456.38 18.29 457.32 16.79 458.82 15.62 460.4 14.69 461.44 14.8 463.44 12.84 466.74 10.26 469.24 10.44 471.15 9.92 472.9 12.71 477.2 16.83 481.31 19.1 484.65 17.6 486.69 17.63 487.32 18.23 494.98 18.39 499.84 18.39 501.59 18.62 505.55 19.84 507.32 20.12 509.8 22.16 513.35 19.97 518.5 22.21 521.93 21.59 525.88 23.02 531.6 23.09 533.51 25.07 535.07 25.4 536.46 26.72 539.07 30.33 540.42 31.38 542.04 31.76 544.11 33.16 545.75 31.03 546.26 31.21 Z" id="37580000"/>
</g>
</svg>