<?xml version="1.0"?>
<svg xmlns="http://www.w3.org/2000/svg" version="1.2" baseProfile="tiny" width="800" height="661" viewBox="0 0 800 661" stroke-linecap="round" stroke-linejoin="round">
<g id="sigung">
<path d="M 620.45 39.21 622.32 40.2 625.81 43.26 625.73 45.9 624.62 50.89 625.42 58.97 624.8 62.59 623.49 65.86 621.1 68.51 620.83 70.81 621.33 72.01 621.25 73.06 622.16 74.39 623.3 74.72 625.59 74.63 627.45 75.78 630.63 79.91 631.66 81.89 631.49 84.23 632.53 87.59 632.43 90.19 633.08 95.6 634.31 98.46 635.21 101.26 634.36 104.59 633.8 108.67 633.62 112.04 633.18 114.5 630.48 118.69 629.95 120.79 630.55 122.69 632.73 125.14 631.11 127.66 627.42 132.48 626.82 135.71 627.38 138.79 628.21 141.01 626.65 142.93 626.01 144.63 624.43 147.36 624.51 153.06 626.01 155.04 628.54 158.7 631.1 160.65 631.21 163.95 633.75 169.28 636.2 174.24 636.39 181.8 636.72 183.29 637.43 184.6 638.94 183.77 640.55 182.26 641.84 181.48 643.16 180.03 645.44 176.28 648.44 174.53 650.37 173.2 651.17 172.23 654.03 172.22 655.08 171.77 656.82 169.52 658.64 168.79 661.02 164.83 660.97 163.76 661.54 160.85 664.43 160.1 666.46 159.42 667.68 158.51 668.44 157.47 671.44 160.89 676.47 169.04 677.5 168.54 678.99 168.63 679.81 169.56 682.01 169.95 685.81 171.04 688.32 171.19 690.95 170.67 693.22 171 694.29 168.28 695.3 164.47 696.12 163.71 696.87 162.15 697.9 161.99 700.04 159.74 698.58 154.68 697.93 150.3 698.44 148.64 698.32 145.93 699.14 139.9 699.67 138.3 700.32 137.49 702.4 137.39 705.5 136.17 711.3 135.65 713.36 135.3 717.14 135.61 718.52 135.39 721.06 136.09 722.3 136.07 720.95 133.99 725.03 132.61 730.38 132.49 732.05 132.7 734.07 131.04 737.05 130.77 739.71 128.75 743.53 130.13 745.65 131.3 748.85 130.39 751.13 130.8 752.29 130.71 754.78 130.1 757.33 128.9 758.41 128.04 759.91 124.85 759.69 123.86 760.08 122.24 761.45 121.1 763.1 121.98 766.83 122.06 767.78 123.01 768.55 125.71 772.7 129.06 775.03 131.42 775.41 135.16 773.31 139.08 772.86 140.2 770.4 143.3 768.43 144.38 769.59 145.56 770.33 146.92 769.51 149.5 768.36 150.81 767.15 151.77 766.96 152.76 769.36 153.4 770.61 153.19 774.08 155.63 775.97 156.34 778.48 158.55 776.87 163.07 776.75 167.46 773.69 173.71 773.16 174.29 773.82 175.1 774.09 177.59 771.84 176.88 770.8 177.69 769.28 177.7 768.98 179.73 770.02 183.19 769.79 185.9 769.98 187.17 770.71 188.55 771.24 190.71 770.37 194.26 770.29 196.3 771.64 197.75 770.68 200.73 770.75 203.04 769.33 206.1 768.34 209.77 767.34 211.77 767.69 214.41 768.76 217.03 768.29 218.94 766.79 220.9 764.63 222.63 765.2 225.44 764.93 227.53 764.11 228.39 761.15 232.87 761.38 234.59 760.22 234.96 759.02 236.92 757.45 237.86 757.23 238.87 758.48 242.15 757.92 242.67 758.4 244.06 757.34 246.68 756.65 247.3 755.45 249.62 754.54 253.14 754.93 254.2 755.59 257.13 755.95 257.68 756.2 260.74 755.22 263.18 755.54 264.13 754.67 265.77 755.52 268.63 755.89 271.01 755.04 273.53 757.96 276.67 762.47 278.64 766.55 282.58 771.84 283.98 778.04 287.41 784.84 291.43 790.19 295.94 791.06 300.42 795.58 306.9 799 313.3 797.36 315.97 796.43 316.14 794.81 316.92 792.55 317.22 791.65 317.11 785.96 317.65 783.86 318.97 780.6 320.19 776.51 323.07 766.45 321.22 764.91 322.05 764.13 321.54 762.79 321.82 761.86 322.37 760.93 325.33 757.34 325.8 757.11 326.4 755.72 326.25 754.07 326.48 749.91 325.47 748.74 324.7 747.24 324.61 745.52 333.17 744.47 337.31 743.55 340.54 741.77 342.14 740.86 343.34 738.96 344.58 736.47 345.28 734.98 349 734.42 349.82 733.23 350.25 732.49 351.54 731.08 352.39 731.48 354.16 730.09 357.01 728.82 358.24 728.07 361.12 725.96 362.49 723.36 365.37 722.25 368.88 719.68 372.76 716.5 376.76 716.55 377.21 716.86 379.99 716.92 382.19 710.37 383.74 705.53 385 700.48 386.49 696.13 388.67 693.38 389.88 693.75 396.81 688.94 399 687.37 401.34 682.52 402.14 681.11 401.01 676.11 405.04 671.94 406.98 672.12 405.39 669.92 404.35 667.48 404.94 661.47 403.98 651.97 405.81 648.67 404.51 640.33 409.59 632.79 414.11 632.85 417.38 630.72 419.6 627.99 419.39 623.93 420.83 621.05 419.47 620.9 419.93 619.33 420.33 616.88 420.34 613.66 421.83 612.11 423.2 612.04 425.05 612.82 428.65 611.82 428.62 611.65 430.47 611.23 432.39 611.94 435.14 611.9 436.47 610.63 440.42 609.29 442.1 608.27 444.07 607.37 446.43 606.1 452.78 605.79 453.53 604.92 453.19 602.92 451.29 602.07 451.38 601.61 450.66 600.31 450.05 599.55 448.95 596.79 449.38 596.39 447.91 595.04 445.17 593.14 442.62 590.7 440.27 589.92 438.44 590.04 435.11 589.43 432.54 589.59 431.24 588.22 427.76 583.63 419.72 583.43 418.99 583.74 416.21 583.17 415.3 581.67 414.04 577.56 412.09 576.24 410.46 573.47 410.51 570.67 409.28 569.17 408.01 566.48 402.71 562.24 403.36 560.93 402.46 555.53 399.8 549.08 400.49 548.97 404.18 550.52 407.66 550.55 409.14 546.01 412.92 545.48 414.04 546.4 414.8 547.87 418.73 549.01 420.07 548.09 424.89 551.47 432.25 552.08 440.13 552.45 441.53 553.11 442.62 554.66 450.96 555.56 452.14 557.88 452.85 559.89 452.9 561.38 453.92 564.47 460.74 563.83 464.77 562.95 468.32 561.11 473.73 560.66 476.06 560.37 479.69 559.75 482.41 560.83 485.18 562.26 486.12 562.66 488.46 562.07 489.99 563.23 494.63 561.78 496.2 563.44 499.09 563.53 501.97 564.18 502.79 563.98 504.99 565.11 506.3 564.98 508.65 565.26 509.58 565.05 512.37 566.02 515.51 566.4 515.8 565.9 517.16 564.46 519.64 564.23 522.34 564.51 524.2 563.13 525.73 562.85 527.96 562.7 532.2 562.36 533.34 561.57 534.65 560.7 535 559.58 536.2 557.85 538.87 556.47 541.68 555.52 544.85 555.26 546.57 555.36 548.02 555.1 549.16 555.14 550.98 554.38 552.36 554.56 554.26 553.99 556.72 552.17 556.53 549.97 557.83 549.03 558.87 547.89 559.18 545.83 558.7 545.42 561.21 543.8 563.18 543.08 565.8 541.74 566.67 540.33 567.93 539.85 568.87 540.13 569.98 540.15 573.53 538.63 575.61 538.34 576.32 537.17 576.92 535.78 578.03 533.19 579.48 531.58 581.7 530.7 583.78 529.13 584.99 526.9 587.47 526.39 589.51 524.44 590.6 523.72 590.66 522.2 591.9 521.41 591.67 520.08 590.43 518.69 590.51 517.11 591.7 516.21 592.92 515.22 593.65 513.65 593.83 512.52 594.92 511.29 595 510.29 597.88 508.74 600.64 507.07 601.63 505.97 603.27 505.34 604.62 504.28 605.66 504.42 607.22 503.71 609.5 502.38 611.28 501.77 613.54 500.4 614.77 500.53 615.42 501.53 616.62 502.15 619.11 502.4 621.41 499.95 624.38 499.65 626.03 499.54 628.02 501.35 629.32 502.28 631.64 502.06 633.14 501.38 634.57 501.44 635.73 500.17 639.81 499.71 640.73 499.84 645.29 500.22 646.08 499.15 648.79 498.81 651.22 499.79 652.41 498.61 654.05 494.64 658.22 492.96 659.08 490.38 660 490.18 656.25 489.83 654.54 488.06 650.59 487.17 650.5 481.35 652.48 480.45 650.51 477.62 648.24 476.9 645.24 476.3 643.77 474.17 640.2 473.7 638.86 472.47 636.46 472.95 635.05 472.52 633.56 471.31 633.08 468.79 630.89 468.15 629.69 466.55 629.29 465.59 629.75 464.36 629 462.24 629.68 461.07 630.73 460.68 631.84 459.16 633.05 457.19 632.7 455.49 632.77 456.58 634.33 455.92 634.59 455.39 635.55 455.32 636.56 454.56 638.81 452.67 637.6 451.77 636.03 450.27 636.5 448.06 635.64 442.54 632.73 440.99 632.18 440.51 633 438.64 634.31 437.22 636.25 436.11 636.81 434.83 638.17 433.91 638.8 431.15 636.94 429.45 636 426.54 633.26 423.7 629.53 421.32 628.94 419.9 626.47 418.28 625.23 416.85 623.19 417.17 621.96 416.44 619.37 416.28 615.46 415.37 613.31 416.29 609.23 415.66 606.12 414.28 604.26 412.28 602.1 411.23 600.22 412.45 597.68 413.9 595.77 416.72 594.36 418.57 593.91 420.08 590.95 421.64 590.38 423.47 588.72 424.41 587.22 426.02 585.74 427.45 583.88 427.64 583.04 429.35 578.12 430.05 575.63 428.97 574.05 428.98 571.72 429.48 568.74 428.54 565.23 428.11 564.57 428.38 563.5 428.23 559.69 428.98 557.83 429.02 556.92 429.8 556.43 430.72 554.51 430.95 552.81 432.78 550.81 434.53 545.83 434.27 544.65 434.74 541.17 434.19 540.27 434.41 536.58 435.42 535.25 435.21 532.72 434.64 531.24 434.93 529.67 434.82 528.68 433.48 525.85 432.28 524.57 430.04 523.04 428.99 522.71 426.54 522.67 425.81 520.75 424.05 520.57 422.54 519.47 419.9 518.86 419.37 517.41 418.13 517.22 416.27 518.04 415.66 517.71 413.48 518.56 412.14 519.32 409.94 517.07 405.46 517.43 404.7 517.85 404.09 517.06 403.86 514.73 402.37 513.98 401.8 513.22 399.56 511.26 397.49 509.94 393.78 510.62 392.85 509.68 391.26 509.15 388.97 508.1 387.47 506.28 386.15 506.17 384.64 505.45 384.43 507.09 383.96 507.69 384.08 509.4 383.7 510.56 383.24 513.96 383.99 517.18 382.55 519.68 381.85 521.32 381.82 523.48 376.43 527.9 371.99 528.66 370.58 528.2 367.04 527.75 365.44 527.26 363.01 528.64 362.19 528.83 359.57 528.74 358.61 527.5 356.78 527.74 355.77 528.47 353.68 535.15 350.62 537.98 349.7 537.94 347.12 537.13 345.43 537.76 344.53 537.65 343.89 538.42 339.97 539.04 337.62 539.59 337.31 538.85 335.42 538.25 334.49 538.85 333.53 540.29 333.41 540.97 332.39 541.39 330.63 542.69 329.84 543.62 328.06 544.13 326.73 545.46 326.5 546.37 325.49 548.01 326.11 548.96 325.72 549.87 323.39 550.16 319.78 548.01 319.3 551.1 318.63 552.26 319.02 555.17 319.51 556.2 319.15 557.36 317.92 558.91 317.47 561.61 316.78 562.51 316.01 562.33 313.93 563.39 312.18 564.94 309.65 564.51 306.47 566.43 304.81 566.82 305.14 569.71 304.96 572.19 304.57 572.72 304.77 576.43 305.54 578.17 305.45 579.64 303.78 581.13 301.79 585.38 301.52 587.76 302.07 589.14 301.53 590.59 299.93 590.78 299.27 591.39 297.85 591.53 296.7 593.77 295.66 594.61 295.31 595.83 295.22 597.42 294.31 598.83 293.9 600.35 292.75 601.27 291.94 601.4 291.21 602.18 290.82 603.47 289.91 604.24 289.32 606.18 287.65 607.67 287.15 609.48 286.63 610.05 286.24 611.78 285.07 615.33 285.01 616.99 283.82 617.64 281.08 623.8 279.4 623.78 280.26 621.89 274.42 624.46 270.67 624.63 262.86 626.26 262.91 629.14 262.81 624.84 262.54 618.68 262.15 616.36 261.27 614.24 259.33 610.08 257.91 606.54 259.08 596.54 259.98 592.57 261.11 585.91 261.08 583.8 260.62 580.79 259.09 576.71 259.23 572.42 260.34 570.12 260.98 566.74 261.77 564.99 261.68 560.56 261.89 556.79 262.15 555.25 262.05 552.76 261.26 546.88 260.3 542.02 259.45 536.99 256.66 527.11 256.06 517.2 255.86 515.91 255.1 513.85 254.01 511.49 251.85 512.03 250.96 513.22 248.45 513.43 245 512.91 243.57 512.27 241.67 511.99 240.74 511.52 239.92 513.5 238.43 515.31 236.82 517.73 235.15 519.26 231.78 517.69 230.78 518.42 227.45 517.33 226.53 517.74 224.73 517.12 223.21 518.18 221.09 517.78 219.94 519.25 218.21 520.27 216.85 519.22 214.88 515.28 213.12 513.92 209.26 512.09 207.36 511.66 205.53 511.98 204.23 511.79 199.01 512.51 196.95 512 194.52 511.72 193.26 511.4 192.52 509.18 192.15 506.97 190.55 505.81 189.24 505.14 187.27 504.68 185.28 503.33 183.06 498.56 182.35 496.38 183.38 495.14 184.59 493.14 184.61 491.68 185.49 490.03 184.86 487.92 183.77 487.02 183.94 484.92 181.98 481.48 180.52 481.11 177.97 478.73 177.56 475.47 175.31 475.34 173.56 474.13 172.02 472.58 169 473.32 163.58 473.74 161.73 473.61 159.87 473.95 157.87 473.02 155.6 473.97 154.44 475.47 152.43 476.99 150.86 477.26 149.45 477.82 146.55 477.1 145.18 475.55 144.69 473.81 143.72 472.22 142.39 468.94 141.17 467.79 140.94 466.67 139.08 464.99 138.68 464.11 137.78 463.68 137.04 462.82 137.5 460.31 136.77 458.23 132.48 457.81 129.05 452.32 129.25 451.77 132.7 444.63 134.02 441.75 126.39 434.98 126.26 429.71 125.55 426.87 125.44 424.12 126.32 421.68 126.25 419.88 124.22 419.36 122.71 417.6 121.81 418.19 117.7 417.86 112.82 415.86 112.12 413.93 108.92 414.1 107.82 414.56 104.25 414.96 104.08 413.12 105 411.37 104.53 408.28 101.54 406.87 99.19 406.99 98.44 407.81 93.48 409.01 91.77 408.03 86.27 404.2 83.69 403.48 80.44 400.8 79.55 396.23 77.3 387.63 74.84 386.18 73.79 384.84 72.17 384.03 72.57 382.24 69.74 377.38 68.44 374.82 67.32 371.95 67.47 370.82 67.14 369.81 67.28 368.33 67.11 366.18 67.26 363.34 66.97 360.51 68.11 357.1 69.29 354.7 69.29 351.93 68.68 349.97 69.12 347.79 68.63 346.74 68.91 345.53 68.06 344.1 64.11 343.27 64.35 341.92 62.88 336.01 61.29 334.08 61.94 332.48 64.04 331.62 64.77 326.74 65.86 325.77 64.86 323.29 64.15 314.8 64.49 312.88 66.9 312.29 68.89 312.02 70.29 311.28 71.44 309.18 72.65 306.52 76.28 302.75 75.94 302.02 74.4 301.05 71.76 299.94 70.9 296 69.82 293.68 68.51 292.18 66.14 292.8 62.93 289.96 62.96 287.23 62.18 286.6 61.52 284.98 60.89 281.48 59.66 279.57 60.23 276.57 60.54 276.08 59.76 273.91 58 273.73 57.07 273.1 55.94 273.45 54.66 272.05 50.51 270.43 48.49 270.35 47.1 269.38 46.11 269.61 43.6 269.37 42.93 271.87 40.86 272.4 39.13 271.28 36.84 271.21 32.41 268.43 30.68 269.11 27.56 268.56 27 267.37 24.37 259.02 23.21 257.82 19.72 254.85 18.36 254.8 17.33 252.46 16.89 250.65 17.12 249.64 16.73 246.27 12.76 242.38 13.57 240.75 13.29 234.14 13.05 233.42 13.94 229.35 15.59 227.89 16.38 225.8 18.11 223.24 18.4 220.73 19.36 220.02 19.88 218.41 21.37 216.18 22.26 215.33 24.47 215.8 25.68 214.85 30.96 214.28 34.41 212.82 34.12 209.95 35.69 204.03 36.85 202.44 38.24 195.95 35.16 193.32 34.25 190.04 33.4 187.6 34.64 185.45 36.36 184.35 37.25 181.9 36.45 179.84 35.11 179.23 34.03 177.11 32.47 175.34 31.86 174.25 30.35 173.76 29.29 172.8 29.06 171.93 27.04 170.32 26.6 169.7 26.81 168.11 25.75 166.22 25 165.39 24.23 162.82 22.33 161.87 20.67 159.32 19.72 158.93 15.12 158.86 12.61 155.26 8.5 148.88 7.5 146.68 6.88 144.68 5.86 139.93 4.25 134.01 1.5 132.07 1 131.02 3.41 125.22 5.4 121.55 6.81 120.76 8.14 119.34 8.67 117.97 10.47 116.18 11.47 115.64 12.52 115.66 13.3 114.8 16.57 111.81 18.93 110.52 20.28 111.05 22.61 110.87 24.92 109.24 26.57 109.19 28.64 110.98 29.84 111.19 31.05 110.92 32.92 111.46 34.08 112.35 35.3 112.22 36.54 111.46 37.46 109.98 38.19 110.42 38.61 111.87 39.16 112.2 39.47 114.09 40.6 113.7 42.7 113.97 43.83 114.66 46.15 114.49 48.79 112.28 53.65 110.68 55.29 109.03 58.85 106.42 60.96 106.72 63.9 106.03 66.7 104.81 69.46 105.72 72.08 105.82 73.24 104 76.1 102.8 78.94 102.78 80.36 102.26 82.58 100.29 84.75 100.79 88.1 103.32 93.03 101.71 96.68 102.93 98.38 102.5 100.99 101.55 102.59 101.27 104.06 104.1 104.85 107.74 106.78 109.52 107.64 110.66 107.63 116.84 109.14 117.11 111 118.06 111.24 118.67 112.37 119.67 112.84 121.75 114.6 125.55 115.1 125.75 117.54 125.62 121.72 127.24 124.63 127.68 129.09 131 130.44 131.82 132.34 134.66 133.3 136.67 135.44 140.3 133.58 141.94 137.34 150.49 138.49 151.24 139.15 152.37 139.97 155 143.07 157.13 144.25 158.76 145.95 160.32 146.85 159.31 148.56 160.37 150.19 160.79 150.66 162.73 151.35 163.36 151.56 164.5 150.37 166.45 150.9 167.57 152.25 168.05 156.49 168.21 159.37 168.78 163.41 168.67 165.71 170.44 166.07 174.83 165.62 177.94 167.36 179.04 168.32 182.93 169.71 184.27 172.1 185.13 174.11 183.74 175.6 181.68 177.55 181.09 179.01 181.75 180.84 181.55 181.62 181.22 183.68 178.19 184.34 176.29 187.46 174.96 188.44 175.18 189.3 174.69 190.93 172.96 191.87 172.24 192.72 170.9 194.62 169.59 195.62 170.96 196.95 171.75 198.58 173.52 200.53 171.93 202.53 171.66 204.8 172.6 207.09 172.63 208.79 171.71 210.19 171.51 212.24 169.34 213.67 168.76 214.94 167.64 215.49 165.7 217.5 163.84 219.47 160.26 221.46 160.34 222.34 160.01 223.94 160.45 228.25 157.84 223.73 150.52 218.31 146.41 223.53 140.6 235.72 130.42 237.99 120.66 238.98 118.65 243.29 110.41 247.51 100.39 249.76 104.42 256.87 101.58 258.33 102.15 258.39 101.53 261.4 100.11 262.54 99.94 262.69 98.7 263.29 98.12 265.97 97.03 268.67 96.94 268.69 98.44 269.87 98.64 270.24 99.92 270.28 101.52 271.41 101.5 271.61 105.37 271.41 107.03 272.07 107.5 271.99 108.87 273.07 108.88 273.33 109.53 274.35 109.49 274.38 111.48 275.01 112.34 276.28 112.32 276.49 114.03 275.87 114.93 275.25 114.95 275.32 117.21 276.74 117.21 276.83 118.91 277.23 120.78 280.34 120.86 281.11 120.73 281.74 119.94 282.56 120.58 283.95 120.52 283.94 119.33 285.02 118.84 286.87 118.9 288.85 120.87 289.78 121.11 291.31 122.52 292.74 122.28 293.85 120.48 295.15 119.05 296.34 119.23 298.39 115.88 301.66 115.66 301.99 114.24 303.08 112.74 302.59 111.82 302.99 109.18 303.87 107.47 307.46 106.43 308.07 107.78 308.8 108.08 309.48 111.31 309.46 113.16 310.42 114.96 310.97 118.07 311.46 119.04 312.77 118.96 314.25 120.03 316.93 122.36 317.8 124.66 320.21 125.65 321.17 127.87 323.46 129.64 328.71 128.71 331.93 130.65 333.82 130.44 336.73 131.28 339.61 130.67 341.11 131.69 345.83 132.41 349.13 132.72 350.31 131.67 351.83 131.53 353.58 132.25 354.87 132.43 355.46 132.98 357.69 133.89 361.01 134.55 362.22 140.17 361.66 141.3 365.8 144.78 372.01 146.38 373.4 147.25 375.25 147.98 376.22 148.94 380.51 150.16 386.03 152.08 387.18 153.13 388.59 153.3 392.65 155.05 396.1 155.85 396.81 155.72 398.91 156.61 399.66 154.85 402.35 153.8 408.84 149.37 413.99 149.44 412.5 147.75 409.3 142.61 407.76 140.78 406.67 139.97 404.06 139.26 403.83 138.43 402.99 138.13 402.45 136.83 401.82 134.18 400.74 131.77 400.04 130.78 400.79 127.69 400.28 124.47 401.81 121.99 402.88 121.19 403.14 119.26 407.78 116.8 410.8 113.91 413.83 111.65 415.87 108.21 417.97 105.88 419.87 105.14 421.51 103.36 424.08 101.45 424.91 100.22 425.88 97.89 427.74 95.29 428.52 93.96 429.76 92.91 429.76 91.26 429 89.05 429.04 88.32 428.39 86.68 427.86 86.56 427.39 84.93 426.01 83.85 424.37 82.96 426.2 81.98 426.76 81.41 426.82 79.91 426.41 78.82 427.07 78.61 428.44 77.2 428.59 75.87 428.12 71.91 428.6 71.56 430.03 71.78 431.55 71.08 432.94 69.71 434.77 68.25 435.69 62.36 434.1 59.19 433.32 58.59 434.83 56.37 437.52 55.1 438.2 53.97 438.14 53.14 439.73 50.77 443.79 49.43 445.66 49.58 446.95 48.56 447.55 47.2 447.31 46.08 444.56 39.53 445.11 38.87 447.07 38.58 447.55 37.97 449.92 37.84 451.26 37.99 453.39 36.9 453.56 36.24 451.9 34.12 454.51 30.8 456.74 26.88 457.79 24.83 457.05 24.5 455.07 21.2 456.15 20.44 458.23 17.74 459.01 17.01 458.94 15.07 459.95 11.66 459.7 11.1 460.06 9.37 459.73 6.4 459.16 5.28 457.45 3.06 459.71 2.54 461.42 1 462.36 2.57 465.84 6.54 467.45 7.68 468.89 8.38 469.67 9.82 470.64 13.8 471.98 14.94 472.71 16.33 472.66 18.08 471.95 19.01 471.51 20.25 471.56 21.46 473.87 26.23 473.66 28.2 474.19 31.29 474.64 33.08 475.02 33.5 474.56 34.63 475.7 35.81 477.36 36.91 478.47 37.32 481.88 37.27 484.49 36.8 486.7 37.2 490.54 38.75 493.2 40.94 496.29 43.87 497.63 44.6 498.14 43.86 499.21 41.16 503.13 40.83 504.58 40.87 505.71 40.56 508.05 41.39 509.28 39.71 511.56 40.07 514.55 38.71 516.28 36.7 517.93 34.11 519.38 32.8 525.43 31.11 529.47 34.47 533.04 36.33 536.72 36.51 536.93 37.57 537.55 38.36 539.03 39.27 543.03 38.87 544.21 37.6 545.88 38.29 548.3 37.71 549.61 36.49 550.89 36.01 557.04 35.85 560.33 38.26 561.73 39.11 563.32 38.88 563.99 39.22 570.22 41.34 572.71 40.43 574.53 38.52 575.55 37.06 576.74 36.28 579.36 38 583.36 44.47 585.62 45.94 592.7 43.65 594.52 43.23 596.15 41.92 597.48 42.32 598.53 41.77 601.88 44.33 604.2 44.21 607.4 43.27 608.89 44.03 611.47 43.54 614.23 43.7 614.76 42.25 614.09 40.97 616.16 39.8 619.81 39.52 620.45 39.21 Z" id="37590000"/>
</g>
</svg>