<?xml version="1.0"?>
<svg xmlns="http://www.w3.org/2000/svg" version="1.2" baseProfile="tiny" width="800" height="1222" viewBox="0 0 800 1222" stroke-linecap="round" stroke-linejoin="round">
<g id="sigung">
<path d="M 799 1081.68 798.93 1082.31 797.97 1082.25 798.39 1081.1 799 1081.68 Z M 781.38 958.78 780.68 955.26 781.68 955.04 782.31 958.4 781.38 958.78 Z M 672.58 640.6 671.6 638.42 671.93 638.39 672.58 640.6 Z M 579.88 75.87 578.47 76.63 578.33 75.85 579.88 75.87 Z M 549.43 1.86 550.85 1.81 552.05 3.29 552.7 3.78 552.61 4.69 553.57 4.89 553.82 4.45 554.79 4.84 554.19 5.44 554.35 7.22 553.97 8.32 554.17 9.42 554.9 10.45 555.07 11.27 555.73 12.08 555.87 13.89 557.26 16.37 558.7 18.01 561.05 21.05 565.38 25.75 566.79 26.1 567.21 26.68 569.95 26.54 572.33 27.06 571.78 28.92 572.42 29.9 572.64 31.13 572.46 32.33 570.65 33.96 569.71 35.31 570.19 36.07 569.57 37.54 568.56 38.27 566.55 38.58 565.74 39.24 565.09 40.59 565.01 41.28 565.42 42.39 566.95 42.94 567.81 41.66 568.12 42.17 566.97 43.67 567.19 44.35 565.95 45.64 565.95 46.62 566.8 49.1 567.86 50.64 568.57 51.09 568.77 52.55 569.35 53.66 570.58 55.17 570.37 55.67 570.45 57.24 571.11 58.65 573.12 61.44 574.33 62.57 575.34 64.27 578.46 66.67 579.92 66.62 580.67 65.1 581.37 64.95 581.65 66.59 582.47 66.8 583.07 65.44 583.53 65.97 583.43 66.99 582.69 67.65 582.64 68.67 582.02 68.69 581.67 71.39 580.93 72.05 581.13 72.59 579.24 73.92 578.76 75.03 577.97 74.77 577.84 76.31 577.41 76.58 577.01 78.02 576.31 78.53 576.33 79.43 576.96 80.08 578.39 80.16 579.07 81.95 578.62 82.41 577.89 81 576.24 80.84 576.22 82.09 575.19 82.19 574.42 82.92 573.79 84.09 573.3 86.74 573.93 89.56 574.76 92.14 575.84 94.91 577 95.83 577.01 96.85 577.62 98.39 580.52 99.38 579.89 100.56 578.46 101.09 578.28 102.35 578.7 103.74 582.13 108.03 582.83 108.41 588.1 106.16 588.65 105.72 590.27 106.15 590.85 106.54 596.56 112.55 596.43 113.15 595.57 113.59 594.91 113 594.87 112.34 590.49 107.6 589.16 107.01 587.92 107.13 586.45 107.89 582.6 109.54 581.71 110.41 582.28 111.91 583.85 115.22 589.92 121.49 591.49 119.94 587.78 115.41 587.33 113.9 587.43 113.33 589.27 112.52 590.38 111.81 590.81 112.74 589.01 113.57 588.92 115.03 590.94 117.55 593.99 121.51 596.19 124.03 600.54 129.46 601.24 130.08 605.21 132.31 608.46 134.03 610.24 135.68 613.49 139.11 614.04 139.46 616.3 139.61 618.46 139.6 618.89 140.47 618.27 140.94 616.16 140.66 614.05 140.7 612.89 140.1 611.37 138.36 608.01 134.99 605.51 133.57 604.4 133.41 604.03 134.23 604.3 135.19 603.89 135.88 606.07 136.13 606.25 138.22 608.11 138.24 610.42 140.44 612.5 142.64 613.45 142.83 618.14 142.56 618.66 143.52 617.74 143.64 616.27 143.28 614.79 143.27 614.3 144.22 614.16 145.84 614.63 147.33 615.62 146.79 616.89 149.18 615.65 150.37 617.21 152.5 618.75 153.84 619.98 154.7 623.48 157.77 626.09 160.48 628.47 162.49 630.32 163.6 634.59 166.59 637.81 168.97 638.87 170.01 644.48 173.86 645.39 174.64 647.73 176.19 648.84 176.74 652.13 179.54 657.41 182.35 659 183.37 659.89 184.21 660.71 184.35 662.09 185.68 665.07 186.8 665.02 188.01 666.39 189.93 667.39 190.74 668.81 192.4 669.86 192.79 670.91 193.52 671.49 193.4 673.4 194.54 674.56 193.49 674.56 195.39 676.15 195.68 675.34 196.45 675.74 197.92 676.65 198.65 677.23 198.62 678.32 197.55 678.59 198.08 679.32 201.11 679.69 201.98 679.87 203.68 679.03 205.24 679.09 206.41 679.74 207.02 679.94 208.52 681.02 209.64 682.21 209 682.46 210.19 683.33 210.47 684.89 211.75 684.56 212.37 684.76 213.12 684.28 213.64 684.4 215.82 683.54 216.71 682.41 217.29 681.46 218.43 680.26 218.77 674.61 221.58 675.13 223.06 674.77 225.26 673.49 228.36 672.16 230.36 669.87 232.59 667.77 233.9 667.31 233.14 668.16 232.88 669.71 231.82 671.67 229.86 672.54 228.61 673.88 225.76 674.1 224.42 673.05 222.31 669.28 223.98 668.64 222.71 673.92 220.08 673.52 219.27 674.33 218.87 674.74 219.66 676.71 218.65 675.19 216.27 675.65 215.96 674.03 213.3 673.39 213.54 668.11 213.07 665.85 214.4 665.65 214.12 662.87 215.57 662.18 216.42 664.61 218.79 664.02 219.36 662.51 217.92 659.57 220.98 659.22 220.77 658.39 224.07 657.87 224.03 656.45 226.96 656.48 228.2 665.05 230.23 665.22 231 656.75 228.78 654.83 229.71 654.03 231.45 653.54 233.11 652.66 237.57 652.54 239.51 652.53 243.25 652.78 246.53 655.69 247.4 655.38 247.93 654.15 247.93 653.1 248.7 653.75 253.3 654.64 255.02 654.8 256.08 655.49 257.89 656.45 258.66 657.32 258.75 658.1 258.29 657.26 257.35 657.86 256.81 658.6 257.85 659.14 260.06 658.32 260.59 657.27 260.61 656.64 261.33 656.32 262.32 656.82 263.63 657.47 266.34 658.3 267.99 658.92 268.47 660.04 268.66 660.23 267.47 660.93 267.58 660.76 269.06 660.05 269.6 660.47 270.92 661.39 271.02 661.17 272.12 660.41 271.71 658.79 272.2 658.83 274.29 658.66 276.41 657.71 278.08 657.12 277.98 657.99 276.53 658.07 273.23 655.8 273.26 655.17 273.51 651.42 275.82 650.07 277.84 648.36 279.04 647.75 279.73 647.77 281.25 647.32 281.85 646.74 283.52 646.56 286.57 646.4 286.77 646.46 289.18 646.74 290.63 647.14 294.51 647.61 296.61 648.05 297.69 648.46 299.98 649.03 301.41 649.71 302.54 649.67 303.14 650.17 306.08 652.14 309.51 652.59 311.09 653.34 312.39 653.77 313.76 655.12 315.69 654.61 316.78 655.92 318.31 656.86 321.52 657.98 323.97 658.66 324.95 660.49 326.94 660.11 327.67 660.49 329.4 660.85 333.72 661.42 334.9 661.2 336.4 661.38 337.25 662.43 338.71 663.33 339.61 665.37 339.72 665.54 340.39 663.87 340.55 663.16 340.84 663.2 342.58 664.28 345.03 663.42 346.56 663.48 348.43 663.83 351.14 664.55 352.2 665.09 353.62 664.38 354.54 664.46 355.79 665.03 356.13 665.22 357.43 664.36 357.49 663.68 357.96 662.75 361.05 663.05 363.36 663.9 365.35 664.4 365.83 664.12 367.18 665.02 368.1 665.19 368.76 666.71 369.65 667.08 371.28 666.32 372.05 664.8 372.56 664.94 373.9 664.21 375.01 664.38 376.81 663.9 377.19 663.19 378.77 662.36 378.93 663.28 376.99 662.47 376.24 661.19 377.31 661.01 377.79 659.22 379.61 657.91 381.25 657.53 382.45 657.76 383.62 656.28 385.61 655.82 385.45 654.71 386.65 653.74 388.89 653.08 389.36 652.79 391.09 652.17 391.1 651.11 391.79 651.26 393.13 651.78 393.3 651.91 394.99 651.42 396.26 650.05 396.36 649.43 397.01 649.44 397.9 648.87 398.02 649.29 399.19 648.39 399.69 648.62 400.34 647.52 401.8 646.63 404.19 647.08 406.03 647.94 408.25 649.03 410.17 649.54 411.41 649.92 412.99 651.42 415.44 651.87 417.01 652.8 418.51 653.49 420.16 655.62 424.57 655.37 424.84 656.33 426.23 657.31 428.32 658.64 431.9 658.75 433.11 659.54 436.03 660.09 437.6 660.51 437.97 661.01 439.48 661.08 441.55 660.44 442.52 660.46 443.59 660.81 444.23 660.61 445.09 660.87 446.65 662.63 452.01 663.46 454.16 664.05 456.26 665.64 459.39 667.13 463.32 668.14 464.61 668.24 466.63 668.57 468.02 669.33 469.95 670.65 472.68 670.75 473.83 670.43 475.76 670.06 476.58 669.26 476.37 668.5 477.76 668.33 479.59 668.98 481.93 670.17 485.06 672.48 490.27 673.53 491.69 673 492.82 673.36 494.96 673.87 495.82 673.82 496.53 674.41 497.57 674.58 498.78 674.41 501.16 674.08 502.26 674.53 502.72 674.47 504.25 673.84 505.3 674.52 507.14 674.28 508.16 674.8 508.97 673.78 510.17 672.64 509.86 671.78 511.08 671.82 513.83 672.1 514.67 670.85 516.99 670.36 517.28 669.9 518.53 668.92 519.24 668.02 520.38 667.75 521.12 667.89 524.36 668.3 526.07 669.26 528.7 670.11 532.17 671.31 535.04 671.09 536.49 671.63 538.8 672.23 540.5 673.04 541.37 673.07 542.35 672.66 543.48 672.18 543.62 671.79 545.93 672.3 548.79 672.87 550.16 673.51 550.37 672.48 551.56 672.05 551.47 671.36 556.46 670.09 557.49 669.71 557.14 669.99 556.06 669.66 554.79 670.74 554.64 671.24 552.01 669.95 551.8 668.12 552.13 667.42 553.33 667.5 553.88 666.82 555.54 665.46 557.51 665.12 558.88 665.39 562.98 666.52 564.83 667.12 568.17 668.08 568.63 667.46 569.97 668 570.65 667.44 571.69 667.53 572.88 666.9 572.82 666.05 573.83 665.69 574.68 665.7 575.88 666 577.45 667.04 579.98 667.77 582.5 669.55 586.93 673.36 595.42 674.33 598.15 675.34 599.33 675.88 600.55 675.52 601.51 675.69 602.27 676.82 602.15 677.14 602.63 676.1 603.26 675.77 604.79 676.39 605.97 675.48 606.12 675.16 607.3 675.26 608.63 674.71 608.91 674.49 610.2 673.25 611.48 673.04 612.22 674.02 615.52 673.92 616.66 674.46 617.95 676.19 618.07 678.99 622.35 679.47 623.76 678.63 624.57 678.18 622.54 675.66 618.74 674.11 618.73 673.41 616.75 673.54 615.54 672.58 613.26 671.7 613.45 668.28 617.01 667.65 617.33 666.91 619.4 666.39 622.86 666.57 623.49 667.74 623.49 667.76 624.49 669.52 624.62 671.53 624.47 674.99 622.29 675.8 622.45 671.57 624.99 669.21 625 668.42 627.44 668.38 628.28 668.88 628.8 668.6 629.64 668.95 631.83 668.95 633.52 669.35 634.42 669.42 635.76 670.5 637.22 670.59 638.83 671.32 639.91 671.28 641.37 672.2 642.25 672.26 643.39 673.37 646.43 676.54 652.63 677.28 653.48 678.28 653.71 678.08 655.45 678.39 656.36 678.2 657.46 679.16 660.56 680.28 662.23 679.48 665.05 678.91 665.3 678.44 666.55 677.69 666.93 677.59 668.51 677.08 669.17 676.52 671.59 676.65 673.66 678.07 678.18 678.94 678.78 678.52 679.85 679.4 681.6 679.08 682.08 679.49 683.59 680.47 686 681.41 687.44 681.4 688.02 682.07 689.45 682.76 690.1 682.82 691.27 683.65 693.2 684.63 693.5 685.27 694.19 685.3 695.3 684.3 695.73 684.86 697.77 685.79 699.43 686.55 700.23 687.23 700.38 686.79 701.35 687.51 703.06 688.68 705.28 689.29 705.82 689.42 707.13 690.85 708.87 691.28 710.4 692.75 712.84 692.46 714.53 692.74 715.83 693.84 718.13 695.21 719.92 695.46 721.21 696.71 723.11 699.29 725.67 700.18 727.55 701.34 728.66 702.38 730 703.99 731.55 704.5 732.71 706.58 735.49 708.67 737.79 710.48 739.2 711.34 740.62 713.83 743.66 717.84 747.84 720.36 749.92 720.49 751.18 721.21 752.15 722.09 752.84 722.99 752.56 722.74 753.64 723.63 754.41 724.22 754.26 726.44 755.78 726.28 757.55 726.77 759.35 727.32 760.59 728.54 761.11 729.53 760.94 730.55 761.64 729.46 762.73 729.78 763.74 729.99 765.51 730.42 765.91 729.93 766.68 729.7 767.93 730.04 768.77 730.72 768.95 730.95 769.99 731.47 770.66 733.32 770.45 734.16 770.65 735.18 771.43 737.66 775.67 743.43 779.58 743.35 780.54 742.65 780.61 742.11 779.67 737.17 776.34 734.73 772.05 734.15 771.76 730.98 771.82 730.47 772.38 728.93 771.99 730.71 775.31 731.11 775.16 733.04 778.72 732.73 779.2 734.34 781.37 735.32 782.94 736.13 783.53 739.06 782.11 739.39 781.63 739.62 780.26 740.49 780.51 739.35 782.34 737.96 783.03 737.58 783.54 737.55 785.28 738.05 786.34 740.12 787.19 740.49 789.3 740.39 790.03 741.31 790.88 742.63 791.61 743.38 791.78 743.45 792.87 744.33 792.77 744.27 794.4 744.58 795.44 745.57 796.66 746.38 798.13 747.28 798.67 748.93 798.85 748.96 799.77 749.66 799.64 750.78 801.54 752.15 802.46 752.81 803.53 752.47 804.07 752.13 805.91 752.88 807.95 753.56 807.93 754.58 808.5 754.35 810.09 752.48 811.01 752.28 811.49 752.57 813.25 754.13 814.82 753.51 815.31 753.81 817.37 753.45 818.44 754.32 819.71 753.76 820.68 753.82 821.28 754.98 822.4 755.52 822.53 755.48 823.57 756.15 824.42 755.9 826.42 755.49 827.11 755.56 827.89 756.98 828.68 758.01 829 759.16 829.72 760.26 830.68 761.09 832.76 760.44 833.06 759.55 830.93 757.35 829.44 755.66 828.73 754.88 830.2 755.43 832.2 757.7 831.36 757.89 832.29 756.93 833.35 756.55 834.61 756.86 836.21 757.27 836.79 758.79 836.12 759.14 836.58 758.45 837.4 758.2 839.06 759.62 841.8 761.71 844.49 763.47 845.91 763.41 846.32 764.91 847.02 765.26 849.24 764.25 850.45 765.69 852.6 765.26 853.49 765.9 853.98 765.9 855.24 765.41 855.48 765.37 856.79 764.09 858.37 764.54 861.22 765.16 862.79 764.62 864.03 765.16 864.94 764.61 866.08 765.59 867.73 767.38 870.06 771.11 875.18 773.67 878.26 774.72 879.33 775.67 880.69 777.11 882.29 778.19 882.72 779.65 884.82 779.84 886.34 781.61 888.17 781.75 889.19 782.53 891.23 783.32 892.06 783.12 893.58 783.7 895.23 784.67 896.76 785.15 897 785.82 898.37 786.16 899.76 786.79 900.01 786.69 901.08 787.75 902.43 788.82 903.2 789.29 904.15 790.46 905.3 790.84 905.96 792.34 906.8 792 907.93 792.48 909.54 794.49 912.38 795.87 913.82 796.61 914.83 797.8 915.52 798.02 916.52 796.99 916.25 796.21 917.5 795.94 919.28 795.33 921.48 794.65 922.57 794.01 924.61 792.85 925.91 792.55 926.79 790.71 927.66 789.12 929.73 787.14 932.81 786.53 934.74 786.95 937.17 788.51 937.3 789.52 938.68 791.84 942.48 792.21 943.95 791.28 943.57 790.84 942.2 788.21 938.13 786.36 937.96 785.91 936.06 785.49 933.47 784.02 933.73 781.21 935.68 779.75 937.06 778.2 939.67 777.73 941.85 778.04 944.16 778.34 944.54 780.37 944.53 780.49 943.88 781.38 943.84 781.5 944.44 784.39 944.32 787.76 941.77 788.62 941.95 784.71 944.81 780.82 944.88 779.84 945.8 779.18 947.55 778.84 950.19 778.97 951.08 778.8 952.61 779.3 955.53 779.93 956.74 778.98 958.88 778.9 960.48 779.43 963.36 779.91 965.23 780.6 966.98 781 968.86 781.79 970.5 782.5 972.91 783.5 975.09 784.25 975.92 784.42 977.32 784.79 978.4 786.19 980.9 787.03 982.04 786.99 982.65 787.71 984.56 789.21 986.68 790.29 989.98 791.1 990.85 792.73 993.66 794.04 994.72 793.85 995.37 794.88 997.99 795.56 998.99 796.01 999.05 796.08 1001.33 795.23 1001.9 794.72 1003.68 794.68 1004.79 795.17 1007.2 797.16 1013.24 797.63 1014.02 798.25 1014.08 798.62 1014.97 797.9 1015.97 797.24 1016.24 796.55 1017.16 796.29 1018.41 795.61 1018.52 794.79 1019.52 793.27 1025.06 792.98 1024.4 793.76 1021.59 794 1020.06 791.76 1019.39 790.05 1021.1 790.74 1022.5 789.73 1022.92 788.96 1023.66 788.04 1025.07 787.77 1026.02 787.33 1031.49 787.96 1033.71 788.24 1035.38 788.7 1035.7 788.69 1037.01 789.32 1040.3 791.13 1044.76 791.96 1046.29 791.99 1048.39 793.08 1051.18 793.75 1052.47 795.05 1053.67 796.15 1053.94 795.94 1054.95 795.16 1056.01 795.12 1056.66 795.79 1057.12 795.34 1057.93 794.61 1058.2 794.52 1058.85 793.21 1060.54 793.05 1061.61 793.3 1063.37 793.8 1063.94 793.52 1065.08 793.48 1066.98 793.94 1068.56 793.8 1069.62 794.5 1070.86 794.41 1071.58 795.32 1072.76 795.2 1073.86 796.27 1075.97 795.79 1077.81 796.42 1079.17 796.58 1080.72 797.6 1082.61 795.67 1085.03 795.63 1086.55 794.22 1085.86 793.53 1086.01 792.18 1087.07 791.36 1088.64 790.86 1089.07 791.06 1090.05 789.7 1090.06 788 1091.47 786.27 1091.5 784.19 1092.78 783.08 1094.89 782.38 1096.86 782.15 1098.18 782.28 1099.83 782.24 1101.9 782 1102.59 781.94 1105.9 782.02 1109.43 786.97 1114.75 786.73 1115.41 785.68 1114.57 785.19 1113.61 781.56 1109.76 780.49 1110.17 778.73 1109.77 777.41 1111.04 776.8 1112.03 776.06 1114.4 775.88 1117.19 776.14 1117.67 777.44 1117.91 782.31 1117.99 781.33 1118.61 778.81 1118.33 777.48 1118.33 776.1 1120.97 775.57 1123.14 775.75 1125.41 776.5 1126.26 776.56 1127.3 777.31 1128.41 777.58 1130.21 778.7 1130.7 778.36 1131.36 777.33 1130.92 774.99 1132.29 774.76 1132.93 772.63 1136.57 769.38 1138.01 766.2 1140.07 765.3 1141.04 763.1 1143.82 761.06 1150.42 758.24 1152.47 757.57 1151.65 758.53 1151.47 760.62 1149.98 761.29 1148.06 762.64 1143.45 765.62 1139.82 765.35 1138.93 768.66 1136.8 770.59 1135.74 764.79 1126.14 760.3 1127 758.92 1127.92 760.7 1130.66 760.33 1130.9 758.55 1128.16 753.2 1131.65 753.34 1132.76 751.92 1133.75 753.54 1136.45 753.97 1136.47 755.29 1138.71 755.18 1139.33 757.55 1143.39 757.18 1143.71 752.59 1135.75 746.32 1139.44 747.63 1141.75 749.06 1142.57 753.22 1142.26 753.95 1142.63 749.55 1142.97 748.63 1142.93 747.82 1142.52 746.84 1140.97 744.29 1136.45 742.57 1137.11 742.51 1137.86 741.21 1138.14 740.07 1138.85 738.24 1140.29 732.29 1144.53 730.08 1146.56 725.35 1152.41 723.88 1154.7 722.06 1157.83 720.56 1160.67 718.51 1165.36 717.79 1167.21 717.15 1169.66 715.77 1174.45 716.12 1175.67 717.19 1177.91 717.03 1178.97 716.43 1178.8 716.66 1177.92 715.48 1175.68 714.17 1177.08 714.6 1177.78 713.35 1178.49 712.26 1181.15 712.9 1181.5 712.7 1182.36 711.94 1181.95 710.84 1183.24 710.95 1185.18 711.25 1187.15 711.05 1188.31 710.36 1189.86 710.28 1191.01 710.74 1193.07 710.66 1193.92 709.65 1196.13 709.55 1198.14 708.75 1199.26 708.64 1200.09 707.6 1201.09 707.13 1203.48 707.29 1205.53 706.44 1207.29 706.53 1207.94 704.78 1209.21 703.98 1210.08 703.55 1210.97 702.57 1211.43 702.24 1212.42 701.49 1213.15 700.56 1214.64 699.32 1215.14 698.15 1215.91 697.49 1216.67 697.29 1217.75 697.45 1219.5 696.98 1221 694.53 1220.48 693.51 1220.07 693.27 1218.92 692.56 1218.59 690.66 1218.77 689.79 1217.91 689.63 1216.51 688.44 1215.27 687.83 1214.23 686.96 1211.66 686.62 1209.84 688.12 1206.75 688.78 1203.97 686.17 1204.32 685.26 1203.73 684.15 1201.69 682.83 1200.9 682.67 1199.99 681.07 1200 679.54 1198.98 677.96 1199.13 677.11 1198.07 675.86 1197.94 674.95 1199.08 673.52 1199.2 672.26 1198.62 671.82 1197.79 671.61 1196.32 671.79 1194.22 671.01 1193.29 670.31 1190.63 669.68 1190.36 668.69 1189.22 666.88 1188.2 665.86 1186.88 664.69 1185.7 663.8 1183.59 662.07 1183.47 661.36 1183.16 659.88 1183.55 658.87 1183.16 658.22 1182.18 655.73 1182.01 654.88 1180.86 653.33 1179.31 652.11 1179.11 651.29 1178.54 650.11 1178.41 648.34 1180.1 647.43 1180.35 646.24 1179.98 645.32 1179.38 643.84 1179.13 643.31 1178.52 642.92 1176.62 642.31 1175.28 642.44 1174.01 642.91 1172.96 642.52 1171.23 642.67 1170.35 643.89 1169.37 644.11 1168.69 642.03 1167.33 640.43 1167.1 638.9 1167.15 637.19 1166.68 635.94 1167.33 635.12 1167.05 634.22 1167.67 633.84 1168.42 633.05 1168.85 631.43 1169 630.36 1169.43 628.33 1171.56 627.1 1170.44 625.42 1169.55 624.76 1168.62 623.22 1168.2 622.72 1166.78 619.22 1164.31 618.93 1162.92 617.62 1161.31 614.23 1162.93 612.36 1164.04 610.9 1164.69 609.55 1166.21 608.16 1168.6 604.99 1168.53 603.45 1169.7 599.19 1172.19 599.02 1174.99 597.12 1177.54 595.32 1177.8 594.64 1177.19 592.83 1176.34 590.52 1176.9 589.81 1177.26 588.26 1176.59 586.71 1176.35 584.72 1176.32 584.14 1178.02 582.61 1179.24 581.96 1180.83 581.42 1181.62 579.16 1182.44 576.43 1183.03 574.97 1182.82 574.4 1184.8 574.52 1185.98 573.62 1187.61 572.42 1189.07 572.44 1189.84 571.37 1190.52 570.9 1192.39 570.15 1193.9 569.43 1197.07 568.35 1198.29 567.76 1200.31 566.8 1202.01 565.29 1202.59 564.14 1203.94 563.51 1205.11 561.47 1206.21 558.15 1202.43 557.32 1199.11 556.3 1197.42 555.06 1196.87 553.81 1194.44 552.33 1194.39 550.72 1192.33 548.74 1191.77 546.17 1192.15 545.44 1191.12 542.74 1191.18 540.25 1188.95 536.73 1189.58 535.61 1189.38 534.22 1188.72 533.15 1187.1 531.16 1185.99 525.05 1184.52 522.9 1183.92 520.2 1183.62 518.53 1182.73 515.92 1182.36 513.35 1181.67 512.48 1180.96 512.33 1180.18 512.72 1178.69 511.76 1177.83 510.89 1174.59 509.41 1172.27 508.79 1170.74 507.6 1169.3 503.21 1168.09 501.72 1168.04 498.92 1169.16 495.05 1169.69 493.45 1171.09 491.92 1171.14 488.59 1172.3 485.42 1171.15 481.87 1169.42 474.48 1166.03 473.14 1166.44 470.52 1165.66 467.05 1166.08 464.71 1166.88 462.94 1167.69 461.43 1166.73 459.99 1166.06 456.69 1165.96 451.58 1164.62 450.47 1165.05 449.02 1163.41 446.04 1162.46 443.16 1159.43 442.44 1159.36 441.02 1160.87 440.61 1162.27 439.62 1162.98 437.75 1163.18 435.36 1162.89 434.1 1163.91 432.23 1164.69 430.52 1165.12 428.68 1166.08 426.94 1167.77 425.43 1167.97 423.1 1167.42 420.69 1167.14 419.05 1166.05 415.53 1163.23 414.5 1160.8 411.6 1160.65 410.43 1162.11 408.99 1162.04 407.79 1162.77 405.64 1162.33 402.51 1160.33 400.97 1158.8 400.39 1158 398.04 1156.13 395.61 1155.23 393.03 1154.98 394.31 1151.04 395.21 1149.44 397.53 1146.88 400.03 1146.35 400.97 1145.39 404.87 1144.49 405.84 1142.78 407.17 1141.26 408.71 1140.64 408.59 1138.78 411.21 1135.46 411.24 1131.19 410.39 1129.1 410.46 1125.87 409.79 1124.53 408.78 1123.93 407.94 1121.81 406.91 1120.75 406.77 1119.54 407.84 1117.72 406.74 1114.11 406.14 1110.86 407.16 1110.53 408.72 1111.21 411.8 1109.15 412.76 1108.25 414.55 1107.71 416.84 1104.85 418.67 1101.68 418.93 1098.68 417.99 1097.05 416.83 1096.2 417.46 1092.86 418.18 1091.57 419.47 1091.46 420.41 1091.73 422.34 1091.19 422.84 1089.85 423.05 1088.56 423.16 1085.73 423.56 1084.25 424.12 1083.14 425.09 1082.07 425.92 1080.7 424.69 1079.28 424.72 1077.99 424.17 1075.89 424.5 1074.05 424.7 1070.02 425.22 1069.24 427 1068.41 430.09 1066.29 430.54 1064.35 431.96 1062.53 430.87 1061.02 430.9 1058.35 432.03 1057.2 432.93 1053.45 434.88 1052.08 436.07 1047.8 438.02 1047.4 440.13 1046.64 441.38 1044.27 440.33 1043.52 438.2 1043.54 434.85 1043.75 431.03 1044.45 427.06 1044.14 425.17 1041.92 422.59 1041.18 420.66 1038.51 417.82 1036.06 415.22 1034.75 413.45 1033.71 411.13 1034.44 409.18 1034.41 406.01 1033.37 402.48 1034.57 401.52 1033.24 399.59 1031.68 395.78 1029.39 394.2 1026.97 392.66 1023.46 394.42 1020.22 394.47 1017.43 395.55 1014.96 394.27 1010.75 393.19 1006.49 394.04 1004.52 394.83 999.71 395.47 997.73 395.68 994.07 396.74 991.72 395.96 990.06 396.44 987.29 394.12 982.06 395.97 981.68 399.65 980.05 400.74 978.84 404.4 977.61 404.72 976.66 404.82 974.9 406.28 974.15 406.61 973.25 408.12 971.9 409.47 971.32 411.81 969.2 412.67 969.19 413.38 968.54 414.14 968.38 414.87 967.04 416.03 966.46 417.82 965.93 419.09 964.27 420.22 963.49 421.26 963.18 422.84 963.57 423.46 962.77 426.97 960.77 429.6 960.57 430.54 959.58 433.49 962.01 435.06 962.75 437.13 960.27 439.31 959.7 441.33 957.42 441.99 955.49 443.69 953.43 444.13 952.37 443.38 949.93 442.54 948.06 442.04 946.09 442.16 943.25 442.71 942.34 441.88 941.35 443.35 938.77 443.89 936.52 442.23 935.54 442.34 933.89 440.96 931.04 440.96 929.35 441.77 927.57 441.42 924.44 443.19 922.66 444.85 922.15 445.27 921.04 444.91 919.27 445.42 917.15 446.85 915.03 448.92 913.02 449.23 911.02 453.48 903.69 454.09 902.93 457.48 902.17 459.96 902.94 462.65 905.73 465.71 909.6 468.92 909.51 471.56 905.82 471.53 903.73 470.28 901.85 470.29 900.02 472.61 896.77 473.04 894.8 474.14 894.02 475.04 892.43 474.47 891.22 474.2 888.87 473.67 887.26 473.04 886.47 472.47 884.59 472.39 883.15 471.4 882.05 470.74 879.56 467.88 877.58 467.28 875.85 465.67 874.97 463.52 874.1 462.62 873.41 462.13 870.46 461.08 866.77 461.03 866.18 458.68 863.65 451.77 861.85 448.58 862.19 446.93 861.25 445.93 859.73 445.04 858.72 444.51 855.54 443.82 854.35 442.78 853.14 441.35 851.8 441.89 849.68 440.46 847.62 438.85 846.44 436.97 845.8 434.42 845.36 434.73 844 432.58 839.98 431.75 839.42 431.81 838.64 431.22 837.17 431.48 835.65 431.37 833.4 431.06 832.76 429.16 830.74 425.69 828.7 424.53 827.53 423.75 827.07 422.34 827.14 421.44 825.93 422.06 824.11 422.82 823.3 423.01 821.09 424.57 817.08 422.51 814.24 422.87 811.93 423.55 811.19 425.09 807.95 425.72 805.21 425.38 802.75 426.29 801.94 426.88 799.55 427.09 795.27 428.66 794.37 429.28 793.76 429.84 792.49 430.87 790.89 432.92 788.48 433.22 785.87 432.38 784.87 432.06 783.39 430.97 782.5 431.31 781.25 430.58 781.26 429.61 780.07 428.36 779.57 426.96 778.48 426.61 777.72 424.42 775.96 423.77 774.94 423.45 773.27 423.56 772.57 423.62 769.11 423.08 768.06 421.73 766.6 419.4 765.79 417.83 766.21 415.96 765.68 413.23 767.18 411.14 766.98 409.47 768.17 409.23 768.04 408.02 769.46 407.1 769.47 405.24 768.98 403.83 769.77 401.98 768.88 400.4 767.7 399.45 767.83 398.62 767.37 397.56 767.53 397.15 767.95 395.72 768.27 394.02 767.27 392.65 767.6 392.31 767.18 390.86 766.46 390.86 763.36 390.43 762.49 389.89 759.13 388.75 754.5 389.28 753.87 391.21 753.23 391.75 752.79 392.52 750.44 391.82 749.19 386.67 748.66 387.64 748.05 389.68 746.15 389.83 744.06 391.66 741.38 394.42 738.84 398.36 734.87 399.37 732.28 398.79 731.14 396.65 729.13 395.9 728.24 394.57 724.67 394.69 723.88 396.15 722.2 395.91 721.81 396.32 719.85 395.95 718.53 395.66 715.95 395.46 715.49 396.79 713.9 398.55 712.07 398.57 710.8 398.85 710.07 396.97 709.12 395.44 708.03 395.03 707.41 394.92 705.59 395.18 704.38 396.47 703.65 400.39 702.55 402.43 701.36 404.37 699.31 405 698.19 404.98 697.16 403.9 695.18 401.33 693.32 400.62 692.12 400.93 690.78 402.04 690.24 403.09 690.4 406.99 692.5 407.84 692.64 412.03 693.97 414 693.11 414.17 692.27 413.66 688.86 409.82 684.06 408.87 683.5 408.4 682.22 408.33 680.1 407.93 678.66 406.45 677.03 404.37 675.69 403.99 675.2 402.85 672.75 402.72 670.85 401.79 667.83 400.19 666.67 398.5 665.74 396.6 665.01 394.46 664.64 391.18 666.68 390.34 667.85 389.21 670.29 388.84 670.42 386.64 673.84 385.55 673.86 383.38 672.76 378.52 670.85 377.73 671.1 377.66 673.35 376.59 674.16 374.75 673.55 373.41 673.55 370.39 674.14 367.49 676.62 366 675.74 365.25 674.61 365.54 674.12 366.02 671.52 365.75 669.54 366.88 667.67 369.72 664.84 370.63 663.73 370.61 661.19 369.52 659.79 367.94 660.5 369.02 662.26 368.22 663.13 364.8 665.23 364.24 665.22 362.74 666.31 362.1 667.57 361.25 668.23 358.15 669.68 357.28 672.49 356.1 673.03 355.62 674.87 356.03 675.99 355.72 676.49 356.59 677.33 356.86 678.9 356.42 679.54 357.18 680.59 356.71 682.48 356.76 684.42 356.08 684.91 356 687.85 356.2 688.42 354.93 691.4 356.51 693.12 355.57 695.4 355.85 697.72 355.15 700.3 355.2 702.26 353.92 704.92 352.91 705.96 352.02 706.17 350.08 705.91 348.63 708.73 347.2 709.42 345.37 712.44 345.78 713.32 345.49 715.49 343.97 716.58 342.91 717.9 342.35 719.29 339.64 721.62 338.33 721.38 336.77 721.46 335.54 722.7 333.68 722.24 332.61 721.69 330.57 721.9 329.91 720.71 328.3 721.6 326.35 722.9 323.51 721.74 320.08 718.21 320.32 716.01 318.52 715.25 317.01 718.39 315.35 720.13 313.52 720.32 312.1 719.3 310.86 719.33 309.67 718.75 308.32 716.53 306.37 716.79 305.57 717.4 304.03 717.26 303.71 716.98 302.03 717 301.88 715.3 298.79 713.27 300.13 710.5 302.1 708.14 301.54 706.51 301.89 705.43 302.86 704.65 303.12 703.3 305.27 702.15 308.67 699.98 309.8 698.16 310.18 696.33 306.35 697.72 302.94 699.4 299.18 700.19 296.54 701.08 293.15 699.85 291.2 700.03 288.69 701.57 286.16 704.83 283.96 706.93 282.02 708.23 281.34 707.41 280.49 707.13 278.51 707.81 277.94 707.59 277.88 706.8 277.13 704.9 276.61 703.13 276.11 700.63 273.68 699.97 271.98 698.7 271.76 696.24 269.14 695.6 267.91 697.27 267.62 701.75 266.61 703.37 266.22 704.9 265.28 706.13 264.27 706.48 263.73 712.42 261.97 711.97 261.24 713.09 259.86 714.39 258.38 714.89 257.97 713.71 257.95 711.57 257.52 711.12 257.36 709.39 254.47 707.94 252.67 705.64 251.48 704.62 251.24 703.14 249.81 701.29 248.96 699.74 248.68 697.22 248.74 696.21 248.49 693.41 248.85 692.58 248.29 691.67 245.65 688.23 245.52 687.35 242.1 685.65 240.84 684.83 240.53 683.95 238.16 681.57 237.72 678.51 237.16 676.79 237.15 675.5 237.73 672.49 238.5 670.02 238.34 669.28 237.28 667.7 236.31 666.94 236.31 666.39 235.24 665.16 233.67 662.76 232.62 660.57 231.89 660.06 231.04 658.48 229.97 658.48 228.8 657.32 227.33 657.27 224.99 658.58 222.11 659.12 219.55 659.12 217.83 658.93 216.69 658.52 214.26 659.06 213.26 659.76 212.32 660.85 210.84 660.98 208.51 659.76 206.53 658.92 205.76 657.48 205.28 657.44 203.71 658.6 202.24 658.6 201.06 659.26 198.93 658.72 197.77 657.43 197.64 656.81 195.44 654.25 194.04 654.95 192.7 655.21 189.45 653.95 185.61 654.4 185.25 654.27 183.98 655.64 183.29 656.84 182.2 656.97 180.36 657.68 178.23 660.02 179.73 661.18 180.01 661.87 180.02 665.27 179.54 667.51 179.57 669.15 178.18 669.97 177.7 669.96 176.72 671.02 174.08 672.2 171.13 671.43 169.73 671.24 167.91 671.44 166.55 671.06 164.43 668.95 163.02 666.48 161.72 665.5 161.19 664.68 159.96 663.52 159.08 663.86 158.63 662.79 158.26 659.37 158.33 657.59 159.01 655.78 158.73 654.39 158.83 652.64 159.58 651.66 160.63 649.03 160.48 647.6 159.76 646.03 159.71 643.67 158.81 639.32 157.83 637.79 156.61 637.7 154.93 638.62 150.26 636.91 148.03 637.11 145.32 636.4 143.86 635.2 143.21 633.67 144.51 631.56 145.22 630.09 145.71 627.98 146.09 627.13 145.97 625.48 146.32 621.51 146.1 619.97 143.98 618.21 140.59 616.49 137.63 614.62 136.85 613.92 136.62 613.14 136.6 611.31 137.45 608.31 140.34 604.52 141.2 602.88 143.22 599.45 143.36 598.43 142.68 596.67 141.91 595.51 141.47 594.2 142.47 591.77 142.23 590.14 140.95 589.33 137.85 588.24 136.6 586.53 136.53 585.49 137.89 583.88 141.29 580.31 141.55 577.7 138.93 576.05 137.21 576.05 135.56 574.05 134.63 568.75 134.03 566.47 133.18 564.66 131.18 563.31 130.24 560.73 128.42 559.53 124.94 558.24 124.21 557.5 123.03 557.15 121.4 555 121.13 550.82 121 547.34 120.52 545.65 120.17 545.21 118.49 544.71 115.69 543.31 112.36 541.27 111.99 540.92 109.18 540.03 106.91 540.4 105.63 540.06 103.54 540.08 98.14 538.52 97.77 538.63 96.42 537.65 95.69 536.37 95.5 534.24 94.35 531.41 92.96 529.45 92.1 529.42 91.26 530.61 90.46 530.77 88.54 529.06 88.12 527.44 87.42 527.47 85.02 525.58 83.84 525.11 81.1 525.7 79.61 526.28 78 526.66 75.38 528.64 74.08 529.44 71.73 530.1 70.08 530.04 69.12 529.52 67.27 527.51 65.11 525.98 63.78 524.44 59.28 522.28 56.02 520.13 55.57 519.2 55.67 518.47 57.64 515.82 59.96 512.96 60.66 511.4 61.6 510.27 62.76 509.61 63.08 508.28 62.44 506.95 60.46 505.59 57.02 504.06 55.14 502.77 54 502.62 52.57 503.23 52.24 503.91 50.5 505.67 49.66 506 48.26 505.81 44.56 504.33 43.49 503.34 41.54 501.02 40.41 500.31 37.73 501.5 35.6 502.64 33.83 502.42 32.16 503.07 30.65 504.24 29.8 504.19 29.01 503.47 28.1 502.15 25.39 499.47 24.35 499.28 22.3 499.54 19.53 500.5 17.96 501.19 15.9 501.21 14.91 500.58 15.11 499.43 17.09 497.05 17.31 496.44 19.09 494.03 20.14 492.85 22.57 492.42 23.42 491.28 22.65 487.66 20.87 487.31 20.06 486.04 17.95 486.1 13.28 482.54 13.55 481.67 13.06 480.85 12 480.01 9.58 479.58 8.27 480.07 6.02 479.77 4.25 479.73 2.21 478.99 1.41 477.77 1 473.17 1.75 470.75 3.31 468.83 4.53 467.92 6.45 465.29 7.21 465.01 7.9 464.22 8.87 464.22 10.04 460.29 10.89 459.26 12.2 458.36 14.44 458.05 14.82 458.86 15.45 459.12 18.62 461.3 21.12 462.51 23.19 463.99 24.96 464.18 26.96 463.64 28.02 462.87 29.43 460.75 30.35 458.35 30.8 456.34 30.84 455 31.53 452.36 31.24 452.01 31.04 449.62 31.12 448.37 30.67 448.17 31.01 445.83 30.65 444.12 30.63 442.13 31.91 438.24 32.92 436.25 34.67 433.71 35.56 431.82 35.99 428.58 35.97 423.69 35.6 423.67 34.58 421.63 33.77 421.07 31.66 420.04 30.63 420.31 29.15 420.17 29.75 419.38 29.25 418.07 29.39 417.14 30.36 415.34 30.5 413.92 29.82 412.98 28.71 410.91 27.45 408.11 26.78 406.17 26.44 403.32 26.57 401.88 27.47 400.09 27.88 400.44 29.36 399.29 29.55 398.48 31.16 396.3 30.77 391.34 29.38 389.11 29.45 385.16 30.86 381.33 30.42 378.59 29.8 377.42 28.03 375.19 25.49 374.08 24.88 374.11 23.92 373.42 23.72 371.36 24.88 369.24 25.82 366.92 27.29 365.27 28.66 363.12 29.33 361.13 30.7 359.04 30.97 356.65 31.94 354.43 33.47 352.53 32.11 351.31 30.03 350.76 28.21 349.53 25.91 348.73 25.09 346.97 23.91 348.42 21.94 349.73 19.2 352.15 16.75 350 13.96 348.23 21.02 343.86 23.57 341.61 24.96 339.35 25.59 337.65 26.78 336.02 29.37 333.55 31.57 333.11 32.78 331 35.5 329.09 36.62 329.01 38.11 329.64 38.69 329.38 39.62 327.98 40.92 327.43 43.25 325.63 44.49 325.19 45.38 324.25 47.43 323.11 49.5 322.36 49.89 321.6 50.4 319.74 52.43 317.85 52.13 316.79 52.53 315.67 53.73 313.97 54.6 313.33 54.91 312.47 56.03 311.44 55.24 310.36 55.07 309.28 55.21 308.01 58.68 307.65 60.31 308.09 60.89 308.45 62.19 308.63 63.24 308.31 64.22 306.79 67.21 306.03 67.85 305.41 70.8 305.9 71.47 306.29 72.35 304.89 73.35 304.38 74.29 300.7 75.25 299.35 77.34 297.77 77.82 296.9 78.58 297.13 81.9 298.65 84.64 298.79 85.03 297.77 87.24 297.58 89.2 296.27 90.28 296.33 92.25 294.94 93.06 294.64 94.2 295.36 95.26 294.81 95.87 294.11 96.35 292.25 97.66 291.47 98.53 290.07 98.64 289.3 99.29 288.96 100.56 286.93 101.17 286.39 103.3 285.49 104.28 284.71 105.79 284.01 106.34 284.35 108.53 284.15 109.39 286.2 111.6 287.7 113.1 287.24 115.99 287.44 117.72 287.84 119.48 287.36 120.1 287.63 120.52 288.57 121.1 288.9 121.29 290 121.93 290.58 122.83 292.07 124.38 292.77 124.95 293.46 125.71 293.64 127.78 295.38 128.63 295.71 129.88 296.6 131.24 298.14 132.46 298.53 132.99 300.14 134.24 302.36 134.99 302.87 135.24 303.78 135.19 306.19 138 307.22 139.65 308.49 141.51 309.63 142.03 309.08 143.88 308.85 144.62 309.28 146.29 308.9 149.16 310.43 150.31 309.6 150.95 310.95 152.44 311.95 152.85 313.47 153.63 314.52 154.85 314.64 155.97 315.08 156.94 316.67 158.42 317.13 159.22 318.5 160.04 318.37 161.25 317.44 163.37 316.96 163.67 314.86 164.86 314.17 166.14 313.78 168.72 311.25 169.95 310.79 170.5 311.48 171.74 312.17 173.28 312.37 175.22 311.07 176.5 309.85 177.12 308.85 178.06 308.11 179.24 308.27 180.76 306.53 181.74 305.89 182.17 304.99 183.46 303.64 184.07 303.34 184.37 302.02 184.96 301.13 184.91 300.39 186.65 299.23 187.62 299.46 188.34 298.88 190.57 296.32 191.37 296.4 191.83 295.79 192.08 294.46 192.58 293.33 194.06 291.25 194.37 288.57 194.86 287.5 194.48 285.81 194.83 284.47 194.35 282.76 194.36 281.49 195.15 280.59 196.34 278.27 197.36 277.61 198.73 278.38 201.37 278.08 202.46 277.25 204.12 275.06 205.93 273.08 205.53 272.28 206.14 269.83 206.7 268.55 207.72 267.88 208.2 265.83 208.63 265.08 208.62 263.78 210.75 263.68 211.59 263.37 212.86 264.59 214.82 265.13 217.57 265.52 218.82 266.15 220.4 266.29 221.96 265.85 222.69 266.09 224.19 265.32 225.47 265.79 226.9 266.01 228.15 263.66 228.48 262.31 229.11 261.43 231.69 260.94 234.22 261.37 236.27 260.81 237.06 259.68 238.02 259.34 239.17 258.08 241.12 256.43 242.7 256.07 244.05 255.5 246.73 254.99 248.06 255.31 250.15 256.09 251.55 256.23 252.67 257.35 253.52 257.42 255.15 257.95 257.53 257.79 258.74 258.37 259.33 258.94 260.11 258.8 263.16 259.44 263.92 259.3 265.54 257.59 266.43 257.08 268.39 256.75 269.41 256.76 270.93 257.39 272.55 257.68 274.66 257.44 275.16 256.82 277.37 256.05 278.15 255.56 278.5 256.28 281.33 255.91 282.67 256.74 284.09 255.51 286.28 255.07 287.55 255.73 288.48 257.02 290.99 258.4 292.3 258.9 296.2 259.9 297.26 261.49 298.95 261.72 299.42 262.74 300.69 262.93 302.66 264.8 304.53 265.38 306.46 264.81 308.24 264.78 309.77 266.11 311.08 268.78 311.38 268.82 313.09 267.07 312.64 265.42 311.67 264.69 311.65 263.65 310.23 262.29 308.87 261.86 306.44 259.76 305.99 258.52 304.69 258.69 303.95 257.33 302.68 257.04 301.8 255.85 300.64 255.56 300.32 254.46 301.45 252.57 301.4 250.36 300.59 249.27 301.16 244.49 300.67 243.46 300.84 242.23 300.59 240.9 298.98 239.18 297.19 236.18 298.32 231.19 297.54 230.61 296.2 230.22 293.94 230.12 293.85 229.48 292.51 226.83 291.81 224.1 292.3 221.58 293.43 221.69 296.17 220.08 297.76 216.24 297.68 215.6 298.33 214.19 298.75 211.9 300.31 207.72 300 206.79 299.38 206.23 297.91 203.18 297.39 202.84 295.95 200.36 295.04 199.73 295.71 195.62 293.87 193.38 291.59 190.14 291.03 189.12 289.24 188 287.01 187.88 285.77 186.53 285.76 185.24 284.75 184.15 286.01 183.03 288.06 180.88 290.76 180.03 291.88 178.79 293.89 177.29 295.27 176.84 296.13 175.78 297.68 173.27 298.23 172 299.03 169.1 299.7 168.28 301.06 167.56 301.51 166.87 303.78 166.38 304.88 165.81 304.57 164.64 305.31 162.83 306.35 161.38 307.32 159.06 309.09 157.71 312.33 156.19 313.5 155.94 314.2 154.88 314.71 153 315.63 151.47 316.26 149.64 319.06 148.2 319.59 146.14 319.38 145.34 319.81 144.12 320.85 143.16 321.89 141.51 322.48 140.02 324.19 137.25 324.3 135.9 325.34 134.58 327.05 131.69 327.78 131.46 329.17 129.75 329.56 128.51 332.25 127.1 334.09 126.58 334.88 126.02 337.58 126.77 339.06 124.77 341.49 123.73 341.35 122.07 341.52 120.44 343.93 119.49 344.77 118.42 347.4 117.55 347.82 116.8 348.85 116.14 351.11 116.31 353.13 115.43 355.36 114.88 357.01 113.63 359.25 113.25 361.62 113.15 362.26 112.71 362.94 111.62 363.97 110.58 364.06 108.76 364.46 107.7 365.97 105.55 367.02 104.38 367.62 102.97 368.95 102.35 370.28 101.33 369.66 99.61 368.61 97.9 368.04 97.52 368.55 95.8 368.04 93.38 369.13 92.62 370.59 90.98 370.23 89.43 369.34 87.91 369.02 86.62 371.01 84.17 371.45 82.98 371.22 80.76 371.84 79.42 371.66 78.28 373.15 76.72 374.58 76.47 376.01 76.51 378 75.98 379.03 75.24 381.41 74.15 382.25 72.74 383.72 74.07 385.24 75.04 385.75 76.3 387.75 76.13 389.48 76.94 390.89 77.03 391.03 77.87 392.64 78.47 394.76 77.6 396.28 76.32 397.68 76.16 399.18 75.51 400.92 77.46 401.86 77.86 403.46 79.4 404.2 79.37 405.65 80.21 406.55 80.1 407.41 80.47 409.17 80.44 410.78 81.01 413.31 82.3 414.58 81.22 415.04 82.14 417.28 82.09 417.81 78.4 417.56 77.4 418.16 75.61 417.43 74.28 418.02 72.99 418.36 71.01 418.15 70.05 418.18 67.63 419.66 66.11 420.6 64.4 421.59 63.85 422.66 62.2 422.66 59.71 423.02 58.53 422.89 57.46 423.33 57.19 424.91 57.57 425.91 58.16 428.28 56.09 429.01 54.27 429.3 52.07 431.5 49.7 433.03 48.9 434.53 47.91 435.91 48.46 437.21 48.51 439.07 49.15 443.5 48.33 444.33 48.4 446.97 46.13 448.32 44.31 448.09 43.44 448.63 42.76 448.68 41.69 448.29 40.07 448.31 39.23 449.76 37.87 452.39 39.38 454.97 39.87 455.99 39.39 455.93 38.23 457.12 37.48 458.72 37.33 459.1 36.44 459.99 35.96 462.07 35.77 463.63 34.13 463.46 33.6 464.43 32.09 464.42 30.57 463.89 29.64 464.47 28.82 466.21 28.55 466.75 28.8 468.6 26.33 468.45 24.34 471.12 22.78 470.79 20.39 471.08 18.53 472.22 16.62 472.36 15.64 473.07 14.04 474.53 12.75 478.92 12.96 480.52 13.43 482.16 14.42 482.97 15.6 483.94 15.61 485.82 16.83 486.62 16.85 488.42 16.44 489.61 16.67 491.01 16.19 491.92 12.7 492.53 11.54 493.49 11.39 497.16 12.95 498.87 10.68 500.79 9.26 501.29 8.06 501.32 6.63 501.91 4.98 501.93 2.9 502.85 1 503.33 1.54 503.81 4.62 505.88 6.34 507.03 5.02 508.29 5.34 509.35 5.1 511.2 3.95 512.3 2.9 512.84 2.72 515.67 3.34 517.18 2.23 519.09 1.53 521.53 1.45 521.42 4.43 522.86 3.98 523.06 3.34 524.34 1.94 524.77 1.76 526.29 2.16 527.35 1.66 529.66 1.94 531.07 2.8 531.61 2.57 532.79 2.92 535.1 4.32 535.82 4.97 537.45 4.88 538.01 4.51 538.82 4.71 539.53 3.99 540.53 3.97 541.21 4.61 544.15 4.4 544.98 4.81 546.79 4.52 548.23 2.46 549.43 1.86 Z" fill-rule="evenodd" id="37620000"/>
</g>
</svg>