<?xml version="1.0"?>
<svg xmlns="http://www.w3.org/2000/svg" version="1.2" baseProfile="tiny" width="800" height="609" viewBox="0 0 800 609" stroke-linecap="round" stroke-linejoin="round">
<g id="sigung">
<path d="M 640.97 188.28 643.43 188.62 645.26 189.16 646.53 189.38 647.28 189.79 648.3 190.82 650.44 191.63 651.75 192.6 652.41 193.5 654.11 195.37 655.51 196.32 659.9 198.37 661.54 199.83 664.87 198.93 665.71 198.86 666.48 198.49 666.84 197.92 666.99 196.81 668.32 196.37 670.71 196.09 671.65 196.35 673.45 195.86 674.07 196.7 674.9 196.79 675.93 197.98 676.88 198.48 677.77 199.44 679.38 200.91 680.73 201.57 681.96 202.96 681.73 204.17 681.32 205.12 681.64 206.11 680.06 209.6 679.46 210.08 678.15 210.42 677.81 211.02 677.34 213.02 676.61 214.51 675.36 215.88 674.47 216.68 674.22 217.36 674.6 218.78 674.12 221.45 676.07 221.87 677.27 222.46 677.88 222.57 678.85 223.53 679.88 223.85 680.31 225.06 680.1 225.79 680.19 227.28 680.48 228.06 682.58 227.75 683.51 227.44 684.01 227.56 686.09 227.04 687.37 226.2 688.59 227.24 689.08 228.1 690.44 228.55 690.69 229.92 692.08 232.94 692.17 233.38 694.36 234.63 695.24 235.65 696.31 237.68 697.83 243.17 698.2 244.26 697.73 244.99 697.54 246.18 696.78 247.68 695.38 251.28 694.97 252.18 695.21 252.78 694.72 254.31 694.56 255.32 695.42 257.25 696.82 259.57 697.3 260.19 699.63 259.9 700.48 260.05 701.39 259.72 704.67 258.87 706.07 258.9 707.92 259.3 709.06 259.24 709.52 259.43 710.2 258.96 710.55 258.08 711.88 257.55 714.02 258.66 715.34 259.64 716.16 261.02 717.01 261.74 718.41 261.72 718.83 262.51 718.72 264.01 719.38 264.93 719.76 266.13 720.54 266.55 720.87 267.83 721.45 269.07 721.62 270.63 721.92 271.65 721.22 273.11 722.19 275.46 722.85 276.53 724.36 276.67 725.45 278.08 727.53 280.09 728.77 280.38 729.18 281.2 729.35 282.52 730.01 283.43 729.66 284.28 730.09 285.56 730.01 285.94 730.92 287.73 731.85 288.12 732.29 288.8 733 289.35 734.8 289.62 735.4 288.86 736.69 289.25 738.35 289.14 740.46 287.98 742.07 288.09 743.5 287.97 745.58 286.16 748.62 285.11 751.85 287.4 753.57 287.56 754.58 286.91 755.87 286.85 759.46 286.02 761.54 285.71 762.71 285.7 763.81 285.01 765.64 285 767.03 282.95 767.65 282.36 768.67 282.73 773.15 283.42 774.63 284.34 774.73 286.02 775.68 286.63 777.76 286.92 779.39 288.49 780.25 288.95 781.56 290.87 782.95 294.04 782.71 294.67 782.8 295.51 785.07 300.21 786.87 301.05 787.25 301.77 788.05 304.21 789.53 304.86 790.96 305.81 792.2 306.43 793.66 309.24 794.67 309.93 795.12 312.36 794.69 312.98 797.31 313.99 798.17 316.52 798.59 319.1 799 320.05 798.99 320.68 798.3 322.37 797.75 323.23 796.91 326.7 796.73 328.85 797.64 331.17 797.59 332.25 797.91 334.3 797.39 336.13 796.74 337.39 795.96 339.7 795.69 341.16 794.72 343.67 793.02 345.31 793.56 346.81 793.51 348.27 793.77 349.59 793.64 350.02 793.93 351.1 793.95 353.26 794.3 353.89 794 355.42 794.22 356.12 794.09 357.8 794.65 359.1 794.22 360.93 793.48 362.4 792.26 363.76 791.26 365.58 791.51 366.9 790.81 369 789.45 370.99 789.62 372.83 789.58 373.94 789.79 375.37 789.31 376.13 788.28 376.75 788.4 377.92 788.13 378.95 788.46 379.92 789.78 381.67 790.29 383.53 789.88 384.62 788.71 385.64 787.81 387.03 788.03 387.93 787.06 389.18 788.25 390.91 788.53 391.99 788.6 393.47 788.96 394.08 789.02 396.67 788.74 397.13 789.23 398.24 790.09 399.28 789.56 400.37 789.58 401.95 789.27 402.45 787.95 402.95 786.83 404.67 785.2 406.64 785.19 408.13 784.34 409.33 784.2 410.06 784.72 410.93 784.78 411.88 786.3 412.19 787.99 413.94 788.72 416.57 788.84 417.47 789.76 419.67 790.15 420.13 792.18 420.76 792.45 421.76 791.9 422.43 791.49 423.45 788.57 423.55 787.41 423.05 786.33 423.41 784.55 424.5 783.67 424.83 782.83 426.06 781.59 427.3 781.83 430.3 779.44 431.46 778.32 432.66 778.47 433.43 777.41 434.24 773.93 435.99 773.86 436.94 771.75 439.18 770.69 440.87 767.35 442.85 767.52 444.51 768.34 446.19 767.68 450.38 764.21 450.23 762.46 450.41 761.08 450.08 759.14 450.36 756.7 451.13 754.2 450.58 751.26 448.92 748.26 450.35 747.02 451.54 746.76 452.25 745.04 454.12 744.91 454.49 743.83 455.71 741.94 455.79 740.5 455.61 737.13 456.76 735.91 457.05 734.23 457.1 733.98 454.93 733.22 453.66 732.43 453.16 731.19 452.02 730.8 451.43 728.86 450.16 727.33 448.24 727.02 446.73 725.01 445.37 722.5 447.3 721.58 447.73 719.87 447.12 718.67 446.56 717.22 446.8 715.49 446.56 714.21 446.09 712.21 447.54 711.62 449.37 710.66 451.02 708.62 452.47 707.3 452.83 705.88 452.98 705.57 453.5 704.07 454.06 702.95 455.12 702.02 455.29 699.85 454.86 698.08 455.59 696.57 454.57 695.64 452.22 694.18 451.34 693.51 451.88 691.7 452.67 689.76 453.89 688.77 454.11 687.56 454.62 687.04 454.49 686.8 453.63 685.87 453.03 685.25 452.32 684.12 451.74 682.74 449.93 681.46 449.44 679.65 447.93 676.41 446.6 675.18 445.34 673.41 444.38 671.47 444.06 669.42 443.01 668.09 443.35 666.52 443.39 665.39 444.34 664.05 444.89 662.33 444.16 661.35 444.08 660.19 444.43 658.94 443.25 657.59 442.57 655.76 443.09 652.47 441.84 651.41 442.67 649.59 443.13 648.86 442.66 646.49 441.71 644.85 441.74 643.71 441.19 641.31 442.57 640.28 442.48 639.86 442.85 637.8 443.12 636.83 442.7 636.03 444.03 635.74 445.27 635.14 446.47 634.02 447.36 633.47 447.16 632.56 447.78 632.58 448.34 632.15 449.07 631.23 449.79 630.35 449.91 628.97 450.51 628.08 451.46 626.9 452.17 625.44 451.55 624.45 451.35 621.76 449.85 618.67 449.52 618.08 449.92 616.58 450.54 615.66 452.1 614.43 453.09 612.21 451.81 610.53 450.61 609.87 449.82 608.7 450.27 608.08 450.83 606.98 451.07 605.8 451.07 604.11 450.74 602.65 450.88 599.84 450.1 599.75 451.43 599.93 452.86 600.5 454.37 598.97 455.37 596.84 455.34 596.08 455.64 595.11 454.82 594.68 454.83 593.16 456.66 592.43 457.92 592.1 459.66 590.75 460.43 590.82 461.8 591.32 462.83 591.01 463.6 591.06 465.32 589.59 465.37 588.73 466.3 587.58 466.7 586.19 466.57 585.61 467.85 584.45 469.06 583.07 468.61 581.71 469.02 579.92 470.77 579.52 470.93 579.36 471.74 578.82 472.96 578.04 474 576.37 473.28 575.09 472.93 574.93 471.58 574.4 471.21 572.53 472.43 570.62 472.43 569.22 473.42 568.61 476.23 568.33 476.69 567.9 479.16 567.7 479.6 566.99 479.47 566.01 480.1 564.47 480.04 562.44 480.2 561.36 480.61 560.58 479.47 559.66 479.53 558.78 478.52 555.62 479.59 554.2 477.87 551.65 478.01 551.31 478.77 550.53 479.33 549.85 479.37 547.44 478.87 546.17 478.1 545.03 478.42 544.64 479.01 543.94 479.31 542.24 479.29 540.93 478.48 539.69 476.88 537.35 478.1 537.12 479.58 537.22 481.01 537.68 483.38 537.37 483.82 536.33 484.39 534.89 484.4 533.63 485.44 532.67 485.53 530.94 487.72 529.73 488.67 528.19 488.78 526.73 489.24 526.87 490.84 526.33 492.05 525.86 493.55 525.49 495.93 524.81 496.53 523.95 496.63 521.66 496.01 521.06 497.06 520.31 497.98 520.4 499.24 519.21 501.08 521.52 501.94 522.69 503.62 522.99 505.16 523.05 507.31 523.54 507.93 522.01 509.12 520.93 512.4 520.44 514.33 519.36 515.97 518.29 516.87 517.02 517.39 514.63 516.91 512.02 515.64 508.38 513.12 507.12 510.63 505.73 511.25 506.2 514.2 505.42 515.86 504.44 517.4 503.64 520.23 503 521.66 502.32 523.52 502.14 525.15 502.2 526.35 501.94 528.27 501.84 530.12 501.87 531.89 501.07 532.24 501.37 532.87 501.89 532.7 501.97 534.55 502.56 536.35 502.55 537.16 503.09 537.74 502.99 538.75 502.47 540.32 502.95 545.54 503.6 547.58 503.72 548.41 504.48 550.36 505.3 551.94 506.04 553.83 507.51 555.83 508.61 556.1 510.53 555.64 513.83 555.53 517.86 555.53 519.94 555.45 524.15 556.11 525.65 555.72 527.74 555.48 529.35 555.63 529.95 556.06 531.68 556.13 532.23 555.64 533.68 556.23 535.55 556.43 537.28 556.81 538.95 557.38 540.34 557.65 540.72 558.41 540.95 560.27 540.89 562.26 540.23 563.18 536.54 565.87 536.32 565.27 535.67 564.6 534.7 564.83 534.29 565.25 532.41 566.38 530.41 567.07 529.13 568.23 528.11 568.37 527.43 569.44 526.34 570.3 524.92 570.75 524.35 571.97 522.87 573.71 522.07 574.45 521.05 575.79 519.59 576.64 518.26 576.92 517.77 578.58 516.47 579.23 515.96 580.16 514.89 581.04 514.6 581.89 513.85 582.6 513.64 584.53 512.92 585.62 512.18 586.25 513.03 588 512.44 588.96 511.88 589.09 510.97 589.73 510.71 590.63 510.12 591.57 510.19 592.8 509.55 593.82 509.07 595.12 508.79 595.35 508.81 596.32 507.31 598.8 506.56 601.42 505.19 602.82 504.22 603.35 502.66 603.95 502.2 605.07 500.96 606.33 499.48 606.66 498.27 607.82 497.11 608 495.82 607.18 494.55 606.92 492.82 605.77 492.2 605.68 491.1 604.59 489.39 603.89 488.71 603.41 486.62 602.81 485.71 602.94 485.34 604.13 484.46 605.03 482.8 604.95 482.14 605.48 481.26 605.44 477.29 606.15 476.16 604.89 476.73 603.29 475.14 599.71 474.52 599.17 473.58 597.18 472.58 595.36 471.63 594.2 470.3 593.31 468.69 591.73 468.07 589.54 466.93 588.18 466.01 585.44 464.61 583.68 464.56 582.64 463.05 581.08 462.03 580.31 461.16 579.33 460.33 577.55 459.02 577.39 457.68 576.76 456.2 577.86 454.99 578.92 453.26 579.13 452.68 578.32 449.73 578.47 449.27 576.62 448.83 575.45 448.49 573.7 447.54 570.62 446.76 568.45 445.39 567.49 445.16 566.31 444.75 565.44 444.18 565.13 444.07 564.22 442.81 561.17 437.45 559.69 437.27 558.65 436.69 557.05 435.97 554.64 437.15 554.27 439.78 551.12 441.59 549.43 442.36 547.65 443.96 548.29 447.73 548.72 449.64 549.01 450.56 548.15 452.23 547.56 454.58 548.2 455.57 548.16 457.05 548.62 457.88 549.29 459.96 549.91 460.55 549.87 462.33 548.72 462.99 548.02 463.41 546.61 463.94 546.17 465.59 545.52 465.85 544.08 468.53 543.36 471.38 541.74 470.07 540.33 468.68 537.97 470.01 536.99 469.83 536.01 469.97 534.58 469.84 534.21 470.15 531.57 471.19 530.87 472.38 529.68 472.81 527.57 472.31 526.79 472.56 525.12 473.24 524.12 473.19 523.76 474.28 521.68 474.47 520.6 475.65 518.39 474.67 517.09 472.97 516.45 471.99 514.85 469.84 516.02 467.27 516.14 466.22 515.31 464.13 512.47 462.86 510.56 461.68 508.2 461.04 507.62 459.93 505.84 459.43 506.36 457.83 507.01 456.35 508.03 454.9 508.37 453.48 507.57 452.5 505.95 452.4 503.7 451.97 501.66 452.15 500.91 450.73 499.14 449.42 496.41 447.19 495.27 446.94 494.95 448 493.34 447.76 491.39 446.39 490.67 445.75 489.08 444.82 488.34 444.5 487.66 442.78 486.75 441.93 485.82 440.86 485.46 439.87 484.29 438.55 483.35 436.78 482.69 434.13 480.12 432.28 479.36 431.47 479.16 430.87 478.73 428.22 478.42 427.89 477.82 426.96 477.24 424.94 476.94 423.55 476.62 422.62 476.99 420.28 477.22 419.69 478.06 419.07 478.55 415.91 477.16 414.37 476.11 413.85 474.59 412.63 475.09 410.16 475.35 408.84 474.82 408.33 474.92 408.08 475.95 407.49 476.98 406.54 477.06 405.45 477.4 405.17 477.91 402.91 479.9 402.16 480.22 401.39 479.85 401.1 478.59 400.04 477.51 397.69 476.66 397.15 476.81 393.79 479.48 393 479.93 391.09 481.48 389.67 482.16 387.26 481.16 386.13 480.97 385.55 481.31 384.74 482.68 384.07 485.13 383.94 486.22 383.12 487.84 380.78 490.6 378.81 492.58 377.45 493.4 375.14 493.59 374.73 494.14 374.86 495.54 374.67 496.06 373.01 497.5 372.01 497.89 370.74 499.03 370.26 499.19 368.74 499.08 367.35 498.39 366.38 498.14 363.23 498.25 360.35 497.87 359.3 497.46 357.68 497.1 354.83 496.83 353.16 496.93 352.25 497.36 351.94 498.05 351.68 499.76 351.18 500.45 349.47 501.58 347.89 502.25 345.77 502.72 345.05 503.21 343.8 504.56 343.36 505.42 343.39 506.23 343.93 507.32 343.28 507.92 341.63 508.36 340.71 507.74 340.06 506.27 340.88 505.95 339.95 504.51 340.7 503.82 340.59 503.06 340.14 502.53 338.83 502.55 337.89 501.73 338.01 501.19 338.93 500.02 339.24 498.44 339.35 496.62 339.79 495.6 341.35 495.25 341.97 494.92 341.97 492.91 341.68 492.27 342.29 491.51 341.34 489.75 340.6 489.06 340.76 488.41 341.71 487.55 341.4 485.58 340.69 484.24 340.6 481.94 340.92 480.77 340.57 479.97 340.63 477.95 339.75 477.19 338.84 475.59 335.91 472.97 333.82 472.22 331.02 472.03 330.02 471.47 327.03 470.83 324.6 469.81 324.43 467.74 322.71 466.19 321.06 466.17 318.88 465.14 318.6 464.85 316.66 464.16 314.97 463.72 313.64 462.57 312.68 460.74 312.36 459.67 312.87 458.4 311.04 457.4 310 456.04 308.68 455.87 306.31 453.52 302.01 452.68 299.44 454.8 296.54 454.39 295.76 454.43 294.64 455.1 293.17 454.71 290.21 455.09 289.54 454.58 288.17 455.22 287.21 455.06 286.34 455.43 283.54 454.69 282.7 454.87 282.32 454.06 281.44 451.07 280.04 450.84 279.15 450.51 278.77 449.45 278.16 448.88 277.18 449.26 276.27 448.87 275.03 449.02 273.54 448.29 273.04 447.5 272.09 448.75 270.29 450.71 270.12 451.4 269.18 453.26 268.12 454.94 268.16 455.93 269.49 457.18 270 458.22 270.23 459.59 270 461.48 267.57 464.16 266.43 465.65 265.14 466.01 263.76 466.63 263.29 467.78 262.21 468.75 260.66 469.5 259.35 468.3 258.22 467.75 256.8 467.98 253.95 470.02 252.56 470.76 251.5 471.05 250.97 471.44 249.78 470.01 246.02 468.02 245.18 469.27 244.33 469.03 242.97 468.99 242.57 468.73 240.84 468.28 240.09 467.77 235.81 465.27 234.01 466.92 232.13 466.8 231.07 467.08 229.49 468.54 229.28 469.52 229.38 470.57 229.83 472.56 229.65 473.9 228.15 475.68 226.75 476.71 226.03 476.97 224.47 476.54 224.1 476.59 222.74 475.92 221.74 476.04 221.38 475.59 221.51 474.63 220.97 473.72 218.7 474.45 217.64 474.06 216.98 474.72 215.98 474.91 214.44 475.72 213.29 476.62 212.87 477.48 211.95 477.99 210.67 479.21 210.16 480.01 207.66 481.08 206.97 482.27 205.73 483.29 205.16 484.51 204.6 484.92 203.49 485.28 203.84 483.87 203.73 483.12 202.9 482.91 201.88 483.95 200.22 484.66 197.89 483 197.37 482.5 195.19 482.96 193.63 483.16 194.17 482.39 194.4 481.36 193.26 479.53 192.93 478.69 191.34 477 190.87 476.27 190.74 474.76 191.4 473.47 191.31 471.59 191.63 470.67 191.37 469.76 191.71 469.44 191.75 468.04 190.58 467.55 189.26 465.43 189.24 465 188.2 464.18 189.95 463.17 191.34 460.86 191.73 458.24 192.72 456.84 192.92 455.2 193.36 454.53 193.37 453.72 193.76 452.65 192.96 450.38 193.09 449.76 193.85 448.83 194 448.01 193.99 445.8 194.1 444.02 193.22 442.39 191.3 440.17 190.55 439.61 186.36 438.28 187.6 436.44 188.7 435.91 189.33 434 188.96 432.25 187.84 430.38 186.68 429.8 186.31 429.39 187.55 428.94 187.95 428.05 187.9 427.5 187.12 426.9 186.83 426.33 185.15 424.45 184.38 423.94 184.46 423.27 183.32 421.04 185.55 419.33 187.48 418.03 187.22 413.32 186.72 412.5 186.67 411.02 187.19 410.32 187.17 408.98 184.21 405.7 183.99 404.95 186.06 400 185.21 400.44 184.73 399.76 183.77 399.79 181.58 399.42 176.73 397.8 174.36 397.41 172.48 397.28 169.81 396.55 167.39 396.35 166.03 396.43 163.61 396.84 161.28 397.41 159.77 397.6 158.66 397.92 157.55 397.92 157.4 396.41 157 394.52 156.28 392.71 155.58 392.25 154.93 392.43 153.68 393.28 152.94 393.55 151.94 394.27 150.73 394.24 149.61 395.12 148.41 395.84 146.66 395.72 145.44 395.39 144.45 396.42 143.55 397.82 142.04 398.5 140.65 396.67 139.47 395.99 138.06 395.44 137.72 394.35 136.44 393.78 132.89 397.12 133.72 399.66 133.29 401.84 130.47 403.37 130.5 404.5 129.47 405.07 128.74 407.31 128.49 409.1 127.77 409.21 127.08 410.4 125.2 410.06 127.72 406.36 128.16 404.53 128.38 402.7 128.33 401.26 127.85 400.13 126.69 399.14 125.11 397.2 123.99 396.35 123.4 396.21 119.95 396.33 118.68 396.05 119.15 397.61 115.61 397.77 113.48 399.4 113.74 399.79 112.56 400.91 111.8 402.06 112.09 403.12 111.71 403.74 109.43 404.78 107.87 406.36 107.15 407.58 105.65 407.34 105.14 406.84 104 406.38 102.3 406.18 101.11 405.58 99.97 406.06 99.21 405.91 98.12 405.27 97.4 405.5 96.21 405.34 94.69 405.44 94.17 406.13 93.12 406.23 92.66 407.16 91.99 407.76 89.71 407.67 89.23 407.35 86.55 406.6 85.56 403.93 86.12 401.77 85.57 399.55 85.32 396.49 84.7 394.22 84.01 387.23 84.79 385.44 85.43 383.27 86.43 381.65 87.37 379.57 84.97 376.08 83.28 374.41 82.03 372.62 78.14 368.1 72.86 365.17 69.15 360.79 68.63 359.69 68.57 358.92 67.05 357.8 63.59 354.74 60.15 353.9 54.41 351.57 50.97 351.57 49.81 350.41 47.05 347.19 41.87 347.12 38.57 344 35.55 342.92 32.1 338.96 28.93 335.7 26.22 332.35 25.21 331.8 19.14 324.62 16.92 323.23 13.06 317.45 11.6 313.92 11.12 312.46 12.27 306.64 12.68 303.81 13.08 302.99 13.46 299.74 12.34 295.35 9.93 292.51 7.82 289.38 5.31 287.39 4.02 285.33 1.27 278.09 1 274.04 1.63 270.79 3.72 263.45 4.45 259.47 4.22 255.68 4.68 256.13 5.01 257.76 5.62 258.8 6.59 258.51 7.49 256.41 7.94 256.21 8.4 258.64 9.72 259.1 11.27 258.12 11.8 258.55 12.56 258.62 13.55 258.28 14.91 257.49 16.6 256.13 18 255.58 19.25 256.03 19.84 255.76 20.23 257.59 21.37 258.86 22.05 259.11 23.67 260.11 24.17 260.99 24.48 262.37 27.72 264.55 30.36 265.44 31.21 265.13 32.06 264.52 33.13 263.23 34.87 263.66 35.53 263.49 36.72 262.47 37.14 261.11 38.17 260.09 37.75 259.7 37.82 258.57 38.22 256.35 39.25 255.41 38.74 252.91 38.91 251.33 38.17 250.5 38.27 249.44 38.75 248.23 38.83 246.66 38.46 244.73 38.76 243.39 39.46 242.3 39.7 241.39 39.49 240.79 40.24 239.67 40.22 238.62 39.85 237.78 39.96 236.89 40.68 235.09 39.26 232.53 40.05 231.56 39.6 229.55 40.66 228.63 40.8 228.01 42.23 224.85 43 224.26 43.25 223.54 42.41 221.92 42.5 221.24 43.42 220.67 45.16 219.88 46.05 218.96 47.11 215.73 47.89 215.37 48.28 213.41 49.8 213.23 50.54 214.07 51.12 212.59 51.08 211.97 52.57 211.68 52.3 210.36 52.68 207.38 53.85 205.8 55.29 205.02 57.05 205.35 58.6 204.9 59.11 206.88 59.26 209.23 60.03 209.98 60.65 210.92 61.63 211.14 63.02 210.91 64.62 210.03 68.22 208.94 69.91 208.96 70.89 208.54 72.14 208.67 73.45 208.24 74.41 208.21 76.25 208.68 77.16 208.76 78.19 209.28 81.31 211.41 83.72 210.49 84.18 210.76 84.29 211.49 85.02 212.26 85.13 213.36 88.95 214.32 89.83 215.09 91.33 217.95 91.09 218.6 92.28 218.99 93.43 218.7 95.24 219.19 97 220.89 98.5 223.2 99.54 226.17 101.71 226.19 103.89 226.06 107.34 224.95 109.11 224.22 112.42 222.37 114.75 220.73 116.11 220.48 123.86 217.82 127.61 217.4 129.97 216.36 131.49 216.06 132.26 215.38 135.13 211.78 136.01 207.33 136.28 206.28 137.19 206.34 139.08 208.68 140.34 206.54 139.75 205.4 139.88 204.96 139.57 203.82 139.84 202.94 139.73 201.61 140.08 200.18 139.79 199.13 140.06 197.99 140.09 196.93 140.56 196.18 139.91 194.79 139.9 193.2 140.45 190.58 141.24 189.98 140.97 187.54 141.23 186.16 141.78 185.04 141.45 184.56 141.71 181.34 141.25 180.91 141.39 179.39 141.08 178.56 140.83 177.03 141.5 176 141.45 174.07 141.3 173.4 141.95 171.84 141.54 170.44 142.25 168.37 144.21 167.86 145.88 167.77 147.12 167.45 148.73 168.18 149.6 167.22 150.22 166.98 151.77 166.78 152.87 167.81 153.78 167.66 154.49 167.29 156.48 166.78 157.74 167.22 158.49 166.5 158.66 165.68 159.39 164.22 159.3 162.9 161.78 160.89 162.16 158.81 161.99 157.69 162.96 156.78 163.26 153.82 162.86 152.46 162.18 151.15 161.26 149.8 160.86 148.84 160.74 145.65 159.89 144.31 160.39 142.15 160.98 140.96 161.76 140.22 161.45 138.55 162.3 136.56 162.98 133.99 166.05 135.69 168.46 135 169.11 135.71 169.48 135.11 171.99 135.42 174.92 136.68 175.93 136.39 177.85 137.31 179.15 136.66 178.97 135.73 179.15 133.99 180.08 133.23 181.01 132.78 181.31 131.86 181.99 131.33 182.46 130.53 184.55 128.74 184.94 127.03 186.06 126.59 187.1 126.82 188.18 126.78 189.31 125.62 190.31 124.85 190.88 123.5 192.2 121.5 192.81 121.18 193.04 119.57 193.99 115.92 195.42 112.41 196.59 111.44 197.84 111.2 198.2 110.88 199.66 111.11 200.81 110.61 201.96 110.73 203.07 109.97 204.52 110.11 205.25 109.91 206.58 109.02 207.78 107.82 208.17 105.5 209.62 102.98 210.63 100.71 212.19 101.24 213.82 100.63 216.69 101.36 217.11 99.96 217.96 99.4 218.65 97.91 219.79 97.86 220.85 96.88 221.9 96.84 223 96.52 225.96 96.33 226.74 95.54 228.63 95.56 231.74 94.47 233.8 93.56 235.48 93.56 237.24 92.78 238.49 91.86 240.85 91.9 242.75 90.87 244.22 92.8 245.5 93.67 249.57 95.73 251.03 96.84 252.64 98.31 254.1 98.78 255.46 98.42 256.35 97.55 257.38 96.94 259.54 94.44 260.53 94.12 261.43 93.3 262.34 91.64 263.73 90.6 265.82 90.27 267.02 88.68 267.34 87.98 267.22 86.69 268.3 85.51 272 80.69 271.9 79.19 271.33 78.47 270.39 74.19 269.9 71.44 269.63 68.61 269.47 63.94 269.75 62.9 270.79 60.66 271.38 59.01 272.59 56.72 273.97 55.16 275.46 52.92 276.98 51.28 277.95 49.49 278.46 48.87 278.79 47.48 280.02 44.39 280.57 42.06 281.31 41.16 281.97 38.32 286.03 38.47 288.38 38.45 290.49 39.07 291.37 38.59 292.88 38.43 294.75 38.8 296.26 40.47 297.22 40.29 297.91 40.53 299.09 40.45 301.49 39.75 302.07 39.19 303.11 39.34 304.67 39.33 305.82 39.03 307.65 37.7 308.73 36.14 307.97 33.4 309.05 33.24 310.19 32.76 311.44 32.77 312.92 32.13 314.19 32.27 315.47 31.68 318.15 30.9 318.87 31.41 320.27 32.71 322.34 32.98 324.24 31.66 326.05 31.72 326.26 32.8 327.72 32.89 329.19 32.59 330.37 32.6 333.93 33.44 335.19 33.3 336.37 32.9 337.69 32.96 338.82 34.1 340.69 34.46 342.91 34.57 344.58 34.94 346.3 34.67 348.93 34.97 350.58 34.52 353.25 34.62 354.05 33.87 355.15 35.63 355.71 38 357.31 38.65 358.82 39.61 359.86 39.56 360.91 39.83 361.36 41.31 362.87 41.03 364.41 42.91 365.18 44.26 366.57 43.19 367.38 43.18 369.23 41.83 370.11 42.01 371 41.17 373.12 42.03 375.03 42.17 375.48 43.39 376.55 44.43 378.55 43.03 380.54 42.45 382.49 42.17 382.94 41.02 383.94 39.49 385.12 39.12 387.31 39.4 387.96 38.78 390.16 38.41 390.81 38.06 391.35 37.32 392.31 36.77 392.99 35.77 393.82 35.41 394.21 34.73 395.61 33.07 397.29 32.79 399.49 31.34 400.03 31.22 400.63 30.27 403.5 28.5 404.52 27.21 405.47 25.05 405.34 23.78 405.67 22.94 405.84 21.52 407.55 20.81 408.99 20 412 19.61 413.8 18.94 414.47 16.92 417.51 13.18 418.98 12.67 420.51 11.03 421.4 11.17 422.24 10.69 422.79 9.41 423.37 9.12 424.88 7.84 426.18 6.27 427.68 6.69 428.28 7.34 429.33 6.37 431.92 4.82 433.3 3.54 433.9 3.54 435.36 4.05 436.9 4.03 438.2 2.86 439.21 1.7 441.13 1 442.93 1.57 443.59 2.31 443.96 3.97 444.55 5.02 444.54 6.5 445.36 7.7 446.03 9.04 446.86 10.31 446.41 11.67 448.68 13.67 449.8 15.21 453.3 16.87 455.01 17.79 455.74 18.37 456.4 20.06 456.33 21.28 455.75 22.34 455.9 23.15 456.43 24.12 456.16 25.95 456.14 27.1 456.81 29 457.14 31.1 457.92 31.85 459.09 32.63 460 33.75 460.86 34.17 461.36 35.57 461.43 36.48 463.55 38.73 464.26 39.2 464.4 40.22 465.53 40.82 466.33 42.43 467.42 43.1 468.25 44.43 469.19 45.37 469.87 47.13 471.18 47.2 472.53 46.97 472.78 48.35 473.64 50.61 475.67 52.15 477.01 53.98 478.38 54.63 478.88 55.06 479.66 57.06 480.79 58.2 480.91 60.33 481.52 61.01 481.92 63.25 481.88 64.34 480.59 65.56 480.01 66.62 480.33 68.72 479.51 70.33 478.01 70.88 477.06 71.64 475.12 72.58 473.6 74.41 472.37 74.42 471.39 75.81 471.85 76.63 472.35 78.64 472.41 79.4 473.39 81.4 473.6 82.63 472.83 84.23 472.28 84.95 471.97 87.11 471.68 87.44 473.18 89.79 473.87 91.57 474.63 92.85 474.37 94.1 474.67 95.09 474.26 96.64 475.18 97.82 475.78 100.91 477.56 101.93 477.67 103.08 479.24 104.01 479.91 106.17 479.73 108.12 478.35 109.64 477.39 111.08 477.41 111.37 476.26 112.81 475.71 113.97 474.96 114.37 474.47 115.64 475.15 117.51 474.87 118.78 475.35 120.55 477.73 122.88 478.48 125.22 478.39 125.68 478.77 127.28 480.74 129.31 482.39 130.68 483.53 132.85 485.16 133.61 486 133.83 485.07 136.71 484.67 137.16 483.65 139.14 483.32 140.03 483.28 141.89 484.24 145.24 484.71 146.35 486.07 147.32 488.13 149.39 489.36 149.82 490.11 151.37 491.64 152.66 492.52 153.76 493.57 153.81 494.57 153.56 495.41 153.79 496.24 153.58 497.68 154.66 499.1 157.31 500.43 159.15 501.44 160.29 501.14 162 500.45 163.57 500.53 164.14 502.51 165.41 502.84 168.23 503.5 170.04 504.19 169.91 505.33 170.15 506.07 170.68 507.57 171.01 508.92 172.02 509.2 172.81 510.85 173.23 509.79 175.27 510.48 175.77 510.43 176.58 511.02 178.06 510.93 181.5 511 184.22 510.66 185.75 509.67 187.03 509.82 188.18 508.17 190.46 507.99 191.85 510.42 193.18 511.95 193.39 514.52 196.24 517.35 197.06 518.65 197.71 520.7 197.35 522 195.37 522.88 194.25 523.13 191.54 523.83 189.13 523.58 187.48 524.74 185.63 525 184.14 525.44 182.61 526.29 180.92 527.6 179.98 527.88 178.46 529.6 177.55 531.32 176 534.05 174.24 536.03 174.6 537.53 173.63 539.24 173.89 541.79 175.02 543.09 175.09 543.56 176.11 545.93 174.84 547.24 174.33 548.89 174.25 550.27 174.67 551.16 175.23 553.77 177.54 555.8 178.78 557.43 180.12 559.66 182.36 562.35 183.96 565.87 186.47 566.82 187.37 568.34 189.41 570.32 191.64 571.66 192.56 574.27 194.05 576.55 195 581.65 196.6 584.43 196.88 588.66 197.11 592.99 196.95 595.21 196.63 597.7 195.91 598.84 195.46 604.57 193.88 607.93 193.25 610.75 192.53 615.9 191.37 623.19 191.18 628.31 191.01 634.12 190.73 638.05 189.41 640.97 188.28 Z" id="38030000"/>
</g>
</svg>