<?xml version="1.0"?>
<svg xmlns="http://www.w3.org/2000/svg" version="1.2" baseProfile="tiny" width="800" height="738" viewBox="0 0 800 738" stroke-linecap="round" stroke-linejoin="round">
<g id="sigung">
<path d="M 446.46 40.36 447.02 43.07 448.26 46.25 450.35 51.13 446.14 51.21 449.16 61.43 452.34 72.77 460.3 81.56 463.48 83.38 473.95 86.88 487.58 91.3 501.15 91.62 514.66 91.08 528.17 89.33 541.78 92.64 569.3 113.76 579.68 124.39 583.11 127.58 589.94 135.02 600.15 145.65 608.62 156.32 610.81 158.15 620.06 166.93 624.61 170.56 638.19 172.83 648.7 177.19 651.87 179.46 665.52 184.56 669.96 187.6 679.27 195.19 682.41 198.18 688.17 208.91 690.77 218.71 691.3 223.32 692.71 241.34 692.91 243.49 693.97 252.15 703.68 262.79 707.88 270.61 710.16 273.11 711.58 277.38 713.63 284.27 716.21 287.69 721.91 294.94 728.65 300.01 735.67 305.51 746.5 309.15 749.33 310.98 757.39 315.91 763.07 321.15 770.98 326.31 776.84 332.48 780.73 337.13 783.32 339.78 790.7 347.75 794.86 357.79 795.52 359.63 799 369.26 795.43 380.18 791.57 391.09 782.66 412.95 778.69 423.91 774.21 434.8 769.4 445.74 765.81 456.65 761.51 467.58 756.6 473.7 754.83 475.91 750.64 479.95 739.47 487.28 732.72 489.84 725.92 493.33 717.68 495.54 712.67 497.22 707.03 498.91 706.7 499.68 705.21 499.47 699.99 501.04 697.92 501.47 686.94 502.49 683.17 503.13 672.55 505.29 658.5 508.21 649.33 508.36 638.39 508.63 637.41 508.24 631.31 502.72 627.02 499.58 618.88 502.16 616.73 503.02 611.03 506.95 609.18 508.55 604.46 514.46 598.15 519.19 591.13 525.22 584.73 528.94 579.75 531.24 568.88 536.5 567.98 536.52 566.06 534.83 564.83 534.05 564.1 533.03 564.19 532.23 561.66 533.64 560.28 535.05 552.95 523.85 550.72 520.38 549.73 518.55 544.24 517.53 543.21 519.28 543.98 520.17 542.56 520.98 542.77 521.63 541.58 522.08 541.57 523.13 542.52 523.95 541.62 524.59 540.93 524.03 540.48 521.11 542.27 520.44 542.15 517.82 543.65 518.2 544.06 517.38 542.37 516.98 531.43 526.25 537.68 533.53 543.22 539.89 537.84 541.04 536.3 541.1 531.72 540.43 530.84 540.6 521.79 543.79 511.1 547.47 508.27 546.82 492.45 542.85 489.98 543.67 488.87 544.38 486.31 543.94 485.04 544.19 481.49 546.54 480.34 547.66 480.05 548.43 480.32 550.72 479.66 551.45 477.3 552.64 474.87 555.91 474.3 556.45 472.5 556.78 471.42 557.5 469.22 557.32 467.83 557.76 465.24 561.7 463.62 563.18 462.54 564.82 461.79 566.43 457.6 572.67 456.7 574.58 455.2 575.56 453.45 576.26 450.88 579.06 448.21 581.33 447.03 583.51 449.51 586.03 451.75 588.91 452.45 591.02 452.94 593.59 456.89 601.72 458.75 604.69 461.32 608.47 461.93 610.07 461.72 612.55 460.81 617.15 461.4 622.64 462.84 625.35 466.49 628.42 469.11 631.52 470.31 633.23 473.7 637.09 475.37 639.32 476.05 641.15 476.05 642.75 475.07 643.45 473.65 645.09 472.69 646.94 472.21 651.26 472.46 655.12 472.64 661.22 472.62 663.85 472.85 666.32 473.38 668.64 475.33 672.31 474.62 673.51 473.59 673.29 470.12 671.82 462.42 668.72 456.28 665.77 453.61 671.43 457.25 673.08 456.75 673.98 458.72 674.65 462.42 676.75 463.93 676.96 465.08 677.65 465.52 678.45 464.87 681.28 466.61 682.56 467.53 682 468.06 682.53 463.83 685.58 462.71 688.74 463.08 691.48 465.5 693.06 467.85 694.82 470.25 700.82 472.54 702.6 474.96 701.78 477.2 702.64 476.53 703.87 476.23 705.69 476.82 709.14 476.04 710.53 475.26 709.52 473.5 709.15 471.51 709.89 470.84 708.87 469.25 709.2 468.13 709.11 465.74 709.63 464.12 710.52 461.72 710.32 458.97 712.98 459.71 713.36 459.4 714.3 460.42 715.08 459.97 715.77 460.45 727.43 465.42 734.32 463.03 736.01 462.1 734.72 459.79 736.37 458.92 735.17 458.23 735.27 456.34 736.62 455.63 735.64 454.9 735.73 453.14 737 445.15 725.9 442.53 722.19 441.37 720.09 440.31 719.13 437.81 715.66 436.93 714.13 436.92 712.47 438.31 710.07 439.95 709.36 441.44 710.02 442.6 711.67 444.01 712.79 444.49 712.51 447.43 712.33 447.56 711.21 449.39 706.43 451.82 703.79 455.15 702.95 455.63 700.68 453.53 700.46 453 698.17 452.99 695.47 451.92 693.14 449.69 690.95 448.77 691.25 447.17 689.23 445.88 688.47 443.69 687.99 441.62 685.36 439.14 685.75 437.62 686.29 436.03 686.38 434.43 685.98 432.91 684.91 428.07 685.58 424.73 685.28 422.74 684.34 420.58 684.91 417.61 688.15 414.52 688.3 411.03 689.51 409.41 690.57 406.58 690.07 404.04 690.2 401.07 693.49 396.79 692.9 395.9 693.39 389.75 695.43 387.91 697.5 389.1 698.88 386.49 700.25 385.35 701.17 384.29 703.47 384.52 708.22 384.82 709.89 383.56 713.22 383.33 714.24 381.85 715.71 380.36 715.09 378.32 714.68 376.04 713.42 373.37 713.07 370.31 712.4 367.61 712.11 365.9 712.76 364.7 712.58 362.25 715.32 359.72 717.31 359.52 718.3 354.36 719.76 350.04 719.24 348.05 720.21 346.28 720.62 343.98 723.63 339.91 723.51 338.25 722.39 335.86 721.75 332.76 722.12 331.31 720 330.62 718.56 328.4 717.51 327.57 716.21 326.19 716.48 323.52 714.73 321.68 715.46 320.02 714.47 319.09 712.22 317.27 711.74 315.21 710.41 308.89 713.35 307.02 712.68 306.63 712.13 304.41 711.69 303.37 712.52 300.81 713.05 297.37 714.41 295.42 713.72 293.49 712.64 290.29 710.03 285.62 711.09 283.92 712.42 281.59 713.09 280.94 713.78 280.21 715.86 277.41 717.39 275.52 716.82 272.29 717.38 270.05 716.34 268.71 714.75 262.39 716.25 260.36 720.42 259.08 720.58 254.59 719.45 252.18 719.82 250.39 720.8 249.19 720.48 248.83 720.99 247.37 721.21 241.83 720.91 240.72 719.09 238.76 717.83 235.13 717.99 233.36 717.23 231.56 717.66 227.86 716.27 225.69 714.64 221.17 714.06 218.23 712.36 212.69 708.13 208.31 706.05 206.66 703.07 204.98 701.99 201.2 700.51 199.23 699.59 193.56 697.47 192.56 695.16 191.1 694.69 189.66 693.73 187.31 691.56 185.39 689.39 184.46 686.85 180.25 688.44 175.13 688.81 173.95 689.24 172.76 688.64 169.25 688.89 169.36 693.83 166.23 698.98 161.1 695.95 157.36 693.32 154.28 691.57 149.53 693.01 144.47 695.05 143.05 695.49 141.85 693.47 137.44 692.49 133.57 693.28 129.9 692.7 130.39 690.38 130.24 689.74 130.48 686.98 128.41 683.77 129.71 682.59 130.27 678.51 130.07 677.02 130.56 674.88 132.07 673.59 132.62 671.78 133.85 669.87 133.66 667.88 133.78 665.18 133.63 663.98 134.32 662.56 134.37 661.14 134.85 657.99 134.5 656.59 134.89 651.11 135.1 650.36 136.55 649 136.69 648.28 136.54 645.05 136.16 641.84 135.31 640.3 135.52 638.74 136.91 636.54 138.83 632.42 139.22 630.87 140.29 628.53 141.82 624.08 141.5 618.41 144.33 616.95 145.37 614.92 147.58 612.78 148.15 611.29 151.99 609.91 152.54 606.48 152.68 604.43 153.94 600.43 153.44 598.78 152.66 594.84 151.76 593.5 151.49 591.82 152.01 589.23 149.88 587.69 148.36 587.22 147.51 587.46 146.06 586.81 143.14 584.89 140.15 581.55 137.78 578 138.78 575.45 136.76 575.48 133.37 575.17 132.35 576.41 128.7 576.8 124.61 577.74 117.87 577.32 113.46 576.31 109.28 577.64 105.35 575.27 102.03 575.86 99.84 575.24 95.77 573.66 94.56 571.23 93.82 569.08 92.79 568.23 91.9 566.95 89.77 564.95 88.29 561.5 86.29 559.27 84.15 554.38 81.88 551.5 83.43 548.63 83.66 547.75 81.41 544.01 80.61 540.99 79.17 538.44 79.52 529.8 78.96 526.9 75.28 523.95 74.97 519.75 75.59 519.82 76.61 519 78.29 518.59 80.33 516.06 81.29 515.48 82.15 513.94 84 511.74 85.42 508.46 85.62 505.05 86.36 504.43 87.41 501.81 87.41 500.71 86.55 498.61 87.01 496.03 85.99 493.59 87.55 491.69 87.96 490.85 87.14 489 88.64 486.91 89.75 484.52 87.55 482.06 89.28 480.31 90.23 478.51 89.78 475.01 89.3 473.57 88.1 472.48 87.51 471.29 86.17 470.37 85.44 469.39 85.07 466.67 84.59 465.38 83.35 463.79 82.19 461.19 80.55 462.31 79.45 463.92 75.44 465.91 74.17 464.22 72.67 463.58 71.57 458.14 72.36 450.24 70.84 444.98 67.39 439.41 66.99 438.32 65.75 436.35 64.42 435.45 63.45 432.83 61.79 430.53 61.06 429.02 59.95 427.54 59.32 425.99 58.21 424.44 58.91 423.4 58.22 420.27 56.48 417.56 56.5 414.76 55.19 411.58 54.71 409.54 51.54 404.92 52.01 400.73 51.51 398.71 50.01 396.68 49.68 395.23 50.71 392.16 52.64 389.18 52.14 388.62 51.83 385.82 50.77 384.36 50.64 382.8 49.63 381.11 48.07 379.42 47.92 377.12 44.49 372.89 43.23 370.12 42.95 368.6 42.12 367.93 41.02 365.14 41.07 364.38 40.41 361.94 39.36 361.45 38.36 359.96 38.7 357.87 37.9 356.75 38.34 356.28 37.93 355.06 38.39 352.29 37.36 351.49 35.97 350.97 36.23 350.08 35.02 348.55 35.74 346.16 35.32 344.96 34.97 341.79 35.49 340.02 36.34 339.1 36.9 337.68 36.42 335.81 37.27 333.87 38.54 333.3 38.85 332.43 36.59 329.9 35.34 329.92 34.5 328.65 32.66 327.8 32.18 327.07 32.62 326.23 31.85 324.14 31.14 323.36 31.41 321.98 31.11 321.2 31.14 319.54 30.06 317.92 31.15 315.82 30.33 312.61 30.99 311.32 28.89 308.05 27.89 305.59 28.57 304.18 28.24 302.24 27.26 302.18 26.44 301.48 26.16 299.73 23.93 298.53 21.96 298.21 21.51 297.49 18.87 295.67 17.31 291.84 16.61 290.54 15.05 289.48 13.82 289.31 11.97 289.93 11.47 288.66 11.46 286.82 10.19 287.13 9.08 288.3 8.02 288.7 7.4 288.36 7.33 285.34 8.2 283.99 6.42 283.21 3.97 283.82 2.51 283.68 2.88 282.22 3.92 281.77 4.31 280.49 2.81 279.99 1 278.64 1.37 277.85 2.46 277.63 3.85 278.21 4.97 277.63 4.88 275.7 4.07 273.46 2.46 271.54 2.77 270.88 4.22 270.2 4.87 269.24 4.67 267.63 5.33 266.92 6.48 267.38 6.89 268.5 7.96 269.45 8.93 269.1 9.96 267.82 12.96 265.9 13.58 264.27 14.26 264.26 17.14 265.44 19.31 265.94 23.57 266.01 26.53 266.34 29.85 266.32 34.7 266.9 38.35 266.17 42.15 267.45 44.27 268.03 49.53 267.2 53.42 265.09 56.48 263.94 57.79 263.22 58.4 262.3 57.71 261.12 55.15 259.9 53.33 258.62 51.1 255.18 50.02 252.57 49.39 250.41 49.6 248.05 50.77 246.03 52.55 243.43 54.39 240.3 54.77 238.39 54.24 234.02 53.4 229.07 54.36 225.97 55.15 224.92 57.49 222.57 61.76 219.76 63.63 218.13 64.66 217.54 66.05 217.66 68.19 219.14 69.69 221.41 71.6 223.92 72.73 226.12 74.85 229.08 77.66 231.28 81.02 233.33 85.85 236.97 87.3 237.8 95.51 241.93 97.09 242.54 100.01 244.54 101.34 245.67 102.46 246.17 104.01 246.29 105.19 246.05 107.67 245 109.39 244.54 113.64 242.97 117.08 241.99 118.94 240.66 121.21 237.82 122.65 235.01 125.09 232.07 125.74 228.76 126.43 220.26 126.31 216.89 125.85 214.09 124.46 209.47 122.79 204.34 122.85 201.16 124.03 198.64 125.27 197.82 129.5 197.01 131.96 196.02 135.06 195.3 137.59 195.41 140.29 196.22 142.66 196.56 143.87 195.47 144.07 193.93 143.64 191.72 143.53 189.37 142.84 188.31 142.78 184.93 143.3 182.73 143.68 179.06 143.46 174.55 144.25 173.78 145.62 173.87 146.83 175.16 149.93 179.52 150.41 180.49 149.98 183.81 148.13 187.75 148.01 189.02 148.56 189.46 151.02 189.66 152.98 188.33 154.97 186.1 155.8 185.51 159.64 180.91 160.98 178.96 161.7 177.48 162.47 174.62 162.7 172.13 163.97 169.74 165.67 168.31 166.83 167.66 168.25 165.23 177.41 155.71 190.92 153.93 204.43 152.42 217.82 144.94 222.09 142.46 231.21 137.3 235.89 131.34 244.41 120.33 252.71 109.32 257.51 98.39 261.42 87.47 267.27 76.51 270.47 69.8 275.31 65.51 280.16 61.32 297.18 51.01 301.92 48.88 310.63 46.76 324.14 45.19 330.14 44.43 337.59 40.57 350.63 33.69 364.38 26.26 377.8 20.08 391.15 10.46 404.57 4.68 409.35 1.02 423.44 1 429.68 8.19 434.03 11.92 437.33 20.43 439.16 29.68 441.78 40.57 446.46 40.36 Z" id="38070000"/>
</g>
</svg>