<?xml version="1.0"?>
<svg xmlns="http://www.w3.org/2000/svg" version="1.2" baseProfile="tiny" width="800" height="1165" viewBox="0 0 800 1165" stroke-linecap="round" stroke-linejoin="round">
<g id="sigung">
<path d="M 437.67 1163.48 435.85 1164 435.94 1163.1 437.85 1162.19 437.67 1163.48 Z M 465.11 1160.2 465.71 1162.22 464.59 1162.8 463.22 1162.2 462.87 1160.24 465.11 1160.2 Z M 442.67 1155.66 444.17 1155.86 447.85 1155.5 448.22 1157.47 447.9 1157.92 449.01 1159.13 449.01 1160.61 447.05 1161.7 444.49 1161.76 443.29 1160.87 442.14 1159.5 441.09 1160.82 439.73 1161.64 437.62 1161.43 436.63 1160.19 437.88 1159.89 438.47 1158.77 437.83 1157.63 438.64 1157.22 439.17 1155.8 440.23 1155.45 441.09 1155.84 441.89 1155.05 442.67 1155.66 Z M 434.69 1155.88 433.78 1157.05 432.55 1156.41 433.21 1154.27 434.73 1154.67 434.69 1155.88 Z M 453.26 1151.75 455.3 1151.89 457.94 1152.42 458.58 1153.32 459.1 1155.39 458.91 1156.74 456.71 1156.28 453.73 1157.29 452.45 1158.64 451.65 1158.76 449.14 1157.28 448.3 1155.87 448.28 1153.78 450.16 1152.28 453.26 1151.75 Z M 455.94 1151.65 453.78 1151.69 454.21 1150.72 455.54 1150.74 455.94 1151.65 Z M 437.99 1142.87 439.23 1143.65 438.76 1145.13 436.51 1146.81 435.99 1143.92 436.27 1143.07 437.99 1142.87 Z M 442.46 1141.82 441.95 1142.4 440.07 1141.52 441 1140.6 442.46 1141.82 Z M 415.31 1119.11 416.41 1120 415.48 1121.14 414.14 1120.44 414.07 1118.97 415.31 1119.11 Z M 392.81 1118.49 394.4 1119.33 394.68 1119.99 394.29 1121.46 391.4 1123.52 390.77 1124.36 389.44 1124.58 387.42 1122.4 388.54 1121.37 389.57 1121.21 389.47 1119.29 391.33 1118.54 392.81 1118.49 Z M 409.19 1112.89 410.35 1113.69 411.52 1115.45 412.45 1116.3 412.34 1118.33 411.1 1118.96 409.57 1118.22 408.8 1117.1 408.25 1115.27 407.28 1114.5 409.19 1112.89 Z M 409.83 1111.88 411.37 1112.16 410.62 1113.34 409.28 1112.79 409.83 1111.88 Z M 421.97 1107.29 423 1107.46 422.97 1108.38 421.52 1108.5 420.59 1108.08 421.01 1106.83 421.97 1107.29 Z M 502.04 1078.74 500.68 1078.86 501.09 1077.57 502.04 1078.74 Z M 499.46 1078.73 498.33 1079.33 497.28 1077.8 497.88 1076.18 499.2 1075.31 500.09 1076.69 499.46 1078.73 Z M 522.14 1069.3 521.62 1070.51 519.94 1069.84 520.94 1069.21 522.14 1069.3 Z M 517.77 1068.54 518.38 1068.2 520.15 1071.62 519.12 1072.46 516.13 1071.98 514.67 1070.97 515.43 1068.87 516.16 1068.08 517.77 1068.54 Z M 512.96 1065.82 514.51 1066.51 515.57 1067.79 514.25 1069.25 512.83 1069.95 511.06 1069.86 509.16 1069.11 509.14 1067.85 510.98 1065.79 512.96 1065.82 Z M 349.33 1045.98 349.03 1051.17 348.71 1051.13 348.92 1046.13 348.75 1045.87 348.98 1042.32 349.54 1042.19 349.33 1045.98 Z M 619.15 993.2 617.57 992.87 618.74 991.51 619.77 991.81 619.15 993.2 Z M 618.36 984.97 619.62 987.36 618.98 988.47 618.4 991.03 617.02 993.34 618.83 994.17 619.33 995.55 618.24 998.12 619.03 998.46 618.34 999.99 617.22 1001.24 616.72 1002.42 617.46 1002.89 616.6 1004.28 615.17 1004.73 614.55 1005.92 613.74 1005.48 612.45 1005.89 611.91 1004.86 613.6 1003.34 612.81 1002.48 612.45 1000.48 612.72 999.3 611.77 998.61 611.26 996.51 611.89 995.99 610.94 994.02 611.54 993.09 610.58 992.23 610.81 989.77 611.3 988.28 612.98 986.6 614.98 985.53 617.88 984.79 618.36 984.97 Z M 543.1 979.05 544.04 981.93 543.58 983.42 542.11 983.42 541.56 982.46 540.54 981.92 541 980.61 541.91 980.23 542.12 979.02 543.1 979.05 Z M 382.34 890.06 381.86 892.71 381.07 893.39 380.13 892.86 379.47 891 378.45 890.34 382.05 889.51 382.34 890.06 Z M 700.76 872.76 700.78 874.11 702.56 873.4 702.26 876.51 703.55 875.72 704.3 876.04 704.29 877.51 703.86 878.79 702.74 879.83 700.93 880.34 700.04 881.58 698.96 880.89 697.28 880.54 695.86 878.35 696.14 875.84 697.03 874.49 698.25 874.4 699.02 873.44 700.76 872.76 Z M 689.67 867.88 689.45 869.15 691.66 871.91 693.83 873.47 693.71 874.61 694.26 876 695.42 875.71 695.84 876.8 694.26 879.99 692.79 879.5 692.99 880.89 690.95 881.36 688.9 882.15 686.88 881.52 685.51 881.56 683.88 881.07 682.7 879.98 683.38 878.44 682.51 878.31 681.84 877.04 681.66 875.71 682.11 875.17 682.12 870.07 682.49 868.97 683.5 867.65 684.33 867.44 686.04 868.8 687.17 868.71 689.27 867.25 689.67 867.88 Z M 213.4 823.45 214.25 823.57 215.39 825.96 214.47 826.55 212.16 827.34 210.41 828.67 206.6 829.65 205.98 828.24 206.79 826.69 208.64 824.6 209.5 823.97 211.71 823.49 213.4 823.45 Z M 697.67 811.78 698.61 811.7 701.12 812.44 702.88 813.88 702.5 814.75 699.87 815.46 698.45 817.09 697.4 819.45 697.55 821.2 697.22 822.84 696.55 823.95 697.72 825.65 696.58 829.08 696.31 830.54 697.36 832.08 698.85 832.33 698.95 833.52 699.83 833.89 700.8 835.2 699.93 836.54 699.46 838.05 697.91 838.37 695.77 838.17 695.36 837.63 694.03 837.68 693.34 836.68 689.58 836.91 689.11 835.58 690.89 833.86 691.6 833.6 691.52 832.16 691.92 830.78 690.65 828.51 689.27 827.99 687.33 826.19 687.25 824.49 685.92 824.72 685.43 824.19 685.73 821.61 685.11 819.67 685.07 817.57 686.96 816.5 688.17 814.59 690.47 811.82 691.41 811.85 692.15 810.34 692.15 808.65 694.11 810.01 697.67 811.78 Z M 712.56 801 712.52 802.25 710.9 801.8 712.05 800.72 712.56 801 Z M 169.26 763.33 168.16 763.44 166.89 762.39 166.54 760.63 167.09 760.1 168.35 760.56 169.26 763.33 Z M 603.92 761.29 604.44 761.64 604.33 763.06 602.5 763.65 601.69 763.2 601.23 760.78 601.9 758.09 603.12 756.43 604.89 758.11 603.92 761.29 Z M 341.89 714 344 714.38 344.83 716.11 344.21 716.87 341.78 717.11 340.51 716.11 339.42 715.78 339.03 714.28 341.89 714 Z M 236.77 704.7 239.75 706.86 240.65 707.04 241.79 708.6 243.37 709.89 244.38 710.18 244.47 711.36 245.13 712.96 245.32 714.46 245.14 717.08 246.81 722.96 245.85 724.97 245.72 728.65 243.94 732.4 242.79 733.93 242.16 735.56 240.32 737.43 239.47 739.15 236.9 741.45 236.07 742.65 235.08 745.31 233.68 748.14 232.77 751.1 232.56 753.32 231.04 755.27 229.84 758.53 229.88 760.81 227.93 762.88 227.23 762.16 224.75 763.69 223.29 765.05 221.65 767.84 220.62 768.8 218.98 769.55 217.29 770.75 214.46 774.52 212.28 775.37 209.35 775.66 206.49 776.58 204.46 777.52 202.1 777.85 197.15 776.8 196.1 775.95 195.62 774.83 195.7 772.04 195.05 770 193.61 767.98 192.71 765.02 192.51 760.52 192.88 758.26 192.88 754.66 192.1 751.5 192.3 749.55 191.73 746.91 192.41 746.74 194.46 745.06 195.35 744.65 196.56 744.98 198.28 744.6 199.91 743.26 202.26 742.86 203.29 742.41 204.17 741.25 205.47 738.26 204.98 737.98 205.92 735.27 206.32 735.15 206.72 732.98 206.38 731.11 207.85 727.1 207.65 725.82 208.49 723.81 209.7 722.5 210.65 719.37 211.73 717.67 212.49 713.46 212.41 712.56 213.35 711.17 216.83 708.62 217.94 707.24 220.21 705.71 221.99 705.23 230.32 704.57 232.17 703.91 236.77 704.7 Z M 797.88 689.19 799 690.04 798.69 692.41 797.13 694.43 795.98 696.35 793.68 698.28 792.85 701.34 792.56 703.98 791.87 704.04 790.83 707.12 791.02 709.72 790.22 712.57 791.95 714.5 792.36 716.51 791.91 717.58 792.95 718.08 793.28 716.61 795.55 716.5 795.98 717.39 795.65 719.55 795.27 720.01 792.75 720.52 792.65 722.09 791.12 723.66 789.13 723.01 787.72 723.23 786.39 724.53 785.64 723.33 784.46 724.8 782.07 724.2 780.55 726.32 779.84 725.88 778.54 726.61 777.62 727.86 776.49 728.47 776.04 727.69 776.35 725.56 777.03 724.05 777.94 723.54 778.48 722.2 779.28 721.4 779.6 719.27 781.61 717.14 780.77 715.83 781.26 713.62 781.27 711.97 782.12 710.23 782.06 706.86 782.33 705.35 783.56 702.73 783.64 700.98 784.88 697.72 787.46 694.53 788.42 694.68 788.81 693.58 789.76 692.67 791.99 691.99 792.37 691.01 793.6 690.29 794.5 689.08 796.5 689.51 797.88 689.19 Z M 197.8 689.86 199.55 690.6 199.78 692.62 198.36 692.38 196.95 691.59 196.39 690.83 197.8 689.86 Z M 348.28 684.26 349.65 685 349.8 686.86 347.85 687.14 346.39 686.32 345.41 684.68 347.62 684.01 348.28 684.26 Z M 108.32 683.02 110.77 683.74 112.21 685.64 112.04 687.18 112.59 691.87 111.88 692.97 110.37 694.27 109.64 695.48 108.05 696.95 106.28 697.66 105.35 697.49 104.12 696.2 102.56 695.75 102.14 694.66 103.5 694.07 105.34 692.31 105.74 690.16 105.15 687.98 104.12 685.61 104.23 684.58 105.46 683.34 106.93 682.62 108.32 683.02 Z M 29.49 673.83 30.54 674.44 34.33 677.57 36.78 677.87 37.34 679.92 38.4 680.33 42.44 680.2 43.44 680.59 45.43 680.6 47.66 679.98 49.44 678.98 50.06 678.24 51.01 678.56 51.31 679.53 49.73 681.38 49.45 682.28 49.47 684.76 49.09 686.21 47.67 687.66 45.37 689.01 43.23 689.64 41.97 689.29 42.35 691.76 44.89 694.73 46.97 696.27 48.44 696.64 50.22 695.57 54.12 694.55 56 692.63 57.74 691.39 59.04 689.37 59.21 688.41 60.02 687.73 61.06 686.12 62.14 685.77 62.76 686.25 63.51 689.73 62.57 689.96 61.69 689.44 60.21 689.77 58.8 690.76 58.09 691.91 58.38 692.66 58.28 695.06 56.75 696.68 56.18 699.27 56.96 700.79 57.96 701.68 58.46 703.05 60.27 703.62 61.06 703.5 63.71 704.92 65.53 705.5 65.94 706.23 66.5 709.5 65.68 711.44 63.96 712.78 63.08 715.22 60.76 715.09 59.55 716.79 59.78 717.96 59.33 719.07 57 719.92 52.57 719.36 51.02 719.8 49.63 719.14 48.74 719.16 48.29 718.2 47.04 717.08 45.3 716.72 44.3 716.96 43.76 716.05 43.21 712.95 44.21 711.88 44.6 710.85 45.96 708.95 44.95 707.6 44.02 708.08 41.87 707.66 42.07 706.96 41.05 705.52 41.21 703.51 39.29 702.66 38.37 703.73 36.3 704.63 34.21 704.09 31.77 704.79 30.29 702.06 30.83 699.64 30.27 699.34 28.31 699.41 27.97 703.23 25.94 704.71 24.77 704.25 24.27 702.44 23.49 701.92 23.45 700.86 21.86 699.48 21.5 697.07 22.27 696.47 23.19 694.47 23.82 692.08 24.73 691.62 23.74 688.62 22.58 687.85 23.16 686.61 22.87 683.38 22.23 681.84 23.56 679.1 23.48 677.63 24.76 676.6 26.46 676.11 27.07 674.94 29.11 673.68 29.49 673.83 Z M 678.63 673.78 667.89 665.93 668.05 665.71 673.28 669.51 678.73 673.6 678.63 673.78 Z M 18.7 661.07 19.2 663.11 18.82 664.6 15.94 665.27 14.47 667.85 12.86 668.95 11.88 668.02 10.24 668.84 8.64 668.98 8.31 669.81 5.83 669.41 3.06 669.95 1.54 669.67 1 668.66 1.08 667.66 2.96 666.7 3.18 665.59 4.26 665.17 5.12 665.74 7.86 665.95 13.56 664.48 15.43 663.11 16.59 661.11 18.13 660.66 18.7 661.07 Z M 38.54 596.73 38.59 597.56 36.46 598.43 35.23 598.16 35.03 597.36 35.57 596.14 36.56 596.65 37.79 594.85 38.54 596.73 Z M 38.9 591.39 40.19 592.27 38.84 592.88 38.9 591.39 Z M 73.47 484.24 74.93 484.33 75.61 485.83 73.89 486.86 72.66 485.77 72.19 484.73 73.47 484.24 Z M 74.15 472.91 75.03 473.11 75.5 474.3 76.89 475.08 79.1 477.16 79.45 479.22 78.14 480.75 77.35 480.99 75.79 479.88 74.65 478.46 72.93 477.95 71.98 478.65 70.63 478.36 68.56 478.94 67.33 478.22 65.83 475.64 66.71 474.89 70.22 474.33 72.31 474.83 73.38 474.42 73.29 472.69 74.15 472.91 Z M 68.65 467.78 69.75 468.21 69.67 469.82 69.18 470.3 67.73 470.29 66.91 469.85 67.16 468.42 68.65 467.78 Z M 288.81 421.76 287.01 421.04 286.51 419.86 286.25 416.37 285.37 414.68 286.1 412.45 287.27 415.51 287.7 417.19 290.01 418.53 291.1 420.38 290.88 421.19 288.81 421.76 Z M 167.97 388.2 168.37 391.74 167.07 391.32 166.32 390.15 165.93 388.48 166.4 385.95 167.34 384.73 167.9 385.14 167.97 388.2 Z M 172.52 373.08 171.92 374.07 171.51 376.1 171.76 376.96 170.8 377.47 169.71 379.45 168.79 378.19 169.66 376.26 169.1 374.3 169.97 373.1 171.85 372.12 172.52 373.08 Z M 201.71 359.1 203.6 361.46 203.44 362.82 201.59 363.26 199.17 362.01 200.22 359.67 201.71 359.1 Z M 337.18 303.9 338.37 304.23 340.58 305.8 341.55 307.52 341.15 308.4 337.92 308.27 335.3 306.44 335.57 304.48 337.18 303.9 Z M 714.13 223.36 715.32 223.76 718.18 226.18 719.46 226.79 721.57 226.55 723.74 224.95 724.71 225.02 726.5 227.11 728.41 227.38 728.96 226.64 730.37 226.39 731.63 226.99 732.3 228.01 733.67 228.98 736.14 228.82 738.6 231.2 739.49 231.38 741.52 233.78 740.49 234.83 739.88 236.27 738.18 237.07 735.08 239.25 734.72 240.1 733.25 240.99 730.41 240.69 724.54 243.76 723.85 242.34 722.93 242.35 720.42 240.4 719.85 239.31 716.89 236.56 715.39 235.8 712.52 235.4 710.7 236.24 706.1 239.27 705.98 240.41 704.45 241.53 703.92 239.43 703.85 237.2 705.84 235.53 708.01 234.97 710.07 234.04 711.95 232.63 712.46 225.96 714.13 223.36 Z M 479.07 219.01 478.47 218.85 478.2 217.24 479.42 217.26 480.01 217.94 479.07 219.01 Z M 166.82 220.08 168.85 220.98 172.65 220.18 175.72 220.89 177.15 220.96 180.29 221.6 183.89 222.55 188.28 223.13 191.47 224.71 198.08 226.56 201.47 232.44 204.22 234.73 205.48 235.41 207.92 235.93 209.74 237.53 209.08 240.13 207.95 241.54 208.01 242.93 209.34 244.68 208.71 245.97 209.21 247.92 210.15 249.69 211.37 251.12 214.24 253.69 215.59 253.86 216.03 254.57 213.87 255.35 209.72 259.06 209.46 258.79 213.26 255.44 213.09 255.15 209.41 254.07 207.04 255.34 205.74 257.13 204.31 258.52 201.59 261.59 199.15 264.9 197.8 266.13 197.86 266.73 199.92 268.37 199.75 268.93 197.74 271.38 197.53 270.94 199.49 268.5 197.43 266.75 194.32 269.46 193.83 269.18 190.58 271.64 192.18 273.93 191.85 274.2 190.25 271.62 187.01 272.96 184.01 273.02 182.95 273.32 181.21 274.72 178.69 275.83 177.46 276.76 174.31 277.98 172.92 278.74 170.9 281.37 170.45 284.97 171.53 286.12 172.86 285.77 174.73 287.61 176.14 290.48 177.54 291.22 178.3 292.36 179.69 296.12 178.61 296.67 177.67 298.28 177.69 300.91 178.6 303.53 180.64 307.5 183.14 310.94 185.96 313.67 189.13 315.02 191.25 315.46 192.99 315.02 194.13 316.97 195.46 317.82 197 317.41 198.01 319.1 200.67 320.67 202.28 322.27 202.13 324.38 202.73 325.26 204.9 325.87 205.62 327.49 205.58 330.3 204.91 331.51 204.97 333.85 204.53 335.01 203 336.82 202.13 338.31 199.55 339.04 198.64 336.78 194.16 335.26 187.56 333.6 185.34 332.58 184.03 333.23 183.56 335.77 183.7 337.36 181.92 342.94 181.36 345.72 181.12 347.9 181.63 349.67 183.16 351.83 184.22 352.3 185.63 352.08 186.59 350.12 189.94 350.61 190.97 349.83 191.75 350.37 193.28 353.14 193.48 354.8 193.17 356.39 190.98 358.35 190.02 358.32 188.44 360.5 188.39 361.47 189.21 362.19 191.5 362.51 191.54 361.66 192.63 360.66 195.42 360.64 196.34 362.8 196.39 363.94 195.71 365.79 193.47 367.79 192.34 367.26 190.9 367.66 189.66 369.04 188.65 369.55 184.92 368.53 184.38 370.26 183.58 370.43 182.76 371.76 181.3 371.92 179.9 371.11 178.63 369.63 177.61 367.57 177.2 366.16 175.1 365.04 172.28 364.97 171.3 365.43 169.79 364.74 166.14 365.18 164.92 364.11 166.18 363.22 167.52 362.9 168.21 362.14 168.77 360.22 169.85 359.29 170.07 358.15 169.76 356.2 168.68 354.22 166.36 351.75 162.6 349.16 162.26 349.18 160.24 346.42 158.28 343.01 156.77 340.94 154.45 338.76 150.97 334.75 149.47 333.51 148.17 331.86 148.29 329.7 147.36 325.64 146.42 323.71 146.61 321.93 149.62 319.52 149.56 318.85 151.4 318.51 153.65 317.02 154.77 316.99 155.75 316.12 159.64 314.15 161.97 313.27 162.67 311.61 162.61 306.41 160.99 304.45 159.55 303.71 158.7 304.37 156.63 304.02 155.55 303.1 155.64 302.48 157.13 301.71 160.28 298.55 162.16 297.89 162.93 298.31 164.67 297.06 165.35 294.66 164.68 293.41 164.72 291.27 165.09 290.7 164.43 288.24 162.28 285.7 159.73 284.25 158.21 282.76 158.22 281.17 158.8 279.35 157.08 276.66 157.37 276.47 159.19 279.18 162.91 275.48 163.31 274.44 162.31 271.62 160.58 269.94 160.2 270.64 157.96 268.79 158.19 267.77 155.81 265.7 154.2 263.49 152.68 262.29 152.26 262.75 149.58 261.6 149.5 260.41 148.68 259.37 148.25 257.56 146.5 256.5 145.46 255.45 145.52 254.13 147.35 253.84 148.74 253.2 150.08 251.82 150.73 250.43 150.6 248.21 151.38 244.56 151.28 243.63 152.16 240.9 151.98 239.04 153 237.46 154.85 233.33 156.07 231.45 156.61 229.45 157.32 229.12 159.14 225.68 159.95 222.76 159.44 219.58 160.1 218.3 160.9 218.17 163.43 218.62 166.82 220.08 Z M 791.97 213.17 790.3 213.41 789.5 212.83 791.42 210.82 791.93 211.35 791.97 213.17 Z M 794.18 212.04 793.32 212.12 792.8 211.14 793.32 209.75 794.34 209.67 795.36 211.49 794.18 212.04 Z M 149.39 212.82 151.85 214.36 153.05 214.41 155.16 215.01 156.45 215.9 155.69 217.14 154.27 216.4 149.71 214.61 147.04 212.71 148.83 212.23 149.39 212.82 Z M 472.41 215.02 471.79 217.61 469.93 219.5 467.87 220.25 467.09 221.47 467.19 223.28 467.86 224.46 467.82 225.52 466.43 225.62 465.26 224.21 463.91 224.07 462.2 226.17 461.28 226.52 459.92 225.45 458.48 222.88 460.13 221.5 461.84 220.99 462.83 220.27 464.45 221.55 465.93 220.4 467.33 217.02 468.8 215.26 470.41 215.02 470.74 212.78 472.21 210.52 473.14 210.27 474.12 209.04 474.56 210.62 474.3 213.32 472.41 215.02 Z M 217.98 205.4 218.69 206.13 217.71 207.31 216.19 207.48 217.13 205.64 217.98 205.4 Z M 781.43 203.72 779.96 203.71 779.85 202.56 780.72 202.39 781.43 203.72 Z M 297.92 166.99 298.54 167.33 298 168.68 297.7 171.38 296.84 173.13 296.03 172.93 293.32 170.47 293.17 169.04 295.31 166.97 296.72 166.19 297.92 166.99 Z M 287.89 147.29 287.44 148.59 286.57 147.75 287.89 147.29 Z M 295.1 142.25 297.65 143.94 292.06 143.7 291.57 142.49 291.72 140.72 292.25 139.33 293.01 139.24 294 141.23 295.1 142.25 Z M 547.96 132.46 549.96 132.93 550.49 135.37 549.08 136.55 547.41 135.08 545.65 134.56 545.76 133.45 547.36 132.38 547.96 132.46 Z M 541.24 129.69 542.69 129.57 542.97 130.7 542.14 131.33 541.24 131.1 540.29 130.03 541.24 129.69 Z M 435.07 96.3 436.93 97.81 438.23 100.19 438.82 102.57 439.66 103.84 440.65 104.49 443.57 105.44 445.87 105.23 448.53 105.54 449.93 108.22 450.94 109.6 453.24 111.17 453.78 111.84 454.45 114.09 455.12 115.16 454.82 116.21 451.68 116.88 450.27 116.52 449.13 115.7 447.03 112.94 445.56 110.02 444.5 108.65 443.42 108.5 441.86 109.17 439.42 108.89 437.99 108.29 437.31 108.5 434.3 110.54 433.07 110.55 431.86 109.55 430.42 109.22 428.64 110.69 427.37 110.52 427.12 109.07 427.95 108.32 429.87 107.53 430.29 106.81 430.09 104.4 429.02 103.99 428.42 102.2 429.05 100.42 429.04 99 432.49 96.37 433.62 94.74 434.34 95.05 435.07 96.3 Z M 487.52 67.08 488.07 69.07 488.16 72.92 487.63 75.84 487.87 80.46 487.12 82.05 485.32 83.75 483.63 84.51 482.21 84.22 482.91 81.55 483.1 79.57 482.7 77.17 480.2 73.63 478.35 72.53 478.93 71.25 480.03 70.63 480.9 68.12 481.74 67.54 484.69 66.46 486.65 66.4 487.52 67.08 Z M 505.78 61.69 507.58 64.4 507.6 65.3 509.4 67.9 511.53 68.82 512.42 72.86 513.77 75.11 516.1 75.95 516.74 76.56 517.64 79 518.05 81.71 518.85 84.98 520.09 87.51 520.59 90.13 522.45 91.85 522.76 92.95 522.26 96.43 521.86 97.59 520.04 97.45 517.26 99.67 516.63 100.46 516.19 104.35 516.63 107.13 517.28 108.7 516.74 109.43 517.12 111.76 518.89 114.6 518.94 115.85 518.31 117.09 517.45 117.8 513.34 118.87 510.19 119.27 509.16 120.97 509.12 122.92 508.1 124.8 507.81 127.8 509.61 127.79 511.59 129.48 511.09 131.3 508.21 132.15 506.26 131.68 504.31 132.11 503.6 131.91 501.73 132.42 501.15 132.94 500.79 134.67 501.25 135.32 502.81 135.84 503.77 137.26 503.27 138.94 501.94 142.23 502.29 143.37 503.37 144.84 505.06 145.37 506.54 144.33 510.49 145.23 511.35 145.19 513.04 146.04 514.88 146.42 517.41 145.93 517.28 148.27 516.32 149.83 516.7 152.06 516.42 152.85 514.62 153.76 513.34 153.38 511.48 151.2 509.84 150.7 507.16 150.55 505.99 149.51 504.63 149.35 500.82 150.62 498.39 152.53 498.05 153.78 498.37 155.95 499.54 159.27 501.37 160.5 503.09 162.17 502.99 163.47 501.69 164.88 501.72 166.41 502.31 167.42 504.42 169.84 505.29 173.28 504.62 175.96 504.68 176.62 505.83 178.67 504.89 181.04 504.41 184.93 503.13 185.83 501.96 187.91 501.9 189.47 501.37 191.2 502.76 193.08 503.77 195.39 503.34 196.99 502.67 197.62 499.68 197.54 498.22 198.84 497.12 199.06 496.31 200.06 496.46 202.89 495.35 203.98 492.28 203.94 491 204.22 488.83 205.5 486.76 205.67 485.04 206.15 484.7 207.26 481.6 208.17 480.41 208.31 478.63 207.3 474.17 206.58 473.13 205.09 471.79 204.6 470.49 205.21 470.29 206.79 469.07 207.99 467.62 207.46 466.2 207.38 465.02 206.3 463.13 205.85 462.54 206.19 460.4 206.43 459.93 206.8 457.83 210.19 455 213.12 453.23 210.86 450.78 210.26 449.68 208.22 450.71 205.43 451.85 204.45 454.31 203.79 460.03 203.16 460.42 202.51 460.73 199.03 460.07 197.61 458.92 196.7 457.67 196.8 451.31 198.83 448.31 198.93 445.94 194.44 445.35 192.34 443.93 191.48 442.02 192.06 441.49 193.53 440.63 194.05 439.03 192.55 438.87 190.25 438.43 189.26 437.4 188.58 436.26 188.64 435.01 190.22 433.23 190.85 432.39 192.44 431.32 192.36 428.67 194.44 428.06 195.76 428.2 197.64 430.48 200.03 430.86 202.44 430.17 203.32 428.76 202.78 427.85 203.58 427.84 206.67 427.31 208.95 427.29 211.32 426.83 213.96 424.42 217.54 421.79 219.74 420.6 220.43 417.88 221.43 416.45 222.51 411.87 223.74 410.84 222.33 409.88 222.09 409.12 222.76 407.3 221.65 406.29 220.07 404.87 219.35 404.66 218.77 402.85 217.44 402.12 215.87 401.97 214.45 402.45 213.01 405.38 209.6 407.71 207.44 409.25 205.38 409.82 204.02 411.15 202.27 412.16 200.38 412.01 198.98 412.52 198.53 412.6 197.1 411.71 195.32 410.42 193.95 409.95 192.63 408.56 190.07 407.4 188.68 409.31 187.22 410.09 187.01 410.88 185.94 411.5 182.94 413.56 181.06 413.8 179.9 415.58 179.46 417.53 179.59 419.48 177.11 420.74 177.28 421.96 179.5 422.21 180.72 423.38 182.11 423.43 183.57 424.91 184.97 426.34 185.43 427.89 184.94 429.6 183.79 430.83 182.18 432.45 181.19 434.29 181.41 435.42 180.04 436.47 180.25 437.65 178.66 437.13 177.41 437.57 174.73 437 172.97 437.25 170.36 438.38 168.85 440.63 168.06 441.82 168.05 442.96 166.01 443.52 162.07 444.52 160.85 446.06 160.4 446.66 159.29 448.36 157.92 448.8 155.49 447.96 153.68 446.75 152.45 445.87 150.72 443.97 149.51 439.81 149.5 438.46 149.09 437.07 149.97 434.1 150.28 432.5 149.44 430.37 149.01 428.59 149.86 428.3 151.39 427.34 151.48 425.93 150.24 424.99 149.99 422.15 151.47 420.64 151.13 420.52 149.63 422.03 146.36 422.81 143.11 422.82 140.19 423.34 137.76 424.04 136.88 425.93 136.57 427.19 137.2 429.14 136.18 430.52 135.89 432.25 136.01 432.9 136.94 433.97 137.31 436.5 136.16 438.83 136.38 440.07 135.52 441.32 135.52 446.03 138.53 450.47 140.7 451.23 141.63 452.61 141.15 454.24 139.24 456.54 139.44 457.49 139.13 458.94 137.59 461.03 137.12 462.93 137.78 463.32 137.38 464.9 138.97 467 139.81 469.02 138.88 469.38 138.36 468.96 136.6 467.75 135.28 467.78 133.39 468.26 132.3 469.3 131.73 470.03 130.73 470.63 128.62 470.83 125.02 469.43 123.25 466.78 121.52 465.02 119.53 463.48 118.86 462.76 117.57 460.91 116.44 460.57 115.25 461.05 112.51 460.61 109.64 459.85 108.08 459.66 106.85 462.43 104.95 464.47 101.8 466.76 101.15 467.61 101.32 469.02 99.45 469.17 98.21 468.14 97.32 466.68 94.66 468.07 94.33 469.71 95.87 470.98 95.99 471.8 95.51 473.25 93.49 473.83 91.02 474.09 87.96 474.88 86.3 477.78 85.09 479.22 83.57 480.92 84.42 480.51 84.93 481.59 87.03 483.47 88.48 484.97 91.62 486.41 91.44 485.31 93.5 484.78 93.24 483.56 96.43 484.25 97.28 486.61 98.11 489.11 96.03 492.61 94.51 493.82 93.4 494.89 90.85 493.61 88.54 494.03 86.57 495.13 85.03 497.27 83.26 498.19 83.72 499.29 82.47 499.57 80.01 498.61 78.99 499.66 77.87 502.7 76.3 503.56 74.8 503.4 73.46 504.54 71.76 504.82 70 504.39 67.76 503.73 66.42 503.61 65.06 504.78 63.97 504.9 62.56 505.78 61.69 Z M 739.91 57.77 743.46 60.06 745.75 61.92 747.22 62.4 749.04 61.93 751.89 59.99 753.13 60.09 755.38 61.32 755.48 63.83 754.86 64.39 754.84 66.68 756.21 69.32 757.01 69.11 759.1 70.53 759.43 71.36 761.97 73.48 762.61 73.16 764.4 75.09 765.4 76.77 765.31 79.61 764.9 81.12 764.15 82.08 762.66 81.58 761.05 82.6 760.46 81.94 759.02 82.57 759.04 81.48 755.9 78.46 754.08 77.94 753.35 77.25 750.23 76.75 749.26 77.09 747.23 76.88 745.79 78.18 744.73 76.48 742.81 75.55 741.99 74.03 740.13 73.38 739.05 74.05 736.48 73.81 736.1 72.61 735.34 72.15 733.96 69.04 734.78 65.87 737.4 62.46 737.82 60.14 737.15 58.59 737.25 57.82 738.38 57.21 739.91 57.77 Z M 562.02 49.34 564.34 50.73 565.76 53.14 566.51 53.69 567.1 55 568.09 55.76 568.78 57.03 568.85 60 568.26 61.05 566.45 59.74 564.63 57.48 564.59 56.18 562.01 53.75 561.39 51.03 562.02 49.34 Z M 686.5 1.63 687.79 1.29 690.44 2.95 690.86 4.73 689.94 5.84 688.41 5.66 687.76 6.54 686.21 6.84 685.53 7.51 684.87 5.54 683.72 3.78 683.67 2.67 684.44 1.91 686.5 1.63 Z M 584.8 1 586.54 2.3 587.68 4.08 589.52 5.47 591.21 6.16 592.22 6.12 594.38 5.38 596.66 4.03 598.67 4.27 600.18 5.74 601.49 6.52 602.52 6.36 604.35 6.89 606.09 8.86 608.86 10.89 609.78 12.83 608.43 14.89 608.37 15.93 610.06 18.37 612.98 20.79 614.19 21.39 614.83 22.51 615.08 26.73 614.29 27.5 614.91 28.76 616.38 29.89 620.78 31.94 624.35 32.76 625.86 33.64 629.34 32.85 630.14 33.18 632.61 32.45 632.9 33.36 636.61 32.33 639.95 30.47 641.02 29.38 641.37 28.27 640.97 26.34 641.18 23.58 640.78 21.99 641.53 20.61 641.06 19.49 640.2 15.66 638.68 13.27 639.86 13.06 642.96 15.49 644.4 17.08 646.15 18.13 647.46 19.88 649.11 22.86 650.27 23.75 651.06 24.98 654.05 25.95 655.3 27.03 655.95 28.38 657.05 29.12 658.45 29.34 659.57 29.07 661.99 27.78 663.3 27.37 666.19 27.19 670.14 28.25 670.58 28.02 672.66 28.91 673.22 28.36 674.87 28.71 675.17 30.3 675.85 31.59 678.04 34.39 678.75 36.45 679.34 36.16 680.83 37.87 679.92 38.55 680.74 41.07 682.35 42.37 683.8 43.04 685.31 41.96 684.02 39.18 684.52 38.99 685.95 41.99 687.21 42.42 687.4 43.61 686.97 45.08 687.27 46.82 688.66 49.63 690.93 52.16 692.14 52.16 692.96 52.95 695.09 53.18 695.46 52.74 697.3 52.39 698.84 53.54 699.25 55.58 697.29 56.83 695.5 56.53 694.61 57.29 694.56 59.95 696.72 60.48 697.24 62.16 695.84 62.2 694.87 63.79 694.59 65.97 694.76 67.05 695.65 68.68 696.47 69.3 698.49 69.51 699.17 69.06 700.64 69.42 700.43 71.82 697.5 74.39 693.82 80.06 693 81.72 692.95 82.87 692 83.88 692.51 85.35 690.1 87.34 688.25 92.13 688.35 93.43 689.32 94.48 688.98 95.7 690.05 95.99 690.54 96.78 690.7 98.78 688.36 100.68 686.71 101.55 685.41 101.64 684.79 103.47 682.02 105.32 681.24 106.17 678.68 110.18 677.8 111.85 677.66 113.07 676.74 114.32 673.84 114.63 672.56 112.52 673.89 111.08 673.84 110.17 672.38 108.12 669.7 106.73 666.9 105.9 667.49 105.36 669.49 105.92 669.76 104.09 666.61 102.32 665.55 101.17 663.45 101.05 659.94 102.14 656.81 103.27 655.07 104.39 652.82 106.28 650.84 108.42 648.75 111.68 647.41 115.05 646.45 119.32 646.29 121.27 646.46 123.24 646.97 125.28 648.55 128.18 651.49 127.23 651.76 127.74 654.75 126.25 655.54 126.95 657.86 126.7 658.37 127.62 659.52 127.82 661.34 128.67 662.79 132.94 660.61 134.77 660.24 135.85 660.41 137.21 662.7 137.92 662.22 140 661.39 141.62 661.25 143.62 653.56 140.07 652.42 139.19 652.61 138.47 651.53 136.05 649.83 135.48 647.92 135.85 645.45 137.33 643.98 138.95 644.29 139.65 643.08 141.19 640.44 140.28 640.11 139.32 637.71 139.67 636.85 140.39 635.3 139.68 633.5 140.3 633.99 142.18 633.48 142.33 632.75 140.21 630.09 139.17 628.58 139.23 627.41 140.29 626.16 142.21 624.96 146.14 625.6 147.8 625.87 150.84 626.66 151.69 627.89 154.27 630 156.63 632.25 155.56 632.95 153.71 634.23 154.28 634.6 155.38 633.45 156.27 632.48 155.69 629.27 157.29 629.25 160.01 629.7 160.98 630.99 162.34 634.09 164 635.58 163.92 637.63 161.38 639.34 157.9 637.42 157.02 637.87 156.52 640.4 157.72 642.26 157.33 643.66 156.62 643.85 157.75 645.23 158.47 645.66 159.92 646.57 161.31 646.07 162.3 644.85 162.56 643.5 164.84 643.15 167.06 644.58 170.09 644.51 171.65 643.52 172.32 641.21 172.03 640.52 172.95 638.88 173.31 637.3 175.1 636.96 177.11 637.63 178.07 639.03 178.87 640 180.23 639.85 181.22 638.42 181.71 637.67 183.92 637.73 185.07 638.64 186.82 638.52 188.41 637.97 189.81 635.86 190.61 635.72 192.26 636.61 194.3 636.11 194.59 635.24 191.59 634.28 191.6 632.49 193.32 631.74 194.36 631.23 195.93 631.06 200.08 631.71 201.19 631.39 202.44 632.12 206.13 634.54 213.79 636.52 219.2 637.88 221.45 640.35 224.61 641.16 225.29 644.62 226.49 646.95 225.02 645.13 221.92 646.22 221.28 646.51 222.37 647.83 224.62 648.48 224.7 651.63 223.93 654.81 222.41 655.92 225.01 655.41 226.06 655.59 227.4 656.37 229.29 657.43 230.26 658.26 231.97 659.03 232.03 659.6 234.5 660.94 237.74 662.08 238.68 662.19 239.89 663.78 242.42 665.01 243.9 666.98 245.17 668.66 245.63 669.1 244.48 668.63 243.25 670.48 243.78 670.1 244.8 671.11 245.66 673.37 244.73 674.11 243.22 671.56 242.14 669.85 241.14 670.28 240.58 671.49 241.58 674.31 242.72 675.75 242.54 677.04 243.27 678.87 245.16 681.55 244.81 683.95 245.7 685.01 245.54 686.67 246.11 688.49 245.49 689.37 245.82 689.41 247.13 690.59 247.9 691.86 249.23 692.13 250.6 692.89 251.28 693.12 252.66 693.98 253.74 693.43 255.46 693.65 256.81 694.68 258.58 694.19 258.92 693.3 257.32 689.27 256.92 687.72 257.89 686.17 260.45 685.42 264.84 685.67 267.58 686.84 268.42 687.56 270.66 688.23 271.01 690.06 273.93 690.91 276.11 692.48 278.58 693.22 280.76 694.22 281.59 693.59 282.4 693.58 283.66 696.08 285.78 697.07 285.75 698.21 286.78 697.79 289.32 698.08 291.13 699.26 292.01 699.17 292.65 701.08 294.38 702.57 294.78 704.22 294.72 706.61 293.86 711.1 295.13 715.99 298.59 716.09 300.62 717.35 301.4 717.46 302.19 718.57 304.6 717.39 305.44 718.52 306.4 717.71 308.7 718.33 309.27 716.73 312.02 717.19 312.68 716.8 314.82 718.3 316.01 717.37 316.66 717.48 318.24 716.71 320.76 718.15 321.44 717.91 323.03 718.26 324.05 717.65 324.64 718.29 326.42 719.55 327.31 718.41 328.17 718.26 329.68 717.34 330.91 716.71 332.59 714.54 334.16 709.92 333.41 709.2 334.66 706.2 338.07 704.86 338.84 703.9 337.94 706 336.13 708.39 333.31 706.85 329.76 705.14 327.86 704.32 325.58 703.55 324.78 703.16 323.4 700.63 320.7 700.28 319.81 698.51 320.1 697.78 320.77 699.28 322.78 698.88 323.06 696.76 320.2 694.99 321.18 693.38 323.85 695.4 327.16 697.93 330.36 700.66 328.37 700.86 328.75 697.84 330.83 698.68 332.17 699.01 333.62 696.37 336.38 694.62 336.58 694.16 335.4 692.72 333.55 690.65 333.94 689.64 333.25 688.88 333.42 687.39 335.06 686.76 336.62 686.91 337.5 689.07 339.37 689.95 340.93 692.14 341.58 693.75 341.63 695.71 343.63 697.01 343.96 698.55 342.77 699.86 343.36 700.58 345.05 699.9 346.53 698.52 347.46 697.29 345.96 696.61 346.03 696.81 347.59 696.12 350.85 695.27 351.6 697.94 352.22 698.55 353.56 697.47 354.71 696.21 353.4 693.17 353.19 691.85 353.91 690.93 355.3 690.55 357.24 691.22 358.5 692.68 358.44 693.62 359.53 695.05 359.46 695.57 360.29 697.09 360.54 700.68 361.84 699.31 363.32 700.34 364.21 700.46 365.59 698.78 367.37 698.73 369.37 698.16 370.49 695.89 371.59 693.18 371.45 691.79 372.75 691.67 374.51 692.45 375.4 693.63 375.25 694.83 376.88 693.76 378.74 693.6 381.02 694.44 380.65 695.87 382.16 694.67 384.17 696.23 385.68 698.08 386.55 699.32 388.11 700.4 391.18 700.85 391.83 700.27 393.19 701.82 393.29 701.91 394.74 703.06 396.07 705.5 396.37 706.4 395.68 707.4 396.1 707.83 395.36 709.56 395.2 710.76 395.9 710.74 397.43 709.69 398.13 709.28 399.06 710.03 399.83 709.05 401.87 709.23 403.26 710.48 403.69 711.66 404.63 711.12 405.16 711.47 406.89 710.45 408.41 710.46 410.62 708.98 411.78 708.04 411.72 706.46 412.8 705.93 414.01 703.48 416.59 704.6 418.28 703.18 420.07 703.28 421.37 702.47 422.69 700.98 423.05 700.31 422.13 698.26 422.53 697.64 422.27 697.04 420.32 696.97 418.43 695.39 417.29 694.75 417.27 694.18 415.65 692.82 414.86 691.26 414.72 690.62 415.21 689.06 415.17 686.27 414.11 685.3 412.14 682.1 412.85 680.05 413.99 678.83 415.12 677.09 417.5 676.38 418.92 676.25 420.53 677.4 421.19 677.94 422.18 679.72 423.28 680.01 425.29 681.28 427.47 680.83 428.73 682.64 430.43 684.32 430.94 683.11 431.83 683.27 433.18 684.22 434.83 684.28 436.12 683.22 437.73 683.54 438.84 682.91 439.85 683.32 440.88 685.21 442.11 685.6 443.15 686.52 442.64 687.32 443.77 690.23 443.17 691.85 444.24 692.41 445.96 692.11 447.35 691.23 448.53 692.24 449.45 693.42 448.78 695.18 449.54 695.65 450.63 694.51 452.05 693.16 451.73 691.4 452.04 689.6 452 688.67 453.64 692.9 459.16 695.7 462.59 695.36 462.96 688.88 454.67 686.23 455.12 684.5 456.2 683.04 455.47 681.79 455.88 679.5 454.67 678.05 455.31 676.18 455.11 674.96 456.17 675.04 457.54 673.3 458.35 672.11 457.39 671.65 455.76 670.17 455.58 667.64 457.58 667.21 458.52 667.54 459.35 666.73 460.96 665.54 461.93 666.02 462.84 665.79 464.74 664.65 465.52 663.11 465.78 662.18 467.29 662.44 468.26 663.94 468.77 664.7 469.43 662.8 470.46 660.66 473.49 661.13 474.65 659.88 475.44 659.88 476.51 661.66 478.97 661.57 480.06 662.45 481.14 661.95 482.46 660.78 482.7 659.56 481.32 657.09 480.53 654.38 482.55 654.07 483.71 652.65 484.51 652.11 486.23 650.91 486.07 650.65 487.51 650 488.12 648.48 486.9 647.25 486.4 647.3 482.92 640.69 482.82 640.34 484.32 641.22 484.82 640.36 488.36 639.74 489.12 641.48 493.6 641.28 493.71 644.55 502.23 638.23 517.4 636.5 522.82 637.4 523.83 639.43 519.02 640.43 515.94 644.11 507.09 646.29 508.09 653.75 498.62 654.27 499.03 642.14 514.48 641.48 516.08 642.27 516.69 640.77 518.67 642.41 519.93 643.16 518.98 643.92 519.45 645.62 517.5 648.41 513.95 648.6 514.09 645.87 517.65 646.54 518.22 645.28 519.86 650.2 523.76 657.16 514.97 659.59 511.59 663.84 506.18 665.01 507.14 660.81 512.55 660.2 512.28 657.66 515.37 644.8 531.66 646.36 532.92 644.23 535.64 647.21 537.93 653.94 529.43 655.32 528.62 656.64 529.61 657.11 528.23 662.9 520.84 664.91 522.4 665.56 521.67 664.67 520.9 669.84 514.26 671.15 514.95 671.21 515.53 666.34 521.75 664.18 524.13 666.11 525.92 666.86 526.12 667.96 524.8 674.45 529.9 664.48 542.53 663.04 543.41 666.62 546.25 667.11 545.71 669.38 547.5 668.99 548.1 671.18 549.78 671.84 550.73 672.94 551.4 675.13 551.14 675.45 553.59 676.99 554.78 678.16 553.28 677.7 552.89 686.77 541.34 698.49 526.53 699.68 525.57 697.55 523.83 695.23 519.1 690.94 524.62 690.69 524.44 695.11 518.85 694.69 517.92 699.72 511.83 699.4 511.06 701.73 508.3 702.8 508.2 706.09 504.22 705.62 503.81 707.02 502.16 707.5 502.53 708.8 500.93 708.28 500.51 710.12 498.34 710.69 498.74 716.21 492.2 718.36 492.69 701.61 471.05 701.85 470.32 705.54 475.16 716.22 488.92 718.79 492.3 721.66 492.41 724.28 491.14 727.24 490.53 728.86 489.66 729.82 487.69 730.93 486.8 732.78 483.86 733.35 481.29 735.04 480.13 735.55 480.84 737.6 480.31 738.58 481.27 739.74 481.45 741.5 482.42 740.41 484.38 741.88 487.54 742.15 489.74 742.88 490.57 744.28 490.8 744.37 493.04 745.58 493.83 746 495.11 745.24 496.48 746.41 499.71 747.83 500.83 756.27 501.6 760.32 495.95 760.02 492.74 756.54 492.47 756.63 492.08 759.88 492.28 760.84 490.69 762.37 490.45 765.02 488.86 766.92 486.06 769.89 482.4 770.24 481.74 772.92 481.35 773.55 480.7 775.03 480.43 777.16 479.22 777.2 478.29 778.18 476.97 780.22 475.48 781.11 473.78 782.25 472.86 783.09 469.85 784.36 468.06 786.3 466.72 787.8 467.04 788.53 467.8 787.17 469.06 789.03 470.18 788.84 471.45 787.54 472.89 788.31 474.54 785.67 476.15 784.64 476.33 784.29 477.14 782.83 477.31 782.37 478.14 783.35 480.25 782.24 480.2 782.66 481.7 781.88 482.8 781.79 484.7 780.82 485.15 781.25 486.74 779.4 486.91 779.19 488.96 778.51 489.48 778.1 490.98 776.67 490.75 774.83 492.67 773.94 494.35 773.28 493.97 770.45 495.06 769.53 497.19 768.29 497.22 767.77 499.14 768.05 500.81 765.88 501.41 765.21 502.19 765.25 503.33 764.4 503.97 764.06 505.45 765.31 507.73 765.08 508.81 766.37 508.96 766.98 511.38 769.12 511.87 769.21 513.59 769.85 514.33 770.14 516.54 769.14 517.21 767.09 517.93 765.96 517.44 763.2 517.58 762.49 517.85 760.1 516.8 759.02 516.99 756.08 518.94 755.33 520.06 754.16 520.31 753.2 521.7 752.88 523.67 753.48 524.84 754.65 525.87 755.61 525.95 756.77 527.32 756.05 528.12 756.59 530.14 759.74 531.07 760.79 532.02 761.79 535.06 762.01 537.26 762.42 538.68 763.4 539.39 764.25 541.24 764.89 541.29 766.61 544.4 766.32 545.09 767.03 546.68 766.77 549.5 765.72 551.73 766.12 553.95 767.11 554 767.73 554.87 765.83 556.09 765.33 557.04 763.58 557.83 763.18 559 762.11 559.37 761.77 560.91 759.94 561.92 759.5 563.19 758.15 563.74 757.26 564.7 758.05 565.52 757.66 566.54 756.19 566.09 754.72 564.36 751.79 564.28 749.99 564.96 748.62 565.96 747.93 567.03 748.28 567.98 747.29 569.16 747.24 570.6 744.5 571.62 742.61 571.39 742.14 573.47 741.27 574.81 739.67 575.66 737.15 574.94 734.6 574.87 732.59 574.37 729.81 573.13 728.73 571.55 729.05 569.31 731.26 568.5 730.07 561.5 729.38 561.58 729.09 559.17 723.89 559.59 723.93 560.46 716.66 561.08 716.67 563.19 714.22 566.98 714.28 568.76 719.09 575 719.53 574.71 721.16 575.37 722.09 575.34 725.02 573.65 725.06 574.46 721.33 576.44 721.06 577.24 721.58 578.37 723.19 579.81 724.73 580.25 725.92 582.05 724.89 584.02 728.04 585.54 728.22 586.43 728.02 588.64 728.88 590.03 727.46 590.56 727.88 592.81 727.44 594.57 726.13 595.22 727.07 596.06 728.55 598.93 728.84 601.5 730.05 604.37 730.99 605.3 732.35 605.97 733.68 605.37 734.25 606.12 735.5 605.93 737.84 607.29 738.76 606.49 740.86 607.12 741.41 608.7 742.92 608.31 743.2 610.85 743.06 613.6 744.03 614.26 743.8 616.34 744.91 617.61 745.33 619.14 745 619.99 745.87 620.69 745.1 621.94 745.05 623.59 746.32 624.96 748.36 625.76 747.67 627.04 748.29 627.67 748.45 629.64 747.04 631.02 746.67 634.28 745.73 635.28 743.55 638.49 742.34 638.2 742.09 637.42 738.87 637.28 737.88 638.07 736.56 637.63 735.27 637.86 733.69 639.24 731.24 639.98 728.7 639.95 727.92 640.62 727.07 640.17 725.29 641.61 724.98 642.53 724.01 642.28 722.52 642.66 722.3 643.3 718.88 642.32 717.8 640.02 716.32 636.08 714.13 633.37 713.16 632.91 712.36 628.68 711.54 627.54 710.23 626.54 708.44 625.76 707.58 624.35 707.33 621.54 706.99 621.16 703.1 621.11 703.21 620.42 706.57 620.48 706.59 619.32 707.41 619.19 706.29 617.37 703.03 616.29 699.81 616.21 697.33 616.66 694.66 617.57 692.67 618.61 686.45 622.27 684.74 623.58 684.21 625.58 678.79 627.6 676.81 628.65 675.44 630.1 675.31 632.24 673.93 633.83 671.92 635.45 669.42 635.74 667.24 636.89 667.24 638.37 665.54 639.21 662.56 639.63 660.77 640.52 660 641.24 659.38 643.99 658.01 644.65 657.57 645.87 658.63 647.22 657.74 648.59 657.19 651.11 657.77 653.26 658.73 654.57 658.93 655.6 658.43 656.46 657.23 656.94 657.12 658.31 658.53 659.1 659.35 661.07 658.77 663 659.62 667.15 660.51 672.2 662.86 675.69 664.99 677.95 670.98 682.41 672.51 682.63 672.26 683.76 679.45 685.24 680.75 685.25 681.78 681.53 682.66 679.85 683.71 678.87 685.38 676.32 687.26 675.4 691.1 674.66 692.88 673.63 693.75 672.38 694.92 669.35 694.04 667.96 694.83 666.31 695.27 664.24 696.41 662.07 696.67 660.97 698.24 660.68 698.52 659.41 699.38 658.54 699.81 656.2 701.73 656.58 707.56 651.7 711.41 650.08 712.24 650.38 707.91 652.13 701.64 657.41 702.46 659.02 703.17 661.59 704.21 661.81 704.75 662.74 707.26 663.68 707.99 664.92 709.35 664.82 710.76 665.84 711.33 667.5 713.44 668.75 714.47 667.94 716.2 668.04 716.4 669.47 715.52 670.7 717.69 672.03 719.6 673.59 720.23 676.48 719.75 678.01 721.18 678.52 721.05 679.31 721.9 681.37 721.7 682.62 722.6 685.71 720.8 687.02 721.59 688.38 721.3 689.26 720.24 689.47 719.26 688.2 718.28 688.28 717.96 689.67 715.62 690.84 715.44 691.8 714.6 692.1 713.69 693.73 712.05 693.87 710.58 693.46 709.97 693.88 708.6 693.14 706.81 693.27 705.04 694.07 703.14 696.26 702.03 699.3 702.23 700.84 703.22 703.09 704.94 703.9 705.39 706.29 709.05 705.44 710.26 706.22 712.28 716.56 713.29 722.11 711.73 726.73 711.52 728.87 712.06 731.41 714.07 733.06 720.29 736.95 721.14 736.25 722.85 737.52 722.36 738.19 723.57 739.05 727.03 738.93 728.71 739.1 729.31 739.69 732.12 745.01 739.19 759.19 743.87 768.31 746.3 773.28 747.4 774.02 748.06 775.35 748.1 776.79 750.44 776.64 751.37 777.18 751.84 778.77 752.49 779.61 753.54 779.62 753.2 781.2 754.28 781.38 754.47 783.34 755.16 784.3 754.56 786.03 753.56 786.27 752.28 787.63 750.65 787.69 749.81 789.64 750.34 790.97 751.65 791.01 753.45 794.52 756.32 794.48 756.66 795.39 758.92 795.79 758.56 798.09 761.11 800.11 760.29 802.23 761.69 802.57 762.19 804.13 762.02 805.06 763.07 805.94 763.36 806.89 760.39 812.22 762.02 813.83 761.88 816.83 761.54 817.92 760.68 817.78 759.58 819.53 757.99 820.07 756.44 821.14 755.23 821.52 754.88 820.12 751.82 820.57 751.15 819.73 751.09 817.73 751.65 816.9 750.08 816.68 749.3 814.55 750.2 812.97 746.16 810.24 746.8 809.22 743.98 807.7 744.31 806.75 743.29 806.38 742.3 807.36 740.53 806.86 739.64 805.85 739.5 804.4 738.82 803.81 737.08 803.58 737.77 802.25 736.92 800.78 735.92 799.96 733.69 799.35 731.94 799.56 730.04 798.16 728.92 797.7 727.17 798.47 724.29 800.27 722.7 801.76 721.15 801.34 721.15 800.78 718.81 800.41 718.53 802 716.41 801.97 716.43 801.31 714.85 800.51 714.07 801.48 713.23 800.25 712.03 800.65 708.91 801.16 707.86 800.7 707.18 799.55 706.37 800.32 705.26 800.29 705.43 799.19 704.79 798.02 703.43 796.8 700.69 796.37 699.14 795.76 697.84 796.33 696.52 795.8 694.69 796.24 691.75 797.57 690.77 797.79 689.78 796.96 688.72 795.42 686.45 793.23 684.73 793.65 683.12 793.53 681.38 793.84 680.3 792.88 680 789.55 680.82 788.21 680.36 787.72 680.95 785.46 680.57 784.51 682.2 783.17 682.48 782.01 684.26 782.13 685.58 781.07 688.33 780.51 690.41 780.35 692.11 779 692.55 778.03 694.71 775.79 695.33 774.61 695.28 773.32 694.53 770.84 694.9 770.43 694.68 768.57 693.27 765.47 691.97 763.14 690.73 761.97 687.89 760.66 687.86 759.06 686.48 757.92 686.72 756.23 685.87 754.88 686.36 752.58 685.78 751.22 683.97 748.74 682.15 748.13 681.31 744.56 680.33 741.9 680.48 740.94 679.67 737.95 679.25 737.17 676.54 736.1 673.83 735.41 670.79 735.23 668.51 736.19 668.64 737.77 667.66 741.17 669.02 742.14 668.85 742.83 667.12 741.52 664.8 744.1 663.71 744.11 663.39 744.91 661.78 744.48 660.42 744.91 659.43 745.91 657.92 745.94 657.36 746.63 655.77 747.24 654.5 748.2 653.8 749.32 653.93 750.03 652.09 751.04 651.03 752.3 647.96 753.85 645.67 753.8 642.25 759.14 642.01 762.29 652.19 768.69 656.32 760.58 656.8 761.07 652.95 768.23 652.39 769.55 652.54 771.27 650.91 773.18 650.42 774.14 650.51 775.71 650.98 776.37 650.89 779.3 651.86 781.61 651.68 782.76 652.2 783.88 650.03 785.82 647.79 786.39 647.75 785.32 646.3 785.24 645.99 785.92 644.19 785.5 644.34 786.72 643 788.03 641.96 787.63 640.89 787.87 639.71 787.54 637.27 785.35 636.95 784.57 634.19 786.05 633.46 785.54 630.76 785.83 631.18 787.09 629.29 787.64 628.08 787.01 627.66 786.05 625.78 786.28 624.55 785.84 624.1 783.55 623.41 782.82 624.31 781.84 623.95 780.8 622.98 780.6 623.35 779.15 624.68 777.57 626.25 776.68 627.48 776.89 628.73 776.14 630.13 774.78 631.73 771.88 632.31 770.25 632.43 767.41 633.87 764.83 636.8 760.92 636.83 758.9 636.34 757.69 634.63 754.89 632.16 752.03 629.83 750.39 627.7 749.3 623.77 747.62 620.6 746.46 616.22 745.38 615.3 745.86 611.58 745.54 610.27 744.1 608.06 743.15 605.07 742.78 601.83 740.67 598.9 739.32 596.62 739.17 593.84 738.01 592.34 736.92 588.84 736.34 587.63 734.79 583.55 733.3 582.48 733.1 579.42 733.48 575.3 734.92 570.93 737.01 568.84 738.43 566.18 740.78 564.77 743.19 564.66 744.48 563.85 744.96 564.5 746.9 565.24 750.11 566.89 753.55 569.01 757.32 570.61 758.09 571.12 759.1 572.46 759.84 571.55 761.99 570.09 762.82 569.29 762.77 567.85 763.72 567.21 764.91 568.3 766.2 567.53 767.57 567.58 769.13 566.45 769.63 565.36 770.97 564.15 773.87 564.14 776.52 564.91 778.03 566.76 778.2 567.51 780.94 568.11 782.03 569.43 782.53 570.01 783.56 571.55 784.91 570.67 787.44 569.62 787.79 569.18 790.17 569.94 790.55 569.83 791.69 568.41 792.04 567.59 792.77 567.47 793.75 566.41 794.16 565.18 797.64 564.76 800.37 565.53 802.76 566.37 802.34 566.92 803.57 568.46 803.86 569.41 807.49 568.56 807.72 568.86 808.9 570.09 809.94 572.96 811.33 575.59 812.39 577.46 812.61 577.77 813.51 579.24 814.05 579.46 815.05 582.75 817.49 583.99 819.02 584.64 820.48 585.49 821.05 585.09 822.58 583.84 822.03 584.02 824.39 583.12 824.32 583.23 826.67 581.65 827.32 579.9 827.07 579.85 827.76 578.66 828.47 578.76 829.11 577.31 830.18 578.02 831.43 576.86 832.11 576.08 831.77 575.54 833.28 576.35 833.6 576.06 834.67 577 835.4 576.56 837.77 575.96 838.93 576.28 839.79 575.81 840.7 574.69 841.52 573.43 841.46 571.51 841.87 570.43 842.89 566.65 843.1 564.08 843.59 560.64 845.86 559.21 848.17 560.37 850.38 558.76 851.76 558.77 852.62 556.62 854.32 555.62 856.54 552.54 857.88 551.39 858.03 550.17 857.49 547.73 858.6 545.88 861.92 543.58 862.08 542.07 860.75 540.98 860.45 539.89 859.27 537.78 859.32 536.61 858.53 536.65 857.14 535.48 855.81 535.25 854.04 534.77 853.22 530.62 852.04 529.47 852.32 527.88 851.53 528.16 850.71 525.93 848.83 525.57 848.85 521.25 847.45 519.74 847.33 517.9 847.71 513.97 849.16 512.01 849.48 510.47 850.34 506.92 853.24 505.19 854.99 503.24 857.32 500.49 861.6 498.91 864.49 496.68 869.5 495.69 872.23 493.83 878.94 493.7 880.85 492.29 883.1 492.18 885.34 491.72 886.13 490.9 891.19 490.79 896.88 491.1 899.07 491.72 900.74 491.4 903.56 491.75 905.02 493.31 907.34 495.01 909 495.5 910.35 496.52 910.72 497.51 911.71 500.76 913.44 501.44 914.28 501.38 915.32 503.78 914.96 506.37 915.04 507.29 915.63 507.37 916.87 506.83 919.08 508.19 919.38 508.36 921.83 507.15 922.88 507.13 924.26 508.49 925.82 509.86 928.03 510.3 930.14 511.67 929.86 512.48 930.43 515.13 930.68 517.21 931.94 519.58 934.6 519.95 936.85 521.98 938.57 522.52 939.53 521.03 942.35 520.59 944.06 519.78 945.64 518.37 946.52 517.07 946.58 515.6 948.91 515.49 949.83 515.89 951.9 517.3 954.41 517.91 954.74 519.76 956.8 520.93 957.22 521.15 958.08 523.35 958.21 524.08 959.72 525.84 959.9 527.79 960.51 528.63 963.79 529.48 966.09 530.9 966.18 531.51 965.65 533.3 965.45 535.76 965.73 535.96 966.24 538.87 966.81 540.21 965.41 541.77 964.73 543.63 965.65 545.22 965.63 547.57 964.2 549.02 963.76 550.78 964.05 551.17 966.05 552.91 965.58 554.24 965.75 557.03 966.77 559.03 965.25 557.27 962.44 556.31 961.4 557.66 961.17 558.78 959.4 558.17 958.54 558.01 957.27 558.68 956.33 559.7 956.31 560.68 957.33 560.94 959.46 562.3 959.99 564.43 959.3 567.77 959.18 568.67 959.77 570.93 958.68 570.71 957.57 571.77 955.56 573.16 955.93 573.99 955.09 575.41 955.37 575.97 956.89 577.45 956.65 577.64 957.48 579.01 957.54 579.91 958.97 580.54 961.05 581.82 963.16 582.19 964.27 584.8 963.27 585.84 961.86 587.73 960.06 588.77 960.22 590.03 959.22 592.14 958.58 594.59 959.18 595.88 960.35 595.81 961.17 596.95 961.67 597.81 963.81 597.53 965.79 597.75 967.08 599 967.96 600.14 969.79 602.26 969.33 602.86 970.54 604.79 969.91 604.63 971.03 605.47 971.8 607.17 971.75 606.94 973.05 608.47 973.57 607.73 976.42 609.58 975.67 610.23 976.47 608.74 976.95 608.57 977.92 610.09 978.19 610.5 979.41 612.51 978.58 612.63 980.1 611.86 981.62 610.57 983.2 608.42 983.42 606.07 982.92 604.36 983 604.62 981.34 603.59 980.53 601.23 979.65 600.17 978.39 597.68 979.12 597.62 980.3 596.26 981.04 596.54 982.09 595.29 983.26 594.18 983.6 592.51 983.11 591.77 984.55 592.53 985.83 592.4 986.78 592.93 987.9 592.04 989.41 592.22 991.39 593.38 991.76 594.85 994.55 594.35 995.99 594.8 996.72 594.81 999.95 594.13 1001.16 595.05 1001.5 595.3 1002.77 595 1003.94 595.79 1005.29 594.87 1007.89 592.44 1009.87 591.03 1008.14 591.05 1006.96 589.72 1006.86 589.31 1005.47 588 1003.86 585.89 1004.27 584.56 1003.12 583.43 1002.97 581.99 1001.98 582.39 1000.39 583.76 998.83 583.21 996.35 583.68 995.77 583.23 994.48 583.54 993.59 582.22 993.18 582.25 991.99 581.36 991.76 580.45 989.98 580.6 988.04 581.28 987.36 581.43 985.89 579.23 984.51 580.18 984.04 582.52 985.3 583.62 982.14 583.47 980.81 584.09 980.37 584.78 978.4 584.45 977.46 582.44 975.65 581.19 975.56 578.72 976.48 576.38 977.04 576.28 977.86 574.84 978.99 574.47 979.97 575.28 981.26 574.11 982.04 573.7 983.03 571.79 984.72 572.44 985.28 570.85 986.95 569.51 987.16 568.03 986.56 567.45 985.54 566.27 985.49 565.79 984.24 563.96 983.94 563.36 983.1 562.36 983.28 561.63 982.49 559.77 981.66 556.95 979.36 558.22 977.1 556.27 975.79 554.37 976.84 551.38 977.32 551.59 978.21 549.84 978.47 548.41 978.2 547.33 979.32 546.68 979.28 546.25 980.66 545.35 979.43 543.79 979.76 543.06 978.28 541.03 977.95 540.42 976.99 541.09 975.48 539.99 974.4 538.36 973.76 537.8 974.59 535.8 974.74 534.7 973.75 532.9 974.44 531.42 975.53 530.28 977.28 530.29 978.23 531.35 979.15 531.29 980.91 532.1 981.12 532.16 983.29 531.57 983.9 531.24 985.33 530.21 985.95 529 986.09 529.22 988.05 528.64 989.09 529.73 990.09 529.56 991.54 528.72 991.33 528.33 992.46 527.25 991.63 525.99 992.24 523.43 990.61 522.35 990.24 517.42 989.26 516.04 992 514.55 992.2 512.16 990.9 511.69 989.69 510.73 989.64 509.71 988.78 507.96 988.97 505.58 988.86 503.69 988.04 502.87 987.31 501.2 986.98 498.38 987.06 496.13 987.81 494.74 987.91 492.19 989.29 489.92 991.22 486.64 994.71 486.3 995.66 485.08 995.57 482.64 997.21 480.82 997.43 478.8 998.32 476.43 998.89 472.31 1001.18 470.93 1001.76 467.77 1006.61 467.62 1005.38 469.44 1002.61 465.42 998.35 467.63 998.33 468.94 996.02 469.77 996.87 472.02 996.51 472.41 995.39 472.11 992.8 472.68 989.87 472.5 989.31 469.42 986.13 466.47 984.52 464.65 984.24 462.06 986.35 462.08 987.88 460.65 990.5 458.96 992.22 457.71 994.1 456.77 996.09 455.08 996.06 453.28 998.32 452.12 997.44 450.54 996.92 449.47 997.45 448.46 998.63 445.23 1003.34 445.21 1005.5 445.94 1007.39 448.93 1011.32 449.49 1012.51 450.63 1013.24 452.82 1012.77 453.91 1009.63 451.15 1007.07 451.15 1006.12 452.37 1005.44 453.84 1005.72 455.12 1004.63 457.37 1005.3 457.36 1006.79 459.73 1009 461.21 1010.64 462.29 1011 463.02 1012.06 463.96 1012.45 466.94 1010.19 471.71 1008.83 471.5 1009.88 466.62 1011.44 463.76 1013.36 463.88 1016.68 464.37 1018.89 466.27 1022.68 467.32 1022.65 468.04 1023.86 469.09 1023.71 469.71 1024.95 470.25 1027.62 470.09 1030.06 470.58 1030.86 470.46 1032.03 471.47 1033.39 471.47 1035.32 472.5 1036.18 472.45 1037.52 472.99 1038.94 475 1040.95 476.48 1041.29 477.57 1042.1 479.07 1042.64 479.11 1043.37 480.75 1044.33 483.51 1043.9 488.13 1044 488.99 1045.15 490.31 1044.93 491.3 1046.58 492.24 1046.44 493.37 1047.59 494.95 1047.87 496.49 1048.79 496.52 1049.98 497.48 1051.99 499.01 1051.63 500 1053.54 501.53 1053.43 502.23 1055.01 503.52 1055.09 504.16 1055.62 503.78 1056.69 504.49 1059.68 504.33 1061.05 502.34 1061.25 501.27 1063.04 499 1064.21 497.99 1065.8 496.72 1066.34 496.69 1068.71 497.37 1072.65 494.73 1078.57 492 1078.78 485.65 1076.8 477.73 1073.47 471.1 1066.2 470.69 1064.18 469.2 1064.63 465.46 1064.77 465.38 1063.56 467.22 1063.76 466.85 1061.22 464.57 1060.05 462.72 1059.53 460.43 1059.57 459.22 1060.11 458.9 1060.93 457.6 1060.64 455.97 1061.59 450.26 1064.39 447.78 1066.12 447.34 1066.67 446.01 1070.53 446.6 1070.93 446.68 1072.58 447.73 1073.84 446.85 1075.56 446.03 1076.43 446.22 1077.24 445.46 1078.19 445.41 1079.35 444.78 1081.56 442.98 1082.3 443.03 1083.41 442.17 1085.14 441.33 1085.62 439.02 1085.59 438.02 1086.28 436.58 1085.59 436.59 1084.92 434.84 1084.75 431.63 1086.26 430.1 1087.75 429.67 1089.05 428.64 1090.5 427.83 1090.38 426.96 1092.17 426.16 1092.13 425.24 1094.58 422.26 1096.46 422.22 1097.14 420.45 1097.28 420.33 1099.11 419.17 1099.67 417.83 1099.44 416.87 1098.42 415.3 1098.29 414.93 1097.82 413.07 1097.81 411.09 1098.94 410.43 1097.6 408.76 1097.48 407.85 1096.45 407.12 1096.56 405.48 1094.54 403.53 1094.8 400.62 1094.11 399.42 1094.69 397.7 1094.51 398.06 1093.39 396.88 1093.02 394.51 1092.88 393.14 1091.66 391.04 1090.61 389.9 1088.23 390.75 1086.31 389.65 1085.18 388.96 1083.43 386.89 1080.62 385.38 1079.6 382.41 1078.23 380.14 1078.27 379.46 1078.82 378.56 1078.37 377.13 1079.53 373.32 1080.32 368.93 1078.54 368.09 1077.5 367.51 1078.07 366.3 1077.31 364.71 1078.63 363 1079.17 361.1 1080.23 359.33 1081.81 357.86 1082.21 356.49 1082.1 355.55 1081.47 353.49 1081.94 351.93 1082.65 352.24 1083.34 350.65 1084.12 350.97 1084.8 349.41 1085.95 348.56 1088.51 347.77 1088.77 347.13 1090.7 345.41 1091.82 346.23 1093.29 343.98 1093.68 342.75 1095.41 343.2 1096.55 341.11 1097.34 338.85 1097.06 338.17 1096.26 335.49 1096.92 335.18 1097.69 333.73 1097.88 331.33 1097.56 332.19 1096.48 331.63 1095.31 332.5 1094.19 332.8 1091.7 332.61 1090.84 331.47 1090.9 330.19 1089.69 330.7 1088.59 331.83 1088.28 331.09 1086.6 328.16 1085.76 326.88 1084.9 326.68 1083.42 328.7 1081.81 330.88 1081.63 330.88 1080.82 333.66 1078.21 335.56 1076.08 335.79 1072.77 335.36 1070.13 334.18 1067.74 335.72 1065.24 336.56 1063.15 336.57 1060.23 336.35 1057.37 340.59 1054.94 342.66 1052.47 345.1 1053.46 346.33 1053.02 347.91 1053.58 351.78 1054.14 354.29 1056.87 356.86 1054.08 358.69 1052.32 359.29 1052.5 360.63 1051.33 360.76 1049.69 359.46 1048.53 359.27 1041.25 360.77 1040.73 360.12 1039.04 358.48 1039.07 357.03 1040.49 353.59 1039.45 353.71 1037.08 351.94 1036.85 352.17 1035.86 353.41 1034.77 352.75 1032.64 350.43 1032.22 350.46 1030.52 352.3 1030.35 353.74 1030.93 354.28 1031.79 355.54 1031.69 356.69 1030.97 358.48 1032.49 359.81 1032.13 361.24 1031 362.36 1029.59 362.27 1028.13 364.82 1029.81 364.88 1031.04 366.49 1031.21 368.33 1030.66 369.51 1029.82 370.32 1031.73 371.78 1032.67 373.89 1032.13 376.99 1029.59 380.28 1027.24 384.1 1025.65 390.95 1023.51 391.97 1022.64 394.03 1018.84 394.14 1018.14 396.24 1018.5 396.68 1019.41 398.89 1019.83 402.28 1017.7 404.07 1015.64 404.99 1013.59 405.55 1010.74 404.1 1009.45 403.46 1007.79 403.91 1006.08 405.2 1005.51 407.69 1004.86 409.54 1004.92 410.49 1004.39 411.33 1001.76 410.97 998.52 410.31 995.83 408.84 992.04 406.96 990.72 405.83 990.74 404.69 988.6 404.21 989.32 403.07 989.57 401.45 988.46 398.42 987.41 396.15 985.99 393.21 985.21 391.35 985.43 388.74 987.47 387.39 988.04 385.7 990.85 384.47 990.8 382.93 990.22 381.87 990.45 379.03 989.53 376.57 987.01 374.5 985.61 373.35 984.37 370.8 982.23 368.9 981.51 366.79 982.22 366.57 982.64 363.03 985.14 361.28 985.26 359.56 985.98 358.26 985.73 356.41 986.26 354.65 985.37 353.42 985.47 351.35 983.99 351.64 982.99 349.82 982.94 347.43 979.06 345.97 978.41 343.17 977.55 339.68 978.83 337.67 978.23 336.85 976.84 334.22 977.51 330.55 981.47 328.98 982.6 327.07 982.46 327.04 980.34 326.36 978.85 326.32 977.15 328.92 973.66 329.87 970.91 330.3 965.55 331.17 964.29 330.35 961.03 329.95 960.42 330.43 958.14 329.91 956.71 330.75 954.7 330.42 952.08 328.73 950.48 328.75 947.44 329.71 946.34 329.31 945.6 331.31 942.22 330.43 939.5 331.33 937.26 332.07 936.1 332.48 934.54 331.64 933.46 332.74 932.39 333.43 930.87 336.01 929.62 337.32 929.57 339.33 927.61 339.53 926.79 342.53 923.93 342.61 920.94 341.92 918.9 340.83 916.87 338.64 914.63 338.27 913.38 338.57 912.05 335.16 908.15 334.29 907.65 334.9 906.14 336.34 904.22 338.5 902.91 342.75 903.02 345.31 901.19 346.69 898.4 348.21 896.72 348.98 896.41 350.01 897.46 350.88 904.65 352.64 906.35 354.97 907.12 357.54 906.19 360.01 903.71 361.16 903.11 364.95 899.38 366.14 897.09 367.38 896.75 369.23 896.83 373.07 898.05 375.4 899.62 379.06 900.78 379.41 900.34 382.94 901.58 384.65 901.32 388.25 901.92 389.38 901.05 390.07 899.85 391.04 899.66 392.76 898.17 393.86 889.71 392.77 888.45 391.58 887.94 386.16 887.27 385.43 885.03 383.03 883.86 381.36 883.78 378.52 881.64 377 880.93 375.55 880.84 374.01 879.65 371.61 880 370.39 879.02 368.44 878.3 367.51 876.46 368.49 876.59 369.97 875.44 370.99 873.54 372.83 872.17 373.67 870.06 375.1 869.3 376.52 867.79 379.15 866.32 379.87 865.03 380.18 862.73 381.31 861.23 383.12 860.21 384.1 858.82 382.93 855.18 381.64 853.96 379.77 853.13 378.64 854.02 376.69 853.49 375.13 851.43 369.64 853.84 369.02 854.27 369.51 855.82 367.97 855.77 367.3 857.1 363.94 859.52 364.97 860.88 367.49 860.25 367.61 860.63 364.86 861.36 362.97 858.79 362.08 859.17 360.15 859.04 358.28 859.24 357.65 859.66 353.73 859.28 353.5 859.69 349.56 858.89 347.22 860.35 345.74 860.09 341.18 861.62 339.13 859.88 339.25 859.04 338.05 857.36 334.74 855.81 333.09 854.84 330.8 852.87 328.09 852.04 326.08 851.79 324.3 851.87 322.34 852.47 321.41 853.26 320.79 855.86 320.88 857.85 321.62 857.9 321.68 859.41 320.56 860.61 320.66 861.9 318.43 863.34 316.86 864.84 316.34 864.68 313.36 865.73 309.17 866.39 304.84 867.95 303.48 868.65 302.29 869.86 301.79 870.92 301.94 873.4 303.05 874.91 302.89 875.68 303.23 878.43 301.9 879.88 300 880.82 298.51 882.12 297.85 883.58 298.21 886.36 296.46 887.57 294.77 889.3 294.15 891.07 293.29 892.49 291.62 893.18 288.7 893.19 286.31 892.56 286.03 891.15 285.07 889.58 282.09 889.53 279.51 890.87 277.73 891.21 275.2 890.69 271.39 891.9 268.75 890.82 266.17 888.85 264.8 887.05 264.82 885.11 263.67 882.94 263.83 880.94 264.43 879.22 263.63 875.69 265.35 874.65 265.65 872.73 265.39 871.15 263.68 870.84 262.95 871.13 262.88 869.17 262.43 868.77 262.64 866.63 262.17 864.24 263.67 863.26 263.85 861.07 266.41 859.73 267.95 858.16 270.95 853.62 272.78 852.43 274.91 851.7 277.01 852.17 280 853.52 282.86 855.06 284.9 854.45 285.74 853.21 286.8 850.02 288.85 848.63 289.4 847.89 289.98 845.87 294.48 840.64 294.84 838.38 296.25 837.25 299.27 836.95 302.26 836.1 304.06 834.95 304.66 834.1 304.95 831.09 306.38 830.42 306.12 828.6 305.48 826.92 304 825.95 303.31 824.86 301.49 823.87 300.34 822.91 298.64 822.19 296.5 822.18 293.31 821.78 291.46 822.13 290.01 822.75 288.6 822.86 286.22 821.95 285.02 820.46 283.46 819.69 281.79 817.21 279.01 816.14 277.7 816 274.72 816.91 272.16 818.44 270.56 821.31 269.4 822.72 268.53 826.05 268.81 828.73 268.23 830.77 267.6 834.42 264.82 837.09 262.73 839.69 255.4 843.82 254.67 845.99 251.64 847.26 250.33 848.58 250.4 849.47 249.16 852.11 247.61 853.31 244.54 853.97 242.69 855.19 242.03 856.88 241.04 858.34 241.61 861.79 240.47 863.46 238.97 864.1 237.4 864.08 235.76 863.26 235.49 860.87 232.59 857.02 230.92 855.91 231.29 854.44 232.86 853 233.33 850.63 233.04 850.43 233.78 845.49 234.94 843.81 235.81 841.14 236.95 838.9 240.83 838.71 241.53 837.59 241.72 836.14 241.34 833.19 239.94 830.66 238.76 829.95 235.32 830.41 233.78 831.26 231.65 831.37 230.83 831.01 225.34 825.7 225.53 824.19 227.78 822.7 229.96 822.06 232.16 821.74 233.82 821.89 236.62 821.28 241.11 823.12 244.23 823.74 245.33 823.46 248.81 820.59 250.77 819.49 251.94 817.68 252.47 815.83 254.01 816.06 255.37 815.51 255.64 812.85 254.52 810.49 256.01 808.93 256.66 806.64 256.04 804.57 256.83 804.34 256.89 802.84 259.99 801.69 262.58 801.82 264.31 802.89 265.39 802.93 265.28 804.3 265.82 806.46 265.1 809.79 266.02 810.6 267.66 810.65 268.23 812.42 267.79 813.97 268.94 814.97 269.91 815.26 272.15 815.27 272.03 814.47 274.31 813.83 275.43 812.84 275.47 811.81 274.82 809.74 275.56 808.96 278.71 807.86 280.63 809.16 281.24 811.42 282.05 812.45 283.45 813.13 287.35 814.08 289.12 813.83 290.43 812.55 290.93 811.21 293.88 807.08 293.79 806.41 295.03 804.52 296.21 804.02 298.32 804.01 300.54 805.06 302.86 805.53 310.84 805.44 312.6 804.98 313.22 804.46 314.77 804.47 318.92 802.67 326.92 803.12 326.98 803.78 329.06 803.71 334.78 801.17 336.39 799.67 335.74 798.05 337.19 796.79 337.7 795.6 339.74 794.2 340.73 793.98 342.27 793 343.42 791.5 344.83 790.92 346.24 789.11 346.01 785.92 342.48 785.82 342.49 785.4 345.38 785.39 346.17 784.75 346.88 782.24 348.42 779.45 348.83 776.57 349.39 774.53 349.06 771.74 347.95 770.34 347.39 768.44 345.34 768.18 343.52 768.23 341.56 766.02 341.94 764.07 344.08 762.86 345.7 761.4 348.05 760.42 349.13 758.33 349.1 757.16 350.41 756.38 350.84 755.1 351.09 750.6 351.72 748.64 351.44 745.78 349.64 740.54 348.2 738.36 346.79 737.37 346.33 736.47 346.68 734.34 346.06 732.2 345.97 730.79 346.4 729.05 346.46 724.96 351.02 718.89 351.68 717.72 353.74 715.65 355.42 715.22 358.23 713.58 361.04 710.29 362.42 707.09 363.22 704.78 364.76 702.75 367.85 703.07 368.52 702.49 368.83 699.95 370.45 699.96 372.14 698.57 373.56 694.89 374.6 693.32 374.14 690.5 372.19 687.86 367.1 690.84 366.3 690.81 358.73 682.32 355.98 682.55 353.4 681.77 351.48 680.34 351.22 679.42 350.13 678.79 348.94 676.17 346.45 673.82 347.81 672.11 348.27 670.77 350.36 669.17 349.77 665.82 349.98 664.86 349.25 663.9 348.37 661.44 347.08 660.15 346.64 658.81 345.45 657.11 344.53 656.31 340.92 656.98 340.17 655.96 340.52 654.82 340.11 653.86 338.82 653.5 337.68 654.22 336.46 654.13 334.78 654.8 332.84 653.34 331.69 653.32 329.88 653.88 327.85 654.05 327 653.5 327.8 652.29 328.06 651.13 329.25 649.95 331.34 651.05 333.27 650.04 333.33 648.32 330.52 646.44 326.92 644.36 325.69 644.02 324.47 640.92 325.37 640.59 326.03 639.42 326.71 640.72 327.92 640.97 328.22 642.72 328.78 643.35 331.18 642.87 331.31 641.75 333.09 641.59 335.1 640.23 336.52 639.76 339.16 641.3 341.24 643.79 341.49 644.86 341.09 647.49 341.41 648.16 343.14 649.35 344.7 648.88 344.74 647.75 346.87 647.52 347.67 649.04 349.47 650.36 352.25 650.76 356.29 632.37 355.29 631.52 355.8 630.67 353.41 628.7 352.54 627.19 351.02 625.32 349.71 625.18 348.86 623.89 346.12 624.56 344.95 628.23 339.38 627.07 340.12 622.75 339.57 621.6 327.62 610.36 327.18 609.32 325.14 609.69 322.26 609.05 318.16 608.9 317.09 608.35 313.55 607.71 311.68 608.79 310.2 612.54 308.38 614.08 307.16 615.69 306.92 618.73 308.14 620.14 307.26 621.97 305.16 623.92 305.51 626.24 303.31 626.87 301.53 627.7 300.67 628.53 301.93 629.01 301.82 630.13 300.95 631.58 298.69 633.87 298.63 634.58 295.27 634.12 294.95 632.81 292.84 632.2 291.6 633.57 291.25 634.53 291.06 637.83 290.18 639.46 288.78 640.54 287.58 642.75 288.15 643.69 288.02 644.8 287.36 645.61 286.36 644.87 285.98 646.04 286.76 646.98 286.4 648.28 287.2 651.77 287.06 653.55 287.68 655.81 288.9 657.62 288.89 660.05 288.31 661.34 289.51 662.76 289.98 664.52 289.98 665.93 289.55 667.15 290.73 669.33 291.15 670.83 291.21 672.75 289.82 677.13 285.66 678.02 283.04 678.35 280.72 677.58 278.93 676.59 276.63 676.25 274.58 675.6 269.19 677.27 268.46 677.61 265.39 677.02 261.76 676.99 257.84 676.06 255.23 675.79 252.82 675.27 249.48 675.49 246.16 676.21 243.98 676.38 241.73 674.73 240.14 674.06 238.52 673.78 236.63 674.51 235.02 675.49 234.2 677.65 232.91 676.71 233.74 675.28 232.99 674.12 230.83 673.16 229.45 673.23 228.38 670.99 228.91 670.58 227.82 668.42 226.94 668.95 225.7 670.59 225.13 671.97 223.5 672.32 221.19 673.93 220.2 675.61 220.2 676.67 221.7 677.88 222.72 677.96 222.77 681.2 223.93 682.69 223.84 684.22 223.33 685.32 221.76 687.24 221.02 689.15 219.01 690.3 216.83 690.2 214.24 688.45 211.37 685.54 207.71 683.35 207.42 682.24 208.71 680.53 210.27 677.84 209.09 676.89 206.69 677.36 205.19 677.06 203.18 675.89 200.01 675.67 198 675.8 196.32 677.13 194.7 677.13 193.49 678.03 192.04 679.9 190.9 680.4 184.46 679.99 182.98 681.16 182.56 682.01 182.6 684.29 184.25 685.4 188.48 684.79 189.32 684.38 190.86 685.47 191.8 686.95 193.64 688.33 194.6 689.83 193.74 690.01 192.54 691.28 191.38 693.41 189.04 694.03 187.75 693.58 185.5 693.68 184.44 695.08 181.57 695.67 180.24 694.4 176.56 698.18 177.56 700.25 180.21 701.53 182.36 701.91 187.45 701.11 189.86 703.2 191.31 702.68 192.91 703.27 194.09 704.4 195.15 708.21 194.95 712.3 195.99 714.55 196.03 715.62 194.85 716.3 194.05 715.99 193.32 714.63 191.61 713.59 189.24 713.06 188.04 712.32 185.75 711.92 183.05 710.67 181.48 708.58 180.3 707.48 178.94 707.35 177.9 707.76 174.68 710.1 171.9 712.66 171.77 713.3 175.53 717.21 178.42 721.78 180.16 723.07 180.28 724.13 181.12 725.59 184.18 728.54 184.85 729.63 184.11 731.51 183.27 732.7 181.26 736.38 179.85 737.73 176.69 742.69 175.89 745.08 174.04 747.08 172.09 748.32 168.99 748.79 168.2 749.38 166.6 751.45 165.99 753.87 166.05 758.34 165.22 758.88 156.43 756.17 153.12 756.14 148.69 756.81 148.3 755.9 149.29 754.26 149.07 753.35 147.37 751.41 147.58 749.42 147.19 748.26 146.1 746.67 146.58 743.09 146.24 735.45 145.05 732.48 145.64 730.81 145.64 729.36 144.83 727.74 143.1 725.62 140.57 724.44 138.85 722.77 138.52 721.61 132.1 716.4 130.52 715.29 128.09 714.49 124.6 712.53 123 709.22 122.49 703.89 122.51 701.67 122.85 699.44 123.4 698.42 125.53 696.42 127.77 695.07 128.23 694.45 126.99 689.85 124.05 679.49 124.27 678.59 132.64 671.56 131.65 670.31 129.73 671.52 126.13 673.09 122.23 674.38 114.59 678 113.51 679.45 111.67 680.46 109.9 679.49 107.68 678.66 107.25 677.53 105.49 674.82 105.16 673.28 102.45 670.11 101.21 668.2 98.18 667.33 96.15 665.99 95.07 666.82 94.32 666.58 94.62 664.12 92.42 663.68 89.12 662.44 88.23 662.41 84.87 659.7 83.1 658.74 80.4 658.69 80.33 659.07 77.53 659.19 75.49 657.85 72.79 657.26 72.14 656.82 70.62 654.08 69.63 653.04 69.13 650.79 70.99 648.7 69.72 645.85 70.97 645.37 68.85 640.84 66.91 634.58 66.26 633.82 64.85 634.77 64.6 633.6 62.81 631.59 61.36 629.55 62.12 628.87 62.3 624.82 61.24 624.16 63 619.4 63.79 618.84 66.31 619.51 67.13 619.4 68.07 617.99 67.88 616.45 67.06 616.14 66.8 614.93 68.56 612.69 68.3 608.67 67.55 608.12 66.22 607.97 64.75 609.27 63.12 609.14 61.76 609.71 59.49 609.73 59.08 609.23 56.66 608.24 55.33 608.53 55.86 603.29 57.78 601.9 59.2 601.41 58.44 599.47 58.61 598.65 57.78 597.58 57.01 597.59 55.18 596.07 54.27 595.93 54.09 594.94 52.61 594.93 52.21 595.89 52.15 598.37 50.55 599.03 49.96 598.7 51.46 594.15 52.48 592.89 51.62 589.67 51.71 588.57 53.69 583.68 53.2 579.01 53.31 575.9 53.59 575.27 54.24 566.52 52.81 564.14 48.47 562.53 46.63 561.22 47.72 559.92 47.16 557.94 45.31 554.22 44.56 553.69 44.03 551.9 45.71 549.3 48.52 547.02 48.77 545.84 48.46 544.12 47.43 542.16 47.02 540.65 45.53 539.15 46.32 536 47.35 534.83 49.56 533.37 53.78 531.56 54.33 529.31 54.14 526.65 53.12 521.74 53.44 517.61 53.98 516.44 56.68 515.61 59.41 513.08 60.89 512.85 62.82 510.69 64.29 507.69 64.18 506.64 66.32 505.42 66.09 504.99 66.9 503 69.54 503.8 72.59 502.42 75.59 501.67 77.01 496.4 80.17 492.16 79.58 491.3 83.96 488.25 84.62 486.73 83.93 485.32 85.48 484.51 87.65 482.74 88.38 481.67 90.28 480.03 91.17 478.68 92.4 477.53 93.47 474.62 92.98 473.73 90.89 472.85 91.01 471.6 91.93 470.57 93.41 470.55 94.86 469.94 96.89 470.15 97.92 468.91 98.05 467.05 97.77 466.38 95.38 465.25 94.61 464.02 95.22 461.38 97.18 460.68 98.08 459.77 98.33 458.27 100.77 459.01 101.75 459.01 102.99 459.97 104.5 460.58 104.91 462.16 105.83 464 105.74 464.68 106.82 466.35 108.53 467.49 109.93 466.15 111.78 466.49 112.37 465.32 113.93 463.85 113.15 462.05 113.99 461.24 116.19 461.1 118.15 459.82 119.6 458.58 121.86 455.34 122.8 454.95 122.51 453.62 119 454.64 116.54 455 112.97 453.68 112.27 452.94 110.91 452.62 110.6 449.72 109.94 448.84 107.53 448.09 107.13 445.87 107.34 444.13 108.03 442.31 108.19 440.58 109.21 439.75 111.11 440.98 113.31 444.29 115.81 444.65 117.15 446.28 119.14 446.4 120.93 447.17 122.85 447.57 124.23 449.16 125.5 449.33 127.06 448.92 128.62 449.44 131.4 449.31 132.38 448.2 133.1 446.55 134.24 445.58 133.39 444.43 132.14 443.94 131.45 442.42 129.83 439.94 126.05 438.55 122.96 436.86 122.51 435.99 122.62 434.23 122.29 433.09 119.22 430.67 116.43 427.9 117.58 427.09 119.44 427.6 121.24 427.13 123.24 428.34 125.09 429.98 126.87 430.08 127.4 431.17 128.64 431.91 130.17 434.76 131.35 436 133.24 436.61 134.32 439.18 134.97 439.74 136.28 439.76 136.98 438.95 139.34 438.53 139.7 437.85 141.2 438.36 142.85 438.2 144.58 436.05 145.99 435.71 153.12 432.86 155.1 433.6 155.24 432.76 156.57 432.55 157.06 431.69 158.31 431.19 159.72 429.62 160.87 427.16 160.56 424.05 159.54 423.12 158.35 423.19 156.36 421.71 157.81 418.84 156.51 413.3 157.51 412.63 160.47 415.44 161.66 415.47 165.31 414.13 167.43 411.71 167.88 410.44 169.41 409.12 170.44 406.74 170.94 406.66 173.33 403.63 173.48 402.21 174.83 398.35 175.83 393.73 177.83 393.1 178.22 393.77 183.51 395.24 184.88 393.58 184.74 392.12 183.86 391.42 183.11 390.09 183.46 388.94 185.56 389.39 186.46 388.9 188.17 386.76 189.41 385.89 190.24 387.58 190.12 390.36 191.38 390.78 191.72 391.79 192.59 392.08 195.2 391.99 195.21 390.7 196.21 388.07 199.18 387.39 201.5 389.08 199.77 392.01 200.44 392.5 201.12 394.49 200.77 395 204.19 396.81 207.71 392.78 209.3 389.81 217.98 393.22 214.92 401.08 223.63 404.66 222.44 407.04 222.82 408.23 225.45 409.92 225.78 409.38 229.2 411.55 228.88 412.07 233.35 413.59 234.91 414.63 236.41 415.15 236.83 417.48 235.59 417.05 232.44 417.09 230.77 417.87 229.98 420.12 230.76 420.95 230.72 421.92 233.05 426.16 234.39 427.17 236.72 428.28 238.7 429.9 240.72 432.74 242.9 434.6 244.98 435.6 245.54 437.09 248.49 438.81 250.51 438.52 255.25 439.46 257.25 440.83 259.7 441.96 262.29 442.27 263.11 442.67 263.91 442.08 265.16 445.21 266.55 444.96 268.74 442.6 276.75 449.83 273.01 454.22 275.91 455.17 279.99 455.3 281.81 455.68 284.31 457.35 286.7 459.75 287.96 459.45 289.64 461.55 292.37 463.49 296.11 463.64 299.94 465.24 301.31 465.08 303.12 463.65 303.58 462.94 306.62 463.05 307.54 462.68 309.07 463.17 310.32 463.18 312.9 462.41 313.83 461.8 317.92 457.74 319.38 456.14 319.85 454.34 319.25 449.89 319.77 447.82 318.27 445.19 316.48 444.1 314.77 441.74 313.05 440.17 311.06 438.93 309.77 438.95 308.57 439.57 306.88 438.72 305.33 437.35 304.41 437.16 305.13 433.33 307.48 432.17 308.21 431.5 313.72 430.4 316.05 429.77 317.06 428.65 316.36 426.85 320.95 424.75 321.38 425.59 323.52 424.53 324.43 423.46 325.64 423.65 327.74 422.62 328.52 421.48 330.66 419.29 331.99 418.88 333.63 418.87 333.24 416.37 326.73 417.36 325.22 416.88 324.62 415.12 322.93 414.97 320.92 402.9 323.37 402.52 325.31 414.54 325.2 416.27 326.62 417.01 335.2 415.6 335.01 414.29 329.75 414.67 342.71 412.58 346.31 411.8 348.86 411.62 350.9 411.02 351.06 412.08 349.34 412.39 349.21 413.43 349.65 416.04 351.09 415.84 354.15 434.84 356.25 434.5 356.37 435.22 354.26 435.56 354.5 437.05 356.71 436.66 356.87 437.42 354.62 437.83 354.78 438.8 358.32 438.75 358.65 440.87 361.74 440.36 361.47 438.71 372.51 438.55 372.55 437.43 369 415.32 369.72 415.24 372.81 434.52 375.37 450.78 385.67 449.11 385.71 448.83 384.01 438.32 383.67 437.93 381.52 424.88 379.84 414.37 380.55 414.26 384.25 437.29 386.06 448.78 387.57 448.92 389.44 448.49 395.78 447.47 396.17 444.97 397.24 436.15 402.62 436.72 402.35 439.39 399.53 462.81 400.16 466.74 400.82 467.01 403.9 466.5 404.43 465.75 404.37 464.54 405.26 456.47 406.49 454.92 406.83 451.48 410.22 451.91 410.16 450.47 411.07 443.18 411.8 443.27 410.91 450.56 410.52 451.95 414.53 452.45 416.94 455.77 421.24 462.44 421.16 466.49 421.86 466.52 421.72 469.57 423.05 469.48 424.9 472.63 439.86 465.78 441.75 465.17 443.11 465.2 443.53 464.62 444.96 468.22 445.72 472.15 446.38 478.02 447.84 482.52 449.1 481.12 449.71 477.51 449.95 473.38 450.58 469.14 450.13 468.45 451.48 462.69 449.65 460.86 448.38 459.96 446.47 459.13 446.27 456.34 445.12 455.46 443.16 451.91 441.61 452.1 436.48 446.57 437.58 445.16 432.97 440.02 431.26 438.71 430.52 437.7 430.04 436.2 429.71 433.94 428.47 432.77 427.31 430.79 427.11 429.16 426.45 428.24 426.21 426.23 427.07 421.61 428.29 418.99 428.25 417.08 427.27 415.45 427.63 413.85 422.59 406.85 419.16 409.93 416.95 410.9 417.1 411.87 415.54 415.07 413.47 415.75 413.3 413.75 409.99 412.6 409.87 411.85 408.4 411.72 407.82 412.45 407.17 414.74 405.94 414.14 405.43 412.62 404.59 412.05 403.98 410.87 403.72 409.09 404.05 407.06 403.91 403.93 404.56 400.71 405.45 398.88 405.61 397.82 407.54 396.67 409.7 394.29 410.41 392.41 411.06 392.21 411.67 390 411.98 386.99 411.89 383.91 411.56 383.06 410.26 381.69 408.79 381.34 407.71 380.02 406.28 379.96 404.36 380.92 404.19 381.51 402.16 381.42 396.37 379.17 392.84 377.96 389.67 379.84 389.37 379.42 390.92 378.32 382.02 366.25 384.4 364.89 384.51 364.03 382.68 360.2 381.78 356.91 380 358.38 378.58 358.52 374.88 361.8 360.64 345.76 360.92 345.23 366.96 339.8 354.35 330.42 348.91 326.16 347.51 325.79 345.88 326.48 345.24 325.46 346.26 324.63 347.07 324.69 348.25 322.84 347.4 321.45 345.92 322.21 345.06 321.99 343.61 320.87 343.09 319.4 343.03 317.76 344.37 315.87 344.14 314.2 344.52 312.85 344.29 311.26 342.99 308.82 344.53 308.52 346.61 307.34 346.78 306.45 347.89 304.3 349.97 301.79 350.27 300.84 349.82 299.39 350.2 296.2 350.84 295.05 350.69 293.69 349.95 292.59 350.15 291.56 349.61 290.71 348.66 290.54 348.5 289.65 352.12 289.33 357.1 292.27 358.5 293.41 358.89 295.82 360.17 297.83 361.36 299.2 361.71 300.2 363.43 300.5 364.5 300.18 366.67 298.36 369.02 297.01 371.27 295.04 371.7 294.13 371.27 293.18 373.49 290.63 373.72 290.07 375.93 287.51 376.98 286.59 377.5 285.43 377.1 283.18 378.72 280.79 379.74 277.96 379.24 277.12 379.08 275.58 377.24 273.77 377.18 271.28 380.27 271.19 381.23 271.54 382.48 270.15 382.45 267.87 381.11 266.16 380.01 265.86 378.42 264.83 377.09 262.89 376.09 260.65 375.66 259.08 375.82 257.06 376.32 255.31 375.95 253.77 374.52 251.52 374.6 249.9 374.18 248.8 374.08 246.83 375.23 243.71 377.1 241.24 379.02 239.71 380.34 239.59 382.91 240.37 385.48 239.24 389.33 236.9 390.73 236.69 393.97 233.81 394.32 233.21 396.1 232.71 397.37 233.02 398.23 234.38 399.84 235.48 401.6 237.18 402.96 239.64 403.85 239.8 406.07 238.46 406.68 238.8 406.53 240.73 405.68 241.76 403.7 242.17 403.36 242.84 403.61 245.06 404.12 245.77 405.96 246.6 407.65 246.4 408.57 246.84 409.32 247.87 408.91 249.34 407.89 249.75 407.1 251.05 405.73 249.02 403.83 248.62 403.19 248.92 401.91 250.61 400.2 253.82 399.13 256.38 397.52 258.3 397.73 259.85 398.36 260.93 398.71 263.42 398.07 265.1 396.35 265.33 394.89 265.99 394.28 268.14 392.39 268.62 392.76 269.64 392.15 270.52 393.69 271.74 396.28 271.78 399.44 270.75 400.88 269.78 402.35 269.86 404.16 271.04 406.22 269.34 407.71 267.66 409.06 265.06 411.5 262.93 413.04 261.96 413.85 261.93 417.3 260.99 418.65 259.46 419.08 258.21 421.46 256.32 422.4 254.2 423.2 254.05 424.09 252.69 425.86 253.45 426.13 255.86 428.39 257.7 430.01 258.48 430.73 260.23 432.39 260.58 433.91 260.25 436.08 258.83 438.66 256.45 438.22 255.25 438.82 254.13 440.26 254.18 441.6 254.87 442.7 254.75 443.33 253.88 443.65 252.38 444.79 251.54 447.17 252.34 447.83 251.8 449.13 253.69 451.78 254.39 456.52 256.11 458.42 257.59 460.55 257.99 460.65 258.71 462.38 259.83 463.66 260.09 466.75 258.95 466.18 258.2 466.72 257.19 466.38 255.87 468.26 257.01 469.83 257.01 470.77 255.52 470.74 254.28 468.95 253.11 469.24 252.41 468.65 250.39 468.93 248.96 468.64 247.99 465.92 246.33 465.24 246.36 463.03 245.22 462.99 243.95 464.44 243.43 465.75 241.52 467.17 241.67 468.08 242.44 470.24 245.08 472.4 244.67 472.97 245.56 473.63 247.84 473.15 251.16 473.77 252.61 473.67 253.56 474.51 254.5 476.81 255.24 481.29 254.93 482.6 255.66 487.46 260.32 488.44 262.58 491.77 265.5 493 266.89 494.55 266.63 495.84 267.67 497.61 267.47 499.16 268.26 503.13 264 505.45 262.95 508.72 265.73 509.52 267.45 511.06 268.18 511.46 270.18 511.36 271.78 515.76 260.61 516.33 257.74 512.76 256.15 509.43 255.54 509.11 255.81 506.63 255.26 505.13 253.82 505.31 252.6 506.06 250.8 506.03 249.67 505.19 248.24 505.5 246.95 505.3 244.49 504.4 242.57 505.4 240.58 507.57 238.87 507.9 236.72 509.16 235.33 510.13 233.63 510.7 231.98 510.93 230.1 510.75 228.39 509.4 225.86 508.79 224.15 509.02 223.31 510.06 223.33 510.75 220.71 511.07 218.42 512.76 216.63 514.33 216.27 515.83 215.54 515.93 213.96 514.91 213.15 513.81 212.91 512.77 211.94 512.64 210.23 513.03 209.19 515.1 208.39 517.74 209.25 518.18 208.01 517.11 206.15 515.93 204.81 513.87 204.21 513.19 203.09 512.56 200.52 513.36 199.75 516.68 200.76 516.86 200.28 518.77 200.98 519.53 199.34 523 200.25 525.98 203.26 532.96 199.86 532.98 198.57 534.2 197.47 533.52 196.41 533.9 195.34 536.45 193.65 537.35 193.43 536.81 190.33 532.65 188.44 531.09 189.01 529.16 187.73 526.97 187.6 525.42 188.83 522.59 189.2 521.07 186.89 520.58 184.06 522.21 182.15 522.63 180.73 521.34 178.51 522.2 177.26 522.2 175.94 520.91 174.09 521.21 172.54 521.78 171.85 521.84 170.01 524.93 166.25 525.02 165.12 525.98 164.59 526.6 166.6 527.46 167.4 528.84 169.55 529.18 170.81 531.5 171 533.59 169.99 535.73 167.2 535.52 165.92 533.82 164.57 533.79 163.83 536.14 163.8 537.62 163.31 538.53 164.2 539.82 166.15 541.01 166.01 542.19 164.96 544.61 165.42 547.34 164.19 549.44 164.88 549.28 166.27 550.29 167.23 550.31 168.06 551.52 168.08 553.08 169.34 554.64 172.14 557.07 171.21 557.48 168.21 557 167.61 556.88 164.89 554.45 164.41 551.12 161.51 550.51 160.41 550.66 159.15 549.84 158.33 545.64 157.04 543.05 155.25 540.3 154.86 537.11 152.87 537.77 151.06 540.35 149.4 540.46 147.81 537.74 144.95 536.19 144.44 535.59 143.33 535.78 141.62 536.86 140.73 538.01 141.04 540.01 142.13 541.4 141.97 543.39 142.87 545.23 142.57 547.15 141.06 548.37 141.16 549.04 142.13 549.66 145.43 550.19 150.9 551.33 151.85 553.55 152.22 555.37 151.34 556.03 150.42 555.48 148.04 555.64 147.44 558.36 144.17 558.93 142.29 560.92 139.62 562.47 138.57 565.79 137.24 567.7 137.24 567.55 139.77 567.78 143.01 568.19 143.57 570.91 143.56 570.93 145.42 572.61 147.9 573.26 150.6 572.65 154.02 572.83 155.03 574.5 155.75 575.64 154.08 576.64 153.47 578.23 154.36 578.28 157.02 576.9 157.14 576.65 158.15 576.51 161.22 577.03 163.77 576.74 164.92 580.49 169.49 584.65 168.77 584.81 170.46 584.22 171.27 584.92 172.92 586.9 174.01 588.77 173.83 589.67 170.09 593.46 168.57 594.64 166.48 594.92 164.42 593.29 162.16 593.82 161.37 593.82 158.11 592.47 156.35 591.17 156.5 590.52 155.96 590.68 154.77 591.54 153.32 591.4 151.32 588.96 149.13 586.6 148.64 585.99 147.65 586.54 145.29 587.18 144.32 586.88 143.4 584.37 142.02 582.12 141.95 579.93 140.97 576.92 141.49 574.5 139.52 573.42 138.07 572.33 135.73 572.49 132.9 573 130.85 572.63 129.53 573.33 129.12 574.61 129.9 576.53 129.35 578.68 129.67 580.79 128.8 582.18 128.89 582.94 128.09 584.72 127.52 585.26 127.8 586.22 130.88 587.9 131.79 590.57 131.41 592.83 128.79 595.1 127.88 596.69 125.9 596.62 123.56 595.73 121.33 595.55 119.12 594.14 118.32 593.61 117.55 594.07 114.6 593.88 113 595.08 111.52 594.28 111.11 594.58 109.46 590.72 104.48 588.67 106.54 587.84 106.94 585.71 108.89 584.4 113.44 583.81 114.2 583.44 117.21 582.69 118.88 581.72 119.39 579.92 119.1 577.54 116.5 575.68 115.75 574.55 116.06 573.72 117.06 572.01 116.55 570.6 116.56 570.26 114.54 569.68 113.06 568.64 111.62 568.32 110.49 566.71 109.93 564.6 110.6 563.03 110.57 562.25 111.36 560.26 111.58 559.21 111.18 557.35 111.15 556.81 110.19 557.11 108.82 556.73 107.1 558.04 105.53 558.27 104.44 557.21 102.84 557.75 100.47 557.48 97.52 560.32 96.66 561.09 95.87 562.89 95.84 566 93.91 567.29 91.56 567.39 90.28 565.65 88.71 565.29 86.45 567.51 82.39 567.22 80.22 567.38 79.24 565.83 77.27 565.22 73.13 566.61 70.77 567.3 67.52 567.81 66.64 566.85 64.77 567.4 62.64 568.62 63.18 571.2 66.14 573.86 66.5 576.23 65.82 577.83 64.94 578.59 63.9 577.65 61.52 577.02 59.31 577.26 57.7 576.83 56.44 576.53 54.2 576.74 53.05 576.02 51.79 575.71 45.24 577.29 43.76 578.14 42.42 578.56 40.49 578.1 37.66 577.64 36.62 575.52 35.79 576.19 34.93 575.2 33.72 575.92 30.76 577.39 28.81 578.03 28.64 579.08 27.2 580.26 26.84 582.31 24.99 583.3 25.32 583.52 27.7 582.69 28.85 583.57 29.99 585.48 30.17 585.92 28.68 586.79 27.41 587.96 27.06 588.75 26.07 590.24 25.27 592.16 26.4 592.5 27.66 594.15 27.06 596.05 28.06 597.41 27.19 598.66 25.39 600.07 24.84 600.64 24.05 601.35 21.67 601.58 19.42 600.67 16.96 598.62 16.05 597.17 16.25 596.08 15.69 594.55 14.14 593.14 13.99 592.33 12.31 589.29 10.07 587.51 11.22 586.01 10.11 584.96 10.25 582.74 8.44 581.19 7.87 579.93 8.44 578.74 8.14 577.07 6.03 577.11 5.51 575.16 3.59 574.88 2.56 580.11 2.16 580.42 1.43 583.54 1.39 584.8 1 Z" fill-rule="evenodd" id="38090000"/>
</g>
</svg>