<?xml version="1.0"?>
<svg xmlns="http://www.w3.org/2000/svg" version="1.2" baseProfile="tiny" width="800" height="838" viewBox="0 0 800 838" stroke-linecap="round" stroke-linejoin="round">
<g id="sigung">
<path d="M 355.22 85.65 365.5 86.68 389.38 89.27 410.59 79.13 431.88 72.34 462.38 71.62 474.7 71.38 496.11 70.71 505.38 70.51 532.98 83.6 539.28 86.71 560.98 100.17 586.12 107.02 604.06 111.69 610.37 116.31 632.41 132.15 647.53 142.89 650.41 145.04 669.33 161.41 674.93 166.42 691.26 186.44 709.34 200.01 717.69 206.13 734.49 205.78 748.78 205.7 757.7 205.54 777.54 215.76 799 217.72 784.5 232.76 782.26 236.61 780.42 237.63 777.73 239.9 775.73 243.68 775.36 247.61 774.14 252.14 773.01 254.47 770.89 257.56 764.8 264.83 763.49 265.77 760.35 269.3 757.24 271.39 753.35 271.07 752.48 270.39 752.67 268.38 755.6 262.14 756.28 256.89 755.51 255.36 750.61 248.47 748.71 246.43 746.54 246.29 745.28 247.5 745.63 254.63 745.03 260.44 744.2 263.91 744.3 269.26 745.39 270.94 745.56 274.65 746.24 278.15 745.94 280.58 744.02 282.3 740.27 281.76 736 280.48 732 280.31 727.08 281.46 723.21 283.01 716.51 284.3 714.54 285.59 712.68 289.57 712.58 294.61 715.23 302.71 717.43 310.02 718.16 314.44 718.35 319.79 717.26 333.22 716.22 338.46 712.36 343.1 710.09 347.54 706.5 352.04 703.54 354.15 698.11 355.68 691.39 358.17 688.66 358.89 684.74 360.57 682.88 360.94 680.43 360.74 678.65 359.96 676.54 358.17 671.93 355.01 669.43 354.04 656.44 347.51 654.15 346.2 646.5 340.45 641.18 337.21 636.74 333.73 633.39 329.05 631.6 325.56 628.58 321.6 626.21 318.02 622.83 315.67 620.61 315.47 618.99 316.42 616.03 318.99 609.27 323.44 605.58 327.15 604.32 328.81 602.81 333.72 604.14 341.53 604.98 348.45 604.37 351.47 601.46 356.42 598.65 360.52 596.8 363.72 596.46 367.46 597.46 370.87 599.17 375 602.7 380.43 605.58 382.46 609.62 384.39 610.72 386.26 609.74 387.7 607.68 388.84 602.84 390.67 596.68 394 588.36 395.31 585.01 394.4 578.99 392.37 573.22 393.53 565.56 392.62 560.29 392.65 555.61 392.12 548.87 392.01 545.44 391.23 540.89 389.35 539.81 389.38 538.84 391.95 534.08 394.98 532.46 397.01 530.92 397.56 529.23 396.06 528.59 394.29 526.77 393.56 525.71 394.69 526.04 397.22 525.01 398.75 522.7 399.82 522.23 400.86 524.76 403.91 526.04 407.44 526.19 410.49 524.42 411.41 522.22 410.49 520.5 410.84 519.91 412.09 522.77 414.23 525.15 415.02 524.53 417.04 522.88 417.75 522.31 420.07 524.6 420.28 528.49 419.33 531.31 420.55 529.93 422.68 530.03 427.47 531.02 428 532.69 427.37 534.44 425.52 536.45 425.03 536.47 427.93 537.27 429.94 540.2 428.96 542.13 429.24 544.61 430.91 545.71 432.97 548.18 439.02 552.36 441.91 553.06 443.03 556.19 443.54 559.71 445.44 560.16 448.2 561.46 449.31 563 449.41 563.53 452.47 562.45 454.71 564.03 458.6 567.36 463.77 566.31 465.81 567.61 470.88 565.89 474.2 567.58 476.76 567.54 479.38 568.03 480.63 567.59 482.81 568.72 484.04 569.93 487.34 569.24 488.67 570 489.83 572.9 491.17 574.24 493.18 576.21 493.15 579.79 497.15 579.29 498.52 577.28 499.42 575.94 502.49 576.7 505.45 575.82 507.69 574.47 509.15 573.65 511.95 574.21 516.96 574.86 518.86 573.73 522.63 575.64 525.06 575.24 526.46 577.43 527.28 579.07 528.54 578.34 532.94 578.98 534.86 578.29 535.6 579.55 537.37 579.01 540.68 580.6 543.03 582.25 543.81 583.3 547.66 583.23 548.87 584.96 553.27 586.27 554.33 586.71 556.74 588.72 561.13 594.13 567.81 594.38 571.45 596.84 574.12 598.44 576.8 598.64 579.26 600.33 581.57 600.81 585.99 601.6 586.88 598.55 591.59 596.92 596.45 597.45 598.75 599.81 601.96 600.6 605.14 599.87 611.77 604.87 619.07 605.65 622.3 607.71 627.33 607.68 631.75 610.43 636.04 611.52 640.99 610.41 642.64 612.17 645.09 613.17 647.54 614.92 649.88 616.08 652.26 618.71 655.9 620.25 660.05 622.34 661.47 624.3 664.59 624.94 666.31 630.4 675.11 632.81 683.43 631.55 695.92 633.3 704.52 635.67 705.54 637.67 708.2 644.01 705.06 645.76 702.52 648.36 700.74 650.18 704.86 652.16 707.38 652.91 709.42 653.49 713.72 654.65 715.26 656.76 716.72 657.7 718.6 659.61 720.32 660.35 722.6 661.07 728.14 659.56 730.99 656.84 733.74 654.61 734.19 651.74 735.97 649.34 736.21 643.71 738.1 640.61 737.55 635.79 741.73 632.37 742.56 628.61 744.51 625.86 745.03 623.21 742.23 621.88 741.65 619.53 738.24 610.5 739.74 609.02 740.41 603.9 738.38 595.08 742.16 582.51 747.31 577.5 749.95 570.07 754.57 567.7 753.77 564.7 754.07 562.72 752.14 559.98 751.4 555.92 751.11 547.54 754.08 539.27 758.81 536.3 760.84 528.85 749.3 526.65 746.18 525.07 744.8 513.06 736.73 487.46 715.28 484.4 714.27 439.53 697.38 437.95 697.1 423.17 697.31 420.18 697.96 386.59 709.08 384.07 709.98 377.74 713.32 373.5 715.97 369.23 719.31 366.43 719.91 348.88 747.09 346.64 746.63 342.48 753.06 342.19 753.9 338.56 759.14 343.86 762.7 342.49 764.28 339.15 762.04 335.49 767.22 303.5 811.81 300.66 815.66 297.97 819.27 297.6 821.81 295.35 823.82 290.81 825.45 277.71 835.99 275.97 835.97 274.93 837 271.14 832.69 268.52 829.26 266.49 825.95 261.21 825.82 258.25 823.8 256.13 823.13 250.37 825.28 247.85 823.32 244.9 824.13 244.2 828.04 241.66 829.34 237.54 827.73 231.15 820.95 226.83 817.54 222.4 817.76 215.67 813.25 214.8 803.85 215.63 801.79 215.21 799.35 217.51 797.81 219.99 795.25 222.42 790.61 225.28 787.51 223.88 782.4 225.65 774.23 227.2 770.08 225.08 765.94 230.68 755.42 230.15 754.57 229.98 750.74 227.67 749.04 220.93 744.8 219.51 746.66 218.82 742.5 216.3 736.06 217.32 733.79 210.45 731.54 208.79 729.86 205.15 729.67 202.7 728.98 200.46 729.65 196.05 722.26 194.66 718.46 192.1 716.62 191.09 715.16 188.26 712.69 186.42 714.47 183.18 711.82 182.69 709.26 180.97 705.8 177.41 703.29 175.49 703.06 176.89 699.29 175.99 697.95 175.79 695.07 176.81 691.39 178.19 690.67 179.55 687.41 178.82 686.54 184.84 684.87 182.05 682.13 179.92 678.71 178.18 674.65 177.35 669.43 174.24 663.79 171.36 662.91 170.42 658.87 168.35 657.37 167.6 655.6 161.79 651.08 160.51 649.83 152.97 640.08 151.06 638.62 147.63 637.98 144.13 635.74 141.94 635.49 139.04 633.77 126.91 631.43 125.43 630.56 122.54 627.63 120.6 627.37 118.28 624.71 116.34 623.28 114.57 620.71 111.71 618.36 109.51 617.05 108.01 614.56 107.82 611.77 108.44 610.51 108.05 607.48 108.58 605.48 109.61 605.09 109.23 601.31 111.34 592.48 112.1 591.87 114.63 583.76 111.45 578.28 116.9 577.71 126.06 575.02 133.03 572.49 132.53 571.05 127.54 561.59 124.06 550.56 120.21 550.27 100.38 548.37 98.11 546.47 94.38 538.04 93.67 535.49 93.04 529.08 93.2 526.42 91.49 521.58 93.48 517.25 92.07 506.35 84.87 501.55 83.21 499.56 74.29 490.84 72.89 487.13 72.21 478.31 65.7 467.96 64.64 462.64 61.66 451.25 57.91 445.1 57.1 444.65 57.61 441.19 60.17 439.8 65.57 435.32 68.43 433.35 68.7 429.92 70.31 427.35 74.91 422.66 83.68 418.62 89.34 414.18 91.96 408.36 93.68 406.32 92.06 401.5 90.25 399.71 88.39 399.28 86.71 397.71 81.92 395.13 80.74 392.98 78.48 386.68 77.41 385.05 74.33 383.55 72.94 383.73 71.02 385.88 69.47 386.3 67.13 385.12 63.64 381.34 63.3 380.18 59.29 376.87 58.22 375.08 54.99 373.79 53.39 371.96 53.1 365.04 55.18 361.28 53.52 358.82 52.92 356.07 54.81 351.9 51.71 349.04 50.25 345.52 51.02 342.82 48.9 344.02 47.35 344.24 44.25 341.03 44.08 336.95 42.73 335.51 40.74 331.89 40.58 330.02 38.77 328.09 36.25 330.09 35.2 327.42 32.05 322.83 26.42 318.25 24.19 317.04 24.86 314.65 24.74 312.71 28.11 309.82 28.85 307.6 33.83 303.79 37.15 300.73 38.2 296.41 38.67 290.75 39.44 288.47 42.76 284.41 44.58 275.98 42.32 271.85 41.77 269.64 36.78 266.87 35.5 265.02 33.57 265.4 30.35 263.65 26.95 259.45 26.9 257.59 24.36 252.69 22.78 251.71 24.1 250.31 24.46 247.95 27.5 245.44 23.11 240.1 21.44 237.19 20.52 234.06 20.92 232.96 19.63 231.37 18.71 229.06 16.11 228.51 14.77 224.8 13.03 222.52 14.95 220.69 14.89 218.86 16.83 217.09 19.65 216.02 19.25 213.36 22.1 213.72 23.31 213.01 22.93 210.75 21.99 210.87 19.11 209.62 18.14 208.39 15.02 207.26 13.57 204.41 6.19 202.55 4.25 201.46 4.01 200.03 2.69 197.85 1 196.97 7.32 189.91 8.17 187.69 10.61 186.48 10.25 182.61 9.06 179.89 8.44 176.46 10.83 176.86 12.26 176.51 15.35 176.8 17.58 175.98 19.92 176.13 21.27 175.29 24.53 175.88 29.77 174.94 32.47 174.95 34.03 172.28 37.42 173.02 41.38 172.24 45.01 172.49 46.4 172.02 47.93 170.06 47.55 167.27 48.14 165.45 48.18 162.72 47.6 158.45 47.82 154.35 48.93 152.56 53.39 149.47 54.78 149.09 55.73 147.31 57.53 146.68 60.5 141.38 61.47 136.56 64.72 135.98 69.74 132.92 69.01 129.29 65.78 125.9 65.88 125.13 63.94 121.71 63.5 119.78 60.85 117.18 60.05 112.9 60.79 112.37 60.46 110.3 58.18 108.25 57.05 103.88 58 103.25 58.13 100.26 60.51 96.42 61.59 95.64 62.49 90.78 63.46 88.73 64.02 85.69 63.37 83.47 64.58 83.29 65.88 79.79 66.54 75.9 65.44 62.32 67.49 61.63 99.05 40.97 130.7 9.63 162.26 1 168.42 5.29 180.84 22.17 195.18 38.68 215.76 55.74 236.65 72.46 256.95 89.18 260.91 92.53 282.68 109.76 292.07 116.8 304.15 112.22 325.25 96.43 346.54 89.6 355.22 85.65 Z" id="38111000"/>
</g>
</svg>