<?xml version="1.0"?>
<svg xmlns="http://www.w3.org/2000/svg" version="1.2" baseProfile="tiny" width="800" height="515" viewBox="0 0 800 515" stroke-linecap="round" stroke-linejoin="round">
<g id="sigung">
<path d="M 216.65 511.67 219.13 508.17 218.17 505.46 216.05 503.62 211.31 504.39 209.27 504.15 206.33 504.72 201.45 504.07 199.85 501.85 197.11 499.66 204.46 496.64 207.31 493.85 211.57 493.54 212.4 492.79 215.52 493.29 219.29 496.01 220.33 499.46 221.82 502.62 223.51 504.47 225.36 504.93 228.4 504.85 229.21 505.54 227.13 506.71 225.97 508.91 225.57 511.71 219.06 514 217.43 513.21 216.65 511.67 Z M 356.01 469.66 358.09 470.42 359.95 472.64 360.07 474.13 357.96 476.09 355.49 475.48 353.74 477.05 351.74 477.03 350.52 475.58 350.47 474.17 351.36 472.61 352.7 471.66 355.08 469.05 356.01 469.66 Z M 369.16 422.35 370.31 423.11 372.56 425.69 374.06 426.58 371.75 429.47 370.24 428.63 367.8 428.91 367.23 426.24 367.17 424.15 365.96 422.96 366.76 421.05 369.16 422.35 Z M 307.79 419.77 312.38 420.16 313.43 420.89 313.74 423.26 312.81 426.17 312.56 428.48 311.22 430.91 310.66 433.41 308.7 434.86 307.46 434.23 307 432.66 306.78 429.14 307.37 428.68 307.57 426.29 305.39 424.08 303.95 424.3 302.73 423.7 301.36 425.6 296.98 426.95 295.63 428.96 294.66 428.5 292.76 428.93 290.58 430.72 287.24 430.3 284.89 430.48 283.81 431.45 282.48 431.29 280.23 433.11 278.18 433.23 276.72 432.49 277.01 430.78 278.43 429.63 281.48 428.34 282.64 427.2 284.34 427.38 287.55 426.2 289.3 426.87 291.26 425.7 294.52 426.16 296.95 424.87 298.24 423.14 299.28 422.63 301.95 419.48 304.73 419.82 305.82 419.28 307.79 419.77 Z M 353.62 404.01 355.76 404.43 357.05 403.56 360 402.67 364.64 406.12 365.99 408.15 367.47 408.72 368.03 410.14 366.33 411.7 365.76 411.37 363.12 412.44 358.78 411.17 354.13 410.72 348.94 409.47 346.82 408.72 345.92 407.59 345.31 404.95 346.32 403 347.48 402.2 350.05 401.7 352.13 403.41 353.62 404.01 Z M 394.39 374.71 394.98 376.26 396.78 377.12 396.85 378.09 398.68 378.36 413.21 378.06 413.97 378.45 396.63 378.8 395.57 379.73 393.92 382.27 392.82 385.22 393.32 387.49 394.32 388.82 396.12 390.28 397.11 391.63 397.46 393.12 395.5 395.03 392.7 396.43 390.86 396.47 388.3 395.41 387.35 393.58 384.62 393.6 382.74 394.32 380.45 396.15 379.25 396.29 377.63 395.65 377.76 394.07 379.61 392.49 381.89 392.33 385.82 389.44 387.18 386.67 387.72 384.61 389.65 380.5 390.65 377.01 394.46 376.31 394.39 374.71 Z M 385.2 359.09 391.58 364.69 393.12 364.54 394.63 366.2 392.35 368.37 390.24 368.99 388.45 371.22 383.93 372.28 382.38 373.44 380.23 371.69 379.59 370.23 379.01 367.19 379.18 365.26 380.46 364.95 381.46 363.55 382.05 361.47 383.27 359.29 385.2 359.09 Z M 392.28 348.32 392.58 349.36 391.36 350.17 389.84 349.84 390.49 348.54 392.28 348.32 Z M 220.43 338.68 222.15 338.87 222.85 339.66 225.8 341.13 225.4 342.21 223.87 342.62 223.59 343.84 221.35 344.81 219.58 346 218.03 345.66 216.17 342.68 217.15 340.24 220.43 338.68 Z M 152.62 310.6 155.66 311.51 157.93 311.81 161.37 311.65 164.41 312.02 170.82 311.44 171.89 312.15 176.41 311.2 179.5 311.06 184.99 312.17 187.05 312.21 188.46 313 187.24 314.21 184.94 314.64 181.83 316.46 179.2 316.96 174.83 316.89 172.39 316.04 170.59 317.65 168.4 317.79 167.81 320.01 169.89 322.54 167.74 326.12 165.35 327.19 164.63 328.89 165.16 329.73 168.35 331.24 172.18 330.81 172.3 329.51 174.1 327.05 177.21 325.02 179.65 324.87 180.73 325.57 181.99 325.14 183.79 326.18 184.27 328.31 185.01 329.29 184.95 330.74 183.14 331.88 177.96 332.22 177.11 333.89 176.6 336.24 177.49 337.25 178.9 340.65 181.29 344.06 182.73 344.01 183.81 345.03 184.76 349.62 185.56 351.1 187.56 353.58 187.71 354.52 186.64 357.21 184.64 357.18 181.93 353.41 180.97 352.71 179.93 350.09 180.18 348.75 178.76 347.56 177.6 348.05 175.2 346.57 174.22 343.92 171.67 342.69 169.95 342.5 169.24 341.71 167.59 341.43 166.84 340.31 164.49 339.82 162.66 337.78 161.46 335.57 158.95 334.96 156.67 336.03 152.34 336.06 150.23 335.25 148.4 336.12 148.48 337.08 146.85 338.78 144.86 338.64 143.59 337.47 144.1 336.33 142.31 335.33 140.47 336.43 140.13 337.59 137.16 339.02 135.85 338.32 134.48 336.12 134.3 334.09 132.82 332.96 132.79 328.95 131.71 327.68 130 327.03 127.98 324.63 128.55 322.17 130.5 322.02 131.68 324.66 134.01 325.18 136 324.14 138.79 323.53 142.22 324.3 144.48 325.61 145.94 325.06 147.23 323.34 147.06 321.91 146.16 321.02 145.67 318.88 144.73 316.86 143.07 316.95 142.76 314.53 144.52 313.2 145.77 311.69 147.29 310.88 152.62 310.6 Z M 203.92 279.18 204.72 280.51 203.99 282.49 201.61 282.35 201.24 281.68 202.47 279.85 202.92 276.16 203.73 277.42 203.92 279.18 Z M 206.05 263.74 205.21 264.39 203.47 262.48 203.84 260.73 205.13 261.31 206.05 263.74 Z M 151.95 259.17 152.46 258.87 155.05 259.78 155.63 260.83 151.42 266.15 149.71 267.54 148.28 264.09 145.11 261.37 145.02 260.72 146.79 258.89 146.93 258.1 148.88 256.84 149.84 256.91 151.95 259.17 Z M 47.61 220.06 47.51 222.21 46.4 224.01 44.47 225.23 42.78 224.96 41.58 223.78 41.03 221.45 42.22 219.45 45.2 216.58 47.08 217.18 47.61 220.06 Z M 257.58 203.4 255.96 204.44 253.42 203.45 252.37 202.03 251.59 199.97 252.63 196.92 253.48 196.63 256.08 196.98 257.73 198.32 258.66 201.22 257.58 203.4 Z M 450.55 54.1 455.55 54.89 460.84 53.82 466.86 55.15 468.49 57.91 470.43 57.3 477.33 54.53 483.82 52.56 488.01 54.95 493.11 58.54 500.12 62.66 504.39 55.65 504.24 48.9 509.03 48.56 510.65 49.38 512.27 48.8 519.25 48.29 524.99 46.13 526.26 49.59 528.88 52.54 532.08 55.51 534.06 56.81 536.05 57.46 537.41 60.61 545.14 63.49 547.84 64.75 552.99 66.77 555.28 68.23 557.53 72.3 563.51 75.14 571.07 80.9 575.08 83.21 581.24 84.01 584.2 86.22 589.25 88.13 591.71 87.53 594.13 88.57 599.08 88.35 601.75 90.07 603.27 92.55 610.83 92.96 612.82 92.67 613.32 91.97 614.95 92.4 617.4 91.06 620.69 90.56 626.8 92.11 628.56 91.89 630.4 94.15 631.93 97.04 630.94 105.16 632.63 107.73 636.87 109.29 638.92 112.89 640.74 113.67 643.09 115.32 645.65 119.9 647.4 121.54 647.09 123.21 651.99 128.94 653.95 133.52 655.97 133.86 657.43 136.89 658.61 143 658.64 145.07 659.21 146.56 658.19 153.89 662.99 153.97 666.37 153.6 669.01 152.31 672.8 151.64 673.47 151.14 675.06 152.56 675.6 155.78 676.73 156.95 676.93 159.52 675.82 163.49 676.97 165.04 680.05 167.89 684.59 171.64 688.85 173.93 690.7 176.02 691.54 177.82 693.67 180.62 699.9 186.49 703.4 191.04 704.78 191.55 712.14 191.62 715.1 192.61 716.07 193.27 718.98 193.83 725.17 196.19 727.12 197.27 731.36 196.57 733.39 197.08 735.84 198.6 736.6 199.84 741.39 203.08 741.89 206.91 743.84 208.64 746.58 208.09 749.95 207.86 752.33 208.24 754.79 207.2 755.47 205.65 759.58 202.27 762.23 201.7 762.92 200.99 768.2 205.7 768.62 210.9 770.38 216.29 774.53 220.8 776.72 222.28 778.31 224.69 779.47 225.09 779.73 227.31 780.98 228.73 779.96 229.53 780.29 230.75 779.24 232.19 779.4 234.58 778.41 235.38 779.05 237.81 777.22 239.18 776.93 240.27 775.1 241.41 773.7 245.27 774.67 246.89 776.42 247.11 776.68 251.37 778.85 254.49 779.19 256.97 782.6 261.01 785.27 261.49 787.91 260.82 791.72 262.39 793.33 263.43 797.17 267.68 797.82 269.12 797.62 274.32 799 279.17 798.82 285.45 797.82 287.36 796.05 292.02 795.64 294.02 792.85 297.28 794.11 298.56 786.27 303.4 783.8 304.55 782.72 306.09 781.32 306.42 781.33 308.58 778.88 309.28 777.7 310.26 774.58 313.93 771.18 316.14 768.23 316.18 763.35 313.69 760.3 312.88 750.55 313.6 743.52 313.95 737.68 314.57 733.58 316.11 732.61 317.07 728 331.72 726.79 333.87 724.4 335.35 723.17 338.02 723.32 339.2 724.78 339.9 724.59 343.41 722.4 350.54 724.23 352.26 723.64 353.39 721.29 353.31 721.03 356.01 719.98 356.1 717.15 357.47 717.88 358.74 717.59 361.15 715.43 361.52 715.24 359.67 712.55 360.59 712.12 359.83 708.74 360.84 703.6 361.68 703.69 362.63 714.74 362.1 717.93 361.49 721.33 359.64 722.65 358.52 732.81 347.73 733.03 347.68 738.81 353.05 744.51 358.5 751.53 364.99 744.25 372.76 744.03 373.49 744.17 380.52 737.85 380.54 737.88 382.12 727.71 382.32 727.84 388.06 717.73 388.27 717.41 388.58 717.49 392.62 717.79 394.16 694.12 394.65 694.57 416.78 641.9 417.83 593.1 418.83 593.08 418.06 604.17 417.84 604.02 410.47 596.38 397.84 596.16 386.78 600.14 381.88 604.53 375.38 618.2 354.62 621.46 356.42 623.9 352.73 620.7 350.74 622.29 348.31 624.95 347.26 625.82 346.46 627.41 346.22 629.26 346.59 630.76 347.78 631.35 349.42 633.37 351.45 635.57 351.55 637.76 350.93 640.17 352.7 644.31 353.31 646.23 353.89 648.5 353.48 650.89 353.47 650.85 352.17 652.54 351.21 653.48 351.96 656.42 350.61 657.97 346.64 659.47 344.04 661.42 341.66 661.75 335.33 662.87 332.82 662.59 329.24 661.33 327.35 660.05 326.49 657.98 326.2 657.38 327.11 655.35 327.02 654.31 327.47 652.32 324.65 651.14 323.84 647.99 324.51 646.85 324 644.35 324.17 643.15 324.65 639.09 327.44 635.1 330.6 629.5 333.03 627.16 332.26 622.03 333.43 619.59 333.68 618.81 334.2 615.86 333.9 614.83 332.92 614.74 331.79 617.6 328.95 618.08 327.41 624.34 320.97 625.53 319.21 625.65 315.73 624.85 313.53 623.59 311.51 621.63 309.34 619.34 307.35 617.33 306.72 616.7 305.02 616.68 303.19 615.06 300.37 614.14 292.72 615.82 284.75 615.46 280.24 616.05 276.68 616.65 274.71 618.39 271.51 615.13 271.35 602.89 270.05 601.34 269.56 600.47 270.68 598.71 271.71 598.5 272.9 596.86 274.33 595.06 275.1 594.02 276.41 593.22 279.31 593.97 280.79 590.26 284.81 589.75 286.84 589.83 295.37 587.06 304.98 585.91 309.47 585.77 311.76 584.33 314.89 581.87 316.49 578.45 316.94 576.83 317.62 571.76 321.21 568.91 323.49 567.03 325.94 564.64 330.09 563.16 331.34 560.1 331.69 558.07 330.42 558 328.87 556.31 324.63 555.19 321.17 553.92 318.68 552.89 314.59 551.4 312.9 549.08 311.79 546.58 311.44 544.33 311.79 543.42 313.03 541.45 312.47 539.21 312.82 532.36 307.43 531.09 306.76 528.95 306.76 529.93 317.72 528.26 320.06 533.55 323.97 534.4 326.53 536.67 330.26 537.21 332.61 538.62 334.2 538.41 337.61 575.25 336.91 600.79 336.39 601.08 336.83 601.45 358.14 589.97 375.66 585.16 382.88 585.57 399.94 585.43 400.16 574.21 400.38 571.2 400.2 571.18 400.99 572.17 443.97 568.53 445.47 567.26 445.47 567.41 448.11 567.15 451.06 566.44 452.26 566.58 465.5 565.53 469.34 565.29 471.18 561.08 472.27 557.66 473.51 557.87 474.93 559.52 478.08 561.77 480.51 563.55 481.84 563.22 484.75 582.92 495.63 584.76 496.52 584.04 497.34 582.62 496.84 572.45 491.28 561.19 484.82 561.06 482.24 561.49 480.87 558.34 477.29 553.98 475.62 553.16 477.23 550.6 476.75 547.7 479.71 547.37 480.87 546.02 481.26 545.12 480.02 543.47 480.35 541 481.52 541.16 482.46 540.46 485.36 539.03 485.16 537.4 490.1 534.69 492.39 530.35 489.75 529.63 487.96 528.46 488.29 526.82 487.34 522.77 486.24 521.61 486.48 499.45 486.94 497.92 486.34 497.27 453.53 496.01 452.4 495.82 443.48 495.42 443.21 489.41 443.25 474.66 443.63 462.28 443.84 462.04 443.58 461.93 434.87 462.04 433.42 461.89 424.67 462.36 424.92 462.77 442.59 463.38 443.12 481.73 442.73 487.71 442.78 496.26 442.55 497.2 442.01 507.64 421.08 506.39 420.19 506 418.38 491.27 401.52 489.25 401.33 488.19 401.87 483.78 401.88 482.21 403.01 480.15 402.8 477.06 403.26 474.86 404.63 475 408.25 472.51 411.12 471.17 414.12 467.82 415.08 466.7 416.67 467.63 417.64 467.52 419.08 466.6 419.69 465.06 419.25 462.73 419.52 461.41 420.27 459.91 419.73 459.3 418.31 460.5 416.55 459.76 413.63 460.59 412.37 461.88 409.17 463.63 407.29 466.36 404.91 467.43 403.5 467.71 400.74 465.98 396.15 466.41 394.36 465.78 393.12 468.34 390.47 474.05 388.65 472.9 386.73 464.94 386.84 454.75 394.92 454.03 395.75 454.05 399.71 457.63 404.41 457.58 405.81 452.58 399.17 450.67 397.07 450.61 395.38 440.76 377.31 439.07 377.71 438.27 376.92 438.89 375.05 438.74 365.87 441.08 361.64 444.96 354.17 450.6 343.59 458.46 339.69 465.03 336.24 464.83 332.42 464.33 329.58 452.54 328.4 451.84 329.98 448.88 331.87 448.41 331.13 446.33 333.19 445.62 334.83 447.21 336.52 445.67 337.81 444.42 339.78 444.75 341.13 443.34 342.44 441.74 342.58 440.48 341.04 438.67 340.48 437.07 342.64 437.46 344.63 438.18 344.74 439.82 346.81 440.78 350.15 439.41 353.52 437.21 355.31 435.47 357.76 432.85 358.95 431.9 359.92 431.88 364.02 429.93 363.41 427.75 364.06 426.32 363.69 424.16 366.34 421.51 367.08 420.02 367.11 418.38 368.44 417.42 369.9 415.33 370.98 412.75 370.11 413.09 368.84 414.37 367.91 416.39 363.65 418.02 362.79 418.38 361.34 419.86 360.02 420.19 357.35 421.64 356.22 419.81 352.98 418.03 352.09 416.1 351.65 413.45 352.87 412.53 356.48 411.25 356.33 410.12 357.21 409.75 358.48 406.69 358.43 405.51 356.57 406.23 355.82 405.38 353.9 406.3 353.33 405.84 351.45 404.23 349.71 403.58 346.78 402.57 346.19 401.7 344.15 399.99 343.32 400.96 341.77 400.2 340.42 398.73 339.91 395.71 340.05 393.85 340.53 390.5 342.48 389.09 344.43 389.12 345.62 386.74 349.77 385.49 350.45 381.99 350.35 379.68 347.57 378.33 346.44 375.36 345.81 371.95 348.37 369.84 347.99 368.15 348.65 368.14 349.73 367.03 350.48 365.6 349.94 364.94 348.34 365.62 346.49 367.1 345.87 368.17 343.1 365.11 340.64 364.87 337.67 365.02 334.48 366.88 334.56 367.69 319.29 366.82 315.99 368.23 316 369.87 315.3 370.96 313.3 368.89 313.68 368.14 313.14 363.43 311.24 366.17 304.38 362.14 302.82 361.31 304.81 357.22 303.2 351.92 316.37 336.29 310.18 336.26 310.97 333.93 311.1 332.21 309.67 330.94 307.66 329.82 306.7 328.73 306.82 326.78 307.98 326.2 309.03 326.16 311.44 322.57 315.57 321.05 314.93 319.51 315.21 318.15 317.89 318.27 319.33 320.08 325.48 321.75 325.76 323.68 326.95 325.3 327.09 326.76 328.83 326.74 330.64 325.73 331.17 323.4 331.32 321.46 332.5 320.38 335.42 321.88 336.21 321.07 337.16 317.82 338.14 316.75 337.8 316.29 336.58 315.02 336.32 314.3 338.97 313.47 339.72 311.17 339.62 310.4 338.72 310.05 336.66 309.28 336.16 307.73 332.71 306.26 331.64 304.41 331.42 303.18 332.44 303.61 335 302.33 336.17 302.14 338.81 303.24 341.16 304.5 341.81 304.35 343.35 299.77 342.74 298.85 342.05 296.75 338.81 295.16 338.72 292.99 336.91 291.22 337.37 290.03 336.15 289.31 334.2 289.2 329.86 287.98 328.7 286.11 328.49 285.22 327.22 283.98 326.98 281.7 328.05 279.67 326.77 281.73 325.79 283.12 325.79 283.34 323.64 281.65 323.6 281.38 322.61 278.36 321.44 277.71 320.55 277.3 318.1 276.43 315.61 279.7 301.23 277.83 300.44 276.55 297.5 269.93 304.38 269.17 303.66 273.87 298.76 276.11 296.84 277.32 295.29 279.96 295.09 284.98 296.81 286.99 297.79 291.29 297.46 301.16 291.71 301.49 289.69 300.68 288.65 300.5 286.06 299.17 284.72 296.34 285.33 296.69 283.72 299.03 282.72 299.99 280.07 303.7 278.86 305.23 279.97 307.27 279.19 308.16 278.25 308.29 276.36 309.37 275.56 311.52 272.75 309.71 270.14 309.92 267.97 312.58 268.19 314.17 269.56 315.12 269.74 316.79 268.59 318.63 265.81 319.06 263.51 316 261.39 314 259.25 313.98 256.87 316.04 254.98 316.97 253.18 316.28 240.67 314.99 240.74 314.55 233.27 315.01 233.24 314.61 226.46 314.15 226.49 310.86 221.02 311.94 220.42 310.65 219.17 308.33 215.4 305.12 217.26 292.72 196.97 295.14 195.43 293.92 193.98 294.97 193.44 296.46 194.59 300.57 192.13 305.21 191.61 305.8 190.58 303.18 179.33 300.21 179.8 299.9 177.69 302.74 176.81 302.28 174.36 299.81 171.39 297.07 169.08 283.5 177.06 290.01 188.01 292.5 191.49 291.34 192.08 290.3 190.99 288.47 187.53 284.54 180.84 278.29 170.45 273.41 162.17 272.48 158.34 273.14 157.01 274.37 156.53 275.54 154.48 274.93 154.12 277.58 150.89 281.86 143.63 281.8 140.33 283.41 136 282.42 135.86 276.58 138.1 275.56 138.93 273.86 139.17 245.47 141.21 230.95 147.46 229.76 148.1 225.11 151.47 227.25 154.48 226.65 154.91 225.24 153 224.58 153.04 216.16 159.21 218.99 163.07 221.53 161.21 224.58 165.39 222.09 167.24 224.66 170.78 226.16 171.35 223.21 174.09 223.6 174.8 225.29 174.59 226.55 176.72 224.59 178.54 223.6 180.9 223.68 183.67 224.56 185.94 224.26 187.13 224.73 189.65 224.76 191.88 225.81 195.49 227.62 200.33 231.8 205.38 233.63 208.3 235.72 210 236.97 212.09 237.02 214.98 238.58 217.54 240.46 222.79 240.6 224.89 239.81 229.14 239.1 231.3 238.21 232.41 236.33 233.51 232.26 234.08 226.63 236.04 223.38 236.77 220.84 236.86 217.68 238.37 216.79 239.46 216.67 241.38 219.39 241.95 219.8 243.74 218.53 245.88 217.91 247.7 214.91 249.67 210.42 249.69 208.28 249.32 206.58 250.49 206.88 251.57 206.5 253.58 205.5 253.69 204.14 255.14 203.22 257.27 201.55 257.03 200.38 254.72 200.84 251.58 201.83 250.7 201.61 248.46 202.22 247.4 204.35 246.79 205.64 246.91 208.13 245.07 206.35 244.36 204.32 244.78 201.08 244.14 202.53 242 202.11 238.82 203.8 237.81 200.61 236.22 199.93 238.46 199.8 240.3 195.4 246.03 193.91 246.37 192.07 245.14 190.86 245.99 188.83 245.48 187.9 244.55 189.86 241.12 191.98 240.73 193.28 238.28 193.52 235.9 192.99 233.92 193.53 232.49 197.7 230.9 197.72 229.48 196.24 227.19 194.83 226.63 192.69 227.7 190.03 222.98 187.81 223.63 186.8 225.15 188.2 228.31 187.55 228.58 185.77 225.28 185.2 222.81 190.11 221.19 190.88 217.32 190.01 217 191.46 211.23 191.79 208.88 188.58 204.82 181.26 197.79 177.11 192.37 176.49 192.17 176.36 189.83 176.76 188.75 178.55 186.98 178.24 184.8 176.38 182.57 174.74 182.66 168.07 183.68 167.35 185.42 167.73 200.24 166.18 200.29 165.93 191.45 164.83 191.12 160.01 191.23 159.81 188.43 142.96 188.88 142.85 188.07 139.12 188.17 138.65 186.03 135.66 186.68 135.81 188.62 127.81 188.81 123.21 166.83 119.36 148.76 122.16 148.12 121.32 145.49 121.03 142.84 121.12 140.02 122.63 139.18 124.33 141.98 125.85 142.45 126.54 144.23 127.5 144.79 127.56 146.82 132.35 146.9 133.61 145.88 133.6 143.96 136.32 144.44 135.93 127.69 126.24 127.69 123.64 131.41 120.84 132.08 118.89 130.85 117.36 131.89 118.85 134.4 118.22 134.7 115.74 131.85 111.57 131.96 111.83 137.33 111.22 137.34 111.03 131.94 108.23 132.04 108.41 137.45 107.83 137.45 107.68 132.06 100.06 132.51 94.06 132.59 94.18 136.39 99.48 137.29 102.49 140.6 102.71 146.89 98 147.08 95.46 146.11 92.99 143.06 90.96 142.53 88.5 142.45 81.58 139.39 80.12 140.72 77.33 135.75 70.07 137.27 69.87 136.72 65.39 137.62 65.89 138.72 61.97 142.32 67.05 147.91 66.48 148.98 68.22 150.03 68.56 151.64 67.88 153.04 65.42 153.55 63.25 152.74 61.83 156.11 64.59 157.26 63.91 158.87 61.19 157.73 60.24 159.99 68.71 163.54 68.68 163.92 60.27 160.37 54.83 173.41 54.95 174.85 52.99 176.41 53.2 178.7 51.63 181.04 51.48 182.86 52.28 184.93 41.27 189.19 42.86 193.32 48.71 191.07 49.11 192.1 43.26 194.35 43.79 195.74 47.61 197.42 53.8 195.02 54.21 196.06 49.05 198.06 50.29 201.25 55.82 201.15 55.85 202.42 74.36 202.03 75.01 202.22 48.43 202.79 43.34 200.62 42.61 197.78 38.9 188.17 37 188.42 36.66 186.4 35.27 184.41 36.25 182.74 36.42 180.07 38.16 179.13 37.66 178 32.93 179.06 32.65 176.48 30.16 176.75 31.98 189.46 30.52 189.68 28.72 177.14 27.93 173.38 24.67 173.92 22.98 174.86 19.38 178.46 18.16 180.04 15.26 181.09 15.31 183.16 9.88 184.52 9.34 182.18 6.87 182.14 4.31 182.66 1.87 182.38 1 177.9 2 175.2 2.43 172.93 3.43 170.09 3.2 168.45 6.42 165.82 9.29 162.37 11.58 159.18 12.37 157.46 13.49 157.02 15.52 155.34 18.61 154.13 23.05 153.19 24.69 153.26 26.43 153.95 27.94 153.31 27.86 144.03 26.4 144.14 26.02 145.05 24.31 144.18 24.39 142.99 22.48 142.18 20.56 142.35 18.02 140.85 15.75 137.69 13.76 136.88 11.35 138.09 10.36 137.2 10.64 135.99 13.24 135.26 14.71 133.31 10.9 129.42 10.25 127.79 12.92 126.51 20.63 124.1 22.32 114.6 25.84 112.04 26.94 114.38 29.55 115.61 30.52 114.78 33.93 115.08 37.91 111.82 40.78 107.56 38.49 102.33 41.24 96.63 47.25 90.87 55.02 82.89 65.3 72.85 73.56 53.54 75.24 51.76 81.57 47.05 87.36 43.29 96.68 29.8 102.33 22.55 104.03 21.15 108 22.02 109.31 20.87 117.53 22.65 118.85 22.72 122.12 21.32 123.2 21.91 127.23 21.71 128.26 21.41 132.74 21.36 135.03 16.58 140.56 16.12 144.06 10.9 145.67 11.65 158.66 5.36 164.04 5.95 171.12 4.69 183.04 4.3 189.74 2.09 197.09 1 202.03 2.41 210 2.71 216.58 7.68 222.02 13.76 226.02 19.34 228.14 21.7 231.39 23.9 236.14 27.8 239.25 29.95 239.43 30.74 242.41 31.83 247.43 31.84 249.82 33.15 252.02 33.17 262 35.74 264.77 36.86 266.72 38.67 267.83 40.52 275.68 46.29 295.01 50.03 298.17 49.42 304.91 49.83 308.46 50.67 311.93 50.47 317.56 51.07 318.45 51.84 320.25 52.04 324.68 54.71 328.43 54.63 331.25 54.03 333.87 55.6 340.6 53.34 341.82 53.5 342.84 54.57 346.71 55.82 348.55 56.79 353.23 56.93 353.74 57.8 356.08 58.62 358.1 61.32 358.51 62.53 360.18 63.61 362.21 63.71 363.7 63.19 364.93 65.78 367.28 67.89 367.84 68.99 371.94 71.51 376.82 72.89 380.91 73.41 383.76 74.43 386.74 74.63 388.15 75.95 388.92 77.61 392.02 79.33 399.32 82.49 401.83 84.42 403.72 84.63 408.26 86.05 413.72 90.38 415.11 90.87 418.02 90.61 421.01 92.14 421.6 92.96 424.39 94.4 427.39 94.36 434.84 95.93 439.07 95.65 442.75 97.63 442.33 93 443.76 89.83 444.23 85.58 445.85 83.38 445.54 80.65 445.82 75.69 446.58 71.13 446.68 66.71 447.28 62.77 448.96 57.51 450.55 54.1 Z" fill-rule="evenodd" id="38115000"/>
</g>
</svg>