<?xml version="1.0"?>
<svg xmlns="http://www.w3.org/2000/svg" version="1.2" baseProfile="tiny" width="800" height="567" viewBox="0 0 800 567" stroke-linecap="round" stroke-linejoin="round">
<g id="sigung">
<path d="M 620.36 528.21 621.56 530.61 622.84 531.92 623.07 532.71 622.28 534.81 623.28 537.23 622.78 537.98 617.81 538.53 616.82 539.9 617.35 541.29 616.98 542.83 617.3 543.57 616.77 545.7 615.22 547.83 613.49 547.76 610.17 549.43 609.36 549.29 608.64 546.24 607.79 544.32 607.57 542.38 607.94 541.57 609.05 541.01 611.65 540.26 612.17 539.34 611.23 537.25 609.7 535.91 607.6 534.97 607 533.96 607.92 532.15 609.41 532.09 611.42 530.66 617.09 530.79 617.98 529.65 617.74 529.07 620.36 528.21 Z M 791.12 517.14 791.41 518.62 792.62 518.91 792.36 519.85 791.32 519.56 790.36 520.69 790.27 521.52 791.28 524.15 792.57 523.67 793.66 523.79 793.96 519.71 794.41 519.75 794.16 524.1 796.17 524.75 798 524.61 798.8 525.13 799 526.28 797.69 527.71 796.05 528.06 792.95 527.67 791.18 528.83 788.52 530.12 786.49 532.67 785.64 534.87 783.63 536.71 782.15 537.22 780.94 536.58 780.88 535.56 778.43 534.36 777.11 534.6 775.26 533.76 775.68 533.09 777.98 531.18 778.91 529.83 778.8 528.04 778.23 526.36 780.29 522.84 784.08 519.04 785.18 518.31 788.11 517.26 791.12 517.14 Z M 616.48 522.9 616.27 523.77 614.8 524.01 611.24 522.85 610.09 521.91 609.07 519.55 610.05 517.49 611.21 516.64 611.73 515.64 612.65 515.26 615.62 516.76 616.27 517.35 617.46 519.57 616.48 522.9 Z M 624.6 517.49 626.04 517.64 627.08 518.78 627.6 520.38 625.79 522.37 624.4 522.41 623.19 521.96 619.51 522.19 619.41 520.97 620.95 519.89 621.5 518.11 620.71 515.72 621.26 513.79 622.35 513.5 623.33 514.38 623.89 515.85 623.95 517.23 624.6 517.49 Z M 793.95 515.3 793.62 515.06 794.09 512.32 795.38 510.92 797.23 510.12 797.5 511.57 795.83 513.06 795.25 514.17 793.95 515.3 Z M 558.69 507.08 560.78 507.35 561.94 508.59 562.73 508.7 564.24 508.02 566.87 509.9 567.33 511.58 568.32 512.34 569.66 510.85 571.6 512.69 572.28 512.58 573.62 513.37 576.69 512.96 577.48 513.51 577.61 515.23 576.28 517.36 577.21 519.04 578.77 520.28 580.63 519.15 582.14 519.91 582.84 519.67 584.25 517.16 585.72 517.87 585.71 518.66 586.95 520.19 587.3 521.46 586.83 523.46 587.88 525.02 590.56 525.13 590.95 526.84 590.09 527.22 586.56 525.84 582.23 526.47 581.66 527.32 581.82 528.29 583.02 529.3 584.03 531.77 587.05 533.82 588.87 537.66 589.39 540.3 587.14 541.89 586.77 542.9 587.72 544.3 590.59 543.53 592.62 542.28 594.54 543.87 594.78 544.88 594.05 549.55 595.49 550.35 597.37 550.12 598.55 549.35 599.17 548.26 600.76 547.67 601.32 549.56 600.6 551.32 600.86 552.59 603.82 556.36 604.24 558 603.53 559.62 601.42 561.57 600.38 561.78 597.85 559.19 596.61 558.82 595.14 559.02 593.61 560.86 593.45 562.26 592.6 563.79 590.29 563.99 589.78 565.9 587.52 566 584.38 564.85 583.19 564.64 581.56 563.64 577.27 562.58 574.43 562.56 572.54 562.21 569.97 560.97 568.53 560.01 568.3 559.2 564.22 556.09 564.03 555.43 562.2 553.49 561.44 552.12 559.54 550.32 557.32 548.62 556.26 547.51 554.4 543.65 552.55 540.67 552.04 537.81 552.2 535.67 551.54 534.13 549.57 532.88 548.29 531.21 547.16 530.75 545.52 528.64 545.6 527.44 544.19 526.83 541.07 525.02 539.24 523.45 538.13 523.38 535.03 520.56 533.34 520.24 533.18 518.72 532.52 516.43 532.37 513.31 531.96 511.21 532.79 510.4 536.45 510.15 538.01 509.58 540.31 509.41 541.58 508.79 543.64 508.45 545.03 508.6 546.87 508.12 550.16 508.46 551.34 509.17 553.02 508.85 554.34 509.68 555.9 509.7 556.98 508.66 557.24 507.14 558.69 507.08 Z M 407.69 501.4 408.39 503.08 408.31 504.9 409.7 505.78 410.25 508.55 409.57 509.81 408.2 511.32 404.5 511.64 404.05 509.11 402.54 508.14 400.89 506.46 400.94 504.41 402.34 501.42 403.16 501.65 405.19 500.16 407.34 500.52 407.69 501.4 Z M 567.93 494.44 571.55 495.83 573.43 495.22 575.94 496.75 578.22 496.75 579.48 498.03 581.53 497.88 583.86 495.61 585.79 495.41 587.6 495.88 589.88 497.53 589.3 498.39 587.84 499.43 585.51 499.19 582.87 499.86 581.67 499.69 580.14 500.08 579.11 499.5 578.31 499.84 576.44 498.58 573.55 498.27 571.82 498.7 568.98 500.82 567.65 500.94 566.15 499.55 562.98 499.87 561.35 499.58 560.96 498.43 561.56 496.74 562.59 496.6 566.03 494.51 567.93 494.44 Z M 553.55 491.2 553.94 492.19 551.18 493.55 548.54 495.61 547 495.86 545.83 495.03 545.45 493.6 546.85 491.83 548.45 490.39 549.84 490.04 552.04 490.43 553.55 491.2 Z M 417.15 489.51 418.21 491.27 418.15 492.72 416.96 493.06 416.22 491.94 416.24 490.07 417.15 489.51 Z M 566.48 477.48 567.09 477.49 568.4 478.81 567.88 479.8 565.4 481.28 563.65 481.16 562.27 480.11 562.06 478.87 563.42 478.53 565.28 477.53 566.48 477.48 Z M 572.61 463.61 575.77 464.49 576.15 465.56 574.32 466.92 571.91 466.64 570.24 466.15 569.41 465.07 569.79 463.73 571.42 463.33 572.61 463.61 Z M 384.9 463.49 386.5 464.63 388.88 465.29 390.26 465.26 393.09 468.88 396.62 471.67 400.91 472.84 402.38 473.6 402.22 476.13 402.79 477.42 402.17 478.77 400.98 478.9 399.65 479.65 399.11 481.36 397.96 482.41 394.86 483.99 393.54 485.29 392.86 486.53 390.28 487.07 386.79 486.2 385.08 484.71 384.08 483.08 384.02 482.06 385.93 476.84 386.5 472.79 386.3 471 385.22 467 384.9 463.49 Z M 588.13 462.06 589.33 463.72 588.21 464.32 586.13 463.39 585.83 462.32 587.22 461.76 588.13 462.06 Z M 546.59 462.25 547.45 464.19 547.64 466.82 546.78 469.86 547.04 471.38 545.72 471.27 545.5 470.2 544.47 468.63 543.65 465.61 543.49 463.96 543.95 462.85 545.59 461.91 546.59 462.25 Z M 543.73 455.96 544.7 457.05 544.75 459.54 543.78 460.53 541.39 458.98 539.52 459.6 539.06 460.6 540.12 461.43 540.24 463.18 538.82 467.75 539.18 469.07 537.58 470.13 537.28 470.88 537.37 475.03 537.74 477.66 536.23 478.93 534.07 479.34 533.25 478.1 533.56 475.11 534.41 474.07 534.14 473.01 531.96 471.63 531.13 470.13 531.4 469.12 532.63 467.54 532.67 464.73 533.45 463.5 533.12 460.69 534.11 458.88 533.87 457.06 535.37 457.34 537.14 455.72 539.77 455.99 541.97 455.36 543.73 455.96 Z M 445.75 441.53 444.97 441.54 443.01 438.28 442.5 436.32 444.03 434.84 446.06 438.28 446.16 439.4 445.75 441.53 Z M 398.07 430.65 399.46 432.42 399.66 433.2 398.41 435.13 398.36 437.13 399.89 437.82 400.78 439.23 400.07 440.6 398.8 441.83 398.06 443.11 398.57 445 398.08 446.29 398.29 447.37 399.11 448.23 399.79 450.31 400.93 451.78 400.88 453.14 401.41 454.5 403.74 456.68 403.52 458.28 403.88 460.26 403.19 461.11 401.72 460.12 400.54 458.02 400.27 456.38 398.55 453.16 398.09 451.86 395.97 447.97 394.41 446.66 393.12 444.94 391.73 444.71 389.84 446.21 388.89 448.23 388.7 450.22 389.68 451.7 387.6 452.98 386.16 452.14 387.39 450.01 387.51 448.37 388.07 446.7 390.98 445.1 391.35 443.7 390.8 441.63 388.74 440.68 387.5 439.11 386.07 438.24 384.08 439.93 383.94 440.64 381.3 440.99 381.39 439.97 383.86 437.59 384.44 435.79 386.29 434.93 386.99 432 388.28 431.25 389.63 431.8 391.51 430.71 393.89 430.68 396 429.48 396.78 429.47 398.07 430.65 Z M 453.13 421.69 454.43 423.35 451.07 425.58 449.87 427.44 448.33 428.72 446.33 428.74 444.39 427.15 444.93 425.34 446.7 425.18 447.99 424.1 449.26 422.16 453.13 421.69 Z M 472.28 420.84 473.74 420.6 475.48 421.28 475.83 423.02 475.19 423.67 473.93 423.49 472.04 424.16 470.21 425.46 469.75 426.46 470.3 428.31 469.12 428.52 467.53 429.43 466.22 430.82 465.48 433.6 465.58 434.9 466.72 436.98 468.88 437.67 469.1 439.11 468.59 440.34 467.29 440.61 466.57 439.38 464.26 439.81 462.7 442.44 462.23 444.26 463.27 445.64 463.25 447.17 462.51 447.57 461.41 446.86 459.72 444.91 458.91 443.34 458.55 439.93 456.88 437.14 457.05 436.54 456.39 433.94 456.61 430.26 455.99 429.51 455.17 427.28 455.57 423.89 457.92 424.49 460.21 423.76 461.43 422.49 463.43 421.12 466.15 420.82 468.63 421.65 470.44 420.37 472.28 420.84 Z M 484.52 401.06 483.44 402.61 483.57 403.97 483.16 405.09 483.63 406.17 482.67 407.63 481.54 406.99 481.42 405.87 480.24 404.29 480.9 402.31 480.88 400.76 482.2 401.57 483.71 400.8 484.52 401.06 Z M 686.84 280.68 686.23 282.27 685.25 282.02 685.98 280.72 686.84 280.68 Z M 629.27 141.87 630.75 141.16 632.58 140.93 635.33 141.5 638.52 141.9 639.54 143.08 639.3 144.69 640.56 151.01 639.68 151.43 637.6 149.66 636.46 149.31 634.5 149.31 631.13 147.76 626.73 147.37 625.55 146.92 625.28 145.85 625.74 145.03 627.19 144.15 628.83 141.58 629.27 141.87 Z M 648.9 39.9 645.36 40.09 641.5 52.58 640.87 54.45 642.66 56.17 642.64 58.1 640.62 59.79 640.19 59.71 629.79 68.33 627.08 72.12 623.18 75.42 617.67 79.92 618.44 84.38 608.84 97.54 606.14 96 604.93 95.79 598.24 104.88 599.87 106.09 601.6 105.54 603.48 105.55 605.65 106.97 606.99 109.38 607.41 111.9 608.89 116.54 610.12 118.73 613.07 122.69 613.76 124.03 614.65 126.87 614.96 129.45 614.9 131.84 614.34 134.51 613.12 137.04 610.6 139.9 608.86 141.1 604.08 143.61 602.58 144.09 600.67 144.15 598.08 143.29 596.01 141.13 592.58 134.32 592.39 132.64 593.17 130.98 594.29 129.9 594.93 128.72 596.4 121.75 596.52 119.92 595.06 116.56 594.76 115.15 595.02 112.82 595.4 111.83 598.38 107.68 596.94 106.62 586.84 120.3 590.46 124.91 587.22 127.57 596.75 146.68 600.89 154.5 603.5 158.95 609.05 158.19 609 157.85 611.98 157.44 612.37 159.6 615.2 160.01 616.49 159.75 617.27 160.31 619.54 160.79 620.37 161.29 621.36 160.3 629.1 166.03 645.83 190.58 645.4 190.37 638.39 195.13 637.66 195.74 640.33 198.12 641.25 201.5 641.96 202.86 643.41 204.54 645.03 204.85 646.26 204.56 647.96 206.56 649.03 206.26 652.28 206.52 653.29 206.04 653.96 208.09 654.91 208.37 655.96 209.71 657.31 212.38 659.82 214.14 660.05 216.02 658.16 219.26 658.83 220.79 649.07 222.36 644.2 221.14 642.74 223.32 644.87 225.71 645.78 226.42 648.34 226.84 650.08 228.36 653.09 228.91 656.15 229.01 660.43 230.72 660.59 230.21 659.16 222.21 659.46 222.11 661.05 230.8 661.62 231.49 661.97 236.77 661.58 238.14 661.94 239.89 660.3 242.25 657.06 243.26 655.29 243.25 653.88 244.58 652.11 245.79 649.16 247.28 646.59 250.08 645.45 250.94 645.82 252.73 648.52 253.92 650.82 253.15 653.83 252.79 655.5 252.89 656.7 252.22 658.69 251.76 660.55 251.75 663.28 253.39 664.14 254.82 664.2 256.27 664.89 257.35 666.14 257.71 668.86 257.82 675 260.85 676.98 262.78 678.82 266.11 679.87 267.27 678.39 267.97 676.62 270.6 675.09 271.83 672.72 274.79 672.04 274.98 671.35 276.29 671.05 277.79 671.53 280.5 670.53 283.17 669.76 284.07 667.96 285.12 665.58 285.52 663.76 287.4 662.18 288.56 660.7 290.72 658.35 292 656.6 291.64 655.29 290.55 653.85 287.32 653.78 285.82 652.66 284.86 651.3 287.56 650.43 290.21 652.87 293.26 653.49 294.82 654.78 296.09 656.06 298.65 655.32 300.84 653.8 303.44 651.96 305.48 651.32 305.7 650.26 302.71 648.16 300.31 647.06 298.46 646.66 296.73 646.55 294.39 645.91 292.73 643.15 290.71 640.34 289.76 638.42 288.68 635.98 286.8 634.69 286.29 633.66 285.28 633.64 283.35 633.02 282.05 632.09 281.55 632.52 280.58 632.12 277.78 630.89 276.81 628.8 275.8 626.79 279 624.58 281.38 625.19 282.66 630.73 283.73 630.69 283.95 624.91 282.88 624.44 283.45 622.46 284.18 620.97 283.33 618.13 283.11 618.37 296.96 617.72 297.41 613.33 297.5 610.94 297.17 610.54 299.1 612 300.82 613.42 302.03 614.15 301.82 614.74 303.14 615.77 303.31 617.33 304.3 617.89 306.19 618.81 306.99 621.04 307.89 622.48 307.85 623.98 306.32 625.05 306.36 626.51 307.14 628.14 307.07 630.1 308.05 631.46 310.32 630.95 311.51 631.1 313.11 632.57 313.03 636.7 311.39 638.15 311.51 638.97 312.86 638 314.41 638.34 315.79 641.17 314.93 642.2 314.14 644.75 313.81 645.67 313.01 648.12 312.23 649.63 312.21 652.54 311.64 655.98 311.79 657.88 310.94 660.19 310.52 661.37 309.76 663.83 305.9 663.87 304.66 664.78 302.97 665.22 301.02 666.98 301.24 668.14 300.71 669.9 298.74 673.92 298.39 675.28 297.82 677.56 298.12 682.01 297.61 683.74 297.89 685.62 299.03 686.77 300.06 686.6 302 686.68 304.77 687.43 306.35 686.99 307.62 687.29 308.89 685.29 311.66 684.65 311.98 684.21 313.77 682.92 315.45 682.57 316.91 683.58 321.18 684.49 322.81 684.09 324.8 683.17 326.06 678.58 329.02 677.69 328.88 675.74 329.59 674.33 331.08 674.12 333.11 672.28 332.91 668.85 331.69 666.33 331.37 661.18 331.72 657.57 333.71 656.17 335.36 654.71 336.54 655.92 338.45 655.22 338.76 654.18 337.14 652.05 338.18 650.27 338.38 648.58 339.55 653.09 346.46 654.12 345.31 656.6 343.36 658.13 341.19 660.42 339.67 662.32 339.36 665.29 339.24 667.48 340.17 670.01 340.38 671.87 341.65 673.35 343.05 674.01 343.01 674.68 345.94 675.59 346.45 676.85 346.14 677.76 345.4 678.13 342.96 679.92 341.77 685.49 342.47 685.64 344.09 684.53 348.82 685.94 350.29 686.74 351.72 686.78 354.1 685.67 356.45 685.42 357.79 687.5 361.86 687.57 363.66 688.29 367.49 688.39 369.28 689.64 369.13 689.83 370.93 689.4 371.61 689.68 373.88 690.59 376.53 689.62 382.48 690.13 384.96 690.93 386.62 691.57 391.25 690.42 394.91 691.31 397.81 692.86 398.75 698.45 401.08 700.09 402.14 703.36 403.41 705.39 405.41 706.32 406.77 707.6 407.51 708.09 409.14 710.06 412.21 711.73 415.4 713.9 416.76 715.06 416.86 717.08 418.35 718.34 418.55 719.68 419.68 722.14 420.58 724.51 421.08 725.96 422.14 728.85 423.37 730.96 423.5 733.01 424.06 734.66 424.84 736.13 426.21 736.19 428.56 733.72 428.16 732.52 428.99 730.58 431.19 727.26 429.24 726.98 429.58 720.31 428.89 719.83 430.99 720.21 432.37 721.58 433.61 722.51 433.45 724.43 434.42 726.51 435.83 728.35 433.72 728.71 434.11 726.89 436.19 728.56 437.74 729.84 439.52 732.9 440.45 735 440.47 737.98 439.02 739.72 438.55 744.57 437.78 748 437.98 752.31 441.97 752.94 443.17 754.83 445.17 755.55 445.5 756.93 448 760.27 451.34 760.7 452.69 762.91 454.66 764.03 456.86 762.84 459.39 761.56 459.13 758.83 457.66 755.57 457.87 752.32 458.95 749.49 460.74 748.9 461.81 747.57 463.16 745.15 464.3 743.63 465.67 740.15 466.41 739.13 466.88 735.98 466.88 734.17 468.07 731.85 468.37 728.7 467.79 726.73 467.79 723.17 467.25 721.22 468.08 719.08 468.35 719.02 469.62 717.38 469.86 717.31 467.92 715.35 467.71 708.07 469.93 703.81 470.09 699.03 468.71 697.3 469.52 696.91 471.11 699.21 473.17 701.11 474.61 701.75 474.7 703.61 476.52 705.05 477.07 706.94 478.6 707.16 481.73 706.34 482.87 704.54 482.31 701.19 482.65 701.05 483.03 698.52 483.14 696.92 483.8 695.98 484.64 695.85 486.81 697.26 490.13 699.24 491.23 701.28 492.88 703.68 493.94 704.33 495.04 705.27 494.7 705.96 490.15 706.34 489.33 707.96 488.04 709.96 486.97 712.48 486.9 714.87 485.93 718.33 486.54 719.85 487.43 720.83 489.57 720.23 491.05 720.99 493.64 721.78 495.38 721.69 496.67 720.6 497.61 717.55 498.22 715.96 499.38 713.88 500.29 712.82 500.39 710.75 501.79 710.85 503.74 712.56 504.25 713.25 504.07 715.94 505.28 718.21 505.89 721.9 506.21 723.21 506.85 725.26 506.92 726.23 506.53 727.1 506.91 730.28 506.38 733.44 503.97 735.47 503.09 737.51 500.35 739.24 499.31 740.05 498.36 742.45 496.84 744.68 496.28 747.33 494 749.56 493.52 751.63 493.5 755.45 491.18 760.14 491.33 761.6 491.71 763.12 492.97 768.43 496.34 770.42 498.15 772.01 499.16 773.65 499.61 775.57 499.73 777.56 499.29 780.14 498.27 782.81 498.5 786.02 499.47 786.82 501 786.1 502.03 786.84 503.3 785.89 505.83 784.59 507.79 783.07 508.54 782.63 509.37 771.47 511.99 768.8 512.75 768.08 512.18 766.21 514.46 766.58 514.75 765.24 516.84 764.21 517.28 763.18 518.58 761.8 519.41 759.36 521.45 756.04 522.77 750.86 522.82 749.36 523.13 744.62 522.67 743.1 522.94 741.91 524.36 741.66 525.24 740.46 526.8 738 528.61 737.03 530 734.97 530.44 733.12 530.3 731.08 529.29 728.74 528.91 725.58 529.52 724.98 532.12 723.98 533.02 722.03 533.43 719.1 535.66 717.7 535.94 715.03 535.71 714.12 535.98 712.66 538.34 711.74 540.89 711.82 542.36 712.35 543 710.9 543.87 710.47 545.6 709.38 545.55 708.23 544.75 708.22 543.63 707.4 542.47 706.28 542.21 705.29 542.66 704.56 545.1 703.39 545.91 702.63 547.29 700.23 548.35 697.49 549.15 694.68 550.62 693.66 550.44 692.18 548.96 691.88 547.71 689.88 547.43 688.25 548.88 686.11 548.34 685 548.93 683.08 549.11 682.3 548.78 681.1 549.14 679.27 548.86 678.04 549.65 675.86 549.9 673.15 549.34 669.79 550.33 667.98 550.17 665.22 548.32 663.33 548.15 662.12 548.7 661.97 550.05 660.89 551.66 657.1 553.55 655.51 553.69 654.77 554.64 652.18 555.08 650.12 554.61 648.24 554.96 647.33 555.8 645.22 556.61 642.99 557.09 642.17 557.98 639.83 558.21 639.09 558.91 633.67 558.53 632.46 559.59 631.42 559.44 628.3 560.35 626.64 560.33 625.83 559.82 624.92 560.2 621.3 559.61 619.86 560.32 618.68 560.21 616.48 558.12 616.35 557.18 617.14 556.12 619 555.3 621.73 553.28 623.13 550.49 623.35 548.12 626.23 546.8 627.86 544.96 629.38 543.88 630.62 542.33 631.28 540.11 630.4 538.46 630.74 537.63 632.66 536.77 636.23 536.03 638.63 534.77 640.81 535.77 644.09 535.29 647.08 535.83 649.46 534.6 649.64 533.58 648.53 531.7 648.74 531.02 650.03 530.23 651.7 530.37 654.12 529.62 656.93 529.84 658.07 529.71 658.46 527.82 657.32 524.59 657.3 523.5 658.22 522.83 660.06 523.83 661.82 525.36 662.72 527.68 664.8 527.37 665.43 525.92 664.65 522.94 662.87 522.92 660.94 522.21 661.07 521.61 659.85 520.56 659.9 519.83 662.77 517.05 665.2 515.48 666.47 515.03 667.98 515.12 669.16 515.87 669.62 516.9 670.65 517.31 672.25 518.63 673.87 519.12 675.16 517.82 673.96 516.72 673.69 515.85 672.15 514.35 671.46 513.11 672.83 510.93 673.91 510.3 675.12 511.08 676.42 511.36 677.61 510.96 678.91 511.29 680.59 511.22 680.53 510.42 681.55 509.31 681.48 508.2 680.75 506.07 678.75 504.42 674.68 506.52 671.86 506.2 669.48 503.51 668.35 502.97 668.22 501.63 666.19 499.35 664.54 498.05 663 497.29 660.32 497.42 658.96 497.03 653.94 496.87 652.6 497.81 651.8 499.57 653.19 501.27 655.17 502.28 656.32 503.73 656.4 504.72 655.09 507.27 654.05 508.05 653.22 510.14 651.74 510.6 650.05 512.19 650.05 513.36 649.37 514.67 647.07 515.97 645.78 517.27 644.34 519.25 643.8 520.44 641.87 522.22 639.08 523.84 636.45 524.09 636.01 522.23 634.76 519.42 634.6 518.17 635.2 516.04 637.75 512.83 637.67 511.53 636.26 510.77 633.81 510.31 633.16 510.75 632.58 512.42 632.42 514.04 630.48 515.95 629.2 515.96 627.76 514.29 627.64 513.1 626.68 511.69 622.83 511.84 621.29 512.83 619.94 511.47 618.55 511.06 614.67 509.34 611.81 509.09 610.41 507.89 607.25 506.7 605.24 506.67 603.79 507.73 603.64 509.99 604.35 512.54 605.03 513.81 603.84 516.26 601.9 515.32 599.35 514.63 596.41 514.75 593.38 515.58 592.97 516.32 591.36 517.13 589.18 516.88 587.14 515.16 586.63 513.55 585.32 512.33 584.11 510.46 583.85 507.79 584.57 507.42 587.35 507.37 591.78 507.94 593.21 508.46 594.72 508.13 595.43 507.02 596.81 506.44 597.3 504.32 596.01 501.97 596.92 499.89 597.02 497.93 596.42 495.77 595.35 495.09 594.24 492.58 593.41 491.51 592.14 491.06 589.77 491.04 588.89 490.41 588.4 488 589.06 486.49 588.84 485.82 589.45 483.77 590.51 483.57 591.01 482.77 590.6 481.14 589.62 481.08 590.03 479.62 592.49 478.03 592.55 476.5 591.89 475.14 590.73 475.57 590.33 473.97 590.72 471.27 591.76 470.95 591.19 466.56 591.83 465.42 593.49 464.84 594.87 466.32 596.54 466.62 597.97 466.22 600.8 466.41 602.07 465.26 603.11 465.53 605.04 465.4 606.58 464.36 607.71 461.8 607.96 460.15 611.01 459.7 611.83 459.08 611.97 457.11 614.67 454.19 615.41 452.93 616.68 451.66 620.49 450.84 623.63 451.05 625.07 450.63 627.06 449.57 629.29 448.01 632.29 447.76 637.22 448.3 637.86 449.02 639.13 449.24 640.88 448.53 642.25 448.55 643.28 446.08 641.2 444.81 641.24 441.57 640.76 439.96 640.95 438.87 642.66 435.78 641.96 435.36 636.37 434.41 634.21 434.99 632.24 434.98 631.2 436.14 629.68 436.94 626.67 437.99 625.16 438.1 623.11 436.58 621.79 436.3 618.69 436.69 616.52 435.94 615.55 436.6 613.98 434.86 611.27 432.9 609.69 431.46 606.76 429.9 602.64 429.01 598.2 429.01 594.93 428.01 590.31 428.08 588.33 427.65 584.71 426.08 582.65 425.82 580.64 426.05 578.15 425.42 575.59 425.45 572.03 422.78 571.03 422.36 567.34 421.83 562.94 421.8 562.08 422.27 560.93 421.61 558.94 421.25 555.26 419.96 554.53 419.2 552.55 418.84 548.92 419.05 547.85 419.58 546.98 421.85 547.82 423.15 547.81 424.95 548.53 426.54 548.46 427.99 546.75 430.88 544.95 432.27 542.51 431.48 541.75 428.54 542.51 425.37 543.08 424.48 543.4 422.77 545.04 420.94 545.22 419.97 543.65 417.77 540.29 416.12 539.68 414.14 540.78 413.04 541.57 411.59 545.24 411.15 546.23 409.47 546.42 406.86 545.27 405.11 544.05 405 543.05 404.35 540.88 404.94 539.78 405.62 538.79 404.3 537.2 404.44 535.72 403.88 534.33 404.62 532.92 403.91 532.1 404.01 530.63 405.08 529.32 405.03 528.51 403.6 529.47 402.1 531.64 400.49 532.65 399.2 535.34 394.56 537.5 393.62 539.92 393.64 540.92 394.06 544.04 394.64 545.91 393.01 546.36 391.01 547.31 390.5 547.51 388.46 548.23 384.77 546.82 383.45 547.46 382.66 544.58 378.77 541.85 377.15 539.06 374.9 536.21 373.44 533.9 372.93 531.59 373.5 531.24 374.79 529.32 376.63 529.58 379.8 529.08 381.02 527.91 381.79 523.52 382.4 522.57 382.95 521.98 385.25 520.17 386.46 518.76 385.49 518.52 384.75 516.19 383.82 515.87 382.5 514.34 380.69 513.67 379.45 513.26 376.26 515.37 373.94 516.4 373.98 517.41 375.62 517.3 377.88 518.95 379.58 520.14 381.33 521.39 381.44 522.23 380.5 522.17 378.24 526.2 375.93 526.04 374.36 524.61 372.31 523.33 372.21 521.65 372.81 520.58 372.06 520.5 370.61 522.3 369.62 522.47 367.77 523.26 366.6 522.04 365.12 521.05 364.96 520.43 362.96 520.13 360.68 520.96 359.02 523.1 356.92 525.02 354.73 526.24 354.55 526.86 353.05 526.39 352.24 526.82 351.19 526.35 347.83 525.17 347.92 522.86 348.78 521.81 349.55 521.22 346.78 520.36 344.27 518.96 341.38 517.41 340.11 515.78 340.64 516.62 343.38 512.47 343.75 512.41 345.43 511.82 347.6 511.9 349.84 511.63 351.86 509.1 351.92 508.71 353.21 507.4 354.13 506.37 356.14 508.41 357.6 508.84 357.51 509.46 360.52 505.5 365.73 503.5 365.77 502.9 365.41 501.27 366.3 501.14 367.43 501.78 369.39 501.35 371.1 499.64 373.04 498.36 374.01 497.39 373.95 496.4 374.76 495.84 375.88 494.74 376.36 494.78 377.29 496.21 377.33 496.54 378.1 498.14 378.51 499.11 379.84 497.51 381.71 497.25 382.58 498.17 384.66 497.53 385.71 496.44 386.27 495.26 387.48 495.54 389.06 494.71 390.32 492.83 390.13 491.01 390.72 490.15 392.32 490.64 393.81 487.9 394.54 487.28 393.56 485.98 393.58 484.97 392.94 484.58 391.94 483.63 391.4 482.94 389.8 481.73 390.42 479.13 390.41 477.11 389.84 472.36 391.16 471.99 391.66 470.39 391.91 469.52 392.76 470.26 395.22 470.62 397.4 469.58 399.29 468.96 401.28 469.05 403.96 469.42 405.93 468.92 410.43 467.51 413.26 465.58 414.54 465.05 415.82 463.69 416.19 460.51 414.5 460.25 412.14 460.93 411.27 460.34 409.13 457.97 408.04 457.23 410.25 456.12 411.55 453.35 412.35 451.97 414.01 450.96 414.02 450.44 413.22 450.1 409.91 446.93 410.28 445.94 412.22 444.87 412.72 442.33 412.44 437.62 412.49 434.91 414.95 432.97 415.39 431.57 414.86 431.04 413.1 431.31 411.86 429.88 411 428.14 410.64 426.06 410.58 424.13 409.33 421.61 407.07 420.57 406.68 420.08 405.16 418.5 405.5 418.36 404.53 417.37 402.32 415.3 401.24 414.95 401.92 411.79 404.88 411.1 405.31 404.35 407 401.89 406.73 401.7 405.92 404.22 406.31 411.02 404.59 413.08 402.59 406.87 396.52 403 400.46 402.57 400.02 406.68 395.81 404.73 389.06 404.14 388.01 403.05 387.58 398.68 386.9 395.51 386.71 393.45 387.61 393.54 386.72 390.59 385.85 389.67 385.8 387.17 384.96 383.94 383.42 382.17 383.91 380.23 383.87 378.77 385.21 375.45 384.66 374.62 383.56 372.14 383.71 374.52 386.22 378.69 390.14 378.75 392 375.42 398.43 376.24 399.27 376.61 401.76 376.17 405.21 374.97 405.31 374.12 404.69 372.71 405.24 372.16 407.17 372.27 407.93 371.15 409.54 369.36 409.54 367.96 410.11 366.81 411.92 365.08 411.02 364.55 408.63 364 402.77 360.46 403.16 360.02 408.58 359.17 409.88 355.59 412.74 355.7 414.77 361.19 414.33 361.09 414.97 355.65 415.2 355.16 414.97 354.97 412.62 353.62 412.48 351.55 413.17 351.16 414.11 351.52 415.14 350.44 415.71 349.22 414.35 347.69 415.14 347.27 416.12 345.84 416.45 344.68 415.85 344.33 414.35 342.8 414.06 340.29 414.94 337.82 416.22 336.6 417.42 335.28 416.79 334.73 415.77 334.97 414.56 333.47 414.45 332.6 415.48 331.79 415.57 328.92 414.76 328.14 413.65 329 412.29 327.72 409.81 326.56 409.19 324.94 409.39 321.7 407.31 321.16 406.61 320.89 403.91 320.15 403.63 318.97 402.27 317.61 402.89 317.28 404.62 316.2 404.81 315.02 404.19 313.55 402.52 313.35 400.07 312.23 399.78 309.78 398.42 309.64 396.89 308.33 395.63 306.33 393.16 305.11 392.43 303.82 393.41 303.2 394.8 304.61 396.97 303.93 398.37 302.46 398.32 300.99 396.56 297.83 395.53 295.5 395.12 294.58 394.41 292.89 395.01 295.98 396.12 295.96 396.48 292.42 395.24 291.06 395.02 290.44 393.77 289.54 393.05 288.22 393 287.35 394.05 284.45 393.84 282.78 392.79 280.88 391.98 280.68 392.58 281.52 394 281.25 395.04 281.6 397.16 283.18 397.88 286.48 401.66 281.98 409.76 279.03 409.07 277.7 407.96 276.2 407.49 275.91 408.58 276.7 409.35 276.58 410.25 274.32 414 273.62 416.39 271.74 419.19 274.86 421.85 275.24 422.57 275.26 424.47 276.2 425.62 279.53 427.23 281.75 429.01 285.25 432.75 288.95 435.77 291.18 437.85 293.03 439.07 298.62 440.61 302.58 442.09 306.06 442.43 308.68 444.22 309.52 446.73 310.19 446.37 311.57 448.2 311.19 448.68 313.55 450.4 315.71 453.03 317.82 453.91 318.64 454.76 322.06 459.09 324.07 460.24 326.9 459.98 327.66 459.64 329.92 459.87 331.3 460.88 333.75 463.59 336.5 465.03 337.67 465.28 340.71 466.66 341.72 467.44 343.54 467.54 345.67 468.3 347.75 468.12 349.59 468.26 351.38 468.82 352.15 470.46 354.88 470.41 356.46 471.16 358.34 471.2 359.72 471.63 361.5 474.9 361.76 476.25 361.34 477.82 361.13 480.66 360.42 482.56 358.15 483.52 357.52 486.47 356.83 486.7 354.11 486.47 352.23 488.16 352.3 489.07 353.12 490.19 351.94 491.13 349.03 491.43 345.96 491.98 342.97 490.3 342.02 487.77 343.01 485.09 339.91 478.11 337.84 474.2 337.6 473.05 334.02 472.24 330.49 472.26 329.47 473.06 324.83 477.89 323.06 479.19 321.91 482.83 321.45 487.27 321.22 490.93 321.55 492.62 321.4 497.22 320.06 499.3 317.19 499.98 314.89 501.47 313.34 504.69 312.31 505.57 310.39 505.81 307.64 504.98 304.22 502.53 300.46 500.66 298.32 500.41 296.3 499.88 291.67 499.05 288.28 497.48 287.2 497.37 285.14 497.9 282.18 500.58 279.79 501.63 277.59 502.09 275.65 503.29 273.65 505.02 270.43 506.1 269.08 505.45 265.54 504.61 262.07 505.23 260.09 504.94 258 505.01 255.69 506.28 254.87 507.79 254.1 507.27 254.27 505.65 252.28 504.24 252.02 505.64 250.45 507.16 252.05 509.05 253.85 509.34 254.99 508.93 255.47 511.4 255.26 514.08 253.08 516.91 253.13 518.33 251.55 521.97 250.49 523.05 248.14 523.17 246.62 522.88 244.47 521.69 242.8 521.87 242.02 522.68 241.91 524.14 242.32 525.41 242.37 527.16 241.13 530.6 240.71 533.05 238.81 536.27 238.32 537.65 238.04 540.55 237.44 542.13 235.92 543.14 233.31 543.08 231.11 543.29 228.59 544.52 229.47 547.91 232.32 548.59 233.18 550.1 232.68 553.35 230.4 554.34 228.68 553.93 226.59 555.59 225.61 557.24 224.33 558.38 223.14 560.39 221.53 561.67 219.78 561.89 216.97 558.7 214.68 558.21 212.87 556.15 212.06 555.68 210.52 555.65 209.84 557.45 208.6 557.89 207.3 552.66 207.75 550.99 208.51 549.97 208.66 547.31 209.49 545.4 209.35 544.41 209.72 542.44 212.07 535.86 212.32 533.98 212.06 531.66 214.13 527.81 214.57 525.86 214.43 523.89 215.35 518.92 216.47 517.73 216.08 514.7 217.14 513.8 217.61 511.72 218.55 508.93 220.28 507.42 218.41 504.49 216.95 503.99 216.23 500.48 216.49 499.77 215.94 498.12 213.03 493.24 213.99 491.38 213.97 483.92 213.39 481.86 214.08 479.23 214.56 475.98 216.94 474.43 218.95 472.48 219.9 471.13 220.94 468.86 220.59 467.75 220.54 465.46 221.28 464.05 218.93 460.74 217.83 457.93 215.73 456.14 211.48 454.92 210.06 453.7 207.38 451.97 204.96 452.52 202.21 452.67 200.38 453.13 198.49 452.73 195.47 449.26 193.75 445.41 191.95 442.96 190.23 441.66 188.22 441.56 184.26 441.92 180.69 440.04 178.75 438.69 174.06 438.06 171.45 439.17 168.81 441.07 167.58 441.2 166.01 442.18 164.88 441.88 163.1 442.51 161.65 442.28 158.61 443.58 154.95 443.77 152.48 444.99 148.61 445.11 145.44 446.13 143.32 445.81 141.67 450.96 142.48 453.69 147.07 461.09 146.67 467.13 143.15 468.61 137.17 463.86 132.38 459.43 129.67 458.69 126.96 457.15 125.18 456.68 123.77 454.85 123.16 453.28 123.39 450.1 121.76 446.34 120.33 444.03 119.58 443.44 118.02 443.15 117.59 439.75 117.96 437.59 116.73 434.22 116.28 431.15 116.8 428.82 116 426.92 117.49 424.3 116.21 420.76 116.22 418.82 114.72 417.48 114.45 416.39 110.24 413.06 109.34 410.22 106.23 406.39 105.36 404.85 96.02 402.55 92.91 401.59 89.62 400.22 87.71 400.67 86.65 397.62 82.77 393.28 81.31 392.49 78.01 387.93 73.04 384.55 70.05 383.21 66.63 378.31 58.67 379.26 50.62 385.83 42.16 386.49 36.16 382.91 30.98 385.39 30.27 385.17 27.39 386.2 25.91 389.4 20.35 384.21 15.45 381.97 13.79 382.28 12.79 381.63 10.69 377.83 7.25 376.87 9.4 373.1 14.24 367.45 14.85 365.85 14.82 360.31 16.44 356.13 16.63 354.98 15.1 353.59 14.63 351.68 13.34 349.16 11.71 339.45 10.97 338.04 9.84 337.29 8.01 334.25 2.76 329.49 1.54 326.41 2.63 319.55 1.29 316.8 1 314.08 6.48 310.85 8.22 308.09 11.66 304.41 11.79 302.86 17.49 300.01 19.23 298.68 18.97 297.42 20.81 295.46 24.73 293.55 24.34 288.65 26.35 286.61 27.74 284.6 29.18 284.07 32.09 282.28 33.86 281.69 35.76 282.51 40.54 282.34 41.21 280.67 42.12 279.58 41.68 277.95 38.35 276.92 37.71 276.16 36.2 272.56 36 271.09 34.81 266.79 32.05 263.92 29.56 263.42 29.45 261.86 28.6 260.45 28.83 259.25 30.23 257.28 30.25 254.85 32.92 251.63 34.75 248.81 36.9 248 37.42 247.18 37.38 244.6 38.25 242.8 36.84 241.1 36.04 239.3 36.51 238.54 36.4 234.3 35.81 233.3 35.69 230.89 35.23 229.12 33.28 226.28 34.87 224.24 34.52 222.77 35.99 220.49 37.91 218.83 38.57 217.05 37.75 214 35.59 211.13 35.03 209.55 35.48 207.87 35.29 205.94 36.97 204.94 37.76 203.69 37.41 201.35 37.48 199.53 37.2 196.53 39.42 193.27 40.58 189.84 40.17 187.68 41.81 184.69 43.8 182.47 45.01 180.07 45.71 177.07 44.8 174.94 45.02 172.2 44.65 171.05 45.15 168.55 44.57 167.51 44.54 163.99 44.07 162.22 44.28 161.51 43.86 159.36 43.94 156.97 43.05 154.51 45.84 151.84 47.43 147.72 47.87 145.33 49.14 141.56 50.21 139.5 51.06 136.51 50.54 133.14 50.61 131.39 49.12 127.58 49.42 124.07 50.8 118.39 51.71 116.99 52.83 114.23 52.84 113.2 52.18 111.64 51.48 107.42 50.07 103.27 51.22 102.57 53.83 102.09 56.24 103.33 56.73 103.15 61.68 104.35 66.33 104.48 68.77 107.01 72.35 102.62 74.1 99.2 74.86 98.8 75.06 97.4 73.9 93.88 73.51 89.9 74.54 88.46 77.18 87.73 77.63 87.28 79.01 84.36 79.54 84.27 81.26 82.64 82.13 80.57 84.32 77.98 92.03 74.48 96.74 71.36 97.15 69.98 98.56 68.53 100.68 68.46 102.08 67.7 104.48 65.04 111.43 62.13 112.45 59.54 120.9 62.21 122.45 62.6 126.99 64.99 131.52 65.68 132.36 65.36 134.02 65.63 135.09 64.62 136.2 65.32 137.6 65.61 141.05 67.06 143.7 68.98 143.91 69.5 147.06 73.2 149.88 79.51 151.96 86.86 152.26 88.32 156.35 95.1 157.75 100.32 158.65 102.54 158.36 104.38 157.86 105.05 158.4 106.59 158.82 109.27 156.35 112.06 152.78 115.82 151.54 117.61 151.23 120.31 150.42 122.58 150.95 124.56 149.65 127.98 149.25 130.04 148.14 132.52 149.75 134.86 150.68 137.59 152.91 139.81 153.62 143.12 154.18 144.18 155.05 147.05 155.63 150.36 161.18 151.79 166.15 152.03 167.84 154.44 171.63 156.76 176.54 162.22 178.28 164.43 178.75 166.18 182 168.96 182.1 170.3 183.76 173.24 184.22 175.56 184.19 177.86 186.03 181.09 187.28 181.06 189.79 182.61 193.68 184.29 197.9 185.32 201.44 187.68 208.78 190.49 209.47 191.79 216.34 196.9 220.21 197.32 221.72 197.72 222.91 200.05 225.2 200.32 227.19 200.99 228.45 200.44 230.64 200.02 233.84 200.43 235.01 199.76 239.33 198.53 242.78 196.55 243.82 195.38 246.21 191.34 249.62 189.44 251.81 186.86 257.42 181.44 259.97 180.07 261.07 172.84 262.91 164.74 263.12 162.15 264.47 158.19 264.64 154.27 264.5 151.33 263.17 145.59 267.74 144.43 275.32 142.97 282.29 140.28 285.94 139.13 291.4 136.17 296.24 133.97 297.11 128.41 299.88 126.73 305.33 125.67 306.22 126.07 307.35 125.03 309.28 124.25 314.04 118.46 317.51 117.04 320.79 117.85 323.13 118 325.16 118.42 326.43 118.21 328.54 118.96 330.56 118.58 336.01 119.03 338.73 118.03 347.24 117.29 349.03 118.87 351.96 120 353.42 120.29 354.41 119.63 355.97 121.76 356.89 125.89 357.55 126.79 362.88 130.91 363.66 131.77 365.74 132.72 367.4 134.07 369.2 138.97 370.69 140.63 376.6 144.42 380.68 145.6 384.6 145.09 387.16 145.92 388.61 144.34 389.24 142.99 390.43 142.55 394.68 143.86 396.89 145.45 397.59 145.38 401.4 143.62 405.62 143.04 410.05 147.29 414.7 150.49 417.57 151.8 420.4 153.69 425.44 151.36 430.22 149.87 433.88 153.04 435.42 154 438.21 154.64 446.61 150.6 453.84 153.65 460.71 154.35 465.27 152.38 469.5 149.87 471.43 147.72 472.92 147.07 473.85 145.84 476.51 143.6 476.99 142.09 479.49 139.33 481.3 136.55 485.59 133.12 488.47 128.93 490.04 126.93 489.63 123.04 492.61 122.55 495.09 120.85 499.84 119.93 501.76 119.42 503.61 117.21 511.31 111.32 513.47 111.82 517.73 111.46 520.62 110.65 521.39 109.14 523.11 107.02 521.5 103.03 520.38 100.8 519 99.56 517.31 98.49 517.63 97.65 517.11 90.86 515.77 87.45 515.47 85.1 514.02 80.51 514.31 76.51 515.5 67.55 515.25 64.35 517.16 62.81 516.72 60.68 509.28 55.04 508.75 45.84 516.77 41.08 518.83 39.76 521.87 34.91 524.27 33.7 526.01 32.02 530.05 29.98 533.24 31.28 541.6 33.29 542.99 35.44 548.39 36.92 550.12 36.69 552.46 35.6 553.42 35.47 556.75 33.03 560.09 32.95 561.03 32.17 565.25 31.15 566.44 30.62 567.96 26.97 569.32 25.25 571.61 23.45 573.6 25.28 576.61 24.12 575.45 20.48 580.45 20.12 581.24 22.17 585.11 20.84 585.42 17.32 585.89 17.55 589.35 20.74 590.25 21.36 592.8 22.29 596.11 23.99 600.46 22.59 602.99 21.42 606.25 23.59 610.92 24.3 612.3 24.12 617.5 25.81 618.86 27.2 620.03 22.68 620.36 19.97 620.22 18.17 619.6 15.75 625.12 8.98 626.99 8 628.42 9.75 629.67 10.03 632.13 9.1 633.1 7.42 633.16 6.51 635.14 6.59 639.67 1 641.69 2.9 642.79 3.15 644.98 5.17 648.11 7.72 650.74 10.09 652.55 12.07 653.85 11.39 653.59 9.24 654.57 9.02 655.56 13.57 656.13 26.6 652.02 30.08 649.03 39.89 648.9 39.9 Z" fill-rule="evenodd" id="38113000"/>
</g>
</svg>