<?xml version="1.0"?>
<svg xmlns="http://www.w3.org/2000/svg" version="1.2" baseProfile="tiny" width="800" height="639" viewBox="0 0 800 639" stroke-linecap="round" stroke-linejoin="round">
<g id="sigung">
<path d="M 581.34 30.15 585.56 37.44 582.2 48.25 581.2 49.07 578.38 60.84 578.89 65.87 577.52 66.39 576.8 69.05 577.34 73.09 576.5 74.77 576.75 78.49 578.75 81.81 581.68 83.56 585.49 86.68 587.84 90.11 590.43 92.01 593.52 95.55 596.1 95.9 599.95 99.8 601.92 100.97 618.07 104.09 621.93 106.37 624.85 106.71 629.51 109.69 634.08 110.55 636.61 112.49 646.66 125.48 648.35 127.15 656.1 133.17 657.1 135.53 659.85 137.53 661.1 142.91 664.94 144.08 669.07 151.6 670.19 158.56 672.5 163.96 675.33 168.51 679.05 172.16 671.03 174.39 672.01 175.55 670.19 179.89 668.35 180.86 667 185.76 667.27 189.6 668.46 191.39 666.6 196.41 669.16 196.71 673.89 200.06 676.18 204.66 676.83 208.07 681.15 211.6 683.61 209.24 687.37 212.53 688.72 214.47 692.12 216.93 693.97 221.99 699.85 231.84 702.83 230.94 706.09 231.86 710.94 232.12 713.15 234.36 722.29 237.35 720.94 240.38 724.29 248.96 725.21 254.5 727.1 252.03 736.07 257.67 739.15 259.94 739.37 265.03 740.08 266.17 732.63 280.19 735.45 285.7 733.39 291.23 731.02 302.12 732.89 308.93 729.09 313.06 725.85 319.24 722.54 322.65 719.48 324.7 720.04 327.96 718.94 330.7 720.09 343.22 729.06 349.23 734.95 348.93 740.71 353.48 749.22 362.52 754.69 364.66 758.07 362.93 759.01 357.72 762.93 356.64 766.29 359.26 773.97 356.39 776.79 357.28 780.72 359.97 787.76 360.14 790.45 364.56 793.94 369.13 799 374.87 797.11 375.45 791.31 375.98 785.85 379.46 783.06 378.83 778.78 381.65 776.24 380.85 772.08 382.31 765.38 387.7 759.39 394.32 756.75 398.14 753.23 402 749.98 403.79 747.12 404.29 728.23 400.04 724.79 399.84 710.07 399.96 704.61 400.94 702.08 402.01 690.46 408.05 681.39 412.24 675.31 415.73 672.65 416.55 659.41 416.76 643.11 417.27 635.89 417.94 635.99 423.05 633.28 423.7 633.08 418.11 627.09 418.27 626.44 418.77 626.48 423.31 602.23 424 601.55 424.69 595.75 424.84 595.5 420.51 596.31 418.59 596.57 418.58 602.26 399.83 610.13 393.18 609.03 368.26 607.14 359.54 605.26 359.97 605.76 364.08 603.28 365.39 599.82 361.6 594.8 357.07 588.82 352.19 584.64 348.33 582.55 347.86 578.69 344.22 570.03 354.91 566.26 354.76 566.13 356.5 564.29 359.7 559.59 361.49 557.21 360.94 554.47 357.6 550.89 359.47 540.35 372.42 541.54 377.05 541.81 380.49 541.18 385.68 538.94 394.31 536.35 391.66 526.42 388.42 523.79 388.77 514.86 387.41 508.63 383.27 503.8 385.49 495.5 388.17 489.17 384.93 484.3 383.15 482.58 381.96 475.97 375.87 475.07 375.41 474.48 382.15 467.09 384.69 465.59 380.78 456.04 381.46 458.24 388.42 452.49 390.64 448.7 387.13 444.34 390.58 441.74 393.87 438.83 400.86 436.55 401.86 428.5 403.81 426.7 405.31 420.33 405.45 413.97 410.14 412.13 410.39 407.66 412.47 404.35 412.9 394.05 410.07 391.39 405.95 375.42 402.11 369.33 399.63 361.61 403.53 358.28 406.75 353.71 409.06 347.9 418.32 343.97 420.86 328.65 429.96 329.66 447.54 343.87 458.33 344.7 462.4 341.05 465.35 341.53 471.47 339.27 488.6 338.7 496.24 341.48 505.03 342.06 509.51 344.62 516.05 345.6 529.02 344.99 530.62 348.23 532.67 350.85 535.04 353.01 539.31 356.08 546.94 352.78 551 351.32 553.87 345.8 555.42 337.66 556.11 333.54 555.16 318.84 566.43 315.29 570.65 311.62 571.62 302.56 573.39 297.81 576.64 292.13 577.56 292.91 585.01 289.91 588.83 284.42 596.85 276.21 603.4 272.77 608.72 267.98 614 267.07 616.89 262 621.17 260.22 623.51 257.38 624.76 253.68 628.87 245.6 633.68 236.9 637.43 223.77 636.1 209.97 630.28 193.93 638 188.6 636.76 185.66 634.94 178.67 628.88 169.53 631.73 159.92 636.19 154.51 632.57 149.02 630.07 140.15 623.95 131.68 615.82 123.62 616.93 116.35 620.28 115.01 620.42 110.79 617.38 102.67 614.88 100.4 615.72 99.19 618.3 96.43 621.33 91.53 619.73 84.06 620.71 76.25 618.45 64.98 611.21 62.12 608.03 58.68 598.67 55.52 596.08 51.56 594.26 50.05 592.61 39.87 584.74 38.61 583.03 36.86 575.13 33.89 571.06 38.15 565.76 39.64 562.56 45.35 555.71 47.63 551.75 50.01 545.41 49.62 544.55 53.8 540.56 55.34 537.75 57.88 529.16 58.6 524.95 61.4 522.39 62.73 519.01 63.15 514.99 65.36 509.71 68.41 508.71 74.14 507.79 77.62 502.28 81.64 499.89 82.84 494.74 86.56 484.97 89.42 480.65 90.16 477.6 89.16 473.73 91.74 464.29 88.41 462.65 87.35 453.27 88.86 450.62 86.85 449.66 84.26 446.1 80.58 442.63 76.48 438.09 70.7 432.79 67.35 430.73 65.99 427.2 58.91 419.92 55.05 420.21 46.82 417.84 44.9 416.57 36.87 416.91 32.92 415.26 30.85 406.62 29.81 399.33 29.64 391.02 30.51 388.54 29.8 384.33 27.99 382.98 26.71 380.11 20.66 378.01 17.1 373.72 15.12 373.04 12.87 370.71 11.84 367.96 10.63 361.84 5.37 354.37 6.6 350.22 9.47 344.07 9.78 341.28 11.18 339.22 8.73 323.07 4.34 308.64 9.66 300.59 10.89 297.86 11.17 287.18 9.01 279.94 10.49 277.01 10.22 264.46 12.43 262.07 11.81 260.14 12.58 255.68 10.48 252.97 9.89 249.37 6.19 248.93 4.73 247.48 3.84 244.26 1.75 241.95 1 239.59 5.02 235.81 5.9 233.06 4.97 229.38 5.03 226.67 6.73 224.27 7.48 219.68 8.69 215.98 9.24 208.88 12.44 206.51 13.85 201.56 14.23 196.64 12.95 194.08 9.11 189.45 9.54 187.04 11.85 184.01 16.63 181.8 17.53 178.65 19.72 176.3 20.55 172.99 20.41 169.07 23.63 166.7 24.88 162.77 27.26 157.29 31.38 154.41 34.96 150.17 40.01 142.79 43.14 141.59 48.09 138.85 54.76 137.36 56.67 132.97 59.87 129.78 63.82 127.47 66.52 127.41 71.02 121.58 73.13 119.6 75.28 115.09 75.34 110.45 75.95 104.73 75.5 101.14 76.99 97.01 77.14 94.28 78.77 91.19 79.12 88.64 81.54 84.27 85.22 80 88.03 77.35 88.43 74.03 87.18 66.8 87.94 62.98 87.69 60.3 84.22 56.1 84.16 54.01 85.39 50.38 86.19 44.21 85.7 38.93 86.41 34.93 86.52 28.5 88.45 26.06 91.67 26.47 95.58 25.11 98.52 23.18 102.22 21.67 105.7 23.72 109.07 24.01 113.35 20.22 114.87 17.06 119.71 15.36 125.29 18.81 128.01 19.96 131.32 19.65 134.83 21.88 137.66 22.15 139.12 24.97 141.56 26.35 147.12 26.61 151.13 28.66 153.9 26.34 164.25 26.08 171.45 28.55 174.88 37.13 179.6 45.91 179.46 50.13 180.89 54.48 183.91 57.62 187.89 58.73 190.4 58.6 193.55 55.81 198.52 57.65 211.37 56.34 216.18 58.56 222.58 57.65 224.43 54.51 228.59 54.36 231.08 56.18 235.18 54.94 241.87 50.81 245.96 49.69 248.12 48.27 254.7 48.98 257.35 47.42 261.83 46.16 265.34 46.98 261.13 50.6 261.61 53.74 265.91 55.12 270.7 57.38 277.63 57.19 281.31 60.03 283.53 63.16 288.75 55.06 292.62 58.94 297.58 62.34 302.87 64.52 304.63 69.58 308.28 71.92 308.84 70.3 312.86 68.95 317.07 68.55 318.02 67.78 316.43 61.01 318.5 60.08 319.52 58.13 319.21 53.68 324.69 48.97 324.94 43.32 330.25 36.24 333.41 36.12 335.52 35.02 337.87 36.88 350.24 39.15 358.59 39.47 362.27 42 366.37 43.12 368.98 42.01 372.6 37 379.01 33.33 382.62 29.52 384 25.5 392.23 25.39 403.99 15.88 415.97 11.49 421.34 7.97 422.07 4.69 429.83 1 436.65 1.01 455.47 8.46 458.67 7.54 467.57 11.42 471.28 16.67 483.11 21.51 488.34 19.19 504.4 30.99 508.25 33.68 525.32 46.18 538.06 50.05 542.31 49.27 550.96 45.71 557.12 40.89 561.02 39.78 565.5 39.64 569.53 36.46 580.37 30.16 581.34 30.15 Z" id="38114000"/>
</g>
</svg>