<?xml version="1.0"?>
<svg xmlns="http://www.w3.org/2000/svg" version="1.2" baseProfile="tiny" width="800" height="733" viewBox="0 0 800 733" stroke-linecap="round" stroke-linejoin="round">
<g id="sigung">
<path d="M 755.38 61.96 756.09 70.72 755.67 73.23 754.83 75.49 754.05 75.6 754.47 77.04 754.11 79 753.48 80.32 752.9 83.45 752.2 83.96 750.66 86.43 750.58 88.36 749.97 88.77 750.7 91.59 752.17 92.91 752.38 94.25 751.9 94.59 752.42 97.35 754.13 99.02 754.42 100.27 755.67 102.48 755.6 102.98 757.69 105.16 758.16 107.5 754.92 109.47 752.82 109.85 752.19 112.96 750.28 116.38 749.12 116.79 748.5 117.93 747.61 118.18 744.73 120.17 744.01 121.33 743.87 123.97 744.24 126.73 744.22 128.49 743.84 129.66 744.08 131.46 743.1 132.72 742.2 133.03 739.86 132.87 737.3 133.37 735.11 132.9 734.11 134.61 732.37 134.61 728.99 135.21 726.88 134.83 726.01 135.38 724.5 135.28 723.06 135.81 721.06 135.62 720.15 135.85 718.6 135.59 719 137.8 719.77 139.56 720 142.05 718.43 142.83 717.88 144.27 713.8 148.82 714.89 149.39 715.74 150.8 715.9 151.72 717.15 152.42 721.91 153.62 722.85 155.46 724.86 156.19 725.49 156.98 727.35 157.79 727.95 157.71 728.2 159.17 727.42 159.63 725.58 159.39 725.84 161.11 724.02 161.8 722.76 162.94 722.8 164.12 721.56 165.3 722.68 166.77 723.55 169.17 725.23 169.52 725.82 171.01 726.66 172.04 726.4 172.75 726.99 174.77 728.07 176.64 730.9 180.09 728.94 181.71 728.71 183.23 727.86 184.14 728.88 184.76 730.52 187.92 730.55 189.13 732.74 191.84 734.82 192.97 736.06 192.72 736.89 193.91 740.11 195.7 740.46 197.13 741.92 199.79 740.75 205.23 738.61 207.85 738.11 209.32 737.81 212.97 737.13 215.76 734.99 217.73 731.77 220.19 731.3 221.62 729.12 223.49 729.2 224.73 728.76 226.28 730.2 227.06 733.84 230.01 735.87 232.97 736.55 234.69 738.17 233.41 739.34 234.65 739.45 235.86 740.73 238.2 741.6 239.12 741.71 241.75 743.71 243.82 744.71 243.68 746.08 242.91 745.58 244.65 746.53 246.92 748.52 248.76 747.3 251.46 747.69 253.23 748.76 254.82 747.42 257.24 747.61 261.71 748.64 262.89 750.72 263.72 751.42 264.88 754 267.01 754.22 267.76 756.47 270.19 757.99 270.96 758.98 270.69 760.23 269.3 761.12 269.18 763.11 270.15 763.8 271.2 765.25 275.27 766.02 276.66 769.11 278.32 770.19 279.33 771.39 279.61 772.56 280.76 773.61 283.87 772.49 285.19 770.8 288.94 767.15 291.81 761.49 294.41 758.53 297.44 757.48 299.1 757.31 301.31 755.47 302.58 751.98 305.47 750.33 306.37 750 308.6 750.52 308.89 752.94 312.85 754.87 320.2 755.55 323.64 759.75 330.31 760.19 336 761.09 338.4 766.85 344.02 767.92 345.31 772.57 348.4 773.48 355.43 772.19 358.23 773.3 361.35 773.19 363.06 773.6 367.2 774.06 368.84 776.47 374.28 777.93 375.5 790.72 376.73 793.21 376.92 795.46 384.04 798.67 390.14 799 391.06 794.5 392.7 788.59 394.43 785.07 394.8 784.61 394.81 779.35 397.86 777.4 399.4 775.22 399.47 773.34 400 770.35 402.33 766.16 404.06 764.1 404.44 757.92 402.57 749.65 396.51 747.78 395.21 740 389.5 737.46 390.62 731.73 388.28 729.93 385.73 725.62 383.86 724.07 384.3 714.95 380.69 711.64 380.69 707.88 382.47 707.53 384.06 704.92 385.77 699.12 387.9 693.42 392.5 689.43 392.55 688.76 394.5 687.01 396.34 683.9 398.12 682.15 400.54 680.88 401.08 678.9 400.54 677.12 399.32 673.07 399.16 667.07 398.06 665.93 397.16 664.91 397.69 663.38 397.75 660.8 401.18 660.69 403.91 658.03 406.19 658.18 408.35 657.68 409.29 656.68 409.75 657.45 413.02 656.99 413.39 654.95 413.59 653 414.24 652.73 415.02 650.96 413.89 650.11 411.44 647.54 410.39 645.14 408.74 643.26 406.86 640.74 410.78 639.66 409.27 637.87 407.89 634.52 407.99 632.19 406.89 630.11 406.22 629.88 404.7 631.92 402.95 630.22 402.55 628.05 403.17 626.76 403.92 623.57 403.58 622.53 404.26 620.54 404.81 617.3 406.8 615.31 407.41 614.1 406.52 612.09 406.6 611.2 408.12 608.09 408.56 605.76 407.48 599.53 408.12 597.12 407.23 595.6 408.58 594.38 408.64 592.45 408.1 590.99 406.58 590.29 404.47 590.36 402.43 588.08 398.18 586.41 394.03 582.92 392.83 577.91 392.96 576.56 394.08 574.62 393.09 571.92 392.96 570.74 392.29 570.03 390.93 568.67 390.8 566.96 389.72 565.36 389.87 564.04 389.31 561.34 387.64 558.99 388.47 558.25 389.99 556.18 391.83 554.55 391.69 552.86 390.7 551.06 391.43 549.64 392.36 547.74 393.02 546.18 392.82 545.25 394 545.19 397.12 544.85 399.05 545.09 401.61 544.7 404.6 544.11 406.35 544.14 407.36 545.82 409.4 545.94 410.7 545.57 412.55 546.17 416.05 545.98 417.65 544.62 418.94 542.84 421.01 541.66 423.12 541.49 424.36 540.7 425.85 540.63 427.17 539.91 429.18 540.13 430.91 539.83 433.68 539.8 435.93 538.76 438.11 537.74 439.07 535.56 441.89 534.25 441.92 532.34 443.04 530.78 444.58 529.85 446.71 526.62 447.43 524.23 448.75 522.71 449.34 520.26 452.91 518.52 454.96 516.53 456.36 515.38 459.01 514.77 460.92 513.21 462.06 513.28 463.96 512.87 465.56 511.81 466.7 511.37 468.22 509.06 469.29 507.94 470.76 507.73 471.93 509.59 474.17 510.21 475.41 510.03 477.79 509.34 480.19 507.79 481.34 507.53 484.77 506.94 486.56 506.58 488.79 505.75 489.95 505.73 491.26 506.18 493.04 505.75 494.37 503.8 496.21 504.16 497.35 505.18 498.47 505.61 500.02 506.32 500.73 508.11 500.94 508.39 502.68 509.41 504 509.04 506.15 509.34 507.09 508.27 508.24 508.4 514.32 507.68 515.74 508.73 519.24 508.59 524.42 508 525.74 505.42 529.64 507.55 536.62 508.73 544.44 508.06 545.44 507.9 546.79 506.51 549.77 505.92 551.78 508.47 555.39 509.05 558.36 509.56 559.69 510.64 560.82 511.6 561.15 513.33 563.22 516.26 564.24 516.88 565.63 517.76 566.28 518.1 568.32 517.68 569.52 517.77 573.54 518.27 577.07 519.27 581.26 521.19 582.05 525.08 581.89 526.01 582.51 529.99 583.65 531.87 583.51 535.3 587.04 535.96 588.75 537.58 589.75 540.39 592.31 542.37 594.51 544.15 596.19 545.41 597.91 546.38 598.37 545.65 599.66 546.17 604.2 547.78 605 546.53 609.57 547.01 611.44 546.66 612.92 545.27 615.01 543.47 619.74 542.88 622.23 540.94 623.39 539.25 626.05 536.47 626.5 534.99 626.98 533.92 629.54 533.72 631.49 533.08 633.12 531.72 634.36 531.37 636.4 530.14 640.56 529.39 641.92 527.37 643.85 527.55 644.27 526.4 647.34 525.3 649.26 522.53 652.57 521.81 654.12 519.74 656.69 518.82 657.29 517.47 657.02 514.75 655.98 513.1 654.52 505.22 655.2 502.71 656.13 497.66 655.71 495.79 656.07 493.83 655.37 492.66 655.56 490.78 655.18 488.62 655.04 485.58 654.28 482.37 655.6 477.96 660.96 476.18 661.68 475.13 662.65 474.3 662.28 469.26 663.26 466.7 664.81 465.89 669.96 461.41 671.99 456.36 674.74 452.97 675.8 446.52 678.3 439.51 679.64 435.28 680.72 436.51 686.03 436.64 688.75 436.49 692.38 435.24 696.04 435.03 698.45 433.33 705.94 432.32 712.64 429.96 713.9 424.77 718.92 422.74 721.31 419.58 723.07 417.37 726.81 416.41 727.89 413.21 729.73 409.22 730.87 408.13 731.49 405.17 731.1 403.14 731.5 401.97 732 400.14 731.39 398.01 731.14 396.91 728.98 395.51 728.61 391.93 728.22 385.57 723.49 384.94 722.29 378.14 719.68 374.86 717.5 370.95 716.55 367.36 714.99 365.03 713.56 363.87 713.59 362.17 710.59 362.2 708.46 361.77 706.31 360.24 703.6 360.14 702.35 357.13 699.78 356.7 698.16 355.09 696.11 350.54 691.06 347.04 688.91 345.47 686.68 340.87 686.46 335.73 685.13 335.19 682.07 334.39 679.41 333.88 678.44 333.22 675.36 331.15 673.31 330.29 670.79 328.81 668.62 329.83 666.32 330.2 664.41 331.41 661.24 330.91 659.41 331.66 657.31 331.95 654.81 333.1 653.16 336.4 649.67 338.69 647.1 338.3 644.62 337.8 643.19 338.26 642.57 338.54 640.86 337.7 638.81 336.4 633.97 332.62 627.7 332.33 626.35 330.41 619.54 327.81 613.7 324.88 610.28 324.69 609.79 322.24 608.01 319.05 606.67 317.75 606.4 316.72 605.76 315.73 606.69 314.2 606.44 313.42 606.74 309.22 606.1 305.03 603.89 303.59 603.52 295.77 601.06 294.82 603.45 288.39 606.14 286.17 608.61 284.87 609.31 282.91 609.38 281.61 610.72 281.22 611.99 276.87 614.88 269.73 618.13 267.7 620.52 266.89 622.44 265.3 623.95 264.81 624.03 263.53 626.73 263.12 627.15 260.68 627.83 259.72 629.16 260.09 632.85 261.15 636.1 260.97 637.4 260.27 637.77 258.65 640.94 255.33 645.01 253.08 642.65 248.77 642.54 244.18 641.42 243.74 641.6 241.51 640.44 239.09 640.89 238.03 641.54 234.06 640.02 234.7 639.08 234.03 635.4 232.5 634.35 230.29 630.09 228.4 629.17 226.23 627.72 223.99 626.73 222.78 623.04 222.21 621.95 219.48 620.68 216.03 613.56 215.9 612.29 216.26 611.33 214.15 606.53 212.16 603.63 210.87 602.93 208.39 600.56 205.24 600.11 203.79 599.19 203.65 596.64 201.4 595.25 194.61 594.2 193.06 593.65 192.12 594.53 190.01 597.65 187.24 597.66 185.57 598.71 183.79 598.72 180.64 599.19 175.21 600.44 173.24 600.53 171.71 601.53 169.11 601.27 164.2 597.81 159.6 599.4 156.45 602.15 154.29 602.31 151.83 602.16 148.65 603.92 146.13 604.07 144.16 603.49 143.25 604.64 140.53 604.22 139.45 603.4 138.78 602.37 137.37 601.78 136 599.07 136.12 598.48 135.47 596.54 136 595.26 135 593.88 134.73 591.89 134.12 590.64 132.23 590.21 129.09 587.16 127.43 585.02 125.14 584.81 124.13 583.19 122.67 579.64 123.73 577.42 123.27 575.88 123.02 573.51 122.15 571.63 121.64 569.7 120.46 569.06 119.88 567.25 118.89 565.85 119.05 563.59 118.41 562.38 116.29 562.41 115 561.33 113.76 559.23 111.75 557.76 108.51 556.07 106.5 556.88 105.96 558.2 104.93 558.92 104.24 558.62 102.51 558.72 99.7 558.11 97.57 558.07 92.61 559.36 91.22 559.85 89.93 559.63 86.41 560.07 85.68 559.12 83.55 555.61 82.26 552.7 82.5 551.17 83.24 548.85 82.87 547.93 83.5 546.57 85.61 541.11 86.78 538.85 87.05 537.04 87.76 535.94 87.21 534.28 84.9 525.97 83.29 522.9 81.94 521.36 78.63 519.47 78.49 518.8 76.38 514.22 76 512.15 73.94 511.46 73.2 510.17 71.35 508.59 69.4 509.87 66.26 510.64 65.5 510.47 64.09 510.93 60.91 511.41 60.47 510.23 60.33 507.97 60.64 506.86 59.99 505.03 58.43 504.55 56.96 503.1 56.03 502.93 54.22 502.03 51.26 501.4 51.99 497.36 51.41 495.2 51.79 494.17 53.15 492.97 55.04 490.88 56.14 488.63 56.86 485.59 57.37 484.68 59.35 484.17 60.27 483.44 62.66 478.17 62.17 476.66 62.81 475.23 63.15 473.39 61.29 471.28 59.24 470.28 56.8 468.06 55.44 466.61 54 465.85 52.44 464.05 51.18 463.91 50.24 462.64 47.52 463.38 46.1 462.99 42.46 463.42 40.45 464.08 40.22 465.76 39.67 466.62 38.51 467.19 37.23 467.29 32.19 468.66 29.7 466.45 23.05 463.34 20.92 461.9 18.34 459.07 17.35 457.7 15.36 456.24 12.12 455 10.57 453.44 9.43 452.83 7.51 452.49 4.74 451.68 1 451.15 5.02 439.63 7.36 433.65 7.73 431.47 7.96 428.51 9.62 421.53 10.18 417.41 10.54 416.35 13.33 406.3 17.17 400.82 21.42 395.08 30.78 390.81 51.94 383.41 58.24 381.34 62.02 379.69 67.02 374.97 69.35 372.01 68.35 367.42 63.76 361.06 61.11 358.03 57.67 353.31 51.1 350.27 43.54 338.05 40.99 328.36 40.53 317.32 40.54 313.65 42.9 306.21 46.74 295.09 51.52 283.94 56.1 275.74 58.21 272.75 69.68 263.76 81.74 251.6 97 247.56 107.45 241.54 108.53 238.57 106.76 235.96 105.75 233.46 100.71 216.62 98.19 205.62 97.15 194.58 95.14 183.57 92.82 172.56 92.08 161.52 92.52 150.46 93.73 144.41 97 139.32 103.49 131.08 106.28 129.46 108.43 129.09 113.61 127.12 117.56 126.55 122.19 126.25 131.11 127.57 136.06 128.71 144.85 131.2 149.98 133.42 158.48 138.07 160.89 140.29 164.01 143.9 169.47 148.91 177.24 159.8 183.39 170.73 189.14 181.67 192.54 187.44 197.12 192.56 200.26 196.27 202.16 197.27 206.78 198.91 220.52 204.3 234.41 207.67 248.31 211.59 262.15 212.35 276.02 214.98 289.87 216.28 303.62 212.52 305.55 208.68 305.42 206.98 303.39 201.47 296.72 190.55 289.19 182.68 287.6 179.68 275.09 168.88 270.2 162.85 267.28 157.98 267.34 151.18 269.48 146.88 270.96 142.15 274.45 136.94 276.95 135.68 281.43 133.73 288.18 132.57 301.97 131.1 315.77 130.04 329.59 129.65 339.16 134.42 343.54 136.04 350.16 136.97 350.66 135.48 349.22 134.22 352.97 123.65 357.09 123.01 364.09 125.64 366.54 125.29 370.93 123.85 372.77 122.95 374.94 122.64 381.08 118.65 384.59 115.67 385.32 113.61 384.5 111.4 375.68 100.52 367.61 89.63 364.69 84.49 362.19 78.68 362.21 75.33 363.92 71.78 367.42 67.52 369.71 63.1 373.92 56.34 381.64 45.13 383.12 42.88 390.75 36.14 396.76 33.77 405.62 30.66 407.28 33.55 416.96 44.41 424.72 49.32 435.28 55.1 440.19 58.1 451.11 61.72 452.62 62.16 465.34 65.23 468.98 66.03 480.39 68.12 486.49 68.05 494.19 67.22 507.98 65.4 513.58 64.57 518.08 59.79 521.58 54.68 524.28 53.29 532.38 42.08 539.98 30.87 548.51 19.64 562.11 8.31 566.83 4.3 589.62 1.45 592.67 1 594.66 7.65 600.53 18.59 605.02 24.21 617.89 32.53 631.93 43.35 645.97 54 663.54 66.68 673.87 67.32 684.92 68.79 687.73 68.36 701.58 69.56 729.21 68.97 742.98 66.06 755.38 61.96 Z" id="38520000"/>
</g>
</svg>