<?xml version="1.0"?>
<svg xmlns="http://www.w3.org/2000/svg" version="1.2" baseProfile="tiny" width="800" height="626" viewBox="0 0 800 626" stroke-linecap="round" stroke-linejoin="round">
<g id="sigung">
<path d="M 289.85 618.04 290.5 618.07 291.38 619.99 291.19 620.65 290.2 621.49 289.61 621.4 288.41 622.76 287.19 623.63 285.73 625 284.86 624.2 284.83 623.48 285.69 621.5 286.87 620.45 286.89 619.1 287.29 618.24 288.54 617.86 289.85 618.04 Z M 301.17 609.46 302.28 609.59 303.87 610.15 304.65 610.77 304.54 612.15 302.67 614.01 299.97 614.04 298.62 613.77 296.3 612.68 294.15 612.62 293.41 612.05 293.85 611.13 295.07 610.8 296.55 610.09 297.59 609.86 299.65 609.78 301.17 609.46 Z M 274.77 600.42 275.83 600.91 275.61 602.23 274.39 601.73 273.7 601.74 273.36 600.95 274.77 600.42 Z M 157.84 589.77 161.43 591.78 161.97 592.48 163.62 593.84 163.54 594.7 162.5 595.67 160.92 596.55 160.02 598.29 159.94 599.86 160.8 601.14 161.56 601.34 162.26 602.17 163.56 602.8 163.65 603.32 162.96 604.25 163.06 605.7 161.57 605.95 158.18 605.06 156.45 604.21 155.77 603.32 154.86 603.07 153.2 601.61 152.35 600.56 153.54 600.69 154.02 600.2 156.05 600.01 156.46 599.76 157.57 597.48 157.43 595.53 156.59 593.57 155.54 591.61 155.44 590.31 155.82 589.59 155.58 588.63 156.03 588.17 156.79 588.57 157.84 589.77 Z M 360.94 583.07 361.64 583.8 362.06 586.28 363.08 587.36 361.63 588.58 359.95 588.57 359.04 588.19 358.85 587.32 359.3 585.95 359.78 585.31 359.93 584.38 360.94 583.07 Z M 361.36 580.24 360.98 581.47 360.38 581.88 359.53 581.23 361.36 580.24 Z M 338.48 574.9 338.2 576 337.54 575.29 338.48 574.9 Z M 303.46 574.76 304.92 575.63 306.22 575.94 307.49 576.89 308.28 576.93 309.3 577.65 309.01 579.06 309.4 579.55 308.37 581.09 307.78 581.4 306.69 582.62 306.2 583.54 306.44 584.77 305.45 587.06 304.75 587.81 303.08 588.07 302.11 587.58 301.54 586.71 301.51 584.48 301.33 583.52 300.66 582.85 299.64 582.49 298.59 581.25 298.45 577.54 298.66 576.79 299.59 575.64 300.04 575.67 301.58 574.76 303.46 574.76 Z M 307.92 547.94 309.06 548.53 308.89 550.82 308.19 551.61 307.38 551.59 306.42 550.85 306.17 550.17 306.58 548.84 305.72 547.09 305.78 546.29 307.49 547.78 307.92 547.94 Z M 213.98 545.18 215.05 545.37 215.81 546.03 215.83 548.18 214.71 549.86 214.62 551 213.29 550.03 212.61 547.79 213.03 546.1 213.98 545.18 Z M 313.49 532.88 314.73 533.18 315.28 534.23 313.52 535.5 313.32 536.09 312.04 535.98 311.84 534.55 312.04 533.26 312.58 532.7 313.49 532.88 Z M 325.48 523.72 326.38 524.58 326.09 526.23 326.28 527.18 325.11 528.42 324.01 528.34 323.61 527.06 322.77 526.18 322.01 524.85 320.77 524.22 321.42 523.62 321.26 522.36 322.01 521.29 322.88 521.07 324.41 521.85 325.48 523.72 Z M 213.19 513.79 214.22 513.82 214.08 515.24 214.69 516.48 214.5 521.48 212.84 520.96 210.98 518.07 210.76 516.81 211.56 514.88 211.86 513.4 213.19 513.79 Z M 417.6 504.79 418.43 505.71 419.59 505.97 420.06 506.92 419.88 508.11 422.08 510.04 423.2 510.4 423.62 512.25 423.4 512.88 420.25 511.22 419.65 511.04 418.19 507.56 417.3 506.95 416.64 505.63 416.5 504.29 417.6 504.79 Z M 416.01 500.32 416.48 500.63 417.17 502.94 416.2 502.91 414.95 501.39 415.06 500.86 416.01 500.32 Z M 207.77 497.38 208.75 497.58 209.25 498.11 208.76 498.7 207.53 498.14 207.77 497.38 Z M 323.21 483.75 325.04 484.13 325.54 485.01 325.79 486.33 325.85 488.54 326.03 489.25 325.83 491.06 326.04 491.54 325.14 493.21 324.95 494.8 324.48 495.86 323.47 497.34 322.92 496.51 323.04 495.71 321.81 493.97 321.68 491.85 320.99 491.5 320.54 490.73 321.3 490.29 321.48 489.54 320.97 488.4 321.1 487.89 321.97 487.48 321.67 484.24 321.91 483.79 323.21 483.75 Z M 251.74 485.91 252.89 486.54 253.51 489.13 254.06 490.34 253.77 491.11 253.87 492.64 254.65 492.03 255.3 492.49 253.88 493.93 253.79 495.3 253.21 495.34 252.7 496.38 253.2 497.36 252.47 498.61 252.1 498.45 250.83 500.1 250.84 501.39 249.66 503.48 249 504.2 248.67 506.72 247.29 508.5 245.61 512.19 245 511.61 245.34 510.86 244.05 509.39 242.38 509.15 241.07 509.54 238.67 508.21 237.29 506.92 234.99 504.08 234.48 502.49 234.8 500.66 235.61 499.66 236.74 499.36 241.11 499 241.52 497.67 240.88 495.4 239.28 492.1 239.29 491.08 240.57 488.66 241.93 487.43 243.48 486.71 245.46 485.56 246.38 484.82 248.05 484.71 249.88 484.97 251.38 486.09 251.74 485.91 Z M 302.89 482.54 302.26 482.8 301.85 483.63 300.08 485.38 299.42 484.7 299.1 483.24 298.29 482.63 297.86 481.66 298.38 479.8 298.8 479.48 298.93 478.45 299.89 477.34 301.01 477.25 302.57 479.88 303.64 481.1 303.44 482.15 302.89 482.54 Z M 269.98 473.6 269.58 474.51 268.81 473.67 269.98 473.6 Z M 209.85 472.68 209.55 474.08 208.57 473.76 209.15 472.76 209.85 472.68 Z M 276.39 475.27 276.44 477.64 275.69 478.42 275.52 479.18 274.44 479.91 273.84 478.9 274.4 477.72 274.4 477.06 272.89 474.48 273.25 473.81 273.06 472.25 274.62 470.87 275.88 471.32 275.59 472.45 276.82 473.84 276.39 475.27 Z M 452.55 461.04 450.67 461.42 450.05 462.12 450.21 463.34 449.64 463.75 447.6 463.98 447.12 463.26 447.2 462.42 448.24 460.73 448.79 459.26 450.46 457.51 451.65 457.97 452.53 460.55 452.55 461.04 Z M 436.64 442.63 437.4 443.43 439.35 444.66 439.09 445.2 437.67 444.91 436.64 444.25 436.13 442.97 436.64 442.63 Z M 488.94 12.03 489.84 14.29 493.68 17.79 495.02 20.02 495.86 20.57 496.39 21.61 497.59 28.73 498.54 30.59 498.88 31.99 500.01 33 499.87 33.85 498.68 36.92 498.7 40.99 498.25 42.16 494.7 46.31 493.13 49.07 495.65 49.77 497.19 52.57 497.93 53.04 499.14 52.81 502.74 54.46 506.81 58.27 507.9 55.92 510.01 55.17 510.53 55.32 514.32 53.51 518.73 56.13 524.93 55.65 530.83 50.82 536.67 50.13 539.18 53.73 541.37 54.71 545.02 57.19 547.44 60.54 548.51 61.12 551.35 64.3 552.13 66.54 553.53 66.21 555.95 67.22 558.23 67.92 565.08 69.61 565.71 70.74 567.99 73.55 568.65 75.64 571.73 78.08 571.94 78.88 573.03 79.86 573.03 81.29 573.96 83.88 572.87 85.81 573.46 87.2 573.08 88.91 573.41 91.17 574.31 93.64 574.04 95.23 574.36 97.72 575.5 97.94 576.05 98.36 577.1 100.06 578.3 102.82 578.12 105.16 578.58 106.31 579.61 107.65 580.91 108 582.9 109.13 584.88 109.67 588.4 112.92 592.78 116.4 595.37 115.32 595.66 110.89 592.29 105.46 591.7 103.45 592.91 99.67 594.46 99.9 596.79 99.16 599.62 99.07 601.43 98.18 604.12 98.04 606.35 97.08 607.41 97.25 608.72 96.79 609.55 97.01 610.7 96.29 611.6 96.19 613.54 94.8 615.45 93.99 618.89 94.45 620.31 95.44 622.93 96.82 625.84 96.55 627.31 96.63 628.57 97.58 629.89 99.38 631.15 102.2 633.36 104.75 634.75 105.05 636.09 104.71 638.11 104.6 639.88 104.19 641.85 105.47 642.89 106.36 646.01 107.25 647.55 108.57 648.35 110.64 650.08 113.06 649.54 114.1 649.57 115.78 649.83 116.59 649.07 118.25 648.37 119.25 646.89 120.68 645.15 121.82 644.8 124.21 644.29 126.14 644.71 127.65 644.73 133.12 644.02 134.49 646.16 138.07 646.56 139.28 646.37 139.8 646.9 142.38 647.97 142.74 649.35 144.89 648.08 146 647.38 148.05 647.04 149.58 646.26 150.24 646.55 152.46 645.73 153.33 645.05 156.99 645.16 158.43 644.83 159.86 643.32 162.69 643.51 164.39 643.32 165.77 641.6 170.6 641.33 172.05 641.43 172.77 640.83 174.17 640.71 176.12 640.15 176.88 639.83 178.1 640.78 181.94 639.82 182.17 638.97 181.55 638.05 179.92 637.77 178.94 636.92 178.56 636.23 178.67 634.38 179.63 633.83 180.22 633.35 181.6 634 182.98 633.34 184.16 633.51 185.66 632.62 185.76 630.66 185.29 630.26 185.63 628.89 185.64 628.04 185.03 626.52 184.79 625.1 184.9 624.96 183.29 624.09 181.9 623.93 180.21 624.96 178.72 627.1 177.28 628.39 176.68 629.26 174.36 629.1 173.24 626.73 171.16 626.32 169.85 626.12 168.14 625.51 167.62 623.57 168.72 622.09 169.07 620.98 169.03 618.92 168.63 617.79 168.94 615.09 171.4 614.76 174.31 614.8 175.96 614.42 177.03 613.67 177.36 612.76 177.17 611.43 177.37 611.02 178.56 610.47 178.83 610.59 177.02 609.51 176.12 608.65 176.01 607.57 176.41 607.55 179.87 604.52 179.93 604.5 178.83 601 178.9 600.18 178.58 597.98 183.8 597.09 186.44 596 186.7 594.4 186.08 593.61 187.04 592.82 187.03 590.98 188.42 591.03 189.11 590.28 190.35 588.29 190.13 587.09 191.32 585.97 193.11 585.55 194.71 584.97 195.21 584.17 195.16 582.92 193.38 582.54 191.68 581.67 190.97 578.14 190.71 577.65 190.88 577.24 192.66 576.81 193.11 575.01 193.06 573.55 194.3 572.82 194.3 571.63 193.78 570.62 193.68 570.16 194 568.6 196.41 570.26 197.85 569.47 199.44 569.13 199.25 569.79 197.93 568.94 197.15 568.11 197.38 567.23 196.77 565.54 197.27 563.17 196.76 562.17 197.25 561.7 198.58 562.52 200.91 562.42 201.87 563.26 202.13 565.3 202.27 565.27 202.69 566.77 202.8 566.98 203.09 563.49 202.98 562.19 202.6 561.35 203.87 561.25 205.01 562.29 206.7 561.88 207.8 561.09 208.34 559.47 208.15 557.01 206.5 556.95 205.69 558.82 204.7 559.14 203.25 558.25 201.66 557.38 201.2 555.26 201.73 554.22 201.66 552.17 200.34 550.78 199.81 548.69 199.79 546.09 198.75 543.63 199.27 542.25 199.18 541.66 199.6 542.71 210.99 541.96 211.89 538.51 212.29 537.77 212.14 529.28 206.37 528.62 205.8 525.8 202.67 525.1 203.3 527.08 205.49 525.5 204.65 524.79 205.62 523.69 205.02 523.31 206.35 529.8 210.63 529.81 210.79 537.3 215.39 538.22 216 539.77 217.45 546.25 223.91 547.62 225.03 549.6 225.42 550.95 225.02 553.01 223.83 554.44 223.52 555.34 223.75 556.31 224.65 558.76 229.08 559.2 231.07 559.75 232.67 558.77 234.93 553.73 239.33 552.32 239.14 551.9 238.49 549.56 237.38 548.69 238.07 547.31 239.68 548.65 241 548.82 242.47 548.57 243.18 547.44 242.96 546.15 243.71 545.32 244.73 545.02 246.84 543.93 247.2 543.05 246.67 541.75 244.82 540.77 243.68 540.41 243.64 535.33 244.06 534.37 244.02 533.7 245.41 533.72 246.09 534.68 251.43 535.46 251.96 536.29 253.42 536.63 255.27 537.19 256.76 538.18 258.02 539.26 257.86 540.97 257.96 542.68 258.69 544.13 259.82 545.23 260.27 545.83 261 545.76 262.8 544.85 265.1 543.72 266.67 542.25 265.72 541.19 263.36 539.95 262.26 538.78 261.95 537.92 262.46 537.48 263.18 537.28 264.97 536.9 265.42 535.5 265.36 534.76 264.79 534.36 263.8 533.07 263.79 528.4 267.69 528.52 268.48 529.64 269.13 529.66 271.01 530.54 271.4 530.1 272.77 530.56 272.93 530.35 274 529.31 272.94 528.25 273.33 529.56 275.68 531.39 279.47 532.17 280.21 533.57 280.07 534.51 280.79 534.4 281.37 538.06 282.74 541.32 282.83 541.69 283.27 547.01 282.69 547.48 281.72 549.22 281.36 552.54 279.66 553.26 278.18 554.29 277.6 555.63 277.21 557.48 277.47 557.76 276.46 558.81 275.96 559.5 276.01 560.92 274.6 561.98 274.59 563.88 275.34 567.24 275.74 568.42 276.33 570.27 278.05 571.68 278.39 572.83 279.16 573.73 278.75 573.76 277.79 572.12 273.53 572.84 272.57 573.69 272.47 572.26 264.08 571.64 263.56 571.74 262.43 572.15 262.19 571.8 260.87 571.85 257.35 572.58 255.36 573.2 254.81 574.07 254.87 574.73 253.47 574.93 252.26 574.76 251.17 573.91 249.11 574.21 247.58 573.68 244.54 573.93 241.88 573.14 240.52 571.42 239.58 570.76 239.46 563.22 236.2 561.83 236.85 561.23 236.38 561.88 234.35 562.6 233.38 563.43 233.7 563.24 234.63 563.64 235.12 573.2 239.3 574.5 239.19 575.22 237.95 574.78 237.52 575.25 235.56 577.52 234.79 579.29 233.04 580.28 232.72 581.88 231.48 583.11 230.77 583.81 230.87 584.51 229.99 585.83 229.36 586.23 227.56 587.16 226.06 588.44 224.88 589.31 225.86 590.67 225.34 591.34 224.65 591.6 223.78 593.75 222.78 594.72 221.77 596.32 221.22 598.58 220.1 599.18 220.08 600.26 219.16 601.86 219.43 602.76 219.16 605.14 217.9 606.57 216.28 608.51 215.53 609.09 216.14 610.04 216.23 611.04 217.07 611.57 217.06 613.51 215.79 613.23 214.93 613.58 214.25 615.2 214.01 617.77 214.24 621.62 214.07 622.04 214.35 623.39 214 624.48 214.21 626.36 214.24 627.49 214.08 630.15 215.28 631.18 215.35 632.39 214.18 633.37 213.58 634.95 212.17 637.02 209.82 637.16 208.07 637.98 208.21 637.93 209.4 640.13 209.5 641.06 209.34 643.82 208.21 644.85 208.23 647.73 209.46 651.48 210.01 653.79 209.2 657.11 205.83 656.67 205.28 657.49 204.65 657.93 205.21 660.32 203.47 661.43 203.43 664.07 203.62 664.6 202.68 665.59 202.78 665.36 204.6 665.93 205.31 668.22 206.44 669.58 207.53 671.09 207.6 672.44 205.04 673.43 203.91 674.09 202.41 672.67 201.96 672.02 201.24 672.53 199.22 672.22 198.87 672.85 197.95 673.46 198.09 675.43 196.86 676.82 196.49 678.91 195.51 679.8 195.31 682.29 195.12 683.59 195.22 685.28 194.87 686.95 194.83 689.36 193.26 691.59 192.91 692.96 193.43 695.71 192.47 695.96 191.39 695.38 190.58 693.05 189.41 692.34 188 691.59 187.45 690.57 187.75 688.91 187.86 688.52 187.42 687.02 187 686.5 186.56 685.87 184.94 683.92 182.35 683.38 181.25 681.98 177.65 681.77 175.75 681.47 174.73 680.49 173.22 679.37 172.1 679.14 171.12 679.32 169.22 679.71 167.81 680.24 167.69 680.49 165.33 680.92 165 681.24 163.85 682.13 162.05 683 157.89 684.32 156.24 684.59 155.29 687.42 153.46 687.62 151.57 688.4 150.43 689.42 150.46 691.34 148.98 692.52 148.25 694.25 146.82 695.48 146.08 697.78 145.02 699.34 144.8 701.12 145.59 703.14 147.07 704.06 148.08 705.6 148.87 706.79 152.33 707.05 153.43 707.96 154.78 708.95 155.59 708.96 156.36 710.06 158.66 711.02 158.87 711.47 160.95 711.22 162.41 711.4 163.25 712.5 163.68 713.6 163.69 714.53 164.29 715.74 163.39 717.28 161.79 718.12 161.37 719.94 159.57 722.16 158.08 723.33 157.44 723.93 156.46 724.99 156.46 726.8 155.54 727.73 155.28 729.36 153.8 730.74 152.18 731.34 150.95 731.47 149.2 731.34 147.19 730.5 144.02 729.77 142.16 729.25 139.82 728.96 135.9 729 134.97 729.78 134.12 731.42 133.73 732.67 134.91 734.96 136.43 736.68 137.99 738.06 139.92 741.08 142.6 743 145.34 744.51 146.54 745.66 148.06 747.09 149.27 748.15 150.67 747.25 153.91 746.28 155.26 744.73 156.54 744.48 157.53 745.24 158.81 746.37 159.35 748.44 157.57 750.05 157.06 750.93 156.56 753.18 156.61 754.06 156.93 756.67 156.74 758.03 157.82 758.36 158.91 758.59 160.67 758.87 161.27 758.86 163.08 758 163.51 755.91 162.18 754.95 162.51 753.64 163.93 753.14 165.38 753.29 166.63 753.91 168.17 753.94 169.13 754.58 170.23 753.79 171.37 753.61 172.66 751.57 173.97 750.4 175.96 748.48 177.39 745.74 181.13 745.42 182.52 744.65 183.66 744.94 185.11 745.83 186.62 746.57 186.87 747.87 186.32 749.86 186.88 751.06 186.86 752.38 185.74 754.48 185.51 756.17 185.9 757.06 185.49 758.02 188.2 758.87 188.92 759.08 189.61 758.3 190.11 752.25 200.51 753.65 202.09 753.63 202.81 752.67 203.11 750.32 202.43 749.09 201.39 748.21 201.38 747.19 201.97 745.12 201.76 743.24 201.01 742.54 199.98 741.59 199.34 739.37 200.43 738.51 200.36 737.29 199.64 736.54 199.6 734.55 200.52 733.74 200.6 732.21 199.4 732.16 198.11 731.62 197.33 729.61 197.35 728.72 197.87 727.65 197.31 726.03 197.65 725.17 197.39 724.52 196.62 721.52 196.91 721.14 196.74 717.31 197.32 715.51 198.22 713.72 199.74 712.67 201.28 712.56 203.24 713.5 204.34 715.36 204.05 717.11 205.11 717.48 205.86 716.49 207.09 717.94 207.27 717.93 208.24 718.52 208.48 718.63 209.49 719.95 212.01 721.85 212.89 723.98 212.92 724.37 211.41 724.83 211.44 725.63 212.48 726.83 212.77 727.71 213.34 728.87 214.54 730.18 215.11 730.85 215.06 733.34 216.25 734.35 216.55 735.97 217.67 737.55 219.43 738.38 221.03 737.94 221.55 738.22 222.93 737.41 225.01 737.01 227.01 738.03 228.25 738.03 229.32 739.46 230.27 740.29 230.3 741.4 231.65 741.57 232.62 742.28 233.25 743.54 233.03 743.93 232.49 743.99 230.86 744.53 230.21 744.18 229.05 745.01 227.21 744.71 224.09 744.73 222.71 744.53 220.32 744.8 217.27 744.96 216.95 746.45 216.28 747.83 214.85 750.84 216.28 752.99 216.24 751.79 218 752.69 219.06 753.67 219.34 755.39 218.82 757 218.79 758.18 219.08 758.13 220.24 759.69 221.2 758.83 223.32 759.32 225.25 760.12 225.79 761.65 225.78 761.89 225.11 761.04 224.74 762.08 223.25 762.13 222.66 764.19 223.8 764.8 222.93 765.9 222.94 767.08 223.7 767.72 225.26 766.8 226.13 765.6 228.31 765.28 229.34 765.1 233.1 765.74 234.67 765.78 235.46 764.86 236.68 761.78 238.75 761.87 239.56 759.13 241.66 758.33 243.67 758.82 244.78 758.85 245.68 757.53 247.01 758.35 248.38 760.29 249.47 761.95 248.87 762.34 247.94 763.46 248.47 764.59 246.02 765.17 246.17 765.46 248.88 766.03 251.84 766.94 253.84 768.04 254.49 769.25 255.54 770.33 255.54 771.94 256.39 772.48 257.21 772.11 257.86 770.77 258.87 768.95 260.62 766.66 261.6 766.19 262.34 766.99 262.77 768.08 262.85 770.24 262.07 771.39 261.25 772.96 260.44 773.42 259.69 774.46 259.24 775.77 259.37 776.49 260.11 778.32 260.86 780.65 261.1 783.99 261.1 786.05 261.4 788.84 261.35 790.04 261.8 791.01 262.68 793.35 264.14 794.18 263.75 794.95 264.34 795.68 265.58 796.47 266.01 797.15 270.3 797.41 273.47 797.47 275.84 797.68 276.54 799 278.17 798.91 281.16 798.26 281.34 798.08 282.17 798.31 283.39 797.3 284.73 796.25 285.56 794.06 285.92 792.83 285.29 791.82 285.78 790.14 285.87 788.3 286.89 786.7 287.6 785.89 288.39 786.07 289.26 787.15 289.64 787.87 290.36 788.51 291.93 788.33 293.04 786.99 292.98 786.43 293.66 786.25 295.05 784.59 295.62 784.28 296.2 784.72 297.6 784.58 298.35 783.87 299.23 782.58 301.43 782.15 302.52 781.15 303.35 780.09 303.71 778.2 303.6 777.5 302.87 776.47 300.26 775.59 298.92 774.03 298.06 773.44 297.09 772.96 294.37 772.23 292.51 771.31 291.26 770.13 290.03 770.01 288.88 768.96 288.25 766.96 287.92 766.27 288.32 766.09 287.34 764.97 288.02 765.26 288.57 766.05 288.57 764.5 290.13 764.82 291.1 762.88 292.29 762.23 294.06 762.24 296.27 763.06 297.81 763.16 300.16 764.44 301.92 764.72 303.32 763.45 304.41 762.66 305.95 761.79 306.24 760.44 305.98 760.27 306.64 758.84 306.31 757.57 307.55 758.33 309.62 759.51 310.64 759.89 311.43 762.56 314.16 764.85 315.57 765.41 317.29 764.88 318.88 763.9 318.37 762.69 318.34 761.68 318.92 760.6 318.55 759.91 317.93 758.69 318.49 757.55 319.75 757.43 320.52 756.7 320.9 755.67 320.37 755.15 319.71 754.22 319.68 751.53 320.59 749.81 320.44 748.63 321.51 749.27 322.17 748.92 323.46 750.31 324.5 751.1 324.84 751.85 324.61 753.23 325.37 753.87 326.53 755.45 326.83 755.49 327.77 754.35 327.55 752.89 328.59 752.27 329.58 752.39 330.3 753.09 330.88 753.06 332.32 753.29 334.01 752.9 334.72 751.51 334.21 750.12 332.65 749.38 330.86 747.12 330.21 746.21 330.16 745.17 330.69 745.02 331.76 745.28 332.71 744.81 333.14 743.34 332.61 742.28 331.64 742.07 330.44 739.98 330.26 738.58 328.8 737.83 328.57 736.6 327.54 735.03 327.09 735.2 326.7 733.8 325.15 732.57 323.17 730.32 322.31 729.25 322.35 727.83 322.96 724.76 322.89 725.6 324.25 729.13 329.18 729.76 330.2 732.59 334.04 733.76 333.21 736.93 337.64 735.72 338.52 737.63 341.22 730.12 346.59 728.2 344.13 727.32 344.26 725.34 344.96 724.36 345.1 723.52 346.17 722.89 345.83 722.59 344.45 721.88 343.54 720.34 343.09 718.84 342.32 717.48 341.97 715.73 341.02 714.92 340.05 714.48 338.78 714.68 335.01 714.62 333.97 714.2 333.63 712.34 334 712.05 336.93 711.79 337.99 710.33 339.02 710.27 340.06 708.47 341.4 707.81 340.95 707.41 339.7 706.38 339.5 705.46 338.77 704.18 338.64 703.23 337.96 701.31 337.76 698.59 337.27 697.45 336.08 697 333.77 696.28 333.28 695.85 334.1 694.79 333.43 694.16 333.82 695.12 336.05 694.74 336.74 692.21 336.83 690.77 336.53 689.09 335.22 688.38 334.91 686.13 335.21 685.25 334.94 683.7 333.97 682.23 333.81 681.71 333.23 679.94 333.16 678.91 332.89 674.41 332.37 674.5 331.65 673.06 331.01 670.9 331.07 669.49 331.58 669.4 331.93 670.51 333.34 669.6 333.69 668.3 333.28 666.16 332.94 664.71 333 663.53 332.81 662.23 333.89 660.67 333.25 658.54 334.32 656.75 333.86 655.41 334.7 653.96 334.59 651.31 335.43 650.1 335.3 648.15 334.49 645.91 333.13 644.84 332.99 643.71 333.8 642.89 334.73 641.57 335.07 641.04 336.12 639.99 335.71 640.3 334.97 639.47 333.64 638.75 333.08 636.92 332.33 635.43 331.03 634.46 329.82 632.55 328.65 631.49 328.36 630.21 328.39 629.06 328.12 627.66 326.96 625.53 326.74 623.76 327.77 622.42 328.94 624.46 330.65 624.3 330.87 622.54 329.28 621.02 329.28 619.34 328.94 619.12 330.13 613.26 332.89 611.29 333.71 611.6 335.22 611.39 336.36 611.78 336.6 612.17 341.59 612.49 343.91 613.94 344.31 613.79 345.36 615.16 345.62 615.74 346.01 617.79 348.04 617.55 348.24 616.13 346.65 615.3 346.23 613.16 345.6 609.93 348.77 609.27 350.91 609.32 353.05 610.56 353.09 611.86 354.22 613.41 356.52 614.52 357.14 616.27 359.27 617.2 359.06 617.49 358.34 616.75 356.67 617.42 355.32 618.23 355.03 619.27 356.4 619.87 356.67 621 355.31 620.99 353.81 622.54 353.82 623.83 354.99 625.45 354.16 626.61 353.13 629.92 351.87 631.16 351.71 632.7 351.07 635.67 351.63 637.07 351.63 639.74 352.79 642.26 352.66 643.41 352.08 644.55 353.39 646.04 353.81 647.7 353.87 649.34 354.53 650.08 357.62 652.6 358.65 653.44 357.38 653.15 356.49 654.32 355.25 655.98 354.17 657.3 354.01 660.21 354.45 662.72 355.41 663.83 355.24 664.92 354.73 666.14 355.1 667.23 356.38 668.57 357.21 669.75 358.68 670.66 359.07 672.92 358.83 674.54 359.88 675.95 360.56 677.95 360.4 678.55 359.52 679.47 360.14 679.95 361.64 679.92 362.64 681.07 363.71 681.2 365.15 682.39 366.24 682.72 366.9 683.22 368.97 683.76 370.25 683.94 371.34 684.59 372.5 684.53 375.51 684.01 377.45 684.18 380.46 683.82 382.53 681.91 385.05 681.2 385.41 680.17 386.68 679.46 386.11 677.95 385.69 675.27 385.32 674.98 384.66 669.25 382.83 669.04 382.3 667.98 381.38 667.87 379.27 665.83 380.21 664.47 379.36 664.05 378.15 663.21 376.69 661.42 375.95 659.98 376.31 659.13 375.96 657.3 376.89 656.37 376.91 654.9 377.76 652.25 377.46 650.18 377.89 647.5 376.96 646.44 377.97 645.14 377.93 643.42 378.56 643.09 379.28 641.62 380.44 639.7 383.13 639.15 386.14 636.5 387.31 634.69 388.28 633.29 390.18 632.1 392.19 631.7 394.04 630.97 395.2 630.12 397.5 628.89 398.72 625.88 397.92 624.45 397.7 623.1 398.23 622.3 398.14 619.87 397.31 618.97 397.25 617.58 396.21 614.17 396.36 608.14 395.48 607.02 395.04 606.91 394.11 605.11 392.89 604.13 391.28 601.78 390.98 599.72 389.76 598.61 390.49 598.21 391.23 598.57 393.24 598.96 394.4 598.28 395.59 597.89 397.22 598.39 398.22 598.17 398.71 598.12 400.5 598.84 401.68 598.51 403.46 597.44 406.95 594.63 406.82 591.12 405.72 589.23 406.76 587.52 407.3 584.55 407.5 583.5 407.99 581.75 407.98 582.01 409.02 580.55 412.25 578.1 413.32 577.42 414.18 576.04 414.48 576.17 415.32 575.96 417.11 575.98 418.68 576.46 420.04 576.63 422.89 577.64 425.79 578.37 429.18 579.57 433.3 580.18 436.33 577.02 436.39 575.08 437.12 573.56 438.33 572.3 438.98 570.23 439.21 569.09 440.83 568.75 442.09 567.23 443.29 565.97 444.6 564.65 444.93 562.76 447.24 560.37 448.72 558.01 449.11 556.02 448.18 554.69 449.17 553.28 450.71 552.45 451.33 549.36 452.15 546.83 453.23 544.6 452.73 542.08 453.09 540.83 451.9 539.35 450.81 536.15 450.81 533.2 452.05 531.92 452.36 529.79 454.29 528.96 455.8 528.77 456.7 527.92 457.47 525.07 458.02 521.53 457.36 519.38 457.1 516.94 458.37 515.96 458.22 514.64 458.67 513.21 459.85 511.4 460.26 510.48 461.42 509.32 461.47 505.85 462.05 505.18 463.09 503.27 465.38 503.26 467.15 502.34 468.22 502.3 469.06 500.76 470.81 499.82 470.18 499.62 469.32 498.28 467.96 495.53 466.68 494.03 466.74 493.71 465.53 491.78 466.11 490.41 469.99 489.95 470.95 487.17 473.09 486.28 472.63 486.48 471.83 486.28 469.01 486.83 468.68 487.23 467.67 486.88 467.02 483.68 467.94 483.18 469.6 481.93 471.16 481.8 472.09 481.25 472.17 480.74 471.36 479.65 471.22 478.78 471.63 478.25 472.7 475.79 472.41 474.91 472.84 475.08 475.17 473.9 476.03 474.06 477.75 473.64 477.9 471.84 477.3 471.36 477.73 470.48 477.54 469.47 476.65 468.64 475.26 469.42 474.3 470.08 474.31 470.71 474.95 471.64 475.25 472.67 474.51 473.12 473.79 472.02 472.5 471.31 470.62 472.11 469.89 472.77 470 473.26 471.09 474.57 471.17 475.63 470.26 477.96 470.25 478.79 469.95 479.21 468.63 480.51 467.74 480.64 467.29 481.97 466.05 481.87 464.88 480.7 464.76 480.65 464.15 481.84 464.06 481.85 462.29 482.21 461.1 483.09 459.76 482.88 458.98 481.67 458.1 481.47 455.79 480.97 455.04 480.79 453.79 481.82 453.49 481.63 452.73 480.55 451.46 480.23 450.15 479.64 449.17 479.26 446.4 478.05 446.36 477.6 445.81 476.16 446.95 475.53 448.76 474.28 449.99 473.43 450.35 472.32 452.56 472.2 453.28 471.2 454.54 469.21 454.56 468.04 452.42 467.25 453.31 467.59 455.5 466.45 456.08 465.29 454.62 462.66 453.22 461.96 452.53 460.87 450.21 460.54 449.83 458.45 448.83 458.4 447.92 456.13 447.52 455.77 446.46 456.1 445.48 456.8 445.14 458.13 445.51 459.54 445.35 460.14 444.46 459.81 442.66 459.89 441 459.44 439.63 459.94 438.87 459.65 437.61 460.35 435.81 460.5 434.95 461.11 434.27 463.66 433.54 463.61 432.55 462.64 431.66 462.19 430.63 462.22 429.46 463.41 427.51 463.1 426.37 462.04 425.71 460.73 426.01 459.98 426.64 458.61 428.88 458.42 429.54 455.78 430.33 451.47 428.01 450.39 427.81 449.08 428.2 449.64 429.08 448.64 429.25 448.5 428.69 443.36 425.61 441.11 427.83 440.92 427.64 442.69 425.92 441.47 424.57 440.95 422.58 440.01 422.42 438.62 416.9 438.06 415.87 437.33 413.78 438.45 413.08 438.2 411.71 432.86 414.78 432.75 415.33 431.96 415.74 430.79 417.07 430.87 418.39 431.28 420.15 429.53 421.58 428.18 424.62 429.76 424.66 430.61 424.03 431.13 424.22 431.5 425.76 431.02 426.55 431.13 427.31 432.27 427.9 432.15 429.1 432.97 429.24 433.51 430.63 434.59 430.93 435.97 432.07 434.75 433.19 435.15 433.89 436.15 434.17 434.63 435.34 434.36 436.09 434.52 437.03 435.23 437.39 435.69 438.43 437.12 438.24 436.96 439.02 435.68 440.39 434.26 440.94 433.77 440.56 433.23 439.28 432.15 439.46 429.89 439.45 429.9 441.81 431.18 443.62 431.69 445.47 432.4 446.09 433.32 446.12 437.18 451.08 437.87 452.12 439.82 452.18 439.79 453.13 440.09 455.32 439.13 457.17 438.26 456.6 436.93 456.65 436.15 456.42 434.5 456.5 431.38 458.2 430.46 459.39 430.48 460.1 432.35 461.48 432 462.12 430.47 461.95 429.04 461.44 427.98 460.46 426.81 460.31 425.99 461.15 425.75 461.96 426.25 462.95 426.04 464.11 427.51 465 426.12 466.8 426.38 468.16 427.06 468.29 428.31 469.76 427.17 470.59 427.16 472.14 426.63 472.37 425.89 471.21 423.53 470.13 421.78 470.06 421.05 468.93 419.77 468.41 419.09 468.47 418.26 469.33 417.64 468.84 417.3 466.31 417.85 464.97 415.84 463.49 414.78 463.68 413.45 464.65 412.87 467.73 412.2 468.59 411.79 469.68 411.72 470.96 412.59 471.64 412.96 472.83 414.08 474.83 413.89 475.49 411.96 477.13 409.84 477.56 407.88 478.98 407.72 478.81 410.03 477.19 410.08 476.17 409.15 476.2 404.28 475.88 404.37 475.56 402.81 474.78 402.63 474.01 399.05 476.67 398.63 477.62 397.33 477.87 398.14 479.01 398.2 481.41 397.72 482.25 397.72 483.47 398.42 486.15 399.39 488.46 400.26 490.92 401.76 492.13 401.42 494.57 397.66 497.52 396.78 498.86 395.74 499.51 396.4 500.5 398.14 500.85 399.46 500.18 400.78 499.11 402.62 499.69 402.92 500.65 401.95 501.38 401.59 502.25 400.7 503.3 400.25 504.38 401.18 506.25 403.72 507.39 404.01 507.91 403.45 508.71 401.27 508.5 400.19 509.3 399.5 511.12 398.93 511.61 400.32 513.64 402.24 515.62 402.87 517.08 403.52 515.74 403.8 514.2 405.07 513.91 405.96 514.56 405.49 515.2 407.03 518.15 407.79 516.16 407.7 514.21 408.45 514.75 408.33 515.98 409.03 517.82 408.71 518.73 407.37 520.27 405.66 520.55 404.41 521.63 403.11 521.87 402.01 522.44 401.43 523.27 399.09 524.09 398.07 523.72 396.57 523.81 395.93 524.76 397.58 527.74 398.22 528.54 399.62 529.39 400.46 530.16 400.99 531.56 400.04 534.35 399.4 534.52 398.43 533.16 397.61 533.17 396.91 534.04 395.79 533.85 394.18 531.27 393.51 530.68 392.47 530.46 390.61 530.52 389.07 531 388.48 531.85 388.44 534.08 388.62 535.76 389.1 537.53 388.35 538.42 387.5 538.39 386.56 537.85 385.8 536.15 383.89 536.03 382.76 536.51 382.16 538 382.14 538.92 381.67 540 380.53 541.31 378.43 541.32 375.77 540.94 374.61 540.03 372.77 538.01 371.66 535.62 371.53 534.77 369.58 531.83 368.17 527.95 367.69 527.09 366.14 525.7 364.59 525.41 362.86 525.85 361.5 526.83 362.38 528.33 362.61 532.37 362.3 533.23 362.72 537.93 361.33 540 361.4 541.77 359.8 543.24 359.48 545.27 360.09 546.5 360.74 546.68 361.86 546.24 363.22 547.15 364.45 549.69 365.09 550.39 365.58 553.62 364.79 555.34 363.78 555.55 362.32 556.2 359.13 556.07 357.53 556.46 356.55 555.42 354.41 555.42 352.74 555.8 350.24 556.84 349.32 556.86 346.81 558.3 345.72 559.75 345.99 561.15 345.52 562.34 346.16 564.21 346.73 564.69 345.58 566.54 344.42 566.37 343.5 565.7 342.24 566.25 341.61 566.08 341.2 564.46 341.61 563.31 342.48 562.23 343.17 559.93 343.16 559.42 342.27 557.64 342 556.57 342.14 555.07 343.01 554.44 345.3 553.69 345.07 551.18 345.42 550.97 345.69 553.52 346.97 553.78 349.2 555.26 350.8 554.87 351.55 553.82 351.89 552.33 351.58 550.9 351.22 550.58 348.8 549.88 348.57 547.78 349.03 547.11 351.56 544.92 352.1 543.7 351.4 541.69 350.56 540.8 349.49 540.54 348.03 540.5 347.59 543.14 347.21 543.06 347.6 540.58 345.79 540.06 344.35 539.91 343.04 538.63 342.18 537.37 341.67 537.04 340.4 537.01 340.55 536.18 341.95 536.14 342.67 534.75 342.41 533.38 343.28 531.34 342.91 530.73 342.24 530.87 340.33 532.24 338.56 532.28 338.14 532.03 336.67 532.45 336.13 533.56 335.91 535.48 334.45 537.09 332.59 537.52 331.13 536.17 330.92 535.2 331.4 534.68 331.93 533.32 331.75 531.65 331.11 530.24 331.64 529.33 331.59 528.2 332.72 527.43 334.73 524.93 335.14 524.19 335.24 522.63 334.64 521.04 333.01 519.36 330.61 518.12 329.11 517.13 328.14 516.86 326.85 516 324.4 512.9 321.86 510.95 322.12 510.37 321.68 509.68 322.43 509.34 323.06 509.64 323.35 508.07 323.02 507.18 321.79 505.44 320.83 502.39 320.33 502.25 320.01 501.19 318.26 499.55 315.88 497.75 315.78 497.16 314.28 495 313.96 493.2 314.17 492.38 315.17 491.08 315.67 491.14 316.21 491.98 317.23 492.37 317.92 493.51 318.37 494.83 320.58 498.04 320.67 499.56 321.58 500.19 325.48 499.73 327.98 499.89 330.23 499.1 330.93 497.84 330.66 496.26 331.03 495.02 333.12 494.62 335.76 493.21 336.12 491.86 334.22 488.88 333.93 487.87 334.07 484.62 335.11 483.69 337.37 483.78 338.11 483.44 339.04 481.35 338.27 480.49 337.1 480.21 336.5 479.74 336.34 478.64 335.01 477.29 335.21 476.16 335.11 474.8 334.7 474.26 333.38 473.91 334.02 472.06 333.89 471.4 333.06 470.82 332.27 471.18 331.22 470.94 329.97 470.99 328.32 473.12 326.87 473.82 326.35 475.55 325.96 475.78 324.88 474.92 324.14 474.7 322.25 472.74 321.09 472.41 320.7 471.66 319.18 470.98 318.36 469.31 318.1 468.26 316.21 468.16 315.52 469.47 315.7 469.81 314.94 471.81 314.13 472.64 313.95 473.55 313.25 474.32 312.07 474.52 311.55 475.33 312.3 476.17 312.23 477.7 311.79 477.87 311.13 476.87 309.6 476.61 309.6 475.62 309.97 475.21 309.19 473.8 308.85 472.38 305.85 471.69 304.58 470.4 303.76 468.88 303.52 467.67 302.85 466.37 294.7 466.79 295.54 469.07 295.62 470.38 294.81 472.25 294.85 473.51 295.67 475.15 295.31 475.69 293.91 475.55 292.6 475.7 291.33 476.13 290.36 476.92 290.08 479.58 289.43 480.09 288.42 478.98 287.77 476.63 287.84 475.77 288.44 475.71 288.72 474.63 290.41 473.88 290.56 473.29 290.21 471.92 289.03 471.3 287.07 469.45 286.22 469.02 287.28 468.21 288.97 466.15 290.21 465.77 292.04 466 292.08 465.45 292.89 462.64 291.53 461.78 291.57 461.08 290.22 461.27 287.91 461.03 287.78 459.91 287.06 460.41 287.02 462.26 286.42 462.69 284.4 461.93 283.91 461.08 281.56 460.47 281.4 459.98 276.62 460.36 275.93 460.79 275.18 462.92 275.7 464.39 274.59 465.21 273.98 466.57 274.54 467.16 274.11 469.27 272.98 468.55 272.8 466.68 271.53 465.27 270 464.37 268.19 464.42 266.21 464.06 262.27 464.24 259.24 464.91 258.19 465.38 258.03 466.58 257.6 467.28 256.13 466.31 253.49 467.2 251.86 467.54 251.39 467.3 251.05 465.62 249.96 464.92 249.18 465.55 248.43 465.19 247.52 463.81 248 462.17 247.78 460.75 248.04 459.03 246.83 457.89 245.01 457.22 244.66 456.24 244.57 454.91 244.06 454.62 242.66 455.1 241.05 456 240.21 456.23 241.28 458.36 240.19 458.74 238.96 457.93 238.03 457.62 237.05 458.46 236.38 459.63 236.05 461.82 236.5 464.79 236.97 464.89 236.74 466.16 235.55 468.91 234.42 470.58 234.49 471.93 233.86 472.43 232.11 471.98 231.43 471.44 230.92 470.12 230.71 467.59 230.15 467.15 228.88 466.77 227.54 465.73 226.41 463.88 225.31 463.72 223.22 463.91 221.55 464.73 220.87 464.57 219.26 466.04 219.26 466.95 220.73 468.7 222.13 469.37 222.09 470.76 221.66 471.61 221 471.9 220.23 472.95 218.63 473.46 217.81 474.06 217.93 475.93 217.24 477.26 216.96 479.14 217.22 479.33 217.02 480.91 215.68 479.51 215.47 478 215.92 477.3 215.38 475.58 214.12 474.76 213.7 474.06 213.55 472.42 213.61 470.67 214.01 468.71 212.75 467.8 211.62 467.7 211.02 468.27 211.19 468.87 209.41 471.77 208.51 471.12 207.04 471.01 206.07 470.07 205.21 469.94 201.3 470.34 199.22 471.12 201.76 473.69 201.36 474.04 200.35 473.32 198.94 471.84 196.92 473.61 197.57 473.97 199.19 472.8 199.64 473.39 197.75 474.77 196.59 473.73 196.43 474.63 195.13 475.53 195 476.16 195.69 477.08 194.3 477.74 192.62 477.31 191.82 480.13 191.95 480.99 192.66 482.05 193.44 483.73 194.86 485.31 196.16 485.26 197.4 486.31 198.31 485.67 199.21 485.84 200.23 486.87 200.88 486.64 201.64 485.59 203.02 485.58 203.56 486.71 204.82 488.03 204.54 488.66 204.67 490.24 206.94 490.62 206.66 491.2 205.85 491.27 204 490.54 203.62 490.77 201.26 490.53 200.4 489.95 198.76 488.15 197.8 487.54 197.02 488.44 197.19 490.29 197.52 491.35 198.76 493.53 199.81 493.12 200.19 494.07 199.15 494.49 199.59 495.58 200.99 496.82 202.72 499.01 204.57 499.33 206.45 499.39 207.53 500.54 206.51 501.32 205.59 503.64 205.57 504.87 206.73 507.62 206.47 509.63 205.68 510.81 204 511.93 202.7 513.11 201.48 514.97 200.79 516.5 198.99 519.44 198.38 521.04 198.38 522.29 199.05 524.2 198.67 524.4 197.1 526.32 196.61 527.32 196.5 528.26 197.35 529.98 196.8 530.99 195.73 532.01 194.35 533.71 193.88 534.85 193.06 535.84 193.07 537.21 192.67 537.25 192.04 538.73 192.05 539.63 192.88 540.31 193.02 542.28 193.65 542.96 194.99 543.52 195.04 544.42 194.48 544.7 193.89 546.14 194.46 546.68 194.13 547.42 194.13 548.45 195.01 550.05 195.16 551.04 195.7 551.22 195.54 552.37 196.25 554.05 196.17 556.16 197.35 557.46 197.05 558.24 197.22 559.32 198.95 560.27 198.81 561.91 199.03 563.04 200.67 565.33 201.56 565.76 202.86 565.51 204.24 566.47 204.94 566.29 205.39 567.47 206.39 568.34 206.74 570.63 206.68 571.33 205.92 572.27 206.37 573.07 207.02 575.22 206.16 577.31 206.64 577.84 204.81 581.67 203.61 582.63 203.17 582.31 202.24 583.04 200.97 583.09 198.81 583.56 196.93 582.82 194.99 582.43 193.18 582.73 192.31 583.21 189.74 583.95 188.58 583.73 187.84 582.56 186.48 582.17 184.03 582.08 179.29 581.36 178.29 581.37 177.13 581.99 176.8 583.39 175.95 584.06 174.85 583.42 173.56 579.87 173.56 577.74 173.78 577.46 173.67 573.75 173.26 571.25 173.27 570.43 174.43 569.82 175.02 569.8 177.66 569.02 180.6 568.44 180.19 567.32 178.76 567.59 177.17 567.34 175.47 567.5 175.24 567 176.39 565.95 177.23 566.1 178.18 565.08 179.09 564.51 178.01 563.91 175.68 564.4 175.29 563.6 175.88 561.14 177.76 560.18 178.46 558.19 177.91 555.47 176.94 554.74 174.91 554.21 174.25 553.22 172.8 553.63 171.16 553.47 170.04 555.3 169.85 557 170.26 558.49 171.75 561.59 172.24 562.93 171.98 563.89 172.35 564.66 171.81 566.09 170.31 567.99 169.38 568.11 167.97 567.44 166.7 566.5 166.41 567.09 167.15 568.12 169.02 570.02 169.09 570.97 168.76 571.95 169.26 573.35 169.21 575.24 168.77 576.4 168.12 576.96 168.03 579.7 167.5 580.54 167 580.6 165.16 578.91 165.21 578.38 162.39 577.03 161.45 575.57 160.22 574.14 160.06 573.52 160.72 572.57 159.89 572.09 159.83 570.98 158.95 571.27 158.73 571.94 157.65 571.46 156.62 569.51 155.03 567.5 154.87 566.66 155.04 562.43 156.29 560.84 156.07 560.4 156.78 559.45 157.8 557.46 157.89 556.17 157.41 554.96 156.19 554.81 154.53 555.04 151.95 553.95 150.6 553.5 149.36 551.89 148.43 552.13 147.73 554.52 146.91 555.23 145.68 556.76 145.32 557.86 143.92 558.61 143.26 561.18 143.96 561.47 145.03 560.56 147.15 562.41 147.06 562.97 148.21 563.23 148.68 564.11 149.07 566.47 149.16 568.38 149.57 570.82 149.65 572.15 150.32 573.57 150.92 574.1 152.51 576.65 152.89 578.64 152.72 579.45 151.73 579.16 151.2 578.22 149.61 578.13 149.36 577.61 148.05 576.42 148.3 575.87 145.95 574.87 145.68 575.59 144.91 575.79 144.12 575.21 143.24 576.56 142.29 576.36 140.38 576.63 138.91 576.02 139.18 575.07 137.91 574.64 138.01 573.95 137.41 573.57 137.2 572.37 137.42 571.58 137.13 569.94 133.2 569.22 133.2 568.73 137.35 569.31 138.03 568.8 139.07 568.63 139.7 568 139.83 567.28 139.43 566.18 138.02 566.52 137.55 564.42 137.17 564.18 134.34 564.35 134.31 563.74 133.32 563.8 133.01 562.54 131.67 562.59 130.78 562.11 129.87 563.37 130.17 563.7 129.12 567.04 129.86 567.48 128.23 570.33 132.31 574.63 134.34 575.33 133.93 575.9 132.04 575.13 127.39 570.2 126.8 570.43 124.85 569.94 124.25 569.46 123.15 567.03 122.52 566.57 122.93 565.22 122.53 565.01 121.22 563.21 120.54 562.78 119.62 560.76 119.87 559.47 119.46 557.08 119.69 555.6 119.19 554.68 116.03 553.93 116.14 553.36 119.6 554.35 120.51 552.56 119.68 552.36 119.97 551.36 118.03 550.63 116.93 549.19 116.26 547.65 115.34 547.21 113.22 546.78 111.24 546.86 109.93 547.35 108.87 549.05 109.17 549.87 108.63 550.16 108.91 551.45 108.79 552.33 107.65 551.75 104.64 551.69 103.79 552.19 103.06 553.25 102.97 554.13 104.15 555.11 104.47 556.03 103.65 556.34 103.26 558.42 102.45 558.97 101.45 558.08 100.12 559.07 99.11 558.45 98.53 557.69 98.56 556.99 97.87 556.74 96.62 557.25 96.28 556.97 94.08 558.8 93.9 558.59 95.95 556.72 95.47 555.38 94.13 555.43 92.74 556.21 91.88 555.81 91.13 556.54 90.28 558 90.51 558.84 92.3 559.77 92.89 561.82 93.88 562.42 95.42 562.83 94.52 564.08 94.73 566.02 95.67 566.32 95.9 566.98 97.11 566.84 97.65 567.55 99.03 568.24 99.32 570.48 98.55 571.03 98.28 569.63 95.74 569.59 94.51 570.2 93.71 570.2 91.91 570.68 91.92 571.57 90.75 570.97 89.41 569.27 88.54 568.53 88.43 565.73 88.68 564.3 88.34 563.41 87.22 562.61 87.07 561.63 86.44 561.14 85.1 560.91 83.22 561.09 82.28 561.56 81.36 562.56 81.25 563.42 81.85 563.7 82.04 566.5 81.78 567.43 81.09 568.26 81.09 569.93 80.79 571.61 80.1 573.38 78.58 574.81 77.15 575.31 77.36 576.79 77.65 577 78.25 578.65 81.05 579.26 81.79 580.55 81.88 581.86 81.14 584.53 80.86 584.85 79.74 584.22 78.92 584.23 78.18 582.96 75.85 583.39 74.69 585.07 74.32 586.56 74.94 586.66 76.39 588.32 78.02 589.81 77.64 590.63 76.34 589.66 74.46 589.67 73.23 590.44 72.87 589.68 71.83 590.14 71.12 591.44 72.04 592.11 72.43 595.42 71.6 595.82 71.22 595.26 69.61 595.05 69.26 594.61 68.07 595.11 67.24 595.09 66.79 594.14 65.96 594.89 66.28 596.04 66.73 596.43 67.15 597.7 66.24 597.93 64.23 596.47 64.42 595.81 63.97 595.08 63.93 593.93 63.37 594.04 62.55 592.74 61.86 591.01 61.81 589.78 62.08 589.26 61.58 588.13 60.79 587.61 60.58 586.94 58.7 586.18 58.08 586.78 56.51 585.87 56.46 584.22 55.82 584.32 55.31 583.42 54.27 582.82 53.4 581.17 53.53 580.64 52.74 580.13 52.45 579.02 51.39 579.24 51.2 578.35 51.97 578.19 51.66 576.88 51.08 576.67 48.15 577.18 45.7 577.95 43.81 578.16 42.68 577.7 39.47 574.84 37.86 573.14 37.73 572.64 34.77 569.55 34.33 569.29 32.16 567.22 31.63 566.04 32.55 563.89 33.24 563.08 35.23 560.09 34.69 559.5 29.27 555.83 28.4 556.12 27.88 549.24 27.32 548.42 25.86 549.44 26.3 550.75 26.55 554.27 25.14 563.08 25.29 563.13 29.92 561.76 29.9 562.58 27.94 563.03 19.71 565.4 12.34 567.59 4.56 569.83 4.07 568.89 7.42 568.23 21.48 564.18 21.8 563.22 19.29 559.61 19.03 559.78 7.31 542.68 7.55 542.51 6.02 540.28 6.63 539.5 3.34 534.54 2.47 535.66 1.72 535.77 1 535.15 1.7 533.85 4.37 532.67 6.36 532.5 7.81 532.93 10.02 532.1 11.4 532.27 12.65 531.9 15.16 532.62 15.3 531.15 17.21 530.56 18.73 529.29 18.45 528.92 7.35 531.71 6.19 531.25 5.59 530.42 5.47 529.47 5.63 524.54 5.88 523.73 6.68 522.81 7.43 522.47 15.82 517.83 15.93 517.64 22.79 513.89 24.61 513.77 25.67 514.18 28.43 517.19 30.36 518.51 31.57 519 33.43 519.22 41.98 517.78 42.67 517.47 42.59 516.75 42.9 515.29 42.19 514.76 42.16 513.96 41.16 513.9 38.31 514.23 38.19 514.47 37.17 514.11 34.97 511.57 33.96 509.33 32.11 507.09 30.37 504.29 29.36 501.47 29.25 500.66 30.57 498.7 30.68 497.81 28.97 496.78 28.44 496.21 28.27 494.5 27.83 492.77 28.3 490.12 29.34 489.01 29.17 488.47 27.76 488.1 27.52 487.22 29.82 485.7 31.41 485.27 31.95 484.56 32.99 483.9 33.77 482.58 33.37 481.23 33.69 480.75 35.52 480.57 36.08 480.83 37.2 480.69 38.29 479.67 38.76 477.18 40.64 476.31 42.46 476.16 43.27 475.89 44.05 474.82 44.1 472.6 45.07 470.03 45.11 469.13 46.59 467.26 46.11 465.27 46.54 462.51 45.43 460.75 45.83 458.63 45.59 457.41 45.71 454.22 44.87 451.75 44.54 450.09 46.18 447.98 47.4 447.41 48.7 445.68 51.34 443.21 52.62 440.74 54.41 437.82 56.02 435.83 57.45 433.84 59.68 430.25 61.98 426.29 63.79 421.62 65.27 414.58 66.11 408.12 66.4 404.33 67.48 402.2 67.84 402.21 67.74 399.95 67.07 398.32 66.93 397.05 66.47 395.63 66.31 393.5 65.77 391.86 65.31 391.22 65.18 388.88 65.35 387.98 65.95 387.28 66.14 386.01 65.68 383.84 65.56 382.55 64.8 381.15 66.19 377.37 66.27 375.65 66.74 375.23 68.04 372.95 68.94 372.56 70.7 372.25 71.49 371.79 72.79 370.07 72.93 369.27 73.74 368.29 73.75 367.59 74.61 366.36 74.94 364.98 75.76 364.4 75.97 363.78 77.6 362.14 77.9 361.37 79.39 360.11 80 358.88 80.71 358.23 82.03 354.66 83.14 353.41 84.01 351.41 85 350.86 86.04 349.85 87.74 349.31 89.43 348.12 93.65 346.76 94.49 347.24 95.21 346.85 97.26 346.62 98.94 346.99 99.92 346.74 102.15 347.03 104.06 348.33 106.01 348.71 107.05 349.42 109.29 350.37 110.07 351.04 110.88 352.28 113.42 353.34 115.26 354.26 118.64 358.23 120.15 358.37 123.08 359.08 123.47 359.66 125.01 360.7 126.14 361.22 128.26 363.38 129.61 364.97 130.25 365.28 132.59 363.69 134.91 363.78 137.62 362.51 138.26 358.8 136.9 355.88 135.18 355.61 134.41 354.82 133.73 353.29 133.39 351.9 132.51 350.87 131.2 349.98 130.27 346.47 129.73 345.29 129.64 344.08 130.16 341.75 129.3 340.35 129.04 338.75 128.19 336.05 124.98 331.74 123.29 328.91 123.29 327.6 122.09 324.83 120.29 322.73 119.7 322.29 119.23 320.78 117 317.77 116.03 317.44 115.89 315.8 114.47 315.09 113.98 314.53 113.46 312.52 113.57 312.1 112.72 310.98 112.62 309.68 112.28 308.69 112.68 306.05 113.93 304.33 114.88 303.8 115.06 302.4 114.77 301.02 113.27 296.87 113.52 295.86 114.46 294.51 116.32 293.43 116.04 292.34 116.49 290.81 115.94 290.08 116.07 288.35 116.47 287.91 117.55 284.6 117.6 282.79 117.46 280.99 117.4 277.09 117.61 276.16 119.18 273.89 118.76 271.02 119.11 270.21 119.67 266.67 120.26 264.86 120.87 263.73 121.31 262.2 121.24 260.08 121.85 258.48 124.68 257.31 126.15 255.77 128.06 254.75 128.67 253.91 129.21 253.79 129.97 254.44 130.5 253.87 130.85 252.36 130.47 250.37 131.27 250.31 132.55 251.7 133.26 251.88 134.54 250.91 135.39 251.02 136.77 250.78 138.57 251.28 139.51 250.32 141.3 249.81 143.02 248.96 142.92 245.92 143.83 244.43 145.28 242.47 146.14 241.06 147.59 237.53 148.58 236.87 150.76 235.81 152.12 233.95 155.75 231.54 156.27 230.39 158.03 227.34 158.5 223.89 159.43 221.69 159.66 220.26 159.2 218.45 159.24 217.48 159.88 215.67 159.45 214.15 159.57 210.6 159.42 209.56 159.69 208.63 160.8 207.24 161.63 205.29 162.43 204.4 163.7 202.31 163.97 201.29 165.37 201.07 166.82 199.68 168.6 199.29 170.09 197.77 170.64 196.43 172.51 195.71 173.68 195.07 175.32 193.39 176.23 190.24 178.02 187.26 178.01 186.1 178.34 185.82 178.91 184.27 179.68 183.04 179.6 181.57 180.31 180.44 180.62 179.36 181.72 178.59 182.39 178.43 183.1 177.28 182.08 175.17 182.97 174.42 183.82 173.11 184.08 170.79 184.98 169.94 185.33 168.92 186.62 167.87 187.23 166.75 188.79 165.96 189.38 163.97 190.97 163.64 192.72 162.62 193.95 161 194.91 160.12 196.69 158.02 197.38 156.57 199.08 156.02 200.39 155 201.2 153.71 202.43 153.54 203.96 152.14 206.36 151.32 208.62 149.96 209.12 149.46 210.29 149.18 211.07 149.98 211.33 150.71 215.77 147.48 216.56 146.37 216.63 143.98 216.35 141.74 215.89 140.83 214.22 140.51 212.22 139.83 210.14 139.37 207.9 139.13 206.16 138.42 205.49 139.01 203.42 138.93 202.7 138.41 200.77 138.22 198.25 138.52 196.45 138.98 191.4 138.2 188.89 138.29 184.05 138.29 180.09 138.42 177.79 138.97 176.46 138.65 174.69 136.25 173.81 133.98 172.82 132.08 171.91 129.74 171.76 128.74 170.98 126.3 170.41 120.03 171.04 118.14 171.15 116.92 170.5 116.23 170.52 115.26 169.81 113.1 169.71 110.87 169.09 111.08 168.72 110.32 169.68 109.9 169.65 107.78 169.78 105.56 170.09 103.26 170.01 101.81 170.24 99.85 171.04 97.61 171.82 95.9 172.78 92.5 173.96 90.66 174.89 88.66 174.33 85.12 176 84.37 177.5 87.36 181.88 90.39 185.01 91.91 187.88 92.49 189.41 91.87 190.7 90.79 192 88.82 192.59 86.5 193.88 82.57 195.72 81.14 195.12 80.39 195.06 77.81 194.69 75.96 193.29 73.94 190.52 72.9 191.95 70.7 191.84 69.19 192.74 68.08 193.46 66.82 196.21 67.57 197.24 67.45 198.06 66.73 198.5 63.87 199.07 62.07 199.71 60.62 199.55 58.69 201.3 58.14 203.15 58.01 204.61 56.86 206.68 54.24 207.83 54.13 209.35 52.88 211.08 52.87 212.32 52.18 212.7 51.65 212.14 48.81 212.03 47.1 212.3 45.31 215.12 43.86 216.61 45.77 218.18 46.74 220.21 46.77 221.06 46.4 221.53 45.7 222.9 45.31 224.42 46.24 227.31 46.84 228.14 46.8 229.07 46.12 229.48 45.21 232.54 45.04 234.25 47.1 238.04 45.82 239.1 47.03 240.2 46.96 241.14 48.33 242.44 47.84 244.88 47.64 246.72 47.71 247.9 46.97 248.75 47.12 249 46.59 249.51 43.62 249.85 43.07 250.58 39.7 252.26 38.51 254.56 38.51 256.8 37.04 257.44 37.49 257.63 39.1 259.17 39.53 261.17 40.39 262.12 39.14 262.77 37.67 262.95 36.7 263.43 36.51 265.58 34.41 267.21 33.92 268.88 34.45 270.27 33 270.96 31.47 272.63 31.63 274.01 31.15 275.05 30.03 276.82 29.97 276.76 27.91 277.13 26.98 276.53 25.75 276.44 24.09 278.06 23.17 278.45 21.08 279.34 19.57 281.16 17.38 281.68 17.36 282.84 18.35 283.76 17.99 286.32 18.02 288.15 16.82 287.46 15.01 287.25 13.29 287.36 11.69 290.74 12.63 292.49 12.47 294.52 12.86 295.93 12.86 297.25 12.57 298 11.89 299.4 11.36 300.19 12.3 302.21 13.75 304.88 15.28 306.36 14.1 307.46 12.23 309.27 11.48 309.97 11 313.69 11.4 316.91 13.19 318.1 13.44 319.86 14.18 321.28 13.33 322.35 12.18 324.01 11.47 325.06 11.32 326.17 10.46 326.68 9.58 326.66 8.91 327.75 8.16 328.41 8.41 329.76 7.34 330.48 5.9 330.82 4.41 331.78 2.81 332.96 3.32 335.43 2.99 335.93 2.54 337.17 2.66 340.05 1 341.41 1.65 343.39 1.62 346.24 2.76 347.11 3.33 349.3 2.78 350.57 1.78 354.53 3.28 356.71 2.65 358.34 3.47 359.84 4.89 361.23 4.47 362.41 4.56 364.48 5.43 366.08 4.78 367.45 3.63 369.34 3.59 370.92 3.18 373.39 4.45 375.72 4.82 377.85 5.97 379.32 7.49 383.21 9.08 385.38 10.9 386.93 11.49 388.59 13.67 389.94 14.36 390.68 15.22 391.8 15.93 392.1 16.97 392.72 17.12 394.17 16.51 395.36 16.25 397.68 14.78 399.86 13.83 400.67 13.18 402.43 14.24 403.54 17.06 405.35 18.29 407.48 17.42 410.08 17.93 411.21 17.72 412.55 16.45 414.35 15.78 414.71 15.16 416.43 14.98 418.01 14.54 420.46 12.8 421.62 10.82 422.32 8.62 424.72 6.88 426.26 7.45 428.34 7.73 430.08 7.44 431.52 8.12 433.57 8.85 434.69 8.34 437.7 6.01 440.11 7.65 440.49 9.46 442.32 11.77 444.65 13.29 445.12 14 446.61 15.37 447.55 15.97 448.47 17.49 448.77 20.09 450.79 20.04 452.25 19.69 456.3 18.31 458.03 18.52 460.3 18.43 461.6 16.96 461.76 16.52 463.81 14.28 464.13 13.42 465.62 12 469.23 10.27 472.76 12.27 475.76 12.93 478.69 12.01 481.02 11.67 482.68 12.06 484.77 11.86 488.94 12.03 Z M 42.81 559.16 42.49 559.44 40.08 559.24 37.79 559.69 36.86 560.72 35.74 560.52 34.68 562.9 32.73 565.64 32.93 566.51 38.58 572.01 43.01 576.43 43.91 576.97 45.59 576.88 50.54 575.46 52.18 575.7 52.79 575.18 52.39 573.26 51.62 572.93 50.92 571.8 50.75 569.74 49.09 567.68 48.6 565.95 46.58 565.84 45.93 565.36 44.67 563.6 44.21 559.3 44.24 558.08 43.73 558.02 42.81 559.16 Z" fill-rule="evenodd" id="38540000"/>
</g>
</svg>