<?xml version="1.0"?>
<svg xmlns="http://www.w3.org/2000/svg" version="1.2" baseProfile="tiny" width="800" height="1093" viewBox="0 0 800 1093" stroke-linecap="round" stroke-linejoin="round">
<g id="sigung">
<path d="M 574.14 1080.43 575.83 1081.9 575.61 1083.61 574.59 1084.66 574.07 1086.01 570.89 1085.4 568.62 1085.49 565.57 1086.19 562.8 1085.84 561.84 1084.47 561.76 1083.67 565.08 1083.5 565.7 1083.71 566.69 1083.27 570.58 1084.04 571.35 1082.71 572.9 1082.03 573.58 1080.18 574.14 1080.43 Z M 586.49 1079.8 587.21 1080.41 586.37 1081.46 586.28 1082.11 587.37 1084.04 587.52 1085.87 588.72 1087.07 588.04 1087.98 587.19 1087.71 586.24 1086.54 586.06 1084.89 585.66 1083.99 584.21 1082.55 585.51 1080.34 586.49 1079.8 Z M 556.81 1066.27 556.99 1066.83 554.92 1068.19 554.09 1068.29 554.5 1065.67 556.81 1066.27 Z M 582.05 1064.4 583.98 1063.78 585.92 1065.21 586.61 1065.31 586.53 1067.57 588.03 1069.66 587.63 1070.25 585.24 1071.67 584.13 1071.74 583.39 1072.17 582.75 1070.95 581.66 1070.04 581.76 1069.06 582.56 1068.18 582.3 1067.13 581.24 1066.54 580.71 1065.13 580.8 1063.71 582.05 1064.4 Z M 581.6 1058.6 580.53 1058.72 579.7 1057.81 579.62 1056.76 580.62 1056.32 582.22 1058.03 581.6 1058.6 Z M 460.48 1058.92 459.05 1060.22 457.72 1060.88 457.24 1059.85 458 1057.34 459.22 1056.34 459.82 1056.69 460.05 1058.25 460.48 1058.92 Z M 474.2 1049.8 474.47 1050.6 472.81 1051.65 471.78 1051.56 471.57 1050.3 472.57 1049.37 474.2 1049.8 Z M 582.65 1050.63 582.04 1050.42 581.19 1049.35 580.87 1048.03 581.99 1048.02 582.55 1049.25 583.18 1049.71 582.65 1050.63 Z M 569.56 1046.59 571.82 1047.38 573.05 1046.86 574.61 1048.36 574.67 1048.8 573.65 1049.66 573.51 1050.87 574.18 1052.1 573.6 1052.94 573.21 1056.2 574.68 1058.02 574.61 1058.79 573.81 1059.37 572.37 1058.71 571.15 1059.11 570.39 1060.08 569.94 1061.43 570.13 1062.9 571.54 1063.28 572.26 1064.35 570.51 1065.9 570.26 1067.13 569.48 1067.64 569.68 1068.41 571.32 1069.92 571.73 1069.46 572.76 1069.55 573.1 1071.64 575.09 1074.02 574.64 1077.42 573.96 1078.13 572.75 1077.93 570.64 1077.17 569.56 1077.67 566.38 1077.01 564.15 1076.12 562.79 1074.06 561.41 1073.13 561.42 1072.36 562.06 1071.77 563.51 1071.9 564.09 1070.6 565.36 1070.01 565.74 1069.47 565.65 1068.27 566.37 1066.6 565.4 1064.98 564.89 1064.65 563.62 1065.25 562.59 1064.89 562.38 1064.09 562.24 1061.47 563.05 1061.14 564.8 1061.37 566.04 1059.86 567.01 1059.7 567.4 1058.63 567.29 1057.11 566.64 1056.52 565.58 1056.35 565.93 1055.48 567.26 1054.84 568.42 1054.92 569.68 1054.16 570.04 1053.61 569.97 1052.12 569.41 1051.51 569.56 1050.2 569.37 1048.82 568.62 1047.22 567.18 1046.63 566.79 1047.18 565.88 1046.86 567.67 1045.79 569.56 1046.59 Z M 454.17 1042.22 453.31 1043.62 452.29 1043.21 452.58 1042.33 454.17 1042.22 Z M 461.69 1049.01 462.52 1050.4 461.28 1051.68 460.03 1053.97 459.67 1055.81 459.16 1055.75 459.04 1054.02 458.63 1052.67 456.56 1050.53 454.87 1049.63 451.96 1049.22 448.57 1048.52 448.2 1047.96 446.86 1047.03 445.76 1045.13 447.01 1045.15 448.07 1046.85 448.86 1047.12 450.43 1046.87 451.16 1047.72 453 1047.64 454.05 1048.14 454.77 1048.93 455.66 1049.05 456.99 1048.51 458.46 1046.82 458.64 1046.27 457.66 1044.97 458.21 1043.96 458.39 1042.48 459.17 1041.88 459.72 1042.38 459.88 1044.43 460.83 1045.35 460.23 1046.47 460.14 1047.59 460.47 1048.51 461.69 1049.01 Z M 582.91 1041.35 583.52 1042.03 581.98 1044.02 580.92 1043.86 580.37 1040.43 580.8 1039.34 581.83 1038.85 582.24 1039.27 582.34 1040.73 582.91 1041.35 Z M 582.58 1036.79 582.89 1037.26 581.91 1038.55 581.8 1037.07 582.58 1036.79 Z M 629.45 1027.05 627.48 1024.84 627.93 1024.75 629.38 1026.45 629.45 1027.05 Z M 628.19 1023.04 628.7 1023.75 626.91 1023.95 627.2 1023.08 628.19 1023.04 Z M 585.64 1024.25 584.43 1024.42 583.6 1022.87 583.53 1021.22 584.09 1020.11 584.07 1017.81 584.78 1017.06 585.38 1018.11 585.28 1020.65 585.77 1021.19 586.23 1023.1 585.64 1024.25 Z M 726.41 994.51 725.95 994.87 723.23 995.1 721.49 996.44 720.85 995.28 722.3 993.07 723.46 991.8 724.46 991.79 724.54 992.52 726.41 994.51 Z M 722.4 985.62 723.7 985.48 724.15 985.96 724.09 987.86 722.81 987.39 722.65 986.19 721.72 985.11 721.35 984.21 722.59 983.87 722.4 985.62 Z M 722.69 976.93 722.15 979.98 720.9 979.53 721 978.04 720.62 977.12 721.7 976.3 722.69 976.93 Z M 720.64 974.33 719.82 974.91 718.92 974.13 719.87 973.67 720.64 974.33 Z M 760.17 966.47 761.06 967.29 761.84 967.45 762.59 966.42 763.97 966.56 763.09 968.23 762.35 969.15 761.75 969.22 758.88 967.49 758.61 965.71 759.2 965.01 760.17 966.47 Z M 738.95 963.63 738.21 963.93 737.76 963.18 737.62 961.99 738.73 962.67 738.95 963.63 Z M 755.24 956.24 755.89 956.43 756.16 957.57 755.57 958.32 755.41 959.7 756.74 960.29 757.48 961.29 756.38 962.7 756.23 963.53 754.84 964.3 753.86 962.63 753.59 960.43 752.35 958.64 752.47 957.4 753.11 956.5 754.54 956.12 755.24 956.24 Z M 766.2 953.72 767.69 954.32 767.45 955.72 766.11 955.83 765.64 954.51 766.2 953.72 Z M 757.13 945.88 757.75 947.1 758.51 947.31 759.9 946.11 761 946.43 761.43 947.23 762.55 948.06 764.72 948.13 766.15 947.56 766.7 949 766.44 951.34 765.82 951.84 764.67 951.5 763.09 951.75 761.63 951.72 759.29 950.98 758.27 951.31 757.28 952.68 756.22 952.94 754.73 952.57 753.5 951.4 753.17 950.61 752.93 948.35 754.57 947.82 755.83 947.67 755.58 945.99 757.13 945.88 Z M 751.34 950.08 750.27 948.83 750.33 947.75 750.81 946.26 751.47 945.52 752.04 947.68 751.58 948.63 751.84 949.93 751.34 950.08 Z M 773.74 939.79 772.52 939.03 771.93 937.54 772.38 937.19 774.48 937.51 775.35 939 774.9 939.55 773.74 939.79 Z M 752.48 942.18 750.42 942.32 749.95 941.6 750.55 938.07 751.12 937.36 752.07 937.33 753.38 937.73 754.18 938.36 754.37 939.31 754.4 941.54 752.48 942.18 Z M 768.54 936.94 767.73 936.24 766.7 936.03 764.39 933.76 763.81 931.65 762.84 929.16 762.27 928.37 761.2 925.64 761.93 924.51 761.89 922.76 762.1 921.28 762.74 920.98 763.7 921.31 764.33 922.75 765.28 923.36 767.74 924.4 768.06 924.71 768.6 927.53 768.14 928.63 768.79 930.3 768.73 932.13 769.4 933.78 769.75 935.46 769.63 936.12 768.54 936.94 Z M 764.81 887.62 764.99 889.12 764.3 889.03 763.81 887.69 763.13 887.24 763.34 885.57 765.28 886.74 764.81 887.62 Z M 768.82 872.14 769.4 873.44 768.74 874.17 768.24 872.77 768.82 872.14 Z M 247.31 35.66 247.37 36.19 246.83 40.4 246.58 47.01 247.1 50.88 247.25 53.82 246.2 57.78 245.58 61.29 246.74 64.55 247.45 67.56 247.66 71.29 247.43 76.86 246.49 80.46 248.26 88.95 248.1 93.11 249.34 97.67 247.25 102.64 248.21 106.14 249.07 107.57 253.73 115.96 256.47 119.56 254.97 122.78 251.12 128.97 251.2 130.79 252.84 133.04 256.29 135.61 257.91 137.71 261.74 146.23 263.1 148.04 265.28 149.39 271.15 152.85 273.37 154.08 275.96 159.91 277.51 161.48 278.54 163.21 278.56 165.83 280.87 171.65 283.4 180.44 285.34 181.87 287.95 182.83 291.49 184.41 296.62 186.12 304.95 189.71 307.41 190.99 307.93 192.09 309.29 193.4 312.25 194.51 318.46 195.19 325.73 196.59 329.13 197.85 330.91 199.82 334.46 201.17 336.76 201.37 339.54 202.19 342.47 204.12 343.96 206.04 347.07 206.77 352.8 204.75 355.27 205.02 368.2 210.92 373.38 215.88 377.36 218.36 380.22 220.9 381.57 223.85 384.02 227.83 382.95 231.48 386.42 243.8 390.71 248.37 389.11 252.08 389.03 254.38 392.24 260.22 395.38 263.37 396.97 267.07 400.01 268.61 405.11 274.1 405.46 276.47 407.24 277.26 412.29 277.41 416.9 279.12 418.23 282.4 420.94 287.41 423.23 290.24 426.32 289.86 428.5 290.73 432.41 291.09 434.59 295.31 439.23 299.27 440.28 300.44 442.2 300.31 449.15 300.05 453.11 301.53 453.33 298.13 454.85 296.42 458.79 297 462.23 297.96 465.98 297.66 468.72 296.65 470.73 297.23 472.98 298.77 475 298.16 476.64 298.01 478.13 297.53 478.87 296.93 481.57 298.78 485.29 299.62 488.52 299.36 491.74 300.59 493.61 300.42 495.47 299.94 496.59 298.62 498.42 297.91 500.14 297.59 501.93 296.93 504.93 297.4 506.72 296.56 510.95 295.36 513.07 295.46 515.05 295.29 518.89 295.23 520.67 295.48 521.75 294.46 523.88 293.48 525.69 293.7 529.2 293.23 531.83 292.76 534.3 292.02 536.15 292.19 539.83 291.65 541.66 292.93 543.13 292.83 544.25 292.31 545.83 292.59 549.48 291.58 550.79 291.51 553.75 289.27 554.41 286.63 557.76 285.9 560.59 284.2 561.68 282.94 562.25 282.76 563.38 283.52 564.47 281.65 566.39 278.96 566.59 276.93 568.31 275 568.81 273.31 569.83 272.28 571.53 272.73 573.64 272.98 574.92 273.39 575.95 274.06 580.53 274.79 582.28 275.62 583.64 275.96 587.21 277.61 590.35 275.38 591.79 271.22 592.38 268.98 592.33 267.74 591.59 267.24 591.24 264.61 591.39 263.72 592.51 262.87 591.98 262.14 592.33 261.1 593.96 259.3 595.69 256.43 598.57 256.29 602.68 255.29 603.44 254.93 604.67 253.27 605.74 252.52 606.91 251.14 608.44 250.71 608.53 248.53 610.14 247.58 611.76 246.24 612.92 245.6 614.52 243.31 614.79 241.46 618.76 237.58 618.21 232.52 619.18 230.28 615.97 226.4 617.09 224.18 616.44 222.6 616.41 220.38 621.92 214.95 623.13 211.78 623.17 210.49 623.83 210.03 625.2 207.94 625.9 207.27 629.26 206.51 630.72 206.46 631.73 204.42 632.28 201.18 633.59 197.57 634.48 194.46 637.6 192.97 640.18 192 642.08 190.79 643.2 190.46 645.6 191.58 648.4 192.2 650.17 193.44 652.27 193.97 653.94 195.65 655.98 196.62 657.27 197.92 657.86 199.46 657.33 202.03 657.01 204.58 655.62 206.62 655.38 207.42 655.42 210.66 654.88 213.81 655.05 214.67 657.82 213.66 661.24 214.01 665.24 213.91 668.21 213.67 670.36 215.22 672.12 215.89 673.63 215.13 676.88 215.59 679.2 217.49 681.47 218.61 682.43 217.06 684.27 215.93 686.32 215.98 687.96 214.93 689.12 214.49 691.66 214.46 693.54 213.91 693.37 215.93 695.86 215.64 695.95 215.92 694.95 219.65 692.09 228.56 690.73 232.01 688.6 238.18 688.13 240.02 687.48 243.43 685.14 247.8 684.59 249.97 689.93 262.27 689.36 267.05 689.97 270.68 690.17 275.95 689.28 276.85 689.59 281.85 688.63 287.1 685.86 296.78 685.04 301.07 685.4 306.42 689.03 315.97 690.72 318.67 694.04 321.3 696.82 325.43 700 329.18 701.47 334.96 700.97 339.25 700.45 340.34 699.91 344.07 698.39 351.74 699.03 353.67 700.94 358.32 706.04 365.95 708.97 367.78 716.99 377.25 718.31 377.97 721.89 382.4 726.07 386.69 730.62 391.91 734.61 393.34 738.96 397.45 745.8 397.54 749.45 401.79 750.98 403.32 755.51 403.32 763.09 406.4 767.63 407.5 772.19 411.53 774.2 413.01 774.28 414.03 774.96 415.48 779.86 421.26 786.82 425.12 791.96 431.09 793.61 433.44 795.84 435.64 799 440.25 797.77 442.99 796.45 445.13 795.6 448 794.58 450.35 795.49 459.57 796.3 462.57 796.63 466.6 797.35 469.53 796.61 472.37 797.93 475.89 796.47 476.99 795.26 478.45 793.56 479.26 792.04 479.14 789.89 480.41 788.87 482.66 787.65 483.39 785.85 483.62 784.83 483.49 783.16 483.68 782.31 484.41 781.44 488.42 781.84 490.64 782.79 491.82 782.87 493.22 782.61 495.04 779.01 496.97 777.61 495.25 776.31 495.17 774.06 494.11 772.89 492.48 773.15 490.63 773.09 489.1 771.85 488.4 771.28 487.75 768.69 487.83 767.23 487.36 766.22 486.66 765.4 485.54 763.72 484.16 761.2 483.03 760.35 482.29 757.98 483.05 754.2 483.54 749.49 483.21 747.3 483.31 744.68 483.23 742.83 481.81 741.81 480.72 740.47 481.15 738.64 483.35 737.69 487.03 734.58 487.67 729.73 484.27 728.83 483.25 728.26 481.52 725.94 477.85 724.2 477.33 722.76 474.88 721.13 472.76 720.02 470.54 718.04 470.68 716.07 469.68 713.86 469.05 713.46 467.93 712.34 467.54 712.06 466.92 710.71 465.76 709.24 466 708.06 466.84 705.3 466.5 704.94 470.73 705.21 472.41 704.88 473.88 705.73 475.56 705.67 476.19 702.56 476.6 701.72 477.23 701.09 476.71 699.6 476.87 699.2 476.59 696.77 477.71 694.13 479.63 687.64 481.19 684.93 482.17 680.92 483.23 679.66 484.75 680.06 487.76 679.29 489.91 676.51 489.63 675.39 490.23 672.53 489.28 671.93 488.47 670.34 487.41 669.8 487.37 669.1 489.04 670.18 490.5 669.44 491.03 668.97 492.28 669.25 492.66 668.77 494.54 667.37 495.63 669.05 498.38 670.22 499.86 671.27 501.63 672.46 504.33 672.17 504.77 671.73 507.32 671.22 509.14 671.82 512.47 672.88 514.2 675.07 516.06 674.7 519 674.94 519.83 677.16 521.76 679.18 524.44 681.14 525.84 681.15 526.29 680.02 527.75 679.64 528.79 681.4 532.18 681.02 534.19 681.91 536.04 684.04 536.33 685.36 535.74 687.43 535.63 688.95 536.01 692.66 534.52 694.28 534.45 694.34 535.12 697.13 537.38 697.18 539.5 699.51 541.51 701.94 542.65 704.2 546.69 705.95 547.43 708.08 547.59 709.74 547.5 711.81 546.53 714.13 547.97 715.71 548.42 718.39 548.91 720.59 551.31 720.46 552.56 723.16 552.79 724.7 553.41 725.73 554.5 726.36 554.6 726.68 556.11 727.77 559.06 729.2 559.86 732.4 560.47 737.1 561.7 737.93 567.83 736.12 571.24 734.55 572.32 731.21 574.08 730.09 575.83 727.54 578.61 726.87 580.01 724.72 581.57 723.54 582.07 720.24 586.18 718.47 586.81 716.03 587.14 713.65 591.23 714 593.47 713.39 595.2 712.99 597.31 714.34 598 714.51 599.72 715.7 600.62 718.02 604.34 720.44 605.23 721 605.71 721.01 607.39 723.42 609.11 724.51 611.81 726.52 613.56 728.18 614.17 730.32 615.45 732.57 618.86 734.19 619.97 735.05 621.85 733.54 623.87 731.46 624.91 730.28 625.01 728.76 624.3 726.21 626.38 724.07 627.13 721.57 628.63 718.79 629.64 719.63 630.93 719.11 635.41 718.38 635.94 719.45 639.04 720.25 640.15 720.47 642.97 720.93 644.22 720.53 645.75 720.39 647.78 719.88 650.06 717.31 650.81 715.22 649.85 709.38 652.15 704.67 652.53 700.67 653.03 703.07 658.82 704.3 661.16 705.76 664.26 706.75 667.24 707.98 669.61 710.08 672.82 712.12 673.52 715.54 672.23 719.46 671.32 721.56 672 722.6 671.37 725.44 672.07 728.94 673.45 730.72 676.37 731.5 677.92 732.66 682.43 733.8 685.98 733.46 687.82 736.82 687.91 740.9 687.68 741.66 691.14 742.07 695.47 743.04 697.13 745.5 698.93 744.86 704.48 746.52 706.3 746.57 707.85 747.17 711.42 748.92 712.61 756.89 713.94 757.9 713.58 758.86 712.2 759.73 711.81 760.32 713.26 762.84 715.77 764.34 717.85 765.02 720.36 765.9 722.65 767.46 725.7 767.49 727.81 767.72 728.71 768.98 731.29 768.12 732.31 767.22 732.8 769.37 737.63 769.36 738.81 769.95 740.1 772.6 741.49 774.43 742.77 774.5 743.56 775.64 747.17 776.05 747.89 777.87 748.7 778.54 748.55 780.39 748.87 781.28 750.08 781.51 751.03 783.25 752.44 783.55 754.08 784.26 755.91 783.6 758.02 782.49 759.78 782.41 760.86 780.45 761.04 779.45 761.87 777.62 762.71 776.48 764.28 775.15 768.53 775.3 769.41 772.94 770.17 768.47 771.82 768.18 774.21 768.47 775.69 767.73 778.64 767.12 782.03 769.56 783.41 769.86 785.03 770.37 789.44 769.06 792.55 767.15 793.26 766.56 795.11 768.61 798.33 768.11 799.48 767.18 800.49 771.47 804.61 771.36 805.23 770.07 808.83 769.42 809.81 767.91 810.41 767.09 811.17 767.26 813.01 764.95 812.39 762.47 812.42 760.69 813.85 759.75 815.58 762.25 815.04 762.74 815.73 761.25 817.61 761.84 818.34 763.4 818.91 764.4 819.89 764.15 820.57 761.9 821.17 761.44 821.65 761.52 822.62 763.5 825.3 763.97 827.64 765.02 828.64 766.13 831.33 767.45 833.96 768.77 834.08 769.53 835.42 770.01 835.42 766.96 842.27 766.61 843.76 766.53 845.59 766.1 845.07 765.24 845.2 765.42 846.5 762.25 850.24 757.83 855.67 756.74 855.74 755.53 857.21 756.97 857.94 759.08 859.32 759.61 859.31 761.36 861.12 762.83 862.03 763.03 863.5 763.63 864.28 764.65 864.22 765.58 865.39 764.71 866.43 764.58 867.65 765.45 868.59 765.6 870.08 764.19 872 763.88 870.57 763.13 870.14 759.95 872.13 759.64 873.56 760.43 875.36 758.73 875.3 758.35 875.83 757.83 877.71 758.85 878.53 761.89 881.39 765.69 880.97 765.8 881.24 761.37 881.67 759.65 883.08 759.86 884.22 759.38 884.47 757.97 883.69 757.17 883.69 753.2 891.26 754.08 892.54 754.33 893.56 753.16 894.24 753.05 896.81 753.5 897.68 754.97 897.94 755.76 898.66 756.95 897.06 758.02 897.03 758.34 898.13 759.76 898.54 760.42 900.91 759.6 901.6 758.75 903 758.45 904.8 757.91 905.26 756.48 905.52 754.96 905.41 755.15 902.83 755.06 901.84 754.38 901.42 753.24 901.62 752.18 900.93 751.59 901.5 751.74 902.87 750.72 903.66 749.53 903.09 749.23 903.8 750.36 905.9 753.35 907.39 753.42 908.2 751.68 908.47 752.43 909.79 753.61 910.82 754.63 910.94 755.59 911.86 756.66 912.32 757.83 912.25 758.06 911.55 759.84 910.36 761.64 910.38 763.95 910.15 765.28 910.42 766.11 910.17 766.69 911.24 765.17 912.02 765.99 913.39 767.38 912.89 768.27 911.87 769.1 912.48 765.84 913.77 763.91 914.97 761.94 914.18 758.03 914.44 757.38 914.12 755.34 913.91 754.62 914.91 754.81 915.71 755.75 916.55 755.64 917.6 754.43 918.36 755.32 919.24 756.75 919.11 757.28 919.77 757.47 920.85 756.83 921.56 754.75 922.59 754.41 923.7 755.54 923.74 757.55 927.13 757.36 927.8 756.41 928.54 756.17 929.33 757.23 930.49 758.72 930.53 759.15 932.89 756.53 933.57 755.58 933.47 754.25 932.85 753.2 931.92 752.3 930.44 751.5 928.27 751.73 927.13 750.58 925.51 748.97 924.38 748.59 923.79 742.92 924.65 742.31 925.33 740.79 926.18 738.81 925.49 737.37 925.21 737 927.43 736.64 927.96 735.08 928.31 733.93 929.17 734.34 930.81 736.56 931.42 738.64 932.51 739.29 934.71 739.15 935.49 741.31 936.73 741.73 937.76 741 938.59 740.61 939.63 740.91 941.33 739.7 943.52 739.96 944.4 741.23 945.17 740.29 946.77 741.43 947.71 741.1 949.18 741.17 950.32 742.66 952.77 743.73 957.37 742.42 957.14 742.37 960.12 742 960.08 742.11 957.23 741.23 956.56 739.26 953.94 738.39 953.72 737.32 952.55 731.55 953.99 729.2 955.46 727.28 957.35 728.11 959.35 727.82 961.2 728.02 961.7 725.93 963.08 724.65 962.35 725.02 961.07 724.37 959.07 722.71 958.22 721.09 958.49 720.43 959.78 721.17 960.98 720.58 961.85 720.76 962.85 721.31 963.21 717.72 971.64 717.23 971.88 713.04 970.96 712.47 971.94 713.92 973.31 715.15 973.87 716.37 974.07 717.23 976.13 718.32 977.51 718.03 978.5 716.96 978.9 715.38 977.54 714.74 978.47 715.9 980.08 716.06 980.86 715.46 981.56 715.32 982.66 716.02 983.3 715.11 984.49 713.49 984.51 711.05 983.3 709.52 984.04 709.21 985.7 710.12 986.58 711.72 987.6 709.88 988.53 710.52 990.03 711.61 990.9 713.7 991.23 714.58 992.16 714.69 993.01 714.04 993.97 712.65 995.06 711.89 996.44 712.73 998.78 713.42 999.75 710.82 1000.44 710.04 1002.75 710.3 1003.18 709.59 1004.1 708.69 1003.99 708.59 1002.71 708.92 1001.41 708.63 999.71 706.99 997.33 705.52 996.26 703.62 997.5 698.22 1001.28 697.49 1001.16 698.09 1002.85 700.21 1005.3 700.86 1006.65 700.96 1007.78 699.16 1007.58 698.04 1006.34 698.12 1004.49 697.88 1004.04 696.55 1003.57 695.23 1003.53 693.62 1002.8 690.94 1003.39 690.05 1004.47 691.47 1006.52 691.59 1007.29 691.19 1008.34 691.64 1008.93 690.05 1012.14 689.2 1013.27 688.26 1012.63 688.03 1010.19 687.48 1008.78 687.28 1005.72 686.68 1004.66 685.81 1001.04 684.55 1001.16 683.55 1001.94 683.38 1002.62 681.07 1003.96 680.27 1004.21 679.83 1006.01 679.15 1007.26 678.56 1007.29 677.12 1009.59 676.52 1012.41 677.75 1013.63 678.81 1015.31 679.26 1016.77 678.93 1018.83 677.98 1019.32 675.32 1019.31 673.94 1020.17 671.92 1020.52 670.09 1021.66 668.64 1022.31 667.39 1022.55 665.91 1023.34 664.81 1022.85 662.95 1022.98 661.92 1024.9 660.1 1025.26 659.28 1025.7 658.37 1027.01 657.14 1027.36 655.29 1026.44 654.21 1025.45 651.46 1024.15 650.25 1024.3 648.41 1023.98 646.94 1024.15 645.75 1025.74 643.31 1028.62 642.41 1028.22 641.48 1027.33 638.73 1027.68 638.04 1027.29 637.79 1026.1 638.17 1025.17 637.42 1024.46 636.87 1025.08 634.72 1024.4 633.63 1024.59 633.35 1023.63 631.31 1023.2 628.52 1022.97 627.97 1022.55 628.18 1020.28 627.16 1019.82 624.7 1019.83 623.95 1020.38 622.85 1020.42 621.23 1019.79 619.35 1020.12 619.56 1020.9 618.97 1022.56 617.88 1022.79 616.68 1022.39 615.49 1021.31 614.48 1020.87 612.64 1021.64 612.31 1022.3 613.5 1023.82 613.87 1025.72 612.02 1024.78 610.38 1024.83 609.08 1025.97 605.3 1026.16 603.81 1026.48 602.73 1027.1 601.5 1026.98 601.02 1025.72 602.18 1025.59 602.59 1024.27 603.83 1023.79 604.25 1021.88 605.13 1020.99 604.42 1018.13 602.62 1016.78 601.51 1016.94 599.6 1018.69 597.64 1019.96 597.87 1018.7 599.32 1016.29 598.68 1015.2 597.51 1014.86 597.14 1015.57 595.92 1015.28 595.5 1014.08 594.76 1012.93 595.32 1011.66 595.55 1010.09 594.48 1008.2 595.76 1008.13 595.17 1004.96 592.98 1002.92 593.15 1001.72 594.9 1000.59 595.23 999.17 598.43 997.58 598.74 996.56 598.29 995.61 597.26 994.78 597.81 993.83 597.38 992.71 595.85 990.39 594.78 989.22 591.16 987.27 590.06 986.51 588.81 984.45 587.74 984.15 587.2 984.88 587.25 986.42 587 988.49 587.13 991.82 586.41 995.05 585.34 997.95 584.94 998.42 584.73 1000.08 582.58 999.14 581.41 999.09 580.17 996.62 580.98 995.54 581.83 995.28 582.02 994.58 581.68 993.36 580.53 992.9 578.83 993.55 577.48 993.74 573.45 995.63 574.31 998.4 575.18 1000.5 579 999.8 580.46 1000.16 580.76 999.19 583.61 1000.65 583.95 1001.2 583.34 1002.48 583.57 1005.77 583.48 1006.25 584.69 1016.09 583.7 1018.45 581.95 1018.87 581.61 1020.18 575.45 1021.65 574.24 1020.37 569.7 1019.39 566.44 1015.88 565.23 1015.41 563.24 1015.98 563 1016.99 562.15 1016.29 558.6 1014.83 557.88 1014.1 556.7 1014.01 556.34 1013.47 553.99 1013.44 553.21 1012.49 552.41 1012.54 551.53 1011.28 550.99 1011.38 550.16 1009.59 549.5 1010.41 551.73 1016.14 552.81 1016.44 556.56 1016.26 558.01 1016.49 559.19 1017.16 560.15 1018.33 562.46 1024.05 558.89 1025.39 559.71 1027.42 563.06 1025.95 563.25 1026.52 559.69 1027.96 558.64 1025.49 554.54 1027.15 555.75 1030.29 553.84 1034.68 553.23 1034.42 555.32 1029.79 554.32 1027.24 548.71 1029.5 551.71 1036.86 551.72 1037.64 548.34 1041 547.89 1040.64 551.37 1037.27 551.46 1036.95 548.47 1029.6 546.98 1030.23 547.45 1031.9 545.26 1032.91 543.9 1030.02 542.01 1029.19 540.28 1024.89 539.88 1025.39 542.07 1030.89 542.05 1031.96 539.39 1025.39 538.88 1024.34 537.58 1023.12 537.43 1022.28 535.76 1021.65 535.51 1021.06 532.32 1022.02 536.38 1028.13 538.1 1028.29 538.49 1030.04 541.12 1036.55 540.32 1037.22 539.87 1039 540.18 1039.72 537.27 1042.71 537.89 1045.52 535.19 1048.29 531.85 1048.2 530.7 1047.1 527.96 1047.01 527.14 1046.27 522.96 1046.15 519.23 1048.06 520.24 1049.85 519.61 1050.69 518.07 1050.48 518.02 1051.75 517.14 1052.46 515.69 1054.65 513.12 1054.85 508.12 1056.23 504.14 1057.13 504.37 1058.33 505.07 1059.58 505.47 1062.52 506.01 1063.25 507.01 1068.01 508.09 1071.98 508.79 1075.64 510.07 1079.45 510.31 1082.25 511.5 1087.37 512.45 1087.27 512.71 1088.42 511.64 1088.73 511.27 1088.2 503.41 1090.18 495.87 1092 491.4 1073.9 490.47 1070.52 488.05 1071.3 486.45 1064.93 486.07 1064.52 485.67 1062.86 485.49 1060.84 484.44 1056.95 484.12 1055.37 483.25 1052.49 483.14 1050.87 481.72 1045.29 480.7 1045.83 478.02 1046.04 477.04 1045.51 477.14 1044.3 476.3 1044 474.35 1044.01 476.32 1042.18 476.05 1040.73 476.32 1039.32 475.17 1038.1 471.11 1036.99 469.88 1037.55 468.8 1041.01 468.41 1044.03 467.59 1045 466.42 1044.03 466.47 1042.83 466.15 1041.58 465.26 1040.36 459.29 1036.67 458.03 1036.16 457.46 1035.05 457.52 1032.69 456.17 1031.15 454.99 1030.89 455.85 1030.04 455.16 1028.65 455.17 1027.05 454.69 1025.77 455.16 1024.12 456.23 1021.94 456.2 1021.17 454.78 1020.33 452.2 1019.18 450.57 1019.29 450.04 1018.54 450.01 1016.03 449.24 1015.13 449.09 1014.31 447.93 1012.62 447.57 1011.7 446.28 1010.97 446.17 1010.42 444.43 1009.04 442.86 1008.63 441.2 1007.57 439.77 1006.42 440.13 1003.12 440.12 1001.96 439.66 1000.56 439.51 995.9 437.35 993.89 436.73 991.78 436.69 988.19 436.82 986.49 437.64 984.31 437.37 983.37 434.82 978.21 432.66 974.19 432.27 974.97 429.36 976.19 426.77 974.89 426.3 974.23 424.65 970.9 423.37 966.99 422.9 964.99 420.24 965.05 420.46 966.67 420.23 969.94 420.66 971.72 422.47 976.29 421.41 976.62 420.4 976.36 417.64 974.93 415.45 975.4 408.92 975.19 409.47 973.48 411.53 969.51 412.61 963.81 413.7 960.61 416.58 955.75 417.26 953.25 417.74 950.27 418.91 948.58 421.75 945.61 423.64 944.01 426.26 942.3 429.58 941.39 430.92 940.65 435.54 936.85 438.29 933.89 440.05 932.42 440.77 931.37 443.42 926.35 446.83 921.4 448.98 919.95 451.67 917.9 452.84 916.56 454.46 913.57 454.95 911.78 455.07 909.89 455.03 905.49 454.67 902.15 455.59 898.16 456.41 895.69 456.38 894.53 457 892.53 458.69 889.5 460.05 885.72 461.08 881.93 462.34 878.81 464.3 874.75 464.72 873.28 465.06 870.23 465.95 866.48 466.38 863.66 467.89 860.26 468.26 858.79 468.12 856.89 467.71 854.04 467.87 851.84 467.74 848.14 467.18 844.42 467.38 842.52 466.88 839.06 466.18 837.39 465.2 833.12 463.68 830.21 461.16 827.55 457.98 825.17 456.7 823.84 455 822.8 452.81 821.8 450.32 820.19 449.74 819.11 447.22 815.55 444.64 811.23 443.72 809.47 442.27 806.06 441.11 804.72 438.29 801.83 434.41 796.3 432.54 786.68 432.44 784.66 432.33 777.06 430.07 767.44 429.83 762.36 428.2 757.81 427.59 755.05 426.27 751.85 425.42 750.54 423.3 748.19 420.17 743.28 417.87 741.01 416.03 740.1 411.87 739.43 407.91 739.23 405.07 739.33 402.24 739.72 398.4 738.57 389.87 735.25 384.2 731.71 377.08 727.68 371.62 724.09 364.29 717.72 363.43 715.36 362.77 712.74 361.72 702.63 361.36 700.08 356.21 690.45 351.49 685.86 347.8 683.4 342.09 680.83 337.01 677.43 333.3 675.32 330.06 673.87 324.51 671.21 318.03 667.95 315.09 666.69 311.64 664.43 310.05 661.59 306.01 657.92 303.5 651.96 296.61 642.34 293.98 638.55 290.58 632.72 281.96 624.11 279.21 623.1 276.35 620.49 269.93 615.86 264.56 603.85 264.6 594.23 264.55 584.61 264.23 574.98 265.13 565.36 264.07 555.74 263.72 553.93 261.96 546.11 257.9 537.72 250.5 526.87 245.88 521.76 240.53 517.25 233.89 509.17 231.8 507.63 227.8 502.81 224.93 498 221.82 494.57 218.21 491.31 214.59 488.38 209.8 485.26 205.46 482.12 202.67 478.76 197.77 474.82 187.75 469.14 186.5 465.49 185.75 463.8 180.63 461.95 177.98 461.85 173.72 462.18 168.35 461.53 161.69 460.15 159.57 457.88 156.56 454.17 155.18 452.31 153.64 449.89 149.67 444.45 146.28 440.27 144.99 436.05 143.16 432.66 141.32 430.64 137.64 426.31 133.37 423.67 126.99 419.49 125.61 418.18 124.33 416.37 122.99 414.12 121.69 411.4 118.97 407.48 115.51 403.85 113.59 402.67 110.67 401.59 109.28 401.28 104.86 394.98 103.78 392.74 101.32 387.02 98.25 382.59 94.95 379.15 96.57 378.15 98.22 377.55 101.35 376.79 102.26 376.73 101.93 374.56 100.42 371.36 99.82 369.55 98.94 368.67 98.75 366.72 99.1 364.74 98.94 360.5 97.7 359.14 96.51 358.26 95.95 356.98 94.54 355.54 95.09 354.39 94.33 353.25 94.61 351.81 94.63 350.26 94.26 347.67 93.09 346.43 93.58 343.26 93.17 340.13 92.09 337.61 91.92 336.44 92.11 333.63 92.51 331.57 92.28 329.29 93.09 327.97 95.06 326.15 96.88 324.25 97.93 322.93 98.42 322.85 99.07 321.76 100.25 321.04 100.19 317.29 100.55 315.22 100.25 311.61 100.03 305.94 100.73 305.51 99.65 303.33 99.09 302.66 99.26 301.21 99.07 300.14 99.13 298.33 100.3 296.97 100.23 295.47 100.5 294.55 100.16 292.93 100.88 290.87 100.95 289.03 100.74 288.28 99.58 286.6 99.49 285.97 98.46 284.91 98.01 281.97 98.57 280.71 97.48 278.16 96.79 277.12 96.4 275.54 96.35 273.29 95.3 272.24 95.3 270.07 95.97 266.46 95.65 264.9 96.18 263.31 96.48 260.23 96.71 259.81 94.78 258.33 93.65 255.93 92.65 254.4 91.35 253.16 90.97 250.96 89.63 250.05 87.66 249.17 86.96 247.76 86.31 247.73 84.44 246.94 82.45 243.85 83.01 241.82 83.28 239.79 83.26 237.89 84.21 237.27 84.16 236.64 83.19 235.09 83.04 233.41 82.17 231.14 82.26 230.61 81.5 226.9 83.44 225.76 83.62 225.08 84.5 224.44 85.02 222.75 86.27 222.64 87.63 220.4 87.08 219.14 81.9 212.22 80.82 208.78 80.5 205.8 78.75 201.78 79.29 200.08 79.16 198.17 78.34 195.17 76.75 192.42 76.61 190.45 76.29 189.36 75.52 188.65 74.37 188.91 72.85 188.58 70.62 187.02 69.14 186.61 66.57 185.55 64.39 183.74 63.27 181.55 61.34 181.75 59.81 181.12 59.55 179.71 57.52 177.42 53.82 176.7 53.02 176.9 51.26 176.36 48.65 175.32 45.36 173.37 44.54 173.3 44.75 171.23 45.34 167.94 45.01 166.13 44.11 164.54 44.2 162.95 39.5 159.98 37.13 157.78 35.71 156.18 34.44 153.93 33.98 152.33 34.27 149.14 33.59 146.97 32.24 144.76 31.18 141.61 31.13 140.13 29.56 138.44 28.55 134.82 27.62 133.62 26.38 130.65 25.16 126.69 23.65 122.64 22.45 120.03 20.79 117.52 18.74 112.14 18.14 111.54 15.86 111.36 14.24 108.67 6.84 103.12 4.01 101.41 3.17 96.6 2.92 93.83 2.93 88.74 2.8 85.28 1.76 82.43 1.07 78.23 1 72.27 1.69 69.01 2.72 66.07 4.04 64.73 5.95 63.69 8.55 62.86 12.02 63.17 15.04 64.15 18.7 64.34 21.94 63.97 24.56 62.22 28.21 60.94 31.47 59.13 37.86 56.72 40.76 55.09 43.63 52.18 51.86 46.77 57.1 42.35 60.57 40.14 63.6 39.09 66.16 35.95 67.41 32.96 68.54 24.1 69.85 21.24 75.44 16.52 77.48 15.22 80.83 13.32 86.05 5.97 89.31 5 92.14 3.58 98.27 1.19 98.27 1 103.01 3.32 104.47 4.43 109.18 9.94 113.16 11.43 117.62 14.62 121.78 16.59 130.75 17.38 140.92 21.99 143.31 21.53 147.14 18 147.33 18.21 154.57 17.25 155.66 16.64 160.88 14.5 166.47 12.57 170.47 12.13 176.31 11.94 180.26 10.56 182.59 12.89 186.11 18.54 188.5 26.04 191.77 30.55 194.57 32.2 197.74 33 201.6 32.09 204.35 30.43 213.47 27.65 219.33 29.46 223.47 30.21 226.92 29.7 233.95 26.31 236.62 26.53 240.42 28.89 247.31 35.66 Z M 481.49 1042.48 482.17 1043.42 481.93 1044.7 488.34 1070.61 488.54 1070.65 499.67 1067.85 505.67 1066.41 505.87 1065.95 503.61 1056.82 503.1 1055 502.64 1054.7 501.29 1048.19 500.05 1043.85 498.79 1038.55 498.37 1038.08 493.1 1039.27 482.8 1041.75 481.49 1042.48 Z M 490.96 1070.43 490.91 1070.63 494.42 1084.8 494.3 1081.38 494.79 1081.62 495.74 1080.97 496.59 1081.95 498.47 1080.46 499.62 1080.03 501.55 1080.11 502.67 1080.58 504 1081.98 505.46 1082.27 506.15 1081.92 507.37 1081.94 508.12 1082.38 509.17 1082.07 510.03 1083.01 509.32 1079.91 506.06 1066.71 503.56 1067.26 490.96 1070.43 Z" fill-rule="evenodd" id="38560000"/>
</g>
</svg>