<?xml version="1.0"?>
<svg xmlns="http://www.w3.org/2000/svg" version="1.2" baseProfile="tiny" width="800" height="818" viewBox="0 0 800 818" stroke-linecap="round" stroke-linejoin="round">
<g id="sigung">
<path d="M 504.33 132.05 504.66 132.18 506.72 135.17 507.11 138.7 506.68 139.28 505.89 143.47 505.23 145.1 505.61 145.76 505.55 146.96 505.86 147.64 505.81 148.57 506.42 150.47 507.04 151.61 507.73 152.36 507.58 153.02 507.83 154.12 508.22 154.57 508.45 156.75 508.97 157.52 509.15 159.04 509.15 162.44 510.74 163.65 509.9 165.38 509.55 167.01 509.8 171.09 510.13 173.1 512.31 172.81 513.4 174.24 514.71 174.33 515.28 175.43 516.02 175.78 518.98 177.86 519.32 178.25 520.9 178.66 523 180.08 524.8 180.25 526.96 182.21 527.55 182.34 529.59 183.81 532.66 184.47 532.89 186.35 533.44 188.16 533.25 190.15 533.74 190.95 533.87 191.99 533.44 194.28 534.18 196.35 535.13 197.85 534.85 199.48 536.48 202.49 535.3 204.31 534.95 210.3 534.44 211.08 533.67 215.1 533.28 215.6 534.65 218.25 535.03 219.33 534.76 221.25 533.09 222.35 532.94 223.28 531.84 225.74 532.64 229.3 533.53 231.25 535.6 235.28 536.42 238.09 538.02 240.6 541.45 245.8 541.98 247.32 542.21 248.54 541.64 249.53 542.68 251.66 541.78 254.17 540.68 256.3 540.27 258.57 540.69 259.65 541.5 260.56 542.27 262.23 543.73 263.9 546.87 265.38 546.1 266.64 546.35 267.32 547.28 267.45 549.67 268.39 551.24 270.09 552.68 271.93 552.81 273.59 552.49 275.02 551.35 277.21 551.59 278.98 550.47 280.16 549.53 280.25 548.96 280.86 548.22 281.09 548.11 281.69 546.77 283.35 549.07 283.81 551.21 283.5 552.82 283.53 555.5 284.42 555.88 285.27 556.26 287.47 556.19 288.16 556.86 289.4 556.9 291.18 556.4 294.57 556.14 295.38 556.35 296.78 556.74 297.31 559.2 298.85 560.31 299.85 561.55 300.63 563.08 302.28 564.38 303.44 565.52 305.79 566.82 307.52 566.35 308.58 567.29 309.41 569.97 311.19 571.23 311.85 573.1 312.34 573.54 313.31 573.78 315.06 573.41 316.28 574.24 316.95 574.76 317.93 575.83 318.25 576.2 317.59 576.96 317.18 579.66 317.89 581.21 318.45 581.95 317.73 583.84 314.91 584.68 313.88 586.17 314.11 588.62 315.51 590.07 316.9 590.41 317.67 591.4 317.92 592.19 317.34 594.76 317.69 596.16 318.61 596.93 319.59 596.94 321.14 597.64 322.93 597.44 323.95 596.63 326.29 596.67 328.3 598.9 330.54 598.61 332.83 598.92 333.31 599.15 335.04 600.82 337.37 601.44 337.78 602.71 339.94 603.37 340.58 604.67 339.66 606.04 339.87 606.69 340.26 608.69 340.4 609.63 341.94 610.07 341.96 612.35 341.03 613.14 341.44 615.49 342.16 616.67 342.8 617.87 341.73 618.27 341.12 620.38 340.55 622.55 340.91 623.38 340.32 624.77 339.95 626.05 341.66 626.75 341.86 626.58 344.13 625.75 345.22 626.61 346.99 628.24 348.75 629.97 352.12 631.97 352.56 632.66 353.62 633.11 355.46 632.95 356.06 633.55 357.17 634.66 357.47 635.51 358.3 636.77 359.17 636.49 359.6 638.87 361.42 640.19 362.79 642.04 362.43 643.84 362.88 644.94 363.65 646.63 364.13 646.89 362.91 648.93 363.56 650.7 362.78 651.51 362.11 653.83 361.2 654.82 360.59 655.59 358.95 657.02 357.22 658.41 356.71 659.34 355.66 660.24 356.87 661.57 357.43 662.28 358.25 663.42 358.72 664.66 361.05 664.91 361.83 666.3 363.69 668 362.89 669.73 362.86 670.78 362.58 671.76 361.07 672.72 360.32 674.39 360 675.09 359.68 677.96 359.92 679.21 358.49 680.78 359.11 681.91 360.55 682.94 361.37 683.54 362.26 683.44 363.78 684.56 365.44 684.49 366.16 685.39 367.11 686.45 368.87 686.5 370.54 686.99 371.12 686.95 373.48 688.62 375.38 688.93 376.45 690.13 377.39 690.51 379.12 690.26 379.69 690.7 382.09 692.44 384.59 692.08 385.57 692.64 387.15 693.89 386.96 694.76 387.74 696.52 388.15 697.33 388.7 698.68 388.71 699.44 389.59 700.05 391.46 701.92 391.35 702.52 391.99 705.49 394.06 705.46 395.48 704.64 396.58 704.41 398.28 704 399.27 704.16 400.35 704 401.17 703.39 402.08 704.23 403.02 704.56 404.28 706.01 405.61 706.21 406.05 705.94 407.64 706.89 408.34 707.87 409.85 708.68 409.91 709.66 410.7 711.51 411.81 712.64 412.92 713.94 413.76 714.71 414.93 715.48 415.22 716.73 416.25 716.65 417.6 717.27 419.69 717.1 422.6 718.61 424.32 721.74 424.39 723.7 424.2 726.43 423.28 728.3 422.96 733.09 423.85 734.86 426.86 736.49 427.14 737.52 427.95 737.32 430.86 738.19 432.34 738.48 433.52 740.33 435.6 740.99 436.63 741.77 437.38 742.93 437.68 743.65 438.28 744.99 440.29 745.63 440.68 748.62 441.09 749.36 441.66 749.38 442.65 748.55 444.34 748.61 445.34 748.35 446.33 747.58 447.16 747.65 448.47 746.51 449.48 746.22 450.26 745.46 451.08 745.38 452.49 744.99 453.95 744.92 455.05 743.99 455.89 743.6 456.71 742.28 457.54 741.34 458.73 739.5 458.93 739.51 459.6 738.52 459.86 737.43 461.4 734.74 462.88 733.57 465.43 732.77 466.73 733.09 467.26 735.66 467.53 737.26 468.18 737.52 469.01 738.22 470.02 739.04 469.93 740.72 470.59 741.59 471.44 743.19 472.14 743.48 472.79 743.33 473.56 744.49 474.97 745.11 475.27 746.37 477.11 747.62 475.98 748.13 476.15 749.04 475.64 750.69 476.1 751.99 475.64 753.44 476.22 755.16 476.61 757.11 477.88 758.66 476.97 761.18 476.48 762 475.35 763.18 474.31 764.55 474.21 765.18 473.49 767.24 473.54 769.4 474.6 770.37 474.26 770.62 473.43 771.83 474.14 774.06 473.42 774.18 474 773.62 474.62 773.67 476.43 773.54 478.01 772.79 480.27 771.53 481.74 770.86 483.94 769.83 486.1 767.56 486.33 764.6 487.11 764.04 487.53 763.35 488.64 762.23 489.35 761.26 490.26 761.82 492.51 761.06 493.99 761.31 495.98 761.74 496.32 763.34 496.85 765.1 497.86 765.4 498.54 766.73 499.46 766.49 500.73 768.01 502.2 768.65 503.69 768.41 504.64 766.67 506.3 766.22 507.09 764.3 509.16 763.11 510.91 761.69 511.44 760.26 512.63 759.71 513.72 758.86 514.82 757.11 515.93 755.41 516.62 758.04 520.13 758.13 520.64 760.01 522.62 759.44 524.39 760.1 525.21 760.78 526.55 763.22 527.65 763.95 529.4 763.68 531.78 764.33 532.04 765.61 531.65 769.19 533.42 771.9 532.46 773.06 532.62 776.01 532.69 776.56 534.29 777.82 536.47 778.25 536.86 779.22 536.91 780.2 537.54 781.38 537.5 782.43 538.27 783.28 539.9 785.29 539.98 786.16 540.3 788.1 539.53 790.02 540.1 791.37 542.62 791.8 544.43 793.88 544.69 794.37 545.39 795.51 545.41 797.08 546.76 797.56 548.18 798.06 548.76 798.98 550.43 799 551.43 797.8 552.85 797.7 553.29 798.18 555.27 796.03 555.12 793.64 554.15 792.64 555.1 791.64 554.9 789.56 556.42 788.65 556.43 787.07 557.64 786.21 556.11 784.47 554 782.76 554.31 782.26 552.64 781.08 552.34 779.91 552.39 778.2 551.31 776.4 550.58 775.77 547.91 774.53 545.93 773.63 546.77 770.62 546.66 768.76 547.16 765.79 546.83 763.85 547.12 761.96 546.72 759.47 546.59 757.35 546.18 756.08 544.9 754.59 544.83 753.26 545.28 751.85 545.44 747.83 544.49 746.5 544.48 744.85 544.82 743.2 544.72 742.95 543.5 740.92 543.44 738.77 544.92 736.44 544.61 734.86 543.15 734.05 542.57 731.03 543.46 729.59 544.12 728.16 543.96 726.48 544.68 725.08 544.67 723.79 545.22 722.57 545.39 723.43 548.48 722.22 550.23 720.16 551.74 718.85 552.07 717.1 552.09 715.92 551.92 715.26 552.55 712.56 553.34 711.23 553.42 710.45 553.16 709.37 553.36 707.67 551.48 705.57 551.06 703.85 551.24 702.86 551.79 700.48 551.08 697.84 551.11 693.26 550.94 692.52 554.14 691.68 555.15 691.06 557.78 689.67 561.26 689.31 562.82 688.73 563.52 687.63 565.54 685.92 567.4 684.25 569.91 682.68 571.68 681.32 574.25 680.66 576.12 679.48 578.64 679.17 579.81 679.35 585.08 679.66 588.27 680.21 591.36 681.27 596.19 681.91 597 682.02 598.69 677.85 604.12 676.63 605.46 676.77 606.9 676.4 607.7 675.05 609.48 672.7 609.86 671.13 611.03 670.1 612.9 669.09 613.83 667.98 614.19 665.53 617.01 664.38 617.7 663.38 618.67 661.83 619.08 660.19 618.55 658.38 616.89 656.74 615.64 652.14 613.32 650.7 612.34 649.04 610.17 646.9 611.32 644.24 611.28 642.83 612.31 640.84 613.19 638.95 613.2 636.63 614.22 633.13 615.46 630.99 615.43 630.12 616.32 626.77 616.53 625.53 616.89 624.35 616.93 623.16 618.04 621.87 618.1 621.09 619.78 620.13 620.4 619.66 621.99 616.42 621.16 614.59 621.86 612.82 621.25 611.69 623.82 610.05 626.65 609.61 629.27 608.26 630.61 606.77 631.63 605.94 631.84 604.3 631.69 603.05 632.55 601.75 632.42 600.46 632.98 598.82 632.72 598.4 633.08 597 633.34 595.68 634.44 594.07 638.4 593 642.51 592.74 644.33 592.05 644.69 590.57 646.94 589.91 648.46 588.79 649.33 587.52 650.64 586.3 650.68 585.13 650.42 583.86 650.92 583.42 652.85 581.07 654.86 580.54 655.77 579.77 656.37 579.43 657.4 578.38 657.91 577.34 658.76 577.13 660.73 577.33 661.77 575.87 662.5 573.71 661.46 572.56 661.79 569.26 660.37 566.44 660.02 566.02 660.7 565.28 659.9 562.56 660.67 559.1 658.76 558.34 661.66 557.38 663.9 557.73 665.79 556.85 666.61 556.19 667.96 555.62 670.4 556.58 671.9 556.72 675.5 557.16 676.58 558.2 678.1 558.96 679.58 559.42 681.11 559.09 684.45 557.98 685.48 558.18 686.74 557.75 689.08 554.96 691.35 555.06 692.83 554.23 694.48 554.04 695.4 553.19 696.21 551.77 695.72 549.53 696.29 548.73 696.71 547.71 696.88 546.47 695.72 544.72 695.94 544.02 696.21 543.04 697.29 541.22 696.47 539.82 696.83 537.94 696.94 535.73 697.51 534.94 699.84 535.39 701.42 534.66 703.17 534.83 703.93 534.88 706.11 534.14 707.27 534.42 708.99 534.76 709.93 534.61 711.64 535.12 712.13 534.83 715.75 535.2 716.3 534.58 717.56 534.29 719.11 534.59 721.86 533.7 722.54 533.08 725.5 533.09 727.29 533.82 728.86 533.3 729.7 533.26 730.89 532.96 732.18 533.29 733.36 532.89 734.98 533.02 736.47 532.71 737.47 533.06 738.75 532.91 739.25 533.57 740.53 532.15 742.94 530.03 740.3 529.01 740.24 528.7 741.41 527.71 746.43 524.47 750.5 523.6 751.26 521.89 751.6 519.23 752.77 514.99 753.25 506.26 756.24 504.73 756.52 502.1 758.37 498.37 760.45 496.38 761.27 492.48 762.53 490.03 762.68 487.58 762.65 486.41 759.31 484.71 756.7 482.73 754.78 480.69 754.23 479.4 754.56 478.05 754.12 478.33 753.39 476.63 750.16 475.64 749.3 471.33 748.22 471.21 746.97 470.38 746.1 470.26 745.29 469.74 744.99 467.03 746.02 463.51 743.62 462.35 743.03 461.31 742.94 459.25 742.41 458.17 742.44 456.68 742.93 455.27 742.78 454.17 743.26 452.27 743.24 448.2 744.46 446.41 745.46 444.83 745.71 443.73 745.47 443.03 744.41 442.16 743.56 441.99 740.91 441.42 738.68 439.67 739.19 437.69 738.81 436.06 739.69 434.75 741.48 434.32 744.84 434.62 746.33 432.94 746.65 432.99 747.34 432.33 749.01 431.5 748.07 429.79 748.27 429.35 750.49 428.47 750.89 427.27 754.53 426.26 755.57 424.3 756.45 423.27 757.1 423.17 757.87 424.12 759.69 423.83 760.5 422.96 761.17 421.35 764.72 421.19 765.42 419.99 766.46 420.51 768.73 419.62 769.82 421.22 772.71 420.4 774.73 420.28 775.74 420.7 776.69 420.73 777.87 419.88 779.13 420.11 779.8 419.84 780.84 419.05 782.06 418.72 783.57 419.13 785.75 419.04 787.52 418.5 788.88 418.38 790.07 419.22 791.01 419.03 792.79 419.6 795.61 418.44 796.67 417.99 799.17 417.91 800.44 418.38 800.88 417.22 802.03 416.76 803.57 415.41 804.72 414.67 804.9 412.7 804.43 411.5 805.87 410.54 806.56 409.58 806.91 406.6 805.91 402.95 803.46 402.6 801.89 402.04 800.91 400.21 799.78 399.45 799.5 398.16 798.07 397.72 796.01 397.05 796.31 395.64 795.8 394.07 796.42 392.16 797.96 390.62 798.84 389.51 799.23 388.65 799.15 388.05 798.67 386.3 799.77 384.83 799.25 384.3 796.52 383.79 796.74 382.78 799.1 381.69 799.43 381 798.26 380.63 796.42 380.11 795.91 380.87 795.13 380.69 790.64 380.17 787.53 380.66 783.45 376.1 772.93 376.57 771.09 378.57 767.34 379.12 764.43 379.52 762.86 381.35 757.59 382.5 754.64 384.95 747.03 385.8 743.84 385.73 743.6 383.6 743.84 383.74 742.12 382.14 742.59 379.97 742.62 378.97 742.99 377.58 743.89 375.82 743.85 374.25 744.82 373.43 746.13 371.49 745.18 369.51 743.55 366.73 743.16 365.44 743.81 363.94 743.24 362.1 741.92 359.56 742.12 356.15 742.2 353.22 741.91 350.85 742.77 350.71 742.03 351.17 739.34 351.14 736.58 351.35 735.89 352.53 734.14 352.81 731.97 353.26 729.77 352.75 728.45 351.65 727.35 349.91 726.52 348.48 725.08 346.69 724.63 345.17 723.56 342.79 723.03 340.73 722.08 339.77 722.36 338.16 723.4 335.94 724.22 333.28 725.5 332.52 728.16 331.4 731.24 330.94 734.01 330.07 735.75 328.83 735.8 325.95 736.44 325.36 737.02 324.18 738.81 323.62 739.2 323.58 740.3 322.55 743.01 317.84 747.65 317.87 749.54 318.42 750.89 317.46 752.79 320.21 756.11 319.38 758.03 319.85 762.34 316.46 765.66 316.22 767.25 314.86 769.2 313.87 769.75 312.48 770.89 311.11 771.71 311.03 773.57 309.73 773.94 308.72 775.11 307.81 775.76 306.76 777.17 306.11 777.48 302.6 778.34 300.14 778.46 298.66 780.91 297.27 782.45 296.97 783.33 297.42 783.96 296.46 784.69 296.34 785.45 296.63 787.69 297.26 788.12 297.31 789.18 296.81 791.1 295.57 794.65 292.89 796.56 289.84 795.15 288.68 794.86 287.18 794.14 283.27 793.52 282.39 792.95 281.3 792.6 279.5 792.38 278.05 792.01 277.17 792.88 276.74 794.33 275.28 795.97 275.11 797.71 273.46 800.01 272.53 801.61 271.56 800.96 271.08 801.11 270.15 802.18 267.73 803.64 264.87 804.27 264.3 806.52 261.77 808.44 260.66 808.49 257.54 809.36 256.19 809.12 255.23 809.56 253.98 809.64 252.41 808.55 249.26 809.02 247.68 808.87 245.58 809.5 243.33 809.91 240.33 810.31 238.78 810.12 236.96 810.95 236.04 811.82 234.52 811.61 231.24 811.66 229.54 811.81 227.74 811.72 224.12 812.75 222.59 813.47 220.03 813.06 218.5 813.63 217.03 813.9 215.47 814.51 214.51 815.64 212.92 816.05 211.33 816.19 208.57 815.14 205.81 815.36 202.63 814.65 200.33 813.07 199.69 813.58 198.42 813.99 197.02 814.12 195.29 814.64 193.37 813.32 191.66 812.82 189.31 813.69 186.11 813.95 183.17 813.12 179.8 812.63 178.5 814.09 178.31 817 174.93 815.73 168.99 815.95 167.36 816.07 166.46 815.07 162.49 811.68 160.62 808.08 157.28 807.77 155.42 807.03 152.78 807.35 150.83 804.93 148.52 800.65 147.37 797.84 143.44 796.38 139.13 796.26 137.6 795.58 137.3 793.56 132.94 788.87 130.35 787.55 128.99 784.39 126.31 781.69 123.56 776.71 123.63 774.74 125 771.57 121.33 767.66 118.37 757.14 119.28 754.01 117.19 750.62 116.03 748.1 113.59 745.92 110.19 743.81 105.77 739.56 94.72 734.53 92.61 734.29 87.72 736.02 85.05 735.39 83.78 733.75 81.28 732.1 78.9 731.41 76.94 731.24 73.91 730.08 72.38 728.4 69.48 727.32 63.26 726.12 57.97 725.54 55.43 724.59 54.27 723.48 53.83 722.54 51.72 721.44 44.6 718.37 40.22 716.91 37.2 715.56 34.97 714.74 33.31 713.52 31.15 706 29.17 701.03 29.15 698.79 28.28 697.31 26.96 695.97 24.74 690.99 22.84 689.94 17.82 686.98 15.97 685.83 14.8 684.28 11.54 677 10.15 675.21 7.2 673.01 5.8 671.08 5.73 669.53 9.02 664.25 10.3 661.49 7.96 658.42 3.98 651.24 3.24 650.02 2.43 647.03 4.21 642.78 3.15 638.88 3.29 635.33 1.78 628.08 2.58 625 2.77 620.25 2.6 617.06 1.98 614.48 1 611.7 1.53 608.7 2.43 605.31 2.3 602.8 1.85 599.49 2.06 593.85 2.53 590.25 2.48 589.79 5.31 591.71 8.03 591.92 11.73 590.51 14.04 590.95 18.2 593.49 21.42 596.89 22.67 597.53 24.62 596.79 29.91 592.11 31.94 589.91 35.33 586.94 35.81 583.37 36.66 578.73 37.65 575.06 40 571.95 42.58 570.4 44.01 568.58 47.67 567.08 48.35 566.37 52.59 560.69 57.76 554.83 60.18 553.23 61.9 552.72 62.74 552.21 65.77 552.48 68.12 552.18 75.92 550.12 80.43 548.86 81.53 547.57 81.77 544.27 82.73 541.42 85.32 537.51 88.22 528 88.67 525.51 88.19 521.48 88.51 516.66 86.6 512.73 84.71 508.56 84.31 507.07 84.62 505.35 86.99 501.47 86.49 496.34 86.49 493.42 89.88 490.29 93.08 487.6 95.17 485.05 95.63 483.11 95.3 478.34 94.73 475.99 93.87 470.84 94.69 467.75 96.32 465.8 102.47 461.04 105.73 459.88 108.48 458.46 110.35 456.12 112.26 454.14 113.44 452.35 114.55 449.18 115.63 447.01 117.25 445.02 120.57 442.9 120.56 440.03 119.71 437.88 117.59 434.66 115.91 430.75 115.06 427.29 114.24 425.39 114.13 421.05 112.55 416.06 112.05 413.89 112.49 411.21 114.17 409.46 117.05 408.42 121.5 405.31 123.43 404.19 126.79 402.65 129.61 400.43 131.24 398.47 132.96 395.77 133.42 393.84 134.01 392.19 134.14 389.96 134.05 387.55 133.55 385.41 133.23 382.67 133.14 379.97 132.41 375.56 132.07 372.52 132.6 369.75 134.59 368.36 136.65 367.52 139.01 365.65 138.7 364.73 139.26 363.19 139.89 362.37 140.98 362.69 142.68 361.86 143.35 361.82 143.95 360.89 147.14 359.82 148.16 359.24 150.06 359.05 150.48 358.51 152.39 357.24 152.41 355.22 152.76 354.71 152.26 352.8 150.87 352.33 150.02 351.35 149.96 350 150.17 348.72 149.97 346.25 150.3 344.62 151.79 343.5 153.91 342.37 154.98 341.33 155.87 339.67 157.54 338.73 158.83 337.78 160.2 335.81 161.32 335.04 161.7 334.02 162.66 333.1 163.62 331.5 165.76 329.94 167.81 327.66 168.87 326.94 170.33 326.4 170.96 325.95 170.65 325.32 169.23 323.51 166.91 321.38 165.95 320.36 164.88 318.81 164.51 317.13 163.75 315.6 163.05 314.59 161.52 313.7 160.11 313.82 157.21 313.69 157.38 310.58 157.29 309.47 157.43 305.27 158.18 302.36 159.58 300.68 161.33 299.11 163.27 298.19 165.63 297.41 169.15 297.57 171.86 298.22 175.92 299.86 177.56 300.81 179.82 302.37 181.57 303.17 183.25 303.06 185.03 302.22 186.19 301.37 187.27 300.32 188.09 299.15 188.28 298.07 188.52 294.14 188.45 290.87 188.15 285.99 186.19 284.34 184.48 282.5 182.09 280.59 178.74 277.53 177.22 275.95 175.92 275.29 174.82 273.95 174.31 272.2 174.81 269.47 175.92 267.77 179.31 265.96 181.33 264.54 185.25 261.24 186.67 260.38 189.8 258.86 192.21 257.79 195.01 256.2 196.47 255.21 200.08 253.02 202.27 251.98 205.52 250.95 206.74 250.43 208.21 249.34 210.19 249.45 213.04 248.72 218.01 248.07 219.16 247.79 223.83 247.28 227.29 247.2 229.17 246.78 230.62 246.18 232.33 244.79 233.72 242.9 234.53 240.49 233.72 238.39 232.56 236.57 231.05 234.77 228.52 232.27 227.29 231.38 226.04 230.05 222.78 227.1 221.67 225.65 223.32 220.05 225.03 215.07 219.72 211.91 217.17 208.6 217.23 207.69 217.27 200.36 217.18 200.01 217.91 197.41 218.53 195.79 221.76 197.02 223.02 196.45 224.68 196.14 225.99 196.13 227.28 195.52 228.04 195.74 228.62 196.64 229.3 197.04 231.03 197.53 232.45 197.57 234.35 196.47 234.94 196.77 235.64 196.45 237.52 196.92 238.08 195.46 238.01 194.77 239.33 193.87 239.46 192.48 241.09 190.12 241.23 189.6 243.31 187.49 244.53 185.16 245.13 184.51 245.13 182.1 245.31 179.57 245.96 178.25 247.8 177.03 248.48 176.92 249.44 176.14 249.52 173.37 249.26 172.5 249.73 171.76 248.98 170.7 249.43 168.36 249.22 167.64 249.5 165.93 249.01 164.49 248.7 162.68 248.69 161.28 249.57 160.34 248.87 157.78 248.42 156.74 246.01 156.52 244.83 154.59 244.56 153.43 245.12 151.7 245.94 150.27 245.85 149.2 245.4 148.31 245.37 146.12 246.47 145.21 246.46 144.7 247.88 142.93 248.32 142.85 248.77 141.32 249.47 140.76 249.94 139.77 249.82 137.88 250.08 137.53 248.71 135.5 247.58 134.38 247.47 133.71 246.6 133.06 246.17 132.3 244.69 132.7 243.69 132.06 243.15 132.25 241.87 130.71 239.46 128.9 238.66 127.96 238.6 126.48 237.59 126.7 236.33 126.2 236.16 125.67 236.8 124.84 237.09 123.29 238.2 121.23 238.27 120.2 237.96 119.7 237.92 117.56 238.38 116.82 239.74 116.3 240.52 114.71 242.31 115.49 243.87 115.22 245.15 114.11 245.72 112.54 247.25 112.63 247.61 112.25 248.93 111.83 249.72 110.58 250.92 109.45 251.66 109 252.43 107.84 252.5 107.09 253.35 106.24 253.43 105.13 253.85 104.65 253.66 103.55 253.87 102.72 254.77 103.02 256.4 102.14 256.94 100.9 256.81 100.16 257.37 98.67 258.11 98.4 259.57 96.73 260.73 95.16 260.81 94.19 261.91 92.88 261.56 91.57 262.57 91.33 263 90.54 263.73 90.13 265.14 88.67 265.83 85.78 265.86 84.45 266.41 84.27 266.97 83.13 268.2 83.02 270.97 80.27 271.22 79.41 272.79 78.35 273.31 77.28 275.06 76.51 275.66 74.91 278.19 73.87 279.46 72.79 280.57 71.3 281.44 70.79 282.76 68.53 282.97 67.7 282.87 66.4 283.44 64.6 283.53 62.67 284.65 62.25 286.47 60.38 287.06 59.01 286.93 58.47 287.37 57.1 288.9 55.86 289.27 53.84 290.57 52.26 292.22 51.32 292.19 50.26 292.63 49.19 292.66 47.02 293.1 46.19 294.49 45.04 294.96 42.8 297.47 41.51 298.98 41.26 301.27 39.41 302.95 37.13 303.28 36.87 303.33 35.62 303.72 34.96 302.87 33.91 303.2 33.03 304.22 31.49 304.91 29.5 305.11 28.41 306.09 27.11 306.17 25.02 306.74 24.03 308.47 22.23 309.16 20.81 309.34 18.93 310.54 17.35 310.75 16.63 311.07 16.95 312.22 16.72 313.81 15.83 314.89 15.45 315.91 14.09 314.54 12.8 314.84 12.12 315.58 12.04 317.46 11.14 317.97 10.19 318.83 7.91 318.68 7.39 319.9 6.27 320.11 5.29 321.03 3.76 321.46 3.74 323.24 1.92 324.86 1 325.47 1.03 326.93 2.39 328.61 3.53 329.85 3.59 331.47 4.04 332.6 4.03 334.29 3.71 335.48 2.72 336.45 2.19 337.56 2.46 338.38 5.38 337.75 8.62 338.04 9.28 338.56 11.82 339.94 12.92 339.69 13.72 340.57 14.97 341.97 15.9 342.83 17.12 342.99 18.26 343.99 19.34 344.23 20.55 345.1 21.36 345.06 25.46 343.52 27.29 342.36 29.27 342.5 29.54 341.48 30.55 341.27 32.28 339.16 34.86 337.03 36.82 335.07 39.06 335.22 40.23 336.74 40.88 336.08 42.54 336.21 44.02 336.53 45.02 336.53 46.1 337.13 48.3 338.47 49.22 338.64 51.66 339.6 52.41 340.48 54.38 340.19 55.59 343.81 56.69 347.12 58.01 348.89 58.51 350.36 59.56 349.96 62.94 349 66.73 348.6 67.47 348.76 69.86 347.93 71.02 348.9 73.79 349.15 74.93 348.21 77.33 347.31 78.01 346.65 79.46 347.28 80.79 347.46 83.28 347.04 84.4 345.2 87.15 346.62 88.45 349.5 91.36 349.97 91.56 350.13 92.42 351.07 93.52 350.71 93.97 350.93 96.5 350.61 98.63 351.35 98.61 353.6 100.44 356.59 102.61 355.75 103.56 354.74 105.69 354.21 106.47 353.27 109.33 352.28 110.48 352.25 111.05 353.69 111.7 355.08 112.63 357.07 113.07 359.28 111.2 360.2 110.09 361.08 108.08 362.13 106.58 365.92 104.27 367.67 104.33 369.63 102.83 370.95 103.28 371.75 103.3 373.56 103.98 374.04 104.74 374.91 104.16 378.49 104.69 379.99 104.57 381.53 105.55 382.37 104.84 383.51 104.25 384.36 103.12 385.22 102.51 386.24 101.11 387.46 100.35 389.16 97.65 390.07 97.32 391.53 96.19 392.25 96.21 393.55 95.23 395.28 94.45 396.34 94.41 398.32 96.02 400.06 96.64 400.57 96.48 401.98 97.8 402.24 98.88 403.68 98.81 405.17 99.75 406.32 102.38 407.39 102.79 408.4 103.79 408.78 105.78 408.33 107.21 408.97 107.96 409.13 108.65 411.01 109.15 412.64 111.1 413.67 111.33 414.14 111.78 415.91 112.52 416.71 113.82 417.55 115.56 418.56 115.72 421.08 115.53 422.85 116.25 424.34 116.5 425.16 115.84 426.86 116.51 428 116.48 429.04 117.19 430.42 118.78 431.57 119.61 432.63 119.87 432.82 122.24 432.36 123.7 432.44 124.9 431.07 126.39 430.26 128.35 431.57 130.6 431.61 131.14 433.94 133.5 436.31 134.16 437.03 134.67 437.96 134.86 438.45 136.44 440.34 138.8 442.42 137.5 443.18 137.71 444.12 138.5 445.79 137.26 448.53 137.16 449.2 137.52 450.47 137.52 451.62 137.77 452.84 138.48 454.92 137.26 457.47 138.09 459.09 139.89 461.11 139.03 462.64 139.45 463.39 139.93 465.92 140.14 467 140.71 468.63 140.37 470 140.61 472.08 138.19 473.02 137.25 472.97 136.72 473.76 134.89 474.43 134.86 475.49 134.33 476.07 132.87 476.56 132.67 477.5 130.99 478.74 130.21 479.19 128.85 479.73 129.39 481.91 129.13 482.32 128.71 483.2 128.85 484.38 128.14 486.14 128.53 487.7 129.54 489.36 129.09 490.25 128.6 491.72 129.36 495.69 129.69 496.5 130.92 497.21 131.2 498.95 132.36 500.79 132.09 504.33 132.05 Z" id="38570000"/>
</g>
</svg>