<?xml version="1.0"?>
<svg xmlns="http://www.w3.org/2000/svg" version="1.2" baseProfile="tiny" width="800" height="1525" viewBox="0 0 800 1525" stroke-linecap="round" stroke-linejoin="round">
<g id="sigung">
<path d="M 742.32 672.41 742.01 673.47 740.26 675.78 739.99 678.54 738.99 680.62 736.45 683.25 735.61 684.7 735.49 687.77 734.06 689.68 733.76 691.27 732.74 694.19 731.25 696.45 730.77 697.73 732.02 699.27 731.45 700.25 731.37 702.08 730.89 702.46 728.43 705.8 725.07 708.51 722.85 708.88 719.17 710.78 718.48 714.05 716.44 715.74 715.8 716.96 715.75 720.13 715.11 721.71 715.16 723.27 712.73 724.64 710.83 726.95 710.29 729.91 708.04 731.74 707.4 733.74 707.58 734.54 706.72 736.55 704.05 739.28 702.42 739.9 702.28 742.74 701.45 745.36 701.6 747.28 701.28 748.49 699.34 751.81 698.08 752.55 696.45 754.74 694.59 756.32 690.87 757.85 690 760.19 687.43 761.32 686.67 762.88 684.37 764.44 684.01 765.7 679.93 769.73 678.13 769.89 677.32 771.57 676.51 771.84 676.46 773.78 675.45 778.02 673.39 780.16 672.32 780.75 671.68 781.91 670.2 782.27 670.72 784.18 669.11 786.11 668.99 787.52 667.28 789.83 665.15 792.29 664.06 792.68 663.24 794.87 663.44 795.94 662.64 797.76 660.25 799.05 658.94 798.61 658.62 799.83 658.9 801.44 658.28 802.15 658.16 803.77 656.92 805.02 656.82 806.12 655.69 807.83 654.6 808.48 652.84 810.14 651.68 811.97 649.75 812.58 649.23 813.14 646.99 813.01 646.14 815.31 644.28 816.94 641.99 817.33 639.36 816.2 638.22 818.52 636.22 819.29 635.55 820.37 635.61 823.51 636.06 824.24 635.95 825.75 634.33 828.78 633.9 831.04 632.97 832.26 633.22 833.03 635.07 833.77 636.55 833.45 636.64 835.62 637.81 836.99 641.33 839.65 643.22 841.91 644 841.62 645.47 842.57 647.64 841.97 648.27 843.09 649.55 844.04 649.71 845.02 651.36 846.66 653.38 849.64 652.99 850.16 653.17 852.93 652.48 854.38 651.46 855.2 650.79 857.44 650.15 857.57 648.07 860.16 648.08 860.91 646.47 862.23 646.52 865.45 647.18 866.75 647.31 868.32 646.1 870.42 645.28 872.96 645.68 874.65 647.41 877.48 650.94 877.8 651.6 879.33 652.62 883.09 651.34 884.47 651.35 886.51 651.81 889.17 652.53 891.28 652.12 893.79 652.43 894.84 651.77 898.27 652.86 899.83 652.17 900.91 652.55 902.18 652.44 906.24 651.03 907.39 650.04 907.56 647.34 909.34 646.39 911.27 646.11 914.99 646.12 918.52 645.23 919.48 643.45 922.89 640.4 925.98 640.19 926.74 637.8 930.21 637.62 932.23 635.68 933.55 635.78 934.56 634.96 936.71 632.2 936.02 631.17 936.48 630.31 936.06 627.53 937.67 625.44 937.6 622.9 936.89 621.91 936.3 621.06 934.98 619.95 934.66 618.06 935.56 616.14 935.56 613.7 936.02 611.85 936.85 607.12 935.05 606.2 937.42 605.14 941.24 605.26 941.76 605.21 952.5 605.12 953.84 608.86 958.69 616.65 963.32 614.15 970.63 611.73 978.82 613.35 980.96 618.13 985.28 619.96 987.23 621.77 988.53 625.47 992.2 627.69 994.84 629.39 997.5 630.58 1000.59 629.4 1004.12 627.34 1006.89 624.84 1008.93 622.72 1009.81 619.96 1010.42 614.89 1010.54 608.04 1011.28 606.35 1011.7 599.07 1012.65 594.9 1013.71 591.99 1013.56 589.84 1015.15 588.05 1015.92 583.28 1017.42 580.07 1018.95 574.77 1022.16 572.64 1023.61 568.53 1025.94 564.99 1027.51 560.41 1029.74 558.32 1031.01 552.58 1035.84 549.62 1037.93 544.64 1040.57 543.02 1043.06 542.29 1047.08 543.03 1049.64 544.64 1051.6 546.55 1052.57 548.79 1054.88 553.69 1059.37 557.2 1062.17 559.71 1064.87 562.59 1067.28 563.01 1074.44 563.13 1079.23 562.78 1085 562.49 1086.58 561.28 1088.29 559.71 1089.84 558 1091.08 555.4 1092.31 552.93 1092.47 550.37 1091.3 547.05 1089.01 544.64 1087.62 538.69 1085.21 534.73 1084.26 529.57 1084.02 526.11 1085.17 523.25 1086.52 520.69 1088.82 518.64 1091.29 517.53 1095.55 517.33 1101.71 517.47 1103.34 517.22 1107.89 521.47 1108.08 523.54 1107.91 525.78 1109.21 526.81 1110.69 527.92 1112.94 528.46 1115.39 530.02 1117.67 531.44 1119.17 534.85 1122.3 536.92 1124.95 537.38 1125.86 536.45 1126.52 534.32 1127.32 532.75 1128.38 529.75 1131.72 526.62 1134 525.21 1136.35 523.8 1137.7 523.25 1139.2 521.61 1140.32 519.59 1143.2 517.7 1144.6 515.26 1145.98 513.94 1148.42 512.38 1149.93 509.27 1151.59 507.09 1153.24 506.61 1155.63 506.89 1159.25 506.58 1161.13 506.68 1163.11 507.92 1164.54 509.96 1165.23 510.7 1168.03 510.19 1168.78 510.15 1171.74 507.36 1173.6 506.74 1174.39 503.95 1174.67 502.45 1175.52 497.78 1177.09 496.9 1178.45 495.91 1178.51 493.43 1179.73 491.83 1179.26 490.91 1180.46 490.08 1182.72 490.53 1184.06 487.07 1186.8 484.05 1188.03 481.13 1190.08 480.36 1194.14 480.86 1198.6 481.92 1205.06 482.06 1209.02 482.53 1213.03 483.26 1216.17 483.39 1219.7 483.21 1222.97 482.34 1225.39 481.67 1228.22 479.14 1232.18 476.76 1235.05 472.62 1238.31 467.7 1240.57 464.87 1242.2 458.35 1246.76 454.12 1248.29 451.65 1250.86 451 1254.79 451.74 1257.96 454.05 1265.29 454.22 1271.64 455.42 1274.42 456.67 1279.5 459.13 1285.24 462.23 1289.95 463.49 1293.11 463.5 1297.32 458.63 1300.42 456.26 1303.34 454.68 1306.52 453.05 1311.17 451.32 1313.8 448.52 1316.69 445.77 1320.12 441.74 1322.2 436.96 1323.9 427.94 1330.89 425.56 1333.75 424.36 1338.27 425.61 1345.82 426.45 1349.27 426.93 1356.26 426.26 1359.1 423.19 1362.84 418.51 1366.78 413.54 1371.38 413.53 1375.66 414.27 1383.18 410.79 1388.87 410.34 1391.39 410.93 1393.57 413.7 1399.69 416.5 1405.45 416.02 1412.52 416.73 1418.42 416.07 1422.07 411.82 1436.01 408.03 1441.75 406.62 1445.93 406.26 1450.76 404.65 1452.65 398.05 1454.49 386.6 1457.52 383.15 1457.96 378.72 1457.57 377.49 1458.31 374.96 1459.06 371.41 1461.4 363.83 1470 357.61 1478.32 356.62 1479.36 351.26 1481.57 349.15 1484.23 345.38 1486.5 341.93 1491.06 340.47 1496.44 339.23 1503.25 338.52 1508.47 333.56 1512.83 330.59 1516.06 322.83 1522.92 319.97 1524 318.13 1523.06 313.42 1518.08 307.31 1514.36 303.94 1513.72 298.51 1515.78 294.51 1515.47 290.36 1512.65 281.73 1504.18 276.97 1501.23 273.62 1500.95 264.82 1505.19 260.5 1505.83 255.31 1504.89 247.96 1502.63 236.55 1506.11 233.1 1508.19 228.27 1509.33 224.29 1508.33 220.79 1506.25 216.69 1500.61 213.7 1491.21 209.29 1484.13 206.37 1481.21 201.42 1482.94 194.11 1483.18 189.1 1483.73 182.09 1486.16 175.56 1488.83 174.19 1489.59 165.12 1490.8 164.88 1490.54 160.08 1494.95 157.09 1495.54 144.35 1489.76 133.11 1488.77 127.9 1486.29 122.31 1482.31 117.34 1480.43 111.43 1473.53 109.6 1472.14 103.66 1469.24 103.54 1465.16 104.1 1461.41 105.93 1456.94 108.65 1451.99 108.94 1445.88 110.56 1437.08 108.48 1430.94 104.2 1425.22 102.96 1420.12 97.07 1415.44 93.69 1413.95 89.87 1411.11 87.35 1404.83 85.83 1398.07 82.61 1394.68 79.89 1391.51 78.47 1387.49 78.38 1383.95 77.1 1380.04 78.22 1372.81 76 1363.95 74.1 1357.88 75.61 1354.41 80.78 1347.77 83.37 1346.36 88.91 1345.43 92.99 1342.76 101.16 1339.15 104.33 1336.61 107.91 1332.46 112.51 1326.51 116.19 1320.86 114.47 1308.24 113.98 1305.98 113.95 1302.57 114.57 1298.97 115.02 1294.81 116.95 1289.96 120.54 1283.43 125.83 1278.07 128.36 1274.28 132.68 1269.32 134.56 1265.01 134.54 1262.76 135.38 1259.94 138.85 1256.44 140.71 1253.88 141.36 1253.34 143.25 1249 144.95 1246.14 145.95 1245.46 146.78 1241.54 146.5 1239.98 149.63 1238.65 154.34 1239.09 158.46 1238.64 159.79 1238.01 161.55 1237.8 164.34 1238 170.11 1234.72 172.55 1234.38 178.04 1224.05 180.55 1221.24 183.94 1220.69 188.02 1211.84 188.86 1210.38 191.7 1207.82 194.03 1204.93 197.17 1202.14 200.74 1196.55 210.68 1194.77 211.81 1191.34 212.99 1184.92 213.16 1182.69 215.34 1177.16 218.05 1172.31 217.45 1170.74 218.25 1167.64 218.32 1165.75 219.04 1163.64 218 1160.37 219.94 1157.15 218.84 1155.32 220.97 1153.48 224.89 1151.23 224.85 1148.44 225.07 1146.74 224.69 1145.08 224.48 1141.55 225.21 1139.73 225.13 1137.64 225.8 1135.47 225.59 1132.59 225.87 1130.87 224.75 1130.19 223.58 1127.93 223.81 1125.93 223.07 1123.74 225.16 1119.53 227.72 1117.74 229.28 1115.36 235.36 1112.73 238.04 1110.36 239.45 1105.9 240.59 1101.3 242.11 1100.44 243.08 1098.62 244.19 1097.96 246.53 1093.3 247.17 1089.9 243.56 1082.99 237.19 1079.92 233.17 1078.96 231.52 1079.35 229.89 1078.78 228.44 1079.4 225.54 1079.94 220.36 1082.63 216.9 1083.32 214.32 1084.05 211.81 1084.04 209.4 1082.42 204.83 1080.54 202.73 1080.36 200.24 1078.64 198.41 1076.72 196.17 1075.77 194.7 1073.34 192.59 1072.16 190.47 1070.67 187.16 1071.54 184.33 1070.99 180.74 1070.6 178.81 1071.64 174.45 1073 173.14 1074.34 172.12 1076.26 169.86 1078.01 168.09 1079.03 166.05 1076.21 162.33 1068.93 160.76 1066.27 153.02 1057.27 149.39 1050.89 146.71 1048.05 144.62 1044.99 144.26 1041.53 142.71 1038.64 141.79 1035.34 141.85 1033.12 143.28 1030.58 143.39 1028.03 143.06 1025.29 145.11 1022.75 144.53 1019.67 144.96 1019.2 142.48 1016.43 141.81 1013.37 143.76 1011.68 145.13 1009.72 147.68 1007.96 146.92 1006.68 147.18 1005.34 146.96 1002.8 146.5 1002.07 146.77 998.58 147.34 995.1 146 989.9 143.89 983.4 144 981.94 145.48 979.77 146.12 978.38 149 978.04 155.96 975.17 158.84 972.23 162.57 970.06 166.31 969.3 169.61 966.26 171.52 964.13 173.05 964.01 175.09 961.26 177.47 960.58 179.38 959.12 181.98 956.52 184.74 955.35 187.2 954.94 188.92 952.69 186.87 950.42 185.26 949.02 182.41 945.54 181.45 942.21 181.05 939.63 180.32 937.83 180.71 936.89 182.03 935.49 182.85 933.38 182.16 930.18 181.13 926.56 180.97 923.68 181.57 921.08 181.11 917.22 181.24 915.85 172.2 915.51 171.26 915.83 169.73 914.89 168.81 914.86 167.27 913.03 164.61 912.22 164.22 911.4 164.2 908.62 163.76 907.13 163.15 906.57 162.95 904.48 161.73 903.8 161.32 902.28 160.28 900.58 160.45 899.28 159.71 896.99 158.24 895.71 157.66 892.01 155.64 890.69 153.86 888.26 151.8 886.01 151.07 883.78 148.47 882.78 145.94 882.05 144.41 878.8 143.67 873.77 142.42 872.6 142.43 869.84 140.69 868.5 138.37 868.21 136.9 868.84 135.82 865.76 135.14 864.75 135.19 861.75 133.5 858.08 135.31 855.64 136.85 853.11 137.61 852.64 136.74 850.09 136.83 847.82 137.18 846.4 137.96 845.56 136.9 843.84 137.12 841.51 136.6 840.7 127.98 840.74 124.63 837.66 122.32 834.51 120.61 828.98 119.82 828.67 117.17 828.54 115.03 827.25 113.4 825.07 112.87 822.91 111.77 820.76 111.25 819.14 112.72 817.22 112.24 816.61 112.12 814.65 112.93 811.19 112.03 804.26 113.72 801.03 118.09 799.59 121.48 796.45 121.42 793.1 121.77 790.38 121.12 788.88 118.74 789.81 116.07 791.77 114.96 793.42 110.34 796.63 106.03 796.53 104.97 796.66 99.34 796.2 99.09 795.43 99.1 792.51 96.64 790.31 95.04 786.98 89.11 787.37 85.26 790.79 79.68 790.33 77.5 790.3 75.71 789.35 73.13 785.24 71.78 784.52 69.07 781.16 67.78 779.01 68.68 776.48 68.8 774.9 67.92 772.9 65.93 771.14 63.33 770.31 60.42 766.28 58.6 765.42 55.94 763.33 53.46 762.37 52.45 760.94 43.79 759.05 43.63 756.62 43.12 755.94 40.94 754.64 38.74 750.59 33.68 751.13 28.03 750.29 26.42 749.33 24.98 746.72 25.66 744.26 24.65 741.51 24.4 738.31 23.7 737.84 21.94 735.04 19.05 731.4 17.14 730.46 16.97 729.13 15.7 729.26 12.07 730.74 8.75 729.69 1 729.69 7.57 719.17 8.44 715.82 7.32 713.74 9.5 709.69 10.11 702.53 11.47 693.31 14.11 690.59 18.7 688.62 21.16 686.25 21.64 683.59 22.62 680.86 27.6 674.58 29.14 669.9 29.86 668.98 30.77 665.92 31.23 663.36 36.93 660.82 38.7 658.46 39.77 656.13 41.12 655.33 42.61 655.28 44.28 653.64 49.45 650.87 51.35 649.24 54.24 650.87 55.11 650.16 58.46 644.62 60.36 641.76 59.34 638.48 59.07 636.78 63.6 632.87 65.68 633.95 67.06 632.21 69.9 632.11 72.31 628.98 69.59 624.77 69.67 623.7 69.01 621.9 68.23 621.27 68.25 620.14 68.86 619.18 68.32 617.36 68.73 615.6 68.07 613.81 68.43 612.66 68.26 611.02 67.21 609.07 66.42 608.35 64.72 605.87 63.67 605.06 63.05 601.94 62.55 600.47 62.46 598.22 63.29 595.25 61.88 592.19 63.99 589.18 63.81 587.07 65.8 585.52 65.69 582.74 67.5 581.71 69.13 580.07 71.74 579.06 72.59 579.4 74.43 578.77 76.7 578.96 77.04 576.03 76.53 575.64 75.95 573.26 76.43 571.94 74.87 571.17 74.43 570.05 74.72 568.96 74.21 566.44 76.04 564.65 77.04 560.4 76.47 560.02 76.96 557.88 75.1 552.2 76.31 549.23 76.79 547.5 78.69 545.16 80.34 543.88 82.13 543.55 84.72 542.56 86.23 542.63 87.5 542.04 88.94 542.22 89.63 540.67 90.95 540.2 92.41 537.21 92.29 534.21 93.63 533.05 94.3 531.02 95.66 530.16 96.77 527.21 98.16 526.21 98.31 525.09 99.52 524.39 102.88 525.31 111.01 525.01 113.67 521.48 115.45 520.13 116 517.35 118.45 514.81 120.54 513.78 124.55 514.47 125.67 515.39 126.61 515.13 127.37 515.77 130.85 516.03 131.16 516.36 133.84 516.08 135.65 515.3 137.49 512.89 136.19 510.85 135.47 508.61 134.38 507.39 133.55 505.3 132.27 503.01 129.92 500.05 128.65 497.65 125.12 494.97 123.46 492.75 120.81 491.83 118.69 488.95 118.88 486.55 115.92 484.03 115.75 483.06 114.63 481.06 110.9 477.44 110.98 475.15 109.32 473.76 108.96 470.98 108.11 470.48 106.97 468.6 107.02 465.29 107.63 464.41 107.44 462.26 107.47 458.81 109.33 455.38 107.38 452.05 107.45 447.7 106.53 446.85 104.22 442.5 102.18 442.1 98.49 440.45 97.33 437.37 95.87 435.73 94.89 432.05 94.48 429.66 94.93 428.61 95.32 420.68 96.1 417.83 96.97 416.69 99.05 415.39 100.91 413.32 101.53 409.45 102.65 407.72 100.71 405.22 100.84 404.33 102.12 402.79 104.41 400.74 108.17 396.46 109.55 396.02 110.73 395 113.31 392.08 114.65 390.92 115.26 389.24 116.63 389.07 119.02 387.26 120.7 385.4 120.69 382.83 119.95 379.92 119.49 377.15 118.94 375.7 117.03 373.09 116.85 368.22 116.3 366.78 118.71 363.36 119.08 360.71 122.75 358.61 125.29 358.59 126.47 357.74 126.52 355.81 128.33 352.54 130.25 352.57 134.27 351.3 135.91 350.52 136.74 348.93 137.46 348.79 139.36 347.42 140.24 345.94 141.53 344.77 143.27 344.08 143.7 343.35 146.6 340.81 146.47 340.03 148.13 335.91 147.65 334.73 149.64 333.31 150.3 331.12 149.42 328.57 148.4 327.3 148.74 323.43 146.93 320.39 146.23 315.2 146.72 312.8 146.32 310.5 147.15 307.63 148.36 304.3 148.6 303.11 148.46 301.08 148.83 300.06 148.63 298.11 149.85 295.9 149.6 294.64 150.53 292.31 149.56 290.2 149.57 289.42 147.77 287.35 147.43 286.04 149.57 284.56 150.92 284.31 151.34 282.66 151.26 280.5 152.06 278.89 155.12 273.96 153.69 271.53 152.67 270.35 154.01 269.23 154.11 267.73 153.5 263.95 156.76 262.64 156.71 260.42 158.01 259.49 158.31 256.78 162.98 253.68 162.49 252.1 162.48 249.69 162.12 244.82 163.79 244.14 168.52 240.55 168.86 239.72 170.98 237.94 171.63 237.03 173.78 236.26 175.01 235.34 173.13 230.02 173.02 229.08 174.1 227.35 175.24 227.87 179.08 226.73 179.75 224.85 182.69 223.09 184.21 222.94 186.29 223.8 188.48 221.9 190.43 218.6 193.98 219.11 196.04 220.52 198.04 217.58 200.38 214.99 201.81 213.91 202.6 212.18 202.96 210.38 203.99 209.46 205.37 206.71 204.29 202.48 203.94 199.28 204.14 197.75 205.4 196.31 205.36 193.34 204.42 190.02 203.56 189.78 202.29 186.93 202.86 184.93 203.02 183.05 204.07 181.89 204.99 179.77 204.83 178.66 203.93 176.19 204.44 173.34 206.5 172.01 206.76 170.92 206.62 168.32 208.22 165.75 207.84 163.34 208.76 160.24 210.89 156.66 211.83 156.03 211.2 154.34 211.16 152.92 208.94 148.12 208.61 144.5 209.51 140.23 208.72 137.59 208.27 135.13 209.07 132.58 207.87 129.31 206.21 127.45 205.93 125.88 206.18 123.82 205.32 121.46 203.8 118.01 203.21 114.58 204.95 111.64 205.78 109.22 207.33 107.46 208.59 105.52 209.15 103.53 210.6 100.74 209.54 95.91 210.15 92.91 209.28 90.4 210.56 85.79 209.45 82.67 208.26 80.44 206.88 75.36 207.58 70.15 208.74 64.61 209.88 62.07 210.88 60.43 211.73 57.11 211.68 52.7 210.78 48.41 209.03 38.83 207.85 36.39 209.27 32.72 211.09 25.65 212.77 22.15 213.05 20.41 215.19 17.81 216.49 15.9 217.1 13.37 217.3 9.56 218.82 7.57 221.94 4.18 224.31 2.06 227.3 1 236.81 2.07 244.35 2.55 247.84 5.52 250.42 8.12 252.65 8.93 254.4 10.43 257.46 11.75 259.47 13.21 261.42 16.85 263.49 21.25 264.88 24.91 267.74 27.71 273.18 31.21 277.36 31.69 281.68 33.5 285.02 37.37 288.27 40.25 291.1 41.98 294.5 42.52 297.34 45.29 301.08 46.62 303.6 46.03 309.02 46.27 311.55 50.16 315.85 52.98 315.53 58.8 318.38 60.32 320.15 64.75 321.02 64.71 323.87 68.2 326.76 69.42 326.78 70.02 329.16 70.88 333.15 74.71 337.64 75.14 338.55 78.66 337.33 80.56 338.47 84.41 339.57 89.35 340.96 90.43 342.84 96.64 345.38 101.44 345.6 106.09 346.21 108.16 346.56 113.11 345.75 114.54 346.66 117.14 346.49 119.3 350.36 123.91 352.34 129.76 354.38 132.27 355.52 134.63 360.6 135.41 364.03 137.24 365.29 139 366.92 140.25 368.36 143.36 368.24 146.04 373.01 149.78 374.54 150.59 377.26 153.46 379.49 155.46 381.14 157.42 384.01 158.4 386.27 159.92 388.75 163.03 389.94 165.64 392.65 165.85 395.06 167.22 396.38 168.6 396.86 169.78 398.19 170.12 403.46 172.67 405.85 170.38 406.33 167.95 409.91 165.3 410.86 160.26 414.09 157.39 414.9 155.49 417.83 154.11 419.17 155.14 424.42 155.51 426.24 152.74 428.87 150.78 429.31 149.45 432.01 146.9 433.18 145.23 435.06 143.63 437.7 139.62 442.56 134.09 444.2 133.42 449.98 133.21 452.18 131.87 454.98 129.16 457.12 127.46 459.08 128.73 461.84 126.02 465.27 128.68 467.39 131.95 471.64 133.14 473.83 134.8 475.71 135.1 477.5 134.81 478.93 137.09 482.43 138.91 481.05 140.62 479.97 143.92 478.37 146.7 479.08 149.26 482.43 154.3 482.53 156.67 484.34 160.3 484.32 162.7 485.11 166.08 486.23 167.7 488.91 169.37 490.21 170.91 492.29 171.47 493.78 173.41 495.03 173.52 497.46 175.8 500.65 179.36 502.08 181.92 504.63 182.77 505.79 184.51 509.51 188.11 513.99 191.26 515.74 192.85 520.1 194.13 521.81 194.22 525 197.33 526.23 199.21 526.74 201.41 529.24 203.66 531.62 208.3 532.19 211.7 534.31 214.02 539.35 216.24 542.01 219.84 544.62 219.58 547.56 220.23 549.38 219.44 552.1 219.69 558.07 218.17 558.53 217.62 559.83 218.8 563.35 218.62 567.24 219.73 570.1 221.17 572.21 222.94 573.75 225.51 573.74 227.49 575 231.33 576.44 233.79 579.65 237.76 581.17 239.06 580.96 240.92 582.07 242.42 583.93 244.01 586.01 247.41 588.27 251.46 588.64 256.06 588.96 257.65 589.52 258.11 590.18 260.79 590.9 261.25 590.73 264.05 593.88 269.47 593.4 271.64 592.6 273.79 592.65 277.26 593.43 278.44 593.88 280.2 593.65 282.59 594.37 283.98 595.68 283.81 597.29 282.15 600.17 282.29 603.04 283.97 604.28 283.81 607.67 283.9 609.43 284.4 612.51 284.07 613.44 284.36 616.15 284.42 616.63 286.06 615.67 290.45 616.01 292.17 618.19 296.21 619.92 300.24 620.82 300.73 622.31 300.74 623.05 302.11 624.59 302.65 626.01 304.93 626.66 306.87 626.23 307.43 626.15 309.94 628.12 312.46 629.76 313.75 632.13 314.92 633.42 317.3 635.61 319.74 637.33 321.2 638.92 317.44 640.07 318.03 644.42 318.13 646.26 319.71 647.18 321.13 647.95 321.2 649.4 322.62 649.08 323.62 650.55 326.13 651.66 328.77 653 332.54 653.89 334.34 656.35 335.58 656.27 336.63 657.58 337.4 658.88 337.2 659.78 338.27 661.91 338.22 663.29 337.24 664.6 335.63 665.52 335.83 667.46 335.01 668.23 335.05 672.5 336.6 675.34 336.77 675.99 337.7 675.18 340.86 676.96 341.47 678.56 344.8 678.13 346.25 678.16 350.46 678.44 351.13 676.55 355.36 677.55 356.33 678.43 358.06 677.75 360.79 678.35 363.23 677.01 364.01 676.19 365.22 676.35 366.39 677.21 367.36 677.19 368.36 678.28 370.08 680.68 371.54 681.51 370.34 686.6 366.74 688.13 367.73 689.7 367.09 694.35 368.86 694.89 369.89 696.8 369.53 699.04 371.17 699.33 372.38 702.44 374.87 705.39 374.44 708.16 376.89 710.42 379.27 712.25 380.14 713.58 381.42 715.14 378.15 716.63 377.17 717.24 375.79 717.83 371.27 720.51 369.34 722.31 371.15 723.3 373.26 724.21 374.17 727.54 374.99 728.74 376.29 736.29 376.38 740.29 374.42 742.8 374.94 743.73 374.58 745.12 372.43 748.34 370.88 750.48 370.86 753.52 371.35 754.49 370.61 754.77 368.33 755.81 365.65 754.81 363.27 755.62 361.52 755.77 359.85 755.07 358.68 758.5 356.42 758.71 354.2 759.26 351.95 760.29 351.13 761.01 347.72 762.73 345.93 764.45 345.07 763.75 344.06 764.39 342.54 770.45 338.27 772.62 335.73 773.76 332.72 773.66 332.06 777.33 333.63 780.2 334.14 783.74 335.47 784.51 336.33 788.34 336.43 790.26 337.01 793 336.93 795.36 337.47 795.22 339.9 795.88 341.43 796.68 341.64 797.67 343.97 797.54 345.22 796.66 347.53 795.59 348.11 795.26 349.16 795.25 351.09 793.87 352.52 793.53 355.61 792.57 355.88 791.16 357.88 791.79 362.26 790.27 365.22 790.64 366.97 791.26 368.08 791.54 370.16 793.08 373.33 794.53 375.12 795.93 376.41 795.48 377.9 793.84 379.71 791.68 381.37 791.37 385.67 790.13 387.08 791.02 388.59 790.94 391.12 790.3 394.43 789.13 396.12 787.69 397.05 787.68 398.09 788.91 399.42 788.31 400.43 788.07 402.28 789.07 403 789.64 404.64 788.93 406.71 790.25 408.27 791.39 408.04 792.71 408.93 792.39 411.01 791.13 413.86 792.39 417.16 794.08 418.4 794.38 419.72 793.89 420.49 794.04 422.61 792.63 423.41 790.93 425 791.29 426.8 792.88 427.92 794.22 430.06 794.53 431.97 799 432.63 797.76 435.67 797.97 437.29 795.99 438.16 794.24 439.35 793.12 442.15 790.21 445.27 789.99 446.63 787.81 450.18 786.99 452.83 784.86 452.7 783.23 453.35 781.57 455.07 779.86 455.48 779.48 456.03 779.85 457.61 779.51 458.28 779.7 461.01 780.11 462.32 782.51 466.13 782.89 467.61 782.25 468.15 778.77 469.22 779.04 471.49 779.9 472.31 779.02 475.15 779.24 476.84 778.69 478 779.19 478.79 778.44 480.36 776.81 482.37 776.54 484.11 778.8 487.35 779.73 488.17 782.55 489.5 782.77 491.46 782.69 493.65 782.05 496.54 782.2 497.48 781.71 499.17 781 499.8 779.58 503.48 778.54 505.41 776.4 508.23 774.09 508.95 774.46 510.3 773.92 511.24 774.52 512.85 773.84 515.42 772.89 516.75 773.36 519.15 772.9 520.19 771.84 520.54 770.79 520.22 768.44 523.27 767.47 525.05 766.22 525.77 765.25 527.14 762.93 529.16 762.21 530.25 760.9 531.11 759.77 532.48 759.66 533.81 758.82 535.52 758.99 537.93 759.34 538.88 761.4 540.37 762.6 541.99 762.14 543.28 761.32 543.9 760.77 545.89 758.7 547.31 758.05 549.81 757.15 549.66 756.47 552.51 755.87 552.63 753.72 554.93 752.7 555.17 752.25 556.25 751.17 556.6 750.2 557.82 746.93 557.88 746.69 560.57 745.8 560.93 745.69 562.62 746.15 563.56 746.08 565.4 746.56 565.96 744.57 569.56 741.77 570 740.83 570.53 740.19 571.9 740.21 573.74 739.64 574.73 736.42 576.14 735.38 580.59 733.16 583.22 731.49 582.92 728.39 583.2 725.96 585.03 723.9 585.14 722.63 586.43 721.06 587.36 719.22 587.61 716.58 588.49 715.81 590.14 716.04 592.27 713.87 593.8 713.39 595.11 712.04 597.05 711.01 597.46 710.81 598.39 709.58 598.83 707.5 601.36 707.84 605.53 707.19 605.95 707.49 607.39 706.95 608.29 707.66 609.37 707.92 611.27 707.56 612.34 703.46 613.49 701.73 615.31 698.46 617.01 697.47 617.83 695.62 618.52 695.12 619.42 694.01 619.78 691.8 621.66 688.33 621.9 687.73 625.7 684.01 627.09 686.51 631.74 687.72 634.83 687.03 635.37 685.79 637.48 685.97 639.51 684.77 640.79 685 645.07 684.9 646.56 686.96 648.15 688.75 647.51 694.14 644.62 696.88 644.86 697.39 644.33 700.79 643.87 702.58 644.58 705.7 644.12 707.52 645.15 708.68 645.15 709.68 645.83 711.45 645.3 714.54 644.95 716.31 644.44 720.64 645.12 723.08 644.86 724.29 643.6 725.81 644.23 727.57 646.68 727.62 647.45 728.62 649.61 729.83 650.25 732.44 652.58 734.71 655 736.28 657.6 737.49 658.72 738.23 659.94 738.44 661.33 738.16 663.63 741.69 667.57 740.49 670.22 742.32 672.41 Z" id="38580000"/>
</g>
</svg>