<?xml version="1.0"?>
<svg xmlns="http://www.w3.org/2000/svg" version="1.2" baseProfile="tiny" width="800" height="930" viewBox="0 0 800 930" stroke-linecap="round" stroke-linejoin="round">
<g id="sigung">
<path d="M 761 162.33 761.82 163.41 762.92 164.1 764.33 164.23 764.66 164.85 766.04 165.83 770.48 167.3 771.99 168.11 772.44 168.61 774.53 168.42 774.7 170.66 776.82 173.45 777.06 173.98 777.4 176.13 778.21 177.78 781.2 179.82 784.06 181.09 785.45 182.47 786.83 183.24 785.67 183.92 784.28 186 784.03 187.46 783.58 188.31 783.42 189.66 782.15 190.48 780.74 191.12 779.04 192.72 778.83 195.09 777.43 196.45 776.75 198.79 774.88 200.31 773.9 202.8 774.63 204.72 773.94 206.99 774.18 210.64 775.6 214.24 773.88 215.6 768.54 216.76 767.31 217.63 766.24 220.1 764.32 220.87 759.16 221.45 756.8 223.95 756.08 223.89 754.35 228.29 752.66 231.78 752.67 232.69 751.02 233.94 748.46 234.8 748.8 237.41 746.88 239.71 745.86 241.12 744.26 241.13 741.98 240.25 738.69 241.27 738.32 241.69 737.02 241.9 735.38 241.69 733.08 240.56 732.22 241 731.03 242.31 729.14 243.79 728.19 244.04 727.03 243.79 724.31 242.05 722.48 242.51 721.02 242.15 719.79 243.25 718.32 242.77 716.26 242.42 715.59 243.32 715.59 244 713.72 245.08 713.05 246.26 712.24 246.72 712.18 247.83 711.18 248.7 709.42 249.19 708.96 249.69 708.77 250.81 708.01 251.9 708.4 253.37 709.44 253.96 709.68 254.84 708.79 256.41 707.53 257.36 706.11 259.21 706.6 261.67 706.56 262.86 705.84 264.29 706.4 265.5 705.78 267.23 703.35 268.1 702.48 268.83 701.6 268.8 700.64 269.45 698.85 269.63 697.5 271.95 696.66 272.47 695.82 273.4 692.15 273.6 692.06 275.9 690.75 276.78 689.44 276.37 688.73 276.89 687.61 277.23 686.94 277.76 686.01 279.21 685.35 280.94 684.45 281.63 683.2 283.52 682.92 284.43 682.22 285.34 682.94 286.52 681.77 287.33 681.31 288.17 681.3 289.08 682.55 289.84 683.96 290.26 684.35 292.73 685.71 293.61 685.33 294.56 686.69 295.93 687.76 298.06 689.36 299.12 690.75 302.09 692.47 303.4 695.64 303.16 696.88 303.81 698.29 303.27 699.31 303.54 700.1 304.52 700.58 305.68 702.57 305.92 703.91 305.69 704.93 306.2 705.7 306.14 707.23 306.48 708.37 306.26 710.32 307.4 710.51 310.32 712.05 312.12 712.84 312.46 713.5 313.51 713.86 314.65 713.81 315.68 714.56 316.46 713.64 317.4 712.55 318.9 712.39 320.83 710.75 323.25 710.05 323.76 708.44 326.75 708.4 327.72 709.05 329.4 707.98 331.01 708.44 331.85 708.52 333.19 710.25 333.74 711.41 335.15 710.98 337.31 710.94 339.53 710.71 340.24 711.5 342.97 711.85 345.74 712.64 347.41 711.37 348.86 711.13 349.7 709.56 351.97 710.05 353.92 710.06 355.4 709.48 355.98 708.94 357.77 707.33 358.29 706.05 360.36 705.36 360.88 704.95 362.09 703.9 362.83 703.42 364.8 703.52 365.59 702.88 365.8 702.44 366.61 701.32 367.24 699.83 368.58 700.2 369.84 701.98 371.87 710.07 376.56 712.23 377.93 713.99 379.65 715.43 381.77 715.79 384.72 715.67 387.1 716.11 388.75 719.03 392.76 722.98 396.65 723.94 401.24 724.79 403.87 725.58 405.22 727.31 408.81 729.15 414.33 729.81 419.1 731.69 421.67 732.81 424.08 733.48 425.98 733.84 427.79 733.27 430.41 733.53 433.48 733.9 434.96 735.37 435.02 736.93 435.31 739.17 436.1 740.83 435.8 743.16 436.29 744.02 436.72 750.36 439.49 751.67 440.27 752.64 442.37 753.87 444.1 754.33 445.87 754.89 446.13 757.56 448.44 757.07 453.52 757.05 455.6 757.47 457.74 757.36 459.03 757.98 461.56 758.65 463.44 758.72 465.15 758.99 465.94 758.71 467.21 759.43 469.78 760.01 473.1 761.04 475.17 760.64 477.66 760.99 478.33 760.23 480.98 758.88 483.36 758.22 485.3 758.52 486.08 758.67 487.61 760.02 487.94 762.01 490.5 762.94 491.35 763.35 492.39 764.1 491.97 764.53 492.55 764.43 493.72 764.92 494.85 765.52 495.19 766.57 494.75 768.9 497.23 769.34 498.93 770.1 499.42 770.16 499.96 772.17 500.32 773.57 501.16 775.55 502.93 777.06 503.23 778.56 502.86 779.49 503.44 780.99 503.22 781.95 504.1 783.45 504.75 784.96 504.73 787.3 506.54 787.22 507.28 791.64 508.99 795.01 510.07 799 511.69 796.88 514.88 796.57 517.3 795.6 520.62 795.08 523.39 794.7 526.59 788.55 525.92 785.65 525.71 783.49 524.68 781.4 525.12 779.63 525.07 779.06 525.63 777 525.77 775.03 526.6 774.54 527.19 772.57 528.25 771.04 529.75 767.65 531.82 767.27 532.52 766.04 533.48 765.66 536.99 764.68 540.54 763.64 543.61 761.96 546.04 761.43 549.19 761.13 551.54 757.79 553.44 756 553.84 755.11 554.57 752.98 551.51 751.24 547.94 750.98 545.62 749.3 543.5 749.51 540.79 748.09 537.16 746.88 535.31 746.79 533.29 745.65 532.71 743.73 531.33 742.13 532.12 739.68 533.77 738.34 534.05 735.65 533.59 734.79 533.76 732.27 533.89 730.69 534.69 729.05 536.52 726.15 537.01 725.32 537.66 724.34 537.06 722.03 537.26 718.16 539.04 716.71 540.32 713.26 541.62 713.16 544.29 711.74 545.71 711.09 546.91 708.75 549.3 708.16 549.45 706.99 550.36 705.88 550.41 704.19 550.82 701.7 550.2 702.36 552.58 703.32 553.78 703.05 554.89 704.9 557.93 705.52 558.47 706.37 560.12 703.88 563.01 702.89 565.01 703.82 568.19 703.17 569.31 702.7 570.82 702.77 571.88 702.25 572.96 703.2 574.12 703.51 576.76 702.51 579.85 702.43 581.15 701.89 582.29 700.38 583.75 698.28 583.14 697.35 583.25 696.56 584.03 694.42 585.11 693.9 586.71 692.74 588.25 690.36 588.46 688.18 590.6 687.65 591.73 686.61 592.19 683.18 592.51 681.96 592.94 681.31 592.75 679.91 593 679.57 593.42 677.96 594.2 675.95 594.94 675.13 596.38 673.94 597.92 672.51 598.59 668.72 599.69 667.88 600.11 666.58 601.35 664.71 602.6 662.73 602.04 660.88 602.65 659.21 602.52 657.7 602.68 657.67 603.39 657.02 603.56 656.12 606.4 656.26 608.75 656.19 610.48 655.46 611.28 655.5 612.5 654.85 613.65 654.92 615.3 653.47 616.38 652.36 617.87 652.47 619.78 652.28 620.64 651.77 621.1 651.39 622.13 652.08 622.87 651.96 624.61 651.51 624.45 649.12 625.7 648.36 626.3 647.18 626.17 645.66 627.48 643.59 628.97 642.94 629.91 642.07 629.61 641.11 629.66 639.65 630.69 639.26 631.47 638.5 632.01 637.01 632.39 635.82 632.43 634.95 632.73 634.77 633.86 634.09 634.72 632.18 635.17 630.66 636.59 630.37 637.39 628.39 637.71 627.95 638.82 626.59 638.08 625.36 637.75 625.27 639.22 624.61 641.69 624.32 643.28 621.33 643.69 620.81 644.83 619.17 646.68 618.07 648.53 617.31 650.26 617.17 652.41 618.01 654.09 619.47 656.47 620.16 657.92 621.14 660.47 621.62 661.22 619.54 663.91 617.64 666.53 612.76 671.1 612.02 672 612.09 674.62 613.1 675.99 612.72 677.09 613.98 678.34 613.73 680.99 613.47 682.19 613.59 683.19 615.01 686.81 614.97 687.61 615.67 687.93 615.39 689.85 615.51 690.62 616.75 692.07 615.59 694.21 615.8 694.86 618.61 698.84 620.11 700.82 618.51 701.14 616.21 701.07 615 700.62 614.77 700.24 613.63 700.57 612.79 701.96 610.71 703.03 609.12 702.45 607.89 702.99 605.85 702.84 604.61 702.99 603.95 702.64 603.26 702.97 602.69 702.22 601.8 702.11 601.4 702.66 599.47 703.41 598.85 703.86 597.79 703.85 595.43 704.58 594.67 704.35 593.09 706 588.51 706.28 588.62 708.95 588.15 711.02 587.1 713.69 586.83 716.59 586.87 718.52 586.09 719.58 585.59 722.15 585.73 724.82 586.96 729.03 587.37 729.96 588.48 731 589.61 731.55 589.99 732.58 589.8 733.55 590.2 735.02 590.67 735.56 592.13 735.94 593.15 736.52 594.1 736.5 593.98 738.17 593.12 740.46 594.03 744.62 593.87 747.21 592.86 751.2 592.32 752.21 591.83 753.91 590.52 755.84 590.5 759.01 589.54 762.1 587.02 763.08 586.69 763.58 587.17 766.66 585.37 768.53 585.08 770.13 583.21 772.07 582.21 773.97 582.2 775.31 581.78 778.16 581.41 778.52 581.19 779.97 581.49 781.74 581.31 783.17 580.47 784.74 580.46 786.05 579.59 788.6 579.81 789.94 580.43 790.75 580.55 792.36 581.4 793.15 581.69 794.47 581.6 796.81 582.93 799.31 583.27 801.58 582.92 804.83 583.34 807.58 581.03 809.54 580.06 810.86 576.27 810.71 574.68 809.86 573.44 809.58 572 808.97 570.91 808.9 570.14 810.46 570.94 811.16 571.39 812.67 570.55 814.23 571.78 817.05 571.17 818.57 570.74 823.1 570.85 824.47 569.98 826.63 569.26 826.64 568.16 827.78 567.71 829 565.84 831.03 563.05 831.69 561.89 832.91 559.93 832.83 558.56 831.46 557.71 831.21 554.78 832.27 553.31 833.3 552.83 835.43 551.63 837.11 550.76 837.89 549.36 837.83 546.45 839.99 545.66 841.66 544.6 842.18 543.91 843.19 542.91 843.01 539.93 844.4 536.89 843.73 534.15 845.18 534.33 847.44 534.67 848.51 533.96 850.25 533.42 852.22 533.55 853.14 532.27 855.35 532.47 856.96 531.56 858.08 531.52 859.31 532.09 860.56 532.22 862.01 531.84 863.27 531.89 865.56 532.16 867.07 532.75 867.53 532.97 868.76 532.39 869.6 531.71 871.23 532.38 873.22 532.01 876.1 530.93 878.69 531.01 880.49 530.6 881.1 530.52 882.63 531.4 884.93 531.98 885.96 533.19 886.64 533.25 887.19 532.25 888.09 532.25 889.09 531.66 890.2 531.72 890.99 531.09 892.47 531.8 894.07 532.67 894.22 533.27 896.02 534.1 897.1 535.3 896.88 536.21 897.76 536.92 899.4 537.47 899.94 539.44 898.91 541.07 899.85 541.45 901.76 542.11 902.93 543.72 903.83 545.02 905.37 544.92 906.58 545.95 907.41 544.47 909.23 544.45 910.35 544.02 911.62 543.63 915.52 543.58 917.86 544.02 918.48 543.29 920.08 539.64 920.12 537.75 920.4 535.95 919.2 535.22 918.91 534.39 917.65 530.29 917.31 528.78 916.52 527.87 917.04 526.16 917.49 524.55 916.46 522.73 916.05 521.52 916.79 520.61 916.64 520.19 917.08 517.95 917.34 517.39 916.78 516.92 918.18 515.65 918.99 514.68 920.72 514.18 920.92 513.57 922.42 512.48 922.97 511.79 923 510.98 924.88 511.04 925.43 510.06 926.4 507.92 928.89 506.51 928.65 504.83 929 503.72 928.41 501.11 928.19 500.34 927.7 498.76 927.27 496.69 928.15 495.01 926.3 492.39 925.45 490.25 926.7 488.99 925.97 487.8 925.71 486.5 925.71 485.8 925.34 482.98 925.44 481.26 926.72 480.29 925.91 479.51 925.69 477.37 927.03 475.42 924.6 474.91 922.98 473.96 922.78 473.22 922.25 470.77 921.57 468.37 919.14 468.34 918.59 466.98 916.27 467.81 914.25 469.23 912.72 469.14 911.48 469.61 909.98 469.42 907.54 468.34 907.27 467.15 906.42 465.72 904.78 464.65 904.05 463.48 904.08 461.72 903.39 460.88 904.06 459.35 903.81 457.52 903.07 454.93 903.26 453.89 903.1 453.02 901.31 452.2 899.97 450.38 899.21 449.89 898.75 448.83 898.51 447.15 896.5 445.21 895.98 445.04 895.27 444.39 894.5 444.85 893.03 444.46 890.98 443.42 889.95 442.32 889.53 441.14 886.82 439.6 885.85 438.11 885.93 437.85 884.82 436.39 883.46 435.87 883.62 434.08 882.98 432.04 881.33 430.95 881.37 429.17 882.17 427.82 883.18 427.08 883.16 425.57 884.32 424.64 884.65 422.89 887.44 421.63 888.22 420.58 889.67 419.69 890.29 418.82 891.46 417.64 892.06 416.78 892.79 415.19 891.79 413.65 891.9 409.96 891.37 409.06 891.96 408.57 891.18 406.7 890.48 405.88 890.46 404.52 889.99 402.5 891.54 400.69 891.48 396.79 893.86 395.71 895.4 394.81 897.47 393.85 898.62 391.58 900.53 389.53 900.08 388.1 899.13 386.61 898.45 386.64 897.87 387.66 896.68 388.63 893.74 389.18 892.94 390.22 890.75 391.08 889.77 388.01 887.53 385.69 885.65 384.92 885.67 385.26 883.48 385.03 880.87 385.4 880.41 384.43 879.27 384.26 878.39 383.78 878.18 380.81 875.19 379.35 873.85 381.25 871.01 381.68 869.86 381.49 867.3 380.84 865.93 381.52 864.44 382.45 863.73 383.42 861.27 383.16 860.1 382.16 857.24 383.02 856.04 382.86 853.59 383.27 852.83 384.26 848.92 384.66 845.44 383.15 844.36 381.33 843.85 377.92 842.49 374.19 841.35 374.49 840.11 373.58 838.08 372.59 837.31 372.41 834.8 371.04 833.85 370.42 831.59 370.41 830.47 370.09 829.44 369.96 827.91 370.64 826.21 369.07 825.53 368.91 824.33 370.94 822.02 373.12 820 375.31 817.35 375.51 815.57 376.57 814.53 376.42 814.25 377.62 812.21 379.2 810.33 379.25 806.11 378.35 805.27 378.11 804.03 377.07 802.92 376.91 801.74 376.02 800.48 374.58 799.52 373.67 798.24 373.93 797.42 372.51 796.28 371.98 793.67 371.68 792.99 372.32 789.66 371.48 786.65 370.33 786.37 369.34 786.92 368.12 787.94 366.37 788.26 365.2 788.27 363.54 787.81 362.26 787.75 360.53 786.58 359.02 785.17 358.4 785.14 356.73 786.09 354.89 787.97 354.45 787.99 353.5 789.57 353.29 790.57 352.03 791.72 352.18 792.26 351.3 794.6 350.77 795.58 348.83 796.51 348.07 796.59 347.76 797.29 349.17 798.62 348.13 800.02 347.01 800.42 345.38 801.33 344.19 801.57 343.86 801.24 342.57 799.7 343.42 797.84 340.93 795.07 341.13 793.46 340.98 792.48 340.46 791.62 339.61 790.84 338.51 789.01 336.91 787.31 335.08 785.68 334.23 785.23 333.52 783.71 333.5 783.17 332.26 781.45 331.19 781.01 330.34 781.89 328.62 782.07 325.58 781.6 324.33 781.95 322.17 782.2 320.92 782.57 320.22 782.09 319.41 782.09 318.12 781.37 315.93 781.69 314.67 781.2 312.29 781.52 311.93 781.89 310 781.72 306.21 783.76 304.95 784.2 303.51 783.08 303.58 782.04 303.42 779.03 304.26 778.14 304.14 776.71 305 775.22 305.49 774.84 304.64 772.68 302.88 769.41 305.5 768.43 305.92 765.77 308.36 765.59 309.91 764.27 310.69 764.02 311.04 763.39 312.34 762.91 313.03 762.33 315.33 761.14 316.55 759.86 319.43 759.05 319.68 758.3 319.5 756.96 319.01 756.21 319.38 755.57 319.17 754.56 319.63 754.27 319.39 751.34 320.85 749.56 321.72 749.25 321.86 748.6 322.58 748.31 323.53 746.95 323.86 746.03 325.39 744.95 325.23 743.46 325.77 742.3 327.63 741.68 328.92 741.5 330.02 740.85 330.91 739.95 332.36 739.87 334.07 738.58 336.25 738.39 337.42 738.6 338.98 736.75 339.71 733.63 341.97 732.63 342.38 731.94 342.36 730.65 342.81 729.68 343.47 729.31 345.44 729 346.84 726.47 346.5 726.08 346.55 724.79 346.22 724.13 346.3 722.95 346.93 722.69 347.1 720.8 349.39 720.76 350.07 719.9 350.84 719.66 351.15 718.9 351.87 718.73 353.38 717.12 353.8 717.03 354.28 715.03 354.91 715.13 355.37 713.38 356.82 712.38 357.21 710.98 357.78 710.55 358.11 709.64 357.26 708.5 355.82 707.46 355.57 706.79 355.45 705.1 356.04 703.89 356.12 702.96 356.92 702 357.84 701.39 358.34 700.63 359.97 699.21 360.65 698.25 361.53 697.74 362.21 696.49 363.86 694.35 364.6 694.58 365.34 694.33 365.67 693.59 365.34 691.91 366 690.98 366.48 689.18 366.06 688.04 366.44 687.38 366.18 686.44 367.8 685.93 369.31 683.95 370.04 682.59 371.04 680.01 371.53 679.56 371.88 678.38 371.78 677.72 372.22 675.69 372.28 674.15 372.13 672.77 370.14 671.84 369.49 671.26 367.9 668.99 368.09 667.77 369.24 666.35 369.77 665.25 369.41 664.7 369.8 663.88 369.65 662.7 370.26 660.7 369.66 660.12 369.47 658.53 371.92 657.78 372.37 657.4 372.09 656.36 370.41 653.68 370.12 652.76 369.99 650.85 370.23 650.38 369.97 649.27 370.23 648.88 371.44 648.59 372.61 647.39 373.75 646.93 375.25 647.02 375.82 645.16 377.35 642.66 377.51 641.71 379.55 639.52 380.34 637.55 381.57 636.72 382.96 636.1 382.81 634.97 383.69 632.83 380.54 632.36 380.33 631.03 379.38 629.52 378.27 628.74 378.01 627.47 379.21 626.36 380.2 625.79 380.1 624.3 380.44 623.76 380.23 622.84 379.04 621.97 378.16 619.65 379.04 617.64 379.27 616.18 378.34 615.56 377.54 615.72 376.61 614.63 377.11 613.17 376.71 612.02 376 611.52 376.18 610.21 376.6 609.51 375.73 608.57 375.74 607.84 376.75 607.19 377.57 606 378.02 603.68 378.08 601.9 377.45 600.84 378.32 599.85 378.54 596.83 380.06 595.66 381.21 594.39 381.53 593.35 380.54 592.44 379.53 591.18 378.44 588.95 378.25 587.49 377.81 586.72 377.55 585.49 378.62 583.41 378.18 580.33 379.16 578.93 379.84 578.73 380.08 576.57 381.05 575.56 381.05 574.2 381.29 573.47 382.04 573.06 382.66 571.44 382.75 570.56 382.06 568.93 381.49 568.77 381.03 567.7 381.13 566 379.47 565.62 377.55 565.68 376.2 565.26 373.5 565.2 372.96 564.59 370.48 563.66 368.46 563.3 365.88 562.2 365.95 562.66 365.15 564.77 363.62 566.55 359.36 569.55 358.92 570.62 359.41 571.34 358.2 571.94 356.99 573.2 356.48 575.59 355.76 576.17 355.37 577.75 355.23 579.3 352.82 580.89 353.31 581.71 353.21 582.89 352.64 584.11 353.33 585.79 352.61 587.67 352.41 589.27 351.73 589.79 349.59 589.44 348.08 589.46 345.83 590.55 344.85 592.06 344.19 592.31 342.43 591.95 339.62 593.32 334.32 593.26 333.47 592.35 331.13 591.77 330.49 591.13 329.8 589.65 328.53 588.38 326.65 589.73 326.23 592.91 325.8 593.87 324.76 594.57 323.66 596.86 322.73 595.97 321.44 595.36 319.86 593.68 317.9 591.96 315.83 592.26 313.65 590.51 313.45 589.67 311.87 588.51 310.53 588.76 310.15 588.04 306.88 586.8 305.78 587.25 304.7 586.55 301.13 589.08 300.54 589.92 298.85 588.9 298.09 587.69 298.11 586.99 297.5 586.31 297.39 585.49 297.96 584.63 298.91 584.09 298.48 582.38 298.96 580.46 298.34 579.24 297.64 578.56 298.97 575.59 298.77 575.12 298.75 572.16 299.05 571.14 297.93 568.8 296.68 568.38 297.25 566.16 296.79 565.5 294.79 565.38 291.8 564.29 291.25 564.26 289.89 564.85 289.24 564.71 288.32 565.84 287.35 566.52 285.86 566.56 285.22 565.81 284.31 565.94 283.39 565.41 283.44 564.67 281.72 563.8 281.09 562.53 280.15 559.88 279.37 558.03 278.34 556.27 278.56 555.56 277.54 554.57 277 554.52 276.36 553.52 275.07 552.41 272.01 552.34 271.2 551.93 270.08 554.57 268.87 553.54 267.33 551.83 266.43 550.16 264.76 549.34 263.61 548.43 262.23 546.66 262.28 544.9 262.59 544.5 262.13 543.14 261.13 541.54 260.05 541.16 259.52 540.2 258.48 540.19 257.85 539.85 256.63 537.02 255.1 534.18 254.86 532.97 255.54 529.89 255.2 528.74 253.3 528.69 252.64 528.49 250.48 528.72 249.24 528.37 246.86 528.31 245.99 528.42 243.97 527.24 241.95 527.14 240.82 528.31 239.9 528.43 239.39 527.45 239.55 525.77 239.23 524.54 238.68 523.71 238.65 521.27 239.21 519.76 239.55 518.23 237.33 514.43 237.45 512.46 236.95 512.14 236.48 510.26 236.09 509.93 235.86 508.82 235.6 505.59 234.02 502.74 232.56 500.36 231.25 499.23 230.47 498.19 230.62 496.88 229.55 495.96 227.29 493.18 226.29 491.45 225.4 488.75 225.4 487.36 224.32 485.56 222.84 484.31 220.83 483.3 218.1 482.52 215.62 482.65 214.71 481.82 214.38 482.2 210.19 483.27 208.28 483.1 207 483.65 204.93 483.2 203.1 483.38 201.23 480.85 197.69 479.29 196.2 477.66 195.8 475.27 194.13 472.01 192.37 470.44 192.02 468.89 191.15 467.57 188.91 465.38 187.7 465.32 184.64 464.42 183.41 463.31 180.27 461.09 177.65 458.56 176.83 457.34 175.04 456.74 174.04 454.95 171.79 452.44 170.08 450.84 169.21 450.77 168.16 449.4 166.7 449.01 165.79 447.93 163.9 446.76 163.12 445.62 162.57 443.24 162.57 441.56 161.3 439.01 161.23 437.34 158.88 433.81 158.38 432.01 159.51 430.06 160.26 427.73 161.24 426.54 158.78 425.26 157.77 423.66 156.52 423.86 155.19 423.65 153.65 422.48 150.66 421.65 149.18 419.35 146.77 417.48 144.83 419.39 143.45 418.5 141.94 419.69 139.97 421.59 138.43 422.53 134.37 422.68 133.22 423.15 129.8 427.03 127.95 429.85 126.62 430.97 125.8 432.15 123.91 433.94 123.6 434.87 121.75 436.25 120.47 438.19 116.78 437.93 115.84 437.21 113.78 438.18 113.22 439.52 110.94 441.53 110.28 445.07 107.76 446.94 107.42 448.64 105.74 450.25 102.04 448.46 101.1 448.21 100.77 447.39 99.84 446.42 98.15 445.46 96.24 445.31 95.4 443.47 93.66 441.29 92.07 440.23 90.06 439.54 88.9 438.16 87.33 436.75 85.42 434.74 84.35 434.17 80.99 431.55 81.08 429.66 80.06 427.48 78.92 426.6 78.04 425.36 75.62 424.08 72.05 423.53 71.26 421.87 69.82 420.11 68.43 416 65.71 412.77 65.83 411.25 65.19 409.42 65.76 408.41 65.52 404.94 65.08 403.48 64.93 400.22 63.15 396.85 61.82 392.49 60.85 391.73 60.08 388.26 59.27 385.56 60.13 384.22 59.49 381.75 56.34 381.44 53.53 378.76 51.86 378.15 51.85 377.73 49.82 376.87 47.81 374.42 47.2 374.45 45.96 371.34 43.96 370.27 44.18 366.18 41.15 364.2 39.38 361.47 35.57 361.3 33.8 361.71 31.17 360.78 29.17 358.84 26.79 358.46 24.8 357.25 22.52 355.22 20.17 352.5 17.13 351.23 14.19 350.9 10.38 348.43 8.37 346.47 7.39 343.9 5.93 340.81 4.56 338.25 3.15 337.22 1 336.3 4.38 327.72 6.89 324.32 10.29 321.04 10.81 318.93 11.14 314.66 16.82 310.81 22.65 305.08 26.34 302.66 28.14 301.65 30.25 298.25 33.52 295.26 39.64 289.94 39.53 289.68 40.55 287.57 46.22 284.24 49.4 282.18 52.47 280.69 54.26 281.1 55.92 281.97 58.01 282.13 60.04 281.15 62.62 278.06 67.74 274.2 73.16 271.19 76.08 269.16 76.99 268.07 77.27 264.6 78.47 259.18 79.66 256.28 81.36 254.51 84.47 252.16 85.32 250.66 86.06 247.86 86.08 246.18 85.83 242.69 84.78 238.76 84.56 236.58 86.65 232.33 87.96 230.72 91.43 230.39 94.49 231.1 96.36 231.07 99.24 226.7 100.04 224.32 101.2 218.39 101.6 212.46 103.21 209.26 105.19 207.1 106.82 202.91 107.47 202.02 112.07 199.54 113.21 197.89 113.89 193.8 114.85 191.69 114.41 189.77 112.66 187.31 112.23 183.19 111.54 180.73 112.03 178.85 113.73 176.36 114.95 174.23 116.02 171.94 117.86 170.23 118.88 166.47 121.37 162.55 124.12 157.07 125.9 158.98 126.69 159.37 134.28 161.47 137.26 162.72 139.63 164.05 139.86 166.61 140.96 167.7 142.61 169.74 146.31 170.62 147.6 173.65 149.71 174.86 152.99 174.5 155.81 173.36 162.22 169.9 164.1 169.93 166.53 171.18 170.9 171.06 174.07 169.57 178.36 168.02 179.01 166.85 183.09 162.15 183.77 160.35 186.83 159.35 189.24 154.96 190.57 153.47 190.47 149.94 193.04 147.09 194.59 145.63 196.69 144.65 199.17 141.42 202.72 139.73 204.58 139.22 205.17 138.85 206.44 137.14 208.84 136.91 210.97 137.36 212.56 137.2 215 137.6 216.84 136.59 217.61 135.98 218.38 134.82 220.3 133.9 224.59 132.72 225.65 131.58 227.91 131.39 229.86 130.06 230.72 129.72 232.74 127.55 235.78 125.18 238.42 122.65 239.92 124.35 241.77 124.81 243.69 126.33 246.16 129.23 247.96 131 250.11 132.14 252.99 133.88 255.82 134.54 256.81 134.41 257.63 133.77 258.68 130.74 258.2 129.29 257.92 126.94 261.39 123.76 263.15 121.38 267.25 120.19 267.27 117.52 267.6 115.71 267.13 113.39 269.98 111.23 269.94 109.32 274.3 104.11 276.35 103.16 278.23 101.2 280.69 99.61 284.59 98.5 286.39 97.81 289.62 98.12 292.48 98.17 293.59 99.67 294.71 101.61 296.76 102.88 298.84 102.98 301.36 102.19 306.23 103.51 309.78 104.3 311.5 101.42 315.01 97.01 315.65 94.84 314.41 89.85 314.97 87.24 314.53 83.4 315.57 82.25 316.85 80.51 319.15 76.84 324.93 78.98 327.35 77.38 329.28 74.43 330.13 72.64 332.27 68.64 331.2 64.73 330.7 63.48 330.71 62.26 329.38 59.91 327.83 54.5 327.28 50.61 327.44 49.49 326.08 47.7 327.64 47.22 330.16 45.7 332.11 43.22 334.19 40.89 336.68 38.27 338.5 36.54 339.36 34.3 340.74 31.75 341.56 28.57 341.79 25.1 340.64 22.32 340.39 20.32 340.7 17.71 341.25 16.95 341.19 15.62 340.87 14.56 342.21 13.31 342.55 12.45 342.55 11.35 342.96 9.48 343.6 9.11 344.8 9.77 345.6 9.73 346.17 9.28 347.86 9.07 351.66 9.11 352.83 9.77 353.54 10.64 355.38 11.77 357 13.92 357.23 14.69 358.24 15.24 359.89 14.67 361.61 15.14 362.73 14.61 364.35 14.33 365.35 13.34 366.39 12.99 366.87 12.2 367.64 12.28 368.17 11.65 369.3 11.17 369.75 10.57 371.11 9.56 372.9 8.62 373.5 8.55 374.55 7.86 375.25 7.03 376.43 6.84 376.94 6.44 377.5 3.85 378.09 2.85 381.06 1.25 384.13 1 386.26 1.01 389.8 1.65 391.67 1.73 391.54 1.98 391.02 6.42 388.06 10.56 387.81 12.18 386.33 16.86 388.16 19.32 389.86 21.23 389.48 23.17 389.41 24.41 387.89 25.76 387.45 26.59 388.15 28.63 390.74 29.29 391.11 30.96 390.94 32.68 390.48 34.12 390.71 35.1 391.93 35.19 391 37.24 391.49 40.48 393.43 40.72 394.73 40.52 395.59 41.53 396.62 41.66 398.12 42.2 400.54 45.11 403.07 46.86 403.64 48.13 403.75 49.16 404.89 50.87 407.59 54.49 408.33 55.15 409.73 54.87 411.26 53.71 413.8 53.14 415.26 53.1 416.98 52.67 417.9 52.9 419.19 52.89 420.12 54.23 422.88 53.23 423.71 50.48 424.82 49.28 425.15 46.59 425.94 45.88 428.64 46.04 430.64 46.37 431.64 47.81 433.41 49.09 434.97 48.82 438.36 47.67 441.34 47.93 443.59 47.69 443.77 46.18 445.61 45.54 447.1 45.73 447.63 45.14 448.84 44.62 450.19 43.57 450.91 42.24 451.89 42.54 453.05 42.31 456.3 40.46 457.86 39.71 458.94 39.85 458.4 41.46 456.36 43.78 456.03 46.29 457.11 48.39 458.6 49.95 460.83 54.44 461.79 55.55 462.84 57.53 463.14 59.69 464.09 62.51 464.34 62.71 464.54 64.53 465.04 65.32 465.73 65.16 466.76 65.96 467.34 65.81 468.4 66.27 469.58 66.13 469.99 67.3 470.64 67.67 472.85 66.99 474.52 67.52 474.9 68.35 475.88 68.99 476.13 70.36 476.78 71.04 476.81 71.81 478.67 73.68 478.59 74.71 478.19 75.17 475.84 75.95 475.27 78.08 475.73 78.86 476.06 80.22 476.66 81.53 477.26 81.85 476.68 82.71 476.72 83.66 477.52 84.17 478.17 85.25 477.8 86.34 477.06 86.81 476.95 87.77 477.49 88.55 477.41 89.4 476.43 91.01 476.05 92.43 476.13 93.16 476.88 94.26 477.35 94.37 478.65 96.97 480 97.18 481.34 98.46 481.79 98.61 482 100.71 482.99 101.78 482.84 102.82 483.98 104.55 483.89 105.54 484.71 107.43 484.31 108.35 484.28 109.7 483.37 111.51 482.86 111.59 481.9 113.15 482.35 113.61 482.41 114.89 482.19 115.95 482.32 118.19 481.54 119.05 481.24 119.8 479.4 120.24 478.66 121.27 477.28 122.14 476 122.28 475.01 122.05 474.36 121.17 473.35 121.18 470.69 124.6 470.21 125.87 470.7 127.8 475.25 127.11 476.63 126.05 479.41 125.95 480.94 127.18 482.49 127.08 484.6 127.5 485.19 128.34 486.73 129.06 487.88 128.92 488.65 129.23 489.81 130.18 491.29 129.76 493.34 128.5 495.46 128.63 499.36 129.5 502.2 130.04 504.96 128.45 505.75 127.61 506.97 126.8 507.53 124.37 508.24 123.78 508.92 121.55 510.36 119.87 511.27 117.79 514.32 117.33 517.09 113.16 519.14 113.19 519.84 114.37 521.44 114.39 522.36 115.48 523.36 115.18 524.98 115.54 527.12 115.1 528.62 115.72 529.57 115.48 531.25 116.44 532.86 116.12 535.33 116.18 536.59 117.39 536.53 118.47 537.46 121.65 538.28 122.37 538.55 125.68 540.22 126.55 541.02 127.71 542.52 128.26 544.95 128.7 549.05 128.59 552.58 130.96 554.35 132.91 556.07 133.74 557.46 134.68 559.28 135.08 561.44 135.32 562.96 135.25 565.64 133.52 566.26 132.61 567.46 131.53 568.14 129.86 570.28 126.78 573.4 123.06 574.71 121.62 577.66 119.45 578.52 120.82 579.39 121.59 581.18 121.7 582.41 121.96 582.65 123.7 583.66 125.49 584.53 128.09 585.8 129.04 586.87 130.74 586.9 135.2 587.93 137.17 588.56 137.53 591.25 141.82 592.11 142.78 592.49 143.83 594.33 145.13 594.59 146.24 595.47 147.57 595.21 149.55 597.14 152.82 598.61 155.83 599.36 155.79 600.28 157.46 600.53 158.36 602.07 159.88 602.83 161.26 604.03 161.81 605.2 163.09 605.36 164.16 605.98 166.17 606.06 167.83 606.33 168.72 607.33 170.08 609.26 171.07 610.09 171.01 611.42 172.1 616.44 173.04 617.32 173.79 618.6 173.85 619.58 174.46 620.86 174.47 621.27 175.6 622.26 176.02 622.86 176.94 624.41 177.21 625.6 178.33 626.23 179.29 627.11 182.26 628.44 184.57 630.4 185.98 632.99 187.66 634.73 188.53 635.81 188.86 636.65 186.62 638.12 185.98 640.51 185.55 641.87 183.66 643.21 183.04 644.96 181.97 646.68 180.32 649.71 179.78 651.5 179.17 652.12 178.6 654.51 177.9 655.91 178.98 658.25 178.87 659.62 179.26 661.56 178.51 662.24 177.96 664.58 175.39 665.32 175.32 665.95 174.59 667.93 173.23 669.03 173.49 670.09 172.73 673.29 172.85 674.51 173.3 676.99 173.31 678.16 173.49 680.63 174.65 682.47 175.03 686.7 176.3 688.68 177.92 690.75 178.85 693.51 181.07 695.02 181.56 696.31 182.72 699.88 182.6 704.17 184.9 704.94 185.2 708.24 185.16 709.67 185.69 712.07 185.83 712.65 184.4 713.32 183.88 713.77 182.97 714.21 180.69 714.73 179.99 715.12 177.63 715.81 177.05 717.09 176.78 718.1 175.24 720.03 175.97 722.3 177.04 725.6 176.74 726.83 176.21 728.18 175.24 729.64 175.15 730.96 174.35 731.9 172 731.92 171.35 732.55 170.11 735.15 168.49 735.92 167.49 736.94 167.27 739.1 164.77 743.9 161.35 744.89 161.07 746.47 158.86 748.71 159.85 749.91 161.38 751.05 162.15 752.95 162.14 753.8 163.51 754.98 164.04 758.31 162.84 761 162.33 Z" id="38590000"/>
</g>
</svg>