<?xml version="1.0"?>
<svg xmlns="http://www.w3.org/2000/svg" version="1.2" baseProfile="tiny" width="800" height="850" viewBox="0 0 800 850" stroke-linecap="round" stroke-linejoin="round">
<g id="sigung">
<path d="M 8.92 808.93 8.39 808.44 8.34 808.11 8.7 807.7 9.18 807.45 9.57 807.61 9.77 808.12 9.58 808.49 8.92 808.93 Z M 5.97 806.67 5.17 807.2 4.77 807.37 4.92 806.49 5.34 806.18 5.83 806.37 5.97 806.67 Z M 21.83 804.54 21.99 804.78 20.8 804.84 20.79 804.57 21.83 804.54 Z M 17.34 803.57 18.01 804.22 18.5 804.06 18.84 804.31 18.8 804.63 18.3 804.64 17.95 805.09 17.37 805.34 16.55 805.3 16.64 804.96 17.07 805.15 17.41 804.99 17.57 804.49 16.87 804.01 16.63 804.19 16.09 803.97 16.39 803.61 17.34 803.57 Z M 8.88 801.91 9.53 802.43 9.97 802.9 10.51 803.65 10.59 804.43 9.68 804.51 9.09 804.37 8.46 804.07 8.28 804.38 7.73 804.3 7.54 804.66 7.24 806.1 6.71 806.2 6.52 805.79 5.94 805.98 4.68 806.11 4.49 805.84 4.02 805.79 3.33 806.19 2.32 805.93 2.27 805.46 2 805 1.54 804.76 1.06 804.18 1 803.58 1.36 803.73 2.04 803.36 2.27 803.41 3.31 803.11 3.69 803.19 4.36 803.54 4.65 803.21 4.92 802.45 5.33 802.23 6.04 802.18 6.2 802.56 6.52 802.3 7.49 802.08 8.3 801.63 8.88 801.91 Z M 25.71 768.31 26.36 768.66 26.2 768.87 25.71 768.71 25.71 768.31 Z M 42.61 748.44 42.16 748.37 42.44 747.78 42.61 748.44 Z M 43.29 747.58 43.04 747.59 42.96 746.97 43.2 746.91 43.49 747.26 43.29 747.58 Z M 94.5 708.09 94.83 708.75 94.47 708.69 94.5 708.09 Z M 83.45 699.83 83.24 699.62 83.41 698.94 83.74 699.12 83.45 699.83 Z M 84.27 698.98 83.98 698.9 83.88 697.98 84.15 697.83 84.5 698.84 84.27 698.98 Z M 82.48 688.99 83.02 689.03 83.34 689.26 84.32 689.43 85.09 690.02 85.49 689.94 86.4 690.71 86.53 691.11 87.07 691.81 86.99 692.65 87.18 692.94 86.92 693.7 86.99 694 86.81 694.71 86.44 695.55 85.96 696.32 85.53 696.45 84.71 696.34 84.4 696.59 84.08 697.25 84.5 697.33 84.39 697.71 84.79 698.09 85.39 697.7 85.45 697.97 84.84 698.3 84.42 698.12 84.17 697.78 82.91 697.6 82.14 697.59 81.65 697.73 81.27 698.31 80.97 698.43 80.37 698.37 79.84 697.86 79.72 697.4 79.08 697.49 78.81 697.13 78.21 696.93 77.78 696.55 77.99 696.07 77.86 695.88 77.83 695.2 77.97 694.39 78.61 694.01 78.42 693.5 78.01 693.65 77.8 694.21 77.3 694.72 77.11 694.4 77.56 694.19 77.72 693.26 78 692.77 77.63 692.46 77.62 691.76 77.95 691.7 78.02 691.3 77.74 690.7 78.58 690.57 78.42 689.98 79.19 689.92 79.58 689.75 80.12 689.85 80.27 689.59 80.74 689.65 81.43 689.35 81.78 689.01 82.48 688.99 Z M 79.47 680.52 78.95 680.78 78.81 681.85 79 682.09 79.6 682.19 79.68 682.68 80 682.63 80.01 681.86 79.63 681.35 79.9 680.58 79.96 680.13 80.57 679.99 81.49 680.43 81.74 681.3 81.1 682.9 80.93 683.19 81.27 683.77 80.6 683.92 80.39 684.28 80.29 685.03 80.01 685.54 79.27 686.38 78.98 686.53 78.79 686.11 78.27 685.84 78.18 685.5 78.39 684.26 78.2 683.66 77.58 682.82 77.65 682.33 78.19 681.78 78.41 680.7 78.35 680.32 78.53 679.42 78.88 679.13 79.38 678.99 79.78 679.17 79.77 679.47 79.47 680.52 Z M 145.79 649.76 145.57 649.79 144.14 650.5 143.74 650.49 144.04 649.92 144.42 649.69 144.58 650.03 145.76 649.48 145.79 649.76 Z M 737.89 568.05 737.27 568.63 736.72 568.76 736.66 568.5 736.93 568.15 737.29 568.03 737.89 568.05 Z M 731.75 562.71 732.67 563.18 733.12 563.81 732.87 564.43 732.59 564.74 732.15 564.58 731.7 565.1 731.48 564.54 731.13 564.2 730.95 563.8 731.34 563.7 730.9 562.87 731.56 562.41 731.75 562.71 Z M 781.63 561.69 781.72 561.91 782.37 562.14 782.63 562.35 783 563.27 783.1 564.25 783.42 564.32 783.97 564.72 784.99 564.52 785.55 564.78 785.98 565.28 785.51 565.7 785.13 565.8 784.97 566.43 785.56 567.02 785.6 567.76 785.91 568.26 786.39 568.31 787.31 567.96 787.4 568.25 788.43 568.96 788.23 569.65 788.31 569.98 788.77 569.88 789.16 569.27 789.24 569.85 788.99 570.02 788.97 570.46 788.42 570.55 788.54 571.33 788.25 571.41 787.25 571.21 787.06 571.54 786.49 571.4 785.97 571.5 786.03 571.89 785.4 572.79 785.07 572.8 785.25 573.64 784.89 573.74 784.94 574.28 784.81 574.76 784.91 575.49 785.06 575.83 785.55 576.04 785.8 576.81 786.36 576.84 786.75 576.15 787.29 576.11 788.22 576.41 788.82 576.05 788.82 575.43 789.32 575.6 789.94 575.64 790.3 575.17 791.2 575.05 791.46 575.32 791.3 575.58 791.53 576.13 791.82 576.1 792.84 575.05 793.34 575.1 793.39 574.86 793.17 574.22 793.33 573.74 793.92 573.06 794.58 572.79 795.34 573.06 796.29 573.52 796.64 573.97 797.34 573.95 797.27 573.46 797.59 573.44 798.24 574.01 799 574.55 798.99 574.91 798.56 575.4 798.25 575.17 797.87 575.94 798.06 576.42 797.6 576.33 797.52 575.92 797.98 575.51 797.04 574.71 796.35 574.56 795.97 574.96 795.67 574.91 795.61 575.38 794.88 576.33 794.57 576.12 793.69 576.18 793.18 575.9 793.32 575.44 792.88 575.25 792.58 575.79 792.4 575.7 791.78 576.28 791.9 577.23 791.89 577.81 792.74 578.41 792.43 578.89 792.63 579.36 792.99 579.66 793.29 580.24 794.09 580.56 794 581.02 794.17 581.37 794.26 582.58 794.66 583.53 794.57 584.06 794.93 584.25 794.66 584.91 794.7 585.3 794.3 585.64 794.58 586.32 794.79 586.4 794.81 587.43 795.32 587.19 795.27 588.05 796.06 587.97 796.37 588.25 797.33 588.47 797.36 589.13 797.09 589.42 796.86 590.01 796.99 590.66 796.82 591.07 797.03 591.58 797.51 591.71 797.69 592.07 797.45 592.37 797.68 592.62 797.43 592.94 797.09 593.05 796.75 593.43 796.94 593.85 796.35 594.38 796.34 594.71 795.64 595.37 795.03 595.57 794.41 594.52 793.86 594.47 793.38 594.81 793.26 595.18 793.6 596.03 793.8 596.94 793.78 597.6 793.93 598.37 794.31 598.79 794.34 599.74 794.23 600.36 793.72 599.89 793.8 600.68 794.09 601.18 793.96 601.7 793.46 601.99 792.91 602.47 792.69 602.95 792.11 603.54 791.63 603.15 790.84 603.6 790.69 603.81 790.03 603.53 789.88 603.1 790.03 602.41 789.58 602.17 789.1 602.32 788.61 601.96 788.59 601.23 788.32 601.16 788.09 601.83 787.78 602.01 787.54 601.4 787.22 601.03 787.57 600.71 786.88 599.94 785.93 599.78 785.22 600.09 785.01 600.39 784.13 601.06 784.04 601.62 783.61 601.96 783.21 601.58 782.55 601.46 782.06 601.23 781.34 601.2 781.16 600.99 780.62 600.83 779.24 600.75 778.54 600.19 777.83 600.86 776.97 601.51 776.75 601.31 776.86 600.97 778.37 599.99 778.07 599.35 777.24 599 776.93 599.25 776.65 598.89 776.73 598.57 776.41 598.35 775.89 598.82 775.73 599.23 775.19 599.17 775.09 599.46 774.68 599.43 773.92 598.85 773.74 598.35 773.17 598.21 772.83 598.79 772.44 598.37 772.16 598.42 771.96 597.94 771.62 597.87 771.46 597.57 770.91 597.51 770.65 597.09 771.07 596.29 771.09 596.07 771.87 595.38 772.09 594.77 771.8 594.18 771.95 593.83 771.43 592.98 771.21 591.63 771.01 591.31 771.01 590.52 770.52 589.93 770.68 589.58 770.7 588.92 770.39 588.15 769.97 587.75 769.32 587.72 769.03 586.7 768.62 586.14 769.12 585.66 769.12 584.68 768.82 584.55 768.57 583.85 768.85 583.46 769.39 583.14 769.94 583.07 770.7 582.14 771.01 582.04 770.72 581.29 770.41 580.76 769.5 580.82 768.64 581.08 767.58 581.97 767.42 581.66 768.37 581.05 768.54 580.77 770.36 580.21 770.71 579.88 770.74 579.13 770.39 579.05 770.86 578.2 771.27 577.78 771.65 576.75 771.94 576.34 773.4 576.31 773.36 575.85 774.7 575.26 774.71 574.43 775.54 574.76 776.11 574.6 776.27 574.08 776.13 573.61 776.22 572.23 776.43 571.93 775.73 571.67 775.68 571.19 776.31 570.47 776.55 570.61 776.22 571.13 776.73 571.7 777.21 571.95 777.73 571.78 777.87 571.4 778.29 570.89 778.17 570.37 777.71 569.68 777.21 570.01 777.36 570.27 777.06 570.83 776.81 570.8 776.33 570.42 776.44 570.21 775.97 569.6 776.74 569.78 776.86 569.3 776.26 569.02 775.83 569.17 775.56 568.68 774.95 568.28 775.27 567.84 775.15 567.36 775.44 567.04 775.49 566.36 775.17 566.06 775.44 565.12 775.85 564.56 776.29 564.45 776.95 564.67 777.49 563.73 777.85 563.57 777.93 562.86 778.23 562.51 778.85 562.39 779.01 562.18 779.42 562.31 780.28 562.15 780.59 561.81 781.07 561.98 781.63 561.69 Z M 399.56 556.59 400.6 557.15 402.11 558.06 403.19 558.6 402.82 558.85 400.89 557.68 399.7 557 399.56 556.59 Z M 401.38 552.94 400.83 552.95 389.44 558.04 387.98 558.05 387.53 558.23 387.36 557.71 387.56 557.44 388.28 557.63 389.89 557.55 391.29 556.84 391.52 556.88 392.11 556.54 394.26 555.61 400.94 552.64 401.2 552.54 401.38 552.94 Z M 466.32 547.85 466.02 548.24 465.83 548.86 465.48 548.27 466.32 547.85 Z M 670.5 546.49 670.4 546.74 669.97 547 669.79 546.68 670.5 546.49 Z M 466.42 546.2 466.59 546.4 466.45 546.81 466.18 546.86 465.83 546.56 466.08 546.23 466.42 546.2 Z M 507.05 539.62 506.61 539.37 506.73 539.03 507.08 539.06 507.05 539.62 Z M 548.92 527.09 548.61 526.78 548.7 526.46 549.16 526.46 549.15 526.93 548.92 527.09 Z M 648.74 519.13 648.84 519.47 648.37 519.63 648.23 519.16 648.74 519.13 Z M 731.08 611.42 730.3 611.23 729.47 611.49 728.53 611.31 727.89 610.92 727.38 610.81 726.99 611.52 726.52 611.85 726.06 611.74 725.74 612.07 724.64 612.33 723.49 612.12 723.14 612.36 722.56 612.31 722.23 612.51 721.53 613.18 721.36 613.04 720.83 613.26 720.23 613.17 719.99 613.85 719.71 613.95 719.1 613.35 718.62 613.69 718.14 615.35 717.67 615.64 717.22 615.45 716.7 614.8 716.06 614.51 715.27 613.77 714.38 613.53 713.6 614.31 712.86 615.27 712.39 615.78 711.86 617.13 711.44 617.65 711.08 617.39 710.07 617.97 709.57 618.37 709.21 618.16 708.72 618.15 707.8 619 707.67 619.27 707.27 619.37 706.29 619.26 705.79 619.43 704.1 619.39 702.89 620.09 703.06 620.6 703.13 621.84 703.06 623.01 702.9 623.17 702.13 622.88 701.65 623.12 701.37 622.76 700.79 622.56 700.39 623.01 699.72 624.05 698.64 624.81 698.19 625.39 698.1 625.68 697.3 626.92 696.81 627.35 696.2 627.45 695.69 627.69 695.21 627.51 694.98 627.64 693.62 627.61 692.36 627.86 691.89 628.17 690.92 628.41 689.86 628.6 689.3 628.89 688.63 629.09 688.54 629.32 687.82 630.03 687.88 630.4 687.48 631 686.57 632.08 685.7 633.38 685.24 633.57 684.22 633.68 683.02 634.28 681.09 634.47 680.41 634.43 678.47 634.78 677.98 634.74 676.96 635.23 675.8 635.66 674.89 636.11 674.37 636.22 673.16 636.86 672.24 637.21 671.07 637.84 670.44 638.26 668.53 639.13 667.64 639.92 667.09 640.27 666.64 640.77 665.98 641.02 665.25 641.48 663.78 642.15 663.49 642.38 663.33 642.86 662.97 643.34 661.48 644.43 660.73 644.3 659.92 644.61 658.91 644.62 658.55 644.89 657.59 644.98 657.07 644.77 656.13 645.13 656.15 646.01 656.26 646.82 656.22 647.2 656.42 648.04 655.9 648.18 655.56 649.1 654.9 650.03 654.68 650.52 654.67 651.72 654.37 652.37 653.66 652.36 652.89 651.79 652.43 651.78 651.59 651.41 651.17 651.12 650.62 651.08 649.73 652.31 649.23 652.29 648.96 652.49 647.76 652.62 647.14 653.41 646.97 654.03 645.94 653.88 645.59 653.58 644.91 653.77 644.24 654.14 643.18 654.52 641.15 654.76 639.7 655.06 638.08 655.78 637.49 655.97 636.89 656.31 636.23 656.92 635.46 657.37 634.8 657.51 634.66 657.77 634.85 658.54 634.76 659.32 633.85 659.75 633.64 659.98 632.85 660.18 632.39 660.5 631.39 660.29 631.23 660.18 630.16 659.88 629.68 659.67 629.31 659.3 628.25 658.83 627.43 658.6 626.24 658.42 624.08 658.4 623.55 658.47 622.11 658.44 621.42 659.01 620.56 660.52 620.29 661.25 619.31 662.76 617.49 665.21 617.19 665.82 616.24 666.34 615.02 666.41 613.89 666.61 613.16 666.65 612.4 666.86 611.89 667.92 610.37 669.86 609.33 671.12 607.19 672.66 606.31 673.66 605.76 674.17 605.06 674.95 604.26 675.7 603.12 676.52 601.02 677.89 600.39 678.23 598.76 679.31 598.25 679.54 597.43 680.2 596.7 680.7 595.84 681.18 594.69 681.51 593.69 681.71 591.47 682.56 590.16 682.62 589.58 682.74 588.75 682.69 587.3 682.93 585.54 683.49 584.47 683.36 583.29 683.14 580.85 682.87 579.43 682.78 576.73 682.5 575.46 682.12 574.17 681.49 573.17 680.78 572.03 680.07 569.88 678.52 569.07 677.83 567.54 675.08 567.35 675.27 565.5 676 564.98 676.13 564.81 676.49 562.84 677.71 560.25 677.98 558.38 679.15 556.46 679.55 554.59 680.1 553.54 680.59 551.42 680.61 549.37 680.6 547.04 680.53 545.64 680.55 545.26 680.71 543.2 681.31 542.08 681.43 541.41 681.75 539.26 682.43 536.55 683.63 535.67 684.22 534.68 684.77 534.57 684.64 534.01 685.17 529.33 688.23 528.25 688.78 528 688.84 525.1 690.36 524.21 691.35 523.12 692.13 521.66 693.64 520.27 694.73 518.68 695.56 517.52 696.75 517.09 697.1 515.56 698.59 514 699.98 511.72 701.68 510.17 702.48 509.26 703.42 507.94 704.58 507.46 705.09 507.12 705.24 506.42 705.26 505.96 705.08 505 704.47 504.46 703.99 503.56 703.61 502.53 703.04 501.03 703.09 500.06 703 498.85 703.26 498.18 703.85 497.44 704.89 496.66 705.25 495.85 705.82 494.5 706.04 494.06 705.96 493.56 706.15 493.19 706.66 493.15 707.53 492.76 708.29 491.97 709.04 492.3 709.87 492.32 710.47 492.05 711.15 491.77 711.39 491.03 711.68 490.39 711.78 489.33 711.21 488.86 711.24 487.51 712.31 486.97 712.61 485.92 712.49 482.85 712.39 480.97 712.54 478.77 713.25 476.5 713.38 475.18 713.58 474.92 713.85 473.76 713.52 473.2 713.14 472.97 712.39 470.27 713.34 469.8 713.73 469.29 713.85 468.65 714.26 468.23 714.91 467.51 715.19 466.99 715.84 466.5 716.15 465.98 716.64 465.65 717.58 465.02 718.76 464.92 720.15 464.6 722.54 463.62 722.67 463.32 723 463.42 723.32 462.93 723.42 462.17 722.89 461.05 722.38 460.08 722.72 458.65 724 457.57 724.63 456.78 724.76 455.28 724.64 454.15 724.94 452.15 724.89 450.13 725.21 449.61 725.41 448.55 725.57 447.29 725.68 445.71 726.38 444.52 727.13 443.2 727.77 440.96 729.26 439.16 729.91 438.42 730.34 437.1 731.5 435.98 732.18 434.08 732.61 433.39 733.34 432.63 735.24 432.49 735.33 431.49 734.94 430.32 734.67 429.99 734.79 428.9 734.93 427.86 734.85 425.68 735.47 425.44 735.67 424.33 735.41 423.36 735.3 421.79 735.71 421.03 735.74 419.47 736.15 418.86 736.23 416.77 737.02 416.12 737.5 414.99 737.18 413.9 737.54 412.92 736.78 412.57 736.75 411.83 736.9 410.96 737.69 410.12 737.41 409.03 737.69 408.54 737.66 408.1 737.48 406.84 737.55 405.62 737.22 405.15 736.91 403.64 736.83 402.38 735.97 401.58 735.81 400.91 735.9 400.07 737.07 399.57 737.2 398.08 736.8 396.87 735.72 396.07 735.29 395.06 736.1 393.98 736.56 393.48 736.94 393.23 737.33 390.91 738.67 390.39 738.84 389.91 739.16 389.14 739.83 388.14 740.4 387.17 741.06 386.62 741.64 385.83 741.95 385.23 742.3 383.5 742.68 382.5 743.39 379.07 746.25 377.76 747.18 376.41 746.95 375.5 747.34 374.52 747.51 373.67 747.88 373.17 747.95 372.74 748.87 372.04 748.45 371.67 747.96 370.23 747.37 368.92 747.92 367.32 748.8 365.05 749.85 364.36 750 363.25 750.04 361.14 750.37 358.08 749.39 355.97 749.62 355.01 749.59 353.98 750.73 352.66 752.29 351.71 752.92 350.7 753.06 350.11 752.53 349.3 752.1 347.6 751.72 346.93 751.46 345.37 751.17 343.45 750.9 342.66 751.26 341.62 752.02 340.14 752.95 338.55 753.89 336.83 754.73 335.11 756.47 333.51 756.46 332.2 756.26 332.07 755.34 331.72 754.29 331.3 753.75 330.75 753.47 329.74 752.73 329.09 751.68 328.29 751.11 327.73 751.02 326.88 751.21 326.62 751.54 325.99 751.72 324.37 752.41 323.44 752.75 321.92 753.62 320.87 754.51 320.23 755.15 319.95 755.18 319.46 754.37 319.43 754.06 317.91 752.47 317.34 752.25 316.33 752.4 315.31 752.31 313.31 750.81 312.86 750.73 312.42 750.87 311.3 750.57 310.48 750.47 308.49 751.05 307.36 751.1 306.99 751.05 306.58 751.26 306.04 752.02 304.34 752.07 302.13 752.26 299.5 751.94 298.61 752.07 297.53 751.92 296.92 751.69 295.46 751.54 294.36 751.33 291.97 751.74 290.84 752.4 290.59 752.68 289.43 753.06 289 753.28 288.43 753.14 287.04 753.82 286.42 754.33 285.89 754.19 285.46 754.68 285.19 754.71 284.36 755.55 284.23 755.9 283.92 756.07 283.66 756.58 283.8 757.04 283.64 757.44 283.68 758.16 284.1 758.41 284.02 759.02 284.29 760.06 283.92 760.3 284.43 761.36 284.3 762.03 284.33 762.54 284.13 762.88 284.23 763.37 283.98 763.83 283.7 764.94 283.08 765.72 282.6 765.98 281.9 766.59 281.28 767.01 280.76 767.13 280.37 767.62 279.93 767.76 279.54 767.67 279.33 768.18 279.33 768.64 278.63 770.71 279.1 771.4 279.36 772.03 278.57 771.9 277 771.75 276.27 771.88 275.67 771.5 274.8 771.87 274.21 771.86 273.43 772.1 272.74 771.79 272.51 771.54 271.71 771.38 271.37 771.45 270.62 771.2 269.45 771.46 269.18 771.62 267.55 771.68 266.08 770.55 264.95 770.11 264.35 770.31 263.07 770.34 262.51 770.48 261.49 770.28 260.65 770.25 259.46 770.46 259.01 770.62 257.87 770.84 256.77 770.76 254.89 769.09 253.69 769.4 252.35 769.44 251.76 769.69 250.77 769 250.01 767.97 248.69 767.74 247.58 767.75 245.88 767.92 244.61 767.73 243.43 768.3 243.32 768.16 242.36 768.56 240.69 768.8 239.98 769.02 238.47 767.94 237.22 767.5 236.5 767.42 236.18 766.99 235.87 767.35 235.43 767.56 234.7 767.33 233.64 766.55 232.18 766.42 230.92 765.84 230 765.61 228.83 765.5 226.65 765.38 224.88 765.11 224.29 765.26 222.82 766.47 221.14 767.13 219.77 768.77 219.28 770.28 218.37 771.12 217.89 771.38 216.7 771.64 214.79 771.61 213.15 771.41 212.33 771.18 212 770.68 210.69 770.59 208.94 770.9 207.37 771.52 205.98 771.87 204.63 771.99 204.08 771.94 201.79 772.08 201.32 771.77 200.46 771.63 199.42 771.78 198.3 771.44 197.83 771.02 196.16 770.35 195.23 769.72 193.32 769.21 191.87 768.64 190.52 768.66 189.96 768.96 189.87 771.01 189.13 771.61 188.11 771.98 187.42 772.62 186.78 773.41 186.08 774.57 185.59 775.61 185.56 775.97 185.15 776.87 183.91 777.48 183.31 777.65 183.05 777.96 182.9 778.72 182.46 779.05 182.24 779.58 181.88 779.9 181.26 779.58 180.64 780.63 179.99 780.94 177.31 784.41 175.29 787.08 174.87 787.09 174.37 787.45 174.62 788.07 173.39 788.95 172.39 789.21 171.84 789.02 171.46 788.64 170.9 787.77 170.25 787.32 169.32 787.07 168.24 787.28 164.62 787.69 163.03 787.68 162.37 788.39 161.58 788.9 160.63 789.28 160.01 789.09 157.39 787.88 155.74 789.3 155.25 790.11 155.14 790.53 151.81 792.58 148.13 793.22 147.1 796.53 146.79 797.8 146.19 799.06 145.72 801.26 145.13 803.23 144.79 805.05 144.24 806.31 142.07 807.97 139.36 810.17 139.23 811.87 138.36 813.34 137.61 813.86 136.51 813.94 135.27 814.29 134.62 814.38 132.87 815.49 132.19 816.07 131.92 816.75 131.93 817.52 131.81 818.26 131.34 818.78 130.45 819.17 130.1 819.47 128.89 819.96 126.92 820.35 126.19 820.89 125.32 820.89 124.64 821.09 122.94 821.09 121.71 821.76 120.97 822.55 119.89 822.4 119.25 822.74 118.43 822.85 117.92 823.19 117.11 823.26 116.72 823.51 116.16 823.27 114.48 823.74 113.96 823.81 112.94 824.24 112.4 824.75 111.61 824.7 110.99 825.04 109.72 825.27 108.59 825.84 108.17 825.75 107.31 826.17 106.73 826.18 106.19 826.32 105.43 827.11 105.18 827.62 104.71 827.7 104.5 828.25 103.93 829.04 103.09 828.92 101.63 830.13 101.1 830.14 100.71 830.37 100.72 830.67 100.35 830.89 100.13 831.38 99.64 831.48 99.21 831.34 98.44 831.43 97.99 831.19 97.61 832.25 97.64 832.56 97.48 834.01 96.4 836.16 96.22 837.3 96.84 838.43 96.56 839.4 96.59 840.25 96.86 841.41 96.45 842.71 96.44 843.88 96.67 844.54 97.32 845.58 97.27 846.41 97.64 846.95 97.62 847.9 97.96 849 97.62 848.95 96.39 848.2 95.22 847.18 94.58 846.81 92.78 845.48 92.26 845.05 91.75 844.42 90.37 841.95 89.77 841.1 89.48 840.81 88.58 840.42 87.83 839.84 86.77 838.87 86.03 838.53 85.5 837.96 84.49 836.66 84.36 836.17 83.75 835.48 83.05 835.12 82.19 834.85 80.83 834.28 79.47 833.6 77.98 833.11 77.1 832.89 76.32 832.6 73.69 831.13 71.62 829.88 69.77 828.97 68.85 828.59 67.39 827.76 66.02 826.82 64.61 826.16 64.26 826.09 62.25 825.49 61.14 825.2 59.64 824.2 58.48 823.3 57.76 822.87 56.29 822.33 54.78 821.85 52.98 821.48 51.78 821.01 50.93 820.85 49.72 820.51 49.23 820.13 48.08 819.67 47.49 819.53 47.33 820.46 47.18 820.65 47.11 821.77 47.35 822.29 47.07 824.09 47.15 824.88 46.19 825.13 45.13 825.16 44.35 825.35 44.21 825.89 43.79 826.39 43.05 826.77 42.15 826.83 41.52 827.39 41.08 826.74 40.49 826.87 39.75 826.75 39.1 827.02 38.39 827.62 37.99 828.12 37.4 828.37 36.86 828.3 36.7 828.66 36.26 828.91 35.85 828.75 35.64 828.44 35.28 828.37 34.74 828.48 34.14 828.26 33.81 828.28 33.45 828.06 32.85 828.05 31.43 828.66 30.84 828.13 30.58 828.23 30.26 828.99 29.27 830.17 28.7 830.38 28.5 830.05 27.71 830.31 27.25 830.65 27.14 831.12 26.67 831.73 26.77 832.59 27.05 832.82 28.13 833.45 28.18 834.07 27.93 834.47 27.51 834.76 26.54 835.71 26.23 836.44 26.02 836.49 25.61 837.01 24.93 837.37 24.41 837.33 24.24 836.83 23.43 836.17 22.93 836.16 22.85 835.75 22.21 835.46 22.18 836.04 21.65 836.42 21.45 836.19 21.73 835.49 21.17 835.07 20.8 835.08 20.16 835.72 19.98 835.13 20.04 834.68 19.59 834.31 18.74 834.29 18.88 833.78 18.57 833.31 18.68 832.86 19.06 832.55 18.8 831.76 18.68 830.6 18.73 829.52 18.6 829.09 17.52 828.07 17.59 827.79 17.51 826.61 17.21 826.33 17.15 825.86 17.76 825.71 18.05 825.21 18.15 824.43 18.49 823.6 18.58 823.09 18.99 822.88 19.18 822.58 19.11 822.13 19.73 821.98 20.59 821.61 21.44 820.68 22.73 820.25 23.09 819.91 23.37 819.89 23.46 819.35 23.81 818.77 23.75 818.32 23.49 817.96 23.66 817.44 23.51 816.93 23.19 816.65 23.36 816.21 22.28 814.95 22.26 814.2 22.11 813.82 21.55 813.11 21.43 812.79 21.57 812.01 21.22 811.4 20.79 811.45 20.56 811.22 20.52 810.53 20.17 810.32 20.13 809.82 20.37 809.3 20.24 808.86 20.28 808.15 20.73 807.68 20.8 807.27 21.09 806.97 20.82 806.16 21.32 806.17 21.33 806.91 22.5 806.58 22.72 806.09 22.06 805.04 22.26 804.9 22.21 803.74 22.28 803.03 23.08 801.43 23.45 800.46 23.19 799.81 23.55 799.24 24.25 798.94 24.46 798.68 24.89 798.59 24.91 798.25 24.65 797.61 24.22 797.58 23.88 797.25 24.41 796.2 23.98 795.86 23.76 795.35 23.89 794.69 23.28 793.33 23.02 793.13 22.75 792.53 23.11 792.26 22.97 791.49 23.26 791.16 23.37 790.65 23.08 790.3 22.77 790.28 22.09 790.96 21.61 790.56 21.27 790.91 20.83 791.87 20.6 791.83 20.96 791.06 21.37 790.45 20.14 790 19.74 790 19.31 789.45 19.35 788.71 19.68 788 19.8 787.22 19.53 786.48 19.98 786 19.69 785.12 19.21 784.77 19.44 784.04 19.3 783.85 19.97 783.3 19.94 782.99 20.7 782.9 21.15 782.74 21.38 782.19 22.12 781.97 22.34 781.5 21.94 780.92 21.24 780.75 21.23 780.14 20.03 780.01 19.71 779.51 18.73 778.46 19.06 778.3 19.19 777.75 19.59 778.09 20.13 777.94 20.25 777.35 19.91 777.31 19.66 777.04 20.66 775.28 20.3 774.73 20.7 774.69 20.98 774.94 21.51 774.6 21.83 774.74 22.61 774.46 22.85 773.86 22.65 773.49 23 772.79 23.42 773.38 23.66 772.72 23.29 772.31 23.65 772.19 24.05 772.32 24.09 771.94 23.7 771.38 23.48 771.4 22.94 770.51 22.77 769.66 23.28 769.11 23.7 768.8 23.67 768.17 24.4 768.18 24.47 768.52 24.92 768.69 24.52 769.24 24.88 769.27 25.23 769.74 25.82 769.86 25.99 769.54 26.32 769.7 26.86 769.58 26.95 769.02 26.43 768.64 27.09 768.46 28.03 768.87 28.62 768.57 28.37 767.9 27.69 767.5 27.47 767.53 26.53 767.12 25.66 767.21 26.03 767.74 25.32 767.75 25.52 767.38 25.45 766.99 26.06 766.83 26.03 765.89 25.84 765.51 26 765.15 26.47 765.23 26.26 765.71 26.17 766.32 26.34 766.93 27.35 767.36 27.82 767.45 28.79 767.96 29.41 767.58 29.32 768.07 29.96 768.08 30.14 767.59 30.02 767.12 30.51 767.17 30.73 767.77 31.06 767.88 31.31 767.46 31.38 766.93 31.64 766.76 31.27 766.16 30.91 765.77 31.35 765.62 31.47 765.16 31.84 765.43 31.22 765.79 31.48 766.31 31.78 766.62 32.14 766.38 32.64 766.26 33.27 765.63 33.41 765.71 34.12 765.47 34.4 765.53 34.96 765.39 35.34 764.72 34.2 762.85 34.19 761.83 34.39 760.69 34.58 761.06 34.49 762.83 34.75 763.27 35.16 763.54 35.59 764.38 36.17 764.16 36.93 764.49 37.14 764.84 38.1 765.39 37.89 764.54 37.03 764.3 36.78 763.88 36.74 763.41 35.65 763.06 36.42 762.37 37.27 762.04 37.45 761.66 36.98 761.33 36.76 761.72 35.85 761.57 35.38 761.34 35.4 761.14 36.3 761.59 36.56 761.62 36.89 761.27 36.83 760.59 37.28 760.5 37.13 759.83 37.31 759.36 37.12 759.02 36.54 758.85 35.97 758.42 35.82 758.07 36.31 757.94 36.99 757.37 37.44 757.52 37.73 757.28 37.62 756.47 38.14 755.77 37.96 755.42 38.07 754.93 37.78 754.08 38.03 753.42 38.07 752.97 37.88 752.61 38.38 752.57 38.43 752.02 37.85 751.92 37.19 752.02 35.92 752.53 35.83 752.38 36.96 751.93 36.51 751.61 36.89 751.29 36.92 750.7 37.38 750.79 37.77 750.24 38.26 750.37 38.71 750.21 38.86 750.51 40.11 750.52 40.53 749.72 40.4 749.25 40.04 748.83 40.23 748.5 40.58 748.61 41.1 749 41.53 749.91 41.81 749.66 42.13 749.87 42.49 749.87 43.29 750.45 43.61 750.43 43.71 750.01 43.63 749.34 43.78 748.69 44.16 748.32 44.7 748.02 44.16 747.32 43.75 747.37 43.45 746.87 43.43 746.39 43.9 746.15 44.39 746.46 44.62 746.93 44.74 747.69 45.44 747.62 45.86 747.27 45.93 746.64 46.18 745.8 46.85 745.64 47.37 745.12 48.01 745.23 48.49 745.06 48.5 744.77 48.78 744.25 49.53 743.94 50.07 744.35 50.78 744.33 51.57 744.55 52.2 744.04 52.09 743.55 51.62 743.47 51.42 743.25 51.78 742.94 51.61 742.46 51.66 742.02 51.94 742.03 52.46 741.58 52.98 741.79 53.43 741.68 53.72 741.42 54.06 741.78 54.54 741.75 55.36 742.06 55.52 742.88 55.78 743.14 56.69 742.6 56.96 741.97 57.48 741.93 58.11 741.11 58.68 740.91 58.59 740.5 58.9 739.96 59.09 739.96 59.64 739.51 60.2 739.6 60.61 739.37 60.85 738.86 61.29 738.62 61.44 737.57 61.15 736.83 61.23 736.49 61.15 735.64 61.79 734.74 61.92 734.77 62.57 734.09 63.07 733.88 63.32 733.6 64.17 733.57 64.64 733.23 65.26 732.46 65.42 732.6 66.19 732.36 67.31 732.09 67.72 731.67 68.13 731.65 68.66 731.81 68.96 731.29 69.17 730.45 69.16 729.24 69.86 728.71 70.12 728.2 71.22 728.22 71.23 727.53 70.29 726.78 69.95 726.06 70.11 725.95 70.44 726.69 71.54 727.62 71.77 727.4 71 726.24 70.81 725.86 70.12 725.6 70.22 724.63 69.89 724.13 69.95 723.75 70.4 723.53 70.76 723.6 70.61 722.91 71.39 722.59 71.03 722.18 71.33 721.84 71.81 721.78 71.76 721.33 72.17 721.41 72.7 721.7 73.35 721.65 73.92 721.04 73.95 720.78 74.5 720.77 74.74 720.39 74.36 719.94 74.46 719.68 74.94 719.89 75.38 719.14 75.61 719.07 75.68 718.42 76.57 718.16 76.56 717.7 77.19 716.83 76.99 716.2 77.11 715.53 76.76 715.59 76.6 715.33 77.09 714.56 76.97 714.09 77.13 713.55 77.77 713.55 78.24 713.87 78.41 714.28 78.32 714.75 78.81 714.88 79.3 714.69 80.02 715.14 80.12 714.86 81.13 715.15 81.62 714.82 82.31 714.67 82.15 713.95 82.77 714.44 82.85 714.78 83.25 715.13 83.67 715.03 83.7 714.57 83.19 714.48 83.4 714.16 83.14 713.76 82.46 713.34 81.93 712.73 82.28 712.44 83.24 713.54 83.54 713.35 84.19 714.2 84.16 714.63 84.52 715.34 85.13 715.37 85.26 715.56 85.9 715.56 86.08 715.43 87.04 715.23 87.45 715.73 88.46 715.72 89.42 715.34 89.2 714.76 89.4 714.14 89.73 714.18 90.16 714.55 90.46 714.13 90.3 713.14 90 713.05 89.88 713.66 89.19 713.5 89.13 713.03 89.39 712.24 89.67 712.16 89.83 711.47 89.4 711.26 89.86 710.8 90.28 709.97 90.69 709.92 91.32 710.13 91.25 708.94 91.55 708.84 92.39 709.15 93.05 708.99 93.59 709.49 93.8 709.95 94.1 709.93 94.88 709.6 94.98 709.03 95.77 709.13 96.34 708.7 96.22 708.06 96.56 707.97 96.43 707.25 96.84 706.96 96.72 706.39 96.82 705.58 97.27 705.17 97.74 704.49 97.31 704.17 97.6 703.91 97.83 704.32 98.12 704.47 98.91 704.25 99.03 703.97 99.58 703.96 99.45 703.34 100.04 703.18 100.06 703.84 100.8 703.75 100.79 703.31 101.36 703.49 101.53 702.86 102.34 702.99 103.09 702.67 103.49 702.85 104.44 702.14 104.7 701.71 104.51 701.38 105.03 700.8 104.86 700.28 105.05 699.25 105.59 698.56 105.1 698.09 104.53 698.66 104 698.59 103.71 698.33 103.04 698.97 102.94 698.75 103.43 698.29 104.02 697.98 104.35 697.53 105.19 697.5 105.29 696.9 105.63 696.91 105.72 696.37 106.16 695.64 105.73 695.18 105.74 694.07 106.33 693.47 106.41 692.68 106.98 692.89 107.34 693.16 107.69 692.91 108.4 692.91 108.65 693.2 108.98 692.8 109.39 693.01 108.52 694.05 109.86 694.5 110.47 694.53 110.88 694.09 111.55 693.17 111.94 693.43 112.47 692.99 112.48 692.45 111.72 691.43 111.14 691.03 109.5 692.9 109.2 692.56 110 691.61 110.92 690.61 109.88 690.05 109.48 689.99 108.1 689.22 107.77 688.66 107.1 685.4 107.44 685.63 107.96 687.95 109.88 688.96 110.88 687.85 113.96 684.35 114.18 684.17 114.85 684.78 115.64 684.55 116.12 684.79 116.43 685.19 116.72 684.73 116.62 684.52 115.65 680.7 114.13 681.05 114.07 680.74 115.58 680.36 115.86 680.4 115.76 677.71 114.93 678.44 114.97 677.4 114.38 677.02 112.92 677.48 112.48 678.16 111.96 679.61 112.45 679.64 112.82 680.27 112.27 680.6 111.89 680.3 111.9 681.05 112.17 682.26 112.47 682.76 112.34 683.09 111.75 683.89 110.33 683.9 106.91 684.01 106.03 684.13 105.94 683.68 109.43 683.7 111.49 683.67 112.1 683 112.13 682.61 111.65 681.66 111.74 681.41 111.62 680.86 111.75 679.82 111.36 679.78 111.34 679.26 111.05 678.68 111.6 678.23 111.86 678.41 112.25 678.19 112.24 677.88 111.94 677.48 111.99 677.15 112.64 676.91 113.08 677.23 114.3 676.89 114.28 676.52 113.29 676.17 112.76 676.16 112.96 675.41 113.42 675.23 113.96 674.77 114.32 675.03 114.18 675.44 114.34 675.65 114.22 676.06 114.75 676.23 115.31 676.72 115.37 677.16 115.63 677.49 116.1 677.64 116.79 676.33 116.91 676.39 116.36 677.44 116.86 677.75 117.12 677.16 117.49 676.95 117.59 676.23 117.42 675.42 116.94 676.33 116.83 676.27 117.57 674.94 117.97 674.86 117.77 674.3 117.32 674.51 117.15 674.04 117.42 673.49 117.45 672.87 117.62 672.33 117.18 671.79 117.24 670.73 116.84 670.6 116.67 670.83 116.17 670.91 115.7 670.44 115.74 669.81 116.49 669.56 117.06 668.85 117.34 668.15 117.34 667.84 116.79 667.04 116.02 666.49 115.88 665.83 116.13 665.62 116.23 665.08 115.72 664.85 115.4 664.38 115.77 664.09 115.91 663.37 116.33 663.45 116.85 662.7 116.8 662.02 117.17 661.21 117.95 661.29 117.89 662.2 118.7 662.33 119.21 662.2 119.6 662.42 120.13 662.31 122.64 662.2 123.21 661.91 123.78 661.22 123.39 660.64 123.97 659.96 124.34 660.03 124.26 660.55 124.94 660.8 125.21 661.19 125.68 662.15 125.97 662.5 125.78 663.06 126.02 663.44 126.54 663.69 126.84 663.17 126.76 662.7 127.5 662.18 127.35 661.74 127.51 661.51 128.2 661.2 128.3 660.67 127.96 660.34 128.64 660.17 128.44 659.5 128.59 659 129.51 658.56 129.72 658.36 129.72 657.78 129.33 657.48 129.38 657.18 129.09 656.94 129.42 656.4 129.8 656.23 130.15 656.37 130.31 656.68 130.69 656.57 130.56 656.18 130.59 655.58 130.8 655.51 131.01 654.79 130.96 654.07 131.13 653.72 131.07 652.81 131.53 653.31 131.84 653.45 131.63 653.89 131.74 654.3 132.29 654.38 132.23 653.53 133.28 653.17 133.3 653.4 132.62 653.57 132.81 654.49 132.49 654.47 132.43 654.98 132.83 654.84 133.09 655.23 133.66 655.01 134.49 655.11 135.16 654.78 135.48 654.97 136.71 654.51 137.06 654.64 137.21 654.25 136.93 653.82 136.79 653.06 137.05 652.79 137.98 652.27 138.68 652.4 138.61 652.77 139.25 653.25 140.02 652.77 140.28 653.07 141.12 653.46 141.56 653.52 141.86 653.82 141.67 654.05 142.06 654.39 142.72 654.43 143.94 653.92 144.54 653.48 145 653.82 145.92 653.54 146.05 653.25 145.91 652.25 146.34 652.62 146.76 652.16 146.8 651.33 147.23 651.46 147.62 651.08 147.63 650.51 148.43 650.53 149.2 650.34 149.61 649.91 150.25 650.5 150.93 649.91 151.24 650.22 151.54 649.82 152.12 649.76 152.46 649.58 152.83 649.08 152.66 648.71 153.15 648.42 153.51 647.7 154.13 647.86 154.59 647.81 154.6 647.55 155.22 646.73 155.06 646 155.52 646.07 156.24 645.97 156.14 645.67 156.34 645.13 157.3 645.06 157.77 644.78 158.34 644.04 158.7 643.34 158.34 642.68 158.33 642.26 158.7 641.98 158.38 641.57 158.93 641.41 159.1 641.02 159.75 641.07 159.67 640.63 159.84 640.32 160.43 639.86 160.52 639.37 160.77 638.95 160.39 638.4 160.48 637.83 161.05 637.72 160.93 637.33 161.03 636.83 161.47 636.67 161.99 636.3 161.95 635.84 162.19 635.77 162.38 635.33 162.69 635.14 162.35 634 162.64 633.47 162.52 632.73 161.18 632.28 160.67 631.9 160.53 630.92 160.86 630.27 160.86 629.73 160.47 629.48 160.18 628.94 160.36 628.69 160.25 628.21 160.65 627.84 161.51 627.4 162.12 626.92 162.25 626.33 162.61 625.98 163.03 625.95 163.24 625.5 163.89 625.26 164.19 624.52 164.68 624.07 165.09 623.88 165.77 623.81 166.19 624.08 166.78 623.97 167.18 624.33 167.65 624.45 168.36 624.15 168.73 624.78 168.83 625.53 169.8 625.65 170.14 626 170.84 626.04 171.11 626.42 171.51 626.27 172.19 626.48 172.52 626.13 172.51 623.57 172.44 621.61 172.51 621.34 174.3 620.6 174.42 620.68 176.44 619.82 176.83 619.81 181.17 621.48 181.1 621.67 178.62 620.72 178.58 620.77 173.98 622.71 175.07 625.23 175.76 624.95 176.85 625.32 177.95 624.79 178.78 623.52 178.87 623.93 178.13 625.08 176.86 625.57 176.06 625.5 173.85 626.5 173.59 627.25 173.32 627.6 172.9 627.1 172.73 627.28 172.63 627.9 172.88 628.27 172.8 628.81 173.31 628.56 173.27 628.14 173.64 627.53 174.02 627.75 174.17 627.44 175.93 627.44 176.71 626.49 178.26 627 179.62 625.39 179.35 624.94 179.3 623.95 179.66 624.08 179.64 625 180.34 625.57 180.67 625.57 180.84 625.1 181.24 625.2 182.1 624.64 182.92 624.24 183.37 624.34 183.7 624.64 184.36 625.69 184.14 626 184.29 626.55 184.65 626.7 185.11 627.15 185.67 627.36 186.4 627.49 187.65 626.81 187.96 626.19 188.16 626.4 188.2 626.86 188.69 626.85 188.9 627.11 189.42 627.13 189.53 626.13 190.2 626.27 190.9 625.2 190.9 624.69 191.05 623.95 191.73 622.98 192.49 622.76 192.91 622.41 194.1 621.86 194.76 621.63 195.41 621.56 196.09 621.22 196.82 621.27 197.19 621.01 197.32 620 198.17 619.12 198.4 619.36 199.21 619.81 199.47 620.06 200.19 620.04 200.58 619.92 201.02 620.07 201.41 619.55 201.83 619.67 201.45 620.18 202.14 620.52 202.62 620.1 202.79 619.31 203.01 618.84 202.92 617.77 204.1 615.31 204.59 614.77 205.64 614.46 206.46 613.97 207 613.8 207.26 613.57 208.51 613.12 208.95 612.89 209.47 612.89 210.03 612.7 211.01 612.88 211.41 613.11 212.04 613.24 212.22 613.43 214.05 613.83 215.7 613.79 216.35 613.58 217.37 613.99 217.64 614.34 218 614.27 218.72 614.36 219.38 614.06 220.02 613.54 220.15 613.28 220.56 613.11 220.83 612.81 221.43 612.64 221.51 612.39 222.62 611.56 223.08 610.95 223.67 610.65 223.92 610.12 224.39 610.25 224.86 609.57 225.12 609.58 226.16 608.39 226.32 607.93 226.69 608.09 226.97 607.6 226.39 607.03 225.97 607.01 225.31 607.26 225.3 606.99 226.08 606.67 226.35 606.16 227.28 607.54 229.42 607.97 230.16 607.62 231.03 606.76 231.4 606.04 231.39 605.22 231.89 604.34 232.38 603.73 232.85 603.35 233.46 603.03 234.22 602.76 234.73 602.14 235.09 601.87 235.92 602.05 236.52 601.89 237.09 601.86 238.59 601.37 239.33 601.79 239.58 601.67 240.61 601.83 240.75 602.17 240.65 602.69 240.45 602.84 240.63 603.74 241 604.43 242.02 604.83 242.19 605.21 241.64 605.15 241.58 605.71 241.82 605.72 242.64 606.43 242.67 606.74 243.66 607.9 244.13 607.93 244.57 607.76 245.36 608.13 245.9 607.9 246.55 608.04 247.06 608.39 248 608.89 248.96 608.84 249.08 608.65 249.62 608.79 249.65 608.39 250.18 608.1 249.93 607.54 250.11 607.33 250.55 607.29 250.56 606.8 251.09 606.84 251.4 606.3 251.35 606.09 252.09 606.12 252.69 605.82 253.28 606.41 253.86 606.5 254.13 606.9 254.8 606.87 254.8 605.52 254.95 605.53 254.97 606.9 255.1 607.09 255.72 606.69 256.25 606.79 256.31 606.43 256.91 606.01 256.47 605.36 257.12 605.11 257.28 604.5 257.12 603.83 257.11 603.29 257.6 602.41 257.72 602.02 258.64 601.7 259.11 601.26 259.51 601.08 261.34 601.34 261.71 601.25 262.13 600.83 262.83 600.9 263.17 601.2 264.41 601.45 264.71 601.29 265.73 602.25 266.49 602.39 267.17 601.91 267.23 601.25 267.58 600.91 268.32 600.53 268.54 600.63 269.09 600.39 268.78 599.72 268.28 599.76 268.52 599.26 268.21 598.98 268.18 598.53 268.82 598.44 269.19 597.87 269.78 597.37 270.25 597.14 271.23 597.14 271.32 597.44 271.84 597.43 271.97 597.14 271.65 595.76 272.35 595.51 272.61 595.53 273.11 595.11 273.4 595.5 273.82 595 274.37 595.04 274.97 594.57 275.89 594.4 275.96 594.65 275.33 594.69 274.13 595.53 274.15 596.01 274.65 596.01 274.42 595.6 274.81 595.48 274.99 595.83 275.63 595.49 275.72 596.22 275.58 596.67 276.03 596.92 276.74 596.76 276.86 596.55 277.49 596.34 278.2 596.85 278.47 596.67 278.63 596.19 279.22 596.57 279.83 596.56 280.02 596.33 280.68 596.35 281.35 596.01 282 595.45 282.36 595.29 282.55 595.53 283.85 595.56 283.92 595.2 284.57 594.71 285.3 594.48 286.05 594.85 286.37 594.84 287.02 594.57 287.93 594.45 288.41 594.16 288.35 593.62 288.51 593.16 289 593.25 289.08 592.96 290.12 593.24 290.43 593 290.25 592.55 290.49 592.38 290.57 591.85 291.33 592.26 291.81 591.91 292.59 591.67 292.82 591.4 293.18 591.44 294.09 591.76 294.05 592.04 295.36 592.23 296.22 592.63 296.53 592.59 297.25 593.06 298.31 593.18 299.23 592.76 300.18 591.7 300.76 590.68 301.23 589.22 299.29 588 299.52 587.9 300.2 587.19 301.06 586.08 301.15 585.76 300.61 585.37 299.08 587.35 298.85 587.09 300.51 585.01 301.21 585.48 301.44 585.21 302.72 585.29 303.25 585.99 304.22 585.99 304.89 585.87 305.36 585.4 306.76 585.24 307.12 585.29 307.26 585.73 308.34 585.8 308.34 586.49 308.96 586.7 309.67 586.47 309.91 584.55 310.15 583.03 310.1 580.24 310.44 579.5 311.08 578.86 311.43 579.18 311.06 579.34 310.62 579.79 310.43 580.34 310.47 582.41 310.88 582.79 311.29 582.8 311.3 582.44 312.3 582.4 312.8 583.17 313.03 584.09 313.51 584.27 313.67 584.1 313.44 583.56 313.01 583.17 312.65 582.59 313.22 582.31 312.72 581.04 312.66 580.26 311.52 580.27 311.84 579.98 312.99 579.99 313.59 579.91 314.26 579.01 314.53 578.79 315.02 579.06 316.14 579.91 316.37 579.91 316.67 579.52 316.89 579.77 318 579.35 318.14 579.16 318.83 579.2 319.64 578.85 320.28 578.95 321.84 579.45 322.22 579.16 323.02 579.43 323.83 578.97 324.1 578.19 324.86 577.51 325.04 577.56 324.21 578.36 324.07 579.46 324.4 579.22 324.48 578.85 325.31 578.66 325.58 579 326.24 578.8 326.55 578.24 326.86 578.29 327.66 578.09 327.82 577.79 328.15 577.92 329.11 577.46 329.54 576.36 329.23 576.25 329.1 575.8 329.47 575.74 329.54 575.28 330.09 574.02 329.67 573.48 330.36 573.07 330.77 572.72 330.92 572.38 331 571.37 331.45 570.46 331.72 570.19 332.39 569.89 332.58 569.26 333.07 568.86 333.64 568.81 334.55 568.13 335.08 568.09 335.21 567.77 335.61 568.08 336.02 568.19 336.82 568.07 337.29 567.79 337.52 567.48 338.29 567.6 338.87 567.37 339.15 567.11 339.13 566.76 339.63 566.22 339.82 566.58 340.33 566.59 340.41 566.3 340.98 566.44 341.56 566.71 342.2 566.74 343.02 567.03 344.17 567.19 344.68 567.84 344.88 568.29 345.27 568.8 345.74 568.98 345.9 570.16 346.73 570.37 347.42 570.4 347.97 569.98 348.39 569.91 348.18 570.51 349.19 570.94 349.91 570.7 350.65 570.83 351.39 571.4 352.96 571.14 353.07 571.41 353.81 571.51 354.15 571.98 355.12 572.1 355.61 572.27 356.14 572.23 356.73 571.77 357.01 572.08 357.29 571.97 357.6 572.23 358.27 572 359.3 572.16 359.31 571.76 359.76 570.78 360.33 570.49 360.81 570.73 360.72 569.75 360.92 568.83 361.34 568.35 361.68 568.15 362.34 568 362.84 568.12 366.92 568.8 372 569.62 372.17 569.32 372.31 567.32 372.66 566.35 373.58 564.77 374.03 564.11 374.38 564.29 374.07 564.85 373.79 565.06 372.84 566.66 372.64 567.3 372.6 567.97 373.22 567.95 373.19 568.92 372.54 570.68 372.8 570.82 373.55 570.22 374.78 570.07 374.95 570.67 375.7 570.29 376.31 569.76 377.3 569.81 377.41 569 376.68 569 376.65 567.98 375.31 566.33 374.99 566.46 374.77 566.85 374.36 566.73 375 565.9 375.74 565.52 376.85 564.61 378.3 563.34 381.05 558.63 384.53 552.74 384.63 552.49 385.08 552.58 385 552.86 383.76 554.66 382.15 557.49 381.57 558.38 381 559.41 379.61 561.7 379.37 562.19 378.45 563.55 375.59 565.99 376.93 567.62 377.15 567.77 377.98 567.1 379.07 567.73 381.23 565.98 380.15 564.69 380.97 563.97 382.16 565.39 382.57 565.37 384.02 564.6 383.35 563.35 384.63 562.66 385.49 564.26 386.36 564.23 386.33 563.21 386.68 563.13 386.47 559.1 386.71 558.86 385.25 557.28 385.05 556.76 385.27 556.58 387.01 558.43 387.24 558.52 389.4 558.52 389.61 562.39 390.03 562.54 396.54 562.75 396.5 564.38 394.94 564.49 394.42 564.64 394.09 564.55 393.7 565.35 393.22 565.64 392.69 565.7 392.12 565.52 391.14 564.85 389.24 564.92 388.31 565.01 388.59 565.33 389.05 565.18 389.77 565.18 390.22 565.35 391.35 566.3 391.75 566.74 392.44 566.87 393.25 566.84 393.72 567.01 394.51 566.94 394.38 566.39 394.83 565.76 395.26 565.54 395.83 565.44 396.07 565.72 396.42 565.73 397.35 566.15 397.71 566.07 398.3 566.28 398.54 566.15 399.22 565.39 400.11 565.13 400.59 565.28 400.92 564.59 401.78 564.7 402.04 564.2 401.9 564.04 401.89 563.28 402.17 562.62 402.93 561.94 403.15 561.37 402.86 560.89 403.3 560.85 403.57 560.57 404.54 559.02 404.84 558.88 405.79 559.32 405.79 559.57 406.33 559.62 409.13 558.89 408.93 559.19 406.9 559.7 406.95 560.75 407.62 561.09 407.5 561.79 407.22 561.77 406.89 562.25 407.88 562.79 408.24 561.96 409.59 562.02 409.61 561.68 408.53 561.41 408.55 561.2 409.49 561.51 409.66 561.1 409.71 560.08 410.39 559.61 410.36 559.36 410.92 559.15 411.51 559.34 411.77 559.93 412.46 560.1 412.65 560.45 413.4 561.02 414.71 561.02 415.54 561.53 416.16 561.52 416.02 560.88 416.4 560.41 416.4 559.14 416.71 558.94 416.74 558.56 417.01 558.38 417.89 558.56 418.13 558.33 418.98 558.31 418.86 558.68 418.96 559.16 418.55 559.41 418.87 560.21 420.17 560.48 420.74 560.8 420.74 561.34 421.36 561.5 421.76 561.92 421.94 562.39 422.52 562.16 422.69 561.9 423.31 562 423.71 561.65 424.14 561.53 424.93 561.89 425.4 561.65 425.49 561.11 426.18 561.08 426.25 561.3 426.87 561.47 427.41 561.1 428.38 560.25 429.21 559.09 429.55 559 429.99 558.21 430.46 557.66 430.88 557.39 430.63 556.81 430.68 556.1 430.47 555.56 430.91 555.09 431.17 555.05 431.28 554.64 430.99 553.85 431 553.58 431.37 553.02 431.56 552.45 431.84 552.56 431.67 553.04 431.17 553.65 431.32 554.21 431.59 554.36 432.94 553.84 432.52 553.58 432.15 553.65 431.89 553.29 433.08 553.37 433.22 553.03 432.9 552.61 432.86 552.19 438.15 547.94 438.73 547.52 439.1 547.45 439.47 547.87 440.07 548.86 440.43 548.57 440.91 548.44 441.8 548.4 442.16 548.75 442.91 549.23 443.55 549.32 443.59 549.8 444.17 550.51 444.96 550.37 445.31 550.11 445.46 549.33 445.96 550.08 446.82 550 447.28 549.65 448.36 549.73 448.6 549.41 449.25 549.61 449.6 550.85 449.81 550.88 450.58 550.08 450.63 549.45 451.05 549.26 451.48 549.63 452.34 549.96 452.75 549.76 452.74 549.18 452.49 548.67 452.99 548.78 453.24 548.58 453.04 548.09 453.45 547.78 453.48 547.19 453.7 546.87 455.48 547.32 456.2 547.23 457.16 547.68 457.75 547.18 457.88 546.82 458.95 547.35 459.22 547.04 459.65 547.58 460.12 547.37 459.89 546.95 460.05 546.76 460.85 546.61 461.04 547.04 461.34 547.13 462.21 547.01 462.55 546.64 462.44 546.02 462.7 545.66 463.05 545.57 463.6 545.77 463.61 546.01 463.25 546.42 463.59 547.26 464.12 547.31 464.89 547.62 464.79 548.01 465.48 548.44 465.77 549.1 466.43 549.24 466.77 548.76 466.8 548.36 467.34 548.24 467.15 547.67 467.29 547.26 467.73 546.91 467.39 546.39 467.72 545.52 468.14 545.11 467.89 544.6 468.26 544.49 468.6 545.02 468.54 545.69 468.36 546.02 468.38 546.54 468.2 547.76 468.57 548.03 469.24 548.28 469.43 548.02 469.9 547.9 470.4 548.05 470.96 547.72 471.2 547.78 471.2 548.46 471.78 548.72 472.02 549.06 472.69 549.15 472.76 549.71 473.25 549.31 474.2 549.17 474.59 549.43 475.04 548.9 475.42 548.9 475.18 548.12 474.77 547.8 474.54 547.29 473.89 547.29 473.84 546.81 474.6 546.38 474.65 545.93 475.34 546.32 475.46 545.61 475.92 545.7 476.15 545.54 475.19 544.47 474.79 544.54 474.72 544.17 475.77 544.36 476.11 544.62 476.46 544.48 476.32 543.9 475.9 543.64 475.52 543.92 475.27 543.66 474.61 543.56 474.33 543.74 473.93 542.66 472.69 542.55 472.69 542.44 474.03 542.52 474.33 542.32 474.38 541.54 474 540.94 474.11 540.66 474.84 540.67 474.82 540.22 474.58 539.82 474.83 539 475.35 538.9 476.66 538.86 476.79 538.68 477.5 538.59 478.41 538.91 478.89 538.48 479.15 538.03 479.16 537.29 479.97 536.17 479.62 535.64 479.15 535.8 479.15 535.4 478.37 535.23 478.02 534.78 478.72 534.51 478.93 534.9 479.7 535.07 480.24 534.94 480.4 534.66 480.08 534.28 480.35 533.97 480.45 533.53 480.29 533.06 480.52 532.8 480.83 532.87 481.8 531.8 482.24 531.5 482.69 531.42 483.26 531.53 483.52 531.11 483.21 530.24 483.04 530.12 482.6 530.69 482.22 530.39 482.66 530.18 482.59 529.77 483.08 529.59 482.97 529.1 483.48 529.1 483.87 528.39 483.84 527.67 483.7 527.4 484.09 526.96 484.5 527.12 485.1 527.86 485.49 528.05 486.25 527.84 486.96 529.02 487.55 529.27 487.86 529.74 488.46 529.82 488.45 529.22 488.85 529.11 488.75 529.64 489.35 529.66 488.79 530.56 488.69 531.09 488.48 531.34 488.23 532.42 487.92 532.68 487.63 533.64 487.17 534.03 487.11 534.26 487.54 534.66 488.85 534.95 490.05 534.9 490.47 534.74 491.36 533.84 491.27 533.45 491.73 532.83 491.47 532.24 491.72 531.61 492.17 531.86 492.35 531.35 491.72 530.89 492.15 530.35 492.5 530.68 492.49 531.09 492.74 531.41 491.96 532.26 492.27 532.55 492.98 531.99 493.79 532.14 494.23 532.56 494.32 532.96 494.63 533.23 495.01 533.16 495.37 533.79 495.18 534.18 494.7 534.37 494.09 535.18 493.84 534.9 493.44 535.07 493.3 535.39 493.69 536.07 494.86 536.67 495.56 536.29 495.76 535.74 496.25 535.76 496.27 536.01 497.28 536.34 497.76 536.58 498.27 537.08 499.09 537.5 499.36 537.27 499.95 538.38 500.1 538.97 500.47 538.54 500.13 538.19 500.14 537.63 500.71 537.99 500.89 537.95 500.61 535.84 500.94 536.1 500.98 537.7 501.05 538.46 501.3 538.78 501.47 539.42 502.2 540.04 502.53 540.9 502.75 541.13 503.91 541.77 504.25 541.86 505.75 541.84 506.14 541.59 506.61 540.83 506.42 540.37 506.88 539.78 507.13 540.19 507.77 540.5 508.06 540.9 508.48 541.06 508.91 540.84 509.35 540.29 509.4 539.84 510 539.76 510.45 539.53 510.77 539.67 511.34 539.64 511.81 539.8 512.3 539.57 512.74 539.21 512.3 538.1 512.27 537.67 512.78 535.3 513.02 534.53 513.47 533.72 513.75 532.95 513.95 532.78 514.82 531.49 516.03 530.85 516.55 530.78 517.41 530.99 518.47 530.88 518.98 531.36 519.42 532.09 519.68 532.72 520.58 534.15 521.04 534.44 521.77 535.61 522.28 535.55 522.16 535 522.28 534.17 523.03 534.2 524.07 534.75 524.64 534.65 525.16 535.11 526.48 535.48 527.25 535.42 527.94 535.17 527.52 534.37 527.37 533.87 528.13 533.46 528.37 533.09 528.24 532.55 528.29 532.16 528.58 531.92 529.15 532.22 529.5 532.57 530.2 532.66 530.74 532.13 531.36 531.85 531.97 532.52 531.1 532.81 531.23 533.23 531.88 533.28 532.19 533.02 532.71 533.41 532.93 533.29 532.45 532.47 533.17 532.21 532.81 531.64 533.55 531.74 533.71 531.94 534.16 531.71 534.7 531.65 534.97 531.36 535.41 530.55 535.82 530.55 536.04 530.31 536.45 530.39 536.89 530.11 537.44 529.99 537.68 530.37 538.54 530.52 539.11 530.46 540.4 530.19 540.93 529.99 541.25 530.11 541.68 529.99 542.2 530.19 543.12 529.86 544.03 529.21 544.6 529.03 544.87 529.14 545.71 529.13 545.91 528.98 546.46 529.11 546.65 529.34 547.65 529.17 547.84 528.68 548.35 528.66 548.85 528.95 549.1 528.62 549.52 528.69 549.76 528.47 549.65 528.16 550.04 527.62 550.67 527.37 551.05 527.66 551.11 528.33 550.44 528.35 550.94 528.89 551.26 529.49 551.71 529.05 552.49 528.97 552.9 529.68 553.56 529.16 553.58 528.48 554.01 528.39 554.23 528.14 555.48 527.68 555.13 526.59 555.42 526.52 555.82 525.8 555.86 524.93 556.2 524.68 556.73 525.02 557.28 524.93 557.93 524.6 558.9 524.53 559.4 524.86 559.64 524.74 560.33 524.93 561.16 524.79 561.61 524.49 562.11 524.62 562.4 524.42 562.47 523.66 563.26 523.14 563.88 522.87 563.95 522.65 564.88 521.9 565.21 522.18 565.39 521.91 565.92 521.96 565.84 521.49 565.91 520.58 565.48 519.72 565.91 519.41 566.25 519.5 565.97 520.17 566.06 521.45 566.91 521.93 567.14 522.4 567.99 522.8 568.13 522.71 568.7 523.24 568.85 523.61 569.24 523.84 569.7 523.89 570.24 523.19 570.64 523.37 571.38 524.01 571.98 524.1 571.89 524.57 573.51 521.71 573.97 521.54 576.43 520.94 576.77 520.96 576.82 521.33 576.35 521.35 574.08 521.84 573.62 522 572.64 523.66 572.86 524.09 573.46 523.99 573.77 524.67 573.18 525.05 572.84 525.48 572.82 525.92 573.27 525.98 573.02 526.44 572.95 527.1 573.61 527.71 573.67 528.12 574.29 528.38 574.75 528.4 575.6 527.96 576.2 527.28 576.59 527.29 577.09 527.1 577.26 526.62 577.65 526.59 577.67 526.29 577.99 526.11 578.31 526.4 579.22 525.82 579.5 525.42 580.02 525.66 580.32 526.1 580.33 526.7 579.95 527.06 579.98 527.43 580.35 527.62 581.05 527.35 580.77 526.14 580.47 525.44 579.72 524.86 578.96 524.79 578.04 525.14 577.8 525.81 577.3 525.8 576.96 525.37 576.51 525.5 576.11 525.29 575.13 525.16 575.17 524.66 576.51 523.87 576.82 523.75 576.18 522.68 576.13 522.15 577.06 523.67 577.52 523.45 577.78 523.69 577.85 524.44 578.21 524.64 578.47 524.3 578.76 524.53 579.39 524.18 579.58 524.59 580.18 524.29 580.28 524.81 580.75 524.88 581.01 524.73 581.6 523.57 582.21 524.33 582.49 524.39 582.89 525.03 583.18 524.95 583.96 524.35 584 524.06 584.62 523.79 584.43 523.5 584.74 523.2 585.23 523.98 585.91 524.35 586.89 524.24 587.75 524.26 587.63 523.87 588.1 523.64 588.5 522.94 589.38 523.13 589.66 523.95 590.22 523.79 590.31 524.13 591.02 524.88 592.36 525.02 592.34 525.22 590.73 524.98 590.68 525.33 591.05 525.58 592.31 525.85 593.18 525.64 592.8 525.32 592.87 524.97 593.53 525.03 593.79 525.29 594.24 524.98 594.16 523.79 594.52 524.06 594.68 523.72 595.1 523.63 595.6 524.15 596.21 523.75 596.45 524.01 596.92 523.38 596.66 522.76 597.14 522.71 597.18 522.45 596.78 522.15 596.95 521.37 596.21 520.12 596.43 519.24 596.67 518.97 597.12 519.45 597.43 519.36 597.7 518.94 598.01 518.11 597.22 517.46 597.64 517.23 597.6 516.68 597.32 516.75 596.94 516.36 597.03 516.07 597.42 515.98 597.72 516.42 598.33 516.09 599.11 516.2 599.85 515.7 600.43 515.65 600.88 516.17 601.78 516.45 602.43 516.74 602.68 516.35 603.14 516.42 603.52 516.71 603.34 517.32 602.78 517.07 602.28 517.07 602.46 517.49 604.07 517.48 604.3 516.87 604.86 517.44 605.14 517.43 606.18 516.61 606.51 516.17 607.13 515.87 607.59 516.63 607.53 516.86 608.08 517.13 608.32 516.66 608.72 516.79 609.09 516.43 609.32 517.2 609.82 517.78 609.84 518.32 610.38 518.36 609.72 519.34 609.59 520.26 609.07 521.15 609.79 521.11 610.25 520.94 610.43 520.34 611 520.13 611.5 519.71 611.5 519.32 611.85 518.68 612.51 518.46 612.01 517.95 612.81 517.61 613.13 517.71 613.34 517.11 613.07 516.3 613.23 515.82 613.81 516.12 613.47 517.03 613.35 517.9 613.45 518.12 614.05 518.08 614.97 518.17 615.35 517.77 615.77 517.64 616.01 517.32 615.98 516.96 616.24 516.61 616.82 517.1 617.03 516.79 618 516.87 618.11 517.45 617.51 517.99 617.63 518.68 618.13 518.43 618.95 518.95 618.5 519.39 618.12 519.49 618.21 519.88 618.73 520.08 619.14 520.53 619.92 520.31 620.42 520.47 620.91 520.27 621.11 520.47 621.85 520.62 621.89 520.88 622.66 521.25 623.01 520.76 623.54 521.08 623.62 521.57 623.89 521.78 624.54 521.61 624.94 521.84 624.84 522.33 624.94 522.71 625.53 522.37 626.02 522.7 626.26 522.62 626.77 522.84 627.11 522.79 627.52 523.03 627.55 523.42 628.84 524.84 629.66 524.64 630.33 524.94 630.2 525.11 629.62 524.81 628.38 525.14 628.28 525.65 628.35 526.08 629 525.83 629.14 526.37 629.53 526.92 630.28 527.49 631.12 527.78 632.05 527.84 632.61 527.71 633.47 527.29 633.86 527.25 634.62 525.57 634.7 525.19 635.65 524.87 636.34 524.81 636.97 525.48 638.2 526.34 638.52 526.36 638.62 525.29 639.55 525.18 639.6 525.45 639.31 525.79 639.46 526.28 640.51 526.5 640.68 525.99 640.13 525.56 640.17 524.86 640.6 524.72 640.76 525.11 641.14 525.3 641.56 525.22 644.11 523.85 644.68 523.39 645.58 523.18 645.74 522.78 646.15 522.59 646.67 522.55 646.87 522.15 646.69 521.23 646.16 520.68 646.93 520.2 647.32 520.81 647.52 520.79 648.25 521.38 648.8 521.19 649.14 521.59 649.65 521.53 650.96 522.19 651.85 521.66 652.47 521.57 652.65 522.1 653.11 522.41 653.77 522.6 653.96 522.37 654.46 522.44 654.82 523.26 655.68 523.52 655.57 523.23 655.86 522.9 656.33 522.93 656.93 523.9 657.33 523.75 657.7 523.29 658.36 523.49 658.73 523.35 659.23 523.44 659.81 523.28 659.25 524.41 658.8 524.64 658.34 525.43 658.54 525.97 658.85 526.2 658.73 527.03 658.29 527.81 657.9 527.88 658.32 528.53 657.96 528.93 658.68 529.31 659.17 529.9 659.78 530.31 660.44 530.43 660.2 530.79 660.21 531.12 660.75 530.89 661.16 531.63 661.41 531.8 661.34 532.39 661.79 532.9 661.78 533.46 661.35 533.91 661.58 534.12 660.86 534.69 660.45 535.22 660.4 535.72 659.44 536.5 660.36 537.13 660.24 537.75 660.53 537.92 660.44 538.26 661.08 538.31 661.1 538.53 660.63 539.16 660.89 539.63 660.76 540.09 660.27 540.23 660.66 540.7 661.25 540.73 661.53 541.28 661.08 541.22 660.82 541.53 660.92 541.95 661.27 541.88 662.27 541.32 662.38 541.59 662.82 541.3 663.07 540.89 663.63 541.12 663.41 541.6 663.14 541.77 663.22 542.42 663.67 542 663.81 542.23 663.68 543.12 663.86 543.38 663.21 544.55 663.3 545.05 663.54 545.08 665.41 544.98 666.42 544.59 666.81 543.88 667.11 544.53 667.47 544.38 667.91 544.59 668.26 545.03 668.8 544.81 668.86 545.09 669.31 545.29 669.09 545.86 668.86 546.1 668.32 546.04 668.63 546.56 669.12 546.34 669.22 546.65 668.71 546.9 668.92 547.43 669.49 548.11 670.17 548.7 670.66 548.89 671.47 548.82 671.9 548.9 672.36 548.34 672.96 548.07 673.32 548.22 673.9 548.87 673.03 548.85 673.02 548.42 672.7 548.31 672.67 548.78 672.82 549.24 672.71 549.65 672.22 550.29 671.94 551.11 671.89 551.7 672.27 551.87 672.36 552.71 673.63 553.07 674.04 552.79 674.28 552.28 674.84 552.42 675.57 552.1 675.55 552.37 676.2 552.65 676.4 553.36 676.63 553.52 677.51 552.75 678.16 552.87 678.23 553.46 678.56 553.94 678.88 553.7 679.32 553.77 681.31 553.31 681.81 553.48 682.13 553.85 682.94 553.86 682.93 554.63 682.6 554.83 682.56 555.42 682.38 555.92 682.14 556.08 682.26 556.73 682.8 556.58 682.89 557.16 683.48 557.3 683.79 556.81 684.23 556.78 684.24 556.4 684.8 556.58 685.4 556.42 685.38 556.71 686.06 557.21 687.18 556.82 688.3 556.27 688.23 556.55 687.23 557 687.08 557.26 686.49 557.67 686.8 558.17 686.03 559.06 687.55 559.88 687.87 559.14 688.15 558.74 688.32 558.22 688.1 557.87 688.53 557.79 689.48 556.89 689.61 557.09 688.7 557.97 687.8 560.19 688.04 560.69 688.86 560.8 689.22 561.19 689.25 561.69 689.14 562.31 689.64 562.11 690.35 562.11 690.99 562.54 691.3 562.44 691.71 562.66 692.44 562.71 692.87 562.31 693.04 562.77 693.29 562.67 693.31 562.24 692.85 562.16 693.28 561.49 693.66 561.75 694.49 561.95 694.45 562.36 694.73 562.43 695.11 561.83 695.74 561.35 695.43 560.98 695.39 560.49 696.19 560.48 696.17 559.94 696.45 559.74 696.92 559.73 696.93 559.32 696.61 559.07 696.81 558.62 696.12 558.56 696.55 557.91 696.99 557.62 697.87 557.61 698.47 557.42 699.11 557.34 699.89 557.02 700.15 556.57 700.41 557 699.5 557.28 700.27 558.16 701.45 558.02 700.72 556.93 701.7 556.81 701.69 556.35 702.36 556.48 702.73 557.03 702.52 557.19 702.67 557.68 703.1 557.77 703.26 558.05 703.65 557.96 704.13 557.18 704.39 557.22 704.67 556.85 705.05 557.36 706.36 557.53 707.57 557.26 708.12 558.17 708.67 558.08 708.73 557.72 709.29 557.84 709.38 557.66 710.5 557.25 711.14 557.55 711.92 557.62 712.13 557.88 712.19 558.61 712.41 559.03 712.96 559.51 712.73 560.41 713.69 560.73 713.74 560.32 713.51 560.14 713.77 559.51 714.15 559.63 714.71 560.04 715.04 560.09 715 559.63 715.49 559.92 716.12 559.94 716.35 560.08 716.93 559.59 717 559.27 717.77 559.6 718.33 559.17 718.72 559.64 719.23 559.57 719.66 559.94 719.9 559.86 720.43 560.07 720.46 559.63 720.83 558.81 721.29 559.01 721.7 559.9 721.6 560.34 721.96 560.78 722.17 560.62 722.96 560.61 723.36 560.91 723.42 561.27 724.01 562.25 724.5 562.4 725.22 563 725.38 563.38 725.77 563.65 726.04 563.42 726.72 563.74 727 563.74 727.52 563.2 727.74 563.3 728.14 564.03 728.09 564.73 728.74 565.4 728.86 565.8 729.15 566 729.85 565.99 730.69 565.48 731.31 565.43 731.71 565.87 731.43 566.54 731.02 566.8 731.63 567.54 731.79 567.35 731.77 566.78 732.23 566.56 732.59 566.98 733.14 566.88 733.53 567.22 733.5 567.47 734.14 567.83 734.8 567.79 735.35 567.64 735.4 568.04 735.13 568.45 734.99 568.97 734.35 568.85 733.68 569.15 733.47 568.88 732.93 569.12 732.38 569.55 731.81 569.36 731.56 569.73 731.74 570.03 731.57 570.31 731.07 570.15 730.62 570.35 730.37 570.67 730.53 571.07 730.18 571.77 730.09 572.36 730.31 572.71 730.42 573.39 731.22 574.05 731.62 573.48 732.71 573.5 732.67 573.82 731.55 573.65 731.35 574.29 730.79 573.99 730.06 574.49 730.16 575.07 728.61 575.73 728.31 576.37 728.14 577.18 728.16 577.78 728.34 578.58 728.91 580.28 730.28 579.83 731.25 579.23 731.74 579.23 732.36 579.6 733 579.59 733.44 579.33 734.12 579.12 734.68 579.38 735.34 579.15 735.62 578.79 736.06 579.13 736.38 579.08 736.79 579.83 737.35 580.11 738.25 580.33 738.49 580.29 740.61 582.18 741.18 582.85 741.68 582.9 741.74 583.52 741.94 584.16 741.85 584.99 741.94 586.37 742.17 586.89 742.06 587.58 742.66 588.06 742.43 588.68 741.67 588.78 741.65 589.09 742.17 589.84 741.67 589.74 741.12 590.68 740.57 591.19 740.32 591.75 740.35 592.4 740.6 593.22 741.12 593.48 742.08 593.33 742.2 593.59 741.87 593.91 741.56 593.9 742 594.61 742.49 595.69 742.16 596.48 741.83 596.53 742.17 595.71 741.34 594.05 740.67 594.14 740.57 594.68 740.22 594.7 740.16 595.09 740.52 595.29 740.41 595.66 740.04 595.67 740.32 596.24 741.25 596.33 741.16 596.6 740.13 596.6 739.8 595.83 739.25 595.64 738.67 596.02 738.39 596.4 738.26 597.09 738.56 598.67 738.79 598.88 738.91 599.43 739.19 599.51 739.34 600.01 739.4 600.85 739.61 601.17 739.97 601.27 740.15 601.8 740.57 602.09 740.09 602.41 739.87 602.93 739.58 603.08 739.44 603.76 739.67 604.5 738.54 604.73 737.91 605.12 737.48 605.58 736.44 606.01 735.23 605.3 734.48 604.74 734.19 604.39 733.32 604.83 732.36 605.81 731.88 606.6 731.5 607.4 731.25 608.42 731.08 609.61 731.08 611.42 Z M 167.4 167.49 167.9 168.22 167.71 168.63 167.13 168.44 167.4 167.49 Z M 198.89 131.42 198.54 131.43 198.13 131.11 198.3 130.79 198.89 131.42 Z M 198.76 128.99 198.82 129.29 198.36 129.44 198.38 129.02 198.76 128.99 Z M 198.01 129.32 197.81 129.29 197.76 128.56 197.93 127.84 198.29 127.99 198.5 128.79 198.01 129.32 Z M 160.16 125.57 161.54 126.33 161.55 126.63 161.91 126.75 161.79 127.43 162.6 127.41 162.36 127.97 160.83 127.45 160.43 126.91 159.88 126.85 159.49 126.37 159.73 125.59 160.16 125.57 Z M 199.01 125.08 199.03 125.73 198.8 126.06 199.27 126.51 198.85 127.06 198.81 127.68 198.61 127.85 197.61 127.57 197.19 127.35 197.24 126.68 197.47 126.15 197.09 125.78 197.24 124.07 197.76 123.72 198.24 123.67 198.64 123.9 199.15 124.54 199.01 125.08 Z M 197.83 122.67 198.25 122.68 197.82 123.38 197.69 123.09 197.83 122.67 Z M 181.87 113.52 181.93 113.93 181.14 113.6 181.51 113.33 181.87 113.52 Z M 176.6 112.87 177.19 112.96 177.98 113.27 178.44 113.62 178.75 113.36 179.48 113.71 180.26 113.8 181.07 113.64 181.57 114.22 181.53 114.55 182.07 115.18 182.04 115.66 181.56 115.85 181.33 116.15 181.35 116.61 181.78 116.97 181.6 117.35 181.26 117.44 180.72 118.04 180.21 118.24 179.9 118.73 180.09 119.05 179.99 119.43 180.39 119.73 180.57 120.13 180.35 120.37 179.8 120.37 179.39 120.17 178.88 120.39 178.58 120.27 178.62 119.9 178.34 119.4 178.26 118.87 177.97 118.46 178.54 118.35 178.48 117.44 179.03 117.18 179.01 116.7 178.47 116.25 177.91 115.98 177.84 115.44 177.42 115.32 177.44 115.02 176.79 114.62 176.5 114.32 176.86 114.04 176.73 113.53 176.04 113.19 176.2 112.86 176.6 112.87 Z M 477.55 107.13 478.28 107.87 478.73 107.93 479.58 107.85 480.25 107.55 480.77 107.46 481.29 107.56 481.69 107.48 482.72 107.62 483.43 107.97 483.53 108.19 483.34 108.81 483.49 109.17 482.87 109.88 482.24 110.15 481.66 110.18 481.09 110.41 480.22 110.41 479.88 110.52 479.99 111.16 479.47 111.34 479.23 111.85 478.94 111.09 478.26 110.6 478.26 109.94 477.63 109.84 477.05 108.86 477.16 108.45 476.72 108.11 476.65 107.71 477.15 107.14 477.55 107.13 Z M 251.72 106.74 251.86 107.13 251.53 107.78 251.26 107.8 251.04 107.31 251.72 106.74 Z M 167.24 83.96 167.5 84.16 167.94 84.04 168.32 84.21 168.6 84.8 168.65 85.21 168.37 85.54 167.59 86.17 166.65 86.24 166.91 85.87 166.41 85.63 165.32 85.79 165.95 85.3 166.06 84.43 166.35 83.99 167.24 83.96 Z M 235.34 70.87 235.08 70.74 235.35 70.28 235.79 70.58 235.34 70.87 Z M 150.99 67.77 151.85 68.16 151.55 68.41 151.07 68.12 150.99 67.77 Z M 192.07 65.7 192.6 65.63 192.84 65.75 193.08 66.61 193.78 66.74 194.03 66.91 195.02 66.84 195.16 67.28 195.85 67.19 196.33 67.53 196.57 67.94 196.61 68.77 196.17 68.92 196.16 69.49 195.68 69.6 194.56 69.44 193.9 69.88 193.53 69.97 193.23 70.3 193.19 71 193.8 71.79 193.84 72.08 195.02 73.16 195.66 73.32 196.13 73.59 196.78 73.72 196.85 74.18 197.16 74.62 196.8 75.39 196.74 76.4 196.92 76.56 196.58 77.61 195.75 77.99 195.07 77.76 194.83 77.96 194.44 77.69 193.54 77.7 192.68 77.96 192.58 78.11 191.84 78.22 190.96 78.06 190.25 78.02 189.52 78.55 189.17 79.06 189.13 79.42 189.52 80.22 189.43 80.54 188.87 80.63 188.16 80.54 187.75 80.25 187.21 80.09 186.89 79.82 186.47 79.95 186.15 79.6 185.54 79.86 185.35 81 185.12 81.8 184.73 83.77 184.6 84.73 184.68 85.68 185.15 86.51 184.74 86.7 184.44 86.12 184.48 85.84 184.29 84.74 184.15 84.47 184.96 80.64 184.84 80.36 183.74 80.1 183.64 79.21 182.54 79.41 180.6 84.26 179.85 84.01 179.64 84.48 179.45 85.49 179.42 86.25 180.34 86.89 180.81 86.93 182.82 85.89 183.16 85.56 183.32 85.93 182.92 86.07 180.83 87.17 180.17 87.8 180.67 88.31 180.13 89.07 180.26 89.26 180.2 89.99 180.75 90.75 181.11 90.78 181.76 90.4 182.34 90.56 182.53 90.42 183.23 90.41 183.94 91.09 185 91.36 185.5 92.06 185.83 92.81 185.58 93.68 185.22 94.36 184.88 95.32 185.54 95.28 185.67 95.78 185.3 96.01 184.64 95.85 184.25 96.34 183.88 96.35 182.84 96.17 182.08 95.74 181.45 95.7 181.46 95.97 180.72 95.82 180.4 96.05 179.64 96.13 179.4 96.31 178.62 96.22 178.41 96.53 177.88 96.61 177.38 96.34 176.81 96.36 176.56 96.17 176.06 95.38 176.12 94.62 175.72 93.78 176.21 93.72 176.37 93.38 176.04 92.64 176.04 91.95 175.62 91.69 175.56 90.95 175.31 90.58 175.19 90.03 174.95 89.8 174.03 89.42 173.71 88.68 173.42 88.5 173.34 87.89 172.79 87.78 172.77 87.35 172.55 86.92 172.86 85.98 172.11 85.47 172.15 84.91 172.04 84.1 172.3 83.83 171.88 83.12 170.98 82.47 170.01 82.16 169.43 81.78 169.55 81.43 169.5 80.64 169.02 80.46 168.49 80.43 167.6 79.8 167.32 79.4 166.78 79.29 166.49 78.95 166.43 78.49 166.76 78.41 166.93 79.06 167.86 79.06 168.23 78.49 167.94 77.84 167.42 77.75 167.23 77.33 166.81 76.93 166.16 76.9 165.48 76.47 165.37 76.57 164.49 76.25 163.51 75.75 163.14 75.75 162.2 75.52 161.4 75.5 160.91 75.2 160.82 74.74 159.96 73.94 159.47 73.29 159.7 72.94 160.49 72.72 160.64 72.17 160.39 72.09 160.11 71.39 160.26 71.08 160.06 70.32 160.37 69.83 161.24 69.27 161.68 69.23 162.55 69.55 163.07 70.15 163.59 70.17 164.19 70.41 165 70.36 165.51 70.65 166.21 70.66 166.75 70.78 167.2 70.51 167.33 69.26 167.63 69.19 168.52 69.51 168.95 69.38 169.38 68.95 169.36 68.68 168.83 68.29 169.32 68.13 169.63 67.83 170.98 68.18 171.78 68.72 172.29 68.37 172.63 68.49 173.02 69.17 174.08 69.33 174.55 69.73 175.41 69.87 175.51 70.11 176.32 70.56 176.81 70.62 177.89 71.03 178.5 71.06 179.52 70.89 179.89 70.98 180.04 71.27 180.68 71.74 181.13 71.8 182.07 71.63 182.71 71.25 182.7 70.83 182.99 70.48 183.39 70.52 183.95 70.09 184.46 70.04 184.96 69.58 185.78 69.45 186.13 69.52 187.12 68.53 187.48 67.97 187.28 67.31 187 66.8 186.37 67.33 186.26 67.12 187.18 66.45 187.88 66.69 188.47 66.62 189.18 66.14 189.59 66.35 190.59 66.09 191.65 65.6 192.07 65.7 Z M 186.22 64.56 185.91 65.12 185.59 65.24 185.36 64.74 185.89 64.49 186.22 64.56 Z M 161.43 58.9 162.16 59.28 162.29 60.1 162.6 61.17 162.26 61.1 161.99 60.29 161.96 59.5 161.28 59.25 160.59 58.8 160.79 58.6 161.43 58.9 Z M 233.55 52.59 233.77 52.96 234.35 53.21 234.52 52.97 235.27 53.27 235.78 53.65 235.58 53.92 234.91 54.34 234.43 54.27 234.03 53.68 233.53 53.78 233.1 54.21 233.12 54.75 233.36 55.65 233.59 55.65 233.49 56.64 232.38 56.54 232.32 57.38 231.75 57.16 231.28 57.88 230.76 57.41 231.26 56.68 230.9 55.75 231.08 55.6 231.13 55.04 231.37 54.68 232.37 53.98 232.7 53.84 233.04 53.34 233.18 52.76 233.55 52.59 Z M 139.61 49.41 140.5 49.43 140.92 49.72 140.76 50.3 140.82 50.73 141.39 51.38 141.76 51.57 141.42 52.83 141.75 53.15 142.32 53.27 143.3 53.31 143.69 53.54 144.75 53.39 145 53.74 145.76 53.52 146.12 54.02 147.12 54.48 147.69 54.51 150 55.17 150.46 54.88 151.3 55.27 152.62 55.26 153.4 55.71 153.29 56.17 154.38 57.05 154.39 57.26 155.51 57.98 156.29 58.4 156.92 59.36 157.39 60.4 157.15 60.62 156.83 59.77 155.55 59.7 154.65 59.31 154.44 59.57 153.96 59.37 153.74 59.11 154.26 58.82 153.99 58.03 153.1 57.68 152.71 58.65 152.86 59.2 151.42 60.2 152.74 60.93 153.17 61.49 153.28 62.04 153.88 62.18 154.24 61.66 154.7 61.73 155.17 61.29 156.89 62.04 157.27 62.6 157.61 62.88 157.95 62.92 158.62 63.77 158.68 64.08 158.03 64.97 157.33 64.97 157.09 65.33 157.14 66.06 157.86 67.12 158.35 67.41 159.31 68.54 158.9 69.17 158.18 69.86 158.34 70.31 157.79 70.7 157.5 70.61 157.26 71.05 156.97 71.15 156.2 70.83 155.91 71.26 154.71 71.07 154.45 70.84 153.88 70.7 153.75 70.38 153.38 70.09 153.39 69.85 153.76 69.56 152.25 69.11 152.2 68.75 151.84 68.55 151.87 68.15 150.31 67.44 149.45 67.29 148.34 66.48 149.01 66.39 148.17 65.89 148.07 65.53 147.24 65.16 147.3 64.88 146.77 64.56 146.41 63.89 145.91 63.8 146.02 63.3 145.77 62.93 145.08 62.22 145.03 62.05 143.72 61.42 143.3 61.59 142.67 61.14 142.33 61.42 141.7 61.49 141.19 61.29 141.02 60.95 140.27 60.75 139.76 60.37 139.9 59.71 140.45 59.54 141.84 59.97 142.46 60.01 142.56 60.25 143.18 59.87 143.82 59.72 143.92 59.56 144.75 59.35 145.67 59.28 146.11 59.09 146.21 58.48 144.88 57.74 144.42 57.6 144.35 57.22 143.9 56.66 143.52 56.56 142.57 57.38 141.46 57.18 141.21 56.98 141.1 56.48 140.48 55.64 140.51 54.88 141.1 54.12 141.33 54.13 141.15 53.43 141.22 52.85 140.41 52.51 140.22 52.29 139.58 52.2 139.37 51.61 138.83 51.08 138.97 50.63 138.75 50.39 138.99 49.41 139.24 49.17 139.61 49.41 Z M 163.32 44.7 163.66 45.17 164.32 45.4 165.17 45.02 165.58 45.32 165.65 45.7 165.36 45.92 165 46.82 164.32 46.83 163.5 46.32 162.9 46.2 162.36 45.69 162.46 44.77 163.11 44.6 163.32 44.7 Z M 168.39 42.94 169.23 43.59 169.04 43.69 168.37 43.53 167.69 43.54 167.41 43.07 167.74 42.87 167.43 42.49 167.52 42.09 167.88 42.12 168.28 42.4 168.39 42.94 Z M 201.89 33.5 202.28 33.52 203.48 34.81 204.52 35.39 205 35.37 205.37 35.78 206.46 36.25 207.39 35.99 207.43 36.43 207.98 36.78 207.98 37.07 207.5 37.4 207.15 37.91 206.77 38.25 205.9 38.48 205.28 38.54 205.03 38.26 204.12 38.5 203.86 38.2 202.72 38.08 202.07 37.49 200.51 37.41 200.6 36.7 200.39 36.57 200.24 35.96 200.47 35.44 200.72 35.27 201.02 34.39 200.89 34.05 201.14 33.62 201.89 33.5 Z M 152.31 33.14 152.62 33.23 153.03 33.68 153.03 34.35 153.27 34.69 153.08 35.31 152.72 35.52 152.53 36 151.24 36.32 150.93 36.61 150.04 36.39 150.02 35.63 150.46 35.02 150.26 34.63 150.51 33.97 150.8 33.87 151.61 33.21 152.31 33.14 Z M 155.66 31.21 156.51 31.76 156.03 31.97 155.1 31.7 154.4 31.74 154.53 31.39 155.32 30.96 155.66 31.21 Z M 173.6 28.61 174.19 28.75 174.56 28.56 175.62 28.63 176.02 28.76 176.76 28.79 178.71 29.38 179.21 29.7 179.61 30.92 180.04 31.25 180.01 31.8 180.3 32.03 180.24 32.68 179.76 33.24 179.36 32.81 179.11 33.44 178.76 33.56 178.42 33.24 178.4 32.97 177.03 32.54 176.27 32.17 176.04 31.81 175.56 31.47 174.75 30.39 174.65 29.54 173.87 29.03 173.6 28.61 Z M 233.87 26.72 234.27 27 233.94 27.34 233.45 27.27 232.92 26.88 233.35 26.59 233.87 26.72 Z M 110.3 28.23 110.97 28.4 111.08 28.64 110.97 29.42 111.08 29.72 111.45 29.77 111.71 30.16 111.27 30.41 111.43 30.68 111.41 31.23 111.17 31.46 111.13 32.02 110.54 31.91 109.75 32.02 109.37 32.75 108.94 32.54 109.05 32.01 109.37 31.41 108.8 31.54 108.48 31.47 108.18 30.96 106.62 30.87 106.49 30.6 105.39 30.52 105.17 30.26 106 29.7 106.1 28.93 106.68 28.77 107.35 28.87 108.08 28.22 108.06 27.47 108.83 27.01 109.5 27.01 110.16 27.49 110.3 28.23 Z M 231.64 25.39 232.06 25.45 232.44 25.72 232.86 25.73 232.86 26.66 232.08 26.75 231.35 26.58 231.01 26.15 231.11 25.49 231.64 25.39 Z M 224.69 25.17 225.4 25.26 226.54 25.17 226.95 25.29 227.12 25.64 226.89 25.89 225.82 26.09 225.28 25.74 224.66 25.57 224.69 25.17 Z M 218.34 25.27 217.6 25.21 217.58 24.93 218.17 25 218.34 25.27 Z M 229.84 25.22 229.63 25.58 228.36 24.97 228.73 24.8 229.8 25.05 229.84 25.22 Z M 244.7 24.86 244.98 25.25 244.77 25.41 244.2 25.24 243.6 24.82 243.86 24.52 244.7 24.86 Z M 174.88 24.36 174.39 24.42 174.59 23.98 174.88 24.36 Z M 244.3 21.81 244.71 21.75 245.24 21.93 246.14 21.96 246.63 23.1 246.61 23.39 246.03 23.37 245.54 23.55 245.29 23.88 244.62 23.63 244.18 22.64 244.09 22.01 244.3 21.81 Z M 219.49 21 219.02 20.89 218.84 20.41 219.45 20.57 219.49 21 Z M 218.51 19.7 219.13 19.84 219.3 20.32 218.75 20.29 218.51 19.7 Z M 221.76 13.32 222.42 13.4 222.47 13.61 221.45 13.61 221.76 13.32 Z M 214.92 9.4 215.47 9.54 214.95 9.91 214.48 9.18 214.88 8.83 214.92 9.4 Z M 213.95 8.74 214.07 9.22 214.32 9.33 214.35 9.77 214.17 10.08 213.76 10.04 212.97 10.38 212.57 10.23 212.63 9.55 212.25 9.29 212.51 8.65 213.51 8.51 213.95 8.74 Z M 183.15 3.86 182.96 3.28 183.14 2.3 183.63 3.38 183.5 3.71 183.15 3.86 Z M 190.32 1.7 190.87 1.71 191.29 2.17 191.95 2.14 192.66 2.47 192.62 2.69 193.58 3.34 194.83 3.42 195.67 3.63 196.41 3.7 197.37 3.98 197.93 3.94 198.08 3.69 199.64 4.15 199.91 4.46 200.45 4.78 200.9 5.39 201.59 5.35 202.15 5.93 203.64 6.81 203.98 6.89 204.16 7.34 204.95 7.68 205.69 7.71 206.15 7.84 207.3 8.61 207.58 9.12 207.64 9.55 207.19 9.72 206.77 10.28 205.77 10.88 204.6 11.18 203.43 11.72 203.15 11.66 202.85 12.21 202.36 12.28 201.39 11.76 201.38 11.35 201.74 10.98 201.34 10.7 201.28 10.39 200.72 10.05 200.75 9.78 200.38 9.43 198.97 8.68 198.2 7.78 197.84 7.68 197.33 7.32 195.79 7.6 194.74 6.93 194.36 6.8 194.21 6.45 193.35 6.22 192.7 6.39 191.84 6.36 190.8 6 189.87 6.36 189.19 6.14 188.9 5.78 187.7 5.28 186.95 4.8 186.05 4.71 185.34 4.18 185.3 3.8 185.9 3.26 186.97 3.39 187.37 3.14 188.12 3.13 188.25 2.3 188.87 1.74 189.85 1.54 190.32 1.7 Z M 167.96 1.46 167.38 1.24 167.65 1 167.96 1.46 Z" fill-rule="evenodd" id="39010000"/>
</g>
</svg>