<?xml version="1.0"?>
<svg xmlns="http://www.w3.org/2000/svg" version="1.2" baseProfile="tiny" width="800" height="452" viewBox="0 0 800 452" stroke-linecap="round" stroke-linejoin="round">
<g id="sigung">
<path d="M 101.81 436.48 102.12 436.75 102.56 436.54 102.81 436.66 103.23 437.57 103.55 438.7 104.15 439.27 103.44 439.37 103.34 439.72 103.59 440.52 103.48 440.83 103.44 441.85 103.78 442.95 103.84 443.58 104.04 443.81 104 444.26 104.2 444.99 104.24 445.91 104.1 446.18 104.17 446.82 103.86 447.7 103.52 448.19 103.33 448.89 103.07 449.15 103.23 449.83 102.7 450.48 102.35 450.62 101.8 450.53 101.51 451 100.85 450.4 100.51 450.73 99.99 450.25 99.76 449.59 99.84 449.06 99.64 448.59 99.24 448.52 98.97 448.07 99.1 447.62 98.91 447.33 98.71 446.48 98.79 446.21 98.61 445.35 98.95 445.05 98.98 444.55 98.47 444.07 98.97 443.37 99.35 443.04 98.99 442.44 99.72 441.66 99.39 441.25 99.9 441.06 100.06 440.4 99.9 440.21 100.53 439.63 100.24 438.98 100.45 438.68 100.99 438.4 101.04 437.84 101.35 437.67 101.12 437.07 101.71 436.95 101.81 436.48 Z M 126.19 377.7 126.03 377.65 125.59 376.87 125.96 376.65 126.23 377 126.19 377.7 Z M 104.42 374.59 104.25 374.98 104.57 375.13 104.85 374.59 105.42 374.6 105.57 374.37 105.67 373.32 106 373.3 105.89 373.96 106.27 374.26 107.31 373.93 108.06 374.1 108.47 374.68 108.81 374.89 109.19 374.81 109.39 375.1 109.41 375.68 109.63 376.21 110.15 376.71 110.43 377.37 111 377.74 111.36 378.13 111.6 378.68 112.6 379.64 113.11 379.97 113.97 382.32 114.27 383.81 114.14 384.04 112.88 384.07 112.2 383.8 111.95 383.55 111.46 383.59 110.47 384.37 109.87 385.18 109.37 385.23 108.54 385.08 108.53 385.51 107.82 385.96 107.02 386.21 106.58 386.47 107.16 387 107.7 386.86 107.93 386.62 108.87 386.36 109.5 385.56 110.22 385.72 110.37 385.5 110.87 385.74 109.49 387.06 109.07 387.27 108.42 387.38 108.12 388.05 107.57 388.39 107.23 388.92 106.88 389.12 106.37 389.82 106.61 390.58 106.06 390.95 105.52 390.96 105.12 391.14 104.52 391.8 103.55 391.82 103.5 391.65 104.25 391.12 104.45 390.52 104.3 389.94 103.94 389.39 103.43 389.01 103.67 388.69 103.38 388 102.68 387.3 102.2 386.4 102.16 385.7 102.01 385.24 101.57 384.77 99.16 383.95 98.24 383.76 97.22 382.65 96.7 382.93 96.5 382.39 96.73 381.87 97.24 381.57 97.41 380.97 97.99 380.04 98.01 379.54 98.45 379.32 98.75 378.75 99.75 378.56 99.99 378.41 100.25 377.71 100.23 377.39 100.8 377.09 102.18 375.83 103.03 375.72 103.47 375.49 103.09 374.68 103.42 374.25 103.85 374.17 104.93 373.3 104.42 374.59 Z M 149.91 335.08 149.61 334.94 149.68 334.32 149.99 334.07 150.26 334.4 150.21 334.79 149.91 335.08 Z M 150.9 331.54 151.37 331.5 151.56 331.92 151.06 332.66 150.56 332.93 150.42 333.23 149.85 333.62 149.37 333.19 148.86 332.36 148.76 331.89 148.93 331.58 149.37 331.47 148.79 330.36 149.07 330.26 149.65 330.48 150.9 331.54 Z M 354.99 323.21 355.3 324.12 354.63 324.56 354 324.53 353.86 324.02 354.4 323.66 354.72 323.24 354.99 323.21 Z M 357.12 320.68 357.67 320.86 357.97 321.51 358.44 321.63 358.72 321.96 359.45 322.45 359.96 323.02 360.1 323.72 359.98 324.85 359.56 324.77 359.26 325.18 359.46 325.75 358.47 325.83 358.17 326.11 357.15 326.02 356.44 325.69 356.14 325.13 355.71 325.05 355.65 324.16 355.82 323.87 355.32 323.61 355.2 322.98 355.34 322.66 356.13 321.92 356.47 320.98 356.86 320.54 357.12 320.68 Z M 501.29 312.88 501.93 312.96 502.18 313.49 502.56 313.16 503.03 313.8 503.8 314.46 503.72 315.13 503.46 315.46 503 315.24 502.42 315.55 502.67 316.01 502.1 316.27 502.64 317.08 502.31 317.39 502.5 317.89 502.09 317.87 501.82 317.58 501.4 317.72 500.98 317.43 500.3 317.88 499.52 318.18 498.37 318.38 497.95 318.06 497.72 317.65 497.21 317.61 496.65 317.17 496.52 316.54 496.74 315.97 497.21 315.63 497 314.83 497.35 313.92 498.13 314.1 499.51 313.4 499.9 313.1 500.48 313.29 500.73 312.92 501.29 312.88 Z M 407.62 311.89 408.27 312.01 409.08 311.94 409.59 312.14 410.72 312.92 411.07 313.56 410.97 314.26 410.57 314.57 410.58 314.96 409.79 314.83 409.22 315.27 408.68 314.71 408.11 314.86 407.4 314.51 406.89 314.79 406.55 314.7 406.04 314.13 405.51 313.87 405.26 312.95 405.49 312.36 406 312.29 406.21 311.85 407.62 311.89 Z M 410.65 311.93 410.76 312.44 409.93 311.94 410.47 311.7 410.65 311.93 Z M 345.55 308.69 345.9 309.05 345.36 309.24 345.55 308.69 Z M 443.18 307.32 443.43 307.22 443.91 307.73 443.98 308.38 444.2 308.4 444.74 309.11 445.08 309.03 445.6 309.22 445.92 309.7 445.95 310.24 445.8 310.79 445.12 310.82 444.59 311.05 443.83 311.22 443.6 311.1 442.94 311.19 442.86 311.49 442.01 310.9 441.53 311.22 440.91 311.08 440.41 311.34 440.11 310.64 439.54 310.69 439.65 309.68 439.26 308.91 439.46 308.09 439.73 307.74 441.49 306.58 441.84 306.58 443.08 307.12 443.18 307.32 Z M 251.27 291.3 250.35 291.4 250.41 290.79 250.83 290.64 251.13 290.88 251.27 291.3 Z M 466.14 289.2 463.74 290.14 463.49 290.02 463.55 289.51 463.97 289.52 466.19 288.59 466.3 288.29 466.93 288.1 467.19 288.81 466.14 289.2 Z M 775.34 29.08 774.95 29.93 775.02 30.38 774.53 30.51 774.14 30.09 773.52 30.17 773.51 29.65 774.48 29.74 774.92 28.81 775.34 29.08 Z M 771.31 13.37 771.34 13.98 770.97 13.99 770.56 13.74 770.6 13.42 771.15 13.21 771.31 13.37 Z M 781.14 8.3 785.28 8.31 785.46 8.53 779.35 8.54 779.5 8.28 781.14 8.3 Z M 753.03 1.64 753.08 2.56 753.68 3.5 753.91 3.4 754.5 4.04 754.31 4.39 755.01 5.3 755.57 5.67 756.12 5.87 759.13 6.63 759.42 6.76 760.29 6.08 760.34 5.73 760.69 5.3 761.15 5.88 762.97 5.4 764.96 5.38 765.55 5.46 765.53 6.03 765.24 6.23 765.29 6.97 764.87 6.85 764.46 7.28 763.99 7.04 764.69 6.64 764.89 5.47 762.98 5.49 761.2 5.96 761.48 6.68 761.44 7.57 761.64 8.24 761.76 9.09 761.96 9.16 762.23 10.2 762.66 10.51 762.57 10.82 763.25 11.32 762.89 11.79 762.94 12.17 763.97 13.37 765.03 14.04 765.56 14.1 766.37 13.64 766.89 14.35 767.45 14.23 768.25 14.44 768.5 14.32 768.97 14.6 768.83 15.57 769.85 16.3 770.17 16.25 770.15 15.77 770.68 15.93 770.87 16.34 770.65 16.86 771.23 17.24 771.57 17.28 771.91 17.64 772.48 17.58 772.94 17.2 773.09 16.84 773.06 16.33 774 16.38 774.69 15.99 776.65 14.22 776.03 13.38 777.07 12.58 777.19 12.69 776.23 13.47 776.75 14.09 777.49 13.47 777.59 13.56 778.47 12.82 779.12 12 779.14 10.35 779.35 10.39 779.32 12.09 778.45 13.42 777.11 14.5 776.84 15.95 776.66 15.97 776.5 16.82 776.72 17.04 776.99 17.7 776.66 17.94 777.02 18.23 777.4 17.91 777.78 18.54 777.23 19.05 776.79 18.66 775.98 19 775.15 19.17 774.88 19.7 774.48 20.18 774.26 20.94 774.39 21.77 774.69 22.25 774.25 22.48 773.79 22.05 773.24 22.26 773.11 22.66 772.33 23.46 772.42 23.9 772.72 24.01 773.31 23.65 773.72 23.74 773.42 24.22 773.87 24.65 773.3 25.09 772.5 24.63 772.07 25.1 772.06 25.32 772.78 25.38 773.68 25.82 773.16 26.17 772.96 27.39 773.56 28.13 773.22 28.8 773.4 29.51 773.01 29.72 773.11 30.08 773.52 30.61 774.07 30.86 774.03 31.1 774.37 32.06 774.11 32.39 774.39 33.62 774.84 34.61 775.49 34.6 775.89 34.23 776.44 33.96 776.39 33.61 777.62 33.33 779.38 32.31 779.9 31.84 780.42 31.15 780.55 30.3 780.29 29.44 779.8 29.33 778.86 28.67 779.98 28.03 780.47 27.67 780.71 26.83 781.57 26.35 782.01 25.85 782.64 25.49 783.44 24.44 783.64 23.52 783.34 22.44 781.98 21.5 781.04 21.23 780.15 21.56 779.63 21.34 779.35 20.95 779.39 20.27 779.7 20.26 780.32 19.94 780.23 19.42 779.73 19.21 779.84 18.27 781.45 14.58 780.28 13.37 780.6 12.65 787.12 12.59 787.11 10.94 787.45 10.95 787.56 12.54 787.5 7.11 787.32 6.68 787.86 6.64 787.98 8.17 787.92 9.43 788.01 9.5 788.06 11.17 788.01 12.45 787.43 14.25 787.2 14.62 786.87 15.58 787.03 16.24 787.28 16.57 787.37 17.21 787.72 17.67 788.76 17.99 789.07 18.67 789.06 19.11 788.74 20.04 788.38 20.6 788.44 21.7 788.57 22.68 788.45 24.09 788.86 24.38 789.41 24.14 789.37 23.74 790.17 23.56 790.43 24.45 790.34 24.82 790.89 24.85 791.06 25.11 791.2 25.9 790.88 26.06 791.07 26.78 791.5 27.19 792.36 27.2 793.14 27.62 794.35 27.84 795.24 27.88 796.24 28.65 797.19 29.57 797.39 29.64 797.58 30.29 797.61 31.12 797.51 32.02 797.96 32.75 799 33.02 798.55 33.96 798.01 33.58 797.84 33.9 797.27 34.41 796.57 34.84 795.29 35.12 794.39 35.05 793.52 34.84 792.8 34.55 791.99 34.09 791.67 34.23 791.44 33.79 790.89 33.12 790.47 33.05 789.45 32.25 788.83 31.31 788.83 30.76 788.06 30.49 787.63 29.95 786.95 29.36 786.57 29.24 786.47 28.22 785.1 28.47 783.38 29.36 781.83 30.61 781.22 31.45 780.91 32.09 780.75 32.87 781.16 32.99 781.52 32.72 781.53 33.41 781.73 33.54 781.85 34.13 780.9 35.05 779.88 35.59 779.85 36.09 779.21 36.64 778.53 36.86 777.33 38.02 776.71 37.79 776.74 38.27 776.45 38.93 777.15 39.27 776.28 41.62 775.6 41.78 774.62 41.34 774.21 41.9 773.99 42.73 773.94 43.69 774.2 44.9 774.78 45.77 774.65 46.11 774.24 46.23 773.88 46.65 773.51 47.47 773.3 49.28 773.55 50.47 773.77 50.85 774.97 50.77 775.24 51.1 775.64 50.47 775.83 50.42 776.05 51.25 776.01 52.13 775.72 52.2 775.14 51.96 774.67 52.04 774.29 52.38 773.79 52.54 773.72 52.83 773.84 54.02 774.31 53.86 774.61 54.23 774.93 54.98 775.11 55.7 775.46 56.64 775.65 56.69 776.3 58.35 777.42 59.6 778.19 59.96 778.7 60.1 778.94 60.71 779.49 60.51 779.71 59.79 780.31 60.23 780.88 60.3 781.09 60.67 781.18 61.4 781.77 61.79 782.2 61.76 782.51 61.52 782.76 61.75 783.22 61.46 783.55 61.79 783.68 62.33 784.29 62.51 784.63 62.46 785.42 63.9 786.11 63.54 786.61 64.09 786.35 64.49 786.53 64.98 787.68 65.53 787.98 66.03 788.42 66.25 788.35 66.84 787.74 67.01 787.67 67.35 787.31 67.36 786.33 67.69 786.01 68.02 785.9 68.56 786.27 68.78 786.36 69.33 786.87 69.7 786.61 69.91 786.28 69.72 785.48 69.59 785.19 69.68 784.59 70.32 784.55 70.63 784.15 71.24 783.77 71.51 783.47 72.15 783.4 72.72 783.7 73.1 783.2 73.26 782.84 73.68 783.08 74.24 782.21 74.72 781.45 74.48 781.05 74.82 780.12 73.8 779.48 73.51 779.04 72.98 778.59 72.89 778.39 72.59 777.93 72.39 777.47 71.81 776.97 71.8 776.36 70.94 775.95 70.99 775.54 70.44 774.91 70.17 774.17 70.04 774.04 69.1 774.41 67.48 774.97 67.11 776.4 67.49 776.95 66.94 777.15 66.03 777 64.93 776.38 63.79 776.28 63.43 775.87 63.17 775.36 63.14 775.25 62.91 775.46 62.16 775.19 61.37 775.69 60.92 775.47 60.57 774.91 60.21 773.33 59.55 771.64 59.39 771.3 59.57 769.9 59.79 768.31 60.4 767.46 61.05 767.42 61.32 767.76 61.74 767.45 62.23 767.08 62.11 766.7 62.57 766.74 62.91 767.28 63.02 767.49 62.81 768.04 63.27 768.65 63.38 768.61 63.8 767.95 63.91 767.43 64.14 767.39 64.61 767.69 64.9 767.43 65.17 767.78 66.01 767.95 66.89 768.11 67.07 769.23 67.38 769.22 68.89 770.97 68.87 770.96 68.28 771.25 68.33 771.19 69.14 769.07 69.12 768.57 69.05 768.25 69.93 768.2 70.52 767.48 70.85 766.53 71.9 766.68 72.47 766.56 72.8 766.14 72.82 765.67 73.08 765.49 73.39 765.93 73.79 765.8 74.11 766.13 74.43 766.04 75.1 765.84 75.21 765.75 76.15 765.52 76.35 765.93 76.84 765.13 77.49 764.49 77.85 764.14 77.68 763.53 77.92 763.64 78.44 763.5 78.98 762.98 78.75 762.69 79.09 763.17 79.34 763.52 80.4 763.06 80.48 762.78 80.97 762.68 81.54 762.87 81.8 762.71 82.17 762.9 82.58 762.82 83.14 762.54 83.38 762.64 84.89 762.45 85.39 762.56 85.89 762.87 85.94 762.85 86.4 762.63 86.66 762.27 86.57 762.12 87.11 761.49 87.59 761.45 88.1 761.92 88.56 761.95 88.91 761.71 89.59 762.39 89.92 762.12 90.34 761.18 90.14 761.18 90.74 760.31 90.84 759.89 91.15 759.84 91.95 759.49 92.28 759.51 92.57 760.07 92.84 759.79 93.12 759.8 93.59 759.49 94.37 759.08 94.97 758.42 95.16 757.66 95.6 757.34 96.14 756.93 96.5 756.79 96.99 756.25 97.17 755.69 96.91 755.31 97.01 755.16 97.31 755.29 98.39 755.04 98.98 755.26 99.42 754.53 99.85 753.8 100.04 754.28 100.76 754.4 100.34 755.17 99.73 755.61 100.18 756.37 100.04 756.51 100.53 755.85 100.69 755.51 101.17 755.98 102.18 756.3 102.19 756.37 102.74 757.31 102.81 757.08 103.55 757.8 103.93 758.04 104.22 758.57 104.43 758.76 104.78 758.33 105.5 758.55 106.12 758.08 106.37 758.07 106.87 757.69 107.26 758.1 107.84 758.05 108.73 758.42 109.1 758.24 109.88 757.81 110.45 757.26 110.54 757.53 110.98 757.91 111.23 757.57 111.81 757.68 112.94 757.39 113.4 756.34 113.58 755.88 114.34 755.16 114.62 754.49 114.69 754.08 114.25 753.05 114.33 752.56 115.02 752.11 114.96 751.58 116.05 751.11 116.21 750.83 115.99 749.54 116.46 749.35 116.77 748.89 116.78 748.76 117.08 748.34 116.87 746.9 116.83 746.04 116.62 745.62 117.07 744.85 117.12 743.58 117.4 742.9 118.31 741.71 119 741 119.32 740.44 119.85 740.73 120.02 740.54 120.44 740.6 121.03 740.05 120.69 739.8 120.36 739.41 120.62 739.55 121.11 738.67 121.32 738.3 121.69 737.86 121.43 737.66 121.63 737.24 122.57 736.82 122.44 736.73 122.06 736.21 121.47 735.59 121.54 735.21 122.69 733.82 122.34 733.41 122.81 733.68 123.6 733.26 123.61 732.64 123.06 732.35 123.62 731.51 123.46 730.92 123.85 731.08 124.6 731.49 124.29 732.41 124.5 732.3 124.77 732.48 125.29 732.26 126.3 732.35 126.82 732.16 127.16 732.47 127.46 731.72 127.81 731.32 128.19 731.27 128.51 730.86 128.63 729.85 129.95 729.35 130.24 729.54 130.65 729.29 131.04 728.31 131.58 727.94 132.13 726.93 132.72 726.12 133.61 725.57 134.44 725.49 135.12 725.08 135.3 724.65 135.08 723.98 135.32 723.84 136.1 723.65 136.43 723.09 136.59 722.63 136.07 722.03 136.35 721.8 136.16 721.45 136.7 721.61 137.45 721.42 137.82 721.97 137.95 722.3 137.58 722.98 137.44 723.75 137.8 723.92 138.09 723.55 138.72 723.9 138.79 724.2 139.12 723.83 139.68 723.85 140.22 723.6 140.82 723.87 141.36 723.57 141.87 723.15 142.1 723.46 142.72 722.79 142.73 722.42 143.19 722.48 144.08 722.06 144.27 720.84 144.28 720.69 144.77 720.29 145.09 719.72 145.02 719.03 145.6 718.51 145.67 718.63 145.99 717.87 146.19 717.59 146.57 717.98 147.52 718.49 147.72 718.86 148.13 719.21 148.26 719.75 148.76 719.58 149.36 718.77 149.98 718.34 150.11 718.09 150.45 718.25 150.94 718.83 151.32 718.78 151.68 718.45 151.86 718.27 152.49 718.75 153.42 718.85 153.84 719.27 154.4 719.02 155.47 719.07 155.87 718.96 157 718.79 158.01 718.25 159.23 717.82 159.69 717.12 160.7 716.29 161.13 715.65 161.82 715.23 162.68 714.4 163.57 714.24 164.03 714.2 164.88 713.79 165.5 713.31 165.78 713.08 166.28 712.57 166.49 712.23 166.4 711.77 166.61 711.4 166.48 710.87 166.79 710.03 166.82 709.26 168.36 708.68 168.8 708.67 169.32 708.93 169.46 709.01 170.07 709.24 170.63 708.81 171.49 708.34 171.66 708.11 172.02 708.48 172.62 709.14 173.29 709.23 174.08 708.8 174.11 708.8 173.43 707.29 172.03 706.9 172.32 707.03 172.96 706.53 173.99 706.04 174.29 705.9 174.61 706.47 174.75 706.37 175.02 705.63 175.14 705.26 175.33 705.01 175.74 705.38 176.01 705.92 175.59 706.84 175.4 707.63 174.8 708.14 174.25 708.3 174.61 706.85 175.63 706.51 176.29 706.73 176.52 706.62 177.41 706.45 177.97 705.22 177.91 704.38 177.63 704.45 177.03 704.11 177.08 703.98 177.68 703.61 177.77 703.27 178.11 702.97 177.73 702.59 177.99 702.31 178.74 701.96 178.97 701.38 178.82 701.12 179.04 700.63 178.81 700.44 178.99 701.08 179.77 701.1 180.06 700.65 180.25 700.75 180.84 700.37 180.97 699.65 180.23 699.19 180.32 699.26 181.17 698.99 181.32 698.64 181.07 698.33 180.29 697.9 180.46 697.42 181.11 697.25 181.88 697.28 183.02 697.47 183.7 697.17 184.07 697.55 184.55 697.04 184.67 696.99 184.06 697.35 183.72 697.37 183.43 697.04 183.13 696.64 183.37 696.57 183.94 696.03 183.67 695.5 184.64 695.13 184.72 694.82 184.44 693.86 184.17 693.49 184.72 693.69 185.28 693.45 185.56 693.16 186.32 692.91 187.43 692.93 188.55 693.06 189.01 692.77 189.31 692.73 189.71 692.96 190.24 693.48 190.97 693.61 191.46 694.63 191.72 694.8 191.34 695.2 191.16 695.44 192.08 694.71 192.65 694.23 192.88 694.36 193.28 695.18 193.45 696.35 193.18 696.32 190.71 696.56 190.63 696.63 192.92 697.16 192.94 698.29 193.2 698.48 193.04 699.32 193.27 699.3 193.74 699.56 194.08 698.89 194.65 699.1 195.16 697.9 195.89 697.48 196.05 697.27 196.35 697.3 197.06 697.89 197.72 698.13 198.83 697.8 199.25 698.06 199.63 698.05 200.52 697.68 200.45 697.37 200.71 697.09 200.59 696.57 200.03 696.07 199.96 695.43 200.24 695.23 200.59 695.46 200.81 694.83 201.3 694.19 200.97 693.62 200.87 692.99 201.52 692.89 202.31 692.57 202.49 692.46 203.02 692.71 203.53 691.95 204.41 691.51 205.27 690.75 205.26 690.55 204.99 690.03 205.05 690.22 205.86 689.61 206.64 689.45 207.18 688.46 207.3 688.44 207.52 687.55 208.28 687.6 208.89 686.94 209.99 686.71 210.59 686.32 210.47 685.9 210.68 685.64 211.22 685.01 210.33 684.65 210.41 684.25 211.05 684.32 211.7 684.58 212.1 685.11 212.48 685.27 212.83 685.07 213.16 685.25 213.5 684.81 213.66 684.44 213.44 684.05 213.68 683.05 213.6 682.16 213.98 681.76 214.31 681.3 214.38 680.21 215.37 679.01 216.16 678.42 216.84 677.68 217.12 677.25 217.05 676.66 216.67 676.25 216.63 674.92 216.88 674.3 217.56 673.57 217.69 673.43 217.3 672.65 217.27 671.82 217.57 670.82 217.76 670.29 217.29 669.73 217.2 669.27 216.65 669.34 216.05 668.96 215.3 668.53 215.09 667.38 215.61 666.77 216.12 666.28 216.03 666.2 215.66 665.42 215.51 665.39 215.05 665.01 215.06 664.32 215.64 663.65 215.99 663.93 216.4 663.65 216.78 663.8 217.24 662.02 216.98 661.86 217.38 661.34 217.49 660.68 217.93 660.23 217.72 660.34 218.43 659.96 218.67 660.49 219.31 660.52 219.64 660.02 220.39 659.15 220.6 658.31 221.48 657.97 221.34 657.2 222.02 656.45 222.09 656.1 221.81 655.6 221.99 655.39 221.7 655.31 220.97 654.76 220.69 653.96 220.56 654.07 220.16 654.55 219.96 654.41 219.39 653.9 219.37 654.13 218.85 653.65 218.55 654.43 217.08 654.12 216.92 653.85 217.32 653.48 218.27 653.02 219.01 652.82 218.72 652.38 218.73 651.79 218.99 651.84 219.8 651.56 219.84 651.5 220.59 652.97 221.61 652.85 221.72 650.6 220.2 650.27 219.69 649.79 219.79 649.7 220.59 649.27 220.84 649.01 220.73 648.5 220.89 648.33 220.69 647.58 220.65 646.76 220.88 645.67 220.52 645.24 220.23 644.02 219.75 643.42 219.4 642.3 218.56 641.8 218.76 641.58 219.29 641.65 219.73 640.98 220.23 640.71 220.3 640 220.97 639.35 220.67 638.91 219.79 638.26 219.7 637.92 220.19 637.27 220.45 637.02 219.86 637.51 219.61 637.05 219.32 636.74 218.88 635.71 219.66 635.48 219.15 635.53 218.76 635.2 218.54 635.29 217.96 634.89 217.23 634.58 217 633.75 216.75 633.49 216.81 633.28 217.35 632.79 217.54 632.55 217.15 631.34 217.37 631.3 216.9 630.84 216.68 630.35 216.8 630.08 216.4 629.3 216.81 628.94 215.97 628.59 216.23 627.81 216.37 627.72 216.19 626.86 216.11 626.4 215.82 626.13 216.31 625.86 216.04 625.04 216.41 624.31 217.13 624.2 217.48 623.65 218.09 623.2 218.28 622.92 218.84 623.11 219.22 622.65 219.91 622.71 220.42 622.33 220.65 621.78 221.65 621.62 222.31 621.18 222.53 620.81 222.94 620.37 223.75 619.53 223.87 618.98 224.3 618.38 224.09 618.12 224.33 617.51 224.35 617.17 224.51 616.42 224.36 616.3 224.83 615.21 225.32 614.85 225.63 614.41 226.44 613.99 226.9 614.15 227.41 614.72 227.29 615.36 226.76 615.46 227.01 615.09 227.36 614.99 228 614.32 228.38 613.92 228.39 613.62 228.65 613.48 229.39 612.76 230.61 612.66 231.08 612.84 231.35 612.97 232.15 612.59 232.41 612.29 233.45 612.21 234.17 612.75 234.37 612.96 234.7 613.64 234.85 613.16 235.22 613.23 235.53 612.45 235.67 611.69 234.8 611.42 235.06 610.91 235.11 610.27 234.74 609.87 234.9 609.41 234.75 609.25 234.49 608.79 234.35 608.74 234.81 608.51 235.2 608.74 235.6 608.05 235.88 607.14 235.69 606.42 236.71 606.37 237.3 605.84 236.95 605.4 236.98 605.19 237.43 605.02 238.21 604.48 238.57 604.31 239.22 603.75 239.56 603.46 239.4 603.03 239.56 604.06 240.46 603.97 240.69 603.41 240.44 602.58 240.36 602.18 240.59 601.53 240.05 600.97 240.02 601.32 240.85 600.74 240.67 600.92 241.22 600.89 242.04 600.3 241.73 599.65 243.51 599.34 243.48 599.97 241.87 599.05 240.74 598.09 239.66 597.83 239.17 597.03 239.73 598.46 240.5 598.23 240.95 597.55 241.32 597.73 242.56 597.32 243.47 596.77 243.59 596.66 244.3 597.11 245.01 597.62 245.19 597.32 245.53 597.07 245.26 596.73 245.47 596.08 246.97 595.59 247.06 595.75 247.89 595.58 248.47 595.59 249.03 594.81 248.64 594.03 248.6 593.75 248.74 593.25 248.54 592.88 249.05 592.72 249.52 592.82 250.05 592.43 250.1 592.24 250.59 591.71 250.39 591.51 250.76 590.78 250.62 590.28 251.27 589.74 251.46 588.79 251.48 588.56 251.03 588.04 250.83 587.84 251.13 587.34 251.29 587.05 251.7 586.74 251.73 586.35 251.41 585.92 251.31 585.12 250.65 585.42 249.95 585.94 249.5 586.25 248.44 586.45 248.14 586.5 247.59 586.07 247.46 586.05 248.11 585.38 248.9 584.8 249.44 584.2 248.76 583.88 248.82 583.19 248.46 582.42 247.69 582.41 247.3 581.96 246.95 581.3 247 580.78 247.18 580.65 246.8 580.01 246.64 579.57 246.76 579.11 247.69 579.1 248.45 578.95 249.15 578.28 250.3 576.47 250.02 575.91 250 575.55 250.24 574.57 250.03 574.32 249.78 573.35 249.32 572.94 249.26 572.38 249.39 571.81 249.83 571.22 249.96 571.21 250.3 570.82 250.35 570.15 250.12 569.57 250.33 569.65 250.97 569.15 251.34 569.36 251.62 568.98 251.92 569.17 252.87 568.73 252.8 568.01 253.22 567.38 253.33 566.96 252.91 566.71 252.41 566.09 252.53 565.6 251.5 565.87 251.03 565.58 250.75 564.98 251.12 565.58 251.92 565.59 252.13 564.99 252.27 564.9 252.96 564.07 253.06 563.71 253.45 563.83 253.93 563.12 253.94 562.82 254.6 562.28 254.2 562.44 253.8 562.31 253.5 561.84 253.15 561.37 253.46 561.13 252.93 560.38 253.21 560.32 253.55 559.81 253.58 559.5 253.24 559.19 253.49 559.3 254.05 558.71 254.76 558.34 254.56 557.9 254.89 556.6 255.29 556.1 255.74 555.31 255.6 554.58 255.94 554.19 255.83 553.23 256.13 552.72 256.01 551.43 256.35 550.89 256.63 550.38 257.19 549.91 257.26 549.84 257.52 549.06 257.47 548.33 257.74 547.16 258.4 546.79 259.03 545.86 259.11 545.02 259.76 543.9 259.71 543.13 259.97 541.1 260.07 540.61 260.41 540.14 260.24 539.59 260.46 539.05 260.31 538.77 260.77 538.34 261.14 538.28 260.51 537.98 260.53 537.77 261.06 537.08 261.63 536.88 261.35 537.21 260.85 536.34 260.62 535.55 260.78 535.13 261.14 533.71 261.15 532.77 261.5 532.33 261.3 531.78 261.48 531.26 261.41 530.97 261.77 530.45 261.77 529.16 261.24 528.48 261.37 527.99 262.19 527.61 261.72 528.06 261.01 527.93 260.25 527.25 260.43 526.4 259.72 525.26 259.86 524.79 260.23 524.19 259.86 523.8 259.85 523.31 260.15 523.24 260.65 523.55 261.39 523.58 261.85 524.01 262.05 523.97 262.49 523.42 262.91 523.25 263.6 522.86 264.39 522.42 264.36 522.34 263.94 522.01 263.81 521.62 263.26 521.18 263.22 520.96 263.46 520.64 262.86 520.1 262.78 519.33 263.24 518.91 262.74 519.05 261.88 519.57 261.73 519.48 261.24 519.13 261.04 518.09 260.83 517.71 261.01 517.15 260.78 516.74 260.26 516.14 259.89 516.36 259.53 515.93 259.28 515.39 259.68 514.98 259.29 514.79 259.53 514.23 259.46 513.95 259.16 513.57 259.36 513.54 260.37 513.2 260.56 512.5 260.43 511.66 259.97 511.54 260.23 510.48 260.66 510.17 260.41 509.73 260.51 509.1 261.66 508.72 262.14 508.46 262.84 507.79 263.25 506.7 263.48 506.18 264.04 504.72 264.95 504.37 264.62 504.91 264.39 505.75 263.87 506.59 263.04 507.91 262.71 509.09 260.85 506.57 258.86 506.49 257.3 507.74 257.23 507.73 256.93 507.34 256.42 507.37 255.82 507.09 255.66 505.77 255.47 504.5 255.49 504.22 255.68 503.55 255.68 502.8 256.04 502.78 256.74 503.06 256.72 503.33 257.24 503.6 257.15 504.4 259.52 504.41 260.65 504.01 261.04 505.93 262.39 505.51 262.57 503.72 261.21 503.32 260.74 503.02 260.95 502.94 261.31 503.26 261.75 503.05 262.35 502.64 262.46 502.36 262.18 501.82 262.22 501.63 261.94 501.11 261.91 500.89 261.55 500.33 261.55 499.25 262.49 498.7 262 498.17 261.89 498.08 261.49 497.56 260.77 497.42 260.99 496.76 261.24 496.25 261.72 496.19 262.22 496.47 262.37 496.23 262.81 496.36 263.55 496.02 263.57 495.7 264.59 494.98 263.46 494.07 262.34 492.73 262.39 491.49 263.29 491.41 263.93 490.7 263.54 489.74 263.82 488.88 264.37 488.35 264.28 488.21 264.83 487.67 264.87 487.36 265.34 486.72 265.46 486.28 266.01 486.52 266.36 486.9 266.51 486.58 266.9 486.28 267.59 486.44 268.22 485.9 268.34 485.95 268.83 486.63 268.78 487.45 269.45 487.48 269.78 487.9 270.08 487.75 270.76 487.85 271.09 487.05 271.62 487.05 272.1 486.53 273.02 485.93 273.13 485.8 273.36 485.35 273.26 485.17 273.46 484.67 273.38 484.57 273.84 484.18 273.75 483.88 274.02 484.72 275.01 484.85 275.95 484.28 276.29 483.55 276.31 482.2 276.76 481.76 276.85 480.64 276.43 479.82 277.22 479.39 277.06 478.97 277.87 478.51 278.26 478.21 278.3 477.86 278.73 477.72 279.54 476.91 279.67 477.16 280.2 476.88 280.47 475.95 280.71 475.48 280.48 474.86 279.52 473.81 279.52 472.77 279.65 472.33 280.17 472.86 281.47 472.78 282.05 472.43 282.35 472.44 282.7 471.92 283.29 471.55 283.53 470.7 283.58 470.05 283.76 469.47 283.74 469.38 283.51 468.37 283.46 466.51 284.35 466 284.78 465.46 285.87 465.57 286.69 465.58 288.18 465.1 288.3 464.96 287.59 464.95 285.94 464.63 285.59 464.63 285.06 464 285.07 463.99 285.36 463.44 285.37 463.47 286 463.69 286.64 463.02 287.66 463.01 288.6 463.31 289.12 463.04 290.4 462.86 290.78 462.88 291.49 463.11 292.02 463.59 292.04 463.67 292.97 463.21 293.81 462.91 293.93 462.5 294.69 462.02 295.01 461.93 295.5 460.68 295.41 460.2 295.51 459.69 296.11 459.2 296.21 458.62 296.52 458.31 296.93 457.38 297.33 456.14 297.13 454.14 297.61 453.55 298.23 452.86 298.59 452.22 298.58 451.84 299.01 451.89 299.43 451.68 300.12 451.44 299.85 451.53 299.37 451.22 298.98 451.54 298.73 451.33 297.71 450.79 297.92 450.97 298.27 451.02 299.17 450.38 299.9 450.03 299.85 450.17 299.31 449.22 298.99 448.68 298.91 448.16 298.64 447.63 298.99 447.52 299.46 447.13 300.13 446.91 299.77 446.26 299.35 446.03 299.97 445.76 300.12 445.62 301.08 444.43 301.96 444.04 302.09 443.82 302.74 443.03 303.47 443.07 303.76 442.67 304 442.09 304.03 440.88 302.85 440.47 302.65 439.66 301.84 439.05 301.78 438.47 301.49 437.93 301.5 437.18 301.17 436.1 299.93 435.16 299.32 435.07 298.74 434.32 298.56 433.99 298.17 433.96 297.76 434.42 297.3 434.54 296.59 435 296.22 435.01 295.99 434.21 295.77 434.06 295.85 433.56 295.26 432.61 295.1 432.08 294.59 431.67 294.41 431.02 294.43 430.54 294.16 430 294.3 429.28 293.69 429.33 293.35 429.09 292.88 428.69 292.66 428.12 292.72 428 292.46 427.4 292.39 427.26 292.87 426.91 293.51 426.04 293.3 425.87 293.98 425.36 294.19 425.34 293.74 425.09 293.27 424.77 293.74 424.03 293.65 423.2 292.93 422.84 292.76 422.57 292.29 421.94 292.02 421.95 292.36 421.29 292.24 420.8 291.19 420.47 291.01 419.39 291.08 418.51 291.27 418.33 291.8 417.54 291.91 416.92 292.24 416 292.07 415.27 291.62 414.7 291.56 413.87 291.88 413.12 292.04 412.51 292.35 412.38 293.23 412.03 293.31 411.7 292.93 411.25 293.26 410.94 294.29 411.07 294.53 411.03 295.35 411.18 295.68 411.84 295.84 411.69 296.29 411.23 295.85 410.81 296.43 409.67 297 411.21 298.81 412.48 300.12 412.46 300.39 413.1 301.18 413.51 301.46 413.63 301.89 413.52 302.53 412.69 303.16 410.74 304.98 409.97 305.83 409.45 305.62 409.48 305.36 410.09 304.88 409.87 304.63 412.64 302.12 411.66 300.95 409.72 302.58 409.07 301.82 410.8 300.34 409.77 299.08 407.94 299.78 407.04 299.36 406.61 298.71 406.37 297.87 404.03 297.03 403.13 295.99 403.03 295.46 403.22 294.68 402.75 294.33 402.54 293.87 401.83 294.85 401.45 295.63 401.41 297.09 401.29 297.64 401.33 298.34 402.38 299.87 402.71 299.68 403.87 299.37 404.49 299.05 405.13 298.86 405.17 299.3 406.34 300.4 406.53 300.72 406.52 302.06 406.65 302.53 406.55 303.35 406.93 304.24 407.87 305.24 407.88 306.03 408.01 306.93 407.52 306.96 407.51 305.61 407.39 305.17 407.08 304.9 406.52 304.12 406.17 303.34 405.6 303.35 405.36 303.15 404.62 303.57 402.8 302.22 402.05 301.88 401.6 301.36 400.98 300.9 401.41 300.75 401.46 300.38 401.28 299.83 400.8 298.96 399.93 297.93 399.59 297.89 398.68 298.15 398.29 298.14 397.58 298.46 396.93 298.37 396.14 297.8 395.13 296.94 394.71 296.83 393.7 296.35 393.44 295.71 392.89 295.29 392.19 295.35 391.47 296.19 391.41 296.59 391.08 296.98 391.05 297.7 390.46 297.57 389.69 298.49 389.99 299.04 389.68 299.54 389.35 299.55 389 298.93 388.22 298.47 387.9 298.03 388.19 297.36 387.34 297.4 386.79 296.99 386.24 297.7 386.41 297.95 385.13 298.3 385.05 297.9 384.59 297.15 384.57 296.87 384.11 296.47 383.73 296.7 383.2 295.83 382.51 295.1 381.86 294.97 381.56 294.78 380.56 294.93 379.23 295.74 377.67 296.49 376.56 297.27 375.99 297.98 374.95 298.1 374.69 297.78 373.75 297.74 372.92 297.98 372.69 297.57 372.01 297.42 371.33 297.43 370.2 297.62 369.88 297.81 369.51 297.01 368.71 296.97 368 296.75 367.56 296.37 367.08 296.44 367.09 296.72 366.13 296.46 364.24 296.31 363.62 296.64 363.62 295.95 362.57 295.57 362.09 295.55 361.73 295.89 361.72 296.46 362.11 297.15 361.24 297.92 361.24 298.61 360.84 298.58 360.72 298.97 360.22 298.76 359.95 299.21 360.18 300.18 359.66 300.31 359.54 300.61 358.73 300.6 358.24 300.2 357.8 300.2 357.29 299.72 356.82 300.21 357.89 301.03 357.76 301.34 357.31 301.03 356.66 300.32 356.35 300.91 356.46 301.21 356.27 302.12 355.58 302.55 354.94 303.11 354.79 303.5 354.99 304.2 355 304.9 355.44 305.11 355.41 305.55 355.04 305.69 354.49 305.36 353.83 305.61 353.73 306.06 353.46 306.33 352.69 306.74 352.2 307.25 351.42 308.33 350.64 308.49 349.48 309.14 349.15 309.09 348.12 309.18 347.91 309.09 347.01 309.21 346.65 309.08 346.03 308.19 346.03 307.82 345.53 307.78 344.93 308.21 344.55 307.93 343.98 308.11 343.29 308.09 343.01 308.33 341.94 308.48 341.14 308.07 340.85 307.16 340.33 307.02 339.97 308.22 340.24 308.99 339.97 309.53 339.27 309.43 339.17 309.8 338.52 309.38 338.18 308.24 338.59 307.93 338.12 306.85 337.41 306.21 336.91 306.12 336.72 306.35 335.83 306.76 335.54 307.45 334.99 307.58 334.7 307.48 334.27 307.94 334.13 307.4 334.16 306.88 333.73 306.41 333.17 306.08 332.83 306.02 332.2 306.26 331.85 305.89 331.53 306.49 331.41 307.03 331.4 308.29 331.59 309.24 331.24 309.47 330.98 308.49 331.02 307.35 329.98 306.83 329.51 307.41 327.59 308.03 327.11 308.73 326.7 308.23 326.52 308.63 326.08 308.5 325.83 308.72 326.16 309.11 326.03 309.62 325.18 309.66 325.21 310.22 324.5 310.7 324 310.45 323.63 310.97 323.24 310.44 322.83 311.1 322.47 310.53 322.16 310.69 321.79 311.45 321.01 311.09 320.31 311.21 320.42 311.78 320.33 312.14 319.93 312.05 319.58 311.23 318.65 311.69 318.23 312.66 317.97 312.88 317.63 312.4 318.08 312.1 317.89 311.72 317.46 311.66 316.98 311.25 316.43 311.22 316.04 311.4 315.55 310.91 315.06 311.9 315.41 312.02 315.66 311.47 315.91 311.5 315.75 312.12 316.27 312.12 315.98 312.59 316.44 313.23 317.72 313.21 317.69 313.66 316.87 313.66 316.62 314.74 316.28 314.64 316.06 314.9 316.54 315.82 316.87 315.58 317.45 315.53 317.79 316.41 317.41 316.36 316.97 315.98 316.21 316.4 315.69 317 315.2 317.03 314.9 316.76 313.94 316.42 314.02 315.51 313.67 314.98 312.98 314.38 313.02 314.06 313.61 313.62 312.79 313.28 312.45 313.64 312.52 314.48 313.1 315.08 313.26 315.41 313.27 315.98 312.53 317.09 312.2 316.67 311.64 316.32 311.15 316.27 310.78 315.56 310.99 315.19 310.31 314.81 309.54 313.89 309.08 313.69 308.82 313.35 309.41 312.66 309.2 311.87 308.67 311.33 308.36 311.19 307.56 310.39 306.78 310.47 306.54 310.63 306.15 310.15 305.33 309.78 305.25 309.26 304.9 308.82 304.6 309.01 304.07 308.03 304.32 307.83 303.64 307.27 302.8 306.8 302.14 306.59 301.64 306.91 301.05 307.04 300.63 306.48 300.93 306.35 301.06 305.93 301.45 305.7 302.01 304.97 302.58 304.57 302.61 304.09 302.89 303.67 302.35 303.09 302.42 302.01 302.11 301.09 302.02 300.43 301.46 299.22 300.69 298.53 300.44 297.81 299.74 297.14 299.43 297.35 298.89 297.29 298.8 296.96 298.21 296.74 297.78 296.39 297.27 295.75 296.92 294.73 296.51 295.01 296.56 295.55 295.99 296.23 295.4 296.23 294.92 296.07 294.48 295.69 294.73 295.3 294.34 294.86 293.99 294.85 293.53 295.3 293.01 295.03 292.36 295.51 291.83 295.34 291.97 294.84 291.48 294.49 289.33 294.96 288.53 295.6 288.62 295.78 288.29 296.39 287.83 296.76 286.97 297.26 285.72 297.44 285.26 297.58 285.05 298.15 284.78 297.84 283.91 297.98 283.77 297.63 283.35 297.63 282.91 298.04 282.67 298.68 281.99 299.25 281.6 299.72 281.17 299.73 280.54 299.16 280.05 298.34 279.3 298.75 278.7 298.91 278.18 299.59 277.82 299.55 278.29 298.84 278.32 298.42 277.58 298.12 278.26 297.91 278 297.46 277.23 297.51 277.08 298.35 276.46 298.77 276.43 299.13 276.97 299.72 277 299.94 276.32 300.47 275.85 300.51 275.47 300.72 275.08 300.4 274.62 300.32 274.04 300.75 273.92 301.5 273.56 301.69 273.15 302.36 272.99 303.49 273.06 303.84 271.51 304.04 271.48 303.34 271.28 303.01 270.82 302.92 270.57 302.09 269.84 301.9 268.98 301.17 268.3 301.07 268.09 301.75 268.12 302.15 267.26 302.24 267 301.91 266.56 301.91 265.81 301.46 265.7 300.86 265.97 300.51 265.88 299.93 265.6 299.75 265.06 299.84 264.91 300.35 264.11 299.93 263.8 299.26 263.34 299.7 262.95 299.86 262.59 299.42 262.59 298.61 262.01 298.8 261.8 298.66 261.84 298.12 262.07 297.48 261.12 297.29 261.07 296.85 260.69 296.61 259.98 295.55 259.38 295.32 258.99 294.27 258.31 293.73 258.2 293.43 257.55 293.29 256.76 292.73 255.74 293.4 255.07 293.51 254.94 293.2 255.67 293.16 257.13 292.28 256.78 291.71 255.24 291.93 255.3 292.58 254.88 292.44 253.81 292.92 253.52 293.45 253.08 293.39 252.66 292.97 252.61 292.54 252.76 291.65 252.35 291.38 252.11 290.99 251.62 290.54 248.87 290.3 246.99 290.52 246.33 290.76 246.08 291.02 245.16 291.66 243.95 292.15 243.15 292.2 242.5 292.05 242.17 291.77 241.5 292.04 241.25 292.62 240.77 293.24 240.98 293.69 240.62 294.15 239.74 294.78 239.3 294.59 239.06 295.03 238.34 295.35 237.92 295.2 237.54 295.56 236.85 295.35 236.56 295.64 236.12 295.28 235.58 295.37 235.17 295.69 235.4 296.37 235.37 296.8 234.35 296.96 233.67 297.62 233.73 297.95 233.39 298.16 232.86 298.81 232.55 298.63 231.98 298.73 231.35 299.06 231 298.73 230.34 298.86 230 299.21 229.52 299.12 228.85 299.5 228.69 299.92 228.25 300.19 227.16 301.12 227.18 302.05 226.18 301.72 224.95 302.5 224.53 302.48 224.12 303.07 223.02 303.48 221.96 305.23 221.44 304.98 221.58 304.53 221.28 304.38 220.89 304.62 220.36 304.23 220.17 304.29 219.89 303.48 218.93 303.2 218.33 303.15 217.98 303.38 217.24 303.26 216.67 303.53 216.33 304.43 216.26 305.43 216.38 306.3 216.75 306.75 216.5 306.95 215.88 306.72 215.67 306.11 215.07 305.47 214.71 305.67 214.52 305.4 214.95 305.18 214.72 304.4 214.34 304.13 213.33 303.73 213.09 303.18 212.66 303.47 213.22 303.69 213.36 304.25 214.06 305.19 214.3 305.67 214.06 305.8 213.61 305.33 212.97 305.63 212.5 305.59 212.17 305.86 211.48 305.9 210.93 305.77 210.64 305.97 210.23 306.8 210.29 307.8 210.42 308.02 210.12 308.46 209.1 308.44 208.41 308.53 208.2 308.76 207.65 308.89 206.81 308.45 206.21 308.44 206.38 308.09 206.07 307.75 206.09 307.19 205.46 306.85 205.5 306.43 205.09 306.18 204.33 306.49 204.05 306.82 203.78 307.66 204.01 308.03 204.1 308.6 204.34 308.77 203.82 309.31 203.51 308.94 202.82 308.68 202.23 308.2 202.42 307.17 201.82 306.93 201.73 306.6 201.33 306.45 201.48 306.06 200.88 306.03 200.36 305.72 200.15 304.31 200.79 303.85 200.58 303.52 199.79 303.92 199.44 303.89 199.4 303.37 199.85 302.84 199.6 302.32 199.67 302.05 199.23 301.49 199.82 300.92 198.95 300.68 198.85 300.12 199.36 299.58 198.78 299.35 198.3 299.84 198.2 300.31 198.42 300.84 199.02 301.13 198.97 301.36 198.33 301.19 197.97 300.21 197.35 300.41 197.39 301.7 197.94 302.28 197.45 302.82 197.28 302.42 196.38 302.16 195.71 302.6 195.52 302.31 195.11 302.27 195.12 301.8 195.73 301.51 195.65 301.04 195.95 300.69 195.63 300.29 194.68 299.77 194.12 299.82 193.49 300.25 193.19 300.23 192.36 300.74 192.12 301.06 191.6 301.01 190.5 301.54 189.28 301.72 187.6 302.3 186.76 302.38 186.44 302.18 185.58 301.93 185.16 301.29 183.38 300.22 182.61 300.2 181.07 300.43 180.4 300.71 180.43 301.29 179.95 301.77 179.65 301.54 178.85 301.52 177.31 301.83 176.59 301.48 176.26 301.65 175.94 301.25 175.46 301.04 174.8 301.75 174.3 301.87 174.05 302.19 173.46 302.19 173.38 301.88 172.22 302.32 170.02 303.04 165.57 305.58 164.03 305.64 164.06 304.89 165.41 304.89 169.76 302.6 171.94 301.96 171.25 299.85 169.48 300.41 169.13 299.36 170.86 298.77 170.88 298.64 170.39 297.09 170.58 296.93 170.34 296.44 169.74 295.96 167.96 294.85 167.06 294.44 166.91 294.58 166.9 296.17 164.94 296.17 164.94 299.7 164.59 299.7 164.59 294.66 163.88 294.67 163.28 295.03 163.45 295.5 162.51 295.1 162.28 295.49 161.64 295.92 161.81 296.34 161.64 296.78 161.33 296.56 160.75 296.63 158.94 296.62 157.63 296.83 156.81 297.04 155.89 297.54 154.37 298.45 152.7 299.67 152.29 300.02 151.82 300.94 151.63 301.72 151.7 302.4 151.46 303.21 150.92 304.06 150.87 304.61 151.6 304.95 151.59 305.2 151.21 305.88 150.69 306.1 150.34 306 149.85 305.51 149.81 305.08 148.91 304.79 148.33 304.7 147.84 305.02 147.45 305.09 146.78 306.06 146.76 306.54 145.83 307.69 145.58 307.81 145.85 308.78 145.74 309.66 145.57 310.25 145.11 310.92 145.22 311.28 144.48 311.76 143.95 311.63 143.35 311.84 143 311.51 142.76 311.59 142.19 312.56 141.82 312.38 142.35 311.73 142.17 311.44 143.16 311.1 143.58 311.08 144.31 310.72 144.37 310.39 143.86 310.17 143.7 310.35 142.68 309.84 141.05 310.46 141.26 310.68 141.59 311.65 141.33 311.83 141.07 311.17 140.69 311.13 140.35 311.51 140.39 312.07 140.13 312.22 139.09 311.73 138.73 312.01 138.29 311.76 137.28 312.2 136.89 312.56 136.26 313.55 136.18 314.38 136.3 315.02 135.98 315.42 135.27 315.46 134.44 315.71 133.83 316.09 133.37 316.57 133.21 317.18 132.99 317.37 133.06 318.14 132.59 319.06 132.6 319.34 131.98 319.86 131.44 320.71 132.23 321.23 132.01 321.55 131.9 323.07 131.39 323.18 130.87 323.74 130.46 324.52 130.32 325.88 130.34 326.5 130.13 326.67 130.3 327.42 130.07 328.03 129.88 328.1 129.39 328.81 128.86 329.07 128.71 329.51 128.17 329.41 127.89 329.92 127.66 330.8 127.98 331.36 127.53 331.55 127.2 334.12 127.3 334.49 127.02 335.17 126.68 335.47 126.62 335.84 126.1 335.82 125.86 336.12 125.44 337.23 125.35 337.73 125.4 338.91 125.73 339.64 126.29 339.96 126.59 339.96 127.83 340.68 128.23 340.8 128.74 342.39 128.8 343.42 129.16 344.18 129.1 345.28 129.8 346.15 130.07 346.76 129.96 347.75 128.92 347.76 127.11 349.36 126.51 349.75 126.04 349.9 125.32 349.82 124.99 350.08 124.66 350.02 123.88 349.42 123.48 349.42 122.88 349.21 121.54 348.15 121.15 347.47 120.94 346.6 121.32 346.42 121.11 345.97 120.66 345.54 120.4 345.08 120.31 343.65 119.81 343.48 119.24 343.62 118.86 343.95 118.42 344.04 117.24 343.93 116.95 344.21 116.42 344.37 115.5 345.15 114.28 345.41 113.84 345.27 113.43 346.06 113 345.79 112.59 344.94 111.85 345.07 111.49 345.77 110.26 345.9 110.07 346.15 110.5 346.84 111.3 347.45 111.86 347.77 111.67 348.39 111.31 348.67 111.06 349.12 110.69 349.35 109.76 349.6 108.69 349.56 108.27 349.71 107.6 350.34 107.04 350.63 106.69 351.27 106.08 351.13 105.38 351.19 104.94 351.09 104.38 350.73 103.91 350.79 103.73 350.29 103.03 349.75 102.18 349.47 102.25 349.17 101.03 348.73 100.82 348.78 99.81 349.43 99.53 349.5 99.34 349.07 98.66 348.41 98.68 347.8 98.19 347.21 97.11 347.08 96.75 346.01 95.88 345.17 95.76 344.71 95.43 344.42 95.36 343.48 95.78 343.39 95.86 342.85 96.45 341.86 97.09 341.84 97.42 342.15 97.95 342.1 98.44 341.11 98.31 340.41 97.9 340.04 97.68 340.44 97.07 340.52 96.7 340.75 96.34 340.29 96.22 339.41 96.41 339.05 96.89 339.18 97.14 339.77 97.41 339.63 97.56 338.9 98.23 338.82 98.4 338.37 98.76 338.27 99.02 337.8 99.02 337.26 98.39 336.94 98.77 336.32 98.27 335.85 98.47 335.08 97.75 334.6 97.03 333.34 97.5 332.84 97.27 332.01 96.72 331.37 95.89 330.69 94.61 330.58 93.85 330.94 93.92 331.78 93.77 332.38 90.81 332.38 90.46 332.25 90.43 331.82 90.86 331.69 90.7 331.22 90.3 331.14 89.86 331.93 89.9 332.13 90.82 334.47 91.01 334.67 92.13 335.28 93.28 335.29 93.96 335.16 93.94 335.69 92.13 335.71 90.73 334.9 89.36 331.44 89.18 331.32 89.58 330.52 89.35 330.13 88.94 330.28 88.39 329.37 87.96 328.93 87.55 327.97 86.89 327.17 86.41 326.79 85.42 326.94 84.67 327.16 84.23 327 84.44 326.69 84.77 326.81 85.43 326.62 85.34 326.31 85.93 326.21 85.88 324.82 85.12 324.71 85.07 323.82 83.85 323.57 83.56 322.73 83.71 321.24 84.1 321.46 84.8 321.12 85.36 319.96 84.6 319.68 84.6 319.16 84.18 319.18 83.91 319.41 83.88 320.21 83.04 320.53 82.65 322.31 81.93 322.15 81.49 323.07 82.95 324.64 83.13 324.59 83.39 325.85 83.47 327.7 84.04 328.31 83.89 328.76 83.47 328.71 83.05 328.02 82.96 327.41 82.94 326.15 82.77 325.18 82.38 324.59 81.09 323.26 80.33 323.05 80.12 322.5 79.6 322.27 79.78 321.56 79.74 320.98 79.49 319.98 79.14 319.56 78.43 319.24 78.06 319.2 77.13 318.34 76.6 318.34 75.73 317.89 75.02 317.78 74.96 317.39 74.46 316.47 74.34 315.95 73.99 315.88 74.32 315.36 74.38 314.72 74.16 313.68 73.5 313.31 73.35 312.88 73.53 312.31 74.17 312.54 74.33 312.3 73.49 311.95 73.03 312.22 73.09 311.57 72.58 310.82 72.02 310.63 71.36 310.21 71.16 309.88 70.4 309.75 70.03 309.87 69.72 309.61 69.69 308.34 69.92 307.87 69.99 307.1 69.77 307.02 69.39 306.41 69.15 305.75 69.22 305.3 68.62 304.83 68.82 304.4 68.54 303.11 68.12 303.04 68.06 302.32 67.53 301.17 66.89 300.66 65.74 300.55 64.81 300.3 64.73 300.14 63.56 299.86 63.15 299.89 62.64 299.6 61.56 299.24 60.58 298.46 61.31 298.16 61.24 297.71 61.73 297.43 61.49 297.06 61.35 296.45 61.45 296.14 61.19 295.45 61.61 295.12 61.88 294.64 61.69 294.12 61.24 295.13 59.9 295.44 59.69 295.91 58.15 295.01 57.93 295.1 57.11 294.74 56.59 294.91 55.74 293.78 54.73 292.92 54.21 292.81 53.83 291.92 53.48 291.57 52.87 291.22 51.93 291.25 51.5 291.41 50.99 291.26 50.14 291.57 49.69 291.13 48.84 291.1 48.37 291.68 47.66 291.4 47.21 292 46.29 292.18 44.81 292.13 44.59 291.49 43.66 291.37 43.36 290.9 42.92 290.78 42.62 290.25 42.1 289.88 41.48 289.73 40.96 289.34 39.39 289.07 39.09 288.83 38.52 288.8 37.84 288.61 37.3 288.34 37.15 288.01 35.86 287.87 35.71 287.6 35.21 287.77 35.29 287.23 34.93 287.03 33.71 285.87 33.27 286.19 33.32 285.36 33.04 284.94 32.44 285.12 32.18 284.53 31.65 284.57 30.93 283.66 31.14 283.29 30.83 282.7 30.13 282.67 29.76 282.45 29.15 282.45 29.16 282.04 28.62 281.96 28.89 281.59 28.46 281.3 27.86 281.36 27.93 281.01 27.17 280.96 27.06 280.35 27.43 280.13 27.32 279.44 26.34 278.77 26.29 278.15 25.65 277.82 25.74 277.4 25.01 277.25 24.23 276.9 24.2 276.67 23.52 276.82 23.48 276.54 22.93 276.21 22.53 275.38 22.09 275.5 21.86 275.32 20.92 275.11 20.08 274.82 19.53 274.43 19.43 273.85 18.76 273.12 17.12 272.17 16.68 271.5 15.96 270.92 15.36 270.58 14.71 270.45 15.01 270.05 14.65 269.81 14.52 269.33 14.08 269.04 13.85 267.93 13.29 267.43 13.53 266.73 13.26 266.28 13.43 265.17 13.25 264.48 12.97 264.33 12.84 262.93 12.98 262.58 11.59 261.68 11.96 261.11 11.73 260.34 11.11 259.92 11.15 259.75 10.21 258.87 9.87 258.9 9.42 258.3 9.11 258.18 8.64 257.6 7.94 257.14 7.35 256.2 6.82 256.08 6.32 256.17 6.02 255.28 5.77 254.91 4.67 254.3 4.18 253.58 3.52 252.81 2.38 252.21 1.97 251.72 1.66 251.65 1.67 251.13 1.49 250.49 1.73 249.91 1.02 249.65 1.03 248.91 1.3 248.88 1.24 249.54 2.73 250.03 3.27 249.55 2.86 249.24 2.19 249.15 2.28 248.58 1.91 247.72 2.11 247 1.9 246.55 1.75 245.07 1.61 244.57 1.76 244.25 1.51 243.24 1 242.52 1.45 242.36 2.17 241.97 2.61 241.42 2.84 241.36 3.16 240.59 4.2 239.58 4.64 239.26 4.9 238.84 4.85 238.17 3.7 237.51 3.41 237.26 3.3 236.34 3.8 235.69 3.92 235.19 4.4 234.83 5.25 234.55 5.46 234.91 6.07 234.68 7.12 233.42 7.47 232.62 7.74 232.51 8.36 233.08 9.88 232.42 10.52 232.43 10.9 232.67 11.26 232.64 11.89 232.89 12.47 232.77 12.85 232.84 13.07 233.17 13.51 233.34 13.98 233.08 14.15 232.7 14.72 232.77 15.34 232.5 15.77 231.96 16.53 231.32 17.22 231.04 18.01 231.17 18.63 231.03 19.11 231.72 19.78 231.12 20.74 231.06 21.52 230.65 21.97 230.12 22.11 229.55 22.95 229.35 24.07 229.32 25.09 229.05 25.01 228.2 25.31 226.29 25.06 225.73 25.13 224.54 25.29 224.34 25.46 223.34 26.09 223.5 27.31 223.99 27.83 224.39 29.12 224.75 30.02 224.92 31.3 225.42 33.22 225.82 34.83 226.33 36.39 226.9 37.16 227.36 38.4 228.33 39.99 229.38 41.17 229.69 43.31 230.34 43.68 230.41 45.18 231.12 46.64 232.11 48.19 233 49.18 233.41 51.14 234.37 53.35 235.71 56.14 237.28 56.98 237.58 57.91 237.81 59.5 238.33 60.94 239.07 62.39 239.66 63.31 239.96 64.05 240.34 64.71 241.08 64.85 241.6 65.91 242.98 66.48 243.59 67.27 243.95 68.39 244.98 69.19 245.6 70.15 246.01 70.46 246.33 71.1 247.23 72.56 249.86 73.11 250.53 73.66 250.99 75.58 252.4 76.27 252.8 77.51 253.89 78.81 254.69 79.18 254.74 78.82 253.57 78.84 252.56 78.44 251.99 78.5 251.1 77.81 249.99 77.56 249.29 77.57 248.04 78.01 246.66 77.72 245.43 77.69 244.51 77.99 243.48 77.32 242.28 77.51 241.06 78.67 238.77 78.84 237.23 78.81 236.9 79.21 235.77 79.69 236.02 80.51 235.93 80.97 236.08 81.49 235.97 81.72 235.45 82.11 235.22 82.1 234.89 82.52 234.66 83.08 234.64 84.63 233.35 85.53 233.48 86.14 232.63 86.36 232.05 86.86 231.96 87.13 231.42 87.94 230.58 88.51 230.43 89.13 230.43 90.05 229.98 90.49 230.07 91.7 229.46 93.05 229.22 93.7 228.86 94.54 228.9 95.13 228.37 96.21 227.9 96.76 227.83 98.55 227.33 99.15 227.59 99.56 227.32 100.42 227.25 100.97 226.88 101.83 226.77 102.52 226.41 103.67 226.56 104.46 225.73 105.77 225.01 107.57 225.01 108.3 224.8 109.22 224.8 110 224.22 112.09 223.8 113.38 223.28 113.75 222.96 114.7 222.55 115.2 221.99 115.33 221.21 115.32 220.39 115.61 219.67 116.34 219.05 118.19 217.86 118.89 217.76 120.21 217.4 121.38 217.3 122.18 216.76 123.11 215.19 123.24 213.38 126.13 211.04 128.44 209.27 129.02 207.92 129.39 205.98 130.01 203.89 130.51 201.54 131.15 200.2 131.48 198.85 132.57 195.31 136.49 194.63 140.04 192.45 140.15 192 140.68 191.14 142.44 189.63 145.22 190.92 145.88 191.12 146.89 190.72 147.73 190.17 148.43 189.42 150.12 189.43 153.98 189 155.13 188.77 156.12 189.04 156.81 189.52 157.41 190.44 157.81 190.85 158.39 191.05 159.46 190.77 160.77 189.83 160.5 189.17 161.04 188.79 161.48 188.78 163.63 185.94 166.48 182.24 167.18 181.9 167.84 180.79 168.5 181.13 168.88 180.79 169.11 180.23 169.58 179.87 169.74 179.06 170.02 178.73 170.66 178.55 171.98 177.9 172.42 176.94 172.44 176.56 172.97 175.45 173.71 174.21 174.39 173.38 175.13 172.69 176.21 172.3 177 171.66 177.1 169.48 177.69 169.15 179.12 169.14 180.67 169.75 182.7 170.29 183.7 170.95 185.47 171.67 185.98 172.12 187.16 172.48 188.27 172.32 189.19 172.47 189.69 172.8 192.12 172.65 192.71 172.7 194.15 172.57 195.63 172.2 197.29 171.54 199.16 171.21 200.55 171.31 200.9 171.84 201.77 172.09 203.52 172.3 205.56 172.33 206.82 172.05 207.33 171.77 208.3 170.88 208.82 169.27 210.28 167.53 212.07 166.83 213.63 165.53 214.26 165.37 216.15 165.66 218.47 165.79 219.72 165.91 220.7 166.15 222.03 166.77 223.59 166.9 224.71 167.74 225.49 167.98 225.96 167.76 226.29 167.38 226.62 167.83 227.4 167.92 228.73 168.39 230.33 169.54 231.09 169.3 232.87 169.05 233.88 168.62 234.01 168.77 235.26 168.16 236.62 168.37 238.43 168.19 239.6 168.18 241.01 168.42 241.81 169.51 242.87 170.25 243.5 169.99 244.93 169.94 246.21 169.62 248.2 171.39 249.37 171.47 250.58 171.25 251.06 171.07 252.33 170.85 253.22 170.88 254.31 171.09 254.91 170.95 256.27 170.91 256.91 170.7 258.11 171.17 259.68 172.37 261.42 172.31 261.7 172.14 262.95 171.86 263.74 172.13 264.1 172.06 264.96 172.22 265.21 172.49 265.93 172.82 266.77 172.56 267.39 172.57 268.32 172.19 268.96 172.59 269.73 172.45 271.41 172.61 272.25 172.75 271.97 172.08 271.47 171.34 272.22 169.14 272.21 168.65 272.44 168.1 272.85 168.19 273.32 168.05 273.74 167.52 274.29 167.4 274.96 166.95 275.7 166.31 276.21 166.03 276.86 165.2 277.16 164.01 277.43 163.52 277.33 163 277.53 162.64 277.51 162.09 277.65 161.38 277.11 160.25 277.5 159.99 277.21 158.89 277.29 158.24 276.84 157.97 276.8 157.21 276.97 156.77 276.83 156.29 277.1 155.75 277.43 155.56 277.57 155.19 278.45 154.29 278.74 154.26 279.2 153.74 279.76 153.89 280.42 153.34 281.9 152.62 282.51 152.77 282.96 152.54 284.2 152.14 284.46 151.83 285.67 151.13 288.21 150.7 289.39 150.92 290.94 151.08 291.59 151.32 292.73 151.48 293.69 151.35 296.49 151.69 298.84 151.48 300.65 151.42 301.22 150.62 301.66 150.4 302.05 150.45 303.26 150.4 305.37 149.78 306.24 149.88 307.44 150.21 307.9 150.05 308.38 150.14 310.51 151.73 311.59 151.84 312.67 151.68 313.28 151.91 314.9 153.61 314.93 153.94 315.45 154.79 315.75 154.77 316.43 154.08 317.55 153.14 319.17 152.2 320.15 151.84 321.87 151.11 322.55 150.92 322.82 150.57 323.73 150.36 324.32 150.46 325.18 151.07 325.87 152.19 326.94 152.98 327.53 153.27 327.98 153.85 328.34 154.97 328.49 155.94 329.88 156.15 331.58 156.17 333.42 154.31 335.24 153.42 336.94 152.42 338.52 151.43 339.62 150.62 340.46 150.24 342.5 150.52 344.17 150.83 344.87 151.11 346.69 151.52 347.55 151.97 348.18 152.53 349.25 152.39 350.26 151.72 351.66 150.05 352.77 148.84 353.78 148.87 356.03 148.63 359.28 149.67 361.54 149.32 362.72 149.27 363.45 149.12 365.87 148 367.57 147.06 368.96 146.48 370.5 147.1 370.89 147.62 371.63 148.07 372.09 147.1 372.62 147.02 373.53 146.63 374.57 146.45 375.54 146.03 376.98 146.27 378.37 145.29 382.03 142.24 383.09 141.48 384.93 141.08 385.57 140.7 386.4 140.37 386.99 139.75 388.03 139.05 389.09 138.44 389.91 137.73 390.42 137.39 390.98 137.21 393.45 135.78 393.71 135.36 394.24 134.96 395.4 134.47 396.46 133.61 397.32 134.06 398.6 135.22 400.19 135.64 400.72 135.51 401.62 134.26 402.33 134.16 403.18 134.33 404.52 135.25 406.13 135.34 406.63 135.67 407.93 136.02 409.27 135.94 409.74 136.13 410.26 136.16 411.42 135.87 412.32 136.16 413.24 135.32 414.03 135.16 414.4 135.19 415.45 136.01 416.61 135.62 417.81 135.96 418.5 135.45 420.72 134.61 421.37 134.52 423.03 134.08 423.84 134.05 425.51 133.62 426.54 133.73 427.73 134.01 427.98 133.8 430.3 133.14 431.41 133.22 432.56 133.07 432.92 132.94 434.17 133.23 435.23 133.65 435.38 133.55 436.18 131.53 436.92 130.75 438.95 130.3 440.14 129.57 441.55 128.33 442.33 127.87 444.24 127.19 446.62 125.59 448.03 124.92 449.3 124.12 450.98 123.37 452.32 123.26 453.46 123.08 454 122.87 456.16 122.53 458.29 122.58 459.49 122.26 461.08 122.39 461.93 122.25 463.08 121.58 464.59 120.22 465.63 119.85 466.82 120.4 467.63 120.96 468.15 120.86 468.04 120.51 468.36 120.17 469.4 120.02 469.74 117.48 469.85 116 470.53 114.74 470.88 113.74 471.43 113.22 471.95 112.88 472.5 112.19 473.27 111.9 473.72 111.2 474.4 110.77 474.94 110.63 475.44 110.22 478.32 109.21 478.56 110.01 479.15 110.42 480.39 110.77 480.66 110.48 482.07 110.27 484.48 110.13 486.83 109.37 488.82 109.21 492.1 109.32 493.21 109.45 493.78 109.13 495.22 107.99 495.73 107.96 496.86 108.56 497.54 108.46 498.32 108.14 498.62 107.89 498.9 107.16 498.89 106.53 498.53 105.65 499.38 104.85 499.8 104.03 499.83 103.1 500.22 102.57 500.76 102.36 501.23 102.45 502.67 102.22 503.53 101.61 504.36 101.22 505.15 100.12 505.86 99.49 507.15 99.21 508.18 99.3 509.77 99.25 510.87 99.86 511.83 100.27 512.4 100.77 513.43 101.42 513.91 101.62 514.66 101.6 515.03 101.44 515.54 100.89 516.94 99.66 517.91 98.65 519.55 97.81 521.98 96 523.65 94.51 525.27 92.93 525.73 92.54 526.97 91.29 528.66 90.4 530.14 89.24 531.68 87.63 532.85 86.79 533.8 85.75 536.88 84.13 537.15 84.06 538.3 83.47 543.28 80.22 543.88 79.65 544 79.79 545.05 79.2 545.99 78.57 548.87 77.29 551.16 76.57 551.87 76.23 553.06 76.11 555.26 75.46 555.65 75.3 557.15 75.27 559.63 75.34 561.81 75.36 564.07 75.33 565.19 74.82 567.18 74.23 569.22 73.8 571.21 72.55 573.97 72.26 576.06 70.97 576.24 70.59 576.79 70.44 578.77 69.67 578.96 69.47 580.59 72.39 581.45 73.13 583.74 74.78 584.96 75.53 586.02 76.29 587.4 76.96 588.74 77.37 591.63 77.67 593.14 77.76 595.73 78.05 596.98 78.29 598.13 78.43 600 77.83 601.55 77.57 602.42 77.62 603.05 77.5 604.44 77.43 606.81 76.53 607.87 76.32 609.09 75.97 610.01 75.45 610.78 74.92 611.65 74.22 612.19 73.98 613.93 72.82 614.6 72.46 616.83 71 618.05 70.13 618.9 69.32 619.65 68.49 620.24 67.95 621.17 66.89 623.45 65.24 624.55 63.9 626.17 61.84 626.71 60.7 627.52 60.48 628.3 60.44 629.51 60.23 630.8 60.15 631.81 59.6 632.13 58.95 634.07 56.34 635.12 54.73 635.4 53.96 636.31 52.34 637.05 51.74 638.58 51.77 639.15 51.7 641.45 51.71 642.72 51.91 643.59 52.16 644.71 52.66 645.1 53.05 645.62 53.27 646.76 53.59 646.93 53.71 647.99 53.93 648.48 53.6 649.32 53.38 649.54 53.13 650.51 52.67 650.6 51.84 650.4 51.03 650.55 50.74 651.26 50.6 652.08 50.12 652.78 49.47 653.42 49.11 654.05 48.9 655.77 48.13 657.31 47.82 659.47 47.56 660.61 47.16 661.31 46.77 662.04 46.56 662.41 46.88 663.51 47.04 663.69 46.38 664.35 45.54 665.63 45.4 665.91 45.19 666.44 45.21 667.39 43.89 667.98 43.94 668.43 44.25 669.32 44.64 669.81 44.65 670.63 45.26 671.39 45.27 671.7 44.58 671.72 43.3 671.94 42.78 672.66 41.79 673.01 40.81 673.56 40.66 673.35 39.76 673.4 39.36 673.28 38.5 673.26 37.56 674.26 37.18 674.81 37.4 675.83 37.3 676.22 37.02 677.29 37 678.16 36.67 678.95 36.81 680.54 35.65 680.92 35.14 681.09 34.62 681.4 34.38 682.96 33.67 683.74 33.18 684.45 32.92 684.92 32.38 685.51 32.01 686.45 31.16 688.49 30.24 689.16 29.79 690.4 29.12 691.38 28.75 692.67 28.06 693.22 27.95 694.19 27.47 695.42 27.01 696.51 26.49 697.03 26.54 699.1 26.16 699.83 26.21 701.87 26 703.16 25.36 704.24 25.25 704.73 25.04 705.66 23.66 706.63 22.51 707.05 21.87 706.99 21.47 707.75 20.71 707.85 20.47 708.56 20.26 709.15 19.95 710.29 19.75 711.31 19.5 711.82 19.16 713.16 18.89 714.61 18.93 714.85 18.79 715.36 18.98 715.9 18.72 716.55 18.62 717.07 18.17 717.93 16.84 718.02 16.53 718.5 15.91 719.65 15.11 720.37 13.99 720.79 13.52 721.41 13.73 721.71 14.11 722.22 13.86 723.03 14.17 723.21 13.99 723.28 12.74 723.2 11.43 723.03 10.88 724.31 10.14 726.11 10.18 726.65 10 727.69 10.11 728.11 10.01 728.25 9.73 729.23 8.82 729.76 8.83 730.13 9.06 730.67 8.63 731.74 8.01 732.13 8.28 732.57 7.73 733.13 6.29 733.64 5.74 734.42 4.72 735.26 3.89 736.21 4.15 737.04 4.94 737.72 5.25 738.27 5.94 738.75 6.15 739.26 5.84 739.76 4.06 740.28 3.7 740.92 4.34 741.22 4.23 741.48 3.51 742.11 3.61 742.69 3.38 742.86 3.52 743.61 2.81 743.96 2.6 744.58 2.65 744.95 2.4 746.17 2.62 747.34 2.34 747.69 1.98 748.18 2.11 748.67 1.75 749.09 1 749.64 1.12 750.31 1.53 751.32 1.72 752.2 1.45 753.03 1.64 Z" fill-rule="evenodd" id="39020000"/>
</g>
</svg>